0, 0, Header, 1, 19, 120
1, 0, Start_track
1, 0, Title_t, "Symphony n\260 1 in C major"
1, 0, Title_t, "IV :Adagio - Allegro molto e vivace"
1, 0, Copyright_t, "Copyright \251 2001 by J.F. Lucarelli - j-f.lucarelli@infonie.be  --  http://perso.infonie.fr/espace-midi"
1, 0, Text_t, "L. Van Beethoven (1770-1827)"
1, 0, Text_t, "Partition compl\350te - dur\351e : 00:05:48\012"
1, 0, Text_t, "D\351but du travail : 27 d\351cembre 2000\012"
1, 0, Text_t, "Fin de la version 0 : 2 janvier 2001\012"
1, 0, Text_t, "Version 1.0 : 31 janvier 2001\012"
1, 0, Text_t, "Version 1.01 : 2 juin 2001 : r\351vision avant publication\012"
1, 0, Text_t, "Version 1.02 : 4 juin 2001 : balance des bois\012"
1, 0, Text_t, "Dur\351e d'\351dition et d'audition : 12 h\012"
1, 0, Text_t, "-----\012"
1, 0, Text_t, "Full score - length : 00:05:48\012"
1, 0, Text_t, "Beginning of writing : 27 december 2000\012"
1, 0, Text_t, "End of version 0 : 2 january 2001\012"
1, 0, Text_t, "Version 1.0 : 31 january 2001\012"
1, 0, Text_t, "Version 1.01 : 2 juni 2001 : revision before publication\012"
1, 0, Text_t, "Version 1.02 : 4 juin 2001 : balance of woodwinds\012"
1, 0, Text_t, "Editing and audition time : 12 h\012"
1, 0, Time_signature, 2, 2, 24, 8
1, 0, Key_signature, 0, "major"
1, 0, Tempo, 500000
1, 0, Marker_t, "L. Van Beethoven : Symphony n\260 1 in C"
1, 240, Tempo, 2727273
1, 240, Marker_t, "IV : Adagio - Allegro molto e vivace"
1, 390, Tempo, 4800000
1, 410, Tempo, 7500000
1, 420, Tempo, 1967213
1, 1140, Tempo, 2105263
1, 1160, Tempo, 2307692
1, 1180, Tempo, 3243243
1, 1200, Tempo, 1791045
1, 1290, Tempo, 2926829
1, 1320, Tempo, 1791045
1, 1380, Tempo, 1904762
1, 1410, Tempo, 2068966
1, 1425, Tempo, 3428571
1, 1440, Tempo, 4800000
1, 1480, Tempo, 3750000
1, 1560, Tempo, 442804
1, 1590, Tempo, 431655
1, 1590, Marker_t, "Allegro molto e vivace"
1, 1620, Tempo, 419580
1, 1650, Tempo, 405405
1, 1680, Tempo, 413793
1, 1800, Tempo, 382166
1, 1920, Tempo, 413793
1, 2040, Tempo, 382166
1, 2160, Tempo, 413793
1, 2280, Tempo, 382166
1, 2400, Tempo, 413793
1, 2520, Tempo, 382166
1, 2640, Tempo, 413793
1, 2760, Tempo, 382166
1, 2880, Tempo, 413793
1, 3000, Tempo, 382166
1, 3120, Tempo, 413793
1, 3240, Tempo, 382166
1, 3360, Tempo, 413793
1, 3480, Tempo, 478088
1, 3540, Tempo, 402685
1, 3600, Tempo, 413793
1, 3720, Tempo, 382166
1, 3840, Tempo, 413793
1, 3960, Tempo, 382166
1, 4080, Tempo, 413793
1, 4200, Tempo, 382166
1, 4320, Tempo, 413793
1, 4440, Tempo, 382166
1, 4560, Tempo, 413793
1, 4680, Tempo, 382166
1, 4800, Tempo, 413793
1, 4920, Tempo, 382166
1, 5040, Tempo, 413793
1, 5160, Tempo, 382166
1, 5280, Tempo, 413793
1, 5400, Tempo, 382166
1, 5520, Tempo, 413793
1, 5640, Tempo, 382166
1, 5760, Tempo, 413793
1, 5880, Tempo, 382166
1, 6000, Tempo, 413793
1, 6120, Tempo, 382166
1, 6240, Tempo, 413793
1, 6360, Tempo, 382166
1, 6480, Tempo, 413793
1, 6600, Tempo, 382166
1, 6720, Tempo, 413793
1, 6840, Tempo, 382166
1, 6960, Tempo, 413793
1, 7080, Tempo, 382166
1, 7140, Tempo, 461538
1, 7200, Tempo, 413793
1, 7320, Tempo, 382166
1, 7440, Tempo, 413793
1, 7560, Tempo, 382166
1, 7680, Tempo, 413793
1, 7800, Tempo, 382166
1, 7920, Tempo, 413793
1, 8040, Tempo, 382166
1, 8160, Tempo, 413793
1, 8280, Tempo, 382166
1, 8400, Tempo, 413793
1, 8520, Tempo, 382166
1, 8640, Tempo, 413793
1, 8760, Tempo, 382166
1, 8880, Tempo, 413793
1, 9000, Tempo, 382166
1, 9120, Tempo, 413793
1, 9175, Tempo, 470588
1, 9240, Tempo, 382166
1, 9360, Tempo, 413793
1, 9480, Tempo, 382166
1, 9600, Tempo, 413793
1, 9660, Tempo, 470588
1, 9720, Tempo, 382166
1, 9840, Tempo, 413793
1, 9960, Tempo, 382166
1, 10080, Tempo, 413793
1, 10200, Tempo, 382166
1, 10320, Tempo, 413793
1, 10440, Tempo, 382166
1, 10560, Tempo, 413793
1, 10680, Tempo, 382166
1, 10800, Tempo, 413793
1, 10920, Tempo, 382166
1, 10980, Tempo, 461538
1, 11040, Tempo, 413793
1, 11160, Tempo, 382166
1, 11280, Tempo, 413793
1, 11400, Tempo, 382166
1, 11520, Tempo, 413793
1, 11640, Tempo, 382166
1, 11760, Tempo, 413793
1, 11880, Tempo, 382166
1, 12000, Tempo, 413793
1, 12120, Tempo, 382166
1, 12240, Tempo, 413793
1, 12360, Tempo, 382166
1, 12480, Tempo, 413793
1, 12600, Tempo, 382166
1, 12720, Tempo, 413793
1, 12840, Tempo, 382166
1, 12960, Tempo, 447761
1, 13080, Tempo, 390879
1, 13200, Tempo, 425532
1, 13320, Tempo, 398671
1, 13410, Tempo, 500000
1, 13440, Tempo, 434783
1, 13560, Tempo, 409556
1, 13680, Tempo, 434783
1, 13800, Tempo, 409556
1, 13920, Tempo, 434783
1, 14040, Tempo, 409556
1, 14160, Tempo, 434783
1, 14280, Tempo, 409556
1, 14370, Tempo, 508475
1, 14400, Tempo, 434783
1, 14520, Tempo, 409556
1, 14640, Tempo, 434783
1, 14760, Tempo, 409556
1, 14880, Tempo, 434783
1, 15000, Tempo, 409556
1, 15120, Tempo, 434783
1, 15240, Tempo, 409556
1, 15360, Tempo, 434783
1, 15480, Tempo, 409556
1, 15600, Tempo, 428571
1, 15720, Tempo, 404040
1, 15840, Tempo, 424028
1, 15960, Tempo, 402685
1, 16080, Tempo, 421053
1, 16200, Tempo, 398671
1, 16320, Tempo, 416667
1, 16440, Tempo, 396040
1, 16560, Tempo, 415225
1, 16680, Tempo, 388350
1, 16770, Tempo, 461538
1, 16800, Tempo, 413793
1, 16920, Tempo, 382166
1, 17040, Tempo, 413793
1, 17160, Tempo, 382166
1, 17280, Tempo, 413793
1, 17400, Tempo, 382166
1, 17520, Tempo, 413793
1, 17640, Tempo, 382166
1, 17760, Tempo, 413793
1, 17880, Tempo, 382166
1, 18000, Tempo, 413793
1, 18120, Tempo, 382166
1, 18240, Tempo, 413793
1, 18360, Tempo, 382166
1, 18480, Tempo, 413793
1, 18600, Tempo, 382166
1, 18720, Tempo, 500000
1, 18780, Tempo, 416667
1, 18840, Tempo, 382166
1, 18960, Tempo, 452830
1, 19020, Tempo, 416667
1, 19080, Tempo, 382166
1, 19200, Tempo, 500000
1, 19260, Tempo, 416667
1, 19320, Tempo, 382166
1, 19440, Tempo, 452830
1, 19500, Tempo, 416667
1, 19560, Tempo, 382166
1, 19680, Tempo, 500000
1, 19740, Tempo, 416667
1, 19800, Tempo, 382166
1, 19920, Tempo, 452830
1, 19980, Tempo, 416667
1, 20040, Tempo, 382166
1, 20160, Tempo, 500000
1, 20220, Tempo, 416667
1, 20280, Tempo, 382166
1, 20400, Tempo, 452830
1, 20460, Tempo, 416667
1, 20520, Tempo, 382166
1, 20640, Tempo, 413793
1, 20760, Tempo, 382166
1, 20880, Tempo, 413793
1, 21240, Tempo, 382166
1, 21360, Tempo, 413793
1, 21720, Tempo, 382166
1, 21840, Tempo, 413793
1, 22200, Tempo, 382166
1, 22320, Tempo, 413793
1, 22680, Tempo, 382166
1, 22800, Tempo, 413793
1, 22920, Tempo, 382166
1, 23040, Tempo, 413793
1, 23160, Tempo, 382166
1, 23280, Tempo, 413793
1, 23400, Tempo, 382166
1, 23520, Tempo, 413793
1, 23640, Tempo, 382166
1, 23760, Tempo, 413793
1, 23880, Tempo, 382166
1, 24000, Tempo, 413793
1, 24120, Tempo, 382166
1, 24240, Tempo, 413793
1, 24360, Tempo, 382166
1, 24480, Tempo, 413793
1, 24600, Tempo, 382166
1, 24720, Tempo, 413793
1, 24840, Tempo, 382166
1, 24960, Tempo, 413793
1, 25080, Tempo, 478088
1, 25140, Tempo, 402685
1, 25200, Tempo, 413793
1, 25320, Tempo, 382166
1, 25440, Tempo, 413793
1, 25560, Tempo, 382166
1, 25680, Tempo, 413793
1, 25800, Tempo, 382166
1, 25920, Tempo, 413793
1, 26040, Tempo, 382166
1, 26160, Tempo, 413793
1, 26280, Tempo, 382166
1, 26400, Tempo, 413793
1, 26520, Tempo, 382166
1, 26640, Tempo, 413793
1, 26760, Tempo, 382166
1, 26880, Tempo, 413793
1, 27000, Tempo, 382166
1, 27120, Tempo, 413793
1, 27240, Tempo, 382166
1, 27360, Tempo, 413793
1, 27480, Tempo, 382166
1, 27600, Tempo, 413793
1, 27720, Tempo, 382166
1, 27840, Tempo, 413793
1, 27960, Tempo, 382166
1, 28080, Tempo, 413793
1, 28200, Tempo, 382166
1, 28320, Tempo, 413793
1, 28440, Tempo, 382166
1, 28560, Tempo, 413793
1, 28680, Tempo, 382166
1, 28740, Tempo, 461538
1, 28800, Tempo, 413793
1, 28920, Tempo, 382166
1, 29040, Tempo, 413793
1, 29160, Tempo, 382166
1, 29280, Tempo, 413793
1, 29400, Tempo, 382166
1, 29520, Tempo, 413793
1, 29640, Tempo, 382166
1, 29760, Tempo, 413793
1, 29880, Tempo, 382166
1, 30000, Tempo, 413793
1, 30120, Tempo, 382166
1, 30240, Tempo, 413793
1, 30360, Tempo, 382166
1, 30480, Tempo, 413793
1, 30600, Tempo, 382166
1, 30720, Tempo, 413793
1, 30775, Tempo, 470588
1, 30840, Tempo, 382166
1, 30960, Tempo, 413793
1, 31080, Tempo, 382166
1, 31200, Tempo, 413793
1, 31260, Tempo, 470588
1, 31320, Tempo, 382166
1, 31440, Tempo, 413793
1, 31560, Tempo, 382166
1, 31680, Tempo, 413793
1, 31800, Tempo, 382166
1, 31920, Tempo, 413793
1, 32040, Tempo, 382166
1, 32160, Tempo, 413793
1, 32280, Tempo, 382166
1, 32400, Tempo, 413793
1, 32520, Tempo, 382166
1, 32580, Tempo, 461538
1, 32640, Tempo, 413793
1, 32760, Tempo, 382166
1, 32880, Tempo, 413793
1, 33000, Tempo, 382166
1, 33120, Tempo, 413793
1, 33240, Tempo, 382166
1, 33360, Tempo, 413793
1, 33480, Tempo, 382166
1, 33600, Tempo, 413793
1, 33720, Tempo, 382166
1, 33840, Tempo, 413793
1, 33960, Tempo, 382166
1, 34080, Tempo, 413793
1, 34200, Tempo, 382166
1, 34320, Tempo, 413793
1, 34440, Tempo, 382166
1, 34560, Tempo, 447761
1, 34680, Tempo, 390879
1, 34800, Tempo, 425532
1, 34920, Tempo, 398671
1, 35010, Tempo, 500000
1, 35040, Tempo, 434783
1, 35160, Tempo, 409556
1, 35280, Tempo, 434783
1, 35400, Tempo, 409556
1, 35520, Tempo, 434783
1, 35640, Tempo, 409556
1, 35760, Tempo, 434783
1, 35880, Tempo, 409556
1, 35970, Tempo, 508475
1, 36000, Tempo, 434783
1, 36120, Tempo, 409556
1, 36240, Tempo, 434783
1, 36360, Tempo, 409556
1, 36480, Tempo, 434783
1, 36600, Tempo, 409556
1, 36720, Tempo, 434783
1, 36840, Tempo, 409556
1, 36960, Tempo, 434783
1, 37080, Tempo, 409556
1, 37200, Tempo, 428571
1, 37320, Tempo, 404040
1, 37440, Tempo, 424028
1, 37560, Tempo, 402685
1, 37680, Tempo, 421053
1, 37800, Tempo, 398671
1, 37920, Tempo, 416667
1, 38040, Tempo, 396040
1, 38160, Tempo, 415225
1, 38280, Tempo, 388350
1, 38370, Tempo, 461538
1, 38400, Tempo, 413793
1, 38520, Tempo, 382166
1, 38640, Tempo, 413793
1, 38760, Tempo, 382166
1, 38880, Tempo, 413793
1, 39000, Tempo, 382166
1, 39120, Tempo, 413793
1, 39240, Tempo, 382166
1, 39360, Tempo, 413793
1, 39480, Tempo, 382166
1, 39600, Tempo, 413793
1, 39720, Tempo, 382166
1, 39840, Tempo, 413793
1, 39960, Tempo, 382166
1, 40080, Tempo, 413793
1, 40200, Tempo, 382166
1, 40320, Tempo, 500000
1, 40380, Tempo, 416667
1, 40440, Tempo, 382166
1, 40560, Tempo, 452830
1, 40620, Tempo, 416667
1, 40680, Tempo, 382166
1, 40800, Tempo, 500000
1, 40860, Tempo, 416667
1, 40920, Tempo, 382166
1, 41040, Tempo, 452830
1, 41100, Tempo, 416667
1, 41160, Tempo, 382166
1, 41280, Tempo, 500000
1, 41340, Tempo, 416667
1, 41400, Tempo, 382166
1, 41520, Tempo, 452830
1, 41580, Tempo, 416667
1, 41640, Tempo, 382166
1, 41760, Tempo, 500000
1, 41820, Tempo, 416667
1, 41880, Tempo, 382166
1, 42000, Tempo, 452830
1, 42060, Tempo, 416667
1, 42120, Tempo, 382166
1, 42240, Tempo, 413793
1, 42360, Tempo, 382166
1, 42480, Tempo, 413793
1, 42840, Tempo, 382166
1, 42960, Tempo, 413793
1, 43320, Tempo, 382166
1, 43440, Tempo, 413793
1, 43800, Tempo, 382166
1, 43920, Tempo, 413793
1, 44280, Tempo, 382166
1, 44400, Tempo, 413793
1, 44520, Tempo, 382166
1, 44640, Tempo, 430108
1, 44760, Tempo, 400000
1, 45090, Tempo, 500000
1, 45120, Tempo, 431655
1, 45600, Tempo, 461538
1, 45720, Tempo, 428571
1, 46080, Tempo, 461538
1, 46200, Tempo, 428571
1, 46560, Tempo, 451128
1, 46680, Tempo, 497925
1, 46710, Tempo, 418118
1, 47040, Tempo, 428571
1, 47160, Tempo, 491803
1, 47190, Tempo, 400000
1, 47490, Tempo, 500000
1, 47520, Tempo, 413793
1, 47640, Tempo, 382166
1, 47760, Tempo, 413793
1, 47880, Tempo, 382166
1, 48000, Tempo, 413793
1, 48120, Tempo, 382166
1, 48240, Tempo, 413793
1, 48360, Tempo, 382166
1, 48480, Tempo, 413793
1, 48600, Tempo, 382166
1, 48720, Tempo, 413793
1, 48840, Tempo, 382166
1, 48960, Tempo, 413793
1, 49080, Tempo, 382166
1, 49200, Tempo, 413793
1, 49320, Tempo, 382166
1, 49440, Tempo, 413793
1, 49560, Tempo, 400000
1, 49680, Tempo, 413793
1, 49800, Tempo, 400000
1, 49920, Tempo, 413793
1, 50040, Tempo, 400000
1, 50160, Tempo, 413793
1, 50280, Tempo, 400000
1, 50400, Tempo, 413793
1, 50520, Tempo, 400000
1, 50640, Tempo, 413793
1, 50760, Tempo, 400000
1, 50880, Tempo, 451128
1, 51000, Tempo, 517241
1, 51030, Tempo, 400000
1, 51120, Tempo, 413793
1, 51240, Tempo, 400000
1, 51360, Tempo, 413793
1, 51480, Tempo, 510638
1, 51510, Tempo, 400000
1, 51600, Tempo, 413793
1, 51720, Tempo, 400000
1, 51840, Tempo, 413793
1, 51960, Tempo, 400000
1, 52080, Tempo, 413793
1, 52200, Tempo, 400000
1, 52320, Tempo, 413793
1, 52440, Tempo, 400000
1, 52560, Tempo, 413793
1, 52680, Tempo, 400000
1, 52800, Tempo, 413793
1, 52920, Tempo, 400000
1, 53040, Tempo, 413793
1, 53160, Tempo, 400000
1, 53280, Tempo, 413793
1, 53400, Tempo, 400000
1, 53520, Tempo, 413793
1, 53640, Tempo, 400000
1, 53760, Tempo, 413793
1, 53880, Tempo, 400000
1, 54000, Tempo, 413793
1, 54120, Tempo, 400000
1, 54240, Tempo, 413793
1, 54360, Tempo, 400000
1, 54480, Tempo, 413793
1, 54600, Tempo, 396040
1, 54720, Tempo, 412371
1, 54840, Tempo, 389610
1, 54960, Tempo, 408163
1, 55080, Tempo, 387097
1, 55170, Tempo, 500000
1, 55200, Tempo, 413793
1, 55320, Tempo, 382166
1, 55440, Tempo, 413793
1, 55560, Tempo, 382166
1, 55680, Tempo, 413793
1, 55800, Tempo, 382166
1, 55920, Tempo, 413793
1, 56040, Tempo, 382166
1, 56130, Tempo, 500000
1, 56160, Tempo, 413793
1, 56280, Tempo, 382166
1, 56400, Tempo, 413793
1, 56520, Tempo, 382166
1, 56640, Tempo, 413793
1, 56760, Tempo, 382166
1, 56880, Tempo, 413793
1, 57000, Tempo, 382166
1, 57120, Tempo, 436364
1, 57240, Tempo, 382166
1, 57360, Tempo, 413793
1, 57480, Tempo, 382166
1, 57600, Tempo, 436364
1, 57720, Tempo, 382166
1, 57840, Tempo, 413793
1, 57960, Tempo, 382166
1, 58080, Tempo, 437956
1, 58200, Tempo, 382166
1, 58320, Tempo, 413793
1, 58440, Tempo, 382166
1, 58560, Tempo, 437956
1, 58680, Tempo, 382166
1, 58800, Tempo, 413793
1, 58920, Tempo, 382166
1, 59040, Tempo, 413793
1, 61080, Tempo, 382166
1, 61200, Tempo, 413793
1, 61320, Tempo, 382166
1, 61440, Tempo, 413793
1, 61560, Tempo, 382166
1, 61680, Tempo, 413793
1, 61800, Tempo, 382166
1, 61920, Tempo, 413793
1, 62040, Tempo, 382166
1, 62160, Tempo, 413793
1, 62280, Tempo, 382166
1, 62400, Tempo, 413793
1, 62520, Tempo, 478088
1, 62580, Tempo, 402685
1, 62640, Tempo, 413793
1, 62760, Tempo, 382166
1, 62880, Tempo, 413793
1, 63000, Tempo, 382166
1, 63120, Tempo, 413793
1, 63240, Tempo, 382166
1, 63360, Tempo, 413793
1, 63480, Tempo, 382166
1, 63600, Tempo, 413793
1, 63720, Tempo, 382166
1, 63840, Tempo, 413793
1, 63960, Tempo, 382166
1, 64080, Tempo, 413793
1, 64200, Tempo, 382166
1, 64320, Tempo, 413793
1, 64440, Tempo, 472441
1, 64500, Tempo, 383387
1, 64560, Tempo, 413793
1, 64680, Tempo, 382166
1, 64800, Tempo, 413793
1, 64920, Tempo, 382166
1, 65040, Tempo, 413793
1, 65160, Tempo, 382166
1, 65280, Tempo, 413793
1, 65460, Tempo, 380952
1, 65520, Tempo, 413793
1, 65640, Tempo, 382166
1, 65760, Tempo, 413793
1, 65880, Tempo, 382166
1, 66000, Tempo, 413793
1, 66120, Tempo, 382166
1, 66240, Tempo, 413793
1, 66360, Tempo, 382166
1, 66480, Tempo, 413793
1, 66600, Tempo, 382166
1, 66720, Tempo, 413793
1, 66840, Tempo, 382166
1, 66960, Tempo, 413793
1, 67080, Tempo, 382166
1, 67200, Tempo, 447761
1, 67320, Tempo, 390879
1, 67440, Tempo, 425532
1, 67560, Tempo, 398671
1, 67650, Tempo, 500000
1, 67680, Tempo, 434783
1, 67800, Tempo, 409556
1, 67920, Tempo, 434783
1, 68040, Tempo, 409556
1, 68160, Tempo, 434783
1, 68280, Tempo, 409556
1, 68400, Tempo, 434783
1, 68520, Tempo, 409556
1, 68610, Tempo, 474308
1, 68640, Tempo, 434783
1, 68760, Tempo, 409556
1, 68880, Tempo, 434783
1, 69000, Tempo, 409556
1, 69120, Tempo, 434783
1, 69240, Tempo, 409556
1, 69360, Tempo, 434783
1, 69480, Tempo, 409556
1, 69600, Tempo, 434783
1, 69720, Tempo, 409556
1, 69810, Tempo, 481928
1, 69840, Tempo, 434783
1, 69960, Tempo, 409556
1, 70080, Tempo, 434783
1, 70200, Tempo, 409556
1, 70320, Tempo, 434783
1, 70440, Tempo, 409556
1, 70560, Tempo, 434783
1, 70680, Tempo, 409556
1, 70800, Tempo, 428571
1, 70920, Tempo, 404040
1, 71040, Tempo, 424028
1, 71160, Tempo, 402685
1, 71280, Tempo, 421053
1, 71400, Tempo, 398671
1, 71520, Tempo, 416667
1, 71640, Tempo, 396040
1, 71760, Tempo, 415225
1, 71880, Tempo, 388350
1, 71970, Tempo, 461538
1, 72000, Tempo, 413793
1, 72120, Tempo, 382166
1, 72240, Tempo, 413793
1, 72360, Tempo, 382166
1, 72480, Tempo, 413793
1, 72600, Tempo, 382166
1, 72720, Tempo, 413793
1, 72840, Tempo, 382166
1, 72960, Tempo, 413793
1, 73080, Tempo, 382166
1, 73200, Tempo, 413793
1, 73320, Tempo, 382166
1, 73440, Tempo, 413793
1, 73560, Tempo, 382166
1, 73680, Tempo, 413793
1, 73800, Tempo, 382166
1, 73920, Tempo, 500000
1, 73980, Tempo, 416667
1, 74040, Tempo, 382166
1, 74160, Tempo, 452830
1, 74220, Tempo, 416667
1, 74280, Tempo, 382166
1, 74400, Tempo, 500000
1, 74460, Tempo, 416667
1, 74520, Tempo, 382166
1, 74640, Tempo, 452830
1, 74700, Tempo, 416667
1, 74760, Tempo, 382166
1, 74880, Tempo, 500000
1, 74940, Tempo, 416667
1, 75000, Tempo, 382166
1, 75120, Tempo, 452830
1, 75180, Tempo, 416667
1, 75240, Tempo, 382166
1, 75360, Tempo, 500000
1, 75420, Tempo, 416667
1, 75480, Tempo, 382166
1, 75600, Tempo, 452830
1, 75660, Tempo, 416667
1, 75720, Tempo, 382166
1, 75840, Tempo, 413793
1, 75960, Tempo, 382166
1, 76080, Tempo, 413793
1, 76200, Tempo, 400000
1, 76320, Tempo, 424028
1, 76560, Tempo, 437956
1, 76680, Tempo, 425532
1, 76800, Tempo, 459770
1, 77160, Tempo, 437956
1, 77280, Tempo, 461538
1, 77490, Tempo, 400000
1, 77520, Tempo, 481928
1, 77730, Tempo, 400000
1, 77760, Tempo, 666667
1, 77880, Tempo, 512821
1, 78000, Tempo, 600000
1, 78120, Tempo, 1428571
1, 78220, Tempo, 3529412
1, 78240, Tempo, 975610
1, 78360, Tempo, 524017
1, 78480, Tempo, 1643836
1, 78645, Tempo, 7500000
1, 78660, Tempo, 428571
1, 78720, Tempo, 413793
1, 78840, Tempo, 500000
1, 78870, Tempo, 382166
1, 78960, Tempo, 413793
1, 79080, Tempo, 500000
1, 79110, Tempo, 382166
1, 79200, Tempo, 413793
1, 79320, Tempo, 500000
1, 79350, Tempo, 382166
1, 79440, Tempo, 413793
1, 79560, Tempo, 382166
1, 79680, Tempo, 413793
1, 79800, Tempo, 382166
1, 79920, Tempo, 413793
1, 80040, Tempo, 382166
1, 80160, Tempo, 413793
1, 80280, Tempo, 382166
1, 80400, Tempo, 413793
1, 80520, Tempo, 382166
1, 80640, Tempo, 413793
1, 80760, Tempo, 382166
1, 80880, Tempo, 413793
1, 81000, Tempo, 382166
1, 81120, Tempo, 413793
1, 81240, Tempo, 382166
1, 81360, Tempo, 413793
1, 81480, Tempo, 382166
1, 81600, Tempo, 413793
1, 81720, Tempo, 489796
1, 81780, Tempo, 383387
1, 81840, Tempo, 413793
1, 81960, Tempo, 382166
1, 82080, Tempo, 413793
1, 82200, Tempo, 382166
1, 82320, Tempo, 413793
1, 82440, Tempo, 382166
1, 82560, Tempo, 413793
1, 82680, Tempo, 382166
1, 82800, Tempo, 413793
1, 82920, Tempo, 382166
1, 83040, Tempo, 413793
1, 83160, Tempo, 382166
1, 83280, Tempo, 413793
1, 83400, Tempo, 382166
1, 83490, Tempo, 502092
1, 83520, Tempo, 413793
1, 83640, Tempo, 382166
1, 83760, Tempo, 413793
1, 83880, Tempo, 382166
1, 84000, Tempo, 413793
1, 84120, Tempo, 382166
1, 84240, Tempo, 413793
1, 84360, Tempo, 382166
1, 84480, Tempo, 413793
1, 84600, Tempo, 382166
1, 84720, Tempo, 413793
1, 84840, Tempo, 382166
1, 84960, Tempo, 413793
1, 85080, Tempo, 382166
1, 85200, Tempo, 413793
1, 85320, Tempo, 382166
1, 85440, Tempo, 413793
1, 85560, Tempo, 396040
1, 85680, Tempo, 413793
1, 85800, Tempo, 396040
1, 85920, Tempo, 413793
1, 86040, Tempo, 396040
1, 86160, Tempo, 413793
1, 86280, Tempo, 396040
1, 86400, Tempo, 461538
1, 86410, Tempo, 413793
1, 86520, Tempo, 396040
1, 86640, Tempo, 413793
1, 86760, Tempo, 396040
1, 86880, Tempo, 413793
1, 87000, Tempo, 396040
1, 87120, Tempo, 413793
1, 87240, Tempo, 461538
1, 87255, Tempo, 396040
1, 87360, Tempo, 413793
1, 87480, Tempo, 461538
1, 87495, Tempo, 396040
1, 87600, Tempo, 413793
1, 87720, Tempo, 461538
1, 87735, Tempo, 396040
1, 87840, Tempo, 413793
1, 87960, Tempo, 461538
1, 87975, Tempo, 396040
1, 88080, Tempo, 413793
1, 88200, Tempo, 461538
1, 88215, Tempo, 396040
1, 88320, Tempo, 413793
1, 88440, Tempo, 396040
1, 88560, Tempo, 413793
1, 88680, Tempo, 396040
1, 88800, Tempo, 413793
1, 88920, Tempo, 396040
1, 89040, Tempo, 413793
1, 89160, Tempo, 461538
1, 89175, Tempo, 396040
1, 89280, Tempo, 413793
1, 89400, Tempo, 396040
1, 89520, Tempo, 413793
1, 89640, Tempo, 396040
1, 89760, Tempo, 413793
1, 89880, Tempo, 396040
1, 90000, Tempo, 418118
1, 90120, Tempo, 382166
1, 90240, Tempo, 413793
1, 90360, Tempo, 382166
1, 90480, Tempo, 413793
1, 90600, Tempo, 382166
1, 90720, Tempo, 413793
1, 90840, Tempo, 382166
1, 90960, Tempo, 413793
1, 91050, Tempo, 461538
1, 91080, Tempo, 382166
1, 91200, Tempo, 413793
1, 91320, Tempo, 382166
1, 91410, Tempo, 461538
1, 91440, Tempo, 413793
1, 91560, Tempo, 382166
1, 91680, Tempo, 413793
1, 91800, Tempo, 382166
1, 91890, Tempo, 461538
1, 91920, Tempo, 413793
1, 92040, Tempo, 382166
1, 92160, Tempo, 413793
1, 92280, Tempo, 382166
1, 92400, Tempo, 413793
1, 92520, Tempo, 382166
1, 92640, Tempo, 413793
1, 92760, Tempo, 382166
1, 92880, Tempo, 413793
1, 93840, Tempo, 434783
1, 94080, Tempo, 461538
1, 94320, Tempo, 600000
1, 94500, Tempo, 1500000
1, 94500, End_track
2, 0, Start_track
2, 0, MIDI_port, 0
2, 0, Title_t, "2 Flauti"
2, 0, Program_c, 0, 73
2, 0, Control_c, 0, 10, 52
2, 1, Control_c, 0, 121, 0
2, 6, Program_c, 0, 73
2, 11, Pitch_bend_c, 0, 8192
2, 16, Control_c, 0, 11, 86
2, 21, Control_c, 0, 7, 127
2, 26, Control_c, 0, 91, 54
2, 31, Control_c, 0, 93, 0
2, 36, Control_c, 0, 10, 52
2, 241, Note_on_c, 0, 91, 88
2, 241, Note_on_c, 0, 79, 88
2, 241, Control_c, 0, 11, 68
2, 244, Control_c, 0, 11, 71
2, 248, Control_c, 0, 11, 74
2, 251, Control_c, 0, 11, 77
2, 254, Control_c, 0, 11, 80
2, 258, Control_c, 0, 11, 84
2, 376, Control_c, 0, 11, 86
2, 378, Control_c, 0, 11, 81
2, 380, Control_c, 0, 11, 77
2, 381, Control_c, 0, 11, 74
2, 383, Control_c, 0, 11, 70
2, 385, Control_c, 0, 11, 66
2, 386, Control_c, 0, 11, 63
2, 388, Control_c, 0, 11, 58
2, 389, Control_c, 0, 11, 54
2, 390, Control_c, 0, 11, 50
2, 391, Note_on_c, 0, 79, 0
2, 391, Note_on_c, 0, 91, 0
2, 391, Control_c, 0, 11, 47
2, 6061, Control_c, 0, 11, 74
2, 6061, Note_on_c, 0, 67, 98
2, 6061, Note_on_c, 0, 79, 98
2, 6079, Control_c, 0, 11, 74
2, 6091, Note_on_c, 0, 79, 0
2, 6091, Note_on_c, 0, 67, 0
2, 6097, Control_c, 0, 11, 75
2, 6115, Control_c, 0, 11, 76
2, 6121, Note_on_c, 0, 69, 98
2, 6121, Note_on_c, 0, 81, 98
2, 6133, Control_c, 0, 11, 76
2, 6151, Note_on_c, 0, 81, 0
2, 6151, Note_on_c, 0, 69, 0
2, 6151, Control_c, 0, 11, 77
2, 6169, Control_c, 0, 11, 78
2, 6181, Note_on_c, 0, 83, 98
2, 6181, Note_on_c, 0, 71, 98
2, 6187, Control_c, 0, 11, 78
2, 6205, Control_c, 0, 11, 79
2, 6211, Note_on_c, 0, 71, 0
2, 6211, Note_on_c, 0, 83, 0
2, 6223, Control_c, 0, 11, 79
2, 6241, Control_c, 0, 11, 80
2, 6241, Note_on_c, 0, 72, 98
2, 6241, Note_on_c, 0, 84, 98
2, 6259, Control_c, 0, 11, 81
2, 6271, Note_on_c, 0, 84, 0
2, 6271, Note_on_c, 0, 72, 0
2, 6277, Control_c, 0, 11, 81
2, 6295, Control_c, 0, 11, 82
2, 6301, Note_on_c, 0, 86, 98
2, 6301, Note_on_c, 0, 74, 98
2, 6313, Control_c, 0, 11, 82
2, 6331, Note_on_c, 0, 74, 0
2, 6331, Note_on_c, 0, 86, 0
2, 6331, Control_c, 0, 11, 83
2, 6349, Control_c, 0, 11, 84
2, 6361, Note_on_c, 0, 88, 98
2, 6361, Note_on_c, 0, 76, 98
2, 6367, Control_c, 0, 11, 84
2, 6385, Control_c, 0, 11, 85
2, 6391, Note_on_c, 0, 76, 0
2, 6391, Note_on_c, 0, 88, 0
2, 6403, Control_c, 0, 11, 86
2, 6421, Note_on_c, 0, 84, 88
2, 6421, Control_c, 0, 11, 86
2, 6421, Note_on_c, 0, 88, 88
2, 6451, Note_on_c, 0, 88, 0
2, 6451, Note_on_c, 0, 84, 0
2, 6481, Note_on_c, 0, 88, 88
2, 6481, Note_on_c, 0, 84, 88
2, 6531, Note_on_c, 0, 84, 0
2, 6531, Note_on_c, 0, 88, 0
2, 6541, Note_on_c, 0, 84, 88
2, 6541, Note_on_c, 0, 88, 88
2, 6591, Note_on_c, 0, 88, 0
2, 6591, Note_on_c, 0, 84, 0
2, 6601, Note_on_c, 0, 84, 88
2, 6601, Note_on_c, 0, 88, 88
2, 6651, Note_on_c, 0, 88, 0
2, 6651, Note_on_c, 0, 84, 0
2, 6661, Note_on_c, 0, 84, 88
2, 6661, Note_on_c, 0, 88, 88
2, 6711, Note_on_c, 0, 88, 0
2, 6711, Note_on_c, 0, 84, 0
2, 6721, Note_on_c, 0, 84, 88
2, 6721, Note_on_c, 0, 86, 88
2, 6781, Note_on_c, 0, 86, 0
2, 6781, Note_on_c, 0, 84, 0
2, 6841, Note_on_c, 0, 81, 88
2, 6841, Note_on_c, 0, 89, 88
2, 6901, Note_on_c, 0, 89, 0
2, 6901, Note_on_c, 0, 81, 0
2, 6961, Note_on_c, 0, 84, 88
2, 6961, Note_on_c, 0, 76, 88
2, 7021, Note_on_c, 0, 76, 0
2, 7021, Note_on_c, 0, 84, 0
2, 7081, Note_on_c, 0, 83, 88
2, 7081, Note_on_c, 0, 74, 88
2, 7141, Note_on_c, 0, 74, 0
2, 7141, Note_on_c, 0, 83, 0
2, 7201, Note_on_c, 0, 84, 88
2, 7201, Note_on_c, 0, 76, 88
2, 7321, Note_on_c, 0, 76, 0
2, 7321, Note_on_c, 0, 84, 0
2, 8161, Note_on_c, 0, 91, 88
2, 8161, Control_c, 0, 11, 77
2, 8331, Note_on_c, 0, 91, 0
2, 8341, Note_on_c, 0, 88, 88
2, 8391, Note_on_c, 0, 88, 0
2, 8401, Note_on_c, 0, 89, 88
2, 8451, Note_on_c, 0, 89, 0
2, 8461, Note_on_c, 0, 86, 88
2, 8511, Note_on_c, 0, 86, 0
2, 8521, Note_on_c, 0, 83, 88
2, 8571, Note_on_c, 0, 83, 0
2, 8581, Note_on_c, 0, 79, 88
2, 8631, Note_on_c, 0, 79, 0
2, 8641, Note_on_c, 0, 84, 88
2, 8761, Note_on_c, 0, 84, 0
2, 9361, Note_on_c, 0, 84, 88
2, 9361, Note_on_c, 0, 88, 88
2, 9601, Note_on_c, 0, 88, 0
2, 9601, Note_on_c, 0, 86, 88
2, 9721, Note_on_c, 0, 84, 0
2, 9721, Note_on_c, 0, 83, 88
2, 10081, Note_on_c, 0, 86, 0
2, 10081, Note_on_c, 0, 84, 88
2, 10201, Note_on_c, 0, 83, 0
2, 10201, Note_on_c, 0, 81, 88
2, 10321, Note_on_c, 0, 84, 0
2, 10321, Note_on_c, 0, 83, 88
2, 10441, Note_on_c, 0, 81, 0
2, 10441, Note_on_c, 0, 79, 88
2, 10561, Note_on_c, 0, 79, 0
2, 10561, Note_on_c, 0, 83, 0
2, 10561, Note_on_c, 0, 81, 88
2, 10561, Note_on_c, 0, 76, 88
2, 10681, Note_on_c, 0, 76, 0
2, 10681, Note_on_c, 0, 81, 0
2, 10801, Note_on_c, 0, 79, 88
2, 10801, Note_on_c, 0, 76, 88
2, 10921, Note_on_c, 0, 76, 0
2, 10921, Note_on_c, 0, 79, 0
2, 11041, Note_on_c, 0, 74, 88
2, 11041, Note_on_c, 0, 78, 88
2, 11161, Note_on_c, 0, 78, 0
2, 11161, Note_on_c, 0, 74, 0
2, 11401, Note_on_c, 0, 81, 88
2, 11401, Note_on_c, 0, 86, 88
2, 11521, Note_on_c, 0, 81, 0
2, 11521, Note_on_c, 0, 83, 88
2, 12001, Note_on_c, 0, 83, 0
2, 12001, Note_on_c, 0, 86, 0
2, 12001, Note_on_c, 0, 81, 88
2, 12001, Note_on_c, 0, 86, 88
2, 12031, Note_on_c, 0, 86, 0
2, 12031, Note_on_c, 0, 81, 0
2, 12061, Note_on_c, 0, 74, 88
2, 12091, Note_on_c, 0, 74, 0
2, 12121, Note_on_c, 0, 78, 88
2, 12151, Note_on_c, 0, 78, 0
2, 12181, Note_on_c, 0, 79, 88
2, 12211, Note_on_c, 0, 79, 0
2, 12241, Note_on_c, 0, 81, 88
2, 12271, Note_on_c, 0, 81, 0
2, 12301, Note_on_c, 0, 83, 88
2, 12331, Note_on_c, 0, 83, 0
2, 12361, Note_on_c, 0, 84, 88
2, 12541, Note_on_c, 0, 84, 0
2, 12541, Note_on_c, 0, 83, 88
2, 12591, Note_on_c, 0, 83, 0
2, 12601, Note_on_c, 0, 86, 88
2, 12631, Note_on_c, 0, 86, 0
2, 12661, Note_on_c, 0, 83, 88
2, 12691, Note_on_c, 0, 83, 0
2, 12721, Note_on_c, 0, 79, 88
2, 12751, Note_on_c, 0, 79, 0
2, 12781, Note_on_c, 0, 79, 88
2, 12811, Note_on_c, 0, 79, 0
2, 12841, Note_on_c, 0, 83, 88
2, 12871, Note_on_c, 0, 83, 0
2, 12901, Note_on_c, 0, 79, 88
2, 12931, Note_on_c, 0, 79, 0
2, 12961, Note_on_c, 0, 74, 88
2, 13081, Note_on_c, 0, 74, 0
2, 14401, Note_on_c, 0, 86, 98
2, 14401, Control_c, 0, 11, 52
2, 14401, Note_on_c, 0, 74, 98
2, 15241, Note_on_c, 0, 86, 0
2, 15301, Note_on_c, 0, 81, 98
2, 15361, Note_on_c, 0, 81, 0
2, 15361, Note_on_c, 0, 83, 98
2, 15421, Note_on_c, 0, 83, 0
2, 15541, Note_on_c, 0, 83, 98
2, 15601, Note_on_c, 0, 83, 0
2, 15601, Control_c, 0, 11, 47
2, 15601, Note_on_c, 0, 84, 98
2, 15631, Control_c, 0, 11, 48
2, 15661, Note_on_c, 0, 84, 0
2, 15661, Control_c, 0, 11, 49
2, 15691, Control_c, 0, 11, 50
2, 15721, Control_c, 0, 11, 51
2, 15751, Control_c, 0, 11, 52
2, 15781, Note_on_c, 0, 84, 98
2, 15781, Control_c, 0, 11, 53
2, 15811, Control_c, 0, 11, 54
2, 15841, Note_on_c, 0, 84, 0
2, 15841, Control_c, 0, 11, 55
2, 15841, Note_on_c, 0, 86, 98
2, 15871, Control_c, 0, 11, 56
2, 15901, Note_on_c, 0, 86, 0
2, 15901, Control_c, 0, 11, 57
2, 15931, Control_c, 0, 11, 58
2, 15961, Note_on_c, 0, 74, 0
2, 15961, Control_c, 0, 11, 59
2, 15961, Note_on_c, 0, 79, 98
2, 15991, Control_c, 0, 11, 60
2, 16021, Control_c, 0, 11, 61
2, 16051, Control_c, 0, 11, 62
2, 16081, Note_on_c, 0, 83, 98
2, 16081, Control_c, 0, 11, 62
2, 16111, Control_c, 0, 11, 63
2, 16141, Note_on_c, 0, 83, 0
2, 16141, Note_on_c, 0, 81, 98
2, 16141, Control_c, 0, 11, 63
2, 16171, Control_c, 0, 11, 64
2, 16191, Note_on_c, 0, 81, 0
2, 16201, Control_c, 0, 11, 65
2, 16201, Note_on_c, 0, 81, 98
2, 16231, Note_on_c, 0, 81, 0
2, 16231, Control_c, 0, 11, 65
2, 16261, Control_c, 0, 11, 66
2, 16261, Note_on_c, 0, 84, 98
2, 16291, Note_on_c, 0, 84, 0
2, 16291, Control_c, 0, 11, 66
2, 16321, Control_c, 0, 11, 67
2, 16321, Note_on_c, 0, 84, 98
2, 16351, Control_c, 0, 11, 68
2, 16381, Note_on_c, 0, 84, 0
2, 16381, Note_on_c, 0, 83, 98
2, 16381, Control_c, 0, 11, 68
2, 16411, Control_c, 0, 11, 69
2, 16431, Note_on_c, 0, 83, 0
2, 16441, Note_on_c, 0, 83, 98
2, 16441, Control_c, 0, 11, 70
2, 16471, Note_on_c, 0, 83, 0
2, 16471, Control_c, 0, 11, 70
2, 16501, Note_on_c, 0, 86, 98
2, 16501, Control_c, 0, 11, 71
2, 16531, Note_on_c, 0, 86, 0
2, 16531, Control_c, 0, 11, 71
2, 16561, Note_on_c, 0, 86, 98
2, 16561, Control_c, 0, 11, 72
2, 16591, Control_c, 0, 11, 73
2, 16621, Note_on_c, 0, 86, 0
2, 16621, Note_on_c, 0, 84, 98
2, 16621, Control_c, 0, 11, 73
2, 16651, Control_c, 0, 11, 74
2, 16671, Note_on_c, 0, 84, 0
2, 16681, Control_c, 0, 11, 74
2, 16681, Note_on_c, 0, 84, 98
2, 16711, Note_on_c, 0, 84, 0
2, 16711, Control_c, 0, 11, 75
2, 16741, Note_on_c, 0, 88, 98
2, 16741, Control_c, 0, 11, 76
2, 16771, Note_on_c, 0, 88, 0
2, 16771, Control_c, 0, 11, 76
2, 16801, Note_on_c, 0, 79, 0
2, 16801, Note_on_c, 0, 89, 88
2, 16801, Note_on_c, 0, 80, 88
2, 16801, Control_c, 0, 11, 89
2, 16801, Control_c, 0, 11, 77
2, 16815, Control_c, 0, 11, 86
2, 16830, Control_c, 0, 11, 83
2, 16845, Control_c, 0, 11, 80
2, 16860, Control_c, 0, 11, 77
2, 17041, Note_on_c, 0, 80, 0
2, 17041, Note_on_c, 0, 89, 0
2, 17041, Note_on_c, 0, 77, 88
2, 17041, Control_c, 0, 11, 89
2, 17041, Note_on_c, 0, 80, 88
2, 17058, Control_c, 0, 11, 87
2, 17076, Control_c, 0, 11, 86
2, 17094, Control_c, 0, 11, 84
2, 17112, Control_c, 0, 11, 82
2, 17130, Control_c, 0, 11, 80
2, 17148, Control_c, 0, 11, 78
2, 17281, Note_on_c, 0, 80, 0
2, 17281, Note_on_c, 0, 77, 0
2, 17281, Note_on_c, 0, 81, 88
2, 17281, Control_c, 0, 11, 89
2, 17281, Note_on_c, 0, 76, 88
2, 17298, Control_c, 0, 11, 87
2, 17316, Control_c, 0, 11, 86
2, 17334, Control_c, 0, 11, 84
2, 17352, Control_c, 0, 11, 82
2, 17370, Control_c, 0, 11, 80
2, 17388, Control_c, 0, 11, 78
2, 17521, Note_on_c, 0, 76, 0
2, 17521, Note_on_c, 0, 81, 0
2, 17521, Note_on_c, 0, 82, 88
2, 17521, Note_on_c, 0, 76, 88
2, 17521, Control_c, 0, 11, 89
2, 17538, Control_c, 0, 11, 87
2, 17556, Control_c, 0, 11, 86
2, 17574, Control_c, 0, 11, 84
2, 17592, Control_c, 0, 11, 82
2, 17610, Control_c, 0, 11, 80
2, 17628, Control_c, 0, 11, 78
2, 17761, Note_on_c, 0, 76, 0
2, 17761, Note_on_c, 0, 82, 0
2, 17761, Note_on_c, 0, 83, 88
2, 17821, Note_on_c, 0, 83, 0
2, 17881, Note_on_c, 0, 84, 88
2, 17881, Control_c, 0, 11, 86
2, 18241, Note_on_c, 0, 84, 0
2, 18241, Note_on_c, 0, 83, 88
2, 18361, Note_on_c, 0, 83, 0
2, 18361, Note_on_c, 0, 81, 88
2, 18481, Note_on_c, 0, 81, 0
2, 18481, Note_on_c, 0, 79, 88
2, 18601, Note_on_c, 0, 79, 0
2, 18601, Note_on_c, 0, 78, 88
2, 18721, Note_on_c, 0, 78, 0
2, 18721, Note_on_c, 0, 79, 88
2, 18781, Note_on_c, 0, 79, 0
2, 18781, Control_c, 0, 11, 98
2, 18781, Note_on_c, 0, 86, 88
2, 18781, Note_on_c, 0, 83, 88
2, 18799, Control_c, 0, 11, 97
2, 18817, Control_c, 0, 11, 95
2, 18835, Control_c, 0, 11, 93
2, 18853, Control_c, 0, 11, 91
2, 18871, Control_c, 0, 11, 89
2, 18886, Note_on_c, 0, 83, 0
2, 18886, Note_on_c, 0, 86, 0
2, 18889, Control_c, 0, 11, 87
2, 18901, Note_on_c, 0, 83, 88
2, 18901, Note_on_c, 0, 86, 88
2, 18951, Note_on_c, 0, 86, 0
2, 18951, Note_on_c, 0, 83, 0
2, 18961, Note_on_c, 0, 83, 88
2, 18961, Note_on_c, 0, 79, 88
2, 19021, Note_on_c, 0, 79, 0
2, 19021, Note_on_c, 0, 83, 0
2, 19261, Note_on_c, 0, 83, 88
2, 19261, Note_on_c, 0, 86, 88
2, 19261, Control_c, 0, 11, 98
2, 19279, Control_c, 0, 11, 97
2, 19297, Control_c, 0, 11, 95
2, 19315, Control_c, 0, 11, 93
2, 19333, Control_c, 0, 11, 91
2, 19351, Control_c, 0, 11, 89
2, 19366, Note_on_c, 0, 86, 0
2, 19366, Note_on_c, 0, 83, 0
2, 19369, Control_c, 0, 11, 87
2, 19381, Note_on_c, 0, 83, 88
2, 19381, Note_on_c, 0, 86, 88
2, 19431, Note_on_c, 0, 86, 0
2, 19431, Note_on_c, 0, 83, 0
2, 19441, Note_on_c, 0, 83, 88
2, 19441, Note_on_c, 0, 79, 88
2, 19501, Note_on_c, 0, 79, 0
2, 19501, Note_on_c, 0, 83, 0
2, 19741, Note_on_c, 0, 86, 88
2, 19741, Note_on_c, 0, 83, 88
2, 19741, Control_c, 0, 11, 98
2, 19759, Control_c, 0, 11, 97
2, 19777, Control_c, 0, 11, 95
2, 19795, Control_c, 0, 11, 93
2, 19813, Control_c, 0, 11, 91
2, 19831, Control_c, 0, 11, 89
2, 19849, Control_c, 0, 11, 87
2, 19851, Note_on_c, 0, 83, 0
2, 19851, Note_on_c, 0, 86, 0
2, 19861, Note_on_c, 0, 83, 88
2, 19861, Note_on_c, 0, 86, 88
2, 19911, Note_on_c, 0, 86, 0
2, 19911, Note_on_c, 0, 83, 0
2, 19921, Note_on_c, 0, 83, 88
2, 19921, Note_on_c, 0, 79, 88
2, 19981, Note_on_c, 0, 79, 0
2, 19981, Note_on_c, 0, 83, 0
2, 20221, Note_on_c, 0, 83, 88
2, 20221, Control_c, 0, 11, 98
2, 20221, Note_on_c, 0, 86, 88
2, 20239, Control_c, 0, 11, 97
2, 20257, Control_c, 0, 11, 95
2, 20275, Control_c, 0, 11, 93
2, 20293, Control_c, 0, 11, 91
2, 20311, Control_c, 0, 11, 89
2, 20326, Note_on_c, 0, 86, 0
2, 20326, Note_on_c, 0, 83, 0
2, 20329, Control_c, 0, 11, 87
2, 20341, Note_on_c, 0, 83, 88
2, 20341, Note_on_c, 0, 86, 88
2, 20391, Note_on_c, 0, 86, 0
2, 20391, Note_on_c, 0, 83, 0
2, 20401, Note_on_c, 0, 79, 88
2, 20401, Note_on_c, 0, 83, 88
2, 20461, Note_on_c, 0, 83, 0
2, 20461, Note_on_c, 0, 79, 0
2, 20641, Control_c, 0, 11, 98
2, 20641, Note_on_c, 0, 79, 88
2, 20641, Note_on_c, 0, 83, 88
2, 20658, Control_c, 0, 11, 97
2, 20676, Control_c, 0, 11, 95
2, 20694, Control_c, 0, 11, 93
2, 20712, Control_c, 0, 11, 91
2, 20730, Control_c, 0, 11, 89
2, 20748, Control_c, 0, 11, 87
2, 20986, Note_on_c, 0, 83, 0
2, 20986, Note_on_c, 0, 79, 0
2, 21001, Note_on_c, 0, 79, 88
2, 21001, Note_on_c, 0, 83, 88
2, 21031, Note_on_c, 0, 83, 0
2, 21031, Note_on_c, 0, 79, 0
2, 21061, Note_on_c, 0, 79, 88
2, 21061, Note_on_c, 0, 83, 88
2, 21091, Note_on_c, 0, 83, 0
2, 21091, Note_on_c, 0, 79, 0
2, 21121, Note_on_c, 0, 79, 88
2, 21121, Note_on_c, 0, 84, 88
2, 21121, Control_c, 0, 11, 98
2, 21138, Control_c, 0, 11, 97
2, 21156, Control_c, 0, 11, 95
2, 21174, Control_c, 0, 11, 93
2, 21192, Control_c, 0, 11, 91
2, 21210, Control_c, 0, 11, 89
2, 21228, Control_c, 0, 11, 87
2, 21466, Note_on_c, 0, 84, 0
2, 21466, Note_on_c, 0, 79, 0
2, 21481, Note_on_c, 0, 79, 88
2, 21481, Note_on_c, 0, 84, 88
2, 21511, Note_on_c, 0, 84, 0
2, 21511, Note_on_c, 0, 79, 0
2, 21541, Note_on_c, 0, 79, 88
2, 21541, Note_on_c, 0, 84, 88
2, 21571, Note_on_c, 0, 84, 0
2, 21571, Note_on_c, 0, 79, 0
2, 21601, Control_c, 0, 11, 98
2, 21601, Note_on_c, 0, 86, 88
2, 21601, Note_on_c, 0, 79, 88
2, 21618, Control_c, 0, 11, 97
2, 21636, Control_c, 0, 11, 95
2, 21654, Control_c, 0, 11, 93
2, 21672, Control_c, 0, 11, 91
2, 21690, Control_c, 0, 11, 89
2, 21708, Control_c, 0, 11, 87
2, 21946, Note_on_c, 0, 79, 0
2, 21946, Note_on_c, 0, 86, 0
2, 21961, Note_on_c, 0, 86, 88
2, 21961, Note_on_c, 0, 79, 88
2, 21991, Note_on_c, 0, 79, 0
2, 21991, Note_on_c, 0, 86, 0
2, 22021, Note_on_c, 0, 86, 88
2, 22021, Note_on_c, 0, 79, 88
2, 22051, Note_on_c, 0, 79, 0
2, 22051, Note_on_c, 0, 86, 0
2, 22081, Note_on_c, 0, 88, 88
2, 22081, Control_c, 0, 11, 98
2, 22081, Note_on_c, 0, 79, 88
2, 22098, Control_c, 0, 11, 97
2, 22116, Control_c, 0, 11, 95
2, 22134, Control_c, 0, 11, 93
2, 22152, Control_c, 0, 11, 91
2, 22170, Control_c, 0, 11, 89
2, 22188, Control_c, 0, 11, 87
2, 22426, Note_on_c, 0, 79, 0
2, 22426, Note_on_c, 0, 88, 0
2, 22441, Note_on_c, 0, 79, 88
2, 22441, Note_on_c, 0, 88, 88
2, 22471, Note_on_c, 0, 88, 0
2, 22471, Note_on_c, 0, 79, 0
2, 22501, Note_on_c, 0, 88, 88
2, 22501, Note_on_c, 0, 79, 88
2, 22531, Note_on_c, 0, 79, 0
2, 22531, Note_on_c, 0, 88, 0
2, 22561, Note_on_c, 0, 89, 88
2, 22561, Note_on_c, 0, 79, 88
2, 22561, Control_c, 0, 11, 98
2, 22578, Control_c, 0, 11, 97
2, 22596, Control_c, 0, 11, 95
2, 22614, Control_c, 0, 11, 93
2, 22632, Control_c, 0, 11, 91
2, 22650, Control_c, 0, 11, 89
2, 22668, Control_c, 0, 11, 87
2, 22741, Note_on_c, 0, 79, 0
2, 22741, Note_on_c, 0, 89, 0
2, 22741, Note_on_c, 0, 79, 88
2, 22741, Note_on_c, 0, 88, 88
2, 22786, Note_on_c, 0, 88, 0
2, 22786, Note_on_c, 0, 79, 0
2, 22801, Control_c, 0, 11, 98
2, 22801, Note_on_c, 0, 79, 88
2, 22801, Note_on_c, 0, 89, 88
2, 22818, Control_c, 0, 11, 97
2, 22836, Control_c, 0, 11, 95
2, 22854, Control_c, 0, 11, 93
2, 22872, Control_c, 0, 11, 91
2, 22890, Control_c, 0, 11, 89
2, 22908, Control_c, 0, 11, 87
2, 22981, Note_on_c, 0, 89, 0
2, 22981, Note_on_c, 0, 79, 0
2, 22981, Note_on_c, 0, 88, 88
2, 22981, Note_on_c, 0, 79, 88
2, 23026, Note_on_c, 0, 79, 0
2, 23026, Note_on_c, 0, 88, 0
2, 23041, Control_c, 0, 11, 77
2, 23041, Note_on_c, 0, 79, 88
2, 23041, Note_on_c, 0, 89, 88
2, 23086, Note_on_c, 0, 89, 0
2, 23086, Note_on_c, 0, 79, 0
2, 27661, Note_on_c, 0, 79, 98
2, 27661, Note_on_c, 0, 67, 98
2, 27661, Control_c, 0, 11, 74
2, 27679, Control_c, 0, 11, 74
2, 27691, Note_on_c, 0, 67, 0
2, 27691, Note_on_c, 0, 79, 0
2, 27697, Control_c, 0, 11, 75
2, 27715, Control_c, 0, 11, 76
2, 27721, Note_on_c, 0, 69, 98
2, 27721, Note_on_c, 0, 81, 98
2, 27733, Control_c, 0, 11, 76
2, 27751, Note_on_c, 0, 81, 0
2, 27751, Note_on_c, 0, 69, 0
2, 27751, Control_c, 0, 11, 77
2, 27769, Control_c, 0, 11, 78
2, 27781, Note_on_c, 0, 71, 98
2, 27781, Note_on_c, 0, 83, 98
2, 27787, Control_c, 0, 11, 78
2, 27805, Control_c, 0, 11, 79
2, 27811, Note_on_c, 0, 83, 0
2, 27811, Note_on_c, 0, 71, 0
2, 27823, Control_c, 0, 11, 79
2, 27841, Control_c, 0, 11, 80
2, 27841, Note_on_c, 0, 72, 98
2, 27841, Note_on_c, 0, 84, 98
2, 27859, Control_c, 0, 11, 81
2, 27871, Note_on_c, 0, 84, 0
2, 27871, Note_on_c, 0, 72, 0
2, 27877, Control_c, 0, 11, 81
2, 27895, Control_c, 0, 11, 82
2, 27901, Note_on_c, 0, 74, 98
2, 27901, Note_on_c, 0, 86, 98
2, 27913, Control_c, 0, 11, 82
2, 27931, Note_on_c, 0, 86, 0
2, 27931, Note_on_c, 0, 74, 0
2, 27931, Control_c, 0, 11, 83
2, 27949, Control_c, 0, 11, 84
2, 27961, Note_on_c, 0, 76, 98
2, 27961, Note_on_c, 0, 88, 98
2, 27967, Control_c, 0, 11, 84
2, 27985, Control_c, 0, 11, 85
2, 27991, Note_on_c, 0, 88, 0
2, 27991, Note_on_c, 0, 76, 0
2, 28003, Control_c, 0, 11, 86
2, 28021, Control_c, 0, 11, 86
2, 28021, Note_on_c, 0, 84, 88
2, 28021, Note_on_c, 0, 88, 88
2, 28051, Note_on_c, 0, 88, 0
2, 28051, Note_on_c, 0, 84, 0
2, 28081, Note_on_c, 0, 88, 88
2, 28081, Note_on_c, 0, 84, 88
2, 28131, Note_on_c, 0, 84, 0
2, 28131, Note_on_c, 0, 88, 0
2, 28141, Note_on_c, 0, 88, 88
2, 28141, Note_on_c, 0, 84, 88
2, 28191, Note_on_c, 0, 84, 0
2, 28191, Note_on_c, 0, 88, 0
2, 28201, Note_on_c, 0, 88, 88
2, 28201, Note_on_c, 0, 84, 88
2, 28251, Note_on_c, 0, 84, 0
2, 28251, Note_on_c, 0, 88, 0
2, 28261, Note_on_c, 0, 88, 88
2, 28261, Note_on_c, 0, 84, 88
2, 28311, Note_on_c, 0, 84, 0
2, 28311, Note_on_c, 0, 88, 0
2, 28321, Note_on_c, 0, 84, 88
2, 28321, Note_on_c, 0, 86, 88
2, 28381, Note_on_c, 0, 86, 0
2, 28381, Note_on_c, 0, 84, 0
2, 28441, Note_on_c, 0, 81, 88
2, 28441, Note_on_c, 0, 89, 88
2, 28501, Note_on_c, 0, 89, 0
2, 28501, Note_on_c, 0, 81, 0
2, 28561, Note_on_c, 0, 76, 88
2, 28561, Note_on_c, 0, 84, 88
2, 28621, Note_on_c, 0, 84, 0
2, 28621, Note_on_c, 0, 76, 0
2, 28681, Note_on_c, 0, 74, 88
2, 28681, Note_on_c, 0, 83, 88
2, 28741, Note_on_c, 0, 83, 0
2, 28741, Note_on_c, 0, 74, 0
2, 28801, Note_on_c, 0, 76, 88
2, 28801, Note_on_c, 0, 84, 88
2, 28921, Note_on_c, 0, 84, 0
2, 28921, Note_on_c, 0, 76, 0
2, 29761, Control_c, 0, 11, 77
2, 29761, Note_on_c, 0, 91, 88
2, 29931, Note_on_c, 0, 91, 0
2, 29941, Note_on_c, 0, 88, 88
2, 29991, Note_on_c, 0, 88, 0
2, 30001, Note_on_c, 0, 89, 88
2, 30051, Note_on_c, 0, 89, 0
2, 30061, Note_on_c, 0, 86, 88
2, 30111, Note_on_c, 0, 86, 0
2, 30121, Note_on_c, 0, 83, 88
2, 30171, Note_on_c, 0, 83, 0
2, 30181, Note_on_c, 0, 79, 88
2, 30231, Note_on_c, 0, 79, 0
2, 30241, Note_on_c, 0, 84, 88
2, 30361, Note_on_c, 0, 84, 0
2, 30961, Note_on_c, 0, 88, 88
2, 30961, Note_on_c, 0, 84, 88
2, 31201, Note_on_c, 0, 88, 0
2, 31201, Note_on_c, 0, 86, 88
2, 31321, Note_on_c, 0, 84, 0
2, 31321, Note_on_c, 0, 83, 88
2, 31681, Note_on_c, 0, 86, 0
2, 31681, Note_on_c, 0, 84, 88
2, 31801, Note_on_c, 0, 83, 0
2, 31801, Note_on_c, 0, 81, 88
2, 31921, Note_on_c, 0, 84, 0
2, 31921, Note_on_c, 0, 83, 88
2, 32041, Note_on_c, 0, 81, 0
2, 32041, Note_on_c, 0, 79, 88
2, 32161, Note_on_c, 0, 79, 0
2, 32161, Note_on_c, 0, 83, 0
2, 32161, Note_on_c, 0, 81, 88
2, 32161, Note_on_c, 0, 76, 88
2, 32281, Note_on_c, 0, 76, 0
2, 32281, Note_on_c, 0, 81, 0
2, 32401, Note_on_c, 0, 79, 88
2, 32401, Note_on_c, 0, 76, 88
2, 32521, Note_on_c, 0, 76, 0
2, 32521, Note_on_c, 0, 79, 0
2, 32641, Note_on_c, 0, 74, 88
2, 32641, Note_on_c, 0, 78, 88
2, 32761, Note_on_c, 0, 78, 0
2, 32761, Note_on_c, 0, 74, 0
2, 33001, Note_on_c, 0, 81, 88
2, 33001, Note_on_c, 0, 86, 88
2, 33121, Note_on_c, 0, 81, 0
2, 33121, Note_on_c, 0, 83, 88
2, 33601, Note_on_c, 0, 83, 0
2, 33601, Note_on_c, 0, 86, 0
2, 33601, Note_on_c, 0, 86, 88
2, 33601, Note_on_c, 0, 81, 88
2, 33631, Note_on_c, 0, 81, 0
2, 33631, Note_on_c, 0, 86, 0
2, 33661, Note_on_c, 0, 74, 88
2, 33691, Note_on_c, 0, 74, 0
2, 33721, Note_on_c, 0, 78, 88
2, 33751, Note_on_c, 0, 78, 0
2, 33781, Note_on_c, 0, 79, 88
2, 33811, Note_on_c, 0, 79, 0
2, 33841, Note_on_c, 0, 81, 88
2, 33871, Note_on_c, 0, 81, 0
2, 33901, Note_on_c, 0, 83, 88
2, 33931, Note_on_c, 0, 83, 0
2, 33961, Note_on_c, 0, 84, 88
2, 34141, Note_on_c, 0, 84, 0
2, 34141, Note_on_c, 0, 83, 88
2, 34191, Note_on_c, 0, 83, 0
2, 34201, Note_on_c, 0, 86, 88
2, 34231, Note_on_c, 0, 86, 0
2, 34261, Note_on_c, 0, 83, 88
2, 34291, Note_on_c, 0, 83, 0
2, 34321, Note_on_c, 0, 79, 88
2, 34351, Note_on_c, 0, 79, 0
2, 34381, Note_on_c, 0, 79, 88
2, 34411, Note_on_c, 0, 79, 0
2, 34441, Note_on_c, 0, 83, 88
2, 34471, Note_on_c, 0, 83, 0
2, 34501, Note_on_c, 0, 79, 88
2, 34531, Note_on_c, 0, 79, 0
2, 34561, Note_on_c, 0, 74, 88
2, 34681, Note_on_c, 0, 74, 0
2, 36001, Control_c, 0, 11, 52
2, 36001, Note_on_c, 0, 86, 98
2, 36001, Note_on_c, 0, 74, 98
2, 36841, Note_on_c, 0, 86, 0
2, 36901, Note_on_c, 0, 81, 98
2, 36961, Note_on_c, 0, 81, 0
2, 36961, Note_on_c, 0, 83, 98
2, 37021, Note_on_c, 0, 83, 0
2, 37141, Note_on_c, 0, 83, 98
2, 37201, Note_on_c, 0, 83, 0
2, 37201, Control_c, 0, 11, 47
2, 37201, Note_on_c, 0, 84, 98
2, 37231, Control_c, 0, 11, 48
2, 37261, Note_on_c, 0, 84, 0
2, 37261, Control_c, 0, 11, 49
2, 37291, Control_c, 0, 11, 50
2, 37321, Control_c, 0, 11, 51
2, 37351, Control_c, 0, 11, 52
2, 37381, Note_on_c, 0, 84, 98
2, 37381, Control_c, 0, 11, 53
2, 37411, Control_c, 0, 11, 54
2, 37441, Note_on_c, 0, 84, 0
2, 37441, Control_c, 0, 11, 55
2, 37441, Note_on_c, 0, 86, 98
2, 37471, Control_c, 0, 11, 56
2, 37501, Note_on_c, 0, 86, 0
2, 37501, Control_c, 0, 11, 57
2, 37531, Control_c, 0, 11, 58
2, 37561, Note_on_c, 0, 74, 0
2, 37561, Control_c, 0, 11, 59
2, 37561, Note_on_c, 0, 79, 98
2, 37591, Control_c, 0, 11, 60
2, 37621, Control_c, 0, 11, 61
2, 37651, Control_c, 0, 11, 62
2, 37681, Note_on_c, 0, 83, 98
2, 37681, Control_c, 0, 11, 62
2, 37711, Control_c, 0, 11, 63
2, 37741, Note_on_c, 0, 83, 0
2, 37741, Control_c, 0, 11, 63
2, 37741, Note_on_c, 0, 81, 98
2, 37771, Control_c, 0, 11, 64
2, 37791, Note_on_c, 0, 81, 0
2, 37801, Note_on_c, 0, 81, 98
2, 37801, Control_c, 0, 11, 65
2, 37831, Note_on_c, 0, 81, 0
2, 37831, Control_c, 0, 11, 65
2, 37861, Control_c, 0, 11, 66
2, 37861, Note_on_c, 0, 84, 98
2, 37891, Note_on_c, 0, 84, 0
2, 37891, Control_c, 0, 11, 66
2, 37921, Control_c, 0, 11, 67
2, 37921, Note_on_c, 0, 84, 98
2, 37951, Control_c, 0, 11, 68
2, 37981, Note_on_c, 0, 84, 0
2, 37981, Note_on_c, 0, 83, 98
2, 37981, Control_c, 0, 11, 68
2, 38011, Control_c, 0, 11, 69
2, 38031, Note_on_c, 0, 83, 0
2, 38041, Note_on_c, 0, 83, 98
2, 38041, Control_c, 0, 11, 70
2, 38071, Note_on_c, 0, 83, 0
2, 38071, Control_c, 0, 11, 70
2, 38101, Note_on_c, 0, 86, 98
2, 38101, Control_c, 0, 11, 71
2, 38131, Note_on_c, 0, 86, 0
2, 38131, Control_c, 0, 11, 71
2, 38161, Control_c, 0, 11, 72
2, 38161, Note_on_c, 0, 86, 98
2, 38191, Control_c, 0, 11, 73
2, 38221, Note_on_c, 0, 86, 0
2, 38221, Note_on_c, 0, 84, 98
2, 38221, Control_c, 0, 11, 73
2, 38251, Control_c, 0, 11, 74
2, 38271, Note_on_c, 0, 84, 0
2, 38281, Control_c, 0, 11, 74
2, 38281, Note_on_c, 0, 84, 98
2, 38311, Note_on_c, 0, 84, 0
2, 38311, Control_c, 0, 11, 75
2, 38341, Control_c, 0, 11, 76
2, 38341, Note_on_c, 0, 88, 98
2, 38371, Note_on_c, 0, 88, 0
2, 38371, Control_c, 0, 11, 76
2, 38401, Note_on_c, 0, 79, 0
2, 38401, Control_c, 0, 11, 77
2, 38401, Note_on_c, 0, 89, 88
2, 38401, Control_c, 0, 11, 89
2, 38401, Note_on_c, 0, 80, 88
2, 38415, Control_c, 0, 11, 86
2, 38430, Control_c, 0, 11, 83
2, 38445, Control_c, 0, 11, 80
2, 38460, Control_c, 0, 11, 77
2, 38641, Note_on_c, 0, 80, 0
2, 38641, Note_on_c, 0, 89, 0
2, 38641, Note_on_c, 0, 80, 88
2, 38641, Note_on_c, 0, 77, 88
2, 38641, Control_c, 0, 11, 89
2, 38658, Control_c, 0, 11, 87
2, 38676, Control_c, 0, 11, 86
2, 38694, Control_c, 0, 11, 84
2, 38712, Control_c, 0, 11, 82
2, 38730, Control_c, 0, 11, 80
2, 38748, Control_c, 0, 11, 78
2, 38881, Note_on_c, 0, 77, 0
2, 38881, Note_on_c, 0, 80, 0
2, 38881, Control_c, 0, 11, 89
2, 38881, Note_on_c, 0, 76, 88
2, 38881, Note_on_c, 0, 81, 88
2, 38898, Control_c, 0, 11, 87
2, 38916, Control_c, 0, 11, 86
2, 38934, Control_c, 0, 11, 84
2, 38952, Control_c, 0, 11, 82
2, 38970, Control_c, 0, 11, 80
2, 38988, Control_c, 0, 11, 78
2, 39121, Note_on_c, 0, 81, 0
2, 39121, Note_on_c, 0, 76, 0
2, 39121, Note_on_c, 0, 82, 88
2, 39121, Control_c, 0, 11, 89
2, 39121, Note_on_c, 0, 76, 88
2, 39138, Control_c, 0, 11, 87
2, 39156, Control_c, 0, 11, 86
2, 39174, Control_c, 0, 11, 84
2, 39192, Control_c, 0, 11, 82
2, 39210, Control_c, 0, 11, 80
2, 39228, Control_c, 0, 11, 78
2, 39361, Note_on_c, 0, 76, 0
2, 39361, Note_on_c, 0, 82, 0
2, 39361, Note_on_c, 0, 83, 88
2, 39421, Note_on_c, 0, 83, 0
2, 39481, Note_on_c, 0, 84, 88
2, 39481, Control_c, 0, 11, 86
2, 39841, Note_on_c, 0, 84, 0
2, 39841, Note_on_c, 0, 83, 88
2, 39961, Note_on_c, 0, 83, 0
2, 39961, Note_on_c, 0, 81, 88
2, 40081, Note_on_c, 0, 81, 0
2, 40081, Note_on_c, 0, 79, 88
2, 40201, Note_on_c, 0, 79, 0
2, 40201, Note_on_c, 0, 78, 88
2, 40321, Note_on_c, 0, 78, 0
2, 40321, Note_on_c, 0, 79, 88
2, 40381, Note_on_c, 0, 79, 0
2, 40381, Note_on_c, 0, 83, 88
2, 40381, Control_c, 0, 11, 98
2, 40381, Note_on_c, 0, 86, 88
2, 40399, Control_c, 0, 11, 97
2, 40417, Control_c, 0, 11, 95
2, 40435, Control_c, 0, 11, 93
2, 40453, Control_c, 0, 11, 91
2, 40471, Control_c, 0, 11, 89
2, 40486, Note_on_c, 0, 86, 0
2, 40486, Note_on_c, 0, 83, 0
2, 40489, Control_c, 0, 11, 87
2, 40501, Note_on_c, 0, 86, 88
2, 40501, Note_on_c, 0, 83, 88
2, 40551, Note_on_c, 0, 83, 0
2, 40551, Note_on_c, 0, 86, 0
2, 40561, Note_on_c, 0, 83, 88
2, 40561, Note_on_c, 0, 79, 88
2, 40621, Note_on_c, 0, 79, 0
2, 40621, Note_on_c, 0, 83, 0
2, 40861, Note_on_c, 0, 83, 88
2, 40861, Note_on_c, 0, 86, 88
2, 40861, Control_c, 0, 11, 98
2, 40879, Control_c, 0, 11, 97
2, 40897, Control_c, 0, 11, 95
2, 40915, Control_c, 0, 11, 93
2, 40933, Control_c, 0, 11, 91
2, 40951, Control_c, 0, 11, 89
2, 40966, Note_on_c, 0, 86, 0
2, 40966, Note_on_c, 0, 83, 0
2, 40969, Control_c, 0, 11, 87
2, 40981, Note_on_c, 0, 86, 88
2, 40981, Note_on_c, 0, 83, 88
2, 41031, Note_on_c, 0, 83, 0
2, 41031, Note_on_c, 0, 86, 0
2, 41041, Note_on_c, 0, 79, 88
2, 41041, Note_on_c, 0, 83, 88
2, 41101, Note_on_c, 0, 83, 0
2, 41101, Note_on_c, 0, 79, 0
2, 41341, Note_on_c, 0, 86, 88
2, 41341, Control_c, 0, 11, 98
2, 41341, Note_on_c, 0, 83, 88
2, 41359, Control_c, 0, 11, 97
2, 41377, Control_c, 0, 11, 95
2, 41395, Control_c, 0, 11, 93
2, 41413, Control_c, 0, 11, 91
2, 41431, Control_c, 0, 11, 89
2, 41446, Note_on_c, 0, 83, 0
2, 41446, Note_on_c, 0, 86, 0
2, 41449, Control_c, 0, 11, 87
2, 41461, Note_on_c, 0, 83, 88
2, 41461, Note_on_c, 0, 86, 88
2, 41511, Note_on_c, 0, 86, 0
2, 41511, Note_on_c, 0, 83, 0
2, 41521, Note_on_c, 0, 83, 88
2, 41521, Note_on_c, 0, 79, 88
2, 41581, Note_on_c, 0, 79, 0
2, 41581, Note_on_c, 0, 83, 0
2, 41821, Note_on_c, 0, 83, 88
2, 41821, Note_on_c, 0, 86, 88
2, 41821, Control_c, 0, 11, 98
2, 41839, Control_c, 0, 11, 97
2, 41857, Control_c, 0, 11, 95
2, 41875, Control_c, 0, 11, 93
2, 41893, Control_c, 0, 11, 91
2, 41911, Control_c, 0, 11, 89
2, 41926, Note_on_c, 0, 86, 0
2, 41926, Note_on_c, 0, 83, 0
2, 41929, Control_c, 0, 11, 87
2, 41941, Note_on_c, 0, 86, 88
2, 41941, Note_on_c, 0, 83, 88
2, 41991, Note_on_c, 0, 83, 0
2, 41991, Note_on_c, 0, 86, 0
2, 42001, Note_on_c, 0, 83, 88
2, 42001, Note_on_c, 0, 79, 88
2, 42061, Note_on_c, 0, 79, 0
2, 42061, Note_on_c, 0, 83, 0
2, 42241, Note_on_c, 0, 83, 88
2, 42241, Note_on_c, 0, 79, 88
2, 42241, Control_c, 0, 11, 98
2, 42258, Control_c, 0, 11, 97
2, 42276, Control_c, 0, 11, 95
2, 42294, Control_c, 0, 11, 93
2, 42312, Control_c, 0, 11, 91
2, 42330, Control_c, 0, 11, 89
2, 42348, Control_c, 0, 11, 87
2, 42586, Note_on_c, 0, 79, 0
2, 42586, Note_on_c, 0, 83, 0
2, 42601, Note_on_c, 0, 79, 88
2, 42601, Note_on_c, 0, 83, 88
2, 42631, Note_on_c, 0, 83, 0
2, 42631, Note_on_c, 0, 79, 0
2, 42661, Note_on_c, 0, 83, 88
2, 42661, Note_on_c, 0, 79, 88
2, 42691, Note_on_c, 0, 79, 0
2, 42691, Note_on_c, 0, 83, 0
2, 42721, Note_on_c, 0, 84, 88
2, 42721, Note_on_c, 0, 79, 88
2, 42721, Control_c, 0, 11, 98
2, 42738, Control_c, 0, 11, 97
2, 42756, Control_c, 0, 11, 95
2, 42774, Control_c, 0, 11, 93
2, 42792, Control_c, 0, 11, 91
2, 42810, Control_c, 0, 11, 89
2, 42828, Control_c, 0, 11, 87
2, 43066, Note_on_c, 0, 79, 0
2, 43066, Note_on_c, 0, 84, 0
2, 43081, Note_on_c, 0, 84, 88
2, 43081, Note_on_c, 0, 79, 88
2, 43111, Note_on_c, 0, 79, 0
2, 43111, Note_on_c, 0, 84, 0
2, 43141, Note_on_c, 0, 79, 88
2, 43141, Note_on_c, 0, 84, 88
2, 43171, Note_on_c, 0, 84, 0
2, 43171, Note_on_c, 0, 79, 0
2, 43201, Note_on_c, 0, 79, 88
2, 43201, Note_on_c, 0, 86, 88
2, 43201, Control_c, 0, 11, 98
2, 43218, Control_c, 0, 11, 97
2, 43236, Control_c, 0, 11, 95
2, 43254, Control_c, 0, 11, 93
2, 43272, Control_c, 0, 11, 91
2, 43290, Control_c, 0, 11, 89
2, 43308, Control_c, 0, 11, 87
2, 43546, Note_on_c, 0, 86, 0
2, 43546, Note_on_c, 0, 79, 0
2, 43561, Note_on_c, 0, 86, 88
2, 43561, Note_on_c, 0, 79, 88
2, 43591, Note_on_c, 0, 79, 0
2, 43591, Note_on_c, 0, 86, 0
2, 43621, Note_on_c, 0, 79, 88
2, 43621, Note_on_c, 0, 86, 88
2, 43651, Note_on_c, 0, 86, 0
2, 43651, Note_on_c, 0, 79, 0
2, 43681, Control_c, 0, 11, 98
2, 43681, Note_on_c, 0, 88, 88
2, 43681, Note_on_c, 0, 79, 88
2, 43698, Control_c, 0, 11, 97
2, 43716, Control_c, 0, 11, 95
2, 43734, Control_c, 0, 11, 93
2, 43752, Control_c, 0, 11, 91
2, 43770, Control_c, 0, 11, 89
2, 43788, Control_c, 0, 11, 87
2, 44026, Note_on_c, 0, 79, 0
2, 44026, Note_on_c, 0, 88, 0
2, 44041, Note_on_c, 0, 88, 88
2, 44041, Note_on_c, 0, 79, 88
2, 44071, Note_on_c, 0, 79, 0
2, 44071, Note_on_c, 0, 88, 0
2, 44101, Note_on_c, 0, 88, 88
2, 44101, Note_on_c, 0, 79, 88
2, 44131, Note_on_c, 0, 79, 0
2, 44131, Note_on_c, 0, 88, 0
2, 44161, Control_c, 0, 11, 98
2, 44161, Note_on_c, 0, 89, 88
2, 44161, Note_on_c, 0, 79, 88
2, 44178, Control_c, 0, 11, 97
2, 44196, Control_c, 0, 11, 95
2, 44214, Control_c, 0, 11, 93
2, 44232, Control_c, 0, 11, 91
2, 44250, Control_c, 0, 11, 89
2, 44268, Control_c, 0, 11, 87
2, 44341, Note_on_c, 0, 79, 0
2, 44341, Note_on_c, 0, 89, 0
2, 44341, Note_on_c, 0, 79, 88
2, 44341, Note_on_c, 0, 88, 88
2, 44386, Note_on_c, 0, 88, 0
2, 44386, Note_on_c, 0, 79, 0
2, 44401, Control_c, 0, 11, 98
2, 44401, Note_on_c, 0, 79, 88
2, 44401, Note_on_c, 0, 89, 88
2, 44418, Control_c, 0, 11, 97
2, 44436, Control_c, 0, 11, 95
2, 44454, Control_c, 0, 11, 93
2, 44472, Control_c, 0, 11, 91
2, 44490, Control_c, 0, 11, 89
2, 44508, Control_c, 0, 11, 87
2, 44581, Note_on_c, 0, 89, 0
2, 44581, Note_on_c, 0, 79, 0
2, 44581, Note_on_c, 0, 79, 88
2, 44581, Note_on_c, 0, 88, 88
2, 44626, Note_on_c, 0, 88, 0
2, 44626, Note_on_c, 0, 79, 0
2, 44641, Note_on_c, 0, 89, 79
2, 44641, Note_on_c, 0, 79, 79
2, 44761, Note_on_c, 0, 79, 0
2, 44761, Note_on_c, 0, 89, 0
2, 47521, Control_c, 0, 11, 86
2, 47521, Note_on_c, 0, 82, 88
2, 47991, Note_on_c, 0, 82, 0
2, 48001, Note_on_c, 0, 81, 88
2, 48471, Note_on_c, 0, 81, 0
2, 48481, Note_on_c, 0, 82, 88
2, 48951, Note_on_c, 0, 82, 0
2, 48961, Note_on_c, 0, 81, 88
2, 49431, Note_on_c, 0, 81, 0
2, 49441, Note_on_c, 0, 82, 74
2, 49516, Control_c, 0, 11, 86
2, 49521, Control_c, 0, 11, 83
2, 49527, Control_c, 0, 11, 80
2, 49532, Control_c, 0, 11, 77
2, 49538, Control_c, 0, 11, 74
2, 49543, Control_c, 0, 11, 71
2, 49549, Control_c, 0, 11, 68
2, 49554, Control_c, 0, 11, 65
2, 49560, Control_c, 0, 11, 62
2, 49561, Note_on_c, 0, 82, 0
2, 53101, Note_on_c, 0, 91, 98
2, 53101, Control_c, 0, 11, 52
2, 53211, Note_on_c, 0, 91, 0
2, 53221, Note_on_c, 0, 91, 98
2, 53271, Note_on_c, 0, 91, 0
2, 53281, Note_on_c, 0, 90, 98
2, 53341, Note_on_c, 0, 90, 0
2, 53581, Note_on_c, 0, 84, 98
2, 53691, Note_on_c, 0, 84, 0
2, 53701, Note_on_c, 0, 84, 98
2, 53751, Note_on_c, 0, 84, 0
2, 53761, Note_on_c, 0, 83, 98
2, 53821, Note_on_c, 0, 83, 0
2, 54061, Note_on_c, 0, 89, 98
2, 54171, Note_on_c, 0, 89, 0
2, 54181, Note_on_c, 0, 89, 98
2, 54231, Note_on_c, 0, 89, 0
2, 54241, Note_on_c, 0, 88, 98
2, 54301, Note_on_c, 0, 88, 0
2, 54541, Note_on_c, 0, 82, 98
2, 54651, Note_on_c, 0, 82, 0
2, 54661, Note_on_c, 0, 82, 98
2, 54711, Note_on_c, 0, 82, 0
2, 54721, Control_c, 0, 11, 52
2, 54721, Note_on_c, 0, 81, 98
2, 54748, Control_c, 0, 11, 54
2, 54775, Control_c, 0, 11, 56
2, 54803, Control_c, 0, 11, 58
2, 54830, Control_c, 0, 11, 60
2, 54841, Note_on_c, 0, 81, 0
2, 54858, Control_c, 0, 11, 62
2, 54885, Control_c, 0, 11, 63
2, 54913, Control_c, 0, 11, 64
2, 54940, Control_c, 0, 11, 65
2, 54961, Note_on_c, 0, 86, 98
2, 54967, Control_c, 0, 11, 66
2, 54995, Control_c, 0, 11, 68
2, 55022, Control_c, 0, 11, 69
2, 55050, Control_c, 0, 11, 70
2, 55077, Control_c, 0, 11, 71
2, 55081, Note_on_c, 0, 86, 0
2, 55105, Control_c, 0, 11, 73
2, 55132, Control_c, 0, 11, 74
2, 55159, Control_c, 0, 11, 75
2, 55187, Control_c, 0, 11, 76
2, 55201, Note_on_c, 0, 79, 88
2, 55201, Note_on_c, 0, 86, 88
2, 55671, Note_on_c, 0, 86, 0
2, 55671, Note_on_c, 0, 79, 0
2, 55681, Note_on_c, 0, 88, 88
2, 55681, Note_on_c, 0, 79, 88
2, 56151, Note_on_c, 0, 79, 0
2, 56151, Note_on_c, 0, 88, 0
2, 56161, Control_c, 0, 11, 86
2, 56161, Note_on_c, 0, 83, 88
2, 56161, Note_on_c, 0, 86, 88
2, 56631, Note_on_c, 0, 86, 0
2, 56631, Note_on_c, 0, 83, 0
2, 56641, Note_on_c, 0, 84, 88
2, 56641, Note_on_c, 0, 87, 88
2, 57111, Note_on_c, 0, 87, 0
2, 57111, Note_on_c, 0, 84, 0
2, 57121, Note_on_c, 0, 83, 88
2, 57121, Note_on_c, 0, 86, 88
2, 57231, Note_on_c, 0, 86, 0
2, 57231, Note_on_c, 0, 83, 0
2, 57241, Control_c, 0, 11, 98
2, 57241, Note_on_c, 0, 79, 88
2, 57259, Control_c, 0, 11, 97
2, 57277, Control_c, 0, 11, 95
2, 57295, Control_c, 0, 11, 93
2, 57313, Control_c, 0, 11, 91
2, 57331, Control_c, 0, 11, 89
2, 57349, Control_c, 0, 11, 87
2, 57711, Note_on_c, 0, 79, 0
2, 57721, Note_on_c, 0, 83, 88
2, 57721, Control_c, 0, 11, 98
2, 57739, Control_c, 0, 11, 97
2, 57757, Control_c, 0, 11, 95
2, 57775, Control_c, 0, 11, 93
2, 57793, Control_c, 0, 11, 91
2, 57811, Control_c, 0, 11, 89
2, 57829, Control_c, 0, 11, 87
2, 58191, Note_on_c, 0, 83, 0
2, 58201, Control_c, 0, 11, 98
2, 58201, Note_on_c, 0, 86, 88
2, 58219, Control_c, 0, 11, 97
2, 58237, Control_c, 0, 11, 95
2, 58255, Control_c, 0, 11, 93
2, 58273, Control_c, 0, 11, 91
2, 58291, Control_c, 0, 11, 89
2, 58309, Control_c, 0, 11, 87
2, 58671, Note_on_c, 0, 86, 0
2, 58681, Note_on_c, 0, 89, 88
2, 58681, Control_c, 0, 11, 98
2, 58699, Control_c, 0, 11, 97
2, 58717, Control_c, 0, 11, 95
2, 58735, Control_c, 0, 11, 93
2, 58753, Control_c, 0, 11, 91
2, 58771, Control_c, 0, 11, 89
2, 58789, Control_c, 0, 11, 87
2, 59151, Note_on_c, 0, 89, 0
2, 59161, Control_c, 0, 11, 98
2, 59161, Note_on_c, 0, 89, 88
2, 59161, Note_on_c, 0, 86, 88
2, 59175, Control_c, 0, 11, 95
2, 59190, Control_c, 0, 11, 92
2, 59205, Control_c, 0, 11, 89
2, 59220, Control_c, 0, 11, 86
2, 59221, Note_on_c, 0, 86, 0
2, 59221, Note_on_c, 0, 89, 0
2, 59401, Note_on_c, 0, 83, 88
2, 59401, Note_on_c, 0, 86, 88
2, 59401, Control_c, 0, 11, 98
2, 59415, Control_c, 0, 11, 95
2, 59430, Control_c, 0, 11, 92
2, 59445, Control_c, 0, 11, 89
2, 59460, Control_c, 0, 11, 86
2, 59461, Note_on_c, 0, 86, 0
2, 59461, Note_on_c, 0, 83, 0
2, 59641, Control_c, 0, 11, 98
2, 59641, Note_on_c, 0, 86, 88
2, 59641, Note_on_c, 0, 89, 88
2, 59655, Control_c, 0, 11, 95
2, 59670, Control_c, 0, 11, 92
2, 59685, Control_c, 0, 11, 89
2, 59700, Control_c, 0, 11, 86
2, 59701, Note_on_c, 0, 89, 0
2, 59701, Note_on_c, 0, 86, 0
2, 59881, Note_on_c, 0, 83, 88
2, 59881, Control_c, 0, 11, 98
2, 59881, Note_on_c, 0, 86, 88
2, 59895, Control_c, 0, 11, 95
2, 59910, Control_c, 0, 11, 92
2, 59925, Control_c, 0, 11, 89
2, 59940, Control_c, 0, 11, 86
2, 59941, Note_on_c, 0, 86, 0
2, 59941, Note_on_c, 0, 83, 0
2, 60001, Note_on_c, 0, 89, 98
2, 60001, Note_on_c, 0, 86, 98
2, 60001, Control_c, 0, 11, 86
2, 60020, Control_c, 0, 11, 85
2, 60031, Note_on_c, 0, 86, 0
2, 60031, Note_on_c, 0, 89, 0
2, 60039, Control_c, 0, 11, 84
2, 60058, Control_c, 0, 11, 82
2, 60061, Note_on_c, 0, 88, 92
2, 60061, Note_on_c, 0, 85, 92
2, 60077, Control_c, 0, 11, 81
2, 60091, Note_on_c, 0, 85, 0
2, 60091, Note_on_c, 0, 88, 0
2, 60097, Control_c, 0, 11, 80
2, 60116, Control_c, 0, 11, 79
2, 60121, Note_on_c, 0, 89, 85
2, 60121, Note_on_c, 0, 86, 85
2, 60135, Control_c, 0, 11, 78
2, 60151, Note_on_c, 0, 86, 0
2, 60151, Note_on_c, 0, 89, 0
2, 60154, Control_c, 0, 11, 76
2, 60173, Control_c, 0, 11, 75
2, 60181, Note_on_c, 0, 85, 78
2, 60181, Note_on_c, 0, 88, 78
2, 60193, Control_c, 0, 11, 74
2, 60211, Note_on_c, 0, 88, 0
2, 60211, Note_on_c, 0, 85, 0
2, 60212, Control_c, 0, 11, 73
2, 60231, Control_c, 0, 11, 71
2, 60241, Note_on_c, 0, 89, 78
2, 60241, Note_on_c, 0, 86, 78
2, 60250, Control_c, 0, 11, 70
2, 60269, Control_c, 0, 11, 69
2, 60271, Note_on_c, 0, 86, 0
2, 60271, Note_on_c, 0, 89, 0
2, 60289, Control_c, 0, 11, 68
2, 60301, Note_on_c, 0, 88, 78
2, 60301, Note_on_c, 0, 85, 78
2, 60308, Control_c, 0, 11, 66
2, 60327, Control_c, 0, 11, 65
2, 60331, Note_on_c, 0, 85, 0
2, 60331, Note_on_c, 0, 88, 0
2, 60346, Control_c, 0, 11, 64
2, 60361, Note_on_c, 0, 89, 78
2, 60361, Note_on_c, 0, 86, 78
2, 60365, Control_c, 0, 11, 63
2, 60385, Control_c, 0, 11, 62
2, 60391, Note_on_c, 0, 86, 0
2, 60391, Note_on_c, 0, 89, 0
2, 60404, Control_c, 0, 11, 60
2, 60421, Note_on_c, 0, 85, 78
2, 60421, Note_on_c, 0, 88, 78
2, 60423, Control_c, 0, 11, 58
2, 60442, Control_c, 0, 11, 56
2, 60451, Note_on_c, 0, 88, 0
2, 60451, Note_on_c, 0, 85, 0
2, 60461, Control_c, 0, 11, 54
2, 60481, Control_c, 0, 11, 52
2, 60481, Note_on_c, 0, 86, 78
2, 60481, Note_on_c, 0, 89, 78
2, 60511, Note_on_c, 0, 89, 0
2, 60511, Note_on_c, 0, 86, 0
2, 60541, Note_on_c, 0, 84, 75
2, 60541, Note_on_c, 0, 88, 75
2, 60571, Note_on_c, 0, 88, 0
2, 60571, Note_on_c, 0, 84, 0
2, 60577, Control_c, 0, 11, 51
2, 60601, Note_on_c, 0, 86, 73
2, 60601, Note_on_c, 0, 83, 73
2, 60631, Note_on_c, 0, 83, 0
2, 60631, Note_on_c, 0, 86, 0
2, 60661, Note_on_c, 0, 84, 70
2, 60661, Note_on_c, 0, 81, 70
2, 60673, Control_c, 0, 11, 50
2, 60691, Note_on_c, 0, 81, 0
2, 60691, Note_on_c, 0, 84, 0
2, 60721, Note_on_c, 0, 83, 68
2, 60721, Note_on_c, 0, 79, 68
2, 60751, Note_on_c, 0, 79, 0
2, 60751, Note_on_c, 0, 83, 0
2, 60769, Control_c, 0, 11, 49
2, 60781, Note_on_c, 0, 77, 66
2, 60781, Note_on_c, 0, 81, 66
2, 60811, Note_on_c, 0, 81, 0
2, 60811, Note_on_c, 0, 77, 0
2, 60841, Note_on_c, 0, 76, 63
2, 60841, Note_on_c, 0, 79, 63
2, 60865, Control_c, 0, 11, 48
2, 60871, Note_on_c, 0, 79, 0
2, 60871, Note_on_c, 0, 76, 0
2, 60901, Note_on_c, 0, 77, 61
2, 60901, Note_on_c, 0, 74, 61
2, 60931, Note_on_c, 0, 74, 0
2, 60931, Note_on_c, 0, 77, 0
2, 60961, Note_on_c, 0, 76, 58
2, 60961, Control_c, 0, 11, 47
2, 60961, Note_on_c, 0, 72, 58
2, 61081, Note_on_c, 0, 72, 0
2, 61081, Note_on_c, 0, 76, 0
2, 65461, Control_c, 0, 11, 77
2, 65461, Note_on_c, 0, 81, 88
2, 65461, Note_on_c, 0, 84, 88
2, 65491, Note_on_c, 0, 84, 0
2, 65491, Note_on_c, 0, 81, 0
2, 65521, Note_on_c, 0, 84, 88
2, 65521, Note_on_c, 0, 81, 88
2, 65551, Note_on_c, 0, 81, 0
2, 65551, Note_on_c, 0, 84, 0
2, 65581, Note_on_c, 0, 84, 88
2, 65581, Note_on_c, 0, 81, 88
2, 65611, Note_on_c, 0, 81, 0
2, 65611, Note_on_c, 0, 84, 0
2, 65641, Note_on_c, 0, 84, 88
2, 65641, Note_on_c, 0, 81, 88
2, 65671, Note_on_c, 0, 81, 0
2, 65671, Note_on_c, 0, 84, 0
2, 65701, Note_on_c, 0, 81, 88
2, 65701, Note_on_c, 0, 84, 88
2, 65731, Note_on_c, 0, 84, 0
2, 65731, Note_on_c, 0, 81, 0
2, 65761, Note_on_c, 0, 84, 88
2, 65761, Note_on_c, 0, 81, 88
2, 65881, Note_on_c, 0, 81, 0
2, 65881, Note_on_c, 0, 84, 0
2, 65881, Note_on_c, 0, 82, 88
2, 65881, Note_on_c, 0, 79, 88
2, 65931, Note_on_c, 0, 79, 0
2, 65931, Note_on_c, 0, 82, 0
2, 65941, Note_on_c, 0, 82, 88
2, 65941, Note_on_c, 0, 79, 88
2, 65971, Note_on_c, 0, 79, 0
2, 65971, Note_on_c, 0, 82, 0
2, 66001, Note_on_c, 0, 82, 88
2, 66001, Note_on_c, 0, 79, 88
2, 66031, Note_on_c, 0, 79, 0
2, 66031, Note_on_c, 0, 82, 0
2, 66061, Note_on_c, 0, 79, 88
2, 66061, Note_on_c, 0, 82, 88
2, 66091, Note_on_c, 0, 82, 0
2, 66091, Note_on_c, 0, 79, 0
2, 66121, Note_on_c, 0, 79, 88
2, 66121, Note_on_c, 0, 82, 88
2, 66151, Note_on_c, 0, 82, 0
2, 66151, Note_on_c, 0, 79, 0
2, 66181, Note_on_c, 0, 79, 88
2, 66181, Note_on_c, 0, 82, 88
2, 66211, Note_on_c, 0, 82, 0
2, 66211, Note_on_c, 0, 79, 0
2, 66241, Note_on_c, 0, 79, 88
2, 66241, Note_on_c, 0, 82, 88
2, 66361, Note_on_c, 0, 82, 0
2, 66361, Note_on_c, 0, 79, 0
2, 66361, Note_on_c, 0, 77, 88
2, 66361, Note_on_c, 0, 81, 88
2, 66421, Note_on_c, 0, 81, 0
2, 66421, Note_on_c, 0, 77, 0
2, 66421, Note_on_c, 0, 81, 88
2, 66421, Note_on_c, 0, 77, 88
2, 66451, Note_on_c, 0, 77, 0
2, 66451, Note_on_c, 0, 81, 0
2, 66481, Note_on_c, 0, 81, 88
2, 66481, Note_on_c, 0, 77, 88
2, 66511, Note_on_c, 0, 77, 0
2, 66511, Note_on_c, 0, 81, 0
2, 66541, Note_on_c, 0, 81, 88
2, 66541, Note_on_c, 0, 77, 88
2, 66571, Note_on_c, 0, 77, 0
2, 66571, Note_on_c, 0, 81, 0
2, 66601, Note_on_c, 0, 81, 88
2, 66601, Note_on_c, 0, 77, 88
2, 66631, Note_on_c, 0, 77, 0
2, 66631, Note_on_c, 0, 81, 0
2, 66661, Note_on_c, 0, 81, 88
2, 66661, Note_on_c, 0, 77, 88
2, 66691, Note_on_c, 0, 77, 0
2, 66691, Note_on_c, 0, 81, 0
2, 66721, Note_on_c, 0, 74, 88
2, 66721, Note_on_c, 0, 79, 88
2, 66961, Note_on_c, 0, 79, 0
2, 66961, Note_on_c, 0, 77, 88
2, 67191, Note_on_c, 0, 77, 0
2, 67191, Note_on_c, 0, 74, 0
2, 67201, Note_on_c, 0, 76, 74
2, 67201, Note_on_c, 0, 72, 74
2, 67321, Note_on_c, 0, 72, 0
2, 67321, Note_on_c, 0, 76, 0
2, 70561, Note_on_c, 0, 76, 98
2, 70561, Control_c, 0, 11, 52
2, 70602, Control_c, 0, 11, 53
2, 70621, Note_on_c, 0, 76, 0
2, 70621, Note_on_c, 0, 79, 98
2, 70643, Control_c, 0, 11, 54
2, 70671, Note_on_c, 0, 79, 0
2, 70681, Note_on_c, 0, 79, 98
2, 70684, Control_c, 0, 11, 55
2, 70711, Note_on_c, 0, 79, 0
2, 70725, Control_c, 0, 11, 56
2, 70741, Note_on_c, 0, 84, 98
2, 70766, Control_c, 0, 11, 57
2, 70771, Note_on_c, 0, 84, 0
2, 70801, Note_on_c, 0, 84, 98
2, 70807, Control_c, 0, 11, 58
2, 70849, Control_c, 0, 11, 59
2, 70861, Note_on_c, 0, 84, 0
2, 70861, Note_on_c, 0, 83, 98
2, 70890, Control_c, 0, 11, 60
2, 70911, Note_on_c, 0, 83, 0
2, 70921, Note_on_c, 0, 83, 98
2, 70931, Control_c, 0, 11, 61
2, 70951, Note_on_c, 0, 83, 0
2, 70972, Control_c, 0, 11, 62
2, 70981, Note_on_c, 0, 86, 98
2, 71011, Note_on_c, 0, 86, 0
2, 71013, Control_c, 0, 11, 62
2, 71041, Note_on_c, 0, 74, 98
2, 71041, Note_on_c, 0, 86, 98
2, 71054, Control_c, 0, 11, 63
2, 71095, Control_c, 0, 11, 63
2, 71101, Note_on_c, 0, 86, 0
2, 71101, Note_on_c, 0, 74, 0
2, 71101, Note_on_c, 0, 84, 98
2, 71101, Note_on_c, 0, 72, 98
2, 71137, Control_c, 0, 11, 64
2, 71151, Note_on_c, 0, 72, 0
2, 71151, Note_on_c, 0, 84, 0
2, 71161, Note_on_c, 0, 84, 98
2, 71161, Note_on_c, 0, 72, 98
2, 71178, Control_c, 0, 11, 65
2, 71191, Note_on_c, 0, 72, 0
2, 71191, Note_on_c, 0, 84, 0
2, 71219, Control_c, 0, 11, 65
2, 71221, Note_on_c, 0, 88, 98
2, 71221, Note_on_c, 0, 76, 98
2, 71251, Note_on_c, 0, 76, 0
2, 71251, Note_on_c, 0, 88, 0
2, 71260, Control_c, 0, 11, 66
2, 71281, Note_on_c, 0, 76, 98
2, 71281, Note_on_c, 0, 88, 98
2, 71301, Control_c, 0, 11, 66
2, 71341, Note_on_c, 0, 88, 0
2, 71341, Note_on_c, 0, 76, 0
2, 71341, Note_on_c, 0, 74, 98
2, 71341, Note_on_c, 0, 86, 98
2, 71342, Control_c, 0, 11, 67
2, 71383, Control_c, 0, 11, 68
2, 71391, Note_on_c, 0, 86, 0
2, 71391, Note_on_c, 0, 74, 0
2, 71401, Note_on_c, 0, 74, 98
2, 71401, Note_on_c, 0, 86, 98
2, 71425, Control_c, 0, 11, 68
2, 71431, Note_on_c, 0, 86, 0
2, 71431, Note_on_c, 0, 74, 0
2, 71461, Note_on_c, 0, 77, 98
2, 71461, Note_on_c, 0, 89, 98
2, 71466, Control_c, 0, 11, 69
2, 71491, Note_on_c, 0, 89, 0
2, 71491, Note_on_c, 0, 77, 0
2, 71507, Control_c, 0, 11, 70
2, 71521, Note_on_c, 0, 77, 98
2, 71521, Note_on_c, 0, 89, 98
2, 71548, Control_c, 0, 11, 70
2, 71581, Note_on_c, 0, 89, 0
2, 71581, Note_on_c, 0, 77, 0
2, 71581, Note_on_c, 0, 76, 98
2, 71581, Note_on_c, 0, 88, 98
2, 71589, Control_c, 0, 11, 71
2, 71630, Control_c, 0, 11, 71
2, 71631, Note_on_c, 0, 88, 0
2, 71631, Note_on_c, 0, 76, 0
2, 71641, Note_on_c, 0, 76, 98
2, 71641, Note_on_c, 0, 88, 98
2, 71671, Note_on_c, 0, 88, 0
2, 71671, Note_on_c, 0, 76, 0
2, 71671, Control_c, 0, 11, 72
2, 71701, Note_on_c, 0, 79, 98
2, 71701, Note_on_c, 0, 91, 98
2, 71713, Control_c, 0, 11, 73
2, 71731, Note_on_c, 0, 91, 0
2, 71731, Note_on_c, 0, 79, 0
2, 71754, Control_c, 0, 11, 73
2, 71761, Note_on_c, 0, 91, 98
2, 71761, Note_on_c, 0, 79, 98
2, 71795, Control_c, 0, 11, 74
2, 71821, Note_on_c, 0, 79, 0
2, 71821, Note_on_c, 0, 91, 0
2, 71821, Note_on_c, 0, 89, 98
2, 71821, Note_on_c, 0, 77, 98
2, 71836, Control_c, 0, 11, 74
2, 71871, Note_on_c, 0, 77, 0
2, 71871, Note_on_c, 0, 89, 0
2, 71877, Control_c, 0, 11, 75
2, 71881, Note_on_c, 0, 89, 98
2, 71881, Note_on_c, 0, 77, 98
2, 71911, Note_on_c, 0, 77, 0
2, 71911, Note_on_c, 0, 89, 0
2, 71918, Control_c, 0, 11, 76
2, 71959, Control_c, 0, 11, 76
2, 72001, Control_c, 0, 11, 77
2, 72241, Note_on_c, 0, 85, 88
2, 72241, Note_on_c, 0, 82, 88
2, 72241, Control_c, 0, 11, 98
2, 72258, Control_c, 0, 11, 95
2, 72275, Control_c, 0, 11, 92
2, 72292, Control_c, 0, 11, 89
2, 72309, Control_c, 0, 11, 86
2, 72326, Control_c, 0, 11, 83
2, 72343, Control_c, 0, 11, 80
2, 72361, Control_c, 0, 11, 77
2, 72481, Note_on_c, 0, 82, 0
2, 72481, Note_on_c, 0, 85, 0
2, 72481, Control_c, 0, 11, 89
2, 72481, Note_on_c, 0, 81, 88
2, 72481, Note_on_c, 0, 86, 88
2, 72499, Control_c, 0, 11, 87
2, 72517, Control_c, 0, 11, 86
2, 72535, Control_c, 0, 11, 84
2, 72553, Control_c, 0, 11, 82
2, 72571, Control_c, 0, 11, 80
2, 72589, Control_c, 0, 11, 78
2, 72721, Note_on_c, 0, 86, 0
2, 72721, Note_on_c, 0, 81, 0
2, 72721, Control_c, 0, 11, 89
2, 72721, Note_on_c, 0, 81, 88
2, 72721, Note_on_c, 0, 87, 88
2, 72739, Control_c, 0, 11, 87
2, 72757, Control_c, 0, 11, 86
2, 72775, Control_c, 0, 11, 84
2, 72793, Control_c, 0, 11, 82
2, 72811, Control_c, 0, 11, 80
2, 72829, Control_c, 0, 11, 78
2, 72961, Note_on_c, 0, 87, 0
2, 72961, Note_on_c, 0, 81, 0
2, 72961, Note_on_c, 0, 80, 88
2, 72961, Note_on_c, 0, 88, 88
2, 73021, Note_on_c, 0, 88, 0
2, 73021, Note_on_c, 0, 80, 0
2, 73081, Control_c, 0, 11, 86
2, 73081, Note_on_c, 0, 89, 88
2, 73081, Note_on_c, 0, 80, 88
2, 73321, Note_on_c, 0, 80, 0
2, 73321, Note_on_c, 0, 79, 88
2, 73441, Note_on_c, 0, 89, 0
2, 73441, Note_on_c, 0, 88, 88
2, 73561, Note_on_c, 0, 88, 0
2, 73561, Note_on_c, 0, 79, 0
2, 73561, Note_on_c, 0, 77, 88
2, 73561, Note_on_c, 0, 86, 88
2, 73681, Note_on_c, 0, 86, 0
2, 73681, Note_on_c, 0, 77, 0
2, 73681, Note_on_c, 0, 76, 88
2, 73681, Note_on_c, 0, 84, 88
2, 73801, Note_on_c, 0, 84, 0
2, 73801, Note_on_c, 0, 76, 0
2, 73801, Note_on_c, 0, 83, 88
2, 73801, Note_on_c, 0, 74, 88
2, 73921, Note_on_c, 0, 74, 0
2, 73921, Note_on_c, 0, 83, 0
2, 73921, Note_on_c, 0, 84, 88
2, 73921, Note_on_c, 0, 76, 88
2, 73981, Note_on_c, 0, 76, 0
2, 73981, Note_on_c, 0, 84, 0
2, 74461, Control_c, 0, 11, 98
2, 74461, Note_on_c, 0, 88, 88
2, 74461, Note_on_c, 0, 91, 88
2, 74479, Control_c, 0, 11, 97
2, 74497, Control_c, 0, 11, 95
2, 74515, Control_c, 0, 11, 93
2, 74533, Control_c, 0, 11, 91
2, 74551, Control_c, 0, 11, 89
2, 74566, Note_on_c, 0, 91, 0
2, 74566, Note_on_c, 0, 88, 0
2, 74569, Control_c, 0, 11, 87
2, 74581, Note_on_c, 0, 88, 88
2, 74581, Note_on_c, 0, 91, 88
2, 74631, Note_on_c, 0, 91, 0
2, 74631, Note_on_c, 0, 88, 0
2, 74641, Note_on_c, 0, 84, 88
2, 74641, Note_on_c, 0, 88, 88
2, 74701, Note_on_c, 0, 88, 0
2, 74701, Note_on_c, 0, 84, 0
2, 75421, Note_on_c, 0, 91, 88
2, 75421, Control_c, 0, 11, 98
2, 75421, Note_on_c, 0, 88, 88
2, 75439, Control_c, 0, 11, 97
2, 75457, Control_c, 0, 11, 95
2, 75475, Control_c, 0, 11, 93
2, 75493, Control_c, 0, 11, 91
2, 75511, Control_c, 0, 11, 89
2, 75526, Note_on_c, 0, 88, 0
2, 75526, Note_on_c, 0, 91, 0
2, 75529, Control_c, 0, 11, 87
2, 75541, Note_on_c, 0, 88, 88
2, 75541, Note_on_c, 0, 91, 88
2, 75591, Note_on_c, 0, 91, 0
2, 75591, Note_on_c, 0, 88, 0
2, 75601, Note_on_c, 0, 88, 88
2, 75601, Note_on_c, 0, 84, 88
2, 75661, Note_on_c, 0, 84, 0
2, 75661, Note_on_c, 0, 88, 0
2, 75841, Control_c, 0, 11, 86
2, 75841, Note_on_c, 0, 84, 88
2, 76191, Note_on_c, 0, 84, 0
2, 76201, Note_on_c, 0, 84, 88
2, 76249, Note_on_c, 0, 84, 0
2, 76261, Note_on_c, 0, 84, 88
2, 76309, Note_on_c, 0, 84, 0
2, 76321, Note_on_c, 0, 86, 88
2, 76321, Control_c, 0, 11, 98
2, 76339, Control_c, 0, 11, 97
2, 76357, Control_c, 0, 11, 95
2, 76375, Control_c, 0, 11, 93
2, 76393, Control_c, 0, 11, 91
2, 76411, Control_c, 0, 11, 89
2, 76429, Control_c, 0, 11, 87
2, 76671, Note_on_c, 0, 86, 0
2, 76681, Note_on_c, 0, 86, 88
2, 76729, Note_on_c, 0, 86, 0
2, 76741, Note_on_c, 0, 86, 88
2, 76789, Note_on_c, 0, 86, 0
2, 76801, Note_on_c, 0, 88, 88
2, 76801, Control_c, 0, 11, 98
2, 76819, Control_c, 0, 11, 97
2, 76837, Control_c, 0, 11, 95
2, 76855, Control_c, 0, 11, 93
2, 76873, Control_c, 0, 11, 91
2, 76891, Control_c, 0, 11, 89
2, 76909, Control_c, 0, 11, 87
2, 77151, Note_on_c, 0, 88, 0
2, 77161, Note_on_c, 0, 88, 88
2, 77209, Note_on_c, 0, 88, 0
2, 77221, Note_on_c, 0, 88, 88
2, 77269, Note_on_c, 0, 88, 0
2, 77281, Note_on_c, 0, 89, 88
2, 77486, Note_on_c, 0, 89, 0
2, 77491, Note_on_c, 0, 89, 88
2, 77491, Note_on_c, 0, 77, 88
2, 77516, Note_on_c, 0, 77, 0
2, 77516, Note_on_c, 0, 89, 0
2, 77521, Note_on_c, 0, 78, 88
2, 77521, Note_on_c, 0, 90, 88
2, 77726, Note_on_c, 0, 90, 0
2, 77726, Note_on_c, 0, 78, 0
2, 77731, Note_on_c, 0, 90, 88
2, 77731, Note_on_c, 0, 78, 88
2, 77756, Note_on_c, 0, 78, 0
2, 77756, Note_on_c, 0, 90, 0
2, 77761, Note_on_c, 0, 79, 88
2, 77761, Note_on_c, 0, 91, 88
2, 77821, Note_on_c, 0, 91, 0
2, 77821, Note_on_c, 0, 79, 0
2, 77881, Note_on_c, 0, 81, 98
2, 77881, Note_on_c, 0, 93, 98
2, 77881, Control_c, 0, 11, 98
2, 77899, Control_c, 0, 11, 97
2, 77917, Control_c, 0, 11, 95
2, 77935, Control_c, 0, 11, 93
2, 77953, Control_c, 0, 11, 91
2, 77971, Control_c, 0, 11, 89
2, 77989, Control_c, 0, 11, 87
2, 78196, Control_c, 0, 11, 86
2, 78198, Control_c, 0, 11, 83
2, 78200, Control_c, 0, 11, 80
2, 78203, Control_c, 0, 11, 76
2, 78205, Control_c, 0, 11, 73
2, 78207, Control_c, 0, 11, 70
2, 78209, Control_c, 0, 11, 67
2, 78211, Note_on_c, 0, 93, 0
2, 78211, Note_on_c, 0, 81, 0
2, 78241, Note_on_c, 0, 83, 98
2, 78241, Note_on_c, 0, 86, 98
2, 78241, Control_c, 0, 11, 86
2, 78301, Note_on_c, 0, 86, 0
2, 78301, Note_on_c, 0, 83, 0
2, 78361, Control_c, 0, 11, 98
2, 78361, Note_on_c, 0, 89, 98
2, 78379, Control_c, 0, 11, 97
2, 78397, Control_c, 0, 11, 95
2, 78415, Control_c, 0, 11, 93
2, 78433, Control_c, 0, 11, 91
2, 78451, Control_c, 0, 11, 89
2, 78469, Control_c, 0, 11, 87
2, 78611, Control_c, 0, 11, 86
2, 78614, Control_c, 0, 11, 82
2, 78617, Control_c, 0, 11, 79
2, 78620, Control_c, 0, 11, 76
2, 78623, Control_c, 0, 11, 73
2, 78626, Control_c, 0, 11, 70
2, 78629, Control_c, 0, 11, 66
2, 78631, Note_on_c, 0, 89, 0
2, 79141, Control_c, 0, 11, 52
2, 79141, Note_on_c, 0, 79, 78
2, 79171, Note_on_c, 0, 79, 0
2, 79171, Note_on_c, 0, 81, 88
2, 79201, Note_on_c, 0, 81, 0
2, 79201, Note_on_c, 0, 83, 98
2, 79231, Note_on_c, 0, 83, 0
2, 79231, Note_on_c, 0, 84, 98
2, 79261, Note_on_c, 0, 84, 0
2, 79261, Note_on_c, 0, 86, 98
2, 79291, Note_on_c, 0, 86, 0
2, 79291, Note_on_c, 0, 88, 98
2, 79321, Note_on_c, 0, 88, 0
2, 79321, Note_on_c, 0, 89, 98
2, 79381, Note_on_c, 0, 89, 0
2, 79831, Control_c, 0, 11, 47
2, 79831, Note_on_c, 0, 79, 98
2, 79846, Note_on_c, 0, 79, 0
2, 79861, Note_on_c, 0, 81, 98
2, 79876, Note_on_c, 0, 81, 0
2, 79891, Note_on_c, 0, 83, 98
2, 79906, Note_on_c, 0, 83, 0
2, 79921, Note_on_c, 0, 84, 98
2, 79936, Note_on_c, 0, 84, 0
2, 79951, Note_on_c, 0, 86, 98
2, 79966, Note_on_c, 0, 86, 0
2, 79981, Note_on_c, 0, 88, 98
2, 79996, Note_on_c, 0, 88, 0
2, 80011, Note_on_c, 0, 89, 98
2, 80026, Note_on_c, 0, 89, 0
2, 80041, Note_on_c, 0, 91, 98
2, 80071, Note_on_c, 0, 91, 0
2, 80101, Note_on_c, 0, 91, 98
2, 80131, Note_on_c, 0, 91, 0
2, 80161, Note_on_c, 0, 88, 98
2, 80281, Note_on_c, 0, 88, 0
2, 80281, Note_on_c, 0, 84, 98
2, 80341, Note_on_c, 0, 84, 0
2, 80341, Note_on_c, 0, 84, 98
2, 80371, Note_on_c, 0, 84, 0
2, 80401, Note_on_c, 0, 86, 98
2, 80431, Note_on_c, 0, 86, 0
2, 80461, Note_on_c, 0, 86, 98
2, 80491, Note_on_c, 0, 86, 0
2, 80491, Control_c, 0, 11, 47
2, 80511, Control_c, 0, 11, 50
2, 80521, Note_on_c, 0, 88, 98
2, 80533, Control_c, 0, 11, 53
2, 80551, Note_on_c, 0, 88, 0
2, 80551, Note_on_c, 0, 86, 98
2, 80556, Control_c, 0, 11, 56
2, 80578, Control_c, 0, 11, 59
2, 80581, Note_on_c, 0, 86, 0
2, 80581, Note_on_c, 0, 84, 98
2, 80601, Control_c, 0, 11, 62
2, 80611, Note_on_c, 0, 84, 0
2, 80611, Note_on_c, 0, 86, 98
2, 80623, Control_c, 0, 11, 65
2, 80631, Note_on_c, 0, 86, 0
2, 80641, Note_on_c, 0, 88, 83
2, 80641, Control_c, 0, 11, 77
2, 80761, Note_on_c, 0, 88, 0
2, 80761, Note_on_c, 0, 84, 98
2, 80781, Note_on_c, 0, 84, 0
2, 80791, Note_on_c, 0, 79, 98
2, 80806, Note_on_c, 0, 79, 0
2, 80821, Note_on_c, 0, 81, 98
2, 80836, Note_on_c, 0, 81, 0
2, 80851, Note_on_c, 0, 83, 98
2, 80866, Note_on_c, 0, 83, 0
2, 80881, Note_on_c, 0, 84, 98
2, 80896, Note_on_c, 0, 84, 0
2, 80911, Note_on_c, 0, 86, 98
2, 80926, Note_on_c, 0, 86, 0
2, 80941, Note_on_c, 0, 88, 98
2, 80956, Note_on_c, 0, 88, 0
2, 80971, Note_on_c, 0, 89, 98
2, 80986, Note_on_c, 0, 89, 0
2, 81001, Note_on_c, 0, 91, 98
2, 81031, Note_on_c, 0, 91, 0
2, 81061, Note_on_c, 0, 91, 98
2, 81091, Note_on_c, 0, 91, 0
2, 81121, Note_on_c, 0, 88, 98
2, 81151, Note_on_c, 0, 88, 0
2, 81181, Note_on_c, 0, 84, 98
2, 81211, Note_on_c, 0, 84, 0
2, 81241, Note_on_c, 0, 86, 98
2, 81271, Note_on_c, 0, 86, 0
2, 81271, Note_on_c, 0, 84, 98
2, 81301, Note_on_c, 0, 84, 0
2, 81301, Note_on_c, 0, 83, 98
2, 81331, Note_on_c, 0, 83, 0
2, 81331, Note_on_c, 0, 84, 98
2, 81351, Note_on_c, 0, 84, 0
2, 81361, Note_on_c, 0, 81, 98
2, 81391, Note_on_c, 0, 81, 0
2, 81421, Note_on_c, 0, 86, 98
2, 81451, Note_on_c, 0, 86, 0
2, 81481, Note_on_c, 0, 88, 98
2, 81511, Note_on_c, 0, 88, 0
2, 81511, Note_on_c, 0, 86, 98
2, 81541, Note_on_c, 0, 86, 0
2, 81541, Note_on_c, 0, 85, 98
2, 81571, Note_on_c, 0, 85, 0
2, 81571, Note_on_c, 0, 86, 98
2, 81591, Note_on_c, 0, 86, 0
2, 81601, Note_on_c, 0, 79, 70
2, 81601, Control_c, 0, 11, 77
2, 81697, Note_on_c, 0, 79, 0
2, 83701, Note_on_c, 0, 91, 88
2, 83701, Control_c, 0, 11, 86
2, 83701, Note_on_c, 0, 88, 88
2, 83731, Note_on_c, 0, 88, 0
2, 83731, Note_on_c, 0, 91, 0
2, 83761, Note_on_c, 0, 91, 88
2, 83761, Note_on_c, 0, 88, 88
2, 83791, Note_on_c, 0, 88, 0
2, 83791, Note_on_c, 0, 91, 0
2, 83821, Note_on_c, 0, 91, 88
2, 83821, Note_on_c, 0, 88, 88
2, 83851, Note_on_c, 0, 88, 0
2, 83851, Note_on_c, 0, 91, 0
2, 83881, Note_on_c, 0, 91, 88
2, 83881, Note_on_c, 0, 88, 88
2, 83911, Note_on_c, 0, 88, 0
2, 83911, Note_on_c, 0, 91, 0
2, 83941, Note_on_c, 0, 91, 88
2, 83941, Note_on_c, 0, 88, 88
2, 83971, Note_on_c, 0, 88, 0
2, 83971, Note_on_c, 0, 91, 0
2, 84001, Note_on_c, 0, 91, 88
2, 84001, Note_on_c, 0, 88, 88
2, 84121, Note_on_c, 0, 88, 0
2, 84121, Note_on_c, 0, 91, 0
2, 84121, Note_on_c, 0, 89, 88
2, 84121, Note_on_c, 0, 86, 88
2, 84171, Note_on_c, 0, 86, 0
2, 84171, Note_on_c, 0, 89, 0
2, 84181, Note_on_c, 0, 89, 88
2, 84181, Note_on_c, 0, 86, 88
2, 84211, Note_on_c, 0, 86, 0
2, 84211, Note_on_c, 0, 89, 0
2, 84241, Note_on_c, 0, 86, 88
2, 84241, Note_on_c, 0, 89, 88
2, 84271, Note_on_c, 0, 89, 0
2, 84271, Note_on_c, 0, 86, 0
2, 84301, Note_on_c, 0, 89, 88
2, 84301, Note_on_c, 0, 86, 88
2, 84331, Note_on_c, 0, 86, 0
2, 84331, Note_on_c, 0, 89, 0
2, 84361, Note_on_c, 0, 86, 88
2, 84361, Note_on_c, 0, 89, 88
2, 84391, Note_on_c, 0, 89, 0
2, 84391, Note_on_c, 0, 86, 0
2, 84421, Note_on_c, 0, 86, 88
2, 84421, Note_on_c, 0, 89, 88
2, 84451, Note_on_c, 0, 89, 0
2, 84451, Note_on_c, 0, 86, 0
2, 84481, Note_on_c, 0, 86, 88
2, 84481, Note_on_c, 0, 89, 88
2, 84601, Note_on_c, 0, 89, 0
2, 84601, Note_on_c, 0, 86, 0
2, 84601, Note_on_c, 0, 88, 88
2, 84601, Note_on_c, 0, 84, 88
2, 84651, Note_on_c, 0, 84, 0
2, 84651, Note_on_c, 0, 88, 0
2, 84661, Note_on_c, 0, 88, 88
2, 84661, Note_on_c, 0, 84, 88
2, 84691, Note_on_c, 0, 84, 0
2, 84691, Note_on_c, 0, 88, 0
2, 84721, Note_on_c, 0, 88, 88
2, 84721, Note_on_c, 0, 84, 88
2, 84751, Note_on_c, 0, 84, 0
2, 84751, Note_on_c, 0, 88, 0
2, 84781, Note_on_c, 0, 88, 88
2, 84781, Note_on_c, 0, 84, 88
2, 84811, Note_on_c, 0, 84, 0
2, 84811, Note_on_c, 0, 88, 0
2, 84841, Note_on_c, 0, 88, 88
2, 84841, Note_on_c, 0, 84, 88
2, 84871, Note_on_c, 0, 84, 0
2, 84871, Note_on_c, 0, 88, 0
2, 84901, Note_on_c, 0, 84, 88
2, 84901, Note_on_c, 0, 88, 88
2, 84931, Note_on_c, 0, 88, 0
2, 84931, Note_on_c, 0, 84, 0
2, 84961, Note_on_c, 0, 81, 88
2, 84961, Note_on_c, 0, 86, 88
2, 85071, Note_on_c, 0, 86, 0
2, 85071, Note_on_c, 0, 81, 0
2, 85081, Note_on_c, 0, 81, 88
2, 85081, Note_on_c, 0, 89, 88
2, 85191, Note_on_c, 0, 89, 0
2, 85191, Note_on_c, 0, 81, 0
2, 85201, Note_on_c, 0, 76, 88
2, 85201, Note_on_c, 0, 84, 88
2, 85311, Note_on_c, 0, 84, 0
2, 85311, Note_on_c, 0, 76, 0
2, 85321, Note_on_c, 0, 83, 88
2, 85321, Note_on_c, 0, 74, 88
2, 85431, Note_on_c, 0, 74, 0
2, 85431, Note_on_c, 0, 83, 0
2, 85441, Note_on_c, 0, 84, 88
2, 85441, Note_on_c, 0, 76, 88
2, 85561, Note_on_c, 0, 76, 0
2, 85561, Note_on_c, 0, 84, 0
2, 85921, Note_on_c, 0, 88, 88
2, 85921, Control_c, 0, 11, 77
2, 85921, Note_on_c, 0, 84, 88
2, 86041, Note_on_c, 0, 84, 0
2, 86041, Note_on_c, 0, 88, 0
2, 86401, Control_c, 0, 11, 52
2, 86401, Note_on_c, 0, 72, 94
2, 86401, Note_on_c, 0, 76, 94
2, 86431, Note_on_c, 0, 76, 0
2, 86431, Note_on_c, 0, 72, 0
2, 86431, Note_on_c, 0, 77, 97
2, 86431, Note_on_c, 0, 74, 97
2, 86461, Note_on_c, 0, 74, 0
2, 86461, Note_on_c, 0, 77, 0
2, 86461, Note_on_c, 0, 79, 102
2, 86461, Note_on_c, 0, 76, 102
2, 86491, Note_on_c, 0, 76, 0
2, 86491, Note_on_c, 0, 79, 0
2, 86491, Note_on_c, 0, 77, 107
2, 86491, Note_on_c, 0, 81, 107
2, 86521, Note_on_c, 0, 81, 0
2, 86521, Note_on_c, 0, 77, 0
2, 86521, Note_on_c, 0, 83, 112
2, 86521, Note_on_c, 0, 79, 112
2, 86551, Note_on_c, 0, 79, 0
2, 86551, Note_on_c, 0, 83, 0
2, 86551, Note_on_c, 0, 84, 115
2, 86551, Note_on_c, 0, 81, 115
2, 86581, Note_on_c, 0, 81, 0
2, 86581, Note_on_c, 0, 84, 0
2, 86581, Note_on_c, 0, 83, 120
2, 86581, Note_on_c, 0, 86, 120
2, 86611, Note_on_c, 0, 86, 0
2, 86611, Note_on_c, 0, 83, 0
2, 86611, Note_on_c, 0, 84, 125
2, 86611, Note_on_c, 0, 88, 125
2, 86641, Note_on_c, 0, 88, 0
2, 86641, Note_on_c, 0, 84, 0
2, 86641, Note_on_c, 0, 86, 108
2, 86641, Note_on_c, 0, 89, 108
2, 86701, Note_on_c, 0, 89, 0
2, 86701, Note_on_c, 0, 86, 0
2, 86881, Note_on_c, 0, 86, 98
2, 86881, Note_on_c, 0, 83, 98
2, 86941, Note_on_c, 0, 83, 0
2, 86941, Note_on_c, 0, 86, 0
2, 87121, Note_on_c, 0, 88, 98
2, 87121, Note_on_c, 0, 84, 98
2, 87181, Note_on_c, 0, 84, 0
2, 87181, Note_on_c, 0, 88, 0
2, 87511, Note_on_c, 0, 72, 103
2, 87541, Note_on_c, 0, 72, 0
2, 87541, Note_on_c, 0, 74, 108
2, 87571, Note_on_c, 0, 74, 0
2, 87571, Note_on_c, 0, 76, 113
2, 87601, Note_on_c, 0, 76, 0
2, 87601, Note_on_c, 0, 77, 119
2, 87631, Note_on_c, 0, 77, 0
2, 87631, Note_on_c, 0, 79, 125
2, 87661, Note_on_c, 0, 79, 0
2, 87661, Note_on_c, 0, 81, 125
2, 87691, Note_on_c, 0, 81, 0
2, 87691, Note_on_c, 0, 83, 125
2, 87721, Note_on_c, 0, 83, 0
2, 87721, Note_on_c, 0, 84, 119
2, 87751, Note_on_c, 0, 84, 0
2, 87991, Note_on_c, 0, 72, 103
2, 87991, Note_on_c, 0, 76, 103
2, 88021, Note_on_c, 0, 76, 0
2, 88021, Note_on_c, 0, 72, 0
2, 88021, Note_on_c, 0, 74, 108
2, 88021, Note_on_c, 0, 77, 108
2, 88051, Note_on_c, 0, 77, 0
2, 88051, Note_on_c, 0, 74, 0
2, 88051, Note_on_c, 0, 76, 113
2, 88051, Note_on_c, 0, 79, 113
2, 88081, Note_on_c, 0, 79, 0
2, 88081, Note_on_c, 0, 76, 0
2, 88081, Note_on_c, 0, 81, 119
2, 88081, Note_on_c, 0, 77, 119
2, 88111, Note_on_c, 0, 77, 0
2, 88111, Note_on_c, 0, 81, 0
2, 88111, Note_on_c, 0, 83, 125
2, 88111, Note_on_c, 0, 79, 125
2, 88141, Note_on_c, 0, 79, 0
2, 88141, Note_on_c, 0, 83, 0
2, 88141, Note_on_c, 0, 81, 125
2, 88141, Note_on_c, 0, 84, 125
2, 88171, Note_on_c, 0, 84, 0
2, 88171, Note_on_c, 0, 81, 0
2, 88171, Note_on_c, 0, 86, 125
2, 88171, Note_on_c, 0, 83, 125
2, 88201, Note_on_c, 0, 83, 0
2, 88201, Note_on_c, 0, 86, 0
2, 88201, Note_on_c, 0, 88, 119
2, 88201, Note_on_c, 0, 84, 119
2, 88231, Note_on_c, 0, 84, 0
2, 88231, Note_on_c, 0, 88, 0
2, 88681, Note_on_c, 0, 86, 98
2, 88681, Note_on_c, 0, 89, 98
2, 88741, Note_on_c, 0, 89, 0
2, 88741, Note_on_c, 0, 86, 0
2, 88921, Note_on_c, 0, 86, 98
2, 88921, Note_on_c, 0, 83, 98
2, 88981, Note_on_c, 0, 83, 0
2, 88981, Note_on_c, 0, 86, 0
2, 89191, Note_on_c, 0, 76, 94
2, 89191, Note_on_c, 0, 72, 94
2, 89221, Note_on_c, 0, 72, 0
2, 89221, Note_on_c, 0, 76, 0
2, 89221, Note_on_c, 0, 74, 98
2, 89221, Note_on_c, 0, 77, 98
2, 89251, Note_on_c, 0, 77, 0
2, 89251, Note_on_c, 0, 74, 0
2, 89251, Note_on_c, 0, 76, 103
2, 89251, Note_on_c, 0, 79, 103
2, 89281, Note_on_c, 0, 79, 0
2, 89281, Note_on_c, 0, 76, 0
2, 89281, Note_on_c, 0, 81, 108
2, 89281, Note_on_c, 0, 77, 108
2, 89311, Note_on_c, 0, 77, 0
2, 89311, Note_on_c, 0, 81, 0
2, 89311, Note_on_c, 0, 79, 114
2, 89311, Note_on_c, 0, 83, 114
2, 89341, Note_on_c, 0, 83, 0
2, 89341, Note_on_c, 0, 79, 0
2, 89341, Note_on_c, 0, 81, 119
2, 89341, Note_on_c, 0, 84, 119
2, 89371, Note_on_c, 0, 84, 0
2, 89371, Note_on_c, 0, 81, 0
2, 89371, Note_on_c, 0, 83, 124
2, 89371, Note_on_c, 0, 86, 124
2, 89401, Note_on_c, 0, 86, 0
2, 89401, Note_on_c, 0, 83, 0
2, 89401, Note_on_c, 0, 88, 108
2, 89401, Note_on_c, 0, 84, 108
2, 89431, Note_on_c, 0, 84, 0
2, 89431, Note_on_c, 0, 88, 0
2, 89461, Note_on_c, 0, 88, 98
2, 89461, Note_on_c, 0, 84, 98
2, 89491, Note_on_c, 0, 84, 0
2, 89491, Note_on_c, 0, 88, 0
2, 89521, Note_on_c, 0, 89, 98
2, 89521, Note_on_c, 0, 86, 98
2, 89521, Control_c, 0, 11, 52
2, 89540, Control_c, 0, 11, 53
2, 89559, Control_c, 0, 11, 54
2, 89578, Control_c, 0, 11, 55
2, 89581, Note_on_c, 0, 86, 0
2, 89581, Note_on_c, 0, 89, 0
2, 89597, Control_c, 0, 11, 56
2, 89617, Control_c, 0, 11, 57
2, 89636, Control_c, 0, 11, 58
2, 89641, Note_on_c, 0, 86, 98
2, 89641, Note_on_c, 0, 89, 98
2, 89655, Control_c, 0, 11, 59
2, 89674, Control_c, 0, 11, 60
2, 89693, Control_c, 0, 11, 61
2, 89701, Note_on_c, 0, 89, 0
2, 89701, Note_on_c, 0, 86, 0
2, 89713, Control_c, 0, 11, 62
2, 89732, Control_c, 0, 11, 62
2, 89751, Control_c, 0, 11, 63
2, 89770, Control_c, 0, 11, 63
2, 89789, Control_c, 0, 11, 64
2, 89809, Control_c, 0, 11, 65
2, 89828, Control_c, 0, 11, 65
2, 89847, Control_c, 0, 11, 66
2, 89866, Control_c, 0, 11, 66
2, 89881, Note_on_c, 0, 86, 98
2, 89881, Note_on_c, 0, 83, 98
2, 89885, Control_c, 0, 11, 67
2, 89905, Control_c, 0, 11, 68
2, 89924, Control_c, 0, 11, 68
2, 89941, Note_on_c, 0, 83, 0
2, 89941, Note_on_c, 0, 86, 0
2, 89943, Control_c, 0, 11, 69
2, 89962, Control_c, 0, 11, 70
2, 89981, Control_c, 0, 11, 70
2, 90001, Control_c, 0, 11, 71
2, 90020, Control_c, 0, 11, 71
2, 90039, Control_c, 0, 11, 72
2, 90058, Control_c, 0, 11, 73
2, 90077, Control_c, 0, 11, 73
2, 90097, Control_c, 0, 11, 74
2, 90116, Control_c, 0, 11, 74
2, 90135, Control_c, 0, 11, 75
2, 90151, Note_on_c, 0, 76, 94
2, 90151, Note_on_c, 0, 72, 94
2, 90154, Control_c, 0, 11, 76
2, 90166, Note_on_c, 0, 72, 0
2, 90166, Note_on_c, 0, 76, 0
2, 90173, Control_c, 0, 11, 76
2, 90181, Note_on_c, 0, 74, 98
2, 90181, Note_on_c, 0, 77, 98
2, 90193, Control_c, 0, 11, 77
2, 90196, Note_on_c, 0, 77, 0
2, 90196, Note_on_c, 0, 74, 0
2, 90211, Note_on_c, 0, 79, 103
2, 90211, Note_on_c, 0, 76, 103
2, 90212, Control_c, 0, 11, 78
2, 90226, Note_on_c, 0, 76, 0
2, 90226, Note_on_c, 0, 79, 0
2, 90231, Control_c, 0, 11, 78
2, 90241, Note_on_c, 0, 77, 108
2, 90241, Note_on_c, 0, 81, 108
2, 90250, Control_c, 0, 11, 79
2, 90256, Note_on_c, 0, 81, 0
2, 90256, Note_on_c, 0, 77, 0
2, 90269, Control_c, 0, 11, 79
2, 90271, Note_on_c, 0, 83, 114
2, 90271, Note_on_c, 0, 79, 114
2, 90286, Note_on_c, 0, 79, 0
2, 90286, Note_on_c, 0, 83, 0
2, 90289, Control_c, 0, 11, 80
2, 90301, Note_on_c, 0, 81, 120
2, 90301, Note_on_c, 0, 84, 120
2, 90308, Control_c, 0, 11, 81
2, 90316, Note_on_c, 0, 84, 0
2, 90316, Note_on_c, 0, 81, 0
2, 90327, Control_c, 0, 11, 81
2, 90331, Note_on_c, 0, 83, 125
2, 90331, Note_on_c, 0, 86, 125
2, 90346, Note_on_c, 0, 86, 0
2, 90346, Note_on_c, 0, 83, 0
2, 90346, Control_c, 0, 11, 82
2, 90361, Note_on_c, 0, 88, 109
2, 90361, Note_on_c, 0, 84, 109
2, 90365, Control_c, 0, 11, 82
2, 90385, Control_c, 0, 11, 83
2, 90391, Note_on_c, 0, 84, 0
2, 90391, Note_on_c, 0, 88, 0
2, 90404, Control_c, 0, 11, 84
2, 90421, Note_on_c, 0, 84, 98
2, 90421, Note_on_c, 0, 88, 98
2, 90423, Control_c, 0, 11, 84
2, 90442, Control_c, 0, 11, 85
2, 90451, Note_on_c, 0, 88, 0
2, 90451, Note_on_c, 0, 84, 0
2, 90461, Control_c, 0, 11, 86
2, 90481, Control_c, 0, 11, 86
2, 90481, Note_on_c, 0, 89, 98
2, 90481, Note_on_c, 0, 86, 98
2, 90721, Note_on_c, 0, 86, 0
2, 90721, Note_on_c, 0, 89, 0
2, 90721, Note_on_c, 0, 83, 98
2, 90721, Note_on_c, 0, 86, 98
2, 90961, Note_on_c, 0, 86, 0
2, 90961, Note_on_c, 0, 83, 0
2, 90961, Control_c, 0, 11, 98
2, 90961, Note_on_c, 0, 84, 88
2, 90979, Control_c, 0, 11, 97
2, 90997, Control_c, 0, 11, 95
2, 91015, Control_c, 0, 11, 93
2, 91033, Control_c, 0, 11, 91
2, 91051, Control_c, 0, 11, 89
2, 91069, Control_c, 0, 11, 87
2, 91321, Note_on_c, 0, 84, 0
2, 91321, Note_on_c, 0, 84, 88
2, 91351, Note_on_c, 0, 84, 0
2, 91381, Note_on_c, 0, 84, 88
2, 91411, Note_on_c, 0, 84, 0
2, 91441, Control_c, 0, 11, 98
2, 91441, Note_on_c, 0, 88, 88
2, 91459, Control_c, 0, 11, 97
2, 91477, Control_c, 0, 11, 95
2, 91495, Control_c, 0, 11, 93
2, 91513, Control_c, 0, 11, 91
2, 91531, Control_c, 0, 11, 89
2, 91549, Control_c, 0, 11, 87
2, 91801, Note_on_c, 0, 88, 0
2, 91801, Note_on_c, 0, 88, 88
2, 91831, Note_on_c, 0, 88, 0
2, 91861, Note_on_c, 0, 88, 88
2, 91891, Note_on_c, 0, 88, 0
2, 91921, Note_on_c, 0, 91, 88
2, 91921, Control_c, 0, 11, 92
2, 91939, Control_c, 0, 11, 90
2, 91957, Control_c, 0, 11, 89
2, 91975, Control_c, 0, 11, 87
2, 92161, Note_on_c, 0, 91, 0
2, 92161, Note_on_c, 0, 88, 88
2, 92221, Note_on_c, 0, 88, 0
2, 92281, Note_on_c, 0, 84, 88
2, 92341, Note_on_c, 0, 84, 0
2, 92401, Note_on_c, 0, 79, 88
2, 92461, Note_on_c, 0, 79, 0
2, 92521, Note_on_c, 0, 76, 88
2, 92581, Note_on_c, 0, 76, 0
2, 92641, Note_on_c, 0, 72, 88
2, 92701, Note_on_c, 0, 72, 0
2, 92761, Note_on_c, 0, 67, 88
2, 92821, Note_on_c, 0, 67, 0
2, 92881, Note_on_c, 0, 72, 88
2, 92977, Note_on_c, 0, 72, 0
2, 93121, Note_on_c, 0, 83, 88
2, 93121, Note_on_c, 0, 86, 88
2, 93217, Note_on_c, 0, 86, 0
2, 93217, Note_on_c, 0, 83, 0
2, 93361, Note_on_c, 0, 84, 88
2, 93361, Note_on_c, 0, 88, 88
2, 93457, Note_on_c, 0, 88, 0
2, 93457, Note_on_c, 0, 84, 0
2, 93601, Note_on_c, 0, 83, 88
2, 93697, Note_on_c, 0, 83, 0
2, 93841, Note_on_c, 0, 84, 88
2, 93937, Note_on_c, 0, 84, 0
2, 94081, Note_on_c, 0, 84, 97
2, 94183, Note_on_c, 0, 84, 0
2, 94321, Note_on_c, 0, 72, 88
2, 94441, Note_on_c, 0, 72, 0
2, 94561, Control_c, 0, 121, 0
2, 94561, End_track
3, 0, Start_track
3, 0, MIDI_port, 0
3, 0, Title_t, "2 Oboi"
3, 0, Program_c, 1, 68
3, 0, Control_c, 1, 10, 72
3, 2, Control_c, 1, 121, 0
3, 7, Program_c, 1, 68
3, 12, Pitch_bend_c, 1, 8192
3, 17, Control_c, 1, 11, 86
3, 22, Control_c, 1, 7, 127
3, 27, Control_c, 1, 91, 54
3, 32, Control_c, 1, 93, 0
3, 37, Control_c, 1, 10, 72
3, 242, Note_on_c, 1, 67, 88
3, 242, Note_on_c, 1, 79, 88
3, 242, Control_c, 1, 11, 68
3, 245, Control_c, 1, 11, 71
3, 249, Control_c, 1, 11, 74
3, 252, Control_c, 1, 11, 77
3, 255, Control_c, 1, 11, 80
3, 259, Control_c, 1, 11, 84
3, 377, Control_c, 1, 11, 86
3, 379, Control_c, 1, 11, 81
3, 381, Control_c, 1, 11, 77
3, 382, Control_c, 1, 11, 74
3, 384, Control_c, 1, 11, 70
3, 386, Control_c, 1, 11, 66
3, 387, Control_c, 1, 11, 63
3, 389, Control_c, 1, 11, 58
3, 390, Control_c, 1, 11, 54
3, 391, Control_c, 1, 11, 50
3, 392, Note_on_c, 1, 79, 0
3, 392, Note_on_c, 1, 67, 0
3, 392, Control_c, 1, 11, 47
3, 5942, Note_on_c, 1, 77, 98
3, 5942, Control_c, 1, 11, 70
3, 5942, Note_on_c, 1, 74, 98
3, 5959, Control_c, 1, 11, 70
3, 5972, Note_on_c, 1, 74, 0
3, 5972, Note_on_c, 1, 77, 0
3, 5977, Control_c, 1, 11, 71
3, 5995, Control_c, 1, 11, 71
3, 6002, Note_on_c, 1, 74, 98
3, 6002, Note_on_c, 1, 77, 98
3, 6013, Control_c, 1, 11, 72
3, 6030, Control_c, 1, 11, 73
3, 6032, Note_on_c, 1, 77, 0
3, 6032, Note_on_c, 1, 74, 0
3, 6048, Control_c, 1, 11, 73
3, 6062, Note_on_c, 1, 74, 98
3, 6062, Note_on_c, 1, 77, 98
3, 6066, Control_c, 1, 11, 74
3, 6084, Control_c, 1, 11, 74
3, 6092, Note_on_c, 1, 77, 0
3, 6092, Note_on_c, 1, 74, 0
3, 6102, Control_c, 1, 11, 75
3, 6119, Control_c, 1, 11, 76
3, 6122, Note_on_c, 1, 77, 98
3, 6122, Note_on_c, 1, 74, 98
3, 6137, Control_c, 1, 11, 76
3, 6152, Note_on_c, 1, 74, 0
3, 6152, Note_on_c, 1, 77, 0
3, 6155, Control_c, 1, 11, 77
3, 6173, Control_c, 1, 11, 78
3, 6182, Note_on_c, 1, 77, 98
3, 6182, Note_on_c, 1, 74, 98
3, 6190, Control_c, 1, 11, 78
3, 6208, Control_c, 1, 11, 79
3, 6212, Note_on_c, 1, 74, 0
3, 6212, Note_on_c, 1, 77, 0
3, 6226, Control_c, 1, 11, 79
3, 6242, Note_on_c, 1, 77, 98
3, 6242, Note_on_c, 1, 74, 98
3, 6244, Control_c, 1, 11, 80
3, 6262, Control_c, 1, 11, 81
3, 6279, Control_c, 1, 11, 81
3, 6297, Control_c, 1, 11, 82
3, 6315, Control_c, 1, 11, 82
3, 6333, Control_c, 1, 11, 83
3, 6350, Control_c, 1, 11, 84
3, 6362, Note_on_c, 1, 74, 0
3, 6362, Note_on_c, 1, 77, 0
3, 6362, Note_on_c, 1, 72, 98
3, 6362, Note_on_c, 1, 76, 98
3, 6368, Control_c, 1, 11, 84
3, 6386, Control_c, 1, 11, 85
3, 6404, Control_c, 1, 11, 86
3, 6407, Note_on_c, 1, 76, 0
3, 6407, Note_on_c, 1, 72, 0
3, 6422, Note_on_c, 1, 76, 88
3, 6422, Control_c, 1, 11, 86
3, 6422, Note_on_c, 1, 72, 88
3, 6452, Note_on_c, 1, 72, 0
3, 6452, Note_on_c, 1, 76, 0
3, 6482, Note_on_c, 1, 76, 88
3, 6482, Note_on_c, 1, 72, 88
3, 6532, Note_on_c, 1, 72, 0
3, 6532, Note_on_c, 1, 76, 0
3, 6542, Note_on_c, 1, 72, 88
3, 6542, Note_on_c, 1, 76, 88
3, 6592, Note_on_c, 1, 76, 0
3, 6592, Note_on_c, 1, 72, 0
3, 6602, Note_on_c, 1, 72, 88
3, 6602, Note_on_c, 1, 76, 88
3, 6652, Note_on_c, 1, 76, 0
3, 6652, Note_on_c, 1, 72, 0
3, 6662, Note_on_c, 1, 72, 88
3, 6662, Note_on_c, 1, 76, 88
3, 6712, Note_on_c, 1, 76, 0
3, 6712, Note_on_c, 1, 72, 0
3, 6722, Note_on_c, 1, 74, 88
3, 6722, Note_on_c, 1, 72, 88
3, 6782, Note_on_c, 1, 72, 0
3, 6782, Note_on_c, 1, 74, 0
3, 6842, Note_on_c, 1, 81, 88
3, 6842, Note_on_c, 1, 77, 88
3, 6902, Note_on_c, 1, 77, 0
3, 6902, Note_on_c, 1, 81, 0
3, 6962, Note_on_c, 1, 76, 88
3, 6962, Note_on_c, 1, 72, 88
3, 7022, Note_on_c, 1, 72, 0
3, 7022, Note_on_c, 1, 76, 0
3, 7082, Note_on_c, 1, 74, 88
3, 7082, Note_on_c, 1, 71, 88
3, 7142, Note_on_c, 1, 71, 0
3, 7142, Note_on_c, 1, 74, 0
3, 7202, Note_on_c, 1, 67, 88
3, 7202, Note_on_c, 1, 72, 88
3, 7202, Control_c, 1, 11, 77
3, 7442, Note_on_c, 1, 72, 0
3, 7442, Note_on_c, 1, 67, 0
3, 7442, Note_on_c, 1, 74, 88
3, 7442, Note_on_c, 1, 71, 88
3, 7682, Note_on_c, 1, 71, 0
3, 7682, Note_on_c, 1, 74, 0
3, 7682, Note_on_c, 1, 76, 88
3, 7682, Note_on_c, 1, 72, 88
3, 7802, Note_on_c, 1, 72, 0
3, 7802, Note_on_c, 1, 76, 0
3, 8162, Note_on_c, 1, 64, 88
3, 8162, Note_on_c, 1, 72, 88
3, 8162, Control_c, 1, 11, 77
3, 8402, Note_on_c, 1, 72, 0
3, 8402, Note_on_c, 1, 64, 0
3, 8402, Note_on_c, 1, 74, 88
3, 8402, Note_on_c, 1, 67, 88
3, 8642, Note_on_c, 1, 67, 0
3, 8642, Note_on_c, 1, 74, 0
3, 8642, Note_on_c, 1, 76, 88
3, 8642, Note_on_c, 1, 72, 88
3, 8762, Note_on_c, 1, 72, 0
3, 8762, Note_on_c, 1, 76, 0
3, 8942, Note_on_c, 1, 65, 88
3, 8942, Note_on_c, 1, 71, 88
3, 9002, Note_on_c, 1, 71, 0
3, 9002, Note_on_c, 1, 65, 0
3, 9002, Note_on_c, 1, 65, 88
3, 9002, Note_on_c, 1, 71, 88
3, 9062, Note_on_c, 1, 71, 0
3, 9062, Note_on_c, 1, 65, 0
3, 9062, Note_on_c, 1, 71, 88
3, 9062, Note_on_c, 1, 65, 88
3, 9122, Note_on_c, 1, 65, 0
3, 9122, Note_on_c, 1, 71, 0
3, 9122, Note_on_c, 1, 72, 88
3, 9122, Note_on_c, 1, 64, 88
3, 9182, Note_on_c, 1, 64, 0
3, 9182, Note_on_c, 1, 72, 0
3, 9242, Note_on_c, 1, 76, 88
3, 9242, Note_on_c, 1, 84, 88
3, 9602, Note_on_c, 1, 76, 0
3, 9602, Note_on_c, 1, 74, 88
3, 9722, Note_on_c, 1, 84, 0
3, 9722, Note_on_c, 1, 83, 88
3, 10082, Note_on_c, 1, 74, 0
3, 10082, Note_on_c, 1, 72, 88
3, 10202, Note_on_c, 1, 83, 0
3, 10202, Note_on_c, 1, 81, 88
3, 10322, Note_on_c, 1, 72, 0
3, 10322, Note_on_c, 1, 71, 88
3, 10442, Note_on_c, 1, 81, 0
3, 10442, Note_on_c, 1, 79, 88
3, 10562, Note_on_c, 1, 79, 0
3, 10562, Note_on_c, 1, 71, 0
3, 10562, Note_on_c, 1, 76, 88
3, 10562, Note_on_c, 1, 81, 88
3, 10682, Note_on_c, 1, 81, 0
3, 10682, Note_on_c, 1, 76, 0
3, 10802, Note_on_c, 1, 79, 88
3, 10802, Note_on_c, 1, 76, 88
3, 10922, Note_on_c, 1, 76, 0
3, 10922, Note_on_c, 1, 79, 0
3, 11042, Note_on_c, 1, 78, 88
3, 11042, Note_on_c, 1, 74, 88
3, 11162, Note_on_c, 1, 74, 0
3, 11162, Note_on_c, 1, 78, 0
3, 11402, Note_on_c, 1, 78, 88
3, 11402, Note_on_c, 1, 81, 88
3, 11522, Note_on_c, 1, 81, 0
3, 11522, Note_on_c, 1, 78, 0
3, 11522, Note_on_c, 1, 79, 88
3, 11522, Note_on_c, 1, 83, 88
3, 12002, Note_on_c, 1, 83, 0
3, 12002, Note_on_c, 1, 79, 0
3, 12002, Note_on_c, 1, 81, 88
3, 12002, Note_on_c, 1, 78, 88
3, 12032, Note_on_c, 1, 78, 0
3, 12032, Note_on_c, 1, 81, 0
3, 12062, Note_on_c, 1, 62, 88
3, 12062, Note_on_c, 1, 74, 88
3, 12092, Note_on_c, 1, 74, 0
3, 12092, Note_on_c, 1, 62, 0
3, 12122, Note_on_c, 1, 78, 88
3, 12122, Note_on_c, 1, 66, 88
3, 12152, Note_on_c, 1, 66, 0
3, 12152, Note_on_c, 1, 78, 0
3, 12182, Note_on_c, 1, 79, 88
3, 12182, Note_on_c, 1, 67, 88
3, 12212, Note_on_c, 1, 67, 0
3, 12212, Note_on_c, 1, 79, 0
3, 12242, Note_on_c, 1, 81, 88
3, 12242, Note_on_c, 1, 69, 88
3, 12272, Note_on_c, 1, 69, 0
3, 12272, Note_on_c, 1, 81, 0
3, 12302, Note_on_c, 1, 83, 88
3, 12302, Note_on_c, 1, 71, 88
3, 12332, Note_on_c, 1, 71, 0
3, 12332, Note_on_c, 1, 83, 0
3, 12362, Note_on_c, 1, 84, 88
3, 12362, Note_on_c, 1, 72, 88
3, 12542, Note_on_c, 1, 72, 0
3, 12542, Note_on_c, 1, 84, 0
3, 12542, Note_on_c, 1, 83, 88
3, 12542, Note_on_c, 1, 71, 88
3, 12592, Note_on_c, 1, 71, 0
3, 12592, Note_on_c, 1, 83, 0
3, 12602, Note_on_c, 1, 74, 88
3, 12602, Note_on_c, 1, 86, 88
3, 12632, Note_on_c, 1, 86, 0
3, 12632, Note_on_c, 1, 74, 0
3, 12662, Note_on_c, 1, 71, 88
3, 12662, Note_on_c, 1, 83, 88
3, 12692, Note_on_c, 1, 83, 0
3, 12692, Note_on_c, 1, 71, 0
3, 12722, Note_on_c, 1, 67, 88
3, 12722, Note_on_c, 1, 79, 88
3, 12752, Note_on_c, 1, 79, 0
3, 12752, Note_on_c, 1, 67, 0
3, 12782, Note_on_c, 1, 79, 88
3, 12782, Note_on_c, 1, 67, 88
3, 12812, Note_on_c, 1, 67, 0
3, 12812, Note_on_c, 1, 79, 0
3, 12842, Note_on_c, 1, 83, 88
3, 12842, Note_on_c, 1, 71, 88
3, 12872, Note_on_c, 1, 71, 0
3, 12872, Note_on_c, 1, 83, 0
3, 12902, Note_on_c, 1, 67, 88
3, 12902, Note_on_c, 1, 79, 88
3, 12932, Note_on_c, 1, 79, 0
3, 12932, Note_on_c, 1, 67, 0
3, 12962, Note_on_c, 1, 62, 88
3, 12962, Note_on_c, 1, 74, 88
3, 13082, Note_on_c, 1, 74, 0
3, 13082, Note_on_c, 1, 62, 0
3, 13442, Control_c, 1, 11, 37
3, 13442, Note_on_c, 1, 71, 98
3, 13466, Control_c, 1, 11, 39
3, 13490, Control_c, 1, 11, 41
3, 13514, Control_c, 1, 11, 43
3, 13538, Control_c, 1, 11, 45
3, 13562, Control_c, 1, 11, 47
3, 13682, Note_on_c, 1, 71, 0
3, 13682, Note_on_c, 1, 72, 98
3, 13922, Note_on_c, 1, 72, 0
3, 13922, Note_on_c, 1, 74, 98
3, 14042, Note_on_c, 1, 74, 0
3, 14342, Note_on_c, 1, 69, 98
3, 14402, Note_on_c, 1, 69, 0
3, 14402, Note_on_c, 1, 71, 98
3, 14462, Note_on_c, 1, 71, 0
3, 14582, Note_on_c, 1, 71, 98
3, 14642, Note_on_c, 1, 71, 0
3, 14642, Note_on_c, 1, 72, 98
3, 14702, Note_on_c, 1, 72, 0
3, 14822, Note_on_c, 1, 72, 98
3, 14882, Note_on_c, 1, 72, 0
3, 14882, Note_on_c, 1, 74, 98
3, 14942, Note_on_c, 1, 74, 0
3, 15302, Note_on_c, 1, 69, 98
3, 15362, Note_on_c, 1, 69, 0
3, 15362, Note_on_c, 1, 71, 98
3, 15422, Note_on_c, 1, 71, 0
3, 15542, Note_on_c, 1, 71, 98
3, 15602, Note_on_c, 1, 71, 0
3, 15602, Control_c, 1, 11, 47
3, 15602, Note_on_c, 1, 72, 98
3, 15632, Control_c, 1, 11, 48
3, 15662, Note_on_c, 1, 72, 0
3, 15662, Control_c, 1, 11, 49
3, 15692, Control_c, 1, 11, 50
3, 15722, Control_c, 1, 11, 51
3, 15752, Control_c, 1, 11, 52
3, 15782, Control_c, 1, 11, 53
3, 15782, Note_on_c, 1, 72, 98
3, 15812, Control_c, 1, 11, 54
3, 15842, Note_on_c, 1, 72, 0
3, 15842, Control_c, 1, 11, 55
3, 15842, Note_on_c, 1, 74, 98
3, 15872, Control_c, 1, 11, 56
3, 15902, Note_on_c, 1, 74, 0
3, 15902, Control_c, 1, 11, 57
3, 15932, Control_c, 1, 11, 58
3, 15962, Control_c, 1, 11, 59
3, 15992, Control_c, 1, 11, 60
3, 16022, Control_c, 1, 11, 61
3, 16022, Note_on_c, 1, 74, 98
3, 16052, Control_c, 1, 11, 62
3, 16082, Note_on_c, 1, 74, 0
3, 16082, Control_c, 1, 11, 62
3, 16082, Note_on_c, 1, 76, 98
3, 16112, Control_c, 1, 11, 63
3, 16142, Control_c, 1, 11, 63
3, 16172, Control_c, 1, 11, 64
3, 16202, Note_on_c, 1, 76, 0
3, 16202, Control_c, 1, 11, 65
3, 16232, Control_c, 1, 11, 65
3, 16262, Control_c, 1, 11, 66
3, 16262, Note_on_c, 1, 76, 98
3, 16292, Control_c, 1, 11, 66
3, 16322, Note_on_c, 1, 76, 0
3, 16322, Control_c, 1, 11, 67
3, 16322, Note_on_c, 1, 77, 98
3, 16352, Control_c, 1, 11, 68
3, 16382, Control_c, 1, 11, 68
3, 16412, Control_c, 1, 11, 69
3, 16442, Note_on_c, 1, 77, 0
3, 16442, Control_c, 1, 11, 70
3, 16472, Control_c, 1, 11, 70
3, 16502, Control_c, 1, 11, 71
3, 16502, Note_on_c, 1, 71, 98
3, 16532, Control_c, 1, 11, 71
3, 16562, Note_on_c, 1, 71, 0
3, 16562, Note_on_c, 1, 72, 98
3, 16562, Control_c, 1, 11, 72
3, 16592, Control_c, 1, 11, 73
3, 16622, Control_c, 1, 11, 73
3, 16652, Control_c, 1, 11, 74
3, 16682, Note_on_c, 1, 72, 0
3, 16682, Control_c, 1, 11, 74
3, 16712, Control_c, 1, 11, 75
3, 16742, Control_c, 1, 11, 76
3, 16742, Note_on_c, 1, 76, 98
3, 16772, Control_c, 1, 11, 76
3, 16802, Note_on_c, 1, 76, 0
3, 16802, Note_on_c, 1, 77, 88
3, 16802, Control_c, 1, 11, 77
3, 16802, Note_on_c, 1, 71, 88
3, 16802, Control_c, 1, 11, 89
3, 16816, Control_c, 1, 11, 86
3, 16831, Control_c, 1, 11, 83
3, 16846, Control_c, 1, 11, 80
3, 16861, Control_c, 1, 11, 77
3, 17042, Note_on_c, 1, 71, 0
3, 17042, Note_on_c, 1, 77, 0
3, 17042, Note_on_c, 1, 80, 88
3, 17042, Control_c, 1, 11, 89
3, 17042, Note_on_c, 1, 71, 88
3, 17059, Control_c, 1, 11, 87
3, 17077, Control_c, 1, 11, 86
3, 17095, Control_c, 1, 11, 84
3, 17113, Control_c, 1, 11, 82
3, 17131, Control_c, 1, 11, 80
3, 17149, Control_c, 1, 11, 78
3, 17282, Note_on_c, 1, 71, 0
3, 17282, Note_on_c, 1, 80, 0
3, 17282, Note_on_c, 1, 81, 88
3, 17282, Control_c, 1, 11, 89
3, 17282, Note_on_c, 1, 76, 88
3, 17299, Control_c, 1, 11, 87
3, 17317, Control_c, 1, 11, 86
3, 17335, Control_c, 1, 11, 84
3, 17353, Control_c, 1, 11, 82
3, 17371, Control_c, 1, 11, 80
3, 17389, Control_c, 1, 11, 78
3, 17522, Note_on_c, 1, 76, 0
3, 17522, Note_on_c, 1, 81, 0
3, 17522, Note_on_c, 1, 82, 88
3, 17522, Note_on_c, 1, 76, 88
3, 17522, Control_c, 1, 11, 89
3, 17539, Control_c, 1, 11, 87
3, 17557, Control_c, 1, 11, 86
3, 17575, Control_c, 1, 11, 84
3, 17593, Control_c, 1, 11, 82
3, 17611, Control_c, 1, 11, 80
3, 17629, Control_c, 1, 11, 78
3, 17762, Note_on_c, 1, 76, 0
3, 17762, Note_on_c, 1, 82, 0
3, 17762, Note_on_c, 1, 75, 88
3, 17762, Note_on_c, 1, 83, 88
3, 17822, Note_on_c, 1, 83, 0
3, 17822, Note_on_c, 1, 75, 0
3, 17882, Note_on_c, 1, 75, 88
3, 17882, Note_on_c, 1, 78, 88
3, 17882, Control_c, 1, 11, 86
3, 18122, Note_on_c, 1, 78, 0
3, 18122, Note_on_c, 1, 75, 0
3, 18122, Note_on_c, 1, 74, 88
3, 18122, Note_on_c, 1, 78, 88
3, 18242, Note_on_c, 1, 78, 0
3, 18242, Note_on_c, 1, 79, 88
3, 18362, Note_on_c, 1, 79, 0
3, 18362, Note_on_c, 1, 74, 0
3, 18362, Note_on_c, 1, 76, 88
3, 18362, Note_on_c, 1, 72, 88
3, 18482, Note_on_c, 1, 72, 0
3, 18482, Note_on_c, 1, 76, 0
3, 18482, Note_on_c, 1, 71, 88
3, 18482, Note_on_c, 1, 74, 88
3, 18602, Note_on_c, 1, 74, 0
3, 18602, Note_on_c, 1, 71, 0
3, 18602, Note_on_c, 1, 69, 88
3, 18602, Note_on_c, 1, 72, 88
3, 18722, Note_on_c, 1, 72, 0
3, 18722, Note_on_c, 1, 69, 0
3, 18722, Note_on_c, 1, 67, 88
3, 18722, Note_on_c, 1, 71, 88
3, 18782, Note_on_c, 1, 71, 0
3, 18782, Note_on_c, 1, 67, 0
3, 19022, Control_c, 1, 11, 98
3, 19022, Note_on_c, 1, 84, 88
3, 19022, Note_on_c, 1, 76, 88
3, 19040, Control_c, 1, 11, 97
3, 19058, Control_c, 1, 11, 95
3, 19076, Control_c, 1, 11, 93
3, 19094, Control_c, 1, 11, 91
3, 19112, Control_c, 1, 11, 89
3, 19127, Note_on_c, 1, 76, 0
3, 19127, Note_on_c, 1, 84, 0
3, 19130, Control_c, 1, 11, 87
3, 19142, Note_on_c, 1, 84, 88
3, 19142, Note_on_c, 1, 76, 88
3, 19192, Note_on_c, 1, 76, 0
3, 19192, Note_on_c, 1, 84, 0
3, 19202, Note_on_c, 1, 83, 88
3, 19202, Note_on_c, 1, 74, 88
3, 19262, Note_on_c, 1, 74, 0
3, 19262, Note_on_c, 1, 83, 0
3, 19502, Note_on_c, 1, 78, 88
3, 19502, Control_c, 1, 11, 98
3, 19502, Note_on_c, 1, 72, 88
3, 19520, Control_c, 1, 11, 97
3, 19538, Control_c, 1, 11, 95
3, 19556, Control_c, 1, 11, 93
3, 19574, Control_c, 1, 11, 91
3, 19592, Control_c, 1, 11, 89
3, 19607, Note_on_c, 1, 72, 0
3, 19607, Note_on_c, 1, 78, 0
3, 19610, Control_c, 1, 11, 87
3, 19622, Note_on_c, 1, 72, 88
3, 19622, Note_on_c, 1, 78, 88
3, 19672, Note_on_c, 1, 78, 0
3, 19672, Note_on_c, 1, 72, 0
3, 19682, Note_on_c, 1, 71, 88
3, 19682, Note_on_c, 1, 79, 88
3, 19732, Note_on_c, 1, 79, 0
3, 19732, Note_on_c, 1, 71, 0
3, 19982, Control_c, 1, 11, 98
3, 19982, Note_on_c, 1, 76, 88
3, 19982, Note_on_c, 1, 84, 88
3, 20000, Control_c, 1, 11, 97
3, 20018, Control_c, 1, 11, 95
3, 20036, Control_c, 1, 11, 93
3, 20054, Control_c, 1, 11, 91
3, 20072, Control_c, 1, 11, 89
3, 20087, Note_on_c, 1, 84, 0
3, 20087, Note_on_c, 1, 76, 0
3, 20090, Control_c, 1, 11, 87
3, 20102, Note_on_c, 1, 84, 88
3, 20102, Note_on_c, 1, 76, 88
3, 20152, Note_on_c, 1, 76, 0
3, 20152, Note_on_c, 1, 84, 0
3, 20162, Note_on_c, 1, 83, 88
3, 20162, Note_on_c, 1, 74, 88
3, 20222, Note_on_c, 1, 74, 0
3, 20222, Note_on_c, 1, 83, 0
3, 20462, Control_c, 1, 11, 98
3, 20462, Note_on_c, 1, 72, 88
3, 20462, Note_on_c, 1, 78, 88
3, 20480, Control_c, 1, 11, 97
3, 20498, Control_c, 1, 11, 95
3, 20516, Control_c, 1, 11, 93
3, 20534, Control_c, 1, 11, 91
3, 20552, Control_c, 1, 11, 89
3, 20567, Note_on_c, 1, 78, 0
3, 20567, Note_on_c, 1, 72, 0
3, 20570, Control_c, 1, 11, 87
3, 20582, Note_on_c, 1, 72, 88
3, 20582, Note_on_c, 1, 78, 88
3, 20632, Note_on_c, 1, 78, 0
3, 20632, Note_on_c, 1, 72, 0
3, 20642, Note_on_c, 1, 71, 88
3, 20642, Note_on_c, 1, 79, 88
3, 20642, Control_c, 1, 11, 98
3, 20659, Control_c, 1, 11, 97
3, 20677, Control_c, 1, 11, 95
3, 20695, Control_c, 1, 11, 93
3, 20713, Control_c, 1, 11, 91
3, 20731, Control_c, 1, 11, 89
3, 20749, Control_c, 1, 11, 87
3, 20987, Note_on_c, 1, 79, 0
3, 20987, Note_on_c, 1, 71, 0
3, 21002, Note_on_c, 1, 71, 88
3, 21002, Note_on_c, 1, 79, 88
3, 21032, Note_on_c, 1, 79, 0
3, 21032, Note_on_c, 1, 71, 0
3, 21062, Note_on_c, 1, 79, 88
3, 21062, Note_on_c, 1, 71, 88
3, 21092, Note_on_c, 1, 71, 0
3, 21092, Note_on_c, 1, 79, 0
3, 21122, Note_on_c, 1, 72, 88
3, 21122, Note_on_c, 1, 79, 88
3, 21122, Control_c, 1, 11, 98
3, 21139, Control_c, 1, 11, 97
3, 21157, Control_c, 1, 11, 95
3, 21175, Control_c, 1, 11, 93
3, 21193, Control_c, 1, 11, 91
3, 21211, Control_c, 1, 11, 89
3, 21229, Control_c, 1, 11, 87
3, 21467, Note_on_c, 1, 79, 0
3, 21467, Note_on_c, 1, 72, 0
3, 21482, Note_on_c, 1, 79, 88
3, 21482, Note_on_c, 1, 72, 88
3, 21512, Note_on_c, 1, 72, 0
3, 21512, Note_on_c, 1, 79, 0
3, 21542, Note_on_c, 1, 72, 88
3, 21542, Note_on_c, 1, 79, 88
3, 21572, Note_on_c, 1, 79, 0
3, 21572, Note_on_c, 1, 72, 0
3, 21602, Note_on_c, 1, 79, 88
3, 21602, Note_on_c, 1, 74, 88
3, 21602, Control_c, 1, 11, 98
3, 21619, Control_c, 1, 11, 97
3, 21637, Control_c, 1, 11, 95
3, 21655, Control_c, 1, 11, 93
3, 21673, Control_c, 1, 11, 91
3, 21691, Control_c, 1, 11, 89
3, 21709, Control_c, 1, 11, 87
3, 21947, Note_on_c, 1, 74, 0
3, 21947, Note_on_c, 1, 79, 0
3, 21962, Note_on_c, 1, 79, 88
3, 21962, Note_on_c, 1, 74, 88
3, 21992, Note_on_c, 1, 74, 0
3, 21992, Note_on_c, 1, 79, 0
3, 22022, Note_on_c, 1, 79, 88
3, 22022, Note_on_c, 1, 74, 88
3, 22052, Note_on_c, 1, 74, 0
3, 22052, Note_on_c, 1, 79, 0
3, 22082, Note_on_c, 1, 76, 88
3, 22082, Note_on_c, 1, 79, 88
3, 22082, Control_c, 1, 11, 98
3, 22099, Control_c, 1, 11, 97
3, 22117, Control_c, 1, 11, 95
3, 22135, Control_c, 1, 11, 93
3, 22153, Control_c, 1, 11, 91
3, 22171, Control_c, 1, 11, 89
3, 22189, Control_c, 1, 11, 87
3, 22427, Note_on_c, 1, 79, 0
3, 22427, Note_on_c, 1, 76, 0
3, 22442, Note_on_c, 1, 79, 88
3, 22442, Note_on_c, 1, 76, 88
3, 22472, Note_on_c, 1, 76, 0
3, 22472, Note_on_c, 1, 79, 0
3, 22502, Note_on_c, 1, 79, 88
3, 22502, Note_on_c, 1, 76, 88
3, 22532, Note_on_c, 1, 76, 0
3, 22532, Note_on_c, 1, 79, 0
3, 22562, Note_on_c, 1, 79, 88
3, 22562, Note_on_c, 1, 77, 88
3, 22562, Control_c, 1, 11, 98
3, 22579, Control_c, 1, 11, 97
3, 22597, Control_c, 1, 11, 95
3, 22615, Control_c, 1, 11, 93
3, 22633, Control_c, 1, 11, 91
3, 22651, Control_c, 1, 11, 89
3, 22669, Control_c, 1, 11, 87
3, 22742, Note_on_c, 1, 77, 0
3, 22742, Note_on_c, 1, 79, 0
3, 22742, Note_on_c, 1, 76, 88
3, 22742, Note_on_c, 1, 79, 88
3, 22787, Note_on_c, 1, 79, 0
3, 22787, Note_on_c, 1, 76, 0
3, 22802, Control_c, 1, 11, 98
3, 22802, Note_on_c, 1, 77, 88
3, 22802, Note_on_c, 1, 79, 88
3, 22819, Control_c, 1, 11, 97
3, 22837, Control_c, 1, 11, 95
3, 22855, Control_c, 1, 11, 93
3, 22873, Control_c, 1, 11, 91
3, 22891, Control_c, 1, 11, 89
3, 22909, Control_c, 1, 11, 87
3, 22982, Note_on_c, 1, 79, 0
3, 22982, Note_on_c, 1, 77, 0
3, 22982, Note_on_c, 1, 76, 88
3, 22982, Note_on_c, 1, 79, 88
3, 23027, Note_on_c, 1, 79, 0
3, 23027, Note_on_c, 1, 76, 0
3, 23042, Note_on_c, 1, 77, 88
3, 23042, Control_c, 1, 11, 77
3, 23042, Note_on_c, 1, 79, 88
3, 23087, Note_on_c, 1, 79, 0
3, 23087, Note_on_c, 1, 77, 0
3, 27542, Note_on_c, 1, 77, 98
3, 27542, Note_on_c, 1, 74, 98
3, 27542, Control_c, 1, 11, 70
3, 27559, Control_c, 1, 11, 70
3, 27572, Note_on_c, 1, 74, 0
3, 27572, Note_on_c, 1, 77, 0
3, 27577, Control_c, 1, 11, 71
3, 27595, Control_c, 1, 11, 71
3, 27602, Note_on_c, 1, 74, 98
3, 27602, Note_on_c, 1, 77, 98
3, 27613, Control_c, 1, 11, 72
3, 27630, Control_c, 1, 11, 73
3, 27632, Note_on_c, 1, 77, 0
3, 27632, Note_on_c, 1, 74, 0
3, 27648, Control_c, 1, 11, 73
3, 27662, Note_on_c, 1, 77, 98
3, 27662, Note_on_c, 1, 74, 98
3, 27666, Control_c, 1, 11, 74
3, 27684, Control_c, 1, 11, 74
3, 27692, Note_on_c, 1, 74, 0
3, 27692, Note_on_c, 1, 77, 0
3, 27702, Control_c, 1, 11, 75
3, 27719, Control_c, 1, 11, 76
3, 27722, Note_on_c, 1, 77, 98
3, 27722, Note_on_c, 1, 74, 98
3, 27737, Control_c, 1, 11, 76
3, 27752, Note_on_c, 1, 74, 0
3, 27752, Note_on_c, 1, 77, 0
3, 27755, Control_c, 1, 11, 77
3, 27773, Control_c, 1, 11, 78
3, 27782, Note_on_c, 1, 77, 98
3, 27782, Note_on_c, 1, 74, 98
3, 27790, Control_c, 1, 11, 78
3, 27808, Control_c, 1, 11, 79
3, 27812, Note_on_c, 1, 74, 0
3, 27812, Note_on_c, 1, 77, 0
3, 27826, Control_c, 1, 11, 79
3, 27842, Note_on_c, 1, 74, 98
3, 27842, Note_on_c, 1, 77, 98
3, 27844, Control_c, 1, 11, 80
3, 27862, Control_c, 1, 11, 81
3, 27879, Control_c, 1, 11, 81
3, 27897, Control_c, 1, 11, 82
3, 27915, Control_c, 1, 11, 82
3, 27933, Control_c, 1, 11, 83
3, 27950, Control_c, 1, 11, 84
3, 27962, Note_on_c, 1, 77, 0
3, 27962, Note_on_c, 1, 74, 0
3, 27962, Note_on_c, 1, 72, 98
3, 27962, Note_on_c, 1, 76, 98
3, 27968, Control_c, 1, 11, 84
3, 27986, Control_c, 1, 11, 85
3, 28004, Control_c, 1, 11, 86
3, 28007, Note_on_c, 1, 76, 0
3, 28007, Note_on_c, 1, 72, 0
3, 28022, Control_c, 1, 11, 86
3, 28022, Note_on_c, 1, 72, 88
3, 28022, Note_on_c, 1, 76, 88
3, 28052, Note_on_c, 1, 76, 0
3, 28052, Note_on_c, 1, 72, 0
3, 28082, Note_on_c, 1, 72, 88
3, 28082, Note_on_c, 1, 76, 88
3, 28132, Note_on_c, 1, 76, 0
3, 28132, Note_on_c, 1, 72, 0
3, 28142, Note_on_c, 1, 72, 88
3, 28142, Note_on_c, 1, 76, 88
3, 28192, Note_on_c, 1, 76, 0
3, 28192, Note_on_c, 1, 72, 0
3, 28202, Note_on_c, 1, 76, 88
3, 28202, Note_on_c, 1, 72, 88
3, 28252, Note_on_c, 1, 72, 0
3, 28252, Note_on_c, 1, 76, 0
3, 28262, Note_on_c, 1, 72, 88
3, 28262, Note_on_c, 1, 76, 88
3, 28312, Note_on_c, 1, 76, 0
3, 28312, Note_on_c, 1, 72, 0
3, 28322, Note_on_c, 1, 72, 88
3, 28322, Note_on_c, 1, 74, 88
3, 28382, Note_on_c, 1, 74, 0
3, 28382, Note_on_c, 1, 72, 0
3, 28442, Note_on_c, 1, 81, 88
3, 28442, Note_on_c, 1, 77, 88
3, 28502, Note_on_c, 1, 77, 0
3, 28502, Note_on_c, 1, 81, 0
3, 28562, Note_on_c, 1, 72, 88
3, 28562, Note_on_c, 1, 76, 88
3, 28622, Note_on_c, 1, 76, 0
3, 28622, Note_on_c, 1, 72, 0
3, 28682, Note_on_c, 1, 71, 88
3, 28682, Note_on_c, 1, 74, 88
3, 28742, Note_on_c, 1, 74, 0
3, 28742, Note_on_c, 1, 71, 0
3, 28802, Note_on_c, 1, 72, 88
3, 28802, Note_on_c, 1, 67, 88
3, 28802, Control_c, 1, 11, 77
3, 29042, Note_on_c, 1, 67, 0
3, 29042, Note_on_c, 1, 72, 0
3, 29042, Note_on_c, 1, 74, 88
3, 29042, Note_on_c, 1, 71, 88
3, 29282, Note_on_c, 1, 71, 0
3, 29282, Note_on_c, 1, 74, 0
3, 29282, Note_on_c, 1, 76, 88
3, 29282, Note_on_c, 1, 72, 88
3, 29402, Note_on_c, 1, 72, 0
3, 29402, Note_on_c, 1, 76, 0
3, 29762, Note_on_c, 1, 64, 88
3, 29762, Note_on_c, 1, 72, 88
3, 29762, Control_c, 1, 11, 77
3, 30002, Note_on_c, 1, 72, 0
3, 30002, Note_on_c, 1, 64, 0
3, 30002, Note_on_c, 1, 67, 88
3, 30002, Note_on_c, 1, 74, 88
3, 30242, Note_on_c, 1, 74, 0
3, 30242, Note_on_c, 1, 67, 0
3, 30242, Note_on_c, 1, 76, 88
3, 30242, Note_on_c, 1, 72, 88
3, 30362, Note_on_c, 1, 72, 0
3, 30362, Note_on_c, 1, 76, 0
3, 30542, Note_on_c, 1, 71, 88
3, 30542, Note_on_c, 1, 65, 88
3, 30602, Note_on_c, 1, 65, 0
3, 30602, Note_on_c, 1, 71, 0
3, 30602, Note_on_c, 1, 65, 88
3, 30602, Note_on_c, 1, 71, 88
3, 30662, Note_on_c, 1, 71, 0
3, 30662, Note_on_c, 1, 65, 0
3, 30662, Note_on_c, 1, 65, 88
3, 30662, Note_on_c, 1, 71, 88
3, 30722, Note_on_c, 1, 71, 0
3, 30722, Note_on_c, 1, 65, 0
3, 30722, Note_on_c, 1, 64, 88
3, 30722, Note_on_c, 1, 72, 88
3, 30782, Note_on_c, 1, 72, 0
3, 30782, Note_on_c, 1, 64, 0
3, 30842, Note_on_c, 1, 84, 88
3, 30842, Note_on_c, 1, 76, 88
3, 31202, Note_on_c, 1, 76, 0
3, 31202, Note_on_c, 1, 74, 88
3, 31322, Note_on_c, 1, 84, 0
3, 31322, Note_on_c, 1, 83, 88
3, 31682, Note_on_c, 1, 74, 0
3, 31682, Note_on_c, 1, 72, 88
3, 31802, Note_on_c, 1, 83, 0
3, 31802, Note_on_c, 1, 81, 88
3, 31922, Note_on_c, 1, 72, 0
3, 31922, Note_on_c, 1, 71, 88
3, 32042, Note_on_c, 1, 81, 0
3, 32042, Note_on_c, 1, 79, 88
3, 32162, Note_on_c, 1, 79, 0
3, 32162, Note_on_c, 1, 71, 0
3, 32162, Note_on_c, 1, 81, 88
3, 32162, Note_on_c, 1, 76, 88
3, 32282, Note_on_c, 1, 76, 0
3, 32282, Note_on_c, 1, 81, 0
3, 32402, Note_on_c, 1, 76, 88
3, 32402, Note_on_c, 1, 79, 88
3, 32522, Note_on_c, 1, 79, 0
3, 32522, Note_on_c, 1, 76, 0
3, 32642, Note_on_c, 1, 78, 88
3, 32642, Note_on_c, 1, 74, 88
3, 32762, Note_on_c, 1, 74, 0
3, 32762, Note_on_c, 1, 78, 0
3, 33002, Note_on_c, 1, 78, 88
3, 33002, Note_on_c, 1, 81, 88
3, 33122, Note_on_c, 1, 81, 0
3, 33122, Note_on_c, 1, 78, 0
3, 33122, Note_on_c, 1, 83, 88
3, 33122, Note_on_c, 1, 79, 88
3, 33602, Note_on_c, 1, 79, 0
3, 33602, Note_on_c, 1, 83, 0
3, 33602, Note_on_c, 1, 81, 88
3, 33602, Note_on_c, 1, 78, 88
3, 33632, Note_on_c, 1, 78, 0
3, 33632, Note_on_c, 1, 81, 0
3, 33662, Note_on_c, 1, 74, 88
3, 33662, Note_on_c, 1, 62, 88
3, 33692, Note_on_c, 1, 62, 0
3, 33692, Note_on_c, 1, 74, 0
3, 33722, Note_on_c, 1, 66, 88
3, 33722, Note_on_c, 1, 78, 88
3, 33752, Note_on_c, 1, 78, 0
3, 33752, Note_on_c, 1, 66, 0
3, 33782, Note_on_c, 1, 67, 88
3, 33782, Note_on_c, 1, 79, 88
3, 33812, Note_on_c, 1, 79, 0
3, 33812, Note_on_c, 1, 67, 0
3, 33842, Note_on_c, 1, 81, 88
3, 33842, Note_on_c, 1, 69, 88
3, 33872, Note_on_c, 1, 69, 0
3, 33872, Note_on_c, 1, 81, 0
3, 33902, Note_on_c, 1, 83, 88
3, 33902, Note_on_c, 1, 71, 88
3, 33932, Note_on_c, 1, 71, 0
3, 33932, Note_on_c, 1, 83, 0
3, 33962, Note_on_c, 1, 84, 88
3, 33962, Note_on_c, 1, 72, 88
3, 34142, Note_on_c, 1, 72, 0
3, 34142, Note_on_c, 1, 84, 0
3, 34142, Note_on_c, 1, 71, 88
3, 34142, Note_on_c, 1, 83, 88
3, 34192, Note_on_c, 1, 83, 0
3, 34192, Note_on_c, 1, 71, 0
3, 34202, Note_on_c, 1, 86, 88
3, 34202, Note_on_c, 1, 74, 88
3, 34232, Note_on_c, 1, 74, 0
3, 34232, Note_on_c, 1, 86, 0
3, 34262, Note_on_c, 1, 83, 88
3, 34262, Note_on_c, 1, 71, 88
3, 34292, Note_on_c, 1, 71, 0
3, 34292, Note_on_c, 1, 83, 0
3, 34322, Note_on_c, 1, 79, 88
3, 34322, Note_on_c, 1, 67, 88
3, 34352, Note_on_c, 1, 67, 0
3, 34352, Note_on_c, 1, 79, 0
3, 34382, Note_on_c, 1, 79, 88
3, 34382, Note_on_c, 1, 67, 88
3, 34412, Note_on_c, 1, 67, 0
3, 34412, Note_on_c, 1, 79, 0
3, 34442, Note_on_c, 1, 83, 88
3, 34442, Note_on_c, 1, 71, 88
3, 34472, Note_on_c, 1, 71, 0
3, 34472, Note_on_c, 1, 83, 0
3, 34502, Note_on_c, 1, 79, 88
3, 34502, Note_on_c, 1, 67, 88
3, 34532, Note_on_c, 1, 67, 0
3, 34532, Note_on_c, 1, 79, 0
3, 34562, Note_on_c, 1, 74, 88
3, 34562, Note_on_c, 1, 62, 88
3, 34682, Note_on_c, 1, 62, 0
3, 34682, Note_on_c, 1, 74, 0
3, 35042, Note_on_c, 1, 71, 98
3, 35042, Control_c, 1, 11, 37
3, 35066, Control_c, 1, 11, 39
3, 35090, Control_c, 1, 11, 41
3, 35114, Control_c, 1, 11, 43
3, 35138, Control_c, 1, 11, 45
3, 35162, Control_c, 1, 11, 47
3, 35282, Note_on_c, 1, 71, 0
3, 35282, Note_on_c, 1, 72, 98
3, 35522, Note_on_c, 1, 72, 0
3, 35522, Note_on_c, 1, 74, 98
3, 35642, Note_on_c, 1, 74, 0
3, 35942, Note_on_c, 1, 69, 98
3, 36002, Note_on_c, 1, 69, 0
3, 36002, Note_on_c, 1, 71, 98
3, 36062, Note_on_c, 1, 71, 0
3, 36182, Note_on_c, 1, 71, 98
3, 36242, Note_on_c, 1, 71, 0
3, 36242, Note_on_c, 1, 72, 98
3, 36302, Note_on_c, 1, 72, 0
3, 36422, Note_on_c, 1, 72, 98
3, 36482, Note_on_c, 1, 72, 0
3, 36482, Note_on_c, 1, 74, 98
3, 36542, Note_on_c, 1, 74, 0
3, 36902, Note_on_c, 1, 69, 98
3, 36962, Note_on_c, 1, 69, 0
3, 36962, Note_on_c, 1, 71, 98
3, 37022, Note_on_c, 1, 71, 0
3, 37142, Note_on_c, 1, 71, 98
3, 37202, Note_on_c, 1, 71, 0
3, 37202, Note_on_c, 1, 72, 98
3, 37202, Control_c, 1, 11, 47
3, 37232, Control_c, 1, 11, 48
3, 37262, Note_on_c, 1, 72, 0
3, 37262, Control_c, 1, 11, 49
3, 37292, Control_c, 1, 11, 50
3, 37322, Control_c, 1, 11, 51
3, 37352, Control_c, 1, 11, 52
3, 37382, Control_c, 1, 11, 53
3, 37382, Note_on_c, 1, 72, 98
3, 37412, Control_c, 1, 11, 54
3, 37442, Note_on_c, 1, 72, 0
3, 37442, Note_on_c, 1, 74, 98
3, 37442, Control_c, 1, 11, 55
3, 37472, Control_c, 1, 11, 56
3, 37502, Note_on_c, 1, 74, 0
3, 37502, Control_c, 1, 11, 57
3, 37532, Control_c, 1, 11, 58
3, 37562, Control_c, 1, 11, 59
3, 37592, Control_c, 1, 11, 60
3, 37622, Note_on_c, 1, 74, 98
3, 37622, Control_c, 1, 11, 61
3, 37652, Control_c, 1, 11, 62
3, 37682, Note_on_c, 1, 74, 0
3, 37682, Control_c, 1, 11, 62
3, 37682, Note_on_c, 1, 76, 98
3, 37712, Control_c, 1, 11, 63
3, 37742, Control_c, 1, 11, 63
3, 37772, Control_c, 1, 11, 64
3, 37802, Note_on_c, 1, 76, 0
3, 37802, Control_c, 1, 11, 65
3, 37832, Control_c, 1, 11, 65
3, 37862, Note_on_c, 1, 76, 98
3, 37862, Control_c, 1, 11, 66
3, 37892, Control_c, 1, 11, 66
3, 37922, Note_on_c, 1, 76, 0
3, 37922, Control_c, 1, 11, 67
3, 37922, Note_on_c, 1, 77, 98
3, 37952, Control_c, 1, 11, 68
3, 37982, Control_c, 1, 11, 68
3, 38012, Control_c, 1, 11, 69
3, 38042, Note_on_c, 1, 77, 0
3, 38042, Control_c, 1, 11, 70
3, 38072, Control_c, 1, 11, 70
3, 38102, Note_on_c, 1, 71, 98
3, 38102, Control_c, 1, 11, 71
3, 38132, Control_c, 1, 11, 71
3, 38162, Note_on_c, 1, 71, 0
3, 38162, Note_on_c, 1, 72, 98
3, 38162, Control_c, 1, 11, 72
3, 38192, Control_c, 1, 11, 73
3, 38222, Control_c, 1, 11, 73
3, 38252, Control_c, 1, 11, 74
3, 38282, Note_on_c, 1, 72, 0
3, 38282, Control_c, 1, 11, 74
3, 38312, Control_c, 1, 11, 75
3, 38342, Control_c, 1, 11, 76
3, 38342, Note_on_c, 1, 76, 98
3, 38372, Control_c, 1, 11, 76
3, 38402, Note_on_c, 1, 76, 0
3, 38402, Note_on_c, 1, 77, 88
3, 38402, Control_c, 1, 11, 77
3, 38402, Note_on_c, 1, 71, 88
3, 38402, Control_c, 1, 11, 89
3, 38416, Control_c, 1, 11, 86
3, 38431, Control_c, 1, 11, 83
3, 38446, Control_c, 1, 11, 80
3, 38461, Control_c, 1, 11, 77
3, 38642, Note_on_c, 1, 71, 0
3, 38642, Note_on_c, 1, 77, 0
3, 38642, Control_c, 1, 11, 89
3, 38642, Note_on_c, 1, 71, 88
3, 38642, Note_on_c, 1, 80, 88
3, 38659, Control_c, 1, 11, 87
3, 38677, Control_c, 1, 11, 86
3, 38695, Control_c, 1, 11, 84
3, 38713, Control_c, 1, 11, 82
3, 38731, Control_c, 1, 11, 80
3, 38749, Control_c, 1, 11, 78
3, 38882, Note_on_c, 1, 80, 0
3, 38882, Note_on_c, 1, 71, 0
3, 38882, Note_on_c, 1, 76, 88
3, 38882, Note_on_c, 1, 81, 88
3, 38882, Control_c, 1, 11, 89
3, 38899, Control_c, 1, 11, 87
3, 38917, Control_c, 1, 11, 86
3, 38935, Control_c, 1, 11, 84
3, 38953, Control_c, 1, 11, 82
3, 38971, Control_c, 1, 11, 80
3, 38989, Control_c, 1, 11, 78
3, 39122, Note_on_c, 1, 81, 0
3, 39122, Note_on_c, 1, 76, 0
3, 39122, Control_c, 1, 11, 89
3, 39122, Note_on_c, 1, 76, 88
3, 39122, Note_on_c, 1, 82, 88
3, 39139, Control_c, 1, 11, 87
3, 39157, Control_c, 1, 11, 86
3, 39175, Control_c, 1, 11, 84
3, 39193, Control_c, 1, 11, 82
3, 39211, Control_c, 1, 11, 80
3, 39229, Control_c, 1, 11, 78
3, 39362, Note_on_c, 1, 82, 0
3, 39362, Note_on_c, 1, 76, 0
3, 39362, Note_on_c, 1, 83, 88
3, 39362, Note_on_c, 1, 75, 88
3, 39422, Note_on_c, 1, 75, 0
3, 39422, Note_on_c, 1, 83, 0
3, 39482, Control_c, 1, 11, 86
3, 39482, Note_on_c, 1, 75, 88
3, 39482, Note_on_c, 1, 78, 88
3, 39722, Note_on_c, 1, 78, 0
3, 39722, Note_on_c, 1, 75, 0
3, 39722, Note_on_c, 1, 74, 88
3, 39722, Note_on_c, 1, 78, 88
3, 39842, Note_on_c, 1, 78, 0
3, 39842, Note_on_c, 1, 79, 88
3, 39962, Note_on_c, 1, 79, 0
3, 39962, Note_on_c, 1, 74, 0
3, 39962, Note_on_c, 1, 76, 88
3, 39962, Note_on_c, 1, 72, 88
3, 40082, Note_on_c, 1, 72, 0
3, 40082, Note_on_c, 1, 76, 0
3, 40082, Note_on_c, 1, 71, 88
3, 40082, Note_on_c, 1, 74, 88
3, 40202, Note_on_c, 1, 74, 0
3, 40202, Note_on_c, 1, 71, 0
3, 40202, Note_on_c, 1, 69, 88
3, 40202, Note_on_c, 1, 72, 88
3, 40322, Note_on_c, 1, 72, 0
3, 40322, Note_on_c, 1, 69, 0
3, 40322, Note_on_c, 1, 71, 88
3, 40322, Note_on_c, 1, 67, 88
3, 40382, Note_on_c, 1, 67, 0
3, 40382, Note_on_c, 1, 71, 0
3, 40622, Control_c, 1, 11, 98
3, 40622, Note_on_c, 1, 76, 88
3, 40622, Note_on_c, 1, 84, 88
3, 40640, Control_c, 1, 11, 97
3, 40658, Control_c, 1, 11, 95
3, 40676, Control_c, 1, 11, 93
3, 40694, Control_c, 1, 11, 91
3, 40712, Control_c, 1, 11, 89
3, 40727, Note_on_c, 1, 84, 0
3, 40727, Note_on_c, 1, 76, 0
3, 40730, Control_c, 1, 11, 87
3, 40742, Note_on_c, 1, 84, 88
3, 40742, Note_on_c, 1, 76, 88
3, 40792, Note_on_c, 1, 76, 0
3, 40792, Note_on_c, 1, 84, 0
3, 40802, Note_on_c, 1, 74, 88
3, 40802, Note_on_c, 1, 83, 88
3, 40862, Note_on_c, 1, 83, 0
3, 40862, Note_on_c, 1, 74, 0
3, 41102, Control_c, 1, 11, 98
3, 41102, Note_on_c, 1, 72, 88
3, 41102, Note_on_c, 1, 78, 88
3, 41120, Control_c, 1, 11, 97
3, 41138, Control_c, 1, 11, 95
3, 41156, Control_c, 1, 11, 93
3, 41174, Control_c, 1, 11, 91
3, 41192, Control_c, 1, 11, 89
3, 41207, Note_on_c, 1, 78, 0
3, 41207, Note_on_c, 1, 72, 0
3, 41210, Control_c, 1, 11, 87
3, 41222, Note_on_c, 1, 72, 88
3, 41222, Note_on_c, 1, 78, 88
3, 41272, Note_on_c, 1, 78, 0
3, 41272, Note_on_c, 1, 72, 0
3, 41282, Note_on_c, 1, 79, 88
3, 41282, Note_on_c, 1, 71, 88
3, 41332, Note_on_c, 1, 71, 0
3, 41332, Note_on_c, 1, 79, 0
3, 41582, Note_on_c, 1, 76, 88
3, 41582, Note_on_c, 1, 84, 88
3, 41582, Control_c, 1, 11, 98
3, 41600, Control_c, 1, 11, 97
3, 41618, Control_c, 1, 11, 95
3, 41636, Control_c, 1, 11, 93
3, 41654, Control_c, 1, 11, 91
3, 41672, Control_c, 1, 11, 89
3, 41690, Control_c, 1, 11, 87
3, 41692, Note_on_c, 1, 84, 0
3, 41692, Note_on_c, 1, 76, 0
3, 41702, Note_on_c, 1, 76, 88
3, 41702, Note_on_c, 1, 84, 88
3, 41752, Note_on_c, 1, 84, 0
3, 41752, Note_on_c, 1, 76, 0
3, 41762, Note_on_c, 1, 83, 88
3, 41762, Note_on_c, 1, 74, 88
3, 41822, Note_on_c, 1, 74, 0
3, 41822, Note_on_c, 1, 83, 0
3, 42062, Note_on_c, 1, 72, 88
3, 42062, Control_c, 1, 11, 98
3, 42062, Note_on_c, 1, 78, 88
3, 42080, Control_c, 1, 11, 97
3, 42098, Control_c, 1, 11, 95
3, 42116, Control_c, 1, 11, 93
3, 42134, Control_c, 1, 11, 91
3, 42152, Control_c, 1, 11, 89
3, 42170, Control_c, 1, 11, 87
3, 42172, Note_on_c, 1, 78, 0
3, 42172, Note_on_c, 1, 72, 0
3, 42182, Note_on_c, 1, 78, 88
3, 42182, Note_on_c, 1, 72, 88
3, 42232, Note_on_c, 1, 72, 0
3, 42232, Note_on_c, 1, 78, 0
3, 42242, Note_on_c, 1, 79, 88
3, 42242, Control_c, 1, 11, 98
3, 42242, Note_on_c, 1, 71, 88
3, 42259, Control_c, 1, 11, 97
3, 42277, Control_c, 1, 11, 95
3, 42295, Control_c, 1, 11, 93
3, 42313, Control_c, 1, 11, 91
3, 42331, Control_c, 1, 11, 89
3, 42349, Control_c, 1, 11, 87
3, 42587, Note_on_c, 1, 71, 0
3, 42587, Note_on_c, 1, 79, 0
3, 42602, Note_on_c, 1, 79, 88
3, 42602, Note_on_c, 1, 71, 88
3, 42632, Note_on_c, 1, 71, 0
3, 42632, Note_on_c, 1, 79, 0
3, 42662, Note_on_c, 1, 79, 88
3, 42662, Note_on_c, 1, 71, 88
3, 42692, Note_on_c, 1, 71, 0
3, 42692, Note_on_c, 1, 79, 0
3, 42722, Control_c, 1, 11, 98
3, 42722, Note_on_c, 1, 72, 88
3, 42722, Note_on_c, 1, 79, 88
3, 42739, Control_c, 1, 11, 97
3, 42757, Control_c, 1, 11, 95
3, 42775, Control_c, 1, 11, 93
3, 42793, Control_c, 1, 11, 91
3, 42811, Control_c, 1, 11, 89
3, 42829, Control_c, 1, 11, 87
3, 43067, Note_on_c, 1, 79, 0
3, 43067, Note_on_c, 1, 72, 0
3, 43082, Note_on_c, 1, 79, 88
3, 43082, Note_on_c, 1, 72, 88
3, 43112, Note_on_c, 1, 72, 0
3, 43112, Note_on_c, 1, 79, 0
3, 43142, Note_on_c, 1, 79, 88
3, 43142, Note_on_c, 1, 72, 88
3, 43172, Note_on_c, 1, 72, 0
3, 43172, Note_on_c, 1, 79, 0
3, 43202, Note_on_c, 1, 79, 88
3, 43202, Control_c, 1, 11, 98
3, 43202, Note_on_c, 1, 74, 88
3, 43219, Control_c, 1, 11, 97
3, 43237, Control_c, 1, 11, 95
3, 43255, Control_c, 1, 11, 93
3, 43273, Control_c, 1, 11, 91
3, 43291, Control_c, 1, 11, 89
3, 43309, Control_c, 1, 11, 87
3, 43547, Note_on_c, 1, 74, 0
3, 43547, Note_on_c, 1, 79, 0
3, 43562, Note_on_c, 1, 79, 88
3, 43562, Note_on_c, 1, 74, 88
3, 43592, Note_on_c, 1, 74, 0
3, 43592, Note_on_c, 1, 79, 0
3, 43622, Note_on_c, 1, 74, 88
3, 43622, Note_on_c, 1, 79, 88
3, 43652, Note_on_c, 1, 79, 0
3, 43652, Note_on_c, 1, 74, 0
3, 43682, Control_c, 1, 11, 98
3, 43682, Note_on_c, 1, 76, 88
3, 43682, Note_on_c, 1, 79, 88
3, 43699, Control_c, 1, 11, 97
3, 43717, Control_c, 1, 11, 95
3, 43735, Control_c, 1, 11, 93
3, 43753, Control_c, 1, 11, 91
3, 43771, Control_c, 1, 11, 89
3, 43789, Control_c, 1, 11, 87
3, 44027, Note_on_c, 1, 79, 0
3, 44027, Note_on_c, 1, 76, 0
3, 44042, Note_on_c, 1, 79, 88
3, 44042, Note_on_c, 1, 76, 88
3, 44072, Note_on_c, 1, 76, 0
3, 44072, Note_on_c, 1, 79, 0
3, 44102, Note_on_c, 1, 79, 88
3, 44102, Note_on_c, 1, 76, 88
3, 44132, Note_on_c, 1, 76, 0
3, 44132, Note_on_c, 1, 79, 0
3, 44162, Note_on_c, 1, 77, 88
3, 44162, Note_on_c, 1, 79, 88
3, 44162, Control_c, 1, 11, 98
3, 44179, Control_c, 1, 11, 97
3, 44197, Control_c, 1, 11, 95
3, 44215, Control_c, 1, 11, 93
3, 44233, Control_c, 1, 11, 91
3, 44251, Control_c, 1, 11, 89
3, 44269, Control_c, 1, 11, 87
3, 44342, Note_on_c, 1, 79, 0
3, 44342, Note_on_c, 1, 77, 0
3, 44342, Note_on_c, 1, 79, 88
3, 44342, Note_on_c, 1, 76, 88
3, 44387, Note_on_c, 1, 76, 0
3, 44387, Note_on_c, 1, 79, 0
3, 44402, Note_on_c, 1, 77, 88
3, 44402, Control_c, 1, 11, 98
3, 44402, Note_on_c, 1, 79, 88
3, 44419, Control_c, 1, 11, 97
3, 44437, Control_c, 1, 11, 95
3, 44455, Control_c, 1, 11, 93
3, 44473, Control_c, 1, 11, 91
3, 44491, Control_c, 1, 11, 89
3, 44509, Control_c, 1, 11, 87
3, 44582, Note_on_c, 1, 79, 0
3, 44582, Note_on_c, 1, 77, 0
3, 44582, Note_on_c, 1, 76, 88
3, 44582, Note_on_c, 1, 79, 88
3, 44627, Note_on_c, 1, 79, 0
3, 44627, Note_on_c, 1, 76, 0
3, 44642, Note_on_c, 1, 79, 79
3, 44642, Note_on_c, 1, 77, 79
3, 44762, Note_on_c, 1, 77, 0
3, 44762, Note_on_c, 1, 79, 0
3, 45122, Note_on_c, 1, 79, 98
3, 45122, Control_c, 1, 11, 52
3, 45302, Note_on_c, 1, 79, 0
3, 45302, Note_on_c, 1, 78, 98
3, 45352, Note_on_c, 1, 78, 0
3, 45362, Note_on_c, 1, 79, 98
3, 45542, Note_on_c, 1, 79, 0
3, 45542, Note_on_c, 1, 78, 98
3, 45592, Note_on_c, 1, 78, 0
3, 45602, Note_on_c, 1, 79, 98
3, 45677, Control_c, 1, 11, 52
3, 45683, Control_c, 1, 11, 49
3, 45690, Control_c, 1, 11, 46
3, 45696, Control_c, 1, 11, 43
3, 45703, Control_c, 1, 11, 40
3, 45710, Control_c, 1, 11, 37
3, 45716, Control_c, 1, 11, 34
3, 45722, Note_on_c, 1, 79, 0
3, 46082, Control_c, 1, 11, 52
3, 46082, Note_on_c, 1, 81, 98
3, 46262, Note_on_c, 1, 81, 0
3, 46262, Note_on_c, 1, 80, 98
3, 46312, Note_on_c, 1, 80, 0
3, 46322, Note_on_c, 1, 81, 98
3, 46502, Note_on_c, 1, 81, 0
3, 46502, Note_on_c, 1, 80, 98
3, 46552, Note_on_c, 1, 80, 0
3, 46562, Note_on_c, 1, 81, 98
3, 46637, Control_c, 1, 11, 52
3, 46643, Control_c, 1, 11, 49
3, 46650, Control_c, 1, 11, 46
3, 46656, Control_c, 1, 11, 43
3, 46663, Control_c, 1, 11, 40
3, 46670, Control_c, 1, 11, 37
3, 46676, Control_c, 1, 11, 34
3, 46682, Note_on_c, 1, 81, 0
3, 47522, Control_c, 1, 11, 86
3, 47522, Note_on_c, 1, 70, 88
3, 47522, Note_on_c, 1, 74, 88
3, 47992, Note_on_c, 1, 74, 0
3, 47992, Note_on_c, 1, 70, 0
3, 48002, Note_on_c, 1, 75, 88
3, 48002, Note_on_c, 1, 72, 88
3, 48472, Note_on_c, 1, 72, 0
3, 48472, Note_on_c, 1, 75, 0
3, 48482, Note_on_c, 1, 70, 88
3, 48482, Note_on_c, 1, 74, 88
3, 48952, Note_on_c, 1, 74, 0
3, 48952, Note_on_c, 1, 70, 0
3, 48962, Note_on_c, 1, 75, 88
3, 48962, Note_on_c, 1, 72, 88
3, 49432, Note_on_c, 1, 72, 0
3, 49432, Note_on_c, 1, 75, 0
3, 49442, Note_on_c, 1, 74, 74
3, 49442, Note_on_c, 1, 70, 74
3, 49517, Control_c, 1, 11, 86
3, 49522, Control_c, 1, 11, 83
3, 49528, Control_c, 1, 11, 80
3, 49533, Control_c, 1, 11, 77
3, 49539, Control_c, 1, 11, 74
3, 49544, Control_c, 1, 11, 71
3, 49550, Control_c, 1, 11, 68
3, 49555, Control_c, 1, 11, 65
3, 49561, Control_c, 1, 11, 62
3, 49562, Note_on_c, 1, 70, 0
3, 49562, Note_on_c, 1, 74, 0
3, 53102, Control_c, 1, 11, 52
3, 53102, Note_on_c, 1, 76, 98
3, 53212, Note_on_c, 1, 76, 0
3, 53222, Note_on_c, 1, 76, 98
3, 53272, Note_on_c, 1, 76, 0
3, 53282, Note_on_c, 1, 74, 98
3, 53342, Note_on_c, 1, 74, 0
3, 53582, Note_on_c, 1, 81, 98
3, 53692, Note_on_c, 1, 81, 0
3, 53702, Note_on_c, 1, 81, 98
3, 53752, Note_on_c, 1, 81, 0
3, 53762, Note_on_c, 1, 79, 98
3, 53822, Note_on_c, 1, 79, 0
3, 54062, Note_on_c, 1, 74, 98
3, 54172, Note_on_c, 1, 74, 0
3, 54182, Note_on_c, 1, 74, 98
3, 54232, Note_on_c, 1, 74, 0
3, 54242, Note_on_c, 1, 72, 98
3, 54302, Note_on_c, 1, 72, 0
3, 54542, Note_on_c, 1, 79, 98
3, 54652, Note_on_c, 1, 79, 0
3, 54662, Note_on_c, 1, 79, 98
3, 54712, Note_on_c, 1, 79, 0
3, 54722, Control_c, 1, 11, 52
3, 54722, Note_on_c, 1, 69, 98
3, 54722, Note_on_c, 1, 77, 98
3, 54749, Control_c, 1, 11, 54
3, 54776, Control_c, 1, 11, 56
3, 54804, Control_c, 1, 11, 58
3, 54831, Control_c, 1, 11, 60
3, 54842, Note_on_c, 1, 77, 0
3, 54842, Note_on_c, 1, 69, 0
3, 54859, Control_c, 1, 11, 62
3, 54886, Control_c, 1, 11, 63
3, 54914, Control_c, 1, 11, 64
3, 54941, Control_c, 1, 11, 65
3, 54962, Note_on_c, 1, 81, 98
3, 54962, Note_on_c, 1, 74, 98
3, 54968, Control_c, 1, 11, 66
3, 54996, Control_c, 1, 11, 68
3, 55023, Control_c, 1, 11, 69
3, 55051, Control_c, 1, 11, 70
3, 55078, Control_c, 1, 11, 71
3, 55082, Note_on_c, 1, 74, 0
3, 55082, Note_on_c, 1, 81, 0
3, 55106, Control_c, 1, 11, 73
3, 55133, Control_c, 1, 11, 74
3, 55160, Control_c, 1, 11, 75
3, 55188, Control_c, 1, 11, 76
3, 55202, Note_on_c, 1, 71, 88
3, 55202, Note_on_c, 1, 79, 88
3, 55672, Note_on_c, 1, 79, 0
3, 55672, Note_on_c, 1, 71, 0
3, 55682, Note_on_c, 1, 79, 88
3, 55682, Note_on_c, 1, 72, 88
3, 56152, Note_on_c, 1, 72, 0
3, 56152, Note_on_c, 1, 79, 0
3, 56162, Control_c, 1, 11, 86
3, 56162, Note_on_c, 1, 79, 88
3, 56162, Note_on_c, 1, 71, 88
3, 56632, Note_on_c, 1, 71, 0
3, 56632, Note_on_c, 1, 79, 0
3, 56642, Note_on_c, 1, 72, 88
3, 56642, Note_on_c, 1, 79, 88
3, 57112, Note_on_c, 1, 79, 0
3, 57112, Note_on_c, 1, 72, 0
3, 57122, Note_on_c, 1, 71, 88
3, 57122, Note_on_c, 1, 79, 88
3, 57232, Note_on_c, 1, 79, 0
3, 57232, Note_on_c, 1, 71, 0
3, 57242, Note_on_c, 1, 67, 88
3, 57242, Control_c, 1, 11, 98
3, 57260, Control_c, 1, 11, 97
3, 57278, Control_c, 1, 11, 95
3, 57296, Control_c, 1, 11, 93
3, 57314, Control_c, 1, 11, 91
3, 57332, Control_c, 1, 11, 89
3, 57350, Control_c, 1, 11, 87
3, 57712, Note_on_c, 1, 67, 0
3, 57722, Note_on_c, 1, 71, 88
3, 57722, Control_c, 1, 11, 98
3, 57740, Control_c, 1, 11, 97
3, 57758, Control_c, 1, 11, 95
3, 57776, Control_c, 1, 11, 93
3, 57794, Control_c, 1, 11, 91
3, 57812, Control_c, 1, 11, 89
3, 57830, Control_c, 1, 11, 87
3, 58192, Note_on_c, 1, 71, 0
3, 58202, Note_on_c, 1, 74, 88
3, 58202, Control_c, 1, 11, 98
3, 58220, Control_c, 1, 11, 97
3, 58238, Control_c, 1, 11, 95
3, 58256, Control_c, 1, 11, 93
3, 58274, Control_c, 1, 11, 91
3, 58292, Control_c, 1, 11, 89
3, 58310, Control_c, 1, 11, 87
3, 58672, Note_on_c, 1, 74, 0
3, 58682, Control_c, 1, 11, 98
3, 58682, Note_on_c, 1, 77, 88
3, 58700, Control_c, 1, 11, 97
3, 58718, Control_c, 1, 11, 95
3, 58736, Control_c, 1, 11, 93
3, 58754, Control_c, 1, 11, 91
3, 58772, Control_c, 1, 11, 89
3, 58790, Control_c, 1, 11, 87
3, 59152, Note_on_c, 1, 77, 0
3, 59162, Note_on_c, 1, 74, 88
3, 59162, Note_on_c, 1, 77, 88
3, 59162, Control_c, 1, 11, 98
3, 59176, Control_c, 1, 11, 95
3, 59191, Control_c, 1, 11, 92
3, 59206, Control_c, 1, 11, 89
3, 59221, Control_c, 1, 11, 86
3, 59222, Note_on_c, 1, 77, 0
3, 59222, Note_on_c, 1, 74, 0
3, 59402, Note_on_c, 1, 74, 88
3, 59402, Note_on_c, 1, 71, 88
3, 59402, Control_c, 1, 11, 98
3, 59416, Control_c, 1, 11, 95
3, 59431, Control_c, 1, 11, 92
3, 59446, Control_c, 1, 11, 89
3, 59461, Control_c, 1, 11, 86
3, 59462, Note_on_c, 1, 71, 0
3, 59462, Note_on_c, 1, 74, 0
3, 59642, Control_c, 1, 11, 98
3, 59642, Note_on_c, 1, 77, 88
3, 59642, Note_on_c, 1, 74, 88
3, 59656, Control_c, 1, 11, 95
3, 59671, Control_c, 1, 11, 92
3, 59686, Control_c, 1, 11, 89
3, 59701, Control_c, 1, 11, 86
3, 59702, Note_on_c, 1, 74, 0
3, 59702, Note_on_c, 1, 77, 0
3, 59882, Control_c, 1, 11, 98
3, 59882, Note_on_c, 1, 71, 88
3, 59882, Note_on_c, 1, 74, 88
3, 59896, Control_c, 1, 11, 95
3, 59911, Control_c, 1, 11, 92
3, 59926, Control_c, 1, 11, 89
3, 59941, Control_c, 1, 11, 86
3, 59942, Note_on_c, 1, 74, 0
3, 59942, Note_on_c, 1, 71, 0
3, 64982, Note_on_c, 1, 77, 98
3, 64982, Note_on_c, 1, 74, 98
3, 64982, Control_c, 1, 11, 68
3, 65010, Control_c, 1, 11, 68
3, 65012, Note_on_c, 1, 74, 0
3, 65012, Note_on_c, 1, 77, 0
3, 65038, Control_c, 1, 11, 69
3, 65042, Note_on_c, 1, 77, 98
3, 65042, Note_on_c, 1, 74, 98
3, 65066, Control_c, 1, 11, 70
3, 65072, Note_on_c, 1, 74, 0
3, 65072, Note_on_c, 1, 77, 0
3, 65094, Control_c, 1, 11, 70
3, 65102, Note_on_c, 1, 74, 98
3, 65102, Note_on_c, 1, 77, 98
3, 65122, Control_c, 1, 11, 71
3, 65132, Note_on_c, 1, 77, 0
3, 65132, Note_on_c, 1, 74, 0
3, 65150, Control_c, 1, 11, 71
3, 65162, Note_on_c, 1, 77, 98
3, 65162, Note_on_c, 1, 74, 98
3, 65178, Control_c, 1, 11, 72
3, 65192, Note_on_c, 1, 74, 0
3, 65192, Note_on_c, 1, 77, 0
3, 65206, Control_c, 1, 11, 73
3, 65222, Note_on_c, 1, 74, 98
3, 65222, Note_on_c, 1, 77, 98
3, 65234, Control_c, 1, 11, 73
3, 65252, Note_on_c, 1, 77, 0
3, 65252, Note_on_c, 1, 74, 0
3, 65262, Control_c, 1, 11, 74
3, 65282, Note_on_c, 1, 77, 98
3, 65282, Note_on_c, 1, 74, 98
3, 65290, Control_c, 1, 11, 74
3, 65318, Control_c, 1, 11, 75
3, 65346, Control_c, 1, 11, 76
3, 65374, Control_c, 1, 11, 76
3, 65402, Note_on_c, 1, 74, 0
3, 65402, Note_on_c, 1, 77, 0
3, 65402, Note_on_c, 1, 72, 98
3, 65402, Note_on_c, 1, 76, 98
3, 65402, Control_c, 1, 11, 77
3, 65462, Note_on_c, 1, 76, 0
3, 65462, Note_on_c, 1, 72, 0
3, 66422, Note_on_c, 1, 77, 88
3, 66422, Note_on_c, 1, 81, 88
3, 66452, Note_on_c, 1, 81, 0
3, 66452, Note_on_c, 1, 77, 0
3, 66482, Note_on_c, 1, 81, 88
3, 66482, Note_on_c, 1, 77, 88
3, 66512, Note_on_c, 1, 77, 0
3, 66512, Note_on_c, 1, 81, 0
3, 66542, Note_on_c, 1, 77, 88
3, 66542, Note_on_c, 1, 81, 88
3, 66572, Note_on_c, 1, 81, 0
3, 66572, Note_on_c, 1, 77, 0
3, 66602, Note_on_c, 1, 77, 88
3, 66602, Note_on_c, 1, 81, 88
3, 66632, Note_on_c, 1, 81, 0
3, 66632, Note_on_c, 1, 77, 0
3, 66662, Note_on_c, 1, 81, 88
3, 66662, Note_on_c, 1, 77, 88
3, 66692, Note_on_c, 1, 77, 0
3, 66692, Note_on_c, 1, 81, 0
3, 66722, Note_on_c, 1, 79, 88
3, 66722, Note_on_c, 1, 74, 88
3, 66962, Note_on_c, 1, 79, 0
3, 66962, Note_on_c, 1, 77, 88
3, 67192, Note_on_c, 1, 77, 0
3, 67192, Note_on_c, 1, 74, 0
3, 67202, Note_on_c, 1, 76, 74
3, 67202, Note_on_c, 1, 72, 74
3, 67322, Note_on_c, 1, 72, 0
3, 67322, Note_on_c, 1, 76, 0
3, 67682, Control_c, 1, 11, 52
3, 67682, Note_on_c, 1, 69, 98
3, 67922, Note_on_c, 1, 69, 0
3, 67922, Note_on_c, 1, 70, 98
3, 68162, Note_on_c, 1, 70, 0
3, 68162, Note_on_c, 1, 72, 98
3, 68282, Note_on_c, 1, 72, 0
3, 68582, Note_on_c, 1, 67, 98
3, 68642, Note_on_c, 1, 67, 0
3, 68642, Note_on_c, 1, 69, 98
3, 68702, Note_on_c, 1, 69, 0
3, 68822, Note_on_c, 1, 69, 98
3, 68882, Note_on_c, 1, 69, 0
3, 68882, Note_on_c, 1, 70, 98
3, 68942, Note_on_c, 1, 70, 0
3, 69062, Note_on_c, 1, 70, 98
3, 69122, Note_on_c, 1, 70, 0
3, 69122, Note_on_c, 1, 72, 98
3, 69182, Note_on_c, 1, 72, 0
3, 69602, Note_on_c, 1, 76, 98
3, 69842, Note_on_c, 1, 76, 0
3, 69842, Note_on_c, 1, 77, 98
3, 70082, Note_on_c, 1, 77, 0
3, 70082, Note_on_c, 1, 79, 98
3, 70202, Note_on_c, 1, 79, 0
3, 70502, Note_on_c, 1, 74, 98
3, 70562, Note_on_c, 1, 74, 0
3, 70562, Note_on_c, 1, 76, 98
3, 70562, Control_c, 1, 11, 52
3, 70603, Control_c, 1, 11, 53
3, 70622, Note_on_c, 1, 76, 0
3, 70644, Control_c, 1, 11, 54
3, 70685, Control_c, 1, 11, 55
3, 70726, Control_c, 1, 11, 56
3, 70742, Note_on_c, 1, 76, 98
3, 70767, Control_c, 1, 11, 57
3, 70802, Note_on_c, 1, 76, 0
3, 70802, Note_on_c, 1, 77, 98
3, 70808, Control_c, 1, 11, 58
3, 70850, Control_c, 1, 11, 59
3, 70862, Note_on_c, 1, 77, 0
3, 70891, Control_c, 1, 11, 60
3, 70932, Control_c, 1, 11, 61
3, 70973, Control_c, 1, 11, 62
3, 70982, Note_on_c, 1, 77, 98
3, 71014, Control_c, 1, 11, 62
3, 71042, Note_on_c, 1, 77, 0
3, 71042, Note_on_c, 1, 79, 98
3, 71055, Control_c, 1, 11, 63
3, 71096, Control_c, 1, 11, 63
3, 71102, Note_on_c, 1, 79, 0
3, 71138, Control_c, 1, 11, 64
3, 71179, Control_c, 1, 11, 65
3, 71220, Control_c, 1, 11, 65
3, 71261, Control_c, 1, 11, 66
3, 71282, Note_on_c, 1, 72, 98
3, 71302, Control_c, 1, 11, 66
3, 71343, Control_c, 1, 11, 67
3, 71384, Control_c, 1, 11, 68
3, 71426, Control_c, 1, 11, 68
3, 71467, Control_c, 1, 11, 69
3, 71508, Control_c, 1, 11, 70
3, 71549, Control_c, 1, 11, 70
3, 71590, Control_c, 1, 11, 71
3, 71631, Control_c, 1, 11, 71
3, 71672, Control_c, 1, 11, 72
3, 71714, Control_c, 1, 11, 73
3, 71755, Control_c, 1, 11, 73
3, 71796, Control_c, 1, 11, 74
3, 71837, Control_c, 1, 11, 74
3, 71878, Control_c, 1, 11, 75
3, 71919, Control_c, 1, 11, 76
3, 71960, Control_c, 1, 11, 76
3, 72002, Note_on_c, 1, 72, 0
3, 72002, Control_c, 1, 11, 77
3, 72002, Note_on_c, 1, 73, 88
3, 72242, Note_on_c, 1, 73, 0
3, 72242, Note_on_c, 1, 82, 88
3, 72242, Control_c, 1, 11, 98
3, 72242, Note_on_c, 1, 73, 88
3, 72259, Control_c, 1, 11, 95
3, 72276, Control_c, 1, 11, 92
3, 72293, Control_c, 1, 11, 89
3, 72310, Control_c, 1, 11, 86
3, 72327, Control_c, 1, 11, 83
3, 72344, Control_c, 1, 11, 80
3, 72362, Control_c, 1, 11, 77
3, 72482, Note_on_c, 1, 73, 0
3, 72482, Note_on_c, 1, 82, 0
3, 72482, Note_on_c, 1, 81, 88
3, 72482, Control_c, 1, 11, 89
3, 72482, Note_on_c, 1, 74, 88
3, 72500, Control_c, 1, 11, 87
3, 72518, Control_c, 1, 11, 86
3, 72536, Control_c, 1, 11, 84
3, 72554, Control_c, 1, 11, 82
3, 72572, Control_c, 1, 11, 80
3, 72590, Control_c, 1, 11, 78
3, 72722, Note_on_c, 1, 74, 0
3, 72722, Note_on_c, 1, 81, 0
3, 72722, Control_c, 1, 11, 89
3, 72722, Note_on_c, 1, 81, 88
3, 72722, Note_on_c, 1, 75, 88
3, 72740, Control_c, 1, 11, 87
3, 72758, Control_c, 1, 11, 86
3, 72776, Control_c, 1, 11, 84
3, 72794, Control_c, 1, 11, 82
3, 72812, Control_c, 1, 11, 80
3, 72830, Control_c, 1, 11, 78
3, 72962, Note_on_c, 1, 75, 0
3, 72962, Note_on_c, 1, 81, 0
3, 72962, Note_on_c, 1, 71, 88
3, 72962, Note_on_c, 1, 80, 88
3, 73022, Note_on_c, 1, 80, 0
3, 73022, Note_on_c, 1, 71, 0
3, 73082, Control_c, 1, 11, 86
3, 73082, Note_on_c, 1, 77, 88
3, 73082, Note_on_c, 1, 80, 88
3, 73322, Note_on_c, 1, 80, 0
3, 73322, Note_on_c, 1, 79, 88
3, 73442, Note_on_c, 1, 77, 0
3, 73442, Note_on_c, 1, 76, 88
3, 73562, Note_on_c, 1, 76, 0
3, 73562, Note_on_c, 1, 79, 0
3, 73562, Note_on_c, 1, 74, 88
3, 73562, Note_on_c, 1, 77, 88
3, 73682, Note_on_c, 1, 77, 0
3, 73682, Note_on_c, 1, 74, 0
3, 73682, Note_on_c, 1, 72, 88
3, 73682, Note_on_c, 1, 76, 88
3, 73802, Note_on_c, 1, 76, 0
3, 73802, Note_on_c, 1, 72, 0
3, 73802, Note_on_c, 1, 74, 88
3, 73802, Note_on_c, 1, 71, 88
3, 73922, Note_on_c, 1, 71, 0
3, 73922, Note_on_c, 1, 74, 0
3, 73922, Note_on_c, 1, 72, 88
3, 73982, Note_on_c, 1, 72, 0
3, 73982, Control_c, 1, 11, 98
3, 73982, Note_on_c, 1, 76, 88
3, 73982, Note_on_c, 1, 79, 88
3, 74000, Control_c, 1, 11, 97
3, 74018, Control_c, 1, 11, 95
3, 74036, Control_c, 1, 11, 93
3, 74054, Control_c, 1, 11, 91
3, 74072, Control_c, 1, 11, 89
3, 74087, Note_on_c, 1, 79, 0
3, 74087, Note_on_c, 1, 76, 0
3, 74090, Control_c, 1, 11, 87
3, 74102, Note_on_c, 1, 76, 88
3, 74102, Note_on_c, 1, 79, 88
3, 74152, Note_on_c, 1, 79, 0
3, 74152, Note_on_c, 1, 76, 0
3, 74162, Note_on_c, 1, 76, 88
3, 74162, Note_on_c, 1, 72, 88
3, 74222, Note_on_c, 1, 72, 0
3, 74222, Note_on_c, 1, 76, 0
3, 74942, Note_on_c, 1, 79, 88
3, 74942, Note_on_c, 1, 76, 88
3, 74942, Control_c, 1, 11, 98
3, 74960, Control_c, 1, 11, 97
3, 74978, Control_c, 1, 11, 95
3, 74996, Control_c, 1, 11, 93
3, 75014, Control_c, 1, 11, 91
3, 75032, Control_c, 1, 11, 89
3, 75047, Note_on_c, 1, 76, 0
3, 75047, Note_on_c, 1, 79, 0
3, 75050, Control_c, 1, 11, 87
3, 75062, Note_on_c, 1, 79, 88
3, 75062, Note_on_c, 1, 76, 88
3, 75112, Note_on_c, 1, 76, 0
3, 75112, Note_on_c, 1, 79, 0
3, 75122, Note_on_c, 1, 76, 88
3, 75122, Note_on_c, 1, 72, 88
3, 75182, Note_on_c, 1, 72, 0
3, 75182, Note_on_c, 1, 76, 0
3, 75842, Control_c, 1, 11, 86
3, 75842, Note_on_c, 1, 72, 88
3, 76192, Note_on_c, 1, 72, 0
3, 76202, Note_on_c, 1, 72, 88
3, 76250, Note_on_c, 1, 72, 0
3, 76262, Note_on_c, 1, 72, 88
3, 76310, Note_on_c, 1, 72, 0
3, 76322, Control_c, 1, 11, 98
3, 76322, Note_on_c, 1, 74, 88
3, 76340, Control_c, 1, 11, 97
3, 76358, Control_c, 1, 11, 95
3, 76376, Control_c, 1, 11, 93
3, 76394, Control_c, 1, 11, 91
3, 76412, Control_c, 1, 11, 89
3, 76430, Control_c, 1, 11, 87
3, 76672, Note_on_c, 1, 74, 0
3, 76682, Note_on_c, 1, 74, 88
3, 76730, Note_on_c, 1, 74, 0
3, 76742, Note_on_c, 1, 74, 88
3, 76790, Note_on_c, 1, 74, 0
3, 76802, Control_c, 1, 11, 98
3, 76802, Note_on_c, 1, 76, 88
3, 76820, Control_c, 1, 11, 97
3, 76838, Control_c, 1, 11, 95
3, 76856, Control_c, 1, 11, 93
3, 76874, Control_c, 1, 11, 91
3, 76892, Control_c, 1, 11, 89
3, 76910, Control_c, 1, 11, 87
3, 77152, Note_on_c, 1, 76, 0
3, 77162, Note_on_c, 1, 76, 88
3, 77210, Note_on_c, 1, 76, 0
3, 77222, Note_on_c, 1, 76, 88
3, 77270, Note_on_c, 1, 76, 0
3, 77282, Note_on_c, 1, 72, 88
3, 77282, Note_on_c, 1, 77, 88
3, 77487, Note_on_c, 1, 77, 0
3, 77487, Note_on_c, 1, 72, 0
3, 77492, Note_on_c, 1, 77, 88
3, 77492, Note_on_c, 1, 72, 88
3, 77517, Note_on_c, 1, 72, 0
3, 77517, Note_on_c, 1, 77, 0
3, 77522, Note_on_c, 1, 72, 88
3, 77522, Note_on_c, 1, 75, 88
3, 77727, Note_on_c, 1, 75, 0
3, 77727, Note_on_c, 1, 72, 0
3, 77732, Note_on_c, 1, 75, 88
3, 77732, Note_on_c, 1, 72, 88
3, 77757, Note_on_c, 1, 72, 0
3, 77757, Note_on_c, 1, 75, 0
3, 77762, Note_on_c, 1, 75, 88
3, 77762, Note_on_c, 1, 72, 88
3, 77822, Note_on_c, 1, 72, 0
3, 77822, Note_on_c, 1, 75, 0
3, 77882, Note_on_c, 1, 72, 98
3, 77882, Control_c, 1, 11, 98
3, 77882, Note_on_c, 1, 75, 98
3, 77900, Control_c, 1, 11, 97
3, 77918, Control_c, 1, 11, 95
3, 77936, Control_c, 1, 11, 93
3, 77954, Control_c, 1, 11, 91
3, 77972, Control_c, 1, 11, 89
3, 77990, Control_c, 1, 11, 87
3, 78197, Control_c, 1, 11, 86
3, 78199, Control_c, 1, 11, 83
3, 78201, Control_c, 1, 11, 80
3, 78204, Control_c, 1, 11, 76
3, 78206, Control_c, 1, 11, 73
3, 78208, Control_c, 1, 11, 70
3, 78210, Control_c, 1, 11, 67
3, 78212, Note_on_c, 1, 75, 0
3, 78212, Note_on_c, 1, 72, 0
3, 78242, Control_c, 1, 11, 86
3, 78242, Note_on_c, 1, 74, 98
3, 78242, Note_on_c, 1, 83, 98
3, 78302, Note_on_c, 1, 83, 0
3, 78302, Note_on_c, 1, 74, 0
3, 78362, Note_on_c, 1, 86, 98
3, 78362, Control_c, 1, 11, 98
3, 78362, Note_on_c, 1, 77, 98
3, 78380, Control_c, 1, 11, 97
3, 78398, Control_c, 1, 11, 95
3, 78416, Control_c, 1, 11, 93
3, 78434, Control_c, 1, 11, 91
3, 78452, Control_c, 1, 11, 89
3, 78470, Control_c, 1, 11, 87
3, 78612, Control_c, 1, 11, 86
3, 78615, Control_c, 1, 11, 82
3, 78618, Control_c, 1, 11, 79
3, 78621, Control_c, 1, 11, 76
3, 78624, Control_c, 1, 11, 73
3, 78627, Control_c, 1, 11, 70
3, 78630, Control_c, 1, 11, 66
3, 78632, Note_on_c, 1, 77, 0
3, 78632, Note_on_c, 1, 86, 0
3, 81602, Note_on_c, 1, 79, 70
3, 81602, Control_c, 1, 11, 77
3, 81602, Note_on_c, 1, 71, 70
3, 81698, Note_on_c, 1, 71, 0
3, 81698, Note_on_c, 1, 79, 0
3, 85442, Control_c, 1, 11, 77
3, 85442, Note_on_c, 1, 67, 88
3, 85442, Note_on_c, 1, 72, 88
3, 85552, Note_on_c, 1, 72, 0
3, 85552, Note_on_c, 1, 67, 0
3, 85562, Note_on_c, 1, 67, 88
3, 85562, Note_on_c, 1, 72, 88
3, 85642, Note_on_c, 1, 72, 0
3, 85642, Note_on_c, 1, 67, 0
3, 85652, Note_on_c, 1, 72, 88
3, 85652, Note_on_c, 1, 67, 88
3, 85672, Note_on_c, 1, 67, 0
3, 85672, Note_on_c, 1, 72, 0
3, 85682, Note_on_c, 1, 71, 88
3, 85682, Control_c, 1, 11, 89
3, 85682, Note_on_c, 1, 74, 88
3, 85700, Control_c, 1, 11, 87
3, 85718, Control_c, 1, 11, 86
3, 85736, Control_c, 1, 11, 84
3, 85754, Control_c, 1, 11, 82
3, 85772, Control_c, 1, 11, 80
3, 85790, Control_c, 1, 11, 78
3, 85802, Note_on_c, 1, 74, 0
3, 85802, Note_on_c, 1, 71, 0
3, 85802, Note_on_c, 1, 72, 88
3, 85802, Note_on_c, 1, 67, 88
3, 85862, Note_on_c, 1, 67, 0
3, 85862, Note_on_c, 1, 72, 0
3, 85922, Note_on_c, 1, 72, 88
3, 85922, Note_on_c, 1, 76, 88
3, 86032, Note_on_c, 1, 76, 0
3, 86032, Note_on_c, 1, 72, 0
3, 86042, Note_on_c, 1, 76, 88
3, 86042, Note_on_c, 1, 72, 88
3, 86122, Note_on_c, 1, 72, 0
3, 86122, Note_on_c, 1, 76, 0
3, 86132, Note_on_c, 1, 76, 88
3, 86132, Note_on_c, 1, 72, 88
3, 86152, Note_on_c, 1, 72, 0
3, 86152, Note_on_c, 1, 76, 0
3, 86162, Control_c, 1, 11, 89
3, 86162, Note_on_c, 1, 77, 88
3, 86162, Note_on_c, 1, 71, 88
3, 86180, Control_c, 1, 11, 87
3, 86198, Control_c, 1, 11, 86
3, 86216, Control_c, 1, 11, 84
3, 86234, Control_c, 1, 11, 82
3, 86252, Control_c, 1, 11, 80
3, 86270, Control_c, 1, 11, 78
3, 86282, Note_on_c, 1, 71, 0
3, 86282, Note_on_c, 1, 77, 0
3, 86282, Note_on_c, 1, 76, 88
3, 86282, Note_on_c, 1, 72, 88
3, 86342, Note_on_c, 1, 72, 0
3, 86342, Note_on_c, 1, 76, 0
3, 86402, Note_on_c, 1, 76, 98
3, 86402, Control_c, 1, 11, 52
3, 86402, Note_on_c, 1, 72, 98
3, 86512, Note_on_c, 1, 72, 0
3, 86512, Note_on_c, 1, 76, 0
3, 86522, Note_on_c, 1, 76, 98
3, 86522, Note_on_c, 1, 72, 98
3, 86602, Note_on_c, 1, 72, 0
3, 86602, Note_on_c, 1, 76, 0
3, 86612, Note_on_c, 1, 76, 98
3, 86612, Note_on_c, 1, 72, 98
3, 86632, Note_on_c, 1, 72, 0
3, 86632, Note_on_c, 1, 76, 0
3, 86642, Note_on_c, 1, 74, 98
3, 86642, Note_on_c, 1, 77, 98
3, 86702, Note_on_c, 1, 77, 0
3, 86702, Note_on_c, 1, 74, 0
3, 86882, Note_on_c, 1, 74, 98
3, 86882, Note_on_c, 1, 71, 98
3, 86942, Note_on_c, 1, 71, 0
3, 86942, Note_on_c, 1, 74, 0
3, 87122, Note_on_c, 1, 76, 98
3, 87122, Note_on_c, 1, 72, 98
3, 87182, Note_on_c, 1, 72, 0
3, 87182, Note_on_c, 1, 76, 0
3, 87362, Note_on_c, 1, 72, 88
3, 87362, Note_on_c, 1, 67, 88
3, 87472, Note_on_c, 1, 67, 0
3, 87472, Note_on_c, 1, 72, 0
3, 87482, Note_on_c, 1, 72, 88
3, 87482, Note_on_c, 1, 67, 88
3, 87562, Note_on_c, 1, 67, 0
3, 87562, Note_on_c, 1, 72, 0
3, 87572, Note_on_c, 1, 67, 88
3, 87572, Note_on_c, 1, 72, 88
3, 87592, Note_on_c, 1, 72, 0
3, 87592, Note_on_c, 1, 67, 0
3, 87602, Note_on_c, 1, 74, 88
3, 87602, Note_on_c, 1, 71, 88
3, 87722, Note_on_c, 1, 71, 0
3, 87722, Note_on_c, 1, 74, 0
3, 87722, Note_on_c, 1, 67, 88
3, 87722, Note_on_c, 1, 72, 88
3, 87782, Note_on_c, 1, 72, 0
3, 87782, Note_on_c, 1, 67, 0
3, 87842, Note_on_c, 1, 76, 88
3, 87842, Note_on_c, 1, 72, 88
3, 87952, Note_on_c, 1, 72, 0
3, 87952, Note_on_c, 1, 76, 0
3, 87962, Note_on_c, 1, 76, 88
3, 87962, Note_on_c, 1, 72, 88
3, 88042, Note_on_c, 1, 72, 0
3, 88042, Note_on_c, 1, 76, 0
3, 88052, Note_on_c, 1, 72, 88
3, 88052, Note_on_c, 1, 76, 88
3, 88072, Note_on_c, 1, 76, 0
3, 88072, Note_on_c, 1, 72, 0
3, 88082, Note_on_c, 1, 71, 88
3, 88082, Note_on_c, 1, 77, 88
3, 88202, Note_on_c, 1, 77, 0
3, 88202, Note_on_c, 1, 71, 0
3, 88202, Note_on_c, 1, 76, 88
3, 88202, Note_on_c, 1, 72, 88
3, 88262, Note_on_c, 1, 72, 0
3, 88262, Note_on_c, 1, 76, 0
3, 88322, Note_on_c, 1, 72, 88
3, 88322, Note_on_c, 1, 76, 88
3, 88432, Note_on_c, 1, 76, 0
3, 88432, Note_on_c, 1, 72, 0
3, 88442, Note_on_c, 1, 76, 88
3, 88442, Note_on_c, 1, 72, 88
3, 88522, Note_on_c, 1, 72, 0
3, 88522, Note_on_c, 1, 76, 0
3, 88532, Note_on_c, 1, 72, 88
3, 88532, Note_on_c, 1, 76, 88
3, 88552, Note_on_c, 1, 76, 0
3, 88552, Note_on_c, 1, 72, 0
3, 88562, Note_on_c, 1, 77, 88
3, 88562, Note_on_c, 1, 74, 88
3, 88622, Note_on_c, 1, 74, 0
3, 88622, Note_on_c, 1, 77, 0
3, 88682, Note_on_c, 1, 77, 98
3, 88682, Note_on_c, 1, 74, 98
3, 88742, Note_on_c, 1, 74, 0
3, 88742, Note_on_c, 1, 77, 0
3, 88922, Note_on_c, 1, 71, 98
3, 88922, Note_on_c, 1, 74, 98
3, 88982, Note_on_c, 1, 74, 0
3, 88982, Note_on_c, 1, 71, 0
3, 89162, Note_on_c, 1, 76, 98
3, 89162, Note_on_c, 1, 72, 98
3, 89222, Note_on_c, 1, 72, 0
3, 89222, Note_on_c, 1, 76, 0
3, 89282, Note_on_c, 1, 72, 98
3, 89282, Note_on_c, 1, 76, 98
3, 89392, Note_on_c, 1, 76, 0
3, 89392, Note_on_c, 1, 72, 0
3, 89402, Note_on_c, 1, 72, 98
3, 89402, Note_on_c, 1, 76, 98
3, 89482, Note_on_c, 1, 76, 0
3, 89482, Note_on_c, 1, 72, 0
3, 89492, Note_on_c, 1, 72, 98
3, 89492, Note_on_c, 1, 76, 98
3, 89512, Note_on_c, 1, 76, 0
3, 89512, Note_on_c, 1, 72, 0
3, 89522, Note_on_c, 1, 77, 98
3, 89522, Control_c, 1, 11, 52
3, 89522, Note_on_c, 1, 74, 98
3, 89541, Control_c, 1, 11, 53
3, 89560, Control_c, 1, 11, 54
3, 89579, Control_c, 1, 11, 55
3, 89582, Note_on_c, 1, 74, 0
3, 89582, Note_on_c, 1, 77, 0
3, 89598, Control_c, 1, 11, 56
3, 89618, Control_c, 1, 11, 57
3, 89637, Control_c, 1, 11, 58
3, 89642, Note_on_c, 1, 77, 98
3, 89642, Note_on_c, 1, 74, 98
3, 89656, Control_c, 1, 11, 59
3, 89675, Control_c, 1, 11, 60
3, 89694, Control_c, 1, 11, 61
3, 89702, Note_on_c, 1, 74, 0
3, 89702, Note_on_c, 1, 77, 0
3, 89714, Control_c, 1, 11, 62
3, 89733, Control_c, 1, 11, 62
3, 89752, Control_c, 1, 11, 63
3, 89771, Control_c, 1, 11, 63
3, 89790, Control_c, 1, 11, 64
3, 89810, Control_c, 1, 11, 65
3, 89829, Control_c, 1, 11, 65
3, 89848, Control_c, 1, 11, 66
3, 89867, Control_c, 1, 11, 66
3, 89886, Control_c, 1, 11, 67
3, 89906, Control_c, 1, 11, 68
3, 89925, Control_c, 1, 11, 68
3, 89944, Control_c, 1, 11, 69
3, 89963, Control_c, 1, 11, 70
3, 89982, Control_c, 1, 11, 70
3, 90002, Control_c, 1, 11, 71
3, 90021, Control_c, 1, 11, 71
3, 90040, Control_c, 1, 11, 72
3, 90059, Control_c, 1, 11, 73
3, 90078, Control_c, 1, 11, 73
3, 90098, Control_c, 1, 11, 74
3, 90117, Control_c, 1, 11, 74
3, 90136, Control_c, 1, 11, 75
3, 90152, Note_on_c, 1, 64, 94
3, 90152, Note_on_c, 1, 60, 94
3, 90155, Control_c, 1, 11, 76
3, 90167, Note_on_c, 1, 60, 0
3, 90167, Note_on_c, 1, 64, 0
3, 90174, Control_c, 1, 11, 76
3, 90182, Note_on_c, 1, 65, 98
3, 90182, Note_on_c, 1, 62, 98
3, 90194, Control_c, 1, 11, 77
3, 90197, Note_on_c, 1, 62, 0
3, 90197, Note_on_c, 1, 65, 0
3, 90212, Note_on_c, 1, 67, 103
3, 90212, Note_on_c, 1, 64, 103
3, 90213, Control_c, 1, 11, 78
3, 90227, Note_on_c, 1, 64, 0
3, 90227, Note_on_c, 1, 67, 0
3, 90232, Control_c, 1, 11, 78
3, 90242, Note_on_c, 1, 65, 108
3, 90242, Note_on_c, 1, 69, 108
3, 90251, Control_c, 1, 11, 79
3, 90257, Note_on_c, 1, 69, 0
3, 90257, Note_on_c, 1, 65, 0
3, 90270, Control_c, 1, 11, 79
3, 90272, Note_on_c, 1, 67, 114
3, 90272, Note_on_c, 1, 71, 114
3, 90287, Note_on_c, 1, 71, 0
3, 90287, Note_on_c, 1, 67, 0
3, 90290, Control_c, 1, 11, 80
3, 90302, Note_on_c, 1, 69, 120
3, 90302, Note_on_c, 1, 72, 120
3, 90309, Control_c, 1, 11, 81
3, 90317, Note_on_c, 1, 72, 0
3, 90317, Note_on_c, 1, 69, 0
3, 90328, Control_c, 1, 11, 81
3, 90332, Note_on_c, 1, 71, 125
3, 90332, Note_on_c, 1, 74, 125
3, 90347, Note_on_c, 1, 74, 0
3, 90347, Note_on_c, 1, 71, 0
3, 90347, Control_c, 1, 11, 82
3, 90362, Note_on_c, 1, 76, 109
3, 90362, Note_on_c, 1, 72, 109
3, 90366, Control_c, 1, 11, 82
3, 90386, Control_c, 1, 11, 83
3, 90392, Note_on_c, 1, 72, 0
3, 90392, Note_on_c, 1, 76, 0
3, 90405, Control_c, 1, 11, 84
3, 90422, Note_on_c, 1, 76, 98
3, 90422, Note_on_c, 1, 72, 98
3, 90424, Control_c, 1, 11, 84
3, 90443, Control_c, 1, 11, 85
3, 90452, Note_on_c, 1, 72, 0
3, 90452, Note_on_c, 1, 76, 0
3, 90462, Control_c, 1, 11, 86
3, 90482, Control_c, 1, 11, 86
3, 90482, Note_on_c, 1, 74, 98
3, 90482, Note_on_c, 1, 77, 98
3, 90722, Note_on_c, 1, 77, 0
3, 90722, Note_on_c, 1, 74, 0
3, 90722, Note_on_c, 1, 74, 98
3, 90722, Note_on_c, 1, 71, 98
3, 90962, Note_on_c, 1, 71, 0
3, 90962, Note_on_c, 1, 74, 0
3, 90962, Control_c, 1, 11, 98
3, 90962, Note_on_c, 1, 72, 88
3, 90980, Control_c, 1, 11, 97
3, 90998, Control_c, 1, 11, 95
3, 91016, Control_c, 1, 11, 93
3, 91034, Control_c, 1, 11, 91
3, 91052, Control_c, 1, 11, 89
3, 91070, Control_c, 1, 11, 87
3, 91322, Note_on_c, 1, 72, 0
3, 91322, Note_on_c, 1, 72, 88
3, 91352, Note_on_c, 1, 72, 0
3, 91382, Note_on_c, 1, 72, 88
3, 91412, Note_on_c, 1, 72, 0
3, 91442, Note_on_c, 1, 76, 88
3, 91442, Control_c, 1, 11, 98
3, 91460, Control_c, 1, 11, 97
3, 91478, Control_c, 1, 11, 95
3, 91496, Control_c, 1, 11, 93
3, 91514, Control_c, 1, 11, 91
3, 91532, Control_c, 1, 11, 89
3, 91550, Control_c, 1, 11, 87
3, 91802, Note_on_c, 1, 76, 0
3, 91802, Note_on_c, 1, 76, 88
3, 91832, Note_on_c, 1, 76, 0
3, 91862, Note_on_c, 1, 76, 88
3, 91892, Note_on_c, 1, 76, 0
3, 91922, Control_c, 1, 11, 92
3, 91922, Note_on_c, 1, 79, 88
3, 91940, Control_c, 1, 11, 90
3, 91958, Control_c, 1, 11, 89
3, 91976, Control_c, 1, 11, 87
3, 92162, Note_on_c, 1, 79, 0
3, 92162, Note_on_c, 1, 76, 88
3, 92222, Note_on_c, 1, 76, 0
3, 92282, Note_on_c, 1, 84, 88
3, 92342, Note_on_c, 1, 84, 0
3, 92402, Note_on_c, 1, 79, 88
3, 92462, Note_on_c, 1, 79, 0
3, 92522, Note_on_c, 1, 76, 88
3, 92582, Note_on_c, 1, 76, 0
3, 92642, Note_on_c, 1, 72, 88
3, 92702, Note_on_c, 1, 72, 0
3, 92762, Note_on_c, 1, 67, 88
3, 92822, Note_on_c, 1, 67, 0
3, 92882, Note_on_c, 1, 72, 88
3, 92978, Note_on_c, 1, 72, 0
3, 93122, Note_on_c, 1, 74, 88
3, 93122, Note_on_c, 1, 83, 88
3, 93218, Note_on_c, 1, 83, 0
3, 93218, Note_on_c, 1, 74, 0
3, 93362, Note_on_c, 1, 84, 88
3, 93362, Note_on_c, 1, 76, 88
3, 93458, Note_on_c, 1, 76, 0
3, 93458, Note_on_c, 1, 84, 0
3, 93602, Note_on_c, 1, 74, 88
3, 93602, Note_on_c, 1, 83, 88
3, 93698, Note_on_c, 1, 83, 0
3, 93698, Note_on_c, 1, 74, 0
3, 93842, Note_on_c, 1, 84, 88
3, 93842, Note_on_c, 1, 76, 88
3, 93938, Note_on_c, 1, 76, 0
3, 93938, Note_on_c, 1, 84, 0
3, 94082, Note_on_c, 1, 84, 97
3, 94082, Note_on_c, 1, 76, 97
3, 94184, Note_on_c, 1, 76, 0
3, 94184, Note_on_c, 1, 84, 0
3, 94322, Note_on_c, 1, 72, 88
3, 94442, Note_on_c, 1, 72, 0
3, 94562, Control_c, 1, 121, 0
3, 94562, End_track
4, 0, Start_track
4, 0, MIDI_port, 0
4, 0, Title_t, "2 Clarinetti in C"
4, 0, Program_c, 2, 71
4, 0, Control_c, 2, 10, 65
4, 4, Control_c, 2, 121, 0
4, 9, Program_c, 2, 71
4, 14, Pitch_bend_c, 2, 8192
4, 19, Control_c, 2, 11, 86
4, 24, Control_c, 2, 7, 127
4, 29, Control_c, 2, 91, 54
4, 34, Control_c, 2, 93, 0
4, 39, Control_c, 2, 10, 65
4, 244, Control_c, 2, 11, 68
4, 244, Note_on_c, 2, 79, 88
4, 244, Note_on_c, 2, 67, 88
4, 247, Control_c, 2, 11, 71
4, 251, Control_c, 2, 11, 74
4, 254, Control_c, 2, 11, 77
4, 257, Control_c, 2, 11, 80
4, 261, Control_c, 2, 11, 84
4, 379, Control_c, 2, 11, 86
4, 381, Control_c, 2, 11, 81
4, 383, Control_c, 2, 11, 77
4, 384, Control_c, 2, 11, 74
4, 386, Control_c, 2, 11, 70
4, 388, Control_c, 2, 11, 66
4, 389, Control_c, 2, 11, 63
4, 391, Control_c, 2, 11, 58
4, 392, Control_c, 2, 11, 54
4, 393, Control_c, 2, 11, 50
4, 394, Note_on_c, 2, 67, 0
4, 394, Note_on_c, 2, 79, 0
4, 394, Control_c, 2, 11, 47
4, 6424, Note_on_c, 2, 76, 88
4, 6424, Note_on_c, 2, 72, 88
4, 6424, Control_c, 2, 11, 86
4, 6454, Note_on_c, 2, 72, 0
4, 6454, Note_on_c, 2, 76, 0
4, 6484, Note_on_c, 2, 72, 88
4, 6484, Note_on_c, 2, 76, 88
4, 6534, Note_on_c, 2, 76, 0
4, 6534, Note_on_c, 2, 72, 0
4, 6544, Note_on_c, 2, 72, 88
4, 6544, Note_on_c, 2, 76, 88
4, 6594, Note_on_c, 2, 76, 0
4, 6594, Note_on_c, 2, 72, 0
4, 6604, Note_on_c, 2, 72, 88
4, 6604, Note_on_c, 2, 76, 88
4, 6654, Note_on_c, 2, 76, 0
4, 6654, Note_on_c, 2, 72, 0
4, 6664, Note_on_c, 2, 76, 88
4, 6664, Note_on_c, 2, 72, 88
4, 6714, Note_on_c, 2, 72, 0
4, 6714, Note_on_c, 2, 76, 0
4, 6724, Note_on_c, 2, 72, 88
4, 6724, Note_on_c, 2, 74, 88
4, 6784, Note_on_c, 2, 74, 0
4, 6784, Note_on_c, 2, 72, 0
4, 6844, Note_on_c, 2, 69, 88
4, 6844, Note_on_c, 2, 65, 88
4, 6904, Note_on_c, 2, 65, 0
4, 6904, Note_on_c, 2, 69, 0
4, 6964, Note_on_c, 2, 67, 88
4, 6964, Note_on_c, 2, 64, 88
4, 7024, Note_on_c, 2, 64, 0
4, 7024, Note_on_c, 2, 67, 0
4, 7084, Note_on_c, 2, 71, 88
4, 7084, Note_on_c, 2, 62, 88
4, 7144, Note_on_c, 2, 62, 0
4, 7144, Note_on_c, 2, 71, 0
4, 7204, Note_on_c, 2, 72, 88
4, 7204, Note_on_c, 2, 64, 88
4, 7324, Note_on_c, 2, 64, 0
4, 7324, Note_on_c, 2, 72, 0
4, 8164, Note_on_c, 2, 79, 88
4, 8164, Control_c, 2, 11, 77
4, 8334, Note_on_c, 2, 79, 0
4, 8344, Note_on_c, 2, 76, 88
4, 8394, Note_on_c, 2, 76, 0
4, 8404, Note_on_c, 2, 77, 88
4, 8454, Note_on_c, 2, 77, 0
4, 8464, Note_on_c, 2, 74, 88
4, 8514, Note_on_c, 2, 74, 0
4, 8524, Note_on_c, 2, 71, 88
4, 8574, Note_on_c, 2, 71, 0
4, 8584, Note_on_c, 2, 67, 88
4, 8634, Note_on_c, 2, 67, 0
4, 8644, Note_on_c, 2, 72, 88
4, 8764, Note_on_c, 2, 72, 0
4, 9244, Note_on_c, 2, 76, 88
4, 9244, Note_on_c, 2, 72, 88
4, 9604, Note_on_c, 2, 76, 0
4, 9604, Note_on_c, 2, 74, 88
4, 9724, Note_on_c, 2, 72, 0
4, 9724, Note_on_c, 2, 71, 88
4, 10084, Note_on_c, 2, 74, 0
4, 10084, Note_on_c, 2, 72, 88
4, 10204, Note_on_c, 2, 71, 0
4, 10204, Note_on_c, 2, 69, 88
4, 10324, Note_on_c, 2, 72, 0
4, 10324, Note_on_c, 2, 71, 88
4, 10444, Note_on_c, 2, 69, 0
4, 10444, Note_on_c, 2, 67, 88
4, 10564, Note_on_c, 2, 67, 0
4, 10564, Note_on_c, 2, 71, 0
4, 10564, Note_on_c, 2, 69, 88
4, 10564, Note_on_c, 2, 64, 88
4, 10684, Note_on_c, 2, 64, 0
4, 10684, Note_on_c, 2, 69, 0
4, 10804, Note_on_c, 2, 64, 88
4, 10804, Note_on_c, 2, 69, 88
4, 10924, Note_on_c, 2, 69, 0
4, 10924, Note_on_c, 2, 64, 0
4, 11044, Note_on_c, 2, 69, 88
4, 11044, Note_on_c, 2, 66, 88
4, 11164, Note_on_c, 2, 66, 0
4, 11164, Note_on_c, 2, 69, 0
4, 11404, Note_on_c, 2, 69, 88
4, 11404, Note_on_c, 2, 66, 88
4, 11524, Note_on_c, 2, 66, 0
4, 11524, Note_on_c, 2, 69, 0
4, 11524, Note_on_c, 2, 67, 88
4, 11524, Note_on_c, 2, 71, 88
4, 12004, Note_on_c, 2, 71, 0
4, 12004, Note_on_c, 2, 67, 0
4, 12004, Note_on_c, 2, 66, 88
4, 12004, Note_on_c, 2, 69, 88
4, 12034, Note_on_c, 2, 69, 0
4, 12034, Note_on_c, 2, 66, 0
4, 12064, Note_on_c, 2, 74, 88
4, 12064, Note_on_c, 2, 62, 88
4, 12094, Note_on_c, 2, 62, 0
4, 12094, Note_on_c, 2, 74, 0
4, 12124, Note_on_c, 2, 74, 88
4, 12124, Note_on_c, 2, 62, 88
4, 12154, Note_on_c, 2, 62, 0
4, 12154, Note_on_c, 2, 74, 0
4, 12184, Note_on_c, 2, 74, 88
4, 12184, Note_on_c, 2, 62, 88
4, 12214, Note_on_c, 2, 62, 0
4, 12214, Note_on_c, 2, 74, 0
4, 12244, Note_on_c, 2, 62, 88
4, 12244, Note_on_c, 2, 74, 88
4, 12604, Note_on_c, 2, 74, 0
4, 12604, Note_on_c, 2, 62, 0
4, 12604, Note_on_c, 2, 74, 88
4, 12604, Note_on_c, 2, 62, 88
4, 12724, Note_on_c, 2, 62, 0
4, 12724, Note_on_c, 2, 74, 0
4, 12724, Note_on_c, 2, 74, 88
4, 12724, Note_on_c, 2, 62, 88
4, 12844, Note_on_c, 2, 62, 0
4, 12844, Note_on_c, 2, 74, 0
4, 12844, Note_on_c, 2, 74, 88
4, 12844, Note_on_c, 2, 62, 88
4, 12964, Note_on_c, 2, 62, 0
4, 12964, Note_on_c, 2, 74, 0
4, 12964, Note_on_c, 2, 74, 88
4, 12964, Note_on_c, 2, 62, 88
4, 13084, Note_on_c, 2, 62, 0
4, 13084, Note_on_c, 2, 74, 0
4, 13444, Note_on_c, 2, 62, 98
4, 13444, Control_c, 2, 11, 37
4, 13444, Note_on_c, 2, 74, 98
4, 13468, Control_c, 2, 11, 39
4, 13492, Control_c, 2, 11, 41
4, 13516, Control_c, 2, 11, 43
4, 13540, Control_c, 2, 11, 45
4, 13564, Control_c, 2, 11, 47
4, 14524, Note_on_c, 2, 74, 0
4, 14524, Note_on_c, 2, 62, 0
4, 15364, Note_on_c, 2, 74, 98
4, 15364, Note_on_c, 2, 62, 98
4, 15604, Control_c, 2, 11, 47
4, 15634, Control_c, 2, 11, 48
4, 15664, Control_c, 2, 11, 49
4, 15694, Control_c, 2, 11, 50
4, 15724, Control_c, 2, 11, 51
4, 15754, Control_c, 2, 11, 52
4, 15784, Control_c, 2, 11, 53
4, 15814, Control_c, 2, 11, 54
4, 15844, Control_c, 2, 11, 55
4, 15874, Control_c, 2, 11, 56
4, 15904, Control_c, 2, 11, 57
4, 15934, Control_c, 2, 11, 58
4, 15964, Note_on_c, 2, 62, 0
4, 15964, Note_on_c, 2, 74, 0
4, 15964, Note_on_c, 2, 67, 98
4, 15964, Control_c, 2, 11, 59
4, 15964, Note_on_c, 2, 79, 98
4, 15994, Control_c, 2, 11, 60
4, 16024, Control_c, 2, 11, 61
4, 16054, Control_c, 2, 11, 62
4, 16084, Control_c, 2, 11, 62
4, 16114, Control_c, 2, 11, 63
4, 16144, Control_c, 2, 11, 63
4, 16174, Control_c, 2, 11, 64
4, 16204, Control_c, 2, 11, 65
4, 16234, Control_c, 2, 11, 65
4, 16264, Control_c, 2, 11, 66
4, 16294, Control_c, 2, 11, 66
4, 16324, Control_c, 2, 11, 67
4, 16354, Control_c, 2, 11, 68
4, 16384, Control_c, 2, 11, 68
4, 16414, Control_c, 2, 11, 69
4, 16444, Control_c, 2, 11, 70
4, 16474, Control_c, 2, 11, 70
4, 16504, Control_c, 2, 11, 71
4, 16534, Control_c, 2, 11, 71
4, 16564, Control_c, 2, 11, 72
4, 16594, Control_c, 2, 11, 73
4, 16624, Control_c, 2, 11, 73
4, 16654, Control_c, 2, 11, 74
4, 16684, Control_c, 2, 11, 74
4, 16714, Control_c, 2, 11, 75
4, 16744, Control_c, 2, 11, 76
4, 16774, Control_c, 2, 11, 76
4, 16804, Note_on_c, 2, 79, 0
4, 16804, Note_on_c, 2, 67, 0
4, 16804, Note_on_c, 2, 80, 88
4, 16804, Control_c, 2, 11, 77
4, 16804, Note_on_c, 2, 68, 88
4, 17044, Note_on_c, 2, 68, 0
4, 17044, Note_on_c, 2, 80, 0
4, 18784, Note_on_c, 2, 74, 88
4, 18784, Control_c, 2, 11, 98
4, 18784, Note_on_c, 2, 71, 88
4, 18802, Control_c, 2, 11, 97
4, 18820, Control_c, 2, 11, 95
4, 18838, Control_c, 2, 11, 93
4, 18856, Control_c, 2, 11, 91
4, 18874, Control_c, 2, 11, 89
4, 18889, Note_on_c, 2, 71, 0
4, 18889, Note_on_c, 2, 74, 0
4, 18892, Control_c, 2, 11, 87
4, 18904, Note_on_c, 2, 71, 88
4, 18904, Note_on_c, 2, 74, 88
4, 18954, Note_on_c, 2, 74, 0
4, 18954, Note_on_c, 2, 71, 0
4, 18964, Note_on_c, 2, 67, 88
4, 18964, Note_on_c, 2, 71, 88
4, 19024, Note_on_c, 2, 71, 0
4, 19024, Note_on_c, 2, 67, 0
4, 19264, Control_c, 2, 11, 98
4, 19264, Note_on_c, 2, 71, 88
4, 19264, Note_on_c, 2, 74, 88
4, 19282, Control_c, 2, 11, 97
4, 19300, Control_c, 2, 11, 95
4, 19318, Control_c, 2, 11, 93
4, 19336, Control_c, 2, 11, 91
4, 19354, Control_c, 2, 11, 89
4, 19369, Note_on_c, 2, 74, 0
4, 19369, Note_on_c, 2, 71, 0
4, 19372, Control_c, 2, 11, 87
4, 19384, Note_on_c, 2, 74, 88
4, 19384, Note_on_c, 2, 71, 88
4, 19434, Note_on_c, 2, 71, 0
4, 19434, Note_on_c, 2, 74, 0
4, 19444, Note_on_c, 2, 67, 88
4, 19444, Note_on_c, 2, 71, 88
4, 19504, Note_on_c, 2, 71, 0
4, 19504, Note_on_c, 2, 67, 0
4, 19744, Control_c, 2, 11, 98
4, 19744, Note_on_c, 2, 71, 88
4, 19744, Note_on_c, 2, 74, 88
4, 19762, Control_c, 2, 11, 97
4, 19780, Control_c, 2, 11, 95
4, 19798, Control_c, 2, 11, 93
4, 19816, Control_c, 2, 11, 91
4, 19834, Control_c, 2, 11, 89
4, 19852, Control_c, 2, 11, 87
4, 19854, Note_on_c, 2, 74, 0
4, 19854, Note_on_c, 2, 71, 0
4, 19864, Note_on_c, 2, 74, 88
4, 19864, Note_on_c, 2, 71, 88
4, 19914, Note_on_c, 2, 71, 0
4, 19914, Note_on_c, 2, 74, 0
4, 19924, Note_on_c, 2, 71, 88
4, 19924, Note_on_c, 2, 67, 88
4, 19984, Note_on_c, 2, 67, 0
4, 19984, Note_on_c, 2, 71, 0
4, 20224, Note_on_c, 2, 74, 88
4, 20224, Note_on_c, 2, 71, 88
4, 20224, Control_c, 2, 11, 98
4, 20242, Control_c, 2, 11, 97
4, 20260, Control_c, 2, 11, 95
4, 20278, Control_c, 2, 11, 93
4, 20296, Control_c, 2, 11, 91
4, 20314, Control_c, 2, 11, 89
4, 20329, Note_on_c, 2, 71, 0
4, 20329, Note_on_c, 2, 74, 0
4, 20332, Control_c, 2, 11, 87
4, 20344, Note_on_c, 2, 71, 88
4, 20344, Note_on_c, 2, 74, 88
4, 20394, Note_on_c, 2, 74, 0
4, 20394, Note_on_c, 2, 71, 0
4, 20404, Note_on_c, 2, 67, 88
4, 20404, Note_on_c, 2, 71, 88
4, 20464, Note_on_c, 2, 71, 0
4, 20464, Note_on_c, 2, 67, 0
4, 20644, Control_c, 2, 11, 98
4, 20644, Note_on_c, 2, 67, 88
4, 20644, Note_on_c, 2, 71, 88
4, 20661, Control_c, 2, 11, 97
4, 20679, Control_c, 2, 11, 95
4, 20697, Control_c, 2, 11, 93
4, 20715, Control_c, 2, 11, 91
4, 20733, Control_c, 2, 11, 89
4, 20751, Control_c, 2, 11, 87
4, 20989, Note_on_c, 2, 71, 0
4, 20989, Note_on_c, 2, 67, 0
4, 21004, Note_on_c, 2, 67, 88
4, 21004, Note_on_c, 2, 71, 88
4, 21034, Note_on_c, 2, 71, 0
4, 21034, Note_on_c, 2, 67, 0
4, 21064, Note_on_c, 2, 67, 88
4, 21064, Note_on_c, 2, 71, 88
4, 21094, Note_on_c, 2, 71, 0
4, 21094, Note_on_c, 2, 67, 0
4, 21124, Note_on_c, 2, 67, 88
4, 21124, Control_c, 2, 11, 98
4, 21124, Note_on_c, 2, 72, 88
4, 21141, Control_c, 2, 11, 97
4, 21159, Control_c, 2, 11, 95
4, 21177, Control_c, 2, 11, 93
4, 21195, Control_c, 2, 11, 91
4, 21213, Control_c, 2, 11, 89
4, 21231, Control_c, 2, 11, 87
4, 21469, Note_on_c, 2, 72, 0
4, 21469, Note_on_c, 2, 67, 0
4, 21484, Note_on_c, 2, 72, 88
4, 21484, Note_on_c, 2, 67, 88
4, 21514, Note_on_c, 2, 67, 0
4, 21514, Note_on_c, 2, 72, 0
4, 21544, Note_on_c, 2, 72, 88
4, 21544, Note_on_c, 2, 67, 88
4, 21574, Note_on_c, 2, 67, 0
4, 21574, Note_on_c, 2, 72, 0
4, 21604, Control_c, 2, 11, 98
4, 21604, Note_on_c, 2, 67, 88
4, 21604, Note_on_c, 2, 74, 88
4, 21621, Control_c, 2, 11, 97
4, 21639, Control_c, 2, 11, 95
4, 21657, Control_c, 2, 11, 93
4, 21675, Control_c, 2, 11, 91
4, 21693, Control_c, 2, 11, 89
4, 21711, Control_c, 2, 11, 87
4, 21949, Note_on_c, 2, 74, 0
4, 21949, Note_on_c, 2, 67, 0
4, 21964, Note_on_c, 2, 67, 88
4, 21964, Note_on_c, 2, 74, 88
4, 21994, Note_on_c, 2, 74, 0
4, 21994, Note_on_c, 2, 67, 0
4, 22024, Note_on_c, 2, 67, 88
4, 22024, Note_on_c, 2, 74, 88
4, 22054, Note_on_c, 2, 74, 0
4, 22054, Note_on_c, 2, 67, 0
4, 22084, Note_on_c, 2, 67, 88
4, 22084, Control_c, 2, 11, 98
4, 22084, Note_on_c, 2, 64, 88
4, 22101, Control_c, 2, 11, 97
4, 22119, Control_c, 2, 11, 95
4, 22137, Control_c, 2, 11, 93
4, 22155, Control_c, 2, 11, 91
4, 22173, Control_c, 2, 11, 89
4, 22191, Control_c, 2, 11, 87
4, 22429, Note_on_c, 2, 64, 0
4, 22429, Note_on_c, 2, 67, 0
4, 22444, Note_on_c, 2, 64, 88
4, 22444, Note_on_c, 2, 67, 88
4, 22474, Note_on_c, 2, 67, 0
4, 22474, Note_on_c, 2, 64, 0
4, 22504, Note_on_c, 2, 64, 88
4, 22504, Note_on_c, 2, 67, 88
4, 22534, Note_on_c, 2, 67, 0
4, 22534, Note_on_c, 2, 64, 0
4, 22564, Note_on_c, 2, 65, 88
4, 22564, Note_on_c, 2, 77, 88
4, 22564, Control_c, 2, 11, 98
4, 22581, Control_c, 2, 11, 97
4, 22599, Control_c, 2, 11, 95
4, 22617, Control_c, 2, 11, 93
4, 22635, Control_c, 2, 11, 91
4, 22653, Control_c, 2, 11, 89
4, 22671, Control_c, 2, 11, 87
4, 22744, Note_on_c, 2, 77, 0
4, 22744, Note_on_c, 2, 65, 0
4, 22744, Note_on_c, 2, 64, 88
4, 22744, Note_on_c, 2, 76, 88
4, 22789, Note_on_c, 2, 76, 0
4, 22789, Note_on_c, 2, 64, 0
4, 22804, Control_c, 2, 11, 98
4, 22804, Note_on_c, 2, 65, 88
4, 22804, Note_on_c, 2, 77, 88
4, 22821, Control_c, 2, 11, 97
4, 22839, Control_c, 2, 11, 95
4, 22857, Control_c, 2, 11, 93
4, 22875, Control_c, 2, 11, 91
4, 22893, Control_c, 2, 11, 89
4, 22911, Control_c, 2, 11, 87
4, 22984, Note_on_c, 2, 77, 0
4, 22984, Note_on_c, 2, 65, 0
4, 22984, Note_on_c, 2, 64, 88
4, 22984, Note_on_c, 2, 76, 88
4, 23029, Note_on_c, 2, 76, 0
4, 23029, Note_on_c, 2, 64, 0
4, 23044, Control_c, 2, 11, 77
4, 23044, Note_on_c, 2, 65, 88
4, 23044, Note_on_c, 2, 77, 88
4, 23089, Note_on_c, 2, 77, 0
4, 23089, Note_on_c, 2, 65, 0
4, 28024, Note_on_c, 2, 76, 88
4, 28024, Note_on_c, 2, 72, 88
4, 28024, Control_c, 2, 11, 86
4, 28054, Note_on_c, 2, 72, 0
4, 28054, Note_on_c, 2, 76, 0
4, 28084, Note_on_c, 2, 72, 88
4, 28084, Note_on_c, 2, 76, 88
4, 28134, Note_on_c, 2, 76, 0
4, 28134, Note_on_c, 2, 72, 0
4, 28144, Note_on_c, 2, 72, 88
4, 28144, Note_on_c, 2, 76, 88
4, 28194, Note_on_c, 2, 76, 0
4, 28194, Note_on_c, 2, 72, 0
4, 28204, Note_on_c, 2, 72, 88
4, 28204, Note_on_c, 2, 76, 88
4, 28254, Note_on_c, 2, 76, 0
4, 28254, Note_on_c, 2, 72, 0
4, 28264, Note_on_c, 2, 72, 88
4, 28264, Note_on_c, 2, 76, 88
4, 28314, Note_on_c, 2, 76, 0
4, 28314, Note_on_c, 2, 72, 0
4, 28324, Note_on_c, 2, 74, 88
4, 28324, Note_on_c, 2, 72, 88
4, 28384, Note_on_c, 2, 72, 0
4, 28384, Note_on_c, 2, 74, 0
4, 28444, Note_on_c, 2, 65, 88
4, 28444, Note_on_c, 2, 69, 88
4, 28504, Note_on_c, 2, 69, 0
4, 28504, Note_on_c, 2, 65, 0
4, 28564, Note_on_c, 2, 64, 88
4, 28564, Note_on_c, 2, 67, 88
4, 28624, Note_on_c, 2, 67, 0
4, 28624, Note_on_c, 2, 64, 0
4, 28684, Note_on_c, 2, 62, 88
4, 28684, Note_on_c, 2, 71, 88
4, 28744, Note_on_c, 2, 71, 0
4, 28744, Note_on_c, 2, 62, 0
4, 28804, Note_on_c, 2, 64, 88
4, 28804, Note_on_c, 2, 72, 88
4, 28924, Note_on_c, 2, 72, 0
4, 28924, Note_on_c, 2, 64, 0
4, 29764, Control_c, 2, 11, 77
4, 29764, Note_on_c, 2, 79, 88
4, 29934, Note_on_c, 2, 79, 0
4, 29944, Note_on_c, 2, 76, 88
4, 29994, Note_on_c, 2, 76, 0
4, 30004, Note_on_c, 2, 77, 88
4, 30054, Note_on_c, 2, 77, 0
4, 30064, Note_on_c, 2, 74, 88
4, 30114, Note_on_c, 2, 74, 0
4, 30124, Note_on_c, 2, 71, 88
4, 30174, Note_on_c, 2, 71, 0
4, 30184, Note_on_c, 2, 67, 88
4, 30234, Note_on_c, 2, 67, 0
4, 30244, Note_on_c, 2, 72, 88
4, 30364, Note_on_c, 2, 72, 0
4, 30844, Note_on_c, 2, 76, 88
4, 30844, Note_on_c, 2, 72, 88
4, 31204, Note_on_c, 2, 76, 0
4, 31204, Note_on_c, 2, 74, 88
4, 31324, Note_on_c, 2, 72, 0
4, 31324, Note_on_c, 2, 71, 88
4, 31684, Note_on_c, 2, 74, 0
4, 31684, Note_on_c, 2, 72, 88
4, 31804, Note_on_c, 2, 71, 0
4, 31804, Note_on_c, 2, 69, 88
4, 31924, Note_on_c, 2, 72, 0
4, 31924, Note_on_c, 2, 71, 88
4, 32044, Note_on_c, 2, 69, 0
4, 32044, Note_on_c, 2, 67, 88
4, 32164, Note_on_c, 2, 67, 0
4, 32164, Note_on_c, 2, 71, 0
4, 32164, Note_on_c, 2, 69, 88
4, 32164, Note_on_c, 2, 64, 88
4, 32284, Note_on_c, 2, 64, 0
4, 32284, Note_on_c, 2, 69, 0
4, 32404, Note_on_c, 2, 64, 88
4, 32404, Note_on_c, 2, 69, 88
4, 32524, Note_on_c, 2, 69, 0
4, 32524, Note_on_c, 2, 64, 0
4, 32644, Note_on_c, 2, 69, 88
4, 32644, Note_on_c, 2, 66, 88
4, 32764, Note_on_c, 2, 66, 0
4, 32764, Note_on_c, 2, 69, 0
4, 33004, Note_on_c, 2, 69, 88
4, 33004, Note_on_c, 2, 66, 88
4, 33124, Note_on_c, 2, 66, 0
4, 33124, Note_on_c, 2, 69, 0
4, 33124, Note_on_c, 2, 67, 88
4, 33124, Note_on_c, 2, 71, 88
4, 33604, Note_on_c, 2, 71, 0
4, 33604, Note_on_c, 2, 67, 0
4, 33604, Note_on_c, 2, 66, 88
4, 33604, Note_on_c, 2, 69, 88
4, 33634, Note_on_c, 2, 69, 0
4, 33634, Note_on_c, 2, 66, 0
4, 33664, Note_on_c, 2, 74, 88
4, 33664, Note_on_c, 2, 62, 88
4, 33694, Note_on_c, 2, 62, 0
4, 33694, Note_on_c, 2, 74, 0
4, 33724, Note_on_c, 2, 74, 88
4, 33724, Note_on_c, 2, 62, 88
4, 33754, Note_on_c, 2, 62, 0
4, 33754, Note_on_c, 2, 74, 0
4, 33784, Note_on_c, 2, 74, 88
4, 33784, Note_on_c, 2, 62, 88
4, 33814, Note_on_c, 2, 62, 0
4, 33814, Note_on_c, 2, 74, 0
4, 33844, Note_on_c, 2, 62, 88
4, 33844, Note_on_c, 2, 74, 88
4, 34204, Note_on_c, 2, 74, 0
4, 34204, Note_on_c, 2, 62, 0
4, 34204, Note_on_c, 2, 74, 88
4, 34204, Note_on_c, 2, 62, 88
4, 34324, Note_on_c, 2, 62, 0
4, 34324, Note_on_c, 2, 74, 0
4, 34324, Note_on_c, 2, 74, 88
4, 34324, Note_on_c, 2, 62, 88
4, 34444, Note_on_c, 2, 62, 0
4, 34444, Note_on_c, 2, 74, 0
4, 34444, Note_on_c, 2, 74, 88
4, 34444, Note_on_c, 2, 62, 88
4, 34564, Note_on_c, 2, 62, 0
4, 34564, Note_on_c, 2, 74, 0
4, 34564, Note_on_c, 2, 74, 88
4, 34564, Note_on_c, 2, 62, 88
4, 34684, Note_on_c, 2, 62, 0
4, 34684, Note_on_c, 2, 74, 0
4, 35044, Note_on_c, 2, 62, 98
4, 35044, Control_c, 2, 11, 37
4, 35044, Note_on_c, 2, 74, 98
4, 35068, Control_c, 2, 11, 39
4, 35092, Control_c, 2, 11, 41
4, 35116, Control_c, 2, 11, 43
4, 35140, Control_c, 2, 11, 45
4, 35164, Control_c, 2, 11, 47
4, 36124, Note_on_c, 2, 74, 0
4, 36124, Note_on_c, 2, 62, 0
4, 36964, Note_on_c, 2, 74, 98
4, 36964, Note_on_c, 2, 62, 98
4, 37204, Control_c, 2, 11, 47
4, 37234, Control_c, 2, 11, 48
4, 37264, Control_c, 2, 11, 49
4, 37294, Control_c, 2, 11, 50
4, 37324, Control_c, 2, 11, 51
4, 37354, Control_c, 2, 11, 52
4, 37384, Control_c, 2, 11, 53
4, 37414, Control_c, 2, 11, 54
4, 37444, Control_c, 2, 11, 55
4, 37474, Control_c, 2, 11, 56
4, 37504, Control_c, 2, 11, 57
4, 37534, Control_c, 2, 11, 58
4, 37564, Note_on_c, 2, 62, 0
4, 37564, Note_on_c, 2, 74, 0
4, 37564, Note_on_c, 2, 79, 98
4, 37564, Control_c, 2, 11, 59
4, 37564, Note_on_c, 2, 67, 98
4, 37594, Control_c, 2, 11, 60
4, 37624, Control_c, 2, 11, 61
4, 37654, Control_c, 2, 11, 62
4, 37684, Control_c, 2, 11, 62
4, 37714, Control_c, 2, 11, 63
4, 37744, Control_c, 2, 11, 63
4, 37774, Control_c, 2, 11, 64
4, 37804, Control_c, 2, 11, 65
4, 37834, Control_c, 2, 11, 65
4, 37864, Control_c, 2, 11, 66
4, 37894, Control_c, 2, 11, 66
4, 37924, Control_c, 2, 11, 67
4, 37954, Control_c, 2, 11, 68
4, 37984, Control_c, 2, 11, 68
4, 38014, Control_c, 2, 11, 69
4, 38044, Control_c, 2, 11, 70
4, 38074, Control_c, 2, 11, 70
4, 38104, Control_c, 2, 11, 71
4, 38134, Control_c, 2, 11, 71
4, 38164, Control_c, 2, 11, 72
4, 38194, Control_c, 2, 11, 73
4, 38224, Control_c, 2, 11, 73
4, 38254, Control_c, 2, 11, 74
4, 38284, Control_c, 2, 11, 74
4, 38314, Control_c, 2, 11, 75
4, 38344, Control_c, 2, 11, 76
4, 38374, Control_c, 2, 11, 76
4, 38404, Note_on_c, 2, 67, 0
4, 38404, Note_on_c, 2, 79, 0
4, 38404, Note_on_c, 2, 80, 88
4, 38404, Control_c, 2, 11, 77
4, 38404, Note_on_c, 2, 68, 88
4, 38644, Note_on_c, 2, 68, 0
4, 38644, Note_on_c, 2, 80, 0
4, 40384, Note_on_c, 2, 74, 88
4, 40384, Note_on_c, 2, 71, 88
4, 40384, Control_c, 2, 11, 98
4, 40402, Control_c, 2, 11, 97
4, 40420, Control_c, 2, 11, 95
4, 40438, Control_c, 2, 11, 93
4, 40456, Control_c, 2, 11, 91
4, 40474, Control_c, 2, 11, 89
4, 40489, Note_on_c, 2, 71, 0
4, 40489, Note_on_c, 2, 74, 0
4, 40492, Control_c, 2, 11, 87
4, 40504, Note_on_c, 2, 74, 88
4, 40504, Note_on_c, 2, 71, 88
4, 40554, Note_on_c, 2, 71, 0
4, 40554, Note_on_c, 2, 74, 0
4, 40564, Note_on_c, 2, 67, 88
4, 40564, Note_on_c, 2, 71, 88
4, 40624, Note_on_c, 2, 71, 0
4, 40624, Note_on_c, 2, 67, 0
4, 40864, Control_c, 2, 11, 98
4, 40864, Note_on_c, 2, 71, 88
4, 40864, Note_on_c, 2, 74, 88
4, 40882, Control_c, 2, 11, 97
4, 40900, Control_c, 2, 11, 95
4, 40918, Control_c, 2, 11, 93
4, 40936, Control_c, 2, 11, 91
4, 40954, Control_c, 2, 11, 89
4, 40969, Note_on_c, 2, 74, 0
4, 40969, Note_on_c, 2, 71, 0
4, 40972, Control_c, 2, 11, 87
4, 40984, Note_on_c, 2, 74, 88
4, 40984, Note_on_c, 2, 71, 88
4, 41034, Note_on_c, 2, 71, 0
4, 41034, Note_on_c, 2, 74, 0
4, 41044, Note_on_c, 2, 71, 88
4, 41044, Note_on_c, 2, 67, 88
4, 41104, Note_on_c, 2, 67, 0
4, 41104, Note_on_c, 2, 71, 0
4, 41344, Note_on_c, 2, 74, 88
4, 41344, Note_on_c, 2, 71, 88
4, 41344, Control_c, 2, 11, 98
4, 41362, Control_c, 2, 11, 97
4, 41380, Control_c, 2, 11, 95
4, 41398, Control_c, 2, 11, 93
4, 41416, Control_c, 2, 11, 91
4, 41434, Control_c, 2, 11, 89
4, 41449, Note_on_c, 2, 71, 0
4, 41449, Note_on_c, 2, 74, 0
4, 41452, Control_c, 2, 11, 87
4, 41464, Note_on_c, 2, 71, 88
4, 41464, Note_on_c, 2, 74, 88
4, 41514, Note_on_c, 2, 74, 0
4, 41514, Note_on_c, 2, 71, 0
4, 41524, Note_on_c, 2, 67, 88
4, 41524, Note_on_c, 2, 71, 88
4, 41584, Note_on_c, 2, 71, 0
4, 41584, Note_on_c, 2, 67, 0
4, 41824, Control_c, 2, 11, 98
4, 41824, Note_on_c, 2, 71, 88
4, 41824, Note_on_c, 2, 74, 88
4, 41842, Control_c, 2, 11, 97
4, 41860, Control_c, 2, 11, 95
4, 41878, Control_c, 2, 11, 93
4, 41896, Control_c, 2, 11, 91
4, 41914, Control_c, 2, 11, 89
4, 41929, Note_on_c, 2, 74, 0
4, 41929, Note_on_c, 2, 71, 0
4, 41932, Control_c, 2, 11, 87
4, 41944, Note_on_c, 2, 71, 88
4, 41944, Note_on_c, 2, 74, 88
4, 41994, Note_on_c, 2, 74, 0
4, 41994, Note_on_c, 2, 71, 0
4, 42004, Note_on_c, 2, 67, 88
4, 42004, Note_on_c, 2, 71, 88
4, 42064, Note_on_c, 2, 71, 0
4, 42064, Note_on_c, 2, 67, 0
4, 42244, Control_c, 2, 11, 98
4, 42244, Note_on_c, 2, 67, 88
4, 42244, Note_on_c, 2, 71, 88
4, 42261, Control_c, 2, 11, 97
4, 42279, Control_c, 2, 11, 95
4, 42297, Control_c, 2, 11, 93
4, 42315, Control_c, 2, 11, 91
4, 42333, Control_c, 2, 11, 89
4, 42351, Control_c, 2, 11, 87
4, 42589, Note_on_c, 2, 71, 0
4, 42589, Note_on_c, 2, 67, 0
4, 42604, Note_on_c, 2, 67, 88
4, 42604, Note_on_c, 2, 71, 88
4, 42634, Note_on_c, 2, 71, 0
4, 42634, Note_on_c, 2, 67, 0
4, 42664, Note_on_c, 2, 67, 88
4, 42664, Note_on_c, 2, 71, 88
4, 42694, Note_on_c, 2, 71, 0
4, 42694, Note_on_c, 2, 67, 0
4, 42724, Note_on_c, 2, 67, 88
4, 42724, Note_on_c, 2, 72, 88
4, 42724, Control_c, 2, 11, 98
4, 42741, Control_c, 2, 11, 97
4, 42759, Control_c, 2, 11, 95
4, 42777, Control_c, 2, 11, 93
4, 42795, Control_c, 2, 11, 91
4, 42813, Control_c, 2, 11, 89
4, 42831, Control_c, 2, 11, 87
4, 43069, Note_on_c, 2, 72, 0
4, 43069, Note_on_c, 2, 67, 0
4, 43084, Note_on_c, 2, 72, 88
4, 43084, Note_on_c, 2, 67, 88
4, 43114, Note_on_c, 2, 67, 0
4, 43114, Note_on_c, 2, 72, 0
4, 43144, Note_on_c, 2, 67, 88
4, 43144, Note_on_c, 2, 72, 88
4, 43174, Note_on_c, 2, 72, 0
4, 43174, Note_on_c, 2, 67, 0
4, 43204, Control_c, 2, 11, 98
4, 43204, Note_on_c, 2, 67, 88
4, 43204, Note_on_c, 2, 74, 88
4, 43221, Control_c, 2, 11, 97
4, 43239, Control_c, 2, 11, 95
4, 43257, Control_c, 2, 11, 93
4, 43275, Control_c, 2, 11, 91
4, 43293, Control_c, 2, 11, 89
4, 43311, Control_c, 2, 11, 87
4, 43549, Note_on_c, 2, 74, 0
4, 43549, Note_on_c, 2, 67, 0
4, 43564, Note_on_c, 2, 67, 88
4, 43564, Note_on_c, 2, 74, 88
4, 43594, Note_on_c, 2, 74, 0
4, 43594, Note_on_c, 2, 67, 0
4, 43624, Note_on_c, 2, 67, 88
4, 43624, Note_on_c, 2, 74, 88
4, 43654, Note_on_c, 2, 74, 0
4, 43654, Note_on_c, 2, 67, 0
4, 43684, Note_on_c, 2, 64, 88
4, 43684, Note_on_c, 2, 67, 88
4, 43684, Control_c, 2, 11, 98
4, 43701, Control_c, 2, 11, 97
4, 43719, Control_c, 2, 11, 95
4, 43737, Control_c, 2, 11, 93
4, 43755, Control_c, 2, 11, 91
4, 43773, Control_c, 2, 11, 89
4, 43791, Control_c, 2, 11, 87
4, 44029, Note_on_c, 2, 67, 0
4, 44029, Note_on_c, 2, 64, 0
4, 44044, Note_on_c, 2, 67, 88
4, 44044, Note_on_c, 2, 64, 88
4, 44074, Note_on_c, 2, 64, 0
4, 44074, Note_on_c, 2, 67, 0
4, 44104, Note_on_c, 2, 67, 88
4, 44104, Note_on_c, 2, 64, 88
4, 44134, Note_on_c, 2, 64, 0
4, 44134, Note_on_c, 2, 67, 0
4, 44164, Note_on_c, 2, 77, 88
4, 44164, Control_c, 2, 11, 98
4, 44164, Note_on_c, 2, 65, 88
4, 44181, Control_c, 2, 11, 97
4, 44199, Control_c, 2, 11, 95
4, 44217, Control_c, 2, 11, 93
4, 44235, Control_c, 2, 11, 91
4, 44253, Control_c, 2, 11, 89
4, 44271, Control_c, 2, 11, 87
4, 44344, Note_on_c, 2, 65, 0
4, 44344, Note_on_c, 2, 77, 0
4, 44344, Note_on_c, 2, 64, 88
4, 44344, Note_on_c, 2, 76, 88
4, 44389, Note_on_c, 2, 76, 0
4, 44389, Note_on_c, 2, 64, 0
4, 44404, Control_c, 2, 11, 98
4, 44404, Note_on_c, 2, 65, 88
4, 44404, Note_on_c, 2, 77, 88
4, 44421, Control_c, 2, 11, 97
4, 44439, Control_c, 2, 11, 95
4, 44457, Control_c, 2, 11, 93
4, 44475, Control_c, 2, 11, 91
4, 44493, Control_c, 2, 11, 89
4, 44511, Control_c, 2, 11, 87
4, 44584, Note_on_c, 2, 77, 0
4, 44584, Note_on_c, 2, 65, 0
4, 44584, Note_on_c, 2, 64, 88
4, 44584, Note_on_c, 2, 76, 88
4, 44629, Note_on_c, 2, 76, 0
4, 44629, Note_on_c, 2, 64, 0
4, 44644, Note_on_c, 2, 77, 79
4, 44644, Note_on_c, 2, 65, 79
4, 44764, Note_on_c, 2, 65, 0
4, 44764, Note_on_c, 2, 77, 0
4, 55204, Note_on_c, 2, 74, 88
4, 55204, Control_c, 2, 11, 77
4, 55204, Note_on_c, 2, 71, 88
4, 55674, Note_on_c, 2, 71, 0
4, 55674, Note_on_c, 2, 74, 0
4, 55684, Note_on_c, 2, 76, 88
4, 55684, Note_on_c, 2, 72, 88
4, 56154, Note_on_c, 2, 72, 0
4, 56154, Note_on_c, 2, 76, 0
4, 56164, Control_c, 2, 11, 86
4, 56164, Note_on_c, 2, 71, 88
4, 56164, Note_on_c, 2, 74, 88
4, 56634, Note_on_c, 2, 74, 0
4, 56634, Note_on_c, 2, 71, 0
4, 56644, Note_on_c, 2, 72, 88
4, 56644, Note_on_c, 2, 75, 88
4, 57114, Note_on_c, 2, 75, 0
4, 57114, Note_on_c, 2, 72, 0
4, 57124, Note_on_c, 2, 74, 88
4, 57124, Note_on_c, 2, 71, 88
4, 57234, Note_on_c, 2, 71, 0
4, 57234, Note_on_c, 2, 74, 0
4, 57244, Control_c, 2, 11, 98
4, 57244, Note_on_c, 2, 67, 88
4, 57262, Control_c, 2, 11, 97
4, 57280, Control_c, 2, 11, 95
4, 57298, Control_c, 2, 11, 93
4, 57316, Control_c, 2, 11, 91
4, 57334, Control_c, 2, 11, 89
4, 57352, Control_c, 2, 11, 87
4, 57714, Note_on_c, 2, 67, 0
4, 57724, Note_on_c, 2, 71, 88
4, 57724, Control_c, 2, 11, 98
4, 57742, Control_c, 2, 11, 97
4, 57760, Control_c, 2, 11, 95
4, 57778, Control_c, 2, 11, 93
4, 57796, Control_c, 2, 11, 91
4, 57814, Control_c, 2, 11, 89
4, 57832, Control_c, 2, 11, 87
4, 58194, Note_on_c, 2, 71, 0
4, 58204, Control_c, 2, 11, 98
4, 58204, Note_on_c, 2, 74, 88
4, 58222, Control_c, 2, 11, 97
4, 58240, Control_c, 2, 11, 95
4, 58258, Control_c, 2, 11, 93
4, 58276, Control_c, 2, 11, 91
4, 58294, Control_c, 2, 11, 89
4, 58312, Control_c, 2, 11, 87
4, 58674, Note_on_c, 2, 74, 0
4, 58684, Note_on_c, 2, 77, 88
4, 58684, Control_c, 2, 11, 98
4, 58702, Control_c, 2, 11, 97
4, 58720, Control_c, 2, 11, 95
4, 58738, Control_c, 2, 11, 93
4, 58756, Control_c, 2, 11, 91
4, 58774, Control_c, 2, 11, 89
4, 58792, Control_c, 2, 11, 87
4, 59154, Note_on_c, 2, 77, 0
4, 59164, Control_c, 2, 11, 98
4, 59164, Note_on_c, 2, 77, 88
4, 59164, Note_on_c, 2, 74, 88
4, 59178, Control_c, 2, 11, 95
4, 59193, Control_c, 2, 11, 92
4, 59208, Control_c, 2, 11, 89
4, 59223, Control_c, 2, 11, 86
4, 59224, Note_on_c, 2, 74, 0
4, 59224, Note_on_c, 2, 77, 0
4, 59404, Control_c, 2, 11, 98
4, 59404, Note_on_c, 2, 71, 88
4, 59404, Note_on_c, 2, 74, 88
4, 59418, Control_c, 2, 11, 95
4, 59433, Control_c, 2, 11, 92
4, 59448, Control_c, 2, 11, 89
4, 59463, Control_c, 2, 11, 86
4, 59464, Note_on_c, 2, 74, 0
4, 59464, Note_on_c, 2, 71, 0
4, 59644, Note_on_c, 2, 77, 88
4, 59644, Note_on_c, 2, 74, 88
4, 59644, Control_c, 2, 11, 98
4, 59658, Control_c, 2, 11, 95
4, 59673, Control_c, 2, 11, 92
4, 59688, Control_c, 2, 11, 89
4, 59703, Control_c, 2, 11, 86
4, 59704, Note_on_c, 2, 74, 0
4, 59704, Note_on_c, 2, 77, 0
4, 59884, Control_c, 2, 11, 98
4, 59884, Note_on_c, 2, 74, 88
4, 59884, Note_on_c, 2, 71, 88
4, 59898, Control_c, 2, 11, 95
4, 59913, Control_c, 2, 11, 92
4, 59928, Control_c, 2, 11, 89
4, 59943, Control_c, 2, 11, 86
4, 59944, Note_on_c, 2, 71, 0
4, 59944, Note_on_c, 2, 74, 0
4, 60004, Note_on_c, 2, 77, 98
4, 60004, Control_c, 2, 11, 86
4, 60004, Note_on_c, 2, 74, 98
4, 60023, Control_c, 2, 11, 85
4, 60034, Note_on_c, 2, 74, 0
4, 60034, Note_on_c, 2, 77, 0
4, 60042, Control_c, 2, 11, 84
4, 60061, Control_c, 2, 11, 82
4, 60064, Note_on_c, 2, 76, 92
4, 60064, Note_on_c, 2, 73, 92
4, 60080, Control_c, 2, 11, 81
4, 60094, Note_on_c, 2, 73, 0
4, 60094, Note_on_c, 2, 76, 0
4, 60100, Control_c, 2, 11, 80
4, 60119, Control_c, 2, 11, 79
4, 60124, Note_on_c, 2, 77, 85
4, 60124, Note_on_c, 2, 74, 85
4, 60138, Control_c, 2, 11, 78
4, 60154, Note_on_c, 2, 74, 0
4, 60154, Note_on_c, 2, 77, 0
4, 60157, Control_c, 2, 11, 76
4, 60176, Control_c, 2, 11, 75
4, 60184, Note_on_c, 2, 76, 78
4, 60184, Note_on_c, 2, 73, 78
4, 60196, Control_c, 2, 11, 74
4, 60214, Note_on_c, 2, 73, 0
4, 60214, Note_on_c, 2, 76, 0
4, 60215, Control_c, 2, 11, 73
4, 60234, Control_c, 2, 11, 71
4, 60244, Note_on_c, 2, 77, 78
4, 60244, Note_on_c, 2, 74, 78
4, 60253, Control_c, 2, 11, 70
4, 60272, Control_c, 2, 11, 69
4, 60274, Note_on_c, 2, 74, 0
4, 60274, Note_on_c, 2, 77, 0
4, 60292, Control_c, 2, 11, 68
4, 60304, Note_on_c, 2, 76, 78
4, 60304, Note_on_c, 2, 73, 78
4, 60311, Control_c, 2, 11, 66
4, 60330, Control_c, 2, 11, 65
4, 60334, Note_on_c, 2, 73, 0
4, 60334, Note_on_c, 2, 76, 0
4, 60349, Control_c, 2, 11, 64
4, 60364, Note_on_c, 2, 74, 78
4, 60364, Note_on_c, 2, 77, 78
4, 60368, Control_c, 2, 11, 63
4, 60388, Control_c, 2, 11, 62
4, 60394, Note_on_c, 2, 77, 0
4, 60394, Note_on_c, 2, 74, 0
4, 60407, Control_c, 2, 11, 60
4, 60424, Note_on_c, 2, 76, 78
4, 60424, Note_on_c, 2, 73, 78
4, 60426, Control_c, 2, 11, 58
4, 60445, Control_c, 2, 11, 56
4, 60454, Note_on_c, 2, 73, 0
4, 60454, Note_on_c, 2, 76, 0
4, 60464, Control_c, 2, 11, 54
4, 60484, Control_c, 2, 11, 52
4, 60484, Note_on_c, 2, 74, 78
4, 60484, Note_on_c, 2, 77, 78
4, 60514, Note_on_c, 2, 77, 0
4, 60514, Note_on_c, 2, 74, 0
4, 60544, Note_on_c, 2, 72, 75
4, 60544, Note_on_c, 2, 76, 75
4, 60574, Note_on_c, 2, 76, 0
4, 60574, Note_on_c, 2, 72, 0
4, 60580, Control_c, 2, 11, 51
4, 60604, Note_on_c, 2, 71, 73
4, 60604, Note_on_c, 2, 74, 73
4, 60634, Note_on_c, 2, 74, 0
4, 60634, Note_on_c, 2, 71, 0
4, 60664, Note_on_c, 2, 69, 70
4, 60664, Note_on_c, 2, 72, 70
4, 60676, Control_c, 2, 11, 50
4, 60694, Note_on_c, 2, 72, 0
4, 60694, Note_on_c, 2, 69, 0
4, 60724, Note_on_c, 2, 71, 68
4, 60724, Note_on_c, 2, 67, 68
4, 60754, Note_on_c, 2, 67, 0
4, 60754, Note_on_c, 2, 71, 0
4, 60772, Control_c, 2, 11, 49
4, 60784, Note_on_c, 2, 65, 66
4, 60784, Note_on_c, 2, 69, 66
4, 60814, Note_on_c, 2, 69, 0
4, 60814, Note_on_c, 2, 65, 0
4, 60844, Note_on_c, 2, 64, 63
4, 60844, Note_on_c, 2, 67, 63
4, 60868, Control_c, 2, 11, 48
4, 60874, Note_on_c, 2, 67, 0
4, 60874, Note_on_c, 2, 64, 0
4, 60904, Note_on_c, 2, 65, 61
4, 60904, Note_on_c, 2, 62, 61
4, 60934, Note_on_c, 2, 62, 0
4, 60934, Note_on_c, 2, 65, 0
4, 60964, Control_c, 2, 11, 47
4, 60964, Note_on_c, 2, 60, 58
4, 60964, Note_on_c, 2, 64, 58
4, 61084, Note_on_c, 2, 64, 0
4, 61084, Note_on_c, 2, 60, 0
4, 65464, Note_on_c, 2, 72, 88
4, 65464, Note_on_c, 2, 69, 88
4, 65464, Control_c, 2, 11, 77
4, 65494, Note_on_c, 2, 69, 0
4, 65494, Note_on_c, 2, 72, 0
4, 65524, Note_on_c, 2, 72, 88
4, 65524, Note_on_c, 2, 81, 88
4, 65554, Note_on_c, 2, 81, 0
4, 65554, Note_on_c, 2, 72, 0
4, 65584, Note_on_c, 2, 72, 88
4, 65584, Note_on_c, 2, 81, 88
4, 65614, Note_on_c, 2, 81, 0
4, 65614, Note_on_c, 2, 72, 0
4, 65644, Note_on_c, 2, 81, 88
4, 65644, Note_on_c, 2, 72, 88
4, 65674, Note_on_c, 2, 72, 0
4, 65674, Note_on_c, 2, 81, 0
4, 65704, Note_on_c, 2, 81, 88
4, 65704, Note_on_c, 2, 72, 88
4, 65734, Note_on_c, 2, 72, 0
4, 65734, Note_on_c, 2, 81, 0
4, 65764, Note_on_c, 2, 81, 88
4, 65764, Note_on_c, 2, 72, 88
4, 65884, Note_on_c, 2, 72, 0
4, 65884, Note_on_c, 2, 81, 0
4, 65884, Note_on_c, 2, 79, 88
4, 65884, Note_on_c, 2, 70, 88
4, 65934, Note_on_c, 2, 70, 0
4, 65934, Note_on_c, 2, 79, 0
4, 65944, Note_on_c, 2, 70, 88
4, 65944, Note_on_c, 2, 79, 88
4, 65974, Note_on_c, 2, 79, 0
4, 65974, Note_on_c, 2, 70, 0
4, 66004, Note_on_c, 2, 70, 88
4, 66004, Note_on_c, 2, 79, 88
4, 66034, Note_on_c, 2, 79, 0
4, 66034, Note_on_c, 2, 70, 0
4, 66064, Note_on_c, 2, 70, 88
4, 66064, Note_on_c, 2, 79, 88
4, 66094, Note_on_c, 2, 79, 0
4, 66094, Note_on_c, 2, 70, 0
4, 66124, Note_on_c, 2, 70, 88
4, 66124, Note_on_c, 2, 79, 88
4, 66154, Note_on_c, 2, 79, 0
4, 66154, Note_on_c, 2, 70, 0
4, 66184, Note_on_c, 2, 70, 88
4, 66184, Note_on_c, 2, 79, 88
4, 66214, Note_on_c, 2, 79, 0
4, 66214, Note_on_c, 2, 70, 0
4, 66244, Note_on_c, 2, 79, 88
4, 66244, Note_on_c, 2, 70, 88
4, 66364, Note_on_c, 2, 70, 0
4, 66364, Note_on_c, 2, 79, 0
4, 66364, Note_on_c, 2, 69, 88
4, 66364, Note_on_c, 2, 77, 88
4, 66424, Note_on_c, 2, 77, 0
4, 66424, Note_on_c, 2, 69, 0
4, 66424, Note_on_c, 2, 69, 88
4, 66424, Note_on_c, 2, 77, 88
4, 66454, Note_on_c, 2, 77, 0
4, 66454, Note_on_c, 2, 69, 0
4, 66484, Note_on_c, 2, 69, 88
4, 66484, Note_on_c, 2, 77, 88
4, 66514, Note_on_c, 2, 77, 0
4, 66514, Note_on_c, 2, 69, 0
4, 66544, Note_on_c, 2, 69, 88
4, 66544, Note_on_c, 2, 77, 88
4, 66574, Note_on_c, 2, 77, 0
4, 66574, Note_on_c, 2, 69, 0
4, 66604, Note_on_c, 2, 69, 88
4, 66604, Note_on_c, 2, 77, 88
4, 66634, Note_on_c, 2, 77, 0
4, 66634, Note_on_c, 2, 69, 0
4, 66664, Note_on_c, 2, 69, 88
4, 66664, Note_on_c, 2, 77, 88
4, 66694, Note_on_c, 2, 77, 0
4, 66694, Note_on_c, 2, 69, 0
4, 66724, Note_on_c, 2, 67, 88
4, 66724, Note_on_c, 2, 74, 88
4, 66964, Note_on_c, 2, 67, 0
4, 66964, Note_on_c, 2, 65, 88
4, 67194, Note_on_c, 2, 65, 0
4, 67194, Note_on_c, 2, 74, 0
4, 67204, Note_on_c, 2, 72, 74
4, 67204, Note_on_c, 2, 64, 74
4, 67324, Note_on_c, 2, 64, 0
4, 67324, Note_on_c, 2, 72, 0
4, 69244, Note_on_c, 2, 72, 98
4, 69244, Control_c, 2, 11, 52
4, 69364, Note_on_c, 2, 72, 0
4, 69364, Note_on_c, 2, 74, 98
4, 69484, Note_on_c, 2, 74, 0
4, 69484, Note_on_c, 2, 71, 98
4, 69604, Note_on_c, 2, 71, 0
4, 69604, Note_on_c, 2, 79, 98
4, 69604, Note_on_c, 2, 67, 98
4, 70564, Note_on_c, 2, 67, 0
4, 70564, Note_on_c, 2, 79, 0
4, 74464, Control_c, 2, 11, 98
4, 74464, Note_on_c, 2, 76, 88
4, 74464, Note_on_c, 2, 79, 88
4, 74482, Control_c, 2, 11, 97
4, 74500, Control_c, 2, 11, 95
4, 74518, Control_c, 2, 11, 93
4, 74536, Control_c, 2, 11, 91
4, 74554, Control_c, 2, 11, 89
4, 74569, Note_on_c, 2, 79, 0
4, 74569, Note_on_c, 2, 76, 0
4, 74572, Control_c, 2, 11, 87
4, 74584, Note_on_c, 2, 79, 88
4, 74584, Note_on_c, 2, 76, 88
4, 74634, Note_on_c, 2, 76, 0
4, 74634, Note_on_c, 2, 79, 0
4, 74644, Note_on_c, 2, 76, 88
4, 74644, Note_on_c, 2, 72, 88
4, 74704, Note_on_c, 2, 72, 0
4, 74704, Note_on_c, 2, 76, 0
4, 75424, Note_on_c, 2, 79, 88
4, 75424, Note_on_c, 2, 76, 88
4, 75424, Control_c, 2, 11, 98
4, 75442, Control_c, 2, 11, 97
4, 75460, Control_c, 2, 11, 95
4, 75478, Control_c, 2, 11, 93
4, 75496, Control_c, 2, 11, 91
4, 75514, Control_c, 2, 11, 89
4, 75529, Note_on_c, 2, 76, 0
4, 75529, Note_on_c, 2, 79, 0
4, 75532, Control_c, 2, 11, 87
4, 75544, Note_on_c, 2, 76, 88
4, 75544, Note_on_c, 2, 79, 88
4, 75594, Note_on_c, 2, 79, 0
4, 75594, Note_on_c, 2, 76, 0
4, 75604, Note_on_c, 2, 72, 88
4, 75604, Note_on_c, 2, 76, 88
4, 75664, Note_on_c, 2, 76, 0
4, 75664, Note_on_c, 2, 72, 0
4, 75844, Note_on_c, 2, 72, 88
4, 75844, Control_c, 2, 11, 86
4, 76194, Note_on_c, 2, 72, 0
4, 76204, Note_on_c, 2, 72, 88
4, 76252, Note_on_c, 2, 72, 0
4, 76264, Note_on_c, 2, 72, 88
4, 76312, Note_on_c, 2, 72, 0
4, 76324, Control_c, 2, 11, 98
4, 76324, Note_on_c, 2, 62, 88
4, 76324, Note_on_c, 2, 74, 88
4, 76342, Control_c, 2, 11, 97
4, 76360, Control_c, 2, 11, 95
4, 76378, Control_c, 2, 11, 93
4, 76396, Control_c, 2, 11, 91
4, 76414, Control_c, 2, 11, 89
4, 76432, Control_c, 2, 11, 87
4, 76674, Note_on_c, 2, 74, 0
4, 76674, Note_on_c, 2, 62, 0
4, 76684, Note_on_c, 2, 62, 88
4, 76684, Note_on_c, 2, 74, 88
4, 76732, Note_on_c, 2, 74, 0
4, 76732, Note_on_c, 2, 62, 0
4, 76744, Note_on_c, 2, 62, 88
4, 76744, Note_on_c, 2, 74, 88
4, 76792, Note_on_c, 2, 74, 0
4, 76792, Note_on_c, 2, 62, 0
4, 76804, Control_c, 2, 11, 98
4, 76804, Note_on_c, 2, 64, 88
4, 76804, Note_on_c, 2, 76, 88
4, 76822, Control_c, 2, 11, 97
4, 76840, Control_c, 2, 11, 95
4, 76858, Control_c, 2, 11, 93
4, 76876, Control_c, 2, 11, 91
4, 76894, Control_c, 2, 11, 89
4, 76912, Control_c, 2, 11, 87
4, 77154, Note_on_c, 2, 76, 0
4, 77154, Note_on_c, 2, 64, 0
4, 77164, Note_on_c, 2, 76, 88
4, 77164, Note_on_c, 2, 64, 88
4, 77212, Note_on_c, 2, 64, 0
4, 77212, Note_on_c, 2, 76, 0
4, 77224, Note_on_c, 2, 76, 88
4, 77224, Note_on_c, 2, 64, 88
4, 77272, Note_on_c, 2, 64, 0
4, 77272, Note_on_c, 2, 76, 0
4, 77284, Note_on_c, 2, 77, 88
4, 77284, Note_on_c, 2, 65, 88
4, 77489, Note_on_c, 2, 65, 0
4, 77489, Note_on_c, 2, 77, 0
4, 77494, Note_on_c, 2, 65, 88
4, 77494, Note_on_c, 2, 77, 88
4, 77519, Note_on_c, 2, 77, 0
4, 77519, Note_on_c, 2, 65, 0
4, 77524, Note_on_c, 2, 75, 88
4, 77524, Note_on_c, 2, 72, 88
4, 77729, Note_on_c, 2, 72, 0
4, 77729, Note_on_c, 2, 75, 0
4, 77734, Note_on_c, 2, 72, 88
4, 77734, Note_on_c, 2, 75, 88
4, 77759, Note_on_c, 2, 75, 0
4, 77759, Note_on_c, 2, 72, 0
4, 77764, Note_on_c, 2, 72, 88
4, 77764, Note_on_c, 2, 75, 88
4, 77824, Note_on_c, 2, 75, 0
4, 77824, Note_on_c, 2, 72, 0
4, 77884, Control_c, 2, 11, 98
4, 77884, Note_on_c, 2, 75, 98
4, 77884, Note_on_c, 2, 72, 98
4, 77902, Control_c, 2, 11, 97
4, 77920, Control_c, 2, 11, 95
4, 77938, Control_c, 2, 11, 93
4, 77956, Control_c, 2, 11, 91
4, 77974, Control_c, 2, 11, 89
4, 77992, Control_c, 2, 11, 87
4, 78199, Control_c, 2, 11, 86
4, 78201, Control_c, 2, 11, 83
4, 78203, Control_c, 2, 11, 80
4, 78206, Control_c, 2, 11, 76
4, 78208, Control_c, 2, 11, 73
4, 78210, Control_c, 2, 11, 70
4, 78212, Control_c, 2, 11, 67
4, 78214, Note_on_c, 2, 72, 0
4, 78214, Note_on_c, 2, 75, 0
4, 78244, Note_on_c, 2, 74, 98
4, 78244, Control_c, 2, 11, 86
4, 78244, Note_on_c, 2, 71, 98
4, 78304, Note_on_c, 2, 71, 0
4, 78304, Note_on_c, 2, 74, 0
4, 78364, Note_on_c, 2, 74, 98
4, 78364, Control_c, 2, 11, 98
4, 78364, Note_on_c, 2, 77, 98
4, 78382, Control_c, 2, 11, 97
4, 78400, Control_c, 2, 11, 95
4, 78418, Control_c, 2, 11, 93
4, 78436, Control_c, 2, 11, 91
4, 78454, Control_c, 2, 11, 89
4, 78472, Control_c, 2, 11, 87
4, 78614, Control_c, 2, 11, 86
4, 78617, Control_c, 2, 11, 82
4, 78620, Control_c, 2, 11, 79
4, 78623, Control_c, 2, 11, 76
4, 78626, Control_c, 2, 11, 73
4, 78629, Control_c, 2, 11, 70
4, 78632, Control_c, 2, 11, 66
4, 78634, Note_on_c, 2, 77, 0
4, 78634, Note_on_c, 2, 74, 0
4, 79144, Note_on_c, 2, 67, 70
4, 79144, Control_c, 2, 11, 52
4, 79174, Note_on_c, 2, 67, 0
4, 79174, Note_on_c, 2, 69, 79
4, 79204, Note_on_c, 2, 69, 0
4, 79204, Note_on_c, 2, 71, 88
4, 79234, Note_on_c, 2, 71, 0
4, 79234, Note_on_c, 2, 72, 88
4, 79264, Note_on_c, 2, 72, 0
4, 79264, Note_on_c, 2, 74, 88
4, 79294, Note_on_c, 2, 74, 0
4, 79294, Note_on_c, 2, 76, 88
4, 79324, Note_on_c, 2, 76, 0
4, 79324, Note_on_c, 2, 77, 88
4, 79384, Note_on_c, 2, 77, 0
4, 80794, Note_on_c, 2, 67, 98
4, 80794, Control_c, 2, 11, 77
4, 80809, Note_on_c, 2, 67, 0
4, 80824, Note_on_c, 2, 69, 98
4, 80839, Note_on_c, 2, 69, 0
4, 80854, Note_on_c, 2, 71, 98
4, 80869, Note_on_c, 2, 71, 0
4, 80884, Note_on_c, 2, 72, 98
4, 80899, Note_on_c, 2, 72, 0
4, 80914, Note_on_c, 2, 74, 98
4, 80929, Note_on_c, 2, 74, 0
4, 80944, Note_on_c, 2, 76, 98
4, 80959, Note_on_c, 2, 76, 0
4, 80974, Note_on_c, 2, 77, 98
4, 80989, Note_on_c, 2, 77, 0
4, 81004, Note_on_c, 2, 79, 98
4, 81034, Note_on_c, 2, 79, 0
4, 81064, Note_on_c, 2, 79, 98
4, 81094, Note_on_c, 2, 79, 0
4, 81124, Note_on_c, 2, 76, 98
4, 81154, Note_on_c, 2, 76, 0
4, 81184, Note_on_c, 2, 72, 98
4, 81214, Note_on_c, 2, 72, 0
4, 81244, Note_on_c, 2, 74, 98
4, 81274, Note_on_c, 2, 74, 0
4, 81274, Note_on_c, 2, 72, 98
4, 81304, Note_on_c, 2, 72, 0
4, 81304, Note_on_c, 2, 71, 98
4, 81334, Note_on_c, 2, 71, 0
4, 81334, Note_on_c, 2, 72, 98
4, 81354, Note_on_c, 2, 72, 0
4, 81364, Note_on_c, 2, 69, 98
4, 81394, Note_on_c, 2, 69, 0
4, 81424, Note_on_c, 2, 74, 98
4, 81454, Note_on_c, 2, 74, 0
4, 81484, Note_on_c, 2, 76, 98
4, 81514, Note_on_c, 2, 76, 0
4, 81514, Note_on_c, 2, 74, 98
4, 81544, Note_on_c, 2, 74, 0
4, 81544, Note_on_c, 2, 73, 98
4, 81574, Note_on_c, 2, 73, 0
4, 81574, Note_on_c, 2, 74, 98
4, 81594, Note_on_c, 2, 74, 0
4, 81604, Note_on_c, 2, 71, 70
4, 81604, Note_on_c, 2, 67, 70
4, 81604, Control_c, 2, 11, 77
4, 81700, Note_on_c, 2, 67, 0
4, 81700, Note_on_c, 2, 71, 0
4, 83704, Note_on_c, 2, 79, 88
4, 83704, Control_c, 2, 11, 86
4, 83704, Note_on_c, 2, 76, 88
4, 83734, Note_on_c, 2, 76, 0
4, 83734, Note_on_c, 2, 79, 0
4, 83764, Note_on_c, 2, 76, 88
4, 83764, Note_on_c, 2, 79, 88
4, 83794, Note_on_c, 2, 79, 0
4, 83794, Note_on_c, 2, 76, 0
4, 83824, Note_on_c, 2, 76, 88
4, 83824, Note_on_c, 2, 79, 88
4, 83854, Note_on_c, 2, 79, 0
4, 83854, Note_on_c, 2, 76, 0
4, 83884, Note_on_c, 2, 76, 88
4, 83884, Note_on_c, 2, 79, 88
4, 83914, Note_on_c, 2, 79, 0
4, 83914, Note_on_c, 2, 76, 0
4, 83944, Note_on_c, 2, 76, 88
4, 83944, Note_on_c, 2, 79, 88
4, 83974, Note_on_c, 2, 79, 0
4, 83974, Note_on_c, 2, 76, 0
4, 84004, Note_on_c, 2, 76, 88
4, 84004, Note_on_c, 2, 79, 88
4, 84124, Note_on_c, 2, 79, 0
4, 84124, Note_on_c, 2, 76, 0
4, 84124, Note_on_c, 2, 74, 88
4, 84124, Note_on_c, 2, 77, 88
4, 84174, Note_on_c, 2, 77, 0
4, 84174, Note_on_c, 2, 74, 0
4, 84184, Note_on_c, 2, 74, 88
4, 84184, Note_on_c, 2, 77, 88
4, 84214, Note_on_c, 2, 77, 0
4, 84214, Note_on_c, 2, 74, 0
4, 84244, Note_on_c, 2, 74, 88
4, 84244, Note_on_c, 2, 77, 88
4, 84274, Note_on_c, 2, 77, 0
4, 84274, Note_on_c, 2, 74, 0
4, 84304, Note_on_c, 2, 74, 88
4, 84304, Note_on_c, 2, 77, 88
4, 84334, Note_on_c, 2, 77, 0
4, 84334, Note_on_c, 2, 74, 0
4, 84364, Note_on_c, 2, 74, 88
4, 84364, Note_on_c, 2, 77, 88
4, 84394, Note_on_c, 2, 77, 0
4, 84394, Note_on_c, 2, 74, 0
4, 84424, Note_on_c, 2, 74, 88
4, 84424, Note_on_c, 2, 77, 88
4, 84454, Note_on_c, 2, 77, 0
4, 84454, Note_on_c, 2, 74, 0
4, 84484, Note_on_c, 2, 74, 88
4, 84484, Note_on_c, 2, 77, 88
4, 84604, Note_on_c, 2, 77, 0
4, 84604, Note_on_c, 2, 74, 0
4, 84604, Note_on_c, 2, 72, 88
4, 84604, Note_on_c, 2, 76, 88
4, 84654, Note_on_c, 2, 76, 0
4, 84654, Note_on_c, 2, 72, 0
4, 84664, Note_on_c, 2, 72, 88
4, 84664, Note_on_c, 2, 76, 88
4, 84694, Note_on_c, 2, 76, 0
4, 84694, Note_on_c, 2, 72, 0
4, 84724, Note_on_c, 2, 76, 88
4, 84724, Note_on_c, 2, 72, 88
4, 84754, Note_on_c, 2, 72, 0
4, 84754, Note_on_c, 2, 76, 0
4, 84784, Note_on_c, 2, 72, 88
4, 84784, Note_on_c, 2, 76, 88
4, 84814, Note_on_c, 2, 76, 0
4, 84814, Note_on_c, 2, 72, 0
4, 84844, Note_on_c, 2, 72, 88
4, 84844, Note_on_c, 2, 76, 88
4, 84874, Note_on_c, 2, 76, 0
4, 84874, Note_on_c, 2, 72, 0
4, 84904, Note_on_c, 2, 76, 88
4, 84904, Note_on_c, 2, 72, 88
4, 84934, Note_on_c, 2, 72, 0
4, 84934, Note_on_c, 2, 76, 0
4, 84964, Note_on_c, 2, 69, 88
4, 84964, Note_on_c, 2, 74, 88
4, 85074, Note_on_c, 2, 74, 0
4, 85074, Note_on_c, 2, 69, 0
4, 85084, Note_on_c, 2, 77, 88
4, 85084, Note_on_c, 2, 69, 88
4, 85194, Note_on_c, 2, 69, 0
4, 85194, Note_on_c, 2, 77, 0
4, 85204, Note_on_c, 2, 72, 88
4, 85204, Note_on_c, 2, 64, 88
4, 85314, Note_on_c, 2, 64, 0
4, 85314, Note_on_c, 2, 72, 0
4, 85324, Note_on_c, 2, 71, 88
4, 85324, Note_on_c, 2, 62, 88
4, 85434, Note_on_c, 2, 62, 0
4, 85434, Note_on_c, 2, 71, 0
4, 85444, Note_on_c, 2, 72, 88
4, 85444, Note_on_c, 2, 64, 88
4, 85564, Note_on_c, 2, 64, 0
4, 85564, Note_on_c, 2, 72, 0
4, 88234, Control_c, 2, 11, 52
4, 88234, Note_on_c, 2, 64, 86
4, 88234, Note_on_c, 2, 60, 86
4, 88264, Note_on_c, 2, 60, 0
4, 88264, Note_on_c, 2, 64, 0
4, 88264, Note_on_c, 2, 65, 90
4, 88264, Note_on_c, 2, 62, 90
4, 88294, Note_on_c, 2, 62, 0
4, 88294, Note_on_c, 2, 65, 0
4, 88294, Note_on_c, 2, 67, 94
4, 88294, Note_on_c, 2, 64, 94
4, 88324, Note_on_c, 2, 64, 0
4, 88324, Note_on_c, 2, 67, 0
4, 88324, Note_on_c, 2, 69, 99
4, 88324, Note_on_c, 2, 65, 99
4, 88354, Note_on_c, 2, 65, 0
4, 88354, Note_on_c, 2, 69, 0
4, 88354, Note_on_c, 2, 71, 104
4, 88354, Note_on_c, 2, 67, 104
4, 88384, Note_on_c, 2, 67, 0
4, 88384, Note_on_c, 2, 71, 0
4, 88384, Note_on_c, 2, 72, 109
4, 88384, Note_on_c, 2, 69, 109
4, 88414, Note_on_c, 2, 69, 0
4, 88414, Note_on_c, 2, 72, 0
4, 88414, Note_on_c, 2, 74, 113
4, 88414, Note_on_c, 2, 71, 113
4, 88444, Note_on_c, 2, 71, 0
4, 88444, Note_on_c, 2, 74, 0
4, 88444, Note_on_c, 2, 76, 108
4, 88444, Note_on_c, 2, 72, 108
4, 88474, Note_on_c, 2, 72, 0
4, 88474, Note_on_c, 2, 76, 0
4, 88504, Note_on_c, 2, 72, 98
4, 88504, Note_on_c, 2, 76, 98
4, 88534, Note_on_c, 2, 76, 0
4, 88534, Note_on_c, 2, 72, 0
4, 88564, Note_on_c, 2, 77, 98
4, 88564, Note_on_c, 2, 74, 98
4, 88624, Note_on_c, 2, 74, 0
4, 88624, Note_on_c, 2, 77, 0
4, 88684, Note_on_c, 2, 65, 98
4, 88684, Note_on_c, 2, 74, 98
4, 88744, Note_on_c, 2, 74, 0
4, 88744, Note_on_c, 2, 65, 0
4, 88924, Note_on_c, 2, 71, 98
4, 88924, Note_on_c, 2, 62, 98
4, 88984, Note_on_c, 2, 62, 0
4, 88984, Note_on_c, 2, 71, 0
4, 89164, Note_on_c, 2, 72, 98
4, 89194, Note_on_c, 2, 72, 0
4, 89194, Note_on_c, 2, 60, 94
4, 89194, Note_on_c, 2, 64, 94
4, 89224, Note_on_c, 2, 64, 0
4, 89224, Note_on_c, 2, 60, 0
4, 89224, Note_on_c, 2, 62, 98
4, 89224, Note_on_c, 2, 65, 98
4, 89254, Note_on_c, 2, 65, 0
4, 89254, Note_on_c, 2, 62, 0
4, 89254, Note_on_c, 2, 64, 103
4, 89254, Note_on_c, 2, 67, 103
4, 89284, Note_on_c, 2, 67, 0
4, 89284, Note_on_c, 2, 64, 0
4, 89284, Note_on_c, 2, 65, 108
4, 89284, Note_on_c, 2, 69, 108
4, 89314, Note_on_c, 2, 69, 0
4, 89314, Note_on_c, 2, 65, 0
4, 89314, Note_on_c, 2, 67, 114
4, 89314, Note_on_c, 2, 71, 114
4, 89344, Note_on_c, 2, 71, 0
4, 89344, Note_on_c, 2, 67, 0
4, 89344, Note_on_c, 2, 69, 119
4, 89344, Note_on_c, 2, 72, 119
4, 89374, Note_on_c, 2, 72, 0
4, 89374, Note_on_c, 2, 69, 0
4, 89374, Note_on_c, 2, 71, 124
4, 89374, Note_on_c, 2, 74, 124
4, 89404, Note_on_c, 2, 74, 0
4, 89404, Note_on_c, 2, 71, 0
4, 89404, Note_on_c, 2, 72, 108
4, 89404, Note_on_c, 2, 76, 108
4, 89434, Note_on_c, 2, 76, 0
4, 89434, Note_on_c, 2, 72, 0
4, 89464, Note_on_c, 2, 72, 98
4, 89464, Note_on_c, 2, 76, 98
4, 89494, Note_on_c, 2, 76, 0
4, 89494, Note_on_c, 2, 72, 0
4, 89524, Note_on_c, 2, 74, 98
4, 89524, Note_on_c, 2, 77, 98
4, 89524, Control_c, 2, 11, 52
4, 89543, Control_c, 2, 11, 53
4, 89562, Control_c, 2, 11, 54
4, 89581, Control_c, 2, 11, 55
4, 89584, Note_on_c, 2, 77, 0
4, 89584, Note_on_c, 2, 74, 0
4, 89600, Control_c, 2, 11, 56
4, 89620, Control_c, 2, 11, 57
4, 89639, Control_c, 2, 11, 58
4, 89644, Note_on_c, 2, 65, 98
4, 89644, Note_on_c, 2, 74, 98
4, 89658, Control_c, 2, 11, 59
4, 89677, Control_c, 2, 11, 60
4, 89696, Control_c, 2, 11, 61
4, 89704, Note_on_c, 2, 74, 0
4, 89704, Note_on_c, 2, 65, 0
4, 89716, Control_c, 2, 11, 62
4, 89735, Control_c, 2, 11, 62
4, 89754, Control_c, 2, 11, 63
4, 89773, Control_c, 2, 11, 63
4, 89792, Control_c, 2, 11, 64
4, 89812, Control_c, 2, 11, 65
4, 89831, Control_c, 2, 11, 65
4, 89850, Control_c, 2, 11, 66
4, 89869, Control_c, 2, 11, 66
4, 89884, Note_on_c, 2, 62, 98
4, 89884, Note_on_c, 2, 71, 98
4, 89888, Control_c, 2, 11, 67
4, 89908, Control_c, 2, 11, 68
4, 89927, Control_c, 2, 11, 68
4, 89944, Note_on_c, 2, 71, 0
4, 89944, Note_on_c, 2, 62, 0
4, 89946, Control_c, 2, 11, 69
4, 89965, Control_c, 2, 11, 70
4, 89984, Control_c, 2, 11, 70
4, 90004, Control_c, 2, 11, 71
4, 90023, Control_c, 2, 11, 71
4, 90042, Control_c, 2, 11, 72
4, 90061, Control_c, 2, 11, 73
4, 90080, Control_c, 2, 11, 73
4, 90100, Control_c, 2, 11, 74
4, 90119, Control_c, 2, 11, 74
4, 90138, Control_c, 2, 11, 75
4, 90154, Note_on_c, 2, 64, 94
4, 90154, Note_on_c, 2, 60, 94
4, 90157, Control_c, 2, 11, 76
4, 90169, Note_on_c, 2, 60, 0
4, 90169, Note_on_c, 2, 64, 0
4, 90176, Control_c, 2, 11, 76
4, 90184, Note_on_c, 2, 62, 98
4, 90184, Note_on_c, 2, 65, 98
4, 90196, Control_c, 2, 11, 77
4, 90199, Note_on_c, 2, 65, 0
4, 90199, Note_on_c, 2, 62, 0
4, 90214, Note_on_c, 2, 67, 103
4, 90214, Note_on_c, 2, 64, 103
4, 90215, Control_c, 2, 11, 78
4, 90229, Note_on_c, 2, 64, 0
4, 90229, Note_on_c, 2, 67, 0
4, 90234, Control_c, 2, 11, 78
4, 90244, Note_on_c, 2, 69, 108
4, 90244, Note_on_c, 2, 65, 108
4, 90253, Control_c, 2, 11, 79
4, 90259, Note_on_c, 2, 65, 0
4, 90259, Note_on_c, 2, 69, 0
4, 90272, Control_c, 2, 11, 79
4, 90274, Note_on_c, 2, 71, 114
4, 90274, Note_on_c, 2, 67, 114
4, 90289, Note_on_c, 2, 67, 0
4, 90289, Note_on_c, 2, 71, 0
4, 90292, Control_c, 2, 11, 80
4, 90304, Note_on_c, 2, 69, 120
4, 90304, Note_on_c, 2, 72, 120
4, 90311, Control_c, 2, 11, 81
4, 90319, Note_on_c, 2, 72, 0
4, 90319, Note_on_c, 2, 69, 0
4, 90330, Control_c, 2, 11, 81
4, 90334, Note_on_c, 2, 71, 125
4, 90334, Note_on_c, 2, 74, 125
4, 90349, Note_on_c, 2, 74, 0
4, 90349, Note_on_c, 2, 71, 0
4, 90349, Control_c, 2, 11, 82
4, 90364, Note_on_c, 2, 76, 109
4, 90364, Note_on_c, 2, 72, 109
4, 90368, Control_c, 2, 11, 82
4, 90388, Control_c, 2, 11, 83
4, 90394, Note_on_c, 2, 72, 0
4, 90394, Note_on_c, 2, 76, 0
4, 90407, Control_c, 2, 11, 84
4, 90424, Note_on_c, 2, 72, 98
4, 90424, Note_on_c, 2, 76, 98
4, 90426, Control_c, 2, 11, 84
4, 90445, Control_c, 2, 11, 85
4, 90454, Note_on_c, 2, 76, 0
4, 90454, Note_on_c, 2, 72, 0
4, 90464, Control_c, 2, 11, 86
4, 90484, Control_c, 2, 11, 86
4, 90484, Note_on_c, 2, 74, 98
4, 90484, Note_on_c, 2, 77, 98
4, 90724, Note_on_c, 2, 77, 0
4, 90724, Note_on_c, 2, 74, 0
4, 90724, Note_on_c, 2, 74, 98
4, 90724, Note_on_c, 2, 71, 98
4, 90964, Note_on_c, 2, 71, 0
4, 90964, Note_on_c, 2, 74, 0
4, 90964, Note_on_c, 2, 72, 98
4, 90964, Control_c, 2, 11, 98
4, 90982, Control_c, 2, 11, 97
4, 91000, Control_c, 2, 11, 95
4, 91018, Control_c, 2, 11, 93
4, 91036, Control_c, 2, 11, 91
4, 91054, Control_c, 2, 11, 89
4, 91072, Control_c, 2, 11, 87
4, 91114, Note_on_c, 2, 60, 98
4, 91129, Note_on_c, 2, 60, 0
4, 91144, Note_on_c, 2, 62, 98
4, 91159, Note_on_c, 2, 62, 0
4, 91174, Note_on_c, 2, 64, 98
4, 91189, Note_on_c, 2, 64, 0
4, 91204, Note_on_c, 2, 65, 98
4, 91219, Note_on_c, 2, 65, 0
4, 91234, Note_on_c, 2, 67, 98
4, 91249, Note_on_c, 2, 67, 0
4, 91264, Note_on_c, 2, 69, 98
4, 91279, Note_on_c, 2, 69, 0
4, 91294, Note_on_c, 2, 71, 98
4, 91309, Note_on_c, 2, 71, 0
4, 91324, Note_on_c, 2, 72, 0
4, 91324, Note_on_c, 2, 72, 98
4, 91354, Note_on_c, 2, 72, 0
4, 91384, Note_on_c, 2, 72, 98
4, 91414, Note_on_c, 2, 72, 0
4, 91444, Note_on_c, 2, 76, 98
4, 91444, Control_c, 2, 11, 98
4, 91462, Control_c, 2, 11, 97
4, 91480, Control_c, 2, 11, 95
4, 91498, Control_c, 2, 11, 93
4, 91516, Control_c, 2, 11, 91
4, 91534, Control_c, 2, 11, 89
4, 91552, Control_c, 2, 11, 87
4, 91594, Note_on_c, 2, 64, 98
4, 91609, Note_on_c, 2, 64, 0
4, 91624, Note_on_c, 2, 65, 98
4, 91639, Note_on_c, 2, 65, 0
4, 91654, Note_on_c, 2, 67, 98
4, 91669, Note_on_c, 2, 67, 0
4, 91684, Note_on_c, 2, 69, 98
4, 91699, Note_on_c, 2, 69, 0
4, 91714, Note_on_c, 2, 71, 98
4, 91729, Note_on_c, 2, 71, 0
4, 91744, Note_on_c, 2, 72, 98
4, 91759, Note_on_c, 2, 72, 0
4, 91774, Note_on_c, 2, 74, 98
4, 91789, Note_on_c, 2, 74, 0
4, 91804, Note_on_c, 2, 76, 0
4, 91804, Note_on_c, 2, 76, 98
4, 91834, Note_on_c, 2, 76, 0
4, 91864, Note_on_c, 2, 76, 98
4, 91894, Note_on_c, 2, 76, 0
4, 91924, Control_c, 2, 11, 92
4, 91924, Note_on_c, 2, 79, 98
4, 91942, Control_c, 2, 11, 90
4, 91960, Control_c, 2, 11, 89
4, 91978, Control_c, 2, 11, 87
4, 92164, Note_on_c, 2, 79, 0
4, 92164, Note_on_c, 2, 76, 98
4, 92224, Note_on_c, 2, 76, 0
4, 92284, Note_on_c, 2, 72, 98
4, 92344, Note_on_c, 2, 72, 0
4, 92404, Note_on_c, 2, 67, 98
4, 92464, Note_on_c, 2, 67, 0
4, 92524, Note_on_c, 2, 64, 98
4, 92584, Note_on_c, 2, 64, 0
4, 92644, Note_on_c, 2, 60, 98
4, 92704, Note_on_c, 2, 60, 0
4, 92764, Note_on_c, 2, 55, 98
4, 92824, Note_on_c, 2, 55, 0
4, 92884, Note_on_c, 2, 60, 98
4, 92980, Note_on_c, 2, 60, 0
4, 93124, Note_on_c, 2, 74, 88
4, 93124, Note_on_c, 2, 71, 88
4, 93220, Note_on_c, 2, 71, 0
4, 93220, Note_on_c, 2, 74, 0
4, 93364, Note_on_c, 2, 76, 88
4, 93364, Note_on_c, 2, 72, 88
4, 93460, Note_on_c, 2, 72, 0
4, 93460, Note_on_c, 2, 76, 0
4, 93604, Note_on_c, 2, 71, 88
4, 93604, Note_on_c, 2, 74, 88
4, 93700, Note_on_c, 2, 74, 0
4, 93700, Note_on_c, 2, 71, 0
4, 93844, Note_on_c, 2, 76, 88
4, 93844, Note_on_c, 2, 72, 88
4, 93940, Note_on_c, 2, 72, 0
4, 93940, Note_on_c, 2, 76, 0
4, 94084, Note_on_c, 2, 84, 97
4, 94084, Note_on_c, 2, 72, 97
4, 94186, Note_on_c, 2, 72, 0
4, 94186, Note_on_c, 2, 84, 0
4, 94324, Note_on_c, 2, 60, 88
4, 94324, Note_on_c, 2, 72, 88
4, 94444, Note_on_c, 2, 72, 0
4, 94444, Note_on_c, 2, 60, 0
4, 94564, Control_c, 2, 121, 0
4, 94564, End_track
5, 0, Start_track
5, 0, MIDI_port, 0
5, 0, Title_t, "2 Fagotti"
5, 0, Program_c, 3, 70
5, 0, Control_c, 3, 10, 80
5, 9, Control_c, 3, 121, 0
5, 14, Program_c, 3, 70
5, 19, Pitch_bend_c, 3, 8192
5, 24, Control_c, 3, 11, 102
5, 29, Control_c, 3, 7, 127
5, 34, Control_c, 3, 91, 67
5, 39, Control_c, 3, 93, 0
5, 44, Control_c, 3, 10, 80
5, 246, Note_on_c, 3, 43, 100
5, 246, Control_c, 3, 11, 72
5, 246, Note_on_c, 3, 55, 100
5, 248, Control_c, 3, 11, 75
5, 250, Control_c, 3, 11, 78
5, 252, Control_c, 3, 11, 81
5, 254, Control_c, 3, 11, 84
5, 256, Control_c, 3, 11, 87
5, 258, Control_c, 3, 11, 90
5, 260, Control_c, 3, 11, 93
5, 262, Control_c, 3, 11, 96
5, 264, Control_c, 3, 11, 99
5, 266, Control_c, 3, 11, 102
5, 384, Control_c, 3, 11, 102
5, 385, Control_c, 3, 11, 98
5, 386, Control_c, 3, 11, 94
5, 387, Control_c, 3, 11, 91
5, 388, Control_c, 3, 11, 87
5, 389, Control_c, 3, 11, 83
5, 390, Control_c, 3, 11, 80
5, 391, Control_c, 3, 11, 76
5, 392, Control_c, 3, 11, 72
5, 393, Control_c, 3, 11, 69
5, 394, Control_c, 3, 11, 65
5, 395, Control_c, 3, 11, 61
5, 396, Note_on_c, 3, 55, 0
5, 396, Note_on_c, 3, 43, 0
5, 396, Control_c, 3, 11, 58
5, 397, Control_c, 3, 11, 54
5, 398, Control_c, 3, 11, 50
5, 399, Control_c, 3, 11, 47
5, 3669, Control_c, 3, 11, 47
5, 3669, Note_on_c, 3, 57, 100
5, 3699, Note_on_c, 3, 57, 0
5, 3729, Note_on_c, 3, 59, 100
5, 3759, Note_on_c, 3, 59, 0
5, 3789, Note_on_c, 3, 61, 100
5, 3819, Note_on_c, 3, 61, 0
5, 3849, Note_on_c, 3, 62, 100
5, 3879, Note_on_c, 3, 62, 0
5, 3909, Note_on_c, 3, 64, 100
5, 3939, Note_on_c, 3, 64, 0
5, 3969, Note_on_c, 3, 65, 100
5, 3999, Note_on_c, 3, 65, 0
5, 5469, Control_c, 3, 11, 57
5, 5469, Note_on_c, 3, 64, 100
5, 5469, Note_on_c, 3, 67, 100
5, 5490, Control_c, 3, 11, 58
5, 5499, Note_on_c, 3, 67, 0
5, 5499, Note_on_c, 3, 64, 0
5, 5511, Control_c, 3, 11, 59
5, 5529, Note_on_c, 3, 67, 100
5, 5529, Note_on_c, 3, 64, 100
5, 5533, Control_c, 3, 11, 60
5, 5554, Control_c, 3, 11, 61
5, 5559, Note_on_c, 3, 64, 0
5, 5559, Note_on_c, 3, 67, 0
5, 5575, Control_c, 3, 11, 62
5, 5589, Note_on_c, 3, 64, 100
5, 5589, Note_on_c, 3, 67, 100
5, 5597, Control_c, 3, 11, 63
5, 5618, Control_c, 3, 11, 64
5, 5619, Note_on_c, 3, 67, 0
5, 5619, Note_on_c, 3, 64, 0
5, 5639, Control_c, 3, 11, 65
5, 5649, Note_on_c, 3, 67, 100
5, 5649, Note_on_c, 3, 64, 100
5, 5661, Control_c, 3, 11, 66
5, 5679, Note_on_c, 3, 64, 0
5, 5679, Note_on_c, 3, 67, 0
5, 5682, Control_c, 3, 11, 67
5, 5703, Control_c, 3, 11, 68
5, 5709, Note_on_c, 3, 67, 100
5, 5709, Note_on_c, 3, 64, 100
5, 5725, Control_c, 3, 11, 69
5, 5739, Note_on_c, 3, 64, 0
5, 5739, Note_on_c, 3, 67, 0
5, 5746, Control_c, 3, 11, 70
5, 5767, Control_c, 3, 11, 71
5, 5769, Note_on_c, 3, 64, 100
5, 5769, Note_on_c, 3, 67, 100
5, 5789, Control_c, 3, 11, 72
5, 5810, Control_c, 3, 11, 73
5, 5831, Control_c, 3, 11, 74
5, 5853, Control_c, 3, 11, 75
5, 5874, Control_c, 3, 11, 76
5, 5889, Note_on_c, 3, 67, 0
5, 5889, Note_on_c, 3, 64, 0
5, 5889, Note_on_c, 3, 62, 100
5, 5889, Note_on_c, 3, 65, 100
5, 5895, Control_c, 3, 11, 77
5, 5917, Control_c, 3, 11, 78
5, 5934, Note_on_c, 3, 65, 0
5, 5934, Note_on_c, 3, 62, 0
5, 5938, Control_c, 3, 11, 79
5, 5949, Note_on_c, 3, 65, 100
5, 5949, Note_on_c, 3, 62, 100
5, 5959, Control_c, 3, 11, 80
5, 5979, Note_on_c, 3, 62, 0
5, 5979, Note_on_c, 3, 65, 0
5, 5981, Control_c, 3, 11, 81
5, 6002, Control_c, 3, 11, 82
5, 6009, Note_on_c, 3, 65, 100
5, 6009, Note_on_c, 3, 62, 100
5, 6023, Control_c, 3, 11, 83
5, 6039, Note_on_c, 3, 62, 0
5, 6039, Note_on_c, 3, 65, 0
5, 6045, Control_c, 3, 11, 84
5, 6066, Control_c, 3, 11, 85
5, 6069, Note_on_c, 3, 62, 100
5, 6069, Note_on_c, 3, 65, 100
5, 6087, Control_c, 3, 11, 86
5, 6099, Note_on_c, 3, 65, 0
5, 6099, Note_on_c, 3, 62, 0
5, 6109, Control_c, 3, 11, 87
5, 6129, Note_on_c, 3, 65, 100
5, 6129, Note_on_c, 3, 62, 100
5, 6130, Control_c, 3, 11, 88
5, 6151, Control_c, 3, 11, 89
5, 6159, Note_on_c, 3, 62, 0
5, 6159, Note_on_c, 3, 65, 0
5, 6173, Control_c, 3, 11, 90
5, 6189, Note_on_c, 3, 62, 100
5, 6189, Note_on_c, 3, 65, 100
5, 6194, Control_c, 3, 11, 91
5, 6215, Control_c, 3, 11, 92
5, 6219, Note_on_c, 3, 65, 0
5, 6219, Note_on_c, 3, 62, 0
5, 6237, Control_c, 3, 11, 93
5, 6249, Note_on_c, 3, 65, 100
5, 6249, Note_on_c, 3, 62, 100
5, 6258, Control_c, 3, 11, 94
5, 6279, Control_c, 3, 11, 95
5, 6301, Control_c, 3, 11, 96
5, 6322, Control_c, 3, 11, 97
5, 6343, Control_c, 3, 11, 98
5, 6365, Control_c, 3, 11, 99
5, 6369, Note_on_c, 3, 62, 0
5, 6369, Note_on_c, 3, 65, 0
5, 6369, Note_on_c, 3, 64, 100
5, 6369, Note_on_c, 3, 60, 100
5, 6386, Control_c, 3, 11, 100
5, 6407, Control_c, 3, 11, 101
5, 6414, Note_on_c, 3, 60, 0
5, 6414, Note_on_c, 3, 64, 0
5, 6429, Note_on_c, 3, 64, 100
5, 6429, Note_on_c, 3, 60, 100
5, 6429, Control_c, 3, 11, 102
5, 6459, Note_on_c, 3, 60, 0
5, 6459, Note_on_c, 3, 64, 0
5, 6489, Note_on_c, 3, 60, 100
5, 6489, Note_on_c, 3, 64, 100
5, 6539, Note_on_c, 3, 64, 0
5, 6539, Note_on_c, 3, 60, 0
5, 6549, Note_on_c, 3, 60, 100
5, 6549, Note_on_c, 3, 64, 100
5, 6599, Note_on_c, 3, 64, 0
5, 6599, Note_on_c, 3, 60, 0
5, 6609, Note_on_c, 3, 64, 100
5, 6609, Note_on_c, 3, 60, 100
5, 6659, Note_on_c, 3, 60, 0
5, 6659, Note_on_c, 3, 64, 0
5, 6669, Note_on_c, 3, 60, 100
5, 6669, Note_on_c, 3, 64, 100
5, 6719, Note_on_c, 3, 64, 0
5, 6719, Note_on_c, 3, 60, 0
5, 6729, Note_on_c, 3, 62, 100
5, 6729, Note_on_c, 3, 60, 100
5, 6789, Note_on_c, 3, 60, 0
5, 6789, Note_on_c, 3, 62, 0
5, 6849, Note_on_c, 3, 57, 100
5, 6849, Note_on_c, 3, 65, 100
5, 6909, Note_on_c, 3, 65, 0
5, 6909, Note_on_c, 3, 57, 0
5, 6969, Note_on_c, 3, 52, 100
5, 6969, Note_on_c, 3, 60, 100
5, 7029, Note_on_c, 3, 60, 0
5, 7029, Note_on_c, 3, 52, 0
5, 7089, Note_on_c, 3, 59, 100
5, 7089, Note_on_c, 3, 50, 100
5, 7149, Note_on_c, 3, 50, 0
5, 7149, Note_on_c, 3, 59, 0
5, 7209, Note_on_c, 3, 52, 100
5, 7209, Note_on_c, 3, 60, 100
5, 7329, Note_on_c, 3, 60, 0
5, 7329, Note_on_c, 3, 52, 0
5, 8169, Control_c, 3, 11, 87
5, 8169, Note_on_c, 3, 67, 100
5, 8339, Note_on_c, 3, 67, 0
5, 8349, Note_on_c, 3, 64, 100
5, 8399, Note_on_c, 3, 64, 0
5, 8409, Note_on_c, 3, 65, 100
5, 8459, Note_on_c, 3, 65, 0
5, 8469, Note_on_c, 3, 62, 100
5, 8519, Note_on_c, 3, 62, 0
5, 8529, Note_on_c, 3, 59, 100
5, 8579, Note_on_c, 3, 59, 0
5, 8589, Note_on_c, 3, 55, 100
5, 8639, Note_on_c, 3, 55, 0
5, 8649, Note_on_c, 3, 60, 100
5, 8769, Note_on_c, 3, 60, 0
5, 9249, Note_on_c, 3, 60, 100
5, 9249, Note_on_c, 3, 64, 100
5, 9609, Note_on_c, 3, 64, 0
5, 9609, Note_on_c, 3, 62, 100
5, 9729, Note_on_c, 3, 60, 0
5, 9729, Note_on_c, 3, 59, 100
5, 10089, Note_on_c, 3, 59, 0
5, 10089, Note_on_c, 3, 62, 0
5, 10089, Note_on_c, 3, 60, 100
5, 10089, Note_on_c, 3, 64, 100
5, 10209, Note_on_c, 3, 64, 0
5, 10209, Note_on_c, 3, 66, 100
5, 10329, Note_on_c, 3, 66, 0
5, 10329, Note_on_c, 3, 60, 0
5, 10329, Note_on_c, 3, 67, 100
5, 10329, Note_on_c, 3, 59, 100
5, 10449, Note_on_c, 3, 59, 0
5, 10449, Note_on_c, 3, 67, 0
5, 10449, Note_on_c, 3, 47, 100
5, 10449, Note_on_c, 3, 62, 100
5, 10569, Note_on_c, 3, 62, 0
5, 10569, Note_on_c, 3, 47, 0
5, 10569, Note_on_c, 3, 64, 100
5, 10569, Note_on_c, 3, 48, 100
5, 10689, Note_on_c, 3, 48, 0
5, 10689, Note_on_c, 3, 64, 0
5, 10809, Note_on_c, 3, 49, 100
5, 10809, Note_on_c, 3, 64, 100
5, 10929, Note_on_c, 3, 64, 0
5, 10929, Note_on_c, 3, 49, 0
5, 11049, Note_on_c, 3, 62, 100
5, 11049, Note_on_c, 3, 50, 100
5, 11079, Note_on_c, 3, 50, 0
5, 11079, Note_on_c, 3, 62, 0
5, 11109, Note_on_c, 3, 50, 100
5, 11139, Note_on_c, 3, 50, 0
5, 11169, Note_on_c, 3, 54, 100
5, 11199, Note_on_c, 3, 54, 0
5, 11229, Note_on_c, 3, 55, 100
5, 11259, Note_on_c, 3, 55, 0
5, 11289, Note_on_c, 3, 57, 100
5, 11319, Note_on_c, 3, 57, 0
5, 11349, Note_on_c, 3, 59, 100
5, 11379, Note_on_c, 3, 59, 0
5, 11409, Control_c, 3, 11, 107
5, 11409, Note_on_c, 3, 60, 100
5, 11427, Control_c, 3, 11, 104
5, 11445, Control_c, 3, 11, 101
5, 11463, Control_c, 3, 11, 98
5, 11481, Control_c, 3, 11, 95
5, 11499, Control_c, 3, 11, 92
5, 11517, Control_c, 3, 11, 89
5, 11589, Note_on_c, 3, 60, 0
5, 11589, Note_on_c, 3, 59, 100
5, 11639, Note_on_c, 3, 59, 0
5, 11649, Note_on_c, 3, 62, 100
5, 11679, Note_on_c, 3, 62, 0
5, 11709, Note_on_c, 3, 59, 100
5, 11739, Note_on_c, 3, 59, 0
5, 11769, Note_on_c, 3, 55, 100
5, 11799, Note_on_c, 3, 55, 0
5, 11829, Note_on_c, 3, 55, 100
5, 11859, Note_on_c, 3, 55, 0
5, 11889, Note_on_c, 3, 59, 100
5, 11919, Note_on_c, 3, 59, 0
5, 11949, Note_on_c, 3, 55, 100
5, 11979, Note_on_c, 3, 55, 0
5, 12009, Note_on_c, 3, 50, 100
5, 12039, Note_on_c, 3, 50, 0
5, 12069, Note_on_c, 3, 50, 100
5, 12099, Note_on_c, 3, 50, 0
5, 12129, Note_on_c, 3, 54, 100
5, 12159, Note_on_c, 3, 54, 0
5, 12189, Note_on_c, 3, 55, 100
5, 12219, Note_on_c, 3, 55, 0
5, 12249, Note_on_c, 3, 57, 100
5, 12279, Note_on_c, 3, 57, 0
5, 12309, Note_on_c, 3, 59, 100
5, 12339, Note_on_c, 3, 59, 0
5, 12369, Control_c, 3, 11, 107
5, 12369, Note_on_c, 3, 60, 100
5, 12387, Control_c, 3, 11, 104
5, 12405, Control_c, 3, 11, 101
5, 12423, Control_c, 3, 11, 98
5, 12441, Control_c, 3, 11, 95
5, 12459, Control_c, 3, 11, 92
5, 12477, Control_c, 3, 11, 89
5, 12549, Note_on_c, 3, 60, 0
5, 12549, Note_on_c, 3, 59, 100
5, 12599, Note_on_c, 3, 59, 0
5, 12609, Note_on_c, 3, 62, 100
5, 12639, Note_on_c, 3, 62, 0
5, 12669, Note_on_c, 3, 59, 100
5, 12699, Note_on_c, 3, 59, 0
5, 12729, Note_on_c, 3, 55, 100
5, 12759, Note_on_c, 3, 55, 0
5, 12789, Note_on_c, 3, 55, 100
5, 12819, Note_on_c, 3, 55, 0
5, 12849, Note_on_c, 3, 59, 100
5, 12879, Note_on_c, 3, 59, 0
5, 12909, Note_on_c, 3, 55, 100
5, 12939, Note_on_c, 3, 55, 0
5, 12969, Note_on_c, 3, 50, 100
5, 13089, Note_on_c, 3, 50, 0
5, 13449, Note_on_c, 3, 59, 100
5, 13449, Note_on_c, 3, 55, 100
5, 13449, Control_c, 3, 11, 37
5, 13473, Control_c, 3, 11, 39
5, 13497, Control_c, 3, 11, 41
5, 13509, Note_on_c, 3, 55, 0
5, 13521, Control_c, 3, 11, 43
5, 13545, Control_c, 3, 11, 45
5, 13569, Control_c, 3, 11, 47
5, 13569, Note_on_c, 3, 50, 100
5, 13629, Note_on_c, 3, 50, 0
5, 13689, Note_on_c, 3, 59, 0
5, 13689, Note_on_c, 3, 60, 100
5, 13689, Note_on_c, 3, 57, 100
5, 13749, Note_on_c, 3, 57, 0
5, 13809, Note_on_c, 3, 50, 100
5, 13869, Note_on_c, 3, 50, 0
5, 13929, Note_on_c, 3, 60, 0
5, 13929, Note_on_c, 3, 59, 100
5, 13929, Note_on_c, 3, 62, 100
5, 13989, Note_on_c, 3, 59, 0
5, 14049, Note_on_c, 3, 62, 0
5, 14049, Note_on_c, 3, 50, 100
5, 14109, Note_on_c, 3, 50, 0
5, 14169, Note_on_c, 3, 54, 100
5, 14229, Note_on_c, 3, 54, 0
5, 14289, Note_on_c, 3, 50, 100
5, 14349, Note_on_c, 3, 50, 0
5, 14349, Note_on_c, 3, 57, 100
5, 14409, Note_on_c, 3, 57, 0
5, 14409, Note_on_c, 3, 55, 100
5, 14409, Note_on_c, 3, 59, 100
5, 14469, Note_on_c, 3, 59, 0
5, 14469, Note_on_c, 3, 55, 0
5, 14529, Note_on_c, 3, 50, 100
5, 14589, Note_on_c, 3, 50, 0
5, 14589, Note_on_c, 3, 60, 100
5, 14649, Note_on_c, 3, 60, 0
5, 14649, Note_on_c, 3, 57, 100
5, 14649, Note_on_c, 3, 60, 100
5, 14709, Note_on_c, 3, 60, 0
5, 14709, Note_on_c, 3, 57, 0
5, 14769, Note_on_c, 3, 50, 100
5, 14829, Note_on_c, 3, 50, 0
5, 14829, Note_on_c, 3, 60, 100
5, 14889, Note_on_c, 3, 60, 0
5, 14889, Note_on_c, 3, 59, 100
5, 14889, Note_on_c, 3, 62, 100
5, 14949, Note_on_c, 3, 62, 0
5, 14949, Note_on_c, 3, 59, 0
5, 15009, Note_on_c, 3, 50, 100
5, 15069, Note_on_c, 3, 50, 0
5, 15129, Note_on_c, 3, 54, 100
5, 15189, Note_on_c, 3, 54, 0
5, 15249, Note_on_c, 3, 50, 100
5, 15309, Note_on_c, 3, 50, 0
5, 15309, Note_on_c, 3, 57, 100
5, 15369, Note_on_c, 3, 57, 0
5, 15369, Note_on_c, 3, 55, 100
5, 15369, Note_on_c, 3, 59, 100
5, 15429, Note_on_c, 3, 55, 0
5, 15489, Note_on_c, 3, 59, 0
5, 15489, Note_on_c, 3, 50, 100
5, 15549, Note_on_c, 3, 50, 0
5, 15549, Note_on_c, 3, 59, 100
5, 15609, Note_on_c, 3, 59, 0
5, 15609, Note_on_c, 3, 60, 100
5, 15609, Control_c, 3, 11, 47
5, 15609, Note_on_c, 3, 57, 100
5, 15639, Control_c, 3, 11, 48
5, 15669, Note_on_c, 3, 57, 0
5, 15669, Control_c, 3, 11, 49
5, 15699, Control_c, 3, 11, 50
5, 15729, Note_on_c, 3, 60, 0
5, 15729, Note_on_c, 3, 50, 100
5, 15729, Control_c, 3, 11, 51
5, 15759, Control_c, 3, 11, 52
5, 15789, Note_on_c, 3, 50, 0
5, 15789, Control_c, 3, 11, 53
5, 15789, Note_on_c, 3, 60, 100
5, 15819, Control_c, 3, 11, 54
5, 15849, Note_on_c, 3, 60, 0
5, 15849, Control_c, 3, 11, 55
5, 15849, Note_on_c, 3, 59, 100
5, 15849, Note_on_c, 3, 62, 100
5, 15879, Control_c, 3, 11, 56
5, 15909, Note_on_c, 3, 59, 0
5, 15909, Control_c, 3, 11, 57
5, 15939, Control_c, 3, 11, 58
5, 15969, Note_on_c, 3, 62, 0
5, 15969, Control_c, 3, 11, 59
5, 15969, Note_on_c, 3, 55, 100
5, 15999, Control_c, 3, 11, 60
5, 16029, Note_on_c, 3, 55, 0
5, 16029, Note_on_c, 3, 62, 100
5, 16029, Control_c, 3, 11, 61
5, 16059, Control_c, 3, 11, 62
5, 16089, Note_on_c, 3, 62, 0
5, 16089, Note_on_c, 3, 64, 100
5, 16089, Control_c, 3, 11, 63
5, 16089, Note_on_c, 3, 60, 100
5, 16119, Control_c, 3, 11, 64
5, 16149, Note_on_c, 3, 60, 0
5, 16149, Control_c, 3, 11, 65
5, 16179, Control_c, 3, 11, 66
5, 16209, Note_on_c, 3, 64, 0
5, 16209, Control_c, 3, 11, 67
5, 16209, Note_on_c, 3, 55, 100
5, 16239, Control_c, 3, 11, 68
5, 16269, Note_on_c, 3, 55, 0
5, 16269, Note_on_c, 3, 64, 100
5, 16269, Control_c, 3, 11, 69
5, 16299, Control_c, 3, 11, 70
5, 16329, Note_on_c, 3, 64, 0
5, 16329, Note_on_c, 3, 65, 100
5, 16329, Control_c, 3, 11, 71
5, 16329, Note_on_c, 3, 62, 100
5, 16359, Control_c, 3, 11, 72
5, 16389, Note_on_c, 3, 62, 0
5, 16389, Control_c, 3, 11, 73
5, 16419, Control_c, 3, 11, 74
5, 16449, Note_on_c, 3, 65, 0
5, 16449, Note_on_c, 3, 55, 100
5, 16449, Control_c, 3, 11, 75
5, 16479, Control_c, 3, 11, 76
5, 16509, Note_on_c, 3, 55, 0
5, 16509, Control_c, 3, 11, 77
5, 16509, Note_on_c, 3, 59, 100
5, 16539, Control_c, 3, 11, 78
5, 16569, Note_on_c, 3, 59, 0
5, 16569, Control_c, 3, 11, 79
5, 16569, Note_on_c, 3, 64, 100
5, 16569, Note_on_c, 3, 60, 100
5, 16599, Control_c, 3, 11, 80
5, 16629, Note_on_c, 3, 64, 0
5, 16629, Control_c, 3, 11, 81
5, 16659, Control_c, 3, 11, 82
5, 16689, Note_on_c, 3, 60, 0
5, 16689, Control_c, 3, 11, 83
5, 16689, Note_on_c, 3, 60, 100
5, 16719, Control_c, 3, 11, 84
5, 16749, Note_on_c, 3, 60, 0
5, 16749, Control_c, 3, 11, 85
5, 16779, Control_c, 3, 11, 86
5, 16809, Note_on_c, 3, 65, 100
5, 16809, Note_on_c, 3, 50, 100
5, 16809, Control_c, 3, 11, 107
5, 16809, Control_c, 3, 11, 87
5, 16817, Control_c, 3, 11, 104
5, 16826, Control_c, 3, 11, 101
5, 16835, Control_c, 3, 11, 98
5, 16844, Control_c, 3, 11, 95
5, 16853, Control_c, 3, 11, 92
5, 16859, Note_on_c, 3, 50, 0
5, 16862, Control_c, 3, 11, 89
5, 16869, Note_on_c, 3, 62, 100
5, 16919, Note_on_c, 3, 62, 0
5, 16929, Note_on_c, 3, 62, 100
5, 16979, Note_on_c, 3, 62, 0
5, 16989, Note_on_c, 3, 62, 100
5, 17039, Note_on_c, 3, 62, 0
5, 17049, Note_on_c, 3, 65, 0
5, 17049, Note_on_c, 3, 65, 100
5, 17049, Note_on_c, 3, 62, 100
5, 17049, Control_c, 3, 11, 107
5, 17066, Control_c, 3, 11, 104
5, 17084, Control_c, 3, 11, 101
5, 17102, Control_c, 3, 11, 98
5, 17120, Control_c, 3, 11, 95
5, 17138, Control_c, 3, 11, 92
5, 17156, Control_c, 3, 11, 89
5, 17289, Note_on_c, 3, 62, 0
5, 17289, Note_on_c, 3, 65, 0
5, 17289, Note_on_c, 3, 64, 100
5, 17289, Note_on_c, 3, 61, 100
5, 17289, Control_c, 3, 11, 107
5, 17306, Control_c, 3, 11, 104
5, 17324, Control_c, 3, 11, 101
5, 17342, Control_c, 3, 11, 98
5, 17360, Control_c, 3, 11, 95
5, 17378, Control_c, 3, 11, 92
5, 17396, Control_c, 3, 11, 89
5, 17529, Note_on_c, 3, 61, 0
5, 17529, Note_on_c, 3, 64, 0
5, 17529, Note_on_c, 3, 60, 100
5, 17529, Note_on_c, 3, 64, 100
5, 17529, Control_c, 3, 11, 107
5, 17546, Control_c, 3, 11, 104
5, 17564, Control_c, 3, 11, 101
5, 17582, Control_c, 3, 11, 98
5, 17600, Control_c, 3, 11, 95
5, 17618, Control_c, 3, 11, 92
5, 17636, Control_c, 3, 11, 89
5, 17769, Note_on_c, 3, 64, 0
5, 17769, Note_on_c, 3, 60, 0
5, 17769, Note_on_c, 3, 66, 100
5, 17769, Note_on_c, 3, 59, 100
5, 17829, Note_on_c, 3, 59, 0
5, 17829, Note_on_c, 3, 66, 0
5, 17889, Note_on_c, 3, 63, 100
5, 17889, Note_on_c, 3, 66, 100
5, 17889, Control_c, 3, 11, 102
5, 18129, Note_on_c, 3, 66, 0
5, 18129, Note_on_c, 3, 63, 0
5, 18129, Note_on_c, 3, 66, 100
5, 18129, Note_on_c, 3, 62, 100
5, 18249, Note_on_c, 3, 62, 0
5, 18249, Note_on_c, 3, 66, 0
5, 18249, Note_on_c, 3, 67, 100
5, 18249, Note_on_c, 3, 62, 100
5, 18299, Note_on_c, 3, 62, 0
5, 18299, Note_on_c, 3, 67, 0
5, 18309, Note_on_c, 3, 55, 100
5, 18359, Note_on_c, 3, 55, 0
5, 18369, Note_on_c, 3, 48, 100
5, 18419, Note_on_c, 3, 48, 0
5, 18429, Note_on_c, 3, 48, 100
5, 18479, Note_on_c, 3, 48, 0
5, 18489, Note_on_c, 3, 50, 100
5, 18539, Note_on_c, 3, 50, 0
5, 18549, Note_on_c, 3, 50, 100
5, 18599, Note_on_c, 3, 50, 0
5, 18609, Note_on_c, 3, 50, 100
5, 18659, Note_on_c, 3, 50, 0
5, 18669, Note_on_c, 3, 50, 100
5, 18719, Note_on_c, 3, 50, 0
5, 18789, Note_on_c, 3, 59, 100
5, 18789, Note_on_c, 3, 62, 100
5, 18789, Control_c, 3, 11, 122
5, 18807, Control_c, 3, 11, 119
5, 18825, Control_c, 3, 11, 116
5, 18843, Control_c, 3, 11, 113
5, 18861, Control_c, 3, 11, 110
5, 18879, Control_c, 3, 11, 107
5, 18894, Note_on_c, 3, 62, 0
5, 18894, Note_on_c, 3, 59, 0
5, 18897, Control_c, 3, 11, 104
5, 18909, Note_on_c, 3, 59, 100
5, 18909, Note_on_c, 3, 62, 100
5, 18959, Note_on_c, 3, 62, 0
5, 18959, Note_on_c, 3, 59, 0
5, 18969, Note_on_c, 3, 55, 100
5, 18969, Note_on_c, 3, 59, 100
5, 19029, Note_on_c, 3, 59, 0
5, 19029, Note_on_c, 3, 55, 0
5, 19269, Note_on_c, 3, 62, 100
5, 19269, Note_on_c, 3, 59, 100
5, 19269, Control_c, 3, 11, 122
5, 19287, Control_c, 3, 11, 119
5, 19305, Control_c, 3, 11, 116
5, 19323, Control_c, 3, 11, 113
5, 19341, Control_c, 3, 11, 110
5, 19359, Control_c, 3, 11, 107
5, 19374, Note_on_c, 3, 59, 0
5, 19374, Note_on_c, 3, 62, 0
5, 19377, Control_c, 3, 11, 104
5, 19389, Note_on_c, 3, 62, 100
5, 19389, Note_on_c, 3, 59, 100
5, 19439, Note_on_c, 3, 59, 0
5, 19439, Note_on_c, 3, 62, 0
5, 19449, Note_on_c, 3, 59, 100
5, 19449, Note_on_c, 3, 55, 100
5, 19509, Note_on_c, 3, 55, 0
5, 19509, Note_on_c, 3, 59, 0
5, 19749, Control_c, 3, 11, 122
5, 19749, Note_on_c, 3, 62, 100
5, 19749, Note_on_c, 3, 59, 100
5, 19767, Control_c, 3, 11, 119
5, 19785, Control_c, 3, 11, 116
5, 19803, Control_c, 3, 11, 113
5, 19821, Control_c, 3, 11, 110
5, 19839, Control_c, 3, 11, 107
5, 19857, Control_c, 3, 11, 104
5, 19859, Note_on_c, 3, 59, 0
5, 19859, Note_on_c, 3, 62, 0
5, 19869, Note_on_c, 3, 59, 100
5, 19869, Note_on_c, 3, 62, 100
5, 19919, Note_on_c, 3, 62, 0
5, 19919, Note_on_c, 3, 59, 0
5, 19929, Note_on_c, 3, 55, 100
5, 19929, Note_on_c, 3, 59, 100
5, 19989, Note_on_c, 3, 59, 0
5, 19989, Note_on_c, 3, 55, 0
5, 20229, Note_on_c, 3, 62, 100
5, 20229, Note_on_c, 3, 59, 100
5, 20229, Control_c, 3, 11, 122
5, 20247, Control_c, 3, 11, 119
5, 20265, Control_c, 3, 11, 116
5, 20283, Control_c, 3, 11, 113
5, 20301, Control_c, 3, 11, 110
5, 20319, Control_c, 3, 11, 107
5, 20334, Note_on_c, 3, 59, 0
5, 20334, Note_on_c, 3, 62, 0
5, 20337, Control_c, 3, 11, 104
5, 20349, Note_on_c, 3, 59, 100
5, 20349, Note_on_c, 3, 62, 100
5, 20399, Note_on_c, 3, 62, 0
5, 20399, Note_on_c, 3, 59, 0
5, 20409, Note_on_c, 3, 59, 100
5, 20409, Note_on_c, 3, 55, 100
5, 20469, Note_on_c, 3, 55, 0
5, 20469, Note_on_c, 3, 59, 0
5, 20649, Note_on_c, 3, 59, 100
5, 20649, Control_c, 3, 11, 122
5, 20649, Note_on_c, 3, 55, 100
5, 20666, Control_c, 3, 11, 119
5, 20684, Control_c, 3, 11, 116
5, 20702, Control_c, 3, 11, 113
5, 20720, Control_c, 3, 11, 110
5, 20738, Control_c, 3, 11, 107
5, 20756, Control_c, 3, 11, 104
5, 20994, Note_on_c, 3, 55, 0
5, 20994, Note_on_c, 3, 59, 0
5, 21009, Note_on_c, 3, 59, 100
5, 21009, Note_on_c, 3, 55, 100
5, 21039, Note_on_c, 3, 55, 0
5, 21039, Note_on_c, 3, 59, 0
5, 21069, Note_on_c, 3, 59, 100
5, 21069, Note_on_c, 3, 55, 100
5, 21099, Note_on_c, 3, 55, 0
5, 21099, Note_on_c, 3, 59, 0
5, 21129, Note_on_c, 3, 57, 100
5, 21129, Control_c, 3, 11, 122
5, 21129, Note_on_c, 3, 60, 100
5, 21146, Control_c, 3, 11, 119
5, 21164, Control_c, 3, 11, 116
5, 21182, Control_c, 3, 11, 113
5, 21200, Control_c, 3, 11, 110
5, 21218, Control_c, 3, 11, 107
5, 21236, Control_c, 3, 11, 104
5, 21474, Note_on_c, 3, 60, 0
5, 21474, Note_on_c, 3, 57, 0
5, 21489, Note_on_c, 3, 57, 100
5, 21489, Note_on_c, 3, 60, 100
5, 21519, Note_on_c, 3, 60, 0
5, 21519, Note_on_c, 3, 57, 0
5, 21549, Note_on_c, 3, 60, 100
5, 21549, Note_on_c, 3, 57, 100
5, 21579, Note_on_c, 3, 57, 0
5, 21579, Note_on_c, 3, 60, 0
5, 21609, Note_on_c, 3, 62, 100
5, 21609, Control_c, 3, 11, 122
5, 21609, Note_on_c, 3, 59, 100
5, 21626, Control_c, 3, 11, 119
5, 21644, Control_c, 3, 11, 116
5, 21662, Control_c, 3, 11, 113
5, 21680, Control_c, 3, 11, 110
5, 21698, Control_c, 3, 11, 107
5, 21716, Control_c, 3, 11, 104
5, 21954, Note_on_c, 3, 59, 0
5, 21954, Note_on_c, 3, 62, 0
5, 21969, Note_on_c, 3, 62, 100
5, 21969, Note_on_c, 3, 59, 100
5, 21999, Note_on_c, 3, 59, 0
5, 21999, Note_on_c, 3, 62, 0
5, 22029, Note_on_c, 3, 62, 100
5, 22029, Note_on_c, 3, 59, 100
5, 22059, Note_on_c, 3, 59, 0
5, 22059, Note_on_c, 3, 62, 0
5, 22089, Control_c, 3, 11, 122
5, 22089, Note_on_c, 3, 60, 100
5, 22089, Note_on_c, 3, 64, 100
5, 22106, Control_c, 3, 11, 119
5, 22124, Control_c, 3, 11, 116
5, 22142, Control_c, 3, 11, 113
5, 22160, Control_c, 3, 11, 110
5, 22178, Control_c, 3, 11, 107
5, 22196, Control_c, 3, 11, 104
5, 22434, Note_on_c, 3, 64, 0
5, 22434, Note_on_c, 3, 60, 0
5, 22449, Note_on_c, 3, 61, 100
5, 22449, Note_on_c, 3, 64, 100
5, 22479, Note_on_c, 3, 64, 0
5, 22479, Note_on_c, 3, 61, 0
5, 22509, Note_on_c, 3, 61, 100
5, 22509, Note_on_c, 3, 64, 100
5, 22539, Note_on_c, 3, 64, 0
5, 22539, Note_on_c, 3, 61, 0
5, 22569, Control_c, 3, 11, 122
5, 22569, Note_on_c, 3, 62, 100
5, 22569, Note_on_c, 3, 65, 100
5, 22586, Control_c, 3, 11, 119
5, 22604, Control_c, 3, 11, 116
5, 22622, Control_c, 3, 11, 113
5, 22640, Control_c, 3, 11, 110
5, 22658, Control_c, 3, 11, 107
5, 22676, Control_c, 3, 11, 104
5, 22749, Note_on_c, 3, 65, 0
5, 22749, Note_on_c, 3, 62, 0
5, 22749, Note_on_c, 3, 61, 100
5, 22749, Note_on_c, 3, 64, 100
5, 22794, Note_on_c, 3, 64, 0
5, 22794, Note_on_c, 3, 61, 0
5, 22809, Note_on_c, 3, 65, 100
5, 22809, Control_c, 3, 11, 122
5, 22809, Note_on_c, 3, 62, 100
5, 22826, Control_c, 3, 11, 119
5, 22844, Control_c, 3, 11, 116
5, 22862, Control_c, 3, 11, 113
5, 22880, Control_c, 3, 11, 110
5, 22898, Control_c, 3, 11, 107
5, 22916, Control_c, 3, 11, 104
5, 22989, Note_on_c, 3, 62, 0
5, 22989, Note_on_c, 3, 65, 0
5, 22989, Note_on_c, 3, 61, 100
5, 22989, Note_on_c, 3, 64, 100
5, 23034, Note_on_c, 3, 64, 0
5, 23034, Note_on_c, 3, 61, 0
5, 23049, Note_on_c, 3, 65, 100
5, 23049, Note_on_c, 3, 62, 100
5, 23049, Control_c, 3, 11, 87
5, 23094, Note_on_c, 3, 62, 0
5, 23094, Note_on_c, 3, 65, 0
5, 25269, Note_on_c, 3, 57, 100
5, 25269, Control_c, 3, 11, 47
5, 25299, Note_on_c, 3, 57, 0
5, 25329, Note_on_c, 3, 59, 100
5, 25359, Note_on_c, 3, 59, 0
5, 25389, Note_on_c, 3, 61, 100
5, 25419, Note_on_c, 3, 61, 0
5, 25449, Note_on_c, 3, 62, 100
5, 25479, Note_on_c, 3, 62, 0
5, 25509, Note_on_c, 3, 64, 100
5, 25539, Note_on_c, 3, 64, 0
5, 25569, Note_on_c, 3, 65, 100
5, 25599, Note_on_c, 3, 65, 0
5, 27069, Note_on_c, 3, 64, 100
5, 27069, Note_on_c, 3, 67, 100
5, 27069, Control_c, 3, 11, 57
5, 27090, Control_c, 3, 11, 58
5, 27099, Note_on_c, 3, 67, 0
5, 27099, Note_on_c, 3, 64, 0
5, 27111, Control_c, 3, 11, 59
5, 27129, Note_on_c, 3, 64, 100
5, 27129, Note_on_c, 3, 67, 100
5, 27133, Control_c, 3, 11, 60
5, 27154, Control_c, 3, 11, 61
5, 27159, Note_on_c, 3, 67, 0
5, 27159, Note_on_c, 3, 64, 0
5, 27175, Control_c, 3, 11, 62
5, 27189, Note_on_c, 3, 67, 100
5, 27189, Note_on_c, 3, 64, 100
5, 27197, Control_c, 3, 11, 63
5, 27218, Control_c, 3, 11, 64
5, 27219, Note_on_c, 3, 64, 0
5, 27219, Note_on_c, 3, 67, 0
5, 27239, Control_c, 3, 11, 65
5, 27249, Note_on_c, 3, 67, 100
5, 27249, Note_on_c, 3, 64, 100
5, 27261, Control_c, 3, 11, 66
5, 27279, Note_on_c, 3, 64, 0
5, 27279, Note_on_c, 3, 67, 0
5, 27282, Control_c, 3, 11, 67
5, 27303, Control_c, 3, 11, 68
5, 27309, Note_on_c, 3, 67, 100
5, 27309, Note_on_c, 3, 64, 100
5, 27325, Control_c, 3, 11, 69
5, 27339, Note_on_c, 3, 64, 0
5, 27339, Note_on_c, 3, 67, 0
5, 27346, Control_c, 3, 11, 70
5, 27367, Control_c, 3, 11, 71
5, 27369, Note_on_c, 3, 67, 100
5, 27369, Note_on_c, 3, 64, 100
5, 27389, Control_c, 3, 11, 72
5, 27410, Control_c, 3, 11, 73
5, 27431, Control_c, 3, 11, 74
5, 27453, Control_c, 3, 11, 75
5, 27474, Control_c, 3, 11, 76
5, 27489, Note_on_c, 3, 64, 0
5, 27489, Note_on_c, 3, 67, 0
5, 27489, Note_on_c, 3, 65, 100
5, 27489, Note_on_c, 3, 62, 100
5, 27495, Control_c, 3, 11, 77
5, 27517, Control_c, 3, 11, 78
5, 27534, Note_on_c, 3, 62, 0
5, 27534, Note_on_c, 3, 65, 0
5, 27538, Control_c, 3, 11, 79
5, 27549, Note_on_c, 3, 62, 100
5, 27549, Note_on_c, 3, 65, 100
5, 27559, Control_c, 3, 11, 80
5, 27579, Note_on_c, 3, 65, 0
5, 27579, Note_on_c, 3, 62, 0
5, 27581, Control_c, 3, 11, 81
5, 27602, Control_c, 3, 11, 82
5, 27609, Note_on_c, 3, 65, 100
5, 27609, Note_on_c, 3, 62, 100
5, 27623, Control_c, 3, 11, 83
5, 27639, Note_on_c, 3, 62, 0
5, 27639, Note_on_c, 3, 65, 0
5, 27645, Control_c, 3, 11, 84
5, 27666, Control_c, 3, 11, 85
5, 27669, Note_on_c, 3, 65, 100
5, 27669, Note_on_c, 3, 62, 100
5, 27687, Control_c, 3, 11, 86
5, 27699, Note_on_c, 3, 62, 0
5, 27699, Note_on_c, 3, 65, 0
5, 27709, Control_c, 3, 11, 87
5, 27729, Note_on_c, 3, 65, 100
5, 27729, Note_on_c, 3, 62, 100
5, 27730, Control_c, 3, 11, 88
5, 27751, Control_c, 3, 11, 89
5, 27759, Note_on_c, 3, 62, 0
5, 27759, Note_on_c, 3, 65, 0
5, 27773, Control_c, 3, 11, 90
5, 27789, Note_on_c, 3, 62, 100
5, 27789, Note_on_c, 3, 65, 100
5, 27794, Control_c, 3, 11, 91
5, 27815, Control_c, 3, 11, 92
5, 27819, Note_on_c, 3, 65, 0
5, 27819, Note_on_c, 3, 62, 0
5, 27837, Control_c, 3, 11, 93
5, 27849, Note_on_c, 3, 65, 100
5, 27849, Note_on_c, 3, 62, 100
5, 27858, Control_c, 3, 11, 94
5, 27879, Control_c, 3, 11, 95
5, 27901, Control_c, 3, 11, 96
5, 27922, Control_c, 3, 11, 97
5, 27943, Control_c, 3, 11, 98
5, 27965, Control_c, 3, 11, 99
5, 27969, Note_on_c, 3, 62, 0
5, 27969, Note_on_c, 3, 65, 0
5, 27969, Note_on_c, 3, 64, 100
5, 27969, Note_on_c, 3, 60, 100
5, 27986, Control_c, 3, 11, 100
5, 28007, Control_c, 3, 11, 101
5, 28014, Note_on_c, 3, 60, 0
5, 28014, Note_on_c, 3, 64, 0
5, 28029, Note_on_c, 3, 64, 100
5, 28029, Note_on_c, 3, 60, 100
5, 28029, Control_c, 3, 11, 102
5, 28059, Note_on_c, 3, 60, 0
5, 28059, Note_on_c, 3, 64, 0
5, 28089, Note_on_c, 3, 60, 100
5, 28089, Note_on_c, 3, 64, 100
5, 28139, Note_on_c, 3, 64, 0
5, 28139, Note_on_c, 3, 60, 0
5, 28149, Note_on_c, 3, 64, 100
5, 28149, Note_on_c, 3, 60, 100
5, 28199, Note_on_c, 3, 60, 0
5, 28199, Note_on_c, 3, 64, 0
5, 28209, Note_on_c, 3, 60, 100
5, 28209, Note_on_c, 3, 64, 100
5, 28259, Note_on_c, 3, 64, 0
5, 28259, Note_on_c, 3, 60, 0
5, 28269, Note_on_c, 3, 64, 100
5, 28269, Note_on_c, 3, 60, 100
5, 28319, Note_on_c, 3, 60, 0
5, 28319, Note_on_c, 3, 64, 0
5, 28329, Note_on_c, 3, 60, 100
5, 28329, Note_on_c, 3, 62, 100
5, 28389, Note_on_c, 3, 62, 0
5, 28389, Note_on_c, 3, 60, 0
5, 28449, Note_on_c, 3, 65, 100
5, 28449, Note_on_c, 3, 57, 100
5, 28509, Note_on_c, 3, 57, 0
5, 28509, Note_on_c, 3, 65, 0
5, 28569, Note_on_c, 3, 52, 100
5, 28569, Note_on_c, 3, 60, 100
5, 28629, Note_on_c, 3, 60, 0
5, 28629, Note_on_c, 3, 52, 0
5, 28689, Note_on_c, 3, 59, 100
5, 28689, Note_on_c, 3, 50, 100
5, 28749, Note_on_c, 3, 50, 0
5, 28749, Note_on_c, 3, 59, 0
5, 28809, Note_on_c, 3, 52, 100
5, 28809, Note_on_c, 3, 60, 100
5, 28929, Note_on_c, 3, 60, 0
5, 28929, Note_on_c, 3, 52, 0
5, 29769, Control_c, 3, 11, 87
5, 29769, Note_on_c, 3, 67, 100
5, 29939, Note_on_c, 3, 67, 0
5, 29949, Note_on_c, 3, 64, 100
5, 29999, Note_on_c, 3, 64, 0
5, 30009, Note_on_c, 3, 65, 100
5, 30059, Note_on_c, 3, 65, 0
5, 30069, Note_on_c, 3, 62, 100
5, 30119, Note_on_c, 3, 62, 0
5, 30129, Note_on_c, 3, 59, 100
5, 30179, Note_on_c, 3, 59, 0
5, 30189, Note_on_c, 3, 55, 100
5, 30239, Note_on_c, 3, 55, 0
5, 30249, Note_on_c, 3, 60, 100
5, 30369, Note_on_c, 3, 60, 0
5, 30849, Note_on_c, 3, 64, 100
5, 30849, Note_on_c, 3, 60, 100
5, 31209, Note_on_c, 3, 64, 0
5, 31209, Note_on_c, 3, 62, 100
5, 31329, Note_on_c, 3, 60, 0
5, 31329, Note_on_c, 3, 59, 100
5, 31689, Note_on_c, 3, 59, 0
5, 31689, Note_on_c, 3, 62, 0
5, 31689, Note_on_c, 3, 64, 100
5, 31689, Note_on_c, 3, 60, 100
5, 31809, Note_on_c, 3, 64, 0
5, 31809, Note_on_c, 3, 66, 100
5, 31929, Note_on_c, 3, 66, 0
5, 31929, Note_on_c, 3, 60, 0
5, 31929, Note_on_c, 3, 67, 100
5, 31929, Note_on_c, 3, 59, 100
5, 32049, Note_on_c, 3, 59, 0
5, 32049, Note_on_c, 3, 67, 0
5, 32049, Note_on_c, 3, 62, 100
5, 32049, Note_on_c, 3, 47, 100
5, 32169, Note_on_c, 3, 47, 0
5, 32169, Note_on_c, 3, 62, 0
5, 32169, Note_on_c, 3, 48, 100
5, 32169, Note_on_c, 3, 64, 100
5, 32289, Note_on_c, 3, 64, 0
5, 32289, Note_on_c, 3, 48, 0
5, 32409, Note_on_c, 3, 64, 100
5, 32409, Note_on_c, 3, 49, 100
5, 32529, Note_on_c, 3, 49, 0
5, 32529, Note_on_c, 3, 64, 0
5, 32649, Note_on_c, 3, 50, 100
5, 32649, Note_on_c, 3, 62, 100
5, 32679, Note_on_c, 3, 62, 0
5, 32679, Note_on_c, 3, 50, 0
5, 32709, Note_on_c, 3, 50, 100
5, 32739, Note_on_c, 3, 50, 0
5, 32769, Note_on_c, 3, 54, 100
5, 32799, Note_on_c, 3, 54, 0
5, 32829, Note_on_c, 3, 55, 100
5, 32859, Note_on_c, 3, 55, 0
5, 32889, Note_on_c, 3, 57, 100
5, 32919, Note_on_c, 3, 57, 0
5, 32949, Note_on_c, 3, 59, 100
5, 32979, Note_on_c, 3, 59, 0
5, 33009, Note_on_c, 3, 60, 100
5, 33009, Control_c, 3, 11, 107
5, 33027, Control_c, 3, 11, 104
5, 33045, Control_c, 3, 11, 101
5, 33063, Control_c, 3, 11, 98
5, 33081, Control_c, 3, 11, 95
5, 33099, Control_c, 3, 11, 92
5, 33117, Control_c, 3, 11, 89
5, 33189, Note_on_c, 3, 60, 0
5, 33189, Note_on_c, 3, 59, 100
5, 33239, Note_on_c, 3, 59, 0
5, 33249, Note_on_c, 3, 62, 100
5, 33279, Note_on_c, 3, 62, 0
5, 33309, Note_on_c, 3, 59, 100
5, 33339, Note_on_c, 3, 59, 0
5, 33369, Note_on_c, 3, 55, 100
5, 33399, Note_on_c, 3, 55, 0
5, 33429, Note_on_c, 3, 55, 100
5, 33459, Note_on_c, 3, 55, 0
5, 33489, Note_on_c, 3, 59, 100
5, 33519, Note_on_c, 3, 59, 0
5, 33549, Note_on_c, 3, 55, 100
5, 33579, Note_on_c, 3, 55, 0
5, 33609, Note_on_c, 3, 50, 100
5, 33639, Note_on_c, 3, 50, 0
5, 33669, Note_on_c, 3, 50, 100
5, 33699, Note_on_c, 3, 50, 0
5, 33729, Note_on_c, 3, 54, 100
5, 33759, Note_on_c, 3, 54, 0
5, 33789, Note_on_c, 3, 55, 100
5, 33819, Note_on_c, 3, 55, 0
5, 33849, Note_on_c, 3, 57, 100
5, 33879, Note_on_c, 3, 57, 0
5, 33909, Note_on_c, 3, 59, 100
5, 33939, Note_on_c, 3, 59, 0
5, 33969, Control_c, 3, 11, 107
5, 33969, Note_on_c, 3, 60, 100
5, 33987, Control_c, 3, 11, 104
5, 34005, Control_c, 3, 11, 101
5, 34023, Control_c, 3, 11, 98
5, 34041, Control_c, 3, 11, 95
5, 34059, Control_c, 3, 11, 92
5, 34077, Control_c, 3, 11, 89
5, 34149, Note_on_c, 3, 60, 0
5, 34149, Note_on_c, 3, 59, 100
5, 34199, Note_on_c, 3, 59, 0
5, 34209, Note_on_c, 3, 62, 100
5, 34239, Note_on_c, 3, 62, 0
5, 34269, Note_on_c, 3, 59, 100
5, 34299, Note_on_c, 3, 59, 0
5, 34329, Note_on_c, 3, 55, 100
5, 34359, Note_on_c, 3, 55, 0
5, 34389, Note_on_c, 3, 55, 100
5, 34419, Note_on_c, 3, 55, 0
5, 34449, Note_on_c, 3, 59, 100
5, 34479, Note_on_c, 3, 59, 0
5, 34509, Note_on_c, 3, 55, 100
5, 34539, Note_on_c, 3, 55, 0
5, 34569, Note_on_c, 3, 50, 100
5, 34689, Note_on_c, 3, 50, 0
5, 35049, Note_on_c, 3, 55, 100
5, 35049, Note_on_c, 3, 59, 100
5, 35049, Control_c, 3, 11, 37
5, 35073, Control_c, 3, 11, 39
5, 35097, Control_c, 3, 11, 41
5, 35109, Note_on_c, 3, 55, 0
5, 35121, Control_c, 3, 11, 43
5, 35145, Control_c, 3, 11, 45
5, 35169, Note_on_c, 3, 50, 100
5, 35169, Control_c, 3, 11, 47
5, 35229, Note_on_c, 3, 50, 0
5, 35289, Note_on_c, 3, 59, 0
5, 35289, Note_on_c, 3, 60, 100
5, 35289, Note_on_c, 3, 57, 100
5, 35349, Note_on_c, 3, 57, 0
5, 35409, Note_on_c, 3, 50, 100
5, 35469, Note_on_c, 3, 50, 0
5, 35529, Note_on_c, 3, 60, 0
5, 35529, Note_on_c, 3, 62, 100
5, 35529, Note_on_c, 3, 59, 100
5, 35589, Note_on_c, 3, 59, 0
5, 35649, Note_on_c, 3, 62, 0
5, 35649, Note_on_c, 3, 50, 100
5, 35709, Note_on_c, 3, 50, 0
5, 35769, Note_on_c, 3, 54, 100
5, 35829, Note_on_c, 3, 54, 0
5, 35889, Note_on_c, 3, 50, 100
5, 35949, Note_on_c, 3, 50, 0
5, 35949, Note_on_c, 3, 57, 100
5, 36009, Note_on_c, 3, 57, 0
5, 36009, Note_on_c, 3, 55, 100
5, 36009, Note_on_c, 3, 59, 100
5, 36069, Note_on_c, 3, 59, 0
5, 36069, Note_on_c, 3, 55, 0
5, 36129, Note_on_c, 3, 50, 100
5, 36189, Note_on_c, 3, 50, 0
5, 36189, Note_on_c, 3, 60, 100
5, 36249, Note_on_c, 3, 60, 0
5, 36249, Note_on_c, 3, 57, 100
5, 36249, Note_on_c, 3, 60, 100
5, 36309, Note_on_c, 3, 60, 0
5, 36309, Note_on_c, 3, 57, 0
5, 36369, Note_on_c, 3, 50, 100
5, 36429, Note_on_c, 3, 50, 0
5, 36429, Note_on_c, 3, 60, 100
5, 36489, Note_on_c, 3, 60, 0
5, 36489, Note_on_c, 3, 59, 100
5, 36489, Note_on_c, 3, 62, 100
5, 36549, Note_on_c, 3, 62, 0
5, 36549, Note_on_c, 3, 59, 0
5, 36609, Note_on_c, 3, 50, 100
5, 36669, Note_on_c, 3, 50, 0
5, 36729, Note_on_c, 3, 54, 100
5, 36789, Note_on_c, 3, 54, 0
5, 36849, Note_on_c, 3, 50, 100
5, 36909, Note_on_c, 3, 50, 0
5, 36909, Note_on_c, 3, 57, 100
5, 36969, Note_on_c, 3, 57, 0
5, 36969, Note_on_c, 3, 59, 100
5, 36969, Note_on_c, 3, 55, 100
5, 37029, Note_on_c, 3, 55, 0
5, 37089, Note_on_c, 3, 59, 0
5, 37089, Note_on_c, 3, 50, 100
5, 37149, Note_on_c, 3, 50, 0
5, 37149, Note_on_c, 3, 59, 100
5, 37209, Note_on_c, 3, 59, 0
5, 37209, Note_on_c, 3, 57, 100
5, 37209, Control_c, 3, 11, 47
5, 37209, Note_on_c, 3, 60, 100
5, 37239, Control_c, 3, 11, 48
5, 37269, Note_on_c, 3, 57, 0
5, 37269, Control_c, 3, 11, 49
5, 37299, Control_c, 3, 11, 50
5, 37329, Note_on_c, 3, 60, 0
5, 37329, Note_on_c, 3, 50, 100
5, 37329, Control_c, 3, 11, 51
5, 37359, Control_c, 3, 11, 52
5, 37389, Note_on_c, 3, 50, 0
5, 37389, Note_on_c, 3, 60, 100
5, 37389, Control_c, 3, 11, 53
5, 37419, Control_c, 3, 11, 54
5, 37449, Note_on_c, 3, 60, 0
5, 37449, Note_on_c, 3, 62, 100
5, 37449, Control_c, 3, 11, 55
5, 37449, Note_on_c, 3, 59, 100
5, 37479, Control_c, 3, 11, 56
5, 37509, Note_on_c, 3, 59, 0
5, 37509, Control_c, 3, 11, 57
5, 37539, Control_c, 3, 11, 58
5, 37569, Note_on_c, 3, 62, 0
5, 37569, Note_on_c, 3, 55, 100
5, 37569, Control_c, 3, 11, 59
5, 37599, Control_c, 3, 11, 60
5, 37629, Note_on_c, 3, 55, 0
5, 37629, Note_on_c, 3, 62, 100
5, 37629, Control_c, 3, 11, 61
5, 37659, Control_c, 3, 11, 62
5, 37689, Note_on_c, 3, 62, 0
5, 37689, Note_on_c, 3, 64, 100
5, 37689, Control_c, 3, 11, 63
5, 37689, Note_on_c, 3, 60, 100
5, 37719, Control_c, 3, 11, 64
5, 37749, Note_on_c, 3, 60, 0
5, 37749, Control_c, 3, 11, 65
5, 37779, Control_c, 3, 11, 66
5, 37809, Note_on_c, 3, 64, 0
5, 37809, Note_on_c, 3, 55, 100
5, 37809, Control_c, 3, 11, 67
5, 37839, Control_c, 3, 11, 68
5, 37869, Note_on_c, 3, 55, 0
5, 37869, Control_c, 3, 11, 69
5, 37869, Note_on_c, 3, 64, 100
5, 37899, Control_c, 3, 11, 70
5, 37929, Note_on_c, 3, 64, 0
5, 37929, Note_on_c, 3, 62, 100
5, 37929, Control_c, 3, 11, 71
5, 37929, Note_on_c, 3, 65, 100
5, 37959, Control_c, 3, 11, 72
5, 37989, Note_on_c, 3, 62, 0
5, 37989, Control_c, 3, 11, 73
5, 38019, Control_c, 3, 11, 74
5, 38049, Note_on_c, 3, 65, 0
5, 38049, Note_on_c, 3, 55, 100
5, 38049, Control_c, 3, 11, 75
5, 38079, Control_c, 3, 11, 76
5, 38109, Note_on_c, 3, 55, 0
5, 38109, Note_on_c, 3, 59, 100
5, 38109, Control_c, 3, 11, 77
5, 38139, Control_c, 3, 11, 78
5, 38169, Note_on_c, 3, 59, 0
5, 38169, Note_on_c, 3, 60, 100
5, 38169, Control_c, 3, 11, 79
5, 38169, Note_on_c, 3, 64, 100
5, 38199, Control_c, 3, 11, 80
5, 38229, Note_on_c, 3, 64, 0
5, 38229, Control_c, 3, 11, 81
5, 38259, Control_c, 3, 11, 82
5, 38289, Note_on_c, 3, 60, 0
5, 38289, Control_c, 3, 11, 83
5, 38289, Note_on_c, 3, 60, 100
5, 38319, Control_c, 3, 11, 84
5, 38349, Note_on_c, 3, 60, 0
5, 38349, Control_c, 3, 11, 85
5, 38379, Control_c, 3, 11, 86
5, 38409, Control_c, 3, 11, 87
5, 38409, Note_on_c, 3, 50, 100
5, 38409, Note_on_c, 3, 65, 100
5, 38409, Control_c, 3, 11, 107
5, 38417, Control_c, 3, 11, 104
5, 38426, Control_c, 3, 11, 101
5, 38435, Control_c, 3, 11, 98
5, 38444, Control_c, 3, 11, 95
5, 38453, Control_c, 3, 11, 92
5, 38459, Note_on_c, 3, 50, 0
5, 38462, Control_c, 3, 11, 89
5, 38469, Note_on_c, 3, 62, 100
5, 38519, Note_on_c, 3, 62, 0
5, 38529, Note_on_c, 3, 62, 100
5, 38579, Note_on_c, 3, 62, 0
5, 38589, Note_on_c, 3, 62, 100
5, 38639, Note_on_c, 3, 62, 0
5, 38649, Note_on_c, 3, 65, 0
5, 38649, Note_on_c, 3, 65, 100
5, 38649, Control_c, 3, 11, 107
5, 38649, Note_on_c, 3, 62, 100
5, 38666, Control_c, 3, 11, 104
5, 38684, Control_c, 3, 11, 101
5, 38702, Control_c, 3, 11, 98
5, 38720, Control_c, 3, 11, 95
5, 38738, Control_c, 3, 11, 92
5, 38756, Control_c, 3, 11, 89
5, 38889, Note_on_c, 3, 62, 0
5, 38889, Note_on_c, 3, 65, 0
5, 38889, Note_on_c, 3, 61, 100
5, 38889, Note_on_c, 3, 64, 100
5, 38889, Control_c, 3, 11, 107
5, 38906, Control_c, 3, 11, 104
5, 38924, Control_c, 3, 11, 101
5, 38942, Control_c, 3, 11, 98
5, 38960, Control_c, 3, 11, 95
5, 38978, Control_c, 3, 11, 92
5, 38996, Control_c, 3, 11, 89
5, 39129, Note_on_c, 3, 64, 0
5, 39129, Note_on_c, 3, 61, 0
5, 39129, Note_on_c, 3, 60, 100
5, 39129, Note_on_c, 3, 64, 100
5, 39129, Control_c, 3, 11, 107
5, 39146, Control_c, 3, 11, 104
5, 39164, Control_c, 3, 11, 101
5, 39182, Control_c, 3, 11, 98
5, 39200, Control_c, 3, 11, 95
5, 39218, Control_c, 3, 11, 92
5, 39236, Control_c, 3, 11, 89
5, 39369, Note_on_c, 3, 64, 0
5, 39369, Note_on_c, 3, 60, 0
5, 39369, Note_on_c, 3, 66, 100
5, 39369, Note_on_c, 3, 59, 100
5, 39429, Note_on_c, 3, 59, 0
5, 39429, Note_on_c, 3, 66, 0
5, 39489, Note_on_c, 3, 66, 100
5, 39489, Control_c, 3, 11, 102
5, 39489, Note_on_c, 3, 63, 100
5, 39729, Note_on_c, 3, 63, 0
5, 39729, Note_on_c, 3, 66, 0
5, 39729, Note_on_c, 3, 62, 100
5, 39729, Note_on_c, 3, 66, 100
5, 39849, Note_on_c, 3, 66, 0
5, 39849, Note_on_c, 3, 62, 0
5, 39849, Note_on_c, 3, 62, 100
5, 39849, Note_on_c, 3, 67, 100
5, 39899, Note_on_c, 3, 67, 0
5, 39899, Note_on_c, 3, 62, 0
5, 39909, Note_on_c, 3, 55, 100
5, 39959, Note_on_c, 3, 55, 0
5, 39969, Note_on_c, 3, 48, 100
5, 40019, Note_on_c, 3, 48, 0
5, 40029, Note_on_c, 3, 48, 100
5, 40079, Note_on_c, 3, 48, 0
5, 40089, Note_on_c, 3, 50, 100
5, 40139, Note_on_c, 3, 50, 0
5, 40149, Note_on_c, 3, 50, 100
5, 40199, Note_on_c, 3, 50, 0
5, 40209, Note_on_c, 3, 50, 100
5, 40259, Note_on_c, 3, 50, 0
5, 40269, Note_on_c, 3, 50, 100
5, 40319, Note_on_c, 3, 50, 0
5, 40389, Control_c, 3, 11, 122
5, 40389, Note_on_c, 3, 59, 100
5, 40389, Note_on_c, 3, 62, 100
5, 40407, Control_c, 3, 11, 119
5, 40425, Control_c, 3, 11, 116
5, 40443, Control_c, 3, 11, 113
5, 40461, Control_c, 3, 11, 110
5, 40479, Control_c, 3, 11, 107
5, 40494, Note_on_c, 3, 62, 0
5, 40494, Note_on_c, 3, 59, 0
5, 40497, Control_c, 3, 11, 104
5, 40509, Note_on_c, 3, 62, 100
5, 40509, Note_on_c, 3, 59, 100
5, 40559, Note_on_c, 3, 59, 0
5, 40559, Note_on_c, 3, 62, 0
5, 40569, Note_on_c, 3, 55, 100
5, 40569, Note_on_c, 3, 59, 100
5, 40629, Note_on_c, 3, 59, 0
5, 40629, Note_on_c, 3, 55, 0
5, 40869, Control_c, 3, 11, 122
5, 40869, Note_on_c, 3, 62, 100
5, 40869, Note_on_c, 3, 59, 100
5, 40887, Control_c, 3, 11, 119
5, 40905, Control_c, 3, 11, 116
5, 40923, Control_c, 3, 11, 113
5, 40941, Control_c, 3, 11, 110
5, 40959, Control_c, 3, 11, 107
5, 40974, Note_on_c, 3, 59, 0
5, 40974, Note_on_c, 3, 62, 0
5, 40977, Control_c, 3, 11, 104
5, 40989, Note_on_c, 3, 62, 100
5, 40989, Note_on_c, 3, 59, 100
5, 41039, Note_on_c, 3, 59, 0
5, 41039, Note_on_c, 3, 62, 0
5, 41049, Note_on_c, 3, 55, 100
5, 41049, Note_on_c, 3, 59, 100
5, 41109, Note_on_c, 3, 59, 0
5, 41109, Note_on_c, 3, 55, 0
5, 41349, Control_c, 3, 11, 122
5, 41349, Note_on_c, 3, 62, 100
5, 41349, Note_on_c, 3, 59, 100
5, 41367, Control_c, 3, 11, 119
5, 41385, Control_c, 3, 11, 116
5, 41403, Control_c, 3, 11, 113
5, 41421, Control_c, 3, 11, 110
5, 41439, Control_c, 3, 11, 107
5, 41454, Note_on_c, 3, 59, 0
5, 41454, Note_on_c, 3, 62, 0
5, 41457, Control_c, 3, 11, 104
5, 41469, Note_on_c, 3, 59, 100
5, 41469, Note_on_c, 3, 62, 100
5, 41519, Note_on_c, 3, 62, 0
5, 41519, Note_on_c, 3, 59, 0
5, 41529, Note_on_c, 3, 55, 100
5, 41529, Note_on_c, 3, 59, 100
5, 41589, Note_on_c, 3, 59, 0
5, 41589, Note_on_c, 3, 55, 0
5, 41829, Note_on_c, 3, 59, 100
5, 41829, Note_on_c, 3, 62, 100
5, 41829, Control_c, 3, 11, 122
5, 41847, Control_c, 3, 11, 119
5, 41865, Control_c, 3, 11, 116
5, 41883, Control_c, 3, 11, 113
5, 41901, Control_c, 3, 11, 110
5, 41919, Control_c, 3, 11, 107
5, 41934, Note_on_c, 3, 62, 0
5, 41934, Note_on_c, 3, 59, 0
5, 41937, Control_c, 3, 11, 104
5, 41949, Note_on_c, 3, 59, 100
5, 41949, Note_on_c, 3, 62, 100
5, 41999, Note_on_c, 3, 62, 0
5, 41999, Note_on_c, 3, 59, 0
5, 42009, Note_on_c, 3, 55, 100
5, 42009, Note_on_c, 3, 59, 100
5, 42069, Note_on_c, 3, 59, 0
5, 42069, Note_on_c, 3, 55, 0
5, 42249, Control_c, 3, 11, 122
5, 42249, Note_on_c, 3, 59, 100
5, 42249, Note_on_c, 3, 55, 100
5, 42266, Control_c, 3, 11, 119
5, 42284, Control_c, 3, 11, 116
5, 42302, Control_c, 3, 11, 113
5, 42320, Control_c, 3, 11, 110
5, 42338, Control_c, 3, 11, 107
5, 42356, Control_c, 3, 11, 104
5, 42594, Note_on_c, 3, 55, 0
5, 42594, Note_on_c, 3, 59, 0
5, 42609, Note_on_c, 3, 55, 100
5, 42609, Note_on_c, 3, 59, 100
5, 42639, Note_on_c, 3, 59, 0
5, 42639, Note_on_c, 3, 55, 0
5, 42669, Note_on_c, 3, 59, 100
5, 42669, Note_on_c, 3, 55, 100
5, 42699, Note_on_c, 3, 55, 0
5, 42699, Note_on_c, 3, 59, 0
5, 42729, Control_c, 3, 11, 122
5, 42729, Note_on_c, 3, 57, 100
5, 42729, Note_on_c, 3, 60, 100
5, 42746, Control_c, 3, 11, 119
5, 42764, Control_c, 3, 11, 116
5, 42782, Control_c, 3, 11, 113
5, 42800, Control_c, 3, 11, 110
5, 42818, Control_c, 3, 11, 107
5, 42836, Control_c, 3, 11, 104
5, 43074, Note_on_c, 3, 60, 0
5, 43074, Note_on_c, 3, 57, 0
5, 43089, Note_on_c, 3, 60, 100
5, 43089, Note_on_c, 3, 57, 100
5, 43119, Note_on_c, 3, 57, 0
5, 43119, Note_on_c, 3, 60, 0
5, 43149, Note_on_c, 3, 60, 100
5, 43149, Note_on_c, 3, 57, 100
5, 43179, Note_on_c, 3, 57, 0
5, 43179, Note_on_c, 3, 60, 0
5, 43209, Control_c, 3, 11, 122
5, 43209, Note_on_c, 3, 59, 100
5, 43209, Note_on_c, 3, 62, 100
5, 43226, Control_c, 3, 11, 119
5, 43244, Control_c, 3, 11, 116
5, 43262, Control_c, 3, 11, 113
5, 43280, Control_c, 3, 11, 110
5, 43298, Control_c, 3, 11, 107
5, 43316, Control_c, 3, 11, 104
5, 43554, Note_on_c, 3, 62, 0
5, 43554, Note_on_c, 3, 59, 0
5, 43569, Note_on_c, 3, 59, 100
5, 43569, Note_on_c, 3, 62, 100
5, 43599, Note_on_c, 3, 62, 0
5, 43599, Note_on_c, 3, 59, 0
5, 43629, Note_on_c, 3, 62, 100
5, 43629, Note_on_c, 3, 59, 100
5, 43659, Note_on_c, 3, 59, 0
5, 43659, Note_on_c, 3, 62, 0
5, 43689, Note_on_c, 3, 64, 100
5, 43689, Note_on_c, 3, 60, 100
5, 43689, Control_c, 3, 11, 122
5, 43706, Control_c, 3, 11, 119
5, 43724, Control_c, 3, 11, 116
5, 43742, Control_c, 3, 11, 113
5, 43760, Control_c, 3, 11, 110
5, 43778, Control_c, 3, 11, 107
5, 43796, Control_c, 3, 11, 104
5, 44034, Note_on_c, 3, 60, 0
5, 44034, Note_on_c, 3, 64, 0
5, 44049, Note_on_c, 3, 64, 100
5, 44049, Note_on_c, 3, 61, 100
5, 44079, Note_on_c, 3, 61, 0
5, 44079, Note_on_c, 3, 64, 0
5, 44109, Note_on_c, 3, 64, 100
5, 44109, Note_on_c, 3, 61, 100
5, 44139, Note_on_c, 3, 61, 0
5, 44139, Note_on_c, 3, 64, 0
5, 44169, Note_on_c, 3, 65, 100
5, 44169, Note_on_c, 3, 62, 100
5, 44169, Control_c, 3, 11, 122
5, 44186, Control_c, 3, 11, 119
5, 44204, Control_c, 3, 11, 116
5, 44222, Control_c, 3, 11, 113
5, 44240, Control_c, 3, 11, 110
5, 44258, Control_c, 3, 11, 107
5, 44276, Control_c, 3, 11, 104
5, 44349, Note_on_c, 3, 62, 0
5, 44349, Note_on_c, 3, 65, 0
5, 44349, Note_on_c, 3, 64, 100
5, 44349, Note_on_c, 3, 61, 100
5, 44394, Note_on_c, 3, 61, 0
5, 44394, Note_on_c, 3, 64, 0
5, 44409, Note_on_c, 3, 62, 100
5, 44409, Note_on_c, 3, 65, 100
5, 44409, Control_c, 3, 11, 122
5, 44426, Control_c, 3, 11, 119
5, 44444, Control_c, 3, 11, 116
5, 44462, Control_c, 3, 11, 113
5, 44480, Control_c, 3, 11, 110
5, 44498, Control_c, 3, 11, 107
5, 44516, Control_c, 3, 11, 104
5, 44589, Note_on_c, 3, 65, 0
5, 44589, Note_on_c, 3, 62, 0
5, 44589, Note_on_c, 3, 61, 100
5, 44589, Note_on_c, 3, 64, 100
5, 44634, Note_on_c, 3, 64, 0
5, 44634, Note_on_c, 3, 61, 0
5, 44649, Note_on_c, 3, 62, 90
5, 44649, Note_on_c, 3, 65, 90
5, 44769, Note_on_c, 3, 65, 0
5, 44769, Note_on_c, 3, 62, 0
5, 45129, Control_c, 3, 11, 52
5, 45129, Note_on_c, 3, 64, 100
5, 45309, Note_on_c, 3, 64, 0
5, 45309, Note_on_c, 3, 63, 100
5, 45359, Note_on_c, 3, 63, 0
5, 45369, Note_on_c, 3, 64, 100
5, 45549, Note_on_c, 3, 64, 0
5, 45549, Note_on_c, 3, 63, 100
5, 45599, Note_on_c, 3, 63, 0
5, 45609, Note_on_c, 3, 64, 100
5, 45684, Control_c, 3, 11, 52
5, 45690, Control_c, 3, 11, 49
5, 45697, Control_c, 3, 11, 46
5, 45703, Control_c, 3, 11, 43
5, 45710, Control_c, 3, 11, 40
5, 45717, Control_c, 3, 11, 37
5, 45723, Control_c, 3, 11, 34
5, 45729, Note_on_c, 3, 64, 0
5, 46089, Note_on_c, 3, 65, 100
5, 46089, Note_on_c, 3, 53, 100
5, 46089, Control_c, 3, 11, 52
5, 46269, Note_on_c, 3, 53, 0
5, 46269, Note_on_c, 3, 65, 0
5, 46269, Note_on_c, 3, 64, 100
5, 46269, Note_on_c, 3, 52, 100
5, 46319, Note_on_c, 3, 52, 0
5, 46319, Note_on_c, 3, 64, 0
5, 46329, Note_on_c, 3, 65, 100
5, 46329, Note_on_c, 3, 53, 100
5, 46509, Note_on_c, 3, 53, 0
5, 46509, Note_on_c, 3, 65, 0
5, 46509, Note_on_c, 3, 52, 100
5, 46509, Note_on_c, 3, 64, 100
5, 46559, Note_on_c, 3, 64, 0
5, 46559, Note_on_c, 3, 52, 0
5, 46569, Note_on_c, 3, 53, 100
5, 46569, Note_on_c, 3, 65, 100
5, 46644, Control_c, 3, 11, 52
5, 46650, Control_c, 3, 11, 49
5, 46657, Control_c, 3, 11, 46
5, 46663, Control_c, 3, 11, 43
5, 46670, Control_c, 3, 11, 40
5, 46677, Control_c, 3, 11, 37
5, 46683, Control_c, 3, 11, 34
5, 46689, Note_on_c, 3, 65, 0
5, 46689, Note_on_c, 3, 53, 0
5, 47529, Control_c, 3, 11, 102
5, 47529, Note_on_c, 3, 62, 100
5, 47529, Note_on_c, 3, 58, 100
5, 47999, Note_on_c, 3, 58, 0
5, 47999, Note_on_c, 3, 62, 0
5, 48009, Note_on_c, 3, 60, 100
5, 48009, Note_on_c, 3, 63, 100
5, 48479, Note_on_c, 3, 63, 0
5, 48479, Note_on_c, 3, 60, 0
5, 48489, Note_on_c, 3, 58, 100
5, 48489, Note_on_c, 3, 62, 100
5, 48959, Note_on_c, 3, 62, 0
5, 48959, Note_on_c, 3, 58, 0
5, 48969, Note_on_c, 3, 60, 100
5, 48969, Note_on_c, 3, 63, 100
5, 49439, Note_on_c, 3, 63, 0
5, 49439, Note_on_c, 3, 60, 0
5, 49449, Note_on_c, 3, 58, 85
5, 49449, Note_on_c, 3, 62, 85
5, 49524, Control_c, 3, 11, 102
5, 49527, Control_c, 3, 11, 99
5, 49530, Control_c, 3, 11, 96
5, 49533, Control_c, 3, 11, 93
5, 49537, Control_c, 3, 11, 90
5, 49540, Control_c, 3, 11, 87
5, 49543, Control_c, 3, 11, 84
5, 49547, Control_c, 3, 11, 81
5, 49550, Control_c, 3, 11, 78
5, 49553, Control_c, 3, 11, 75
5, 49557, Control_c, 3, 11, 72
5, 49560, Control_c, 3, 11, 69
5, 49563, Control_c, 3, 11, 66
5, 49566, Control_c, 3, 11, 63
5, 49569, Note_on_c, 3, 62, 0
5, 49569, Note_on_c, 3, 58, 0
5, 52869, Note_on_c, 3, 64, 100
5, 52869, Note_on_c, 3, 67, 100
5, 52869, Control_c, 3, 11, 52
5, 52979, Note_on_c, 3, 67, 0
5, 52979, Note_on_c, 3, 64, 0
5, 52989, Note_on_c, 3, 67, 100
5, 52989, Note_on_c, 3, 64, 100
5, 53039, Note_on_c, 3, 64, 0
5, 53039, Note_on_c, 3, 67, 0
5, 53049, Note_on_c, 3, 67, 100
5, 53049, Note_on_c, 3, 64, 100
5, 53109, Note_on_c, 3, 64, 0
5, 53109, Note_on_c, 3, 67, 0
5, 53349, Note_on_c, 3, 62, 100
5, 53349, Note_on_c, 3, 66, 100
5, 53459, Note_on_c, 3, 66, 0
5, 53459, Note_on_c, 3, 62, 0
5, 53469, Note_on_c, 3, 66, 100
5, 53469, Note_on_c, 3, 62, 100
5, 53519, Note_on_c, 3, 62, 0
5, 53519, Note_on_c, 3, 66, 0
5, 53529, Note_on_c, 3, 66, 100
5, 53529, Note_on_c, 3, 62, 100
5, 53589, Note_on_c, 3, 62, 0
5, 53589, Note_on_c, 3, 66, 0
5, 53829, Note_on_c, 3, 62, 100
5, 53829, Note_on_c, 3, 65, 100
5, 53939, Note_on_c, 3, 65, 0
5, 53939, Note_on_c, 3, 62, 0
5, 53949, Note_on_c, 3, 62, 100
5, 53949, Note_on_c, 3, 65, 100
5, 53999, Note_on_c, 3, 65, 0
5, 53999, Note_on_c, 3, 62, 0
5, 54009, Note_on_c, 3, 65, 100
5, 54009, Note_on_c, 3, 62, 100
5, 54069, Note_on_c, 3, 62, 0
5, 54069, Note_on_c, 3, 65, 0
5, 54309, Note_on_c, 3, 64, 100
5, 54309, Note_on_c, 3, 60, 100
5, 54419, Note_on_c, 3, 60, 0
5, 54419, Note_on_c, 3, 64, 0
5, 54429, Note_on_c, 3, 60, 100
5, 54429, Note_on_c, 3, 64, 100
5, 54479, Note_on_c, 3, 64, 0
5, 54479, Note_on_c, 3, 60, 0
5, 54489, Note_on_c, 3, 64, 100
5, 54489, Note_on_c, 3, 60, 100
5, 54549, Note_on_c, 3, 60, 0
5, 54549, Note_on_c, 3, 64, 0
5, 54729, Note_on_c, 3, 41, 100
5, 54729, Control_c, 3, 11, 52
5, 54756, Control_c, 3, 11, 54
5, 54779, Note_on_c, 3, 41, 0
5, 54783, Control_c, 3, 11, 56
5, 54789, Note_on_c, 3, 53, 100
5, 54811, Control_c, 3, 11, 58
5, 54838, Control_c, 3, 11, 60
5, 54839, Note_on_c, 3, 53, 0
5, 54849, Note_on_c, 3, 53, 100
5, 54866, Control_c, 3, 11, 62
5, 54893, Control_c, 3, 11, 64
5, 54899, Note_on_c, 3, 53, 0
5, 54909, Note_on_c, 3, 53, 100
5, 54921, Control_c, 3, 11, 66
5, 54948, Control_c, 3, 11, 68
5, 54959, Note_on_c, 3, 53, 0
5, 54969, Note_on_c, 3, 53, 100
5, 54975, Control_c, 3, 11, 70
5, 55003, Control_c, 3, 11, 72
5, 55019, Note_on_c, 3, 53, 0
5, 55029, Note_on_c, 3, 53, 100
5, 55030, Control_c, 3, 11, 74
5, 55058, Control_c, 3, 11, 76
5, 55079, Note_on_c, 3, 53, 0
5, 55085, Control_c, 3, 11, 78
5, 55089, Note_on_c, 3, 53, 100
5, 55113, Control_c, 3, 11, 80
5, 55139, Note_on_c, 3, 53, 0
5, 55140, Control_c, 3, 11, 82
5, 55149, Note_on_c, 3, 54, 100
5, 55167, Control_c, 3, 11, 84
5, 55195, Control_c, 3, 11, 86
5, 55199, Note_on_c, 3, 54, 0
5, 55209, Note_on_c, 3, 55, 100
5, 55239, Note_on_c, 3, 55, 0
5, 55269, Note_on_c, 3, 55, 100
5, 55299, Note_on_c, 3, 55, 0
5, 55329, Note_on_c, 3, 59, 100
5, 55359, Note_on_c, 3, 59, 0
5, 55389, Note_on_c, 3, 60, 100
5, 55419, Note_on_c, 3, 60, 0
5, 55449, Note_on_c, 3, 62, 100
5, 55479, Note_on_c, 3, 62, 0
5, 55509, Note_on_c, 3, 64, 100
5, 55539, Note_on_c, 3, 64, 0
5, 55569, Note_on_c, 3, 65, 100
5, 55749, Note_on_c, 3, 65, 0
5, 55749, Note_on_c, 3, 64, 100
5, 55799, Note_on_c, 3, 64, 0
5, 55809, Note_on_c, 3, 67, 100
5, 55839, Note_on_c, 3, 67, 0
5, 55869, Note_on_c, 3, 64, 100
5, 55899, Note_on_c, 3, 64, 0
5, 55929, Note_on_c, 3, 60, 100
5, 55959, Note_on_c, 3, 60, 0
5, 55989, Note_on_c, 3, 60, 100
5, 56019, Note_on_c, 3, 60, 0
5, 56049, Note_on_c, 3, 64, 100
5, 56079, Note_on_c, 3, 64, 0
5, 56109, Note_on_c, 3, 60, 100
5, 56139, Note_on_c, 3, 60, 0
5, 56169, Control_c, 3, 11, 102
5, 56169, Note_on_c, 3, 55, 100
5, 56199, Note_on_c, 3, 55, 0
5, 56229, Note_on_c, 3, 55, 100
5, 56259, Note_on_c, 3, 55, 0
5, 56289, Note_on_c, 3, 59, 100
5, 56319, Note_on_c, 3, 59, 0
5, 56349, Note_on_c, 3, 60, 100
5, 56379, Note_on_c, 3, 60, 0
5, 56409, Note_on_c, 3, 62, 100
5, 56439, Note_on_c, 3, 62, 0
5, 56469, Note_on_c, 3, 63, 100
5, 56499, Note_on_c, 3, 63, 0
5, 56529, Control_c, 3, 11, 122
5, 56529, Note_on_c, 3, 65, 100
5, 56547, Control_c, 3, 11, 119
5, 56565, Control_c, 3, 11, 116
5, 56583, Control_c, 3, 11, 113
5, 56601, Control_c, 3, 11, 110
5, 56619, Control_c, 3, 11, 107
5, 56637, Control_c, 3, 11, 104
5, 56709, Note_on_c, 3, 65, 0
5, 56709, Note_on_c, 3, 63, 100
5, 56739, Note_on_c, 3, 63, 0
5, 56769, Note_on_c, 3, 67, 100
5, 56799, Note_on_c, 3, 67, 0
5, 56829, Note_on_c, 3, 63, 100
5, 56859, Note_on_c, 3, 63, 0
5, 56889, Note_on_c, 3, 60, 100
5, 56919, Note_on_c, 3, 60, 0
5, 56949, Note_on_c, 3, 60, 100
5, 56979, Note_on_c, 3, 60, 0
5, 57009, Note_on_c, 3, 63, 100
5, 57039, Note_on_c, 3, 63, 0
5, 57069, Note_on_c, 3, 60, 100
5, 57099, Note_on_c, 3, 60, 0
5, 57129, Note_on_c, 3, 43, 100
5, 57234, Note_on_c, 3, 43, 0
5, 57249, Note_on_c, 3, 43, 100
5, 57249, Control_c, 3, 11, 122
5, 57249, Note_on_c, 3, 55, 100
5, 57267, Control_c, 3, 11, 119
5, 57285, Control_c, 3, 11, 116
5, 57303, Control_c, 3, 11, 113
5, 57321, Control_c, 3, 11, 110
5, 57339, Control_c, 3, 11, 107
5, 57357, Control_c, 3, 11, 104
5, 57719, Note_on_c, 3, 55, 0
5, 57719, Note_on_c, 3, 43, 0
5, 57729, Note_on_c, 3, 59, 100
5, 57729, Control_c, 3, 11, 122
5, 57729, Note_on_c, 3, 47, 100
5, 57747, Control_c, 3, 11, 119
5, 57765, Control_c, 3, 11, 116
5, 57783, Control_c, 3, 11, 113
5, 57801, Control_c, 3, 11, 110
5, 57819, Control_c, 3, 11, 107
5, 57837, Control_c, 3, 11, 104
5, 58199, Note_on_c, 3, 47, 0
5, 58199, Note_on_c, 3, 59, 0
5, 58209, Note_on_c, 3, 50, 100
5, 58209, Control_c, 3, 11, 122
5, 58209, Note_on_c, 3, 62, 100
5, 58227, Control_c, 3, 11, 119
5, 58245, Control_c, 3, 11, 116
5, 58263, Control_c, 3, 11, 113
5, 58281, Control_c, 3, 11, 110
5, 58299, Control_c, 3, 11, 107
5, 58317, Control_c, 3, 11, 104
5, 58679, Note_on_c, 3, 62, 0
5, 58679, Note_on_c, 3, 50, 0
5, 58689, Note_on_c, 3, 53, 100
5, 58689, Control_c, 3, 11, 122
5, 58689, Note_on_c, 3, 65, 100
5, 58707, Control_c, 3, 11, 119
5, 58725, Control_c, 3, 11, 116
5, 58743, Control_c, 3, 11, 113
5, 58761, Control_c, 3, 11, 110
5, 58779, Control_c, 3, 11, 107
5, 58797, Control_c, 3, 11, 104
5, 59159, Note_on_c, 3, 65, 0
5, 59159, Note_on_c, 3, 53, 0
5, 59169, Note_on_c, 3, 65, 100
5, 59169, Note_on_c, 3, 62, 100
5, 59169, Control_c, 3, 11, 122
5, 59177, Control_c, 3, 11, 119
5, 59186, Control_c, 3, 11, 116
5, 59195, Control_c, 3, 11, 113
5, 59204, Control_c, 3, 11, 110
5, 59213, Control_c, 3, 11, 107
5, 59222, Control_c, 3, 11, 104
5, 59229, Note_on_c, 3, 62, 0
5, 59229, Note_on_c, 3, 65, 0
5, 59409, Control_c, 3, 11, 122
5, 59409, Note_on_c, 3, 62, 100
5, 59409, Note_on_c, 3, 59, 100
5, 59417, Control_c, 3, 11, 119
5, 59426, Control_c, 3, 11, 116
5, 59435, Control_c, 3, 11, 113
5, 59444, Control_c, 3, 11, 110
5, 59453, Control_c, 3, 11, 107
5, 59462, Control_c, 3, 11, 104
5, 59469, Note_on_c, 3, 59, 0
5, 59469, Note_on_c, 3, 62, 0
5, 59649, Note_on_c, 3, 62, 100
5, 59649, Note_on_c, 3, 65, 100
5, 59649, Control_c, 3, 11, 122
5, 59657, Control_c, 3, 11, 119
5, 59666, Control_c, 3, 11, 116
5, 59675, Control_c, 3, 11, 113
5, 59684, Control_c, 3, 11, 110
5, 59693, Control_c, 3, 11, 107
5, 59702, Control_c, 3, 11, 104
5, 59709, Note_on_c, 3, 65, 0
5, 59709, Note_on_c, 3, 62, 0
5, 59889, Control_c, 3, 11, 122
5, 59889, Note_on_c, 3, 59, 100
5, 59889, Note_on_c, 3, 62, 100
5, 59897, Control_c, 3, 11, 119
5, 59906, Control_c, 3, 11, 116
5, 59915, Control_c, 3, 11, 113
5, 59924, Control_c, 3, 11, 110
5, 59933, Control_c, 3, 11, 107
5, 59942, Control_c, 3, 11, 104
5, 59949, Note_on_c, 3, 62, 0
5, 59949, Note_on_c, 3, 59, 0
5, 60009, Note_on_c, 3, 62, 100
5, 60009, Note_on_c, 3, 65, 100
5, 60009, Control_c, 3, 11, 102
5, 60028, Control_c, 3, 11, 100
5, 60039, Note_on_c, 3, 65, 0
5, 60039, Note_on_c, 3, 62, 0
5, 60047, Control_c, 3, 11, 98
5, 60066, Control_c, 3, 11, 96
5, 60069, Note_on_c, 3, 61, 94
5, 60069, Note_on_c, 3, 64, 94
5, 60085, Control_c, 3, 11, 94
5, 60099, Note_on_c, 3, 64, 0
5, 60099, Note_on_c, 3, 61, 0
5, 60105, Control_c, 3, 11, 92
5, 60124, Control_c, 3, 11, 90
5, 60129, Note_on_c, 3, 65, 87
5, 60129, Note_on_c, 3, 62, 87
5, 60143, Control_c, 3, 11, 88
5, 60159, Note_on_c, 3, 62, 0
5, 60159, Note_on_c, 3, 65, 0
5, 60162, Control_c, 3, 11, 86
5, 60181, Control_c, 3, 11, 84
5, 60189, Note_on_c, 3, 61, 80
5, 60189, Note_on_c, 3, 64, 80
5, 60201, Control_c, 3, 11, 82
5, 60219, Note_on_c, 3, 64, 0
5, 60219, Note_on_c, 3, 61, 0
5, 60220, Control_c, 3, 11, 80
5, 60239, Control_c, 3, 11, 78
5, 60249, Note_on_c, 3, 65, 80
5, 60249, Note_on_c, 3, 62, 80
5, 60258, Control_c, 3, 11, 76
5, 60277, Control_c, 3, 11, 74
5, 60279, Note_on_c, 3, 62, 0
5, 60279, Note_on_c, 3, 65, 0
5, 60297, Control_c, 3, 11, 72
5, 60309, Note_on_c, 3, 61, 80
5, 60309, Note_on_c, 3, 64, 80
5, 60316, Control_c, 3, 11, 70
5, 60335, Control_c, 3, 11, 68
5, 60339, Note_on_c, 3, 64, 0
5, 60339, Note_on_c, 3, 61, 0
5, 60354, Control_c, 3, 11, 66
5, 60369, Note_on_c, 3, 65, 80
5, 60369, Note_on_c, 3, 62, 80
5, 60373, Control_c, 3, 11, 64
5, 60393, Control_c, 3, 11, 62
5, 60399, Note_on_c, 3, 62, 0
5, 60399, Note_on_c, 3, 65, 0
5, 60412, Control_c, 3, 11, 60
5, 60429, Note_on_c, 3, 61, 80
5, 60429, Note_on_c, 3, 64, 80
5, 60431, Control_c, 3, 11, 58
5, 60450, Control_c, 3, 11, 56
5, 60459, Note_on_c, 3, 64, 0
5, 60459, Note_on_c, 3, 61, 0
5, 60469, Control_c, 3, 11, 54
5, 60489, Note_on_c, 3, 65, 80
5, 60489, Note_on_c, 3, 62, 80
5, 60489, Control_c, 3, 11, 52
5, 60519, Note_on_c, 3, 62, 0
5, 60519, Note_on_c, 3, 65, 0
5, 60549, Note_on_c, 3, 60, 77
5, 60549, Note_on_c, 3, 64, 77
5, 60579, Note_on_c, 3, 64, 0
5, 60579, Note_on_c, 3, 60, 0
5, 60585, Control_c, 3, 11, 51
5, 60609, Note_on_c, 3, 62, 75
5, 60609, Note_on_c, 3, 59, 75
5, 60639, Note_on_c, 3, 59, 0
5, 60639, Note_on_c, 3, 62, 0
5, 60669, Note_on_c, 3, 60, 72
5, 60669, Note_on_c, 3, 57, 72
5, 60681, Control_c, 3, 11, 50
5, 60699, Note_on_c, 3, 57, 0
5, 60699, Note_on_c, 3, 60, 0
5, 60729, Note_on_c, 3, 55, 70
5, 60729, Note_on_c, 3, 59, 70
5, 60759, Note_on_c, 3, 59, 0
5, 60759, Note_on_c, 3, 55, 0
5, 60777, Control_c, 3, 11, 49
5, 60789, Note_on_c, 3, 53, 68
5, 60789, Note_on_c, 3, 57, 68
5, 60819, Note_on_c, 3, 57, 0
5, 60819, Note_on_c, 3, 53, 0
5, 60849, Note_on_c, 3, 55, 65
5, 60849, Note_on_c, 3, 52, 65
5, 60873, Control_c, 3, 11, 48
5, 60879, Note_on_c, 3, 52, 0
5, 60879, Note_on_c, 3, 55, 0
5, 60909, Note_on_c, 3, 50, 63
5, 60909, Note_on_c, 3, 53, 63
5, 60939, Note_on_c, 3, 53, 0
5, 60939, Note_on_c, 3, 50, 0
5, 60969, Control_c, 3, 11, 47
5, 60969, Note_on_c, 3, 48, 60
5, 60969, Note_on_c, 3, 52, 60
5, 61089, Note_on_c, 3, 52, 0
5, 61089, Note_on_c, 3, 48, 0
5, 62709, Control_c, 3, 11, 47
5, 62709, Note_on_c, 3, 57, 100
5, 62739, Note_on_c, 3, 57, 0
5, 62769, Note_on_c, 3, 59, 100
5, 62799, Note_on_c, 3, 59, 0
5, 62829, Note_on_c, 3, 61, 100
5, 62859, Note_on_c, 3, 61, 0
5, 62889, Note_on_c, 3, 62, 100
5, 62919, Note_on_c, 3, 62, 0
5, 62949, Note_on_c, 3, 64, 100
5, 62979, Note_on_c, 3, 64, 0
5, 63009, Note_on_c, 3, 65, 100
5, 63039, Note_on_c, 3, 65, 0
5, 64509, Note_on_c, 3, 67, 100
5, 64509, Note_on_c, 3, 64, 100
5, 64539, Note_on_c, 3, 64, 0
5, 64539, Note_on_c, 3, 67, 0
5, 64569, Note_on_c, 3, 64, 100
5, 64569, Note_on_c, 3, 67, 100
5, 64569, Control_c, 3, 11, 47
5, 64593, Control_c, 3, 11, 48
5, 64599, Note_on_c, 3, 67, 0
5, 64599, Note_on_c, 3, 64, 0
5, 64617, Control_c, 3, 11, 49
5, 64629, Note_on_c, 3, 64, 100
5, 64629, Note_on_c, 3, 67, 100
5, 64641, Control_c, 3, 11, 50
5, 64659, Note_on_c, 3, 67, 0
5, 64659, Note_on_c, 3, 64, 0
5, 64665, Control_c, 3, 11, 51
5, 64689, Control_c, 3, 11, 52
5, 64689, Note_on_c, 3, 67, 100
5, 64689, Note_on_c, 3, 64, 100
5, 64713, Control_c, 3, 11, 53
5, 64719, Note_on_c, 3, 64, 0
5, 64719, Note_on_c, 3, 67, 0
5, 64737, Control_c, 3, 11, 54
5, 64749, Note_on_c, 3, 67, 100
5, 64749, Note_on_c, 3, 64, 100
5, 64761, Control_c, 3, 11, 55
5, 64779, Note_on_c, 3, 64, 0
5, 64779, Note_on_c, 3, 67, 0
5, 64785, Control_c, 3, 11, 56
5, 64809, Note_on_c, 3, 64, 100
5, 64809, Note_on_c, 3, 67, 100
5, 64809, Control_c, 3, 11, 57
5, 64833, Control_c, 3, 11, 58
5, 64857, Control_c, 3, 11, 59
5, 64881, Control_c, 3, 11, 60
5, 64905, Control_c, 3, 11, 61
5, 64929, Note_on_c, 3, 67, 0
5, 64929, Note_on_c, 3, 64, 0
5, 64929, Note_on_c, 3, 62, 100
5, 64929, Note_on_c, 3, 65, 100
5, 64929, Control_c, 3, 11, 62
5, 64953, Control_c, 3, 11, 63
5, 64977, Control_c, 3, 11, 64
5, 64979, Note_on_c, 3, 65, 0
5, 64979, Note_on_c, 3, 62, 0
5, 64989, Note_on_c, 3, 65, 100
5, 64989, Note_on_c, 3, 62, 100
5, 65001, Control_c, 3, 11, 65
5, 65019, Note_on_c, 3, 62, 0
5, 65019, Note_on_c, 3, 65, 0
5, 65025, Control_c, 3, 11, 66
5, 65049, Control_c, 3, 11, 67
5, 65049, Note_on_c, 3, 65, 100
5, 65049, Note_on_c, 3, 62, 100
5, 65073, Control_c, 3, 11, 68
5, 65079, Note_on_c, 3, 62, 0
5, 65079, Note_on_c, 3, 65, 0
5, 65097, Control_c, 3, 11, 69
5, 65109, Note_on_c, 3, 65, 100
5, 65109, Note_on_c, 3, 62, 100
5, 65121, Control_c, 3, 11, 70
5, 65139, Note_on_c, 3, 62, 0
5, 65139, Note_on_c, 3, 65, 0
5, 65145, Control_c, 3, 11, 71
5, 65169, Note_on_c, 3, 62, 100
5, 65169, Note_on_c, 3, 65, 100
5, 65169, Control_c, 3, 11, 72
5, 65193, Control_c, 3, 11, 73
5, 65199, Note_on_c, 3, 65, 0
5, 65199, Note_on_c, 3, 62, 0
5, 65217, Control_c, 3, 11, 74
5, 65229, Note_on_c, 3, 62, 100
5, 65229, Note_on_c, 3, 65, 100
5, 65241, Control_c, 3, 11, 75
5, 65259, Note_on_c, 3, 65, 0
5, 65259, Note_on_c, 3, 62, 0
5, 65265, Control_c, 3, 11, 76
5, 65289, Control_c, 3, 11, 77
5, 65289, Note_on_c, 3, 62, 100
5, 65289, Note_on_c, 3, 65, 100
5, 65313, Control_c, 3, 11, 78
5, 65337, Control_c, 3, 11, 79
5, 65361, Control_c, 3, 11, 80
5, 65385, Control_c, 3, 11, 81
5, 65409, Note_on_c, 3, 65, 0
5, 65409, Note_on_c, 3, 62, 0
5, 65409, Control_c, 3, 11, 82
5, 65409, Note_on_c, 3, 60, 100
5, 65409, Note_on_c, 3, 64, 100
5, 65433, Control_c, 3, 11, 83
5, 65457, Control_c, 3, 11, 84
5, 65469, Note_on_c, 3, 64, 0
5, 65469, Note_on_c, 3, 60, 0
5, 65481, Control_c, 3, 11, 85
5, 65505, Control_c, 3, 11, 86
5, 65529, Control_c, 3, 11, 87
5, 65589, Note_on_c, 3, 50, 100
5, 65619, Note_on_c, 3, 50, 0
5, 65649, Note_on_c, 3, 52, 100
5, 65679, Note_on_c, 3, 52, 0
5, 65709, Note_on_c, 3, 54, 100
5, 65739, Note_on_c, 3, 54, 0
5, 65769, Note_on_c, 3, 55, 100
5, 65799, Note_on_c, 3, 55, 0
5, 65829, Note_on_c, 3, 57, 100
5, 65859, Note_on_c, 3, 57, 0
5, 65889, Note_on_c, 3, 59, 100
5, 65919, Note_on_c, 3, 59, 0
5, 66069, Note_on_c, 3, 48, 100
5, 66099, Note_on_c, 3, 48, 0
5, 66129, Note_on_c, 3, 50, 100
5, 66159, Note_on_c, 3, 50, 0
5, 66189, Note_on_c, 3, 52, 100
5, 66219, Note_on_c, 3, 52, 0
5, 66249, Note_on_c, 3, 53, 100
5, 66279, Note_on_c, 3, 53, 0
5, 66309, Note_on_c, 3, 55, 100
5, 66339, Note_on_c, 3, 55, 0
5, 66369, Note_on_c, 3, 57, 100
5, 66399, Note_on_c, 3, 57, 0
5, 66549, Note_on_c, 3, 53, 100
5, 66579, Note_on_c, 3, 53, 0
5, 66609, Note_on_c, 3, 55, 100
5, 66639, Note_on_c, 3, 55, 0
5, 66669, Note_on_c, 3, 57, 100
5, 66699, Note_on_c, 3, 57, 0
5, 66729, Note_on_c, 3, 58, 100
5, 66779, Note_on_c, 3, 58, 0
5, 66789, Note_on_c, 3, 58, 100
5, 66839, Note_on_c, 3, 58, 0
5, 66849, Note_on_c, 3, 58, 100
5, 66899, Note_on_c, 3, 58, 0
5, 66909, Note_on_c, 3, 58, 100
5, 66959, Note_on_c, 3, 58, 0
5, 66969, Note_on_c, 3, 59, 100
5, 67019, Note_on_c, 3, 59, 0
5, 67029, Note_on_c, 3, 59, 100
5, 67079, Note_on_c, 3, 59, 0
5, 67089, Note_on_c, 3, 59, 100
5, 67139, Note_on_c, 3, 59, 0
5, 67149, Note_on_c, 3, 59, 100
5, 67199, Note_on_c, 3, 59, 0
5, 67209, Note_on_c, 3, 60, 85
5, 67329, Note_on_c, 3, 60, 0
5, 67689, Note_on_c, 3, 57, 100
5, 67689, Note_on_c, 3, 53, 100
5, 67689, Control_c, 3, 11, 52
5, 67749, Note_on_c, 3, 53, 0
5, 67809, Note_on_c, 3, 48, 100
5, 67869, Note_on_c, 3, 48, 0
5, 67929, Note_on_c, 3, 57, 0
5, 67929, Note_on_c, 3, 55, 100
5, 67929, Note_on_c, 3, 58, 100
5, 67989, Note_on_c, 3, 55, 0
5, 68049, Note_on_c, 3, 48, 100
5, 68109, Note_on_c, 3, 48, 0
5, 68169, Note_on_c, 3, 58, 0
5, 68169, Note_on_c, 3, 57, 100
5, 68169, Note_on_c, 3, 60, 100
5, 68229, Note_on_c, 3, 57, 0
5, 68289, Note_on_c, 3, 60, 0
5, 68289, Note_on_c, 3, 48, 100
5, 68349, Note_on_c, 3, 48, 0
5, 68409, Note_on_c, 3, 52, 100
5, 68469, Note_on_c, 3, 52, 0
5, 68529, Note_on_c, 3, 48, 100
5, 68589, Note_on_c, 3, 48, 0
5, 68589, Note_on_c, 3, 55, 100
5, 68649, Note_on_c, 3, 55, 0
5, 68649, Note_on_c, 3, 57, 100
5, 68649, Note_on_c, 3, 53, 100
5, 68709, Note_on_c, 3, 53, 0
5, 68709, Note_on_c, 3, 57, 0
5, 68769, Note_on_c, 3, 48, 100
5, 68829, Note_on_c, 3, 48, 0
5, 68829, Note_on_c, 3, 57, 100
5, 68889, Note_on_c, 3, 57, 0
5, 68889, Note_on_c, 3, 58, 100
5, 68889, Note_on_c, 3, 55, 100
5, 68949, Note_on_c, 3, 55, 0
5, 68949, Note_on_c, 3, 58, 0
5, 69009, Note_on_c, 3, 48, 100
5, 69069, Note_on_c, 3, 48, 0
5, 69069, Note_on_c, 3, 58, 100
5, 69129, Note_on_c, 3, 58, 0
5, 69129, Note_on_c, 3, 60, 100
5, 69129, Note_on_c, 3, 57, 100
5, 69189, Note_on_c, 3, 57, 0
5, 69189, Note_on_c, 3, 60, 0
5, 69249, Note_on_c, 3, 60, 100
5, 69249, Note_on_c, 3, 53, 100
5, 69309, Note_on_c, 3, 53, 0
5, 69369, Note_on_c, 3, 60, 0
5, 69369, Note_on_c, 3, 59, 100
5, 69369, Note_on_c, 3, 62, 100
5, 69429, Note_on_c, 3, 59, 0
5, 69489, Note_on_c, 3, 62, 0
5, 69489, Note_on_c, 3, 59, 100
5, 69489, Note_on_c, 3, 55, 100
5, 69549, Note_on_c, 3, 55, 0
5, 69609, Note_on_c, 3, 59, 0
5, 69609, Note_on_c, 3, 60, 100
5, 69609, Note_on_c, 3, 64, 100
5, 69669, Note_on_c, 3, 60, 0
5, 69729, Note_on_c, 3, 55, 100
5, 69789, Note_on_c, 3, 55, 0
5, 69849, Note_on_c, 3, 64, 0
5, 69849, Note_on_c, 3, 62, 100
5, 69849, Note_on_c, 3, 65, 100
5, 69909, Note_on_c, 3, 62, 0
5, 69969, Note_on_c, 3, 55, 100
5, 70029, Note_on_c, 3, 55, 0
5, 70089, Note_on_c, 3, 65, 0
5, 70089, Note_on_c, 3, 67, 100
5, 70089, Note_on_c, 3, 64, 100
5, 70149, Note_on_c, 3, 64, 0
5, 70209, Note_on_c, 3, 67, 0
5, 70209, Note_on_c, 3, 55, 100
5, 70269, Note_on_c, 3, 55, 0
5, 70329, Note_on_c, 3, 59, 100
5, 70389, Note_on_c, 3, 59, 0
5, 70449, Note_on_c, 3, 55, 100
5, 70509, Note_on_c, 3, 55, 0
5, 70509, Note_on_c, 3, 62, 100
5, 70569, Note_on_c, 3, 62, 0
5, 70569, Note_on_c, 3, 64, 100
5, 70569, Note_on_c, 3, 60, 100
5, 70569, Control_c, 3, 11, 52
5, 70610, Control_c, 3, 11, 53
5, 70629, Note_on_c, 3, 60, 0
5, 70629, Note_on_c, 3, 64, 0
5, 70651, Control_c, 3, 11, 54
5, 70689, Note_on_c, 3, 55, 100
5, 70692, Control_c, 3, 11, 55
5, 70733, Control_c, 3, 11, 56
5, 70749, Note_on_c, 3, 55, 0
5, 70749, Note_on_c, 3, 64, 100
5, 70774, Control_c, 3, 11, 57
5, 70809, Note_on_c, 3, 64, 0
5, 70809, Note_on_c, 3, 62, 100
5, 70809, Note_on_c, 3, 65, 100
5, 70815, Control_c, 3, 11, 58
5, 70857, Control_c, 3, 11, 59
5, 70869, Note_on_c, 3, 65, 0
5, 70869, Note_on_c, 3, 62, 0
5, 70898, Control_c, 3, 11, 60
5, 70929, Note_on_c, 3, 55, 100
5, 70939, Control_c, 3, 11, 61
5, 70980, Control_c, 3, 11, 62
5, 70989, Note_on_c, 3, 55, 0
5, 70989, Note_on_c, 3, 65, 100
5, 71021, Control_c, 3, 11, 63
5, 71049, Note_on_c, 3, 65, 0
5, 71049, Note_on_c, 3, 64, 100
5, 71049, Note_on_c, 3, 67, 100
5, 71062, Control_c, 3, 11, 64
5, 71103, Control_c, 3, 11, 65
5, 71109, Note_on_c, 3, 67, 0
5, 71109, Note_on_c, 3, 64, 0
5, 71145, Control_c, 3, 11, 66
5, 71169, Note_on_c, 3, 48, 100
5, 71186, Control_c, 3, 11, 67
5, 71227, Control_c, 3, 11, 68
5, 71229, Note_on_c, 3, 48, 0
5, 71268, Control_c, 3, 11, 69
5, 71289, Note_on_c, 3, 53, 100
5, 71289, Note_on_c, 3, 60, 100
5, 71309, Control_c, 3, 11, 70
5, 71349, Note_on_c, 3, 53, 0
5, 71350, Control_c, 3, 11, 71
5, 71391, Control_c, 3, 11, 72
5, 71409, Note_on_c, 3, 48, 100
5, 71433, Control_c, 3, 11, 73
5, 71469, Note_on_c, 3, 48, 0
5, 71474, Control_c, 3, 11, 74
5, 71515, Control_c, 3, 11, 75
5, 71529, Note_on_c, 3, 55, 100
5, 71556, Control_c, 3, 11, 76
5, 71589, Note_on_c, 3, 55, 0
5, 71597, Control_c, 3, 11, 77
5, 71638, Control_c, 3, 11, 78
5, 71649, Note_on_c, 3, 48, 100
5, 71679, Control_c, 3, 11, 79
5, 71709, Note_on_c, 3, 48, 0
5, 71721, Control_c, 3, 11, 80
5, 71762, Control_c, 3, 11, 81
5, 71769, Note_on_c, 3, 57, 100
5, 71803, Control_c, 3, 11, 82
5, 71829, Note_on_c, 3, 57, 0
5, 71844, Control_c, 3, 11, 83
5, 71885, Control_c, 3, 11, 84
5, 71889, Note_on_c, 3, 48, 100
5, 71926, Control_c, 3, 11, 85
5, 71949, Note_on_c, 3, 48, 0
5, 71967, Control_c, 3, 11, 86
5, 72009, Note_on_c, 3, 60, 0
5, 72009, Control_c, 3, 11, 87
5, 72009, Note_on_c, 3, 61, 100
5, 72009, Note_on_c, 3, 55, 100
5, 72129, Note_on_c, 3, 55, 0
5, 72249, Note_on_c, 3, 61, 0
5, 72249, Note_on_c, 3, 55, 100
5, 72249, Control_c, 3, 11, 107
5, 72267, Control_c, 3, 11, 104
5, 72285, Control_c, 3, 11, 101
5, 72299, Note_on_c, 3, 55, 0
5, 72303, Control_c, 3, 11, 98
5, 72309, Note_on_c, 3, 67, 100
5, 72321, Control_c, 3, 11, 95
5, 72339, Control_c, 3, 11, 92
5, 72357, Control_c, 3, 11, 89
5, 72359, Note_on_c, 3, 67, 0
5, 72369, Note_on_c, 3, 67, 100
5, 72419, Note_on_c, 3, 67, 0
5, 72429, Note_on_c, 3, 67, 100
5, 72479, Note_on_c, 3, 67, 0
5, 72489, Note_on_c, 3, 54, 100
5, 72489, Control_c, 3, 11, 107
5, 72507, Control_c, 3, 11, 104
5, 72525, Control_c, 3, 11, 101
5, 72539, Note_on_c, 3, 54, 0
5, 72543, Control_c, 3, 11, 98
5, 72549, Note_on_c, 3, 66, 100
5, 72561, Control_c, 3, 11, 95
5, 72579, Control_c, 3, 11, 92
5, 72597, Control_c, 3, 11, 89
5, 72599, Note_on_c, 3, 66, 0
5, 72609, Note_on_c, 3, 66, 100
5, 72659, Note_on_c, 3, 66, 0
5, 72669, Note_on_c, 3, 66, 100
5, 72719, Note_on_c, 3, 66, 0
5, 72729, Note_on_c, 3, 53, 100
5, 72779, Note_on_c, 3, 53, 0
5, 72789, Control_c, 3, 11, 107
5, 72789, Note_on_c, 3, 65, 100
5, 72798, Control_c, 3, 11, 104
5, 72807, Control_c, 3, 11, 101
5, 72816, Control_c, 3, 11, 98
5, 72825, Control_c, 3, 11, 95
5, 72834, Control_c, 3, 11, 92
5, 72839, Note_on_c, 3, 65, 0
5, 72843, Control_c, 3, 11, 89
5, 72849, Note_on_c, 3, 65, 100
5, 72899, Note_on_c, 3, 65, 0
5, 72909, Note_on_c, 3, 65, 100
5, 72959, Note_on_c, 3, 65, 0
5, 72969, Note_on_c, 3, 52, 100
5, 73019, Note_on_c, 3, 52, 0
5, 73029, Note_on_c, 3, 52, 100
5, 73079, Note_on_c, 3, 52, 0
5, 73089, Control_c, 3, 11, 102
5, 73089, Note_on_c, 3, 50, 100
5, 73139, Note_on_c, 3, 50, 0
5, 73149, Note_on_c, 3, 50, 100
5, 73199, Note_on_c, 3, 50, 0
5, 73209, Note_on_c, 3, 50, 100
5, 73259, Note_on_c, 3, 50, 0
5, 73269, Note_on_c, 3, 50, 100
5, 73319, Note_on_c, 3, 50, 0
5, 73329, Note_on_c, 3, 50, 100
5, 73379, Note_on_c, 3, 50, 0
5, 73389, Note_on_c, 3, 50, 100
5, 73439, Note_on_c, 3, 50, 0
5, 73449, Note_on_c, 3, 48, 100
5, 73499, Note_on_c, 3, 48, 0
5, 73509, Note_on_c, 3, 48, 100
5, 73559, Note_on_c, 3, 48, 0
5, 73569, Note_on_c, 3, 53, 100
5, 73619, Note_on_c, 3, 53, 0
5, 73629, Note_on_c, 3, 53, 100
5, 73679, Note_on_c, 3, 53, 0
5, 73689, Note_on_c, 3, 55, 100
5, 73739, Note_on_c, 3, 55, 0
5, 73749, Note_on_c, 3, 55, 100
5, 73799, Note_on_c, 3, 55, 0
5, 73809, Note_on_c, 3, 43, 100
5, 73859, Note_on_c, 3, 43, 0
5, 73869, Note_on_c, 3, 43, 100
5, 73919, Note_on_c, 3, 43, 0
5, 73929, Note_on_c, 3, 48, 100
5, 73989, Note_on_c, 3, 48, 0
5, 74469, Control_c, 3, 11, 122
5, 74469, Note_on_c, 3, 67, 100
5, 74469, Note_on_c, 3, 64, 100
5, 74487, Control_c, 3, 11, 119
5, 74505, Control_c, 3, 11, 116
5, 74523, Control_c, 3, 11, 113
5, 74541, Control_c, 3, 11, 110
5, 74559, Control_c, 3, 11, 107
5, 74574, Note_on_c, 3, 64, 0
5, 74574, Note_on_c, 3, 67, 0
5, 74577, Control_c, 3, 11, 104
5, 74589, Note_on_c, 3, 67, 100
5, 74589, Note_on_c, 3, 64, 100
5, 74639, Note_on_c, 3, 64, 0
5, 74639, Note_on_c, 3, 67, 0
5, 74649, Note_on_c, 3, 64, 100
5, 74649, Note_on_c, 3, 60, 100
5, 74709, Note_on_c, 3, 60, 0
5, 74709, Note_on_c, 3, 64, 0
5, 75429, Control_c, 3, 11, 122
5, 75429, Note_on_c, 3, 64, 100
5, 75429, Note_on_c, 3, 67, 100
5, 75447, Control_c, 3, 11, 119
5, 75465, Control_c, 3, 11, 116
5, 75483, Control_c, 3, 11, 113
5, 75501, Control_c, 3, 11, 110
5, 75519, Control_c, 3, 11, 107
5, 75534, Note_on_c, 3, 67, 0
5, 75534, Note_on_c, 3, 64, 0
5, 75537, Control_c, 3, 11, 104
5, 75549, Note_on_c, 3, 64, 100
5, 75549, Note_on_c, 3, 67, 100
5, 75599, Note_on_c, 3, 67, 0
5, 75599, Note_on_c, 3, 64, 0
5, 75609, Note_on_c, 3, 64, 100
5, 75609, Note_on_c, 3, 60, 100
5, 75669, Note_on_c, 3, 60, 0
5, 75669, Note_on_c, 3, 64, 0
5, 75849, Note_on_c, 3, 48, 100
5, 75849, Control_c, 3, 11, 102
5, 76199, Note_on_c, 3, 48, 0
5, 76209, Note_on_c, 3, 48, 100
5, 76209, Note_on_c, 3, 60, 100
5, 76257, Note_on_c, 3, 60, 0
5, 76257, Note_on_c, 3, 48, 0
5, 76269, Note_on_c, 3, 60, 100
5, 76269, Note_on_c, 3, 48, 100
5, 76317, Note_on_c, 3, 48, 0
5, 76317, Note_on_c, 3, 60, 0
5, 76329, Control_c, 3, 11, 122
5, 76329, Note_on_c, 3, 47, 100
5, 76329, Note_on_c, 3, 59, 100
5, 76347, Control_c, 3, 11, 119
5, 76365, Control_c, 3, 11, 116
5, 76383, Control_c, 3, 11, 113
5, 76401, Control_c, 3, 11, 110
5, 76419, Control_c, 3, 11, 107
5, 76437, Control_c, 3, 11, 104
5, 76679, Note_on_c, 3, 59, 0
5, 76679, Note_on_c, 3, 47, 0
5, 76689, Note_on_c, 3, 59, 100
5, 76689, Note_on_c, 3, 47, 100
5, 76737, Note_on_c, 3, 47, 0
5, 76737, Note_on_c, 3, 59, 0
5, 76749, Note_on_c, 3, 47, 100
5, 76749, Note_on_c, 3, 59, 100
5, 76797, Note_on_c, 3, 59, 0
5, 76797, Note_on_c, 3, 47, 0
5, 76809, Note_on_c, 3, 58, 100
5, 76809, Control_c, 3, 11, 122
5, 76809, Note_on_c, 3, 46, 100
5, 76827, Control_c, 3, 11, 119
5, 76845, Control_c, 3, 11, 116
5, 76863, Control_c, 3, 11, 113
5, 76881, Control_c, 3, 11, 110
5, 76899, Control_c, 3, 11, 107
5, 76917, Control_c, 3, 11, 104
5, 77159, Note_on_c, 3, 46, 0
5, 77159, Note_on_c, 3, 58, 0
5, 77169, Note_on_c, 3, 46, 100
5, 77169, Note_on_c, 3, 58, 100
5, 77217, Note_on_c, 3, 58, 0
5, 77217, Note_on_c, 3, 46, 0
5, 77229, Note_on_c, 3, 58, 100
5, 77229, Note_on_c, 3, 46, 100
5, 77277, Note_on_c, 3, 46, 0
5, 77277, Note_on_c, 3, 58, 0
5, 77289, Note_on_c, 3, 57, 100
5, 77289, Note_on_c, 3, 45, 100
5, 77494, Note_on_c, 3, 45, 0
5, 77494, Note_on_c, 3, 57, 0
5, 77499, Note_on_c, 3, 45, 100
5, 77499, Note_on_c, 3, 57, 100
5, 77524, Note_on_c, 3, 57, 0
5, 77524, Note_on_c, 3, 45, 0
5, 77529, Note_on_c, 3, 56, 100
5, 77529, Note_on_c, 3, 44, 100
5, 77734, Note_on_c, 3, 44, 0
5, 77734, Note_on_c, 3, 56, 0
5, 77739, Note_on_c, 3, 56, 100
5, 77739, Note_on_c, 3, 44, 100
5, 77764, Note_on_c, 3, 44, 0
5, 77764, Note_on_c, 3, 56, 0
5, 77769, Note_on_c, 3, 55, 100
5, 77769, Note_on_c, 3, 43, 100
5, 77829, Note_on_c, 3, 43, 0
5, 77829, Note_on_c, 3, 55, 0
5, 77889, Note_on_c, 3, 42, 100
5, 77889, Control_c, 3, 11, 122
5, 77889, Note_on_c, 3, 54, 100
5, 77907, Control_c, 3, 11, 119
5, 77925, Control_c, 3, 11, 116
5, 77943, Control_c, 3, 11, 113
5, 77961, Control_c, 3, 11, 110
5, 77979, Control_c, 3, 11, 107
5, 77997, Control_c, 3, 11, 104
5, 78204, Control_c, 3, 11, 102
5, 78205, Control_c, 3, 11, 99
5, 78207, Control_c, 3, 11, 95
5, 78208, Control_c, 3, 11, 92
5, 78210, Control_c, 3, 11, 88
5, 78211, Control_c, 3, 11, 85
5, 78213, Control_c, 3, 11, 81
5, 78214, Control_c, 3, 11, 78
5, 78216, Control_c, 3, 11, 74
5, 78217, Control_c, 3, 11, 71
5, 78219, Note_on_c, 3, 54, 0
5, 78219, Note_on_c, 3, 42, 0
5, 78219, Control_c, 3, 11, 67
5, 78249, Control_c, 3, 11, 102
5, 78249, Note_on_c, 3, 65, 100
5, 78249, Note_on_c, 3, 53, 100
5, 78309, Note_on_c, 3, 53, 0
5, 78309, Note_on_c, 3, 65, 0
5, 78369, Note_on_c, 3, 47, 100
5, 78369, Control_c, 3, 11, 122
5, 78369, Note_on_c, 3, 59, 100
5, 78387, Control_c, 3, 11, 119
5, 78405, Control_c, 3, 11, 116
5, 78423, Control_c, 3, 11, 113
5, 78441, Control_c, 3, 11, 110
5, 78459, Control_c, 3, 11, 107
5, 78477, Control_c, 3, 11, 104
5, 78619, Control_c, 3, 11, 102
5, 78621, Control_c, 3, 11, 98
5, 78623, Control_c, 3, 11, 95
5, 78625, Control_c, 3, 11, 91
5, 78627, Control_c, 3, 11, 88
5, 78629, Control_c, 3, 11, 84
5, 78631, Control_c, 3, 11, 81
5, 78633, Control_c, 3, 11, 77
5, 78635, Control_c, 3, 11, 74
5, 78637, Control_c, 3, 11, 70
5, 78639, Note_on_c, 3, 59, 0
5, 78639, Note_on_c, 3, 47, 0
5, 78639, Control_c, 3, 11, 67
5, 79149, Control_c, 3, 11, 52
5, 79149, Note_on_c, 3, 55, 72
5, 79179, Note_on_c, 3, 55, 0
5, 79179, Note_on_c, 3, 57, 81
5, 79209, Note_on_c, 3, 57, 0
5, 79209, Note_on_c, 3, 59, 90
5, 79239, Note_on_c, 3, 59, 0
5, 79239, Note_on_c, 3, 60, 90
5, 79269, Note_on_c, 3, 60, 0
5, 79269, Note_on_c, 3, 62, 90
5, 79299, Note_on_c, 3, 62, 0
5, 79299, Note_on_c, 3, 64, 90
5, 79329, Note_on_c, 3, 64, 0
5, 79329, Note_on_c, 3, 65, 90
5, 79389, Note_on_c, 3, 65, 0
5, 80799, Note_on_c, 3, 55, 100
5, 80799, Control_c, 3, 11, 87
5, 80814, Note_on_c, 3, 55, 0
5, 80829, Note_on_c, 3, 57, 100
5, 80844, Note_on_c, 3, 57, 0
5, 80859, Note_on_c, 3, 59, 100
5, 80874, Note_on_c, 3, 59, 0
5, 80889, Note_on_c, 3, 60, 100
5, 80904, Note_on_c, 3, 60, 0
5, 80919, Note_on_c, 3, 62, 100
5, 80934, Note_on_c, 3, 62, 0
5, 80949, Note_on_c, 3, 64, 100
5, 80964, Note_on_c, 3, 64, 0
5, 80979, Note_on_c, 3, 65, 100
5, 80994, Note_on_c, 3, 65, 0
5, 81009, Note_on_c, 3, 67, 100
5, 81039, Note_on_c, 3, 67, 0
5, 81069, Note_on_c, 3, 67, 100
5, 81099, Note_on_c, 3, 67, 0
5, 81129, Note_on_c, 3, 64, 100
5, 81159, Note_on_c, 3, 64, 0
5, 81189, Note_on_c, 3, 60, 100
5, 81219, Note_on_c, 3, 60, 0
5, 81249, Note_on_c, 3, 62, 100
5, 81279, Note_on_c, 3, 62, 0
5, 81279, Note_on_c, 3, 60, 100
5, 81309, Note_on_c, 3, 60, 0
5, 81309, Note_on_c, 3, 59, 100
5, 81339, Note_on_c, 3, 59, 0
5, 81339, Note_on_c, 3, 60, 100
5, 81359, Note_on_c, 3, 60, 0
5, 81369, Note_on_c, 3, 57, 100
5, 81399, Note_on_c, 3, 57, 0
5, 81429, Note_on_c, 3, 62, 100
5, 81459, Note_on_c, 3, 62, 0
5, 81489, Note_on_c, 3, 64, 100
5, 81519, Note_on_c, 3, 64, 0
5, 81519, Note_on_c, 3, 62, 100
5, 81549, Note_on_c, 3, 62, 0
5, 81549, Note_on_c, 3, 61, 100
5, 81579, Note_on_c, 3, 61, 0
5, 81579, Note_on_c, 3, 62, 100
5, 81599, Note_on_c, 3, 62, 0
5, 81609, Note_on_c, 3, 55, 72
5, 81609, Control_c, 3, 11, 87
5, 81705, Note_on_c, 3, 55, 0
5, 81909, Control_c, 3, 11, 47
5, 81909, Note_on_c, 3, 57, 100
5, 81939, Note_on_c, 3, 57, 0
5, 81969, Note_on_c, 3, 59, 100
5, 81999, Note_on_c, 3, 59, 0
5, 82029, Note_on_c, 3, 61, 100
5, 82059, Note_on_c, 3, 61, 0
5, 82089, Note_on_c, 3, 62, 100
5, 82119, Note_on_c, 3, 62, 0
5, 82149, Note_on_c, 3, 64, 100
5, 82179, Note_on_c, 3, 64, 0
5, 82209, Note_on_c, 3, 65, 100
5, 82269, Note_on_c, 3, 65, 0
5, 82389, Note_on_c, 3, 55, 100
5, 82419, Note_on_c, 3, 55, 0
5, 82449, Note_on_c, 3, 57, 100
5, 82479, Note_on_c, 3, 57, 0
5, 82509, Note_on_c, 3, 59, 100
5, 82539, Note_on_c, 3, 59, 0
5, 82569, Note_on_c, 3, 60, 100
5, 82599, Note_on_c, 3, 60, 0
5, 82629, Note_on_c, 3, 62, 100
5, 82659, Note_on_c, 3, 62, 0
5, 82689, Note_on_c, 3, 64, 100
5, 82719, Note_on_c, 3, 64, 0
5, 82869, Note_on_c, 3, 48, 100
5, 82899, Note_on_c, 3, 48, 0
5, 82929, Note_on_c, 3, 50, 100
5, 82959, Note_on_c, 3, 50, 0
5, 82989, Note_on_c, 3, 52, 100
5, 83019, Note_on_c, 3, 52, 0
5, 83049, Note_on_c, 3, 53, 100
5, 83079, Note_on_c, 3, 53, 0
5, 83109, Note_on_c, 3, 52, 100
5, 83139, Note_on_c, 3, 52, 0
5, 83169, Note_on_c, 3, 50, 100
5, 83199, Note_on_c, 3, 50, 0
5, 83229, Note_on_c, 3, 53, 100
5, 83259, Note_on_c, 3, 53, 0
5, 83289, Note_on_c, 3, 55, 100
5, 83319, Note_on_c, 3, 55, 0
5, 83349, Note_on_c, 3, 54, 100
5, 83379, Note_on_c, 3, 54, 0
5, 83409, Note_on_c, 3, 55, 100
5, 83439, Note_on_c, 3, 55, 0
5, 83469, Control_c, 3, 11, 47
5, 83469, Note_on_c, 3, 43, 100
5, 83472, Control_c, 3, 11, 50
5, 83475, Control_c, 3, 11, 53
5, 83478, Control_c, 3, 11, 56
5, 83482, Control_c, 3, 11, 59
5, 83485, Control_c, 3, 11, 62
5, 83488, Control_c, 3, 11, 65
5, 83491, Control_c, 3, 11, 68
5, 83495, Control_c, 3, 11, 71
5, 83498, Control_c, 3, 11, 74
5, 83499, Note_on_c, 3, 43, 0
5, 83501, Control_c, 3, 11, 77
5, 83505, Control_c, 3, 11, 80
5, 83508, Control_c, 3, 11, 83
5, 83511, Control_c, 3, 11, 86
5, 83514, Control_c, 3, 11, 89
5, 83518, Control_c, 3, 11, 92
5, 83521, Control_c, 3, 11, 95
5, 83524, Control_c, 3, 11, 98
5, 83527, Control_c, 3, 11, 101
5, 83529, Note_on_c, 3, 48, 100
5, 83649, Note_on_c, 3, 48, 0
5, 83709, Note_on_c, 3, 67, 100
5, 83709, Note_on_c, 3, 64, 100
5, 83709, Control_c, 3, 11, 102
5, 83739, Note_on_c, 3, 64, 0
5, 83739, Note_on_c, 3, 67, 0
5, 83769, Note_on_c, 3, 67, 100
5, 83769, Note_on_c, 3, 64, 100
5, 83799, Note_on_c, 3, 64, 0
5, 83799, Note_on_c, 3, 67, 0
5, 83829, Note_on_c, 3, 64, 100
5, 83829, Note_on_c, 3, 67, 100
5, 83859, Note_on_c, 3, 67, 0
5, 83859, Note_on_c, 3, 64, 0
5, 83889, Note_on_c, 3, 67, 100
5, 83889, Note_on_c, 3, 64, 100
5, 83919, Note_on_c, 3, 64, 0
5, 83919, Note_on_c, 3, 67, 0
5, 83949, Note_on_c, 3, 64, 100
5, 83949, Note_on_c, 3, 67, 100
5, 83979, Note_on_c, 3, 67, 0
5, 83979, Note_on_c, 3, 64, 0
5, 84009, Note_on_c, 3, 64, 100
5, 84009, Note_on_c, 3, 67, 100
5, 84129, Note_on_c, 3, 67, 0
5, 84129, Note_on_c, 3, 64, 0
5, 84129, Note_on_c, 3, 65, 100
5, 84129, Note_on_c, 3, 62, 100
5, 84179, Note_on_c, 3, 62, 0
5, 84179, Note_on_c, 3, 65, 0
5, 84189, Note_on_c, 3, 62, 100
5, 84189, Note_on_c, 3, 65, 100
5, 84219, Note_on_c, 3, 65, 0
5, 84219, Note_on_c, 3, 62, 0
5, 84249, Note_on_c, 3, 65, 100
5, 84249, Note_on_c, 3, 62, 100
5, 84279, Note_on_c, 3, 62, 0
5, 84279, Note_on_c, 3, 65, 0
5, 84309, Note_on_c, 3, 62, 100
5, 84309, Note_on_c, 3, 65, 100
5, 84339, Note_on_c, 3, 65, 0
5, 84339, Note_on_c, 3, 62, 0
5, 84369, Note_on_c, 3, 65, 100
5, 84369, Note_on_c, 3, 62, 100
5, 84399, Note_on_c, 3, 62, 0
5, 84399, Note_on_c, 3, 65, 0
5, 84429, Note_on_c, 3, 62, 100
5, 84429, Note_on_c, 3, 65, 100
5, 84459, Note_on_c, 3, 65, 0
5, 84459, Note_on_c, 3, 62, 0
5, 84489, Note_on_c, 3, 62, 100
5, 84489, Note_on_c, 3, 65, 100
5, 84609, Note_on_c, 3, 65, 0
5, 84609, Note_on_c, 3, 62, 0
5, 84609, Note_on_c, 3, 64, 100
5, 84609, Note_on_c, 3, 60, 100
5, 84659, Note_on_c, 3, 60, 0
5, 84659, Note_on_c, 3, 64, 0
5, 84669, Note_on_c, 3, 64, 100
5, 84669, Note_on_c, 3, 60, 100
5, 84699, Note_on_c, 3, 60, 0
5, 84699, Note_on_c, 3, 64, 0
5, 84729, Note_on_c, 3, 60, 100
5, 84729, Note_on_c, 3, 64, 100
5, 84759, Note_on_c, 3, 64, 0
5, 84759, Note_on_c, 3, 60, 0
5, 84789, Note_on_c, 3, 60, 100
5, 84789, Note_on_c, 3, 64, 100
5, 84819, Note_on_c, 3, 64, 0
5, 84819, Note_on_c, 3, 60, 0
5, 84849, Note_on_c, 3, 64, 100
5, 84849, Note_on_c, 3, 60, 100
5, 84879, Note_on_c, 3, 60, 0
5, 84879, Note_on_c, 3, 64, 0
5, 84909, Note_on_c, 3, 64, 100
5, 84909, Note_on_c, 3, 60, 100
5, 84939, Note_on_c, 3, 60, 0
5, 84939, Note_on_c, 3, 64, 0
5, 84969, Note_on_c, 3, 62, 100
5, 84969, Note_on_c, 3, 57, 100
5, 85079, Note_on_c, 3, 57, 0
5, 85079, Note_on_c, 3, 62, 0
5, 85089, Note_on_c, 3, 65, 100
5, 85089, Note_on_c, 3, 57, 100
5, 85199, Note_on_c, 3, 57, 0
5, 85199, Note_on_c, 3, 65, 0
5, 85209, Note_on_c, 3, 52, 100
5, 85209, Note_on_c, 3, 60, 100
5, 85319, Note_on_c, 3, 60, 0
5, 85319, Note_on_c, 3, 52, 0
5, 85329, Note_on_c, 3, 59, 100
5, 85329, Note_on_c, 3, 50, 100
5, 85439, Note_on_c, 3, 50, 0
5, 85439, Note_on_c, 3, 59, 0
5, 85449, Note_on_c, 3, 60, 100
5, 85449, Note_on_c, 3, 52, 100
5, 85569, Note_on_c, 3, 52, 0
5, 85569, Note_on_c, 3, 60, 0
5, 86769, Note_on_c, 3, 65, 100
5, 86769, Note_on_c, 3, 62, 100
5, 86769, Control_c, 3, 11, 52
5, 86829, Note_on_c, 3, 62, 0
5, 86829, Note_on_c, 3, 65, 0
5, 87009, Note_on_c, 3, 62, 100
5, 87009, Note_on_c, 3, 59, 100
5, 87069, Note_on_c, 3, 59, 0
5, 87069, Note_on_c, 3, 62, 0
5, 87249, Note_on_c, 3, 64, 100
5, 87249, Note_on_c, 3, 60, 100
5, 87309, Note_on_c, 3, 60, 0
5, 87309, Note_on_c, 3, 64, 0
5, 88239, Note_on_c, 3, 48, 88
5, 88239, Note_on_c, 3, 52, 88
5, 88239, Control_c, 3, 11, 52
5, 88269, Note_on_c, 3, 52, 0
5, 88269, Note_on_c, 3, 48, 0
5, 88269, Note_on_c, 3, 50, 92
5, 88269, Note_on_c, 3, 53, 92
5, 88299, Note_on_c, 3, 53, 0
5, 88299, Note_on_c, 3, 50, 0
5, 88299, Note_on_c, 3, 55, 96
5, 88299, Note_on_c, 3, 52, 96
5, 88329, Note_on_c, 3, 52, 0
5, 88329, Note_on_c, 3, 55, 0
5, 88329, Note_on_c, 3, 53, 101
5, 88329, Note_on_c, 3, 57, 101
5, 88359, Note_on_c, 3, 57, 0
5, 88359, Note_on_c, 3, 53, 0
5, 88359, Note_on_c, 3, 59, 106
5, 88359, Note_on_c, 3, 55, 106
5, 88389, Note_on_c, 3, 55, 0
5, 88389, Note_on_c, 3, 59, 0
5, 88389, Note_on_c, 3, 57, 111
5, 88389, Note_on_c, 3, 60, 111
5, 88419, Note_on_c, 3, 60, 0
5, 88419, Note_on_c, 3, 57, 0
5, 88419, Note_on_c, 3, 59, 115
5, 88419, Note_on_c, 3, 62, 115
5, 88449, Note_on_c, 3, 62, 0
5, 88449, Note_on_c, 3, 59, 0
5, 88449, Note_on_c, 3, 64, 110
5, 88449, Note_on_c, 3, 60, 110
5, 88479, Note_on_c, 3, 60, 0
5, 88479, Note_on_c, 3, 64, 0
5, 88509, Note_on_c, 3, 60, 100
5, 88509, Note_on_c, 3, 64, 100
5, 88539, Note_on_c, 3, 64, 0
5, 88539, Note_on_c, 3, 60, 0
5, 88569, Note_on_c, 3, 62, 100
5, 88569, Note_on_c, 3, 65, 100
5, 88629, Note_on_c, 3, 65, 0
5, 88629, Note_on_c, 3, 62, 0
5, 88809, Note_on_c, 3, 59, 100
5, 88809, Note_on_c, 3, 62, 100
5, 88869, Note_on_c, 3, 62, 0
5, 88869, Note_on_c, 3, 59, 0
5, 89049, Note_on_c, 3, 64, 100
5, 89109, Note_on_c, 3, 64, 0
5, 89199, Note_on_c, 3, 52, 96
5, 89199, Note_on_c, 3, 48, 96
5, 89229, Note_on_c, 3, 48, 0
5, 89229, Note_on_c, 3, 52, 0
5, 89229, Note_on_c, 3, 50, 100
5, 89229, Note_on_c, 3, 53, 100
5, 89259, Note_on_c, 3, 53, 0
5, 89259, Note_on_c, 3, 50, 0
5, 89259, Note_on_c, 3, 55, 105
5, 89259, Note_on_c, 3, 52, 105
5, 89289, Note_on_c, 3, 52, 0
5, 89289, Note_on_c, 3, 55, 0
5, 89289, Note_on_c, 3, 53, 110
5, 89289, Note_on_c, 3, 57, 110
5, 89319, Note_on_c, 3, 57, 0
5, 89319, Note_on_c, 3, 53, 0
5, 89319, Note_on_c, 3, 59, 116
5, 89319, Note_on_c, 3, 55, 116
5, 89349, Note_on_c, 3, 55, 0
5, 89349, Note_on_c, 3, 59, 0
5, 89349, Note_on_c, 3, 57, 121
5, 89349, Note_on_c, 3, 60, 121
5, 89379, Note_on_c, 3, 60, 0
5, 89379, Note_on_c, 3, 57, 0
5, 89379, Note_on_c, 3, 62, 126
5, 89379, Note_on_c, 3, 59, 126
5, 89409, Note_on_c, 3, 59, 0
5, 89409, Note_on_c, 3, 62, 0
5, 89409, Note_on_c, 3, 60, 110
5, 89409, Note_on_c, 3, 64, 110
5, 89439, Note_on_c, 3, 64, 0
5, 89439, Note_on_c, 3, 60, 0
5, 89469, Note_on_c, 3, 64, 100
5, 89469, Note_on_c, 3, 60, 100
5, 89499, Note_on_c, 3, 60, 0
5, 89499, Note_on_c, 3, 64, 0
5, 89529, Control_c, 3, 11, 52
5, 89529, Note_on_c, 3, 65, 100
5, 89529, Note_on_c, 3, 62, 100
5, 89548, Control_c, 3, 11, 53
5, 89567, Control_c, 3, 11, 54
5, 89586, Control_c, 3, 11, 55
5, 89589, Note_on_c, 3, 62, 0
5, 89589, Note_on_c, 3, 65, 0
5, 89605, Control_c, 3, 11, 56
5, 89625, Control_c, 3, 11, 57
5, 89644, Control_c, 3, 11, 58
5, 89649, Note_on_c, 3, 65, 100
5, 89649, Note_on_c, 3, 62, 100
5, 89663, Control_c, 3, 11, 59
5, 89682, Control_c, 3, 11, 60
5, 89701, Control_c, 3, 11, 61
5, 89709, Note_on_c, 3, 62, 0
5, 89709, Note_on_c, 3, 65, 0
5, 89721, Control_c, 3, 11, 62
5, 89740, Control_c, 3, 11, 63
5, 89759, Control_c, 3, 11, 64
5, 89778, Control_c, 3, 11, 65
5, 89797, Control_c, 3, 11, 66
5, 89817, Control_c, 3, 11, 67
5, 89836, Control_c, 3, 11, 68
5, 89855, Control_c, 3, 11, 69
5, 89874, Control_c, 3, 11, 70
5, 89889, Note_on_c, 3, 55, 100
5, 89889, Note_on_c, 3, 59, 100
5, 89893, Control_c, 3, 11, 71
5, 89913, Control_c, 3, 11, 72
5, 89932, Control_c, 3, 11, 73
5, 89949, Note_on_c, 3, 59, 0
5, 89949, Note_on_c, 3, 55, 0
5, 89951, Control_c, 3, 11, 74
5, 89970, Control_c, 3, 11, 75
5, 89989, Control_c, 3, 11, 76
5, 90009, Control_c, 3, 11, 77
5, 90009, Note_on_c, 3, 60, 100
5, 90028, Control_c, 3, 11, 78
5, 90047, Control_c, 3, 11, 79
5, 90066, Control_c, 3, 11, 80
5, 90069, Note_on_c, 3, 60, 0
5, 90085, Control_c, 3, 11, 81
5, 90105, Control_c, 3, 11, 82
5, 90124, Control_c, 3, 11, 83
5, 90143, Control_c, 3, 11, 84
5, 90159, Note_on_c, 3, 52, 96
5, 90159, Note_on_c, 3, 48, 96
5, 90162, Control_c, 3, 11, 85
5, 90174, Note_on_c, 3, 48, 0
5, 90174, Note_on_c, 3, 52, 0
5, 90181, Control_c, 3, 11, 86
5, 90189, Note_on_c, 3, 53, 100
5, 90189, Note_on_c, 3, 50, 100
5, 90201, Control_c, 3, 11, 87
5, 90204, Note_on_c, 3, 50, 0
5, 90204, Note_on_c, 3, 53, 0
5, 90219, Note_on_c, 3, 52, 105
5, 90219, Note_on_c, 3, 55, 105
5, 90220, Control_c, 3, 11, 88
5, 90234, Note_on_c, 3, 55, 0
5, 90234, Note_on_c, 3, 52, 0
5, 90239, Control_c, 3, 11, 89
5, 90249, Note_on_c, 3, 53, 110
5, 90249, Note_on_c, 3, 57, 110
5, 90258, Control_c, 3, 11, 90
5, 90264, Note_on_c, 3, 57, 0
5, 90264, Note_on_c, 3, 53, 0
5, 90277, Control_c, 3, 11, 91
5, 90279, Note_on_c, 3, 55, 116
5, 90279, Note_on_c, 3, 59, 116
5, 90294, Note_on_c, 3, 59, 0
5, 90294, Note_on_c, 3, 55, 0
5, 90297, Control_c, 3, 11, 92
5, 90309, Note_on_c, 3, 57, 122
5, 90309, Note_on_c, 3, 60, 122
5, 90316, Control_c, 3, 11, 93
5, 90324, Note_on_c, 3, 60, 0
5, 90324, Note_on_c, 3, 57, 0
5, 90335, Control_c, 3, 11, 94
5, 90339, Note_on_c, 3, 59, 127
5, 90339, Note_on_c, 3, 62, 127
5, 90354, Note_on_c, 3, 62, 0
5, 90354, Note_on_c, 3, 59, 0
5, 90354, Control_c, 3, 11, 95
5, 90369, Note_on_c, 3, 60, 111
5, 90369, Note_on_c, 3, 64, 111
5, 90373, Control_c, 3, 11, 96
5, 90393, Control_c, 3, 11, 97
5, 90399, Note_on_c, 3, 64, 0
5, 90399, Note_on_c, 3, 60, 0
5, 90412, Control_c, 3, 11, 98
5, 90429, Note_on_c, 3, 64, 100
5, 90429, Note_on_c, 3, 60, 100
5, 90431, Control_c, 3, 11, 99
5, 90450, Control_c, 3, 11, 100
5, 90459, Note_on_c, 3, 60, 0
5, 90459, Note_on_c, 3, 64, 0
5, 90469, Control_c, 3, 11, 101
5, 90489, Note_on_c, 3, 65, 100
5, 90489, Note_on_c, 3, 62, 100
5, 90489, Control_c, 3, 11, 102
5, 90729, Note_on_c, 3, 62, 0
5, 90729, Note_on_c, 3, 65, 0
5, 90729, Note_on_c, 3, 62, 100
5, 90729, Note_on_c, 3, 59, 100
5, 90969, Note_on_c, 3, 59, 0
5, 90969, Note_on_c, 3, 62, 0
5, 90969, Control_c, 3, 11, 122
5, 90969, Note_on_c, 3, 60, 100
5, 90987, Control_c, 3, 11, 119
5, 91005, Control_c, 3, 11, 116
5, 91023, Control_c, 3, 11, 113
5, 91041, Control_c, 3, 11, 110
5, 91059, Control_c, 3, 11, 107
5, 91077, Control_c, 3, 11, 104
5, 91109, Note_on_c, 3, 60, 0
5, 91119, Note_on_c, 3, 48, 100
5, 91134, Note_on_c, 3, 48, 0
5, 91149, Note_on_c, 3, 50, 100
5, 91164, Note_on_c, 3, 50, 0
5, 91179, Note_on_c, 3, 52, 100
5, 91194, Note_on_c, 3, 52, 0
5, 91209, Note_on_c, 3, 53, 100
5, 91224, Note_on_c, 3, 53, 0
5, 91239, Note_on_c, 3, 55, 100
5, 91254, Note_on_c, 3, 55, 0
5, 91269, Note_on_c, 3, 57, 100
5, 91284, Note_on_c, 3, 57, 0
5, 91299, Note_on_c, 3, 59, 100
5, 91314, Note_on_c, 3, 59, 0
5, 91329, Note_on_c, 3, 60, 100
5, 91359, Note_on_c, 3, 60, 0
5, 91389, Note_on_c, 3, 60, 100
5, 91419, Note_on_c, 3, 60, 0
5, 91449, Control_c, 3, 11, 122
5, 91449, Note_on_c, 3, 64, 100
5, 91467, Control_c, 3, 11, 119
5, 91485, Control_c, 3, 11, 116
5, 91503, Control_c, 3, 11, 113
5, 91521, Control_c, 3, 11, 110
5, 91539, Control_c, 3, 11, 107
5, 91557, Control_c, 3, 11, 104
5, 91589, Note_on_c, 3, 64, 0
5, 91599, Note_on_c, 3, 52, 100
5, 91614, Note_on_c, 3, 52, 0
5, 91629, Note_on_c, 3, 53, 100
5, 91644, Note_on_c, 3, 53, 0
5, 91659, Note_on_c, 3, 55, 100
5, 91674, Note_on_c, 3, 55, 0
5, 91689, Note_on_c, 3, 57, 100
5, 91704, Note_on_c, 3, 57, 0
5, 91719, Note_on_c, 3, 59, 100
5, 91734, Note_on_c, 3, 59, 0
5, 91749, Note_on_c, 3, 60, 100
5, 91764, Note_on_c, 3, 60, 0
5, 91779, Note_on_c, 3, 62, 100
5, 91794, Note_on_c, 3, 62, 0
5, 91809, Note_on_c, 3, 64, 100
5, 91839, Note_on_c, 3, 64, 0
5, 91869, Note_on_c, 3, 64, 100
5, 91899, Note_on_c, 3, 64, 0
5, 91929, Note_on_c, 3, 67, 100
5, 91929, Control_c, 3, 11, 112
5, 91947, Control_c, 3, 11, 109
5, 91965, Control_c, 3, 11, 106
5, 91983, Control_c, 3, 11, 103
5, 92169, Note_on_c, 3, 67, 0
5, 92169, Note_on_c, 3, 64, 100
5, 92229, Note_on_c, 3, 64, 0
5, 92289, Note_on_c, 3, 60, 100
5, 92349, Note_on_c, 3, 60, 0
5, 92409, Note_on_c, 3, 55, 100
5, 92469, Note_on_c, 3, 55, 0
5, 92529, Note_on_c, 3, 52, 100
5, 92589, Note_on_c, 3, 52, 0
5, 92649, Note_on_c, 3, 48, 100
5, 92709, Note_on_c, 3, 48, 0
5, 92769, Note_on_c, 3, 43, 100
5, 92829, Note_on_c, 3, 43, 0
5, 92889, Note_on_c, 3, 48, 100
5, 92985, Note_on_c, 3, 48, 0
5, 93129, Note_on_c, 3, 55, 100
5, 93225, Note_on_c, 3, 55, 0
5, 93369, Note_on_c, 3, 60, 100
5, 93465, Note_on_c, 3, 60, 0
5, 93609, Note_on_c, 3, 55, 100
5, 93705, Note_on_c, 3, 55, 0
5, 93849, Note_on_c, 3, 48, 100
5, 93945, Note_on_c, 3, 48, 0
5, 94089, Note_on_c, 3, 60, 110
5, 94191, Note_on_c, 3, 60, 0
5, 94329, Note_on_c, 3, 48, 100
5, 94449, Note_on_c, 3, 48, 0
5, 94569, Control_c, 3, 121, 0
5, 94569, End_track
6, 0, Start_track
6, 0, MIDI_port, 0
6, 0, Title_t, "Corno I in C"
6, 0, Program_c, 4, 60
6, 0, Control_c, 4, 10, 24
6, 3, Control_c, 4, 121, 0
6, 8, Program_c, 4, 60
6, 13, Pitch_bend_c, 4, 8292
6, 18, Control_c, 4, 11, 102
6, 23, Control_c, 4, 7, 127
6, 28, Control_c, 4, 91, 80
6, 33, Control_c, 4, 93, 0
6, 38, Control_c, 4, 10, 24
6, 243, Control_c, 4, 11, 72
6, 243, Note_on_c, 4, 67, 105
6, 245, Control_c, 4, 11, 75
6, 247, Control_c, 4, 11, 78
6, 249, Control_c, 4, 11, 81
6, 251, Control_c, 4, 11, 84
6, 253, Control_c, 4, 11, 87
6, 255, Control_c, 4, 11, 90
6, 257, Control_c, 4, 11, 93
6, 259, Control_c, 4, 11, 96
6, 261, Control_c, 4, 11, 99
6, 263, Control_c, 4, 11, 102
6, 378, Control_c, 4, 11, 102
6, 379, Control_c, 4, 11, 98
6, 380, Control_c, 4, 11, 94
6, 381, Control_c, 4, 11, 91
6, 382, Control_c, 4, 11, 87
6, 383, Control_c, 4, 11, 83
6, 384, Control_c, 4, 11, 80
6, 385, Control_c, 4, 11, 76
6, 386, Control_c, 4, 11, 72
6, 387, Control_c, 4, 11, 69
6, 388, Control_c, 4, 11, 65
6, 389, Control_c, 4, 11, 61
6, 390, Control_c, 4, 11, 58
6, 391, Control_c, 4, 11, 54
6, 392, Control_c, 4, 11, 50
6, 393, Note_on_c, 4, 67, 0
6, 393, Control_c, 4, 11, 47
6, 5043, Control_c, 4, 11, 47
6, 5043, Note_on_c, 4, 60, 90
6, 5103, Note_on_c, 4, 60, 0
6, 5163, Note_on_c, 4, 62, 97
6, 5223, Note_on_c, 4, 62, 0
6, 5283, Note_on_c, 4, 60, 105
6, 5343, Note_on_c, 4, 60, 0
6, 6423, Note_on_c, 4, 60, 105
6, 6423, Control_c, 4, 11, 102
6, 6483, Note_on_c, 4, 60, 0
6, 6483, Note_on_c, 4, 60, 105
6, 6543, Note_on_c, 4, 60, 0
6, 6543, Note_on_c, 4, 60, 105
6, 6603, Note_on_c, 4, 60, 0
6, 6603, Note_on_c, 4, 60, 105
6, 6663, Note_on_c, 4, 60, 0
6, 6663, Note_on_c, 4, 60, 105
6, 6723, Note_on_c, 4, 60, 0
6, 6723, Note_on_c, 4, 60, 105
6, 6783, Note_on_c, 4, 60, 0
6, 6843, Note_on_c, 4, 60, 105
6, 6903, Note_on_c, 4, 60, 0
6, 6963, Note_on_c, 4, 60, 105
6, 7023, Note_on_c, 4, 60, 0
6, 7083, Note_on_c, 4, 62, 105
6, 7143, Note_on_c, 4, 62, 0
6, 7203, Note_on_c, 4, 60, 105
6, 7203, Control_c, 4, 11, 87
6, 7443, Note_on_c, 4, 60, 0
6, 7443, Note_on_c, 4, 62, 105
6, 7683, Note_on_c, 4, 62, 0
6, 7683, Note_on_c, 4, 64, 105
6, 7803, Note_on_c, 4, 64, 0
6, 8163, Note_on_c, 4, 60, 105
6, 8403, Note_on_c, 4, 60, 0
6, 8403, Note_on_c, 4, 62, 105
6, 8643, Note_on_c, 4, 62, 0
6, 8643, Note_on_c, 4, 64, 105
6, 8763, Note_on_c, 4, 64, 0
6, 8943, Note_on_c, 4, 62, 105
6, 9003, Note_on_c, 4, 62, 0
6, 9003, Note_on_c, 4, 62, 105
6, 9063, Note_on_c, 4, 62, 0
6, 9063, Note_on_c, 4, 62, 105
6, 9123, Note_on_c, 4, 62, 0
6, 9123, Note_on_c, 4, 60, 105
6, 9183, Note_on_c, 4, 60, 0
6, 9243, Note_on_c, 4, 64, 105
6, 9243, Control_c, 4, 11, 107
6, 9260, Control_c, 4, 11, 104
6, 9278, Control_c, 4, 11, 101
6, 9296, Control_c, 4, 11, 98
6, 9314, Control_c, 4, 11, 95
6, 9332, Control_c, 4, 11, 92
6, 9350, Control_c, 4, 11, 89
6, 9603, Note_on_c, 4, 64, 0
6, 9603, Note_on_c, 4, 62, 105
6, 9723, Note_on_c, 4, 62, 0
6, 9723, Note_on_c, 4, 62, 105
6, 9723, Control_c, 4, 11, 107
6, 9740, Control_c, 4, 11, 104
6, 9758, Control_c, 4, 11, 101
6, 9776, Control_c, 4, 11, 98
6, 9794, Control_c, 4, 11, 95
6, 9812, Control_c, 4, 11, 92
6, 9830, Control_c, 4, 11, 89
6, 10083, Note_on_c, 4, 62, 0
6, 10083, Note_on_c, 4, 60, 105
6, 10203, Note_on_c, 4, 60, 0
6, 10563, Note_on_c, 4, 64, 105
6, 10683, Note_on_c, 4, 64, 0
6, 10803, Note_on_c, 4, 64, 105
6, 10923, Note_on_c, 4, 64, 0
6, 11043, Note_on_c, 4, 62, 105
6, 11643, Note_on_c, 4, 62, 0
6, 11643, Note_on_c, 4, 62, 105
6, 11733, Note_on_c, 4, 62, 0
6, 11763, Note_on_c, 4, 62, 105
6, 11853, Note_on_c, 4, 62, 0
6, 11883, Note_on_c, 4, 62, 105
6, 11973, Note_on_c, 4, 62, 0
6, 12003, Note_on_c, 4, 62, 105
6, 12603, Note_on_c, 4, 62, 0
6, 12603, Note_on_c, 4, 62, 105
6, 12693, Note_on_c, 4, 62, 0
6, 12723, Note_on_c, 4, 62, 105
6, 12813, Note_on_c, 4, 62, 0
6, 12843, Note_on_c, 4, 62, 105
6, 12933, Note_on_c, 4, 62, 0
6, 12963, Note_on_c, 4, 62, 105
6, 13053, Note_on_c, 4, 62, 0
6, 14403, Control_c, 4, 11, 37
6, 14403, Note_on_c, 4, 62, 105
6, 14427, Control_c, 4, 11, 39
6, 14451, Control_c, 4, 11, 41
6, 14475, Control_c, 4, 11, 43
6, 14499, Control_c, 4, 11, 45
6, 14523, Control_c, 4, 11, 47
6, 15603, Control_c, 4, 11, 47
6, 15632, Control_c, 4, 11, 48
6, 15662, Control_c, 4, 11, 49
6, 15692, Control_c, 4, 11, 50
6, 15722, Control_c, 4, 11, 51
6, 15752, Control_c, 4, 11, 52
6, 15782, Control_c, 4, 11, 53
6, 15812, Control_c, 4, 11, 54
6, 15842, Control_c, 4, 11, 55
6, 15872, Control_c, 4, 11, 56
6, 15902, Control_c, 4, 11, 57
6, 15932, Control_c, 4, 11, 58
6, 15962, Control_c, 4, 11, 59
6, 15963, Note_on_c, 4, 62, 0
6, 15963, Note_on_c, 4, 67, 105
6, 15992, Control_c, 4, 11, 60
6, 16022, Control_c, 4, 11, 61
6, 16052, Control_c, 4, 11, 62
6, 16082, Control_c, 4, 11, 63
6, 16112, Control_c, 4, 11, 64
6, 16142, Control_c, 4, 11, 65
6, 16172, Control_c, 4, 11, 66
6, 16202, Control_c, 4, 11, 67
6, 16232, Control_c, 4, 11, 68
6, 16262, Control_c, 4, 11, 69
6, 16292, Control_c, 4, 11, 70
6, 16322, Control_c, 4, 11, 71
6, 16352, Control_c, 4, 11, 72
6, 16382, Control_c, 4, 11, 73
6, 16412, Control_c, 4, 11, 74
6, 16442, Control_c, 4, 11, 75
6, 16472, Control_c, 4, 11, 76
6, 16502, Control_c, 4, 11, 77
6, 16532, Control_c, 4, 11, 78
6, 16562, Control_c, 4, 11, 79
6, 16592, Control_c, 4, 11, 80
6, 16622, Control_c, 4, 11, 81
6, 16652, Control_c, 4, 11, 82
6, 16682, Control_c, 4, 11, 83
6, 16712, Control_c, 4, 11, 84
6, 16742, Control_c, 4, 11, 85
6, 16772, Control_c, 4, 11, 86
6, 16802, Control_c, 4, 11, 87
6, 16803, Note_on_c, 4, 67, 0
6, 18363, Note_on_c, 4, 64, 105
6, 18363, Control_c, 4, 11, 87
6, 18483, Note_on_c, 4, 64, 0
6, 18483, Note_on_c, 4, 62, 105
6, 18603, Note_on_c, 4, 62, 0
6, 18603, Note_on_c, 4, 62, 105
6, 18723, Note_on_c, 4, 62, 0
6, 18723, Note_on_c, 4, 62, 105
6, 18843, Note_on_c, 4, 62, 0
6, 19023, Control_c, 4, 11, 107
6, 19023, Note_on_c, 4, 55, 105
6, 19040, Control_c, 4, 11, 104
6, 19058, Control_c, 4, 11, 101
6, 19076, Control_c, 4, 11, 98
6, 19094, Control_c, 4, 11, 95
6, 19112, Control_c, 4, 11, 92
6, 19128, Note_on_c, 4, 55, 0
6, 19130, Control_c, 4, 11, 89
6, 19143, Note_on_c, 4, 67, 105
6, 19203, Note_on_c, 4, 67, 0
6, 19203, Note_on_c, 4, 67, 105
6, 19263, Note_on_c, 4, 67, 0
6, 19503, Control_c, 4, 11, 107
6, 19503, Note_on_c, 4, 62, 105
6, 19520, Control_c, 4, 11, 104
6, 19538, Control_c, 4, 11, 101
6, 19556, Control_c, 4, 11, 98
6, 19574, Control_c, 4, 11, 95
6, 19592, Control_c, 4, 11, 92
6, 19608, Note_on_c, 4, 62, 0
6, 19610, Control_c, 4, 11, 89
6, 19623, Note_on_c, 4, 62, 105
6, 19683, Note_on_c, 4, 62, 0
6, 19683, Note_on_c, 4, 62, 105
6, 19743, Note_on_c, 4, 62, 0
6, 19983, Note_on_c, 4, 67, 105
6, 19983, Control_c, 4, 11, 107
6, 20000, Control_c, 4, 11, 104
6, 20018, Control_c, 4, 11, 101
6, 20036, Control_c, 4, 11, 98
6, 20054, Control_c, 4, 11, 95
6, 20072, Control_c, 4, 11, 92
6, 20088, Note_on_c, 4, 67, 0
6, 20090, Control_c, 4, 11, 89
6, 20103, Note_on_c, 4, 67, 105
6, 20163, Note_on_c, 4, 67, 0
6, 20163, Note_on_c, 4, 67, 105
6, 20223, Note_on_c, 4, 67, 0
6, 20463, Control_c, 4, 11, 107
6, 20463, Note_on_c, 4, 62, 105
6, 20480, Control_c, 4, 11, 104
6, 20498, Control_c, 4, 11, 101
6, 20516, Control_c, 4, 11, 98
6, 20534, Control_c, 4, 11, 95
6, 20552, Control_c, 4, 11, 92
6, 20568, Note_on_c, 4, 62, 0
6, 20570, Control_c, 4, 11, 89
6, 20583, Note_on_c, 4, 62, 105
6, 20643, Note_on_c, 4, 62, 0
6, 20643, Control_c, 4, 11, 107
6, 20643, Note_on_c, 4, 55, 105
6, 20660, Control_c, 4, 11, 104
6, 20678, Control_c, 4, 11, 101
6, 20696, Control_c, 4, 11, 98
6, 20714, Control_c, 4, 11, 95
6, 20732, Control_c, 4, 11, 92
6, 20750, Control_c, 4, 11, 89
6, 21003, Note_on_c, 4, 55, 0
6, 21003, Note_on_c, 4, 55, 105
6, 21063, Note_on_c, 4, 55, 0
6, 21063, Note_on_c, 4, 55, 105
6, 21123, Note_on_c, 4, 55, 0
6, 21123, Note_on_c, 4, 55, 105
6, 21123, Control_c, 4, 11, 107
6, 21140, Control_c, 4, 11, 104
6, 21158, Control_c, 4, 11, 101
6, 21176, Control_c, 4, 11, 98
6, 21194, Control_c, 4, 11, 95
6, 21212, Control_c, 4, 11, 92
6, 21230, Control_c, 4, 11, 89
6, 21483, Note_on_c, 4, 55, 0
6, 21483, Note_on_c, 4, 55, 105
6, 21543, Note_on_c, 4, 55, 0
6, 21543, Note_on_c, 4, 55, 105
6, 21603, Note_on_c, 4, 55, 0
6, 21603, Control_c, 4, 11, 107
6, 21603, Note_on_c, 4, 55, 105
6, 21620, Control_c, 4, 11, 104
6, 21638, Control_c, 4, 11, 101
6, 21656, Control_c, 4, 11, 98
6, 21674, Control_c, 4, 11, 95
6, 21692, Control_c, 4, 11, 92
6, 21710, Control_c, 4, 11, 89
6, 21963, Note_on_c, 4, 55, 0
6, 21963, Note_on_c, 4, 55, 105
6, 22023, Note_on_c, 4, 55, 0
6, 22023, Note_on_c, 4, 55, 105
6, 22083, Note_on_c, 4, 55, 0
6, 22083, Control_c, 4, 11, 107
6, 22083, Note_on_c, 4, 55, 105
6, 22100, Control_c, 4, 11, 104
6, 22118, Control_c, 4, 11, 101
6, 22136, Control_c, 4, 11, 98
6, 22154, Control_c, 4, 11, 95
6, 22172, Control_c, 4, 11, 92
6, 22190, Control_c, 4, 11, 89
6, 22443, Note_on_c, 4, 55, 0
6, 22443, Note_on_c, 4, 55, 105
6, 22503, Note_on_c, 4, 55, 0
6, 22503, Note_on_c, 4, 55, 105
6, 22563, Note_on_c, 4, 55, 0
6, 22563, Control_c, 4, 11, 107
6, 22563, Note_on_c, 4, 55, 105
6, 22580, Control_c, 4, 11, 104
6, 22598, Control_c, 4, 11, 101
6, 22616, Control_c, 4, 11, 98
6, 22634, Control_c, 4, 11, 95
6, 22652, Control_c, 4, 11, 92
6, 22670, Control_c, 4, 11, 89
6, 22743, Note_on_c, 4, 55, 0
6, 22743, Note_on_c, 4, 55, 105
6, 22803, Note_on_c, 4, 55, 0
6, 22803, Control_c, 4, 11, 107
6, 22803, Note_on_c, 4, 55, 105
6, 22820, Control_c, 4, 11, 104
6, 22838, Control_c, 4, 11, 101
6, 22856, Control_c, 4, 11, 98
6, 22874, Control_c, 4, 11, 95
6, 22892, Control_c, 4, 11, 92
6, 22910, Control_c, 4, 11, 89
6, 22983, Note_on_c, 4, 55, 0
6, 22983, Note_on_c, 4, 55, 105
6, 23043, Note_on_c, 4, 55, 0
6, 23043, Note_on_c, 4, 55, 105
6, 23103, Note_on_c, 4, 55, 0
6, 26643, Control_c, 4, 11, 47
6, 26643, Note_on_c, 4, 60, 90
6, 26703, Note_on_c, 4, 60, 0
6, 26763, Note_on_c, 4, 62, 97
6, 26823, Note_on_c, 4, 62, 0
6, 26883, Note_on_c, 4, 60, 105
6, 26943, Note_on_c, 4, 60, 0
6, 28023, Note_on_c, 4, 60, 105
6, 28023, Control_c, 4, 11, 102
6, 28083, Note_on_c, 4, 60, 0
6, 28083, Note_on_c, 4, 60, 105
6, 28143, Note_on_c, 4, 60, 0
6, 28143, Note_on_c, 4, 60, 105
6, 28203, Note_on_c, 4, 60, 0
6, 28203, Note_on_c, 4, 60, 105
6, 28263, Note_on_c, 4, 60, 0
6, 28263, Note_on_c, 4, 60, 105
6, 28323, Note_on_c, 4, 60, 0
6, 28323, Note_on_c, 4, 60, 105
6, 28383, Note_on_c, 4, 60, 0
6, 28443, Note_on_c, 4, 60, 105
6, 28503, Note_on_c, 4, 60, 0
6, 28563, Note_on_c, 4, 60, 105
6, 28623, Note_on_c, 4, 60, 0
6, 28683, Note_on_c, 4, 62, 105
6, 28743, Note_on_c, 4, 62, 0
6, 28803, Control_c, 4, 11, 87
6, 28803, Note_on_c, 4, 60, 105
6, 29043, Note_on_c, 4, 60, 0
6, 29043, Note_on_c, 4, 62, 105
6, 29283, Note_on_c, 4, 62, 0
6, 29283, Note_on_c, 4, 64, 105
6, 29403, Note_on_c, 4, 64, 0
6, 29763, Note_on_c, 4, 60, 105
6, 30003, Note_on_c, 4, 60, 0
6, 30003, Note_on_c, 4, 62, 105
6, 30243, Note_on_c, 4, 62, 0
6, 30243, Note_on_c, 4, 64, 105
6, 30363, Note_on_c, 4, 64, 0
6, 30543, Note_on_c, 4, 62, 105
6, 30603, Note_on_c, 4, 62, 0
6, 30603, Note_on_c, 4, 62, 105
6, 30663, Note_on_c, 4, 62, 0
6, 30663, Note_on_c, 4, 62, 105
6, 30723, Note_on_c, 4, 62, 0
6, 30723, Note_on_c, 4, 60, 105
6, 30783, Note_on_c, 4, 60, 0
6, 30843, Note_on_c, 4, 64, 105
6, 30843, Control_c, 4, 11, 107
6, 30860, Control_c, 4, 11, 104
6, 30878, Control_c, 4, 11, 101
6, 30896, Control_c, 4, 11, 98
6, 30914, Control_c, 4, 11, 95
6, 30932, Control_c, 4, 11, 92
6, 30950, Control_c, 4, 11, 89
6, 31203, Note_on_c, 4, 64, 0
6, 31203, Note_on_c, 4, 62, 105
6, 31323, Note_on_c, 4, 62, 0
6, 31323, Control_c, 4, 11, 107
6, 31323, Note_on_c, 4, 62, 105
6, 31340, Control_c, 4, 11, 104
6, 31358, Control_c, 4, 11, 101
6, 31376, Control_c, 4, 11, 98
6, 31394, Control_c, 4, 11, 95
6, 31412, Control_c, 4, 11, 92
6, 31430, Control_c, 4, 11, 89
6, 31683, Note_on_c, 4, 62, 0
6, 31683, Note_on_c, 4, 60, 105
6, 31803, Note_on_c, 4, 60, 0
6, 32163, Note_on_c, 4, 64, 105
6, 32283, Note_on_c, 4, 64, 0
6, 32403, Note_on_c, 4, 64, 105
6, 32523, Note_on_c, 4, 64, 0
6, 32643, Note_on_c, 4, 62, 105
6, 33243, Note_on_c, 4, 62, 0
6, 33243, Note_on_c, 4, 62, 105
6, 33333, Note_on_c, 4, 62, 0
6, 33363, Note_on_c, 4, 62, 105
6, 33453, Note_on_c, 4, 62, 0
6, 33483, Note_on_c, 4, 62, 105
6, 33573, Note_on_c, 4, 62, 0
6, 33603, Note_on_c, 4, 62, 105
6, 34203, Note_on_c, 4, 62, 0
6, 34203, Note_on_c, 4, 62, 105
6, 34293, Note_on_c, 4, 62, 0
6, 34323, Note_on_c, 4, 62, 105
6, 34413, Note_on_c, 4, 62, 0
6, 34443, Note_on_c, 4, 62, 105
6, 34533, Note_on_c, 4, 62, 0
6, 34563, Note_on_c, 4, 62, 105
6, 34653, Note_on_c, 4, 62, 0
6, 36003, Control_c, 4, 11, 37
6, 36003, Note_on_c, 4, 62, 105
6, 36027, Control_c, 4, 11, 39
6, 36051, Control_c, 4, 11, 41
6, 36075, Control_c, 4, 11, 43
6, 36099, Control_c, 4, 11, 45
6, 36123, Control_c, 4, 11, 47
6, 37203, Control_c, 4, 11, 47
6, 37232, Control_c, 4, 11, 48
6, 37262, Control_c, 4, 11, 49
6, 37292, Control_c, 4, 11, 50
6, 37322, Control_c, 4, 11, 51
6, 37352, Control_c, 4, 11, 52
6, 37382, Control_c, 4, 11, 53
6, 37412, Control_c, 4, 11, 54
6, 37442, Control_c, 4, 11, 55
6, 37472, Control_c, 4, 11, 56
6, 37502, Control_c, 4, 11, 57
6, 37532, Control_c, 4, 11, 58
6, 37562, Control_c, 4, 11, 59
6, 37563, Note_on_c, 4, 62, 0
6, 37563, Note_on_c, 4, 67, 105
6, 37592, Control_c, 4, 11, 60
6, 37622, Control_c, 4, 11, 61
6, 37652, Control_c, 4, 11, 62
6, 37682, Control_c, 4, 11, 63
6, 37712, Control_c, 4, 11, 64
6, 37742, Control_c, 4, 11, 65
6, 37772, Control_c, 4, 11, 66
6, 37802, Control_c, 4, 11, 67
6, 37832, Control_c, 4, 11, 68
6, 37862, Control_c, 4, 11, 69
6, 37892, Control_c, 4, 11, 70
6, 37922, Control_c, 4, 11, 71
6, 37952, Control_c, 4, 11, 72
6, 37982, Control_c, 4, 11, 73
6, 38012, Control_c, 4, 11, 74
6, 38042, Control_c, 4, 11, 75
6, 38072, Control_c, 4, 11, 76
6, 38102, Control_c, 4, 11, 77
6, 38132, Control_c, 4, 11, 78
6, 38162, Control_c, 4, 11, 79
6, 38192, Control_c, 4, 11, 80
6, 38222, Control_c, 4, 11, 81
6, 38252, Control_c, 4, 11, 82
6, 38282, Control_c, 4, 11, 83
6, 38312, Control_c, 4, 11, 84
6, 38342, Control_c, 4, 11, 85
6, 38372, Control_c, 4, 11, 86
6, 38402, Control_c, 4, 11, 87
6, 38403, Note_on_c, 4, 67, 0
6, 39963, Note_on_c, 4, 64, 105
6, 39963, Control_c, 4, 11, 87
6, 40083, Note_on_c, 4, 64, 0
6, 40083, Note_on_c, 4, 62, 105
6, 40203, Note_on_c, 4, 62, 0
6, 40203, Note_on_c, 4, 62, 105
6, 40323, Note_on_c, 4, 62, 0
6, 40323, Note_on_c, 4, 62, 105
6, 40443, Note_on_c, 4, 62, 0
6, 40623, Control_c, 4, 11, 107
6, 40623, Note_on_c, 4, 55, 105
6, 40640, Control_c, 4, 11, 104
6, 40658, Control_c, 4, 11, 101
6, 40676, Control_c, 4, 11, 98
6, 40694, Control_c, 4, 11, 95
6, 40712, Control_c, 4, 11, 92
6, 40728, Note_on_c, 4, 55, 0
6, 40730, Control_c, 4, 11, 89
6, 40743, Note_on_c, 4, 67, 105
6, 40803, Note_on_c, 4, 67, 0
6, 40803, Note_on_c, 4, 67, 105
6, 40863, Note_on_c, 4, 67, 0
6, 41103, Control_c, 4, 11, 107
6, 41103, Note_on_c, 4, 62, 105
6, 41120, Control_c, 4, 11, 104
6, 41138, Control_c, 4, 11, 101
6, 41156, Control_c, 4, 11, 98
6, 41174, Control_c, 4, 11, 95
6, 41192, Control_c, 4, 11, 92
6, 41208, Note_on_c, 4, 62, 0
6, 41210, Control_c, 4, 11, 89
6, 41223, Note_on_c, 4, 62, 105
6, 41283, Note_on_c, 4, 62, 0
6, 41283, Note_on_c, 4, 62, 105
6, 41343, Note_on_c, 4, 62, 0
6, 41583, Control_c, 4, 11, 107
6, 41583, Note_on_c, 4, 67, 105
6, 41600, Control_c, 4, 11, 104
6, 41618, Control_c, 4, 11, 101
6, 41636, Control_c, 4, 11, 98
6, 41654, Control_c, 4, 11, 95
6, 41672, Control_c, 4, 11, 92
6, 41688, Note_on_c, 4, 67, 0
6, 41690, Control_c, 4, 11, 89
6, 41703, Note_on_c, 4, 67, 105
6, 41763, Note_on_c, 4, 67, 0
6, 41763, Note_on_c, 4, 67, 105
6, 41823, Note_on_c, 4, 67, 0
6, 42063, Control_c, 4, 11, 107
6, 42063, Note_on_c, 4, 62, 105
6, 42080, Control_c, 4, 11, 104
6, 42098, Control_c, 4, 11, 101
6, 42116, Control_c, 4, 11, 98
6, 42134, Control_c, 4, 11, 95
6, 42152, Control_c, 4, 11, 92
6, 42170, Control_c, 4, 11, 89
6, 42173, Note_on_c, 4, 62, 0
6, 42183, Note_on_c, 4, 62, 105
6, 42243, Note_on_c, 4, 62, 0
6, 42243, Note_on_c, 4, 55, 105
6, 42243, Control_c, 4, 11, 107
6, 42260, Control_c, 4, 11, 104
6, 42278, Control_c, 4, 11, 101
6, 42296, Control_c, 4, 11, 98
6, 42314, Control_c, 4, 11, 95
6, 42332, Control_c, 4, 11, 92
6, 42350, Control_c, 4, 11, 89
6, 42603, Note_on_c, 4, 55, 0
6, 42603, Note_on_c, 4, 55, 105
6, 42663, Note_on_c, 4, 55, 0
6, 42663, Note_on_c, 4, 55, 105
6, 42723, Note_on_c, 4, 55, 0
6, 42723, Note_on_c, 4, 55, 105
6, 42723, Control_c, 4, 11, 107
6, 42740, Control_c, 4, 11, 104
6, 42758, Control_c, 4, 11, 101
6, 42776, Control_c, 4, 11, 98
6, 42794, Control_c, 4, 11, 95
6, 42812, Control_c, 4, 11, 92
6, 42830, Control_c, 4, 11, 89
6, 43083, Note_on_c, 4, 55, 0
6, 43083, Note_on_c, 4, 55, 105
6, 43143, Note_on_c, 4, 55, 0
6, 43143, Note_on_c, 4, 55, 105
6, 43203, Note_on_c, 4, 55, 0
6, 43203, Note_on_c, 4, 55, 105
6, 43203, Control_c, 4, 11, 107
6, 43220, Control_c, 4, 11, 104
6, 43238, Control_c, 4, 11, 101
6, 43256, Control_c, 4, 11, 98
6, 43274, Control_c, 4, 11, 95
6, 43292, Control_c, 4, 11, 92
6, 43310, Control_c, 4, 11, 89
6, 43563, Note_on_c, 4, 55, 0
6, 43563, Note_on_c, 4, 55, 105
6, 43623, Note_on_c, 4, 55, 0
6, 43623, Note_on_c, 4, 55, 105
6, 43683, Note_on_c, 4, 55, 0
6, 43683, Note_on_c, 4, 55, 105
6, 43683, Control_c, 4, 11, 107
6, 43700, Control_c, 4, 11, 104
6, 43718, Control_c, 4, 11, 101
6, 43736, Control_c, 4, 11, 98
6, 43754, Control_c, 4, 11, 95
6, 43772, Control_c, 4, 11, 92
6, 43790, Control_c, 4, 11, 89
6, 44043, Note_on_c, 4, 55, 0
6, 44043, Note_on_c, 4, 55, 105
6, 44103, Note_on_c, 4, 55, 0
6, 44103, Note_on_c, 4, 55, 105
6, 44163, Note_on_c, 4, 55, 0
6, 44163, Note_on_c, 4, 55, 105
6, 44163, Control_c, 4, 11, 107
6, 44180, Control_c, 4, 11, 104
6, 44198, Control_c, 4, 11, 101
6, 44216, Control_c, 4, 11, 98
6, 44234, Control_c, 4, 11, 95
6, 44252, Control_c, 4, 11, 92
6, 44270, Control_c, 4, 11, 89
6, 44343, Note_on_c, 4, 55, 0
6, 44343, Note_on_c, 4, 55, 105
6, 44403, Note_on_c, 4, 55, 0
6, 44403, Note_on_c, 4, 55, 105
6, 44403, Control_c, 4, 11, 107
6, 44420, Control_c, 4, 11, 104
6, 44438, Control_c, 4, 11, 101
6, 44456, Control_c, 4, 11, 98
6, 44474, Control_c, 4, 11, 95
6, 44492, Control_c, 4, 11, 92
6, 44510, Control_c, 4, 11, 89
6, 44583, Note_on_c, 4, 55, 0
6, 44583, Note_on_c, 4, 55, 105
6, 44643, Note_on_c, 4, 55, 0
6, 44643, Note_on_c, 4, 55, 95
6, 44718, Control_c, 4, 11, 87
6, 44722, Control_c, 4, 11, 84
6, 44726, Control_c, 4, 11, 81
6, 44731, Control_c, 4, 11, 78
6, 44735, Control_c, 4, 11, 75
6, 44740, Control_c, 4, 11, 72
6, 44744, Control_c, 4, 11, 69
6, 44748, Control_c, 4, 11, 66
6, 44753, Control_c, 4, 11, 63
6, 44757, Control_c, 4, 11, 60
6, 44762, Control_c, 4, 11, 57
6, 44763, Note_on_c, 4, 55, 0
6, 53283, Control_c, 4, 11, 47
6, 53283, Note_on_c, 4, 62, 105
6, 53763, Note_on_c, 4, 62, 0
6, 53763, Note_on_c, 4, 67, 105
6, 54243, Note_on_c, 4, 67, 0
6, 54243, Note_on_c, 4, 60, 105
6, 54843, Note_on_c, 4, 60, 0
6, 55203, Control_c, 4, 11, 87
6, 55203, Note_on_c, 4, 67, 105
6, 55443, Note_on_c, 4, 67, 0
6, 55443, Note_on_c, 4, 67, 105
6, 55563, Note_on_c, 4, 67, 0
6, 55563, Note_on_c, 4, 67, 105
6, 55683, Note_on_c, 4, 67, 0
6, 55683, Note_on_c, 4, 67, 105
6, 55923, Note_on_c, 4, 67, 0
6, 55923, Note_on_c, 4, 67, 105
6, 56043, Note_on_c, 4, 67, 0
6, 56043, Note_on_c, 4, 67, 105
6, 56163, Note_on_c, 4, 67, 0
6, 56163, Control_c, 4, 11, 102
6, 56163, Note_on_c, 4, 67, 105
6, 56403, Note_on_c, 4, 67, 0
6, 56403, Note_on_c, 4, 67, 105
6, 56523, Note_on_c, 4, 67, 0
6, 56523, Note_on_c, 4, 67, 105
6, 56643, Note_on_c, 4, 67, 0
6, 56643, Note_on_c, 4, 67, 105
6, 56883, Note_on_c, 4, 67, 0
6, 56883, Note_on_c, 4, 67, 105
6, 57003, Note_on_c, 4, 67, 0
6, 57003, Note_on_c, 4, 67, 105
6, 57123, Note_on_c, 4, 67, 0
6, 57123, Note_on_c, 4, 67, 105
6, 57243, Note_on_c, 4, 67, 0
6, 57243, Note_on_c, 4, 55, 105
6, 57243, Control_c, 4, 11, 122
6, 57260, Control_c, 4, 11, 119
6, 57278, Control_c, 4, 11, 116
6, 57296, Control_c, 4, 11, 113
6, 57314, Control_c, 4, 11, 110
6, 57332, Control_c, 4, 11, 107
6, 57350, Control_c, 4, 11, 104
6, 57723, Note_on_c, 4, 55, 0
6, 57723, Control_c, 4, 11, 122
6, 57723, Note_on_c, 4, 55, 105
6, 57740, Control_c, 4, 11, 119
6, 57758, Control_c, 4, 11, 116
6, 57776, Control_c, 4, 11, 113
6, 57794, Control_c, 4, 11, 110
6, 57812, Control_c, 4, 11, 107
6, 57830, Control_c, 4, 11, 104
6, 58203, Note_on_c, 4, 55, 0
6, 58203, Control_c, 4, 11, 122
6, 58203, Note_on_c, 4, 55, 105
6, 58220, Control_c, 4, 11, 119
6, 58238, Control_c, 4, 11, 116
6, 58256, Control_c, 4, 11, 113
6, 58274, Control_c, 4, 11, 110
6, 58292, Control_c, 4, 11, 107
6, 58310, Control_c, 4, 11, 104
6, 58683, Note_on_c, 4, 55, 0
6, 58683, Note_on_c, 4, 55, 105
6, 58683, Control_c, 4, 11, 122
6, 58700, Control_c, 4, 11, 119
6, 58718, Control_c, 4, 11, 116
6, 58736, Control_c, 4, 11, 113
6, 58754, Control_c, 4, 11, 110
6, 58772, Control_c, 4, 11, 107
6, 58790, Control_c, 4, 11, 104
6, 59163, Note_on_c, 4, 55, 0
6, 59163, Control_c, 4, 11, 122
6, 59163, Note_on_c, 4, 55, 105
6, 59180, Control_c, 4, 11, 119
6, 59198, Control_c, 4, 11, 116
6, 59216, Control_c, 4, 11, 113
6, 59234, Control_c, 4, 11, 110
6, 59252, Control_c, 4, 11, 107
6, 59270, Control_c, 4, 11, 104
6, 59283, Note_on_c, 4, 55, 0
6, 59403, Note_on_c, 4, 55, 105
6, 59403, Control_c, 4, 11, 122
6, 59420, Control_c, 4, 11, 119
6, 59438, Control_c, 4, 11, 116
6, 59456, Control_c, 4, 11, 113
6, 59474, Control_c, 4, 11, 110
6, 59492, Control_c, 4, 11, 107
6, 59510, Control_c, 4, 11, 104
6, 59523, Note_on_c, 4, 55, 0
6, 59643, Note_on_c, 4, 55, 105
6, 59643, Control_c, 4, 11, 122
6, 59660, Control_c, 4, 11, 119
6, 59678, Control_c, 4, 11, 116
6, 59696, Control_c, 4, 11, 113
6, 59714, Control_c, 4, 11, 110
6, 59732, Control_c, 4, 11, 107
6, 59750, Control_c, 4, 11, 104
6, 59763, Note_on_c, 4, 55, 0
6, 59883, Control_c, 4, 11, 122
6, 59883, Note_on_c, 4, 55, 105
6, 59900, Control_c, 4, 11, 119
6, 59918, Control_c, 4, 11, 116
6, 59936, Control_c, 4, 11, 113
6, 59954, Control_c, 4, 11, 110
6, 59972, Control_c, 4, 11, 107
6, 59990, Control_c, 4, 11, 104
6, 60003, Note_on_c, 4, 55, 0
6, 60003, Note_on_c, 4, 55, 105
6, 60123, Note_on_c, 4, 55, 0
6, 64083, Control_c, 4, 11, 47
6, 64083, Note_on_c, 4, 60, 95
6, 64143, Note_on_c, 4, 60, 0
6, 64203, Note_on_c, 4, 62, 100
6, 64263, Note_on_c, 4, 62, 0
6, 64323, Note_on_c, 4, 60, 105
6, 64383, Note_on_c, 4, 60, 0
6, 65583, Note_on_c, 4, 62, 105
6, 65583, Control_c, 4, 11, 87
6, 65643, Note_on_c, 4, 62, 0
6, 65643, Note_on_c, 4, 62, 105
6, 65703, Note_on_c, 4, 62, 0
6, 65703, Note_on_c, 4, 62, 105
6, 65763, Note_on_c, 4, 62, 0
6, 65763, Note_on_c, 4, 62, 105
6, 65943, Note_on_c, 4, 62, 0
6, 66063, Note_on_c, 4, 60, 105
6, 66123, Note_on_c, 4, 60, 0
6, 66123, Note_on_c, 4, 60, 105
6, 66183, Note_on_c, 4, 60, 0
6, 66183, Note_on_c, 4, 60, 105
6, 66243, Note_on_c, 4, 60, 0
6, 66243, Note_on_c, 4, 60, 105
6, 66423, Note_on_c, 4, 60, 0
6, 66543, Note_on_c, 4, 60, 105
6, 66603, Note_on_c, 4, 60, 0
6, 66603, Note_on_c, 4, 60, 105
6, 66663, Note_on_c, 4, 60, 0
6, 66663, Note_on_c, 4, 60, 105
6, 66723, Note_on_c, 4, 60, 0
6, 66723, Note_on_c, 4, 62, 105
6, 66963, Note_on_c, 4, 62, 0
6, 66963, Note_on_c, 4, 67, 105
6, 67203, Note_on_c, 4, 67, 0
6, 67203, Note_on_c, 4, 60, 90
6, 67323, Note_on_c, 4, 60, 0
6, 67683, Control_c, 4, 11, 47
6, 67683, Note_on_c, 4, 60, 105
6, 69243, Note_on_c, 4, 60, 0
6, 69603, Note_on_c, 4, 67, 105
6, 70563, Control_c, 4, 11, 47
6, 70593, Control_c, 4, 11, 48
6, 70623, Control_c, 4, 11, 49
6, 70653, Control_c, 4, 11, 50
6, 70683, Control_c, 4, 11, 51
6, 70713, Control_c, 4, 11, 52
6, 70743, Control_c, 4, 11, 53
6, 70773, Control_c, 4, 11, 54
6, 70803, Control_c, 4, 11, 55
6, 70833, Control_c, 4, 11, 56
6, 70863, Control_c, 4, 11, 57
6, 70893, Control_c, 4, 11, 58
6, 70923, Control_c, 4, 11, 59
6, 70953, Control_c, 4, 11, 60
6, 70983, Control_c, 4, 11, 61
6, 71013, Control_c, 4, 11, 62
6, 71043, Control_c, 4, 11, 63
6, 71073, Control_c, 4, 11, 64
6, 71103, Control_c, 4, 11, 65
6, 71133, Control_c, 4, 11, 66
6, 71163, Note_on_c, 4, 67, 0
6, 71163, Control_c, 4, 11, 67
6, 71193, Control_c, 4, 11, 68
6, 71223, Control_c, 4, 11, 69
6, 71253, Control_c, 4, 11, 70
6, 71283, Control_c, 4, 11, 71
6, 71283, Note_on_c, 4, 60, 105
6, 71313, Control_c, 4, 11, 72
6, 71343, Control_c, 4, 11, 73
6, 71373, Control_c, 4, 11, 74
6, 71403, Control_c, 4, 11, 75
6, 71433, Control_c, 4, 11, 76
6, 71463, Control_c, 4, 11, 77
6, 71493, Control_c, 4, 11, 78
6, 71523, Control_c, 4, 11, 79
6, 71553, Control_c, 4, 11, 80
6, 71583, Control_c, 4, 11, 81
6, 71613, Control_c, 4, 11, 82
6, 71643, Control_c, 4, 11, 83
6, 71673, Control_c, 4, 11, 84
6, 71703, Control_c, 4, 11, 85
6, 71733, Control_c, 4, 11, 86
6, 71763, Control_c, 4, 11, 87
6, 72003, Note_on_c, 4, 60, 0
6, 73983, Note_on_c, 4, 67, 105
6, 73983, Control_c, 4, 11, 122
6, 74001, Control_c, 4, 11, 119
6, 74019, Control_c, 4, 11, 116
6, 74037, Control_c, 4, 11, 113
6, 74055, Control_c, 4, 11, 110
6, 74073, Control_c, 4, 11, 107
6, 74088, Note_on_c, 4, 67, 0
6, 74091, Control_c, 4, 11, 104
6, 74103, Note_on_c, 4, 67, 105
6, 74163, Note_on_c, 4, 67, 0
6, 74163, Note_on_c, 4, 64, 105
6, 74223, Note_on_c, 4, 64, 0
6, 74943, Note_on_c, 4, 67, 105
6, 74943, Control_c, 4, 11, 122
6, 74961, Control_c, 4, 11, 119
6, 74979, Control_c, 4, 11, 116
6, 74997, Control_c, 4, 11, 113
6, 75015, Control_c, 4, 11, 110
6, 75033, Control_c, 4, 11, 107
6, 75048, Note_on_c, 4, 67, 0
6, 75051, Control_c, 4, 11, 104
6, 75063, Note_on_c, 4, 67, 105
6, 75123, Note_on_c, 4, 67, 0
6, 75123, Note_on_c, 4, 64, 105
6, 75183, Note_on_c, 4, 64, 0
6, 75843, Note_on_c, 4, 60, 105
6, 75843, Control_c, 4, 11, 102
6, 76193, Note_on_c, 4, 60, 0
6, 76203, Note_on_c, 4, 60, 105
6, 76251, Note_on_c, 4, 60, 0
6, 76263, Note_on_c, 4, 60, 105
6, 76311, Note_on_c, 4, 60, 0
6, 76323, Note_on_c, 4, 60, 105
6, 76323, Control_c, 4, 11, 122
6, 76341, Control_c, 4, 11, 119
6, 76359, Control_c, 4, 11, 116
6, 76377, Control_c, 4, 11, 113
6, 76395, Control_c, 4, 11, 110
6, 76413, Control_c, 4, 11, 107
6, 76431, Control_c, 4, 11, 104
6, 76673, Note_on_c, 4, 60, 0
6, 76683, Note_on_c, 4, 60, 105
6, 76731, Note_on_c, 4, 60, 0
6, 76743, Note_on_c, 4, 60, 105
6, 76791, Note_on_c, 4, 60, 0
6, 76803, Note_on_c, 4, 60, 105
6, 76803, Control_c, 4, 11, 122
6, 76821, Control_c, 4, 11, 119
6, 76839, Control_c, 4, 11, 116
6, 76857, Control_c, 4, 11, 113
6, 76875, Control_c, 4, 11, 110
6, 76893, Control_c, 4, 11, 107
6, 76911, Control_c, 4, 11, 104
6, 77153, Note_on_c, 4, 60, 0
6, 77163, Note_on_c, 4, 60, 105
6, 77211, Note_on_c, 4, 60, 0
6, 77223, Note_on_c, 4, 60, 105
6, 77271, Note_on_c, 4, 60, 0
6, 77283, Note_on_c, 4, 60, 105
6, 77488, Note_on_c, 4, 60, 0
6, 77493, Note_on_c, 4, 60, 105
6, 77518, Note_on_c, 4, 60, 0
6, 77523, Note_on_c, 4, 60, 105
6, 77728, Note_on_c, 4, 60, 0
6, 77733, Note_on_c, 4, 60, 105
6, 77758, Note_on_c, 4, 60, 0
6, 77763, Note_on_c, 4, 60, 105
6, 77823, Note_on_c, 4, 60, 0
6, 77883, Note_on_c, 4, 60, 105
6, 77883, Control_c, 4, 11, 122
6, 77901, Control_c, 4, 11, 119
6, 77919, Control_c, 4, 11, 116
6, 77937, Control_c, 4, 11, 113
6, 77955, Control_c, 4, 11, 110
6, 77973, Control_c, 4, 11, 107
6, 77991, Control_c, 4, 11, 104
6, 78198, Control_c, 4, 11, 102
6, 78199, Control_c, 4, 11, 99
6, 78201, Control_c, 4, 11, 95
6, 78202, Control_c, 4, 11, 92
6, 78204, Control_c, 4, 11, 88
6, 78205, Control_c, 4, 11, 85
6, 78207, Control_c, 4, 11, 81
6, 78208, Control_c, 4, 11, 78
6, 78210, Control_c, 4, 11, 74
6, 78211, Control_c, 4, 11, 71
6, 78213, Note_on_c, 4, 60, 0
6, 78213, Control_c, 4, 11, 67
6, 78243, Note_on_c, 4, 62, 105
6, 78243, Control_c, 4, 11, 102
6, 78303, Note_on_c, 4, 62, 0
6, 78363, Control_c, 4, 11, 122
6, 78363, Note_on_c, 4, 67, 105
6, 78381, Control_c, 4, 11, 119
6, 78399, Control_c, 4, 11, 116
6, 78417, Control_c, 4, 11, 113
6, 78435, Control_c, 4, 11, 110
6, 78453, Control_c, 4, 11, 107
6, 78471, Control_c, 4, 11, 104
6, 78613, Control_c, 4, 11, 102
6, 78615, Control_c, 4, 11, 98
6, 78617, Control_c, 4, 11, 95
6, 78619, Control_c, 4, 11, 91
6, 78621, Control_c, 4, 11, 88
6, 78623, Control_c, 4, 11, 84
6, 78625, Control_c, 4, 11, 81
6, 78627, Control_c, 4, 11, 77
6, 78629, Control_c, 4, 11, 74
6, 78631, Control_c, 4, 11, 70
6, 78633, Note_on_c, 4, 67, 0
6, 78633, Control_c, 4, 11, 67
6, 84183, Note_on_c, 4, 65, 115
6, 84183, Control_c, 4, 11, 102
6, 84243, Note_on_c, 4, 65, 0
6, 84243, Note_on_c, 4, 62, 115
6, 84303, Note_on_c, 4, 62, 0
6, 84303, Note_on_c, 4, 62, 115
6, 84363, Note_on_c, 4, 62, 0
6, 84363, Note_on_c, 4, 62, 115
6, 84423, Note_on_c, 4, 62, 0
6, 84423, Note_on_c, 4, 62, 115
6, 84483, Note_on_c, 4, 62, 0
6, 84483, Note_on_c, 4, 62, 115
6, 84603, Note_on_c, 4, 62, 0
6, 84603, Note_on_c, 4, 60, 115
6, 84663, Note_on_c, 4, 60, 0
6, 84663, Note_on_c, 4, 60, 115
6, 84693, Note_on_c, 4, 60, 0
6, 84723, Note_on_c, 4, 60, 115
6, 84783, Note_on_c, 4, 60, 0
6, 84783, Note_on_c, 4, 60, 115
6, 84843, Note_on_c, 4, 60, 0
6, 84843, Note_on_c, 4, 60, 115
6, 84903, Note_on_c, 4, 60, 0
6, 84903, Note_on_c, 4, 60, 115
6, 84963, Note_on_c, 4, 60, 0
6, 84963, Note_on_c, 4, 65, 115
6, 85083, Note_on_c, 4, 65, 0
6, 85083, Note_on_c, 4, 65, 115
6, 85203, Note_on_c, 4, 65, 0
6, 85203, Note_on_c, 4, 64, 115
6, 85323, Note_on_c, 4, 64, 0
6, 85323, Note_on_c, 4, 62, 115
6, 85443, Note_on_c, 4, 62, 0
6, 85443, Note_on_c, 4, 60, 115
6, 85443, Control_c, 4, 11, 87
6, 85553, Note_on_c, 4, 60, 0
6, 85563, Note_on_c, 4, 60, 105
6, 85643, Note_on_c, 4, 60, 0
6, 85653, Note_on_c, 4, 60, 105
6, 85673, Note_on_c, 4, 60, 0
6, 85683, Control_c, 4, 11, 107
6, 85683, Note_on_c, 4, 62, 105
6, 85701, Control_c, 4, 11, 104
6, 85719, Control_c, 4, 11, 101
6, 85737, Control_c, 4, 11, 98
6, 85755, Control_c, 4, 11, 95
6, 85773, Control_c, 4, 11, 92
6, 85791, Control_c, 4, 11, 89
6, 85803, Note_on_c, 4, 62, 0
6, 85803, Note_on_c, 4, 60, 105
6, 85863, Note_on_c, 4, 60, 0
6, 85923, Note_on_c, 4, 64, 105
6, 86033, Note_on_c, 4, 64, 0
6, 86043, Note_on_c, 4, 64, 105
6, 86123, Note_on_c, 4, 64, 0
6, 86133, Note_on_c, 4, 64, 105
6, 86153, Note_on_c, 4, 64, 0
6, 86163, Note_on_c, 4, 62, 105
6, 86163, Control_c, 4, 11, 107
6, 86181, Control_c, 4, 11, 104
6, 86199, Control_c, 4, 11, 101
6, 86217, Control_c, 4, 11, 98
6, 86235, Control_c, 4, 11, 95
6, 86253, Control_c, 4, 11, 92
6, 86271, Control_c, 4, 11, 89
6, 86283, Note_on_c, 4, 62, 0
6, 86283, Note_on_c, 4, 64, 105
6, 86343, Note_on_c, 4, 64, 0
6, 86403, Control_c, 4, 11, 47
6, 86403, Note_on_c, 4, 64, 105
6, 86513, Note_on_c, 4, 64, 0
6, 86523, Note_on_c, 4, 64, 105
6, 86603, Note_on_c, 4, 64, 0
6, 86613, Note_on_c, 4, 64, 105
6, 86633, Note_on_c, 4, 64, 0
6, 86643, Note_on_c, 4, 65, 105
6, 86703, Note_on_c, 4, 65, 0
6, 86883, Note_on_c, 4, 62, 105
6, 86943, Note_on_c, 4, 62, 0
6, 87123, Note_on_c, 4, 64, 105
6, 87183, Note_on_c, 4, 64, 0
6, 87363, Note_on_c, 4, 60, 105
6, 87473, Note_on_c, 4, 60, 0
6, 87483, Note_on_c, 4, 60, 105
6, 87563, Note_on_c, 4, 60, 0
6, 87573, Note_on_c, 4, 60, 105
6, 87593, Note_on_c, 4, 60, 0
6, 87603, Note_on_c, 4, 62, 105
6, 87723, Note_on_c, 4, 62, 0
6, 87723, Note_on_c, 4, 60, 105
6, 87783, Note_on_c, 4, 60, 0
6, 87843, Note_on_c, 4, 64, 105
6, 87953, Note_on_c, 4, 64, 0
6, 87963, Note_on_c, 4, 64, 105
6, 88043, Note_on_c, 4, 64, 0
6, 88053, Note_on_c, 4, 64, 105
6, 88073, Note_on_c, 4, 64, 0
6, 88083, Note_on_c, 4, 62, 105
6, 88203, Note_on_c, 4, 62, 0
6, 88203, Note_on_c, 4, 64, 105
6, 88263, Note_on_c, 4, 64, 0
6, 88323, Note_on_c, 4, 64, 105
6, 88433, Note_on_c, 4, 64, 0
6, 88443, Note_on_c, 4, 64, 105
6, 88523, Note_on_c, 4, 64, 0
6, 88533, Note_on_c, 4, 64, 105
6, 88553, Note_on_c, 4, 64, 0
6, 88563, Note_on_c, 4, 65, 105
6, 88623, Note_on_c, 4, 65, 0
6, 88683, Note_on_c, 4, 65, 105
6, 88743, Note_on_c, 4, 65, 0
6, 88923, Note_on_c, 4, 62, 105
6, 88983, Note_on_c, 4, 62, 0
6, 89163, Note_on_c, 4, 64, 105
6, 89223, Note_on_c, 4, 64, 0
6, 89403, Note_on_c, 4, 64, 105
6, 89493, Note_on_c, 4, 64, 0
6, 89493, Note_on_c, 4, 64, 105
6, 89523, Note_on_c, 4, 64, 0
6, 89523, Note_on_c, 4, 65, 105
6, 89523, Control_c, 4, 11, 47
6, 89540, Control_c, 4, 11, 48
6, 89557, Control_c, 4, 11, 49
6, 89575, Control_c, 4, 11, 50
6, 89583, Note_on_c, 4, 65, 0
6, 89592, Control_c, 4, 11, 51
6, 89610, Control_c, 4, 11, 52
6, 89627, Control_c, 4, 11, 53
6, 89643, Note_on_c, 4, 65, 105
6, 89645, Control_c, 4, 11, 54
6, 89662, Control_c, 4, 11, 55
6, 89680, Control_c, 4, 11, 56
6, 89697, Control_c, 4, 11, 57
6, 89703, Note_on_c, 4, 65, 0
6, 89715, Control_c, 4, 11, 58
6, 89732, Control_c, 4, 11, 59
6, 89749, Control_c, 4, 11, 60
6, 89767, Control_c, 4, 11, 61
6, 89784, Control_c, 4, 11, 62
6, 89802, Control_c, 4, 11, 63
6, 89819, Control_c, 4, 11, 64
6, 89837, Control_c, 4, 11, 65
6, 89854, Control_c, 4, 11, 66
6, 89872, Control_c, 4, 11, 67
6, 89883, Note_on_c, 4, 62, 105
6, 89889, Control_c, 4, 11, 68
6, 89907, Control_c, 4, 11, 69
6, 89924, Control_c, 4, 11, 70
6, 89941, Control_c, 4, 11, 71
6, 89943, Note_on_c, 4, 62, 0
6, 89959, Control_c, 4, 11, 72
6, 89976, Control_c, 4, 11, 73
6, 89994, Control_c, 4, 11, 74
6, 90011, Control_c, 4, 11, 75
6, 90029, Control_c, 4, 11, 76
6, 90046, Control_c, 4, 11, 77
6, 90064, Control_c, 4, 11, 78
6, 90081, Control_c, 4, 11, 79
6, 90099, Control_c, 4, 11, 80
6, 90116, Control_c, 4, 11, 81
6, 90123, Note_on_c, 4, 64, 105
6, 90133, Control_c, 4, 11, 82
6, 90151, Control_c, 4, 11, 83
6, 90168, Control_c, 4, 11, 84
6, 90183, Note_on_c, 4, 64, 0
6, 90183, Note_on_c, 4, 64, 105
6, 90186, Control_c, 4, 11, 85
6, 90203, Control_c, 4, 11, 86
6, 90221, Control_c, 4, 11, 87
6, 90238, Control_c, 4, 11, 88
6, 90243, Note_on_c, 4, 64, 0
6, 90243, Note_on_c, 4, 64, 105
6, 90256, Control_c, 4, 11, 89
6, 90273, Control_c, 4, 11, 90
6, 90291, Control_c, 4, 11, 91
6, 90303, Note_on_c, 4, 64, 0
6, 90303, Note_on_c, 4, 64, 105
6, 90308, Control_c, 4, 11, 92
6, 90325, Control_c, 4, 11, 93
6, 90343, Control_c, 4, 11, 94
6, 90360, Control_c, 4, 11, 95
6, 90363, Note_on_c, 4, 64, 0
6, 90363, Note_on_c, 4, 64, 105
6, 90378, Control_c, 4, 11, 96
6, 90395, Control_c, 4, 11, 97
6, 90413, Control_c, 4, 11, 98
6, 90423, Note_on_c, 4, 64, 0
6, 90423, Note_on_c, 4, 64, 105
6, 90430, Control_c, 4, 11, 99
6, 90448, Control_c, 4, 11, 100
6, 90465, Control_c, 4, 11, 101
6, 90483, Note_on_c, 4, 64, 0
6, 90483, Control_c, 4, 11, 102
6, 90483, Note_on_c, 4, 65, 105
6, 90723, Note_on_c, 4, 65, 0
6, 90723, Note_on_c, 4, 62, 105
6, 90963, Note_on_c, 4, 62, 0
6, 90963, Note_on_c, 4, 60, 105
6, 90963, Control_c, 4, 11, 122
6, 90981, Control_c, 4, 11, 119
6, 90999, Control_c, 4, 11, 116
6, 91017, Control_c, 4, 11, 113
6, 91035, Control_c, 4, 11, 110
6, 91053, Control_c, 4, 11, 107
6, 91071, Control_c, 4, 11, 104
6, 91323, Note_on_c, 4, 60, 0
6, 91323, Note_on_c, 4, 60, 105
6, 91353, Note_on_c, 4, 60, 0
6, 91383, Note_on_c, 4, 60, 105
6, 91413, Note_on_c, 4, 60, 0
6, 91443, Control_c, 4, 11, 122
6, 91443, Note_on_c, 4, 64, 105
6, 91461, Control_c, 4, 11, 119
6, 91479, Control_c, 4, 11, 116
6, 91497, Control_c, 4, 11, 113
6, 91515, Control_c, 4, 11, 110
6, 91533, Control_c, 4, 11, 107
6, 91551, Control_c, 4, 11, 104
6, 91803, Note_on_c, 4, 64, 0
6, 91803, Note_on_c, 4, 64, 105
6, 91833, Note_on_c, 4, 64, 0
6, 91863, Note_on_c, 4, 64, 105
6, 91893, Note_on_c, 4, 64, 0
6, 91923, Note_on_c, 4, 67, 105
6, 91923, Control_c, 4, 11, 112
6, 91941, Control_c, 4, 11, 109
6, 91959, Control_c, 4, 11, 106
6, 91977, Control_c, 4, 11, 103
6, 92163, Note_on_c, 4, 67, 0
6, 92163, Note_on_c, 4, 64, 105
6, 92223, Note_on_c, 4, 64, 0
6, 92283, Note_on_c, 4, 72, 105
6, 92343, Note_on_c, 4, 72, 0
6, 92403, Note_on_c, 4, 67, 105
6, 92463, Note_on_c, 4, 67, 0
6, 92523, Note_on_c, 4, 64, 105
6, 92583, Note_on_c, 4, 64, 0
6, 92643, Note_on_c, 4, 60, 105
6, 92703, Note_on_c, 4, 60, 0
6, 92763, Note_on_c, 4, 55, 105
6, 92823, Note_on_c, 4, 55, 0
6, 92883, Note_on_c, 4, 60, 105
6, 92979, Note_on_c, 4, 60, 0
6, 93123, Note_on_c, 4, 62, 105
6, 93219, Note_on_c, 4, 62, 0
6, 93363, Note_on_c, 4, 64, 105
6, 93459, Note_on_c, 4, 64, 0
6, 93603, Note_on_c, 4, 62, 105
6, 93699, Note_on_c, 4, 62, 0
6, 93843, Note_on_c, 4, 60, 105
6, 93939, Note_on_c, 4, 60, 0
6, 94083, Note_on_c, 4, 60, 115
6, 94185, Note_on_c, 4, 60, 0
6, 94323, Note_on_c, 4, 60, 105
6, 94443, Note_on_c, 4, 60, 0
6, 94563, Control_c, 4, 121, 0
6, 94563, End_track
7, 0, Start_track
7, 0, MIDI_port, 0
7, 0, Title_t, "Corno II in C"
7, 0, Program_c, 5, 60
7, 0, Control_c, 5, 10, 28
7, 5, Control_c, 5, 121, 0
7, 10, Program_c, 5, 60
7, 15, Pitch_bend_c, 5, 8092
7, 20, Control_c, 5, 11, 102
7, 25, Control_c, 5, 7, 127
7, 30, Control_c, 5, 91, 80
7, 35, Control_c, 5, 93, 0
7, 40, Control_c, 5, 10, 28
7, 245, Control_c, 5, 11, 72
7, 245, Note_on_c, 5, 55, 105
7, 247, Control_c, 5, 11, 75
7, 249, Control_c, 5, 11, 78
7, 251, Control_c, 5, 11, 81
7, 253, Control_c, 5, 11, 84
7, 255, Control_c, 5, 11, 87
7, 257, Control_c, 5, 11, 90
7, 259, Control_c, 5, 11, 93
7, 261, Control_c, 5, 11, 96
7, 263, Control_c, 5, 11, 99
7, 265, Control_c, 5, 11, 102
7, 380, Control_c, 5, 11, 102
7, 381, Control_c, 5, 11, 98
7, 382, Control_c, 5, 11, 94
7, 383, Control_c, 5, 11, 91
7, 384, Control_c, 5, 11, 87
7, 385, Control_c, 5, 11, 83
7, 386, Control_c, 5, 11, 80
7, 387, Control_c, 5, 11, 76
7, 388, Control_c, 5, 11, 72
7, 389, Control_c, 5, 11, 69
7, 390, Control_c, 5, 11, 65
7, 391, Control_c, 5, 11, 61
7, 392, Control_c, 5, 11, 58
7, 393, Control_c, 5, 11, 54
7, 394, Control_c, 5, 11, 50
7, 395, Note_on_c, 5, 55, 0
7, 395, Control_c, 5, 11, 47
7, 5045, Control_c, 5, 11, 47
7, 5045, Note_on_c, 5, 52, 90
7, 5105, Note_on_c, 5, 52, 0
7, 5165, Note_on_c, 5, 55, 97
7, 5225, Note_on_c, 5, 55, 0
7, 5285, Note_on_c, 5, 52, 105
7, 5345, Note_on_c, 5, 52, 0
7, 6425, Note_on_c, 5, 52, 105
7, 6425, Control_c, 5, 11, 102
7, 6485, Note_on_c, 5, 52, 0
7, 6485, Note_on_c, 5, 52, 105
7, 6545, Note_on_c, 5, 52, 0
7, 6545, Note_on_c, 5, 52, 105
7, 6605, Note_on_c, 5, 52, 0
7, 6605, Note_on_c, 5, 52, 105
7, 6665, Note_on_c, 5, 52, 0
7, 6665, Note_on_c, 5, 52, 105
7, 6725, Note_on_c, 5, 52, 0
7, 6725, Note_on_c, 5, 48, 105
7, 6785, Note_on_c, 5, 48, 0
7, 6845, Note_on_c, 5, 48, 105
7, 6905, Note_on_c, 5, 48, 0
7, 6965, Note_on_c, 5, 52, 105
7, 7025, Note_on_c, 5, 52, 0
7, 7085, Note_on_c, 5, 55, 105
7, 7145, Note_on_c, 5, 55, 0
7, 7205, Note_on_c, 5, 52, 105
7, 7205, Control_c, 5, 11, 87
7, 7445, Note_on_c, 5, 52, 0
7, 7445, Note_on_c, 5, 55, 105
7, 7685, Note_on_c, 5, 55, 0
7, 7685, Note_on_c, 5, 60, 105
7, 7805, Note_on_c, 5, 60, 0
7, 8165, Note_on_c, 5, 52, 105
7, 8405, Note_on_c, 5, 52, 0
7, 8405, Note_on_c, 5, 55, 105
7, 8645, Note_on_c, 5, 55, 0
7, 8645, Note_on_c, 5, 60, 105
7, 8765, Note_on_c, 5, 60, 0
7, 8945, Note_on_c, 5, 55, 105
7, 9005, Note_on_c, 5, 55, 0
7, 9005, Note_on_c, 5, 55, 105
7, 9065, Note_on_c, 5, 55, 0
7, 9065, Note_on_c, 5, 55, 105
7, 9125, Note_on_c, 5, 55, 0
7, 9125, Note_on_c, 5, 52, 105
7, 9185, Note_on_c, 5, 52, 0
7, 9245, Note_on_c, 5, 60, 105
7, 9245, Control_c, 5, 11, 107
7, 9262, Control_c, 5, 11, 104
7, 9280, Control_c, 5, 11, 101
7, 9298, Control_c, 5, 11, 98
7, 9316, Control_c, 5, 11, 95
7, 9334, Control_c, 5, 11, 92
7, 9352, Control_c, 5, 11, 89
7, 9605, Note_on_c, 5, 60, 0
7, 9605, Note_on_c, 5, 62, 105
7, 9725, Note_on_c, 5, 62, 0
7, 9725, Note_on_c, 5, 62, 105
7, 9725, Control_c, 5, 11, 107
7, 9742, Control_c, 5, 11, 104
7, 9760, Control_c, 5, 11, 101
7, 9778, Control_c, 5, 11, 98
7, 9796, Control_c, 5, 11, 95
7, 9814, Control_c, 5, 11, 92
7, 9832, Control_c, 5, 11, 89
7, 10085, Note_on_c, 5, 62, 0
7, 10085, Note_on_c, 5, 48, 105
7, 10205, Note_on_c, 5, 48, 0
7, 10565, Note_on_c, 5, 64, 105
7, 10685, Note_on_c, 5, 64, 0
7, 10805, Note_on_c, 5, 64, 105
7, 10925, Note_on_c, 5, 64, 0
7, 11045, Note_on_c, 5, 62, 105
7, 11645, Note_on_c, 5, 62, 0
7, 11645, Note_on_c, 5, 62, 105
7, 11735, Note_on_c, 5, 62, 0
7, 11765, Note_on_c, 5, 62, 105
7, 11855, Note_on_c, 5, 62, 0
7, 11885, Note_on_c, 5, 62, 105
7, 11975, Note_on_c, 5, 62, 0
7, 12005, Note_on_c, 5, 62, 105
7, 12605, Note_on_c, 5, 62, 0
7, 12605, Note_on_c, 5, 62, 105
7, 12695, Note_on_c, 5, 62, 0
7, 12725, Note_on_c, 5, 62, 105
7, 12815, Note_on_c, 5, 62, 0
7, 12845, Note_on_c, 5, 62, 105
7, 12935, Note_on_c, 5, 62, 0
7, 12965, Note_on_c, 5, 62, 105
7, 13055, Note_on_c, 5, 62, 0
7, 14405, Control_c, 5, 11, 37
7, 14405, Note_on_c, 5, 62, 105
7, 14429, Control_c, 5, 11, 39
7, 14453, Control_c, 5, 11, 41
7, 14477, Control_c, 5, 11, 43
7, 14501, Control_c, 5, 11, 45
7, 14525, Control_c, 5, 11, 47
7, 15605, Control_c, 5, 11, 47
7, 15634, Control_c, 5, 11, 48
7, 15664, Control_c, 5, 11, 49
7, 15694, Control_c, 5, 11, 50
7, 15724, Control_c, 5, 11, 51
7, 15754, Control_c, 5, 11, 52
7, 15784, Control_c, 5, 11, 53
7, 15814, Control_c, 5, 11, 54
7, 15844, Control_c, 5, 11, 55
7, 15874, Control_c, 5, 11, 56
7, 15904, Control_c, 5, 11, 57
7, 15934, Control_c, 5, 11, 58
7, 15964, Control_c, 5, 11, 59
7, 15965, Note_on_c, 5, 62, 0
7, 15965, Note_on_c, 5, 55, 105
7, 15994, Control_c, 5, 11, 60
7, 16024, Control_c, 5, 11, 61
7, 16054, Control_c, 5, 11, 62
7, 16084, Control_c, 5, 11, 63
7, 16114, Control_c, 5, 11, 64
7, 16144, Control_c, 5, 11, 65
7, 16174, Control_c, 5, 11, 66
7, 16204, Control_c, 5, 11, 67
7, 16234, Control_c, 5, 11, 68
7, 16264, Control_c, 5, 11, 69
7, 16294, Control_c, 5, 11, 70
7, 16324, Control_c, 5, 11, 71
7, 16354, Control_c, 5, 11, 72
7, 16384, Control_c, 5, 11, 73
7, 16414, Control_c, 5, 11, 74
7, 16444, Control_c, 5, 11, 75
7, 16474, Control_c, 5, 11, 76
7, 16504, Control_c, 5, 11, 77
7, 16534, Control_c, 5, 11, 78
7, 16564, Control_c, 5, 11, 79
7, 16594, Control_c, 5, 11, 80
7, 16624, Control_c, 5, 11, 81
7, 16654, Control_c, 5, 11, 82
7, 16684, Control_c, 5, 11, 83
7, 16714, Control_c, 5, 11, 84
7, 16744, Control_c, 5, 11, 85
7, 16774, Control_c, 5, 11, 86
7, 16804, Control_c, 5, 11, 87
7, 16805, Note_on_c, 5, 55, 0
7, 18365, Note_on_c, 5, 60, 105
7, 18365, Control_c, 5, 11, 87
7, 18485, Note_on_c, 5, 60, 0
7, 18485, Note_on_c, 5, 62, 105
7, 18605, Note_on_c, 5, 62, 0
7, 18605, Note_on_c, 5, 62, 105
7, 18725, Note_on_c, 5, 62, 0
7, 18725, Note_on_c, 5, 55, 105
7, 18845, Note_on_c, 5, 55, 0
7, 19025, Control_c, 5, 11, 107
7, 19025, Note_on_c, 5, 43, 105
7, 19042, Control_c, 5, 11, 104
7, 19060, Control_c, 5, 11, 101
7, 19078, Control_c, 5, 11, 98
7, 19096, Control_c, 5, 11, 95
7, 19114, Control_c, 5, 11, 92
7, 19130, Note_on_c, 5, 43, 0
7, 19132, Control_c, 5, 11, 89
7, 19145, Note_on_c, 5, 55, 105
7, 19205, Note_on_c, 5, 55, 0
7, 19205, Note_on_c, 5, 55, 105
7, 19265, Note_on_c, 5, 55, 0
7, 19505, Control_c, 5, 11, 107
7, 19505, Note_on_c, 5, 62, 105
7, 19522, Control_c, 5, 11, 104
7, 19540, Control_c, 5, 11, 101
7, 19558, Control_c, 5, 11, 98
7, 19576, Control_c, 5, 11, 95
7, 19594, Control_c, 5, 11, 92
7, 19610, Note_on_c, 5, 62, 0
7, 19612, Control_c, 5, 11, 89
7, 19625, Note_on_c, 5, 62, 105
7, 19685, Note_on_c, 5, 62, 0
7, 19685, Note_on_c, 5, 55, 105
7, 19745, Note_on_c, 5, 55, 0
7, 19985, Note_on_c, 5, 55, 105
7, 19985, Control_c, 5, 11, 107
7, 20002, Control_c, 5, 11, 104
7, 20020, Control_c, 5, 11, 101
7, 20038, Control_c, 5, 11, 98
7, 20056, Control_c, 5, 11, 95
7, 20074, Control_c, 5, 11, 92
7, 20090, Note_on_c, 5, 55, 0
7, 20092, Control_c, 5, 11, 89
7, 20105, Note_on_c, 5, 55, 105
7, 20165, Note_on_c, 5, 55, 0
7, 20165, Note_on_c, 5, 55, 105
7, 20225, Note_on_c, 5, 55, 0
7, 20465, Control_c, 5, 11, 107
7, 20465, Note_on_c, 5, 62, 105
7, 20482, Control_c, 5, 11, 104
7, 20500, Control_c, 5, 11, 101
7, 20518, Control_c, 5, 11, 98
7, 20536, Control_c, 5, 11, 95
7, 20554, Control_c, 5, 11, 92
7, 20570, Note_on_c, 5, 62, 0
7, 20572, Control_c, 5, 11, 89
7, 20585, Note_on_c, 5, 62, 105
7, 20645, Note_on_c, 5, 62, 0
7, 20645, Control_c, 5, 11, 107
7, 20645, Note_on_c, 5, 43, 105
7, 20662, Control_c, 5, 11, 104
7, 20680, Control_c, 5, 11, 101
7, 20698, Control_c, 5, 11, 98
7, 20716, Control_c, 5, 11, 95
7, 20734, Control_c, 5, 11, 92
7, 20752, Control_c, 5, 11, 89
7, 21005, Note_on_c, 5, 43, 0
7, 21005, Note_on_c, 5, 43, 105
7, 21065, Note_on_c, 5, 43, 0
7, 21065, Note_on_c, 5, 43, 105
7, 21125, Note_on_c, 5, 43, 0
7, 21125, Note_on_c, 5, 43, 105
7, 21125, Control_c, 5, 11, 107
7, 21142, Control_c, 5, 11, 104
7, 21160, Control_c, 5, 11, 101
7, 21178, Control_c, 5, 11, 98
7, 21196, Control_c, 5, 11, 95
7, 21214, Control_c, 5, 11, 92
7, 21232, Control_c, 5, 11, 89
7, 21485, Note_on_c, 5, 43, 0
7, 21485, Note_on_c, 5, 43, 105
7, 21545, Note_on_c, 5, 43, 0
7, 21545, Note_on_c, 5, 43, 105
7, 21605, Note_on_c, 5, 43, 0
7, 21605, Control_c, 5, 11, 107
7, 21605, Note_on_c, 5, 43, 105
7, 21622, Control_c, 5, 11, 104
7, 21640, Control_c, 5, 11, 101
7, 21658, Control_c, 5, 11, 98
7, 21676, Control_c, 5, 11, 95
7, 21694, Control_c, 5, 11, 92
7, 21712, Control_c, 5, 11, 89
7, 21965, Note_on_c, 5, 43, 0
7, 21965, Note_on_c, 5, 43, 105
7, 22025, Note_on_c, 5, 43, 0
7, 22025, Note_on_c, 5, 43, 105
7, 22085, Note_on_c, 5, 43, 0
7, 22085, Control_c, 5, 11, 107
7, 22085, Note_on_c, 5, 43, 105
7, 22102, Control_c, 5, 11, 104
7, 22120, Control_c, 5, 11, 101
7, 22138, Control_c, 5, 11, 98
7, 22156, Control_c, 5, 11, 95
7, 22174, Control_c, 5, 11, 92
7, 22192, Control_c, 5, 11, 89
7, 22445, Note_on_c, 5, 43, 0
7, 22445, Note_on_c, 5, 43, 105
7, 22505, Note_on_c, 5, 43, 0
7, 22505, Note_on_c, 5, 43, 105
7, 22565, Note_on_c, 5, 43, 0
7, 22565, Control_c, 5, 11, 107
7, 22565, Note_on_c, 5, 43, 105
7, 22582, Control_c, 5, 11, 104
7, 22600, Control_c, 5, 11, 101
7, 22618, Control_c, 5, 11, 98
7, 22636, Control_c, 5, 11, 95
7, 22654, Control_c, 5, 11, 92
7, 22672, Control_c, 5, 11, 89
7, 22745, Note_on_c, 5, 43, 0
7, 22745, Note_on_c, 5, 43, 105
7, 22805, Note_on_c, 5, 43, 0
7, 22805, Control_c, 5, 11, 107
7, 22805, Note_on_c, 5, 43, 105
7, 22822, Control_c, 5, 11, 104
7, 22840, Control_c, 5, 11, 101
7, 22858, Control_c, 5, 11, 98
7, 22876, Control_c, 5, 11, 95
7, 22894, Control_c, 5, 11, 92
7, 22912, Control_c, 5, 11, 89
7, 22985, Note_on_c, 5, 43, 0
7, 22985, Note_on_c, 5, 43, 105
7, 23045, Note_on_c, 5, 43, 0
7, 23045, Note_on_c, 5, 43, 105
7, 23105, Note_on_c, 5, 43, 0
7, 26645, Control_c, 5, 11, 47
7, 26645, Note_on_c, 5, 52, 90
7, 26705, Note_on_c, 5, 52, 0
7, 26765, Note_on_c, 5, 55, 97
7, 26825, Note_on_c, 5, 55, 0
7, 26885, Note_on_c, 5, 52, 105
7, 26945, Note_on_c, 5, 52, 0
7, 28025, Note_on_c, 5, 52, 105
7, 28025, Control_c, 5, 11, 102
7, 28085, Note_on_c, 5, 52, 0
7, 28085, Note_on_c, 5, 52, 105
7, 28145, Note_on_c, 5, 52, 0
7, 28145, Note_on_c, 5, 52, 105
7, 28205, Note_on_c, 5, 52, 0
7, 28205, Note_on_c, 5, 52, 105
7, 28265, Note_on_c, 5, 52, 0
7, 28265, Note_on_c, 5, 52, 105
7, 28325, Note_on_c, 5, 52, 0
7, 28325, Note_on_c, 5, 48, 105
7, 28385, Note_on_c, 5, 48, 0
7, 28445, Note_on_c, 5, 48, 105
7, 28505, Note_on_c, 5, 48, 0
7, 28565, Note_on_c, 5, 52, 105
7, 28625, Note_on_c, 5, 52, 0
7, 28685, Note_on_c, 5, 55, 105
7, 28745, Note_on_c, 5, 55, 0
7, 28805, Control_c, 5, 11, 87
7, 28805, Note_on_c, 5, 52, 105
7, 29045, Note_on_c, 5, 52, 0
7, 29045, Note_on_c, 5, 55, 105
7, 29285, Note_on_c, 5, 55, 0
7, 29285, Note_on_c, 5, 60, 105
7, 29405, Note_on_c, 5, 60, 0
7, 29765, Note_on_c, 5, 52, 105
7, 30005, Note_on_c, 5, 52, 0
7, 30005, Note_on_c, 5, 55, 105
7, 30245, Note_on_c, 5, 55, 0
7, 30245, Note_on_c, 5, 60, 105
7, 30365, Note_on_c, 5, 60, 0
7, 30545, Note_on_c, 5, 55, 105
7, 30605, Note_on_c, 5, 55, 0
7, 30605, Note_on_c, 5, 55, 105
7, 30665, Note_on_c, 5, 55, 0
7, 30665, Note_on_c, 5, 55, 105
7, 30725, Note_on_c, 5, 55, 0
7, 30725, Note_on_c, 5, 52, 105
7, 30785, Note_on_c, 5, 52, 0
7, 30845, Note_on_c, 5, 60, 105
7, 30845, Control_c, 5, 11, 107
7, 30862, Control_c, 5, 11, 104
7, 30880, Control_c, 5, 11, 101
7, 30898, Control_c, 5, 11, 98
7, 30916, Control_c, 5, 11, 95
7, 30934, Control_c, 5, 11, 92
7, 30952, Control_c, 5, 11, 89
7, 31205, Note_on_c, 5, 60, 0
7, 31205, Note_on_c, 5, 62, 105
7, 31325, Note_on_c, 5, 62, 0
7, 31325, Control_c, 5, 11, 107
7, 31325, Note_on_c, 5, 62, 105
7, 31342, Control_c, 5, 11, 104
7, 31360, Control_c, 5, 11, 101
7, 31378, Control_c, 5, 11, 98
7, 31396, Control_c, 5, 11, 95
7, 31414, Control_c, 5, 11, 92
7, 31432, Control_c, 5, 11, 89
7, 31685, Note_on_c, 5, 62, 0
7, 31685, Note_on_c, 5, 48, 105
7, 31805, Note_on_c, 5, 48, 0
7, 32165, Note_on_c, 5, 64, 105
7, 32285, Note_on_c, 5, 64, 0
7, 32405, Note_on_c, 5, 64, 105
7, 32525, Note_on_c, 5, 64, 0
7, 32645, Note_on_c, 5, 62, 105
7, 33245, Note_on_c, 5, 62, 0
7, 33245, Note_on_c, 5, 62, 105
7, 33335, Note_on_c, 5, 62, 0
7, 33365, Note_on_c, 5, 62, 105
7, 33455, Note_on_c, 5, 62, 0
7, 33485, Note_on_c, 5, 62, 105
7, 33575, Note_on_c, 5, 62, 0
7, 33605, Note_on_c, 5, 62, 105
7, 34205, Note_on_c, 5, 62, 0
7, 34205, Note_on_c, 5, 62, 105
7, 34295, Note_on_c, 5, 62, 0
7, 34325, Note_on_c, 5, 62, 105
7, 34415, Note_on_c, 5, 62, 0
7, 34445, Note_on_c, 5, 62, 105
7, 34535, Note_on_c, 5, 62, 0
7, 34565, Note_on_c, 5, 62, 105
7, 34655, Note_on_c, 5, 62, 0
7, 36005, Control_c, 5, 11, 37
7, 36005, Note_on_c, 5, 62, 105
7, 36029, Control_c, 5, 11, 39
7, 36053, Control_c, 5, 11, 41
7, 36077, Control_c, 5, 11, 43
7, 36101, Control_c, 5, 11, 45
7, 36125, Control_c, 5, 11, 47
7, 37205, Control_c, 5, 11, 47
7, 37234, Control_c, 5, 11, 48
7, 37264, Control_c, 5, 11, 49
7, 37294, Control_c, 5, 11, 50
7, 37324, Control_c, 5, 11, 51
7, 37354, Control_c, 5, 11, 52
7, 37384, Control_c, 5, 11, 53
7, 37414, Control_c, 5, 11, 54
7, 37444, Control_c, 5, 11, 55
7, 37474, Control_c, 5, 11, 56
7, 37504, Control_c, 5, 11, 57
7, 37534, Control_c, 5, 11, 58
7, 37564, Control_c, 5, 11, 59
7, 37565, Note_on_c, 5, 62, 0
7, 37565, Note_on_c, 5, 55, 105
7, 37594, Control_c, 5, 11, 60
7, 37624, Control_c, 5, 11, 61
7, 37654, Control_c, 5, 11, 62
7, 37684, Control_c, 5, 11, 63
7, 37714, Control_c, 5, 11, 64
7, 37744, Control_c, 5, 11, 65
7, 37774, Control_c, 5, 11, 66
7, 37804, Control_c, 5, 11, 67
7, 37834, Control_c, 5, 11, 68
7, 37864, Control_c, 5, 11, 69
7, 37894, Control_c, 5, 11, 70
7, 37924, Control_c, 5, 11, 71
7, 37954, Control_c, 5, 11, 72
7, 37984, Control_c, 5, 11, 73
7, 38014, Control_c, 5, 11, 74
7, 38044, Control_c, 5, 11, 75
7, 38074, Control_c, 5, 11, 76
7, 38104, Control_c, 5, 11, 77
7, 38134, Control_c, 5, 11, 78
7, 38164, Control_c, 5, 11, 79
7, 38194, Control_c, 5, 11, 80
7, 38224, Control_c, 5, 11, 81
7, 38254, Control_c, 5, 11, 82
7, 38284, Control_c, 5, 11, 83
7, 38314, Control_c, 5, 11, 84
7, 38344, Control_c, 5, 11, 85
7, 38374, Control_c, 5, 11, 86
7, 38404, Control_c, 5, 11, 87
7, 38405, Note_on_c, 5, 55, 0
7, 39965, Note_on_c, 5, 60, 105
7, 39965, Control_c, 5, 11, 87
7, 40085, Note_on_c, 5, 60, 0
7, 40085, Note_on_c, 5, 62, 105
7, 40205, Note_on_c, 5, 62, 0
7, 40205, Note_on_c, 5, 62, 105
7, 40325, Note_on_c, 5, 62, 0
7, 40325, Note_on_c, 5, 55, 105
7, 40445, Note_on_c, 5, 55, 0
7, 40625, Control_c, 5, 11, 107
7, 40625, Note_on_c, 5, 43, 105
7, 40642, Control_c, 5, 11, 104
7, 40660, Control_c, 5, 11, 101
7, 40678, Control_c, 5, 11, 98
7, 40696, Control_c, 5, 11, 95
7, 40714, Control_c, 5, 11, 92
7, 40730, Note_on_c, 5, 43, 0
7, 40732, Control_c, 5, 11, 89
7, 40745, Note_on_c, 5, 55, 105
7, 40805, Note_on_c, 5, 55, 0
7, 40805, Note_on_c, 5, 55, 105
7, 40865, Note_on_c, 5, 55, 0
7, 41105, Control_c, 5, 11, 107
7, 41105, Note_on_c, 5, 62, 105
7, 41122, Control_c, 5, 11, 104
7, 41140, Control_c, 5, 11, 101
7, 41158, Control_c, 5, 11, 98
7, 41176, Control_c, 5, 11, 95
7, 41194, Control_c, 5, 11, 92
7, 41210, Note_on_c, 5, 62, 0
7, 41212, Control_c, 5, 11, 89
7, 41225, Note_on_c, 5, 62, 105
7, 41285, Note_on_c, 5, 62, 0
7, 41285, Note_on_c, 5, 55, 105
7, 41345, Note_on_c, 5, 55, 0
7, 41585, Control_c, 5, 11, 107
7, 41585, Note_on_c, 5, 55, 105
7, 41602, Control_c, 5, 11, 104
7, 41620, Control_c, 5, 11, 101
7, 41638, Control_c, 5, 11, 98
7, 41656, Control_c, 5, 11, 95
7, 41674, Control_c, 5, 11, 92
7, 41690, Note_on_c, 5, 55, 0
7, 41692, Control_c, 5, 11, 89
7, 41705, Note_on_c, 5, 55, 105
7, 41765, Note_on_c, 5, 55, 0
7, 41765, Note_on_c, 5, 55, 105
7, 41825, Note_on_c, 5, 55, 0
7, 42065, Control_c, 5, 11, 107
7, 42065, Note_on_c, 5, 62, 105
7, 42082, Control_c, 5, 11, 104
7, 42100, Control_c, 5, 11, 101
7, 42118, Control_c, 5, 11, 98
7, 42136, Control_c, 5, 11, 95
7, 42154, Control_c, 5, 11, 92
7, 42172, Control_c, 5, 11, 89
7, 42175, Note_on_c, 5, 62, 0
7, 42185, Note_on_c, 5, 62, 105
7, 42245, Note_on_c, 5, 62, 0
7, 42245, Note_on_c, 5, 43, 105
7, 42245, Control_c, 5, 11, 107
7, 42262, Control_c, 5, 11, 104
7, 42280, Control_c, 5, 11, 101
7, 42298, Control_c, 5, 11, 98
7, 42316, Control_c, 5, 11, 95
7, 42334, Control_c, 5, 11, 92
7, 42352, Control_c, 5, 11, 89
7, 42605, Note_on_c, 5, 43, 0
7, 42605, Note_on_c, 5, 43, 105
7, 42665, Note_on_c, 5, 43, 0
7, 42665, Note_on_c, 5, 43, 105
7, 42725, Note_on_c, 5, 43, 0
7, 42725, Note_on_c, 5, 43, 105
7, 42725, Control_c, 5, 11, 107
7, 42742, Control_c, 5, 11, 104
7, 42760, Control_c, 5, 11, 101
7, 42778, Control_c, 5, 11, 98
7, 42796, Control_c, 5, 11, 95
7, 42814, Control_c, 5, 11, 92
7, 42832, Control_c, 5, 11, 89
7, 43085, Note_on_c, 5, 43, 0
7, 43085, Note_on_c, 5, 43, 105
7, 43145, Note_on_c, 5, 43, 0
7, 43145, Note_on_c, 5, 43, 105
7, 43205, Note_on_c, 5, 43, 0
7, 43205, Note_on_c, 5, 43, 105
7, 43205, Control_c, 5, 11, 107
7, 43222, Control_c, 5, 11, 104
7, 43240, Control_c, 5, 11, 101
7, 43258, Control_c, 5, 11, 98
7, 43276, Control_c, 5, 11, 95
7, 43294, Control_c, 5, 11, 92
7, 43312, Control_c, 5, 11, 89
7, 43565, Note_on_c, 5, 43, 0
7, 43565, Note_on_c, 5, 43, 105
7, 43625, Note_on_c, 5, 43, 0
7, 43625, Note_on_c, 5, 43, 105
7, 43685, Note_on_c, 5, 43, 0
7, 43685, Note_on_c, 5, 43, 105
7, 43685, Control_c, 5, 11, 107
7, 43702, Control_c, 5, 11, 104
7, 43720, Control_c, 5, 11, 101
7, 43738, Control_c, 5, 11, 98
7, 43756, Control_c, 5, 11, 95
7, 43774, Control_c, 5, 11, 92
7, 43792, Control_c, 5, 11, 89
7, 44045, Note_on_c, 5, 43, 0
7, 44045, Note_on_c, 5, 43, 105
7, 44105, Note_on_c, 5, 43, 0
7, 44105, Note_on_c, 5, 43, 105
7, 44165, Note_on_c, 5, 43, 0
7, 44165, Note_on_c, 5, 43, 105
7, 44165, Control_c, 5, 11, 107
7, 44182, Control_c, 5, 11, 104
7, 44200, Control_c, 5, 11, 101
7, 44218, Control_c, 5, 11, 98
7, 44236, Control_c, 5, 11, 95
7, 44254, Control_c, 5, 11, 92
7, 44272, Control_c, 5, 11, 89
7, 44345, Note_on_c, 5, 43, 0
7, 44345, Note_on_c, 5, 43, 105
7, 44405, Note_on_c, 5, 43, 0
7, 44405, Note_on_c, 5, 43, 105
7, 44405, Control_c, 5, 11, 107
7, 44422, Control_c, 5, 11, 104
7, 44440, Control_c, 5, 11, 101
7, 44458, Control_c, 5, 11, 98
7, 44476, Control_c, 5, 11, 95
7, 44494, Control_c, 5, 11, 92
7, 44512, Control_c, 5, 11, 89
7, 44585, Note_on_c, 5, 43, 0
7, 44585, Note_on_c, 5, 43, 105
7, 44645, Note_on_c, 5, 43, 0
7, 44645, Note_on_c, 5, 43, 95
7, 44720, Control_c, 5, 11, 87
7, 44724, Control_c, 5, 11, 84
7, 44728, Control_c, 5, 11, 81
7, 44733, Control_c, 5, 11, 78
7, 44737, Control_c, 5, 11, 75
7, 44742, Control_c, 5, 11, 72
7, 44746, Control_c, 5, 11, 69
7, 44750, Control_c, 5, 11, 66
7, 44755, Control_c, 5, 11, 63
7, 44759, Control_c, 5, 11, 60
7, 44764, Control_c, 5, 11, 57
7, 44765, Note_on_c, 5, 43, 0
7, 53285, Control_c, 5, 11, 47
7, 53285, Note_on_c, 5, 62, 105
7, 53765, Note_on_c, 5, 62, 0
7, 53765, Note_on_c, 5, 55, 105
7, 54245, Note_on_c, 5, 55, 0
7, 54245, Note_on_c, 5, 48, 105
7, 54845, Note_on_c, 5, 48, 0
7, 55205, Control_c, 5, 11, 87
7, 55205, Note_on_c, 5, 55, 105
7, 55445, Note_on_c, 5, 55, 0
7, 55445, Note_on_c, 5, 55, 105
7, 55565, Note_on_c, 5, 55, 0
7, 55565, Note_on_c, 5, 55, 105
7, 55685, Note_on_c, 5, 55, 0
7, 55685, Note_on_c, 5, 55, 105
7, 55925, Note_on_c, 5, 55, 0
7, 55925, Note_on_c, 5, 55, 105
7, 56045, Note_on_c, 5, 55, 0
7, 56045, Note_on_c, 5, 55, 105
7, 56165, Note_on_c, 5, 55, 0
7, 56165, Control_c, 5, 11, 102
7, 56165, Note_on_c, 5, 55, 105
7, 56405, Note_on_c, 5, 55, 0
7, 56405, Note_on_c, 5, 55, 105
7, 56525, Note_on_c, 5, 55, 0
7, 56525, Note_on_c, 5, 55, 105
7, 56645, Note_on_c, 5, 55, 0
7, 56645, Note_on_c, 5, 55, 105
7, 56885, Note_on_c, 5, 55, 0
7, 56885, Note_on_c, 5, 55, 105
7, 57005, Note_on_c, 5, 55, 0
7, 57005, Note_on_c, 5, 55, 105
7, 57125, Note_on_c, 5, 55, 0
7, 57125, Note_on_c, 5, 55, 105
7, 57245, Note_on_c, 5, 55, 0
7, 57245, Note_on_c, 5, 43, 105
7, 57245, Control_c, 5, 11, 122
7, 57262, Control_c, 5, 11, 119
7, 57280, Control_c, 5, 11, 116
7, 57298, Control_c, 5, 11, 113
7, 57316, Control_c, 5, 11, 110
7, 57334, Control_c, 5, 11, 107
7, 57352, Control_c, 5, 11, 104
7, 57725, Note_on_c, 5, 43, 0
7, 57725, Control_c, 5, 11, 122
7, 57725, Note_on_c, 5, 43, 105
7, 57742, Control_c, 5, 11, 119
7, 57760, Control_c, 5, 11, 116
7, 57778, Control_c, 5, 11, 113
7, 57796, Control_c, 5, 11, 110
7, 57814, Control_c, 5, 11, 107
7, 57832, Control_c, 5, 11, 104
7, 58205, Note_on_c, 5, 43, 0
7, 58205, Control_c, 5, 11, 122
7, 58205, Note_on_c, 5, 43, 105
7, 58222, Control_c, 5, 11, 119
7, 58240, Control_c, 5, 11, 116
7, 58258, Control_c, 5, 11, 113
7, 58276, Control_c, 5, 11, 110
7, 58294, Control_c, 5, 11, 107
7, 58312, Control_c, 5, 11, 104
7, 58685, Note_on_c, 5, 43, 0
7, 58685, Note_on_c, 5, 43, 105
7, 58685, Control_c, 5, 11, 122
7, 58702, Control_c, 5, 11, 119
7, 58720, Control_c, 5, 11, 116
7, 58738, Control_c, 5, 11, 113
7, 58756, Control_c, 5, 11, 110
7, 58774, Control_c, 5, 11, 107
7, 58792, Control_c, 5, 11, 104
7, 59165, Note_on_c, 5, 43, 0
7, 59165, Control_c, 5, 11, 122
7, 59165, Note_on_c, 5, 43, 105
7, 59182, Control_c, 5, 11, 119
7, 59200, Control_c, 5, 11, 116
7, 59218, Control_c, 5, 11, 113
7, 59236, Control_c, 5, 11, 110
7, 59254, Control_c, 5, 11, 107
7, 59272, Control_c, 5, 11, 104
7, 59285, Note_on_c, 5, 43, 0
7, 59405, Note_on_c, 5, 43, 105
7, 59405, Control_c, 5, 11, 122
7, 59422, Control_c, 5, 11, 119
7, 59440, Control_c, 5, 11, 116
7, 59458, Control_c, 5, 11, 113
7, 59476, Control_c, 5, 11, 110
7, 59494, Control_c, 5, 11, 107
7, 59512, Control_c, 5, 11, 104
7, 59525, Note_on_c, 5, 43, 0
7, 59645, Note_on_c, 5, 43, 105
7, 59645, Control_c, 5, 11, 122
7, 59662, Control_c, 5, 11, 119
7, 59680, Control_c, 5, 11, 116
7, 59698, Control_c, 5, 11, 113
7, 59716, Control_c, 5, 11, 110
7, 59734, Control_c, 5, 11, 107
7, 59752, Control_c, 5, 11, 104
7, 59765, Note_on_c, 5, 43, 0
7, 59885, Control_c, 5, 11, 122
7, 59885, Note_on_c, 5, 43, 105
7, 59902, Control_c, 5, 11, 119
7, 59920, Control_c, 5, 11, 116
7, 59938, Control_c, 5, 11, 113
7, 59956, Control_c, 5, 11, 110
7, 59974, Control_c, 5, 11, 107
7, 59992, Control_c, 5, 11, 104
7, 60005, Note_on_c, 5, 43, 0
7, 60005, Note_on_c, 5, 43, 105
7, 60125, Note_on_c, 5, 43, 0
7, 64085, Control_c, 5, 11, 47
7, 64085, Note_on_c, 5, 52, 95
7, 64145, Note_on_c, 5, 52, 0
7, 64205, Note_on_c, 5, 55, 100
7, 64265, Note_on_c, 5, 55, 0
7, 64325, Note_on_c, 5, 52, 105
7, 64385, Note_on_c, 5, 52, 0
7, 65585, Note_on_c, 5, 62, 105
7, 65585, Control_c, 5, 11, 87
7, 65645, Note_on_c, 5, 62, 0
7, 65645, Note_on_c, 5, 62, 105
7, 65705, Note_on_c, 5, 62, 0
7, 65705, Note_on_c, 5, 62, 105
7, 65765, Note_on_c, 5, 62, 0
7, 65765, Note_on_c, 5, 62, 105
7, 65945, Note_on_c, 5, 62, 0
7, 66065, Note_on_c, 5, 48, 105
7, 66125, Note_on_c, 5, 48, 0
7, 66125, Note_on_c, 5, 48, 105
7, 66185, Note_on_c, 5, 48, 0
7, 66185, Note_on_c, 5, 48, 105
7, 66245, Note_on_c, 5, 48, 0
7, 66245, Note_on_c, 5, 48, 105
7, 66425, Note_on_c, 5, 48, 0
7, 66545, Note_on_c, 5, 48, 105
7, 66605, Note_on_c, 5, 48, 0
7, 66605, Note_on_c, 5, 48, 105
7, 66665, Note_on_c, 5, 48, 0
7, 66665, Note_on_c, 5, 48, 105
7, 66725, Note_on_c, 5, 48, 0
7, 66725, Note_on_c, 5, 62, 105
7, 66965, Note_on_c, 5, 62, 0
7, 66965, Note_on_c, 5, 55, 105
7, 67205, Note_on_c, 5, 55, 0
7, 67205, Note_on_c, 5, 48, 90
7, 67325, Note_on_c, 5, 48, 0
7, 67685, Control_c, 5, 11, 47
7, 67685, Note_on_c, 5, 48, 105
7, 69245, Note_on_c, 5, 48, 0
7, 69605, Note_on_c, 5, 55, 105
7, 70565, Control_c, 5, 11, 47
7, 70595, Control_c, 5, 11, 48
7, 70625, Control_c, 5, 11, 49
7, 70655, Control_c, 5, 11, 50
7, 70685, Control_c, 5, 11, 51
7, 70715, Control_c, 5, 11, 52
7, 70745, Control_c, 5, 11, 53
7, 70775, Control_c, 5, 11, 54
7, 70805, Control_c, 5, 11, 55
7, 70835, Control_c, 5, 11, 56
7, 70865, Control_c, 5, 11, 57
7, 70895, Control_c, 5, 11, 58
7, 70925, Control_c, 5, 11, 59
7, 70955, Control_c, 5, 11, 60
7, 70985, Control_c, 5, 11, 61
7, 71015, Control_c, 5, 11, 62
7, 71045, Control_c, 5, 11, 63
7, 71075, Control_c, 5, 11, 64
7, 71105, Control_c, 5, 11, 65
7, 71135, Control_c, 5, 11, 66
7, 71165, Note_on_c, 5, 55, 0
7, 71165, Control_c, 5, 11, 67
7, 71195, Control_c, 5, 11, 68
7, 71225, Control_c, 5, 11, 69
7, 71255, Control_c, 5, 11, 70
7, 71285, Control_c, 5, 11, 71
7, 71285, Note_on_c, 5, 48, 105
7, 71315, Control_c, 5, 11, 72
7, 71345, Control_c, 5, 11, 73
7, 71375, Control_c, 5, 11, 74
7, 71405, Control_c, 5, 11, 75
7, 71435, Control_c, 5, 11, 76
7, 71465, Control_c, 5, 11, 77
7, 71495, Control_c, 5, 11, 78
7, 71525, Control_c, 5, 11, 79
7, 71555, Control_c, 5, 11, 80
7, 71585, Control_c, 5, 11, 81
7, 71615, Control_c, 5, 11, 82
7, 71645, Control_c, 5, 11, 83
7, 71675, Control_c, 5, 11, 84
7, 71705, Control_c, 5, 11, 85
7, 71735, Control_c, 5, 11, 86
7, 71765, Control_c, 5, 11, 87
7, 72005, Note_on_c, 5, 48, 0
7, 73985, Note_on_c, 5, 64, 105
7, 73985, Control_c, 5, 11, 122
7, 74003, Control_c, 5, 11, 119
7, 74021, Control_c, 5, 11, 116
7, 74039, Control_c, 5, 11, 113
7, 74057, Control_c, 5, 11, 110
7, 74075, Control_c, 5, 11, 107
7, 74090, Note_on_c, 5, 64, 0
7, 74093, Control_c, 5, 11, 104
7, 74105, Note_on_c, 5, 64, 105
7, 74165, Note_on_c, 5, 64, 0
7, 74165, Note_on_c, 5, 60, 105
7, 74225, Note_on_c, 5, 60, 0
7, 74945, Note_on_c, 5, 64, 105
7, 74945, Control_c, 5, 11, 122
7, 74963, Control_c, 5, 11, 119
7, 74981, Control_c, 5, 11, 116
7, 74999, Control_c, 5, 11, 113
7, 75017, Control_c, 5, 11, 110
7, 75035, Control_c, 5, 11, 107
7, 75050, Note_on_c, 5, 64, 0
7, 75053, Control_c, 5, 11, 104
7, 75065, Note_on_c, 5, 64, 105
7, 75125, Note_on_c, 5, 64, 0
7, 75125, Note_on_c, 5, 60, 105
7, 75185, Note_on_c, 5, 60, 0
7, 75845, Note_on_c, 5, 48, 105
7, 75845, Control_c, 5, 11, 102
7, 76205, Note_on_c, 5, 48, 0
7, 76205, Note_on_c, 5, 48, 105
7, 76253, Note_on_c, 5, 48, 0
7, 76265, Note_on_c, 5, 48, 105
7, 76313, Note_on_c, 5, 48, 0
7, 76325, Note_on_c, 5, 48, 105
7, 76325, Control_c, 5, 11, 122
7, 76343, Control_c, 5, 11, 119
7, 76361, Control_c, 5, 11, 116
7, 76379, Control_c, 5, 11, 113
7, 76397, Control_c, 5, 11, 110
7, 76415, Control_c, 5, 11, 107
7, 76433, Control_c, 5, 11, 104
7, 76685, Note_on_c, 5, 48, 0
7, 76685, Note_on_c, 5, 48, 105
7, 76733, Note_on_c, 5, 48, 0
7, 76745, Note_on_c, 5, 48, 105
7, 76793, Note_on_c, 5, 48, 0
7, 76805, Note_on_c, 5, 48, 105
7, 76805, Control_c, 5, 11, 122
7, 76823, Control_c, 5, 11, 119
7, 76841, Control_c, 5, 11, 116
7, 76859, Control_c, 5, 11, 113
7, 76877, Control_c, 5, 11, 110
7, 76895, Control_c, 5, 11, 107
7, 76913, Control_c, 5, 11, 104
7, 77165, Note_on_c, 5, 48, 0
7, 77165, Note_on_c, 5, 48, 105
7, 77213, Note_on_c, 5, 48, 0
7, 77225, Note_on_c, 5, 48, 105
7, 77273, Note_on_c, 5, 48, 0
7, 77285, Note_on_c, 5, 48, 105
7, 77490, Note_on_c, 5, 48, 0
7, 77495, Note_on_c, 5, 48, 105
7, 77520, Note_on_c, 5, 48, 0
7, 77525, Note_on_c, 5, 48, 105
7, 77730, Note_on_c, 5, 48, 0
7, 77735, Note_on_c, 5, 48, 105
7, 77760, Note_on_c, 5, 48, 0
7, 77765, Note_on_c, 5, 48, 105
7, 77825, Note_on_c, 5, 48, 0
7, 77885, Note_on_c, 5, 48, 105
7, 77885, Control_c, 5, 11, 122
7, 77903, Control_c, 5, 11, 119
7, 77921, Control_c, 5, 11, 116
7, 77939, Control_c, 5, 11, 113
7, 77957, Control_c, 5, 11, 110
7, 77975, Control_c, 5, 11, 107
7, 77993, Control_c, 5, 11, 104
7, 78200, Control_c, 5, 11, 102
7, 78201, Control_c, 5, 11, 99
7, 78203, Control_c, 5, 11, 95
7, 78204, Control_c, 5, 11, 92
7, 78206, Control_c, 5, 11, 88
7, 78207, Control_c, 5, 11, 85
7, 78209, Control_c, 5, 11, 81
7, 78210, Control_c, 5, 11, 78
7, 78212, Control_c, 5, 11, 74
7, 78213, Control_c, 5, 11, 71
7, 78215, Note_on_c, 5, 48, 0
7, 78215, Control_c, 5, 11, 67
7, 78245, Note_on_c, 5, 55, 105
7, 78245, Control_c, 5, 11, 102
7, 78305, Note_on_c, 5, 55, 0
7, 78365, Control_c, 5, 11, 122
7, 78365, Note_on_c, 5, 55, 105
7, 78383, Control_c, 5, 11, 119
7, 78401, Control_c, 5, 11, 116
7, 78419, Control_c, 5, 11, 113
7, 78437, Control_c, 5, 11, 110
7, 78455, Control_c, 5, 11, 107
7, 78473, Control_c, 5, 11, 104
7, 78615, Control_c, 5, 11, 102
7, 78617, Control_c, 5, 11, 98
7, 78619, Control_c, 5, 11, 95
7, 78621, Control_c, 5, 11, 91
7, 78623, Control_c, 5, 11, 88
7, 78625, Control_c, 5, 11, 84
7, 78627, Control_c, 5, 11, 81
7, 78629, Control_c, 5, 11, 77
7, 78631, Control_c, 5, 11, 74
7, 78633, Control_c, 5, 11, 70
7, 78635, Note_on_c, 5, 55, 0
7, 78635, Control_c, 5, 11, 67
7, 84185, Note_on_c, 5, 62, 115
7, 84185, Control_c, 5, 11, 102
7, 84245, Note_on_c, 5, 62, 0
7, 84245, Note_on_c, 5, 55, 115
7, 84305, Note_on_c, 5, 55, 0
7, 84305, Note_on_c, 5, 55, 115
7, 84365, Note_on_c, 5, 55, 0
7, 84365, Note_on_c, 5, 55, 115
7, 84425, Note_on_c, 5, 55, 0
7, 84425, Note_on_c, 5, 55, 115
7, 84485, Note_on_c, 5, 55, 0
7, 84485, Note_on_c, 5, 55, 115
7, 84605, Note_on_c, 5, 55, 0
7, 84605, Note_on_c, 5, 55, 115
7, 84665, Note_on_c, 5, 55, 0
7, 84665, Note_on_c, 5, 52, 115
7, 84695, Note_on_c, 5, 52, 0
7, 84725, Note_on_c, 5, 52, 115
7, 84785, Note_on_c, 5, 52, 0
7, 84785, Note_on_c, 5, 52, 115
7, 84845, Note_on_c, 5, 52, 0
7, 84845, Note_on_c, 5, 52, 115
7, 84905, Note_on_c, 5, 52, 0
7, 84905, Note_on_c, 5, 52, 115
7, 84965, Note_on_c, 5, 52, 0
7, 84965, Note_on_c, 5, 62, 115
7, 85085, Note_on_c, 5, 62, 0
7, 85085, Note_on_c, 5, 62, 115
7, 85205, Note_on_c, 5, 62, 0
7, 85205, Note_on_c, 5, 60, 115
7, 85325, Note_on_c, 5, 60, 0
7, 85325, Note_on_c, 5, 55, 115
7, 85445, Note_on_c, 5, 55, 0
7, 85445, Note_on_c, 5, 52, 115
7, 85445, Control_c, 5, 11, 87
7, 85555, Note_on_c, 5, 52, 0
7, 85565, Note_on_c, 5, 52, 105
7, 85645, Note_on_c, 5, 52, 0
7, 85655, Note_on_c, 5, 52, 105
7, 85675, Note_on_c, 5, 52, 0
7, 85685, Control_c, 5, 11, 107
7, 85685, Note_on_c, 5, 55, 105
7, 85703, Control_c, 5, 11, 104
7, 85721, Control_c, 5, 11, 101
7, 85739, Control_c, 5, 11, 98
7, 85757, Control_c, 5, 11, 95
7, 85775, Control_c, 5, 11, 92
7, 85793, Control_c, 5, 11, 89
7, 85805, Note_on_c, 5, 55, 0
7, 85805, Note_on_c, 5, 52, 105
7, 85865, Note_on_c, 5, 52, 0
7, 85925, Note_on_c, 5, 60, 105
7, 86035, Note_on_c, 5, 60, 0
7, 86045, Note_on_c, 5, 60, 105
7, 86125, Note_on_c, 5, 60, 0
7, 86135, Note_on_c, 5, 60, 105
7, 86155, Note_on_c, 5, 60, 0
7, 86165, Note_on_c, 5, 55, 105
7, 86165, Control_c, 5, 11, 107
7, 86183, Control_c, 5, 11, 104
7, 86201, Control_c, 5, 11, 101
7, 86219, Control_c, 5, 11, 98
7, 86237, Control_c, 5, 11, 95
7, 86255, Control_c, 5, 11, 92
7, 86273, Control_c, 5, 11, 89
7, 86285, Note_on_c, 5, 55, 0
7, 86285, Note_on_c, 5, 60, 105
7, 86345, Note_on_c, 5, 60, 0
7, 86405, Control_c, 5, 11, 47
7, 86405, Note_on_c, 5, 60, 105
7, 86515, Note_on_c, 5, 60, 0
7, 86525, Note_on_c, 5, 60, 105
7, 86605, Note_on_c, 5, 60, 0
7, 86615, Note_on_c, 5, 60, 105
7, 86635, Note_on_c, 5, 60, 0
7, 86645, Note_on_c, 5, 62, 105
7, 86705, Note_on_c, 5, 62, 0
7, 86885, Note_on_c, 5, 55, 105
7, 86945, Note_on_c, 5, 55, 0
7, 87125, Note_on_c, 5, 60, 105
7, 87185, Note_on_c, 5, 60, 0
7, 87365, Note_on_c, 5, 52, 105
7, 87475, Note_on_c, 5, 52, 0
7, 87485, Note_on_c, 5, 52, 105
7, 87565, Note_on_c, 5, 52, 0
7, 87575, Note_on_c, 5, 52, 105
7, 87595, Note_on_c, 5, 52, 0
7, 87605, Note_on_c, 5, 55, 105
7, 87725, Note_on_c, 5, 55, 0
7, 87725, Note_on_c, 5, 52, 105
7, 87785, Note_on_c, 5, 52, 0
7, 87845, Note_on_c, 5, 60, 105
7, 87955, Note_on_c, 5, 60, 0
7, 87965, Note_on_c, 5, 60, 105
7, 88045, Note_on_c, 5, 60, 0
7, 88055, Note_on_c, 5, 60, 105
7, 88075, Note_on_c, 5, 60, 0
7, 88085, Note_on_c, 5, 55, 105
7, 88205, Note_on_c, 5, 55, 0
7, 88205, Note_on_c, 5, 60, 105
7, 88265, Note_on_c, 5, 60, 0
7, 88325, Note_on_c, 5, 60, 105
7, 88435, Note_on_c, 5, 60, 0
7, 88445, Note_on_c, 5, 60, 105
7, 88525, Note_on_c, 5, 60, 0
7, 88535, Note_on_c, 5, 60, 105
7, 88555, Note_on_c, 5, 60, 0
7, 88565, Note_on_c, 5, 62, 105
7, 88625, Note_on_c, 5, 62, 0
7, 88685, Note_on_c, 5, 62, 105
7, 88745, Note_on_c, 5, 62, 0
7, 88925, Note_on_c, 5, 55, 105
7, 88985, Note_on_c, 5, 55, 0
7, 89165, Note_on_c, 5, 60, 105
7, 89225, Note_on_c, 5, 60, 0
7, 89405, Note_on_c, 5, 60, 105
7, 89495, Note_on_c, 5, 60, 0
7, 89495, Note_on_c, 5, 60, 105
7, 89525, Note_on_c, 5, 60, 0
7, 89525, Note_on_c, 5, 62, 105
7, 89525, Control_c, 5, 11, 47
7, 89542, Control_c, 5, 11, 48
7, 89559, Control_c, 5, 11, 49
7, 89577, Control_c, 5, 11, 50
7, 89585, Note_on_c, 5, 62, 0
7, 89594, Control_c, 5, 11, 51
7, 89612, Control_c, 5, 11, 52
7, 89629, Control_c, 5, 11, 53
7, 89645, Note_on_c, 5, 62, 105
7, 89647, Control_c, 5, 11, 54
7, 89664, Control_c, 5, 11, 55
7, 89682, Control_c, 5, 11, 56
7, 89699, Control_c, 5, 11, 57
7, 89705, Note_on_c, 5, 62, 0
7, 89717, Control_c, 5, 11, 58
7, 89734, Control_c, 5, 11, 59
7, 89751, Control_c, 5, 11, 60
7, 89769, Control_c, 5, 11, 61
7, 89786, Control_c, 5, 11, 62
7, 89804, Control_c, 5, 11, 63
7, 89821, Control_c, 5, 11, 64
7, 89839, Control_c, 5, 11, 65
7, 89856, Control_c, 5, 11, 66
7, 89874, Control_c, 5, 11, 67
7, 89885, Note_on_c, 5, 55, 105
7, 89891, Control_c, 5, 11, 68
7, 89909, Control_c, 5, 11, 69
7, 89926, Control_c, 5, 11, 70
7, 89943, Control_c, 5, 11, 71
7, 89945, Note_on_c, 5, 55, 0
7, 89961, Control_c, 5, 11, 72
7, 89978, Control_c, 5, 11, 73
7, 89996, Control_c, 5, 11, 74
7, 90013, Control_c, 5, 11, 75
7, 90031, Control_c, 5, 11, 76
7, 90048, Control_c, 5, 11, 77
7, 90066, Control_c, 5, 11, 78
7, 90083, Control_c, 5, 11, 79
7, 90101, Control_c, 5, 11, 80
7, 90118, Control_c, 5, 11, 81
7, 90125, Note_on_c, 5, 60, 105
7, 90135, Control_c, 5, 11, 82
7, 90153, Control_c, 5, 11, 83
7, 90170, Control_c, 5, 11, 84
7, 90185, Note_on_c, 5, 60, 0
7, 90185, Note_on_c, 5, 60, 105
7, 90188, Control_c, 5, 11, 85
7, 90205, Control_c, 5, 11, 86
7, 90223, Control_c, 5, 11, 87
7, 90240, Control_c, 5, 11, 88
7, 90245, Note_on_c, 5, 60, 0
7, 90245, Note_on_c, 5, 60, 105
7, 90258, Control_c, 5, 11, 89
7, 90275, Control_c, 5, 11, 90
7, 90293, Control_c, 5, 11, 91
7, 90305, Note_on_c, 5, 60, 0
7, 90305, Note_on_c, 5, 60, 105
7, 90310, Control_c, 5, 11, 92
7, 90327, Control_c, 5, 11, 93
7, 90345, Control_c, 5, 11, 94
7, 90362, Control_c, 5, 11, 95
7, 90365, Note_on_c, 5, 60, 0
7, 90365, Note_on_c, 5, 60, 105
7, 90380, Control_c, 5, 11, 96
7, 90397, Control_c, 5, 11, 97
7, 90415, Control_c, 5, 11, 98
7, 90425, Note_on_c, 5, 60, 0
7, 90425, Note_on_c, 5, 60, 105
7, 90432, Control_c, 5, 11, 99
7, 90450, Control_c, 5, 11, 100
7, 90467, Control_c, 5, 11, 101
7, 90485, Note_on_c, 5, 60, 0
7, 90485, Control_c, 5, 11, 102
7, 90485, Note_on_c, 5, 62, 105
7, 90725, Note_on_c, 5, 62, 0
7, 90725, Note_on_c, 5, 55, 105
7, 90965, Note_on_c, 5, 55, 0
7, 90965, Note_on_c, 5, 48, 105
7, 90965, Control_c, 5, 11, 122
7, 90983, Control_c, 5, 11, 119
7, 91001, Control_c, 5, 11, 116
7, 91019, Control_c, 5, 11, 113
7, 91037, Control_c, 5, 11, 110
7, 91055, Control_c, 5, 11, 107
7, 91073, Control_c, 5, 11, 104
7, 91325, Note_on_c, 5, 48, 0
7, 91325, Note_on_c, 5, 48, 105
7, 91355, Note_on_c, 5, 48, 0
7, 91385, Note_on_c, 5, 48, 105
7, 91415, Note_on_c, 5, 48, 0
7, 91445, Control_c, 5, 11, 122
7, 91445, Note_on_c, 5, 52, 105
7, 91463, Control_c, 5, 11, 119
7, 91481, Control_c, 5, 11, 116
7, 91499, Control_c, 5, 11, 113
7, 91517, Control_c, 5, 11, 110
7, 91535, Control_c, 5, 11, 107
7, 91553, Control_c, 5, 11, 104
7, 91805, Note_on_c, 5, 52, 0
7, 91805, Note_on_c, 5, 52, 105
7, 91835, Note_on_c, 5, 52, 0
7, 91865, Note_on_c, 5, 52, 105
7, 91895, Note_on_c, 5, 52, 0
7, 91925, Note_on_c, 5, 55, 105
7, 91925, Control_c, 5, 11, 112
7, 91943, Control_c, 5, 11, 109
7, 91961, Control_c, 5, 11, 106
7, 91979, Control_c, 5, 11, 103
7, 92165, Note_on_c, 5, 55, 0
7, 92165, Note_on_c, 5, 52, 105
7, 92225, Note_on_c, 5, 52, 0
7, 92285, Note_on_c, 5, 60, 105
7, 92345, Note_on_c, 5, 60, 0
7, 92405, Note_on_c, 5, 55, 105
7, 92465, Note_on_c, 5, 55, 0
7, 92525, Note_on_c, 5, 52, 105
7, 92585, Note_on_c, 5, 52, 0
7, 92645, Note_on_c, 5, 48, 105
7, 92705, Note_on_c, 5, 48, 0
7, 92765, Note_on_c, 5, 43, 105
7, 92825, Note_on_c, 5, 43, 0
7, 92885, Note_on_c, 5, 48, 105
7, 92981, Note_on_c, 5, 48, 0
7, 93125, Note_on_c, 5, 55, 105
7, 93221, Note_on_c, 5, 55, 0
7, 93365, Note_on_c, 5, 60, 105
7, 93461, Note_on_c, 5, 60, 0
7, 93605, Note_on_c, 5, 55, 105
7, 93701, Note_on_c, 5, 55, 0
7, 93845, Note_on_c, 5, 52, 105
7, 93941, Note_on_c, 5, 52, 0
7, 94085, Note_on_c, 5, 48, 115
7, 94187, Note_on_c, 5, 48, 0
7, 94325, Note_on_c, 5, 48, 105
7, 94445, Note_on_c, 5, 48, 0
7, 94565, Control_c, 5, 121, 0
7, 94565, End_track
8, 0, Start_track
8, 0, MIDI_port, 0
8, 0, Title_t, "2 Trombe in C"
8, 0, Program_c, 6, 56
8, 0, Control_c, 6, 10, 77
8, 2, Control_c, 6, 121, 0
8, 7, Program_c, 6, 56
8, 12, Pitch_bend_c, 6, 8192
8, 17, Control_c, 6, 11, 102
8, 22, Control_c, 6, 7, 127
8, 27, Control_c, 6, 91, 80
8, 32, Control_c, 6, 93, 0
8, 37, Control_c, 6, 10, 77
8, 242, Control_c, 6, 11, 72
8, 242, Note_on_c, 6, 67, 107
8, 242, Note_on_c, 6, 55, 107
8, 244, Control_c, 6, 11, 75
8, 246, Control_c, 6, 11, 78
8, 248, Control_c, 6, 11, 81
8, 250, Control_c, 6, 11, 84
8, 252, Control_c, 6, 11, 87
8, 254, Control_c, 6, 11, 90
8, 256, Control_c, 6, 11, 93
8, 258, Control_c, 6, 11, 96
8, 260, Control_c, 6, 11, 99
8, 262, Control_c, 6, 11, 102
8, 377, Control_c, 6, 11, 102
8, 378, Control_c, 6, 11, 98
8, 379, Control_c, 6, 11, 94
8, 380, Control_c, 6, 11, 91
8, 381, Control_c, 6, 11, 87
8, 382, Control_c, 6, 11, 83
8, 383, Control_c, 6, 11, 80
8, 384, Control_c, 6, 11, 76
8, 385, Control_c, 6, 11, 72
8, 386, Control_c, 6, 11, 69
8, 387, Control_c, 6, 11, 65
8, 388, Control_c, 6, 11, 61
8, 389, Control_c, 6, 11, 58
8, 390, Control_c, 6, 11, 54
8, 391, Control_c, 6, 11, 50
8, 392, Note_on_c, 6, 55, 0
8, 392, Note_on_c, 6, 67, 0
8, 392, Control_c, 6, 11, 47
8, 6422, Control_c, 6, 11, 102
8, 6422, Note_on_c, 6, 64, 107
8, 6422, Note_on_c, 6, 72, 107
8, 6482, Note_on_c, 6, 72, 0
8, 6482, Note_on_c, 6, 64, 0
8, 6482, Note_on_c, 6, 64, 107
8, 6482, Note_on_c, 6, 72, 107
8, 6542, Note_on_c, 6, 72, 0
8, 6542, Note_on_c, 6, 64, 0
8, 6542, Note_on_c, 6, 72, 107
8, 6542, Note_on_c, 6, 64, 107
8, 6602, Note_on_c, 6, 64, 0
8, 6602, Note_on_c, 6, 72, 0
8, 6602, Note_on_c, 6, 64, 107
8, 6602, Note_on_c, 6, 72, 107
8, 6662, Note_on_c, 6, 72, 0
8, 6662, Note_on_c, 6, 64, 0
8, 6662, Note_on_c, 6, 64, 107
8, 6662, Note_on_c, 6, 72, 107
8, 6722, Note_on_c, 6, 72, 0
8, 6722, Note_on_c, 6, 64, 0
8, 6722, Note_on_c, 6, 72, 107
8, 6722, Note_on_c, 6, 60, 107
8, 6782, Note_on_c, 6, 60, 0
8, 6782, Note_on_c, 6, 72, 0
8, 6842, Note_on_c, 6, 60, 107
8, 6842, Note_on_c, 6, 72, 107
8, 6902, Note_on_c, 6, 72, 0
8, 6902, Note_on_c, 6, 60, 0
8, 6962, Note_on_c, 6, 72, 107
8, 6962, Note_on_c, 6, 60, 107
8, 7022, Note_on_c, 6, 60, 0
8, 7022, Note_on_c, 6, 72, 0
8, 7082, Note_on_c, 6, 55, 107
8, 7082, Note_on_c, 6, 74, 107
8, 7142, Note_on_c, 6, 74, 0
8, 7142, Note_on_c, 6, 55, 0
8, 7202, Control_c, 6, 11, 87
8, 7202, Note_on_c, 6, 64, 97
8, 7202, Note_on_c, 6, 72, 97
8, 7442, Note_on_c, 6, 72, 0
8, 7442, Note_on_c, 6, 64, 0
8, 7442, Note_on_c, 6, 67, 97
8, 7442, Note_on_c, 6, 74, 97
8, 7682, Note_on_c, 6, 74, 0
8, 7682, Note_on_c, 6, 67, 0
8, 7682, Note_on_c, 6, 76, 97
8, 7682, Note_on_c, 6, 72, 97
8, 7802, Note_on_c, 6, 72, 0
8, 7802, Note_on_c, 6, 76, 0
8, 8162, Note_on_c, 6, 64, 97
8, 8162, Note_on_c, 6, 72, 97
8, 8402, Note_on_c, 6, 72, 0
8, 8402, Note_on_c, 6, 64, 0
8, 8402, Note_on_c, 6, 67, 97
8, 8402, Note_on_c, 6, 74, 97
8, 8642, Note_on_c, 6, 74, 0
8, 8642, Note_on_c, 6, 67, 0
8, 8642, Note_on_c, 6, 76, 97
8, 8642, Note_on_c, 6, 72, 97
8, 8762, Note_on_c, 6, 72, 0
8, 8762, Note_on_c, 6, 76, 0
8, 9242, Control_c, 6, 11, 107
8, 9242, Note_on_c, 6, 72, 107
8, 9242, Note_on_c, 6, 76, 107
8, 9259, Control_c, 6, 11, 104
8, 9277, Control_c, 6, 11, 101
8, 9295, Control_c, 6, 11, 98
8, 9313, Control_c, 6, 11, 95
8, 9331, Control_c, 6, 11, 92
8, 9349, Control_c, 6, 11, 89
8, 9602, Note_on_c, 6, 76, 0
8, 9602, Note_on_c, 6, 72, 0
8, 9602, Note_on_c, 6, 74, 107
8, 9722, Note_on_c, 6, 74, 0
8, 9722, Note_on_c, 6, 74, 107
8, 9722, Control_c, 6, 11, 107
8, 9739, Control_c, 6, 11, 104
8, 9757, Control_c, 6, 11, 101
8, 9775, Control_c, 6, 11, 98
8, 9793, Control_c, 6, 11, 95
8, 9811, Control_c, 6, 11, 92
8, 9829, Control_c, 6, 11, 89
8, 10082, Note_on_c, 6, 74, 0
8, 10082, Note_on_c, 6, 60, 107
8, 10082, Note_on_c, 6, 72, 107
8, 10202, Note_on_c, 6, 72, 0
8, 10202, Note_on_c, 6, 60, 0
8, 12002, Note_on_c, 6, 74, 107
8, 12602, Note_on_c, 6, 74, 0
8, 12602, Note_on_c, 6, 74, 107
8, 12692, Note_on_c, 6, 74, 0
8, 12722, Note_on_c, 6, 74, 107
8, 12812, Note_on_c, 6, 74, 0
8, 12842, Note_on_c, 6, 74, 107
8, 12932, Note_on_c, 6, 74, 0
8, 12962, Note_on_c, 6, 74, 107
8, 13052, Note_on_c, 6, 74, 0
8, 18362, Note_on_c, 6, 76, 107
8, 18362, Control_c, 6, 11, 87
8, 18482, Note_on_c, 6, 76, 0
8, 18482, Note_on_c, 6, 74, 107
8, 18602, Note_on_c, 6, 74, 0
8, 18602, Note_on_c, 6, 74, 107
8, 18722, Note_on_c, 6, 74, 0
8, 18722, Note_on_c, 6, 67, 107
8, 18722, Note_on_c, 6, 74, 107
8, 18842, Note_on_c, 6, 74, 0
8, 18842, Note_on_c, 6, 67, 0
8, 19022, Note_on_c, 6, 67, 107
8, 19022, Note_on_c, 6, 79, 107
8, 19022, Control_c, 6, 11, 107
8, 19039, Control_c, 6, 11, 104
8, 19057, Control_c, 6, 11, 101
8, 19075, Control_c, 6, 11, 98
8, 19093, Control_c, 6, 11, 95
8, 19111, Control_c, 6, 11, 92
8, 19127, Note_on_c, 6, 79, 0
8, 19127, Note_on_c, 6, 67, 0
8, 19129, Control_c, 6, 11, 89
8, 19142, Note_on_c, 6, 79, 107
8, 19142, Note_on_c, 6, 67, 107
8, 19202, Note_on_c, 6, 67, 0
8, 19202, Note_on_c, 6, 79, 0
8, 19202, Note_on_c, 6, 79, 107
8, 19202, Note_on_c, 6, 67, 107
8, 19262, Note_on_c, 6, 67, 0
8, 19262, Note_on_c, 6, 79, 0
8, 19502, Note_on_c, 6, 74, 107
8, 19502, Control_c, 6, 11, 107
8, 19519, Control_c, 6, 11, 104
8, 19537, Control_c, 6, 11, 101
8, 19555, Control_c, 6, 11, 98
8, 19573, Control_c, 6, 11, 95
8, 19591, Control_c, 6, 11, 92
8, 19607, Note_on_c, 6, 74, 0
8, 19609, Control_c, 6, 11, 89
8, 19622, Note_on_c, 6, 74, 107
8, 19682, Note_on_c, 6, 74, 0
8, 19682, Note_on_c, 6, 74, 107
8, 19682, Note_on_c, 6, 67, 107
8, 19742, Note_on_c, 6, 67, 0
8, 19742, Note_on_c, 6, 74, 0
8, 19982, Control_c, 6, 11, 107
8, 19982, Note_on_c, 6, 79, 107
8, 19982, Note_on_c, 6, 67, 107
8, 19999, Control_c, 6, 11, 104
8, 20017, Control_c, 6, 11, 101
8, 20035, Control_c, 6, 11, 98
8, 20053, Control_c, 6, 11, 95
8, 20071, Control_c, 6, 11, 92
8, 20087, Note_on_c, 6, 67, 0
8, 20087, Note_on_c, 6, 79, 0
8, 20089, Control_c, 6, 11, 89
8, 20102, Note_on_c, 6, 79, 107
8, 20102, Note_on_c, 6, 67, 107
8, 20162, Note_on_c, 6, 67, 0
8, 20162, Note_on_c, 6, 79, 0
8, 20162, Note_on_c, 6, 79, 107
8, 20162, Note_on_c, 6, 67, 107
8, 20222, Note_on_c, 6, 67, 0
8, 20222, Note_on_c, 6, 79, 0
8, 20462, Note_on_c, 6, 74, 107
8, 20462, Control_c, 6, 11, 107
8, 20479, Control_c, 6, 11, 104
8, 20497, Control_c, 6, 11, 101
8, 20515, Control_c, 6, 11, 98
8, 20533, Control_c, 6, 11, 95
8, 20551, Control_c, 6, 11, 92
8, 20567, Note_on_c, 6, 74, 0
8, 20569, Control_c, 6, 11, 89
8, 20582, Note_on_c, 6, 74, 107
8, 20642, Note_on_c, 6, 74, 0
8, 20642, Note_on_c, 6, 55, 107
8, 20642, Note_on_c, 6, 67, 107
8, 20642, Control_c, 6, 11, 107
8, 20659, Control_c, 6, 11, 104
8, 20677, Control_c, 6, 11, 101
8, 20695, Control_c, 6, 11, 98
8, 20713, Control_c, 6, 11, 95
8, 20731, Control_c, 6, 11, 92
8, 20749, Control_c, 6, 11, 89
8, 21002, Note_on_c, 6, 67, 0
8, 21002, Note_on_c, 6, 55, 0
8, 21002, Note_on_c, 6, 67, 107
8, 21002, Note_on_c, 6, 55, 107
8, 21062, Note_on_c, 6, 55, 0
8, 21062, Note_on_c, 6, 67, 0
8, 21062, Note_on_c, 6, 67, 107
8, 21062, Note_on_c, 6, 55, 107
8, 21122, Note_on_c, 6, 55, 0
8, 21122, Note_on_c, 6, 67, 0
8, 21122, Note_on_c, 6, 55, 107
8, 21122, Note_on_c, 6, 67, 107
8, 21122, Control_c, 6, 11, 107
8, 21139, Control_c, 6, 11, 104
8, 21157, Control_c, 6, 11, 101
8, 21175, Control_c, 6, 11, 98
8, 21193, Control_c, 6, 11, 95
8, 21211, Control_c, 6, 11, 92
8, 21229, Control_c, 6, 11, 89
8, 21482, Note_on_c, 6, 67, 0
8, 21482, Note_on_c, 6, 55, 0
8, 21482, Note_on_c, 6, 55, 107
8, 21482, Note_on_c, 6, 67, 107
8, 21542, Note_on_c, 6, 67, 0
8, 21542, Note_on_c, 6, 55, 0
8, 21542, Note_on_c, 6, 67, 107
8, 21542, Note_on_c, 6, 55, 107
8, 21602, Note_on_c, 6, 55, 0
8, 21602, Note_on_c, 6, 67, 0
8, 21602, Control_c, 6, 11, 107
8, 21602, Note_on_c, 6, 55, 107
8, 21602, Note_on_c, 6, 67, 107
8, 21619, Control_c, 6, 11, 104
8, 21637, Control_c, 6, 11, 101
8, 21655, Control_c, 6, 11, 98
8, 21673, Control_c, 6, 11, 95
8, 21691, Control_c, 6, 11, 92
8, 21709, Control_c, 6, 11, 89
8, 21962, Note_on_c, 6, 67, 0
8, 21962, Note_on_c, 6, 55, 0
8, 21962, Note_on_c, 6, 67, 107
8, 21962, Note_on_c, 6, 55, 107
8, 22022, Note_on_c, 6, 55, 0
8, 22022, Note_on_c, 6, 67, 0
8, 22022, Note_on_c, 6, 55, 107
8, 22022, Note_on_c, 6, 67, 107
8, 22082, Note_on_c, 6, 67, 0
8, 22082, Note_on_c, 6, 55, 0
8, 22082, Control_c, 6, 11, 107
8, 22082, Note_on_c, 6, 67, 107
8, 22082, Note_on_c, 6, 55, 107
8, 22099, Control_c, 6, 11, 104
8, 22117, Control_c, 6, 11, 101
8, 22135, Control_c, 6, 11, 98
8, 22153, Control_c, 6, 11, 95
8, 22171, Control_c, 6, 11, 92
8, 22189, Control_c, 6, 11, 89
8, 22442, Note_on_c, 6, 55, 0
8, 22442, Note_on_c, 6, 67, 0
8, 22442, Note_on_c, 6, 67, 107
8, 22442, Note_on_c, 6, 55, 107
8, 22502, Note_on_c, 6, 55, 0
8, 22502, Note_on_c, 6, 67, 0
8, 22502, Note_on_c, 6, 67, 107
8, 22502, Note_on_c, 6, 55, 107
8, 22562, Note_on_c, 6, 55, 0
8, 22562, Note_on_c, 6, 67, 0
8, 22562, Note_on_c, 6, 55, 107
8, 22562, Note_on_c, 6, 67, 107
8, 22562, Control_c, 6, 11, 107
8, 22579, Control_c, 6, 11, 104
8, 22597, Control_c, 6, 11, 101
8, 22615, Control_c, 6, 11, 98
8, 22633, Control_c, 6, 11, 95
8, 22651, Control_c, 6, 11, 92
8, 22669, Control_c, 6, 11, 89
8, 22742, Note_on_c, 6, 67, 0
8, 22742, Note_on_c, 6, 55, 0
8, 22742, Note_on_c, 6, 67, 107
8, 22742, Note_on_c, 6, 55, 107
8, 22802, Note_on_c, 6, 55, 0
8, 22802, Note_on_c, 6, 67, 0
8, 22802, Note_on_c, 6, 55, 107
8, 22802, Note_on_c, 6, 67, 107
8, 22802, Control_c, 6, 11, 107
8, 22819, Control_c, 6, 11, 104
8, 22837, Control_c, 6, 11, 101
8, 22855, Control_c, 6, 11, 98
8, 22873, Control_c, 6, 11, 95
8, 22891, Control_c, 6, 11, 92
8, 22909, Control_c, 6, 11, 89
8, 22982, Note_on_c, 6, 67, 0
8, 22982, Note_on_c, 6, 55, 0
8, 22982, Note_on_c, 6, 67, 107
8, 22982, Note_on_c, 6, 55, 107
8, 23042, Note_on_c, 6, 55, 0
8, 23042, Note_on_c, 6, 67, 0
8, 23042, Note_on_c, 6, 55, 107
8, 23042, Note_on_c, 6, 67, 107
8, 23102, Note_on_c, 6, 67, 0
8, 23102, Note_on_c, 6, 55, 0
8, 28022, Control_c, 6, 11, 102
8, 28022, Note_on_c, 6, 64, 107
8, 28022, Note_on_c, 6, 72, 107
8, 28082, Note_on_c, 6, 72, 0
8, 28082, Note_on_c, 6, 64, 0
8, 28082, Note_on_c, 6, 64, 107
8, 28082, Note_on_c, 6, 72, 107
8, 28142, Note_on_c, 6, 72, 0
8, 28142, Note_on_c, 6, 64, 0
8, 28142, Note_on_c, 6, 72, 107
8, 28142, Note_on_c, 6, 64, 107
8, 28202, Note_on_c, 6, 64, 0
8, 28202, Note_on_c, 6, 72, 0
8, 28202, Note_on_c, 6, 64, 107
8, 28202, Note_on_c, 6, 72, 107
8, 28262, Note_on_c, 6, 72, 0
8, 28262, Note_on_c, 6, 64, 0
8, 28262, Note_on_c, 6, 64, 107
8, 28262, Note_on_c, 6, 72, 107
8, 28322, Note_on_c, 6, 72, 0
8, 28322, Note_on_c, 6, 64, 0
8, 28322, Note_on_c, 6, 72, 107
8, 28322, Note_on_c, 6, 60, 107
8, 28382, Note_on_c, 6, 60, 0
8, 28382, Note_on_c, 6, 72, 0
8, 28442, Note_on_c, 6, 60, 107
8, 28442, Note_on_c, 6, 72, 107
8, 28502, Note_on_c, 6, 72, 0
8, 28502, Note_on_c, 6, 60, 0
8, 28562, Note_on_c, 6, 60, 107
8, 28562, Note_on_c, 6, 72, 107
8, 28622, Note_on_c, 6, 72, 0
8, 28622, Note_on_c, 6, 60, 0
8, 28682, Note_on_c, 6, 74, 107
8, 28682, Note_on_c, 6, 55, 107
8, 28742, Note_on_c, 6, 55, 0
8, 28742, Note_on_c, 6, 74, 0
8, 28802, Control_c, 6, 11, 87
8, 28802, Note_on_c, 6, 72, 97
8, 28802, Note_on_c, 6, 64, 97
8, 29042, Note_on_c, 6, 64, 0
8, 29042, Note_on_c, 6, 72, 0
8, 29042, Note_on_c, 6, 67, 97
8, 29042, Note_on_c, 6, 74, 97
8, 29282, Note_on_c, 6, 74, 0
8, 29282, Note_on_c, 6, 67, 0
8, 29282, Note_on_c, 6, 72, 97
8, 29282, Note_on_c, 6, 76, 97
8, 29402, Note_on_c, 6, 76, 0
8, 29402, Note_on_c, 6, 72, 0
8, 29762, Note_on_c, 6, 72, 97
8, 29762, Note_on_c, 6, 64, 97
8, 30002, Note_on_c, 6, 64, 0
8, 30002, Note_on_c, 6, 72, 0
8, 30002, Note_on_c, 6, 67, 97
8, 30002, Note_on_c, 6, 74, 97
8, 30242, Note_on_c, 6, 74, 0
8, 30242, Note_on_c, 6, 67, 0
8, 30242, Note_on_c, 6, 76, 97
8, 30242, Note_on_c, 6, 72, 97
8, 30362, Note_on_c, 6, 72, 0
8, 30362, Note_on_c, 6, 76, 0
8, 30842, Control_c, 6, 11, 107
8, 30842, Note_on_c, 6, 72, 107
8, 30842, Note_on_c, 6, 76, 107
8, 30859, Control_c, 6, 11, 104
8, 30877, Control_c, 6, 11, 101
8, 30895, Control_c, 6, 11, 98
8, 30913, Control_c, 6, 11, 95
8, 30931, Control_c, 6, 11, 92
8, 30949, Control_c, 6, 11, 89
8, 31202, Note_on_c, 6, 76, 0
8, 31202, Note_on_c, 6, 72, 0
8, 31202, Note_on_c, 6, 74, 107
8, 31322, Note_on_c, 6, 74, 0
8, 31322, Note_on_c, 6, 74, 107
8, 31322, Control_c, 6, 11, 107
8, 31339, Control_c, 6, 11, 104
8, 31357, Control_c, 6, 11, 101
8, 31375, Control_c, 6, 11, 98
8, 31393, Control_c, 6, 11, 95
8, 31411, Control_c, 6, 11, 92
8, 31429, Control_c, 6, 11, 89
8, 31682, Note_on_c, 6, 74, 0
8, 31682, Note_on_c, 6, 60, 107
8, 31682, Note_on_c, 6, 72, 107
8, 31802, Note_on_c, 6, 72, 0
8, 31802, Note_on_c, 6, 60, 0
8, 33602, Note_on_c, 6, 74, 107
8, 34202, Note_on_c, 6, 74, 0
8, 34202, Note_on_c, 6, 74, 107
8, 34292, Note_on_c, 6, 74, 0
8, 34322, Note_on_c, 6, 74, 107
8, 34412, Note_on_c, 6, 74, 0
8, 34442, Note_on_c, 6, 74, 107
8, 34532, Note_on_c, 6, 74, 0
8, 34562, Note_on_c, 6, 74, 107
8, 34652, Note_on_c, 6, 74, 0
8, 39962, Note_on_c, 6, 76, 107
8, 39962, Control_c, 6, 11, 87
8, 40082, Note_on_c, 6, 76, 0
8, 40082, Note_on_c, 6, 74, 107
8, 40202, Note_on_c, 6, 74, 0
8, 40202, Note_on_c, 6, 74, 107
8, 40322, Note_on_c, 6, 74, 0
8, 40322, Note_on_c, 6, 67, 107
8, 40322, Note_on_c, 6, 74, 107
8, 40442, Note_on_c, 6, 74, 0
8, 40442, Note_on_c, 6, 67, 0
8, 40622, Note_on_c, 6, 67, 107
8, 40622, Note_on_c, 6, 79, 107
8, 40622, Control_c, 6, 11, 107
8, 40639, Control_c, 6, 11, 104
8, 40657, Control_c, 6, 11, 101
8, 40675, Control_c, 6, 11, 98
8, 40693, Control_c, 6, 11, 95
8, 40711, Control_c, 6, 11, 92
8, 40727, Note_on_c, 6, 79, 0
8, 40727, Note_on_c, 6, 67, 0
8, 40729, Control_c, 6, 11, 89
8, 40742, Note_on_c, 6, 67, 107
8, 40742, Note_on_c, 6, 79, 107
8, 40802, Note_on_c, 6, 79, 0
8, 40802, Note_on_c, 6, 67, 0
8, 40802, Note_on_c, 6, 79, 107
8, 40802, Note_on_c, 6, 67, 107
8, 40862, Note_on_c, 6, 67, 0
8, 40862, Note_on_c, 6, 79, 0
8, 41102, Note_on_c, 6, 74, 107
8, 41102, Control_c, 6, 11, 107
8, 41119, Control_c, 6, 11, 104
8, 41137, Control_c, 6, 11, 101
8, 41155, Control_c, 6, 11, 98
8, 41173, Control_c, 6, 11, 95
8, 41191, Control_c, 6, 11, 92
8, 41207, Note_on_c, 6, 74, 0
8, 41209, Control_c, 6, 11, 89
8, 41222, Note_on_c, 6, 74, 107
8, 41282, Note_on_c, 6, 74, 0
8, 41282, Note_on_c, 6, 74, 107
8, 41282, Note_on_c, 6, 67, 107
8, 41342, Note_on_c, 6, 67, 0
8, 41342, Note_on_c, 6, 74, 0
8, 41582, Control_c, 6, 11, 107
8, 41582, Note_on_c, 6, 79, 107
8, 41582, Note_on_c, 6, 67, 107
8, 41599, Control_c, 6, 11, 104
8, 41617, Control_c, 6, 11, 101
8, 41635, Control_c, 6, 11, 98
8, 41653, Control_c, 6, 11, 95
8, 41671, Control_c, 6, 11, 92
8, 41687, Note_on_c, 6, 67, 0
8, 41687, Note_on_c, 6, 79, 0
8, 41689, Control_c, 6, 11, 89
8, 41702, Note_on_c, 6, 79, 107
8, 41702, Note_on_c, 6, 67, 107
8, 41762, Note_on_c, 6, 67, 0
8, 41762, Note_on_c, 6, 79, 0
8, 41762, Note_on_c, 6, 79, 107
8, 41762, Note_on_c, 6, 67, 107
8, 41822, Note_on_c, 6, 67, 0
8, 41822, Note_on_c, 6, 79, 0
8, 42062, Note_on_c, 6, 74, 107
8, 42062, Control_c, 6, 11, 107
8, 42079, Control_c, 6, 11, 104
8, 42097, Control_c, 6, 11, 101
8, 42115, Control_c, 6, 11, 98
8, 42133, Control_c, 6, 11, 95
8, 42151, Control_c, 6, 11, 92
8, 42169, Control_c, 6, 11, 89
8, 42172, Note_on_c, 6, 74, 0
8, 42182, Note_on_c, 6, 74, 107
8, 42242, Note_on_c, 6, 74, 0
8, 42242, Note_on_c, 6, 55, 107
8, 42242, Note_on_c, 6, 67, 107
8, 42242, Control_c, 6, 11, 107
8, 42259, Control_c, 6, 11, 104
8, 42277, Control_c, 6, 11, 101
8, 42295, Control_c, 6, 11, 98
8, 42313, Control_c, 6, 11, 95
8, 42331, Control_c, 6, 11, 92
8, 42349, Control_c, 6, 11, 89
8, 42602, Note_on_c, 6, 67, 0
8, 42602, Note_on_c, 6, 55, 0
8, 42602, Note_on_c, 6, 55, 107
8, 42602, Note_on_c, 6, 67, 107
8, 42662, Note_on_c, 6, 67, 0
8, 42662, Note_on_c, 6, 55, 0
8, 42662, Note_on_c, 6, 67, 107
8, 42662, Note_on_c, 6, 55, 107
8, 42722, Note_on_c, 6, 55, 0
8, 42722, Note_on_c, 6, 67, 0
8, 42722, Control_c, 6, 11, 107
8, 42722, Note_on_c, 6, 55, 107
8, 42722, Note_on_c, 6, 67, 107
8, 42739, Control_c, 6, 11, 104
8, 42757, Control_c, 6, 11, 101
8, 42775, Control_c, 6, 11, 98
8, 42793, Control_c, 6, 11, 95
8, 42811, Control_c, 6, 11, 92
8, 42829, Control_c, 6, 11, 89
8, 43082, Note_on_c, 6, 67, 0
8, 43082, Note_on_c, 6, 55, 0
8, 43082, Note_on_c, 6, 55, 107
8, 43082, Note_on_c, 6, 67, 107
8, 43142, Note_on_c, 6, 67, 0
8, 43142, Note_on_c, 6, 55, 0
8, 43142, Note_on_c, 6, 67, 107
8, 43142, Note_on_c, 6, 55, 107
8, 43202, Note_on_c, 6, 55, 0
8, 43202, Note_on_c, 6, 67, 0
8, 43202, Control_c, 6, 11, 107
8, 43202, Note_on_c, 6, 55, 107
8, 43202, Note_on_c, 6, 67, 107
8, 43219, Control_c, 6, 11, 104
8, 43237, Control_c, 6, 11, 101
8, 43255, Control_c, 6, 11, 98
8, 43273, Control_c, 6, 11, 95
8, 43291, Control_c, 6, 11, 92
8, 43309, Control_c, 6, 11, 89
8, 43562, Note_on_c, 6, 67, 0
8, 43562, Note_on_c, 6, 55, 0
8, 43562, Note_on_c, 6, 67, 107
8, 43562, Note_on_c, 6, 55, 107
8, 43622, Note_on_c, 6, 55, 0
8, 43622, Note_on_c, 6, 67, 0
8, 43622, Note_on_c, 6, 55, 107
8, 43622, Note_on_c, 6, 67, 107
8, 43682, Note_on_c, 6, 67, 0
8, 43682, Note_on_c, 6, 55, 0
8, 43682, Control_c, 6, 11, 107
8, 43682, Note_on_c, 6, 67, 107
8, 43682, Note_on_c, 6, 55, 107
8, 43699, Control_c, 6, 11, 104
8, 43717, Control_c, 6, 11, 101
8, 43735, Control_c, 6, 11, 98
8, 43753, Control_c, 6, 11, 95
8, 43771, Control_c, 6, 11, 92
8, 43789, Control_c, 6, 11, 89
8, 44042, Note_on_c, 6, 55, 0
8, 44042, Note_on_c, 6, 67, 0
8, 44042, Note_on_c, 6, 67, 107
8, 44042, Note_on_c, 6, 55, 107
8, 44102, Note_on_c, 6, 55, 0
8, 44102, Note_on_c, 6, 67, 0
8, 44102, Note_on_c, 6, 67, 107
8, 44102, Note_on_c, 6, 55, 107
8, 44162, Note_on_c, 6, 55, 0
8, 44162, Note_on_c, 6, 67, 0
8, 44162, Note_on_c, 6, 55, 107
8, 44162, Note_on_c, 6, 67, 107
8, 44162, Control_c, 6, 11, 107
8, 44179, Control_c, 6, 11, 104
8, 44197, Control_c, 6, 11, 101
8, 44215, Control_c, 6, 11, 98
8, 44233, Control_c, 6, 11, 95
8, 44251, Control_c, 6, 11, 92
8, 44269, Control_c, 6, 11, 89
8, 44342, Note_on_c, 6, 67, 0
8, 44342, Note_on_c, 6, 55, 0
8, 44342, Note_on_c, 6, 55, 107
8, 44342, Note_on_c, 6, 67, 107
8, 44402, Note_on_c, 6, 67, 0
8, 44402, Note_on_c, 6, 55, 0
8, 44402, Control_c, 6, 11, 107
8, 44402, Note_on_c, 6, 67, 107
8, 44402, Note_on_c, 6, 55, 107
8, 44419, Control_c, 6, 11, 104
8, 44437, Control_c, 6, 11, 101
8, 44455, Control_c, 6, 11, 98
8, 44473, Control_c, 6, 11, 95
8, 44491, Control_c, 6, 11, 92
8, 44509, Control_c, 6, 11, 89
8, 44582, Note_on_c, 6, 55, 0
8, 44582, Note_on_c, 6, 67, 0
8, 44582, Note_on_c, 6, 67, 107
8, 44582, Note_on_c, 6, 55, 107
8, 44642, Note_on_c, 6, 55, 0
8, 44642, Note_on_c, 6, 67, 0
8, 44642, Note_on_c, 6, 55, 97
8, 44642, Note_on_c, 6, 67, 97
8, 44717, Control_c, 6, 11, 87
8, 44721, Control_c, 6, 11, 84
8, 44725, Control_c, 6, 11, 81
8, 44730, Control_c, 6, 11, 78
8, 44734, Control_c, 6, 11, 75
8, 44739, Control_c, 6, 11, 72
8, 44743, Control_c, 6, 11, 69
8, 44747, Control_c, 6, 11, 66
8, 44752, Control_c, 6, 11, 63
8, 44756, Control_c, 6, 11, 60
8, 44761, Control_c, 6, 11, 57
8, 44762, Note_on_c, 6, 67, 0
8, 44762, Note_on_c, 6, 55, 0
8, 56162, Note_on_c, 6, 67, 107
8, 56162, Note_on_c, 6, 79, 107
8, 56162, Control_c, 6, 11, 102
8, 56402, Note_on_c, 6, 79, 0
8, 56402, Note_on_c, 6, 67, 0
8, 56402, Note_on_c, 6, 67, 107
8, 56402, Note_on_c, 6, 79, 107
8, 56522, Note_on_c, 6, 79, 0
8, 56522, Note_on_c, 6, 67, 0
8, 56522, Note_on_c, 6, 79, 107
8, 56522, Note_on_c, 6, 67, 107
8, 56642, Note_on_c, 6, 67, 0
8, 56642, Note_on_c, 6, 79, 0
8, 56642, Note_on_c, 6, 67, 107
8, 56642, Note_on_c, 6, 79, 107
8, 56882, Note_on_c, 6, 79, 0
8, 56882, Note_on_c, 6, 67, 0
8, 56882, Note_on_c, 6, 67, 107
8, 56882, Note_on_c, 6, 79, 107
8, 57002, Note_on_c, 6, 79, 0
8, 57002, Note_on_c, 6, 67, 0
8, 57002, Note_on_c, 6, 79, 107
8, 57002, Note_on_c, 6, 67, 107
8, 57122, Note_on_c, 6, 67, 0
8, 57122, Note_on_c, 6, 79, 0
8, 57122, Note_on_c, 6, 67, 107
8, 57122, Note_on_c, 6, 79, 107
8, 57242, Note_on_c, 6, 79, 0
8, 57242, Note_on_c, 6, 67, 0
8, 57242, Note_on_c, 6, 55, 107
8, 57242, Note_on_c, 6, 67, 107
8, 57242, Control_c, 6, 11, 122
8, 57259, Control_c, 6, 11, 119
8, 57277, Control_c, 6, 11, 116
8, 57295, Control_c, 6, 11, 113
8, 57313, Control_c, 6, 11, 110
8, 57331, Control_c, 6, 11, 107
8, 57349, Control_c, 6, 11, 104
8, 57722, Note_on_c, 6, 67, 0
8, 57722, Note_on_c, 6, 55, 0
8, 57722, Note_on_c, 6, 67, 107
8, 57722, Note_on_c, 6, 55, 107
8, 57722, Control_c, 6, 11, 122
8, 57739, Control_c, 6, 11, 119
8, 57757, Control_c, 6, 11, 116
8, 57775, Control_c, 6, 11, 113
8, 57793, Control_c, 6, 11, 110
8, 57811, Control_c, 6, 11, 107
8, 57829, Control_c, 6, 11, 104
8, 58202, Note_on_c, 6, 55, 0
8, 58202, Note_on_c, 6, 67, 0
8, 58202, Control_c, 6, 11, 122
8, 58202, Note_on_c, 6, 67, 107
8, 58202, Note_on_c, 6, 55, 107
8, 58219, Control_c, 6, 11, 119
8, 58237, Control_c, 6, 11, 116
8, 58255, Control_c, 6, 11, 113
8, 58273, Control_c, 6, 11, 110
8, 58291, Control_c, 6, 11, 107
8, 58309, Control_c, 6, 11, 104
8, 58682, Note_on_c, 6, 55, 0
8, 58682, Note_on_c, 6, 67, 0
8, 58682, Control_c, 6, 11, 122
8, 58682, Note_on_c, 6, 67, 107
8, 58682, Note_on_c, 6, 55, 107
8, 58699, Control_c, 6, 11, 119
8, 58717, Control_c, 6, 11, 116
8, 58735, Control_c, 6, 11, 113
8, 58753, Control_c, 6, 11, 110
8, 58771, Control_c, 6, 11, 107
8, 58789, Control_c, 6, 11, 104
8, 59162, Note_on_c, 6, 55, 0
8, 59162, Note_on_c, 6, 67, 0
8, 59162, Control_c, 6, 11, 122
8, 59162, Note_on_c, 6, 67, 107
8, 59162, Note_on_c, 6, 55, 107
8, 59179, Control_c, 6, 11, 119
8, 59197, Control_c, 6, 11, 116
8, 59215, Control_c, 6, 11, 113
8, 59233, Control_c, 6, 11, 110
8, 59251, Control_c, 6, 11, 107
8, 59269, Control_c, 6, 11, 104
8, 59282, Note_on_c, 6, 55, 0
8, 59282, Note_on_c, 6, 67, 0
8, 59402, Control_c, 6, 11, 122
8, 59402, Note_on_c, 6, 67, 107
8, 59402, Note_on_c, 6, 55, 107
8, 59419, Control_c, 6, 11, 119
8, 59437, Control_c, 6, 11, 116
8, 59455, Control_c, 6, 11, 113
8, 59473, Control_c, 6, 11, 110
8, 59491, Control_c, 6, 11, 107
8, 59509, Control_c, 6, 11, 104
8, 59522, Note_on_c, 6, 55, 0
8, 59522, Note_on_c, 6, 67, 0
8, 59642, Control_c, 6, 11, 122
8, 59642, Note_on_c, 6, 67, 107
8, 59642, Note_on_c, 6, 55, 107
8, 59659, Control_c, 6, 11, 119
8, 59677, Control_c, 6, 11, 116
8, 59695, Control_c, 6, 11, 113
8, 59713, Control_c, 6, 11, 110
8, 59731, Control_c, 6, 11, 107
8, 59749, Control_c, 6, 11, 104
8, 59762, Note_on_c, 6, 55, 0
8, 59762, Note_on_c, 6, 67, 0
8, 59882, Control_c, 6, 11, 122
8, 59882, Note_on_c, 6, 55, 107
8, 59882, Note_on_c, 6, 67, 107
8, 59899, Control_c, 6, 11, 119
8, 59917, Control_c, 6, 11, 116
8, 59935, Control_c, 6, 11, 113
8, 59953, Control_c, 6, 11, 110
8, 59971, Control_c, 6, 11, 107
8, 59989, Control_c, 6, 11, 104
8, 60002, Note_on_c, 6, 67, 0
8, 60002, Note_on_c, 6, 55, 0
8, 60002, Note_on_c, 6, 55, 107
8, 60002, Note_on_c, 6, 67, 107
8, 60122, Note_on_c, 6, 67, 0
8, 60122, Note_on_c, 6, 55, 0
8, 65582, Note_on_c, 6, 74, 107
8, 65582, Control_c, 6, 11, 87
8, 65642, Note_on_c, 6, 74, 0
8, 65642, Note_on_c, 6, 74, 107
8, 65702, Note_on_c, 6, 74, 0
8, 65702, Note_on_c, 6, 74, 107
8, 65762, Note_on_c, 6, 74, 0
8, 65762, Note_on_c, 6, 74, 107
8, 65942, Note_on_c, 6, 74, 0
8, 66062, Note_on_c, 6, 60, 107
8, 66062, Note_on_c, 6, 72, 107
8, 66122, Note_on_c, 6, 72, 0
8, 66122, Note_on_c, 6, 60, 0
8, 66122, Note_on_c, 6, 60, 107
8, 66122, Note_on_c, 6, 72, 107
8, 66182, Note_on_c, 6, 72, 0
8, 66182, Note_on_c, 6, 60, 0
8, 66182, Note_on_c, 6, 72, 107
8, 66182, Note_on_c, 6, 60, 107
8, 66242, Note_on_c, 6, 60, 0
8, 66242, Note_on_c, 6, 72, 0
8, 66242, Note_on_c, 6, 60, 107
8, 66242, Note_on_c, 6, 72, 107
8, 66422, Note_on_c, 6, 72, 0
8, 66422, Note_on_c, 6, 60, 0
8, 66542, Note_on_c, 6, 60, 107
8, 66542, Note_on_c, 6, 72, 107
8, 66602, Note_on_c, 6, 72, 0
8, 66602, Note_on_c, 6, 60, 0
8, 66602, Note_on_c, 6, 72, 107
8, 66602, Note_on_c, 6, 60, 107
8, 66662, Note_on_c, 6, 60, 0
8, 66662, Note_on_c, 6, 72, 0
8, 66662, Note_on_c, 6, 60, 107
8, 66662, Note_on_c, 6, 72, 107
8, 66722, Note_on_c, 6, 72, 0
8, 66722, Note_on_c, 6, 60, 0
8, 66722, Note_on_c, 6, 74, 107
8, 66962, Note_on_c, 6, 74, 0
8, 66962, Note_on_c, 6, 67, 107
8, 66962, Note_on_c, 6, 74, 107
8, 67202, Note_on_c, 6, 74, 0
8, 67202, Note_on_c, 6, 67, 0
8, 67202, Note_on_c, 6, 72, 92
8, 67202, Note_on_c, 6, 60, 92
8, 67322, Note_on_c, 6, 60, 0
8, 67322, Note_on_c, 6, 72, 0
8, 74222, Note_on_c, 6, 60, 107
8, 74222, Note_on_c, 6, 72, 107
8, 74222, Control_c, 6, 11, 122
8, 74240, Control_c, 6, 11, 119
8, 74258, Control_c, 6, 11, 116
8, 74276, Control_c, 6, 11, 113
8, 74294, Control_c, 6, 11, 110
8, 74312, Control_c, 6, 11, 107
8, 74327, Note_on_c, 6, 72, 0
8, 74327, Note_on_c, 6, 60, 0
8, 74330, Control_c, 6, 11, 104
8, 74342, Note_on_c, 6, 72, 107
8, 74342, Note_on_c, 6, 60, 107
8, 74402, Note_on_c, 6, 60, 0
8, 74402, Note_on_c, 6, 72, 0
8, 74402, Note_on_c, 6, 55, 107
8, 74402, Note_on_c, 6, 67, 107
8, 74462, Note_on_c, 6, 67, 0
8, 74462, Note_on_c, 6, 55, 0
8, 74702, Note_on_c, 6, 55, 107
8, 74702, Note_on_c, 6, 67, 107
8, 74702, Control_c, 6, 11, 122
8, 74720, Control_c, 6, 11, 119
8, 74738, Control_c, 6, 11, 116
8, 74756, Control_c, 6, 11, 113
8, 74774, Control_c, 6, 11, 110
8, 74792, Control_c, 6, 11, 107
8, 74807, Note_on_c, 6, 67, 0
8, 74807, Note_on_c, 6, 55, 0
8, 74810, Control_c, 6, 11, 104
8, 74822, Note_on_c, 6, 67, 107
8, 74822, Note_on_c, 6, 55, 107
8, 74882, Note_on_c, 6, 55, 0
8, 74882, Note_on_c, 6, 67, 0
8, 74882, Note_on_c, 6, 60, 107
8, 74882, Note_on_c, 6, 72, 107
8, 74942, Note_on_c, 6, 72, 0
8, 74942, Note_on_c, 6, 60, 0
8, 75182, Control_c, 6, 11, 122
8, 75182, Note_on_c, 6, 60, 107
8, 75182, Note_on_c, 6, 72, 107
8, 75200, Control_c, 6, 11, 119
8, 75218, Control_c, 6, 11, 116
8, 75236, Control_c, 6, 11, 113
8, 75254, Control_c, 6, 11, 110
8, 75272, Control_c, 6, 11, 107
8, 75287, Note_on_c, 6, 72, 0
8, 75287, Note_on_c, 6, 60, 0
8, 75290, Control_c, 6, 11, 104
8, 75302, Note_on_c, 6, 60, 107
8, 75302, Note_on_c, 6, 72, 107
8, 75362, Note_on_c, 6, 72, 0
8, 75362, Note_on_c, 6, 60, 0
8, 75362, Note_on_c, 6, 67, 107
8, 75362, Note_on_c, 6, 55, 107
8, 75422, Note_on_c, 6, 55, 0
8, 75422, Note_on_c, 6, 67, 0
8, 75662, Control_c, 6, 11, 122
8, 75662, Note_on_c, 6, 67, 107
8, 75662, Note_on_c, 6, 55, 107
8, 75680, Control_c, 6, 11, 119
8, 75698, Control_c, 6, 11, 116
8, 75716, Control_c, 6, 11, 113
8, 75734, Control_c, 6, 11, 110
8, 75752, Control_c, 6, 11, 107
8, 75767, Note_on_c, 6, 55, 0
8, 75767, Note_on_c, 6, 67, 0
8, 75770, Control_c, 6, 11, 104
8, 75782, Note_on_c, 6, 67, 107
8, 75782, Note_on_c, 6, 55, 107
8, 75842, Note_on_c, 6, 55, 0
8, 75842, Note_on_c, 6, 67, 0
8, 75842, Control_c, 6, 11, 102
8, 75842, Note_on_c, 6, 72, 107
8, 75842, Note_on_c, 6, 60, 107
8, 76202, Note_on_c, 6, 60, 0
8, 76202, Note_on_c, 6, 72, 0
8, 76202, Note_on_c, 6, 60, 107
8, 76202, Note_on_c, 6, 72, 107
8, 76250, Note_on_c, 6, 72, 0
8, 76250, Note_on_c, 6, 60, 0
8, 76262, Note_on_c, 6, 72, 107
8, 76262, Note_on_c, 6, 60, 107
8, 76310, Note_on_c, 6, 60, 0
8, 76310, Note_on_c, 6, 72, 0
8, 76322, Control_c, 6, 11, 122
8, 76322, Note_on_c, 6, 60, 107
8, 76322, Note_on_c, 6, 72, 107
8, 76340, Control_c, 6, 11, 119
8, 76358, Control_c, 6, 11, 116
8, 76376, Control_c, 6, 11, 113
8, 76394, Control_c, 6, 11, 110
8, 76412, Control_c, 6, 11, 107
8, 76430, Control_c, 6, 11, 104
8, 76682, Note_on_c, 6, 72, 0
8, 76682, Note_on_c, 6, 60, 0
8, 76682, Note_on_c, 6, 72, 107
8, 76682, Note_on_c, 6, 60, 107
8, 76730, Note_on_c, 6, 60, 0
8, 76730, Note_on_c, 6, 72, 0
8, 76742, Note_on_c, 6, 60, 107
8, 76742, Note_on_c, 6, 72, 107
8, 76790, Note_on_c, 6, 72, 0
8, 76790, Note_on_c, 6, 60, 0
8, 76802, Control_c, 6, 11, 122
8, 76802, Note_on_c, 6, 72, 107
8, 76802, Note_on_c, 6, 60, 107
8, 76820, Control_c, 6, 11, 119
8, 76838, Control_c, 6, 11, 116
8, 76856, Control_c, 6, 11, 113
8, 76874, Control_c, 6, 11, 110
8, 76892, Control_c, 6, 11, 107
8, 76910, Control_c, 6, 11, 104
8, 77162, Note_on_c, 6, 60, 0
8, 77162, Note_on_c, 6, 72, 0
8, 77162, Note_on_c, 6, 60, 107
8, 77162, Note_on_c, 6, 72, 107
8, 77210, Note_on_c, 6, 72, 0
8, 77210, Note_on_c, 6, 60, 0
8, 77222, Note_on_c, 6, 72, 107
8, 77222, Note_on_c, 6, 60, 107
8, 77270, Note_on_c, 6, 60, 0
8, 77270, Note_on_c, 6, 72, 0
8, 77282, Note_on_c, 6, 60, 107
8, 77282, Note_on_c, 6, 72, 107
8, 77487, Note_on_c, 6, 72, 0
8, 77487, Note_on_c, 6, 60, 0
8, 77492, Note_on_c, 6, 72, 107
8, 77492, Note_on_c, 6, 60, 107
8, 77517, Note_on_c, 6, 60, 0
8, 77517, Note_on_c, 6, 72, 0
8, 77522, Note_on_c, 6, 72, 107
8, 77522, Note_on_c, 6, 60, 107
8, 77727, Note_on_c, 6, 60, 0
8, 77727, Note_on_c, 6, 72, 0
8, 77732, Note_on_c, 6, 60, 107
8, 77732, Note_on_c, 6, 72, 107
8, 77757, Note_on_c, 6, 72, 0
8, 77757, Note_on_c, 6, 60, 0
8, 77762, Note_on_c, 6, 60, 107
8, 77762, Note_on_c, 6, 72, 107
8, 77822, Note_on_c, 6, 72, 0
8, 77822, Note_on_c, 6, 60, 0
8, 77882, Note_on_c, 6, 60, 107
8, 77882, Note_on_c, 6, 72, 107
8, 77882, Control_c, 6, 11, 122
8, 77900, Control_c, 6, 11, 119
8, 77918, Control_c, 6, 11, 116
8, 77936, Control_c, 6, 11, 113
8, 77954, Control_c, 6, 11, 110
8, 77972, Control_c, 6, 11, 107
8, 77990, Control_c, 6, 11, 104
8, 78197, Control_c, 6, 11, 102
8, 78198, Control_c, 6, 11, 99
8, 78200, Control_c, 6, 11, 95
8, 78201, Control_c, 6, 11, 92
8, 78203, Control_c, 6, 11, 88
8, 78204, Control_c, 6, 11, 85
8, 78206, Control_c, 6, 11, 81
8, 78207, Control_c, 6, 11, 78
8, 78209, Control_c, 6, 11, 74
8, 78210, Control_c, 6, 11, 71
8, 78212, Note_on_c, 6, 72, 0
8, 78212, Note_on_c, 6, 60, 0
8, 78212, Control_c, 6, 11, 67
8, 78242, Control_c, 6, 11, 102
8, 78242, Note_on_c, 6, 67, 107
8, 78242, Note_on_c, 6, 74, 107
8, 78302, Note_on_c, 6, 74, 0
8, 78302, Note_on_c, 6, 67, 0
8, 78362, Control_c, 6, 11, 122
8, 78362, Note_on_c, 6, 67, 107
8, 78362, Note_on_c, 6, 79, 107
8, 78380, Control_c, 6, 11, 119
8, 78398, Control_c, 6, 11, 116
8, 78416, Control_c, 6, 11, 113
8, 78434, Control_c, 6, 11, 110
8, 78452, Control_c, 6, 11, 107
8, 78470, Control_c, 6, 11, 104
8, 78612, Control_c, 6, 11, 102
8, 78614, Control_c, 6, 11, 98
8, 78616, Control_c, 6, 11, 95
8, 78618, Control_c, 6, 11, 91
8, 78620, Control_c, 6, 11, 88
8, 78622, Control_c, 6, 11, 84
8, 78624, Control_c, 6, 11, 81
8, 78626, Control_c, 6, 11, 77
8, 78628, Control_c, 6, 11, 74
8, 78630, Control_c, 6, 11, 70
8, 78632, Note_on_c, 6, 79, 0
8, 78632, Note_on_c, 6, 67, 0
8, 78632, Control_c, 6, 11, 67
8, 84182, Note_on_c, 6, 77, 117
8, 84182, Note_on_c, 6, 74, 117
8, 84182, Control_c, 6, 11, 102
8, 84242, Note_on_c, 6, 74, 0
8, 84242, Note_on_c, 6, 77, 0
8, 84242, Note_on_c, 6, 74, 117
8, 84242, Note_on_c, 6, 77, 117
8, 84302, Note_on_c, 6, 77, 0
8, 84302, Note_on_c, 6, 74, 0
8, 84302, Note_on_c, 6, 74, 117
8, 84302, Note_on_c, 6, 77, 117
8, 84362, Note_on_c, 6, 77, 0
8, 84362, Note_on_c, 6, 74, 0
8, 84362, Note_on_c, 6, 74, 117
8, 84362, Note_on_c, 6, 77, 117
8, 84422, Note_on_c, 6, 77, 0
8, 84422, Note_on_c, 6, 74, 0
8, 84422, Note_on_c, 6, 77, 117
8, 84422, Note_on_c, 6, 74, 117
8, 84482, Note_on_c, 6, 74, 0
8, 84482, Note_on_c, 6, 77, 0
8, 84482, Note_on_c, 6, 74, 117
8, 84482, Note_on_c, 6, 77, 117
8, 84602, Note_on_c, 6, 77, 0
8, 84602, Note_on_c, 6, 74, 0
8, 84602, Note_on_c, 6, 72, 117
8, 84602, Note_on_c, 6, 76, 117
8, 84662, Note_on_c, 6, 76, 0
8, 84662, Note_on_c, 6, 72, 0
8, 84662, Note_on_c, 6, 72, 117
8, 84662, Note_on_c, 6, 64, 117
8, 84692, Note_on_c, 6, 64, 0
8, 84692, Note_on_c, 6, 72, 0
8, 84722, Note_on_c, 6, 72, 117
8, 84722, Note_on_c, 6, 64, 117
8, 84782, Note_on_c, 6, 64, 0
8, 84782, Note_on_c, 6, 72, 0
8, 84782, Note_on_c, 6, 72, 117
8, 84782, Note_on_c, 6, 64, 117
8, 84842, Note_on_c, 6, 64, 0
8, 84842, Note_on_c, 6, 72, 0
8, 84842, Note_on_c, 6, 64, 117
8, 84842, Note_on_c, 6, 72, 117
8, 84902, Note_on_c, 6, 72, 0
8, 84902, Note_on_c, 6, 64, 0
8, 84902, Note_on_c, 6, 72, 117
8, 84902, Note_on_c, 6, 64, 117
8, 84962, Note_on_c, 6, 64, 0
8, 84962, Note_on_c, 6, 72, 0
8, 84962, Note_on_c, 6, 74, 117
8, 85082, Note_on_c, 6, 74, 0
8, 85202, Note_on_c, 6, 72, 117
8, 85202, Note_on_c, 6, 76, 117
8, 85322, Note_on_c, 6, 76, 0
8, 85322, Note_on_c, 6, 72, 0
8, 85322, Note_on_c, 6, 74, 117
8, 85322, Note_on_c, 6, 67, 117
8, 85442, Note_on_c, 6, 67, 0
8, 85442, Note_on_c, 6, 74, 0
8, 85442, Note_on_c, 6, 64, 117
8, 85442, Note_on_c, 6, 72, 117
8, 85562, Note_on_c, 6, 72, 0
8, 85562, Note_on_c, 6, 64, 0
8, 85922, Note_on_c, 6, 72, 107
8, 85922, Note_on_c, 6, 60, 107
8, 86042, Note_on_c, 6, 60, 0
8, 86042, Note_on_c, 6, 72, 0
8, 90122, Control_c, 6, 11, 77
8, 90122, Note_on_c, 6, 72, 107
8, 90122, Note_on_c, 6, 76, 107
8, 90150, Control_c, 6, 11, 79
8, 90165, Control_c, 6, 11, 80
8, 90182, Note_on_c, 6, 76, 0
8, 90182, Note_on_c, 6, 72, 0
8, 90182, Note_on_c, 6, 76, 107
8, 90182, Note_on_c, 6, 72, 107
8, 90194, Control_c, 6, 11, 82
8, 90222, Control_c, 6, 11, 84
8, 90237, Control_c, 6, 11, 85
8, 90242, Note_on_c, 6, 72, 0
8, 90242, Note_on_c, 6, 76, 0
8, 90242, Note_on_c, 6, 72, 107
8, 90242, Note_on_c, 6, 76, 107
8, 90266, Control_c, 6, 11, 87
8, 90294, Control_c, 6, 11, 89
8, 90302, Note_on_c, 6, 76, 0
8, 90302, Note_on_c, 6, 72, 0
8, 90302, Note_on_c, 6, 72, 107
8, 90302, Note_on_c, 6, 76, 107
8, 90309, Control_c, 6, 11, 90
8, 90338, Control_c, 6, 11, 92
8, 90362, Note_on_c, 6, 76, 0
8, 90362, Note_on_c, 6, 72, 0
8, 90362, Note_on_c, 6, 76, 107
8, 90362, Note_on_c, 6, 72, 107
8, 90366, Control_c, 6, 11, 94
8, 90381, Control_c, 6, 11, 95
8, 90410, Control_c, 6, 11, 97
8, 90422, Note_on_c, 6, 72, 0
8, 90422, Note_on_c, 6, 76, 0
8, 90422, Note_on_c, 6, 72, 107
8, 90422, Note_on_c, 6, 76, 107
8, 90438, Control_c, 6, 11, 99
8, 90453, Control_c, 6, 11, 100
8, 90482, Note_on_c, 6, 76, 0
8, 90482, Note_on_c, 6, 72, 0
8, 90482, Control_c, 6, 11, 102
8, 90482, Note_on_c, 6, 74, 107
8, 90482, Note_on_c, 6, 77, 107
8, 90722, Note_on_c, 6, 77, 0
8, 90722, Note_on_c, 6, 74, 0
8, 90722, Note_on_c, 6, 74, 107
8, 90722, Note_on_c, 6, 67, 107
8, 90962, Note_on_c, 6, 67, 0
8, 90962, Note_on_c, 6, 74, 0
8, 90962, Note_on_c, 6, 72, 107
8, 90962, Note_on_c, 6, 60, 107
8, 90962, Control_c, 6, 11, 122
8, 90980, Control_c, 6, 11, 119
8, 90998, Control_c, 6, 11, 116
8, 91016, Control_c, 6, 11, 113
8, 91034, Control_c, 6, 11, 110
8, 91052, Control_c, 6, 11, 107
8, 91070, Control_c, 6, 11, 104
8, 91322, Note_on_c, 6, 60, 0
8, 91322, Note_on_c, 6, 72, 0
8, 91322, Note_on_c, 6, 72, 107
8, 91322, Note_on_c, 6, 60, 107
8, 91352, Note_on_c, 6, 60, 0
8, 91352, Note_on_c, 6, 72, 0
8, 91382, Note_on_c, 6, 72, 107
8, 91382, Note_on_c, 6, 60, 107
8, 91412, Note_on_c, 6, 60, 0
8, 91412, Note_on_c, 6, 72, 0
8, 91442, Note_on_c, 6, 76, 107
8, 91442, Control_c, 6, 11, 122
8, 91442, Note_on_c, 6, 64, 107
8, 91460, Control_c, 6, 11, 119
8, 91478, Control_c, 6, 11, 116
8, 91496, Control_c, 6, 11, 113
8, 91514, Control_c, 6, 11, 110
8, 91532, Control_c, 6, 11, 107
8, 91550, Control_c, 6, 11, 104
8, 91802, Note_on_c, 6, 64, 0
8, 91802, Note_on_c, 6, 76, 0
8, 91802, Note_on_c, 6, 76, 107
8, 91802, Note_on_c, 6, 64, 107
8, 91832, Note_on_c, 6, 64, 0
8, 91832, Note_on_c, 6, 76, 0
8, 91862, Note_on_c, 6, 64, 107
8, 91862, Note_on_c, 6, 76, 107
8, 91892, Note_on_c, 6, 76, 0
8, 91892, Note_on_c, 6, 64, 0
8, 91922, Control_c, 6, 11, 112
8, 91922, Note_on_c, 6, 67, 107
8, 91922, Note_on_c, 6, 79, 107
8, 91940, Control_c, 6, 11, 109
8, 91958, Control_c, 6, 11, 106
8, 91976, Control_c, 6, 11, 103
8, 92162, Note_on_c, 6, 79, 0
8, 92162, Note_on_c, 6, 67, 0
8, 92162, Note_on_c, 6, 76, 107
8, 92162, Note_on_c, 6, 64, 107
8, 92222, Note_on_c, 6, 64, 0
8, 92222, Note_on_c, 6, 76, 0
8, 92282, Note_on_c, 6, 72, 107
8, 92282, Note_on_c, 6, 60, 107
8, 92342, Note_on_c, 6, 60, 0
8, 92342, Note_on_c, 6, 72, 0
8, 92402, Note_on_c, 6, 67, 107
8, 92402, Note_on_c, 6, 55, 107
8, 92462, Note_on_c, 6, 55, 0
8, 92462, Note_on_c, 6, 67, 0
8, 92522, Note_on_c, 6, 64, 107
8, 92582, Note_on_c, 6, 64, 0
8, 92642, Note_on_c, 6, 60, 107
8, 92702, Note_on_c, 6, 60, 0
8, 92762, Note_on_c, 6, 55, 107
8, 92822, Note_on_c, 6, 55, 0
8, 92882, Note_on_c, 6, 72, 107
8, 92882, Note_on_c, 6, 60, 107
8, 92978, Note_on_c, 6, 60, 0
8, 92978, Note_on_c, 6, 72, 0
8, 93122, Note_on_c, 6, 74, 107
8, 93122, Note_on_c, 6, 67, 107
8, 93218, Note_on_c, 6, 67, 0
8, 93218, Note_on_c, 6, 74, 0
8, 93362, Note_on_c, 6, 72, 107
8, 93362, Note_on_c, 6, 76, 107
8, 93458, Note_on_c, 6, 76, 0
8, 93458, Note_on_c, 6, 72, 0
8, 93602, Note_on_c, 6, 74, 107
8, 93602, Note_on_c, 6, 67, 107
8, 93698, Note_on_c, 6, 67, 0
8, 93698, Note_on_c, 6, 74, 0
8, 93842, Note_on_c, 6, 64, 107
8, 93842, Note_on_c, 6, 72, 107
8, 93938, Note_on_c, 6, 72, 0
8, 93938, Note_on_c, 6, 64, 0
8, 94082, Note_on_c, 6, 72, 117
8, 94082, Note_on_c, 6, 60, 117
8, 94184, Note_on_c, 6, 60, 0
8, 94184, Note_on_c, 6, 72, 0
8, 94322, Note_on_c, 6, 72, 107
8, 94322, Note_on_c, 6, 60, 107
8, 94442, Note_on_c, 6, 60, 0
8, 94442, Note_on_c, 6, 72, 0
8, 94562, Control_c, 6, 121, 0
8, 94562, End_track
9, 0, Start_track
9, 0, MIDI_port, 0
9, 0, Title_t, "Timpani"
9, 0, Program_c, 15, 47
9, 0, Control_c, 15, 10, 97
9, 11, Control_c, 15, 121, 0
9, 16, Program_c, 15, 47
9, 21, Pitch_bend_c, 15, 8192
9, 26, Control_c, 15, 11, 127
9, 31, Control_c, 15, 7, 127
9, 36, Control_c, 15, 91, 89
9, 41, Control_c, 15, 93, 0
9, 46, Control_c, 15, 10, 97
9, 51, Control_c, 15, 1, 100
9, 244, Note_on_c, 15, 43, 98
9, 394, Note_on_c, 15, 43, 0
9, 6431, Note_on_c, 15, 48, 82
9, 6491, Note_on_c, 15, 48, 0
9, 6491, Note_on_c, 15, 48, 82
9, 6521, Note_on_c, 15, 48, 0
9, 6521, Note_on_c, 15, 48, 82
9, 6551, Note_on_c, 15, 48, 0
9, 6551, Note_on_c, 15, 48, 82
9, 6581, Note_on_c, 15, 48, 0
9, 6581, Note_on_c, 15, 48, 82
9, 6611, Note_on_c, 15, 48, 0
9, 6611, Note_on_c, 15, 48, 82
9, 6641, Note_on_c, 15, 48, 0
9, 6641, Note_on_c, 15, 48, 82
9, 6671, Note_on_c, 15, 48, 0
9, 6671, Note_on_c, 15, 48, 82
9, 6701, Note_on_c, 15, 48, 0
9, 6701, Note_on_c, 15, 48, 82
9, 6731, Note_on_c, 15, 48, 0
9, 6731, Note_on_c, 15, 48, 82
9, 6791, Note_on_c, 15, 48, 0
9, 6851, Note_on_c, 15, 48, 82
9, 6911, Note_on_c, 15, 48, 0
9, 6971, Note_on_c, 15, 43, 82
9, 7031, Note_on_c, 15, 43, 0
9, 7091, Note_on_c, 15, 43, 82
9, 7151, Note_on_c, 15, 43, 0
9, 7211, Note_on_c, 15, 48, 82
9, 7331, Note_on_c, 15, 48, 0
9, 7331, Note_on_c, 15, 48, 68
9, 7361, Note_on_c, 15, 48, 0
9, 7361, Note_on_c, 15, 48, 68
9, 7391, Note_on_c, 15, 48, 0
9, 7391, Note_on_c, 15, 48, 68
9, 7421, Note_on_c, 15, 48, 0
9, 7421, Note_on_c, 15, 48, 68
9, 7451, Note_on_c, 15, 48, 0
9, 7451, Note_on_c, 15, 43, 68
9, 7571, Note_on_c, 15, 43, 0
9, 7571, Note_on_c, 15, 43, 68
9, 7601, Note_on_c, 15, 43, 0
9, 7601, Note_on_c, 15, 43, 68
9, 7631, Note_on_c, 15, 43, 0
9, 7631, Note_on_c, 15, 43, 68
9, 7661, Note_on_c, 15, 43, 0
9, 7661, Note_on_c, 15, 43, 68
9, 7691, Note_on_c, 15, 43, 0
9, 7691, Note_on_c, 15, 48, 68
9, 7811, Note_on_c, 15, 48, 0
9, 8171, Note_on_c, 15, 48, 68
9, 8291, Note_on_c, 15, 48, 0
9, 8291, Note_on_c, 15, 48, 68
9, 8321, Note_on_c, 15, 48, 0
9, 8321, Note_on_c, 15, 48, 68
9, 8351, Note_on_c, 15, 48, 0
9, 8351, Note_on_c, 15, 48, 68
9, 8381, Note_on_c, 15, 48, 0
9, 8381, Note_on_c, 15, 48, 68
9, 8411, Note_on_c, 15, 48, 0
9, 8411, Note_on_c, 15, 43, 68
9, 8531, Note_on_c, 15, 43, 0
9, 8531, Note_on_c, 15, 43, 68
9, 8561, Note_on_c, 15, 43, 0
9, 8561, Note_on_c, 15, 43, 68
9, 8591, Note_on_c, 15, 43, 0
9, 8591, Note_on_c, 15, 43, 68
9, 8621, Note_on_c, 15, 43, 0
9, 8621, Note_on_c, 15, 43, 68
9, 8651, Note_on_c, 15, 43, 0
9, 8651, Note_on_c, 15, 48, 68
9, 8771, Note_on_c, 15, 48, 0
9, 8951, Note_on_c, 15, 43, 77
9, 9011, Note_on_c, 15, 43, 0
9, 9011, Note_on_c, 15, 43, 77
9, 9071, Note_on_c, 15, 43, 0
9, 9071, Note_on_c, 15, 43, 77
9, 9131, Note_on_c, 15, 43, 0
9, 9131, Note_on_c, 15, 48, 77
9, 9251, Note_on_c, 15, 48, 0
9, 19031, Note_on_c, 15, 48, 97
9, 19061, Note_on_c, 15, 48, 0
9, 19061, Note_on_c, 15, 48, 92
9, 19091, Note_on_c, 15, 48, 0
9, 19091, Note_on_c, 15, 48, 87
9, 19121, Note_on_c, 15, 48, 0
9, 19121, Note_on_c, 15, 48, 87
9, 19151, Note_on_c, 15, 48, 0
9, 19151, Note_on_c, 15, 48, 87
9, 19181, Note_on_c, 15, 48, 0
9, 19181, Note_on_c, 15, 48, 87
9, 19211, Note_on_c, 15, 48, 0
9, 19211, Note_on_c, 15, 43, 87
9, 19271, Note_on_c, 15, 43, 0
9, 19991, Note_on_c, 15, 48, 97
9, 20021, Note_on_c, 15, 48, 0
9, 20021, Note_on_c, 15, 48, 92
9, 20051, Note_on_c, 15, 48, 0
9, 20051, Note_on_c, 15, 48, 87
9, 20081, Note_on_c, 15, 48, 0
9, 20081, Note_on_c, 15, 48, 87
9, 20111, Note_on_c, 15, 48, 0
9, 20111, Note_on_c, 15, 48, 87
9, 20141, Note_on_c, 15, 48, 0
9, 20141, Note_on_c, 15, 48, 87
9, 20171, Note_on_c, 15, 48, 0
9, 20171, Note_on_c, 15, 43, 87
9, 20231, Note_on_c, 15, 43, 0
9, 20651, Note_on_c, 15, 43, 97
9, 20771, Note_on_c, 15, 43, 0
9, 21011, Note_on_c, 15, 43, 87
9, 21041, Note_on_c, 15, 43, 0
9, 21041, Note_on_c, 15, 43, 87
9, 21071, Note_on_c, 15, 43, 0
9, 21071, Note_on_c, 15, 43, 87
9, 21101, Note_on_c, 15, 43, 0
9, 21101, Note_on_c, 15, 43, 87
9, 21131, Note_on_c, 15, 43, 0
9, 21131, Note_on_c, 15, 43, 97
9, 21251, Note_on_c, 15, 43, 0
9, 21491, Note_on_c, 15, 43, 87
9, 21521, Note_on_c, 15, 43, 0
9, 21521, Note_on_c, 15, 43, 87
9, 21551, Note_on_c, 15, 43, 0
9, 21551, Note_on_c, 15, 43, 87
9, 21581, Note_on_c, 15, 43, 0
9, 21581, Note_on_c, 15, 43, 87
9, 21611, Note_on_c, 15, 43, 0
9, 21611, Note_on_c, 15, 43, 97
9, 21731, Note_on_c, 15, 43, 0
9, 21971, Note_on_c, 15, 43, 87
9, 22001, Note_on_c, 15, 43, 0
9, 22001, Note_on_c, 15, 43, 87
9, 22031, Note_on_c, 15, 43, 0
9, 22031, Note_on_c, 15, 43, 87
9, 22061, Note_on_c, 15, 43, 0
9, 22061, Note_on_c, 15, 43, 87
9, 22091, Note_on_c, 15, 43, 0
9, 22091, Note_on_c, 15, 48, 97
9, 22211, Note_on_c, 15, 48, 0
9, 22452, Note_on_c, 15, 48, 88
9, 22479, Note_on_c, 15, 48, 0
9, 22484, Note_on_c, 15, 48, 90
9, 22511, Note_on_c, 15, 48, 0
9, 22512, Note_on_c, 15, 48, 88
9, 22539, Note_on_c, 15, 48, 0
9, 22544, Note_on_c, 15, 48, 87
9, 22569, Note_on_c, 15, 43, 101
9, 22571, Note_on_c, 15, 48, 0
9, 22596, Note_on_c, 15, 43, 0
9, 22600, Note_on_c, 15, 43, 99
9, 22627, Note_on_c, 15, 43, 0
9, 22630, Note_on_c, 15, 43, 93
9, 22657, Note_on_c, 15, 43, 0
9, 22659, Note_on_c, 15, 43, 91
9, 22686, Note_on_c, 15, 43, 0
9, 22694, Note_on_c, 15, 43, 91
9, 22721, Note_on_c, 15, 43, 0
9, 22722, Note_on_c, 15, 43, 91
9, 22749, Note_on_c, 15, 43, 0
9, 22750, Note_on_c, 15, 43, 87
9, 22777, Note_on_c, 15, 43, 0
9, 22779, Note_on_c, 15, 43, 87
9, 22806, Note_on_c, 15, 43, 0
9, 22813, Note_on_c, 15, 43, 102
9, 22840, Note_on_c, 15, 43, 0
9, 22840, Note_on_c, 15, 43, 94
9, 22867, Note_on_c, 15, 43, 0
9, 22872, Note_on_c, 15, 43, 91
9, 22899, Note_on_c, 15, 43, 0
9, 22899, Note_on_c, 15, 43, 89
9, 22926, Note_on_c, 15, 43, 0
9, 22933, Note_on_c, 15, 43, 91
9, 22960, Note_on_c, 15, 43, 0
9, 22962, Note_on_c, 15, 43, 87
9, 22989, Note_on_c, 15, 43, 0
9, 22991, Note_on_c, 15, 43, 88
9, 23018, Note_on_c, 15, 43, 0
9, 23023, Note_on_c, 15, 43, 88
9, 23050, Note_on_c, 15, 43, 0
9, 23051, Note_on_c, 15, 43, 87
9, 23141, Note_on_c, 15, 43, 0
9, 28031, Note_on_c, 15, 48, 82
9, 28091, Note_on_c, 15, 48, 0
9, 28091, Note_on_c, 15, 48, 82
9, 28121, Note_on_c, 15, 48, 0
9, 28121, Note_on_c, 15, 48, 82
9, 28151, Note_on_c, 15, 48, 0
9, 28151, Note_on_c, 15, 48, 82
9, 28181, Note_on_c, 15, 48, 0
9, 28181, Note_on_c, 15, 48, 82
9, 28211, Note_on_c, 15, 48, 0
9, 28211, Note_on_c, 15, 48, 82
9, 28241, Note_on_c, 15, 48, 0
9, 28241, Note_on_c, 15, 48, 82
9, 28271, Note_on_c, 15, 48, 0
9, 28271, Note_on_c, 15, 48, 82
9, 28301, Note_on_c, 15, 48, 0
9, 28301, Note_on_c, 15, 48, 82
9, 28331, Note_on_c, 15, 48, 0
9, 28331, Note_on_c, 15, 48, 82
9, 28391, Note_on_c, 15, 48, 0
9, 28451, Note_on_c, 15, 48, 82
9, 28511, Note_on_c, 15, 48, 0
9, 28571, Note_on_c, 15, 43, 82
9, 28631, Note_on_c, 15, 43, 0
9, 28691, Note_on_c, 15, 43, 82
9, 28751, Note_on_c, 15, 43, 0
9, 28811, Note_on_c, 15, 48, 82
9, 28931, Note_on_c, 15, 48, 0
9, 28931, Note_on_c, 15, 48, 68
9, 28961, Note_on_c, 15, 48, 0
9, 28961, Note_on_c, 15, 48, 68
9, 28991, Note_on_c, 15, 48, 0
9, 28991, Note_on_c, 15, 48, 68
9, 29021, Note_on_c, 15, 48, 0
9, 29021, Note_on_c, 15, 48, 68
9, 29051, Note_on_c, 15, 48, 0
9, 29051, Note_on_c, 15, 43, 68
9, 29171, Note_on_c, 15, 43, 0
9, 29171, Note_on_c, 15, 43, 68
9, 29201, Note_on_c, 15, 43, 0
9, 29201, Note_on_c, 15, 43, 68
9, 29231, Note_on_c, 15, 43, 0
9, 29231, Note_on_c, 15, 43, 68
9, 29261, Note_on_c, 15, 43, 0
9, 29261, Note_on_c, 15, 43, 68
9, 29291, Note_on_c, 15, 43, 0
9, 29291, Note_on_c, 15, 48, 68
9, 29411, Note_on_c, 15, 48, 0
9, 29771, Note_on_c, 15, 48, 68
9, 29891, Note_on_c, 15, 48, 0
9, 29891, Note_on_c, 15, 48, 68
9, 29921, Note_on_c, 15, 48, 0
9, 29921, Note_on_c, 15, 48, 68
9, 29951, Note_on_c, 15, 48, 0
9, 29951, Note_on_c, 15, 48, 68
9, 29981, Note_on_c, 15, 48, 0
9, 29981, Note_on_c, 15, 48, 68
9, 30011, Note_on_c, 15, 48, 0
9, 30011, Note_on_c, 15, 43, 68
9, 30131, Note_on_c, 15, 43, 0
9, 30131, Note_on_c, 15, 43, 68
9, 30161, Note_on_c, 15, 43, 0
9, 30161, Note_on_c, 15, 43, 68
9, 30191, Note_on_c, 15, 43, 0
9, 30191, Note_on_c, 15, 43, 68
9, 30221, Note_on_c, 15, 43, 0
9, 30221, Note_on_c, 15, 43, 68
9, 30251, Note_on_c, 15, 43, 0
9, 30251, Note_on_c, 15, 48, 68
9, 30371, Note_on_c, 15, 48, 0
9, 30551, Note_on_c, 15, 43, 77
9, 30611, Note_on_c, 15, 43, 0
9, 30611, Note_on_c, 15, 43, 77
9, 30671, Note_on_c, 15, 43, 0
9, 30671, Note_on_c, 15, 43, 77
9, 30731, Note_on_c, 15, 43, 0
9, 30731, Note_on_c, 15, 48, 77
9, 30851, Note_on_c, 15, 48, 0
9, 40631, Note_on_c, 15, 48, 97
9, 40661, Note_on_c, 15, 48, 0
9, 40661, Note_on_c, 15, 48, 92
9, 40691, Note_on_c, 15, 48, 0
9, 40691, Note_on_c, 15, 48, 87
9, 40721, Note_on_c, 15, 48, 0
9, 40721, Note_on_c, 15, 48, 87
9, 40751, Note_on_c, 15, 48, 0
9, 40751, Note_on_c, 15, 48, 87
9, 40781, Note_on_c, 15, 48, 0
9, 40781, Note_on_c, 15, 48, 87
9, 40811, Note_on_c, 15, 48, 0
9, 40811, Note_on_c, 15, 43, 87
9, 40871, Note_on_c, 15, 43, 0
9, 41591, Note_on_c, 15, 48, 97
9, 41621, Note_on_c, 15, 48, 0
9, 41621, Note_on_c, 15, 48, 92
9, 41651, Note_on_c, 15, 48, 0
9, 41651, Note_on_c, 15, 48, 87
9, 41681, Note_on_c, 15, 48, 0
9, 41681, Note_on_c, 15, 48, 87
9, 41711, Note_on_c, 15, 48, 0
9, 41711, Note_on_c, 15, 48, 87
9, 41741, Note_on_c, 15, 48, 0
9, 41741, Note_on_c, 15, 48, 87
9, 41771, Note_on_c, 15, 48, 0
9, 41771, Note_on_c, 15, 43, 87
9, 41831, Note_on_c, 15, 43, 0
9, 42251, Note_on_c, 15, 43, 97
9, 42371, Note_on_c, 15, 43, 0
9, 42611, Note_on_c, 15, 43, 87
9, 42641, Note_on_c, 15, 43, 0
9, 42641, Note_on_c, 15, 43, 87
9, 42671, Note_on_c, 15, 43, 0
9, 42671, Note_on_c, 15, 43, 87
9, 42701, Note_on_c, 15, 43, 0
9, 42701, Note_on_c, 15, 43, 87
9, 42731, Note_on_c, 15, 43, 0
9, 42731, Note_on_c, 15, 43, 97
9, 42851, Note_on_c, 15, 43, 0
9, 43091, Note_on_c, 15, 43, 87
9, 43121, Note_on_c, 15, 43, 0
9, 43121, Note_on_c, 15, 43, 87
9, 43151, Note_on_c, 15, 43, 0
9, 43151, Note_on_c, 15, 43, 87
9, 43181, Note_on_c, 15, 43, 0
9, 43181, Note_on_c, 15, 43, 87
9, 43211, Note_on_c, 15, 43, 0
9, 43211, Note_on_c, 15, 43, 97
9, 43331, Note_on_c, 15, 43, 0
9, 43571, Note_on_c, 15, 43, 87
9, 43601, Note_on_c, 15, 43, 0
9, 43601, Note_on_c, 15, 43, 87
9, 43631, Note_on_c, 15, 43, 0
9, 43631, Note_on_c, 15, 43, 87
9, 43661, Note_on_c, 15, 43, 0
9, 43661, Note_on_c, 15, 43, 87
9, 43691, Note_on_c, 15, 43, 0
9, 43691, Note_on_c, 15, 48, 97
9, 43811, Note_on_c, 15, 48, 0
9, 44051, Note_on_c, 15, 48, 88
9, 44078, Note_on_c, 15, 48, 0
9, 44082, Note_on_c, 15, 48, 90
9, 44109, Note_on_c, 15, 48, 0
9, 44112, Note_on_c, 15, 48, 87
9, 44139, Note_on_c, 15, 48, 0
9, 44142, Note_on_c, 15, 48, 92
9, 44169, Note_on_c, 15, 48, 0
9, 44173, Note_on_c, 15, 43, 102
9, 44200, Note_on_c, 15, 43, 0
9, 44200, Note_on_c, 15, 43, 96
9, 44227, Note_on_c, 15, 43, 0
9, 44230, Note_on_c, 15, 43, 96
9, 44257, Note_on_c, 15, 43, 0
9, 44261, Note_on_c, 15, 43, 92
9, 44288, Note_on_c, 15, 43, 0
9, 44289, Note_on_c, 15, 43, 90
9, 44316, Note_on_c, 15, 43, 0
9, 44319, Note_on_c, 15, 43, 89
9, 44346, Note_on_c, 15, 43, 0
9, 44354, Note_on_c, 15, 43, 87
9, 44381, Note_on_c, 15, 43, 0
9, 44384, Note_on_c, 15, 43, 88
9, 44410, Note_on_c, 15, 43, 101
9, 44411, Note_on_c, 15, 43, 0
9, 44437, Note_on_c, 15, 43, 0
9, 44441, Note_on_c, 15, 43, 95
9, 44468, Note_on_c, 15, 43, 0
9, 44472, Note_on_c, 15, 43, 94
9, 44499, Note_on_c, 15, 43, 0
9, 44501, Note_on_c, 15, 43, 89
9, 44528, Note_on_c, 15, 43, 0
9, 44532, Note_on_c, 15, 43, 90
9, 44559, Note_on_c, 15, 43, 0
9, 44564, Note_on_c, 15, 43, 91
9, 44591, Note_on_c, 15, 43, 0
9, 44592, Note_on_c, 15, 43, 91
9, 44619, Note_on_c, 15, 43, 0
9, 44622, Note_on_c, 15, 43, 89
9, 44649, Note_on_c, 15, 43, 0
9, 44651, Note_on_c, 15, 43, 87
9, 44771, Note_on_c, 15, 43, 0
9, 56170, Note_on_c, 15, 43, 96
9, 56197, Note_on_c, 15, 43, 0
9, 56202, Note_on_c, 15, 43, 97
9, 56229, Note_on_c, 15, 43, 0
9, 56230, Note_on_c, 15, 43, 93
9, 56257, Note_on_c, 15, 43, 0
9, 56262, Note_on_c, 15, 43, 96
9, 56289, Note_on_c, 15, 43, 0
9, 56292, Note_on_c, 15, 43, 94
9, 56319, Note_on_c, 15, 43, 0
9, 56321, Note_on_c, 15, 43, 92
9, 56348, Note_on_c, 15, 43, 0
9, 56353, Note_on_c, 15, 43, 95
9, 56380, Note_on_c, 15, 43, 0
9, 56382, Note_on_c, 15, 43, 96
9, 56409, Note_on_c, 15, 43, 0
9, 56411, Note_on_c, 15, 43, 92
9, 56531, Note_on_c, 15, 43, 0
9, 56531, Note_on_c, 15, 43, 92
9, 56651, Note_on_c, 15, 43, 0
9, 56653, Note_on_c, 15, 43, 92
9, 56680, Note_on_c, 15, 43, 0
9, 56682, Note_on_c, 15, 43, 97
9, 56709, Note_on_c, 15, 43, 0
9, 56714, Note_on_c, 15, 43, 95
9, 56741, Note_on_c, 15, 43, 0
9, 56743, Note_on_c, 15, 43, 92
9, 56770, Note_on_c, 15, 43, 0
9, 56773, Note_on_c, 15, 43, 97
9, 56800, Note_on_c, 15, 43, 0
9, 56800, Note_on_c, 15, 43, 95
9, 56827, Note_on_c, 15, 43, 0
9, 56830, Note_on_c, 15, 43, 93
9, 56857, Note_on_c, 15, 43, 0
9, 56859, Note_on_c, 15, 43, 97
9, 56886, Note_on_c, 15, 43, 0
9, 56891, Note_on_c, 15, 43, 92
9, 57011, Note_on_c, 15, 43, 0
9, 57011, Note_on_c, 15, 43, 92
9, 57131, Note_on_c, 15, 43, 0
9, 57131, Note_on_c, 15, 43, 92
9, 57251, Note_on_c, 15, 43, 0
9, 57251, Note_on_c, 15, 43, 92
9, 57371, Note_on_c, 15, 43, 0
9, 57611, Note_on_c, 15, 43, 92
9, 57731, Note_on_c, 15, 43, 0
9, 57731, Note_on_c, 15, 43, 92
9, 57851, Note_on_c, 15, 43, 0
9, 58091, Note_on_c, 15, 43, 92
9, 58211, Note_on_c, 15, 43, 0
9, 58211, Note_on_c, 15, 43, 92
9, 58331, Note_on_c, 15, 43, 0
9, 58571, Note_on_c, 15, 43, 92
9, 58691, Note_on_c, 15, 43, 0
9, 58691, Note_on_c, 15, 43, 92
9, 58811, Note_on_c, 15, 43, 0
9, 59051, Note_on_c, 15, 43, 92
9, 59171, Note_on_c, 15, 43, 0
9, 59171, Note_on_c, 15, 43, 107
9, 59291, Note_on_c, 15, 43, 0
9, 59411, Note_on_c, 15, 43, 107
9, 59531, Note_on_c, 15, 43, 0
9, 59651, Note_on_c, 15, 43, 107
9, 59771, Note_on_c, 15, 43, 0
9, 59891, Note_on_c, 15, 43, 107
9, 60011, Note_on_c, 15, 43, 0
9, 60011, Note_on_c, 15, 43, 92
9, 60131, Note_on_c, 15, 43, 0
9, 75851, Control_c, 15, 11, 102
9, 75851, Note_on_c, 15, 48, 92
9, 76091, Note_on_c, 15, 48, 0
9, 76211, Note_on_c, 15, 48, 92
9, 76241, Note_on_c, 15, 48, 0
9, 76241, Note_on_c, 15, 48, 92
9, 76271, Note_on_c, 15, 48, 0
9, 76271, Note_on_c, 15, 48, 92
9, 76301, Note_on_c, 15, 48, 0
9, 76301, Note_on_c, 15, 48, 92
9, 76331, Note_on_c, 15, 48, 0
9, 76331, Note_on_c, 15, 48, 107
9, 76451, Note_on_c, 15, 48, 0
9, 76691, Note_on_c, 15, 48, 92
9, 76721, Note_on_c, 15, 48, 0
9, 76721, Note_on_c, 15, 48, 92
9, 76751, Note_on_c, 15, 48, 0
9, 76751, Note_on_c, 15, 48, 92
9, 76781, Note_on_c, 15, 48, 0
9, 76781, Note_on_c, 15, 48, 92
9, 76811, Note_on_c, 15, 48, 0
9, 76811, Note_on_c, 15, 48, 107
9, 76931, Note_on_c, 15, 48, 0
9, 77174, Note_on_c, 15, 48, 96
9, 77199, Note_on_c, 15, 48, 93
9, 77201, Note_on_c, 15, 48, 0
9, 77226, Note_on_c, 15, 48, 0
9, 77229, Note_on_c, 15, 48, 92
9, 77256, Note_on_c, 15, 48, 0
9, 77262, Note_on_c, 15, 48, 96
9, 77289, Note_on_c, 15, 48, 0
9, 77292, Note_on_c, 15, 48, 84
9, 77319, Note_on_c, 15, 48, 0
9, 77321, Note_on_c, 15, 48, 85
9, 77348, Note_on_c, 15, 48, 0
9, 77351, Note_on_c, 15, 48, 90
9, 77378, Note_on_c, 15, 48, 0
9, 77379, Note_on_c, 15, 48, 91
9, 77406, Note_on_c, 15, 48, 0
9, 77413, Note_on_c, 15, 48, 94
9, 77440, Note_on_c, 15, 48, 0
9, 77443, Note_on_c, 15, 48, 100
9, 77470, Note_on_c, 15, 48, 0
9, 77474, Note_on_c, 15, 48, 102
9, 77500, Note_on_c, 15, 48, 106
9, 77501, Note_on_c, 15, 48, 0
9, 77527, Note_on_c, 15, 48, 0
9, 77529, Note_on_c, 15, 48, 104
9, 77556, Note_on_c, 15, 48, 0
9, 77563, Note_on_c, 15, 48, 107
9, 77590, Note_on_c, 15, 48, 0
9, 77592, Note_on_c, 15, 48, 109
9, 77619, Note_on_c, 15, 48, 0
9, 77619, Note_on_c, 15, 48, 109
9, 77646, Note_on_c, 15, 48, 0
9, 77652, Note_on_c, 15, 48, 105
9, 77679, Note_on_c, 15, 48, 0
9, 77679, Note_on_c, 15, 48, 107
9, 77706, Note_on_c, 15, 48, 0
9, 77710, Note_on_c, 15, 48, 105
9, 77737, Note_on_c, 15, 48, 0
9, 77744, Note_on_c, 15, 48, 107
9, 77771, Note_on_c, 15, 48, 0
9, 77771, Note_on_c, 15, 48, 104
9, 77831, Note_on_c, 15, 48, 0
9, 77892, Note_on_c, 15, 48, 117
9, 77919, Note_on_c, 15, 48, 0
9, 77921, Note_on_c, 15, 48, 116
9, 77948, Note_on_c, 15, 48, 0
9, 77951, Note_on_c, 15, 48, 115
9, 77978, Note_on_c, 15, 48, 0
9, 77982, Note_on_c, 15, 48, 110
9, 78009, Note_on_c, 15, 48, 0
9, 78011, Note_on_c, 15, 48, 104
9, 78251, Note_on_c, 15, 48, 0
9, 78251, Note_on_c, 15, 43, 92
9, 78311, Note_on_c, 15, 43, 0
9, 78373, Note_on_c, 15, 43, 120
9, 78400, Note_on_c, 15, 43, 0
9, 78402, Note_on_c, 15, 43, 116
9, 78429, Note_on_c, 15, 43, 0
9, 78429, Note_on_c, 15, 43, 115
9, 78456, Note_on_c, 15, 43, 0
9, 78459, Note_on_c, 15, 43, 111
9, 78486, Note_on_c, 15, 43, 0
9, 78491, Note_on_c, 15, 43, 104
9, 78671, Note_on_c, 15, 43, 0
9, 84311, Note_on_c, 15, 43, 92
9, 84371, Note_on_c, 15, 43, 0
9, 84371, Note_on_c, 15, 43, 92
9, 84431, Note_on_c, 15, 43, 0
9, 84431, Note_on_c, 15, 43, 92
9, 84491, Note_on_c, 15, 43, 0
9, 84491, Note_on_c, 15, 48, 92
9, 84611, Note_on_c, 15, 48, 0
9, 84791, Note_on_c, 15, 48, 92
9, 84851, Note_on_c, 15, 48, 0
9, 84851, Note_on_c, 15, 48, 92
9, 84911, Note_on_c, 15, 48, 0
9, 84911, Note_on_c, 15, 48, 92
9, 84971, Note_on_c, 15, 48, 0
9, 84971, Note_on_c, 15, 48, 92
9, 85091, Note_on_c, 15, 48, 0
9, 85211, Note_on_c, 15, 43, 92
9, 85331, Note_on_c, 15, 43, 0
9, 85331, Note_on_c, 15, 43, 92
9, 85451, Note_on_c, 15, 43, 0
9, 85451, Note_on_c, 15, 48, 92
9, 85571, Note_on_c, 15, 48, 0
9, 85931, Note_on_c, 15, 48, 92
9, 86051, Note_on_c, 15, 48, 0
9, 90014, Note_on_c, 15, 48, 29
9, 90041, Note_on_c, 15, 48, 0
9, 90043, Note_on_c, 15, 48, 33
9, 90070, Note_on_c, 15, 48, 0
9, 90071, Note_on_c, 15, 48, 39
9, 90098, Note_on_c, 15, 48, 0
9, 90102, Note_on_c, 15, 48, 41
9, 90129, Note_on_c, 15, 48, 0
9, 90134, Note_on_c, 15, 48, 46
9, 90160, Note_on_c, 15, 48, 49
9, 90161, Note_on_c, 15, 48, 0
9, 90187, Note_on_c, 15, 48, 0
9, 90189, Note_on_c, 15, 48, 56
9, 90216, Note_on_c, 15, 48, 0
9, 90224, Note_on_c, 15, 48, 59
9, 90249, Note_on_c, 15, 48, 61
9, 90251, Note_on_c, 15, 48, 0
9, 90276, Note_on_c, 15, 48, 0
9, 90279, Note_on_c, 15, 48, 67
9, 90306, Note_on_c, 15, 48, 0
9, 90309, Note_on_c, 15, 48, 73
9, 90336, Note_on_c, 15, 48, 0
9, 90344, Note_on_c, 15, 48, 76
9, 90371, Note_on_c, 15, 48, 0
9, 90373, Note_on_c, 15, 48, 82
9, 90399, Note_on_c, 15, 48, 81
9, 90400, Note_on_c, 15, 48, 0
9, 90426, Note_on_c, 15, 48, 0
9, 90433, Note_on_c, 15, 48, 88
9, 90460, Note_on_c, 15, 48, 0
9, 90460, Note_on_c, 15, 48, 89
9, 90487, Note_on_c, 15, 48, 0
9, 90490, Note_on_c, 15, 48, 97
9, 90517, Note_on_c, 15, 48, 0
9, 90521, Note_on_c, 15, 48, 93
9, 90548, Note_on_c, 15, 48, 0
9, 90551, Note_on_c, 15, 48, 95
9, 90578, Note_on_c, 15, 48, 0
9, 90583, Note_on_c, 15, 48, 96
9, 90610, Note_on_c, 15, 48, 0
9, 90612, Note_on_c, 15, 48, 95
9, 90639, Note_on_c, 15, 48, 0
9, 90643, Note_on_c, 15, 48, 97
9, 90669, Note_on_c, 15, 48, 95
9, 90670, Note_on_c, 15, 48, 0
9, 90696, Note_on_c, 15, 48, 0
9, 90701, Note_on_c, 15, 48, 93
9, 90728, Note_on_c, 15, 48, 0
9, 90729, Note_on_c, 15, 43, 97
9, 90756, Note_on_c, 15, 43, 0
9, 90759, Note_on_c, 15, 43, 94
9, 90786, Note_on_c, 15, 43, 0
9, 90792, Note_on_c, 15, 43, 93
9, 90819, Note_on_c, 15, 43, 0
9, 90822, Note_on_c, 15, 43, 93
9, 90849, Note_on_c, 15, 43, 0
9, 90850, Note_on_c, 15, 43, 92
9, 90877, Note_on_c, 15, 43, 0
9, 90883, Note_on_c, 15, 43, 92
9, 90910, Note_on_c, 15, 43, 0
9, 90910, Note_on_c, 15, 43, 96
9, 90937, Note_on_c, 15, 43, 0
9, 90944, Note_on_c, 15, 43, 96
9, 90971, Note_on_c, 15, 43, 0
9, 90971, Note_on_c, 15, 48, 107
9, 91091, Note_on_c, 15, 48, 0
9, 91331, Note_on_c, 15, 48, 107
9, 91361, Note_on_c, 15, 48, 0
9, 91391, Note_on_c, 15, 48, 107
9, 91421, Note_on_c, 15, 48, 0
9, 91451, Note_on_c, 15, 48, 107
9, 91571, Note_on_c, 15, 48, 0
9, 91811, Note_on_c, 15, 48, 112
9, 91838, Note_on_c, 15, 48, 0
9, 91842, Note_on_c, 15, 48, 113
9, 91869, Note_on_c, 15, 48, 0
9, 91873, Note_on_c, 15, 48, 109
9, 91900, Note_on_c, 15, 48, 0
9, 91900, Note_on_c, 15, 48, 111
9, 91927, Note_on_c, 15, 48, 0
9, 91931, Note_on_c, 15, 48, 107
9, 91958, Note_on_c, 15, 48, 0
9, 91962, Note_on_c, 15, 48, 110
9, 91989, Note_on_c, 15, 48, 0
9, 91990, Note_on_c, 15, 48, 113
9, 92017, Note_on_c, 15, 48, 0
9, 92020, Note_on_c, 15, 48, 113
9, 92047, Note_on_c, 15, 48, 0
9, 92052, Note_on_c, 15, 48, 109
9, 92079, Note_on_c, 15, 48, 0
9, 92081, Note_on_c, 15, 48, 107
9, 92108, Note_on_c, 15, 48, 0
9, 92113, Note_on_c, 15, 48, 111
9, 92140, Note_on_c, 15, 48, 0
9, 92140, Note_on_c, 15, 48, 113
9, 92167, Note_on_c, 15, 48, 0
9, 92173, Note_on_c, 15, 48, 111
9, 92200, Note_on_c, 15, 48, 0
9, 92200, Note_on_c, 15, 48, 108
9, 92227, Note_on_c, 15, 48, 0
9, 92233, Note_on_c, 15, 48, 110
9, 92260, Note_on_c, 15, 48, 0
9, 92260, Note_on_c, 15, 48, 110
9, 92287, Note_on_c, 15, 48, 0
9, 92292, Note_on_c, 15, 48, 109
9, 92319, Note_on_c, 15, 48, 0
9, 92321, Note_on_c, 15, 48, 110
9, 92348, Note_on_c, 15, 48, 0
9, 92352, Note_on_c, 15, 48, 112
9, 92379, Note_on_c, 15, 48, 0
9, 92382, Note_on_c, 15, 48, 110
9, 92409, Note_on_c, 15, 48, 0
9, 92410, Note_on_c, 15, 48, 109
9, 92437, Note_on_c, 15, 48, 0
9, 92443, Note_on_c, 15, 48, 107
9, 92470, Note_on_c, 15, 48, 0
9, 92472, Note_on_c, 15, 48, 111
9, 92499, Note_on_c, 15, 48, 0
9, 92501, Note_on_c, 15, 48, 107
9, 92528, Note_on_c, 15, 48, 0
9, 92533, Note_on_c, 15, 48, 113
9, 92560, Note_on_c, 15, 48, 0
9, 92562, Note_on_c, 15, 48, 109
9, 92589, Note_on_c, 15, 48, 0
9, 92591, Note_on_c, 15, 48, 109
9, 92618, Note_on_c, 15, 48, 0
9, 92623, Note_on_c, 15, 48, 109
9, 92650, Note_on_c, 15, 48, 0
9, 92651, Note_on_c, 15, 48, 108
9, 92678, Note_on_c, 15, 48, 0
9, 92683, Note_on_c, 15, 48, 109
9, 92710, Note_on_c, 15, 48, 0
9, 92712, Note_on_c, 15, 48, 110
9, 92739, Note_on_c, 15, 48, 0
9, 92740, Note_on_c, 15, 48, 112
9, 92767, Note_on_c, 15, 48, 0
9, 92773, Note_on_c, 15, 43, 109
9, 92800, Note_on_c, 15, 43, 0
9, 92802, Note_on_c, 15, 43, 113
9, 92829, Note_on_c, 15, 43, 0
9, 92830, Note_on_c, 15, 43, 113
9, 92857, Note_on_c, 15, 43, 0
9, 92862, Note_on_c, 15, 43, 107
9, 92889, Note_on_c, 15, 43, 0
9, 92891, Note_on_c, 15, 48, 107
9, 92987, Note_on_c, 15, 48, 0
9, 93131, Note_on_c, 15, 43, 107
9, 93227, Note_on_c, 15, 43, 0
9, 93371, Note_on_c, 15, 48, 107
9, 93467, Note_on_c, 15, 48, 0
9, 93611, Note_on_c, 15, 43, 107
9, 93707, Note_on_c, 15, 43, 0
9, 93851, Note_on_c, 15, 48, 107
9, 93947, Note_on_c, 15, 48, 0
9, 94091, Note_on_c, 15, 48, 117
9, 94193, Note_on_c, 15, 48, 0
9, 94331, Note_on_c, 15, 48, 107
9, 94451, Note_on_c, 15, 48, 0
9, 94571, Control_c, 15, 121, 0
9, 94571, End_track
10, 0, Start_track
10, 0, MIDI_port, 0
10, 0, Title_t, "Violine I"
10, 0, Program_c, 10, 48
10, 0, Control_c, 10, 10, 12
10, 0, Control_c, 10, 121, 0
10, 5, Program_c, 10, 48
10, 10, Pitch_bend_c, 10, 8292
10, 15, Control_c, 10, 11, 102
10, 20, Control_c, 10, 7, 127
10, 25, Control_c, 10, 91, 32
10, 30, Control_c, 10, 93, 0
10, 35, Control_c, 10, 10, 12
10, 40, Control_c, 10, 1, 36
10, 240, Note_on_c, 10, 55, 108
10, 240, Control_c, 10, 11, 72
10, 240, Note_on_c, 10, 67, 108
10, 242, Control_c, 10, 11, 75
10, 244, Control_c, 10, 11, 78
10, 246, Control_c, 10, 11, 81
10, 248, Control_c, 10, 11, 84
10, 250, Control_c, 10, 11, 87
10, 252, Control_c, 10, 11, 90
10, 254, Control_c, 10, 11, 93
10, 256, Control_c, 10, 11, 96
10, 258, Control_c, 10, 11, 99
10, 260, Control_c, 10, 11, 102
10, 375, Control_c, 10, 11, 102
10, 376, Control_c, 10, 11, 98
10, 377, Control_c, 10, 11, 94
10, 378, Control_c, 10, 11, 91
10, 379, Control_c, 10, 11, 87
10, 380, Control_c, 10, 11, 83
10, 381, Control_c, 10, 11, 80
10, 382, Control_c, 10, 11, 76
10, 383, Control_c, 10, 11, 72
10, 384, Control_c, 10, 11, 69
10, 385, Control_c, 10, 11, 65
10, 386, Control_c, 10, 11, 61
10, 387, Control_c, 10, 11, 58
10, 388, Control_c, 10, 11, 54
10, 389, Control_c, 10, 11, 50
10, 390, Note_on_c, 10, 67, 0
10, 390, Note_on_c, 10, 55, 0
10, 390, Control_c, 10, 11, 47
10, 420, Note_on_c, 10, 67, 93
10, 420, Control_c, 10, 11, 27
10, 426, Control_c, 10, 11, 30
10, 432, Control_c, 10, 11, 33
10, 438, Control_c, 10, 11, 36
10, 444, Control_c, 10, 11, 39
10, 448, Note_on_c, 10, 67, 0
10, 450, Control_c, 10, 11, 42
10, 465, Note_on_c, 10, 69, 93
10, 468, Control_c, 10, 11, 45
10, 475, Note_on_c, 10, 69, 0
10, 480, Note_on_c, 10, 71, 93
10, 480, Control_c, 10, 11, 37
10, 492, Control_c, 10, 11, 40
10, 504, Control_c, 10, 11, 43
10, 516, Control_c, 10, 11, 46
10, 527, Control_c, 10, 11, 41
10, 531, Control_c, 10, 11, 38
10, 535, Control_c, 10, 11, 35
10, 539, Control_c, 10, 11, 32
10, 540, Note_on_c, 10, 71, 0
10, 645, Control_c, 10, 11, 47
10, 645, Note_on_c, 10, 67, 76
10, 655, Note_on_c, 10, 67, 0
10, 660, Note_on_c, 10, 69, 93
10, 688, Note_on_c, 10, 69, 0
10, 705, Note_on_c, 10, 71, 93
10, 715, Note_on_c, 10, 71, 0
10, 720, Note_on_c, 10, 72, 93
10, 720, Control_c, 10, 11, 37
10, 732, Control_c, 10, 11, 40
10, 744, Control_c, 10, 11, 43
10, 756, Control_c, 10, 11, 46
10, 767, Control_c, 10, 11, 41
10, 771, Control_c, 10, 11, 38
10, 775, Control_c, 10, 11, 35
10, 779, Control_c, 10, 11, 32
10, 780, Note_on_c, 10, 72, 0
10, 870, Note_on_c, 10, 67, 93
10, 870, Control_c, 10, 11, 42
10, 883, Control_c, 10, 11, 45
10, 885, Note_on_c, 10, 67, 0
10, 885, Note_on_c, 10, 69, 93
10, 897, Control_c, 10, 11, 48
10, 900, Note_on_c, 10, 69, 0
10, 900, Note_on_c, 10, 71, 93
10, 910, Control_c, 10, 11, 51
10, 914, Note_on_c, 10, 71, 0
10, 924, Control_c, 10, 11, 54
10, 930, Note_on_c, 10, 72, 93
10, 937, Control_c, 10, 11, 57
10, 948, Note_on_c, 10, 72, 0
10, 951, Control_c, 10, 11, 60
10, 960, Note_on_c, 10, 74, 93
10, 960, Control_c, 10, 11, 50
10, 970, Control_c, 10, 11, 53
10, 980, Control_c, 10, 11, 56
10, 990, Control_c, 10, 11, 59
10, 1000, Control_c, 10, 11, 62
10, 1002, Control_c, 10, 11, 59
10, 1005, Control_c, 10, 11, 56
10, 1008, Control_c, 10, 11, 53
10, 1011, Control_c, 10, 11, 50
10, 1014, Control_c, 10, 11, 47
10, 1017, Control_c, 10, 11, 44
10, 1020, Note_on_c, 10, 74, 0
10, 1100, Note_on_c, 10, 67, 93
10, 1100, Control_c, 10, 11, 47
10, 1115, Control_c, 10, 11, 50
10, 1120, Note_on_c, 10, 67, 0
10, 1120, Note_on_c, 10, 69, 93
10, 1130, Control_c, 10, 11, 53
10, 1140, Note_on_c, 10, 69, 0
10, 1140, Note_on_c, 10, 71, 93
10, 1145, Control_c, 10, 11, 56
10, 1152, Note_on_c, 10, 71, 0
10, 1160, Control_c, 10, 11, 59
10, 1160, Note_on_c, 10, 72, 93
10, 1172, Note_on_c, 10, 72, 0
10, 1175, Control_c, 10, 11, 62
10, 1180, Note_on_c, 10, 74, 93
10, 1186, Note_on_c, 10, 74, 0
10, 1190, Control_c, 10, 11, 65
10, 1200, Control_c, 10, 11, 32
10, 1200, Note_on_c, 10, 76, 76
10, 1203, Control_c, 10, 11, 35
10, 1206, Control_c, 10, 11, 38
10, 1209, Control_c, 10, 11, 41
10, 1212, Control_c, 10, 11, 44
10, 1215, Control_c, 10, 11, 47
10, 1240, Control_c, 10, 11, 47
10, 1243, Control_c, 10, 11, 44
10, 1247, Control_c, 10, 11, 41
10, 1251, Control_c, 10, 11, 38
10, 1255, Control_c, 10, 11, 35
10, 1259, Control_c, 10, 11, 32
10, 1260, Note_on_c, 10, 76, 0
10, 1350, Control_c, 10, 11, 32
10, 1350, Note_on_c, 10, 67, 93
10, 1359, Control_c, 10, 11, 35
10, 1365, Note_on_c, 10, 67, 0
10, 1365, Note_on_c, 10, 69, 93
10, 1368, Control_c, 10, 11, 38
10, 1377, Control_c, 10, 11, 41
10, 1380, Note_on_c, 10, 69, 0
10, 1380, Note_on_c, 10, 71, 93
10, 1395, Note_on_c, 10, 71, 0
10, 1395, Note_on_c, 10, 72, 93
10, 1410, Note_on_c, 10, 72, 0
10, 1410, Note_on_c, 10, 74, 93
10, 1425, Note_on_c, 10, 74, 0
10, 1425, Note_on_c, 10, 76, 93
10, 1435, Note_on_c, 10, 76, 0
10, 1440, Control_c, 10, 11, 35
10, 1440, Note_on_c, 10, 77, 93
10, 1457, Control_c, 10, 11, 38
10, 1474, Control_c, 10, 11, 41
10, 1491, Control_c, 10, 11, 36
10, 1497, Control_c, 10, 11, 33
10, 1500, Note_on_c, 10, 77, 0
10, 1590, Note_on_c, 10, 67, 108
10, 1590, Control_c, 10, 11, 32
10, 1605, Note_on_c, 10, 67, 0
10, 1608, Control_c, 10, 11, 35
10, 1620, Note_on_c, 10, 69, 108
10, 1626, Control_c, 10, 11, 38
10, 1635, Note_on_c, 10, 69, 0
10, 1644, Control_c, 10, 11, 41
10, 1650, Note_on_c, 10, 71, 108
10, 1662, Control_c, 10, 11, 44
10, 1665, Note_on_c, 10, 71, 0
10, 1680, Note_on_c, 10, 72, 108
10, 1680, Control_c, 10, 11, 47
10, 1695, Note_on_c, 10, 72, 0
10, 1710, Note_on_c, 10, 74, 108
10, 1725, Note_on_c, 10, 74, 0
10, 1740, Note_on_c, 10, 76, 108
10, 1755, Note_on_c, 10, 76, 0
10, 1770, Note_on_c, 10, 77, 108
10, 1785, Note_on_c, 10, 77, 0
10, 1800, Note_on_c, 10, 79, 108
10, 1830, Note_on_c, 10, 79, 0
10, 1860, Note_on_c, 10, 79, 108
10, 1890, Note_on_c, 10, 79, 0
10, 1920, Note_on_c, 10, 76, 108
10, 2040, Note_on_c, 10, 76, 0
10, 2040, Note_on_c, 10, 72, 108
10, 2070, Note_on_c, 10, 72, 0
10, 2100, Note_on_c, 10, 72, 108
10, 2130, Note_on_c, 10, 72, 0
10, 2160, Note_on_c, 10, 74, 108
10, 2190, Note_on_c, 10, 74, 0
10, 2220, Note_on_c, 10, 74, 108
10, 2250, Note_on_c, 10, 74, 0
10, 2280, Note_on_c, 10, 76, 108
10, 2310, Note_on_c, 10, 76, 0
10, 2310, Note_on_c, 10, 74, 108
10, 2340, Note_on_c, 10, 74, 0
10, 2340, Note_on_c, 10, 72, 108
10, 2370, Note_on_c, 10, 72, 0
10, 2370, Note_on_c, 10, 74, 108
10, 2390, Note_on_c, 10, 74, 0
10, 2400, Note_on_c, 10, 76, 108
10, 2520, Note_on_c, 10, 76, 0
10, 2520, Note_on_c, 10, 72, 108
10, 2550, Note_on_c, 10, 72, 0
10, 2550, Note_on_c, 10, 67, 108
10, 2565, Note_on_c, 10, 67, 0
10, 2580, Note_on_c, 10, 69, 108
10, 2595, Note_on_c, 10, 69, 0
10, 2610, Note_on_c, 10, 71, 108
10, 2625, Note_on_c, 10, 71, 0
10, 2640, Note_on_c, 10, 72, 108
10, 2655, Note_on_c, 10, 72, 0
10, 2670, Note_on_c, 10, 74, 108
10, 2685, Note_on_c, 10, 74, 0
10, 2700, Note_on_c, 10, 76, 108
10, 2715, Note_on_c, 10, 76, 0
10, 2730, Note_on_c, 10, 77, 108
10, 2745, Note_on_c, 10, 77, 0
10, 2760, Note_on_c, 10, 79, 108
10, 2790, Note_on_c, 10, 79, 0
10, 2820, Note_on_c, 10, 79, 108
10, 2850, Note_on_c, 10, 79, 0
10, 2880, Note_on_c, 10, 76, 108
10, 2910, Note_on_c, 10, 76, 0
10, 2940, Note_on_c, 10, 72, 108
10, 2970, Note_on_c, 10, 72, 0
10, 3000, Note_on_c, 10, 74, 108
10, 3030, Note_on_c, 10, 74, 0
10, 3030, Note_on_c, 10, 72, 108
10, 3060, Note_on_c, 10, 72, 0
10, 3060, Note_on_c, 10, 71, 108
10, 3090, Note_on_c, 10, 71, 0
10, 3090, Note_on_c, 10, 72, 108
10, 3110, Note_on_c, 10, 72, 0
10, 3120, Note_on_c, 10, 69, 108
10, 3150, Note_on_c, 10, 69, 0
10, 3180, Note_on_c, 10, 74, 108
10, 3210, Note_on_c, 10, 74, 0
10, 3240, Note_on_c, 10, 76, 108
10, 3270, Note_on_c, 10, 76, 0
10, 3270, Note_on_c, 10, 74, 108
10, 3300, Note_on_c, 10, 74, 0
10, 3300, Note_on_c, 10, 73, 108
10, 3330, Note_on_c, 10, 73, 0
10, 3330, Note_on_c, 10, 74, 108
10, 3350, Note_on_c, 10, 74, 0
10, 3360, Note_on_c, 10, 67, 84
10, 3480, Note_on_c, 10, 67, 0
10, 3540, Note_on_c, 10, 67, 108
10, 3590, Note_on_c, 10, 67, 0
10, 3600, Note_on_c, 10, 79, 108
10, 3630, Note_on_c, 10, 79, 0
10, 3660, Note_on_c, 10, 79, 108
10, 3690, Note_on_c, 10, 79, 0
10, 3720, Note_on_c, 10, 79, 108
10, 3750, Note_on_c, 10, 79, 0
10, 3780, Note_on_c, 10, 79, 108
10, 3810, Note_on_c, 10, 79, 0
10, 3840, Note_on_c, 10, 79, 108
10, 3960, Note_on_c, 10, 79, 0
10, 3960, Note_on_c, 10, 77, 108
10, 4010, Note_on_c, 10, 77, 0
10, 4020, Note_on_c, 10, 77, 108
10, 4050, Note_on_c, 10, 77, 0
10, 4080, Note_on_c, 10, 77, 108
10, 4110, Note_on_c, 10, 77, 0
10, 4140, Note_on_c, 10, 77, 108
10, 4170, Note_on_c, 10, 77, 0
10, 4200, Note_on_c, 10, 77, 108
10, 4230, Note_on_c, 10, 77, 0
10, 4260, Note_on_c, 10, 77, 108
10, 4290, Note_on_c, 10, 77, 0
10, 4320, Note_on_c, 10, 77, 108
10, 4440, Note_on_c, 10, 77, 0
10, 4440, Note_on_c, 10, 76, 108
10, 4490, Note_on_c, 10, 76, 0
10, 4500, Note_on_c, 10, 76, 108
10, 4530, Note_on_c, 10, 76, 0
10, 4560, Note_on_c, 10, 76, 108
10, 4590, Note_on_c, 10, 76, 0
10, 4620, Note_on_c, 10, 76, 108
10, 4650, Note_on_c, 10, 76, 0
10, 4680, Note_on_c, 10, 76, 108
10, 4710, Note_on_c, 10, 76, 0
10, 4740, Note_on_c, 10, 76, 108
10, 4770, Note_on_c, 10, 76, 0
10, 4800, Note_on_c, 10, 74, 108
10, 4860, Note_on_c, 10, 74, 0
10, 4920, Note_on_c, 10, 77, 108
10, 4980, Note_on_c, 10, 77, 0
10, 5040, Note_on_c, 10, 72, 108
10, 5100, Note_on_c, 10, 72, 0
10, 5160, Note_on_c, 10, 71, 108
10, 5220, Note_on_c, 10, 71, 0
10, 5280, Note_on_c, 10, 72, 108
10, 5340, Note_on_c, 10, 72, 0
10, 5580, Note_on_c, 10, 81, 108
10, 5580, Control_c, 10, 11, 47
10, 5595, Control_c, 10, 11, 48
10, 5610, Note_on_c, 10, 81, 0
10, 5610, Control_c, 10, 11, 49
10, 5625, Control_c, 10, 11, 50
10, 5640, Note_on_c, 10, 83, 108
10, 5641, Control_c, 10, 11, 51
10, 5656, Control_c, 10, 11, 52
10, 5670, Note_on_c, 10, 83, 0
10, 5671, Control_c, 10, 11, 53
10, 5686, Control_c, 10, 11, 54
10, 5700, Note_on_c, 10, 85, 108
10, 5702, Control_c, 10, 11, 55
10, 5717, Control_c, 10, 11, 56
10, 5730, Note_on_c, 10, 85, 0
10, 5732, Control_c, 10, 11, 57
10, 5748, Control_c, 10, 11, 58
10, 5760, Note_on_c, 10, 86, 108
10, 5763, Control_c, 10, 11, 59
10, 5778, Control_c, 10, 11, 60
10, 5790, Note_on_c, 10, 86, 0
10, 5793, Control_c, 10, 11, 61
10, 5809, Control_c, 10, 11, 62
10, 5820, Note_on_c, 10, 88, 108
10, 5824, Control_c, 10, 11, 63
10, 5839, Control_c, 10, 11, 64
10, 5850, Note_on_c, 10, 88, 0
10, 5854, Control_c, 10, 11, 65
10, 5870, Control_c, 10, 11, 66
10, 5880, Note_on_c, 10, 89, 108
10, 5885, Control_c, 10, 11, 67
10, 5900, Control_c, 10, 11, 68
10, 5910, Note_on_c, 10, 89, 0
10, 5916, Control_c, 10, 11, 69
10, 5931, Control_c, 10, 11, 70
10, 5946, Control_c, 10, 11, 71
10, 5961, Control_c, 10, 11, 72
10, 5977, Control_c, 10, 11, 73
10, 5992, Control_c, 10, 11, 74
10, 6007, Control_c, 10, 11, 75
10, 6022, Control_c, 10, 11, 76
10, 6038, Control_c, 10, 11, 77
10, 6053, Control_c, 10, 11, 78
10, 6060, Note_on_c, 10, 79, 108
10, 6068, Control_c, 10, 11, 79
10, 6084, Control_c, 10, 11, 80
10, 6090, Note_on_c, 10, 79, 0
10, 6099, Control_c, 10, 11, 81
10, 6114, Control_c, 10, 11, 82
10, 6120, Note_on_c, 10, 81, 108
10, 6129, Control_c, 10, 11, 83
10, 6145, Control_c, 10, 11, 84
10, 6150, Note_on_c, 10, 81, 0
10, 6160, Control_c, 10, 11, 85
10, 6175, Control_c, 10, 11, 86
10, 6180, Note_on_c, 10, 83, 108
10, 6190, Control_c, 10, 11, 87
10, 6206, Control_c, 10, 11, 88
10, 6210, Note_on_c, 10, 83, 0
10, 6221, Control_c, 10, 11, 89
10, 6236, Control_c, 10, 11, 90
10, 6240, Note_on_c, 10, 84, 108
10, 6252, Control_c, 10, 11, 91
10, 6267, Control_c, 10, 11, 92
10, 6270, Note_on_c, 10, 84, 0
10, 6282, Control_c, 10, 11, 93
10, 6297, Control_c, 10, 11, 94
10, 6300, Note_on_c, 10, 86, 108
10, 6313, Control_c, 10, 11, 95
10, 6328, Control_c, 10, 11, 96
10, 6330, Note_on_c, 10, 86, 0
10, 6343, Control_c, 10, 11, 97
10, 6358, Control_c, 10, 11, 98
10, 6360, Note_on_c, 10, 88, 108
10, 6374, Control_c, 10, 11, 99
10, 6389, Control_c, 10, 11, 100
10, 6390, Note_on_c, 10, 88, 0
10, 6404, Control_c, 10, 11, 101
10, 6420, Control_c, 10, 11, 102
10, 6420, Note_on_c, 10, 76, 108
10, 6448, Note_on_c, 10, 76, 0
10, 6480, Note_on_c, 10, 76, 108
10, 6508, Note_on_c, 10, 76, 0
10, 6540, Note_on_c, 10, 76, 108
10, 6568, Note_on_c, 10, 76, 0
10, 6600, Note_on_c, 10, 76, 108
10, 6628, Note_on_c, 10, 76, 0
10, 6660, Note_on_c, 10, 76, 108
10, 6688, Note_on_c, 10, 76, 0
10, 6720, Note_on_c, 10, 74, 108
10, 6780, Note_on_c, 10, 74, 0
10, 6840, Note_on_c, 10, 81, 108
10, 6900, Note_on_c, 10, 81, 0
10, 6960, Note_on_c, 10, 79, 108
10, 7020, Note_on_c, 10, 79, 0
10, 7080, Note_on_c, 10, 71, 108
10, 7140, Note_on_c, 10, 71, 0
10, 7200, Note_on_c, 10, 72, 108
10, 7320, Note_on_c, 10, 72, 0
10, 7740, Note_on_c, 10, 84, 108
10, 7740, Control_c, 10, 11, 87
10, 7785, Note_on_c, 10, 84, 0
10, 7800, Note_on_c, 10, 84, 108
10, 7845, Note_on_c, 10, 84, 0
10, 7860, Note_on_c, 10, 84, 108
10, 7905, Note_on_c, 10, 84, 0
10, 7920, Note_on_c, 10, 84, 108
10, 7950, Note_on_c, 10, 84, 0
10, 7950, Note_on_c, 10, 83, 108
10, 7970, Note_on_c, 10, 83, 0
10, 7980, Note_on_c, 10, 81, 108
10, 7995, Note_on_c, 10, 81, 0
10, 8010, Note_on_c, 10, 79, 108
10, 8025, Note_on_c, 10, 79, 0
10, 8040, Note_on_c, 10, 79, 108
10, 8070, Note_on_c, 10, 79, 0
10, 8070, Note_on_c, 10, 77, 108
10, 8090, Note_on_c, 10, 77, 0
10, 8100, Note_on_c, 10, 76, 108
10, 8115, Note_on_c, 10, 76, 0
10, 8130, Note_on_c, 10, 74, 108
10, 8145, Note_on_c, 10, 74, 0
10, 8160, Note_on_c, 10, 72, 108
10, 8280, Note_on_c, 10, 72, 0
10, 8700, Note_on_c, 10, 84, 108
10, 8745, Note_on_c, 10, 84, 0
10, 8760, Note_on_c, 10, 84, 108
10, 8805, Note_on_c, 10, 84, 0
10, 8820, Note_on_c, 10, 84, 108
10, 8865, Note_on_c, 10, 84, 0
10, 8880, Note_on_c, 10, 84, 108
10, 8910, Note_on_c, 10, 84, 0
10, 8910, Note_on_c, 10, 83, 108
10, 8930, Note_on_c, 10, 83, 0
10, 8940, Note_on_c, 10, 81, 108
10, 8955, Note_on_c, 10, 81, 0
10, 8970, Note_on_c, 10, 79, 108
10, 8985, Note_on_c, 10, 79, 0
10, 9000, Note_on_c, 10, 79, 108
10, 9030, Note_on_c, 10, 79, 0
10, 9030, Note_on_c, 10, 77, 108
10, 9050, Note_on_c, 10, 77, 0
10, 9060, Note_on_c, 10, 76, 108
10, 9075, Note_on_c, 10, 76, 0
10, 9090, Note_on_c, 10, 74, 108
10, 9105, Note_on_c, 10, 74, 0
10, 9120, Note_on_c, 10, 76, 108
10, 9180, Note_on_c, 10, 76, 0
10, 9240, Note_on_c, 10, 84, 108
10, 9241, Control_c, 10, 11, 107
10, 9258, Control_c, 10, 11, 104
10, 9276, Control_c, 10, 11, 101
10, 9294, Control_c, 10, 11, 98
10, 9311, Control_c, 10, 11, 95
10, 9329, Control_c, 10, 11, 92
10, 9347, Control_c, 10, 11, 89
10, 9410, Note_on_c, 10, 84, 0
10, 9420, Note_on_c, 10, 84, 108
10, 9450, Note_on_c, 10, 84, 0
10, 9450, Note_on_c, 10, 83, 108
10, 9480, Note_on_c, 10, 83, 0
10, 9480, Note_on_c, 10, 81, 108
10, 9510, Note_on_c, 10, 81, 0
10, 9510, Note_on_c, 10, 79, 108
10, 9540, Note_on_c, 10, 79, 0
10, 9540, Note_on_c, 10, 78, 108
10, 9570, Note_on_c, 10, 78, 0
10, 9570, Note_on_c, 10, 76, 108
10, 9590, Note_on_c, 10, 76, 0
10, 9600, Note_on_c, 10, 74, 108
10, 9660, Note_on_c, 10, 74, 0
10, 9720, Note_on_c, 10, 83, 108
10, 9720, Control_c, 10, 11, 107
10, 9737, Control_c, 10, 11, 104
10, 9755, Control_c, 10, 11, 101
10, 9773, Control_c, 10, 11, 98
10, 9791, Control_c, 10, 11, 95
10, 9809, Control_c, 10, 11, 92
10, 9827, Control_c, 10, 11, 89
10, 9890, Note_on_c, 10, 83, 0
10, 9900, Note_on_c, 10, 83, 108
10, 9930, Note_on_c, 10, 83, 0
10, 9930, Note_on_c, 10, 81, 108
10, 9960, Note_on_c, 10, 81, 0
10, 9960, Note_on_c, 10, 80, 108
10, 9990, Note_on_c, 10, 80, 0
10, 9990, Note_on_c, 10, 77, 108
10, 10020, Note_on_c, 10, 77, 0
10, 10020, Note_on_c, 10, 76, 108
10, 10050, Note_on_c, 10, 76, 0
10, 10050, Note_on_c, 10, 74, 108
10, 10070, Note_on_c, 10, 74, 0
10, 10080, Note_on_c, 10, 72, 108
10, 10110, Note_on_c, 10, 72, 0
10, 10140, Note_on_c, 10, 81, 108
10, 10170, Note_on_c, 10, 81, 0
10, 10170, Note_on_c, 10, 79, 108
10, 10200, Note_on_c, 10, 79, 0
10, 10200, Note_on_c, 10, 78, 108
10, 10230, Note_on_c, 10, 78, 0
10, 10230, Note_on_c, 10, 76, 108
10, 10260, Note_on_c, 10, 76, 0
10, 10260, Note_on_c, 10, 74, 108
10, 10290, Note_on_c, 10, 74, 0
10, 10290, Note_on_c, 10, 72, 108
10, 10310, Note_on_c, 10, 72, 0
10, 10320, Note_on_c, 10, 71, 108
10, 10350, Note_on_c, 10, 71, 0
10, 10380, Note_on_c, 10, 79, 108
10, 10410, Note_on_c, 10, 79, 0
10, 10410, Note_on_c, 10, 78, 108
10, 10440, Note_on_c, 10, 78, 0
10, 10440, Note_on_c, 10, 76, 108
10, 10470, Note_on_c, 10, 76, 0
10, 10470, Note_on_c, 10, 74, 108
10, 10500, Note_on_c, 10, 74, 0
10, 10500, Note_on_c, 10, 72, 108
10, 10530, Note_on_c, 10, 72, 0
10, 10530, Note_on_c, 10, 71, 108
10, 10550, Note_on_c, 10, 71, 0
10, 10560, Note_on_c, 10, 69, 108
10, 10590, Note_on_c, 10, 69, 0
10, 10620, Note_on_c, 10, 76, 108
10, 10650, Note_on_c, 10, 76, 0
10, 10650, Note_on_c, 10, 74, 108
10, 10680, Note_on_c, 10, 74, 0
10, 10680, Note_on_c, 10, 72, 108
10, 10710, Note_on_c, 10, 72, 0
10, 10710, Note_on_c, 10, 71, 108
10, 10740, Note_on_c, 10, 71, 0
10, 10740, Note_on_c, 10, 69, 108
10, 10770, Note_on_c, 10, 69, 0
10, 10770, Note_on_c, 10, 68, 108
10, 10790, Note_on_c, 10, 68, 0
10, 10800, Note_on_c, 10, 69, 108
10, 10830, Note_on_c, 10, 69, 0
10, 10860, Note_on_c, 10, 76, 108
10, 10890, Note_on_c, 10, 76, 0
10, 10890, Note_on_c, 10, 74, 108
10, 10920, Note_on_c, 10, 74, 0
10, 10920, Note_on_c, 10, 73, 108
10, 10950, Note_on_c, 10, 73, 0
10, 10950, Note_on_c, 10, 71, 108
10, 10980, Note_on_c, 10, 71, 0
10, 10980, Note_on_c, 10, 69, 108
10, 11010, Note_on_c, 10, 69, 0
10, 11010, Note_on_c, 10, 67, 108
10, 11030, Note_on_c, 10, 67, 0
10, 11040, Note_on_c, 10, 66, 108
10, 11060, Note_on_c, 10, 66, 0
10, 11070, Note_on_c, 10, 74, 108
10, 11090, Note_on_c, 10, 74, 0
10, 11100, Note_on_c, 10, 74, 108
10, 11120, Note_on_c, 10, 74, 0
10, 11130, Note_on_c, 10, 74, 108
10, 11150, Note_on_c, 10, 74, 0
10, 11160, Note_on_c, 10, 74, 108
10, 11180, Note_on_c, 10, 74, 0
10, 11190, Note_on_c, 10, 74, 108
10, 11210, Note_on_c, 10, 74, 0
10, 11220, Note_on_c, 10, 74, 108
10, 11240, Note_on_c, 10, 74, 0
10, 11250, Note_on_c, 10, 74, 108
10, 11270, Note_on_c, 10, 74, 0
10, 11280, Note_on_c, 10, 74, 108
10, 11300, Note_on_c, 10, 74, 0
10, 11310, Note_on_c, 10, 74, 108
10, 11330, Note_on_c, 10, 74, 0
10, 11340, Note_on_c, 10, 74, 108
10, 11360, Note_on_c, 10, 74, 0
10, 11370, Note_on_c, 10, 74, 108
10, 11390, Note_on_c, 10, 74, 0
10, 11400, Note_on_c, 10, 74, 108
10, 11420, Note_on_c, 10, 74, 0
10, 11430, Note_on_c, 10, 74, 108
10, 11450, Note_on_c, 10, 74, 0
10, 11460, Note_on_c, 10, 74, 108
10, 11480, Note_on_c, 10, 74, 0
10, 11490, Note_on_c, 10, 74, 108
10, 11510, Note_on_c, 10, 74, 0
10, 11520, Note_on_c, 10, 74, 108
10, 11540, Note_on_c, 10, 74, 0
10, 11550, Note_on_c, 10, 74, 108
10, 11570, Note_on_c, 10, 74, 0
10, 11580, Note_on_c, 10, 74, 108
10, 11600, Note_on_c, 10, 74, 0
10, 11610, Note_on_c, 10, 74, 108
10, 11630, Note_on_c, 10, 74, 0
10, 11640, Note_on_c, 10, 74, 108
10, 11660, Note_on_c, 10, 74, 0
10, 11670, Note_on_c, 10, 74, 108
10, 11690, Note_on_c, 10, 74, 0
10, 11700, Note_on_c, 10, 74, 108
10, 11720, Note_on_c, 10, 74, 0
10, 11730, Note_on_c, 10, 74, 108
10, 11750, Note_on_c, 10, 74, 0
10, 11760, Note_on_c, 10, 74, 108
10, 11780, Note_on_c, 10, 74, 0
10, 11790, Note_on_c, 10, 74, 108
10, 11810, Note_on_c, 10, 74, 0
10, 11820, Note_on_c, 10, 74, 108
10, 11840, Note_on_c, 10, 74, 0
10, 11850, Note_on_c, 10, 74, 108
10, 11870, Note_on_c, 10, 74, 0
10, 11880, Note_on_c, 10, 74, 108
10, 11900, Note_on_c, 10, 74, 0
10, 11910, Note_on_c, 10, 74, 108
10, 11930, Note_on_c, 10, 74, 0
10, 11940, Note_on_c, 10, 74, 108
10, 11960, Note_on_c, 10, 74, 0
10, 11970, Note_on_c, 10, 74, 108
10, 11990, Note_on_c, 10, 74, 0
10, 12000, Note_on_c, 10, 74, 108
10, 12020, Note_on_c, 10, 74, 0
10, 12030, Note_on_c, 10, 74, 108
10, 12030, Note_on_c, 10, 86, 108
10, 12050, Note_on_c, 10, 86, 0
10, 12050, Note_on_c, 10, 74, 0
10, 12060, Note_on_c, 10, 74, 108
10, 12060, Note_on_c, 10, 86, 108
10, 12080, Note_on_c, 10, 86, 0
10, 12080, Note_on_c, 10, 74, 0
10, 12090, Note_on_c, 10, 74, 108
10, 12090, Note_on_c, 10, 86, 108
10, 12110, Note_on_c, 10, 86, 0
10, 12110, Note_on_c, 10, 74, 0
10, 12120, Note_on_c, 10, 74, 108
10, 12120, Note_on_c, 10, 86, 108
10, 12140, Note_on_c, 10, 86, 0
10, 12140, Note_on_c, 10, 74, 0
10, 12150, Note_on_c, 10, 74, 108
10, 12150, Note_on_c, 10, 86, 108
10, 12170, Note_on_c, 10, 86, 0
10, 12170, Note_on_c, 10, 74, 0
10, 12180, Note_on_c, 10, 86, 108
10, 12180, Note_on_c, 10, 74, 108
10, 12200, Note_on_c, 10, 74, 0
10, 12200, Note_on_c, 10, 86, 0
10, 12210, Note_on_c, 10, 86, 108
10, 12210, Note_on_c, 10, 74, 108
10, 12230, Note_on_c, 10, 74, 0
10, 12230, Note_on_c, 10, 86, 0
10, 12240, Note_on_c, 10, 74, 108
10, 12240, Note_on_c, 10, 86, 108
10, 12260, Note_on_c, 10, 86, 0
10, 12260, Note_on_c, 10, 74, 0
10, 12270, Note_on_c, 10, 86, 108
10, 12270, Note_on_c, 10, 74, 108
10, 12290, Note_on_c, 10, 74, 0
10, 12290, Note_on_c, 10, 86, 0
10, 12300, Note_on_c, 10, 74, 108
10, 12300, Note_on_c, 10, 86, 108
10, 12320, Note_on_c, 10, 86, 0
10, 12320, Note_on_c, 10, 74, 0
10, 12330, Note_on_c, 10, 74, 108
10, 12330, Note_on_c, 10, 86, 108
10, 12350, Note_on_c, 10, 86, 0
10, 12350, Note_on_c, 10, 74, 0
10, 12360, Note_on_c, 10, 74, 108
10, 12360, Note_on_c, 10, 86, 108
10, 12380, Note_on_c, 10, 86, 0
10, 12380, Note_on_c, 10, 74, 0
10, 12390, Note_on_c, 10, 74, 108
10, 12390, Note_on_c, 10, 86, 108
10, 12410, Note_on_c, 10, 86, 0
10, 12410, Note_on_c, 10, 74, 0
10, 12420, Note_on_c, 10, 86, 108
10, 12420, Note_on_c, 10, 74, 108
10, 12440, Note_on_c, 10, 74, 0
10, 12440, Note_on_c, 10, 86, 0
10, 12450, Note_on_c, 10, 86, 108
10, 12450, Note_on_c, 10, 74, 108
10, 12470, Note_on_c, 10, 74, 0
10, 12470, Note_on_c, 10, 86, 0
10, 12480, Note_on_c, 10, 86, 108
10, 12480, Note_on_c, 10, 74, 108
10, 12500, Note_on_c, 10, 74, 0
10, 12500, Note_on_c, 10, 86, 0
10, 12510, Note_on_c, 10, 74, 108
10, 12510, Note_on_c, 10, 86, 108
10, 12530, Note_on_c, 10, 86, 0
10, 12530, Note_on_c, 10, 74, 0
10, 12540, Note_on_c, 10, 74, 108
10, 12540, Note_on_c, 10, 86, 108
10, 12560, Note_on_c, 10, 86, 0
10, 12560, Note_on_c, 10, 74, 0
10, 12570, Note_on_c, 10, 86, 108
10, 12570, Note_on_c, 10, 74, 108
10, 12590, Note_on_c, 10, 74, 0
10, 12590, Note_on_c, 10, 86, 0
10, 12600, Note_on_c, 10, 86, 108
10, 12600, Note_on_c, 10, 74, 108
10, 12620, Note_on_c, 10, 74, 0
10, 12620, Note_on_c, 10, 86, 0
10, 12630, Note_on_c, 10, 74, 108
10, 12630, Note_on_c, 10, 86, 108
10, 12650, Note_on_c, 10, 86, 0
10, 12650, Note_on_c, 10, 74, 0
10, 12660, Note_on_c, 10, 74, 108
10, 12660, Note_on_c, 10, 86, 108
10, 12680, Note_on_c, 10, 86, 0
10, 12680, Note_on_c, 10, 74, 0
10, 12690, Note_on_c, 10, 86, 108
10, 12690, Note_on_c, 10, 74, 108
10, 12710, Note_on_c, 10, 74, 0
10, 12710, Note_on_c, 10, 86, 0
10, 12720, Note_on_c, 10, 74, 108
10, 12720, Note_on_c, 10, 86, 108
10, 12740, Note_on_c, 10, 86, 0
10, 12740, Note_on_c, 10, 74, 0
10, 12750, Note_on_c, 10, 86, 108
10, 12750, Note_on_c, 10, 74, 108
10, 12770, Note_on_c, 10, 74, 0
10, 12770, Note_on_c, 10, 86, 0
10, 12780, Note_on_c, 10, 86, 108
10, 12780, Note_on_c, 10, 74, 108
10, 12800, Note_on_c, 10, 74, 0
10, 12800, Note_on_c, 10, 86, 0
10, 12810, Note_on_c, 10, 74, 108
10, 12810, Note_on_c, 10, 86, 108
10, 12830, Note_on_c, 10, 86, 0
10, 12830, Note_on_c, 10, 74, 0
10, 12840, Note_on_c, 10, 74, 108
10, 12840, Note_on_c, 10, 86, 108
10, 12860, Note_on_c, 10, 86, 0
10, 12860, Note_on_c, 10, 74, 0
10, 12870, Note_on_c, 10, 74, 108
10, 12870, Note_on_c, 10, 86, 108
10, 12890, Note_on_c, 10, 86, 0
10, 12890, Note_on_c, 10, 74, 0
10, 12900, Note_on_c, 10, 74, 108
10, 12900, Note_on_c, 10, 86, 108
10, 12920, Note_on_c, 10, 86, 0
10, 12920, Note_on_c, 10, 74, 0
10, 12930, Note_on_c, 10, 74, 108
10, 12930, Note_on_c, 10, 86, 108
10, 12950, Note_on_c, 10, 86, 0
10, 12950, Note_on_c, 10, 74, 0
10, 12960, Note_on_c, 10, 86, 93
10, 12960, Note_on_c, 10, 74, 108
10, 12960, Control_c, 10, 11, 87
10, 12980, Note_on_c, 10, 74, 0
10, 12980, Note_on_c, 10, 86, 0
10, 12984, Control_c, 10, 11, 85
10, 12990, Note_on_c, 10, 74, 108
10, 13008, Control_c, 10, 11, 83
10, 13010, Note_on_c, 10, 74, 0
10, 13020, Note_on_c, 10, 73, 108
10, 13032, Control_c, 10, 11, 81
10, 13040, Note_on_c, 10, 73, 0
10, 13050, Note_on_c, 10, 73, 108
10, 13056, Control_c, 10, 11, 79
10, 13070, Note_on_c, 10, 73, 0
10, 13080, Note_on_c, 10, 74, 108
10, 13080, Control_c, 10, 11, 77
10, 13100, Note_on_c, 10, 74, 0
10, 13104, Control_c, 10, 11, 75
10, 13110, Note_on_c, 10, 74, 108
10, 13128, Control_c, 10, 11, 73
10, 13130, Note_on_c, 10, 74, 0
10, 13140, Note_on_c, 10, 73, 108
10, 13152, Control_c, 10, 11, 71
10, 13160, Note_on_c, 10, 73, 0
10, 13170, Note_on_c, 10, 73, 108
10, 13176, Control_c, 10, 11, 69
10, 13190, Note_on_c, 10, 73, 0
10, 13200, Control_c, 10, 11, 67
10, 13200, Note_on_c, 10, 74, 108
10, 13220, Note_on_c, 10, 74, 0
10, 13224, Control_c, 10, 11, 65
10, 13230, Note_on_c, 10, 74, 108
10, 13248, Control_c, 10, 11, 63
10, 13250, Note_on_c, 10, 74, 0
10, 13260, Note_on_c, 10, 73, 108
10, 13272, Control_c, 10, 11, 61
10, 13280, Note_on_c, 10, 73, 0
10, 13290, Note_on_c, 10, 73, 108
10, 13296, Control_c, 10, 11, 59
10, 13310, Note_on_c, 10, 73, 0
10, 13320, Note_on_c, 10, 74, 108
10, 13320, Control_c, 10, 11, 57
10, 13340, Note_on_c, 10, 74, 0
10, 13344, Control_c, 10, 11, 55
10, 13350, Note_on_c, 10, 74, 108
10, 13368, Control_c, 10, 11, 53
10, 13370, Note_on_c, 10, 74, 0
10, 13380, Note_on_c, 10, 73, 108
10, 13392, Control_c, 10, 11, 51
10, 13400, Note_on_c, 10, 73, 0
10, 13410, Note_on_c, 10, 73, 108
10, 13416, Control_c, 10, 11, 49
10, 13430, Note_on_c, 10, 73, 0
10, 13440, Note_on_c, 10, 74, 108
10, 13440, Control_c, 10, 11, 37
10, 13458, Control_c, 10, 11, 39
10, 13476, Control_c, 10, 11, 41
10, 13494, Control_c, 10, 11, 43
10, 13512, Control_c, 10, 11, 45
10, 13530, Control_c, 10, 11, 47
10, 13610, Note_on_c, 10, 74, 0
10, 13620, Note_on_c, 10, 79, 108
10, 13680, Note_on_c, 10, 79, 0
10, 13680, Note_on_c, 10, 78, 118
10, 13710, Note_on_c, 10, 78, 0
10, 13740, Note_on_c, 10, 78, 108
10, 13770, Note_on_c, 10, 78, 0
10, 13860, Note_on_c, 10, 81, 108
10, 13920, Note_on_c, 10, 81, 0
10, 13920, Note_on_c, 10, 79, 118
10, 13950, Note_on_c, 10, 79, 0
10, 13980, Note_on_c, 10, 79, 108
10, 14010, Note_on_c, 10, 79, 0
10, 14100, Note_on_c, 10, 83, 108
10, 14160, Note_on_c, 10, 83, 0
10, 14160, Note_on_c, 10, 81, 118
10, 14190, Note_on_c, 10, 81, 0
10, 14220, Note_on_c, 10, 78, 108
10, 14250, Note_on_c, 10, 78, 0
10, 14280, Note_on_c, 10, 74, 108
10, 14310, Note_on_c, 10, 74, 0
10, 14340, Note_on_c, 10, 72, 108
10, 14370, Note_on_c, 10, 72, 0
10, 14400, Note_on_c, 10, 71, 108
10, 14460, Note_on_c, 10, 71, 0
10, 14460, Note_on_c, 10, 74, 108
10, 14520, Note_on_c, 10, 74, 0
10, 14580, Note_on_c, 10, 79, 108
10, 14610, Note_on_c, 10, 79, 0
10, 14640, Note_on_c, 10, 79, 118
10, 14700, Note_on_c, 10, 79, 0
10, 14700, Note_on_c, 10, 78, 108
10, 14760, Note_on_c, 10, 78, 0
10, 14820, Note_on_c, 10, 81, 108
10, 14850, Note_on_c, 10, 81, 0
10, 14880, Note_on_c, 10, 81, 118
10, 14940, Note_on_c, 10, 81, 0
10, 14940, Note_on_c, 10, 79, 108
10, 15000, Note_on_c, 10, 79, 0
10, 15060, Note_on_c, 10, 83, 108
10, 15120, Note_on_c, 10, 83, 0
10, 15120, Note_on_c, 10, 81, 118
10, 15150, Note_on_c, 10, 81, 0
10, 15180, Note_on_c, 10, 78, 108
10, 15210, Note_on_c, 10, 78, 0
10, 15240, Note_on_c, 10, 74, 108
10, 15270, Note_on_c, 10, 74, 0
10, 15300, Note_on_c, 10, 72, 108
10, 15330, Note_on_c, 10, 72, 0
10, 15360, Note_on_c, 10, 71, 108
10, 15420, Note_on_c, 10, 71, 0
10, 15420, Note_on_c, 10, 74, 108
10, 15470, Note_on_c, 10, 74, 0
10, 15480, Note_on_c, 10, 74, 108
10, 15510, Note_on_c, 10, 74, 0
10, 15540, Note_on_c, 10, 79, 108
10, 15570, Note_on_c, 10, 79, 0
10, 15600, Note_on_c, 10, 79, 118
10, 15600, Control_c, 10, 11, 47
10, 15630, Control_c, 10, 11, 48
10, 15660, Note_on_c, 10, 79, 0
10, 15660, Control_c, 10, 11, 49
10, 15660, Note_on_c, 10, 78, 108
10, 15690, Control_c, 10, 11, 50
10, 15710, Note_on_c, 10, 78, 0
10, 15720, Control_c, 10, 11, 51
10, 15720, Note_on_c, 10, 78, 108
10, 15750, Note_on_c, 10, 78, 0
10, 15750, Control_c, 10, 11, 52
10, 15780, Note_on_c, 10, 81, 108
10, 15780, Control_c, 10, 11, 53
10, 15810, Note_on_c, 10, 81, 0
10, 15810, Control_c, 10, 11, 54
10, 15840, Note_on_c, 10, 81, 118
10, 15840, Control_c, 10, 11, 55
10, 15870, Control_c, 10, 11, 56
10, 15900, Note_on_c, 10, 81, 0
10, 15900, Note_on_c, 10, 79, 108
10, 15900, Control_c, 10, 11, 57
10, 15930, Control_c, 10, 11, 58
10, 15950, Note_on_c, 10, 79, 0
10, 15960, Note_on_c, 10, 79, 108
10, 15960, Control_c, 10, 11, 59
10, 15990, Note_on_c, 10, 79, 0
10, 15990, Control_c, 10, 11, 60
10, 16020, Note_on_c, 10, 83, 108
10, 16020, Control_c, 10, 11, 61
10, 16050, Note_on_c, 10, 83, 0
10, 16050, Control_c, 10, 11, 62
10, 16080, Control_c, 10, 11, 63
10, 16080, Note_on_c, 10, 83, 118
10, 16110, Control_c, 10, 11, 64
10, 16140, Note_on_c, 10, 83, 0
10, 16140, Control_c, 10, 11, 65
10, 16140, Note_on_c, 10, 81, 108
10, 16170, Control_c, 10, 11, 66
10, 16190, Note_on_c, 10, 81, 0
10, 16200, Note_on_c, 10, 81, 108
10, 16200, Control_c, 10, 11, 67
10, 16230, Note_on_c, 10, 81, 0
10, 16230, Control_c, 10, 11, 68
10, 16260, Note_on_c, 10, 84, 108
10, 16260, Control_c, 10, 11, 69
10, 16290, Note_on_c, 10, 84, 0
10, 16290, Control_c, 10, 11, 70
10, 16320, Note_on_c, 10, 84, 118
10, 16320, Control_c, 10, 11, 71
10, 16350, Control_c, 10, 11, 72
10, 16380, Note_on_c, 10, 84, 0
10, 16380, Control_c, 10, 11, 73
10, 16380, Note_on_c, 10, 83, 108
10, 16410, Control_c, 10, 11, 74
10, 16430, Note_on_c, 10, 83, 0
10, 16440, Note_on_c, 10, 83, 108
10, 16440, Control_c, 10, 11, 75
10, 16470, Note_on_c, 10, 83, 0
10, 16470, Control_c, 10, 11, 76
10, 16500, Note_on_c, 10, 86, 108
10, 16500, Control_c, 10, 11, 77
10, 16530, Note_on_c, 10, 86, 0
10, 16530, Control_c, 10, 11, 78
10, 16560, Note_on_c, 10, 86, 118
10, 16560, Control_c, 10, 11, 79
10, 16590, Control_c, 10, 11, 80
10, 16620, Note_on_c, 10, 86, 0
10, 16620, Control_c, 10, 11, 81
10, 16620, Note_on_c, 10, 84, 108
10, 16650, Control_c, 10, 11, 82
10, 16670, Note_on_c, 10, 84, 0
10, 16680, Control_c, 10, 11, 83
10, 16680, Note_on_c, 10, 84, 108
10, 16710, Note_on_c, 10, 84, 0
10, 16710, Control_c, 10, 11, 84
10, 16740, Note_on_c, 10, 88, 108
10, 16740, Control_c, 10, 11, 85
10, 16770, Note_on_c, 10, 88, 0
10, 16770, Control_c, 10, 11, 86
10, 16800, Control_c, 10, 11, 90
10, 16800, Note_on_c, 10, 89, 108
10, 16806, Control_c, 10, 11, 93
10, 16812, Control_c, 10, 11, 96
10, 16818, Control_c, 10, 11, 99
10, 16832, Control_c, 10, 11, 96
10, 16841, Control_c, 10, 11, 93
10, 16850, Control_c, 10, 11, 90
10, 16859, Control_c, 10, 11, 87
10, 17020, Note_on_c, 10, 89, 0
10, 17040, Note_on_c, 10, 80, 108
10, 17040, Control_c, 10, 11, 92
10, 17048, Control_c, 10, 11, 95
10, 17057, Control_c, 10, 11, 98
10, 17066, Control_c, 10, 11, 101
10, 17081, Control_c, 10, 11, 100
10, 17099, Control_c, 10, 11, 97
10, 17117, Control_c, 10, 11, 94
10, 17135, Control_c, 10, 11, 91
10, 17153, Control_c, 10, 11, 88
10, 17260, Note_on_c, 10, 80, 0
10, 17280, Note_on_c, 10, 81, 108
10, 17280, Control_c, 10, 11, 92
10, 17288, Control_c, 10, 11, 95
10, 17297, Control_c, 10, 11, 98
10, 17306, Control_c, 10, 11, 101
10, 17321, Control_c, 10, 11, 100
10, 17339, Control_c, 10, 11, 97
10, 17357, Control_c, 10, 11, 94
10, 17375, Control_c, 10, 11, 91
10, 17393, Control_c, 10, 11, 88
10, 17500, Note_on_c, 10, 81, 0
10, 17520, Control_c, 10, 11, 92
10, 17520, Note_on_c, 10, 82, 108
10, 17528, Control_c, 10, 11, 95
10, 17537, Control_c, 10, 11, 98
10, 17546, Control_c, 10, 11, 101
10, 17561, Control_c, 10, 11, 100
10, 17579, Control_c, 10, 11, 97
10, 17597, Control_c, 10, 11, 94
10, 17615, Control_c, 10, 11, 91
10, 17633, Control_c, 10, 11, 88
10, 17740, Note_on_c, 10, 82, 0
10, 17760, Note_on_c, 10, 83, 108
10, 17780, Note_on_c, 10, 83, 0
10, 17790, Note_on_c, 10, 83, 108
10, 17810, Note_on_c, 10, 83, 0
10, 17820, Note_on_c, 10, 83, 108
10, 17840, Note_on_c, 10, 83, 0
10, 17850, Note_on_c, 10, 83, 108
10, 17870, Note_on_c, 10, 83, 0
10, 17880, Control_c, 10, 11, 102
10, 17880, Note_on_c, 10, 84, 108
10, 17900, Note_on_c, 10, 84, 0
10, 17910, Note_on_c, 10, 84, 108
10, 17930, Note_on_c, 10, 84, 0
10, 17940, Note_on_c, 10, 84, 108
10, 17960, Note_on_c, 10, 84, 0
10, 17970, Note_on_c, 10, 84, 108
10, 17990, Note_on_c, 10, 84, 0
10, 18000, Note_on_c, 10, 84, 108
10, 18020, Note_on_c, 10, 84, 0
10, 18030, Note_on_c, 10, 84, 108
10, 18050, Note_on_c, 10, 84, 0
10, 18060, Note_on_c, 10, 84, 108
10, 18080, Note_on_c, 10, 84, 0
10, 18090, Note_on_c, 10, 84, 108
10, 18110, Note_on_c, 10, 84, 0
10, 18120, Note_on_c, 10, 84, 108
10, 18140, Note_on_c, 10, 84, 0
10, 18150, Note_on_c, 10, 84, 108
10, 18170, Note_on_c, 10, 84, 0
10, 18180, Note_on_c, 10, 84, 108
10, 18200, Note_on_c, 10, 84, 0
10, 18210, Note_on_c, 10, 84, 108
10, 18230, Note_on_c, 10, 84, 0
10, 18240, Note_on_c, 10, 83, 108
10, 18260, Note_on_c, 10, 83, 0
10, 18270, Note_on_c, 10, 83, 108
10, 18290, Note_on_c, 10, 83, 0
10, 18300, Note_on_c, 10, 83, 108
10, 18320, Note_on_c, 10, 83, 0
10, 18330, Note_on_c, 10, 83, 108
10, 18350, Note_on_c, 10, 83, 0
10, 18360, Note_on_c, 10, 81, 108
10, 18380, Note_on_c, 10, 81, 0
10, 18390, Note_on_c, 10, 81, 108
10, 18410, Note_on_c, 10, 81, 0
10, 18420, Note_on_c, 10, 81, 108
10, 18440, Note_on_c, 10, 81, 0
10, 18450, Note_on_c, 10, 81, 108
10, 18470, Note_on_c, 10, 81, 0
10, 18480, Note_on_c, 10, 79, 108
10, 18500, Note_on_c, 10, 79, 0
10, 18510, Note_on_c, 10, 79, 108
10, 18530, Note_on_c, 10, 79, 0
10, 18540, Note_on_c, 10, 79, 108
10, 18560, Note_on_c, 10, 79, 0
10, 18570, Note_on_c, 10, 79, 108
10, 18590, Note_on_c, 10, 79, 0
10, 18600, Note_on_c, 10, 78, 108
10, 18620, Note_on_c, 10, 78, 0
10, 18630, Note_on_c, 10, 78, 108
10, 18650, Note_on_c, 10, 78, 0
10, 18660, Note_on_c, 10, 78, 108
10, 18680, Note_on_c, 10, 78, 0
10, 18690, Note_on_c, 10, 78, 108
10, 18710, Note_on_c, 10, 78, 0
10, 18720, Note_on_c, 10, 79, 108
10, 18840, Note_on_c, 10, 79, 0
10, 19020, Control_c, 10, 11, 122
10, 19020, Note_on_c, 10, 88, 108
10, 19028, Control_c, 10, 11, 119
10, 19037, Control_c, 10, 11, 116
10, 19046, Control_c, 10, 11, 113
10, 19055, Control_c, 10, 11, 110
10, 19064, Control_c, 10, 11, 107
10, 19073, Control_c, 10, 11, 104
10, 19120, Note_on_c, 10, 88, 0
10, 19140, Note_on_c, 10, 88, 108
10, 19185, Note_on_c, 10, 88, 0
10, 19200, Note_on_c, 10, 86, 108
10, 19260, Note_on_c, 10, 86, 0
10, 19500, Note_on_c, 10, 69, 108
10, 19500, Note_on_c, 10, 78, 108
10, 19500, Control_c, 10, 11, 122
10, 19508, Control_c, 10, 11, 119
10, 19517, Control_c, 10, 11, 116
10, 19526, Control_c, 10, 11, 113
10, 19535, Control_c, 10, 11, 110
10, 19544, Control_c, 10, 11, 107
10, 19553, Control_c, 10, 11, 104
10, 19600, Note_on_c, 10, 78, 0
10, 19600, Note_on_c, 10, 69, 0
10, 19620, Note_on_c, 10, 69, 108
10, 19620, Note_on_c, 10, 78, 108
10, 19665, Note_on_c, 10, 78, 0
10, 19665, Note_on_c, 10, 69, 0
10, 19680, Note_on_c, 10, 79, 108
10, 19680, Note_on_c, 10, 71, 108
10, 19740, Note_on_c, 10, 71, 0
10, 19740, Note_on_c, 10, 79, 0
10, 19980, Control_c, 10, 11, 122
10, 19980, Note_on_c, 10, 88, 108
10, 19988, Control_c, 10, 11, 119
10, 19997, Control_c, 10, 11, 116
10, 20006, Control_c, 10, 11, 113
10, 20015, Control_c, 10, 11, 110
10, 20024, Control_c, 10, 11, 107
10, 20033, Control_c, 10, 11, 104
10, 20080, Note_on_c, 10, 88, 0
10, 20100, Note_on_c, 10, 88, 108
10, 20145, Note_on_c, 10, 88, 0
10, 20160, Note_on_c, 10, 86, 108
10, 20220, Note_on_c, 10, 86, 0
10, 20460, Note_on_c, 10, 69, 108
10, 20460, Note_on_c, 10, 78, 108
10, 20460, Control_c, 10, 11, 122
10, 20468, Control_c, 10, 11, 119
10, 20477, Control_c, 10, 11, 116
10, 20486, Control_c, 10, 11, 113
10, 20495, Control_c, 10, 11, 110
10, 20504, Control_c, 10, 11, 107
10, 20513, Control_c, 10, 11, 104
10, 20560, Note_on_c, 10, 78, 0
10, 20560, Note_on_c, 10, 69, 0
10, 20580, Note_on_c, 10, 78, 108
10, 20580, Note_on_c, 10, 69, 108
10, 20625, Note_on_c, 10, 69, 0
10, 20625, Note_on_c, 10, 78, 0
10, 20640, Note_on_c, 10, 71, 108
10, 20640, Note_on_c, 10, 79, 108
10, 20660, Note_on_c, 10, 79, 0
10, 20660, Note_on_c, 10, 71, 0
10, 20670, Note_on_c, 10, 67, 108
10, 20690, Note_on_c, 10, 67, 0
10, 20700, Note_on_c, 10, 67, 108
10, 20720, Note_on_c, 10, 67, 0
10, 20730, Note_on_c, 10, 67, 108
10, 20750, Note_on_c, 10, 67, 0
10, 20760, Note_on_c, 10, 67, 108
10, 20780, Note_on_c, 10, 67, 0
10, 20790, Note_on_c, 10, 67, 108
10, 20810, Note_on_c, 10, 67, 0
10, 20820, Note_on_c, 10, 67, 108
10, 20840, Note_on_c, 10, 67, 0
10, 20850, Note_on_c, 10, 67, 108
10, 20870, Note_on_c, 10, 67, 0
10, 20880, Note_on_c, 10, 67, 108
10, 20900, Note_on_c, 10, 67, 0
10, 20910, Note_on_c, 10, 67, 108
10, 20930, Note_on_c, 10, 67, 0
10, 20940, Note_on_c, 10, 67, 108
10, 20960, Note_on_c, 10, 67, 0
10, 20970, Note_on_c, 10, 67, 108
10, 20990, Note_on_c, 10, 67, 0
10, 21000, Note_on_c, 10, 67, 108
10, 21020, Note_on_c, 10, 67, 0
10, 21030, Note_on_c, 10, 67, 108
10, 21050, Note_on_c, 10, 67, 0
10, 21060, Note_on_c, 10, 67, 108
10, 21080, Note_on_c, 10, 67, 0
10, 21090, Note_on_c, 10, 67, 108
10, 21110, Note_on_c, 10, 67, 0
10, 21120, Note_on_c, 10, 67, 108
10, 21120, Control_c, 10, 11, 122
10, 21137, Control_c, 10, 11, 119
10, 21140, Note_on_c, 10, 67, 0
10, 21150, Note_on_c, 10, 67, 108
10, 21155, Control_c, 10, 11, 116
10, 21170, Note_on_c, 10, 67, 0
10, 21173, Control_c, 10, 11, 113
10, 21180, Note_on_c, 10, 67, 108
10, 21191, Control_c, 10, 11, 110
10, 21200, Note_on_c, 10, 67, 0
10, 21209, Control_c, 10, 11, 107
10, 21210, Note_on_c, 10, 67, 108
10, 21227, Control_c, 10, 11, 104
10, 21230, Note_on_c, 10, 67, 0
10, 21240, Note_on_c, 10, 67, 108
10, 21260, Note_on_c, 10, 67, 0
10, 21270, Note_on_c, 10, 67, 108
10, 21290, Note_on_c, 10, 67, 0
10, 21300, Note_on_c, 10, 67, 108
10, 21320, Note_on_c, 10, 67, 0
10, 21330, Note_on_c, 10, 67, 108
10, 21350, Note_on_c, 10, 67, 0
10, 21360, Note_on_c, 10, 67, 108
10, 21380, Note_on_c, 10, 67, 0
10, 21390, Note_on_c, 10, 67, 108
10, 21410, Note_on_c, 10, 67, 0
10, 21420, Note_on_c, 10, 67, 108
10, 21440, Note_on_c, 10, 67, 0
10, 21450, Note_on_c, 10, 67, 108
10, 21470, Note_on_c, 10, 67, 0
10, 21480, Note_on_c, 10, 67, 108
10, 21500, Note_on_c, 10, 67, 0
10, 21510, Note_on_c, 10, 67, 108
10, 21530, Note_on_c, 10, 67, 0
10, 21540, Note_on_c, 10, 67, 108
10, 21560, Note_on_c, 10, 67, 0
10, 21570, Note_on_c, 10, 67, 108
10, 21590, Note_on_c, 10, 67, 0
10, 21600, Note_on_c, 10, 67, 108
10, 21600, Control_c, 10, 11, 122
10, 21617, Control_c, 10, 11, 119
10, 21620, Note_on_c, 10, 67, 0
10, 21630, Note_on_c, 10, 67, 108
10, 21635, Control_c, 10, 11, 116
10, 21650, Note_on_c, 10, 67, 0
10, 21653, Control_c, 10, 11, 113
10, 21660, Note_on_c, 10, 67, 108
10, 21671, Control_c, 10, 11, 110
10, 21680, Note_on_c, 10, 67, 0
10, 21689, Control_c, 10, 11, 107
10, 21690, Note_on_c, 10, 67, 108
10, 21707, Control_c, 10, 11, 104
10, 21710, Note_on_c, 10, 67, 0
10, 21720, Note_on_c, 10, 67, 108
10, 21740, Note_on_c, 10, 67, 0
10, 21750, Note_on_c, 10, 67, 108
10, 21770, Note_on_c, 10, 67, 0
10, 21780, Note_on_c, 10, 67, 108
10, 21800, Note_on_c, 10, 67, 0
10, 21810, Note_on_c, 10, 67, 108
10, 21830, Note_on_c, 10, 67, 0
10, 21840, Note_on_c, 10, 67, 108
10, 21860, Note_on_c, 10, 67, 0
10, 21870, Note_on_c, 10, 67, 108
10, 21890, Note_on_c, 10, 67, 0
10, 21900, Note_on_c, 10, 67, 108
10, 21920, Note_on_c, 10, 67, 0
10, 21930, Note_on_c, 10, 67, 108
10, 21950, Note_on_c, 10, 67, 0
10, 21960, Note_on_c, 10, 67, 108
10, 21980, Note_on_c, 10, 67, 0
10, 21990, Note_on_c, 10, 67, 108
10, 22010, Note_on_c, 10, 67, 0
10, 22020, Note_on_c, 10, 67, 108
10, 22040, Note_on_c, 10, 67, 0
10, 22050, Note_on_c, 10, 67, 108
10, 22070, Note_on_c, 10, 67, 0
10, 22080, Control_c, 10, 11, 122
10, 22080, Note_on_c, 10, 67, 108
10, 22097, Control_c, 10, 11, 119
10, 22100, Note_on_c, 10, 67, 0
10, 22110, Note_on_c, 10, 67, 108
10, 22115, Control_c, 10, 11, 116
10, 22130, Note_on_c, 10, 67, 0
10, 22133, Control_c, 10, 11, 113
10, 22140, Note_on_c, 10, 67, 108
10, 22151, Control_c, 10, 11, 110
10, 22160, Note_on_c, 10, 67, 0
10, 22169, Control_c, 10, 11, 107
10, 22170, Note_on_c, 10, 67, 108
10, 22187, Control_c, 10, 11, 104
10, 22190, Note_on_c, 10, 67, 0
10, 22200, Note_on_c, 10, 67, 108
10, 22220, Note_on_c, 10, 67, 0
10, 22230, Note_on_c, 10, 67, 108
10, 22250, Note_on_c, 10, 67, 0
10, 22260, Note_on_c, 10, 67, 108
10, 22280, Note_on_c, 10, 67, 0
10, 22290, Note_on_c, 10, 67, 108
10, 22310, Note_on_c, 10, 67, 0
10, 22320, Note_on_c, 10, 67, 108
10, 22340, Note_on_c, 10, 67, 0
10, 22350, Note_on_c, 10, 67, 108
10, 22370, Note_on_c, 10, 67, 0
10, 22380, Note_on_c, 10, 67, 108
10, 22400, Note_on_c, 10, 67, 0
10, 22410, Note_on_c, 10, 67, 108
10, 22430, Note_on_c, 10, 67, 0
10, 22440, Note_on_c, 10, 67, 108
10, 22460, Note_on_c, 10, 67, 0
10, 22470, Note_on_c, 10, 67, 108
10, 22490, Note_on_c, 10, 67, 0
10, 22500, Note_on_c, 10, 67, 108
10, 22520, Note_on_c, 10, 67, 0
10, 22530, Note_on_c, 10, 67, 108
10, 22550, Note_on_c, 10, 67, 0
10, 22560, Note_on_c, 10, 67, 108
10, 22560, Control_c, 10, 11, 122
10, 22577, Control_c, 10, 11, 119
10, 22580, Note_on_c, 10, 67, 0
10, 22590, Note_on_c, 10, 67, 108
10, 22595, Control_c, 10, 11, 116
10, 22610, Note_on_c, 10, 67, 0
10, 22613, Control_c, 10, 11, 113
10, 22620, Note_on_c, 10, 67, 108
10, 22631, Control_c, 10, 11, 110
10, 22640, Note_on_c, 10, 67, 0
10, 22649, Control_c, 10, 11, 107
10, 22650, Note_on_c, 10, 67, 108
10, 22667, Control_c, 10, 11, 104
10, 22670, Note_on_c, 10, 67, 0
10, 22680, Note_on_c, 10, 67, 108
10, 22700, Note_on_c, 10, 67, 0
10, 22710, Note_on_c, 10, 67, 108
10, 22730, Note_on_c, 10, 67, 0
10, 22740, Note_on_c, 10, 67, 108
10, 22760, Note_on_c, 10, 67, 0
10, 22770, Note_on_c, 10, 67, 108
10, 22790, Note_on_c, 10, 67, 0
10, 22800, Note_on_c, 10, 67, 108
10, 22800, Control_c, 10, 11, 122
10, 22817, Control_c, 10, 11, 119
10, 22820, Note_on_c, 10, 67, 0
10, 22830, Note_on_c, 10, 67, 108
10, 22835, Control_c, 10, 11, 116
10, 22850, Note_on_c, 10, 67, 0
10, 22853, Control_c, 10, 11, 113
10, 22860, Note_on_c, 10, 67, 108
10, 22871, Control_c, 10, 11, 110
10, 22880, Note_on_c, 10, 67, 0
10, 22889, Control_c, 10, 11, 107
10, 22890, Note_on_c, 10, 67, 108
10, 22907, Control_c, 10, 11, 104
10, 22910, Note_on_c, 10, 67, 0
10, 22920, Note_on_c, 10, 67, 108
10, 22940, Note_on_c, 10, 67, 0
10, 22950, Note_on_c, 10, 67, 108
10, 22970, Note_on_c, 10, 67, 0
10, 22980, Note_on_c, 10, 67, 108
10, 23000, Note_on_c, 10, 67, 0
10, 23010, Note_on_c, 10, 67, 108
10, 23030, Note_on_c, 10, 67, 0
10, 23040, Note_on_c, 10, 67, 108
10, 23040, Control_c, 10, 11, 92
10, 23051, Control_c, 10, 11, 89
10, 23060, Note_on_c, 10, 67, 0
10, 23063, Control_c, 10, 11, 86
10, 23070, Note_on_c, 10, 67, 108
10, 23075, Control_c, 10, 11, 83
10, 23087, Control_c, 10, 11, 80
10, 23090, Note_on_c, 10, 67, 0
10, 23099, Control_c, 10, 11, 77
10, 23100, Note_on_c, 10, 67, 108
10, 23111, Control_c, 10, 11, 74
10, 23120, Note_on_c, 10, 67, 0
10, 23123, Control_c, 10, 11, 71
10, 23130, Note_on_c, 10, 67, 108
10, 23135, Control_c, 10, 11, 68
10, 23147, Control_c, 10, 11, 65
10, 23150, Note_on_c, 10, 67, 0
10, 23159, Control_c, 10, 11, 62
10, 23160, Note_on_c, 10, 67, 108
10, 23171, Control_c, 10, 11, 59
10, 23175, Note_on_c, 10, 67, 0
10, 23183, Control_c, 10, 11, 56
10, 23190, Note_on_c, 10, 67, 123
10, 23195, Control_c, 10, 11, 53
10, 23205, Note_on_c, 10, 67, 0
10, 23207, Control_c, 10, 11, 50
10, 23219, Control_c, 10, 11, 47
10, 23220, Note_on_c, 10, 69, 123
10, 23235, Note_on_c, 10, 69, 0
10, 23250, Note_on_c, 10, 71, 123
10, 23265, Note_on_c, 10, 71, 0
10, 23280, Note_on_c, 10, 72, 123
10, 23295, Note_on_c, 10, 72, 0
10, 23310, Note_on_c, 10, 74, 123
10, 23325, Note_on_c, 10, 74, 0
10, 23340, Note_on_c, 10, 76, 123
10, 23355, Note_on_c, 10, 76, 0
10, 23370, Note_on_c, 10, 77, 123
10, 23385, Note_on_c, 10, 77, 0
10, 23400, Note_on_c, 10, 79, 123
10, 23430, Note_on_c, 10, 79, 0
10, 23460, Note_on_c, 10, 79, 108
10, 23490, Note_on_c, 10, 79, 0
10, 23520, Note_on_c, 10, 76, 108
10, 23640, Note_on_c, 10, 76, 0
10, 23640, Note_on_c, 10, 72, 108
10, 23670, Note_on_c, 10, 72, 0
10, 23700, Note_on_c, 10, 72, 108
10, 23730, Note_on_c, 10, 72, 0
10, 23760, Note_on_c, 10, 74, 108
10, 23790, Note_on_c, 10, 74, 0
10, 23820, Note_on_c, 10, 74, 108
10, 23850, Note_on_c, 10, 74, 0
10, 23880, Note_on_c, 10, 76, 108
10, 23910, Note_on_c, 10, 76, 0
10, 23910, Note_on_c, 10, 74, 108
10, 23940, Note_on_c, 10, 74, 0
10, 23940, Note_on_c, 10, 72, 108
10, 23970, Note_on_c, 10, 72, 0
10, 23970, Note_on_c, 10, 74, 108
10, 23990, Note_on_c, 10, 74, 0
10, 24000, Note_on_c, 10, 76, 108
10, 24120, Note_on_c, 10, 76, 0
10, 24120, Note_on_c, 10, 72, 108
10, 24150, Note_on_c, 10, 72, 0
10, 24150, Note_on_c, 10, 67, 108
10, 24165, Note_on_c, 10, 67, 0
10, 24180, Note_on_c, 10, 69, 108
10, 24195, Note_on_c, 10, 69, 0
10, 24210, Note_on_c, 10, 71, 108
10, 24225, Note_on_c, 10, 71, 0
10, 24240, Note_on_c, 10, 72, 108
10, 24255, Note_on_c, 10, 72, 0
10, 24270, Note_on_c, 10, 74, 108
10, 24285, Note_on_c, 10, 74, 0
10, 24300, Note_on_c, 10, 76, 108
10, 24315, Note_on_c, 10, 76, 0
10, 24330, Note_on_c, 10, 77, 108
10, 24345, Note_on_c, 10, 77, 0
10, 24360, Note_on_c, 10, 79, 108
10, 24390, Note_on_c, 10, 79, 0
10, 24420, Note_on_c, 10, 79, 108
10, 24450, Note_on_c, 10, 79, 0
10, 24480, Note_on_c, 10, 76, 108
10, 24510, Note_on_c, 10, 76, 0
10, 24540, Note_on_c, 10, 72, 108
10, 24570, Note_on_c, 10, 72, 0
10, 24600, Note_on_c, 10, 74, 108
10, 24630, Note_on_c, 10, 74, 0
10, 24630, Note_on_c, 10, 72, 108
10, 24660, Note_on_c, 10, 72, 0
10, 24660, Note_on_c, 10, 71, 108
10, 24690, Note_on_c, 10, 71, 0
10, 24690, Note_on_c, 10, 72, 108
10, 24710, Note_on_c, 10, 72, 0
10, 24720, Note_on_c, 10, 69, 108
10, 24750, Note_on_c, 10, 69, 0
10, 24780, Note_on_c, 10, 74, 108
10, 24810, Note_on_c, 10, 74, 0
10, 24840, Note_on_c, 10, 76, 108
10, 24870, Note_on_c, 10, 76, 0
10, 24870, Note_on_c, 10, 74, 108
10, 24900, Note_on_c, 10, 74, 0
10, 24900, Note_on_c, 10, 73, 108
10, 24930, Note_on_c, 10, 73, 0
10, 24930, Note_on_c, 10, 74, 108
10, 24950, Note_on_c, 10, 74, 0
10, 24960, Note_on_c, 10, 67, 84
10, 25080, Note_on_c, 10, 67, 0
10, 25140, Note_on_c, 10, 67, 108
10, 25190, Note_on_c, 10, 67, 0
10, 25200, Note_on_c, 10, 79, 108
10, 25230, Note_on_c, 10, 79, 0
10, 25260, Note_on_c, 10, 79, 108
10, 25290, Note_on_c, 10, 79, 0
10, 25320, Note_on_c, 10, 79, 108
10, 25350, Note_on_c, 10, 79, 0
10, 25380, Note_on_c, 10, 79, 108
10, 25410, Note_on_c, 10, 79, 0
10, 25440, Note_on_c, 10, 79, 108
10, 25560, Note_on_c, 10, 79, 0
10, 25560, Note_on_c, 10, 77, 108
10, 25610, Note_on_c, 10, 77, 0
10, 25620, Note_on_c, 10, 77, 108
10, 25650, Note_on_c, 10, 77, 0
10, 25680, Note_on_c, 10, 77, 108
10, 25710, Note_on_c, 10, 77, 0
10, 25740, Note_on_c, 10, 77, 108
10, 25770, Note_on_c, 10, 77, 0
10, 25800, Note_on_c, 10, 77, 108
10, 25830, Note_on_c, 10, 77, 0
10, 25860, Note_on_c, 10, 77, 108
10, 25890, Note_on_c, 10, 77, 0
10, 25920, Note_on_c, 10, 77, 108
10, 26040, Note_on_c, 10, 77, 0
10, 26040, Note_on_c, 10, 76, 108
10, 26090, Note_on_c, 10, 76, 0
10, 26100, Note_on_c, 10, 76, 108
10, 26130, Note_on_c, 10, 76, 0
10, 26160, Note_on_c, 10, 76, 108
10, 26190, Note_on_c, 10, 76, 0
10, 26220, Note_on_c, 10, 76, 108
10, 26250, Note_on_c, 10, 76, 0
10, 26280, Note_on_c, 10, 76, 108
10, 26310, Note_on_c, 10, 76, 0
10, 26340, Note_on_c, 10, 76, 108
10, 26370, Note_on_c, 10, 76, 0
10, 26400, Note_on_c, 10, 74, 108
10, 26460, Note_on_c, 10, 74, 0
10, 26520, Note_on_c, 10, 77, 108
10, 26580, Note_on_c, 10, 77, 0
10, 26640, Note_on_c, 10, 72, 108
10, 26700, Note_on_c, 10, 72, 0
10, 26760, Note_on_c, 10, 71, 108
10, 26820, Note_on_c, 10, 71, 0
10, 26880, Note_on_c, 10, 72, 108
10, 26940, Note_on_c, 10, 72, 0
10, 27180, Control_c, 10, 11, 47
10, 27180, Note_on_c, 10, 81, 108
10, 27195, Control_c, 10, 11, 48
10, 27210, Note_on_c, 10, 81, 0
10, 27210, Control_c, 10, 11, 49
10, 27225, Control_c, 10, 11, 50
10, 27240, Note_on_c, 10, 83, 108
10, 27241, Control_c, 10, 11, 51
10, 27256, Control_c, 10, 11, 52
10, 27270, Note_on_c, 10, 83, 0
10, 27271, Control_c, 10, 11, 53
10, 27286, Control_c, 10, 11, 54
10, 27300, Note_on_c, 10, 85, 108
10, 27302, Control_c, 10, 11, 55
10, 27317, Control_c, 10, 11, 56
10, 27330, Note_on_c, 10, 85, 0
10, 27332, Control_c, 10, 11, 57
10, 27348, Control_c, 10, 11, 58
10, 27360, Note_on_c, 10, 86, 108
10, 27363, Control_c, 10, 11, 59
10, 27378, Control_c, 10, 11, 60
10, 27390, Note_on_c, 10, 86, 0
10, 27393, Control_c, 10, 11, 61
10, 27409, Control_c, 10, 11, 62
10, 27420, Note_on_c, 10, 88, 108
10, 27424, Control_c, 10, 11, 63
10, 27439, Control_c, 10, 11, 64
10, 27450, Note_on_c, 10, 88, 0
10, 27454, Control_c, 10, 11, 65
10, 27470, Control_c, 10, 11, 66
10, 27480, Note_on_c, 10, 89, 108
10, 27485, Control_c, 10, 11, 67
10, 27500, Control_c, 10, 11, 68
10, 27510, Note_on_c, 10, 89, 0
10, 27516, Control_c, 10, 11, 69
10, 27531, Control_c, 10, 11, 70
10, 27546, Control_c, 10, 11, 71
10, 27561, Control_c, 10, 11, 72
10, 27577, Control_c, 10, 11, 73
10, 27592, Control_c, 10, 11, 74
10, 27607, Control_c, 10, 11, 75
10, 27622, Control_c, 10, 11, 76
10, 27638, Control_c, 10, 11, 77
10, 27653, Control_c, 10, 11, 78
10, 27660, Note_on_c, 10, 79, 108
10, 27668, Control_c, 10, 11, 79
10, 27684, Control_c, 10, 11, 80
10, 27690, Note_on_c, 10, 79, 0
10, 27699, Control_c, 10, 11, 81
10, 27714, Control_c, 10, 11, 82
10, 27720, Note_on_c, 10, 81, 108
10, 27729, Control_c, 10, 11, 83
10, 27745, Control_c, 10, 11, 84
10, 27750, Note_on_c, 10, 81, 0
10, 27760, Control_c, 10, 11, 85
10, 27775, Control_c, 10, 11, 86
10, 27780, Note_on_c, 10, 83, 108
10, 27790, Control_c, 10, 11, 87
10, 27806, Control_c, 10, 11, 88
10, 27810, Note_on_c, 10, 83, 0
10, 27821, Control_c, 10, 11, 89
10, 27836, Control_c, 10, 11, 90
10, 27840, Note_on_c, 10, 84, 108
10, 27852, Control_c, 10, 11, 91
10, 27867, Control_c, 10, 11, 92
10, 27870, Note_on_c, 10, 84, 0
10, 27882, Control_c, 10, 11, 93
10, 27897, Control_c, 10, 11, 94
10, 27900, Note_on_c, 10, 86, 108
10, 27913, Control_c, 10, 11, 95
10, 27928, Control_c, 10, 11, 96
10, 27930, Note_on_c, 10, 86, 0
10, 27943, Control_c, 10, 11, 97
10, 27958, Control_c, 10, 11, 98
10, 27960, Note_on_c, 10, 88, 108
10, 27974, Control_c, 10, 11, 99
10, 27989, Control_c, 10, 11, 100
10, 27990, Note_on_c, 10, 88, 0
10, 28004, Control_c, 10, 11, 101
10, 28020, Note_on_c, 10, 76, 108
10, 28020, Control_c, 10, 11, 102
10, 28048, Note_on_c, 10, 76, 0
10, 28080, Note_on_c, 10, 76, 108
10, 28108, Note_on_c, 10, 76, 0
10, 28140, Note_on_c, 10, 76, 108
10, 28168, Note_on_c, 10, 76, 0
10, 28200, Note_on_c, 10, 76, 108
10, 28228, Note_on_c, 10, 76, 0
10, 28260, Note_on_c, 10, 76, 108
10, 28288, Note_on_c, 10, 76, 0
10, 28320, Note_on_c, 10, 74, 108
10, 28380, Note_on_c, 10, 74, 0
10, 28440, Note_on_c, 10, 81, 108
10, 28500, Note_on_c, 10, 81, 0
10, 28560, Note_on_c, 10, 79, 108
10, 28620, Note_on_c, 10, 79, 0
10, 28680, Note_on_c, 10, 71, 108
10, 28740, Note_on_c, 10, 71, 0
10, 28800, Note_on_c, 10, 72, 108
10, 28920, Note_on_c, 10, 72, 0
10, 29340, Note_on_c, 10, 84, 108
10, 29340, Control_c, 10, 11, 87
10, 29385, Note_on_c, 10, 84, 0
10, 29400, Note_on_c, 10, 84, 108
10, 29445, Note_on_c, 10, 84, 0
10, 29460, Note_on_c, 10, 84, 108
10, 29505, Note_on_c, 10, 84, 0
10, 29520, Note_on_c, 10, 84, 108
10, 29550, Note_on_c, 10, 84, 0
10, 29550, Note_on_c, 10, 83, 108
10, 29570, Note_on_c, 10, 83, 0
10, 29580, Note_on_c, 10, 81, 108
10, 29595, Note_on_c, 10, 81, 0
10, 29610, Note_on_c, 10, 79, 108
10, 29625, Note_on_c, 10, 79, 0
10, 29640, Note_on_c, 10, 79, 108
10, 29670, Note_on_c, 10, 79, 0
10, 29670, Note_on_c, 10, 77, 108
10, 29690, Note_on_c, 10, 77, 0
10, 29700, Note_on_c, 10, 76, 108
10, 29715, Note_on_c, 10, 76, 0
10, 29730, Note_on_c, 10, 74, 108
10, 29745, Note_on_c, 10, 74, 0
10, 29760, Note_on_c, 10, 72, 108
10, 29880, Note_on_c, 10, 72, 0
10, 30300, Note_on_c, 10, 84, 108
10, 30345, Note_on_c, 10, 84, 0
10, 30360, Note_on_c, 10, 84, 108
10, 30405, Note_on_c, 10, 84, 0
10, 30420, Note_on_c, 10, 84, 108
10, 30465, Note_on_c, 10, 84, 0
10, 30480, Note_on_c, 10, 84, 108
10, 30510, Note_on_c, 10, 84, 0
10, 30510, Note_on_c, 10, 83, 108
10, 30530, Note_on_c, 10, 83, 0
10, 30540, Note_on_c, 10, 81, 108
10, 30555, Note_on_c, 10, 81, 0
10, 30570, Note_on_c, 10, 79, 108
10, 30585, Note_on_c, 10, 79, 0
10, 30600, Note_on_c, 10, 79, 108
10, 30630, Note_on_c, 10, 79, 0
10, 30630, Note_on_c, 10, 77, 108
10, 30650, Note_on_c, 10, 77, 0
10, 30660, Note_on_c, 10, 76, 108
10, 30675, Note_on_c, 10, 76, 0
10, 30690, Note_on_c, 10, 74, 108
10, 30705, Note_on_c, 10, 74, 0
10, 30720, Note_on_c, 10, 76, 108
10, 30780, Note_on_c, 10, 76, 0
10, 30840, Note_on_c, 10, 84, 108
10, 30841, Control_c, 10, 11, 107
10, 30858, Control_c, 10, 11, 104
10, 30876, Control_c, 10, 11, 101
10, 30894, Control_c, 10, 11, 98
10, 30911, Control_c, 10, 11, 95
10, 30929, Control_c, 10, 11, 92
10, 30947, Control_c, 10, 11, 89
10, 31010, Note_on_c, 10, 84, 0
10, 31020, Note_on_c, 10, 84, 108
10, 31050, Note_on_c, 10, 84, 0
10, 31050, Note_on_c, 10, 83, 108
10, 31080, Note_on_c, 10, 83, 0
10, 31080, Note_on_c, 10, 81, 108
10, 31110, Note_on_c, 10, 81, 0
10, 31110, Note_on_c, 10, 79, 108
10, 31140, Note_on_c, 10, 79, 0
10, 31140, Note_on_c, 10, 78, 108
10, 31170, Note_on_c, 10, 78, 0
10, 31170, Note_on_c, 10, 76, 108
10, 31190, Note_on_c, 10, 76, 0
10, 31200, Note_on_c, 10, 74, 108
10, 31260, Note_on_c, 10, 74, 0
10, 31320, Note_on_c, 10, 83, 108
10, 31320, Control_c, 10, 11, 107
10, 31337, Control_c, 10, 11, 104
10, 31355, Control_c, 10, 11, 101
10, 31373, Control_c, 10, 11, 98
10, 31391, Control_c, 10, 11, 95
10, 31409, Control_c, 10, 11, 92
10, 31427, Control_c, 10, 11, 89
10, 31490, Note_on_c, 10, 83, 0
10, 31500, Note_on_c, 10, 83, 108
10, 31530, Note_on_c, 10, 83, 0
10, 31530, Note_on_c, 10, 81, 108
10, 31560, Note_on_c, 10, 81, 0
10, 31560, Note_on_c, 10, 80, 108
10, 31590, Note_on_c, 10, 80, 0
10, 31590, Note_on_c, 10, 77, 108
10, 31620, Note_on_c, 10, 77, 0
10, 31620, Note_on_c, 10, 76, 108
10, 31650, Note_on_c, 10, 76, 0
10, 31650, Note_on_c, 10, 74, 108
10, 31670, Note_on_c, 10, 74, 0
10, 31680, Note_on_c, 10, 72, 108
10, 31710, Note_on_c, 10, 72, 0
10, 31740, Note_on_c, 10, 81, 108
10, 31770, Note_on_c, 10, 81, 0
10, 31770, Note_on_c, 10, 79, 108
10, 31800, Note_on_c, 10, 79, 0
10, 31800, Note_on_c, 10, 78, 108
10, 31830, Note_on_c, 10, 78, 0
10, 31830, Note_on_c, 10, 76, 108
10, 31860, Note_on_c, 10, 76, 0
10, 31860, Note_on_c, 10, 74, 108
10, 31890, Note_on_c, 10, 74, 0
10, 31890, Note_on_c, 10, 72, 108
10, 31910, Note_on_c, 10, 72, 0
10, 31920, Note_on_c, 10, 71, 108
10, 31950, Note_on_c, 10, 71, 0
10, 31980, Note_on_c, 10, 79, 108
10, 32010, Note_on_c, 10, 79, 0
10, 32010, Note_on_c, 10, 78, 108
10, 32040, Note_on_c, 10, 78, 0
10, 32040, Note_on_c, 10, 76, 108
10, 32070, Note_on_c, 10, 76, 0
10, 32070, Note_on_c, 10, 74, 108
10, 32100, Note_on_c, 10, 74, 0
10, 32100, Note_on_c, 10, 72, 108
10, 32130, Note_on_c, 10, 72, 0
10, 32130, Note_on_c, 10, 71, 108
10, 32150, Note_on_c, 10, 71, 0
10, 32160, Note_on_c, 10, 69, 108
10, 32190, Note_on_c, 10, 69, 0
10, 32220, Note_on_c, 10, 76, 108
10, 32250, Note_on_c, 10, 76, 0
10, 32250, Note_on_c, 10, 74, 108
10, 32280, Note_on_c, 10, 74, 0
10, 32280, Note_on_c, 10, 72, 108
10, 32310, Note_on_c, 10, 72, 0
10, 32310, Note_on_c, 10, 71, 108
10, 32340, Note_on_c, 10, 71, 0
10, 32340, Note_on_c, 10, 69, 108
10, 32370, Note_on_c, 10, 69, 0
10, 32370, Note_on_c, 10, 68, 108
10, 32390, Note_on_c, 10, 68, 0
10, 32400, Note_on_c, 10, 69, 108
10, 32430, Note_on_c, 10, 69, 0
10, 32460, Note_on_c, 10, 76, 108
10, 32490, Note_on_c, 10, 76, 0
10, 32490, Note_on_c, 10, 74, 108
10, 32520, Note_on_c, 10, 74, 0
10, 32520, Note_on_c, 10, 73, 108
10, 32550, Note_on_c, 10, 73, 0
10, 32550, Note_on_c, 10, 71, 108
10, 32580, Note_on_c, 10, 71, 0
10, 32580, Note_on_c, 10, 69, 108
10, 32610, Note_on_c, 10, 69, 0
10, 32610, Note_on_c, 10, 67, 108
10, 32630, Note_on_c, 10, 67, 0
10, 32640, Note_on_c, 10, 66, 108
10, 32660, Note_on_c, 10, 66, 0
10, 32670, Note_on_c, 10, 74, 108
10, 32690, Note_on_c, 10, 74, 0
10, 32700, Note_on_c, 10, 74, 108
10, 32720, Note_on_c, 10, 74, 0
10, 32730, Note_on_c, 10, 74, 108
10, 32750, Note_on_c, 10, 74, 0
10, 32760, Note_on_c, 10, 74, 108
10, 32780, Note_on_c, 10, 74, 0
10, 32790, Note_on_c, 10, 74, 108
10, 32810, Note_on_c, 10, 74, 0
10, 32820, Note_on_c, 10, 74, 108
10, 32840, Note_on_c, 10, 74, 0
10, 32850, Note_on_c, 10, 74, 108
10, 32870, Note_on_c, 10, 74, 0
10, 32880, Note_on_c, 10, 74, 108
10, 32900, Note_on_c, 10, 74, 0
10, 32910, Note_on_c, 10, 74, 108
10, 32930, Note_on_c, 10, 74, 0
10, 32940, Note_on_c, 10, 74, 108
10, 32960, Note_on_c, 10, 74, 0
10, 32970, Note_on_c, 10, 74, 108
10, 32990, Note_on_c, 10, 74, 0
10, 33000, Note_on_c, 10, 74, 108
10, 33020, Note_on_c, 10, 74, 0
10, 33030, Note_on_c, 10, 74, 108
10, 33050, Note_on_c, 10, 74, 0
10, 33060, Note_on_c, 10, 74, 108
10, 33080, Note_on_c, 10, 74, 0
10, 33090, Note_on_c, 10, 74, 108
10, 33110, Note_on_c, 10, 74, 0
10, 33120, Note_on_c, 10, 74, 108
10, 33140, Note_on_c, 10, 74, 0
10, 33150, Note_on_c, 10, 74, 108
10, 33170, Note_on_c, 10, 74, 0
10, 33180, Note_on_c, 10, 74, 108
10, 33200, Note_on_c, 10, 74, 0
10, 33210, Note_on_c, 10, 74, 108
10, 33230, Note_on_c, 10, 74, 0
10, 33240, Note_on_c, 10, 74, 108
10, 33260, Note_on_c, 10, 74, 0
10, 33270, Note_on_c, 10, 74, 108
10, 33290, Note_on_c, 10, 74, 0
10, 33300, Note_on_c, 10, 74, 108
10, 33320, Note_on_c, 10, 74, 0
10, 33330, Note_on_c, 10, 74, 108
10, 33350, Note_on_c, 10, 74, 0
10, 33360, Note_on_c, 10, 74, 108
10, 33380, Note_on_c, 10, 74, 0
10, 33390, Note_on_c, 10, 74, 108
10, 33410, Note_on_c, 10, 74, 0
10, 33420, Note_on_c, 10, 74, 108
10, 33440, Note_on_c, 10, 74, 0
10, 33450, Note_on_c, 10, 74, 108
10, 33470, Note_on_c, 10, 74, 0
10, 33480, Note_on_c, 10, 74, 108
10, 33500, Note_on_c, 10, 74, 0
10, 33510, Note_on_c, 10, 74, 108
10, 33530, Note_on_c, 10, 74, 0
10, 33540, Note_on_c, 10, 74, 108
10, 33560, Note_on_c, 10, 74, 0
10, 33570, Note_on_c, 10, 74, 108
10, 33590, Note_on_c, 10, 74, 0
10, 33600, Note_on_c, 10, 74, 108
10, 33620, Note_on_c, 10, 74, 0
10, 33630, Note_on_c, 10, 74, 108
10, 33630, Note_on_c, 10, 86, 108
10, 33650, Note_on_c, 10, 86, 0
10, 33650, Note_on_c, 10, 74, 0
10, 33660, Note_on_c, 10, 86, 108
10, 33660, Note_on_c, 10, 74, 108
10, 33680, Note_on_c, 10, 74, 0
10, 33680, Note_on_c, 10, 86, 0
10, 33690, Note_on_c, 10, 74, 108
10, 33690, Note_on_c, 10, 86, 108
10, 33710, Note_on_c, 10, 86, 0
10, 33710, Note_on_c, 10, 74, 0
10, 33720, Note_on_c, 10, 86, 108
10, 33720, Note_on_c, 10, 74, 108
10, 33740, Note_on_c, 10, 74, 0
10, 33740, Note_on_c, 10, 86, 0
10, 33750, Note_on_c, 10, 74, 108
10, 33750, Note_on_c, 10, 86, 108
10, 33770, Note_on_c, 10, 86, 0
10, 33770, Note_on_c, 10, 74, 0
10, 33780, Note_on_c, 10, 74, 108
10, 33780, Note_on_c, 10, 86, 108
10, 33800, Note_on_c, 10, 86, 0
10, 33800, Note_on_c, 10, 74, 0
10, 33810, Note_on_c, 10, 74, 108
10, 33810, Note_on_c, 10, 86, 108
10, 33830, Note_on_c, 10, 86, 0
10, 33830, Note_on_c, 10, 74, 0
10, 33840, Note_on_c, 10, 74, 108
10, 33840, Note_on_c, 10, 86, 108
10, 33860, Note_on_c, 10, 86, 0
10, 33860, Note_on_c, 10, 74, 0
10, 33870, Note_on_c, 10, 86, 108
10, 33870, Note_on_c, 10, 74, 108
10, 33890, Note_on_c, 10, 74, 0
10, 33890, Note_on_c, 10, 86, 0
10, 33900, Note_on_c, 10, 86, 108
10, 33900, Note_on_c, 10, 74, 108
10, 33920, Note_on_c, 10, 74, 0
10, 33920, Note_on_c, 10, 86, 0
10, 33930, Note_on_c, 10, 86, 108
10, 33930, Note_on_c, 10, 74, 108
10, 33950, Note_on_c, 10, 74, 0
10, 33950, Note_on_c, 10, 86, 0
10, 33960, Note_on_c, 10, 74, 108
10, 33960, Note_on_c, 10, 86, 108
10, 33980, Note_on_c, 10, 86, 0
10, 33980, Note_on_c, 10, 74, 0
10, 33990, Note_on_c, 10, 74, 108
10, 33990, Note_on_c, 10, 86, 108
10, 34010, Note_on_c, 10, 86, 0
10, 34010, Note_on_c, 10, 74, 0
10, 34020, Note_on_c, 10, 74, 108
10, 34020, Note_on_c, 10, 86, 108
10, 34040, Note_on_c, 10, 86, 0
10, 34040, Note_on_c, 10, 74, 0
10, 34050, Note_on_c, 10, 74, 108
10, 34050, Note_on_c, 10, 86, 108
10, 34070, Note_on_c, 10, 86, 0
10, 34070, Note_on_c, 10, 74, 0
10, 34080, Note_on_c, 10, 74, 108
10, 34080, Note_on_c, 10, 86, 108
10, 34100, Note_on_c, 10, 86, 0
10, 34100, Note_on_c, 10, 74, 0
10, 34110, Note_on_c, 10, 74, 108
10, 34110, Note_on_c, 10, 86, 108
10, 34130, Note_on_c, 10, 86, 0
10, 34130, Note_on_c, 10, 74, 0
10, 34140, Note_on_c, 10, 74, 108
10, 34140, Note_on_c, 10, 86, 108
10, 34160, Note_on_c, 10, 86, 0
10, 34160, Note_on_c, 10, 74, 0
10, 34170, Note_on_c, 10, 74, 108
10, 34170, Note_on_c, 10, 86, 108
10, 34190, Note_on_c, 10, 86, 0
10, 34190, Note_on_c, 10, 74, 0
10, 34200, Note_on_c, 10, 74, 108
10, 34200, Note_on_c, 10, 86, 108
10, 34220, Note_on_c, 10, 86, 0
10, 34220, Note_on_c, 10, 74, 0
10, 34230, Note_on_c, 10, 86, 108
10, 34230, Note_on_c, 10, 74, 108
10, 34250, Note_on_c, 10, 74, 0
10, 34250, Note_on_c, 10, 86, 0
10, 34260, Note_on_c, 10, 86, 108
10, 34260, Note_on_c, 10, 74, 108
10, 34280, Note_on_c, 10, 74, 0
10, 34280, Note_on_c, 10, 86, 0
10, 34290, Note_on_c, 10, 86, 108
10, 34290, Note_on_c, 10, 74, 108
10, 34310, Note_on_c, 10, 74, 0
10, 34310, Note_on_c, 10, 86, 0
10, 34320, Note_on_c, 10, 74, 108
10, 34320, Note_on_c, 10, 86, 108
10, 34340, Note_on_c, 10, 86, 0
10, 34340, Note_on_c, 10, 74, 0
10, 34350, Note_on_c, 10, 74, 108
10, 34350, Note_on_c, 10, 86, 108
10, 34370, Note_on_c, 10, 86, 0
10, 34370, Note_on_c, 10, 74, 0
10, 34380, Note_on_c, 10, 74, 108
10, 34380, Note_on_c, 10, 86, 108
10, 34400, Note_on_c, 10, 86, 0
10, 34400, Note_on_c, 10, 74, 0
10, 34410, Note_on_c, 10, 74, 108
10, 34410, Note_on_c, 10, 86, 108
10, 34430, Note_on_c, 10, 86, 0
10, 34430, Note_on_c, 10, 74, 0
10, 34440, Note_on_c, 10, 74, 108
10, 34440, Note_on_c, 10, 86, 108
10, 34460, Note_on_c, 10, 86, 0
10, 34460, Note_on_c, 10, 74, 0
10, 34470, Note_on_c, 10, 86, 108
10, 34470, Note_on_c, 10, 74, 108
10, 34490, Note_on_c, 10, 74, 0
10, 34490, Note_on_c, 10, 86, 0
10, 34500, Note_on_c, 10, 74, 108
10, 34500, Note_on_c, 10, 86, 108
10, 34520, Note_on_c, 10, 86, 0
10, 34520, Note_on_c, 10, 74, 0
10, 34530, Note_on_c, 10, 86, 108
10, 34530, Note_on_c, 10, 74, 108
10, 34550, Note_on_c, 10, 74, 0
10, 34550, Note_on_c, 10, 86, 0
10, 34560, Note_on_c, 10, 86, 93
10, 34560, Control_c, 10, 11, 87
10, 34560, Note_on_c, 10, 74, 108
10, 34580, Note_on_c, 10, 74, 0
10, 34580, Note_on_c, 10, 86, 0
10, 34584, Control_c, 10, 11, 85
10, 34590, Note_on_c, 10, 74, 108
10, 34608, Control_c, 10, 11, 83
10, 34610, Note_on_c, 10, 74, 0
10, 34620, Note_on_c, 10, 73, 108
10, 34632, Control_c, 10, 11, 81
10, 34640, Note_on_c, 10, 73, 0
10, 34650, Note_on_c, 10, 73, 108
10, 34656, Control_c, 10, 11, 79
10, 34670, Note_on_c, 10, 73, 0
10, 34680, Note_on_c, 10, 74, 108
10, 34680, Control_c, 10, 11, 77
10, 34700, Note_on_c, 10, 74, 0
10, 34704, Control_c, 10, 11, 75
10, 34710, Note_on_c, 10, 74, 108
10, 34728, Control_c, 10, 11, 73
10, 34730, Note_on_c, 10, 74, 0
10, 34740, Note_on_c, 10, 73, 108
10, 34752, Control_c, 10, 11, 71
10, 34760, Note_on_c, 10, 73, 0
10, 34770, Note_on_c, 10, 73, 108
10, 34776, Control_c, 10, 11, 69
10, 34790, Note_on_c, 10, 73, 0
10, 34800, Note_on_c, 10, 74, 108
10, 34800, Control_c, 10, 11, 67
10, 34820, Note_on_c, 10, 74, 0
10, 34824, Control_c, 10, 11, 65
10, 34830, Note_on_c, 10, 74, 108
10, 34848, Control_c, 10, 11, 63
10, 34850, Note_on_c, 10, 74, 0
10, 34860, Note_on_c, 10, 73, 108
10, 34872, Control_c, 10, 11, 61
10, 34880, Note_on_c, 10, 73, 0
10, 34890, Note_on_c, 10, 73, 108
10, 34896, Control_c, 10, 11, 59
10, 34910, Note_on_c, 10, 73, 0
10, 34920, Control_c, 10, 11, 57
10, 34920, Note_on_c, 10, 74, 108
10, 34940, Note_on_c, 10, 74, 0
10, 34944, Control_c, 10, 11, 55
10, 34950, Note_on_c, 10, 74, 108
10, 34968, Control_c, 10, 11, 53
10, 34970, Note_on_c, 10, 74, 0
10, 34980, Note_on_c, 10, 73, 108
10, 34992, Control_c, 10, 11, 51
10, 35000, Note_on_c, 10, 73, 0
10, 35010, Note_on_c, 10, 73, 108
10, 35016, Control_c, 10, 11, 49
10, 35030, Note_on_c, 10, 73, 0
10, 35040, Control_c, 10, 11, 37
10, 35040, Note_on_c, 10, 74, 108
10, 35058, Control_c, 10, 11, 39
10, 35076, Control_c, 10, 11, 41
10, 35094, Control_c, 10, 11, 43
10, 35112, Control_c, 10, 11, 45
10, 35130, Control_c, 10, 11, 47
10, 35210, Note_on_c, 10, 74, 0
10, 35220, Note_on_c, 10, 79, 108
10, 35280, Note_on_c, 10, 79, 0
10, 35280, Note_on_c, 10, 78, 118
10, 35310, Note_on_c, 10, 78, 0
10, 35340, Note_on_c, 10, 78, 108
10, 35370, Note_on_c, 10, 78, 0
10, 35460, Note_on_c, 10, 81, 108
10, 35520, Note_on_c, 10, 81, 0
10, 35520, Note_on_c, 10, 79, 118
10, 35550, Note_on_c, 10, 79, 0
10, 35580, Note_on_c, 10, 79, 108
10, 35610, Note_on_c, 10, 79, 0
10, 35700, Note_on_c, 10, 83, 108
10, 35760, Note_on_c, 10, 83, 0
10, 35760, Note_on_c, 10, 81, 118
10, 35790, Note_on_c, 10, 81, 0
10, 35820, Note_on_c, 10, 78, 108
10, 35850, Note_on_c, 10, 78, 0
10, 35880, Note_on_c, 10, 74, 108
10, 35910, Note_on_c, 10, 74, 0
10, 35940, Note_on_c, 10, 72, 108
10, 35970, Note_on_c, 10, 72, 0
10, 36000, Note_on_c, 10, 71, 108
10, 36060, Note_on_c, 10, 71, 0
10, 36060, Note_on_c, 10, 74, 108
10, 36120, Note_on_c, 10, 74, 0
10, 36180, Note_on_c, 10, 79, 108
10, 36210, Note_on_c, 10, 79, 0
10, 36240, Note_on_c, 10, 79, 118
10, 36300, Note_on_c, 10, 79, 0
10, 36300, Note_on_c, 10, 78, 108
10, 36360, Note_on_c, 10, 78, 0
10, 36420, Note_on_c, 10, 81, 108
10, 36450, Note_on_c, 10, 81, 0
10, 36480, Note_on_c, 10, 81, 118
10, 36540, Note_on_c, 10, 81, 0
10, 36540, Note_on_c, 10, 79, 108
10, 36600, Note_on_c, 10, 79, 0
10, 36660, Note_on_c, 10, 83, 108
10, 36720, Note_on_c, 10, 83, 0
10, 36720, Note_on_c, 10, 81, 118
10, 36750, Note_on_c, 10, 81, 0
10, 36780, Note_on_c, 10, 78, 108
10, 36810, Note_on_c, 10, 78, 0
10, 36840, Note_on_c, 10, 74, 108
10, 36870, Note_on_c, 10, 74, 0
10, 36900, Note_on_c, 10, 72, 108
10, 36930, Note_on_c, 10, 72, 0
10, 36960, Note_on_c, 10, 71, 108
10, 37020, Note_on_c, 10, 71, 0
10, 37020, Note_on_c, 10, 74, 108
10, 37070, Note_on_c, 10, 74, 0
10, 37080, Note_on_c, 10, 74, 108
10, 37110, Note_on_c, 10, 74, 0
10, 37140, Note_on_c, 10, 79, 108
10, 37170, Note_on_c, 10, 79, 0
10, 37200, Control_c, 10, 11, 47
10, 37200, Note_on_c, 10, 79, 118
10, 37230, Control_c, 10, 11, 48
10, 37260, Note_on_c, 10, 79, 0
10, 37260, Note_on_c, 10, 78, 108
10, 37260, Control_c, 10, 11, 49
10, 37290, Control_c, 10, 11, 50
10, 37310, Note_on_c, 10, 78, 0
10, 37320, Note_on_c, 10, 78, 108
10, 37320, Control_c, 10, 11, 51
10, 37350, Note_on_c, 10, 78, 0
10, 37350, Control_c, 10, 11, 52
10, 37380, Note_on_c, 10, 81, 108
10, 37380, Control_c, 10, 11, 53
10, 37410, Note_on_c, 10, 81, 0
10, 37410, Control_c, 10, 11, 54
10, 37440, Note_on_c, 10, 81, 118
10, 37440, Control_c, 10, 11, 55
10, 37470, Control_c, 10, 11, 56
10, 37500, Note_on_c, 10, 81, 0
10, 37500, Control_c, 10, 11, 57
10, 37500, Note_on_c, 10, 79, 108
10, 37530, Control_c, 10, 11, 58
10, 37550, Note_on_c, 10, 79, 0
10, 37560, Note_on_c, 10, 79, 108
10, 37560, Control_c, 10, 11, 59
10, 37590, Note_on_c, 10, 79, 0
10, 37590, Control_c, 10, 11, 60
10, 37620, Control_c, 10, 11, 61
10, 37620, Note_on_c, 10, 83, 108
10, 37650, Note_on_c, 10, 83, 0
10, 37650, Control_c, 10, 11, 62
10, 37680, Note_on_c, 10, 83, 118
10, 37680, Control_c, 10, 11, 63
10, 37710, Control_c, 10, 11, 64
10, 37740, Note_on_c, 10, 83, 0
10, 37740, Note_on_c, 10, 81, 108
10, 37740, Control_c, 10, 11, 65
10, 37770, Control_c, 10, 11, 66
10, 37790, Note_on_c, 10, 81, 0
10, 37800, Note_on_c, 10, 81, 108
10, 37800, Control_c, 10, 11, 67
10, 37830, Note_on_c, 10, 81, 0
10, 37830, Control_c, 10, 11, 68
10, 37860, Control_c, 10, 11, 69
10, 37860, Note_on_c, 10, 84, 108
10, 37890, Note_on_c, 10, 84, 0
10, 37890, Control_c, 10, 11, 70
10, 37920, Control_c, 10, 11, 71
10, 37920, Note_on_c, 10, 84, 118
10, 37950, Control_c, 10, 11, 72
10, 37980, Note_on_c, 10, 84, 0
10, 37980, Control_c, 10, 11, 73
10, 37980, Note_on_c, 10, 83, 108
10, 38010, Control_c, 10, 11, 74
10, 38030, Note_on_c, 10, 83, 0
10, 38040, Control_c, 10, 11, 75
10, 38040, Note_on_c, 10, 83, 108
10, 38070, Note_on_c, 10, 83, 0
10, 38070, Control_c, 10, 11, 76
10, 38100, Note_on_c, 10, 86, 108
10, 38100, Control_c, 10, 11, 77
10, 38130, Note_on_c, 10, 86, 0
10, 38130, Control_c, 10, 11, 78
10, 38160, Control_c, 10, 11, 79
10, 38160, Note_on_c, 10, 86, 118
10, 38190, Control_c, 10, 11, 80
10, 38220, Note_on_c, 10, 86, 0
10, 38220, Note_on_c, 10, 84, 108
10, 38220, Control_c, 10, 11, 81
10, 38250, Control_c, 10, 11, 82
10, 38270, Note_on_c, 10, 84, 0
10, 38280, Control_c, 10, 11, 83
10, 38280, Note_on_c, 10, 84, 108
10, 38310, Note_on_c, 10, 84, 0
10, 38310, Control_c, 10, 11, 84
10, 38340, Control_c, 10, 11, 85
10, 38340, Note_on_c, 10, 88, 108
10, 38370, Note_on_c, 10, 88, 0
10, 38370, Control_c, 10, 11, 86
10, 38400, Note_on_c, 10, 89, 108
10, 38400, Control_c, 10, 11, 92
10, 38404, Control_c, 10, 11, 95
10, 38408, Control_c, 10, 11, 98
10, 38412, Control_c, 10, 11, 101
10, 38426, Control_c, 10, 11, 98
10, 38435, Control_c, 10, 11, 95
10, 38444, Control_c, 10, 11, 92
10, 38453, Control_c, 10, 11, 89
10, 38620, Note_on_c, 10, 89, 0
10, 38640, Control_c, 10, 11, 92
10, 38640, Note_on_c, 10, 80, 108
10, 38648, Control_c, 10, 11, 95
10, 38657, Control_c, 10, 11, 98
10, 38666, Control_c, 10, 11, 101
10, 38681, Control_c, 10, 11, 100
10, 38699, Control_c, 10, 11, 97
10, 38717, Control_c, 10, 11, 94
10, 38735, Control_c, 10, 11, 91
10, 38753, Control_c, 10, 11, 88
10, 38860, Note_on_c, 10, 80, 0
10, 38880, Control_c, 10, 11, 92
10, 38880, Note_on_c, 10, 81, 108
10, 38888, Control_c, 10, 11, 95
10, 38897, Control_c, 10, 11, 98
10, 38906, Control_c, 10, 11, 101
10, 38921, Control_c, 10, 11, 100
10, 38939, Control_c, 10, 11, 97
10, 38957, Control_c, 10, 11, 94
10, 38975, Control_c, 10, 11, 91
10, 38993, Control_c, 10, 11, 88
10, 39100, Note_on_c, 10, 81, 0
10, 39120, Note_on_c, 10, 82, 108
10, 39120, Control_c, 10, 11, 92
10, 39128, Control_c, 10, 11, 95
10, 39137, Control_c, 10, 11, 98
10, 39146, Control_c, 10, 11, 101
10, 39161, Control_c, 10, 11, 100
10, 39179, Control_c, 10, 11, 97
10, 39197, Control_c, 10, 11, 94
10, 39215, Control_c, 10, 11, 91
10, 39233, Control_c, 10, 11, 88
10, 39340, Note_on_c, 10, 82, 0
10, 39360, Note_on_c, 10, 83, 108
10, 39380, Note_on_c, 10, 83, 0
10, 39390, Note_on_c, 10, 83, 108
10, 39410, Note_on_c, 10, 83, 0
10, 39420, Note_on_c, 10, 83, 108
10, 39440, Note_on_c, 10, 83, 0
10, 39450, Note_on_c, 10, 83, 108
10, 39470, Note_on_c, 10, 83, 0
10, 39480, Note_on_c, 10, 84, 108
10, 39480, Control_c, 10, 11, 102
10, 39500, Note_on_c, 10, 84, 0
10, 39510, Note_on_c, 10, 84, 108
10, 39530, Note_on_c, 10, 84, 0
10, 39540, Note_on_c, 10, 84, 108
10, 39560, Note_on_c, 10, 84, 0
10, 39570, Note_on_c, 10, 84, 108
10, 39590, Note_on_c, 10, 84, 0
10, 39600, Note_on_c, 10, 84, 108
10, 39620, Note_on_c, 10, 84, 0
10, 39630, Note_on_c, 10, 84, 108
10, 39650, Note_on_c, 10, 84, 0
10, 39660, Note_on_c, 10, 84, 108
10, 39680, Note_on_c, 10, 84, 0
10, 39690, Note_on_c, 10, 84, 108
10, 39710, Note_on_c, 10, 84, 0
10, 39720, Note_on_c, 10, 84, 108
10, 39740, Note_on_c, 10, 84, 0
10, 39750, Note_on_c, 10, 84, 108
10, 39770, Note_on_c, 10, 84, 0
10, 39780, Note_on_c, 10, 84, 108
10, 39800, Note_on_c, 10, 84, 0
10, 39810, Note_on_c, 10, 84, 108
10, 39830, Note_on_c, 10, 84, 0
10, 39840, Note_on_c, 10, 83, 108
10, 39860, Note_on_c, 10, 83, 0
10, 39870, Note_on_c, 10, 83, 108
10, 39890, Note_on_c, 10, 83, 0
10, 39900, Note_on_c, 10, 83, 108
10, 39920, Note_on_c, 10, 83, 0
10, 39930, Note_on_c, 10, 83, 108
10, 39950, Note_on_c, 10, 83, 0
10, 39960, Note_on_c, 10, 81, 108
10, 39980, Note_on_c, 10, 81, 0
10, 39990, Note_on_c, 10, 81, 108
10, 40010, Note_on_c, 10, 81, 0
10, 40020, Note_on_c, 10, 81, 108
10, 40040, Note_on_c, 10, 81, 0
10, 40050, Note_on_c, 10, 81, 108
10, 40070, Note_on_c, 10, 81, 0
10, 40080, Note_on_c, 10, 79, 108
10, 40100, Note_on_c, 10, 79, 0
10, 40110, Note_on_c, 10, 79, 108
10, 40130, Note_on_c, 10, 79, 0
10, 40140, Note_on_c, 10, 79, 108
10, 40160, Note_on_c, 10, 79, 0
10, 40170, Note_on_c, 10, 79, 108
10, 40190, Note_on_c, 10, 79, 0
10, 40200, Note_on_c, 10, 78, 108
10, 40220, Note_on_c, 10, 78, 0
10, 40230, Note_on_c, 10, 78, 108
10, 40250, Note_on_c, 10, 78, 0
10, 40260, Note_on_c, 10, 78, 108
10, 40280, Note_on_c, 10, 78, 0
10, 40290, Note_on_c, 10, 78, 108
10, 40310, Note_on_c, 10, 78, 0
10, 40320, Note_on_c, 10, 79, 108
10, 40440, Note_on_c, 10, 79, 0
10, 40620, Control_c, 10, 11, 122
10, 40620, Note_on_c, 10, 88, 108
10, 40628, Control_c, 10, 11, 119
10, 40637, Control_c, 10, 11, 116
10, 40646, Control_c, 10, 11, 113
10, 40655, Control_c, 10, 11, 110
10, 40664, Control_c, 10, 11, 107
10, 40673, Control_c, 10, 11, 104
10, 40720, Note_on_c, 10, 88, 0
10, 40740, Note_on_c, 10, 88, 108
10, 40785, Note_on_c, 10, 88, 0
10, 40800, Note_on_c, 10, 86, 108
10, 40860, Note_on_c, 10, 86, 0
10, 41100, Note_on_c, 10, 78, 108
10, 41100, Control_c, 10, 11, 122
10, 41100, Note_on_c, 10, 69, 108
10, 41108, Control_c, 10, 11, 119
10, 41117, Control_c, 10, 11, 116
10, 41126, Control_c, 10, 11, 113
10, 41135, Control_c, 10, 11, 110
10, 41144, Control_c, 10, 11, 107
10, 41153, Control_c, 10, 11, 104
10, 41200, Note_on_c, 10, 69, 0
10, 41200, Note_on_c, 10, 78, 0
10, 41220, Note_on_c, 10, 78, 108
10, 41220, Note_on_c, 10, 69, 108
10, 41265, Note_on_c, 10, 69, 0
10, 41265, Note_on_c, 10, 78, 0
10, 41280, Note_on_c, 10, 71, 108
10, 41280, Note_on_c, 10, 79, 108
10, 41340, Note_on_c, 10, 79, 0
10, 41340, Note_on_c, 10, 71, 0
10, 41580, Control_c, 10, 11, 122
10, 41580, Note_on_c, 10, 88, 108
10, 41588, Control_c, 10, 11, 119
10, 41597, Control_c, 10, 11, 116
10, 41606, Control_c, 10, 11, 113
10, 41615, Control_c, 10, 11, 110
10, 41624, Control_c, 10, 11, 107
10, 41633, Control_c, 10, 11, 104
10, 41680, Note_on_c, 10, 88, 0
10, 41700, Note_on_c, 10, 88, 108
10, 41745, Note_on_c, 10, 88, 0
10, 41760, Note_on_c, 10, 86, 108
10, 41820, Note_on_c, 10, 86, 0
10, 42060, Control_c, 10, 11, 122
10, 42060, Note_on_c, 10, 69, 108
10, 42060, Note_on_c, 10, 78, 108
10, 42068, Control_c, 10, 11, 119
10, 42077, Control_c, 10, 11, 116
10, 42086, Control_c, 10, 11, 113
10, 42095, Control_c, 10, 11, 110
10, 42104, Control_c, 10, 11, 107
10, 42113, Control_c, 10, 11, 104
10, 42160, Note_on_c, 10, 78, 0
10, 42160, Note_on_c, 10, 69, 0
10, 42180, Note_on_c, 10, 78, 108
10, 42180, Note_on_c, 10, 69, 108
10, 42225, Note_on_c, 10, 69, 0
10, 42225, Note_on_c, 10, 78, 0
10, 42240, Note_on_c, 10, 79, 108
10, 42240, Note_on_c, 10, 71, 108
10, 42260, Note_on_c, 10, 71, 0
10, 42260, Note_on_c, 10, 79, 0
10, 42270, Note_on_c, 10, 67, 108
10, 42290, Note_on_c, 10, 67, 0
10, 42300, Note_on_c, 10, 67, 108
10, 42320, Note_on_c, 10, 67, 0
10, 42330, Note_on_c, 10, 67, 108
10, 42350, Note_on_c, 10, 67, 0
10, 42360, Note_on_c, 10, 67, 108
10, 42380, Note_on_c, 10, 67, 0
10, 42390, Note_on_c, 10, 67, 108
10, 42410, Note_on_c, 10, 67, 0
10, 42420, Note_on_c, 10, 67, 108
10, 42440, Note_on_c, 10, 67, 0
10, 42450, Note_on_c, 10, 67, 108
10, 42470, Note_on_c, 10, 67, 0
10, 42480, Note_on_c, 10, 67, 108
10, 42500, Note_on_c, 10, 67, 0
10, 42510, Note_on_c, 10, 67, 108
10, 42530, Note_on_c, 10, 67, 0
10, 42540, Note_on_c, 10, 67, 108
10, 42560, Note_on_c, 10, 67, 0
10, 42570, Note_on_c, 10, 67, 108
10, 42590, Note_on_c, 10, 67, 0
10, 42600, Note_on_c, 10, 67, 108
10, 42620, Note_on_c, 10, 67, 0
10, 42630, Note_on_c, 10, 67, 108
10, 42650, Note_on_c, 10, 67, 0
10, 42660, Note_on_c, 10, 67, 108
10, 42680, Note_on_c, 10, 67, 0
10, 42690, Note_on_c, 10, 67, 108
10, 42710, Note_on_c, 10, 67, 0
10, 42720, Note_on_c, 10, 67, 108
10, 42720, Control_c, 10, 11, 122
10, 42737, Control_c, 10, 11, 119
10, 42740, Note_on_c, 10, 67, 0
10, 42750, Note_on_c, 10, 67, 108
10, 42755, Control_c, 10, 11, 116
10, 42770, Note_on_c, 10, 67, 0
10, 42773, Control_c, 10, 11, 113
10, 42780, Note_on_c, 10, 67, 108
10, 42791, Control_c, 10, 11, 110
10, 42800, Note_on_c, 10, 67, 0
10, 42809, Control_c, 10, 11, 107
10, 42810, Note_on_c, 10, 67, 108
10, 42827, Control_c, 10, 11, 104
10, 42830, Note_on_c, 10, 67, 0
10, 42840, Note_on_c, 10, 67, 108
10, 42860, Note_on_c, 10, 67, 0
10, 42870, Note_on_c, 10, 67, 108
10, 42890, Note_on_c, 10, 67, 0
10, 42900, Note_on_c, 10, 67, 108
10, 42920, Note_on_c, 10, 67, 0
10, 42930, Note_on_c, 10, 67, 108
10, 42950, Note_on_c, 10, 67, 0
10, 42960, Note_on_c, 10, 67, 108
10, 42980, Note_on_c, 10, 67, 0
10, 42990, Note_on_c, 10, 67, 108
10, 43010, Note_on_c, 10, 67, 0
10, 43020, Note_on_c, 10, 67, 108
10, 43040, Note_on_c, 10, 67, 0
10, 43050, Note_on_c, 10, 67, 108
10, 43070, Note_on_c, 10, 67, 0
10, 43080, Note_on_c, 10, 67, 108
10, 43100, Note_on_c, 10, 67, 0
10, 43110, Note_on_c, 10, 67, 108
10, 43130, Note_on_c, 10, 67, 0
10, 43140, Note_on_c, 10, 67, 108
10, 43160, Note_on_c, 10, 67, 0
10, 43170, Note_on_c, 10, 67, 108
10, 43190, Note_on_c, 10, 67, 0
10, 43200, Note_on_c, 10, 67, 108
10, 43200, Control_c, 10, 11, 122
10, 43217, Control_c, 10, 11, 119
10, 43220, Note_on_c, 10, 67, 0
10, 43230, Note_on_c, 10, 67, 108
10, 43235, Control_c, 10, 11, 116
10, 43250, Note_on_c, 10, 67, 0
10, 43253, Control_c, 10, 11, 113
10, 43260, Note_on_c, 10, 67, 108
10, 43271, Control_c, 10, 11, 110
10, 43280, Note_on_c, 10, 67, 0
10, 43289, Control_c, 10, 11, 107
10, 43290, Note_on_c, 10, 67, 108
10, 43307, Control_c, 10, 11, 104
10, 43310, Note_on_c, 10, 67, 0
10, 43320, Note_on_c, 10, 67, 108
10, 43340, Note_on_c, 10, 67, 0
10, 43350, Note_on_c, 10, 67, 108
10, 43370, Note_on_c, 10, 67, 0
10, 43380, Note_on_c, 10, 67, 108
10, 43400, Note_on_c, 10, 67, 0
10, 43410, Note_on_c, 10, 67, 108
10, 43430, Note_on_c, 10, 67, 0
10, 43440, Note_on_c, 10, 67, 108
10, 43460, Note_on_c, 10, 67, 0
10, 43470, Note_on_c, 10, 67, 108
10, 43490, Note_on_c, 10, 67, 0
10, 43500, Note_on_c, 10, 67, 108
10, 43520, Note_on_c, 10, 67, 0
10, 43530, Note_on_c, 10, 67, 108
10, 43550, Note_on_c, 10, 67, 0
10, 43560, Note_on_c, 10, 67, 108
10, 43580, Note_on_c, 10, 67, 0
10, 43590, Note_on_c, 10, 67, 108
10, 43610, Note_on_c, 10, 67, 0
10, 43620, Note_on_c, 10, 67, 108
10, 43640, Note_on_c, 10, 67, 0
10, 43650, Note_on_c, 10, 67, 108
10, 43670, Note_on_c, 10, 67, 0
10, 43680, Note_on_c, 10, 67, 108
10, 43680, Control_c, 10, 11, 122
10, 43697, Control_c, 10, 11, 119
10, 43700, Note_on_c, 10, 67, 0
10, 43710, Note_on_c, 10, 67, 108
10, 43715, Control_c, 10, 11, 116
10, 43730, Note_on_c, 10, 67, 0
10, 43733, Control_c, 10, 11, 113
10, 43740, Note_on_c, 10, 67, 108
10, 43751, Control_c, 10, 11, 110
10, 43760, Note_on_c, 10, 67, 0
10, 43769, Control_c, 10, 11, 107
10, 43770, Note_on_c, 10, 67, 108
10, 43787, Control_c, 10, 11, 104
10, 43790, Note_on_c, 10, 67, 0
10, 43800, Note_on_c, 10, 67, 108
10, 43820, Note_on_c, 10, 67, 0
10, 43830, Note_on_c, 10, 67, 108
10, 43850, Note_on_c, 10, 67, 0
10, 43860, Note_on_c, 10, 67, 108
10, 43880, Note_on_c, 10, 67, 0
10, 43890, Note_on_c, 10, 67, 108
10, 43910, Note_on_c, 10, 67, 0
10, 43920, Note_on_c, 10, 67, 108
10, 43940, Note_on_c, 10, 67, 0
10, 43950, Note_on_c, 10, 67, 108
10, 43970, Note_on_c, 10, 67, 0
10, 43980, Note_on_c, 10, 67, 108
10, 44000, Note_on_c, 10, 67, 0
10, 44010, Note_on_c, 10, 67, 108
10, 44030, Note_on_c, 10, 67, 0
10, 44040, Note_on_c, 10, 67, 108
10, 44060, Note_on_c, 10, 67, 0
10, 44070, Note_on_c, 10, 67, 108
10, 44090, Note_on_c, 10, 67, 0
10, 44100, Note_on_c, 10, 67, 108
10, 44120, Note_on_c, 10, 67, 0
10, 44130, Note_on_c, 10, 67, 108
10, 44150, Note_on_c, 10, 67, 0
10, 44160, Note_on_c, 10, 67, 108
10, 44160, Control_c, 10, 11, 122
10, 44177, Control_c, 10, 11, 119
10, 44180, Note_on_c, 10, 67, 0
10, 44190, Note_on_c, 10, 67, 108
10, 44195, Control_c, 10, 11, 116
10, 44210, Note_on_c, 10, 67, 0
10, 44213, Control_c, 10, 11, 113
10, 44220, Note_on_c, 10, 67, 108
10, 44231, Control_c, 10, 11, 110
10, 44240, Note_on_c, 10, 67, 0
10, 44249, Control_c, 10, 11, 107
10, 44250, Note_on_c, 10, 67, 108
10, 44267, Control_c, 10, 11, 104
10, 44270, Note_on_c, 10, 67, 0
10, 44280, Note_on_c, 10, 67, 108
10, 44300, Note_on_c, 10, 67, 0
10, 44310, Note_on_c, 10, 67, 108
10, 44330, Note_on_c, 10, 67, 0
10, 44340, Note_on_c, 10, 67, 108
10, 44360, Note_on_c, 10, 67, 0
10, 44370, Note_on_c, 10, 67, 108
10, 44390, Note_on_c, 10, 67, 0
10, 44400, Note_on_c, 10, 67, 108
10, 44400, Control_c, 10, 11, 122
10, 44417, Control_c, 10, 11, 119
10, 44420, Note_on_c, 10, 67, 0
10, 44430, Note_on_c, 10, 67, 108
10, 44435, Control_c, 10, 11, 116
10, 44450, Note_on_c, 10, 67, 0
10, 44453, Control_c, 10, 11, 113
10, 44460, Note_on_c, 10, 67, 108
10, 44471, Control_c, 10, 11, 110
10, 44480, Note_on_c, 10, 67, 0
10, 44489, Control_c, 10, 11, 107
10, 44490, Note_on_c, 10, 67, 108
10, 44507, Control_c, 10, 11, 104
10, 44510, Note_on_c, 10, 67, 0
10, 44520, Note_on_c, 10, 67, 108
10, 44540, Note_on_c, 10, 67, 0
10, 44550, Note_on_c, 10, 67, 108
10, 44570, Note_on_c, 10, 67, 0
10, 44580, Note_on_c, 10, 67, 108
10, 44600, Note_on_c, 10, 67, 0
10, 44610, Note_on_c, 10, 67, 108
10, 44630, Note_on_c, 10, 67, 0
10, 44640, Note_on_c, 10, 67, 108
10, 44640, Control_c, 10, 11, 87
10, 44651, Control_c, 10, 11, 84
10, 44660, Note_on_c, 10, 67, 0
10, 44662, Control_c, 10, 11, 81
10, 44670, Note_on_c, 10, 67, 108
10, 44673, Control_c, 10, 11, 78
10, 44685, Control_c, 10, 11, 75
10, 44690, Note_on_c, 10, 67, 0
10, 44696, Control_c, 10, 11, 72
10, 44700, Note_on_c, 10, 67, 108
10, 44707, Control_c, 10, 11, 69
10, 44718, Control_c, 10, 11, 66
10, 44720, Note_on_c, 10, 67, 0
10, 44730, Control_c, 10, 11, 63
10, 44730, Note_on_c, 10, 67, 108
10, 44741, Control_c, 10, 11, 60
10, 44750, Note_on_c, 10, 67, 0
10, 44752, Control_c, 10, 11, 57
10, 44760, Note_on_c, 10, 67, 108
10, 44763, Control_c, 10, 11, 54
10, 44775, Note_on_c, 10, 67, 0
10, 44775, Control_c, 10, 11, 51
10, 44786, Control_c, 10, 11, 48
10, 44790, Note_on_c, 10, 67, 108
10, 44805, Note_on_c, 10, 67, 0
10, 44820, Note_on_c, 10, 69, 108
10, 44835, Note_on_c, 10, 69, 0
10, 44850, Note_on_c, 10, 71, 108
10, 44865, Note_on_c, 10, 71, 0
10, 44880, Note_on_c, 10, 72, 108
10, 44895, Note_on_c, 10, 72, 0
10, 44910, Note_on_c, 10, 74, 108
10, 44925, Note_on_c, 10, 74, 0
10, 44940, Note_on_c, 10, 76, 108
10, 44955, Note_on_c, 10, 76, 0
10, 44970, Note_on_c, 10, 77, 108
10, 44985, Note_on_c, 10, 77, 0
10, 45000, Note_on_c, 10, 79, 108
10, 45030, Note_on_c, 10, 79, 0
10, 45060, Note_on_c, 10, 79, 108
10, 45090, Note_on_c, 10, 79, 0
10, 45120, Note_on_c, 10, 79, 108
10, 45240, Note_on_c, 10, 79, 0
10, 45750, Note_on_c, 10, 69, 108
10, 45765, Note_on_c, 10, 69, 0
10, 45780, Note_on_c, 10, 71, 108
10, 45795, Note_on_c, 10, 71, 0
10, 45810, Note_on_c, 10, 73, 108
10, 45825, Note_on_c, 10, 73, 0
10, 45840, Note_on_c, 10, 74, 108
10, 45855, Note_on_c, 10, 74, 0
10, 45870, Note_on_c, 10, 76, 108
10, 45885, Note_on_c, 10, 76, 0
10, 45900, Note_on_c, 10, 77, 108
10, 45915, Note_on_c, 10, 77, 0
10, 45930, Note_on_c, 10, 79, 108
10, 45945, Note_on_c, 10, 79, 0
10, 45960, Note_on_c, 10, 81, 108
10, 45990, Note_on_c, 10, 81, 0
10, 46020, Note_on_c, 10, 81, 108
10, 46050, Note_on_c, 10, 81, 0
10, 46080, Note_on_c, 10, 81, 108
10, 46200, Note_on_c, 10, 81, 0
10, 46710, Note_on_c, 10, 69, 108
10, 46725, Note_on_c, 10, 69, 0
10, 46740, Note_on_c, 10, 71, 108
10, 46755, Note_on_c, 10, 71, 0
10, 46770, Note_on_c, 10, 73, 108
10, 46785, Note_on_c, 10, 73, 0
10, 46800, Note_on_c, 10, 74, 108
10, 46815, Note_on_c, 10, 74, 0
10, 46830, Note_on_c, 10, 76, 108
10, 46845, Note_on_c, 10, 76, 0
10, 46860, Note_on_c, 10, 77, 108
10, 46875, Note_on_c, 10, 77, 0
10, 46890, Note_on_c, 10, 79, 108
10, 46905, Note_on_c, 10, 79, 0
10, 46920, Note_on_c, 10, 81, 108
10, 46950, Note_on_c, 10, 81, 0
10, 46980, Note_on_c, 10, 81, 108
10, 47010, Note_on_c, 10, 81, 0
10, 47040, Note_on_c, 10, 81, 108
10, 47160, Note_on_c, 10, 81, 0
10, 47190, Note_on_c, 10, 69, 108
10, 47205, Note_on_c, 10, 69, 0
10, 47220, Note_on_c, 10, 70, 108
10, 47235, Note_on_c, 10, 70, 0
10, 47250, Note_on_c, 10, 72, 108
10, 47265, Note_on_c, 10, 72, 0
10, 47280, Note_on_c, 10, 74, 108
10, 47295, Note_on_c, 10, 74, 0
10, 47310, Note_on_c, 10, 75, 108
10, 47325, Note_on_c, 10, 75, 0
10, 47340, Note_on_c, 10, 77, 108
10, 47355, Note_on_c, 10, 77, 0
10, 47370, Note_on_c, 10, 79, 108
10, 47385, Note_on_c, 10, 79, 0
10, 47400, Note_on_c, 10, 81, 108
10, 47430, Note_on_c, 10, 81, 0
10, 47460, Note_on_c, 10, 81, 108
10, 47490, Note_on_c, 10, 81, 0
10, 47520, Note_on_c, 10, 82, 108
10, 47520, Control_c, 10, 11, 102
10, 47750, Note_on_c, 10, 82, 0
10, 47760, Note_on_c, 10, 77, 108
10, 47820, Note_on_c, 10, 77, 0
10, 47880, Note_on_c, 10, 74, 108
10, 47940, Note_on_c, 10, 74, 0
10, 48000, Note_on_c, 10, 75, 108
10, 48060, Note_on_c, 10, 75, 0
10, 48120, Note_on_c, 10, 72, 108
10, 48180, Note_on_c, 10, 72, 0
10, 48240, Note_on_c, 10, 69, 108
10, 48300, Note_on_c, 10, 69, 0
10, 48360, Note_on_c, 10, 63, 108
10, 48420, Note_on_c, 10, 63, 0
10, 48480, Note_on_c, 10, 62, 108
10, 48540, Note_on_c, 10, 62, 0
10, 48600, Note_on_c, 10, 82, 108
10, 48620, Note_on_c, 10, 82, 0
10, 48630, Note_on_c, 10, 82, 108
10, 48650, Note_on_c, 10, 82, 0
10, 48660, Note_on_c, 10, 82, 108
10, 48680, Note_on_c, 10, 82, 0
10, 48690, Note_on_c, 10, 82, 108
10, 48710, Note_on_c, 10, 82, 0
10, 48720, Note_on_c, 10, 77, 108
10, 48740, Note_on_c, 10, 77, 0
10, 48750, Note_on_c, 10, 77, 108
10, 48770, Note_on_c, 10, 77, 0
10, 48780, Note_on_c, 10, 77, 108
10, 48800, Note_on_c, 10, 77, 0
10, 48810, Note_on_c, 10, 77, 108
10, 48830, Note_on_c, 10, 77, 0
10, 48840, Note_on_c, 10, 74, 108
10, 48860, Note_on_c, 10, 74, 0
10, 48870, Note_on_c, 10, 74, 108
10, 48890, Note_on_c, 10, 74, 0
10, 48900, Note_on_c, 10, 74, 108
10, 48920, Note_on_c, 10, 74, 0
10, 48930, Note_on_c, 10, 74, 108
10, 48950, Note_on_c, 10, 74, 0
10, 48960, Note_on_c, 10, 75, 108
10, 48980, Note_on_c, 10, 75, 0
10, 48990, Note_on_c, 10, 75, 108
10, 49010, Note_on_c, 10, 75, 0
10, 49020, Note_on_c, 10, 75, 108
10, 49040, Note_on_c, 10, 75, 0
10, 49050, Note_on_c, 10, 75, 108
10, 49070, Note_on_c, 10, 75, 0
10, 49080, Note_on_c, 10, 72, 108
10, 49100, Note_on_c, 10, 72, 0
10, 49110, Note_on_c, 10, 72, 108
10, 49130, Note_on_c, 10, 72, 0
10, 49140, Note_on_c, 10, 72, 108
10, 49160, Note_on_c, 10, 72, 0
10, 49170, Note_on_c, 10, 72, 108
10, 49190, Note_on_c, 10, 72, 0
10, 49200, Note_on_c, 10, 69, 108
10, 49220, Note_on_c, 10, 69, 0
10, 49230, Note_on_c, 10, 69, 108
10, 49250, Note_on_c, 10, 69, 0
10, 49260, Note_on_c, 10, 69, 108
10, 49280, Note_on_c, 10, 69, 0
10, 49290, Note_on_c, 10, 69, 108
10, 49310, Note_on_c, 10, 69, 0
10, 49320, Note_on_c, 10, 63, 108
10, 49340, Note_on_c, 10, 63, 0
10, 49350, Note_on_c, 10, 63, 108
10, 49370, Note_on_c, 10, 63, 0
10, 49380, Note_on_c, 10, 63, 108
10, 49400, Note_on_c, 10, 63, 0
10, 49410, Note_on_c, 10, 63, 108
10, 49430, Note_on_c, 10, 63, 0
10, 49440, Note_on_c, 10, 62, 93
10, 49440, Control_c, 10, 11, 87
10, 49560, Note_on_c, 10, 62, 0
10, 49740, Note_on_c, 10, 70, 108
10, 49740, Control_c, 10, 11, 47
10, 49785, Note_on_c, 10, 70, 0
10, 49800, Note_on_c, 10, 70, 108
10, 49845, Note_on_c, 10, 70, 0
10, 49860, Note_on_c, 10, 70, 108
10, 49905, Note_on_c, 10, 70, 0
10, 49920, Note_on_c, 10, 70, 108
10, 50040, Note_on_c, 10, 70, 0
10, 50040, Note_on_c, 10, 69, 108
10, 50100, Note_on_c, 10, 69, 0
10, 50220, Note_on_c, 10, 72, 108
10, 50265, Note_on_c, 10, 72, 0
10, 50280, Note_on_c, 10, 72, 108
10, 50325, Note_on_c, 10, 72, 0
10, 50340, Note_on_c, 10, 72, 108
10, 50385, Note_on_c, 10, 72, 0
10, 50400, Note_on_c, 10, 72, 108
10, 50460, Note_on_c, 10, 72, 0
10, 50460, Note_on_c, 10, 70, 108
10, 50505, Note_on_c, 10, 70, 0
10, 50520, Note_on_c, 10, 74, 108
10, 50550, Note_on_c, 10, 74, 0
10, 50580, Note_on_c, 10, 74, 108
10, 50610, Note_on_c, 10, 74, 0
10, 50640, Note_on_c, 10, 74, 108
10, 50700, Note_on_c, 10, 74, 0
10, 50700, Note_on_c, 10, 72, 108
10, 50745, Note_on_c, 10, 72, 0
10, 50760, Note_on_c, 10, 72, 108
10, 50820, Note_on_c, 10, 72, 0
10, 50820, Note_on_c, 10, 70, 108
10, 50865, Note_on_c, 10, 70, 0
10, 50880, Note_on_c, 10, 69, 108
10, 51000, Note_on_c, 10, 69, 0
10, 51030, Note_on_c, 10, 65, 108
10, 51045, Note_on_c, 10, 65, 0
10, 51060, Note_on_c, 10, 67, 108
10, 51075, Note_on_c, 10, 67, 0
10, 51090, Note_on_c, 10, 69, 108
10, 51105, Note_on_c, 10, 69, 0
10, 51120, Note_on_c, 10, 70, 108
10, 51135, Note_on_c, 10, 70, 0
10, 51150, Note_on_c, 10, 72, 108
10, 51165, Note_on_c, 10, 72, 0
10, 51180, Note_on_c, 10, 74, 108
10, 51195, Note_on_c, 10, 74, 0
10, 51210, Note_on_c, 10, 76, 108
10, 51225, Note_on_c, 10, 76, 0
10, 51240, Note_on_c, 10, 77, 108
10, 51270, Note_on_c, 10, 77, 0
10, 51300, Note_on_c, 10, 77, 108
10, 51330, Note_on_c, 10, 77, 0
10, 51360, Note_on_c, 10, 79, 108
10, 51480, Note_on_c, 10, 79, 0
10, 51510, Note_on_c, 10, 67, 108
10, 51525, Note_on_c, 10, 67, 0
10, 51540, Note_on_c, 10, 69, 108
10, 51555, Note_on_c, 10, 69, 0
10, 51570, Note_on_c, 10, 70, 108
10, 51585, Note_on_c, 10, 70, 0
10, 51600, Note_on_c, 10, 72, 108
10, 51615, Note_on_c, 10, 72, 0
10, 51630, Note_on_c, 10, 74, 108
10, 51645, Note_on_c, 10, 74, 0
10, 51660, Note_on_c, 10, 76, 108
10, 51675, Note_on_c, 10, 76, 0
10, 51690, Note_on_c, 10, 77, 108
10, 51705, Note_on_c, 10, 77, 0
10, 51720, Note_on_c, 10, 79, 108
10, 51750, Note_on_c, 10, 79, 0
10, 51780, Note_on_c, 10, 79, 108
10, 51810, Note_on_c, 10, 79, 0
10, 51840, Note_on_c, 10, 81, 108
10, 51960, Note_on_c, 10, 81, 0
10, 52260, Note_on_c, 10, 81, 108
10, 52290, Note_on_c, 10, 81, 0
10, 52290, Note_on_c, 10, 79, 108
10, 52320, Note_on_c, 10, 79, 0
10, 52320, Note_on_c, 10, 77, 108
10, 52350, Note_on_c, 10, 77, 0
10, 52350, Note_on_c, 10, 76, 108
10, 52380, Note_on_c, 10, 76, 0
10, 52380, Note_on_c, 10, 74, 108
10, 52410, Note_on_c, 10, 74, 0
10, 52410, Note_on_c, 10, 72, 108
10, 52430, Note_on_c, 10, 72, 0
10, 52440, Note_on_c, 10, 70, 108
10, 52470, Note_on_c, 10, 70, 0
10, 52740, Note_on_c, 10, 82, 108
10, 52770, Note_on_c, 10, 82, 0
10, 52770, Note_on_c, 10, 81, 108
10, 52800, Note_on_c, 10, 81, 0
10, 52800, Note_on_c, 10, 79, 108
10, 52830, Note_on_c, 10, 79, 0
10, 52830, Note_on_c, 10, 77, 108
10, 52860, Note_on_c, 10, 77, 0
10, 52860, Note_on_c, 10, 76, 108
10, 52890, Note_on_c, 10, 76, 0
10, 52890, Note_on_c, 10, 74, 108
10, 52910, Note_on_c, 10, 74, 0
10, 52920, Note_on_c, 10, 73, 108
10, 52950, Note_on_c, 10, 73, 0
10, 53100, Note_on_c, 10, 88, 108
10, 53130, Note_on_c, 10, 88, 0
10, 53130, Note_on_c, 10, 86, 108
10, 53160, Note_on_c, 10, 86, 0
10, 53160, Note_on_c, 10, 85, 108
10, 53190, Note_on_c, 10, 85, 0
10, 53190, Note_on_c, 10, 83, 108
10, 53220, Note_on_c, 10, 83, 0
10, 53220, Note_on_c, 10, 81, 108
10, 53250, Note_on_c, 10, 81, 0
10, 53250, Note_on_c, 10, 79, 108
10, 53270, Note_on_c, 10, 79, 0
10, 53280, Note_on_c, 10, 78, 108
10, 53310, Note_on_c, 10, 78, 0
10, 53580, Note_on_c, 10, 81, 108
10, 53610, Note_on_c, 10, 81, 0
10, 53610, Note_on_c, 10, 79, 108
10, 53640, Note_on_c, 10, 79, 0
10, 53640, Note_on_c, 10, 78, 108
10, 53670, Note_on_c, 10, 78, 0
10, 53670, Note_on_c, 10, 76, 108
10, 53700, Note_on_c, 10, 76, 0
10, 53700, Note_on_c, 10, 74, 108
10, 53730, Note_on_c, 10, 74, 0
10, 53730, Note_on_c, 10, 72, 108
10, 53750, Note_on_c, 10, 72, 0
10, 53760, Note_on_c, 10, 71, 108
10, 53790, Note_on_c, 10, 71, 0
10, 54060, Note_on_c, 10, 86, 108
10, 54090, Note_on_c, 10, 86, 0
10, 54090, Note_on_c, 10, 84, 108
10, 54120, Note_on_c, 10, 84, 0
10, 54120, Note_on_c, 10, 83, 108
10, 54150, Note_on_c, 10, 83, 0
10, 54150, Note_on_c, 10, 81, 108
10, 54180, Note_on_c, 10, 81, 0
10, 54180, Note_on_c, 10, 79, 108
10, 54210, Note_on_c, 10, 79, 0
10, 54210, Note_on_c, 10, 77, 108
10, 54230, Note_on_c, 10, 77, 0
10, 54240, Note_on_c, 10, 76, 108
10, 54270, Note_on_c, 10, 76, 0
10, 54540, Note_on_c, 10, 79, 108
10, 54570, Note_on_c, 10, 79, 0
10, 54570, Note_on_c, 10, 77, 108
10, 54600, Note_on_c, 10, 77, 0
10, 54600, Note_on_c, 10, 76, 108
10, 54630, Note_on_c, 10, 76, 0
10, 54630, Note_on_c, 10, 74, 108
10, 54660, Note_on_c, 10, 74, 0
10, 54660, Note_on_c, 10, 72, 108
10, 54690, Note_on_c, 10, 72, 0
10, 54690, Note_on_c, 10, 70, 108
10, 54710, Note_on_c, 10, 70, 0
10, 54720, Note_on_c, 10, 69, 108
10, 54720, Control_c, 10, 11, 47
10, 54744, Control_c, 10, 11, 49
10, 54750, Note_on_c, 10, 69, 0
10, 54768, Control_c, 10, 11, 51
10, 54780, Note_on_c, 10, 81, 108
10, 54792, Control_c, 10, 11, 53
10, 54810, Note_on_c, 10, 81, 0
10, 54810, Note_on_c, 10, 79, 108
10, 54816, Control_c, 10, 11, 55
10, 54840, Note_on_c, 10, 79, 0
10, 54840, Control_c, 10, 11, 57
10, 54840, Note_on_c, 10, 77, 108
10, 54864, Control_c, 10, 11, 59
10, 54870, Note_on_c, 10, 77, 0
10, 54870, Note_on_c, 10, 76, 108
10, 54888, Control_c, 10, 11, 61
10, 54900, Note_on_c, 10, 76, 0
10, 54900, Note_on_c, 10, 74, 108
10, 54912, Control_c, 10, 11, 63
10, 54930, Note_on_c, 10, 74, 0
10, 54930, Note_on_c, 10, 73, 108
10, 54936, Control_c, 10, 11, 65
10, 54950, Note_on_c, 10, 73, 0
10, 54960, Control_c, 10, 11, 67
10, 54960, Note_on_c, 10, 74, 108
10, 54984, Control_c, 10, 11, 69
10, 54990, Note_on_c, 10, 74, 0
10, 55008, Control_c, 10, 11, 71
10, 55020, Note_on_c, 10, 81, 108
10, 55032, Control_c, 10, 11, 73
10, 55050, Note_on_c, 10, 81, 0
10, 55050, Note_on_c, 10, 79, 108
10, 55056, Control_c, 10, 11, 75
10, 55080, Note_on_c, 10, 79, 0
10, 55080, Note_on_c, 10, 77, 108
10, 55080, Control_c, 10, 11, 77
10, 55104, Control_c, 10, 11, 79
10, 55110, Note_on_c, 10, 77, 0
10, 55110, Note_on_c, 10, 76, 108
10, 55128, Control_c, 10, 11, 81
10, 55140, Note_on_c, 10, 76, 0
10, 55140, Note_on_c, 10, 74, 108
10, 55152, Control_c, 10, 11, 83
10, 55170, Note_on_c, 10, 74, 0
10, 55170, Note_on_c, 10, 72, 108
10, 55176, Control_c, 10, 11, 85
10, 55190, Note_on_c, 10, 72, 0
10, 55200, Note_on_c, 10, 71, 108
10, 55200, Control_c, 10, 11, 87
10, 55220, Note_on_c, 10, 71, 0
10, 55230, Note_on_c, 10, 79, 108
10, 55250, Note_on_c, 10, 79, 0
10, 55260, Note_on_c, 10, 79, 108
10, 55280, Note_on_c, 10, 79, 0
10, 55290, Note_on_c, 10, 79, 108
10, 55310, Note_on_c, 10, 79, 0
10, 55320, Note_on_c, 10, 79, 108
10, 55340, Note_on_c, 10, 79, 0
10, 55350, Note_on_c, 10, 79, 108
10, 55370, Note_on_c, 10, 79, 0
10, 55380, Note_on_c, 10, 79, 108
10, 55400, Note_on_c, 10, 79, 0
10, 55410, Note_on_c, 10, 79, 108
10, 55430, Note_on_c, 10, 79, 0
10, 55440, Note_on_c, 10, 79, 108
10, 55460, Note_on_c, 10, 79, 0
10, 55470, Note_on_c, 10, 79, 108
10, 55490, Note_on_c, 10, 79, 0
10, 55500, Note_on_c, 10, 79, 108
10, 55520, Note_on_c, 10, 79, 0
10, 55530, Note_on_c, 10, 79, 108
10, 55550, Note_on_c, 10, 79, 0
10, 55560, Note_on_c, 10, 79, 108
10, 55580, Note_on_c, 10, 79, 0
10, 55590, Note_on_c, 10, 79, 108
10, 55610, Note_on_c, 10, 79, 0
10, 55620, Note_on_c, 10, 79, 108
10, 55640, Note_on_c, 10, 79, 0
10, 55650, Note_on_c, 10, 79, 108
10, 55670, Note_on_c, 10, 79, 0
10, 55680, Note_on_c, 10, 79, 108
10, 55700, Note_on_c, 10, 79, 0
10, 55710, Note_on_c, 10, 79, 108
10, 55730, Note_on_c, 10, 79, 0
10, 55740, Note_on_c, 10, 79, 108
10, 55760, Note_on_c, 10, 79, 0
10, 55770, Note_on_c, 10, 79, 108
10, 55790, Note_on_c, 10, 79, 0
10, 55800, Note_on_c, 10, 79, 108
10, 55820, Note_on_c, 10, 79, 0
10, 55830, Note_on_c, 10, 79, 108
10, 55850, Note_on_c, 10, 79, 0
10, 55860, Note_on_c, 10, 79, 108
10, 55880, Note_on_c, 10, 79, 0
10, 55890, Note_on_c, 10, 79, 108
10, 55910, Note_on_c, 10, 79, 0
10, 55920, Note_on_c, 10, 79, 108
10, 55940, Note_on_c, 10, 79, 0
10, 55950, Note_on_c, 10, 79, 108
10, 55970, Note_on_c, 10, 79, 0
10, 55980, Note_on_c, 10, 79, 108
10, 56000, Note_on_c, 10, 79, 0
10, 56010, Note_on_c, 10, 79, 108
10, 56030, Note_on_c, 10, 79, 0
10, 56040, Note_on_c, 10, 79, 108
10, 56060, Note_on_c, 10, 79, 0
10, 56070, Note_on_c, 10, 79, 108
10, 56090, Note_on_c, 10, 79, 0
10, 56100, Note_on_c, 10, 79, 108
10, 56120, Note_on_c, 10, 79, 0
10, 56130, Note_on_c, 10, 79, 108
10, 56150, Note_on_c, 10, 79, 0
10, 56160, Control_c, 10, 11, 102
10, 56160, Note_on_c, 10, 79, 108
10, 56180, Note_on_c, 10, 79, 0
10, 56190, Note_on_c, 10, 83, 108
10, 56210, Note_on_c, 10, 83, 0
10, 56220, Note_on_c, 10, 83, 108
10, 56240, Note_on_c, 10, 83, 0
10, 56250, Note_on_c, 10, 83, 108
10, 56270, Note_on_c, 10, 83, 0
10, 56280, Note_on_c, 10, 83, 108
10, 56300, Note_on_c, 10, 83, 0
10, 56310, Note_on_c, 10, 83, 108
10, 56330, Note_on_c, 10, 83, 0
10, 56340, Note_on_c, 10, 83, 108
10, 56360, Note_on_c, 10, 83, 0
10, 56370, Note_on_c, 10, 83, 108
10, 56390, Note_on_c, 10, 83, 0
10, 56400, Note_on_c, 10, 83, 108
10, 56420, Note_on_c, 10, 83, 0
10, 56430, Note_on_c, 10, 83, 108
10, 56450, Note_on_c, 10, 83, 0
10, 56460, Note_on_c, 10, 83, 108
10, 56480, Note_on_c, 10, 83, 0
10, 56490, Note_on_c, 10, 83, 108
10, 56510, Note_on_c, 10, 83, 0
10, 56520, Note_on_c, 10, 83, 108
10, 56540, Note_on_c, 10, 83, 0
10, 56550, Note_on_c, 10, 83, 108
10, 56570, Note_on_c, 10, 83, 0
10, 56580, Note_on_c, 10, 83, 108
10, 56600, Note_on_c, 10, 83, 0
10, 56610, Note_on_c, 10, 83, 108
10, 56630, Note_on_c, 10, 83, 0
10, 56640, Note_on_c, 10, 84, 108
10, 56660, Note_on_c, 10, 84, 0
10, 56670, Note_on_c, 10, 84, 108
10, 56690, Note_on_c, 10, 84, 0
10, 56700, Note_on_c, 10, 84, 108
10, 56720, Note_on_c, 10, 84, 0
10, 56730, Note_on_c, 10, 84, 108
10, 56750, Note_on_c, 10, 84, 0
10, 56760, Note_on_c, 10, 84, 108
10, 56780, Note_on_c, 10, 84, 0
10, 56790, Note_on_c, 10, 84, 108
10, 56810, Note_on_c, 10, 84, 0
10, 56820, Note_on_c, 10, 84, 108
10, 56840, Note_on_c, 10, 84, 0
10, 56850, Note_on_c, 10, 84, 108
10, 56870, Note_on_c, 10, 84, 0
10, 56880, Note_on_c, 10, 84, 108
10, 56900, Note_on_c, 10, 84, 0
10, 56910, Note_on_c, 10, 84, 108
10, 56930, Note_on_c, 10, 84, 0
10, 56940, Note_on_c, 10, 84, 108
10, 56960, Note_on_c, 10, 84, 0
10, 56970, Note_on_c, 10, 84, 108
10, 56990, Note_on_c, 10, 84, 0
10, 57000, Note_on_c, 10, 84, 108
10, 57020, Note_on_c, 10, 84, 0
10, 57030, Note_on_c, 10, 84, 108
10, 57050, Note_on_c, 10, 84, 0
10, 57060, Note_on_c, 10, 84, 108
10, 57080, Note_on_c, 10, 84, 0
10, 57090, Note_on_c, 10, 84, 108
10, 57110, Note_on_c, 10, 84, 0
10, 57120, Control_c, 10, 11, 107
10, 57120, Note_on_c, 10, 83, 108
10, 57129, Control_c, 10, 11, 110
10, 57138, Control_c, 10, 11, 113
10, 57147, Control_c, 10, 11, 116
10, 57162, Control_c, 10, 11, 115
10, 57180, Control_c, 10, 11, 112
10, 57198, Control_c, 10, 11, 109
10, 57216, Control_c, 10, 11, 106
10, 57234, Control_c, 10, 11, 103
10, 57250, Note_on_c, 10, 83, 0
10, 57270, Note_on_c, 10, 67, 108
10, 57285, Note_on_c, 10, 67, 0
10, 57300, Note_on_c, 10, 69, 108
10, 57315, Note_on_c, 10, 69, 0
10, 57330, Note_on_c, 10, 71, 108
10, 57345, Note_on_c, 10, 71, 0
10, 57360, Note_on_c, 10, 72, 108
10, 57375, Note_on_c, 10, 72, 0
10, 57390, Note_on_c, 10, 74, 108
10, 57405, Note_on_c, 10, 74, 0
10, 57420, Note_on_c, 10, 76, 108
10, 57435, Note_on_c, 10, 76, 0
10, 57450, Note_on_c, 10, 78, 108
10, 57465, Note_on_c, 10, 78, 0
10, 57480, Note_on_c, 10, 79, 108
10, 57510, Note_on_c, 10, 79, 0
10, 57540, Note_on_c, 10, 79, 108
10, 57570, Note_on_c, 10, 79, 0
10, 57600, Note_on_c, 10, 79, 108
10, 57600, Control_c, 10, 11, 107
10, 57609, Control_c, 10, 11, 110
10, 57618, Control_c, 10, 11, 113
10, 57627, Control_c, 10, 11, 116
10, 57642, Control_c, 10, 11, 115
10, 57660, Control_c, 10, 11, 112
10, 57678, Control_c, 10, 11, 109
10, 57696, Control_c, 10, 11, 106
10, 57714, Control_c, 10, 11, 103
10, 57730, Note_on_c, 10, 79, 0
10, 57750, Note_on_c, 10, 71, 108
10, 57765, Note_on_c, 10, 71, 0
10, 57780, Note_on_c, 10, 72, 108
10, 57795, Note_on_c, 10, 72, 0
10, 57810, Note_on_c, 10, 74, 108
10, 57825, Note_on_c, 10, 74, 0
10, 57840, Note_on_c, 10, 76, 108
10, 57855, Note_on_c, 10, 76, 0
10, 57870, Note_on_c, 10, 78, 108
10, 57885, Note_on_c, 10, 78, 0
10, 57900, Note_on_c, 10, 79, 108
10, 57915, Note_on_c, 10, 79, 0
10, 57930, Note_on_c, 10, 81, 108
10, 57945, Note_on_c, 10, 81, 0
10, 57960, Note_on_c, 10, 83, 108
10, 57990, Note_on_c, 10, 83, 0
10, 58020, Note_on_c, 10, 83, 108
10, 58050, Note_on_c, 10, 83, 0
10, 58080, Note_on_c, 10, 83, 108
10, 58080, Control_c, 10, 11, 107
10, 58089, Control_c, 10, 11, 110
10, 58098, Control_c, 10, 11, 113
10, 58107, Control_c, 10, 11, 116
10, 58122, Control_c, 10, 11, 115
10, 58140, Control_c, 10, 11, 112
10, 58158, Control_c, 10, 11, 109
10, 58176, Control_c, 10, 11, 106
10, 58194, Control_c, 10, 11, 103
10, 58210, Note_on_c, 10, 83, 0
10, 58230, Note_on_c, 10, 74, 108
10, 58245, Note_on_c, 10, 74, 0
10, 58260, Note_on_c, 10, 76, 108
10, 58275, Note_on_c, 10, 76, 0
10, 58290, Note_on_c, 10, 78, 108
10, 58305, Note_on_c, 10, 78, 0
10, 58320, Note_on_c, 10, 79, 108
10, 58335, Note_on_c, 10, 79, 0
10, 58350, Note_on_c, 10, 81, 108
10, 58365, Note_on_c, 10, 81, 0
10, 58380, Note_on_c, 10, 83, 108
10, 58395, Note_on_c, 10, 83, 0
10, 58410, Note_on_c, 10, 84, 108
10, 58425, Note_on_c, 10, 84, 0
10, 58440, Note_on_c, 10, 86, 108
10, 58470, Note_on_c, 10, 86, 0
10, 58500, Note_on_c, 10, 86, 108
10, 58530, Note_on_c, 10, 86, 0
10, 58560, Note_on_c, 10, 86, 108
10, 58560, Control_c, 10, 11, 107
10, 58569, Control_c, 10, 11, 110
10, 58578, Control_c, 10, 11, 113
10, 58587, Control_c, 10, 11, 116
10, 58602, Control_c, 10, 11, 115
10, 58620, Control_c, 10, 11, 112
10, 58638, Control_c, 10, 11, 109
10, 58656, Control_c, 10, 11, 106
10, 58674, Control_c, 10, 11, 103
10, 58690, Note_on_c, 10, 86, 0
10, 58710, Note_on_c, 10, 77, 108
10, 58725, Note_on_c, 10, 77, 0
10, 58740, Note_on_c, 10, 79, 108
10, 58755, Note_on_c, 10, 79, 0
10, 58770, Note_on_c, 10, 81, 108
10, 58785, Note_on_c, 10, 81, 0
10, 58800, Note_on_c, 10, 83, 108
10, 58815, Note_on_c, 10, 83, 0
10, 58830, Note_on_c, 10, 84, 108
10, 58845, Note_on_c, 10, 84, 0
10, 58860, Note_on_c, 10, 86, 108
10, 58875, Note_on_c, 10, 86, 0
10, 58890, Note_on_c, 10, 88, 108
10, 58905, Note_on_c, 10, 88, 0
10, 58920, Note_on_c, 10, 89, 108
10, 58950, Note_on_c, 10, 89, 0
10, 58980, Note_on_c, 10, 89, 108
10, 59010, Note_on_c, 10, 89, 0
10, 59040, Note_on_c, 10, 89, 108
10, 59130, Note_on_c, 10, 89, 0
10, 59280, Note_on_c, 10, 83, 108
10, 59280, Note_on_c, 10, 67, 108
10, 59280, Note_on_c, 10, 74, 108
10, 59340, Note_on_c, 10, 74, 0
10, 59340, Note_on_c, 10, 67, 0
10, 59340, Note_on_c, 10, 83, 0
10, 59520, Note_on_c, 10, 86, 108
10, 59520, Note_on_c, 10, 67, 108
10, 59520, Note_on_c, 10, 77, 108
10, 59580, Note_on_c, 10, 77, 0
10, 59580, Note_on_c, 10, 67, 0
10, 59580, Note_on_c, 10, 86, 0
10, 59760, Note_on_c, 10, 74, 108
10, 59760, Note_on_c, 10, 67, 108
10, 59760, Note_on_c, 10, 83, 108
10, 59820, Note_on_c, 10, 83, 0
10, 59820, Note_on_c, 10, 67, 0
10, 59820, Note_on_c, 10, 74, 0
10, 60000, Note_on_c, 10, 86, 93
10, 60000, Note_on_c, 10, 67, 93
10, 60000, Note_on_c, 10, 77, 93
10, 60060, Note_on_c, 10, 77, 0
10, 60060, Note_on_c, 10, 67, 0
10, 60060, Note_on_c, 10, 86, 0
10, 60630, Note_on_c, 10, 67, 108
10, 60630, Control_c, 10, 11, 37
10, 60645, Note_on_c, 10, 67, 0
10, 60648, Control_c, 10, 11, 40
10, 60660, Note_on_c, 10, 69, 108
10, 60666, Control_c, 10, 11, 43
10, 60675, Note_on_c, 10, 69, 0
10, 60684, Control_c, 10, 11, 46
10, 60690, Note_on_c, 10, 71, 108
10, 60705, Note_on_c, 10, 71, 0
10, 60720, Note_on_c, 10, 72, 108
10, 60735, Note_on_c, 10, 72, 0
10, 60750, Note_on_c, 10, 74, 108
10, 60765, Note_on_c, 10, 74, 0
10, 60780, Note_on_c, 10, 76, 108
10, 60795, Note_on_c, 10, 76, 0
10, 60810, Note_on_c, 10, 77, 108
10, 60825, Note_on_c, 10, 77, 0
10, 60840, Note_on_c, 10, 79, 108
10, 60870, Note_on_c, 10, 79, 0
10, 60900, Note_on_c, 10, 79, 108
10, 60930, Note_on_c, 10, 79, 0
10, 60960, Note_on_c, 10, 76, 108
10, 61080, Note_on_c, 10, 76, 0
10, 61080, Note_on_c, 10, 72, 108
10, 61130, Note_on_c, 10, 72, 0
10, 61140, Note_on_c, 10, 72, 108
10, 61170, Note_on_c, 10, 72, 0
10, 61200, Note_on_c, 10, 74, 108
10, 61230, Note_on_c, 10, 74, 0
10, 61260, Note_on_c, 10, 74, 108
10, 61290, Note_on_c, 10, 74, 0
10, 61320, Note_on_c, 10, 76, 108
10, 61350, Note_on_c, 10, 76, 0
10, 61350, Note_on_c, 10, 74, 108
10, 61380, Note_on_c, 10, 74, 0
10, 61380, Note_on_c, 10, 72, 108
10, 61410, Note_on_c, 10, 72, 0
10, 61410, Note_on_c, 10, 74, 108
10, 61440, Note_on_c, 10, 74, 0
10, 61440, Note_on_c, 10, 76, 108
10, 61560, Note_on_c, 10, 76, 0
10, 61560, Note_on_c, 10, 72, 108
10, 61580, Note_on_c, 10, 72, 0
10, 61590, Note_on_c, 10, 67, 108
10, 61605, Note_on_c, 10, 67, 0
10, 61620, Note_on_c, 10, 69, 108
10, 61635, Note_on_c, 10, 69, 0
10, 61650, Note_on_c, 10, 71, 108
10, 61665, Note_on_c, 10, 71, 0
10, 61680, Note_on_c, 10, 72, 108
10, 61695, Note_on_c, 10, 72, 0
10, 61710, Note_on_c, 10, 74, 108
10, 61725, Note_on_c, 10, 74, 0
10, 61740, Note_on_c, 10, 76, 108
10, 61755, Note_on_c, 10, 76, 0
10, 61770, Note_on_c, 10, 77, 108
10, 61785, Note_on_c, 10, 77, 0
10, 61800, Note_on_c, 10, 79, 108
10, 61830, Note_on_c, 10, 79, 0
10, 61860, Note_on_c, 10, 79, 108
10, 61890, Note_on_c, 10, 79, 0
10, 61920, Note_on_c, 10, 76, 108
10, 61950, Note_on_c, 10, 76, 0
10, 61980, Note_on_c, 10, 72, 108
10, 62010, Note_on_c, 10, 72, 0
10, 62040, Note_on_c, 10, 74, 108
10, 62070, Note_on_c, 10, 74, 0
10, 62070, Note_on_c, 10, 72, 108
10, 62100, Note_on_c, 10, 72, 0
10, 62100, Note_on_c, 10, 71, 108
10, 62130, Note_on_c, 10, 71, 0
10, 62130, Note_on_c, 10, 72, 108
10, 62150, Note_on_c, 10, 72, 0
10, 62160, Note_on_c, 10, 69, 108
10, 62190, Note_on_c, 10, 69, 0
10, 62220, Note_on_c, 10, 74, 108
10, 62250, Note_on_c, 10, 74, 0
10, 62280, Note_on_c, 10, 76, 108
10, 62310, Note_on_c, 10, 76, 0
10, 62310, Note_on_c, 10, 74, 108
10, 62340, Note_on_c, 10, 74, 0
10, 62340, Note_on_c, 10, 73, 108
10, 62370, Note_on_c, 10, 73, 0
10, 62370, Note_on_c, 10, 74, 108
10, 62390, Note_on_c, 10, 74, 0
10, 62400, Note_on_c, 10, 67, 93
10, 62520, Note_on_c, 10, 67, 0
10, 62580, Note_on_c, 10, 67, 108
10, 62630, Note_on_c, 10, 67, 0
10, 62640, Note_on_c, 10, 79, 108
10, 62670, Note_on_c, 10, 79, 0
10, 62700, Note_on_c, 10, 79, 108
10, 62730, Note_on_c, 10, 79, 0
10, 62760, Note_on_c, 10, 79, 108
10, 62790, Note_on_c, 10, 79, 0
10, 62820, Note_on_c, 10, 79, 108
10, 62850, Note_on_c, 10, 79, 0
10, 62880, Note_on_c, 10, 79, 108
10, 63000, Note_on_c, 10, 79, 0
10, 63000, Note_on_c, 10, 77, 108
10, 63050, Note_on_c, 10, 77, 0
10, 63060, Note_on_c, 10, 77, 108
10, 63090, Note_on_c, 10, 77, 0
10, 63120, Note_on_c, 10, 77, 108
10, 63150, Note_on_c, 10, 77, 0
10, 63180, Note_on_c, 10, 77, 108
10, 63210, Note_on_c, 10, 77, 0
10, 63240, Note_on_c, 10, 77, 108
10, 63270, Note_on_c, 10, 77, 0
10, 63300, Note_on_c, 10, 77, 108
10, 63330, Note_on_c, 10, 77, 0
10, 63360, Note_on_c, 10, 77, 108
10, 63480, Note_on_c, 10, 77, 0
10, 63480, Note_on_c, 10, 76, 108
10, 63530, Note_on_c, 10, 76, 0
10, 63540, Note_on_c, 10, 76, 108
10, 63570, Note_on_c, 10, 76, 0
10, 63600, Note_on_c, 10, 76, 108
10, 63630, Note_on_c, 10, 76, 0
10, 63660, Note_on_c, 10, 76, 108
10, 63690, Note_on_c, 10, 76, 0
10, 63720, Note_on_c, 10, 76, 108
10, 63750, Note_on_c, 10, 76, 0
10, 63780, Note_on_c, 10, 76, 108
10, 63810, Note_on_c, 10, 76, 0
10, 63840, Note_on_c, 10, 74, 108
10, 63900, Note_on_c, 10, 74, 0
10, 63960, Note_on_c, 10, 77, 108
10, 64020, Note_on_c, 10, 77, 0
10, 64080, Note_on_c, 10, 72, 108
10, 64140, Note_on_c, 10, 72, 0
10, 64200, Note_on_c, 10, 71, 108
10, 64260, Note_on_c, 10, 71, 0
10, 64320, Note_on_c, 10, 72, 108
10, 64380, Note_on_c, 10, 72, 0
10, 64560, Control_c, 10, 11, 47
10, 64584, Control_c, 10, 11, 48
10, 64608, Control_c, 10, 11, 49
10, 64620, Note_on_c, 10, 81, 108
10, 64632, Control_c, 10, 11, 50
10, 64650, Note_on_c, 10, 81, 0
10, 64656, Control_c, 10, 11, 51
10, 64680, Note_on_c, 10, 83, 108
10, 64680, Control_c, 10, 11, 52
10, 64704, Control_c, 10, 11, 53
10, 64710, Note_on_c, 10, 83, 0
10, 64728, Control_c, 10, 11, 54
10, 64740, Note_on_c, 10, 85, 108
10, 64752, Control_c, 10, 11, 55
10, 64770, Note_on_c, 10, 85, 0
10, 64776, Control_c, 10, 11, 56
10, 64800, Note_on_c, 10, 86, 108
10, 64800, Control_c, 10, 11, 57
10, 64824, Control_c, 10, 11, 58
10, 64830, Note_on_c, 10, 86, 0
10, 64848, Control_c, 10, 11, 59
10, 64860, Note_on_c, 10, 88, 108
10, 64872, Control_c, 10, 11, 60
10, 64890, Note_on_c, 10, 88, 0
10, 64896, Control_c, 10, 11, 61
10, 64920, Note_on_c, 10, 89, 108
10, 64920, Control_c, 10, 11, 62
10, 64944, Control_c, 10, 11, 63
10, 64950, Note_on_c, 10, 89, 0
10, 64968, Control_c, 10, 11, 64
10, 64992, Control_c, 10, 11, 65
10, 65016, Control_c, 10, 11, 66
10, 65040, Control_c, 10, 11, 67
10, 65064, Control_c, 10, 11, 68
10, 65088, Control_c, 10, 11, 69
10, 65100, Note_on_c, 10, 79, 108
10, 65112, Control_c, 10, 11, 70
10, 65130, Note_on_c, 10, 79, 0
10, 65136, Control_c, 10, 11, 71
10, 65160, Note_on_c, 10, 81, 108
10, 65160, Control_c, 10, 11, 72
10, 65184, Control_c, 10, 11, 73
10, 65190, Note_on_c, 10, 81, 0
10, 65208, Control_c, 10, 11, 74
10, 65220, Note_on_c, 10, 83, 108
10, 65232, Control_c, 10, 11, 75
10, 65250, Note_on_c, 10, 83, 0
10, 65256, Control_c, 10, 11, 76
10, 65280, Note_on_c, 10, 84, 108
10, 65280, Control_c, 10, 11, 77
10, 65304, Control_c, 10, 11, 78
10, 65310, Note_on_c, 10, 84, 0
10, 65328, Control_c, 10, 11, 79
10, 65340, Note_on_c, 10, 86, 108
10, 65352, Control_c, 10, 11, 80
10, 65370, Note_on_c, 10, 86, 0
10, 65376, Control_c, 10, 11, 81
10, 65400, Control_c, 10, 11, 82
10, 65400, Note_on_c, 10, 88, 108
10, 65424, Control_c, 10, 11, 83
10, 65430, Note_on_c, 10, 88, 0
10, 65448, Control_c, 10, 11, 84
10, 65460, Note_on_c, 10, 84, 108
10, 65472, Control_c, 10, 11, 85
10, 65496, Control_c, 10, 11, 86
10, 65510, Note_on_c, 10, 84, 0
10, 65520, Control_c, 10, 11, 87
10, 65520, Note_on_c, 10, 84, 108
10, 65550, Note_on_c, 10, 84, 0
10, 65580, Note_on_c, 10, 84, 108
10, 65610, Note_on_c, 10, 84, 0
10, 65640, Note_on_c, 10, 84, 108
10, 65670, Note_on_c, 10, 84, 0
10, 65700, Note_on_c, 10, 84, 108
10, 65730, Note_on_c, 10, 84, 0
10, 65760, Note_on_c, 10, 84, 108
10, 65880, Note_on_c, 10, 84, 0
10, 65880, Note_on_c, 10, 82, 108
10, 65930, Note_on_c, 10, 82, 0
10, 65940, Note_on_c, 10, 82, 108
10, 65970, Note_on_c, 10, 82, 0
10, 66000, Note_on_c, 10, 82, 108
10, 66030, Note_on_c, 10, 82, 0
10, 66060, Note_on_c, 10, 82, 108
10, 66090, Note_on_c, 10, 82, 0
10, 66120, Note_on_c, 10, 82, 108
10, 66150, Note_on_c, 10, 82, 0
10, 66180, Note_on_c, 10, 82, 108
10, 66210, Note_on_c, 10, 82, 0
10, 66240, Note_on_c, 10, 82, 108
10, 66360, Note_on_c, 10, 82, 0
10, 66360, Note_on_c, 10, 81, 108
10, 66410, Note_on_c, 10, 81, 0
10, 66420, Note_on_c, 10, 81, 108
10, 66450, Note_on_c, 10, 81, 0
10, 66480, Note_on_c, 10, 81, 108
10, 66510, Note_on_c, 10, 81, 0
10, 66540, Note_on_c, 10, 81, 108
10, 66570, Note_on_c, 10, 81, 0
10, 66600, Note_on_c, 10, 81, 108
10, 66630, Note_on_c, 10, 81, 0
10, 66660, Note_on_c, 10, 81, 108
10, 66690, Note_on_c, 10, 81, 0
10, 66720, Note_on_c, 10, 79, 108
10, 66750, Note_on_c, 10, 79, 0
10, 66780, Note_on_c, 10, 86, 108
10, 66810, Note_on_c, 10, 86, 0
10, 66810, Note_on_c, 10, 84, 108
10, 66840, Note_on_c, 10, 84, 0
10, 66840, Note_on_c, 10, 82, 108
10, 66870, Note_on_c, 10, 82, 0
10, 66870, Note_on_c, 10, 81, 108
10, 66900, Note_on_c, 10, 81, 0
10, 66900, Note_on_c, 10, 79, 108
10, 66930, Note_on_c, 10, 79, 0
10, 66930, Note_on_c, 10, 78, 108
10, 66950, Note_on_c, 10, 78, 0
10, 66960, Note_on_c, 10, 79, 108
10, 66990, Note_on_c, 10, 79, 0
10, 67020, Note_on_c, 10, 86, 108
10, 67050, Note_on_c, 10, 86, 0
10, 67050, Note_on_c, 10, 84, 108
10, 67080, Note_on_c, 10, 84, 0
10, 67080, Note_on_c, 10, 83, 108
10, 67110, Note_on_c, 10, 83, 0
10, 67110, Note_on_c, 10, 81, 108
10, 67140, Note_on_c, 10, 81, 0
10, 67140, Note_on_c, 10, 79, 108
10, 67170, Note_on_c, 10, 79, 0
10, 67170, Note_on_c, 10, 77, 108
10, 67190, Note_on_c, 10, 77, 0
10, 67200, Control_c, 10, 11, 87
10, 67200, Note_on_c, 10, 76, 108
10, 67220, Note_on_c, 10, 76, 0
10, 67224, Control_c, 10, 11, 85
10, 67230, Note_on_c, 10, 76, 108
10, 67248, Control_c, 10, 11, 83
10, 67250, Note_on_c, 10, 76, 0
10, 67260, Note_on_c, 10, 71, 108
10, 67272, Control_c, 10, 11, 81
10, 67280, Note_on_c, 10, 71, 0
10, 67290, Note_on_c, 10, 71, 108
10, 67296, Control_c, 10, 11, 79
10, 67310, Note_on_c, 10, 71, 0
10, 67320, Note_on_c, 10, 72, 108
10, 67320, Control_c, 10, 11, 77
10, 67340, Note_on_c, 10, 72, 0
10, 67344, Control_c, 10, 11, 75
10, 67350, Note_on_c, 10, 72, 108
10, 67368, Control_c, 10, 11, 73
10, 67370, Note_on_c, 10, 72, 0
10, 67380, Note_on_c, 10, 71, 108
10, 67392, Control_c, 10, 11, 71
10, 67400, Note_on_c, 10, 71, 0
10, 67410, Note_on_c, 10, 71, 108
10, 67416, Control_c, 10, 11, 69
10, 67430, Note_on_c, 10, 71, 0
10, 67440, Note_on_c, 10, 72, 108
10, 67440, Control_c, 10, 11, 67
10, 67460, Note_on_c, 10, 72, 0
10, 67464, Control_c, 10, 11, 65
10, 67470, Note_on_c, 10, 72, 108
10, 67488, Control_c, 10, 11, 63
10, 67490, Note_on_c, 10, 72, 0
10, 67500, Note_on_c, 10, 71, 108
10, 67512, Control_c, 10, 11, 61
10, 67520, Note_on_c, 10, 71, 0
10, 67530, Note_on_c, 10, 71, 108
10, 67536, Control_c, 10, 11, 59
10, 67550, Note_on_c, 10, 71, 0
10, 67560, Note_on_c, 10, 72, 108
10, 67560, Control_c, 10, 11, 57
10, 67580, Note_on_c, 10, 72, 0
10, 67584, Control_c, 10, 11, 55
10, 67590, Note_on_c, 10, 72, 108
10, 67608, Control_c, 10, 11, 53
10, 67610, Note_on_c, 10, 72, 0
10, 67620, Note_on_c, 10, 71, 108
10, 67632, Control_c, 10, 11, 51
10, 67640, Note_on_c, 10, 71, 0
10, 67650, Note_on_c, 10, 71, 108
10, 67656, Control_c, 10, 11, 49
10, 67670, Note_on_c, 10, 71, 0
10, 67680, Note_on_c, 10, 72, 108
10, 67680, Control_c, 10, 11, 47
10, 67850, Note_on_c, 10, 72, 0
10, 67860, Note_on_c, 10, 77, 108
10, 67920, Note_on_c, 10, 77, 0
10, 67920, Note_on_c, 10, 76, 118
10, 67950, Note_on_c, 10, 76, 0
10, 67980, Note_on_c, 10, 76, 108
10, 68010, Note_on_c, 10, 76, 0
10, 68100, Note_on_c, 10, 79, 108
10, 68160, Note_on_c, 10, 79, 0
10, 68160, Note_on_c, 10, 77, 118
10, 68190, Note_on_c, 10, 77, 0
10, 68220, Note_on_c, 10, 77, 108
10, 68250, Note_on_c, 10, 77, 0
10, 68340, Note_on_c, 10, 81, 108
10, 68400, Note_on_c, 10, 81, 0
10, 68400, Note_on_c, 10, 79, 118
10, 68430, Note_on_c, 10, 79, 0
10, 68460, Note_on_c, 10, 76, 108
10, 68490, Note_on_c, 10, 76, 0
10, 68520, Note_on_c, 10, 72, 108
10, 68550, Note_on_c, 10, 72, 0
10, 68580, Note_on_c, 10, 70, 108
10, 68610, Note_on_c, 10, 70, 0
10, 68640, Note_on_c, 10, 69, 108
10, 68700, Note_on_c, 10, 69, 0
10, 68700, Note_on_c, 10, 72, 108
10, 68760, Note_on_c, 10, 72, 0
10, 68820, Note_on_c, 10, 77, 108
10, 68850, Note_on_c, 10, 77, 0
10, 68880, Note_on_c, 10, 77, 118
10, 68940, Note_on_c, 10, 77, 0
10, 68940, Note_on_c, 10, 76, 108
10, 69000, Note_on_c, 10, 76, 0
10, 69060, Note_on_c, 10, 79, 108
10, 69090, Note_on_c, 10, 79, 0
10, 69120, Note_on_c, 10, 79, 118
10, 69180, Note_on_c, 10, 79, 0
10, 69180, Note_on_c, 10, 77, 108
10, 69240, Note_on_c, 10, 77, 0
10, 69300, Note_on_c, 10, 81, 108
10, 69330, Note_on_c, 10, 81, 0
10, 69360, Note_on_c, 10, 81, 118
10, 69420, Note_on_c, 10, 81, 0
10, 69420, Note_on_c, 10, 79, 108
10, 69470, Note_on_c, 10, 79, 0
10, 69480, Note_on_c, 10, 79, 108
10, 69540, Note_on_c, 10, 79, 0
10, 69540, Note_on_c, 10, 77, 108
10, 69590, Note_on_c, 10, 77, 0
10, 69600, Note_on_c, 10, 76, 108
10, 69660, Note_on_c, 10, 76, 0
10, 69660, Note_on_c, 10, 79, 108
10, 69720, Note_on_c, 10, 79, 0
10, 69780, Note_on_c, 10, 84, 108
10, 69810, Note_on_c, 10, 84, 0
10, 69840, Note_on_c, 10, 84, 118
10, 69900, Note_on_c, 10, 84, 0
10, 69900, Note_on_c, 10, 83, 108
10, 69960, Note_on_c, 10, 83, 0
10, 70020, Note_on_c, 10, 86, 108
10, 70050, Note_on_c, 10, 86, 0
10, 70080, Note_on_c, 10, 86, 118
10, 70140, Note_on_c, 10, 86, 0
10, 70140, Note_on_c, 10, 84, 108
10, 70200, Note_on_c, 10, 84, 0
10, 70260, Note_on_c, 10, 88, 108
10, 70320, Note_on_c, 10, 88, 0
10, 70320, Note_on_c, 10, 86, 118
10, 70350, Note_on_c, 10, 86, 0
10, 70380, Note_on_c, 10, 83, 108
10, 70410, Note_on_c, 10, 83, 0
10, 70440, Note_on_c, 10, 79, 108
10, 70470, Note_on_c, 10, 79, 0
10, 70500, Note_on_c, 10, 77, 108
10, 70530, Note_on_c, 10, 77, 0
10, 70560, Note_on_c, 10, 76, 108
10, 70560, Control_c, 10, 11, 47
10, 70596, Control_c, 10, 11, 48
10, 70620, Note_on_c, 10, 76, 0
10, 70620, Note_on_c, 10, 79, 108
10, 70632, Control_c, 10, 11, 49
10, 70668, Control_c, 10, 11, 50
10, 70670, Note_on_c, 10, 79, 0
10, 70680, Note_on_c, 10, 79, 108
10, 70704, Control_c, 10, 11, 51
10, 70710, Note_on_c, 10, 79, 0
10, 70740, Control_c, 10, 11, 52
10, 70740, Note_on_c, 10, 84, 108
10, 70770, Note_on_c, 10, 84, 0
10, 70776, Control_c, 10, 11, 53
10, 70800, Note_on_c, 10, 84, 118
10, 70812, Control_c, 10, 11, 54
10, 70848, Control_c, 10, 11, 55
10, 70860, Note_on_c, 10, 84, 0
10, 70860, Note_on_c, 10, 83, 108
10, 70884, Control_c, 10, 11, 56
10, 70910, Note_on_c, 10, 83, 0
10, 70920, Control_c, 10, 11, 57
10, 70920, Note_on_c, 10, 83, 108
10, 70950, Note_on_c, 10, 83, 0
10, 70956, Control_c, 10, 11, 58
10, 70980, Note_on_c, 10, 86, 108
10, 70992, Control_c, 10, 11, 59
10, 71010, Note_on_c, 10, 86, 0
10, 71028, Control_c, 10, 11, 60
10, 71040, Note_on_c, 10, 86, 118
10, 71064, Control_c, 10, 11, 61
10, 71100, Note_on_c, 10, 86, 0
10, 71100, Note_on_c, 10, 84, 108
10, 71100, Control_c, 10, 11, 62
10, 71136, Control_c, 10, 11, 63
10, 71150, Note_on_c, 10, 84, 0
10, 71160, Note_on_c, 10, 84, 108
10, 71172, Control_c, 10, 11, 64
10, 71190, Note_on_c, 10, 84, 0
10, 71208, Control_c, 10, 11, 65
10, 71220, Note_on_c, 10, 76, 108
10, 71244, Control_c, 10, 11, 66
10, 71250, Note_on_c, 10, 76, 0
10, 71280, Control_c, 10, 11, 67
10, 71280, Note_on_c, 10, 76, 118
10, 71316, Control_c, 10, 11, 68
10, 71340, Note_on_c, 10, 76, 0
10, 71340, Note_on_c, 10, 74, 108
10, 71352, Control_c, 10, 11, 69
10, 71388, Control_c, 10, 11, 70
10, 71390, Note_on_c, 10, 74, 0
10, 71400, Note_on_c, 10, 74, 108
10, 71424, Control_c, 10, 11, 71
10, 71430, Note_on_c, 10, 74, 0
10, 71460, Note_on_c, 10, 77, 108
10, 71460, Control_c, 10, 11, 72
10, 71490, Note_on_c, 10, 77, 0
10, 71496, Control_c, 10, 11, 73
10, 71520, Note_on_c, 10, 77, 118
10, 71532, Control_c, 10, 11, 74
10, 71568, Control_c, 10, 11, 75
10, 71580, Note_on_c, 10, 77, 0
10, 71580, Note_on_c, 10, 76, 108
10, 71604, Control_c, 10, 11, 76
10, 71630, Note_on_c, 10, 76, 0
10, 71640, Note_on_c, 10, 76, 108
10, 71640, Control_c, 10, 11, 77
10, 71670, Note_on_c, 10, 76, 0
10, 71676, Control_c, 10, 11, 78
10, 71700, Note_on_c, 10, 79, 108
10, 71712, Control_c, 10, 11, 79
10, 71730, Note_on_c, 10, 79, 0
10, 71748, Control_c, 10, 11, 80
10, 71760, Note_on_c, 10, 79, 118
10, 71784, Control_c, 10, 11, 81
10, 71820, Note_on_c, 10, 79, 0
10, 71820, Control_c, 10, 11, 82
10, 71820, Note_on_c, 10, 77, 108
10, 71856, Control_c, 10, 11, 83
10, 71870, Note_on_c, 10, 77, 0
10, 71880, Note_on_c, 10, 77, 108
10, 71892, Control_c, 10, 11, 84
10, 71910, Note_on_c, 10, 77, 0
10, 71928, Control_c, 10, 11, 85
10, 71940, Note_on_c, 10, 81, 108
10, 71964, Control_c, 10, 11, 86
10, 71970, Note_on_c, 10, 81, 0
10, 72000, Control_c, 10, 11, 92
10, 72000, Note_on_c, 10, 82, 108
10, 72004, Control_c, 10, 11, 95
10, 72008, Control_c, 10, 11, 98
10, 72012, Control_c, 10, 11, 101
10, 72026, Control_c, 10, 11, 98
10, 72035, Control_c, 10, 11, 95
10, 72044, Control_c, 10, 11, 92
10, 72053, Control_c, 10, 11, 89
10, 72220, Note_on_c, 10, 82, 0
10, 72230, Control_c, 10, 11, 92
10, 72240, Note_on_c, 10, 73, 108
10, 72241, Control_c, 10, 11, 95
10, 72253, Control_c, 10, 11, 98
10, 72265, Control_c, 10, 11, 101
10, 72281, Control_c, 10, 11, 100
10, 72299, Control_c, 10, 11, 97
10, 72317, Control_c, 10, 11, 94
10, 72335, Control_c, 10, 11, 91
10, 72353, Control_c, 10, 11, 88
10, 72460, Note_on_c, 10, 73, 0
10, 72480, Note_on_c, 10, 74, 108
10, 72480, Control_c, 10, 11, 92
10, 72488, Control_c, 10, 11, 95
10, 72497, Control_c, 10, 11, 98
10, 72506, Control_c, 10, 11, 101
10, 72521, Control_c, 10, 11, 100
10, 72539, Control_c, 10, 11, 97
10, 72557, Control_c, 10, 11, 94
10, 72575, Control_c, 10, 11, 91
10, 72593, Control_c, 10, 11, 88
10, 72700, Note_on_c, 10, 74, 0
10, 72720, Note_on_c, 10, 75, 108
10, 72720, Control_c, 10, 11, 92
10, 72728, Control_c, 10, 11, 95
10, 72737, Control_c, 10, 11, 98
10, 72746, Control_c, 10, 11, 101
10, 72761, Control_c, 10, 11, 100
10, 72779, Control_c, 10, 11, 97
10, 72797, Control_c, 10, 11, 94
10, 72815, Control_c, 10, 11, 91
10, 72833, Control_c, 10, 11, 88
10, 72940, Note_on_c, 10, 75, 0
10, 72960, Note_on_c, 10, 76, 108
10, 72980, Note_on_c, 10, 76, 0
10, 72990, Note_on_c, 10, 76, 108
10, 73010, Note_on_c, 10, 76, 0
10, 73020, Note_on_c, 10, 76, 108
10, 73040, Note_on_c, 10, 76, 0
10, 73050, Note_on_c, 10, 76, 108
10, 73070, Note_on_c, 10, 76, 0
10, 73080, Control_c, 10, 11, 102
10, 73080, Note_on_c, 10, 77, 108
10, 73100, Note_on_c, 10, 77, 0
10, 73110, Note_on_c, 10, 77, 108
10, 73130, Note_on_c, 10, 77, 0
10, 73140, Note_on_c, 10, 77, 108
10, 73160, Note_on_c, 10, 77, 0
10, 73170, Note_on_c, 10, 77, 108
10, 73190, Note_on_c, 10, 77, 0
10, 73200, Note_on_c, 10, 77, 108
10, 73220, Note_on_c, 10, 77, 0
10, 73230, Note_on_c, 10, 77, 108
10, 73250, Note_on_c, 10, 77, 0
10, 73260, Note_on_c, 10, 77, 108
10, 73280, Note_on_c, 10, 77, 0
10, 73290, Note_on_c, 10, 77, 108
10, 73310, Note_on_c, 10, 77, 0
10, 73320, Note_on_c, 10, 77, 108
10, 73340, Note_on_c, 10, 77, 0
10, 73350, Note_on_c, 10, 77, 108
10, 73370, Note_on_c, 10, 77, 0
10, 73380, Note_on_c, 10, 77, 108
10, 73400, Note_on_c, 10, 77, 0
10, 73410, Note_on_c, 10, 77, 108
10, 73430, Note_on_c, 10, 77, 0
10, 73440, Note_on_c, 10, 76, 108
10, 73460, Note_on_c, 10, 76, 0
10, 73470, Note_on_c, 10, 76, 108
10, 73490, Note_on_c, 10, 76, 0
10, 73500, Note_on_c, 10, 76, 108
10, 73520, Note_on_c, 10, 76, 0
10, 73530, Note_on_c, 10, 76, 108
10, 73550, Note_on_c, 10, 76, 0
10, 73560, Note_on_c, 10, 74, 108
10, 73580, Note_on_c, 10, 74, 0
10, 73590, Note_on_c, 10, 74, 108
10, 73610, Note_on_c, 10, 74, 0
10, 73620, Note_on_c, 10, 74, 108
10, 73640, Note_on_c, 10, 74, 0
10, 73650, Note_on_c, 10, 74, 108
10, 73670, Note_on_c, 10, 74, 0
10, 73680, Note_on_c, 10, 72, 108
10, 73700, Note_on_c, 10, 72, 0
10, 73710, Note_on_c, 10, 72, 108
10, 73730, Note_on_c, 10, 72, 0
10, 73740, Note_on_c, 10, 72, 108
10, 73760, Note_on_c, 10, 72, 0
10, 73770, Note_on_c, 10, 72, 108
10, 73790, Note_on_c, 10, 72, 0
10, 73800, Note_on_c, 10, 71, 108
10, 73820, Note_on_c, 10, 71, 0
10, 73830, Note_on_c, 10, 71, 108
10, 73850, Note_on_c, 10, 71, 0
10, 73860, Note_on_c, 10, 71, 108
10, 73880, Note_on_c, 10, 71, 0
10, 73890, Note_on_c, 10, 71, 108
10, 73910, Note_on_c, 10, 71, 0
10, 73920, Note_on_c, 10, 72, 108
10, 73980, Note_on_c, 10, 72, 0
10, 74220, Note_on_c, 10, 81, 108
10, 74220, Control_c, 10, 11, 122
10, 74220, Note_on_c, 10, 72, 108
10, 74237, Control_c, 10, 11, 119
10, 74255, Control_c, 10, 11, 116
10, 74273, Control_c, 10, 11, 113
10, 74291, Control_c, 10, 11, 110
10, 74309, Control_c, 10, 11, 107
10, 74320, Note_on_c, 10, 72, 0
10, 74320, Note_on_c, 10, 81, 0
10, 74327, Control_c, 10, 11, 104
10, 74340, Note_on_c, 10, 81, 108
10, 74340, Note_on_c, 10, 72, 108
10, 74390, Note_on_c, 10, 72, 0
10, 74390, Note_on_c, 10, 81, 0
10, 74400, Note_on_c, 10, 79, 108
10, 74400, Note_on_c, 10, 72, 108
10, 74460, Note_on_c, 10, 72, 0
10, 74460, Note_on_c, 10, 79, 0
10, 74700, Note_on_c, 10, 83, 108
10, 74700, Control_c, 10, 11, 122
10, 74700, Note_on_c, 10, 74, 108
10, 74717, Control_c, 10, 11, 119
10, 74735, Control_c, 10, 11, 116
10, 74753, Control_c, 10, 11, 113
10, 74771, Control_c, 10, 11, 110
10, 74789, Control_c, 10, 11, 107
10, 74800, Note_on_c, 10, 74, 0
10, 74800, Note_on_c, 10, 83, 0
10, 74807, Control_c, 10, 11, 104
10, 74820, Note_on_c, 10, 83, 108
10, 74820, Note_on_c, 10, 74, 108
10, 74870, Note_on_c, 10, 74, 0
10, 74870, Note_on_c, 10, 83, 0
10, 74880, Note_on_c, 10, 76, 108
10, 74880, Note_on_c, 10, 84, 108
10, 74940, Note_on_c, 10, 84, 0
10, 74940, Note_on_c, 10, 76, 0
10, 75180, Note_on_c, 10, 81, 108
10, 75180, Control_c, 10, 11, 122
10, 75180, Note_on_c, 10, 72, 108
10, 75197, Control_c, 10, 11, 119
10, 75215, Control_c, 10, 11, 116
10, 75233, Control_c, 10, 11, 113
10, 75251, Control_c, 10, 11, 110
10, 75269, Control_c, 10, 11, 107
10, 75280, Note_on_c, 10, 72, 0
10, 75280, Note_on_c, 10, 81, 0
10, 75287, Control_c, 10, 11, 104
10, 75300, Note_on_c, 10, 72, 108
10, 75300, Note_on_c, 10, 81, 108
10, 75350, Note_on_c, 10, 81, 0
10, 75350, Note_on_c, 10, 72, 0
10, 75360, Note_on_c, 10, 79, 108
10, 75360, Note_on_c, 10, 72, 108
10, 75420, Note_on_c, 10, 72, 0
10, 75420, Note_on_c, 10, 79, 0
10, 75660, Note_on_c, 10, 83, 108
10, 75660, Note_on_c, 10, 74, 108
10, 75660, Control_c, 10, 11, 122
10, 75677, Control_c, 10, 11, 119
10, 75695, Control_c, 10, 11, 116
10, 75713, Control_c, 10, 11, 113
10, 75731, Control_c, 10, 11, 110
10, 75749, Control_c, 10, 11, 107
10, 75760, Note_on_c, 10, 74, 0
10, 75760, Note_on_c, 10, 83, 0
10, 75767, Control_c, 10, 11, 104
10, 75780, Note_on_c, 10, 74, 108
10, 75780, Note_on_c, 10, 83, 108
10, 75830, Note_on_c, 10, 83, 0
10, 75830, Note_on_c, 10, 74, 0
10, 75840, Note_on_c, 10, 76, 108
10, 75840, Note_on_c, 10, 84, 108
10, 75960, Note_on_c, 10, 84, 0
10, 75960, Note_on_c, 10, 76, 0
10, 75990, Note_on_c, 10, 60, 108
10, 76005, Note_on_c, 10, 60, 0
10, 76020, Note_on_c, 10, 62, 108
10, 76035, Note_on_c, 10, 62, 0
10, 76050, Note_on_c, 10, 64, 108
10, 76065, Note_on_c, 10, 64, 0
10, 76080, Note_on_c, 10, 65, 108
10, 76095, Note_on_c, 10, 65, 0
10, 76110, Note_on_c, 10, 67, 108
10, 76125, Note_on_c, 10, 67, 0
10, 76140, Note_on_c, 10, 69, 108
10, 76155, Note_on_c, 10, 69, 0
10, 76170, Note_on_c, 10, 71, 108
10, 76185, Note_on_c, 10, 71, 0
10, 76200, Note_on_c, 10, 72, 108
10, 76230, Note_on_c, 10, 72, 0
10, 76260, Note_on_c, 10, 72, 108
10, 76290, Note_on_c, 10, 72, 0
10, 76320, Note_on_c, 10, 74, 108
10, 76320, Control_c, 10, 11, 122
10, 76337, Control_c, 10, 11, 119
10, 76355, Control_c, 10, 11, 116
10, 76373, Control_c, 10, 11, 113
10, 76391, Control_c, 10, 11, 110
10, 76409, Control_c, 10, 11, 107
10, 76427, Control_c, 10, 11, 104
10, 76460, Note_on_c, 10, 74, 0
10, 76470, Note_on_c, 10, 62, 108
10, 76485, Note_on_c, 10, 62, 0
10, 76500, Note_on_c, 10, 64, 108
10, 76515, Note_on_c, 10, 64, 0
10, 76530, Note_on_c, 10, 65, 108
10, 76545, Note_on_c, 10, 65, 0
10, 76560, Note_on_c, 10, 67, 108
10, 76575, Note_on_c, 10, 67, 0
10, 76590, Note_on_c, 10, 69, 108
10, 76605, Note_on_c, 10, 69, 0
10, 76620, Note_on_c, 10, 71, 108
10, 76635, Note_on_c, 10, 71, 0
10, 76650, Note_on_c, 10, 72, 108
10, 76665, Note_on_c, 10, 72, 0
10, 76680, Note_on_c, 10, 74, 108
10, 76710, Note_on_c, 10, 74, 0
10, 76740, Note_on_c, 10, 74, 108
10, 76770, Note_on_c, 10, 74, 0
10, 76800, Control_c, 10, 11, 97
10, 76800, Note_on_c, 10, 76, 108
10, 76940, Note_on_c, 10, 76, 0
10, 76950, Note_on_c, 10, 64, 108
10, 76965, Note_on_c, 10, 64, 0
10, 76980, Note_on_c, 10, 65, 108
10, 76995, Note_on_c, 10, 65, 0
10, 77010, Note_on_c, 10, 67, 108
10, 77025, Note_on_c, 10, 67, 0
10, 77040, Note_on_c, 10, 69, 108
10, 77055, Note_on_c, 10, 69, 0
10, 77070, Note_on_c, 10, 71, 108
10, 77085, Note_on_c, 10, 71, 0
10, 77100, Note_on_c, 10, 72, 108
10, 77115, Note_on_c, 10, 72, 0
10, 77130, Note_on_c, 10, 74, 108
10, 77145, Note_on_c, 10, 74, 0
10, 77160, Note_on_c, 10, 76, 108
10, 77190, Note_on_c, 10, 76, 0
10, 77220, Note_on_c, 10, 76, 108
10, 77250, Note_on_c, 10, 76, 0
10, 77280, Note_on_c, 10, 77, 108
10, 77480, Note_on_c, 10, 77, 0
10, 77490, Note_on_c, 10, 77, 108
10, 77510, Note_on_c, 10, 77, 0
10, 77520, Note_on_c, 10, 78, 108
10, 77520, Control_c, 10, 11, 122
10, 77529, Control_c, 10, 11, 119
10, 77538, Control_c, 10, 11, 116
10, 77547, Control_c, 10, 11, 113
10, 77556, Control_c, 10, 11, 110
10, 77565, Control_c, 10, 11, 107
10, 77574, Control_c, 10, 11, 104
10, 77720, Note_on_c, 10, 78, 0
10, 77730, Note_on_c, 10, 78, 108
10, 77750, Note_on_c, 10, 78, 0
10, 77760, Note_on_c, 10, 79, 108
10, 77820, Note_on_c, 10, 79, 0
10, 77880, Note_on_c, 10, 81, 108
10, 77880, Control_c, 10, 11, 117
10, 77897, Control_c, 10, 11, 120
10, 77915, Control_c, 10, 11, 121
10, 77933, Control_c, 10, 11, 118
10, 77951, Control_c, 10, 11, 115
10, 77969, Control_c, 10, 11, 112
10, 77987, Control_c, 10, 11, 109
10, 78195, Control_c, 10, 11, 102
10, 78196, Control_c, 10, 11, 99
10, 78198, Control_c, 10, 11, 95
10, 78199, Control_c, 10, 11, 92
10, 78201, Control_c, 10, 11, 88
10, 78202, Control_c, 10, 11, 85
10, 78204, Control_c, 10, 11, 81
10, 78205, Control_c, 10, 11, 78
10, 78207, Note_on_c, 10, 81, 0
10, 78207, Control_c, 10, 11, 74
10, 78208, Control_c, 10, 11, 71
10, 78210, Control_c, 10, 11, 67
10, 78240, Note_on_c, 10, 83, 108
10, 78240, Control_c, 10, 11, 102
10, 78300, Note_on_c, 10, 83, 0
10, 78360, Note_on_c, 10, 86, 108
10, 78360, Control_c, 10, 11, 117
10, 78377, Control_c, 10, 11, 120
10, 78395, Control_c, 10, 11, 121
10, 78413, Control_c, 10, 11, 118
10, 78431, Control_c, 10, 11, 115
10, 78449, Control_c, 10, 11, 112
10, 78467, Control_c, 10, 11, 109
10, 78610, Control_c, 10, 11, 102
10, 78612, Control_c, 10, 11, 98
10, 78614, Control_c, 10, 11, 95
10, 78616, Control_c, 10, 11, 91
10, 78618, Control_c, 10, 11, 88
10, 78620, Control_c, 10, 11, 84
10, 78622, Control_c, 10, 11, 81
10, 78624, Control_c, 10, 11, 77
10, 78626, Control_c, 10, 11, 74
10, 78628, Control_c, 10, 11, 70
10, 78630, Note_on_c, 10, 86, 0
10, 78630, Control_c, 10, 11, 67
10, 78900, Note_on_c, 10, 67, 108
10, 78900, Control_c, 10, 11, 47
10, 78930, Note_on_c, 10, 67, 0
10, 78930, Note_on_c, 10, 69, 108
10, 78960, Note_on_c, 10, 69, 0
10, 78960, Note_on_c, 10, 71, 108
10, 78990, Note_on_c, 10, 71, 0
10, 78990, Note_on_c, 10, 72, 108
10, 79020, Note_on_c, 10, 72, 0
10, 79020, Note_on_c, 10, 74, 108
10, 79050, Note_on_c, 10, 74, 0
10, 79050, Note_on_c, 10, 76, 108
10, 79080, Note_on_c, 10, 76, 0
10, 79080, Note_on_c, 10, 77, 108
10, 79110, Note_on_c, 10, 77, 0
10, 79380, Control_c, 10, 11, 37
10, 79380, Note_on_c, 10, 67, 108
10, 79410, Note_on_c, 10, 67, 0
10, 79410, Note_on_c, 10, 69, 108
10, 79440, Note_on_c, 10, 69, 0
10, 79440, Note_on_c, 10, 71, 108
10, 79470, Note_on_c, 10, 71, 0
10, 79470, Note_on_c, 10, 72, 108
10, 79500, Note_on_c, 10, 72, 0
10, 79500, Note_on_c, 10, 74, 108
10, 79530, Note_on_c, 10, 74, 0
10, 79530, Note_on_c, 10, 76, 108
10, 79560, Note_on_c, 10, 76, 0
10, 79560, Note_on_c, 10, 77, 108
10, 79590, Note_on_c, 10, 77, 0
10, 79620, Note_on_c, 10, 67, 108
10, 79650, Note_on_c, 10, 67, 0
10, 79650, Note_on_c, 10, 69, 108
10, 79680, Note_on_c, 10, 69, 0
10, 79680, Note_on_c, 10, 71, 108
10, 79710, Note_on_c, 10, 71, 0
10, 79710, Note_on_c, 10, 72, 108
10, 79740, Note_on_c, 10, 72, 0
10, 79740, Note_on_c, 10, 74, 108
10, 79770, Note_on_c, 10, 74, 0
10, 79770, Note_on_c, 10, 76, 108
10, 79800, Note_on_c, 10, 76, 0
10, 79800, Note_on_c, 10, 77, 108
10, 79815, Note_on_c, 10, 77, 0
10, 79830, Control_c, 10, 11, 47
10, 79830, Note_on_c, 10, 67, 108
10, 79845, Note_on_c, 10, 67, 0
10, 79860, Note_on_c, 10, 69, 108
10, 79875, Note_on_c, 10, 69, 0
10, 79890, Note_on_c, 10, 71, 108
10, 79905, Note_on_c, 10, 71, 0
10, 79920, Note_on_c, 10, 72, 108
10, 79935, Note_on_c, 10, 72, 0
10, 79950, Note_on_c, 10, 74, 108
10, 79965, Note_on_c, 10, 74, 0
10, 79980, Note_on_c, 10, 76, 108
10, 79995, Note_on_c, 10, 76, 0
10, 80010, Note_on_c, 10, 77, 108
10, 80025, Note_on_c, 10, 77, 0
10, 80040, Note_on_c, 10, 79, 108
10, 80070, Note_on_c, 10, 79, 0
10, 80100, Note_on_c, 10, 79, 108
10, 80130, Note_on_c, 10, 79, 0
10, 80160, Note_on_c, 10, 76, 108
10, 80280, Note_on_c, 10, 76, 0
10, 80280, Note_on_c, 10, 72, 108
10, 80340, Note_on_c, 10, 72, 0
10, 80340, Note_on_c, 10, 72, 108
10, 80370, Note_on_c, 10, 72, 0
10, 80400, Note_on_c, 10, 74, 108
10, 80430, Note_on_c, 10, 74, 0
10, 80460, Note_on_c, 10, 74, 108
10, 80490, Note_on_c, 10, 74, 0
10, 80490, Control_c, 10, 11, 47
10, 80510, Control_c, 10, 11, 50
10, 80520, Note_on_c, 10, 76, 108
10, 80532, Control_c, 10, 11, 53
10, 80550, Note_on_c, 10, 76, 0
10, 80550, Note_on_c, 10, 74, 108
10, 80555, Control_c, 10, 11, 56
10, 80577, Control_c, 10, 11, 59
10, 80580, Note_on_c, 10, 74, 0
10, 80580, Note_on_c, 10, 72, 108
10, 80600, Control_c, 10, 11, 62
10, 80610, Note_on_c, 10, 72, 0
10, 80610, Note_on_c, 10, 74, 108
10, 80622, Control_c, 10, 11, 65
10, 80630, Note_on_c, 10, 74, 0
10, 80640, Note_on_c, 10, 76, 93
10, 80640, Control_c, 10, 11, 87
10, 80760, Note_on_c, 10, 76, 0
10, 80760, Note_on_c, 10, 72, 108
10, 80780, Note_on_c, 10, 72, 0
10, 80790, Note_on_c, 10, 67, 108
10, 80805, Note_on_c, 10, 67, 0
10, 80820, Note_on_c, 10, 69, 108
10, 80835, Note_on_c, 10, 69, 0
10, 80850, Note_on_c, 10, 71, 108
10, 80865, Note_on_c, 10, 71, 0
10, 80880, Note_on_c, 10, 72, 108
10, 80895, Note_on_c, 10, 72, 0
10, 80910, Note_on_c, 10, 74, 108
10, 80925, Note_on_c, 10, 74, 0
10, 80940, Note_on_c, 10, 76, 108
10, 80955, Note_on_c, 10, 76, 0
10, 80970, Note_on_c, 10, 77, 108
10, 80985, Note_on_c, 10, 77, 0
10, 81000, Note_on_c, 10, 79, 108
10, 81030, Note_on_c, 10, 79, 0
10, 81060, Note_on_c, 10, 79, 108
10, 81090, Note_on_c, 10, 79, 0
10, 81120, Note_on_c, 10, 76, 108
10, 81150, Note_on_c, 10, 76, 0
10, 81180, Note_on_c, 10, 72, 108
10, 81210, Note_on_c, 10, 72, 0
10, 81240, Note_on_c, 10, 74, 108
10, 81270, Note_on_c, 10, 74, 0
10, 81270, Note_on_c, 10, 72, 108
10, 81300, Note_on_c, 10, 72, 0
10, 81300, Note_on_c, 10, 71, 108
10, 81330, Note_on_c, 10, 71, 0
10, 81330, Note_on_c, 10, 72, 108
10, 81350, Note_on_c, 10, 72, 0
10, 81360, Note_on_c, 10, 69, 108
10, 81390, Note_on_c, 10, 69, 0
10, 81420, Note_on_c, 10, 74, 108
10, 81450, Note_on_c, 10, 74, 0
10, 81480, Note_on_c, 10, 76, 108
10, 81510, Note_on_c, 10, 76, 0
10, 81510, Note_on_c, 10, 74, 108
10, 81540, Note_on_c, 10, 74, 0
10, 81540, Note_on_c, 10, 73, 108
10, 81570, Note_on_c, 10, 73, 0
10, 81570, Note_on_c, 10, 74, 108
10, 81590, Note_on_c, 10, 74, 0
10, 81600, Note_on_c, 10, 67, 80
10, 81696, Note_on_c, 10, 67, 0
10, 81780, Note_on_c, 10, 79, 108
10, 81780, Control_c, 10, 11, 47
10, 81830, Note_on_c, 10, 79, 0
10, 81840, Note_on_c, 10, 79, 108
10, 81870, Note_on_c, 10, 79, 0
10, 81900, Note_on_c, 10, 79, 108
10, 81930, Note_on_c, 10, 79, 0
10, 81960, Note_on_c, 10, 79, 108
10, 81990, Note_on_c, 10, 79, 0
10, 82020, Note_on_c, 10, 79, 108
10, 82050, Note_on_c, 10, 79, 0
10, 82080, Note_on_c, 10, 79, 108
10, 82200, Note_on_c, 10, 79, 0
10, 82200, Note_on_c, 10, 77, 108
10, 82250, Note_on_c, 10, 77, 0
10, 82260, Note_on_c, 10, 77, 108
10, 82290, Note_on_c, 10, 77, 0
10, 82320, Note_on_c, 10, 77, 108
10, 82350, Note_on_c, 10, 77, 0
10, 82380, Note_on_c, 10, 77, 108
10, 82410, Note_on_c, 10, 77, 0
10, 82440, Note_on_c, 10, 77, 108
10, 82470, Note_on_c, 10, 77, 0
10, 82500, Note_on_c, 10, 77, 108
10, 82530, Note_on_c, 10, 77, 0
10, 82560, Note_on_c, 10, 77, 108
10, 82680, Note_on_c, 10, 77, 0
10, 82680, Note_on_c, 10, 76, 108
10, 82730, Note_on_c, 10, 76, 0
10, 82740, Note_on_c, 10, 76, 108
10, 82770, Note_on_c, 10, 76, 0
10, 82800, Note_on_c, 10, 76, 108
10, 82830, Note_on_c, 10, 76, 0
10, 82860, Note_on_c, 10, 76, 108
10, 82890, Note_on_c, 10, 76, 0
10, 82920, Note_on_c, 10, 76, 108
10, 82950, Note_on_c, 10, 76, 0
10, 82980, Note_on_c, 10, 76, 108
10, 83010, Note_on_c, 10, 76, 0
10, 83040, Note_on_c, 10, 74, 108
10, 83100, Note_on_c, 10, 74, 0
10, 83160, Note_on_c, 10, 77, 108
10, 83220, Note_on_c, 10, 77, 0
10, 83280, Note_on_c, 10, 72, 108
10, 83340, Note_on_c, 10, 72, 0
10, 83400, Note_on_c, 10, 71, 108
10, 83460, Note_on_c, 10, 71, 0
10, 83520, Control_c, 10, 11, 102
10, 83520, Note_on_c, 10, 72, 93
10, 83540, Note_on_c, 10, 72, 0
10, 83550, Note_on_c, 10, 72, 100
10, 83570, Note_on_c, 10, 72, 0
10, 83580, Note_on_c, 10, 76, 108
10, 83600, Note_on_c, 10, 76, 0
10, 83610, Note_on_c, 10, 76, 108
10, 83630, Note_on_c, 10, 76, 0
10, 83640, Note_on_c, 10, 79, 108
10, 83660, Note_on_c, 10, 79, 0
10, 83670, Note_on_c, 10, 79, 108
10, 83690, Note_on_c, 10, 79, 0
10, 83700, Note_on_c, 10, 84, 108
10, 83720, Note_on_c, 10, 84, 0
10, 83730, Note_on_c, 10, 84, 108
10, 83750, Note_on_c, 10, 84, 0
10, 83760, Note_on_c, 10, 88, 108
10, 83780, Note_on_c, 10, 88, 0
10, 83790, Note_on_c, 10, 88, 108
10, 83810, Note_on_c, 10, 88, 0
10, 83820, Note_on_c, 10, 88, 108
10, 83840, Note_on_c, 10, 88, 0
10, 83850, Note_on_c, 10, 88, 108
10, 83870, Note_on_c, 10, 88, 0
10, 83880, Note_on_c, 10, 88, 108
10, 83900, Note_on_c, 10, 88, 0
10, 83910, Note_on_c, 10, 88, 108
10, 83930, Note_on_c, 10, 88, 0
10, 83940, Note_on_c, 10, 88, 108
10, 83960, Note_on_c, 10, 88, 0
10, 83970, Note_on_c, 10, 88, 108
10, 83990, Note_on_c, 10, 88, 0
10, 84000, Note_on_c, 10, 88, 108
10, 84020, Note_on_c, 10, 88, 0
10, 84030, Note_on_c, 10, 88, 108
10, 84050, Note_on_c, 10, 88, 0
10, 84060, Note_on_c, 10, 88, 108
10, 84080, Note_on_c, 10, 88, 0
10, 84090, Note_on_c, 10, 88, 108
10, 84110, Note_on_c, 10, 88, 0
10, 84120, Note_on_c, 10, 86, 108
10, 84140, Note_on_c, 10, 86, 0
10, 84150, Note_on_c, 10, 86, 108
10, 84170, Note_on_c, 10, 86, 0
10, 84180, Note_on_c, 10, 86, 108
10, 84200, Note_on_c, 10, 86, 0
10, 84210, Note_on_c, 10, 86, 108
10, 84230, Note_on_c, 10, 86, 0
10, 84240, Note_on_c, 10, 86, 108
10, 84260, Note_on_c, 10, 86, 0
10, 84270, Note_on_c, 10, 86, 108
10, 84290, Note_on_c, 10, 86, 0
10, 84300, Note_on_c, 10, 86, 108
10, 84320, Note_on_c, 10, 86, 0
10, 84330, Note_on_c, 10, 86, 108
10, 84350, Note_on_c, 10, 86, 0
10, 84360, Note_on_c, 10, 86, 108
10, 84380, Note_on_c, 10, 86, 0
10, 84390, Note_on_c, 10, 86, 108
10, 84410, Note_on_c, 10, 86, 0
10, 84420, Note_on_c, 10, 86, 108
10, 84440, Note_on_c, 10, 86, 0
10, 84450, Note_on_c, 10, 86, 108
10, 84470, Note_on_c, 10, 86, 0
10, 84480, Note_on_c, 10, 86, 108
10, 84500, Note_on_c, 10, 86, 0
10, 84510, Note_on_c, 10, 86, 108
10, 84530, Note_on_c, 10, 86, 0
10, 84540, Note_on_c, 10, 86, 108
10, 84560, Note_on_c, 10, 86, 0
10, 84570, Note_on_c, 10, 86, 108
10, 84590, Note_on_c, 10, 86, 0
10, 84600, Note_on_c, 10, 84, 108
10, 84620, Note_on_c, 10, 84, 0
10, 84630, Note_on_c, 10, 84, 108
10, 84650, Note_on_c, 10, 84, 0
10, 84660, Note_on_c, 10, 84, 108
10, 84680, Note_on_c, 10, 84, 0
10, 84690, Note_on_c, 10, 84, 108
10, 84710, Note_on_c, 10, 84, 0
10, 84720, Note_on_c, 10, 84, 108
10, 84740, Note_on_c, 10, 84, 0
10, 84750, Note_on_c, 10, 84, 108
10, 84770, Note_on_c, 10, 84, 0
10, 84780, Note_on_c, 10, 84, 108
10, 84800, Note_on_c, 10, 84, 0
10, 84810, Note_on_c, 10, 84, 108
10, 84830, Note_on_c, 10, 84, 0
10, 84840, Note_on_c, 10, 84, 108
10, 84860, Note_on_c, 10, 84, 0
10, 84870, Note_on_c, 10, 84, 108
10, 84890, Note_on_c, 10, 84, 0
10, 84900, Note_on_c, 10, 84, 108
10, 84920, Note_on_c, 10, 84, 0
10, 84930, Note_on_c, 10, 84, 108
10, 84950, Note_on_c, 10, 84, 0
10, 84960, Note_on_c, 10, 84, 108
10, 84980, Note_on_c, 10, 84, 0
10, 84990, Note_on_c, 10, 84, 108
10, 85010, Note_on_c, 10, 84, 0
10, 85020, Note_on_c, 10, 84, 108
10, 85040, Note_on_c, 10, 84, 0
10, 85050, Note_on_c, 10, 84, 108
10, 85070, Note_on_c, 10, 84, 0
10, 85080, Note_on_c, 10, 84, 108
10, 85100, Note_on_c, 10, 84, 0
10, 85110, Note_on_c, 10, 84, 108
10, 85130, Note_on_c, 10, 84, 0
10, 85140, Note_on_c, 10, 84, 108
10, 85160, Note_on_c, 10, 84, 0
10, 85170, Note_on_c, 10, 84, 108
10, 85190, Note_on_c, 10, 84, 0
10, 85200, Note_on_c, 10, 84, 108
10, 85220, Note_on_c, 10, 84, 0
10, 85230, Note_on_c, 10, 84, 108
10, 85250, Note_on_c, 10, 84, 0
10, 85260, Note_on_c, 10, 84, 108
10, 85280, Note_on_c, 10, 84, 0
10, 85290, Note_on_c, 10, 84, 108
10, 85310, Note_on_c, 10, 84, 0
10, 85320, Note_on_c, 10, 83, 108
10, 85340, Note_on_c, 10, 83, 0
10, 85350, Note_on_c, 10, 83, 108
10, 85370, Note_on_c, 10, 83, 0
10, 85380, Note_on_c, 10, 83, 108
10, 85400, Note_on_c, 10, 83, 0
10, 85410, Note_on_c, 10, 83, 108
10, 85430, Note_on_c, 10, 83, 0
10, 85440, Note_on_c, 10, 84, 108
10, 85536, Note_on_c, 10, 84, 0
10, 85920, Note_on_c, 10, 72, 108
10, 85920, Note_on_c, 10, 64, 108
10, 85920, Note_on_c, 10, 55, 108
10, 85920, Control_c, 10, 11, 87
10, 86016, Note_on_c, 10, 55, 0
10, 86016, Note_on_c, 10, 64, 0
10, 86016, Note_on_c, 10, 72, 0
10, 86520, Control_c, 10, 11, 47
10, 86520, Note_on_c, 10, 76, 108
10, 86580, Note_on_c, 10, 76, 0
10, 86760, Note_on_c, 10, 77, 108
10, 86820, Note_on_c, 10, 77, 0
10, 87000, Note_on_c, 10, 74, 108
10, 87060, Note_on_c, 10, 74, 0
10, 87240, Note_on_c, 10, 76, 108
10, 87255, Note_on_c, 10, 76, 0
10, 87270, Note_on_c, 10, 60, 108
10, 87300, Note_on_c, 10, 60, 0
10, 87300, Note_on_c, 10, 62, 108
10, 87330, Note_on_c, 10, 62, 0
10, 87330, Note_on_c, 10, 64, 108
10, 87360, Note_on_c, 10, 64, 0
10, 87360, Note_on_c, 10, 65, 108
10, 87390, Note_on_c, 10, 65, 0
10, 87390, Note_on_c, 10, 67, 108
10, 87420, Note_on_c, 10, 67, 0
10, 87420, Note_on_c, 10, 69, 108
10, 87450, Note_on_c, 10, 69, 0
10, 87450, Note_on_c, 10, 71, 108
10, 87480, Note_on_c, 10, 71, 0
10, 87480, Note_on_c, 10, 72, 108
10, 87510, Note_on_c, 10, 72, 0
10, 87750, Note_on_c, 10, 64, 108
10, 87780, Note_on_c, 10, 64, 0
10, 87780, Note_on_c, 10, 65, 108
10, 87810, Note_on_c, 10, 65, 0
10, 87810, Note_on_c, 10, 67, 108
10, 87840, Note_on_c, 10, 67, 0
10, 87840, Note_on_c, 10, 69, 108
10, 87870, Note_on_c, 10, 69, 0
10, 87870, Note_on_c, 10, 71, 108
10, 87900, Note_on_c, 10, 71, 0
10, 87900, Note_on_c, 10, 72, 108
10, 87930, Note_on_c, 10, 72, 0
10, 87930, Note_on_c, 10, 74, 108
10, 87960, Note_on_c, 10, 74, 0
10, 87960, Note_on_c, 10, 76, 108
10, 87990, Note_on_c, 10, 76, 0
10, 88440, Note_on_c, 10, 76, 108
10, 88500, Note_on_c, 10, 76, 0
10, 88680, Note_on_c, 10, 77, 108
10, 88740, Note_on_c, 10, 77, 0
10, 88920, Note_on_c, 10, 74, 108
10, 88980, Note_on_c, 10, 74, 0
10, 89190, Note_on_c, 10, 76, 108
10, 89220, Note_on_c, 10, 76, 0
10, 89220, Note_on_c, 10, 74, 108
10, 89250, Note_on_c, 10, 74, 0
10, 89250, Note_on_c, 10, 72, 108
10, 89280, Note_on_c, 10, 72, 0
10, 89280, Note_on_c, 10, 71, 108
10, 89310, Note_on_c, 10, 71, 0
10, 89310, Note_on_c, 10, 69, 108
10, 89340, Note_on_c, 10, 69, 0
10, 89340, Note_on_c, 10, 67, 108
10, 89370, Note_on_c, 10, 67, 0
10, 89370, Note_on_c, 10, 65, 108
10, 89390, Note_on_c, 10, 65, 0
10, 89400, Note_on_c, 10, 64, 108
10, 89430, Note_on_c, 10, 64, 0
10, 89460, Note_on_c, 10, 64, 108
10, 89490, Note_on_c, 10, 64, 0
10, 89520, Note_on_c, 10, 65, 108
10, 89520, Control_c, 10, 11, 47
10, 89537, Control_c, 10, 11, 48
10, 89554, Control_c, 10, 11, 49
10, 89572, Control_c, 10, 11, 50
10, 89580, Note_on_c, 10, 65, 0
10, 89589, Control_c, 10, 11, 51
10, 89607, Control_c, 10, 11, 52
10, 89624, Control_c, 10, 11, 53
10, 89640, Note_on_c, 10, 77, 108
10, 89642, Control_c, 10, 11, 54
10, 89659, Control_c, 10, 11, 55
10, 89677, Control_c, 10, 11, 56
10, 89694, Control_c, 10, 11, 57
10, 89700, Note_on_c, 10, 77, 0
10, 89712, Control_c, 10, 11, 58
10, 89729, Control_c, 10, 11, 59
10, 89746, Control_c, 10, 11, 60
10, 89764, Control_c, 10, 11, 61
10, 89781, Control_c, 10, 11, 62
10, 89799, Control_c, 10, 11, 63
10, 89816, Control_c, 10, 11, 64
10, 89834, Control_c, 10, 11, 65
10, 89851, Control_c, 10, 11, 66
10, 89869, Control_c, 10, 11, 67
10, 89880, Note_on_c, 10, 74, 108
10, 89886, Control_c, 10, 11, 68
10, 89904, Control_c, 10, 11, 69
10, 89921, Control_c, 10, 11, 70
10, 89938, Control_c, 10, 11, 71
10, 89940, Note_on_c, 10, 74, 0
10, 89956, Control_c, 10, 11, 72
10, 89973, Control_c, 10, 11, 73
10, 89991, Control_c, 10, 11, 74
10, 90008, Control_c, 10, 11, 75
10, 90026, Control_c, 10, 11, 76
10, 90043, Control_c, 10, 11, 77
10, 90061, Control_c, 10, 11, 78
10, 90078, Control_c, 10, 11, 79
10, 90096, Control_c, 10, 11, 80
10, 90113, Control_c, 10, 11, 81
10, 90130, Control_c, 10, 11, 82
10, 90148, Control_c, 10, 11, 83
10, 90150, Note_on_c, 10, 76, 108
10, 90165, Note_on_c, 10, 76, 0
10, 90165, Control_c, 10, 11, 84
10, 90180, Note_on_c, 10, 77, 108
10, 90183, Control_c, 10, 11, 85
10, 90195, Note_on_c, 10, 77, 0
10, 90200, Control_c, 10, 11, 86
10, 90210, Note_on_c, 10, 79, 108
10, 90218, Control_c, 10, 11, 87
10, 90225, Note_on_c, 10, 79, 0
10, 90235, Control_c, 10, 11, 88
10, 90240, Note_on_c, 10, 81, 108
10, 90253, Control_c, 10, 11, 89
10, 90255, Note_on_c, 10, 81, 0
10, 90270, Note_on_c, 10, 83, 108
10, 90270, Control_c, 10, 11, 90
10, 90285, Note_on_c, 10, 83, 0
10, 90288, Control_c, 10, 11, 91
10, 90300, Note_on_c, 10, 84, 108
10, 90305, Control_c, 10, 11, 92
10, 90315, Note_on_c, 10, 84, 0
10, 90322, Control_c, 10, 11, 93
10, 90330, Note_on_c, 10, 86, 108
10, 90340, Control_c, 10, 11, 94
10, 90345, Note_on_c, 10, 86, 0
10, 90357, Control_c, 10, 11, 95
10, 90360, Note_on_c, 10, 88, 108
10, 90375, Control_c, 10, 11, 96
10, 90390, Note_on_c, 10, 88, 0
10, 90392, Control_c, 10, 11, 97
10, 90410, Control_c, 10, 11, 98
10, 90420, Note_on_c, 10, 88, 108
10, 90427, Control_c, 10, 11, 99
10, 90445, Control_c, 10, 11, 100
10, 90450, Note_on_c, 10, 88, 0
10, 90462, Control_c, 10, 11, 101
10, 90480, Note_on_c, 10, 89, 108
10, 90480, Control_c, 10, 11, 102
10, 90500, Note_on_c, 10, 89, 0
10, 90510, Note_on_c, 10, 89, 108
10, 90530, Note_on_c, 10, 89, 0
10, 90540, Note_on_c, 10, 89, 108
10, 90560, Note_on_c, 10, 89, 0
10, 90570, Note_on_c, 10, 89, 108
10, 90590, Note_on_c, 10, 89, 0
10, 90600, Note_on_c, 10, 89, 108
10, 90620, Note_on_c, 10, 89, 0
10, 90630, Note_on_c, 10, 89, 108
10, 90650, Note_on_c, 10, 89, 0
10, 90660, Note_on_c, 10, 89, 108
10, 90680, Note_on_c, 10, 89, 0
10, 90690, Note_on_c, 10, 89, 108
10, 90710, Note_on_c, 10, 89, 0
10, 90720, Note_on_c, 10, 86, 108
10, 90740, Note_on_c, 10, 86, 0
10, 90750, Note_on_c, 10, 86, 108
10, 90770, Note_on_c, 10, 86, 0
10, 90780, Note_on_c, 10, 86, 108
10, 90800, Note_on_c, 10, 86, 0
10, 90810, Note_on_c, 10, 86, 108
10, 90830, Note_on_c, 10, 86, 0
10, 90840, Note_on_c, 10, 86, 108
10, 90860, Note_on_c, 10, 86, 0
10, 90870, Note_on_c, 10, 86, 108
10, 90890, Note_on_c, 10, 86, 0
10, 90900, Note_on_c, 10, 86, 108
10, 90920, Note_on_c, 10, 86, 0
10, 90930, Note_on_c, 10, 86, 108
10, 90950, Note_on_c, 10, 86, 0
10, 90960, Note_on_c, 10, 84, 108
10, 90960, Control_c, 10, 11, 112
10, 90977, Control_c, 10, 11, 115
10, 90995, Control_c, 10, 11, 116
10, 91013, Control_c, 10, 11, 113
10, 91031, Control_c, 10, 11, 110
10, 91049, Control_c, 10, 11, 107
10, 91067, Control_c, 10, 11, 104
10, 91100, Note_on_c, 10, 84, 0
10, 91110, Note_on_c, 10, 72, 108
10, 91125, Note_on_c, 10, 72, 0
10, 91140, Note_on_c, 10, 74, 108
10, 91155, Note_on_c, 10, 74, 0
10, 91170, Note_on_c, 10, 76, 108
10, 91185, Note_on_c, 10, 76, 0
10, 91200, Note_on_c, 10, 77, 108
10, 91215, Note_on_c, 10, 77, 0
10, 91230, Note_on_c, 10, 79, 108
10, 91245, Note_on_c, 10, 79, 0
10, 91260, Note_on_c, 10, 81, 108
10, 91275, Note_on_c, 10, 81, 0
10, 91290, Note_on_c, 10, 83, 108
10, 91305, Note_on_c, 10, 83, 0
10, 91320, Note_on_c, 10, 84, 108
10, 91350, Note_on_c, 10, 84, 0
10, 91380, Note_on_c, 10, 84, 108
10, 91410, Note_on_c, 10, 84, 0
10, 91440, Note_on_c, 10, 88, 108
10, 91440, Control_c, 10, 11, 112
10, 91457, Control_c, 10, 11, 115
10, 91475, Control_c, 10, 11, 116
10, 91493, Control_c, 10, 11, 113
10, 91511, Control_c, 10, 11, 110
10, 91529, Control_c, 10, 11, 107
10, 91547, Control_c, 10, 11, 104
10, 91580, Note_on_c, 10, 88, 0
10, 91590, Note_on_c, 10, 76, 108
10, 91605, Note_on_c, 10, 76, 0
10, 91620, Note_on_c, 10, 77, 108
10, 91635, Note_on_c, 10, 77, 0
10, 91650, Note_on_c, 10, 79, 108
10, 91665, Note_on_c, 10, 79, 0
10, 91680, Note_on_c, 10, 81, 108
10, 91695, Note_on_c, 10, 81, 0
10, 91710, Note_on_c, 10, 83, 108
10, 91725, Note_on_c, 10, 83, 0
10, 91740, Note_on_c, 10, 84, 108
10, 91755, Note_on_c, 10, 84, 0
10, 91770, Note_on_c, 10, 86, 108
10, 91785, Note_on_c, 10, 86, 0
10, 91800, Note_on_c, 10, 88, 108
10, 91830, Note_on_c, 10, 88, 0
10, 91860, Note_on_c, 10, 88, 108
10, 91890, Note_on_c, 10, 88, 0
10, 91920, Control_c, 10, 11, 112
10, 91920, Note_on_c, 10, 91, 108
10, 91937, Control_c, 10, 11, 109
10, 91940, Note_on_c, 10, 91, 0
10, 91950, Note_on_c, 10, 91, 108
10, 91955, Control_c, 10, 11, 106
10, 91970, Note_on_c, 10, 91, 0
10, 91973, Control_c, 10, 11, 103
10, 91980, Note_on_c, 10, 91, 108
10, 92000, Note_on_c, 10, 91, 0
10, 92010, Note_on_c, 10, 91, 108
10, 92030, Note_on_c, 10, 91, 0
10, 92040, Note_on_c, 10, 91, 108
10, 92060, Note_on_c, 10, 91, 0
10, 92070, Note_on_c, 10, 91, 108
10, 92090, Note_on_c, 10, 91, 0
10, 92100, Note_on_c, 10, 91, 108
10, 92120, Note_on_c, 10, 91, 0
10, 92130, Note_on_c, 10, 91, 108
10, 92150, Note_on_c, 10, 91, 0
10, 92160, Note_on_c, 10, 88, 108
10, 92180, Note_on_c, 10, 88, 0
10, 92190, Note_on_c, 10, 88, 108
10, 92210, Note_on_c, 10, 88, 0
10, 92220, Note_on_c, 10, 88, 108
10, 92240, Note_on_c, 10, 88, 0
10, 92250, Note_on_c, 10, 88, 108
10, 92270, Note_on_c, 10, 88, 0
10, 92280, Note_on_c, 10, 84, 108
10, 92300, Note_on_c, 10, 84, 0
10, 92310, Note_on_c, 10, 84, 108
10, 92330, Note_on_c, 10, 84, 0
10, 92340, Note_on_c, 10, 84, 108
10, 92360, Note_on_c, 10, 84, 0
10, 92370, Note_on_c, 10, 84, 108
10, 92390, Note_on_c, 10, 84, 0
10, 92400, Note_on_c, 10, 79, 108
10, 92420, Note_on_c, 10, 79, 0
10, 92430, Note_on_c, 10, 79, 108
10, 92450, Note_on_c, 10, 79, 0
10, 92460, Note_on_c, 10, 79, 108
10, 92480, Note_on_c, 10, 79, 0
10, 92490, Note_on_c, 10, 79, 108
10, 92510, Note_on_c, 10, 79, 0
10, 92520, Note_on_c, 10, 76, 108
10, 92540, Note_on_c, 10, 76, 0
10, 92550, Note_on_c, 10, 76, 108
10, 92570, Note_on_c, 10, 76, 0
10, 92580, Note_on_c, 10, 76, 108
10, 92600, Note_on_c, 10, 76, 0
10, 92610, Note_on_c, 10, 76, 108
10, 92630, Note_on_c, 10, 76, 0
10, 92640, Note_on_c, 10, 72, 108
10, 92660, Note_on_c, 10, 72, 0
10, 92670, Note_on_c, 10, 72, 108
10, 92690, Note_on_c, 10, 72, 0
10, 92700, Note_on_c, 10, 72, 108
10, 92720, Note_on_c, 10, 72, 0
10, 92730, Note_on_c, 10, 72, 108
10, 92750, Note_on_c, 10, 72, 0
10, 92760, Note_on_c, 10, 67, 108
10, 92780, Note_on_c, 10, 67, 0
10, 92790, Note_on_c, 10, 67, 108
10, 92810, Note_on_c, 10, 67, 0
10, 92820, Note_on_c, 10, 67, 108
10, 92840, Note_on_c, 10, 67, 0
10, 92850, Note_on_c, 10, 67, 108
10, 92870, Note_on_c, 10, 67, 0
10, 92880, Note_on_c, 10, 72, 108
10, 92976, Note_on_c, 10, 72, 0
10, 93120, Note_on_c, 10, 67, 108
10, 93130, Note_on_c, 10, 74, 108
10, 93130, Note_on_c, 10, 83, 108
10, 93216, Note_on_c, 10, 67, 0
10, 93226, Note_on_c, 10, 83, 0
10, 93226, Note_on_c, 10, 74, 0
10, 93360, Note_on_c, 10, 67, 108
10, 93370, Note_on_c, 10, 76, 108
10, 93370, Note_on_c, 10, 84, 108
10, 93456, Note_on_c, 10, 67, 0
10, 93466, Note_on_c, 10, 84, 0
10, 93466, Note_on_c, 10, 76, 0
10, 93600, Note_on_c, 10, 55, 108
10, 93610, Note_on_c, 10, 71, 108
10, 93610, Note_on_c, 10, 62, 108
10, 93696, Note_on_c, 10, 55, 0
10, 93706, Note_on_c, 10, 62, 0
10, 93706, Note_on_c, 10, 71, 0
10, 93840, Note_on_c, 10, 55, 108
10, 93850, Note_on_c, 10, 72, 108
10, 93850, Note_on_c, 10, 64, 108
10, 93936, Note_on_c, 10, 55, 0
10, 93946, Note_on_c, 10, 64, 0
10, 93946, Note_on_c, 10, 72, 0
10, 94080, Note_on_c, 10, 67, 91
10, 94090, Note_on_c, 10, 84, 91
10, 94090, Note_on_c, 10, 76, 91
10, 94182, Note_on_c, 10, 67, 0
10, 94192, Note_on_c, 10, 76, 0
10, 94192, Note_on_c, 10, 84, 0
10, 94320, Note_on_c, 10, 60, 108
10, 94440, Note_on_c, 10, 60, 0
10, 94560, Control_c, 10, 121, 0
10, 94560, End_track
11, 0, Start_track
11, 0, MIDI_port, 0
11, 0, Title_t, "Violine II"
11, 0, Program_c, 11, 48
11, 0, Control_c, 11, 10, 90
11, 2, Control_c, 11, 121, 0
11, 7, Program_c, 11, 48
11, 12, Pitch_bend_c, 11, 7992
11, 17, Control_c, 11, 11, 102
11, 22, Control_c, 11, 7, 127
11, 27, Control_c, 11, 91, 32
11, 32, Control_c, 11, 93, 0
11, 37, Control_c, 11, 10, 90
11, 42, Control_c, 11, 1, 36
11, 242, Note_on_c, 11, 55, 108
11, 242, Note_on_c, 11, 67, 108
11, 242, Control_c, 11, 11, 72
11, 244, Control_c, 11, 11, 75
11, 246, Control_c, 11, 11, 78
11, 248, Control_c, 11, 11, 81
11, 250, Control_c, 11, 11, 84
11, 252, Control_c, 11, 11, 87
11, 254, Control_c, 11, 11, 90
11, 256, Control_c, 11, 11, 93
11, 258, Control_c, 11, 11, 96
11, 260, Control_c, 11, 11, 99
11, 262, Control_c, 11, 11, 102
11, 377, Control_c, 11, 11, 102
11, 378, Control_c, 11, 11, 98
11, 379, Control_c, 11, 11, 94
11, 380, Control_c, 11, 11, 91
11, 381, Control_c, 11, 11, 87
11, 382, Control_c, 11, 11, 83
11, 383, Control_c, 11, 11, 80
11, 384, Control_c, 11, 11, 76
11, 385, Control_c, 11, 11, 72
11, 386, Control_c, 11, 11, 69
11, 387, Control_c, 11, 11, 65
11, 388, Control_c, 11, 11, 61
11, 389, Control_c, 11, 11, 58
11, 390, Control_c, 11, 11, 54
11, 391, Control_c, 11, 11, 50
11, 392, Note_on_c, 11, 67, 0
11, 392, Note_on_c, 11, 55, 0
11, 392, Control_c, 11, 11, 47
11, 1922, Note_on_c, 11, 64, 108
11, 1942, Note_on_c, 11, 64, 0
11, 1952, Note_on_c, 11, 64, 108
11, 1972, Note_on_c, 11, 64, 0
11, 1982, Note_on_c, 11, 67, 108
11, 2002, Note_on_c, 11, 67, 0
11, 2012, Note_on_c, 11, 67, 108
11, 2032, Note_on_c, 11, 67, 0
11, 2042, Note_on_c, 11, 64, 108
11, 2062, Note_on_c, 11, 64, 0
11, 2072, Note_on_c, 11, 64, 108
11, 2092, Note_on_c, 11, 64, 0
11, 2102, Note_on_c, 11, 67, 108
11, 2122, Note_on_c, 11, 67, 0
11, 2132, Note_on_c, 11, 67, 108
11, 2152, Note_on_c, 11, 67, 0
11, 2162, Note_on_c, 11, 65, 108
11, 2182, Note_on_c, 11, 65, 0
11, 2192, Note_on_c, 11, 65, 108
11, 2212, Note_on_c, 11, 65, 0
11, 2222, Note_on_c, 11, 67, 108
11, 2242, Note_on_c, 11, 67, 0
11, 2252, Note_on_c, 11, 67, 108
11, 2272, Note_on_c, 11, 67, 0
11, 2282, Note_on_c, 11, 65, 108
11, 2302, Note_on_c, 11, 65, 0
11, 2312, Note_on_c, 11, 65, 108
11, 2332, Note_on_c, 11, 65, 0
11, 2342, Note_on_c, 11, 67, 108
11, 2362, Note_on_c, 11, 67, 0
11, 2372, Note_on_c, 11, 67, 108
11, 2392, Note_on_c, 11, 67, 0
11, 2402, Note_on_c, 11, 64, 108
11, 2422, Note_on_c, 11, 64, 0
11, 2432, Note_on_c, 11, 64, 108
11, 2452, Note_on_c, 11, 64, 0
11, 2462, Note_on_c, 11, 67, 108
11, 2482, Note_on_c, 11, 67, 0
11, 2492, Note_on_c, 11, 67, 108
11, 2512, Note_on_c, 11, 67, 0
11, 2522, Note_on_c, 11, 64, 108
11, 2542, Note_on_c, 11, 64, 0
11, 2552, Note_on_c, 11, 64, 108
11, 2572, Note_on_c, 11, 64, 0
11, 2582, Note_on_c, 11, 67, 108
11, 2602, Note_on_c, 11, 67, 0
11, 2612, Note_on_c, 11, 67, 108
11, 2632, Note_on_c, 11, 67, 0
11, 2642, Note_on_c, 11, 64, 108
11, 2662, Note_on_c, 11, 64, 0
11, 2672, Note_on_c, 11, 64, 108
11, 2692, Note_on_c, 11, 64, 0
11, 2702, Note_on_c, 11, 67, 108
11, 2722, Note_on_c, 11, 67, 0
11, 2732, Note_on_c, 11, 67, 108
11, 2752, Note_on_c, 11, 67, 0
11, 2762, Note_on_c, 11, 65, 108
11, 2782, Note_on_c, 11, 65, 0
11, 2792, Note_on_c, 11, 65, 108
11, 2812, Note_on_c, 11, 65, 0
11, 2822, Note_on_c, 11, 67, 108
11, 2842, Note_on_c, 11, 67, 0
11, 2852, Note_on_c, 11, 67, 108
11, 2872, Note_on_c, 11, 67, 0
11, 2882, Note_on_c, 11, 64, 108
11, 2902, Note_on_c, 11, 64, 0
11, 2912, Note_on_c, 11, 64, 108
11, 2932, Note_on_c, 11, 64, 0
11, 2942, Note_on_c, 11, 67, 108
11, 2962, Note_on_c, 11, 67, 0
11, 2972, Note_on_c, 11, 67, 108
11, 2992, Note_on_c, 11, 67, 0
11, 3002, Note_on_c, 11, 64, 108
11, 3022, Note_on_c, 11, 64, 0
11, 3032, Note_on_c, 11, 64, 108
11, 3052, Note_on_c, 11, 64, 0
11, 3062, Note_on_c, 11, 67, 108
11, 3082, Note_on_c, 11, 67, 0
11, 3092, Note_on_c, 11, 67, 108
11, 3112, Note_on_c, 11, 67, 0
11, 3122, Note_on_c, 11, 66, 108
11, 3142, Note_on_c, 11, 66, 0
11, 3152, Note_on_c, 11, 66, 108
11, 3172, Note_on_c, 11, 66, 0
11, 3182, Note_on_c, 11, 66, 108
11, 3202, Note_on_c, 11, 66, 0
11, 3212, Note_on_c, 11, 66, 108
11, 3232, Note_on_c, 11, 66, 0
11, 3242, Note_on_c, 11, 66, 108
11, 3262, Note_on_c, 11, 66, 0
11, 3272, Note_on_c, 11, 66, 108
11, 3292, Note_on_c, 11, 66, 0
11, 3302, Note_on_c, 11, 66, 108
11, 3322, Note_on_c, 11, 66, 0
11, 3332, Note_on_c, 11, 66, 108
11, 3352, Note_on_c, 11, 66, 0
11, 3362, Note_on_c, 11, 67, 84
11, 3482, Note_on_c, 11, 67, 0
11, 3542, Note_on_c, 11, 67, 108
11, 3592, Note_on_c, 11, 67, 0
11, 3602, Note_on_c, 11, 76, 108
11, 3632, Note_on_c, 11, 76, 0
11, 3662, Note_on_c, 11, 76, 108
11, 3692, Note_on_c, 11, 76, 0
11, 3722, Note_on_c, 11, 76, 108
11, 3752, Note_on_c, 11, 76, 0
11, 3782, Note_on_c, 11, 76, 108
11, 3812, Note_on_c, 11, 76, 0
11, 3842, Note_on_c, 11, 76, 108
11, 3962, Note_on_c, 11, 76, 0
11, 3962, Note_on_c, 11, 74, 108
11, 4012, Note_on_c, 11, 74, 0
11, 4022, Note_on_c, 11, 74, 108
11, 4052, Note_on_c, 11, 74, 0
11, 4082, Note_on_c, 11, 74, 108
11, 4112, Note_on_c, 11, 74, 0
11, 4142, Note_on_c, 11, 74, 108
11, 4172, Note_on_c, 11, 74, 0
11, 4202, Note_on_c, 11, 74, 108
11, 4232, Note_on_c, 11, 74, 0
11, 4262, Note_on_c, 11, 74, 108
11, 4292, Note_on_c, 11, 74, 0
11, 4322, Note_on_c, 11, 74, 108
11, 4442, Note_on_c, 11, 74, 0
11, 4442, Note_on_c, 11, 72, 108
11, 4492, Note_on_c, 11, 72, 0
11, 4502, Note_on_c, 11, 72, 108
11, 4532, Note_on_c, 11, 72, 0
11, 4562, Note_on_c, 11, 72, 108
11, 4592, Note_on_c, 11, 72, 0
11, 4622, Note_on_c, 11, 72, 108
11, 4652, Note_on_c, 11, 72, 0
11, 4682, Note_on_c, 11, 72, 108
11, 4712, Note_on_c, 11, 72, 0
11, 4742, Note_on_c, 11, 72, 108
11, 4772, Note_on_c, 11, 72, 0
11, 4802, Note_on_c, 11, 72, 108
11, 4862, Note_on_c, 11, 72, 0
11, 4922, Note_on_c, 11, 72, 108
11, 4982, Note_on_c, 11, 72, 0
11, 5042, Note_on_c, 11, 67, 108
11, 5102, Note_on_c, 11, 67, 0
11, 5162, Note_on_c, 11, 65, 108
11, 5222, Note_on_c, 11, 65, 0
11, 5282, Note_on_c, 11, 64, 108
11, 5342, Note_on_c, 11, 64, 0
11, 5582, Control_c, 11, 11, 47
11, 5582, Note_on_c, 11, 69, 108
11, 5597, Control_c, 11, 11, 48
11, 5612, Note_on_c, 11, 69, 0
11, 5612, Control_c, 11, 11, 49
11, 5627, Control_c, 11, 11, 50
11, 5642, Note_on_c, 11, 71, 108
11, 5643, Control_c, 11, 11, 51
11, 5658, Control_c, 11, 11, 52
11, 5672, Note_on_c, 11, 71, 0
11, 5673, Control_c, 11, 11, 53
11, 5688, Control_c, 11, 11, 54
11, 5702, Note_on_c, 11, 73, 108
11, 5704, Control_c, 11, 11, 55
11, 5719, Control_c, 11, 11, 56
11, 5732, Note_on_c, 11, 73, 0
11, 5734, Control_c, 11, 11, 57
11, 5750, Control_c, 11, 11, 58
11, 5762, Note_on_c, 11, 74, 108
11, 5765, Control_c, 11, 11, 59
11, 5780, Control_c, 11, 11, 60
11, 5792, Note_on_c, 11, 74, 0
11, 5795, Control_c, 11, 11, 61
11, 5811, Control_c, 11, 11, 62
11, 5822, Note_on_c, 11, 76, 108
11, 5826, Control_c, 11, 11, 63
11, 5841, Control_c, 11, 11, 64
11, 5852, Note_on_c, 11, 76, 0
11, 5856, Control_c, 11, 11, 65
11, 5872, Control_c, 11, 11, 66
11, 5882, Note_on_c, 11, 77, 108
11, 5887, Control_c, 11, 11, 67
11, 5902, Control_c, 11, 11, 68
11, 5912, Note_on_c, 11, 77, 0
11, 5918, Control_c, 11, 11, 69
11, 5933, Control_c, 11, 11, 70
11, 5948, Control_c, 11, 11, 71
11, 5963, Control_c, 11, 11, 72
11, 5979, Control_c, 11, 11, 73
11, 5994, Control_c, 11, 11, 74
11, 6009, Control_c, 11, 11, 75
11, 6024, Control_c, 11, 11, 76
11, 6040, Control_c, 11, 11, 77
11, 6055, Control_c, 11, 11, 78
11, 6062, Note_on_c, 11, 67, 108
11, 6070, Control_c, 11, 11, 79
11, 6086, Control_c, 11, 11, 80
11, 6092, Note_on_c, 11, 67, 0
11, 6101, Control_c, 11, 11, 81
11, 6116, Control_c, 11, 11, 82
11, 6122, Note_on_c, 11, 69, 108
11, 6131, Control_c, 11, 11, 83
11, 6147, Control_c, 11, 11, 84
11, 6152, Note_on_c, 11, 69, 0
11, 6162, Control_c, 11, 11, 85
11, 6177, Control_c, 11, 11, 86
11, 6182, Note_on_c, 11, 71, 108
11, 6192, Control_c, 11, 11, 87
11, 6208, Control_c, 11, 11, 88
11, 6212, Note_on_c, 11, 71, 0
11, 6223, Control_c, 11, 11, 89
11, 6238, Control_c, 11, 11, 90
11, 6242, Note_on_c, 11, 72, 108
11, 6254, Control_c, 11, 11, 91
11, 6269, Control_c, 11, 11, 92
11, 6272, Note_on_c, 11, 72, 0
11, 6284, Control_c, 11, 11, 93
11, 6299, Control_c, 11, 11, 94
11, 6302, Note_on_c, 11, 74, 108
11, 6315, Control_c, 11, 11, 95
11, 6330, Control_c, 11, 11, 96
11, 6332, Note_on_c, 11, 74, 0
11, 6345, Control_c, 11, 11, 97
11, 6360, Control_c, 11, 11, 98
11, 6362, Note_on_c, 11, 76, 108
11, 6376, Control_c, 11, 11, 99
11, 6391, Control_c, 11, 11, 100
11, 6392, Note_on_c, 11, 76, 0
11, 6406, Control_c, 11, 11, 101
11, 6422, Note_on_c, 11, 72, 108
11, 6422, Control_c, 11, 11, 102
11, 6450, Note_on_c, 11, 72, 0
11, 6482, Note_on_c, 11, 72, 108
11, 6510, Note_on_c, 11, 72, 0
11, 6542, Note_on_c, 11, 72, 108
11, 6570, Note_on_c, 11, 72, 0
11, 6602, Note_on_c, 11, 72, 108
11, 6630, Note_on_c, 11, 72, 0
11, 6662, Note_on_c, 11, 72, 108
11, 6690, Note_on_c, 11, 72, 0
11, 6722, Note_on_c, 11, 72, 108
11, 6782, Note_on_c, 11, 72, 0
11, 6842, Note_on_c, 11, 72, 108
11, 6902, Note_on_c, 11, 72, 0
11, 6962, Note_on_c, 11, 64, 108
11, 7022, Note_on_c, 11, 64, 0
11, 7082, Note_on_c, 11, 62, 108
11, 7142, Note_on_c, 11, 62, 0
11, 7202, Note_on_c, 11, 64, 108
11, 7322, Note_on_c, 11, 64, 0
11, 7742, Control_c, 11, 11, 87
11, 7742, Note_on_c, 11, 72, 108
11, 7787, Note_on_c, 11, 72, 0
11, 7802, Note_on_c, 11, 72, 108
11, 7847, Note_on_c, 11, 72, 0
11, 7862, Note_on_c, 11, 72, 108
11, 7907, Note_on_c, 11, 72, 0
11, 7922, Note_on_c, 11, 72, 108
11, 7952, Note_on_c, 11, 72, 0
11, 7952, Note_on_c, 11, 71, 108
11, 7972, Note_on_c, 11, 71, 0
11, 7982, Note_on_c, 11, 69, 108
11, 7997, Note_on_c, 11, 69, 0
11, 8012, Note_on_c, 11, 67, 108
11, 8027, Note_on_c, 11, 67, 0
11, 8042, Note_on_c, 11, 67, 108
11, 8072, Note_on_c, 11, 67, 0
11, 8072, Note_on_c, 11, 65, 108
11, 8092, Note_on_c, 11, 65, 0
11, 8102, Note_on_c, 11, 64, 108
11, 8117, Note_on_c, 11, 64, 0
11, 8132, Note_on_c, 11, 62, 108
11, 8147, Note_on_c, 11, 62, 0
11, 8162, Note_on_c, 11, 60, 108
11, 8282, Note_on_c, 11, 60, 0
11, 8702, Note_on_c, 11, 72, 108
11, 8747, Note_on_c, 11, 72, 0
11, 8762, Note_on_c, 11, 72, 108
11, 8807, Note_on_c, 11, 72, 0
11, 8822, Note_on_c, 11, 72, 108
11, 8867, Note_on_c, 11, 72, 0
11, 8882, Note_on_c, 11, 72, 108
11, 8912, Note_on_c, 11, 72, 0
11, 8912, Note_on_c, 11, 71, 108
11, 8932, Note_on_c, 11, 71, 0
11, 8942, Note_on_c, 11, 69, 108
11, 8957, Note_on_c, 11, 69, 0
11, 8972, Note_on_c, 11, 67, 108
11, 8987, Note_on_c, 11, 67, 0
11, 9002, Note_on_c, 11, 67, 108
11, 9032, Note_on_c, 11, 67, 0
11, 9032, Note_on_c, 11, 65, 108
11, 9052, Note_on_c, 11, 65, 0
11, 9062, Note_on_c, 11, 64, 108
11, 9077, Note_on_c, 11, 64, 0
11, 9092, Note_on_c, 11, 62, 108
11, 9107, Note_on_c, 11, 62, 0
11, 9122, Note_on_c, 11, 64, 108
11, 9172, Note_on_c, 11, 64, 0
11, 9182, Note_on_c, 11, 76, 108
11, 9232, Note_on_c, 11, 76, 0
11, 9242, Note_on_c, 11, 76, 108
11, 9243, Control_c, 11, 11, 107
11, 9260, Control_c, 11, 11, 104
11, 9278, Control_c, 11, 11, 101
11, 9292, Note_on_c, 11, 76, 0
11, 9296, Control_c, 11, 11, 98
11, 9302, Note_on_c, 11, 76, 108
11, 9313, Control_c, 11, 11, 95
11, 9331, Control_c, 11, 11, 92
11, 9349, Control_c, 11, 11, 89
11, 9352, Note_on_c, 11, 76, 0
11, 9362, Note_on_c, 11, 76, 108
11, 9412, Note_on_c, 11, 76, 0
11, 9422, Note_on_c, 11, 76, 108
11, 9472, Note_on_c, 11, 76, 0
11, 9482, Note_on_c, 11, 76, 108
11, 9532, Note_on_c, 11, 76, 0
11, 9542, Note_on_c, 11, 76, 108
11, 9592, Note_on_c, 11, 76, 0
11, 9602, Note_on_c, 11, 74, 108
11, 9652, Note_on_c, 11, 74, 0
11, 9662, Note_on_c, 11, 74, 108
11, 9712, Note_on_c, 11, 74, 0
11, 9722, Note_on_c, 11, 74, 108
11, 9722, Control_c, 11, 11, 107
11, 9739, Control_c, 11, 11, 104
11, 9757, Control_c, 11, 11, 101
11, 9772, Note_on_c, 11, 74, 0
11, 9775, Control_c, 11, 11, 98
11, 9782, Note_on_c, 11, 74, 108
11, 9793, Control_c, 11, 11, 95
11, 9811, Control_c, 11, 11, 92
11, 9829, Control_c, 11, 11, 89
11, 9832, Note_on_c, 11, 74, 0
11, 9842, Note_on_c, 11, 74, 108
11, 9892, Note_on_c, 11, 74, 0
11, 9902, Note_on_c, 11, 74, 108
11, 9952, Note_on_c, 11, 74, 0
11, 9962, Note_on_c, 11, 74, 108
11, 10012, Note_on_c, 11, 74, 0
11, 10022, Note_on_c, 11, 74, 108
11, 10072, Note_on_c, 11, 74, 0
11, 10082, Note_on_c, 11, 72, 108
11, 10132, Note_on_c, 11, 72, 0
11, 10142, Note_on_c, 11, 72, 108
11, 10192, Note_on_c, 11, 72, 0
11, 10202, Note_on_c, 11, 72, 108
11, 10252, Note_on_c, 11, 72, 0
11, 10262, Note_on_c, 11, 72, 108
11, 10312, Note_on_c, 11, 72, 0
11, 10322, Note_on_c, 11, 71, 108
11, 10372, Note_on_c, 11, 71, 0
11, 10382, Note_on_c, 11, 71, 108
11, 10432, Note_on_c, 11, 71, 0
11, 10442, Note_on_c, 11, 71, 108
11, 10492, Note_on_c, 11, 71, 0
11, 10502, Note_on_c, 11, 71, 108
11, 10552, Note_on_c, 11, 71, 0
11, 10562, Note_on_c, 11, 64, 108
11, 10592, Note_on_c, 11, 64, 0
11, 10622, Note_on_c, 11, 76, 108
11, 10652, Note_on_c, 11, 76, 0
11, 10652, Note_on_c, 11, 74, 108
11, 10682, Note_on_c, 11, 74, 0
11, 10682, Note_on_c, 11, 72, 108
11, 10712, Note_on_c, 11, 72, 0
11, 10712, Note_on_c, 11, 71, 108
11, 10742, Note_on_c, 11, 71, 0
11, 10742, Note_on_c, 11, 69, 108
11, 10772, Note_on_c, 11, 69, 0
11, 10772, Note_on_c, 11, 68, 108
11, 10792, Note_on_c, 11, 68, 0
11, 10802, Note_on_c, 11, 69, 108
11, 10832, Note_on_c, 11, 69, 0
11, 10862, Note_on_c, 11, 76, 108
11, 10892, Note_on_c, 11, 76, 0
11, 10892, Note_on_c, 11, 74, 108
11, 10922, Note_on_c, 11, 74, 0
11, 10922, Note_on_c, 11, 73, 108
11, 10952, Note_on_c, 11, 73, 0
11, 10952, Note_on_c, 11, 71, 108
11, 10982, Note_on_c, 11, 71, 0
11, 10982, Note_on_c, 11, 69, 108
11, 11012, Note_on_c, 11, 69, 0
11, 11012, Note_on_c, 11, 67, 108
11, 11032, Note_on_c, 11, 67, 0
11, 11042, Note_on_c, 11, 66, 108
11, 11062, Note_on_c, 11, 66, 0
11, 11072, Note_on_c, 11, 66, 108
11, 11072, Note_on_c, 11, 69, 108
11, 11092, Note_on_c, 11, 69, 0
11, 11092, Note_on_c, 11, 66, 0
11, 11102, Note_on_c, 11, 69, 108
11, 11102, Note_on_c, 11, 66, 108
11, 11122, Note_on_c, 11, 66, 0
11, 11122, Note_on_c, 11, 69, 0
11, 11132, Note_on_c, 11, 69, 108
11, 11132, Note_on_c, 11, 66, 108
11, 11152, Note_on_c, 11, 66, 0
11, 11152, Note_on_c, 11, 69, 0
11, 11162, Note_on_c, 11, 66, 108
11, 11162, Note_on_c, 11, 69, 108
11, 11182, Note_on_c, 11, 69, 0
11, 11182, Note_on_c, 11, 66, 0
11, 11192, Note_on_c, 11, 66, 108
11, 11192, Note_on_c, 11, 69, 108
11, 11212, Note_on_c, 11, 69, 0
11, 11212, Note_on_c, 11, 66, 0
11, 11222, Note_on_c, 11, 66, 108
11, 11222, Note_on_c, 11, 69, 108
11, 11242, Note_on_c, 11, 69, 0
11, 11242, Note_on_c, 11, 66, 0
11, 11252, Note_on_c, 11, 66, 108
11, 11252, Note_on_c, 11, 69, 108
11, 11272, Note_on_c, 11, 69, 0
11, 11272, Note_on_c, 11, 66, 0
11, 11282, Note_on_c, 11, 66, 108
11, 11282, Note_on_c, 11, 69, 108
11, 11302, Note_on_c, 11, 69, 0
11, 11302, Note_on_c, 11, 66, 0
11, 11312, Note_on_c, 11, 66, 108
11, 11312, Note_on_c, 11, 69, 108
11, 11332, Note_on_c, 11, 69, 0
11, 11332, Note_on_c, 11, 66, 0
11, 11342, Note_on_c, 11, 69, 108
11, 11342, Note_on_c, 11, 66, 108
11, 11362, Note_on_c, 11, 66, 0
11, 11362, Note_on_c, 11, 69, 0
11, 11372, Note_on_c, 11, 69, 108
11, 11372, Note_on_c, 11, 66, 108
11, 11392, Note_on_c, 11, 66, 0
11, 11392, Note_on_c, 11, 69, 0
11, 11402, Note_on_c, 11, 66, 108
11, 11402, Note_on_c, 11, 69, 108
11, 11422, Note_on_c, 11, 69, 0
11, 11422, Note_on_c, 11, 66, 0
11, 11432, Note_on_c, 11, 66, 108
11, 11432, Note_on_c, 11, 69, 108
11, 11452, Note_on_c, 11, 69, 0
11, 11452, Note_on_c, 11, 66, 0
11, 11462, Note_on_c, 11, 66, 108
11, 11462, Note_on_c, 11, 69, 108
11, 11482, Note_on_c, 11, 69, 0
11, 11482, Note_on_c, 11, 66, 0
11, 11492, Note_on_c, 11, 69, 108
11, 11492, Note_on_c, 11, 66, 108
11, 11512, Note_on_c, 11, 66, 0
11, 11512, Note_on_c, 11, 69, 0
11, 11522, Note_on_c, 11, 67, 108
11, 11522, Note_on_c, 11, 71, 108
11, 11542, Note_on_c, 11, 71, 0
11, 11542, Note_on_c, 11, 67, 0
11, 11552, Note_on_c, 11, 67, 108
11, 11552, Note_on_c, 11, 71, 108
11, 11572, Note_on_c, 11, 71, 0
11, 11572, Note_on_c, 11, 67, 0
11, 11582, Note_on_c, 11, 67, 108
11, 11582, Note_on_c, 11, 71, 108
11, 11602, Note_on_c, 11, 71, 0
11, 11602, Note_on_c, 11, 67, 0
11, 11612, Note_on_c, 11, 67, 108
11, 11612, Note_on_c, 11, 71, 108
11, 11632, Note_on_c, 11, 71, 0
11, 11632, Note_on_c, 11, 67, 0
11, 11642, Note_on_c, 11, 67, 108
11, 11642, Note_on_c, 11, 71, 108
11, 11662, Note_on_c, 11, 71, 0
11, 11662, Note_on_c, 11, 67, 0
11, 11672, Note_on_c, 11, 71, 108
11, 11672, Note_on_c, 11, 67, 108
11, 11692, Note_on_c, 11, 67, 0
11, 11692, Note_on_c, 11, 71, 0
11, 11702, Note_on_c, 11, 71, 108
11, 11702, Note_on_c, 11, 67, 108
11, 11722, Note_on_c, 11, 67, 0
11, 11722, Note_on_c, 11, 71, 0
11, 11732, Note_on_c, 11, 71, 108
11, 11732, Note_on_c, 11, 67, 108
11, 11752, Note_on_c, 11, 67, 0
11, 11752, Note_on_c, 11, 71, 0
11, 11762, Note_on_c, 11, 71, 108
11, 11762, Note_on_c, 11, 67, 108
11, 11782, Note_on_c, 11, 67, 0
11, 11782, Note_on_c, 11, 71, 0
11, 11792, Note_on_c, 11, 71, 108
11, 11792, Note_on_c, 11, 67, 108
11, 11812, Note_on_c, 11, 67, 0
11, 11812, Note_on_c, 11, 71, 0
11, 11822, Note_on_c, 11, 71, 108
11, 11822, Note_on_c, 11, 67, 108
11, 11842, Note_on_c, 11, 67, 0
11, 11842, Note_on_c, 11, 71, 0
11, 11852, Note_on_c, 11, 67, 108
11, 11852, Note_on_c, 11, 71, 108
11, 11872, Note_on_c, 11, 71, 0
11, 11872, Note_on_c, 11, 67, 0
11, 11882, Note_on_c, 11, 71, 108
11, 11882, Note_on_c, 11, 67, 108
11, 11902, Note_on_c, 11, 67, 0
11, 11902, Note_on_c, 11, 71, 0
11, 11912, Note_on_c, 11, 71, 108
11, 11912, Note_on_c, 11, 67, 108
11, 11932, Note_on_c, 11, 67, 0
11, 11932, Note_on_c, 11, 71, 0
11, 11942, Note_on_c, 11, 67, 108
11, 11942, Note_on_c, 11, 71, 108
11, 11962, Note_on_c, 11, 71, 0
11, 11962, Note_on_c, 11, 67, 0
11, 11972, Note_on_c, 11, 67, 108
11, 11972, Note_on_c, 11, 71, 108
11, 11992, Note_on_c, 11, 71, 0
11, 11992, Note_on_c, 11, 67, 0
11, 12002, Note_on_c, 11, 66, 108
11, 12002, Note_on_c, 11, 69, 108
11, 12022, Note_on_c, 11, 69, 0
11, 12022, Note_on_c, 11, 66, 0
11, 12032, Note_on_c, 11, 78, 108
11, 12052, Note_on_c, 11, 78, 0
11, 12062, Note_on_c, 11, 78, 108
11, 12082, Note_on_c, 11, 78, 0
11, 12092, Note_on_c, 11, 78, 108
11, 12112, Note_on_c, 11, 78, 0
11, 12122, Note_on_c, 11, 78, 108
11, 12142, Note_on_c, 11, 78, 0
11, 12152, Note_on_c, 11, 78, 108
11, 12172, Note_on_c, 11, 78, 0
11, 12182, Note_on_c, 11, 78, 108
11, 12202, Note_on_c, 11, 78, 0
11, 12212, Note_on_c, 11, 78, 108
11, 12232, Note_on_c, 11, 78, 0
11, 12242, Note_on_c, 11, 78, 108
11, 12262, Note_on_c, 11, 78, 0
11, 12272, Note_on_c, 11, 78, 108
11, 12292, Note_on_c, 11, 78, 0
11, 12302, Note_on_c, 11, 78, 108
11, 12322, Note_on_c, 11, 78, 0
11, 12332, Note_on_c, 11, 78, 108
11, 12352, Note_on_c, 11, 78, 0
11, 12362, Note_on_c, 11, 78, 108
11, 12382, Note_on_c, 11, 78, 0
11, 12392, Note_on_c, 11, 78, 108
11, 12412, Note_on_c, 11, 78, 0
11, 12422, Note_on_c, 11, 78, 108
11, 12442, Note_on_c, 11, 78, 0
11, 12452, Note_on_c, 11, 78, 108
11, 12472, Note_on_c, 11, 78, 0
11, 12482, Note_on_c, 11, 79, 108
11, 12502, Note_on_c, 11, 79, 0
11, 12512, Note_on_c, 11, 79, 108
11, 12532, Note_on_c, 11, 79, 0
11, 12542, Note_on_c, 11, 79, 108
11, 12562, Note_on_c, 11, 79, 0
11, 12572, Note_on_c, 11, 79, 108
11, 12592, Note_on_c, 11, 79, 0
11, 12602, Note_on_c, 11, 79, 108
11, 12622, Note_on_c, 11, 79, 0
11, 12632, Note_on_c, 11, 79, 108
11, 12652, Note_on_c, 11, 79, 0
11, 12662, Note_on_c, 11, 79, 108
11, 12682, Note_on_c, 11, 79, 0
11, 12692, Note_on_c, 11, 79, 108
11, 12712, Note_on_c, 11, 79, 0
11, 12722, Note_on_c, 11, 79, 108
11, 12742, Note_on_c, 11, 79, 0
11, 12752, Note_on_c, 11, 79, 108
11, 12772, Note_on_c, 11, 79, 0
11, 12782, Note_on_c, 11, 79, 108
11, 12802, Note_on_c, 11, 79, 0
11, 12812, Note_on_c, 11, 79, 108
11, 12832, Note_on_c, 11, 79, 0
11, 12842, Note_on_c, 11, 79, 108
11, 12862, Note_on_c, 11, 79, 0
11, 12872, Note_on_c, 11, 79, 108
11, 12892, Note_on_c, 11, 79, 0
11, 12902, Note_on_c, 11, 79, 108
11, 12922, Note_on_c, 11, 79, 0
11, 12932, Note_on_c, 11, 79, 108
11, 12952, Note_on_c, 11, 79, 0
11, 12962, Note_on_c, 11, 78, 93
11, 13082, Note_on_c, 11, 78, 0
11, 13442, Note_on_c, 11, 62, 108
11, 13442, Control_c, 11, 11, 37
11, 13460, Control_c, 11, 11, 39
11, 13478, Control_c, 11, 11, 41
11, 13496, Control_c, 11, 11, 43
11, 13514, Control_c, 11, 11, 45
11, 13532, Control_c, 11, 11, 47
11, 13612, Note_on_c, 11, 62, 0
11, 13622, Note_on_c, 11, 67, 108
11, 13682, Note_on_c, 11, 67, 0
11, 13682, Note_on_c, 11, 66, 118
11, 13712, Note_on_c, 11, 66, 0
11, 13742, Note_on_c, 11, 66, 108
11, 13772, Note_on_c, 11, 66, 0
11, 13862, Note_on_c, 11, 69, 108
11, 13922, Note_on_c, 11, 69, 0
11, 13922, Note_on_c, 11, 67, 118
11, 13952, Note_on_c, 11, 67, 0
11, 13982, Note_on_c, 11, 67, 108
11, 14012, Note_on_c, 11, 67, 0
11, 14102, Note_on_c, 11, 71, 108
11, 14162, Note_on_c, 11, 71, 0
11, 14162, Note_on_c, 11, 69, 118
11, 14192, Note_on_c, 11, 69, 0
11, 14222, Note_on_c, 11, 66, 108
11, 14252, Note_on_c, 11, 66, 0
11, 14282, Note_on_c, 11, 62, 108
11, 14312, Note_on_c, 11, 62, 0
11, 14342, Note_on_c, 11, 60, 108
11, 14372, Note_on_c, 11, 60, 0
11, 14402, Note_on_c, 11, 59, 108
11, 14462, Note_on_c, 11, 59, 0
11, 14462, Note_on_c, 11, 62, 108
11, 14522, Note_on_c, 11, 62, 0
11, 14582, Note_on_c, 11, 67, 108
11, 14612, Note_on_c, 11, 67, 0
11, 14642, Note_on_c, 11, 67, 118
11, 14702, Note_on_c, 11, 67, 0
11, 14702, Note_on_c, 11, 66, 108
11, 14762, Note_on_c, 11, 66, 0
11, 14822, Note_on_c, 11, 69, 108
11, 14852, Note_on_c, 11, 69, 0
11, 14882, Note_on_c, 11, 69, 118
11, 14942, Note_on_c, 11, 69, 0
11, 14942, Note_on_c, 11, 67, 108
11, 15002, Note_on_c, 11, 67, 0
11, 15062, Note_on_c, 11, 71, 108
11, 15122, Note_on_c, 11, 71, 0
11, 15122, Note_on_c, 11, 69, 118
11, 15152, Note_on_c, 11, 69, 0
11, 15182, Note_on_c, 11, 66, 108
11, 15212, Note_on_c, 11, 66, 0
11, 15242, Note_on_c, 11, 62, 108
11, 15272, Note_on_c, 11, 62, 0
11, 15302, Note_on_c, 11, 60, 108
11, 15332, Note_on_c, 11, 60, 0
11, 15362, Note_on_c, 11, 59, 108
11, 15422, Note_on_c, 11, 59, 0
11, 15422, Note_on_c, 11, 62, 108
11, 15472, Note_on_c, 11, 62, 0
11, 15482, Note_on_c, 11, 62, 108
11, 15512, Note_on_c, 11, 62, 0
11, 15542, Note_on_c, 11, 67, 108
11, 15572, Note_on_c, 11, 67, 0
11, 15602, Control_c, 11, 11, 47
11, 15602, Note_on_c, 11, 67, 118
11, 15632, Control_c, 11, 11, 48
11, 15662, Note_on_c, 11, 67, 0
11, 15662, Control_c, 11, 11, 49
11, 15662, Note_on_c, 11, 66, 108
11, 15692, Control_c, 11, 11, 50
11, 15712, Note_on_c, 11, 66, 0
11, 15722, Note_on_c, 11, 66, 108
11, 15722, Control_c, 11, 11, 51
11, 15752, Note_on_c, 11, 66, 0
11, 15752, Control_c, 11, 11, 52
11, 15782, Control_c, 11, 11, 53
11, 15782, Note_on_c, 11, 69, 108
11, 15812, Note_on_c, 11, 69, 0
11, 15812, Control_c, 11, 11, 54
11, 15842, Note_on_c, 11, 69, 118
11, 15842, Control_c, 11, 11, 55
11, 15872, Control_c, 11, 11, 56
11, 15902, Note_on_c, 11, 69, 0
11, 15902, Note_on_c, 11, 67, 108
11, 15902, Control_c, 11, 11, 57
11, 15932, Control_c, 11, 11, 58
11, 15952, Note_on_c, 11, 67, 0
11, 15962, Note_on_c, 11, 67, 108
11, 15962, Control_c, 11, 11, 59
11, 15992, Note_on_c, 11, 67, 0
11, 15992, Control_c, 11, 11, 60
11, 16022, Control_c, 11, 11, 61
11, 16022, Note_on_c, 11, 71, 108
11, 16052, Note_on_c, 11, 71, 0
11, 16052, Control_c, 11, 11, 62
11, 16082, Control_c, 11, 11, 63
11, 16082, Note_on_c, 11, 71, 118
11, 16112, Control_c, 11, 11, 64
11, 16142, Note_on_c, 11, 71, 0
11, 16142, Note_on_c, 11, 69, 108
11, 16142, Control_c, 11, 11, 65
11, 16172, Control_c, 11, 11, 66
11, 16192, Note_on_c, 11, 69, 0
11, 16202, Control_c, 11, 11, 67
11, 16202, Note_on_c, 11, 69, 108
11, 16232, Note_on_c, 11, 69, 0
11, 16232, Control_c, 11, 11, 68
11, 16262, Note_on_c, 11, 72, 108
11, 16262, Control_c, 11, 11, 69
11, 16292, Note_on_c, 11, 72, 0
11, 16292, Control_c, 11, 11, 70
11, 16322, Note_on_c, 11, 72, 118
11, 16322, Control_c, 11, 11, 71
11, 16352, Control_c, 11, 11, 72
11, 16382, Note_on_c, 11, 72, 0
11, 16382, Note_on_c, 11, 71, 108
11, 16382, Control_c, 11, 11, 73
11, 16412, Control_c, 11, 11, 74
11, 16432, Note_on_c, 11, 71, 0
11, 16442, Control_c, 11, 11, 75
11, 16442, Note_on_c, 11, 71, 108
11, 16472, Note_on_c, 11, 71, 0
11, 16472, Control_c, 11, 11, 76
11, 16502, Control_c, 11, 11, 77
11, 16502, Note_on_c, 11, 74, 108
11, 16532, Note_on_c, 11, 74, 0
11, 16532, Control_c, 11, 11, 78
11, 16562, Note_on_c, 11, 74, 118
11, 16562, Control_c, 11, 11, 79
11, 16592, Control_c, 11, 11, 80
11, 16622, Note_on_c, 11, 74, 0
11, 16622, Control_c, 11, 11, 81
11, 16622, Note_on_c, 11, 72, 108
11, 16652, Control_c, 11, 11, 82
11, 16672, Note_on_c, 11, 72, 0
11, 16682, Note_on_c, 11, 72, 108
11, 16682, Control_c, 11, 11, 83
11, 16712, Note_on_c, 11, 72, 0
11, 16712, Control_c, 11, 11, 84
11, 16742, Note_on_c, 11, 76, 108
11, 16742, Control_c, 11, 11, 85
11, 16772, Note_on_c, 11, 76, 0
11, 16772, Control_c, 11, 11, 86
11, 16802, Note_on_c, 11, 77, 108
11, 16802, Control_c, 11, 11, 90
11, 16808, Control_c, 11, 11, 93
11, 16814, Control_c, 11, 11, 96
11, 16820, Control_c, 11, 11, 99
11, 16834, Control_c, 11, 11, 96
11, 16843, Control_c, 11, 11, 93
11, 16852, Control_c, 11, 11, 90
11, 16861, Control_c, 11, 11, 87
11, 17022, Note_on_c, 11, 77, 0
11, 17042, Note_on_c, 11, 68, 108
11, 17042, Control_c, 11, 11, 92
11, 17050, Control_c, 11, 11, 95
11, 17059, Control_c, 11, 11, 98
11, 17068, Control_c, 11, 11, 101
11, 17083, Control_c, 11, 11, 100
11, 17101, Control_c, 11, 11, 97
11, 17119, Control_c, 11, 11, 94
11, 17137, Control_c, 11, 11, 91
11, 17155, Control_c, 11, 11, 88
11, 17262, Note_on_c, 11, 68, 0
11, 17282, Control_c, 11, 11, 92
11, 17282, Note_on_c, 11, 69, 108
11, 17290, Control_c, 11, 11, 95
11, 17299, Control_c, 11, 11, 98
11, 17308, Control_c, 11, 11, 101
11, 17323, Control_c, 11, 11, 100
11, 17341, Control_c, 11, 11, 97
11, 17359, Control_c, 11, 11, 94
11, 17377, Control_c, 11, 11, 91
11, 17395, Control_c, 11, 11, 88
11, 17502, Note_on_c, 11, 69, 0
11, 17522, Control_c, 11, 11, 92
11, 17522, Note_on_c, 11, 70, 108
11, 17530, Control_c, 11, 11, 95
11, 17539, Control_c, 11, 11, 98
11, 17548, Control_c, 11, 11, 101
11, 17563, Control_c, 11, 11, 100
11, 17581, Control_c, 11, 11, 97
11, 17599, Control_c, 11, 11, 94
11, 17617, Control_c, 11, 11, 91
11, 17635, Control_c, 11, 11, 88
11, 17742, Note_on_c, 11, 70, 0
11, 17762, Note_on_c, 11, 71, 108
11, 17782, Note_on_c, 11, 71, 0
11, 17792, Note_on_c, 11, 75, 108
11, 17812, Note_on_c, 11, 75, 0
11, 17822, Note_on_c, 11, 75, 108
11, 17842, Note_on_c, 11, 75, 0
11, 17852, Note_on_c, 11, 75, 108
11, 17872, Note_on_c, 11, 75, 0
11, 17882, Control_c, 11, 11, 102
11, 17882, Note_on_c, 11, 75, 108
11, 17902, Note_on_c, 11, 75, 0
11, 17912, Note_on_c, 11, 75, 108
11, 17932, Note_on_c, 11, 75, 0
11, 17942, Note_on_c, 11, 75, 108
11, 17962, Note_on_c, 11, 75, 0
11, 17972, Note_on_c, 11, 75, 108
11, 17992, Note_on_c, 11, 75, 0
11, 18002, Note_on_c, 11, 75, 108
11, 18022, Note_on_c, 11, 75, 0
11, 18032, Note_on_c, 11, 75, 108
11, 18052, Note_on_c, 11, 75, 0
11, 18062, Note_on_c, 11, 75, 108
11, 18082, Note_on_c, 11, 75, 0
11, 18092, Note_on_c, 11, 75, 108
11, 18112, Note_on_c, 11, 75, 0
11, 18122, Note_on_c, 11, 74, 108
11, 18142, Note_on_c, 11, 74, 0
11, 18152, Note_on_c, 11, 74, 108
11, 18172, Note_on_c, 11, 74, 0
11, 18182, Note_on_c, 11, 74, 108
11, 18202, Note_on_c, 11, 74, 0
11, 18212, Note_on_c, 11, 74, 108
11, 18232, Note_on_c, 11, 74, 0
11, 18242, Note_on_c, 11, 74, 108
11, 18262, Note_on_c, 11, 74, 0
11, 18272, Note_on_c, 11, 74, 108
11, 18292, Note_on_c, 11, 74, 0
11, 18302, Note_on_c, 11, 74, 108
11, 18322, Note_on_c, 11, 74, 0
11, 18332, Note_on_c, 11, 74, 108
11, 18352, Note_on_c, 11, 74, 0
11, 18362, Note_on_c, 11, 72, 108
11, 18382, Note_on_c, 11, 72, 0
11, 18392, Note_on_c, 11, 72, 108
11, 18412, Note_on_c, 11, 72, 0
11, 18422, Note_on_c, 11, 72, 108
11, 18442, Note_on_c, 11, 72, 0
11, 18452, Note_on_c, 11, 72, 108
11, 18472, Note_on_c, 11, 72, 0
11, 18482, Note_on_c, 11, 71, 108
11, 18502, Note_on_c, 11, 71, 0
11, 18512, Note_on_c, 11, 71, 108
11, 18532, Note_on_c, 11, 71, 0
11, 18542, Note_on_c, 11, 71, 108
11, 18562, Note_on_c, 11, 71, 0
11, 18572, Note_on_c, 11, 71, 108
11, 18592, Note_on_c, 11, 71, 0
11, 18602, Note_on_c, 11, 69, 108
11, 18622, Note_on_c, 11, 69, 0
11, 18632, Note_on_c, 11, 69, 108
11, 18652, Note_on_c, 11, 69, 0
11, 18662, Note_on_c, 11, 69, 108
11, 18682, Note_on_c, 11, 69, 0
11, 18692, Note_on_c, 11, 69, 108
11, 18712, Note_on_c, 11, 69, 0
11, 18722, Note_on_c, 11, 67, 108
11, 18842, Note_on_c, 11, 67, 0
11, 19022, Note_on_c, 11, 72, 108
11, 19022, Control_c, 11, 11, 122
11, 19022, Note_on_c, 11, 79, 108
11, 19030, Control_c, 11, 11, 119
11, 19039, Control_c, 11, 11, 116
11, 19048, Control_c, 11, 11, 113
11, 19057, Control_c, 11, 11, 110
11, 19066, Control_c, 11, 11, 107
11, 19075, Control_c, 11, 11, 104
11, 19122, Note_on_c, 11, 79, 0
11, 19122, Note_on_c, 11, 72, 0
11, 19142, Note_on_c, 11, 79, 108
11, 19142, Note_on_c, 11, 72, 108
11, 19187, Note_on_c, 11, 72, 0
11, 19187, Note_on_c, 11, 79, 0
11, 19202, Note_on_c, 11, 71, 108
11, 19202, Note_on_c, 11, 79, 108
11, 19262, Note_on_c, 11, 79, 0
11, 19262, Note_on_c, 11, 71, 0
11, 19502, Note_on_c, 11, 69, 108
11, 19502, Note_on_c, 11, 78, 108
11, 19502, Control_c, 11, 11, 122
11, 19510, Control_c, 11, 11, 119
11, 19519, Control_c, 11, 11, 116
11, 19528, Control_c, 11, 11, 113
11, 19537, Control_c, 11, 11, 110
11, 19546, Control_c, 11, 11, 107
11, 19555, Control_c, 11, 11, 104
11, 19602, Note_on_c, 11, 78, 0
11, 19602, Note_on_c, 11, 69, 0
11, 19622, Note_on_c, 11, 78, 108
11, 19622, Note_on_c, 11, 69, 108
11, 19667, Note_on_c, 11, 69, 0
11, 19667, Note_on_c, 11, 78, 0
11, 19682, Note_on_c, 11, 71, 108
11, 19682, Note_on_c, 11, 79, 108
11, 19742, Note_on_c, 11, 79, 0
11, 19742, Note_on_c, 11, 71, 0
11, 19982, Note_on_c, 11, 79, 108
11, 19982, Control_c, 11, 11, 122
11, 19982, Note_on_c, 11, 72, 108
11, 19990, Control_c, 11, 11, 119
11, 19999, Control_c, 11, 11, 116
11, 20008, Control_c, 11, 11, 113
11, 20017, Control_c, 11, 11, 110
11, 20026, Control_c, 11, 11, 107
11, 20035, Control_c, 11, 11, 104
11, 20082, Note_on_c, 11, 72, 0
11, 20082, Note_on_c, 11, 79, 0
11, 20102, Note_on_c, 11, 79, 108
11, 20102, Note_on_c, 11, 72, 108
11, 20147, Note_on_c, 11, 72, 0
11, 20147, Note_on_c, 11, 79, 0
11, 20162, Note_on_c, 11, 79, 108
11, 20162, Note_on_c, 11, 71, 108
11, 20222, Note_on_c, 11, 71, 0
11, 20222, Note_on_c, 11, 79, 0
11, 20462, Note_on_c, 11, 78, 108
11, 20462, Note_on_c, 11, 69, 108
11, 20462, Control_c, 11, 11, 122
11, 20470, Control_c, 11, 11, 119
11, 20479, Control_c, 11, 11, 116
11, 20488, Control_c, 11, 11, 113
11, 20497, Control_c, 11, 11, 110
11, 20506, Control_c, 11, 11, 107
11, 20515, Control_c, 11, 11, 104
11, 20562, Note_on_c, 11, 69, 0
11, 20562, Note_on_c, 11, 78, 0
11, 20582, Note_on_c, 11, 69, 108
11, 20582, Note_on_c, 11, 78, 108
11, 20627, Note_on_c, 11, 78, 0
11, 20627, Note_on_c, 11, 69, 0
11, 20642, Note_on_c, 11, 79, 108
11, 20642, Note_on_c, 11, 71, 108
11, 20702, Note_on_c, 11, 71, 0
11, 20702, Note_on_c, 11, 79, 0
11, 20792, Note_on_c, 11, 59, 127
11, 20807, Note_on_c, 11, 59, 0
11, 20822, Note_on_c, 11, 60, 127
11, 20837, Note_on_c, 11, 60, 0
11, 20852, Note_on_c, 11, 62, 127
11, 20867, Note_on_c, 11, 62, 0
11, 20882, Note_on_c, 11, 64, 127
11, 20897, Note_on_c, 11, 64, 0
11, 20912, Note_on_c, 11, 66, 127
11, 20927, Note_on_c, 11, 66, 0
11, 20942, Note_on_c, 11, 67, 127
11, 20957, Note_on_c, 11, 67, 0
11, 20972, Note_on_c, 11, 69, 127
11, 20987, Note_on_c, 11, 69, 0
11, 21002, Note_on_c, 11, 71, 127
11, 21032, Note_on_c, 11, 71, 0
11, 21062, Note_on_c, 11, 71, 127
11, 21092, Note_on_c, 11, 71, 0
11, 21122, Control_c, 11, 11, 122
11, 21122, Note_on_c, 11, 72, 127
11, 21139, Control_c, 11, 11, 119
11, 21157, Control_c, 11, 11, 116
11, 21175, Control_c, 11, 11, 113
11, 21193, Control_c, 11, 11, 110
11, 21211, Control_c, 11, 11, 107
11, 21229, Control_c, 11, 11, 104
11, 21262, Note_on_c, 11, 72, 0
11, 21272, Note_on_c, 11, 60, 127
11, 21287, Note_on_c, 11, 60, 0
11, 21302, Note_on_c, 11, 62, 127
11, 21317, Note_on_c, 11, 62, 0
11, 21332, Note_on_c, 11, 64, 127
11, 21347, Note_on_c, 11, 64, 0
11, 21362, Note_on_c, 11, 66, 127
11, 21377, Note_on_c, 11, 66, 0
11, 21392, Note_on_c, 11, 67, 127
11, 21407, Note_on_c, 11, 67, 0
11, 21422, Note_on_c, 11, 69, 127
11, 21437, Note_on_c, 11, 69, 0
11, 21452, Note_on_c, 11, 71, 127
11, 21467, Note_on_c, 11, 71, 0
11, 21482, Note_on_c, 11, 72, 127
11, 21512, Note_on_c, 11, 72, 0
11, 21542, Note_on_c, 11, 72, 127
11, 21572, Note_on_c, 11, 72, 0
11, 21602, Control_c, 11, 11, 122
11, 21602, Note_on_c, 11, 74, 127
11, 21619, Control_c, 11, 11, 119
11, 21637, Control_c, 11, 11, 116
11, 21655, Control_c, 11, 11, 113
11, 21673, Control_c, 11, 11, 110
11, 21691, Control_c, 11, 11, 107
11, 21709, Control_c, 11, 11, 104
11, 21742, Note_on_c, 11, 74, 0
11, 21752, Note_on_c, 11, 62, 127
11, 21767, Note_on_c, 11, 62, 0
11, 21782, Note_on_c, 11, 64, 127
11, 21797, Note_on_c, 11, 64, 0
11, 21812, Note_on_c, 11, 66, 127
11, 21827, Note_on_c, 11, 66, 0
11, 21842, Note_on_c, 11, 67, 127
11, 21857, Note_on_c, 11, 67, 0
11, 21872, Note_on_c, 11, 69, 127
11, 21887, Note_on_c, 11, 69, 0
11, 21902, Note_on_c, 11, 71, 127
11, 21917, Note_on_c, 11, 71, 0
11, 21932, Note_on_c, 11, 72, 127
11, 21947, Note_on_c, 11, 72, 0
11, 21962, Note_on_c, 11, 74, 127
11, 21992, Note_on_c, 11, 74, 0
11, 22022, Note_on_c, 11, 74, 127
11, 22052, Note_on_c, 11, 74, 0
11, 22082, Control_c, 11, 11, 122
11, 22082, Note_on_c, 11, 76, 127
11, 22099, Control_c, 11, 11, 119
11, 22117, Control_c, 11, 11, 116
11, 22135, Control_c, 11, 11, 113
11, 22153, Control_c, 11, 11, 110
11, 22171, Control_c, 11, 11, 107
11, 22189, Control_c, 11, 11, 104
11, 22222, Note_on_c, 11, 76, 0
11, 22232, Note_on_c, 11, 64, 127
11, 22247, Note_on_c, 11, 64, 0
11, 22262, Note_on_c, 11, 65, 127
11, 22277, Note_on_c, 11, 65, 0
11, 22292, Note_on_c, 11, 67, 127
11, 22307, Note_on_c, 11, 67, 0
11, 22322, Note_on_c, 11, 69, 127
11, 22337, Note_on_c, 11, 69, 0
11, 22352, Note_on_c, 11, 71, 127
11, 22367, Note_on_c, 11, 71, 0
11, 22382, Note_on_c, 11, 72, 127
11, 22397, Note_on_c, 11, 72, 0
11, 22412, Note_on_c, 11, 74, 127
11, 22427, Note_on_c, 11, 74, 0
11, 22442, Note_on_c, 11, 76, 127
11, 22472, Note_on_c, 11, 76, 0
11, 22502, Note_on_c, 11, 76, 127
11, 22532, Note_on_c, 11, 76, 0
11, 22562, Control_c, 11, 11, 122
11, 22562, Note_on_c, 11, 77, 108
11, 22579, Control_c, 11, 11, 119
11, 22597, Control_c, 11, 11, 116
11, 22615, Control_c, 11, 11, 113
11, 22633, Control_c, 11, 11, 110
11, 22651, Control_c, 11, 11, 107
11, 22669, Control_c, 11, 11, 104
11, 22742, Note_on_c, 11, 77, 0
11, 22742, Note_on_c, 11, 76, 108
11, 22787, Note_on_c, 11, 76, 0
11, 22802, Control_c, 11, 11, 122
11, 22802, Note_on_c, 11, 77, 108
11, 22819, Control_c, 11, 11, 119
11, 22837, Control_c, 11, 11, 116
11, 22855, Control_c, 11, 11, 113
11, 22873, Control_c, 11, 11, 110
11, 22891, Control_c, 11, 11, 107
11, 22909, Control_c, 11, 11, 104
11, 22982, Note_on_c, 11, 77, 0
11, 22982, Note_on_c, 11, 76, 108
11, 23027, Note_on_c, 11, 76, 0
11, 23042, Control_c, 11, 11, 92
11, 23042, Note_on_c, 11, 77, 108
11, 23053, Control_c, 11, 11, 89
11, 23065, Control_c, 11, 11, 86
11, 23072, Note_on_c, 11, 77, 0
11, 23077, Control_c, 11, 11, 83
11, 23089, Control_c, 11, 11, 80
11, 23101, Control_c, 11, 11, 77
11, 23102, Note_on_c, 11, 76, 108
11, 23113, Control_c, 11, 11, 74
11, 23125, Control_c, 11, 11, 71
11, 23132, Note_on_c, 11, 76, 0
11, 23137, Control_c, 11, 11, 68
11, 23149, Control_c, 11, 11, 65
11, 23161, Control_c, 11, 11, 62
11, 23162, Note_on_c, 11, 74, 108
11, 23173, Control_c, 11, 11, 59
11, 23185, Control_c, 11, 11, 56
11, 23192, Note_on_c, 11, 74, 0
11, 23197, Control_c, 11, 11, 53
11, 23209, Control_c, 11, 11, 50
11, 23221, Control_c, 11, 11, 47
11, 23222, Note_on_c, 11, 72, 108
11, 23252, Note_on_c, 11, 72, 0
11, 23282, Note_on_c, 11, 71, 108
11, 23312, Note_on_c, 11, 71, 0
11, 23342, Note_on_c, 11, 69, 108
11, 23372, Note_on_c, 11, 69, 0
11, 23402, Note_on_c, 11, 67, 108
11, 23432, Note_on_c, 11, 67, 0
11, 23462, Note_on_c, 11, 65, 108
11, 23492, Note_on_c, 11, 65, 0
11, 23522, Note_on_c, 11, 64, 108
11, 23542, Note_on_c, 11, 64, 0
11, 23552, Note_on_c, 11, 64, 108
11, 23572, Note_on_c, 11, 64, 0
11, 23582, Note_on_c, 11, 67, 108
11, 23602, Note_on_c, 11, 67, 0
11, 23612, Note_on_c, 11, 67, 108
11, 23632, Note_on_c, 11, 67, 0
11, 23642, Note_on_c, 11, 64, 108
11, 23662, Note_on_c, 11, 64, 0
11, 23672, Note_on_c, 11, 64, 108
11, 23692, Note_on_c, 11, 64, 0
11, 23702, Note_on_c, 11, 67, 108
11, 23722, Note_on_c, 11, 67, 0
11, 23732, Note_on_c, 11, 67, 108
11, 23752, Note_on_c, 11, 67, 0
11, 23762, Note_on_c, 11, 65, 108
11, 23782, Note_on_c, 11, 65, 0
11, 23792, Note_on_c, 11, 65, 108
11, 23812, Note_on_c, 11, 65, 0
11, 23822, Note_on_c, 11, 67, 108
11, 23842, Note_on_c, 11, 67, 0
11, 23852, Note_on_c, 11, 67, 108
11, 23872, Note_on_c, 11, 67, 0
11, 23882, Note_on_c, 11, 65, 108
11, 23902, Note_on_c, 11, 65, 0
11, 23912, Note_on_c, 11, 65, 108
11, 23932, Note_on_c, 11, 65, 0
11, 23942, Note_on_c, 11, 67, 108
11, 23962, Note_on_c, 11, 67, 0
11, 23972, Note_on_c, 11, 67, 108
11, 23992, Note_on_c, 11, 67, 0
11, 24002, Note_on_c, 11, 64, 108
11, 24022, Note_on_c, 11, 64, 0
11, 24032, Note_on_c, 11, 64, 108
11, 24052, Note_on_c, 11, 64, 0
11, 24062, Note_on_c, 11, 67, 108
11, 24082, Note_on_c, 11, 67, 0
11, 24092, Note_on_c, 11, 67, 108
11, 24112, Note_on_c, 11, 67, 0
11, 24122, Note_on_c, 11, 64, 108
11, 24142, Note_on_c, 11, 64, 0
11, 24152, Note_on_c, 11, 64, 108
11, 24172, Note_on_c, 11, 64, 0
11, 24182, Note_on_c, 11, 67, 108
11, 24202, Note_on_c, 11, 67, 0
11, 24212, Note_on_c, 11, 67, 108
11, 24232, Note_on_c, 11, 67, 0
11, 24242, Note_on_c, 11, 64, 108
11, 24262, Note_on_c, 11, 64, 0
11, 24272, Note_on_c, 11, 64, 108
11, 24292, Note_on_c, 11, 64, 0
11, 24302, Note_on_c, 11, 67, 108
11, 24322, Note_on_c, 11, 67, 0
11, 24332, Note_on_c, 11, 67, 108
11, 24352, Note_on_c, 11, 67, 0
11, 24362, Note_on_c, 11, 65, 108
11, 24382, Note_on_c, 11, 65, 0
11, 24392, Note_on_c, 11, 65, 108
11, 24412, Note_on_c, 11, 65, 0
11, 24422, Note_on_c, 11, 67, 108
11, 24442, Note_on_c, 11, 67, 0
11, 24452, Note_on_c, 11, 67, 108
11, 24472, Note_on_c, 11, 67, 0
11, 24482, Note_on_c, 11, 64, 108
11, 24502, Note_on_c, 11, 64, 0
11, 24512, Note_on_c, 11, 64, 108
11, 24532, Note_on_c, 11, 64, 0
11, 24542, Note_on_c, 11, 67, 108
11, 24562, Note_on_c, 11, 67, 0
11, 24572, Note_on_c, 11, 67, 108
11, 24592, Note_on_c, 11, 67, 0
11, 24602, Note_on_c, 11, 64, 108
11, 24622, Note_on_c, 11, 64, 0
11, 24632, Note_on_c, 11, 64, 108
11, 24652, Note_on_c, 11, 64, 0
11, 24662, Note_on_c, 11, 67, 108
11, 24682, Note_on_c, 11, 67, 0
11, 24692, Note_on_c, 11, 67, 108
11, 24712, Note_on_c, 11, 67, 0
11, 24722, Note_on_c, 11, 66, 108
11, 24742, Note_on_c, 11, 66, 0
11, 24752, Note_on_c, 11, 66, 108
11, 24772, Note_on_c, 11, 66, 0
11, 24782, Note_on_c, 11, 66, 108
11, 24802, Note_on_c, 11, 66, 0
11, 24812, Note_on_c, 11, 66, 108
11, 24832, Note_on_c, 11, 66, 0
11, 24842, Note_on_c, 11, 66, 108
11, 24862, Note_on_c, 11, 66, 0
11, 24872, Note_on_c, 11, 66, 108
11, 24892, Note_on_c, 11, 66, 0
11, 24902, Note_on_c, 11, 66, 108
11, 24922, Note_on_c, 11, 66, 0
11, 24932, Note_on_c, 11, 66, 108
11, 24952, Note_on_c, 11, 66, 0
11, 24962, Note_on_c, 11, 67, 84
11, 25082, Note_on_c, 11, 67, 0
11, 25142, Note_on_c, 11, 67, 108
11, 25192, Note_on_c, 11, 67, 0
11, 25202, Note_on_c, 11, 76, 108
11, 25232, Note_on_c, 11, 76, 0
11, 25262, Note_on_c, 11, 76, 108
11, 25292, Note_on_c, 11, 76, 0
11, 25322, Note_on_c, 11, 76, 108
11, 25352, Note_on_c, 11, 76, 0
11, 25382, Note_on_c, 11, 76, 108
11, 25412, Note_on_c, 11, 76, 0
11, 25442, Note_on_c, 11, 76, 108
11, 25562, Note_on_c, 11, 76, 0
11, 25562, Note_on_c, 11, 74, 108
11, 25612, Note_on_c, 11, 74, 0
11, 25622, Note_on_c, 11, 74, 108
11, 25652, Note_on_c, 11, 74, 0
11, 25682, Note_on_c, 11, 74, 108
11, 25712, Note_on_c, 11, 74, 0
11, 25742, Note_on_c, 11, 74, 108
11, 25772, Note_on_c, 11, 74, 0
11, 25802, Note_on_c, 11, 74, 108
11, 25832, Note_on_c, 11, 74, 0
11, 25862, Note_on_c, 11, 74, 108
11, 25892, Note_on_c, 11, 74, 0
11, 25922, Note_on_c, 11, 74, 108
11, 26042, Note_on_c, 11, 74, 0
11, 26042, Note_on_c, 11, 72, 108
11, 26092, Note_on_c, 11, 72, 0
11, 26102, Note_on_c, 11, 72, 108
11, 26132, Note_on_c, 11, 72, 0
11, 26162, Note_on_c, 11, 72, 108
11, 26192, Note_on_c, 11, 72, 0
11, 26222, Note_on_c, 11, 72, 108
11, 26252, Note_on_c, 11, 72, 0
11, 26282, Note_on_c, 11, 72, 108
11, 26312, Note_on_c, 11, 72, 0
11, 26342, Note_on_c, 11, 72, 108
11, 26372, Note_on_c, 11, 72, 0
11, 26402, Note_on_c, 11, 72, 108
11, 26462, Note_on_c, 11, 72, 0
11, 26522, Note_on_c, 11, 72, 108
11, 26582, Note_on_c, 11, 72, 0
11, 26642, Note_on_c, 11, 67, 108
11, 26702, Note_on_c, 11, 67, 0
11, 26762, Note_on_c, 11, 65, 108
11, 26822, Note_on_c, 11, 65, 0
11, 26882, Note_on_c, 11, 64, 108
11, 26942, Note_on_c, 11, 64, 0
11, 27182, Note_on_c, 11, 69, 108
11, 27182, Control_c, 11, 11, 47
11, 27197, Control_c, 11, 11, 48
11, 27212, Note_on_c, 11, 69, 0
11, 27212, Control_c, 11, 11, 49
11, 27227, Control_c, 11, 11, 50
11, 27242, Note_on_c, 11, 71, 108
11, 27243, Control_c, 11, 11, 51
11, 27258, Control_c, 11, 11, 52
11, 27272, Note_on_c, 11, 71, 0
11, 27273, Control_c, 11, 11, 53
11, 27288, Control_c, 11, 11, 54
11, 27302, Note_on_c, 11, 73, 108
11, 27304, Control_c, 11, 11, 55
11, 27319, Control_c, 11, 11, 56
11, 27332, Note_on_c, 11, 73, 0
11, 27334, Control_c, 11, 11, 57
11, 27350, Control_c, 11, 11, 58
11, 27362, Note_on_c, 11, 74, 108
11, 27365, Control_c, 11, 11, 59
11, 27380, Control_c, 11, 11, 60
11, 27392, Note_on_c, 11, 74, 0
11, 27395, Control_c, 11, 11, 61
11, 27411, Control_c, 11, 11, 62
11, 27422, Note_on_c, 11, 76, 108
11, 27426, Control_c, 11, 11, 63
11, 27441, Control_c, 11, 11, 64
11, 27452, Note_on_c, 11, 76, 0
11, 27456, Control_c, 11, 11, 65
11, 27472, Control_c, 11, 11, 66
11, 27482, Note_on_c, 11, 77, 108
11, 27487, Control_c, 11, 11, 67
11, 27502, Control_c, 11, 11, 68
11, 27512, Note_on_c, 11, 77, 0
11, 27518, Control_c, 11, 11, 69
11, 27533, Control_c, 11, 11, 70
11, 27548, Control_c, 11, 11, 71
11, 27563, Control_c, 11, 11, 72
11, 27579, Control_c, 11, 11, 73
11, 27594, Control_c, 11, 11, 74
11, 27609, Control_c, 11, 11, 75
11, 27624, Control_c, 11, 11, 76
11, 27640, Control_c, 11, 11, 77
11, 27655, Control_c, 11, 11, 78
11, 27662, Note_on_c, 11, 67, 108
11, 27670, Control_c, 11, 11, 79
11, 27686, Control_c, 11, 11, 80
11, 27692, Note_on_c, 11, 67, 0
11, 27701, Control_c, 11, 11, 81
11, 27716, Control_c, 11, 11, 82
11, 27722, Note_on_c, 11, 69, 108
11, 27731, Control_c, 11, 11, 83
11, 27747, Control_c, 11, 11, 84
11, 27752, Note_on_c, 11, 69, 0
11, 27762, Control_c, 11, 11, 85
11, 27777, Control_c, 11, 11, 86
11, 27782, Note_on_c, 11, 71, 108
11, 27792, Control_c, 11, 11, 87
11, 27808, Control_c, 11, 11, 88
11, 27812, Note_on_c, 11, 71, 0
11, 27823, Control_c, 11, 11, 89
11, 27838, Control_c, 11, 11, 90
11, 27842, Note_on_c, 11, 72, 108
11, 27854, Control_c, 11, 11, 91
11, 27869, Control_c, 11, 11, 92
11, 27872, Note_on_c, 11, 72, 0
11, 27884, Control_c, 11, 11, 93
11, 27899, Control_c, 11, 11, 94
11, 27902, Note_on_c, 11, 74, 108
11, 27915, Control_c, 11, 11, 95
11, 27930, Control_c, 11, 11, 96
11, 27932, Note_on_c, 11, 74, 0
11, 27945, Control_c, 11, 11, 97
11, 27960, Control_c, 11, 11, 98
11, 27962, Note_on_c, 11, 76, 108
11, 27976, Control_c, 11, 11, 99
11, 27991, Control_c, 11, 11, 100
11, 27992, Note_on_c, 11, 76, 0
11, 28006, Control_c, 11, 11, 101
11, 28022, Control_c, 11, 11, 102
11, 28022, Note_on_c, 11, 72, 108
11, 28050, Note_on_c, 11, 72, 0
11, 28082, Note_on_c, 11, 72, 108
11, 28110, Note_on_c, 11, 72, 0
11, 28142, Note_on_c, 11, 72, 108
11, 28170, Note_on_c, 11, 72, 0
11, 28202, Note_on_c, 11, 72, 108
11, 28230, Note_on_c, 11, 72, 0
11, 28262, Note_on_c, 11, 72, 108
11, 28290, Note_on_c, 11, 72, 0
11, 28322, Note_on_c, 11, 72, 108
11, 28382, Note_on_c, 11, 72, 0
11, 28442, Note_on_c, 11, 72, 108
11, 28502, Note_on_c, 11, 72, 0
11, 28562, Note_on_c, 11, 64, 108
11, 28622, Note_on_c, 11, 64, 0
11, 28682, Note_on_c, 11, 62, 108
11, 28742, Note_on_c, 11, 62, 0
11, 28802, Note_on_c, 11, 64, 108
11, 28922, Note_on_c, 11, 64, 0
11, 29342, Control_c, 11, 11, 87
11, 29342, Note_on_c, 11, 72, 108
11, 29387, Note_on_c, 11, 72, 0
11, 29402, Note_on_c, 11, 72, 108
11, 29447, Note_on_c, 11, 72, 0
11, 29462, Note_on_c, 11, 72, 108
11, 29507, Note_on_c, 11, 72, 0
11, 29522, Note_on_c, 11, 72, 108
11, 29552, Note_on_c, 11, 72, 0
11, 29552, Note_on_c, 11, 71, 108
11, 29572, Note_on_c, 11, 71, 0
11, 29582, Note_on_c, 11, 69, 108
11, 29597, Note_on_c, 11, 69, 0
11, 29612, Note_on_c, 11, 67, 108
11, 29627, Note_on_c, 11, 67, 0
11, 29642, Note_on_c, 11, 67, 108
11, 29672, Note_on_c, 11, 67, 0
11, 29672, Note_on_c, 11, 65, 108
11, 29692, Note_on_c, 11, 65, 0
11, 29702, Note_on_c, 11, 64, 108
11, 29717, Note_on_c, 11, 64, 0
11, 29732, Note_on_c, 11, 62, 108
11, 29747, Note_on_c, 11, 62, 0
11, 29762, Note_on_c, 11, 60, 108
11, 29882, Note_on_c, 11, 60, 0
11, 30302, Note_on_c, 11, 72, 108
11, 30347, Note_on_c, 11, 72, 0
11, 30362, Note_on_c, 11, 72, 108
11, 30407, Note_on_c, 11, 72, 0
11, 30422, Note_on_c, 11, 72, 108
11, 30467, Note_on_c, 11, 72, 0
11, 30482, Note_on_c, 11, 72, 108
11, 30512, Note_on_c, 11, 72, 0
11, 30512, Note_on_c, 11, 71, 108
11, 30532, Note_on_c, 11, 71, 0
11, 30542, Note_on_c, 11, 69, 108
11, 30557, Note_on_c, 11, 69, 0
11, 30572, Note_on_c, 11, 67, 108
11, 30587, Note_on_c, 11, 67, 0
11, 30602, Note_on_c, 11, 67, 108
11, 30632, Note_on_c, 11, 67, 0
11, 30632, Note_on_c, 11, 65, 108
11, 30652, Note_on_c, 11, 65, 0
11, 30662, Note_on_c, 11, 64, 108
11, 30677, Note_on_c, 11, 64, 0
11, 30692, Note_on_c, 11, 62, 108
11, 30707, Note_on_c, 11, 62, 0
11, 30722, Note_on_c, 11, 64, 108
11, 30772, Note_on_c, 11, 64, 0
11, 30782, Note_on_c, 11, 76, 108
11, 30832, Note_on_c, 11, 76, 0
11, 30842, Note_on_c, 11, 76, 108
11, 30843, Control_c, 11, 11, 107
11, 30860, Control_c, 11, 11, 104
11, 30878, Control_c, 11, 11, 101
11, 30892, Note_on_c, 11, 76, 0
11, 30896, Control_c, 11, 11, 98
11, 30902, Note_on_c, 11, 76, 108
11, 30913, Control_c, 11, 11, 95
11, 30931, Control_c, 11, 11, 92
11, 30949, Control_c, 11, 11, 89
11, 30952, Note_on_c, 11, 76, 0
11, 30962, Note_on_c, 11, 76, 108
11, 31012, Note_on_c, 11, 76, 0
11, 31022, Note_on_c, 11, 76, 108
11, 31072, Note_on_c, 11, 76, 0
11, 31082, Note_on_c, 11, 76, 108
11, 31132, Note_on_c, 11, 76, 0
11, 31142, Note_on_c, 11, 76, 108
11, 31192, Note_on_c, 11, 76, 0
11, 31202, Note_on_c, 11, 74, 108
11, 31252, Note_on_c, 11, 74, 0
11, 31262, Note_on_c, 11, 74, 108
11, 31312, Note_on_c, 11, 74, 0
11, 31322, Note_on_c, 11, 74, 108
11, 31322, Control_c, 11, 11, 107
11, 31339, Control_c, 11, 11, 104
11, 31357, Control_c, 11, 11, 101
11, 31372, Note_on_c, 11, 74, 0
11, 31375, Control_c, 11, 11, 98
11, 31382, Note_on_c, 11, 74, 108
11, 31393, Control_c, 11, 11, 95
11, 31411, Control_c, 11, 11, 92
11, 31429, Control_c, 11, 11, 89
11, 31432, Note_on_c, 11, 74, 0
11, 31442, Note_on_c, 11, 74, 108
11, 31492, Note_on_c, 11, 74, 0
11, 31502, Note_on_c, 11, 74, 108
11, 31552, Note_on_c, 11, 74, 0
11, 31562, Note_on_c, 11, 74, 108
11, 31612, Note_on_c, 11, 74, 0
11, 31622, Note_on_c, 11, 74, 108
11, 31672, Note_on_c, 11, 74, 0
11, 31682, Note_on_c, 11, 72, 108
11, 31732, Note_on_c, 11, 72, 0
11, 31742, Note_on_c, 11, 72, 108
11, 31792, Note_on_c, 11, 72, 0
11, 31802, Note_on_c, 11, 72, 108
11, 31852, Note_on_c, 11, 72, 0
11, 31862, Note_on_c, 11, 72, 108
11, 31912, Note_on_c, 11, 72, 0
11, 31922, Note_on_c, 11, 71, 108
11, 31972, Note_on_c, 11, 71, 0
11, 31982, Note_on_c, 11, 71, 108
11, 32032, Note_on_c, 11, 71, 0
11, 32042, Note_on_c, 11, 71, 108
11, 32092, Note_on_c, 11, 71, 0
11, 32102, Note_on_c, 11, 71, 108
11, 32152, Note_on_c, 11, 71, 0
11, 32162, Note_on_c, 11, 64, 108
11, 32192, Note_on_c, 11, 64, 0
11, 32222, Note_on_c, 11, 76, 108
11, 32252, Note_on_c, 11, 76, 0
11, 32252, Note_on_c, 11, 74, 108
11, 32282, Note_on_c, 11, 74, 0
11, 32282, Note_on_c, 11, 72, 108
11, 32312, Note_on_c, 11, 72, 0
11, 32312, Note_on_c, 11, 71, 108
11, 32342, Note_on_c, 11, 71, 0
11, 32342, Note_on_c, 11, 69, 108
11, 32372, Note_on_c, 11, 69, 0
11, 32372, Note_on_c, 11, 68, 108
11, 32392, Note_on_c, 11, 68, 0
11, 32402, Note_on_c, 11, 69, 108
11, 32432, Note_on_c, 11, 69, 0
11, 32462, Note_on_c, 11, 76, 108
11, 32492, Note_on_c, 11, 76, 0
11, 32492, Note_on_c, 11, 74, 108
11, 32522, Note_on_c, 11, 74, 0
11, 32522, Note_on_c, 11, 73, 108
11, 32552, Note_on_c, 11, 73, 0
11, 32552, Note_on_c, 11, 71, 108
11, 32582, Note_on_c, 11, 71, 0
11, 32582, Note_on_c, 11, 69, 108
11, 32612, Note_on_c, 11, 69, 0
11, 32612, Note_on_c, 11, 67, 108
11, 32632, Note_on_c, 11, 67, 0
11, 32642, Note_on_c, 11, 66, 108
11, 32662, Note_on_c, 11, 66, 0
11, 32672, Note_on_c, 11, 69, 108
11, 32672, Note_on_c, 11, 66, 108
11, 32692, Note_on_c, 11, 66, 0
11, 32692, Note_on_c, 11, 69, 0
11, 32702, Note_on_c, 11, 69, 108
11, 32702, Note_on_c, 11, 66, 108
11, 32722, Note_on_c, 11, 66, 0
11, 32722, Note_on_c, 11, 69, 0
11, 32732, Note_on_c, 11, 66, 108
11, 32732, Note_on_c, 11, 69, 108
11, 32752, Note_on_c, 11, 69, 0
11, 32752, Note_on_c, 11, 66, 0
11, 32762, Note_on_c, 11, 69, 108
11, 32762, Note_on_c, 11, 66, 108
11, 32782, Note_on_c, 11, 66, 0
11, 32782, Note_on_c, 11, 69, 0
11, 32792, Note_on_c, 11, 66, 108
11, 32792, Note_on_c, 11, 69, 108
11, 32812, Note_on_c, 11, 69, 0
11, 32812, Note_on_c, 11, 66, 0
11, 32822, Note_on_c, 11, 69, 108
11, 32822, Note_on_c, 11, 66, 108
11, 32842, Note_on_c, 11, 66, 0
11, 32842, Note_on_c, 11, 69, 0
11, 32852, Note_on_c, 11, 69, 108
11, 32852, Note_on_c, 11, 66, 108
11, 32872, Note_on_c, 11, 66, 0
11, 32872, Note_on_c, 11, 69, 0
11, 32882, Note_on_c, 11, 66, 108
11, 32882, Note_on_c, 11, 69, 108
11, 32902, Note_on_c, 11, 69, 0
11, 32902, Note_on_c, 11, 66, 0
11, 32912, Note_on_c, 11, 66, 108
11, 32912, Note_on_c, 11, 69, 108
11, 32932, Note_on_c, 11, 69, 0
11, 32932, Note_on_c, 11, 66, 0
11, 32942, Note_on_c, 11, 69, 108
11, 32942, Note_on_c, 11, 66, 108
11, 32962, Note_on_c, 11, 66, 0
11, 32962, Note_on_c, 11, 69, 0
11, 32972, Note_on_c, 11, 66, 108
11, 32972, Note_on_c, 11, 69, 108
11, 32992, Note_on_c, 11, 69, 0
11, 32992, Note_on_c, 11, 66, 0
11, 33002, Note_on_c, 11, 66, 108
11, 33002, Note_on_c, 11, 69, 108
11, 33022, Note_on_c, 11, 69, 0
11, 33022, Note_on_c, 11, 66, 0
11, 33032, Note_on_c, 11, 66, 108
11, 33032, Note_on_c, 11, 69, 108
11, 33052, Note_on_c, 11, 69, 0
11, 33052, Note_on_c, 11, 66, 0
11, 33062, Note_on_c, 11, 69, 108
11, 33062, Note_on_c, 11, 66, 108
11, 33082, Note_on_c, 11, 66, 0
11, 33082, Note_on_c, 11, 69, 0
11, 33092, Note_on_c, 11, 69, 108
11, 33092, Note_on_c, 11, 66, 108
11, 33112, Note_on_c, 11, 66, 0
11, 33112, Note_on_c, 11, 69, 0
11, 33122, Note_on_c, 11, 67, 108
11, 33122, Note_on_c, 11, 71, 108
11, 33142, Note_on_c, 11, 71, 0
11, 33142, Note_on_c, 11, 67, 0
11, 33152, Note_on_c, 11, 71, 108
11, 33152, Note_on_c, 11, 67, 108
11, 33172, Note_on_c, 11, 67, 0
11, 33172, Note_on_c, 11, 71, 0
11, 33182, Note_on_c, 11, 71, 108
11, 33182, Note_on_c, 11, 67, 108
11, 33202, Note_on_c, 11, 67, 0
11, 33202, Note_on_c, 11, 71, 0
11, 33212, Note_on_c, 11, 71, 108
11, 33212, Note_on_c, 11, 67, 108
11, 33232, Note_on_c, 11, 67, 0
11, 33232, Note_on_c, 11, 71, 0
11, 33242, Note_on_c, 11, 71, 108
11, 33242, Note_on_c, 11, 67, 108
11, 33262, Note_on_c, 11, 67, 0
11, 33262, Note_on_c, 11, 71, 0
11, 33272, Note_on_c, 11, 71, 108
11, 33272, Note_on_c, 11, 67, 108
11, 33292, Note_on_c, 11, 67, 0
11, 33292, Note_on_c, 11, 71, 0
11, 33302, Note_on_c, 11, 67, 108
11, 33302, Note_on_c, 11, 71, 108
11, 33322, Note_on_c, 11, 71, 0
11, 33322, Note_on_c, 11, 67, 0
11, 33332, Note_on_c, 11, 67, 108
11, 33332, Note_on_c, 11, 71, 108
11, 33352, Note_on_c, 11, 71, 0
11, 33352, Note_on_c, 11, 67, 0
11, 33362, Note_on_c, 11, 67, 108
11, 33362, Note_on_c, 11, 71, 108
11, 33382, Note_on_c, 11, 71, 0
11, 33382, Note_on_c, 11, 67, 0
11, 33392, Note_on_c, 11, 67, 108
11, 33392, Note_on_c, 11, 71, 108
11, 33412, Note_on_c, 11, 71, 0
11, 33412, Note_on_c, 11, 67, 0
11, 33422, Note_on_c, 11, 71, 108
11, 33422, Note_on_c, 11, 67, 108
11, 33442, Note_on_c, 11, 67, 0
11, 33442, Note_on_c, 11, 71, 0
11, 33452, Note_on_c, 11, 71, 108
11, 33452, Note_on_c, 11, 67, 108
11, 33472, Note_on_c, 11, 67, 0
11, 33472, Note_on_c, 11, 71, 0
11, 33482, Note_on_c, 11, 67, 108
11, 33482, Note_on_c, 11, 71, 108
11, 33502, Note_on_c, 11, 71, 0
11, 33502, Note_on_c, 11, 67, 0
11, 33512, Note_on_c, 11, 71, 108
11, 33512, Note_on_c, 11, 67, 108
11, 33532, Note_on_c, 11, 67, 0
11, 33532, Note_on_c, 11, 71, 0
11, 33542, Note_on_c, 11, 67, 108
11, 33542, Note_on_c, 11, 71, 108
11, 33562, Note_on_c, 11, 71, 0
11, 33562, Note_on_c, 11, 67, 0
11, 33572, Note_on_c, 11, 67, 108
11, 33572, Note_on_c, 11, 71, 108
11, 33592, Note_on_c, 11, 71, 0
11, 33592, Note_on_c, 11, 67, 0
11, 33602, Note_on_c, 11, 69, 108
11, 33602, Note_on_c, 11, 66, 108
11, 33622, Note_on_c, 11, 66, 0
11, 33622, Note_on_c, 11, 69, 0
11, 33632, Note_on_c, 11, 78, 108
11, 33652, Note_on_c, 11, 78, 0
11, 33662, Note_on_c, 11, 78, 108
11, 33682, Note_on_c, 11, 78, 0
11, 33692, Note_on_c, 11, 78, 108
11, 33712, Note_on_c, 11, 78, 0
11, 33722, Note_on_c, 11, 78, 108
11, 33742, Note_on_c, 11, 78, 0
11, 33752, Note_on_c, 11, 78, 108
11, 33772, Note_on_c, 11, 78, 0
11, 33782, Note_on_c, 11, 78, 108
11, 33802, Note_on_c, 11, 78, 0
11, 33812, Note_on_c, 11, 78, 108
11, 33832, Note_on_c, 11, 78, 0
11, 33842, Note_on_c, 11, 78, 108
11, 33862, Note_on_c, 11, 78, 0
11, 33872, Note_on_c, 11, 78, 108
11, 33892, Note_on_c, 11, 78, 0
11, 33902, Note_on_c, 11, 78, 108
11, 33922, Note_on_c, 11, 78, 0
11, 33932, Note_on_c, 11, 78, 108
11, 33952, Note_on_c, 11, 78, 0
11, 33962, Note_on_c, 11, 78, 108
11, 33982, Note_on_c, 11, 78, 0
11, 33992, Note_on_c, 11, 78, 108
11, 34012, Note_on_c, 11, 78, 0
11, 34022, Note_on_c, 11, 78, 108
11, 34042, Note_on_c, 11, 78, 0
11, 34052, Note_on_c, 11, 78, 108
11, 34072, Note_on_c, 11, 78, 0
11, 34082, Note_on_c, 11, 79, 108
11, 34102, Note_on_c, 11, 79, 0
11, 34112, Note_on_c, 11, 79, 108
11, 34132, Note_on_c, 11, 79, 0
11, 34142, Note_on_c, 11, 79, 108
11, 34162, Note_on_c, 11, 79, 0
11, 34172, Note_on_c, 11, 79, 108
11, 34192, Note_on_c, 11, 79, 0
11, 34202, Note_on_c, 11, 79, 108
11, 34222, Note_on_c, 11, 79, 0
11, 34232, Note_on_c, 11, 79, 108
11, 34252, Note_on_c, 11, 79, 0
11, 34262, Note_on_c, 11, 79, 108
11, 34282, Note_on_c, 11, 79, 0
11, 34292, Note_on_c, 11, 79, 108
11, 34312, Note_on_c, 11, 79, 0
11, 34322, Note_on_c, 11, 79, 108
11, 34342, Note_on_c, 11, 79, 0
11, 34352, Note_on_c, 11, 79, 108
11, 34372, Note_on_c, 11, 79, 0
11, 34382, Note_on_c, 11, 79, 108
11, 34402, Note_on_c, 11, 79, 0
11, 34412, Note_on_c, 11, 79, 108
11, 34432, Note_on_c, 11, 79, 0
11, 34442, Note_on_c, 11, 79, 108
11, 34462, Note_on_c, 11, 79, 0
11, 34472, Note_on_c, 11, 79, 108
11, 34492, Note_on_c, 11, 79, 0
11, 34502, Note_on_c, 11, 79, 108
11, 34522, Note_on_c, 11, 79, 0
11, 34532, Note_on_c, 11, 79, 108
11, 34552, Note_on_c, 11, 79, 0
11, 34562, Note_on_c, 11, 78, 93
11, 34682, Note_on_c, 11, 78, 0
11, 35042, Control_c, 11, 11, 37
11, 35042, Note_on_c, 11, 62, 108
11, 35060, Control_c, 11, 11, 39
11, 35078, Control_c, 11, 11, 41
11, 35096, Control_c, 11, 11, 43
11, 35114, Control_c, 11, 11, 45
11, 35132, Control_c, 11, 11, 47
11, 35212, Note_on_c, 11, 62, 0
11, 35222, Note_on_c, 11, 67, 108
11, 35282, Note_on_c, 11, 67, 0
11, 35282, Note_on_c, 11, 66, 118
11, 35312, Note_on_c, 11, 66, 0
11, 35342, Note_on_c, 11, 66, 108
11, 35372, Note_on_c, 11, 66, 0
11, 35462, Note_on_c, 11, 69, 108
11, 35522, Note_on_c, 11, 69, 0
11, 35522, Note_on_c, 11, 67, 118
11, 35552, Note_on_c, 11, 67, 0
11, 35582, Note_on_c, 11, 67, 108
11, 35612, Note_on_c, 11, 67, 0
11, 35702, Note_on_c, 11, 71, 108
11, 35762, Note_on_c, 11, 71, 0
11, 35762, Note_on_c, 11, 69, 118
11, 35792, Note_on_c, 11, 69, 0
11, 35822, Note_on_c, 11, 66, 108
11, 35852, Note_on_c, 11, 66, 0
11, 35882, Note_on_c, 11, 62, 108
11, 35912, Note_on_c, 11, 62, 0
11, 35942, Note_on_c, 11, 60, 108
11, 35972, Note_on_c, 11, 60, 0
11, 36002, Note_on_c, 11, 59, 108
11, 36062, Note_on_c, 11, 59, 0
11, 36062, Note_on_c, 11, 62, 108
11, 36122, Note_on_c, 11, 62, 0
11, 36182, Note_on_c, 11, 67, 108
11, 36212, Note_on_c, 11, 67, 0
11, 36242, Note_on_c, 11, 67, 118
11, 36302, Note_on_c, 11, 67, 0
11, 36302, Note_on_c, 11, 66, 108
11, 36362, Note_on_c, 11, 66, 0
11, 36422, Note_on_c, 11, 69, 108
11, 36452, Note_on_c, 11, 69, 0
11, 36482, Note_on_c, 11, 69, 118
11, 36542, Note_on_c, 11, 69, 0
11, 36542, Note_on_c, 11, 67, 108
11, 36602, Note_on_c, 11, 67, 0
11, 36662, Note_on_c, 11, 71, 108
11, 36722, Note_on_c, 11, 71, 0
11, 36722, Note_on_c, 11, 69, 118
11, 36752, Note_on_c, 11, 69, 0
11, 36782, Note_on_c, 11, 66, 108
11, 36812, Note_on_c, 11, 66, 0
11, 36842, Note_on_c, 11, 62, 108
11, 36872, Note_on_c, 11, 62, 0
11, 36902, Note_on_c, 11, 60, 108
11, 36932, Note_on_c, 11, 60, 0
11, 36962, Note_on_c, 11, 59, 108
11, 37022, Note_on_c, 11, 59, 0
11, 37022, Note_on_c, 11, 62, 108
11, 37072, Note_on_c, 11, 62, 0
11, 37082, Note_on_c, 11, 62, 108
11, 37112, Note_on_c, 11, 62, 0
11, 37142, Note_on_c, 11, 67, 108
11, 37172, Note_on_c, 11, 67, 0
11, 37202, Control_c, 11, 11, 47
11, 37202, Note_on_c, 11, 67, 118
11, 37232, Control_c, 11, 11, 48
11, 37262, Note_on_c, 11, 67, 0
11, 37262, Control_c, 11, 11, 49
11, 37262, Note_on_c, 11, 66, 108
11, 37292, Control_c, 11, 11, 50
11, 37312, Note_on_c, 11, 66, 0
11, 37322, Note_on_c, 11, 66, 108
11, 37322, Control_c, 11, 11, 51
11, 37352, Note_on_c, 11, 66, 0
11, 37352, Control_c, 11, 11, 52
11, 37382, Note_on_c, 11, 69, 108
11, 37382, Control_c, 11, 11, 53
11, 37412, Note_on_c, 11, 69, 0
11, 37412, Control_c, 11, 11, 54
11, 37442, Note_on_c, 11, 69, 118
11, 37442, Control_c, 11, 11, 55
11, 37472, Control_c, 11, 11, 56
11, 37502, Note_on_c, 11, 69, 0
11, 37502, Note_on_c, 11, 67, 108
11, 37502, Control_c, 11, 11, 57
11, 37532, Control_c, 11, 11, 58
11, 37552, Note_on_c, 11, 67, 0
11, 37562, Control_c, 11, 11, 59
11, 37562, Note_on_c, 11, 67, 108
11, 37592, Note_on_c, 11, 67, 0
11, 37592, Control_c, 11, 11, 60
11, 37622, Note_on_c, 11, 71, 108
11, 37622, Control_c, 11, 11, 61
11, 37652, Note_on_c, 11, 71, 0
11, 37652, Control_c, 11, 11, 62
11, 37682, Control_c, 11, 11, 63
11, 37682, Note_on_c, 11, 71, 118
11, 37712, Control_c, 11, 11, 64
11, 37742, Note_on_c, 11, 71, 0
11, 37742, Control_c, 11, 11, 65
11, 37742, Note_on_c, 11, 69, 108
11, 37772, Control_c, 11, 11, 66
11, 37792, Note_on_c, 11, 69, 0
11, 37802, Note_on_c, 11, 69, 108
11, 37802, Control_c, 11, 11, 67
11, 37832, Note_on_c, 11, 69, 0
11, 37832, Control_c, 11, 11, 68
11, 37862, Control_c, 11, 11, 69
11, 37862, Note_on_c, 11, 72, 108
11, 37892, Note_on_c, 11, 72, 0
11, 37892, Control_c, 11, 11, 70
11, 37922, Note_on_c, 11, 72, 118
11, 37922, Control_c, 11, 11, 71
11, 37952, Control_c, 11, 11, 72
11, 37982, Note_on_c, 11, 72, 0
11, 37982, Note_on_c, 11, 71, 108
11, 37982, Control_c, 11, 11, 73
11, 38012, Control_c, 11, 11, 74
11, 38032, Note_on_c, 11, 71, 0
11, 38042, Note_on_c, 11, 71, 108
11, 38042, Control_c, 11, 11, 75
11, 38072, Note_on_c, 11, 71, 0
11, 38072, Control_c, 11, 11, 76
11, 38102, Note_on_c, 11, 74, 108
11, 38102, Control_c, 11, 11, 77
11, 38132, Note_on_c, 11, 74, 0
11, 38132, Control_c, 11, 11, 78
11, 38162, Control_c, 11, 11, 79
11, 38162, Note_on_c, 11, 74, 118
11, 38192, Control_c, 11, 11, 80
11, 38222, Note_on_c, 11, 74, 0
11, 38222, Note_on_c, 11, 72, 108
11, 38222, Control_c, 11, 11, 81
11, 38252, Control_c, 11, 11, 82
11, 38272, Note_on_c, 11, 72, 0
11, 38282, Note_on_c, 11, 72, 108
11, 38282, Control_c, 11, 11, 83
11, 38312, Note_on_c, 11, 72, 0
11, 38312, Control_c, 11, 11, 84
11, 38342, Note_on_c, 11, 76, 108
11, 38342, Control_c, 11, 11, 85
11, 38372, Note_on_c, 11, 76, 0
11, 38372, Control_c, 11, 11, 86
11, 38402, Note_on_c, 11, 77, 108
11, 38402, Control_c, 11, 11, 92
11, 38406, Control_c, 11, 11, 95
11, 38410, Control_c, 11, 11, 98
11, 38414, Control_c, 11, 11, 101
11, 38428, Control_c, 11, 11, 98
11, 38437, Control_c, 11, 11, 95
11, 38446, Control_c, 11, 11, 92
11, 38455, Control_c, 11, 11, 89
11, 38622, Note_on_c, 11, 77, 0
11, 38642, Control_c, 11, 11, 92
11, 38642, Note_on_c, 11, 68, 108
11, 38650, Control_c, 11, 11, 95
11, 38659, Control_c, 11, 11, 98
11, 38668, Control_c, 11, 11, 101
11, 38683, Control_c, 11, 11, 100
11, 38701, Control_c, 11, 11, 97
11, 38719, Control_c, 11, 11, 94
11, 38737, Control_c, 11, 11, 91
11, 38755, Control_c, 11, 11, 88
11, 38862, Note_on_c, 11, 68, 0
11, 38882, Note_on_c, 11, 69, 108
11, 38882, Control_c, 11, 11, 92
11, 38890, Control_c, 11, 11, 95
11, 38899, Control_c, 11, 11, 98
11, 38908, Control_c, 11, 11, 101
11, 38923, Control_c, 11, 11, 100
11, 38941, Control_c, 11, 11, 97
11, 38959, Control_c, 11, 11, 94
11, 38977, Control_c, 11, 11, 91
11, 38995, Control_c, 11, 11, 88
11, 39102, Note_on_c, 11, 69, 0
11, 39122, Note_on_c, 11, 70, 108
11, 39122, Control_c, 11, 11, 92
11, 39130, Control_c, 11, 11, 95
11, 39139, Control_c, 11, 11, 98
11, 39148, Control_c, 11, 11, 101
11, 39163, Control_c, 11, 11, 100
11, 39181, Control_c, 11, 11, 97
11, 39199, Control_c, 11, 11, 94
11, 39217, Control_c, 11, 11, 91
11, 39235, Control_c, 11, 11, 88
11, 39342, Note_on_c, 11, 70, 0
11, 39362, Note_on_c, 11, 71, 108
11, 39382, Note_on_c, 11, 71, 0
11, 39392, Note_on_c, 11, 75, 108
11, 39412, Note_on_c, 11, 75, 0
11, 39422, Note_on_c, 11, 75, 108
11, 39442, Note_on_c, 11, 75, 0
11, 39452, Note_on_c, 11, 75, 108
11, 39472, Note_on_c, 11, 75, 0
11, 39482, Control_c, 11, 11, 102
11, 39482, Note_on_c, 11, 75, 108
11, 39502, Note_on_c, 11, 75, 0
11, 39512, Note_on_c, 11, 75, 108
11, 39532, Note_on_c, 11, 75, 0
11, 39542, Note_on_c, 11, 75, 108
11, 39562, Note_on_c, 11, 75, 0
11, 39572, Note_on_c, 11, 75, 108
11, 39592, Note_on_c, 11, 75, 0
11, 39602, Note_on_c, 11, 75, 108
11, 39622, Note_on_c, 11, 75, 0
11, 39632, Note_on_c, 11, 75, 108
11, 39652, Note_on_c, 11, 75, 0
11, 39662, Note_on_c, 11, 75, 108
11, 39682, Note_on_c, 11, 75, 0
11, 39692, Note_on_c, 11, 75, 108
11, 39712, Note_on_c, 11, 75, 0
11, 39722, Note_on_c, 11, 74, 108
11, 39742, Note_on_c, 11, 74, 0
11, 39752, Note_on_c, 11, 74, 108
11, 39772, Note_on_c, 11, 74, 0
11, 39782, Note_on_c, 11, 74, 108
11, 39802, Note_on_c, 11, 74, 0
11, 39812, Note_on_c, 11, 74, 108
11, 39832, Note_on_c, 11, 74, 0
11, 39842, Note_on_c, 11, 74, 108
11, 39862, Note_on_c, 11, 74, 0
11, 39872, Note_on_c, 11, 74, 108
11, 39892, Note_on_c, 11, 74, 0
11, 39902, Note_on_c, 11, 74, 108
11, 39922, Note_on_c, 11, 74, 0
11, 39932, Note_on_c, 11, 74, 108
11, 39952, Note_on_c, 11, 74, 0
11, 39962, Note_on_c, 11, 72, 108
11, 39982, Note_on_c, 11, 72, 0
11, 39992, Note_on_c, 11, 72, 108
11, 40012, Note_on_c, 11, 72, 0
11, 40022, Note_on_c, 11, 72, 108
11, 40042, Note_on_c, 11, 72, 0
11, 40052, Note_on_c, 11, 72, 108
11, 40072, Note_on_c, 11, 72, 0
11, 40082, Note_on_c, 11, 71, 108
11, 40102, Note_on_c, 11, 71, 0
11, 40112, Note_on_c, 11, 71, 108
11, 40132, Note_on_c, 11, 71, 0
11, 40142, Note_on_c, 11, 71, 108
11, 40162, Note_on_c, 11, 71, 0
11, 40172, Note_on_c, 11, 71, 108
11, 40192, Note_on_c, 11, 71, 0
11, 40202, Note_on_c, 11, 69, 108
11, 40222, Note_on_c, 11, 69, 0
11, 40232, Note_on_c, 11, 69, 108
11, 40252, Note_on_c, 11, 69, 0
11, 40262, Note_on_c, 11, 69, 108
11, 40282, Note_on_c, 11, 69, 0
11, 40292, Note_on_c, 11, 69, 108
11, 40312, Note_on_c, 11, 69, 0
11, 40322, Note_on_c, 11, 67, 108
11, 40442, Note_on_c, 11, 67, 0
11, 40622, Note_on_c, 11, 79, 108
11, 40622, Note_on_c, 11, 72, 108
11, 40622, Control_c, 11, 11, 122
11, 40630, Control_c, 11, 11, 119
11, 40639, Control_c, 11, 11, 116
11, 40648, Control_c, 11, 11, 113
11, 40657, Control_c, 11, 11, 110
11, 40666, Control_c, 11, 11, 107
11, 40675, Control_c, 11, 11, 104
11, 40722, Note_on_c, 11, 72, 0
11, 40722, Note_on_c, 11, 79, 0
11, 40742, Note_on_c, 11, 72, 108
11, 40742, Note_on_c, 11, 79, 108
11, 40787, Note_on_c, 11, 79, 0
11, 40787, Note_on_c, 11, 72, 0
11, 40802, Note_on_c, 11, 79, 108
11, 40802, Note_on_c, 11, 71, 108
11, 40862, Note_on_c, 11, 71, 0
11, 40862, Note_on_c, 11, 79, 0
11, 41102, Note_on_c, 11, 69, 108
11, 41102, Note_on_c, 11, 78, 108
11, 41102, Control_c, 11, 11, 122
11, 41110, Control_c, 11, 11, 119
11, 41119, Control_c, 11, 11, 116
11, 41128, Control_c, 11, 11, 113
11, 41137, Control_c, 11, 11, 110
11, 41146, Control_c, 11, 11, 107
11, 41155, Control_c, 11, 11, 104
11, 41202, Note_on_c, 11, 78, 0
11, 41202, Note_on_c, 11, 69, 0
11, 41222, Note_on_c, 11, 69, 108
11, 41222, Note_on_c, 11, 78, 108
11, 41267, Note_on_c, 11, 78, 0
11, 41267, Note_on_c, 11, 69, 0
11, 41282, Note_on_c, 11, 79, 108
11, 41282, Note_on_c, 11, 71, 108
11, 41342, Note_on_c, 11, 71, 0
11, 41342, Note_on_c, 11, 79, 0
11, 41582, Control_c, 11, 11, 122
11, 41582, Note_on_c, 11, 72, 108
11, 41582, Note_on_c, 11, 79, 108
11, 41590, Control_c, 11, 11, 119
11, 41599, Control_c, 11, 11, 116
11, 41608, Control_c, 11, 11, 113
11, 41617, Control_c, 11, 11, 110
11, 41626, Control_c, 11, 11, 107
11, 41635, Control_c, 11, 11, 104
11, 41682, Note_on_c, 11, 79, 0
11, 41682, Note_on_c, 11, 72, 0
11, 41702, Note_on_c, 11, 79, 108
11, 41702, Note_on_c, 11, 72, 108
11, 41747, Note_on_c, 11, 72, 0
11, 41747, Note_on_c, 11, 79, 0
11, 41762, Note_on_c, 11, 79, 108
11, 41762, Note_on_c, 11, 71, 108
11, 41822, Note_on_c, 11, 71, 0
11, 41822, Note_on_c, 11, 79, 0
11, 42062, Note_on_c, 11, 78, 108
11, 42062, Note_on_c, 11, 69, 108
11, 42062, Control_c, 11, 11, 122
11, 42070, Control_c, 11, 11, 119
11, 42079, Control_c, 11, 11, 116
11, 42088, Control_c, 11, 11, 113
11, 42097, Control_c, 11, 11, 110
11, 42106, Control_c, 11, 11, 107
11, 42115, Control_c, 11, 11, 104
11, 42162, Note_on_c, 11, 69, 0
11, 42162, Note_on_c, 11, 78, 0
11, 42182, Note_on_c, 11, 69, 108
11, 42182, Note_on_c, 11, 78, 108
11, 42227, Note_on_c, 11, 78, 0
11, 42227, Note_on_c, 11, 69, 0
11, 42242, Note_on_c, 11, 79, 108
11, 42242, Note_on_c, 11, 71, 108
11, 42302, Note_on_c, 11, 71, 0
11, 42302, Note_on_c, 11, 79, 0
11, 42392, Note_on_c, 11, 59, 127
11, 42407, Note_on_c, 11, 59, 0
11, 42422, Note_on_c, 11, 60, 127
11, 42437, Note_on_c, 11, 60, 0
11, 42452, Note_on_c, 11, 62, 127
11, 42467, Note_on_c, 11, 62, 0
11, 42482, Note_on_c, 11, 64, 127
11, 42497, Note_on_c, 11, 64, 0
11, 42512, Note_on_c, 11, 66, 127
11, 42527, Note_on_c, 11, 66, 0
11, 42542, Note_on_c, 11, 67, 127
11, 42557, Note_on_c, 11, 67, 0
11, 42572, Note_on_c, 11, 69, 127
11, 42587, Note_on_c, 11, 69, 0
11, 42602, Note_on_c, 11, 71, 127
11, 42632, Note_on_c, 11, 71, 0
11, 42662, Note_on_c, 11, 71, 127
11, 42692, Note_on_c, 11, 71, 0
11, 42722, Control_c, 11, 11, 122
11, 42722, Note_on_c, 11, 72, 127
11, 42739, Control_c, 11, 11, 119
11, 42757, Control_c, 11, 11, 116
11, 42775, Control_c, 11, 11, 113
11, 42793, Control_c, 11, 11, 110
11, 42811, Control_c, 11, 11, 107
11, 42829, Control_c, 11, 11, 104
11, 42862, Note_on_c, 11, 72, 0
11, 42872, Note_on_c, 11, 60, 127
11, 42887, Note_on_c, 11, 60, 0
11, 42902, Note_on_c, 11, 62, 127
11, 42917, Note_on_c, 11, 62, 0
11, 42932, Note_on_c, 11, 64, 127
11, 42947, Note_on_c, 11, 64, 0
11, 42962, Note_on_c, 11, 66, 127
11, 42977, Note_on_c, 11, 66, 0
11, 42992, Note_on_c, 11, 67, 127
11, 43007, Note_on_c, 11, 67, 0
11, 43022, Note_on_c, 11, 69, 127
11, 43037, Note_on_c, 11, 69, 0
11, 43052, Note_on_c, 11, 71, 127
11, 43067, Note_on_c, 11, 71, 0
11, 43082, Note_on_c, 11, 72, 127
11, 43112, Note_on_c, 11, 72, 0
11, 43142, Note_on_c, 11, 72, 127
11, 43172, Note_on_c, 11, 72, 0
11, 43202, Control_c, 11, 11, 122
11, 43202, Note_on_c, 11, 74, 127
11, 43219, Control_c, 11, 11, 119
11, 43237, Control_c, 11, 11, 116
11, 43255, Control_c, 11, 11, 113
11, 43273, Control_c, 11, 11, 110
11, 43291, Control_c, 11, 11, 107
11, 43309, Control_c, 11, 11, 104
11, 43342, Note_on_c, 11, 74, 0
11, 43352, Note_on_c, 11, 62, 127
11, 43367, Note_on_c, 11, 62, 0
11, 43382, Note_on_c, 11, 64, 127
11, 43397, Note_on_c, 11, 64, 0
11, 43412, Note_on_c, 11, 66, 127
11, 43427, Note_on_c, 11, 66, 0
11, 43442, Note_on_c, 11, 67, 127
11, 43457, Note_on_c, 11, 67, 0
11, 43472, Note_on_c, 11, 69, 127
11, 43487, Note_on_c, 11, 69, 0
11, 43502, Note_on_c, 11, 71, 127
11, 43517, Note_on_c, 11, 71, 0
11, 43532, Note_on_c, 11, 72, 127
11, 43547, Note_on_c, 11, 72, 0
11, 43562, Note_on_c, 11, 74, 127
11, 43592, Note_on_c, 11, 74, 0
11, 43622, Note_on_c, 11, 74, 127
11, 43652, Note_on_c, 11, 74, 0
11, 43682, Note_on_c, 11, 76, 127
11, 43682, Control_c, 11, 11, 122
11, 43699, Control_c, 11, 11, 119
11, 43717, Control_c, 11, 11, 116
11, 43735, Control_c, 11, 11, 113
11, 43753, Control_c, 11, 11, 110
11, 43771, Control_c, 11, 11, 107
11, 43789, Control_c, 11, 11, 104
11, 43822, Note_on_c, 11, 76, 0
11, 43832, Note_on_c, 11, 64, 127
11, 43847, Note_on_c, 11, 64, 0
11, 43862, Note_on_c, 11, 65, 127
11, 43877, Note_on_c, 11, 65, 0
11, 43892, Note_on_c, 11, 67, 127
11, 43907, Note_on_c, 11, 67, 0
11, 43922, Note_on_c, 11, 69, 127
11, 43937, Note_on_c, 11, 69, 0
11, 43952, Note_on_c, 11, 71, 127
11, 43967, Note_on_c, 11, 71, 0
11, 43982, Note_on_c, 11, 72, 127
11, 43997, Note_on_c, 11, 72, 0
11, 44012, Note_on_c, 11, 74, 127
11, 44027, Note_on_c, 11, 74, 0
11, 44042, Note_on_c, 11, 76, 127
11, 44072, Note_on_c, 11, 76, 0
11, 44102, Note_on_c, 11, 76, 127
11, 44132, Note_on_c, 11, 76, 0
11, 44162, Note_on_c, 11, 77, 108
11, 44162, Control_c, 11, 11, 122
11, 44179, Control_c, 11, 11, 119
11, 44197, Control_c, 11, 11, 116
11, 44215, Control_c, 11, 11, 113
11, 44233, Control_c, 11, 11, 110
11, 44251, Control_c, 11, 11, 107
11, 44269, Control_c, 11, 11, 104
11, 44342, Note_on_c, 11, 77, 0
11, 44342, Note_on_c, 11, 76, 108
11, 44387, Note_on_c, 11, 76, 0
11, 44402, Note_on_c, 11, 77, 108
11, 44402, Control_c, 11, 11, 122
11, 44419, Control_c, 11, 11, 119
11, 44437, Control_c, 11, 11, 116
11, 44455, Control_c, 11, 11, 113
11, 44473, Control_c, 11, 11, 110
11, 44491, Control_c, 11, 11, 107
11, 44509, Control_c, 11, 11, 104
11, 44582, Note_on_c, 11, 77, 0
11, 44582, Note_on_c, 11, 76, 108
11, 44627, Note_on_c, 11, 76, 0
11, 44642, Note_on_c, 11, 77, 98
11, 44717, Control_c, 11, 11, 102
11, 44720, Control_c, 11, 11, 99
11, 44723, Control_c, 11, 11, 96
11, 44726, Control_c, 11, 11, 93
11, 44730, Control_c, 11, 11, 90
11, 44733, Control_c, 11, 11, 87
11, 44736, Control_c, 11, 11, 84
11, 44740, Control_c, 11, 11, 81
11, 44743, Control_c, 11, 11, 78
11, 44746, Control_c, 11, 11, 75
11, 44750, Control_c, 11, 11, 72
11, 44753, Control_c, 11, 11, 69
11, 44756, Control_c, 11, 11, 66
11, 44759, Control_c, 11, 11, 63
11, 44762, Note_on_c, 11, 77, 0
11, 45122, Note_on_c, 11, 73, 108
11, 45122, Control_c, 11, 11, 37
11, 45140, Control_c, 11, 11, 40
11, 45158, Control_c, 11, 11, 43
11, 45176, Control_c, 11, 11, 46
11, 45677, Control_c, 11, 11, 47
11, 45685, Control_c, 11, 11, 44
11, 45694, Control_c, 11, 11, 41
11, 45703, Control_c, 11, 11, 38
11, 45712, Control_c, 11, 11, 35
11, 45721, Control_c, 11, 11, 32
11, 45722, Note_on_c, 11, 73, 0
11, 46082, Note_on_c, 11, 74, 108
11, 46082, Control_c, 11, 11, 37
11, 46100, Control_c, 11, 11, 40
11, 46118, Control_c, 11, 11, 43
11, 46136, Control_c, 11, 11, 46
11, 46637, Control_c, 11, 11, 47
11, 46645, Control_c, 11, 11, 44
11, 46654, Control_c, 11, 11, 41
11, 46663, Control_c, 11, 11, 38
11, 46672, Control_c, 11, 11, 35
11, 46681, Control_c, 11, 11, 32
11, 46682, Note_on_c, 11, 74, 0
11, 47042, Control_c, 11, 11, 37
11, 47042, Note_on_c, 11, 63, 108
11, 47060, Control_c, 11, 11, 40
11, 47078, Control_c, 11, 11, 43
11, 47096, Control_c, 11, 11, 46
11, 47162, Note_on_c, 11, 63, 0
11, 47522, Control_c, 11, 11, 102
11, 47522, Note_on_c, 11, 62, 108
11, 47522, Note_on_c, 11, 70, 108
11, 47542, Note_on_c, 11, 70, 0
11, 47542, Note_on_c, 11, 62, 0
11, 47552, Note_on_c, 11, 70, 108
11, 47552, Note_on_c, 11, 62, 108
11, 47572, Note_on_c, 11, 62, 0
11, 47572, Note_on_c, 11, 70, 0
11, 47582, Note_on_c, 11, 62, 108
11, 47582, Note_on_c, 11, 70, 108
11, 47602, Note_on_c, 11, 70, 0
11, 47602, Note_on_c, 11, 62, 0
11, 47612, Note_on_c, 11, 62, 108
11, 47612, Note_on_c, 11, 70, 108
11, 47632, Note_on_c, 11, 70, 0
11, 47632, Note_on_c, 11, 62, 0
11, 47642, Note_on_c, 11, 70, 108
11, 47642, Note_on_c, 11, 62, 108
11, 47662, Note_on_c, 11, 62, 0
11, 47662, Note_on_c, 11, 70, 0
11, 47672, Note_on_c, 11, 62, 108
11, 47672, Note_on_c, 11, 70, 108
11, 47692, Note_on_c, 11, 70, 0
11, 47692, Note_on_c, 11, 62, 0
11, 47702, Note_on_c, 11, 70, 108
11, 47702, Note_on_c, 11, 62, 108
11, 47722, Note_on_c, 11, 62, 0
11, 47722, Note_on_c, 11, 70, 0
11, 47732, Note_on_c, 11, 62, 108
11, 47732, Note_on_c, 11, 70, 108
11, 47752, Note_on_c, 11, 70, 0
11, 47752, Note_on_c, 11, 62, 0
11, 47762, Note_on_c, 11, 62, 108
11, 47762, Note_on_c, 11, 70, 108
11, 47782, Note_on_c, 11, 70, 0
11, 47782, Note_on_c, 11, 62, 0
11, 47792, Note_on_c, 11, 70, 108
11, 47792, Note_on_c, 11, 62, 108
11, 47812, Note_on_c, 11, 62, 0
11, 47812, Note_on_c, 11, 70, 0
11, 47822, Note_on_c, 11, 62, 108
11, 47822, Note_on_c, 11, 70, 108
11, 47842, Note_on_c, 11, 70, 0
11, 47842, Note_on_c, 11, 62, 0
11, 47852, Note_on_c, 11, 70, 108
11, 47852, Note_on_c, 11, 62, 108
11, 47872, Note_on_c, 11, 62, 0
11, 47872, Note_on_c, 11, 70, 0
11, 47882, Note_on_c, 11, 62, 108
11, 47882, Note_on_c, 11, 70, 108
11, 47902, Note_on_c, 11, 70, 0
11, 47902, Note_on_c, 11, 62, 0
11, 47912, Note_on_c, 11, 62, 108
11, 47912, Note_on_c, 11, 70, 108
11, 47932, Note_on_c, 11, 70, 0
11, 47932, Note_on_c, 11, 62, 0
11, 47942, Note_on_c, 11, 70, 108
11, 47942, Note_on_c, 11, 62, 108
11, 47962, Note_on_c, 11, 62, 0
11, 47962, Note_on_c, 11, 70, 0
11, 47972, Note_on_c, 11, 62, 108
11, 47972, Note_on_c, 11, 70, 108
11, 47992, Note_on_c, 11, 70, 0
11, 47992, Note_on_c, 11, 62, 0
11, 48002, Note_on_c, 11, 69, 108
11, 48002, Note_on_c, 11, 63, 108
11, 48022, Note_on_c, 11, 63, 0
11, 48022, Note_on_c, 11, 69, 0
11, 48032, Note_on_c, 11, 69, 108
11, 48032, Note_on_c, 11, 63, 108
11, 48052, Note_on_c, 11, 63, 0
11, 48052, Note_on_c, 11, 69, 0
11, 48062, Note_on_c, 11, 63, 108
11, 48062, Note_on_c, 11, 69, 108
11, 48082, Note_on_c, 11, 69, 0
11, 48082, Note_on_c, 11, 63, 0
11, 48092, Note_on_c, 11, 69, 108
11, 48092, Note_on_c, 11, 63, 108
11, 48112, Note_on_c, 11, 63, 0
11, 48112, Note_on_c, 11, 69, 0
11, 48122, Note_on_c, 11, 63, 108
11, 48122, Note_on_c, 11, 69, 108
11, 48142, Note_on_c, 11, 69, 0
11, 48142, Note_on_c, 11, 63, 0
11, 48152, Note_on_c, 11, 63, 108
11, 48152, Note_on_c, 11, 69, 108
11, 48172, Note_on_c, 11, 69, 0
11, 48172, Note_on_c, 11, 63, 0
11, 48182, Note_on_c, 11, 63, 108
11, 48182, Note_on_c, 11, 69, 108
11, 48202, Note_on_c, 11, 69, 0
11, 48202, Note_on_c, 11, 63, 0
11, 48212, Note_on_c, 11, 69, 108
11, 48212, Note_on_c, 11, 63, 108
11, 48232, Note_on_c, 11, 63, 0
11, 48232, Note_on_c, 11, 69, 0
11, 48242, Note_on_c, 11, 69, 108
11, 48242, Note_on_c, 11, 63, 108
11, 48262, Note_on_c, 11, 63, 0
11, 48262, Note_on_c, 11, 69, 0
11, 48272, Note_on_c, 11, 63, 108
11, 48272, Note_on_c, 11, 69, 108
11, 48292, Note_on_c, 11, 69, 0
11, 48292, Note_on_c, 11, 63, 0
11, 48302, Note_on_c, 11, 63, 108
11, 48302, Note_on_c, 11, 69, 108
11, 48322, Note_on_c, 11, 69, 0
11, 48322, Note_on_c, 11, 63, 0
11, 48332, Note_on_c, 11, 63, 108
11, 48332, Note_on_c, 11, 69, 108
11, 48352, Note_on_c, 11, 69, 0
11, 48352, Note_on_c, 11, 63, 0
11, 48362, Note_on_c, 11, 69, 108
11, 48362, Note_on_c, 11, 63, 108
11, 48382, Note_on_c, 11, 63, 0
11, 48382, Note_on_c, 11, 69, 0
11, 48392, Note_on_c, 11, 63, 108
11, 48392, Note_on_c, 11, 69, 108
11, 48412, Note_on_c, 11, 69, 0
11, 48412, Note_on_c, 11, 63, 0
11, 48422, Note_on_c, 11, 69, 108
11, 48422, Note_on_c, 11, 63, 108
11, 48442, Note_on_c, 11, 63, 0
11, 48442, Note_on_c, 11, 69, 0
11, 48452, Note_on_c, 11, 69, 108
11, 48452, Note_on_c, 11, 63, 108
11, 48472, Note_on_c, 11, 63, 0
11, 48472, Note_on_c, 11, 69, 0
11, 48482, Note_on_c, 11, 70, 108
11, 48482, Note_on_c, 11, 62, 108
11, 48502, Note_on_c, 11, 62, 0
11, 48502, Note_on_c, 11, 70, 0
11, 48512, Note_on_c, 11, 62, 108
11, 48512, Note_on_c, 11, 70, 108
11, 48532, Note_on_c, 11, 70, 0
11, 48532, Note_on_c, 11, 62, 0
11, 48542, Note_on_c, 11, 62, 108
11, 48542, Note_on_c, 11, 70, 108
11, 48562, Note_on_c, 11, 70, 0
11, 48562, Note_on_c, 11, 62, 0
11, 48572, Note_on_c, 11, 70, 108
11, 48572, Note_on_c, 11, 62, 108
11, 48592, Note_on_c, 11, 62, 0
11, 48592, Note_on_c, 11, 70, 0
11, 48602, Note_on_c, 11, 62, 108
11, 48602, Note_on_c, 11, 70, 108
11, 48622, Note_on_c, 11, 70, 0
11, 48622, Note_on_c, 11, 62, 0
11, 48632, Note_on_c, 11, 62, 108
11, 48632, Note_on_c, 11, 70, 108
11, 48652, Note_on_c, 11, 70, 0
11, 48652, Note_on_c, 11, 62, 0
11, 48662, Note_on_c, 11, 62, 108
11, 48662, Note_on_c, 11, 70, 108
11, 48682, Note_on_c, 11, 70, 0
11, 48682, Note_on_c, 11, 62, 0
11, 48692, Note_on_c, 11, 70, 108
11, 48692, Note_on_c, 11, 62, 108
11, 48712, Note_on_c, 11, 62, 0
11, 48712, Note_on_c, 11, 70, 0
11, 48722, Note_on_c, 11, 70, 108
11, 48722, Note_on_c, 11, 62, 108
11, 48742, Note_on_c, 11, 62, 0
11, 48742, Note_on_c, 11, 70, 0
11, 48752, Note_on_c, 11, 62, 108
11, 48752, Note_on_c, 11, 70, 108
11, 48772, Note_on_c, 11, 70, 0
11, 48772, Note_on_c, 11, 62, 0
11, 48782, Note_on_c, 11, 62, 108
11, 48782, Note_on_c, 11, 70, 108
11, 48802, Note_on_c, 11, 70, 0
11, 48802, Note_on_c, 11, 62, 0
11, 48812, Note_on_c, 11, 62, 108
11, 48812, Note_on_c, 11, 70, 108
11, 48832, Note_on_c, 11, 70, 0
11, 48832, Note_on_c, 11, 62, 0
11, 48842, Note_on_c, 11, 70, 108
11, 48842, Note_on_c, 11, 62, 108
11, 48862, Note_on_c, 11, 62, 0
11, 48862, Note_on_c, 11, 70, 0
11, 48872, Note_on_c, 11, 62, 108
11, 48872, Note_on_c, 11, 70, 108
11, 48892, Note_on_c, 11, 70, 0
11, 48892, Note_on_c, 11, 62, 0
11, 48902, Note_on_c, 11, 62, 108
11, 48902, Note_on_c, 11, 70, 108
11, 48922, Note_on_c, 11, 70, 0
11, 48922, Note_on_c, 11, 62, 0
11, 48932, Note_on_c, 11, 70, 108
11, 48932, Note_on_c, 11, 62, 108
11, 48952, Note_on_c, 11, 62, 0
11, 48952, Note_on_c, 11, 70, 0
11, 48962, Note_on_c, 11, 63, 108
11, 48962, Note_on_c, 11, 69, 108
11, 48982, Note_on_c, 11, 69, 0
11, 48982, Note_on_c, 11, 63, 0
11, 48992, Note_on_c, 11, 63, 108
11, 48992, Note_on_c, 11, 69, 108
11, 49012, Note_on_c, 11, 69, 0
11, 49012, Note_on_c, 11, 63, 0
11, 49022, Note_on_c, 11, 63, 108
11, 49022, Note_on_c, 11, 69, 108
11, 49042, Note_on_c, 11, 69, 0
11, 49042, Note_on_c, 11, 63, 0
11, 49052, Note_on_c, 11, 63, 108
11, 49052, Note_on_c, 11, 69, 108
11, 49072, Note_on_c, 11, 69, 0
11, 49072, Note_on_c, 11, 63, 0
11, 49082, Note_on_c, 11, 69, 108
11, 49082, Note_on_c, 11, 63, 108
11, 49102, Note_on_c, 11, 63, 0
11, 49102, Note_on_c, 11, 69, 0
11, 49112, Note_on_c, 11, 69, 108
11, 49112, Note_on_c, 11, 63, 108
11, 49132, Note_on_c, 11, 63, 0
11, 49132, Note_on_c, 11, 69, 0
11, 49142, Note_on_c, 11, 69, 108
11, 49142, Note_on_c, 11, 63, 108
11, 49162, Note_on_c, 11, 63, 0
11, 49162, Note_on_c, 11, 69, 0
11, 49172, Note_on_c, 11, 69, 108
11, 49172, Note_on_c, 11, 63, 108
11, 49192, Note_on_c, 11, 63, 0
11, 49192, Note_on_c, 11, 69, 0
11, 49202, Note_on_c, 11, 63, 108
11, 49202, Note_on_c, 11, 69, 108
11, 49222, Note_on_c, 11, 69, 0
11, 49222, Note_on_c, 11, 63, 0
11, 49232, Note_on_c, 11, 69, 108
11, 49232, Note_on_c, 11, 63, 108
11, 49252, Note_on_c, 11, 63, 0
11, 49252, Note_on_c, 11, 69, 0
11, 49262, Note_on_c, 11, 63, 108
11, 49262, Note_on_c, 11, 69, 108
11, 49282, Note_on_c, 11, 69, 0
11, 49282, Note_on_c, 11, 63, 0
11, 49292, Note_on_c, 11, 69, 108
11, 49292, Note_on_c, 11, 63, 108
11, 49312, Note_on_c, 11, 63, 0
11, 49312, Note_on_c, 11, 69, 0
11, 49322, Note_on_c, 11, 63, 108
11, 49322, Note_on_c, 11, 69, 108
11, 49342, Note_on_c, 11, 69, 0
11, 49342, Note_on_c, 11, 63, 0
11, 49352, Note_on_c, 11, 69, 108
11, 49352, Note_on_c, 11, 63, 108
11, 49372, Note_on_c, 11, 63, 0
11, 49372, Note_on_c, 11, 69, 0
11, 49382, Note_on_c, 11, 63, 108
11, 49382, Note_on_c, 11, 69, 108
11, 49402, Note_on_c, 11, 69, 0
11, 49402, Note_on_c, 11, 63, 0
11, 49412, Note_on_c, 11, 69, 108
11, 49412, Note_on_c, 11, 63, 108
11, 49432, Note_on_c, 11, 63, 0
11, 49432, Note_on_c, 11, 69, 0
11, 49442, Note_on_c, 11, 70, 108
11, 49442, Control_c, 11, 11, 87
11, 49442, Note_on_c, 11, 62, 108
11, 49451, Control_c, 11, 11, 84
11, 49460, Control_c, 11, 11, 81
11, 49469, Control_c, 11, 11, 78
11, 49478, Control_c, 11, 11, 75
11, 49487, Note_on_c, 11, 62, 0
11, 49487, Note_on_c, 11, 70, 0
11, 49487, Control_c, 11, 11, 72
11, 49496, Control_c, 11, 11, 69
11, 49502, Note_on_c, 11, 65, 108
11, 49505, Control_c, 11, 11, 66
11, 49514, Control_c, 11, 11, 63
11, 49523, Control_c, 11, 11, 60
11, 49532, Control_c, 11, 11, 57
11, 49541, Control_c, 11, 11, 54
11, 49547, Note_on_c, 11, 65, 0
11, 49550, Control_c, 11, 11, 51
11, 49559, Control_c, 11, 11, 48
11, 49562, Note_on_c, 11, 65, 108
11, 49607, Note_on_c, 11, 65, 0
11, 49622, Note_on_c, 11, 65, 108
11, 49667, Note_on_c, 11, 65, 0
11, 49682, Note_on_c, 11, 65, 108
11, 49727, Note_on_c, 11, 65, 0
11, 49742, Note_on_c, 11, 65, 108
11, 49787, Note_on_c, 11, 65, 0
11, 49802, Note_on_c, 11, 65, 108
11, 49847, Note_on_c, 11, 65, 0
11, 49862, Note_on_c, 11, 65, 108
11, 49907, Note_on_c, 11, 65, 0
11, 49922, Note_on_c, 11, 65, 108
11, 49967, Note_on_c, 11, 65, 0
11, 49982, Note_on_c, 11, 65, 108
11, 50027, Note_on_c, 11, 65, 0
11, 50042, Note_on_c, 11, 65, 108
11, 50087, Note_on_c, 11, 65, 0
11, 50102, Note_on_c, 11, 65, 108
11, 50147, Note_on_c, 11, 65, 0
11, 50162, Note_on_c, 11, 65, 108
11, 50207, Note_on_c, 11, 65, 0
11, 50222, Note_on_c, 11, 65, 108
11, 50267, Note_on_c, 11, 65, 0
11, 50282, Note_on_c, 11, 65, 108
11, 50327, Note_on_c, 11, 65, 0
11, 50342, Note_on_c, 11, 65, 108
11, 50387, Note_on_c, 11, 65, 0
11, 50402, Note_on_c, 11, 65, 108
11, 50447, Note_on_c, 11, 65, 0
11, 50462, Note_on_c, 11, 65, 108
11, 50507, Note_on_c, 11, 65, 0
11, 50522, Note_on_c, 11, 65, 108
11, 50567, Note_on_c, 11, 65, 0
11, 50582, Note_on_c, 11, 65, 108
11, 50627, Note_on_c, 11, 65, 0
11, 50642, Note_on_c, 11, 67, 108
11, 50687, Note_on_c, 11, 67, 0
11, 50702, Note_on_c, 11, 67, 108
11, 50747, Note_on_c, 11, 67, 0
11, 50762, Note_on_c, 11, 67, 108
11, 50807, Note_on_c, 11, 67, 0
11, 50822, Note_on_c, 11, 67, 108
11, 50867, Note_on_c, 11, 67, 0
11, 50882, Note_on_c, 11, 60, 108
11, 51002, Note_on_c, 11, 60, 0
11, 51302, Note_on_c, 11, 74, 108
11, 51332, Note_on_c, 11, 74, 0
11, 51332, Note_on_c, 11, 72, 108
11, 51362, Note_on_c, 11, 72, 0
11, 51362, Note_on_c, 11, 70, 108
11, 51392, Note_on_c, 11, 70, 0
11, 51392, Note_on_c, 11, 69, 108
11, 51422, Note_on_c, 11, 69, 0
11, 51422, Note_on_c, 11, 67, 108
11, 51452, Note_on_c, 11, 67, 0
11, 51452, Note_on_c, 11, 65, 108
11, 51472, Note_on_c, 11, 65, 0
11, 51482, Note_on_c, 11, 64, 108
11, 51512, Note_on_c, 11, 64, 0
11, 51782, Note_on_c, 11, 72, 108
11, 51812, Note_on_c, 11, 72, 0
11, 51812, Note_on_c, 11, 70, 108
11, 51842, Note_on_c, 11, 70, 0
11, 51842, Note_on_c, 11, 69, 108
11, 51872, Note_on_c, 11, 69, 0
11, 51872, Note_on_c, 11, 67, 108
11, 51902, Note_on_c, 11, 67, 0
11, 51902, Note_on_c, 11, 65, 108
11, 51932, Note_on_c, 11, 65, 0
11, 51932, Note_on_c, 11, 64, 108
11, 51952, Note_on_c, 11, 64, 0
11, 51962, Note_on_c, 11, 65, 108
11, 51977, Note_on_c, 11, 65, 0
11, 51992, Note_on_c, 11, 57, 108
11, 52007, Note_on_c, 11, 57, 0
11, 52022, Note_on_c, 11, 58, 108
11, 52037, Note_on_c, 11, 58, 0
11, 52052, Note_on_c, 11, 60, 108
11, 52067, Note_on_c, 11, 60, 0
11, 52082, Note_on_c, 11, 62, 108
11, 52097, Note_on_c, 11, 62, 0
11, 52112, Note_on_c, 11, 64, 108
11, 52127, Note_on_c, 11, 64, 0
11, 52142, Note_on_c, 11, 65, 108
11, 52157, Note_on_c, 11, 65, 0
11, 52172, Note_on_c, 11, 67, 108
11, 52187, Note_on_c, 11, 67, 0
11, 52202, Note_on_c, 11, 69, 108
11, 52232, Note_on_c, 11, 69, 0
11, 52262, Note_on_c, 11, 69, 108
11, 52292, Note_on_c, 11, 69, 0
11, 52322, Note_on_c, 11, 70, 108
11, 52442, Note_on_c, 11, 70, 0
11, 52472, Note_on_c, 11, 58, 108
11, 52487, Note_on_c, 11, 58, 0
11, 52502, Note_on_c, 11, 60, 108
11, 52517, Note_on_c, 11, 60, 0
11, 52532, Note_on_c, 11, 62, 108
11, 52547, Note_on_c, 11, 62, 0
11, 52562, Note_on_c, 11, 64, 108
11, 52577, Note_on_c, 11, 64, 0
11, 52592, Note_on_c, 11, 65, 108
11, 52607, Note_on_c, 11, 65, 0
11, 52622, Note_on_c, 11, 67, 108
11, 52637, Note_on_c, 11, 67, 0
11, 52652, Note_on_c, 11, 69, 108
11, 52667, Note_on_c, 11, 69, 0
11, 52682, Note_on_c, 11, 70, 108
11, 52712, Note_on_c, 11, 70, 0
11, 52742, Note_on_c, 11, 70, 108
11, 52772, Note_on_c, 11, 70, 0
11, 52802, Note_on_c, 11, 61, 108
11, 52832, Note_on_c, 11, 61, 0
11, 52862, Note_on_c, 11, 57, 108
11, 52892, Note_on_c, 11, 57, 0
11, 52892, Note_on_c, 11, 59, 108
11, 52922, Note_on_c, 11, 59, 0
11, 52922, Note_on_c, 11, 61, 108
11, 52952, Note_on_c, 11, 61, 0
11, 52952, Note_on_c, 11, 62, 108
11, 52982, Note_on_c, 11, 62, 0
11, 52982, Note_on_c, 11, 64, 108
11, 53012, Note_on_c, 11, 64, 0
11, 53012, Note_on_c, 11, 65, 108
11, 53032, Note_on_c, 11, 65, 0
11, 53042, Note_on_c, 11, 67, 108
11, 53072, Note_on_c, 11, 67, 0
11, 53342, Note_on_c, 11, 62, 108
11, 53372, Note_on_c, 11, 62, 0
11, 53372, Note_on_c, 11, 64, 108
11, 53402, Note_on_c, 11, 64, 0
11, 53402, Note_on_c, 11, 66, 108
11, 53432, Note_on_c, 11, 66, 0
11, 53432, Note_on_c, 11, 67, 108
11, 53462, Note_on_c, 11, 67, 0
11, 53462, Note_on_c, 11, 69, 108
11, 53492, Note_on_c, 11, 69, 0
11, 53492, Note_on_c, 11, 71, 108
11, 53512, Note_on_c, 11, 71, 0
11, 53522, Note_on_c, 11, 72, 108
11, 53552, Note_on_c, 11, 72, 0
11, 53822, Note_on_c, 11, 67, 108
11, 53852, Note_on_c, 11, 67, 0
11, 53852, Note_on_c, 11, 69, 108
11, 53882, Note_on_c, 11, 69, 0
11, 53882, Note_on_c, 11, 71, 108
11, 53912, Note_on_c, 11, 71, 0
11, 53912, Note_on_c, 11, 72, 108
11, 53942, Note_on_c, 11, 72, 0
11, 53942, Note_on_c, 11, 74, 108
11, 53972, Note_on_c, 11, 74, 0
11, 53972, Note_on_c, 11, 76, 108
11, 53992, Note_on_c, 11, 76, 0
11, 54002, Note_on_c, 11, 77, 108
11, 54032, Note_on_c, 11, 77, 0
11, 54302, Note_on_c, 11, 60, 108
11, 54332, Note_on_c, 11, 60, 0
11, 54332, Note_on_c, 11, 62, 108
11, 54362, Note_on_c, 11, 62, 0
11, 54362, Note_on_c, 11, 64, 108
11, 54392, Note_on_c, 11, 64, 0
11, 54392, Note_on_c, 11, 65, 108
11, 54422, Note_on_c, 11, 65, 0
11, 54422, Note_on_c, 11, 67, 108
11, 54452, Note_on_c, 11, 67, 0
11, 54452, Note_on_c, 11, 69, 108
11, 54472, Note_on_c, 11, 69, 0
11, 54482, Note_on_c, 11, 70, 108
11, 54512, Note_on_c, 11, 70, 0
11, 54722, Note_on_c, 11, 69, 108
11, 54722, Control_c, 11, 11, 47
11, 54746, Control_c, 11, 11, 49
11, 54752, Note_on_c, 11, 69, 0
11, 54770, Control_c, 11, 11, 51
11, 54782, Note_on_c, 11, 81, 108
11, 54794, Control_c, 11, 11, 53
11, 54812, Note_on_c, 11, 81, 0
11, 54812, Note_on_c, 11, 79, 108
11, 54818, Control_c, 11, 11, 55
11, 54842, Note_on_c, 11, 79, 0
11, 54842, Control_c, 11, 11, 57
11, 54842, Note_on_c, 11, 77, 108
11, 54866, Control_c, 11, 11, 59
11, 54872, Note_on_c, 11, 77, 0
11, 54872, Note_on_c, 11, 76, 108
11, 54890, Control_c, 11, 11, 61
11, 54902, Note_on_c, 11, 76, 0
11, 54902, Note_on_c, 11, 74, 108
11, 54914, Control_c, 11, 11, 63
11, 54932, Note_on_c, 11, 74, 0
11, 54932, Note_on_c, 11, 73, 108
11, 54938, Control_c, 11, 11, 65
11, 54952, Note_on_c, 11, 73, 0
11, 54962, Note_on_c, 11, 74, 108
11, 54962, Control_c, 11, 11, 67
11, 54986, Control_c, 11, 11, 69
11, 54992, Note_on_c, 11, 74, 0
11, 55010, Control_c, 11, 11, 71
11, 55022, Note_on_c, 11, 81, 108
11, 55034, Control_c, 11, 11, 73
11, 55052, Note_on_c, 11, 81, 0
11, 55052, Note_on_c, 11, 79, 108
11, 55058, Control_c, 11, 11, 75
11, 55082, Note_on_c, 11, 79, 0
11, 55082, Control_c, 11, 11, 77
11, 55082, Note_on_c, 11, 77, 108
11, 55106, Control_c, 11, 11, 79
11, 55112, Note_on_c, 11, 77, 0
11, 55112, Note_on_c, 11, 76, 108
11, 55130, Control_c, 11, 11, 81
11, 55142, Note_on_c, 11, 76, 0
11, 55142, Note_on_c, 11, 74, 108
11, 55154, Control_c, 11, 11, 83
11, 55172, Note_on_c, 11, 74, 0
11, 55172, Note_on_c, 11, 72, 108
11, 55178, Control_c, 11, 11, 85
11, 55192, Note_on_c, 11, 72, 0
11, 55202, Control_c, 11, 11, 87
11, 55202, Note_on_c, 11, 71, 108
11, 55222, Note_on_c, 11, 71, 0
11, 55232, Note_on_c, 11, 74, 108
11, 55232, Note_on_c, 11, 67, 108
11, 55252, Note_on_c, 11, 67, 0
11, 55252, Note_on_c, 11, 74, 0
11, 55262, Note_on_c, 11, 67, 108
11, 55262, Note_on_c, 11, 74, 108
11, 55282, Note_on_c, 11, 74, 0
11, 55282, Note_on_c, 11, 67, 0
11, 55292, Note_on_c, 11, 67, 108
11, 55292, Note_on_c, 11, 74, 108
11, 55312, Note_on_c, 11, 74, 0
11, 55312, Note_on_c, 11, 67, 0
11, 55322, Note_on_c, 11, 67, 108
11, 55322, Note_on_c, 11, 74, 108
11, 55342, Note_on_c, 11, 74, 0
11, 55342, Note_on_c, 11, 67, 0
11, 55352, Note_on_c, 11, 74, 108
11, 55352, Note_on_c, 11, 67, 108
11, 55372, Note_on_c, 11, 67, 0
11, 55372, Note_on_c, 11, 74, 0
11, 55382, Note_on_c, 11, 74, 108
11, 55382, Note_on_c, 11, 67, 108
11, 55402, Note_on_c, 11, 67, 0
11, 55402, Note_on_c, 11, 74, 0
11, 55412, Note_on_c, 11, 67, 108
11, 55412, Note_on_c, 11, 74, 108
11, 55432, Note_on_c, 11, 74, 0
11, 55432, Note_on_c, 11, 67, 0
11, 55442, Note_on_c, 11, 74, 108
11, 55442, Note_on_c, 11, 67, 108
11, 55462, Note_on_c, 11, 67, 0
11, 55462, Note_on_c, 11, 74, 0
11, 55472, Note_on_c, 11, 74, 108
11, 55472, Note_on_c, 11, 67, 108
11, 55492, Note_on_c, 11, 67, 0
11, 55492, Note_on_c, 11, 74, 0
11, 55502, Note_on_c, 11, 67, 108
11, 55502, Note_on_c, 11, 74, 108
11, 55522, Note_on_c, 11, 74, 0
11, 55522, Note_on_c, 11, 67, 0
11, 55532, Note_on_c, 11, 67, 108
11, 55532, Note_on_c, 11, 74, 108
11, 55552, Note_on_c, 11, 74, 0
11, 55552, Note_on_c, 11, 67, 0
11, 55562, Note_on_c, 11, 67, 108
11, 55562, Note_on_c, 11, 74, 108
11, 55582, Note_on_c, 11, 74, 0
11, 55582, Note_on_c, 11, 67, 0
11, 55592, Note_on_c, 11, 74, 108
11, 55592, Note_on_c, 11, 67, 108
11, 55612, Note_on_c, 11, 67, 0
11, 55612, Note_on_c, 11, 74, 0
11, 55622, Note_on_c, 11, 74, 108
11, 55622, Note_on_c, 11, 67, 108
11, 55642, Note_on_c, 11, 67, 0
11, 55642, Note_on_c, 11, 74, 0
11, 55652, Note_on_c, 11, 67, 108
11, 55652, Note_on_c, 11, 74, 108
11, 55672, Note_on_c, 11, 74, 0
11, 55672, Note_on_c, 11, 67, 0
11, 55682, Note_on_c, 11, 76, 108
11, 55682, Note_on_c, 11, 67, 108
11, 55702, Note_on_c, 11, 67, 0
11, 55702, Note_on_c, 11, 76, 0
11, 55712, Note_on_c, 11, 76, 108
11, 55712, Note_on_c, 11, 67, 108
11, 55732, Note_on_c, 11, 67, 0
11, 55732, Note_on_c, 11, 76, 0
11, 55742, Note_on_c, 11, 76, 108
11, 55742, Note_on_c, 11, 67, 108
11, 55762, Note_on_c, 11, 67, 0
11, 55762, Note_on_c, 11, 76, 0
11, 55772, Note_on_c, 11, 76, 108
11, 55772, Note_on_c, 11, 67, 108
11, 55792, Note_on_c, 11, 67, 0
11, 55792, Note_on_c, 11, 76, 0
11, 55802, Note_on_c, 11, 76, 108
11, 55802, Note_on_c, 11, 67, 108
11, 55822, Note_on_c, 11, 67, 0
11, 55822, Note_on_c, 11, 76, 0
11, 55832, Note_on_c, 11, 67, 108
11, 55832, Note_on_c, 11, 76, 108
11, 55852, Note_on_c, 11, 76, 0
11, 55852, Note_on_c, 11, 67, 0
11, 55862, Note_on_c, 11, 67, 108
11, 55862, Note_on_c, 11, 76, 108
11, 55882, Note_on_c, 11, 76, 0
11, 55882, Note_on_c, 11, 67, 0
11, 55892, Note_on_c, 11, 76, 108
11, 55892, Note_on_c, 11, 67, 108
11, 55912, Note_on_c, 11, 67, 0
11, 55912, Note_on_c, 11, 76, 0
11, 55922, Note_on_c, 11, 76, 108
11, 55922, Note_on_c, 11, 67, 108
11, 55942, Note_on_c, 11, 67, 0
11, 55942, Note_on_c, 11, 76, 0
11, 55952, Note_on_c, 11, 76, 108
11, 55952, Note_on_c, 11, 67, 108
11, 55972, Note_on_c, 11, 67, 0
11, 55972, Note_on_c, 11, 76, 0
11, 55982, Note_on_c, 11, 67, 108
11, 55982, Note_on_c, 11, 76, 108
11, 56002, Note_on_c, 11, 76, 0
11, 56002, Note_on_c, 11, 67, 0
11, 56012, Note_on_c, 11, 67, 108
11, 56012, Note_on_c, 11, 76, 108
11, 56032, Note_on_c, 11, 76, 0
11, 56032, Note_on_c, 11, 67, 0
11, 56042, Note_on_c, 11, 76, 108
11, 56042, Note_on_c, 11, 67, 108
11, 56062, Note_on_c, 11, 67, 0
11, 56062, Note_on_c, 11, 76, 0
11, 56072, Note_on_c, 11, 67, 108
11, 56072, Note_on_c, 11, 76, 108
11, 56092, Note_on_c, 11, 76, 0
11, 56092, Note_on_c, 11, 67, 0
11, 56102, Note_on_c, 11, 67, 108
11, 56102, Note_on_c, 11, 76, 108
11, 56122, Note_on_c, 11, 76, 0
11, 56122, Note_on_c, 11, 67, 0
11, 56132, Note_on_c, 11, 76, 108
11, 56132, Note_on_c, 11, 67, 108
11, 56152, Note_on_c, 11, 67, 0
11, 56152, Note_on_c, 11, 76, 0
11, 56162, Note_on_c, 11, 74, 108
11, 56162, Control_c, 11, 11, 102
11, 56182, Note_on_c, 11, 74, 0
11, 56192, Note_on_c, 11, 71, 108
11, 56192, Note_on_c, 11, 79, 108
11, 56212, Note_on_c, 11, 79, 0
11, 56212, Note_on_c, 11, 71, 0
11, 56222, Note_on_c, 11, 79, 108
11, 56222, Note_on_c, 11, 71, 108
11, 56242, Note_on_c, 11, 71, 0
11, 56242, Note_on_c, 11, 79, 0
11, 56252, Note_on_c, 11, 79, 108
11, 56252, Note_on_c, 11, 71, 108
11, 56272, Note_on_c, 11, 71, 0
11, 56272, Note_on_c, 11, 79, 0
11, 56282, Note_on_c, 11, 71, 108
11, 56282, Note_on_c, 11, 79, 108
11, 56302, Note_on_c, 11, 79, 0
11, 56302, Note_on_c, 11, 71, 0
11, 56312, Note_on_c, 11, 71, 108
11, 56312, Note_on_c, 11, 79, 108
11, 56332, Note_on_c, 11, 79, 0
11, 56332, Note_on_c, 11, 71, 0
11, 56342, Note_on_c, 11, 71, 108
11, 56342, Note_on_c, 11, 79, 108
11, 56362, Note_on_c, 11, 79, 0
11, 56362, Note_on_c, 11, 71, 0
11, 56372, Note_on_c, 11, 71, 108
11, 56372, Note_on_c, 11, 79, 108
11, 56392, Note_on_c, 11, 79, 0
11, 56392, Note_on_c, 11, 71, 0
11, 56402, Note_on_c, 11, 71, 108
11, 56402, Note_on_c, 11, 79, 108
11, 56422, Note_on_c, 11, 79, 0
11, 56422, Note_on_c, 11, 71, 0
11, 56432, Note_on_c, 11, 71, 108
11, 56432, Note_on_c, 11, 79, 108
11, 56452, Note_on_c, 11, 79, 0
11, 56452, Note_on_c, 11, 71, 0
11, 56462, Note_on_c, 11, 79, 108
11, 56462, Note_on_c, 11, 71, 108
11, 56482, Note_on_c, 11, 71, 0
11, 56482, Note_on_c, 11, 79, 0
11, 56492, Note_on_c, 11, 79, 108
11, 56492, Note_on_c, 11, 71, 108
11, 56512, Note_on_c, 11, 71, 0
11, 56512, Note_on_c, 11, 79, 0
11, 56522, Note_on_c, 11, 79, 108
11, 56522, Note_on_c, 11, 71, 108
11, 56542, Note_on_c, 11, 71, 0
11, 56542, Note_on_c, 11, 79, 0
11, 56552, Note_on_c, 11, 71, 108
11, 56552, Note_on_c, 11, 79, 108
11, 56572, Note_on_c, 11, 79, 0
11, 56572, Note_on_c, 11, 71, 0
11, 56582, Note_on_c, 11, 71, 108
11, 56582, Note_on_c, 11, 79, 108
11, 56602, Note_on_c, 11, 79, 0
11, 56602, Note_on_c, 11, 71, 0
11, 56612, Note_on_c, 11, 79, 108
11, 56612, Note_on_c, 11, 71, 108
11, 56632, Note_on_c, 11, 71, 0
11, 56632, Note_on_c, 11, 79, 0
11, 56642, Note_on_c, 11, 72, 108
11, 56642, Note_on_c, 11, 79, 108
11, 56662, Note_on_c, 11, 79, 0
11, 56662, Note_on_c, 11, 72, 0
11, 56672, Note_on_c, 11, 72, 108
11, 56672, Note_on_c, 11, 79, 108
11, 56692, Note_on_c, 11, 79, 0
11, 56692, Note_on_c, 11, 72, 0
11, 56702, Note_on_c, 11, 72, 108
11, 56702, Note_on_c, 11, 79, 108
11, 56722, Note_on_c, 11, 79, 0
11, 56722, Note_on_c, 11, 72, 0
11, 56732, Note_on_c, 11, 72, 108
11, 56732, Note_on_c, 11, 79, 108
11, 56752, Note_on_c, 11, 79, 0
11, 56752, Note_on_c, 11, 72, 0
11, 56762, Note_on_c, 11, 72, 108
11, 56762, Note_on_c, 11, 79, 108
11, 56782, Note_on_c, 11, 79, 0
11, 56782, Note_on_c, 11, 72, 0
11, 56792, Note_on_c, 11, 79, 108
11, 56792, Note_on_c, 11, 72, 108
11, 56812, Note_on_c, 11, 72, 0
11, 56812, Note_on_c, 11, 79, 0
11, 56822, Note_on_c, 11, 79, 108
11, 56822, Note_on_c, 11, 72, 108
11, 56842, Note_on_c, 11, 72, 0
11, 56842, Note_on_c, 11, 79, 0
11, 56852, Note_on_c, 11, 72, 108
11, 56852, Note_on_c, 11, 79, 108
11, 56872, Note_on_c, 11, 79, 0
11, 56872, Note_on_c, 11, 72, 0
11, 56882, Note_on_c, 11, 72, 108
11, 56882, Note_on_c, 11, 79, 108
11, 56902, Note_on_c, 11, 79, 0
11, 56902, Note_on_c, 11, 72, 0
11, 56912, Note_on_c, 11, 72, 108
11, 56912, Note_on_c, 11, 79, 108
11, 56932, Note_on_c, 11, 79, 0
11, 56932, Note_on_c, 11, 72, 0
11, 56942, Note_on_c, 11, 79, 108
11, 56942, Note_on_c, 11, 72, 108
11, 56962, Note_on_c, 11, 72, 0
11, 56962, Note_on_c, 11, 79, 0
11, 56972, Note_on_c, 11, 79, 108
11, 56972, Note_on_c, 11, 72, 108
11, 56992, Note_on_c, 11, 72, 0
11, 56992, Note_on_c, 11, 79, 0
11, 57002, Note_on_c, 11, 72, 108
11, 57002, Note_on_c, 11, 79, 108
11, 57022, Note_on_c, 11, 79, 0
11, 57022, Note_on_c, 11, 72, 0
11, 57032, Note_on_c, 11, 79, 108
11, 57032, Note_on_c, 11, 72, 108
11, 57052, Note_on_c, 11, 72, 0
11, 57052, Note_on_c, 11, 79, 0
11, 57062, Note_on_c, 11, 79, 108
11, 57062, Note_on_c, 11, 72, 108
11, 57082, Note_on_c, 11, 72, 0
11, 57082, Note_on_c, 11, 79, 0
11, 57092, Note_on_c, 11, 72, 108
11, 57092, Note_on_c, 11, 79, 108
11, 57112, Note_on_c, 11, 79, 0
11, 57112, Note_on_c, 11, 72, 0
11, 57122, Note_on_c, 11, 79, 108
11, 57122, Control_c, 11, 11, 107
11, 57122, Note_on_c, 11, 71, 108
11, 57131, Control_c, 11, 11, 110
11, 57140, Control_c, 11, 11, 113
11, 57149, Control_c, 11, 11, 116
11, 57164, Control_c, 11, 11, 115
11, 57182, Control_c, 11, 11, 112
11, 57200, Control_c, 11, 11, 109
11, 57218, Control_c, 11, 11, 106
11, 57236, Control_c, 11, 11, 103
11, 57252, Note_on_c, 11, 71, 0
11, 57252, Note_on_c, 11, 79, 0
11, 57272, Note_on_c, 11, 55, 108
11, 57287, Note_on_c, 11, 55, 0
11, 57302, Note_on_c, 11, 57, 108
11, 57317, Note_on_c, 11, 57, 0
11, 57332, Note_on_c, 11, 59, 108
11, 57347, Note_on_c, 11, 59, 0
11, 57362, Note_on_c, 11, 60, 108
11, 57377, Note_on_c, 11, 60, 0
11, 57392, Note_on_c, 11, 62, 108
11, 57407, Note_on_c, 11, 62, 0
11, 57422, Note_on_c, 11, 64, 108
11, 57437, Note_on_c, 11, 64, 0
11, 57452, Note_on_c, 11, 66, 108
11, 57467, Note_on_c, 11, 66, 0
11, 57482, Note_on_c, 11, 67, 108
11, 57512, Note_on_c, 11, 67, 0
11, 57542, Note_on_c, 11, 67, 108
11, 57572, Note_on_c, 11, 67, 0
11, 57602, Control_c, 11, 11, 107
11, 57602, Note_on_c, 11, 67, 108
11, 57611, Control_c, 11, 11, 110
11, 57620, Control_c, 11, 11, 113
11, 57629, Control_c, 11, 11, 116
11, 57644, Control_c, 11, 11, 115
11, 57662, Control_c, 11, 11, 112
11, 57680, Control_c, 11, 11, 109
11, 57698, Control_c, 11, 11, 106
11, 57716, Control_c, 11, 11, 103
11, 57732, Note_on_c, 11, 67, 0
11, 57752, Note_on_c, 11, 59, 108
11, 57767, Note_on_c, 11, 59, 0
11, 57782, Note_on_c, 11, 60, 108
11, 57797, Note_on_c, 11, 60, 0
11, 57812, Note_on_c, 11, 62, 108
11, 57827, Note_on_c, 11, 62, 0
11, 57842, Note_on_c, 11, 64, 108
11, 57857, Note_on_c, 11, 64, 0
11, 57872, Note_on_c, 11, 66, 108
11, 57887, Note_on_c, 11, 66, 0
11, 57902, Note_on_c, 11, 67, 108
11, 57917, Note_on_c, 11, 67, 0
11, 57932, Note_on_c, 11, 69, 108
11, 57947, Note_on_c, 11, 69, 0
11, 57962, Note_on_c, 11, 71, 108
11, 57992, Note_on_c, 11, 71, 0
11, 58022, Note_on_c, 11, 71, 108
11, 58052, Note_on_c, 11, 71, 0
11, 58082, Note_on_c, 11, 71, 108
11, 58082, Control_c, 11, 11, 107
11, 58091, Control_c, 11, 11, 110
11, 58100, Control_c, 11, 11, 113
11, 58109, Control_c, 11, 11, 116
11, 58124, Control_c, 11, 11, 115
11, 58142, Control_c, 11, 11, 112
11, 58160, Control_c, 11, 11, 109
11, 58178, Control_c, 11, 11, 106
11, 58196, Control_c, 11, 11, 103
11, 58212, Note_on_c, 11, 71, 0
11, 58232, Note_on_c, 11, 62, 108
11, 58247, Note_on_c, 11, 62, 0
11, 58262, Note_on_c, 11, 64, 108
11, 58277, Note_on_c, 11, 64, 0
11, 58292, Note_on_c, 11, 66, 108
11, 58307, Note_on_c, 11, 66, 0
11, 58322, Note_on_c, 11, 67, 108
11, 58337, Note_on_c, 11, 67, 0
11, 58352, Note_on_c, 11, 69, 108
11, 58367, Note_on_c, 11, 69, 0
11, 58382, Note_on_c, 11, 71, 108
11, 58397, Note_on_c, 11, 71, 0
11, 58412, Note_on_c, 11, 72, 108
11, 58427, Note_on_c, 11, 72, 0
11, 58442, Note_on_c, 11, 74, 108
11, 58472, Note_on_c, 11, 74, 0
11, 58502, Note_on_c, 11, 74, 108
11, 58532, Note_on_c, 11, 74, 0
11, 58562, Note_on_c, 11, 74, 108
11, 58562, Control_c, 11, 11, 107
11, 58571, Control_c, 11, 11, 110
11, 58580, Control_c, 11, 11, 113
11, 58589, Control_c, 11, 11, 116
11, 58604, Control_c, 11, 11, 115
11, 58622, Control_c, 11, 11, 112
11, 58640, Control_c, 11, 11, 109
11, 58658, Control_c, 11, 11, 106
11, 58676, Control_c, 11, 11, 103
11, 58692, Note_on_c, 11, 74, 0
11, 58712, Note_on_c, 11, 65, 108
11, 58727, Note_on_c, 11, 65, 0
11, 58742, Note_on_c, 11, 67, 108
11, 58757, Note_on_c, 11, 67, 0
11, 58772, Note_on_c, 11, 69, 108
11, 58787, Note_on_c, 11, 69, 0
11, 58802, Note_on_c, 11, 71, 108
11, 58817, Note_on_c, 11, 71, 0
11, 58832, Note_on_c, 11, 72, 108
11, 58847, Note_on_c, 11, 72, 0
11, 58862, Note_on_c, 11, 74, 108
11, 58877, Note_on_c, 11, 74, 0
11, 58892, Note_on_c, 11, 76, 108
11, 58907, Note_on_c, 11, 76, 0
11, 58922, Note_on_c, 11, 77, 108
11, 58952, Note_on_c, 11, 77, 0
11, 58982, Note_on_c, 11, 77, 108
11, 59012, Note_on_c, 11, 77, 0
11, 59042, Note_on_c, 11, 77, 108
11, 59132, Note_on_c, 11, 77, 0
11, 59282, Note_on_c, 11, 55, 108
11, 59282, Note_on_c, 11, 71, 108
11, 59282, Note_on_c, 11, 62, 108
11, 59342, Note_on_c, 11, 62, 0
11, 59342, Note_on_c, 11, 71, 0
11, 59342, Note_on_c, 11, 55, 0
11, 59522, Note_on_c, 11, 65, 108
11, 59522, Note_on_c, 11, 55, 108
11, 59522, Note_on_c, 11, 74, 108
11, 59582, Note_on_c, 11, 74, 0
11, 59582, Note_on_c, 11, 55, 0
11, 59582, Note_on_c, 11, 65, 0
11, 59762, Note_on_c, 11, 62, 108
11, 59762, Note_on_c, 11, 55, 108
11, 59762, Note_on_c, 11, 71, 108
11, 59822, Note_on_c, 11, 71, 0
11, 59822, Note_on_c, 11, 55, 0
11, 59822, Note_on_c, 11, 62, 0
11, 60002, Note_on_c, 11, 65, 93
11, 60002, Note_on_c, 11, 74, 93
11, 60002, Note_on_c, 11, 55, 93
11, 60062, Note_on_c, 11, 55, 0
11, 60062, Note_on_c, 11, 74, 0
11, 60062, Note_on_c, 11, 65, 0
11, 60962, Control_c, 11, 11, 47
11, 60962, Note_on_c, 11, 64, 108
11, 60982, Note_on_c, 11, 64, 0
11, 60992, Note_on_c, 11, 64, 108
11, 61012, Note_on_c, 11, 64, 0
11, 61022, Note_on_c, 11, 67, 108
11, 61042, Note_on_c, 11, 67, 0
11, 61052, Note_on_c, 11, 67, 108
11, 61072, Note_on_c, 11, 67, 0
11, 61082, Note_on_c, 11, 64, 108
11, 61102, Note_on_c, 11, 64, 0
11, 61112, Note_on_c, 11, 64, 108
11, 61132, Note_on_c, 11, 64, 0
11, 61142, Note_on_c, 11, 67, 108
11, 61162, Note_on_c, 11, 67, 0
11, 61172, Note_on_c, 11, 67, 108
11, 61192, Note_on_c, 11, 67, 0
11, 61202, Note_on_c, 11, 65, 108
11, 61222, Note_on_c, 11, 65, 0
11, 61232, Note_on_c, 11, 65, 108
11, 61252, Note_on_c, 11, 65, 0
11, 61262, Note_on_c, 11, 67, 108
11, 61282, Note_on_c, 11, 67, 0
11, 61292, Note_on_c, 11, 67, 108
11, 61312, Note_on_c, 11, 67, 0
11, 61322, Note_on_c, 11, 65, 108
11, 61342, Note_on_c, 11, 65, 0
11, 61352, Note_on_c, 11, 65, 108
11, 61372, Note_on_c, 11, 65, 0
11, 61382, Note_on_c, 11, 67, 108
11, 61402, Note_on_c, 11, 67, 0
11, 61412, Note_on_c, 11, 67, 108
11, 61432, Note_on_c, 11, 67, 0
11, 61442, Note_on_c, 11, 64, 108
11, 61462, Note_on_c, 11, 64, 0
11, 61472, Note_on_c, 11, 64, 108
11, 61492, Note_on_c, 11, 64, 0
11, 61502, Note_on_c, 11, 67, 108
11, 61522, Note_on_c, 11, 67, 0
11, 61532, Note_on_c, 11, 67, 108
11, 61552, Note_on_c, 11, 67, 0
11, 61562, Note_on_c, 11, 64, 108
11, 61582, Note_on_c, 11, 64, 0
11, 61592, Note_on_c, 11, 64, 108
11, 61612, Note_on_c, 11, 64, 0
11, 61622, Note_on_c, 11, 67, 108
11, 61642, Note_on_c, 11, 67, 0
11, 61652, Note_on_c, 11, 67, 108
11, 61672, Note_on_c, 11, 67, 0
11, 61682, Note_on_c, 11, 64, 108
11, 61702, Note_on_c, 11, 64, 0
11, 61712, Note_on_c, 11, 64, 108
11, 61732, Note_on_c, 11, 64, 0
11, 61742, Note_on_c, 11, 67, 108
11, 61762, Note_on_c, 11, 67, 0
11, 61772, Note_on_c, 11, 67, 108
11, 61792, Note_on_c, 11, 67, 0
11, 61802, Note_on_c, 11, 65, 108
11, 61822, Note_on_c, 11, 65, 0
11, 61832, Note_on_c, 11, 65, 108
11, 61852, Note_on_c, 11, 65, 0
11, 61862, Note_on_c, 11, 67, 108
11, 61882, Note_on_c, 11, 67, 0
11, 61892, Note_on_c, 11, 67, 108
11, 61912, Note_on_c, 11, 67, 0
11, 61922, Note_on_c, 11, 64, 108
11, 61942, Note_on_c, 11, 64, 0
11, 61952, Note_on_c, 11, 64, 108
11, 61972, Note_on_c, 11, 64, 0
11, 61982, Note_on_c, 11, 67, 108
11, 62002, Note_on_c, 11, 67, 0
11, 62012, Note_on_c, 11, 67, 108
11, 62032, Note_on_c, 11, 67, 0
11, 62042, Note_on_c, 11, 64, 108
11, 62062, Note_on_c, 11, 64, 0
11, 62072, Note_on_c, 11, 64, 108
11, 62092, Note_on_c, 11, 64, 0
11, 62102, Note_on_c, 11, 67, 108
11, 62122, Note_on_c, 11, 67, 0
11, 62132, Note_on_c, 11, 67, 108
11, 62152, Note_on_c, 11, 67, 0
11, 62162, Note_on_c, 11, 66, 108
11, 62182, Note_on_c, 11, 66, 0
11, 62192, Note_on_c, 11, 66, 108
11, 62212, Note_on_c, 11, 66, 0
11, 62222, Note_on_c, 11, 66, 108
11, 62242, Note_on_c, 11, 66, 0
11, 62252, Note_on_c, 11, 66, 108
11, 62272, Note_on_c, 11, 66, 0
11, 62282, Note_on_c, 11, 66, 108
11, 62302, Note_on_c, 11, 66, 0
11, 62312, Note_on_c, 11, 66, 108
11, 62332, Note_on_c, 11, 66, 0
11, 62342, Note_on_c, 11, 66, 108
11, 62362, Note_on_c, 11, 66, 0
11, 62372, Note_on_c, 11, 66, 108
11, 62392, Note_on_c, 11, 66, 0
11, 62402, Note_on_c, 11, 67, 93
11, 62522, Note_on_c, 11, 67, 0
11, 62582, Note_on_c, 11, 67, 108
11, 62632, Note_on_c, 11, 67, 0
11, 62642, Note_on_c, 11, 76, 108
11, 62672, Note_on_c, 11, 76, 0
11, 62702, Note_on_c, 11, 76, 108
11, 62732, Note_on_c, 11, 76, 0
11, 62762, Note_on_c, 11, 76, 108
11, 62792, Note_on_c, 11, 76, 0
11, 62822, Note_on_c, 11, 76, 108
11, 62852, Note_on_c, 11, 76, 0
11, 62882, Note_on_c, 11, 76, 108
11, 63002, Note_on_c, 11, 76, 0
11, 63002, Note_on_c, 11, 74, 108
11, 63052, Note_on_c, 11, 74, 0
11, 63062, Note_on_c, 11, 74, 108
11, 63092, Note_on_c, 11, 74, 0
11, 63122, Note_on_c, 11, 74, 108
11, 63152, Note_on_c, 11, 74, 0
11, 63182, Note_on_c, 11, 74, 108
11, 63212, Note_on_c, 11, 74, 0
11, 63242, Note_on_c, 11, 74, 108
11, 63272, Note_on_c, 11, 74, 0
11, 63302, Note_on_c, 11, 74, 108
11, 63332, Note_on_c, 11, 74, 0
11, 63362, Note_on_c, 11, 74, 108
11, 63482, Note_on_c, 11, 74, 0
11, 63482, Note_on_c, 11, 72, 108
11, 63532, Note_on_c, 11, 72, 0
11, 63542, Note_on_c, 11, 72, 108
11, 63572, Note_on_c, 11, 72, 0
11, 63602, Note_on_c, 11, 72, 108
11, 63632, Note_on_c, 11, 72, 0
11, 63662, Note_on_c, 11, 72, 108
11, 63692, Note_on_c, 11, 72, 0
11, 63722, Note_on_c, 11, 72, 108
11, 63752, Note_on_c, 11, 72, 0
11, 63782, Note_on_c, 11, 72, 108
11, 63812, Note_on_c, 11, 72, 0
11, 63842, Note_on_c, 11, 72, 108
11, 63902, Note_on_c, 11, 72, 0
11, 63962, Note_on_c, 11, 72, 108
11, 64022, Note_on_c, 11, 72, 0
11, 64082, Note_on_c, 11, 67, 108
11, 64142, Note_on_c, 11, 67, 0
11, 64202, Note_on_c, 11, 65, 108
11, 64262, Note_on_c, 11, 65, 0
11, 64322, Note_on_c, 11, 64, 108
11, 64382, Note_on_c, 11, 64, 0
11, 64562, Control_c, 11, 11, 47
11, 64586, Control_c, 11, 11, 48
11, 64610, Control_c, 11, 11, 49
11, 64622, Note_on_c, 11, 69, 108
11, 64634, Control_c, 11, 11, 50
11, 64652, Note_on_c, 11, 69, 0
11, 64658, Control_c, 11, 11, 51
11, 64682, Note_on_c, 11, 71, 108
11, 64682, Control_c, 11, 11, 52
11, 64706, Control_c, 11, 11, 53
11, 64712, Note_on_c, 11, 71, 0
11, 64730, Control_c, 11, 11, 54
11, 64742, Note_on_c, 11, 73, 108
11, 64754, Control_c, 11, 11, 55
11, 64772, Note_on_c, 11, 73, 0
11, 64778, Control_c, 11, 11, 56
11, 64802, Control_c, 11, 11, 57
11, 64802, Note_on_c, 11, 74, 108
11, 64826, Control_c, 11, 11, 58
11, 64832, Note_on_c, 11, 74, 0
11, 64850, Control_c, 11, 11, 59
11, 64862, Note_on_c, 11, 76, 108
11, 64874, Control_c, 11, 11, 60
11, 64892, Note_on_c, 11, 76, 0
11, 64898, Control_c, 11, 11, 61
11, 64922, Note_on_c, 11, 77, 108
11, 64922, Control_c, 11, 11, 62
11, 64946, Control_c, 11, 11, 63
11, 64952, Note_on_c, 11, 77, 0
11, 64970, Control_c, 11, 11, 64
11, 64994, Control_c, 11, 11, 65
11, 65018, Control_c, 11, 11, 66
11, 65042, Control_c, 11, 11, 67
11, 65066, Control_c, 11, 11, 68
11, 65090, Control_c, 11, 11, 69
11, 65102, Note_on_c, 11, 67, 108
11, 65114, Control_c, 11, 11, 70
11, 65132, Note_on_c, 11, 67, 0
11, 65138, Control_c, 11, 11, 71
11, 65162, Note_on_c, 11, 69, 108
11, 65162, Control_c, 11, 11, 72
11, 65186, Control_c, 11, 11, 73
11, 65192, Note_on_c, 11, 69, 0
11, 65210, Control_c, 11, 11, 74
11, 65222, Note_on_c, 11, 71, 108
11, 65234, Control_c, 11, 11, 75
11, 65252, Note_on_c, 11, 71, 0
11, 65258, Control_c, 11, 11, 76
11, 65282, Note_on_c, 11, 72, 108
11, 65282, Control_c, 11, 11, 77
11, 65306, Control_c, 11, 11, 78
11, 65312, Note_on_c, 11, 72, 0
11, 65330, Control_c, 11, 11, 79
11, 65342, Note_on_c, 11, 74, 108
11, 65354, Control_c, 11, 11, 80
11, 65372, Note_on_c, 11, 74, 0
11, 65378, Control_c, 11, 11, 81
11, 65402, Note_on_c, 11, 76, 108
11, 65402, Control_c, 11, 11, 82
11, 65426, Control_c, 11, 11, 83
11, 65432, Note_on_c, 11, 76, 0
11, 65450, Control_c, 11, 11, 84
11, 65462, Note_on_c, 11, 81, 108
11, 65474, Control_c, 11, 11, 85
11, 65498, Control_c, 11, 11, 86
11, 65512, Note_on_c, 11, 81, 0
11, 65522, Note_on_c, 11, 81, 108
11, 65522, Control_c, 11, 11, 87
11, 65552, Note_on_c, 11, 81, 0
11, 65582, Note_on_c, 11, 81, 108
11, 65612, Note_on_c, 11, 81, 0
11, 65642, Note_on_c, 11, 81, 108
11, 65672, Note_on_c, 11, 81, 0
11, 65702, Note_on_c, 11, 81, 108
11, 65732, Note_on_c, 11, 81, 0
11, 65762, Note_on_c, 11, 81, 108
11, 65882, Note_on_c, 11, 81, 0
11, 65882, Note_on_c, 11, 79, 108
11, 65932, Note_on_c, 11, 79, 0
11, 65942, Note_on_c, 11, 79, 108
11, 65972, Note_on_c, 11, 79, 0
11, 66002, Note_on_c, 11, 79, 108
11, 66032, Note_on_c, 11, 79, 0
11, 66062, Note_on_c, 11, 79, 108
11, 66092, Note_on_c, 11, 79, 0
11, 66122, Note_on_c, 11, 79, 108
11, 66152, Note_on_c, 11, 79, 0
11, 66182, Note_on_c, 11, 79, 108
11, 66212, Note_on_c, 11, 79, 0
11, 66242, Note_on_c, 11, 79, 108
11, 66362, Note_on_c, 11, 79, 0
11, 66362, Note_on_c, 11, 77, 108
11, 66412, Note_on_c, 11, 77, 0
11, 66422, Note_on_c, 11, 77, 108
11, 66452, Note_on_c, 11, 77, 0
11, 66482, Note_on_c, 11, 77, 108
11, 66512, Note_on_c, 11, 77, 0
11, 66542, Note_on_c, 11, 77, 108
11, 66572, Note_on_c, 11, 77, 0
11, 66602, Note_on_c, 11, 77, 108
11, 66632, Note_on_c, 11, 77, 0
11, 66662, Note_on_c, 11, 77, 108
11, 66692, Note_on_c, 11, 77, 0
11, 66722, Note_on_c, 11, 77, 108
11, 66772, Note_on_c, 11, 77, 0
11, 66782, Note_on_c, 11, 74, 108
11, 66832, Note_on_c, 11, 74, 0
11, 66842, Note_on_c, 11, 74, 108
11, 66892, Note_on_c, 11, 74, 0
11, 66902, Note_on_c, 11, 74, 108
11, 66952, Note_on_c, 11, 74, 0
11, 66962, Note_on_c, 11, 74, 108
11, 67012, Note_on_c, 11, 74, 0
11, 67022, Note_on_c, 11, 74, 108
11, 67072, Note_on_c, 11, 74, 0
11, 67082, Note_on_c, 11, 74, 108
11, 67132, Note_on_c, 11, 74, 0
11, 67142, Note_on_c, 11, 74, 108
11, 67192, Note_on_c, 11, 74, 0
11, 67202, Note_on_c, 11, 67, 93
11, 67322, Note_on_c, 11, 67, 0
11, 67682, Note_on_c, 11, 60, 108
11, 67682, Control_c, 11, 11, 47
11, 67852, Note_on_c, 11, 60, 0
11, 67862, Note_on_c, 11, 65, 108
11, 67922, Note_on_c, 11, 65, 0
11, 67922, Note_on_c, 11, 64, 118
11, 67952, Note_on_c, 11, 64, 0
11, 67982, Note_on_c, 11, 64, 108
11, 68012, Note_on_c, 11, 64, 0
11, 68102, Note_on_c, 11, 67, 108
11, 68162, Note_on_c, 11, 67, 0
11, 68162, Note_on_c, 11, 65, 118
11, 68192, Note_on_c, 11, 65, 0
11, 68222, Note_on_c, 11, 65, 108
11, 68252, Note_on_c, 11, 65, 0
11, 68342, Note_on_c, 11, 69, 108
11, 68402, Note_on_c, 11, 69, 0
11, 68402, Note_on_c, 11, 67, 118
11, 68432, Note_on_c, 11, 67, 0
11, 68462, Note_on_c, 11, 64, 108
11, 68492, Note_on_c, 11, 64, 0
11, 68522, Note_on_c, 11, 60, 108
11, 68552, Note_on_c, 11, 60, 0
11, 68582, Note_on_c, 11, 58, 108
11, 68612, Note_on_c, 11, 58, 0
11, 68642, Note_on_c, 11, 57, 108
11, 68702, Note_on_c, 11, 57, 0
11, 68702, Note_on_c, 11, 60, 108
11, 68762, Note_on_c, 11, 60, 0
11, 68822, Note_on_c, 11, 65, 108
11, 68852, Note_on_c, 11, 65, 0
11, 68882, Note_on_c, 11, 65, 118
11, 68942, Note_on_c, 11, 65, 0
11, 68942, Note_on_c, 11, 64, 108
11, 69002, Note_on_c, 11, 64, 0
11, 69062, Note_on_c, 11, 67, 108
11, 69092, Note_on_c, 11, 67, 0
11, 69122, Note_on_c, 11, 67, 118
11, 69182, Note_on_c, 11, 67, 0
11, 69182, Note_on_c, 11, 65, 108
11, 69242, Note_on_c, 11, 65, 0
11, 69302, Note_on_c, 11, 69, 108
11, 69332, Note_on_c, 11, 69, 0
11, 69362, Note_on_c, 11, 69, 118
11, 69422, Note_on_c, 11, 69, 0
11, 69422, Note_on_c, 11, 67, 108
11, 69472, Note_on_c, 11, 67, 0
11, 69482, Note_on_c, 11, 67, 108
11, 69542, Note_on_c, 11, 67, 0
11, 69542, Note_on_c, 11, 65, 108
11, 69592, Note_on_c, 11, 65, 0
11, 69602, Note_on_c, 11, 64, 108
11, 69662, Note_on_c, 11, 64, 0
11, 69662, Note_on_c, 11, 67, 108
11, 69722, Note_on_c, 11, 67, 0
11, 69782, Note_on_c, 11, 72, 108
11, 69812, Note_on_c, 11, 72, 0
11, 69842, Note_on_c, 11, 72, 118
11, 69902, Note_on_c, 11, 72, 0
11, 69902, Note_on_c, 11, 71, 108
11, 69962, Note_on_c, 11, 71, 0
11, 70022, Note_on_c, 11, 74, 108
11, 70052, Note_on_c, 11, 74, 0
11, 70082, Note_on_c, 11, 74, 118
11, 70142, Note_on_c, 11, 74, 0
11, 70142, Note_on_c, 11, 72, 108
11, 70202, Note_on_c, 11, 72, 0
11, 70262, Note_on_c, 11, 76, 108
11, 70322, Note_on_c, 11, 76, 0
11, 70322, Note_on_c, 11, 74, 118
11, 70352, Note_on_c, 11, 74, 0
11, 70382, Note_on_c, 11, 71, 108
11, 70412, Note_on_c, 11, 71, 0
11, 70442, Note_on_c, 11, 67, 108
11, 70472, Note_on_c, 11, 67, 0
11, 70502, Note_on_c, 11, 65, 108
11, 70532, Note_on_c, 11, 65, 0
11, 70562, Control_c, 11, 11, 47
11, 70562, Note_on_c, 11, 64, 108
11, 70598, Control_c, 11, 11, 48
11, 70622, Note_on_c, 11, 64, 0
11, 70622, Note_on_c, 11, 67, 108
11, 70634, Control_c, 11, 11, 49
11, 70670, Control_c, 11, 11, 50
11, 70672, Note_on_c, 11, 67, 0
11, 70682, Note_on_c, 11, 67, 108
11, 70706, Control_c, 11, 11, 51
11, 70712, Note_on_c, 11, 67, 0
11, 70742, Control_c, 11, 11, 52
11, 70742, Note_on_c, 11, 72, 108
11, 70772, Note_on_c, 11, 72, 0
11, 70778, Control_c, 11, 11, 53
11, 70802, Note_on_c, 11, 72, 118
11, 70814, Control_c, 11, 11, 54
11, 70850, Control_c, 11, 11, 55
11, 70862, Note_on_c, 11, 72, 0
11, 70862, Note_on_c, 11, 71, 108
11, 70886, Control_c, 11, 11, 56
11, 70912, Note_on_c, 11, 71, 0
11, 70922, Control_c, 11, 11, 57
11, 70922, Note_on_c, 11, 71, 108
11, 70952, Note_on_c, 11, 71, 0
11, 70958, Control_c, 11, 11, 58
11, 70982, Note_on_c, 11, 74, 108
11, 70994, Control_c, 11, 11, 59
11, 71012, Note_on_c, 11, 74, 0
11, 71030, Control_c, 11, 11, 60
11, 71042, Note_on_c, 11, 74, 118
11, 71066, Control_c, 11, 11, 61
11, 71102, Note_on_c, 11, 74, 0
11, 71102, Note_on_c, 11, 72, 108
11, 71102, Control_c, 11, 11, 62
11, 71138, Control_c, 11, 11, 63
11, 71152, Note_on_c, 11, 72, 0
11, 71162, Note_on_c, 11, 72, 108
11, 71174, Control_c, 11, 11, 64
11, 71192, Note_on_c, 11, 72, 0
11, 71210, Control_c, 11, 11, 65
11, 71222, Note_on_c, 11, 64, 108
11, 71246, Control_c, 11, 11, 66
11, 71252, Note_on_c, 11, 64, 0
11, 71282, Control_c, 11, 11, 67
11, 71282, Note_on_c, 11, 64, 118
11, 71318, Control_c, 11, 11, 68
11, 71342, Note_on_c, 11, 64, 0
11, 71342, Note_on_c, 11, 62, 108
11, 71354, Control_c, 11, 11, 69
11, 71390, Control_c, 11, 11, 70
11, 71392, Note_on_c, 11, 62, 0
11, 71402, Note_on_c, 11, 62, 108
11, 71426, Control_c, 11, 11, 71
11, 71432, Note_on_c, 11, 62, 0
11, 71462, Note_on_c, 11, 65, 108
11, 71462, Control_c, 11, 11, 72
11, 71492, Note_on_c, 11, 65, 0
11, 71498, Control_c, 11, 11, 73
11, 71522, Note_on_c, 11, 65, 118
11, 71534, Control_c, 11, 11, 74
11, 71570, Control_c, 11, 11, 75
11, 71582, Note_on_c, 11, 65, 0
11, 71582, Note_on_c, 11, 64, 108
11, 71606, Control_c, 11, 11, 76
11, 71632, Note_on_c, 11, 64, 0
11, 71642, Control_c, 11, 11, 77
11, 71642, Note_on_c, 11, 64, 108
11, 71672, Note_on_c, 11, 64, 0
11, 71678, Control_c, 11, 11, 78
11, 71702, Note_on_c, 11, 67, 108
11, 71714, Control_c, 11, 11, 79
11, 71732, Note_on_c, 11, 67, 0
11, 71750, Control_c, 11, 11, 80
11, 71762, Note_on_c, 11, 67, 118
11, 71786, Control_c, 11, 11, 81
11, 71822, Note_on_c, 11, 67, 0
11, 71822, Note_on_c, 11, 65, 108
11, 71822, Control_c, 11, 11, 82
11, 71858, Control_c, 11, 11, 83
11, 71872, Note_on_c, 11, 65, 0
11, 71882, Note_on_c, 11, 65, 108
11, 71894, Control_c, 11, 11, 84
11, 71912, Note_on_c, 11, 65, 0
11, 71930, Control_c, 11, 11, 85
11, 71942, Note_on_c, 11, 69, 108
11, 71966, Control_c, 11, 11, 86
11, 71972, Note_on_c, 11, 69, 0
11, 72002, Note_on_c, 11, 70, 108
11, 72002, Control_c, 11, 11, 92
11, 72006, Control_c, 11, 11, 95
11, 72010, Control_c, 11, 11, 98
11, 72014, Control_c, 11, 11, 101
11, 72028, Control_c, 11, 11, 98
11, 72037, Control_c, 11, 11, 95
11, 72046, Control_c, 11, 11, 92
11, 72055, Control_c, 11, 11, 89
11, 72222, Note_on_c, 11, 70, 0
11, 72232, Control_c, 11, 11, 92
11, 72242, Note_on_c, 11, 70, 108
11, 72243, Control_c, 11, 11, 95
11, 72255, Control_c, 11, 11, 98
11, 72267, Control_c, 11, 11, 101
11, 72283, Control_c, 11, 11, 100
11, 72301, Control_c, 11, 11, 97
11, 72319, Control_c, 11, 11, 94
11, 72337, Control_c, 11, 11, 91
11, 72355, Control_c, 11, 11, 88
11, 72462, Note_on_c, 11, 70, 0
11, 72482, Note_on_c, 11, 69, 108
11, 72482, Control_c, 11, 11, 92
11, 72490, Control_c, 11, 11, 95
11, 72499, Control_c, 11, 11, 98
11, 72508, Control_c, 11, 11, 101
11, 72523, Control_c, 11, 11, 100
11, 72541, Control_c, 11, 11, 97
11, 72559, Control_c, 11, 11, 94
11, 72577, Control_c, 11, 11, 91
11, 72595, Control_c, 11, 11, 88
11, 72702, Note_on_c, 11, 69, 0
11, 72722, Note_on_c, 11, 69, 108
11, 72722, Control_c, 11, 11, 92
11, 72730, Control_c, 11, 11, 95
11, 72739, Control_c, 11, 11, 98
11, 72748, Control_c, 11, 11, 101
11, 72763, Control_c, 11, 11, 100
11, 72781, Control_c, 11, 11, 97
11, 72799, Control_c, 11, 11, 94
11, 72817, Control_c, 11, 11, 91
11, 72835, Control_c, 11, 11, 88
11, 72942, Note_on_c, 11, 69, 0
11, 72962, Note_on_c, 11, 68, 108
11, 72982, Note_on_c, 11, 68, 0
11, 72992, Note_on_c, 11, 68, 108
11, 73012, Note_on_c, 11, 68, 0
11, 73022, Note_on_c, 11, 68, 108
11, 73042, Note_on_c, 11, 68, 0
11, 73052, Note_on_c, 11, 68, 108
11, 73072, Note_on_c, 11, 68, 0
11, 73082, Control_c, 11, 11, 102
11, 73082, Note_on_c, 11, 68, 108
11, 73102, Note_on_c, 11, 68, 0
11, 73112, Note_on_c, 11, 68, 108
11, 73132, Note_on_c, 11, 68, 0
11, 73142, Note_on_c, 11, 68, 108
11, 73162, Note_on_c, 11, 68, 0
11, 73172, Note_on_c, 11, 68, 108
11, 73192, Note_on_c, 11, 68, 0
11, 73202, Note_on_c, 11, 68, 108
11, 73222, Note_on_c, 11, 68, 0
11, 73232, Note_on_c, 11, 68, 108
11, 73252, Note_on_c, 11, 68, 0
11, 73262, Note_on_c, 11, 68, 108
11, 73282, Note_on_c, 11, 68, 0
11, 73292, Note_on_c, 11, 68, 108
11, 73312, Note_on_c, 11, 68, 0
11, 73322, Note_on_c, 11, 67, 108
11, 73342, Note_on_c, 11, 67, 0
11, 73352, Note_on_c, 11, 67, 108
11, 73372, Note_on_c, 11, 67, 0
11, 73382, Note_on_c, 11, 67, 108
11, 73402, Note_on_c, 11, 67, 0
11, 73412, Note_on_c, 11, 67, 108
11, 73432, Note_on_c, 11, 67, 0
11, 73442, Note_on_c, 11, 67, 108
11, 73462, Note_on_c, 11, 67, 0
11, 73472, Note_on_c, 11, 67, 108
11, 73492, Note_on_c, 11, 67, 0
11, 73502, Note_on_c, 11, 67, 108
11, 73522, Note_on_c, 11, 67, 0
11, 73532, Note_on_c, 11, 67, 108
11, 73552, Note_on_c, 11, 67, 0
11, 73562, Note_on_c, 11, 65, 108
11, 73582, Note_on_c, 11, 65, 0
11, 73592, Note_on_c, 11, 65, 108
11, 73612, Note_on_c, 11, 65, 0
11, 73622, Note_on_c, 11, 65, 108
11, 73642, Note_on_c, 11, 65, 0
11, 73652, Note_on_c, 11, 65, 108
11, 73672, Note_on_c, 11, 65, 0
11, 73682, Note_on_c, 11, 64, 108
11, 73702, Note_on_c, 11, 64, 0
11, 73712, Note_on_c, 11, 64, 108
11, 73732, Note_on_c, 11, 64, 0
11, 73742, Note_on_c, 11, 64, 108
11, 73762, Note_on_c, 11, 64, 0
11, 73772, Note_on_c, 11, 64, 108
11, 73792, Note_on_c, 11, 64, 0
11, 73802, Note_on_c, 11, 62, 108
11, 73822, Note_on_c, 11, 62, 0
11, 73832, Note_on_c, 11, 62, 108
11, 73852, Note_on_c, 11, 62, 0
11, 73862, Note_on_c, 11, 62, 108
11, 73882, Note_on_c, 11, 62, 0
11, 73892, Note_on_c, 11, 62, 108
11, 73912, Note_on_c, 11, 62, 0
11, 73922, Note_on_c, 11, 60, 108
11, 73982, Note_on_c, 11, 60, 0
11, 74222, Control_c, 11, 11, 122
11, 74222, Note_on_c, 11, 69, 108
11, 74222, Note_on_c, 11, 77, 108
11, 74239, Control_c, 11, 11, 119
11, 74257, Control_c, 11, 11, 116
11, 74275, Control_c, 11, 11, 113
11, 74293, Control_c, 11, 11, 110
11, 74311, Control_c, 11, 11, 107
11, 74322, Note_on_c, 11, 77, 0
11, 74322, Note_on_c, 11, 69, 0
11, 74329, Control_c, 11, 11, 104
11, 74342, Note_on_c, 11, 69, 108
11, 74342, Note_on_c, 11, 77, 108
11, 74392, Note_on_c, 11, 77, 0
11, 74392, Note_on_c, 11, 69, 0
11, 74402, Note_on_c, 11, 76, 108
11, 74402, Note_on_c, 11, 67, 108
11, 74462, Note_on_c, 11, 67, 0
11, 74462, Note_on_c, 11, 76, 0
11, 74702, Note_on_c, 11, 71, 108
11, 74702, Note_on_c, 11, 79, 108
11, 74702, Control_c, 11, 11, 122
11, 74719, Control_c, 11, 11, 119
11, 74737, Control_c, 11, 11, 116
11, 74755, Control_c, 11, 11, 113
11, 74773, Control_c, 11, 11, 110
11, 74791, Control_c, 11, 11, 107
11, 74802, Note_on_c, 11, 79, 0
11, 74802, Note_on_c, 11, 71, 0
11, 74809, Control_c, 11, 11, 104
11, 74822, Note_on_c, 11, 71, 108
11, 74822, Note_on_c, 11, 79, 108
11, 74872, Note_on_c, 11, 79, 0
11, 74872, Note_on_c, 11, 71, 0
11, 74882, Note_on_c, 11, 72, 108
11, 74882, Note_on_c, 11, 79, 108
11, 74942, Note_on_c, 11, 79, 0
11, 74942, Note_on_c, 11, 72, 0
11, 75182, Control_c, 11, 11, 122
11, 75182, Note_on_c, 11, 69, 108
11, 75182, Note_on_c, 11, 77, 108
11, 75199, Control_c, 11, 11, 119
11, 75217, Control_c, 11, 11, 116
11, 75235, Control_c, 11, 11, 113
11, 75253, Control_c, 11, 11, 110
11, 75271, Control_c, 11, 11, 107
11, 75282, Note_on_c, 11, 77, 0
11, 75282, Note_on_c, 11, 69, 0
11, 75289, Control_c, 11, 11, 104
11, 75302, Note_on_c, 11, 69, 108
11, 75302, Note_on_c, 11, 77, 108
11, 75352, Note_on_c, 11, 77, 0
11, 75352, Note_on_c, 11, 69, 0
11, 75362, Note_on_c, 11, 67, 108
11, 75362, Note_on_c, 11, 76, 108
11, 75422, Note_on_c, 11, 76, 0
11, 75422, Note_on_c, 11, 67, 0
11, 75662, Control_c, 11, 11, 122
11, 75662, Note_on_c, 11, 79, 108
11, 75662, Note_on_c, 11, 71, 108
11, 75679, Control_c, 11, 11, 119
11, 75697, Control_c, 11, 11, 116
11, 75715, Control_c, 11, 11, 113
11, 75733, Control_c, 11, 11, 110
11, 75751, Control_c, 11, 11, 107
11, 75762, Note_on_c, 11, 71, 0
11, 75762, Note_on_c, 11, 79, 0
11, 75769, Control_c, 11, 11, 104
11, 75782, Note_on_c, 11, 71, 108
11, 75782, Note_on_c, 11, 79, 108
11, 75832, Note_on_c, 11, 79, 0
11, 75832, Note_on_c, 11, 71, 0
11, 75842, Note_on_c, 11, 72, 108
11, 75842, Note_on_c, 11, 79, 108
11, 75962, Note_on_c, 11, 79, 0
11, 75962, Note_on_c, 11, 72, 0
11, 75992, Note_on_c, 11, 60, 108
11, 76007, Note_on_c, 11, 60, 0
11, 76022, Note_on_c, 11, 62, 108
11, 76037, Note_on_c, 11, 62, 0
11, 76052, Note_on_c, 11, 64, 108
11, 76067, Note_on_c, 11, 64, 0
11, 76082, Note_on_c, 11, 65, 108
11, 76097, Note_on_c, 11, 65, 0
11, 76112, Note_on_c, 11, 67, 108
11, 76127, Note_on_c, 11, 67, 0
11, 76142, Note_on_c, 11, 69, 108
11, 76157, Note_on_c, 11, 69, 0
11, 76172, Note_on_c, 11, 71, 108
11, 76187, Note_on_c, 11, 71, 0
11, 76202, Note_on_c, 11, 72, 108
11, 76232, Note_on_c, 11, 72, 0
11, 76262, Note_on_c, 11, 72, 108
11, 76292, Note_on_c, 11, 72, 0
11, 76322, Note_on_c, 11, 74, 108
11, 76322, Control_c, 11, 11, 122
11, 76339, Control_c, 11, 11, 119
11, 76357, Control_c, 11, 11, 116
11, 76375, Control_c, 11, 11, 113
11, 76393, Control_c, 11, 11, 110
11, 76411, Control_c, 11, 11, 107
11, 76429, Control_c, 11, 11, 104
11, 76462, Note_on_c, 11, 74, 0
11, 76472, Note_on_c, 11, 62, 108
11, 76487, Note_on_c, 11, 62, 0
11, 76502, Note_on_c, 11, 64, 108
11, 76517, Note_on_c, 11, 64, 0
11, 76532, Note_on_c, 11, 65, 108
11, 76547, Note_on_c, 11, 65, 0
11, 76562, Note_on_c, 11, 67, 108
11, 76577, Note_on_c, 11, 67, 0
11, 76592, Note_on_c, 11, 69, 108
11, 76607, Note_on_c, 11, 69, 0
11, 76622, Note_on_c, 11, 71, 108
11, 76637, Note_on_c, 11, 71, 0
11, 76652, Note_on_c, 11, 72, 108
11, 76667, Note_on_c, 11, 72, 0
11, 76682, Note_on_c, 11, 74, 108
11, 76712, Note_on_c, 11, 74, 0
11, 76742, Note_on_c, 11, 74, 108
11, 76772, Note_on_c, 11, 74, 0
11, 76802, Note_on_c, 11, 76, 108
11, 76802, Control_c, 11, 11, 97
11, 76942, Note_on_c, 11, 76, 0
11, 76952, Note_on_c, 11, 64, 108
11, 76967, Note_on_c, 11, 64, 0
11, 76982, Note_on_c, 11, 65, 108
11, 76997, Note_on_c, 11, 65, 0
11, 77012, Note_on_c, 11, 67, 108
11, 77027, Note_on_c, 11, 67, 0
11, 77042, Note_on_c, 11, 69, 108
11, 77057, Note_on_c, 11, 69, 0
11, 77072, Note_on_c, 11, 71, 108
11, 77087, Note_on_c, 11, 71, 0
11, 77102, Note_on_c, 11, 72, 108
11, 77117, Note_on_c, 11, 72, 0
11, 77132, Note_on_c, 11, 74, 108
11, 77147, Note_on_c, 11, 74, 0
11, 77162, Note_on_c, 11, 76, 108
11, 77192, Note_on_c, 11, 76, 0
11, 77222, Note_on_c, 11, 64, 108
11, 77252, Note_on_c, 11, 64, 0
11, 77282, Note_on_c, 11, 65, 108
11, 77482, Note_on_c, 11, 65, 0
11, 77492, Note_on_c, 11, 65, 108
11, 77512, Note_on_c, 11, 65, 0
11, 77522, Control_c, 11, 11, 122
11, 77522, Note_on_c, 11, 66, 108
11, 77531, Control_c, 11, 11, 119
11, 77540, Control_c, 11, 11, 116
11, 77549, Control_c, 11, 11, 113
11, 77558, Control_c, 11, 11, 110
11, 77567, Control_c, 11, 11, 107
11, 77576, Control_c, 11, 11, 104
11, 77722, Note_on_c, 11, 66, 0
11, 77732, Note_on_c, 11, 66, 108
11, 77752, Note_on_c, 11, 66, 0
11, 77762, Note_on_c, 11, 67, 108
11, 77822, Note_on_c, 11, 67, 0
11, 77882, Note_on_c, 11, 69, 108
11, 77882, Control_c, 11, 11, 117
11, 77899, Control_c, 11, 11, 120
11, 77917, Control_c, 11, 11, 121
11, 77935, Control_c, 11, 11, 118
11, 77953, Control_c, 11, 11, 115
11, 77971, Control_c, 11, 11, 112
11, 77989, Control_c, 11, 11, 109
11, 78197, Control_c, 11, 11, 102
11, 78198, Control_c, 11, 11, 99
11, 78200, Control_c, 11, 11, 95
11, 78201, Control_c, 11, 11, 92
11, 78203, Control_c, 11, 11, 88
11, 78204, Control_c, 11, 11, 85
11, 78206, Control_c, 11, 11, 81
11, 78207, Control_c, 11, 11, 78
11, 78209, Control_c, 11, 11, 74
11, 78210, Control_c, 11, 11, 71
11, 78212, Note_on_c, 11, 69, 0
11, 78212, Control_c, 11, 11, 67
11, 78242, Note_on_c, 11, 71, 108
11, 78242, Control_c, 11, 11, 102
11, 78302, Note_on_c, 11, 71, 0
11, 78362, Note_on_c, 11, 77, 108
11, 78362, Control_c, 11, 11, 117
11, 78379, Control_c, 11, 11, 120
11, 78397, Control_c, 11, 11, 121
11, 78415, Control_c, 11, 11, 118
11, 78433, Control_c, 11, 11, 115
11, 78451, Control_c, 11, 11, 112
11, 78469, Control_c, 11, 11, 109
11, 78612, Control_c, 11, 11, 102
11, 78614, Control_c, 11, 11, 98
11, 78616, Control_c, 11, 11, 95
11, 78618, Control_c, 11, 11, 91
11, 78620, Control_c, 11, 11, 88
11, 78622, Control_c, 11, 11, 84
11, 78624, Control_c, 11, 11, 81
11, 78626, Control_c, 11, 11, 77
11, 78628, Control_c, 11, 11, 74
11, 78630, Control_c, 11, 11, 70
11, 78632, Note_on_c, 11, 77, 0
11, 78632, Control_c, 11, 11, 67
11, 78662, Note_on_c, 11, 55, 108
11, 78662, Control_c, 11, 11, 47
11, 78692, Note_on_c, 11, 55, 0
11, 78692, Note_on_c, 11, 57, 108
11, 78722, Note_on_c, 11, 57, 0
11, 78722, Note_on_c, 11, 59, 108
11, 78752, Note_on_c, 11, 59, 0
11, 78752, Note_on_c, 11, 60, 108
11, 78782, Note_on_c, 11, 60, 0
11, 78782, Note_on_c, 11, 62, 108
11, 78812, Note_on_c, 11, 62, 0
11, 78812, Note_on_c, 11, 64, 108
11, 78832, Note_on_c, 11, 64, 0
11, 78842, Note_on_c, 11, 65, 108
11, 78872, Note_on_c, 11, 65, 0
11, 80162, Control_c, 11, 11, 47
11, 80162, Note_on_c, 11, 64, 108
11, 80162, Note_on_c, 11, 55, 108
11, 80182, Note_on_c, 11, 55, 0
11, 80182, Note_on_c, 11, 64, 0
11, 80192, Note_on_c, 11, 55, 108
11, 80192, Note_on_c, 11, 64, 108
11, 80212, Note_on_c, 11, 64, 0
11, 80212, Note_on_c, 11, 55, 0
11, 80222, Note_on_c, 11, 55, 108
11, 80222, Note_on_c, 11, 64, 108
11, 80242, Note_on_c, 11, 64, 0
11, 80242, Note_on_c, 11, 55, 0
11, 80252, Note_on_c, 11, 64, 108
11, 80252, Note_on_c, 11, 55, 108
11, 80272, Note_on_c, 11, 55, 0
11, 80272, Note_on_c, 11, 64, 0
11, 80282, Note_on_c, 11, 64, 108
11, 80282, Note_on_c, 11, 55, 108
11, 80302, Note_on_c, 11, 55, 0
11, 80302, Note_on_c, 11, 64, 0
11, 80312, Note_on_c, 11, 64, 108
11, 80312, Note_on_c, 11, 55, 108
11, 80332, Note_on_c, 11, 55, 0
11, 80332, Note_on_c, 11, 64, 0
11, 80342, Note_on_c, 11, 64, 108
11, 80342, Note_on_c, 11, 55, 108
11, 80362, Note_on_c, 11, 55, 0
11, 80362, Note_on_c, 11, 64, 0
11, 80372, Note_on_c, 11, 64, 108
11, 80372, Note_on_c, 11, 55, 108
11, 80392, Note_on_c, 11, 55, 0
11, 80392, Note_on_c, 11, 64, 0
11, 80402, Note_on_c, 11, 55, 108
11, 80402, Note_on_c, 11, 65, 108
11, 80422, Note_on_c, 11, 65, 0
11, 80422, Note_on_c, 11, 55, 0
11, 80432, Note_on_c, 11, 65, 108
11, 80432, Note_on_c, 11, 55, 108
11, 80452, Note_on_c, 11, 55, 0
11, 80452, Note_on_c, 11, 65, 0
11, 80462, Note_on_c, 11, 65, 108
11, 80462, Note_on_c, 11, 55, 108
11, 80482, Note_on_c, 11, 55, 0
11, 80482, Note_on_c, 11, 65, 0
11, 80492, Note_on_c, 11, 55, 108
11, 80492, Note_on_c, 11, 65, 108
11, 80492, Control_c, 11, 11, 47
11, 80512, Note_on_c, 11, 65, 0
11, 80512, Note_on_c, 11, 55, 0
11, 80512, Control_c, 11, 11, 50
11, 80522, Note_on_c, 11, 55, 108
11, 80522, Note_on_c, 11, 65, 108
11, 80534, Control_c, 11, 11, 53
11, 80542, Note_on_c, 11, 65, 0
11, 80542, Note_on_c, 11, 55, 0
11, 80552, Note_on_c, 11, 65, 108
11, 80552, Note_on_c, 11, 55, 108
11, 80557, Control_c, 11, 11, 56
11, 80572, Note_on_c, 11, 55, 0
11, 80572, Note_on_c, 11, 65, 0
11, 80579, Control_c, 11, 11, 59
11, 80582, Note_on_c, 11, 55, 108
11, 80582, Note_on_c, 11, 65, 108
11, 80602, Note_on_c, 11, 65, 0
11, 80602, Note_on_c, 11, 55, 0
11, 80602, Control_c, 11, 11, 62
11, 80612, Note_on_c, 11, 65, 108
11, 80612, Note_on_c, 11, 55, 108
11, 80624, Control_c, 11, 11, 65
11, 80632, Note_on_c, 11, 55, 0
11, 80632, Note_on_c, 11, 65, 0
11, 80642, Note_on_c, 11, 55, 108
11, 80642, Note_on_c, 11, 64, 108
11, 80642, Control_c, 11, 11, 87
11, 80662, Note_on_c, 11, 64, 0
11, 80662, Note_on_c, 11, 55, 0
11, 80672, Note_on_c, 11, 64, 108
11, 80672, Note_on_c, 11, 55, 108
11, 80692, Note_on_c, 11, 55, 0
11, 80692, Note_on_c, 11, 64, 0
11, 80702, Note_on_c, 11, 64, 108
11, 80702, Note_on_c, 11, 55, 108
11, 80722, Note_on_c, 11, 55, 0
11, 80722, Note_on_c, 11, 64, 0
11, 80732, Note_on_c, 11, 64, 108
11, 80732, Note_on_c, 11, 55, 108
11, 80752, Note_on_c, 11, 55, 0
11, 80752, Note_on_c, 11, 64, 0
11, 80762, Note_on_c, 11, 55, 108
11, 80762, Note_on_c, 11, 64, 108
11, 80782, Note_on_c, 11, 64, 0
11, 80782, Note_on_c, 11, 55, 0
11, 80792, Note_on_c, 11, 55, 108
11, 80792, Note_on_c, 11, 64, 108
11, 80812, Note_on_c, 11, 64, 0
11, 80812, Note_on_c, 11, 55, 0
11, 80822, Note_on_c, 11, 55, 108
11, 80822, Note_on_c, 11, 64, 108
11, 80842, Note_on_c, 11, 64, 0
11, 80842, Note_on_c, 11, 55, 0
11, 80852, Note_on_c, 11, 55, 108
11, 80852, Note_on_c, 11, 64, 108
11, 80872, Note_on_c, 11, 64, 0
11, 80872, Note_on_c, 11, 55, 0
11, 80882, Note_on_c, 11, 55, 108
11, 80882, Note_on_c, 11, 64, 108
11, 80902, Note_on_c, 11, 64, 0
11, 80902, Note_on_c, 11, 55, 0
11, 80912, Note_on_c, 11, 55, 108
11, 80912, Note_on_c, 11, 64, 108
11, 80932, Note_on_c, 11, 64, 0
11, 80932, Note_on_c, 11, 55, 0
11, 80942, Note_on_c, 11, 64, 108
11, 80942, Note_on_c, 11, 55, 108
11, 80962, Note_on_c, 11, 55, 0
11, 80962, Note_on_c, 11, 64, 0
11, 80972, Note_on_c, 11, 64, 108
11, 80972, Note_on_c, 11, 55, 108
11, 80992, Note_on_c, 11, 55, 0
11, 80992, Note_on_c, 11, 64, 0
11, 81002, Note_on_c, 11, 65, 108
11, 81002, Note_on_c, 11, 55, 108
11, 81022, Note_on_c, 11, 55, 0
11, 81022, Note_on_c, 11, 65, 0
11, 81032, Note_on_c, 11, 55, 108
11, 81032, Note_on_c, 11, 65, 108
11, 81052, Note_on_c, 11, 65, 0
11, 81052, Note_on_c, 11, 55, 0
11, 81062, Note_on_c, 11, 55, 108
11, 81062, Note_on_c, 11, 65, 108
11, 81082, Note_on_c, 11, 65, 0
11, 81082, Note_on_c, 11, 55, 0
11, 81092, Note_on_c, 11, 65, 108
11, 81092, Note_on_c, 11, 55, 108
11, 81112, Note_on_c, 11, 55, 0
11, 81112, Note_on_c, 11, 65, 0
11, 81122, Note_on_c, 11, 55, 108
11, 81122, Note_on_c, 11, 64, 108
11, 81142, Note_on_c, 11, 64, 0
11, 81142, Note_on_c, 11, 55, 0
11, 81152, Note_on_c, 11, 55, 108
11, 81152, Note_on_c, 11, 64, 108
11, 81172, Note_on_c, 11, 64, 0
11, 81172, Note_on_c, 11, 55, 0
11, 81182, Note_on_c, 11, 55, 108
11, 81182, Note_on_c, 11, 64, 108
11, 81202, Note_on_c, 11, 64, 0
11, 81202, Note_on_c, 11, 55, 0
11, 81212, Note_on_c, 11, 55, 108
11, 81212, Note_on_c, 11, 64, 108
11, 81232, Note_on_c, 11, 64, 0
11, 81232, Note_on_c, 11, 55, 0
11, 81242, Note_on_c, 11, 55, 108
11, 81242, Note_on_c, 11, 64, 108
11, 81262, Note_on_c, 11, 64, 0
11, 81262, Note_on_c, 11, 55, 0
11, 81272, Note_on_c, 11, 64, 108
11, 81272, Note_on_c, 11, 55, 108
11, 81292, Note_on_c, 11, 55, 0
11, 81292, Note_on_c, 11, 64, 0
11, 81302, Note_on_c, 11, 64, 108
11, 81302, Note_on_c, 11, 55, 108
11, 81322, Note_on_c, 11, 55, 0
11, 81322, Note_on_c, 11, 64, 0
11, 81332, Note_on_c, 11, 55, 108
11, 81332, Note_on_c, 11, 64, 108
11, 81352, Note_on_c, 11, 64, 0
11, 81352, Note_on_c, 11, 55, 0
11, 81362, Note_on_c, 11, 66, 108
11, 81382, Note_on_c, 11, 66, 0
11, 81392, Note_on_c, 11, 66, 108
11, 81412, Note_on_c, 11, 66, 0
11, 81422, Note_on_c, 11, 66, 108
11, 81442, Note_on_c, 11, 66, 0
11, 81452, Note_on_c, 11, 66, 108
11, 81472, Note_on_c, 11, 66, 0
11, 81482, Note_on_c, 11, 66, 108
11, 81502, Note_on_c, 11, 66, 0
11, 81512, Note_on_c, 11, 66, 108
11, 81532, Note_on_c, 11, 66, 0
11, 81542, Note_on_c, 11, 66, 108
11, 81562, Note_on_c, 11, 66, 0
11, 81572, Note_on_c, 11, 66, 108
11, 81592, Note_on_c, 11, 66, 0
11, 81602, Note_on_c, 11, 67, 80
11, 81698, Note_on_c, 11, 67, 0
11, 81782, Note_on_c, 11, 67, 108
11, 81782, Control_c, 11, 11, 47
11, 81832, Note_on_c, 11, 67, 0
11, 81842, Note_on_c, 11, 76, 108
11, 81872, Note_on_c, 11, 76, 0
11, 81902, Note_on_c, 11, 76, 108
11, 81932, Note_on_c, 11, 76, 0
11, 81962, Note_on_c, 11, 76, 108
11, 81992, Note_on_c, 11, 76, 0
11, 82022, Note_on_c, 11, 76, 108
11, 82052, Note_on_c, 11, 76, 0
11, 82082, Note_on_c, 11, 76, 108
11, 82202, Note_on_c, 11, 76, 0
11, 82202, Note_on_c, 11, 74, 108
11, 82252, Note_on_c, 11, 74, 0
11, 82262, Note_on_c, 11, 74, 108
11, 82292, Note_on_c, 11, 74, 0
11, 82322, Note_on_c, 11, 74, 108
11, 82352, Note_on_c, 11, 74, 0
11, 82382, Note_on_c, 11, 74, 108
11, 82412, Note_on_c, 11, 74, 0
11, 82442, Note_on_c, 11, 74, 108
11, 82472, Note_on_c, 11, 74, 0
11, 82502, Note_on_c, 11, 74, 108
11, 82532, Note_on_c, 11, 74, 0
11, 82562, Note_on_c, 11, 74, 108
11, 82682, Note_on_c, 11, 74, 0
11, 82682, Note_on_c, 11, 72, 108
11, 82732, Note_on_c, 11, 72, 0
11, 82742, Note_on_c, 11, 72, 108
11, 82772, Note_on_c, 11, 72, 0
11, 82802, Note_on_c, 11, 72, 108
11, 82832, Note_on_c, 11, 72, 0
11, 82862, Note_on_c, 11, 72, 108
11, 82892, Note_on_c, 11, 72, 0
11, 82922, Note_on_c, 11, 72, 108
11, 82952, Note_on_c, 11, 72, 0
11, 82982, Note_on_c, 11, 72, 108
11, 83012, Note_on_c, 11, 72, 0
11, 83042, Note_on_c, 11, 72, 108
11, 83102, Note_on_c, 11, 72, 0
11, 83162, Note_on_c, 11, 72, 108
11, 83222, Note_on_c, 11, 72, 0
11, 83282, Note_on_c, 11, 67, 108
11, 83342, Note_on_c, 11, 67, 0
11, 83402, Note_on_c, 11, 65, 108
11, 83462, Note_on_c, 11, 65, 0
11, 83522, Control_c, 11, 11, 102
11, 83522, Note_on_c, 11, 64, 93
11, 83542, Note_on_c, 11, 64, 0
11, 83552, Note_on_c, 11, 64, 100
11, 83572, Note_on_c, 11, 64, 0
11, 83582, Note_on_c, 11, 64, 108
11, 83602, Note_on_c, 11, 64, 0
11, 83612, Note_on_c, 11, 64, 108
11, 83632, Note_on_c, 11, 64, 0
11, 83642, Note_on_c, 11, 67, 108
11, 83662, Note_on_c, 11, 67, 0
11, 83672, Note_on_c, 11, 67, 108
11, 83692, Note_on_c, 11, 67, 0
11, 83702, Note_on_c, 11, 72, 108
11, 83722, Note_on_c, 11, 72, 0
11, 83732, Note_on_c, 11, 72, 108
11, 83752, Note_on_c, 11, 72, 0
11, 83762, Note_on_c, 11, 79, 108
11, 83782, Note_on_c, 11, 79, 0
11, 83792, Note_on_c, 11, 79, 108
11, 83812, Note_on_c, 11, 79, 0
11, 83822, Note_on_c, 11, 79, 108
11, 83842, Note_on_c, 11, 79, 0
11, 83852, Note_on_c, 11, 79, 108
11, 83872, Note_on_c, 11, 79, 0
11, 83882, Note_on_c, 11, 79, 108
11, 83902, Note_on_c, 11, 79, 0
11, 83912, Note_on_c, 11, 79, 108
11, 83932, Note_on_c, 11, 79, 0
11, 83942, Note_on_c, 11, 79, 108
11, 83962, Note_on_c, 11, 79, 0
11, 83972, Note_on_c, 11, 79, 108
11, 83992, Note_on_c, 11, 79, 0
11, 84002, Note_on_c, 11, 79, 108
11, 84022, Note_on_c, 11, 79, 0
11, 84032, Note_on_c, 11, 79, 108
11, 84052, Note_on_c, 11, 79, 0
11, 84062, Note_on_c, 11, 79, 108
11, 84082, Note_on_c, 11, 79, 0
11, 84092, Note_on_c, 11, 79, 108
11, 84112, Note_on_c, 11, 79, 0
11, 84122, Note_on_c, 11, 77, 108
11, 84142, Note_on_c, 11, 77, 0
11, 84152, Note_on_c, 11, 77, 108
11, 84172, Note_on_c, 11, 77, 0
11, 84182, Note_on_c, 11, 77, 108
11, 84202, Note_on_c, 11, 77, 0
11, 84212, Note_on_c, 11, 77, 108
11, 84232, Note_on_c, 11, 77, 0
11, 84242, Note_on_c, 11, 77, 108
11, 84262, Note_on_c, 11, 77, 0
11, 84272, Note_on_c, 11, 77, 108
11, 84292, Note_on_c, 11, 77, 0
11, 84302, Note_on_c, 11, 77, 108
11, 84322, Note_on_c, 11, 77, 0
11, 84332, Note_on_c, 11, 77, 108
11, 84352, Note_on_c, 11, 77, 0
11, 84362, Note_on_c, 11, 77, 108
11, 84382, Note_on_c, 11, 77, 0
11, 84392, Note_on_c, 11, 77, 108
11, 84412, Note_on_c, 11, 77, 0
11, 84422, Note_on_c, 11, 77, 108
11, 84442, Note_on_c, 11, 77, 0
11, 84452, Note_on_c, 11, 77, 108
11, 84472, Note_on_c, 11, 77, 0
11, 84482, Note_on_c, 11, 77, 108
11, 84502, Note_on_c, 11, 77, 0
11, 84512, Note_on_c, 11, 77, 108
11, 84532, Note_on_c, 11, 77, 0
11, 84542, Note_on_c, 11, 77, 108
11, 84562, Note_on_c, 11, 77, 0
11, 84572, Note_on_c, 11, 77, 108
11, 84592, Note_on_c, 11, 77, 0
11, 84602, Note_on_c, 11, 76, 108
11, 84622, Note_on_c, 11, 76, 0
11, 84632, Note_on_c, 11, 76, 108
11, 84652, Note_on_c, 11, 76, 0
11, 84662, Note_on_c, 11, 76, 108
11, 84682, Note_on_c, 11, 76, 0
11, 84692, Note_on_c, 11, 76, 108
11, 84712, Note_on_c, 11, 76, 0
11, 84722, Note_on_c, 11, 76, 108
11, 84742, Note_on_c, 11, 76, 0
11, 84752, Note_on_c, 11, 76, 108
11, 84772, Note_on_c, 11, 76, 0
11, 84782, Note_on_c, 11, 76, 108
11, 84802, Note_on_c, 11, 76, 0
11, 84812, Note_on_c, 11, 76, 108
11, 84832, Note_on_c, 11, 76, 0
11, 84842, Note_on_c, 11, 76, 108
11, 84862, Note_on_c, 11, 76, 0
11, 84872, Note_on_c, 11, 76, 108
11, 84892, Note_on_c, 11, 76, 0
11, 84902, Note_on_c, 11, 76, 108
11, 84922, Note_on_c, 11, 76, 0
11, 84932, Note_on_c, 11, 76, 108
11, 84952, Note_on_c, 11, 76, 0
11, 84962, Note_on_c, 11, 74, 108
11, 84982, Note_on_c, 11, 74, 0
11, 84992, Note_on_c, 11, 74, 108
11, 85012, Note_on_c, 11, 74, 0
11, 85022, Note_on_c, 11, 74, 108
11, 85042, Note_on_c, 11, 74, 0
11, 85052, Note_on_c, 11, 74, 108
11, 85072, Note_on_c, 11, 74, 0
11, 85082, Note_on_c, 11, 74, 108
11, 85102, Note_on_c, 11, 74, 0
11, 85112, Note_on_c, 11, 74, 108
11, 85132, Note_on_c, 11, 74, 0
11, 85142, Note_on_c, 11, 74, 108
11, 85162, Note_on_c, 11, 74, 0
11, 85172, Note_on_c, 11, 74, 108
11, 85192, Note_on_c, 11, 74, 0
11, 85202, Note_on_c, 11, 76, 108
11, 85222, Note_on_c, 11, 76, 0
11, 85232, Note_on_c, 11, 76, 108
11, 85252, Note_on_c, 11, 76, 0
11, 85262, Note_on_c, 11, 76, 108
11, 85282, Note_on_c, 11, 76, 0
11, 85292, Note_on_c, 11, 76, 108
11, 85312, Note_on_c, 11, 76, 0
11, 85322, Note_on_c, 11, 74, 108
11, 85342, Note_on_c, 11, 74, 0
11, 85352, Note_on_c, 11, 74, 108
11, 85372, Note_on_c, 11, 74, 0
11, 85382, Note_on_c, 11, 74, 108
11, 85402, Note_on_c, 11, 74, 0
11, 85412, Note_on_c, 11, 74, 108
11, 85432, Note_on_c, 11, 74, 0
11, 85442, Note_on_c, 11, 72, 108
11, 85442, Note_on_c, 11, 64, 108
11, 85538, Note_on_c, 11, 64, 0
11, 85538, Note_on_c, 11, 72, 0
11, 85922, Note_on_c, 11, 72, 108
11, 85922, Control_c, 11, 11, 87
11, 85922, Note_on_c, 11, 55, 108
11, 85922, Note_on_c, 11, 64, 108
11, 86018, Note_on_c, 11, 64, 0
11, 86018, Note_on_c, 11, 55, 0
11, 86018, Note_on_c, 11, 72, 0
11, 86522, Control_c, 11, 11, 47
11, 86522, Note_on_c, 11, 72, 108
11, 86582, Note_on_c, 11, 72, 0
11, 86762, Note_on_c, 11, 74, 108
11, 86822, Note_on_c, 11, 74, 0
11, 87002, Note_on_c, 11, 71, 108
11, 87062, Note_on_c, 11, 71, 0
11, 87242, Note_on_c, 11, 72, 108
11, 87302, Note_on_c, 11, 72, 0
11, 87752, Note_on_c, 11, 60, 108
11, 87782, Note_on_c, 11, 60, 0
11, 87782, Note_on_c, 11, 62, 108
11, 87812, Note_on_c, 11, 62, 0
11, 87812, Note_on_c, 11, 64, 108
11, 87842, Note_on_c, 11, 64, 0
11, 87842, Note_on_c, 11, 65, 108
11, 87872, Note_on_c, 11, 65, 0
11, 87872, Note_on_c, 11, 67, 108
11, 87902, Note_on_c, 11, 67, 0
11, 87902, Note_on_c, 11, 69, 108
11, 87932, Note_on_c, 11, 69, 0
11, 87932, Note_on_c, 11, 71, 108
11, 87962, Note_on_c, 11, 71, 0
11, 87962, Note_on_c, 11, 72, 108
11, 87992, Note_on_c, 11, 72, 0
11, 88442, Note_on_c, 11, 72, 108
11, 88502, Note_on_c, 11, 72, 0
11, 88682, Note_on_c, 11, 74, 108
11, 88742, Note_on_c, 11, 74, 0
11, 88922, Note_on_c, 11, 71, 108
11, 88982, Note_on_c, 11, 71, 0
11, 89192, Note_on_c, 11, 72, 108
11, 89222, Note_on_c, 11, 72, 0
11, 89222, Note_on_c, 11, 71, 108
11, 89252, Note_on_c, 11, 71, 0
11, 89252, Note_on_c, 11, 69, 108
11, 89282, Note_on_c, 11, 69, 0
11, 89282, Note_on_c, 11, 67, 108
11, 89312, Note_on_c, 11, 67, 0
11, 89312, Note_on_c, 11, 65, 108
11, 89342, Note_on_c, 11, 65, 0
11, 89342, Note_on_c, 11, 64, 108
11, 89372, Note_on_c, 11, 64, 0
11, 89372, Note_on_c, 11, 62, 108
11, 89392, Note_on_c, 11, 62, 0
11, 89402, Note_on_c, 11, 60, 108
11, 89432, Note_on_c, 11, 60, 0
11, 89462, Note_on_c, 11, 60, 108
11, 89492, Note_on_c, 11, 60, 0
11, 89522, Note_on_c, 11, 62, 108
11, 89522, Control_c, 11, 11, 47
11, 89539, Control_c, 11, 11, 48
11, 89556, Control_c, 11, 11, 49
11, 89574, Control_c, 11, 11, 50
11, 89582, Note_on_c, 11, 62, 0
11, 89591, Control_c, 11, 11, 51
11, 89609, Control_c, 11, 11, 52
11, 89626, Control_c, 11, 11, 53
11, 89642, Note_on_c, 11, 74, 108
11, 89644, Control_c, 11, 11, 54
11, 89661, Control_c, 11, 11, 55
11, 89679, Control_c, 11, 11, 56
11, 89696, Control_c, 11, 11, 57
11, 89702, Note_on_c, 11, 74, 0
11, 89714, Control_c, 11, 11, 58
11, 89731, Control_c, 11, 11, 59
11, 89748, Control_c, 11, 11, 60
11, 89766, Control_c, 11, 11, 61
11, 89783, Control_c, 11, 11, 62
11, 89801, Control_c, 11, 11, 63
11, 89818, Control_c, 11, 11, 64
11, 89836, Control_c, 11, 11, 65
11, 89853, Control_c, 11, 11, 66
11, 89871, Control_c, 11, 11, 67
11, 89882, Note_on_c, 11, 71, 108
11, 89888, Control_c, 11, 11, 68
11, 89906, Control_c, 11, 11, 69
11, 89923, Control_c, 11, 11, 70
11, 89940, Control_c, 11, 11, 71
11, 89942, Note_on_c, 11, 71, 0
11, 89958, Control_c, 11, 11, 72
11, 89975, Control_c, 11, 11, 73
11, 89993, Control_c, 11, 11, 74
11, 90010, Control_c, 11, 11, 75
11, 90028, Control_c, 11, 11, 76
11, 90045, Control_c, 11, 11, 77
11, 90063, Control_c, 11, 11, 78
11, 90080, Control_c, 11, 11, 79
11, 90098, Control_c, 11, 11, 80
11, 90115, Control_c, 11, 11, 81
11, 90132, Control_c, 11, 11, 82
11, 90150, Control_c, 11, 11, 83
11, 90152, Note_on_c, 11, 72, 108
11, 90167, Note_on_c, 11, 72, 0
11, 90167, Control_c, 11, 11, 84
11, 90182, Note_on_c, 11, 74, 108
11, 90185, Control_c, 11, 11, 85
11, 90197, Note_on_c, 11, 74, 0
11, 90202, Control_c, 11, 11, 86
11, 90212, Note_on_c, 11, 76, 108
11, 90220, Control_c, 11, 11, 87
11, 90227, Note_on_c, 11, 76, 0
11, 90237, Control_c, 11, 11, 88
11, 90242, Note_on_c, 11, 77, 108
11, 90255, Control_c, 11, 11, 89
11, 90257, Note_on_c, 11, 77, 0
11, 90272, Note_on_c, 11, 79, 108
11, 90272, Control_c, 11, 11, 90
11, 90287, Note_on_c, 11, 79, 0
11, 90290, Control_c, 11, 11, 91
11, 90302, Note_on_c, 11, 81, 108
11, 90307, Control_c, 11, 11, 92
11, 90317, Note_on_c, 11, 81, 0
11, 90324, Control_c, 11, 11, 93
11, 90332, Note_on_c, 11, 83, 108
11, 90342, Control_c, 11, 11, 94
11, 90347, Note_on_c, 11, 83, 0
11, 90359, Control_c, 11, 11, 95
11, 90362, Note_on_c, 11, 84, 108
11, 90377, Control_c, 11, 11, 96
11, 90392, Note_on_c, 11, 84, 0
11, 90394, Control_c, 11, 11, 97
11, 90412, Control_c, 11, 11, 98
11, 90422, Note_on_c, 11, 84, 108
11, 90429, Control_c, 11, 11, 99
11, 90447, Control_c, 11, 11, 100
11, 90452, Note_on_c, 11, 84, 0
11, 90464, Control_c, 11, 11, 101
11, 90482, Note_on_c, 11, 86, 108
11, 90482, Control_c, 11, 11, 102
11, 90502, Note_on_c, 11, 86, 0
11, 90512, Note_on_c, 11, 86, 108
11, 90532, Note_on_c, 11, 86, 0
11, 90542, Note_on_c, 11, 86, 108
11, 90562, Note_on_c, 11, 86, 0
11, 90572, Note_on_c, 11, 86, 108
11, 90592, Note_on_c, 11, 86, 0
11, 90602, Note_on_c, 11, 86, 108
11, 90622, Note_on_c, 11, 86, 0
11, 90632, Note_on_c, 11, 86, 108
11, 90652, Note_on_c, 11, 86, 0
11, 90662, Note_on_c, 11, 86, 108
11, 90682, Note_on_c, 11, 86, 0
11, 90692, Note_on_c, 11, 86, 108
11, 90712, Note_on_c, 11, 86, 0
11, 90722, Note_on_c, 11, 83, 108
11, 90742, Note_on_c, 11, 83, 0
11, 90752, Note_on_c, 11, 83, 108
11, 90772, Note_on_c, 11, 83, 0
11, 90782, Note_on_c, 11, 83, 108
11, 90802, Note_on_c, 11, 83, 0
11, 90812, Note_on_c, 11, 83, 108
11, 90832, Note_on_c, 11, 83, 0
11, 90842, Note_on_c, 11, 83, 108
11, 90862, Note_on_c, 11, 83, 0
11, 90872, Note_on_c, 11, 83, 108
11, 90892, Note_on_c, 11, 83, 0
11, 90902, Note_on_c, 11, 83, 108
11, 90922, Note_on_c, 11, 83, 0
11, 90932, Note_on_c, 11, 83, 108
11, 90952, Note_on_c, 11, 83, 0
11, 90962, Note_on_c, 11, 72, 108
11, 90962, Control_c, 11, 11, 112
11, 90979, Control_c, 11, 11, 115
11, 90997, Control_c, 11, 11, 116
11, 91015, Control_c, 11, 11, 113
11, 91033, Control_c, 11, 11, 110
11, 91051, Control_c, 11, 11, 107
11, 91069, Control_c, 11, 11, 104
11, 91102, Note_on_c, 11, 72, 0
11, 91112, Note_on_c, 11, 60, 108
11, 91127, Note_on_c, 11, 60, 0
11, 91142, Note_on_c, 11, 62, 108
11, 91157, Note_on_c, 11, 62, 0
11, 91172, Note_on_c, 11, 64, 108
11, 91187, Note_on_c, 11, 64, 0
11, 91202, Note_on_c, 11, 65, 108
11, 91217, Note_on_c, 11, 65, 0
11, 91232, Note_on_c, 11, 67, 108
11, 91247, Note_on_c, 11, 67, 0
11, 91262, Note_on_c, 11, 69, 108
11, 91277, Note_on_c, 11, 69, 0
11, 91292, Note_on_c, 11, 71, 108
11, 91307, Note_on_c, 11, 71, 0
11, 91322, Note_on_c, 11, 72, 108
11, 91352, Note_on_c, 11, 72, 0
11, 91382, Note_on_c, 11, 72, 108
11, 91412, Note_on_c, 11, 72, 0
11, 91442, Control_c, 11, 11, 112
11, 91442, Note_on_c, 11, 76, 108
11, 91459, Control_c, 11, 11, 115
11, 91477, Control_c, 11, 11, 116
11, 91495, Control_c, 11, 11, 113
11, 91513, Control_c, 11, 11, 110
11, 91531, Control_c, 11, 11, 107
11, 91549, Control_c, 11, 11, 104
11, 91582, Note_on_c, 11, 76, 0
11, 91592, Note_on_c, 11, 64, 108
11, 91607, Note_on_c, 11, 64, 0
11, 91622, Note_on_c, 11, 65, 108
11, 91637, Note_on_c, 11, 65, 0
11, 91652, Note_on_c, 11, 67, 108
11, 91667, Note_on_c, 11, 67, 0
11, 91682, Note_on_c, 11, 69, 108
11, 91697, Note_on_c, 11, 69, 0
11, 91712, Note_on_c, 11, 71, 108
11, 91727, Note_on_c, 11, 71, 0
11, 91742, Note_on_c, 11, 72, 108
11, 91757, Note_on_c, 11, 72, 0
11, 91772, Note_on_c, 11, 74, 108
11, 91787, Note_on_c, 11, 74, 0
11, 91802, Note_on_c, 11, 76, 108
11, 91832, Note_on_c, 11, 76, 0
11, 91862, Note_on_c, 11, 76, 108
11, 91892, Note_on_c, 11, 76, 0
11, 91922, Note_on_c, 11, 79, 108
11, 91922, Control_c, 11, 11, 112
11, 91939, Control_c, 11, 11, 109
11, 91942, Note_on_c, 11, 79, 0
11, 91952, Note_on_c, 11, 79, 108
11, 91957, Control_c, 11, 11, 106
11, 91972, Note_on_c, 11, 79, 0
11, 91975, Control_c, 11, 11, 103
11, 91982, Note_on_c, 11, 79, 108
11, 92002, Note_on_c, 11, 79, 0
11, 92012, Note_on_c, 11, 79, 108
11, 92032, Note_on_c, 11, 79, 0
11, 92042, Note_on_c, 11, 79, 108
11, 92062, Note_on_c, 11, 79, 0
11, 92072, Note_on_c, 11, 79, 108
11, 92092, Note_on_c, 11, 79, 0
11, 92102, Note_on_c, 11, 79, 108
11, 92122, Note_on_c, 11, 79, 0
11, 92132, Note_on_c, 11, 79, 108
11, 92152, Note_on_c, 11, 79, 0
11, 92162, Note_on_c, 11, 76, 108
11, 92182, Note_on_c, 11, 76, 0
11, 92192, Note_on_c, 11, 76, 108
11, 92212, Note_on_c, 11, 76, 0
11, 92222, Note_on_c, 11, 76, 108
11, 92242, Note_on_c, 11, 76, 0
11, 92252, Note_on_c, 11, 76, 108
11, 92272, Note_on_c, 11, 76, 0
11, 92282, Note_on_c, 11, 72, 108
11, 92302, Note_on_c, 11, 72, 0
11, 92312, Note_on_c, 11, 72, 108
11, 92332, Note_on_c, 11, 72, 0
11, 92342, Note_on_c, 11, 72, 108
11, 92362, Note_on_c, 11, 72, 0
11, 92372, Note_on_c, 11, 72, 108
11, 92392, Note_on_c, 11, 72, 0
11, 92402, Note_on_c, 11, 67, 108
11, 92422, Note_on_c, 11, 67, 0
11, 92432, Note_on_c, 11, 67, 108
11, 92452, Note_on_c, 11, 67, 0
11, 92462, Note_on_c, 11, 67, 108
11, 92482, Note_on_c, 11, 67, 0
11, 92492, Note_on_c, 11, 67, 108
11, 92512, Note_on_c, 11, 67, 0
11, 92522, Note_on_c, 11, 64, 108
11, 92542, Note_on_c, 11, 64, 0
11, 92552, Note_on_c, 11, 64, 108
11, 92572, Note_on_c, 11, 64, 0
11, 92582, Note_on_c, 11, 64, 108
11, 92602, Note_on_c, 11, 64, 0
11, 92612, Note_on_c, 11, 64, 108
11, 92632, Note_on_c, 11, 64, 0
11, 92642, Note_on_c, 11, 60, 108
11, 92662, Note_on_c, 11, 60, 0
11, 92672, Note_on_c, 11, 60, 108
11, 92692, Note_on_c, 11, 60, 0
11, 92702, Note_on_c, 11, 60, 108
11, 92722, Note_on_c, 11, 60, 0
11, 92732, Note_on_c, 11, 60, 108
11, 92752, Note_on_c, 11, 60, 0
11, 92762, Note_on_c, 11, 55, 108
11, 92782, Note_on_c, 11, 55, 0
11, 92792, Note_on_c, 11, 55, 108
11, 92812, Note_on_c, 11, 55, 0
11, 92822, Note_on_c, 11, 55, 108
11, 92842, Note_on_c, 11, 55, 0
11, 92852, Note_on_c, 11, 55, 108
11, 92872, Note_on_c, 11, 55, 0
11, 92882, Note_on_c, 11, 60, 108
11, 92978, Note_on_c, 11, 60, 0
11, 93122, Note_on_c, 11, 67, 108
11, 93132, Note_on_c, 11, 74, 108
11, 93132, Note_on_c, 11, 83, 108
11, 93218, Note_on_c, 11, 67, 0
11, 93228, Note_on_c, 11, 83, 0
11, 93228, Note_on_c, 11, 74, 0
11, 93362, Note_on_c, 11, 67, 108
11, 93372, Note_on_c, 11, 76, 108
11, 93372, Note_on_c, 11, 84, 108
11, 93458, Note_on_c, 11, 67, 0
11, 93468, Note_on_c, 11, 84, 0
11, 93468, Note_on_c, 11, 76, 0
11, 93602, Note_on_c, 11, 55, 108
11, 93612, Note_on_c, 11, 71, 108
11, 93612, Note_on_c, 11, 62, 108
11, 93698, Note_on_c, 11, 55, 0
11, 93708, Note_on_c, 11, 62, 0
11, 93708, Note_on_c, 11, 71, 0
11, 93842, Note_on_c, 11, 55, 108
11, 93852, Note_on_c, 11, 72, 108
11, 93852, Note_on_c, 11, 64, 108
11, 93938, Note_on_c, 11, 55, 0
11, 93948, Note_on_c, 11, 64, 0
11, 93948, Note_on_c, 11, 72, 0
11, 94082, Note_on_c, 11, 67, 91
11, 94092, Note_on_c, 11, 84, 91
11, 94092, Note_on_c, 11, 76, 91
11, 94184, Note_on_c, 11, 67, 0
11, 94194, Note_on_c, 11, 76, 0
11, 94194, Note_on_c, 11, 84, 0
11, 94322, Note_on_c, 11, 60, 108
11, 94442, Note_on_c, 11, 60, 0
11, 94562, Control_c, 11, 121, 0
11, 94562, End_track
12, 0, Start_track
12, 0, MIDI_port, 0
12, 0, Title_t, "Viola"
12, 0, Program_c, 12, 48
12, 0, Control_c, 12, 10, 40
12, 5, Control_c, 12, 121, 0
12, 10, Program_c, 12, 50
12, 15, Pitch_bend_c, 12, 8492
12, 20, Control_c, 12, 11, 102
12, 25, Control_c, 12, 7, 127
12, 30, Control_c, 12, 91, 25
12, 35, Control_c, 12, 93, 0
12, 40, Control_c, 12, 10, 40
12, 45, Control_c, 12, 1, 36
12, 245, Control_c, 12, 11, 72
12, 245, Note_on_c, 12, 67, 106
12, 245, Note_on_c, 12, 55, 106
12, 247, Control_c, 12, 11, 75
12, 249, Control_c, 12, 11, 78
12, 251, Control_c, 12, 11, 81
12, 253, Control_c, 12, 11, 84
12, 255, Control_c, 12, 11, 87
12, 257, Control_c, 12, 11, 90
12, 259, Control_c, 12, 11, 93
12, 261, Control_c, 12, 11, 96
12, 263, Control_c, 12, 11, 99
12, 265, Control_c, 12, 11, 102
12, 380, Control_c, 12, 11, 102
12, 381, Control_c, 12, 11, 98
12, 382, Control_c, 12, 11, 94
12, 383, Control_c, 12, 11, 91
12, 384, Control_c, 12, 11, 87
12, 385, Control_c, 12, 11, 83
12, 386, Control_c, 12, 11, 80
12, 387, Control_c, 12, 11, 76
12, 388, Control_c, 12, 11, 72
12, 389, Control_c, 12, 11, 69
12, 390, Control_c, 12, 11, 65
12, 391, Control_c, 12, 11, 61
12, 392, Control_c, 12, 11, 58
12, 393, Control_c, 12, 11, 54
12, 394, Control_c, 12, 11, 50
12, 395, Note_on_c, 12, 55, 0
12, 395, Note_on_c, 12, 67, 0
12, 395, Control_c, 12, 11, 47
12, 1924, Program_c, 12, 48
12, 1925, Note_on_c, 12, 60, 106
12, 1945, Note_on_c, 12, 60, 0
12, 1955, Note_on_c, 12, 60, 106
12, 1975, Note_on_c, 12, 60, 0
12, 1985, Note_on_c, 12, 55, 106
12, 2005, Note_on_c, 12, 55, 0
12, 2015, Note_on_c, 12, 55, 106
12, 2035, Note_on_c, 12, 55, 0
12, 2045, Note_on_c, 12, 60, 106
12, 2065, Note_on_c, 12, 60, 0
12, 2075, Note_on_c, 12, 60, 106
12, 2095, Note_on_c, 12, 60, 0
12, 2105, Note_on_c, 12, 55, 106
12, 2125, Note_on_c, 12, 55, 0
12, 2135, Note_on_c, 12, 55, 106
12, 2155, Note_on_c, 12, 55, 0
12, 2165, Note_on_c, 12, 59, 106
12, 2185, Note_on_c, 12, 59, 0
12, 2195, Note_on_c, 12, 59, 106
12, 2215, Note_on_c, 12, 59, 0
12, 2225, Note_on_c, 12, 55, 106
12, 2245, Note_on_c, 12, 55, 0
12, 2255, Note_on_c, 12, 55, 106
12, 2275, Note_on_c, 12, 55, 0
12, 2285, Note_on_c, 12, 59, 106
12, 2305, Note_on_c, 12, 59, 0
12, 2315, Note_on_c, 12, 59, 106
12, 2335, Note_on_c, 12, 59, 0
12, 2345, Note_on_c, 12, 55, 106
12, 2365, Note_on_c, 12, 55, 0
12, 2375, Note_on_c, 12, 55, 106
12, 2395, Note_on_c, 12, 55, 0
12, 2405, Note_on_c, 12, 60, 106
12, 2425, Note_on_c, 12, 60, 0
12, 2435, Note_on_c, 12, 60, 106
12, 2455, Note_on_c, 12, 60, 0
12, 2465, Note_on_c, 12, 55, 106
12, 2485, Note_on_c, 12, 55, 0
12, 2495, Note_on_c, 12, 55, 106
12, 2515, Note_on_c, 12, 55, 0
12, 2525, Note_on_c, 12, 60, 106
12, 2545, Note_on_c, 12, 60, 0
12, 2555, Note_on_c, 12, 60, 106
12, 2575, Note_on_c, 12, 60, 0
12, 2585, Note_on_c, 12, 55, 106
12, 2605, Note_on_c, 12, 55, 0
12, 2615, Note_on_c, 12, 55, 106
12, 2635, Note_on_c, 12, 55, 0
12, 2645, Note_on_c, 12, 60, 106
12, 2665, Note_on_c, 12, 60, 0
12, 2675, Note_on_c, 12, 60, 106
12, 2695, Note_on_c, 12, 60, 0
12, 2705, Note_on_c, 12, 55, 106
12, 2725, Note_on_c, 12, 55, 0
12, 2735, Note_on_c, 12, 55, 106
12, 2755, Note_on_c, 12, 55, 0
12, 2765, Note_on_c, 12, 59, 106
12, 2785, Note_on_c, 12, 59, 0
12, 2795, Note_on_c, 12, 59, 106
12, 2815, Note_on_c, 12, 59, 0
12, 2825, Note_on_c, 12, 55, 106
12, 2845, Note_on_c, 12, 55, 0
12, 2855, Note_on_c, 12, 55, 106
12, 2875, Note_on_c, 12, 55, 0
12, 2885, Note_on_c, 12, 60, 106
12, 2905, Note_on_c, 12, 60, 0
12, 2915, Note_on_c, 12, 60, 106
12, 2935, Note_on_c, 12, 60, 0
12, 2945, Note_on_c, 12, 64, 106
12, 2965, Note_on_c, 12, 64, 0
12, 2975, Note_on_c, 12, 64, 106
12, 2995, Note_on_c, 12, 64, 0
12, 3005, Note_on_c, 12, 60, 106
12, 3025, Note_on_c, 12, 60, 0
12, 3035, Note_on_c, 12, 60, 106
12, 3055, Note_on_c, 12, 60, 0
12, 3065, Note_on_c, 12, 64, 106
12, 3085, Note_on_c, 12, 64, 0
12, 3095, Note_on_c, 12, 64, 106
12, 3115, Note_on_c, 12, 64, 0
12, 3125, Note_on_c, 12, 60, 106
12, 3145, Note_on_c, 12, 60, 0
12, 3155, Note_on_c, 12, 60, 106
12, 3175, Note_on_c, 12, 60, 0
12, 3185, Note_on_c, 12, 60, 106
12, 3205, Note_on_c, 12, 60, 0
12, 3215, Note_on_c, 12, 60, 106
12, 3235, Note_on_c, 12, 60, 0
12, 3245, Note_on_c, 12, 60, 106
12, 3265, Note_on_c, 12, 60, 0
12, 3275, Note_on_c, 12, 60, 106
12, 3295, Note_on_c, 12, 60, 0
12, 3305, Note_on_c, 12, 60, 106
12, 3325, Note_on_c, 12, 60, 0
12, 3335, Note_on_c, 12, 60, 106
12, 3355, Note_on_c, 12, 60, 0
12, 3365, Note_on_c, 12, 59, 82
12, 3485, Note_on_c, 12, 59, 0
12, 3665, Note_on_c, 12, 57, 106
12, 3695, Note_on_c, 12, 57, 0
12, 3725, Note_on_c, 12, 59, 106
12, 3755, Note_on_c, 12, 59, 0
12, 3785, Note_on_c, 12, 61, 106
12, 3815, Note_on_c, 12, 61, 0
12, 3845, Note_on_c, 12, 62, 106
12, 3875, Note_on_c, 12, 62, 0
12, 3905, Note_on_c, 12, 64, 106
12, 3935, Note_on_c, 12, 64, 0
12, 3965, Note_on_c, 12, 65, 106
12, 3995, Note_on_c, 12, 65, 0
12, 4145, Note_on_c, 12, 55, 106
12, 4175, Note_on_c, 12, 55, 0
12, 4205, Note_on_c, 12, 57, 106
12, 4235, Note_on_c, 12, 57, 0
12, 4265, Note_on_c, 12, 59, 106
12, 4295, Note_on_c, 12, 59, 0
12, 4325, Note_on_c, 12, 60, 106
12, 4355, Note_on_c, 12, 60, 0
12, 4385, Note_on_c, 12, 62, 106
12, 4415, Note_on_c, 12, 62, 0
12, 4445, Note_on_c, 12, 64, 106
12, 4475, Note_on_c, 12, 64, 0
12, 4625, Note_on_c, 12, 60, 106
12, 4655, Note_on_c, 12, 60, 0
12, 4685, Note_on_c, 12, 62, 106
12, 4715, Note_on_c, 12, 62, 0
12, 4745, Note_on_c, 12, 64, 106
12, 4775, Note_on_c, 12, 64, 0
12, 4805, Note_on_c, 12, 65, 106
12, 4865, Note_on_c, 12, 65, 0
12, 4925, Note_on_c, 12, 69, 106
12, 4985, Note_on_c, 12, 69, 0
12, 5045, Note_on_c, 12, 64, 106
12, 5105, Note_on_c, 12, 64, 0
12, 5165, Note_on_c, 12, 62, 106
12, 5225, Note_on_c, 12, 62, 0
12, 5285, Note_on_c, 12, 60, 106
12, 5345, Note_on_c, 12, 60, 0
12, 5525, Note_on_c, 12, 57, 106
12, 5585, Control_c, 12, 11, 47
12, 5600, Control_c, 12, 11, 48
12, 5615, Control_c, 12, 11, 49
12, 5630, Control_c, 12, 11, 50
12, 5645, Note_on_c, 12, 57, 0
12, 5646, Control_c, 12, 11, 51
12, 5661, Control_c, 12, 11, 52
12, 5676, Control_c, 12, 11, 53
12, 5691, Control_c, 12, 11, 54
12, 5707, Control_c, 12, 11, 55
12, 5722, Control_c, 12, 11, 56
12, 5737, Control_c, 12, 11, 57
12, 5753, Control_c, 12, 11, 58
12, 5765, Note_on_c, 12, 62, 106
12, 5768, Control_c, 12, 11, 59
12, 5783, Control_c, 12, 11, 60
12, 5798, Control_c, 12, 11, 61
12, 5814, Control_c, 12, 11, 62
12, 5829, Control_c, 12, 11, 63
12, 5844, Control_c, 12, 11, 64
12, 5859, Control_c, 12, 11, 65
12, 5875, Control_c, 12, 11, 66
12, 5885, Note_on_c, 12, 62, 0
12, 5890, Control_c, 12, 11, 67
12, 5905, Control_c, 12, 11, 68
12, 5921, Control_c, 12, 11, 69
12, 5936, Control_c, 12, 11, 70
12, 5951, Control_c, 12, 11, 71
12, 5966, Control_c, 12, 11, 72
12, 5982, Control_c, 12, 11, 73
12, 5997, Control_c, 12, 11, 74
12, 6005, Note_on_c, 12, 55, 106
12, 6012, Control_c, 12, 11, 75
12, 6027, Control_c, 12, 11, 76
12, 6043, Control_c, 12, 11, 77
12, 6058, Control_c, 12, 11, 78
12, 6073, Control_c, 12, 11, 79
12, 6089, Control_c, 12, 11, 80
12, 6104, Control_c, 12, 11, 81
12, 6119, Control_c, 12, 11, 82
12, 6125, Note_on_c, 12, 55, 0
12, 6134, Control_c, 12, 11, 83
12, 6150, Control_c, 12, 11, 84
12, 6165, Control_c, 12, 11, 85
12, 6180, Control_c, 12, 11, 86
12, 6195, Control_c, 12, 11, 87
12, 6211, Control_c, 12, 11, 88
12, 6226, Control_c, 12, 11, 89
12, 6241, Control_c, 12, 11, 90
12, 6245, Note_on_c, 12, 60, 106
12, 6257, Control_c, 12, 11, 91
12, 6272, Control_c, 12, 11, 92
12, 6287, Control_c, 12, 11, 93
12, 6302, Control_c, 12, 11, 94
12, 6318, Control_c, 12, 11, 95
12, 6333, Control_c, 12, 11, 96
12, 6348, Control_c, 12, 11, 97
12, 6363, Control_c, 12, 11, 98
12, 6365, Note_on_c, 12, 60, 0
12, 6379, Control_c, 12, 11, 99
12, 6394, Control_c, 12, 11, 100
12, 6409, Control_c, 12, 11, 101
12, 6425, Control_c, 12, 11, 102
12, 6545, Note_on_c, 12, 60, 106
12, 6575, Note_on_c, 12, 60, 0
12, 6605, Note_on_c, 12, 62, 106
12, 6635, Note_on_c, 12, 62, 0
12, 6665, Note_on_c, 12, 64, 106
12, 6695, Note_on_c, 12, 64, 0
12, 6725, Note_on_c, 12, 65, 106
12, 6755, Note_on_c, 12, 65, 0
12, 6785, Note_on_c, 12, 64, 106
12, 6815, Note_on_c, 12, 64, 0
12, 6845, Note_on_c, 12, 62, 106
12, 6875, Note_on_c, 12, 62, 0
12, 6905, Note_on_c, 12, 65, 106
12, 6935, Note_on_c, 12, 65, 0
12, 6965, Note_on_c, 12, 67, 106
12, 6995, Note_on_c, 12, 67, 0
12, 7025, Note_on_c, 12, 66, 106
12, 7055, Note_on_c, 12, 66, 0
12, 7085, Note_on_c, 12, 67, 106
12, 7115, Note_on_c, 12, 67, 0
12, 7145, Note_on_c, 12, 55, 106
12, 7175, Note_on_c, 12, 55, 0
12, 7205, Note_on_c, 12, 60, 106
12, 7325, Note_on_c, 12, 60, 0
12, 7985, Note_on_c, 12, 55, 106
12, 7985, Control_c, 12, 11, 87
12, 8030, Note_on_c, 12, 55, 0
12, 8045, Note_on_c, 12, 55, 106
12, 8090, Note_on_c, 12, 55, 0
12, 8105, Note_on_c, 12, 55, 106
12, 8150, Note_on_c, 12, 55, 0
12, 8165, Note_on_c, 12, 60, 106
12, 8285, Note_on_c, 12, 60, 0
12, 8945, Note_on_c, 12, 55, 106
12, 8990, Note_on_c, 12, 55, 0
12, 9005, Note_on_c, 12, 55, 106
12, 9050, Note_on_c, 12, 55, 0
12, 9065, Note_on_c, 12, 55, 106
12, 9110, Note_on_c, 12, 55, 0
12, 9125, Note_on_c, 12, 60, 106
12, 9175, Note_on_c, 12, 60, 0
12, 9185, Note_on_c, 12, 72, 106
12, 9235, Note_on_c, 12, 72, 0
12, 9245, Note_on_c, 12, 72, 106
12, 9246, Control_c, 12, 11, 107
12, 9263, Control_c, 12, 11, 104
12, 9281, Control_c, 12, 11, 101
12, 9295, Note_on_c, 12, 72, 0
12, 9299, Control_c, 12, 11, 98
12, 9305, Note_on_c, 12, 72, 106
12, 9316, Control_c, 12, 11, 95
12, 9334, Control_c, 12, 11, 92
12, 9352, Control_c, 12, 11, 89
12, 9355, Note_on_c, 12, 72, 0
12, 9365, Note_on_c, 12, 72, 106
12, 9415, Note_on_c, 12, 72, 0
12, 9425, Note_on_c, 12, 72, 106
12, 9475, Note_on_c, 12, 72, 0
12, 9485, Note_on_c, 12, 72, 106
12, 9535, Note_on_c, 12, 72, 0
12, 9545, Note_on_c, 12, 72, 106
12, 9595, Note_on_c, 12, 72, 0
12, 9605, Note_on_c, 12, 72, 106
12, 9655, Note_on_c, 12, 72, 0
12, 9665, Note_on_c, 12, 72, 106
12, 9715, Note_on_c, 12, 72, 0
12, 9725, Control_c, 12, 11, 107
12, 9725, Note_on_c, 12, 71, 106
12, 9742, Control_c, 12, 11, 104
12, 9760, Control_c, 12, 11, 101
12, 9775, Note_on_c, 12, 71, 0
12, 9778, Control_c, 12, 11, 98
12, 9785, Note_on_c, 12, 71, 106
12, 9796, Control_c, 12, 11, 95
12, 9814, Control_c, 12, 11, 92
12, 9832, Control_c, 12, 11, 89
12, 9835, Note_on_c, 12, 71, 0
12, 9845, Note_on_c, 12, 71, 106
12, 9895, Note_on_c, 12, 71, 0
12, 9905, Note_on_c, 12, 71, 106
12, 9955, Note_on_c, 12, 71, 0
12, 9965, Note_on_c, 12, 71, 106
12, 10015, Note_on_c, 12, 71, 0
12, 10025, Note_on_c, 12, 71, 106
12, 10075, Note_on_c, 12, 71, 0
12, 10085, Note_on_c, 12, 64, 106
12, 10135, Note_on_c, 12, 64, 0
12, 10145, Note_on_c, 12, 64, 106
12, 10195, Note_on_c, 12, 64, 0
12, 10205, Note_on_c, 12, 66, 106
12, 10255, Note_on_c, 12, 66, 0
12, 10265, Note_on_c, 12, 66, 106
12, 10315, Note_on_c, 12, 66, 0
12, 10325, Note_on_c, 12, 62, 106
12, 10375, Note_on_c, 12, 62, 0
12, 10385, Note_on_c, 12, 62, 106
12, 10435, Note_on_c, 12, 62, 0
12, 10445, Note_on_c, 12, 67, 106
12, 10495, Note_on_c, 12, 67, 0
12, 10505, Note_on_c, 12, 67, 106
12, 10555, Note_on_c, 12, 67, 0
12, 10565, Note_on_c, 12, 64, 106
12, 10685, Note_on_c, 12, 64, 0
12, 10805, Note_on_c, 12, 61, 106
12, 10925, Note_on_c, 12, 61, 0
12, 11045, Note_on_c, 12, 62, 106
12, 11075, Note_on_c, 12, 62, 0
12, 11105, Note_on_c, 12, 50, 106
12, 11135, Note_on_c, 12, 50, 0
12, 11165, Note_on_c, 12, 54, 106
12, 11195, Note_on_c, 12, 54, 0
12, 11225, Note_on_c, 12, 55, 106
12, 11255, Note_on_c, 12, 55, 0
12, 11285, Note_on_c, 12, 57, 106
12, 11315, Note_on_c, 12, 57, 0
12, 11345, Note_on_c, 12, 59, 106
12, 11375, Note_on_c, 12, 59, 0
12, 11405, Note_on_c, 12, 60, 106
12, 11405, Control_c, 12, 11, 107
12, 11423, Control_c, 12, 11, 104
12, 11441, Control_c, 12, 11, 101
12, 11459, Control_c, 12, 11, 98
12, 11477, Control_c, 12, 11, 95
12, 11495, Control_c, 12, 11, 92
12, 11513, Control_c, 12, 11, 89
12, 11585, Note_on_c, 12, 60, 0
12, 11585, Note_on_c, 12, 59, 106
12, 11635, Note_on_c, 12, 59, 0
12, 11645, Note_on_c, 12, 62, 106
12, 11675, Note_on_c, 12, 62, 0
12, 11705, Note_on_c, 12, 59, 106
12, 11735, Note_on_c, 12, 59, 0
12, 11765, Note_on_c, 12, 55, 106
12, 11795, Note_on_c, 12, 55, 0
12, 11825, Note_on_c, 12, 55, 106
12, 11855, Note_on_c, 12, 55, 0
12, 11885, Note_on_c, 12, 59, 106
12, 11915, Note_on_c, 12, 59, 0
12, 11945, Note_on_c, 12, 55, 106
12, 11975, Note_on_c, 12, 55, 0
12, 12005, Note_on_c, 12, 62, 106
12, 12025, Note_on_c, 12, 62, 0
12, 12035, Note_on_c, 12, 69, 106
12, 12055, Note_on_c, 12, 69, 0
12, 12065, Note_on_c, 12, 69, 106
12, 12085, Note_on_c, 12, 69, 0
12, 12095, Note_on_c, 12, 69, 106
12, 12115, Note_on_c, 12, 69, 0
12, 12125, Note_on_c, 12, 69, 106
12, 12145, Note_on_c, 12, 69, 0
12, 12155, Note_on_c, 12, 69, 106
12, 12175, Note_on_c, 12, 69, 0
12, 12185, Note_on_c, 12, 69, 106
12, 12205, Note_on_c, 12, 69, 0
12, 12215, Note_on_c, 12, 69, 106
12, 12235, Note_on_c, 12, 69, 0
12, 12245, Note_on_c, 12, 69, 106
12, 12265, Note_on_c, 12, 69, 0
12, 12275, Note_on_c, 12, 69, 106
12, 12295, Note_on_c, 12, 69, 0
12, 12305, Note_on_c, 12, 69, 106
12, 12325, Note_on_c, 12, 69, 0
12, 12335, Note_on_c, 12, 69, 106
12, 12355, Note_on_c, 12, 69, 0
12, 12365, Note_on_c, 12, 69, 106
12, 12385, Note_on_c, 12, 69, 0
12, 12395, Note_on_c, 12, 69, 106
12, 12415, Note_on_c, 12, 69, 0
12, 12425, Note_on_c, 12, 69, 106
12, 12445, Note_on_c, 12, 69, 0
12, 12455, Note_on_c, 12, 69, 106
12, 12475, Note_on_c, 12, 69, 0
12, 12485, Note_on_c, 12, 71, 106
12, 12505, Note_on_c, 12, 71, 0
12, 12515, Note_on_c, 12, 71, 106
12, 12535, Note_on_c, 12, 71, 0
12, 12545, Note_on_c, 12, 71, 106
12, 12565, Note_on_c, 12, 71, 0
12, 12575, Note_on_c, 12, 71, 106
12, 12595, Note_on_c, 12, 71, 0
12, 12605, Note_on_c, 12, 71, 106
12, 12625, Note_on_c, 12, 71, 0
12, 12635, Note_on_c, 12, 71, 106
12, 12655, Note_on_c, 12, 71, 0
12, 12665, Note_on_c, 12, 71, 106
12, 12685, Note_on_c, 12, 71, 0
12, 12695, Note_on_c, 12, 71, 106
12, 12715, Note_on_c, 12, 71, 0
12, 12725, Note_on_c, 12, 71, 106
12, 12745, Note_on_c, 12, 71, 0
12, 12755, Note_on_c, 12, 71, 106
12, 12775, Note_on_c, 12, 71, 0
12, 12785, Note_on_c, 12, 71, 106
12, 12805, Note_on_c, 12, 71, 0
12, 12815, Note_on_c, 12, 71, 106
12, 12835, Note_on_c, 12, 71, 0
12, 12845, Note_on_c, 12, 71, 106
12, 12865, Note_on_c, 12, 71, 0
12, 12875, Note_on_c, 12, 71, 106
12, 12895, Note_on_c, 12, 71, 0
12, 12905, Note_on_c, 12, 71, 106
12, 12925, Note_on_c, 12, 71, 0
12, 12935, Note_on_c, 12, 71, 106
12, 12955, Note_on_c, 12, 71, 0
12, 12965, Note_on_c, 12, 69, 91
12, 13085, Note_on_c, 12, 69, 0
12, 13445, Control_c, 12, 11, 47
12, 13445, Note_on_c, 12, 50, 106
12, 13495, Note_on_c, 12, 50, 0
12, 13505, Note_on_c, 12, 50, 106
12, 13555, Note_on_c, 12, 50, 0
12, 13565, Note_on_c, 12, 50, 106
12, 13615, Note_on_c, 12, 50, 0
12, 13625, Note_on_c, 12, 50, 106
12, 13675, Note_on_c, 12, 50, 0
12, 13685, Note_on_c, 12, 50, 106
12, 13735, Note_on_c, 12, 50, 0
12, 13745, Note_on_c, 12, 50, 106
12, 13795, Note_on_c, 12, 50, 0
12, 13805, Note_on_c, 12, 50, 106
12, 13855, Note_on_c, 12, 50, 0
12, 13865, Note_on_c, 12, 50, 106
12, 13915, Note_on_c, 12, 50, 0
12, 13925, Note_on_c, 12, 50, 106
12, 13975, Note_on_c, 12, 50, 0
12, 13985, Note_on_c, 12, 50, 106
12, 14035, Note_on_c, 12, 50, 0
12, 14045, Note_on_c, 12, 50, 106
12, 14095, Note_on_c, 12, 50, 0
12, 14105, Note_on_c, 12, 50, 106
12, 14155, Note_on_c, 12, 50, 0
12, 14165, Note_on_c, 12, 50, 106
12, 14215, Note_on_c, 12, 50, 0
12, 14225, Note_on_c, 12, 50, 106
12, 14275, Note_on_c, 12, 50, 0
12, 14285, Note_on_c, 12, 50, 106
12, 14335, Note_on_c, 12, 50, 0
12, 14345, Note_on_c, 12, 50, 106
12, 14395, Note_on_c, 12, 50, 0
12, 14405, Note_on_c, 12, 50, 106
12, 14455, Note_on_c, 12, 50, 0
12, 14465, Note_on_c, 12, 62, 106
12, 14515, Note_on_c, 12, 62, 0
12, 14525, Note_on_c, 12, 50, 106
12, 14575, Note_on_c, 12, 50, 0
12, 14585, Note_on_c, 12, 50, 106
12, 14635, Note_on_c, 12, 50, 0
12, 14645, Note_on_c, 12, 50, 106
12, 14695, Note_on_c, 12, 50, 0
12, 14705, Note_on_c, 12, 50, 106
12, 14755, Note_on_c, 12, 50, 0
12, 14765, Note_on_c, 12, 50, 106
12, 14815, Note_on_c, 12, 50, 0
12, 14825, Note_on_c, 12, 50, 106
12, 14875, Note_on_c, 12, 50, 0
12, 14885, Note_on_c, 12, 50, 106
12, 14935, Note_on_c, 12, 50, 0
12, 14945, Note_on_c, 12, 50, 106
12, 14995, Note_on_c, 12, 50, 0
12, 15005, Note_on_c, 12, 50, 106
12, 15055, Note_on_c, 12, 50, 0
12, 15065, Note_on_c, 12, 50, 106
12, 15115, Note_on_c, 12, 50, 0
12, 15125, Note_on_c, 12, 50, 106
12, 15175, Note_on_c, 12, 50, 0
12, 15185, Note_on_c, 12, 50, 106
12, 15235, Note_on_c, 12, 50, 0
12, 15245, Note_on_c, 12, 50, 106
12, 15295, Note_on_c, 12, 50, 0
12, 15305, Note_on_c, 12, 50, 106
12, 15355, Note_on_c, 12, 50, 0
12, 15365, Note_on_c, 12, 50, 106
12, 15415, Note_on_c, 12, 50, 0
12, 15425, Note_on_c, 12, 62, 106
12, 15475, Note_on_c, 12, 62, 0
12, 15485, Note_on_c, 12, 62, 106
12, 15535, Note_on_c, 12, 62, 0
12, 15545, Note_on_c, 12, 62, 106
12, 15595, Note_on_c, 12, 62, 0
12, 15605, Control_c, 12, 11, 47
12, 15605, Note_on_c, 12, 62, 106
12, 15635, Control_c, 12, 11, 48
12, 15655, Note_on_c, 12, 62, 0
12, 15665, Note_on_c, 12, 62, 106
12, 15665, Control_c, 12, 11, 49
12, 15695, Control_c, 12, 11, 50
12, 15715, Note_on_c, 12, 62, 0
12, 15725, Control_c, 12, 11, 51
12, 15725, Note_on_c, 12, 62, 106
12, 15755, Control_c, 12, 11, 52
12, 15775, Note_on_c, 12, 62, 0
12, 15785, Note_on_c, 12, 62, 106
12, 15785, Control_c, 12, 11, 53
12, 15815, Control_c, 12, 11, 54
12, 15835, Note_on_c, 12, 62, 0
12, 15845, Control_c, 12, 11, 55
12, 15845, Note_on_c, 12, 62, 106
12, 15875, Control_c, 12, 11, 56
12, 15895, Note_on_c, 12, 62, 0
12, 15905, Note_on_c, 12, 55, 106
12, 15905, Control_c, 12, 11, 57
12, 15935, Control_c, 12, 11, 58
12, 15955, Note_on_c, 12, 55, 0
12, 15965, Control_c, 12, 11, 59
12, 15965, Note_on_c, 12, 67, 106
12, 15995, Control_c, 12, 11, 60
12, 16015, Note_on_c, 12, 67, 0
12, 16025, Note_on_c, 12, 67, 106
12, 16025, Control_c, 12, 11, 61
12, 16055, Control_c, 12, 11, 62
12, 16075, Note_on_c, 12, 67, 0
12, 16085, Note_on_c, 12, 67, 106
12, 16085, Control_c, 12, 11, 63
12, 16115, Control_c, 12, 11, 64
12, 16135, Note_on_c, 12, 67, 0
12, 16145, Note_on_c, 12, 67, 106
12, 16145, Control_c, 12, 11, 65
12, 16175, Control_c, 12, 11, 66
12, 16195, Note_on_c, 12, 67, 0
12, 16205, Control_c, 12, 11, 67
12, 16205, Note_on_c, 12, 67, 106
12, 16235, Control_c, 12, 11, 68
12, 16255, Note_on_c, 12, 67, 0
12, 16265, Note_on_c, 12, 67, 106
12, 16265, Control_c, 12, 11, 69
12, 16295, Control_c, 12, 11, 70
12, 16315, Note_on_c, 12, 67, 0
12, 16325, Control_c, 12, 11, 71
12, 16325, Note_on_c, 12, 67, 106
12, 16355, Control_c, 12, 11, 72
12, 16375, Note_on_c, 12, 67, 0
12, 16385, Note_on_c, 12, 67, 106
12, 16385, Control_c, 12, 11, 73
12, 16415, Control_c, 12, 11, 74
12, 16435, Note_on_c, 12, 67, 0
12, 16445, Control_c, 12, 11, 75
12, 16445, Note_on_c, 12, 67, 106
12, 16475, Control_c, 12, 11, 76
12, 16495, Note_on_c, 12, 67, 0
12, 16505, Note_on_c, 12, 67, 106
12, 16505, Control_c, 12, 11, 77
12, 16535, Control_c, 12, 11, 78
12, 16555, Note_on_c, 12, 67, 0
12, 16565, Control_c, 12, 11, 79
12, 16565, Note_on_c, 12, 67, 106
12, 16595, Control_c, 12, 11, 80
12, 16615, Note_on_c, 12, 67, 0
12, 16625, Note_on_c, 12, 67, 106
12, 16625, Control_c, 12, 11, 81
12, 16655, Control_c, 12, 11, 82
12, 16675, Note_on_c, 12, 67, 0
12, 16685, Control_c, 12, 11, 83
12, 16685, Note_on_c, 12, 67, 106
12, 16715, Control_c, 12, 11, 84
12, 16735, Note_on_c, 12, 67, 0
12, 16745, Note_on_c, 12, 67, 106
12, 16745, Control_c, 12, 11, 85
12, 16775, Control_c, 12, 11, 86
12, 16795, Note_on_c, 12, 67, 0
12, 16805, Note_on_c, 12, 68, 106
12, 16805, Control_c, 12, 11, 90
12, 16811, Control_c, 12, 11, 93
12, 16817, Control_c, 12, 11, 96
12, 16823, Control_c, 12, 11, 99
12, 16837, Control_c, 12, 11, 96
12, 16846, Control_c, 12, 11, 93
12, 16855, Control_c, 12, 11, 90
12, 16864, Control_c, 12, 11, 87
12, 17025, Note_on_c, 12, 68, 0
12, 17045, Control_c, 12, 11, 92
12, 17045, Note_on_c, 12, 53, 106
12, 17053, Control_c, 12, 11, 95
12, 17062, Control_c, 12, 11, 98
12, 17071, Control_c, 12, 11, 101
12, 17086, Control_c, 12, 11, 100
12, 17095, Note_on_c, 12, 53, 0
12, 17104, Control_c, 12, 11, 97
12, 17105, Note_on_c, 12, 65, 106
12, 17122, Control_c, 12, 11, 94
12, 17140, Control_c, 12, 11, 91
12, 17155, Note_on_c, 12, 65, 0
12, 17158, Control_c, 12, 11, 88
12, 17165, Note_on_c, 12, 65, 106
12, 17215, Note_on_c, 12, 65, 0
12, 17225, Note_on_c, 12, 65, 106
12, 17275, Note_on_c, 12, 65, 0
12, 17285, Note_on_c, 12, 52, 106
12, 17285, Control_c, 12, 11, 92
12, 17293, Control_c, 12, 11, 95
12, 17302, Control_c, 12, 11, 98
12, 17311, Control_c, 12, 11, 101
12, 17326, Control_c, 12, 11, 100
12, 17335, Note_on_c, 12, 52, 0
12, 17344, Control_c, 12, 11, 97
12, 17345, Note_on_c, 12, 64, 106
12, 17362, Control_c, 12, 11, 94
12, 17380, Control_c, 12, 11, 91
12, 17395, Note_on_c, 12, 64, 0
12, 17398, Control_c, 12, 11, 88
12, 17405, Note_on_c, 12, 64, 106
12, 17455, Note_on_c, 12, 64, 0
12, 17465, Note_on_c, 12, 64, 106
12, 17515, Note_on_c, 12, 64, 0
12, 17525, Note_on_c, 12, 52, 106
12, 17525, Control_c, 12, 11, 92
12, 17533, Control_c, 12, 11, 95
12, 17542, Control_c, 12, 11, 98
12, 17551, Control_c, 12, 11, 101
12, 17566, Control_c, 12, 11, 100
12, 17575, Note_on_c, 12, 52, 0
12, 17584, Control_c, 12, 11, 97
12, 17585, Note_on_c, 12, 64, 106
12, 17602, Control_c, 12, 11, 94
12, 17620, Control_c, 12, 11, 91
12, 17635, Note_on_c, 12, 64, 0
12, 17638, Control_c, 12, 11, 88
12, 17645, Note_on_c, 12, 64, 106
12, 17695, Note_on_c, 12, 64, 0
12, 17705, Note_on_c, 12, 64, 106
12, 17755, Note_on_c, 12, 64, 0
12, 17765, Note_on_c, 12, 66, 106
12, 17785, Note_on_c, 12, 66, 0
12, 17795, Note_on_c, 12, 66, 106
12, 17815, Note_on_c, 12, 66, 0
12, 17825, Note_on_c, 12, 66, 106
12, 17845, Note_on_c, 12, 66, 0
12, 17855, Note_on_c, 12, 66, 106
12, 17875, Note_on_c, 12, 66, 0
12, 17885, Control_c, 12, 11, 102
12, 17885, Note_on_c, 12, 66, 106
12, 17905, Note_on_c, 12, 66, 0
12, 17915, Note_on_c, 12, 66, 106
12, 17935, Note_on_c, 12, 66, 0
12, 17945, Note_on_c, 12, 66, 106
12, 17965, Note_on_c, 12, 66, 0
12, 17975, Note_on_c, 12, 66, 106
12, 17995, Note_on_c, 12, 66, 0
12, 18005, Note_on_c, 12, 66, 106
12, 18025, Note_on_c, 12, 66, 0
12, 18035, Note_on_c, 12, 66, 106
12, 18055, Note_on_c, 12, 66, 0
12, 18065, Note_on_c, 12, 66, 106
12, 18085, Note_on_c, 12, 66, 0
12, 18095, Note_on_c, 12, 66, 106
12, 18115, Note_on_c, 12, 66, 0
12, 18125, Note_on_c, 12, 66, 106
12, 18145, Note_on_c, 12, 66, 0
12, 18155, Note_on_c, 12, 66, 106
12, 18175, Note_on_c, 12, 66, 0
12, 18185, Note_on_c, 12, 66, 106
12, 18205, Note_on_c, 12, 66, 0
12, 18215, Note_on_c, 12, 66, 106
12, 18235, Note_on_c, 12, 66, 0
12, 18245, Note_on_c, 12, 67, 106
12, 18265, Note_on_c, 12, 67, 0
12, 18275, Note_on_c, 12, 67, 106
12, 18295, Note_on_c, 12, 67, 0
12, 18305, Note_on_c, 12, 67, 106
12, 18325, Note_on_c, 12, 67, 0
12, 18335, Note_on_c, 12, 67, 106
12, 18355, Note_on_c, 12, 67, 0
12, 18365, Note_on_c, 12, 64, 106
12, 18385, Note_on_c, 12, 64, 0
12, 18395, Note_on_c, 12, 64, 106
12, 18415, Note_on_c, 12, 64, 0
12, 18425, Note_on_c, 12, 64, 106
12, 18445, Note_on_c, 12, 64, 0
12, 18455, Note_on_c, 12, 64, 106
12, 18475, Note_on_c, 12, 64, 0
12, 18485, Note_on_c, 12, 62, 106
12, 18505, Note_on_c, 12, 62, 0
12, 18515, Note_on_c, 12, 62, 106
12, 18535, Note_on_c, 12, 62, 0
12, 18545, Note_on_c, 12, 62, 106
12, 18565, Note_on_c, 12, 62, 0
12, 18575, Note_on_c, 12, 62, 106
12, 18595, Note_on_c, 12, 62, 0
12, 18605, Note_on_c, 12, 60, 106
12, 18625, Note_on_c, 12, 60, 0
12, 18635, Note_on_c, 12, 60, 106
12, 18655, Note_on_c, 12, 60, 0
12, 18665, Note_on_c, 12, 60, 106
12, 18685, Note_on_c, 12, 60, 0
12, 18695, Note_on_c, 12, 60, 106
12, 18715, Note_on_c, 12, 60, 0
12, 18725, Note_on_c, 12, 59, 106
12, 18845, Note_on_c, 12, 59, 0
12, 19025, Note_on_c, 12, 72, 106
12, 19025, Control_c, 12, 11, 122
12, 19033, Control_c, 12, 11, 119
12, 19042, Control_c, 12, 11, 116
12, 19051, Control_c, 12, 11, 113
12, 19060, Control_c, 12, 11, 110
12, 19069, Control_c, 12, 11, 107
12, 19078, Control_c, 12, 11, 104
12, 19125, Note_on_c, 12, 72, 0
12, 19145, Note_on_c, 12, 72, 106
12, 19190, Note_on_c, 12, 72, 0
12, 19205, Note_on_c, 12, 74, 106
12, 19265, Note_on_c, 12, 74, 0
12, 19505, Note_on_c, 12, 62, 106
12, 19505, Control_c, 12, 11, 122
12, 19513, Control_c, 12, 11, 119
12, 19522, Control_c, 12, 11, 116
12, 19531, Control_c, 12, 11, 113
12, 19540, Control_c, 12, 11, 110
12, 19549, Control_c, 12, 11, 107
12, 19558, Control_c, 12, 11, 104
12, 19605, Note_on_c, 12, 62, 0
12, 19625, Note_on_c, 12, 62, 106
12, 19670, Note_on_c, 12, 62, 0
12, 19685, Note_on_c, 12, 67, 106
12, 19745, Note_on_c, 12, 67, 0
12, 19985, Note_on_c, 12, 72, 106
12, 19985, Control_c, 12, 11, 122
12, 19993, Control_c, 12, 11, 119
12, 20002, Control_c, 12, 11, 116
12, 20011, Control_c, 12, 11, 113
12, 20020, Control_c, 12, 11, 110
12, 20029, Control_c, 12, 11, 107
12, 20038, Control_c, 12, 11, 104
12, 20085, Note_on_c, 12, 72, 0
12, 20105, Note_on_c, 12, 72, 106
12, 20150, Note_on_c, 12, 72, 0
12, 20165, Note_on_c, 12, 74, 106
12, 20225, Note_on_c, 12, 74, 0
12, 20465, Note_on_c, 12, 62, 106
12, 20465, Control_c, 12, 11, 122
12, 20473, Control_c, 12, 11, 119
12, 20482, Control_c, 12, 11, 116
12, 20491, Control_c, 12, 11, 113
12, 20500, Control_c, 12, 11, 110
12, 20509, Control_c, 12, 11, 107
12, 20518, Control_c, 12, 11, 104
12, 20565, Note_on_c, 12, 62, 0
12, 20585, Note_on_c, 12, 62, 106
12, 20630, Note_on_c, 12, 62, 0
12, 20645, Control_c, 12, 11, 122
12, 20645, Note_on_c, 12, 67, 106
12, 20662, Control_c, 12, 11, 119
12, 20680, Control_c, 12, 11, 116
12, 20698, Control_c, 12, 11, 113
12, 20716, Control_c, 12, 11, 110
12, 20734, Control_c, 12, 11, 107
12, 20752, Control_c, 12, 11, 104
12, 20990, Note_on_c, 12, 67, 0
12, 21005, Note_on_c, 12, 67, 106
12, 21035, Note_on_c, 12, 67, 0
12, 21065, Note_on_c, 12, 67, 106
12, 21095, Note_on_c, 12, 67, 0
12, 21125, Control_c, 12, 11, 122
12, 21125, Note_on_c, 12, 69, 106
12, 21142, Control_c, 12, 11, 119
12, 21160, Control_c, 12, 11, 116
12, 21178, Control_c, 12, 11, 113
12, 21196, Control_c, 12, 11, 110
12, 21214, Control_c, 12, 11, 107
12, 21232, Control_c, 12, 11, 104
12, 21470, Note_on_c, 12, 69, 0
12, 21485, Note_on_c, 12, 69, 106
12, 21515, Note_on_c, 12, 69, 0
12, 21545, Note_on_c, 12, 69, 106
12, 21575, Note_on_c, 12, 69, 0
12, 21605, Control_c, 12, 11, 122
12, 21605, Note_on_c, 12, 71, 106
12, 21622, Control_c, 12, 11, 119
12, 21640, Control_c, 12, 11, 116
12, 21658, Control_c, 12, 11, 113
12, 21676, Control_c, 12, 11, 110
12, 21694, Control_c, 12, 11, 107
12, 21712, Control_c, 12, 11, 104
12, 21950, Note_on_c, 12, 71, 0
12, 21965, Note_on_c, 12, 71, 106
12, 21995, Note_on_c, 12, 71, 0
12, 22025, Note_on_c, 12, 71, 106
12, 22055, Note_on_c, 12, 71, 0
12, 22085, Note_on_c, 12, 72, 106
12, 22085, Control_c, 12, 11, 122
12, 22102, Control_c, 12, 11, 119
12, 22120, Control_c, 12, 11, 116
12, 22138, Control_c, 12, 11, 113
12, 22156, Control_c, 12, 11, 110
12, 22174, Control_c, 12, 11, 107
12, 22192, Control_c, 12, 11, 104
12, 22430, Note_on_c, 12, 72, 0
12, 22445, Note_on_c, 12, 64, 106
12, 22475, Note_on_c, 12, 64, 0
12, 22505, Note_on_c, 12, 64, 106
12, 22535, Note_on_c, 12, 64, 0
12, 22565, Note_on_c, 12, 65, 106
12, 22565, Control_c, 12, 11, 122
12, 22582, Control_c, 12, 11, 119
12, 22600, Control_c, 12, 11, 116
12, 22618, Control_c, 12, 11, 113
12, 22636, Control_c, 12, 11, 110
12, 22654, Control_c, 12, 11, 107
12, 22672, Control_c, 12, 11, 104
12, 22745, Note_on_c, 12, 65, 0
12, 22745, Note_on_c, 12, 64, 106
12, 22790, Note_on_c, 12, 64, 0
12, 22805, Control_c, 12, 11, 122
12, 22805, Note_on_c, 12, 65, 106
12, 22822, Control_c, 12, 11, 119
12, 22840, Control_c, 12, 11, 116
12, 22858, Control_c, 12, 11, 113
12, 22876, Control_c, 12, 11, 110
12, 22894, Control_c, 12, 11, 107
12, 22912, Control_c, 12, 11, 104
12, 22985, Note_on_c, 12, 65, 0
12, 22985, Note_on_c, 12, 64, 106
12, 23030, Note_on_c, 12, 64, 0
12, 23045, Note_on_c, 12, 65, 106
12, 23045, Control_c, 12, 11, 92
12, 23056, Control_c, 12, 11, 89
12, 23068, Control_c, 12, 11, 86
12, 23075, Note_on_c, 12, 65, 0
12, 23080, Control_c, 12, 11, 83
12, 23092, Control_c, 12, 11, 80
12, 23104, Control_c, 12, 11, 77
12, 23105, Note_on_c, 12, 64, 106
12, 23116, Control_c, 12, 11, 74
12, 23128, Control_c, 12, 11, 71
12, 23135, Note_on_c, 12, 64, 0
12, 23140, Control_c, 12, 11, 68
12, 23152, Control_c, 12, 11, 65
12, 23164, Control_c, 12, 11, 62
12, 23165, Note_on_c, 12, 62, 106
12, 23176, Control_c, 12, 11, 59
12, 23188, Control_c, 12, 11, 56
12, 23195, Note_on_c, 12, 62, 0
12, 23200, Control_c, 12, 11, 53
12, 23212, Control_c, 12, 11, 50
12, 23224, Control_c, 12, 11, 47
12, 23225, Note_on_c, 12, 60, 106
12, 23255, Note_on_c, 12, 60, 0
12, 23285, Note_on_c, 12, 59, 106
12, 23315, Note_on_c, 12, 59, 0
12, 23345, Note_on_c, 12, 57, 106
12, 23375, Note_on_c, 12, 57, 0
12, 23405, Note_on_c, 12, 55, 106
12, 23435, Note_on_c, 12, 55, 0
12, 23465, Note_on_c, 12, 53, 106
12, 23495, Note_on_c, 12, 53, 0
12, 23525, Note_on_c, 12, 60, 106
12, 23545, Note_on_c, 12, 60, 0
12, 23555, Note_on_c, 12, 60, 106
12, 23575, Note_on_c, 12, 60, 0
12, 23585, Note_on_c, 12, 55, 106
12, 23605, Note_on_c, 12, 55, 0
12, 23615, Note_on_c, 12, 55, 106
12, 23635, Note_on_c, 12, 55, 0
12, 23645, Note_on_c, 12, 60, 106
12, 23665, Note_on_c, 12, 60, 0
12, 23675, Note_on_c, 12, 60, 106
12, 23695, Note_on_c, 12, 60, 0
12, 23705, Note_on_c, 12, 55, 106
12, 23725, Note_on_c, 12, 55, 0
12, 23735, Note_on_c, 12, 55, 106
12, 23755, Note_on_c, 12, 55, 0
12, 23765, Note_on_c, 12, 59, 106
12, 23785, Note_on_c, 12, 59, 0
12, 23795, Note_on_c, 12, 59, 106
12, 23815, Note_on_c, 12, 59, 0
12, 23825, Note_on_c, 12, 55, 106
12, 23845, Note_on_c, 12, 55, 0
12, 23855, Note_on_c, 12, 55, 106
12, 23875, Note_on_c, 12, 55, 0
12, 23885, Note_on_c, 12, 59, 106
12, 23905, Note_on_c, 12, 59, 0
12, 23915, Note_on_c, 12, 59, 106
12, 23935, Note_on_c, 12, 59, 0
12, 23945, Note_on_c, 12, 55, 106
12, 23965, Note_on_c, 12, 55, 0
12, 23975, Note_on_c, 12, 55, 106
12, 23995, Note_on_c, 12, 55, 0
12, 24005, Note_on_c, 12, 60, 106
12, 24025, Note_on_c, 12, 60, 0
12, 24035, Note_on_c, 12, 60, 106
12, 24055, Note_on_c, 12, 60, 0
12, 24065, Note_on_c, 12, 55, 106
12, 24085, Note_on_c, 12, 55, 0
12, 24095, Note_on_c, 12, 55, 106
12, 24115, Note_on_c, 12, 55, 0
12, 24125, Note_on_c, 12, 60, 106
12, 24145, Note_on_c, 12, 60, 0
12, 24155, Note_on_c, 12, 60, 106
12, 24175, Note_on_c, 12, 60, 0
12, 24185, Note_on_c, 12, 55, 106
12, 24205, Note_on_c, 12, 55, 0
12, 24215, Note_on_c, 12, 55, 106
12, 24235, Note_on_c, 12, 55, 0
12, 24245, Note_on_c, 12, 60, 106
12, 24265, Note_on_c, 12, 60, 0
12, 24275, Note_on_c, 12, 60, 106
12, 24295, Note_on_c, 12, 60, 0
12, 24305, Note_on_c, 12, 55, 106
12, 24325, Note_on_c, 12, 55, 0
12, 24335, Note_on_c, 12, 55, 106
12, 24355, Note_on_c, 12, 55, 0
12, 24365, Note_on_c, 12, 59, 106
12, 24385, Note_on_c, 12, 59, 0
12, 24395, Note_on_c, 12, 59, 106
12, 24415, Note_on_c, 12, 59, 0
12, 24425, Note_on_c, 12, 55, 106
12, 24445, Note_on_c, 12, 55, 0
12, 24455, Note_on_c, 12, 55, 106
12, 24475, Note_on_c, 12, 55, 0
12, 24485, Note_on_c, 12, 60, 106
12, 24505, Note_on_c, 12, 60, 0
12, 24515, Note_on_c, 12, 60, 106
12, 24535, Note_on_c, 12, 60, 0
12, 24545, Note_on_c, 12, 64, 106
12, 24565, Note_on_c, 12, 64, 0
12, 24575, Note_on_c, 12, 64, 106
12, 24595, Note_on_c, 12, 64, 0
12, 24605, Note_on_c, 12, 60, 106
12, 24625, Note_on_c, 12, 60, 0
12, 24635, Note_on_c, 12, 60, 106
12, 24655, Note_on_c, 12, 60, 0
12, 24665, Note_on_c, 12, 64, 106
12, 24685, Note_on_c, 12, 64, 0
12, 24695, Note_on_c, 12, 64, 106
12, 24715, Note_on_c, 12, 64, 0
12, 24725, Note_on_c, 12, 60, 106
12, 24745, Note_on_c, 12, 60, 0
12, 24755, Note_on_c, 12, 60, 106
12, 24775, Note_on_c, 12, 60, 0
12, 24785, Note_on_c, 12, 60, 106
12, 24805, Note_on_c, 12, 60, 0
12, 24815, Note_on_c, 12, 60, 106
12, 24835, Note_on_c, 12, 60, 0
12, 24845, Note_on_c, 12, 60, 106
12, 24865, Note_on_c, 12, 60, 0
12, 24875, Note_on_c, 12, 60, 106
12, 24895, Note_on_c, 12, 60, 0
12, 24905, Note_on_c, 12, 60, 106
12, 24925, Note_on_c, 12, 60, 0
12, 24935, Note_on_c, 12, 60, 106
12, 24955, Note_on_c, 12, 60, 0
12, 24965, Note_on_c, 12, 59, 82
12, 25085, Note_on_c, 12, 59, 0
12, 25265, Note_on_c, 12, 57, 106
12, 25295, Note_on_c, 12, 57, 0
12, 25325, Note_on_c, 12, 59, 106
12, 25355, Note_on_c, 12, 59, 0
12, 25385, Note_on_c, 12, 61, 106
12, 25415, Note_on_c, 12, 61, 0
12, 25445, Note_on_c, 12, 62, 106
12, 25475, Note_on_c, 12, 62, 0
12, 25505, Note_on_c, 12, 64, 106
12, 25535, Note_on_c, 12, 64, 0
12, 25565, Note_on_c, 12, 65, 106
12, 25595, Note_on_c, 12, 65, 0
12, 25745, Note_on_c, 12, 55, 106
12, 25775, Note_on_c, 12, 55, 0
12, 25805, Note_on_c, 12, 57, 106
12, 25835, Note_on_c, 12, 57, 0
12, 25865, Note_on_c, 12, 59, 106
12, 25895, Note_on_c, 12, 59, 0
12, 25925, Note_on_c, 12, 60, 106
12, 25955, Note_on_c, 12, 60, 0
12, 25985, Note_on_c, 12, 62, 106
12, 26015, Note_on_c, 12, 62, 0
12, 26045, Note_on_c, 12, 64, 106
12, 26075, Note_on_c, 12, 64, 0
12, 26225, Note_on_c, 12, 60, 106
12, 26255, Note_on_c, 12, 60, 0
12, 26285, Note_on_c, 12, 62, 106
12, 26315, Note_on_c, 12, 62, 0
12, 26345, Note_on_c, 12, 64, 106
12, 26375, Note_on_c, 12, 64, 0
12, 26405, Note_on_c, 12, 65, 106
12, 26465, Note_on_c, 12, 65, 0
12, 26525, Note_on_c, 12, 69, 106
12, 26585, Note_on_c, 12, 69, 0
12, 26645, Note_on_c, 12, 64, 106
12, 26705, Note_on_c, 12, 64, 0
12, 26765, Note_on_c, 12, 62, 106
12, 26825, Note_on_c, 12, 62, 0
12, 26885, Note_on_c, 12, 60, 106
12, 26945, Note_on_c, 12, 60, 0
12, 27125, Note_on_c, 12, 57, 106
12, 27185, Control_c, 12, 11, 47
12, 27200, Control_c, 12, 11, 48
12, 27215, Control_c, 12, 11, 49
12, 27230, Control_c, 12, 11, 50
12, 27245, Note_on_c, 12, 57, 0
12, 27246, Control_c, 12, 11, 51
12, 27261, Control_c, 12, 11, 52
12, 27276, Control_c, 12, 11, 53
12, 27291, Control_c, 12, 11, 54
12, 27307, Control_c, 12, 11, 55
12, 27322, Control_c, 12, 11, 56
12, 27337, Control_c, 12, 11, 57
12, 27353, Control_c, 12, 11, 58
12, 27365, Note_on_c, 12, 62, 106
12, 27368, Control_c, 12, 11, 59
12, 27383, Control_c, 12, 11, 60
12, 27398, Control_c, 12, 11, 61
12, 27414, Control_c, 12, 11, 62
12, 27429, Control_c, 12, 11, 63
12, 27444, Control_c, 12, 11, 64
12, 27459, Control_c, 12, 11, 65
12, 27475, Control_c, 12, 11, 66
12, 27485, Note_on_c, 12, 62, 0
12, 27490, Control_c, 12, 11, 67
12, 27505, Control_c, 12, 11, 68
12, 27521, Control_c, 12, 11, 69
12, 27536, Control_c, 12, 11, 70
12, 27551, Control_c, 12, 11, 71
12, 27566, Control_c, 12, 11, 72
12, 27582, Control_c, 12, 11, 73
12, 27597, Control_c, 12, 11, 74
12, 27605, Note_on_c, 12, 55, 106
12, 27612, Control_c, 12, 11, 75
12, 27627, Control_c, 12, 11, 76
12, 27643, Control_c, 12, 11, 77
12, 27658, Control_c, 12, 11, 78
12, 27673, Control_c, 12, 11, 79
12, 27689, Control_c, 12, 11, 80
12, 27704, Control_c, 12, 11, 81
12, 27719, Control_c, 12, 11, 82
12, 27725, Note_on_c, 12, 55, 0
12, 27734, Control_c, 12, 11, 83
12, 27750, Control_c, 12, 11, 84
12, 27765, Control_c, 12, 11, 85
12, 27780, Control_c, 12, 11, 86
12, 27795, Control_c, 12, 11, 87
12, 27811, Control_c, 12, 11, 88
12, 27826, Control_c, 12, 11, 89
12, 27841, Control_c, 12, 11, 90
12, 27845, Note_on_c, 12, 60, 106
12, 27857, Control_c, 12, 11, 91
12, 27872, Control_c, 12, 11, 92
12, 27887, Control_c, 12, 11, 93
12, 27902, Control_c, 12, 11, 94
12, 27918, Control_c, 12, 11, 95
12, 27933, Control_c, 12, 11, 96
12, 27948, Control_c, 12, 11, 97
12, 27963, Control_c, 12, 11, 98
12, 27965, Note_on_c, 12, 60, 0
12, 27979, Control_c, 12, 11, 99
12, 27994, Control_c, 12, 11, 100
12, 28009, Control_c, 12, 11, 101
12, 28025, Control_c, 12, 11, 102
12, 28145, Note_on_c, 12, 60, 106
12, 28175, Note_on_c, 12, 60, 0
12, 28205, Note_on_c, 12, 62, 106
12, 28235, Note_on_c, 12, 62, 0
12, 28265, Note_on_c, 12, 64, 106
12, 28295, Note_on_c, 12, 64, 0
12, 28325, Note_on_c, 12, 65, 106
12, 28355, Note_on_c, 12, 65, 0
12, 28385, Note_on_c, 12, 64, 106
12, 28415, Note_on_c, 12, 64, 0
12, 28445, Note_on_c, 12, 62, 106
12, 28475, Note_on_c, 12, 62, 0
12, 28505, Note_on_c, 12, 65, 106
12, 28535, Note_on_c, 12, 65, 0
12, 28565, Note_on_c, 12, 67, 106
12, 28595, Note_on_c, 12, 67, 0
12, 28625, Note_on_c, 12, 66, 106
12, 28655, Note_on_c, 12, 66, 0
12, 28685, Note_on_c, 12, 67, 106
12, 28715, Note_on_c, 12, 67, 0
12, 28745, Note_on_c, 12, 55, 106
12, 28775, Note_on_c, 12, 55, 0
12, 28805, Note_on_c, 12, 60, 106
12, 28925, Note_on_c, 12, 60, 0
12, 29585, Note_on_c, 12, 55, 106
12, 29585, Control_c, 12, 11, 87
12, 29630, Note_on_c, 12, 55, 0
12, 29645, Note_on_c, 12, 55, 106
12, 29690, Note_on_c, 12, 55, 0
12, 29705, Note_on_c, 12, 55, 106
12, 29750, Note_on_c, 12, 55, 0
12, 29765, Note_on_c, 12, 60, 106
12, 29885, Note_on_c, 12, 60, 0
12, 30545, Note_on_c, 12, 55, 106
12, 30590, Note_on_c, 12, 55, 0
12, 30605, Note_on_c, 12, 55, 106
12, 30650, Note_on_c, 12, 55, 0
12, 30665, Note_on_c, 12, 55, 106
12, 30710, Note_on_c, 12, 55, 0
12, 30725, Note_on_c, 12, 60, 106
12, 30775, Note_on_c, 12, 60, 0
12, 30785, Note_on_c, 12, 72, 106
12, 30835, Note_on_c, 12, 72, 0
12, 30845, Note_on_c, 12, 72, 106
12, 30846, Control_c, 12, 11, 107
12, 30863, Control_c, 12, 11, 104
12, 30881, Control_c, 12, 11, 101
12, 30895, Note_on_c, 12, 72, 0
12, 30899, Control_c, 12, 11, 98
12, 30905, Note_on_c, 12, 72, 106
12, 30916, Control_c, 12, 11, 95
12, 30934, Control_c, 12, 11, 92
12, 30952, Control_c, 12, 11, 89
12, 30955, Note_on_c, 12, 72, 0
12, 30965, Note_on_c, 12, 72, 106
12, 31015, Note_on_c, 12, 72, 0
12, 31025, Note_on_c, 12, 72, 106
12, 31075, Note_on_c, 12, 72, 0
12, 31085, Note_on_c, 12, 72, 106
12, 31135, Note_on_c, 12, 72, 0
12, 31145, Note_on_c, 12, 72, 106
12, 31195, Note_on_c, 12, 72, 0
12, 31205, Note_on_c, 12, 72, 106
12, 31255, Note_on_c, 12, 72, 0
12, 31265, Note_on_c, 12, 72, 106
12, 31315, Note_on_c, 12, 72, 0
12, 31325, Note_on_c, 12, 71, 106
12, 31325, Control_c, 12, 11, 107
12, 31342, Control_c, 12, 11, 104
12, 31360, Control_c, 12, 11, 101
12, 31375, Note_on_c, 12, 71, 0
12, 31378, Control_c, 12, 11, 98
12, 31385, Note_on_c, 12, 71, 106
12, 31396, Control_c, 12, 11, 95
12, 31414, Control_c, 12, 11, 92
12, 31432, Control_c, 12, 11, 89
12, 31435, Note_on_c, 12, 71, 0
12, 31445, Note_on_c, 12, 71, 106
12, 31495, Note_on_c, 12, 71, 0
12, 31505, Note_on_c, 12, 71, 106
12, 31555, Note_on_c, 12, 71, 0
12, 31565, Note_on_c, 12, 71, 106
12, 31615, Note_on_c, 12, 71, 0
12, 31625, Note_on_c, 12, 71, 106
12, 31675, Note_on_c, 12, 71, 0
12, 31685, Note_on_c, 12, 64, 106
12, 31735, Note_on_c, 12, 64, 0
12, 31745, Note_on_c, 12, 64, 106
12, 31795, Note_on_c, 12, 64, 0
12, 31805, Note_on_c, 12, 66, 106
12, 31855, Note_on_c, 12, 66, 0
12, 31865, Note_on_c, 12, 66, 106
12, 31915, Note_on_c, 12, 66, 0
12, 31925, Note_on_c, 12, 62, 106
12, 31975, Note_on_c, 12, 62, 0
12, 31985, Note_on_c, 12, 62, 106
12, 32035, Note_on_c, 12, 62, 0
12, 32045, Note_on_c, 12, 67, 106
12, 32095, Note_on_c, 12, 67, 0
12, 32105, Note_on_c, 12, 67, 106
12, 32155, Note_on_c, 12, 67, 0
12, 32165, Note_on_c, 12, 64, 106
12, 32285, Note_on_c, 12, 64, 0
12, 32405, Note_on_c, 12, 61, 106
12, 32525, Note_on_c, 12, 61, 0
12, 32645, Note_on_c, 12, 62, 106
12, 32675, Note_on_c, 12, 62, 0
12, 32705, Note_on_c, 12, 50, 106
12, 32735, Note_on_c, 12, 50, 0
12, 32765, Note_on_c, 12, 54, 106
12, 32795, Note_on_c, 12, 54, 0
12, 32825, Note_on_c, 12, 55, 106
12, 32855, Note_on_c, 12, 55, 0
12, 32885, Note_on_c, 12, 57, 106
12, 32915, Note_on_c, 12, 57, 0
12, 32945, Note_on_c, 12, 59, 106
12, 32975, Note_on_c, 12, 59, 0
12, 33005, Control_c, 12, 11, 107
12, 33005, Note_on_c, 12, 60, 106
12, 33023, Control_c, 12, 11, 104
12, 33041, Control_c, 12, 11, 101
12, 33059, Control_c, 12, 11, 98
12, 33077, Control_c, 12, 11, 95
12, 33095, Control_c, 12, 11, 92
12, 33113, Control_c, 12, 11, 89
12, 33185, Note_on_c, 12, 60, 0
12, 33185, Note_on_c, 12, 59, 106
12, 33235, Note_on_c, 12, 59, 0
12, 33245, Note_on_c, 12, 62, 106
12, 33275, Note_on_c, 12, 62, 0
12, 33305, Note_on_c, 12, 59, 106
12, 33335, Note_on_c, 12, 59, 0
12, 33365, Note_on_c, 12, 55, 106
12, 33395, Note_on_c, 12, 55, 0
12, 33425, Note_on_c, 12, 55, 106
12, 33455, Note_on_c, 12, 55, 0
12, 33485, Note_on_c, 12, 59, 106
12, 33515, Note_on_c, 12, 59, 0
12, 33545, Note_on_c, 12, 55, 106
12, 33575, Note_on_c, 12, 55, 0
12, 33605, Note_on_c, 12, 62, 106
12, 33625, Note_on_c, 12, 62, 0
12, 33635, Note_on_c, 12, 69, 106
12, 33655, Note_on_c, 12, 69, 0
12, 33665, Note_on_c, 12, 69, 106
12, 33685, Note_on_c, 12, 69, 0
12, 33695, Note_on_c, 12, 69, 106
12, 33715, Note_on_c, 12, 69, 0
12, 33725, Note_on_c, 12, 69, 106
12, 33745, Note_on_c, 12, 69, 0
12, 33755, Note_on_c, 12, 69, 106
12, 33775, Note_on_c, 12, 69, 0
12, 33785, Note_on_c, 12, 69, 106
12, 33805, Note_on_c, 12, 69, 0
12, 33815, Note_on_c, 12, 69, 106
12, 33835, Note_on_c, 12, 69, 0
12, 33845, Note_on_c, 12, 69, 106
12, 33865, Note_on_c, 12, 69, 0
12, 33875, Note_on_c, 12, 69, 106
12, 33895, Note_on_c, 12, 69, 0
12, 33905, Note_on_c, 12, 69, 106
12, 33925, Note_on_c, 12, 69, 0
12, 33935, Note_on_c, 12, 69, 106
12, 33955, Note_on_c, 12, 69, 0
12, 33965, Note_on_c, 12, 69, 106
12, 33985, Note_on_c, 12, 69, 0
12, 33995, Note_on_c, 12, 69, 106
12, 34015, Note_on_c, 12, 69, 0
12, 34025, Note_on_c, 12, 69, 106
12, 34045, Note_on_c, 12, 69, 0
12, 34055, Note_on_c, 12, 69, 106
12, 34075, Note_on_c, 12, 69, 0
12, 34085, Note_on_c, 12, 71, 106
12, 34105, Note_on_c, 12, 71, 0
12, 34115, Note_on_c, 12, 71, 106
12, 34135, Note_on_c, 12, 71, 0
12, 34145, Note_on_c, 12, 71, 106
12, 34165, Note_on_c, 12, 71, 0
12, 34175, Note_on_c, 12, 71, 106
12, 34195, Note_on_c, 12, 71, 0
12, 34205, Note_on_c, 12, 71, 106
12, 34225, Note_on_c, 12, 71, 0
12, 34235, Note_on_c, 12, 71, 106
12, 34255, Note_on_c, 12, 71, 0
12, 34265, Note_on_c, 12, 71, 106
12, 34285, Note_on_c, 12, 71, 0
12, 34295, Note_on_c, 12, 71, 106
12, 34315, Note_on_c, 12, 71, 0
12, 34325, Note_on_c, 12, 71, 106
12, 34345, Note_on_c, 12, 71, 0
12, 34355, Note_on_c, 12, 71, 106
12, 34375, Note_on_c, 12, 71, 0
12, 34385, Note_on_c, 12, 71, 106
12, 34405, Note_on_c, 12, 71, 0
12, 34415, Note_on_c, 12, 71, 106
12, 34435, Note_on_c, 12, 71, 0
12, 34445, Note_on_c, 12, 71, 106
12, 34465, Note_on_c, 12, 71, 0
12, 34475, Note_on_c, 12, 71, 106
12, 34495, Note_on_c, 12, 71, 0
12, 34505, Note_on_c, 12, 71, 106
12, 34525, Note_on_c, 12, 71, 0
12, 34535, Note_on_c, 12, 71, 106
12, 34555, Note_on_c, 12, 71, 0
12, 34565, Note_on_c, 12, 69, 91
12, 34685, Note_on_c, 12, 69, 0
12, 35045, Note_on_c, 12, 50, 106
12, 35045, Control_c, 12, 11, 47
12, 35095, Note_on_c, 12, 50, 0
12, 35105, Note_on_c, 12, 50, 106
12, 35155, Note_on_c, 12, 50, 0
12, 35165, Note_on_c, 12, 50, 106
12, 35215, Note_on_c, 12, 50, 0
12, 35225, Note_on_c, 12, 50, 106
12, 35275, Note_on_c, 12, 50, 0
12, 35285, Note_on_c, 12, 50, 106
12, 35335, Note_on_c, 12, 50, 0
12, 35345, Note_on_c, 12, 50, 106
12, 35395, Note_on_c, 12, 50, 0
12, 35405, Note_on_c, 12, 50, 106
12, 35455, Note_on_c, 12, 50, 0
12, 35465, Note_on_c, 12, 50, 106
12, 35515, Note_on_c, 12, 50, 0
12, 35525, Note_on_c, 12, 50, 106
12, 35575, Note_on_c, 12, 50, 0
12, 35585, Note_on_c, 12, 50, 106
12, 35635, Note_on_c, 12, 50, 0
12, 35645, Note_on_c, 12, 50, 106
12, 35695, Note_on_c, 12, 50, 0
12, 35705, Note_on_c, 12, 50, 106
12, 35755, Note_on_c, 12, 50, 0
12, 35765, Note_on_c, 12, 50, 106
12, 35815, Note_on_c, 12, 50, 0
12, 35825, Note_on_c, 12, 50, 106
12, 35875, Note_on_c, 12, 50, 0
12, 35885, Note_on_c, 12, 50, 106
12, 35935, Note_on_c, 12, 50, 0
12, 35945, Note_on_c, 12, 50, 106
12, 35995, Note_on_c, 12, 50, 0
12, 36005, Note_on_c, 12, 50, 106
12, 36055, Note_on_c, 12, 50, 0
12, 36065, Note_on_c, 12, 62, 106
12, 36115, Note_on_c, 12, 62, 0
12, 36125, Note_on_c, 12, 50, 106
12, 36175, Note_on_c, 12, 50, 0
12, 36185, Note_on_c, 12, 50, 106
12, 36235, Note_on_c, 12, 50, 0
12, 36245, Note_on_c, 12, 50, 106
12, 36295, Note_on_c, 12, 50, 0
12, 36305, Note_on_c, 12, 50, 106
12, 36355, Note_on_c, 12, 50, 0
12, 36365, Note_on_c, 12, 50, 106
12, 36415, Note_on_c, 12, 50, 0
12, 36425, Note_on_c, 12, 50, 106
12, 36475, Note_on_c, 12, 50, 0
12, 36485, Note_on_c, 12, 50, 106
12, 36535, Note_on_c, 12, 50, 0
12, 36545, Note_on_c, 12, 50, 106
12, 36595, Note_on_c, 12, 50, 0
12, 36605, Note_on_c, 12, 50, 106
12, 36655, Note_on_c, 12, 50, 0
12, 36665, Note_on_c, 12, 50, 106
12, 36715, Note_on_c, 12, 50, 0
12, 36725, Note_on_c, 12, 50, 106
12, 36775, Note_on_c, 12, 50, 0
12, 36785, Note_on_c, 12, 50, 106
12, 36835, Note_on_c, 12, 50, 0
12, 36845, Note_on_c, 12, 50, 106
12, 36895, Note_on_c, 12, 50, 0
12, 36905, Note_on_c, 12, 50, 106
12, 36955, Note_on_c, 12, 50, 0
12, 36965, Note_on_c, 12, 50, 106
12, 37015, Note_on_c, 12, 50, 0
12, 37025, Note_on_c, 12, 62, 106
12, 37075, Note_on_c, 12, 62, 0
12, 37085, Note_on_c, 12, 62, 106
12, 37135, Note_on_c, 12, 62, 0
12, 37145, Note_on_c, 12, 62, 106
12, 37195, Note_on_c, 12, 62, 0
12, 37205, Note_on_c, 12, 62, 106
12, 37205, Control_c, 12, 11, 47
12, 37235, Control_c, 12, 11, 48
12, 37255, Note_on_c, 12, 62, 0
12, 37265, Control_c, 12, 11, 49
12, 37265, Note_on_c, 12, 62, 106
12, 37295, Control_c, 12, 11, 50
12, 37315, Note_on_c, 12, 62, 0
12, 37325, Note_on_c, 12, 62, 106
12, 37325, Control_c, 12, 11, 51
12, 37355, Control_c, 12, 11, 52
12, 37375, Note_on_c, 12, 62, 0
12, 37385, Control_c, 12, 11, 53
12, 37385, Note_on_c, 12, 62, 106
12, 37415, Control_c, 12, 11, 54
12, 37435, Note_on_c, 12, 62, 0
12, 37445, Note_on_c, 12, 62, 106
12, 37445, Control_c, 12, 11, 55
12, 37475, Control_c, 12, 11, 56
12, 37495, Note_on_c, 12, 62, 0
12, 37505, Control_c, 12, 11, 57
12, 37505, Note_on_c, 12, 55, 106
12, 37535, Control_c, 12, 11, 58
12, 37555, Note_on_c, 12, 55, 0
12, 37565, Note_on_c, 12, 67, 106
12, 37565, Control_c, 12, 11, 59
12, 37595, Control_c, 12, 11, 60
12, 37615, Note_on_c, 12, 67, 0
12, 37625, Control_c, 12, 11, 61
12, 37625, Note_on_c, 12, 67, 106
12, 37655, Control_c, 12, 11, 62
12, 37675, Note_on_c, 12, 67, 0
12, 37685, Note_on_c, 12, 67, 106
12, 37685, Control_c, 12, 11, 63
12, 37715, Control_c, 12, 11, 64
12, 37735, Note_on_c, 12, 67, 0
12, 37745, Control_c, 12, 11, 65
12, 37745, Note_on_c, 12, 67, 106
12, 37775, Control_c, 12, 11, 66
12, 37795, Note_on_c, 12, 67, 0
12, 37805, Note_on_c, 12, 67, 106
12, 37805, Control_c, 12, 11, 67
12, 37835, Control_c, 12, 11, 68
12, 37855, Note_on_c, 12, 67, 0
12, 37865, Control_c, 12, 11, 69
12, 37865, Note_on_c, 12, 67, 106
12, 37895, Control_c, 12, 11, 70
12, 37915, Note_on_c, 12, 67, 0
12, 37925, Note_on_c, 12, 67, 106
12, 37925, Control_c, 12, 11, 71
12, 37955, Control_c, 12, 11, 72
12, 37975, Note_on_c, 12, 67, 0
12, 37985, Control_c, 12, 11, 73
12, 37985, Note_on_c, 12, 67, 106
12, 38015, Control_c, 12, 11, 74
12, 38035, Note_on_c, 12, 67, 0
12, 38045, Note_on_c, 12, 67, 106
12, 38045, Control_c, 12, 11, 75
12, 38075, Control_c, 12, 11, 76
12, 38095, Note_on_c, 12, 67, 0
12, 38105, Control_c, 12, 11, 77
12, 38105, Note_on_c, 12, 67, 106
12, 38135, Control_c, 12, 11, 78
12, 38155, Note_on_c, 12, 67, 0
12, 38165, Note_on_c, 12, 67, 106
12, 38165, Control_c, 12, 11, 79
12, 38195, Control_c, 12, 11, 80
12, 38215, Note_on_c, 12, 67, 0
12, 38225, Control_c, 12, 11, 81
12, 38225, Note_on_c, 12, 67, 106
12, 38255, Control_c, 12, 11, 82
12, 38275, Note_on_c, 12, 67, 0
12, 38285, Note_on_c, 12, 67, 106
12, 38285, Control_c, 12, 11, 83
12, 38315, Control_c, 12, 11, 84
12, 38335, Note_on_c, 12, 67, 0
12, 38345, Note_on_c, 12, 67, 106
12, 38345, Control_c, 12, 11, 85
12, 38375, Control_c, 12, 11, 86
12, 38395, Note_on_c, 12, 67, 0
12, 38405, Control_c, 12, 11, 92
12, 38405, Note_on_c, 12, 68, 106
12, 38409, Control_c, 12, 11, 95
12, 38413, Control_c, 12, 11, 98
12, 38417, Control_c, 12, 11, 101
12, 38431, Control_c, 12, 11, 98
12, 38440, Control_c, 12, 11, 95
12, 38449, Control_c, 12, 11, 92
12, 38458, Control_c, 12, 11, 89
12, 38625, Note_on_c, 12, 68, 0
12, 38645, Note_on_c, 12, 53, 106
12, 38645, Control_c, 12, 11, 92
12, 38653, Control_c, 12, 11, 95
12, 38662, Control_c, 12, 11, 98
12, 38671, Control_c, 12, 11, 101
12, 38686, Control_c, 12, 11, 100
12, 38695, Note_on_c, 12, 53, 0
12, 38704, Control_c, 12, 11, 97
12, 38705, Note_on_c, 12, 65, 106
12, 38722, Control_c, 12, 11, 94
12, 38740, Control_c, 12, 11, 91
12, 38755, Note_on_c, 12, 65, 0
12, 38758, Control_c, 12, 11, 88
12, 38765, Note_on_c, 12, 65, 106
12, 38815, Note_on_c, 12, 65, 0
12, 38825, Note_on_c, 12, 65, 106
12, 38875, Note_on_c, 12, 65, 0
12, 38885, Control_c, 12, 11, 92
12, 38885, Note_on_c, 12, 52, 106
12, 38893, Control_c, 12, 11, 95
12, 38902, Control_c, 12, 11, 98
12, 38911, Control_c, 12, 11, 101
12, 38926, Control_c, 12, 11, 100
12, 38935, Note_on_c, 12, 52, 0
12, 38944, Control_c, 12, 11, 97
12, 38945, Note_on_c, 12, 64, 106
12, 38962, Control_c, 12, 11, 94
12, 38980, Control_c, 12, 11, 91
12, 38995, Note_on_c, 12, 64, 0
12, 38998, Control_c, 12, 11, 88
12, 39005, Note_on_c, 12, 64, 106
12, 39055, Note_on_c, 12, 64, 0
12, 39065, Note_on_c, 12, 64, 106
12, 39115, Note_on_c, 12, 64, 0
12, 39125, Control_c, 12, 11, 92
12, 39125, Note_on_c, 12, 52, 106
12, 39133, Control_c, 12, 11, 95
12, 39142, Control_c, 12, 11, 98
12, 39151, Control_c, 12, 11, 101
12, 39154, Control_c, 12, 10, 102
12, 39166, Control_c, 12, 11, 100
12, 39175, Note_on_c, 12, 52, 0
12, 39184, Control_c, 12, 11, 97
12, 39185, Note_on_c, 12, 64, 106
12, 39202, Control_c, 12, 11, 94
12, 39220, Control_c, 12, 11, 91
12, 39235, Note_on_c, 12, 64, 0
12, 39238, Control_c, 12, 11, 88
12, 39245, Note_on_c, 12, 64, 106
12, 39295, Note_on_c, 12, 64, 0
12, 39305, Note_on_c, 12, 64, 106
12, 39355, Note_on_c, 12, 64, 0
12, 39365, Note_on_c, 12, 66, 106
12, 39385, Note_on_c, 12, 66, 0
12, 39395, Note_on_c, 12, 66, 106
12, 39415, Note_on_c, 12, 66, 0
12, 39425, Note_on_c, 12, 66, 106
12, 39445, Note_on_c, 12, 66, 0
12, 39455, Note_on_c, 12, 66, 106
12, 39475, Note_on_c, 12, 66, 0
12, 39485, Control_c, 12, 11, 102
12, 39485, Note_on_c, 12, 66, 106
12, 39505, Note_on_c, 12, 66, 0
12, 39515, Note_on_c, 12, 66, 106
12, 39535, Note_on_c, 12, 66, 0
12, 39545, Note_on_c, 12, 66, 106
12, 39565, Note_on_c, 12, 66, 0
12, 39575, Note_on_c, 12, 66, 106
12, 39595, Note_on_c, 12, 66, 0
12, 39605, Note_on_c, 12, 66, 106
12, 39625, Note_on_c, 12, 66, 0
12, 39635, Note_on_c, 12, 66, 106
12, 39655, Note_on_c, 12, 66, 0
12, 39665, Note_on_c, 12, 66, 106
12, 39685, Note_on_c, 12, 66, 0
12, 39695, Note_on_c, 12, 66, 106
12, 39715, Note_on_c, 12, 66, 0
12, 39725, Note_on_c, 12, 66, 106
12, 39745, Note_on_c, 12, 66, 0
12, 39755, Note_on_c, 12, 66, 106
12, 39775, Note_on_c, 12, 66, 0
12, 39785, Note_on_c, 12, 66, 106
12, 39805, Note_on_c, 12, 66, 0
12, 39815, Note_on_c, 12, 66, 106
12, 39835, Note_on_c, 12, 66, 0
12, 39845, Note_on_c, 12, 67, 106
12, 39865, Note_on_c, 12, 67, 0
12, 39875, Note_on_c, 12, 67, 106
12, 39895, Note_on_c, 12, 67, 0
12, 39905, Note_on_c, 12, 67, 106
12, 39925, Note_on_c, 12, 67, 0
12, 39935, Note_on_c, 12, 67, 106
12, 39955, Note_on_c, 12, 67, 0
12, 39965, Note_on_c, 12, 64, 106
12, 39985, Note_on_c, 12, 64, 0
12, 39995, Note_on_c, 12, 64, 106
12, 40015, Note_on_c, 12, 64, 0
12, 40025, Note_on_c, 12, 64, 106
12, 40045, Note_on_c, 12, 64, 0
12, 40055, Note_on_c, 12, 64, 106
12, 40075, Note_on_c, 12, 64, 0
12, 40085, Note_on_c, 12, 62, 106
12, 40105, Note_on_c, 12, 62, 0
12, 40115, Note_on_c, 12, 62, 106
12, 40135, Note_on_c, 12, 62, 0
12, 40145, Note_on_c, 12, 62, 106
12, 40165, Note_on_c, 12, 62, 0
12, 40175, Note_on_c, 12, 62, 106
12, 40195, Note_on_c, 12, 62, 0
12, 40205, Note_on_c, 12, 60, 106
12, 40225, Note_on_c, 12, 60, 0
12, 40235, Note_on_c, 12, 60, 106
12, 40255, Note_on_c, 12, 60, 0
12, 40265, Note_on_c, 12, 60, 106
12, 40285, Note_on_c, 12, 60, 0
12, 40295, Note_on_c, 12, 60, 106
12, 40315, Note_on_c, 12, 60, 0
12, 40325, Note_on_c, 12, 59, 106
12, 40445, Note_on_c, 12, 59, 0
12, 40625, Control_c, 12, 11, 122
12, 40625, Note_on_c, 12, 72, 106
12, 40633, Control_c, 12, 11, 119
12, 40642, Control_c, 12, 11, 116
12, 40651, Control_c, 12, 11, 113
12, 40660, Control_c, 12, 11, 110
12, 40669, Control_c, 12, 11, 107
12, 40678, Control_c, 12, 11, 104
12, 40725, Note_on_c, 12, 72, 0
12, 40745, Note_on_c, 12, 72, 106
12, 40790, Note_on_c, 12, 72, 0
12, 40805, Note_on_c, 12, 74, 106
12, 40865, Note_on_c, 12, 74, 0
12, 41105, Note_on_c, 12, 62, 106
12, 41105, Control_c, 12, 11, 122
12, 41113, Control_c, 12, 11, 119
12, 41122, Control_c, 12, 11, 116
12, 41131, Control_c, 12, 11, 113
12, 41140, Control_c, 12, 11, 110
12, 41149, Control_c, 12, 11, 107
12, 41158, Control_c, 12, 11, 104
12, 41205, Note_on_c, 12, 62, 0
12, 41225, Note_on_c, 12, 62, 106
12, 41270, Note_on_c, 12, 62, 0
12, 41285, Note_on_c, 12, 67, 106
12, 41345, Note_on_c, 12, 67, 0
12, 41585, Note_on_c, 12, 72, 106
12, 41585, Control_c, 12, 11, 122
12, 41593, Control_c, 12, 11, 119
12, 41602, Control_c, 12, 11, 116
12, 41611, Control_c, 12, 11, 113
12, 41620, Control_c, 12, 11, 110
12, 41629, Control_c, 12, 11, 107
12, 41638, Control_c, 12, 11, 104
12, 41685, Note_on_c, 12, 72, 0
12, 41705, Note_on_c, 12, 72, 106
12, 41750, Note_on_c, 12, 72, 0
12, 41765, Note_on_c, 12, 74, 106
12, 41825, Note_on_c, 12, 74, 0
12, 42065, Control_c, 12, 11, 122
12, 42065, Note_on_c, 12, 62, 106
12, 42073, Control_c, 12, 11, 119
12, 42082, Control_c, 12, 11, 116
12, 42091, Control_c, 12, 11, 113
12, 42100, Control_c, 12, 11, 110
12, 42109, Control_c, 12, 11, 107
12, 42118, Control_c, 12, 11, 104
12, 42165, Note_on_c, 12, 62, 0
12, 42185, Note_on_c, 12, 62, 106
12, 42230, Note_on_c, 12, 62, 0
12, 42245, Control_c, 12, 11, 122
12, 42245, Note_on_c, 12, 67, 106
12, 42262, Control_c, 12, 11, 119
12, 42280, Control_c, 12, 11, 116
12, 42298, Control_c, 12, 11, 113
12, 42316, Control_c, 12, 11, 110
12, 42334, Control_c, 12, 11, 107
12, 42352, Control_c, 12, 11, 104
12, 42590, Note_on_c, 12, 67, 0
12, 42605, Note_on_c, 12, 67, 106
12, 42635, Note_on_c, 12, 67, 0
12, 42665, Note_on_c, 12, 67, 106
12, 42695, Note_on_c, 12, 67, 0
12, 42725, Control_c, 12, 11, 122
12, 42725, Note_on_c, 12, 69, 106
12, 42742, Control_c, 12, 11, 119
12, 42760, Control_c, 12, 11, 116
12, 42778, Control_c, 12, 11, 113
12, 42796, Control_c, 12, 11, 110
12, 42814, Control_c, 12, 11, 107
12, 42832, Control_c, 12, 11, 104
12, 43070, Note_on_c, 12, 69, 0
12, 43085, Note_on_c, 12, 69, 106
12, 43115, Note_on_c, 12, 69, 0
12, 43145, Note_on_c, 12, 69, 106
12, 43175, Note_on_c, 12, 69, 0
12, 43205, Control_c, 12, 11, 122
12, 43205, Note_on_c, 12, 71, 106
12, 43222, Control_c, 12, 11, 119
12, 43240, Control_c, 12, 11, 116
12, 43258, Control_c, 12, 11, 113
12, 43276, Control_c, 12, 11, 110
12, 43294, Control_c, 12, 11, 107
12, 43312, Control_c, 12, 11, 104
12, 43550, Note_on_c, 12, 71, 0
12, 43565, Note_on_c, 12, 71, 106
12, 43595, Note_on_c, 12, 71, 0
12, 43625, Note_on_c, 12, 71, 106
12, 43655, Note_on_c, 12, 71, 0
12, 43685, Note_on_c, 12, 72, 106
12, 43685, Control_c, 12, 11, 122
12, 43702, Control_c, 12, 11, 119
12, 43720, Control_c, 12, 11, 116
12, 43738, Control_c, 12, 11, 113
12, 43756, Control_c, 12, 11, 110
12, 43774, Control_c, 12, 11, 107
12, 43792, Control_c, 12, 11, 104
12, 44030, Note_on_c, 12, 72, 0
12, 44045, Note_on_c, 12, 64, 106
12, 44075, Note_on_c, 12, 64, 0
12, 44105, Note_on_c, 12, 64, 106
12, 44135, Note_on_c, 12, 64, 0
12, 44165, Control_c, 12, 11, 122
12, 44165, Note_on_c, 12, 65, 106
12, 44182, Control_c, 12, 11, 119
12, 44200, Control_c, 12, 11, 116
12, 44218, Control_c, 12, 11, 113
12, 44236, Control_c, 12, 11, 110
12, 44254, Control_c, 12, 11, 107
12, 44272, Control_c, 12, 11, 104
12, 44345, Note_on_c, 12, 65, 0
12, 44345, Note_on_c, 12, 64, 106
12, 44390, Note_on_c, 12, 64, 0
12, 44405, Note_on_c, 12, 65, 106
12, 44405, Control_c, 12, 11, 122
12, 44422, Control_c, 12, 11, 119
12, 44440, Control_c, 12, 11, 116
12, 44458, Control_c, 12, 11, 113
12, 44476, Control_c, 12, 11, 110
12, 44494, Control_c, 12, 11, 107
12, 44512, Control_c, 12, 11, 104
12, 44585, Note_on_c, 12, 65, 0
12, 44585, Note_on_c, 12, 64, 106
12, 44630, Note_on_c, 12, 64, 0
12, 44645, Note_on_c, 12, 65, 96
12, 44720, Control_c, 12, 11, 102
12, 44723, Control_c, 12, 11, 99
12, 44726, Control_c, 12, 11, 96
12, 44729, Control_c, 12, 11, 93
12, 44733, Control_c, 12, 11, 90
12, 44736, Control_c, 12, 11, 87
12, 44739, Control_c, 12, 11, 84
12, 44743, Control_c, 12, 11, 81
12, 44746, Control_c, 12, 11, 78
12, 44749, Control_c, 12, 11, 75
12, 44753, Control_c, 12, 11, 72
12, 44756, Control_c, 12, 11, 69
12, 44759, Control_c, 12, 11, 66
12, 44762, Control_c, 12, 11, 63
12, 44765, Note_on_c, 12, 65, 0
12, 45125, Note_on_c, 12, 70, 106
12, 45125, Control_c, 12, 11, 37
12, 45143, Control_c, 12, 11, 40
12, 45161, Control_c, 12, 11, 43
12, 45179, Control_c, 12, 11, 46
12, 45680, Control_c, 12, 11, 47
12, 45688, Control_c, 12, 11, 44
12, 45697, Control_c, 12, 11, 41
12, 45706, Control_c, 12, 11, 38
12, 45715, Control_c, 12, 11, 35
12, 45724, Control_c, 12, 11, 32
12, 45725, Note_on_c, 12, 70, 0
12, 46085, Note_on_c, 12, 69, 106
12, 46085, Control_c, 12, 11, 37
12, 46103, Control_c, 12, 11, 40
12, 46121, Control_c, 12, 11, 43
12, 46139, Control_c, 12, 11, 46
12, 46265, Note_on_c, 12, 69, 0
12, 46265, Note_on_c, 12, 68, 106
12, 46325, Note_on_c, 12, 68, 0
12, 46325, Note_on_c, 12, 69, 106
12, 46505, Note_on_c, 12, 69, 0
12, 46505, Note_on_c, 12, 68, 106
12, 46565, Note_on_c, 12, 68, 0
12, 46565, Note_on_c, 12, 69, 106
12, 46640, Control_c, 12, 11, 47
12, 46648, Control_c, 12, 11, 44
12, 46657, Control_c, 12, 11, 41
12, 46666, Control_c, 12, 11, 38
12, 46675, Control_c, 12, 11, 35
12, 46684, Control_c, 12, 11, 32
12, 46685, Note_on_c, 12, 69, 0
12, 47045, Control_c, 12, 11, 37
12, 47045, Note_on_c, 12, 60, 106
12, 47063, Control_c, 12, 11, 40
12, 47081, Control_c, 12, 11, 43
12, 47099, Control_c, 12, 11, 46
12, 47165, Note_on_c, 12, 60, 0
12, 47525, Note_on_c, 12, 65, 106
12, 47525, Control_c, 12, 11, 102
12, 47545, Note_on_c, 12, 65, 0
12, 47555, Note_on_c, 12, 65, 106
12, 47575, Note_on_c, 12, 65, 0
12, 47585, Note_on_c, 12, 65, 106
12, 47605, Note_on_c, 12, 65, 0
12, 47615, Note_on_c, 12, 65, 106
12, 47635, Note_on_c, 12, 65, 0
12, 47645, Note_on_c, 12, 65, 106
12, 47665, Note_on_c, 12, 65, 0
12, 47675, Note_on_c, 12, 65, 106
12, 47695, Note_on_c, 12, 65, 0
12, 47705, Note_on_c, 12, 65, 106
12, 47725, Note_on_c, 12, 65, 0
12, 47735, Note_on_c, 12, 65, 106
12, 47755, Note_on_c, 12, 65, 0
12, 47765, Note_on_c, 12, 65, 106
12, 47785, Note_on_c, 12, 65, 0
12, 47795, Note_on_c, 12, 65, 106
12, 47815, Note_on_c, 12, 65, 0
12, 47825, Note_on_c, 12, 65, 106
12, 47845, Note_on_c, 12, 65, 0
12, 47855, Note_on_c, 12, 65, 106
12, 47875, Note_on_c, 12, 65, 0
12, 47885, Note_on_c, 12, 65, 106
12, 47905, Note_on_c, 12, 65, 0
12, 47915, Note_on_c, 12, 65, 106
12, 47935, Note_on_c, 12, 65, 0
12, 47945, Note_on_c, 12, 65, 106
12, 47965, Note_on_c, 12, 65, 0
12, 47975, Note_on_c, 12, 65, 106
12, 47995, Note_on_c, 12, 65, 0
12, 48005, Note_on_c, 12, 60, 106
12, 48025, Note_on_c, 12, 60, 0
12, 48035, Note_on_c, 12, 60, 106
12, 48055, Note_on_c, 12, 60, 0
12, 48065, Note_on_c, 12, 60, 106
12, 48085, Note_on_c, 12, 60, 0
12, 48095, Note_on_c, 12, 60, 106
12, 48115, Note_on_c, 12, 60, 0
12, 48125, Note_on_c, 12, 60, 106
12, 48145, Note_on_c, 12, 60, 0
12, 48155, Note_on_c, 12, 60, 106
12, 48175, Note_on_c, 12, 60, 0
12, 48185, Note_on_c, 12, 60, 106
12, 48205, Note_on_c, 12, 60, 0
12, 48215, Note_on_c, 12, 60, 106
12, 48235, Note_on_c, 12, 60, 0
12, 48245, Note_on_c, 12, 60, 106
12, 48265, Note_on_c, 12, 60, 0
12, 48275, Note_on_c, 12, 60, 106
12, 48295, Note_on_c, 12, 60, 0
12, 48305, Note_on_c, 12, 60, 106
12, 48325, Note_on_c, 12, 60, 0
12, 48335, Note_on_c, 12, 60, 106
12, 48355, Note_on_c, 12, 60, 0
12, 48365, Note_on_c, 12, 60, 106
12, 48385, Note_on_c, 12, 60, 0
12, 48395, Note_on_c, 12, 60, 106
12, 48415, Note_on_c, 12, 60, 0
12, 48425, Note_on_c, 12, 60, 106
12, 48445, Note_on_c, 12, 60, 0
12, 48455, Note_on_c, 12, 60, 106
12, 48475, Note_on_c, 12, 60, 0
12, 48485, Note_on_c, 12, 65, 106
12, 48505, Note_on_c, 12, 65, 0
12, 48515, Note_on_c, 12, 65, 106
12, 48535, Note_on_c, 12, 65, 0
12, 48545, Note_on_c, 12, 65, 106
12, 48565, Note_on_c, 12, 65, 0
12, 48575, Note_on_c, 12, 65, 106
12, 48595, Note_on_c, 12, 65, 0
12, 48605, Note_on_c, 12, 65, 106
12, 48625, Note_on_c, 12, 65, 0
12, 48635, Note_on_c, 12, 65, 106
12, 48655, Note_on_c, 12, 65, 0
12, 48665, Note_on_c, 12, 65, 106
12, 48685, Note_on_c, 12, 65, 0
12, 48695, Note_on_c, 12, 65, 106
12, 48715, Note_on_c, 12, 65, 0
12, 48725, Note_on_c, 12, 65, 106
12, 48745, Note_on_c, 12, 65, 0
12, 48755, Note_on_c, 12, 65, 106
12, 48775, Note_on_c, 12, 65, 0
12, 48785, Note_on_c, 12, 65, 106
12, 48805, Note_on_c, 12, 65, 0
12, 48815, Note_on_c, 12, 65, 106
12, 48835, Note_on_c, 12, 65, 0
12, 48845, Note_on_c, 12, 65, 106
12, 48865, Note_on_c, 12, 65, 0
12, 48875, Note_on_c, 12, 65, 106
12, 48895, Note_on_c, 12, 65, 0
12, 48905, Note_on_c, 12, 65, 106
12, 48925, Note_on_c, 12, 65, 0
12, 48935, Note_on_c, 12, 65, 106
12, 48955, Note_on_c, 12, 65, 0
12, 48965, Note_on_c, 12, 60, 106
12, 48985, Note_on_c, 12, 60, 0
12, 48995, Note_on_c, 12, 60, 106
12, 49015, Note_on_c, 12, 60, 0
12, 49025, Note_on_c, 12, 60, 106
12, 49045, Note_on_c, 12, 60, 0
12, 49055, Note_on_c, 12, 60, 106
12, 49075, Note_on_c, 12, 60, 0
12, 49085, Note_on_c, 12, 60, 106
12, 49105, Note_on_c, 12, 60, 0
12, 49115, Note_on_c, 12, 60, 106
12, 49135, Note_on_c, 12, 60, 0
12, 49145, Note_on_c, 12, 60, 106
12, 49165, Note_on_c, 12, 60, 0
12, 49175, Note_on_c, 12, 60, 106
12, 49195, Note_on_c, 12, 60, 0
12, 49205, Note_on_c, 12, 60, 106
12, 49225, Note_on_c, 12, 60, 0
12, 49235, Note_on_c, 12, 60, 106
12, 49255, Note_on_c, 12, 60, 0
12, 49265, Note_on_c, 12, 60, 106
12, 49285, Note_on_c, 12, 60, 0
12, 49295, Note_on_c, 12, 60, 106
12, 49315, Note_on_c, 12, 60, 0
12, 49325, Note_on_c, 12, 60, 106
12, 49345, Note_on_c, 12, 60, 0
12, 49355, Note_on_c, 12, 60, 106
12, 49375, Note_on_c, 12, 60, 0
12, 49385, Note_on_c, 12, 60, 106
12, 49405, Note_on_c, 12, 60, 0
12, 49415, Note_on_c, 12, 60, 106
12, 49435, Note_on_c, 12, 60, 0
12, 49445, Note_on_c, 12, 58, 106
12, 49445, Control_c, 12, 11, 87
12, 49454, Control_c, 12, 11, 84
12, 49463, Control_c, 12, 11, 81
12, 49472, Control_c, 12, 11, 78
12, 49481, Control_c, 12, 11, 75
12, 49490, Note_on_c, 12, 58, 0
12, 49490, Control_c, 12, 11, 72
12, 49499, Control_c, 12, 11, 69
12, 49505, Note_on_c, 12, 62, 106
12, 49508, Control_c, 12, 11, 66
12, 49517, Control_c, 12, 11, 63
12, 49526, Control_c, 12, 11, 60
12, 49535, Control_c, 12, 11, 57
12, 49544, Control_c, 12, 11, 54
12, 49550, Note_on_c, 12, 62, 0
12, 49553, Control_c, 12, 11, 51
12, 49562, Control_c, 12, 11, 48
12, 49565, Note_on_c, 12, 62, 106
12, 49610, Note_on_c, 12, 62, 0
12, 49625, Note_on_c, 12, 62, 106
12, 49670, Note_on_c, 12, 62, 0
12, 49685, Note_on_c, 12, 62, 106
12, 49730, Note_on_c, 12, 62, 0
12, 49745, Note_on_c, 12, 62, 106
12, 49790, Note_on_c, 12, 62, 0
12, 49805, Note_on_c, 12, 62, 106
12, 49850, Note_on_c, 12, 62, 0
12, 49865, Note_on_c, 12, 62, 106
12, 49910, Note_on_c, 12, 62, 0
12, 49925, Note_on_c, 12, 63, 106
12, 49970, Note_on_c, 12, 63, 0
12, 49985, Note_on_c, 12, 63, 106
12, 50030, Note_on_c, 12, 63, 0
12, 50045, Note_on_c, 12, 63, 106
12, 50090, Note_on_c, 12, 63, 0
12, 50105, Note_on_c, 12, 63, 106
12, 50150, Note_on_c, 12, 63, 0
12, 50165, Note_on_c, 12, 63, 106
12, 50210, Note_on_c, 12, 63, 0
12, 50225, Note_on_c, 12, 63, 106
12, 50270, Note_on_c, 12, 63, 0
12, 50285, Note_on_c, 12, 63, 106
12, 50330, Note_on_c, 12, 63, 0
12, 50345, Note_on_c, 12, 63, 106
12, 50390, Note_on_c, 12, 63, 0
12, 50405, Note_on_c, 12, 65, 106
12, 50510, Note_on_c, 12, 65, 0
12, 50525, Note_on_c, 12, 62, 106
12, 50645, Note_on_c, 12, 62, 0
12, 50645, Note_on_c, 12, 63, 106
12, 50765, Note_on_c, 12, 63, 0
12, 50765, Note_on_c, 12, 64, 106
12, 50885, Note_on_c, 12, 64, 0
12, 50885, Note_on_c, 12, 65, 106
12, 51005, Note_on_c, 12, 65, 0
12, 51365, Note_on_c, 12, 60, 106
12, 51485, Note_on_c, 12, 60, 0
12, 51785, Note_on_c, 12, 64, 106
12, 51845, Note_on_c, 12, 64, 0
12, 51845, Note_on_c, 12, 65, 106
12, 51965, Note_on_c, 12, 65, 0
12, 51995, Note_on_c, 12, 53, 106
12, 52010, Note_on_c, 12, 53, 0
12, 52025, Note_on_c, 12, 55, 106
12, 52040, Note_on_c, 12, 55, 0
12, 52055, Note_on_c, 12, 57, 106
12, 52070, Note_on_c, 12, 57, 0
12, 52085, Note_on_c, 12, 58, 106
12, 52100, Note_on_c, 12, 58, 0
12, 52115, Note_on_c, 12, 60, 106
12, 52130, Note_on_c, 12, 60, 0
12, 52145, Note_on_c, 12, 62, 106
12, 52160, Note_on_c, 12, 62, 0
12, 52175, Note_on_c, 12, 64, 106
12, 52190, Note_on_c, 12, 64, 0
12, 52205, Note_on_c, 12, 65, 106
12, 52235, Note_on_c, 12, 65, 0
12, 52265, Note_on_c, 12, 65, 106
12, 52295, Note_on_c, 12, 65, 0
12, 52325, Note_on_c, 12, 67, 106
12, 52445, Note_on_c, 12, 67, 0
12, 52475, Note_on_c, 12, 55, 106
12, 52490, Note_on_c, 12, 55, 0
12, 52505, Note_on_c, 12, 57, 106
12, 52520, Note_on_c, 12, 57, 0
12, 52535, Note_on_c, 12, 58, 106
12, 52550, Note_on_c, 12, 58, 0
12, 52565, Note_on_c, 12, 60, 106
12, 52580, Note_on_c, 12, 60, 0
12, 52595, Note_on_c, 12, 62, 106
12, 52610, Note_on_c, 12, 62, 0
12, 52625, Note_on_c, 12, 64, 106
12, 52640, Note_on_c, 12, 64, 0
12, 52655, Note_on_c, 12, 65, 106
12, 52670, Note_on_c, 12, 65, 0
12, 52685, Note_on_c, 12, 67, 106
12, 52715, Note_on_c, 12, 67, 0
12, 52745, Note_on_c, 12, 67, 106
12, 52775, Note_on_c, 12, 67, 0
12, 52805, Note_on_c, 12, 69, 106
12, 52865, Note_on_c, 12, 69, 0
12, 52925, Note_on_c, 12, 64, 106
12, 52985, Note_on_c, 12, 64, 0
12, 53045, Note_on_c, 12, 61, 106
12, 53105, Note_on_c, 12, 61, 0
12, 53165, Note_on_c, 12, 57, 106
12, 53225, Note_on_c, 12, 57, 0
12, 53285, Note_on_c, 12, 74, 106
12, 53345, Note_on_c, 12, 74, 0
12, 53405, Note_on_c, 12, 69, 106
12, 53465, Note_on_c, 12, 69, 0
12, 53525, Note_on_c, 12, 66, 106
12, 53585, Note_on_c, 12, 66, 0
12, 53645, Note_on_c, 12, 62, 106
12, 53705, Note_on_c, 12, 62, 0
12, 53765, Note_on_c, 12, 67, 106
12, 53825, Note_on_c, 12, 67, 0
12, 53885, Note_on_c, 12, 62, 106
12, 53945, Note_on_c, 12, 62, 0
12, 54005, Note_on_c, 12, 59, 106
12, 54065, Note_on_c, 12, 59, 0
12, 54125, Note_on_c, 12, 55, 106
12, 54185, Note_on_c, 12, 55, 0
12, 54245, Note_on_c, 12, 60, 106
12, 54305, Note_on_c, 12, 60, 0
12, 54365, Note_on_c, 12, 67, 106
12, 54425, Note_on_c, 12, 67, 0
12, 54485, Note_on_c, 12, 64, 106
12, 54545, Note_on_c, 12, 64, 0
12, 54605, Note_on_c, 12, 60, 106
12, 54665, Note_on_c, 12, 60, 0
12, 54725, Control_c, 12, 11, 47
12, 54725, Note_on_c, 12, 65, 106
12, 54749, Control_c, 12, 11, 49
12, 54773, Control_c, 12, 11, 51
12, 54775, Note_on_c, 12, 65, 0
12, 54785, Note_on_c, 12, 57, 106
12, 54797, Control_c, 12, 11, 53
12, 54821, Control_c, 12, 11, 55
12, 54835, Note_on_c, 12, 57, 0
12, 54845, Note_on_c, 12, 69, 106
12, 54845, Control_c, 12, 11, 57
12, 54869, Control_c, 12, 11, 59
12, 54893, Control_c, 12, 11, 61
12, 54895, Note_on_c, 12, 69, 0
12, 54905, Note_on_c, 12, 69, 106
12, 54917, Control_c, 12, 11, 63
12, 54941, Control_c, 12, 11, 65
12, 54955, Note_on_c, 12, 69, 0
12, 54965, Control_c, 12, 11, 67
12, 54965, Note_on_c, 12, 69, 106
12, 54989, Control_c, 12, 11, 69
12, 55013, Control_c, 12, 11, 71
12, 55015, Note_on_c, 12, 69, 0
12, 55025, Note_on_c, 12, 69, 106
12, 55037, Control_c, 12, 11, 73
12, 55061, Control_c, 12, 11, 75
12, 55075, Note_on_c, 12, 69, 0
12, 55085, Note_on_c, 12, 69, 106
12, 55085, Control_c, 12, 11, 77
12, 55109, Control_c, 12, 11, 79
12, 55133, Control_c, 12, 11, 81
12, 55135, Note_on_c, 12, 69, 0
12, 55145, Note_on_c, 12, 69, 106
12, 55157, Control_c, 12, 11, 83
12, 55181, Control_c, 12, 11, 85
12, 55195, Note_on_c, 12, 69, 0
12, 55205, Control_c, 12, 11, 87
12, 55205, Note_on_c, 12, 62, 106
12, 55225, Note_on_c, 12, 62, 0
12, 55235, Note_on_c, 12, 71, 106
12, 55255, Note_on_c, 12, 71, 0
12, 55265, Note_on_c, 12, 71, 106
12, 55285, Note_on_c, 12, 71, 0
12, 55295, Note_on_c, 12, 71, 106
12, 55315, Note_on_c, 12, 71, 0
12, 55325, Note_on_c, 12, 71, 106
12, 55345, Note_on_c, 12, 71, 0
12, 55355, Note_on_c, 12, 71, 106
12, 55375, Note_on_c, 12, 71, 0
12, 55385, Note_on_c, 12, 71, 106
12, 55405, Note_on_c, 12, 71, 0
12, 55415, Note_on_c, 12, 71, 106
12, 55435, Note_on_c, 12, 71, 0
12, 55445, Note_on_c, 12, 71, 106
12, 55465, Note_on_c, 12, 71, 0
12, 55475, Note_on_c, 12, 71, 106
12, 55495, Note_on_c, 12, 71, 0
12, 55505, Note_on_c, 12, 71, 106
12, 55525, Note_on_c, 12, 71, 0
12, 55535, Note_on_c, 12, 71, 106
12, 55555, Note_on_c, 12, 71, 0
12, 55565, Note_on_c, 12, 71, 106
12, 55585, Note_on_c, 12, 71, 0
12, 55595, Note_on_c, 12, 71, 106
12, 55615, Note_on_c, 12, 71, 0
12, 55625, Note_on_c, 12, 71, 106
12, 55645, Note_on_c, 12, 71, 0
12, 55655, Note_on_c, 12, 71, 106
12, 55675, Note_on_c, 12, 71, 0
12, 55685, Note_on_c, 12, 72, 106
12, 55705, Note_on_c, 12, 72, 0
12, 55715, Note_on_c, 12, 72, 106
12, 55735, Note_on_c, 12, 72, 0
12, 55745, Note_on_c, 12, 72, 106
12, 55765, Note_on_c, 12, 72, 0
12, 55775, Note_on_c, 12, 72, 106
12, 55795, Note_on_c, 12, 72, 0
12, 55805, Note_on_c, 12, 72, 106
12, 55825, Note_on_c, 12, 72, 0
12, 55835, Note_on_c, 12, 72, 106
12, 55855, Note_on_c, 12, 72, 0
12, 55865, Note_on_c, 12, 72, 106
12, 55885, Note_on_c, 12, 72, 0
12, 55895, Note_on_c, 12, 72, 106
12, 55915, Note_on_c, 12, 72, 0
12, 55925, Note_on_c, 12, 72, 106
12, 55945, Note_on_c, 12, 72, 0
12, 55955, Note_on_c, 12, 72, 106
12, 55975, Note_on_c, 12, 72, 0
12, 55985, Note_on_c, 12, 72, 106
12, 56005, Note_on_c, 12, 72, 0
12, 56015, Note_on_c, 12, 72, 106
12, 56035, Note_on_c, 12, 72, 0
12, 56045, Note_on_c, 12, 72, 106
12, 56065, Note_on_c, 12, 72, 0
12, 56075, Note_on_c, 12, 72, 106
12, 56095, Note_on_c, 12, 72, 0
12, 56105, Note_on_c, 12, 72, 106
12, 56125, Note_on_c, 12, 72, 0
12, 56135, Note_on_c, 12, 72, 106
12, 56155, Note_on_c, 12, 72, 0
12, 56165, Control_c, 12, 11, 102
12, 56165, Note_on_c, 12, 71, 106
12, 56195, Note_on_c, 12, 71, 0
12, 56225, Note_on_c, 12, 55, 106
12, 56255, Note_on_c, 12, 55, 0
12, 56285, Note_on_c, 12, 59, 106
12, 56315, Note_on_c, 12, 59, 0
12, 56345, Note_on_c, 12, 60, 106
12, 56375, Note_on_c, 12, 60, 0
12, 56405, Note_on_c, 12, 62, 106
12, 56435, Note_on_c, 12, 62, 0
12, 56465, Note_on_c, 12, 63, 106
12, 56495, Note_on_c, 12, 63, 0
12, 56525, Note_on_c, 12, 65, 106
12, 56525, Control_c, 12, 11, 122
12, 56543, Control_c, 12, 11, 119
12, 56561, Control_c, 12, 11, 116
12, 56579, Control_c, 12, 11, 113
12, 56597, Control_c, 12, 11, 110
12, 56615, Control_c, 12, 11, 107
12, 56633, Control_c, 12, 11, 104
12, 56705, Note_on_c, 12, 65, 0
12, 56705, Note_on_c, 12, 63, 106
12, 56735, Note_on_c, 12, 63, 0
12, 56765, Note_on_c, 12, 67, 106
12, 56795, Note_on_c, 12, 67, 0
12, 56825, Note_on_c, 12, 63, 106
12, 56855, Note_on_c, 12, 63, 0
12, 56885, Note_on_c, 12, 60, 106
12, 56915, Note_on_c, 12, 60, 0
12, 56945, Note_on_c, 12, 60, 106
12, 56975, Note_on_c, 12, 60, 0
12, 57005, Note_on_c, 12, 63, 106
12, 57035, Note_on_c, 12, 63, 0
12, 57065, Note_on_c, 12, 60, 106
12, 57095, Note_on_c, 12, 60, 0
12, 57125, Note_on_c, 12, 55, 106
12, 57230, Note_on_c, 12, 55, 0
12, 57245, Note_on_c, 12, 67, 106
12, 57245, Control_c, 12, 11, 122
12, 57263, Control_c, 12, 11, 119
12, 57281, Control_c, 12, 11, 116
12, 57299, Control_c, 12, 11, 113
12, 57317, Control_c, 12, 11, 110
12, 57335, Control_c, 12, 11, 107
12, 57353, Control_c, 12, 11, 104
12, 57505, Note_on_c, 12, 67, 0
12, 57515, Note_on_c, 12, 55, 106
12, 57530, Note_on_c, 12, 55, 0
12, 57545, Note_on_c, 12, 57, 106
12, 57560, Note_on_c, 12, 57, 0
12, 57575, Note_on_c, 12, 59, 106
12, 57590, Note_on_c, 12, 59, 0
12, 57605, Note_on_c, 12, 60, 106
12, 57620, Note_on_c, 12, 60, 0
12, 57635, Note_on_c, 12, 62, 106
12, 57650, Note_on_c, 12, 62, 0
12, 57665, Note_on_c, 12, 64, 106
12, 57680, Note_on_c, 12, 64, 0
12, 57695, Note_on_c, 12, 66, 106
12, 57710, Note_on_c, 12, 66, 0
12, 57725, Note_on_c, 12, 67, 106
12, 57755, Note_on_c, 12, 67, 0
12, 57785, Note_on_c, 12, 67, 106
12, 57815, Note_on_c, 12, 67, 0
12, 57845, Control_c, 12, 11, 122
12, 57845, Note_on_c, 12, 67, 106
12, 57863, Control_c, 12, 11, 119
12, 57881, Control_c, 12, 11, 116
12, 57899, Control_c, 12, 11, 113
12, 57917, Control_c, 12, 11, 110
12, 57935, Control_c, 12, 11, 107
12, 57953, Control_c, 12, 11, 104
12, 57985, Note_on_c, 12, 67, 0
12, 57995, Note_on_c, 12, 59, 106
12, 58010, Note_on_c, 12, 59, 0
12, 58025, Note_on_c, 12, 60, 106
12, 58040, Note_on_c, 12, 60, 0
12, 58055, Note_on_c, 12, 62, 106
12, 58070, Note_on_c, 12, 62, 0
12, 58085, Note_on_c, 12, 64, 106
12, 58100, Note_on_c, 12, 64, 0
12, 58115, Note_on_c, 12, 66, 106
12, 58130, Note_on_c, 12, 66, 0
12, 58145, Note_on_c, 12, 67, 106
12, 58160, Note_on_c, 12, 67, 0
12, 58175, Note_on_c, 12, 69, 106
12, 58190, Note_on_c, 12, 69, 0
12, 58205, Note_on_c, 12, 71, 106
12, 58235, Note_on_c, 12, 71, 0
12, 58265, Note_on_c, 12, 71, 106
12, 58295, Note_on_c, 12, 71, 0
12, 58325, Control_c, 12, 11, 122
12, 58325, Note_on_c, 12, 71, 106
12, 58343, Control_c, 12, 11, 119
12, 58361, Control_c, 12, 11, 116
12, 58379, Control_c, 12, 11, 113
12, 58397, Control_c, 12, 11, 110
12, 58415, Control_c, 12, 11, 107
12, 58433, Control_c, 12, 11, 104
12, 58465, Note_on_c, 12, 71, 0
12, 58475, Note_on_c, 12, 62, 106
12, 58490, Note_on_c, 12, 62, 0
12, 58505, Note_on_c, 12, 64, 106
12, 58520, Note_on_c, 12, 64, 0
12, 58535, Note_on_c, 12, 66, 106
12, 58550, Note_on_c, 12, 66, 0
12, 58565, Note_on_c, 12, 67, 106
12, 58580, Note_on_c, 12, 67, 0
12, 58595, Note_on_c, 12, 69, 106
12, 58610, Note_on_c, 12, 69, 0
12, 58625, Note_on_c, 12, 71, 106
12, 58640, Note_on_c, 12, 71, 0
12, 58655, Note_on_c, 12, 72, 106
12, 58670, Note_on_c, 12, 72, 0
12, 58685, Note_on_c, 12, 74, 106
12, 58715, Note_on_c, 12, 74, 0
12, 58745, Note_on_c, 12, 74, 106
12, 58775, Note_on_c, 12, 74, 0
12, 58805, Note_on_c, 12, 74, 106
12, 58835, Note_on_c, 12, 74, 0
12, 58865, Note_on_c, 12, 72, 106
12, 58895, Note_on_c, 12, 72, 0
12, 58925, Note_on_c, 12, 71, 106
12, 58955, Note_on_c, 12, 71, 0
12, 58985, Note_on_c, 12, 69, 106
12, 59015, Note_on_c, 12, 69, 0
12, 59045, Note_on_c, 12, 67, 106
12, 59105, Note_on_c, 12, 67, 0
12, 59105, Note_on_c, 12, 66, 106
12, 59165, Note_on_c, 12, 66, 0
12, 59165, Note_on_c, 12, 67, 106
12, 59225, Note_on_c, 12, 67, 0
12, 59225, Note_on_c, 12, 66, 106
12, 59275, Note_on_c, 12, 66, 0
12, 59285, Note_on_c, 12, 67, 106
12, 59345, Note_on_c, 12, 67, 0
12, 59345, Note_on_c, 12, 66, 106
12, 59405, Note_on_c, 12, 66, 0
12, 59405, Note_on_c, 12, 67, 106
12, 59465, Note_on_c, 12, 67, 0
12, 59465, Note_on_c, 12, 66, 106
12, 59515, Note_on_c, 12, 66, 0
12, 59525, Note_on_c, 12, 67, 106
12, 59585, Note_on_c, 12, 67, 0
12, 59585, Note_on_c, 12, 66, 106
12, 59645, Note_on_c, 12, 66, 0
12, 59645, Note_on_c, 12, 67, 106
12, 59705, Note_on_c, 12, 67, 0
12, 59705, Note_on_c, 12, 66, 106
12, 59755, Note_on_c, 12, 66, 0
12, 59765, Note_on_c, 12, 67, 106
12, 59825, Note_on_c, 12, 67, 0
12, 59825, Note_on_c, 12, 66, 106
12, 59885, Note_on_c, 12, 66, 0
12, 59885, Note_on_c, 12, 67, 106
12, 59945, Note_on_c, 12, 67, 0
12, 59945, Note_on_c, 12, 66, 106
12, 59995, Note_on_c, 12, 66, 0
12, 60005, Note_on_c, 12, 67, 106
12, 60125, Note_on_c, 12, 67, 0
12, 60965, Control_c, 12, 11, 47
12, 60965, Note_on_c, 12, 60, 106
12, 60985, Note_on_c, 12, 60, 0
12, 60995, Note_on_c, 12, 60, 106
12, 61015, Note_on_c, 12, 60, 0
12, 61025, Note_on_c, 12, 55, 106
12, 61045, Note_on_c, 12, 55, 0
12, 61055, Note_on_c, 12, 55, 106
12, 61075, Note_on_c, 12, 55, 0
12, 61085, Note_on_c, 12, 60, 106
12, 61105, Note_on_c, 12, 60, 0
12, 61115, Note_on_c, 12, 60, 106
12, 61135, Note_on_c, 12, 60, 0
12, 61145, Note_on_c, 12, 55, 106
12, 61165, Note_on_c, 12, 55, 0
12, 61175, Note_on_c, 12, 55, 106
12, 61195, Note_on_c, 12, 55, 0
12, 61205, Note_on_c, 12, 59, 106
12, 61225, Note_on_c, 12, 59, 0
12, 61235, Note_on_c, 12, 59, 106
12, 61255, Note_on_c, 12, 59, 0
12, 61265, Note_on_c, 12, 55, 106
12, 61285, Note_on_c, 12, 55, 0
12, 61295, Note_on_c, 12, 55, 106
12, 61315, Note_on_c, 12, 55, 0
12, 61325, Note_on_c, 12, 59, 106
12, 61345, Note_on_c, 12, 59, 0
12, 61355, Note_on_c, 12, 59, 106
12, 61375, Note_on_c, 12, 59, 0
12, 61385, Note_on_c, 12, 55, 106
12, 61405, Note_on_c, 12, 55, 0
12, 61415, Note_on_c, 12, 55, 106
12, 61435, Note_on_c, 12, 55, 0
12, 61445, Note_on_c, 12, 60, 106
12, 61465, Note_on_c, 12, 60, 0
12, 61475, Note_on_c, 12, 60, 106
12, 61495, Note_on_c, 12, 60, 0
12, 61505, Note_on_c, 12, 55, 106
12, 61525, Note_on_c, 12, 55, 0
12, 61535, Note_on_c, 12, 55, 106
12, 61555, Note_on_c, 12, 55, 0
12, 61565, Note_on_c, 12, 60, 106
12, 61585, Note_on_c, 12, 60, 0
12, 61595, Note_on_c, 12, 60, 106
12, 61615, Note_on_c, 12, 60, 0
12, 61625, Note_on_c, 12, 55, 106
12, 61645, Note_on_c, 12, 55, 0
12, 61655, Note_on_c, 12, 55, 106
12, 61675, Note_on_c, 12, 55, 0
12, 61685, Note_on_c, 12, 60, 106
12, 61705, Note_on_c, 12, 60, 0
12, 61715, Note_on_c, 12, 60, 106
12, 61735, Note_on_c, 12, 60, 0
12, 61745, Note_on_c, 12, 55, 106
12, 61765, Note_on_c, 12, 55, 0
12, 61775, Note_on_c, 12, 55, 106
12, 61795, Note_on_c, 12, 55, 0
12, 61805, Note_on_c, 12, 59, 106
12, 61825, Note_on_c, 12, 59, 0
12, 61835, Note_on_c, 12, 59, 106
12, 61855, Note_on_c, 12, 59, 0
12, 61865, Note_on_c, 12, 55, 106
12, 61885, Note_on_c, 12, 55, 0
12, 61895, Note_on_c, 12, 55, 106
12, 61915, Note_on_c, 12, 55, 0
12, 61925, Note_on_c, 12, 60, 106
12, 61945, Note_on_c, 12, 60, 0
12, 61955, Note_on_c, 12, 60, 106
12, 61975, Note_on_c, 12, 60, 0
12, 61985, Note_on_c, 12, 64, 106
12, 62005, Note_on_c, 12, 64, 0
12, 62015, Note_on_c, 12, 64, 106
12, 62035, Note_on_c, 12, 64, 0
12, 62045, Note_on_c, 12, 60, 106
12, 62065, Note_on_c, 12, 60, 0
12, 62075, Note_on_c, 12, 60, 106
12, 62095, Note_on_c, 12, 60, 0
12, 62105, Note_on_c, 12, 64, 106
12, 62125, Note_on_c, 12, 64, 0
12, 62135, Note_on_c, 12, 64, 106
12, 62155, Note_on_c, 12, 64, 0
12, 62165, Note_on_c, 12, 60, 106
12, 62185, Note_on_c, 12, 60, 0
12, 62195, Note_on_c, 12, 60, 106
12, 62215, Note_on_c, 12, 60, 0
12, 62225, Note_on_c, 12, 60, 106
12, 62245, Note_on_c, 12, 60, 0
12, 62255, Note_on_c, 12, 60, 106
12, 62275, Note_on_c, 12, 60, 0
12, 62285, Note_on_c, 12, 60, 106
12, 62305, Note_on_c, 12, 60, 0
12, 62315, Note_on_c, 12, 60, 106
12, 62335, Note_on_c, 12, 60, 0
12, 62345, Note_on_c, 12, 60, 106
12, 62365, Note_on_c, 12, 60, 0
12, 62375, Note_on_c, 12, 60, 106
12, 62395, Note_on_c, 12, 60, 0
12, 62405, Note_on_c, 12, 59, 91
12, 62525, Note_on_c, 12, 59, 0
12, 62705, Note_on_c, 12, 57, 106
12, 62735, Note_on_c, 12, 57, 0
12, 62765, Note_on_c, 12, 59, 106
12, 62795, Note_on_c, 12, 59, 0
12, 62825, Note_on_c, 12, 61, 106
12, 62855, Note_on_c, 12, 61, 0
12, 62885, Note_on_c, 12, 62, 106
12, 62915, Note_on_c, 12, 62, 0
12, 62945, Note_on_c, 12, 64, 106
12, 62975, Note_on_c, 12, 64, 0
12, 63005, Note_on_c, 12, 65, 106
12, 63035, Note_on_c, 12, 65, 0
12, 63185, Note_on_c, 12, 55, 106
12, 63215, Note_on_c, 12, 55, 0
12, 63245, Note_on_c, 12, 57, 106
12, 63275, Note_on_c, 12, 57, 0
12, 63305, Note_on_c, 12, 59, 106
12, 63335, Note_on_c, 12, 59, 0
12, 63365, Note_on_c, 12, 60, 106
12, 63395, Note_on_c, 12, 60, 0
12, 63425, Note_on_c, 12, 62, 106
12, 63455, Note_on_c, 12, 62, 0
12, 63485, Note_on_c, 12, 64, 106
12, 63515, Note_on_c, 12, 64, 0
12, 63665, Note_on_c, 12, 60, 106
12, 63695, Note_on_c, 12, 60, 0
12, 63725, Note_on_c, 12, 62, 106
12, 63755, Note_on_c, 12, 62, 0
12, 63785, Note_on_c, 12, 64, 106
12, 63815, Note_on_c, 12, 64, 0
12, 63845, Note_on_c, 12, 65, 106
12, 63905, Note_on_c, 12, 65, 0
12, 63965, Note_on_c, 12, 69, 106
12, 64025, Note_on_c, 12, 69, 0
12, 64085, Note_on_c, 12, 64, 106
12, 64145, Note_on_c, 12, 64, 0
12, 64205, Note_on_c, 12, 62, 106
12, 64265, Note_on_c, 12, 62, 0
12, 64325, Note_on_c, 12, 60, 106
12, 64385, Note_on_c, 12, 60, 0
12, 64565, Control_c, 12, 11, 47
12, 64565, Note_on_c, 12, 57, 106
12, 64589, Control_c, 12, 11, 48
12, 64613, Control_c, 12, 11, 49
12, 64637, Control_c, 12, 11, 50
12, 64661, Control_c, 12, 11, 51
12, 64685, Note_on_c, 12, 57, 0
12, 64685, Control_c, 12, 11, 52
12, 64709, Control_c, 12, 11, 53
12, 64733, Control_c, 12, 11, 54
12, 64757, Control_c, 12, 11, 55
12, 64781, Control_c, 12, 11, 56
12, 64805, Note_on_c, 12, 62, 106
12, 64805, Control_c, 12, 11, 57
12, 64829, Control_c, 12, 11, 58
12, 64853, Control_c, 12, 11, 59
12, 64877, Control_c, 12, 11, 60
12, 64901, Control_c, 12, 11, 61
12, 64925, Note_on_c, 12, 62, 0
12, 64925, Control_c, 12, 11, 62
12, 64949, Control_c, 12, 11, 63
12, 64973, Control_c, 12, 11, 64
12, 64997, Control_c, 12, 11, 65
12, 65021, Control_c, 12, 11, 66
12, 65045, Note_on_c, 12, 55, 106
12, 65045, Control_c, 12, 11, 67
12, 65069, Control_c, 12, 11, 68
12, 65093, Control_c, 12, 11, 69
12, 65117, Control_c, 12, 11, 70
12, 65141, Control_c, 12, 11, 71
12, 65165, Note_on_c, 12, 55, 0
12, 65165, Control_c, 12, 11, 72
12, 65189, Control_c, 12, 11, 73
12, 65213, Control_c, 12, 11, 74
12, 65237, Control_c, 12, 11, 75
12, 65261, Control_c, 12, 11, 76
12, 65285, Control_c, 12, 11, 77
12, 65285, Note_on_c, 12, 60, 106
12, 65309, Control_c, 12, 11, 78
12, 65333, Control_c, 12, 11, 79
12, 65357, Control_c, 12, 11, 80
12, 65381, Control_c, 12, 11, 81
12, 65405, Note_on_c, 12, 60, 0
12, 65405, Control_c, 12, 11, 82
12, 65429, Control_c, 12, 11, 83
12, 65453, Control_c, 12, 11, 84
12, 65477, Control_c, 12, 11, 85
12, 65501, Control_c, 12, 11, 86
12, 65525, Control_c, 12, 11, 87
12, 65585, Note_on_c, 12, 62, 106
12, 65615, Note_on_c, 12, 62, 0
12, 65645, Note_on_c, 12, 64, 106
12, 65675, Note_on_c, 12, 64, 0
12, 65705, Note_on_c, 12, 66, 106
12, 65735, Note_on_c, 12, 66, 0
12, 65765, Note_on_c, 12, 67, 106
12, 65795, Note_on_c, 12, 67, 0
12, 65825, Note_on_c, 12, 69, 106
12, 65855, Note_on_c, 12, 69, 0
12, 65885, Note_on_c, 12, 70, 106
12, 65915, Note_on_c, 12, 70, 0
12, 66065, Note_on_c, 12, 60, 106
12, 66095, Note_on_c, 12, 60, 0
12, 66125, Note_on_c, 12, 62, 106
12, 66155, Note_on_c, 12, 62, 0
12, 66185, Note_on_c, 12, 64, 106
12, 66215, Note_on_c, 12, 64, 0
12, 66245, Note_on_c, 12, 65, 106
12, 66275, Note_on_c, 12, 65, 0
12, 66305, Note_on_c, 12, 67, 106
12, 66335, Note_on_c, 12, 67, 0
12, 66365, Note_on_c, 12, 69, 106
12, 66395, Note_on_c, 12, 69, 0
12, 66545, Note_on_c, 12, 53, 106
12, 66575, Note_on_c, 12, 53, 0
12, 66605, Note_on_c, 12, 55, 106
12, 66635, Note_on_c, 12, 55, 0
12, 66665, Note_on_c, 12, 57, 106
12, 66695, Note_on_c, 12, 57, 0
12, 66725, Note_on_c, 12, 62, 106
12, 66775, Note_on_c, 12, 62, 0
12, 66785, Note_on_c, 12, 58, 106
12, 66835, Note_on_c, 12, 58, 0
12, 66845, Note_on_c, 12, 58, 106
12, 66895, Note_on_c, 12, 58, 0
12, 66905, Note_on_c, 12, 58, 106
12, 66955, Note_on_c, 12, 58, 0
12, 66965, Note_on_c, 12, 59, 106
12, 67015, Note_on_c, 12, 59, 0
12, 67025, Note_on_c, 12, 59, 106
12, 67075, Note_on_c, 12, 59, 0
12, 67085, Note_on_c, 12, 59, 106
12, 67135, Note_on_c, 12, 59, 0
12, 67145, Note_on_c, 12, 59, 106
12, 67195, Note_on_c, 12, 59, 0
12, 67205, Note_on_c, 12, 60, 91
12, 67325, Note_on_c, 12, 60, 0
12, 67685, Control_c, 12, 11, 47
12, 67685, Note_on_c, 12, 60, 106
12, 67735, Note_on_c, 12, 60, 0
12, 67745, Note_on_c, 12, 60, 106
12, 67795, Note_on_c, 12, 60, 0
12, 67805, Note_on_c, 12, 60, 106
12, 67855, Note_on_c, 12, 60, 0
12, 67865, Note_on_c, 12, 60, 106
12, 67915, Note_on_c, 12, 60, 0
12, 67925, Note_on_c, 12, 60, 106
12, 67975, Note_on_c, 12, 60, 0
12, 67985, Note_on_c, 12, 60, 106
12, 68035, Note_on_c, 12, 60, 0
12, 68045, Note_on_c, 12, 60, 106
12, 68095, Note_on_c, 12, 60, 0
12, 68105, Note_on_c, 12, 60, 106
12, 68155, Note_on_c, 12, 60, 0
12, 68165, Note_on_c, 12, 60, 106
12, 68215, Note_on_c, 12, 60, 0
12, 68225, Note_on_c, 12, 60, 106
12, 68275, Note_on_c, 12, 60, 0
12, 68285, Note_on_c, 12, 60, 106
12, 68335, Note_on_c, 12, 60, 0
12, 68345, Note_on_c, 12, 60, 106
12, 68395, Note_on_c, 12, 60, 0
12, 68405, Note_on_c, 12, 60, 106
12, 68455, Note_on_c, 12, 60, 0
12, 68465, Note_on_c, 12, 60, 106
12, 68515, Note_on_c, 12, 60, 0
12, 68525, Note_on_c, 12, 60, 106
12, 68575, Note_on_c, 12, 60, 0
12, 68585, Note_on_c, 12, 60, 106
12, 68635, Note_on_c, 12, 60, 0
12, 68645, Note_on_c, 12, 60, 106
12, 68705, Note_on_c, 12, 60, 0
12, 68705, Note_on_c, 12, 48, 106
12, 68755, Note_on_c, 12, 48, 0
12, 68765, Note_on_c, 12, 60, 106
12, 68795, Note_on_c, 12, 60, 0
12, 68825, Note_on_c, 12, 60, 106
12, 68855, Note_on_c, 12, 60, 0
12, 68885, Note_on_c, 12, 60, 106
12, 68935, Note_on_c, 12, 60, 0
12, 68945, Note_on_c, 12, 60, 106
12, 68995, Note_on_c, 12, 60, 0
12, 69005, Note_on_c, 12, 60, 106
12, 69055, Note_on_c, 12, 60, 0
12, 69065, Note_on_c, 12, 60, 106
12, 69115, Note_on_c, 12, 60, 0
12, 69125, Note_on_c, 12, 60, 106
12, 69175, Note_on_c, 12, 60, 0
12, 69185, Note_on_c, 12, 60, 106
12, 69235, Note_on_c, 12, 60, 0
12, 69245, Note_on_c, 12, 60, 106
12, 69295, Note_on_c, 12, 60, 0
12, 69305, Note_on_c, 12, 60, 106
12, 69355, Note_on_c, 12, 60, 0
12, 69365, Note_on_c, 12, 62, 106
12, 69415, Note_on_c, 12, 62, 0
12, 69425, Note_on_c, 12, 62, 106
12, 69475, Note_on_c, 12, 62, 0
12, 69485, Note_on_c, 12, 59, 106
12, 69535, Note_on_c, 12, 59, 0
12, 69545, Note_on_c, 12, 59, 106
12, 69595, Note_on_c, 12, 59, 0
12, 69605, Note_on_c, 12, 55, 106
12, 69665, Note_on_c, 12, 55, 0
12, 69665, Note_on_c, 12, 67, 106
12, 69715, Note_on_c, 12, 67, 0
12, 69725, Note_on_c, 12, 67, 106
12, 69755, Note_on_c, 12, 67, 0
12, 69785, Note_on_c, 12, 67, 106
12, 69815, Note_on_c, 12, 67, 0
12, 69845, Note_on_c, 12, 67, 106
12, 69895, Note_on_c, 12, 67, 0
12, 69905, Note_on_c, 12, 67, 106
12, 69955, Note_on_c, 12, 67, 0
12, 69965, Note_on_c, 12, 67, 106
12, 70015, Note_on_c, 12, 67, 0
12, 70025, Note_on_c, 12, 67, 106
12, 70075, Note_on_c, 12, 67, 0
12, 70085, Note_on_c, 12, 67, 106
12, 70135, Note_on_c, 12, 67, 0
12, 70145, Note_on_c, 12, 67, 106
12, 70195, Note_on_c, 12, 67, 0
12, 70205, Note_on_c, 12, 67, 106
12, 70255, Note_on_c, 12, 67, 0
12, 70265, Note_on_c, 12, 67, 106
12, 70315, Note_on_c, 12, 67, 0
12, 70325, Note_on_c, 12, 67, 106
12, 70375, Note_on_c, 12, 67, 0
12, 70385, Note_on_c, 12, 67, 106
12, 70435, Note_on_c, 12, 67, 0
12, 70445, Note_on_c, 12, 67, 106
12, 70495, Note_on_c, 12, 67, 0
12, 70505, Note_on_c, 12, 67, 106
12, 70555, Note_on_c, 12, 67, 0
12, 70565, Note_on_c, 12, 67, 106
12, 70565, Control_c, 12, 11, 47
12, 70601, Control_c, 12, 11, 48
12, 70625, Note_on_c, 12, 67, 0
12, 70625, Note_on_c, 12, 55, 106
12, 70637, Control_c, 12, 11, 49
12, 70673, Control_c, 12, 11, 50
12, 70675, Note_on_c, 12, 55, 0
12, 70685, Note_on_c, 12, 67, 106
12, 70709, Control_c, 12, 11, 51
12, 70715, Note_on_c, 12, 67, 0
12, 70745, Control_c, 12, 11, 52
12, 70745, Note_on_c, 12, 67, 106
12, 70775, Note_on_c, 12, 67, 0
12, 70781, Control_c, 12, 11, 53
12, 70805, Note_on_c, 12, 67, 106
12, 70817, Control_c, 12, 11, 54
12, 70853, Control_c, 12, 11, 55
12, 70855, Note_on_c, 12, 67, 0
12, 70865, Note_on_c, 12, 67, 106
12, 70889, Control_c, 12, 11, 56
12, 70915, Note_on_c, 12, 67, 0
12, 70925, Control_c, 12, 11, 57
12, 70925, Note_on_c, 12, 67, 106
12, 70961, Control_c, 12, 11, 58
12, 70975, Note_on_c, 12, 67, 0
12, 70985, Note_on_c, 12, 67, 106
12, 70997, Control_c, 12, 11, 59
12, 71033, Control_c, 12, 11, 60
12, 71035, Note_on_c, 12, 67, 0
12, 71045, Note_on_c, 12, 67, 106
12, 71069, Control_c, 12, 11, 61
12, 71095, Note_on_c, 12, 67, 0
12, 71105, Control_c, 12, 11, 62
12, 71105, Note_on_c, 12, 60, 106
12, 71141, Control_c, 12, 11, 63
12, 71155, Note_on_c, 12, 60, 0
12, 71165, Note_on_c, 12, 60, 106
12, 71177, Control_c, 12, 11, 64
12, 71213, Control_c, 12, 11, 65
12, 71215, Note_on_c, 12, 60, 0
12, 71225, Note_on_c, 12, 60, 106
12, 71249, Control_c, 12, 11, 66
12, 71275, Note_on_c, 12, 60, 0
12, 71285, Control_c, 12, 11, 67
12, 71285, Note_on_c, 12, 60, 106
12, 71321, Control_c, 12, 11, 68
12, 71335, Note_on_c, 12, 60, 0
12, 71345, Note_on_c, 12, 60, 106
12, 71357, Control_c, 12, 11, 69
12, 71393, Control_c, 12, 11, 70
12, 71395, Note_on_c, 12, 60, 0
12, 71405, Note_on_c, 12, 60, 106
12, 71429, Control_c, 12, 11, 71
12, 71455, Note_on_c, 12, 60, 0
12, 71465, Note_on_c, 12, 60, 106
12, 71465, Control_c, 12, 11, 72
12, 71501, Control_c, 12, 11, 73
12, 71515, Note_on_c, 12, 60, 0
12, 71525, Note_on_c, 12, 60, 106
12, 71537, Control_c, 12, 11, 74
12, 71573, Control_c, 12, 11, 75
12, 71575, Note_on_c, 12, 60, 0
12, 71585, Note_on_c, 12, 60, 106
12, 71609, Control_c, 12, 11, 76
12, 71635, Note_on_c, 12, 60, 0
12, 71645, Note_on_c, 12, 60, 106
12, 71645, Control_c, 12, 11, 77
12, 71681, Control_c, 12, 11, 78
12, 71695, Note_on_c, 12, 60, 0
12, 71705, Note_on_c, 12, 60, 106
12, 71717, Control_c, 12, 11, 79
12, 71753, Control_c, 12, 11, 80
12, 71755, Note_on_c, 12, 60, 0
12, 71765, Note_on_c, 12, 60, 106
12, 71789, Control_c, 12, 11, 81
12, 71815, Note_on_c, 12, 60, 0
12, 71825, Note_on_c, 12, 60, 106
12, 71825, Control_c, 12, 11, 82
12, 71861, Control_c, 12, 11, 83
12, 71875, Note_on_c, 12, 60, 0
12, 71885, Note_on_c, 12, 60, 106
12, 71897, Control_c, 12, 11, 84
12, 71933, Control_c, 12, 11, 85
12, 71935, Note_on_c, 12, 60, 0
12, 71945, Note_on_c, 12, 60, 106
12, 71969, Control_c, 12, 11, 86
12, 71995, Note_on_c, 12, 60, 0
12, 72005, Note_on_c, 12, 61, 106
12, 72005, Control_c, 12, 11, 92
12, 72009, Control_c, 12, 11, 95
12, 72013, Control_c, 12, 11, 98
12, 72017, Control_c, 12, 11, 101
12, 72031, Control_c, 12, 11, 98
12, 72040, Control_c, 12, 11, 95
12, 72049, Control_c, 12, 11, 92
12, 72058, Control_c, 12, 11, 89
12, 72225, Note_on_c, 12, 61, 0
12, 72235, Control_c, 12, 11, 92
12, 72245, Note_on_c, 12, 64, 106
12, 72246, Control_c, 12, 11, 95
12, 72258, Control_c, 12, 11, 98
12, 72270, Control_c, 12, 11, 101
12, 72286, Control_c, 12, 11, 100
12, 72304, Control_c, 12, 11, 97
12, 72322, Control_c, 12, 11, 94
12, 72340, Control_c, 12, 11, 91
12, 72358, Control_c, 12, 11, 88
12, 72465, Note_on_c, 12, 64, 0
12, 72485, Control_c, 12, 11, 92
12, 72485, Note_on_c, 12, 54, 106
12, 72493, Control_c, 12, 11, 95
12, 72502, Control_c, 12, 11, 98
12, 72511, Control_c, 12, 11, 101
12, 72526, Control_c, 12, 11, 100
12, 72535, Note_on_c, 12, 54, 0
12, 72544, Control_c, 12, 11, 97
12, 72545, Note_on_c, 12, 66, 106
12, 72562, Control_c, 12, 11, 94
12, 72580, Control_c, 12, 11, 91
12, 72595, Note_on_c, 12, 66, 0
12, 72598, Control_c, 12, 11, 88
12, 72605, Note_on_c, 12, 66, 106
12, 72655, Note_on_c, 12, 66, 0
12, 72665, Note_on_c, 12, 66, 106
12, 72715, Note_on_c, 12, 66, 0
12, 72725, Note_on_c, 12, 53, 106
12, 72725, Control_c, 12, 11, 92
12, 72733, Control_c, 12, 11, 95
12, 72742, Control_c, 12, 11, 98
12, 72751, Control_c, 12, 11, 101
12, 72766, Control_c, 12, 11, 100
12, 72775, Note_on_c, 12, 53, 0
12, 72784, Control_c, 12, 11, 97
12, 72785, Note_on_c, 12, 65, 106
12, 72802, Control_c, 12, 11, 94
12, 72820, Control_c, 12, 11, 91
12, 72835, Note_on_c, 12, 65, 0
12, 72838, Control_c, 12, 11, 88
12, 72845, Note_on_c, 12, 65, 106
12, 72895, Note_on_c, 12, 65, 0
12, 72905, Note_on_c, 12, 65, 106
12, 72955, Note_on_c, 12, 65, 0
12, 72965, Note_on_c, 12, 64, 106
12, 72985, Note_on_c, 12, 64, 0
12, 72995, Note_on_c, 12, 59, 106
12, 73015, Note_on_c, 12, 59, 0
12, 73025, Note_on_c, 12, 59, 106
12, 73045, Note_on_c, 12, 59, 0
12, 73055, Note_on_c, 12, 59, 106
12, 73075, Note_on_c, 12, 59, 0
12, 73085, Note_on_c, 12, 59, 106
12, 73085, Control_c, 12, 11, 102
12, 73105, Note_on_c, 12, 59, 0
12, 73115, Note_on_c, 12, 59, 106
12, 73135, Note_on_c, 12, 59, 0
12, 73145, Note_on_c, 12, 59, 106
12, 73165, Note_on_c, 12, 59, 0
12, 73175, Note_on_c, 12, 59, 106
12, 73195, Note_on_c, 12, 59, 0
12, 73205, Note_on_c, 12, 59, 106
12, 73225, Note_on_c, 12, 59, 0
12, 73235, Note_on_c, 12, 59, 106
12, 73255, Note_on_c, 12, 59, 0
12, 73265, Note_on_c, 12, 59, 106
12, 73285, Note_on_c, 12, 59, 0
12, 73295, Note_on_c, 12, 59, 106
12, 73315, Note_on_c, 12, 59, 0
12, 73325, Note_on_c, 12, 71, 106
12, 73345, Note_on_c, 12, 71, 0
12, 73355, Note_on_c, 12, 71, 106
12, 73375, Note_on_c, 12, 71, 0
12, 73385, Note_on_c, 12, 71, 106
12, 73405, Note_on_c, 12, 71, 0
12, 73415, Note_on_c, 12, 71, 106
12, 73435, Note_on_c, 12, 71, 0
12, 73445, Note_on_c, 12, 72, 106
12, 73465, Note_on_c, 12, 72, 0
12, 73475, Note_on_c, 12, 72, 106
12, 73495, Note_on_c, 12, 72, 0
12, 73505, Note_on_c, 12, 72, 106
12, 73525, Note_on_c, 12, 72, 0
12, 73535, Note_on_c, 12, 72, 106
12, 73555, Note_on_c, 12, 72, 0
12, 73565, Note_on_c, 12, 69, 106
12, 73585, Note_on_c, 12, 69, 0
12, 73595, Note_on_c, 12, 69, 106
12, 73615, Note_on_c, 12, 69, 0
12, 73625, Note_on_c, 12, 69, 106
12, 73645, Note_on_c, 12, 69, 0
12, 73655, Note_on_c, 12, 69, 106
12, 73675, Note_on_c, 12, 69, 0
12, 73685, Note_on_c, 12, 67, 106
12, 73705, Note_on_c, 12, 67, 0
12, 73715, Note_on_c, 12, 67, 106
12, 73735, Note_on_c, 12, 67, 0
12, 73745, Note_on_c, 12, 67, 106
12, 73765, Note_on_c, 12, 67, 0
12, 73775, Note_on_c, 12, 67, 106
12, 73795, Note_on_c, 12, 67, 0
12, 73805, Note_on_c, 12, 65, 106
12, 73825, Note_on_c, 12, 65, 0
12, 73835, Note_on_c, 12, 65, 106
12, 73855, Note_on_c, 12, 65, 0
12, 73865, Note_on_c, 12, 65, 106
12, 73885, Note_on_c, 12, 65, 0
12, 73895, Note_on_c, 12, 65, 106
12, 73915, Note_on_c, 12, 65, 0
12, 73925, Note_on_c, 12, 64, 106
12, 73985, Note_on_c, 12, 64, 0
12, 74225, Control_c, 12, 11, 122
12, 74225, Note_on_c, 12, 65, 106
12, 74242, Control_c, 12, 11, 119
12, 74260, Control_c, 12, 11, 116
12, 74278, Control_c, 12, 11, 113
12, 74296, Control_c, 12, 11, 110
12, 74314, Control_c, 12, 11, 107
12, 74325, Note_on_c, 12, 65, 0
12, 74332, Control_c, 12, 11, 104
12, 74345, Note_on_c, 12, 65, 106
12, 74395, Note_on_c, 12, 65, 0
12, 74405, Note_on_c, 12, 67, 106
12, 74465, Note_on_c, 12, 67, 0
12, 74705, Control_c, 12, 11, 122
12, 74705, Note_on_c, 12, 55, 106
12, 74722, Control_c, 12, 11, 119
12, 74740, Control_c, 12, 11, 116
12, 74758, Control_c, 12, 11, 113
12, 74776, Control_c, 12, 11, 110
12, 74794, Control_c, 12, 11, 107
12, 74805, Note_on_c, 12, 55, 0
12, 74812, Control_c, 12, 11, 104
12, 74825, Note_on_c, 12, 55, 106
12, 74875, Note_on_c, 12, 55, 0
12, 74885, Note_on_c, 12, 60, 106
12, 74945, Note_on_c, 12, 60, 0
12, 75185, Control_c, 12, 11, 122
12, 75185, Note_on_c, 12, 65, 106
12, 75202, Control_c, 12, 11, 119
12, 75220, Control_c, 12, 11, 116
12, 75238, Control_c, 12, 11, 113
12, 75256, Control_c, 12, 11, 110
12, 75274, Control_c, 12, 11, 107
12, 75285, Note_on_c, 12, 65, 0
12, 75292, Control_c, 12, 11, 104
12, 75305, Note_on_c, 12, 65, 106
12, 75355, Note_on_c, 12, 65, 0
12, 75365, Note_on_c, 12, 67, 106
12, 75425, Note_on_c, 12, 67, 0
12, 75665, Note_on_c, 12, 55, 106
12, 75665, Control_c, 12, 11, 122
12, 75682, Control_c, 12, 11, 119
12, 75700, Control_c, 12, 11, 116
12, 75718, Control_c, 12, 11, 113
12, 75736, Control_c, 12, 11, 110
12, 75754, Control_c, 12, 11, 107
12, 75765, Note_on_c, 12, 55, 0
12, 75772, Control_c, 12, 11, 104
12, 75785, Note_on_c, 12, 55, 106
12, 75835, Note_on_c, 12, 55, 0
12, 75845, Note_on_c, 12, 60, 106
12, 75845, Note_on_c, 12, 48, 106
12, 76195, Note_on_c, 12, 48, 0
12, 76195, Note_on_c, 12, 60, 0
12, 76205, Note_on_c, 12, 60, 106
12, 76235, Note_on_c, 12, 60, 0
12, 76265, Note_on_c, 12, 60, 106
12, 76295, Note_on_c, 12, 60, 0
12, 76325, Control_c, 12, 11, 122
12, 76325, Note_on_c, 12, 59, 106
12, 76342, Control_c, 12, 11, 119
12, 76360, Control_c, 12, 11, 116
12, 76378, Control_c, 12, 11, 113
12, 76396, Control_c, 12, 11, 110
12, 76414, Control_c, 12, 11, 107
12, 76432, Control_c, 12, 11, 104
12, 76675, Note_on_c, 12, 59, 0
12, 76685, Note_on_c, 12, 59, 106
12, 76715, Note_on_c, 12, 59, 0
12, 76745, Note_on_c, 12, 59, 106
12, 76775, Note_on_c, 12, 59, 0
12, 76805, Control_c, 12, 11, 97
12, 76805, Note_on_c, 12, 58, 106
12, 77155, Note_on_c, 12, 58, 0
12, 77165, Note_on_c, 12, 58, 106
12, 77195, Note_on_c, 12, 58, 0
12, 77225, Note_on_c, 12, 58, 106
12, 77255, Note_on_c, 12, 58, 0
12, 77285, Note_on_c, 12, 57, 106
12, 77485, Note_on_c, 12, 57, 0
12, 77495, Note_on_c, 12, 57, 106
12, 77515, Note_on_c, 12, 57, 0
12, 77525, Control_c, 12, 11, 122
12, 77525, Note_on_c, 12, 60, 106
12, 77525, Note_on_c, 12, 63, 106
12, 77534, Control_c, 12, 11, 119
12, 77543, Control_c, 12, 11, 116
12, 77552, Control_c, 12, 11, 113
12, 77561, Control_c, 12, 11, 110
12, 77570, Control_c, 12, 11, 107
12, 77579, Control_c, 12, 11, 104
12, 77725, Note_on_c, 12, 63, 0
12, 77725, Note_on_c, 12, 60, 0
12, 77735, Note_on_c, 12, 60, 106
12, 77735, Note_on_c, 12, 63, 106
12, 77755, Note_on_c, 12, 63, 0
12, 77755, Note_on_c, 12, 60, 0
12, 77765, Note_on_c, 12, 60, 106
12, 77765, Note_on_c, 12, 63, 106
12, 77825, Note_on_c, 12, 63, 0
12, 77825, Note_on_c, 12, 60, 0
12, 77885, Note_on_c, 12, 63, 106
12, 77885, Control_c, 12, 11, 117
12, 77885, Note_on_c, 12, 60, 106
12, 77902, Control_c, 12, 11, 120
12, 77920, Control_c, 12, 11, 121
12, 77938, Control_c, 12, 11, 118
12, 77956, Control_c, 12, 11, 115
12, 77974, Control_c, 12, 11, 112
12, 77992, Control_c, 12, 11, 109
12, 78200, Control_c, 12, 11, 102
12, 78201, Control_c, 12, 11, 99
12, 78203, Control_c, 12, 11, 95
12, 78204, Control_c, 12, 11, 92
12, 78206, Control_c, 12, 11, 88
12, 78207, Control_c, 12, 11, 85
12, 78209, Control_c, 12, 11, 81
12, 78210, Control_c, 12, 11, 78
12, 78212, Control_c, 12, 11, 74
12, 78213, Control_c, 12, 11, 71
12, 78215, Note_on_c, 12, 60, 0
12, 78215, Note_on_c, 12, 63, 0
12, 78215, Control_c, 12, 11, 67
12, 78245, Note_on_c, 12, 62, 106
12, 78245, Control_c, 12, 11, 102
12, 78245, Note_on_c, 12, 55, 106
12, 78305, Note_on_c, 12, 55, 0
12, 78305, Note_on_c, 12, 62, 0
12, 78365, Note_on_c, 12, 67, 106
12, 78365, Note_on_c, 12, 55, 106
12, 78365, Control_c, 12, 11, 117
12, 78382, Control_c, 12, 11, 120
12, 78400, Control_c, 12, 11, 121
12, 78418, Control_c, 12, 11, 118
12, 78436, Control_c, 12, 11, 115
12, 78454, Control_c, 12, 11, 112
12, 78472, Control_c, 12, 11, 109
12, 78615, Control_c, 12, 11, 102
12, 78617, Control_c, 12, 11, 98
12, 78619, Control_c, 12, 11, 95
12, 78621, Control_c, 12, 11, 91
12, 78623, Control_c, 12, 11, 88
12, 78625, Control_c, 12, 11, 84
12, 78627, Control_c, 12, 11, 81
12, 78629, Control_c, 12, 11, 77
12, 78631, Control_c, 12, 11, 74
12, 78633, Control_c, 12, 11, 70
12, 78635, Note_on_c, 12, 55, 0
12, 78635, Note_on_c, 12, 67, 0
12, 78635, Control_c, 12, 11, 67
12, 80165, Note_on_c, 12, 60, 106
12, 80165, Control_c, 12, 11, 47
12, 80185, Note_on_c, 12, 60, 0
12, 80195, Note_on_c, 12, 60, 106
12, 80215, Note_on_c, 12, 60, 0
12, 80225, Note_on_c, 12, 60, 106
12, 80245, Note_on_c, 12, 60, 0
12, 80255, Note_on_c, 12, 60, 106
12, 80275, Note_on_c, 12, 60, 0
12, 80285, Note_on_c, 12, 60, 106
12, 80305, Note_on_c, 12, 60, 0
12, 80315, Note_on_c, 12, 60, 106
12, 80335, Note_on_c, 12, 60, 0
12, 80345, Note_on_c, 12, 60, 106
12, 80365, Note_on_c, 12, 60, 0
12, 80375, Note_on_c, 12, 60, 106
12, 80395, Note_on_c, 12, 60, 0
12, 80405, Note_on_c, 12, 59, 106
12, 80425, Note_on_c, 12, 59, 0
12, 80435, Note_on_c, 12, 59, 106
12, 80455, Note_on_c, 12, 59, 0
12, 80465, Note_on_c, 12, 59, 106
12, 80485, Note_on_c, 12, 59, 0
12, 80495, Note_on_c, 12, 59, 106
12, 80495, Control_c, 12, 11, 47
12, 80515, Note_on_c, 12, 59, 0
12, 80515, Control_c, 12, 11, 50
12, 80525, Note_on_c, 12, 59, 106
12, 80537, Control_c, 12, 11, 53
12, 80545, Note_on_c, 12, 59, 0
12, 80555, Note_on_c, 12, 59, 106
12, 80560, Control_c, 12, 11, 56
12, 80575, Note_on_c, 12, 59, 0
12, 80582, Control_c, 12, 11, 59
12, 80585, Note_on_c, 12, 59, 106
12, 80605, Note_on_c, 12, 59, 0
12, 80605, Control_c, 12, 11, 62
12, 80615, Note_on_c, 12, 59, 106
12, 80627, Control_c, 12, 11, 65
12, 80635, Note_on_c, 12, 59, 0
12, 80645, Note_on_c, 12, 60, 106
12, 80645, Control_c, 12, 11, 87
12, 80665, Note_on_c, 12, 60, 0
12, 80675, Note_on_c, 12, 60, 106
12, 80695, Note_on_c, 12, 60, 0
12, 80705, Note_on_c, 12, 60, 106
12, 80725, Note_on_c, 12, 60, 0
12, 80735, Note_on_c, 12, 60, 106
12, 80755, Note_on_c, 12, 60, 0
12, 80765, Note_on_c, 12, 60, 106
12, 80785, Note_on_c, 12, 60, 0
12, 80795, Note_on_c, 12, 60, 106
12, 80815, Note_on_c, 12, 60, 0
12, 80825, Note_on_c, 12, 60, 106
12, 80845, Note_on_c, 12, 60, 0
12, 80855, Note_on_c, 12, 60, 106
12, 80875, Note_on_c, 12, 60, 0
12, 80885, Note_on_c, 12, 60, 106
12, 80905, Note_on_c, 12, 60, 0
12, 80915, Note_on_c, 12, 60, 106
12, 80935, Note_on_c, 12, 60, 0
12, 80945, Note_on_c, 12, 60, 106
12, 80965, Note_on_c, 12, 60, 0
12, 80975, Note_on_c, 12, 60, 106
12, 80995, Note_on_c, 12, 60, 0
12, 81005, Note_on_c, 12, 59, 106
12, 81025, Note_on_c, 12, 59, 0
12, 81035, Note_on_c, 12, 59, 106
12, 81055, Note_on_c, 12, 59, 0
12, 81065, Note_on_c, 12, 59, 106
12, 81085, Note_on_c, 12, 59, 0
12, 81095, Note_on_c, 12, 59, 106
12, 81115, Note_on_c, 12, 59, 0
12, 81125, Note_on_c, 12, 60, 106
12, 81145, Note_on_c, 12, 60, 0
12, 81155, Note_on_c, 12, 60, 106
12, 81175, Note_on_c, 12, 60, 0
12, 81185, Note_on_c, 12, 60, 106
12, 81205, Note_on_c, 12, 60, 0
12, 81215, Note_on_c, 12, 60, 106
12, 81235, Note_on_c, 12, 60, 0
12, 81245, Note_on_c, 12, 60, 106
12, 81265, Note_on_c, 12, 60, 0
12, 81275, Note_on_c, 12, 60, 106
12, 81295, Note_on_c, 12, 60, 0
12, 81305, Note_on_c, 12, 60, 106
12, 81325, Note_on_c, 12, 60, 0
12, 81335, Note_on_c, 12, 60, 106
12, 81355, Note_on_c, 12, 60, 0
12, 81365, Note_on_c, 12, 60, 106
12, 81385, Note_on_c, 12, 60, 0
12, 81395, Note_on_c, 12, 60, 106
12, 81415, Note_on_c, 12, 60, 0
12, 81425, Note_on_c, 12, 60, 106
12, 81445, Note_on_c, 12, 60, 0
12, 81455, Note_on_c, 12, 60, 106
12, 81475, Note_on_c, 12, 60, 0
12, 81485, Note_on_c, 12, 60, 106
12, 81505, Note_on_c, 12, 60, 0
12, 81515, Note_on_c, 12, 60, 106
12, 81535, Note_on_c, 12, 60, 0
12, 81545, Note_on_c, 12, 60, 106
12, 81565, Note_on_c, 12, 60, 0
12, 81575, Note_on_c, 12, 60, 106
12, 81595, Note_on_c, 12, 60, 0
12, 81605, Note_on_c, 12, 59, 78
12, 81701, Note_on_c, 12, 59, 0
12, 81905, Control_c, 12, 11, 47
12, 81905, Note_on_c, 12, 57, 106
12, 81935, Note_on_c, 12, 57, 0
12, 81965, Note_on_c, 12, 59, 106
12, 81995, Note_on_c, 12, 59, 0
12, 82025, Note_on_c, 12, 61, 106
12, 82055, Note_on_c, 12, 61, 0
12, 82085, Note_on_c, 12, 62, 106
12, 82115, Note_on_c, 12, 62, 0
12, 82145, Note_on_c, 12, 64, 106
12, 82175, Note_on_c, 12, 64, 0
12, 82205, Note_on_c, 12, 65, 106
12, 82265, Note_on_c, 12, 65, 0
12, 82385, Note_on_c, 12, 55, 106
12, 82415, Note_on_c, 12, 55, 0
12, 82445, Note_on_c, 12, 57, 106
12, 82475, Note_on_c, 12, 57, 0
12, 82505, Note_on_c, 12, 59, 106
12, 82535, Note_on_c, 12, 59, 0
12, 82565, Note_on_c, 12, 60, 106
12, 82595, Note_on_c, 12, 60, 0
12, 82625, Note_on_c, 12, 62, 106
12, 82655, Note_on_c, 12, 62, 0
12, 82685, Note_on_c, 12, 64, 106
12, 82715, Note_on_c, 12, 64, 0
12, 82745, Note_on_c, 12, 67, 106
12, 82775, Note_on_c, 12, 67, 0
12, 82805, Note_on_c, 12, 67, 106
12, 82835, Note_on_c, 12, 67, 0
12, 82865, Note_on_c, 12, 67, 106
12, 82895, Note_on_c, 12, 67, 0
12, 82925, Note_on_c, 12, 67, 106
12, 82955, Note_on_c, 12, 67, 0
12, 82985, Note_on_c, 12, 67, 106
12, 83015, Note_on_c, 12, 67, 0
12, 83045, Note_on_c, 12, 69, 106
12, 83105, Note_on_c, 12, 69, 0
12, 83165, Note_on_c, 12, 69, 106
12, 83225, Note_on_c, 12, 69, 0
12, 83285, Note_on_c, 12, 64, 106
12, 83345, Note_on_c, 12, 64, 0
12, 83405, Note_on_c, 12, 62, 106
12, 83465, Note_on_c, 12, 62, 0
12, 83525, Control_c, 12, 11, 102
12, 83525, Note_on_c, 12, 60, 106
12, 83645, Note_on_c, 12, 60, 0
12, 83825, Note_on_c, 12, 57, 106
12, 83855, Note_on_c, 12, 57, 0
12, 83885, Note_on_c, 12, 59, 106
12, 83915, Note_on_c, 12, 59, 0
12, 83945, Note_on_c, 12, 61, 106
12, 83975, Note_on_c, 12, 61, 0
12, 84005, Note_on_c, 12, 62, 106
12, 84035, Note_on_c, 12, 62, 0
12, 84065, Note_on_c, 12, 64, 106
12, 84095, Note_on_c, 12, 64, 0
12, 84125, Note_on_c, 12, 65, 106
12, 84245, Note_on_c, 12, 65, 0
12, 84305, Note_on_c, 12, 55, 106
12, 84335, Note_on_c, 12, 55, 0
12, 84365, Note_on_c, 12, 57, 106
12, 84395, Note_on_c, 12, 57, 0
12, 84425, Note_on_c, 12, 59, 106
12, 84455, Note_on_c, 12, 59, 0
12, 84485, Note_on_c, 12, 60, 106
12, 84515, Note_on_c, 12, 60, 0
12, 84545, Note_on_c, 12, 62, 106
12, 84575, Note_on_c, 12, 62, 0
12, 84605, Note_on_c, 12, 64, 106
12, 84725, Note_on_c, 12, 64, 0
12, 84785, Note_on_c, 12, 60, 106
12, 84815, Note_on_c, 12, 60, 0
12, 84845, Note_on_c, 12, 62, 106
12, 84875, Note_on_c, 12, 62, 0
12, 84905, Note_on_c, 12, 64, 106
12, 84935, Note_on_c, 12, 64, 0
12, 84965, Note_on_c, 12, 65, 106
12, 84995, Note_on_c, 12, 65, 0
12, 85025, Note_on_c, 12, 64, 106
12, 85055, Note_on_c, 12, 64, 0
12, 85085, Note_on_c, 12, 65, 106
12, 85115, Note_on_c, 12, 65, 0
12, 85145, Note_on_c, 12, 62, 106
12, 85175, Note_on_c, 12, 62, 0
12, 85205, Note_on_c, 12, 67, 106
12, 85235, Note_on_c, 12, 67, 0
12, 85265, Note_on_c, 12, 66, 106
12, 85295, Note_on_c, 12, 66, 0
12, 85325, Note_on_c, 12, 67, 106
12, 85355, Note_on_c, 12, 67, 0
12, 85385, Note_on_c, 12, 55, 106
12, 85415, Note_on_c, 12, 55, 0
12, 85445, Note_on_c, 12, 60, 106
12, 85541, Note_on_c, 12, 60, 0
12, 85925, Control_c, 12, 11, 87
12, 85925, Note_on_c, 12, 60, 106
12, 86021, Note_on_c, 12, 60, 0
12, 86405, Control_c, 12, 11, 47
12, 86405, Note_on_c, 12, 60, 106
12, 86465, Note_on_c, 12, 60, 0
12, 86645, Note_on_c, 12, 65, 106
12, 86705, Note_on_c, 12, 65, 0
12, 86885, Note_on_c, 12, 67, 106
12, 86945, Note_on_c, 12, 67, 0
12, 87125, Note_on_c, 12, 60, 106
12, 87185, Note_on_c, 12, 60, 0
12, 88325, Note_on_c, 12, 60, 106
12, 88385, Note_on_c, 12, 60, 0
12, 88565, Note_on_c, 12, 65, 106
12, 88625, Note_on_c, 12, 65, 0
12, 88805, Note_on_c, 12, 67, 106
12, 88865, Note_on_c, 12, 67, 0
12, 89045, Note_on_c, 12, 60, 106
12, 89105, Note_on_c, 12, 60, 0
12, 89525, Control_c, 12, 11, 47
12, 89525, Note_on_c, 12, 65, 106
12, 89542, Control_c, 12, 11, 48
12, 89559, Control_c, 12, 11, 49
12, 89577, Control_c, 12, 11, 50
12, 89585, Note_on_c, 12, 65, 0
12, 89594, Control_c, 12, 11, 51
12, 89612, Control_c, 12, 11, 52
12, 89629, Control_c, 12, 11, 53
12, 89647, Control_c, 12, 11, 54
12, 89664, Control_c, 12, 11, 55
12, 89682, Control_c, 12, 11, 56
12, 89699, Control_c, 12, 11, 57
12, 89717, Control_c, 12, 11, 58
12, 89734, Control_c, 12, 11, 59
12, 89751, Control_c, 12, 11, 60
12, 89765, Note_on_c, 12, 67, 106
12, 89769, Control_c, 12, 11, 61
12, 89786, Control_c, 12, 11, 62
12, 89804, Control_c, 12, 11, 63
12, 89821, Control_c, 12, 11, 64
12, 89825, Note_on_c, 12, 67, 0
12, 89839, Control_c, 12, 11, 65
12, 89856, Control_c, 12, 11, 66
12, 89874, Control_c, 12, 11, 67
12, 89891, Control_c, 12, 11, 68
12, 89909, Control_c, 12, 11, 69
12, 89926, Control_c, 12, 11, 70
12, 89943, Control_c, 12, 11, 71
12, 89961, Control_c, 12, 11, 72
12, 89978, Control_c, 12, 11, 73
12, 89996, Control_c, 12, 11, 74
12, 90005, Note_on_c, 12, 60, 106
12, 90013, Control_c, 12, 11, 75
12, 90031, Control_c, 12, 11, 76
12, 90048, Control_c, 12, 11, 77
12, 90055, Note_on_c, 12, 60, 0
12, 90065, Note_on_c, 12, 72, 106
12, 90066, Control_c, 12, 11, 78
12, 90083, Control_c, 12, 11, 79
12, 90101, Control_c, 12, 11, 80
12, 90115, Note_on_c, 12, 72, 0
12, 90118, Control_c, 12, 11, 81
12, 90125, Note_on_c, 12, 72, 106
12, 90135, Control_c, 12, 11, 82
12, 90153, Control_c, 12, 11, 83
12, 90170, Control_c, 12, 11, 84
12, 90175, Note_on_c, 12, 72, 0
12, 90185, Note_on_c, 12, 72, 106
12, 90188, Control_c, 12, 11, 85
12, 90205, Control_c, 12, 11, 86
12, 90223, Control_c, 12, 11, 87
12, 90235, Note_on_c, 12, 72, 0
12, 90240, Control_c, 12, 11, 88
12, 90245, Note_on_c, 12, 72, 106
12, 90258, Control_c, 12, 11, 89
12, 90275, Control_c, 12, 11, 90
12, 90293, Control_c, 12, 11, 91
12, 90295, Note_on_c, 12, 72, 0
12, 90305, Note_on_c, 12, 72, 106
12, 90310, Control_c, 12, 11, 92
12, 90327, Control_c, 12, 11, 93
12, 90345, Control_c, 12, 11, 94
12, 90355, Note_on_c, 12, 72, 0
12, 90362, Control_c, 12, 11, 95
12, 90365, Note_on_c, 12, 72, 106
12, 90380, Control_c, 12, 11, 96
12, 90397, Control_c, 12, 11, 97
12, 90415, Note_on_c, 12, 72, 0
12, 90415, Control_c, 12, 11, 98
12, 90425, Note_on_c, 12, 72, 106
12, 90432, Control_c, 12, 11, 99
12, 90450, Control_c, 12, 11, 100
12, 90467, Control_c, 12, 11, 101
12, 90475, Note_on_c, 12, 72, 0
12, 90485, Control_c, 12, 11, 102
12, 90485, Note_on_c, 12, 65, 106
12, 90505, Note_on_c, 12, 65, 0
12, 90515, Note_on_c, 12, 65, 106
12, 90535, Note_on_c, 12, 65, 0
12, 90545, Note_on_c, 12, 65, 106
12, 90565, Note_on_c, 12, 65, 0
12, 90575, Note_on_c, 12, 65, 106
12, 90595, Note_on_c, 12, 65, 0
12, 90605, Note_on_c, 12, 65, 106
12, 90625, Note_on_c, 12, 65, 0
12, 90635, Note_on_c, 12, 65, 106
12, 90655, Note_on_c, 12, 65, 0
12, 90665, Note_on_c, 12, 65, 106
12, 90685, Note_on_c, 12, 65, 0
12, 90695, Note_on_c, 12, 65, 106
12, 90715, Note_on_c, 12, 65, 0
12, 90725, Note_on_c, 12, 67, 106
12, 90745, Note_on_c, 12, 67, 0
12, 90755, Note_on_c, 12, 67, 106
12, 90775, Note_on_c, 12, 67, 0
12, 90785, Note_on_c, 12, 67, 106
12, 90805, Note_on_c, 12, 67, 0
12, 90815, Note_on_c, 12, 67, 106
12, 90835, Note_on_c, 12, 67, 0
12, 90845, Note_on_c, 12, 67, 106
12, 90865, Note_on_c, 12, 67, 0
12, 90875, Note_on_c, 12, 67, 106
12, 90895, Note_on_c, 12, 67, 0
12, 90905, Note_on_c, 12, 67, 106
12, 90925, Note_on_c, 12, 67, 0
12, 90935, Note_on_c, 12, 67, 106
12, 90955, Note_on_c, 12, 67, 0
12, 90965, Control_c, 12, 11, 112
12, 90965, Note_on_c, 12, 60, 106
12, 90982, Control_c, 12, 11, 115
12, 91000, Control_c, 12, 11, 116
12, 91018, Control_c, 12, 11, 113
12, 91036, Control_c, 12, 11, 110
12, 91054, Control_c, 12, 11, 107
12, 91072, Control_c, 12, 11, 104
12, 91095, Note_on_c, 12, 60, 0
12, 91115, Note_on_c, 12, 48, 106
12, 91130, Note_on_c, 12, 48, 0
12, 91145, Note_on_c, 12, 50, 106
12, 91160, Note_on_c, 12, 50, 0
12, 91175, Note_on_c, 12, 52, 106
12, 91190, Note_on_c, 12, 52, 0
12, 91205, Note_on_c, 12, 53, 106
12, 91220, Note_on_c, 12, 53, 0
12, 91235, Note_on_c, 12, 55, 106
12, 91250, Note_on_c, 12, 55, 0
12, 91265, Note_on_c, 12, 57, 106
12, 91280, Note_on_c, 12, 57, 0
12, 91295, Note_on_c, 12, 59, 106
12, 91310, Note_on_c, 12, 59, 0
12, 91325, Note_on_c, 12, 60, 106
12, 91355, Note_on_c, 12, 60, 0
12, 91385, Note_on_c, 12, 60, 106
12, 91415, Note_on_c, 12, 60, 0
12, 91445, Note_on_c, 12, 64, 106
12, 91445, Control_c, 12, 11, 112
12, 91462, Control_c, 12, 11, 115
12, 91480, Control_c, 12, 11, 116
12, 91498, Control_c, 12, 11, 113
12, 91516, Control_c, 12, 11, 110
12, 91534, Control_c, 12, 11, 107
12, 91552, Control_c, 12, 11, 104
12, 91585, Note_on_c, 12, 64, 0
12, 91595, Note_on_c, 12, 52, 106
12, 91610, Note_on_c, 12, 52, 0
12, 91625, Note_on_c, 12, 53, 106
12, 91640, Note_on_c, 12, 53, 0
12, 91655, Note_on_c, 12, 55, 106
12, 91670, Note_on_c, 12, 55, 0
12, 91685, Note_on_c, 12, 57, 106
12, 91700, Note_on_c, 12, 57, 0
12, 91715, Note_on_c, 12, 59, 106
12, 91730, Note_on_c, 12, 59, 0
12, 91745, Note_on_c, 12, 60, 106
12, 91760, Note_on_c, 12, 60, 0
12, 91775, Note_on_c, 12, 62, 106
12, 91790, Note_on_c, 12, 62, 0
12, 91805, Note_on_c, 12, 64, 106
12, 91835, Note_on_c, 12, 64, 0
12, 91865, Note_on_c, 12, 64, 106
12, 91895, Note_on_c, 12, 64, 0
12, 91925, Control_c, 12, 11, 112
12, 91925, Note_on_c, 12, 67, 106
12, 91942, Control_c, 12, 11, 109
12, 91945, Note_on_c, 12, 67, 0
12, 91955, Note_on_c, 12, 67, 106
12, 91960, Control_c, 12, 11, 106
12, 91975, Note_on_c, 12, 67, 0
12, 91978, Control_c, 12, 11, 103
12, 91985, Note_on_c, 12, 67, 106
12, 92005, Note_on_c, 12, 67, 0
12, 92015, Note_on_c, 12, 67, 106
12, 92035, Note_on_c, 12, 67, 0
12, 92045, Note_on_c, 12, 67, 106
12, 92065, Note_on_c, 12, 67, 0
12, 92075, Note_on_c, 12, 67, 106
12, 92095, Note_on_c, 12, 67, 0
12, 92105, Note_on_c, 12, 67, 106
12, 92125, Note_on_c, 12, 67, 0
12, 92135, Note_on_c, 12, 67, 106
12, 92155, Note_on_c, 12, 67, 0
12, 92165, Note_on_c, 12, 76, 106
12, 92185, Note_on_c, 12, 76, 0
12, 92195, Note_on_c, 12, 76, 106
12, 92215, Note_on_c, 12, 76, 0
12, 92225, Note_on_c, 12, 76, 106
12, 92245, Note_on_c, 12, 76, 0
12, 92255, Note_on_c, 12, 76, 106
12, 92275, Note_on_c, 12, 76, 0
12, 92285, Note_on_c, 12, 72, 106
12, 92305, Note_on_c, 12, 72, 0
12, 92315, Note_on_c, 12, 72, 106
12, 92335, Note_on_c, 12, 72, 0
12, 92345, Note_on_c, 12, 72, 106
12, 92365, Note_on_c, 12, 72, 0
12, 92375, Note_on_c, 12, 72, 106
12, 92395, Note_on_c, 12, 72, 0
12, 92405, Note_on_c, 12, 67, 106
12, 92425, Note_on_c, 12, 67, 0
12, 92435, Note_on_c, 12, 67, 106
12, 92455, Note_on_c, 12, 67, 0
12, 92465, Note_on_c, 12, 67, 106
12, 92485, Note_on_c, 12, 67, 0
12, 92495, Note_on_c, 12, 67, 106
12, 92515, Note_on_c, 12, 67, 0
12, 92525, Note_on_c, 12, 64, 106
12, 92545, Note_on_c, 12, 64, 0
12, 92555, Note_on_c, 12, 64, 106
12, 92575, Note_on_c, 12, 64, 0
12, 92585, Note_on_c, 12, 64, 106
12, 92605, Note_on_c, 12, 64, 0
12, 92615, Note_on_c, 12, 64, 106
12, 92635, Note_on_c, 12, 64, 0
12, 92645, Note_on_c, 12, 60, 106
12, 92665, Note_on_c, 12, 60, 0
12, 92675, Note_on_c, 12, 60, 106
12, 92695, Note_on_c, 12, 60, 0
12, 92705, Note_on_c, 12, 60, 106
12, 92725, Note_on_c, 12, 60, 0
12, 92735, Note_on_c, 12, 60, 106
12, 92755, Note_on_c, 12, 60, 0
12, 92765, Note_on_c, 12, 55, 106
12, 92785, Note_on_c, 12, 55, 0
12, 92795, Note_on_c, 12, 55, 106
12, 92815, Note_on_c, 12, 55, 0
12, 92825, Note_on_c, 12, 55, 106
12, 92845, Note_on_c, 12, 55, 0
12, 92855, Note_on_c, 12, 55, 106
12, 92875, Note_on_c, 12, 55, 0
12, 92885, Note_on_c, 12, 60, 106
12, 92981, Note_on_c, 12, 60, 0
12, 93125, Note_on_c, 12, 55, 106
12, 93135, Note_on_c, 12, 71, 106
12, 93135, Note_on_c, 12, 62, 106
12, 93221, Note_on_c, 12, 55, 0
12, 93231, Note_on_c, 12, 62, 0
12, 93231, Note_on_c, 12, 71, 0
12, 93365, Note_on_c, 12, 55, 106
12, 93375, Note_on_c, 12, 64, 106
12, 93375, Note_on_c, 12, 72, 106
12, 93461, Note_on_c, 12, 55, 0
12, 93471, Note_on_c, 12, 72, 0
12, 93471, Note_on_c, 12, 64, 0
12, 93605, Note_on_c, 12, 55, 106
12, 93701, Note_on_c, 12, 55, 0
12, 93845, Note_on_c, 12, 48, 106
12, 93941, Note_on_c, 12, 48, 0
12, 94085, Note_on_c, 12, 55, 105
12, 94095, Note_on_c, 12, 72, 105
12, 94095, Note_on_c, 12, 64, 105
12, 94187, Note_on_c, 12, 55, 0
12, 94197, Note_on_c, 12, 64, 0
12, 94197, Note_on_c, 12, 72, 0
12, 94325, Note_on_c, 12, 48, 106
12, 94445, Note_on_c, 12, 48, 0
12, 94565, Control_c, 12, 121, 0
12, 94565, End_track
13, 0, Start_track
13, 0, MIDI_port, 0
13, 0, Title_t, "Violoncelle"
13, 0, Program_c, 13, 48
13, 0, Control_c, 13, 10, 100
13, 7, Control_c, 13, 121, 0
13, 12, Program_c, 13, 48
13, 17, Pitch_bend_c, 13, 7892
13, 22, Control_c, 13, 11, 102
13, 27, Control_c, 13, 7, 127
13, 32, Control_c, 13, 91, 35
13, 37, Control_c, 13, 93, 0
13, 42, Control_c, 13, 10, 100
13, 47, Control_c, 13, 1, 36
13, 247, Control_c, 13, 11, 72
13, 247, Note_on_c, 13, 43, 106
13, 249, Control_c, 13, 11, 75
13, 251, Control_c, 13, 11, 78
13, 253, Control_c, 13, 11, 81
13, 255, Control_c, 13, 11, 84
13, 257, Control_c, 13, 11, 87
13, 259, Control_c, 13, 11, 90
13, 261, Control_c, 13, 11, 93
13, 263, Control_c, 13, 11, 96
13, 265, Control_c, 13, 11, 99
13, 267, Control_c, 13, 11, 102
13, 382, Control_c, 13, 11, 102
13, 383, Control_c, 13, 11, 98
13, 384, Control_c, 13, 11, 94
13, 385, Control_c, 13, 11, 91
13, 386, Control_c, 13, 11, 87
13, 387, Control_c, 13, 11, 83
13, 388, Control_c, 13, 11, 80
13, 389, Control_c, 13, 11, 76
13, 390, Control_c, 13, 11, 72
13, 391, Control_c, 13, 11, 69
13, 392, Control_c, 13, 11, 65
13, 393, Control_c, 13, 11, 61
13, 394, Control_c, 13, 11, 58
13, 395, Control_c, 13, 11, 54
13, 396, Control_c, 13, 11, 50
13, 397, Note_on_c, 13, 43, 0
13, 397, Control_c, 13, 11, 47
13, 1927, Note_on_c, 13, 48, 106
13, 2047, Note_on_c, 13, 48, 0
13, 2167, Note_on_c, 13, 48, 106
13, 2287, Note_on_c, 13, 48, 0
13, 2407, Note_on_c, 13, 48, 106
13, 2527, Note_on_c, 13, 48, 0
13, 2647, Note_on_c, 13, 48, 106
13, 2767, Note_on_c, 13, 48, 0
13, 2767, Note_on_c, 13, 48, 106
13, 2887, Note_on_c, 13, 48, 0
13, 2887, Note_on_c, 13, 48, 106
13, 3007, Note_on_c, 13, 48, 0
13, 3127, Note_on_c, 13, 50, 106
13, 3247, Note_on_c, 13, 50, 0
13, 3367, Note_on_c, 13, 55, 82
13, 3487, Note_on_c, 13, 55, 0
13, 3667, Note_on_c, 13, 57, 106
13, 3697, Note_on_c, 13, 57, 0
13, 3727, Note_on_c, 13, 59, 106
13, 3757, Note_on_c, 13, 59, 0
13, 3787, Note_on_c, 13, 61, 106
13, 3817, Note_on_c, 13, 61, 0
13, 3847, Note_on_c, 13, 62, 106
13, 3877, Note_on_c, 13, 62, 0
13, 3907, Note_on_c, 13, 64, 106
13, 3937, Note_on_c, 13, 64, 0
13, 3967, Note_on_c, 13, 65, 106
13, 3997, Note_on_c, 13, 65, 0
13, 4147, Note_on_c, 13, 55, 106
13, 4177, Note_on_c, 13, 55, 0
13, 4207, Note_on_c, 13, 57, 106
13, 4237, Note_on_c, 13, 57, 0
13, 4267, Note_on_c, 13, 59, 106
13, 4297, Note_on_c, 13, 59, 0
13, 4327, Note_on_c, 13, 60, 106
13, 4357, Note_on_c, 13, 60, 0
13, 4387, Note_on_c, 13, 62, 106
13, 4417, Note_on_c, 13, 62, 0
13, 4447, Note_on_c, 13, 64, 106
13, 4477, Note_on_c, 13, 64, 0
13, 4627, Note_on_c, 13, 48, 106
13, 4657, Note_on_c, 13, 48, 0
13, 4687, Note_on_c, 13, 50, 106
13, 4717, Note_on_c, 13, 50, 0
13, 4747, Note_on_c, 13, 52, 106
13, 4777, Note_on_c, 13, 52, 0
13, 4807, Note_on_c, 13, 53, 106
13, 4837, Note_on_c, 13, 53, 0
13, 4867, Note_on_c, 13, 52, 106
13, 4897, Note_on_c, 13, 52, 0
13, 4927, Note_on_c, 13, 50, 106
13, 4957, Note_on_c, 13, 50, 0
13, 4987, Note_on_c, 13, 53, 106
13, 5017, Note_on_c, 13, 53, 0
13, 5047, Note_on_c, 13, 55, 106
13, 5077, Note_on_c, 13, 55, 0
13, 5107, Note_on_c, 13, 54, 106
13, 5137, Note_on_c, 13, 54, 0
13, 5167, Note_on_c, 13, 55, 106
13, 5197, Note_on_c, 13, 55, 0
13, 5227, Note_on_c, 13, 43, 106
13, 5257, Note_on_c, 13, 43, 0
13, 5287, Note_on_c, 13, 48, 106
13, 5317, Note_on_c, 13, 48, 0
13, 5347, Note_on_c, 13, 55, 106
13, 5377, Note_on_c, 13, 55, 0
13, 5407, Note_on_c, 13, 60, 106
13, 5437, Note_on_c, 13, 60, 0
13, 5527, Note_on_c, 13, 57, 106
13, 5587, Control_c, 13, 11, 47
13, 5602, Control_c, 13, 11, 48
13, 5617, Control_c, 13, 11, 49
13, 5632, Control_c, 13, 11, 50
13, 5647, Note_on_c, 13, 57, 0
13, 5648, Control_c, 13, 11, 51
13, 5663, Control_c, 13, 11, 52
13, 5678, Control_c, 13, 11, 53
13, 5693, Control_c, 13, 11, 54
13, 5709, Control_c, 13, 11, 55
13, 5724, Control_c, 13, 11, 56
13, 5739, Control_c, 13, 11, 57
13, 5755, Control_c, 13, 11, 58
13, 5767, Note_on_c, 13, 62, 106
13, 5770, Control_c, 13, 11, 59
13, 5785, Control_c, 13, 11, 60
13, 5800, Control_c, 13, 11, 61
13, 5816, Control_c, 13, 11, 62
13, 5831, Control_c, 13, 11, 63
13, 5846, Control_c, 13, 11, 64
13, 5861, Control_c, 13, 11, 65
13, 5877, Control_c, 13, 11, 66
13, 5887, Note_on_c, 13, 62, 0
13, 5892, Control_c, 13, 11, 67
13, 5907, Control_c, 13, 11, 68
13, 5923, Control_c, 13, 11, 69
13, 5938, Control_c, 13, 11, 70
13, 5953, Control_c, 13, 11, 71
13, 5968, Control_c, 13, 11, 72
13, 5984, Control_c, 13, 11, 73
13, 5999, Control_c, 13, 11, 74
13, 6007, Note_on_c, 13, 55, 106
13, 6014, Control_c, 13, 11, 75
13, 6029, Control_c, 13, 11, 76
13, 6045, Control_c, 13, 11, 77
13, 6060, Control_c, 13, 11, 78
13, 6075, Control_c, 13, 11, 79
13, 6091, Control_c, 13, 11, 80
13, 6106, Control_c, 13, 11, 81
13, 6121, Control_c, 13, 11, 82
13, 6127, Note_on_c, 13, 55, 0
13, 6136, Control_c, 13, 11, 83
13, 6152, Control_c, 13, 11, 84
13, 6167, Control_c, 13, 11, 85
13, 6182, Control_c, 13, 11, 86
13, 6197, Control_c, 13, 11, 87
13, 6213, Control_c, 13, 11, 88
13, 6228, Control_c, 13, 11, 89
13, 6243, Control_c, 13, 11, 90
13, 6247, Note_on_c, 13, 60, 106
13, 6259, Control_c, 13, 11, 91
13, 6274, Control_c, 13, 11, 92
13, 6289, Control_c, 13, 11, 93
13, 6304, Control_c, 13, 11, 94
13, 6320, Control_c, 13, 11, 95
13, 6335, Control_c, 13, 11, 96
13, 6350, Control_c, 13, 11, 97
13, 6365, Control_c, 13, 11, 98
13, 6367, Note_on_c, 13, 60, 0
13, 6381, Control_c, 13, 11, 99
13, 6396, Control_c, 13, 11, 100
13, 6411, Control_c, 13, 11, 101
13, 6427, Control_c, 13, 11, 102
13, 6547, Note_on_c, 13, 48, 106
13, 6577, Note_on_c, 13, 48, 0
13, 6607, Note_on_c, 13, 50, 106
13, 6637, Note_on_c, 13, 50, 0
13, 6667, Note_on_c, 13, 52, 106
13, 6697, Note_on_c, 13, 52, 0
13, 6727, Note_on_c, 13, 53, 106
13, 6757, Note_on_c, 13, 53, 0
13, 6787, Note_on_c, 13, 52, 106
13, 6817, Note_on_c, 13, 52, 0
13, 6847, Note_on_c, 13, 50, 106
13, 6877, Note_on_c, 13, 50, 0
13, 6907, Note_on_c, 13, 53, 106
13, 6937, Note_on_c, 13, 53, 0
13, 6967, Note_on_c, 13, 55, 106
13, 6997, Note_on_c, 13, 55, 0
13, 7027, Note_on_c, 13, 54, 106
13, 7057, Note_on_c, 13, 54, 0
13, 7087, Note_on_c, 13, 55, 106
13, 7117, Note_on_c, 13, 55, 0
13, 7147, Note_on_c, 13, 43, 106
13, 7177, Note_on_c, 13, 43, 0
13, 7207, Note_on_c, 13, 48, 106
13, 7327, Note_on_c, 13, 48, 0
13, 7987, Control_c, 13, 11, 87
13, 7987, Note_on_c, 13, 43, 106
13, 8032, Note_on_c, 13, 43, 0
13, 8047, Note_on_c, 13, 43, 106
13, 8092, Note_on_c, 13, 43, 0
13, 8107, Note_on_c, 13, 43, 106
13, 8152, Note_on_c, 13, 43, 0
13, 8167, Note_on_c, 13, 48, 106
13, 8287, Note_on_c, 13, 48, 0
13, 8947, Note_on_c, 13, 55, 106
13, 8992, Note_on_c, 13, 55, 0
13, 9007, Note_on_c, 13, 55, 106
13, 9052, Note_on_c, 13, 55, 0
13, 9067, Note_on_c, 13, 55, 106
13, 9112, Note_on_c, 13, 55, 0
13, 9127, Note_on_c, 13, 60, 106
13, 9187, Note_on_c, 13, 60, 0
13, 9247, Note_on_c, 13, 57, 106
13, 9248, Control_c, 13, 11, 107
13, 9265, Control_c, 13, 11, 104
13, 9283, Control_c, 13, 11, 101
13, 9301, Control_c, 13, 11, 98
13, 9318, Control_c, 13, 11, 95
13, 9336, Control_c, 13, 11, 92
13, 9354, Control_c, 13, 11, 89
13, 9477, Note_on_c, 13, 57, 0
13, 9487, Note_on_c, 13, 57, 106
13, 9597, Note_on_c, 13, 57, 0
13, 9607, Note_on_c, 13, 54, 106
13, 9717, Note_on_c, 13, 54, 0
13, 9727, Control_c, 13, 11, 107
13, 9727, Note_on_c, 13, 56, 106
13, 9744, Control_c, 13, 11, 104
13, 9762, Control_c, 13, 11, 101
13, 9780, Control_c, 13, 11, 98
13, 9798, Control_c, 13, 11, 95
13, 9816, Control_c, 13, 11, 92
13, 9834, Control_c, 13, 11, 89
13, 9957, Note_on_c, 13, 56, 0
13, 9967, Note_on_c, 13, 52, 106
13, 10077, Note_on_c, 13, 52, 0
13, 10087, Note_on_c, 13, 57, 106
13, 10197, Note_on_c, 13, 57, 0
13, 10207, Note_on_c, 13, 50, 106
13, 10317, Note_on_c, 13, 50, 0
13, 10327, Note_on_c, 13, 55, 106
13, 10437, Note_on_c, 13, 55, 0
13, 10447, Note_on_c, 13, 47, 106
13, 10557, Note_on_c, 13, 47, 0
13, 10567, Note_on_c, 13, 48, 106
13, 10687, Note_on_c, 13, 48, 0
13, 10807, Note_on_c, 13, 49, 106
13, 10927, Note_on_c, 13, 49, 0
13, 11047, Note_on_c, 13, 50, 106
13, 11077, Note_on_c, 13, 50, 0
13, 11107, Note_on_c, 13, 50, 106
13, 11137, Note_on_c, 13, 50, 0
13, 11167, Note_on_c, 13, 54, 106
13, 11197, Note_on_c, 13, 54, 0
13, 11227, Note_on_c, 13, 55, 106
13, 11257, Note_on_c, 13, 55, 0
13, 11287, Note_on_c, 13, 57, 106
13, 11317, Note_on_c, 13, 57, 0
13, 11347, Note_on_c, 13, 59, 106
13, 11377, Note_on_c, 13, 59, 0
13, 11407, Control_c, 13, 11, 107
13, 11407, Note_on_c, 13, 60, 106
13, 11425, Control_c, 13, 11, 104
13, 11443, Control_c, 13, 11, 101
13, 11461, Control_c, 13, 11, 98
13, 11479, Control_c, 13, 11, 95
13, 11497, Control_c, 13, 11, 92
13, 11515, Control_c, 13, 11, 89
13, 11587, Note_on_c, 13, 60, 0
13, 11587, Note_on_c, 13, 59, 106
13, 11637, Note_on_c, 13, 59, 0
13, 11647, Note_on_c, 13, 62, 106
13, 11677, Note_on_c, 13, 62, 0
13, 11707, Note_on_c, 13, 59, 106
13, 11737, Note_on_c, 13, 59, 0
13, 11767, Note_on_c, 13, 55, 106
13, 11797, Note_on_c, 13, 55, 0
13, 11827, Note_on_c, 13, 55, 106
13, 11857, Note_on_c, 13, 55, 0
13, 11887, Note_on_c, 13, 59, 106
13, 11917, Note_on_c, 13, 59, 0
13, 11947, Note_on_c, 13, 55, 106
13, 11977, Note_on_c, 13, 55, 0
13, 12007, Note_on_c, 13, 50, 106
13, 12037, Note_on_c, 13, 50, 0
13, 12067, Note_on_c, 13, 50, 106
13, 12097, Note_on_c, 13, 50, 0
13, 12127, Note_on_c, 13, 54, 106
13, 12157, Note_on_c, 13, 54, 0
13, 12187, Note_on_c, 13, 55, 106
13, 12217, Note_on_c, 13, 55, 0
13, 12247, Note_on_c, 13, 57, 106
13, 12277, Note_on_c, 13, 57, 0
13, 12307, Note_on_c, 13, 59, 106
13, 12337, Note_on_c, 13, 59, 0
13, 12367, Control_c, 13, 11, 107
13, 12367, Note_on_c, 13, 60, 106
13, 12385, Control_c, 13, 11, 104
13, 12403, Control_c, 13, 11, 101
13, 12421, Control_c, 13, 11, 98
13, 12439, Control_c, 13, 11, 95
13, 12457, Control_c, 13, 11, 92
13, 12475, Control_c, 13, 11, 89
13, 12547, Note_on_c, 13, 60, 0
13, 12547, Note_on_c, 13, 59, 106
13, 12597, Note_on_c, 13, 59, 0
13, 12607, Note_on_c, 13, 62, 106
13, 12637, Note_on_c, 13, 62, 0
13, 12667, Note_on_c, 13, 59, 106
13, 12697, Note_on_c, 13, 59, 0
13, 12727, Note_on_c, 13, 55, 106
13, 12757, Note_on_c, 13, 55, 0
13, 12787, Note_on_c, 13, 55, 106
13, 12817, Note_on_c, 13, 55, 0
13, 12847, Note_on_c, 13, 59, 106
13, 12877, Note_on_c, 13, 59, 0
13, 12907, Note_on_c, 13, 55, 106
13, 12937, Note_on_c, 13, 55, 0
13, 12967, Note_on_c, 13, 50, 91
13, 13087, Note_on_c, 13, 50, 0
13, 13447, Control_c, 13, 11, 47
13, 13447, Note_on_c, 13, 55, 106
13, 13507, Note_on_c, 13, 55, 0
13, 13567, Note_on_c, 13, 50, 106
13, 13627, Note_on_c, 13, 50, 0
13, 13687, Note_on_c, 13, 57, 106
13, 13747, Note_on_c, 13, 57, 0
13, 13807, Note_on_c, 13, 50, 106
13, 13867, Note_on_c, 13, 50, 0
13, 13927, Note_on_c, 13, 59, 106
13, 13987, Note_on_c, 13, 59, 0
13, 14047, Note_on_c, 13, 50, 106
13, 14107, Note_on_c, 13, 50, 0
13, 14167, Note_on_c, 13, 54, 106
13, 14227, Note_on_c, 13, 54, 0
13, 14287, Note_on_c, 13, 50, 106
13, 14347, Note_on_c, 13, 50, 0
13, 14407, Note_on_c, 13, 55, 106
13, 14467, Note_on_c, 13, 55, 0
13, 14527, Note_on_c, 13, 50, 106
13, 14587, Note_on_c, 13, 50, 0
13, 14647, Note_on_c, 13, 57, 106
13, 14707, Note_on_c, 13, 57, 0
13, 14767, Note_on_c, 13, 50, 106
13, 14827, Note_on_c, 13, 50, 0
13, 14887, Note_on_c, 13, 59, 106
13, 14947, Note_on_c, 13, 59, 0
13, 15007, Note_on_c, 13, 50, 106
13, 15067, Note_on_c, 13, 50, 0
13, 15127, Note_on_c, 13, 54, 106
13, 15187, Note_on_c, 13, 54, 0
13, 15247, Note_on_c, 13, 50, 106
13, 15307, Note_on_c, 13, 50, 0
13, 15367, Note_on_c, 13, 55, 106
13, 15427, Note_on_c, 13, 55, 0
13, 15487, Note_on_c, 13, 50, 106
13, 15547, Note_on_c, 13, 50, 0
13, 15607, Note_on_c, 13, 57, 106
13, 15607, Control_c, 13, 11, 47
13, 15637, Control_c, 13, 11, 48
13, 15667, Note_on_c, 13, 57, 0
13, 15667, Control_c, 13, 11, 49
13, 15697, Control_c, 13, 11, 50
13, 15727, Control_c, 13, 11, 51
13, 15727, Note_on_c, 13, 50, 106
13, 15757, Control_c, 13, 11, 52
13, 15787, Note_on_c, 13, 50, 0
13, 15787, Control_c, 13, 11, 53
13, 15817, Control_c, 13, 11, 54
13, 15847, Note_on_c, 13, 59, 106
13, 15847, Control_c, 13, 11, 55
13, 15877, Control_c, 13, 11, 56
13, 15907, Note_on_c, 13, 59, 0
13, 15907, Control_c, 13, 11, 57
13, 15937, Control_c, 13, 11, 58
13, 15967, Control_c, 13, 11, 59
13, 15967, Note_on_c, 13, 55, 106
13, 15997, Control_c, 13, 11, 60
13, 16027, Note_on_c, 13, 55, 0
13, 16027, Control_c, 13, 11, 61
13, 16057, Control_c, 13, 11, 62
13, 16087, Note_on_c, 13, 60, 106
13, 16087, Control_c, 13, 11, 63
13, 16117, Control_c, 13, 11, 64
13, 16147, Note_on_c, 13, 60, 0
13, 16147, Control_c, 13, 11, 65
13, 16177, Control_c, 13, 11, 66
13, 16207, Control_c, 13, 11, 67
13, 16207, Note_on_c, 13, 55, 106
13, 16237, Control_c, 13, 11, 68
13, 16267, Note_on_c, 13, 55, 0
13, 16267, Control_c, 13, 11, 69
13, 16297, Control_c, 13, 11, 70
13, 16327, Control_c, 13, 11, 71
13, 16327, Note_on_c, 13, 62, 106
13, 16357, Control_c, 13, 11, 72
13, 16387, Note_on_c, 13, 62, 0
13, 16387, Control_c, 13, 11, 73
13, 16417, Control_c, 13, 11, 74
13, 16447, Note_on_c, 13, 55, 106
13, 16447, Control_c, 13, 11, 75
13, 16477, Control_c, 13, 11, 76
13, 16507, Note_on_c, 13, 55, 0
13, 16507, Control_c, 13, 11, 77
13, 16537, Control_c, 13, 11, 78
13, 16567, Control_c, 13, 11, 79
13, 16567, Note_on_c, 13, 64, 106
13, 16597, Control_c, 13, 11, 80
13, 16627, Note_on_c, 13, 64, 0
13, 16627, Control_c, 13, 11, 81
13, 16657, Control_c, 13, 11, 82
13, 16687, Note_on_c, 13, 60, 106
13, 16687, Control_c, 13, 11, 83
13, 16717, Control_c, 13, 11, 84
13, 16747, Note_on_c, 13, 60, 0
13, 16747, Control_c, 13, 11, 85
13, 16777, Control_c, 13, 11, 86
13, 16807, Control_c, 13, 11, 90
13, 16807, Note_on_c, 13, 50, 106
13, 16813, Control_c, 13, 11, 93
13, 16819, Control_c, 13, 11, 96
13, 16825, Control_c, 13, 11, 99
13, 16839, Control_c, 13, 11, 96
13, 16848, Control_c, 13, 11, 93
13, 16857, Note_on_c, 13, 50, 0
13, 16857, Control_c, 13, 11, 90
13, 16866, Control_c, 13, 11, 87
13, 16867, Note_on_c, 13, 62, 106
13, 16917, Note_on_c, 13, 62, 0
13, 16927, Note_on_c, 13, 62, 106
13, 16977, Note_on_c, 13, 62, 0
13, 16987, Note_on_c, 13, 62, 106
13, 17037, Note_on_c, 13, 62, 0
13, 17047, Note_on_c, 13, 50, 106
13, 17047, Control_c, 13, 11, 92
13, 17055, Control_c, 13, 11, 95
13, 17064, Control_c, 13, 11, 98
13, 17073, Control_c, 13, 11, 101
13, 17088, Control_c, 13, 11, 100
13, 17097, Note_on_c, 13, 50, 0
13, 17106, Control_c, 13, 11, 97
13, 17107, Note_on_c, 13, 62, 106
13, 17124, Control_c, 13, 11, 94
13, 17142, Control_c, 13, 11, 91
13, 17157, Note_on_c, 13, 62, 0
13, 17160, Control_c, 13, 11, 88
13, 17167, Note_on_c, 13, 62, 106
13, 17217, Note_on_c, 13, 62, 0
13, 17227, Note_on_c, 13, 62, 106
13, 17277, Note_on_c, 13, 62, 0
13, 17287, Control_c, 13, 11, 92
13, 17287, Note_on_c, 13, 49, 106
13, 17295, Control_c, 13, 11, 95
13, 17304, Control_c, 13, 11, 98
13, 17313, Control_c, 13, 11, 101
13, 17328, Control_c, 13, 11, 100
13, 17337, Note_on_c, 13, 49, 0
13, 17346, Control_c, 13, 11, 97
13, 17347, Note_on_c, 13, 61, 106
13, 17364, Control_c, 13, 11, 94
13, 17382, Control_c, 13, 11, 91
13, 17397, Note_on_c, 13, 61, 0
13, 17400, Control_c, 13, 11, 88
13, 17407, Note_on_c, 13, 61, 106
13, 17457, Note_on_c, 13, 61, 0
13, 17467, Note_on_c, 13, 61, 106
13, 17517, Note_on_c, 13, 61, 0
13, 17527, Control_c, 13, 11, 92
13, 17527, Note_on_c, 13, 48, 106
13, 17535, Control_c, 13, 11, 95
13, 17544, Control_c, 13, 11, 98
13, 17553, Control_c, 13, 11, 101
13, 17568, Control_c, 13, 11, 100
13, 17577, Note_on_c, 13, 48, 0
13, 17586, Control_c, 13, 11, 97
13, 17587, Note_on_c, 13, 60, 106
13, 17604, Control_c, 13, 11, 94
13, 17622, Control_c, 13, 11, 91
13, 17637, Note_on_c, 13, 60, 0
13, 17640, Control_c, 13, 11, 88
13, 17647, Note_on_c, 13, 60, 106
13, 17697, Note_on_c, 13, 60, 0
13, 17707, Note_on_c, 13, 60, 106
13, 17757, Note_on_c, 13, 60, 0
13, 17767, Note_on_c, 13, 59, 106
13, 17817, Note_on_c, 13, 59, 0
13, 17827, Note_on_c, 13, 59, 106
13, 17877, Note_on_c, 13, 59, 0
13, 17887, Control_c, 13, 11, 102
13, 17887, Note_on_c, 13, 57, 106
13, 17937, Note_on_c, 13, 57, 0
13, 17947, Note_on_c, 13, 57, 106
13, 17997, Note_on_c, 13, 57, 0
13, 18007, Note_on_c, 13, 57, 106
13, 18057, Note_on_c, 13, 57, 0
13, 18067, Note_on_c, 13, 57, 106
13, 18117, Note_on_c, 13, 57, 0
13, 18127, Note_on_c, 13, 57, 106
13, 18177, Note_on_c, 13, 57, 0
13, 18187, Note_on_c, 13, 57, 106
13, 18237, Note_on_c, 13, 57, 0
13, 18247, Note_on_c, 13, 55, 106
13, 18297, Note_on_c, 13, 55, 0
13, 18307, Note_on_c, 13, 55, 106
13, 18357, Note_on_c, 13, 55, 0
13, 18367, Note_on_c, 13, 48, 106
13, 18417, Note_on_c, 13, 48, 0
13, 18427, Note_on_c, 13, 48, 106
13, 18477, Note_on_c, 13, 48, 0
13, 18487, Note_on_c, 13, 50, 106
13, 18537, Note_on_c, 13, 50, 0
13, 18547, Note_on_c, 13, 50, 106
13, 18597, Note_on_c, 13, 50, 0
13, 18607, Note_on_c, 13, 50, 106
13, 18657, Note_on_c, 13, 50, 0
13, 18667, Note_on_c, 13, 50, 106
13, 18717, Note_on_c, 13, 50, 0
13, 18727, Note_on_c, 13, 55, 106
13, 18847, Note_on_c, 13, 55, 0
13, 19027, Note_on_c, 13, 60, 106
13, 19027, Control_c, 13, 11, 122
13, 19035, Control_c, 13, 11, 119
13, 19044, Control_c, 13, 11, 116
13, 19053, Control_c, 13, 11, 113
13, 19062, Control_c, 13, 11, 110
13, 19071, Control_c, 13, 11, 107
13, 19080, Control_c, 13, 11, 104
13, 19127, Note_on_c, 13, 60, 0
13, 19147, Note_on_c, 13, 60, 106
13, 19192, Note_on_c, 13, 60, 0
13, 19207, Note_on_c, 13, 62, 106
13, 19267, Note_on_c, 13, 62, 0
13, 19507, Control_c, 13, 11, 122
13, 19507, Note_on_c, 13, 50, 106
13, 19515, Control_c, 13, 11, 119
13, 19524, Control_c, 13, 11, 116
13, 19533, Control_c, 13, 11, 113
13, 19542, Control_c, 13, 11, 110
13, 19551, Control_c, 13, 11, 107
13, 19560, Control_c, 13, 11, 104
13, 19607, Note_on_c, 13, 50, 0
13, 19627, Note_on_c, 13, 50, 106
13, 19672, Note_on_c, 13, 50, 0
13, 19687, Note_on_c, 13, 55, 106
13, 19747, Note_on_c, 13, 55, 0
13, 19987, Control_c, 13, 11, 122
13, 19987, Note_on_c, 13, 60, 106
13, 19995, Control_c, 13, 11, 119
13, 20004, Control_c, 13, 11, 116
13, 20013, Control_c, 13, 11, 113
13, 20022, Control_c, 13, 11, 110
13, 20031, Control_c, 13, 11, 107
13, 20040, Control_c, 13, 11, 104
13, 20087, Note_on_c, 13, 60, 0
13, 20107, Note_on_c, 13, 60, 106
13, 20152, Note_on_c, 13, 60, 0
13, 20167, Note_on_c, 13, 62, 106
13, 20227, Note_on_c, 13, 62, 0
13, 20467, Note_on_c, 13, 50, 106
13, 20467, Control_c, 13, 11, 122
13, 20475, Control_c, 13, 11, 119
13, 20484, Control_c, 13, 11, 116
13, 20493, Control_c, 13, 11, 113
13, 20502, Control_c, 13, 11, 110
13, 20511, Control_c, 13, 11, 107
13, 20520, Control_c, 13, 11, 104
13, 20567, Note_on_c, 13, 50, 0
13, 20587, Note_on_c, 13, 50, 106
13, 20632, Note_on_c, 13, 50, 0
13, 20647, Note_on_c, 13, 55, 106
13, 20647, Control_c, 13, 11, 122
13, 20664, Control_c, 13, 11, 119
13, 20682, Control_c, 13, 11, 116
13, 20700, Control_c, 13, 11, 113
13, 20718, Control_c, 13, 11, 110
13, 20736, Control_c, 13, 11, 107
13, 20754, Control_c, 13, 11, 104
13, 20992, Note_on_c, 13, 55, 0
13, 21007, Note_on_c, 13, 55, 106
13, 21037, Note_on_c, 13, 55, 0
13, 21067, Note_on_c, 13, 55, 106
13, 21097, Note_on_c, 13, 55, 0
13, 21127, Control_c, 13, 11, 122
13, 21127, Note_on_c, 13, 57, 106
13, 21144, Control_c, 13, 11, 119
13, 21162, Control_c, 13, 11, 116
13, 21180, Control_c, 13, 11, 113
13, 21198, Control_c, 13, 11, 110
13, 21216, Control_c, 13, 11, 107
13, 21234, Control_c, 13, 11, 104
13, 21472, Note_on_c, 13, 57, 0
13, 21487, Note_on_c, 13, 57, 106
13, 21517, Note_on_c, 13, 57, 0
13, 21547, Note_on_c, 13, 57, 106
13, 21577, Note_on_c, 13, 57, 0
13, 21607, Control_c, 13, 11, 122
13, 21607, Note_on_c, 13, 59, 106
13, 21624, Control_c, 13, 11, 119
13, 21642, Control_c, 13, 11, 116
13, 21660, Control_c, 13, 11, 113
13, 21678, Control_c, 13, 11, 110
13, 21696, Control_c, 13, 11, 107
13, 21714, Control_c, 13, 11, 104
13, 21952, Note_on_c, 13, 59, 0
13, 21967, Note_on_c, 13, 59, 106
13, 21997, Note_on_c, 13, 59, 0
13, 22027, Note_on_c, 13, 59, 106
13, 22057, Note_on_c, 13, 59, 0
13, 22087, Control_c, 13, 11, 122
13, 22087, Note_on_c, 13, 60, 106
13, 22104, Control_c, 13, 11, 119
13, 22122, Control_c, 13, 11, 116
13, 22140, Control_c, 13, 11, 113
13, 22158, Control_c, 13, 11, 110
13, 22176, Control_c, 13, 11, 107
13, 22194, Control_c, 13, 11, 104
13, 22432, Note_on_c, 13, 60, 0
13, 22447, Note_on_c, 13, 61, 106
13, 22477, Note_on_c, 13, 61, 0
13, 22507, Note_on_c, 13, 61, 106
13, 22537, Note_on_c, 13, 61, 0
13, 22567, Note_on_c, 13, 62, 106
13, 22567, Control_c, 13, 11, 122
13, 22584, Control_c, 13, 11, 119
13, 22602, Control_c, 13, 11, 116
13, 22620, Control_c, 13, 11, 113
13, 22638, Control_c, 13, 11, 110
13, 22656, Control_c, 13, 11, 107
13, 22674, Control_c, 13, 11, 104
13, 22747, Note_on_c, 13, 62, 0
13, 22747, Note_on_c, 13, 61, 106
13, 22792, Note_on_c, 13, 61, 0
13, 22807, Note_on_c, 13, 62, 106
13, 22807, Control_c, 13, 11, 122
13, 22824, Control_c, 13, 11, 119
13, 22842, Control_c, 13, 11, 116
13, 22860, Control_c, 13, 11, 113
13, 22878, Control_c, 13, 11, 110
13, 22896, Control_c, 13, 11, 107
13, 22914, Control_c, 13, 11, 104
13, 22987, Note_on_c, 13, 62, 0
13, 22987, Note_on_c, 13, 61, 106
13, 23032, Note_on_c, 13, 61, 0
13, 23047, Control_c, 13, 11, 92
13, 23047, Note_on_c, 13, 62, 106
13, 23058, Control_c, 13, 11, 89
13, 23070, Control_c, 13, 11, 86
13, 23077, Note_on_c, 13, 62, 0
13, 23082, Control_c, 13, 11, 83
13, 23094, Control_c, 13, 11, 80
13, 23106, Control_c, 13, 11, 77
13, 23107, Note_on_c, 13, 60, 106
13, 23118, Control_c, 13, 11, 74
13, 23130, Control_c, 13, 11, 71
13, 23137, Note_on_c, 13, 60, 0
13, 23142, Control_c, 13, 11, 68
13, 23154, Control_c, 13, 11, 65
13, 23166, Control_c, 13, 11, 62
13, 23167, Note_on_c, 13, 59, 106
13, 23178, Control_c, 13, 11, 59
13, 23190, Control_c, 13, 11, 56
13, 23197, Note_on_c, 13, 59, 0
13, 23202, Control_c, 13, 11, 53
13, 23214, Control_c, 13, 11, 50
13, 23226, Control_c, 13, 11, 47
13, 23227, Note_on_c, 13, 57, 106
13, 23257, Note_on_c, 13, 57, 0
13, 23287, Note_on_c, 13, 55, 106
13, 23317, Note_on_c, 13, 55, 0
13, 23347, Note_on_c, 13, 53, 106
13, 23377, Note_on_c, 13, 53, 0
13, 23407, Note_on_c, 13, 52, 106
13, 23437, Note_on_c, 13, 52, 0
13, 23467, Note_on_c, 13, 50, 106
13, 23497, Note_on_c, 13, 50, 0
13, 23527, Note_on_c, 13, 48, 106
13, 23647, Note_on_c, 13, 48, 0
13, 23767, Note_on_c, 13, 48, 106
13, 23887, Note_on_c, 13, 48, 0
13, 24007, Note_on_c, 13, 48, 106
13, 24127, Note_on_c, 13, 48, 0
13, 24247, Note_on_c, 13, 48, 106
13, 24367, Note_on_c, 13, 48, 0
13, 24367, Note_on_c, 13, 48, 106
13, 24487, Note_on_c, 13, 48, 0
13, 24487, Note_on_c, 13, 48, 106
13, 24607, Note_on_c, 13, 48, 0
13, 24727, Note_on_c, 13, 50, 106
13, 24847, Note_on_c, 13, 50, 0
13, 24967, Note_on_c, 13, 55, 82
13, 25087, Note_on_c, 13, 55, 0
13, 25267, Note_on_c, 13, 57, 106
13, 25297, Note_on_c, 13, 57, 0
13, 25327, Note_on_c, 13, 59, 106
13, 25357, Note_on_c, 13, 59, 0
13, 25387, Note_on_c, 13, 61, 106
13, 25417, Note_on_c, 13, 61, 0
13, 25447, Note_on_c, 13, 62, 106
13, 25477, Note_on_c, 13, 62, 0
13, 25507, Note_on_c, 13, 64, 106
13, 25537, Note_on_c, 13, 64, 0
13, 25567, Note_on_c, 13, 65, 106
13, 25597, Note_on_c, 13, 65, 0
13, 25747, Note_on_c, 13, 55, 106
13, 25777, Note_on_c, 13, 55, 0
13, 25807, Note_on_c, 13, 57, 106
13, 25837, Note_on_c, 13, 57, 0
13, 25867, Note_on_c, 13, 59, 106
13, 25897, Note_on_c, 13, 59, 0
13, 25927, Note_on_c, 13, 60, 106
13, 25957, Note_on_c, 13, 60, 0
13, 25987, Note_on_c, 13, 62, 106
13, 26017, Note_on_c, 13, 62, 0
13, 26047, Note_on_c, 13, 64, 106
13, 26077, Note_on_c, 13, 64, 0
13, 26227, Note_on_c, 13, 48, 106
13, 26257, Note_on_c, 13, 48, 0
13, 26287, Note_on_c, 13, 50, 106
13, 26317, Note_on_c, 13, 50, 0
13, 26347, Note_on_c, 13, 52, 106
13, 26377, Note_on_c, 13, 52, 0
13, 26407, Note_on_c, 13, 53, 106
13, 26437, Note_on_c, 13, 53, 0
13, 26467, Note_on_c, 13, 52, 106
13, 26497, Note_on_c, 13, 52, 0
13, 26527, Note_on_c, 13, 50, 106
13, 26557, Note_on_c, 13, 50, 0
13, 26587, Note_on_c, 13, 53, 106
13, 26617, Note_on_c, 13, 53, 0
13, 26647, Note_on_c, 13, 55, 106
13, 26677, Note_on_c, 13, 55, 0
13, 26707, Note_on_c, 13, 54, 106
13, 26737, Note_on_c, 13, 54, 0
13, 26767, Note_on_c, 13, 55, 106
13, 26797, Note_on_c, 13, 55, 0
13, 26827, Note_on_c, 13, 43, 106
13, 26857, Note_on_c, 13, 43, 0
13, 26887, Note_on_c, 13, 48, 106
13, 26917, Note_on_c, 13, 48, 0
13, 26947, Note_on_c, 13, 55, 106
13, 26977, Note_on_c, 13, 55, 0
13, 27007, Note_on_c, 13, 60, 106
13, 27037, Note_on_c, 13, 60, 0
13, 27127, Note_on_c, 13, 57, 106
13, 27187, Control_c, 13, 11, 47
13, 27202, Control_c, 13, 11, 48
13, 27217, Control_c, 13, 11, 49
13, 27232, Control_c, 13, 11, 50
13, 27247, Note_on_c, 13, 57, 0
13, 27248, Control_c, 13, 11, 51
13, 27263, Control_c, 13, 11, 52
13, 27278, Control_c, 13, 11, 53
13, 27293, Control_c, 13, 11, 54
13, 27309, Control_c, 13, 11, 55
13, 27324, Control_c, 13, 11, 56
13, 27339, Control_c, 13, 11, 57
13, 27355, Control_c, 13, 11, 58
13, 27367, Note_on_c, 13, 62, 106
13, 27370, Control_c, 13, 11, 59
13, 27385, Control_c, 13, 11, 60
13, 27400, Control_c, 13, 11, 61
13, 27416, Control_c, 13, 11, 62
13, 27431, Control_c, 13, 11, 63
13, 27446, Control_c, 13, 11, 64
13, 27461, Control_c, 13, 11, 65
13, 27477, Control_c, 13, 11, 66
13, 27487, Note_on_c, 13, 62, 0
13, 27492, Control_c, 13, 11, 67
13, 27507, Control_c, 13, 11, 68
13, 27523, Control_c, 13, 11, 69
13, 27538, Control_c, 13, 11, 70
13, 27553, Control_c, 13, 11, 71
13, 27568, Control_c, 13, 11, 72
13, 27584, Control_c, 13, 11, 73
13, 27599, Control_c, 13, 11, 74
13, 27607, Note_on_c, 13, 55, 106
13, 27614, Control_c, 13, 11, 75
13, 27629, Control_c, 13, 11, 76
13, 27645, Control_c, 13, 11, 77
13, 27660, Control_c, 13, 11, 78
13, 27675, Control_c, 13, 11, 79
13, 27691, Control_c, 13, 11, 80
13, 27706, Control_c, 13, 11, 81
13, 27721, Control_c, 13, 11, 82
13, 27727, Note_on_c, 13, 55, 0
13, 27736, Control_c, 13, 11, 83
13, 27752, Control_c, 13, 11, 84
13, 27767, Control_c, 13, 11, 85
13, 27782, Control_c, 13, 11, 86
13, 27797, Control_c, 13, 11, 87
13, 27813, Control_c, 13, 11, 88
13, 27828, Control_c, 13, 11, 89
13, 27843, Control_c, 13, 11, 90
13, 27847, Note_on_c, 13, 60, 106
13, 27859, Control_c, 13, 11, 91
13, 27874, Control_c, 13, 11, 92
13, 27889, Control_c, 13, 11, 93
13, 27904, Control_c, 13, 11, 94
13, 27920, Control_c, 13, 11, 95
13, 27935, Control_c, 13, 11, 96
13, 27950, Control_c, 13, 11, 97
13, 27965, Control_c, 13, 11, 98
13, 27967, Note_on_c, 13, 60, 0
13, 27981, Control_c, 13, 11, 99
13, 27996, Control_c, 13, 11, 100
13, 28011, Control_c, 13, 11, 101
13, 28027, Control_c, 13, 11, 102
13, 28147, Note_on_c, 13, 48, 106
13, 28177, Note_on_c, 13, 48, 0
13, 28207, Note_on_c, 13, 50, 106
13, 28237, Note_on_c, 13, 50, 0
13, 28267, Note_on_c, 13, 52, 106
13, 28297, Note_on_c, 13, 52, 0
13, 28327, Note_on_c, 13, 53, 106
13, 28357, Note_on_c, 13, 53, 0
13, 28387, Note_on_c, 13, 52, 106
13, 28417, Note_on_c, 13, 52, 0
13, 28447, Note_on_c, 13, 50, 106
13, 28477, Note_on_c, 13, 50, 0
13, 28507, Note_on_c, 13, 53, 106
13, 28537, Note_on_c, 13, 53, 0
13, 28567, Note_on_c, 13, 55, 106
13, 28597, Note_on_c, 13, 55, 0
13, 28627, Note_on_c, 13, 54, 106
13, 28657, Note_on_c, 13, 54, 0
13, 28687, Note_on_c, 13, 55, 106
13, 28717, Note_on_c, 13, 55, 0
13, 28747, Note_on_c, 13, 43, 106
13, 28777, Note_on_c, 13, 43, 0
13, 28807, Note_on_c, 13, 48, 106
13, 28927, Note_on_c, 13, 48, 0
13, 29587, Note_on_c, 13, 43, 106
13, 29587, Control_c, 13, 11, 87
13, 29632, Note_on_c, 13, 43, 0
13, 29647, Note_on_c, 13, 43, 106
13, 29692, Note_on_c, 13, 43, 0
13, 29707, Note_on_c, 13, 43, 106
13, 29752, Note_on_c, 13, 43, 0
13, 29767, Note_on_c, 13, 48, 106
13, 29887, Note_on_c, 13, 48, 0
13, 30547, Note_on_c, 13, 55, 106
13, 30592, Note_on_c, 13, 55, 0
13, 30607, Note_on_c, 13, 55, 106
13, 30652, Note_on_c, 13, 55, 0
13, 30667, Note_on_c, 13, 55, 106
13, 30712, Note_on_c, 13, 55, 0
13, 30727, Note_on_c, 13, 60, 106
13, 30787, Note_on_c, 13, 60, 0
13, 30847, Note_on_c, 13, 57, 106
13, 30848, Control_c, 13, 11, 107
13, 30865, Control_c, 13, 11, 104
13, 30883, Control_c, 13, 11, 101
13, 30901, Control_c, 13, 11, 98
13, 30918, Control_c, 13, 11, 95
13, 30936, Control_c, 13, 11, 92
13, 30954, Control_c, 13, 11, 89
13, 31077, Note_on_c, 13, 57, 0
13, 31087, Note_on_c, 13, 57, 106
13, 31197, Note_on_c, 13, 57, 0
13, 31207, Note_on_c, 13, 54, 106
13, 31317, Note_on_c, 13, 54, 0
13, 31327, Note_on_c, 13, 56, 106
13, 31327, Control_c, 13, 11, 107
13, 31344, Control_c, 13, 11, 104
13, 31362, Control_c, 13, 11, 101
13, 31380, Control_c, 13, 11, 98
13, 31398, Control_c, 13, 11, 95
13, 31416, Control_c, 13, 11, 92
13, 31434, Control_c, 13, 11, 89
13, 31557, Note_on_c, 13, 56, 0
13, 31567, Note_on_c, 13, 52, 106
13, 31677, Note_on_c, 13, 52, 0
13, 31687, Note_on_c, 13, 57, 106
13, 31797, Note_on_c, 13, 57, 0
13, 31807, Note_on_c, 13, 50, 106
13, 31917, Note_on_c, 13, 50, 0
13, 31927, Note_on_c, 13, 55, 106
13, 32037, Note_on_c, 13, 55, 0
13, 32047, Note_on_c, 13, 47, 106
13, 32157, Note_on_c, 13, 47, 0
13, 32167, Note_on_c, 13, 48, 106
13, 32287, Note_on_c, 13, 48, 0
13, 32407, Note_on_c, 13, 49, 106
13, 32527, Note_on_c, 13, 49, 0
13, 32647, Note_on_c, 13, 50, 106
13, 32677, Note_on_c, 13, 50, 0
13, 32707, Note_on_c, 13, 50, 106
13, 32737, Note_on_c, 13, 50, 0
13, 32767, Note_on_c, 13, 54, 106
13, 32797, Note_on_c, 13, 54, 0
13, 32827, Note_on_c, 13, 55, 106
13, 32857, Note_on_c, 13, 55, 0
13, 32887, Note_on_c, 13, 57, 106
13, 32917, Note_on_c, 13, 57, 0
13, 32947, Note_on_c, 13, 59, 106
13, 32977, Note_on_c, 13, 59, 0
13, 33007, Note_on_c, 13, 60, 106
13, 33007, Control_c, 13, 11, 107
13, 33025, Control_c, 13, 11, 104
13, 33043, Control_c, 13, 11, 101
13, 33061, Control_c, 13, 11, 98
13, 33079, Control_c, 13, 11, 95
13, 33097, Control_c, 13, 11, 92
13, 33115, Control_c, 13, 11, 89
13, 33187, Note_on_c, 13, 60, 0
13, 33187, Note_on_c, 13, 59, 106
13, 33237, Note_on_c, 13, 59, 0
13, 33247, Note_on_c, 13, 62, 106
13, 33277, Note_on_c, 13, 62, 0
13, 33307, Note_on_c, 13, 59, 106
13, 33337, Note_on_c, 13, 59, 0
13, 33367, Note_on_c, 13, 55, 106
13, 33397, Note_on_c, 13, 55, 0
13, 33427, Note_on_c, 13, 55, 106
13, 33457, Note_on_c, 13, 55, 0
13, 33487, Note_on_c, 13, 59, 106
13, 33517, Note_on_c, 13, 59, 0
13, 33547, Note_on_c, 13, 55, 106
13, 33577, Note_on_c, 13, 55, 0
13, 33607, Note_on_c, 13, 50, 106
13, 33637, Note_on_c, 13, 50, 0
13, 33667, Note_on_c, 13, 50, 106
13, 33697, Note_on_c, 13, 50, 0
13, 33727, Note_on_c, 13, 54, 106
13, 33757, Note_on_c, 13, 54, 0
13, 33787, Note_on_c, 13, 55, 106
13, 33817, Note_on_c, 13, 55, 0
13, 33847, Note_on_c, 13, 57, 106
13, 33877, Note_on_c, 13, 57, 0
13, 33907, Note_on_c, 13, 59, 106
13, 33937, Note_on_c, 13, 59, 0
13, 33967, Control_c, 13, 11, 107
13, 33967, Note_on_c, 13, 60, 106
13, 33985, Control_c, 13, 11, 104
13, 34003, Control_c, 13, 11, 101
13, 34021, Control_c, 13, 11, 98
13, 34039, Control_c, 13, 11, 95
13, 34057, Control_c, 13, 11, 92
13, 34075, Control_c, 13, 11, 89
13, 34147, Note_on_c, 13, 60, 0
13, 34147, Note_on_c, 13, 59, 106
13, 34197, Note_on_c, 13, 59, 0
13, 34207, Note_on_c, 13, 62, 106
13, 34237, Note_on_c, 13, 62, 0
13, 34267, Note_on_c, 13, 59, 106
13, 34297, Note_on_c, 13, 59, 0
13, 34327, Note_on_c, 13, 55, 106
13, 34357, Note_on_c, 13, 55, 0
13, 34387, Note_on_c, 13, 55, 106
13, 34417, Note_on_c, 13, 55, 0
13, 34447, Note_on_c, 13, 59, 106
13, 34477, Note_on_c, 13, 59, 0
13, 34507, Note_on_c, 13, 55, 106
13, 34537, Note_on_c, 13, 55, 0
13, 34567, Note_on_c, 13, 50, 91
13, 34687, Note_on_c, 13, 50, 0
13, 35047, Note_on_c, 13, 55, 106
13, 35047, Control_c, 13, 11, 47
13, 35107, Note_on_c, 13, 55, 0
13, 35167, Note_on_c, 13, 50, 106
13, 35227, Note_on_c, 13, 50, 0
13, 35287, Note_on_c, 13, 57, 106
13, 35347, Note_on_c, 13, 57, 0
13, 35407, Note_on_c, 13, 50, 106
13, 35467, Note_on_c, 13, 50, 0
13, 35527, Note_on_c, 13, 59, 106
13, 35587, Note_on_c, 13, 59, 0
13, 35647, Note_on_c, 13, 50, 106
13, 35707, Note_on_c, 13, 50, 0
13, 35767, Note_on_c, 13, 54, 106
13, 35827, Note_on_c, 13, 54, 0
13, 35887, Note_on_c, 13, 50, 106
13, 35947, Note_on_c, 13, 50, 0
13, 36007, Note_on_c, 13, 55, 106
13, 36067, Note_on_c, 13, 55, 0
13, 36127, Note_on_c, 13, 50, 106
13, 36187, Note_on_c, 13, 50, 0
13, 36247, Note_on_c, 13, 57, 106
13, 36307, Note_on_c, 13, 57, 0
13, 36367, Note_on_c, 13, 50, 106
13, 36427, Note_on_c, 13, 50, 0
13, 36487, Note_on_c, 13, 59, 106
13, 36547, Note_on_c, 13, 59, 0
13, 36607, Note_on_c, 13, 50, 106
13, 36667, Note_on_c, 13, 50, 0
13, 36727, Note_on_c, 13, 54, 106
13, 36787, Note_on_c, 13, 54, 0
13, 36847, Note_on_c, 13, 50, 106
13, 36907, Note_on_c, 13, 50, 0
13, 36967, Note_on_c, 13, 55, 106
13, 37027, Note_on_c, 13, 55, 0
13, 37087, Note_on_c, 13, 50, 106
13, 37147, Note_on_c, 13, 50, 0
13, 37207, Control_c, 13, 11, 47
13, 37207, Note_on_c, 13, 57, 106
13, 37237, Control_c, 13, 11, 48
13, 37267, Note_on_c, 13, 57, 0
13, 37267, Control_c, 13, 11, 49
13, 37297, Control_c, 13, 11, 50
13, 37327, Note_on_c, 13, 50, 106
13, 37327, Control_c, 13, 11, 51
13, 37357, Control_c, 13, 11, 52
13, 37387, Note_on_c, 13, 50, 0
13, 37387, Control_c, 13, 11, 53
13, 37417, Control_c, 13, 11, 54
13, 37447, Note_on_c, 13, 59, 106
13, 37447, Control_c, 13, 11, 55
13, 37477, Control_c, 13, 11, 56
13, 37507, Note_on_c, 13, 59, 0
13, 37507, Control_c, 13, 11, 57
13, 37537, Control_c, 13, 11, 58
13, 37567, Note_on_c, 13, 55, 106
13, 37567, Control_c, 13, 11, 59
13, 37597, Control_c, 13, 11, 60
13, 37627, Note_on_c, 13, 55, 0
13, 37627, Control_c, 13, 11, 61
13, 37657, Control_c, 13, 11, 62
13, 37687, Control_c, 13, 11, 63
13, 37687, Note_on_c, 13, 60, 106
13, 37717, Control_c, 13, 11, 64
13, 37747, Note_on_c, 13, 60, 0
13, 37747, Control_c, 13, 11, 65
13, 37777, Control_c, 13, 11, 66
13, 37807, Note_on_c, 13, 55, 106
13, 37807, Control_c, 13, 11, 67
13, 37837, Control_c, 13, 11, 68
13, 37867, Note_on_c, 13, 55, 0
13, 37867, Control_c, 13, 11, 69
13, 37897, Control_c, 13, 11, 70
13, 37927, Control_c, 13, 11, 71
13, 37927, Note_on_c, 13, 62, 106
13, 37957, Control_c, 13, 11, 72
13, 37987, Note_on_c, 13, 62, 0
13, 37987, Control_c, 13, 11, 73
13, 38017, Control_c, 13, 11, 74
13, 38047, Note_on_c, 13, 55, 106
13, 38047, Control_c, 13, 11, 75
13, 38077, Control_c, 13, 11, 76
13, 38107, Note_on_c, 13, 55, 0
13, 38107, Control_c, 13, 11, 77
13, 38137, Control_c, 13, 11, 78
13, 38167, Control_c, 13, 11, 79
13, 38167, Note_on_c, 13, 64, 106
13, 38197, Control_c, 13, 11, 80
13, 38227, Note_on_c, 13, 64, 0
13, 38227, Control_c, 13, 11, 81
13, 38257, Control_c, 13, 11, 82
13, 38287, Note_on_c, 13, 60, 106
13, 38287, Control_c, 13, 11, 83
13, 38317, Control_c, 13, 11, 84
13, 38347, Note_on_c, 13, 60, 0
13, 38347, Control_c, 13, 11, 85
13, 38377, Control_c, 13, 11, 86
13, 38407, Note_on_c, 13, 50, 106
13, 38407, Control_c, 13, 11, 92
13, 38411, Control_c, 13, 11, 95
13, 38415, Control_c, 13, 11, 98
13, 38419, Control_c, 13, 11, 101
13, 38433, Control_c, 13, 11, 98
13, 38442, Control_c, 13, 11, 95
13, 38451, Control_c, 13, 11, 92
13, 38457, Note_on_c, 13, 50, 0
13, 38460, Control_c, 13, 11, 89
13, 38467, Note_on_c, 13, 62, 106
13, 38517, Note_on_c, 13, 62, 0
13, 38527, Note_on_c, 13, 62, 106
13, 38577, Note_on_c, 13, 62, 0
13, 38587, Note_on_c, 13, 62, 106
13, 38637, Note_on_c, 13, 62, 0
13, 38647, Control_c, 13, 11, 92
13, 38647, Note_on_c, 13, 50, 106
13, 38655, Control_c, 13, 11, 95
13, 38664, Control_c, 13, 11, 98
13, 38673, Control_c, 13, 11, 101
13, 38688, Control_c, 13, 11, 100
13, 38697, Note_on_c, 13, 50, 0
13, 38706, Control_c, 13, 11, 97
13, 38707, Note_on_c, 13, 62, 106
13, 38724, Control_c, 13, 11, 94
13, 38742, Control_c, 13, 11, 91
13, 38757, Note_on_c, 13, 62, 0
13, 38760, Control_c, 13, 11, 88
13, 38767, Note_on_c, 13, 62, 106
13, 38817, Note_on_c, 13, 62, 0
13, 38827, Note_on_c, 13, 62, 106
13, 38877, Note_on_c, 13, 62, 0
13, 38887, Note_on_c, 13, 49, 106
13, 38887, Control_c, 13, 11, 92
13, 38895, Control_c, 13, 11, 95
13, 38904, Control_c, 13, 11, 98
13, 38913, Control_c, 13, 11, 101
13, 38928, Control_c, 13, 11, 100
13, 38937, Note_on_c, 13, 49, 0
13, 38946, Control_c, 13, 11, 97
13, 38947, Note_on_c, 13, 61, 106
13, 38964, Control_c, 13, 11, 94
13, 38982, Control_c, 13, 11, 91
13, 38997, Note_on_c, 13, 61, 0
13, 39000, Control_c, 13, 11, 88
13, 39007, Note_on_c, 13, 61, 106
13, 39057, Note_on_c, 13, 61, 0
13, 39067, Note_on_c, 13, 61, 106
13, 39117, Note_on_c, 13, 61, 0
13, 39127, Note_on_c, 13, 48, 106
13, 39127, Control_c, 13, 11, 92
13, 39135, Control_c, 13, 11, 95
13, 39144, Control_c, 13, 11, 98
13, 39153, Control_c, 13, 11, 101
13, 39168, Control_c, 13, 11, 100
13, 39177, Note_on_c, 13, 48, 0
13, 39186, Control_c, 13, 11, 97
13, 39187, Note_on_c, 13, 60, 106
13, 39204, Control_c, 13, 11, 94
13, 39222, Control_c, 13, 11, 91
13, 39237, Note_on_c, 13, 60, 0
13, 39240, Control_c, 13, 11, 88
13, 39247, Note_on_c, 13, 60, 106
13, 39297, Note_on_c, 13, 60, 0
13, 39307, Note_on_c, 13, 60, 106
13, 39357, Note_on_c, 13, 60, 0
13, 39367, Note_on_c, 13, 59, 106
13, 39417, Note_on_c, 13, 59, 0
13, 39427, Note_on_c, 13, 59, 106
13, 39477, Note_on_c, 13, 59, 0
13, 39487, Control_c, 13, 11, 102
13, 39487, Note_on_c, 13, 57, 106
13, 39537, Note_on_c, 13, 57, 0
13, 39547, Note_on_c, 13, 57, 106
13, 39597, Note_on_c, 13, 57, 0
13, 39607, Note_on_c, 13, 57, 106
13, 39657, Note_on_c, 13, 57, 0
13, 39667, Note_on_c, 13, 57, 106
13, 39717, Note_on_c, 13, 57, 0
13, 39727, Note_on_c, 13, 57, 106
13, 39777, Note_on_c, 13, 57, 0
13, 39787, Note_on_c, 13, 57, 106
13, 39837, Note_on_c, 13, 57, 0
13, 39847, Note_on_c, 13, 55, 106
13, 39897, Note_on_c, 13, 55, 0
13, 39907, Note_on_c, 13, 55, 106
13, 39957, Note_on_c, 13, 55, 0
13, 39967, Note_on_c, 13, 48, 106
13, 40017, Note_on_c, 13, 48, 0
13, 40027, Note_on_c, 13, 48, 106
13, 40077, Note_on_c, 13, 48, 0
13, 40087, Note_on_c, 13, 50, 106
13, 40137, Note_on_c, 13, 50, 0
13, 40147, Note_on_c, 13, 50, 106
13, 40197, Note_on_c, 13, 50, 0
13, 40207, Note_on_c, 13, 50, 106
13, 40257, Note_on_c, 13, 50, 0
13, 40267, Note_on_c, 13, 50, 106
13, 40317, Note_on_c, 13, 50, 0
13, 40327, Note_on_c, 13, 55, 106
13, 40447, Note_on_c, 13, 55, 0
13, 40627, Note_on_c, 13, 60, 106
13, 40627, Control_c, 13, 11, 122
13, 40635, Control_c, 13, 11, 119
13, 40644, Control_c, 13, 11, 116
13, 40653, Control_c, 13, 11, 113
13, 40662, Control_c, 13, 11, 110
13, 40671, Control_c, 13, 11, 107
13, 40680, Control_c, 13, 11, 104
13, 40727, Note_on_c, 13, 60, 0
13, 40747, Note_on_c, 13, 60, 106
13, 40792, Note_on_c, 13, 60, 0
13, 40807, Note_on_c, 13, 62, 106
13, 40867, Note_on_c, 13, 62, 0
13, 41107, Control_c, 13, 11, 122
13, 41107, Note_on_c, 13, 50, 106
13, 41115, Control_c, 13, 11, 119
13, 41124, Control_c, 13, 11, 116
13, 41133, Control_c, 13, 11, 113
13, 41142, Control_c, 13, 11, 110
13, 41151, Control_c, 13, 11, 107
13, 41160, Control_c, 13, 11, 104
13, 41207, Note_on_c, 13, 50, 0
13, 41227, Note_on_c, 13, 50, 106
13, 41272, Note_on_c, 13, 50, 0
13, 41287, Note_on_c, 13, 55, 106
13, 41347, Note_on_c, 13, 55, 0
13, 41587, Control_c, 13, 11, 122
13, 41587, Note_on_c, 13, 60, 106
13, 41595, Control_c, 13, 11, 119
13, 41604, Control_c, 13, 11, 116
13, 41613, Control_c, 13, 11, 113
13, 41622, Control_c, 13, 11, 110
13, 41631, Control_c, 13, 11, 107
13, 41640, Control_c, 13, 11, 104
13, 41687, Note_on_c, 13, 60, 0
13, 41707, Note_on_c, 13, 60, 106
13, 41752, Note_on_c, 13, 60, 0
13, 41767, Note_on_c, 13, 62, 106
13, 41827, Note_on_c, 13, 62, 0
13, 42067, Note_on_c, 13, 50, 106
13, 42067, Control_c, 13, 11, 122
13, 42075, Control_c, 13, 11, 119
13, 42084, Control_c, 13, 11, 116
13, 42093, Control_c, 13, 11, 113
13, 42102, Control_c, 13, 11, 110
13, 42111, Control_c, 13, 11, 107
13, 42120, Control_c, 13, 11, 104
13, 42167, Note_on_c, 13, 50, 0
13, 42187, Note_on_c, 13, 50, 106
13, 42232, Note_on_c, 13, 50, 0
13, 42247, Note_on_c, 13, 55, 106
13, 42247, Control_c, 13, 11, 122
13, 42264, Control_c, 13, 11, 119
13, 42282, Control_c, 13, 11, 116
13, 42300, Control_c, 13, 11, 113
13, 42318, Control_c, 13, 11, 110
13, 42336, Control_c, 13, 11, 107
13, 42354, Control_c, 13, 11, 104
13, 42592, Note_on_c, 13, 55, 0
13, 42607, Note_on_c, 13, 55, 106
13, 42637, Note_on_c, 13, 55, 0
13, 42667, Note_on_c, 13, 55, 106
13, 42697, Note_on_c, 13, 55, 0
13, 42727, Note_on_c, 13, 57, 106
13, 42727, Control_c, 13, 11, 122
13, 42744, Control_c, 13, 11, 119
13, 42762, Control_c, 13, 11, 116
13, 42780, Control_c, 13, 11, 113
13, 42798, Control_c, 13, 11, 110
13, 42816, Control_c, 13, 11, 107
13, 42834, Control_c, 13, 11, 104
13, 43072, Note_on_c, 13, 57, 0
13, 43087, Note_on_c, 13, 57, 106
13, 43117, Note_on_c, 13, 57, 0
13, 43147, Note_on_c, 13, 57, 106
13, 43177, Note_on_c, 13, 57, 0
13, 43207, Control_c, 13, 11, 122
13, 43207, Note_on_c, 13, 59, 106
13, 43224, Control_c, 13, 11, 119
13, 43242, Control_c, 13, 11, 116
13, 43260, Control_c, 13, 11, 113
13, 43278, Control_c, 13, 11, 110
13, 43296, Control_c, 13, 11, 107
13, 43314, Control_c, 13, 11, 104
13, 43552, Note_on_c, 13, 59, 0
13, 43567, Note_on_c, 13, 59, 106
13, 43597, Note_on_c, 13, 59, 0
13, 43627, Note_on_c, 13, 59, 106
13, 43657, Note_on_c, 13, 59, 0
13, 43687, Control_c, 13, 11, 122
13, 43687, Note_on_c, 13, 60, 106
13, 43704, Control_c, 13, 11, 119
13, 43722, Control_c, 13, 11, 116
13, 43740, Control_c, 13, 11, 113
13, 43758, Control_c, 13, 11, 110
13, 43776, Control_c, 13, 11, 107
13, 43794, Control_c, 13, 11, 104
13, 44032, Note_on_c, 13, 60, 0
13, 44047, Note_on_c, 13, 61, 106
13, 44077, Note_on_c, 13, 61, 0
13, 44107, Note_on_c, 13, 61, 106
13, 44137, Note_on_c, 13, 61, 0
13, 44167, Control_c, 13, 11, 122
13, 44167, Note_on_c, 13, 62, 106
13, 44184, Control_c, 13, 11, 119
13, 44202, Control_c, 13, 11, 116
13, 44220, Control_c, 13, 11, 113
13, 44238, Control_c, 13, 11, 110
13, 44256, Control_c, 13, 11, 107
13, 44274, Control_c, 13, 11, 104
13, 44347, Note_on_c, 13, 62, 0
13, 44347, Note_on_c, 13, 61, 106
13, 44392, Note_on_c, 13, 61, 0
13, 44407, Note_on_c, 13, 62, 106
13, 44407, Control_c, 13, 11, 122
13, 44424, Control_c, 13, 11, 119
13, 44442, Control_c, 13, 11, 116
13, 44460, Control_c, 13, 11, 113
13, 44478, Control_c, 13, 11, 110
13, 44496, Control_c, 13, 11, 107
13, 44514, Control_c, 13, 11, 104
13, 44587, Note_on_c, 13, 62, 0
13, 44587, Note_on_c, 13, 61, 106
13, 44632, Note_on_c, 13, 61, 0
13, 44647, Note_on_c, 13, 62, 96
13, 44722, Control_c, 13, 11, 102
13, 44725, Control_c, 13, 11, 99
13, 44728, Control_c, 13, 11, 96
13, 44731, Control_c, 13, 11, 93
13, 44735, Control_c, 13, 11, 90
13, 44738, Control_c, 13, 11, 87
13, 44741, Control_c, 13, 11, 84
13, 44745, Control_c, 13, 11, 81
13, 44748, Control_c, 13, 11, 78
13, 44751, Control_c, 13, 11, 75
13, 44755, Control_c, 13, 11, 72
13, 44758, Control_c, 13, 11, 69
13, 44761, Control_c, 13, 11, 66
13, 44764, Control_c, 13, 11, 63
13, 44767, Note_on_c, 13, 62, 0
13, 45127, Note_on_c, 13, 64, 106
13, 45127, Control_c, 13, 11, 37
13, 45145, Control_c, 13, 11, 40
13, 45163, Control_c, 13, 11, 43
13, 45181, Control_c, 13, 11, 46
13, 45307, Note_on_c, 13, 64, 0
13, 45307, Note_on_c, 13, 63, 106
13, 45367, Note_on_c, 13, 63, 0
13, 45367, Note_on_c, 13, 64, 106
13, 45547, Note_on_c, 13, 64, 0
13, 45547, Note_on_c, 13, 63, 106
13, 45607, Note_on_c, 13, 63, 0
13, 45607, Note_on_c, 13, 64, 106
13, 45682, Control_c, 13, 11, 47
13, 45690, Control_c, 13, 11, 44
13, 45699, Control_c, 13, 11, 41
13, 45708, Control_c, 13, 11, 38
13, 45717, Control_c, 13, 11, 35
13, 45726, Control_c, 13, 11, 32
13, 45727, Note_on_c, 13, 64, 0
13, 46087, Note_on_c, 13, 65, 106
13, 46087, Control_c, 13, 11, 37
13, 46105, Control_c, 13, 11, 40
13, 46123, Control_c, 13, 11, 43
13, 46141, Control_c, 13, 11, 46
13, 46267, Note_on_c, 13, 65, 0
13, 46267, Note_on_c, 13, 64, 106
13, 46327, Note_on_c, 13, 64, 0
13, 46327, Note_on_c, 13, 65, 106
13, 46507, Note_on_c, 13, 65, 0
13, 46507, Note_on_c, 13, 64, 106
13, 46567, Note_on_c, 13, 64, 0
13, 46567, Note_on_c, 13, 65, 106
13, 46642, Control_c, 13, 11, 47
13, 46650, Control_c, 13, 11, 44
13, 46659, Control_c, 13, 11, 41
13, 46668, Control_c, 13, 11, 38
13, 46677, Control_c, 13, 11, 35
13, 46686, Control_c, 13, 11, 32
13, 46687, Note_on_c, 13, 65, 0
13, 47047, Note_on_c, 13, 53, 106
13, 47047, Control_c, 13, 11, 37
13, 47065, Control_c, 13, 11, 40
13, 47083, Control_c, 13, 11, 43
13, 47101, Control_c, 13, 11, 46
13, 47167, Note_on_c, 13, 53, 0
13, 47527, Control_c, 13, 11, 102
13, 47527, Note_on_c, 13, 58, 106
13, 47577, Note_on_c, 13, 58, 0
13, 47587, Note_on_c, 13, 58, 106
13, 47637, Note_on_c, 13, 58, 0
13, 47647, Note_on_c, 13, 58, 106
13, 47697, Note_on_c, 13, 58, 0
13, 47707, Note_on_c, 13, 58, 106
13, 47757, Note_on_c, 13, 58, 0
13, 47767, Note_on_c, 13, 58, 106
13, 47817, Note_on_c, 13, 58, 0
13, 47827, Note_on_c, 13, 58, 106
13, 47877, Note_on_c, 13, 58, 0
13, 47887, Note_on_c, 13, 58, 106
13, 47937, Note_on_c, 13, 58, 0
13, 47947, Note_on_c, 13, 58, 106
13, 47997, Note_on_c, 13, 58, 0
13, 48007, Note_on_c, 13, 46, 106
13, 48057, Note_on_c, 13, 46, 0
13, 48067, Note_on_c, 13, 46, 106
13, 48117, Note_on_c, 13, 46, 0
13, 48127, Note_on_c, 13, 46, 106
13, 48177, Note_on_c, 13, 46, 0
13, 48187, Note_on_c, 13, 46, 106
13, 48237, Note_on_c, 13, 46, 0
13, 48247, Note_on_c, 13, 46, 106
13, 48297, Note_on_c, 13, 46, 0
13, 48307, Note_on_c, 13, 46, 106
13, 48357, Note_on_c, 13, 46, 0
13, 48367, Note_on_c, 13, 46, 106
13, 48417, Note_on_c, 13, 46, 0
13, 48427, Note_on_c, 13, 46, 106
13, 48477, Note_on_c, 13, 46, 0
13, 48487, Note_on_c, 13, 46, 106
13, 48537, Note_on_c, 13, 46, 0
13, 48547, Note_on_c, 13, 46, 106
13, 48597, Note_on_c, 13, 46, 0
13, 48607, Note_on_c, 13, 46, 106
13, 48657, Note_on_c, 13, 46, 0
13, 48667, Note_on_c, 13, 46, 106
13, 48717, Note_on_c, 13, 46, 0
13, 48727, Note_on_c, 13, 46, 106
13, 48777, Note_on_c, 13, 46, 0
13, 48787, Note_on_c, 13, 46, 106
13, 48837, Note_on_c, 13, 46, 0
13, 48847, Note_on_c, 13, 46, 106
13, 48897, Note_on_c, 13, 46, 0
13, 48907, Note_on_c, 13, 46, 106
13, 48957, Note_on_c, 13, 46, 0
13, 48967, Note_on_c, 13, 46, 106
13, 49017, Note_on_c, 13, 46, 0
13, 49027, Note_on_c, 13, 46, 106
13, 49077, Note_on_c, 13, 46, 0
13, 49087, Note_on_c, 13, 46, 106
13, 49137, Note_on_c, 13, 46, 0
13, 49147, Note_on_c, 13, 46, 106
13, 49197, Note_on_c, 13, 46, 0
13, 49207, Note_on_c, 13, 46, 106
13, 49257, Note_on_c, 13, 46, 0
13, 49267, Note_on_c, 13, 46, 106
13, 49317, Note_on_c, 13, 46, 0
13, 49327, Note_on_c, 13, 46, 106
13, 49377, Note_on_c, 13, 46, 0
13, 49387, Note_on_c, 13, 46, 106
13, 49437, Note_on_c, 13, 46, 0
13, 49447, Note_on_c, 13, 46, 106
13, 49447, Control_c, 13, 11, 87
13, 49567, Note_on_c, 13, 46, 0
13, 49597, Control_c, 13, 11, 47
13, 49597, Note_on_c, 13, 46, 106
13, 49612, Note_on_c, 13, 46, 0
13, 49627, Note_on_c, 13, 48, 106
13, 49642, Note_on_c, 13, 48, 0
13, 49657, Note_on_c, 13, 50, 106
13, 49672, Note_on_c, 13, 50, 0
13, 49687, Note_on_c, 13, 51, 106
13, 49702, Note_on_c, 13, 51, 0
13, 49717, Note_on_c, 13, 53, 106
13, 49732, Note_on_c, 13, 53, 0
13, 49747, Note_on_c, 13, 55, 106
13, 49762, Note_on_c, 13, 55, 0
13, 49777, Note_on_c, 13, 57, 106
13, 49792, Note_on_c, 13, 57, 0
13, 49807, Note_on_c, 13, 58, 106
13, 49837, Note_on_c, 13, 58, 0
13, 49867, Note_on_c, 13, 58, 106
13, 49897, Note_on_c, 13, 58, 0
13, 49927, Note_on_c, 13, 60, 106
13, 50047, Note_on_c, 13, 60, 0
13, 50077, Note_on_c, 13, 48, 106
13, 50092, Note_on_c, 13, 48, 0
13, 50107, Note_on_c, 13, 50, 106
13, 50122, Note_on_c, 13, 50, 0
13, 50137, Note_on_c, 13, 51, 106
13, 50152, Note_on_c, 13, 51, 0
13, 50167, Note_on_c, 13, 53, 106
13, 50182, Note_on_c, 13, 53, 0
13, 50197, Note_on_c, 13, 55, 106
13, 50212, Note_on_c, 13, 55, 0
13, 50227, Note_on_c, 13, 57, 106
13, 50242, Note_on_c, 13, 57, 0
13, 50257, Note_on_c, 13, 58, 106
13, 50272, Note_on_c, 13, 58, 0
13, 50287, Note_on_c, 13, 60, 106
13, 50317, Note_on_c, 13, 60, 0
13, 50347, Note_on_c, 13, 60, 106
13, 50377, Note_on_c, 13, 60, 0
13, 50407, Note_on_c, 13, 62, 106
13, 50512, Note_on_c, 13, 62, 0
13, 50527, Note_on_c, 13, 62, 106
13, 50647, Note_on_c, 13, 62, 0
13, 50647, Note_on_c, 13, 63, 106
13, 50767, Note_on_c, 13, 63, 0
13, 50767, Note_on_c, 13, 64, 106
13, 50887, Note_on_c, 13, 64, 0
13, 50887, Note_on_c, 13, 65, 106
13, 51007, Note_on_c, 13, 65, 0
13, 51367, Note_on_c, 13, 60, 106
13, 51487, Note_on_c, 13, 60, 0
13, 51847, Note_on_c, 13, 53, 106
13, 51967, Note_on_c, 13, 53, 0
13, 51997, Note_on_c, 13, 53, 106
13, 52012, Note_on_c, 13, 53, 0
13, 52027, Note_on_c, 13, 55, 106
13, 52042, Note_on_c, 13, 55, 0
13, 52057, Note_on_c, 13, 57, 106
13, 52072, Note_on_c, 13, 57, 0
13, 52087, Note_on_c, 13, 58, 106
13, 52102, Note_on_c, 13, 58, 0
13, 52117, Note_on_c, 13, 60, 106
13, 52132, Note_on_c, 13, 60, 0
13, 52147, Note_on_c, 13, 62, 106
13, 52162, Note_on_c, 13, 62, 0
13, 52177, Note_on_c, 13, 64, 106
13, 52192, Note_on_c, 13, 64, 0
13, 52207, Note_on_c, 13, 65, 106
13, 52237, Note_on_c, 13, 65, 0
13, 52267, Note_on_c, 13, 65, 106
13, 52297, Note_on_c, 13, 65, 0
13, 52327, Note_on_c, 13, 67, 106
13, 52447, Note_on_c, 13, 67, 0
13, 52477, Note_on_c, 13, 55, 106
13, 52492, Note_on_c, 13, 55, 0
13, 52507, Note_on_c, 13, 57, 106
13, 52522, Note_on_c, 13, 57, 0
13, 52537, Note_on_c, 13, 58, 106
13, 52552, Note_on_c, 13, 58, 0
13, 52567, Note_on_c, 13, 60, 106
13, 52582, Note_on_c, 13, 60, 0
13, 52597, Note_on_c, 13, 62, 106
13, 52612, Note_on_c, 13, 62, 0
13, 52627, Note_on_c, 13, 64, 106
13, 52642, Note_on_c, 13, 64, 0
13, 52657, Note_on_c, 13, 65, 106
13, 52672, Note_on_c, 13, 65, 0
13, 52687, Note_on_c, 13, 67, 106
13, 52717, Note_on_c, 13, 67, 0
13, 52747, Note_on_c, 13, 67, 106
13, 52777, Note_on_c, 13, 67, 0
13, 52807, Note_on_c, 13, 69, 106
13, 52867, Note_on_c, 13, 69, 0
13, 52927, Note_on_c, 13, 52, 106
13, 52987, Note_on_c, 13, 52, 0
13, 53047, Note_on_c, 13, 49, 106
13, 53107, Note_on_c, 13, 49, 0
13, 53167, Note_on_c, 13, 45, 106
13, 53227, Note_on_c, 13, 45, 0
13, 53287, Note_on_c, 13, 62, 106
13, 53347, Note_on_c, 13, 62, 0
13, 53407, Note_on_c, 13, 57, 106
13, 53467, Note_on_c, 13, 57, 0
13, 53527, Note_on_c, 13, 54, 106
13, 53587, Note_on_c, 13, 54, 0
13, 53647, Note_on_c, 13, 50, 106
13, 53707, Note_on_c, 13, 50, 0
13, 53767, Note_on_c, 13, 55, 106
13, 53827, Note_on_c, 13, 55, 0
13, 53887, Note_on_c, 13, 50, 106
13, 53947, Note_on_c, 13, 50, 0
13, 54007, Note_on_c, 13, 47, 106
13, 54067, Note_on_c, 13, 47, 0
13, 54127, Note_on_c, 13, 43, 106
13, 54187, Note_on_c, 13, 43, 0
13, 54247, Note_on_c, 13, 60, 106
13, 54307, Note_on_c, 13, 60, 0
13, 54367, Note_on_c, 13, 55, 106
13, 54427, Note_on_c, 13, 55, 0
13, 54487, Note_on_c, 13, 52, 106
13, 54547, Note_on_c, 13, 52, 0
13, 54607, Note_on_c, 13, 48, 106
13, 54667, Note_on_c, 13, 48, 0
13, 54727, Note_on_c, 13, 41, 106
13, 54727, Control_c, 13, 11, 47
13, 54751, Control_c, 13, 11, 49
13, 54775, Control_c, 13, 11, 51
13, 54777, Note_on_c, 13, 41, 0
13, 54787, Note_on_c, 13, 53, 106
13, 54799, Control_c, 13, 11, 53
13, 54823, Control_c, 13, 11, 55
13, 54837, Note_on_c, 13, 53, 0
13, 54847, Note_on_c, 13, 53, 106
13, 54847, Control_c, 13, 11, 57
13, 54871, Control_c, 13, 11, 59
13, 54895, Control_c, 13, 11, 61
13, 54897, Note_on_c, 13, 53, 0
13, 54907, Note_on_c, 13, 53, 106
13, 54919, Control_c, 13, 11, 63
13, 54943, Control_c, 13, 11, 65
13, 54957, Note_on_c, 13, 53, 0
13, 54967, Note_on_c, 13, 53, 106
13, 54967, Control_c, 13, 11, 67
13, 54991, Control_c, 13, 11, 69
13, 55015, Control_c, 13, 11, 71
13, 55017, Note_on_c, 13, 53, 0
13, 55027, Note_on_c, 13, 53, 106
13, 55039, Control_c, 13, 11, 73
13, 55063, Control_c, 13, 11, 75
13, 55077, Note_on_c, 13, 53, 0
13, 55087, Note_on_c, 13, 53, 106
13, 55087, Control_c, 13, 11, 77
13, 55111, Control_c, 13, 11, 79
13, 55135, Control_c, 13, 11, 81
13, 55137, Note_on_c, 13, 53, 0
13, 55147, Note_on_c, 13, 54, 106
13, 55159, Control_c, 13, 11, 83
13, 55183, Control_c, 13, 11, 85
13, 55197, Note_on_c, 13, 54, 0
13, 55207, Note_on_c, 13, 55, 106
13, 55207, Control_c, 13, 11, 87
13, 55237, Note_on_c, 13, 55, 0
13, 55267, Note_on_c, 13, 55, 106
13, 55297, Note_on_c, 13, 55, 0
13, 55327, Note_on_c, 13, 59, 106
13, 55357, Note_on_c, 13, 59, 0
13, 55387, Note_on_c, 13, 60, 106
13, 55417, Note_on_c, 13, 60, 0
13, 55447, Note_on_c, 13, 62, 106
13, 55477, Note_on_c, 13, 62, 0
13, 55507, Note_on_c, 13, 64, 106
13, 55537, Note_on_c, 13, 64, 0
13, 55567, Note_on_c, 13, 65, 106
13, 55567, Control_c, 13, 11, 107
13, 55585, Control_c, 13, 11, 104
13, 55603, Control_c, 13, 11, 101
13, 55621, Control_c, 13, 11, 98
13, 55639, Control_c, 13, 11, 95
13, 55657, Control_c, 13, 11, 92
13, 55675, Control_c, 13, 11, 89
13, 55747, Note_on_c, 13, 65, 0
13, 55747, Note_on_c, 13, 64, 106
13, 55797, Note_on_c, 13, 64, 0
13, 55807, Note_on_c, 13, 67, 106
13, 55837, Note_on_c, 13, 67, 0
13, 55867, Note_on_c, 13, 64, 106
13, 55897, Note_on_c, 13, 64, 0
13, 55927, Note_on_c, 13, 60, 106
13, 55957, Note_on_c, 13, 60, 0
13, 55987, Note_on_c, 13, 60, 106
13, 56017, Note_on_c, 13, 60, 0
13, 56047, Note_on_c, 13, 64, 106
13, 56077, Note_on_c, 13, 64, 0
13, 56107, Note_on_c, 13, 60, 106
13, 56137, Note_on_c, 13, 60, 0
13, 56167, Control_c, 13, 11, 102
13, 56167, Note_on_c, 13, 55, 106
13, 56197, Note_on_c, 13, 55, 0
13, 56227, Note_on_c, 13, 55, 106
13, 56257, Note_on_c, 13, 55, 0
13, 56287, Note_on_c, 13, 59, 106
13, 56317, Note_on_c, 13, 59, 0
13, 56347, Note_on_c, 13, 60, 106
13, 56377, Note_on_c, 13, 60, 0
13, 56407, Note_on_c, 13, 62, 106
13, 56437, Note_on_c, 13, 62, 0
13, 56467, Note_on_c, 13, 63, 106
13, 56497, Note_on_c, 13, 63, 0
13, 56527, Control_c, 13, 11, 122
13, 56527, Note_on_c, 13, 65, 106
13, 56545, Control_c, 13, 11, 119
13, 56563, Control_c, 13, 11, 116
13, 56581, Control_c, 13, 11, 113
13, 56599, Control_c, 13, 11, 110
13, 56617, Control_c, 13, 11, 107
13, 56635, Control_c, 13, 11, 104
13, 56707, Note_on_c, 13, 65, 0
13, 56707, Note_on_c, 13, 63, 106
13, 56737, Note_on_c, 13, 63, 0
13, 56767, Note_on_c, 13, 67, 106
13, 56797, Note_on_c, 13, 67, 0
13, 56827, Note_on_c, 13, 63, 106
13, 56857, Note_on_c, 13, 63, 0
13, 56887, Note_on_c, 13, 60, 106
13, 56917, Note_on_c, 13, 60, 0
13, 56947, Note_on_c, 13, 60, 106
13, 56977, Note_on_c, 13, 60, 0
13, 57007, Note_on_c, 13, 63, 106
13, 57037, Note_on_c, 13, 63, 0
13, 57067, Note_on_c, 13, 60, 106
13, 57097, Note_on_c, 13, 60, 0
13, 57127, Note_on_c, 13, 43, 106
13, 57232, Note_on_c, 13, 43, 0
13, 57247, Note_on_c, 13, 55, 106
13, 57247, Control_c, 13, 11, 122
13, 57265, Control_c, 13, 11, 119
13, 57283, Control_c, 13, 11, 116
13, 57301, Control_c, 13, 11, 113
13, 57319, Control_c, 13, 11, 110
13, 57337, Control_c, 13, 11, 107
13, 57355, Control_c, 13, 11, 104
13, 57507, Note_on_c, 13, 55, 0
13, 57517, Note_on_c, 13, 43, 106
13, 57532, Note_on_c, 13, 43, 0
13, 57547, Note_on_c, 13, 45, 106
13, 57562, Note_on_c, 13, 45, 0
13, 57577, Note_on_c, 13, 47, 106
13, 57592, Note_on_c, 13, 47, 0
13, 57607, Note_on_c, 13, 48, 106
13, 57622, Note_on_c, 13, 48, 0
13, 57637, Note_on_c, 13, 50, 106
13, 57652, Note_on_c, 13, 50, 0
13, 57667, Note_on_c, 13, 52, 106
13, 57682, Note_on_c, 13, 52, 0
13, 57697, Note_on_c, 13, 54, 106
13, 57712, Note_on_c, 13, 54, 0
13, 57727, Note_on_c, 13, 55, 106
13, 57757, Note_on_c, 13, 55, 0
13, 57787, Note_on_c, 13, 55, 106
13, 57817, Note_on_c, 13, 55, 0
13, 57847, Control_c, 13, 11, 122
13, 57847, Note_on_c, 13, 55, 106
13, 57865, Control_c, 13, 11, 119
13, 57883, Control_c, 13, 11, 116
13, 57901, Control_c, 13, 11, 113
13, 57919, Control_c, 13, 11, 110
13, 57937, Control_c, 13, 11, 107
13, 57955, Control_c, 13, 11, 104
13, 57987, Note_on_c, 13, 55, 0
13, 57997, Note_on_c, 13, 47, 106
13, 58012, Note_on_c, 13, 47, 0
13, 58027, Note_on_c, 13, 48, 106
13, 58042, Note_on_c, 13, 48, 0
13, 58057, Note_on_c, 13, 50, 106
13, 58072, Note_on_c, 13, 50, 0
13, 58087, Note_on_c, 13, 52, 106
13, 58102, Note_on_c, 13, 52, 0
13, 58117, Note_on_c, 13, 54, 106
13, 58132, Note_on_c, 13, 54, 0
13, 58147, Note_on_c, 13, 55, 106
13, 58162, Note_on_c, 13, 55, 0
13, 58177, Note_on_c, 13, 57, 106
13, 58192, Note_on_c, 13, 57, 0
13, 58207, Note_on_c, 13, 59, 106
13, 58237, Note_on_c, 13, 59, 0
13, 58267, Note_on_c, 13, 59, 106
13, 58297, Note_on_c, 13, 59, 0
13, 58327, Note_on_c, 13, 59, 106
13, 58327, Control_c, 13, 11, 122
13, 58345, Control_c, 13, 11, 119
13, 58363, Control_c, 13, 11, 116
13, 58381, Control_c, 13, 11, 113
13, 58399, Control_c, 13, 11, 110
13, 58417, Control_c, 13, 11, 107
13, 58435, Control_c, 13, 11, 104
13, 58467, Note_on_c, 13, 59, 0
13, 58477, Note_on_c, 13, 50, 106
13, 58492, Note_on_c, 13, 50, 0
13, 58507, Note_on_c, 13, 52, 106
13, 58522, Note_on_c, 13, 52, 0
13, 58537, Note_on_c, 13, 54, 106
13, 58552, Note_on_c, 13, 54, 0
13, 58567, Note_on_c, 13, 55, 106
13, 58582, Note_on_c, 13, 55, 0
13, 58597, Note_on_c, 13, 57, 106
13, 58612, Note_on_c, 13, 57, 0
13, 58627, Note_on_c, 13, 59, 106
13, 58642, Note_on_c, 13, 59, 0
13, 58657, Note_on_c, 13, 60, 106
13, 58672, Note_on_c, 13, 60, 0
13, 58687, Note_on_c, 13, 62, 106
13, 58717, Note_on_c, 13, 62, 0
13, 58747, Note_on_c, 13, 62, 106
13, 58777, Note_on_c, 13, 62, 0
13, 58807, Note_on_c, 13, 62, 106
13, 58837, Note_on_c, 13, 62, 0
13, 58867, Note_on_c, 13, 60, 106
13, 58897, Note_on_c, 13, 60, 0
13, 58927, Note_on_c, 13, 59, 106
13, 58957, Note_on_c, 13, 59, 0
13, 58987, Note_on_c, 13, 57, 106
13, 59017, Note_on_c, 13, 57, 0
13, 59047, Note_on_c, 13, 55, 106
13, 59107, Note_on_c, 13, 55, 0
13, 59107, Note_on_c, 13, 54, 106
13, 59167, Note_on_c, 13, 54, 0
13, 59167, Note_on_c, 13, 55, 106
13, 59227, Note_on_c, 13, 55, 0
13, 59227, Note_on_c, 13, 54, 106
13, 59277, Note_on_c, 13, 54, 0
13, 59287, Note_on_c, 13, 55, 106
13, 59347, Note_on_c, 13, 55, 0
13, 59347, Note_on_c, 13, 54, 106
13, 59407, Note_on_c, 13, 54, 0
13, 59407, Note_on_c, 13, 55, 106
13, 59467, Note_on_c, 13, 55, 0
13, 59467, Note_on_c, 13, 54, 106
13, 59517, Note_on_c, 13, 54, 0
13, 59527, Note_on_c, 13, 55, 106
13, 59587, Note_on_c, 13, 55, 0
13, 59587, Note_on_c, 13, 54, 106
13, 59647, Note_on_c, 13, 54, 0
13, 59647, Note_on_c, 13, 55, 106
13, 59707, Note_on_c, 13, 55, 0
13, 59707, Note_on_c, 13, 54, 106
13, 59757, Note_on_c, 13, 54, 0
13, 59767, Note_on_c, 13, 55, 106
13, 59827, Note_on_c, 13, 55, 0
13, 59827, Note_on_c, 13, 54, 106
13, 59887, Note_on_c, 13, 54, 0
13, 59887, Note_on_c, 13, 55, 106
13, 59947, Note_on_c, 13, 55, 0
13, 59947, Note_on_c, 13, 54, 106
13, 59997, Note_on_c, 13, 54, 0
13, 60007, Note_on_c, 13, 55, 106
13, 60127, Note_on_c, 13, 55, 0
13, 60967, Note_on_c, 13, 48, 106
13, 60967, Control_c, 13, 11, 47
13, 61087, Note_on_c, 13, 48, 0
13, 61207, Note_on_c, 13, 48, 106
13, 61327, Note_on_c, 13, 48, 0
13, 61447, Note_on_c, 13, 48, 106
13, 61567, Note_on_c, 13, 48, 0
13, 61687, Note_on_c, 13, 48, 106
13, 61807, Note_on_c, 13, 48, 0
13, 61807, Note_on_c, 13, 48, 106
13, 61927, Note_on_c, 13, 48, 0
13, 61927, Note_on_c, 13, 48, 106
13, 62047, Note_on_c, 13, 48, 0
13, 62167, Note_on_c, 13, 50, 106
13, 62287, Note_on_c, 13, 50, 0
13, 62407, Note_on_c, 13, 55, 91
13, 62527, Note_on_c, 13, 55, 0
13, 62707, Note_on_c, 13, 57, 106
13, 62737, Note_on_c, 13, 57, 0
13, 62767, Note_on_c, 13, 59, 106
13, 62797, Note_on_c, 13, 59, 0
13, 62827, Note_on_c, 13, 61, 106
13, 62857, Note_on_c, 13, 61, 0
13, 62887, Note_on_c, 13, 62, 106
13, 62917, Note_on_c, 13, 62, 0
13, 62947, Note_on_c, 13, 64, 106
13, 62977, Note_on_c, 13, 64, 0
13, 63007, Note_on_c, 13, 65, 106
13, 63037, Note_on_c, 13, 65, 0
13, 63187, Note_on_c, 13, 55, 106
13, 63217, Note_on_c, 13, 55, 0
13, 63247, Note_on_c, 13, 57, 106
13, 63277, Note_on_c, 13, 57, 0
13, 63307, Note_on_c, 13, 59, 106
13, 63337, Note_on_c, 13, 59, 0
13, 63367, Note_on_c, 13, 60, 106
13, 63397, Note_on_c, 13, 60, 0
13, 63427, Note_on_c, 13, 62, 106
13, 63457, Note_on_c, 13, 62, 0
13, 63487, Note_on_c, 13, 64, 106
13, 63517, Note_on_c, 13, 64, 0
13, 63667, Note_on_c, 13, 48, 106
13, 63697, Note_on_c, 13, 48, 0
13, 63727, Note_on_c, 13, 50, 106
13, 63757, Note_on_c, 13, 50, 0
13, 63787, Note_on_c, 13, 52, 106
13, 63817, Note_on_c, 13, 52, 0
13, 63847, Note_on_c, 13, 53, 106
13, 63877, Note_on_c, 13, 53, 0
13, 63907, Note_on_c, 13, 52, 106
13, 63937, Note_on_c, 13, 52, 0
13, 63967, Note_on_c, 13, 50, 106
13, 63997, Note_on_c, 13, 50, 0
13, 64027, Note_on_c, 13, 53, 106
13, 64057, Note_on_c, 13, 53, 0
13, 64087, Note_on_c, 13, 55, 106
13, 64117, Note_on_c, 13, 55, 0
13, 64147, Note_on_c, 13, 54, 106
13, 64177, Note_on_c, 13, 54, 0
13, 64207, Note_on_c, 13, 55, 106
13, 64237, Note_on_c, 13, 55, 0
13, 64267, Note_on_c, 13, 43, 106
13, 64297, Note_on_c, 13, 43, 0
13, 64327, Note_on_c, 13, 48, 106
13, 64357, Note_on_c, 13, 48, 0
13, 64387, Note_on_c, 13, 55, 106
13, 64417, Note_on_c, 13, 55, 0
13, 64447, Note_on_c, 13, 60, 106
13, 64477, Note_on_c, 13, 60, 0
13, 64567, Note_on_c, 13, 57, 106
13, 64567, Control_c, 13, 11, 47
13, 64591, Control_c, 13, 11, 48
13, 64615, Control_c, 13, 11, 49
13, 64639, Control_c, 13, 11, 50
13, 64663, Control_c, 13, 11, 51
13, 64687, Note_on_c, 13, 57, 0
13, 64687, Control_c, 13, 11, 52
13, 64711, Control_c, 13, 11, 53
13, 64735, Control_c, 13, 11, 54
13, 64759, Control_c, 13, 11, 55
13, 64783, Control_c, 13, 11, 56
13, 64807, Note_on_c, 13, 62, 106
13, 64807, Control_c, 13, 11, 57
13, 64831, Control_c, 13, 11, 58
13, 64855, Control_c, 13, 11, 59
13, 64879, Control_c, 13, 11, 60
13, 64903, Control_c, 13, 11, 61
13, 64927, Note_on_c, 13, 62, 0
13, 64927, Control_c, 13, 11, 62
13, 64951, Control_c, 13, 11, 63
13, 64975, Control_c, 13, 11, 64
13, 64999, Control_c, 13, 11, 65
13, 65023, Control_c, 13, 11, 66
13, 65047, Note_on_c, 13, 55, 106
13, 65047, Control_c, 13, 11, 67
13, 65071, Control_c, 13, 11, 68
13, 65095, Control_c, 13, 11, 69
13, 65119, Control_c, 13, 11, 70
13, 65143, Control_c, 13, 11, 71
13, 65167, Note_on_c, 13, 55, 0
13, 65167, Control_c, 13, 11, 72
13, 65191, Control_c, 13, 11, 73
13, 65215, Control_c, 13, 11, 74
13, 65239, Control_c, 13, 11, 75
13, 65263, Control_c, 13, 11, 76
13, 65287, Note_on_c, 13, 60, 106
13, 65287, Control_c, 13, 11, 77
13, 65311, Control_c, 13, 11, 78
13, 65335, Control_c, 13, 11, 79
13, 65359, Control_c, 13, 11, 80
13, 65383, Control_c, 13, 11, 81
13, 65407, Note_on_c, 13, 60, 0
13, 65407, Control_c, 13, 11, 82
13, 65431, Control_c, 13, 11, 83
13, 65455, Control_c, 13, 11, 84
13, 65479, Control_c, 13, 11, 85
13, 65503, Control_c, 13, 11, 86
13, 65527, Control_c, 13, 11, 87
13, 65587, Note_on_c, 13, 50, 106
13, 65617, Note_on_c, 13, 50, 0
13, 65647, Note_on_c, 13, 52, 106
13, 65677, Note_on_c, 13, 52, 0
13, 65707, Note_on_c, 13, 54, 106
13, 65737, Note_on_c, 13, 54, 0
13, 65767, Note_on_c, 13, 55, 106
13, 65797, Note_on_c, 13, 55, 0
13, 65827, Note_on_c, 13, 57, 106
13, 65857, Note_on_c, 13, 57, 0
13, 65887, Note_on_c, 13, 58, 106
13, 65917, Note_on_c, 13, 58, 0
13, 66067, Note_on_c, 13, 48, 106
13, 66097, Note_on_c, 13, 48, 0
13, 66127, Note_on_c, 13, 50, 106
13, 66157, Note_on_c, 13, 50, 0
13, 66187, Note_on_c, 13, 52, 106
13, 66217, Note_on_c, 13, 52, 0
13, 66247, Note_on_c, 13, 53, 106
13, 66277, Note_on_c, 13, 53, 0
13, 66307, Note_on_c, 13, 55, 106
13, 66337, Note_on_c, 13, 55, 0
13, 66367, Note_on_c, 13, 57, 106
13, 66397, Note_on_c, 13, 57, 0
13, 66547, Note_on_c, 13, 53, 106
13, 66577, Note_on_c, 13, 53, 0
13, 66607, Note_on_c, 13, 55, 106
13, 66637, Note_on_c, 13, 55, 0
13, 66667, Note_on_c, 13, 57, 106
13, 66697, Note_on_c, 13, 57, 0
13, 66727, Note_on_c, 13, 58, 106
13, 66777, Note_on_c, 13, 58, 0
13, 66787, Note_on_c, 13, 58, 106
13, 66837, Note_on_c, 13, 58, 0
13, 66847, Note_on_c, 13, 58, 106
13, 66897, Note_on_c, 13, 58, 0
13, 66907, Note_on_c, 13, 58, 106
13, 66957, Note_on_c, 13, 58, 0
13, 66967, Note_on_c, 13, 59, 106
13, 67017, Note_on_c, 13, 59, 0
13, 67027, Note_on_c, 13, 59, 106
13, 67077, Note_on_c, 13, 59, 0
13, 67087, Note_on_c, 13, 59, 106
13, 67137, Note_on_c, 13, 59, 0
13, 67147, Note_on_c, 13, 59, 106
13, 67197, Note_on_c, 13, 59, 0
13, 67207, Note_on_c, 13, 60, 91
13, 67327, Note_on_c, 13, 60, 0
13, 67687, Control_c, 13, 11, 47
13, 67687, Note_on_c, 13, 53, 106
13, 67747, Note_on_c, 13, 53, 0
13, 67807, Note_on_c, 13, 48, 106
13, 67867, Note_on_c, 13, 48, 0
13, 67927, Note_on_c, 13, 55, 106
13, 67987, Note_on_c, 13, 55, 0
13, 68047, Note_on_c, 13, 48, 106
13, 68107, Note_on_c, 13, 48, 0
13, 68167, Note_on_c, 13, 57, 106
13, 68227, Note_on_c, 13, 57, 0
13, 68287, Note_on_c, 13, 48, 106
13, 68347, Note_on_c, 13, 48, 0
13, 68407, Note_on_c, 13, 52, 106
13, 68467, Note_on_c, 13, 52, 0
13, 68527, Note_on_c, 13, 48, 106
13, 68587, Note_on_c, 13, 48, 0
13, 68647, Note_on_c, 13, 53, 106
13, 68707, Note_on_c, 13, 53, 0
13, 68767, Note_on_c, 13, 48, 106
13, 68827, Note_on_c, 13, 48, 0
13, 68887, Note_on_c, 13, 55, 106
13, 68947, Note_on_c, 13, 55, 0
13, 69007, Note_on_c, 13, 48, 106
13, 69067, Note_on_c, 13, 48, 0
13, 69127, Note_on_c, 13, 57, 106
13, 69187, Note_on_c, 13, 57, 0
13, 69247, Note_on_c, 13, 53, 106
13, 69307, Note_on_c, 13, 53, 0
13, 69367, Note_on_c, 13, 59, 106
13, 69427, Note_on_c, 13, 59, 0
13, 69487, Note_on_c, 13, 55, 106
13, 69547, Note_on_c, 13, 55, 0
13, 69607, Note_on_c, 13, 60, 106
13, 69667, Note_on_c, 13, 60, 0
13, 69727, Note_on_c, 13, 55, 106
13, 69787, Note_on_c, 13, 55, 0
13, 69847, Note_on_c, 13, 62, 106
13, 69907, Note_on_c, 13, 62, 0
13, 69967, Note_on_c, 13, 55, 106
13, 70027, Note_on_c, 13, 55, 0
13, 70087, Note_on_c, 13, 64, 106
13, 70147, Note_on_c, 13, 64, 0
13, 70207, Note_on_c, 13, 55, 106
13, 70267, Note_on_c, 13, 55, 0
13, 70327, Note_on_c, 13, 59, 106
13, 70387, Note_on_c, 13, 59, 0
13, 70447, Note_on_c, 13, 55, 106
13, 70507, Note_on_c, 13, 55, 0
13, 70567, Control_c, 13, 11, 47
13, 70567, Note_on_c, 13, 60, 106
13, 70603, Control_c, 13, 11, 48
13, 70627, Note_on_c, 13, 60, 0
13, 70639, Control_c, 13, 11, 49
13, 70675, Control_c, 13, 11, 50
13, 70687, Note_on_c, 13, 55, 106
13, 70711, Control_c, 13, 11, 51
13, 70747, Note_on_c, 13, 55, 0
13, 70747, Control_c, 13, 11, 52
13, 70783, Control_c, 13, 11, 53
13, 70807, Note_on_c, 13, 62, 106
13, 70819, Control_c, 13, 11, 54
13, 70855, Control_c, 13, 11, 55
13, 70867, Note_on_c, 13, 62, 0
13, 70891, Control_c, 13, 11, 56
13, 70927, Note_on_c, 13, 55, 106
13, 70927, Control_c, 13, 11, 57
13, 70963, Control_c, 13, 11, 58
13, 70987, Note_on_c, 13, 55, 0
13, 70999, Control_c, 13, 11, 59
13, 71035, Control_c, 13, 11, 60
13, 71047, Note_on_c, 13, 64, 106
13, 71071, Control_c, 13, 11, 61
13, 71107, Note_on_c, 13, 64, 0
13, 71107, Control_c, 13, 11, 62
13, 71143, Control_c, 13, 11, 63
13, 71167, Note_on_c, 13, 48, 106
13, 71179, Control_c, 13, 11, 64
13, 71215, Control_c, 13, 11, 65
13, 71227, Note_on_c, 13, 48, 0
13, 71251, Control_c, 13, 11, 66
13, 71287, Note_on_c, 13, 53, 106
13, 71287, Control_c, 13, 11, 67
13, 71323, Control_c, 13, 11, 68
13, 71347, Note_on_c, 13, 53, 0
13, 71359, Control_c, 13, 11, 69
13, 71395, Control_c, 13, 11, 70
13, 71407, Note_on_c, 13, 48, 106
13, 71431, Control_c, 13, 11, 71
13, 71467, Note_on_c, 13, 48, 0
13, 71467, Control_c, 13, 11, 72
13, 71503, Control_c, 13, 11, 73
13, 71527, Note_on_c, 13, 55, 106
13, 71539, Control_c, 13, 11, 74
13, 71575, Control_c, 13, 11, 75
13, 71587, Note_on_c, 13, 55, 0
13, 71611, Control_c, 13, 11, 76
13, 71647, Control_c, 13, 11, 77
13, 71647, Note_on_c, 13, 48, 106
13, 71683, Control_c, 13, 11, 78
13, 71707, Note_on_c, 13, 48, 0
13, 71719, Control_c, 13, 11, 79
13, 71755, Control_c, 13, 11, 80
13, 71767, Note_on_c, 13, 57, 106
13, 71791, Control_c, 13, 11, 81
13, 71827, Note_on_c, 13, 57, 0
13, 71827, Control_c, 13, 11, 82
13, 71863, Control_c, 13, 11, 83
13, 71887, Note_on_c, 13, 48, 106
13, 71899, Control_c, 13, 11, 84
13, 71935, Control_c, 13, 11, 85
13, 71947, Note_on_c, 13, 48, 0
13, 71971, Control_c, 13, 11, 86
13, 72007, Control_c, 13, 11, 92
13, 72007, Note_on_c, 13, 55, 106
13, 72011, Control_c, 13, 11, 95
13, 72015, Control_c, 13, 11, 98
13, 72019, Control_c, 13, 11, 101
13, 72033, Control_c, 13, 11, 98
13, 72042, Control_c, 13, 11, 95
13, 72051, Control_c, 13, 11, 92
13, 72057, Note_on_c, 13, 55, 0
13, 72060, Control_c, 13, 11, 89
13, 72067, Note_on_c, 13, 67, 106
13, 72117, Note_on_c, 13, 67, 0
13, 72127, Note_on_c, 13, 67, 106
13, 72177, Note_on_c, 13, 67, 0
13, 72187, Note_on_c, 13, 67, 106
13, 72237, Note_on_c, 13, 67, 0
13, 72237, Control_c, 13, 11, 92
13, 72247, Note_on_c, 13, 55, 106
13, 72248, Control_c, 13, 11, 95
13, 72260, Control_c, 13, 11, 98
13, 72272, Control_c, 13, 11, 101
13, 72288, Control_c, 13, 11, 100
13, 72297, Note_on_c, 13, 55, 0
13, 72306, Control_c, 13, 11, 97
13, 72307, Note_on_c, 13, 67, 106
13, 72324, Control_c, 13, 11, 94
13, 72342, Control_c, 13, 11, 91
13, 72357, Note_on_c, 13, 67, 0
13, 72360, Control_c, 13, 11, 88
13, 72367, Note_on_c, 13, 67, 106
13, 72417, Note_on_c, 13, 67, 0
13, 72427, Note_on_c, 13, 67, 106
13, 72477, Note_on_c, 13, 67, 0
13, 72487, Note_on_c, 13, 54, 106
13, 72487, Control_c, 13, 11, 92
13, 72495, Control_c, 13, 11, 95
13, 72504, Control_c, 13, 11, 98
13, 72513, Control_c, 13, 11, 101
13, 72528, Control_c, 13, 11, 100
13, 72537, Note_on_c, 13, 54, 0
13, 72546, Control_c, 13, 11, 97
13, 72547, Note_on_c, 13, 66, 106
13, 72564, Control_c, 13, 11, 94
13, 72582, Control_c, 13, 11, 91
13, 72597, Note_on_c, 13, 66, 0
13, 72600, Control_c, 13, 11, 88
13, 72607, Note_on_c, 13, 66, 106
13, 72657, Note_on_c, 13, 66, 0
13, 72667, Note_on_c, 13, 66, 106
13, 72717, Note_on_c, 13, 66, 0
13, 72727, Control_c, 13, 11, 92
13, 72727, Note_on_c, 13, 53, 106
13, 72735, Control_c, 13, 11, 95
13, 72744, Control_c, 13, 11, 98
13, 72753, Control_c, 13, 11, 101
13, 72768, Control_c, 13, 11, 100
13, 72777, Note_on_c, 13, 53, 0
13, 72786, Control_c, 13, 11, 97
13, 72787, Note_on_c, 13, 65, 106
13, 72804, Control_c, 13, 11, 94
13, 72822, Control_c, 13, 11, 91
13, 72837, Note_on_c, 13, 65, 0
13, 72840, Control_c, 13, 11, 88
13, 72847, Note_on_c, 13, 65, 106
13, 72897, Note_on_c, 13, 65, 0
13, 72907, Note_on_c, 13, 65, 106
13, 72957, Note_on_c, 13, 65, 0
13, 72967, Note_on_c, 13, 52, 106
13, 73017, Note_on_c, 13, 52, 0
13, 73027, Note_on_c, 13, 52, 106
13, 73077, Note_on_c, 13, 52, 0
13, 73087, Note_on_c, 13, 50, 106
13, 73087, Control_c, 13, 11, 102
13, 73137, Note_on_c, 13, 50, 0
13, 73147, Note_on_c, 13, 50, 106
13, 73197, Note_on_c, 13, 50, 0
13, 73207, Note_on_c, 13, 50, 106
13, 73257, Note_on_c, 13, 50, 0
13, 73267, Note_on_c, 13, 50, 106
13, 73317, Note_on_c, 13, 50, 0
13, 73327, Note_on_c, 13, 50, 106
13, 73377, Note_on_c, 13, 50, 0
13, 73387, Note_on_c, 13, 50, 106
13, 73437, Note_on_c, 13, 50, 0
13, 73447, Note_on_c, 13, 48, 106
13, 73497, Note_on_c, 13, 48, 0
13, 73507, Note_on_c, 13, 48, 106
13, 73557, Note_on_c, 13, 48, 0
13, 73567, Note_on_c, 13, 53, 106
13, 73617, Note_on_c, 13, 53, 0
13, 73627, Note_on_c, 13, 53, 106
13, 73677, Note_on_c, 13, 53, 0
13, 73687, Note_on_c, 13, 55, 106
13, 73737, Note_on_c, 13, 55, 0
13, 73747, Note_on_c, 13, 55, 106
13, 73797, Note_on_c, 13, 55, 0
13, 73807, Note_on_c, 13, 43, 106
13, 73857, Note_on_c, 13, 43, 0
13, 73867, Note_on_c, 13, 43, 106
13, 73917, Note_on_c, 13, 43, 0
13, 73927, Note_on_c, 13, 48, 106
13, 73987, Note_on_c, 13, 48, 0
13, 74227, Control_c, 13, 11, 122
13, 74227, Note_on_c, 13, 53, 106
13, 74244, Control_c, 13, 11, 119
13, 74262, Control_c, 13, 11, 116
13, 74280, Control_c, 13, 11, 113
13, 74298, Control_c, 13, 11, 110
13, 74316, Control_c, 13, 11, 107
13, 74327, Note_on_c, 13, 53, 0
13, 74334, Control_c, 13, 11, 104
13, 74347, Note_on_c, 13, 53, 106
13, 74397, Note_on_c, 13, 53, 0
13, 74407, Note_on_c, 13, 55, 106
13, 74467, Note_on_c, 13, 55, 0
13, 74707, Control_c, 13, 11, 122
13, 74707, Note_on_c, 13, 43, 106
13, 74724, Control_c, 13, 11, 119
13, 74742, Control_c, 13, 11, 116
13, 74760, Control_c, 13, 11, 113
13, 74778, Control_c, 13, 11, 110
13, 74796, Control_c, 13, 11, 107
13, 74807, Note_on_c, 13, 43, 0
13, 74814, Control_c, 13, 11, 104
13, 74827, Note_on_c, 13, 43, 106
13, 74877, Note_on_c, 13, 43, 0
13, 74887, Note_on_c, 13, 48, 106
13, 74947, Note_on_c, 13, 48, 0
13, 75187, Note_on_c, 13, 53, 106
13, 75187, Control_c, 13, 11, 122
13, 75204, Control_c, 13, 11, 119
13, 75222, Control_c, 13, 11, 116
13, 75240, Control_c, 13, 11, 113
13, 75258, Control_c, 13, 11, 110
13, 75276, Control_c, 13, 11, 107
13, 75287, Note_on_c, 13, 53, 0
13, 75294, Control_c, 13, 11, 104
13, 75307, Note_on_c, 13, 53, 106
13, 75357, Note_on_c, 13, 53, 0
13, 75367, Note_on_c, 13, 55, 106
13, 75427, Note_on_c, 13, 55, 0
13, 75667, Note_on_c, 13, 43, 106
13, 75667, Control_c, 13, 11, 122
13, 75684, Control_c, 13, 11, 119
13, 75702, Control_c, 13, 11, 116
13, 75720, Control_c, 13, 11, 113
13, 75738, Control_c, 13, 11, 110
13, 75756, Control_c, 13, 11, 107
13, 75767, Note_on_c, 13, 43, 0
13, 75774, Control_c, 13, 11, 104
13, 75787, Note_on_c, 13, 43, 106
13, 75837, Note_on_c, 13, 43, 0
13, 75847, Note_on_c, 13, 48, 106
13, 76197, Note_on_c, 13, 48, 0
13, 76207, Note_on_c, 13, 60, 106
13, 76237, Note_on_c, 13, 60, 0
13, 76267, Note_on_c, 13, 60, 106
13, 76297, Note_on_c, 13, 60, 0
13, 76327, Note_on_c, 13, 59, 106
13, 76327, Control_c, 13, 11, 122
13, 76344, Control_c, 13, 11, 119
13, 76362, Control_c, 13, 11, 116
13, 76380, Control_c, 13, 11, 113
13, 76398, Control_c, 13, 11, 110
13, 76416, Control_c, 13, 11, 107
13, 76434, Control_c, 13, 11, 104
13, 76677, Note_on_c, 13, 59, 0
13, 76687, Note_on_c, 13, 59, 106
13, 76717, Note_on_c, 13, 59, 0
13, 76747, Note_on_c, 13, 59, 106
13, 76777, Note_on_c, 13, 59, 0
13, 76807, Note_on_c, 13, 58, 106
13, 76807, Control_c, 13, 11, 97
13, 77157, Note_on_c, 13, 58, 0
13, 77167, Note_on_c, 13, 58, 106
13, 77197, Note_on_c, 13, 58, 0
13, 77227, Note_on_c, 13, 58, 106
13, 77257, Note_on_c, 13, 58, 0
13, 77287, Note_on_c, 13, 57, 106
13, 77487, Note_on_c, 13, 57, 0
13, 77497, Note_on_c, 13, 57, 106
13, 77517, Note_on_c, 13, 57, 0
13, 77527, Control_c, 13, 11, 122
13, 77527, Note_on_c, 13, 56, 106
13, 77536, Control_c, 13, 11, 119
13, 77545, Control_c, 13, 11, 116
13, 77554, Control_c, 13, 11, 113
13, 77563, Control_c, 13, 11, 110
13, 77572, Control_c, 13, 11, 107
13, 77581, Control_c, 13, 11, 104
13, 77727, Note_on_c, 13, 56, 0
13, 77737, Note_on_c, 13, 56, 106
13, 77757, Note_on_c, 13, 56, 0
13, 77767, Note_on_c, 13, 55, 106
13, 77827, Note_on_c, 13, 55, 0
13, 77887, Control_c, 13, 11, 117
13, 77887, Note_on_c, 13, 54, 106
13, 77904, Control_c, 13, 11, 120
13, 77922, Control_c, 13, 11, 121
13, 77940, Control_c, 13, 11, 118
13, 77958, Control_c, 13, 11, 115
13, 77976, Control_c, 13, 11, 112
13, 77994, Control_c, 13, 11, 109
13, 78202, Control_c, 13, 11, 102
13, 78203, Control_c, 13, 11, 99
13, 78205, Control_c, 13, 11, 95
13, 78206, Control_c, 13, 11, 92
13, 78208, Control_c, 13, 11, 88
13, 78209, Control_c, 13, 11, 85
13, 78211, Control_c, 13, 11, 81
13, 78212, Control_c, 13, 11, 78
13, 78214, Control_c, 13, 11, 74
13, 78215, Control_c, 13, 11, 71
13, 78217, Note_on_c, 13, 54, 0
13, 78217, Control_c, 13, 11, 67
13, 78247, Note_on_c, 13, 53, 106
13, 78247, Control_c, 13, 11, 102
13, 78307, Note_on_c, 13, 53, 0
13, 78367, Control_c, 13, 11, 117
13, 78367, Note_on_c, 13, 47, 106
13, 78384, Control_c, 13, 11, 120
13, 78402, Control_c, 13, 11, 121
13, 78420, Control_c, 13, 11, 118
13, 78438, Control_c, 13, 11, 115
13, 78456, Control_c, 13, 11, 112
13, 78474, Control_c, 13, 11, 109
13, 78617, Control_c, 13, 11, 102
13, 78619, Control_c, 13, 11, 98
13, 78621, Control_c, 13, 11, 95
13, 78623, Control_c, 13, 11, 91
13, 78625, Control_c, 13, 11, 88
13, 78627, Control_c, 13, 11, 84
13, 78629, Control_c, 13, 11, 81
13, 78631, Control_c, 13, 11, 77
13, 78633, Control_c, 13, 11, 74
13, 78635, Control_c, 13, 11, 70
13, 78637, Note_on_c, 13, 47, 0
13, 78637, Control_c, 13, 11, 67
13, 80167, Note_on_c, 13, 48, 106
13, 80167, Control_c, 13, 11, 47
13, 80187, Note_on_c, 13, 48, 0
13, 80197, Note_on_c, 13, 48, 106
13, 80217, Note_on_c, 13, 48, 0
13, 80227, Note_on_c, 13, 48, 106
13, 80247, Note_on_c, 13, 48, 0
13, 80257, Note_on_c, 13, 48, 106
13, 80277, Note_on_c, 13, 48, 0
13, 80287, Note_on_c, 13, 48, 106
13, 80307, Note_on_c, 13, 48, 0
13, 80317, Note_on_c, 13, 48, 106
13, 80337, Note_on_c, 13, 48, 0
13, 80347, Note_on_c, 13, 48, 106
13, 80367, Note_on_c, 13, 48, 0
13, 80377, Note_on_c, 13, 48, 106
13, 80397, Note_on_c, 13, 48, 0
13, 80407, Note_on_c, 13, 48, 106
13, 80427, Note_on_c, 13, 48, 0
13, 80437, Note_on_c, 13, 48, 106
13, 80457, Note_on_c, 13, 48, 0
13, 80467, Note_on_c, 13, 48, 106
13, 80487, Note_on_c, 13, 48, 0
13, 80497, Note_on_c, 13, 48, 106
13, 80497, Control_c, 13, 11, 47
13, 80517, Note_on_c, 13, 48, 0
13, 80517, Control_c, 13, 11, 50
13, 80527, Note_on_c, 13, 48, 106
13, 80539, Control_c, 13, 11, 53
13, 80547, Note_on_c, 13, 48, 0
13, 80557, Note_on_c, 13, 48, 106
13, 80562, Control_c, 13, 11, 56
13, 80577, Note_on_c, 13, 48, 0
13, 80584, Control_c, 13, 11, 59
13, 80587, Note_on_c, 13, 48, 106
13, 80607, Note_on_c, 13, 48, 0
13, 80607, Control_c, 13, 11, 62
13, 80617, Note_on_c, 13, 48, 106
13, 80629, Control_c, 13, 11, 65
13, 80637, Note_on_c, 13, 48, 0
13, 80647, Note_on_c, 13, 48, 106
13, 80647, Control_c, 13, 11, 87
13, 80667, Note_on_c, 13, 48, 0
13, 80677, Note_on_c, 13, 48, 106
13, 80697, Note_on_c, 13, 48, 0
13, 80707, Note_on_c, 13, 48, 106
13, 80727, Note_on_c, 13, 48, 0
13, 80737, Note_on_c, 13, 48, 106
13, 80757, Note_on_c, 13, 48, 0
13, 80767, Note_on_c, 13, 48, 106
13, 80787, Note_on_c, 13, 48, 0
13, 80797, Note_on_c, 13, 48, 106
13, 80817, Note_on_c, 13, 48, 0
13, 80827, Note_on_c, 13, 48, 106
13, 80847, Note_on_c, 13, 48, 0
13, 80857, Note_on_c, 13, 48, 106
13, 80877, Note_on_c, 13, 48, 0
13, 80887, Note_on_c, 13, 48, 106
13, 80907, Note_on_c, 13, 48, 0
13, 80917, Note_on_c, 13, 48, 106
13, 80937, Note_on_c, 13, 48, 0
13, 80947, Note_on_c, 13, 48, 106
13, 80967, Note_on_c, 13, 48, 0
13, 80977, Note_on_c, 13, 48, 106
13, 80997, Note_on_c, 13, 48, 0
13, 81007, Note_on_c, 13, 48, 106
13, 81027, Note_on_c, 13, 48, 0
13, 81037, Note_on_c, 13, 48, 106
13, 81057, Note_on_c, 13, 48, 0
13, 81067, Note_on_c, 13, 48, 106
13, 81087, Note_on_c, 13, 48, 0
13, 81097, Note_on_c, 13, 48, 106
13, 81117, Note_on_c, 13, 48, 0
13, 81127, Note_on_c, 13, 48, 106
13, 81147, Note_on_c, 13, 48, 0
13, 81157, Note_on_c, 13, 48, 106
13, 81177, Note_on_c, 13, 48, 0
13, 81187, Note_on_c, 13, 48, 106
13, 81207, Note_on_c, 13, 48, 0
13, 81217, Note_on_c, 13, 48, 106
13, 81237, Note_on_c, 13, 48, 0
13, 81247, Note_on_c, 13, 48, 106
13, 81267, Note_on_c, 13, 48, 0
13, 81277, Note_on_c, 13, 48, 106
13, 81297, Note_on_c, 13, 48, 0
13, 81307, Note_on_c, 13, 48, 106
13, 81327, Note_on_c, 13, 48, 0
13, 81337, Note_on_c, 13, 48, 106
13, 81357, Note_on_c, 13, 48, 0
13, 81367, Note_on_c, 13, 50, 106
13, 81387, Note_on_c, 13, 50, 0
13, 81397, Note_on_c, 13, 50, 106
13, 81417, Note_on_c, 13, 50, 0
13, 81427, Note_on_c, 13, 50, 106
13, 81447, Note_on_c, 13, 50, 0
13, 81457, Note_on_c, 13, 50, 106
13, 81477, Note_on_c, 13, 50, 0
13, 81487, Note_on_c, 13, 50, 106
13, 81507, Note_on_c, 13, 50, 0
13, 81517, Note_on_c, 13, 50, 106
13, 81537, Note_on_c, 13, 50, 0
13, 81547, Note_on_c, 13, 50, 106
13, 81567, Note_on_c, 13, 50, 0
13, 81577, Note_on_c, 13, 50, 106
13, 81597, Note_on_c, 13, 50, 0
13, 81607, Note_on_c, 13, 55, 78
13, 81703, Note_on_c, 13, 55, 0
13, 81907, Note_on_c, 13, 57, 106
13, 81907, Control_c, 13, 11, 47
13, 81937, Note_on_c, 13, 57, 0
13, 81967, Note_on_c, 13, 59, 106
13, 81997, Note_on_c, 13, 59, 0
13, 82027, Note_on_c, 13, 61, 106
13, 82057, Note_on_c, 13, 61, 0
13, 82087, Note_on_c, 13, 62, 106
13, 82117, Note_on_c, 13, 62, 0
13, 82147, Note_on_c, 13, 64, 106
13, 82177, Note_on_c, 13, 64, 0
13, 82207, Note_on_c, 13, 65, 106
13, 82267, Note_on_c, 13, 65, 0
13, 82387, Note_on_c, 13, 55, 106
13, 82417, Note_on_c, 13, 55, 0
13, 82447, Note_on_c, 13, 57, 106
13, 82477, Note_on_c, 13, 57, 0
13, 82507, Note_on_c, 13, 59, 106
13, 82537, Note_on_c, 13, 59, 0
13, 82567, Note_on_c, 13, 60, 106
13, 82597, Note_on_c, 13, 60, 0
13, 82627, Note_on_c, 13, 62, 106
13, 82657, Note_on_c, 13, 62, 0
13, 82687, Note_on_c, 13, 64, 106
13, 82717, Note_on_c, 13, 64, 0
13, 82867, Note_on_c, 13, 48, 106
13, 82897, Note_on_c, 13, 48, 0
13, 82927, Note_on_c, 13, 50, 106
13, 82957, Note_on_c, 13, 50, 0
13, 82987, Note_on_c, 13, 52, 106
13, 83017, Note_on_c, 13, 52, 0
13, 83047, Note_on_c, 13, 53, 106
13, 83077, Note_on_c, 13, 53, 0
13, 83107, Note_on_c, 13, 52, 106
13, 83137, Note_on_c, 13, 52, 0
13, 83167, Note_on_c, 13, 50, 106
13, 83197, Note_on_c, 13, 50, 0
13, 83227, Note_on_c, 13, 53, 106
13, 83257, Note_on_c, 13, 53, 0
13, 83287, Note_on_c, 13, 55, 106
13, 83317, Note_on_c, 13, 55, 0
13, 83347, Note_on_c, 13, 54, 106
13, 83377, Note_on_c, 13, 54, 0
13, 83407, Note_on_c, 13, 55, 106
13, 83437, Note_on_c, 13, 55, 0
13, 83467, Control_c, 13, 11, 47
13, 83467, Note_on_c, 13, 43, 106
13, 83470, Control_c, 13, 11, 50
13, 83473, Control_c, 13, 11, 53
13, 83476, Control_c, 13, 11, 56
13, 83480, Control_c, 13, 11, 59
13, 83483, Control_c, 13, 11, 62
13, 83486, Control_c, 13, 11, 65
13, 83489, Control_c, 13, 11, 68
13, 83493, Control_c, 13, 11, 71
13, 83496, Control_c, 13, 11, 74
13, 83497, Note_on_c, 13, 43, 0
13, 83499, Control_c, 13, 11, 77
13, 83503, Control_c, 13, 11, 80
13, 83506, Control_c, 13, 11, 83
13, 83509, Control_c, 13, 11, 86
13, 83512, Control_c, 13, 11, 89
13, 83516, Control_c, 13, 11, 92
13, 83519, Control_c, 13, 11, 95
13, 83522, Control_c, 13, 11, 98
13, 83525, Control_c, 13, 11, 101
13, 83527, Note_on_c, 13, 48, 106
13, 83647, Note_on_c, 13, 48, 0
13, 83827, Note_on_c, 13, 45, 106
13, 83857, Note_on_c, 13, 45, 0
13, 83887, Note_on_c, 13, 47, 106
13, 83917, Note_on_c, 13, 47, 0
13, 83947, Note_on_c, 13, 49, 106
13, 83977, Note_on_c, 13, 49, 0
13, 84007, Note_on_c, 13, 50, 106
13, 84037, Note_on_c, 13, 50, 0
13, 84067, Note_on_c, 13, 52, 106
13, 84097, Note_on_c, 13, 52, 0
13, 84127, Note_on_c, 13, 53, 106
13, 84247, Note_on_c, 13, 53, 0
13, 84307, Note_on_c, 13, 43, 106
13, 84337, Note_on_c, 13, 43, 0
13, 84367, Note_on_c, 13, 45, 106
13, 84397, Note_on_c, 13, 45, 0
13, 84427, Note_on_c, 13, 47, 106
13, 84457, Note_on_c, 13, 47, 0
13, 84487, Note_on_c, 13, 48, 106
13, 84517, Note_on_c, 13, 48, 0
13, 84547, Note_on_c, 13, 50, 106
13, 84577, Note_on_c, 13, 50, 0
13, 84607, Note_on_c, 13, 52, 106
13, 84727, Note_on_c, 13, 52, 0
13, 84787, Note_on_c, 13, 48, 106
13, 84817, Note_on_c, 13, 48, 0
13, 84847, Note_on_c, 13, 50, 106
13, 84877, Note_on_c, 13, 50, 0
13, 84907, Note_on_c, 13, 52, 106
13, 84937, Note_on_c, 13, 52, 0
13, 84967, Note_on_c, 13, 53, 106
13, 84997, Note_on_c, 13, 53, 0
13, 85027, Note_on_c, 13, 52, 106
13, 85057, Note_on_c, 13, 52, 0
13, 85087, Note_on_c, 13, 53, 106
13, 85117, Note_on_c, 13, 53, 0
13, 85147, Note_on_c, 13, 50, 106
13, 85177, Note_on_c, 13, 50, 0
13, 85207, Note_on_c, 13, 55, 106
13, 85237, Note_on_c, 13, 55, 0
13, 85267, Note_on_c, 13, 54, 106
13, 85297, Note_on_c, 13, 54, 0
13, 85327, Note_on_c, 13, 55, 106
13, 85357, Note_on_c, 13, 55, 0
13, 85387, Note_on_c, 13, 43, 106
13, 85417, Note_on_c, 13, 43, 0
13, 85447, Note_on_c, 13, 48, 106
13, 85543, Note_on_c, 13, 48, 0
13, 85927, Control_c, 13, 11, 87
13, 85927, Note_on_c, 13, 48, 106
13, 86023, Note_on_c, 13, 48, 0
13, 86407, Note_on_c, 13, 60, 106
13, 86407, Control_c, 13, 11, 47
13, 86467, Note_on_c, 13, 60, 0
13, 86647, Note_on_c, 13, 53, 106
13, 86707, Note_on_c, 13, 53, 0
13, 86887, Note_on_c, 13, 55, 106
13, 86947, Note_on_c, 13, 55, 0
13, 87127, Note_on_c, 13, 48, 106
13, 87187, Note_on_c, 13, 48, 0
13, 88327, Note_on_c, 13, 60, 106
13, 88387, Note_on_c, 13, 60, 0
13, 88567, Note_on_c, 13, 53, 106
13, 88627, Note_on_c, 13, 53, 0
13, 88807, Note_on_c, 13, 55, 106
13, 88867, Note_on_c, 13, 55, 0
13, 89047, Note_on_c, 13, 48, 106
13, 89107, Note_on_c, 13, 48, 0
13, 89527, Control_c, 13, 11, 47
13, 89527, Note_on_c, 13, 53, 106
13, 89544, Control_c, 13, 11, 48
13, 89561, Control_c, 13, 11, 49
13, 89579, Control_c, 13, 11, 50
13, 89587, Note_on_c, 13, 53, 0
13, 89596, Control_c, 13, 11, 51
13, 89614, Control_c, 13, 11, 52
13, 89631, Control_c, 13, 11, 53
13, 89649, Control_c, 13, 11, 54
13, 89666, Control_c, 13, 11, 55
13, 89684, Control_c, 13, 11, 56
13, 89701, Control_c, 13, 11, 57
13, 89719, Control_c, 13, 11, 58
13, 89736, Control_c, 13, 11, 59
13, 89753, Control_c, 13, 11, 60
13, 89767, Note_on_c, 13, 55, 106
13, 89771, Control_c, 13, 11, 61
13, 89788, Control_c, 13, 11, 62
13, 89806, Control_c, 13, 11, 63
13, 89823, Control_c, 13, 11, 64
13, 89827, Note_on_c, 13, 55, 0
13, 89841, Control_c, 13, 11, 65
13, 89858, Control_c, 13, 11, 66
13, 89876, Control_c, 13, 11, 67
13, 89893, Control_c, 13, 11, 68
13, 89911, Control_c, 13, 11, 69
13, 89928, Control_c, 13, 11, 70
13, 89945, Control_c, 13, 11, 71
13, 89963, Control_c, 13, 11, 72
13, 89980, Control_c, 13, 11, 73
13, 89998, Control_c, 13, 11, 74
13, 90007, Note_on_c, 13, 48, 106
13, 90015, Control_c, 13, 11, 75
13, 90033, Control_c, 13, 11, 76
13, 90050, Control_c, 13, 11, 77
13, 90057, Note_on_c, 13, 48, 0
13, 90067, Note_on_c, 13, 60, 106
13, 90068, Control_c, 13, 11, 78
13, 90085, Control_c, 13, 11, 79
13, 90103, Control_c, 13, 11, 80
13, 90117, Note_on_c, 13, 60, 0
13, 90120, Control_c, 13, 11, 81
13, 90127, Note_on_c, 13, 60, 106
13, 90137, Control_c, 13, 11, 82
13, 90155, Control_c, 13, 11, 83
13, 90172, Control_c, 13, 11, 84
13, 90177, Note_on_c, 13, 60, 0
13, 90187, Note_on_c, 13, 60, 106
13, 90190, Control_c, 13, 11, 85
13, 90207, Control_c, 13, 11, 86
13, 90225, Control_c, 13, 11, 87
13, 90237, Note_on_c, 13, 60, 0
13, 90242, Control_c, 13, 11, 88
13, 90247, Note_on_c, 13, 60, 106
13, 90260, Control_c, 13, 11, 89
13, 90277, Control_c, 13, 11, 90
13, 90295, Control_c, 13, 11, 91
13, 90297, Note_on_c, 13, 60, 0
13, 90307, Note_on_c, 13, 60, 106
13, 90312, Control_c, 13, 11, 92
13, 90329, Control_c, 13, 11, 93
13, 90347, Control_c, 13, 11, 94
13, 90357, Note_on_c, 13, 60, 0
13, 90364, Control_c, 13, 11, 95
13, 90367, Note_on_c, 13, 60, 106
13, 90382, Control_c, 13, 11, 96
13, 90399, Control_c, 13, 11, 97
13, 90417, Note_on_c, 13, 60, 0
13, 90417, Control_c, 13, 11, 98
13, 90427, Note_on_c, 13, 60, 106
13, 90434, Control_c, 13, 11, 99
13, 90452, Control_c, 13, 11, 100
13, 90469, Control_c, 13, 11, 101
13, 90477, Note_on_c, 13, 60, 0
13, 90487, Note_on_c, 13, 53, 106
13, 90487, Control_c, 13, 11, 102
13, 90507, Note_on_c, 13, 53, 0
13, 90517, Note_on_c, 13, 53, 106
13, 90537, Note_on_c, 13, 53, 0
13, 90547, Note_on_c, 13, 53, 106
13, 90567, Note_on_c, 13, 53, 0
13, 90577, Note_on_c, 13, 53, 106
13, 90597, Note_on_c, 13, 53, 0
13, 90607, Note_on_c, 13, 53, 106
13, 90627, Note_on_c, 13, 53, 0
13, 90637, Note_on_c, 13, 53, 106
13, 90657, Note_on_c, 13, 53, 0
13, 90667, Note_on_c, 13, 53, 106
13, 90687, Note_on_c, 13, 53, 0
13, 90697, Note_on_c, 13, 53, 106
13, 90717, Note_on_c, 13, 53, 0
13, 90727, Note_on_c, 13, 55, 106
13, 90747, Note_on_c, 13, 55, 0
13, 90757, Note_on_c, 13, 55, 106
13, 90777, Note_on_c, 13, 55, 0
13, 90787, Note_on_c, 13, 55, 106
13, 90807, Note_on_c, 13, 55, 0
13, 90817, Note_on_c, 13, 55, 106
13, 90837, Note_on_c, 13, 55, 0
13, 90847, Note_on_c, 13, 55, 106
13, 90867, Note_on_c, 13, 55, 0
13, 90877, Note_on_c, 13, 55, 106
13, 90897, Note_on_c, 13, 55, 0
13, 90907, Note_on_c, 13, 55, 106
13, 90927, Note_on_c, 13, 55, 0
13, 90937, Note_on_c, 13, 55, 106
13, 90957, Note_on_c, 13, 55, 0
13, 90967, Control_c, 13, 11, 112
13, 90967, Note_on_c, 13, 60, 106
13, 90984, Control_c, 13, 11, 115
13, 91002, Control_c, 13, 11, 116
13, 91020, Control_c, 13, 11, 113
13, 91038, Control_c, 13, 11, 110
13, 91056, Control_c, 13, 11, 107
13, 91074, Control_c, 13, 11, 104
13, 91097, Note_on_c, 13, 60, 0
13, 91117, Note_on_c, 13, 48, 106
13, 91132, Note_on_c, 13, 48, 0
13, 91147, Note_on_c, 13, 50, 106
13, 91162, Note_on_c, 13, 50, 0
13, 91177, Note_on_c, 13, 52, 106
13, 91192, Note_on_c, 13, 52, 0
13, 91207, Note_on_c, 13, 53, 106
13, 91222, Note_on_c, 13, 53, 0
13, 91237, Note_on_c, 13, 55, 106
13, 91252, Note_on_c, 13, 55, 0
13, 91267, Note_on_c, 13, 57, 106
13, 91282, Note_on_c, 13, 57, 0
13, 91297, Note_on_c, 13, 59, 106
13, 91312, Note_on_c, 13, 59, 0
13, 91327, Note_on_c, 13, 60, 106
13, 91357, Note_on_c, 13, 60, 0
13, 91387, Note_on_c, 13, 60, 106
13, 91417, Note_on_c, 13, 60, 0
13, 91447, Control_c, 13, 11, 112
13, 91447, Note_on_c, 13, 64, 106
13, 91464, Control_c, 13, 11, 115
13, 91482, Control_c, 13, 11, 116
13, 91500, Control_c, 13, 11, 113
13, 91518, Control_c, 13, 11, 110
13, 91536, Control_c, 13, 11, 107
13, 91554, Control_c, 13, 11, 104
13, 91587, Note_on_c, 13, 64, 0
13, 91597, Note_on_c, 13, 52, 106
13, 91612, Note_on_c, 13, 52, 0
13, 91627, Note_on_c, 13, 53, 106
13, 91642, Note_on_c, 13, 53, 0
13, 91657, Note_on_c, 13, 55, 106
13, 91672, Note_on_c, 13, 55, 0
13, 91687, Note_on_c, 13, 57, 106
13, 91702, Note_on_c, 13, 57, 0
13, 91717, Note_on_c, 13, 59, 106
13, 91732, Note_on_c, 13, 59, 0
13, 91747, Note_on_c, 13, 60, 106
13, 91762, Note_on_c, 13, 60, 0
13, 91777, Note_on_c, 13, 62, 106
13, 91792, Note_on_c, 13, 62, 0
13, 91807, Note_on_c, 13, 64, 106
13, 91837, Note_on_c, 13, 64, 0
13, 91867, Note_on_c, 13, 64, 106
13, 91897, Note_on_c, 13, 64, 0
13, 91927, Control_c, 13, 11, 112
13, 91927, Note_on_c, 13, 67, 106
13, 91944, Control_c, 13, 11, 109
13, 91962, Control_c, 13, 11, 106
13, 91980, Control_c, 13, 11, 103
13, 92157, Note_on_c, 13, 67, 0
13, 92167, Note_on_c, 13, 64, 106
13, 92227, Note_on_c, 13, 64, 0
13, 92287, Note_on_c, 13, 60, 106
13, 92347, Note_on_c, 13, 60, 0
13, 92407, Note_on_c, 13, 55, 106
13, 92467, Note_on_c, 13, 55, 0
13, 92527, Note_on_c, 13, 52, 106
13, 92587, Note_on_c, 13, 52, 0
13, 92647, Note_on_c, 13, 48, 106
13, 92707, Note_on_c, 13, 48, 0
13, 92767, Note_on_c, 13, 43, 106
13, 92827, Note_on_c, 13, 43, 0
13, 92887, Note_on_c, 13, 48, 106
13, 92983, Note_on_c, 13, 48, 0
13, 93127, Note_on_c, 13, 55, 106
13, 93223, Note_on_c, 13, 55, 0
13, 93367, Note_on_c, 13, 60, 106
13, 93463, Note_on_c, 13, 60, 0
13, 93607, Note_on_c, 13, 55, 106
13, 93703, Note_on_c, 13, 55, 0
13, 93847, Note_on_c, 13, 48, 106
13, 93943, Note_on_c, 13, 48, 0
13, 94087, Note_on_c, 13, 60, 116
13, 94189, Note_on_c, 13, 60, 0
13, 94327, Note_on_c, 13, 48, 106
13, 94447, Note_on_c, 13, 48, 0
13, 94567, Control_c, 13, 121, 0
13, 94567, End_track
14, 0, Start_track
14, 0, MIDI_port, 0
14, 0, Title_t, "Contrabasse"
14, 0, Program_c, 14, 48
14, 0, Control_c, 14, 10, 127
14, 10, Control_c, 14, 121, 0
14, 15, Program_c, 14, 48
14, 20, Pitch_bend_c, 14, 8492
14, 25, Control_c, 14, 11, 102
14, 30, Control_c, 14, 7, 127
14, 35, Control_c, 14, 91, 75
14, 40, Control_c, 14, 93, 0
14, 45, Control_c, 14, 10, 127
14, 50, Control_c, 14, 1, 36
14, 247, Control_c, 14, 11, 72
14, 247, Note_on_c, 14, 31, 106
14, 249, Control_c, 14, 11, 75
14, 251, Control_c, 14, 11, 78
14, 253, Control_c, 14, 11, 81
14, 255, Control_c, 14, 11, 84
14, 257, Control_c, 14, 11, 87
14, 259, Control_c, 14, 11, 90
14, 261, Control_c, 14, 11, 93
14, 263, Control_c, 14, 11, 96
14, 265, Control_c, 14, 11, 99
14, 267, Control_c, 14, 11, 102
14, 385, Control_c, 14, 11, 102
14, 386, Control_c, 14, 11, 98
14, 387, Control_c, 14, 11, 94
14, 388, Control_c, 14, 11, 91
14, 389, Control_c, 14, 11, 87
14, 390, Control_c, 14, 11, 83
14, 391, Control_c, 14, 11, 80
14, 392, Control_c, 14, 11, 76
14, 393, Control_c, 14, 11, 72
14, 394, Control_c, 14, 11, 69
14, 395, Control_c, 14, 11, 65
14, 396, Control_c, 14, 11, 61
14, 397, Note_on_c, 14, 31, 0
14, 397, Control_c, 14, 11, 58
14, 398, Control_c, 14, 11, 54
14, 399, Control_c, 14, 11, 50
14, 400, Control_c, 14, 11, 47
14, 1930, Note_on_c, 14, 36, 106
14, 2050, Note_on_c, 14, 36, 0
14, 2170, Note_on_c, 14, 36, 106
14, 2290, Note_on_c, 14, 36, 0
14, 2410, Note_on_c, 14, 36, 106
14, 2530, Note_on_c, 14, 36, 0
14, 2650, Note_on_c, 14, 36, 106
14, 2770, Note_on_c, 14, 36, 0
14, 2770, Note_on_c, 14, 36, 106
14, 2890, Note_on_c, 14, 36, 0
14, 2890, Note_on_c, 14, 36, 106
14, 3010, Note_on_c, 14, 36, 0
14, 3130, Note_on_c, 14, 38, 106
14, 3250, Note_on_c, 14, 38, 0
14, 3370, Note_on_c, 14, 43, 82
14, 3490, Note_on_c, 14, 43, 0
14, 4150, Note_on_c, 14, 43, 106
14, 4180, Note_on_c, 14, 43, 0
14, 4210, Note_on_c, 14, 45, 106
14, 4240, Note_on_c, 14, 45, 0
14, 4270, Note_on_c, 14, 47, 106
14, 4300, Note_on_c, 14, 47, 0
14, 4330, Note_on_c, 14, 48, 106
14, 4360, Note_on_c, 14, 48, 0
14, 4390, Note_on_c, 14, 50, 106
14, 4420, Note_on_c, 14, 50, 0
14, 4450, Note_on_c, 14, 52, 106
14, 4480, Note_on_c, 14, 52, 0
14, 4630, Note_on_c, 14, 36, 106
14, 4660, Note_on_c, 14, 36, 0
14, 4690, Note_on_c, 14, 38, 106
14, 4720, Note_on_c, 14, 38, 0
14, 4750, Note_on_c, 14, 40, 106
14, 4780, Note_on_c, 14, 40, 0
14, 4810, Note_on_c, 14, 41, 106
14, 4840, Note_on_c, 14, 41, 0
14, 4870, Note_on_c, 14, 40, 106
14, 4900, Note_on_c, 14, 40, 0
14, 4930, Note_on_c, 14, 38, 106
14, 4960, Note_on_c, 14, 38, 0
14, 4990, Note_on_c, 14, 41, 106
14, 5020, Note_on_c, 14, 41, 0
14, 5050, Note_on_c, 14, 43, 106
14, 5080, Note_on_c, 14, 43, 0
14, 5110, Note_on_c, 14, 42, 106
14, 5140, Note_on_c, 14, 42, 0
14, 5170, Note_on_c, 14, 43, 106
14, 5200, Note_on_c, 14, 43, 0
14, 5230, Note_on_c, 14, 31, 106
14, 5260, Note_on_c, 14, 31, 0
14, 5290, Note_on_c, 14, 36, 106
14, 5320, Note_on_c, 14, 36, 0
14, 5350, Note_on_c, 14, 43, 106
14, 5380, Note_on_c, 14, 43, 0
14, 5410, Note_on_c, 14, 48, 106
14, 5440, Note_on_c, 14, 48, 0
14, 5530, Note_on_c, 14, 45, 106
14, 5590, Control_c, 14, 11, 47
14, 5605, Control_c, 14, 11, 48
14, 5620, Control_c, 14, 11, 49
14, 5635, Control_c, 14, 11, 50
14, 5650, Note_on_c, 14, 45, 0
14, 5651, Control_c, 14, 11, 51
14, 5666, Control_c, 14, 11, 52
14, 5681, Control_c, 14, 11, 53
14, 5696, Control_c, 14, 11, 54
14, 5712, Control_c, 14, 11, 55
14, 5727, Control_c, 14, 11, 56
14, 5742, Control_c, 14, 11, 57
14, 5758, Control_c, 14, 11, 58
14, 5770, Note_on_c, 14, 50, 106
14, 5773, Control_c, 14, 11, 59
14, 5788, Control_c, 14, 11, 60
14, 5803, Control_c, 14, 11, 61
14, 5819, Control_c, 14, 11, 62
14, 5834, Control_c, 14, 11, 63
14, 5849, Control_c, 14, 11, 64
14, 5864, Control_c, 14, 11, 65
14, 5880, Control_c, 14, 11, 66
14, 5890, Note_on_c, 14, 50, 0
14, 5895, Control_c, 14, 11, 67
14, 5910, Control_c, 14, 11, 68
14, 5926, Control_c, 14, 11, 69
14, 5941, Control_c, 14, 11, 70
14, 5956, Control_c, 14, 11, 71
14, 5971, Control_c, 14, 11, 72
14, 5987, Control_c, 14, 11, 73
14, 6002, Control_c, 14, 11, 74
14, 6010, Note_on_c, 14, 43, 106
14, 6017, Control_c, 14, 11, 75
14, 6032, Control_c, 14, 11, 76
14, 6048, Control_c, 14, 11, 77
14, 6063, Control_c, 14, 11, 78
14, 6078, Control_c, 14, 11, 79
14, 6094, Control_c, 14, 11, 80
14, 6109, Control_c, 14, 11, 81
14, 6124, Control_c, 14, 11, 82
14, 6130, Note_on_c, 14, 43, 0
14, 6139, Control_c, 14, 11, 83
14, 6155, Control_c, 14, 11, 84
14, 6170, Control_c, 14, 11, 85
14, 6185, Control_c, 14, 11, 86
14, 6200, Control_c, 14, 11, 87
14, 6216, Control_c, 14, 11, 88
14, 6231, Control_c, 14, 11, 89
14, 6246, Control_c, 14, 11, 90
14, 6250, Note_on_c, 14, 48, 106
14, 6262, Control_c, 14, 11, 91
14, 6277, Control_c, 14, 11, 92
14, 6292, Control_c, 14, 11, 93
14, 6307, Control_c, 14, 11, 94
14, 6323, Control_c, 14, 11, 95
14, 6338, Control_c, 14, 11, 96
14, 6353, Control_c, 14, 11, 97
14, 6368, Control_c, 14, 11, 98
14, 6370, Note_on_c, 14, 48, 0
14, 6384, Control_c, 14, 11, 99
14, 6399, Control_c, 14, 11, 100
14, 6414, Control_c, 14, 11, 101
14, 6430, Control_c, 14, 11, 102
14, 6550, Note_on_c, 14, 36, 106
14, 6580, Note_on_c, 14, 36, 0
14, 6610, Note_on_c, 14, 38, 106
14, 6640, Note_on_c, 14, 38, 0
14, 6670, Note_on_c, 14, 40, 106
14, 6700, Note_on_c, 14, 40, 0
14, 6730, Note_on_c, 14, 41, 106
14, 6760, Note_on_c, 14, 41, 0
14, 6790, Note_on_c, 14, 40, 106
14, 6820, Note_on_c, 14, 40, 0
14, 6850, Note_on_c, 14, 38, 106
14, 6880, Note_on_c, 14, 38, 0
14, 6910, Note_on_c, 14, 41, 106
14, 6940, Note_on_c, 14, 41, 0
14, 6970, Note_on_c, 14, 43, 106
14, 7000, Note_on_c, 14, 43, 0
14, 7030, Note_on_c, 14, 42, 106
14, 7060, Note_on_c, 14, 42, 0
14, 7090, Note_on_c, 14, 43, 106
14, 7120, Note_on_c, 14, 43, 0
14, 7150, Note_on_c, 14, 31, 106
14, 7180, Note_on_c, 14, 31, 0
14, 7210, Note_on_c, 14, 36, 106
14, 7330, Note_on_c, 14, 36, 0
14, 7990, Control_c, 14, 11, 87
14, 7990, Note_on_c, 14, 31, 106
14, 8035, Note_on_c, 14, 31, 0
14, 8050, Note_on_c, 14, 31, 106
14, 8095, Note_on_c, 14, 31, 0
14, 8110, Note_on_c, 14, 31, 106
14, 8155, Note_on_c, 14, 31, 0
14, 8170, Note_on_c, 14, 36, 106
14, 8290, Note_on_c, 14, 36, 0
14, 8950, Note_on_c, 14, 43, 106
14, 8995, Note_on_c, 14, 43, 0
14, 9010, Note_on_c, 14, 43, 106
14, 9055, Note_on_c, 14, 43, 0
14, 9070, Note_on_c, 14, 43, 106
14, 9115, Note_on_c, 14, 43, 0
14, 9130, Note_on_c, 14, 48, 106
14, 9190, Note_on_c, 14, 48, 0
14, 9250, Note_on_c, 14, 45, 106
14, 9251, Control_c, 14, 11, 107
14, 9268, Control_c, 14, 11, 104
14, 9286, Control_c, 14, 11, 101
14, 9304, Control_c, 14, 11, 98
14, 9321, Control_c, 14, 11, 95
14, 9339, Control_c, 14, 11, 92
14, 9357, Control_c, 14, 11, 89
14, 9480, Note_on_c, 14, 45, 0
14, 9490, Note_on_c, 14, 45, 106
14, 9600, Note_on_c, 14, 45, 0
14, 9610, Note_on_c, 14, 42, 106
14, 9720, Note_on_c, 14, 42, 0
14, 9730, Control_c, 14, 11, 107
14, 9730, Note_on_c, 14, 44, 106
14, 9747, Control_c, 14, 11, 104
14, 9765, Control_c, 14, 11, 101
14, 9783, Control_c, 14, 11, 98
14, 9801, Control_c, 14, 11, 95
14, 9819, Control_c, 14, 11, 92
14, 9837, Control_c, 14, 11, 89
14, 9960, Note_on_c, 14, 44, 0
14, 9970, Note_on_c, 14, 40, 106
14, 10080, Note_on_c, 14, 40, 0
14, 10090, Note_on_c, 14, 45, 106
14, 10200, Note_on_c, 14, 45, 0
14, 10210, Note_on_c, 14, 38, 106
14, 10320, Note_on_c, 14, 38, 0
14, 10330, Note_on_c, 14, 43, 106
14, 10440, Note_on_c, 14, 43, 0
14, 10450, Note_on_c, 14, 35, 106
14, 10560, Note_on_c, 14, 35, 0
14, 10570, Note_on_c, 14, 36, 106
14, 10690, Note_on_c, 14, 36, 0
14, 10810, Note_on_c, 14, 37, 106
14, 10930, Note_on_c, 14, 37, 0
14, 11050, Note_on_c, 14, 38, 106
14, 11080, Note_on_c, 14, 38, 0
14, 11110, Note_on_c, 14, 38, 106
14, 11140, Note_on_c, 14, 38, 0
14, 11170, Note_on_c, 14, 42, 106
14, 11200, Note_on_c, 14, 42, 0
14, 11230, Note_on_c, 14, 43, 106
14, 11260, Note_on_c, 14, 43, 0
14, 11290, Note_on_c, 14, 45, 106
14, 11320, Note_on_c, 14, 45, 0
14, 11350, Note_on_c, 14, 47, 106
14, 11380, Note_on_c, 14, 47, 0
14, 11410, Control_c, 14, 11, 107
14, 11410, Note_on_c, 14, 48, 106
14, 11428, Control_c, 14, 11, 104
14, 11446, Control_c, 14, 11, 101
14, 11464, Control_c, 14, 11, 98
14, 11482, Control_c, 14, 11, 95
14, 11500, Control_c, 14, 11, 92
14, 11518, Control_c, 14, 11, 89
14, 11590, Note_on_c, 14, 48, 0
14, 11590, Note_on_c, 14, 47, 106
14, 11640, Note_on_c, 14, 47, 0
14, 11650, Note_on_c, 14, 50, 106
14, 11680, Note_on_c, 14, 50, 0
14, 11710, Note_on_c, 14, 47, 106
14, 11740, Note_on_c, 14, 47, 0
14, 11770, Note_on_c, 14, 43, 106
14, 11800, Note_on_c, 14, 43, 0
14, 11830, Note_on_c, 14, 43, 106
14, 11860, Note_on_c, 14, 43, 0
14, 11890, Note_on_c, 14, 47, 106
14, 11920, Note_on_c, 14, 47, 0
14, 11950, Note_on_c, 14, 43, 106
14, 11980, Note_on_c, 14, 43, 0
14, 12010, Note_on_c, 14, 38, 106
14, 12040, Note_on_c, 14, 38, 0
14, 12070, Note_on_c, 14, 38, 106
14, 12100, Note_on_c, 14, 38, 0
14, 12130, Note_on_c, 14, 42, 106
14, 12160, Note_on_c, 14, 42, 0
14, 12190, Note_on_c, 14, 43, 106
14, 12220, Note_on_c, 14, 43, 0
14, 12250, Note_on_c, 14, 45, 106
14, 12280, Note_on_c, 14, 45, 0
14, 12310, Note_on_c, 14, 47, 106
14, 12340, Note_on_c, 14, 47, 0
14, 12370, Note_on_c, 14, 48, 106
14, 12370, Control_c, 14, 11, 107
14, 12388, Control_c, 14, 11, 104
14, 12406, Control_c, 14, 11, 101
14, 12424, Control_c, 14, 11, 98
14, 12442, Control_c, 14, 11, 95
14, 12460, Control_c, 14, 11, 92
14, 12478, Control_c, 14, 11, 89
14, 12550, Note_on_c, 14, 48, 0
14, 12550, Note_on_c, 14, 47, 106
14, 12600, Note_on_c, 14, 47, 0
14, 12610, Note_on_c, 14, 50, 106
14, 12640, Note_on_c, 14, 50, 0
14, 12670, Note_on_c, 14, 47, 106
14, 12700, Note_on_c, 14, 47, 0
14, 12730, Note_on_c, 14, 43, 106
14, 12760, Note_on_c, 14, 43, 0
14, 12790, Note_on_c, 14, 43, 106
14, 12820, Note_on_c, 14, 43, 0
14, 12850, Note_on_c, 14, 47, 106
14, 12880, Note_on_c, 14, 47, 0
14, 12910, Note_on_c, 14, 43, 106
14, 12940, Note_on_c, 14, 43, 0
14, 12970, Note_on_c, 14, 38, 91
14, 13090, Note_on_c, 14, 38, 0
14, 13450, Note_on_c, 14, 43, 106
14, 13450, Control_c, 14, 11, 47
14, 13510, Note_on_c, 14, 43, 0
14, 13570, Note_on_c, 14, 38, 106
14, 13630, Note_on_c, 14, 38, 0
14, 13690, Note_on_c, 14, 45, 106
14, 13750, Note_on_c, 14, 45, 0
14, 13810, Note_on_c, 14, 38, 106
14, 13870, Note_on_c, 14, 38, 0
14, 13930, Note_on_c, 14, 47, 106
14, 13990, Note_on_c, 14, 47, 0
14, 14050, Note_on_c, 14, 38, 106
14, 14110, Note_on_c, 14, 38, 0
14, 14170, Note_on_c, 14, 42, 106
14, 14230, Note_on_c, 14, 42, 0
14, 14290, Note_on_c, 14, 38, 106
14, 14350, Note_on_c, 14, 38, 0
14, 14410, Note_on_c, 14, 43, 106
14, 14470, Note_on_c, 14, 43, 0
14, 14530, Note_on_c, 14, 38, 106
14, 14590, Note_on_c, 14, 38, 0
14, 14650, Note_on_c, 14, 45, 106
14, 14710, Note_on_c, 14, 45, 0
14, 14770, Note_on_c, 14, 38, 106
14, 14830, Note_on_c, 14, 38, 0
14, 14890, Note_on_c, 14, 47, 106
14, 14950, Note_on_c, 14, 47, 0
14, 15010, Note_on_c, 14, 38, 106
14, 15070, Note_on_c, 14, 38, 0
14, 15130, Note_on_c, 14, 42, 106
14, 15190, Note_on_c, 14, 42, 0
14, 15250, Note_on_c, 14, 38, 106
14, 15310, Note_on_c, 14, 38, 0
14, 15370, Note_on_c, 14, 43, 106
14, 15430, Note_on_c, 14, 43, 0
14, 15490, Note_on_c, 14, 38, 106
14, 15550, Note_on_c, 14, 38, 0
14, 15610, Note_on_c, 14, 45, 106
14, 15610, Control_c, 14, 11, 47
14, 15640, Control_c, 14, 11, 48
14, 15670, Note_on_c, 14, 45, 0
14, 15670, Control_c, 14, 11, 49
14, 15700, Control_c, 14, 11, 50
14, 15730, Control_c, 14, 11, 51
14, 15730, Note_on_c, 14, 38, 106
14, 15760, Control_c, 14, 11, 52
14, 15790, Note_on_c, 14, 38, 0
14, 15790, Control_c, 14, 11, 53
14, 15820, Control_c, 14, 11, 54
14, 15850, Note_on_c, 14, 47, 106
14, 15850, Control_c, 14, 11, 55
14, 15880, Control_c, 14, 11, 56
14, 15910, Note_on_c, 14, 47, 0
14, 15910, Control_c, 14, 11, 57
14, 15940, Control_c, 14, 11, 58
14, 15970, Control_c, 14, 11, 59
14, 15970, Note_on_c, 14, 43, 106
14, 16000, Control_c, 14, 11, 60
14, 16030, Note_on_c, 14, 43, 0
14, 16030, Control_c, 14, 11, 61
14, 16060, Control_c, 14, 11, 62
14, 16090, Note_on_c, 14, 48, 106
14, 16090, Control_c, 14, 11, 63
14, 16120, Control_c, 14, 11, 64
14, 16150, Note_on_c, 14, 48, 0
14, 16150, Control_c, 14, 11, 65
14, 16180, Control_c, 14, 11, 66
14, 16210, Control_c, 14, 11, 67
14, 16210, Note_on_c, 14, 43, 106
14, 16240, Control_c, 14, 11, 68
14, 16270, Note_on_c, 14, 43, 0
14, 16270, Control_c, 14, 11, 69
14, 16300, Control_c, 14, 11, 70
14, 16330, Note_on_c, 14, 50, 106
14, 16330, Control_c, 14, 11, 71
14, 16360, Control_c, 14, 11, 72
14, 16390, Note_on_c, 14, 50, 0
14, 16390, Control_c, 14, 11, 73
14, 16420, Control_c, 14, 11, 74
14, 16450, Control_c, 14, 11, 75
14, 16450, Note_on_c, 14, 43, 106
14, 16480, Control_c, 14, 11, 76
14, 16510, Note_on_c, 14, 43, 0
14, 16510, Control_c, 14, 11, 77
14, 16540, Control_c, 14, 11, 78
14, 16570, Note_on_c, 14, 52, 106
14, 16570, Control_c, 14, 11, 79
14, 16600, Control_c, 14, 11, 80
14, 16630, Note_on_c, 14, 52, 0
14, 16630, Control_c, 14, 11, 81
14, 16660, Control_c, 14, 11, 82
14, 16690, Control_c, 14, 11, 83
14, 16690, Note_on_c, 14, 48, 106
14, 16720, Control_c, 14, 11, 84
14, 16750, Note_on_c, 14, 48, 0
14, 16750, Control_c, 14, 11, 85
14, 16780, Control_c, 14, 11, 86
14, 16810, Note_on_c, 14, 38, 106
14, 16810, Control_c, 14, 11, 90
14, 16816, Control_c, 14, 11, 93
14, 16822, Control_c, 14, 11, 96
14, 16828, Control_c, 14, 11, 99
14, 16842, Control_c, 14, 11, 96
14, 16851, Control_c, 14, 11, 93
14, 16860, Note_on_c, 14, 38, 0
14, 16860, Control_c, 14, 11, 90
14, 16869, Control_c, 14, 11, 87
14, 16870, Note_on_c, 14, 50, 106
14, 16920, Note_on_c, 14, 50, 0
14, 16930, Note_on_c, 14, 50, 106
14, 16980, Note_on_c, 14, 50, 0
14, 16990, Note_on_c, 14, 50, 106
14, 17040, Note_on_c, 14, 50, 0
14, 17050, Control_c, 14, 11, 92
14, 17050, Note_on_c, 14, 38, 106
14, 17058, Control_c, 14, 11, 95
14, 17067, Control_c, 14, 11, 98
14, 17076, Control_c, 14, 11, 101
14, 17091, Control_c, 14, 11, 100
14, 17100, Note_on_c, 14, 38, 0
14, 17109, Control_c, 14, 11, 97
14, 17110, Note_on_c, 14, 50, 106
14, 17127, Control_c, 14, 11, 94
14, 17145, Control_c, 14, 11, 91
14, 17160, Note_on_c, 14, 50, 0
14, 17163, Control_c, 14, 11, 88
14, 17170, Note_on_c, 14, 50, 106
14, 17220, Note_on_c, 14, 50, 0
14, 17230, Note_on_c, 14, 50, 106
14, 17280, Note_on_c, 14, 50, 0
14, 17290, Control_c, 14, 11, 92
14, 17290, Note_on_c, 14, 37, 106
14, 17298, Control_c, 14, 11, 95
14, 17307, Control_c, 14, 11, 98
14, 17316, Control_c, 14, 11, 101
14, 17331, Control_c, 14, 11, 100
14, 17340, Note_on_c, 14, 37, 0
14, 17349, Control_c, 14, 11, 97
14, 17350, Note_on_c, 14, 49, 106
14, 17367, Control_c, 14, 11, 94
14, 17385, Control_c, 14, 11, 91
14, 17400, Note_on_c, 14, 49, 0
14, 17403, Control_c, 14, 11, 88
14, 17410, Note_on_c, 14, 49, 106
14, 17460, Note_on_c, 14, 49, 0
14, 17470, Note_on_c, 14, 49, 106
14, 17520, Note_on_c, 14, 49, 0
14, 17530, Control_c, 14, 11, 92
14, 17530, Note_on_c, 14, 36, 106
14, 17538, Control_c, 14, 11, 95
14, 17547, Control_c, 14, 11, 98
14, 17556, Control_c, 14, 11, 101
14, 17571, Control_c, 14, 11, 100
14, 17580, Note_on_c, 14, 36, 0
14, 17589, Control_c, 14, 11, 97
14, 17590, Note_on_c, 14, 48, 106
14, 17607, Control_c, 14, 11, 94
14, 17625, Control_c, 14, 11, 91
14, 17640, Note_on_c, 14, 48, 0
14, 17643, Control_c, 14, 11, 88
14, 17650, Note_on_c, 14, 48, 106
14, 17700, Note_on_c, 14, 48, 0
14, 17710, Note_on_c, 14, 48, 106
14, 17760, Note_on_c, 14, 48, 0
14, 17770, Note_on_c, 14, 47, 106
14, 17820, Note_on_c, 14, 47, 0
14, 17830, Note_on_c, 14, 47, 106
14, 17880, Note_on_c, 14, 47, 0
14, 17890, Control_c, 14, 11, 102
14, 17890, Note_on_c, 14, 45, 106
14, 17940, Note_on_c, 14, 45, 0
14, 17950, Note_on_c, 14, 45, 106
14, 18000, Note_on_c, 14, 45, 0
14, 18010, Note_on_c, 14, 45, 106
14, 18060, Note_on_c, 14, 45, 0
14, 18070, Note_on_c, 14, 45, 106
14, 18120, Note_on_c, 14, 45, 0
14, 18130, Note_on_c, 14, 45, 106
14, 18180, Note_on_c, 14, 45, 0
14, 18190, Note_on_c, 14, 45, 106
14, 18240, Note_on_c, 14, 45, 0
14, 18250, Note_on_c, 14, 43, 106
14, 18300, Note_on_c, 14, 43, 0
14, 18310, Note_on_c, 14, 43, 106
14, 18360, Note_on_c, 14, 43, 0
14, 18370, Note_on_c, 14, 36, 106
14, 18420, Note_on_c, 14, 36, 0
14, 18430, Note_on_c, 14, 36, 106
14, 18480, Note_on_c, 14, 36, 0
14, 18490, Note_on_c, 14, 38, 106
14, 18540, Note_on_c, 14, 38, 0
14, 18550, Note_on_c, 14, 38, 106
14, 18600, Note_on_c, 14, 38, 0
14, 18610, Note_on_c, 14, 38, 106
14, 18660, Note_on_c, 14, 38, 0
14, 18670, Note_on_c, 14, 38, 106
14, 18720, Note_on_c, 14, 38, 0
14, 18730, Note_on_c, 14, 43, 106
14, 18850, Note_on_c, 14, 43, 0
14, 19030, Control_c, 14, 11, 122
14, 19030, Note_on_c, 14, 48, 106
14, 19038, Control_c, 14, 11, 119
14, 19047, Control_c, 14, 11, 116
14, 19056, Control_c, 14, 11, 113
14, 19065, Control_c, 14, 11, 110
14, 19074, Control_c, 14, 11, 107
14, 19083, Control_c, 14, 11, 104
14, 19130, Note_on_c, 14, 48, 0
14, 19150, Note_on_c, 14, 48, 106
14, 19195, Note_on_c, 14, 48, 0
14, 19210, Note_on_c, 14, 50, 106
14, 19270, Note_on_c, 14, 50, 0
14, 19510, Note_on_c, 14, 38, 106
14, 19510, Control_c, 14, 11, 122
14, 19518, Control_c, 14, 11, 119
14, 19527, Control_c, 14, 11, 116
14, 19536, Control_c, 14, 11, 113
14, 19545, Control_c, 14, 11, 110
14, 19554, Control_c, 14, 11, 107
14, 19563, Control_c, 14, 11, 104
14, 19610, Note_on_c, 14, 38, 0
14, 19630, Note_on_c, 14, 38, 106
14, 19675, Note_on_c, 14, 38, 0
14, 19690, Note_on_c, 14, 43, 106
14, 19750, Note_on_c, 14, 43, 0
14, 19990, Control_c, 14, 11, 122
14, 19990, Note_on_c, 14, 48, 106
14, 19998, Control_c, 14, 11, 119
14, 20007, Control_c, 14, 11, 116
14, 20016, Control_c, 14, 11, 113
14, 20025, Control_c, 14, 11, 110
14, 20034, Control_c, 14, 11, 107
14, 20043, Control_c, 14, 11, 104
14, 20090, Note_on_c, 14, 48, 0
14, 20110, Note_on_c, 14, 48, 106
14, 20155, Note_on_c, 14, 48, 0
14, 20170, Note_on_c, 14, 50, 106
14, 20230, Note_on_c, 14, 50, 0
14, 20470, Control_c, 14, 11, 122
14, 20470, Note_on_c, 14, 38, 106
14, 20478, Control_c, 14, 11, 119
14, 20487, Control_c, 14, 11, 116
14, 20496, Control_c, 14, 11, 113
14, 20505, Control_c, 14, 11, 110
14, 20514, Control_c, 14, 11, 107
14, 20523, Control_c, 14, 11, 104
14, 20570, Note_on_c, 14, 38, 0
14, 20590, Note_on_c, 14, 38, 106
14, 20635, Note_on_c, 14, 38, 0
14, 20650, Control_c, 14, 11, 122
14, 20650, Note_on_c, 14, 43, 106
14, 20667, Control_c, 14, 11, 119
14, 20685, Control_c, 14, 11, 116
14, 20703, Control_c, 14, 11, 113
14, 20721, Control_c, 14, 11, 110
14, 20739, Control_c, 14, 11, 107
14, 20757, Control_c, 14, 11, 104
14, 20995, Note_on_c, 14, 43, 0
14, 21010, Note_on_c, 14, 43, 106
14, 21040, Note_on_c, 14, 43, 0
14, 21070, Note_on_c, 14, 43, 106
14, 21100, Note_on_c, 14, 43, 0
14, 21130, Note_on_c, 14, 45, 106
14, 21130, Control_c, 14, 11, 122
14, 21147, Control_c, 14, 11, 119
14, 21165, Control_c, 14, 11, 116
14, 21183, Control_c, 14, 11, 113
14, 21201, Control_c, 14, 11, 110
14, 21219, Control_c, 14, 11, 107
14, 21237, Control_c, 14, 11, 104
14, 21475, Note_on_c, 14, 45, 0
14, 21490, Note_on_c, 14, 45, 106
14, 21520, Note_on_c, 14, 45, 0
14, 21550, Note_on_c, 14, 45, 106
14, 21580, Note_on_c, 14, 45, 0
14, 21610, Control_c, 14, 11, 122
14, 21610, Note_on_c, 14, 47, 106
14, 21627, Control_c, 14, 11, 119
14, 21645, Control_c, 14, 11, 116
14, 21663, Control_c, 14, 11, 113
14, 21681, Control_c, 14, 11, 110
14, 21699, Control_c, 14, 11, 107
14, 21717, Control_c, 14, 11, 104
14, 21955, Note_on_c, 14, 47, 0
14, 21970, Note_on_c, 14, 47, 106
14, 22000, Note_on_c, 14, 47, 0
14, 22030, Note_on_c, 14, 47, 106
14, 22060, Note_on_c, 14, 47, 0
14, 22090, Control_c, 14, 11, 122
14, 22090, Note_on_c, 14, 48, 106
14, 22107, Control_c, 14, 11, 119
14, 22125, Control_c, 14, 11, 116
14, 22143, Control_c, 14, 11, 113
14, 22161, Control_c, 14, 11, 110
14, 22179, Control_c, 14, 11, 107
14, 22197, Control_c, 14, 11, 104
14, 22435, Note_on_c, 14, 48, 0
14, 22450, Note_on_c, 14, 49, 106
14, 22480, Note_on_c, 14, 49, 0
14, 22510, Note_on_c, 14, 49, 106
14, 22540, Note_on_c, 14, 49, 0
14, 22570, Note_on_c, 14, 50, 106
14, 22570, Control_c, 14, 11, 122
14, 22587, Control_c, 14, 11, 119
14, 22605, Control_c, 14, 11, 116
14, 22623, Control_c, 14, 11, 113
14, 22641, Control_c, 14, 11, 110
14, 22659, Control_c, 14, 11, 107
14, 22677, Control_c, 14, 11, 104
14, 22750, Note_on_c, 14, 50, 0
14, 22750, Note_on_c, 14, 49, 106
14, 22795, Note_on_c, 14, 49, 0
14, 22810, Control_c, 14, 11, 122
14, 22810, Note_on_c, 14, 50, 106
14, 22827, Control_c, 14, 11, 119
14, 22845, Control_c, 14, 11, 116
14, 22863, Control_c, 14, 11, 113
14, 22881, Control_c, 14, 11, 110
14, 22899, Control_c, 14, 11, 107
14, 22917, Control_c, 14, 11, 104
14, 22990, Note_on_c, 14, 50, 0
14, 22990, Note_on_c, 14, 49, 106
14, 23035, Note_on_c, 14, 49, 0
14, 23050, Control_c, 14, 11, 92
14, 23050, Note_on_c, 14, 50, 106
14, 23061, Control_c, 14, 11, 89
14, 23073, Control_c, 14, 11, 86
14, 23080, Note_on_c, 14, 50, 0
14, 23085, Control_c, 14, 11, 83
14, 23097, Control_c, 14, 11, 80
14, 23109, Control_c, 14, 11, 77
14, 23110, Note_on_c, 14, 48, 106
14, 23121, Control_c, 14, 11, 74
14, 23133, Control_c, 14, 11, 71
14, 23140, Note_on_c, 14, 48, 0
14, 23145, Control_c, 14, 11, 68
14, 23157, Control_c, 14, 11, 65
14, 23169, Control_c, 14, 11, 62
14, 23170, Note_on_c, 14, 47, 106
14, 23181, Control_c, 14, 11, 59
14, 23193, Control_c, 14, 11, 56
14, 23200, Note_on_c, 14, 47, 0
14, 23205, Control_c, 14, 11, 53
14, 23217, Control_c, 14, 11, 50
14, 23229, Control_c, 14, 11, 47
14, 23230, Note_on_c, 14, 45, 106
14, 23260, Note_on_c, 14, 45, 0
14, 23290, Note_on_c, 14, 43, 106
14, 23320, Note_on_c, 14, 43, 0
14, 23350, Note_on_c, 14, 41, 106
14, 23380, Note_on_c, 14, 41, 0
14, 23410, Note_on_c, 14, 40, 106
14, 23440, Note_on_c, 14, 40, 0
14, 23470, Note_on_c, 14, 38, 106
14, 23500, Note_on_c, 14, 38, 0
14, 23530, Note_on_c, 14, 36, 106
14, 23650, Note_on_c, 14, 36, 0
14, 23770, Note_on_c, 14, 36, 106
14, 23890, Note_on_c, 14, 36, 0
14, 24010, Note_on_c, 14, 36, 106
14, 24130, Note_on_c, 14, 36, 0
14, 24250, Note_on_c, 14, 36, 106
14, 24370, Note_on_c, 14, 36, 0
14, 24370, Note_on_c, 14, 36, 106
14, 24490, Note_on_c, 14, 36, 0
14, 24490, Note_on_c, 14, 36, 106
14, 24610, Note_on_c, 14, 36, 0
14, 24730, Note_on_c, 14, 38, 106
14, 24850, Note_on_c, 14, 38, 0
14, 24970, Note_on_c, 14, 43, 82
14, 25090, Note_on_c, 14, 43, 0
14, 25750, Note_on_c, 14, 43, 106
14, 25780, Note_on_c, 14, 43, 0
14, 25810, Note_on_c, 14, 45, 106
14, 25840, Note_on_c, 14, 45, 0
14, 25870, Note_on_c, 14, 47, 106
14, 25900, Note_on_c, 14, 47, 0
14, 25930, Note_on_c, 14, 48, 106
14, 25960, Note_on_c, 14, 48, 0
14, 25990, Note_on_c, 14, 50, 106
14, 26020, Note_on_c, 14, 50, 0
14, 26050, Note_on_c, 14, 52, 106
14, 26080, Note_on_c, 14, 52, 0
14, 26230, Note_on_c, 14, 36, 106
14, 26260, Note_on_c, 14, 36, 0
14, 26290, Note_on_c, 14, 38, 106
14, 26320, Note_on_c, 14, 38, 0
14, 26350, Note_on_c, 14, 40, 106
14, 26380, Note_on_c, 14, 40, 0
14, 26410, Note_on_c, 14, 41, 106
14, 26440, Note_on_c, 14, 41, 0
14, 26470, Note_on_c, 14, 40, 106
14, 26500, Note_on_c, 14, 40, 0
14, 26530, Note_on_c, 14, 38, 106
14, 26560, Note_on_c, 14, 38, 0
14, 26590, Note_on_c, 14, 41, 106
14, 26620, Note_on_c, 14, 41, 0
14, 26650, Note_on_c, 14, 43, 106
14, 26680, Note_on_c, 14, 43, 0
14, 26710, Note_on_c, 14, 42, 106
14, 26740, Note_on_c, 14, 42, 0
14, 26770, Note_on_c, 14, 43, 106
14, 26800, Note_on_c, 14, 43, 0
14, 26830, Note_on_c, 14, 31, 106
14, 26860, Note_on_c, 14, 31, 0
14, 26890, Note_on_c, 14, 36, 106
14, 26920, Note_on_c, 14, 36, 0
14, 26950, Note_on_c, 14, 43, 106
14, 26980, Note_on_c, 14, 43, 0
14, 27010, Note_on_c, 14, 48, 106
14, 27040, Note_on_c, 14, 48, 0
14, 27130, Note_on_c, 14, 45, 106
14, 27190, Control_c, 14, 11, 47
14, 27205, Control_c, 14, 11, 48
14, 27220, Control_c, 14, 11, 49
14, 27235, Control_c, 14, 11, 50
14, 27250, Note_on_c, 14, 45, 0
14, 27251, Control_c, 14, 11, 51
14, 27266, Control_c, 14, 11, 52
14, 27281, Control_c, 14, 11, 53
14, 27296, Control_c, 14, 11, 54
14, 27312, Control_c, 14, 11, 55
14, 27327, Control_c, 14, 11, 56
14, 27342, Control_c, 14, 11, 57
14, 27358, Control_c, 14, 11, 58
14, 27370, Note_on_c, 14, 50, 106
14, 27373, Control_c, 14, 11, 59
14, 27388, Control_c, 14, 11, 60
14, 27403, Control_c, 14, 11, 61
14, 27419, Control_c, 14, 11, 62
14, 27434, Control_c, 14, 11, 63
14, 27449, Control_c, 14, 11, 64
14, 27464, Control_c, 14, 11, 65
14, 27480, Control_c, 14, 11, 66
14, 27490, Note_on_c, 14, 50, 0
14, 27495, Control_c, 14, 11, 67
14, 27510, Control_c, 14, 11, 68
14, 27526, Control_c, 14, 11, 69
14, 27541, Control_c, 14, 11, 70
14, 27556, Control_c, 14, 11, 71
14, 27571, Control_c, 14, 11, 72
14, 27587, Control_c, 14, 11, 73
14, 27602, Control_c, 14, 11, 74
14, 27610, Note_on_c, 14, 43, 106
14, 27617, Control_c, 14, 11, 75
14, 27632, Control_c, 14, 11, 76
14, 27648, Control_c, 14, 11, 77
14, 27663, Control_c, 14, 11, 78
14, 27678, Control_c, 14, 11, 79
14, 27694, Control_c, 14, 11, 80
14, 27709, Control_c, 14, 11, 81
14, 27724, Control_c, 14, 11, 82
14, 27730, Note_on_c, 14, 43, 0
14, 27739, Control_c, 14, 11, 83
14, 27755, Control_c, 14, 11, 84
14, 27770, Control_c, 14, 11, 85
14, 27785, Control_c, 14, 11, 86
14, 27800, Control_c, 14, 11, 87
14, 27816, Control_c, 14, 11, 88
14, 27831, Control_c, 14, 11, 89
14, 27846, Control_c, 14, 11, 90
14, 27850, Note_on_c, 14, 48, 106
14, 27862, Control_c, 14, 11, 91
14, 27877, Control_c, 14, 11, 92
14, 27892, Control_c, 14, 11, 93
14, 27907, Control_c, 14, 11, 94
14, 27923, Control_c, 14, 11, 95
14, 27938, Control_c, 14, 11, 96
14, 27953, Control_c, 14, 11, 97
14, 27968, Control_c, 14, 11, 98
14, 27970, Note_on_c, 14, 48, 0
14, 27984, Control_c, 14, 11, 99
14, 27999, Control_c, 14, 11, 100
14, 28014, Control_c, 14, 11, 101
14, 28030, Control_c, 14, 11, 102
14, 28150, Note_on_c, 14, 36, 106
14, 28180, Note_on_c, 14, 36, 0
14, 28210, Note_on_c, 14, 38, 106
14, 28240, Note_on_c, 14, 38, 0
14, 28270, Note_on_c, 14, 40, 106
14, 28300, Note_on_c, 14, 40, 0
14, 28330, Note_on_c, 14, 41, 106
14, 28360, Note_on_c, 14, 41, 0
14, 28390, Note_on_c, 14, 40, 106
14, 28420, Note_on_c, 14, 40, 0
14, 28450, Note_on_c, 14, 38, 106
14, 28480, Note_on_c, 14, 38, 0
14, 28510, Note_on_c, 14, 41, 106
14, 28540, Note_on_c, 14, 41, 0
14, 28570, Note_on_c, 14, 43, 106
14, 28600, Note_on_c, 14, 43, 0
14, 28630, Note_on_c, 14, 42, 106
14, 28660, Note_on_c, 14, 42, 0
14, 28690, Note_on_c, 14, 43, 106
14, 28720, Note_on_c, 14, 43, 0
14, 28750, Note_on_c, 14, 31, 106
14, 28780, Note_on_c, 14, 31, 0
14, 28810, Note_on_c, 14, 36, 106
14, 28930, Note_on_c, 14, 36, 0
14, 29590, Control_c, 14, 11, 87
14, 29590, Note_on_c, 14, 31, 106
14, 29635, Note_on_c, 14, 31, 0
14, 29650, Note_on_c, 14, 31, 106
14, 29695, Note_on_c, 14, 31, 0
14, 29710, Note_on_c, 14, 31, 106
14, 29755, Note_on_c, 14, 31, 0
14, 29770, Note_on_c, 14, 36, 106
14, 29890, Note_on_c, 14, 36, 0
14, 30550, Note_on_c, 14, 43, 106
14, 30595, Note_on_c, 14, 43, 0
14, 30610, Note_on_c, 14, 43, 106
14, 30655, Note_on_c, 14, 43, 0
14, 30670, Note_on_c, 14, 43, 106
14, 30715, Note_on_c, 14, 43, 0
14, 30730, Note_on_c, 14, 48, 106
14, 30790, Note_on_c, 14, 48, 0
14, 30850, Note_on_c, 14, 45, 106
14, 30851, Control_c, 14, 11, 107
14, 30868, Control_c, 14, 11, 104
14, 30886, Control_c, 14, 11, 101
14, 30904, Control_c, 14, 11, 98
14, 30921, Control_c, 14, 11, 95
14, 30939, Control_c, 14, 11, 92
14, 30957, Control_c, 14, 11, 89
14, 31080, Note_on_c, 14, 45, 0
14, 31090, Note_on_c, 14, 45, 106
14, 31200, Note_on_c, 14, 45, 0
14, 31210, Note_on_c, 14, 42, 106
14, 31320, Note_on_c, 14, 42, 0
14, 31330, Control_c, 14, 11, 107
14, 31330, Note_on_c, 14, 44, 106
14, 31347, Control_c, 14, 11, 104
14, 31365, Control_c, 14, 11, 101
14, 31383, Control_c, 14, 11, 98
14, 31401, Control_c, 14, 11, 95
14, 31419, Control_c, 14, 11, 92
14, 31437, Control_c, 14, 11, 89
14, 31560, Note_on_c, 14, 44, 0
14, 31570, Note_on_c, 14, 40, 106
14, 31680, Note_on_c, 14, 40, 0
14, 31690, Note_on_c, 14, 45, 106
14, 31800, Note_on_c, 14, 45, 0
14, 31810, Note_on_c, 14, 38, 106
14, 31920, Note_on_c, 14, 38, 0
14, 31930, Note_on_c, 14, 43, 106
14, 32040, Note_on_c, 14, 43, 0
14, 32050, Note_on_c, 14, 35, 106
14, 32160, Note_on_c, 14, 35, 0
14, 32170, Note_on_c, 14, 36, 106
14, 32290, Note_on_c, 14, 36, 0
14, 32410, Note_on_c, 14, 37, 106
14, 32530, Note_on_c, 14, 37, 0
14, 32650, Note_on_c, 14, 38, 106
14, 32680, Note_on_c, 14, 38, 0
14, 32710, Note_on_c, 14, 38, 106
14, 32740, Note_on_c, 14, 38, 0
14, 32770, Note_on_c, 14, 42, 106
14, 32800, Note_on_c, 14, 42, 0
14, 32830, Note_on_c, 14, 43, 106
14, 32860, Note_on_c, 14, 43, 0
14, 32890, Note_on_c, 14, 45, 106
14, 32920, Note_on_c, 14, 45, 0
14, 32950, Note_on_c, 14, 47, 106
14, 32980, Note_on_c, 14, 47, 0
14, 33010, Control_c, 14, 11, 107
14, 33010, Note_on_c, 14, 48, 106
14, 33028, Control_c, 14, 11, 104
14, 33046, Control_c, 14, 11, 101
14, 33064, Control_c, 14, 11, 98
14, 33082, Control_c, 14, 11, 95
14, 33100, Control_c, 14, 11, 92
14, 33118, Control_c, 14, 11, 89
14, 33190, Note_on_c, 14, 48, 0
14, 33190, Note_on_c, 14, 47, 106
14, 33240, Note_on_c, 14, 47, 0
14, 33250, Note_on_c, 14, 50, 106
14, 33280, Note_on_c, 14, 50, 0
14, 33310, Note_on_c, 14, 47, 106
14, 33340, Note_on_c, 14, 47, 0
14, 33370, Note_on_c, 14, 43, 106
14, 33400, Note_on_c, 14, 43, 0
14, 33430, Note_on_c, 14, 43, 106
14, 33460, Note_on_c, 14, 43, 0
14, 33490, Note_on_c, 14, 47, 106
14, 33520, Note_on_c, 14, 47, 0
14, 33550, Note_on_c, 14, 43, 106
14, 33580, Note_on_c, 14, 43, 0
14, 33610, Note_on_c, 14, 38, 106
14, 33640, Note_on_c, 14, 38, 0
14, 33670, Note_on_c, 14, 38, 106
14, 33700, Note_on_c, 14, 38, 0
14, 33730, Note_on_c, 14, 42, 106
14, 33760, Note_on_c, 14, 42, 0
14, 33790, Note_on_c, 14, 43, 106
14, 33820, Note_on_c, 14, 43, 0
14, 33850, Note_on_c, 14, 45, 106
14, 33880, Note_on_c, 14, 45, 0
14, 33910, Note_on_c, 14, 47, 106
14, 33940, Note_on_c, 14, 47, 0
14, 33970, Note_on_c, 14, 48, 106
14, 33970, Control_c, 14, 11, 107
14, 33988, Control_c, 14, 11, 104
14, 34006, Control_c, 14, 11, 101
14, 34024, Control_c, 14, 11, 98
14, 34042, Control_c, 14, 11, 95
14, 34060, Control_c, 14, 11, 92
14, 34078, Control_c, 14, 11, 89
14, 34150, Note_on_c, 14, 48, 0
14, 34150, Note_on_c, 14, 47, 106
14, 34200, Note_on_c, 14, 47, 0
14, 34210, Note_on_c, 14, 50, 106
14, 34240, Note_on_c, 14, 50, 0
14, 34270, Note_on_c, 14, 47, 106
14, 34300, Note_on_c, 14, 47, 0
14, 34330, Note_on_c, 14, 43, 106
14, 34360, Note_on_c, 14, 43, 0
14, 34390, Note_on_c, 14, 43, 106
14, 34420, Note_on_c, 14, 43, 0
14, 34450, Note_on_c, 14, 47, 106
14, 34480, Note_on_c, 14, 47, 0
14, 34510, Note_on_c, 14, 43, 106
14, 34540, Note_on_c, 14, 43, 0
14, 34570, Note_on_c, 14, 38, 91
14, 34690, Note_on_c, 14, 38, 0
14, 35050, Note_on_c, 14, 43, 106
14, 35050, Control_c, 14, 11, 47
14, 35110, Note_on_c, 14, 43, 0
14, 35170, Note_on_c, 14, 38, 106
14, 35230, Note_on_c, 14, 38, 0
14, 35290, Note_on_c, 14, 45, 106
14, 35350, Note_on_c, 14, 45, 0
14, 35410, Note_on_c, 14, 38, 106
14, 35470, Note_on_c, 14, 38, 0
14, 35530, Note_on_c, 14, 47, 106
14, 35590, Note_on_c, 14, 47, 0
14, 35650, Note_on_c, 14, 38, 106
14, 35710, Note_on_c, 14, 38, 0
14, 35770, Note_on_c, 14, 42, 106
14, 35830, Note_on_c, 14, 42, 0
14, 35890, Note_on_c, 14, 38, 106
14, 35950, Note_on_c, 14, 38, 0
14, 36010, Note_on_c, 14, 43, 106
14, 36070, Note_on_c, 14, 43, 0
14, 36130, Note_on_c, 14, 38, 106
14, 36190, Note_on_c, 14, 38, 0
14, 36250, Note_on_c, 14, 45, 106
14, 36310, Note_on_c, 14, 45, 0
14, 36370, Note_on_c, 14, 38, 106
14, 36430, Note_on_c, 14, 38, 0
14, 36490, Note_on_c, 14, 47, 106
14, 36550, Note_on_c, 14, 47, 0
14, 36610, Note_on_c, 14, 38, 106
14, 36670, Note_on_c, 14, 38, 0
14, 36730, Note_on_c, 14, 42, 106
14, 36790, Note_on_c, 14, 42, 0
14, 36850, Note_on_c, 14, 38, 106
14, 36910, Note_on_c, 14, 38, 0
14, 36970, Note_on_c, 14, 43, 106
14, 37030, Note_on_c, 14, 43, 0
14, 37090, Note_on_c, 14, 38, 106
14, 37150, Note_on_c, 14, 38, 0
14, 37210, Control_c, 14, 11, 47
14, 37210, Note_on_c, 14, 45, 106
14, 37240, Control_c, 14, 11, 48
14, 37270, Note_on_c, 14, 45, 0
14, 37270, Control_c, 14, 11, 49
14, 37300, Control_c, 14, 11, 50
14, 37330, Control_c, 14, 11, 51
14, 37330, Note_on_c, 14, 38, 106
14, 37360, Control_c, 14, 11, 52
14, 37390, Note_on_c, 14, 38, 0
14, 37390, Control_c, 14, 11, 53
14, 37420, Control_c, 14, 11, 54
14, 37450, Control_c, 14, 11, 55
14, 37450, Note_on_c, 14, 47, 106
14, 37480, Control_c, 14, 11, 56
14, 37510, Note_on_c, 14, 47, 0
14, 37510, Control_c, 14, 11, 57
14, 37540, Control_c, 14, 11, 58
14, 37570, Control_c, 14, 11, 59
14, 37570, Note_on_c, 14, 43, 106
14, 37600, Control_c, 14, 11, 60
14, 37630, Note_on_c, 14, 43, 0
14, 37630, Control_c, 14, 11, 61
14, 37660, Control_c, 14, 11, 62
14, 37690, Note_on_c, 14, 48, 106
14, 37690, Control_c, 14, 11, 63
14, 37720, Control_c, 14, 11, 64
14, 37750, Note_on_c, 14, 48, 0
14, 37750, Control_c, 14, 11, 65
14, 37780, Control_c, 14, 11, 66
14, 37810, Control_c, 14, 11, 67
14, 37810, Note_on_c, 14, 43, 106
14, 37840, Control_c, 14, 11, 68
14, 37870, Note_on_c, 14, 43, 0
14, 37870, Control_c, 14, 11, 69
14, 37900, Control_c, 14, 11, 70
14, 37930, Note_on_c, 14, 50, 106
14, 37930, Control_c, 14, 11, 71
14, 37960, Control_c, 14, 11, 72
14, 37990, Note_on_c, 14, 50, 0
14, 37990, Control_c, 14, 11, 73
14, 38020, Control_c, 14, 11, 74
14, 38050, Note_on_c, 14, 43, 106
14, 38050, Control_c, 14, 11, 75
14, 38080, Control_c, 14, 11, 76
14, 38110, Note_on_c, 14, 43, 0
14, 38110, Control_c, 14, 11, 77
14, 38140, Control_c, 14, 11, 78
14, 38170, Note_on_c, 14, 52, 106
14, 38170, Control_c, 14, 11, 79
14, 38200, Control_c, 14, 11, 80
14, 38230, Note_on_c, 14, 52, 0
14, 38230, Control_c, 14, 11, 81
14, 38260, Control_c, 14, 11, 82
14, 38290, Note_on_c, 14, 48, 106
14, 38290, Control_c, 14, 11, 83
14, 38320, Control_c, 14, 11, 84
14, 38350, Note_on_c, 14, 48, 0
14, 38350, Control_c, 14, 11, 85
14, 38380, Control_c, 14, 11, 86
14, 38410, Control_c, 14, 11, 92
14, 38410, Note_on_c, 14, 38, 106
14, 38414, Control_c, 14, 11, 95
14, 38418, Control_c, 14, 11, 98
14, 38422, Control_c, 14, 11, 101
14, 38436, Control_c, 14, 11, 98
14, 38445, Control_c, 14, 11, 95
14, 38454, Control_c, 14, 11, 92
14, 38460, Note_on_c, 14, 38, 0
14, 38463, Control_c, 14, 11, 89
14, 38470, Note_on_c, 14, 50, 106
14, 38520, Note_on_c, 14, 50, 0
14, 38530, Note_on_c, 14, 50, 106
14, 38580, Note_on_c, 14, 50, 0
14, 38590, Note_on_c, 14, 50, 106
14, 38640, Note_on_c, 14, 50, 0
14, 38650, Control_c, 14, 11, 92
14, 38650, Note_on_c, 14, 38, 106
14, 38658, Control_c, 14, 11, 95
14, 38667, Control_c, 14, 11, 98
14, 38676, Control_c, 14, 11, 101
14, 38691, Control_c, 14, 11, 100
14, 38700, Note_on_c, 14, 38, 0
14, 38709, Control_c, 14, 11, 97
14, 38710, Note_on_c, 14, 50, 106
14, 38727, Control_c, 14, 11, 94
14, 38745, Control_c, 14, 11, 91
14, 38760, Note_on_c, 14, 50, 0
14, 38763, Control_c, 14, 11, 88
14, 38770, Note_on_c, 14, 50, 106
14, 38820, Note_on_c, 14, 50, 0
14, 38830, Note_on_c, 14, 50, 106
14, 38880, Note_on_c, 14, 50, 0
14, 38890, Control_c, 14, 11, 92
14, 38890, Note_on_c, 14, 37, 106
14, 38898, Control_c, 14, 11, 95
14, 38907, Control_c, 14, 11, 98
14, 38916, Control_c, 14, 11, 101
14, 38931, Control_c, 14, 11, 100
14, 38940, Note_on_c, 14, 37, 0
14, 38949, Control_c, 14, 11, 97
14, 38950, Note_on_c, 14, 49, 106
14, 38967, Control_c, 14, 11, 94
14, 38985, Control_c, 14, 11, 91
14, 39000, Note_on_c, 14, 49, 0
14, 39003, Control_c, 14, 11, 88
14, 39010, Note_on_c, 14, 49, 106
14, 39060, Note_on_c, 14, 49, 0
14, 39070, Note_on_c, 14, 49, 106
14, 39120, Note_on_c, 14, 49, 0
14, 39130, Note_on_c, 14, 36, 106
14, 39130, Control_c, 14, 11, 92
14, 39138, Control_c, 14, 11, 95
14, 39147, Control_c, 14, 11, 98
14, 39156, Control_c, 14, 11, 101
14, 39171, Control_c, 14, 11, 100
14, 39180, Note_on_c, 14, 36, 0
14, 39189, Control_c, 14, 11, 97
14, 39190, Note_on_c, 14, 48, 106
14, 39207, Control_c, 14, 11, 94
14, 39225, Control_c, 14, 11, 91
14, 39240, Note_on_c, 14, 48, 0
14, 39243, Control_c, 14, 11, 88
14, 39250, Note_on_c, 14, 48, 106
14, 39300, Note_on_c, 14, 48, 0
14, 39310, Note_on_c, 14, 48, 106
14, 39360, Note_on_c, 14, 48, 0
14, 39370, Note_on_c, 14, 47, 106
14, 39420, Note_on_c, 14, 47, 0
14, 39430, Note_on_c, 14, 47, 106
14, 39480, Note_on_c, 14, 47, 0
14, 39490, Note_on_c, 14, 45, 106
14, 39490, Control_c, 14, 11, 102
14, 39540, Note_on_c, 14, 45, 0
14, 39550, Note_on_c, 14, 45, 106
14, 39600, Note_on_c, 14, 45, 0
14, 39610, Note_on_c, 14, 45, 106
14, 39660, Note_on_c, 14, 45, 0
14, 39670, Note_on_c, 14, 45, 106
14, 39720, Note_on_c, 14, 45, 0
14, 39730, Note_on_c, 14, 45, 106
14, 39780, Note_on_c, 14, 45, 0
14, 39790, Note_on_c, 14, 45, 106
14, 39840, Note_on_c, 14, 45, 0
14, 39850, Note_on_c, 14, 43, 106
14, 39900, Note_on_c, 14, 43, 0
14, 39910, Note_on_c, 14, 43, 106
14, 39960, Note_on_c, 14, 43, 0
14, 39970, Note_on_c, 14, 36, 106
14, 40020, Note_on_c, 14, 36, 0
14, 40030, Note_on_c, 14, 36, 106
14, 40080, Note_on_c, 14, 36, 0
14, 40090, Note_on_c, 14, 38, 106
14, 40140, Note_on_c, 14, 38, 0
14, 40150, Note_on_c, 14, 38, 106
14, 40200, Note_on_c, 14, 38, 0
14, 40210, Note_on_c, 14, 38, 106
14, 40260, Note_on_c, 14, 38, 0
14, 40270, Note_on_c, 14, 38, 106
14, 40320, Note_on_c, 14, 38, 0
14, 40330, Note_on_c, 14, 43, 106
14, 40450, Note_on_c, 14, 43, 0
14, 40630, Control_c, 14, 11, 122
14, 40630, Note_on_c, 14, 48, 106
14, 40638, Control_c, 14, 11, 119
14, 40647, Control_c, 14, 11, 116
14, 40656, Control_c, 14, 11, 113
14, 40665, Control_c, 14, 11, 110
14, 40674, Control_c, 14, 11, 107
14, 40683, Control_c, 14, 11, 104
14, 40730, Note_on_c, 14, 48, 0
14, 40750, Note_on_c, 14, 48, 106
14, 40795, Note_on_c, 14, 48, 0
14, 40810, Note_on_c, 14, 50, 106
14, 40870, Note_on_c, 14, 50, 0
14, 41110, Note_on_c, 14, 38, 106
14, 41110, Control_c, 14, 11, 122
14, 41118, Control_c, 14, 11, 119
14, 41127, Control_c, 14, 11, 116
14, 41136, Control_c, 14, 11, 113
14, 41145, Control_c, 14, 11, 110
14, 41154, Control_c, 14, 11, 107
14, 41163, Control_c, 14, 11, 104
14, 41210, Note_on_c, 14, 38, 0
14, 41230, Note_on_c, 14, 38, 106
14, 41275, Note_on_c, 14, 38, 0
14, 41290, Note_on_c, 14, 43, 106
14, 41350, Note_on_c, 14, 43, 0
14, 41590, Control_c, 14, 11, 122
14, 41590, Note_on_c, 14, 48, 106
14, 41598, Control_c, 14, 11, 119
14, 41607, Control_c, 14, 11, 116
14, 41616, Control_c, 14, 11, 113
14, 41625, Control_c, 14, 11, 110
14, 41634, Control_c, 14, 11, 107
14, 41643, Control_c, 14, 11, 104
14, 41690, Note_on_c, 14, 48, 0
14, 41710, Note_on_c, 14, 48, 106
14, 41755, Note_on_c, 14, 48, 0
14, 41770, Note_on_c, 14, 50, 106
14, 41830, Note_on_c, 14, 50, 0
14, 42070, Control_c, 14, 11, 122
14, 42070, Note_on_c, 14, 38, 106
14, 42078, Control_c, 14, 11, 119
14, 42087, Control_c, 14, 11, 116
14, 42096, Control_c, 14, 11, 113
14, 42105, Control_c, 14, 11, 110
14, 42114, Control_c, 14, 11, 107
14, 42123, Control_c, 14, 11, 104
14, 42170, Note_on_c, 14, 38, 0
14, 42190, Note_on_c, 14, 38, 106
14, 42235, Note_on_c, 14, 38, 0
14, 42250, Note_on_c, 14, 43, 106
14, 42250, Control_c, 14, 11, 122
14, 42267, Control_c, 14, 11, 119
14, 42285, Control_c, 14, 11, 116
14, 42303, Control_c, 14, 11, 113
14, 42321, Control_c, 14, 11, 110
14, 42339, Control_c, 14, 11, 107
14, 42357, Control_c, 14, 11, 104
14, 42595, Note_on_c, 14, 43, 0
14, 42610, Note_on_c, 14, 43, 106
14, 42640, Note_on_c, 14, 43, 0
14, 42670, Note_on_c, 14, 43, 106
14, 42700, Note_on_c, 14, 43, 0
14, 42730, Note_on_c, 14, 45, 106
14, 42730, Control_c, 14, 11, 122
14, 42747, Control_c, 14, 11, 119
14, 42765, Control_c, 14, 11, 116
14, 42783, Control_c, 14, 11, 113
14, 42801, Control_c, 14, 11, 110
14, 42819, Control_c, 14, 11, 107
14, 42837, Control_c, 14, 11, 104
14, 43075, Note_on_c, 14, 45, 0
14, 43090, Note_on_c, 14, 45, 106
14, 43120, Note_on_c, 14, 45, 0
14, 43150, Note_on_c, 14, 45, 106
14, 43180, Note_on_c, 14, 45, 0
14, 43210, Note_on_c, 14, 47, 106
14, 43210, Control_c, 14, 11, 122
14, 43227, Control_c, 14, 11, 119
14, 43245, Control_c, 14, 11, 116
14, 43263, Control_c, 14, 11, 113
14, 43281, Control_c, 14, 11, 110
14, 43299, Control_c, 14, 11, 107
14, 43317, Control_c, 14, 11, 104
14, 43555, Note_on_c, 14, 47, 0
14, 43570, Note_on_c, 14, 47, 106
14, 43600, Note_on_c, 14, 47, 0
14, 43630, Note_on_c, 14, 47, 106
14, 43660, Note_on_c, 14, 47, 0
14, 43690, Control_c, 14, 11, 122
14, 43690, Note_on_c, 14, 48, 106
14, 43707, Control_c, 14, 11, 119
14, 43725, Control_c, 14, 11, 116
14, 43743, Control_c, 14, 11, 113
14, 43761, Control_c, 14, 11, 110
14, 43779, Control_c, 14, 11, 107
14, 43797, Control_c, 14, 11, 104
14, 44035, Note_on_c, 14, 48, 0
14, 44050, Note_on_c, 14, 49, 106
14, 44080, Note_on_c, 14, 49, 0
14, 44110, Note_on_c, 14, 49, 106
14, 44140, Note_on_c, 14, 49, 0
14, 44170, Control_c, 14, 11, 122
14, 44170, Note_on_c, 14, 50, 106
14, 44187, Control_c, 14, 11, 119
14, 44205, Control_c, 14, 11, 116
14, 44223, Control_c, 14, 11, 113
14, 44241, Control_c, 14, 11, 110
14, 44259, Control_c, 14, 11, 107
14, 44277, Control_c, 14, 11, 104
14, 44350, Note_on_c, 14, 50, 0
14, 44350, Note_on_c, 14, 49, 106
14, 44395, Note_on_c, 14, 49, 0
14, 44410, Control_c, 14, 11, 122
14, 44410, Note_on_c, 14, 50, 106
14, 44427, Control_c, 14, 11, 119
14, 44445, Control_c, 14, 11, 116
14, 44463, Control_c, 14, 11, 113
14, 44481, Control_c, 14, 11, 110
14, 44499, Control_c, 14, 11, 107
14, 44517, Control_c, 14, 11, 104
14, 44590, Note_on_c, 14, 50, 0
14, 44590, Note_on_c, 14, 49, 106
14, 44635, Note_on_c, 14, 49, 0
14, 44650, Note_on_c, 14, 50, 96
14, 44725, Control_c, 14, 11, 102
14, 44728, Control_c, 14, 11, 99
14, 44731, Control_c, 14, 11, 96
14, 44734, Control_c, 14, 11, 93
14, 44738, Control_c, 14, 11, 90
14, 44741, Control_c, 14, 11, 87
14, 44744, Control_c, 14, 11, 84
14, 44748, Control_c, 14, 11, 81
14, 44751, Control_c, 14, 11, 78
14, 44754, Control_c, 14, 11, 75
14, 44758, Control_c, 14, 11, 72
14, 44761, Control_c, 14, 11, 69
14, 44764, Control_c, 14, 11, 66
14, 44767, Control_c, 14, 11, 63
14, 44770, Note_on_c, 14, 50, 0
14, 47050, Control_c, 14, 11, 37
14, 47050, Note_on_c, 14, 41, 106
14, 47068, Control_c, 14, 11, 40
14, 47086, Control_c, 14, 11, 43
14, 47104, Control_c, 14, 11, 46
14, 47170, Note_on_c, 14, 41, 0
14, 47530, Note_on_c, 14, 34, 106
14, 47530, Control_c, 14, 11, 102
14, 47580, Note_on_c, 14, 34, 0
14, 47590, Note_on_c, 14, 34, 106
14, 47640, Note_on_c, 14, 34, 0
14, 47650, Note_on_c, 14, 34, 106
14, 47700, Note_on_c, 14, 34, 0
14, 47710, Note_on_c, 14, 34, 106
14, 47760, Note_on_c, 14, 34, 0
14, 47770, Note_on_c, 14, 34, 106
14, 47820, Note_on_c, 14, 34, 0
14, 47830, Note_on_c, 14, 34, 106
14, 47880, Note_on_c, 14, 34, 0
14, 47890, Note_on_c, 14, 34, 106
14, 47940, Note_on_c, 14, 34, 0
14, 47950, Note_on_c, 14, 34, 106
14, 48000, Note_on_c, 14, 34, 0
14, 48010, Note_on_c, 14, 34, 106
14, 48060, Note_on_c, 14, 34, 0
14, 48070, Note_on_c, 14, 34, 106
14, 48120, Note_on_c, 14, 34, 0
14, 48130, Note_on_c, 14, 34, 106
14, 48180, Note_on_c, 14, 34, 0
14, 48190, Note_on_c, 14, 34, 106
14, 48240, Note_on_c, 14, 34, 0
14, 48250, Note_on_c, 14, 34, 106
14, 48300, Note_on_c, 14, 34, 0
14, 48310, Note_on_c, 14, 34, 106
14, 48360, Note_on_c, 14, 34, 0
14, 48370, Note_on_c, 14, 34, 106
14, 48420, Note_on_c, 14, 34, 0
14, 48430, Note_on_c, 14, 34, 106
14, 48480, Note_on_c, 14, 34, 0
14, 48490, Note_on_c, 14, 34, 106
14, 48540, Note_on_c, 14, 34, 0
14, 48550, Note_on_c, 14, 34, 106
14, 48600, Note_on_c, 14, 34, 0
14, 48610, Note_on_c, 14, 34, 106
14, 48660, Note_on_c, 14, 34, 0
14, 48670, Note_on_c, 14, 34, 106
14, 48720, Note_on_c, 14, 34, 0
14, 48730, Note_on_c, 14, 34, 106
14, 48780, Note_on_c, 14, 34, 0
14, 48790, Note_on_c, 14, 34, 106
14, 48840, Note_on_c, 14, 34, 0
14, 48850, Note_on_c, 14, 34, 106
14, 48900, Note_on_c, 14, 34, 0
14, 48910, Note_on_c, 14, 34, 106
14, 48960, Note_on_c, 14, 34, 0
14, 48970, Note_on_c, 14, 34, 106
14, 49020, Note_on_c, 14, 34, 0
14, 49030, Note_on_c, 14, 34, 106
14, 49080, Note_on_c, 14, 34, 0
14, 49090, Note_on_c, 14, 34, 106
14, 49140, Note_on_c, 14, 34, 0
14, 49150, Note_on_c, 14, 34, 106
14, 49200, Note_on_c, 14, 34, 0
14, 49210, Note_on_c, 14, 34, 106
14, 49260, Note_on_c, 14, 34, 0
14, 49270, Note_on_c, 14, 34, 106
14, 49320, Note_on_c, 14, 34, 0
14, 49330, Note_on_c, 14, 34, 106
14, 49380, Note_on_c, 14, 34, 0
14, 49390, Note_on_c, 14, 34, 106
14, 49440, Note_on_c, 14, 34, 0
14, 49450, Control_c, 14, 11, 87
14, 49450, Note_on_c, 14, 34, 106
14, 49570, Note_on_c, 14, 34, 0
14, 50890, Control_c, 14, 11, 47
14, 50890, Note_on_c, 14, 41, 106
14, 51010, Note_on_c, 14, 41, 0
14, 51370, Note_on_c, 14, 36, 106
14, 51490, Note_on_c, 14, 36, 0
14, 51850, Note_on_c, 14, 41, 106
14, 51970, Note_on_c, 14, 41, 0
14, 52810, Note_on_c, 14, 45, 106
14, 52870, Note_on_c, 14, 45, 0
14, 52930, Note_on_c, 14, 40, 106
14, 52990, Note_on_c, 14, 40, 0
14, 53050, Note_on_c, 14, 37, 106
14, 53110, Note_on_c, 14, 37, 0
14, 53170, Note_on_c, 14, 33, 106
14, 53230, Note_on_c, 14, 33, 0
14, 53290, Note_on_c, 14, 50, 106
14, 53350, Note_on_c, 14, 50, 0
14, 53410, Note_on_c, 14, 45, 106
14, 53470, Note_on_c, 14, 45, 0
14, 53530, Note_on_c, 14, 42, 106
14, 53590, Note_on_c, 14, 42, 0
14, 53650, Note_on_c, 14, 38, 106
14, 53710, Note_on_c, 14, 38, 0
14, 53770, Note_on_c, 14, 43, 106
14, 53830, Note_on_c, 14, 43, 0
14, 53890, Note_on_c, 14, 38, 106
14, 53950, Note_on_c, 14, 38, 0
14, 54010, Note_on_c, 14, 35, 106
14, 54070, Note_on_c, 14, 35, 0
14, 54130, Note_on_c, 14, 31, 106
14, 54190, Note_on_c, 14, 31, 0
14, 54250, Note_on_c, 14, 48, 106
14, 54310, Note_on_c, 14, 48, 0
14, 54370, Note_on_c, 14, 43, 106
14, 54430, Note_on_c, 14, 43, 0
14, 54490, Note_on_c, 14, 40, 106
14, 54550, Note_on_c, 14, 40, 0
14, 54610, Note_on_c, 14, 36, 106
14, 54670, Note_on_c, 14, 36, 0
14, 54730, Control_c, 14, 11, 47
14, 54730, Note_on_c, 14, 29, 106
14, 54754, Control_c, 14, 11, 49
14, 54778, Control_c, 14, 11, 51
14, 54780, Note_on_c, 14, 29, 0
14, 54790, Note_on_c, 14, 41, 106
14, 54802, Control_c, 14, 11, 53
14, 54826, Control_c, 14, 11, 55
14, 54840, Note_on_c, 14, 41, 0
14, 54850, Control_c, 14, 11, 57
14, 54850, Note_on_c, 14, 41, 106
14, 54874, Control_c, 14, 11, 59
14, 54898, Control_c, 14, 11, 61
14, 54900, Note_on_c, 14, 41, 0
14, 54910, Note_on_c, 14, 41, 106
14, 54922, Control_c, 14, 11, 63
14, 54946, Control_c, 14, 11, 65
14, 54960, Note_on_c, 14, 41, 0
14, 54970, Note_on_c, 14, 41, 106
14, 54970, Control_c, 14, 11, 67
14, 54994, Control_c, 14, 11, 69
14, 55018, Control_c, 14, 11, 71
14, 55020, Note_on_c, 14, 41, 0
14, 55030, Note_on_c, 14, 41, 106
14, 55042, Control_c, 14, 11, 73
14, 55066, Control_c, 14, 11, 75
14, 55080, Note_on_c, 14, 41, 0
14, 55090, Control_c, 14, 11, 77
14, 55090, Note_on_c, 14, 41, 106
14, 55114, Control_c, 14, 11, 79
14, 55138, Control_c, 14, 11, 81
14, 55140, Note_on_c, 14, 41, 0
14, 55150, Note_on_c, 14, 42, 106
14, 55162, Control_c, 14, 11, 83
14, 55186, Control_c, 14, 11, 85
14, 55200, Note_on_c, 14, 42, 0
14, 55210, Control_c, 14, 11, 87
14, 55210, Note_on_c, 14, 43, 106
14, 55240, Note_on_c, 14, 43, 0
14, 55270, Note_on_c, 14, 43, 106
14, 55300, Note_on_c, 14, 43, 0
14, 55330, Note_on_c, 14, 47, 106
14, 55360, Note_on_c, 14, 47, 0
14, 55390, Note_on_c, 14, 48, 106
14, 55420, Note_on_c, 14, 48, 0
14, 55450, Note_on_c, 14, 50, 106
14, 55480, Note_on_c, 14, 50, 0
14, 55510, Note_on_c, 14, 52, 106
14, 55540, Note_on_c, 14, 52, 0
14, 55570, Control_c, 14, 11, 107
14, 55570, Note_on_c, 14, 53, 106
14, 55588, Control_c, 14, 11, 104
14, 55606, Control_c, 14, 11, 101
14, 55624, Control_c, 14, 11, 98
14, 55642, Control_c, 14, 11, 95
14, 55660, Control_c, 14, 11, 92
14, 55678, Control_c, 14, 11, 89
14, 55750, Note_on_c, 14, 53, 0
14, 55750, Note_on_c, 14, 52, 106
14, 55800, Note_on_c, 14, 52, 0
14, 55810, Note_on_c, 14, 55, 106
14, 55840, Note_on_c, 14, 55, 0
14, 55870, Note_on_c, 14, 52, 106
14, 55900, Note_on_c, 14, 52, 0
14, 55930, Note_on_c, 14, 48, 106
14, 55960, Note_on_c, 14, 48, 0
14, 55990, Note_on_c, 14, 48, 106
14, 56020, Note_on_c, 14, 48, 0
14, 56050, Note_on_c, 14, 52, 106
14, 56080, Note_on_c, 14, 52, 0
14, 56110, Note_on_c, 14, 48, 106
14, 56140, Note_on_c, 14, 48, 0
14, 56170, Control_c, 14, 11, 102
14, 56170, Note_on_c, 14, 43, 106
14, 56200, Note_on_c, 14, 43, 0
14, 56230, Note_on_c, 14, 43, 106
14, 56260, Note_on_c, 14, 43, 0
14, 56290, Note_on_c, 14, 47, 106
14, 56320, Note_on_c, 14, 47, 0
14, 56350, Note_on_c, 14, 48, 106
14, 56380, Note_on_c, 14, 48, 0
14, 56410, Note_on_c, 14, 50, 106
14, 56440, Note_on_c, 14, 50, 0
14, 56470, Note_on_c, 14, 51, 106
14, 56500, Note_on_c, 14, 51, 0
14, 56530, Control_c, 14, 11, 122
14, 56530, Note_on_c, 14, 53, 106
14, 56548, Control_c, 14, 11, 119
14, 56566, Control_c, 14, 11, 116
14, 56584, Control_c, 14, 11, 113
14, 56602, Control_c, 14, 11, 110
14, 56620, Control_c, 14, 11, 107
14, 56638, Control_c, 14, 11, 104
14, 56710, Note_on_c, 14, 53, 0
14, 56710, Note_on_c, 14, 51, 106
14, 56740, Note_on_c, 14, 51, 0
14, 56770, Note_on_c, 14, 55, 106
14, 56800, Note_on_c, 14, 55, 0
14, 56830, Note_on_c, 14, 51, 106
14, 56860, Note_on_c, 14, 51, 0
14, 56890, Note_on_c, 14, 48, 106
14, 56920, Note_on_c, 14, 48, 0
14, 56950, Note_on_c, 14, 48, 106
14, 56980, Note_on_c, 14, 48, 0
14, 57010, Note_on_c, 14, 51, 106
14, 57040, Note_on_c, 14, 51, 0
14, 57070, Note_on_c, 14, 48, 106
14, 57100, Note_on_c, 14, 48, 0
14, 57130, Note_on_c, 14, 31, 106
14, 57235, Note_on_c, 14, 31, 0
14, 57250, Note_on_c, 14, 43, 106
14, 57250, Control_c, 14, 11, 122
14, 57268, Control_c, 14, 11, 119
14, 57286, Control_c, 14, 11, 116
14, 57304, Control_c, 14, 11, 113
14, 57322, Control_c, 14, 11, 110
14, 57340, Control_c, 14, 11, 107
14, 57358, Control_c, 14, 11, 104
14, 57510, Note_on_c, 14, 43, 0
14, 57520, Note_on_c, 14, 31, 106
14, 57535, Note_on_c, 14, 31, 0
14, 57550, Note_on_c, 14, 33, 106
14, 57565, Note_on_c, 14, 33, 0
14, 57580, Note_on_c, 14, 35, 106
14, 57595, Note_on_c, 14, 35, 0
14, 57610, Note_on_c, 14, 36, 106
14, 57625, Note_on_c, 14, 36, 0
14, 57640, Note_on_c, 14, 38, 106
14, 57655, Note_on_c, 14, 38, 0
14, 57670, Note_on_c, 14, 40, 106
14, 57685, Note_on_c, 14, 40, 0
14, 57700, Note_on_c, 14, 42, 106
14, 57715, Note_on_c, 14, 42, 0
14, 57730, Note_on_c, 14, 43, 106
14, 57760, Note_on_c, 14, 43, 0
14, 57790, Note_on_c, 14, 43, 106
14, 57820, Note_on_c, 14, 43, 0
14, 57850, Control_c, 14, 11, 122
14, 57850, Note_on_c, 14, 43, 106
14, 57868, Control_c, 14, 11, 119
14, 57886, Control_c, 14, 11, 116
14, 57904, Control_c, 14, 11, 113
14, 57922, Control_c, 14, 11, 110
14, 57940, Control_c, 14, 11, 107
14, 57958, Control_c, 14, 11, 104
14, 57990, Note_on_c, 14, 43, 0
14, 58000, Note_on_c, 14, 35, 106
14, 58015, Note_on_c, 14, 35, 0
14, 58030, Note_on_c, 14, 36, 106
14, 58045, Note_on_c, 14, 36, 0
14, 58060, Note_on_c, 14, 38, 106
14, 58075, Note_on_c, 14, 38, 0
14, 58090, Note_on_c, 14, 40, 106
14, 58105, Note_on_c, 14, 40, 0
14, 58120, Note_on_c, 14, 42, 106
14, 58135, Note_on_c, 14, 42, 0
14, 58150, Note_on_c, 14, 43, 106
14, 58165, Note_on_c, 14, 43, 0
14, 58180, Note_on_c, 14, 45, 106
14, 58195, Note_on_c, 14, 45, 0
14, 58210, Note_on_c, 14, 47, 106
14, 58240, Note_on_c, 14, 47, 0
14, 58270, Note_on_c, 14, 47, 106
14, 58300, Note_on_c, 14, 47, 0
14, 58330, Control_c, 14, 11, 122
14, 58330, Note_on_c, 14, 47, 106
14, 58348, Control_c, 14, 11, 119
14, 58366, Control_c, 14, 11, 116
14, 58384, Control_c, 14, 11, 113
14, 58402, Control_c, 14, 11, 110
14, 58420, Control_c, 14, 11, 107
14, 58438, Control_c, 14, 11, 104
14, 58470, Note_on_c, 14, 47, 0
14, 58480, Note_on_c, 14, 38, 106
14, 58495, Note_on_c, 14, 38, 0
14, 58510, Note_on_c, 14, 40, 106
14, 58525, Note_on_c, 14, 40, 0
14, 58540, Note_on_c, 14, 42, 106
14, 58555, Note_on_c, 14, 42, 0
14, 58570, Note_on_c, 14, 43, 106
14, 58585, Note_on_c, 14, 43, 0
14, 58600, Note_on_c, 14, 45, 106
14, 58615, Note_on_c, 14, 45, 0
14, 58630, Note_on_c, 14, 47, 106
14, 58645, Note_on_c, 14, 47, 0
14, 58660, Note_on_c, 14, 48, 106
14, 58675, Note_on_c, 14, 48, 0
14, 58690, Note_on_c, 14, 50, 106
14, 58720, Note_on_c, 14, 50, 0
14, 58750, Note_on_c, 14, 50, 106
14, 58780, Note_on_c, 14, 50, 0
14, 58810, Note_on_c, 14, 50, 106
14, 58840, Note_on_c, 14, 50, 0
14, 58870, Note_on_c, 14, 48, 106
14, 58900, Note_on_c, 14, 48, 0
14, 58930, Note_on_c, 14, 47, 106
14, 58960, Note_on_c, 14, 47, 0
14, 58990, Note_on_c, 14, 45, 106
14, 59020, Note_on_c, 14, 45, 0
14, 59050, Note_on_c, 14, 43, 106
14, 59110, Note_on_c, 14, 43, 0
14, 59110, Note_on_c, 14, 42, 106
14, 59170, Note_on_c, 14, 42, 0
14, 59170, Note_on_c, 14, 43, 106
14, 59230, Note_on_c, 14, 43, 0
14, 59230, Note_on_c, 14, 42, 106
14, 59280, Note_on_c, 14, 42, 0
14, 59290, Note_on_c, 14, 43, 106
14, 59350, Note_on_c, 14, 43, 0
14, 59350, Note_on_c, 14, 42, 106
14, 59410, Note_on_c, 14, 42, 0
14, 59410, Note_on_c, 14, 43, 106
14, 59470, Note_on_c, 14, 43, 0
14, 59470, Note_on_c, 14, 42, 106
14, 59520, Note_on_c, 14, 42, 0
14, 59530, Note_on_c, 14, 43, 106
14, 59590, Note_on_c, 14, 43, 0
14, 59590, Note_on_c, 14, 42, 106
14, 59650, Note_on_c, 14, 42, 0
14, 59650, Note_on_c, 14, 43, 106
14, 59710, Note_on_c, 14, 43, 0
14, 59710, Note_on_c, 14, 42, 106
14, 59760, Note_on_c, 14, 42, 0
14, 59770, Note_on_c, 14, 43, 106
14, 59830, Note_on_c, 14, 43, 0
14, 59830, Note_on_c, 14, 42, 106
14, 59890, Note_on_c, 14, 42, 0
14, 59890, Note_on_c, 14, 43, 106
14, 59950, Note_on_c, 14, 43, 0
14, 59950, Note_on_c, 14, 42, 106
14, 60000, Note_on_c, 14, 42, 0
14, 60010, Note_on_c, 14, 43, 106
14, 60130, Note_on_c, 14, 43, 0
14, 60970, Control_c, 14, 11, 47
14, 60970, Note_on_c, 14, 36, 106
14, 61090, Note_on_c, 14, 36, 0
14, 61210, Note_on_c, 14, 36, 106
14, 61330, Note_on_c, 14, 36, 0
14, 61450, Note_on_c, 14, 36, 106
14, 61570, Note_on_c, 14, 36, 0
14, 61690, Note_on_c, 14, 36, 106
14, 61810, Note_on_c, 14, 36, 0
14, 61810, Note_on_c, 14, 36, 106
14, 61930, Note_on_c, 14, 36, 0
14, 61930, Note_on_c, 14, 36, 106
14, 62050, Note_on_c, 14, 36, 0
14, 62170, Note_on_c, 14, 38, 106
14, 62290, Note_on_c, 14, 38, 0
14, 62410, Note_on_c, 14, 43, 91
14, 62530, Note_on_c, 14, 43, 0
14, 63190, Note_on_c, 14, 43, 106
14, 63220, Note_on_c, 14, 43, 0
14, 63250, Note_on_c, 14, 45, 106
14, 63280, Note_on_c, 14, 45, 0
14, 63310, Note_on_c, 14, 47, 106
14, 63340, Note_on_c, 14, 47, 0
14, 63370, Note_on_c, 14, 48, 106
14, 63400, Note_on_c, 14, 48, 0
14, 63430, Note_on_c, 14, 50, 106
14, 63460, Note_on_c, 14, 50, 0
14, 63490, Note_on_c, 14, 52, 106
14, 63520, Note_on_c, 14, 52, 0
14, 63670, Note_on_c, 14, 36, 106
14, 63700, Note_on_c, 14, 36, 0
14, 63730, Note_on_c, 14, 38, 106
14, 63760, Note_on_c, 14, 38, 0
14, 63790, Note_on_c, 14, 40, 106
14, 63820, Note_on_c, 14, 40, 0
14, 63850, Note_on_c, 14, 41, 106
14, 63880, Note_on_c, 14, 41, 0
14, 63910, Note_on_c, 14, 40, 106
14, 63940, Note_on_c, 14, 40, 0
14, 63970, Note_on_c, 14, 38, 106
14, 64000, Note_on_c, 14, 38, 0
14, 64030, Note_on_c, 14, 41, 106
14, 64060, Note_on_c, 14, 41, 0
14, 64090, Note_on_c, 14, 43, 106
14, 64120, Note_on_c, 14, 43, 0
14, 64150, Note_on_c, 14, 42, 106
14, 64180, Note_on_c, 14, 42, 0
14, 64210, Note_on_c, 14, 43, 106
14, 64240, Note_on_c, 14, 43, 0
14, 64270, Note_on_c, 14, 31, 106
14, 64300, Note_on_c, 14, 31, 0
14, 64330, Note_on_c, 14, 36, 106
14, 64360, Note_on_c, 14, 36, 0
14, 64390, Note_on_c, 14, 43, 106
14, 64420, Note_on_c, 14, 43, 0
14, 64450, Note_on_c, 14, 48, 106
14, 64480, Note_on_c, 14, 48, 0
14, 64570, Note_on_c, 14, 45, 106
14, 64570, Control_c, 14, 11, 47
14, 64594, Control_c, 14, 11, 48
14, 64618, Control_c, 14, 11, 49
14, 64642, Control_c, 14, 11, 50
14, 64666, Control_c, 14, 11, 51
14, 64690, Note_on_c, 14, 45, 0
14, 64690, Control_c, 14, 11, 52
14, 64714, Control_c, 14, 11, 53
14, 64738, Control_c, 14, 11, 54
14, 64762, Control_c, 14, 11, 55
14, 64786, Control_c, 14, 11, 56
14, 64810, Control_c, 14, 11, 57
14, 64810, Note_on_c, 14, 50, 106
14, 64834, Control_c, 14, 11, 58
14, 64858, Control_c, 14, 11, 59
14, 64882, Control_c, 14, 11, 60
14, 64906, Control_c, 14, 11, 61
14, 64930, Note_on_c, 14, 50, 0
14, 64930, Control_c, 14, 11, 62
14, 64954, Control_c, 14, 11, 63
14, 64978, Control_c, 14, 11, 64
14, 65002, Control_c, 14, 11, 65
14, 65026, Control_c, 14, 11, 66
14, 65050, Control_c, 14, 11, 67
14, 65050, Note_on_c, 14, 43, 106
14, 65074, Control_c, 14, 11, 68
14, 65098, Control_c, 14, 11, 69
14, 65122, Control_c, 14, 11, 70
14, 65146, Control_c, 14, 11, 71
14, 65170, Note_on_c, 14, 43, 0
14, 65170, Control_c, 14, 11, 72
14, 65194, Control_c, 14, 11, 73
14, 65218, Control_c, 14, 11, 74
14, 65242, Control_c, 14, 11, 75
14, 65266, Control_c, 14, 11, 76
14, 65290, Note_on_c, 14, 48, 106
14, 65290, Control_c, 14, 11, 77
14, 65314, Control_c, 14, 11, 78
14, 65338, Control_c, 14, 11, 79
14, 65362, Control_c, 14, 11, 80
14, 65386, Control_c, 14, 11, 81
14, 65410, Note_on_c, 14, 48, 0
14, 65410, Control_c, 14, 11, 82
14, 65434, Control_c, 14, 11, 83
14, 65458, Control_c, 14, 11, 84
14, 65482, Control_c, 14, 11, 85
14, 65506, Control_c, 14, 11, 86
14, 65530, Control_c, 14, 11, 87
14, 65590, Note_on_c, 14, 38, 106
14, 65620, Note_on_c, 14, 38, 0
14, 65650, Note_on_c, 14, 40, 106
14, 65680, Note_on_c, 14, 40, 0
14, 65710, Note_on_c, 14, 42, 106
14, 65740, Note_on_c, 14, 42, 0
14, 65770, Note_on_c, 14, 43, 106
14, 65800, Note_on_c, 14, 43, 0
14, 65830, Note_on_c, 14, 45, 106
14, 65860, Note_on_c, 14, 45, 0
14, 65890, Note_on_c, 14, 46, 106
14, 65920, Note_on_c, 14, 46, 0
14, 66070, Note_on_c, 14, 36, 106
14, 66100, Note_on_c, 14, 36, 0
14, 66130, Note_on_c, 14, 38, 106
14, 66160, Note_on_c, 14, 38, 0
14, 66190, Note_on_c, 14, 40, 106
14, 66220, Note_on_c, 14, 40, 0
14, 66250, Note_on_c, 14, 41, 106
14, 66280, Note_on_c, 14, 41, 0
14, 66310, Note_on_c, 14, 43, 106
14, 66340, Note_on_c, 14, 43, 0
14, 66370, Note_on_c, 14, 45, 106
14, 66400, Note_on_c, 14, 45, 0
14, 66550, Note_on_c, 14, 41, 106
14, 66580, Note_on_c, 14, 41, 0
14, 66610, Note_on_c, 14, 43, 106
14, 66640, Note_on_c, 14, 43, 0
14, 66670, Note_on_c, 14, 45, 106
14, 66700, Note_on_c, 14, 45, 0
14, 66730, Note_on_c, 14, 46, 106
14, 66780, Note_on_c, 14, 46, 0
14, 66790, Note_on_c, 14, 46, 106
14, 66840, Note_on_c, 14, 46, 0
14, 66850, Note_on_c, 14, 46, 106
14, 66900, Note_on_c, 14, 46, 0
14, 66910, Note_on_c, 14, 46, 106
14, 66960, Note_on_c, 14, 46, 0
14, 66970, Note_on_c, 14, 47, 106
14, 67020, Note_on_c, 14, 47, 0
14, 67030, Note_on_c, 14, 47, 106
14, 67080, Note_on_c, 14, 47, 0
14, 67090, Note_on_c, 14, 47, 106
14, 67140, Note_on_c, 14, 47, 0
14, 67150, Note_on_c, 14, 47, 106
14, 67200, Note_on_c, 14, 47, 0
14, 67210, Note_on_c, 14, 48, 91
14, 67330, Note_on_c, 14, 48, 0
14, 67690, Control_c, 14, 11, 47
14, 67690, Note_on_c, 14, 41, 106
14, 67750, Note_on_c, 14, 41, 0
14, 67810, Note_on_c, 14, 36, 106
14, 67870, Note_on_c, 14, 36, 0
14, 67930, Note_on_c, 14, 43, 106
14, 67990, Note_on_c, 14, 43, 0
14, 68050, Note_on_c, 14, 36, 106
14, 68110, Note_on_c, 14, 36, 0
14, 68170, Note_on_c, 14, 45, 106
14, 68230, Note_on_c, 14, 45, 0
14, 68290, Note_on_c, 14, 36, 106
14, 68350, Note_on_c, 14, 36, 0
14, 68410, Note_on_c, 14, 40, 106
14, 68470, Note_on_c, 14, 40, 0
14, 68530, Note_on_c, 14, 36, 106
14, 68590, Note_on_c, 14, 36, 0
14, 68650, Note_on_c, 14, 41, 106
14, 68710, Note_on_c, 14, 41, 0
14, 68770, Note_on_c, 14, 36, 106
14, 68830, Note_on_c, 14, 36, 0
14, 68890, Note_on_c, 14, 43, 106
14, 68950, Note_on_c, 14, 43, 0
14, 69010, Note_on_c, 14, 36, 106
14, 69070, Note_on_c, 14, 36, 0
14, 69130, Note_on_c, 14, 45, 106
14, 69190, Note_on_c, 14, 45, 0
14, 69250, Note_on_c, 14, 41, 106
14, 69310, Note_on_c, 14, 41, 0
14, 69370, Note_on_c, 14, 47, 106
14, 69430, Note_on_c, 14, 47, 0
14, 69490, Note_on_c, 14, 43, 106
14, 69550, Note_on_c, 14, 43, 0
14, 69610, Note_on_c, 14, 48, 106
14, 69670, Note_on_c, 14, 48, 0
14, 69730, Note_on_c, 14, 43, 106
14, 69790, Note_on_c, 14, 43, 0
14, 69850, Note_on_c, 14, 50, 106
14, 69910, Note_on_c, 14, 50, 0
14, 69970, Note_on_c, 14, 43, 106
14, 70030, Note_on_c, 14, 43, 0
14, 70090, Note_on_c, 14, 52, 106
14, 70150, Note_on_c, 14, 52, 0
14, 70210, Note_on_c, 14, 43, 106
14, 70270, Note_on_c, 14, 43, 0
14, 70330, Note_on_c, 14, 47, 106
14, 70390, Note_on_c, 14, 47, 0
14, 70450, Note_on_c, 14, 43, 106
14, 70510, Note_on_c, 14, 43, 0
14, 70570, Note_on_c, 14, 48, 106
14, 70570, Control_c, 14, 11, 47
14, 70606, Control_c, 14, 11, 48
14, 70630, Note_on_c, 14, 48, 0
14, 70642, Control_c, 14, 11, 49
14, 70678, Control_c, 14, 11, 50
14, 70690, Note_on_c, 14, 43, 106
14, 70714, Control_c, 14, 11, 51
14, 70750, Note_on_c, 14, 43, 0
14, 70750, Control_c, 14, 11, 52
14, 70786, Control_c, 14, 11, 53
14, 70810, Note_on_c, 14, 50, 106
14, 70822, Control_c, 14, 11, 54
14, 70858, Control_c, 14, 11, 55
14, 70870, Note_on_c, 14, 50, 0
14, 70894, Control_c, 14, 11, 56
14, 70930, Note_on_c, 14, 43, 106
14, 70930, Control_c, 14, 11, 57
14, 70966, Control_c, 14, 11, 58
14, 70990, Note_on_c, 14, 43, 0
14, 71002, Control_c, 14, 11, 59
14, 71038, Control_c, 14, 11, 60
14, 71050, Note_on_c, 14, 52, 106
14, 71074, Control_c, 14, 11, 61
14, 71110, Note_on_c, 14, 52, 0
14, 71110, Control_c, 14, 11, 62
14, 71146, Control_c, 14, 11, 63
14, 71170, Note_on_c, 14, 36, 106
14, 71182, Control_c, 14, 11, 64
14, 71218, Control_c, 14, 11, 65
14, 71230, Note_on_c, 14, 36, 0
14, 71254, Control_c, 14, 11, 66
14, 71290, Note_on_c, 14, 41, 106
14, 71290, Control_c, 14, 11, 67
14, 71326, Control_c, 14, 11, 68
14, 71350, Note_on_c, 14, 41, 0
14, 71362, Control_c, 14, 11, 69
14, 71398, Control_c, 14, 11, 70
14, 71410, Note_on_c, 14, 36, 106
14, 71434, Control_c, 14, 11, 71
14, 71470, Note_on_c, 14, 36, 0
14, 71470, Control_c, 14, 11, 72
14, 71506, Control_c, 14, 11, 73
14, 71530, Note_on_c, 14, 43, 106
14, 71542, Control_c, 14, 11, 74
14, 71578, Control_c, 14, 11, 75
14, 71590, Note_on_c, 14, 43, 0
14, 71614, Control_c, 14, 11, 76
14, 71650, Note_on_c, 14, 36, 106
14, 71650, Control_c, 14, 11, 77
14, 71686, Control_c, 14, 11, 78
14, 71710, Note_on_c, 14, 36, 0
14, 71722, Control_c, 14, 11, 79
14, 71758, Control_c, 14, 11, 80
14, 71770, Note_on_c, 14, 45, 106
14, 71794, Control_c, 14, 11, 81
14, 71830, Note_on_c, 14, 45, 0
14, 71830, Control_c, 14, 11, 82
14, 71866, Control_c, 14, 11, 83
14, 71890, Note_on_c, 14, 36, 106
14, 71902, Control_c, 14, 11, 84
14, 71938, Control_c, 14, 11, 85
14, 71950, Note_on_c, 14, 36, 0
14, 71974, Control_c, 14, 11, 86
14, 72010, Note_on_c, 14, 43, 106
14, 72010, Control_c, 14, 11, 92
14, 72014, Control_c, 14, 11, 95
14, 72018, Control_c, 14, 11, 98
14, 72022, Control_c, 14, 11, 101
14, 72036, Control_c, 14, 11, 98
14, 72045, Control_c, 14, 11, 95
14, 72054, Control_c, 14, 11, 92
14, 72060, Note_on_c, 14, 43, 0
14, 72063, Control_c, 14, 11, 89
14, 72070, Note_on_c, 14, 55, 106
14, 72120, Note_on_c, 14, 55, 0
14, 72130, Note_on_c, 14, 55, 106
14, 72180, Note_on_c, 14, 55, 0
14, 72190, Note_on_c, 14, 55, 106
14, 72240, Note_on_c, 14, 55, 0
14, 72240, Control_c, 14, 11, 92
14, 72250, Note_on_c, 14, 43, 106
14, 72251, Control_c, 14, 11, 95
14, 72263, Control_c, 14, 11, 98
14, 72275, Control_c, 14, 11, 101
14, 72291, Control_c, 14, 11, 100
14, 72300, Note_on_c, 14, 43, 0
14, 72309, Control_c, 14, 11, 97
14, 72310, Note_on_c, 14, 55, 106
14, 72327, Control_c, 14, 11, 94
14, 72345, Control_c, 14, 11, 91
14, 72360, Note_on_c, 14, 55, 0
14, 72363, Control_c, 14, 11, 88
14, 72370, Note_on_c, 14, 55, 106
14, 72420, Note_on_c, 14, 55, 0
14, 72430, Note_on_c, 14, 55, 106
14, 72480, Note_on_c, 14, 55, 0
14, 72490, Control_c, 14, 11, 92
14, 72490, Note_on_c, 14, 42, 106
14, 72498, Control_c, 14, 11, 95
14, 72507, Control_c, 14, 11, 98
14, 72516, Control_c, 14, 11, 101
14, 72531, Control_c, 14, 11, 100
14, 72540, Note_on_c, 14, 42, 0
14, 72549, Control_c, 14, 11, 97
14, 72550, Note_on_c, 14, 54, 106
14, 72567, Control_c, 14, 11, 94
14, 72585, Control_c, 14, 11, 91
14, 72600, Note_on_c, 14, 54, 0
14, 72603, Control_c, 14, 11, 88
14, 72610, Note_on_c, 14, 54, 106
14, 72660, Note_on_c, 14, 54, 0
14, 72670, Note_on_c, 14, 54, 106
14, 72720, Note_on_c, 14, 54, 0
14, 72730, Control_c, 14, 11, 92
14, 72730, Note_on_c, 14, 41, 106
14, 72738, Control_c, 14, 11, 95
14, 72747, Control_c, 14, 11, 98
14, 72756, Control_c, 14, 11, 101
14, 72771, Control_c, 14, 11, 100
14, 72780, Note_on_c, 14, 41, 0
14, 72789, Control_c, 14, 11, 97
14, 72790, Note_on_c, 14, 53, 106
14, 72807, Control_c, 14, 11, 94
14, 72825, Control_c, 14, 11, 91
14, 72840, Note_on_c, 14, 53, 0
14, 72843, Control_c, 14, 11, 88
14, 72850, Note_on_c, 14, 53, 106
14, 72900, Note_on_c, 14, 53, 0
14, 72910, Note_on_c, 14, 53, 106
14, 72960, Note_on_c, 14, 53, 0
14, 72970, Note_on_c, 14, 40, 106
14, 73020, Note_on_c, 14, 40, 0
14, 73030, Note_on_c, 14, 40, 106
14, 73080, Note_on_c, 14, 40, 0
14, 73090, Control_c, 14, 11, 102
14, 73090, Note_on_c, 14, 38, 106
14, 73140, Note_on_c, 14, 38, 0
14, 73150, Note_on_c, 14, 38, 106
14, 73200, Note_on_c, 14, 38, 0
14, 73210, Note_on_c, 14, 38, 106
14, 73260, Note_on_c, 14, 38, 0
14, 73270, Note_on_c, 14, 38, 106
14, 73320, Note_on_c, 14, 38, 0
14, 73330, Note_on_c, 14, 38, 106
14, 73380, Note_on_c, 14, 38, 0
14, 73390, Note_on_c, 14, 38, 106
14, 73440, Note_on_c, 14, 38, 0
14, 73450, Note_on_c, 14, 36, 106
14, 73500, Note_on_c, 14, 36, 0
14, 73510, Note_on_c, 14, 36, 106
14, 73560, Note_on_c, 14, 36, 0
14, 73570, Note_on_c, 14, 41, 106
14, 73620, Note_on_c, 14, 41, 0
14, 73630, Note_on_c, 14, 41, 106
14, 73680, Note_on_c, 14, 41, 0
14, 73690, Note_on_c, 14, 43, 106
14, 73740, Note_on_c, 14, 43, 0
14, 73750, Note_on_c, 14, 43, 106
14, 73800, Note_on_c, 14, 43, 0
14, 73810, Note_on_c, 14, 31, 106
14, 73860, Note_on_c, 14, 31, 0
14, 73870, Note_on_c, 14, 31, 106
14, 73920, Note_on_c, 14, 31, 0
14, 73930, Note_on_c, 14, 36, 106
14, 73990, Note_on_c, 14, 36, 0
14, 74230, Note_on_c, 14, 41, 106
14, 74230, Control_c, 14, 11, 122
14, 74247, Control_c, 14, 11, 119
14, 74265, Control_c, 14, 11, 116
14, 74283, Control_c, 14, 11, 113
14, 74301, Control_c, 14, 11, 110
14, 74319, Control_c, 14, 11, 107
14, 74330, Note_on_c, 14, 41, 0
14, 74337, Control_c, 14, 11, 104
14, 74350, Note_on_c, 14, 41, 106
14, 74400, Note_on_c, 14, 41, 0
14, 74410, Note_on_c, 14, 43, 106
14, 74470, Note_on_c, 14, 43, 0
14, 74710, Note_on_c, 14, 31, 106
14, 74710, Control_c, 14, 11, 122
14, 74727, Control_c, 14, 11, 119
14, 74745, Control_c, 14, 11, 116
14, 74763, Control_c, 14, 11, 113
14, 74781, Control_c, 14, 11, 110
14, 74799, Control_c, 14, 11, 107
14, 74810, Note_on_c, 14, 31, 0
14, 74817, Control_c, 14, 11, 104
14, 74830, Note_on_c, 14, 31, 106
14, 74880, Note_on_c, 14, 31, 0
14, 74890, Note_on_c, 14, 36, 106
14, 74950, Note_on_c, 14, 36, 0
14, 75190, Note_on_c, 14, 41, 106
14, 75190, Control_c, 14, 11, 122
14, 75207, Control_c, 14, 11, 119
14, 75225, Control_c, 14, 11, 116
14, 75243, Control_c, 14, 11, 113
14, 75261, Control_c, 14, 11, 110
14, 75279, Control_c, 14, 11, 107
14, 75290, Note_on_c, 14, 41, 0
14, 75297, Control_c, 14, 11, 104
14, 75310, Note_on_c, 14, 41, 106
14, 75360, Note_on_c, 14, 41, 0
14, 75370, Note_on_c, 14, 43, 106
14, 75430, Note_on_c, 14, 43, 0
14, 75670, Note_on_c, 14, 31, 106
14, 75670, Control_c, 14, 11, 122
14, 75687, Control_c, 14, 11, 119
14, 75705, Control_c, 14, 11, 116
14, 75723, Control_c, 14, 11, 113
14, 75741, Control_c, 14, 11, 110
14, 75759, Control_c, 14, 11, 107
14, 75770, Note_on_c, 14, 31, 0
14, 75777, Control_c, 14, 11, 104
14, 75790, Note_on_c, 14, 31, 106
14, 75840, Note_on_c, 14, 31, 0
14, 75850, Note_on_c, 14, 36, 106
14, 76200, Note_on_c, 14, 36, 0
14, 76210, Note_on_c, 14, 48, 106
14, 76240, Note_on_c, 14, 48, 0
14, 76270, Note_on_c, 14, 48, 106
14, 76300, Note_on_c, 14, 48, 0
14, 76330, Control_c, 14, 11, 122
14, 76330, Note_on_c, 14, 47, 106
14, 76347, Control_c, 14, 11, 119
14, 76365, Control_c, 14, 11, 116
14, 76383, Control_c, 14, 11, 113
14, 76401, Control_c, 14, 11, 110
14, 76419, Control_c, 14, 11, 107
14, 76437, Control_c, 14, 11, 104
14, 76680, Note_on_c, 14, 47, 0
14, 76690, Note_on_c, 14, 47, 106
14, 76720, Note_on_c, 14, 47, 0
14, 76750, Note_on_c, 14, 47, 106
14, 76780, Note_on_c, 14, 47, 0
14, 76810, Note_on_c, 14, 46, 106
14, 76810, Control_c, 14, 11, 97
14, 77160, Note_on_c, 14, 46, 0
14, 77170, Note_on_c, 14, 46, 106
14, 77200, Note_on_c, 14, 46, 0
14, 77230, Note_on_c, 14, 46, 106
14, 77260, Note_on_c, 14, 46, 0
14, 77290, Note_on_c, 14, 45, 106
14, 77490, Note_on_c, 14, 45, 0
14, 77500, Note_on_c, 14, 45, 106
14, 77520, Note_on_c, 14, 45, 0
14, 77530, Note_on_c, 14, 44, 106
14, 77530, Control_c, 14, 11, 122
14, 77539, Control_c, 14, 11, 119
14, 77548, Control_c, 14, 11, 116
14, 77557, Control_c, 14, 11, 113
14, 77566, Control_c, 14, 11, 110
14, 77575, Control_c, 14, 11, 107
14, 77584, Control_c, 14, 11, 104
14, 77730, Note_on_c, 14, 44, 0
14, 77740, Note_on_c, 14, 44, 106
14, 77760, Note_on_c, 14, 44, 0
14, 77770, Note_on_c, 14, 43, 106
14, 77830, Note_on_c, 14, 43, 0
14, 77890, Note_on_c, 14, 42, 106
14, 77890, Control_c, 14, 11, 117
14, 77907, Control_c, 14, 11, 120
14, 77925, Control_c, 14, 11, 121
14, 77943, Control_c, 14, 11, 118
14, 77961, Control_c, 14, 11, 115
14, 77979, Control_c, 14, 11, 112
14, 77997, Control_c, 14, 11, 109
14, 78205, Control_c, 14, 11, 102
14, 78206, Control_c, 14, 11, 99
14, 78208, Control_c, 14, 11, 95
14, 78209, Control_c, 14, 11, 92
14, 78211, Control_c, 14, 11, 88
14, 78212, Control_c, 14, 11, 85
14, 78214, Control_c, 14, 11, 81
14, 78215, Control_c, 14, 11, 78
14, 78217, Control_c, 14, 11, 74
14, 78218, Control_c, 14, 11, 71
14, 78220, Note_on_c, 14, 42, 0
14, 78220, Control_c, 14, 11, 67
14, 78250, Note_on_c, 14, 41, 106
14, 78250, Control_c, 14, 11, 102
14, 78310, Note_on_c, 14, 41, 0
14, 78370, Control_c, 14, 11, 117
14, 78370, Note_on_c, 14, 35, 106
14, 78387, Control_c, 14, 11, 120
14, 78405, Control_c, 14, 11, 121
14, 78423, Control_c, 14, 11, 118
14, 78441, Control_c, 14, 11, 115
14, 78459, Control_c, 14, 11, 112
14, 78477, Control_c, 14, 11, 109
14, 78620, Control_c, 14, 11, 102
14, 78622, Control_c, 14, 11, 98
14, 78624, Control_c, 14, 11, 95
14, 78626, Control_c, 14, 11, 91
14, 78628, Control_c, 14, 11, 88
14, 78630, Control_c, 14, 11, 84
14, 78632, Control_c, 14, 11, 81
14, 78634, Control_c, 14, 11, 77
14, 78636, Control_c, 14, 11, 74
14, 78638, Control_c, 14, 11, 70
14, 78640, Note_on_c, 14, 35, 0
14, 78640, Control_c, 14, 11, 67
14, 80170, Note_on_c, 14, 36, 106
14, 80170, Control_c, 14, 11, 47
14, 80190, Note_on_c, 14, 36, 0
14, 80200, Note_on_c, 14, 36, 106
14, 80220, Note_on_c, 14, 36, 0
14, 80230, Note_on_c, 14, 36, 106
14, 80250, Note_on_c, 14, 36, 0
14, 80260, Note_on_c, 14, 36, 106
14, 80280, Note_on_c, 14, 36, 0
14, 80290, Note_on_c, 14, 36, 106
14, 80310, Note_on_c, 14, 36, 0
14, 80320, Note_on_c, 14, 36, 106
14, 80340, Note_on_c, 14, 36, 0
14, 80350, Note_on_c, 14, 36, 106
14, 80370, Note_on_c, 14, 36, 0
14, 80380, Note_on_c, 14, 36, 106
14, 80400, Note_on_c, 14, 36, 0
14, 80410, Note_on_c, 14, 36, 106
14, 80430, Note_on_c, 14, 36, 0
14, 80440, Note_on_c, 14, 36, 106
14, 80460, Note_on_c, 14, 36, 0
14, 80470, Note_on_c, 14, 36, 106
14, 80490, Note_on_c, 14, 36, 0
14, 80500, Note_on_c, 14, 36, 106
14, 80500, Control_c, 14, 11, 47
14, 80520, Note_on_c, 14, 36, 0
14, 80520, Control_c, 14, 11, 50
14, 80530, Note_on_c, 14, 36, 106
14, 80542, Control_c, 14, 11, 53
14, 80550, Note_on_c, 14, 36, 0
14, 80560, Note_on_c, 14, 36, 106
14, 80565, Control_c, 14, 11, 56
14, 80580, Note_on_c, 14, 36, 0
14, 80587, Control_c, 14, 11, 59
14, 80590, Note_on_c, 14, 36, 106
14, 80610, Note_on_c, 14, 36, 0
14, 80610, Control_c, 14, 11, 62
14, 80620, Note_on_c, 14, 36, 106
14, 80632, Control_c, 14, 11, 65
14, 80640, Note_on_c, 14, 36, 0
14, 80650, Note_on_c, 14, 36, 106
14, 80650, Control_c, 14, 11, 87
14, 80670, Note_on_c, 14, 36, 0
14, 80680, Note_on_c, 14, 36, 106
14, 80700, Note_on_c, 14, 36, 0
14, 80710, Note_on_c, 14, 36, 106
14, 80730, Note_on_c, 14, 36, 0
14, 80740, Note_on_c, 14, 36, 106
14, 80760, Note_on_c, 14, 36, 0
14, 80770, Note_on_c, 14, 36, 106
14, 80790, Note_on_c, 14, 36, 0
14, 80800, Note_on_c, 14, 36, 106
14, 80820, Note_on_c, 14, 36, 0
14, 80830, Note_on_c, 14, 36, 106
14, 80850, Note_on_c, 14, 36, 0
14, 80860, Note_on_c, 14, 36, 106
14, 80880, Note_on_c, 14, 36, 0
14, 80890, Note_on_c, 14, 36, 106
14, 80910, Note_on_c, 14, 36, 0
14, 80920, Note_on_c, 14, 36, 106
14, 80940, Note_on_c, 14, 36, 0
14, 80950, Note_on_c, 14, 36, 106
14, 80970, Note_on_c, 14, 36, 0
14, 80980, Note_on_c, 14, 36, 106
14, 81000, Note_on_c, 14, 36, 0
14, 81010, Note_on_c, 14, 36, 106
14, 81030, Note_on_c, 14, 36, 0
14, 81040, Note_on_c, 14, 36, 106
14, 81060, Note_on_c, 14, 36, 0
14, 81070, Note_on_c, 14, 36, 106
14, 81090, Note_on_c, 14, 36, 0
14, 81100, Note_on_c, 14, 36, 106
14, 81120, Note_on_c, 14, 36, 0
14, 81130, Note_on_c, 14, 36, 106
14, 81150, Note_on_c, 14, 36, 0
14, 81160, Note_on_c, 14, 36, 106
14, 81180, Note_on_c, 14, 36, 0
14, 81190, Note_on_c, 14, 36, 106
14, 81210, Note_on_c, 14, 36, 0
14, 81220, Note_on_c, 14, 36, 106
14, 81240, Note_on_c, 14, 36, 0
14, 81250, Note_on_c, 14, 36, 106
14, 81270, Note_on_c, 14, 36, 0
14, 81280, Note_on_c, 14, 36, 106
14, 81300, Note_on_c, 14, 36, 0
14, 81310, Note_on_c, 14, 36, 106
14, 81330, Note_on_c, 14, 36, 0
14, 81340, Note_on_c, 14, 36, 106
14, 81360, Note_on_c, 14, 36, 0
14, 81370, Note_on_c, 14, 38, 106
14, 81390, Note_on_c, 14, 38, 0
14, 81400, Note_on_c, 14, 38, 106
14, 81420, Note_on_c, 14, 38, 0
14, 81430, Note_on_c, 14, 38, 106
14, 81450, Note_on_c, 14, 38, 0
14, 81460, Note_on_c, 14, 38, 106
14, 81480, Note_on_c, 14, 38, 0
14, 81490, Note_on_c, 14, 38, 106
14, 81510, Note_on_c, 14, 38, 0
14, 81520, Note_on_c, 14, 38, 106
14, 81540, Note_on_c, 14, 38, 0
14, 81550, Note_on_c, 14, 38, 106
14, 81570, Note_on_c, 14, 38, 0
14, 81580, Note_on_c, 14, 38, 106
14, 81600, Note_on_c, 14, 38, 0
14, 81610, Note_on_c, 14, 43, 78
14, 81706, Note_on_c, 14, 43, 0
14, 82390, Note_on_c, 14, 43, 106
14, 82390, Control_c, 14, 11, 47
14, 82420, Note_on_c, 14, 43, 0
14, 82450, Note_on_c, 14, 45, 106
14, 82480, Note_on_c, 14, 45, 0
14, 82510, Note_on_c, 14, 47, 106
14, 82540, Note_on_c, 14, 47, 0
14, 82570, Note_on_c, 14, 48, 106
14, 82600, Note_on_c, 14, 48, 0
14, 82630, Note_on_c, 14, 50, 106
14, 82660, Note_on_c, 14, 50, 0
14, 82690, Note_on_c, 14, 52, 106
14, 82720, Note_on_c, 14, 52, 0
14, 82870, Note_on_c, 14, 36, 106
14, 82900, Note_on_c, 14, 36, 0
14, 82930, Note_on_c, 14, 38, 106
14, 82960, Note_on_c, 14, 38, 0
14, 82990, Note_on_c, 14, 40, 106
14, 83020, Note_on_c, 14, 40, 0
14, 83050, Note_on_c, 14, 41, 106
14, 83080, Note_on_c, 14, 41, 0
14, 83110, Note_on_c, 14, 40, 106
14, 83140, Note_on_c, 14, 40, 0
14, 83170, Note_on_c, 14, 38, 106
14, 83200, Note_on_c, 14, 38, 0
14, 83230, Note_on_c, 14, 41, 106
14, 83260, Note_on_c, 14, 41, 0
14, 83290, Note_on_c, 14, 43, 106
14, 83320, Note_on_c, 14, 43, 0
14, 83350, Note_on_c, 14, 42, 106
14, 83380, Note_on_c, 14, 42, 0
14, 83410, Note_on_c, 14, 43, 106
14, 83440, Note_on_c, 14, 43, 0
14, 83470, Control_c, 14, 11, 47
14, 83470, Note_on_c, 14, 31, 106
14, 83473, Control_c, 14, 11, 50
14, 83476, Control_c, 14, 11, 53
14, 83479, Control_c, 14, 11, 56
14, 83483, Control_c, 14, 11, 59
14, 83486, Control_c, 14, 11, 62
14, 83489, Control_c, 14, 11, 65
14, 83492, Control_c, 14, 11, 68
14, 83496, Control_c, 14, 11, 71
14, 83499, Control_c, 14, 11, 74
14, 83500, Note_on_c, 14, 31, 0
14, 83502, Control_c, 14, 11, 77
14, 83506, Control_c, 14, 11, 80
14, 83509, Control_c, 14, 11, 83
14, 83512, Control_c, 14, 11, 86
14, 83515, Control_c, 14, 11, 89
14, 83519, Control_c, 14, 11, 92
14, 83522, Control_c, 14, 11, 95
14, 83525, Control_c, 14, 11, 98
14, 83528, Control_c, 14, 11, 101
14, 83530, Note_on_c, 14, 36, 106
14, 83650, Note_on_c, 14, 36, 0
14, 83830, Note_on_c, 14, 33, 106
14, 83860, Note_on_c, 14, 33, 0
14, 83890, Note_on_c, 14, 35, 106
14, 83920, Note_on_c, 14, 35, 0
14, 83950, Note_on_c, 14, 37, 106
14, 83980, Note_on_c, 14, 37, 0
14, 84010, Note_on_c, 14, 38, 106
14, 84040, Note_on_c, 14, 38, 0
14, 84070, Note_on_c, 14, 40, 106
14, 84100, Note_on_c, 14, 40, 0
14, 84130, Note_on_c, 14, 41, 106
14, 84250, Note_on_c, 14, 41, 0
14, 84310, Note_on_c, 14, 31, 106
14, 84340, Note_on_c, 14, 31, 0
14, 84370, Note_on_c, 14, 33, 106
14, 84400, Note_on_c, 14, 33, 0
14, 84430, Note_on_c, 14, 35, 106
14, 84460, Note_on_c, 14, 35, 0
14, 84490, Note_on_c, 14, 36, 106
14, 84520, Note_on_c, 14, 36, 0
14, 84550, Note_on_c, 14, 38, 106
14, 84580, Note_on_c, 14, 38, 0
14, 84610, Note_on_c, 14, 40, 106
14, 84730, Note_on_c, 14, 40, 0
14, 84790, Note_on_c, 14, 36, 106
14, 84820, Note_on_c, 14, 36, 0
14, 84850, Note_on_c, 14, 38, 106
14, 84880, Note_on_c, 14, 38, 0
14, 84910, Note_on_c, 14, 40, 106
14, 84940, Note_on_c, 14, 40, 0
14, 84970, Note_on_c, 14, 41, 106
14, 85000, Note_on_c, 14, 41, 0
14, 85030, Note_on_c, 14, 40, 106
14, 85060, Note_on_c, 14, 40, 0
14, 85090, Note_on_c, 14, 41, 106
14, 85120, Note_on_c, 14, 41, 0
14, 85150, Note_on_c, 14, 38, 106
14, 85180, Note_on_c, 14, 38, 0
14, 85210, Note_on_c, 14, 43, 106
14, 85240, Note_on_c, 14, 43, 0
14, 85270, Note_on_c, 14, 42, 106
14, 85300, Note_on_c, 14, 42, 0
14, 85330, Note_on_c, 14, 43, 106
14, 85360, Note_on_c, 14, 43, 0
14, 85390, Note_on_c, 14, 31, 106
14, 85420, Note_on_c, 14, 31, 0
14, 85450, Note_on_c, 14, 36, 106
14, 85546, Note_on_c, 14, 36, 0
14, 85930, Note_on_c, 14, 36, 106
14, 85930, Control_c, 14, 11, 87
14, 86026, Note_on_c, 14, 36, 0
14, 86410, Control_c, 14, 11, 47
14, 86410, Note_on_c, 14, 48, 106
14, 86470, Note_on_c, 14, 48, 0
14, 86650, Note_on_c, 14, 41, 106
14, 86710, Note_on_c, 14, 41, 0
14, 86890, Note_on_c, 14, 43, 106
14, 86950, Note_on_c, 14, 43, 0
14, 87130, Note_on_c, 14, 36, 106
14, 87250, Note_on_c, 14, 36, 0
14, 88330, Note_on_c, 14, 48, 106
14, 88390, Note_on_c, 14, 48, 0
14, 88570, Note_on_c, 14, 41, 106
14, 88630, Note_on_c, 14, 41, 0
14, 88810, Note_on_c, 14, 43, 106
14, 88870, Note_on_c, 14, 43, 0
14, 89050, Note_on_c, 14, 36, 106
14, 89110, Note_on_c, 14, 36, 0
14, 89530, Control_c, 14, 11, 47
14, 89530, Note_on_c, 14, 41, 106
14, 89547, Control_c, 14, 11, 48
14, 89564, Control_c, 14, 11, 49
14, 89582, Control_c, 14, 11, 50
14, 89590, Note_on_c, 14, 41, 0
14, 89599, Control_c, 14, 11, 51
14, 89617, Control_c, 14, 11, 52
14, 89634, Control_c, 14, 11, 53
14, 89652, Control_c, 14, 11, 54
14, 89669, Control_c, 14, 11, 55
14, 89687, Control_c, 14, 11, 56
14, 89704, Control_c, 14, 11, 57
14, 89722, Control_c, 14, 11, 58
14, 89739, Control_c, 14, 11, 59
14, 89756, Control_c, 14, 11, 60
14, 89770, Note_on_c, 14, 43, 106
14, 89774, Control_c, 14, 11, 61
14, 89791, Control_c, 14, 11, 62
14, 89809, Control_c, 14, 11, 63
14, 89826, Control_c, 14, 11, 64
14, 89830, Note_on_c, 14, 43, 0
14, 89844, Control_c, 14, 11, 65
14, 89861, Control_c, 14, 11, 66
14, 89879, Control_c, 14, 11, 67
14, 89896, Control_c, 14, 11, 68
14, 89914, Control_c, 14, 11, 69
14, 89931, Control_c, 14, 11, 70
14, 89948, Control_c, 14, 11, 71
14, 89966, Control_c, 14, 11, 72
14, 89983, Control_c, 14, 11, 73
14, 90001, Control_c, 14, 11, 74
14, 90010, Note_on_c, 14, 36, 106
14, 90018, Control_c, 14, 11, 75
14, 90036, Control_c, 14, 11, 76
14, 90053, Control_c, 14, 11, 77
14, 90060, Note_on_c, 14, 36, 0
14, 90070, Note_on_c, 14, 48, 106
14, 90071, Control_c, 14, 11, 78
14, 90088, Control_c, 14, 11, 79
14, 90106, Control_c, 14, 11, 80
14, 90120, Note_on_c, 14, 48, 0
14, 90123, Control_c, 14, 11, 81
14, 90130, Note_on_c, 14, 48, 106
14, 90140, Control_c, 14, 11, 82
14, 90158, Control_c, 14, 11, 83
14, 90175, Control_c, 14, 11, 84
14, 90180, Note_on_c, 14, 48, 0
14, 90190, Note_on_c, 14, 48, 106
14, 90193, Control_c, 14, 11, 85
14, 90210, Control_c, 14, 11, 86
14, 90228, Control_c, 14, 11, 87
14, 90240, Note_on_c, 14, 48, 0
14, 90245, Control_c, 14, 11, 88
14, 90250, Note_on_c, 14, 48, 106
14, 90263, Control_c, 14, 11, 89
14, 90280, Control_c, 14, 11, 90
14, 90298, Control_c, 14, 11, 91
14, 90300, Note_on_c, 14, 48, 0
14, 90310, Note_on_c, 14, 48, 106
14, 90315, Control_c, 14, 11, 92
14, 90332, Control_c, 14, 11, 93
14, 90350, Control_c, 14, 11, 94
14, 90360, Note_on_c, 14, 48, 0
14, 90367, Control_c, 14, 11, 95
14, 90370, Note_on_c, 14, 48, 106
14, 90385, Control_c, 14, 11, 96
14, 90402, Control_c, 14, 11, 97
14, 90420, Note_on_c, 14, 48, 0
14, 90420, Control_c, 14, 11, 98
14, 90430, Note_on_c, 14, 48, 106
14, 90437, Control_c, 14, 11, 99
14, 90455, Control_c, 14, 11, 100
14, 90472, Control_c, 14, 11, 101
14, 90480, Note_on_c, 14, 48, 0
14, 90490, Control_c, 14, 11, 102
14, 90490, Note_on_c, 14, 41, 106
14, 90510, Note_on_c, 14, 41, 0
14, 90520, Note_on_c, 14, 41, 106
14, 90540, Note_on_c, 14, 41, 0
14, 90550, Note_on_c, 14, 41, 106
14, 90570, Note_on_c, 14, 41, 0
14, 90580, Note_on_c, 14, 41, 106
14, 90600, Note_on_c, 14, 41, 0
14, 90610, Note_on_c, 14, 41, 106
14, 90630, Note_on_c, 14, 41, 0
14, 90640, Note_on_c, 14, 41, 106
14, 90660, Note_on_c, 14, 41, 0
14, 90670, Note_on_c, 14, 41, 106
14, 90690, Note_on_c, 14, 41, 0
14, 90700, Note_on_c, 14, 41, 106
14, 90720, Note_on_c, 14, 41, 0
14, 90730, Note_on_c, 14, 43, 106
14, 90750, Note_on_c, 14, 43, 0
14, 90760, Note_on_c, 14, 43, 106
14, 90780, Note_on_c, 14, 43, 0
14, 90790, Note_on_c, 14, 43, 106
14, 90810, Note_on_c, 14, 43, 0
14, 90820, Note_on_c, 14, 43, 106
14, 90840, Note_on_c, 14, 43, 0
14, 90850, Note_on_c, 14, 43, 106
14, 90870, Note_on_c, 14, 43, 0
14, 90880, Note_on_c, 14, 43, 106
14, 90900, Note_on_c, 14, 43, 0
14, 90910, Note_on_c, 14, 43, 106
14, 90930, Note_on_c, 14, 43, 0
14, 90940, Note_on_c, 14, 43, 106
14, 90960, Note_on_c, 14, 43, 0
14, 90970, Note_on_c, 14, 48, 106
14, 90970, Control_c, 14, 11, 112
14, 90987, Control_c, 14, 11, 115
14, 91005, Control_c, 14, 11, 116
14, 91023, Control_c, 14, 11, 113
14, 91041, Control_c, 14, 11, 110
14, 91059, Control_c, 14, 11, 107
14, 91077, Control_c, 14, 11, 104
14, 91100, Note_on_c, 14, 48, 0
14, 91120, Note_on_c, 14, 36, 106
14, 91135, Note_on_c, 14, 36, 0
14, 91150, Note_on_c, 14, 38, 106
14, 91165, Note_on_c, 14, 38, 0
14, 91180, Note_on_c, 14, 40, 106
14, 91195, Note_on_c, 14, 40, 0
14, 91210, Note_on_c, 14, 41, 106
14, 91225, Note_on_c, 14, 41, 0
14, 91240, Note_on_c, 14, 43, 106
14, 91255, Note_on_c, 14, 43, 0
14, 91270, Note_on_c, 14, 45, 106
14, 91285, Note_on_c, 14, 45, 0
14, 91300, Note_on_c, 14, 47, 106
14, 91315, Note_on_c, 14, 47, 0
14, 91330, Note_on_c, 14, 48, 106
14, 91360, Note_on_c, 14, 48, 0
14, 91390, Note_on_c, 14, 48, 106
14, 91420, Note_on_c, 14, 48, 0
14, 91450, Control_c, 14, 11, 112
14, 91450, Note_on_c, 14, 52, 106
14, 91467, Control_c, 14, 11, 115
14, 91485, Control_c, 14, 11, 116
14, 91503, Control_c, 14, 11, 113
14, 91521, Control_c, 14, 11, 110
14, 91539, Control_c, 14, 11, 107
14, 91557, Control_c, 14, 11, 104
14, 91590, Note_on_c, 14, 52, 0
14, 91600, Note_on_c, 14, 40, 106
14, 91615, Note_on_c, 14, 40, 0
14, 91630, Note_on_c, 14, 41, 106
14, 91645, Note_on_c, 14, 41, 0
14, 91660, Note_on_c, 14, 43, 106
14, 91675, Note_on_c, 14, 43, 0
14, 91690, Note_on_c, 14, 45, 106
14, 91705, Note_on_c, 14, 45, 0
14, 91720, Note_on_c, 14, 47, 106
14, 91735, Note_on_c, 14, 47, 0
14, 91750, Note_on_c, 14, 48, 106
14, 91765, Note_on_c, 14, 48, 0
14, 91780, Note_on_c, 14, 50, 106
14, 91795, Note_on_c, 14, 50, 0
14, 91810, Note_on_c, 14, 52, 106
14, 91840, Note_on_c, 14, 52, 0
14, 91870, Note_on_c, 14, 52, 106
14, 91900, Note_on_c, 14, 52, 0
14, 91930, Note_on_c, 14, 55, 106
14, 91930, Control_c, 14, 11, 112
14, 91947, Control_c, 14, 11, 109
14, 91965, Control_c, 14, 11, 106
14, 91983, Control_c, 14, 11, 103
14, 92160, Note_on_c, 14, 55, 0
14, 92170, Note_on_c, 14, 52, 106
14, 92230, Note_on_c, 14, 52, 0
14, 92290, Note_on_c, 14, 48, 106
14, 92350, Note_on_c, 14, 48, 0
14, 92410, Note_on_c, 14, 43, 106
14, 92470, Note_on_c, 14, 43, 0
14, 92530, Note_on_c, 14, 40, 106
14, 92590, Note_on_c, 14, 40, 0
14, 92650, Note_on_c, 14, 36, 106
14, 92710, Note_on_c, 14, 36, 0
14, 92770, Note_on_c, 14, 31, 106
14, 92830, Note_on_c, 14, 31, 0
14, 92890, Note_on_c, 14, 36, 106
14, 92986, Note_on_c, 14, 36, 0
14, 93130, Note_on_c, 14, 43, 106
14, 93226, Note_on_c, 14, 43, 0
14, 93370, Note_on_c, 14, 48, 106
14, 93466, Note_on_c, 14, 48, 0
14, 93610, Note_on_c, 14, 43, 106
14, 93706, Note_on_c, 14, 43, 0
14, 93850, Note_on_c, 14, 36, 106
14, 93946, Note_on_c, 14, 36, 0
14, 94090, Note_on_c, 14, 48, 116
14, 94192, Note_on_c, 14, 48, 0
14, 94330, Note_on_c, 14, 36, 106
14, 94450, Note_on_c, 14, 36, 0
14, 94570, Control_c, 14, 121, 0
14, 94570, End_track
15, 0, Start_track
15, 0, MIDI_port, 0
15, 0, Title_t, "Sequ. by J.F.Lucarelli"
15, 0, End_track
16, 0, Start_track
16, 0, MIDI_port, 0
16, 0, Title_t, "j-f.lucarelli@infonie.be  --  http://perso.infonie.fr/espace-midi"
16, 0, End_track
17, 0, Start_track
17, 0, MIDI_port, 0
17, 0, Title_t, "Optimized for AWE 64  + 8 MB memory"
17, 0, End_track
18, 0, Start_track
18, 0, MIDI_port, 0
18, 0, Title_t, "\251 Juni 2001"
18, 0, End_track
19, 0, Start_track
19, 0, MIDI_port, 0
19, 0, Title_t, "Beethoven - Symphony no 1 in C - Adagio - Allegro molto e vivace"
19, 0, End_track
0, 0, End_of_file