0, 0, Header, 1, 4, 120
1, 0, Start_track
1, 0, Title_t, "Allegro Piano piece in Amajor, "
1, 0, Title_t, "uncatalogued -"
1, 0, Copyright_t, "Copyright \251 2002 di FIORELLA ED ARMANDO ORLANDI"
1, 0, Text_t, "FIORELLA ED ARMANDO ORLANDI\012"
1, 0, Time_signature, 4, 2, 24, 8
1, 0, Key_signature, 3, "major"
1, 0, Tempo, 504202
1, 778, Tempo, 705882
1, 840, Tempo, 504202
1, 3840, Tempo, 504202
1, 4618, Tempo, 705882
1, 4680, Tempo, 504202
1, 5280, Tempo, 504202
1, 5288, Tempo, 508475
1, 5296, Tempo, 512821
1, 5304, Tempo, 517241
1, 5310, Tempo, 521739
1, 5318, Tempo, 526316
1, 5326, Tempo, 530973
1, 5332, Tempo, 535714
1, 5340, Tempo, 540541
1, 5348, Tempo, 545455
1, 5354, Tempo, 550459
1, 5362, Tempo, 555556
1, 5370, Tempo, 560748
1, 5376, Tempo, 566038
1, 5384, Tempo, 571429
1, 5392, Tempo, 576923
1, 5398, Tempo, 582524
1, 5406, Tempo, 588235
1, 5414, Tempo, 594059
1, 5420, Tempo, 600000
1, 5428, Tempo, 606061
1, 5436, Tempo, 612245
1, 5442, Tempo, 618557
1, 5450, Tempo, 625000
1, 5458, Tempo, 631579
1, 5464, Tempo, 638298
1, 5472, Tempo, 645161
1, 5480, Tempo, 652174
1, 5486, Tempo, 659341
1, 5494, Tempo, 666667
1, 5502, Tempo, 674157
1, 5508, Tempo, 681818
1, 5516, Tempo, 689655
1, 5520, Tempo, 1500000
1, 5546, Tempo, 1538462
1, 5570, Tempo, 1578947
1, 5596, Tempo, 1621622
1, 5620, Tempo, 1666667
1, 5644, Tempo, 1714286
1, 5670, Tempo, 1764706
1, 5694, Tempo, 1818182
1, 5720, Tempo, 1875000
1, 5744, Tempo, 1935484
1, 5768, Tempo, 2000000
1, 5794, Tempo, 2068966
1, 5818, Tempo, 2142857
1, 5844, Tempo, 2222222
1, 5868, Tempo, 2307692
1, 5892, Tempo, 2400000
1, 5918, Tempo, 2500000
1, 5942, Tempo, 2608696
1, 5966, Tempo, 2727273
1, 5972, Tempo, 2400000
1, 5980, Tempo, 2500000
1, 5986, Tempo, 2608696
1, 5986, End_track
2, 0, Start_track
2, 0, Title_t, "PianoR"
2, 0, Program_c, 0, 0
2, 0, Control_c, 0, 7, 127
2, 0, Control_c, 0, 10, 44
2, 0, Note_on_c, 0, 66, 100
2, 0, Control_c, 0, 93, 15
2, 0, Control_c, 0, 91, 21
2, 60, Note_on_c, 0, 66, 0
2, 60, Note_on_c, 0, 68, 100
2, 120, Note_on_c, 0, 68, 0
2, 120, Note_on_c, 0, 69, 100
2, 180, Note_on_c, 0, 69, 0
2, 180, Note_on_c, 0, 70, 100
2, 240, Note_on_c, 0, 70, 0
2, 240, Note_on_c, 0, 71, 100
2, 420, Note_on_c, 0, 71, 0
2, 420, Note_on_c, 0, 71, 100
2, 470, Note_on_c, 0, 74, 100
2, 480, Note_on_c, 0, 74, 0
2, 480, Note_on_c, 0, 71, 0
2, 480, Note_on_c, 0, 72, 100
2, 540, Note_on_c, 0, 72, 0
2, 540, Note_on_c, 0, 71, 100
2, 600, Note_on_c, 0, 71, 0
2, 600, Note_on_c, 0, 72, 100
2, 660, Note_on_c, 0, 72, 0
2, 660, Note_on_c, 0, 69, 100
2, 720, Note_on_c, 0, 69, 0
2, 720, Note_on_c, 0, 68, 100
2, 780, Note_on_c, 0, 68, 0
2, 780, Note_on_c, 0, 57, 100
2, 780, Note_on_c, 0, 76, 100
2, 900, Note_on_c, 0, 76, 0
2, 900, Note_on_c, 0, 57, 0
2, 900, Note_on_c, 0, 76, 57
2, 960, Note_on_c, 0, 76, 0
2, 960, Note_on_c, 0, 76, 57
2, 990, Note_on_c, 0, 76, 0
2, 990, Note_on_c, 0, 74, 57
2, 1020, Note_on_c, 0, 74, 0
2, 1020, Note_on_c, 0, 68, 57
2, 1020, Note_on_c, 0, 74, 57
2, 1050, Note_on_c, 0, 74, 0
2, 1050, Note_on_c, 0, 73, 57
2, 1080, Note_on_c, 0, 73, 0
2, 1080, Note_on_c, 0, 68, 0
2, 1080, Note_on_c, 0, 74, 57
2, 1080, Note_on_c, 0, 69, 57
2, 1140, Note_on_c, 0, 69, 0
2, 1140, Note_on_c, 0, 74, 0
2, 1140, Note_on_c, 0, 74, 57
2, 1140, Note_on_c, 0, 71, 57
2, 1200, Note_on_c, 0, 71, 0
2, 1200, Note_on_c, 0, 74, 0
2, 1200, Note_on_c, 0, 74, 57
2, 1200, Note_on_c, 0, 64, 57
2, 1230, Note_on_c, 0, 74, 0
2, 1230, Note_on_c, 0, 73, 57
2, 1260, Note_on_c, 0, 73, 0
2, 1260, Note_on_c, 0, 64, 0
2, 1260, Note_on_c, 0, 69, 57
2, 1260, Note_on_c, 0, 73, 57
2, 1290, Note_on_c, 0, 73, 0
2, 1290, Note_on_c, 0, 71, 57
2, 1320, Note_on_c, 0, 71, 0
2, 1320, Note_on_c, 0, 73, 57
2, 1380, Note_on_c, 0, 73, 0
2, 1380, Note_on_c, 0, 69, 0
2, 1380, Note_on_c, 0, 73, 57
2, 1380, Note_on_c, 0, 69, 57
2, 1440, Note_on_c, 0, 69, 0
2, 1440, Note_on_c, 0, 73, 0
2, 1440, Note_on_c, 0, 71, 57
2, 1440, Note_on_c, 0, 57, 57
2, 1440, Note_on_c, 0, 69, 57
2, 1500, Note_on_c, 0, 69, 0
2, 1500, Note_on_c, 0, 68, 57
2, 1530, Note_on_c, 0, 68, 0
2, 1530, Note_on_c, 0, 66, 57
2, 1560, Note_on_c, 0, 66, 0
2, 1560, Note_on_c, 0, 68, 57
2, 1620, Note_on_c, 0, 68, 0
2, 1620, Note_on_c, 0, 57, 0
2, 1620, Note_on_c, 0, 71, 0
2, 1620, Note_on_c, 0, 71, 57
2, 1620, Note_on_c, 0, 68, 57
2, 1680, Note_on_c, 0, 68, 0
2, 1680, Note_on_c, 0, 71, 0
2, 1680, Note_on_c, 0, 69, 77
2, 1680, Note_on_c, 0, 69, 57
2, 1740, Note_on_c, 0, 69, 0
2, 1740, Note_on_c, 0, 69, 0
2, 2040, Note_on_c, 0, 73, 87
2, 2100, Note_on_c, 0, 73, 0
2, 2100, Note_on_c, 0, 69, 87
2, 2160, Note_on_c, 0, 69, 0
2, 2160, Note_on_c, 0, 76, 87
2, 2280, Note_on_c, 0, 76, 0
2, 2280, Note_on_c, 0, 73, 87
2, 2340, Note_on_c, 0, 73, 0
2, 2340, Note_on_c, 0, 69, 87
2, 2400, Note_on_c, 0, 69, 0
2, 2400, Note_on_c, 0, 76, 87
2, 2460, Note_on_c, 0, 76, 0
2, 2460, Note_on_c, 0, 73, 87
2, 2490, Note_on_c, 0, 73, 0
2, 2490, Note_on_c, 0, 69, 87
2, 2520, Note_on_c, 0, 69, 0
2, 2520, Note_on_c, 0, 76, 87
2, 2580, Note_on_c, 0, 76, 0
2, 2580, Note_on_c, 0, 73, 87
2, 2610, Note_on_c, 0, 73, 0
2, 2610, Note_on_c, 0, 69, 87
2, 2640, Note_on_c, 0, 69, 0
2, 2640, Note_on_c, 0, 76, 87
2, 2700, Note_on_c, 0, 76, 0
2, 2700, Note_on_c, 0, 73, 87
2, 2730, Note_on_c, 0, 73, 0
2, 2730, Note_on_c, 0, 69, 87
2, 2760, Note_on_c, 0, 69, 0
2, 2760, Note_on_c, 0, 71, 87
2, 2820, Note_on_c, 0, 71, 0
2, 2820, Note_on_c, 0, 64, 87
2, 2880, Note_on_c, 0, 64, 0
2, 3000, Note_on_c, 0, 69, 55
2, 3060, Note_on_c, 0, 69, 0
2, 3060, Note_on_c, 0, 66, 55
2, 3120, Note_on_c, 0, 66, 0
2, 3120, Note_on_c, 0, 73, 55
2, 3240, Note_on_c, 0, 73, 0
2, 3240, Note_on_c, 0, 69, 55
2, 3300, Note_on_c, 0, 69, 0
2, 3300, Note_on_c, 0, 66, 55
2, 3360, Note_on_c, 0, 66, 0
2, 3360, Note_on_c, 0, 73, 55
2, 3420, Note_on_c, 0, 73, 0
2, 3420, Note_on_c, 0, 69, 55
2, 3450, Note_on_c, 0, 69, 0
2, 3450, Note_on_c, 0, 66, 55
2, 3480, Note_on_c, 0, 66, 0
2, 3480, Note_on_c, 0, 73, 55
2, 3540, Note_on_c, 0, 73, 0
2, 3540, Note_on_c, 0, 69, 55
2, 3570, Note_on_c, 0, 69, 0
2, 3570, Note_on_c, 0, 66, 55
2, 3600, Note_on_c, 0, 66, 0
2, 3600, Note_on_c, 0, 73, 55
2, 3660, Note_on_c, 0, 73, 0
2, 3660, Note_on_c, 0, 69, 55
2, 3690, Note_on_c, 0, 69, 0
2, 3690, Note_on_c, 0, 66, 55
2, 3720, Note_on_c, 0, 66, 0
2, 3720, Note_on_c, 0, 68, 55
2, 3780, Note_on_c, 0, 68, 0
2, 3780, Note_on_c, 0, 61, 55
2, 3840, Note_on_c, 0, 61, 0
2, 3840, Note_on_c, 0, 66, 100
2, 3840, Control_c, 0, 93, 15
2, 3840, Control_c, 0, 91, 21
2, 3900, Note_on_c, 0, 66, 0
2, 3900, Note_on_c, 0, 68, 100
2, 3960, Note_on_c, 0, 68, 0
2, 3960, Note_on_c, 0, 69, 100
2, 4020, Note_on_c, 0, 69, 0
2, 4020, Note_on_c, 0, 70, 100
2, 4080, Note_on_c, 0, 70, 0
2, 4080, Note_on_c, 0, 71, 100
2, 4260, Note_on_c, 0, 71, 0
2, 4260, Note_on_c, 0, 71, 100
2, 4310, Note_on_c, 0, 74, 100
2, 4320, Note_on_c, 0, 74, 0
2, 4320, Note_on_c, 0, 71, 0
2, 4320, Note_on_c, 0, 72, 100
2, 4380, Note_on_c, 0, 72, 0
2, 4380, Note_on_c, 0, 71, 100
2, 4440, Note_on_c, 0, 71, 0
2, 4440, Note_on_c, 0, 72, 100
2, 4500, Note_on_c, 0, 72, 0
2, 4500, Note_on_c, 0, 69, 100
2, 4560, Note_on_c, 0, 69, 0
2, 4560, Note_on_c, 0, 68, 100
2, 4620, Note_on_c, 0, 68, 0
2, 4620, Note_on_c, 0, 57, 100
2, 4620, Note_on_c, 0, 76, 100
2, 4740, Note_on_c, 0, 76, 0
2, 4740, Note_on_c, 0, 57, 0
2, 4740, Note_on_c, 0, 57, 57
2, 4800, Note_on_c, 0, 57, 0
2, 4980, Note_on_c, 0, 71, 57
2, 5040, Note_on_c, 0, 71, 0
2, 5040, Note_on_c, 0, 71, 57
2, 5070, Note_on_c, 0, 71, 0
2, 5070, Note_on_c, 0, 69, 57
2, 5100, Note_on_c, 0, 69, 0
2, 5100, Note_on_c, 0, 69, 57
2, 5130, Note_on_c, 0, 69, 0
2, 5130, Note_on_c, 0, 68, 57
2, 5160, Note_on_c, 0, 68, 0
2, 5160, Note_on_c, 0, 69, 57
2, 5220, Note_on_c, 0, 69, 0
2, 5220, Note_on_c, 0, 69, 57
2, 5220, Note_on_c, 0, 64, 57
2, 5280, Note_on_c, 0, 64, 0
2, 5280, Note_on_c, 0, 69, 0
2, 5280, Note_on_c, 0, 69, 57
2, 5280, Note_on_c, 0, 64, 57
2, 5310, Note_on_c, 0, 64, 0
2, 5310, Note_on_c, 0, 69, 0
2, 5310, Note_on_c, 0, 68, 57
2, 5310, Note_on_c, 0, 62, 57
2, 5340, Note_on_c, 0, 62, 0
2, 5340, Note_on_c, 0, 68, 0
2, 5340, Note_on_c, 0, 68, 57
2, 5340, Note_on_c, 0, 62, 57
2, 5370, Note_on_c, 0, 62, 0
2, 5370, Note_on_c, 0, 68, 0
2, 5370, Note_on_c, 0, 61, 57
2, 5370, Note_on_c, 0, 66, 57
2, 5400, Note_on_c, 0, 66, 0
2, 5400, Note_on_c, 0, 61, 0
2, 5400, Note_on_c, 0, 68, 57
2, 5400, Note_on_c, 0, 62, 57
2, 5460, Note_on_c, 0, 62, 0
2, 5460, Note_on_c, 0, 68, 0
2, 5460, Note_on_c, 0, 68, 57
2, 5460, Note_on_c, 0, 62, 57
2, 5520, Note_on_c, 0, 62, 0
2, 5520, Note_on_c, 0, 68, 0
2, 5520, Note_on_c, 0, 68, 57
2, 5520, Note_on_c, 0, 59, 57
2, 5580, Note_on_c, 0, 59, 0
2, 5580, Note_on_c, 0, 68, 0
2, 5580, Note_on_c, 0, 69, 57
2, 5580, Note_on_c, 0, 61, 57
2, 5640, Note_on_c, 0, 61, 0
2, 5640, Note_on_c, 0, 69, 0
2, 5640, End_track
3, 0, Start_track
3, 0, Title_t, "PianoL"
3, 0, Program_c, 1, 0
3, 0, Control_c, 1, 7, 127
3, 0, Control_c, 1, 10, 82
3, 0, Note_on_c, 1, 54, 100
3, 0, Control_c, 1, 93, 13
3, 0, Control_c, 1, 91, 18
3, 60, Note_on_c, 1, 54, 0
3, 60, Note_on_c, 1, 56, 100
3, 120, Note_on_c, 1, 56, 0
3, 120, Note_on_c, 1, 57, 100
3, 180, Note_on_c, 1, 57, 0
3, 180, Note_on_c, 1, 58, 100
3, 240, Note_on_c, 1, 58, 0
3, 240, Note_on_c, 1, 59, 100
3, 300, Note_on_c, 1, 59, 0
3, 300, Note_on_c, 1, 61, 100
3, 360, Note_on_c, 1, 61, 0
3, 360, Note_on_c, 1, 62, 100
3, 480, Note_on_c, 1, 62, 0
3, 480, Note_on_c, 1, 51, 100
3, 480, Note_on_c, 1, 60, 100
3, 540, Note_on_c, 1, 60, 0
3, 540, Note_on_c, 1, 59, 100
3, 600, Note_on_c, 1, 59, 0
3, 600, Note_on_c, 1, 60, 100
3, 660, Note_on_c, 1, 60, 0
3, 660, Note_on_c, 1, 57, 100
3, 720, Note_on_c, 1, 57, 0
3, 720, Note_on_c, 1, 51, 0
3, 720, Note_on_c, 1, 56, 100
3, 720, Note_on_c, 1, 52, 100
3, 780, Note_on_c, 1, 56, 0
3, 900, Note_on_c, 1, 52, 0
3, 1020, Note_on_c, 1, 52, 57
3, 1080, Note_on_c, 1, 52, 0
3, 1080, Note_on_c, 1, 54, 57
3, 1140, Note_on_c, 1, 54, 0
3, 1140, Note_on_c, 1, 56, 57
3, 1200, Note_on_c, 1, 56, 0
3, 1200, Note_on_c, 1, 57, 57
3, 1260, Note_on_c, 1, 57, 0
3, 1260, Note_on_c, 1, 59, 57
3, 1320, Note_on_c, 1, 59, 0
3, 1320, Note_on_c, 1, 61, 57
3, 1380, Note_on_c, 1, 61, 0
3, 1380, Note_on_c, 1, 62, 57
3, 1440, Note_on_c, 1, 62, 0
3, 1620, Note_on_c, 1, 52, 57
3, 1620, Note_on_c, 1, 62, 57
3, 1680, Note_on_c, 1, 62, 0
3, 1680, Note_on_c, 1, 52, 0
3, 1680, Note_on_c, 1, 61, 87
3, 1680, Note_on_c, 1, 57, 87
3, 1740, Note_on_c, 1, 57, 0
3, 1740, Note_on_c, 1, 61, 0
3, 1740, Note_on_c, 1, 52, 87
3, 1770, Note_on_c, 1, 52, 0
3, 1770, Note_on_c, 1, 56, 87
3, 1800, Note_on_c, 1, 56, 0
3, 1800, Note_on_c, 1, 57, 87
3, 1830, Note_on_c, 1, 57, 0
3, 1830, Note_on_c, 1, 56, 87
3, 1860, Note_on_c, 1, 56, 0
3, 1860, Note_on_c, 1, 57, 87
3, 1890, Note_on_c, 1, 57, 0
3, 1890, Note_on_c, 1, 59, 87
3, 1920, Note_on_c, 1, 59, 0
3, 1920, Note_on_c, 1, 61, 87
3, 1980, Note_on_c, 1, 61, 0
3, 1980, Note_on_c, 1, 57, 87
3, 2040, Note_on_c, 1, 57, 0
3, 2040, Note_on_c, 1, 64, 87
3, 2160, Note_on_c, 1, 64, 0
3, 2160, Note_on_c, 1, 61, 87
3, 2220, Note_on_c, 1, 61, 0
3, 2220, Note_on_c, 1, 57, 87
3, 2280, Note_on_c, 1, 57, 0
3, 2280, Note_on_c, 1, 64, 87
3, 2400, Note_on_c, 1, 64, 0
3, 2400, Note_on_c, 1, 61, 87
3, 2430, Note_on_c, 1, 61, 0
3, 2430, Note_on_c, 1, 57, 87
3, 2460, Note_on_c, 1, 57, 0
3, 2460, Note_on_c, 1, 64, 87
3, 2520, Note_on_c, 1, 64, 0
3, 2520, Note_on_c, 1, 61, 87
3, 2550, Note_on_c, 1, 61, 0
3, 2550, Note_on_c, 1, 57, 87
3, 2580, Note_on_c, 1, 57, 0
3, 2580, Note_on_c, 1, 64, 87
3, 2640, Note_on_c, 1, 64, 0
3, 2640, Note_on_c, 1, 61, 87
3, 2670, Note_on_c, 1, 61, 0
3, 2670, Note_on_c, 1, 57, 87
3, 2700, Note_on_c, 1, 57, 0
3, 2700, Note_on_c, 1, 64, 87
3, 2760, Note_on_c, 1, 64, 0
3, 2760, Note_on_c, 1, 59, 87
3, 2820, Note_on_c, 1, 59, 0
3, 2820, Note_on_c, 1, 52, 87
3, 2880, Note_on_c, 1, 52, 0
3, 2880, Note_on_c, 1, 57, 55
3, 2940, Note_on_c, 1, 57, 0
3, 2940, Note_on_c, 1, 54, 55
3, 3000, Note_on_c, 1, 54, 0
3, 3000, Note_on_c, 1, 61, 55
3, 3120, Note_on_c, 1, 61, 0
3, 3120, Note_on_c, 1, 57, 55
3, 3180, Note_on_c, 1, 57, 0
3, 3180, Note_on_c, 1, 54, 55
3, 3240, Note_on_c, 1, 54, 0
3, 3240, Note_on_c, 1, 61, 55
3, 3360, Note_on_c, 1, 61, 0
3, 3360, Note_on_c, 1, 57, 55
3, 3390, Note_on_c, 1, 57, 0
3, 3390, Note_on_c, 1, 54, 55
3, 3420, Note_on_c, 1, 54, 0
3, 3420, Note_on_c, 1, 61, 55
3, 3480, Note_on_c, 1, 61, 0
3, 3480, Note_on_c, 1, 57, 55
3, 3510, Note_on_c, 1, 57, 0
3, 3510, Note_on_c, 1, 54, 55
3, 3540, Note_on_c, 1, 54, 0
3, 3540, Note_on_c, 1, 61, 55
3, 3600, Note_on_c, 1, 61, 0
3, 3600, Note_on_c, 1, 57, 55
3, 3630, Note_on_c, 1, 57, 0
3, 3630, Note_on_c, 1, 54, 55
3, 3660, Note_on_c, 1, 54, 0
3, 3660, Note_on_c, 1, 61, 55
3, 3720, Note_on_c, 1, 61, 0
3, 3720, Note_on_c, 1, 56, 55
3, 3780, Note_on_c, 1, 56, 0
3, 3780, Note_on_c, 1, 49, 55
3, 3840, Note_on_c, 1, 49, 0
3, 3840, Note_on_c, 1, 54, 100
3, 3840, Control_c, 1, 93, 13
3, 3840, Control_c, 1, 91, 18
3, 3900, Note_on_c, 1, 54, 0
3, 3900, Note_on_c, 1, 56, 100
3, 3960, Note_on_c, 1, 56, 0
3, 3960, Note_on_c, 1, 57, 100
3, 4020, Note_on_c, 1, 57, 0
3, 4020, Note_on_c, 1, 58, 100
3, 4080, Note_on_c, 1, 58, 0
3, 4080, Note_on_c, 1, 59, 100
3, 4140, Note_on_c, 1, 59, 0
3, 4140, Note_on_c, 1, 61, 100
3, 4200, Note_on_c, 1, 61, 0
3, 4200, Note_on_c, 1, 62, 100
3, 4320, Note_on_c, 1, 62, 0
3, 4320, Note_on_c, 1, 51, 100
3, 4320, Note_on_c, 1, 60, 100
3, 4380, Note_on_c, 1, 60, 0
3, 4380, Note_on_c, 1, 59, 100
3, 4440, Note_on_c, 1, 59, 0
3, 4440, Note_on_c, 1, 60, 100
3, 4500, Note_on_c, 1, 60, 0
3, 4500, Note_on_c, 1, 57, 100
3, 4560, Note_on_c, 1, 57, 0
3, 4560, Note_on_c, 1, 51, 0
3, 4560, Note_on_c, 1, 56, 100
3, 4560, Note_on_c, 1, 52, 100
3, 4620, Note_on_c, 1, 56, 0
3, 4740, Note_on_c, 1, 52, 0
3, 4800, Note_on_c, 1, 64, 57
3, 4830, Note_on_c, 1, 64, 0
3, 4830, Note_on_c, 1, 62, 57
3, 4860, Note_on_c, 1, 62, 0
3, 4860, Note_on_c, 1, 62, 57
3, 4890, Note_on_c, 1, 62, 0
3, 4890, Note_on_c, 1, 61, 57
3, 4920, Note_on_c, 1, 61, 0
3, 4920, Note_on_c, 1, 62, 57
3, 4980, Note_on_c, 1, 62, 0
3, 4980, Note_on_c, 1, 62, 57
3, 5040, Note_on_c, 1, 62, 0
3, 5040, Note_on_c, 1, 62, 57
3, 5070, Note_on_c, 1, 62, 0
3, 5070, Note_on_c, 1, 61, 57
3, 5100, Note_on_c, 1, 61, 0
3, 5100, Note_on_c, 1, 61, 57
3, 5130, Note_on_c, 1, 61, 0
3, 5130, Note_on_c, 1, 59, 57
3, 5160, Note_on_c, 1, 59, 0
3, 5160, Note_on_c, 1, 61, 57
3, 5220, Note_on_c, 1, 61, 0
3, 5220, Note_on_c, 1, 61, 57
3, 5280, Note_on_c, 1, 61, 0
3, 5280, Note_on_c, 1, 61, 57
3, 5310, Note_on_c, 1, 61, 0
3, 5310, Note_on_c, 1, 59, 57
3, 5340, Note_on_c, 1, 59, 0
3, 5340, Note_on_c, 1, 59, 57
3, 5370, Note_on_c, 1, 59, 0
3, 5370, Note_on_c, 1, 57, 57
3, 5400, Note_on_c, 1, 57, 0
3, 5400, Note_on_c, 1, 59, 57
3, 5460, Note_on_c, 1, 59, 0
3, 5460, Note_on_c, 1, 52, 57
3, 5460, Note_on_c, 1, 59, 57
3, 5520, Note_on_c, 1, 59, 0
3, 5520, Note_on_c, 1, 52, 0
3, 5520, Note_on_c, 1, 57, 57
3, 5580, Note_on_c, 1, 57, 0
3, 5580, Note_on_c, 1, 45, 57
3, 5640, Note_on_c, 1, 45, 0
3, 5640, End_track
4, 0, Start_track
4, 0, End_track
0, 0, End_of_file