0, 0, Header, 1, 2, 120
1, 0, Start_track
1, 0, Time_signature, 4, 2, 24, 8
1, 0, Key_signature, -3, "major"
1, 0, Tempo, 1176471
1, 8278, Tempo, 262009
1, 8380, Tempo, 263158
1, 8384, Tempo, 594059
1, 8386, Tempo, 588235
1, 8394, Tempo, 582524
1, 8404, Tempo, 576923
1, 8414, Tempo, 571429
1, 8424, Tempo, 566038
1, 8434, Tempo, 560748
1, 8444, Tempo, 555556
1, 8454, Tempo, 550459
1, 8464, Tempo, 545455
1, 8474, Tempo, 540541
1, 8484, Tempo, 535714
1, 8494, Tempo, 530973
1, 8504, Tempo, 526316
1, 10184, Tempo, 2307692
1, 10242, Tempo, 526316
1, 12960, Key_signature, -4, "major"
1, 16672, Tempo, 526316
1, 16696, Tempo, 530973
1, 16718, Tempo, 535714
1, 16742, Tempo, 540541
1, 16764, Tempo, 545455
1, 16786, Tempo, 550459
1, 16810, Tempo, 555556
1, 16832, Tempo, 560748
1, 16854, Tempo, 566038
1, 17198, Tempo, 560748
1, 17200, Tempo, 555556
1, 17210, Tempo, 550459
1, 17218, Tempo, 545455
1, 17226, Tempo, 540541
1, 17234, Tempo, 535714
1, 17242, Tempo, 530973
1, 17254, Tempo, 521739
1, 25392, Tempo, 750000
1, 25440, Key_signature, -3, "major"
1, 26452, Tempo, 937500
1, 26454, Tempo, 937500
1, 26932, Tempo, 521739
1, 34638, Tempo, 2307692
1, 34712, Tempo, 526316
1, 37440, Key_signature, -4, "major"
1, 41146, Tempo, 521739
1, 41184, Tempo, 526316
1, 41222, Tempo, 530973
1, 41260, Tempo, 535714
1, 41298, Tempo, 540541
1, 41336, Tempo, 545455
1, 41374, Tempo, 550459
1, 41412, Tempo, 555556
1, 41450, Tempo, 560748
1, 41488, Tempo, 566038
1, 41708, Tempo, 566038
1, 41714, Tempo, 560748
1, 41720, Tempo, 555556
1, 41726, Tempo, 550459
1, 41730, Tempo, 545455
1, 41736, Tempo, 540541
1, 41742, Tempo, 535714
1, 41748, Tempo, 530973
1, 41752, Tempo, 526316
1, 49838, Tempo, 750000
1, 50858, Tempo, 923077
1, 50880, Key_signature, -2, "major"
1, 51352, Tempo, 526316
1, 58080, Key_signature, -3, "major"
1, 69732, Tempo, 526316
1, 69734, Tempo, 526316
1, 69748, Tempo, 530973
1, 69762, Tempo, 535714
1, 69776, Tempo, 540541
1, 69790, Tempo, 545455
1, 69804, Tempo, 550459
1, 69818, Tempo, 555556
1, 69830, Tempo, 560748
1, 69844, Tempo, 566038
1, 69858, Tempo, 571429
1, 69872, Tempo, 576923
1, 69886, Tempo, 582524
1, 69900, Tempo, 588235
1, 69914, Tempo, 594059
1, 69926, Tempo, 600000
1, 69940, Tempo, 606061
1, 69954, Tempo, 612245
1, 69968, Tempo, 618557
1, 69982, Tempo, 625000
1, 69996, Tempo, 631579
1, 70008, Tempo, 638298
1, 70514, Tempo, 638298
1, 70524, Tempo, 631579
1, 70532, Tempo, 625000
1, 70542, Tempo, 618557
1, 70550, Tempo, 612245
1, 70558, Tempo, 606061
1, 70568, Tempo, 600000
1, 70576, Tempo, 594059
1, 70584, Tempo, 588235
1, 70594, Tempo, 582524
1, 70602, Tempo, 576923
1, 70610, Tempo, 571429
1, 70620, Tempo, 566038
1, 70628, Tempo, 560748
1, 70636, Tempo, 555556
1, 70646, Tempo, 550459
1, 70654, Tempo, 545455
1, 70662, Tempo, 540541
1, 70672, Tempo, 535714
1, 70680, Tempo, 530973
1, 70688, Tempo, 526316
1, 72526, Tempo, 530973
1, 72562, Tempo, 535714
1, 72598, Tempo, 540541
1, 72634, Tempo, 545455
1, 72670, Tempo, 550459
1, 72672, Tempo, 530973
1, 81516, Tempo, 750000
1, 82592, Tempo, 923077
1, 83096, Tempo, 526316
1, 85380, Tempo, 521739
1, 85390, Tempo, 526316
1, 85400, Tempo, 530973
1, 85408, Tempo, 535714
1, 85418, Tempo, 540541
1, 85426, Tempo, 545455
1, 85436, Tempo, 550459
1, 85444, Tempo, 555556
1, 85454, Tempo, 560748
1, 85464, Tempo, 566038
1, 85472, Tempo, 571429
1, 85482, Tempo, 576923
1, 85490, Tempo, 582524
1, 85500, Tempo, 588235
1, 85508, Tempo, 594059
1, 85518, Tempo, 600000
1, 85528, Tempo, 606061
1, 85536, Tempo, 612245
1, 85546, Tempo, 618557
1, 85554, Tempo, 625000
1, 85564, Tempo, 631579
1, 85572, Tempo, 638298
1, 85582, Tempo, 645161
1, 85592, Tempo, 652174
1, 85600, Tempo, 659341
1, 85610, Tempo, 666667
1, 85618, Tempo, 674157
1, 85628, Tempo, 681818
1, 85636, Tempo, 689655
1, 85646, Tempo, 697674
1, 85656, Tempo, 705882
1, 85664, Tempo, 714286
1, 85674, Tempo, 722892
1, 85682, Tempo, 731707
1, 85692, Tempo, 740741
1, 85700, Tempo, 750000
1, 85710, Tempo, 759494
1, 85718, Tempo, 769231
1, 86590, Tempo, 681818
1, 86840, Tempo, 638298
1, 87084, Tempo, 600000
1, 87316, Tempo, 576923
1, 87402, Tempo, 571429
1, 87486, Tempo, 566038
1, 87570, Tempo, 560748
1, 87654, Tempo, 555556
1, 87740, Tempo, 550459
1, 87824, Tempo, 545455
1, 87908, Tempo, 540541
1, 87992, Tempo, 535714
1, 88072, Tempo, 526316
1, 88074, Tempo, 530973
1, 88076, Tempo, 530973
1, 88134, Tempo, 526316
1, 88134, End_track
2, 0, Start_track
2, 0, MIDI_port, 0
2, 0, Program_c, 0, 0
2, 585, Note_on_c, 0, 51, 64
2, 585, Note_on_c, 0, 63, 64
2, 598, Note_on_c, 0, 63, 0
2, 598, Note_on_c, 0, 51, 0
2, 600, Note_on_c, 0, 42, 64
2, 600, Note_on_c, 0, 54, 64
2, 691, Note_on_c, 0, 54, 0
2, 691, Note_on_c, 0, 42, 0
2, 705, Note_on_c, 0, 63, 64
2, 705, Note_on_c, 0, 69, 64
2, 705, Note_on_c, 0, 72, 64
2, 705, Note_on_c, 0, 75, 64
2, 705, Note_on_c, 0, 30, 64
2, 705, Note_on_c, 0, 42, 64
2, 718, Note_on_c, 0, 42, 0
2, 718, Note_on_c, 0, 69, 0
2, 718, Note_on_c, 0, 72, 0
2, 718, Note_on_c, 0, 63, 0
2, 718, Note_on_c, 0, 30, 0
2, 718, Note_on_c, 0, 75, 0
2, 720, Note_on_c, 0, 63, 64
2, 720, Note_on_c, 0, 69, 64
2, 720, Note_on_c, 0, 72, 64
2, 720, Note_on_c, 0, 75, 64
2, 720, Note_on_c, 0, 42, 64
2, 720, Note_on_c, 0, 54, 64
2, 931, Note_on_c, 0, 54, 0
2, 931, Note_on_c, 0, 69, 0
2, 931, Note_on_c, 0, 72, 0
2, 931, Note_on_c, 0, 63, 0
2, 931, Note_on_c, 0, 42, 0
2, 931, Note_on_c, 0, 75, 0
2, 945, Note_on_c, 0, 69, 64
2, 945, Note_on_c, 0, 72, 64
2, 945, Note_on_c, 0, 54, 64
2, 945, Note_on_c, 0, 63, 64
2, 958, Note_on_c, 0, 63, 0
2, 958, Note_on_c, 0, 69, 0
2, 958, Note_on_c, 0, 72, 0
2, 958, Note_on_c, 0, 54, 0
2, 960, Note_on_c, 0, 69, 64
2, 960, Note_on_c, 0, 74, 64
2, 960, Note_on_c, 0, 69, 64
2, 960, Note_on_c, 0, 54, 64
2, 960, Note_on_c, 0, 63, 64
2, 973, Note_on_c, 0, 69, 0
2, 973, Note_on_c, 0, 74, 0
2, 975, Note_on_c, 0, 72, 64
2, 988, Note_on_c, 0, 72, 0
2, 990, Note_on_c, 0, 74, 64
2, 1003, Note_on_c, 0, 74, 0
2, 1005, Note_on_c, 0, 72, 64
2, 1018, Note_on_c, 0, 72, 0
2, 1020, Note_on_c, 0, 74, 64
2, 1033, Note_on_c, 0, 74, 0
2, 1035, Note_on_c, 0, 72, 64
2, 1048, Note_on_c, 0, 72, 0
2, 1050, Note_on_c, 0, 71, 64
2, 1063, Note_on_c, 0, 71, 0
2, 1065, Note_on_c, 0, 69, 0
2, 1065, Note_on_c, 0, 54, 0
2, 1065, Note_on_c, 0, 63, 0
2, 1065, Note_on_c, 0, 72, 64
2, 1078, Note_on_c, 0, 72, 0
2, 1080, Note_on_c, 0, 67, 64
2, 1080, Note_on_c, 0, 71, 64
2, 1080, Note_on_c, 0, 55, 64
2, 1080, Note_on_c, 0, 62, 64
2, 1132, Note_on_c, 0, 62, 0
2, 1132, Note_on_c, 0, 67, 0
2, 1132, Note_on_c, 0, 71, 0
2, 1132, Note_on_c, 0, 55, 0
2, 1200, Note_on_c, 0, 63, 64
2, 1200, Note_on_c, 0, 67, 64
2, 1200, Note_on_c, 0, 72, 64
2, 1200, Note_on_c, 0, 48, 64
2, 1200, Note_on_c, 0, 55, 64
2, 1200, Note_on_c, 0, 63, 64
2, 1252, Note_on_c, 0, 63, 0
2, 1252, Note_on_c, 0, 67, 0
2, 1252, Note_on_c, 0, 72, 0
2, 1252, Note_on_c, 0, 63, 0
2, 1252, Note_on_c, 0, 55, 0
2, 1252, Note_on_c, 0, 48, 0
2, 1320, Note_on_c, 0, 35, 64
2, 1321, Note_on_c, 0, 35, 0
2, 1321, Note_on_c, 0, 38, 64
2, 1322, Note_on_c, 0, 38, 0
2, 1322, Note_on_c, 0, 43, 64
2, 1324, Note_on_c, 0, 43, 0
2, 1324, Note_on_c, 0, 47, 64
2, 1325, Note_on_c, 0, 47, 0
2, 1325, Note_on_c, 0, 50, 64
2, 1327, Note_on_c, 0, 50, 0
2, 1327, Note_on_c, 0, 55, 64
2, 1328, Note_on_c, 0, 55, 0
2, 1328, Note_on_c, 0, 59, 64
2, 1330, Note_on_c, 0, 59, 0
2, 1330, Note_on_c, 0, 62, 64
2, 1331, Note_on_c, 0, 62, 0
2, 1331, Note_on_c, 0, 67, 64
2, 1333, Note_on_c, 0, 67, 0
2, 1333, Note_on_c, 0, 71, 64
2, 1334, Note_on_c, 0, 71, 0
2, 1335, Note_on_c, 0, 62, 64
2, 1335, Note_on_c, 0, 67, 64
2, 1335, Note_on_c, 0, 74, 64
2, 1335, Note_on_c, 0, 35, 64
2, 1335, Note_on_c, 0, 47, 64
2, 1374, Note_on_c, 0, 47, 0
2, 1374, Note_on_c, 0, 74, 0
2, 1374, Note_on_c, 0, 62, 0
2, 1374, Note_on_c, 0, 67, 0
2, 1374, Note_on_c, 0, 35, 0
2, 1545, Note_on_c, 0, 56, 64
2, 1545, Note_on_c, 0, 68, 64
2, 1558, Note_on_c, 0, 68, 0
2, 1558, Note_on_c, 0, 56, 0
2, 1560, Note_on_c, 0, 47, 64
2, 1560, Note_on_c, 0, 59, 64
2, 1651, Note_on_c, 0, 59, 0
2, 1651, Note_on_c, 0, 47, 0
2, 1665, Note_on_c, 0, 68, 64
2, 1665, Note_on_c, 0, 74, 64
2, 1665, Note_on_c, 0, 77, 64
2, 1665, Note_on_c, 0, 80, 64
2, 1665, Note_on_c, 0, 35, 64
2, 1665, Note_on_c, 0, 47, 64
2, 1678, Note_on_c, 0, 47, 0
2, 1678, Note_on_c, 0, 74, 0
2, 1678, Note_on_c, 0, 77, 0
2, 1678, Note_on_c, 0, 68, 0
2, 1678, Note_on_c, 0, 35, 0
2, 1678, Note_on_c, 0, 80, 0
2, 1680, Note_on_c, 0, 68, 64
2, 1680, Note_on_c, 0, 74, 64
2, 1680, Note_on_c, 0, 77, 64
2, 1680, Note_on_c, 0, 80, 64
2, 1680, Note_on_c, 0, 47, 64
2, 1680, Note_on_c, 0, 59, 64
2, 1891, Note_on_c, 0, 59, 0
2, 1891, Note_on_c, 0, 74, 0
2, 1891, Note_on_c, 0, 77, 0
2, 1891, Note_on_c, 0, 68, 0
2, 1891, Note_on_c, 0, 47, 0
2, 1891, Note_on_c, 0, 80, 0
2, 1905, Note_on_c, 0, 74, 64
2, 1905, Note_on_c, 0, 77, 64
2, 1905, Note_on_c, 0, 59, 64
2, 1905, Note_on_c, 0, 68, 64
2, 1918, Note_on_c, 0, 68, 0
2, 1918, Note_on_c, 0, 74, 0
2, 1918, Note_on_c, 0, 77, 0
2, 1918, Note_on_c, 0, 59, 0
2, 1920, Note_on_c, 0, 79, 64
2, 1920, Note_on_c, 0, 74, 64
2, 1920, Note_on_c, 0, 59, 64
2, 1920, Note_on_c, 0, 68, 64
2, 1933, Note_on_c, 0, 79, 0
2, 1935, Note_on_c, 0, 77, 64
2, 1948, Note_on_c, 0, 77, 0
2, 1950, Note_on_c, 0, 79, 64
2, 1963, Note_on_c, 0, 79, 0
2, 1965, Note_on_c, 0, 77, 64
2, 1978, Note_on_c, 0, 77, 0
2, 1980, Note_on_c, 0, 79, 64
2, 1993, Note_on_c, 0, 79, 0
2, 1995, Note_on_c, 0, 77, 64
2, 2008, Note_on_c, 0, 77, 0
2, 2010, Note_on_c, 0, 76, 64
2, 2023, Note_on_c, 0, 76, 0
2, 2025, Note_on_c, 0, 74, 0
2, 2025, Note_on_c, 0, 59, 0
2, 2025, Note_on_c, 0, 68, 0
2, 2025, Note_on_c, 0, 77, 64
2, 2038, Note_on_c, 0, 77, 0
2, 2040, Note_on_c, 0, 67, 64
2, 2040, Note_on_c, 0, 76, 64
2, 2040, Note_on_c, 0, 58, 64
2, 2040, Note_on_c, 0, 61, 64
2, 2092, Note_on_c, 0, 61, 0
2, 2092, Note_on_c, 0, 67, 0
2, 2092, Note_on_c, 0, 76, 0
2, 2092, Note_on_c, 0, 58, 0
2, 2160, Note_on_c, 0, 65, 64
2, 2160, Note_on_c, 0, 72, 64
2, 2160, Note_on_c, 0, 77, 64
2, 2160, Note_on_c, 0, 56, 64
2, 2160, Note_on_c, 0, 60, 64
2, 2212, Note_on_c, 0, 60, 0
2, 2212, Note_on_c, 0, 77, 0
2, 2212, Note_on_c, 0, 65, 0
2, 2212, Note_on_c, 0, 72, 0
2, 2212, Note_on_c, 0, 56, 0
2, 2280, Note_on_c, 0, 40, 64
2, 2281, Note_on_c, 0, 40, 0
2, 2281, Note_on_c, 0, 43, 64
2, 2282, Note_on_c, 0, 43, 0
2, 2282, Note_on_c, 0, 48, 64
2, 2284, Note_on_c, 0, 48, 0
2, 2284, Note_on_c, 0, 52, 64
2, 2285, Note_on_c, 0, 52, 0
2, 2285, Note_on_c, 0, 55, 64
2, 2287, Note_on_c, 0, 55, 0
2, 2287, Note_on_c, 0, 60, 64
2, 2288, Note_on_c, 0, 60, 0
2, 2288, Note_on_c, 0, 64, 64
2, 2290, Note_on_c, 0, 64, 0
2, 2290, Note_on_c, 0, 67, 64
2, 2291, Note_on_c, 0, 67, 0
2, 2291, Note_on_c, 0, 72, 64
2, 2293, Note_on_c, 0, 72, 0
2, 2293, Note_on_c, 0, 76, 64
2, 2294, Note_on_c, 0, 76, 0
2, 2295, Note_on_c, 0, 67, 64
2, 2295, Note_on_c, 0, 72, 64
2, 2295, Note_on_c, 0, 79, 64
2, 2295, Note_on_c, 0, 40, 64
2, 2295, Note_on_c, 0, 52, 64
2, 2334, Note_on_c, 0, 52, 0
2, 2334, Note_on_c, 0, 79, 0
2, 2334, Note_on_c, 0, 67, 0
2, 2334, Note_on_c, 0, 72, 0
2, 2334, Note_on_c, 0, 40, 0
2, 2505, Note_on_c, 0, 49, 64
2, 2505, Note_on_c, 0, 61, 64
2, 2518, Note_on_c, 0, 61, 0
2, 2518, Note_on_c, 0, 49, 0
2, 2520, Note_on_c, 0, 40, 64
2, 2520, Note_on_c, 0, 52, 64
2, 2611, Note_on_c, 0, 52, 0
2, 2611, Note_on_c, 0, 40, 0
2, 2625, Note_on_c, 0, 73, 64
2, 2625, Note_on_c, 0, 77, 64
2, 2625, Note_on_c, 0, 82, 64
2, 2625, Note_on_c, 0, 85, 64
2, 2625, Note_on_c, 0, 41, 64
2, 2625, Note_on_c, 0, 53, 64
2, 2638, Note_on_c, 0, 53, 0
2, 2638, Note_on_c, 0, 77, 0
2, 2638, Note_on_c, 0, 82, 0
2, 2638, Note_on_c, 0, 73, 0
2, 2638, Note_on_c, 0, 41, 0
2, 2638, Note_on_c, 0, 85, 0
2, 2640, Note_on_c, 0, 73, 64
2, 2640, Note_on_c, 0, 77, 64
2, 2640, Note_on_c, 0, 82, 64
2, 2640, Note_on_c, 0, 85, 64
2, 2640, Note_on_c, 0, 41, 64
2, 2640, Note_on_c, 0, 53, 64
2, 2851, Note_on_c, 0, 53, 0
2, 2851, Note_on_c, 0, 77, 0
2, 2851, Note_on_c, 0, 82, 0
2, 2851, Note_on_c, 0, 73, 0
2, 2851, Note_on_c, 0, 41, 0
2, 2851, Note_on_c, 0, 85, 0
2, 2865, Note_on_c, 0, 73, 64
2, 2865, Note_on_c, 0, 82, 64
2, 2865, Note_on_c, 0, 53, 64
2, 2865, Note_on_c, 0, 58, 64
2, 2865, Note_on_c, 0, 61, 64
2, 2878, Note_on_c, 0, 61, 0
2, 2878, Note_on_c, 0, 53, 0
2, 2878, Note_on_c, 0, 73, 0
2, 2878, Note_on_c, 0, 82, 0
2, 2878, Note_on_c, 0, 58, 0
2, 2880, Note_on_c, 0, 84, 64
2, 2880, Note_on_c, 0, 73, 64
2, 2880, Note_on_c, 0, 53, 64
2, 2880, Note_on_c, 0, 58, 64
2, 2880, Note_on_c, 0, 61, 64
2, 2893, Note_on_c, 0, 84, 0
2, 2895, Note_on_c, 0, 82, 64
2, 2908, Note_on_c, 0, 82, 0
2, 2910, Note_on_c, 0, 84, 64
2, 2923, Note_on_c, 0, 84, 0
2, 2925, Note_on_c, 0, 82, 64
2, 2938, Note_on_c, 0, 82, 0
2, 2940, Note_on_c, 0, 84, 64
2, 2953, Note_on_c, 0, 84, 0
2, 2955, Note_on_c, 0, 82, 64
2, 2968, Note_on_c, 0, 82, 0
2, 2970, Note_on_c, 0, 81, 64
2, 2983, Note_on_c, 0, 81, 0
2, 2985, Note_on_c, 0, 58, 0
2, 2985, Note_on_c, 0, 73, 0
2, 2985, Note_on_c, 0, 53, 0
2, 2985, Note_on_c, 0, 61, 0
2, 2985, Note_on_c, 0, 82, 64
2, 2998, Note_on_c, 0, 82, 0
2, 3000, Note_on_c, 0, 73, 64
2, 3000, Note_on_c, 0, 75, 64
2, 3000, Note_on_c, 0, 82, 64
2, 3000, Note_on_c, 0, 54, 64
2, 3000, Note_on_c, 0, 58, 64
2, 3000, Note_on_c, 0, 61, 64
2, 3091, Note_on_c, 0, 61, 0
2, 3091, Note_on_c, 0, 75, 0
2, 3091, Note_on_c, 0, 82, 0
2, 3091, Note_on_c, 0, 73, 0
2, 3091, Note_on_c, 0, 58, 0
2, 3091, Note_on_c, 0, 54, 0
2, 3105, Note_on_c, 0, 73, 64
2, 3105, Note_on_c, 0, 75, 64
2, 3105, Note_on_c, 0, 82, 64
2, 3105, Note_on_c, 0, 55, 64
2, 3105, Note_on_c, 0, 58, 64
2, 3105, Note_on_c, 0, 61, 64
2, 3118, Note_on_c, 0, 61, 0
2, 3118, Note_on_c, 0, 75, 0
2, 3118, Note_on_c, 0, 82, 0
2, 3118, Note_on_c, 0, 73, 0
2, 3118, Note_on_c, 0, 58, 0
2, 3118, Note_on_c, 0, 55, 0
2, 3120, Note_on_c, 0, 73, 64
2, 3120, Note_on_c, 0, 75, 64
2, 3120, Note_on_c, 0, 82, 64
2, 3120, Note_on_c, 0, 55, 64
2, 3120, Note_on_c, 0, 58, 64
2, 3120, Note_on_c, 0, 61, 64
2, 3331, Note_on_c, 0, 61, 0
2, 3331, Note_on_c, 0, 75, 0
2, 3331, Note_on_c, 0, 82, 0
2, 3331, Note_on_c, 0, 73, 0
2, 3331, Note_on_c, 0, 58, 0
2, 3331, Note_on_c, 0, 55, 0
2, 3345, Note_on_c, 0, 72, 64
2, 3345, Note_on_c, 0, 75, 64
2, 3345, Note_on_c, 0, 80, 64
2, 3345, Note_on_c, 0, 56, 64
2, 3345, Note_on_c, 0, 60, 64
2, 3358, Note_on_c, 0, 60, 0
2, 3358, Note_on_c, 0, 80, 0
2, 3358, Note_on_c, 0, 72, 0
2, 3358, Note_on_c, 0, 75, 0
2, 3358, Note_on_c, 0, 56, 0
2, 3360, Note_on_c, 0, 72, 64
2, 3360, Note_on_c, 0, 75, 64
2, 3360, Note_on_c, 0, 80, 64
2, 3360, Note_on_c, 0, 56, 64
2, 3360, Note_on_c, 0, 60, 64
2, 3451, Note_on_c, 0, 60, 0
2, 3451, Note_on_c, 0, 80, 0
2, 3451, Note_on_c, 0, 72, 0
2, 3451, Note_on_c, 0, 75, 0
2, 3451, Note_on_c, 0, 56, 0
2, 3465, Note_on_c, 0, 72, 64
2, 3465, Note_on_c, 0, 75, 64
2, 3465, Note_on_c, 0, 78, 64
2, 3465, Note_on_c, 0, 57, 64
2, 3465, Note_on_c, 0, 63, 64
2, 3465, Note_on_c, 0, 66, 64
2, 3478, Note_on_c, 0, 66, 0
2, 3478, Note_on_c, 0, 75, 0
2, 3478, Note_on_c, 0, 78, 0
2, 3478, Note_on_c, 0, 72, 0
2, 3478, Note_on_c, 0, 63, 0
2, 3478, Note_on_c, 0, 57, 0
2, 3480, Note_on_c, 0, 72, 64
2, 3480, Note_on_c, 0, 75, 64
2, 3480, Note_on_c, 0, 78, 64
2, 3480, Note_on_c, 0, 57, 64
2, 3480, Note_on_c, 0, 63, 64
2, 3480, Note_on_c, 0, 66, 64
2, 3571, Note_on_c, 0, 66, 0
2, 3571, Note_on_c, 0, 75, 0
2, 3571, Note_on_c, 0, 78, 0
2, 3571, Note_on_c, 0, 72, 0
2, 3571, Note_on_c, 0, 63, 0
2, 3571, Note_on_c, 0, 57, 0
2, 3585, Note_on_c, 0, 70, 64
2, 3585, Note_on_c, 0, 75, 64
2, 3585, Note_on_c, 0, 78, 64
2, 3585, Note_on_c, 0, 58, 64
2, 3585, Note_on_c, 0, 63, 64
2, 3585, Note_on_c, 0, 66, 64
2, 3598, Note_on_c, 0, 66, 0
2, 3598, Note_on_c, 0, 75, 0
2, 3598, Note_on_c, 0, 78, 0
2, 3598, Note_on_c, 0, 70, 0
2, 3598, Note_on_c, 0, 63, 0
2, 3598, Note_on_c, 0, 58, 0
2, 3600, Note_on_c, 0, 70, 64
2, 3600, Note_on_c, 0, 75, 64
2, 3600, Note_on_c, 0, 78, 64
2, 3600, Note_on_c, 0, 58, 64
2, 3600, Note_on_c, 0, 63, 64
2, 3600, Note_on_c, 0, 66, 64
2, 3811, Note_on_c, 0, 66, 0
2, 3811, Note_on_c, 0, 75, 0
2, 3811, Note_on_c, 0, 78, 0
2, 3811, Note_on_c, 0, 70, 0
2, 3811, Note_on_c, 0, 63, 0
2, 3811, Note_on_c, 0, 58, 0
2, 3825, Note_on_c, 0, 69, 64
2, 3825, Note_on_c, 0, 75, 64
2, 3825, Note_on_c, 0, 78, 64
2, 3825, Note_on_c, 0, 59, 64
2, 3825, Note_on_c, 0, 63, 64
2, 3825, Note_on_c, 0, 66, 64
2, 3838, Note_on_c, 0, 66, 0
2, 3838, Note_on_c, 0, 75, 0
2, 3838, Note_on_c, 0, 78, 0
2, 3838, Note_on_c, 0, 69, 0
2, 3838, Note_on_c, 0, 63, 0
2, 3838, Note_on_c, 0, 59, 0
2, 3840, Note_on_c, 0, 69, 64
2, 3840, Note_on_c, 0, 75, 64
2, 3840, Note_on_c, 0, 78, 64
2, 3840, Note_on_c, 0, 59, 64
2, 3840, Note_on_c, 0, 63, 64
2, 3840, Note_on_c, 0, 66, 64
2, 3931, Note_on_c, 0, 66, 0
2, 3931, Note_on_c, 0, 75, 0
2, 3931, Note_on_c, 0, 78, 0
2, 3931, Note_on_c, 0, 69, 0
2, 3931, Note_on_c, 0, 63, 0
2, 3931, Note_on_c, 0, 59, 0
2, 3945, Note_on_c, 0, 69, 64
2, 3945, Note_on_c, 0, 75, 64
2, 3945, Note_on_c, 0, 78, 64
2, 3945, Note_on_c, 0, 60, 64
2, 3945, Note_on_c, 0, 63, 64
2, 3945, Note_on_c, 0, 66, 64
2, 3958, Note_on_c, 0, 66, 0
2, 3958, Note_on_c, 0, 75, 0
2, 3958, Note_on_c, 0, 78, 0
2, 3958, Note_on_c, 0, 69, 0
2, 3958, Note_on_c, 0, 63, 0
2, 3958, Note_on_c, 0, 60, 0
2, 3960, Note_on_c, 0, 69, 64
2, 3960, Note_on_c, 0, 75, 64
2, 3960, Note_on_c, 0, 78, 64
2, 3960, Note_on_c, 0, 60, 64
2, 3960, Note_on_c, 0, 63, 64
2, 3960, Note_on_c, 0, 66, 64
2, 4051, Note_on_c, 0, 66, 0
2, 4051, Note_on_c, 0, 75, 0
2, 4051, Note_on_c, 0, 78, 0
2, 4051, Note_on_c, 0, 69, 0
2, 4051, Note_on_c, 0, 63, 0
2, 4051, Note_on_c, 0, 60, 0
2, 4065, Note_on_c, 0, 68, 64
2, 4065, Note_on_c, 0, 73, 64
2, 4065, Note_on_c, 0, 77, 64
2, 4065, Note_on_c, 0, 61, 64
2, 4065, Note_on_c, 0, 65, 64
2, 4078, Note_on_c, 0, 65, 0
2, 4078, Note_on_c, 0, 77, 0
2, 4078, Note_on_c, 0, 68, 0
2, 4078, Note_on_c, 0, 73, 0
2, 4078, Note_on_c, 0, 61, 0
2, 4080, Note_on_c, 0, 68, 64
2, 4080, Note_on_c, 0, 73, 64
2, 4080, Note_on_c, 0, 77, 64
2, 4080, Note_on_c, 0, 61, 64
2, 4080, Note_on_c, 0, 65, 64
2, 4291, Note_on_c, 0, 65, 0
2, 4291, Note_on_c, 0, 77, 0
2, 4291, Note_on_c, 0, 68, 0
2, 4291, Note_on_c, 0, 73, 0
2, 4291, Note_on_c, 0, 61, 0
2, 4305, Note_on_c, 0, 68, 64
2, 4305, Note_on_c, 0, 71, 64
2, 4305, Note_on_c, 0, 77, 64
2, 4305, Note_on_c, 0, 62, 64
2, 4305, Note_on_c, 0, 65, 64
2, 4318, Note_on_c, 0, 65, 0
2, 4318, Note_on_c, 0, 77, 0
2, 4318, Note_on_c, 0, 68, 0
2, 4318, Note_on_c, 0, 71, 0
2, 4318, Note_on_c, 0, 62, 0
2, 4320, Note_on_c, 0, 68, 64
2, 4320, Note_on_c, 0, 71, 64
2, 4320, Note_on_c, 0, 77, 64
2, 4320, Note_on_c, 0, 62, 64
2, 4320, Note_on_c, 0, 65, 64
2, 4411, Note_on_c, 0, 65, 0
2, 4411, Note_on_c, 0, 77, 0
2, 4411, Note_on_c, 0, 68, 0
2, 4411, Note_on_c, 0, 71, 0
2, 4411, Note_on_c, 0, 62, 0
2, 4425, Note_on_c, 0, 68, 64
2, 4425, Note_on_c, 0, 71, 64
2, 4425, Note_on_c, 0, 77, 64
2, 4425, Note_on_c, 0, 38, 64
2, 4425, Note_on_c, 0, 50, 64
2, 4438, Note_on_c, 0, 50, 0
2, 4438, Note_on_c, 0, 77, 0
2, 4438, Note_on_c, 0, 68, 0
2, 4438, Note_on_c, 0, 71, 0
2, 4438, Note_on_c, 0, 38, 0
2, 4440, Note_on_c, 0, 68, 64
2, 4440, Note_on_c, 0, 71, 64
2, 4440, Note_on_c, 0, 77, 64
2, 4440, Note_on_c, 0, 38, 64
2, 4440, Note_on_c, 0, 50, 64
2, 4531, Note_on_c, 0, 50, 0
2, 4531, Note_on_c, 0, 77, 0
2, 4531, Note_on_c, 0, 68, 0
2, 4531, Note_on_c, 0, 71, 0
2, 4531, Note_on_c, 0, 38, 0
2, 4545, Note_on_c, 0, 68, 64
2, 4545, Note_on_c, 0, 72, 64
2, 4545, Note_on_c, 0, 75, 64
2, 4545, Note_on_c, 0, 39, 64
2, 4545, Note_on_c, 0, 51, 64
2, 4558, Note_on_c, 0, 51, 0
2, 4558, Note_on_c, 0, 75, 0
2, 4558, Note_on_c, 0, 68, 0
2, 4558, Note_on_c, 0, 72, 0
2, 4558, Note_on_c, 0, 39, 0
2, 4560, Note_on_c, 0, 68, 64
2, 4560, Note_on_c, 0, 72, 64
2, 4560, Note_on_c, 0, 75, 64
2, 4560, Note_on_c, 0, 39, 64
2, 4560, Note_on_c, 0, 51, 64
2, 4771, Note_on_c, 0, 51, 0
2, 4771, Note_on_c, 0, 75, 0
2, 4771, Note_on_c, 0, 68, 0
2, 4771, Note_on_c, 0, 72, 0
2, 4771, Note_on_c, 0, 39, 0
2, 4785, Note_on_c, 0, 68, 64
2, 4785, Note_on_c, 0, 72, 64
2, 4785, Note_on_c, 0, 75, 64
2, 4785, Note_on_c, 0, 39, 64
2, 4785, Note_on_c, 0, 51, 64
2, 4798, Note_on_c, 0, 51, 0
2, 4798, Note_on_c, 0, 75, 0
2, 4798, Note_on_c, 0, 68, 0
2, 4798, Note_on_c, 0, 72, 0
2, 4798, Note_on_c, 0, 39, 0
2, 4800, Note_on_c, 0, 68, 64
2, 4800, Note_on_c, 0, 72, 64
2, 4800, Note_on_c, 0, 75, 64
2, 4800, Note_on_c, 0, 39, 64
2, 4800, Note_on_c, 0, 51, 64
2, 4891, Note_on_c, 0, 51, 0
2, 4891, Note_on_c, 0, 75, 0
2, 4891, Note_on_c, 0, 68, 0
2, 4891, Note_on_c, 0, 72, 0
2, 4891, Note_on_c, 0, 39, 0
2, 4905, Note_on_c, 0, 67, 64
2, 4905, Note_on_c, 0, 70, 64
2, 4905, Note_on_c, 0, 73, 64
2, 4905, Note_on_c, 0, 40, 64
2, 4905, Note_on_c, 0, 52, 64
2, 4918, Note_on_c, 0, 52, 0
2, 4918, Note_on_c, 0, 73, 0
2, 4918, Note_on_c, 0, 67, 0
2, 4918, Note_on_c, 0, 70, 0
2, 4918, Note_on_c, 0, 40, 0
2, 4920, Note_on_c, 0, 67, 64
2, 4920, Note_on_c, 0, 70, 64
2, 4920, Note_on_c, 0, 73, 64
2, 4920, Note_on_c, 0, 40, 64
2, 4920, Note_on_c, 0, 52, 64
2, 5011, Note_on_c, 0, 52, 0
2, 5011, Note_on_c, 0, 73, 0
2, 5011, Note_on_c, 0, 67, 0
2, 5011, Note_on_c, 0, 70, 0
2, 5011, Note_on_c, 0, 40, 0
2, 5025, Note_on_c, 0, 65, 64
2, 5025, Note_on_c, 0, 70, 64
2, 5025, Note_on_c, 0, 73, 64
2, 5025, Note_on_c, 0, 41, 64
2, 5025, Note_on_c, 0, 53, 64
2, 5038, Note_on_c, 0, 53, 0
2, 5038, Note_on_c, 0, 73, 0
2, 5038, Note_on_c, 0, 65, 0
2, 5038, Note_on_c, 0, 70, 0
2, 5038, Note_on_c, 0, 41, 0
2, 5040, Note_on_c, 0, 65, 64
2, 5040, Note_on_c, 0, 70, 64
2, 5040, Note_on_c, 0, 73, 64
2, 5040, Note_on_c, 0, 41, 64
2, 5040, Note_on_c, 0, 53, 64
2, 5131, Note_on_c, 0, 53, 0
2, 5131, Note_on_c, 0, 73, 0
2, 5131, Note_on_c, 0, 65, 0
2, 5131, Note_on_c, 0, 70, 0
2, 5131, Note_on_c, 0, 41, 0
2, 5145, Note_on_c, 0, 64, 64
2, 5145, Note_on_c, 0, 70, 64
2, 5145, Note_on_c, 0, 73, 64
2, 5145, Note_on_c, 0, 43, 64
2, 5145, Note_on_c, 0, 55, 64
2, 5158, Note_on_c, 0, 55, 0
2, 5158, Note_on_c, 0, 73, 0
2, 5158, Note_on_c, 0, 64, 0
2, 5158, Note_on_c, 0, 70, 0
2, 5158, Note_on_c, 0, 43, 0
2, 5160, Note_on_c, 0, 64, 64
2, 5160, Note_on_c, 0, 70, 64
2, 5160, Note_on_c, 0, 73, 64
2, 5160, Note_on_c, 0, 43, 64
2, 5160, Note_on_c, 0, 55, 64
2, 5212, Note_on_c, 0, 55, 0
2, 5212, Note_on_c, 0, 73, 0
2, 5212, Note_on_c, 0, 64, 0
2, 5212, Note_on_c, 0, 70, 0
2, 5212, Note_on_c, 0, 43, 0
2, 5220, Note_on_c, 0, 60, 64
2, 5220, Note_on_c, 0, 65, 64
2, 5220, Note_on_c, 0, 72, 64
2, 5220, Note_on_c, 0, 44, 64
2, 5220, Note_on_c, 0, 56, 64
2, 5272, Note_on_c, 0, 56, 0
2, 5272, Note_on_c, 0, 72, 0
2, 5272, Note_on_c, 0, 60, 0
2, 5272, Note_on_c, 0, 65, 0
2, 5272, Note_on_c, 0, 44, 0
2, 5280, Note_on_c, 0, 60, 64
2, 5280, Note_on_c, 0, 65, 64
2, 5280, Note_on_c, 0, 72, 64
2, 5280, Note_on_c, 0, 44, 64
2, 5280, Note_on_c, 0, 56, 64
2, 5332, Note_on_c, 0, 56, 0
2, 5332, Note_on_c, 0, 72, 0
2, 5332, Note_on_c, 0, 60, 0
2, 5332, Note_on_c, 0, 65, 0
2, 5332, Note_on_c, 0, 44, 0
2, 5340, Note_on_c, 0, 60, 64
2, 5340, Note_on_c, 0, 66, 64
2, 5340, Note_on_c, 0, 72, 64
2, 5340, Note_on_c, 0, 32, 64
2, 5340, Note_on_c, 0, 44, 64
2, 5392, Note_on_c, 0, 44, 0
2, 5392, Note_on_c, 0, 72, 0
2, 5392, Note_on_c, 0, 60, 0
2, 5392, Note_on_c, 0, 66, 0
2, 5392, Note_on_c, 0, 32, 0
2, 5400, Note_on_c, 0, 62, 64
2, 5400, Note_on_c, 0, 67, 64
2, 5400, Note_on_c, 0, 71, 64
2, 5400, Note_on_c, 0, 31, 64
2, 5400, Note_on_c, 0, 43, 64
2, 5452, Note_on_c, 0, 43, 0
2, 5452, Note_on_c, 0, 71, 0
2, 5452, Note_on_c, 0, 62, 0
2, 5452, Note_on_c, 0, 67, 0
2, 5452, Note_on_c, 0, 31, 0
2, 5460, Note_on_c, 0, 55, 64
2, 5512, Note_on_c, 0, 55, 0
2, 5520, Note_on_c, 0, 55, 64
2, 5572, Note_on_c, 0, 55, 0
2, 5580, Note_on_c, 0, 55, 64
2, 5580, Note_on_c, 0, 56, 64
2, 5632, Note_on_c, 0, 56, 0
2, 5632, Note_on_c, 0, 55, 0
2, 5640, Note_on_c, 0, 53, 64
2, 5640, Note_on_c, 0, 56, 64
2, 5692, Note_on_c, 0, 56, 0
2, 5692, Note_on_c, 0, 53, 0
2, 5700, Note_on_c, 0, 53, 64
2, 5700, Note_on_c, 0, 55, 64
2, 5752, Note_on_c, 0, 55, 0
2, 5752, Note_on_c, 0, 53, 0
2, 5760, Note_on_c, 0, 67, 64
2, 5760, Note_on_c, 0, 53, 64
2, 5760, Note_on_c, 0, 55, 64
2, 5812, Note_on_c, 0, 55, 0
2, 5812, Note_on_c, 0, 53, 0
2, 5820, Note_on_c, 0, 60, 64
2, 5820, Note_on_c, 0, 51, 64
2, 5820, Note_on_c, 0, 55, 64
2, 5872, Note_on_c, 0, 55, 0
2, 5872, Note_on_c, 0, 67, 0
2, 5872, Note_on_c, 0, 60, 0
2, 5872, Note_on_c, 0, 51, 0
2, 5880, Note_on_c, 0, 60, 64
2, 5880, Note_on_c, 0, 66, 64
2, 5880, Note_on_c, 0, 69, 64
2, 5880, Note_on_c, 0, 55, 64
2, 5880, Note_on_c, 0, 51, 64
2, 5932, Note_on_c, 0, 55, 0
2, 5940, Note_on_c, 0, 55, 64
2, 5985, Note_on_c, 0, 69, 0
2, 5985, Note_on_c, 0, 51, 0
2, 5985, Note_on_c, 0, 60, 0
2, 5985, Note_on_c, 0, 66, 0
2, 5992, Note_on_c, 0, 55, 0
2, 6000, Note_on_c, 0, 62, 64
2, 6000, Note_on_c, 0, 65, 64
2, 6000, Note_on_c, 0, 71, 64
2, 6000, Note_on_c, 0, 55, 64
2, 6000, Note_on_c, 0, 50, 64
2, 6052, Note_on_c, 0, 55, 0
2, 6060, Note_on_c, 0, 55, 64
2, 6105, Note_on_c, 0, 71, 0
2, 6105, Note_on_c, 0, 50, 0
2, 6105, Note_on_c, 0, 62, 0
2, 6105, Note_on_c, 0, 65, 0
2, 6112, Note_on_c, 0, 55, 0
2, 6120, Note_on_c, 0, 63, 64
2, 6120, Note_on_c, 0, 67, 64
2, 6120, Note_on_c, 0, 72, 64
2, 6120, Note_on_c, 0, 55, 64
2, 6120, Note_on_c, 0, 48, 64
2, 6172, Note_on_c, 0, 55, 0
2, 6180, Note_on_c, 0, 55, 64
2, 6225, Note_on_c, 0, 72, 0
2, 6225, Note_on_c, 0, 48, 0
2, 6225, Note_on_c, 0, 63, 0
2, 6225, Note_on_c, 0, 67, 0
2, 6232, Note_on_c, 0, 55, 0
2, 6240, Note_on_c, 0, 63, 64
2, 6240, Note_on_c, 0, 69, 64
2, 6240, Note_on_c, 0, 72, 64
2, 6240, Note_on_c, 0, 55, 64
2, 6240, Note_on_c, 0, 42, 64
2, 6292, Note_on_c, 0, 55, 0
2, 6300, Note_on_c, 0, 55, 64
2, 6331, Note_on_c, 0, 72, 0
2, 6331, Note_on_c, 0, 42, 0
2, 6331, Note_on_c, 0, 63, 0
2, 6331, Note_on_c, 0, 69, 0
2, 6345, Note_on_c, 0, 62, 64
2, 6345, Note_on_c, 0, 67, 64
2, 6345, Note_on_c, 0, 71, 64
2, 6345, Note_on_c, 0, 43, 64
2, 6352, Note_on_c, 0, 55, 0
2, 6358, Note_on_c, 0, 71, 0
2, 6358, Note_on_c, 0, 62, 0
2, 6358, Note_on_c, 0, 67, 0
2, 6358, Note_on_c, 0, 43, 0
2, 6360, Note_on_c, 0, 62, 64
2, 6360, Note_on_c, 0, 67, 64
2, 6360, Note_on_c, 0, 71, 64
2, 6360, Note_on_c, 0, 43, 64
2, 6360, Note_on_c, 0, 55, 64
2, 6412, Note_on_c, 0, 55, 0
2, 6412, Note_on_c, 0, 43, 0
2, 6420, Note_on_c, 0, 43, 64
2, 6472, Note_on_c, 0, 43, 0
2, 6480, Note_on_c, 0, 43, 64
2, 6525, Note_on_c, 0, 71, 0
2, 6525, Note_on_c, 0, 62, 0
2, 6525, Note_on_c, 0, 67, 0
2, 6532, Note_on_c, 0, 43, 0
2, 6540, Note_on_c, 0, 43, 64
2, 6540, Note_on_c, 0, 44, 64
2, 6592, Note_on_c, 0, 44, 0
2, 6592, Note_on_c, 0, 43, 0
2, 6600, Note_on_c, 0, 41, 64
2, 6600, Note_on_c, 0, 44, 64
2, 6652, Note_on_c, 0, 44, 0
2, 6652, Note_on_c, 0, 41, 0
2, 6660, Note_on_c, 0, 41, 64
2, 6660, Note_on_c, 0, 43, 64
2, 6712, Note_on_c, 0, 43, 0
2, 6712, Note_on_c, 0, 41, 0
2, 6720, Note_on_c, 0, 55, 64
2, 6720, Note_on_c, 0, 41, 64
2, 6720, Note_on_c, 0, 43, 64
2, 6772, Note_on_c, 0, 43, 0
2, 6772, Note_on_c, 0, 41, 0
2, 6780, Note_on_c, 0, 48, 64
2, 6780, Note_on_c, 0, 39, 64
2, 6780, Note_on_c, 0, 43, 64
2, 6832, Note_on_c, 0, 43, 0
2, 6832, Note_on_c, 0, 55, 0
2, 6832, Note_on_c, 0, 48, 0
2, 6832, Note_on_c, 0, 39, 0
2, 6840, Note_on_c, 0, 48, 64
2, 6840, Note_on_c, 0, 54, 64
2, 6840, Note_on_c, 0, 57, 64
2, 6840, Note_on_c, 0, 43, 64
2, 6840, Note_on_c, 0, 39, 64
2, 6892, Note_on_c, 0, 43, 0
2, 6900, Note_on_c, 0, 43, 64
2, 6945, Note_on_c, 0, 57, 0
2, 6945, Note_on_c, 0, 39, 0
2, 6945, Note_on_c, 0, 48, 0
2, 6945, Note_on_c, 0, 54, 0
2, 6952, Note_on_c, 0, 43, 0
2, 6960, Note_on_c, 0, 50, 64
2, 6960, Note_on_c, 0, 53, 64
2, 6960, Note_on_c, 0, 59, 64
2, 6960, Note_on_c, 0, 43, 64
2, 6960, Note_on_c, 0, 38, 64
2, 7012, Note_on_c, 0, 43, 0
2, 7020, Note_on_c, 0, 43, 64
2, 7065, Note_on_c, 0, 59, 0
2, 7065, Note_on_c, 0, 38, 0
2, 7065, Note_on_c, 0, 50, 0
2, 7065, Note_on_c, 0, 53, 0
2, 7072, Note_on_c, 0, 43, 0
2, 7080, Note_on_c, 0, 51, 64
2, 7080, Note_on_c, 0, 55, 64
2, 7080, Note_on_c, 0, 60, 64
2, 7080, Note_on_c, 0, 43, 64
2, 7080, Note_on_c, 0, 36, 64
2, 7132, Note_on_c, 0, 43, 0
2, 7140, Note_on_c, 0, 43, 64
2, 7185, Note_on_c, 0, 60, 0
2, 7185, Note_on_c, 0, 36, 0
2, 7185, Note_on_c, 0, 51, 0
2, 7185, Note_on_c, 0, 55, 0
2, 7192, Note_on_c, 0, 43, 0
2, 7200, Note_on_c, 0, 51, 64
2, 7200, Note_on_c, 0, 57, 64
2, 7200, Note_on_c, 0, 60, 64
2, 7200, Note_on_c, 0, 43, 64
2, 7200, Note_on_c, 0, 30, 64
2, 7252, Note_on_c, 0, 43, 0
2, 7260, Note_on_c, 0, 43, 64
2, 7291, Note_on_c, 0, 60, 0
2, 7291, Note_on_c, 0, 30, 0
2, 7291, Note_on_c, 0, 51, 0
2, 7291, Note_on_c, 0, 57, 0
2, 7305, Note_on_c, 0, 50, 64
2, 7305, Note_on_c, 0, 55, 64
2, 7305, Note_on_c, 0, 59, 64
2, 7305, Note_on_c, 0, 31, 64
2, 7318, Note_on_c, 0, 31, 0
2, 7318, Note_on_c, 0, 55, 0
2, 7318, Note_on_c, 0, 59, 0
2, 7318, Note_on_c, 0, 50, 0
2, 7320, Note_on_c, 0, 50, 64
2, 7320, Note_on_c, 0, 55, 64
2, 7320, Note_on_c, 0, 59, 64
2, 7320, Note_on_c, 0, 31, 64
2, 7372, Note_on_c, 0, 43, 0
2, 7380, Note_on_c, 0, 43, 64
2, 7432, Note_on_c, 0, 43, 0
2, 7440, Note_on_c, 0, 43, 64
2, 7492, Note_on_c, 0, 43, 0
2, 7500, Note_on_c, 0, 43, 64
2, 7545, Note_on_c, 0, 59, 0
2, 7545, Note_on_c, 0, 31, 0
2, 7545, Note_on_c, 0, 50, 0
2, 7545, Note_on_c, 0, 55, 0
2, 7552, Note_on_c, 0, 43, 0
2, 7560, Note_on_c, 0, 50, 64
2, 7560, Note_on_c, 0, 55, 64
2, 7560, Note_on_c, 0, 59, 64
2, 7560, Note_on_c, 0, 43, 64
2, 7560, Note_on_c, 0, 31, 64
2, 7612, Note_on_c, 0, 43, 0
2, 7620, Note_on_c, 0, 43, 64
2, 7672, Note_on_c, 0, 43, 0
2, 7680, Note_on_c, 0, 43, 64
2, 7732, Note_on_c, 0, 43, 0
2, 7740, Note_on_c, 0, 43, 64
2, 7755, Note_on_c, 0, 59, 0
2, 7755, Note_on_c, 0, 50, 0
2, 7755, Note_on_c, 0, 55, 0
2, 7770, Note_on_c, 0, 50, 64
2, 7770, Note_on_c, 0, 55, 64
2, 7770, Note_on_c, 0, 59, 64
2, 7785, Note_on_c, 0, 31, 0
2, 7792, Note_on_c, 0, 43, 0
2, 7796, Note_on_c, 0, 55, 0
2, 7796, Note_on_c, 0, 50, 0
2, 7796, Note_on_c, 0, 59, 0
2, 7800, Note_on_c, 0, 50, 64
2, 7800, Note_on_c, 0, 55, 64
2, 7800, Note_on_c, 0, 59, 64
2, 7800, Note_on_c, 0, 31, 64
2, 7813, Note_on_c, 0, 31, 0
2, 7815, Note_on_c, 0, 32, 64
2, 7828, Note_on_c, 0, 32, 0
2, 7830, Note_on_c, 0, 31, 64
2, 7843, Note_on_c, 0, 31, 0
2, 7845, Note_on_c, 0, 32, 64
2, 7858, Note_on_c, 0, 32, 0
2, 7860, Note_on_c, 0, 31, 64
2, 7873, Note_on_c, 0, 31, 0
2, 7875, Note_on_c, 0, 32, 64
2, 7888, Note_on_c, 0, 32, 0
2, 7890, Note_on_c, 0, 31, 64
2, 7903, Note_on_c, 0, 31, 0
2, 7905, Note_on_c, 0, 32, 64
2, 7918, Note_on_c, 0, 32, 0
2, 7920, Note_on_c, 0, 31, 64
2, 7933, Note_on_c, 0, 31, 0
2, 7935, Note_on_c, 0, 32, 64
2, 7948, Note_on_c, 0, 32, 0
2, 7950, Note_on_c, 0, 31, 64
2, 7963, Note_on_c, 0, 31, 0
2, 7965, Note_on_c, 0, 32, 64
2, 7978, Note_on_c, 0, 32, 0
2, 7980, Note_on_c, 0, 31, 64
2, 7993, Note_on_c, 0, 31, 0
2, 7995, Note_on_c, 0, 32, 64
2, 8008, Note_on_c, 0, 32, 0
2, 8010, Note_on_c, 0, 31, 64
2, 8023, Note_on_c, 0, 31, 0
2, 8025, Note_on_c, 0, 32, 64
2, 8038, Note_on_c, 0, 32, 0
2, 8040, Note_on_c, 0, 31, 64
2, 8053, Note_on_c, 0, 31, 0
2, 8055, Note_on_c, 0, 32, 64
2, 8068, Note_on_c, 0, 32, 0
2, 8070, Note_on_c, 0, 31, 64
2, 8083, Note_on_c, 0, 31, 0
2, 8085, Note_on_c, 0, 32, 64
2, 8098, Note_on_c, 0, 32, 0
2, 8100, Note_on_c, 0, 31, 64
2, 8113, Note_on_c, 0, 31, 0
2, 8115, Note_on_c, 0, 32, 64
2, 8128, Note_on_c, 0, 32, 0
2, 8130, Note_on_c, 0, 31, 64
2, 8143, Note_on_c, 0, 31, 0
2, 8145, Note_on_c, 0, 32, 64
2, 8158, Note_on_c, 0, 32, 0
2, 8160, Note_on_c, 0, 31, 64
2, 8173, Note_on_c, 0, 31, 0
2, 8175, Note_on_c, 0, 32, 64
2, 8188, Note_on_c, 0, 32, 0
2, 8190, Note_on_c, 0, 31, 64
2, 8203, Note_on_c, 0, 31, 0
2, 8205, Note_on_c, 0, 32, 64
2, 8218, Note_on_c, 0, 32, 0
2, 8220, Note_on_c, 0, 31, 64
2, 8233, Note_on_c, 0, 31, 0
2, 8235, Note_on_c, 0, 32, 64
2, 8248, Note_on_c, 0, 32, 0
2, 8250, Note_on_c, 0, 31, 64
2, 8263, Note_on_c, 0, 31, 0
2, 8265, Note_on_c, 0, 50, 0
2, 8265, Note_on_c, 0, 55, 0
2, 8265, Note_on_c, 0, 59, 0
2, 8265, Note_on_c, 0, 32, 64
2, 8278, Note_on_c, 0, 32, 0
2, 8385, Note_on_c, 0, 50, 64
2, 8385, Note_on_c, 0, 55, 64
2, 8385, Note_on_c, 0, 59, 64
2, 8385, Note_on_c, 0, 62, 64
2, 8385, Note_on_c, 0, 31, 64
2, 8411, Note_on_c, 0, 31, 0
2, 8415, Note_on_c, 0, 32, 64
2, 8441, Note_on_c, 0, 32, 0
2, 8445, Note_on_c, 0, 31, 64
2, 8471, Note_on_c, 0, 31, 0
2, 8475, Note_on_c, 0, 32, 64
2, 8501, Note_on_c, 0, 32, 0
2, 8505, Note_on_c, 0, 31, 64
2, 8531, Note_on_c, 0, 31, 0
2, 8535, Note_on_c, 0, 32, 64
2, 8561, Note_on_c, 0, 32, 0
2, 8565, Note_on_c, 0, 31, 64
2, 8591, Note_on_c, 0, 31, 0
2, 8595, Note_on_c, 0, 32, 64
2, 8621, Note_on_c, 0, 32, 0
2, 8625, Note_on_c, 0, 31, 64
2, 8651, Note_on_c, 0, 31, 0
2, 8655, Note_on_c, 0, 32, 64
2, 8681, Note_on_c, 0, 32, 0
2, 8685, Note_on_c, 0, 31, 64
2, 8711, Note_on_c, 0, 31, 0
2, 8715, Note_on_c, 0, 32, 64
2, 8741, Note_on_c, 0, 32, 0
2, 8745, Note_on_c, 0, 31, 64
2, 8771, Note_on_c, 0, 31, 0
2, 8775, Note_on_c, 0, 32, 64
2, 8801, Note_on_c, 0, 32, 0
2, 8805, Note_on_c, 0, 31, 64
2, 8831, Note_on_c, 0, 31, 0
2, 8835, Note_on_c, 0, 32, 64
2, 8850, Note_on_c, 0, 59, 0
2, 8850, Note_on_c, 0, 62, 0
2, 8850, Note_on_c, 0, 50, 0
2, 8850, Note_on_c, 0, 55, 0
2, 8861, Note_on_c, 0, 32, 0
2, 8865, Note_on_c, 0, 55, 64
2, 8865, Note_on_c, 0, 58, 64
2, 8865, Note_on_c, 0, 62, 64
2, 8865, Note_on_c, 0, 67, 64
2, 8865, Note_on_c, 0, 31, 64
2, 8891, Note_on_c, 0, 31, 0
2, 8891, Note_on_c, 0, 62, 0
2, 8891, Note_on_c, 0, 55, 0
2, 8891, Note_on_c, 0, 58, 0
2, 8891, Note_on_c, 0, 67, 0
2, 8895, Note_on_c, 0, 44, 64
2, 8895, Note_on_c, 0, 32, 64
2, 8921, Note_on_c, 0, 32, 0
2, 8921, Note_on_c, 0, 44, 0
2, 8925, Note_on_c, 0, 43, 64
2, 8925, Note_on_c, 0, 31, 64
2, 8951, Note_on_c, 0, 31, 0
2, 8951, Note_on_c, 0, 43, 0
2, 8955, Note_on_c, 0, 44, 64
2, 8955, Note_on_c, 0, 32, 64
2, 8981, Note_on_c, 0, 32, 0
2, 8981, Note_on_c, 0, 44, 0
2, 8985, Note_on_c, 0, 43, 64
2, 8985, Note_on_c, 0, 31, 64
2, 9011, Note_on_c, 0, 31, 0
2, 9011, Note_on_c, 0, 43, 0
2, 9015, Note_on_c, 0, 44, 64
2, 9015, Note_on_c, 0, 32, 64
2, 9041, Note_on_c, 0, 32, 0
2, 9041, Note_on_c, 0, 44, 0
2, 9045, Note_on_c, 0, 43, 64
2, 9045, Note_on_c, 0, 31, 64
2, 9071, Note_on_c, 0, 31, 0
2, 9071, Note_on_c, 0, 43, 0
2, 9075, Note_on_c, 0, 44, 64
2, 9075, Note_on_c, 0, 32, 64
2, 9101, Note_on_c, 0, 32, 0
2, 9101, Note_on_c, 0, 44, 0
2, 9105, Note_on_c, 0, 43, 64
2, 9105, Note_on_c, 0, 31, 64
2, 9131, Note_on_c, 0, 31, 0
2, 9131, Note_on_c, 0, 43, 0
2, 9135, Note_on_c, 0, 44, 64
2, 9135, Note_on_c, 0, 32, 64
2, 9161, Note_on_c, 0, 32, 0
2, 9161, Note_on_c, 0, 44, 0
2, 9165, Note_on_c, 0, 43, 64
2, 9165, Note_on_c, 0, 31, 64
2, 9191, Note_on_c, 0, 31, 0
2, 9191, Note_on_c, 0, 43, 0
2, 9195, Note_on_c, 0, 44, 64
2, 9195, Note_on_c, 0, 32, 64
2, 9221, Note_on_c, 0, 32, 0
2, 9221, Note_on_c, 0, 44, 0
2, 9225, Note_on_c, 0, 43, 64
2, 9225, Note_on_c, 0, 31, 64
2, 9251, Note_on_c, 0, 31, 0
2, 9251, Note_on_c, 0, 43, 0
2, 9255, Note_on_c, 0, 44, 64
2, 9255, Note_on_c, 0, 32, 64
2, 9281, Note_on_c, 0, 32, 0
2, 9281, Note_on_c, 0, 44, 0
2, 9285, Note_on_c, 0, 43, 64
2, 9285, Note_on_c, 0, 31, 64
2, 9311, Note_on_c, 0, 31, 0
2, 9311, Note_on_c, 0, 43, 0
2, 9315, Note_on_c, 0, 45, 64
2, 9315, Note_on_c, 0, 33, 64
2, 9328, Note_on_c, 0, 33, 0
2, 9328, Note_on_c, 0, 45, 0
2, 9330, Note_on_c, 0, 47, 64
2, 9330, Note_on_c, 0, 35, 64
2, 9343, Note_on_c, 0, 35, 0
2, 9343, Note_on_c, 0, 47, 0
2, 9345, Note_on_c, 0, 48, 64
2, 9345, Note_on_c, 0, 36, 64
2, 9450, Note_on_c, 0, 36, 0
2, 9450, Note_on_c, 0, 48, 0
2, 9765, Note_on_c, 0, 43, 64
2, 9765, Note_on_c, 0, 31, 64
2, 9782, Note_on_c, 0, 31, 0
2, 9782, Note_on_c, 0, 43, 0
2, 9784, Note_on_c, 0, 45, 64
2, 9784, Note_on_c, 0, 33, 64
2, 9802, Note_on_c, 0, 33, 0
2, 9802, Note_on_c, 0, 45, 0
2, 9804, Note_on_c, 0, 47, 64
2, 9804, Note_on_c, 0, 35, 64
2, 9822, Note_on_c, 0, 35, 0
2, 9822, Note_on_c, 0, 47, 0
2, 9825, Note_on_c, 0, 48, 64
2, 9825, Note_on_c, 0, 36, 64
2, 9930, Note_on_c, 0, 36, 0
2, 9930, Note_on_c, 0, 48, 0
2, 9945, Note_on_c, 0, 51, 64
2, 9945, Note_on_c, 0, 39, 64
2, 10050, Note_on_c, 0, 39, 0
2, 10050, Note_on_c, 0, 51, 0
2, 10065, Note_on_c, 0, 47, 64
2, 10065, Note_on_c, 0, 35, 64
2, 10230, Note_on_c, 0, 35, 0
2, 10230, Note_on_c, 0, 47, 0
2, 10245, Note_on_c, 0, 43, 64
2, 10245, Note_on_c, 0, 31, 64
2, 10262, Note_on_c, 0, 31, 0
2, 10262, Note_on_c, 0, 43, 0
2, 10264, Note_on_c, 0, 45, 64
2, 10264, Note_on_c, 0, 33, 64
2, 10282, Note_on_c, 0, 33, 0
2, 10282, Note_on_c, 0, 45, 0
2, 10284, Note_on_c, 0, 47, 64
2, 10284, Note_on_c, 0, 35, 64
2, 10302, Note_on_c, 0, 35, 0
2, 10302, Note_on_c, 0, 47, 0
2, 10305, Note_on_c, 0, 48, 64
2, 10305, Note_on_c, 0, 36, 64
2, 10410, Note_on_c, 0, 36, 0
2, 10410, Note_on_c, 0, 48, 0
2, 10425, Note_on_c, 0, 51, 64
2, 10425, Note_on_c, 0, 39, 64
2, 10530, Note_on_c, 0, 39, 0
2, 10530, Note_on_c, 0, 51, 0
2, 10545, Note_on_c, 0, 47, 64
2, 10545, Note_on_c, 0, 35, 64
2, 10710, Note_on_c, 0, 35, 0
2, 10710, Note_on_c, 0, 47, 0
2, 10725, Note_on_c, 0, 56, 64
2, 10725, Note_on_c, 0, 44, 64
2, 10777, Note_on_c, 0, 44, 0
2, 10777, Note_on_c, 0, 56, 0
2, 10785, Note_on_c, 0, 55, 64
2, 10785, Note_on_c, 0, 43, 64
2, 10837, Note_on_c, 0, 43, 0
2, 10837, Note_on_c, 0, 55, 0
2, 10845, Note_on_c, 0, 53, 64
2, 10845, Note_on_c, 0, 41, 64
2, 10897, Note_on_c, 0, 41, 0
2, 10897, Note_on_c, 0, 53, 0
2, 10905, Note_on_c, 0, 51, 64
2, 10905, Note_on_c, 0, 39, 64
2, 10957, Note_on_c, 0, 39, 0
2, 10957, Note_on_c, 0, 51, 0
2, 10965, Note_on_c, 0, 50, 64
2, 10965, Note_on_c, 0, 38, 64
2, 11017, Note_on_c, 0, 38, 0
2, 11017, Note_on_c, 0, 50, 0
2, 11025, Note_on_c, 0, 51, 64
2, 11025, Note_on_c, 0, 39, 64
2, 11051, Note_on_c, 0, 39, 0
2, 11051, Note_on_c, 0, 51, 0
2, 11055, Note_on_c, 0, 53, 64
2, 11055, Note_on_c, 0, 41, 64
2, 11081, Note_on_c, 0, 41, 0
2, 11081, Note_on_c, 0, 53, 0
2, 11085, Note_on_c, 0, 51, 64
2, 11085, Note_on_c, 0, 39, 64
2, 11111, Note_on_c, 0, 39, 0
2, 11111, Note_on_c, 0, 51, 0
2, 11115, Note_on_c, 0, 50, 64
2, 11115, Note_on_c, 0, 38, 64
2, 11141, Note_on_c, 0, 38, 0
2, 11141, Note_on_c, 0, 50, 0
2, 11145, Note_on_c, 0, 48, 64
2, 11145, Note_on_c, 0, 36, 64
2, 11197, Note_on_c, 0, 36, 0
2, 11197, Note_on_c, 0, 48, 0
2, 11205, Note_on_c, 0, 56, 64
2, 11205, Note_on_c, 0, 43, 64
2, 11257, Note_on_c, 0, 43, 0
2, 11257, Note_on_c, 0, 56, 0
2, 11265, Note_on_c, 0, 55, 64
2, 11265, Note_on_c, 0, 43, 64
2, 11317, Note_on_c, 0, 43, 0
2, 11317, Note_on_c, 0, 55, 0
2, 11325, Note_on_c, 0, 53, 64
2, 11325, Note_on_c, 0, 41, 64
2, 11377, Note_on_c, 0, 41, 0
2, 11377, Note_on_c, 0, 53, 0
2, 11385, Note_on_c, 0, 51, 64
2, 11385, Note_on_c, 0, 39, 64
2, 11437, Note_on_c, 0, 39, 0
2, 11437, Note_on_c, 0, 51, 0
2, 11445, Note_on_c, 0, 50, 64
2, 11445, Note_on_c, 0, 38, 64
2, 11497, Note_on_c, 0, 38, 0
2, 11497, Note_on_c, 0, 50, 0
2, 11505, Note_on_c, 0, 51, 64
2, 11505, Note_on_c, 0, 39, 64
2, 11531, Note_on_c, 0, 39, 0
2, 11531, Note_on_c, 0, 51, 0
2, 11535, Note_on_c, 0, 53, 64
2, 11535, Note_on_c, 0, 41, 64
2, 11561, Note_on_c, 0, 41, 0
2, 11561, Note_on_c, 0, 53, 0
2, 11565, Note_on_c, 0, 51, 64
2, 11565, Note_on_c, 0, 39, 64
2, 11591, Note_on_c, 0, 39, 0
2, 11591, Note_on_c, 0, 51, 0
2, 11595, Note_on_c, 0, 50, 64
2, 11595, Note_on_c, 0, 38, 64
2, 11621, Note_on_c, 0, 38, 0
2, 11621, Note_on_c, 0, 50, 0
2, 11625, Note_on_c, 0, 48, 64
2, 11625, Note_on_c, 0, 36, 64
2, 11651, Note_on_c, 0, 36, 0
2, 11651, Note_on_c, 0, 48, 0
2, 11655, Note_on_c, 0, 56, 64
2, 11655, Note_on_c, 0, 44, 64
2, 11681, Note_on_c, 0, 44, 0
2, 11681, Note_on_c, 0, 56, 0
2, 11685, Note_on_c, 0, 58, 64
2, 11685, Note_on_c, 0, 46, 64
2, 11711, Note_on_c, 0, 46, 0
2, 11711, Note_on_c, 0, 58, 0
2, 11715, Note_on_c, 0, 56, 64
2, 11715, Note_on_c, 0, 44, 64
2, 11741, Note_on_c, 0, 44, 0
2, 11741, Note_on_c, 0, 56, 0
2, 11745, Note_on_c, 0, 55, 64
2, 11745, Note_on_c, 0, 43, 64
2, 11771, Note_on_c, 0, 43, 0
2, 11771, Note_on_c, 0, 55, 0
2, 11775, Note_on_c, 0, 56, 64
2, 11775, Note_on_c, 0, 44, 64
2, 11801, Note_on_c, 0, 44, 0
2, 11801, Note_on_c, 0, 56, 0
2, 11805, Note_on_c, 0, 55, 64
2, 11805, Note_on_c, 0, 43, 64
2, 11831, Note_on_c, 0, 43, 0
2, 11831, Note_on_c, 0, 55, 0
2, 11835, Note_on_c, 0, 53, 64
2, 11835, Note_on_c, 0, 41, 64
2, 11861, Note_on_c, 0, 41, 0
2, 11861, Note_on_c, 0, 53, 0
2, 11865, Note_on_c, 0, 51, 64
2, 11865, Note_on_c, 0, 39, 64
2, 11891, Note_on_c, 0, 39, 0
2, 11891, Note_on_c, 0, 51, 0
2, 11895, Note_on_c, 0, 53, 64
2, 11895, Note_on_c, 0, 41, 64
2, 11921, Note_on_c, 0, 41, 0
2, 11921, Note_on_c, 0, 53, 0
2, 11925, Note_on_c, 0, 51, 64
2, 11925, Note_on_c, 0, 39, 64
2, 11951, Note_on_c, 0, 39, 0
2, 11951, Note_on_c, 0, 51, 0
2, 11955, Note_on_c, 0, 50, 64
2, 11955, Note_on_c, 0, 38, 64
2, 11981, Note_on_c, 0, 38, 0
2, 11981, Note_on_c, 0, 50, 0
2, 11985, Note_on_c, 0, 51, 64
2, 11985, Note_on_c, 0, 39, 64
2, 12011, Note_on_c, 0, 39, 0
2, 12011, Note_on_c, 0, 51, 0
2, 12015, Note_on_c, 0, 53, 64
2, 12015, Note_on_c, 0, 41, 64
2, 12041, Note_on_c, 0, 41, 0
2, 12041, Note_on_c, 0, 53, 0
2, 12045, Note_on_c, 0, 51, 64
2, 12045, Note_on_c, 0, 39, 64
2, 12071, Note_on_c, 0, 39, 0
2, 12071, Note_on_c, 0, 51, 0
2, 12075, Note_on_c, 0, 50, 64
2, 12075, Note_on_c, 0, 38, 64
2, 12101, Note_on_c, 0, 38, 0
2, 12101, Note_on_c, 0, 50, 0
2, 12105, Note_on_c, 0, 48, 64
2, 12105, Note_on_c, 0, 36, 64
2, 12131, Note_on_c, 0, 36, 0
2, 12131, Note_on_c, 0, 48, 0
2, 12135, Note_on_c, 0, 55, 64
2, 12135, Note_on_c, 0, 43, 64
2, 12161, Note_on_c, 0, 43, 0
2, 12161, Note_on_c, 0, 55, 0
2, 12165, Note_on_c, 0, 53, 64
2, 12165, Note_on_c, 0, 41, 64
2, 12191, Note_on_c, 0, 41, 0
2, 12191, Note_on_c, 0, 53, 0
2, 12195, Note_on_c, 0, 51, 64
2, 12195, Note_on_c, 0, 39, 64
2, 12221, Note_on_c, 0, 39, 0
2, 12221, Note_on_c, 0, 51, 0
2, 12225, Note_on_c, 0, 53, 64
2, 12225, Note_on_c, 0, 41, 64
2, 12251, Note_on_c, 0, 41, 0
2, 12251, Note_on_c, 0, 53, 0
2, 12255, Note_on_c, 0, 55, 64
2, 12255, Note_on_c, 0, 43, 64
2, 12281, Note_on_c, 0, 43, 0
2, 12281, Note_on_c, 0, 55, 0
2, 12285, Note_on_c, 0, 53, 64
2, 12285, Note_on_c, 0, 41, 64
2, 12311, Note_on_c, 0, 41, 0
2, 12311, Note_on_c, 0, 53, 0
2, 12315, Note_on_c, 0, 51, 64
2, 12315, Note_on_c, 0, 39, 64
2, 12341, Note_on_c, 0, 39, 0
2, 12341, Note_on_c, 0, 51, 0
2, 12345, Note_on_c, 0, 50, 64
2, 12345, Note_on_c, 0, 38, 64
2, 12371, Note_on_c, 0, 38, 0
2, 12371, Note_on_c, 0, 50, 0
2, 12375, Note_on_c, 0, 56, 64
2, 12375, Note_on_c, 0, 44, 64
2, 12401, Note_on_c, 0, 44, 0
2, 12401, Note_on_c, 0, 56, 0
2, 12405, Note_on_c, 0, 55, 64
2, 12405, Note_on_c, 0, 43, 64
2, 12431, Note_on_c, 0, 43, 0
2, 12431, Note_on_c, 0, 55, 0
2, 12435, Note_on_c, 0, 53, 64
2, 12435, Note_on_c, 0, 41, 64
2, 12461, Note_on_c, 0, 41, 0
2, 12461, Note_on_c, 0, 53, 0
2, 12465, Note_on_c, 0, 55, 64
2, 12465, Note_on_c, 0, 43, 64
2, 12491, Note_on_c, 0, 43, 0
2, 12491, Note_on_c, 0, 55, 0
2, 12495, Note_on_c, 0, 56, 64
2, 12495, Note_on_c, 0, 44, 64
2, 12521, Note_on_c, 0, 44, 0
2, 12521, Note_on_c, 0, 56, 0
2, 12525, Note_on_c, 0, 55, 64
2, 12525, Note_on_c, 0, 43, 64
2, 12551, Note_on_c, 0, 43, 0
2, 12551, Note_on_c, 0, 55, 0
2, 12555, Note_on_c, 0, 53, 64
2, 12555, Note_on_c, 0, 41, 64
2, 12581, Note_on_c, 0, 41, 0
2, 12581, Note_on_c, 0, 53, 0
2, 12585, Note_on_c, 0, 52, 64
2, 12585, Note_on_c, 0, 40, 64
2, 12611, Note_on_c, 0, 40, 0
2, 12611, Note_on_c, 0, 52, 0
2, 12615, Note_on_c, 0, 58, 64
2, 12615, Note_on_c, 0, 46, 64
2, 12641, Note_on_c, 0, 46, 0
2, 12641, Note_on_c, 0, 58, 0
2, 12645, Note_on_c, 0, 56, 64
2, 12645, Note_on_c, 0, 44, 64
2, 12671, Note_on_c, 0, 44, 0
2, 12671, Note_on_c, 0, 56, 0
2, 12675, Note_on_c, 0, 55, 64
2, 12675, Note_on_c, 0, 43, 64
2, 12701, Note_on_c, 0, 43, 0
2, 12701, Note_on_c, 0, 55, 0
2, 12705, Note_on_c, 0, 56, 64
2, 12705, Note_on_c, 0, 44, 64
2, 12731, Note_on_c, 0, 44, 0
2, 12731, Note_on_c, 0, 56, 0
2, 12735, Note_on_c, 0, 60, 64
2, 12735, Note_on_c, 0, 48, 64
2, 12761, Note_on_c, 0, 48, 0
2, 12761, Note_on_c, 0, 60, 0
2, 12765, Note_on_c, 0, 55, 64
2, 12765, Note_on_c, 0, 43, 64
2, 12791, Note_on_c, 0, 43, 0
2, 12791, Note_on_c, 0, 55, 0
2, 12795, Note_on_c, 0, 60, 64
2, 12795, Note_on_c, 0, 48, 64
2, 12821, Note_on_c, 0, 48, 0
2, 12821, Note_on_c, 0, 60, 0
2, 12825, Note_on_c, 0, 53, 64
2, 12825, Note_on_c, 0, 41, 64
2, 12851, Note_on_c, 0, 41, 0
2, 12851, Note_on_c, 0, 53, 0
2, 12855, Note_on_c, 0, 60, 64
2, 12855, Note_on_c, 0, 48, 64
2, 12881, Note_on_c, 0, 48, 0
2, 12881, Note_on_c, 0, 60, 0
2, 12885, Note_on_c, 0, 54, 64
2, 12885, Note_on_c, 0, 42, 64
2, 12911, Note_on_c, 0, 42, 0
2, 12911, Note_on_c, 0, 54, 0
2, 12915, Note_on_c, 0, 60, 64
2, 12915, Note_on_c, 0, 48, 64
2, 12941, Note_on_c, 0, 48, 0
2, 12941, Note_on_c, 0, 60, 0
2, 12945, Note_on_c, 0, 59, 64
2, 12945, Note_on_c, 0, 47, 64
2, 12971, Note_on_c, 0, 47, 0
2, 12971, Note_on_c, 0, 59, 0
2, 12975, Note_on_c, 0, 57, 64
2, 12975, Note_on_c, 0, 45, 64
2, 13001, Note_on_c, 0, 45, 0
2, 13001, Note_on_c, 0, 57, 0
2, 13005, Note_on_c, 0, 55, 64
2, 13005, Note_on_c, 0, 43, 64
2, 13031, Note_on_c, 0, 43, 0
2, 13031, Note_on_c, 0, 55, 0
2, 13035, Note_on_c, 0, 62, 64
2, 13035, Note_on_c, 0, 50, 64
2, 13061, Note_on_c, 0, 50, 0
2, 13061, Note_on_c, 0, 62, 0
2, 13065, Note_on_c, 0, 60, 64
2, 13065, Note_on_c, 0, 48, 64
2, 13091, Note_on_c, 0, 48, 0
2, 13091, Note_on_c, 0, 60, 0
2, 13095, Note_on_c, 0, 59, 64
2, 13095, Note_on_c, 0, 47, 64
2, 13121, Note_on_c, 0, 47, 0
2, 13121, Note_on_c, 0, 59, 0
2, 13125, Note_on_c, 0, 65, 64
2, 13125, Note_on_c, 0, 53, 64
2, 13151, Note_on_c, 0, 53, 0
2, 13151, Note_on_c, 0, 65, 0
2, 13155, Note_on_c, 0, 63, 64
2, 13155, Note_on_c, 0, 51, 64
2, 13181, Note_on_c, 0, 51, 0
2, 13181, Note_on_c, 0, 63, 0
2, 13185, Note_on_c, 0, 62, 64
2, 13185, Note_on_c, 0, 50, 64
2, 13211, Note_on_c, 0, 50, 0
2, 13211, Note_on_c, 0, 62, 0
2, 13215, Note_on_c, 0, 68, 64
2, 13215, Note_on_c, 0, 56, 64
2, 13241, Note_on_c, 0, 56, 0
2, 13241, Note_on_c, 0, 68, 0
2, 13245, Note_on_c, 0, 67, 64
2, 13245, Note_on_c, 0, 55, 64
2, 13271, Note_on_c, 0, 55, 0
2, 13271, Note_on_c, 0, 67, 0
2, 13275, Note_on_c, 0, 65, 64
2, 13275, Note_on_c, 0, 53, 64
2, 13301, Note_on_c, 0, 53, 0
2, 13301, Note_on_c, 0, 65, 0
2, 13305, Note_on_c, 0, 74, 64
2, 13305, Note_on_c, 0, 62, 64
2, 13331, Note_on_c, 0, 62, 0
2, 13331, Note_on_c, 0, 74, 0
2, 13335, Note_on_c, 0, 72, 64
2, 13335, Note_on_c, 0, 60, 64
2, 13361, Note_on_c, 0, 60, 0
2, 13361, Note_on_c, 0, 72, 0
2, 13365, Note_on_c, 0, 71, 64
2, 13365, Note_on_c, 0, 59, 64
2, 13391, Note_on_c, 0, 59, 0
2, 13391, Note_on_c, 0, 71, 0
2, 13395, Note_on_c, 0, 77, 64
2, 13395, Note_on_c, 0, 65, 64
2, 13421, Note_on_c, 0, 65, 0
2, 13421, Note_on_c, 0, 77, 0
2, 13425, Note_on_c, 0, 75, 64
2, 13425, Note_on_c, 0, 63, 64
2, 13451, Note_on_c, 0, 63, 0
2, 13451, Note_on_c, 0, 75, 0
2, 13455, Note_on_c, 0, 74, 64
2, 13455, Note_on_c, 0, 62, 64
2, 13481, Note_on_c, 0, 62, 0
2, 13481, Note_on_c, 0, 74, 0
2, 13485, Note_on_c, 0, 80, 64
2, 13485, Note_on_c, 0, 68, 64
2, 13511, Note_on_c, 0, 68, 0
2, 13511, Note_on_c, 0, 80, 0
2, 13515, Note_on_c, 0, 79, 64
2, 13515, Note_on_c, 0, 67, 64
2, 13541, Note_on_c, 0, 67, 0
2, 13541, Note_on_c, 0, 79, 0
2, 13545, Note_on_c, 0, 77, 64
2, 13545, Note_on_c, 0, 65, 64
2, 13571, Note_on_c, 0, 65, 0
2, 13571, Note_on_c, 0, 77, 0
2, 13575, Note_on_c, 0, 86, 64
2, 13575, Note_on_c, 0, 74, 64
2, 13601, Note_on_c, 0, 74, 0
2, 13601, Note_on_c, 0, 86, 0
2, 13605, Note_on_c, 0, 84, 64
2, 13605, Note_on_c, 0, 72, 64
2, 13631, Note_on_c, 0, 72, 0
2, 13631, Note_on_c, 0, 84, 0
2, 13635, Note_on_c, 0, 83, 64
2, 13635, Note_on_c, 0, 71, 64
2, 13661, Note_on_c, 0, 71, 0
2, 13661, Note_on_c, 0, 83, 0
2, 13665, Note_on_c, 0, 89, 64
2, 13665, Note_on_c, 0, 77, 64
2, 13691, Note_on_c, 0, 77, 0
2, 13691, Note_on_c, 0, 89, 0
2, 13695, Note_on_c, 0, 87, 64
2, 13695, Note_on_c, 0, 75, 64
2, 13721, Note_on_c, 0, 75, 0
2, 13721, Note_on_c, 0, 87, 0
2, 13725, Note_on_c, 0, 86, 64
2, 13725, Note_on_c, 0, 74, 64
2, 13751, Note_on_c, 0, 74, 0
2, 13751, Note_on_c, 0, 86, 0
2, 13755, Note_on_c, 0, 92, 64
2, 13755, Note_on_c, 0, 80, 64
2, 13781, Note_on_c, 0, 80, 0
2, 13781, Note_on_c, 0, 92, 0
2, 13785, Note_on_c, 0, 91, 64
2, 13785, Note_on_c, 0, 79, 64
2, 13811, Note_on_c, 0, 79, 0
2, 13811, Note_on_c, 0, 91, 0
2, 13815, Note_on_c, 0, 89, 64
2, 13815, Note_on_c, 0, 77, 64
2, 13841, Note_on_c, 0, 77, 0
2, 13841, Note_on_c, 0, 89, 0
2, 13845, Note_on_c, 0, 87, 64
2, 13845, Note_on_c, 0, 75, 64
2, 13871, Note_on_c, 0, 75, 0
2, 13871, Note_on_c, 0, 87, 0
2, 13875, Note_on_c, 0, 86, 64
2, 13875, Note_on_c, 0, 74, 64
2, 13901, Note_on_c, 0, 74, 0
2, 13901, Note_on_c, 0, 86, 0
2, 13905, Note_on_c, 0, 84, 64
2, 13905, Note_on_c, 0, 72, 64
2, 13931, Note_on_c, 0, 72, 0
2, 13931, Note_on_c, 0, 84, 0
2, 13935, Note_on_c, 0, 83, 64
2, 13935, Note_on_c, 0, 71, 64
2, 13961, Note_on_c, 0, 71, 0
2, 13961, Note_on_c, 0, 83, 0
2, 13965, Note_on_c, 0, 80, 64
2, 13965, Note_on_c, 0, 68, 64
2, 13991, Note_on_c, 0, 68, 0
2, 13991, Note_on_c, 0, 80, 0
2, 13995, Note_on_c, 0, 79, 64
2, 13995, Note_on_c, 0, 67, 64
2, 14021, Note_on_c, 0, 67, 0
2, 14021, Note_on_c, 0, 79, 0
2, 14025, Note_on_c, 0, 77, 64
2, 14025, Note_on_c, 0, 65, 64
2, 14051, Note_on_c, 0, 65, 0
2, 14051, Note_on_c, 0, 77, 0
2, 14055, Note_on_c, 0, 75, 64
2, 14055, Note_on_c, 0, 63, 64
2, 14081, Note_on_c, 0, 63, 0
2, 14081, Note_on_c, 0, 75, 0
2, 14085, Note_on_c, 0, 74, 64
2, 14085, Note_on_c, 0, 62, 64
2, 14111, Note_on_c, 0, 62, 0
2, 14111, Note_on_c, 0, 74, 0
2, 14115, Note_on_c, 0, 79, 64
2, 14115, Note_on_c, 0, 67, 64
2, 14141, Note_on_c, 0, 67, 0
2, 14141, Note_on_c, 0, 79, 0
2, 14145, Note_on_c, 0, 72, 64
2, 14145, Note_on_c, 0, 63, 64
2, 14145, Note_on_c, 0, 67, 64
2, 14145, Note_on_c, 0, 60, 64
2, 14197, Note_on_c, 0, 67, 0
2, 14197, Note_on_c, 0, 63, 0
2, 14205, Note_on_c, 0, 63, 64
2, 14205, Note_on_c, 0, 67, 64
2, 14250, Note_on_c, 0, 72, 0
2, 14250, Note_on_c, 0, 60, 0
2, 14257, Note_on_c, 0, 63, 0
2, 14257, Note_on_c, 0, 67, 0
2, 14265, Note_on_c, 0, 75, 64
2, 14265, Note_on_c, 0, 63, 64
2, 14265, Note_on_c, 0, 67, 64
2, 14265, Note_on_c, 0, 36, 64
2, 14265, Note_on_c, 0, 48, 64
2, 14317, Note_on_c, 0, 67, 0
2, 14317, Note_on_c, 0, 63, 0
2, 14325, Note_on_c, 0, 63, 64
2, 14325, Note_on_c, 0, 67, 64
2, 14370, Note_on_c, 0, 75, 0
2, 14370, Note_on_c, 0, 48, 0
2, 14370, Note_on_c, 0, 36, 0
2, 14377, Note_on_c, 0, 63, 0
2, 14377, Note_on_c, 0, 67, 0
2, 14385, Note_on_c, 0, 71, 64
2, 14385, Note_on_c, 0, 65, 64
2, 14385, Note_on_c, 0, 67, 64
2, 14437, Note_on_c, 0, 67, 0
2, 14437, Note_on_c, 0, 65, 0
2, 14445, Note_on_c, 0, 65, 64
2, 14445, Note_on_c, 0, 67, 64
2, 14497, Note_on_c, 0, 67, 0
2, 14497, Note_on_c, 0, 65, 0
2, 14505, Note_on_c, 0, 65, 64
2, 14505, Note_on_c, 0, 67, 64
2, 14505, Note_on_c, 0, 31, 64
2, 14505, Note_on_c, 0, 43, 64
2, 14550, Note_on_c, 0, 71, 0
2, 14557, Note_on_c, 0, 65, 0
2, 14557, Note_on_c, 0, 67, 0
2, 14565, Note_on_c, 0, 80, 64
2, 14565, Note_on_c, 0, 65, 64
2, 14565, Note_on_c, 0, 67, 64
2, 14610, Note_on_c, 0, 31, 0
2, 14610, Note_on_c, 0, 43, 0
2, 14617, Note_on_c, 0, 65, 0
2, 14617, Note_on_c, 0, 80, 0
2, 14617, Note_on_c, 0, 67, 0
2, 14625, Note_on_c, 0, 79, 64
2, 14625, Note_on_c, 0, 65, 64
2, 14625, Note_on_c, 0, 67, 64
2, 14677, Note_on_c, 0, 67, 0
2, 14677, Note_on_c, 0, 65, 0
2, 14677, Note_on_c, 0, 79, 0
2, 14685, Note_on_c, 0, 77, 64
2, 14685, Note_on_c, 0, 65, 64
2, 14685, Note_on_c, 0, 67, 64
2, 14685, Note_on_c, 0, 51, 64
2, 14685, Note_on_c, 0, 62, 64
2, 14737, Note_on_c, 0, 62, 0
2, 14737, Note_on_c, 0, 67, 0
2, 14737, Note_on_c, 0, 77, 0
2, 14737, Note_on_c, 0, 65, 0
2, 14737, Note_on_c, 0, 51, 0
2, 14745, Note_on_c, 0, 75, 64
2, 14745, Note_on_c, 0, 65, 64
2, 14745, Note_on_c, 0, 67, 64
2, 14745, Note_on_c, 0, 51, 64
2, 14745, Note_on_c, 0, 60, 64
2, 14797, Note_on_c, 0, 60, 0
2, 14797, Note_on_c, 0, 67, 0
2, 14797, Note_on_c, 0, 75, 0
2, 14797, Note_on_c, 0, 65, 0
2, 14797, Note_on_c, 0, 51, 0
2, 14805, Note_on_c, 0, 74, 64
2, 14805, Note_on_c, 0, 65, 64
2, 14805, Note_on_c, 0, 67, 64
2, 14805, Note_on_c, 0, 51, 64
2, 14805, Note_on_c, 0, 59, 64
2, 14857, Note_on_c, 0, 59, 0
2, 14857, Note_on_c, 0, 67, 0
2, 14857, Note_on_c, 0, 74, 0
2, 14857, Note_on_c, 0, 65, 0
2, 14857, Note_on_c, 0, 51, 0
2, 14865, Note_on_c, 0, 75, 64
2, 14891, Note_on_c, 0, 75, 0
2, 14895, Note_on_c, 0, 77, 64
2, 14921, Note_on_c, 0, 77, 0
2, 14925, Note_on_c, 0, 75, 64
2, 14951, Note_on_c, 0, 75, 0
2, 14955, Note_on_c, 0, 74, 64
2, 14981, Note_on_c, 0, 74, 0
2, 14985, Note_on_c, 0, 72, 64
2, 14985, Note_on_c, 0, 67, 64
2, 14985, Note_on_c, 0, 60, 64
2, 14985, Note_on_c, 0, 63, 64
2, 15037, Note_on_c, 0, 63, 0
2, 15037, Note_on_c, 0, 72, 0
2, 15037, Note_on_c, 0, 67, 0
2, 15037, Note_on_c, 0, 60, 0
2, 15045, Note_on_c, 0, 80, 64
2, 15045, Note_on_c, 0, 67, 64
2, 15045, Note_on_c, 0, 55, 64
2, 15045, Note_on_c, 0, 65, 64
2, 15097, Note_on_c, 0, 65, 0
2, 15097, Note_on_c, 0, 80, 0
2, 15097, Note_on_c, 0, 67, 0
2, 15097, Note_on_c, 0, 55, 0
2, 15105, Note_on_c, 0, 79, 64
2, 15105, Note_on_c, 0, 67, 64
2, 15105, Note_on_c, 0, 55, 64
2, 15105, Note_on_c, 0, 63, 64
2, 15157, Note_on_c, 0, 63, 0
2, 15157, Note_on_c, 0, 79, 0
2, 15157, Note_on_c, 0, 67, 0
2, 15157, Note_on_c, 0, 55, 0
2, 15165, Note_on_c, 0, 77, 64
2, 15165, Note_on_c, 0, 67, 64
2, 15165, Note_on_c, 0, 71, 64
2, 15165, Note_on_c, 0, 55, 64
2, 15165, Note_on_c, 0, 62, 64
2, 15217, Note_on_c, 0, 62, 0
2, 15217, Note_on_c, 0, 71, 0
2, 15217, Note_on_c, 0, 77, 0
2, 15217, Note_on_c, 0, 67, 0
2, 15217, Note_on_c, 0, 55, 0
2, 15225, Note_on_c, 0, 75, 64
2, 15225, Note_on_c, 0, 67, 64
2, 15225, Note_on_c, 0, 72, 64
2, 15225, Note_on_c, 0, 55, 64
2, 15225, Note_on_c, 0, 60, 64
2, 15277, Note_on_c, 0, 60, 0
2, 15277, Note_on_c, 0, 72, 0
2, 15277, Note_on_c, 0, 75, 0
2, 15277, Note_on_c, 0, 67, 0
2, 15277, Note_on_c, 0, 55, 0
2, 15285, Note_on_c, 0, 74, 64
2, 15285, Note_on_c, 0, 67, 64
2, 15285, Note_on_c, 0, 55, 64
2, 15285, Note_on_c, 0, 59, 64
2, 15337, Note_on_c, 0, 59, 0
2, 15337, Note_on_c, 0, 74, 0
2, 15337, Note_on_c, 0, 67, 0
2, 15337, Note_on_c, 0, 55, 0
2, 15345, Note_on_c, 0, 75, 64
2, 15371, Note_on_c, 0, 75, 0
2, 15375, Note_on_c, 0, 77, 64
2, 15401, Note_on_c, 0, 77, 0
2, 15405, Note_on_c, 0, 75, 64
2, 15405, Note_on_c, 0, 67, 64
2, 15405, Note_on_c, 0, 60, 64
2, 15405, Note_on_c, 0, 63, 64
2, 15431, Note_on_c, 0, 75, 0
2, 15435, Note_on_c, 0, 74, 64
2, 15457, Note_on_c, 0, 63, 0
2, 15457, Note_on_c, 0, 60, 0
2, 15461, Note_on_c, 0, 74, 0
2, 15465, Note_on_c, 0, 72, 64
2, 15465, Note_on_c, 0, 60, 64
2, 15465, Note_on_c, 0, 63, 64
2, 15517, Note_on_c, 0, 63, 0
2, 15517, Note_on_c, 0, 67, 0
2, 15517, Note_on_c, 0, 72, 0
2, 15517, Note_on_c, 0, 60, 0
2, 15525, Note_on_c, 0, 92, 64
2, 15525, Note_on_c, 0, 89, 64
2, 15525, Note_on_c, 0, 31, 64
2, 15525, Note_on_c, 0, 43, 64
2, 15551, Note_on_c, 0, 89, 0
2, 15555, Note_on_c, 0, 80, 64
2, 15577, Note_on_c, 0, 92, 0
2, 15577, Note_on_c, 0, 43, 0
2, 15577, Note_on_c, 0, 31, 0
2, 15581, Note_on_c, 0, 80, 0
2, 15585, Note_on_c, 0, 91, 64
2, 15585, Note_on_c, 0, 87, 64
2, 15585, Note_on_c, 0, 31, 64
2, 15585, Note_on_c, 0, 43, 64
2, 15611, Note_on_c, 0, 87, 0
2, 15615, Note_on_c, 0, 79, 64
2, 15637, Note_on_c, 0, 91, 0
2, 15637, Note_on_c, 0, 43, 0
2, 15637, Note_on_c, 0, 31, 0
2, 15641, Note_on_c, 0, 79, 0
2, 15645, Note_on_c, 0, 89, 64
2, 15645, Note_on_c, 0, 86, 64
2, 15645, Note_on_c, 0, 31, 64
2, 15645, Note_on_c, 0, 43, 64
2, 15671, Note_on_c, 0, 86, 0
2, 15675, Note_on_c, 0, 79, 64
2, 15697, Note_on_c, 0, 89, 0
2, 15697, Note_on_c, 0, 43, 0
2, 15697, Note_on_c, 0, 31, 0
2, 15701, Note_on_c, 0, 79, 0
2, 15705, Note_on_c, 0, 87, 64
2, 15705, Note_on_c, 0, 84, 64
2, 15705, Note_on_c, 0, 33, 64
2, 15705, Note_on_c, 0, 45, 64
2, 15731, Note_on_c, 0, 84, 0
2, 15735, Note_on_c, 0, 79, 64
2, 15757, Note_on_c, 0, 87, 0
2, 15757, Note_on_c, 0, 45, 0
2, 15757, Note_on_c, 0, 33, 0
2, 15761, Note_on_c, 0, 79, 0
2, 15765, Note_on_c, 0, 86, 64
2, 15765, Note_on_c, 0, 86, 64
2, 15765, Note_on_c, 0, 35, 64
2, 15765, Note_on_c, 0, 47, 64
2, 15791, Note_on_c, 0, 86, 0
2, 15795, Note_on_c, 0, 77, 64
2, 15795, Note_on_c, 0, 79, 64
2, 15817, Note_on_c, 0, 86, 0
2, 15817, Note_on_c, 0, 47, 0
2, 15817, Note_on_c, 0, 35, 0
2, 15821, Note_on_c, 0, 77, 0
2, 15821, Note_on_c, 0, 79, 0
2, 15825, Note_on_c, 0, 87, 64
2, 15825, Note_on_c, 0, 87, 64
2, 15825, Note_on_c, 0, 36, 64
2, 15825, Note_on_c, 0, 48, 64
2, 15851, Note_on_c, 0, 87, 0
2, 15855, Note_on_c, 0, 79, 64
2, 15877, Note_on_c, 0, 87, 0
2, 15877, Note_on_c, 0, 48, 0
2, 15877, Note_on_c, 0, 36, 0
2, 15881, Note_on_c, 0, 79, 0
2, 15885, Note_on_c, 0, 86, 64
2, 15885, Note_on_c, 0, 86, 64
2, 15885, Note_on_c, 0, 35, 64
2, 15885, Note_on_c, 0, 47, 64
2, 15911, Note_on_c, 0, 86, 0
2, 15915, Note_on_c, 0, 79, 64
2, 15937, Note_on_c, 0, 86, 0
2, 15937, Note_on_c, 0, 47, 0
2, 15937, Note_on_c, 0, 35, 0
2, 15941, Note_on_c, 0, 79, 0
2, 15945, Note_on_c, 0, 84, 64
2, 15945, Note_on_c, 0, 84, 64
2, 15945, Note_on_c, 0, 36, 64
2, 15945, Note_on_c, 0, 48, 64
2, 15971, Note_on_c, 0, 84, 0
2, 15975, Note_on_c, 0, 79, 64
2, 15997, Note_on_c, 0, 84, 0
2, 15997, Note_on_c, 0, 48, 0
2, 15997, Note_on_c, 0, 36, 0
2, 16001, Note_on_c, 0, 79, 0
2, 16005, Note_on_c, 0, 83, 64
2, 16005, Note_on_c, 0, 83, 64
2, 16005, Note_on_c, 0, 38, 64
2, 16005, Note_on_c, 0, 50, 64
2, 16031, Note_on_c, 0, 83, 0
2, 16035, Note_on_c, 0, 79, 64
2, 16057, Note_on_c, 0, 83, 0
2, 16057, Note_on_c, 0, 50, 0
2, 16057, Note_on_c, 0, 38, 0
2, 16061, Note_on_c, 0, 79, 0
2, 16065, Note_on_c, 0, 84, 64
2, 16065, Note_on_c, 0, 79, 64
2, 16065, Note_on_c, 0, 39, 64
2, 16065, Note_on_c, 0, 51, 64
2, 16091, Note_on_c, 0, 79, 0
2, 16095, Note_on_c, 0, 72, 64
2, 16117, Note_on_c, 0, 84, 0
2, 16117, Note_on_c, 0, 51, 0
2, 16117, Note_on_c, 0, 39, 0
2, 16121, Note_on_c, 0, 72, 0
2, 16125, Note_on_c, 0, 82, 64
2, 16125, Note_on_c, 0, 79, 64
2, 16125, Note_on_c, 0, 40, 64
2, 16125, Note_on_c, 0, 52, 64
2, 16151, Note_on_c, 0, 79, 0
2, 16155, Note_on_c, 0, 72, 64
2, 16177, Note_on_c, 0, 82, 0
2, 16177, Note_on_c, 0, 52, 0
2, 16177, Note_on_c, 0, 40, 0
2, 16181, Note_on_c, 0, 72, 0
2, 16185, Note_on_c, 0, 80, 64
2, 16185, Note_on_c, 0, 80, 64
2, 16185, Note_on_c, 0, 41, 64
2, 16185, Note_on_c, 0, 53, 64
2, 16211, Note_on_c, 0, 80, 0
2, 16215, Note_on_c, 0, 72, 64
2, 16237, Note_on_c, 0, 80, 0
2, 16237, Note_on_c, 0, 53, 0
2, 16237, Note_on_c, 0, 41, 0
2, 16241, Note_on_c, 0, 72, 0
2, 16245, Note_on_c, 0, 79, 64
2, 16245, Note_on_c, 0, 79, 64
2, 16245, Note_on_c, 0, 40, 64
2, 16245, Note_on_c, 0, 52, 64
2, 16271, Note_on_c, 0, 79, 0
2, 16275, Note_on_c, 0, 72, 64
2, 16297, Note_on_c, 0, 79, 0
2, 16297, Note_on_c, 0, 52, 0
2, 16297, Note_on_c, 0, 40, 0
2, 16301, Note_on_c, 0, 72, 0
2, 16305, Note_on_c, 0, 80, 64
2, 16305, Note_on_c, 0, 80, 64
2, 16305, Note_on_c, 0, 41, 64
2, 16305, Note_on_c, 0, 53, 64
2, 16331, Note_on_c, 0, 80, 0
2, 16335, Note_on_c, 0, 72, 64
2, 16357, Note_on_c, 0, 80, 0
2, 16357, Note_on_c, 0, 53, 0
2, 16357, Note_on_c, 0, 41, 0
2, 16361, Note_on_c, 0, 72, 0
2, 16365, Note_on_c, 0, 77, 64
2, 16365, Note_on_c, 0, 77, 64
2, 16365, Note_on_c, 0, 56, 64
2, 16365, Note_on_c, 0, 60, 64
2, 16365, Note_on_c, 0, 65, 64
2, 16391, Note_on_c, 0, 77, 0
2, 16395, Note_on_c, 0, 72, 64
2, 16417, Note_on_c, 0, 77, 0
2, 16421, Note_on_c, 0, 72, 0
2, 16425, Note_on_c, 0, 75, 64
2, 16425, Note_on_c, 0, 75, 64
2, 16451, Note_on_c, 0, 75, 0
2, 16455, Note_on_c, 0, 72, 64
2, 16470, Note_on_c, 0, 65, 0
2, 16470, Note_on_c, 0, 60, 0
2, 16470, Note_on_c, 0, 56, 0
2, 16477, Note_on_c, 0, 75, 0
2, 16481, Note_on_c, 0, 72, 0
2, 16485, Note_on_c, 0, 74, 64
2, 16485, Note_on_c, 0, 74, 64
2, 16485, Note_on_c, 0, 56, 64
2, 16485, Note_on_c, 0, 60, 64
2, 16485, Note_on_c, 0, 65, 64
2, 16511, Note_on_c, 0, 74, 0
2, 16515, Note_on_c, 0, 72, 64
2, 16537, Note_on_c, 0, 60, 0
2, 16537, Note_on_c, 0, 65, 0
2, 16537, Note_on_c, 0, 74, 0
2, 16537, Note_on_c, 0, 56, 0
2, 16541, Note_on_c, 0, 72, 0
2, 16545, Note_on_c, 0, 74, 64
2, 16545, Note_on_c, 0, 65, 64
2, 16545, Note_on_c, 0, 60, 64
2, 16545, Note_on_c, 0, 56, 64
2, 16545, Note_on_c, 0, 60, 64
2, 16597, Note_on_c, 0, 74, 0
2, 16605, Note_on_c, 0, 72, 64
2, 16650, Note_on_c, 0, 56, 0
2, 16650, Note_on_c, 0, 60, 0
2, 16650, Note_on_c, 0, 65, 0
2, 16650, Note_on_c, 0, 60, 0
2, 16657, Note_on_c, 0, 72, 0
2, 16665, Note_on_c, 0, 72, 64
2, 16665, Note_on_c, 0, 66, 64
2, 16665, Note_on_c, 0, 63, 64
2, 16665, Note_on_c, 0, 56, 64
2, 16785, Note_on_c, 0, 56, 0
2, 16785, Note_on_c, 0, 66, 0
2, 16785, Note_on_c, 0, 67, 64
2, 16785, Note_on_c, 0, 55, 64
2, 16890, Note_on_c, 0, 55, 0
2, 16890, Note_on_c, 0, 72, 0
2, 16890, Note_on_c, 0, 63, 0
2, 16890, Note_on_c, 0, 67, 0
2, 16905, Note_on_c, 0, 72, 64
2, 16905, Note_on_c, 0, 68, 64
2, 16905, Note_on_c, 0, 63, 64
2, 16905, Note_on_c, 0, 54, 64
2, 17010, Note_on_c, 0, 54, 0
2, 17010, Note_on_c, 0, 72, 0
2, 17010, Note_on_c, 0, 68, 0
2, 17010, Note_on_c, 0, 63, 0
2, 17025, Note_on_c, 0, 67, 64
2, 17025, Note_on_c, 0, 74, 64
2, 17025, Note_on_c, 0, 55, 64
2, 17025, Note_on_c, 0, 63, 64
2, 17051, Note_on_c, 0, 74, 0
2, 17055, Note_on_c, 0, 72, 64
2, 17081, Note_on_c, 0, 72, 0
2, 17085, Note_on_c, 0, 74, 64
2, 17111, Note_on_c, 0, 74, 0
2, 17115, Note_on_c, 0, 72, 64
2, 17130, Note_on_c, 0, 67, 0
2, 17130, Note_on_c, 0, 63, 0
2, 17130, Note_on_c, 0, 55, 0
2, 17141, Note_on_c, 0, 72, 0
2, 17145, Note_on_c, 0, 67, 64
2, 17145, Note_on_c, 0, 75, 64
2, 17145, Note_on_c, 0, 55, 64
2, 17145, Note_on_c, 0, 59, 64
2, 17145, Note_on_c, 0, 65, 64
2, 17197, Note_on_c, 0, 75, 0
2, 17205, Note_on_c, 0, 74, 64
2, 17250, Note_on_c, 0, 59, 0
2, 17250, Note_on_c, 0, 65, 0
2, 17250, Note_on_c, 0, 67, 0
2, 17257, Note_on_c, 0, 74, 0
2, 17265, Note_on_c, 0, 60, 64
2, 17265, Note_on_c, 0, 72, 64
2, 17291, Note_on_c, 0, 55, 0
2, 17295, Note_on_c, 0, 53, 64
2, 17321, Note_on_c, 0, 53, 0
2, 17325, Note_on_c, 0, 51, 64
2, 17351, Note_on_c, 0, 51, 0
2, 17355, Note_on_c, 0, 50, 64
2, 17370, Note_on_c, 0, 72, 0
2, 17370, Note_on_c, 0, 60, 0
2, 17381, Note_on_c, 0, 50, 0
2, 17385, Note_on_c, 0, 63, 64
2, 17385, Note_on_c, 0, 48, 64
2, 17411, Note_on_c, 0, 48, 0
2, 17415, Note_on_c, 0, 50, 64
2, 17441, Note_on_c, 0, 50, 0
2, 17445, Note_on_c, 0, 51, 64
2, 17471, Note_on_c, 0, 51, 0
2, 17475, Note_on_c, 0, 48, 64
2, 17490, Note_on_c, 0, 63, 0
2, 17501, Note_on_c, 0, 48, 0
2, 17505, Note_on_c, 0, 59, 64
2, 17505, Note_on_c, 0, 50, 64
2, 17531, Note_on_c, 0, 50, 0
2, 17535, Note_on_c, 0, 48, 64
2, 17561, Note_on_c, 0, 48, 0
2, 17565, Note_on_c, 0, 47, 64
2, 17591, Note_on_c, 0, 47, 0
2, 17595, Note_on_c, 0, 45, 64
2, 17621, Note_on_c, 0, 45, 0
2, 17625, Note_on_c, 0, 43, 64
2, 17651, Note_on_c, 0, 43, 0
2, 17651, Note_on_c, 0, 59, 0
2, 17655, Note_on_c, 0, 62, 64
2, 17655, Note_on_c, 0, 47, 64
2, 17681, Note_on_c, 0, 47, 0
2, 17681, Note_on_c, 0, 62, 0
2, 17685, Note_on_c, 0, 65, 64
2, 17685, Note_on_c, 0, 50, 64
2, 17711, Note_on_c, 0, 50, 0
2, 17711, Note_on_c, 0, 65, 0
2, 17715, Note_on_c, 0, 68, 64
2, 17715, Note_on_c, 0, 53, 64
2, 17741, Note_on_c, 0, 53, 0
2, 17741, Note_on_c, 0, 68, 0
2, 17745, Note_on_c, 0, 67, 64
2, 17745, Note_on_c, 0, 51, 64
2, 17771, Note_on_c, 0, 67, 0
2, 17775, Note_on_c, 0, 68, 64
2, 17797, Note_on_c, 0, 51, 0
2, 17801, Note_on_c, 0, 68, 0
2, 17805, Note_on_c, 0, 67, 64
2, 17805, Note_on_c, 0, 31, 64
2, 17805, Note_on_c, 0, 43, 64
2, 17831, Note_on_c, 0, 67, 0
2, 17835, Note_on_c, 0, 65, 64
2, 17857, Note_on_c, 0, 43, 0
2, 17857, Note_on_c, 0, 31, 0
2, 17861, Note_on_c, 0, 65, 0
2, 17865, Note_on_c, 0, 63, 64
2, 17865, Note_on_c, 0, 36, 64
2, 17865, Note_on_c, 0, 48, 64
2, 17891, Note_on_c, 0, 63, 0
2, 17895, Note_on_c, 0, 65, 64
2, 17917, Note_on_c, 0, 48, 0
2, 17917, Note_on_c, 0, 36, 0
2, 17921, Note_on_c, 0, 65, 0
2, 17925, Note_on_c, 0, 63, 64
2, 17925, Note_on_c, 0, 34, 64
2, 17925, Note_on_c, 0, 47, 64
2, 17951, Note_on_c, 0, 63, 0
2, 17955, Note_on_c, 0, 62, 64
2, 17977, Note_on_c, 0, 47, 0
2, 17977, Note_on_c, 0, 34, 0
2, 17981, Note_on_c, 0, 62, 0
2, 17985, Note_on_c, 0, 63, 64
2, 17985, Note_on_c, 0, 36, 64
2, 17985, Note_on_c, 0, 48, 64
2, 18011, Note_on_c, 0, 63, 0
2, 18015, Note_on_c, 0, 65, 64
2, 18037, Note_on_c, 0, 48, 0
2, 18037, Note_on_c, 0, 36, 0
2, 18041, Note_on_c, 0, 65, 0
2, 18045, Note_on_c, 0, 63, 64
2, 18045, Note_on_c, 0, 41, 64
2, 18045, Note_on_c, 0, 53, 64
2, 18071, Note_on_c, 0, 63, 0
2, 18075, Note_on_c, 0, 62, 64
2, 18097, Note_on_c, 0, 53, 0
2, 18097, Note_on_c, 0, 41, 0
2, 18101, Note_on_c, 0, 62, 0
2, 18105, Note_on_c, 0, 60, 64
2, 18105, Note_on_c, 0, 39, 64
2, 18105, Note_on_c, 0, 51, 64
2, 18131, Note_on_c, 0, 60, 0
2, 18135, Note_on_c, 0, 63, 64
2, 18157, Note_on_c, 0, 51, 0
2, 18157, Note_on_c, 0, 39, 0
2, 18161, Note_on_c, 0, 63, 0
2, 18165, Note_on_c, 0, 67, 64
2, 18165, Note_on_c, 0, 36, 64
2, 18165, Note_on_c, 0, 48, 64
2, 18191, Note_on_c, 0, 67, 0
2, 18195, Note_on_c, 0, 70, 64
2, 18217, Note_on_c, 0, 48, 0
2, 18217, Note_on_c, 0, 36, 0
2, 18221, Note_on_c, 0, 70, 0
2, 18225, Note_on_c, 0, 68, 64
2, 18251, Note_on_c, 0, 68, 0
2, 18255, Note_on_c, 0, 70, 64
2, 18281, Note_on_c, 0, 70, 0
2, 18285, Note_on_c, 0, 68, 64
2, 18285, Note_on_c, 0, 36, 64
2, 18285, Note_on_c, 0, 48, 64
2, 18311, Note_on_c, 0, 68, 0
2, 18315, Note_on_c, 0, 67, 64
2, 18337, Note_on_c, 0, 48, 0
2, 18337, Note_on_c, 0, 36, 0
2, 18341, Note_on_c, 0, 67, 0
2, 18345, Note_on_c, 0, 65, 64
2, 18345, Note_on_c, 0, 38, 64
2, 18345, Note_on_c, 0, 50, 64
2, 18371, Note_on_c, 0, 65, 0
2, 18375, Note_on_c, 0, 67, 64
2, 18397, Note_on_c, 0, 50, 0
2, 18397, Note_on_c, 0, 38, 0
2, 18401, Note_on_c, 0, 67, 0
2, 18405, Note_on_c, 0, 65, 64
2, 18405, Note_on_c, 0, 36, 64
2, 18405, Note_on_c, 0, 48, 64
2, 18431, Note_on_c, 0, 65, 0
2, 18435, Note_on_c, 0, 63, 64
2, 18457, Note_on_c, 0, 48, 0
2, 18457, Note_on_c, 0, 36, 0
2, 18461, Note_on_c, 0, 63, 0
2, 18465, Note_on_c, 0, 65, 64
2, 18465, Note_on_c, 0, 38, 64
2, 18465, Note_on_c, 0, 50, 64
2, 18491, Note_on_c, 0, 65, 0
2, 18495, Note_on_c, 0, 67, 64
2, 18517, Note_on_c, 0, 50, 0
2, 18517, Note_on_c, 0, 38, 0
2, 18521, Note_on_c, 0, 67, 0
2, 18525, Note_on_c, 0, 65, 64
2, 18525, Note_on_c, 0, 43, 64
2, 18525, Note_on_c, 0, 55, 64
2, 18551, Note_on_c, 0, 65, 0
2, 18555, Note_on_c, 0, 63, 64
2, 18577, Note_on_c, 0, 55, 0
2, 18577, Note_on_c, 0, 43, 0
2, 18581, Note_on_c, 0, 63, 0
2, 18585, Note_on_c, 0, 62, 64
2, 18585, Note_on_c, 0, 41, 64
2, 18585, Note_on_c, 0, 53, 64
2, 18611, Note_on_c, 0, 62, 0
2, 18615, Note_on_c, 0, 65, 64
2, 18637, Note_on_c, 0, 53, 0
2, 18637, Note_on_c, 0, 41, 0
2, 18641, Note_on_c, 0, 65, 0
2, 18645, Note_on_c, 0, 68, 64
2, 18645, Note_on_c, 0, 39, 64
2, 18645, Note_on_c, 0, 51, 64
2, 18671, Note_on_c, 0, 68, 0
2, 18675, Note_on_c, 0, 72, 64
2, 18697, Note_on_c, 0, 51, 0
2, 18697, Note_on_c, 0, 39, 0
2, 18701, Note_on_c, 0, 72, 0
2, 18705, Note_on_c, 0, 70, 64
2, 18705, Note_on_c, 0, 38, 64
2, 18705, Note_on_c, 0, 50, 64
2, 18731, Note_on_c, 0, 70, 0
2, 18735, Note_on_c, 0, 72, 64
2, 18757, Note_on_c, 0, 50, 0
2, 18757, Note_on_c, 0, 38, 0
2, 18761, Note_on_c, 0, 72, 0
2, 18765, Note_on_c, 0, 70, 64
2, 18765, Note_on_c, 0, 34, 64
2, 18765, Note_on_c, 0, 46, 64
2, 18791, Note_on_c, 0, 70, 0
2, 18795, Note_on_c, 0, 68, 64
2, 18817, Note_on_c, 0, 46, 0
2, 18817, Note_on_c, 0, 34, 0
2, 18821, Note_on_c, 0, 68, 0
2, 18825, Note_on_c, 0, 67, 64
2, 18825, Note_on_c, 0, 36, 64
2, 18825, Note_on_c, 0, 48, 64
2, 18851, Note_on_c, 0, 67, 0
2, 18855, Note_on_c, 0, 68, 64
2, 18877, Note_on_c, 0, 48, 0
2, 18877, Note_on_c, 0, 36, 0
2, 18881, Note_on_c, 0, 68, 0
2, 18885, Note_on_c, 0, 67, 64
2, 18885, Note_on_c, 0, 38, 64
2, 18885, Note_on_c, 0, 50, 64
2, 18911, Note_on_c, 0, 67, 0
2, 18915, Note_on_c, 0, 65, 64
2, 18937, Note_on_c, 0, 50, 0
2, 18937, Note_on_c, 0, 38, 0
2, 18941, Note_on_c, 0, 65, 0
2, 18945, Note_on_c, 0, 67, 64
2, 18945, Note_on_c, 0, 39, 64
2, 18945, Note_on_c, 0, 51, 64
2, 18971, Note_on_c, 0, 67, 0
2, 18975, Note_on_c, 0, 70, 64
2, 19001, Note_on_c, 0, 70, 0
2, 19005, Note_on_c, 0, 68, 64
2, 19031, Note_on_c, 0, 68, 0
2, 19035, Note_on_c, 0, 67, 64
2, 19050, Note_on_c, 0, 51, 0
2, 19050, Note_on_c, 0, 39, 0
2, 19061, Note_on_c, 0, 67, 0
2, 19065, Note_on_c, 0, 65, 64
2, 19065, Note_on_c, 0, 41, 64
2, 19065, Note_on_c, 0, 55, 64
2, 19091, Note_on_c, 0, 65, 0
2, 19095, Note_on_c, 0, 63, 64
2, 19121, Note_on_c, 0, 63, 0
2, 19125, Note_on_c, 0, 62, 64
2, 19151, Note_on_c, 0, 62, 0
2, 19155, Note_on_c, 0, 63, 64
2, 19170, Note_on_c, 0, 55, 0
2, 19170, Note_on_c, 0, 41, 0
2, 19181, Note_on_c, 0, 63, 0
2, 19185, Note_on_c, 0, 65, 64
2, 19185, Note_on_c, 0, 38, 64
2, 19185, Note_on_c, 0, 50, 64
2, 19211, Note_on_c, 0, 65, 0
2, 19215, Note_on_c, 0, 59, 64
2, 19237, Note_on_c, 0, 50, 0
2, 19237, Note_on_c, 0, 38, 0
2, 19241, Note_on_c, 0, 59, 0
2, 19245, Note_on_c, 0, 58, 64
2, 19245, Note_on_c, 0, 38, 64
2, 19271, Note_on_c, 0, 58, 0
2, 19275, Note_on_c, 0, 59, 64
2, 19301, Note_on_c, 0, 59, 0
2, 19305, Note_on_c, 0, 58, 64
2, 19331, Note_on_c, 0, 58, 0
2, 19331, Note_on_c, 0, 38, 0
2, 19335, Note_on_c, 0, 62, 64
2, 19335, Note_on_c, 0, 41, 64
2, 19361, Note_on_c, 0, 41, 0
2, 19361, Note_on_c, 0, 62, 0
2, 19365, Note_on_c, 0, 65, 64
2, 19365, Note_on_c, 0, 44, 64
2, 19391, Note_on_c, 0, 44, 0
2, 19391, Note_on_c, 0, 65, 0
2, 19395, Note_on_c, 0, 68, 64
2, 19395, Note_on_c, 0, 48, 64
2, 19421, Note_on_c, 0, 48, 0
2, 19421, Note_on_c, 0, 68, 0
2, 19425, Note_on_c, 0, 55, 64
2, 19425, Note_on_c, 0, 67, 64
2, 19425, Note_on_c, 0, 46, 64
2, 19451, Note_on_c, 0, 46, 0
2, 19455, Note_on_c, 0, 48, 64
2, 19477, Note_on_c, 0, 67, 0
2, 19477, Note_on_c, 0, 55, 0
2, 19481, Note_on_c, 0, 48, 0
2, 19485, Note_on_c, 0, 53, 64
2, 19485, Note_on_c, 0, 65, 64
2, 19485, Note_on_c, 0, 46, 64
2, 19511, Note_on_c, 0, 46, 0
2, 19515, Note_on_c, 0, 44, 64
2, 19537, Note_on_c, 0, 65, 0
2, 19537, Note_on_c, 0, 53, 0
2, 19541, Note_on_c, 0, 44, 0
2, 19545, Note_on_c, 0, 58, 64
2, 19545, Note_on_c, 0, 70, 64
2, 19545, Note_on_c, 0, 43, 64
2, 19571, Note_on_c, 0, 43, 0
2, 19575, Note_on_c, 0, 44, 64
2, 19597, Note_on_c, 0, 70, 0
2, 19597, Note_on_c, 0, 58, 0
2, 19601, Note_on_c, 0, 44, 0
2, 19605, Note_on_c, 0, 56, 64
2, 19605, Note_on_c, 0, 68, 64
2, 19605, Note_on_c, 0, 43, 64
2, 19631, Note_on_c, 0, 43, 0
2, 19635, Note_on_c, 0, 41, 64
2, 19657, Note_on_c, 0, 68, 0
2, 19657, Note_on_c, 0, 56, 0
2, 19661, Note_on_c, 0, 41, 0
2, 19665, Note_on_c, 0, 58, 64
2, 19665, Note_on_c, 0, 70, 64
2, 19665, Note_on_c, 0, 43, 64
2, 19691, Note_on_c, 0, 43, 0
2, 19695, Note_on_c, 0, 44, 64
2, 19717, Note_on_c, 0, 70, 0
2, 19717, Note_on_c, 0, 58, 0
2, 19721, Note_on_c, 0, 44, 0
2, 19725, Note_on_c, 0, 61, 64
2, 19725, Note_on_c, 0, 73, 64
2, 19725, Note_on_c, 0, 43, 64
2, 19751, Note_on_c, 0, 43, 0
2, 19755, Note_on_c, 0, 41, 64
2, 19777, Note_on_c, 0, 73, 0
2, 19777, Note_on_c, 0, 61, 0
2, 19781, Note_on_c, 0, 41, 0
2, 19785, Note_on_c, 0, 60, 64
2, 19785, Note_on_c, 0, 72, 64
2, 19785, Note_on_c, 0, 40, 64
2, 19811, Note_on_c, 0, 40, 0
2, 19815, Note_on_c, 0, 43, 64
2, 19837, Note_on_c, 0, 72, 0
2, 19837, Note_on_c, 0, 60, 0
2, 19841, Note_on_c, 0, 43, 0
2, 19845, Note_on_c, 0, 55, 64
2, 19845, Note_on_c, 0, 67, 64
2, 19845, Note_on_c, 0, 46, 64
2, 19871, Note_on_c, 0, 46, 0
2, 19875, Note_on_c, 0, 49, 64
2, 19897, Note_on_c, 0, 67, 0
2, 19897, Note_on_c, 0, 55, 0
2, 19901, Note_on_c, 0, 49, 0
2, 19905, Note_on_c, 0, 48, 64
2, 19931, Note_on_c, 0, 48, 0
2, 19935, Note_on_c, 0, 49, 64
2, 19961, Note_on_c, 0, 49, 0
2, 19965, Note_on_c, 0, 55, 64
2, 19965, Note_on_c, 0, 67, 64
2, 19965, Note_on_c, 0, 48, 64
2, 19991, Note_on_c, 0, 48, 0
2, 19995, Note_on_c, 0, 46, 64
2, 20017, Note_on_c, 0, 67, 0
2, 20017, Note_on_c, 0, 55, 0
2, 20021, Note_on_c, 0, 46, 0
2, 20025, Note_on_c, 0, 60, 64
2, 20025, Note_on_c, 0, 72, 64
2, 20025, Note_on_c, 0, 44, 64
2, 20051, Note_on_c, 0, 44, 0
2, 20055, Note_on_c, 0, 46, 64
2, 20077, Note_on_c, 0, 72, 0
2, 20077, Note_on_c, 0, 60, 0
2, 20081, Note_on_c, 0, 46, 0
2, 20085, Note_on_c, 0, 58, 64
2, 20085, Note_on_c, 0, 70, 64
2, 20085, Note_on_c, 0, 44, 64
2, 20111, Note_on_c, 0, 44, 0
2, 20115, Note_on_c, 0, 43, 64
2, 20137, Note_on_c, 0, 70, 0
2, 20137, Note_on_c, 0, 58, 0
2, 20141, Note_on_c, 0, 43, 0
2, 20145, Note_on_c, 0, 60, 64
2, 20145, Note_on_c, 0, 72, 64
2, 20145, Note_on_c, 0, 44, 64
2, 20171, Note_on_c, 0, 44, 0
2, 20175, Note_on_c, 0, 46, 64
2, 20197, Note_on_c, 0, 72, 0
2, 20197, Note_on_c, 0, 60, 0
2, 20201, Note_on_c, 0, 46, 0
2, 20205, Note_on_c, 0, 63, 64
2, 20205, Note_on_c, 0, 75, 64
2, 20205, Note_on_c, 0, 44, 64
2, 20231, Note_on_c, 0, 44, 0
2, 20235, Note_on_c, 0, 42, 64
2, 20257, Note_on_c, 0, 75, 0
2, 20257, Note_on_c, 0, 63, 0
2, 20261, Note_on_c, 0, 42, 0
2, 20265, Note_on_c, 0, 63, 64
2, 20265, Note_on_c, 0, 75, 64
2, 20265, Note_on_c, 0, 41, 64
2, 20291, Note_on_c, 0, 41, 0
2, 20295, Note_on_c, 0, 45, 64
2, 20317, Note_on_c, 0, 75, 0
2, 20317, Note_on_c, 0, 63, 0
2, 20321, Note_on_c, 0, 45, 0
2, 20325, Note_on_c, 0, 57, 64
2, 20325, Note_on_c, 0, 69, 64
2, 20325, Note_on_c, 0, 48, 64
2, 20351, Note_on_c, 0, 48, 0
2, 20355, Note_on_c, 0, 51, 64
2, 20377, Note_on_c, 0, 69, 0
2, 20377, Note_on_c, 0, 57, 0
2, 20381, Note_on_c, 0, 51, 0
2, 20385, Note_on_c, 0, 49, 64
2, 20411, Note_on_c, 0, 49, 0
2, 20415, Note_on_c, 0, 51, 64
2, 20441, Note_on_c, 0, 51, 0
2, 20445, Note_on_c, 0, 58, 64
2, 20445, Note_on_c, 0, 70, 64
2, 20445, Note_on_c, 0, 49, 64
2, 20471, Note_on_c, 0, 49, 0
2, 20475, Note_on_c, 0, 48, 64
2, 20497, Note_on_c, 0, 70, 0
2, 20497, Note_on_c, 0, 58, 0
2, 20501, Note_on_c, 0, 48, 0
2, 20505, Note_on_c, 0, 62, 64
2, 20505, Note_on_c, 0, 74, 64
2, 20505, Note_on_c, 0, 46, 64
2, 20531, Note_on_c, 0, 46, 0
2, 20535, Note_on_c, 0, 48, 64
2, 20557, Note_on_c, 0, 74, 0
2, 20557, Note_on_c, 0, 62, 0
2, 20561, Note_on_c, 0, 48, 0
2, 20565, Note_on_c, 0, 60, 64
2, 20565, Note_on_c, 0, 72, 64
2, 20565, Note_on_c, 0, 46, 64
2, 20591, Note_on_c, 0, 46, 0
2, 20595, Note_on_c, 0, 45, 64
2, 20617, Note_on_c, 0, 72, 0
2, 20617, Note_on_c, 0, 60, 0
2, 20621, Note_on_c, 0, 45, 0
2, 20625, Note_on_c, 0, 61, 64
2, 20625, Note_on_c, 0, 73, 64
2, 20625, Note_on_c, 0, 46, 64
2, 20651, Note_on_c, 0, 46, 0
2, 20655, Note_on_c, 0, 48, 64
2, 20677, Note_on_c, 0, 73, 0
2, 20677, Note_on_c, 0, 61, 0
2, 20681, Note_on_c, 0, 48, 0
2, 20685, Note_on_c, 0, 65, 64
2, 20685, Note_on_c, 0, 77, 64
2, 20685, Note_on_c, 0, 46, 64
2, 20711, Note_on_c, 0, 46, 0
2, 20715, Note_on_c, 0, 44, 64
2, 20737, Note_on_c, 0, 77, 0
2, 20737, Note_on_c, 0, 65, 0
2, 20741, Note_on_c, 0, 44, 0
2, 20745, Note_on_c, 0, 63, 64
2, 20745, Note_on_c, 0, 75, 64
2, 20745, Note_on_c, 0, 43, 64
2, 20771, Note_on_c, 0, 43, 0
2, 20775, Note_on_c, 0, 46, 64
2, 20797, Note_on_c, 0, 75, 0
2, 20797, Note_on_c, 0, 63, 0
2, 20801, Note_on_c, 0, 46, 0
2, 20805, Note_on_c, 0, 70, 64
2, 20805, Note_on_c, 0, 49, 64
2, 20831, Note_on_c, 0, 49, 0
2, 20831, Note_on_c, 0, 70, 0
2, 20835, Note_on_c, 0, 68, 64
2, 20835, Note_on_c, 0, 53, 64
2, 20861, Note_on_c, 0, 53, 0
2, 20861, Note_on_c, 0, 68, 0
2, 20865, Note_on_c, 0, 67, 64
2, 20865, Note_on_c, 0, 51, 64
2, 20891, Note_on_c, 0, 51, 0
2, 20891, Note_on_c, 0, 67, 0
2, 20895, Note_on_c, 0, 63, 64
2, 20895, Note_on_c, 0, 53, 64
2, 20921, Note_on_c, 0, 53, 0
2, 20921, Note_on_c, 0, 63, 0
2, 20925, Note_on_c, 0, 65, 64
2, 20925, Note_on_c, 0, 51, 64
2, 20951, Note_on_c, 0, 51, 0
2, 20951, Note_on_c, 0, 65, 0
2, 20955, Note_on_c, 0, 67, 64
2, 20955, Note_on_c, 0, 49, 64
2, 20981, Note_on_c, 0, 49, 0
2, 20981, Note_on_c, 0, 67, 0
2, 20985, Note_on_c, 0, 68, 64
2, 20985, Note_on_c, 0, 48, 64
2, 21011, Note_on_c, 0, 48, 0
2, 21011, Note_on_c, 0, 68, 0
2, 21015, Note_on_c, 0, 67, 64
2, 21015, Note_on_c, 0, 49, 64
2, 21041, Note_on_c, 0, 49, 0
2, 21041, Note_on_c, 0, 67, 0
2, 21045, Note_on_c, 0, 68, 64
2, 21045, Note_on_c, 0, 48, 64
2, 21071, Note_on_c, 0, 48, 0
2, 21071, Note_on_c, 0, 68, 0
2, 21075, Note_on_c, 0, 70, 64
2, 21075, Note_on_c, 0, 46, 64
2, 21101, Note_on_c, 0, 46, 0
2, 21101, Note_on_c, 0, 70, 0
2, 21105, Note_on_c, 0, 72, 64
2, 21105, Note_on_c, 0, 80, 64
2, 21105, Note_on_c, 0, 44, 64
2, 21131, Note_on_c, 0, 72, 0
2, 21135, Note_on_c, 0, 73, 64
2, 21161, Note_on_c, 0, 73, 0
2, 21165, Note_on_c, 0, 72, 64
2, 21191, Note_on_c, 0, 72, 0
2, 21195, Note_on_c, 0, 70, 64
2, 21210, Note_on_c, 0, 44, 0
2, 21210, Note_on_c, 0, 80, 0
2, 21221, Note_on_c, 0, 70, 0
2, 21225, Note_on_c, 0, 84, 64
2, 21225, Note_on_c, 0, 68, 64
2, 21251, Note_on_c, 0, 68, 0
2, 21255, Note_on_c, 0, 72, 64
2, 21281, Note_on_c, 0, 72, 0
2, 21285, Note_on_c, 0, 70, 64
2, 21311, Note_on_c, 0, 70, 0
2, 21315, Note_on_c, 0, 68, 64
2, 21330, Note_on_c, 0, 84, 0
2, 21341, Note_on_c, 0, 68, 0
2, 21345, Note_on_c, 0, 79, 64
2, 21345, Note_on_c, 0, 70, 64
2, 21371, Note_on_c, 0, 70, 0
2, 21375, Note_on_c, 0, 68, 64
2, 21401, Note_on_c, 0, 68, 0
2, 21405, Note_on_c, 0, 67, 64
2, 21431, Note_on_c, 0, 67, 0
2, 21435, Note_on_c, 0, 65, 64
2, 21461, Note_on_c, 0, 65, 0
2, 21465, Note_on_c, 0, 63, 64
2, 21491, Note_on_c, 0, 63, 0
2, 21491, Note_on_c, 0, 79, 0
2, 21495, Note_on_c, 0, 82, 64
2, 21495, Note_on_c, 0, 67, 64
2, 21521, Note_on_c, 0, 67, 0
2, 21521, Note_on_c, 0, 82, 0
2, 21525, Note_on_c, 0, 85, 64
2, 21525, Note_on_c, 0, 70, 64
2, 21551, Note_on_c, 0, 70, 0
2, 21551, Note_on_c, 0, 85, 0
2, 21555, Note_on_c, 0, 89, 64
2, 21555, Note_on_c, 0, 73, 64
2, 21581, Note_on_c, 0, 73, 0
2, 21581, Note_on_c, 0, 89, 0
2, 21585, Note_on_c, 0, 87, 64
2, 21585, Note_on_c, 0, 72, 64
2, 21611, Note_on_c, 0, 87, 0
2, 21615, Note_on_c, 0, 89, 64
2, 21637, Note_on_c, 0, 72, 0
2, 21641, Note_on_c, 0, 89, 0
2, 21645, Note_on_c, 0, 87, 64
2, 21645, Note_on_c, 0, 55, 64
2, 21645, Note_on_c, 0, 67, 64
2, 21671, Note_on_c, 0, 87, 0
2, 21675, Note_on_c, 0, 85, 64
2, 21697, Note_on_c, 0, 67, 0
2, 21697, Note_on_c, 0, 55, 0
2, 21701, Note_on_c, 0, 85, 0
2, 21705, Note_on_c, 0, 84, 64
2, 21705, Note_on_c, 0, 56, 64
2, 21705, Note_on_c, 0, 68, 64
2, 21731, Note_on_c, 0, 84, 0
2, 21735, Note_on_c, 0, 85, 64
2, 21757, Note_on_c, 0, 68, 0
2, 21757, Note_on_c, 0, 56, 0
2, 21761, Note_on_c, 0, 85, 0
2, 21765, Note_on_c, 0, 84, 64
2, 21765, Note_on_c, 0, 55, 64
2, 21765, Note_on_c, 0, 67, 64
2, 21791, Note_on_c, 0, 84, 0
2, 21795, Note_on_c, 0, 82, 64
2, 21817, Note_on_c, 0, 67, 0
2, 21817, Note_on_c, 0, 55, 0
2, 21821, Note_on_c, 0, 82, 0
2, 21825, Note_on_c, 0, 84, 64
2, 21825, Note_on_c, 0, 56, 64
2, 21825, Note_on_c, 0, 68, 64
2, 21851, Note_on_c, 0, 84, 0
2, 21855, Note_on_c, 0, 85, 64
2, 21877, Note_on_c, 0, 68, 0
2, 21877, Note_on_c, 0, 56, 0
2, 21881, Note_on_c, 0, 85, 0
2, 21885, Note_on_c, 0, 84, 64
2, 21885, Note_on_c, 0, 61, 64
2, 21885, Note_on_c, 0, 73, 64
2, 21911, Note_on_c, 0, 84, 0
2, 21915, Note_on_c, 0, 82, 64
2, 21937, Note_on_c, 0, 73, 0
2, 21937, Note_on_c, 0, 61, 0
2, 21941, Note_on_c, 0, 82, 0
2, 21945, Note_on_c, 0, 81, 64
2, 21945, Note_on_c, 0, 60, 64
2, 21945, Note_on_c, 0, 72, 64
2, 21971, Note_on_c, 0, 81, 0
2, 21975, Note_on_c, 0, 84, 64
2, 21997, Note_on_c, 0, 72, 0
2, 21997, Note_on_c, 0, 60, 0
2, 22001, Note_on_c, 0, 84, 0
2, 22005, Note_on_c, 0, 87, 64
2, 22005, Note_on_c, 0, 57, 64
2, 22005, Note_on_c, 0, 69, 64
2, 22031, Note_on_c, 0, 87, 0
2, 22035, Note_on_c, 0, 90, 64
2, 22057, Note_on_c, 0, 69, 0
2, 22057, Note_on_c, 0, 57, 0
2, 22061, Note_on_c, 0, 90, 0
2, 22065, Note_on_c, 0, 89, 64
2, 22091, Note_on_c, 0, 89, 0
2, 22095, Note_on_c, 0, 90, 64
2, 22121, Note_on_c, 0, 90, 0
2, 22125, Note_on_c, 0, 89, 64
2, 22125, Note_on_c, 0, 57, 64
2, 22125, Note_on_c, 0, 69, 64
2, 22151, Note_on_c, 0, 89, 0
2, 22155, Note_on_c, 0, 87, 64
2, 22177, Note_on_c, 0, 69, 0
2, 22177, Note_on_c, 0, 57, 0
2, 22181, Note_on_c, 0, 87, 0
2, 22185, Note_on_c, 0, 85, 64
2, 22185, Note_on_c, 0, 58, 64
2, 22185, Note_on_c, 0, 70, 64
2, 22211, Note_on_c, 0, 85, 0
2, 22215, Note_on_c, 0, 87, 64
2, 22237, Note_on_c, 0, 70, 0
2, 22237, Note_on_c, 0, 58, 0
2, 22241, Note_on_c, 0, 87, 0
2, 22245, Note_on_c, 0, 85, 64
2, 22245, Note_on_c, 0, 57, 64
2, 22245, Note_on_c, 0, 69, 64
2, 22271, Note_on_c, 0, 85, 0
2, 22275, Note_on_c, 0, 84, 64
2, 22297, Note_on_c, 0, 69, 0
2, 22297, Note_on_c, 0, 57, 0
2, 22301, Note_on_c, 0, 84, 0
2, 22305, Note_on_c, 0, 85, 64
2, 22305, Note_on_c, 0, 58, 64
2, 22305, Note_on_c, 0, 70, 64
2, 22331, Note_on_c, 0, 85, 0
2, 22335, Note_on_c, 0, 87, 64
2, 22357, Note_on_c, 0, 70, 0
2, 22357, Note_on_c, 0, 58, 0
2, 22361, Note_on_c, 0, 87, 0
2, 22365, Note_on_c, 0, 85, 64
2, 22365, Note_on_c, 0, 63, 64
2, 22365, Note_on_c, 0, 75, 64
2, 22391, Note_on_c, 0, 85, 0
2, 22395, Note_on_c, 0, 84, 64
2, 22417, Note_on_c, 0, 75, 0
2, 22417, Note_on_c, 0, 63, 0
2, 22421, Note_on_c, 0, 84, 0
2, 22425, Note_on_c, 0, 82, 64
2, 22425, Note_on_c, 0, 61, 64
2, 22425, Note_on_c, 0, 73, 64
2, 22451, Note_on_c, 0, 82, 0
2, 22455, Note_on_c, 0, 85, 64
2, 22477, Note_on_c, 0, 73, 0
2, 22477, Note_on_c, 0, 61, 0
2, 22481, Note_on_c, 0, 85, 0
2, 22485, Note_on_c, 0, 89, 64
2, 22485, Note_on_c, 0, 58, 64
2, 22485, Note_on_c, 0, 70, 64
2, 22511, Note_on_c, 0, 89, 0
2, 22515, Note_on_c, 0, 92, 64
2, 22537, Note_on_c, 0, 70, 0
2, 22537, Note_on_c, 0, 58, 0
2, 22541, Note_on_c, 0, 92, 0
2, 22545, Note_on_c, 0, 90, 64
2, 22571, Note_on_c, 0, 90, 0
2, 22575, Note_on_c, 0, 92, 64
2, 22601, Note_on_c, 0, 92, 0
2, 22605, Note_on_c, 0, 90, 64
2, 22605, Note_on_c, 0, 58, 64
2, 22605, Note_on_c, 0, 70, 64
2, 22631, Note_on_c, 0, 90, 0
2, 22635, Note_on_c, 0, 89, 64
2, 22657, Note_on_c, 0, 70, 0
2, 22657, Note_on_c, 0, 58, 0
2, 22661, Note_on_c, 0, 89, 0
2, 22665, Note_on_c, 0, 87, 64
2, 22665, Note_on_c, 0, 60, 64
2, 22665, Note_on_c, 0, 72, 64
2, 22691, Note_on_c, 0, 87, 0
2, 22695, Note_on_c, 0, 89, 64
2, 22717, Note_on_c, 0, 72, 0
2, 22717, Note_on_c, 0, 60, 0
2, 22721, Note_on_c, 0, 89, 0
2, 22725, Note_on_c, 0, 87, 64
2, 22725, Note_on_c, 0, 58, 64
2, 22725, Note_on_c, 0, 70, 64
2, 22751, Note_on_c, 0, 87, 0
2, 22755, Note_on_c, 0, 85, 64
2, 22777, Note_on_c, 0, 70, 0
2, 22777, Note_on_c, 0, 58, 0
2, 22781, Note_on_c, 0, 85, 0
2, 22785, Note_on_c, 0, 87, 64
2, 22785, Note_on_c, 0, 60, 64
2, 22785, Note_on_c, 0, 72, 64
2, 22811, Note_on_c, 0, 87, 0
2, 22815, Note_on_c, 0, 89, 64
2, 22837, Note_on_c, 0, 72, 0
2, 22837, Note_on_c, 0, 60, 0
2, 22841, Note_on_c, 0, 89, 0
2, 22845, Note_on_c, 0, 87, 64
2, 22845, Note_on_c, 0, 65, 64
2, 22845, Note_on_c, 0, 77, 64
2, 22871, Note_on_c, 0, 87, 0
2, 22875, Note_on_c, 0, 85, 64
2, 22897, Note_on_c, 0, 77, 0
2, 22897, Note_on_c, 0, 65, 0
2, 22901, Note_on_c, 0, 85, 0
2, 22905, Note_on_c, 0, 84, 64
2, 22905, Note_on_c, 0, 63, 64
2, 22905, Note_on_c, 0, 75, 64
2, 22931, Note_on_c, 0, 84, 0
2, 22935, Note_on_c, 0, 87, 64
2, 22957, Note_on_c, 0, 75, 0
2, 22957, Note_on_c, 0, 63, 0
2, 22961, Note_on_c, 0, 87, 0
2, 22965, Note_on_c, 0, 90, 64
2, 22965, Note_on_c, 0, 61, 64
2, 22965, Note_on_c, 0, 72, 64
2, 22991, Note_on_c, 0, 90, 0
2, 22995, Note_on_c, 0, 94, 64
2, 23017, Note_on_c, 0, 72, 0
2, 23017, Note_on_c, 0, 61, 0
2, 23021, Note_on_c, 0, 94, 0
2, 23025, Note_on_c, 0, 92, 64
2, 23051, Note_on_c, 0, 92, 0
2, 23055, Note_on_c, 0, 94, 64
2, 23081, Note_on_c, 0, 94, 0
2, 23085, Note_on_c, 0, 92, 64
2, 23085, Note_on_c, 0, 32, 64
2, 23085, Note_on_c, 0, 44, 64
2, 23111, Note_on_c, 0, 92, 0
2, 23115, Note_on_c, 0, 90, 64
2, 23137, Note_on_c, 0, 44, 0
2, 23137, Note_on_c, 0, 32, 0
2, 23141, Note_on_c, 0, 90, 0
2, 23145, Note_on_c, 0, 89, 64
2, 23145, Note_on_c, 0, 34, 64
2, 23145, Note_on_c, 0, 46, 64
2, 23171, Note_on_c, 0, 89, 0
2, 23175, Note_on_c, 0, 90, 64
2, 23197, Note_on_c, 0, 46, 0
2, 23197, Note_on_c, 0, 34, 0
2, 23201, Note_on_c, 0, 90, 0
2, 23205, Note_on_c, 0, 89, 64
2, 23205, Note_on_c, 0, 36, 64
2, 23205, Note_on_c, 0, 48, 64
2, 23231, Note_on_c, 0, 89, 0
2, 23235, Note_on_c, 0, 87, 64
2, 23257, Note_on_c, 0, 48, 0
2, 23257, Note_on_c, 0, 36, 0
2, 23261, Note_on_c, 0, 87, 0
2, 23265, Note_on_c, 0, 89, 64
2, 23265, Note_on_c, 0, 49, 64
2, 23265, Note_on_c, 0, 53, 64
2, 23291, Note_on_c, 0, 53, 0
2, 23291, Note_on_c, 0, 49, 0
2, 23295, Note_on_c, 0, 56, 64
2, 23321, Note_on_c, 0, 56, 0
2, 23325, Note_on_c, 0, 49, 64
2, 23325, Note_on_c, 0, 53, 64
2, 23351, Note_on_c, 0, 53, 0
2, 23351, Note_on_c, 0, 49, 0
2, 23355, Note_on_c, 0, 56, 64
2, 23381, Note_on_c, 0, 56, 0
2, 23385, Note_on_c, 0, 49, 64
2, 23385, Note_on_c, 0, 53, 64
2, 23411, Note_on_c, 0, 53, 0
2, 23411, Note_on_c, 0, 49, 0
2, 23415, Note_on_c, 0, 56, 64
2, 23441, Note_on_c, 0, 56, 0
2, 23445, Note_on_c, 0, 49, 64
2, 23445, Note_on_c, 0, 53, 64
2, 23471, Note_on_c, 0, 53, 0
2, 23471, Note_on_c, 0, 49, 0
2, 23475, Note_on_c, 0, 56, 64
2, 23490, Note_on_c, 0, 89, 0
2, 23501, Note_on_c, 0, 56, 0
2, 23505, Note_on_c, 0, 37, 64
2, 23505, Note_on_c, 0, 49, 64
2, 23505, Note_on_c, 0, 53, 64
2, 23531, Note_on_c, 0, 53, 0
2, 23531, Note_on_c, 0, 49, 0
2, 23535, Note_on_c, 0, 56, 64
2, 23561, Note_on_c, 0, 56, 0
2, 23565, Note_on_c, 0, 49, 64
2, 23565, Note_on_c, 0, 53, 64
2, 23591, Note_on_c, 0, 53, 0
2, 23591, Note_on_c, 0, 49, 0
2, 23595, Note_on_c, 0, 56, 64
2, 23621, Note_on_c, 0, 56, 0
2, 23625, Note_on_c, 0, 49, 64
2, 23625, Note_on_c, 0, 53, 64
2, 23651, Note_on_c, 0, 53, 0
2, 23651, Note_on_c, 0, 49, 0
2, 23655, Note_on_c, 0, 56, 64
2, 23681, Note_on_c, 0, 56, 0
2, 23685, Note_on_c, 0, 49, 64
2, 23685, Note_on_c, 0, 53, 64
2, 23711, Note_on_c, 0, 53, 0
2, 23711, Note_on_c, 0, 49, 0
2, 23715, Note_on_c, 0, 56, 64
2, 23730, Note_on_c, 0, 37, 0
2, 23741, Note_on_c, 0, 56, 0
2, 23745, Note_on_c, 0, 38, 64
2, 23745, Note_on_c, 0, 50, 64
2, 23745, Note_on_c, 0, 53, 64
2, 23745, Note_on_c, 0, 56, 64
2, 23771, Note_on_c, 0, 56, 0
2, 23771, Note_on_c, 0, 53, 0
2, 23771, Note_on_c, 0, 50, 0
2, 23775, Note_on_c, 0, 59, 64
2, 23801, Note_on_c, 0, 59, 0
2, 23805, Note_on_c, 0, 50, 64
2, 23805, Note_on_c, 0, 53, 64
2, 23805, Note_on_c, 0, 56, 64
2, 23831, Note_on_c, 0, 56, 0
2, 23831, Note_on_c, 0, 53, 0
2, 23831, Note_on_c, 0, 50, 0
2, 23835, Note_on_c, 0, 59, 64
2, 23861, Note_on_c, 0, 59, 0
2, 23865, Note_on_c, 0, 50, 64
2, 23865, Note_on_c, 0, 53, 64
2, 23865, Note_on_c, 0, 56, 64
2, 23891, Note_on_c, 0, 56, 0
2, 23891, Note_on_c, 0, 53, 0
2, 23891, Note_on_c, 0, 50, 0
2, 23895, Note_on_c, 0, 59, 64
2, 23921, Note_on_c, 0, 59, 0
2, 23925, Note_on_c, 0, 50, 64
2, 23925, Note_on_c, 0, 53, 64
2, 23925, Note_on_c, 0, 56, 64
2, 23951, Note_on_c, 0, 56, 0
2, 23951, Note_on_c, 0, 53, 0
2, 23951, Note_on_c, 0, 50, 0
2, 23955, Note_on_c, 0, 59, 64
2, 23970, Note_on_c, 0, 38, 0
2, 23981, Note_on_c, 0, 59, 0
2, 23985, Note_on_c, 0, 95, 64
2, 23985, Note_on_c, 0, 50, 64
2, 23985, Note_on_c, 0, 53, 64
2, 23985, Note_on_c, 0, 56, 64
2, 24011, Note_on_c, 0, 56, 0
2, 24011, Note_on_c, 0, 53, 0
2, 24011, Note_on_c, 0, 50, 0
2, 24015, Note_on_c, 0, 59, 64
2, 24041, Note_on_c, 0, 59, 0
2, 24045, Note_on_c, 0, 50, 64
2, 24045, Note_on_c, 0, 53, 64
2, 24045, Note_on_c, 0, 56, 64
2, 24071, Note_on_c, 0, 56, 0
2, 24071, Note_on_c, 0, 53, 0
2, 24071, Note_on_c, 0, 50, 0
2, 24075, Note_on_c, 0, 59, 64
2, 24101, Note_on_c, 0, 59, 0
2, 24105, Note_on_c, 0, 50, 64
2, 24105, Note_on_c, 0, 53, 64
2, 24105, Note_on_c, 0, 56, 64
2, 24131, Note_on_c, 0, 56, 0
2, 24131, Note_on_c, 0, 53, 0
2, 24131, Note_on_c, 0, 50, 0
2, 24135, Note_on_c, 0, 59, 64
2, 24161, Note_on_c, 0, 59, 0
2, 24165, Note_on_c, 0, 50, 64
2, 24165, Note_on_c, 0, 53, 64
2, 24165, Note_on_c, 0, 56, 64
2, 24191, Note_on_c, 0, 56, 0
2, 24191, Note_on_c, 0, 53, 0
2, 24191, Note_on_c, 0, 50, 0
2, 24195, Note_on_c, 0, 59, 64
2, 24210, Note_on_c, 0, 95, 0
2, 24221, Note_on_c, 0, 59, 0
2, 24225, Note_on_c, 0, 39, 64
2, 24225, Note_on_c, 0, 51, 64
2, 24330, Note_on_c, 0, 51, 0
2, 24330, Note_on_c, 0, 39, 0
2, 24345, Note_on_c, 0, 87, 64
2, 24570, Note_on_c, 0, 87, 0
2, 24585, Note_on_c, 0, 84, 64
2, 24637, Note_on_c, 0, 84, 0
2, 24645, Note_on_c, 0, 81, 64
2, 24645, Note_on_c, 0, 51, 64
2, 24645, Note_on_c, 0, 60, 64
2, 24645, Note_on_c, 0, 63, 64
2, 24671, Note_on_c, 0, 63, 0
2, 24671, Note_on_c, 0, 81, 0
2, 24671, Note_on_c, 0, 51, 0
2, 24671, Note_on_c, 0, 60, 0
2, 24705, Note_on_c, 0, 80, 64
2, 24705, Note_on_c, 0, 51, 64
2, 24705, Note_on_c, 0, 58, 64
2, 24705, Note_on_c, 0, 61, 64
2, 24825, Note_on_c, 0, 80, 0
2, 24825, Note_on_c, 0, 79, 64
2, 24870, Note_on_c, 0, 51, 0
2, 24870, Note_on_c, 0, 61, 0
2, 24870, Note_on_c, 0, 58, 0
2, 24877, Note_on_c, 0, 79, 0
2, 24915, Note_on_c, 0, 77, 64
2, 24915, Note_on_c, 0, 51, 64
2, 24915, Note_on_c, 0, 56, 64
2, 24915, Note_on_c, 0, 60, 64
2, 24941, Note_on_c, 0, 60, 0
2, 24941, Note_on_c, 0, 77, 0
2, 24941, Note_on_c, 0, 51, 0
2, 24941, Note_on_c, 0, 56, 0
2, 24945, Note_on_c, 0, 77, 64
2, 24945, Note_on_c, 0, 51, 64
2, 24945, Note_on_c, 0, 56, 64
2, 24945, Note_on_c, 0, 60, 64
2, 25050, Note_on_c, 0, 56, 0
2, 25050, Note_on_c, 0, 51, 0
2, 25065, Note_on_c, 0, 77, 0
2, 25065, Note_on_c, 0, 60, 0
2, 25065, Note_on_c, 0, 75, 64
2, 25065, Note_on_c, 0, 51, 64
2, 25065, Note_on_c, 0, 55, 64
2, 25065, Note_on_c, 0, 58, 64
2, 25117, Note_on_c, 0, 58, 0
2, 25117, Note_on_c, 0, 75, 0
2, 25117, Note_on_c, 0, 51, 0
2, 25117, Note_on_c, 0, 55, 0
2, 25155, Note_on_c, 0, 73, 64
2, 25155, Note_on_c, 0, 79, 64
2, 25155, Note_on_c, 0, 85, 64
2, 25155, Note_on_c, 0, 51, 64
2, 25155, Note_on_c, 0, 55, 64
2, 25155, Note_on_c, 0, 58, 64
2, 25181, Note_on_c, 0, 58, 0
2, 25181, Note_on_c, 0, 79, 0
2, 25181, Note_on_c, 0, 85, 0
2, 25181, Note_on_c, 0, 73, 0
2, 25181, Note_on_c, 0, 55, 0
2, 25181, Note_on_c, 0, 51, 0
2, 25185, Note_on_c, 0, 73, 64
2, 25185, Note_on_c, 0, 79, 64
2, 25185, Note_on_c, 0, 85, 64
2, 25185, Note_on_c, 0, 51, 64
2, 25185, Note_on_c, 0, 55, 64
2, 25185, Note_on_c, 0, 58, 64
2, 25290, Note_on_c, 0, 58, 0
2, 25290, Note_on_c, 0, 79, 0
2, 25290, Note_on_c, 0, 85, 0
2, 25290, Note_on_c, 0, 73, 0
2, 25290, Note_on_c, 0, 55, 0
2, 25290, Note_on_c, 0, 51, 0
2, 25305, Note_on_c, 0, 72, 64
2, 25305, Note_on_c, 0, 80, 64
2, 25305, Note_on_c, 0, 84, 64
2, 25410, Note_on_c, 0, 84, 0
2, 25410, Note_on_c, 0, 80, 0
2, 25410, Note_on_c, 0, 72, 0
2, 25425, Note_on_c, 0, 72, 64
2, 25425, Note_on_c, 0, 80, 64
2, 25425, Note_on_c, 0, 84, 64
2, 25433, Note_on_c, 0, 84, 0
2, 25433, Note_on_c, 0, 80, 0
2, 25433, Note_on_c, 0, 72, 0
2, 25434, Note_on_c, 0, 87, 64
2, 25443, Note_on_c, 0, 87, 0
2, 25444, Note_on_c, 0, 86, 64
2, 25453, Note_on_c, 0, 86, 0
2, 25454, Note_on_c, 0, 87, 64
2, 25463, Note_on_c, 0, 87, 0
2, 25464, Note_on_c, 0, 89, 64
2, 25473, Note_on_c, 0, 89, 0
2, 25474, Note_on_c, 0, 87, 64
2, 25483, Note_on_c, 0, 87, 0
2, 25484, Note_on_c, 0, 83, 64
2, 25493, Note_on_c, 0, 83, 0
2, 25494, Note_on_c, 0, 84, 64
2, 25503, Note_on_c, 0, 84, 0
2, 25504, Note_on_c, 0, 83, 64
2, 25513, Note_on_c, 0, 83, 0
2, 25514, Note_on_c, 0, 84, 64
2, 25523, Note_on_c, 0, 84, 0
2, 25524, Note_on_c, 0, 85, 64
2, 25533, Note_on_c, 0, 85, 0
2, 25534, Note_on_c, 0, 84, 64
2, 25543, Note_on_c, 0, 84, 0
2, 25545, Note_on_c, 0, 79, 64
2, 25562, Note_on_c, 0, 79, 0
2, 25564, Note_on_c, 0, 80, 64
2, 25582, Note_on_c, 0, 80, 0
2, 25584, Note_on_c, 0, 82, 64
2, 25602, Note_on_c, 0, 82, 0
2, 25604, Note_on_c, 0, 80, 64
2, 25622, Note_on_c, 0, 80, 0
2, 25624, Note_on_c, 0, 79, 64
2, 25642, Note_on_c, 0, 79, 0
2, 25644, Note_on_c, 0, 80, 64
2, 25662, Note_on_c, 0, 80, 0
2, 25665, Note_on_c, 0, 80, 64
2, 25665, Note_on_c, 0, 51, 64
2, 25665, Note_on_c, 0, 58, 64
2, 25665, Note_on_c, 0, 61, 64
2, 25685, Note_on_c, 0, 80, 0
2, 25688, Note_on_c, 0, 79, 64
2, 25710, Note_on_c, 0, 79, 0
2, 25712, Note_on_c, 0, 80, 64
2, 25734, Note_on_c, 0, 80, 0
2, 25736, Note_on_c, 0, 82, 64
2, 25758, Note_on_c, 0, 82, 0
2, 25760, Note_on_c, 0, 80, 64
2, 25781, Note_on_c, 0, 80, 0
2, 25785, Note_on_c, 0, 79, 64
2, 25830, Note_on_c, 0, 51, 0
2, 25830, Note_on_c, 0, 61, 0
2, 25830, Note_on_c, 0, 58, 0
2, 25837, Note_on_c, 0, 79, 0
2, 25875, Note_on_c, 0, 77, 64
2, 25875, Note_on_c, 0, 51, 64
2, 25875, Note_on_c, 0, 56, 64
2, 25875, Note_on_c, 0, 60, 64
2, 25901, Note_on_c, 0, 60, 0
2, 25901, Note_on_c, 0, 77, 0
2, 25901, Note_on_c, 0, 51, 0
2, 25901, Note_on_c, 0, 56, 0
2, 25905, Note_on_c, 0, 77, 64
2, 25905, Note_on_c, 0, 51, 64
2, 25905, Note_on_c, 0, 55, 64
2, 25905, Note_on_c, 0, 58, 64
2, 25925, Note_on_c, 0, 77, 0
2, 25928, Note_on_c, 0, 75, 64
2, 25950, Note_on_c, 0, 75, 0
2, 25952, Note_on_c, 0, 77, 64
2, 25974, Note_on_c, 0, 77, 0
2, 25976, Note_on_c, 0, 79, 64
2, 25998, Note_on_c, 0, 79, 0
2, 26000, Note_on_c, 0, 77, 64
2, 26021, Note_on_c, 0, 77, 0
2, 26025, Note_on_c, 0, 75, 64
2, 26070, Note_on_c, 0, 51, 0
2, 26070, Note_on_c, 0, 58, 0
2, 26070, Note_on_c, 0, 55, 0
2, 26077, Note_on_c, 0, 75, 0
2, 26115, Note_on_c, 0, 73, 64
2, 26115, Note_on_c, 0, 79, 64
2, 26115, Note_on_c, 0, 85, 64
2, 26115, Note_on_c, 0, 52, 64
2, 26115, Note_on_c, 0, 55, 64
2, 26115, Note_on_c, 0, 58, 64
2, 26141, Note_on_c, 0, 58, 0
2, 26141, Note_on_c, 0, 79, 0
2, 26141, Note_on_c, 0, 85, 0
2, 26141, Note_on_c, 0, 73, 0
2, 26141, Note_on_c, 0, 55, 0
2, 26141, Note_on_c, 0, 52, 0
2, 26145, Note_on_c, 0, 73, 64
2, 26145, Note_on_c, 0, 79, 64
2, 26145, Note_on_c, 0, 85, 64
2, 26145, Note_on_c, 0, 52, 64
2, 26145, Note_on_c, 0, 55, 64
2, 26145, Note_on_c, 0, 58, 64
2, 26250, Note_on_c, 0, 58, 0
2, 26250, Note_on_c, 0, 79, 0
2, 26250, Note_on_c, 0, 85, 0
2, 26250, Note_on_c, 0, 73, 0
2, 26250, Note_on_c, 0, 55, 0
2, 26250, Note_on_c, 0, 52, 0
2, 26265, Note_on_c, 0, 75, 64
2, 26265, Note_on_c, 0, 80, 64
2, 26265, Note_on_c, 0, 84, 64
2, 26265, Note_on_c, 0, 53, 64
2, 26265, Note_on_c, 0, 56, 64
2, 26370, Note_on_c, 0, 56, 0
2, 26370, Note_on_c, 0, 84, 0
2, 26370, Note_on_c, 0, 75, 0
2, 26370, Note_on_c, 0, 80, 0
2, 26370, Note_on_c, 0, 53, 0
2, 26595, Note_on_c, 0, 79, 64
2, 26595, Note_on_c, 0, 82, 64
2, 26595, Note_on_c, 0, 89, 64
2, 26595, Note_on_c, 0, 61, 64
2, 26595, Note_on_c, 0, 67, 64
2, 26595, Note_on_c, 0, 70, 64
2, 26621, Note_on_c, 0, 70, 0
2, 26621, Note_on_c, 0, 82, 0
2, 26621, Note_on_c, 0, 89, 0
2, 26621, Note_on_c, 0, 79, 0
2, 26621, Note_on_c, 0, 67, 0
2, 26621, Note_on_c, 0, 61, 0
2, 26625, Note_on_c, 0, 79, 64
2, 26625, Note_on_c, 0, 82, 64
2, 26625, Note_on_c, 0, 89, 64
2, 26625, Note_on_c, 0, 61, 64
2, 26625, Note_on_c, 0, 67, 64
2, 26625, Note_on_c, 0, 70, 64
2, 26730, Note_on_c, 0, 70, 0
2, 26730, Note_on_c, 0, 82, 0
2, 26730, Note_on_c, 0, 89, 0
2, 26730, Note_on_c, 0, 79, 0
2, 26730, Note_on_c, 0, 67, 0
2, 26730, Note_on_c, 0, 61, 0
2, 26745, Note_on_c, 0, 75, 64
2, 26745, Note_on_c, 0, 80, 64
2, 26745, Note_on_c, 0, 87, 64
2, 26745, Note_on_c, 0, 60, 64
2, 26745, Note_on_c, 0, 68, 64
2, 26745, Note_on_c, 0, 72, 64
2, 26850, Note_on_c, 0, 72, 0
2, 26850, Note_on_c, 0, 80, 0
2, 26850, Note_on_c, 0, 87, 0
2, 26850, Note_on_c, 0, 75, 0
2, 26850, Note_on_c, 0, 68, 0
2, 26850, Note_on_c, 0, 60, 0
2, 27045, Note_on_c, 0, 92, 64
2, 27045, Note_on_c, 0, 62, 64
2, 27045, Note_on_c, 0, 65, 64
2, 27045, Note_on_c, 0, 68, 64
2, 27045, Note_on_c, 0, 71, 64
2, 27075, Note_on_c, 0, 92, 0
2, 27075, Note_on_c, 0, 95, 64
2, 27097, Note_on_c, 0, 68, 0
2, 27097, Note_on_c, 0, 71, 0
2, 27097, Note_on_c, 0, 62, 0
2, 27097, Note_on_c, 0, 65, 0
2, 27101, Note_on_c, 0, 95, 0
2, 27105, Note_on_c, 0, 92, 64
2, 27105, Note_on_c, 0, 61, 64
2, 27105, Note_on_c, 0, 65, 64
2, 27105, Note_on_c, 0, 68, 64
2, 27105, Note_on_c, 0, 72, 64
2, 27135, Note_on_c, 0, 92, 0
2, 27135, Note_on_c, 0, 95, 64
2, 27157, Note_on_c, 0, 68, 0
2, 27157, Note_on_c, 0, 72, 0
2, 27157, Note_on_c, 0, 61, 0
2, 27157, Note_on_c, 0, 65, 0
2, 27161, Note_on_c, 0, 95, 0
2, 27165, Note_on_c, 0, 89, 64
2, 27165, Note_on_c, 0, 77, 64
2, 27195, Note_on_c, 0, 77, 0
2, 27195, Note_on_c, 0, 89, 0
2, 27195, Note_on_c, 0, 92, 64
2, 27195, Note_on_c, 0, 80, 64
2, 27221, Note_on_c, 0, 80, 0
2, 27221, Note_on_c, 0, 92, 0
2, 27225, Note_on_c, 0, 86, 64
2, 27225, Note_on_c, 0, 74, 64
2, 27255, Note_on_c, 0, 74, 0
2, 27255, Note_on_c, 0, 86, 0
2, 27255, Note_on_c, 0, 89, 64
2, 27255, Note_on_c, 0, 77, 64
2, 27281, Note_on_c, 0, 77, 0
2, 27281, Note_on_c, 0, 89, 0
2, 27285, Note_on_c, 0, 83, 64
2, 27285, Note_on_c, 0, 71, 64
2, 27311, Note_on_c, 0, 83, 0
2, 27315, Note_on_c, 0, 71, 0
2, 27315, Note_on_c, 0, 86, 64
2, 27315, Note_on_c, 0, 74, 64
2, 27341, Note_on_c, 0, 74, 0
2, 27341, Note_on_c, 0, 86, 0
2, 27345, Note_on_c, 0, 80, 64
2, 27345, Note_on_c, 0, 68, 64
2, 27371, Note_on_c, 0, 68, 0
2, 27375, Note_on_c, 0, 80, 0
2, 27375, Note_on_c, 0, 83, 64
2, 27375, Note_on_c, 0, 71, 64
2, 27401, Note_on_c, 0, 71, 0
2, 27401, Note_on_c, 0, 83, 0
2, 27405, Note_on_c, 0, 77, 64
2, 27405, Note_on_c, 0, 65, 64
2, 27431, Note_on_c, 0, 65, 0
2, 27435, Note_on_c, 0, 77, 0
2, 27435, Note_on_c, 0, 80, 64
2, 27435, Note_on_c, 0, 68, 64
2, 27461, Note_on_c, 0, 68, 0
2, 27461, Note_on_c, 0, 80, 0
2, 27465, Note_on_c, 0, 74, 64
2, 27465, Note_on_c, 0, 62, 64
2, 27495, Note_on_c, 0, 62, 0
2, 27495, Note_on_c, 0, 74, 0
2, 27495, Note_on_c, 0, 77, 64
2, 27495, Note_on_c, 0, 65, 64
2, 27521, Note_on_c, 0, 65, 0
2, 27521, Note_on_c, 0, 77, 0
2, 27525, Note_on_c, 0, 71, 64
2, 27525, Note_on_c, 0, 59, 64
2, 27551, Note_on_c, 0, 71, 0
2, 27555, Note_on_c, 0, 59, 0
2, 27555, Note_on_c, 0, 74, 64
2, 27555, Note_on_c, 0, 62, 64
2, 27581, Note_on_c, 0, 62, 0
2, 27581, Note_on_c, 0, 74, 0
2, 27585, Note_on_c, 0, 68, 64
2, 27585, Note_on_c, 0, 56, 64
2, 27611, Note_on_c, 0, 56, 0
2, 27611, Note_on_c, 0, 68, 0
2, 27615, Note_on_c, 0, 71, 64
2, 27615, Note_on_c, 0, 59, 64
2, 27641, Note_on_c, 0, 59, 0
2, 27641, Note_on_c, 0, 71, 0
2, 27645, Note_on_c, 0, 65, 64
2, 27645, Note_on_c, 0, 53, 64
2, 27671, Note_on_c, 0, 53, 0
2, 27671, Note_on_c, 0, 65, 0
2, 27675, Note_on_c, 0, 68, 64
2, 27675, Note_on_c, 0, 56, 64
2, 27701, Note_on_c, 0, 56, 0
2, 27701, Note_on_c, 0, 68, 0
2, 27705, Note_on_c, 0, 62, 64
2, 27705, Note_on_c, 0, 50, 64
2, 27731, Note_on_c, 0, 50, 0
2, 27731, Note_on_c, 0, 62, 0
2, 27735, Note_on_c, 0, 63, 64
2, 27735, Note_on_c, 0, 51, 64
2, 27761, Note_on_c, 0, 51, 0
2, 27761, Note_on_c, 0, 63, 0
2, 27765, Note_on_c, 0, 65, 64
2, 27765, Note_on_c, 0, 53, 64
2, 27791, Note_on_c, 0, 53, 0
2, 27791, Note_on_c, 0, 65, 0
2, 27795, Note_on_c, 0, 67, 64
2, 27795, Note_on_c, 0, 55, 64
2, 27821, Note_on_c, 0, 55, 0
2, 27821, Note_on_c, 0, 67, 0
2, 27825, Note_on_c, 0, 68, 64
2, 27825, Note_on_c, 0, 56, 64
2, 27851, Note_on_c, 0, 56, 0
2, 27851, Note_on_c, 0, 68, 0
2, 27855, Note_on_c, 0, 70, 64
2, 27855, Note_on_c, 0, 58, 64
2, 27881, Note_on_c, 0, 58, 0
2, 27881, Note_on_c, 0, 70, 0
2, 27885, Note_on_c, 0, 72, 64
2, 27885, Note_on_c, 0, 60, 64
2, 27911, Note_on_c, 0, 60, 0
2, 27911, Note_on_c, 0, 72, 0
2, 27915, Note_on_c, 0, 73, 64
2, 27915, Note_on_c, 0, 61, 64
2, 27941, Note_on_c, 0, 61, 0
2, 27941, Note_on_c, 0, 73, 0
2, 27945, Note_on_c, 0, 75, 64
2, 27945, Note_on_c, 0, 63, 64
2, 27971, Note_on_c, 0, 63, 0
2, 27971, Note_on_c, 0, 75, 0
2, 27975, Note_on_c, 0, 76, 64
2, 27975, Note_on_c, 0, 64, 64
2, 28001, Note_on_c, 0, 64, 0
2, 28001, Note_on_c, 0, 76, 0
2, 28005, Note_on_c, 0, 77, 64
2, 28005, Note_on_c, 0, 65, 64
2, 28031, Note_on_c, 0, 65, 0
2, 28031, Note_on_c, 0, 77, 0
2, 28035, Note_on_c, 0, 75, 64
2, 28035, Note_on_c, 0, 63, 64
2, 28061, Note_on_c, 0, 63, 0
2, 28061, Note_on_c, 0, 75, 0
2, 28065, Note_on_c, 0, 77, 64
2, 28065, Note_on_c, 0, 32, 64
2, 28065, Note_on_c, 0, 44, 64
2, 28091, Note_on_c, 0, 77, 0
2, 28095, Note_on_c, 0, 75, 64
2, 28121, Note_on_c, 0, 75, 0
2, 28125, Note_on_c, 0, 72, 64
2, 28151, Note_on_c, 0, 72, 0
2, 28155, Note_on_c, 0, 68, 64
2, 28170, Note_on_c, 0, 44, 0
2, 28170, Note_on_c, 0, 32, 0
2, 28181, Note_on_c, 0, 68, 0
2, 28185, Note_on_c, 0, 77, 64
2, 28185, Note_on_c, 0, 36, 64
2, 28185, Note_on_c, 0, 48, 64
2, 28211, Note_on_c, 0, 77, 0
2, 28215, Note_on_c, 0, 75, 64
2, 28241, Note_on_c, 0, 75, 0
2, 28245, Note_on_c, 0, 72, 64
2, 28271, Note_on_c, 0, 72, 0
2, 28275, Note_on_c, 0, 68, 64
2, 28290, Note_on_c, 0, 48, 0
2, 28290, Note_on_c, 0, 36, 0
2, 28301, Note_on_c, 0, 68, 0
2, 28305, Note_on_c, 0, 77, 64
2, 28305, Note_on_c, 0, 31, 64
2, 28305, Note_on_c, 0, 43, 64
2, 28331, Note_on_c, 0, 77, 0
2, 28335, Note_on_c, 0, 75, 64
2, 28361, Note_on_c, 0, 75, 0
2, 28365, Note_on_c, 0, 73, 64
2, 28391, Note_on_c, 0, 73, 0
2, 28395, Note_on_c, 0, 70, 64
2, 28421, Note_on_c, 0, 70, 0
2, 28425, Note_on_c, 0, 77, 64
2, 28451, Note_on_c, 0, 77, 0
2, 28455, Note_on_c, 0, 75, 64
2, 28481, Note_on_c, 0, 75, 0
2, 28485, Note_on_c, 0, 73, 64
2, 28511, Note_on_c, 0, 73, 0
2, 28515, Note_on_c, 0, 70, 64
2, 28530, Note_on_c, 0, 43, 0
2, 28530, Note_on_c, 0, 31, 0
2, 28541, Note_on_c, 0, 70, 0
2, 28545, Note_on_c, 0, 82, 64
2, 28545, Note_on_c, 0, 30, 64
2, 28545, Note_on_c, 0, 42, 64
2, 28571, Note_on_c, 0, 82, 0
2, 28575, Note_on_c, 0, 80, 64
2, 28601, Note_on_c, 0, 80, 0
2, 28605, Note_on_c, 0, 75, 64
2, 28631, Note_on_c, 0, 75, 0
2, 28635, Note_on_c, 0, 72, 64
2, 28650, Note_on_c, 0, 42, 0
2, 28650, Note_on_c, 0, 30, 0
2, 28661, Note_on_c, 0, 72, 0
2, 28665, Note_on_c, 0, 82, 64
2, 28665, Note_on_c, 0, 32, 64
2, 28665, Note_on_c, 0, 44, 64
2, 28691, Note_on_c, 0, 82, 0
2, 28695, Note_on_c, 0, 80, 64
2, 28721, Note_on_c, 0, 80, 0
2, 28725, Note_on_c, 0, 75, 64
2, 28751, Note_on_c, 0, 75, 0
2, 28755, Note_on_c, 0, 72, 64
2, 28770, Note_on_c, 0, 44, 0
2, 28770, Note_on_c, 0, 32, 0
2, 28781, Note_on_c, 0, 72, 0
2, 28785, Note_on_c, 0, 82, 64
2, 28785, Note_on_c, 0, 29, 64
2, 28785, Note_on_c, 0, 41, 64
2, 28811, Note_on_c, 0, 82, 0
2, 28815, Note_on_c, 0, 80, 64
2, 28841, Note_on_c, 0, 80, 0
2, 28845, Note_on_c, 0, 77, 64
2, 28871, Note_on_c, 0, 77, 0
2, 28875, Note_on_c, 0, 73, 64
2, 28901, Note_on_c, 0, 73, 0
2, 28905, Note_on_c, 0, 87, 64
2, 28931, Note_on_c, 0, 87, 0
2, 28935, Note_on_c, 0, 85, 64
2, 28961, Note_on_c, 0, 85, 0
2, 28965, Note_on_c, 0, 80, 64
2, 28991, Note_on_c, 0, 80, 0
2, 28995, Note_on_c, 0, 73, 64
2, 29010, Note_on_c, 0, 41, 0
2, 29010, Note_on_c, 0, 29, 0
2, 29021, Note_on_c, 0, 73, 0
2, 29025, Note_on_c, 0, 87, 64
2, 29025, Note_on_c, 0, 28, 64
2, 29025, Note_on_c, 0, 40, 64
2, 29051, Note_on_c, 0, 87, 0
2, 29055, Note_on_c, 0, 85, 64
2, 29081, Note_on_c, 0, 85, 0
2, 29085, Note_on_c, 0, 80, 64
2, 29111, Note_on_c, 0, 80, 0
2, 29115, Note_on_c, 0, 73, 64
2, 29130, Note_on_c, 0, 40, 0
2, 29130, Note_on_c, 0, 28, 0
2, 29141, Note_on_c, 0, 73, 0
2, 29145, Note_on_c, 0, 87, 64
2, 29145, Note_on_c, 0, 32, 64
2, 29145, Note_on_c, 0, 44, 64
2, 29171, Note_on_c, 0, 87, 0
2, 29175, Note_on_c, 0, 85, 64
2, 29201, Note_on_c, 0, 85, 0
2, 29205, Note_on_c, 0, 84, 64
2, 29231, Note_on_c, 0, 84, 0
2, 29235, Note_on_c, 0, 73, 64
2, 29250, Note_on_c, 0, 44, 0
2, 29250, Note_on_c, 0, 32, 0
2, 29261, Note_on_c, 0, 73, 0
2, 29265, Note_on_c, 0, 85, 64
2, 29265, Note_on_c, 0, 27, 64
2, 29265, Note_on_c, 0, 39, 64
2, 29291, Note_on_c, 0, 85, 0
2, 29295, Note_on_c, 0, 84, 64
2, 29321, Note_on_c, 0, 84, 0
2, 29325, Note_on_c, 0, 80, 64
2, 29351, Note_on_c, 0, 80, 0
2, 29355, Note_on_c, 0, 75, 64
2, 29370, Note_on_c, 0, 39, 0
2, 29370, Note_on_c, 0, 27, 0
2, 29381, Note_on_c, 0, 75, 0
2, 29385, Note_on_c, 0, 85, 64
2, 29385, Note_on_c, 0, 32, 64
2, 29385, Note_on_c, 0, 44, 64
2, 29411, Note_on_c, 0, 85, 0
2, 29415, Note_on_c, 0, 84, 64
2, 29441, Note_on_c, 0, 84, 0
2, 29445, Note_on_c, 0, 80, 64
2, 29463, Note_on_c, 0, 44, 0
2, 29463, Note_on_c, 0, 32, 0
2, 29471, Note_on_c, 0, 80, 0
2, 29475, Note_on_c, 0, 75, 64
2, 29475, Note_on_c, 0, 36, 64
2, 29475, Note_on_c, 0, 48, 64
2, 29501, Note_on_c, 0, 48, 0
2, 29501, Note_on_c, 0, 36, 0
2, 29501, Note_on_c, 0, 75, 0
2, 29505, Note_on_c, 0, 85, 64
2, 29505, Note_on_c, 0, 39, 64
2, 29505, Note_on_c, 0, 51, 64
2, 29531, Note_on_c, 0, 85, 0
2, 29535, Note_on_c, 0, 84, 64
2, 29561, Note_on_c, 0, 84, 0
2, 29565, Note_on_c, 0, 80, 64
2, 29591, Note_on_c, 0, 80, 0
2, 29595, Note_on_c, 0, 75, 64
2, 29610, Note_on_c, 0, 51, 0
2, 29610, Note_on_c, 0, 39, 0
2, 29621, Note_on_c, 0, 75, 0
2, 29625, Note_on_c, 0, 84, 64
2, 29625, Note_on_c, 0, 27, 64
2, 29625, Note_on_c, 0, 39, 64
2, 29651, Note_on_c, 0, 84, 0
2, 29655, Note_on_c, 0, 82, 64
2, 29681, Note_on_c, 0, 82, 0
2, 29685, Note_on_c, 0, 79, 64
2, 29711, Note_on_c, 0, 79, 0
2, 29715, Note_on_c, 0, 73, 64
2, 29730, Note_on_c, 0, 39, 0
2, 29730, Note_on_c, 0, 27, 0
2, 29741, Note_on_c, 0, 73, 0
2, 29745, Note_on_c, 0, 72, 64
2, 29745, Note_on_c, 0, 75, 64
2, 29745, Note_on_c, 0, 80, 64
2, 29775, Note_on_c, 0, 60, 64
2, 29797, Note_on_c, 0, 75, 0
2, 29797, Note_on_c, 0, 72, 0
2, 29801, Note_on_c, 0, 60, 0
2, 29805, Note_on_c, 0, 72, 64
2, 29805, Note_on_c, 0, 75, 64
2, 29805, Note_on_c, 0, 58, 64
2, 29831, Note_on_c, 0, 58, 0
2, 29835, Note_on_c, 0, 56, 64
2, 29850, Note_on_c, 0, 80, 0
2, 29857, Note_on_c, 0, 72, 0
2, 29857, Note_on_c, 0, 75, 0
2, 29861, Note_on_c, 0, 56, 0
2, 29865, Note_on_c, 0, 72, 64
2, 29865, Note_on_c, 0, 75, 64
2, 29865, Note_on_c, 0, 84, 64
2, 29865, Note_on_c, 0, 55, 64
2, 29891, Note_on_c, 0, 55, 0
2, 29895, Note_on_c, 0, 56, 64
2, 29917, Note_on_c, 0, 72, 0
2, 29917, Note_on_c, 0, 75, 0
2, 29921, Note_on_c, 0, 56, 0
2, 29925, Note_on_c, 0, 72, 64
2, 29925, Note_on_c, 0, 75, 64
2, 29925, Note_on_c, 0, 58, 64
2, 29951, Note_on_c, 0, 58, 0
2, 29955, Note_on_c, 0, 56, 64
2, 29970, Note_on_c, 0, 84, 0
2, 29977, Note_on_c, 0, 72, 0
2, 29977, Note_on_c, 0, 75, 0
2, 29981, Note_on_c, 0, 56, 0
2, 29985, Note_on_c, 0, 70, 64
2, 29985, Note_on_c, 0, 75, 64
2, 29985, Note_on_c, 0, 79, 64
2, 30015, Note_on_c, 0, 67, 64
2, 30037, Note_on_c, 0, 75, 0
2, 30037, Note_on_c, 0, 70, 0
2, 30041, Note_on_c, 0, 67, 0
2, 30045, Note_on_c, 0, 70, 64
2, 30045, Note_on_c, 0, 75, 64
2, 30045, Note_on_c, 0, 65, 64
2, 30071, Note_on_c, 0, 65, 0
2, 30075, Note_on_c, 0, 63, 64
2, 30097, Note_on_c, 0, 75, 0
2, 30097, Note_on_c, 0, 70, 0
2, 30101, Note_on_c, 0, 63, 0
2, 30105, Note_on_c, 0, 70, 64
2, 30105, Note_on_c, 0, 75, 64
2, 30105, Note_on_c, 0, 62, 64
2, 30131, Note_on_c, 0, 62, 0
2, 30135, Note_on_c, 0, 63, 64
2, 30157, Note_on_c, 0, 75, 0
2, 30157, Note_on_c, 0, 70, 0
2, 30161, Note_on_c, 0, 63, 0
2, 30165, Note_on_c, 0, 70, 64
2, 30165, Note_on_c, 0, 75, 64
2, 30165, Note_on_c, 0, 65, 64
2, 30191, Note_on_c, 0, 65, 0
2, 30195, Note_on_c, 0, 63, 64
2, 30210, Note_on_c, 0, 79, 0
2, 30217, Note_on_c, 0, 70, 0
2, 30217, Note_on_c, 0, 75, 0
2, 30221, Note_on_c, 0, 63, 0
2, 30225, Note_on_c, 0, 68, 64
2, 30225, Note_on_c, 0, 75, 64
2, 30225, Note_on_c, 0, 78, 64
2, 30255, Note_on_c, 0, 51, 64
2, 30277, Note_on_c, 0, 75, 0
2, 30277, Note_on_c, 0, 68, 0
2, 30281, Note_on_c, 0, 51, 0
2, 30285, Note_on_c, 0, 68, 64
2, 30285, Note_on_c, 0, 75, 64
2, 30285, Note_on_c, 0, 49, 64
2, 30311, Note_on_c, 0, 49, 0
2, 30315, Note_on_c, 0, 48, 64
2, 30330, Note_on_c, 0, 78, 0
2, 30337, Note_on_c, 0, 68, 0
2, 30337, Note_on_c, 0, 75, 0
2, 30341, Note_on_c, 0, 48, 0
2, 30345, Note_on_c, 0, 68, 64
2, 30345, Note_on_c, 0, 75, 64
2, 30345, Note_on_c, 0, 80, 64
2, 30345, Note_on_c, 0, 47, 64
2, 30371, Note_on_c, 0, 47, 0
2, 30375, Note_on_c, 0, 48, 64
2, 30397, Note_on_c, 0, 68, 0
2, 30397, Note_on_c, 0, 75, 0
2, 30401, Note_on_c, 0, 48, 0
2, 30405, Note_on_c, 0, 68, 64
2, 30405, Note_on_c, 0, 75, 64
2, 30405, Note_on_c, 0, 49, 64
2, 30431, Note_on_c, 0, 49, 0
2, 30435, Note_on_c, 0, 48, 64
2, 30450, Note_on_c, 0, 80, 0
2, 30457, Note_on_c, 0, 68, 0
2, 30457, Note_on_c, 0, 75, 0
2, 30461, Note_on_c, 0, 48, 0
2, 30465, Note_on_c, 0, 77, 64
2, 30465, Note_on_c, 0, 68, 64
2, 30465, Note_on_c, 0, 73, 64
2, 30495, Note_on_c, 0, 65, 64
2, 30517, Note_on_c, 0, 73, 0
2, 30517, Note_on_c, 0, 68, 0
2, 30521, Note_on_c, 0, 65, 0
2, 30525, Note_on_c, 0, 68, 64
2, 30525, Note_on_c, 0, 73, 64
2, 30525, Note_on_c, 0, 63, 64
2, 30551, Note_on_c, 0, 63, 0
2, 30555, Note_on_c, 0, 61, 64
2, 30577, Note_on_c, 0, 73, 0
2, 30577, Note_on_c, 0, 68, 0
2, 30581, Note_on_c, 0, 61, 0
2, 30585, Note_on_c, 0, 68, 64
2, 30585, Note_on_c, 0, 73, 64
2, 30585, Note_on_c, 0, 60, 64
2, 30611, Note_on_c, 0, 60, 0
2, 30615, Note_on_c, 0, 61, 64
2, 30637, Note_on_c, 0, 73, 0
2, 30637, Note_on_c, 0, 68, 0
2, 30641, Note_on_c, 0, 61, 0
2, 30645, Note_on_c, 0, 68, 64
2, 30645, Note_on_c, 0, 73, 64
2, 30645, Note_on_c, 0, 63, 64
2, 30671, Note_on_c, 0, 63, 0
2, 30675, Note_on_c, 0, 61, 64
2, 30690, Note_on_c, 0, 77, 0
2, 30697, Note_on_c, 0, 68, 0
2, 30697, Note_on_c, 0, 73, 0
2, 30701, Note_on_c, 0, 61, 0
2, 30705, Note_on_c, 0, 76, 64
2, 30705, Note_on_c, 0, 68, 64
2, 30705, Note_on_c, 0, 73, 64
2, 30735, Note_on_c, 0, 37, 64
2, 30757, Note_on_c, 0, 73, 0
2, 30757, Note_on_c, 0, 68, 0
2, 30761, Note_on_c, 0, 37, 0
2, 30765, Note_on_c, 0, 68, 64
2, 30765, Note_on_c, 0, 73, 64
2, 30765, Note_on_c, 0, 39, 64
2, 30791, Note_on_c, 0, 39, 0
2, 30795, Note_on_c, 0, 40, 64
2, 30810, Note_on_c, 0, 76, 0
2, 30817, Note_on_c, 0, 68, 0
2, 30817, Note_on_c, 0, 73, 0
2, 30821, Note_on_c, 0, 40, 0
2, 30825, Note_on_c, 0, 80, 64
2, 30825, Note_on_c, 0, 68, 64
2, 30825, Note_on_c, 0, 73, 64
2, 30825, Note_on_c, 0, 39, 64
2, 30851, Note_on_c, 0, 39, 0
2, 30855, Note_on_c, 0, 37, 64
2, 30877, Note_on_c, 0, 73, 0
2, 30877, Note_on_c, 0, 68, 0
2, 30881, Note_on_c, 0, 37, 0
2, 30885, Note_on_c, 0, 68, 64
2, 30885, Note_on_c, 0, 73, 64
2, 30885, Note_on_c, 0, 36, 64
2, 30911, Note_on_c, 0, 36, 0
2, 30915, Note_on_c, 0, 37, 64
2, 30930, Note_on_c, 0, 80, 0
2, 30937, Note_on_c, 0, 68, 0
2, 30937, Note_on_c, 0, 73, 0
2, 30941, Note_on_c, 0, 37, 0
2, 30945, Note_on_c, 0, 68, 64
2, 30945, Note_on_c, 0, 72, 64
2, 30945, Note_on_c, 0, 75, 64
2, 30945, Note_on_c, 0, 38, 64
2, 30971, Note_on_c, 0, 38, 0
2, 30975, Note_on_c, 0, 39, 64
2, 31001, Note_on_c, 0, 39, 0
2, 31005, Note_on_c, 0, 41, 64
2, 31031, Note_on_c, 0, 41, 0
2, 31035, Note_on_c, 0, 39, 64
2, 31050, Note_on_c, 0, 68, 0
2, 31050, Note_on_c, 0, 75, 0
2, 31050, Note_on_c, 0, 72, 0
2, 31061, Note_on_c, 0, 39, 0
2, 31065, Note_on_c, 0, 68, 64
2, 31065, Note_on_c, 0, 80, 64
2, 31065, Note_on_c, 0, 37, 64
2, 31091, Note_on_c, 0, 37, 0
2, 31095, Note_on_c, 0, 36, 64
2, 31121, Note_on_c, 0, 36, 0
2, 31125, Note_on_c, 0, 34, 64
2, 31143, Note_on_c, 0, 80, 0
2, 31143, Note_on_c, 0, 68, 0
2, 31151, Note_on_c, 0, 34, 0
2, 31155, Note_on_c, 0, 72, 64
2, 31155, Note_on_c, 0, 84, 64
2, 31155, Note_on_c, 0, 32, 64
2, 31181, Note_on_c, 0, 32, 0
2, 31181, Note_on_c, 0, 84, 0
2, 31181, Note_on_c, 0, 72, 0
2, 31185, Note_on_c, 0, 75, 64
2, 31185, Note_on_c, 0, 87, 64
2, 31185, Note_on_c, 0, 31, 64
2, 31211, Note_on_c, 0, 31, 0
2, 31215, Note_on_c, 0, 32, 64
2, 31237, Note_on_c, 0, 87, 0
2, 31237, Note_on_c, 0, 75, 0
2, 31241, Note_on_c, 0, 32, 0
2, 31245, Note_on_c, 0, 87, 64
2, 31245, Note_on_c, 0, 34, 64
2, 31271, Note_on_c, 0, 34, 0
2, 31275, Note_on_c, 0, 36, 64
2, 31297, Note_on_c, 0, 87, 0
2, 31301, Note_on_c, 0, 36, 0
2, 31305, Note_on_c, 0, 89, 64
2, 31305, Note_on_c, 0, 37, 64
2, 31318, Note_on_c, 0, 89, 0
2, 31320, Note_on_c, 0, 87, 64
2, 31331, Note_on_c, 0, 37, 0
2, 31333, Note_on_c, 0, 87, 0
2, 31335, Note_on_c, 0, 89, 64
2, 31335, Note_on_c, 0, 36, 64
2, 31348, Note_on_c, 0, 89, 0
2, 31350, Note_on_c, 0, 87, 64
2, 31361, Note_on_c, 0, 36, 0
2, 31363, Note_on_c, 0, 87, 0
2, 31365, Note_on_c, 0, 89, 64
2, 31365, Note_on_c, 0, 37, 64
2, 31378, Note_on_c, 0, 89, 0
2, 31380, Note_on_c, 0, 87, 64
2, 31391, Note_on_c, 0, 37, 0
2, 31393, Note_on_c, 0, 87, 0
2, 31395, Note_on_c, 0, 86, 64
2, 31395, Note_on_c, 0, 35, 64
2, 31408, Note_on_c, 0, 86, 0
2, 31410, Note_on_c, 0, 87, 64
2, 31421, Note_on_c, 0, 35, 0
2, 31423, Note_on_c, 0, 87, 0
2, 31425, Note_on_c, 0, 87, 64
2, 31425, Note_on_c, 0, 36, 64
2, 31451, Note_on_c, 0, 36, 0
2, 31455, Note_on_c, 0, 37, 64
2, 31477, Note_on_c, 0, 87, 0
2, 31481, Note_on_c, 0, 37, 0
2, 31485, Note_on_c, 0, 89, 64
2, 31485, Note_on_c, 0, 39, 64
2, 31511, Note_on_c, 0, 39, 0
2, 31511, Note_on_c, 0, 89, 0
2, 31515, Note_on_c, 0, 91, 64
2, 31515, Note_on_c, 0, 37, 64
2, 31541, Note_on_c, 0, 37, 0
2, 31541, Note_on_c, 0, 91, 0
2, 31545, Note_on_c, 0, 91, 64
2, 31545, Note_on_c, 0, 36, 64
2, 31571, Note_on_c, 0, 36, 0
2, 31575, Note_on_c, 0, 35, 64
2, 31597, Note_on_c, 0, 91, 0
2, 31601, Note_on_c, 0, 35, 0
2, 31605, Note_on_c, 0, 92, 64
2, 31605, Note_on_c, 0, 36, 64
2, 31631, Note_on_c, 0, 36, 0
2, 31635, Note_on_c, 0, 32, 64
2, 31657, Note_on_c, 0, 92, 0
2, 31661, Note_on_c, 0, 32, 0
2, 31665, Note_on_c, 0, 31, 64
2, 31691, Note_on_c, 0, 31, 0
2, 31695, Note_on_c, 0, 32, 64
2, 31721, Note_on_c, 0, 32, 0
2, 31725, Note_on_c, 0, 75, 64
2, 31725, Note_on_c, 0, 34, 64
2, 31751, Note_on_c, 0, 34, 0
2, 31755, Note_on_c, 0, 36, 64
2, 31777, Note_on_c, 0, 75, 0
2, 31781, Note_on_c, 0, 36, 0
2, 31785, Note_on_c, 0, 77, 64
2, 31785, Note_on_c, 0, 37, 64
2, 31798, Note_on_c, 0, 77, 0
2, 31800, Note_on_c, 0, 75, 64
2, 31811, Note_on_c, 0, 37, 0
2, 31813, Note_on_c, 0, 75, 0
2, 31815, Note_on_c, 0, 77, 64
2, 31815, Note_on_c, 0, 36, 64
2, 31828, Note_on_c, 0, 77, 0
2, 31830, Note_on_c, 0, 75, 64
2, 31841, Note_on_c, 0, 36, 0
2, 31843, Note_on_c, 0, 75, 0
2, 31845, Note_on_c, 0, 77, 64
2, 31845, Note_on_c, 0, 37, 64
2, 31858, Note_on_c, 0, 77, 0
2, 31860, Note_on_c, 0, 75, 64
2, 31871, Note_on_c, 0, 37, 0
2, 31873, Note_on_c, 0, 75, 0
2, 31875, Note_on_c, 0, 74, 64
2, 31875, Note_on_c, 0, 35, 64
2, 31888, Note_on_c, 0, 74, 0
2, 31890, Note_on_c, 0, 75, 64
2, 31901, Note_on_c, 0, 35, 0
2, 31903, Note_on_c, 0, 75, 0
2, 31905, Note_on_c, 0, 75, 64
2, 31905, Note_on_c, 0, 36, 64
2, 31931, Note_on_c, 0, 36, 0
2, 31935, Note_on_c, 0, 37, 64
2, 31957, Note_on_c, 0, 75, 0
2, 31961, Note_on_c, 0, 37, 0
2, 31965, Note_on_c, 0, 77, 64
2, 31965, Note_on_c, 0, 39, 64
2, 31991, Note_on_c, 0, 39, 0
2, 31991, Note_on_c, 0, 77, 0
2, 31995, Note_on_c, 0, 79, 64
2, 31995, Note_on_c, 0, 37, 64
2, 32021, Note_on_c, 0, 37, 0
2, 32021, Note_on_c, 0, 79, 0
2, 32025, Note_on_c, 0, 79, 64
2, 32025, Note_on_c, 0, 36, 64
2, 32051, Note_on_c, 0, 36, 0
2, 32055, Note_on_c, 0, 35, 64
2, 32077, Note_on_c, 0, 79, 0
2, 32081, Note_on_c, 0, 35, 0
2, 32085, Note_on_c, 0, 80, 64
2, 32085, Note_on_c, 0, 36, 64
2, 32111, Note_on_c, 0, 36, 0
2, 32115, Note_on_c, 0, 32, 64
2, 32137, Note_on_c, 0, 80, 0
2, 32141, Note_on_c, 0, 32, 0
2, 32145, Note_on_c, 0, 31, 64
2, 32171, Note_on_c, 0, 31, 0
2, 32175, Note_on_c, 0, 32, 64
2, 32201, Note_on_c, 0, 32, 0
2, 32205, Note_on_c, 0, 63, 64
2, 32205, Note_on_c, 0, 34, 64
2, 32231, Note_on_c, 0, 34, 0
2, 32235, Note_on_c, 0, 36, 64
2, 32257, Note_on_c, 0, 63, 0
2, 32261, Note_on_c, 0, 36, 0
2, 32265, Note_on_c, 0, 65, 64
2, 32265, Note_on_c, 0, 37, 64
2, 32278, Note_on_c, 0, 65, 0
2, 32280, Note_on_c, 0, 63, 64
2, 32291, Note_on_c, 0, 37, 0
2, 32293, Note_on_c, 0, 63, 0
2, 32295, Note_on_c, 0, 65, 64
2, 32295, Note_on_c, 0, 39, 64
2, 32308, Note_on_c, 0, 65, 0
2, 32310, Note_on_c, 0, 63, 64
2, 32321, Note_on_c, 0, 39, 0
2, 32323, Note_on_c, 0, 63, 0
2, 32325, Note_on_c, 0, 65, 64
2, 32325, Note_on_c, 0, 41, 64
2, 32338, Note_on_c, 0, 65, 0
2, 32340, Note_on_c, 0, 63, 64
2, 32351, Note_on_c, 0, 41, 0
2, 32353, Note_on_c, 0, 63, 0
2, 32355, Note_on_c, 0, 65, 64
2, 32355, Note_on_c, 0, 43, 64
2, 32368, Note_on_c, 0, 65, 0
2, 32370, Note_on_c, 0, 67, 64
2, 32381, Note_on_c, 0, 43, 0
2, 32383, Note_on_c, 0, 67, 0
2, 32385, Note_on_c, 0, 68, 64
2, 32385, Note_on_c, 0, 44, 64
2, 32411, Note_on_c, 0, 44, 0
2, 32411, Note_on_c, 0, 68, 0
2, 32415, Note_on_c, 0, 70, 64
2, 32415, Note_on_c, 0, 46, 64
2, 32441, Note_on_c, 0, 46, 0
2, 32441, Note_on_c, 0, 70, 0
2, 32445, Note_on_c, 0, 72, 64
2, 32445, Note_on_c, 0, 48, 64
2, 32471, Note_on_c, 0, 48, 0
2, 32471, Note_on_c, 0, 72, 0
2, 32475, Note_on_c, 0, 71, 64
2, 32475, Note_on_c, 0, 47, 64
2, 32501, Note_on_c, 0, 47, 0
2, 32501, Note_on_c, 0, 71, 0
2, 32505, Note_on_c, 0, 72, 64
2, 32505, Note_on_c, 0, 48, 64
2, 32531, Note_on_c, 0, 48, 0
2, 32531, Note_on_c, 0, 72, 0
2, 32535, Note_on_c, 0, 73, 64
2, 32535, Note_on_c, 0, 49, 64
2, 32561, Note_on_c, 0, 49, 0
2, 32561, Note_on_c, 0, 73, 0
2, 32565, Note_on_c, 0, 74, 64
2, 32565, Note_on_c, 0, 50, 64
2, 32591, Note_on_c, 0, 50, 0
2, 32591, Note_on_c, 0, 74, 0
2, 32595, Note_on_c, 0, 73, 64
2, 32595, Note_on_c, 0, 49, 64
2, 32621, Note_on_c, 0, 49, 0
2, 32621, Note_on_c, 0, 73, 0
2, 32625, Note_on_c, 0, 74, 64
2, 32625, Note_on_c, 0, 50, 64
2, 32651, Note_on_c, 0, 50, 0
2, 32651, Note_on_c, 0, 74, 0
2, 32655, Note_on_c, 0, 75, 64
2, 32655, Note_on_c, 0, 51, 64
2, 32681, Note_on_c, 0, 51, 0
2, 32681, Note_on_c, 0, 75, 0
2, 32685, Note_on_c, 0, 76, 64
2, 32685, Note_on_c, 0, 52, 64
2, 32711, Note_on_c, 0, 52, 0
2, 32711, Note_on_c, 0, 76, 0
2, 32715, Note_on_c, 0, 75, 64
2, 32715, Note_on_c, 0, 51, 64
2, 32741, Note_on_c, 0, 51, 0
2, 32741, Note_on_c, 0, 75, 0
2, 32745, Note_on_c, 0, 76, 64
2, 32745, Note_on_c, 0, 52, 64
2, 32771, Note_on_c, 0, 52, 0
2, 32771, Note_on_c, 0, 76, 0
2, 32775, Note_on_c, 0, 77, 64
2, 32775, Note_on_c, 0, 53, 64
2, 32801, Note_on_c, 0, 53, 0
2, 32801, Note_on_c, 0, 77, 0
2, 32805, Note_on_c, 0, 78, 64
2, 32805, Note_on_c, 0, 54, 64
2, 32831, Note_on_c, 0, 54, 0
2, 32831, Note_on_c, 0, 78, 0
2, 32835, Note_on_c, 0, 79, 64
2, 32835, Note_on_c, 0, 55, 64
2, 32861, Note_on_c, 0, 55, 0
2, 32861, Note_on_c, 0, 79, 0
2, 32865, Note_on_c, 0, 80, 64
2, 32865, Note_on_c, 0, 56, 64
2, 32891, Note_on_c, 0, 56, 0
2, 32891, Note_on_c, 0, 80, 0
2, 32895, Note_on_c, 0, 82, 64
2, 32895, Note_on_c, 0, 58, 64
2, 32921, Note_on_c, 0, 58, 0
2, 32921, Note_on_c, 0, 82, 0
2, 32925, Note_on_c, 0, 84, 64
2, 32925, Note_on_c, 0, 60, 64
2, 32951, Note_on_c, 0, 60, 0
2, 32951, Note_on_c, 0, 84, 0
2, 32955, Note_on_c, 0, 83, 64
2, 32955, Note_on_c, 0, 59, 64
2, 32981, Note_on_c, 0, 59, 0
2, 32981, Note_on_c, 0, 83, 0
2, 32985, Note_on_c, 0, 84, 64
2, 32985, Note_on_c, 0, 60, 64
2, 33011, Note_on_c, 0, 60, 0
2, 33011, Note_on_c, 0, 84, 0
2, 33015, Note_on_c, 0, 85, 64
2, 33015, Note_on_c, 0, 61, 64
2, 33041, Note_on_c, 0, 61, 0
2, 33041, Note_on_c, 0, 85, 0
2, 33045, Note_on_c, 0, 86, 64
2, 33045, Note_on_c, 0, 62, 64
2, 33071, Note_on_c, 0, 62, 0
2, 33071, Note_on_c, 0, 86, 0
2, 33075, Note_on_c, 0, 85, 64
2, 33075, Note_on_c, 0, 61, 64
2, 33101, Note_on_c, 0, 61, 0
2, 33101, Note_on_c, 0, 85, 0
2, 33105, Note_on_c, 0, 86, 64
2, 33105, Note_on_c, 0, 62, 64
2, 33131, Note_on_c, 0, 62, 0
2, 33131, Note_on_c, 0, 86, 0
2, 33135, Note_on_c, 0, 87, 64
2, 33135, Note_on_c, 0, 63, 64
2, 33161, Note_on_c, 0, 63, 0
2, 33161, Note_on_c, 0, 87, 0
2, 33165, Note_on_c, 0, 88, 64
2, 33165, Note_on_c, 0, 64, 64
2, 33191, Note_on_c, 0, 64, 0
2, 33191, Note_on_c, 0, 88, 0
2, 33195, Note_on_c, 0, 87, 64
2, 33195, Note_on_c, 0, 63, 64
2, 33221, Note_on_c, 0, 63, 0
2, 33221, Note_on_c, 0, 87, 0
2, 33225, Note_on_c, 0, 88, 64
2, 33225, Note_on_c, 0, 64, 64
2, 33251, Note_on_c, 0, 64, 0
2, 33251, Note_on_c, 0, 88, 0
2, 33255, Note_on_c, 0, 89, 64
2, 33255, Note_on_c, 0, 65, 64
2, 33281, Note_on_c, 0, 65, 0
2, 33281, Note_on_c, 0, 89, 0
2, 33285, Note_on_c, 0, 90, 64
2, 33285, Note_on_c, 0, 66, 64
2, 33311, Note_on_c, 0, 66, 0
2, 33311, Note_on_c, 0, 90, 0
2, 33315, Note_on_c, 0, 91, 64
2, 33315, Note_on_c, 0, 67, 64
2, 33341, Note_on_c, 0, 67, 0
2, 33341, Note_on_c, 0, 91, 0
2, 33345, Note_on_c, 0, 80, 64
2, 33345, Note_on_c, 0, 92, 64
2, 33345, Note_on_c, 0, 68, 64
2, 33450, Note_on_c, 0, 68, 0
2, 33450, Note_on_c, 0, 92, 0
2, 33450, Note_on_c, 0, 80, 0
2, 33465, Note_on_c, 0, 56, 64
2, 33465, Note_on_c, 0, 68, 64
2, 33465, Note_on_c, 0, 32, 64
2, 33465, Note_on_c, 0, 44, 64
2, 33570, Note_on_c, 0, 44, 0
2, 33570, Note_on_c, 0, 56, 0
2, 33570, Note_on_c, 0, 68, 0
2, 33570, Note_on_c, 0, 32, 0
2, 33765, Note_on_c, 0, 43, 64
2, 33765, Note_on_c, 0, 31, 64
2, 33782, Note_on_c, 0, 31, 0
2, 33782, Note_on_c, 0, 43, 0
2, 33784, Note_on_c, 0, 45, 64
2, 33784, Note_on_c, 0, 33, 64
2, 33802, Note_on_c, 0, 33, 0
2, 33802, Note_on_c, 0, 45, 0
2, 33804, Note_on_c, 0, 47, 64
2, 33804, Note_on_c, 0, 35, 64
2, 33822, Note_on_c, 0, 35, 0
2, 33822, Note_on_c, 0, 47, 0
2, 33825, Note_on_c, 0, 48, 64
2, 33825, Note_on_c, 0, 36, 64
2, 33930, Note_on_c, 0, 36, 0
2, 33930, Note_on_c, 0, 48, 0
2, 34245, Note_on_c, 0, 43, 64
2, 34245, Note_on_c, 0, 31, 64
2, 34262, Note_on_c, 0, 31, 0
2, 34262, Note_on_c, 0, 43, 0
2, 34264, Note_on_c, 0, 45, 64
2, 34264, Note_on_c, 0, 33, 64
2, 34282, Note_on_c, 0, 33, 0
2, 34282, Note_on_c, 0, 45, 0
2, 34284, Note_on_c, 0, 47, 64
2, 34284, Note_on_c, 0, 35, 64
2, 34302, Note_on_c, 0, 35, 0
2, 34302, Note_on_c, 0, 47, 0
2, 34305, Note_on_c, 0, 48, 64
2, 34305, Note_on_c, 0, 36, 64
2, 34410, Note_on_c, 0, 36, 0
2, 34410, Note_on_c, 0, 48, 0
2, 34425, Note_on_c, 0, 51, 64
2, 34425, Note_on_c, 0, 39, 64
2, 34530, Note_on_c, 0, 39, 0
2, 34530, Note_on_c, 0, 51, 0
2, 34545, Note_on_c, 0, 47, 64
2, 34545, Note_on_c, 0, 35, 64
2, 34710, Note_on_c, 0, 35, 0
2, 34710, Note_on_c, 0, 47, 0
2, 34725, Note_on_c, 0, 43, 64
2, 34725, Note_on_c, 0, 31, 64
2, 34742, Note_on_c, 0, 31, 0
2, 34742, Note_on_c, 0, 43, 0
2, 34744, Note_on_c, 0, 45, 64
2, 34744, Note_on_c, 0, 33, 64
2, 34762, Note_on_c, 0, 33, 0
2, 34762, Note_on_c, 0, 45, 0
2, 34764, Note_on_c, 0, 47, 64
2, 34764, Note_on_c, 0, 35, 64
2, 34782, Note_on_c, 0, 35, 0
2, 34782, Note_on_c, 0, 47, 0
2, 34785, Note_on_c, 0, 48, 64
2, 34785, Note_on_c, 0, 36, 64
2, 34890, Note_on_c, 0, 36, 0
2, 34890, Note_on_c, 0, 48, 0
2, 34905, Note_on_c, 0, 51, 64
2, 34905, Note_on_c, 0, 39, 64
2, 35010, Note_on_c, 0, 39, 0
2, 35010, Note_on_c, 0, 51, 0
2, 35025, Note_on_c, 0, 47, 64
2, 35025, Note_on_c, 0, 35, 64
2, 35190, Note_on_c, 0, 35, 0
2, 35190, Note_on_c, 0, 47, 0
2, 35205, Note_on_c, 0, 56, 64
2, 35205, Note_on_c, 0, 44, 64
2, 35257, Note_on_c, 0, 44, 0
2, 35257, Note_on_c, 0, 56, 0
2, 35265, Note_on_c, 0, 55, 64
2, 35265, Note_on_c, 0, 43, 64
2, 35317, Note_on_c, 0, 43, 0
2, 35317, Note_on_c, 0, 55, 0
2, 35325, Note_on_c, 0, 53, 64
2, 35325, Note_on_c, 0, 41, 64
2, 35377, Note_on_c, 0, 41, 0
2, 35377, Note_on_c, 0, 53, 0
2, 35385, Note_on_c, 0, 51, 64
2, 35385, Note_on_c, 0, 39, 64
2, 35437, Note_on_c, 0, 39, 0
2, 35437, Note_on_c, 0, 51, 0
2, 35445, Note_on_c, 0, 50, 64
2, 35445, Note_on_c, 0, 38, 64
2, 35497, Note_on_c, 0, 38, 0
2, 35497, Note_on_c, 0, 50, 0
2, 35505, Note_on_c, 0, 51, 64
2, 35505, Note_on_c, 0, 39, 64
2, 35531, Note_on_c, 0, 39, 0
2, 35531, Note_on_c, 0, 51, 0
2, 35535, Note_on_c, 0, 53, 64
2, 35535, Note_on_c, 0, 41, 64
2, 35561, Note_on_c, 0, 41, 0
2, 35561, Note_on_c, 0, 53, 0
2, 35565, Note_on_c, 0, 51, 64
2, 35565, Note_on_c, 0, 39, 64
2, 35591, Note_on_c, 0, 39, 0
2, 35591, Note_on_c, 0, 51, 0
2, 35595, Note_on_c, 0, 50, 64
2, 35595, Note_on_c, 0, 38, 64
2, 35621, Note_on_c, 0, 38, 0
2, 35621, Note_on_c, 0, 50, 0
2, 35625, Note_on_c, 0, 48, 64
2, 35625, Note_on_c, 0, 36, 64
2, 35677, Note_on_c, 0, 36, 0
2, 35677, Note_on_c, 0, 48, 0
2, 35685, Note_on_c, 0, 56, 64
2, 35685, Note_on_c, 0, 43, 64
2, 35737, Note_on_c, 0, 43, 0
2, 35737, Note_on_c, 0, 56, 0
2, 35745, Note_on_c, 0, 55, 64
2, 35745, Note_on_c, 0, 43, 64
2, 35797, Note_on_c, 0, 43, 0
2, 35797, Note_on_c, 0, 55, 0
2, 35805, Note_on_c, 0, 53, 64
2, 35805, Note_on_c, 0, 41, 64
2, 35857, Note_on_c, 0, 41, 0
2, 35857, Note_on_c, 0, 53, 0
2, 35865, Note_on_c, 0, 51, 64
2, 35865, Note_on_c, 0, 39, 64
2, 35917, Note_on_c, 0, 39, 0
2, 35917, Note_on_c, 0, 51, 0
2, 35925, Note_on_c, 0, 50, 64
2, 35925, Note_on_c, 0, 38, 64
2, 35977, Note_on_c, 0, 38, 0
2, 35977, Note_on_c, 0, 50, 0
2, 35985, Note_on_c, 0, 51, 64
2, 35985, Note_on_c, 0, 39, 64
2, 36011, Note_on_c, 0, 39, 0
2, 36011, Note_on_c, 0, 51, 0
2, 36015, Note_on_c, 0, 53, 64
2, 36015, Note_on_c, 0, 41, 64
2, 36041, Note_on_c, 0, 41, 0
2, 36041, Note_on_c, 0, 53, 0
2, 36045, Note_on_c, 0, 51, 64
2, 36045, Note_on_c, 0, 39, 64
2, 36071, Note_on_c, 0, 39, 0
2, 36071, Note_on_c, 0, 51, 0
2, 36075, Note_on_c, 0, 50, 64
2, 36075, Note_on_c, 0, 38, 64
2, 36101, Note_on_c, 0, 38, 0
2, 36101, Note_on_c, 0, 50, 0
2, 36105, Note_on_c, 0, 48, 64
2, 36105, Note_on_c, 0, 36, 64
2, 36131, Note_on_c, 0, 36, 0
2, 36131, Note_on_c, 0, 48, 0
2, 36135, Note_on_c, 0, 56, 64
2, 36135, Note_on_c, 0, 44, 64
2, 36161, Note_on_c, 0, 44, 0
2, 36161, Note_on_c, 0, 56, 0
2, 36165, Note_on_c, 0, 58, 64
2, 36165, Note_on_c, 0, 46, 64
2, 36191, Note_on_c, 0, 46, 0
2, 36191, Note_on_c, 0, 58, 0
2, 36195, Note_on_c, 0, 56, 64
2, 36195, Note_on_c, 0, 44, 64
2, 36221, Note_on_c, 0, 44, 0
2, 36221, Note_on_c, 0, 56, 0
2, 36225, Note_on_c, 0, 55, 64
2, 36225, Note_on_c, 0, 43, 64
2, 36251, Note_on_c, 0, 43, 0
2, 36251, Note_on_c, 0, 55, 0
2, 36255, Note_on_c, 0, 56, 64
2, 36255, Note_on_c, 0, 44, 64
2, 36281, Note_on_c, 0, 44, 0
2, 36281, Note_on_c, 0, 56, 0
2, 36285, Note_on_c, 0, 55, 64
2, 36285, Note_on_c, 0, 43, 64
2, 36311, Note_on_c, 0, 43, 0
2, 36311, Note_on_c, 0, 55, 0
2, 36315, Note_on_c, 0, 53, 64
2, 36315, Note_on_c, 0, 41, 64
2, 36341, Note_on_c, 0, 41, 0
2, 36341, Note_on_c, 0, 53, 0
2, 36345, Note_on_c, 0, 51, 64
2, 36345, Note_on_c, 0, 39, 64
2, 36371, Note_on_c, 0, 39, 0
2, 36371, Note_on_c, 0, 51, 0
2, 36375, Note_on_c, 0, 53, 64
2, 36375, Note_on_c, 0, 41, 64
2, 36401, Note_on_c, 0, 41, 0
2, 36401, Note_on_c, 0, 53, 0
2, 36405, Note_on_c, 0, 51, 64
2, 36405, Note_on_c, 0, 39, 64
2, 36431, Note_on_c, 0, 39, 0
2, 36431, Note_on_c, 0, 51, 0
2, 36435, Note_on_c, 0, 50, 64
2, 36435, Note_on_c, 0, 38, 64
2, 36461, Note_on_c, 0, 38, 0
2, 36461, Note_on_c, 0, 50, 0
2, 36465, Note_on_c, 0, 51, 64
2, 36465, Note_on_c, 0, 39, 64
2, 36491, Note_on_c, 0, 39, 0
2, 36491, Note_on_c, 0, 51, 0
2, 36495, Note_on_c, 0, 53, 64
2, 36495, Note_on_c, 0, 41, 64
2, 36521, Note_on_c, 0, 41, 0
2, 36521, Note_on_c, 0, 53, 0
2, 36525, Note_on_c, 0, 51, 64
2, 36525, Note_on_c, 0, 39, 64
2, 36551, Note_on_c, 0, 39, 0
2, 36551, Note_on_c, 0, 51, 0
2, 36555, Note_on_c, 0, 50, 64
2, 36555, Note_on_c, 0, 38, 64
2, 36581, Note_on_c, 0, 38, 0
2, 36581, Note_on_c, 0, 50, 0
2, 36585, Note_on_c, 0, 48, 64
2, 36585, Note_on_c, 0, 36, 64
2, 36611, Note_on_c, 0, 36, 0
2, 36611, Note_on_c, 0, 48, 0
2, 36615, Note_on_c, 0, 55, 64
2, 36615, Note_on_c, 0, 43, 64
2, 36641, Note_on_c, 0, 43, 0
2, 36641, Note_on_c, 0, 55, 0
2, 36645, Note_on_c, 0, 53, 64
2, 36645, Note_on_c, 0, 41, 64
2, 36671, Note_on_c, 0, 41, 0
2, 36671, Note_on_c, 0, 53, 0
2, 36675, Note_on_c, 0, 51, 64
2, 36675, Note_on_c, 0, 39, 64
2, 36701, Note_on_c, 0, 39, 0
2, 36701, Note_on_c, 0, 51, 0
2, 36705, Note_on_c, 0, 53, 64
2, 36705, Note_on_c, 0, 41, 64
2, 36731, Note_on_c, 0, 41, 0
2, 36731, Note_on_c, 0, 53, 0
2, 36735, Note_on_c, 0, 55, 64
2, 36735, Note_on_c, 0, 43, 64
2, 36761, Note_on_c, 0, 43, 0
2, 36761, Note_on_c, 0, 55, 0
2, 36765, Note_on_c, 0, 53, 64
2, 36765, Note_on_c, 0, 41, 64
2, 36791, Note_on_c, 0, 41, 0
2, 36791, Note_on_c, 0, 53, 0
2, 36795, Note_on_c, 0, 51, 64
2, 36795, Note_on_c, 0, 39, 64
2, 36821, Note_on_c, 0, 39, 0
2, 36821, Note_on_c, 0, 51, 0
2, 36825, Note_on_c, 0, 50, 64
2, 36825, Note_on_c, 0, 38, 64
2, 36851, Note_on_c, 0, 38, 0
2, 36851, Note_on_c, 0, 50, 0
2, 36855, Note_on_c, 0, 56, 64
2, 36855, Note_on_c, 0, 44, 64
2, 36881, Note_on_c, 0, 44, 0
2, 36881, Note_on_c, 0, 56, 0
2, 36885, Note_on_c, 0, 55, 64
2, 36885, Note_on_c, 0, 43, 64
2, 36911, Note_on_c, 0, 43, 0
2, 36911, Note_on_c, 0, 55, 0
2, 36915, Note_on_c, 0, 53, 64
2, 36915, Note_on_c, 0, 41, 64
2, 36941, Note_on_c, 0, 41, 0
2, 36941, Note_on_c, 0, 53, 0
2, 36945, Note_on_c, 0, 55, 64
2, 36945, Note_on_c, 0, 43, 64
2, 36971, Note_on_c, 0, 43, 0
2, 36971, Note_on_c, 0, 55, 0
2, 36975, Note_on_c, 0, 56, 64
2, 36975, Note_on_c, 0, 44, 64
2, 37001, Note_on_c, 0, 44, 0
2, 37001, Note_on_c, 0, 56, 0
2, 37005, Note_on_c, 0, 55, 64
2, 37005, Note_on_c, 0, 43, 64
2, 37031, Note_on_c, 0, 43, 0
2, 37031, Note_on_c, 0, 55, 0
2, 37035, Note_on_c, 0, 53, 64
2, 37035, Note_on_c, 0, 41, 64
2, 37061, Note_on_c, 0, 41, 0
2, 37061, Note_on_c, 0, 53, 0
2, 37065, Note_on_c, 0, 52, 64
2, 37065, Note_on_c, 0, 40, 64
2, 37091, Note_on_c, 0, 40, 0
2, 37091, Note_on_c, 0, 52, 0
2, 37095, Note_on_c, 0, 58, 64
2, 37095, Note_on_c, 0, 46, 64
2, 37121, Note_on_c, 0, 46, 0
2, 37121, Note_on_c, 0, 58, 0
2, 37125, Note_on_c, 0, 56, 64
2, 37125, Note_on_c, 0, 44, 64
2, 37151, Note_on_c, 0, 44, 0
2, 37151, Note_on_c, 0, 56, 0
2, 37155, Note_on_c, 0, 55, 64
2, 37155, Note_on_c, 0, 43, 64
2, 37181, Note_on_c, 0, 43, 0
2, 37181, Note_on_c, 0, 55, 0
2, 37185, Note_on_c, 0, 56, 64
2, 37185, Note_on_c, 0, 44, 64
2, 37211, Note_on_c, 0, 44, 0
2, 37211, Note_on_c, 0, 56, 0
2, 37215, Note_on_c, 0, 60, 64
2, 37215, Note_on_c, 0, 48, 64
2, 37241, Note_on_c, 0, 48, 0
2, 37241, Note_on_c, 0, 60, 0
2, 37245, Note_on_c, 0, 55, 64
2, 37245, Note_on_c, 0, 43, 64
2, 37271, Note_on_c, 0, 43, 0
2, 37271, Note_on_c, 0, 55, 0
2, 37275, Note_on_c, 0, 60, 64
2, 37275, Note_on_c, 0, 48, 64
2, 37301, Note_on_c, 0, 48, 0
2, 37301, Note_on_c, 0, 60, 0
2, 37305, Note_on_c, 0, 53, 64
2, 37305, Note_on_c, 0, 41, 64
2, 37331, Note_on_c, 0, 41, 0
2, 37331, Note_on_c, 0, 53, 0
2, 37335, Note_on_c, 0, 60, 64
2, 37335, Note_on_c, 0, 48, 64
2, 37361, Note_on_c, 0, 48, 0
2, 37361, Note_on_c, 0, 60, 0
2, 37365, Note_on_c, 0, 54, 64
2, 37365, Note_on_c, 0, 42, 64
2, 37391, Note_on_c, 0, 42, 0
2, 37391, Note_on_c, 0, 54, 0
2, 37395, Note_on_c, 0, 60, 64
2, 37395, Note_on_c, 0, 48, 64
2, 37421, Note_on_c, 0, 48, 0
2, 37421, Note_on_c, 0, 60, 0
2, 37425, Note_on_c, 0, 59, 64
2, 37425, Note_on_c, 0, 47, 64
2, 37451, Note_on_c, 0, 47, 0
2, 37451, Note_on_c, 0, 59, 0
2, 37455, Note_on_c, 0, 57, 64
2, 37455, Note_on_c, 0, 45, 64
2, 37481, Note_on_c, 0, 45, 0
2, 37481, Note_on_c, 0, 57, 0
2, 37485, Note_on_c, 0, 55, 64
2, 37485, Note_on_c, 0, 43, 64
2, 37511, Note_on_c, 0, 43, 0
2, 37511, Note_on_c, 0, 55, 0
2, 37515, Note_on_c, 0, 62, 64
2, 37515, Note_on_c, 0, 50, 64
2, 37541, Note_on_c, 0, 50, 0
2, 37541, Note_on_c, 0, 62, 0
2, 37545, Note_on_c, 0, 60, 64
2, 37545, Note_on_c, 0, 48, 64
2, 37571, Note_on_c, 0, 48, 0
2, 37571, Note_on_c, 0, 60, 0
2, 37575, Note_on_c, 0, 59, 64
2, 37575, Note_on_c, 0, 47, 64
2, 37601, Note_on_c, 0, 47, 0
2, 37601, Note_on_c, 0, 59, 0
2, 37605, Note_on_c, 0, 65, 64
2, 37605, Note_on_c, 0, 53, 64
2, 37631, Note_on_c, 0, 53, 0
2, 37631, Note_on_c, 0, 65, 0
2, 37635, Note_on_c, 0, 63, 64
2, 37635, Note_on_c, 0, 51, 64
2, 37661, Note_on_c, 0, 51, 0
2, 37661, Note_on_c, 0, 63, 0
2, 37665, Note_on_c, 0, 62, 64
2, 37665, Note_on_c, 0, 50, 64
2, 37691, Note_on_c, 0, 50, 0
2, 37691, Note_on_c, 0, 62, 0
2, 37695, Note_on_c, 0, 68, 64
2, 37695, Note_on_c, 0, 56, 64
2, 37721, Note_on_c, 0, 56, 0
2, 37721, Note_on_c, 0, 68, 0
2, 37725, Note_on_c, 0, 67, 64
2, 37725, Note_on_c, 0, 55, 64
2, 37751, Note_on_c, 0, 55, 0
2, 37751, Note_on_c, 0, 67, 0
2, 37755, Note_on_c, 0, 65, 64
2, 37755, Note_on_c, 0, 53, 64
2, 37781, Note_on_c, 0, 53, 0
2, 37781, Note_on_c, 0, 65, 0
2, 37785, Note_on_c, 0, 74, 64
2, 37785, Note_on_c, 0, 62, 64
2, 37811, Note_on_c, 0, 62, 0
2, 37811, Note_on_c, 0, 74, 0
2, 37815, Note_on_c, 0, 72, 64
2, 37815, Note_on_c, 0, 60, 64
2, 37841, Note_on_c, 0, 60, 0
2, 37841, Note_on_c, 0, 72, 0
2, 37845, Note_on_c, 0, 71, 64
2, 37845, Note_on_c, 0, 59, 64
2, 37871, Note_on_c, 0, 59, 0
2, 37871, Note_on_c, 0, 71, 0
2, 37875, Note_on_c, 0, 77, 64
2, 37875, Note_on_c, 0, 65, 64
2, 37901, Note_on_c, 0, 65, 0
2, 37901, Note_on_c, 0, 77, 0
2, 37905, Note_on_c, 0, 75, 64
2, 37905, Note_on_c, 0, 63, 64
2, 37931, Note_on_c, 0, 63, 0
2, 37931, Note_on_c, 0, 75, 0
2, 37935, Note_on_c, 0, 74, 64
2, 37935, Note_on_c, 0, 62, 64
2, 37961, Note_on_c, 0, 62, 0
2, 37961, Note_on_c, 0, 74, 0
2, 37965, Note_on_c, 0, 80, 64
2, 37965, Note_on_c, 0, 68, 64
2, 37991, Note_on_c, 0, 68, 0
2, 37991, Note_on_c, 0, 80, 0
2, 37995, Note_on_c, 0, 79, 64
2, 37995, Note_on_c, 0, 67, 64
2, 38021, Note_on_c, 0, 67, 0
2, 38021, Note_on_c, 0, 79, 0
2, 38025, Note_on_c, 0, 77, 64
2, 38025, Note_on_c, 0, 65, 64
2, 38051, Note_on_c, 0, 65, 0
2, 38051, Note_on_c, 0, 77, 0
2, 38055, Note_on_c, 0, 86, 64
2, 38055, Note_on_c, 0, 74, 64
2, 38081, Note_on_c, 0, 74, 0
2, 38081, Note_on_c, 0, 86, 0
2, 38085, Note_on_c, 0, 84, 64
2, 38085, Note_on_c, 0, 72, 64
2, 38111, Note_on_c, 0, 72, 0
2, 38111, Note_on_c, 0, 84, 0
2, 38115, Note_on_c, 0, 83, 64
2, 38115, Note_on_c, 0, 71, 64
2, 38141, Note_on_c, 0, 71, 0
2, 38141, Note_on_c, 0, 83, 0
2, 38145, Note_on_c, 0, 89, 64
2, 38145, Note_on_c, 0, 77, 64
2, 38171, Note_on_c, 0, 77, 0
2, 38171, Note_on_c, 0, 89, 0
2, 38175, Note_on_c, 0, 87, 64
2, 38175, Note_on_c, 0, 75, 64
2, 38201, Note_on_c, 0, 75, 0
2, 38201, Note_on_c, 0, 87, 0
2, 38205, Note_on_c, 0, 86, 64
2, 38205, Note_on_c, 0, 74, 64
2, 38231, Note_on_c, 0, 74, 0
2, 38231, Note_on_c, 0, 86, 0
2, 38235, Note_on_c, 0, 92, 64
2, 38235, Note_on_c, 0, 80, 64
2, 38261, Note_on_c, 0, 80, 0
2, 38261, Note_on_c, 0, 92, 0
2, 38265, Note_on_c, 0, 91, 64
2, 38265, Note_on_c, 0, 79, 64
2, 38291, Note_on_c, 0, 79, 0
2, 38291, Note_on_c, 0, 91, 0
2, 38295, Note_on_c, 0, 89, 64
2, 38295, Note_on_c, 0, 77, 64
2, 38321, Note_on_c, 0, 77, 0
2, 38321, Note_on_c, 0, 89, 0
2, 38325, Note_on_c, 0, 87, 64
2, 38325, Note_on_c, 0, 75, 64
2, 38351, Note_on_c, 0, 75, 0
2, 38351, Note_on_c, 0, 87, 0
2, 38355, Note_on_c, 0, 86, 64
2, 38355, Note_on_c, 0, 74, 64
2, 38381, Note_on_c, 0, 74, 0
2, 38381, Note_on_c, 0, 86, 0
2, 38385, Note_on_c, 0, 84, 64
2, 38385, Note_on_c, 0, 72, 64
2, 38411, Note_on_c, 0, 72, 0
2, 38411, Note_on_c, 0, 84, 0
2, 38415, Note_on_c, 0, 83, 64
2, 38415, Note_on_c, 0, 71, 64
2, 38441, Note_on_c, 0, 71, 0
2, 38441, Note_on_c, 0, 83, 0
2, 38445, Note_on_c, 0, 80, 64
2, 38445, Note_on_c, 0, 68, 64
2, 38471, Note_on_c, 0, 68, 0
2, 38471, Note_on_c, 0, 80, 0
2, 38475, Note_on_c, 0, 79, 64
2, 38475, Note_on_c, 0, 67, 64
2, 38501, Note_on_c, 0, 67, 0
2, 38501, Note_on_c, 0, 79, 0
2, 38505, Note_on_c, 0, 77, 64
2, 38505, Note_on_c, 0, 65, 64
2, 38531, Note_on_c, 0, 65, 0
2, 38531, Note_on_c, 0, 77, 0
2, 38535, Note_on_c, 0, 75, 64
2, 38535, Note_on_c, 0, 63, 64
2, 38561, Note_on_c, 0, 63, 0
2, 38561, Note_on_c, 0, 75, 0
2, 38565, Note_on_c, 0, 74, 64
2, 38565, Note_on_c, 0, 62, 64
2, 38591, Note_on_c, 0, 62, 0
2, 38591, Note_on_c, 0, 74, 0
2, 38595, Note_on_c, 0, 79, 64
2, 38595, Note_on_c, 0, 67, 64
2, 38621, Note_on_c, 0, 67, 0
2, 38621, Note_on_c, 0, 79, 0
2, 38625, Note_on_c, 0, 72, 64
2, 38625, Note_on_c, 0, 63, 64
2, 38625, Note_on_c, 0, 67, 64
2, 38625, Note_on_c, 0, 60, 64
2, 38677, Note_on_c, 0, 67, 0
2, 38677, Note_on_c, 0, 63, 0
2, 38685, Note_on_c, 0, 63, 64
2, 38685, Note_on_c, 0, 67, 64
2, 38730, Note_on_c, 0, 72, 0
2, 38730, Note_on_c, 0, 60, 0
2, 38737, Note_on_c, 0, 63, 0
2, 38737, Note_on_c, 0, 67, 0
2, 38745, Note_on_c, 0, 75, 64
2, 38745, Note_on_c, 0, 63, 64
2, 38745, Note_on_c, 0, 67, 64
2, 38745, Note_on_c, 0, 36, 64
2, 38745, Note_on_c, 0, 48, 64
2, 38797, Note_on_c, 0, 67, 0
2, 38797, Note_on_c, 0, 63, 0
2, 38805, Note_on_c, 0, 63, 64
2, 38805, Note_on_c, 0, 67, 64
2, 38850, Note_on_c, 0, 75, 0
2, 38850, Note_on_c, 0, 48, 0
2, 38850, Note_on_c, 0, 36, 0
2, 38857, Note_on_c, 0, 63, 0
2, 38857, Note_on_c, 0, 67, 0
2, 38865, Note_on_c, 0, 71, 64
2, 38865, Note_on_c, 0, 65, 64
2, 38865, Note_on_c, 0, 67, 64
2, 38917, Note_on_c, 0, 67, 0
2, 38917, Note_on_c, 0, 65, 0
2, 38925, Note_on_c, 0, 65, 64
2, 38925, Note_on_c, 0, 67, 64
2, 38977, Note_on_c, 0, 67, 0
2, 38977, Note_on_c, 0, 65, 0
2, 38985, Note_on_c, 0, 65, 64
2, 38985, Note_on_c, 0, 67, 64
2, 38985, Note_on_c, 0, 31, 64
2, 38985, Note_on_c, 0, 43, 64
2, 39030, Note_on_c, 0, 71, 0
2, 39037, Note_on_c, 0, 65, 0
2, 39037, Note_on_c, 0, 67, 0
2, 39045, Note_on_c, 0, 80, 64
2, 39045, Note_on_c, 0, 65, 64
2, 39045, Note_on_c, 0, 67, 64
2, 39090, Note_on_c, 0, 31, 0
2, 39090, Note_on_c, 0, 43, 0
2, 39097, Note_on_c, 0, 65, 0
2, 39097, Note_on_c, 0, 80, 0
2, 39097, Note_on_c, 0, 67, 0
2, 39105, Note_on_c, 0, 79, 64
2, 39105, Note_on_c, 0, 65, 64
2, 39105, Note_on_c, 0, 67, 64
2, 39157, Note_on_c, 0, 67, 0
2, 39157, Note_on_c, 0, 65, 0
2, 39157, Note_on_c, 0, 79, 0
2, 39165, Note_on_c, 0, 77, 64
2, 39165, Note_on_c, 0, 65, 64
2, 39165, Note_on_c, 0, 67, 64
2, 39165, Note_on_c, 0, 51, 64
2, 39165, Note_on_c, 0, 62, 64
2, 39217, Note_on_c, 0, 62, 0
2, 39217, Note_on_c, 0, 67, 0
2, 39217, Note_on_c, 0, 77, 0
2, 39217, Note_on_c, 0, 65, 0
2, 39217, Note_on_c, 0, 51, 0
2, 39225, Note_on_c, 0, 75, 64
2, 39225, Note_on_c, 0, 65, 64
2, 39225, Note_on_c, 0, 67, 64
2, 39225, Note_on_c, 0, 51, 64
2, 39225, Note_on_c, 0, 60, 64
2, 39277, Note_on_c, 0, 60, 0
2, 39277, Note_on_c, 0, 67, 0
2, 39277, Note_on_c, 0, 75, 0
2, 39277, Note_on_c, 0, 65, 0
2, 39277, Note_on_c, 0, 51, 0
2, 39285, Note_on_c, 0, 74, 64
2, 39285, Note_on_c, 0, 65, 64
2, 39285, Note_on_c, 0, 67, 64
2, 39285, Note_on_c, 0, 51, 64
2, 39285, Note_on_c, 0, 59, 64
2, 39337, Note_on_c, 0, 59, 0
2, 39337, Note_on_c, 0, 67, 0
2, 39337, Note_on_c, 0, 74, 0
2, 39337, Note_on_c, 0, 65, 0
2, 39337, Note_on_c, 0, 51, 0
2, 39345, Note_on_c, 0, 75, 64
2, 39371, Note_on_c, 0, 75, 0
2, 39375, Note_on_c, 0, 77, 64
2, 39401, Note_on_c, 0, 77, 0
2, 39405, Note_on_c, 0, 75, 64
2, 39431, Note_on_c, 0, 75, 0
2, 39435, Note_on_c, 0, 74, 64
2, 39461, Note_on_c, 0, 74, 0
2, 39465, Note_on_c, 0, 72, 64
2, 39465, Note_on_c, 0, 67, 64
2, 39465, Note_on_c, 0, 60, 64
2, 39465, Note_on_c, 0, 63, 64
2, 39517, Note_on_c, 0, 63, 0
2, 39517, Note_on_c, 0, 72, 0
2, 39517, Note_on_c, 0, 67, 0
2, 39517, Note_on_c, 0, 60, 0
2, 39525, Note_on_c, 0, 80, 64
2, 39525, Note_on_c, 0, 67, 64
2, 39525, Note_on_c, 0, 55, 64
2, 39525, Note_on_c, 0, 65, 64
2, 39577, Note_on_c, 0, 65, 0
2, 39577, Note_on_c, 0, 80, 0
2, 39577, Note_on_c, 0, 67, 0
2, 39577, Note_on_c, 0, 55, 0
2, 39585, Note_on_c, 0, 79, 64
2, 39585, Note_on_c, 0, 67, 64
2, 39585, Note_on_c, 0, 55, 64
2, 39585, Note_on_c, 0, 63, 64
2, 39637, Note_on_c, 0, 63, 0
2, 39637, Note_on_c, 0, 79, 0
2, 39637, Note_on_c, 0, 67, 0
2, 39637, Note_on_c, 0, 55, 0
2, 39645, Note_on_c, 0, 77, 64
2, 39645, Note_on_c, 0, 67, 64
2, 39645, Note_on_c, 0, 71, 64
2, 39645, Note_on_c, 0, 55, 64
2, 39645, Note_on_c, 0, 62, 64
2, 39697, Note_on_c, 0, 62, 0
2, 39697, Note_on_c, 0, 71, 0
2, 39697, Note_on_c, 0, 77, 0
2, 39697, Note_on_c, 0, 67, 0
2, 39697, Note_on_c, 0, 55, 0
2, 39705, Note_on_c, 0, 75, 64
2, 39705, Note_on_c, 0, 67, 64
2, 39705, Note_on_c, 0, 72, 64
2, 39705, Note_on_c, 0, 55, 64
2, 39705, Note_on_c, 0, 60, 64
2, 39757, Note_on_c, 0, 60, 0
2, 39757, Note_on_c, 0, 72, 0
2, 39757, Note_on_c, 0, 75, 0
2, 39757, Note_on_c, 0, 67, 0
2, 39757, Note_on_c, 0, 55, 0
2, 39765, Note_on_c, 0, 74, 64
2, 39765, Note_on_c, 0, 67, 64
2, 39765, Note_on_c, 0, 55, 64
2, 39765, Note_on_c, 0, 59, 64
2, 39817, Note_on_c, 0, 59, 0
2, 39817, Note_on_c, 0, 74, 0
2, 39817, Note_on_c, 0, 67, 0
2, 39817, Note_on_c, 0, 55, 0
2, 39825, Note_on_c, 0, 75, 64
2, 39851, Note_on_c, 0, 75, 0
2, 39855, Note_on_c, 0, 77, 64
2, 39881, Note_on_c, 0, 77, 0
2, 39885, Note_on_c, 0, 75, 64
2, 39885, Note_on_c, 0, 67, 64
2, 39885, Note_on_c, 0, 60, 64
2, 39885, Note_on_c, 0, 63, 64
2, 39911, Note_on_c, 0, 75, 0
2, 39915, Note_on_c, 0, 74, 64
2, 39937, Note_on_c, 0, 63, 0
2, 39937, Note_on_c, 0, 60, 0
2, 39941, Note_on_c, 0, 74, 0
2, 39945, Note_on_c, 0, 72, 64
2, 39945, Note_on_c, 0, 60, 64
2, 39945, Note_on_c, 0, 63, 64
2, 39997, Note_on_c, 0, 63, 0
2, 39997, Note_on_c, 0, 67, 0
2, 39997, Note_on_c, 0, 72, 0
2, 39997, Note_on_c, 0, 60, 0
2, 40005, Note_on_c, 0, 92, 64
2, 40005, Note_on_c, 0, 89, 64
2, 40005, Note_on_c, 0, 31, 64
2, 40005, Note_on_c, 0, 43, 64
2, 40031, Note_on_c, 0, 89, 0
2, 40035, Note_on_c, 0, 80, 64
2, 40057, Note_on_c, 0, 92, 0
2, 40057, Note_on_c, 0, 43, 0
2, 40057, Note_on_c, 0, 31, 0
2, 40061, Note_on_c, 0, 80, 0
2, 40065, Note_on_c, 0, 91, 64
2, 40065, Note_on_c, 0, 87, 64
2, 40065, Note_on_c, 0, 31, 64
2, 40065, Note_on_c, 0, 43, 64
2, 40091, Note_on_c, 0, 87, 0
2, 40095, Note_on_c, 0, 79, 64
2, 40117, Note_on_c, 0, 91, 0
2, 40117, Note_on_c, 0, 43, 0
2, 40117, Note_on_c, 0, 31, 0
2, 40121, Note_on_c, 0, 79, 0
2, 40125, Note_on_c, 0, 89, 64
2, 40125, Note_on_c, 0, 86, 64
2, 40125, Note_on_c, 0, 31, 64
2, 40125, Note_on_c, 0, 43, 64
2, 40151, Note_on_c, 0, 86, 0
2, 40155, Note_on_c, 0, 79, 64
2, 40177, Note_on_c, 0, 89, 0
2, 40177, Note_on_c, 0, 43, 0
2, 40177, Note_on_c, 0, 31, 0
2, 40181, Note_on_c, 0, 79, 0
2, 40185, Note_on_c, 0, 87, 64
2, 40185, Note_on_c, 0, 84, 64
2, 40185, Note_on_c, 0, 33, 64
2, 40185, Note_on_c, 0, 45, 64
2, 40211, Note_on_c, 0, 84, 0
2, 40215, Note_on_c, 0, 79, 64
2, 40237, Note_on_c, 0, 87, 0
2, 40237, Note_on_c, 0, 45, 0
2, 40237, Note_on_c, 0, 33, 0
2, 40241, Note_on_c, 0, 79, 0
2, 40245, Note_on_c, 0, 86, 64
2, 40245, Note_on_c, 0, 86, 64
2, 40245, Note_on_c, 0, 35, 64
2, 40245, Note_on_c, 0, 47, 64
2, 40271, Note_on_c, 0, 86, 0
2, 40275, Note_on_c, 0, 77, 64
2, 40275, Note_on_c, 0, 79, 64
2, 40297, Note_on_c, 0, 86, 0
2, 40297, Note_on_c, 0, 47, 0
2, 40297, Note_on_c, 0, 35, 0
2, 40301, Note_on_c, 0, 77, 0
2, 40301, Note_on_c, 0, 79, 0
2, 40305, Note_on_c, 0, 87, 64
2, 40305, Note_on_c, 0, 87, 64
2, 40305, Note_on_c, 0, 36, 64
2, 40305, Note_on_c, 0, 48, 64
2, 40331, Note_on_c, 0, 87, 0
2, 40335, Note_on_c, 0, 79, 64
2, 40357, Note_on_c, 0, 87, 0
2, 40357, Note_on_c, 0, 48, 0
2, 40357, Note_on_c, 0, 36, 0
2, 40361, Note_on_c, 0, 79, 0
2, 40365, Note_on_c, 0, 86, 64
2, 40365, Note_on_c, 0, 86, 64
2, 40365, Note_on_c, 0, 35, 64
2, 40365, Note_on_c, 0, 47, 64
2, 40391, Note_on_c, 0, 86, 0
2, 40395, Note_on_c, 0, 79, 64
2, 40417, Note_on_c, 0, 86, 0
2, 40417, Note_on_c, 0, 47, 0
2, 40417, Note_on_c, 0, 35, 0
2, 40421, Note_on_c, 0, 79, 0
2, 40425, Note_on_c, 0, 84, 64
2, 40425, Note_on_c, 0, 84, 64
2, 40425, Note_on_c, 0, 36, 64
2, 40425, Note_on_c, 0, 48, 64
2, 40451, Note_on_c, 0, 84, 0
2, 40455, Note_on_c, 0, 79, 64
2, 40477, Note_on_c, 0, 84, 0
2, 40477, Note_on_c, 0, 48, 0
2, 40477, Note_on_c, 0, 36, 0
2, 40481, Note_on_c, 0, 79, 0
2, 40485, Note_on_c, 0, 83, 64
2, 40485, Note_on_c, 0, 83, 64
2, 40485, Note_on_c, 0, 38, 64
2, 40485, Note_on_c, 0, 50, 64
2, 40511, Note_on_c, 0, 83, 0
2, 40515, Note_on_c, 0, 79, 64
2, 40537, Note_on_c, 0, 83, 0
2, 40537, Note_on_c, 0, 50, 0
2, 40537, Note_on_c, 0, 38, 0
2, 40541, Note_on_c, 0, 79, 0
2, 40545, Note_on_c, 0, 84, 64
2, 40545, Note_on_c, 0, 79, 64
2, 40545, Note_on_c, 0, 39, 64
2, 40545, Note_on_c, 0, 51, 64
2, 40571, Note_on_c, 0, 79, 0
2, 40575, Note_on_c, 0, 72, 64
2, 40597, Note_on_c, 0, 84, 0
2, 40597, Note_on_c, 0, 51, 0
2, 40597, Note_on_c, 0, 39, 0
2, 40601, Note_on_c, 0, 72, 0
2, 40605, Note_on_c, 0, 82, 64
2, 40605, Note_on_c, 0, 79, 64
2, 40605, Note_on_c, 0, 40, 64
2, 40605, Note_on_c, 0, 52, 64
2, 40631, Note_on_c, 0, 79, 0
2, 40635, Note_on_c, 0, 72, 64
2, 40657, Note_on_c, 0, 82, 0
2, 40657, Note_on_c, 0, 52, 0
2, 40657, Note_on_c, 0, 40, 0
2, 40661, Note_on_c, 0, 72, 0
2, 40665, Note_on_c, 0, 80, 64
2, 40665, Note_on_c, 0, 80, 64
2, 40665, Note_on_c, 0, 41, 64
2, 40665, Note_on_c, 0, 53, 64
2, 40691, Note_on_c, 0, 80, 0
2, 40695, Note_on_c, 0, 72, 64
2, 40717, Note_on_c, 0, 80, 0
2, 40717, Note_on_c, 0, 53, 0
2, 40717, Note_on_c, 0, 41, 0
2, 40721, Note_on_c, 0, 72, 0
2, 40725, Note_on_c, 0, 79, 64
2, 40725, Note_on_c, 0, 79, 64
2, 40725, Note_on_c, 0, 40, 64
2, 40725, Note_on_c, 0, 52, 64
2, 40751, Note_on_c, 0, 79, 0
2, 40755, Note_on_c, 0, 72, 64
2, 40777, Note_on_c, 0, 79, 0
2, 40777, Note_on_c, 0, 52, 0
2, 40777, Note_on_c, 0, 40, 0
2, 40781, Note_on_c, 0, 72, 0
2, 40785, Note_on_c, 0, 80, 64
2, 40785, Note_on_c, 0, 80, 64
2, 40785, Note_on_c, 0, 41, 64
2, 40785, Note_on_c, 0, 53, 64
2, 40811, Note_on_c, 0, 80, 0
2, 40815, Note_on_c, 0, 72, 64
2, 40837, Note_on_c, 0, 80, 0
2, 40837, Note_on_c, 0, 53, 0
2, 40837, Note_on_c, 0, 41, 0
2, 40841, Note_on_c, 0, 72, 0
2, 40845, Note_on_c, 0, 77, 64
2, 40845, Note_on_c, 0, 77, 64
2, 40845, Note_on_c, 0, 56, 64
2, 40845, Note_on_c, 0, 60, 64
2, 40845, Note_on_c, 0, 65, 64
2, 40871, Note_on_c, 0, 77, 0
2, 40875, Note_on_c, 0, 72, 64
2, 40897, Note_on_c, 0, 77, 0
2, 40901, Note_on_c, 0, 72, 0
2, 40905, Note_on_c, 0, 75, 64
2, 40905, Note_on_c, 0, 75, 64
2, 40931, Note_on_c, 0, 75, 0
2, 40935, Note_on_c, 0, 72, 64
2, 40950, Note_on_c, 0, 65, 0
2, 40950, Note_on_c, 0, 60, 0
2, 40950, Note_on_c, 0, 56, 0
2, 40957, Note_on_c, 0, 75, 0
2, 40961, Note_on_c, 0, 72, 0
2, 40965, Note_on_c, 0, 74, 64
2, 40965, Note_on_c, 0, 74, 64
2, 40965, Note_on_c, 0, 56, 64
2, 40965, Note_on_c, 0, 60, 64
2, 40965, Note_on_c, 0, 65, 64
2, 40991, Note_on_c, 0, 74, 0
2, 40995, Note_on_c, 0, 72, 64
2, 41017, Note_on_c, 0, 60, 0
2, 41017, Note_on_c, 0, 65, 0
2, 41017, Note_on_c, 0, 74, 0
2, 41017, Note_on_c, 0, 56, 0
2, 41021, Note_on_c, 0, 72, 0
2, 41025, Note_on_c, 0, 74, 64
2, 41025, Note_on_c, 0, 65, 64
2, 41025, Note_on_c, 0, 60, 64
2, 41025, Note_on_c, 0, 56, 64
2, 41025, Note_on_c, 0, 60, 64
2, 41077, Note_on_c, 0, 74, 0
2, 41085, Note_on_c, 0, 72, 64
2, 41130, Note_on_c, 0, 56, 0
2, 41130, Note_on_c, 0, 60, 0
2, 41130, Note_on_c, 0, 65, 0
2, 41130, Note_on_c, 0, 60, 0
2, 41137, Note_on_c, 0, 72, 0
2, 41145, Note_on_c, 0, 72, 64
2, 41145, Note_on_c, 0, 66, 64
2, 41145, Note_on_c, 0, 63, 64
2, 41145, Note_on_c, 0, 56, 64
2, 41265, Note_on_c, 0, 56, 0
2, 41265, Note_on_c, 0, 66, 0
2, 41265, Note_on_c, 0, 67, 64
2, 41265, Note_on_c, 0, 55, 64
2, 41370, Note_on_c, 0, 55, 0
2, 41370, Note_on_c, 0, 72, 0
2, 41370, Note_on_c, 0, 63, 0
2, 41370, Note_on_c, 0, 67, 0
2, 41385, Note_on_c, 0, 72, 64
2, 41385, Note_on_c, 0, 68, 64
2, 41385, Note_on_c, 0, 63, 64
2, 41385, Note_on_c, 0, 54, 64
2, 41490, Note_on_c, 0, 54, 0
2, 41490, Note_on_c, 0, 72, 0
2, 41490, Note_on_c, 0, 68, 0
2, 41490, Note_on_c, 0, 63, 0
2, 41505, Note_on_c, 0, 67, 64
2, 41505, Note_on_c, 0, 74, 64
2, 41505, Note_on_c, 0, 55, 64
2, 41505, Note_on_c, 0, 63, 64
2, 41531, Note_on_c, 0, 74, 0
2, 41535, Note_on_c, 0, 72, 64
2, 41561, Note_on_c, 0, 72, 0
2, 41565, Note_on_c, 0, 74, 64
2, 41591, Note_on_c, 0, 74, 0
2, 41595, Note_on_c, 0, 72, 64
2, 41610, Note_on_c, 0, 67, 0
2, 41610, Note_on_c, 0, 63, 0
2, 41610, Note_on_c, 0, 55, 0
2, 41621, Note_on_c, 0, 72, 0
2, 41625, Note_on_c, 0, 67, 64
2, 41625, Note_on_c, 0, 75, 64
2, 41625, Note_on_c, 0, 55, 64
2, 41625, Note_on_c, 0, 59, 64
2, 41625, Note_on_c, 0, 65, 64
2, 41677, Note_on_c, 0, 75, 0
2, 41685, Note_on_c, 0, 74, 64
2, 41730, Note_on_c, 0, 59, 0
2, 41730, Note_on_c, 0, 65, 0
2, 41730, Note_on_c, 0, 67, 0
2, 41737, Note_on_c, 0, 74, 0
2, 41745, Note_on_c, 0, 60, 64
2, 41745, Note_on_c, 0, 72, 64
2, 41771, Note_on_c, 0, 55, 0
2, 41775, Note_on_c, 0, 53, 64
2, 41801, Note_on_c, 0, 53, 0
2, 41805, Note_on_c, 0, 51, 64
2, 41831, Note_on_c, 0, 51, 0
2, 41835, Note_on_c, 0, 50, 64
2, 41850, Note_on_c, 0, 72, 0
2, 41850, Note_on_c, 0, 60, 0
2, 41861, Note_on_c, 0, 50, 0
2, 41865, Note_on_c, 0, 63, 64
2, 41865, Note_on_c, 0, 48, 64
2, 41891, Note_on_c, 0, 48, 0
2, 41895, Note_on_c, 0, 50, 64
2, 41921, Note_on_c, 0, 50, 0
2, 41925, Note_on_c, 0, 51, 64
2, 41951, Note_on_c, 0, 51, 0
2, 41955, Note_on_c, 0, 48, 64
2, 41970, Note_on_c, 0, 63, 0
2, 41981, Note_on_c, 0, 48, 0
2, 41985, Note_on_c, 0, 59, 64
2, 41985, Note_on_c, 0, 50, 64
2, 42011, Note_on_c, 0, 50, 0
2, 42015, Note_on_c, 0, 48, 64
2, 42041, Note_on_c, 0, 48, 0
2, 42045, Note_on_c, 0, 47, 64
2, 42071, Note_on_c, 0, 47, 0
2, 42075, Note_on_c, 0, 45, 64
2, 42101, Note_on_c, 0, 45, 0
2, 42105, Note_on_c, 0, 43, 64
2, 42131, Note_on_c, 0, 43, 0
2, 42131, Note_on_c, 0, 59, 0
2, 42135, Note_on_c, 0, 62, 64
2, 42135, Note_on_c, 0, 47, 64
2, 42161, Note_on_c, 0, 47, 0
2, 42161, Note_on_c, 0, 62, 0
2, 42165, Note_on_c, 0, 65, 64
2, 42165, Note_on_c, 0, 50, 64
2, 42191, Note_on_c, 0, 50, 0
2, 42191, Note_on_c, 0, 65, 0
2, 42195, Note_on_c, 0, 68, 64
2, 42195, Note_on_c, 0, 53, 64
2, 42221, Note_on_c, 0, 53, 0
2, 42221, Note_on_c, 0, 68, 0
2, 42225, Note_on_c, 0, 67, 64
2, 42225, Note_on_c, 0, 51, 64
2, 42251, Note_on_c, 0, 67, 0
2, 42255, Note_on_c, 0, 68, 64
2, 42277, Note_on_c, 0, 51, 0
2, 42281, Note_on_c, 0, 68, 0
2, 42285, Note_on_c, 0, 67, 64
2, 42285, Note_on_c, 0, 31, 64
2, 42285, Note_on_c, 0, 43, 64
2, 42311, Note_on_c, 0, 67, 0
2, 42315, Note_on_c, 0, 65, 64
2, 42337, Note_on_c, 0, 43, 0
2, 42337, Note_on_c, 0, 31, 0
2, 42341, Note_on_c, 0, 65, 0
2, 42345, Note_on_c, 0, 63, 64
2, 42345, Note_on_c, 0, 36, 64
2, 42345, Note_on_c, 0, 48, 64
2, 42371, Note_on_c, 0, 63, 0
2, 42375, Note_on_c, 0, 65, 64
2, 42397, Note_on_c, 0, 48, 0
2, 42397, Note_on_c, 0, 36, 0
2, 42401, Note_on_c, 0, 65, 0
2, 42405, Note_on_c, 0, 63, 64
2, 42405, Note_on_c, 0, 34, 64
2, 42405, Note_on_c, 0, 47, 64
2, 42431, Note_on_c, 0, 63, 0
2, 42435, Note_on_c, 0, 62, 64
2, 42457, Note_on_c, 0, 47, 0
2, 42457, Note_on_c, 0, 34, 0
2, 42461, Note_on_c, 0, 62, 0
2, 42465, Note_on_c, 0, 63, 64
2, 42465, Note_on_c, 0, 36, 64
2, 42465, Note_on_c, 0, 48, 64
2, 42491, Note_on_c, 0, 63, 0
2, 42495, Note_on_c, 0, 65, 64
2, 42517, Note_on_c, 0, 48, 0
2, 42517, Note_on_c, 0, 36, 0
2, 42521, Note_on_c, 0, 65, 0
2, 42525, Note_on_c, 0, 63, 64
2, 42525, Note_on_c, 0, 41, 64
2, 42525, Note_on_c, 0, 53, 64
2, 42551, Note_on_c, 0, 63, 0
2, 42555, Note_on_c, 0, 62, 64
2, 42577, Note_on_c, 0, 53, 0
2, 42577, Note_on_c, 0, 41, 0
2, 42581, Note_on_c, 0, 62, 0
2, 42585, Note_on_c, 0, 60, 64
2, 42585, Note_on_c, 0, 39, 64
2, 42585, Note_on_c, 0, 51, 64
2, 42611, Note_on_c, 0, 60, 0
2, 42615, Note_on_c, 0, 63, 64
2, 42637, Note_on_c, 0, 51, 0
2, 42637, Note_on_c, 0, 39, 0
2, 42641, Note_on_c, 0, 63, 0
2, 42645, Note_on_c, 0, 67, 64
2, 42645, Note_on_c, 0, 36, 64
2, 42645, Note_on_c, 0, 48, 64
2, 42671, Note_on_c, 0, 67, 0
2, 42675, Note_on_c, 0, 70, 64
2, 42697, Note_on_c, 0, 48, 0
2, 42697, Note_on_c, 0, 36, 0
2, 42701, Note_on_c, 0, 70, 0
2, 42705, Note_on_c, 0, 68, 64
2, 42731, Note_on_c, 0, 68, 0
2, 42735, Note_on_c, 0, 70, 64
2, 42761, Note_on_c, 0, 70, 0
2, 42765, Note_on_c, 0, 68, 64
2, 42765, Note_on_c, 0, 36, 64
2, 42765, Note_on_c, 0, 48, 64
2, 42791, Note_on_c, 0, 68, 0
2, 42795, Note_on_c, 0, 67, 64
2, 42817, Note_on_c, 0, 48, 0
2, 42817, Note_on_c, 0, 36, 0
2, 42821, Note_on_c, 0, 67, 0
2, 42825, Note_on_c, 0, 65, 64
2, 42825, Note_on_c, 0, 38, 64
2, 42825, Note_on_c, 0, 50, 64
2, 42851, Note_on_c, 0, 65, 0
2, 42855, Note_on_c, 0, 67, 64
2, 42877, Note_on_c, 0, 50, 0
2, 42877, Note_on_c, 0, 38, 0
2, 42881, Note_on_c, 0, 67, 0
2, 42885, Note_on_c, 0, 65, 64
2, 42885, Note_on_c, 0, 36, 64
2, 42885, Note_on_c, 0, 48, 64
2, 42911, Note_on_c, 0, 65, 0
2, 42915, Note_on_c, 0, 63, 64
2, 42937, Note_on_c, 0, 48, 0
2, 42937, Note_on_c, 0, 36, 0
2, 42941, Note_on_c, 0, 63, 0
2, 42945, Note_on_c, 0, 65, 64
2, 42945, Note_on_c, 0, 38, 64
2, 42945, Note_on_c, 0, 50, 64
2, 42971, Note_on_c, 0, 65, 0
2, 42975, Note_on_c, 0, 67, 64
2, 42997, Note_on_c, 0, 50, 0
2, 42997, Note_on_c, 0, 38, 0
2, 43001, Note_on_c, 0, 67, 0
2, 43005, Note_on_c, 0, 65, 64
2, 43005, Note_on_c, 0, 43, 64
2, 43005, Note_on_c, 0, 55, 64
2, 43031, Note_on_c, 0, 65, 0
2, 43035, Note_on_c, 0, 63, 64
2, 43057, Note_on_c, 0, 55, 0
2, 43057, Note_on_c, 0, 43, 0
2, 43061, Note_on_c, 0, 63, 0
2, 43065, Note_on_c, 0, 62, 64
2, 43065, Note_on_c, 0, 41, 64
2, 43065, Note_on_c, 0, 53, 64
2, 43091, Note_on_c, 0, 62, 0
2, 43095, Note_on_c, 0, 65, 64
2, 43117, Note_on_c, 0, 53, 0
2, 43117, Note_on_c, 0, 41, 0
2, 43121, Note_on_c, 0, 65, 0
2, 43125, Note_on_c, 0, 68, 64
2, 43125, Note_on_c, 0, 39, 64
2, 43125, Note_on_c, 0, 51, 64
2, 43151, Note_on_c, 0, 68, 0
2, 43155, Note_on_c, 0, 72, 64
2, 43177, Note_on_c, 0, 51, 0
2, 43177, Note_on_c, 0, 39, 0
2, 43181, Note_on_c, 0, 72, 0
2, 43185, Note_on_c, 0, 70, 64
2, 43185, Note_on_c, 0, 38, 64
2, 43185, Note_on_c, 0, 50, 64
2, 43211, Note_on_c, 0, 70, 0
2, 43215, Note_on_c, 0, 72, 64
2, 43237, Note_on_c, 0, 50, 0
2, 43237, Note_on_c, 0, 38, 0
2, 43241, Note_on_c, 0, 72, 0
2, 43245, Note_on_c, 0, 70, 64
2, 43245, Note_on_c, 0, 34, 64
2, 43245, Note_on_c, 0, 46, 64
2, 43271, Note_on_c, 0, 70, 0
2, 43275, Note_on_c, 0, 68, 64
2, 43297, Note_on_c, 0, 46, 0
2, 43297, Note_on_c, 0, 34, 0
2, 43301, Note_on_c, 0, 68, 0
2, 43305, Note_on_c, 0, 67, 64
2, 43305, Note_on_c, 0, 36, 64
2, 43305, Note_on_c, 0, 48, 64
2, 43331, Note_on_c, 0, 67, 0
2, 43335, Note_on_c, 0, 68, 64
2, 43357, Note_on_c, 0, 48, 0
2, 43357, Note_on_c, 0, 36, 0
2, 43361, Note_on_c, 0, 68, 0
2, 43365, Note_on_c, 0, 67, 64
2, 43365, Note_on_c, 0, 38, 64
2, 43365, Note_on_c, 0, 50, 64
2, 43391, Note_on_c, 0, 67, 0
2, 43395, Note_on_c, 0, 65, 64
2, 43417, Note_on_c, 0, 50, 0
2, 43417, Note_on_c, 0, 38, 0
2, 43421, Note_on_c, 0, 65, 0
2, 43425, Note_on_c, 0, 67, 64
2, 43425, Note_on_c, 0, 39, 64
2, 43425, Note_on_c, 0, 51, 64
2, 43451, Note_on_c, 0, 67, 0
2, 43455, Note_on_c, 0, 70, 64
2, 43481, Note_on_c, 0, 70, 0
2, 43485, Note_on_c, 0, 68, 64
2, 43511, Note_on_c, 0, 68, 0
2, 43515, Note_on_c, 0, 67, 64
2, 43530, Note_on_c, 0, 51, 0
2, 43530, Note_on_c, 0, 39, 0
2, 43541, Note_on_c, 0, 67, 0
2, 43545, Note_on_c, 0, 65, 64
2, 43545, Note_on_c, 0, 41, 64
2, 43545, Note_on_c, 0, 55, 64
2, 43571, Note_on_c, 0, 65, 0
2, 43575, Note_on_c, 0, 63, 64
2, 43601, Note_on_c, 0, 63, 0
2, 43605, Note_on_c, 0, 62, 64
2, 43631, Note_on_c, 0, 62, 0
2, 43635, Note_on_c, 0, 63, 64
2, 43650, Note_on_c, 0, 55, 0
2, 43650, Note_on_c, 0, 41, 0
2, 43661, Note_on_c, 0, 63, 0
2, 43665, Note_on_c, 0, 65, 64
2, 43665, Note_on_c, 0, 38, 64
2, 43665, Note_on_c, 0, 50, 64
2, 43691, Note_on_c, 0, 65, 0
2, 43695, Note_on_c, 0, 59, 64
2, 43717, Note_on_c, 0, 50, 0
2, 43717, Note_on_c, 0, 38, 0
2, 43721, Note_on_c, 0, 59, 0
2, 43725, Note_on_c, 0, 58, 64
2, 43725, Note_on_c, 0, 38, 64
2, 43751, Note_on_c, 0, 58, 0
2, 43755, Note_on_c, 0, 59, 64
2, 43781, Note_on_c, 0, 59, 0
2, 43785, Note_on_c, 0, 58, 64
2, 43811, Note_on_c, 0, 58, 0
2, 43811, Note_on_c, 0, 38, 0
2, 43815, Note_on_c, 0, 62, 64
2, 43815, Note_on_c, 0, 41, 64
2, 43841, Note_on_c, 0, 41, 0
2, 43841, Note_on_c, 0, 62, 0
2, 43845, Note_on_c, 0, 65, 64
2, 43845, Note_on_c, 0, 44, 64
2, 43871, Note_on_c, 0, 44, 0
2, 43871, Note_on_c, 0, 65, 0
2, 43875, Note_on_c, 0, 68, 64
2, 43875, Note_on_c, 0, 48, 64
2, 43901, Note_on_c, 0, 48, 0
2, 43901, Note_on_c, 0, 68, 0
2, 43905, Note_on_c, 0, 55, 64
2, 43905, Note_on_c, 0, 67, 64
2, 43905, Note_on_c, 0, 46, 64
2, 43931, Note_on_c, 0, 46, 0
2, 43935, Note_on_c, 0, 48, 64
2, 43957, Note_on_c, 0, 67, 0
2, 43957, Note_on_c, 0, 55, 0
2, 43961, Note_on_c, 0, 48, 0
2, 43965, Note_on_c, 0, 53, 64
2, 43965, Note_on_c, 0, 65, 64
2, 43965, Note_on_c, 0, 46, 64
2, 43991, Note_on_c, 0, 46, 0
2, 43995, Note_on_c, 0, 44, 64
2, 44017, Note_on_c, 0, 65, 0
2, 44017, Note_on_c, 0, 53, 0
2, 44021, Note_on_c, 0, 44, 0
2, 44025, Note_on_c, 0, 58, 64
2, 44025, Note_on_c, 0, 70, 64
2, 44025, Note_on_c, 0, 43, 64
2, 44051, Note_on_c, 0, 43, 0
2, 44055, Note_on_c, 0, 44, 64
2, 44077, Note_on_c, 0, 70, 0
2, 44077, Note_on_c, 0, 58, 0
2, 44081, Note_on_c, 0, 44, 0
2, 44085, Note_on_c, 0, 56, 64
2, 44085, Note_on_c, 0, 68, 64
2, 44085, Note_on_c, 0, 43, 64
2, 44111, Note_on_c, 0, 43, 0
2, 44115, Note_on_c, 0, 41, 64
2, 44137, Note_on_c, 0, 68, 0
2, 44137, Note_on_c, 0, 56, 0
2, 44141, Note_on_c, 0, 41, 0
2, 44145, Note_on_c, 0, 58, 64
2, 44145, Note_on_c, 0, 70, 64
2, 44145, Note_on_c, 0, 43, 64
2, 44171, Note_on_c, 0, 43, 0
2, 44175, Note_on_c, 0, 44, 64
2, 44197, Note_on_c, 0, 70, 0
2, 44197, Note_on_c, 0, 58, 0
2, 44201, Note_on_c, 0, 44, 0
2, 44205, Note_on_c, 0, 61, 64
2, 44205, Note_on_c, 0, 73, 64
2, 44205, Note_on_c, 0, 43, 64
2, 44231, Note_on_c, 0, 43, 0
2, 44235, Note_on_c, 0, 41, 64
2, 44257, Note_on_c, 0, 73, 0
2, 44257, Note_on_c, 0, 61, 0
2, 44261, Note_on_c, 0, 41, 0
2, 44265, Note_on_c, 0, 60, 64
2, 44265, Note_on_c, 0, 72, 64
2, 44265, Note_on_c, 0, 40, 64
2, 44291, Note_on_c, 0, 40, 0
2, 44295, Note_on_c, 0, 43, 64
2, 44317, Note_on_c, 0, 72, 0
2, 44317, Note_on_c, 0, 60, 0
2, 44321, Note_on_c, 0, 43, 0
2, 44325, Note_on_c, 0, 55, 64
2, 44325, Note_on_c, 0, 67, 64
2, 44325, Note_on_c, 0, 46, 64
2, 44351, Note_on_c, 0, 46, 0
2, 44355, Note_on_c, 0, 49, 64
2, 44377, Note_on_c, 0, 67, 0
2, 44377, Note_on_c, 0, 55, 0
2, 44381, Note_on_c, 0, 49, 0
2, 44385, Note_on_c, 0, 48, 64
2, 44411, Note_on_c, 0, 48, 0
2, 44415, Note_on_c, 0, 49, 64
2, 44441, Note_on_c, 0, 49, 0
2, 44445, Note_on_c, 0, 55, 64
2, 44445, Note_on_c, 0, 67, 64
2, 44445, Note_on_c, 0, 48, 64
2, 44471, Note_on_c, 0, 48, 0
2, 44475, Note_on_c, 0, 46, 64
2, 44497, Note_on_c, 0, 67, 0
2, 44497, Note_on_c, 0, 55, 0
2, 44501, Note_on_c, 0, 46, 0
2, 44505, Note_on_c, 0, 60, 64
2, 44505, Note_on_c, 0, 72, 64
2, 44505, Note_on_c, 0, 44, 64
2, 44531, Note_on_c, 0, 44, 0
2, 44535, Note_on_c, 0, 46, 64
2, 44557, Note_on_c, 0, 72, 0
2, 44557, Note_on_c, 0, 60, 0
2, 44561, Note_on_c, 0, 46, 0
2, 44565, Note_on_c, 0, 58, 64
2, 44565, Note_on_c, 0, 70, 64
2, 44565, Note_on_c, 0, 44, 64
2, 44591, Note_on_c, 0, 44, 0
2, 44595, Note_on_c, 0, 43, 64
2, 44617, Note_on_c, 0, 70, 0
2, 44617, Note_on_c, 0, 58, 0
2, 44621, Note_on_c, 0, 43, 0
2, 44625, Note_on_c, 0, 60, 64
2, 44625, Note_on_c, 0, 72, 64
2, 44625, Note_on_c, 0, 44, 64
2, 44651, Note_on_c, 0, 44, 0
2, 44655, Note_on_c, 0, 46, 64
2, 44677, Note_on_c, 0, 72, 0
2, 44677, Note_on_c, 0, 60, 0
2, 44681, Note_on_c, 0, 46, 0
2, 44685, Note_on_c, 0, 63, 64
2, 44685, Note_on_c, 0, 75, 64
2, 44685, Note_on_c, 0, 44, 64
2, 44711, Note_on_c, 0, 44, 0
2, 44715, Note_on_c, 0, 42, 64
2, 44737, Note_on_c, 0, 75, 0
2, 44737, Note_on_c, 0, 63, 0
2, 44741, Note_on_c, 0, 42, 0
2, 44745, Note_on_c, 0, 63, 64
2, 44745, Note_on_c, 0, 75, 64
2, 44745, Note_on_c, 0, 41, 64
2, 44771, Note_on_c, 0, 41, 0
2, 44775, Note_on_c, 0, 45, 64
2, 44797, Note_on_c, 0, 75, 0
2, 44797, Note_on_c, 0, 63, 0
2, 44801, Note_on_c, 0, 45, 0
2, 44805, Note_on_c, 0, 57, 64
2, 44805, Note_on_c, 0, 69, 64
2, 44805, Note_on_c, 0, 48, 64
2, 44831, Note_on_c, 0, 48, 0
2, 44835, Note_on_c, 0, 51, 64
2, 44857, Note_on_c, 0, 69, 0
2, 44857, Note_on_c, 0, 57, 0
2, 44861, Note_on_c, 0, 51, 0
2, 44865, Note_on_c, 0, 49, 64
2, 44891, Note_on_c, 0, 49, 0
2, 44895, Note_on_c, 0, 51, 64
2, 44921, Note_on_c, 0, 51, 0
2, 44925, Note_on_c, 0, 58, 64
2, 44925, Note_on_c, 0, 70, 64
2, 44925, Note_on_c, 0, 49, 64
2, 44951, Note_on_c, 0, 49, 0
2, 44955, Note_on_c, 0, 48, 64
2, 44977, Note_on_c, 0, 70, 0
2, 44977, Note_on_c, 0, 58, 0
2, 44981, Note_on_c, 0, 48, 0
2, 44985, Note_on_c, 0, 62, 64
2, 44985, Note_on_c, 0, 74, 64
2, 44985, Note_on_c, 0, 46, 64
2, 45011, Note_on_c, 0, 46, 0
2, 45015, Note_on_c, 0, 48, 64
2, 45037, Note_on_c, 0, 74, 0
2, 45037, Note_on_c, 0, 62, 0
2, 45041, Note_on_c, 0, 48, 0
2, 45045, Note_on_c, 0, 60, 64
2, 45045, Note_on_c, 0, 72, 64
2, 45045, Note_on_c, 0, 46, 64
2, 45071, Note_on_c, 0, 46, 0
2, 45075, Note_on_c, 0, 45, 64
2, 45097, Note_on_c, 0, 72, 0
2, 45097, Note_on_c, 0, 60, 0
2, 45101, Note_on_c, 0, 45, 0
2, 45105, Note_on_c, 0, 61, 64
2, 45105, Note_on_c, 0, 73, 64
2, 45105, Note_on_c, 0, 46, 64
2, 45131, Note_on_c, 0, 46, 0
2, 45135, Note_on_c, 0, 48, 64
2, 45157, Note_on_c, 0, 73, 0
2, 45157, Note_on_c, 0, 61, 0
2, 45161, Note_on_c, 0, 48, 0
2, 45165, Note_on_c, 0, 65, 64
2, 45165, Note_on_c, 0, 77, 64
2, 45165, Note_on_c, 0, 46, 64
2, 45191, Note_on_c, 0, 46, 0
2, 45195, Note_on_c, 0, 44, 64
2, 45217, Note_on_c, 0, 77, 0
2, 45217, Note_on_c, 0, 65, 0
2, 45221, Note_on_c, 0, 44, 0
2, 45225, Note_on_c, 0, 63, 64
2, 45225, Note_on_c, 0, 75, 64
2, 45225, Note_on_c, 0, 43, 64
2, 45251, Note_on_c, 0, 43, 0
2, 45255, Note_on_c, 0, 46, 64
2, 45277, Note_on_c, 0, 75, 0
2, 45277, Note_on_c, 0, 63, 0
2, 45281, Note_on_c, 0, 46, 0
2, 45285, Note_on_c, 0, 70, 64
2, 45285, Note_on_c, 0, 49, 64
2, 45311, Note_on_c, 0, 49, 0
2, 45311, Note_on_c, 0, 70, 0
2, 45315, Note_on_c, 0, 68, 64
2, 45315, Note_on_c, 0, 53, 64
2, 45341, Note_on_c, 0, 53, 0
2, 45341, Note_on_c, 0, 68, 0
2, 45345, Note_on_c, 0, 67, 64
2, 45345, Note_on_c, 0, 51, 64
2, 45371, Note_on_c, 0, 51, 0
2, 45371, Note_on_c, 0, 67, 0
2, 45375, Note_on_c, 0, 63, 64
2, 45375, Note_on_c, 0, 53, 64
2, 45401, Note_on_c, 0, 53, 0
2, 45401, Note_on_c, 0, 63, 0
2, 45405, Note_on_c, 0, 65, 64
2, 45405, Note_on_c, 0, 51, 64
2, 45431, Note_on_c, 0, 51, 0
2, 45431, Note_on_c, 0, 65, 0
2, 45435, Note_on_c, 0, 67, 64
2, 45435, Note_on_c, 0, 49, 64
2, 45461, Note_on_c, 0, 49, 0
2, 45461, Note_on_c, 0, 67, 0
2, 45465, Note_on_c, 0, 68, 64
2, 45465, Note_on_c, 0, 48, 64
2, 45491, Note_on_c, 0, 48, 0
2, 45491, Note_on_c, 0, 68, 0
2, 45495, Note_on_c, 0, 67, 64
2, 45495, Note_on_c, 0, 49, 64
2, 45521, Note_on_c, 0, 49, 0
2, 45521, Note_on_c, 0, 67, 0
2, 45525, Note_on_c, 0, 68, 64
2, 45525, Note_on_c, 0, 48, 64
2, 45551, Note_on_c, 0, 48, 0
2, 45551, Note_on_c, 0, 68, 0
2, 45555, Note_on_c, 0, 70, 64
2, 45555, Note_on_c, 0, 46, 64
2, 45581, Note_on_c, 0, 46, 0
2, 45581, Note_on_c, 0, 70, 0
2, 45585, Note_on_c, 0, 72, 64
2, 45585, Note_on_c, 0, 80, 64
2, 45585, Note_on_c, 0, 44, 64
2, 45611, Note_on_c, 0, 72, 0
2, 45615, Note_on_c, 0, 73, 64
2, 45641, Note_on_c, 0, 73, 0
2, 45645, Note_on_c, 0, 72, 64
2, 45671, Note_on_c, 0, 72, 0
2, 45675, Note_on_c, 0, 70, 64
2, 45690, Note_on_c, 0, 44, 0
2, 45690, Note_on_c, 0, 80, 0
2, 45701, Note_on_c, 0, 70, 0
2, 45705, Note_on_c, 0, 84, 64
2, 45705, Note_on_c, 0, 68, 64
2, 45731, Note_on_c, 0, 68, 0
2, 45735, Note_on_c, 0, 72, 64
2, 45761, Note_on_c, 0, 72, 0
2, 45765, Note_on_c, 0, 70, 64
2, 45791, Note_on_c, 0, 70, 0
2, 45795, Note_on_c, 0, 68, 64
2, 45810, Note_on_c, 0, 84, 0
2, 45821, Note_on_c, 0, 68, 0
2, 45825, Note_on_c, 0, 79, 64
2, 45825, Note_on_c, 0, 70, 64
2, 45851, Note_on_c, 0, 70, 0
2, 45855, Note_on_c, 0, 68, 64
2, 45881, Note_on_c, 0, 68, 0
2, 45885, Note_on_c, 0, 67, 64
2, 45911, Note_on_c, 0, 67, 0
2, 45915, Note_on_c, 0, 65, 64
2, 45941, Note_on_c, 0, 65, 0
2, 45945, Note_on_c, 0, 63, 64
2, 45971, Note_on_c, 0, 63, 0
2, 45971, Note_on_c, 0, 79, 0
2, 45975, Note_on_c, 0, 82, 64
2, 45975, Note_on_c, 0, 67, 64
2, 46001, Note_on_c, 0, 67, 0
2, 46001, Note_on_c, 0, 82, 0
2, 46005, Note_on_c, 0, 85, 64
2, 46005, Note_on_c, 0, 70, 64
2, 46031, Note_on_c, 0, 70, 0
2, 46031, Note_on_c, 0, 85, 0
2, 46035, Note_on_c, 0, 89, 64
2, 46035, Note_on_c, 0, 73, 64
2, 46061, Note_on_c, 0, 73, 0
2, 46061, Note_on_c, 0, 89, 0
2, 46065, Note_on_c, 0, 87, 64
2, 46065, Note_on_c, 0, 72, 64
2, 46091, Note_on_c, 0, 87, 0
2, 46095, Note_on_c, 0, 89, 64
2, 46117, Note_on_c, 0, 72, 0
2, 46121, Note_on_c, 0, 89, 0
2, 46125, Note_on_c, 0, 87, 64
2, 46125, Note_on_c, 0, 55, 64
2, 46125, Note_on_c, 0, 67, 64
2, 46151, Note_on_c, 0, 87, 0
2, 46155, Note_on_c, 0, 85, 64
2, 46177, Note_on_c, 0, 67, 0
2, 46177, Note_on_c, 0, 55, 0
2, 46181, Note_on_c, 0, 85, 0
2, 46185, Note_on_c, 0, 84, 64
2, 46185, Note_on_c, 0, 56, 64
2, 46185, Note_on_c, 0, 68, 64
2, 46211, Note_on_c, 0, 84, 0
2, 46215, Note_on_c, 0, 85, 64
2, 46237, Note_on_c, 0, 68, 0
2, 46237, Note_on_c, 0, 56, 0
2, 46241, Note_on_c, 0, 85, 0
2, 46245, Note_on_c, 0, 84, 64
2, 46245, Note_on_c, 0, 55, 64
2, 46245, Note_on_c, 0, 67, 64
2, 46271, Note_on_c, 0, 84, 0
2, 46275, Note_on_c, 0, 82, 64
2, 46297, Note_on_c, 0, 67, 0
2, 46297, Note_on_c, 0, 55, 0
2, 46301, Note_on_c, 0, 82, 0
2, 46305, Note_on_c, 0, 84, 64
2, 46305, Note_on_c, 0, 56, 64
2, 46305, Note_on_c, 0, 68, 64
2, 46331, Note_on_c, 0, 84, 0
2, 46335, Note_on_c, 0, 85, 64
2, 46357, Note_on_c, 0, 68, 0
2, 46357, Note_on_c, 0, 56, 0
2, 46361, Note_on_c, 0, 85, 0
2, 46365, Note_on_c, 0, 84, 64
2, 46365, Note_on_c, 0, 61, 64
2, 46365, Note_on_c, 0, 73, 64
2, 46391, Note_on_c, 0, 84, 0
2, 46395, Note_on_c, 0, 82, 64
2, 46417, Note_on_c, 0, 73, 0
2, 46417, Note_on_c, 0, 61, 0
2, 46421, Note_on_c, 0, 82, 0
2, 46425, Note_on_c, 0, 81, 64
2, 46425, Note_on_c, 0, 60, 64
2, 46425, Note_on_c, 0, 72, 64
2, 46451, Note_on_c, 0, 81, 0
2, 46455, Note_on_c, 0, 84, 64
2, 46477, Note_on_c, 0, 72, 0
2, 46477, Note_on_c, 0, 60, 0
2, 46481, Note_on_c, 0, 84, 0
2, 46485, Note_on_c, 0, 87, 64
2, 46485, Note_on_c, 0, 57, 64
2, 46485, Note_on_c, 0, 69, 64
2, 46511, Note_on_c, 0, 87, 0
2, 46515, Note_on_c, 0, 90, 64
2, 46537, Note_on_c, 0, 69, 0
2, 46537, Note_on_c, 0, 57, 0
2, 46541, Note_on_c, 0, 90, 0
2, 46545, Note_on_c, 0, 89, 64
2, 46571, Note_on_c, 0, 89, 0
2, 46575, Note_on_c, 0, 90, 64
2, 46601, Note_on_c, 0, 90, 0
2, 46605, Note_on_c, 0, 89, 64
2, 46605, Note_on_c, 0, 57, 64
2, 46605, Note_on_c, 0, 69, 64
2, 46631, Note_on_c, 0, 89, 0
2, 46635, Note_on_c, 0, 87, 64
2, 46657, Note_on_c, 0, 69, 0
2, 46657, Note_on_c, 0, 57, 0
2, 46661, Note_on_c, 0, 87, 0
2, 46665, Note_on_c, 0, 85, 64
2, 46665, Note_on_c, 0, 58, 64
2, 46665, Note_on_c, 0, 70, 64
2, 46691, Note_on_c, 0, 85, 0
2, 46695, Note_on_c, 0, 87, 64
2, 46717, Note_on_c, 0, 70, 0
2, 46717, Note_on_c, 0, 58, 0
2, 46721, Note_on_c, 0, 87, 0
2, 46725, Note_on_c, 0, 85, 64
2, 46725, Note_on_c, 0, 57, 64
2, 46725, Note_on_c, 0, 69, 64
2, 46751, Note_on_c, 0, 85, 0
2, 46755, Note_on_c, 0, 84, 64
2, 46777, Note_on_c, 0, 69, 0
2, 46777, Note_on_c, 0, 57, 0
2, 46781, Note_on_c, 0, 84, 0
2, 46785, Note_on_c, 0, 85, 64
2, 46785, Note_on_c, 0, 58, 64
2, 46785, Note_on_c, 0, 70, 64
2, 46811, Note_on_c, 0, 85, 0
2, 46815, Note_on_c, 0, 87, 64
2, 46837, Note_on_c, 0, 70, 0
2, 46837, Note_on_c, 0, 58, 0
2, 46841, Note_on_c, 0, 87, 0
2, 46845, Note_on_c, 0, 85, 64
2, 46845, Note_on_c, 0, 63, 64
2, 46845, Note_on_c, 0, 75, 64
2, 46871, Note_on_c, 0, 85, 0
2, 46875, Note_on_c, 0, 84, 64
2, 46897, Note_on_c, 0, 75, 0
2, 46897, Note_on_c, 0, 63, 0
2, 46901, Note_on_c, 0, 84, 0
2, 46905, Note_on_c, 0, 82, 64
2, 46905, Note_on_c, 0, 61, 64
2, 46905, Note_on_c, 0, 73, 64
2, 46931, Note_on_c, 0, 82, 0
2, 46935, Note_on_c, 0, 85, 64
2, 46957, Note_on_c, 0, 73, 0
2, 46957, Note_on_c, 0, 61, 0
2, 46961, Note_on_c, 0, 85, 0
2, 46965, Note_on_c, 0, 89, 64
2, 46965, Note_on_c, 0, 58, 64
2, 46965, Note_on_c, 0, 70, 64
2, 46991, Note_on_c, 0, 89, 0
2, 46995, Note_on_c, 0, 92, 64
2, 47017, Note_on_c, 0, 70, 0
2, 47017, Note_on_c, 0, 58, 0
2, 47021, Note_on_c, 0, 92, 0
2, 47025, Note_on_c, 0, 90, 64
2, 47051, Note_on_c, 0, 90, 0
2, 47055, Note_on_c, 0, 92, 64
2, 47081, Note_on_c, 0, 92, 0
2, 47085, Note_on_c, 0, 90, 64
2, 47085, Note_on_c, 0, 58, 64
2, 47085, Note_on_c, 0, 70, 64
2, 47111, Note_on_c, 0, 90, 0
2, 47115, Note_on_c, 0, 89, 64
2, 47137, Note_on_c, 0, 70, 0
2, 47137, Note_on_c, 0, 58, 0
2, 47141, Note_on_c, 0, 89, 0
2, 47145, Note_on_c, 0, 87, 64
2, 47145, Note_on_c, 0, 60, 64
2, 47145, Note_on_c, 0, 72, 64
2, 47171, Note_on_c, 0, 87, 0
2, 47175, Note_on_c, 0, 89, 64
2, 47197, Note_on_c, 0, 72, 0
2, 47197, Note_on_c, 0, 60, 0
2, 47201, Note_on_c, 0, 89, 0
2, 47205, Note_on_c, 0, 87, 64
2, 47205, Note_on_c, 0, 58, 64
2, 47205, Note_on_c, 0, 70, 64
2, 47231, Note_on_c, 0, 87, 0
2, 47235, Note_on_c, 0, 85, 64
2, 47257, Note_on_c, 0, 70, 0
2, 47257, Note_on_c, 0, 58, 0
2, 47261, Note_on_c, 0, 85, 0
2, 47265, Note_on_c, 0, 87, 64
2, 47265, Note_on_c, 0, 60, 64
2, 47265, Note_on_c, 0, 72, 64
2, 47291, Note_on_c, 0, 87, 0
2, 47295, Note_on_c, 0, 89, 64
2, 47317, Note_on_c, 0, 72, 0
2, 47317, Note_on_c, 0, 60, 0
2, 47321, Note_on_c, 0, 89, 0
2, 47325, Note_on_c, 0, 87, 64
2, 47325, Note_on_c, 0, 65, 64
2, 47325, Note_on_c, 0, 77, 64
2, 47351, Note_on_c, 0, 87, 0
2, 47355, Note_on_c, 0, 85, 64
2, 47377, Note_on_c, 0, 77, 0
2, 47377, Note_on_c, 0, 65, 0
2, 47381, Note_on_c, 0, 85, 0
2, 47385, Note_on_c, 0, 84, 64
2, 47385, Note_on_c, 0, 63, 64
2, 47385, Note_on_c, 0, 75, 64
2, 47411, Note_on_c, 0, 84, 0
2, 47415, Note_on_c, 0, 87, 64
2, 47437, Note_on_c, 0, 75, 0
2, 47437, Note_on_c, 0, 63, 0
2, 47441, Note_on_c, 0, 87, 0
2, 47445, Note_on_c, 0, 90, 64
2, 47445, Note_on_c, 0, 61, 64
2, 47445, Note_on_c, 0, 72, 64
2, 47471, Note_on_c, 0, 90, 0
2, 47475, Note_on_c, 0, 94, 64
2, 47497, Note_on_c, 0, 72, 0
2, 47497, Note_on_c, 0, 61, 0
2, 47501, Note_on_c, 0, 94, 0
2, 47505, Note_on_c, 0, 92, 64
2, 47531, Note_on_c, 0, 92, 0
2, 47535, Note_on_c, 0, 94, 64
2, 47561, Note_on_c, 0, 94, 0
2, 47565, Note_on_c, 0, 92, 64
2, 47565, Note_on_c, 0, 32, 64
2, 47565, Note_on_c, 0, 44, 64
2, 47591, Note_on_c, 0, 92, 0
2, 47595, Note_on_c, 0, 90, 64
2, 47617, Note_on_c, 0, 44, 0
2, 47617, Note_on_c, 0, 32, 0
2, 47621, Note_on_c, 0, 90, 0
2, 47625, Note_on_c, 0, 89, 64
2, 47625, Note_on_c, 0, 34, 64
2, 47625, Note_on_c, 0, 46, 64
2, 47651, Note_on_c, 0, 89, 0
2, 47655, Note_on_c, 0, 90, 64
2, 47677, Note_on_c, 0, 46, 0
2, 47677, Note_on_c, 0, 34, 0
2, 47681, Note_on_c, 0, 90, 0
2, 47685, Note_on_c, 0, 89, 64
2, 47685, Note_on_c, 0, 36, 64
2, 47685, Note_on_c, 0, 48, 64
2, 47711, Note_on_c, 0, 89, 0
2, 47715, Note_on_c, 0, 87, 64
2, 47737, Note_on_c, 0, 48, 0
2, 47737, Note_on_c, 0, 36, 0
2, 47741, Note_on_c, 0, 87, 0
2, 47745, Note_on_c, 0, 89, 64
2, 47745, Note_on_c, 0, 49, 64
2, 47745, Note_on_c, 0, 53, 64
2, 47771, Note_on_c, 0, 53, 0
2, 47771, Note_on_c, 0, 49, 0
2, 47775, Note_on_c, 0, 56, 64
2, 47801, Note_on_c, 0, 56, 0
2, 47805, Note_on_c, 0, 49, 64
2, 47805, Note_on_c, 0, 53, 64
2, 47831, Note_on_c, 0, 53, 0
2, 47831, Note_on_c, 0, 49, 0
2, 47835, Note_on_c, 0, 56, 64
2, 47861, Note_on_c, 0, 56, 0
2, 47865, Note_on_c, 0, 49, 64
2, 47865, Note_on_c, 0, 53, 64
2, 47891, Note_on_c, 0, 53, 0
2, 47891, Note_on_c, 0, 49, 0
2, 47895, Note_on_c, 0, 56, 64
2, 47921, Note_on_c, 0, 56, 0
2, 47925, Note_on_c, 0, 49, 64
2, 47925, Note_on_c, 0, 53, 64
2, 47951, Note_on_c, 0, 53, 0
2, 47951, Note_on_c, 0, 49, 0
2, 47955, Note_on_c, 0, 56, 64
2, 47970, Note_on_c, 0, 89, 0
2, 47981, Note_on_c, 0, 56, 0
2, 47985, Note_on_c, 0, 37, 64
2, 47985, Note_on_c, 0, 49, 64
2, 47985, Note_on_c, 0, 53, 64
2, 48011, Note_on_c, 0, 53, 0
2, 48011, Note_on_c, 0, 49, 0
2, 48015, Note_on_c, 0, 56, 64
2, 48041, Note_on_c, 0, 56, 0
2, 48045, Note_on_c, 0, 49, 64
2, 48045, Note_on_c, 0, 53, 64
2, 48071, Note_on_c, 0, 53, 0
2, 48071, Note_on_c, 0, 49, 0
2, 48075, Note_on_c, 0, 56, 64
2, 48101, Note_on_c, 0, 56, 0
2, 48105, Note_on_c, 0, 49, 64
2, 48105, Note_on_c, 0, 53, 64
2, 48131, Note_on_c, 0, 53, 0
2, 48131, Note_on_c, 0, 49, 0
2, 48135, Note_on_c, 0, 56, 64
2, 48161, Note_on_c, 0, 56, 0
2, 48165, Note_on_c, 0, 49, 64
2, 48165, Note_on_c, 0, 53, 64
2, 48191, Note_on_c, 0, 53, 0
2, 48191, Note_on_c, 0, 49, 0
2, 48195, Note_on_c, 0, 56, 64
2, 48210, Note_on_c, 0, 37, 0
2, 48221, Note_on_c, 0, 56, 0
2, 48225, Note_on_c, 0, 38, 64
2, 48225, Note_on_c, 0, 50, 64
2, 48225, Note_on_c, 0, 53, 64
2, 48225, Note_on_c, 0, 56, 64
2, 48251, Note_on_c, 0, 56, 0
2, 48251, Note_on_c, 0, 53, 0
2, 48251, Note_on_c, 0, 50, 0
2, 48255, Note_on_c, 0, 59, 64
2, 48281, Note_on_c, 0, 59, 0
2, 48285, Note_on_c, 0, 50, 64
2, 48285, Note_on_c, 0, 53, 64
2, 48285, Note_on_c, 0, 56, 64
2, 48311, Note_on_c, 0, 56, 0
2, 48311, Note_on_c, 0, 53, 0
2, 48311, Note_on_c, 0, 50, 0
2, 48315, Note_on_c, 0, 59, 64
2, 48341, Note_on_c, 0, 59, 0
2, 48345, Note_on_c, 0, 50, 64
2, 48345, Note_on_c, 0, 53, 64
2, 48345, Note_on_c, 0, 56, 64
2, 48371, Note_on_c, 0, 56, 0
2, 48371, Note_on_c, 0, 53, 0
2, 48371, Note_on_c, 0, 50, 0
2, 48375, Note_on_c, 0, 59, 64
2, 48401, Note_on_c, 0, 59, 0
2, 48405, Note_on_c, 0, 50, 64
2, 48405, Note_on_c, 0, 53, 64
2, 48405, Note_on_c, 0, 56, 64
2, 48431, Note_on_c, 0, 56, 0
2, 48431, Note_on_c, 0, 53, 0
2, 48431, Note_on_c, 0, 50, 0
2, 48435, Note_on_c, 0, 59, 64
2, 48450, Note_on_c, 0, 38, 0
2, 48461, Note_on_c, 0, 59, 0
2, 48465, Note_on_c, 0, 95, 64
2, 48465, Note_on_c, 0, 50, 64
2, 48465, Note_on_c, 0, 53, 64
2, 48465, Note_on_c, 0, 56, 64
2, 48491, Note_on_c, 0, 56, 0
2, 48491, Note_on_c, 0, 53, 0
2, 48491, Note_on_c, 0, 50, 0
2, 48495, Note_on_c, 0, 59, 64
2, 48521, Note_on_c, 0, 59, 0
2, 48525, Note_on_c, 0, 50, 64
2, 48525, Note_on_c, 0, 53, 64
2, 48525, Note_on_c, 0, 56, 64
2, 48551, Note_on_c, 0, 56, 0
2, 48551, Note_on_c, 0, 53, 0
2, 48551, Note_on_c, 0, 50, 0
2, 48555, Note_on_c, 0, 59, 64
2, 48581, Note_on_c, 0, 59, 0
2, 48585, Note_on_c, 0, 50, 64
2, 48585, Note_on_c, 0, 53, 64
2, 48585, Note_on_c, 0, 56, 64
2, 48611, Note_on_c, 0, 56, 0
2, 48611, Note_on_c, 0, 53, 0
2, 48611, Note_on_c, 0, 50, 0
2, 48615, Note_on_c, 0, 59, 64
2, 48641, Note_on_c, 0, 59, 0
2, 48645, Note_on_c, 0, 50, 64
2, 48645, Note_on_c, 0, 53, 64
2, 48645, Note_on_c, 0, 56, 64
2, 48671, Note_on_c, 0, 56, 0
2, 48671, Note_on_c, 0, 53, 0
2, 48671, Note_on_c, 0, 50, 0
2, 48675, Note_on_c, 0, 59, 64
2, 48690, Note_on_c, 0, 95, 0
2, 48701, Note_on_c, 0, 59, 0
2, 48705, Note_on_c, 0, 39, 64
2, 48705, Note_on_c, 0, 51, 64
2, 48810, Note_on_c, 0, 51, 0
2, 48810, Note_on_c, 0, 39, 0
2, 48825, Note_on_c, 0, 87, 64
2, 49050, Note_on_c, 0, 87, 0
2, 49065, Note_on_c, 0, 84, 64
2, 49117, Note_on_c, 0, 84, 0
2, 49125, Note_on_c, 0, 81, 64
2, 49125, Note_on_c, 0, 51, 64
2, 49125, Note_on_c, 0, 60, 64
2, 49125, Note_on_c, 0, 63, 64
2, 49151, Note_on_c, 0, 63, 0
2, 49151, Note_on_c, 0, 81, 0
2, 49151, Note_on_c, 0, 51, 0
2, 49151, Note_on_c, 0, 60, 0
2, 49185, Note_on_c, 0, 80, 64
2, 49185, Note_on_c, 0, 51, 64
2, 49185, Note_on_c, 0, 58, 64
2, 49185, Note_on_c, 0, 61, 64
2, 49305, Note_on_c, 0, 80, 0
2, 49305, Note_on_c, 0, 79, 64
2, 49350, Note_on_c, 0, 51, 0
2, 49350, Note_on_c, 0, 61, 0
2, 49350, Note_on_c, 0, 58, 0
2, 49357, Note_on_c, 0, 79, 0
2, 49395, Note_on_c, 0, 77, 64
2, 49395, Note_on_c, 0, 51, 64
2, 49395, Note_on_c, 0, 56, 64
2, 49395, Note_on_c, 0, 60, 64
2, 49421, Note_on_c, 0, 60, 0
2, 49421, Note_on_c, 0, 77, 0
2, 49421, Note_on_c, 0, 51, 0
2, 49421, Note_on_c, 0, 56, 0
2, 49425, Note_on_c, 0, 77, 64
2, 49425, Note_on_c, 0, 51, 64
2, 49425, Note_on_c, 0, 56, 64
2, 49425, Note_on_c, 0, 60, 64
2, 49530, Note_on_c, 0, 56, 0
2, 49530, Note_on_c, 0, 51, 0
2, 49545, Note_on_c, 0, 77, 0
2, 49545, Note_on_c, 0, 60, 0
2, 49545, Note_on_c, 0, 75, 64
2, 49545, Note_on_c, 0, 51, 64
2, 49545, Note_on_c, 0, 55, 64
2, 49545, Note_on_c, 0, 58, 64
2, 49597, Note_on_c, 0, 58, 0
2, 49597, Note_on_c, 0, 75, 0
2, 49597, Note_on_c, 0, 51, 0
2, 49597, Note_on_c, 0, 55, 0
2, 49635, Note_on_c, 0, 73, 64
2, 49635, Note_on_c, 0, 79, 64
2, 49635, Note_on_c, 0, 85, 64
2, 49635, Note_on_c, 0, 51, 64
2, 49635, Note_on_c, 0, 55, 64
2, 49635, Note_on_c, 0, 58, 64
2, 49661, Note_on_c, 0, 58, 0
2, 49661, Note_on_c, 0, 79, 0
2, 49661, Note_on_c, 0, 85, 0
2, 49661, Note_on_c, 0, 73, 0
2, 49661, Note_on_c, 0, 55, 0
2, 49661, Note_on_c, 0, 51, 0
2, 49665, Note_on_c, 0, 73, 64
2, 49665, Note_on_c, 0, 79, 64
2, 49665, Note_on_c, 0, 85, 64
2, 49665, Note_on_c, 0, 51, 64
2, 49665, Note_on_c, 0, 55, 64
2, 49665, Note_on_c, 0, 58, 64
2, 49770, Note_on_c, 0, 58, 0
2, 49770, Note_on_c, 0, 79, 0
2, 49770, Note_on_c, 0, 85, 0
2, 49770, Note_on_c, 0, 73, 0
2, 49770, Note_on_c, 0, 55, 0
2, 49770, Note_on_c, 0, 51, 0
2, 49785, Note_on_c, 0, 72, 64
2, 49785, Note_on_c, 0, 80, 64
2, 49785, Note_on_c, 0, 84, 64
2, 49890, Note_on_c, 0, 84, 0
2, 49890, Note_on_c, 0, 80, 0
2, 49890, Note_on_c, 0, 72, 0
2, 49905, Note_on_c, 0, 72, 64
2, 49905, Note_on_c, 0, 80, 64
2, 49905, Note_on_c, 0, 84, 64
2, 49913, Note_on_c, 0, 84, 0
2, 49913, Note_on_c, 0, 80, 0
2, 49913, Note_on_c, 0, 72, 0
2, 49914, Note_on_c, 0, 87, 64
2, 49923, Note_on_c, 0, 87, 0
2, 49924, Note_on_c, 0, 86, 64
2, 49933, Note_on_c, 0, 86, 0
2, 49934, Note_on_c, 0, 87, 64
2, 49943, Note_on_c, 0, 87, 0
2, 49944, Note_on_c, 0, 89, 64
2, 49953, Note_on_c, 0, 89, 0
2, 49954, Note_on_c, 0, 87, 64
2, 49963, Note_on_c, 0, 87, 0
2, 49964, Note_on_c, 0, 83, 64
2, 49973, Note_on_c, 0, 83, 0
2, 49974, Note_on_c, 0, 84, 64
2, 49983, Note_on_c, 0, 84, 0
2, 49984, Note_on_c, 0, 83, 64
2, 49993, Note_on_c, 0, 83, 0
2, 49994, Note_on_c, 0, 84, 64
2, 50003, Note_on_c, 0, 84, 0
2, 50004, Note_on_c, 0, 85, 64
2, 50013, Note_on_c, 0, 85, 0
2, 50014, Note_on_c, 0, 84, 64
2, 50023, Note_on_c, 0, 84, 0
2, 50025, Note_on_c, 0, 79, 64
2, 50042, Note_on_c, 0, 79, 0
2, 50044, Note_on_c, 0, 80, 64
2, 50062, Note_on_c, 0, 80, 0
2, 50064, Note_on_c, 0, 82, 64
2, 50082, Note_on_c, 0, 82, 0
2, 50084, Note_on_c, 0, 80, 64
2, 50102, Note_on_c, 0, 80, 0
2, 50104, Note_on_c, 0, 79, 64
2, 50122, Note_on_c, 0, 79, 0
2, 50124, Note_on_c, 0, 80, 64
2, 50142, Note_on_c, 0, 80, 0
2, 50145, Note_on_c, 0, 80, 64
2, 50145, Note_on_c, 0, 51, 64
2, 50145, Note_on_c, 0, 58, 64
2, 50145, Note_on_c, 0, 61, 64
2, 50165, Note_on_c, 0, 80, 0
2, 50168, Note_on_c, 0, 79, 64
2, 50190, Note_on_c, 0, 79, 0
2, 50192, Note_on_c, 0, 80, 64
2, 50214, Note_on_c, 0, 80, 0
2, 50216, Note_on_c, 0, 82, 64
2, 50238, Note_on_c, 0, 82, 0
2, 50240, Note_on_c, 0, 80, 64
2, 50261, Note_on_c, 0, 80, 0
2, 50265, Note_on_c, 0, 79, 64
2, 50310, Note_on_c, 0, 51, 0
2, 50310, Note_on_c, 0, 61, 0
2, 50310, Note_on_c, 0, 58, 0
2, 50317, Note_on_c, 0, 79, 0
2, 50355, Note_on_c, 0, 77, 64
2, 50355, Note_on_c, 0, 51, 64
2, 50355, Note_on_c, 0, 56, 64
2, 50355, Note_on_c, 0, 60, 64
2, 50381, Note_on_c, 0, 60, 0
2, 50381, Note_on_c, 0, 77, 0
2, 50381, Note_on_c, 0, 51, 0
2, 50381, Note_on_c, 0, 56, 0
2, 50385, Note_on_c, 0, 77, 64
2, 50385, Note_on_c, 0, 51, 64
2, 50385, Note_on_c, 0, 55, 64
2, 50385, Note_on_c, 0, 58, 64
2, 50405, Note_on_c, 0, 77, 0
2, 50408, Note_on_c, 0, 75, 64
2, 50430, Note_on_c, 0, 75, 0
2, 50432, Note_on_c, 0, 77, 64
2, 50454, Note_on_c, 0, 77, 0
2, 50456, Note_on_c, 0, 79, 64
2, 50478, Note_on_c, 0, 79, 0
2, 50480, Note_on_c, 0, 77, 64
2, 50501, Note_on_c, 0, 77, 0
2, 50505, Note_on_c, 0, 75, 64
2, 50550, Note_on_c, 0, 51, 0
2, 50550, Note_on_c, 0, 58, 0
2, 50550, Note_on_c, 0, 55, 0
2, 50557, Note_on_c, 0, 75, 0
2, 50595, Note_on_c, 0, 73, 64
2, 50595, Note_on_c, 0, 79, 64
2, 50595, Note_on_c, 0, 85, 64
2, 50595, Note_on_c, 0, 52, 64
2, 50595, Note_on_c, 0, 55, 64
2, 50595, Note_on_c, 0, 58, 64
2, 50621, Note_on_c, 0, 58, 0
2, 50621, Note_on_c, 0, 79, 0
2, 50621, Note_on_c, 0, 85, 0
2, 50621, Note_on_c, 0, 73, 0
2, 50621, Note_on_c, 0, 55, 0
2, 50621, Note_on_c, 0, 52, 0
2, 50625, Note_on_c, 0, 73, 64
2, 50625, Note_on_c, 0, 79, 64
2, 50625, Note_on_c, 0, 85, 64
2, 50625, Note_on_c, 0, 52, 64
2, 50625, Note_on_c, 0, 55, 64
2, 50625, Note_on_c, 0, 58, 64
2, 50730, Note_on_c, 0, 58, 0
2, 50730, Note_on_c, 0, 79, 0
2, 50730, Note_on_c, 0, 85, 0
2, 50730, Note_on_c, 0, 73, 0
2, 50730, Note_on_c, 0, 55, 0
2, 50730, Note_on_c, 0, 52, 0
2, 50745, Note_on_c, 0, 75, 64
2, 50745, Note_on_c, 0, 80, 64
2, 50745, Note_on_c, 0, 84, 64
2, 50745, Note_on_c, 0, 53, 64
2, 50745, Note_on_c, 0, 56, 64
2, 50850, Note_on_c, 0, 56, 0
2, 50850, Note_on_c, 0, 84, 0
2, 50850, Note_on_c, 0, 75, 0
2, 50850, Note_on_c, 0, 80, 0
2, 50850, Note_on_c, 0, 53, 0
2, 51075, Note_on_c, 0, 79, 64
2, 51075, Note_on_c, 0, 82, 64
2, 51075, Note_on_c, 0, 89, 64
2, 51075, Note_on_c, 0, 61, 64
2, 51075, Note_on_c, 0, 67, 64
2, 51075, Note_on_c, 0, 70, 64
2, 51101, Note_on_c, 0, 70, 0
2, 51101, Note_on_c, 0, 82, 0
2, 51101, Note_on_c, 0, 89, 0
2, 51101, Note_on_c, 0, 79, 0
2, 51101, Note_on_c, 0, 67, 0
2, 51101, Note_on_c, 0, 61, 0
2, 51105, Note_on_c, 0, 79, 64
2, 51105, Note_on_c, 0, 82, 64
2, 51105, Note_on_c, 0, 89, 64
2, 51105, Note_on_c, 0, 61, 64
2, 51105, Note_on_c, 0, 67, 64
2, 51105, Note_on_c, 0, 70, 64
2, 51210, Note_on_c, 0, 70, 0
2, 51210, Note_on_c, 0, 82, 0
2, 51210, Note_on_c, 0, 89, 0
2, 51210, Note_on_c, 0, 79, 0
2, 51210, Note_on_c, 0, 67, 0
2, 51210, Note_on_c, 0, 61, 0
2, 51225, Note_on_c, 0, 75, 64
2, 51225, Note_on_c, 0, 80, 64
2, 51225, Note_on_c, 0, 87, 64
2, 51225, Note_on_c, 0, 60, 64
2, 51225, Note_on_c, 0, 68, 64
2, 51225, Note_on_c, 0, 72, 64
2, 51330, Note_on_c, 0, 72, 0
2, 51330, Note_on_c, 0, 80, 0
2, 51330, Note_on_c, 0, 87, 0
2, 51330, Note_on_c, 0, 75, 0
2, 51330, Note_on_c, 0, 68, 0
2, 51330, Note_on_c, 0, 60, 0
2, 51525, Note_on_c, 0, 92, 64
2, 51525, Note_on_c, 0, 62, 64
2, 51525, Note_on_c, 0, 65, 64
2, 51525, Note_on_c, 0, 68, 64
2, 51525, Note_on_c, 0, 71, 64
2, 51555, Note_on_c, 0, 92, 0
2, 51555, Note_on_c, 0, 95, 64
2, 51577, Note_on_c, 0, 68, 0
2, 51577, Note_on_c, 0, 71, 0
2, 51577, Note_on_c, 0, 62, 0
2, 51577, Note_on_c, 0, 65, 0
2, 51581, Note_on_c, 0, 95, 0
2, 51585, Note_on_c, 0, 92, 64
2, 51585, Note_on_c, 0, 61, 64
2, 51585, Note_on_c, 0, 65, 64
2, 51585, Note_on_c, 0, 68, 64
2, 51585, Note_on_c, 0, 72, 64
2, 51615, Note_on_c, 0, 92, 0
2, 51615, Note_on_c, 0, 95, 64
2, 51637, Note_on_c, 0, 68, 0
2, 51637, Note_on_c, 0, 72, 0
2, 51637, Note_on_c, 0, 61, 0
2, 51637, Note_on_c, 0, 65, 0
2, 51641, Note_on_c, 0, 95, 0
2, 51645, Note_on_c, 0, 89, 64
2, 51645, Note_on_c, 0, 77, 64
2, 51675, Note_on_c, 0, 77, 0
2, 51675, Note_on_c, 0, 89, 0
2, 51675, Note_on_c, 0, 92, 64
2, 51675, Note_on_c, 0, 80, 64
2, 51701, Note_on_c, 0, 80, 0
2, 51701, Note_on_c, 0, 92, 0
2, 51705, Note_on_c, 0, 86, 64
2, 51705, Note_on_c, 0, 74, 64
2, 51735, Note_on_c, 0, 74, 0
2, 51735, Note_on_c, 0, 86, 0
2, 51735, Note_on_c, 0, 89, 64
2, 51735, Note_on_c, 0, 77, 64
2, 51761, Note_on_c, 0, 77, 0
2, 51761, Note_on_c, 0, 89, 0
2, 51765, Note_on_c, 0, 83, 64
2, 51765, Note_on_c, 0, 71, 64
2, 51791, Note_on_c, 0, 83, 0
2, 51795, Note_on_c, 0, 71, 0
2, 51795, Note_on_c, 0, 86, 64
2, 51795, Note_on_c, 0, 74, 64
2, 51821, Note_on_c, 0, 74, 0
2, 51821, Note_on_c, 0, 86, 0
2, 51825, Note_on_c, 0, 80, 64
2, 51825, Note_on_c, 0, 68, 64
2, 51851, Note_on_c, 0, 68, 0
2, 51855, Note_on_c, 0, 80, 0
2, 51855, Note_on_c, 0, 83, 64
2, 51855, Note_on_c, 0, 71, 64
2, 51881, Note_on_c, 0, 71, 0
2, 51881, Note_on_c, 0, 83, 0
2, 51885, Note_on_c, 0, 77, 64
2, 51885, Note_on_c, 0, 65, 64
2, 51911, Note_on_c, 0, 65, 0
2, 51915, Note_on_c, 0, 77, 0
2, 51915, Note_on_c, 0, 80, 64
2, 51915, Note_on_c, 0, 68, 64
2, 51941, Note_on_c, 0, 68, 0
2, 51941, Note_on_c, 0, 80, 0
2, 51945, Note_on_c, 0, 74, 64
2, 51945, Note_on_c, 0, 62, 64
2, 51975, Note_on_c, 0, 62, 0
2, 51975, Note_on_c, 0, 74, 0
2, 51975, Note_on_c, 0, 77, 64
2, 51975, Note_on_c, 0, 65, 64
2, 52001, Note_on_c, 0, 65, 0
2, 52001, Note_on_c, 0, 77, 0
2, 52005, Note_on_c, 0, 71, 64
2, 52005, Note_on_c, 0, 59, 64
2, 52031, Note_on_c, 0, 71, 0
2, 52035, Note_on_c, 0, 59, 0
2, 52035, Note_on_c, 0, 74, 64
2, 52035, Note_on_c, 0, 62, 64
2, 52061, Note_on_c, 0, 62, 0
2, 52061, Note_on_c, 0, 74, 0
2, 52065, Note_on_c, 0, 68, 64
2, 52065, Note_on_c, 0, 56, 64
2, 52091, Note_on_c, 0, 56, 0
2, 52091, Note_on_c, 0, 68, 0
2, 52095, Note_on_c, 0, 71, 64
2, 52095, Note_on_c, 0, 59, 64
2, 52121, Note_on_c, 0, 59, 0
2, 52121, Note_on_c, 0, 71, 0
2, 52125, Note_on_c, 0, 65, 64
2, 52125, Note_on_c, 0, 53, 64
2, 52151, Note_on_c, 0, 53, 0
2, 52151, Note_on_c, 0, 65, 0
2, 52155, Note_on_c, 0, 68, 64
2, 52155, Note_on_c, 0, 56, 64
2, 52181, Note_on_c, 0, 56, 0
2, 52181, Note_on_c, 0, 68, 0
2, 52185, Note_on_c, 0, 62, 64
2, 52185, Note_on_c, 0, 50, 64
2, 52211, Note_on_c, 0, 50, 0
2, 52211, Note_on_c, 0, 62, 0
2, 52215, Note_on_c, 0, 63, 64
2, 52215, Note_on_c, 0, 51, 64
2, 52241, Note_on_c, 0, 51, 0
2, 52241, Note_on_c, 0, 63, 0
2, 52245, Note_on_c, 0, 65, 64
2, 52245, Note_on_c, 0, 53, 64
2, 52271, Note_on_c, 0, 53, 0
2, 52271, Note_on_c, 0, 65, 0
2, 52275, Note_on_c, 0, 67, 64
2, 52275, Note_on_c, 0, 55, 64
2, 52301, Note_on_c, 0, 55, 0
2, 52301, Note_on_c, 0, 67, 0
2, 52305, Note_on_c, 0, 68, 64
2, 52305, Note_on_c, 0, 56, 64
2, 52331, Note_on_c, 0, 56, 0
2, 52331, Note_on_c, 0, 68, 0
2, 52335, Note_on_c, 0, 70, 64
2, 52335, Note_on_c, 0, 58, 64
2, 52361, Note_on_c, 0, 58, 0
2, 52361, Note_on_c, 0, 70, 0
2, 52365, Note_on_c, 0, 72, 64
2, 52365, Note_on_c, 0, 60, 64
2, 52391, Note_on_c, 0, 60, 0
2, 52391, Note_on_c, 0, 72, 0
2, 52395, Note_on_c, 0, 73, 64
2, 52395, Note_on_c, 0, 61, 64
2, 52421, Note_on_c, 0, 61, 0
2, 52421, Note_on_c, 0, 73, 0
2, 52425, Note_on_c, 0, 75, 64
2, 52425, Note_on_c, 0, 63, 64
2, 52451, Note_on_c, 0, 63, 0
2, 52451, Note_on_c, 0, 75, 0
2, 52455, Note_on_c, 0, 76, 64
2, 52455, Note_on_c, 0, 64, 64
2, 52481, Note_on_c, 0, 64, 0
2, 52481, Note_on_c, 0, 76, 0
2, 52485, Note_on_c, 0, 77, 64
2, 52485, Note_on_c, 0, 65, 64
2, 52511, Note_on_c, 0, 65, 0
2, 52511, Note_on_c, 0, 77, 0
2, 52515, Note_on_c, 0, 75, 64
2, 52515, Note_on_c, 0, 63, 64
2, 52541, Note_on_c, 0, 63, 0
2, 52541, Note_on_c, 0, 75, 0
2, 52545, Note_on_c, 0, 77, 64
2, 52545, Note_on_c, 0, 32, 64
2, 52545, Note_on_c, 0, 44, 64
2, 52571, Note_on_c, 0, 77, 0
2, 52575, Note_on_c, 0, 75, 64
2, 52601, Note_on_c, 0, 75, 0
2, 52605, Note_on_c, 0, 72, 64
2, 52631, Note_on_c, 0, 72, 0
2, 52635, Note_on_c, 0, 68, 64
2, 52650, Note_on_c, 0, 44, 0
2, 52650, Note_on_c, 0, 32, 0
2, 52661, Note_on_c, 0, 68, 0
2, 52665, Note_on_c, 0, 77, 64
2, 52665, Note_on_c, 0, 36, 64
2, 52665, Note_on_c, 0, 48, 64
2, 52691, Note_on_c, 0, 77, 0
2, 52695, Note_on_c, 0, 75, 64
2, 52721, Note_on_c, 0, 75, 0
2, 52725, Note_on_c, 0, 72, 64
2, 52751, Note_on_c, 0, 72, 0
2, 52755, Note_on_c, 0, 68, 64
2, 52770, Note_on_c, 0, 48, 0
2, 52770, Note_on_c, 0, 36, 0
2, 52781, Note_on_c, 0, 68, 0
2, 52785, Note_on_c, 0, 77, 64
2, 52785, Note_on_c, 0, 31, 64
2, 52785, Note_on_c, 0, 43, 64
2, 52811, Note_on_c, 0, 77, 0
2, 52815, Note_on_c, 0, 75, 64
2, 52841, Note_on_c, 0, 75, 0
2, 52845, Note_on_c, 0, 73, 64
2, 52871, Note_on_c, 0, 73, 0
2, 52875, Note_on_c, 0, 70, 64
2, 52901, Note_on_c, 0, 70, 0
2, 52905, Note_on_c, 0, 77, 64
2, 52931, Note_on_c, 0, 77, 0
2, 52935, Note_on_c, 0, 75, 64
2, 52961, Note_on_c, 0, 75, 0
2, 52965, Note_on_c, 0, 73, 64
2, 52991, Note_on_c, 0, 73, 0
2, 52995, Note_on_c, 0, 70, 64
2, 53010, Note_on_c, 0, 43, 0
2, 53010, Note_on_c, 0, 31, 0
2, 53021, Note_on_c, 0, 70, 0
2, 53025, Note_on_c, 0, 82, 64
2, 53025, Note_on_c, 0, 30, 64
2, 53025, Note_on_c, 0, 42, 64
2, 53051, Note_on_c, 0, 82, 0
2, 53055, Note_on_c, 0, 80, 64
2, 53081, Note_on_c, 0, 80, 0
2, 53085, Note_on_c, 0, 75, 64
2, 53111, Note_on_c, 0, 75, 0
2, 53115, Note_on_c, 0, 72, 64
2, 53130, Note_on_c, 0, 42, 0
2, 53130, Note_on_c, 0, 30, 0
2, 53141, Note_on_c, 0, 72, 0
2, 53145, Note_on_c, 0, 82, 64
2, 53145, Note_on_c, 0, 32, 64
2, 53145, Note_on_c, 0, 44, 64
2, 53171, Note_on_c, 0, 82, 0
2, 53175, Note_on_c, 0, 80, 64
2, 53201, Note_on_c, 0, 80, 0
2, 53205, Note_on_c, 0, 75, 64
2, 53231, Note_on_c, 0, 75, 0
2, 53235, Note_on_c, 0, 72, 64
2, 53250, Note_on_c, 0, 44, 0
2, 53250, Note_on_c, 0, 32, 0
2, 53261, Note_on_c, 0, 72, 0
2, 53265, Note_on_c, 0, 82, 64
2, 53265, Note_on_c, 0, 29, 64
2, 53265, Note_on_c, 0, 41, 64
2, 53291, Note_on_c, 0, 82, 0
2, 53295, Note_on_c, 0, 80, 64
2, 53321, Note_on_c, 0, 80, 0
2, 53325, Note_on_c, 0, 77, 64
2, 53351, Note_on_c, 0, 77, 0
2, 53355, Note_on_c, 0, 73, 64
2, 53381, Note_on_c, 0, 73, 0
2, 53385, Note_on_c, 0, 87, 64
2, 53411, Note_on_c, 0, 87, 0
2, 53415, Note_on_c, 0, 85, 64
2, 53441, Note_on_c, 0, 85, 0
2, 53445, Note_on_c, 0, 80, 64
2, 53471, Note_on_c, 0, 80, 0
2, 53475, Note_on_c, 0, 73, 64
2, 53490, Note_on_c, 0, 41, 0
2, 53490, Note_on_c, 0, 29, 0
2, 53501, Note_on_c, 0, 73, 0
2, 53505, Note_on_c, 0, 87, 64
2, 53505, Note_on_c, 0, 28, 64
2, 53505, Note_on_c, 0, 40, 64
2, 53531, Note_on_c, 0, 87, 0
2, 53535, Note_on_c, 0, 85, 64
2, 53561, Note_on_c, 0, 85, 0
2, 53565, Note_on_c, 0, 80, 64
2, 53591, Note_on_c, 0, 80, 0
2, 53595, Note_on_c, 0, 73, 64
2, 53610, Note_on_c, 0, 40, 0
2, 53610, Note_on_c, 0, 28, 0
2, 53621, Note_on_c, 0, 73, 0
2, 53625, Note_on_c, 0, 87, 64
2, 53625, Note_on_c, 0, 32, 64
2, 53625, Note_on_c, 0, 44, 64
2, 53651, Note_on_c, 0, 87, 0
2, 53655, Note_on_c, 0, 85, 64
2, 53681, Note_on_c, 0, 85, 0
2, 53685, Note_on_c, 0, 84, 64
2, 53711, Note_on_c, 0, 84, 0
2, 53715, Note_on_c, 0, 73, 64
2, 53730, Note_on_c, 0, 44, 0
2, 53730, Note_on_c, 0, 32, 0
2, 53741, Note_on_c, 0, 73, 0
2, 53745, Note_on_c, 0, 85, 64
2, 53745, Note_on_c, 0, 27, 64
2, 53745, Note_on_c, 0, 39, 64
2, 53771, Note_on_c, 0, 85, 0
2, 53775, Note_on_c, 0, 84, 64
2, 53801, Note_on_c, 0, 84, 0
2, 53805, Note_on_c, 0, 80, 64
2, 53831, Note_on_c, 0, 80, 0
2, 53835, Note_on_c, 0, 75, 64
2, 53850, Note_on_c, 0, 39, 0
2, 53850, Note_on_c, 0, 27, 0
2, 53861, Note_on_c, 0, 75, 0
2, 53865, Note_on_c, 0, 85, 64
2, 53865, Note_on_c, 0, 32, 64
2, 53865, Note_on_c, 0, 44, 64
2, 53891, Note_on_c, 0, 85, 0
2, 53895, Note_on_c, 0, 84, 64
2, 53921, Note_on_c, 0, 84, 0
2, 53925, Note_on_c, 0, 80, 64
2, 53943, Note_on_c, 0, 44, 0
2, 53943, Note_on_c, 0, 32, 0
2, 53951, Note_on_c, 0, 80, 0
2, 53955, Note_on_c, 0, 75, 64
2, 53955, Note_on_c, 0, 36, 64
2, 53955, Note_on_c, 0, 48, 64
2, 53981, Note_on_c, 0, 48, 0
2, 53981, Note_on_c, 0, 36, 0
2, 53981, Note_on_c, 0, 75, 0
2, 53985, Note_on_c, 0, 85, 64
2, 53985, Note_on_c, 0, 39, 64
2, 53985, Note_on_c, 0, 51, 64
2, 54011, Note_on_c, 0, 85, 0
2, 54015, Note_on_c, 0, 84, 64
2, 54041, Note_on_c, 0, 84, 0
2, 54045, Note_on_c, 0, 80, 64
2, 54071, Note_on_c, 0, 80, 0
2, 54075, Note_on_c, 0, 75, 64
2, 54090, Note_on_c, 0, 51, 0
2, 54090, Note_on_c, 0, 39, 0
2, 54101, Note_on_c, 0, 75, 0
2, 54105, Note_on_c, 0, 84, 64
2, 54105, Note_on_c, 0, 27, 64
2, 54105, Note_on_c, 0, 39, 64
2, 54131, Note_on_c, 0, 84, 0
2, 54135, Note_on_c, 0, 82, 64
2, 54161, Note_on_c, 0, 82, 0
2, 54165, Note_on_c, 0, 79, 64
2, 54191, Note_on_c, 0, 79, 0
2, 54195, Note_on_c, 0, 73, 64
2, 54210, Note_on_c, 0, 39, 0
2, 54210, Note_on_c, 0, 27, 0
2, 54221, Note_on_c, 0, 73, 0
2, 54225, Note_on_c, 0, 72, 64
2, 54225, Note_on_c, 0, 75, 64
2, 54225, Note_on_c, 0, 80, 64
2, 54255, Note_on_c, 0, 60, 64
2, 54277, Note_on_c, 0, 75, 0
2, 54277, Note_on_c, 0, 72, 0
2, 54281, Note_on_c, 0, 60, 0
2, 54285, Note_on_c, 0, 72, 64
2, 54285, Note_on_c, 0, 75, 64
2, 54285, Note_on_c, 0, 58, 64
2, 54311, Note_on_c, 0, 58, 0
2, 54315, Note_on_c, 0, 56, 64
2, 54330, Note_on_c, 0, 80, 0
2, 54337, Note_on_c, 0, 72, 0
2, 54337, Note_on_c, 0, 75, 0
2, 54341, Note_on_c, 0, 56, 0
2, 54345, Note_on_c, 0, 72, 64
2, 54345, Note_on_c, 0, 75, 64
2, 54345, Note_on_c, 0, 84, 64
2, 54345, Note_on_c, 0, 55, 64
2, 54371, Note_on_c, 0, 55, 0
2, 54375, Note_on_c, 0, 56, 64
2, 54397, Note_on_c, 0, 72, 0
2, 54397, Note_on_c, 0, 75, 0
2, 54401, Note_on_c, 0, 56, 0
2, 54405, Note_on_c, 0, 72, 64
2, 54405, Note_on_c, 0, 75, 64
2, 54405, Note_on_c, 0, 58, 64
2, 54431, Note_on_c, 0, 58, 0
2, 54435, Note_on_c, 0, 56, 64
2, 54450, Note_on_c, 0, 84, 0
2, 54457, Note_on_c, 0, 72, 0
2, 54457, Note_on_c, 0, 75, 0
2, 54461, Note_on_c, 0, 56, 0
2, 54465, Note_on_c, 0, 70, 64
2, 54465, Note_on_c, 0, 75, 64
2, 54465, Note_on_c, 0, 79, 64
2, 54495, Note_on_c, 0, 67, 64
2, 54517, Note_on_c, 0, 75, 0
2, 54517, Note_on_c, 0, 70, 0
2, 54521, Note_on_c, 0, 67, 0
2, 54525, Note_on_c, 0, 70, 64
2, 54525, Note_on_c, 0, 75, 64
2, 54525, Note_on_c, 0, 65, 64
2, 54551, Note_on_c, 0, 65, 0
2, 54555, Note_on_c, 0, 63, 64
2, 54577, Note_on_c, 0, 75, 0
2, 54577, Note_on_c, 0, 70, 0
2, 54581, Note_on_c, 0, 63, 0
2, 54585, Note_on_c, 0, 70, 64
2, 54585, Note_on_c, 0, 75, 64
2, 54585, Note_on_c, 0, 62, 64
2, 54611, Note_on_c, 0, 62, 0
2, 54615, Note_on_c, 0, 63, 64
2, 54637, Note_on_c, 0, 75, 0
2, 54637, Note_on_c, 0, 70, 0
2, 54641, Note_on_c, 0, 63, 0
2, 54645, Note_on_c, 0, 70, 64
2, 54645, Note_on_c, 0, 75, 64
2, 54645, Note_on_c, 0, 65, 64
2, 54671, Note_on_c, 0, 65, 0
2, 54675, Note_on_c, 0, 63, 64
2, 54690, Note_on_c, 0, 79, 0
2, 54697, Note_on_c, 0, 70, 0
2, 54697, Note_on_c, 0, 75, 0
2, 54701, Note_on_c, 0, 63, 0
2, 54705, Note_on_c, 0, 68, 64
2, 54705, Note_on_c, 0, 75, 64
2, 54705, Note_on_c, 0, 78, 64
2, 54735, Note_on_c, 0, 51, 64
2, 54757, Note_on_c, 0, 75, 0
2, 54757, Note_on_c, 0, 68, 0
2, 54761, Note_on_c, 0, 51, 0
2, 54765, Note_on_c, 0, 68, 64
2, 54765, Note_on_c, 0, 75, 64
2, 54765, Note_on_c, 0, 49, 64
2, 54791, Note_on_c, 0, 49, 0
2, 54795, Note_on_c, 0, 48, 64
2, 54810, Note_on_c, 0, 78, 0
2, 54817, Note_on_c, 0, 68, 0
2, 54817, Note_on_c, 0, 75, 0
2, 54821, Note_on_c, 0, 48, 0
2, 54825, Note_on_c, 0, 68, 64
2, 54825, Note_on_c, 0, 75, 64
2, 54825, Note_on_c, 0, 80, 64
2, 54825, Note_on_c, 0, 47, 64
2, 54851, Note_on_c, 0, 47, 0
2, 54855, Note_on_c, 0, 48, 64
2, 54877, Note_on_c, 0, 68, 0
2, 54877, Note_on_c, 0, 75, 0
2, 54881, Note_on_c, 0, 48, 0
2, 54885, Note_on_c, 0, 68, 64
2, 54885, Note_on_c, 0, 75, 64
2, 54885, Note_on_c, 0, 49, 64
2, 54911, Note_on_c, 0, 49, 0
2, 54915, Note_on_c, 0, 48, 64
2, 54930, Note_on_c, 0, 80, 0
2, 54937, Note_on_c, 0, 68, 0
2, 54937, Note_on_c, 0, 75, 0
2, 54941, Note_on_c, 0, 48, 0
2, 54945, Note_on_c, 0, 77, 64
2, 54945, Note_on_c, 0, 68, 64
2, 54945, Note_on_c, 0, 73, 64
2, 54975, Note_on_c, 0, 65, 64
2, 54997, Note_on_c, 0, 73, 0
2, 54997, Note_on_c, 0, 68, 0
2, 55001, Note_on_c, 0, 65, 0
2, 55005, Note_on_c, 0, 68, 64
2, 55005, Note_on_c, 0, 73, 64
2, 55005, Note_on_c, 0, 63, 64
2, 55031, Note_on_c, 0, 63, 0
2, 55035, Note_on_c, 0, 61, 64
2, 55057, Note_on_c, 0, 73, 0
2, 55057, Note_on_c, 0, 68, 0
2, 55061, Note_on_c, 0, 61, 0
2, 55065, Note_on_c, 0, 68, 64
2, 55065, Note_on_c, 0, 73, 64
2, 55065, Note_on_c, 0, 60, 64
2, 55091, Note_on_c, 0, 60, 0
2, 55095, Note_on_c, 0, 61, 64
2, 55117, Note_on_c, 0, 73, 0
2, 55117, Note_on_c, 0, 68, 0
2, 55121, Note_on_c, 0, 61, 0
2, 55125, Note_on_c, 0, 68, 64
2, 55125, Note_on_c, 0, 73, 64
2, 55125, Note_on_c, 0, 63, 64
2, 55151, Note_on_c, 0, 63, 0
2, 55155, Note_on_c, 0, 61, 64
2, 55170, Note_on_c, 0, 77, 0
2, 55177, Note_on_c, 0, 68, 0
2, 55177, Note_on_c, 0, 73, 0
2, 55181, Note_on_c, 0, 61, 0
2, 55185, Note_on_c, 0, 76, 64
2, 55185, Note_on_c, 0, 68, 64
2, 55185, Note_on_c, 0, 73, 64
2, 55215, Note_on_c, 0, 37, 64
2, 55237, Note_on_c, 0, 73, 0
2, 55237, Note_on_c, 0, 68, 0
2, 55241, Note_on_c, 0, 37, 0
2, 55245, Note_on_c, 0, 68, 64
2, 55245, Note_on_c, 0, 73, 64
2, 55245, Note_on_c, 0, 39, 64
2, 55271, Note_on_c, 0, 39, 0
2, 55275, Note_on_c, 0, 40, 64
2, 55290, Note_on_c, 0, 76, 0
2, 55297, Note_on_c, 0, 68, 0
2, 55297, Note_on_c, 0, 73, 0
2, 55301, Note_on_c, 0, 40, 0
2, 55305, Note_on_c, 0, 80, 64
2, 55305, Note_on_c, 0, 68, 64
2, 55305, Note_on_c, 0, 73, 64
2, 55305, Note_on_c, 0, 39, 64
2, 55331, Note_on_c, 0, 39, 0
2, 55335, Note_on_c, 0, 37, 64
2, 55357, Note_on_c, 0, 73, 0
2, 55357, Note_on_c, 0, 68, 0
2, 55361, Note_on_c, 0, 37, 0
2, 55365, Note_on_c, 0, 68, 64
2, 55365, Note_on_c, 0, 73, 64
2, 55365, Note_on_c, 0, 36, 64
2, 55391, Note_on_c, 0, 36, 0
2, 55395, Note_on_c, 0, 37, 64
2, 55410, Note_on_c, 0, 80, 0
2, 55417, Note_on_c, 0, 68, 0
2, 55417, Note_on_c, 0, 73, 0
2, 55421, Note_on_c, 0, 37, 0
2, 55425, Note_on_c, 0, 68, 64
2, 55425, Note_on_c, 0, 72, 64
2, 55425, Note_on_c, 0, 75, 64
2, 55425, Note_on_c, 0, 38, 64
2, 55451, Note_on_c, 0, 38, 0
2, 55455, Note_on_c, 0, 39, 64
2, 55481, Note_on_c, 0, 39, 0
2, 55485, Note_on_c, 0, 41, 64
2, 55511, Note_on_c, 0, 41, 0
2, 55515, Note_on_c, 0, 39, 64
2, 55530, Note_on_c, 0, 68, 0
2, 55530, Note_on_c, 0, 75, 0
2, 55530, Note_on_c, 0, 72, 0
2, 55541, Note_on_c, 0, 39, 0
2, 55545, Note_on_c, 0, 68, 64
2, 55545, Note_on_c, 0, 80, 64
2, 55545, Note_on_c, 0, 37, 64
2, 55571, Note_on_c, 0, 37, 0
2, 55575, Note_on_c, 0, 36, 64
2, 55601, Note_on_c, 0, 36, 0
2, 55605, Note_on_c, 0, 34, 64
2, 55623, Note_on_c, 0, 80, 0
2, 55623, Note_on_c, 0, 68, 0
2, 55631, Note_on_c, 0, 34, 0
2, 55635, Note_on_c, 0, 72, 64
2, 55635, Note_on_c, 0, 84, 64
2, 55635, Note_on_c, 0, 32, 64
2, 55661, Note_on_c, 0, 32, 0
2, 55661, Note_on_c, 0, 84, 0
2, 55661, Note_on_c, 0, 72, 0
2, 55665, Note_on_c, 0, 75, 64
2, 55665, Note_on_c, 0, 87, 64
2, 55665, Note_on_c, 0, 31, 64
2, 55691, Note_on_c, 0, 31, 0
2, 55695, Note_on_c, 0, 32, 64
2, 55717, Note_on_c, 0, 87, 0
2, 55717, Note_on_c, 0, 75, 0
2, 55721, Note_on_c, 0, 32, 0
2, 55725, Note_on_c, 0, 87, 64
2, 55725, Note_on_c, 0, 34, 64
2, 55751, Note_on_c, 0, 34, 0
2, 55755, Note_on_c, 0, 36, 64
2, 55777, Note_on_c, 0, 87, 0
2, 55781, Note_on_c, 0, 36, 0
2, 55785, Note_on_c, 0, 89, 64
2, 55785, Note_on_c, 0, 37, 64
2, 55798, Note_on_c, 0, 89, 0
2, 55800, Note_on_c, 0, 87, 64
2, 55811, Note_on_c, 0, 37, 0
2, 55813, Note_on_c, 0, 87, 0
2, 55815, Note_on_c, 0, 89, 64
2, 55815, Note_on_c, 0, 36, 64
2, 55828, Note_on_c, 0, 89, 0
2, 55830, Note_on_c, 0, 87, 64
2, 55841, Note_on_c, 0, 36, 0
2, 55843, Note_on_c, 0, 87, 0
2, 55845, Note_on_c, 0, 89, 64
2, 55845, Note_on_c, 0, 37, 64
2, 55858, Note_on_c, 0, 89, 0
2, 55860, Note_on_c, 0, 87, 64
2, 55871, Note_on_c, 0, 37, 0
2, 55873, Note_on_c, 0, 87, 0
2, 55875, Note_on_c, 0, 86, 64
2, 55875, Note_on_c, 0, 35, 64
2, 55888, Note_on_c, 0, 86, 0
2, 55890, Note_on_c, 0, 87, 64
2, 55901, Note_on_c, 0, 35, 0
2, 55903, Note_on_c, 0, 87, 0
2, 55905, Note_on_c, 0, 87, 64
2, 55905, Note_on_c, 0, 36, 64
2, 55931, Note_on_c, 0, 36, 0
2, 55935, Note_on_c, 0, 37, 64
2, 55957, Note_on_c, 0, 87, 0
2, 55961, Note_on_c, 0, 37, 0
2, 55965, Note_on_c, 0, 89, 64
2, 55965, Note_on_c, 0, 39, 64
2, 55991, Note_on_c, 0, 39, 0
2, 55991, Note_on_c, 0, 89, 0
2, 55995, Note_on_c, 0, 91, 64
2, 55995, Note_on_c, 0, 37, 64
2, 56021, Note_on_c, 0, 37, 0
2, 56021, Note_on_c, 0, 91, 0
2, 56025, Note_on_c, 0, 91, 64
2, 56025, Note_on_c, 0, 36, 64
2, 56051, Note_on_c, 0, 36, 0
2, 56055, Note_on_c, 0, 35, 64
2, 56077, Note_on_c, 0, 91, 0
2, 56081, Note_on_c, 0, 35, 0
2, 56085, Note_on_c, 0, 92, 64
2, 56085, Note_on_c, 0, 36, 64
2, 56111, Note_on_c, 0, 36, 0
2, 56115, Note_on_c, 0, 32, 64
2, 56137, Note_on_c, 0, 92, 0
2, 56141, Note_on_c, 0, 32, 0
2, 56145, Note_on_c, 0, 31, 64
2, 56171, Note_on_c, 0, 31, 0
2, 56175, Note_on_c, 0, 32, 64
2, 56201, Note_on_c, 0, 32, 0
2, 56205, Note_on_c, 0, 75, 64
2, 56205, Note_on_c, 0, 34, 64
2, 56231, Note_on_c, 0, 34, 0
2, 56235, Note_on_c, 0, 36, 64
2, 56257, Note_on_c, 0, 75, 0
2, 56261, Note_on_c, 0, 36, 0
2, 56265, Note_on_c, 0, 77, 64
2, 56265, Note_on_c, 0, 37, 64
2, 56278, Note_on_c, 0, 77, 0
2, 56280, Note_on_c, 0, 75, 64
2, 56291, Note_on_c, 0, 37, 0
2, 56293, Note_on_c, 0, 75, 0
2, 56295, Note_on_c, 0, 77, 64
2, 56295, Note_on_c, 0, 36, 64
2, 56308, Note_on_c, 0, 77, 0
2, 56310, Note_on_c, 0, 75, 64
2, 56321, Note_on_c, 0, 36, 0
2, 56323, Note_on_c, 0, 75, 0
2, 56325, Note_on_c, 0, 77, 64
2, 56325, Note_on_c, 0, 37, 64
2, 56338, Note_on_c, 0, 77, 0
2, 56340, Note_on_c, 0, 75, 64
2, 56351, Note_on_c, 0, 37, 0
2, 56353, Note_on_c, 0, 75, 0
2, 56355, Note_on_c, 0, 74, 64
2, 56355, Note_on_c, 0, 35, 64
2, 56368, Note_on_c, 0, 74, 0
2, 56370, Note_on_c, 0, 75, 64
2, 56381, Note_on_c, 0, 35, 0
2, 56383, Note_on_c, 0, 75, 0
2, 56385, Note_on_c, 0, 75, 64
2, 56385, Note_on_c, 0, 36, 64
2, 56411, Note_on_c, 0, 36, 0
2, 56415, Note_on_c, 0, 37, 64
2, 56437, Note_on_c, 0, 75, 0
2, 56441, Note_on_c, 0, 37, 0
2, 56445, Note_on_c, 0, 77, 64
2, 56445, Note_on_c, 0, 39, 64
2, 56471, Note_on_c, 0, 39, 0
2, 56471, Note_on_c, 0, 77, 0
2, 56475, Note_on_c, 0, 79, 64
2, 56475, Note_on_c, 0, 37, 64
2, 56501, Note_on_c, 0, 37, 0
2, 56501, Note_on_c, 0, 79, 0
2, 56505, Note_on_c, 0, 79, 64
2, 56505, Note_on_c, 0, 36, 64
2, 56531, Note_on_c, 0, 36, 0
2, 56535, Note_on_c, 0, 35, 64
2, 56557, Note_on_c, 0, 79, 0
2, 56561, Note_on_c, 0, 35, 0
2, 56565, Note_on_c, 0, 80, 64
2, 56565, Note_on_c, 0, 36, 64
2, 56591, Note_on_c, 0, 36, 0
2, 56595, Note_on_c, 0, 32, 64
2, 56617, Note_on_c, 0, 80, 0
2, 56621, Note_on_c, 0, 32, 0
2, 56625, Note_on_c, 0, 31, 64
2, 56651, Note_on_c, 0, 31, 0
2, 56655, Note_on_c, 0, 32, 64
2, 56681, Note_on_c, 0, 32, 0
2, 56685, Note_on_c, 0, 63, 64
2, 56685, Note_on_c, 0, 34, 64
2, 56711, Note_on_c, 0, 34, 0
2, 56715, Note_on_c, 0, 36, 64
2, 56737, Note_on_c, 0, 63, 0
2, 56741, Note_on_c, 0, 36, 0
2, 56745, Note_on_c, 0, 65, 64
2, 56745, Note_on_c, 0, 37, 64
2, 56758, Note_on_c, 0, 65, 0
2, 56760, Note_on_c, 0, 63, 64
2, 56771, Note_on_c, 0, 37, 0
2, 56773, Note_on_c, 0, 63, 0
2, 56775, Note_on_c, 0, 65, 64
2, 56775, Note_on_c, 0, 39, 64
2, 56788, Note_on_c, 0, 65, 0
2, 56790, Note_on_c, 0, 63, 64
2, 56801, Note_on_c, 0, 39, 0
2, 56803, Note_on_c, 0, 63, 0
2, 56805, Note_on_c, 0, 65, 64
2, 56805, Note_on_c, 0, 41, 64
2, 56818, Note_on_c, 0, 65, 0
2, 56820, Note_on_c, 0, 63, 64
2, 56831, Note_on_c, 0, 41, 0
2, 56833, Note_on_c, 0, 63, 0
2, 56835, Note_on_c, 0, 65, 64
2, 56835, Note_on_c, 0, 43, 64
2, 56848, Note_on_c, 0, 65, 0
2, 56850, Note_on_c, 0, 67, 64
2, 56861, Note_on_c, 0, 43, 0
2, 56863, Note_on_c, 0, 67, 0
2, 56865, Note_on_c, 0, 68, 64
2, 56865, Note_on_c, 0, 44, 64
2, 56891, Note_on_c, 0, 44, 0
2, 56891, Note_on_c, 0, 68, 0
2, 56895, Note_on_c, 0, 70, 64
2, 56895, Note_on_c, 0, 46, 64
2, 56921, Note_on_c, 0, 46, 0
2, 56921, Note_on_c, 0, 70, 0
2, 56925, Note_on_c, 0, 72, 64
2, 56925, Note_on_c, 0, 48, 64
2, 56951, Note_on_c, 0, 48, 0
2, 56951, Note_on_c, 0, 72, 0
2, 56955, Note_on_c, 0, 71, 64
2, 56955, Note_on_c, 0, 47, 64
2, 56981, Note_on_c, 0, 47, 0
2, 56981, Note_on_c, 0, 71, 0
2, 56985, Note_on_c, 0, 72, 64
2, 56985, Note_on_c, 0, 48, 64
2, 57011, Note_on_c, 0, 48, 0
2, 57011, Note_on_c, 0, 72, 0
2, 57015, Note_on_c, 0, 73, 64
2, 57015, Note_on_c, 0, 49, 64
2, 57041, Note_on_c, 0, 49, 0
2, 57041, Note_on_c, 0, 73, 0
2, 57045, Note_on_c, 0, 74, 64
2, 57045, Note_on_c, 0, 50, 64
2, 57071, Note_on_c, 0, 50, 0
2, 57071, Note_on_c, 0, 74, 0
2, 57075, Note_on_c, 0, 73, 64
2, 57075, Note_on_c, 0, 49, 64
2, 57101, Note_on_c, 0, 49, 0
2, 57101, Note_on_c, 0, 73, 0
2, 57105, Note_on_c, 0, 74, 64
2, 57105, Note_on_c, 0, 50, 64
2, 57131, Note_on_c, 0, 50, 0
2, 57131, Note_on_c, 0, 74, 0
2, 57135, Note_on_c, 0, 75, 64
2, 57135, Note_on_c, 0, 51, 64
2, 57161, Note_on_c, 0, 51, 0
2, 57161, Note_on_c, 0, 75, 0
2, 57165, Note_on_c, 0, 76, 64
2, 57165, Note_on_c, 0, 52, 64
2, 57191, Note_on_c, 0, 52, 0
2, 57191, Note_on_c, 0, 76, 0
2, 57195, Note_on_c, 0, 75, 64
2, 57195, Note_on_c, 0, 51, 64
2, 57221, Note_on_c, 0, 51, 0
2, 57221, Note_on_c, 0, 75, 0
2, 57225, Note_on_c, 0, 76, 64
2, 57225, Note_on_c, 0, 52, 64
2, 57251, Note_on_c, 0, 52, 0
2, 57251, Note_on_c, 0, 76, 0
2, 57255, Note_on_c, 0, 77, 64
2, 57255, Note_on_c, 0, 53, 64
2, 57281, Note_on_c, 0, 53, 0
2, 57281, Note_on_c, 0, 77, 0
2, 57285, Note_on_c, 0, 78, 64
2, 57285, Note_on_c, 0, 54, 64
2, 57311, Note_on_c, 0, 54, 0
2, 57311, Note_on_c, 0, 78, 0
2, 57315, Note_on_c, 0, 79, 64
2, 57315, Note_on_c, 0, 55, 64
2, 57341, Note_on_c, 0, 55, 0
2, 57341, Note_on_c, 0, 79, 0
2, 57345, Note_on_c, 0, 80, 64
2, 57345, Note_on_c, 0, 56, 64
2, 57371, Note_on_c, 0, 56, 0
2, 57371, Note_on_c, 0, 80, 0
2, 57375, Note_on_c, 0, 82, 64
2, 57375, Note_on_c, 0, 58, 64
2, 57401, Note_on_c, 0, 58, 0
2, 57401, Note_on_c, 0, 82, 0
2, 57405, Note_on_c, 0, 84, 64
2, 57405, Note_on_c, 0, 60, 64
2, 57431, Note_on_c, 0, 60, 0
2, 57431, Note_on_c, 0, 84, 0
2, 57435, Note_on_c, 0, 83, 64
2, 57435, Note_on_c, 0, 59, 64
2, 57461, Note_on_c, 0, 59, 0
2, 57461, Note_on_c, 0, 83, 0
2, 57465, Note_on_c, 0, 84, 64
2, 57465, Note_on_c, 0, 60, 64
2, 57491, Note_on_c, 0, 60, 0
2, 57491, Note_on_c, 0, 84, 0
2, 57495, Note_on_c, 0, 85, 64
2, 57495, Note_on_c, 0, 61, 64
2, 57521, Note_on_c, 0, 61, 0
2, 57521, Note_on_c, 0, 85, 0
2, 57525, Note_on_c, 0, 86, 64
2, 57525, Note_on_c, 0, 62, 64
2, 57551, Note_on_c, 0, 62, 0
2, 57551, Note_on_c, 0, 86, 0
2, 57555, Note_on_c, 0, 85, 64
2, 57555, Note_on_c, 0, 61, 64
2, 57581, Note_on_c, 0, 61, 0
2, 57581, Note_on_c, 0, 85, 0
2, 57585, Note_on_c, 0, 86, 64
2, 57585, Note_on_c, 0, 62, 64
2, 57611, Note_on_c, 0, 62, 0
2, 57611, Note_on_c, 0, 86, 0
2, 57615, Note_on_c, 0, 87, 64
2, 57615, Note_on_c, 0, 63, 64
2, 57641, Note_on_c, 0, 63, 0
2, 57641, Note_on_c, 0, 87, 0
2, 57645, Note_on_c, 0, 88, 64
2, 57645, Note_on_c, 0, 64, 64
2, 57671, Note_on_c, 0, 64, 0
2, 57671, Note_on_c, 0, 88, 0
2, 57675, Note_on_c, 0, 87, 64
2, 57675, Note_on_c, 0, 63, 64
2, 57701, Note_on_c, 0, 63, 0
2, 57701, Note_on_c, 0, 87, 0
2, 57705, Note_on_c, 0, 88, 64
2, 57705, Note_on_c, 0, 64, 64
2, 57731, Note_on_c, 0, 64, 0
2, 57731, Note_on_c, 0, 88, 0
2, 57735, Note_on_c, 0, 89, 64
2, 57735, Note_on_c, 0, 65, 64
2, 57761, Note_on_c, 0, 65, 0
2, 57761, Note_on_c, 0, 89, 0
2, 57765, Note_on_c, 0, 90, 64
2, 57765, Note_on_c, 0, 66, 64
2, 57791, Note_on_c, 0, 66, 0
2, 57791, Note_on_c, 0, 90, 0
2, 57795, Note_on_c, 0, 91, 64
2, 57795, Note_on_c, 0, 67, 64
2, 57821, Note_on_c, 0, 67, 0
2, 57821, Note_on_c, 0, 91, 0
2, 57825, Note_on_c, 0, 80, 64
2, 57825, Note_on_c, 0, 92, 64
2, 57825, Note_on_c, 0, 68, 64
2, 57930, Note_on_c, 0, 68, 0
2, 57930, Note_on_c, 0, 92, 0
2, 57930, Note_on_c, 0, 80, 0
2, 57945, Note_on_c, 0, 56, 64
2, 57945, Note_on_c, 0, 68, 64
2, 57945, Note_on_c, 0, 32, 64
2, 57945, Note_on_c, 0, 44, 64
2, 58050, Note_on_c, 0, 44, 0
2, 58050, Note_on_c, 0, 56, 0
2, 58050, Note_on_c, 0, 68, 0
2, 58050, Note_on_c, 0, 32, 0
2, 58425, Note_on_c, 0, 55, 64
2, 58425, Note_on_c, 0, 67, 64
2, 58425, Note_on_c, 0, 31, 64
2, 58425, Note_on_c, 0, 43, 64
2, 58530, Note_on_c, 0, 43, 0
2, 58530, Note_on_c, 0, 55, 0
2, 58530, Note_on_c, 0, 67, 0
2, 58530, Note_on_c, 0, 31, 0
2, 58845, Note_on_c, 0, 69, 64
2, 58862, Note_on_c, 0, 69, 0
2, 58864, Note_on_c, 0, 71, 64
2, 58882, Note_on_c, 0, 71, 0
2, 58884, Note_on_c, 0, 73, 64
2, 58902, Note_on_c, 0, 73, 0
2, 58905, Note_on_c, 0, 62, 64
2, 58905, Note_on_c, 0, 69, 64
2, 58905, Note_on_c, 0, 74, 64
2, 58905, Note_on_c, 0, 30, 64
2, 58905, Note_on_c, 0, 42, 64
2, 59010, Note_on_c, 0, 42, 0
2, 59010, Note_on_c, 0, 74, 0
2, 59010, Note_on_c, 0, 62, 0
2, 59010, Note_on_c, 0, 69, 0
2, 59010, Note_on_c, 0, 30, 0
2, 59445, Note_on_c, 0, 62, 64
2, 59445, Note_on_c, 0, 38, 64
2, 59462, Note_on_c, 0, 38, 0
2, 59462, Note_on_c, 0, 62, 0
2, 59464, Note_on_c, 0, 64, 64
2, 59464, Note_on_c, 0, 40, 64
2, 59482, Note_on_c, 0, 40, 0
2, 59482, Note_on_c, 0, 64, 0
2, 59484, Note_on_c, 0, 66, 64
2, 59484, Note_on_c, 0, 42, 64
2, 59502, Note_on_c, 0, 42, 0
2, 59502, Note_on_c, 0, 66, 0
2, 59505, Note_on_c, 0, 55, 64
2, 59505, Note_on_c, 0, 67, 64
2, 59505, Note_on_c, 0, 31, 64
2, 59505, Note_on_c, 0, 43, 64
2, 59610, Note_on_c, 0, 43, 0
2, 59610, Note_on_c, 0, 55, 0
2, 59610, Note_on_c, 0, 67, 0
2, 59610, Note_on_c, 0, 31, 0
2, 59625, Note_on_c, 0, 58, 64
2, 59625, Note_on_c, 0, 70, 64
2, 59625, Note_on_c, 0, 34, 64
2, 59625, Note_on_c, 0, 46, 64
2, 59730, Note_on_c, 0, 46, 0
2, 59730, Note_on_c, 0, 58, 0
2, 59730, Note_on_c, 0, 70, 0
2, 59730, Note_on_c, 0, 34, 0
2, 59745, Note_on_c, 0, 54, 64
2, 59745, Note_on_c, 0, 66, 64
2, 59745, Note_on_c, 0, 30, 64
2, 59745, Note_on_c, 0, 42, 64
2, 59970, Note_on_c, 0, 42, 0
2, 59970, Note_on_c, 0, 54, 0
2, 59970, Note_on_c, 0, 66, 0
2, 59970, Note_on_c, 0, 30, 0
2, 59985, Note_on_c, 0, 53, 64
2, 59985, Note_on_c, 0, 65, 64
2, 59985, Note_on_c, 0, 29, 64
2, 59985, Note_on_c, 0, 41, 64
2, 60090, Note_on_c, 0, 41, 0
2, 60090, Note_on_c, 0, 53, 0
2, 60090, Note_on_c, 0, 65, 0
2, 60090, Note_on_c, 0, 29, 0
2, 60105, Note_on_c, 0, 56, 64
2, 60105, Note_on_c, 0, 68, 64
2, 60105, Note_on_c, 0, 32, 64
2, 60105, Note_on_c, 0, 44, 64
2, 60210, Note_on_c, 0, 44, 0
2, 60210, Note_on_c, 0, 56, 0
2, 60210, Note_on_c, 0, 68, 0
2, 60210, Note_on_c, 0, 32, 0
2, 60225, Note_on_c, 0, 52, 64
2, 60225, Note_on_c, 0, 64, 64
2, 60225, Note_on_c, 0, 28, 64
2, 60225, Note_on_c, 0, 40, 64
2, 60450, Note_on_c, 0, 40, 0
2, 60450, Note_on_c, 0, 52, 0
2, 60450, Note_on_c, 0, 64, 0
2, 60450, Note_on_c, 0, 28, 0
2, 60465, Note_on_c, 0, 51, 64
2, 60465, Note_on_c, 0, 63, 64
2, 60465, Note_on_c, 0, 27, 64
2, 60465, Note_on_c, 0, 39, 64
2, 60570, Note_on_c, 0, 39, 0
2, 60570, Note_on_c, 0, 51, 0
2, 60570, Note_on_c, 0, 63, 0
2, 60570, Note_on_c, 0, 27, 0
2, 60585, Note_on_c, 0, 55, 64
2, 60585, Note_on_c, 0, 67, 64
2, 60585, Note_on_c, 0, 31, 64
2, 60585, Note_on_c, 0, 43, 64
2, 60690, Note_on_c, 0, 43, 0
2, 60690, Note_on_c, 0, 55, 0
2, 60690, Note_on_c, 0, 67, 0
2, 60690, Note_on_c, 0, 31, 0
2, 60705, Note_on_c, 0, 50, 64
2, 60705, Note_on_c, 0, 62, 64
2, 60705, Note_on_c, 0, 26, 64
2, 60705, Note_on_c, 0, 38, 64
2, 60810, Note_on_c, 0, 38, 0
2, 60810, Note_on_c, 0, 50, 0
2, 60810, Note_on_c, 0, 62, 0
2, 60810, Note_on_c, 0, 26, 0
2, 60825, Note_on_c, 0, 55, 64
2, 60825, Note_on_c, 0, 67, 64
2, 60825, Note_on_c, 0, 31, 64
2, 60825, Note_on_c, 0, 43, 64
2, 60903, Note_on_c, 0, 43, 0
2, 60903, Note_on_c, 0, 55, 0
2, 60903, Note_on_c, 0, 67, 0
2, 60903, Note_on_c, 0, 31, 0
2, 60915, Note_on_c, 0, 58, 64
2, 60915, Note_on_c, 0, 70, 64
2, 60915, Note_on_c, 0, 34, 64
2, 60915, Note_on_c, 0, 46, 64
2, 60941, Note_on_c, 0, 46, 0
2, 60941, Note_on_c, 0, 58, 0
2, 60941, Note_on_c, 0, 70, 0
2, 60941, Note_on_c, 0, 34, 0
2, 60945, Note_on_c, 0, 62, 64
2, 60945, Note_on_c, 0, 74, 64
2, 60945, Note_on_c, 0, 38, 64
2, 60945, Note_on_c, 0, 50, 64
2, 61050, Note_on_c, 0, 50, 0
2, 61050, Note_on_c, 0, 62, 0
2, 61050, Note_on_c, 0, 74, 0
2, 61050, Note_on_c, 0, 38, 0
2, 61065, Note_on_c, 0, 54, 64
2, 61065, Note_on_c, 0, 57, 64
2, 61065, Note_on_c, 0, 62, 64
2, 61065, Note_on_c, 0, 36, 64
2, 61065, Note_on_c, 0, 48, 64
2, 61170, Note_on_c, 0, 48, 0
2, 61170, Note_on_c, 0, 62, 0
2, 61170, Note_on_c, 0, 54, 0
2, 61170, Note_on_c, 0, 57, 0
2, 61170, Note_on_c, 0, 36, 0
2, 61185, Note_on_c, 0, 62, 64
2, 61185, Note_on_c, 0, 35, 64
2, 61185, Note_on_c, 0, 47, 64
2, 61290, Note_on_c, 0, 47, 0
2, 61290, Note_on_c, 0, 35, 0
2, 61305, Note_on_c, 0, 31, 64
2, 61305, Note_on_c, 0, 43, 64
2, 61410, Note_on_c, 0, 43, 0
2, 61410, Note_on_c, 0, 31, 0
2, 61410, Note_on_c, 0, 62, 0
2, 61425, Note_on_c, 0, 63, 64
2, 61425, Note_on_c, 0, 55, 64
2, 61530, Note_on_c, 0, 55, 0
2, 61545, Note_on_c, 0, 60, 64
2, 61650, Note_on_c, 0, 60, 0
2, 61650, Note_on_c, 0, 63, 0
2, 61665, Note_on_c, 0, 57, 64
2, 61665, Note_on_c, 0, 54, 64
2, 61830, Note_on_c, 0, 54, 0
2, 61845, Note_on_c, 0, 63, 64
2, 61890, Note_on_c, 0, 57, 0
2, 61897, Note_on_c, 0, 63, 0
2, 61905, Note_on_c, 0, 67, 64
2, 61905, Note_on_c, 0, 62, 64
2, 61922, Note_on_c, 0, 67, 0
2, 61924, Note_on_c, 0, 66, 64
2, 61942, Note_on_c, 0, 66, 0
2, 61944, Note_on_c, 0, 67, 64
2, 61957, Note_on_c, 0, 62, 0
2, 61962, Note_on_c, 0, 67, 0
2, 61965, Note_on_c, 0, 66, 64
2, 61965, Note_on_c, 0, 60, 64
2, 61982, Note_on_c, 0, 66, 0
2, 61984, Note_on_c, 0, 67, 64
2, 62002, Note_on_c, 0, 67, 0
2, 62004, Note_on_c, 0, 66, 64
2, 62017, Note_on_c, 0, 60, 0
2, 62022, Note_on_c, 0, 66, 0
2, 62025, Note_on_c, 0, 67, 64
2, 62025, Note_on_c, 0, 58, 64
2, 62025, Note_on_c, 0, 50, 64
2, 62042, Note_on_c, 0, 67, 0
2, 62044, Note_on_c, 0, 66, 64
2, 62062, Note_on_c, 0, 66, 0
2, 62064, Note_on_c, 0, 67, 64
2, 62077, Note_on_c, 0, 58, 0
2, 62082, Note_on_c, 0, 67, 0
2, 62085, Note_on_c, 0, 67, 64
2, 62085, Note_on_c, 0, 57, 64
2, 62102, Note_on_c, 0, 67, 0
2, 62104, Note_on_c, 0, 64, 64
2, 62122, Note_on_c, 0, 64, 0
2, 62124, Note_on_c, 0, 66, 64
2, 62130, Note_on_c, 0, 50, 0
2, 62137, Note_on_c, 0, 57, 0
2, 62142, Note_on_c, 0, 66, 0
2, 62145, Note_on_c, 0, 67, 64
2, 62145, Note_on_c, 0, 55, 64
2, 62145, Note_on_c, 0, 59, 64
2, 62171, Note_on_c, 0, 67, 0
2, 62175, Note_on_c, 0, 62, 64
2, 62201, Note_on_c, 0, 62, 0
2, 62205, Note_on_c, 0, 63, 64
2, 62231, Note_on_c, 0, 63, 0
2, 62235, Note_on_c, 0, 65, 64
2, 62250, Note_on_c, 0, 59, 0
2, 62261, Note_on_c, 0, 65, 0
2, 62265, Note_on_c, 0, 67, 64
2, 62291, Note_on_c, 0, 67, 0
2, 62295, Note_on_c, 0, 65, 64
2, 62321, Note_on_c, 0, 65, 0
2, 62325, Note_on_c, 0, 63, 64
2, 62351, Note_on_c, 0, 63, 0
2, 62355, Note_on_c, 0, 62, 64
2, 62370, Note_on_c, 0, 55, 0
2, 62381, Note_on_c, 0, 62, 0
2, 62385, Note_on_c, 0, 60, 64
2, 62385, Note_on_c, 0, 56, 64
2, 62490, Note_on_c, 0, 60, 0
2, 62505, Note_on_c, 0, 63, 64
2, 62610, Note_on_c, 0, 63, 0
2, 62610, Note_on_c, 0, 56, 0
2, 62625, Note_on_c, 0, 59, 64
2, 62625, Note_on_c, 0, 50, 64
2, 62790, Note_on_c, 0, 59, 0
2, 62805, Note_on_c, 0, 68, 64
2, 62850, Note_on_c, 0, 50, 0
2, 62857, Note_on_c, 0, 68, 0
2, 62865, Note_on_c, 0, 67, 64
2, 62865, Note_on_c, 0, 60, 64
2, 62882, Note_on_c, 0, 60, 0
2, 62884, Note_on_c, 0, 59, 64
2, 62902, Note_on_c, 0, 59, 0
2, 62904, Note_on_c, 0, 60, 64
2, 62917, Note_on_c, 0, 67, 0
2, 62922, Note_on_c, 0, 60, 0
2, 62925, Note_on_c, 0, 65, 64
2, 62925, Note_on_c, 0, 59, 64
2, 62942, Note_on_c, 0, 59, 0
2, 62944, Note_on_c, 0, 60, 64
2, 62962, Note_on_c, 0, 60, 0
2, 62964, Note_on_c, 0, 59, 64
2, 62977, Note_on_c, 0, 65, 0
2, 62982, Note_on_c, 0, 59, 0
2, 62985, Note_on_c, 0, 63, 64
2, 62985, Note_on_c, 0, 60, 64
2, 63002, Note_on_c, 0, 60, 0
2, 63004, Note_on_c, 0, 59, 64
2, 63022, Note_on_c, 0, 59, 0
2, 63024, Note_on_c, 0, 60, 64
2, 63037, Note_on_c, 0, 63, 0
2, 63042, Note_on_c, 0, 60, 0
2, 63045, Note_on_c, 0, 62, 64
2, 63045, Note_on_c, 0, 59, 64
2, 63062, Note_on_c, 0, 59, 0
2, 63064, Note_on_c, 0, 57, 64
2, 63082, Note_on_c, 0, 57, 0
2, 63084, Note_on_c, 0, 59, 64
2, 63097, Note_on_c, 0, 62, 0
2, 63102, Note_on_c, 0, 59, 0
2, 63105, Note_on_c, 0, 64, 64
2, 63105, Note_on_c, 0, 72, 64
2, 63105, Note_on_c, 0, 60, 64
2, 63131, Note_on_c, 0, 64, 0
2, 63135, Note_on_c, 0, 65, 64
2, 63161, Note_on_c, 0, 65, 0
2, 63165, Note_on_c, 0, 64, 64
2, 63191, Note_on_c, 0, 64, 0
2, 63195, Note_on_c, 0, 61, 64
2, 63210, Note_on_c, 0, 60, 0
2, 63221, Note_on_c, 0, 61, 0
2, 63225, Note_on_c, 0, 60, 64
2, 63251, Note_on_c, 0, 60, 0
2, 63255, Note_on_c, 0, 67, 64
2, 63255, Note_on_c, 0, 58, 64
2, 63281, Note_on_c, 0, 58, 0
2, 63281, Note_on_c, 0, 67, 0
2, 63285, Note_on_c, 0, 65, 64
2, 63285, Note_on_c, 0, 56, 64
2, 63311, Note_on_c, 0, 56, 0
2, 63311, Note_on_c, 0, 65, 0
2, 63315, Note_on_c, 0, 64, 64
2, 63315, Note_on_c, 0, 55, 64
2, 63330, Note_on_c, 0, 72, 0
2, 63341, Note_on_c, 0, 55, 0
2, 63341, Note_on_c, 0, 64, 0
2, 63345, Note_on_c, 0, 65, 64
2, 63345, Note_on_c, 0, 73, 64
2, 63345, Note_on_c, 0, 56, 64
2, 63450, Note_on_c, 0, 56, 0
2, 63450, Note_on_c, 0, 65, 0
2, 63465, Note_on_c, 0, 68, 64
2, 63465, Note_on_c, 0, 53, 64
2, 63570, Note_on_c, 0, 53, 0
2, 63570, Note_on_c, 0, 68, 0
2, 63570, Note_on_c, 0, 73, 0
2, 63585, Note_on_c, 0, 67, 64
2, 63585, Note_on_c, 0, 64, 64
2, 63585, Note_on_c, 0, 58, 64
2, 63690, Note_on_c, 0, 58, 0
2, 63705, Note_on_c, 0, 55, 64
2, 63750, Note_on_c, 0, 64, 0
2, 63765, Note_on_c, 0, 74, 64
2, 63810, Note_on_c, 0, 55, 0
2, 63810, Note_on_c, 0, 67, 0
2, 63817, Note_on_c, 0, 74, 0
2, 63825, Note_on_c, 0, 77, 64
2, 63825, Note_on_c, 0, 72, 64
2, 63825, Note_on_c, 0, 60, 64
2, 63842, Note_on_c, 0, 77, 0
2, 63844, Note_on_c, 0, 76, 64
2, 63862, Note_on_c, 0, 76, 0
2, 63864, Note_on_c, 0, 77, 64
2, 63877, Note_on_c, 0, 72, 0
2, 63882, Note_on_c, 0, 77, 0
2, 63885, Note_on_c, 0, 76, 64
2, 63885, Note_on_c, 0, 70, 64
2, 63902, Note_on_c, 0, 76, 0
2, 63904, Note_on_c, 0, 77, 64
2, 63922, Note_on_c, 0, 77, 0
2, 63924, Note_on_c, 0, 76, 64
2, 63930, Note_on_c, 0, 60, 0
2, 63937, Note_on_c, 0, 70, 0
2, 63942, Note_on_c, 0, 76, 0
2, 63945, Note_on_c, 0, 77, 64
2, 63945, Note_on_c, 0, 68, 64
2, 63945, Note_on_c, 0, 48, 64
2, 63962, Note_on_c, 0, 77, 0
2, 63964, Note_on_c, 0, 76, 64
2, 63982, Note_on_c, 0, 76, 0
2, 63984, Note_on_c, 0, 77, 64
2, 63997, Note_on_c, 0, 68, 0
2, 64002, Note_on_c, 0, 77, 0
2, 64005, Note_on_c, 0, 76, 64
2, 64005, Note_on_c, 0, 67, 64
2, 64022, Note_on_c, 0, 76, 0
2, 64024, Note_on_c, 0, 74, 64
2, 64042, Note_on_c, 0, 74, 0
2, 64044, Note_on_c, 0, 76, 64
2, 64050, Note_on_c, 0, 48, 0
2, 64057, Note_on_c, 0, 67, 0
2, 64062, Note_on_c, 0, 76, 0
2, 64065, Note_on_c, 0, 68, 64
2, 64065, Note_on_c, 0, 77, 64
2, 64065, Note_on_c, 0, 53, 64
2, 64091, Note_on_c, 0, 77, 0
2, 64091, Note_on_c, 0, 68, 0
2, 64095, Note_on_c, 0, 70, 64
2, 64121, Note_on_c, 0, 70, 0
2, 64125, Note_on_c, 0, 68, 64
2, 64151, Note_on_c, 0, 68, 0
2, 64155, Note_on_c, 0, 67, 64
2, 64181, Note_on_c, 0, 67, 0
2, 64185, Note_on_c, 0, 65, 64
2, 64211, Note_on_c, 0, 65, 0
2, 64215, Note_on_c, 0, 68, 64
2, 64241, Note_on_c, 0, 68, 0
2, 64245, Note_on_c, 0, 73, 64
2, 64271, Note_on_c, 0, 73, 0
2, 64275, Note_on_c, 0, 71, 64
2, 64290, Note_on_c, 0, 53, 0
2, 64301, Note_on_c, 0, 71, 0
2, 64305, Note_on_c, 0, 72, 64
2, 64305, Note_on_c, 0, 53, 64
2, 64322, Note_on_c, 0, 53, 0
2, 64324, Note_on_c, 0, 52, 64
2, 64331, Note_on_c, 0, 72, 0
2, 64335, Note_on_c, 0, 71, 64
2, 64342, Note_on_c, 0, 52, 0
2, 64344, Note_on_c, 0, 53, 64
2, 64361, Note_on_c, 0, 71, 0
2, 64362, Note_on_c, 0, 53, 0
2, 64365, Note_on_c, 0, 72, 64
2, 64365, Note_on_c, 0, 52, 64
2, 64382, Note_on_c, 0, 52, 0
2, 64384, Note_on_c, 0, 53, 64
2, 64391, Note_on_c, 0, 72, 0
2, 64395, Note_on_c, 0, 70, 64
2, 64402, Note_on_c, 0, 53, 0
2, 64404, Note_on_c, 0, 52, 64
2, 64421, Note_on_c, 0, 70, 0
2, 64422, Note_on_c, 0, 52, 0
2, 64425, Note_on_c, 0, 72, 64
2, 64425, Note_on_c, 0, 53, 64
2, 64442, Note_on_c, 0, 53, 0
2, 64444, Note_on_c, 0, 52, 64
2, 64451, Note_on_c, 0, 72, 0
2, 64455, Note_on_c, 0, 68, 64
2, 64462, Note_on_c, 0, 52, 0
2, 64464, Note_on_c, 0, 53, 64
2, 64481, Note_on_c, 0, 68, 0
2, 64482, Note_on_c, 0, 53, 0
2, 64485, Note_on_c, 0, 72, 64
2, 64485, Note_on_c, 0, 52, 64
2, 64502, Note_on_c, 0, 52, 0
2, 64504, Note_on_c, 0, 50, 64
2, 64511, Note_on_c, 0, 72, 0
2, 64515, Note_on_c, 0, 67, 64
2, 64522, Note_on_c, 0, 50, 0
2, 64524, Note_on_c, 0, 52, 64
2, 64541, Note_on_c, 0, 67, 0
2, 64542, Note_on_c, 0, 52, 0
2, 64545, Note_on_c, 0, 56, 64
2, 64545, Note_on_c, 0, 68, 64
2, 64545, Note_on_c, 0, 41, 64
2, 64545, Note_on_c, 0, 53, 64
2, 64571, Note_on_c, 0, 68, 0
2, 64571, Note_on_c, 0, 56, 0
2, 64575, Note_on_c, 0, 58, 64
2, 64601, Note_on_c, 0, 58, 0
2, 64605, Note_on_c, 0, 56, 64
2, 64631, Note_on_c, 0, 56, 0
2, 64635, Note_on_c, 0, 55, 64
2, 64650, Note_on_c, 0, 53, 0
2, 64661, Note_on_c, 0, 55, 0
2, 64665, Note_on_c, 0, 53, 64
2, 64691, Note_on_c, 0, 53, 0
2, 64695, Note_on_c, 0, 57, 64
2, 64721, Note_on_c, 0, 57, 0
2, 64725, Note_on_c, 0, 61, 64
2, 64751, Note_on_c, 0, 61, 0
2, 64755, Note_on_c, 0, 59, 64
2, 64770, Note_on_c, 0, 41, 0
2, 64781, Note_on_c, 0, 59, 0
2, 64785, Note_on_c, 0, 41, 64
2, 64785, Note_on_c, 0, 60, 64
2, 64802, Note_on_c, 0, 41, 0
2, 64804, Note_on_c, 0, 40, 64
2, 64811, Note_on_c, 0, 60, 0
2, 64815, Note_on_c, 0, 59, 64
2, 64822, Note_on_c, 0, 40, 0
2, 64824, Note_on_c, 0, 41, 64
2, 64841, Note_on_c, 0, 59, 0
2, 64842, Note_on_c, 0, 41, 0
2, 64845, Note_on_c, 0, 40, 64
2, 64845, Note_on_c, 0, 60, 64
2, 64862, Note_on_c, 0, 40, 0
2, 64864, Note_on_c, 0, 41, 64
2, 64871, Note_on_c, 0, 60, 0
2, 64875, Note_on_c, 0, 58, 64
2, 64882, Note_on_c, 0, 41, 0
2, 64884, Note_on_c, 0, 40, 64
2, 64901, Note_on_c, 0, 58, 0
2, 64902, Note_on_c, 0, 40, 0
2, 64905, Note_on_c, 0, 41, 64
2, 64905, Note_on_c, 0, 60, 64
2, 64922, Note_on_c, 0, 41, 0
2, 64924, Note_on_c, 0, 40, 64
2, 64931, Note_on_c, 0, 60, 0
2, 64935, Note_on_c, 0, 57, 64
2, 64942, Note_on_c, 0, 40, 0
2, 64944, Note_on_c, 0, 41, 64
2, 64961, Note_on_c, 0, 57, 0
2, 64962, Note_on_c, 0, 41, 0
2, 64965, Note_on_c, 0, 40, 64
2, 64965, Note_on_c, 0, 60, 64
2, 64982, Note_on_c, 0, 40, 0
2, 64984, Note_on_c, 0, 38, 64
2, 64991, Note_on_c, 0, 60, 0
2, 64995, Note_on_c, 0, 55, 64
2, 65002, Note_on_c, 0, 38, 0
2, 65004, Note_on_c, 0, 40, 64
2, 65021, Note_on_c, 0, 55, 0
2, 65022, Note_on_c, 0, 40, 0
2, 65025, Note_on_c, 0, 41, 64
2, 65025, Note_on_c, 0, 60, 64
2, 65051, Note_on_c, 0, 60, 0
2, 65055, Note_on_c, 0, 56, 64
2, 65077, Note_on_c, 0, 41, 0
2, 65081, Note_on_c, 0, 56, 0
2, 65085, Note_on_c, 0, 39, 64
2, 65085, Note_on_c, 0, 60, 64
2, 65111, Note_on_c, 0, 60, 0
2, 65115, Note_on_c, 0, 55, 64
2, 65137, Note_on_c, 0, 39, 0
2, 65141, Note_on_c, 0, 55, 0
2, 65145, Note_on_c, 0, 38, 64
2, 65145, Note_on_c, 0, 59, 64
2, 65171, Note_on_c, 0, 59, 0
2, 65175, Note_on_c, 0, 53, 64
2, 65197, Note_on_c, 0, 38, 0
2, 65201, Note_on_c, 0, 53, 0
2, 65205, Note_on_c, 0, 36, 64
2, 65205, Note_on_c, 0, 60, 64
2, 65231, Note_on_c, 0, 60, 0
2, 65235, Note_on_c, 0, 51, 64
2, 65257, Note_on_c, 0, 36, 0
2, 65261, Note_on_c, 0, 51, 0
2, 65265, Note_on_c, 0, 62, 64
2, 65265, Note_on_c, 0, 35, 64
2, 65291, Note_on_c, 0, 62, 0
2, 65295, Note_on_c, 0, 55, 64
2, 65317, Note_on_c, 0, 35, 0
2, 65321, Note_on_c, 0, 55, 0
2, 65325, Note_on_c, 0, 64, 64
2, 65325, Note_on_c, 0, 34, 64
2, 65351, Note_on_c, 0, 64, 0
2, 65355, Note_on_c, 0, 60, 64
2, 65377, Note_on_c, 0, 34, 0
2, 65381, Note_on_c, 0, 60, 0
2, 65385, Note_on_c, 0, 65, 64
2, 65385, Note_on_c, 0, 33, 64
2, 65411, Note_on_c, 0, 65, 0
2, 65415, Note_on_c, 0, 60, 64
2, 65437, Note_on_c, 0, 33, 0
2, 65441, Note_on_c, 0, 60, 0
2, 65445, Note_on_c, 0, 66, 64
2, 65445, Note_on_c, 0, 72, 64
2, 65445, Note_on_c, 0, 32, 64
2, 65471, Note_on_c, 0, 72, 0
2, 65471, Note_on_c, 0, 66, 0
2, 65475, Note_on_c, 0, 63, 64
2, 65497, Note_on_c, 0, 32, 0
2, 65501, Note_on_c, 0, 63, 0
2, 65505, Note_on_c, 0, 67, 64
2, 65505, Note_on_c, 0, 72, 64
2, 65505, Note_on_c, 0, 31, 64
2, 65531, Note_on_c, 0, 72, 0
2, 65531, Note_on_c, 0, 67, 0
2, 65535, Note_on_c, 0, 63, 64
2, 65557, Note_on_c, 0, 31, 0
2, 65561, Note_on_c, 0, 63, 0
2, 65565, Note_on_c, 0, 69, 64
2, 65565, Note_on_c, 0, 72, 64
2, 65565, Note_on_c, 0, 75, 64
2, 65565, Note_on_c, 0, 30, 64
2, 65591, Note_on_c, 0, 75, 0
2, 65591, Note_on_c, 0, 69, 0
2, 65591, Note_on_c, 0, 72, 0
2, 65595, Note_on_c, 0, 63, 64
2, 65621, Note_on_c, 0, 63, 0
2, 65625, Note_on_c, 0, 69, 64
2, 65625, Note_on_c, 0, 72, 64
2, 65625, Note_on_c, 0, 75, 64
2, 65651, Note_on_c, 0, 75, 0
2, 65651, Note_on_c, 0, 72, 0
2, 65651, Note_on_c, 0, 69, 0
2, 65655, Note_on_c, 0, 63, 64
2, 65670, Note_on_c, 0, 30, 0
2, 65681, Note_on_c, 0, 63, 0
2, 65685, Note_on_c, 0, 69, 64
2, 65685, Note_on_c, 0, 72, 64
2, 65685, Note_on_c, 0, 75, 64
2, 65685, Note_on_c, 0, 30, 64
2, 65685, Note_on_c, 0, 42, 64
2, 65711, Note_on_c, 0, 75, 0
2, 65711, Note_on_c, 0, 69, 0
2, 65711, Note_on_c, 0, 72, 0
2, 65715, Note_on_c, 0, 63, 64
2, 65741, Note_on_c, 0, 63, 0
2, 65745, Note_on_c, 0, 69, 64
2, 65745, Note_on_c, 0, 72, 64
2, 65745, Note_on_c, 0, 75, 64
2, 65771, Note_on_c, 0, 75, 0
2, 65771, Note_on_c, 0, 69, 0
2, 65771, Note_on_c, 0, 72, 0
2, 65775, Note_on_c, 0, 63, 64
2, 65790, Note_on_c, 0, 30, 0
2, 65790, Note_on_c, 0, 42, 0
2, 65801, Note_on_c, 0, 63, 0
2, 65805, Note_on_c, 0, 69, 64
2, 65805, Note_on_c, 0, 72, 64
2, 65805, Note_on_c, 0, 75, 64
2, 65805, Note_on_c, 0, 30, 64
2, 65805, Note_on_c, 0, 42, 64
2, 65831, Note_on_c, 0, 75, 0
2, 65831, Note_on_c, 0, 69, 0
2, 65831, Note_on_c, 0, 72, 0
2, 65835, Note_on_c, 0, 63, 64
2, 65861, Note_on_c, 0, 63, 0
2, 65865, Note_on_c, 0, 69, 64
2, 65865, Note_on_c, 0, 72, 64
2, 65865, Note_on_c, 0, 75, 64
2, 65891, Note_on_c, 0, 75, 0
2, 65891, Note_on_c, 0, 69, 0
2, 65891, Note_on_c, 0, 72, 0
2, 65895, Note_on_c, 0, 63, 64
2, 65910, Note_on_c, 0, 30, 0
2, 65910, Note_on_c, 0, 42, 0
2, 65921, Note_on_c, 0, 63, 0
2, 65925, Note_on_c, 0, 63, 64
2, 65925, Note_on_c, 0, 69, 64
2, 65925, Note_on_c, 0, 72, 64
2, 65925, Note_on_c, 0, 30, 64
2, 65925, Note_on_c, 0, 42, 64
2, 65951, Note_on_c, 0, 72, 0
2, 65951, Note_on_c, 0, 63, 0
2, 65951, Note_on_c, 0, 69, 0
2, 65955, Note_on_c, 0, 60, 64
2, 65977, Note_on_c, 0, 30, 0
2, 65977, Note_on_c, 0, 42, 0
2, 65981, Note_on_c, 0, 60, 0
2, 65985, Note_on_c, 0, 59, 64
2, 65985, Note_on_c, 0, 62, 64
2, 65985, Note_on_c, 0, 67, 64
2, 66015, Note_on_c, 0, 31, 64
2, 66041, Note_on_c, 0, 31, 0
2, 66045, Note_on_c, 0, 33, 64
2, 66071, Note_on_c, 0, 33, 0
2, 66075, Note_on_c, 0, 35, 64
2, 66090, Note_on_c, 0, 67, 0
2, 66090, Note_on_c, 0, 59, 0
2, 66090, Note_on_c, 0, 62, 0
2, 66101, Note_on_c, 0, 35, 0
2, 66105, Note_on_c, 0, 59, 64
2, 66105, Note_on_c, 0, 62, 64
2, 66105, Note_on_c, 0, 67, 64
2, 66105, Note_on_c, 0, 71, 64
2, 66135, Note_on_c, 0, 43, 64
2, 66161, Note_on_c, 0, 43, 0
2, 66165, Note_on_c, 0, 45, 64
2, 66191, Note_on_c, 0, 45, 0
2, 66195, Note_on_c, 0, 47, 64
2, 66210, Note_on_c, 0, 71, 0
2, 66210, Note_on_c, 0, 67, 0
2, 66210, Note_on_c, 0, 59, 0
2, 66210, Note_on_c, 0, 62, 0
2, 66221, Note_on_c, 0, 47, 0
2, 66225, Note_on_c, 0, 57, 64
2, 66225, Note_on_c, 0, 60, 64
2, 66225, Note_on_c, 0, 63, 64
2, 66225, Note_on_c, 0, 66, 64
2, 66255, Note_on_c, 0, 31, 64
2, 66281, Note_on_c, 0, 31, 0
2, 66285, Note_on_c, 0, 36, 64
2, 66311, Note_on_c, 0, 36, 0
2, 66315, Note_on_c, 0, 39, 64
2, 66330, Note_on_c, 0, 66, 0
2, 66330, Note_on_c, 0, 63, 0
2, 66330, Note_on_c, 0, 57, 0
2, 66330, Note_on_c, 0, 60, 0
2, 66341, Note_on_c, 0, 39, 0
2, 66345, Note_on_c, 0, 42, 64
2, 66371, Note_on_c, 0, 42, 0
2, 66375, Note_on_c, 0, 45, 64
2, 66401, Note_on_c, 0, 45, 0
2, 66405, Note_on_c, 0, 48, 64
2, 66431, Note_on_c, 0, 48, 0
2, 66435, Note_on_c, 0, 51, 64
2, 66461, Note_on_c, 0, 51, 0
2, 66465, Note_on_c, 0, 63, 64
2, 66465, Note_on_c, 0, 66, 64
2, 66465, Note_on_c, 0, 69, 64
2, 66465, Note_on_c, 0, 72, 64
2, 66495, Note_on_c, 0, 31, 64
2, 66521, Note_on_c, 0, 31, 0
2, 66525, Note_on_c, 0, 36, 64
2, 66551, Note_on_c, 0, 36, 0
2, 66555, Note_on_c, 0, 39, 64
2, 66570, Note_on_c, 0, 72, 0
2, 66570, Note_on_c, 0, 69, 0
2, 66570, Note_on_c, 0, 63, 0
2, 66570, Note_on_c, 0, 66, 0
2, 66581, Note_on_c, 0, 39, 0
2, 66585, Note_on_c, 0, 63, 64
2, 66585, Note_on_c, 0, 66, 64
2, 66585, Note_on_c, 0, 69, 64
2, 66585, Note_on_c, 0, 75, 64
2, 66615, Note_on_c, 0, 43, 64
2, 66641, Note_on_c, 0, 43, 0
2, 66645, Note_on_c, 0, 48, 64
2, 66671, Note_on_c, 0, 48, 0
2, 66675, Note_on_c, 0, 51, 64
2, 66690, Note_on_c, 0, 75, 0
2, 66690, Note_on_c, 0, 69, 0
2, 66690, Note_on_c, 0, 63, 0
2, 66690, Note_on_c, 0, 66, 0
2, 66701, Note_on_c, 0, 51, 0
2, 66705, Note_on_c, 0, 62, 64
2, 66705, Note_on_c, 0, 65, 64
2, 66705, Note_on_c, 0, 68, 64
2, 66705, Note_on_c, 0, 71, 64
2, 66735, Note_on_c, 0, 31, 64
2, 66761, Note_on_c, 0, 31, 0
2, 66765, Note_on_c, 0, 38, 64
2, 66791, Note_on_c, 0, 38, 0
2, 66795, Note_on_c, 0, 41, 64
2, 66821, Note_on_c, 0, 41, 0
2, 66825, Note_on_c, 0, 43, 64
2, 66851, Note_on_c, 0, 43, 0
2, 66855, Note_on_c, 0, 47, 64
2, 66881, Note_on_c, 0, 47, 0
2, 66885, Note_on_c, 0, 50, 64
2, 66911, Note_on_c, 0, 50, 0
2, 66915, Note_on_c, 0, 53, 64
2, 66930, Note_on_c, 0, 71, 0
2, 66930, Note_on_c, 0, 68, 0
2, 66930, Note_on_c, 0, 62, 0
2, 66930, Note_on_c, 0, 65, 0
2, 66941, Note_on_c, 0, 53, 0
2, 66945, Note_on_c, 0, 68, 64
2, 66945, Note_on_c, 0, 71, 64
2, 66945, Note_on_c, 0, 74, 64
2, 66945, Note_on_c, 0, 77, 64
2, 66975, Note_on_c, 0, 31, 64
2, 67001, Note_on_c, 0, 31, 0
2, 67005, Note_on_c, 0, 38, 64
2, 67031, Note_on_c, 0, 38, 0
2, 67035, Note_on_c, 0, 41, 64
2, 67050, Note_on_c, 0, 77, 0
2, 67050, Note_on_c, 0, 74, 0
2, 67050, Note_on_c, 0, 68, 0
2, 67050, Note_on_c, 0, 71, 0
2, 67061, Note_on_c, 0, 41, 0
2, 67065, Note_on_c, 0, 68, 64
2, 67065, Note_on_c, 0, 71, 64
2, 67065, Note_on_c, 0, 74, 64
2, 67065, Note_on_c, 0, 80, 64
2, 67095, Note_on_c, 0, 43, 64
2, 67121, Note_on_c, 0, 43, 0
2, 67125, Note_on_c, 0, 50, 64
2, 67151, Note_on_c, 0, 50, 0
2, 67155, Note_on_c, 0, 53, 64
2, 67170, Note_on_c, 0, 80, 0
2, 67170, Note_on_c, 0, 74, 0
2, 67170, Note_on_c, 0, 68, 0
2, 67170, Note_on_c, 0, 71, 0
2, 67181, Note_on_c, 0, 53, 0
2, 67185, Note_on_c, 0, 67, 64
2, 67185, Note_on_c, 0, 70, 64
2, 67185, Note_on_c, 0, 73, 64
2, 67185, Note_on_c, 0, 76, 64
2, 67215, Note_on_c, 0, 31, 64
2, 67241, Note_on_c, 0, 31, 0
2, 67245, Note_on_c, 0, 43, 64
2, 67271, Note_on_c, 0, 43, 0
2, 67275, Note_on_c, 0, 46, 64
2, 67301, Note_on_c, 0, 46, 0
2, 67305, Note_on_c, 0, 49, 64
2, 67331, Note_on_c, 0, 49, 0
2, 67335, Note_on_c, 0, 52, 64
2, 67361, Note_on_c, 0, 52, 0
2, 67365, Note_on_c, 0, 55, 64
2, 67391, Note_on_c, 0, 55, 0
2, 67395, Note_on_c, 0, 58, 64
2, 67410, Note_on_c, 0, 76, 0
2, 67410, Note_on_c, 0, 73, 0
2, 67410, Note_on_c, 0, 67, 0
2, 67410, Note_on_c, 0, 70, 0
2, 67421, Note_on_c, 0, 58, 0
2, 67425, Note_on_c, 0, 70, 64
2, 67425, Note_on_c, 0, 73, 64
2, 67425, Note_on_c, 0, 76, 64
2, 67425, Note_on_c, 0, 79, 64
2, 67455, Note_on_c, 0, 31, 64
2, 67481, Note_on_c, 0, 31, 0
2, 67485, Note_on_c, 0, 43, 64
2, 67511, Note_on_c, 0, 43, 0
2, 67515, Note_on_c, 0, 46, 64
2, 67530, Note_on_c, 0, 79, 0
2, 67530, Note_on_c, 0, 76, 0
2, 67530, Note_on_c, 0, 70, 0
2, 67530, Note_on_c, 0, 73, 0
2, 67541, Note_on_c, 0, 46, 0
2, 67545, Note_on_c, 0, 70, 64
2, 67545, Note_on_c, 0, 73, 64
2, 67545, Note_on_c, 0, 76, 64
2, 67575, Note_on_c, 0, 43, 64
2, 67601, Note_on_c, 0, 43, 0
2, 67605, Note_on_c, 0, 55, 64
2, 67631, Note_on_c, 0, 55, 0
2, 67635, Note_on_c, 0, 58, 64
2, 67650, Note_on_c, 0, 76, 0
2, 67650, Note_on_c, 0, 70, 0
2, 67650, Note_on_c, 0, 73, 0
2, 67661, Note_on_c, 0, 58, 0
2, 67665, Note_on_c, 0, 69, 64
2, 67665, Note_on_c, 0, 72, 64
2, 67665, Note_on_c, 0, 75, 64
2, 67665, Note_on_c, 0, 78, 64
2, 67695, Note_on_c, 0, 31, 64
2, 67721, Note_on_c, 0, 31, 0
2, 67725, Note_on_c, 0, 45, 64
2, 67751, Note_on_c, 0, 45, 0
2, 67755, Note_on_c, 0, 48, 64
2, 67781, Note_on_c, 0, 48, 0
2, 67785, Note_on_c, 0, 51, 64
2, 67811, Note_on_c, 0, 51, 0
2, 67815, Note_on_c, 0, 54, 64
2, 67841, Note_on_c, 0, 54, 0
2, 67845, Note_on_c, 0, 57, 64
2, 67871, Note_on_c, 0, 57, 0
2, 67875, Note_on_c, 0, 60, 64
2, 67890, Note_on_c, 0, 78, 0
2, 67890, Note_on_c, 0, 75, 0
2, 67890, Note_on_c, 0, 69, 0
2, 67890, Note_on_c, 0, 72, 0
2, 67901, Note_on_c, 0, 60, 0
2, 67905, Note_on_c, 0, 75, 64
2, 67905, Note_on_c, 0, 78, 64
2, 67905, Note_on_c, 0, 81, 64
2, 67905, Note_on_c, 0, 84, 64
2, 67935, Note_on_c, 0, 31, 64
2, 67961, Note_on_c, 0, 31, 0
2, 67965, Note_on_c, 0, 45, 64
2, 67991, Note_on_c, 0, 45, 0
2, 67995, Note_on_c, 0, 48, 64
2, 68010, Note_on_c, 0, 84, 0
2, 68010, Note_on_c, 0, 81, 0
2, 68010, Note_on_c, 0, 75, 0
2, 68010, Note_on_c, 0, 78, 0
2, 68021, Note_on_c, 0, 48, 0
2, 68025, Note_on_c, 0, 75, 64
2, 68025, Note_on_c, 0, 78, 64
2, 68025, Note_on_c, 0, 81, 64
2, 68025, Note_on_c, 0, 87, 64
2, 68055, Note_on_c, 0, 54, 64
2, 68081, Note_on_c, 0, 54, 0
2, 68085, Note_on_c, 0, 57, 64
2, 68111, Note_on_c, 0, 57, 0
2, 68115, Note_on_c, 0, 60, 64
2, 68130, Note_on_c, 0, 87, 0
2, 68130, Note_on_c, 0, 81, 0
2, 68130, Note_on_c, 0, 75, 0
2, 68130, Note_on_c, 0, 78, 0
2, 68141, Note_on_c, 0, 60, 0
2, 68145, Note_on_c, 0, 74, 64
2, 68145, Note_on_c, 0, 77, 64
2, 68145, Note_on_c, 0, 80, 64
2, 68145, Note_on_c, 0, 83, 64
2, 68175, Note_on_c, 0, 31, 64
2, 68201, Note_on_c, 0, 31, 0
2, 68205, Note_on_c, 0, 46, 64
2, 68231, Note_on_c, 0, 46, 0
2, 68235, Note_on_c, 0, 50, 64
2, 68261, Note_on_c, 0, 50, 0
2, 68265, Note_on_c, 0, 53, 64
2, 68291, Note_on_c, 0, 53, 0
2, 68295, Note_on_c, 0, 56, 64
2, 68310, Note_on_c, 0, 83, 0
2, 68310, Note_on_c, 0, 80, 0
2, 68310, Note_on_c, 0, 74, 0
2, 68310, Note_on_c, 0, 77, 0
2, 68321, Note_on_c, 0, 56, 0
2, 68325, Note_on_c, 0, 80, 64
2, 68325, Note_on_c, 0, 92, 64
2, 68325, Note_on_c, 0, 53, 64
2, 68351, Note_on_c, 0, 53, 0
2, 68355, Note_on_c, 0, 56, 64
2, 68377, Note_on_c, 0, 92, 0
2, 68377, Note_on_c, 0, 80, 0
2, 68381, Note_on_c, 0, 56, 0
2, 68385, Note_on_c, 0, 91, 64
2, 68385, Note_on_c, 0, 55, 64
2, 68411, Note_on_c, 0, 55, 0
2, 68411, Note_on_c, 0, 91, 0
2, 68415, Note_on_c, 0, 92, 64
2, 68415, Note_on_c, 0, 56, 64
2, 68441, Note_on_c, 0, 56, 0
2, 68441, Note_on_c, 0, 92, 0
2, 68445, Note_on_c, 0, 91, 64
2, 68445, Note_on_c, 0, 55, 64
2, 68471, Note_on_c, 0, 55, 0
2, 68471, Note_on_c, 0, 91, 0
2, 68475, Note_on_c, 0, 89, 64
2, 68475, Note_on_c, 0, 53, 64
2, 68501, Note_on_c, 0, 53, 0
2, 68501, Note_on_c, 0, 89, 0
2, 68505, Note_on_c, 0, 87, 64
2, 68505, Note_on_c, 0, 51, 64
2, 68531, Note_on_c, 0, 51, 0
2, 68531, Note_on_c, 0, 87, 0
2, 68535, Note_on_c, 0, 89, 64
2, 68535, Note_on_c, 0, 53, 64
2, 68561, Note_on_c, 0, 53, 0
2, 68561, Note_on_c, 0, 89, 0
2, 68565, Note_on_c, 0, 87, 64
2, 68565, Note_on_c, 0, 51, 64
2, 68591, Note_on_c, 0, 51, 0
2, 68591, Note_on_c, 0, 87, 0
2, 68595, Note_on_c, 0, 86, 64
2, 68595, Note_on_c, 0, 50, 64
2, 68621, Note_on_c, 0, 50, 0
2, 68621, Note_on_c, 0, 86, 0
2, 68625, Note_on_c, 0, 87, 64
2, 68625, Note_on_c, 0, 51, 64
2, 68651, Note_on_c, 0, 51, 0
2, 68651, Note_on_c, 0, 87, 0
2, 68655, Note_on_c, 0, 89, 64
2, 68655, Note_on_c, 0, 53, 64
2, 68681, Note_on_c, 0, 53, 0
2, 68681, Note_on_c, 0, 89, 0
2, 68685, Note_on_c, 0, 87, 64
2, 68685, Note_on_c, 0, 51, 64
2, 68711, Note_on_c, 0, 51, 0
2, 68711, Note_on_c, 0, 87, 0
2, 68715, Note_on_c, 0, 86, 64
2, 68715, Note_on_c, 0, 50, 64
2, 68741, Note_on_c, 0, 50, 0
2, 68741, Note_on_c, 0, 86, 0
2, 68745, Note_on_c, 0, 84, 64
2, 68745, Note_on_c, 0, 48, 64
2, 68771, Note_on_c, 0, 48, 0
2, 68771, Note_on_c, 0, 84, 0
2, 68775, Note_on_c, 0, 79, 64
2, 68775, Note_on_c, 0, 43, 64
2, 68801, Note_on_c, 0, 43, 0
2, 68801, Note_on_c, 0, 79, 0
2, 68805, Note_on_c, 0, 81, 64
2, 68805, Note_on_c, 0, 45, 64
2, 68831, Note_on_c, 0, 45, 0
2, 68831, Note_on_c, 0, 81, 0
2, 68835, Note_on_c, 0, 83, 64
2, 68835, Note_on_c, 0, 47, 64
2, 68861, Note_on_c, 0, 47, 0
2, 68861, Note_on_c, 0, 83, 0
2, 68865, Note_on_c, 0, 72, 64
2, 68865, Note_on_c, 0, 84, 64
2, 68865, Note_on_c, 0, 36, 64
2, 68865, Note_on_c, 0, 48, 64
2, 68970, Note_on_c, 0, 48, 0
2, 68970, Note_on_c, 0, 72, 0
2, 68970, Note_on_c, 0, 84, 0
2, 68970, Note_on_c, 0, 36, 0
2, 68985, Note_on_c, 0, 75, 64
2, 68985, Note_on_c, 0, 87, 64
2, 68985, Note_on_c, 0, 39, 64
2, 68985, Note_on_c, 0, 51, 64
2, 69090, Note_on_c, 0, 51, 0
2, 69090, Note_on_c, 0, 75, 0
2, 69090, Note_on_c, 0, 87, 0
2, 69090, Note_on_c, 0, 39, 0
2, 69105, Note_on_c, 0, 71, 64
2, 69105, Note_on_c, 0, 83, 64
2, 69105, Note_on_c, 0, 35, 64
2, 69105, Note_on_c, 0, 47, 64
2, 69270, Note_on_c, 0, 47, 0
2, 69270, Note_on_c, 0, 71, 0
2, 69270, Note_on_c, 0, 83, 0
2, 69270, Note_on_c, 0, 35, 0
2, 69285, Note_on_c, 0, 80, 64
2, 69285, Note_on_c, 0, 92, 64
2, 69285, Note_on_c, 0, 44, 64
2, 69285, Note_on_c, 0, 56, 64
2, 69337, Note_on_c, 0, 56, 0
2, 69337, Note_on_c, 0, 80, 0
2, 69337, Note_on_c, 0, 92, 0
2, 69337, Note_on_c, 0, 44, 0
2, 69345, Note_on_c, 0, 79, 64
2, 69345, Note_on_c, 0, 91, 64
2, 69345, Note_on_c, 0, 43, 64
2, 69345, Note_on_c, 0, 55, 64
2, 69397, Note_on_c, 0, 55, 0
2, 69397, Note_on_c, 0, 79, 0
2, 69397, Note_on_c, 0, 91, 0
2, 69397, Note_on_c, 0, 43, 0
2, 69405, Note_on_c, 0, 77, 64
2, 69405, Note_on_c, 0, 89, 64
2, 69405, Note_on_c, 0, 41, 64
2, 69405, Note_on_c, 0, 53, 64
2, 69457, Note_on_c, 0, 53, 0
2, 69457, Note_on_c, 0, 77, 0
2, 69457, Note_on_c, 0, 89, 0
2, 69457, Note_on_c, 0, 41, 0
2, 69465, Note_on_c, 0, 75, 64
2, 69465, Note_on_c, 0, 87, 64
2, 69465, Note_on_c, 0, 39, 64
2, 69465, Note_on_c, 0, 51, 64
2, 69517, Note_on_c, 0, 51, 0
2, 69517, Note_on_c, 0, 75, 0
2, 69517, Note_on_c, 0, 87, 0
2, 69517, Note_on_c, 0, 39, 0
2, 69525, Note_on_c, 0, 74, 64
2, 69525, Note_on_c, 0, 86, 64
2, 69525, Note_on_c, 0, 38, 64
2, 69525, Note_on_c, 0, 50, 64
2, 69577, Note_on_c, 0, 50, 0
2, 69577, Note_on_c, 0, 74, 0
2, 69577, Note_on_c, 0, 86, 0
2, 69577, Note_on_c, 0, 38, 0
2, 69585, Note_on_c, 0, 75, 64
2, 69585, Note_on_c, 0, 87, 64
2, 69585, Note_on_c, 0, 39, 64
2, 69611, Note_on_c, 0, 39, 0
2, 69611, Note_on_c, 0, 87, 0
2, 69611, Note_on_c, 0, 75, 0
2, 69615, Note_on_c, 0, 89, 64
2, 69615, Note_on_c, 0, 41, 64
2, 69641, Note_on_c, 0, 41, 0
2, 69641, Note_on_c, 0, 89, 0
2, 69645, Note_on_c, 0, 87, 64
2, 69645, Note_on_c, 0, 39, 64
2, 69671, Note_on_c, 0, 39, 0
2, 69671, Note_on_c, 0, 87, 0
2, 69675, Note_on_c, 0, 86, 64
2, 69675, Note_on_c, 0, 38, 64
2, 69701, Note_on_c, 0, 38, 0
2, 69701, Note_on_c, 0, 86, 0
2, 69705, Note_on_c, 0, 72, 64
2, 69705, Note_on_c, 0, 84, 64
2, 69705, Note_on_c, 0, 39, 64
2, 69705, Note_on_c, 0, 51, 64
2, 69757, Note_on_c, 0, 51, 0
2, 69757, Note_on_c, 0, 72, 0
2, 69757, Note_on_c, 0, 84, 0
2, 69757, Note_on_c, 0, 39, 0
2, 69765, Note_on_c, 0, 77, 64
2, 69765, Note_on_c, 0, 79, 64
2, 69765, Note_on_c, 0, 92, 64
2, 69817, Note_on_c, 0, 92, 0
2, 69817, Note_on_c, 0, 79, 0
2, 69817, Note_on_c, 0, 77, 0
2, 69825, Note_on_c, 0, 77, 64
2, 69825, Note_on_c, 0, 79, 64
2, 69825, Note_on_c, 0, 91, 64
2, 69825, Note_on_c, 0, 55, 64
2, 69825, Note_on_c, 0, 59, 64
2, 69877, Note_on_c, 0, 59, 0
2, 69877, Note_on_c, 0, 91, 0
2, 69877, Note_on_c, 0, 77, 0
2, 69877, Note_on_c, 0, 79, 0
2, 69877, Note_on_c, 0, 55, 0
2, 69885, Note_on_c, 0, 77, 64
2, 69885, Note_on_c, 0, 79, 64
2, 69885, Note_on_c, 0, 89, 64
2, 69885, Note_on_c, 0, 55, 64
2, 69885, Note_on_c, 0, 59, 64
2, 69937, Note_on_c, 0, 59, 0
2, 69937, Note_on_c, 0, 89, 0
2, 69937, Note_on_c, 0, 77, 0
2, 69937, Note_on_c, 0, 79, 0
2, 69937, Note_on_c, 0, 55, 0
2, 69945, Note_on_c, 0, 77, 64
2, 69945, Note_on_c, 0, 79, 64
2, 69945, Note_on_c, 0, 87, 64
2, 69945, Note_on_c, 0, 55, 64
2, 69945, Note_on_c, 0, 60, 64
2, 69997, Note_on_c, 0, 60, 0
2, 69997, Note_on_c, 0, 87, 0
2, 69997, Note_on_c, 0, 77, 0
2, 69997, Note_on_c, 0, 79, 0
2, 69997, Note_on_c, 0, 55, 0
2, 70005, Note_on_c, 0, 77, 64
2, 70005, Note_on_c, 0, 79, 64
2, 70005, Note_on_c, 0, 86, 64
2, 70005, Note_on_c, 0, 55, 64
2, 70005, Note_on_c, 0, 59, 64
2, 70057, Note_on_c, 0, 59, 0
2, 70057, Note_on_c, 0, 86, 0
2, 70057, Note_on_c, 0, 77, 0
2, 70057, Note_on_c, 0, 79, 0
2, 70057, Note_on_c, 0, 55, 0
2, 70065, Note_on_c, 0, 87, 64
2, 70091, Note_on_c, 0, 87, 0
2, 70095, Note_on_c, 0, 89, 64
2, 70121, Note_on_c, 0, 89, 0
2, 70125, Note_on_c, 0, 87, 64
2, 70125, Note_on_c, 0, 75, 64
2, 70125, Note_on_c, 0, 79, 64
2, 70125, Note_on_c, 0, 48, 64
2, 70125, Note_on_c, 0, 60, 64
2, 70151, Note_on_c, 0, 87, 0
2, 70155, Note_on_c, 0, 86, 64
2, 70181, Note_on_c, 0, 86, 0
2, 70185, Note_on_c, 0, 84, 64
2, 70237, Note_on_c, 0, 84, 0
2, 70237, Note_on_c, 0, 48, 0
2, 70237, Note_on_c, 0, 75, 0
2, 70237, Note_on_c, 0, 79, 0
2, 70237, Note_on_c, 0, 60, 0
2, 70245, Note_on_c, 0, 80, 64
2, 70245, Note_on_c, 0, 65, 64
2, 70245, Note_on_c, 0, 67, 64
2, 70297, Note_on_c, 0, 67, 0
2, 70297, Note_on_c, 0, 65, 0
2, 70297, Note_on_c, 0, 80, 0
2, 70305, Note_on_c, 0, 65, 64
2, 70305, Note_on_c, 0, 67, 64
2, 70305, Note_on_c, 0, 79, 64
2, 70305, Note_on_c, 0, 31, 64
2, 70305, Note_on_c, 0, 43, 64
2, 70357, Note_on_c, 0, 43, 0
2, 70357, Note_on_c, 0, 79, 0
2, 70357, Note_on_c, 0, 65, 0
2, 70357, Note_on_c, 0, 67, 0
2, 70357, Note_on_c, 0, 31, 0
2, 70365, Note_on_c, 0, 65, 64
2, 70365, Note_on_c, 0, 67, 64
2, 70365, Note_on_c, 0, 77, 64
2, 70365, Note_on_c, 0, 31, 64
2, 70365, Note_on_c, 0, 43, 64
2, 70417, Note_on_c, 0, 43, 0
2, 70417, Note_on_c, 0, 77, 0
2, 70417, Note_on_c, 0, 65, 0
2, 70417, Note_on_c, 0, 67, 0
2, 70417, Note_on_c, 0, 31, 0
2, 70425, Note_on_c, 0, 65, 64
2, 70425, Note_on_c, 0, 67, 64
2, 70425, Note_on_c, 0, 75, 64
2, 70425, Note_on_c, 0, 31, 64
2, 70425, Note_on_c, 0, 45, 64
2, 70477, Note_on_c, 0, 45, 0
2, 70477, Note_on_c, 0, 75, 0
2, 70477, Note_on_c, 0, 65, 0
2, 70477, Note_on_c, 0, 67, 0
2, 70477, Note_on_c, 0, 31, 0
2, 70485, Note_on_c, 0, 65, 64
2, 70485, Note_on_c, 0, 67, 64
2, 70485, Note_on_c, 0, 74, 64
2, 70485, Note_on_c, 0, 31, 64
2, 70485, Note_on_c, 0, 47, 64
2, 70537, Note_on_c, 0, 47, 0
2, 70537, Note_on_c, 0, 74, 0
2, 70537, Note_on_c, 0, 65, 0
2, 70537, Note_on_c, 0, 67, 0
2, 70537, Note_on_c, 0, 31, 0
2, 70545, Note_on_c, 0, 75, 64
2, 70571, Note_on_c, 0, 75, 0
2, 70575, Note_on_c, 0, 77, 64
2, 70601, Note_on_c, 0, 77, 0
2, 70605, Note_on_c, 0, 63, 64
2, 70605, Note_on_c, 0, 67, 64
2, 70605, Note_on_c, 0, 75, 64
2, 70605, Note_on_c, 0, 36, 64
2, 70605, Note_on_c, 0, 48, 64
2, 70631, Note_on_c, 0, 75, 0
2, 70635, Note_on_c, 0, 74, 64
2, 70657, Note_on_c, 0, 36, 0
2, 70657, Note_on_c, 0, 48, 0
2, 70661, Note_on_c, 0, 74, 0
2, 70665, Note_on_c, 0, 72, 64
2, 70665, Note_on_c, 0, 36, 64
2, 70665, Note_on_c, 0, 48, 64
2, 70717, Note_on_c, 0, 48, 0
2, 70717, Note_on_c, 0, 72, 0
2, 70717, Note_on_c, 0, 63, 0
2, 70717, Note_on_c, 0, 67, 0
2, 70717, Note_on_c, 0, 36, 0
2, 70725, Note_on_c, 0, 80, 64
2, 70725, Note_on_c, 0, 92, 64
2, 70751, Note_on_c, 0, 92, 0
2, 70751, Note_on_c, 0, 80, 0
2, 70755, Note_on_c, 0, 35, 64
2, 70755, Note_on_c, 0, 47, 64
2, 70781, Note_on_c, 0, 47, 0
2, 70781, Note_on_c, 0, 35, 0
2, 70785, Note_on_c, 0, 79, 64
2, 70785, Note_on_c, 0, 91, 64
2, 70811, Note_on_c, 0, 91, 0
2, 70811, Note_on_c, 0, 79, 0
2, 70815, Note_on_c, 0, 35, 64
2, 70815, Note_on_c, 0, 47, 64
2, 70841, Note_on_c, 0, 47, 0
2, 70841, Note_on_c, 0, 35, 0
2, 70845, Note_on_c, 0, 77, 64
2, 70845, Note_on_c, 0, 89, 64
2, 70871, Note_on_c, 0, 89, 0
2, 70871, Note_on_c, 0, 77, 0
2, 70875, Note_on_c, 0, 35, 64
2, 70875, Note_on_c, 0, 47, 64
2, 70901, Note_on_c, 0, 47, 0
2, 70901, Note_on_c, 0, 35, 0
2, 70905, Note_on_c, 0, 75, 64
2, 70905, Note_on_c, 0, 87, 64
2, 70931, Note_on_c, 0, 87, 0
2, 70931, Note_on_c, 0, 75, 0
2, 70935, Note_on_c, 0, 35, 64
2, 70935, Note_on_c, 0, 47, 64
2, 70961, Note_on_c, 0, 47, 0
2, 70961, Note_on_c, 0, 35, 0
2, 70965, Note_on_c, 0, 74, 64
2, 70965, Note_on_c, 0, 86, 64
2, 70991, Note_on_c, 0, 86, 0
2, 70991, Note_on_c, 0, 74, 0
2, 70995, Note_on_c, 0, 35, 64
2, 70995, Note_on_c, 0, 47, 64
2, 71021, Note_on_c, 0, 47, 0
2, 71021, Note_on_c, 0, 35, 0
2, 71025, Note_on_c, 0, 75, 64
2, 71025, Note_on_c, 0, 87, 64
2, 71051, Note_on_c, 0, 87, 0
2, 71051, Note_on_c, 0, 75, 0
2, 71055, Note_on_c, 0, 36, 64
2, 71055, Note_on_c, 0, 48, 64
2, 71081, Note_on_c, 0, 48, 0
2, 71081, Note_on_c, 0, 36, 0
2, 71085, Note_on_c, 0, 74, 64
2, 71085, Note_on_c, 0, 86, 64
2, 71111, Note_on_c, 0, 86, 0
2, 71111, Note_on_c, 0, 74, 0
2, 71115, Note_on_c, 0, 38, 64
2, 71115, Note_on_c, 0, 50, 64
2, 71141, Note_on_c, 0, 50, 0
2, 71141, Note_on_c, 0, 38, 0
2, 71145, Note_on_c, 0, 72, 64
2, 71145, Note_on_c, 0, 84, 64
2, 71171, Note_on_c, 0, 84, 0
2, 71171, Note_on_c, 0, 72, 0
2, 71175, Note_on_c, 0, 39, 64
2, 71175, Note_on_c, 0, 51, 64
2, 71201, Note_on_c, 0, 51, 0
2, 71201, Note_on_c, 0, 39, 0
2, 71205, Note_on_c, 0, 71, 64
2, 71205, Note_on_c, 0, 83, 64
2, 71231, Note_on_c, 0, 83, 0
2, 71231, Note_on_c, 0, 71, 0
2, 71235, Note_on_c, 0, 38, 64
2, 71235, Note_on_c, 0, 50, 64
2, 71261, Note_on_c, 0, 50, 0
2, 71261, Note_on_c, 0, 38, 0
2, 71265, Note_on_c, 0, 72, 64
2, 71265, Note_on_c, 0, 84, 64
2, 71291, Note_on_c, 0, 84, 0
2, 71291, Note_on_c, 0, 72, 0
2, 71295, Note_on_c, 0, 39, 64
2, 71295, Note_on_c, 0, 51, 64
2, 71321, Note_on_c, 0, 51, 0
2, 71321, Note_on_c, 0, 39, 0
2, 71325, Note_on_c, 0, 70, 64
2, 71325, Note_on_c, 0, 82, 64
2, 71351, Note_on_c, 0, 82, 0
2, 71351, Note_on_c, 0, 70, 0
2, 71355, Note_on_c, 0, 40, 64
2, 71355, Note_on_c, 0, 52, 64
2, 71381, Note_on_c, 0, 52, 0
2, 71381, Note_on_c, 0, 40, 0
2, 71385, Note_on_c, 0, 68, 64
2, 71385, Note_on_c, 0, 80, 64
2, 71411, Note_on_c, 0, 80, 0
2, 71411, Note_on_c, 0, 68, 0
2, 71415, Note_on_c, 0, 41, 64
2, 71415, Note_on_c, 0, 53, 64
2, 71441, Note_on_c, 0, 53, 0
2, 71441, Note_on_c, 0, 41, 0
2, 71445, Note_on_c, 0, 67, 64
2, 71445, Note_on_c, 0, 79, 64
2, 71471, Note_on_c, 0, 79, 0
2, 71471, Note_on_c, 0, 67, 0
2, 71475, Note_on_c, 0, 40, 64
2, 71475, Note_on_c, 0, 52, 64
2, 71501, Note_on_c, 0, 52, 0
2, 71501, Note_on_c, 0, 40, 0
2, 71505, Note_on_c, 0, 68, 64
2, 71505, Note_on_c, 0, 80, 64
2, 71531, Note_on_c, 0, 80, 0
2, 71531, Note_on_c, 0, 68, 0
2, 71535, Note_on_c, 0, 41, 64
2, 71535, Note_on_c, 0, 53, 64
2, 71561, Note_on_c, 0, 53, 0
2, 71561, Note_on_c, 0, 41, 0
2, 71565, Note_on_c, 0, 67, 64
2, 71565, Note_on_c, 0, 79, 64
2, 71591, Note_on_c, 0, 79, 0
2, 71591, Note_on_c, 0, 67, 0
2, 71595, Note_on_c, 0, 43, 64
2, 71595, Note_on_c, 0, 55, 64
2, 71621, Note_on_c, 0, 55, 0
2, 71621, Note_on_c, 0, 43, 0
2, 71625, Note_on_c, 0, 65, 64
2, 71625, Note_on_c, 0, 77, 64
2, 71651, Note_on_c, 0, 77, 0
2, 71651, Note_on_c, 0, 65, 0
2, 71655, Note_on_c, 0, 44, 64
2, 71655, Note_on_c, 0, 56, 64
2, 71681, Note_on_c, 0, 56, 0
2, 71681, Note_on_c, 0, 44, 0
2, 71685, Note_on_c, 0, 63, 64
2, 71685, Note_on_c, 0, 75, 64
2, 71711, Note_on_c, 0, 75, 0
2, 71711, Note_on_c, 0, 63, 0
2, 71715, Note_on_c, 0, 53, 64
2, 71715, Note_on_c, 0, 56, 64
2, 71741, Note_on_c, 0, 56, 0
2, 71741, Note_on_c, 0, 53, 0
2, 71745, Note_on_c, 0, 61, 64
2, 71745, Note_on_c, 0, 73, 64
2, 71771, Note_on_c, 0, 73, 0
2, 71771, Note_on_c, 0, 61, 0
2, 71775, Note_on_c, 0, 53, 64
2, 71775, Note_on_c, 0, 56, 64
2, 71801, Note_on_c, 0, 56, 0
2, 71801, Note_on_c, 0, 53, 0
2, 71805, Note_on_c, 0, 68, 64
2, 71805, Note_on_c, 0, 80, 64
2, 71831, Note_on_c, 0, 80, 0
2, 71831, Note_on_c, 0, 68, 0
2, 71835, Note_on_c, 0, 53, 64
2, 71835, Note_on_c, 0, 56, 64
2, 71835, Note_on_c, 0, 61, 64
2, 71861, Note_on_c, 0, 61, 0
2, 71861, Note_on_c, 0, 56, 0
2, 71861, Note_on_c, 0, 53, 0
2, 71865, Note_on_c, 0, 73, 64
2, 71865, Note_on_c, 0, 85, 64
2, 71891, Note_on_c, 0, 85, 0
2, 71891, Note_on_c, 0, 73, 0
2, 71895, Note_on_c, 0, 53, 64
2, 71895, Note_on_c, 0, 56, 64
2, 71895, Note_on_c, 0, 61, 64
2, 71921, Note_on_c, 0, 61, 0
2, 71921, Note_on_c, 0, 56, 0
2, 71921, Note_on_c, 0, 53, 0
2, 71925, Note_on_c, 0, 77, 64
2, 71925, Note_on_c, 0, 89, 64
2, 71951, Note_on_c, 0, 89, 0
2, 71951, Note_on_c, 0, 77, 0
2, 71955, Note_on_c, 0, 53, 64
2, 71955, Note_on_c, 0, 56, 64
2, 71955, Note_on_c, 0, 61, 64
2, 71981, Note_on_c, 0, 61, 0
2, 71981, Note_on_c, 0, 56, 0
2, 71981, Note_on_c, 0, 53, 0
2, 71985, Note_on_c, 0, 80, 64
2, 71985, Note_on_c, 0, 92, 64
2, 72011, Note_on_c, 0, 92, 0
2, 72011, Note_on_c, 0, 80, 0
2, 72015, Note_on_c, 0, 53, 64
2, 72015, Note_on_c, 0, 56, 64
2, 72015, Note_on_c, 0, 61, 64
2, 72041, Note_on_c, 0, 61, 0
2, 72041, Note_on_c, 0, 56, 0
2, 72041, Note_on_c, 0, 53, 0
2, 72045, Note_on_c, 0, 68, 64
2, 72045, Note_on_c, 0, 80, 64
2, 72071, Note_on_c, 0, 80, 0
2, 72071, Note_on_c, 0, 68, 0
2, 72075, Note_on_c, 0, 53, 64
2, 72075, Note_on_c, 0, 56, 64
2, 72075, Note_on_c, 0, 61, 64
2, 72101, Note_on_c, 0, 61, 0
2, 72101, Note_on_c, 0, 56, 0
2, 72101, Note_on_c, 0, 53, 0
2, 72105, Note_on_c, 0, 65, 64
2, 72105, Note_on_c, 0, 77, 64
2, 72131, Note_on_c, 0, 77, 0
2, 72131, Note_on_c, 0, 65, 0
2, 72135, Note_on_c, 0, 53, 64
2, 72135, Note_on_c, 0, 56, 64
2, 72135, Note_on_c, 0, 61, 64
2, 72161, Note_on_c, 0, 61, 0
2, 72161, Note_on_c, 0, 56, 0
2, 72161, Note_on_c, 0, 53, 0
2, 72165, Note_on_c, 0, 61, 64
2, 72165, Note_on_c, 0, 73, 64
2, 72191, Note_on_c, 0, 73, 0
2, 72191, Note_on_c, 0, 61, 0
2, 72195, Note_on_c, 0, 53, 64
2, 72195, Note_on_c, 0, 56, 64
2, 72221, Note_on_c, 0, 56, 0
2, 72221, Note_on_c, 0, 53, 0
2, 72225, Note_on_c, 0, 61, 64
2, 72225, Note_on_c, 0, 73, 64
2, 72251, Note_on_c, 0, 73, 0
2, 72251, Note_on_c, 0, 61, 0
2, 72255, Note_on_c, 0, 53, 64
2, 72255, Note_on_c, 0, 56, 64
2, 72281, Note_on_c, 0, 56, 0
2, 72281, Note_on_c, 0, 53, 0
2, 72285, Note_on_c, 0, 60, 64
2, 72285, Note_on_c, 0, 72, 64
2, 72311, Note_on_c, 0, 72, 0
2, 72311, Note_on_c, 0, 60, 0
2, 72315, Note_on_c, 0, 52, 64
2, 72315, Note_on_c, 0, 55, 64
2, 72341, Note_on_c, 0, 55, 0
2, 72341, Note_on_c, 0, 52, 0
2, 72345, Note_on_c, 0, 60, 64
2, 72345, Note_on_c, 0, 72, 64
2, 72371, Note_on_c, 0, 72, 0
2, 72371, Note_on_c, 0, 60, 0
2, 72375, Note_on_c, 0, 52, 64
2, 72375, Note_on_c, 0, 55, 64
2, 72401, Note_on_c, 0, 55, 0
2, 72401, Note_on_c, 0, 52, 0
2, 72405, Note_on_c, 0, 60, 64
2, 72405, Note_on_c, 0, 72, 64
2, 72431, Note_on_c, 0, 72, 0
2, 72431, Note_on_c, 0, 60, 0
2, 72435, Note_on_c, 0, 52, 64
2, 72435, Note_on_c, 0, 55, 64
2, 72461, Note_on_c, 0, 55, 0
2, 72461, Note_on_c, 0, 52, 0
2, 72465, Note_on_c, 0, 60, 64
2, 72465, Note_on_c, 0, 67, 64
2, 72465, Note_on_c, 0, 72, 64
2, 72465, Note_on_c, 0, 52, 64
2, 72465, Note_on_c, 0, 55, 64
2, 72517, Note_on_c, 0, 55, 0
2, 72517, Note_on_c, 0, 72, 0
2, 72517, Note_on_c, 0, 60, 0
2, 72517, Note_on_c, 0, 67, 0
2, 72517, Note_on_c, 0, 52, 0
2, 72525, Note_on_c, 0, 60, 64
2, 72525, Note_on_c, 0, 67, 64
2, 72525, Note_on_c, 0, 73, 64
2, 72525, Note_on_c, 0, 40, 64
2, 72630, Note_on_c, 0, 40, 0
2, 72630, Note_on_c, 0, 60, 0
2, 72630, Note_on_c, 0, 67, 0
2, 72630, Note_on_c, 0, 73, 0
2, 72645, Note_on_c, 0, 60, 64
2, 72645, Note_on_c, 0, 67, 64
2, 72645, Note_on_c, 0, 70, 64
2, 72645, Note_on_c, 0, 36, 64
2, 72662, Note_on_c, 0, 36, 0
2, 72664, Note_on_c, 0, 38, 64
2, 72682, Note_on_c, 0, 38, 0
2, 72684, Note_on_c, 0, 40, 64
2, 72697, Note_on_c, 0, 70, 0
2, 72697, Note_on_c, 0, 60, 0
2, 72697, Note_on_c, 0, 67, 0
2, 72702, Note_on_c, 0, 40, 0
2, 72705, Note_on_c, 0, 68, 64
2, 72705, Note_on_c, 0, 29, 64
2, 72705, Note_on_c, 0, 41, 64
2, 72731, Note_on_c, 0, 68, 0
2, 72735, Note_on_c, 0, 72, 64
2, 72761, Note_on_c, 0, 72, 0
2, 72765, Note_on_c, 0, 70, 64
2, 72791, Note_on_c, 0, 70, 0
2, 72795, Note_on_c, 0, 68, 64
2, 72810, Note_on_c, 0, 41, 0
2, 72810, Note_on_c, 0, 29, 0
2, 72821, Note_on_c, 0, 68, 0
2, 72825, Note_on_c, 0, 67, 64
2, 72825, Note_on_c, 0, 32, 64
2, 72825, Note_on_c, 0, 44, 64
2, 72851, Note_on_c, 0, 67, 0
2, 72855, Note_on_c, 0, 65, 64
2, 72881, Note_on_c, 0, 65, 0
2, 72885, Note_on_c, 0, 64, 64
2, 72911, Note_on_c, 0, 64, 0
2, 72915, Note_on_c, 0, 65, 64
2, 72930, Note_on_c, 0, 44, 0
2, 72930, Note_on_c, 0, 32, 0
2, 72941, Note_on_c, 0, 65, 0
2, 72945, Note_on_c, 0, 67, 64
2, 72945, Note_on_c, 0, 28, 64
2, 72945, Note_on_c, 0, 40, 64
2, 72971, Note_on_c, 0, 67, 0
2, 72975, Note_on_c, 0, 68, 64
2, 73001, Note_on_c, 0, 68, 0
2, 73005, Note_on_c, 0, 70, 64
2, 73031, Note_on_c, 0, 70, 0
2, 73035, Note_on_c, 0, 67, 64
2, 73061, Note_on_c, 0, 67, 0
2, 73065, Note_on_c, 0, 62, 64
2, 73091, Note_on_c, 0, 62, 0
2, 73091, Note_on_c, 0, 40, 0
2, 73091, Note_on_c, 0, 28, 0
2, 73095, Note_on_c, 0, 63, 64
2, 73095, Note_on_c, 0, 43, 64
2, 73121, Note_on_c, 0, 43, 0
2, 73121, Note_on_c, 0, 63, 0
2, 73125, Note_on_c, 0, 67, 64
2, 73125, Note_on_c, 0, 46, 64
2, 73151, Note_on_c, 0, 46, 0
2, 73151, Note_on_c, 0, 67, 0
2, 73155, Note_on_c, 0, 70, 64
2, 73155, Note_on_c, 0, 50, 64
2, 73181, Note_on_c, 0, 50, 0
2, 73185, Note_on_c, 0, 48, 64
2, 73211, Note_on_c, 0, 48, 0
2, 73215, Note_on_c, 0, 49, 64
2, 73237, Note_on_c, 0, 70, 0
2, 73241, Note_on_c, 0, 49, 0
2, 73245, Note_on_c, 0, 52, 64
2, 73245, Note_on_c, 0, 64, 64
2, 73245, Note_on_c, 0, 48, 64
2, 73271, Note_on_c, 0, 48, 0
2, 73275, Note_on_c, 0, 46, 64
2, 73297, Note_on_c, 0, 64, 0
2, 73297, Note_on_c, 0, 52, 0
2, 73301, Note_on_c, 0, 46, 0
2, 73305, Note_on_c, 0, 53, 64
2, 73305, Note_on_c, 0, 65, 64
2, 73305, Note_on_c, 0, 44, 64
2, 73331, Note_on_c, 0, 44, 0
2, 73335, Note_on_c, 0, 46, 64
2, 73357, Note_on_c, 0, 65, 0
2, 73357, Note_on_c, 0, 53, 0
2, 73361, Note_on_c, 0, 46, 0
2, 73365, Note_on_c, 0, 52, 64
2, 73365, Note_on_c, 0, 64, 64
2, 73365, Note_on_c, 0, 44, 64
2, 73391, Note_on_c, 0, 44, 0
2, 73395, Note_on_c, 0, 43, 64
2, 73417, Note_on_c, 0, 64, 0
2, 73417, Note_on_c, 0, 52, 0
2, 73421, Note_on_c, 0, 43, 0
2, 73425, Note_on_c, 0, 53, 64
2, 73425, Note_on_c, 0, 65, 64
2, 73425, Note_on_c, 0, 44, 64
2, 73451, Note_on_c, 0, 44, 0
2, 73455, Note_on_c, 0, 46, 64
2, 73477, Note_on_c, 0, 65, 0
2, 73477, Note_on_c, 0, 53, 0
2, 73481, Note_on_c, 0, 46, 0
2, 73485, Note_on_c, 0, 58, 64
2, 73485, Note_on_c, 0, 70, 64
2, 73485, Note_on_c, 0, 44, 64
2, 73511, Note_on_c, 0, 44, 0
2, 73515, Note_on_c, 0, 43, 64
2, 73537, Note_on_c, 0, 70, 0
2, 73537, Note_on_c, 0, 58, 0
2, 73541, Note_on_c, 0, 43, 0
2, 73545, Note_on_c, 0, 56, 64
2, 73545, Note_on_c, 0, 68, 64
2, 73545, Note_on_c, 0, 41, 64
2, 73571, Note_on_c, 0, 41, 0
2, 73575, Note_on_c, 0, 44, 64
2, 73597, Note_on_c, 0, 68, 0
2, 73597, Note_on_c, 0, 56, 0
2, 73601, Note_on_c, 0, 44, 0
2, 73605, Note_on_c, 0, 53, 64
2, 73605, Note_on_c, 0, 65, 64
2, 73605, Note_on_c, 0, 46, 64
2, 73631, Note_on_c, 0, 46, 0
2, 73635, Note_on_c, 0, 48, 64
2, 73657, Note_on_c, 0, 65, 0
2, 73657, Note_on_c, 0, 53, 0
2, 73661, Note_on_c, 0, 48, 0
2, 73665, Note_on_c, 0, 49, 64
2, 73691, Note_on_c, 0, 49, 0
2, 73695, Note_on_c, 0, 51, 64
2, 73721, Note_on_c, 0, 51, 0
2, 73725, Note_on_c, 0, 53, 64
2, 73725, Note_on_c, 0, 65, 64
2, 73725, Note_on_c, 0, 49, 64
2, 73751, Note_on_c, 0, 49, 0
2, 73755, Note_on_c, 0, 48, 64
2, 73781, Note_on_c, 0, 48, 0
2, 73785, Note_on_c, 0, 65, 0
2, 73785, Note_on_c, 0, 53, 0
2, 73785, Note_on_c, 0, 55, 64
2, 73785, Note_on_c, 0, 67, 64
2, 73785, Note_on_c, 0, 46, 64
2, 73811, Note_on_c, 0, 46, 0
2, 73815, Note_on_c, 0, 48, 64
2, 73841, Note_on_c, 0, 48, 0
2, 73845, Note_on_c, 0, 46, 64
2, 73871, Note_on_c, 0, 46, 0
2, 73875, Note_on_c, 0, 45, 64
2, 73901, Note_on_c, 0, 45, 0
2, 73905, Note_on_c, 0, 46, 64
2, 73931, Note_on_c, 0, 46, 0
2, 73935, Note_on_c, 0, 48, 64
2, 73961, Note_on_c, 0, 48, 0
2, 73965, Note_on_c, 0, 67, 0
2, 73965, Note_on_c, 0, 55, 0
2, 73965, Note_on_c, 0, 60, 64
2, 73965, Note_on_c, 0, 72, 64
2, 73965, Note_on_c, 0, 46, 64
2, 73991, Note_on_c, 0, 46, 0
2, 73995, Note_on_c, 0, 44, 64
2, 74017, Note_on_c, 0, 72, 0
2, 74017, Note_on_c, 0, 60, 0
2, 74021, Note_on_c, 0, 44, 0
2, 74025, Note_on_c, 0, 58, 64
2, 74025, Note_on_c, 0, 70, 64
2, 74025, Note_on_c, 0, 43, 64
2, 74051, Note_on_c, 0, 43, 0
2, 74055, Note_on_c, 0, 46, 64
2, 74077, Note_on_c, 0, 70, 0
2, 74077, Note_on_c, 0, 58, 0
2, 74081, Note_on_c, 0, 46, 0
2, 74085, Note_on_c, 0, 55, 64
2, 74085, Note_on_c, 0, 67, 64
2, 74085, Note_on_c, 0, 49, 64
2, 74111, Note_on_c, 0, 49, 0
2, 74115, Note_on_c, 0, 53, 64
2, 74137, Note_on_c, 0, 67, 0
2, 74137, Note_on_c, 0, 55, 0
2, 74141, Note_on_c, 0, 53, 0
2, 74145, Note_on_c, 0, 51, 64
2, 74171, Note_on_c, 0, 51, 0
2, 74175, Note_on_c, 0, 53, 64
2, 74201, Note_on_c, 0, 53, 0
2, 74205, Note_on_c, 0, 55, 64
2, 74205, Note_on_c, 0, 67, 64
2, 74205, Note_on_c, 0, 51, 64
2, 74231, Note_on_c, 0, 51, 0
2, 74235, Note_on_c, 0, 49, 64
2, 74261, Note_on_c, 0, 49, 0
2, 74265, Note_on_c, 0, 67, 0
2, 74265, Note_on_c, 0, 55, 0
2, 74265, Note_on_c, 0, 56, 64
2, 74265, Note_on_c, 0, 68, 64
2, 74265, Note_on_c, 0, 48, 64
2, 74291, Note_on_c, 0, 48, 0
2, 74295, Note_on_c, 0, 49, 64
2, 74321, Note_on_c, 0, 49, 0
2, 74325, Note_on_c, 0, 48, 64
2, 74351, Note_on_c, 0, 48, 0
2, 74355, Note_on_c, 0, 46, 64
2, 74381, Note_on_c, 0, 46, 0
2, 74385, Note_on_c, 0, 48, 64
2, 74411, Note_on_c, 0, 48, 0
2, 74415, Note_on_c, 0, 49, 64
2, 74441, Note_on_c, 0, 49, 0
2, 74445, Note_on_c, 0, 68, 0
2, 74445, Note_on_c, 0, 56, 0
2, 74445, Note_on_c, 0, 61, 64
2, 74445, Note_on_c, 0, 73, 64
2, 74445, Note_on_c, 0, 48, 64
2, 74471, Note_on_c, 0, 48, 0
2, 74475, Note_on_c, 0, 46, 64
2, 74497, Note_on_c, 0, 73, 0
2, 74497, Note_on_c, 0, 61, 0
2, 74501, Note_on_c, 0, 46, 0
2, 74505, Note_on_c, 0, 60, 64
2, 74505, Note_on_c, 0, 72, 64
2, 74505, Note_on_c, 0, 45, 64
2, 74531, Note_on_c, 0, 45, 0
2, 74535, Note_on_c, 0, 48, 64
2, 74557, Note_on_c, 0, 72, 0
2, 74557, Note_on_c, 0, 60, 0
2, 74561, Note_on_c, 0, 48, 0
2, 74565, Note_on_c, 0, 60, 64
2, 74565, Note_on_c, 0, 72, 64
2, 74565, Note_on_c, 0, 51, 64
2, 74591, Note_on_c, 0, 51, 0
2, 74591, Note_on_c, 0, 72, 0
2, 74591, Note_on_c, 0, 60, 0
2, 74595, Note_on_c, 0, 70, 64
2, 74595, Note_on_c, 0, 54, 64
2, 74621, Note_on_c, 0, 54, 0
2, 74621, Note_on_c, 0, 70, 0
2, 74625, Note_on_c, 0, 69, 64
2, 74625, Note_on_c, 0, 53, 64
2, 74651, Note_on_c, 0, 53, 0
2, 74655, Note_on_c, 0, 54, 64
2, 74677, Note_on_c, 0, 69, 0
2, 74681, Note_on_c, 0, 54, 0
2, 74685, Note_on_c, 0, 70, 64
2, 74685, Note_on_c, 0, 53, 64
2, 74711, Note_on_c, 0, 53, 0
2, 74711, Note_on_c, 0, 70, 0
2, 74715, Note_on_c, 0, 72, 64
2, 74715, Note_on_c, 0, 51, 64
2, 74741, Note_on_c, 0, 51, 0
2, 74741, Note_on_c, 0, 72, 0
2, 74745, Note_on_c, 0, 65, 64
2, 74745, Note_on_c, 0, 49, 64
2, 74771, Note_on_c, 0, 49, 0
2, 74771, Note_on_c, 0, 65, 0
2, 74775, Note_on_c, 0, 66, 64
2, 74775, Note_on_c, 0, 51, 64
2, 74801, Note_on_c, 0, 51, 0
2, 74801, Note_on_c, 0, 66, 0
2, 74805, Note_on_c, 0, 65, 64
2, 74805, Note_on_c, 0, 49, 64
2, 74831, Note_on_c, 0, 49, 0
2, 74831, Note_on_c, 0, 65, 0
2, 74835, Note_on_c, 0, 63, 64
2, 74835, Note_on_c, 0, 48, 64
2, 74861, Note_on_c, 0, 48, 0
2, 74861, Note_on_c, 0, 63, 0
2, 74865, Note_on_c, 0, 70, 64
2, 74865, Note_on_c, 0, 65, 64
2, 74865, Note_on_c, 0, 49, 64
2, 74891, Note_on_c, 0, 49, 0
2, 74891, Note_on_c, 0, 65, 0
2, 74895, Note_on_c, 0, 66, 64
2, 74895, Note_on_c, 0, 51, 64
2, 74921, Note_on_c, 0, 51, 0
2, 74921, Note_on_c, 0, 66, 0
2, 74925, Note_on_c, 0, 65, 64
2, 74925, Note_on_c, 0, 49, 64
2, 74951, Note_on_c, 0, 49, 0
2, 74951, Note_on_c, 0, 65, 0
2, 74955, Note_on_c, 0, 63, 64
2, 74955, Note_on_c, 0, 48, 64
2, 74970, Note_on_c, 0, 70, 0
2, 74981, Note_on_c, 0, 48, 0
2, 74981, Note_on_c, 0, 63, 0
2, 74985, Note_on_c, 0, 73, 64
2, 74985, Note_on_c, 0, 61, 64
2, 74985, Note_on_c, 0, 46, 64
2, 75011, Note_on_c, 0, 46, 0
2, 75011, Note_on_c, 0, 61, 0
2, 75015, Note_on_c, 0, 65, 64
2, 75015, Note_on_c, 0, 49, 64
2, 75041, Note_on_c, 0, 49, 0
2, 75041, Note_on_c, 0, 65, 0
2, 75045, Note_on_c, 0, 61, 64
2, 75045, Note_on_c, 0, 46, 64
2, 75071, Note_on_c, 0, 46, 0
2, 75071, Note_on_c, 0, 61, 0
2, 75075, Note_on_c, 0, 65, 64
2, 75075, Note_on_c, 0, 49, 64
2, 75090, Note_on_c, 0, 73, 0
2, 75101, Note_on_c, 0, 49, 0
2, 75101, Note_on_c, 0, 65, 0
2, 75105, Note_on_c, 0, 69, 64
2, 75105, Note_on_c, 0, 63, 64
2, 75105, Note_on_c, 0, 48, 64
2, 75131, Note_on_c, 0, 48, 0
2, 75131, Note_on_c, 0, 63, 0
2, 75135, Note_on_c, 0, 65, 64
2, 75135, Note_on_c, 0, 50, 64
2, 75161, Note_on_c, 0, 50, 0
2, 75161, Note_on_c, 0, 65, 0
2, 75165, Note_on_c, 0, 66, 64
2, 75165, Note_on_c, 0, 51, 64
2, 75191, Note_on_c, 0, 51, 0
2, 75191, Note_on_c, 0, 66, 0
2, 75195, Note_on_c, 0, 65, 64
2, 75195, Note_on_c, 0, 50, 64
2, 75221, Note_on_c, 0, 50, 0
2, 75221, Note_on_c, 0, 65, 0
2, 75225, Note_on_c, 0, 63, 64
2, 75225, Note_on_c, 0, 48, 64
2, 75251, Note_on_c, 0, 48, 0
2, 75255, Note_on_c, 0, 50, 64
2, 75270, Note_on_c, 0, 69, 0
2, 75277, Note_on_c, 0, 63, 0
2, 75281, Note_on_c, 0, 50, 0
2, 75285, Note_on_c, 0, 78, 64
2, 75285, Note_on_c, 0, 75, 64
2, 75285, Note_on_c, 0, 48, 64
2, 75311, Note_on_c, 0, 48, 0
2, 75311, Note_on_c, 0, 75, 0
2, 75315, Note_on_c, 0, 73, 64
2, 75315, Note_on_c, 0, 46, 64
2, 75337, Note_on_c, 0, 78, 0
2, 75341, Note_on_c, 0, 46, 0
2, 75341, Note_on_c, 0, 73, 0
2, 75345, Note_on_c, 0, 72, 64
2, 75345, Note_on_c, 0, 77, 64
2, 75345, Note_on_c, 0, 45, 64
2, 75371, Note_on_c, 0, 77, 0
2, 75375, Note_on_c, 0, 79, 64
2, 75397, Note_on_c, 0, 45, 0
2, 75401, Note_on_c, 0, 79, 0
2, 75405, Note_on_c, 0, 77, 64
2, 75405, Note_on_c, 0, 41, 64
2, 75405, Note_on_c, 0, 53, 64
2, 75431, Note_on_c, 0, 77, 0
2, 75435, Note_on_c, 0, 75, 64
2, 75450, Note_on_c, 0, 72, 0
2, 75457, Note_on_c, 0, 53, 0
2, 75457, Note_on_c, 0, 41, 0
2, 75461, Note_on_c, 0, 75, 0
2, 75465, Note_on_c, 0, 73, 64
2, 75465, Note_on_c, 0, 46, 64
2, 75465, Note_on_c, 0, 58, 64
2, 75491, Note_on_c, 0, 73, 0
2, 75495, Note_on_c, 0, 75, 64
2, 75517, Note_on_c, 0, 58, 0
2, 75517, Note_on_c, 0, 46, 0
2, 75521, Note_on_c, 0, 75, 0
2, 75525, Note_on_c, 0, 73, 64
2, 75525, Note_on_c, 0, 45, 64
2, 75525, Note_on_c, 0, 57, 64
2, 75551, Note_on_c, 0, 73, 0
2, 75555, Note_on_c, 0, 72, 64
2, 75577, Note_on_c, 0, 57, 0
2, 75577, Note_on_c, 0, 45, 0
2, 75581, Note_on_c, 0, 72, 0
2, 75585, Note_on_c, 0, 73, 64
2, 75585, Note_on_c, 0, 46, 64
2, 75585, Note_on_c, 0, 58, 64
2, 75611, Note_on_c, 0, 73, 0
2, 75615, Note_on_c, 0, 75, 64
2, 75637, Note_on_c, 0, 58, 0
2, 75637, Note_on_c, 0, 46, 0
2, 75641, Note_on_c, 0, 75, 0
2, 75645, Note_on_c, 0, 73, 64
2, 75645, Note_on_c, 0, 51, 64
2, 75645, Note_on_c, 0, 63, 64
2, 75671, Note_on_c, 0, 73, 0
2, 75675, Note_on_c, 0, 72, 64
2, 75697, Note_on_c, 0, 63, 0
2, 75697, Note_on_c, 0, 51, 0
2, 75701, Note_on_c, 0, 72, 0
2, 75705, Note_on_c, 0, 70, 64
2, 75705, Note_on_c, 0, 49, 64
2, 75705, Note_on_c, 0, 61, 64
2, 75731, Note_on_c, 0, 70, 0
2, 75735, Note_on_c, 0, 73, 64
2, 75757, Note_on_c, 0, 61, 0
2, 75757, Note_on_c, 0, 49, 0
2, 75761, Note_on_c, 0, 73, 0
2, 75765, Note_on_c, 0, 77, 64
2, 75765, Note_on_c, 0, 46, 64
2, 75765, Note_on_c, 0, 58, 64
2, 75791, Note_on_c, 0, 77, 0
2, 75795, Note_on_c, 0, 80, 64
2, 75817, Note_on_c, 0, 58, 0
2, 75817, Note_on_c, 0, 46, 0
2, 75821, Note_on_c, 0, 80, 0
2, 75825, Note_on_c, 0, 78, 64
2, 75851, Note_on_c, 0, 78, 0
2, 75855, Note_on_c, 0, 80, 64
2, 75881, Note_on_c, 0, 80, 0
2, 75885, Note_on_c, 0, 78, 64
2, 75885, Note_on_c, 0, 46, 64
2, 75885, Note_on_c, 0, 58, 64
2, 75911, Note_on_c, 0, 78, 0
2, 75915, Note_on_c, 0, 77, 64
2, 75937, Note_on_c, 0, 58, 0
2, 75937, Note_on_c, 0, 46, 0
2, 75941, Note_on_c, 0, 77, 0
2, 75945, Note_on_c, 0, 75, 64
2, 75945, Note_on_c, 0, 48, 64
2, 75945, Note_on_c, 0, 60, 64
2, 75971, Note_on_c, 0, 75, 0
2, 75975, Note_on_c, 0, 77, 64
2, 75997, Note_on_c, 0, 60, 0
2, 75997, Note_on_c, 0, 48, 0
2, 76001, Note_on_c, 0, 77, 0
2, 76005, Note_on_c, 0, 75, 64
2, 76005, Note_on_c, 0, 46, 64
2, 76005, Note_on_c, 0, 58, 64
2, 76031, Note_on_c, 0, 75, 0
2, 76035, Note_on_c, 0, 73, 64
2, 76057, Note_on_c, 0, 58, 0
2, 76057, Note_on_c, 0, 46, 0
2, 76061, Note_on_c, 0, 73, 0
2, 76065, Note_on_c, 0, 75, 64
2, 76065, Note_on_c, 0, 48, 64
2, 76065, Note_on_c, 0, 60, 64
2, 76091, Note_on_c, 0, 75, 0
2, 76095, Note_on_c, 0, 77, 64
2, 76117, Note_on_c, 0, 60, 0
2, 76117, Note_on_c, 0, 48, 0
2, 76121, Note_on_c, 0, 77, 0
2, 76125, Note_on_c, 0, 75, 64
2, 76125, Note_on_c, 0, 53, 64
2, 76125, Note_on_c, 0, 65, 64
2, 76151, Note_on_c, 0, 75, 0
2, 76155, Note_on_c, 0, 73, 64
2, 76177, Note_on_c, 0, 65, 0
2, 76177, Note_on_c, 0, 53, 0
2, 76181, Note_on_c, 0, 73, 0
2, 76185, Note_on_c, 0, 72, 64
2, 76185, Note_on_c, 0, 51, 64
2, 76185, Note_on_c, 0, 63, 64
2, 76211, Note_on_c, 0, 72, 0
2, 76215, Note_on_c, 0, 75, 64
2, 76237, Note_on_c, 0, 63, 0
2, 76237, Note_on_c, 0, 51, 0
2, 76241, Note_on_c, 0, 75, 0
2, 76245, Note_on_c, 0, 78, 64
2, 76245, Note_on_c, 0, 48, 64
2, 76245, Note_on_c, 0, 60, 64
2, 76271, Note_on_c, 0, 78, 0
2, 76275, Note_on_c, 0, 82, 64
2, 76297, Note_on_c, 0, 60, 0
2, 76297, Note_on_c, 0, 48, 0
2, 76301, Note_on_c, 0, 82, 0
2, 76305, Note_on_c, 0, 80, 64
2, 76331, Note_on_c, 0, 80, 0
2, 76335, Note_on_c, 0, 82, 64
2, 76361, Note_on_c, 0, 82, 0
2, 76365, Note_on_c, 0, 80, 64
2, 76365, Note_on_c, 0, 48, 64
2, 76365, Note_on_c, 0, 60, 64
2, 76391, Note_on_c, 0, 80, 0
2, 76395, Note_on_c, 0, 78, 64
2, 76417, Note_on_c, 0, 60, 0
2, 76417, Note_on_c, 0, 48, 0
2, 76421, Note_on_c, 0, 78, 0
2, 76425, Note_on_c, 0, 77, 64
2, 76425, Note_on_c, 0, 49, 64
2, 76425, Note_on_c, 0, 61, 64
2, 76451, Note_on_c, 0, 77, 0
2, 76455, Note_on_c, 0, 78, 64
2, 76477, Note_on_c, 0, 61, 0
2, 76477, Note_on_c, 0, 49, 0
2, 76481, Note_on_c, 0, 78, 0
2, 76485, Note_on_c, 0, 77, 64
2, 76485, Note_on_c, 0, 48, 64
2, 76485, Note_on_c, 0, 60, 64
2, 76511, Note_on_c, 0, 77, 0
2, 76515, Note_on_c, 0, 75, 64
2, 76537, Note_on_c, 0, 60, 0
2, 76537, Note_on_c, 0, 48, 0
2, 76541, Note_on_c, 0, 75, 0
2, 76545, Note_on_c, 0, 85, 64
2, 76545, Note_on_c, 0, 80, 64
2, 76545, Note_on_c, 0, 65, 64
2, 76571, Note_on_c, 0, 65, 0
2, 76571, Note_on_c, 0, 80, 0
2, 76575, Note_on_c, 0, 82, 64
2, 76575, Note_on_c, 0, 66, 64
2, 76601, Note_on_c, 0, 66, 0
2, 76601, Note_on_c, 0, 82, 0
2, 76605, Note_on_c, 0, 80, 64
2, 76605, Note_on_c, 0, 65, 64
2, 76631, Note_on_c, 0, 65, 0
2, 76631, Note_on_c, 0, 80, 0
2, 76635, Note_on_c, 0, 78, 64
2, 76635, Note_on_c, 0, 63, 64
2, 76650, Note_on_c, 0, 85, 0
2, 76661, Note_on_c, 0, 63, 0
2, 76661, Note_on_c, 0, 78, 0
2, 76665, Note_on_c, 0, 89, 64
2, 76665, Note_on_c, 0, 77, 64
2, 76665, Note_on_c, 0, 61, 64
2, 76691, Note_on_c, 0, 61, 0
2, 76691, Note_on_c, 0, 77, 0
2, 76695, Note_on_c, 0, 78, 64
2, 76695, Note_on_c, 0, 63, 64
2, 76721, Note_on_c, 0, 63, 0
2, 76721, Note_on_c, 0, 78, 0
2, 76725, Note_on_c, 0, 80, 64
2, 76725, Note_on_c, 0, 65, 64
2, 76751, Note_on_c, 0, 65, 0
2, 76751, Note_on_c, 0, 80, 0
2, 76755, Note_on_c, 0, 77, 64
2, 76755, Note_on_c, 0, 61, 64
2, 76770, Note_on_c, 0, 89, 0
2, 76781, Note_on_c, 0, 61, 0
2, 76781, Note_on_c, 0, 77, 0
2, 76785, Note_on_c, 0, 84, 64
2, 76785, Note_on_c, 0, 75, 64
2, 76785, Note_on_c, 0, 68, 64
2, 76811, Note_on_c, 0, 68, 0
2, 76815, Note_on_c, 0, 70, 64
2, 76837, Note_on_c, 0, 75, 0
2, 76841, Note_on_c, 0, 70, 0
2, 76845, Note_on_c, 0, 68, 64
2, 76871, Note_on_c, 0, 68, 0
2, 76875, Note_on_c, 0, 67, 64
2, 76901, Note_on_c, 0, 67, 0
2, 76905, Note_on_c, 0, 68, 64
2, 76931, Note_on_c, 0, 68, 0
2, 76931, Note_on_c, 0, 84, 0
2, 76935, Note_on_c, 0, 87, 64
2, 76935, Note_on_c, 0, 72, 64
2, 76961, Note_on_c, 0, 72, 0
2, 76961, Note_on_c, 0, 87, 0
2, 76965, Note_on_c, 0, 90, 64
2, 76965, Note_on_c, 0, 75, 64
2, 76991, Note_on_c, 0, 75, 0
2, 76991, Note_on_c, 0, 90, 0
2, 76995, Note_on_c, 0, 94, 64
2, 76995, Note_on_c, 0, 78, 64
2, 77021, Note_on_c, 0, 78, 0
2, 77021, Note_on_c, 0, 94, 0
2, 77025, Note_on_c, 0, 92, 64
2, 77025, Note_on_c, 0, 77, 64
2, 77051, Note_on_c, 0, 77, 0
2, 77051, Note_on_c, 0, 92, 0
2, 77055, Note_on_c, 0, 94, 64
2, 77055, Note_on_c, 0, 78, 64
2, 77081, Note_on_c, 0, 78, 0
2, 77081, Note_on_c, 0, 94, 0
2, 77085, Note_on_c, 0, 92, 64
2, 77085, Note_on_c, 0, 77, 64
2, 77111, Note_on_c, 0, 77, 0
2, 77111, Note_on_c, 0, 92, 0
2, 77115, Note_on_c, 0, 90, 64
2, 77115, Note_on_c, 0, 75, 64
2, 77141, Note_on_c, 0, 75, 0
2, 77141, Note_on_c, 0, 90, 0
2, 77145, Note_on_c, 0, 89, 64
2, 77145, Note_on_c, 0, 73, 64
2, 77171, Note_on_c, 0, 73, 0
2, 77171, Note_on_c, 0, 89, 0
2, 77175, Note_on_c, 0, 90, 64
2, 77175, Note_on_c, 0, 75, 64
2, 77201, Note_on_c, 0, 75, 0
2, 77201, Note_on_c, 0, 90, 0
2, 77205, Note_on_c, 0, 89, 64
2, 77205, Note_on_c, 0, 73, 64
2, 77231, Note_on_c, 0, 73, 0
2, 77231, Note_on_c, 0, 89, 0
2, 77235, Note_on_c, 0, 87, 64
2, 77235, Note_on_c, 0, 72, 64
2, 77261, Note_on_c, 0, 72, 0
2, 77261, Note_on_c, 0, 87, 0
2, 77265, Note_on_c, 0, 89, 64
2, 77265, Note_on_c, 0, 73, 64
2, 77291, Note_on_c, 0, 73, 0
2, 77291, Note_on_c, 0, 89, 0
2, 77295, Note_on_c, 0, 90, 64
2, 77295, Note_on_c, 0, 75, 64
2, 77321, Note_on_c, 0, 75, 0
2, 77321, Note_on_c, 0, 90, 0
2, 77325, Note_on_c, 0, 89, 64
2, 77325, Note_on_c, 0, 73, 64
2, 77351, Note_on_c, 0, 73, 0
2, 77351, Note_on_c, 0, 89, 0
2, 77355, Note_on_c, 0, 87, 64
2, 77355, Note_on_c, 0, 71, 64
2, 77381, Note_on_c, 0, 71, 0
2, 77381, Note_on_c, 0, 87, 0
2, 77385, Note_on_c, 0, 86, 64
2, 77385, Note_on_c, 0, 70, 64
2, 77411, Note_on_c, 0, 70, 0
2, 77411, Note_on_c, 0, 86, 0
2, 77415, Note_on_c, 0, 89, 64
2, 77415, Note_on_c, 0, 74, 64
2, 77441, Note_on_c, 0, 74, 0
2, 77441, Note_on_c, 0, 89, 0
2, 77445, Note_on_c, 0, 92, 64
2, 77445, Note_on_c, 0, 77, 64
2, 77471, Note_on_c, 0, 77, 0
2, 77471, Note_on_c, 0, 92, 0
2, 77475, Note_on_c, 0, 95, 64
2, 77475, Note_on_c, 0, 80, 64
2, 77501, Note_on_c, 0, 80, 0
2, 77501, Note_on_c, 0, 95, 0
2, 77505, Note_on_c, 0, 94, 64
2, 77505, Note_on_c, 0, 78, 64
2, 77531, Note_on_c, 0, 78, 0
2, 77531, Note_on_c, 0, 94, 0
2, 77535, Note_on_c, 0, 95, 64
2, 77535, Note_on_c, 0, 80, 64
2, 77561, Note_on_c, 0, 80, 0
2, 77561, Note_on_c, 0, 95, 0
2, 77565, Note_on_c, 0, 94, 64
2, 77565, Note_on_c, 0, 78, 64
2, 77591, Note_on_c, 0, 78, 0
2, 77591, Note_on_c, 0, 94, 0
2, 77595, Note_on_c, 0, 92, 64
2, 77595, Note_on_c, 0, 77, 64
2, 77621, Note_on_c, 0, 77, 0
2, 77621, Note_on_c, 0, 92, 0
2, 77625, Note_on_c, 0, 90, 64
2, 77625, Note_on_c, 0, 75, 64
2, 77651, Note_on_c, 0, 75, 0
2, 77651, Note_on_c, 0, 90, 0
2, 77655, Note_on_c, 0, 92, 64
2, 77655, Note_on_c, 0, 77, 64
2, 77681, Note_on_c, 0, 77, 0
2, 77681, Note_on_c, 0, 92, 0
2, 77685, Note_on_c, 0, 90, 64
2, 77685, Note_on_c, 0, 75, 64
2, 77711, Note_on_c, 0, 75, 0
2, 77711, Note_on_c, 0, 90, 0
2, 77715, Note_on_c, 0, 89, 64
2, 77715, Note_on_c, 0, 74, 64
2, 77741, Note_on_c, 0, 74, 0
2, 77741, Note_on_c, 0, 89, 0
2, 77745, Note_on_c, 0, 90, 64
2, 77745, Note_on_c, 0, 75, 64
2, 77771, Note_on_c, 0, 75, 0
2, 77771, Note_on_c, 0, 90, 0
2, 77775, Note_on_c, 0, 92, 64
2, 77775, Note_on_c, 0, 77, 64
2, 77801, Note_on_c, 0, 77, 0
2, 77801, Note_on_c, 0, 92, 0
2, 77805, Note_on_c, 0, 90, 64
2, 77805, Note_on_c, 0, 75, 64
2, 77831, Note_on_c, 0, 75, 0
2, 77831, Note_on_c, 0, 90, 0
2, 77835, Note_on_c, 0, 89, 64
2, 77835, Note_on_c, 0, 73, 64
2, 77861, Note_on_c, 0, 73, 0
2, 77861, Note_on_c, 0, 89, 0
2, 77865, Note_on_c, 0, 88, 64
2, 77865, Note_on_c, 0, 72, 64
2, 77891, Note_on_c, 0, 72, 0
2, 77891, Note_on_c, 0, 88, 0
2, 77895, Note_on_c, 0, 91, 64
2, 77895, Note_on_c, 0, 76, 64
2, 77921, Note_on_c, 0, 76, 0
2, 77921, Note_on_c, 0, 91, 0
2, 77925, Note_on_c, 0, 94, 64
2, 77925, Note_on_c, 0, 79, 64
2, 77951, Note_on_c, 0, 79, 0
2, 77951, Note_on_c, 0, 94, 0
2, 77955, Note_on_c, 0, 85, 64
2, 77955, Note_on_c, 0, 77, 64
2, 77981, Note_on_c, 0, 77, 0
2, 77981, Note_on_c, 0, 85, 0
2, 77985, Note_on_c, 0, 84, 64
2, 77985, Note_on_c, 0, 76, 64
2, 78011, Note_on_c, 0, 76, 0
2, 78011, Note_on_c, 0, 84, 0
2, 78015, Note_on_c, 0, 85, 64
2, 78015, Note_on_c, 0, 77, 64
2, 78041, Note_on_c, 0, 77, 0
2, 78041, Note_on_c, 0, 85, 0
2, 78045, Note_on_c, 0, 84, 64
2, 78045, Note_on_c, 0, 76, 64
2, 78071, Note_on_c, 0, 76, 0
2, 78071, Note_on_c, 0, 84, 0
2, 78075, Note_on_c, 0, 82, 64
2, 78075, Note_on_c, 0, 79, 64
2, 78101, Note_on_c, 0, 79, 0
2, 78101, Note_on_c, 0, 82, 0
2, 78105, Note_on_c, 0, 80, 64
2, 78105, Note_on_c, 0, 77, 64
2, 78131, Note_on_c, 0, 77, 0
2, 78131, Note_on_c, 0, 80, 0
2, 78135, Note_on_c, 0, 82, 64
2, 78135, Note_on_c, 0, 79, 64
2, 78161, Note_on_c, 0, 79, 0
2, 78161, Note_on_c, 0, 82, 0
2, 78165, Note_on_c, 0, 80, 64
2, 78165, Note_on_c, 0, 77, 64
2, 78191, Note_on_c, 0, 77, 0
2, 78191, Note_on_c, 0, 80, 0
2, 78195, Note_on_c, 0, 79, 64
2, 78195, Note_on_c, 0, 76, 64
2, 78221, Note_on_c, 0, 76, 0
2, 78221, Note_on_c, 0, 79, 0
2, 78225, Note_on_c, 0, 80, 64
2, 78225, Note_on_c, 0, 77, 64
2, 78251, Note_on_c, 0, 77, 0
2, 78251, Note_on_c, 0, 80, 0
2, 78255, Note_on_c, 0, 82, 64
2, 78255, Note_on_c, 0, 79, 64
2, 78281, Note_on_c, 0, 79, 0
2, 78281, Note_on_c, 0, 82, 0
2, 78285, Note_on_c, 0, 80, 64
2, 78285, Note_on_c, 0, 77, 64
2, 78311, Note_on_c, 0, 77, 0
2, 78311, Note_on_c, 0, 80, 0
2, 78315, Note_on_c, 0, 79, 64
2, 78315, Note_on_c, 0, 75, 64
2, 78341, Note_on_c, 0, 75, 0
2, 78341, Note_on_c, 0, 79, 0
2, 78345, Note_on_c, 0, 78, 64
2, 78345, Note_on_c, 0, 74, 64
2, 78371, Note_on_c, 0, 74, 0
2, 78371, Note_on_c, 0, 78, 0
2, 78375, Note_on_c, 0, 81, 64
2, 78375, Note_on_c, 0, 78, 64
2, 78401, Note_on_c, 0, 78, 0
2, 78401, Note_on_c, 0, 81, 0
2, 78405, Note_on_c, 0, 84, 64
2, 78405, Note_on_c, 0, 81, 64
2, 78431, Note_on_c, 0, 81, 0
2, 78431, Note_on_c, 0, 84, 0
2, 78435, Note_on_c, 0, 87, 64
2, 78435, Note_on_c, 0, 84, 64
2, 78461, Note_on_c, 0, 84, 0
2, 78461, Note_on_c, 0, 87, 0
2, 78465, Note_on_c, 0, 86, 64
2, 78465, Note_on_c, 0, 82, 64
2, 78491, Note_on_c, 0, 82, 0
2, 78491, Note_on_c, 0, 86, 0
2, 78495, Note_on_c, 0, 87, 64
2, 78495, Note_on_c, 0, 84, 64
2, 78521, Note_on_c, 0, 84, 0
2, 78521, Note_on_c, 0, 87, 0
2, 78525, Note_on_c, 0, 86, 64
2, 78525, Note_on_c, 0, 82, 64
2, 78551, Note_on_c, 0, 82, 0
2, 78551, Note_on_c, 0, 86, 0
2, 78555, Note_on_c, 0, 84, 64
2, 78555, Note_on_c, 0, 81, 64
2, 78581, Note_on_c, 0, 81, 0
2, 78581, Note_on_c, 0, 84, 0
2, 78585, Note_on_c, 0, 82, 64
2, 78585, Note_on_c, 0, 79, 64
2, 78611, Note_on_c, 0, 79, 0
2, 78611, Note_on_c, 0, 82, 0
2, 78615, Note_on_c, 0, 84, 64
2, 78615, Note_on_c, 0, 81, 64
2, 78641, Note_on_c, 0, 81, 0
2, 78641, Note_on_c, 0, 84, 0
2, 78645, Note_on_c, 0, 82, 64
2, 78645, Note_on_c, 0, 79, 64
2, 78671, Note_on_c, 0, 79, 0
2, 78671, Note_on_c, 0, 82, 0
2, 78675, Note_on_c, 0, 81, 64
2, 78675, Note_on_c, 0, 78, 64
2, 78701, Note_on_c, 0, 78, 0
2, 78701, Note_on_c, 0, 81, 0
2, 78705, Note_on_c, 0, 83, 64
2, 78705, Note_on_c, 0, 79, 64
2, 78731, Note_on_c, 0, 79, 0
2, 78731, Note_on_c, 0, 83, 0
2, 78735, Note_on_c, 0, 84, 64
2, 78735, Note_on_c, 0, 81, 64
2, 78761, Note_on_c, 0, 81, 0
2, 78761, Note_on_c, 0, 84, 0
2, 78765, Note_on_c, 0, 83, 64
2, 78765, Note_on_c, 0, 79, 64
2, 78791, Note_on_c, 0, 79, 0
2, 78791, Note_on_c, 0, 83, 0
2, 78795, Note_on_c, 0, 81, 64
2, 78795, Note_on_c, 0, 78, 64
2, 78821, Note_on_c, 0, 78, 0
2, 78821, Note_on_c, 0, 81, 0
2, 78825, Note_on_c, 0, 83, 64
2, 78825, Note_on_c, 0, 79, 64
2, 78851, Note_on_c, 0, 79, 0
2, 78851, Note_on_c, 0, 83, 0
2, 78855, Note_on_c, 0, 86, 64
2, 78855, Note_on_c, 0, 83, 64
2, 78881, Note_on_c, 0, 83, 0
2, 78881, Note_on_c, 0, 86, 0
2, 78885, Note_on_c, 0, 89, 64
2, 78885, Note_on_c, 0, 86, 64
2, 78911, Note_on_c, 0, 86, 0
2, 78911, Note_on_c, 0, 89, 0
2, 78915, Note_on_c, 0, 93, 64
2, 78915, Note_on_c, 0, 89, 64
2, 78941, Note_on_c, 0, 89, 0
2, 78941, Note_on_c, 0, 93, 0
2, 78945, Note_on_c, 0, 91, 64
2, 78945, Note_on_c, 0, 87, 64
2, 78971, Note_on_c, 0, 87, 0
2, 78971, Note_on_c, 0, 91, 0
2, 78975, Note_on_c, 0, 92, 64
2, 78975, Note_on_c, 0, 89, 64
2, 79001, Note_on_c, 0, 89, 0
2, 79001, Note_on_c, 0, 92, 0
2, 79005, Note_on_c, 0, 91, 64
2, 79005, Note_on_c, 0, 87, 64
2, 79031, Note_on_c, 0, 87, 0
2, 79031, Note_on_c, 0, 91, 0
2, 79035, Note_on_c, 0, 89, 64
2, 79035, Note_on_c, 0, 86, 64
2, 79061, Note_on_c, 0, 86, 0
2, 79061, Note_on_c, 0, 89, 0
2, 79065, Note_on_c, 0, 87, 64
2, 79065, Note_on_c, 0, 84, 64
2, 79091, Note_on_c, 0, 84, 0
2, 79091, Note_on_c, 0, 87, 0
2, 79095, Note_on_c, 0, 89, 64
2, 79095, Note_on_c, 0, 86, 64
2, 79121, Note_on_c, 0, 86, 0
2, 79121, Note_on_c, 0, 89, 0
2, 79125, Note_on_c, 0, 87, 64
2, 79125, Note_on_c, 0, 84, 64
2, 79151, Note_on_c, 0, 84, 0
2, 79151, Note_on_c, 0, 87, 0
2, 79155, Note_on_c, 0, 86, 64
2, 79155, Note_on_c, 0, 83, 64
2, 79181, Note_on_c, 0, 83, 0
2, 79181, Note_on_c, 0, 86, 0
2, 79185, Note_on_c, 0, 87, 64
2, 79185, Note_on_c, 0, 84, 64
2, 79211, Note_on_c, 0, 84, 0
2, 79211, Note_on_c, 0, 87, 0
2, 79215, Note_on_c, 0, 89, 64
2, 79215, Note_on_c, 0, 86, 64
2, 79241, Note_on_c, 0, 86, 0
2, 79241, Note_on_c, 0, 89, 0
2, 79245, Note_on_c, 0, 87, 64
2, 79245, Note_on_c, 0, 84, 64
2, 79271, Note_on_c, 0, 84, 0
2, 79271, Note_on_c, 0, 87, 0
2, 79275, Note_on_c, 0, 86, 64
2, 79275, Note_on_c, 0, 83, 64
2, 79301, Note_on_c, 0, 83, 0
2, 79301, Note_on_c, 0, 86, 0
2, 79305, Note_on_c, 0, 87, 64
2, 79305, Note_on_c, 0, 84, 64
2, 79331, Note_on_c, 0, 87, 0
2, 79335, Note_on_c, 0, 91, 64
2, 79357, Note_on_c, 0, 84, 0
2, 79361, Note_on_c, 0, 91, 0
2, 79365, Note_on_c, 0, 93, 64
2, 79365, Note_on_c, 0, 43, 64
2, 79391, Note_on_c, 0, 43, 0
2, 79391, Note_on_c, 0, 93, 0
2, 79395, Note_on_c, 0, 95, 64
2, 79395, Note_on_c, 0, 41, 64
2, 79421, Note_on_c, 0, 41, 0
2, 79421, Note_on_c, 0, 95, 0
2, 79425, Note_on_c, 0, 96, 64
2, 79425, Note_on_c, 0, 39, 64
2, 79425, Note_on_c, 0, 43, 64
2, 79451, Note_on_c, 0, 43, 0
2, 79451, Note_on_c, 0, 39, 0
2, 79455, Note_on_c, 0, 48, 64
2, 79481, Note_on_c, 0, 48, 0
2, 79485, Note_on_c, 0, 39, 64
2, 79485, Note_on_c, 0, 43, 64
2, 79511, Note_on_c, 0, 43, 0
2, 79511, Note_on_c, 0, 39, 0
2, 79515, Note_on_c, 0, 48, 64
2, 79541, Note_on_c, 0, 48, 0
2, 79545, Note_on_c, 0, 39, 64
2, 79545, Note_on_c, 0, 43, 64
2, 79571, Note_on_c, 0, 43, 0
2, 79571, Note_on_c, 0, 39, 0
2, 79575, Note_on_c, 0, 48, 64
2, 79601, Note_on_c, 0, 48, 0
2, 79605, Note_on_c, 0, 39, 64
2, 79605, Note_on_c, 0, 43, 64
2, 79631, Note_on_c, 0, 43, 0
2, 79631, Note_on_c, 0, 39, 0
2, 79635, Note_on_c, 0, 48, 64
2, 79650, Note_on_c, 0, 96, 0
2, 79661, Note_on_c, 0, 48, 0
2, 79665, Note_on_c, 0, 36, 64
2, 79665, Note_on_c, 0, 40, 64
2, 79665, Note_on_c, 0, 43, 64
2, 79665, Note_on_c, 0, 46, 64
2, 79691, Note_on_c, 0, 46, 0
2, 79691, Note_on_c, 0, 43, 0
2, 79691, Note_on_c, 0, 40, 0
2, 79695, Note_on_c, 0, 48, 64
2, 79721, Note_on_c, 0, 48, 0
2, 79725, Note_on_c, 0, 40, 64
2, 79725, Note_on_c, 0, 43, 64
2, 79725, Note_on_c, 0, 46, 64
2, 79751, Note_on_c, 0, 46, 0
2, 79751, Note_on_c, 0, 43, 0
2, 79751, Note_on_c, 0, 40, 0
2, 79755, Note_on_c, 0, 48, 64
2, 79781, Note_on_c, 0, 48, 0
2, 79785, Note_on_c, 0, 40, 64
2, 79785, Note_on_c, 0, 43, 64
2, 79785, Note_on_c, 0, 46, 64
2, 79811, Note_on_c, 0, 46, 0
2, 79811, Note_on_c, 0, 43, 0
2, 79811, Note_on_c, 0, 40, 0
2, 79815, Note_on_c, 0, 48, 64
2, 79841, Note_on_c, 0, 48, 0
2, 79845, Note_on_c, 0, 40, 64
2, 79845, Note_on_c, 0, 43, 64
2, 79845, Note_on_c, 0, 46, 64
2, 79871, Note_on_c, 0, 46, 0
2, 79871, Note_on_c, 0, 43, 0
2, 79871, Note_on_c, 0, 40, 0
2, 79875, Note_on_c, 0, 48, 64
2, 79890, Note_on_c, 0, 36, 0
2, 79901, Note_on_c, 0, 48, 0
2, 79905, Note_on_c, 0, 29, 64
2, 79905, Note_on_c, 0, 41, 64
2, 79905, Note_on_c, 0, 44, 64
2, 79931, Note_on_c, 0, 44, 0
2, 79931, Note_on_c, 0, 41, 0
2, 79935, Note_on_c, 0, 48, 64
2, 79961, Note_on_c, 0, 48, 0
2, 79965, Note_on_c, 0, 41, 64
2, 79965, Note_on_c, 0, 44, 64
2, 79991, Note_on_c, 0, 44, 0
2, 79991, Note_on_c, 0, 41, 0
2, 79995, Note_on_c, 0, 48, 64
2, 80021, Note_on_c, 0, 48, 0
2, 80025, Note_on_c, 0, 41, 64
2, 80025, Note_on_c, 0, 44, 64
2, 80051, Note_on_c, 0, 44, 0
2, 80051, Note_on_c, 0, 41, 0
2, 80055, Note_on_c, 0, 48, 64
2, 80081, Note_on_c, 0, 48, 0
2, 80085, Note_on_c, 0, 41, 64
2, 80085, Note_on_c, 0, 44, 64
2, 80111, Note_on_c, 0, 44, 0
2, 80111, Note_on_c, 0, 41, 0
2, 80115, Note_on_c, 0, 48, 64
2, 80130, Note_on_c, 0, 29, 0
2, 80141, Note_on_c, 0, 48, 0
2, 80145, Note_on_c, 0, 96, 64
2, 80145, Note_on_c, 0, 42, 64
2, 80145, Note_on_c, 0, 45, 64
2, 80145, Note_on_c, 0, 48, 64
2, 80171, Note_on_c, 0, 48, 0
2, 80171, Note_on_c, 0, 45, 0
2, 80171, Note_on_c, 0, 42, 0
2, 80175, Note_on_c, 0, 51, 64
2, 80201, Note_on_c, 0, 51, 0
2, 80205, Note_on_c, 0, 42, 64
2, 80205, Note_on_c, 0, 45, 64
2, 80205, Note_on_c, 0, 48, 64
2, 80231, Note_on_c, 0, 48, 0
2, 80231, Note_on_c, 0, 45, 0
2, 80231, Note_on_c, 0, 42, 0
2, 80235, Note_on_c, 0, 51, 64
2, 80261, Note_on_c, 0, 51, 0
2, 80265, Note_on_c, 0, 42, 64
2, 80265, Note_on_c, 0, 45, 64
2, 80265, Note_on_c, 0, 48, 64
2, 80291, Note_on_c, 0, 48, 0
2, 80291, Note_on_c, 0, 45, 0
2, 80291, Note_on_c, 0, 42, 0
2, 80295, Note_on_c, 0, 51, 64
2, 80321, Note_on_c, 0, 51, 0
2, 80325, Note_on_c, 0, 42, 64
2, 80325, Note_on_c, 0, 45, 64
2, 80325, Note_on_c, 0, 48, 64
2, 80351, Note_on_c, 0, 48, 0
2, 80351, Note_on_c, 0, 45, 0
2, 80351, Note_on_c, 0, 42, 0
2, 80355, Note_on_c, 0, 51, 64
2, 80370, Note_on_c, 0, 96, 0
2, 80381, Note_on_c, 0, 51, 0
2, 80385, Note_on_c, 0, 31, 64
2, 80385, Note_on_c, 0, 43, 64
2, 80490, Note_on_c, 0, 43, 0
2, 80490, Note_on_c, 0, 31, 0
2, 80505, Note_on_c, 0, 91, 64
2, 80730, Note_on_c, 0, 91, 0
2, 80745, Note_on_c, 0, 88, 64
2, 80797, Note_on_c, 0, 88, 0
2, 80805, Note_on_c, 0, 84, 64
2, 80835, Note_on_c, 0, 55, 64
2, 80835, Note_on_c, 0, 64, 64
2, 80835, Note_on_c, 0, 67, 64
2, 80857, Note_on_c, 0, 84, 0
2, 80861, Note_on_c, 0, 55, 0
2, 80861, Note_on_c, 0, 64, 0
2, 80861, Note_on_c, 0, 67, 0
2, 80865, Note_on_c, 0, 84, 64
2, 80865, Note_on_c, 0, 55, 64
2, 80865, Note_on_c, 0, 62, 64
2, 80865, Note_on_c, 0, 65, 64
2, 80985, Note_on_c, 0, 84, 0
2, 80985, Note_on_c, 0, 83, 64
2, 81030, Note_on_c, 0, 55, 0
2, 81030, Note_on_c, 0, 65, 0
2, 81030, Note_on_c, 0, 62, 0
2, 81037, Note_on_c, 0, 83, 0
2, 81075, Note_on_c, 0, 81, 64
2, 81075, Note_on_c, 0, 55, 64
2, 81075, Note_on_c, 0, 60, 64
2, 81075, Note_on_c, 0, 64, 64
2, 81101, Note_on_c, 0, 64, 0
2, 81101, Note_on_c, 0, 81, 0
2, 81101, Note_on_c, 0, 55, 0
2, 81101, Note_on_c, 0, 60, 0
2, 81105, Note_on_c, 0, 81, 64
2, 81105, Note_on_c, 0, 55, 64
2, 81105, Note_on_c, 0, 60, 64
2, 81105, Note_on_c, 0, 64, 64
2, 81210, Note_on_c, 0, 64, 0
2, 81210, Note_on_c, 0, 60, 0
2, 81210, Note_on_c, 0, 55, 0
2, 81225, Note_on_c, 0, 81, 0
2, 81225, Note_on_c, 0, 79, 64
2, 81225, Note_on_c, 0, 55, 64
2, 81225, Note_on_c, 0, 59, 64
2, 81225, Note_on_c, 0, 62, 64
2, 81277, Note_on_c, 0, 62, 0
2, 81277, Note_on_c, 0, 79, 0
2, 81277, Note_on_c, 0, 55, 0
2, 81277, Note_on_c, 0, 59, 0
2, 81315, Note_on_c, 0, 77, 64
2, 81315, Note_on_c, 0, 86, 64
2, 81315, Note_on_c, 0, 89, 64
2, 81315, Note_on_c, 0, 55, 64
2, 81315, Note_on_c, 0, 59, 64
2, 81315, Note_on_c, 0, 62, 64
2, 81341, Note_on_c, 0, 62, 0
2, 81341, Note_on_c, 0, 86, 0
2, 81341, Note_on_c, 0, 89, 0
2, 81341, Note_on_c, 0, 77, 0
2, 81341, Note_on_c, 0, 59, 0
2, 81341, Note_on_c, 0, 55, 0
2, 81345, Note_on_c, 0, 77, 64
2, 81345, Note_on_c, 0, 86, 64
2, 81345, Note_on_c, 0, 89, 64
2, 81345, Note_on_c, 0, 55, 64
2, 81345, Note_on_c, 0, 59, 64
2, 81345, Note_on_c, 0, 62, 64
2, 81450, Note_on_c, 0, 62, 0
2, 81450, Note_on_c, 0, 86, 0
2, 81450, Note_on_c, 0, 89, 0
2, 81450, Note_on_c, 0, 77, 0
2, 81450, Note_on_c, 0, 59, 0
2, 81450, Note_on_c, 0, 55, 0
2, 81465, Note_on_c, 0, 76, 64
2, 81465, Note_on_c, 0, 84, 64
2, 81465, Note_on_c, 0, 88, 64
2, 81465, Note_on_c, 0, 55, 64
2, 81465, Note_on_c, 0, 60, 64
2, 81465, Note_on_c, 0, 64, 64
2, 81570, Note_on_c, 0, 64, 0
2, 81570, Note_on_c, 0, 55, 0
2, 81570, Note_on_c, 0, 60, 0
2, 81593, Note_on_c, 0, 76, 0
2, 81593, Note_on_c, 0, 88, 0
2, 81593, Note_on_c, 0, 84, 0
2, 81594, Note_on_c, 0, 91, 64
2, 81603, Note_on_c, 0, 91, 0
2, 81604, Note_on_c, 0, 90, 64
2, 81613, Note_on_c, 0, 90, 0
2, 81614, Note_on_c, 0, 91, 64
2, 81623, Note_on_c, 0, 91, 0
2, 81624, Note_on_c, 0, 93, 64
2, 81633, Note_on_c, 0, 93, 0
2, 81634, Note_on_c, 0, 91, 64
2, 81643, Note_on_c, 0, 91, 0
2, 81644, Note_on_c, 0, 87, 64
2, 81653, Note_on_c, 0, 87, 0
2, 81654, Note_on_c, 0, 88, 64
2, 81663, Note_on_c, 0, 88, 0
2, 81664, Note_on_c, 0, 89, 64
2, 81673, Note_on_c, 0, 89, 0
2, 81674, Note_on_c, 0, 88, 64
2, 81683, Note_on_c, 0, 88, 0
2, 81684, Note_on_c, 0, 83, 64
2, 81693, Note_on_c, 0, 83, 0
2, 81694, Note_on_c, 0, 84, 64
2, 81703, Note_on_c, 0, 84, 0
2, 81705, Note_on_c, 0, 86, 64
2, 81716, Note_on_c, 0, 86, 0
2, 81718, Note_on_c, 0, 84, 64
2, 81729, Note_on_c, 0, 84, 0
2, 81731, Note_on_c, 0, 78, 64
2, 81743, Note_on_c, 0, 78, 0
2, 81744, Note_on_c, 0, 79, 64
2, 81756, Note_on_c, 0, 79, 0
2, 81758, Note_on_c, 0, 80, 64
2, 81769, Note_on_c, 0, 80, 0
2, 81771, Note_on_c, 0, 81, 64
2, 81783, Note_on_c, 0, 81, 0
2, 81784, Note_on_c, 0, 79, 64
2, 81796, Note_on_c, 0, 79, 0
2, 81798, Note_on_c, 0, 76, 64
2, 81810, Note_on_c, 0, 76, 0
2, 81811, Note_on_c, 0, 72, 64
2, 81823, Note_on_c, 0, 72, 0
2, 81825, Note_on_c, 0, 72, 64
2, 81825, Note_on_c, 0, 59, 64
2, 81825, Note_on_c, 0, 65, 64
2, 81825, Note_on_c, 0, 43, 64
2, 81825, Note_on_c, 0, 50, 64
2, 81825, Note_on_c, 0, 53, 64
2, 81845, Note_on_c, 0, 72, 0
2, 81848, Note_on_c, 0, 71, 64
2, 81870, Note_on_c, 0, 71, 0
2, 81872, Note_on_c, 0, 72, 64
2, 81894, Note_on_c, 0, 72, 0
2, 81896, Note_on_c, 0, 74, 64
2, 81918, Note_on_c, 0, 74, 0
2, 81920, Note_on_c, 0, 72, 64
2, 81941, Note_on_c, 0, 72, 0
2, 81945, Note_on_c, 0, 71, 64
2, 81990, Note_on_c, 0, 65, 0
2, 81990, Note_on_c, 0, 50, 0
2, 81990, Note_on_c, 0, 43, 0
2, 81990, Note_on_c, 0, 59, 0
2, 81990, Note_on_c, 0, 53, 0
2, 81997, Note_on_c, 0, 71, 0
2, 82035, Note_on_c, 0, 69, 64
2, 82035, Note_on_c, 0, 60, 64
2, 82035, Note_on_c, 0, 65, 64
2, 82035, Note_on_c, 0, 43, 64
2, 82035, Note_on_c, 0, 48, 64
2, 82035, Note_on_c, 0, 53, 64
2, 82061, Note_on_c, 0, 53, 0
2, 82061, Note_on_c, 0, 60, 0
2, 82061, Note_on_c, 0, 65, 0
2, 82061, Note_on_c, 0, 69, 0
2, 82061, Note_on_c, 0, 48, 0
2, 82061, Note_on_c, 0, 43, 0
2, 82065, Note_on_c, 0, 69, 64
2, 82065, Note_on_c, 0, 62, 64
2, 82065, Note_on_c, 0, 65, 64
2, 82065, Note_on_c, 0, 43, 64
2, 82065, Note_on_c, 0, 47, 64
2, 82065, Note_on_c, 0, 53, 64
2, 82085, Note_on_c, 0, 69, 0
2, 82088, Note_on_c, 0, 67, 64
2, 82110, Note_on_c, 0, 67, 0
2, 82112, Note_on_c, 0, 69, 64
2, 82134, Note_on_c, 0, 69, 0
2, 82136, Note_on_c, 0, 71, 64
2, 82158, Note_on_c, 0, 71, 0
2, 82160, Note_on_c, 0, 69, 64
2, 82181, Note_on_c, 0, 69, 0
2, 82185, Note_on_c, 0, 67, 64
2, 82230, Note_on_c, 0, 65, 0
2, 82230, Note_on_c, 0, 47, 0
2, 82230, Note_on_c, 0, 43, 0
2, 82230, Note_on_c, 0, 62, 0
2, 82230, Note_on_c, 0, 53, 0
2, 82237, Note_on_c, 0, 67, 0
2, 82275, Note_on_c, 0, 71, 64
2, 82275, Note_on_c, 0, 77, 64
2, 82275, Note_on_c, 0, 55, 64
2, 82275, Note_on_c, 0, 62, 64
2, 82301, Note_on_c, 0, 62, 0
2, 82301, Note_on_c, 0, 71, 0
2, 82301, Note_on_c, 0, 77, 0
2, 82301, Note_on_c, 0, 55, 0
2, 82305, Note_on_c, 0, 71, 64
2, 82305, Note_on_c, 0, 77, 64
2, 82305, Note_on_c, 0, 56, 64
2, 82305, Note_on_c, 0, 62, 64
2, 82410, Note_on_c, 0, 62, 0
2, 82410, Note_on_c, 0, 71, 0
2, 82410, Note_on_c, 0, 77, 0
2, 82410, Note_on_c, 0, 56, 0
2, 82425, Note_on_c, 0, 72, 64
2, 82425, Note_on_c, 0, 76, 64
2, 82425, Note_on_c, 0, 57, 64
2, 82425, Note_on_c, 0, 60, 64
2, 82530, Note_on_c, 0, 60, 0
2, 82530, Note_on_c, 0, 72, 0
2, 82530, Note_on_c, 0, 76, 0
2, 82530, Note_on_c, 0, 57, 0
2, 82755, Note_on_c, 0, 67, 64
2, 82755, Note_on_c, 0, 74, 64
2, 82755, Note_on_c, 0, 81, 64
2, 82755, Note_on_c, 0, 53, 64
2, 82755, Note_on_c, 0, 55, 64
2, 82755, Note_on_c, 0, 59, 64
2, 82781, Note_on_c, 0, 59, 0
2, 82781, Note_on_c, 0, 74, 0
2, 82781, Note_on_c, 0, 81, 0
2, 82781, Note_on_c, 0, 67, 0
2, 82781, Note_on_c, 0, 55, 0
2, 82781, Note_on_c, 0, 53, 0
2, 82785, Note_on_c, 0, 67, 64
2, 82785, Note_on_c, 0, 74, 64
2, 82785, Note_on_c, 0, 80, 64
2, 82785, Note_on_c, 0, 53, 64
2, 82785, Note_on_c, 0, 55, 64
2, 82785, Note_on_c, 0, 59, 64
2, 82890, Note_on_c, 0, 59, 0
2, 82890, Note_on_c, 0, 74, 0
2, 82890, Note_on_c, 0, 80, 0
2, 82890, Note_on_c, 0, 67, 0
2, 82890, Note_on_c, 0, 55, 0
2, 82890, Note_on_c, 0, 53, 0
2, 82905, Note_on_c, 0, 67, 64
2, 82905, Note_on_c, 0, 79, 64
2, 82905, Note_on_c, 0, 52, 64
2, 82905, Note_on_c, 0, 55, 64
2, 82905, Note_on_c, 0, 60, 64
2, 83010, Note_on_c, 0, 60, 0
2, 83010, Note_on_c, 0, 52, 0
2, 83010, Note_on_c, 0, 67, 0
2, 83010, Note_on_c, 0, 79, 0
2, 83010, Note_on_c, 0, 55, 0
2, 83235, Note_on_c, 0, 74, 64
2, 83235, Note_on_c, 0, 80, 64
2, 83235, Note_on_c, 0, 65, 64
2, 83235, Note_on_c, 0, 71, 64
2, 83261, Note_on_c, 0, 71, 0
2, 83261, Note_on_c, 0, 74, 0
2, 83261, Note_on_c, 0, 80, 0
2, 83261, Note_on_c, 0, 65, 0
2, 83265, Note_on_c, 0, 74, 64
2, 83265, Note_on_c, 0, 80, 64
2, 83265, Note_on_c, 0, 65, 64
2, 83265, Note_on_c, 0, 71, 64
2, 83370, Note_on_c, 0, 71, 0
2, 83370, Note_on_c, 0, 74, 0
2, 83370, Note_on_c, 0, 80, 0
2, 83370, Note_on_c, 0, 65, 0
2, 83385, Note_on_c, 0, 73, 64
2, 83385, Note_on_c, 0, 79, 64
2, 83385, Note_on_c, 0, 63, 64
2, 83385, Note_on_c, 0, 70, 64
2, 83610, Note_on_c, 0, 70, 0
2, 83610, Note_on_c, 0, 73, 0
2, 83610, Note_on_c, 0, 79, 0
2, 83610, Note_on_c, 0, 63, 0
2, 83625, Note_on_c, 0, 77, 64
2, 83625, Note_on_c, 0, 79, 64
2, 83625, Note_on_c, 0, 82, 64
2, 83625, Note_on_c, 0, 61, 64
2, 83625, Note_on_c, 0, 67, 64
2, 83625, Note_on_c, 0, 70, 64
2, 83745, Note_on_c, 0, 61, 0
2, 83745, Note_on_c, 0, 62, 64
2, 83850, Note_on_c, 0, 62, 0
2, 83850, Note_on_c, 0, 70, 0
2, 83850, Note_on_c, 0, 82, 0
2, 83850, Note_on_c, 0, 77, 0
2, 83850, Note_on_c, 0, 79, 0
2, 83850, Note_on_c, 0, 67, 0
2, 83865, Note_on_c, 0, 76, 64
2, 83865, Note_on_c, 0, 79, 64
2, 83865, Note_on_c, 0, 82, 64
2, 83865, Note_on_c, 0, 61, 64
2, 83865, Note_on_c, 0, 67, 64
2, 83865, Note_on_c, 0, 70, 64
2, 83970, Note_on_c, 0, 82, 0
2, 83985, Note_on_c, 0, 82, 64
2, 84037, Note_on_c, 0, 82, 0
2, 84045, Note_on_c, 0, 81, 64
2, 84097, Note_on_c, 0, 81, 0
2, 84105, Note_on_c, 0, 82, 64
2, 84157, Note_on_c, 0, 82, 0
2, 84157, Note_on_c, 0, 70, 0
2, 84157, Note_on_c, 0, 61, 0
2, 84157, Note_on_c, 0, 76, 0
2, 84157, Note_on_c, 0, 79, 0
2, 84157, Note_on_c, 0, 67, 0
2, 84165, Note_on_c, 0, 77, 64
2, 84165, Note_on_c, 0, 80, 64
2, 84165, Note_on_c, 0, 83, 64
2, 84165, Note_on_c, 0, 61, 64
2, 84165, Note_on_c, 0, 65, 64
2, 84165, Note_on_c, 0, 68, 64
2, 84217, Note_on_c, 0, 68, 0
2, 84217, Note_on_c, 0, 80, 0
2, 84217, Note_on_c, 0, 83, 0
2, 84217, Note_on_c, 0, 77, 0
2, 84217, Note_on_c, 0, 65, 0
2, 84217, Note_on_c, 0, 61, 0
2, 84225, Note_on_c, 0, 48, 64
2, 84225, Note_on_c, 0, 60, 64
2, 84255, Note_on_c, 0, 72, 64
2, 84281, Note_on_c, 0, 72, 0
2, 84285, Note_on_c, 0, 77, 64
2, 84311, Note_on_c, 0, 77, 0
2, 84315, Note_on_c, 0, 80, 64
2, 84341, Note_on_c, 0, 80, 0
2, 84345, Note_on_c, 0, 84, 64
2, 84450, Note_on_c, 0, 84, 0
2, 84495, Note_on_c, 0, 72, 64
2, 84521, Note_on_c, 0, 72, 0
2, 84525, Note_on_c, 0, 77, 64
2, 84551, Note_on_c, 0, 77, 0
2, 84555, Note_on_c, 0, 80, 64
2, 84570, Note_on_c, 0, 60, 0
2, 84570, Note_on_c, 0, 48, 0
2, 84581, Note_on_c, 0, 80, 0
2, 84585, Note_on_c, 0, 84, 64
2, 84585, Note_on_c, 0, 44, 64
2, 84585, Note_on_c, 0, 56, 64
2, 84611, Note_on_c, 0, 84, 0
2, 84637, Note_on_c, 0, 56, 0
2, 84637, Note_on_c, 0, 44, 0
2, 84645, Note_on_c, 0, 41, 64
2, 84645, Note_on_c, 0, 53, 64
2, 84697, Note_on_c, 0, 53, 0
2, 84697, Note_on_c, 0, 41, 0
2, 84705, Note_on_c, 0, 41, 64
2, 84705, Note_on_c, 0, 53, 64
2, 84735, Note_on_c, 0, 72, 64
2, 84761, Note_on_c, 0, 72, 0
2, 84765, Note_on_c, 0, 79, 64
2, 84791, Note_on_c, 0, 79, 0
2, 84795, Note_on_c, 0, 82, 64
2, 84810, Note_on_c, 0, 53, 0
2, 84810, Note_on_c, 0, 41, 0
2, 84821, Note_on_c, 0, 82, 0
2, 84825, Note_on_c, 0, 84, 64
2, 84825, Note_on_c, 0, 40, 64
2, 84825, Note_on_c, 0, 52, 64
2, 84877, Note_on_c, 0, 52, 0
2, 84877, Note_on_c, 0, 40, 0
2, 84915, Note_on_c, 0, 37, 64
2, 84915, Note_on_c, 0, 49, 64
2, 84930, Note_on_c, 0, 84, 0
2, 84941, Note_on_c, 0, 49, 0
2, 84941, Note_on_c, 0, 37, 0
2, 84945, Note_on_c, 0, 37, 64
2, 84945, Note_on_c, 0, 49, 64
2, 84975, Note_on_c, 0, 72, 64
2, 85001, Note_on_c, 0, 72, 0
2, 85005, Note_on_c, 0, 76, 64
2, 85031, Note_on_c, 0, 76, 0
2, 85035, Note_on_c, 0, 79, 64
2, 85050, Note_on_c, 0, 49, 0
2, 85050, Note_on_c, 0, 37, 0
2, 85061, Note_on_c, 0, 79, 0
2, 85065, Note_on_c, 0, 84, 64
2, 85065, Note_on_c, 0, 36, 64
2, 85065, Note_on_c, 0, 48, 64
2, 85117, Note_on_c, 0, 48, 0
2, 85117, Note_on_c, 0, 36, 0
2, 85155, Note_on_c, 0, 46, 64
2, 85155, Note_on_c, 0, 58, 64
2, 85170, Note_on_c, 0, 84, 0
2, 85181, Note_on_c, 0, 58, 0
2, 85181, Note_on_c, 0, 46, 0
2, 85185, Note_on_c, 0, 46, 64
2, 85185, Note_on_c, 0, 58, 64
2, 85215, Note_on_c, 0, 72, 64
2, 85241, Note_on_c, 0, 72, 0
2, 85245, Note_on_c, 0, 77, 64
2, 85271, Note_on_c, 0, 77, 0
2, 85275, Note_on_c, 0, 80, 64
2, 85290, Note_on_c, 0, 58, 0
2, 85290, Note_on_c, 0, 46, 0
2, 85301, Note_on_c, 0, 80, 0
2, 85305, Note_on_c, 0, 84, 64
2, 85305, Note_on_c, 0, 44, 64
2, 85305, Note_on_c, 0, 56, 64
2, 85331, Note_on_c, 0, 84, 0
2, 85335, Note_on_c, 0, 88, 64
2, 85361, Note_on_c, 0, 88, 0
2, 85365, Note_on_c, 0, 89, 64
2, 85391, Note_on_c, 0, 89, 0
2, 85395, Note_on_c, 0, 84, 64
2, 85410, Note_on_c, 0, 56, 0
2, 85410, Note_on_c, 0, 44, 0
2, 85421, Note_on_c, 0, 84, 0
2, 85425, Note_on_c, 0, 87, 64
2, 85442, Note_on_c, 0, 87, 0
2, 85444, Note_on_c, 0, 85, 64
2, 85462, Note_on_c, 0, 85, 0
2, 85464, Note_on_c, 0, 82, 64
2, 85482, Note_on_c, 0, 82, 0
2, 85484, Note_on_c, 0, 85, 64
2, 85502, Note_on_c, 0, 85, 0
2, 85504, Note_on_c, 0, 84, 64
2, 85522, Note_on_c, 0, 84, 0
2, 85524, Note_on_c, 0, 80, 64
2, 85542, Note_on_c, 0, 80, 0
2, 85545, Note_on_c, 0, 84, 64
2, 85562, Note_on_c, 0, 84, 0
2, 85564, Note_on_c, 0, 82, 64
2, 85582, Note_on_c, 0, 82, 0
2, 85584, Note_on_c, 0, 79, 64
2, 85602, Note_on_c, 0, 79, 0
2, 85604, Note_on_c, 0, 82, 64
2, 85622, Note_on_c, 0, 82, 0
2, 85624, Note_on_c, 0, 80, 64
2, 85642, Note_on_c, 0, 80, 0
2, 85644, Note_on_c, 0, 77, 64
2, 85662, Note_on_c, 0, 77, 0
2, 85665, Note_on_c, 0, 77, 64
2, 85665, Note_on_c, 0, 70, 64
2, 85665, Note_on_c, 0, 48, 64
2, 85665, Note_on_c, 0, 55, 64
2, 85665, Note_on_c, 0, 60, 64
2, 85685, Note_on_c, 0, 77, 0
2, 85688, Note_on_c, 0, 76, 64
2, 85710, Note_on_c, 0, 76, 0
2, 85712, Note_on_c, 0, 77, 64
2, 85734, Note_on_c, 0, 77, 0
2, 85736, Note_on_c, 0, 79, 64
2, 85758, Note_on_c, 0, 79, 0
2, 85760, Note_on_c, 0, 77, 64
2, 85781, Note_on_c, 0, 77, 0
2, 85785, Note_on_c, 0, 76, 64
2, 85830, Note_on_c, 0, 55, 0
2, 85830, Note_on_c, 0, 60, 0
2, 85830, Note_on_c, 0, 70, 0
2, 85830, Note_on_c, 0, 48, 0
2, 85837, Note_on_c, 0, 76, 0
2, 85845, Note_on_c, 0, 48, 64
2, 85845, Note_on_c, 0, 53, 64
2, 85845, Note_on_c, 0, 60, 64
2, 85871, Note_on_c, 0, 60, 0
2, 85871, Note_on_c, 0, 53, 0
2, 85871, Note_on_c, 0, 48, 0
2, 85875, Note_on_c, 0, 73, 64
2, 85875, Note_on_c, 0, 68, 64
2, 85875, Note_on_c, 0, 48, 64
2, 85875, Note_on_c, 0, 52, 64
2, 85875, Note_on_c, 0, 60, 64
2, 85901, Note_on_c, 0, 68, 0
2, 85901, Note_on_c, 0, 73, 0
2, 85905, Note_on_c, 0, 73, 64
2, 85905, Note_on_c, 0, 67, 64
2, 85925, Note_on_c, 0, 73, 0
2, 85928, Note_on_c, 0, 72, 64
2, 85950, Note_on_c, 0, 72, 0
2, 85952, Note_on_c, 0, 73, 64
2, 85974, Note_on_c, 0, 73, 0
2, 85976, Note_on_c, 0, 75, 64
2, 85998, Note_on_c, 0, 75, 0
2, 86000, Note_on_c, 0, 73, 64
2, 86021, Note_on_c, 0, 73, 0
2, 86025, Note_on_c, 0, 72, 64
2, 86040, Note_on_c, 0, 52, 0
2, 86040, Note_on_c, 0, 60, 0
2, 86040, Note_on_c, 0, 48, 0
2, 86055, Note_on_c, 0, 52, 64
2, 86055, Note_on_c, 0, 55, 64
2, 86055, Note_on_c, 0, 60, 64
2, 86070, Note_on_c, 0, 67, 0
2, 86077, Note_on_c, 0, 72, 0
2, 86081, Note_on_c, 0, 55, 0
2, 86081, Note_on_c, 0, 52, 0
2, 86081, Note_on_c, 0, 60, 0
2, 86115, Note_on_c, 0, 82, 64
2, 86141, Note_on_c, 0, 82, 0
2, 86145, Note_on_c, 0, 82, 64
2, 86145, Note_on_c, 0, 53, 64
2, 86145, Note_on_c, 0, 56, 64
2, 86145, Note_on_c, 0, 60, 64
2, 86165, Note_on_c, 0, 82, 0
2, 86168, Note_on_c, 0, 80, 64
2, 86190, Note_on_c, 0, 80, 0
2, 86192, Note_on_c, 0, 82, 64
2, 86197, Note_on_c, 0, 60, 0
2, 86197, Note_on_c, 0, 53, 0
2, 86197, Note_on_c, 0, 56, 0
2, 86205, Note_on_c, 0, 53, 64
2, 86205, Note_on_c, 0, 56, 64
2, 86205, Note_on_c, 0, 60, 64
2, 86214, Note_on_c, 0, 82, 0
2, 86216, Note_on_c, 0, 84, 64
2, 86238, Note_on_c, 0, 84, 0
2, 86240, Note_on_c, 0, 82, 64
2, 86257, Note_on_c, 0, 60, 0
2, 86257, Note_on_c, 0, 53, 0
2, 86257, Note_on_c, 0, 56, 0
2, 86261, Note_on_c, 0, 82, 0
2, 86265, Note_on_c, 0, 80, 64
2, 86317, Note_on_c, 0, 80, 0
2, 86325, Note_on_c, 0, 84, 64
2, 86325, Note_on_c, 0, 54, 64
2, 86325, Note_on_c, 0, 57, 64
2, 86325, Note_on_c, 0, 63, 64
2, 86377, Note_on_c, 0, 63, 0
2, 86377, Note_on_c, 0, 84, 0
2, 86377, Note_on_c, 0, 54, 0
2, 86377, Note_on_c, 0, 57, 0
2, 86385, Note_on_c, 0, 84, 64
2, 86385, Note_on_c, 0, 55, 64
2, 86385, Note_on_c, 0, 59, 64
2, 86385, Note_on_c, 0, 62, 64
2, 86405, Note_on_c, 0, 84, 0
2, 86408, Note_on_c, 0, 83, 64
2, 86430, Note_on_c, 0, 83, 0
2, 86432, Note_on_c, 0, 84, 64
2, 86437, Note_on_c, 0, 62, 0
2, 86437, Note_on_c, 0, 55, 0
2, 86437, Note_on_c, 0, 59, 0
2, 86445, Note_on_c, 0, 55, 64
2, 86445, Note_on_c, 0, 59, 64
2, 86445, Note_on_c, 0, 62, 64
2, 86454, Note_on_c, 0, 84, 0
2, 86456, Note_on_c, 0, 86, 64
2, 86478, Note_on_c, 0, 86, 0
2, 86480, Note_on_c, 0, 84, 64
2, 86497, Note_on_c, 0, 62, 0
2, 86497, Note_on_c, 0, 55, 0
2, 86497, Note_on_c, 0, 59, 0
2, 86501, Note_on_c, 0, 84, 0
2, 86505, Note_on_c, 0, 83, 64
2, 86557, Note_on_c, 0, 83, 0
2, 86565, Note_on_c, 0, 86, 64
2, 86565, Note_on_c, 0, 55, 64
2, 86565, Note_on_c, 0, 59, 64
2, 86565, Note_on_c, 0, 65, 64
2, 86617, Note_on_c, 0, 65, 0
2, 86617, Note_on_c, 0, 86, 0
2, 86617, Note_on_c, 0, 55, 0
2, 86617, Note_on_c, 0, 59, 0
2, 86625, Note_on_c, 0, 86, 64
2, 86625, Note_on_c, 0, 56, 64
2, 86625, Note_on_c, 0, 60, 64
2, 86625, Note_on_c, 0, 63, 64
2, 86645, Note_on_c, 0, 86, 0
2, 86648, Note_on_c, 0, 84, 64
2, 86670, Note_on_c, 0, 84, 0
2, 86672, Note_on_c, 0, 86, 64
2, 86677, Note_on_c, 0, 63, 0
2, 86677, Note_on_c, 0, 56, 0
2, 86677, Note_on_c, 0, 60, 0
2, 86685, Note_on_c, 0, 56, 64
2, 86685, Note_on_c, 0, 60, 64
2, 86685, Note_on_c, 0, 63, 64
2, 86694, Note_on_c, 0, 86, 0
2, 86696, Note_on_c, 0, 87, 64
2, 86718, Note_on_c, 0, 87, 0
2, 86720, Note_on_c, 0, 86, 64
2, 86737, Note_on_c, 0, 63, 0
2, 86737, Note_on_c, 0, 56, 0
2, 86737, Note_on_c, 0, 60, 0
2, 86741, Note_on_c, 0, 86, 0
2, 86745, Note_on_c, 0, 84, 64
2, 86797, Note_on_c, 0, 84, 0
2, 86805, Note_on_c, 0, 87, 64
2, 86805, Note_on_c, 0, 57, 64
2, 86805, Note_on_c, 0, 60, 64
2, 86805, Note_on_c, 0, 65, 64
2, 86857, Note_on_c, 0, 65, 0
2, 86857, Note_on_c, 0, 87, 0
2, 86857, Note_on_c, 0, 57, 0
2, 86857, Note_on_c, 0, 60, 0
2, 86865, Note_on_c, 0, 87, 64
2, 86865, Note_on_c, 0, 58, 64
2, 86865, Note_on_c, 0, 62, 64
2, 86865, Note_on_c, 0, 65, 64
2, 86885, Note_on_c, 0, 87, 0
2, 86888, Note_on_c, 0, 86, 64
2, 86910, Note_on_c, 0, 86, 0
2, 86912, Note_on_c, 0, 87, 64
2, 86917, Note_on_c, 0, 65, 0
2, 86917, Note_on_c, 0, 58, 0
2, 86917, Note_on_c, 0, 62, 0
2, 86925, Note_on_c, 0, 58, 64
2, 86925, Note_on_c, 0, 62, 64
2, 86925, Note_on_c, 0, 65, 64
2, 86934, Note_on_c, 0, 87, 0
2, 86936, Note_on_c, 0, 89, 64
2, 86958, Note_on_c, 0, 89, 0
2, 86960, Note_on_c, 0, 87, 64
2, 86977, Note_on_c, 0, 65, 0
2, 86977, Note_on_c, 0, 58, 0
2, 86977, Note_on_c, 0, 62, 0
2, 86981, Note_on_c, 0, 87, 0
2, 86985, Note_on_c, 0, 86, 64
2, 87037, Note_on_c, 0, 86, 0
2, 87045, Note_on_c, 0, 89, 64
2, 87045, Note_on_c, 0, 59, 64
2, 87045, Note_on_c, 0, 62, 64
2, 87045, Note_on_c, 0, 67, 64
2, 87097, Note_on_c, 0, 67, 0
2, 87097, Note_on_c, 0, 89, 0
2, 87097, Note_on_c, 0, 59, 0
2, 87097, Note_on_c, 0, 62, 0
2, 87105, Note_on_c, 0, 89, 64
2, 87105, Note_on_c, 0, 60, 64
2, 87105, Note_on_c, 0, 63, 64
2, 87105, Note_on_c, 0, 67, 64
2, 87125, Note_on_c, 0, 89, 0
2, 87128, Note_on_c, 0, 87, 64
2, 87150, Note_on_c, 0, 87, 0
2, 87152, Note_on_c, 0, 89, 64
2, 87157, Note_on_c, 0, 67, 0
2, 87157, Note_on_c, 0, 60, 0
2, 87157, Note_on_c, 0, 63, 0
2, 87165, Note_on_c, 0, 60, 64
2, 87165, Note_on_c, 0, 63, 64
2, 87165, Note_on_c, 0, 67, 64
2, 87174, Note_on_c, 0, 89, 0
2, 87176, Note_on_c, 0, 91, 64
2, 87198, Note_on_c, 0, 91, 0
2, 87200, Note_on_c, 0, 89, 64
2, 87217, Note_on_c, 0, 67, 0
2, 87217, Note_on_c, 0, 60, 0
2, 87217, Note_on_c, 0, 63, 0
2, 87221, Note_on_c, 0, 89, 0
2, 87225, Note_on_c, 0, 87, 64
2, 87277, Note_on_c, 0, 87, 0
2, 87285, Note_on_c, 0, 91, 64
2, 87285, Note_on_c, 0, 60, 64
2, 87285, Note_on_c, 0, 63, 64
2, 87285, Note_on_c, 0, 67, 64
2, 87337, Note_on_c, 0, 67, 0
2, 87337, Note_on_c, 0, 91, 0
2, 87337, Note_on_c, 0, 60, 0
2, 87337, Note_on_c, 0, 63, 0
2, 87345, Note_on_c, 0, 91, 64
2, 87345, Note_on_c, 0, 62, 64
2, 87345, Note_on_c, 0, 65, 64
2, 87345, Note_on_c, 0, 68, 64
2, 87345, Note_on_c, 0, 71, 64
2, 87365, Note_on_c, 0, 91, 0
2, 87368, Note_on_c, 0, 89, 64
2, 87390, Note_on_c, 0, 89, 0
2, 87392, Note_on_c, 0, 91, 64
2, 87397, Note_on_c, 0, 71, 0
2, 87397, Note_on_c, 0, 68, 0
2, 87397, Note_on_c, 0, 62, 0
2, 87397, Note_on_c, 0, 65, 0
2, 87405, Note_on_c, 0, 62, 64
2, 87405, Note_on_c, 0, 65, 64
2, 87405, Note_on_c, 0, 68, 64
2, 87405, Note_on_c, 0, 71, 64
2, 87414, Note_on_c, 0, 91, 0
2, 87416, Note_on_c, 0, 92, 64
2, 87438, Note_on_c, 0, 92, 0
2, 87440, Note_on_c, 0, 91, 64
2, 87457, Note_on_c, 0, 71, 0
2, 87457, Note_on_c, 0, 68, 0
2, 87457, Note_on_c, 0, 62, 0
2, 87457, Note_on_c, 0, 65, 0
2, 87461, Note_on_c, 0, 91, 0
2, 87465, Note_on_c, 0, 89, 64
2, 87517, Note_on_c, 0, 89, 0
2, 87525, Note_on_c, 0, 92, 64
2, 87525, Note_on_c, 0, 62, 64
2, 87525, Note_on_c, 0, 65, 64
2, 87525, Note_on_c, 0, 68, 64
2, 87525, Note_on_c, 0, 71, 64
2, 87577, Note_on_c, 0, 71, 0
2, 87577, Note_on_c, 0, 65, 0
2, 87577, Note_on_c, 0, 92, 0
2, 87577, Note_on_c, 0, 62, 0
2, 87577, Note_on_c, 0, 68, 0
2, 87585, Note_on_c, 0, 92, 64
2, 87585, Note_on_c, 0, 63, 64
2, 87585, Note_on_c, 0, 67, 64
2, 87585, Note_on_c, 0, 72, 64
2, 87605, Note_on_c, 0, 92, 0
2, 87608, Note_on_c, 0, 91, 64
2, 87630, Note_on_c, 0, 91, 0
2, 87632, Note_on_c, 0, 92, 64
2, 87637, Note_on_c, 0, 72, 0
2, 87637, Note_on_c, 0, 63, 0
2, 87637, Note_on_c, 0, 67, 0
2, 87645, Note_on_c, 0, 63, 64
2, 87645, Note_on_c, 0, 67, 64
2, 87645, Note_on_c, 0, 72, 64
2, 87654, Note_on_c, 0, 92, 0
2, 87656, Note_on_c, 0, 94, 64
2, 87678, Note_on_c, 0, 94, 0
2, 87680, Note_on_c, 0, 92, 64
2, 87697, Note_on_c, 0, 72, 0
2, 87697, Note_on_c, 0, 63, 0
2, 87697, Note_on_c, 0, 67, 0
2, 87701, Note_on_c, 0, 92, 0
2, 87705, Note_on_c, 0, 91, 64
2, 87757, Note_on_c, 0, 91, 0
2, 87765, Note_on_c, 0, 94, 64
2, 87765, Note_on_c, 0, 64, 64
2, 87765, Note_on_c, 0, 67, 64
2, 87765, Note_on_c, 0, 72, 64
2, 87817, Note_on_c, 0, 72, 0
2, 87817, Note_on_c, 0, 94, 0
2, 87817, Note_on_c, 0, 64, 0
2, 87817, Note_on_c, 0, 67, 0
2, 87825, Note_on_c, 0, 94, 64
2, 87825, Note_on_c, 0, 65, 64
2, 87825, Note_on_c, 0, 68, 64
2, 87825, Note_on_c, 0, 72, 64
2, 87845, Note_on_c, 0, 94, 0
2, 87848, Note_on_c, 0, 92, 64
2, 87870, Note_on_c, 0, 92, 0
2, 87872, Note_on_c, 0, 94, 64
2, 87877, Note_on_c, 0, 72, 0
2, 87877, Note_on_c, 0, 65, 0
2, 87877, Note_on_c, 0, 68, 0
2, 87885, Note_on_c, 0, 65, 64
2, 87885, Note_on_c, 0, 68, 64
2, 87885, Note_on_c, 0, 72, 64
2, 87894, Note_on_c, 0, 94, 0
2, 87896, Note_on_c, 0, 96, 64
2, 87918, Note_on_c, 0, 96, 0
2, 87920, Note_on_c, 0, 94, 64
2, 87937, Note_on_c, 0, 72, 0
2, 87937, Note_on_c, 0, 65, 0
2, 87937, Note_on_c, 0, 68, 0
2, 87941, Note_on_c, 0, 94, 0
2, 87945, Note_on_c, 0, 92, 64
2, 87997, Note_on_c, 0, 92, 0
2, 88005, Note_on_c, 0, 95, 64
2, 88005, Note_on_c, 0, 65, 64
2, 88005, Note_on_c, 0, 68, 64
2, 88005, Note_on_c, 0, 74, 64
2, 88057, Note_on_c, 0, 74, 0
2, 88057, Note_on_c, 0, 95, 0
2, 88057, Note_on_c, 0, 65, 0
2, 88057, Note_on_c, 0, 68, 0
2, 88065, Note_on_c, 0, 96, 64
2, 88065, Note_on_c, 0, 65, 64
2, 88065, Note_on_c, 0, 68, 64
2, 88065, Note_on_c, 0, 75, 64
2, 88095, Note_on_c, 0, 96, 0
2, 88095, Note_on_c, 0, 99, 64
2, 88117, Note_on_c, 0, 65, 0
2, 88117, Note_on_c, 0, 75, 0
2, 88117, Note_on_c, 0, 68, 0
2, 88121, Note_on_c, 0, 99, 0
2, 88125, Note_on_c, 0, 93, 64
2, 88125, Note_on_c, 0, 81, 64
2, 88155, Note_on_c, 0, 81, 0
2, 88155, Note_on_c, 0, 93, 0
2, 88155, Note_on_c, 0, 96, 64
2, 88155, Note_on_c, 0, 84, 64
2, 88181, Note_on_c, 0, 84, 0
2, 88181, Note_on_c, 0, 96, 0
2, 88185, Note_on_c, 0, 90, 64
2, 88185, Note_on_c, 0, 78, 64
2, 88215, Note_on_c, 0, 78, 0
2, 88215, Note_on_c, 0, 90, 0
2, 88215, Note_on_c, 0, 93, 64
2, 88215, Note_on_c, 0, 81, 64
2, 88241, Note_on_c, 0, 81, 0
2, 88241, Note_on_c, 0, 93, 0
2, 88245, Note_on_c, 0, 87, 64
2, 88245, Note_on_c, 0, 75, 64
2, 88275, Note_on_c, 0, 75, 0
2, 88275, Note_on_c, 0, 87, 0
2, 88275, Note_on_c, 0, 90, 64
2, 88275, Note_on_c, 0, 78, 64
2, 88301, Note_on_c, 0, 78, 0
2, 88301, Note_on_c, 0, 90, 0
2, 88305, Note_on_c, 0, 84, 64
2, 88305, Note_on_c, 0, 72, 64
2, 88335, Note_on_c, 0, 72, 0
2, 88335, Note_on_c, 0, 84, 0
2, 88335, Note_on_c, 0, 87, 64
2, 88335, Note_on_c, 0, 75, 64
2, 88361, Note_on_c, 0, 75, 0
2, 88361, Note_on_c, 0, 87, 0
2, 88365, Note_on_c, 0, 81, 64
2, 88365, Note_on_c, 0, 69, 64
2, 88395, Note_on_c, 0, 69, 0
2, 88395, Note_on_c, 0, 81, 0
2, 88395, Note_on_c, 0, 84, 64
2, 88395, Note_on_c, 0, 72, 64
2, 88421, Note_on_c, 0, 72, 0
2, 88421, Note_on_c, 0, 84, 0
2, 88425, Note_on_c, 0, 78, 64
2, 88425, Note_on_c, 0, 66, 64
2, 88455, Note_on_c, 0, 66, 0
2, 88455, Note_on_c, 0, 78, 0
2, 88455, Note_on_c, 0, 81, 64
2, 88455, Note_on_c, 0, 69, 64
2, 88481, Note_on_c, 0, 69, 0
2, 88481, Note_on_c, 0, 81, 0
2, 88485, Note_on_c, 0, 75, 64
2, 88485, Note_on_c, 0, 63, 64
2, 88515, Note_on_c, 0, 63, 0
2, 88515, Note_on_c, 0, 75, 0
2, 88515, Note_on_c, 0, 78, 64
2, 88515, Note_on_c, 0, 66, 64
2, 88541, Note_on_c, 0, 66, 0
2, 88541, Note_on_c, 0, 78, 0
2, 88545, Note_on_c, 0, 74, 64
2, 88545, Note_on_c, 0, 62, 64
2, 88575, Note_on_c, 0, 62, 0
2, 88575, Note_on_c, 0, 74, 0
2, 88575, Note_on_c, 0, 77, 64
2, 88575, Note_on_c, 0, 65, 64
2, 88601, Note_on_c, 0, 65, 0
2, 88601, Note_on_c, 0, 77, 0
2, 88605, Note_on_c, 0, 71, 64
2, 88605, Note_on_c, 0, 59, 64
2, 88635, Note_on_c, 0, 59, 0
2, 88635, Note_on_c, 0, 71, 0
2, 88635, Note_on_c, 0, 74, 64
2, 88635, Note_on_c, 0, 62, 64
2, 88661, Note_on_c, 0, 62, 0
2, 88661, Note_on_c, 0, 74, 0
2, 88665, Note_on_c, 0, 68, 64
2, 88665, Note_on_c, 0, 56, 64
2, 88695, Note_on_c, 0, 56, 0
2, 88695, Note_on_c, 0, 68, 0
2, 88695, Note_on_c, 0, 71, 64
2, 88695, Note_on_c, 0, 59, 64
2, 88721, Note_on_c, 0, 59, 0
2, 88721, Note_on_c, 0, 71, 0
2, 88725, Note_on_c, 0, 65, 64
2, 88725, Note_on_c, 0, 53, 64
2, 88751, Note_on_c, 0, 53, 0
2, 88755, Note_on_c, 0, 65, 0
2, 88755, Note_on_c, 0, 68, 64
2, 88755, Note_on_c, 0, 56, 64
2, 88781, Note_on_c, 0, 56, 0
2, 88781, Note_on_c, 0, 68, 0
2, 88785, Note_on_c, 0, 62, 64
2, 88785, Note_on_c, 0, 50, 64
2, 88815, Note_on_c, 0, 50, 0
2, 88815, Note_on_c, 0, 62, 0
2, 88815, Note_on_c, 0, 65, 64
2, 88815, Note_on_c, 0, 53, 64
2, 88841, Note_on_c, 0, 53, 0
2, 88841, Note_on_c, 0, 65, 0
2, 88845, Note_on_c, 0, 59, 64
2, 88845, Note_on_c, 0, 47, 64
2, 88875, Note_on_c, 0, 47, 0
2, 88875, Note_on_c, 0, 59, 0
2, 88875, Note_on_c, 0, 62, 64
2, 88875, Note_on_c, 0, 50, 64
2, 88901, Note_on_c, 0, 50, 0
2, 88901, Note_on_c, 0, 62, 0
2, 88905, Note_on_c, 0, 56, 64
2, 88905, Note_on_c, 0, 44, 64
2, 88935, Note_on_c, 0, 44, 0
2, 88935, Note_on_c, 0, 56, 0
2, 88935, Note_on_c, 0, 59, 64
2, 88935, Note_on_c, 0, 47, 64
2, 88961, Note_on_c, 0, 47, 0
2, 88961, Note_on_c, 0, 59, 0
2, 88965, Note_on_c, 0, 56, 64
2, 88965, Note_on_c, 0, 44, 64
2, 88995, Note_on_c, 0, 44, 0
2, 88995, Note_on_c, 0, 56, 0
2, 88995, Note_on_c, 0, 59, 64
2, 88995, Note_on_c, 0, 47, 64
2, 89021, Note_on_c, 0, 47, 0
2, 89021, Note_on_c, 0, 59, 0
2, 89025, Note_on_c, 0, 55, 64
2, 89025, Note_on_c, 0, 43, 64
2, 89051, Note_on_c, 0, 43, 0
2, 89051, Note_on_c, 0, 55, 0
2, 89055, Note_on_c, 0, 59, 64
2, 89055, Note_on_c, 0, 47, 64
2, 89081, Note_on_c, 0, 47, 0
2, 89081, Note_on_c, 0, 59, 0
2, 89085, Note_on_c, 0, 60, 64
2, 89085, Note_on_c, 0, 48, 64
2, 89111, Note_on_c, 0, 48, 0
2, 89111, Note_on_c, 0, 60, 0
2, 89115, Note_on_c, 0, 62, 64
2, 89115, Note_on_c, 0, 50, 64
2, 89141, Note_on_c, 0, 50, 0
2, 89141, Note_on_c, 0, 62, 0
2, 89145, Note_on_c, 0, 63, 64
2, 89145, Note_on_c, 0, 51, 64
2, 89171, Note_on_c, 0, 51, 0
2, 89171, Note_on_c, 0, 63, 0
2, 89175, Note_on_c, 0, 65, 64
2, 89175, Note_on_c, 0, 53, 64
2, 89201, Note_on_c, 0, 53, 0
2, 89201, Note_on_c, 0, 65, 0
2, 89205, Note_on_c, 0, 67, 64
2, 89205, Note_on_c, 0, 55, 64
2, 89231, Note_on_c, 0, 55, 0
2, 89231, Note_on_c, 0, 67, 0
2, 89235, Note_on_c, 0, 68, 64
2, 89235, Note_on_c, 0, 56, 64
2, 89261, Note_on_c, 0, 56, 0
2, 89261, Note_on_c, 0, 68, 0
2, 89265, Note_on_c, 0, 71, 64
2, 89265, Note_on_c, 0, 59, 64
2, 89291, Note_on_c, 0, 59, 0
2, 89291, Note_on_c, 0, 71, 0
2, 89295, Note_on_c, 0, 72, 64
2, 89295, Note_on_c, 0, 60, 64
2, 89321, Note_on_c, 0, 60, 0
2, 89321, Note_on_c, 0, 72, 0
2, 89325, Note_on_c, 0, 74, 64
2, 89325, Note_on_c, 0, 62, 64
2, 89351, Note_on_c, 0, 62, 0
2, 89351, Note_on_c, 0, 74, 0
2, 89355, Note_on_c, 0, 75, 64
2, 89355, Note_on_c, 0, 63, 64
2, 89381, Note_on_c, 0, 63, 0
2, 89381, Note_on_c, 0, 75, 0
2, 89385, Note_on_c, 0, 77, 64
2, 89385, Note_on_c, 0, 65, 64
2, 89411, Note_on_c, 0, 65, 0
2, 89411, Note_on_c, 0, 77, 0
2, 89415, Note_on_c, 0, 78, 64
2, 89415, Note_on_c, 0, 66, 64
2, 89441, Note_on_c, 0, 66, 0
2, 89441, Note_on_c, 0, 78, 0
2, 89445, Note_on_c, 0, 79, 64
2, 89445, Note_on_c, 0, 67, 64
2, 89471, Note_on_c, 0, 79, 0
2, 89475, Note_on_c, 0, 78, 64
2, 89497, Note_on_c, 0, 67, 0
2, 89501, Note_on_c, 0, 78, 0
2, 89505, Note_on_c, 0, 80, 64
2, 89505, Note_on_c, 0, 36, 64
2, 89505, Note_on_c, 0, 48, 64
2, 89531, Note_on_c, 0, 80, 0
2, 89535, Note_on_c, 0, 79, 64
2, 89561, Note_on_c, 0, 79, 0
2, 89565, Note_on_c, 0, 75, 64
2, 89591, Note_on_c, 0, 75, 0
2, 89595, Note_on_c, 0, 72, 64
2, 89610, Note_on_c, 0, 48, 0
2, 89610, Note_on_c, 0, 36, 0
2, 89621, Note_on_c, 0, 72, 0
2, 89625, Note_on_c, 0, 80, 64
2, 89625, Note_on_c, 0, 39, 64
2, 89625, Note_on_c, 0, 51, 64
2, 89651, Note_on_c, 0, 80, 0
2, 89655, Note_on_c, 0, 79, 64
2, 89681, Note_on_c, 0, 79, 0
2, 89685, Note_on_c, 0, 75, 64
2, 89711, Note_on_c, 0, 75, 0
2, 89715, Note_on_c, 0, 72, 64
2, 89730, Note_on_c, 0, 51, 0
2, 89730, Note_on_c, 0, 39, 0
2, 89741, Note_on_c, 0, 72, 0
2, 89745, Note_on_c, 0, 80, 64
2, 89745, Note_on_c, 0, 35, 64
2, 89745, Note_on_c, 0, 47, 64
2, 89771, Note_on_c, 0, 80, 0
2, 89775, Note_on_c, 0, 79, 64
2, 89801, Note_on_c, 0, 79, 0
2, 89805, Note_on_c, 0, 77, 64
2, 89831, Note_on_c, 0, 77, 0
2, 89835, Note_on_c, 0, 74, 64
2, 89861, Note_on_c, 0, 74, 0
2, 89865, Note_on_c, 0, 80, 64
2, 89891, Note_on_c, 0, 80, 0
2, 89895, Note_on_c, 0, 79, 64
2, 89921, Note_on_c, 0, 79, 0
2, 89925, Note_on_c, 0, 77, 64
2, 89951, Note_on_c, 0, 77, 0
2, 89955, Note_on_c, 0, 74, 64
2, 89970, Note_on_c, 0, 47, 0
2, 89970, Note_on_c, 0, 35, 0
2, 89981, Note_on_c, 0, 74, 0
2, 89985, Note_on_c, 0, 85, 64
2, 89985, Note_on_c, 0, 35, 64
2, 89985, Note_on_c, 0, 47, 64
2, 90011, Note_on_c, 0, 85, 0
2, 90015, Note_on_c, 0, 84, 64
2, 90041, Note_on_c, 0, 84, 0
2, 90045, Note_on_c, 0, 79, 64
2, 90071, Note_on_c, 0, 79, 0
2, 90075, Note_on_c, 0, 76, 64
2, 90090, Note_on_c, 0, 47, 0
2, 90090, Note_on_c, 0, 35, 0
2, 90101, Note_on_c, 0, 76, 0
2, 90105, Note_on_c, 0, 85, 64
2, 90105, Note_on_c, 0, 36, 64
2, 90105, Note_on_c, 0, 48, 64
2, 90131, Note_on_c, 0, 85, 0
2, 90135, Note_on_c, 0, 84, 64
2, 90161, Note_on_c, 0, 84, 0
2, 90165, Note_on_c, 0, 79, 64
2, 90191, Note_on_c, 0, 79, 0
2, 90195, Note_on_c, 0, 76, 64
2, 90210, Note_on_c, 0, 48, 0
2, 90210, Note_on_c, 0, 36, 0
2, 90221, Note_on_c, 0, 76, 0
2, 90225, Note_on_c, 0, 91, 64
2, 90225, Note_on_c, 0, 33, 64
2, 90225, Note_on_c, 0, 45, 64
2, 90251, Note_on_c, 0, 91, 0
2, 90255, Note_on_c, 0, 89, 64
2, 90281, Note_on_c, 0, 89, 0
2, 90285, Note_on_c, 0, 84, 64
2, 90311, Note_on_c, 0, 84, 0
2, 90315, Note_on_c, 0, 77, 64
2, 90341, Note_on_c, 0, 77, 0
2, 90345, Note_on_c, 0, 91, 64
2, 90371, Note_on_c, 0, 91, 0
2, 90375, Note_on_c, 0, 89, 64
2, 90401, Note_on_c, 0, 89, 0
2, 90405, Note_on_c, 0, 84, 64
2, 90431, Note_on_c, 0, 84, 0
2, 90435, Note_on_c, 0, 77, 64
2, 90450, Note_on_c, 0, 45, 0
2, 90450, Note_on_c, 0, 33, 0
2, 90461, Note_on_c, 0, 77, 0
2, 90465, Note_on_c, 0, 91, 64
2, 90465, Note_on_c, 0, 32, 64
2, 90465, Note_on_c, 0, 44, 64
2, 90491, Note_on_c, 0, 91, 0
2, 90495, Note_on_c, 0, 90, 64
2, 90521, Note_on_c, 0, 90, 0
2, 90525, Note_on_c, 0, 87, 64
2, 90551, Note_on_c, 0, 87, 0
2, 90555, Note_on_c, 0, 84, 64
2, 90570, Note_on_c, 0, 44, 0
2, 90570, Note_on_c, 0, 32, 0
2, 90581, Note_on_c, 0, 84, 0
2, 90585, Note_on_c, 0, 91, 64
2, 90585, Note_on_c, 0, 36, 64
2, 90585, Note_on_c, 0, 48, 64
2, 90611, Note_on_c, 0, 91, 0
2, 90615, Note_on_c, 0, 90, 64
2, 90641, Note_on_c, 0, 90, 0
2, 90645, Note_on_c, 0, 87, 64
2, 90671, Note_on_c, 0, 87, 0
2, 90675, Note_on_c, 0, 84, 64
2, 90690, Note_on_c, 0, 48, 0
2, 90690, Note_on_c, 0, 36, 0
2, 90701, Note_on_c, 0, 84, 0
2, 90705, Note_on_c, 0, 92, 64
2, 90705, Note_on_c, 0, 31, 64
2, 90705, Note_on_c, 0, 43, 64
2, 90731, Note_on_c, 0, 92, 0
2, 90735, Note_on_c, 0, 91, 64
2, 90761, Note_on_c, 0, 91, 0
2, 90765, Note_on_c, 0, 87, 64
2, 90791, Note_on_c, 0, 87, 0
2, 90795, Note_on_c, 0, 84, 64
2, 90810, Note_on_c, 0, 43, 0
2, 90810, Note_on_c, 0, 31, 0
2, 90821, Note_on_c, 0, 84, 0
2, 90825, Note_on_c, 0, 89, 64
2, 90825, Note_on_c, 0, 36, 64
2, 90825, Note_on_c, 0, 48, 64
2, 90851, Note_on_c, 0, 89, 0
2, 90855, Note_on_c, 0, 87, 64
2, 90881, Note_on_c, 0, 87, 0
2, 90885, Note_on_c, 0, 84, 64
2, 90903, Note_on_c, 0, 48, 0
2, 90903, Note_on_c, 0, 36, 0
2, 90911, Note_on_c, 0, 84, 0
2, 90915, Note_on_c, 0, 79, 64
2, 90915, Note_on_c, 0, 39, 64
2, 90915, Note_on_c, 0, 51, 64
2, 90941, Note_on_c, 0, 51, 0
2, 90941, Note_on_c, 0, 39, 0
2, 90941, Note_on_c, 0, 79, 0
2, 90945, Note_on_c, 0, 89, 64
2, 90945, Note_on_c, 0, 43, 64
2, 90945, Note_on_c, 0, 55, 64
2, 90971, Note_on_c, 0, 89, 0
2, 90975, Note_on_c, 0, 87, 64
2, 91001, Note_on_c, 0, 87, 0
2, 91005, Note_on_c, 0, 84, 64
2, 91031, Note_on_c, 0, 84, 0
2, 91035, Note_on_c, 0, 79, 64
2, 91050, Note_on_c, 0, 55, 0
2, 91050, Note_on_c, 0, 43, 0
2, 91061, Note_on_c, 0, 79, 0
2, 91065, Note_on_c, 0, 87, 64
2, 91065, Note_on_c, 0, 31, 64
2, 91065, Note_on_c, 0, 43, 64
2, 91091, Note_on_c, 0, 87, 0
2, 91095, Note_on_c, 0, 86, 64
2, 91121, Note_on_c, 0, 86, 0
2, 91125, Note_on_c, 0, 83, 64
2, 91151, Note_on_c, 0, 83, 0
2, 91155, Note_on_c, 0, 77, 64
2, 91170, Note_on_c, 0, 43, 0
2, 91170, Note_on_c, 0, 31, 0
2, 91181, Note_on_c, 0, 77, 0
2, 91185, Note_on_c, 0, 84, 64
2, 91185, Note_on_c, 0, 75, 64
2, 91185, Note_on_c, 0, 79, 64
2, 91215, Note_on_c, 0, 62, 64
2, 91237, Note_on_c, 0, 79, 0
2, 91237, Note_on_c, 0, 75, 0
2, 91241, Note_on_c, 0, 62, 0
2, 91245, Note_on_c, 0, 75, 64
2, 91245, Note_on_c, 0, 79, 64
2, 91245, Note_on_c, 0, 60, 64
2, 91271, Note_on_c, 0, 60, 0
2, 91275, Note_on_c, 0, 59, 64
2, 91290, Note_on_c, 0, 84, 0
2, 91297, Note_on_c, 0, 75, 0
2, 91297, Note_on_c, 0, 79, 0
2, 91301, Note_on_c, 0, 59, 0
2, 91305, Note_on_c, 0, 87, 64
2, 91305, Note_on_c, 0, 75, 64
2, 91305, Note_on_c, 0, 79, 64
2, 91305, Note_on_c, 0, 60, 64
2, 91331, Note_on_c, 0, 60, 0
2, 91335, Note_on_c, 0, 62, 64
2, 91357, Note_on_c, 0, 79, 0
2, 91357, Note_on_c, 0, 75, 0
2, 91361, Note_on_c, 0, 62, 0
2, 91365, Note_on_c, 0, 75, 64
2, 91365, Note_on_c, 0, 79, 64
2, 91365, Note_on_c, 0, 63, 64
2, 91391, Note_on_c, 0, 63, 0
2, 91395, Note_on_c, 0, 60, 64
2, 91410, Note_on_c, 0, 87, 0
2, 91417, Note_on_c, 0, 75, 0
2, 91417, Note_on_c, 0, 79, 0
2, 91421, Note_on_c, 0, 60, 0
2, 91425, Note_on_c, 0, 74, 64
2, 91425, Note_on_c, 0, 79, 64
2, 91425, Note_on_c, 0, 83, 64
2, 91455, Note_on_c, 0, 45, 64
2, 91477, Note_on_c, 0, 79, 0
2, 91477, Note_on_c, 0, 74, 0
2, 91481, Note_on_c, 0, 45, 0
2, 91485, Note_on_c, 0, 74, 64
2, 91485, Note_on_c, 0, 79, 64
2, 91485, Note_on_c, 0, 43, 64
2, 91511, Note_on_c, 0, 43, 0
2, 91515, Note_on_c, 0, 42, 64
2, 91537, Note_on_c, 0, 79, 0
2, 91537, Note_on_c, 0, 74, 0
2, 91541, Note_on_c, 0, 42, 0
2, 91545, Note_on_c, 0, 74, 64
2, 91545, Note_on_c, 0, 79, 64
2, 91545, Note_on_c, 0, 43, 64
2, 91571, Note_on_c, 0, 43, 0
2, 91575, Note_on_c, 0, 45, 64
2, 91597, Note_on_c, 0, 79, 0
2, 91597, Note_on_c, 0, 74, 0
2, 91601, Note_on_c, 0, 45, 0
2, 91605, Note_on_c, 0, 74, 64
2, 91605, Note_on_c, 0, 79, 64
2, 91605, Note_on_c, 0, 46, 64
2, 91631, Note_on_c, 0, 46, 0
2, 91635, Note_on_c, 0, 43, 64
2, 91650, Note_on_c, 0, 83, 0
2, 91657, Note_on_c, 0, 74, 0
2, 91657, Note_on_c, 0, 79, 0
2, 91661, Note_on_c, 0, 43, 0
2, 91665, Note_on_c, 0, 72, 64
2, 91665, Note_on_c, 0, 79, 64
2, 91665, Note_on_c, 0, 82, 64
2, 91695, Note_on_c, 0, 65, 64
2, 91717, Note_on_c, 0, 79, 0
2, 91717, Note_on_c, 0, 72, 0
2, 91721, Note_on_c, 0, 65, 0
2, 91725, Note_on_c, 0, 72, 64
2, 91725, Note_on_c, 0, 79, 64
2, 91725, Note_on_c, 0, 64, 64
2, 91751, Note_on_c, 0, 64, 0
2, 91755, Note_on_c, 0, 62, 64
2, 91770, Note_on_c, 0, 82, 0
2, 91777, Note_on_c, 0, 72, 0
2, 91777, Note_on_c, 0, 79, 0
2, 91781, Note_on_c, 0, 62, 0
2, 91785, Note_on_c, 0, 72, 64
2, 91785, Note_on_c, 0, 79, 64
2, 91785, Note_on_c, 0, 84, 64
2, 91785, Note_on_c, 0, 64, 64
2, 91811, Note_on_c, 0, 64, 0
2, 91815, Note_on_c, 0, 65, 64
2, 91837, Note_on_c, 0, 72, 0
2, 91837, Note_on_c, 0, 79, 0
2, 91841, Note_on_c, 0, 65, 0
2, 91845, Note_on_c, 0, 72, 64
2, 91845, Note_on_c, 0, 79, 64
2, 91845, Note_on_c, 0, 67, 64
2, 91871, Note_on_c, 0, 67, 0
2, 91875, Note_on_c, 0, 65, 64
2, 91890, Note_on_c, 0, 84, 0
2, 91897, Note_on_c, 0, 72, 0
2, 91897, Note_on_c, 0, 79, 0
2, 91901, Note_on_c, 0, 65, 0
2, 91905, Note_on_c, 0, 72, 64
2, 91905, Note_on_c, 0, 77, 64
2, 91905, Note_on_c, 0, 81, 64
2, 91935, Note_on_c, 0, 43, 64
2, 91957, Note_on_c, 0, 77, 0
2, 91957, Note_on_c, 0, 72, 0
2, 91961, Note_on_c, 0, 43, 0
2, 91965, Note_on_c, 0, 72, 64
2, 91965, Note_on_c, 0, 77, 64
2, 91965, Note_on_c, 0, 41, 64
2, 91991, Note_on_c, 0, 41, 0
2, 91995, Note_on_c, 0, 40, 64
2, 92017, Note_on_c, 0, 77, 0
2, 92017, Note_on_c, 0, 72, 0
2, 92021, Note_on_c, 0, 40, 0
2, 92025, Note_on_c, 0, 72, 64
2, 92025, Note_on_c, 0, 77, 64
2, 92025, Note_on_c, 0, 41, 64
2, 92051, Note_on_c, 0, 41, 0
2, 92055, Note_on_c, 0, 43, 64
2, 92077, Note_on_c, 0, 77, 0
2, 92077, Note_on_c, 0, 72, 0
2, 92081, Note_on_c, 0, 43, 0
2, 92085, Note_on_c, 0, 72, 64
2, 92085, Note_on_c, 0, 77, 64
2, 92085, Note_on_c, 0, 45, 64
2, 92111, Note_on_c, 0, 45, 0
2, 92115, Note_on_c, 0, 41, 64
2, 92130, Note_on_c, 0, 81, 0
2, 92137, Note_on_c, 0, 72, 0
2, 92137, Note_on_c, 0, 77, 0
2, 92141, Note_on_c, 0, 41, 0
2, 92145, Note_on_c, 0, 72, 64
2, 92145, Note_on_c, 0, 77, 64
2, 92145, Note_on_c, 0, 80, 64
2, 92175, Note_on_c, 0, 55, 64
2, 92197, Note_on_c, 0, 77, 0
2, 92197, Note_on_c, 0, 72, 0
2, 92201, Note_on_c, 0, 55, 0
2, 92205, Note_on_c, 0, 72, 64
2, 92205, Note_on_c, 0, 77, 64
2, 92205, Note_on_c, 0, 53, 64
2, 92231, Note_on_c, 0, 53, 0
2, 92235, Note_on_c, 0, 52, 64
2, 92250, Note_on_c, 0, 80, 0
2, 92257, Note_on_c, 0, 72, 0
2, 92257, Note_on_c, 0, 77, 0
2, 92261, Note_on_c, 0, 52, 0
2, 92265, Note_on_c, 0, 72, 64
2, 92265, Note_on_c, 0, 77, 64
2, 92265, Note_on_c, 0, 84, 64
2, 92265, Note_on_c, 0, 53, 64
2, 92291, Note_on_c, 0, 53, 0
2, 92295, Note_on_c, 0, 55, 64
2, 92317, Note_on_c, 0, 72, 0
2, 92317, Note_on_c, 0, 77, 0
2, 92321, Note_on_c, 0, 55, 0
2, 92325, Note_on_c, 0, 72, 64
2, 92325, Note_on_c, 0, 76, 64
2, 92325, Note_on_c, 0, 56, 64
2, 92351, Note_on_c, 0, 56, 0
2, 92355, Note_on_c, 0, 54, 64
2, 92370, Note_on_c, 0, 84, 0
2, 92377, Note_on_c, 0, 72, 0
2, 92377, Note_on_c, 0, 76, 0
2, 92381, Note_on_c, 0, 54, 0
2, 92385, Note_on_c, 0, 72, 64
2, 92385, Note_on_c, 0, 75, 64
2, 92385, Note_on_c, 0, 79, 64
2, 92385, Note_on_c, 0, 72, 64
2, 92385, Note_on_c, 0, 55, 64
2, 92411, Note_on_c, 0, 55, 0
2, 92415, Note_on_c, 0, 51, 64
2, 92441, Note_on_c, 0, 51, 0
2, 92445, Note_on_c, 0, 48, 64
2, 92471, Note_on_c, 0, 48, 0
2, 92475, Note_on_c, 0, 43, 64
2, 92490, Note_on_c, 0, 79, 0
2, 92490, Note_on_c, 0, 72, 0
2, 92490, Note_on_c, 0, 72, 0
2, 92490, Note_on_c, 0, 75, 0
2, 92501, Note_on_c, 0, 43, 0
2, 92505, Note_on_c, 0, 72, 64
2, 92505, Note_on_c, 0, 84, 64
2, 92505, Note_on_c, 0, 39, 64
2, 92531, Note_on_c, 0, 39, 0
2, 92535, Note_on_c, 0, 43, 64
2, 92557, Note_on_c, 0, 84, 0
2, 92557, Note_on_c, 0, 72, 0
2, 92561, Note_on_c, 0, 43, 0
2, 92565, Note_on_c, 0, 75, 64
2, 92565, Note_on_c, 0, 87, 64
2, 92565, Note_on_c, 0, 39, 64
2, 92591, Note_on_c, 0, 39, 0
2, 92595, Note_on_c, 0, 36, 64
2, 92617, Note_on_c, 0, 87, 0
2, 92617, Note_on_c, 0, 75, 0
2, 92621, Note_on_c, 0, 36, 0
2, 92625, Note_on_c, 0, 79, 64
2, 92625, Note_on_c, 0, 91, 64
2, 92625, Note_on_c, 0, 35, 64
2, 92651, Note_on_c, 0, 35, 0
2, 92655, Note_on_c, 0, 43, 64
2, 92677, Note_on_c, 0, 91, 0
2, 92677, Note_on_c, 0, 79, 0
2, 92681, Note_on_c, 0, 43, 0
2, 92685, Note_on_c, 0, 91, 64
2, 92685, Note_on_c, 0, 38, 64
2, 92711, Note_on_c, 0, 38, 0
2, 92715, Note_on_c, 0, 43, 64
2, 92737, Note_on_c, 0, 91, 0
2, 92741, Note_on_c, 0, 43, 0
2, 92745, Note_on_c, 0, 92, 64
2, 92745, Note_on_c, 0, 39, 64
2, 92758, Note_on_c, 0, 92, 0
2, 92760, Note_on_c, 0, 91, 64
2, 92771, Note_on_c, 0, 39, 0
2, 92773, Note_on_c, 0, 91, 0
2, 92775, Note_on_c, 0, 92, 64
2, 92775, Note_on_c, 0, 43, 64
2, 92788, Note_on_c, 0, 92, 0
2, 92790, Note_on_c, 0, 91, 64
2, 92801, Note_on_c, 0, 43, 0
2, 92803, Note_on_c, 0, 91, 0
2, 92805, Note_on_c, 0, 92, 64
2, 92805, Note_on_c, 0, 41, 64
2, 92818, Note_on_c, 0, 92, 0
2, 92820, Note_on_c, 0, 91, 64
2, 92831, Note_on_c, 0, 41, 0
2, 92833, Note_on_c, 0, 91, 0
2, 92835, Note_on_c, 0, 90, 64
2, 92835, Note_on_c, 0, 43, 64
2, 92848, Note_on_c, 0, 90, 0
2, 92850, Note_on_c, 0, 91, 64
2, 92861, Note_on_c, 0, 43, 0
2, 92863, Note_on_c, 0, 91, 0
2, 92865, Note_on_c, 0, 91, 64
2, 92865, Note_on_c, 0, 39, 64
2, 92891, Note_on_c, 0, 39, 0
2, 92895, Note_on_c, 0, 43, 64
2, 92917, Note_on_c, 0, 91, 0
2, 92921, Note_on_c, 0, 43, 0
2, 92925, Note_on_c, 0, 95, 64
2, 92925, Note_on_c, 0, 38, 64
2, 92951, Note_on_c, 0, 38, 0
2, 92955, Note_on_c, 0, 43, 64
2, 92977, Note_on_c, 0, 95, 0
2, 92981, Note_on_c, 0, 43, 0
2, 92985, Note_on_c, 0, 95, 64
2, 92985, Note_on_c, 0, 39, 64
2, 93011, Note_on_c, 0, 39, 0
2, 93015, Note_on_c, 0, 43, 64
2, 93037, Note_on_c, 0, 95, 0
2, 93041, Note_on_c, 0, 43, 0
2, 93045, Note_on_c, 0, 96, 64
2, 93045, Note_on_c, 0, 36, 64
2, 93071, Note_on_c, 0, 36, 0
2, 93075, Note_on_c, 0, 43, 64
2, 93097, Note_on_c, 0, 96, 0
2, 93101, Note_on_c, 0, 43, 0
2, 93105, Note_on_c, 0, 35, 64
2, 93131, Note_on_c, 0, 35, 0
2, 93135, Note_on_c, 0, 43, 64
2, 93161, Note_on_c, 0, 43, 0
2, 93165, Note_on_c, 0, 79, 64
2, 93165, Note_on_c, 0, 38, 64
2, 93191, Note_on_c, 0, 38, 0
2, 93195, Note_on_c, 0, 43, 64
2, 93217, Note_on_c, 0, 79, 0
2, 93221, Note_on_c, 0, 43, 0
2, 93225, Note_on_c, 0, 80, 64
2, 93225, Note_on_c, 0, 39, 64
2, 93238, Note_on_c, 0, 80, 0
2, 93240, Note_on_c, 0, 79, 64
2, 93251, Note_on_c, 0, 39, 0
2, 93253, Note_on_c, 0, 79, 0
2, 93255, Note_on_c, 0, 80, 64
2, 93255, Note_on_c, 0, 43, 64
2, 93268, Note_on_c, 0, 80, 0
2, 93270, Note_on_c, 0, 79, 64
2, 93281, Note_on_c, 0, 43, 0
2, 93283, Note_on_c, 0, 79, 0
2, 93285, Note_on_c, 0, 80, 64
2, 93285, Note_on_c, 0, 41, 64
2, 93298, Note_on_c, 0, 80, 0
2, 93300, Note_on_c, 0, 79, 64
2, 93311, Note_on_c, 0, 41, 0
2, 93313, Note_on_c, 0, 79, 0
2, 93315, Note_on_c, 0, 78, 64
2, 93315, Note_on_c, 0, 43, 64
2, 93328, Note_on_c, 0, 78, 0
2, 93330, Note_on_c, 0, 79, 64
2, 93341, Note_on_c, 0, 43, 0
2, 93343, Note_on_c, 0, 79, 0
2, 93345, Note_on_c, 0, 79, 64
2, 93345, Note_on_c, 0, 39, 64
2, 93371, Note_on_c, 0, 39, 0
2, 93375, Note_on_c, 0, 43, 64
2, 93397, Note_on_c, 0, 79, 0
2, 93401, Note_on_c, 0, 43, 0
2, 93405, Note_on_c, 0, 82, 64
2, 93405, Note_on_c, 0, 38, 64
2, 93431, Note_on_c, 0, 38, 0
2, 93435, Note_on_c, 0, 43, 64
2, 93457, Note_on_c, 0, 82, 0
2, 93461, Note_on_c, 0, 43, 0
2, 93465, Note_on_c, 0, 82, 64
2, 93465, Note_on_c, 0, 39, 64
2, 93491, Note_on_c, 0, 39, 0
2, 93495, Note_on_c, 0, 43, 64
2, 93517, Note_on_c, 0, 82, 0
2, 93521, Note_on_c, 0, 43, 0
2, 93525, Note_on_c, 0, 84, 64
2, 93525, Note_on_c, 0, 36, 64
2, 93551, Note_on_c, 0, 36, 0
2, 93555, Note_on_c, 0, 43, 64
2, 93577, Note_on_c, 0, 84, 0
2, 93581, Note_on_c, 0, 43, 0
2, 93585, Note_on_c, 0, 35, 64
2, 93611, Note_on_c, 0, 35, 0
2, 93615, Note_on_c, 0, 43, 64
2, 93641, Note_on_c, 0, 43, 0
2, 93645, Note_on_c, 0, 67, 64
2, 93645, Note_on_c, 0, 38, 64
2, 93671, Note_on_c, 0, 38, 0
2, 93675, Note_on_c, 0, 43, 64
2, 93697, Note_on_c, 0, 67, 0
2, 93701, Note_on_c, 0, 43, 0
2, 93705, Note_on_c, 0, 68, 64
2, 93705, Note_on_c, 0, 44, 64
2, 93731, Note_on_c, 0, 44, 0
2, 93731, Note_on_c, 0, 68, 0
2, 93735, Note_on_c, 0, 67, 64
2, 93735, Note_on_c, 0, 43, 64
2, 93761, Note_on_c, 0, 43, 0
2, 93761, Note_on_c, 0, 67, 0
2, 93765, Note_on_c, 0, 69, 64
2, 93765, Note_on_c, 0, 45, 64
2, 93791, Note_on_c, 0, 45, 0
2, 93791, Note_on_c, 0, 69, 0
2, 93795, Note_on_c, 0, 71, 64
2, 93795, Note_on_c, 0, 47, 64
2, 93821, Note_on_c, 0, 47, 0
2, 93821, Note_on_c, 0, 71, 0
2, 93825, Note_on_c, 0, 72, 64
2, 93825, Note_on_c, 0, 48, 64
2, 93851, Note_on_c, 0, 48, 0
2, 93851, Note_on_c, 0, 72, 0
2, 93855, Note_on_c, 0, 74, 64
2, 93855, Note_on_c, 0, 50, 64
2, 93881, Note_on_c, 0, 50, 0
2, 93881, Note_on_c, 0, 74, 0
2, 93885, Note_on_c, 0, 75, 64
2, 93885, Note_on_c, 0, 51, 64
2, 93911, Note_on_c, 0, 51, 0
2, 93911, Note_on_c, 0, 75, 0
2, 93915, Note_on_c, 0, 74, 64
2, 93915, Note_on_c, 0, 50, 64
2, 93941, Note_on_c, 0, 50, 0
2, 93941, Note_on_c, 0, 74, 0
2, 93945, Note_on_c, 0, 75, 64
2, 93945, Note_on_c, 0, 51, 64
2, 93971, Note_on_c, 0, 51, 0
2, 93971, Note_on_c, 0, 75, 0
2, 93975, Note_on_c, 0, 76, 64
2, 93975, Note_on_c, 0, 52, 64
2, 94001, Note_on_c, 0, 52, 0
2, 94001, Note_on_c, 0, 76, 0
2, 94005, Note_on_c, 0, 77, 64
2, 94005, Note_on_c, 0, 53, 64
2, 94031, Note_on_c, 0, 53, 0
2, 94031, Note_on_c, 0, 77, 0
2, 94035, Note_on_c, 0, 76, 64
2, 94035, Note_on_c, 0, 52, 64
2, 94061, Note_on_c, 0, 52, 0
2, 94061, Note_on_c, 0, 76, 0
2, 94065, Note_on_c, 0, 77, 64
2, 94065, Note_on_c, 0, 53, 64
2, 94091, Note_on_c, 0, 53, 0
2, 94091, Note_on_c, 0, 77, 0
2, 94095, Note_on_c, 0, 78, 64
2, 94095, Note_on_c, 0, 54, 64
2, 94121, Note_on_c, 0, 54, 0
2, 94121, Note_on_c, 0, 78, 0
2, 94125, Note_on_c, 0, 79, 64
2, 94125, Note_on_c, 0, 55, 64
2, 94151, Note_on_c, 0, 55, 0
2, 94151, Note_on_c, 0, 79, 0
2, 94155, Note_on_c, 0, 78, 64
2, 94155, Note_on_c, 0, 54, 64
2, 94181, Note_on_c, 0, 54, 0
2, 94181, Note_on_c, 0, 78, 0
2, 94185, Note_on_c, 0, 79, 64
2, 94185, Note_on_c, 0, 55, 64
2, 94211, Note_on_c, 0, 55, 0
2, 94211, Note_on_c, 0, 79, 0
2, 94215, Note_on_c, 0, 81, 64
2, 94215, Note_on_c, 0, 57, 64
2, 94241, Note_on_c, 0, 57, 0
2, 94241, Note_on_c, 0, 81, 0
2, 94245, Note_on_c, 0, 82, 64
2, 94245, Note_on_c, 0, 58, 64
2, 94271, Note_on_c, 0, 58, 0
2, 94271, Note_on_c, 0, 82, 0
2, 94275, Note_on_c, 0, 83, 64
2, 94275, Note_on_c, 0, 59, 64
2, 94301, Note_on_c, 0, 59, 0
2, 94301, Note_on_c, 0, 83, 0
2, 94305, Note_on_c, 0, 84, 64
2, 94305, Note_on_c, 0, 60, 64
2, 94331, Note_on_c, 0, 60, 0
2, 94331, Note_on_c, 0, 84, 0
2, 94335, Note_on_c, 0, 86, 64
2, 94335, Note_on_c, 0, 62, 64
2, 94361, Note_on_c, 0, 62, 0
2, 94361, Note_on_c, 0, 86, 0
2, 94365, Note_on_c, 0, 87, 64
2, 94365, Note_on_c, 0, 63, 64
2, 94391, Note_on_c, 0, 63, 0
2, 94391, Note_on_c, 0, 87, 0
2, 94395, Note_on_c, 0, 86, 64
2, 94395, Note_on_c, 0, 62, 64
2, 94421, Note_on_c, 0, 62, 0
2, 94421, Note_on_c, 0, 86, 0
2, 94425, Note_on_c, 0, 87, 64
2, 94425, Note_on_c, 0, 63, 64
2, 94451, Note_on_c, 0, 63, 0
2, 94451, Note_on_c, 0, 87, 0
2, 94455, Note_on_c, 0, 88, 64
2, 94455, Note_on_c, 0, 64, 64
2, 94481, Note_on_c, 0, 64, 0
2, 94481, Note_on_c, 0, 88, 0
2, 94485, Note_on_c, 0, 89, 64
2, 94485, Note_on_c, 0, 65, 64
2, 94511, Note_on_c, 0, 65, 0
2, 94511, Note_on_c, 0, 89, 0
2, 94515, Note_on_c, 0, 88, 64
2, 94515, Note_on_c, 0, 64, 64
2, 94541, Note_on_c, 0, 64, 0
2, 94541, Note_on_c, 0, 88, 0
2, 94545, Note_on_c, 0, 89, 64
2, 94545, Note_on_c, 0, 65, 64
2, 94571, Note_on_c, 0, 65, 0
2, 94571, Note_on_c, 0, 89, 0
2, 94575, Note_on_c, 0, 90, 64
2, 94575, Note_on_c, 0, 66, 64
2, 94601, Note_on_c, 0, 66, 0
2, 94601, Note_on_c, 0, 90, 0
2, 94605, Note_on_c, 0, 91, 64
2, 94605, Note_on_c, 0, 67, 64
2, 94631, Note_on_c, 0, 67, 0
2, 94631, Note_on_c, 0, 91, 0
2, 94635, Note_on_c, 0, 90, 64
2, 94635, Note_on_c, 0, 66, 64
2, 94661, Note_on_c, 0, 66, 0
2, 94661, Note_on_c, 0, 90, 0
2, 94665, Note_on_c, 0, 91, 64
2, 94665, Note_on_c, 0, 67, 64
2, 94691, Note_on_c, 0, 67, 0
2, 94691, Note_on_c, 0, 91, 0
2, 94695, Note_on_c, 0, 93, 64
2, 94695, Note_on_c, 0, 69, 64
2, 94721, Note_on_c, 0, 69, 0
2, 94721, Note_on_c, 0, 93, 0
2, 94725, Note_on_c, 0, 94, 64
2, 94725, Note_on_c, 0, 70, 64
2, 94751, Note_on_c, 0, 70, 0
2, 94751, Note_on_c, 0, 94, 0
2, 94755, Note_on_c, 0, 95, 64
2, 94755, Note_on_c, 0, 71, 64
2, 94781, Note_on_c, 0, 71, 0
2, 94781, Note_on_c, 0, 95, 0
2, 94785, Note_on_c, 0, 96, 64
2, 94785, Note_on_c, 0, 72, 64
2, 94890, Note_on_c, 0, 72, 0
2, 94890, Note_on_c, 0, 96, 0
2, 94905, Note_on_c, 0, 60, 64
2, 94905, Note_on_c, 0, 72, 64
2, 94905, Note_on_c, 0, 36, 64
2, 94905, Note_on_c, 0, 48, 64
2, 95010, Note_on_c, 0, 48, 0
2, 95010, Note_on_c, 0, 60, 0
2, 95010, Note_on_c, 0, 72, 0
2, 95010, Note_on_c, 0, 36, 0
2, 95145, Note_on_c, 0, 63, 64
2, 95145, Note_on_c, 0, 66, 64
2, 95145, Note_on_c, 0, 69, 64
2, 95145, Note_on_c, 0, 75, 64
2, 95145, Note_on_c, 0, 36, 64
2, 95145, Note_on_c, 0, 48, 64
2, 95250, Note_on_c, 0, 48, 0
2, 95250, Note_on_c, 0, 66, 0
2, 95250, Note_on_c, 0, 69, 0
2, 95250, Note_on_c, 0, 63, 0
2, 95250, Note_on_c, 0, 36, 0
2, 95250, Note_on_c, 0, 75, 0
2, 95385, Note_on_c, 0, 62, 64
2, 95385, Note_on_c, 0, 65, 64
2, 95385, Note_on_c, 0, 68, 64
2, 95385, Note_on_c, 0, 71, 64
2, 95385, Note_on_c, 0, 36, 64
2, 95385, Note_on_c, 0, 48, 64
2, 95490, Note_on_c, 0, 48, 0
2, 95490, Note_on_c, 0, 65, 0
2, 95490, Note_on_c, 0, 68, 0
2, 95490, Note_on_c, 0, 62, 0
2, 95490, Note_on_c, 0, 36, 0
2, 95490, Note_on_c, 0, 71, 0
2, 95625, Note_on_c, 0, 65, 64
2, 95625, Note_on_c, 0, 68, 64
2, 95625, Note_on_c, 0, 71, 64
2, 95625, Note_on_c, 0, 74, 64
2, 95625, Note_on_c, 0, 36, 64
2, 95625, Note_on_c, 0, 48, 64
2, 95730, Note_on_c, 0, 48, 0
2, 95730, Note_on_c, 0, 68, 0
2, 95730, Note_on_c, 0, 71, 0
2, 95730, Note_on_c, 0, 65, 0
2, 95730, Note_on_c, 0, 36, 0
2, 95730, Note_on_c, 0, 74, 0
2, 95865, Note_on_c, 0, 61, 64
2, 95865, Note_on_c, 0, 64, 64
2, 95865, Note_on_c, 0, 67, 64
2, 95865, Note_on_c, 0, 70, 64
2, 95865, Note_on_c, 0, 36, 64
2, 95865, Note_on_c, 0, 48, 64
2, 95970, Note_on_c, 0, 48, 0
2, 95970, Note_on_c, 0, 64, 0
2, 95970, Note_on_c, 0, 67, 0
2, 95970, Note_on_c, 0, 61, 0
2, 95970, Note_on_c, 0, 36, 0
2, 95970, Note_on_c, 0, 70, 0
2, 96105, Note_on_c, 0, 64, 64
2, 96105, Note_on_c, 0, 67, 64
2, 96105, Note_on_c, 0, 70, 64
2, 96105, Note_on_c, 0, 73, 64
2, 96105, Note_on_c, 0, 36, 64
2, 96105, Note_on_c, 0, 48, 64
2, 96210, Note_on_c, 0, 48, 0
2, 96210, Note_on_c, 0, 67, 0
2, 96210, Note_on_c, 0, 70, 0
2, 96210, Note_on_c, 0, 64, 0
2, 96210, Note_on_c, 0, 36, 0
2, 96210, Note_on_c, 0, 73, 0
2, 96345, Note_on_c, 0, 60, 64
2, 96345, Note_on_c, 0, 65, 64
2, 96345, Note_on_c, 0, 69, 64
2, 96345, Note_on_c, 0, 36, 64
2, 96345, Note_on_c, 0, 48, 64
2, 96450, Note_on_c, 0, 48, 0
2, 96450, Note_on_c, 0, 69, 0
2, 96450, Note_on_c, 0, 60, 0
2, 96450, Note_on_c, 0, 65, 0
2, 96450, Note_on_c, 0, 36, 0
2, 96585, Note_on_c, 0, 65, 64
2, 96585, Note_on_c, 0, 69, 64
2, 96585, Note_on_c, 0, 72, 64
2, 96585, Note_on_c, 0, 36, 64
2, 96585, Note_on_c, 0, 48, 64
2, 96690, Note_on_c, 0, 48, 0
2, 96690, Note_on_c, 0, 72, 0
2, 96690, Note_on_c, 0, 65, 0
2, 96690, Note_on_c, 0, 69, 0
2, 96690, Note_on_c, 0, 36, 0
2, 96765, Note_on_c, 0, 48, 64
2, 96791, Note_on_c, 0, 48, 0
2, 96795, Note_on_c, 0, 49, 64
2, 96821, Note_on_c, 0, 49, 0
2, 96825, Note_on_c, 0, 48, 64
2, 96851, Note_on_c, 0, 48, 0
2, 96855, Note_on_c, 0, 46, 64
2, 96881, Note_on_c, 0, 46, 0
2, 96885, Note_on_c, 0, 44, 64
2, 96911, Note_on_c, 0, 44, 0
2, 96915, Note_on_c, 0, 43, 64
2, 96941, Note_on_c, 0, 43, 0
2, 96945, Note_on_c, 0, 65, 64
2, 96945, Note_on_c, 0, 69, 64
2, 96945, Note_on_c, 0, 72, 64
2, 96945, Note_on_c, 0, 41, 64
2, 96971, Note_on_c, 0, 41, 0
2, 96975, Note_on_c, 0, 48, 64
2, 97001, Note_on_c, 0, 48, 0
2, 97005, Note_on_c, 0, 49, 64
2, 97031, Note_on_c, 0, 49, 0
2, 97035, Note_on_c, 0, 48, 64
2, 97061, Note_on_c, 0, 48, 0
2, 97065, Note_on_c, 0, 46, 64
2, 97091, Note_on_c, 0, 46, 0
2, 97095, Note_on_c, 0, 44, 64
2, 97121, Note_on_c, 0, 44, 0
2, 97125, Note_on_c, 0, 43, 64
2, 97151, Note_on_c, 0, 43, 0
2, 97155, Note_on_c, 0, 41, 64
2, 97170, Note_on_c, 0, 65, 0
2, 97170, Note_on_c, 0, 72, 0
2, 97170, Note_on_c, 0, 69, 0
2, 97181, Note_on_c, 0, 41, 0
2, 97185, Note_on_c, 0, 70, 64
2, 97185, Note_on_c, 0, 72, 64
2, 97185, Note_on_c, 0, 67, 64
2, 97185, Note_on_c, 0, 40, 64
2, 97211, Note_on_c, 0, 40, 0
2, 97215, Note_on_c, 0, 48, 64
2, 97241, Note_on_c, 0, 48, 0
2, 97245, Note_on_c, 0, 49, 64
2, 97271, Note_on_c, 0, 49, 0
2, 97275, Note_on_c, 0, 48, 64
2, 97301, Note_on_c, 0, 48, 0
2, 97305, Note_on_c, 0, 46, 64
2, 97331, Note_on_c, 0, 46, 0
2, 97335, Note_on_c, 0, 43, 64
2, 97361, Note_on_c, 0, 43, 0
2, 97365, Note_on_c, 0, 40, 64
2, 97391, Note_on_c, 0, 40, 0
2, 97395, Note_on_c, 0, 48, 64
2, 97410, Note_on_c, 0, 70, 0
2, 97410, Note_on_c, 0, 67, 0
2, 97410, Note_on_c, 0, 72, 0
2, 97421, Note_on_c, 0, 48, 0
2, 97425, Note_on_c, 0, 65, 64
2, 97425, Note_on_c, 0, 68, 64
2, 97425, Note_on_c, 0, 72, 64
2, 97425, Note_on_c, 0, 41, 64
2, 97451, Note_on_c, 0, 41, 0
2, 97455, Note_on_c, 0, 48, 64
2, 97481, Note_on_c, 0, 48, 0
2, 97485, Note_on_c, 0, 49, 64
2, 97511, Note_on_c, 0, 49, 0
2, 97515, Note_on_c, 0, 48, 64
2, 97541, Note_on_c, 0, 48, 0
2, 97545, Note_on_c, 0, 46, 64
2, 97571, Note_on_c, 0, 46, 0
2, 97575, Note_on_c, 0, 44, 64
2, 97590, Note_on_c, 0, 72, 0
2, 97601, Note_on_c, 0, 44, 0
2, 97605, Note_on_c, 0, 71, 64
2, 97605, Note_on_c, 0, 74, 64
2, 97605, Note_on_c, 0, 43, 64
2, 97631, Note_on_c, 0, 43, 0
2, 97635, Note_on_c, 0, 41, 64
2, 97650, Note_on_c, 0, 65, 0
2, 97650, Note_on_c, 0, 68, 0
2, 97657, Note_on_c, 0, 74, 0
2, 97657, Note_on_c, 0, 71, 0
2, 97661, Note_on_c, 0, 41, 0
2, 97665, Note_on_c, 0, 64, 64
2, 97665, Note_on_c, 0, 67, 64
2, 97665, Note_on_c, 0, 72, 64
2, 97665, Note_on_c, 0, 76, 64
2, 97665, Note_on_c, 0, 36, 64
2, 97691, Note_on_c, 0, 36, 0
2, 97695, Note_on_c, 0, 38, 64
2, 97721, Note_on_c, 0, 38, 0
2, 97725, Note_on_c, 0, 40, 64
2, 97751, Note_on_c, 0, 40, 0
2, 97755, Note_on_c, 0, 41, 64
2, 97770, Note_on_c, 0, 72, 0
2, 97770, Note_on_c, 0, 76, 0
2, 97770, Note_on_c, 0, 64, 0
2, 97770, Note_on_c, 0, 67, 0
2, 97781, Note_on_c, 0, 41, 0
2, 97785, Note_on_c, 0, 64, 64
2, 97785, Note_on_c, 0, 72, 64
2, 97785, Note_on_c, 0, 43, 64
2, 97811, Note_on_c, 0, 43, 0
2, 97815, Note_on_c, 0, 36, 64
2, 97837, Note_on_c, 0, 64, 0
2, 97841, Note_on_c, 0, 36, 0
2, 97845, Note_on_c, 0, 65, 64
2, 97845, Note_on_c, 0, 38, 64
2, 97871, Note_on_c, 0, 38, 0
2, 97871, Note_on_c, 0, 65, 0
2, 97875, Note_on_c, 0, 67, 64
2, 97875, Note_on_c, 0, 40, 64
2, 97890, Note_on_c, 0, 72, 0
2, 97901, Note_on_c, 0, 40, 0
2, 97901, Note_on_c, 0, 67, 0
2, 97905, Note_on_c, 0, 65, 64
2, 97905, Note_on_c, 0, 68, 64
2, 97905, Note_on_c, 0, 72, 64
2, 97905, Note_on_c, 0, 41, 64
2, 97931, Note_on_c, 0, 41, 0
2, 97935, Note_on_c, 0, 48, 64
2, 97961, Note_on_c, 0, 48, 0
2, 97965, Note_on_c, 0, 49, 64
2, 97991, Note_on_c, 0, 49, 0
2, 97995, Note_on_c, 0, 48, 64
2, 98021, Note_on_c, 0, 48, 0
2, 98025, Note_on_c, 0, 46, 64
2, 98051, Note_on_c, 0, 46, 0
2, 98055, Note_on_c, 0, 44, 64
2, 98081, Note_on_c, 0, 44, 0
2, 98085, Note_on_c, 0, 43, 64
2, 98111, Note_on_c, 0, 43, 0
2, 98115, Note_on_c, 0, 41, 64
2, 98130, Note_on_c, 0, 65, 0
2, 98130, Note_on_c, 0, 72, 0
2, 98130, Note_on_c, 0, 68, 0
2, 98141, Note_on_c, 0, 41, 0
2, 98145, Note_on_c, 0, 70, 64
2, 98145, Note_on_c, 0, 72, 64
2, 98145, Note_on_c, 0, 67, 64
2, 98145, Note_on_c, 0, 40, 64
2, 98171, Note_on_c, 0, 40, 0
2, 98175, Note_on_c, 0, 48, 64
2, 98201, Note_on_c, 0, 48, 0
2, 98205, Note_on_c, 0, 49, 64
2, 98231, Note_on_c, 0, 49, 0
2, 98235, Note_on_c, 0, 48, 64
2, 98261, Note_on_c, 0, 48, 0
2, 98265, Note_on_c, 0, 46, 64
2, 98291, Note_on_c, 0, 46, 0
2, 98295, Note_on_c, 0, 43, 64
2, 98321, Note_on_c, 0, 43, 0
2, 98325, Note_on_c, 0, 40, 64
2, 98351, Note_on_c, 0, 40, 0
2, 98355, Note_on_c, 0, 48, 64
2, 98370, Note_on_c, 0, 70, 0
2, 98370, Note_on_c, 0, 67, 0
2, 98370, Note_on_c, 0, 72, 0
2, 98381, Note_on_c, 0, 48, 0
2, 98385, Note_on_c, 0, 72, 64
2, 98385, Note_on_c, 0, 65, 64
2, 98385, Note_on_c, 0, 68, 64
2, 98385, Note_on_c, 0, 41, 64
2, 98411, Note_on_c, 0, 41, 0
2, 98415, Note_on_c, 0, 48, 64
2, 98441, Note_on_c, 0, 48, 0
2, 98445, Note_on_c, 0, 49, 64
2, 98471, Note_on_c, 0, 49, 0
2, 98475, Note_on_c, 0, 48, 64
2, 98501, Note_on_c, 0, 48, 0
2, 98505, Note_on_c, 0, 46, 64
2, 98531, Note_on_c, 0, 46, 0
2, 98535, Note_on_c, 0, 44, 64
2, 98550, Note_on_c, 0, 72, 0
2, 98561, Note_on_c, 0, 44, 0
2, 98565, Note_on_c, 0, 77, 64
2, 98565, Note_on_c, 0, 43, 64
2, 98591, Note_on_c, 0, 43, 0
2, 98595, Note_on_c, 0, 41, 64
2, 98610, Note_on_c, 0, 65, 0
2, 98610, Note_on_c, 0, 68, 0
2, 98617, Note_on_c, 0, 77, 0
2, 98621, Note_on_c, 0, 41, 0
2, 98625, Note_on_c, 0, 76, 64
2, 98625, Note_on_c, 0, 79, 64
2, 98625, Note_on_c, 0, 67, 64
2, 98625, Note_on_c, 0, 72, 64
2, 98625, Note_on_c, 0, 36, 64
2, 98651, Note_on_c, 0, 36, 0
2, 98655, Note_on_c, 0, 38, 64
2, 98681, Note_on_c, 0, 38, 0
2, 98685, Note_on_c, 0, 40, 64
2, 98711, Note_on_c, 0, 40, 0
2, 98715, Note_on_c, 0, 41, 64
2, 98730, Note_on_c, 0, 67, 0
2, 98730, Note_on_c, 0, 72, 0
2, 98730, Note_on_c, 0, 76, 0
2, 98730, Note_on_c, 0, 79, 0
2, 98741, Note_on_c, 0, 41, 0
2, 98745, Note_on_c, 0, 72, 64
2, 98745, Note_on_c, 0, 64, 64
2, 98745, Note_on_c, 0, 43, 64
2, 98771, Note_on_c, 0, 43, 0
2, 98775, Note_on_c, 0, 36, 64
2, 98797, Note_on_c, 0, 64, 0
2, 98801, Note_on_c, 0, 36, 0
2, 98805, Note_on_c, 0, 65, 64
2, 98805, Note_on_c, 0, 38, 64
2, 98831, Note_on_c, 0, 38, 0
2, 98831, Note_on_c, 0, 65, 0
2, 98835, Note_on_c, 0, 67, 64
2, 98835, Note_on_c, 0, 40, 64
2, 98850, Note_on_c, 0, 72, 0
2, 98861, Note_on_c, 0, 40, 0
2, 98861, Note_on_c, 0, 67, 0
2, 98865, Note_on_c, 0, 60, 64
2, 98865, Note_on_c, 0, 65, 64
2, 98865, Note_on_c, 0, 68, 64
2, 98865, Note_on_c, 0, 72, 64
2, 98865, Note_on_c, 0, 41, 64
2, 98891, Note_on_c, 0, 41, 0
2, 98895, Note_on_c, 0, 48, 64
2, 98921, Note_on_c, 0, 48, 0
2, 98925, Note_on_c, 0, 49, 64
2, 98951, Note_on_c, 0, 49, 0
2, 98955, Note_on_c, 0, 48, 64
2, 98981, Note_on_c, 0, 48, 0
2, 98985, Note_on_c, 0, 46, 64
2, 99011, Note_on_c, 0, 46, 0
2, 99015, Note_on_c, 0, 44, 64
2, 99041, Note_on_c, 0, 44, 0
2, 99045, Note_on_c, 0, 43, 64
2, 99071, Note_on_c, 0, 43, 0
2, 99075, Note_on_c, 0, 41, 64
2, 99090, Note_on_c, 0, 68, 0
2, 99090, Note_on_c, 0, 72, 0
2, 99090, Note_on_c, 0, 60, 0
2, 99090, Note_on_c, 0, 65, 0
2, 99101, Note_on_c, 0, 41, 0
2, 99105, Note_on_c, 0, 60, 64
2, 99105, Note_on_c, 0, 67, 64
2, 99105, Note_on_c, 0, 70, 64
2, 99105, Note_on_c, 0, 72, 64
2, 99105, Note_on_c, 0, 40, 64
2, 99131, Note_on_c, 0, 40, 0
2, 99135, Note_on_c, 0, 48, 64
2, 99161, Note_on_c, 0, 48, 0
2, 99165, Note_on_c, 0, 49, 64
2, 99191, Note_on_c, 0, 49, 0
2, 99195, Note_on_c, 0, 48, 64
2, 99221, Note_on_c, 0, 48, 0
2, 99225, Note_on_c, 0, 46, 64
2, 99251, Note_on_c, 0, 46, 0
2, 99255, Note_on_c, 0, 43, 64
2, 99281, Note_on_c, 0, 43, 0
2, 99285, Note_on_c, 0, 40, 64
2, 99311, Note_on_c, 0, 40, 0
2, 99315, Note_on_c, 0, 48, 64
2, 99330, Note_on_c, 0, 70, 0
2, 99330, Note_on_c, 0, 72, 0
2, 99330, Note_on_c, 0, 60, 0
2, 99330, Note_on_c, 0, 67, 0
2, 99341, Note_on_c, 0, 48, 0
2, 99345, Note_on_c, 0, 60, 64
2, 99345, Note_on_c, 0, 65, 64
2, 99345, Note_on_c, 0, 68, 64
2, 99345, Note_on_c, 0, 72, 64
2, 99345, Note_on_c, 0, 41, 64
2, 99371, Note_on_c, 0, 41, 0
2, 99375, Note_on_c, 0, 44, 64
2, 99401, Note_on_c, 0, 44, 0
2, 99405, Note_on_c, 0, 41, 64
2, 99431, Note_on_c, 0, 41, 0
2, 99435, Note_on_c, 0, 36, 64
2, 99461, Note_on_c, 0, 36, 0
2, 99465, Note_on_c, 0, 48, 64
2, 99491, Note_on_c, 0, 48, 0
2, 99495, Note_on_c, 0, 44, 64
2, 99510, Note_on_c, 0, 68, 0
2, 99510, Note_on_c, 0, 72, 0
2, 99510, Note_on_c, 0, 60, 0
2, 99510, Note_on_c, 0, 65, 0
2, 99521, Note_on_c, 0, 44, 0
2, 99525, Note_on_c, 0, 74, 64
2, 99525, Note_on_c, 0, 77, 64
2, 99525, Note_on_c, 0, 80, 64
2, 99525, Note_on_c, 0, 83, 64
2, 99525, Note_on_c, 0, 41, 64
2, 99551, Note_on_c, 0, 41, 0
2, 99555, Note_on_c, 0, 36, 64
2, 99577, Note_on_c, 0, 80, 0
2, 99577, Note_on_c, 0, 83, 0
2, 99577, Note_on_c, 0, 74, 0
2, 99577, Note_on_c, 0, 77, 0
2, 99581, Note_on_c, 0, 36, 0
2, 99585, Note_on_c, 0, 74, 64
2, 99585, Note_on_c, 0, 77, 64
2, 99585, Note_on_c, 0, 80, 64
2, 99585, Note_on_c, 0, 83, 64
2, 99585, Note_on_c, 0, 41, 64
2, 99611, Note_on_c, 0, 41, 0
2, 99615, Note_on_c, 0, 44, 64
2, 99641, Note_on_c, 0, 44, 0
2, 99645, Note_on_c, 0, 41, 64
2, 99671, Note_on_c, 0, 41, 0
2, 99675, Note_on_c, 0, 36, 64
2, 99701, Note_on_c, 0, 36, 0
2, 99705, Note_on_c, 0, 41, 64
2, 99731, Note_on_c, 0, 41, 0
2, 99735, Note_on_c, 0, 44, 64
2, 99761, Note_on_c, 0, 44, 0
2, 99765, Note_on_c, 0, 41, 64
2, 99791, Note_on_c, 0, 41, 0
2, 99795, Note_on_c, 0, 36, 64
2, 99821, Note_on_c, 0, 36, 0
2, 99825, Note_on_c, 0, 41, 64
2, 99851, Note_on_c, 0, 41, 0
2, 99855, Note_on_c, 0, 44, 64
2, 99881, Note_on_c, 0, 44, 0
2, 99885, Note_on_c, 0, 41, 64
2, 99911, Note_on_c, 0, 41, 0
2, 99915, Note_on_c, 0, 36, 64
2, 99941, Note_on_c, 0, 36, 0
2, 99945, Note_on_c, 0, 41, 64
2, 99971, Note_on_c, 0, 41, 0
2, 99975, Note_on_c, 0, 44, 64
2, 100001, Note_on_c, 0, 44, 0
2, 100005, Note_on_c, 0, 41, 64
2, 100031, Note_on_c, 0, 41, 0
2, 100035, Note_on_c, 0, 36, 64
2, 100050, Note_on_c, 0, 80, 0
2, 100050, Note_on_c, 0, 83, 0
2, 100050, Note_on_c, 0, 74, 0
2, 100050, Note_on_c, 0, 77, 0
2, 100061, Note_on_c, 0, 36, 0
2, 100065, Note_on_c, 0, 76, 64
2, 100065, Note_on_c, 0, 79, 64
2, 100065, Note_on_c, 0, 84, 64
2, 100065, Note_on_c, 0, 43, 64
2, 100091, Note_on_c, 0, 43, 0
2, 100095, Note_on_c, 0, 48, 64
2, 100121, Note_on_c, 0, 48, 0
2, 100125, Note_on_c, 0, 43, 64
2, 100151, Note_on_c, 0, 43, 0
2, 100155, Note_on_c, 0, 36, 64
2, 100181, Note_on_c, 0, 36, 0
2, 100185, Note_on_c, 0, 43, 64
2, 100211, Note_on_c, 0, 43, 0
2, 100215, Note_on_c, 0, 48, 64
2, 100241, Note_on_c, 0, 48, 0
2, 100245, Note_on_c, 0, 43, 64
2, 100271, Note_on_c, 0, 43, 0
2, 100275, Note_on_c, 0, 36, 64
2, 100290, Note_on_c, 0, 76, 0
2, 100290, Note_on_c, 0, 84, 0
2, 100290, Note_on_c, 0, 79, 0
2, 100301, Note_on_c, 0, 36, 0
2, 100305, Note_on_c, 0, 76, 64
2, 100305, Note_on_c, 0, 79, 64
2, 100305, Note_on_c, 0, 84, 64
2, 100305, Note_on_c, 0, 43, 64
2, 100331, Note_on_c, 0, 43, 0
2, 100335, Note_on_c, 0, 52, 64
2, 100361, Note_on_c, 0, 52, 0
2, 100365, Note_on_c, 0, 43, 64
2, 100391, Note_on_c, 0, 43, 0
2, 100395, Note_on_c, 0, 36, 64
2, 100421, Note_on_c, 0, 36, 0
2, 100425, Note_on_c, 0, 43, 64
2, 100451, Note_on_c, 0, 43, 0
2, 100455, Note_on_c, 0, 52, 64
2, 100481, Note_on_c, 0, 52, 0
2, 100485, Note_on_c, 0, 43, 64
2, 100511, Note_on_c, 0, 43, 0
2, 100515, Note_on_c, 0, 36, 64
2, 100530, Note_on_c, 0, 76, 0
2, 100530, Note_on_c, 0, 84, 0
2, 100530, Note_on_c, 0, 79, 0
2, 100541, Note_on_c, 0, 36, 0
2, 100545, Note_on_c, 0, 76, 64
2, 100545, Note_on_c, 0, 79, 64
2, 100545, Note_on_c, 0, 84, 64
2, 100545, Note_on_c, 0, 24, 64
2, 100545, Note_on_c, 0, 36, 64
2, 101010, Note_on_c, 0, 36, 0
2, 101010, Note_on_c, 0, 84, 0
2, 101010, Note_on_c, 0, 76, 0
2, 101010, Note_on_c, 0, 79, 0
2, 101010, Note_on_c, 0, 24, 0
2, 101010, End_track
0, 0, End_of_file