0, 0, Header, 1, 20, 120
1, 0, Start_track
1, 0, Title_t, "untitled"
1, 0, Text_t, "\012"
1, 0, Time_signature, 2, 2, 24, 8
1, 0, Key_signature, 1, "major"
1, 0, Tempo, 402685
1, 0, Marker_t, "RONDO - Vivace"
1, 15110, Tempo, 408163
1, 15145, Tempo, 410959
1, 15180, Tempo, 413793
1, 15210, Tempo, 416667
1, 15245, Tempo, 419580
1, 15275, Tempo, 422535
1, 15310, Tempo, 425532
1, 15340, Tempo, 428571
1, 15375, Tempo, 431655
1, 15405, Tempo, 434783
1, 15440, Tempo, 437956
1, 15470, Tempo, 441176
1, 17300, Tempo, 444444
1, 17325, Tempo, 447761
1, 17350, Tempo, 451128
1, 17375, Tempo, 454545
1, 17395, Tempo, 458015
1, 17420, Tempo, 461538
1, 17445, Tempo, 465116
1, 17465, Tempo, 468750
1, 17490, Tempo, 472441
1, 17515, Tempo, 476190
1, 17540, Tempo, 480000
1, 17560, Tempo, 483871
1, 17585, Tempo, 487805
1, 17610, Tempo, 491803
1, 17630, Tempo, 495868
1, 18245, Tempo, 500000
1, 18265, Tempo, 504202
1, 18295, Tempo, 512821
1, 18315, Tempo, 517241
1, 18330, Tempo, 521739
1, 18345, Tempo, 526316
1, 18405, Tempo, 530973
1, 18420, Tempo, 535714
1, 18430, Tempo, 540541
1, 18445, Tempo, 545455
1, 18470, Tempo, 550459
1, 18480, Tempo, 555556
1, 18505, Tempo, 560748
1, 18550, Tempo, 566038
1, 18660, Tempo, 560748
1, 18840, Tempo, 555556
1, 18865, Tempo, 550459
1, 18885, Tempo, 545455
1, 18920, Tempo, 550459
1, 18930, Tempo, 545455
1, 18940, Tempo, 540541
1, 18950, Tempo, 535714
1, 18960, Tempo, 530973
1, 18970, Tempo, 526316
1, 18980, Tempo, 521739
1, 18990, Tempo, 517241
1, 19000, Tempo, 512821
1, 19010, Tempo, 508475
1, 19020, Tempo, 504202
1, 19030, Tempo, 500000
1, 19040, Tempo, 495868
1, 19050, Tempo, 491803
1, 19060, Tempo, 487805
1, 19070, Tempo, 483871
1, 19080, Tempo, 480000
1, 19085, Tempo, 476190
1, 21120, Tempo, 476190
1, 21150, Tempo, 472441
1, 21175, Tempo, 468750
1, 21200, Tempo, 465116
1, 21225, Tempo, 461538
1, 21250, Tempo, 458015
1, 21275, Tempo, 454545
1, 21300, Tempo, 451128
1, 21325, Tempo, 447761
1, 21350, Tempo, 444444
1, 21375, Tempo, 441176
1, 21400, Tempo, 437956
1, 21425, Tempo, 434783
1, 21450, Tempo, 431655
1, 21465, Tempo, 434783
1, 21595, Tempo, 431655
1, 21720, Tempo, 428571
1, 25150, Tempo, 428571
1, 25175, Tempo, 431655
1, 25200, Tempo, 434783
1, 25225, Tempo, 437956
1, 25250, Tempo, 441176
1, 25275, Tempo, 444444
1, 25295, Tempo, 447761
1, 25320, Tempo, 451128
1, 25345, Tempo, 454545
1, 25370, Tempo, 458015
1, 25395, Tempo, 461538
1, 25420, Tempo, 465116
1, 25440, Tempo, 468750
1, 25465, Tempo, 472441
1, 25490, Tempo, 476190
1, 25515, Tempo, 480000
1, 25540, Tempo, 483871
1, 25560, Tempo, 487805
1, 25585, Tempo, 491803
1, 25610, Tempo, 487805
1, 25635, Tempo, 483871
1, 25660, Tempo, 480000
1, 25685, Tempo, 476190
1, 25710, Tempo, 472441
1, 25735, Tempo, 468750
1, 25765, Tempo, 465116
1, 25790, Tempo, 461538
1, 25815, Tempo, 458015
1, 25840, Tempo, 454545
1, 25865, Tempo, 451128
1, 25890, Tempo, 447761
1, 25915, Tempo, 444444
1, 25940, Tempo, 441176
1, 25970, Tempo, 437956
1, 25995, Tempo, 434783
1, 26020, Tempo, 431655
1, 26045, Tempo, 428571
1, 26070, Tempo, 425532
1, 26095, Tempo, 422535
1, 26120, Tempo, 419580
1, 26145, Tempo, 416667
1, 28555, Tempo, 416667
1, 28595, Tempo, 413793
1, 28630, Tempo, 410959
1, 28665, Tempo, 408163
1, 28705, Tempo, 405405
1, 28740, Tempo, 402685
1, 28775, Tempo, 400000
1, 28810, Tempo, 397351
1, 37435, Tempo, 397351
1, 37450, Tempo, 400000
1, 37455, Tempo, 402685
1, 37475, Tempo, 405405
1, 37560, Tempo, 408163
1, 37585, Tempo, 410959
1, 37600, Tempo, 413793
1, 37640, Tempo, 416667
1, 37665, Tempo, 422535
1, 37675, Tempo, 425532
1, 37700, Tempo, 428571
1, 37705, Tempo, 431655
1, 37725, Tempo, 437956
1, 37740, Tempo, 441176
1, 37750, Tempo, 444444
1, 37770, Tempo, 447761
1, 37790, Tempo, 451128
1, 37820, Tempo, 454545
1, 37840, Tempo, 458015
1, 37850, Tempo, 461538
1, 37865, Tempo, 465116
1, 37870, Tempo, 468750
1, 37880, Tempo, 472441
1, 37900, Tempo, 476190
1, 37915, Tempo, 480000
1, 37920, Tempo, 483871
1, 37930, Tempo, 487805
1, 37945, Tempo, 495868
1, 37950, Tempo, 504202
1, 37970, Tempo, 512821
1, 37980, Tempo, 521739
1, 38000, Tempo, 535714
1, 38005, Tempo, 540541
1, 38010, Tempo, 545455
1, 38015, Tempo, 550459
1, 38020, Tempo, 560748
1, 38025, Tempo, 582524
1, 38030, Tempo, 594059
1, 38035, Tempo, 618557
1, 38040, Tempo, 769231
1, 38380, Tempo, 451128
1, 38395, Tempo, 447761
1, 38405, Tempo, 444444
1, 38415, Tempo, 441176
1, 38430, Tempo, 437956
1, 38440, Tempo, 434783
1, 38450, Tempo, 431655
1, 38465, Tempo, 428571
1, 38475, Tempo, 425532
1, 38485, Tempo, 422535
1, 38500, Tempo, 419580
1, 38510, Tempo, 416667
1, 38520, Tempo, 413793
1, 38535, Tempo, 410959
1, 38545, Tempo, 408163
1, 38555, Tempo, 405405
1, 38570, Tempo, 402685
1, 38580, Tempo, 400000
1, 38590, Tempo, 397351
1, 38605, Tempo, 394737
1, 38615, Tempo, 392157
1, 38625, Tempo, 389610
1, 38640, Tempo, 387097
1, 38650, Tempo, 384615
1, 38660, Tempo, 382166
1, 38670, Tempo, 379747
1, 38685, Tempo, 377358
1, 38695, Tempo, 375000
1, 38705, Tempo, 372671
1, 38720, Tempo, 370370
1, 38730, Tempo, 368098
1, 38740, Tempo, 365854
1, 38755, Tempo, 363636
1, 38765, Tempo, 361446
1, 38775, Tempo, 359281
1, 38790, Tempo, 357143
1, 38800, Tempo, 355030
1, 38810, Tempo, 352941
1, 38825, Tempo, 350877
1, 38835, Tempo, 348837
1, 38845, Tempo, 346821
1, 38860, Tempo, 344828
1, 38870, Tempo, 342857
1, 38880, Tempo, 340909
1, 38895, Tempo, 338983
1, 38905, Tempo, 337079
1, 38915, Tempo, 335196
1, 38930, Tempo, 333333
1, 38940, Tempo, 331492
1, 38950, Tempo, 329670
1, 38960, Tempo, 327869
1, 40080, Tempo, 329670
1, 40105, Tempo, 331492
1, 40125, Tempo, 333333
1, 40145, Tempo, 335196
1, 40165, Tempo, 337079
1, 40185, Tempo, 338983
1, 40205, Tempo, 340909
1, 40225, Tempo, 342857
1, 40245, Tempo, 344828
1, 40265, Tempo, 346821
1, 40285, Tempo, 348837
1, 40305, Tempo, 350877
1, 40325, Tempo, 352941
1, 40345, Tempo, 355030
1, 40365, Tempo, 357143
1, 40385, Tempo, 359281
1, 40405, Tempo, 361446
1, 40410, Tempo, 365854
1, 40415, Tempo, 368098
1, 40420, Tempo, 370370
1, 40425, Tempo, 372671
1, 40430, Tempo, 375000
1, 40435, Tempo, 377358
1, 40440, Tempo, 379747
1, 40445, Tempo, 382166
1, 40450, Tempo, 384615
1, 40455, Tempo, 387097
1, 40460, Tempo, 392157
1, 40465, Tempo, 394737
1, 40470, Tempo, 397351
1, 40475, Tempo, 400000
1, 40480, Tempo, 402685
1, 40485, Tempo, 405405
1, 40490, Tempo, 408163
1, 40495, Tempo, 410959
1, 40500, Tempo, 413793
1, 40505, Tempo, 416667
1, 40510, Tempo, 422535
1, 40515, Tempo, 425532
1, 40520, Tempo, 428571
1, 40525, Tempo, 431655
1, 40535, Tempo, 428571
1, 40540, Tempo, 425532
1, 40545, Tempo, 422535
1, 40550, Tempo, 419580
1, 40555, Tempo, 416667
1, 40560, Tempo, 413793
1, 40565, Tempo, 410959
1, 40570, Tempo, 408163
1, 40575, Tempo, 405405
1, 42960, Tempo, 410959
1, 42965, Tempo, 413793
1, 42970, Tempo, 416667
1, 42975, Tempo, 419580
1, 42985, Tempo, 422535
1, 43000, Tempo, 425532
1, 43015, Tempo, 428571
1, 43020, Tempo, 431655
1, 43095, Tempo, 428571
1, 43100, Tempo, 419580
1, 43105, Tempo, 413793
1, 43110, Tempo, 410959
1, 43125, Tempo, 408163
1, 43130, Tempo, 405405
1, 43140, Tempo, 402685
1, 55915, Tempo, 434783
1, 56880, Tempo, 413793
1, 57840, Tempo, 402685
1, 58800, Tempo, 428571
1, 59035, Tempo, 428571
1, 59760, Tempo, 402685
1, 70795, Tempo, 402685
1, 70825, Tempo, 405405
1, 70855, Tempo, 408163
1, 70885, Tempo, 410959
1, 70910, Tempo, 413793
1, 70940, Tempo, 416667
1, 70970, Tempo, 419580
1, 71000, Tempo, 422535
1, 71025, Tempo, 425532
1, 72225, Tempo, 434783
1, 72245, Tempo, 437956
1, 72265, Tempo, 441176
1, 72285, Tempo, 444444
1, 72305, Tempo, 447761
1, 72325, Tempo, 451128
1, 72345, Tempo, 454545
1, 72365, Tempo, 458015
1, 72385, Tempo, 461538
1, 72405, Tempo, 465116
1, 72420, Tempo, 468750
1, 73555, Tempo, 468750
1, 73565, Tempo, 472441
1, 73575, Tempo, 476190
1, 73585, Tempo, 480000
1, 73595, Tempo, 483871
1, 73605, Tempo, 487805
1, 73615, Tempo, 491803
1, 73625, Tempo, 495868
1, 73635, Tempo, 500000
1, 73645, Tempo, 504202
1, 73655, Tempo, 508475
1, 73665, Tempo, 512821
1, 73675, Tempo, 517241
1, 73685, Tempo, 521739
1, 73695, Tempo, 526316
1, 73915, Tempo, 454545
1, 80875, Tempo, 458015
1, 80890, Tempo, 454545
1, 80905, Tempo, 451128
1, 80920, Tempo, 447761
1, 80930, Tempo, 444444
1, 80945, Tempo, 441176
1, 80960, Tempo, 437956
1, 80975, Tempo, 434783
1, 80985, Tempo, 431655
1, 81000, Tempo, 428571
1, 81015, Tempo, 425532
1, 81025, Tempo, 422535
1, 81040, Tempo, 419580
1, 81055, Tempo, 416667
1, 81070, Tempo, 413793
1, 81080, Tempo, 410959
1, 81095, Tempo, 408163
1, 81110, Tempo, 405405
1, 81120, Tempo, 402685
1, 88800, Tempo, 408163
1, 88850, Tempo, 410959
1, 88900, Tempo, 413793
1, 88950, Tempo, 416667
1, 88995, Tempo, 419580
1, 89045, Tempo, 422535
1, 89095, Tempo, 425532
1, 89145, Tempo, 428571
1, 89190, Tempo, 431655
1, 89205, Tempo, 428571
1, 89255, Tempo, 431655
1, 89305, Tempo, 434783
1, 89355, Tempo, 437956
1, 89405, Tempo, 441176
1, 89455, Tempo, 444444
1, 89500, Tempo, 447761
1, 90115, Tempo, 451128
1, 90135, Tempo, 454545
1, 90155, Tempo, 458015
1, 90175, Tempo, 461538
1, 90195, Tempo, 465116
1, 90215, Tempo, 468750
1, 90235, Tempo, 472441
1, 90255, Tempo, 476190
1, 90275, Tempo, 480000
1, 90295, Tempo, 483871
1, 90315, Tempo, 487805
1, 90335, Tempo, 491803
1, 90355, Tempo, 495868
1, 90600, Tempo, 508475
1, 90610, Tempo, 504202
1, 90620, Tempo, 500000
1, 90630, Tempo, 495868
1, 90635, Tempo, 491803
1, 90645, Tempo, 487805
1, 90655, Tempo, 483871
1, 90665, Tempo, 480000
1, 90670, Tempo, 476190
1, 90680, Tempo, 472441
1, 90690, Tempo, 468750
1, 90700, Tempo, 465116
1, 90705, Tempo, 461538
1, 90715, Tempo, 458015
1, 90725, Tempo, 454545
1, 90730, Tempo, 451128
1, 93125, Tempo, 454545
1, 93155, Tempo, 451128
1, 93180, Tempo, 447761
1, 93210, Tempo, 444444
1, 93235, Tempo, 441176
1, 93265, Tempo, 437956
1, 93290, Tempo, 434783
1, 93320, Tempo, 431655
1, 93345, Tempo, 428571
1, 93370, Tempo, 425532
1, 93840, Tempo, 431655
1, 93865, Tempo, 428571
1, 93885, Tempo, 425532
1, 93905, Tempo, 422535
1, 93925, Tempo, 419580
1, 93945, Tempo, 416667
1, 93965, Tempo, 413793
1, 93985, Tempo, 410959
1, 94005, Tempo, 408163
1, 94025, Tempo, 405405
1, 94045, Tempo, 402685
1, 94065, Tempo, 400000
1, 94085, Tempo, 397351
1, 95995, Tempo, 410959
1, 97915, Tempo, 410959
1, 97950, Tempo, 413793
1, 97985, Tempo, 416667
1, 98020, Tempo, 419580
1, 98055, Tempo, 422535
1, 98090, Tempo, 425532
1, 98125, Tempo, 428571
1, 98160, Tempo, 431655
1, 98195, Tempo, 434783
1, 98230, Tempo, 437956
1, 98265, Tempo, 441176
1, 98300, Tempo, 444444
1, 98335, Tempo, 447761
1, 98370, Tempo, 451128
1, 98405, Tempo, 454545
1, 101465, Tempo, 447761
1, 101475, Tempo, 451128
1, 101480, Tempo, 454545
1, 101490, Tempo, 458015
1, 101495, Tempo, 461538
1, 101505, Tempo, 465116
1, 101510, Tempo, 468750
1, 101520, Tempo, 472441
1, 101525, Tempo, 476190
1, 101535, Tempo, 480000
1, 101540, Tempo, 483871
1, 101550, Tempo, 487805
1, 101555, Tempo, 491803
1, 101565, Tempo, 495868
1, 101570, Tempo, 500000
1, 101580, Tempo, 504202
1, 101585, Tempo, 508475
1, 101595, Tempo, 512821
1, 101600, Tempo, 517241
1, 101610, Tempo, 521739
1, 101615, Tempo, 526316
1, 101625, Tempo, 530973
1, 101630, Tempo, 535714
1, 101640, Tempo, 540541
1, 101645, Tempo, 545455
1, 101655, Tempo, 550459
1, 101660, Tempo, 555556
1, 101670, Tempo, 560748
1, 101675, Tempo, 566038
1, 101685, Tempo, 571429
1, 101690, Tempo, 576923
1, 101700, Tempo, 582524
1, 101705, Tempo, 588235
1, 101715, Tempo, 594059
1, 101720, Tempo, 600000
1, 101730, Tempo, 606061
1, 101735, Tempo, 612245
1, 101745, Tempo, 618557
1, 101750, Tempo, 625000
1, 101760, Tempo, 631579
1, 101765, Tempo, 638298
1, 101775, Tempo, 645161
1, 101780, Tempo, 652174
1, 101790, Tempo, 659341
1, 101795, Tempo, 666667
1, 101805, Tempo, 674157
1, 101810, Tempo, 681818
1, 101820, Tempo, 689655
1, 101825, Tempo, 697674
1, 101835, Tempo, 705882
1, 101840, Tempo, 714286
1, 101855, Tempo, 759494
1, 101860, Tempo, 800000
1, 101865, Tempo, 845070
1, 101870, Tempo, 909091
1, 101875, Tempo, 967742
1, 101880, Tempo, 1034483
1, 101885, Tempo, 1132075
1, 101890, Tempo, 1224490
1, 101895, Tempo, 1333333
1, 101900, Tempo, 1500000
1, 101905, Tempo, 1666667
1, 101910, Tempo, 1935484
1, 102000, Tempo, 731707
1, 102010, Tempo, 722892
1, 102015, Tempo, 714286
1, 102020, Tempo, 705882
1, 102025, Tempo, 697674
1, 102035, Tempo, 689655
1, 102040, Tempo, 681818
1, 102045, Tempo, 674157
1, 102050, Tempo, 666667
1, 102055, Tempo, 659341
1, 102065, Tempo, 652174
1, 102070, Tempo, 645161
1, 102075, Tempo, 638298
1, 102080, Tempo, 631579
1, 102085, Tempo, 625000
1, 102095, Tempo, 618557
1, 102100, Tempo, 612245
1, 102105, Tempo, 606061
1, 102110, Tempo, 600000
1, 102120, Tempo, 594059
1, 102125, Tempo, 588235
1, 102130, Tempo, 582524
1, 102135, Tempo, 576923
1, 102140, Tempo, 571429
1, 102150, Tempo, 566038
1, 102155, Tempo, 560748
1, 102160, Tempo, 555556
1, 102165, Tempo, 550459
1, 102170, Tempo, 545455
1, 102180, Tempo, 540541
1, 102185, Tempo, 535714
1, 102190, Tempo, 530973
1, 102195, Tempo, 526316
1, 102205, Tempo, 521739
1, 102210, Tempo, 517241
1, 102215, Tempo, 512821
1, 102220, Tempo, 508475
1, 102225, Tempo, 504202
1, 102235, Tempo, 500000
1, 102240, Tempo, 495868
1, 102245, Tempo, 491803
1, 102250, Tempo, 487805
1, 102255, Tempo, 483871
1, 102265, Tempo, 480000
1, 102270, Tempo, 476190
1, 102275, Tempo, 472441
1, 102280, Tempo, 468750
1, 102290, Tempo, 465116
1, 102295, Tempo, 461538
1, 102300, Tempo, 458015
1, 102305, Tempo, 454545
1, 102310, Tempo, 451128
1, 102320, Tempo, 447761
1, 102325, Tempo, 444444
1, 102330, Tempo, 441176
1, 102335, Tempo, 437956
1, 102340, Tempo, 434783
1, 102350, Tempo, 431655
1, 102355, Tempo, 428571
1, 102360, Tempo, 425532
1, 102365, Tempo, 422535
1, 102375, Tempo, 419580
1, 102380, Tempo, 416667
1, 102385, Tempo, 413793
1, 102390, Tempo, 410959
1, 102395, Tempo, 408163
1, 102405, Tempo, 405405
1, 102410, Tempo, 402685
1, 102415, Tempo, 400000
1, 102420, Tempo, 397351
1, 102425, Tempo, 394737
1, 102435, Tempo, 392157
1, 102440, Tempo, 389610
1, 102445, Tempo, 387097
1, 102450, Tempo, 384615
1, 102460, Tempo, 382166
1, 102465, Tempo, 379747
1, 102470, Tempo, 377358
1, 102475, Tempo, 375000
1, 102480, Tempo, 372671
1, 102490, Tempo, 370370
1, 102495, Tempo, 368098
1, 102500, Tempo, 365854
1, 102505, Tempo, 363636
1, 102510, Tempo, 361446
1, 102520, Tempo, 359281
1, 102525, Tempo, 357143
1, 102530, Tempo, 355030
1, 102535, Tempo, 352941
1, 102540, Tempo, 350877
1, 102545, Tempo, 346821
1, 102550, Tempo, 342857
1, 102555, Tempo, 340909
1, 102560, Tempo, 337079
1, 102565, Tempo, 333333
1, 102570, Tempo, 329670
1, 102575, Tempo, 327869
1, 102580, Tempo, 324324
1, 102585, Tempo, 320856
1, 102590, Tempo, 319149
1, 102595, Tempo, 315789
1, 102600, Tempo, 312500
1, 102605, Tempo, 309278
1, 102610, Tempo, 307692
1, 102615, Tempo, 304569
1, 102620, Tempo, 301508
1, 102625, Tempo, 298507
1, 103920, Tempo, 402685
1, 114240, Tempo, 428571
1, 123840, Tempo, 1578947
1, 124075, Tempo, 451128
1, 124080, Time_signature, 4, 2, 24, 8
1, 124085, Tempo, 447761
1, 124095, Tempo, 444444
1, 124100, Tempo, 441176
1, 124110, Tempo, 437956
1, 124115, Tempo, 434783
1, 124125, Tempo, 431655
1, 124135, Tempo, 428571
1, 124140, Tempo, 425532
1, 124150, Tempo, 422535
1, 124155, Tempo, 419580
1, 124165, Tempo, 416667
1, 124175, Tempo, 413793
1, 124180, Tempo, 410959
1, 124190, Tempo, 408163
1, 124195, Tempo, 405405
1, 124205, Tempo, 402685
1, 124215, Tempo, 400000
1, 124220, Tempo, 397351
1, 124230, Tempo, 394737
1, 124235, Tempo, 392157
1, 125035, Tempo, 394737
1, 125060, Tempo, 392157
1, 125085, Tempo, 389610
1, 125105, Tempo, 387097
1, 125130, Tempo, 384615
1, 125150, Tempo, 382166
1, 125175, Tempo, 379747
1, 125200, Tempo, 377358
1, 125220, Tempo, 375000
1, 125245, Tempo, 372671
1, 125265, Tempo, 370370
1, 125290, Tempo, 368098
1, 125310, Tempo, 365854
1, 125870, Tempo, 368098
1, 125890, Tempo, 365854
1, 125910, Tempo, 363636
1, 125930, Tempo, 361446
1, 125950, Tempo, 359281
1, 125970, Tempo, 357143
1, 125990, Tempo, 355030
1, 126010, Tempo, 352941
1, 126030, Tempo, 350877
1, 126050, Tempo, 348837
1, 126070, Tempo, 346821
1, 126090, Tempo, 344828
1, 126110, Tempo, 342857
1, 126130, Tempo, 340909
1, 126150, Tempo, 338983
1, 126170, Tempo, 337079
1, 128880, Time_signature, 2, 2, 24, 8
1, 129770, Tempo, 335196
1, 129780, Tempo, 337079
1, 129790, Tempo, 338983
1, 129800, Tempo, 340909
1, 129810, Tempo, 342857
1, 129820, Tempo, 344828
1, 129830, Tempo, 346821
1, 129840, Time_signature, 4, 2, 24, 8
1, 129840, Tempo, 348837
1, 129850, Tempo, 350877
1, 129855, Tempo, 352941
1, 130680, Tempo, 352941
1, 130695, Tempo, 350877
1, 130710, Tempo, 348837
1, 130725, Tempo, 346821
1, 130740, Tempo, 344828
1, 130755, Tempo, 342857
1, 130770, Tempo, 340909
1, 130785, Tempo, 338983
1, 130800, Time_signature, 2, 2, 24, 8
1, 130800, Tempo, 337079
1, 131755, Tempo, 338983
1, 131775, Tempo, 340909
1, 131795, Tempo, 342857
1, 131815, Tempo, 344828
1, 131830, Tempo, 346821
1, 131850, Tempo, 348837
1, 131870, Tempo, 350877
1, 131885, Tempo, 352941
1, 133680, Time_signature, 4, 2, 24, 8
1, 134640, Tempo, 355030
1, 134675, Tempo, 352941
1, 134710, Tempo, 350877
1, 134740, Tempo, 348837
1, 134775, Tempo, 346821
1, 134805, Tempo, 344828
1, 134840, Tempo, 342857
1, 134875, Tempo, 340909
1, 134905, Tempo, 338983
1, 134940, Tempo, 337079
1, 134970, Tempo, 335196
1, 135005, Tempo, 333333
1, 135040, Tempo, 331492
1, 135070, Tempo, 329670
1, 135105, Tempo, 327869
1, 135110, Tempo, 350877
1, 137040, Time_signature, 2, 2, 24, 8
1, 137040, Tempo, 447761
1, 144235, Tempo, 447761
1, 144270, Tempo, 444444
1, 144300, Tempo, 441176
1, 144330, Tempo, 437956
1, 144360, Tempo, 434783
1, 144390, Tempo, 431655
1, 144420, Tempo, 428571
1, 144450, Tempo, 425532
1, 144480, Tempo, 422535
1, 144510, Tempo, 419580
1, 144540, Tempo, 416667
1, 144570, Tempo, 413793
1, 144600, Tempo, 410959
1, 144630, Tempo, 408163
1, 144660, Tempo, 405405
1, 144690, Tempo, 402685
1, 147120, Tempo, 402685
1, 147140, Tempo, 405405
1, 147160, Tempo, 408163
1, 147165, Tempo, 410959
1, 147190, Tempo, 413793
1, 147200, Tempo, 416667
1, 147225, Tempo, 419580
1, 147250, Tempo, 422535
1, 147285, Tempo, 425532
1, 147300, Tempo, 428571
1, 147330, Tempo, 431655
1, 147335, Tempo, 434783
1, 147385, Tempo, 437956
1, 147420, Tempo, 441176
1, 147445, Tempo, 444444
1, 147470, Tempo, 447761
1, 148470, Tempo, 451128
1, 148515, Tempo, 454545
1, 148545, Tempo, 458015
1, 148560, Tempo, 461538
1, 148600, Tempo, 468750
1, 148640, Tempo, 472441
1, 148670, Tempo, 480000
1, 148825, Tempo, 483871
1, 148845, Tempo, 480000
1, 149245, Tempo, 480000
1, 149250, Tempo, 483871
1, 149265, Tempo, 487805
1, 149305, Tempo, 491803
1, 149320, Tempo, 495868
1, 149365, Tempo, 500000
1, 149405, Tempo, 504202
1, 149470, Tempo, 508475
1, 149485, Tempo, 512821
1, 149525, Tempo, 517241
1, 149540, Tempo, 521739
1, 149690, Tempo, 526316
1, 149695, Tempo, 530973
1, 149730, Tempo, 526316
1, 149740, Tempo, 530973
1, 149750, Tempo, 540541
1, 149765, Tempo, 545455
1, 149815, Tempo, 566038
1, 149830, Tempo, 571429
1, 149835, Tempo, 576923
1, 149855, Tempo, 582524
1, 149860, Tempo, 588235
1, 149870, Tempo, 600000
1, 149875, Tempo, 606061
1, 149880, Tempo, 3000000
1, 149890, Tempo, 2857143
1, 149900, Tempo, 2727273
1, 149915, Tempo, 2608696
1, 149920, Tempo, 2500000
1, 149930, Tempo, 2307692
1, 149935, Tempo, 2000000
1, 149940, Tempo, 1764706
1, 149945, Tempo, 1666667
1, 149950, Tempo, 1578947
1, 149955, Tempo, 1538462
1, 149960, Tempo, 1111111
1, 149965, Tempo, 1071429
1, 149975, Tempo, 1034483
1, 149980, Tempo, 1000000
1, 149990, Tempo, 967742
1, 149995, Tempo, 952381
1, 150000, Tempo, 909091
1, 150005, Tempo, 895522
1, 150010, Tempo, 857143
1, 150015, Tempo, 769231
1, 150020, Tempo, 750000
1, 150030, Tempo, 722892
1, 150035, Tempo, 697674
1, 150045, Tempo, 666667
1, 150050, Tempo, 645161
1, 150055, Tempo, 638298
1, 150065, Tempo, 618557
1, 150075, Tempo, 600000
1, 150080, Tempo, 588235
1, 150095, Tempo, 566038
1, 150105, Tempo, 555556
1, 150110, Tempo, 545455
1, 150120, Tempo, 530973
1, 150130, Tempo, 517241
1, 150135, Tempo, 500000
1, 150140, Tempo, 491803
1, 150150, Tempo, 483871
1, 150155, Tempo, 468750
1, 150160, Tempo, 444444
1, 150165, Tempo, 434783
1, 150170, Tempo, 425532
1, 150175, Tempo, 422535
1, 150180, Tempo, 413793
1, 150185, Tempo, 408163
1, 150190, Tempo, 402685
1, 150200, Tempo, 400000
1, 150210, Tempo, 394737
1, 150225, Tempo, 389610
1, 150235, Tempo, 384615
1, 150240, Tempo, 382166
1, 150245, Tempo, 375000
1, 150250, Tempo, 377358
1, 150255, Tempo, 375000
1, 150260, Tempo, 372671
1, 150280, Tempo, 370370
1, 150290, Tempo, 368098
1, 150315, Tempo, 365854
1, 150350, Tempo, 361446
1, 150370, Tempo, 359281
1, 150385, Tempo, 357143
1, 150415, Tempo, 355030
1, 150425, Tempo, 352941
1, 150445, Tempo, 350877
1, 150450, Tempo, 348837
1, 150475, Tempo, 346821
1, 150485, Tempo, 344828
1, 150510, Tempo, 342857
1, 150520, Tempo, 340909
1, 150550, Tempo, 338983
1, 150575, Tempo, 337079
1, 150640, Tempo, 338983
1, 150720, Tempo, 340909
1, 150745, Tempo, 342857
1, 150755, Tempo, 344828
1, 150785, Tempo, 348837
1, 150810, Tempo, 350877
1, 150845, Tempo, 352941
1, 150875, Tempo, 357143
1, 150885, Tempo, 359281
1, 151050, Tempo, 357143
1, 151070, Tempo, 355030
1, 151095, Tempo, 352941
1, 151130, Tempo, 348837
1, 151145, Tempo, 346821
1, 151160, Tempo, 342857
1, 151185, Tempo, 340909
1, 151195, Tempo, 338983
1, 151205, Tempo, 337079
1, 151225, Tempo, 335196
1, 151240, Tempo, 333333
1, 151270, Tempo, 331492
1, 156715, Tempo, 335196
1, 156720, Tempo, 333333
1, 156725, Tempo, 331492
1, 156730, Tempo, 329670
1, 156735, Tempo, 327869
1, 156740, Tempo, 326087
1, 156745, Tempo, 324324
1, 156750, Tempo, 322581
1, 156755, Tempo, 319149
1, 156760, Tempo, 317460
1, 156765, Tempo, 315789
1, 156770, Tempo, 314136
1, 156775, Tempo, 312500
1, 156780, Tempo, 310881
1, 156785, Tempo, 307692
1, 156790, Tempo, 306122
1, 156795, Tempo, 304569
1, 156800, Tempo, 303030
1, 156805, Tempo, 301508
1, 156810, Tempo, 300000
1, 156815, Tempo, 298507
1, 156820, Tempo, 295567
1, 156825, Tempo, 294118
1, 156830, Tempo, 292683
1, 156835, Tempo, 291262
1, 156840, Tempo, 289855
1, 156845, Tempo, 288462
1, 156850, Tempo, 285714
1, 159600, Tempo, 287081
1, 159625, Tempo, 288462
1, 159650, Tempo, 289855
1, 159675, Tempo, 291262
1, 159695, Tempo, 292683
1, 159720, Tempo, 294118
1, 159745, Tempo, 295567
1, 159765, Tempo, 297030
1, 159790, Tempo, 298507
1, 159815, Tempo, 300000
1, 159835, Tempo, 301508
1, 159950, Tempo, 301508
1, 159970, Tempo, 303030
1, 159990, Tempo, 304569
1, 160005, Tempo, 306122
1, 160025, Tempo, 307692
1, 160045, Tempo, 309278
1, 160060, Tempo, 310881
1, 160060, End_track
2, 0, Start_track
2, 0, MIDI_port, 0
2, 0, Title_t, "Flutes"
2, 0, Control_c, 1, 0, 0
2, 0, Control_c, 1, 32, 0
2, 0, Program_c, 1, 73
2, 0, Control_c, 1, 7, 100
2, 0, Control_c, 1, 10, 53
2, 0, Control_c, 1, 93, 0
2, 0, Control_c, 1, 91, 66
2, 7320, Note_on_c, 1, 91, 45
2, 7350, Note_on_c, 1, 91, 0
2, 7350, Note_on_c, 1, 88, 53
2, 7380, Note_on_c, 1, 88, 0
2, 7380, Note_on_c, 1, 86, 50
2, 7410, Note_on_c, 1, 86, 0
2, 7440, Note_on_c, 1, 88, 72
2, 7560, Note_on_c, 1, 88, 0
2, 7620, Note_on_c, 1, 88, 65
2, 7650, Note_on_c, 1, 88, 0
2, 7650, Note_on_c, 1, 88, 77
2, 7680, Note_on_c, 1, 88, 0
2, 7680, Note_on_c, 1, 88, 73
2, 7800, Note_on_c, 1, 88, 0
2, 7860, Note_on_c, 1, 88, 72
2, 7890, Note_on_c, 1, 88, 0
2, 7890, Note_on_c, 1, 88, 70
2, 7920, Note_on_c, 1, 88, 0
2, 7920, Note_on_c, 1, 88, 80
2, 7980, Note_on_c, 1, 88, 0
2, 8040, Note_on_c, 1, 88, 60
2, 8070, Note_on_c, 1, 88, 0
2, 8100, Note_on_c, 1, 88, 76
2, 8130, Note_on_c, 1, 88, 0
2, 8160, Note_on_c, 1, 88, 81
2, 8190, Note_on_c, 1, 88, 0
2, 8400, Note_on_c, 1, 88, 81
2, 8460, Note_on_c, 1, 88, 0
2, 8520, Note_on_c, 1, 84, 78
2, 8580, Note_on_c, 1, 84, 0
2, 8640, Note_on_c, 1, 81, 74
2, 8700, Note_on_c, 1, 81, 0
2, 8880, Note_on_c, 1, 81, 71
2, 8940, Note_on_c, 1, 81, 0
2, 9000, Note_on_c, 1, 86, 80
2, 9060, Note_on_c, 1, 86, 0
2, 9120, Note_on_c, 1, 83, 80
2, 9180, Note_on_c, 1, 83, 0
2, 9240, Note_on_c, 1, 79, 80
2, 9300, Note_on_c, 1, 79, 0
2, 9360, Note_on_c, 1, 81, 53
2, 9420, Note_on_c, 1, 81, 0
2, 9480, Note_on_c, 1, 74, 73
2, 9540, Note_on_c, 1, 74, 0
2, 9600, Note_on_c, 1, 86, 90
2, 9840, Note_on_c, 1, 86, 0
2, 9840, Note_on_c, 1, 84, 69
2, 9960, Note_on_c, 1, 84, 0
2, 9960, Note_on_c, 1, 83, 71
2, 10080, Note_on_c, 1, 83, 0
2, 10080, Note_on_c, 1, 81, 68
2, 10200, Note_on_c, 1, 81, 0
2, 10200, Note_on_c, 1, 79, 64
2, 10260, Note_on_c, 1, 79, 0
2, 10260, Note_on_c, 1, 79, 59
2, 10320, Note_on_c, 1, 79, 0
2, 10320, Note_on_c, 1, 81, 62
2, 10380, Note_on_c, 1, 81, 0
2, 10380, Note_on_c, 1, 81, 84
2, 10440, Note_on_c, 1, 81, 0
2, 10440, Note_on_c, 1, 78, 76
2, 10500, Note_on_c, 1, 78, 0
2, 10500, Note_on_c, 1, 78, 74
2, 10520, Note_on_c, 1, 78, 0
2, 10520, Note_on_c, 1, 79, 69
2, 10540, Note_on_c, 1, 79, 0
2, 10540, Note_on_c, 1, 78, 81
2, 10560, Note_on_c, 1, 78, 0
2, 11520, Note_on_c, 1, 83, 80
2, 11760, Note_on_c, 1, 83, 0
2, 11820, Note_on_c, 1, 83, 81
2, 11880, Note_on_c, 1, 83, 0
2, 11940, Note_on_c, 1, 83, 84
2, 12000, Note_on_c, 1, 83, 0
2, 12060, Note_on_c, 1, 83, 85
2, 12120, Note_on_c, 1, 83, 0
2, 12180, Note_on_c, 1, 88, 89
2, 12240, Note_on_c, 1, 88, 0
2, 12300, Note_on_c, 1, 90, 76
2, 12360, Note_on_c, 1, 90, 0
2, 12360, Note_on_c, 1, 87, 84
2, 12420, Note_on_c, 1, 87, 0
2, 12420, Note_on_c, 1, 87, 84
2, 12430, Note_on_c, 1, 87, 0
2, 12430, Note_on_c, 1, 88, 82
2, 12440, Note_on_c, 1, 88, 0
2, 12440, Note_on_c, 1, 87, 84
2, 12450, Note_on_c, 1, 87, 0
2, 12450, Note_on_c, 1, 85, 76
2, 12465, Note_on_c, 1, 85, 0
2, 12465, Note_on_c, 1, 87, 84
2, 12480, Note_on_c, 1, 87, 0
2, 13380, Note_on_c, 1, 88, 71
2, 13440, Note_on_c, 1, 88, 0
2, 13440, Note_on_c, 1, 88, 84
2, 13500, Note_on_c, 1, 88, 0
2, 13500, Note_on_c, 1, 88, 74
2, 13560, Note_on_c, 1, 88, 0
2, 13560, Note_on_c, 1, 88, 80
2, 13620, Note_on_c, 1, 88, 0
2, 13620, Note_on_c, 1, 88, 84
2, 13680, Note_on_c, 1, 88, 0
2, 13920, Note_on_c, 1, 88, 86
2, 13980, Note_on_c, 1, 88, 0
2, 13980, Note_on_c, 1, 88, 86
2, 14040, Note_on_c, 1, 88, 0
2, 14040, Note_on_c, 1, 88, 81
2, 14100, Note_on_c, 1, 88, 0
2, 14100, Note_on_c, 1, 88, 82
2, 14160, Note_on_c, 1, 88, 0
2, 23760, Note_on_c, 1, 81, 43
2, 24480, Note_on_c, 1, 81, 0
2, 24480, Note_on_c, 1, 83, 43
2, 24600, Note_on_c, 1, 83, 0
2, 24600, Note_on_c, 1, 85, 45
2, 24720, Note_on_c, 1, 85, 0
2, 24720, Note_on_c, 1, 86, 58
2, 25440, Note_on_c, 1, 86, 0
2, 25440, Note_on_c, 1, 85, 74
2, 25560, Note_on_c, 1, 85, 0
2, 25560, Note_on_c, 1, 86, 67
2, 25620, Note_on_c, 1, 86, 0
2, 25620, Note_on_c, 1, 88, 44
2, 25680, Note_on_c, 1, 88, 0
2, 25680, Note_on_c, 1, 86, 41
2, 25860, Note_on_c, 1, 86, 0
2, 25860, Note_on_c, 1, 85, 42
2, 26040, Note_on_c, 1, 85, 0
2, 26040, Note_on_c, 1, 86, 56
2, 26100, Note_on_c, 1, 86, 0
2, 26100, Note_on_c, 1, 88, 43
2, 26160, Note_on_c, 1, 88, 0
2, 26160, Note_on_c, 1, 86, 85
2, 26190, Note_on_c, 1, 86, 0
2, 26220, Note_on_c, 1, 78, 94
2, 26250, Note_on_c, 1, 78, 0
2, 26700, Note_on_c, 1, 79, 95
2, 26760, Note_on_c, 1, 79, 0
2, 27180, Note_on_c, 1, 78, 90
2, 27240, Note_on_c, 1, 78, 0
2, 27660, Note_on_c, 1, 79, 89
2, 27720, Note_on_c, 1, 79, 0
2, 28140, Note_on_c, 1, 78, 80
2, 28200, Note_on_c, 1, 78, 0
2, 28380, Note_on_c, 1, 88, 93
2, 28440, Note_on_c, 1, 88, 0
2, 28620, Note_on_c, 1, 86, 61
2, 28680, Note_on_c, 1, 86, 0
2, 28740, Note_on_c, 1, 84, 45
2, 28800, Note_on_c, 1, 84, 0
2, 28860, Note_on_c, 1, 83, 61
2, 28920, Note_on_c, 1, 83, 0
2, 28980, Note_on_c, 1, 81, 50
2, 29040, Note_on_c, 1, 81, 0
2, 29100, Note_on_c, 1, 79, 44
2, 29160, Note_on_c, 1, 79, 0
2, 29220, Note_on_c, 1, 79, 54
2, 29280, Note_on_c, 1, 79, 0
2, 29280, Note_on_c, 1, 76, 62
2, 29340, Note_on_c, 1, 76, 0
2, 29580, Note_on_c, 1, 78, 29
2, 29640, Note_on_c, 1, 78, 0
2, 30060, Note_on_c, 1, 79, 39
2, 30120, Note_on_c, 1, 79, 0
2, 30540, Note_on_c, 1, 78, 35
2, 30600, Note_on_c, 1, 78, 0
2, 31020, Note_on_c, 1, 77, 29
2, 31080, Note_on_c, 1, 77, 0
2, 31500, Note_on_c, 1, 77, 35
2, 31560, Note_on_c, 1, 77, 0
2, 31980, Note_on_c, 1, 77, 95
2, 32160, Control_c, 1, 7, 98
2, 32170, Control_c, 1, 7, 96
2, 32180, Control_c, 1, 7, 94
2, 32190, Control_c, 1, 7, 92
2, 32200, Control_c, 1, 7, 90
2, 32210, Control_c, 1, 7, 88
2, 32220, Control_c, 1, 7, 86
2, 32230, Control_c, 1, 7, 84
2, 32240, Control_c, 1, 7, 82
2, 32250, Control_c, 1, 7, 80
2, 32260, Control_c, 1, 7, 78
2, 32270, Control_c, 1, 7, 76
2, 32280, Control_c, 1, 7, 74
2, 32290, Control_c, 1, 7, 72
2, 32300, Control_c, 1, 7, 70
2, 32310, Control_c, 1, 7, 68
2, 32320, Control_c, 1, 7, 66
2, 32330, Control_c, 1, 7, 64
2, 32340, Control_c, 1, 7, 62
2, 32640, Note_on_c, 1, 77, 0
2, 32640, Note_on_c, 1, 77, 94
2, 32700, Note_on_c, 1, 77, 0
2, 32760, Note_on_c, 1, 77, 93
2, 32820, Note_on_c, 1, 77, 0
2, 32880, Control_c, 1, 7, 99
2, 32940, Note_on_c, 1, 77, 94
2, 33120, Control_c, 1, 7, 98
2, 33130, Control_c, 1, 7, 96
2, 33140, Control_c, 1, 7, 94
2, 33150, Control_c, 1, 7, 92
2, 33160, Control_c, 1, 7, 90
2, 33170, Control_c, 1, 7, 88
2, 33180, Control_c, 1, 7, 86
2, 33190, Control_c, 1, 7, 84
2, 33200, Control_c, 1, 7, 82
2, 33210, Control_c, 1, 7, 79
2, 33220, Control_c, 1, 7, 77
2, 33230, Control_c, 1, 7, 75
2, 33240, Control_c, 1, 7, 73
2, 33250, Control_c, 1, 7, 71
2, 33260, Control_c, 1, 7, 69
2, 33270, Control_c, 1, 7, 67
2, 33280, Control_c, 1, 7, 65
2, 33290, Control_c, 1, 7, 62
2, 33600, Note_on_c, 1, 77, 0
2, 33600, Control_c, 1, 7, 63
2, 33600, Note_on_c, 1, 77, 67
2, 33610, Control_c, 1, 7, 75
2, 33620, Control_c, 1, 7, 87
2, 33630, Control_c, 1, 7, 99
2, 33660, Note_on_c, 1, 77, 0
2, 33720, Note_on_c, 1, 77, 69
2, 33780, Note_on_c, 1, 77, 0
2, 33840, Note_on_c, 1, 77, 68
2, 33900, Note_on_c, 1, 77, 0
2, 34260, Note_on_c, 1, 77, 64
2, 34290, Note_on_c, 1, 77, 0
2, 34290, Note_on_c, 1, 77, 64
2, 34320, Note_on_c, 1, 77, 0
2, 34320, Note_on_c, 1, 77, 56
2, 34380, Note_on_c, 1, 77, 0
2, 34740, Note_on_c, 1, 77, 64
2, 34770, Note_on_c, 1, 77, 0
2, 34770, Note_on_c, 1, 77, 50
2, 34800, Note_on_c, 1, 77, 0
2, 34800, Note_on_c, 1, 77, 60
2, 34860, Note_on_c, 1, 77, 0
2, 35820, Note_on_c, 1, 77, 45
2, 35850, Note_on_c, 1, 77, 0
2, 35850, Note_on_c, 1, 77, 61
2, 35880, Note_on_c, 1, 77, 0
2, 35880, Note_on_c, 1, 77, 61
2, 35940, Note_on_c, 1, 77, 0
2, 36300, Note_on_c, 1, 77, 49
2, 36330, Note_on_c, 1, 77, 0
2, 36330, Note_on_c, 1, 77, 45
2, 36360, Note_on_c, 1, 77, 0
2, 36360, Note_on_c, 1, 77, 59
2, 36420, Note_on_c, 1, 77, 0
2, 47880, Note_on_c, 1, 91, 45
2, 47910, Note_on_c, 1, 91, 0
2, 47910, Note_on_c, 1, 88, 53
2, 47940, Note_on_c, 1, 88, 0
2, 47940, Note_on_c, 1, 86, 50
2, 47970, Note_on_c, 1, 86, 0
2, 48000, Note_on_c, 1, 88, 72
2, 48120, Note_on_c, 1, 88, 0
2, 48180, Note_on_c, 1, 88, 65
2, 48210, Note_on_c, 1, 88, 0
2, 48210, Note_on_c, 1, 88, 77
2, 48240, Note_on_c, 1, 88, 0
2, 48240, Note_on_c, 1, 88, 73
2, 48360, Note_on_c, 1, 88, 0
2, 48420, Note_on_c, 1, 88, 72
2, 48450, Note_on_c, 1, 88, 0
2, 48450, Note_on_c, 1, 88, 70
2, 48480, Note_on_c, 1, 88, 0
2, 48480, Note_on_c, 1, 88, 80
2, 48540, Note_on_c, 1, 88, 0
2, 48600, Note_on_c, 1, 88, 60
2, 48630, Note_on_c, 1, 88, 0
2, 48660, Note_on_c, 1, 88, 76
2, 48690, Note_on_c, 1, 88, 0
2, 48720, Note_on_c, 1, 88, 81
2, 48750, Note_on_c, 1, 88, 0
2, 48960, Note_on_c, 1, 88, 81
2, 49020, Note_on_c, 1, 88, 0
2, 49080, Note_on_c, 1, 84, 78
2, 49140, Note_on_c, 1, 84, 0
2, 49200, Note_on_c, 1, 81, 74
2, 49260, Note_on_c, 1, 81, 0
2, 49440, Note_on_c, 1, 81, 71
2, 49500, Note_on_c, 1, 81, 0
2, 49560, Note_on_c, 1, 86, 80
2, 49620, Note_on_c, 1, 86, 0
2, 49680, Note_on_c, 1, 83, 80
2, 49740, Note_on_c, 1, 83, 0
2, 49800, Note_on_c, 1, 79, 80
2, 49860, Note_on_c, 1, 79, 0
2, 49920, Note_on_c, 1, 81, 53
2, 49980, Note_on_c, 1, 81, 0
2, 50040, Note_on_c, 1, 74, 73
2, 50100, Note_on_c, 1, 74, 0
2, 50160, Note_on_c, 1, 86, 90
2, 50400, Note_on_c, 1, 86, 0
2, 50400, Note_on_c, 1, 84, 69
2, 50520, Note_on_c, 1, 84, 0
2, 50520, Note_on_c, 1, 83, 71
2, 50640, Note_on_c, 1, 83, 0
2, 50640, Note_on_c, 1, 81, 68
2, 50760, Note_on_c, 1, 81, 0
2, 50760, Note_on_c, 1, 79, 64
2, 50820, Note_on_c, 1, 79, 0
2, 50820, Note_on_c, 1, 79, 59
2, 50880, Note_on_c, 1, 79, 0
2, 50880, Note_on_c, 1, 81, 62
2, 50940, Note_on_c, 1, 81, 0
2, 50940, Note_on_c, 1, 81, 84
2, 51000, Note_on_c, 1, 81, 0
2, 51000, Note_on_c, 1, 78, 76
2, 51060, Note_on_c, 1, 78, 0
2, 51060, Note_on_c, 1, 78, 74
2, 51080, Note_on_c, 1, 78, 0
2, 51080, Note_on_c, 1, 79, 69
2, 51100, Note_on_c, 1, 79, 0
2, 51100, Note_on_c, 1, 78, 81
2, 51120, Note_on_c, 1, 78, 0
2, 52080, Note_on_c, 1, 82, 70
2, 52260, Note_on_c, 1, 82, 0
2, 52260, Note_on_c, 1, 82, 64
2, 52320, Note_on_c, 1, 82, 0
2, 52320, Note_on_c, 1, 82, 69
2, 52380, Note_on_c, 1, 82, 0
2, 52380, Note_on_c, 1, 82, 57
2, 52440, Note_on_c, 1, 82, 0
2, 52440, Note_on_c, 1, 82, 64
2, 52500, Note_on_c, 1, 82, 0
2, 52500, Note_on_c, 1, 82, 65
2, 52560, Note_on_c, 1, 82, 0
2, 52560, Note_on_c, 1, 82, 66
2, 52620, Note_on_c, 1, 82, 0
2, 52620, Note_on_c, 1, 82, 78
2, 52680, Note_on_c, 1, 82, 0
2, 52680, Note_on_c, 1, 82, 64
2, 52740, Note_on_c, 1, 82, 0
2, 52740, Note_on_c, 1, 87, 64
2, 52800, Note_on_c, 1, 87, 0
2, 52800, Note_on_c, 1, 89, 82
2, 52860, Note_on_c, 1, 89, 0
2, 52860, Note_on_c, 1, 89, 86
2, 52920, Note_on_c, 1, 89, 0
2, 52920, Note_on_c, 1, 86, 84
2, 52980, Note_on_c, 1, 86, 0
2, 52980, Note_on_c, 1, 86, 89
2, 53000, Note_on_c, 1, 86, 0
2, 53000, Note_on_c, 1, 87, 84
2, 53020, Note_on_c, 1, 87, 0
2, 53020, Note_on_c, 1, 86, 93
2, 53040, Note_on_c, 1, 86, 0
2, 55920, Note_on_c, 1, 79, 32
2, 55950, Note_on_c, 1, 79, 0
2, 56040, Note_on_c, 1, 82, 37
2, 56070, Note_on_c, 1, 82, 0
2, 56100, Note_on_c, 1, 87, 29
2, 56130, Note_on_c, 1, 87, 0
2, 56160, Note_on_c, 1, 91, 44
2, 56190, Note_on_c, 1, 91, 0
2, 56400, Note_on_c, 1, 91, 41
2, 56430, Note_on_c, 1, 91, 0
2, 56460, Note_on_c, 1, 89, 40
2, 56475, Note_on_c, 1, 89, 0
2, 56490, Note_on_c, 1, 91, 38
2, 56505, Note_on_c, 1, 91, 0
2, 56520, Note_on_c, 1, 87, 39
2, 56550, Note_on_c, 1, 87, 0
2, 56580, Note_on_c, 1, 86, 33
2, 56595, Note_on_c, 1, 86, 0
2, 56610, Note_on_c, 1, 87, 36
2, 56625, Note_on_c, 1, 87, 0
2, 56640, Note_on_c, 1, 84, 43
2, 56670, Note_on_c, 1, 84, 0
2, 58800, Note_on_c, 1, 73, 40
2, 58830, Note_on_c, 1, 73, 0
2, 58920, Note_on_c, 1, 77, 40
2, 58950, Note_on_c, 1, 77, 0
2, 58980, Note_on_c, 1, 82, 33
2, 59010, Note_on_c, 1, 82, 0
2, 59040, Note_on_c, 1, 85, 43
2, 59070, Note_on_c, 1, 85, 0
2, 59280, Note_on_c, 1, 85, 37
2, 59310, Note_on_c, 1, 85, 0
2, 59340, Note_on_c, 1, 84, 43
2, 59355, Note_on_c, 1, 84, 0
2, 59370, Note_on_c, 1, 85, 43
2, 59385, Note_on_c, 1, 85, 0
2, 59400, Note_on_c, 1, 82, 43
2, 59430, Note_on_c, 1, 82, 0
2, 59460, Note_on_c, 1, 80, 43
2, 59475, Note_on_c, 1, 80, 0
2, 59490, Note_on_c, 1, 82, 40
2, 59505, Note_on_c, 1, 82, 0
2, 59520, Note_on_c, 1, 79, 41
2, 59550, Note_on_c, 1, 79, 0
2, 59760, Note_on_c, 1, 77, 84
2, 59880, Control_c, 1, 7, 98
2, 59885, Control_c, 1, 7, 96
2, 59890, Control_c, 1, 7, 94
2, 59895, Control_c, 1, 7, 91
2, 59900, Control_c, 1, 7, 89
2, 59905, Control_c, 1, 7, 86
2, 59910, Control_c, 1, 7, 84
2, 59915, Control_c, 1, 7, 82
2, 59920, Control_c, 1, 7, 79
2, 59925, Control_c, 1, 7, 77
2, 59930, Control_c, 1, 7, 74
2, 59935, Control_c, 1, 7, 72
2, 59940, Control_c, 1, 7, 70
2, 59945, Control_c, 1, 7, 67
2, 59950, Control_c, 1, 7, 65
2, 59955, Control_c, 1, 7, 62
2, 60720, Note_on_c, 1, 77, 0
2, 60720, Control_c, 1, 7, 99
2, 60720, Note_on_c, 1, 79, 85
2, 60840, Control_c, 1, 7, 98
2, 60845, Control_c, 1, 7, 97
2, 60850, Control_c, 1, 7, 95
2, 60855, Control_c, 1, 7, 93
2, 60860, Control_c, 1, 7, 91
2, 60865, Control_c, 1, 7, 89
2, 60870, Control_c, 1, 7, 87
2, 60875, Control_c, 1, 7, 85
2, 60880, Control_c, 1, 7, 83
2, 60885, Control_c, 1, 7, 81
2, 60890, Control_c, 1, 7, 79
2, 60895, Control_c, 1, 7, 77
2, 60900, Control_c, 1, 7, 75
2, 60905, Control_c, 1, 7, 73
2, 60910, Control_c, 1, 7, 71
2, 60915, Control_c, 1, 7, 69
2, 60920, Control_c, 1, 7, 67
2, 60925, Control_c, 1, 7, 65
2, 60930, Control_c, 1, 7, 63
2, 61680, Note_on_c, 1, 79, 0
2, 61680, Control_c, 1, 7, 100
2, 61680, Note_on_c, 1, 81, 89
2, 61740, Note_on_c, 1, 81, 0
2, 63300, Note_on_c, 1, 81, 43
2, 63330, Note_on_c, 1, 81, 0
2, 63330, Note_on_c, 1, 81, 41
2, 63360, Note_on_c, 1, 81, 0
2, 63360, Note_on_c, 1, 81, 39
2, 63420, Note_on_c, 1, 81, 0
2, 63540, Note_on_c, 1, 81, 42
2, 63570, Note_on_c, 1, 81, 0
2, 63570, Note_on_c, 1, 81, 45
2, 63600, Note_on_c, 1, 81, 0
2, 63600, Note_on_c, 1, 86, 41
2, 63660, Note_on_c, 1, 86, 0
2, 64260, Note_on_c, 1, 86, 29
2, 64290, Note_on_c, 1, 86, 0
2, 64290, Note_on_c, 1, 86, 37
2, 64320, Note_on_c, 1, 86, 0
2, 64320, Note_on_c, 1, 86, 41
2, 64380, Note_on_c, 1, 86, 0
2, 64500, Note_on_c, 1, 86, 38
2, 64530, Note_on_c, 1, 86, 0
2, 64530, Note_on_c, 1, 86, 38
2, 64560, Note_on_c, 1, 86, 0
2, 64560, Note_on_c, 1, 86, 41
2, 64620, Note_on_c, 1, 86, 0
2, 65220, Note_on_c, 1, 86, 32
2, 65250, Note_on_c, 1, 86, 0
2, 65250, Note_on_c, 1, 86, 38
2, 65280, Note_on_c, 1, 86, 0
2, 65280, Note_on_c, 1, 86, 38
2, 65340, Note_on_c, 1, 86, 0
2, 65460, Note_on_c, 1, 86, 43
2, 65490, Note_on_c, 1, 86, 0
2, 65490, Note_on_c, 1, 86, 43
2, 65520, Note_on_c, 1, 86, 0
2, 65520, Note_on_c, 1, 84, 47
2, 65580, Note_on_c, 1, 84, 0
2, 66180, Note_on_c, 1, 84, 41
2, 66210, Note_on_c, 1, 84, 0
2, 66210, Note_on_c, 1, 84, 43
2, 66240, Note_on_c, 1, 84, 0
2, 66240, Note_on_c, 1, 84, 38
2, 66300, Note_on_c, 1, 84, 0
2, 66420, Note_on_c, 1, 84, 38
2, 66450, Note_on_c, 1, 84, 0
2, 66450, Note_on_c, 1, 84, 39
2, 66480, Note_on_c, 1, 84, 0
2, 66480, Note_on_c, 1, 85, 43
2, 66540, Note_on_c, 1, 85, 0
2, 67140, Note_on_c, 1, 85, 37
2, 67170, Note_on_c, 1, 85, 0
2, 67170, Note_on_c, 1, 85, 39
2, 67200, Note_on_c, 1, 85, 0
2, 67200, Note_on_c, 1, 85, 39
2, 67260, Note_on_c, 1, 85, 0
2, 67380, Note_on_c, 1, 85, 43
2, 67410, Note_on_c, 1, 85, 0
2, 67410, Note_on_c, 1, 85, 43
2, 67440, Note_on_c, 1, 85, 0
2, 67440, Note_on_c, 1, 86, 84
2, 67500, Note_on_c, 1, 86, 0
2, 79440, Note_on_c, 1, 86, 40
2, 79680, Note_on_c, 1, 86, 0
2, 79680, Note_on_c, 1, 79, 40
2, 79920, Note_on_c, 1, 79, 0
2, 79920, Note_on_c, 1, 81, 40
2, 80040, Note_on_c, 1, 81, 0
2, 80040, Note_on_c, 1, 83, 29
2, 80160, Note_on_c, 1, 83, 0
2, 80160, Control_c, 1, 7, 99
2, 80160, Note_on_c, 1, 84, 38
2, 80170, Control_c, 1, 7, 100
2, 80180, Control_c, 1, 7, 101
2, 80190, Control_c, 1, 7, 102
2, 80195, Control_c, 1, 7, 103
2, 80205, Control_c, 1, 7, 104
2, 80215, Control_c, 1, 7, 105
2, 80225, Control_c, 1, 7, 106
2, 80230, Control_c, 1, 7, 107
2, 80240, Control_c, 1, 7, 108
2, 80250, Control_c, 1, 7, 109
2, 80260, Control_c, 1, 7, 110
2, 80265, Control_c, 1, 7, 111
2, 80275, Control_c, 1, 7, 112
2, 80285, Control_c, 1, 7, 113
2, 80295, Control_c, 1, 7, 114
2, 80300, Control_c, 1, 7, 115
2, 80310, Control_c, 1, 7, 116
2, 80320, Control_c, 1, 7, 117
2, 80330, Control_c, 1, 7, 118
2, 80335, Control_c, 1, 7, 119
2, 80345, Control_c, 1, 7, 120
2, 80355, Control_c, 1, 7, 121
2, 80365, Control_c, 1, 7, 122
2, 80370, Control_c, 1, 7, 123
2, 80380, Control_c, 1, 7, 124
2, 80390, Control_c, 1, 7, 125
2, 80400, Note_on_c, 1, 84, 0
2, 80400, Control_c, 1, 7, 126
2, 80400, Note_on_c, 1, 84, 71
2, 80405, Control_c, 1, 7, 127
2, 80415, Control_c, 1, 7, 126
2, 80425, Control_c, 1, 7, 125
2, 80435, Control_c, 1, 7, 124
2, 80445, Control_c, 1, 7, 123
2, 80450, Control_c, 1, 7, 122
2, 80460, Control_c, 1, 7, 121
2, 80470, Control_c, 1, 7, 120
2, 80480, Control_c, 1, 7, 119
2, 80485, Control_c, 1, 7, 118
2, 80495, Control_c, 1, 7, 117
2, 80505, Control_c, 1, 7, 116
2, 80515, Control_c, 1, 7, 115
2, 80525, Control_c, 1, 7, 114
2, 80530, Control_c, 1, 7, 113
2, 80540, Control_c, 1, 7, 112
2, 80550, Control_c, 1, 7, 111
2, 80560, Control_c, 1, 7, 110
2, 80565, Control_c, 1, 7, 109
2, 80575, Control_c, 1, 7, 108
2, 80585, Control_c, 1, 7, 107
2, 80595, Control_c, 1, 7, 106
2, 80605, Control_c, 1, 7, 105
2, 80610, Control_c, 1, 7, 104
2, 80620, Control_c, 1, 7, 103
2, 80630, Control_c, 1, 7, 102
2, 80640, Note_on_c, 1, 84, 0
2, 80640, Control_c, 1, 7, 101
2, 80640, Note_on_c, 1, 83, 43
2, 80645, Control_c, 1, 7, 100
2, 80760, Note_on_c, 1, 83, 0
2, 80760, Note_on_c, 1, 84, 43
2, 81120, Note_on_c, 1, 84, 0
2, 81120, Note_on_c, 1, 83, 73
2, 81150, Note_on_c, 1, 83, 0
2, 81180, Note_on_c, 1, 83, 74
2, 81210, Note_on_c, 1, 83, 0
2, 81660, Note_on_c, 1, 84, 81
2, 81720, Note_on_c, 1, 84, 0
2, 82140, Note_on_c, 1, 83, 76
2, 82200, Note_on_c, 1, 83, 0
2, 82620, Note_on_c, 1, 84, 67
2, 82680, Note_on_c, 1, 84, 0
2, 83100, Note_on_c, 1, 83, 84
2, 83160, Note_on_c, 1, 83, 0
2, 83340, Note_on_c, 1, 81, 77
2, 83400, Note_on_c, 1, 81, 0
2, 83580, Note_on_c, 1, 79, 45
2, 83640, Note_on_c, 1, 79, 0
2, 83700, Note_on_c, 1, 89, 51
2, 83760, Note_on_c, 1, 89, 0
2, 83820, Note_on_c, 1, 88, 50
2, 83880, Note_on_c, 1, 88, 0
2, 83940, Note_on_c, 1, 86, 44
2, 84000, Note_on_c, 1, 86, 0
2, 84060, Note_on_c, 1, 84, 58
2, 84120, Note_on_c, 1, 84, 0
2, 84180, Note_on_c, 1, 88, 56
2, 84240, Note_on_c, 1, 88, 0
2, 84240, Note_on_c, 1, 81, 40
2, 84300, Note_on_c, 1, 81, 0
2, 84540, Note_on_c, 1, 83, 38
2, 84600, Note_on_c, 1, 83, 0
2, 85020, Note_on_c, 1, 84, 29
2, 85080, Note_on_c, 1, 84, 0
2, 85500, Note_on_c, 1, 83, 32
2, 85560, Note_on_c, 1, 83, 0
2, 85980, Note_on_c, 1, 82, 33
2, 86040, Note_on_c, 1, 82, 0
2, 86460, Note_on_c, 1, 82, 29
2, 86520, Note_on_c, 1, 82, 0
2, 86940, Note_on_c, 1, 79, 84
2, 87075, Control_c, 1, 7, 99
2, 87080, Control_c, 1, 7, 98
2, 87085, Control_c, 1, 7, 97
2, 87090, Control_c, 1, 7, 95
2, 87095, Control_c, 1, 7, 94
2, 87100, Control_c, 1, 7, 92
2, 87105, Control_c, 1, 7, 91
2, 87110, Control_c, 1, 7, 89
2, 87115, Control_c, 1, 7, 88
2, 87120, Control_c, 1, 7, 86
2, 87125, Control_c, 1, 7, 85
2, 87130, Control_c, 1, 7, 84
2, 87135, Control_c, 1, 7, 82
2, 87140, Control_c, 1, 7, 81
2, 87145, Control_c, 1, 7, 79
2, 87150, Control_c, 1, 7, 78
2, 87155, Control_c, 1, 7, 76
2, 87160, Control_c, 1, 7, 75
2, 87165, Control_c, 1, 7, 73
2, 87600, Note_on_c, 1, 79, 0
2, 87600, Note_on_c, 1, 79, 81
2, 87660, Note_on_c, 1, 79, 0
2, 87720, Note_on_c, 1, 79, 84
2, 87780, Note_on_c, 1, 79, 0
2, 87870, Control_c, 1, 7, 100
2, 87900, Note_on_c, 1, 79, 81
2, 88055, Control_c, 1, 7, 100
2, 88060, Control_c, 1, 7, 99
2, 88065, Control_c, 1, 7, 98
2, 88070, Control_c, 1, 7, 96
2, 88075, Control_c, 1, 7, 95
2, 88080, Control_c, 1, 7, 93
2, 88085, Control_c, 1, 7, 92
2, 88090, Control_c, 1, 7, 90
2, 88095, Control_c, 1, 7, 89
2, 88100, Control_c, 1, 7, 87
2, 88105, Control_c, 1, 7, 86
2, 88110, Control_c, 1, 7, 84
2, 88115, Control_c, 1, 7, 83
2, 88120, Control_c, 1, 7, 81
2, 88125, Control_c, 1, 7, 80
2, 88130, Control_c, 1, 7, 78
2, 88135, Control_c, 1, 7, 77
2, 88140, Control_c, 1, 7, 75
2, 88560, Note_on_c, 1, 79, 0
2, 88560, Note_on_c, 1, 79, 84
2, 88620, Note_on_c, 1, 79, 0
2, 88680, Note_on_c, 1, 79, 81
2, 88740, Note_on_c, 1, 79, 0
2, 88800, Note_on_c, 1, 79, 78
2, 88920, Note_on_c, 1, 79, 0
2, 88940, Control_c, 1, 7, 100
2, 89220, Note_on_c, 1, 79, 50
2, 89250, Note_on_c, 1, 79, 0
2, 89250, Note_on_c, 1, 79, 42
2, 89280, Note_on_c, 1, 79, 0
2, 89280, Note_on_c, 1, 79, 32
2, 89400, Note_on_c, 1, 79, 0
2, 89700, Note_on_c, 1, 79, 30
2, 89730, Note_on_c, 1, 79, 0
2, 89730, Note_on_c, 1, 79, 29
2, 89760, Note_on_c, 1, 79, 0
2, 89760, Note_on_c, 1, 79, 29
2, 89820, Note_on_c, 1, 79, 0
2, 96000, Note_on_c, 1, 87, 95
2, 96030, Note_on_c, 1, 87, 0
2, 96120, Note_on_c, 1, 80, 99
2, 96150, Note_on_c, 1, 80, 0
2, 96240, Note_on_c, 1, 75, 101
2, 96360, Note_on_c, 1, 75, 0
2, 96420, Note_on_c, 1, 75, 101
2, 96450, Note_on_c, 1, 75, 0
2, 96450, Note_on_c, 1, 75, 99
2, 96480, Note_on_c, 1, 75, 0
2, 96480, Note_on_c, 1, 75, 99
2, 96600, Note_on_c, 1, 75, 0
2, 96660, Note_on_c, 1, 75, 98
2, 96690, Note_on_c, 1, 75, 0
2, 96690, Note_on_c, 1, 75, 94
2, 96720, Note_on_c, 1, 75, 0
2, 96720, Note_on_c, 1, 75, 99
2, 96780, Note_on_c, 1, 75, 0
2, 96840, Note_on_c, 1, 81, 95
2, 96870, Note_on_c, 1, 81, 0
2, 96900, Note_on_c, 1, 84, 93
2, 96930, Note_on_c, 1, 84, 0
2, 96960, Note_on_c, 1, 87, 95
2, 96990, Note_on_c, 1, 87, 0
2, 97080, Note_on_c, 1, 80, 95
2, 97110, Note_on_c, 1, 80, 0
2, 97200, Note_on_c, 1, 75, 99
2, 97320, Note_on_c, 1, 75, 0
2, 97380, Note_on_c, 1, 75, 94
2, 97410, Note_on_c, 1, 75, 0
2, 97410, Note_on_c, 1, 75, 89
2, 97440, Note_on_c, 1, 75, 0
2, 97440, Note_on_c, 1, 75, 99
2, 97560, Note_on_c, 1, 75, 0
2, 97620, Note_on_c, 1, 75, 86
2, 97650, Note_on_c, 1, 75, 0
2, 97650, Note_on_c, 1, 75, 85
2, 97680, Note_on_c, 1, 75, 0
2, 97680, Note_on_c, 1, 75, 86
2, 97740, Note_on_c, 1, 75, 0
2, 97800, Note_on_c, 1, 81, 94
2, 97830, Note_on_c, 1, 81, 0
2, 97860, Note_on_c, 1, 84, 85
2, 97890, Note_on_c, 1, 84, 0
2, 97920, Note_on_c, 1, 87, 94
2, 98040, Note_on_c, 1, 87, 0
2, 98040, Note_on_c, 1, 84, 93
2, 98070, Note_on_c, 1, 84, 0
2, 98100, Note_on_c, 1, 81, 98
2, 98130, Note_on_c, 1, 81, 0
2, 98160, Note_on_c, 1, 76, 101
2, 98280, Note_on_c, 1, 76, 0
2, 98280, Note_on_c, 1, 81, 101
2, 98310, Note_on_c, 1, 81, 0
2, 98340, Note_on_c, 1, 84, 95
2, 98370, Note_on_c, 1, 84, 0
2, 98400, Note_on_c, 1, 89, 105
2, 98520, Note_on_c, 1, 89, 0
2, 98520, Note_on_c, 1, 84, 95
2, 98550, Note_on_c, 1, 84, 0
2, 98580, Note_on_c, 1, 81, 99
2, 98610, Note_on_c, 1, 81, 0
2, 98640, Note_on_c, 1, 89, 99
2, 98700, Note_on_c, 1, 89, 0
2, 106260, Note_on_c, 1, 88, 90
2, 106290, Note_on_c, 1, 88, 0
2, 106290, Note_on_c, 1, 88, 95
2, 106320, Note_on_c, 1, 88, 0
2, 106320, Note_on_c, 1, 88, 89
2, 106440, Note_on_c, 1, 88, 0
2, 106500, Note_on_c, 1, 88, 80
2, 106530, Note_on_c, 1, 88, 0
2, 106530, Note_on_c, 1, 88, 86
2, 106560, Note_on_c, 1, 88, 0
2, 106560, Note_on_c, 1, 88, 89
2, 106680, Note_on_c, 1, 88, 0
2, 106740, Note_on_c, 1, 88, 86
2, 106770, Note_on_c, 1, 88, 0
2, 106770, Note_on_c, 1, 88, 89
2, 106800, Note_on_c, 1, 88, 0
2, 106800, Note_on_c, 1, 88, 84
2, 106860, Note_on_c, 1, 88, 0
2, 106860, Note_on_c, 1, 88, 89
2, 106890, Note_on_c, 1, 88, 0
2, 106890, Note_on_c, 1, 88, 93
2, 106920, Note_on_c, 1, 88, 0
2, 106920, Note_on_c, 1, 88, 93
2, 106980, Note_on_c, 1, 88, 0
2, 106980, Note_on_c, 1, 88, 89
2, 107010, Note_on_c, 1, 88, 0
2, 107010, Note_on_c, 1, 88, 90
2, 107040, Note_on_c, 1, 88, 0
2, 107040, Note_on_c, 1, 88, 93
2, 107100, Note_on_c, 1, 88, 0
2, 107220, Note_on_c, 1, 88, 84
2, 107250, Note_on_c, 1, 88, 0
2, 107250, Note_on_c, 1, 88, 84
2, 107280, Note_on_c, 1, 88, 0
2, 107280, Note_on_c, 1, 88, 84
2, 107340, Note_on_c, 1, 88, 0
2, 107340, Note_on_c, 1, 84, 82
2, 107370, Note_on_c, 1, 84, 0
2, 107370, Note_on_c, 1, 84, 85
2, 107400, Note_on_c, 1, 84, 0
2, 107400, Note_on_c, 1, 84, 84
2, 107460, Note_on_c, 1, 84, 0
2, 107460, Note_on_c, 1, 81, 89
2, 107490, Note_on_c, 1, 81, 0
2, 107490, Note_on_c, 1, 81, 80
2, 107520, Note_on_c, 1, 81, 0
2, 107520, Note_on_c, 1, 81, 78
2, 107640, Note_on_c, 1, 81, 0
2, 107700, Note_on_c, 1, 81, 82
2, 107730, Note_on_c, 1, 81, 0
2, 107730, Note_on_c, 1, 79, 71
2, 107760, Note_on_c, 1, 79, 0
2, 107760, Note_on_c, 1, 81, 84
2, 107820, Note_on_c, 1, 81, 0
2, 107880, Note_on_c, 1, 86, 89
2, 107940, Note_on_c, 1, 86, 0
2, 108000, Note_on_c, 1, 83, 86
2, 108060, Note_on_c, 1, 83, 0
2, 108120, Note_on_c, 1, 91, 82
2, 108180, Note_on_c, 1, 91, 0
2, 108240, Note_on_c, 1, 81, 86
2, 108300, Note_on_c, 1, 81, 0
2, 108300, Note_on_c, 1, 86, 84
2, 108330, Note_on_c, 1, 86, 0
2, 108330, Note_on_c, 1, 84, 84
2, 108360, Note_on_c, 1, 84, 0
2, 108360, Note_on_c, 1, 86, 84
2, 108420, Note_on_c, 1, 86, 0
2, 108420, Note_on_c, 1, 86, 86
2, 108480, Note_on_c, 1, 86, 0
2, 108480, Note_on_c, 1, 86, 90
2, 108720, Note_on_c, 1, 86, 0
2, 108720, Note_on_c, 1, 84, 84
2, 108840, Note_on_c, 1, 84, 0
2, 108840, Note_on_c, 1, 83, 93
2, 108960, Note_on_c, 1, 83, 0
2, 108960, Note_on_c, 1, 81, 90
2, 109080, Note_on_c, 1, 81, 0
2, 109080, Note_on_c, 1, 79, 90
2, 109140, Note_on_c, 1, 79, 0
2, 109140, Note_on_c, 1, 91, 82
2, 109200, Note_on_c, 1, 91, 0
2, 109200, Note_on_c, 1, 88, 81
2, 109320, Note_on_c, 1, 88, 0
2, 109320, Note_on_c, 1, 86, 84
2, 109380, Note_on_c, 1, 86, 0
2, 109380, Note_on_c, 1, 86, 93
2, 109440, Note_on_c, 1, 86, 0
2, 110460, Note_on_c, 1, 91, 74
2, 110490, Note_on_c, 1, 91, 0
2, 110490, Note_on_c, 1, 91, 76
2, 110520, Note_on_c, 1, 91, 0
2, 110520, Note_on_c, 1, 91, 84
2, 110580, Note_on_c, 1, 91, 0
2, 111420, Note_on_c, 1, 91, 82
2, 111450, Note_on_c, 1, 91, 0
2, 111450, Note_on_c, 1, 91, 81
2, 111480, Note_on_c, 1, 91, 0
2, 111480, Note_on_c, 1, 91, 81
2, 111540, Note_on_c, 1, 91, 0
2, 119035, Note_on_c, 1, 86, 46
2, 120355, Note_on_c, 1, 86, 0
2, 120355, Note_on_c, 1, 84, 62
2, 120415, Note_on_c, 1, 84, 0
2, 120415, Note_on_c, 1, 83, 74
2, 120475, Note_on_c, 1, 83, 0
2, 120475, Note_on_c, 1, 83, 73
2, 120595, Note_on_c, 1, 83, 0
2, 120595, Note_on_c, 1, 81, 77
2, 120775, Note_on_c, 1, 81, 0
2, 120775, Note_on_c, 1, 74, 80
2, 120835, Note_on_c, 1, 74, 0
2, 120835, Note_on_c, 1, 76, 76
2, 120895, Note_on_c, 1, 76, 0
2, 120895, Note_on_c, 1, 78, 85
2, 120955, Note_on_c, 1, 78, 0
2, 120960, Note_on_c, 1, 79, 78
2, 121200, Note_on_c, 1, 79, 0
2, 121200, Note_on_c, 1, 81, 67
2, 121215, Note_on_c, 1, 81, 0
2, 121215, Note_on_c, 1, 79, 68
2, 121230, Note_on_c, 1, 79, 0
2, 121230, Note_on_c, 1, 78, 67
2, 121245, Note_on_c, 1, 78, 0
2, 121245, Note_on_c, 1, 79, 68
2, 121260, Note_on_c, 1, 79, 0
2, 121260, Note_on_c, 1, 81, 90
2, 121320, Note_on_c, 1, 81, 0
2, 121320, Note_on_c, 1, 83, 82
2, 121380, Note_on_c, 1, 83, 0
2, 121380, Note_on_c, 1, 84, 101
2, 121440, Note_on_c, 1, 84, 0
2, 121440, Note_on_c, 1, 84, 94
2, 121680, Note_on_c, 1, 84, 0
2, 121680, Note_on_c, 1, 81, 70
2, 121740, Note_on_c, 1, 81, 0
2, 121740, Note_on_c, 1, 83, 78
2, 121800, Note_on_c, 1, 83, 0
2, 121800, Note_on_c, 1, 84, 101
2, 121860, Note_on_c, 1, 84, 0
2, 121860, Note_on_c, 1, 86, 68
2, 121920, Note_on_c, 1, 86, 0
2, 121920, Note_on_c, 1, 86, 84
2, 122040, Note_on_c, 1, 86, 0
2, 122040, Note_on_c, 1, 83, 84
2, 122070, Note_on_c, 1, 83, 0
2, 122100, Note_on_c, 1, 84, 115
2, 122130, Note_on_c, 1, 84, 0
2, 122160, Note_on_c, 1, 81, 84
2, 122190, Note_on_c, 1, 81, 0
2, 122220, Note_on_c, 1, 83, 86
2, 122250, Note_on_c, 1, 83, 0
2, 122280, Note_on_c, 1, 84, 105
2, 122310, Note_on_c, 1, 84, 0
2, 122340, Note_on_c, 1, 86, 105
2, 122370, Note_on_c, 1, 86, 0
2, 122400, Note_on_c, 1, 83, 81
2, 122430, Note_on_c, 1, 83, 0
2, 122460, Note_on_c, 1, 84, 99
2, 122490, Note_on_c, 1, 84, 0
2, 122520, Note_on_c, 1, 86, 93
2, 122550, Note_on_c, 1, 86, 0
2, 122580, Note_on_c, 1, 88, 99
2, 122610, Note_on_c, 1, 88, 0
2, 122640, Note_on_c, 1, 84, 105
2, 122670, Note_on_c, 1, 84, 0
2, 122700, Note_on_c, 1, 86, 89
2, 122730, Note_on_c, 1, 86, 0
2, 122760, Note_on_c, 1, 88, 93
2, 122790, Note_on_c, 1, 88, 0
2, 122820, Note_on_c, 1, 90, 89
2, 122850, Note_on_c, 1, 90, 0
2, 122880, Note_on_c, 1, 91, 82
2, 122940, Note_on_c, 1, 91, 0
2, 122940, Note_on_c, 1, 91, 81
2, 123000, Note_on_c, 1, 91, 0
2, 123000, Note_on_c, 1, 91, 81
2, 123060, Note_on_c, 1, 91, 0
2, 123060, Note_on_c, 1, 91, 76
2, 123120, Note_on_c, 1, 91, 0
2, 123120, Note_on_c, 1, 91, 81
2, 123180, Note_on_c, 1, 91, 0
2, 123180, Note_on_c, 1, 91, 86
2, 123240, Note_on_c, 1, 91, 0
2, 123240, Note_on_c, 1, 91, 84
2, 123300, Note_on_c, 1, 91, 0
2, 123300, Note_on_c, 1, 91, 77
2, 123360, Note_on_c, 1, 91, 0
2, 123360, Note_on_c, 1, 91, 104
2, 123420, Note_on_c, 1, 91, 0
2, 123480, Note_on_c, 1, 91, 95
2, 123540, Note_on_c, 1, 91, 0
2, 123600, Note_on_c, 1, 91, 99
2, 123660, Note_on_c, 1, 91, 0
2, 123720, Note_on_c, 1, 73, 89
2, 123780, Note_on_c, 1, 73, 0
2, 123840, Note_on_c, 1, 74, 95
2, 124080, Note_on_c, 1, 74, 0
2, 151920, Note_on_c, 1, 90, 29
2, 151980, Note_on_c, 1, 90, 0
2, 151980, Note_on_c, 1, 90, 34
2, 152040, Note_on_c, 1, 90, 0
2, 152040, Note_on_c, 1, 90, 35
2, 152100, Note_on_c, 1, 90, 0
2, 152100, Note_on_c, 1, 90, 40
2, 152160, Note_on_c, 1, 90, 0
2, 152160, Note_on_c, 1, 90, 49
2, 152220, Note_on_c, 1, 90, 0
2, 152220, Note_on_c, 1, 90, 59
2, 152280, Note_on_c, 1, 90, 0
2, 152280, Note_on_c, 1, 90, 65
2, 152340, Note_on_c, 1, 90, 0
2, 152340, Note_on_c, 1, 90, 68
2, 152400, Note_on_c, 1, 90, 0
2, 152400, Note_on_c, 1, 89, 84
2, 152520, Note_on_c, 1, 89, 0
2, 152520, Note_on_c, 1, 89, 90
2, 152640, Note_on_c, 1, 89, 0
2, 152760, Note_on_c, 1, 89, 89
2, 152880, Note_on_c, 1, 89, 0
2, 153000, Note_on_c, 1, 89, 90
2, 153120, Note_on_c, 1, 89, 0
2, 153240, Note_on_c, 1, 89, 95
2, 153360, Note_on_c, 1, 89, 0
2, 153360, Note_on_c, 1, 88, 99
2, 153480, Note_on_c, 1, 88, 0
2, 153540, Note_on_c, 1, 88, 95
2, 153570, Note_on_c, 1, 88, 0
2, 153570, Note_on_c, 1, 88, 94
2, 153600, Note_on_c, 1, 88, 0
2, 153600, Note_on_c, 1, 88, 95
2, 153720, Note_on_c, 1, 88, 0
2, 153780, Note_on_c, 1, 88, 90
2, 153810, Note_on_c, 1, 88, 0
2, 153810, Note_on_c, 1, 88, 94
2, 153840, Note_on_c, 1, 88, 0
2, 153840, Note_on_c, 1, 88, 90
2, 153900, Note_on_c, 1, 88, 0
2, 153960, Note_on_c, 1, 88, 94
2, 153990, Note_on_c, 1, 88, 0
2, 154020, Note_on_c, 1, 88, 94
2, 154050, Note_on_c, 1, 88, 0
2, 154080, Note_on_c, 1, 88, 95
2, 154140, Note_on_c, 1, 88, 0
2, 154320, Note_on_c, 1, 88, 99
2, 154380, Note_on_c, 1, 88, 0
2, 154440, Note_on_c, 1, 84, 90
2, 154500, Note_on_c, 1, 84, 0
2, 154560, Note_on_c, 1, 81, 95
2, 154620, Note_on_c, 1, 81, 0
2, 154800, Note_on_c, 1, 81, 93
2, 154860, Note_on_c, 1, 81, 0
2, 154920, Note_on_c, 1, 86, 94
2, 154980, Note_on_c, 1, 86, 0
2, 155040, Note_on_c, 1, 83, 94
2, 155100, Note_on_c, 1, 83, 0
2, 155160, Note_on_c, 1, 91, 94
2, 155220, Note_on_c, 1, 91, 0
2, 155280, Note_on_c, 1, 93, 94
2, 155340, Note_on_c, 1, 93, 0
2, 155400, Note_on_c, 1, 86, 99
2, 155460, Note_on_c, 1, 86, 0
2, 155520, Note_on_c, 1, 83, 94
2, 155580, Note_on_c, 1, 83, 0
2, 158640, Note_on_c, 1, 79, 42
2, 158880, Note_on_c, 1, 79, 0
2, 158880, Note_on_c, 1, 81, 57
2, 159120, Note_on_c, 1, 81, 0
2, 159120, Note_on_c, 1, 83, 69
2, 159360, Note_on_c, 1, 83, 0
2, 159360, Note_on_c, 1, 84, 68
2, 159600, Note_on_c, 1, 84, 0
2, 159600, Note_on_c, 1, 83, 86
2, 159720, Note_on_c, 1, 83, 0
2, 159780, Note_on_c, 1, 91, 77
2, 159810, Note_on_c, 1, 91, 0
2, 159810, Note_on_c, 1, 91, 73
2, 159840, Note_on_c, 1, 91, 0
2, 159840, Note_on_c, 1, 91, 80
2, 159960, Note_on_c, 1, 91, 0
2, 160260, Note_on_c, 1, 91, 81
2, 160290, Note_on_c, 1, 91, 0
2, 160290, Note_on_c, 1, 91, 74
2, 160320, Note_on_c, 1, 91, 0
2, 160320, Note_on_c, 1, 91, 84
2, 160440, Note_on_c, 1, 91, 0
2, 160500, Note_on_c, 1, 91, 81
2, 160530, Note_on_c, 1, 91, 0
2, 160530, Note_on_c, 1, 91, 80
2, 160560, Note_on_c, 1, 91, 0
2, 160560, Note_on_c, 1, 91, 89
2, 160620, Note_on_c, 1, 91, 0
2, 160800, Note_on_c, 1, 90, 84
2, 160860, Note_on_c, 1, 90, 0
2, 161040, Note_on_c, 1, 91, 98
2, 161100, Note_on_c, 1, 91, 0
2, 161100, End_track
3, 0, Start_track
3, 0, MIDI_port, 0
3, 0, Title_t, "Oboes"
3, 0, Control_c, 2, 0, 0
3, 0, Control_c, 2, 32, 0
3, 0, Program_c, 2, 68
3, 0, Control_c, 2, 7, 100
3, 0, Control_c, 2, 10, 57
3, 0, Control_c, 2, 93, 0
3, 0, Control_c, 2, 91, 66
3, 7320, Note_on_c, 2, 79, 50
3, 7350, Note_on_c, 2, 79, 0
3, 7350, Note_on_c, 2, 76, 44
3, 7380, Note_on_c, 2, 76, 0
3, 7380, Note_on_c, 2, 74, 61
3, 7410, Note_on_c, 2, 74, 0
3, 7440, Note_on_c, 2, 76, 71
3, 7440, Note_on_c, 2, 84, 62
3, 7560, Note_on_c, 2, 84, 0
3, 7560, Note_on_c, 2, 76, 0
3, 7620, Note_on_c, 2, 84, 45
3, 7620, Note_on_c, 2, 76, 59
3, 7650, Note_on_c, 2, 76, 0
3, 7650, Note_on_c, 2, 84, 0
3, 7650, Note_on_c, 2, 76, 53
3, 7650, Note_on_c, 2, 84, 59
3, 7680, Note_on_c, 2, 84, 0
3, 7680, Note_on_c, 2, 76, 0
3, 7680, Note_on_c, 2, 84, 62
3, 7680, Note_on_c, 2, 76, 58
3, 7800, Note_on_c, 2, 76, 0
3, 7800, Note_on_c, 2, 84, 0
3, 7860, Note_on_c, 2, 84, 53
3, 7860, Note_on_c, 2, 76, 53
3, 7890, Note_on_c, 2, 76, 0
3, 7890, Note_on_c, 2, 84, 0
3, 7890, Note_on_c, 2, 84, 59
3, 7890, Note_on_c, 2, 76, 47
3, 7920, Note_on_c, 2, 76, 0
3, 7920, Note_on_c, 2, 84, 0
3, 7920, Note_on_c, 2, 84, 59
3, 7920, Note_on_c, 2, 76, 61
3, 7980, Note_on_c, 2, 76, 0
3, 7980, Note_on_c, 2, 84, 0
3, 8040, Note_on_c, 2, 84, 53
3, 8040, Note_on_c, 2, 76, 46
3, 8070, Note_on_c, 2, 76, 0
3, 8070, Note_on_c, 2, 84, 0
3, 8100, Note_on_c, 2, 84, 59
3, 8100, Note_on_c, 2, 76, 44
3, 8130, Note_on_c, 2, 76, 0
3, 8130, Note_on_c, 2, 84, 0
3, 8160, Note_on_c, 2, 84, 50
3, 8160, Note_on_c, 2, 76, 48
3, 8190, Note_on_c, 2, 76, 0
3, 8190, Note_on_c, 2, 84, 0
3, 8400, Note_on_c, 2, 84, 54
3, 8400, Note_on_c, 2, 76, 62
3, 8460, Note_on_c, 2, 76, 0
3, 8460, Note_on_c, 2, 84, 0
3, 8520, Note_on_c, 2, 81, 56
3, 8520, Note_on_c, 2, 72, 29
3, 8580, Note_on_c, 2, 72, 0
3, 8580, Note_on_c, 2, 81, 0
3, 8640, Note_on_c, 2, 78, 63
3, 8640, Note_on_c, 2, 69, 81
3, 8700, Note_on_c, 2, 69, 0
3, 8700, Note_on_c, 2, 78, 0
3, 8880, Note_on_c, 2, 78, 58
3, 8880, Note_on_c, 2, 69, 74
3, 8940, Note_on_c, 2, 69, 0
3, 8940, Note_on_c, 2, 78, 0
3, 9000, Note_on_c, 2, 78, 47
3, 9000, Note_on_c, 2, 69, 69
3, 9060, Note_on_c, 2, 69, 0
3, 9060, Note_on_c, 2, 78, 0
3, 9120, Note_on_c, 2, 71, 67
3, 9120, Note_on_c, 2, 79, 46
3, 9180, Note_on_c, 2, 79, 0
3, 9180, Note_on_c, 2, 71, 0
3, 9240, Note_on_c, 2, 71, 65
3, 9240, Note_on_c, 2, 79, 52
3, 9300, Note_on_c, 2, 79, 0
3, 9300, Note_on_c, 2, 71, 0
3, 9360, Note_on_c, 2, 69, 53
3, 9360, Note_on_c, 2, 79, 46
3, 9420, Note_on_c, 2, 79, 0
3, 9420, Note_on_c, 2, 69, 0
3, 9480, Note_on_c, 2, 74, 70
3, 9480, Note_on_c, 2, 69, 65
3, 9540, Note_on_c, 2, 69, 0
3, 9540, Note_on_c, 2, 74, 0
3, 9600, Note_on_c, 2, 83, 73
3, 9900, Note_on_c, 2, 83, 0
3, 9900, Note_on_c, 2, 81, 52
3, 10020, Note_on_c, 2, 81, 0
3, 10020, Note_on_c, 2, 79, 62
3, 10140, Note_on_c, 2, 79, 0
3, 10140, Note_on_c, 2, 78, 45
3, 10200, Note_on_c, 2, 78, 0
3, 10200, Note_on_c, 2, 79, 63
3, 10260, Note_on_c, 2, 79, 0
3, 10260, Note_on_c, 2, 79, 47
3, 10260, Note_on_c, 2, 74, 43
3, 10320, Note_on_c, 2, 74, 0
3, 10320, Note_on_c, 2, 79, 0
3, 10320, Note_on_c, 2, 76, 64
3, 10320, Note_on_c, 2, 72, 29
3, 10440, Note_on_c, 2, 72, 0
3, 10440, Note_on_c, 2, 76, 0
3, 10440, Note_on_c, 2, 69, 69
3, 10440, Note_on_c, 2, 72, 81
3, 10500, Note_on_c, 2, 72, 0
3, 10500, Note_on_c, 2, 69, 0
3, 10500, Note_on_c, 2, 69, 71
3, 10500, Note_on_c, 2, 72, 82
3, 10560, Note_on_c, 2, 72, 0
3, 10560, Note_on_c, 2, 69, 0
3, 11520, Note_on_c, 2, 71, 93
3, 11760, Note_on_c, 2, 71, 0
3, 11820, Note_on_c, 2, 71, 89
3, 11880, Note_on_c, 2, 71, 0
3, 11940, Note_on_c, 2, 71, 78
3, 11940, Note_on_c, 2, 79, 68
3, 12000, Note_on_c, 2, 79, 0
3, 12000, Note_on_c, 2, 71, 0
3, 12060, Note_on_c, 2, 78, 73
3, 12060, Note_on_c, 2, 75, 80
3, 12120, Note_on_c, 2, 75, 0
3, 12120, Note_on_c, 2, 78, 0
3, 12180, Note_on_c, 2, 76, 80
3, 12240, Note_on_c, 2, 76, 0
3, 12300, Note_on_c, 2, 69, 73
3, 12300, Note_on_c, 2, 81, 52
3, 12360, Note_on_c, 2, 81, 0
3, 12360, Note_on_c, 2, 69, 0
3, 12360, Note_on_c, 2, 78, 64
3, 12360, Note_on_c, 2, 69, 90
3, 12420, Note_on_c, 2, 69, 0
3, 12420, Note_on_c, 2, 78, 0
3, 12420, Note_on_c, 2, 78, 58
3, 12420, Note_on_c, 2, 69, 85
3, 12480, Note_on_c, 2, 69, 0
3, 12480, Note_on_c, 2, 78, 0
3, 13380, Note_on_c, 2, 76, 59
3, 13440, Note_on_c, 2, 76, 0
3, 13440, Note_on_c, 2, 76, 65
3, 13440, Note_on_c, 2, 81, 66
3, 13500, Note_on_c, 2, 81, 0
3, 13500, Note_on_c, 2, 76, 0
3, 13500, Note_on_c, 2, 76, 69
3, 13500, Note_on_c, 2, 81, 72
3, 13560, Note_on_c, 2, 81, 0
3, 13560, Note_on_c, 2, 76, 0
3, 13560, Note_on_c, 2, 76, 84
3, 13560, Note_on_c, 2, 83, 77
3, 13620, Note_on_c, 2, 83, 0
3, 13620, Note_on_c, 2, 76, 0
3, 13620, Note_on_c, 2, 76, 69
3, 13620, Note_on_c, 2, 83, 69
3, 13680, Note_on_c, 2, 83, 0
3, 13680, Note_on_c, 2, 76, 0
3, 13920, Note_on_c, 2, 76, 62
3, 13920, Note_on_c, 2, 81, 61
3, 13980, Note_on_c, 2, 81, 0
3, 13980, Note_on_c, 2, 76, 0
3, 13980, Note_on_c, 2, 81, 80
3, 13980, Note_on_c, 2, 76, 72
3, 14040, Note_on_c, 2, 76, 0
3, 14040, Note_on_c, 2, 81, 0
3, 14040, Note_on_c, 2, 76, 67
3, 14040, Note_on_c, 2, 83, 70
3, 14100, Note_on_c, 2, 83, 0
3, 14100, Note_on_c, 2, 76, 0
3, 14100, Note_on_c, 2, 76, 68
3, 14100, Note_on_c, 2, 83, 68
3, 14160, Note_on_c, 2, 83, 0
3, 14160, Note_on_c, 2, 76, 0
3, 23280, Note_on_c, 2, 73, 43
3, 23520, Note_on_c, 2, 73, 0
3, 23520, Note_on_c, 2, 74, 44
3, 23640, Note_on_c, 2, 74, 0
3, 23640, Note_on_c, 2, 76, 46
3, 23760, Note_on_c, 2, 76, 0
3, 23760, Note_on_c, 2, 78, 43
3, 24060, Note_on_c, 2, 78, 0
3, 24060, Note_on_c, 2, 76, 44
3, 24120, Note_on_c, 2, 76, 0
3, 24120, Note_on_c, 2, 74, 38
3, 24180, Note_on_c, 2, 74, 0
3, 24180, Note_on_c, 2, 76, 42
3, 24240, Note_on_c, 2, 76, 0
3, 24240, Note_on_c, 2, 74, 43
3, 24360, Note_on_c, 2, 74, 0
3, 24360, Note_on_c, 2, 73, 45
3, 24600, Note_on_c, 2, 73, 0
3, 24600, Note_on_c, 2, 74, 42
3, 24660, Note_on_c, 2, 74, 0
3, 24660, Note_on_c, 2, 76, 53
3, 24720, Note_on_c, 2, 76, 0
3, 24720, Note_on_c, 2, 74, 45
3, 24840, Note_on_c, 2, 74, 0
3, 24840, Note_on_c, 2, 81, 45
3, 25080, Note_on_c, 2, 81, 0
3, 25080, Note_on_c, 2, 79, 56
3, 25140, Note_on_c, 2, 79, 0
3, 25140, Note_on_c, 2, 78, 42
3, 25200, Note_on_c, 2, 78, 0
3, 25200, Note_on_c, 2, 78, 43
3, 25320, Note_on_c, 2, 78, 0
3, 25320, Note_on_c, 2, 76, 77
3, 25440, Note_on_c, 2, 79, 67
3, 25500, Note_on_c, 2, 76, 0
3, 25500, Note_on_c, 2, 69, 73
3, 25560, Note_on_c, 2, 69, 0
3, 25560, Note_on_c, 2, 71, 65
3, 25620, Note_on_c, 2, 71, 0
3, 25620, Note_on_c, 2, 73, 40
3, 25680, Note_on_c, 2, 73, 0
3, 25680, Note_on_c, 2, 79, 0
3, 25680, Note_on_c, 2, 74, 59
3, 25680, Note_on_c, 2, 78, 43
3, 25800, Note_on_c, 2, 78, 0
3, 25800, Note_on_c, 2, 79, 44
3, 25860, Note_on_c, 2, 74, 0
3, 25860, Note_on_c, 2, 76, 67
3, 25920, Note_on_c, 2, 79, 0
3, 25920, Note_on_c, 2, 79, 46
3, 25980, Note_on_c, 2, 76, 0
3, 25980, Note_on_c, 2, 69, 62
3, 26040, Note_on_c, 2, 69, 0
3, 26040, Note_on_c, 2, 71, 62
3, 26100, Note_on_c, 2, 71, 0
3, 26100, Note_on_c, 2, 73, 42
3, 26160, Note_on_c, 2, 73, 0
3, 26160, Note_on_c, 2, 79, 0
3, 26160, Note_on_c, 2, 78, 73
3, 26160, Note_on_c, 2, 74, 99
3, 26190, Note_on_c, 2, 74, 0
3, 26190, Note_on_c, 2, 78, 0
3, 26220, Note_on_c, 2, 74, 101
3, 26250, Note_on_c, 2, 74, 0
3, 26700, Note_on_c, 2, 73, 95
3, 26760, Note_on_c, 2, 73, 0
3, 27180, Note_on_c, 2, 74, 104
3, 27240, Note_on_c, 2, 74, 0
3, 27660, Note_on_c, 2, 73, 90
3, 27720, Note_on_c, 2, 73, 0
3, 28140, Note_on_c, 2, 74, 95
3, 28200, Note_on_c, 2, 74, 0
3, 28380, Note_on_c, 2, 73, 78
3, 28440, Note_on_c, 2, 73, 0
3, 28620, Note_on_c, 2, 71, 74
3, 28680, Note_on_c, 2, 71, 0
3, 28740, Note_on_c, 2, 69, 81
3, 28800, Note_on_c, 2, 69, 0
3, 28860, Note_on_c, 2, 67, 65
3, 28920, Note_on_c, 2, 67, 0
3, 28980, Note_on_c, 2, 78, 71
3, 29040, Note_on_c, 2, 78, 0
3, 29100, Note_on_c, 2, 76, 76
3, 29160, Note_on_c, 2, 76, 0
3, 29220, Note_on_c, 2, 76, 74
3, 29280, Note_on_c, 2, 76, 0
3, 29280, Note_on_c, 2, 73, 58
3, 29340, Note_on_c, 2, 73, 0
3, 29580, Note_on_c, 2, 74, 40
3, 29640, Note_on_c, 2, 74, 0
3, 30060, Note_on_c, 2, 73, 29
3, 30120, Note_on_c, 2, 73, 0
3, 30540, Note_on_c, 2, 74, 29
3, 30600, Note_on_c, 2, 74, 0
3, 31020, Note_on_c, 2, 74, 33
3, 31080, Note_on_c, 2, 74, 0
3, 31500, Note_on_c, 2, 71, 38
3, 31560, Note_on_c, 2, 71, 0
3, 31980, Note_on_c, 2, 71, 98
3, 32160, Control_c, 2, 7, 99
3, 32170, Control_c, 2, 7, 98
3, 32180, Control_c, 2, 7, 96
3, 32190, Control_c, 2, 7, 94
3, 32200, Control_c, 2, 7, 93
3, 32210, Control_c, 2, 7, 91
3, 32220, Control_c, 2, 7, 89
3, 32230, Control_c, 2, 7, 88
3, 32240, Control_c, 2, 7, 86
3, 32250, Control_c, 2, 7, 84
3, 32260, Control_c, 2, 7, 83
3, 32270, Control_c, 2, 7, 81
3, 32280, Control_c, 2, 7, 79
3, 32290, Control_c, 2, 7, 78
3, 32300, Control_c, 2, 7, 76
3, 32310, Control_c, 2, 7, 74
3, 32320, Control_c, 2, 7, 73
3, 32330, Control_c, 2, 7, 71
3, 32340, Control_c, 2, 7, 69
3, 32350, Control_c, 2, 7, 68
3, 32360, Control_c, 2, 7, 66
3, 32370, Control_c, 2, 7, 64
3, 32380, Control_c, 2, 7, 62
3, 32640, Note_on_c, 2, 71, 0
3, 32640, Note_on_c, 2, 71, 93
3, 32700, Note_on_c, 2, 71, 0
3, 32760, Note_on_c, 2, 71, 99
3, 32820, Note_on_c, 2, 71, 0
3, 32880, Control_c, 2, 7, 99
3, 32940, Note_on_c, 2, 71, 99
3, 33110, Control_c, 2, 7, 98
3, 33120, Control_c, 2, 7, 97
3, 33130, Control_c, 2, 7, 95
3, 33140, Control_c, 2, 7, 93
3, 33150, Control_c, 2, 7, 92
3, 33160, Control_c, 2, 7, 90
3, 33170, Control_c, 2, 7, 88
3, 33180, Control_c, 2, 7, 87
3, 33190, Control_c, 2, 7, 85
3, 33200, Control_c, 2, 7, 83
3, 33210, Control_c, 2, 7, 82
3, 33220, Control_c, 2, 7, 80
3, 33230, Control_c, 2, 7, 78
3, 33240, Control_c, 2, 7, 77
3, 33250, Control_c, 2, 7, 75
3, 33260, Control_c, 2, 7, 73
3, 33270, Control_c, 2, 7, 72
3, 33280, Control_c, 2, 7, 70
3, 33290, Control_c, 2, 7, 68
3, 33300, Control_c, 2, 7, 67
3, 33310, Control_c, 2, 7, 65
3, 33320, Control_c, 2, 7, 63
3, 33330, Control_c, 2, 7, 61
3, 33600, Note_on_c, 2, 71, 0
3, 33600, Control_c, 2, 7, 63
3, 33600, Note_on_c, 2, 71, 73
3, 33610, Control_c, 2, 7, 75
3, 33620, Control_c, 2, 7, 87
3, 33630, Control_c, 2, 7, 99
3, 33660, Note_on_c, 2, 71, 0
3, 33720, Note_on_c, 2, 71, 76
3, 33780, Note_on_c, 2, 71, 0
3, 33840, Note_on_c, 2, 71, 76
3, 33900, Note_on_c, 2, 71, 0
3, 34260, Note_on_c, 2, 71, 67
3, 34290, Note_on_c, 2, 71, 0
3, 34290, Note_on_c, 2, 71, 63
3, 34320, Note_on_c, 2, 71, 0
3, 34320, Note_on_c, 2, 71, 62
3, 34380, Note_on_c, 2, 71, 0
3, 34740, Note_on_c, 2, 71, 73
3, 34770, Note_on_c, 2, 71, 0
3, 34770, Note_on_c, 2, 71, 61
3, 34800, Note_on_c, 2, 71, 0
3, 34800, Note_on_c, 2, 71, 65
3, 34860, Note_on_c, 2, 71, 0
3, 35820, Note_on_c, 2, 71, 62
3, 35850, Note_on_c, 2, 71, 0
3, 35850, Note_on_c, 2, 71, 81
3, 35880, Note_on_c, 2, 71, 0
3, 35880, Note_on_c, 2, 71, 69
3, 35940, Note_on_c, 2, 71, 0
3, 36300, Note_on_c, 2, 71, 65
3, 36330, Note_on_c, 2, 71, 0
3, 36330, Note_on_c, 2, 71, 71
3, 36360, Note_on_c, 2, 71, 0
3, 36360, Note_on_c, 2, 71, 69
3, 36420, Note_on_c, 2, 71, 0
3, 47880, Note_on_c, 2, 79, 50
3, 47910, Note_on_c, 2, 79, 0
3, 47910, Note_on_c, 2, 76, 44
3, 47940, Note_on_c, 2, 76, 0
3, 47940, Note_on_c, 2, 74, 61
3, 47970, Note_on_c, 2, 74, 0
3, 48000, Note_on_c, 2, 76, 71
3, 48000, Note_on_c, 2, 84, 62
3, 48120, Note_on_c, 2, 84, 0
3, 48120, Note_on_c, 2, 76, 0
3, 48180, Note_on_c, 2, 84, 45
3, 48180, Note_on_c, 2, 76, 59
3, 48210, Note_on_c, 2, 76, 0
3, 48210, Note_on_c, 2, 84, 0
3, 48210, Note_on_c, 2, 76, 53
3, 48210, Note_on_c, 2, 84, 59
3, 48240, Note_on_c, 2, 84, 0
3, 48240, Note_on_c, 2, 76, 0
3, 48240, Note_on_c, 2, 84, 62
3, 48240, Note_on_c, 2, 76, 58
3, 48360, Note_on_c, 2, 76, 0
3, 48360, Note_on_c, 2, 84, 0
3, 48420, Note_on_c, 2, 84, 53
3, 48420, Note_on_c, 2, 76, 53
3, 48450, Note_on_c, 2, 76, 0
3, 48450, Note_on_c, 2, 84, 0
3, 48450, Note_on_c, 2, 84, 59
3, 48450, Note_on_c, 2, 76, 47
3, 48480, Note_on_c, 2, 76, 0
3, 48480, Note_on_c, 2, 84, 0
3, 48480, Note_on_c, 2, 84, 59
3, 48480, Note_on_c, 2, 76, 61
3, 48540, Note_on_c, 2, 76, 0
3, 48540, Note_on_c, 2, 84, 0
3, 48600, Note_on_c, 2, 84, 53
3, 48600, Note_on_c, 2, 76, 46
3, 48630, Note_on_c, 2, 76, 0
3, 48630, Note_on_c, 2, 84, 0
3, 48660, Note_on_c, 2, 84, 59
3, 48660, Note_on_c, 2, 76, 44
3, 48690, Note_on_c, 2, 76, 0
3, 48690, Note_on_c, 2, 84, 0
3, 48720, Note_on_c, 2, 84, 50
3, 48720, Note_on_c, 2, 76, 48
3, 48750, Note_on_c, 2, 76, 0
3, 48750, Note_on_c, 2, 84, 0
3, 48960, Note_on_c, 2, 84, 54
3, 48960, Note_on_c, 2, 76, 62
3, 49020, Note_on_c, 2, 76, 0
3, 49020, Note_on_c, 2, 84, 0
3, 49080, Note_on_c, 2, 81, 56
3, 49080, Note_on_c, 2, 72, 29
3, 49140, Note_on_c, 2, 72, 0
3, 49140, Note_on_c, 2, 81, 0
3, 49200, Note_on_c, 2, 78, 63
3, 49200, Note_on_c, 2, 69, 81
3, 49260, Note_on_c, 2, 69, 0
3, 49260, Note_on_c, 2, 78, 0
3, 49440, Note_on_c, 2, 78, 58
3, 49440, Note_on_c, 2, 69, 74
3, 49500, Note_on_c, 2, 69, 0
3, 49500, Note_on_c, 2, 78, 0
3, 49560, Note_on_c, 2, 78, 47
3, 49560, Note_on_c, 2, 69, 69
3, 49620, Note_on_c, 2, 69, 0
3, 49620, Note_on_c, 2, 78, 0
3, 49680, Note_on_c, 2, 71, 67
3, 49680, Note_on_c, 2, 79, 46
3, 49740, Note_on_c, 2, 79, 0
3, 49740, Note_on_c, 2, 71, 0
3, 49800, Note_on_c, 2, 71, 65
3, 49800, Note_on_c, 2, 79, 52
3, 49860, Note_on_c, 2, 79, 0
3, 49860, Note_on_c, 2, 71, 0
3, 49920, Note_on_c, 2, 69, 53
3, 49920, Note_on_c, 2, 79, 46
3, 49980, Note_on_c, 2, 79, 0
3, 49980, Note_on_c, 2, 69, 0
3, 50040, Note_on_c, 2, 74, 70
3, 50040, Note_on_c, 2, 69, 65
3, 50100, Note_on_c, 2, 69, 0
3, 50100, Note_on_c, 2, 74, 0
3, 50160, Note_on_c, 2, 83, 73
3, 50460, Note_on_c, 2, 83, 0
3, 50460, Note_on_c, 2, 81, 52
3, 50580, Note_on_c, 2, 81, 0
3, 50580, Note_on_c, 2, 79, 62
3, 50700, Note_on_c, 2, 79, 0
3, 50700, Note_on_c, 2, 78, 45
3, 50760, Note_on_c, 2, 78, 0
3, 50760, Note_on_c, 2, 79, 63
3, 50820, Note_on_c, 2, 79, 0
3, 50820, Note_on_c, 2, 79, 47
3, 50820, Note_on_c, 2, 74, 43
3, 50880, Note_on_c, 2, 74, 0
3, 50880, Note_on_c, 2, 79, 0
3, 50880, Note_on_c, 2, 76, 64
3, 50880, Note_on_c, 2, 72, 29
3, 51000, Note_on_c, 2, 72, 0
3, 51000, Note_on_c, 2, 76, 0
3, 51000, Note_on_c, 2, 69, 69
3, 51000, Note_on_c, 2, 72, 81
3, 51060, Note_on_c, 2, 72, 0
3, 51060, Note_on_c, 2, 69, 0
3, 51060, Note_on_c, 2, 69, 71
3, 51060, Note_on_c, 2, 72, 82
3, 51120, Note_on_c, 2, 72, 0
3, 51120, Note_on_c, 2, 69, 0
3, 52080, Note_on_c, 2, 70, 78
3, 52080, Note_on_c, 2, 82, 63
3, 52260, Note_on_c, 2, 82, 0
3, 52260, Note_on_c, 2, 70, 0
3, 52260, Note_on_c, 2, 70, 78
3, 52260, Note_on_c, 2, 82, 61
3, 52320, Note_on_c, 2, 82, 0
3, 52320, Note_on_c, 2, 70, 0
3, 52320, Note_on_c, 2, 80, 52
3, 52320, Note_on_c, 2, 82, 57
3, 52380, Note_on_c, 2, 82, 0
3, 52380, Note_on_c, 2, 80, 0
3, 52380, Note_on_c, 2, 80, 61
3, 52380, Note_on_c, 2, 82, 61
3, 52440, Note_on_c, 2, 82, 0
3, 52440, Note_on_c, 2, 80, 0
3, 52440, Note_on_c, 2, 82, 63
3, 52440, Note_on_c, 2, 79, 65
3, 52500, Note_on_c, 2, 79, 0
3, 52500, Note_on_c, 2, 82, 0
3, 52500, Note_on_c, 2, 79, 62
3, 52500, Note_on_c, 2, 82, 68
3, 52560, Note_on_c, 2, 82, 0
3, 52560, Note_on_c, 2, 79, 0
3, 52560, Note_on_c, 2, 82, 61
3, 52560, Note_on_c, 2, 77, 52
3, 52620, Note_on_c, 2, 77, 0
3, 52620, Note_on_c, 2, 82, 0
3, 52620, Note_on_c, 2, 77, 65
3, 52620, Note_on_c, 2, 74, 50
3, 52680, Note_on_c, 2, 74, 0
3, 52680, Note_on_c, 2, 77, 0
3, 52680, Note_on_c, 2, 79, 65
3, 52680, Note_on_c, 2, 75, 65
3, 52740, Note_on_c, 2, 75, 0
3, 52740, Note_on_c, 2, 79, 0
3, 52740, Note_on_c, 2, 75, 66
3, 52740, Note_on_c, 2, 79, 45
3, 52800, Note_on_c, 2, 79, 0
3, 52800, Note_on_c, 2, 75, 0
3, 52800, Note_on_c, 2, 77, 71
3, 52800, Note_on_c, 2, 72, 32
3, 52860, Note_on_c, 2, 72, 0
3, 52860, Note_on_c, 2, 77, 0
3, 52860, Note_on_c, 2, 80, 64
3, 52860, Note_on_c, 2, 77, 64
3, 52920, Note_on_c, 2, 77, 0
3, 52920, Note_on_c, 2, 80, 0
3, 52920, Note_on_c, 2, 80, 64
3, 52920, Note_on_c, 2, 77, 65
3, 52980, Note_on_c, 2, 77, 0
3, 52980, Note_on_c, 2, 80, 0
3, 52980, Note_on_c, 2, 74, 66
3, 52980, Note_on_c, 2, 77, 62
3, 53040, Note_on_c, 2, 77, 0
3, 53040, Note_on_c, 2, 74, 0
3, 55920, Note_on_c, 2, 75, 39
3, 55950, Note_on_c, 2, 75, 0
3, 56040, Note_on_c, 2, 79, 40
3, 56070, Note_on_c, 2, 79, 0
3, 56100, Note_on_c, 2, 79, 40
3, 56130, Note_on_c, 2, 79, 0
3, 56160, Note_on_c, 2, 79, 38
3, 56190, Note_on_c, 2, 79, 0
3, 56520, Note_on_c, 2, 84, 36
3, 56550, Note_on_c, 2, 84, 0
3, 56580, Note_on_c, 2, 82, 43
3, 56595, Note_on_c, 2, 82, 0
3, 56610, Note_on_c, 2, 84, 42
3, 56625, Note_on_c, 2, 84, 0
3, 56640, Note_on_c, 2, 81, 42
3, 56670, Note_on_c, 2, 81, 0
3, 58800, Note_on_c, 2, 70, 43
3, 58830, Note_on_c, 2, 70, 0
3, 58920, Note_on_c, 2, 73, 42
3, 58950, Note_on_c, 2, 73, 0
3, 58980, Note_on_c, 2, 77, 43
3, 59010, Note_on_c, 2, 77, 0
3, 59040, Note_on_c, 2, 82, 45
3, 59070, Note_on_c, 2, 82, 0
3, 59280, Note_on_c, 2, 82, 43
3, 59310, Note_on_c, 2, 82, 0
3, 59340, Note_on_c, 2, 80, 45
3, 59355, Note_on_c, 2, 80, 0
3, 59370, Note_on_c, 2, 82, 41
3, 59385, Note_on_c, 2, 82, 0
3, 59400, Note_on_c, 2, 79, 43
3, 59430, Note_on_c, 2, 79, 0
3, 59460, Note_on_c, 2, 77, 43
3, 59475, Note_on_c, 2, 77, 0
3, 59490, Note_on_c, 2, 79, 59
3, 59505, Note_on_c, 2, 79, 0
3, 59520, Note_on_c, 2, 76, 46
3, 59550, Note_on_c, 2, 76, 0
3, 59760, Note_on_c, 2, 68, 73
3, 59875, Control_c, 2, 7, 99
3, 59880, Control_c, 2, 7, 98
3, 59885, Control_c, 2, 7, 96
3, 59890, Control_c, 2, 7, 94
3, 59895, Control_c, 2, 7, 93
3, 59900, Control_c, 2, 7, 91
3, 59905, Control_c, 2, 7, 89
3, 59910, Control_c, 2, 7, 87
3, 59915, Control_c, 2, 7, 86
3, 59920, Control_c, 2, 7, 84
3, 59925, Control_c, 2, 7, 82
3, 59930, Control_c, 2, 7, 81
3, 59935, Control_c, 2, 7, 79
3, 59940, Control_c, 2, 7, 77
3, 59945, Control_c, 2, 7, 75
3, 60720, Note_on_c, 2, 68, 0
3, 60720, Control_c, 2, 7, 98
3, 60720, Note_on_c, 2, 72, 73
3, 60835, Control_c, 2, 7, 93
3, 60840, Control_c, 2, 7, 92
3, 60845, Control_c, 2, 7, 91
3, 60850, Control_c, 2, 7, 89
3, 60855, Control_c, 2, 7, 88
3, 60860, Control_c, 2, 7, 87
3, 60865, Control_c, 2, 7, 85
3, 60870, Control_c, 2, 7, 84
3, 60875, Control_c, 2, 7, 82
3, 60880, Control_c, 2, 7, 81
3, 60885, Control_c, 2, 7, 80
3, 60890, Control_c, 2, 7, 78
3, 60895, Control_c, 2, 7, 77
3, 60900, Control_c, 2, 7, 75
3, 61680, Note_on_c, 2, 72, 0
3, 61680, Control_c, 2, 7, 99
3, 61680, Note_on_c, 2, 72, 94
3, 61740, Note_on_c, 2, 72, 0
3, 63300, Note_on_c, 2, 78, 43
3, 63330, Note_on_c, 2, 78, 0
3, 63330, Note_on_c, 2, 78, 41
3, 63360, Note_on_c, 2, 78, 0
3, 63360, Note_on_c, 2, 78, 42
3, 63420, Note_on_c, 2, 78, 0
3, 63540, Note_on_c, 2, 78, 43
3, 63570, Note_on_c, 2, 78, 0
3, 63570, Note_on_c, 2, 78, 43
3, 63600, Note_on_c, 2, 78, 0
3, 63600, Note_on_c, 2, 79, 48
3, 63660, Note_on_c, 2, 79, 0
3, 64260, Note_on_c, 2, 79, 42
3, 64260, Note_on_c, 2, 74, 43
3, 64290, Note_on_c, 2, 74, 0
3, 64290, Note_on_c, 2, 79, 0
3, 64290, Note_on_c, 2, 79, 42
3, 64290, Note_on_c, 2, 74, 43
3, 64320, Note_on_c, 2, 74, 0
3, 64320, Note_on_c, 2, 79, 0
3, 64320, Note_on_c, 2, 74, 50
3, 64320, Note_on_c, 2, 79, 42
3, 64380, Note_on_c, 2, 79, 0
3, 64380, Note_on_c, 2, 74, 0
3, 64500, Note_on_c, 2, 74, 46
3, 64500, Note_on_c, 2, 79, 42
3, 64530, Note_on_c, 2, 79, 0
3, 64530, Note_on_c, 2, 74, 0
3, 64530, Note_on_c, 2, 79, 40
3, 64530, Note_on_c, 2, 74, 43
3, 64560, Note_on_c, 2, 74, 0
3, 64560, Note_on_c, 2, 79, 0
3, 64560, Note_on_c, 2, 74, 45
3, 64620, Note_on_c, 2, 74, 0
3, 65220, Note_on_c, 2, 77, 41
3, 65220, Note_on_c, 2, 74, 44
3, 65250, Note_on_c, 2, 74, 0
3, 65250, Note_on_c, 2, 77, 0
3, 65250, Note_on_c, 2, 77, 40
3, 65250, Note_on_c, 2, 74, 43
3, 65280, Note_on_c, 2, 74, 0
3, 65280, Note_on_c, 2, 77, 0
3, 65280, Note_on_c, 2, 74, 45
3, 65280, Note_on_c, 2, 77, 43
3, 65340, Note_on_c, 2, 77, 0
3, 65340, Note_on_c, 2, 74, 0
3, 65460, Note_on_c, 2, 74, 45
3, 65460, Note_on_c, 2, 77, 43
3, 65490, Note_on_c, 2, 77, 0
3, 65490, Note_on_c, 2, 74, 0
3, 65490, Note_on_c, 2, 77, 40
3, 65490, Note_on_c, 2, 74, 43
3, 65520, Note_on_c, 2, 74, 0
3, 65520, Note_on_c, 2, 77, 0
3, 65520, Note_on_c, 2, 72, 29
3, 65580, Note_on_c, 2, 72, 0
3, 66180, Note_on_c, 2, 79, 42
3, 66180, Note_on_c, 2, 72, 45
3, 66210, Note_on_c, 2, 72, 0
3, 66210, Note_on_c, 2, 79, 0
3, 66210, Note_on_c, 2, 72, 44
3, 66210, Note_on_c, 2, 79, 43
3, 66240, Note_on_c, 2, 79, 0
3, 66240, Note_on_c, 2, 72, 0
3, 66240, Note_on_c, 2, 79, 40
3, 66240, Note_on_c, 2, 72, 41
3, 66300, Note_on_c, 2, 72, 0
3, 66300, Note_on_c, 2, 79, 0
3, 66420, Note_on_c, 2, 79, 36
3, 66420, Note_on_c, 2, 72, 40
3, 66450, Note_on_c, 2, 72, 0
3, 66450, Note_on_c, 2, 79, 0
3, 66450, Note_on_c, 2, 72, 45
3, 66450, Note_on_c, 2, 79, 39
3, 66480, Note_on_c, 2, 79, 0
3, 66480, Note_on_c, 2, 72, 0
3, 66480, Note_on_c, 2, 73, 38
3, 66480, Note_on_c, 2, 79, 32
3, 66540, Note_on_c, 2, 79, 0
3, 66540, Note_on_c, 2, 73, 0
3, 67140, Note_on_c, 2, 73, 43
3, 67140, Note_on_c, 2, 79, 38
3, 67170, Note_on_c, 2, 79, 0
3, 67170, Note_on_c, 2, 73, 0
3, 67170, Note_on_c, 2, 73, 40
3, 67170, Note_on_c, 2, 79, 29
3, 67200, Note_on_c, 2, 79, 0
3, 67200, Note_on_c, 2, 73, 0
3, 67200, Note_on_c, 2, 73, 40
3, 67200, Note_on_c, 2, 79, 36
3, 67260, Note_on_c, 2, 79, 0
3, 67260, Note_on_c, 2, 73, 0
3, 67380, Note_on_c, 2, 73, 43
3, 67380, Note_on_c, 2, 79, 37
3, 67410, Note_on_c, 2, 79, 0
3, 67410, Note_on_c, 2, 73, 0
3, 67410, Note_on_c, 2, 73, 51
3, 67410, Note_on_c, 2, 79, 39
3, 67440, Note_on_c, 2, 79, 0
3, 67440, Note_on_c, 2, 73, 0
3, 67440, Note_on_c, 2, 74, 64
3, 67440, Note_on_c, 2, 78, 70
3, 67500, Note_on_c, 2, 78, 0
3, 67500, Note_on_c, 2, 74, 0
3, 78240, Note_on_c, 2, 78, 33
3, 78480, Note_on_c, 2, 78, 0
3, 78480, Note_on_c, 2, 79, 41
3, 78600, Note_on_c, 2, 79, 0
3, 78600, Note_on_c, 2, 81, 42
3, 78720, Note_on_c, 2, 81, 0
3, 78720, Note_on_c, 2, 83, 38
3, 79020, Note_on_c, 2, 83, 0
3, 79020, Note_on_c, 2, 81, 43
3, 79080, Note_on_c, 2, 81, 0
3, 79080, Note_on_c, 2, 79, 35
3, 79140, Note_on_c, 2, 79, 0
3, 79140, Note_on_c, 2, 81, 40
3, 79200, Note_on_c, 2, 81, 0
3, 79200, Note_on_c, 2, 79, 43
3, 79320, Note_on_c, 2, 79, 0
3, 79320, Note_on_c, 2, 78, 35
3, 79560, Note_on_c, 2, 78, 0
3, 79560, Note_on_c, 2, 79, 43
3, 79620, Note_on_c, 2, 79, 0
3, 79620, Note_on_c, 2, 81, 38
3, 79680, Note_on_c, 2, 81, 0
3, 79680, Note_on_c, 2, 74, 40
3, 79800, Note_on_c, 2, 74, 0
3, 79800, Note_on_c, 2, 86, 32
3, 80040, Note_on_c, 2, 86, 0
3, 80040, Note_on_c, 2, 84, 36
3, 80100, Note_on_c, 2, 84, 0
3, 80100, Note_on_c, 2, 83, 43
3, 80160, Note_on_c, 2, 83, 0
3, 80160, Note_on_c, 2, 83, 47
3, 80280, Note_on_c, 2, 83, 0
3, 80280, Note_on_c, 2, 81, 47
3, 80400, Note_on_c, 2, 66, 49
3, 80460, Note_on_c, 2, 81, 0
3, 80460, Note_on_c, 2, 74, 61
3, 80520, Note_on_c, 2, 74, 0
3, 80520, Note_on_c, 2, 66, 0
3, 80520, Note_on_c, 2, 76, 50
3, 80520, Note_on_c, 2, 67, 43
3, 80580, Note_on_c, 2, 67, 0
3, 80580, Note_on_c, 2, 76, 0
3, 80580, Note_on_c, 2, 78, 43
3, 80580, Note_on_c, 2, 69, 43
3, 80640, Note_on_c, 2, 69, 0
3, 80640, Note_on_c, 2, 78, 0
3, 80640, Note_on_c, 2, 79, 43
3, 80640, Note_on_c, 2, 71, 45
3, 80760, Note_on_c, 2, 71, 0
3, 80760, Note_on_c, 2, 72, 62
3, 80820, Note_on_c, 2, 79, 0
3, 80820, Note_on_c, 2, 81, 33
3, 80880, Note_on_c, 2, 72, 0
3, 80880, Note_on_c, 2, 66, 43
3, 80940, Note_on_c, 2, 81, 0
3, 80940, Note_on_c, 2, 74, 40
3, 81000, Note_on_c, 2, 74, 0
3, 81000, Note_on_c, 2, 66, 0
3, 81000, Note_on_c, 2, 76, 46
3, 81000, Note_on_c, 2, 67, 38
3, 81060, Note_on_c, 2, 67, 0
3, 81060, Note_on_c, 2, 76, 0
3, 81060, Note_on_c, 2, 78, 39
3, 81060, Note_on_c, 2, 69, 52
3, 81120, Note_on_c, 2, 69, 0
3, 81120, Note_on_c, 2, 78, 0
3, 81120, Note_on_c, 2, 71, 73
3, 81120, Note_on_c, 2, 79, 69
3, 81150, Note_on_c, 2, 79, 0
3, 81150, Note_on_c, 2, 71, 0
3, 81180, Note_on_c, 2, 79, 67
3, 81210, Note_on_c, 2, 79, 0
3, 81660, Note_on_c, 2, 78, 84
3, 81720, Note_on_c, 2, 78, 0
3, 82140, Note_on_c, 2, 79, 71
3, 82200, Note_on_c, 2, 79, 0
3, 82620, Note_on_c, 2, 78, 73
3, 82680, Note_on_c, 2, 78, 0
3, 83100, Note_on_c, 2, 74, 73
3, 83160, Note_on_c, 2, 74, 0
3, 83340, Note_on_c, 2, 75, 89
3, 83400, Note_on_c, 2, 75, 0
3, 83580, Note_on_c, 2, 76, 58
3, 83640, Note_on_c, 2, 76, 0
3, 83700, Note_on_c, 2, 74, 53
3, 83760, Note_on_c, 2, 74, 0
3, 83820, Note_on_c, 2, 72, 58
3, 83880, Note_on_c, 2, 72, 0
3, 83940, Note_on_c, 2, 71, 58
3, 84000, Note_on_c, 2, 71, 0
3, 84060, Note_on_c, 2, 69, 64
3, 84120, Note_on_c, 2, 69, 0
3, 84180, Note_on_c, 2, 84, 45
3, 84240, Note_on_c, 2, 84, 0
3, 84240, Note_on_c, 2, 78, 43
3, 84300, Note_on_c, 2, 78, 0
3, 84540, Note_on_c, 2, 79, 35
3, 84600, Note_on_c, 2, 79, 0
3, 85020, Note_on_c, 2, 78, 29
3, 85080, Note_on_c, 2, 78, 0
3, 85500, Note_on_c, 2, 79, 29
3, 85560, Note_on_c, 2, 79, 0
3, 85980, Note_on_c, 2, 79, 29
3, 86040, Note_on_c, 2, 79, 0
3, 86460, Note_on_c, 2, 79, 35
3, 86520, Note_on_c, 2, 79, 0
3, 86940, Note_on_c, 2, 70, 73
3, 87075, Control_c, 2, 7, 100
3, 87080, Control_c, 2, 7, 99
3, 87085, Control_c, 2, 7, 98
3, 87090, Control_c, 2, 7, 97
3, 87095, Control_c, 2, 7, 96
3, 87100, Control_c, 2, 7, 95
3, 87105, Control_c, 2, 7, 94
3, 87110, Control_c, 2, 7, 93
3, 87115, Control_c, 2, 7, 92
3, 87120, Control_c, 2, 7, 91
3, 87125, Control_c, 2, 7, 90
3, 87130, Control_c, 2, 7, 89
3, 87135, Control_c, 2, 7, 88
3, 87140, Control_c, 2, 7, 87
3, 87145, Control_c, 2, 7, 86
3, 87150, Control_c, 2, 7, 85
3, 87155, Control_c, 2, 7, 84
3, 87160, Control_c, 2, 7, 83
3, 87165, Control_c, 2, 7, 82
3, 87600, Note_on_c, 2, 70, 0
3, 87600, Note_on_c, 2, 70, 58
3, 87660, Note_on_c, 2, 70, 0
3, 87720, Note_on_c, 2, 70, 72
3, 87780, Note_on_c, 2, 70, 0
3, 87855, Control_c, 2, 7, 100
3, 87900, Note_on_c, 2, 70, 65
3, 88030, Control_c, 2, 7, 100
3, 88040, Control_c, 2, 7, 99
3, 88045, Control_c, 2, 7, 98
3, 88050, Control_c, 2, 7, 97
3, 88060, Control_c, 2, 7, 96
3, 88065, Control_c, 2, 7, 95
3, 88070, Control_c, 2, 7, 94
3, 88080, Control_c, 2, 7, 93
3, 88085, Control_c, 2, 7, 92
3, 88090, Control_c, 2, 7, 91
3, 88100, Control_c, 2, 7, 90
3, 88105, Control_c, 2, 7, 89
3, 88110, Control_c, 2, 7, 88
3, 88120, Control_c, 2, 7, 87
3, 88125, Control_c, 2, 7, 86
3, 88130, Control_c, 2, 7, 85
3, 88560, Note_on_c, 2, 70, 0
3, 88560, Note_on_c, 2, 70, 68
3, 88620, Note_on_c, 2, 70, 0
3, 88680, Note_on_c, 2, 70, 76
3, 88740, Note_on_c, 2, 70, 0
3, 88800, Note_on_c, 2, 70, 73
3, 88920, Note_on_c, 2, 70, 0
3, 88950, Control_c, 2, 7, 100
3, 89220, Note_on_c, 2, 70, 55
3, 89250, Note_on_c, 2, 70, 0
3, 89250, Note_on_c, 2, 70, 40
3, 89280, Note_on_c, 2, 70, 0
3, 89280, Note_on_c, 2, 70, 43
3, 89400, Note_on_c, 2, 70, 0
3, 89700, Note_on_c, 2, 75, 32
3, 89730, Note_on_c, 2, 75, 0
3, 89730, Note_on_c, 2, 75, 39
3, 89760, Note_on_c, 2, 75, 0
3, 89760, Note_on_c, 2, 75, 35
3, 89820, Note_on_c, 2, 75, 0
3, 94320, Note_on_c, 2, 70, 32
3, 94320, Note_on_c, 2, 74, 31
3, 94380, Note_on_c, 2, 74, 0
3, 94380, Note_on_c, 2, 70, 0
3, 94440, Note_on_c, 2, 77, 37
3, 94440, Note_on_c, 2, 74, 40
3, 94500, Note_on_c, 2, 74, 0
3, 94500, Note_on_c, 2, 77, 0
3, 94800, Note_on_c, 2, 74, 32
3, 94800, Note_on_c, 2, 70, 35
3, 94860, Note_on_c, 2, 70, 0
3, 94860, Note_on_c, 2, 74, 0
3, 94920, Note_on_c, 2, 77, 40
3, 94920, Note_on_c, 2, 74, 43
3, 94980, Note_on_c, 2, 74, 0
3, 94980, Note_on_c, 2, 77, 0
3, 95280, Note_on_c, 2, 75, 37
3, 95280, Note_on_c, 2, 72, 29
3, 95340, Note_on_c, 2, 72, 0
3, 95340, Note_on_c, 2, 75, 0
3, 95400, Note_on_c, 2, 75, 34
3, 95400, Note_on_c, 2, 79, 33
3, 95460, Note_on_c, 2, 79, 0
3, 95460, Note_on_c, 2, 75, 0
3, 95760, Note_on_c, 2, 75, 30
3, 95760, Note_on_c, 2, 72, 29
3, 95820, Note_on_c, 2, 72, 0
3, 95820, Note_on_c, 2, 75, 0
3, 95880, Note_on_c, 2, 75, 38
3, 95880, Note_on_c, 2, 79, 40
3, 95940, Note_on_c, 2, 79, 0
3, 95940, Note_on_c, 2, 75, 0
3, 96000, Note_on_c, 2, 75, 89
3, 96030, Note_on_c, 2, 75, 0
3, 96120, Note_on_c, 2, 68, 86
3, 96150, Note_on_c, 2, 68, 0
3, 96240, Note_on_c, 2, 75, 89
3, 96240, Note_on_c, 2, 72, 55
3, 96360, Note_on_c, 2, 72, 0
3, 96360, Note_on_c, 2, 75, 0
3, 96420, Note_on_c, 2, 75, 89
3, 96420, Note_on_c, 2, 72, 105
3, 96450, Note_on_c, 2, 72, 0
3, 96450, Note_on_c, 2, 75, 0
3, 96450, Note_on_c, 2, 75, 81
3, 96450, Note_on_c, 2, 72, 93
3, 96480, Note_on_c, 2, 72, 0
3, 96480, Note_on_c, 2, 75, 0
3, 96480, Note_on_c, 2, 72, 86
3, 96480, Note_on_c, 2, 75, 90
3, 96600, Note_on_c, 2, 75, 0
3, 96600, Note_on_c, 2, 72, 0
3, 96660, Note_on_c, 2, 75, 82
3, 96660, Note_on_c, 2, 72, 94
3, 96690, Note_on_c, 2, 72, 0
3, 96690, Note_on_c, 2, 75, 0
3, 96690, Note_on_c, 2, 75, 89
3, 96690, Note_on_c, 2, 72, 47
3, 96690, Note_on_c, 2, 75, 43
3, 96720, Note_on_c, 2, 75, 0
3, 96720, Note_on_c, 2, 72, 0
3, 96720, Note_on_c, 2, 75, 0
3, 96720, Note_on_c, 2, 75, 89
3, 96720, Note_on_c, 2, 72, 105
3, 96780, Note_on_c, 2, 72, 0
3, 96780, Note_on_c, 2, 75, 0
3, 96840, Note_on_c, 2, 75, 81
3, 96840, Note_on_c, 2, 81, 74
3, 96870, Note_on_c, 2, 81, 0
3, 96870, Note_on_c, 2, 75, 0
3, 96900, Note_on_c, 2, 84, 74
3, 96900, Note_on_c, 2, 81, 86
3, 96930, Note_on_c, 2, 81, 0
3, 96930, Note_on_c, 2, 84, 0
3, 96960, Note_on_c, 2, 75, 90
3, 96960, Note_on_c, 2, 84, 69
3, 96990, Note_on_c, 2, 84, 0
3, 96990, Note_on_c, 2, 75, 0
3, 97200, Note_on_c, 2, 75, 86
3, 97200, Note_on_c, 2, 72, 112
3, 97320, Note_on_c, 2, 72, 0
3, 97320, Note_on_c, 2, 75, 0
3, 97380, Note_on_c, 2, 75, 81
3, 97410, Note_on_c, 2, 75, 0
3, 97410, Note_on_c, 2, 75, 89
3, 97410, Note_on_c, 2, 72, 112
3, 97440, Note_on_c, 2, 72, 0
3, 97440, Note_on_c, 2, 75, 0
3, 97440, Note_on_c, 2, 72, 105
3, 97440, Note_on_c, 2, 75, 85
3, 97560, Note_on_c, 2, 75, 0
3, 97560, Note_on_c, 2, 72, 0
3, 97620, Note_on_c, 2, 75, 89
3, 97620, Note_on_c, 2, 72, 105
3, 97650, Note_on_c, 2, 72, 0
3, 97650, Note_on_c, 2, 75, 0
3, 97650, Note_on_c, 2, 75, 89
3, 97650, Note_on_c, 2, 72, 95
3, 97680, Note_on_c, 2, 72, 0
3, 97680, Note_on_c, 2, 75, 0
3, 97680, Note_on_c, 2, 75, 89
3, 97680, Note_on_c, 2, 72, 112
3, 97740, Note_on_c, 2, 72, 0
3, 97740, Note_on_c, 2, 75, 0
3, 97800, Note_on_c, 2, 75, 86
3, 97800, Note_on_c, 2, 81, 80
3, 97830, Note_on_c, 2, 81, 0
3, 97830, Note_on_c, 2, 75, 0
3, 97860, Note_on_c, 2, 81, 81
3, 97860, Note_on_c, 2, 84, 81
3, 97890, Note_on_c, 2, 84, 0
3, 97890, Note_on_c, 2, 81, 0
3, 97920, Note_on_c, 2, 81, 73
3, 97920, Note_on_c, 2, 84, 76
3, 98040, Note_on_c, 2, 84, 0
3, 98040, Note_on_c, 2, 81, 0
3, 98040, Note_on_c, 2, 81, 78
3, 98040, Note_on_c, 2, 84, 76
3, 98070, Note_on_c, 2, 84, 0
3, 98070, Note_on_c, 2, 81, 0
3, 98100, Note_on_c, 2, 81, 76
3, 98100, Note_on_c, 2, 84, 81
3, 98130, Note_on_c, 2, 84, 0
3, 98130, Note_on_c, 2, 81, 0
3, 98160, Note_on_c, 2, 81, 86
3, 98160, Note_on_c, 2, 84, 90
3, 98280, Note_on_c, 2, 84, 0
3, 98280, Note_on_c, 2, 81, 0
3, 98280, Note_on_c, 2, 81, 77
3, 98280, Note_on_c, 2, 84, 81
3, 98310, Note_on_c, 2, 84, 0
3, 98310, Note_on_c, 2, 81, 0
3, 98340, Note_on_c, 2, 81, 78
3, 98340, Note_on_c, 2, 84, 84
3, 98370, Note_on_c, 2, 84, 0
3, 98370, Note_on_c, 2, 81, 0
3, 98400, Note_on_c, 2, 81, 73
3, 98400, Note_on_c, 2, 84, 77
3, 98520, Note_on_c, 2, 84, 0
3, 98520, Note_on_c, 2, 81, 0
3, 98520, Note_on_c, 2, 81, 76
3, 98520, Note_on_c, 2, 84, 84
3, 98550, Note_on_c, 2, 84, 0
3, 98550, Note_on_c, 2, 81, 0
3, 98580, Note_on_c, 2, 81, 80
3, 98580, Note_on_c, 2, 84, 84
3, 98610, Note_on_c, 2, 84, 0
3, 98610, Note_on_c, 2, 81, 0
3, 98640, Note_on_c, 2, 83, 76
3, 98640, Note_on_c, 2, 74, 94
3, 98700, Note_on_c, 2, 74, 0
3, 98700, Note_on_c, 2, 83, 0
3, 106260, Note_on_c, 2, 84, 66
3, 106260, Note_on_c, 2, 76, 61
3, 106290, Note_on_c, 2, 76, 0
3, 106290, Note_on_c, 2, 84, 0
3, 106290, Note_on_c, 2, 84, 64
3, 106290, Note_on_c, 2, 76, 71
3, 106320, Note_on_c, 2, 76, 0
3, 106320, Note_on_c, 2, 84, 0
3, 106320, Note_on_c, 2, 76, 55
3, 106320, Note_on_c, 2, 84, 61
3, 106440, Note_on_c, 2, 84, 0
3, 106440, Note_on_c, 2, 76, 0
3, 106500, Note_on_c, 2, 84, 61
3, 106500, Note_on_c, 2, 76, 70
3, 106530, Note_on_c, 2, 76, 0
3, 106530, Note_on_c, 2, 84, 0
3, 106530, Note_on_c, 2, 84, 64
3, 106530, Note_on_c, 2, 76, 72
3, 106560, Note_on_c, 2, 76, 0
3, 106560, Note_on_c, 2, 84, 0
3, 106560, Note_on_c, 2, 84, 64
3, 106560, Note_on_c, 2, 76, 74
3, 106680, Note_on_c, 2, 76, 0
3, 106680, Note_on_c, 2, 84, 0
3, 106740, Note_on_c, 2, 84, 49
3, 106740, Note_on_c, 2, 76, 70
3, 106770, Note_on_c, 2, 76, 0
3, 106770, Note_on_c, 2, 84, 0
3, 106770, Note_on_c, 2, 84, 57
3, 106770, Note_on_c, 2, 76, 70
3, 106800, Note_on_c, 2, 76, 0
3, 106800, Note_on_c, 2, 84, 0
3, 106800, Note_on_c, 2, 76, 82
3, 106800, Note_on_c, 2, 84, 58
3, 106860, Note_on_c, 2, 84, 0
3, 106860, Note_on_c, 2, 76, 0
3, 106860, Note_on_c, 2, 76, 65
3, 106860, Note_on_c, 2, 84, 57
3, 106890, Note_on_c, 2, 84, 0
3, 106890, Note_on_c, 2, 76, 0
3, 106890, Note_on_c, 2, 84, 53
3, 106890, Note_on_c, 2, 76, 64
3, 106920, Note_on_c, 2, 76, 0
3, 106920, Note_on_c, 2, 84, 0
3, 106920, Note_on_c, 2, 84, 65
3, 106920, Note_on_c, 2, 76, 76
3, 106980, Note_on_c, 2, 76, 0
3, 106980, Note_on_c, 2, 84, 0
3, 106980, Note_on_c, 2, 84, 71
3, 106980, Note_on_c, 2, 76, 90
3, 107010, Note_on_c, 2, 76, 0
3, 107010, Note_on_c, 2, 84, 0
3, 107010, Note_on_c, 2, 84, 43
3, 107010, Note_on_c, 2, 76, 67
3, 107040, Note_on_c, 2, 76, 0
3, 107040, Note_on_c, 2, 84, 0
3, 107040, Note_on_c, 2, 84, 58
3, 107040, Note_on_c, 2, 76, 77
3, 107100, Note_on_c, 2, 76, 0
3, 107100, Note_on_c, 2, 84, 0
3, 107220, Note_on_c, 2, 84, 62
3, 107220, Note_on_c, 2, 76, 76
3, 107250, Note_on_c, 2, 76, 0
3, 107250, Note_on_c, 2, 84, 0
3, 107250, Note_on_c, 2, 84, 52
3, 107250, Note_on_c, 2, 76, 72
3, 107280, Note_on_c, 2, 76, 0
3, 107280, Note_on_c, 2, 84, 0
3, 107280, Note_on_c, 2, 84, 61
3, 107280, Note_on_c, 2, 76, 84
3, 107340, Note_on_c, 2, 76, 0
3, 107340, Note_on_c, 2, 84, 0
3, 107340, Note_on_c, 2, 81, 66
3, 107340, Note_on_c, 2, 72, 99
3, 107370, Note_on_c, 2, 72, 0
3, 107370, Note_on_c, 2, 81, 0
3, 107370, Note_on_c, 2, 81, 59
3, 107370, Note_on_c, 2, 72, 42
3, 107400, Note_on_c, 2, 72, 0
3, 107400, Note_on_c, 2, 81, 0
3, 107400, Note_on_c, 2, 81, 58
3, 107400, Note_on_c, 2, 72, 101
3, 107460, Note_on_c, 2, 72, 0
3, 107460, Note_on_c, 2, 81, 0
3, 107460, Note_on_c, 2, 78, 57
3, 107460, Note_on_c, 2, 69, 85
3, 107490, Note_on_c, 2, 69, 0
3, 107490, Note_on_c, 2, 78, 0
3, 107490, Note_on_c, 2, 78, 65
3, 107490, Note_on_c, 2, 69, 84
3, 107520, Note_on_c, 2, 69, 0
3, 107520, Note_on_c, 2, 78, 0
3, 107520, Note_on_c, 2, 78, 61
3, 107520, Note_on_c, 2, 69, 89
3, 107640, Note_on_c, 2, 69, 0
3, 107640, Note_on_c, 2, 78, 0
3, 107700, Note_on_c, 2, 78, 68
3, 107700, Note_on_c, 2, 69, 89
3, 107730, Note_on_c, 2, 69, 0
3, 107730, Note_on_c, 2, 78, 0
3, 107730, Note_on_c, 2, 76, 72
3, 107730, Note_on_c, 2, 67, 72
3, 107760, Note_on_c, 2, 67, 0
3, 107760, Note_on_c, 2, 76, 0
3, 107760, Note_on_c, 2, 78, 66
3, 107760, Note_on_c, 2, 69, 89
3, 107820, Note_on_c, 2, 69, 0
3, 107820, Note_on_c, 2, 78, 0
3, 107880, Note_on_c, 2, 78, 65
3, 107880, Note_on_c, 2, 74, 82
3, 107940, Note_on_c, 2, 74, 0
3, 107940, Note_on_c, 2, 78, 0
3, 108000, Note_on_c, 2, 79, 63
3, 108000, Note_on_c, 2, 71, 77
3, 108060, Note_on_c, 2, 71, 0
3, 108060, Note_on_c, 2, 79, 0
3, 108120, Note_on_c, 2, 71, 90
3, 108120, Note_on_c, 2, 79, 68
3, 108180, Note_on_c, 2, 79, 0
3, 108180, Note_on_c, 2, 71, 0
3, 108240, Note_on_c, 2, 69, 65
3, 108240, Note_on_c, 2, 79, 80
3, 108300, Note_on_c, 2, 79, 0
3, 108300, Note_on_c, 2, 69, 0
3, 108300, Note_on_c, 2, 69, 74
3, 108300, Note_on_c, 2, 78, 71
3, 108330, Note_on_c, 2, 78, 0
3, 108330, Note_on_c, 2, 76, 81
3, 108360, Note_on_c, 2, 76, 0
3, 108360, Note_on_c, 2, 69, 0
3, 108360, Note_on_c, 2, 69, 78
3, 108360, Note_on_c, 2, 78, 81
3, 108420, Note_on_c, 2, 78, 0
3, 108420, Note_on_c, 2, 69, 0
3, 108420, Note_on_c, 2, 66, 65
3, 108420, Note_on_c, 2, 74, 76
3, 108480, Note_on_c, 2, 74, 0
3, 108480, Note_on_c, 2, 66, 0
3, 108480, Note_on_c, 2, 83, 71
3, 108780, Note_on_c, 2, 83, 0
3, 108780, Note_on_c, 2, 81, 84
3, 108900, Note_on_c, 2, 81, 0
3, 108900, Note_on_c, 2, 79, 76
3, 109020, Note_on_c, 2, 79, 0
3, 109020, Note_on_c, 2, 78, 68
3, 109080, Note_on_c, 2, 78, 0
3, 109080, Note_on_c, 2, 79, 72
3, 109110, Note_on_c, 2, 71, 74
3, 109140, Note_on_c, 2, 71, 0
3, 109140, Note_on_c, 2, 79, 0
3, 109140, Note_on_c, 2, 72, 101
3, 109140, Note_on_c, 2, 79, 73
3, 109170, Note_on_c, 2, 72, 0
3, 109170, Note_on_c, 2, 74, 76
3, 109200, Note_on_c, 2, 74, 0
3, 109200, Note_on_c, 2, 79, 0
3, 109200, Note_on_c, 2, 76, 76
3, 109200, Note_on_c, 2, 81, 76
3, 109230, Note_on_c, 2, 76, 0
3, 109230, Note_on_c, 2, 72, 99
3, 109260, Note_on_c, 2, 72, 0
3, 109260, Note_on_c, 2, 74, 73
3, 109290, Note_on_c, 2, 74, 0
3, 109290, Note_on_c, 2, 76, 84
3, 109320, Note_on_c, 2, 76, 0
3, 109320, Note_on_c, 2, 81, 0
3, 109320, Note_on_c, 2, 69, 64
3, 109320, Note_on_c, 2, 78, 52
3, 109380, Note_on_c, 2, 78, 0
3, 109380, Note_on_c, 2, 69, 0
3, 109380, Note_on_c, 2, 69, 72
3, 109380, Note_on_c, 2, 78, 69
3, 109440, Note_on_c, 2, 78, 0
3, 109440, Note_on_c, 2, 69, 0
3, 110460, Note_on_c, 2, 79, 76
3, 110490, Note_on_c, 2, 79, 0
3, 110490, Note_on_c, 2, 79, 72
3, 110520, Note_on_c, 2, 79, 0
3, 110520, Note_on_c, 2, 79, 76
3, 110580, Note_on_c, 2, 79, 0
3, 111420, Note_on_c, 2, 79, 84
3, 111450, Note_on_c, 2, 79, 0
3, 111450, Note_on_c, 2, 79, 68
3, 111480, Note_on_c, 2, 79, 0
3, 111480, Note_on_c, 2, 79, 74
3, 111540, Note_on_c, 2, 79, 0
3, 115200, Note_on_c, 2, 78, 36
3, 115680, Note_on_c, 2, 78, 0
3, 115680, Note_on_c, 2, 79, 35
3, 116220, Note_on_c, 2, 79, 0
3, 117120, Note_on_c, 2, 79, 32
3, 117360, Note_on_c, 2, 79, 0
3, 117360, Note_on_c, 2, 76, 32
3, 117480, Note_on_c, 2, 76, 0
3, 117480, Note_on_c, 2, 72, 43
3, 117600, Note_on_c, 2, 72, 0
3, 117600, Note_on_c, 2, 69, 41
3, 117840, Note_on_c, 2, 69, 0
3, 117840, Note_on_c, 2, 74, 40
3, 119040, Note_on_c, 2, 74, 0
3, 119040, Note_on_c, 2, 74, 46
3, 120360, Note_on_c, 2, 74, 0
3, 120360, Note_on_c, 2, 72, 62
3, 120420, Note_on_c, 2, 72, 0
3, 120420, Note_on_c, 2, 71, 74
3, 120480, Note_on_c, 2, 71, 0
3, 120480, Note_on_c, 2, 71, 73
3, 120600, Note_on_c, 2, 71, 0
3, 120600, Note_on_c, 2, 69, 77
3, 120780, Note_on_c, 2, 69, 0
3, 120780, Note_on_c, 2, 62, 80
3, 120840, Note_on_c, 2, 62, 0
3, 120840, Note_on_c, 2, 64, 76
3, 120900, Note_on_c, 2, 64, 0
3, 120900, Note_on_c, 2, 66, 85
3, 120960, Note_on_c, 2, 66, 0
3, 120960, Note_on_c, 2, 67, 68
3, 121200, Note_on_c, 2, 67, 0
3, 121200, Note_on_c, 2, 69, 78
3, 121215, Note_on_c, 2, 69, 0
3, 121215, Note_on_c, 2, 67, 72
3, 121230, Note_on_c, 2, 67, 0
3, 121230, Note_on_c, 2, 66, 76
3, 121245, Note_on_c, 2, 66, 0
3, 121245, Note_on_c, 2, 67, 58
3, 121260, Note_on_c, 2, 67, 0
3, 121260, Note_on_c, 2, 69, 90
3, 121320, Note_on_c, 2, 69, 0
3, 121320, Note_on_c, 2, 71, 82
3, 121380, Note_on_c, 2, 71, 0
3, 121380, Note_on_c, 2, 72, 101
3, 121440, Note_on_c, 2, 72, 0
3, 121440, Note_on_c, 2, 72, 94
3, 121680, Note_on_c, 2, 72, 0
3, 121680, Note_on_c, 2, 69, 70
3, 121740, Note_on_c, 2, 69, 0
3, 121740, Note_on_c, 2, 71, 78
3, 121800, Note_on_c, 2, 71, 0
3, 121800, Note_on_c, 2, 72, 101
3, 121860, Note_on_c, 2, 72, 0
3, 121860, Note_on_c, 2, 74, 68
3, 121920, Note_on_c, 2, 74, 0
3, 121920, Note_on_c, 2, 74, 84
3, 122040, Note_on_c, 2, 74, 0
3, 122040, Note_on_c, 2, 71, 84
3, 122070, Note_on_c, 2, 71, 0
3, 122100, Note_on_c, 2, 72, 115
3, 122130, Note_on_c, 2, 72, 0
3, 122160, Note_on_c, 2, 69, 84
3, 122190, Note_on_c, 2, 69, 0
3, 122220, Note_on_c, 2, 71, 86
3, 122250, Note_on_c, 2, 71, 0
3, 122280, Note_on_c, 2, 72, 105
3, 122310, Note_on_c, 2, 72, 0
3, 122340, Note_on_c, 2, 74, 105
3, 122370, Note_on_c, 2, 74, 0
3, 122400, Note_on_c, 2, 71, 81
3, 122430, Note_on_c, 2, 71, 0
3, 122460, Note_on_c, 2, 72, 99
3, 122490, Note_on_c, 2, 72, 0
3, 122520, Note_on_c, 2, 74, 93
3, 122550, Note_on_c, 2, 74, 0
3, 122580, Note_on_c, 2, 76, 99
3, 122610, Note_on_c, 2, 76, 0
3, 122640, Note_on_c, 2, 72, 105
3, 122670, Note_on_c, 2, 72, 0
3, 122700, Note_on_c, 2, 74, 89
3, 122730, Note_on_c, 2, 74, 0
3, 122760, Note_on_c, 2, 76, 93
3, 122790, Note_on_c, 2, 76, 0
3, 122820, Note_on_c, 2, 78, 89
3, 122850, Note_on_c, 2, 78, 0
3, 122880, Note_on_c, 2, 79, 72
3, 122940, Note_on_c, 2, 79, 0
3, 122940, Note_on_c, 2, 69, 85
3, 123000, Note_on_c, 2, 69, 0
3, 123000, Note_on_c, 2, 70, 73
3, 123060, Note_on_c, 2, 70, 0
3, 123060, Note_on_c, 2, 71, 77
3, 123120, Note_on_c, 2, 71, 0
3, 123120, Note_on_c, 2, 72, 99
3, 123180, Note_on_c, 2, 72, 0
3, 123180, Note_on_c, 2, 73, 64
3, 123240, Note_on_c, 2, 73, 0
3, 123240, Note_on_c, 2, 74, 86
3, 123300, Note_on_c, 2, 74, 0
3, 123300, Note_on_c, 2, 75, 86
3, 123360, Note_on_c, 2, 75, 0
3, 123360, Note_on_c, 2, 76, 89
3, 123420, Note_on_c, 2, 76, 0
3, 123480, Note_on_c, 2, 78, 84
3, 123540, Note_on_c, 2, 78, 0
3, 123600, Note_on_c, 2, 79, 94
3, 123660, Note_on_c, 2, 79, 0
3, 123720, Note_on_c, 2, 73, 77
3, 123780, Note_on_c, 2, 73, 0
3, 123840, Note_on_c, 2, 74, 84
3, 124080, Note_on_c, 2, 74, 0
3, 139200, Note_on_c, 2, 77, 84
3, 139280, Control_c, 2, 7, 99
3, 139285, Control_c, 2, 7, 98
3, 139290, Control_c, 2, 7, 97
3, 139295, Control_c, 2, 7, 96
3, 139300, Control_c, 2, 7, 95
3, 139305, Control_c, 2, 7, 94
3, 139310, Control_c, 2, 7, 93
3, 139315, Control_c, 2, 7, 92
3, 139320, Control_c, 2, 7, 91
3, 139325, Control_c, 2, 7, 90
3, 139330, Control_c, 2, 7, 89
3, 139335, Control_c, 2, 7, 88
3, 139340, Control_c, 2, 7, 87
3, 139345, Control_c, 2, 7, 86
3, 139350, Control_c, 2, 7, 84
3, 139355, Control_c, 2, 7, 83
3, 139360, Control_c, 2, 7, 82
3, 139365, Control_c, 2, 7, 81
3, 139370, Control_c, 2, 7, 80
3, 139375, Control_c, 2, 7, 79
3, 139380, Control_c, 2, 7, 78
3, 139385, Control_c, 2, 7, 77
3, 139390, Control_c, 2, 7, 76
3, 139395, Control_c, 2, 7, 75
3, 139400, Control_c, 2, 7, 74
3, 139405, Control_c, 2, 7, 73
3, 139410, Control_c, 2, 7, 72
3, 139415, Control_c, 2, 7, 70
3, 139425, Control_c, 2, 7, 70
3, 139430, Control_c, 2, 7, 69
3, 139435, Control_c, 2, 7, 68
3, 139440, Control_c, 2, 7, 67
3, 139680, Note_on_c, 2, 77, 0
3, 139680, Note_on_c, 2, 76, 85
3, 139740, Note_on_c, 2, 76, 0
3, 139800, Note_on_c, 2, 76, 94
3, 139860, Note_on_c, 2, 76, 0
3, 140040, Note_on_c, 2, 71, 86
3, 140100, Note_on_c, 2, 71, 0
3, 140275, Control_c, 2, 7, 57
3, 140280, Note_on_c, 2, 72, 100
3, 140340, Note_on_c, 2, 72, 0
3, 140500, Control_c, 2, 7, 101
3, 151920, Note_on_c, 2, 81, 35
3, 151920, Note_on_c, 2, 72, 29
3, 151980, Note_on_c, 2, 72, 0
3, 151980, Note_on_c, 2, 81, 0
3, 151980, Note_on_c, 2, 81, 32
3, 151980, Note_on_c, 2, 72, 32
3, 152040, Note_on_c, 2, 72, 0
3, 152040, Note_on_c, 2, 81, 0
3, 152040, Note_on_c, 2, 72, 40
3, 152040, Note_on_c, 2, 81, 43
3, 152100, Note_on_c, 2, 81, 0
3, 152100, Note_on_c, 2, 72, 0
3, 152100, Note_on_c, 2, 81, 40
3, 152100, Note_on_c, 2, 72, 43
3, 152160, Note_on_c, 2, 72, 0
3, 152160, Note_on_c, 2, 81, 0
3, 152160, Note_on_c, 2, 81, 46
3, 152160, Note_on_c, 2, 72, 44
3, 152220, Note_on_c, 2, 72, 0
3, 152220, Note_on_c, 2, 81, 0
3, 152220, Note_on_c, 2, 81, 61
3, 152220, Note_on_c, 2, 72, 48
3, 152280, Note_on_c, 2, 72, 0
3, 152280, Note_on_c, 2, 81, 0
3, 152280, Note_on_c, 2, 72, 46
3, 152280, Note_on_c, 2, 81, 64
3, 152340, Note_on_c, 2, 81, 0
3, 152340, Note_on_c, 2, 72, 0
3, 152340, Note_on_c, 2, 81, 68
3, 152340, Note_on_c, 2, 72, 48
3, 152400, Note_on_c, 2, 72, 0
3, 152400, Note_on_c, 2, 81, 0
3, 152400, Note_on_c, 2, 71, 76
3, 152400, Note_on_c, 2, 74, 84
3, 152520, Note_on_c, 2, 74, 0
3, 152520, Note_on_c, 2, 71, 0
3, 152520, Note_on_c, 2, 77, 71
3, 152520, Note_on_c, 2, 74, 80
3, 152640, Note_on_c, 2, 74, 0
3, 152640, Note_on_c, 2, 77, 0
3, 152760, Note_on_c, 2, 77, 72
3, 152760, Note_on_c, 2, 74, 81
3, 152880, Note_on_c, 2, 74, 0
3, 152880, Note_on_c, 2, 77, 0
3, 153000, Note_on_c, 2, 77, 74
3, 153000, Note_on_c, 2, 74, 86
3, 153120, Note_on_c, 2, 74, 0
3, 153120, Note_on_c, 2, 77, 0
3, 153240, Note_on_c, 2, 77, 78
3, 153240, Note_on_c, 2, 74, 90
3, 153360, Note_on_c, 2, 74, 0
3, 153360, Note_on_c, 2, 77, 0
3, 153360, Note_on_c, 2, 76, 84
3, 153360, Note_on_c, 2, 72, 110
3, 153480, Note_on_c, 2, 72, 0
3, 153480, Note_on_c, 2, 76, 0
3, 153540, Note_on_c, 2, 76, 73
3, 153540, Note_on_c, 2, 84, 56
3, 153570, Note_on_c, 2, 84, 0
3, 153570, Note_on_c, 2, 76, 0
3, 153570, Note_on_c, 2, 76, 81
3, 153570, Note_on_c, 2, 84, 71
3, 153600, Note_on_c, 2, 84, 0
3, 153600, Note_on_c, 2, 76, 0
3, 153600, Note_on_c, 2, 76, 81
3, 153600, Note_on_c, 2, 72, 112
3, 153720, Note_on_c, 2, 72, 0
3, 153720, Note_on_c, 2, 76, 0
3, 153780, Note_on_c, 2, 76, 82
3, 153780, Note_on_c, 2, 84, 64
3, 153810, Note_on_c, 2, 84, 0
3, 153810, Note_on_c, 2, 76, 0
3, 153810, Note_on_c, 2, 76, 85
3, 153810, Note_on_c, 2, 84, 70
3, 153840, Note_on_c, 2, 84, 0
3, 153840, Note_on_c, 2, 76, 0
3, 153840, Note_on_c, 2, 84, 64
3, 153840, Note_on_c, 2, 76, 77
3, 153900, Note_on_c, 2, 76, 0
3, 153900, Note_on_c, 2, 84, 0
3, 153960, Note_on_c, 2, 76, 84
3, 153960, Note_on_c, 2, 84, 65
3, 153990, Note_on_c, 2, 84, 0
3, 153990, Note_on_c, 2, 76, 0
3, 154020, Note_on_c, 2, 84, 70
3, 154020, Note_on_c, 2, 76, 84
3, 154050, Note_on_c, 2, 76, 0
3, 154050, Note_on_c, 2, 84, 0
3, 154080, Note_on_c, 2, 76, 85
3, 154080, Note_on_c, 2, 84, 72
3, 154140, Note_on_c, 2, 84, 0
3, 154140, Note_on_c, 2, 76, 0
3, 154320, Note_on_c, 2, 84, 64
3, 154320, Note_on_c, 2, 76, 82
3, 154380, Note_on_c, 2, 76, 0
3, 154380, Note_on_c, 2, 84, 0
3, 154440, Note_on_c, 2, 81, 66
3, 154440, Note_on_c, 2, 72, 99
3, 154500, Note_on_c, 2, 72, 0
3, 154500, Note_on_c, 2, 81, 0
3, 154560, Note_on_c, 2, 78, 69
3, 154560, Note_on_c, 2, 69, 89
3, 154620, Note_on_c, 2, 69, 0
3, 154620, Note_on_c, 2, 78, 0
3, 154800, Note_on_c, 2, 78, 66
3, 154800, Note_on_c, 2, 69, 85
3, 154860, Note_on_c, 2, 69, 0
3, 154860, Note_on_c, 2, 78, 0
3, 154920, Note_on_c, 2, 69, 80
3, 154920, Note_on_c, 2, 74, 89
3, 154980, Note_on_c, 2, 74, 0
3, 154980, Note_on_c, 2, 69, 0
3, 155040, Note_on_c, 2, 74, 78
3, 155040, Note_on_c, 2, 71, 80
3, 155100, Note_on_c, 2, 71, 0
3, 155100, Note_on_c, 2, 74, 0
3, 155160, Note_on_c, 2, 71, 81
3, 155160, Note_on_c, 2, 79, 72
3, 155220, Note_on_c, 2, 79, 0
3, 155220, Note_on_c, 2, 71, 0
3, 155280, Note_on_c, 2, 69, 73
3, 155280, Note_on_c, 2, 81, 70
3, 155340, Note_on_c, 2, 81, 0
3, 155340, Note_on_c, 2, 69, 0
3, 155400, Note_on_c, 2, 69, 66
3, 155400, Note_on_c, 2, 74, 90
3, 155460, Note_on_c, 2, 74, 0
3, 155460, Note_on_c, 2, 69, 0
3, 155520, Note_on_c, 2, 67, 69
3, 155520, Note_on_c, 2, 71, 82
3, 155580, Note_on_c, 2, 71, 0
3, 155580, Note_on_c, 2, 67, 0
3, 155640, Note_on_c, 2, 71, 42
3, 155640, Note_on_c, 2, 79, 43
3, 155700, Note_on_c, 2, 79, 0
3, 155700, Note_on_c, 2, 71, 0
3, 155760, Note_on_c, 2, 69, 46
3, 155760, Note_on_c, 2, 81, 43
3, 155820, Note_on_c, 2, 81, 0
3, 155820, Note_on_c, 2, 69, 0
3, 155880, Note_on_c, 2, 69, 46
3, 155880, Note_on_c, 2, 74, 46
3, 155940, Note_on_c, 2, 74, 0
3, 155940, Note_on_c, 2, 69, 0
3, 156000, Note_on_c, 2, 71, 45
3, 156000, Note_on_c, 2, 67, 44
3, 156060, Note_on_c, 2, 67, 0
3, 156060, Note_on_c, 2, 71, 0
3, 158640, Note_on_c, 2, 74, 46
3, 158880, Note_on_c, 2, 74, 0
3, 158880, Note_on_c, 2, 78, 57
3, 159120, Note_on_c, 2, 78, 0
3, 159120, Note_on_c, 2, 79, 62
3, 159360, Note_on_c, 2, 79, 0
3, 159360, Note_on_c, 2, 78, 73
3, 159600, Note_on_c, 2, 78, 0
3, 159600, Note_on_c, 2, 71, 78
3, 159600, Note_on_c, 2, 79, 62
3, 159720, Note_on_c, 2, 79, 0
3, 159720, Note_on_c, 2, 71, 0
3, 159780, Note_on_c, 2, 74, 80
3, 159780, Note_on_c, 2, 83, 60
3, 159810, Note_on_c, 2, 83, 0
3, 159810, Note_on_c, 2, 74, 0
3, 159810, Note_on_c, 2, 83, 61
3, 159810, Note_on_c, 2, 74, 82
3, 159840, Note_on_c, 2, 74, 0
3, 159840, Note_on_c, 2, 83, 0
3, 159840, Note_on_c, 2, 83, 65
3, 159840, Note_on_c, 2, 74, 81
3, 159960, Note_on_c, 2, 74, 0
3, 159960, Note_on_c, 2, 83, 0
3, 160260, Note_on_c, 2, 74, 84
3, 160260, Note_on_c, 2, 83, 65
3, 160290, Note_on_c, 2, 83, 0
3, 160290, Note_on_c, 2, 74, 0
3, 160290, Note_on_c, 2, 83, 62
3, 160290, Note_on_c, 2, 74, 84
3, 160320, Note_on_c, 2, 74, 0
3, 160320, Note_on_c, 2, 83, 0
3, 160320, Note_on_c, 2, 74, 90
3, 160320, Note_on_c, 2, 83, 73
3, 160440, Note_on_c, 2, 83, 0
3, 160440, Note_on_c, 2, 74, 0
3, 160500, Note_on_c, 2, 83, 58
3, 160500, Note_on_c, 2, 74, 80
3, 160530, Note_on_c, 2, 74, 0
3, 160530, Note_on_c, 2, 83, 0
3, 160530, Note_on_c, 2, 83, 67
3, 160530, Note_on_c, 2, 74, 85
3, 160560, Note_on_c, 2, 74, 0
3, 160560, Note_on_c, 2, 83, 0
3, 160560, Note_on_c, 2, 74, 82
3, 160560, Note_on_c, 2, 83, 68
3, 160620, Note_on_c, 2, 83, 0
3, 160620, Note_on_c, 2, 74, 0
3, 160800, Note_on_c, 2, 74, 85
3, 160800, Note_on_c, 2, 81, 72
3, 160860, Note_on_c, 2, 81, 0
3, 160860, Note_on_c, 2, 74, 0
3, 161040, Note_on_c, 2, 83, 67
3, 161040, Note_on_c, 2, 74, 84
3, 161100, Note_on_c, 2, 74, 0
3, 161100, Note_on_c, 2, 83, 0
3, 161100, End_track
4, 0, Start_track
4, 0, MIDI_port, 0
4, 0, Title_t, "Clarinets"
4, 0, Control_c, 3, 0, 0
4, 0, Control_c, 3, 32, 0
4, 0, Program_c, 3, 71
4, 0, Control_c, 3, 7, 100
4, 0, Control_c, 3, 10, 49
4, 0, Control_c, 3, 93, 0
4, 0, Control_c, 3, 91, 66
4, 7440, Note_on_c, 3, 76, 71
4, 7440, Note_on_c, 3, 72, 89
4, 7560, Note_on_c, 3, 72, 0
4, 7560, Note_on_c, 3, 76, 0
4, 7620, Note_on_c, 3, 76, 78
4, 7620, Note_on_c, 3, 72, 99
4, 7650, Note_on_c, 3, 72, 0
4, 7650, Note_on_c, 3, 76, 0
4, 7650, Note_on_c, 3, 76, 77
4, 7650, Note_on_c, 3, 72, 89
4, 7680, Note_on_c, 3, 72, 0
4, 7680, Note_on_c, 3, 76, 0
4, 7680, Note_on_c, 3, 76, 76
4, 7680, Note_on_c, 3, 72, 93
4, 7800, Note_on_c, 3, 72, 0
4, 7800, Note_on_c, 3, 76, 0
4, 7860, Note_on_c, 3, 76, 76
4, 7860, Note_on_c, 3, 72, 98
4, 7890, Note_on_c, 3, 72, 0
4, 7890, Note_on_c, 3, 76, 0
4, 7890, Note_on_c, 3, 76, 77
4, 7890, Note_on_c, 3, 72, 90
4, 7920, Note_on_c, 3, 72, 0
4, 7920, Note_on_c, 3, 76, 0
4, 7920, Note_on_c, 3, 76, 72
4, 7920, Note_on_c, 3, 72, 29
4, 7980, Note_on_c, 3, 72, 0
4, 7980, Note_on_c, 3, 76, 0
4, 8040, Note_on_c, 3, 76, 73
4, 8040, Note_on_c, 3, 72, 94
4, 8070, Note_on_c, 3, 72, 0
4, 8070, Note_on_c, 3, 76, 0
4, 8100, Note_on_c, 3, 76, 76
4, 8100, Note_on_c, 3, 72, 94
4, 8130, Note_on_c, 3, 72, 0
4, 8130, Note_on_c, 3, 76, 0
4, 8160, Note_on_c, 3, 76, 80
4, 8160, Note_on_c, 3, 72, 99
4, 8190, Note_on_c, 3, 72, 0
4, 8190, Note_on_c, 3, 76, 0
4, 8400, Note_on_c, 3, 76, 73
4, 8400, Note_on_c, 3, 72, 29
4, 8430, Note_on_c, 3, 72, 0
4, 8430, Note_on_c, 3, 76, 0
4, 8460, Note_on_c, 3, 74, 74
4, 8460, Note_on_c, 3, 71, 82
4, 8475, Note_on_c, 3, 71, 0
4, 8475, Note_on_c, 3, 74, 0
4, 8490, Note_on_c, 3, 76, 81
4, 8490, Note_on_c, 3, 72, 89
4, 8505, Note_on_c, 3, 72, 0
4, 8505, Note_on_c, 3, 76, 0
4, 8520, Note_on_c, 3, 69, 85
4, 8520, Note_on_c, 3, 72, 98
4, 8550, Note_on_c, 3, 72, 0
4, 8550, Note_on_c, 3, 69, 0
4, 8580, Note_on_c, 3, 67, 68
4, 8580, Note_on_c, 3, 71, 76
4, 8595, Note_on_c, 3, 71, 0
4, 8595, Note_on_c, 3, 67, 0
4, 8610, Note_on_c, 3, 69, 86
4, 8610, Note_on_c, 3, 72, 104
4, 8625, Note_on_c, 3, 72, 0
4, 8625, Note_on_c, 3, 69, 0
4, 8640, Note_on_c, 3, 69, 72
4, 8640, Note_on_c, 3, 66, 74
4, 8700, Note_on_c, 3, 66, 0
4, 8700, Note_on_c, 3, 69, 0
4, 8880, Note_on_c, 3, 69, 73
4, 8880, Note_on_c, 3, 66, 81
4, 8910, Note_on_c, 3, 66, 0
4, 8910, Note_on_c, 3, 69, 0
4, 8940, Note_on_c, 3, 67, 70
4, 8940, Note_on_c, 3, 64, 81
4, 8955, Note_on_c, 3, 64, 0
4, 8955, Note_on_c, 3, 67, 0
4, 8970, Note_on_c, 3, 69, 84
4, 8970, Note_on_c, 3, 66, 82
4, 8985, Note_on_c, 3, 66, 0
4, 8985, Note_on_c, 3, 69, 0
4, 9000, Note_on_c, 3, 66, 81
4, 9000, Note_on_c, 3, 74, 76
4, 9030, Note_on_c, 3, 74, 0
4, 9030, Note_on_c, 3, 66, 0
4, 9060, Note_on_c, 3, 64, 95
4, 9060, Note_on_c, 3, 72, 105
4, 9075, Note_on_c, 3, 72, 0
4, 9075, Note_on_c, 3, 64, 0
4, 9090, Note_on_c, 3, 66, 73
4, 9090, Note_on_c, 3, 74, 68
4, 9105, Note_on_c, 3, 74, 0
4, 9105, Note_on_c, 3, 66, 0
4, 9120, Note_on_c, 3, 71, 76
4, 9120, Note_on_c, 3, 67, 73
4, 9150, Note_on_c, 3, 67, 0
4, 9150, Note_on_c, 3, 71, 0
4, 9180, Note_on_c, 3, 69, 73
4, 9180, Note_on_c, 3, 66, 72
4, 9195, Note_on_c, 3, 66, 0
4, 9195, Note_on_c, 3, 69, 0
4, 9210, Note_on_c, 3, 67, 72
4, 9210, Note_on_c, 3, 71, 76
4, 9225, Note_on_c, 3, 71, 0
4, 9225, Note_on_c, 3, 67, 0
4, 9240, Note_on_c, 3, 71, 76
4, 9240, Note_on_c, 3, 67, 76
4, 9270, Note_on_c, 3, 67, 0
4, 9270, Note_on_c, 3, 71, 0
4, 9300, Note_on_c, 3, 67, 78
4, 9300, Note_on_c, 3, 76, 67
4, 9330, Note_on_c, 3, 76, 0
4, 9330, Note_on_c, 3, 67, 0
4, 9360, Note_on_c, 3, 67, 77
4, 9360, Note_on_c, 3, 76, 72
4, 9420, Note_on_c, 3, 76, 0
4, 9420, Note_on_c, 3, 67, 0
4, 9480, Note_on_c, 3, 66, 60
4, 9480, Note_on_c, 3, 69, 60
4, 9540, Note_on_c, 3, 69, 0
4, 9540, Note_on_c, 3, 66, 0
4, 10260, Note_on_c, 3, 67, 62
4, 10260, Note_on_c, 3, 62, 66
4, 10320, Note_on_c, 3, 62, 0
4, 10320, Note_on_c, 3, 67, 0
4, 10320, Note_on_c, 3, 60, 71
4, 10320, Note_on_c, 3, 64, 73
4, 10440, Note_on_c, 3, 64, 0
4, 10440, Note_on_c, 3, 60, 0
4, 10440, Note_on_c, 3, 60, 69
4, 10440, Note_on_c, 3, 57, 80
4, 10500, Note_on_c, 3, 57, 0
4, 10500, Note_on_c, 3, 60, 0
4, 10500, Note_on_c, 3, 60, 72
4, 10500, Note_on_c, 3, 57, 80
4, 10560, Note_on_c, 3, 57, 0
4, 10560, Note_on_c, 3, 60, 0
4, 11520, Note_on_c, 3, 59, 84
4, 11520, Note_on_c, 3, 71, 76
4, 11760, Note_on_c, 3, 71, 0
4, 11760, Note_on_c, 3, 59, 0
4, 11820, Note_on_c, 3, 66, 69
4, 11820, Note_on_c, 3, 69, 72
4, 11880, Note_on_c, 3, 69, 0
4, 11880, Note_on_c, 3, 66, 0
4, 11940, Note_on_c, 3, 67, 72
4, 11940, Note_on_c, 3, 64, 80
4, 12000, Note_on_c, 3, 64, 0
4, 12000, Note_on_c, 3, 67, 0
4, 12060, Note_on_c, 3, 66, 80
4, 12060, Note_on_c, 3, 71, 76
4, 12120, Note_on_c, 3, 71, 0
4, 12120, Note_on_c, 3, 66, 0
4, 12180, Note_on_c, 3, 67, 77
4, 12180, Note_on_c, 3, 71, 80
4, 12240, Note_on_c, 3, 71, 0
4, 12240, Note_on_c, 3, 67, 0
4, 12300, Note_on_c, 3, 69, 67
4, 12300, Note_on_c, 3, 66, 81
4, 12360, Note_on_c, 3, 66, 0
4, 12360, Note_on_c, 3, 69, 0
4, 12360, Note_on_c, 3, 69, 81
4, 12360, Note_on_c, 3, 66, 84
4, 12420, Note_on_c, 3, 66, 0
4, 12420, Note_on_c, 3, 69, 0
4, 12420, Note_on_c, 3, 66, 85
4, 12420, Note_on_c, 3, 69, 80
4, 12480, Note_on_c, 3, 69, 0
4, 12480, Note_on_c, 3, 66, 0
4, 13440, Note_on_c, 3, 73, 68
4, 13440, Note_on_c, 3, 76, 73
4, 13500, Note_on_c, 3, 76, 0
4, 13500, Note_on_c, 3, 73, 0
4, 13500, Note_on_c, 3, 73, 74
4, 13500, Note_on_c, 3, 76, 80
4, 13560, Note_on_c, 3, 76, 0
4, 13560, Note_on_c, 3, 73, 0
4, 13560, Note_on_c, 3, 76, 76
4, 13560, Note_on_c, 3, 74, 76
4, 13620, Note_on_c, 3, 74, 0
4, 13620, Note_on_c, 3, 76, 0
4, 13620, Note_on_c, 3, 76, 68
4, 13620, Note_on_c, 3, 74, 80
4, 13680, Note_on_c, 3, 74, 0
4, 13680, Note_on_c, 3, 76, 0
4, 13920, Note_on_c, 3, 73, 78
4, 13920, Note_on_c, 3, 76, 72
4, 13980, Note_on_c, 3, 76, 0
4, 13980, Note_on_c, 3, 73, 0
4, 13980, Note_on_c, 3, 73, 73
4, 13980, Note_on_c, 3, 76, 72
4, 14040, Note_on_c, 3, 76, 0
4, 14040, Note_on_c, 3, 73, 0
4, 14040, Note_on_c, 3, 76, 74
4, 14040, Note_on_c, 3, 74, 73
4, 14100, Note_on_c, 3, 74, 0
4, 14100, Note_on_c, 3, 76, 0
4, 14100, Note_on_c, 3, 74, 84
4, 14100, Note_on_c, 3, 76, 80
4, 14160, Note_on_c, 3, 76, 0
4, 14160, Note_on_c, 3, 74, 0
4, 21960, Note_on_c, 3, 64, 89
4, 21970, Control_c, 3, 7, 100
4, 21980, Control_c, 3, 7, 99
4, 21990, Control_c, 3, 7, 98
4, 22000, Control_c, 3, 7, 97
4, 22010, Control_c, 3, 7, 95
4, 22020, Control_c, 3, 7, 94
4, 22030, Control_c, 3, 7, 93
4, 22040, Control_c, 3, 7, 92
4, 22050, Control_c, 3, 7, 90
4, 22060, Control_c, 3, 7, 89
4, 22070, Control_c, 3, 7, 88
4, 22080, Control_c, 3, 7, 87
4, 22090, Control_c, 3, 7, 85
4, 22100, Control_c, 3, 7, 84
4, 22110, Control_c, 3, 7, 83
4, 22120, Control_c, 3, 7, 82
4, 22130, Control_c, 3, 7, 80
4, 22140, Control_c, 3, 7, 79
4, 22150, Control_c, 3, 7, 78
4, 22160, Control_c, 3, 7, 77
4, 22170, Control_c, 3, 7, 75
4, 22180, Control_c, 3, 7, 74
4, 22190, Control_c, 3, 7, 73
4, 22200, Control_c, 3, 7, 72
4, 22210, Control_c, 3, 7, 70
4, 22220, Control_c, 3, 7, 69
4, 22230, Control_c, 3, 7, 68
4, 22240, Control_c, 3, 7, 66
4, 22250, Control_c, 3, 7, 65
4, 22260, Control_c, 3, 7, 64
4, 22270, Control_c, 3, 7, 63
4, 22280, Control_c, 3, 7, 61
4, 22290, Control_c, 3, 7, 60
4, 22300, Control_c, 3, 7, 59
4, 22310, Control_c, 3, 7, 58
4, 22320, Control_c, 3, 7, 56
4, 22330, Control_c, 3, 7, 55
4, 22340, Control_c, 3, 7, 54
4, 22350, Control_c, 3, 7, 53
4, 22360, Control_c, 3, 7, 51
4, 22370, Control_c, 3, 7, 50
4, 22380, Control_c, 3, 7, 49
4, 22390, Control_c, 3, 7, 48
4, 22400, Control_c, 3, 7, 46
4, 22410, Control_c, 3, 7, 45
4, 22420, Control_c, 3, 7, 44
4, 22430, Control_c, 3, 7, 43
4, 22440, Control_c, 3, 7, 41
4, 22450, Control_c, 3, 7, 40
4, 22460, Control_c, 3, 7, 39
4, 22470, Control_c, 3, 7, 37
4, 22560, Note_on_c, 3, 64, 0
4, 22560, Note_on_c, 3, 66, 44
4, 22570, Control_c, 3, 7, 99
4, 22680, Note_on_c, 3, 66, 0
4, 22680, Note_on_c, 3, 67, 43
4, 22800, Note_on_c, 3, 67, 0
4, 22800, Note_on_c, 3, 69, 44
4, 23160, Note_on_c, 3, 69, 0
4, 23160, Note_on_c, 3, 67, 35
4, 23220, Note_on_c, 3, 67, 0
4, 23220, Note_on_c, 3, 66, 46
4, 23280, Note_on_c, 3, 66, 0
4, 23280, Note_on_c, 3, 66, 43
4, 23400, Note_on_c, 3, 66, 0
4, 23400, Note_on_c, 3, 64, 46
4, 23580, Note_on_c, 3, 64, 0
4, 23580, Note_on_c, 3, 57, 42
4, 23640, Note_on_c, 3, 57, 0
4, 23640, Note_on_c, 3, 59, 50
4, 23700, Note_on_c, 3, 59, 0
4, 23700, Note_on_c, 3, 61, 43
4, 23760, Note_on_c, 3, 61, 0
4, 23760, Note_on_c, 3, 62, 52
4, 24000, Note_on_c, 3, 62, 0
4, 24000, Note_on_c, 3, 64, 49
4, 24015, Note_on_c, 3, 64, 0
4, 24015, Note_on_c, 3, 62, 64
4, 24030, Note_on_c, 3, 62, 0
4, 24030, Note_on_c, 3, 61, 46
4, 24045, Note_on_c, 3, 61, 0
4, 24045, Note_on_c, 3, 62, 44
4, 24060, Note_on_c, 3, 62, 0
4, 24060, Note_on_c, 3, 64, 41
4, 24120, Note_on_c, 3, 64, 0
4, 24120, Note_on_c, 3, 66, 43
4, 24180, Note_on_c, 3, 66, 0
4, 24180, Note_on_c, 3, 67, 46
4, 24240, Note_on_c, 3, 67, 0
4, 24240, Note_on_c, 3, 66, 45
4, 24360, Note_on_c, 3, 66, 0
4, 24360, Note_on_c, 3, 64, 46
4, 24600, Note_on_c, 3, 64, 0
4, 24600, Note_on_c, 3, 66, 45
4, 24660, Note_on_c, 3, 66, 0
4, 24660, Note_on_c, 3, 67, 45
4, 24720, Note_on_c, 3, 67, 0
4, 24720, Note_on_c, 3, 69, 55
4, 24780, Note_on_c, 3, 69, 0
4, 25200, Control_c, 3, 7, 98
4, 25200, Note_on_c, 3, 74, 49
4, 25210, Control_c, 3, 7, 99
4, 25220, Control_c, 3, 7, 100
4, 25230, Control_c, 3, 7, 101
4, 25240, Control_c, 3, 7, 102
4, 25250, Control_c, 3, 7, 103
4, 25260, Control_c, 3, 7, 105
4, 25270, Control_c, 3, 7, 106
4, 25280, Control_c, 3, 7, 107
4, 25290, Control_c, 3, 7, 108
4, 25300, Control_c, 3, 7, 109
4, 25310, Control_c, 3, 7, 110
4, 25320, Control_c, 3, 7, 112
4, 25330, Control_c, 3, 7, 113
4, 25340, Control_c, 3, 7, 114
4, 25350, Control_c, 3, 7, 115
4, 25360, Control_c, 3, 7, 116
4, 25370, Control_c, 3, 7, 117
4, 25380, Control_c, 3, 7, 119
4, 25390, Control_c, 3, 7, 120
4, 25400, Control_c, 3, 7, 121
4, 25410, Control_c, 3, 7, 122
4, 25420, Control_c, 3, 7, 123
4, 25430, Control_c, 3, 7, 124
4, 25440, Note_on_c, 3, 74, 0
4, 25440, Note_on_c, 3, 67, 64
4, 25440, Control_c, 3, 7, 126
4, 25440, Note_on_c, 3, 73, 65
4, 25450, Control_c, 3, 7, 125
4, 25460, Control_c, 3, 7, 124
4, 25470, Control_c, 3, 7, 123
4, 25480, Control_c, 3, 7, 122
4, 25490, Control_c, 3, 7, 121
4, 25500, Control_c, 3, 7, 120
4, 25510, Control_c, 3, 7, 119
4, 25520, Control_c, 3, 7, 117
4, 25530, Control_c, 3, 7, 116
4, 25540, Control_c, 3, 7, 115
4, 25550, Control_c, 3, 7, 114
4, 25560, Note_on_c, 3, 73, 0
4, 25560, Control_c, 3, 7, 113
4, 25560, Note_on_c, 3, 74, 76
4, 25570, Control_c, 3, 7, 112
4, 25580, Control_c, 3, 7, 111
4, 25590, Control_c, 3, 7, 110
4, 25600, Control_c, 3, 7, 108
4, 25610, Control_c, 3, 7, 107
4, 25620, Note_on_c, 3, 74, 0
4, 25620, Control_c, 3, 7, 106
4, 25620, Note_on_c, 3, 76, 68
4, 25630, Control_c, 3, 7, 105
4, 25640, Control_c, 3, 7, 104
4, 25650, Control_c, 3, 7, 103
4, 25660, Control_c, 3, 7, 102
4, 25670, Control_c, 3, 7, 101
4, 25680, Note_on_c, 3, 76, 0
4, 25680, Note_on_c, 3, 67, 0
4, 25680, Note_on_c, 3, 66, 50
4, 25680, Control_c, 3, 7, 99
4, 25680, Note_on_c, 3, 74, 68
4, 25800, Note_on_c, 3, 66, 0
4, 25800, Note_on_c, 3, 67, 58
4, 25860, Note_on_c, 3, 74, 0
4, 25860, Note_on_c, 3, 73, 42
4, 26040, Note_on_c, 3, 73, 0
4, 26040, Note_on_c, 3, 74, 61
4, 26100, Note_on_c, 3, 74, 0
4, 26100, Note_on_c, 3, 76, 61
4, 26160, Note_on_c, 3, 76, 0
4, 26160, Note_on_c, 3, 67, 0
4, 26160, Note_on_c, 3, 66, 73
4, 26160, Note_on_c, 3, 74, 77
4, 26190, Note_on_c, 3, 74, 0
4, 26190, Note_on_c, 3, 66, 0
4, 26220, Note_on_c, 3, 66, 80
4, 26220, Note_on_c, 3, 69, 84
4, 26250, Note_on_c, 3, 69, 0
4, 26250, Note_on_c, 3, 66, 0
4, 26700, Note_on_c, 3, 67, 90
4, 26700, Note_on_c, 3, 69, 98
4, 26760, Note_on_c, 3, 69, 0
4, 26760, Note_on_c, 3, 67, 0
4, 27180, Note_on_c, 3, 66, 86
4, 27180, Note_on_c, 3, 69, 84
4, 27240, Note_on_c, 3, 69, 0
4, 27240, Note_on_c, 3, 66, 0
4, 27660, Note_on_c, 3, 67, 89
4, 27660, Note_on_c, 3, 69, 94
4, 27720, Note_on_c, 3, 69, 0
4, 27720, Note_on_c, 3, 67, 0
4, 28140, Note_on_c, 3, 66, 80
4, 28140, Note_on_c, 3, 69, 86
4, 28200, Note_on_c, 3, 69, 0
4, 28200, Note_on_c, 3, 66, 0
4, 29580, Note_on_c, 3, 69, 33
4, 29580, Note_on_c, 3, 66, 29
4, 29640, Note_on_c, 3, 66, 0
4, 29640, Note_on_c, 3, 69, 0
4, 30060, Note_on_c, 3, 69, 41
4, 30060, Note_on_c, 3, 64, 44
4, 30120, Note_on_c, 3, 64, 0
4, 30120, Note_on_c, 3, 69, 0
4, 30540, Note_on_c, 3, 69, 32
4, 30540, Note_on_c, 3, 66, 29
4, 30600, Note_on_c, 3, 66, 0
4, 30600, Note_on_c, 3, 69, 0
4, 31020, Note_on_c, 3, 69, 31
4, 31020, Note_on_c, 3, 65, 39
4, 31080, Note_on_c, 3, 65, 0
4, 31080, Note_on_c, 3, 69, 0
4, 48000, Note_on_c, 3, 76, 71
4, 48000, Note_on_c, 3, 72, 89
4, 48120, Note_on_c, 3, 72, 0
4, 48120, Note_on_c, 3, 76, 0
4, 48180, Note_on_c, 3, 76, 78
4, 48180, Note_on_c, 3, 72, 99
4, 48210, Note_on_c, 3, 72, 0
4, 48210, Note_on_c, 3, 76, 0
4, 48210, Note_on_c, 3, 76, 77
4, 48210, Note_on_c, 3, 72, 89
4, 48240, Note_on_c, 3, 72, 0
4, 48240, Note_on_c, 3, 76, 0
4, 48240, Note_on_c, 3, 76, 76
4, 48240, Note_on_c, 3, 72, 93
4, 48360, Note_on_c, 3, 72, 0
4, 48360, Note_on_c, 3, 76, 0
4, 48420, Note_on_c, 3, 76, 76
4, 48420, Note_on_c, 3, 72, 98
4, 48450, Note_on_c, 3, 72, 0
4, 48450, Note_on_c, 3, 76, 0
4, 48450, Note_on_c, 3, 76, 77
4, 48450, Note_on_c, 3, 72, 90
4, 48480, Note_on_c, 3, 72, 0
4, 48480, Note_on_c, 3, 76, 0
4, 48480, Note_on_c, 3, 76, 72
4, 48480, Note_on_c, 3, 72, 29
4, 48540, Note_on_c, 3, 72, 0
4, 48540, Note_on_c, 3, 76, 0
4, 48600, Note_on_c, 3, 76, 73
4, 48600, Note_on_c, 3, 72, 94
4, 48630, Note_on_c, 3, 72, 0
4, 48630, Note_on_c, 3, 76, 0
4, 48660, Note_on_c, 3, 76, 76
4, 48660, Note_on_c, 3, 72, 94
4, 48690, Note_on_c, 3, 72, 0
4, 48690, Note_on_c, 3, 76, 0
4, 48720, Note_on_c, 3, 76, 80
4, 48720, Note_on_c, 3, 72, 99
4, 48750, Note_on_c, 3, 72, 0
4, 48750, Note_on_c, 3, 76, 0
4, 48960, Note_on_c, 3, 76, 73
4, 48960, Note_on_c, 3, 72, 29
4, 48990, Note_on_c, 3, 72, 0
4, 48990, Note_on_c, 3, 76, 0
4, 49020, Note_on_c, 3, 74, 74
4, 49020, Note_on_c, 3, 71, 82
4, 49035, Note_on_c, 3, 71, 0
4, 49035, Note_on_c, 3, 74, 0
4, 49050, Note_on_c, 3, 76, 81
4, 49050, Note_on_c, 3, 72, 89
4, 49065, Note_on_c, 3, 72, 0
4, 49065, Note_on_c, 3, 76, 0
4, 49080, Note_on_c, 3, 69, 85
4, 49080, Note_on_c, 3, 72, 98
4, 49110, Note_on_c, 3, 72, 0
4, 49110, Note_on_c, 3, 69, 0
4, 49140, Note_on_c, 3, 67, 68
4, 49140, Note_on_c, 3, 71, 76
4, 49155, Note_on_c, 3, 71, 0
4, 49155, Note_on_c, 3, 67, 0
4, 49170, Note_on_c, 3, 69, 86
4, 49170, Note_on_c, 3, 72, 104
4, 49185, Note_on_c, 3, 72, 0
4, 49185, Note_on_c, 3, 69, 0
4, 49200, Note_on_c, 3, 69, 72
4, 49200, Note_on_c, 3, 66, 74
4, 49260, Note_on_c, 3, 66, 0
4, 49260, Note_on_c, 3, 69, 0
4, 49440, Note_on_c, 3, 69, 73
4, 49440, Note_on_c, 3, 66, 81
4, 49470, Note_on_c, 3, 66, 0
4, 49470, Note_on_c, 3, 69, 0
4, 49500, Note_on_c, 3, 67, 70
4, 49500, Note_on_c, 3, 64, 81
4, 49515, Note_on_c, 3, 64, 0
4, 49515, Note_on_c, 3, 67, 0
4, 49530, Note_on_c, 3, 69, 84
4, 49530, Note_on_c, 3, 66, 82
4, 49545, Note_on_c, 3, 66, 0
4, 49545, Note_on_c, 3, 69, 0
4, 49560, Note_on_c, 3, 66, 81
4, 49560, Note_on_c, 3, 74, 76
4, 49590, Note_on_c, 3, 74, 0
4, 49590, Note_on_c, 3, 66, 0
4, 49620, Note_on_c, 3, 64, 95
4, 49620, Note_on_c, 3, 72, 105
4, 49635, Note_on_c, 3, 72, 0
4, 49635, Note_on_c, 3, 64, 0
4, 49650, Note_on_c, 3, 66, 73
4, 49650, Note_on_c, 3, 74, 68
4, 49665, Note_on_c, 3, 74, 0
4, 49665, Note_on_c, 3, 66, 0
4, 49680, Note_on_c, 3, 71, 76
4, 49680, Note_on_c, 3, 67, 73
4, 49710, Note_on_c, 3, 67, 0
4, 49710, Note_on_c, 3, 71, 0
4, 49740, Note_on_c, 3, 69, 73
4, 49740, Note_on_c, 3, 66, 72
4, 49755, Note_on_c, 3, 66, 0
4, 49755, Note_on_c, 3, 69, 0
4, 49770, Note_on_c, 3, 67, 72
4, 49770, Note_on_c, 3, 71, 76
4, 49785, Note_on_c, 3, 71, 0
4, 49785, Note_on_c, 3, 67, 0
4, 49800, Note_on_c, 3, 71, 76
4, 49800, Note_on_c, 3, 67, 76
4, 49830, Note_on_c, 3, 67, 0
4, 49830, Note_on_c, 3, 71, 0
4, 49860, Note_on_c, 3, 67, 78
4, 49860, Note_on_c, 3, 76, 67
4, 49890, Note_on_c, 3, 76, 0
4, 49890, Note_on_c, 3, 67, 0
4, 49920, Note_on_c, 3, 67, 77
4, 49920, Note_on_c, 3, 76, 72
4, 49980, Note_on_c, 3, 76, 0
4, 49980, Note_on_c, 3, 67, 0
4, 50040, Note_on_c, 3, 66, 60
4, 50040, Note_on_c, 3, 69, 60
4, 50100, Note_on_c, 3, 69, 0
4, 50100, Note_on_c, 3, 66, 0
4, 50820, Note_on_c, 3, 67, 62
4, 50820, Note_on_c, 3, 62, 66
4, 50880, Note_on_c, 3, 62, 0
4, 50880, Note_on_c, 3, 67, 0
4, 50880, Note_on_c, 3, 60, 71
4, 50880, Note_on_c, 3, 64, 73
4, 51000, Note_on_c, 3, 64, 0
4, 51000, Note_on_c, 3, 60, 0
4, 51000, Note_on_c, 3, 60, 69
4, 51000, Note_on_c, 3, 57, 80
4, 51060, Note_on_c, 3, 57, 0
4, 51060, Note_on_c, 3, 60, 0
4, 51060, Note_on_c, 3, 60, 72
4, 51060, Note_on_c, 3, 57, 80
4, 51120, Note_on_c, 3, 57, 0
4, 51120, Note_on_c, 3, 60, 0
4, 52080, Note_on_c, 3, 67, 73
4, 52080, Note_on_c, 3, 70, 84
4, 52320, Note_on_c, 3, 70, 0
4, 52320, Note_on_c, 3, 68, 81
4, 52380, Note_on_c, 3, 67, 0
4, 52380, Note_on_c, 3, 65, 77
4, 52440, Note_on_c, 3, 68, 0
4, 52440, Note_on_c, 3, 67, 73
4, 52500, Note_on_c, 3, 65, 0
4, 52500, Note_on_c, 3, 63, 66
4, 52560, Note_on_c, 3, 63, 0
4, 52560, Note_on_c, 3, 67, 0
4, 52560, Note_on_c, 3, 62, 73
4, 52560, Note_on_c, 3, 65, 69
4, 52620, Note_on_c, 3, 65, 0
4, 52620, Note_on_c, 3, 62, 0
4, 52620, Note_on_c, 3, 70, 86
4, 52620, Note_on_c, 3, 62, 80
4, 52680, Note_on_c, 3, 62, 0
4, 52680, Note_on_c, 3, 70, 0
4, 52680, Note_on_c, 3, 63, 81
4, 52680, Note_on_c, 3, 70, 90
4, 52740, Note_on_c, 3, 70, 0
4, 52740, Note_on_c, 3, 63, 0
4, 52740, Note_on_c, 3, 67, 65
4, 52740, Note_on_c, 3, 63, 85
4, 52800, Note_on_c, 3, 63, 0
4, 52800, Note_on_c, 3, 67, 0
4, 52800, Note_on_c, 3, 65, 80
4, 52800, Note_on_c, 3, 72, 29
4, 52860, Note_on_c, 3, 72, 0
4, 52860, Note_on_c, 3, 65, 0
4, 52860, Note_on_c, 3, 65, 72
4, 52860, Note_on_c, 3, 72, 81
4, 52920, Note_on_c, 3, 72, 0
4, 52920, Note_on_c, 3, 65, 0
4, 52920, Note_on_c, 3, 65, 73
4, 52920, Note_on_c, 3, 70, 84
4, 52980, Note_on_c, 3, 70, 0
4, 52980, Note_on_c, 3, 65, 0
4, 52980, Note_on_c, 3, 65, 72
4, 52980, Note_on_c, 3, 70, 72
4, 53040, Note_on_c, 3, 70, 0
4, 53040, Note_on_c, 3, 65, 0
4, 76920, Note_on_c, 3, 69, 93
4, 77040, Control_c, 3, 7, 99
4, 77055, Control_c, 3, 7, 98
4, 77065, Control_c, 3, 7, 97
4, 77075, Control_c, 3, 7, 96
4, 77085, Control_c, 3, 7, 95
4, 77095, Control_c, 3, 7, 94
4, 77110, Control_c, 3, 7, 93
4, 77120, Control_c, 3, 7, 92
4, 77130, Control_c, 3, 7, 91
4, 77140, Control_c, 3, 7, 90
4, 77150, Control_c, 3, 7, 89
4, 77165, Control_c, 3, 7, 88
4, 77175, Control_c, 3, 7, 87
4, 77185, Control_c, 3, 7, 86
4, 77195, Control_c, 3, 7, 85
4, 77205, Control_c, 3, 7, 84
4, 77215, Control_c, 3, 7, 83
4, 77230, Control_c, 3, 7, 82
4, 77240, Control_c, 3, 7, 81
4, 77250, Control_c, 3, 7, 80
4, 77260, Control_c, 3, 7, 79
4, 77270, Control_c, 3, 7, 78
4, 77285, Control_c, 3, 7, 77
4, 77295, Control_c, 3, 7, 76
4, 77305, Control_c, 3, 7, 75
4, 77315, Control_c, 3, 7, 74
4, 77325, Control_c, 3, 7, 73
4, 77340, Control_c, 3, 7, 72
4, 77350, Control_c, 3, 7, 71
4, 77360, Control_c, 3, 7, 70
4, 77370, Control_c, 3, 7, 69
4, 77380, Control_c, 3, 7, 68
4, 77390, Control_c, 3, 7, 67
4, 77405, Control_c, 3, 7, 66
4, 77415, Control_c, 3, 7, 65
4, 77425, Control_c, 3, 7, 64
4, 77435, Control_c, 3, 7, 63
4, 77445, Control_c, 3, 7, 62
4, 77460, Control_c, 3, 7, 61
4, 77470, Control_c, 3, 7, 60
4, 77480, Control_c, 3, 7, 59
4, 77490, Control_c, 3, 7, 58
4, 77500, Control_c, 3, 7, 57
4, 77510, Control_c, 3, 7, 56
4, 77520, Note_on_c, 3, 69, 0
4, 77520, Note_on_c, 3, 71, 43
4, 77520, Note_on_c, 3, 67, 33
4, 77530, Control_c, 3, 7, 57
4, 77535, Control_c, 3, 7, 67
4, 77540, Control_c, 3, 7, 78
4, 77545, Control_c, 3, 7, 88
4, 77550, Control_c, 3, 7, 99
4, 77640, Note_on_c, 3, 71, 0
4, 77640, Note_on_c, 3, 72, 45
4, 77760, Note_on_c, 3, 72, 0
4, 77760, Note_on_c, 3, 74, 34
4, 78000, Note_on_c, 3, 67, 0
4, 78000, Note_on_c, 3, 69, 45
4, 78120, Note_on_c, 3, 69, 0
4, 78120, Note_on_c, 3, 74, 0
4, 78120, Note_on_c, 3, 71, 43
4, 78120, Note_on_c, 3, 72, 29
4, 78180, Note_on_c, 3, 72, 0
4, 78180, Note_on_c, 3, 71, 40
4, 78240, Note_on_c, 3, 71, 0
4, 78240, Note_on_c, 3, 71, 0
4, 78240, Note_on_c, 3, 71, 44
4, 78240, Note_on_c, 3, 72, 29
4, 78360, Note_on_c, 3, 71, 0
4, 78360, Note_on_c, 3, 69, 43
4, 78420, Note_on_c, 3, 72, 0
4, 78420, Note_on_c, 3, 71, 43
4, 78480, Note_on_c, 3, 71, 0
4, 78480, Note_on_c, 3, 69, 33
4, 78540, Note_on_c, 3, 69, 0
4, 78540, Note_on_c, 3, 69, 0
4, 78540, Note_on_c, 3, 62, 35
4, 78540, Note_on_c, 3, 71, 40
4, 78600, Note_on_c, 3, 71, 0
4, 78600, Note_on_c, 3, 62, 0
4, 78600, Note_on_c, 3, 64, 38
4, 78660, Note_on_c, 3, 64, 0
4, 78660, Note_on_c, 3, 66, 41
4, 78720, Note_on_c, 3, 66, 0
4, 78720, Note_on_c, 3, 67, 50
4, 78960, Note_on_c, 3, 67, 0
4, 78960, Note_on_c, 3, 69, 47
4, 78975, Note_on_c, 3, 69, 0
4, 78975, Note_on_c, 3, 67, 42
4, 78990, Note_on_c, 3, 67, 0
4, 78990, Note_on_c, 3, 66, 50
4, 79005, Note_on_c, 3, 66, 0
4, 79005, Note_on_c, 3, 67, 44
4, 79020, Note_on_c, 3, 67, 0
4, 79020, Note_on_c, 3, 69, 43
4, 79080, Note_on_c, 3, 69, 0
4, 79080, Note_on_c, 3, 71, 43
4, 79140, Note_on_c, 3, 71, 0
4, 79140, Note_on_c, 3, 72, 59
4, 79200, Note_on_c, 3, 72, 0
4, 79200, Note_on_c, 3, 71, 43
4, 79320, Note_on_c, 3, 71, 0
4, 79320, Note_on_c, 3, 69, 43
4, 79560, Note_on_c, 3, 69, 0
4, 79560, Note_on_c, 3, 71, 40
4, 79620, Note_on_c, 3, 71, 0
4, 79620, Note_on_c, 3, 72, 29
4, 79680, Note_on_c, 3, 72, 0
4, 79680, Note_on_c, 3, 74, 40
4, 80040, Note_on_c, 3, 74, 0
4, 80040, Note_on_c, 3, 72, 29
4, 80100, Note_on_c, 3, 72, 0
4, 80100, Note_on_c, 3, 71, 40
4, 80160, Note_on_c, 3, 71, 0
4, 80160, Note_on_c, 3, 60, 54
4, 80160, Note_on_c, 3, 72, 41
4, 80640, Note_on_c, 3, 72, 0
4, 80640, Note_on_c, 3, 60, 0
4, 80640, Note_on_c, 3, 59, 44
4, 80640, Note_on_c, 3, 71, 46
4, 80760, Note_on_c, 3, 71, 0
4, 80760, Note_on_c, 3, 59, 0
4, 80760, Note_on_c, 3, 60, 42
4, 80760, Note_on_c, 3, 72, 29
4, 81120, Note_on_c, 3, 72, 0
4, 81120, Note_on_c, 3, 60, 0
4, 81120, Note_on_c, 3, 67, 58
4, 81120, Note_on_c, 3, 71, 70
4, 81150, Note_on_c, 3, 71, 0
4, 81150, Note_on_c, 3, 67, 0
4, 81180, Note_on_c, 3, 71, 84
4, 81180, Note_on_c, 3, 74, 84
4, 81210, Note_on_c, 3, 74, 0
4, 81210, Note_on_c, 3, 71, 0
4, 81660, Note_on_c, 3, 72, 72
4, 81660, Note_on_c, 3, 74, 72
4, 81720, Note_on_c, 3, 74, 0
4, 81720, Note_on_c, 3, 72, 0
4, 82140, Note_on_c, 3, 71, 54
4, 82140, Note_on_c, 3, 74, 60
4, 82200, Note_on_c, 3, 74, 0
4, 82200, Note_on_c, 3, 71, 0
4, 82620, Note_on_c, 3, 74, 81
4, 82620, Note_on_c, 3, 72, 58
4, 82680, Note_on_c, 3, 72, 0
4, 82680, Note_on_c, 3, 74, 0
4, 83100, Note_on_c, 3, 67, 68
4, 83100, Note_on_c, 3, 71, 71
4, 83160, Note_on_c, 3, 71, 0
4, 83160, Note_on_c, 3, 67, 0
4, 83340, Note_on_c, 3, 66, 69
4, 83340, Note_on_c, 3, 69, 68
4, 83400, Note_on_c, 3, 69, 0
4, 83400, Note_on_c, 3, 66, 0
4, 84540, Note_on_c, 3, 71, 37
4, 84540, Note_on_c, 3, 74, 29
4, 84600, Note_on_c, 3, 74, 0
4, 84600, Note_on_c, 3, 71, 0
4, 85020, Note_on_c, 3, 72, 29
4, 85020, Note_on_c, 3, 74, 43
4, 85080, Note_on_c, 3, 74, 0
4, 85080, Note_on_c, 3, 72, 0
4, 85500, Note_on_c, 3, 71, 35
4, 85500, Note_on_c, 3, 74, 32
4, 85560, Note_on_c, 3, 74, 0
4, 85560, Note_on_c, 3, 71, 0
4, 85980, Note_on_c, 3, 70, 40
4, 85980, Note_on_c, 3, 74, 29
4, 86040, Note_on_c, 3, 74, 0
4, 86040, Note_on_c, 3, 70, 0
4, 94080, Note_on_c, 3, 72, 37
4, 94140, Note_on_c, 3, 72, 0
4, 94200, Note_on_c, 3, 65, 38
4, 94260, Note_on_c, 3, 65, 0
4, 94320, Note_on_c, 3, 62, 39
4, 94560, Note_on_c, 3, 62, 0
4, 94560, Note_on_c, 3, 72, 44
4, 94620, Note_on_c, 3, 72, 0
4, 94680, Note_on_c, 3, 65, 31
4, 94740, Note_on_c, 3, 65, 0
4, 94800, Note_on_c, 3, 62, 42
4, 95040, Note_on_c, 3, 62, 0
4, 95040, Note_on_c, 3, 74, 40
4, 95100, Note_on_c, 3, 74, 0
4, 95160, Note_on_c, 3, 67, 32
4, 95220, Note_on_c, 3, 67, 0
4, 95280, Note_on_c, 3, 63, 39
4, 95520, Note_on_c, 3, 63, 0
4, 95520, Note_on_c, 3, 74, 43
4, 95580, Note_on_c, 3, 74, 0
4, 95640, Note_on_c, 3, 67, 40
4, 95700, Note_on_c, 3, 67, 0
4, 95760, Note_on_c, 3, 63, 42
4, 96000, Note_on_c, 3, 63, 0
4, 96000, Note_on_c, 3, 75, 95
4, 96030, Note_on_c, 3, 75, 0
4, 96120, Note_on_c, 3, 68, 95
4, 96150, Note_on_c, 3, 68, 0
4, 96240, Note_on_c, 3, 63, 93
4, 96240, Note_on_c, 3, 60, 89
4, 96360, Note_on_c, 3, 60, 0
4, 96360, Note_on_c, 3, 63, 0
4, 96420, Note_on_c, 3, 60, 80
4, 96420, Note_on_c, 3, 63, 82
4, 96450, Note_on_c, 3, 63, 0
4, 96450, Note_on_c, 3, 60, 0
4, 96450, Note_on_c, 3, 60, 80
4, 96450, Note_on_c, 3, 63, 85
4, 96480, Note_on_c, 3, 63, 0
4, 96480, Note_on_c, 3, 60, 0
4, 96480, Note_on_c, 3, 60, 84
4, 96480, Note_on_c, 3, 63, 94
4, 96600, Note_on_c, 3, 63, 0
4, 96600, Note_on_c, 3, 60, 0
4, 96660, Note_on_c, 3, 60, 80
4, 96660, Note_on_c, 3, 63, 85
4, 96690, Note_on_c, 3, 63, 0
4, 96690, Note_on_c, 3, 60, 0
4, 96690, Note_on_c, 3, 60, 84
4, 96690, Note_on_c, 3, 63, 89
4, 96720, Note_on_c, 3, 63, 0
4, 96720, Note_on_c, 3, 60, 0
4, 96720, Note_on_c, 3, 60, 85
4, 96720, Note_on_c, 3, 63, 90
4, 96780, Note_on_c, 3, 63, 0
4, 96780, Note_on_c, 3, 60, 0
4, 96840, Note_on_c, 3, 63, 81
4, 96840, Note_on_c, 3, 69, 80
4, 96870, Note_on_c, 3, 69, 0
4, 96870, Note_on_c, 3, 63, 0
4, 96900, Note_on_c, 3, 69, 89
4, 96900, Note_on_c, 3, 72, 117
4, 96930, Note_on_c, 3, 72, 0
4, 96930, Note_on_c, 3, 69, 0
4, 96960, Note_on_c, 3, 75, 94
4, 96960, Note_on_c, 3, 72, 112
4, 96990, Note_on_c, 3, 72, 0
4, 96990, Note_on_c, 3, 75, 0
4, 97080, Note_on_c, 3, 68, 82
4, 97110, Note_on_c, 3, 68, 0
4, 97200, Note_on_c, 3, 60, 84
4, 97200, Note_on_c, 3, 63, 89
4, 97320, Note_on_c, 3, 63, 0
4, 97320, Note_on_c, 3, 60, 0
4, 97380, Note_on_c, 3, 60, 80
4, 97380, Note_on_c, 3, 63, 85
4, 97410, Note_on_c, 3, 63, 0
4, 97410, Note_on_c, 3, 60, 0
4, 97410, Note_on_c, 3, 60, 81
4, 97410, Note_on_c, 3, 63, 89
4, 97440, Note_on_c, 3, 63, 0
4, 97440, Note_on_c, 3, 60, 0
4, 97440, Note_on_c, 3, 60, 85
4, 97440, Note_on_c, 3, 63, 89
4, 97560, Note_on_c, 3, 63, 0
4, 97560, Note_on_c, 3, 60, 0
4, 97620, Note_on_c, 3, 63, 82
4, 97620, Note_on_c, 3, 60, 89
4, 97650, Note_on_c, 3, 60, 0
4, 97650, Note_on_c, 3, 63, 0
4, 97650, Note_on_c, 3, 60, 80
4, 97650, Note_on_c, 3, 63, 90
4, 97680, Note_on_c, 3, 63, 0
4, 97680, Note_on_c, 3, 60, 0
4, 97680, Note_on_c, 3, 60, 77
4, 97680, Note_on_c, 3, 63, 89
4, 97740, Note_on_c, 3, 63, 0
4, 97740, Note_on_c, 3, 60, 0
4, 97800, Note_on_c, 3, 63, 81
4, 97800, Note_on_c, 3, 69, 81
4, 97830, Note_on_c, 3, 69, 0
4, 97830, Note_on_c, 3, 63, 0
4, 97860, Note_on_c, 3, 69, 86
4, 97860, Note_on_c, 3, 72, 123
4, 97890, Note_on_c, 3, 72, 0
4, 97890, Note_on_c, 3, 69, 0
4, 97920, Note_on_c, 3, 75, 99
4, 97920, Note_on_c, 3, 72, 117
4, 98040, Note_on_c, 3, 72, 0
4, 98040, Note_on_c, 3, 75, 0
4, 98040, Note_on_c, 3, 75, 89
4, 98040, Note_on_c, 3, 72, 112
4, 98070, Note_on_c, 3, 72, 0
4, 98070, Note_on_c, 3, 75, 0
4, 98100, Note_on_c, 3, 75, 93
4, 98100, Note_on_c, 3, 72, 110
4, 98130, Note_on_c, 3, 72, 0
4, 98130, Note_on_c, 3, 75, 0
4, 98160, Note_on_c, 3, 76, 93
4, 98160, Note_on_c, 3, 72, 119
4, 98280, Note_on_c, 3, 72, 0
4, 98280, Note_on_c, 3, 76, 0
4, 98280, Note_on_c, 3, 76, 81
4, 98280, Note_on_c, 3, 72, 115
4, 98310, Note_on_c, 3, 72, 0
4, 98310, Note_on_c, 3, 76, 0
4, 98340, Note_on_c, 3, 76, 77
4, 98340, Note_on_c, 3, 72, 112
4, 98370, Note_on_c, 3, 72, 0
4, 98370, Note_on_c, 3, 76, 0
4, 98400, Note_on_c, 3, 72, 119
4, 98400, Note_on_c, 3, 77, 78
4, 98520, Note_on_c, 3, 77, 0
4, 98520, Note_on_c, 3, 72, 0
4, 98520, Note_on_c, 3, 77, 73
4, 98520, Note_on_c, 3, 72, 123
4, 98550, Note_on_c, 3, 72, 0
4, 98550, Note_on_c, 3, 77, 0
4, 98580, Note_on_c, 3, 77, 77
4, 98580, Note_on_c, 3, 72, 123
4, 98610, Note_on_c, 3, 72, 0
4, 98610, Note_on_c, 3, 77, 0
4, 98640, Note_on_c, 3, 71, 94
4, 98640, Note_on_c, 3, 77, 77
4, 98700, Note_on_c, 3, 77, 0
4, 98700, Note_on_c, 3, 71, 0
4, 103920, Note_on_c, 3, 76, 43
4, 105000, Note_on_c, 3, 76, 0
4, 105000, Note_on_c, 3, 72, 32
4, 105120, Note_on_c, 3, 72, 0
4, 105120, Note_on_c, 3, 69, 31
4, 105480, Note_on_c, 3, 69, 0
4, 105480, Note_on_c, 3, 74, 40
4, 105600, Note_on_c, 3, 74, 0
4, 105600, Note_on_c, 3, 71, 40
4, 105720, Note_on_c, 3, 71, 0
4, 105720, Note_on_c, 3, 67, 41
4, 105840, Note_on_c, 3, 67, 0
4, 105840, Note_on_c, 3, 69, 42
4, 106080, Note_on_c, 3, 69, 0
4, 106080, Note_on_c, 3, 67, 38
4, 106140, Note_on_c, 3, 67, 0
4, 106260, Note_on_c, 3, 67, 72
4, 106260, Note_on_c, 3, 64, 89
4, 106290, Note_on_c, 3, 64, 0
4, 106290, Note_on_c, 3, 67, 0
4, 106290, Note_on_c, 3, 64, 86
4, 106290, Note_on_c, 3, 67, 70
4, 106320, Note_on_c, 3, 67, 0
4, 106320, Note_on_c, 3, 64, 0
4, 106320, Note_on_c, 3, 64, 89
4, 106320, Note_on_c, 3, 67, 73
4, 106440, Note_on_c, 3, 67, 0
4, 106440, Note_on_c, 3, 64, 0
4, 106500, Note_on_c, 3, 67, 69
4, 106500, Note_on_c, 3, 64, 86
4, 106530, Note_on_c, 3, 64, 0
4, 106530, Note_on_c, 3, 67, 0
4, 106530, Note_on_c, 3, 64, 94
4, 106530, Note_on_c, 3, 67, 78
4, 106560, Note_on_c, 3, 67, 0
4, 106560, Note_on_c, 3, 64, 0
4, 106560, Note_on_c, 3, 64, 94
4, 106560, Note_on_c, 3, 67, 78
4, 106680, Note_on_c, 3, 67, 0
4, 106680, Note_on_c, 3, 64, 0
4, 106740, Note_on_c, 3, 67, 68
4, 106740, Note_on_c, 3, 64, 85
4, 106770, Note_on_c, 3, 64, 0
4, 106770, Note_on_c, 3, 67, 0
4, 106770, Note_on_c, 3, 67, 72
4, 106770, Note_on_c, 3, 64, 93
4, 106800, Note_on_c, 3, 64, 0
4, 106800, Note_on_c, 3, 67, 0
4, 106800, Note_on_c, 3, 64, 94
4, 106800, Note_on_c, 3, 67, 73
4, 106860, Note_on_c, 3, 67, 0
4, 106860, Note_on_c, 3, 64, 0
4, 106860, Note_on_c, 3, 64, 93
4, 106860, Note_on_c, 3, 72, 110
4, 106890, Note_on_c, 3, 72, 0
4, 106890, Note_on_c, 3, 64, 0
4, 106890, Note_on_c, 3, 64, 85
4, 106890, Note_on_c, 3, 72, 99
4, 106920, Note_on_c, 3, 72, 0
4, 106920, Note_on_c, 3, 64, 0
4, 106920, Note_on_c, 3, 64, 90
4, 106920, Note_on_c, 3, 72, 93
4, 106980, Note_on_c, 3, 72, 0
4, 106980, Note_on_c, 3, 64, 0
4, 106980, Note_on_c, 3, 64, 84
4, 106980, Note_on_c, 3, 72, 98
4, 107010, Note_on_c, 3, 72, 0
4, 107010, Note_on_c, 3, 64, 0
4, 107010, Note_on_c, 3, 64, 81
4, 107010, Note_on_c, 3, 72, 89
4, 107040, Note_on_c, 3, 72, 0
4, 107040, Note_on_c, 3, 64, 0
4, 107040, Note_on_c, 3, 64, 82
4, 107040, Note_on_c, 3, 72, 95
4, 107100, Note_on_c, 3, 72, 0
4, 107100, Note_on_c, 3, 64, 0
4, 107220, Note_on_c, 3, 64, 89
4, 107220, Note_on_c, 3, 72, 99
4, 107250, Note_on_c, 3, 72, 0
4, 107250, Note_on_c, 3, 64, 0
4, 107250, Note_on_c, 3, 64, 89
4, 107250, Note_on_c, 3, 72, 94
4, 107280, Note_on_c, 3, 72, 0
4, 107280, Note_on_c, 3, 64, 0
4, 107280, Note_on_c, 3, 64, 89
4, 107280, Note_on_c, 3, 72, 99
4, 107340, Note_on_c, 3, 72, 0
4, 107340, Note_on_c, 3, 64, 0
4, 107340, Note_on_c, 3, 69, 82
4, 107340, Note_on_c, 3, 72, 90
4, 107370, Note_on_c, 3, 72, 0
4, 107370, Note_on_c, 3, 69, 0
4, 107370, Note_on_c, 3, 69, 86
4, 107370, Note_on_c, 3, 72, 105
4, 107400, Note_on_c, 3, 72, 0
4, 107400, Note_on_c, 3, 69, 0
4, 107400, Note_on_c, 3, 69, 84
4, 107400, Note_on_c, 3, 72, 99
4, 107460, Note_on_c, 3, 72, 0
4, 107460, Note_on_c, 3, 69, 0
4, 107460, Note_on_c, 3, 69, 71
4, 107460, Note_on_c, 3, 66, 73
4, 107490, Note_on_c, 3, 66, 0
4, 107490, Note_on_c, 3, 69, 0
4, 107490, Note_on_c, 3, 69, 81
4, 107490, Note_on_c, 3, 66, 82
4, 107520, Note_on_c, 3, 66, 0
4, 107520, Note_on_c, 3, 69, 0
4, 107520, Note_on_c, 3, 69, 76
4, 107520, Note_on_c, 3, 66, 76
4, 107640, Note_on_c, 3, 66, 0
4, 107640, Note_on_c, 3, 69, 0
4, 107700, Note_on_c, 3, 66, 76
4, 107700, Note_on_c, 3, 69, 82
4, 107730, Note_on_c, 3, 69, 0
4, 107730, Note_on_c, 3, 66, 0
4, 107730, Note_on_c, 3, 67, 65
4, 107730, Note_on_c, 3, 64, 85
4, 107760, Note_on_c, 3, 64, 0
4, 107760, Note_on_c, 3, 67, 0
4, 107760, Note_on_c, 3, 69, 80
4, 107760, Note_on_c, 3, 66, 78
4, 107820, Note_on_c, 3, 66, 0
4, 107820, Note_on_c, 3, 69, 0
4, 107880, Note_on_c, 3, 66, 82
4, 107880, Note_on_c, 3, 74, 84
4, 107940, Note_on_c, 3, 74, 0
4, 107940, Note_on_c, 3, 66, 0
4, 108000, Note_on_c, 3, 71, 81
4, 108000, Note_on_c, 3, 67, 72
4, 108060, Note_on_c, 3, 67, 0
4, 108060, Note_on_c, 3, 71, 0
4, 108120, Note_on_c, 3, 71, 76
4, 108120, Note_on_c, 3, 67, 81
4, 108180, Note_on_c, 3, 67, 0
4, 108180, Note_on_c, 3, 71, 0
4, 108240, Note_on_c, 3, 69, 74
4, 108240, Note_on_c, 3, 67, 73
4, 108300, Note_on_c, 3, 67, 0
4, 108300, Note_on_c, 3, 69, 0
4, 108300, Note_on_c, 3, 66, 82
4, 108300, Note_on_c, 3, 74, 85
4, 108330, Note_on_c, 3, 74, 0
4, 108330, Note_on_c, 3, 66, 0
4, 108330, Note_on_c, 3, 64, 84
4, 108330, Note_on_c, 3, 72, 98
4, 108360, Note_on_c, 3, 72, 0
4, 108360, Note_on_c, 3, 64, 0
4, 108360, Note_on_c, 3, 66, 76
4, 108360, Note_on_c, 3, 74, 84
4, 108420, Note_on_c, 3, 74, 0
4, 108420, Note_on_c, 3, 66, 0
4, 108420, Note_on_c, 3, 62, 73
4, 108420, Note_on_c, 3, 74, 78
4, 108480, Note_on_c, 3, 74, 0
4, 108480, Note_on_c, 3, 62, 0
4, 109140, Note_on_c, 3, 67, 70
4, 109140, Note_on_c, 3, 79, 77
4, 109200, Note_on_c, 3, 79, 0
4, 109200, Note_on_c, 3, 67, 0
4, 109200, Note_on_c, 3, 76, 77
4, 109200, Note_on_c, 3, 72, 99
4, 109320, Note_on_c, 3, 72, 0
4, 109320, Note_on_c, 3, 76, 0
4, 109320, Note_on_c, 3, 69, 81
4, 109320, Note_on_c, 3, 72, 90
4, 109380, Note_on_c, 3, 72, 0
4, 109380, Note_on_c, 3, 69, 0
4, 109380, Note_on_c, 3, 69, 73
4, 109380, Note_on_c, 3, 72, 94
4, 109440, Note_on_c, 3, 72, 0
4, 109440, Note_on_c, 3, 69, 0
4, 120960, Note_on_c, 3, 62, 61
4, 120960, Note_on_c, 3, 74, 62
4, 121980, Note_on_c, 3, 74, 0
4, 121980, Note_on_c, 3, 62, 0
4, 122040, Note_on_c, 3, 59, 74
4, 122040, Note_on_c, 3, 71, 69
4, 122070, Note_on_c, 3, 71, 0
4, 122070, Note_on_c, 3, 59, 0
4, 122100, Note_on_c, 3, 60, 89
4, 122100, Note_on_c, 3, 72, 117
4, 122130, Note_on_c, 3, 72, 0
4, 122130, Note_on_c, 3, 60, 0
4, 122160, Note_on_c, 3, 69, 71
4, 122160, Note_on_c, 3, 57, 80
4, 122190, Note_on_c, 3, 57, 0
4, 122190, Note_on_c, 3, 69, 0
4, 122220, Note_on_c, 3, 71, 72
4, 122220, Note_on_c, 3, 59, 77
4, 122250, Note_on_c, 3, 59, 0
4, 122250, Note_on_c, 3, 71, 0
4, 122280, Note_on_c, 3, 60, 73
4, 122280, Note_on_c, 3, 72, 94
4, 122310, Note_on_c, 3, 72, 0
4, 122310, Note_on_c, 3, 60, 0
4, 122340, Note_on_c, 3, 62, 73
4, 122340, Note_on_c, 3, 74, 73
4, 122370, Note_on_c, 3, 74, 0
4, 122370, Note_on_c, 3, 62, 0
4, 122400, Note_on_c, 3, 59, 76
4, 122400, Note_on_c, 3, 71, 74
4, 122430, Note_on_c, 3, 71, 0
4, 122430, Note_on_c, 3, 59, 0
4, 122460, Note_on_c, 3, 60, 61
4, 122460, Note_on_c, 3, 72, 94
4, 122490, Note_on_c, 3, 72, 0
4, 122490, Note_on_c, 3, 60, 0
4, 122520, Note_on_c, 3, 74, 64
4, 122520, Note_on_c, 3, 62, 62
4, 122550, Note_on_c, 3, 62, 0
4, 122550, Note_on_c, 3, 74, 0
4, 122580, Note_on_c, 3, 76, 80
4, 122580, Note_on_c, 3, 64, 82
4, 122610, Note_on_c, 3, 64, 0
4, 122610, Note_on_c, 3, 76, 0
4, 122640, Note_on_c, 3, 60, 73
4, 122640, Note_on_c, 3, 72, 89
4, 122670, Note_on_c, 3, 72, 0
4, 122670, Note_on_c, 3, 60, 0
4, 122700, Note_on_c, 3, 62, 62
4, 122700, Note_on_c, 3, 74, 67
4, 122730, Note_on_c, 3, 74, 0
4, 122730, Note_on_c, 3, 62, 0
4, 122760, Note_on_c, 3, 64, 77
4, 122760, Note_on_c, 3, 76, 66
4, 122790, Note_on_c, 3, 76, 0
4, 122790, Note_on_c, 3, 64, 0
4, 122820, Note_on_c, 3, 66, 77
4, 122820, Note_on_c, 3, 78, 69
4, 122850, Note_on_c, 3, 78, 0
4, 122850, Note_on_c, 3, 66, 0
4, 122880, Note_on_c, 3, 67, 53
4, 122880, Note_on_c, 3, 79, 48
4, 122940, Note_on_c, 3, 79, 0
4, 122940, Note_on_c, 3, 67, 0
4, 122940, Note_on_c, 3, 67, 58
4, 122940, Note_on_c, 3, 79, 71
4, 123000, Note_on_c, 3, 79, 0
4, 123000, Note_on_c, 3, 67, 0
4, 123000, Note_on_c, 3, 67, 64
4, 123000, Note_on_c, 3, 79, 72
4, 123060, Note_on_c, 3, 79, 0
4, 123060, Note_on_c, 3, 67, 0
4, 123060, Note_on_c, 3, 67, 69
4, 123060, Note_on_c, 3, 79, 73
4, 123120, Note_on_c, 3, 79, 0
4, 123120, Note_on_c, 3, 67, 0
4, 123120, Note_on_c, 3, 67, 63
4, 123120, Note_on_c, 3, 79, 74
4, 123180, Note_on_c, 3, 79, 0
4, 123180, Note_on_c, 3, 67, 0
4, 123180, Note_on_c, 3, 67, 72
4, 123180, Note_on_c, 3, 79, 72
4, 123240, Note_on_c, 3, 79, 0
4, 123240, Note_on_c, 3, 67, 0
4, 123240, Note_on_c, 3, 67, 65
4, 123240, Note_on_c, 3, 79, 72
4, 123300, Note_on_c, 3, 79, 0
4, 123300, Note_on_c, 3, 67, 0
4, 123300, Note_on_c, 3, 67, 78
4, 123300, Note_on_c, 3, 79, 76
4, 123360, Note_on_c, 3, 79, 0
4, 123360, Note_on_c, 3, 67, 0
4, 123360, Note_on_c, 3, 79, 72
4, 123360, Note_on_c, 3, 67, 80
4, 123420, Note_on_c, 3, 67, 0
4, 123420, Note_on_c, 3, 79, 0
4, 123480, Note_on_c, 3, 79, 68
4, 123480, Note_on_c, 3, 67, 80
4, 123540, Note_on_c, 3, 67, 0
4, 123540, Note_on_c, 3, 79, 0
4, 123600, Note_on_c, 3, 79, 85
4, 123600, Note_on_c, 3, 67, 86
4, 123660, Note_on_c, 3, 67, 0
4, 123660, Note_on_c, 3, 79, 0
4, 123720, Note_on_c, 3, 61, 81
4, 123720, Note_on_c, 3, 73, 77
4, 123780, Note_on_c, 3, 73, 0
4, 123780, Note_on_c, 3, 61, 0
4, 123840, Note_on_c, 3, 62, 76
4, 123840, Note_on_c, 3, 74, 77
4, 124080, Note_on_c, 3, 74, 0
4, 124080, Note_on_c, 3, 62, 0
4, 139200, Note_on_c, 3, 68, 81
4, 139280, Control_c, 3, 7, 99
4, 139290, Control_c, 3, 7, 98
4, 139295, Control_c, 3, 7, 97
4, 139300, Control_c, 3, 7, 96
4, 139305, Control_c, 3, 7, 95
4, 139310, Control_c, 3, 7, 94
4, 139315, Control_c, 3, 7, 93
4, 139320, Control_c, 3, 7, 92
4, 139325, Control_c, 3, 7, 91
4, 139330, Control_c, 3, 7, 90
4, 139340, Control_c, 3, 7, 89
4, 139345, Control_c, 3, 7, 88
4, 139350, Control_c, 3, 7, 87
4, 139355, Control_c, 3, 7, 86
4, 139360, Control_c, 3, 7, 85
4, 139365, Control_c, 3, 7, 84
4, 139370, Control_c, 3, 7, 83
4, 139375, Control_c, 3, 7, 82
4, 139380, Control_c, 3, 7, 81
4, 139390, Control_c, 3, 7, 80
4, 139395, Control_c, 3, 7, 79
4, 139400, Control_c, 3, 7, 78
4, 139405, Control_c, 3, 7, 77
4, 139410, Control_c, 3, 7, 76
4, 139415, Control_c, 3, 7, 75
4, 139420, Control_c, 3, 7, 74
4, 139425, Control_c, 3, 7, 73
4, 139430, Control_c, 3, 7, 72
4, 139680, Note_on_c, 3, 68, 0
4, 139680, Note_on_c, 3, 69, 86
4, 139740, Note_on_c, 3, 69, 0
4, 139800, Note_on_c, 3, 72, 105
4, 139860, Note_on_c, 3, 72, 0
4, 140040, Note_on_c, 3, 67, 74
4, 140100, Note_on_c, 3, 67, 0
4, 140280, Note_on_c, 3, 69, 76
4, 140340, Note_on_c, 3, 69, 0
4, 140510, Control_c, 3, 7, 100
4, 141720, Note_on_c, 3, 62, 40
4, 141770, Control_c, 3, 7, 86
4, 141840, Note_on_c, 3, 59, 55
4, 141960, Note_on_c, 3, 59, 0
4, 141960, Note_on_c, 3, 62, 0
4, 141960, Note_on_c, 3, 67, 43
4, 141960, Note_on_c, 3, 62, 43
4, 142020, Note_on_c, 3, 62, 0
4, 142020, Note_on_c, 3, 67, 0
4, 142020, Note_on_c, 3, 71, 40
4, 142020, Note_on_c, 3, 67, 29
4, 142080, Note_on_c, 3, 67, 0
4, 142080, Note_on_c, 3, 71, 0
4, 142080, Note_on_c, 3, 74, 40
4, 142080, Note_on_c, 3, 71, 38
4, 142320, Note_on_c, 3, 71, 0
4, 142320, Note_on_c, 3, 74, 0
4, 142320, Note_on_c, 3, 64, 51
4, 142320, Note_on_c, 3, 60, 45
4, 142440, Note_on_c, 3, 60, 0
4, 142440, Note_on_c, 3, 64, 0
4, 142440, Note_on_c, 3, 67, 51
4, 142440, Note_on_c, 3, 64, 65
4, 142500, Note_on_c, 3, 64, 0
4, 142500, Note_on_c, 3, 67, 0
4, 142500, Note_on_c, 3, 72, 45
4, 142500, Note_on_c, 3, 67, 45
4, 142560, Note_on_c, 3, 67, 0
4, 142560, Note_on_c, 3, 72, 0
4, 142560, Note_on_c, 3, 76, 44
4, 142560, Note_on_c, 3, 72, 40
4, 142800, Note_on_c, 3, 72, 0
4, 142800, Note_on_c, 3, 76, 0
4, 142800, Note_on_c, 3, 76, 45
4, 142800, Note_on_c, 3, 72, 46
4, 142920, Note_on_c, 3, 72, 0
4, 142920, Note_on_c, 3, 76, 0
4, 142920, Note_on_c, 3, 72, 43
4, 142920, Note_on_c, 3, 69, 52
4, 143040, Note_on_c, 3, 69, 0
4, 143040, Note_on_c, 3, 72, 0
4, 143040, Note_on_c, 3, 66, 45
4, 143040, Note_on_c, 3, 69, 43
4, 143280, Note_on_c, 3, 69, 0
4, 143280, Note_on_c, 3, 66, 0
4, 143280, Note_on_c, 3, 66, 44
4, 143280, Note_on_c, 3, 69, 43
4, 143400, Note_on_c, 3, 69, 0
4, 143400, Note_on_c, 3, 66, 0
4, 143400, Note_on_c, 3, 74, 43
4, 143400, Note_on_c, 3, 62, 43
4, 143520, Note_on_c, 3, 62, 0
4, 143520, Note_on_c, 3, 74, 0
4, 143520, Note_on_c, 3, 67, 53
4, 143520, Note_on_c, 3, 71, 44
4, 143640, Note_on_c, 3, 71, 0
4, 143640, Note_on_c, 3, 67, 0
4, 143640, Note_on_c, 3, 67, 41
4, 143640, Note_on_c, 3, 59, 52
4, 143760, Note_on_c, 3, 59, 0
4, 143760, Note_on_c, 3, 67, 0
4, 143760, Note_on_c, 3, 69, 53
4, 143760, Note_on_c, 3, 60, 47
4, 143880, Note_on_c, 3, 60, 0
4, 143880, Note_on_c, 3, 69, 0
4, 143880, Note_on_c, 3, 62, 52
4, 144000, Note_on_c, 3, 62, 0
4, 144000, Note_on_c, 3, 59, 44
4, 144240, Note_on_c, 3, 59, 0
4, 144360, Note_on_c, 3, 62, 38
4, 144360, Note_on_c, 3, 59, 38
4, 144480, Note_on_c, 3, 59, 0
4, 144480, Note_on_c, 3, 62, 0
4, 144480, Note_on_c, 3, 67, 43
4, 144480, Note_on_c, 3, 62, 43
4, 144540, Note_on_c, 3, 62, 0
4, 144540, Note_on_c, 3, 67, 0
4, 144540, Note_on_c, 3, 67, 45
4, 144540, Note_on_c, 3, 71, 45
4, 144600, Note_on_c, 3, 71, 0
4, 144600, Note_on_c, 3, 67, 0
4, 144600, Note_on_c, 3, 74, 38
4, 144600, Note_on_c, 3, 71, 29
4, 144720, Note_on_c, 3, 71, 0
4, 144720, Note_on_c, 3, 74, 0
4, 144840, Note_on_c, 3, 64, 43
4, 144840, Note_on_c, 3, 60, 43
4, 144960, Note_on_c, 3, 60, 0
4, 144960, Note_on_c, 3, 64, 0
4, 144960, Note_on_c, 3, 67, 34
4, 144960, Note_on_c, 3, 64, 39
4, 145020, Note_on_c, 3, 64, 0
4, 145020, Note_on_c, 3, 67, 0
4, 145020, Note_on_c, 3, 72, 43
4, 145020, Note_on_c, 3, 67, 38
4, 145080, Note_on_c, 3, 67, 0
4, 145080, Note_on_c, 3, 72, 0
4, 145080, Note_on_c, 3, 76, 45
4, 145080, Note_on_c, 3, 72, 43
4, 145200, Note_on_c, 3, 72, 0
4, 145200, Note_on_c, 3, 76, 0
4, 145320, Note_on_c, 3, 76, 40
4, 145320, Note_on_c, 3, 72, 40
4, 145440, Note_on_c, 3, 72, 0
4, 145440, Note_on_c, 3, 76, 0
4, 145440, Note_on_c, 3, 72, 39
4, 145440, Note_on_c, 3, 69, 50
4, 145560, Note_on_c, 3, 69, 0
4, 145560, Note_on_c, 3, 72, 0
4, 145560, Note_on_c, 3, 66, 44
4, 145560, Note_on_c, 3, 69, 40
4, 145680, Note_on_c, 3, 69, 0
4, 145680, Note_on_c, 3, 66, 0
4, 145800, Note_on_c, 3, 66, 40
4, 145800, Note_on_c, 3, 69, 40
4, 145920, Note_on_c, 3, 69, 0
4, 145920, Note_on_c, 3, 66, 0
4, 145920, Note_on_c, 3, 74, 47
4, 145920, Note_on_c, 3, 62, 44
4, 146040, Note_on_c, 3, 62, 0
4, 146040, Note_on_c, 3, 74, 0
4, 146040, Note_on_c, 3, 67, 46
4, 146040, Note_on_c, 3, 71, 40
4, 146160, Note_on_c, 3, 71, 0
4, 146160, Note_on_c, 3, 67, 0
4, 146280, Note_on_c, 3, 69, 43
4, 146280, Note_on_c, 3, 60, 43
4, 146400, Note_on_c, 3, 60, 0
4, 146400, Note_on_c, 3, 69, 0
4, 146400, Note_on_c, 3, 62, 43
4, 146520, Note_on_c, 3, 62, 0
4, 146520, Note_on_c, 3, 59, 43
4, 146640, Note_on_c, 3, 59, 0
4, 146760, Note_on_c, 3, 69, 42
4, 146760, Note_on_c, 3, 60, 41
4, 146880, Note_on_c, 3, 60, 0
4, 146880, Note_on_c, 3, 69, 0
4, 146880, Note_on_c, 3, 62, 43
4, 147000, Note_on_c, 3, 62, 0
4, 147000, Note_on_c, 3, 59, 49
4, 147120, Note_on_c, 3, 59, 0
4, 147125, Control_c, 3, 7, 99
4, 147155, Control_c, 3, 7, 98
4, 147185, Control_c, 3, 7, 97
4, 147215, Control_c, 3, 7, 96
4, 147240, Note_on_c, 3, 69, 38
4, 147240, Note_on_c, 3, 60, 40
4, 147245, Control_c, 3, 7, 95
4, 147270, Control_c, 3, 7, 94
4, 147300, Control_c, 3, 7, 93
4, 147330, Control_c, 3, 7, 92
4, 147360, Note_on_c, 3, 69, 0
4, 147360, Control_c, 3, 7, 91
4, 147360, Note_on_c, 3, 62, 43
4, 147390, Control_c, 3, 7, 90
4, 147415, Control_c, 3, 7, 89
4, 147445, Control_c, 3, 7, 88
4, 147475, Control_c, 3, 7, 87
4, 147480, Note_on_c, 3, 62, 0
4, 147480, Note_on_c, 3, 69, 45
4, 147505, Control_c, 3, 7, 86
4, 147535, Control_c, 3, 7, 85
4, 147560, Control_c, 3, 7, 84
4, 147590, Control_c, 3, 7, 83
4, 147600, Note_on_c, 3, 69, 0
4, 147600, Note_on_c, 3, 62, 43
4, 147620, Control_c, 3, 7, 82
4, 147650, Control_c, 3, 7, 81
4, 147675, Control_c, 3, 7, 80
4, 147705, Control_c, 3, 7, 79
4, 147720, Note_on_c, 3, 62, 0
4, 147720, Note_on_c, 3, 69, 43
4, 147735, Control_c, 3, 7, 78
4, 147765, Control_c, 3, 7, 77
4, 147795, Control_c, 3, 7, 76
4, 147820, Control_c, 3, 7, 75
4, 147840, Note_on_c, 3, 69, 0
4, 147840, Note_on_c, 3, 62, 61
4, 147850, Control_c, 3, 7, 74
4, 147880, Control_c, 3, 7, 73
4, 147910, Control_c, 3, 7, 72
4, 147940, Control_c, 3, 7, 71
4, 147960, Note_on_c, 3, 62, 0
4, 147960, Note_on_c, 3, 69, 41
4, 147965, Control_c, 3, 7, 70
4, 147995, Control_c, 3, 7, 69
4, 148025, Control_c, 3, 7, 68
4, 148055, Control_c, 3, 7, 67
4, 148080, Note_on_c, 3, 69, 0
4, 148080, Note_on_c, 3, 60, 0
4, 148080, Control_c, 3, 7, 66
4, 148080, Note_on_c, 3, 67, 37
4, 148080, Note_on_c, 3, 59, 32
4, 148200, Note_on_c, 3, 59, 0
4, 148200, Note_on_c, 3, 67, 0
4, 148320, Control_c, 3, 7, 100
4, 152340, Note_on_c, 3, 69, 61
4, 152340, Note_on_c, 3, 72, 29
4, 152400, Note_on_c, 3, 72, 0
4, 152400, Note_on_c, 3, 69, 0
4, 152400, Note_on_c, 3, 67, 72
4, 152400, Note_on_c, 3, 71, 74
4, 152520, Note_on_c, 3, 71, 0
4, 152520, Note_on_c, 3, 67, 0
4, 152520, Note_on_c, 3, 65, 89
4, 152520, Note_on_c, 3, 74, 84
4, 152640, Note_on_c, 3, 74, 0
4, 152640, Note_on_c, 3, 65, 0
4, 152760, Note_on_c, 3, 65, 84
4, 152760, Note_on_c, 3, 74, 81
4, 152880, Note_on_c, 3, 74, 0
4, 152880, Note_on_c, 3, 65, 0
4, 153000, Note_on_c, 3, 65, 77
4, 153000, Note_on_c, 3, 74, 74
4, 153120, Note_on_c, 3, 74, 0
4, 153120, Note_on_c, 3, 65, 0
4, 153240, Note_on_c, 3, 65, 84
4, 153240, Note_on_c, 3, 74, 85
4, 153360, Note_on_c, 3, 74, 0
4, 153360, Note_on_c, 3, 65, 0
4, 153360, Note_on_c, 3, 64, 93
4, 153360, Note_on_c, 3, 72, 110
4, 153480, Note_on_c, 3, 72, 0
4, 153480, Note_on_c, 3, 64, 0
4, 153540, Note_on_c, 3, 76, 69
4, 153540, Note_on_c, 3, 72, 104
4, 153570, Note_on_c, 3, 72, 0
4, 153570, Note_on_c, 3, 76, 0
4, 153570, Note_on_c, 3, 76, 80
4, 153570, Note_on_c, 3, 72, 99
4, 153600, Note_on_c, 3, 72, 0
4, 153600, Note_on_c, 3, 76, 0
4, 153600, Note_on_c, 3, 76, 78
4, 153600, Note_on_c, 3, 72, 105
4, 153720, Note_on_c, 3, 72, 0
4, 153720, Note_on_c, 3, 76, 0
4, 153780, Note_on_c, 3, 76, 72
4, 153780, Note_on_c, 3, 72, 104
4, 153810, Note_on_c, 3, 72, 0
4, 153810, Note_on_c, 3, 76, 0
4, 153810, Note_on_c, 3, 76, 74
4, 153810, Note_on_c, 3, 72, 89
4, 153840, Note_on_c, 3, 72, 0
4, 153840, Note_on_c, 3, 76, 0
4, 153840, Note_on_c, 3, 76, 76
4, 153840, Note_on_c, 3, 72, 105
4, 153900, Note_on_c, 3, 72, 0
4, 153900, Note_on_c, 3, 76, 0
4, 153960, Note_on_c, 3, 76, 69
4, 153960, Note_on_c, 3, 72, 99
4, 153990, Note_on_c, 3, 72, 0
4, 153990, Note_on_c, 3, 76, 0
4, 154020, Note_on_c, 3, 76, 81
4, 154020, Note_on_c, 3, 72, 107
4, 154050, Note_on_c, 3, 72, 0
4, 154050, Note_on_c, 3, 76, 0
4, 154080, Note_on_c, 3, 76, 66
4, 154080, Note_on_c, 3, 72, 94
4, 154140, Note_on_c, 3, 72, 0
4, 154140, Note_on_c, 3, 76, 0
4, 154320, Note_on_c, 3, 76, 74
4, 154320, Note_on_c, 3, 72, 99
4, 154380, Note_on_c, 3, 72, 0
4, 154380, Note_on_c, 3, 76, 0
4, 154440, Note_on_c, 3, 69, 73
4, 154440, Note_on_c, 3, 72, 99
4, 154500, Note_on_c, 3, 72, 0
4, 154500, Note_on_c, 3, 69, 0
4, 154560, Note_on_c, 3, 69, 72
4, 154560, Note_on_c, 3, 66, 73
4, 154620, Note_on_c, 3, 66, 0
4, 154620, Note_on_c, 3, 69, 0
4, 154800, Note_on_c, 3, 66, 76
4, 154800, Note_on_c, 3, 69, 76
4, 154860, Note_on_c, 3, 69, 0
4, 154860, Note_on_c, 3, 66, 0
4, 154920, Note_on_c, 3, 69, 84
4, 154920, Note_on_c, 3, 74, 80
4, 154980, Note_on_c, 3, 74, 0
4, 154980, Note_on_c, 3, 69, 0
4, 155040, Note_on_c, 3, 71, 80
4, 155040, Note_on_c, 3, 62, 82
4, 155100, Note_on_c, 3, 62, 0
4, 155100, Note_on_c, 3, 71, 0
4, 155160, Note_on_c, 3, 59, 84
4, 155160, Note_on_c, 3, 67, 68
4, 155220, Note_on_c, 3, 67, 0
4, 155220, Note_on_c, 3, 59, 0
4, 155280, Note_on_c, 3, 69, 94
4, 155340, Note_on_c, 3, 69, 0
4, 155400, Note_on_c, 3, 62, 89
4, 155460, Note_on_c, 3, 62, 0
4, 155520, Note_on_c, 3, 59, 85
4, 155580, Note_on_c, 3, 59, 0
4, 159600, Note_on_c, 3, 67, 73
4, 159600, Note_on_c, 3, 71, 76
4, 159720, Note_on_c, 3, 71, 0
4, 159720, Note_on_c, 3, 67, 0
4, 159780, Note_on_c, 3, 79, 69
4, 159780, Note_on_c, 3, 71, 82
4, 159810, Note_on_c, 3, 71, 0
4, 159810, Note_on_c, 3, 79, 0
4, 159810, Note_on_c, 3, 71, 78
4, 159810, Note_on_c, 3, 79, 60
4, 159840, Note_on_c, 3, 79, 0
4, 159840, Note_on_c, 3, 71, 0
4, 159840, Note_on_c, 3, 71, 82
4, 159840, Note_on_c, 3, 79, 67
4, 159960, Note_on_c, 3, 79, 0
4, 159960, Note_on_c, 3, 71, 0
4, 160260, Note_on_c, 3, 79, 64
4, 160260, Note_on_c, 3, 71, 76
4, 160290, Note_on_c, 3, 71, 0
4, 160290, Note_on_c, 3, 79, 0
4, 160290, Note_on_c, 3, 71, 85
4, 160290, Note_on_c, 3, 79, 72
4, 160320, Note_on_c, 3, 79, 0
4, 160320, Note_on_c, 3, 71, 0
4, 160320, Note_on_c, 3, 71, 85
4, 160320, Note_on_c, 3, 79, 71
4, 160440, Note_on_c, 3, 79, 0
4, 160440, Note_on_c, 3, 71, 0
4, 160500, Note_on_c, 3, 79, 72
4, 160500, Note_on_c, 3, 71, 84
4, 160530, Note_on_c, 3, 71, 0
4, 160530, Note_on_c, 3, 79, 0
4, 160530, Note_on_c, 3, 79, 69
4, 160530, Note_on_c, 3, 71, 81
4, 160560, Note_on_c, 3, 71, 0
4, 160560, Note_on_c, 3, 79, 0
4, 160560, Note_on_c, 3, 71, 89
4, 160560, Note_on_c, 3, 79, 71
4, 160620, Note_on_c, 3, 79, 0
4, 160620, Note_on_c, 3, 71, 0
4, 160800, Note_on_c, 3, 69, 85
4, 160800, Note_on_c, 3, 72, 104
4, 160860, Note_on_c, 3, 72, 0
4, 160860, Note_on_c, 3, 69, 0
4, 161040, Note_on_c, 3, 71, 73
4, 161040, Note_on_c, 3, 67, 64
4, 161100, Note_on_c, 3, 67, 0
4, 161100, Note_on_c, 3, 71, 0
4, 161100, End_track
5, 0, Start_track
5, 0, MIDI_port, 0
5, 0, Title_t, "Bassoons"
5, 0, Control_c, 4, 0, 0
5, 0, Control_c, 4, 32, 0
5, 0, Program_c, 4, 70
5, 0, Control_c, 4, 7, 100
5, 0, Control_c, 4, 10, 80
5, 0, Control_c, 4, 93, 0
5, 0, Control_c, 4, 91, 66
5, 7320, Note_on_c, 4, 67, 66
5, 7350, Note_on_c, 4, 67, 0
5, 7350, Note_on_c, 4, 64, 76
5, 7380, Note_on_c, 4, 64, 0
5, 7380, Note_on_c, 4, 62, 43
5, 7410, Note_on_c, 4, 62, 0
5, 7440, Note_on_c, 4, 48, 82
5, 7500, Note_on_c, 4, 48, 0
5, 7500, Note_on_c, 4, 48, 89
5, 7740, Note_on_c, 4, 48, 0
5, 7740, Note_on_c, 4, 48, 90
5, 7980, Note_on_c, 4, 48, 0
5, 7980, Note_on_c, 4, 48, 93
5, 8100, Note_on_c, 4, 48, 0
5, 8100, Note_on_c, 4, 48, 89
5, 8220, Note_on_c, 4, 48, 0
5, 8220, Note_on_c, 4, 48, 95
5, 8460, Note_on_c, 4, 48, 0
5, 8460, Note_on_c, 4, 45, 99
5, 8580, Note_on_c, 4, 45, 0
5, 8580, Note_on_c, 4, 48, 99
5, 8700, Note_on_c, 4, 48, 0
5, 8700, Note_on_c, 4, 50, 105
5, 8940, Note_on_c, 4, 50, 0
5, 8940, Note_on_c, 4, 50, 105
5, 9060, Note_on_c, 4, 50, 0
5, 9060, Note_on_c, 4, 50, 104
5, 9180, Note_on_c, 4, 50, 0
5, 9180, Note_on_c, 4, 55, 90
5, 9300, Note_on_c, 4, 55, 0
5, 9300, Note_on_c, 4, 52, 99
5, 9360, Note_on_c, 4, 52, 0
5, 9360, Note_on_c, 4, 48, 90
5, 9420, Note_on_c, 4, 48, 0
5, 9420, Note_on_c, 4, 60, 94
5, 9540, Note_on_c, 4, 60, 0
5, 9540, Note_on_c, 4, 62, 82
5, 9600, Note_on_c, 4, 62, 0
5, 9600, Note_on_c, 4, 62, 89
5, 9600, Note_on_c, 4, 59, 99
5, 9840, Note_on_c, 4, 62, 0
5, 9840, Note_on_c, 4, 60, 89
5, 9900, Note_on_c, 4, 59, 0
5, 9900, Note_on_c, 4, 57, 99
5, 9960, Note_on_c, 4, 60, 0
5, 9960, Note_on_c, 4, 59, 98
5, 10020, Note_on_c, 4, 57, 0
5, 10020, Note_on_c, 4, 55, 90
5, 10080, Note_on_c, 4, 59, 0
5, 10080, Note_on_c, 4, 57, 104
5, 10140, Note_on_c, 4, 55, 0
5, 10140, Note_on_c, 4, 54, 94
5, 10200, Note_on_c, 4, 54, 0
5, 10200, Note_on_c, 4, 57, 0
5, 10200, Note_on_c, 4, 55, 94
5, 10200, Note_on_c, 4, 55, 99
5, 10260, Note_on_c, 4, 55, 0
5, 10260, Note_on_c, 4, 55, 0
5, 10350, Note_on_c, 4, 45, 95
5, 10380, Note_on_c, 4, 45, 0
5, 10380, Note_on_c, 4, 47, 99
5, 10410, Note_on_c, 4, 47, 0
5, 10410, Note_on_c, 4, 48, 93
5, 10440, Note_on_c, 4, 48, 0
5, 10440, Note_on_c, 4, 50, 99
5, 10500, Note_on_c, 4, 50, 0
5, 10500, Note_on_c, 4, 50, 99
5, 10560, Note_on_c, 4, 50, 0
5, 11520, Note_on_c, 4, 43, 94
5, 11550, Note_on_c, 4, 43, 0
5, 11550, Note_on_c, 4, 47, 94
5, 11580, Note_on_c, 4, 47, 0
5, 11580, Note_on_c, 4, 49, 90
5, 11610, Note_on_c, 4, 49, 0
5, 11610, Note_on_c, 4, 51, 95
5, 11640, Note_on_c, 4, 51, 0
5, 11640, Note_on_c, 4, 52, 89
5, 11670, Note_on_c, 4, 52, 0
5, 11670, Note_on_c, 4, 54, 89
5, 11700, Note_on_c, 4, 54, 0
5, 11700, Note_on_c, 4, 55, 80
5, 11730, Note_on_c, 4, 55, 0
5, 11730, Note_on_c, 4, 52, 99
5, 11760, Note_on_c, 4, 52, 0
5, 11760, Note_on_c, 4, 54, 94
5, 11790, Note_on_c, 4, 54, 0
5, 11790, Note_on_c, 4, 47, 104
5, 11820, Note_on_c, 4, 47, 0
5, 11820, Note_on_c, 4, 49, 89
5, 11850, Note_on_c, 4, 49, 0
5, 11850, Note_on_c, 4, 51, 90
5, 11880, Note_on_c, 4, 51, 0
5, 11880, Note_on_c, 4, 52, 89
5, 11910, Note_on_c, 4, 52, 0
5, 11910, Note_on_c, 4, 50, 99
5, 11940, Note_on_c, 4, 50, 0
5, 11940, Note_on_c, 4, 48, 94
5, 11970, Note_on_c, 4, 48, 0
5, 11970, Note_on_c, 4, 47, 95
5, 12000, Note_on_c, 4, 47, 0
5, 12000, Note_on_c, 4, 45, 94
5, 12030, Note_on_c, 4, 45, 0
5, 12030, Note_on_c, 4, 43, 86
5, 12060, Note_on_c, 4, 43, 0
5, 12060, Note_on_c, 4, 45, 94
5, 12090, Note_on_c, 4, 45, 0
5, 12090, Note_on_c, 4, 47, 94
5, 12120, Note_on_c, 4, 47, 0
5, 12120, Note_on_c, 4, 43, 99
5, 12150, Note_on_c, 4, 43, 0
5, 12150, Note_on_c, 4, 52, 95
5, 12180, Note_on_c, 4, 52, 0
5, 12180, Note_on_c, 4, 54, 89
5, 12210, Note_on_c, 4, 54, 0
5, 12210, Note_on_c, 4, 55, 84
5, 12240, Note_on_c, 4, 55, 0
5, 12240, Note_on_c, 4, 57, 94
5, 12270, Note_on_c, 4, 57, 0
5, 12270, Note_on_c, 4, 54, 93
5, 12300, Note_on_c, 4, 54, 0
5, 12300, Note_on_c, 4, 55, 98
5, 12330, Note_on_c, 4, 55, 0
5, 12330, Note_on_c, 4, 57, 95
5, 12360, Note_on_c, 4, 57, 0
5, 12360, Note_on_c, 4, 59, 89
5, 12390, Note_on_c, 4, 59, 0
5, 12390, Note_on_c, 4, 58, 93
5, 12420, Note_on_c, 4, 58, 0
5, 12420, Note_on_c, 4, 59, 95
5, 12450, Note_on_c, 4, 59, 0
5, 12450, Note_on_c, 4, 47, 99
5, 12480, Note_on_c, 4, 47, 0
5, 13380, Note_on_c, 4, 64, 68
5, 13440, Note_on_c, 4, 64, 0
5, 13440, Note_on_c, 4, 61, 76
5, 13440, Note_on_c, 4, 64, 73
5, 13500, Note_on_c, 4, 64, 0
5, 13500, Note_on_c, 4, 61, 0
5, 13500, Note_on_c, 4, 61, 63
5, 13500, Note_on_c, 4, 64, 71
5, 13560, Note_on_c, 4, 64, 0
5, 13560, Note_on_c, 4, 61, 0
5, 13560, Note_on_c, 4, 64, 69
5, 13560, Note_on_c, 4, 62, 78
5, 13620, Note_on_c, 4, 62, 0
5, 13620, Note_on_c, 4, 64, 0
5, 13620, Note_on_c, 4, 64, 67
5, 13620, Note_on_c, 4, 62, 73
5, 13680, Note_on_c, 4, 62, 0
5, 13680, Note_on_c, 4, 64, 0
5, 13920, Note_on_c, 4, 61, 65
5, 13920, Note_on_c, 4, 64, 62
5, 13980, Note_on_c, 4, 64, 0
5, 13980, Note_on_c, 4, 61, 0
5, 13980, Note_on_c, 4, 61, 64
5, 13980, Note_on_c, 4, 64, 69
5, 14040, Note_on_c, 4, 64, 0
5, 14040, Note_on_c, 4, 61, 0
5, 14040, Note_on_c, 4, 64, 72
5, 14040, Note_on_c, 4, 62, 81
5, 14100, Note_on_c, 4, 62, 0
5, 14100, Note_on_c, 4, 64, 0
5, 14100, Note_on_c, 4, 64, 76
5, 14100, Note_on_c, 4, 62, 84
5, 14160, Note_on_c, 4, 62, 0
5, 14160, Note_on_c, 4, 64, 0
5, 22560, Note_on_c, 4, 62, 43
5, 23040, Note_on_c, 4, 62, 0
5, 23040, Note_on_c, 4, 64, 45
5, 23160, Note_on_c, 4, 64, 0
5, 23160, Note_on_c, 4, 66, 45
5, 23280, Note_on_c, 4, 66, 0
5, 23280, Note_on_c, 4, 67, 43
5, 23760, Note_on_c, 4, 67, 0
5, 23760, Note_on_c, 4, 66, 46
5, 23820, Note_on_c, 4, 66, 0
5, 24360, Note_on_c, 4, 64, 45
5, 24600, Note_on_c, 4, 64, 0
5, 24600, Note_on_c, 4, 66, 44
5, 24660, Note_on_c, 4, 66, 0
5, 24660, Note_on_c, 4, 67, 44
5, 24720, Note_on_c, 4, 67, 0
5, 24720, Note_on_c, 4, 69, 40
5, 25080, Note_on_c, 4, 69, 0
5, 25080, Note_on_c, 4, 67, 38
5, 25140, Note_on_c, 4, 67, 0
5, 25140, Note_on_c, 4, 66, 49
5, 25200, Note_on_c, 4, 66, 0
5, 25200, Note_on_c, 4, 66, 57
5, 25320, Note_on_c, 4, 66, 0
5, 25320, Note_on_c, 4, 64, 80
5, 25500, Note_on_c, 4, 64, 0
5, 25500, Note_on_c, 4, 57, 93
5, 25560, Note_on_c, 4, 57, 0
5, 25560, Note_on_c, 4, 59, 61
5, 25620, Note_on_c, 4, 59, 0
5, 25620, Note_on_c, 4, 61, 52
5, 25680, Note_on_c, 4, 61, 0
5, 25680, Note_on_c, 4, 62, 68
5, 25680, Note_on_c, 4, 45, 62
5, 25860, Note_on_c, 4, 62, 0
5, 25860, Note_on_c, 4, 64, 65
5, 25980, Note_on_c, 4, 64, 0
5, 25980, Note_on_c, 4, 57, 44
5, 26040, Note_on_c, 4, 57, 0
5, 26040, Note_on_c, 4, 59, 57
5, 26100, Note_on_c, 4, 59, 0
5, 26100, Note_on_c, 4, 61, 55
5, 26160, Note_on_c, 4, 61, 0
5, 26160, Note_on_c, 4, 45, 0
5, 26160, Note_on_c, 4, 62, 86
5, 26160, Note_on_c, 4, 50, 95
5, 26190, Note_on_c, 4, 50, 0
5, 26190, Note_on_c, 4, 62, 0
5, 26220, Note_on_c, 4, 62, 95
5, 26220, Note_on_c, 4, 66, 94
5, 26250, Note_on_c, 4, 66, 0
5, 26250, Note_on_c, 4, 62, 0
5, 26700, Note_on_c, 4, 64, 94
5, 26700, Note_on_c, 4, 57, 104
5, 26760, Note_on_c, 4, 57, 0
5, 26760, Note_on_c, 4, 64, 0
5, 27180, Note_on_c, 4, 66, 86
5, 27180, Note_on_c, 4, 62, 90
5, 27240, Note_on_c, 4, 62, 0
5, 27240, Note_on_c, 4, 66, 0
5, 27660, Note_on_c, 4, 64, 99
5, 27660, Note_on_c, 4, 57, 105
5, 27720, Note_on_c, 4, 57, 0
5, 27720, Note_on_c, 4, 64, 0
5, 28140, Note_on_c, 4, 50, 99
5, 28140, Note_on_c, 4, 62, 93
5, 28200, Note_on_c, 4, 62, 0
5, 28200, Note_on_c, 4, 50, 0
5, 28380, Note_on_c, 4, 66, 95
5, 28440, Note_on_c, 4, 66, 0
5, 28620, Note_on_c, 4, 66, 54
5, 28680, Note_on_c, 4, 66, 0
5, 28740, Note_on_c, 4, 62, 63
5, 28800, Note_on_c, 4, 62, 0
5, 28860, Note_on_c, 4, 62, 65
5, 28920, Note_on_c, 4, 62, 0
5, 28980, Note_on_c, 4, 59, 72
5, 29040, Note_on_c, 4, 59, 0
5, 29100, Note_on_c, 4, 59, 74
5, 29160, Note_on_c, 4, 59, 0
5, 29220, Note_on_c, 4, 59, 76
5, 29280, Note_on_c, 4, 59, 0
5, 29280, Note_on_c, 4, 61, 62
5, 29340, Note_on_c, 4, 61, 0
5, 29580, Note_on_c, 4, 66, 41
5, 29580, Note_on_c, 4, 62, 41
5, 29640, Note_on_c, 4, 62, 0
5, 29640, Note_on_c, 4, 66, 0
5, 30060, Note_on_c, 4, 57, 38
5, 30060, Note_on_c, 4, 64, 33
5, 30120, Note_on_c, 4, 64, 0
5, 30120, Note_on_c, 4, 57, 0
5, 30540, Note_on_c, 4, 62, 33
5, 30540, Note_on_c, 4, 66, 29
5, 30600, Note_on_c, 4, 66, 0
5, 30600, Note_on_c, 4, 62, 0
5, 31020, Note_on_c, 4, 65, 43
5, 31020, Note_on_c, 4, 62, 41
5, 31080, Note_on_c, 4, 62, 0
5, 31080, Note_on_c, 4, 65, 0
5, 47880, Note_on_c, 4, 67, 66
5, 47910, Note_on_c, 4, 67, 0
5, 47910, Note_on_c, 4, 64, 76
5, 47940, Note_on_c, 4, 64, 0
5, 47940, Note_on_c, 4, 62, 43
5, 47970, Note_on_c, 4, 62, 0
5, 48000, Note_on_c, 4, 48, 82
5, 48060, Note_on_c, 4, 48, 0
5, 48060, Note_on_c, 4, 48, 89
5, 48300, Note_on_c, 4, 48, 0
5, 48300, Note_on_c, 4, 48, 90
5, 48540, Note_on_c, 4, 48, 0
5, 48540, Note_on_c, 4, 48, 93
5, 48660, Note_on_c, 4, 48, 0
5, 48660, Note_on_c, 4, 48, 89
5, 48780, Note_on_c, 4, 48, 0
5, 48780, Note_on_c, 4, 48, 95
5, 49020, Note_on_c, 4, 48, 0
5, 49020, Note_on_c, 4, 45, 99
5, 49140, Note_on_c, 4, 45, 0
5, 49140, Note_on_c, 4, 48, 99
5, 49260, Note_on_c, 4, 48, 0
5, 49260, Note_on_c, 4, 50, 105
5, 49500, Note_on_c, 4, 50, 0
5, 49500, Note_on_c, 4, 50, 105
5, 49620, Note_on_c, 4, 50, 0
5, 49620, Note_on_c, 4, 50, 104
5, 49740, Note_on_c, 4, 50, 0
5, 49740, Note_on_c, 4, 55, 90
5, 49860, Note_on_c, 4, 55, 0
5, 49860, Note_on_c, 4, 52, 99
5, 49920, Note_on_c, 4, 52, 0
5, 49920, Note_on_c, 4, 48, 90
5, 49980, Note_on_c, 4, 48, 0
5, 49980, Note_on_c, 4, 60, 94
5, 50100, Note_on_c, 4, 60, 0
5, 50100, Note_on_c, 4, 62, 82
5, 50160, Note_on_c, 4, 62, 0
5, 50160, Note_on_c, 4, 62, 89
5, 50160, Note_on_c, 4, 59, 99
5, 50400, Note_on_c, 4, 62, 0
5, 50400, Note_on_c, 4, 60, 89
5, 50460, Note_on_c, 4, 59, 0
5, 50460, Note_on_c, 4, 57, 99
5, 50520, Note_on_c, 4, 60, 0
5, 50520, Note_on_c, 4, 59, 98
5, 50580, Note_on_c, 4, 57, 0
5, 50580, Note_on_c, 4, 55, 90
5, 50640, Note_on_c, 4, 59, 0
5, 50640, Note_on_c, 4, 57, 104
5, 50700, Note_on_c, 4, 55, 0
5, 50700, Note_on_c, 4, 54, 94
5, 50760, Note_on_c, 4, 54, 0
5, 50760, Note_on_c, 4, 57, 0
5, 50760, Note_on_c, 4, 55, 94
5, 50760, Note_on_c, 4, 55, 99
5, 50820, Note_on_c, 4, 55, 0
5, 50820, Note_on_c, 4, 55, 0
5, 50910, Note_on_c, 4, 45, 95
5, 50940, Note_on_c, 4, 45, 0
5, 50940, Note_on_c, 4, 47, 99
5, 50970, Note_on_c, 4, 47, 0
5, 50970, Note_on_c, 4, 48, 93
5, 51000, Note_on_c, 4, 48, 0
5, 51000, Note_on_c, 4, 50, 99
5, 51060, Note_on_c, 4, 50, 0
5, 51060, Note_on_c, 4, 50, 99
5, 51120, Note_on_c, 4, 50, 0
5, 52080, Note_on_c, 4, 43, 98
5, 52080, Note_on_c, 4, 55, 84
5, 52110, Note_on_c, 4, 55, 0
5, 52110, Note_on_c, 4, 43, 0
5, 52110, Note_on_c, 4, 58, 89
5, 52110, Note_on_c, 4, 46, 93
5, 52140, Note_on_c, 4, 46, 0
5, 52140, Note_on_c, 4, 58, 0
5, 52140, Note_on_c, 4, 48, 93
5, 52140, Note_on_c, 4, 60, 94
5, 52170, Note_on_c, 4, 60, 0
5, 52170, Note_on_c, 4, 48, 0
5, 52170, Note_on_c, 4, 62, 90
5, 52170, Note_on_c, 4, 50, 89
5, 52200, Note_on_c, 4, 50, 0
5, 52200, Note_on_c, 4, 62, 0
5, 52200, Note_on_c, 4, 63, 86
5, 52200, Note_on_c, 4, 51, 89
5, 52230, Note_on_c, 4, 51, 0
5, 52230, Note_on_c, 4, 63, 0
5, 52230, Note_on_c, 4, 53, 86
5, 52230, Note_on_c, 4, 65, 89
5, 52260, Note_on_c, 4, 65, 0
5, 52260, Note_on_c, 4, 53, 0
5, 52260, Note_on_c, 4, 67, 89
5, 52260, Note_on_c, 4, 55, 85
5, 52290, Note_on_c, 4, 55, 0
5, 52290, Note_on_c, 4, 67, 0
5, 52290, Note_on_c, 4, 63, 89
5, 52290, Note_on_c, 4, 51, 90
5, 52320, Note_on_c, 4, 51, 0
5, 52320, Note_on_c, 4, 63, 0
5, 52320, Note_on_c, 4, 65, 71
5, 52320, Note_on_c, 4, 53, 89
5, 52350, Note_on_c, 4, 53, 0
5, 52350, Note_on_c, 4, 65, 0
5, 52350, Note_on_c, 4, 46, 89
5, 52350, Note_on_c, 4, 58, 80
5, 52380, Note_on_c, 4, 58, 0
5, 52380, Note_on_c, 4, 46, 0
5, 52380, Note_on_c, 4, 48, 85
5, 52380, Note_on_c, 4, 60, 94
5, 52410, Note_on_c, 4, 60, 0
5, 52410, Note_on_c, 4, 48, 0
5, 52410, Note_on_c, 4, 62, 94
5, 52410, Note_on_c, 4, 50, 86
5, 52440, Note_on_c, 4, 50, 0
5, 52440, Note_on_c, 4, 62, 0
5, 52440, Note_on_c, 4, 63, 90
5, 52440, Note_on_c, 4, 51, 84
5, 52470, Note_on_c, 4, 51, 0
5, 52470, Note_on_c, 4, 63, 0
5, 52470, Note_on_c, 4, 62, 90
5, 52470, Note_on_c, 4, 50, 81
5, 52500, Note_on_c, 4, 50, 0
5, 52500, Note_on_c, 4, 62, 0
5, 52500, Note_on_c, 4, 48, 85
5, 52500, Note_on_c, 4, 60, 94
5, 52530, Note_on_c, 4, 60, 0
5, 52530, Note_on_c, 4, 48, 0
5, 52530, Note_on_c, 4, 58, 95
5, 52530, Note_on_c, 4, 46, 90
5, 52560, Note_on_c, 4, 46, 0
5, 52560, Note_on_c, 4, 58, 0
5, 52560, Note_on_c, 4, 56, 90
5, 52560, Note_on_c, 4, 44, 85
5, 52590, Note_on_c, 4, 44, 0
5, 52590, Note_on_c, 4, 56, 0
5, 52590, Note_on_c, 4, 43, 90
5, 52590, Note_on_c, 4, 55, 90
5, 52620, Note_on_c, 4, 55, 0
5, 52620, Note_on_c, 4, 43, 0
5, 52620, Note_on_c, 4, 56, 94
5, 52620, Note_on_c, 4, 44, 89
5, 52650, Note_on_c, 4, 44, 0
5, 52650, Note_on_c, 4, 56, 0
5, 52650, Note_on_c, 4, 58, 98
5, 52650, Note_on_c, 4, 46, 99
5, 52680, Note_on_c, 4, 46, 0
5, 52680, Note_on_c, 4, 58, 0
5, 52680, Note_on_c, 4, 55, 99
5, 52680, Note_on_c, 4, 43, 93
5, 52710, Note_on_c, 4, 43, 0
5, 52710, Note_on_c, 4, 55, 0
5, 52710, Note_on_c, 4, 51, 89
5, 52710, Note_on_c, 4, 39, 94
5, 52740, Note_on_c, 4, 39, 0
5, 52740, Note_on_c, 4, 51, 0
5, 52740, Note_on_c, 4, 41, 84
5, 52740, Note_on_c, 4, 53, 98
5, 52770, Note_on_c, 4, 53, 0
5, 52770, Note_on_c, 4, 41, 0
5, 52770, Note_on_c, 4, 55, 101
5, 52770, Note_on_c, 4, 43, 86
5, 52800, Note_on_c, 4, 43, 0
5, 52800, Note_on_c, 4, 55, 0
5, 52800, Note_on_c, 4, 56, 99
5, 52800, Note_on_c, 4, 44, 86
5, 52830, Note_on_c, 4, 44, 0
5, 52830, Note_on_c, 4, 56, 0
5, 52830, Note_on_c, 4, 41, 86
5, 52830, Note_on_c, 4, 53, 85
5, 52860, Note_on_c, 4, 53, 0
5, 52860, Note_on_c, 4, 41, 0
5, 52860, Note_on_c, 4, 55, 90
5, 52860, Note_on_c, 4, 43, 94
5, 52890, Note_on_c, 4, 43, 0
5, 52890, Note_on_c, 4, 55, 0
5, 52890, Note_on_c, 4, 44, 89
5, 52890, Note_on_c, 4, 56, 104
5, 52920, Note_on_c, 4, 56, 0
5, 52920, Note_on_c, 4, 44, 0
5, 52920, Note_on_c, 4, 46, 94
5, 52920, Note_on_c, 4, 58, 84
5, 52980, Note_on_c, 4, 58, 0
5, 52980, Note_on_c, 4, 46, 0
5, 52980, Note_on_c, 4, 34, 100
5, 52980, Note_on_c, 4, 46, 95
5, 53040, Note_on_c, 4, 46, 0
5, 53040, Note_on_c, 4, 34, 0
5, 55920, Note_on_c, 4, 67, 39
5, 55920, Note_on_c, 4, 63, 39
5, 55950, Note_on_c, 4, 63, 0
5, 55950, Note_on_c, 4, 67, 0
5, 56040, Note_on_c, 4, 67, 39
5, 56040, Note_on_c, 4, 63, 38
5, 56070, Note_on_c, 4, 63, 0
5, 56070, Note_on_c, 4, 67, 0
5, 56100, Note_on_c, 4, 67, 40
5, 56100, Note_on_c, 4, 63, 41
5, 56130, Note_on_c, 4, 63, 0
5, 56130, Note_on_c, 4, 67, 0
5, 56160, Note_on_c, 4, 67, 37
5, 56160, Note_on_c, 4, 63, 38
5, 56190, Note_on_c, 4, 63, 0
5, 56190, Note_on_c, 4, 67, 0
5, 56400, Note_on_c, 4, 60, 44
5, 56400, Note_on_c, 4, 63, 43
5, 56430, Note_on_c, 4, 63, 0
5, 56430, Note_on_c, 4, 60, 0
5, 56460, Note_on_c, 4, 60, 43
5, 56460, Note_on_c, 4, 62, 45
5, 56475, Note_on_c, 4, 62, 0
5, 56490, Note_on_c, 4, 60, 0
5, 56490, Note_on_c, 4, 63, 44
5, 56505, Note_on_c, 4, 63, 0
5, 56520, Note_on_c, 4, 63, 50
5, 56520, Note_on_c, 4, 67, 40
5, 56550, Note_on_c, 4, 67, 0
5, 56550, Note_on_c, 4, 63, 0
5, 56580, Note_on_c, 4, 63, 43
5, 56580, Note_on_c, 4, 67, 43
5, 56610, Note_on_c, 4, 67, 0
5, 56610, Note_on_c, 4, 63, 0
5, 56640, Note_on_c, 4, 65, 45
5, 56640, Note_on_c, 4, 65, 43
5, 56670, Note_on_c, 4, 65, 0
5, 56670, Note_on_c, 4, 65, 0
5, 58800, Note_on_c, 4, 65, 42
5, 58800, Note_on_c, 4, 61, 44
5, 58830, Note_on_c, 4, 61, 0
5, 58830, Note_on_c, 4, 65, 0
5, 58920, Note_on_c, 4, 65, 43
5, 58920, Note_on_c, 4, 61, 57
5, 58950, Note_on_c, 4, 61, 0
5, 58950, Note_on_c, 4, 65, 0
5, 58980, Note_on_c, 4, 65, 43
5, 58980, Note_on_c, 4, 61, 53
5, 59010, Note_on_c, 4, 61, 0
5, 59010, Note_on_c, 4, 65, 0
5, 59040, Note_on_c, 4, 65, 42
5, 59040, Note_on_c, 4, 61, 46
5, 59070, Note_on_c, 4, 61, 0
5, 59070, Note_on_c, 4, 65, 0
5, 59280, Note_on_c, 4, 67, 37
5, 59280, Note_on_c, 4, 58, 37
5, 59310, Note_on_c, 4, 58, 0
5, 59310, Note_on_c, 4, 67, 0
5, 59340, Note_on_c, 4, 61, 43
5, 59340, Note_on_c, 4, 58, 37
5, 59370, Note_on_c, 4, 58, 0
5, 59370, Note_on_c, 4, 61, 0
5, 59400, Note_on_c, 4, 61, 45
5, 59400, Note_on_c, 4, 58, 57
5, 59430, Note_on_c, 4, 58, 0
5, 59430, Note_on_c, 4, 61, 0
5, 59460, Note_on_c, 4, 61, 45
5, 59460, Note_on_c, 4, 58, 43
5, 59490, Note_on_c, 4, 58, 0
5, 59490, Note_on_c, 4, 61, 0
5, 59520, Note_on_c, 4, 58, 58
5, 59520, Note_on_c, 4, 60, 61
5, 59550, Note_on_c, 4, 60, 0
5, 59550, Note_on_c, 4, 58, 0
5, 63300, Note_on_c, 4, 60, 43
5, 63300, Note_on_c, 4, 63, 43
5, 63330, Note_on_c, 4, 63, 0
5, 63330, Note_on_c, 4, 60, 0
5, 63330, Note_on_c, 4, 63, 44
5, 63330, Note_on_c, 4, 60, 57
5, 63360, Note_on_c, 4, 60, 0
5, 63360, Note_on_c, 4, 63, 0
5, 63360, Note_on_c, 4, 60, 43
5, 63360, Note_on_c, 4, 63, 45
5, 63420, Note_on_c, 4, 63, 0
5, 63420, Note_on_c, 4, 60, 0
5, 63540, Note_on_c, 4, 63, 43
5, 63540, Note_on_c, 4, 60, 45
5, 63570, Note_on_c, 4, 60, 0
5, 63570, Note_on_c, 4, 63, 0
5, 63570, Note_on_c, 4, 60, 42
5, 63570, Note_on_c, 4, 63, 41
5, 63600, Note_on_c, 4, 63, 0
5, 63600, Note_on_c, 4, 60, 0
5, 63600, Note_on_c, 4, 62, 44
5, 63600, Note_on_c, 4, 58, 45
5, 63660, Note_on_c, 4, 58, 0
5, 63660, Note_on_c, 4, 62, 0
5, 64260, Note_on_c, 4, 62, 43
5, 64260, Note_on_c, 4, 58, 43
5, 64290, Note_on_c, 4, 58, 0
5, 64290, Note_on_c, 4, 62, 0
5, 64290, Note_on_c, 4, 58, 44
5, 64290, Note_on_c, 4, 62, 43
5, 64320, Note_on_c, 4, 62, 0
5, 64320, Note_on_c, 4, 58, 0
5, 64320, Note_on_c, 4, 62, 43
5, 64320, Note_on_c, 4, 58, 51
5, 64380, Note_on_c, 4, 58, 0
5, 64380, Note_on_c, 4, 62, 0
5, 64500, Note_on_c, 4, 62, 43
5, 64500, Note_on_c, 4, 58, 52
5, 64530, Note_on_c, 4, 58, 0
5, 64530, Note_on_c, 4, 62, 0
5, 64530, Note_on_c, 4, 58, 45
5, 64530, Note_on_c, 4, 62, 40
5, 64560, Note_on_c, 4, 62, 0
5, 64560, Note_on_c, 4, 58, 0
5, 64560, Note_on_c, 4, 59, 61
5, 64560, Note_on_c, 4, 62, 43
5, 64620, Note_on_c, 4, 62, 0
5, 64620, Note_on_c, 4, 59, 0
5, 65220, Note_on_c, 4, 65, 46
5, 65220, Note_on_c, 4, 62, 46
5, 65250, Note_on_c, 4, 62, 0
5, 65250, Note_on_c, 4, 65, 0
5, 65250, Note_on_c, 4, 65, 40
5, 65250, Note_on_c, 4, 62, 45
5, 65280, Note_on_c, 4, 62, 0
5, 65280, Note_on_c, 4, 65, 0
5, 65280, Note_on_c, 4, 65, 43
5, 65280, Note_on_c, 4, 62, 44
5, 65340, Note_on_c, 4, 62, 0
5, 65340, Note_on_c, 4, 65, 0
5, 65460, Note_on_c, 4, 65, 44
5, 65460, Note_on_c, 4, 62, 46
5, 65490, Note_on_c, 4, 62, 0
5, 65490, Note_on_c, 4, 65, 0
5, 65490, Note_on_c, 4, 65, 38
5, 65490, Note_on_c, 4, 62, 43
5, 65520, Note_on_c, 4, 62, 0
5, 65520, Note_on_c, 4, 65, 0
5, 65520, Note_on_c, 4, 60, 48
5, 65520, Note_on_c, 4, 67, 40
5, 65580, Note_on_c, 4, 67, 0
5, 65580, Note_on_c, 4, 60, 0
5, 66180, Note_on_c, 4, 60, 53
5, 66180, Note_on_c, 4, 63, 40
5, 66210, Note_on_c, 4, 63, 0
5, 66210, Note_on_c, 4, 60, 0
5, 66210, Note_on_c, 4, 63, 43
5, 66210, Note_on_c, 4, 60, 49
5, 66240, Note_on_c, 4, 60, 0
5, 66240, Note_on_c, 4, 63, 0
5, 66240, Note_on_c, 4, 63, 47
5, 66240, Note_on_c, 4, 60, 45
5, 66300, Note_on_c, 4, 60, 0
5, 66300, Note_on_c, 4, 63, 0
5, 66420, Note_on_c, 4, 63, 38
5, 66420, Note_on_c, 4, 60, 53
5, 66450, Note_on_c, 4, 60, 0
5, 66450, Note_on_c, 4, 63, 0
5, 66450, Note_on_c, 4, 63, 45
5, 66450, Note_on_c, 4, 60, 58
5, 66480, Note_on_c, 4, 60, 0
5, 66480, Note_on_c, 4, 63, 0
5, 66480, Note_on_c, 4, 61, 50
5, 66480, Note_on_c, 4, 64, 40
5, 66540, Note_on_c, 4, 64, 0
5, 66540, Note_on_c, 4, 61, 0
5, 67140, Note_on_c, 4, 57, 43
5, 67140, Note_on_c, 4, 64, 39
5, 67170, Note_on_c, 4, 64, 0
5, 67170, Note_on_c, 4, 57, 0
5, 67170, Note_on_c, 4, 57, 45
5, 67170, Note_on_c, 4, 64, 40
5, 67200, Note_on_c, 4, 64, 0
5, 67200, Note_on_c, 4, 57, 0
5, 67200, Note_on_c, 4, 64, 43
5, 67200, Note_on_c, 4, 57, 45
5, 67260, Note_on_c, 4, 57, 0
5, 67260, Note_on_c, 4, 64, 0
5, 67380, Note_on_c, 4, 57, 44
5, 67380, Note_on_c, 4, 64, 43
5, 67410, Note_on_c, 4, 64, 0
5, 67410, Note_on_c, 4, 57, 0
5, 67410, Note_on_c, 4, 57, 43
5, 67410, Note_on_c, 4, 64, 38
5, 67440, Note_on_c, 4, 64, 0
5, 67440, Note_on_c, 4, 57, 0
5, 67440, Note_on_c, 4, 62, 70
5, 67440, Note_on_c, 4, 50, 89
5, 67500, Note_on_c, 4, 50, 0
5, 67500, Note_on_c, 4, 62, 0
5, 79320, Note_on_c, 4, 57, 44
5, 79560, Note_on_c, 4, 57, 0
5, 79560, Note_on_c, 4, 59, 43
5, 79620, Note_on_c, 4, 59, 0
5, 79620, Note_on_c, 4, 60, 40
5, 79680, Note_on_c, 4, 60, 0
5, 79680, Note_on_c, 4, 62, 38
5, 79680, Note_on_c, 4, 47, 56
5, 79920, Note_on_c, 4, 47, 0
5, 79920, Note_on_c, 4, 48, 44
5, 80040, Note_on_c, 4, 48, 0
5, 80040, Note_on_c, 4, 62, 0
5, 80040, Note_on_c, 4, 60, 42
5, 80040, Note_on_c, 4, 50, 69
5, 80100, Note_on_c, 4, 60, 0
5, 80100, Note_on_c, 4, 59, 44
5, 80160, Note_on_c, 4, 59, 0
5, 80160, Note_on_c, 4, 50, 0
5, 80160, Note_on_c, 4, 59, 68
5, 80160, Note_on_c, 4, 52, 82
5, 80280, Note_on_c, 4, 59, 0
5, 80280, Note_on_c, 4, 57, 84
5, 80340, Note_on_c, 4, 52, 0
5, 80340, Note_on_c, 4, 51, 94
5, 80400, Note_on_c, 4, 51, 0
5, 80400, Note_on_c, 4, 50, 99
5, 80420, Control_c, 4, 7, 101
5, 80430, Control_c, 4, 7, 100
5, 80435, Control_c, 4, 7, 99
5, 80445, Control_c, 4, 7, 98
5, 80450, Control_c, 4, 7, 97
5, 80455, Control_c, 4, 7, 96
5, 80460, Note_on_c, 4, 57, 0
5, 80460, Note_on_c, 4, 50, 104
5, 80465, Control_c, 4, 7, 95
5, 80470, Control_c, 4, 7, 94
5, 80480, Control_c, 4, 7, 93
5, 80485, Control_c, 4, 7, 92
5, 80490, Control_c, 4, 7, 91
5, 80500, Control_c, 4, 7, 90
5, 80505, Control_c, 4, 7, 89
5, 80515, Control_c, 4, 7, 88
5, 80520, Note_on_c, 4, 50, 0
5, 80520, Note_on_c, 4, 52, 95
5, 80520, Control_c, 4, 7, 87
5, 80525, Control_c, 4, 7, 86
5, 80535, Control_c, 4, 7, 85
5, 80540, Control_c, 4, 7, 84
5, 80550, Control_c, 4, 7, 83
5, 80555, Control_c, 4, 7, 82
5, 80560, Control_c, 4, 7, 81
5, 80570, Control_c, 4, 7, 80
5, 80575, Control_c, 4, 7, 79
5, 80580, Note_on_c, 4, 52, 0
5, 80580, Note_on_c, 4, 54, 94
5, 80585, Control_c, 4, 7, 78
5, 80590, Control_c, 4, 7, 77
5, 80595, Control_c, 4, 7, 76
5, 80605, Control_c, 4, 7, 75
5, 80610, Control_c, 4, 7, 74
5, 80620, Control_c, 4, 7, 73
5, 80625, Control_c, 4, 7, 72
5, 80630, Control_c, 4, 7, 71
5, 80640, Note_on_c, 4, 54, 0
5, 80640, Note_on_c, 4, 55, 89
5, 80820, Note_on_c, 4, 55, 0
5, 80820, Note_on_c, 4, 57, 95
5, 80940, Note_on_c, 4, 57, 0
5, 80940, Note_on_c, 4, 50, 98
5, 81000, Note_on_c, 4, 50, 0
5, 81000, Note_on_c, 4, 52, 93
5, 81060, Note_on_c, 4, 52, 0
5, 81060, Note_on_c, 4, 54, 89
5, 81120, Note_on_c, 4, 54, 0
5, 81120, Note_on_c, 4, 50, 0
5, 81120, Note_on_c, 4, 55, 90
5, 81120, Note_on_c, 4, 43, 95
5, 81120, Control_c, 4, 7, 100
5, 81180, Note_on_c, 4, 43, 0
5, 81180, Note_on_c, 4, 55, 0
5, 83580, Note_on_c, 4, 59, 70
5, 83640, Note_on_c, 4, 59, 0
5, 83700, Note_on_c, 4, 67, 56
5, 83760, Note_on_c, 4, 67, 0
5, 83820, Note_on_c, 4, 67, 46
5, 83880, Note_on_c, 4, 67, 0
5, 83940, Note_on_c, 4, 64, 69
5, 84000, Note_on_c, 4, 64, 0
5, 84060, Note_on_c, 4, 64, 62
5, 84120, Note_on_c, 4, 64, 0
5, 84180, Note_on_c, 4, 64, 68
5, 84240, Note_on_c, 4, 64, 0
5, 84240, Note_on_c, 4, 66, 55
5, 84300, Note_on_c, 4, 66, 0
5, 86460, Note_on_c, 4, 67, 31
5, 86460, Note_on_c, 4, 63, 33
5, 86520, Note_on_c, 4, 63, 0
5, 86520, Note_on_c, 4, 67, 0
5, 86940, Note_on_c, 4, 63, 84
5, 86940, Note_on_c, 4, 67, 73
5, 87080, Control_c, 4, 7, 99
5, 87085, Control_c, 4, 7, 98
5, 87090, Control_c, 4, 7, 97
5, 87095, Control_c, 4, 7, 96
5, 87100, Control_c, 4, 7, 95
5, 87105, Control_c, 4, 7, 94
5, 87110, Control_c, 4, 7, 92
5, 87115, Control_c, 4, 7, 91
5, 87120, Control_c, 4, 7, 90
5, 87125, Control_c, 4, 7, 89
5, 87130, Control_c, 4, 7, 88
5, 87135, Control_c, 4, 7, 86
5, 87140, Control_c, 4, 7, 85
5, 87145, Control_c, 4, 7, 84
5, 87150, Control_c, 4, 7, 83
5, 87155, Control_c, 4, 7, 82
5, 87160, Control_c, 4, 7, 80
5, 87165, Control_c, 4, 7, 79
5, 87170, Control_c, 4, 7, 78
5, 87175, Control_c, 4, 7, 77
5, 87180, Control_c, 4, 7, 76
5, 87185, Control_c, 4, 7, 74
5, 87600, Note_on_c, 4, 67, 0
5, 87600, Note_on_c, 4, 63, 0
5, 87600, Note_on_c, 4, 63, 80
5, 87600, Note_on_c, 4, 67, 73
5, 87660, Note_on_c, 4, 67, 0
5, 87660, Note_on_c, 4, 63, 0
5, 87720, Note_on_c, 4, 63, 89
5, 87720, Note_on_c, 4, 67, 80
5, 87780, Note_on_c, 4, 67, 0
5, 87780, Note_on_c, 4, 63, 0
5, 87850, Control_c, 4, 7, 100
5, 87900, Note_on_c, 4, 63, 94
5, 87900, Note_on_c, 4, 67, 81
5, 88030, Control_c, 4, 7, 98
5, 88035, Control_c, 4, 7, 97
5, 88040, Control_c, 4, 7, 96
5, 88045, Control_c, 4, 7, 95
5, 88050, Control_c, 4, 7, 94
5, 88055, Control_c, 4, 7, 93
5, 88060, Control_c, 4, 7, 92
5, 88065, Control_c, 4, 7, 91
5, 88070, Control_c, 4, 7, 90
5, 88075, Control_c, 4, 7, 89
5, 88080, Control_c, 4, 7, 88
5, 88085, Control_c, 4, 7, 87
5, 88090, Control_c, 4, 7, 86
5, 88095, Control_c, 4, 7, 85
5, 88100, Control_c, 4, 7, 84
5, 88105, Control_c, 4, 7, 83
5, 88110, Control_c, 4, 7, 82
5, 88115, Control_c, 4, 7, 81
5, 88120, Control_c, 4, 7, 80
5, 88125, Control_c, 4, 7, 79
5, 88130, Control_c, 4, 7, 78
5, 88135, Control_c, 4, 7, 77
5, 88140, Control_c, 4, 7, 75
5, 88560, Note_on_c, 4, 67, 0
5, 88560, Note_on_c, 4, 63, 0
5, 88560, Note_on_c, 4, 63, 84
5, 88560, Note_on_c, 4, 67, 58
5, 88620, Note_on_c, 4, 67, 0
5, 88620, Note_on_c, 4, 63, 0
5, 88680, Note_on_c, 4, 63, 84
5, 88680, Note_on_c, 4, 67, 76
5, 88740, Note_on_c, 4, 67, 0
5, 88740, Note_on_c, 4, 63, 0
5, 88800, Note_on_c, 4, 63, 89
5, 88800, Note_on_c, 4, 67, 76
5, 88920, Note_on_c, 4, 67, 0
5, 88920, Note_on_c, 4, 63, 0
5, 88990, Control_c, 4, 7, 100
5, 89220, Note_on_c, 4, 63, 44
5, 89220, Note_on_c, 4, 67, 50
5, 89250, Note_on_c, 4, 67, 0
5, 89250, Note_on_c, 4, 63, 0
5, 89250, Note_on_c, 4, 63, 45
5, 89250, Note_on_c, 4, 67, 40
5, 89280, Note_on_c, 4, 67, 0
5, 89280, Note_on_c, 4, 63, 0
5, 89280, Note_on_c, 4, 63, 39
5, 89280, Note_on_c, 4, 67, 35
5, 89400, Note_on_c, 4, 67, 0
5, 89400, Note_on_c, 4, 63, 0
5, 94080, Note_on_c, 4, 60, 34
5, 94140, Note_on_c, 4, 60, 0
5, 94200, Note_on_c, 4, 53, 42
5, 94260, Note_on_c, 4, 53, 0
5, 94320, Note_on_c, 4, 50, 35
5, 94560, Note_on_c, 4, 50, 0
5, 94560, Note_on_c, 4, 60, 35
5, 94620, Note_on_c, 4, 60, 0
5, 94680, Note_on_c, 4, 53, 38
5, 94740, Note_on_c, 4, 53, 0
5, 94800, Note_on_c, 4, 50, 38
5, 95040, Note_on_c, 4, 50, 0
5, 95040, Note_on_c, 4, 62, 29
5, 95100, Note_on_c, 4, 62, 0
5, 95160, Note_on_c, 4, 55, 35
5, 95220, Note_on_c, 4, 55, 0
5, 95280, Note_on_c, 4, 51, 39
5, 95520, Note_on_c, 4, 51, 0
5, 95520, Note_on_c, 4, 62, 29
5, 95580, Note_on_c, 4, 62, 0
5, 95640, Note_on_c, 4, 55, 39
5, 95700, Note_on_c, 4, 55, 0
5, 95760, Note_on_c, 4, 51, 38
5, 96000, Note_on_c, 4, 51, 0
5, 96000, Note_on_c, 4, 51, 98
5, 96000, Note_on_c, 4, 63, 85
5, 96030, Note_on_c, 4, 63, 0
5, 96030, Note_on_c, 4, 51, 0
5, 96120, Note_on_c, 4, 44, 94
5, 96120, Note_on_c, 4, 56, 90
5, 96150, Note_on_c, 4, 56, 0
5, 96150, Note_on_c, 4, 44, 0
5, 96240, Note_on_c, 4, 51, 90
5, 96240, Note_on_c, 4, 48, 89
5, 96360, Note_on_c, 4, 48, 0
5, 96360, Note_on_c, 4, 51, 0
5, 96420, Note_on_c, 4, 51, 78
5, 96420, Note_on_c, 4, 48, 84
5, 96450, Note_on_c, 4, 48, 0
5, 96450, Note_on_c, 4, 51, 0
5, 96450, Note_on_c, 4, 51, 89
5, 96450, Note_on_c, 4, 48, 89
5, 96480, Note_on_c, 4, 48, 0
5, 96480, Note_on_c, 4, 51, 0
5, 96480, Note_on_c, 4, 51, 76
5, 96480, Note_on_c, 4, 48, 84
5, 96600, Note_on_c, 4, 48, 0
5, 96600, Note_on_c, 4, 51, 0
5, 96660, Note_on_c, 4, 51, 76
5, 96660, Note_on_c, 4, 48, 84
5, 96690, Note_on_c, 4, 48, 0
5, 96690, Note_on_c, 4, 51, 0
5, 96690, Note_on_c, 4, 51, 80
5, 96690, Note_on_c, 4, 48, 81
5, 96720, Note_on_c, 4, 48, 0
5, 96720, Note_on_c, 4, 51, 0
5, 96720, Note_on_c, 4, 51, 84
5, 96720, Note_on_c, 4, 48, 86
5, 96780, Note_on_c, 4, 48, 0
5, 96780, Note_on_c, 4, 51, 0
5, 96840, Note_on_c, 4, 51, 90
5, 96840, Note_on_c, 4, 57, 95
5, 96870, Note_on_c, 4, 57, 0
5, 96870, Note_on_c, 4, 51, 0
5, 96900, Note_on_c, 4, 57, 93
5, 96900, Note_on_c, 4, 60, 77
5, 96930, Note_on_c, 4, 60, 0
5, 96930, Note_on_c, 4, 57, 0
5, 96960, Note_on_c, 4, 51, 90
5, 96960, Note_on_c, 4, 63, 80
5, 96990, Note_on_c, 4, 63, 0
5, 96990, Note_on_c, 4, 51, 0
5, 97080, Note_on_c, 4, 44, 94
5, 97080, Note_on_c, 4, 56, 86
5, 97110, Note_on_c, 4, 56, 0
5, 97110, Note_on_c, 4, 44, 0
5, 97200, Note_on_c, 4, 51, 85
5, 97200, Note_on_c, 4, 48, 89
5, 97320, Note_on_c, 4, 48, 0
5, 97320, Note_on_c, 4, 51, 0
5, 97380, Note_on_c, 4, 51, 81
5, 97380, Note_on_c, 4, 48, 85
5, 97410, Note_on_c, 4, 48, 0
5, 97410, Note_on_c, 4, 51, 0
5, 97410, Note_on_c, 4, 51, 89
5, 97410, Note_on_c, 4, 48, 89
5, 97440, Note_on_c, 4, 48, 0
5, 97440, Note_on_c, 4, 51, 0
5, 97440, Note_on_c, 4, 51, 82
5, 97440, Note_on_c, 4, 48, 84
5, 97560, Note_on_c, 4, 48, 0
5, 97560, Note_on_c, 4, 51, 0
5, 97620, Note_on_c, 4, 51, 84
5, 97620, Note_on_c, 4, 48, 80
5, 97650, Note_on_c, 4, 48, 0
5, 97650, Note_on_c, 4, 51, 0
5, 97650, Note_on_c, 4, 48, 84
5, 97650, Note_on_c, 4, 51, 86
5, 97680, Note_on_c, 4, 51, 0
5, 97680, Note_on_c, 4, 48, 0
5, 97680, Note_on_c, 4, 51, 82
5, 97680, Note_on_c, 4, 48, 77
5, 97740, Note_on_c, 4, 48, 0
5, 97740, Note_on_c, 4, 51, 0
5, 97800, Note_on_c, 4, 51, 89
5, 97800, Note_on_c, 4, 57, 84
5, 97830, Note_on_c, 4, 57, 0
5, 97830, Note_on_c, 4, 51, 0
5, 97860, Note_on_c, 4, 60, 84
5, 97860, Note_on_c, 4, 57, 99
5, 97890, Note_on_c, 4, 57, 0
5, 97890, Note_on_c, 4, 60, 0
5, 97920, Note_on_c, 4, 60, 84
5, 97920, Note_on_c, 4, 57, 95
5, 98040, Note_on_c, 4, 57, 0
5, 98040, Note_on_c, 4, 60, 0
5, 98040, Note_on_c, 4, 60, 76
5, 98040, Note_on_c, 4, 57, 93
5, 98070, Note_on_c, 4, 57, 0
5, 98070, Note_on_c, 4, 60, 0
5, 98100, Note_on_c, 4, 57, 94
5, 98100, Note_on_c, 4, 60, 78
5, 98130, Note_on_c, 4, 60, 0
5, 98130, Note_on_c, 4, 57, 0
5, 98160, Note_on_c, 4, 60, 82
5, 98160, Note_on_c, 4, 57, 98
5, 98280, Note_on_c, 4, 57, 0
5, 98280, Note_on_c, 4, 60, 0
5, 98280, Note_on_c, 4, 60, 76
5, 98280, Note_on_c, 4, 57, 94
5, 98310, Note_on_c, 4, 57, 0
5, 98310, Note_on_c, 4, 60, 0
5, 98340, Note_on_c, 4, 60, 80
5, 98340, Note_on_c, 4, 57, 95
5, 98370, Note_on_c, 4, 57, 0
5, 98370, Note_on_c, 4, 60, 0
5, 98400, Note_on_c, 4, 60, 86
5, 98400, Note_on_c, 4, 57, 104
5, 98520, Note_on_c, 4, 57, 0
5, 98520, Note_on_c, 4, 60, 0
5, 98520, Note_on_c, 4, 57, 95
5, 98520, Note_on_c, 4, 60, 78
5, 98550, Note_on_c, 4, 60, 0
5, 98550, Note_on_c, 4, 57, 0
5, 98580, Note_on_c, 4, 57, 99
5, 98580, Note_on_c, 4, 60, 82
5, 98610, Note_on_c, 4, 60, 0
5, 98610, Note_on_c, 4, 57, 0
5, 98640, Note_on_c, 4, 59, 86
5, 98640, Note_on_c, 4, 62, 80
5, 98700, Note_on_c, 4, 62, 0
5, 98700, Note_on_c, 4, 59, 0
5, 105720, Note_on_c, 4, 67, 43
5, 105960, Note_on_c, 4, 67, 0
5, 105960, Note_on_c, 4, 66, 33
5, 106080, Note_on_c, 4, 66, 0
5, 106080, Note_on_c, 4, 67, 39
5, 106140, Note_on_c, 4, 67, 0
5, 106260, Note_on_c, 4, 48, 94
5, 106290, Note_on_c, 4, 48, 0
5, 106290, Note_on_c, 4, 48, 94
5, 106320, Note_on_c, 4, 48, 0
5, 106320, Note_on_c, 4, 48, 95
5, 106380, Note_on_c, 4, 48, 0
5, 106380, Note_on_c, 4, 48, 99
5, 106620, Note_on_c, 4, 48, 0
5, 106620, Note_on_c, 4, 48, 104
5, 106860, Note_on_c, 4, 48, 0
5, 106860, Note_on_c, 4, 48, 99
5, 106980, Note_on_c, 4, 48, 0
5, 106980, Note_on_c, 4, 48, 101
5, 107100, Note_on_c, 4, 48, 0
5, 107100, Note_on_c, 4, 48, 99
5, 107340, Note_on_c, 4, 48, 0
5, 107340, Note_on_c, 4, 48, 101
5, 107460, Note_on_c, 4, 48, 0
5, 107460, Note_on_c, 4, 50, 104
5, 107580, Note_on_c, 4, 50, 0
5, 107580, Note_on_c, 4, 50, 104
5, 107820, Note_on_c, 4, 50, 0
5, 107820, Note_on_c, 4, 50, 104
5, 107940, Note_on_c, 4, 50, 0
5, 107940, Note_on_c, 4, 55, 95
5, 108060, Note_on_c, 4, 55, 0
5, 108060, Note_on_c, 4, 52, 104
5, 108180, Note_on_c, 4, 52, 0
5, 108180, Note_on_c, 4, 48, 99
5, 108300, Note_on_c, 4, 48, 0
5, 108300, Note_on_c, 4, 50, 105
5, 108420, Note_on_c, 4, 50, 0
5, 108420, Note_on_c, 4, 50, 99
5, 108480, Note_on_c, 4, 50, 0
5, 108480, Note_on_c, 4, 62, 94
5, 108480, Note_on_c, 4, 59, 94
5, 108720, Note_on_c, 4, 62, 0
5, 108720, Note_on_c, 4, 60, 94
5, 108780, Note_on_c, 4, 59, 0
5, 108780, Note_on_c, 4, 57, 105
5, 108840, Note_on_c, 4, 60, 0
5, 108840, Note_on_c, 4, 59, 99
5, 108900, Note_on_c, 4, 57, 0
5, 108900, Note_on_c, 4, 55, 90
5, 108960, Note_on_c, 4, 59, 0
5, 108960, Note_on_c, 4, 57, 99
5, 109020, Note_on_c, 4, 55, 0
5, 109020, Note_on_c, 4, 54, 94
5, 109080, Note_on_c, 4, 54, 0
5, 109080, Note_on_c, 4, 57, 0
5, 109080, Note_on_c, 4, 55, 89
5, 109110, Note_on_c, 4, 55, 0
5, 109110, Note_on_c, 4, 55, 93
5, 109110, Note_on_c, 4, 59, 89
5, 109140, Note_on_c, 4, 59, 0
5, 109140, Note_on_c, 4, 55, 0
5, 109140, Note_on_c, 4, 57, 95
5, 109140, Note_on_c, 4, 60, 80
5, 109170, Note_on_c, 4, 60, 0
5, 109170, Note_on_c, 4, 57, 0
5, 109170, Note_on_c, 4, 62, 81
5, 109170, Note_on_c, 4, 59, 90
5, 109200, Note_on_c, 4, 59, 0
5, 109200, Note_on_c, 4, 62, 0
5, 109200, Note_on_c, 4, 60, 85
5, 109200, Note_on_c, 4, 64, 85
5, 109230, Note_on_c, 4, 64, 0
5, 109230, Note_on_c, 4, 60, 0
5, 109230, Note_on_c, 4, 45, 93
5, 109260, Note_on_c, 4, 45, 0
5, 109260, Note_on_c, 4, 47, 94
5, 109290, Note_on_c, 4, 47, 0
5, 109290, Note_on_c, 4, 48, 94
5, 109320, Note_on_c, 4, 48, 0
5, 109320, Note_on_c, 4, 50, 99
5, 109380, Note_on_c, 4, 50, 0
5, 109380, Note_on_c, 4, 50, 99
5, 109440, Note_on_c, 4, 50, 0
5, 110460, Note_on_c, 4, 55, 84
5, 110460, Note_on_c, 4, 67, 68
5, 110490, Note_on_c, 4, 67, 0
5, 110490, Note_on_c, 4, 55, 0
5, 110490, Note_on_c, 4, 55, 85
5, 110490, Note_on_c, 4, 67, 73
5, 110520, Note_on_c, 4, 67, 0
5, 110520, Note_on_c, 4, 55, 0
5, 110520, Note_on_c, 4, 67, 73
5, 110520, Note_on_c, 4, 55, 84
5, 110580, Note_on_c, 4, 55, 0
5, 110580, Note_on_c, 4, 67, 0
5, 111420, Note_on_c, 4, 67, 71
5, 111420, Note_on_c, 4, 55, 89
5, 111450, Note_on_c, 4, 55, 0
5, 111450, Note_on_c, 4, 67, 0
5, 111450, Note_on_c, 4, 55, 89
5, 111450, Note_on_c, 4, 67, 73
5, 111480, Note_on_c, 4, 67, 0
5, 111480, Note_on_c, 4, 55, 0
5, 111480, Note_on_c, 4, 67, 73
5, 111480, Note_on_c, 4, 55, 89
5, 111540, Note_on_c, 4, 55, 0
5, 111540, Note_on_c, 4, 67, 0
5, 115200, Note_on_c, 4, 66, 36
5, 115680, Note_on_c, 4, 66, 0
5, 115680, Note_on_c, 4, 67, 35
5, 116220, Note_on_c, 4, 67, 0
5, 117120, Note_on_c, 4, 67, 32
5, 117360, Note_on_c, 4, 67, 0
5, 117360, Note_on_c, 4, 64, 32
5, 117480, Note_on_c, 4, 64, 0
5, 117480, Note_on_c, 4, 60, 43
5, 117600, Note_on_c, 4, 60, 0
5, 117600, Note_on_c, 4, 57, 41
5, 117840, Note_on_c, 4, 57, 0
5, 117840, Note_on_c, 4, 62, 40
5, 119040, Note_on_c, 4, 62, 0
5, 119040, Note_on_c, 4, 62, 46
5, 120360, Note_on_c, 4, 62, 0
5, 120360, Note_on_c, 4, 60, 62
5, 120420, Note_on_c, 4, 60, 0
5, 120420, Note_on_c, 4, 59, 74
5, 120480, Note_on_c, 4, 59, 0
5, 120480, Note_on_c, 4, 59, 73
5, 120600, Note_on_c, 4, 59, 0
5, 120600, Note_on_c, 4, 57, 77
5, 120780, Note_on_c, 4, 57, 0
5, 120780, Note_on_c, 4, 50, 80
5, 120840, Note_on_c, 4, 50, 0
5, 120840, Note_on_c, 4, 52, 76
5, 120900, Note_on_c, 4, 52, 0
5, 120900, Note_on_c, 4, 54, 85
5, 120960, Note_on_c, 4, 54, 0
5, 120960, Note_on_c, 4, 50, 80
5, 120960, Note_on_c, 4, 55, 81
5, 121200, Note_on_c, 4, 55, 0
5, 121200, Note_on_c, 4, 57, 81
5, 121215, Note_on_c, 4, 57, 0
5, 121215, Note_on_c, 4, 55, 73
5, 121230, Note_on_c, 4, 55, 0
5, 121230, Note_on_c, 4, 54, 74
5, 121245, Note_on_c, 4, 54, 0
5, 121245, Note_on_c, 4, 55, 70
5, 121260, Note_on_c, 4, 55, 0
5, 121260, Note_on_c, 4, 57, 94
5, 121320, Note_on_c, 4, 57, 0
5, 121320, Note_on_c, 4, 50, 0
5, 121320, Note_on_c, 4, 48, 84
5, 121320, Note_on_c, 4, 59, 81
5, 121380, Note_on_c, 4, 59, 0
5, 121380, Note_on_c, 4, 48, 0
5, 121380, Note_on_c, 4, 47, 84
5, 121380, Note_on_c, 4, 60, 73
5, 121440, Note_on_c, 4, 60, 0
5, 121440, Note_on_c, 4, 47, 0
5, 121440, Note_on_c, 4, 47, 84
5, 121440, Note_on_c, 4, 60, 80
5, 121560, Note_on_c, 4, 47, 0
5, 121560, Note_on_c, 4, 45, 95
5, 121680, Note_on_c, 4, 60, 0
5, 121680, Note_on_c, 4, 57, 94
5, 121740, Note_on_c, 4, 57, 0
5, 121740, Note_on_c, 4, 45, 0
5, 121740, Note_on_c, 4, 38, 90
5, 121740, Note_on_c, 4, 59, 86
5, 121800, Note_on_c, 4, 59, 0
5, 121800, Note_on_c, 4, 38, 0
5, 121800, Note_on_c, 4, 40, 94
5, 121800, Note_on_c, 4, 60, 80
5, 121860, Note_on_c, 4, 60, 0
5, 121860, Note_on_c, 4, 40, 0
5, 121860, Note_on_c, 4, 42, 85
5, 121860, Note_on_c, 4, 62, 76
5, 121920, Note_on_c, 4, 62, 0
5, 121920, Note_on_c, 4, 42, 0
5, 121920, Note_on_c, 4, 43, 94
5, 121920, Note_on_c, 4, 62, 81
5, 121950, Note_on_c, 4, 43, 0
5, 121980, Note_on_c, 4, 62, 0
5, 121980, Note_on_c, 4, 45, 95
5, 122010, Note_on_c, 4, 45, 0
5, 122040, Note_on_c, 4, 47, 95
5, 122040, Note_on_c, 4, 59, 86
5, 122070, Note_on_c, 4, 59, 0
5, 122070, Note_on_c, 4, 47, 0
5, 122100, Note_on_c, 4, 48, 105
5, 122100, Note_on_c, 4, 60, 95
5, 122130, Note_on_c, 4, 60, 0
5, 122130, Note_on_c, 4, 48, 0
5, 122160, Note_on_c, 4, 45, 90
5, 122160, Note_on_c, 4, 57, 99
5, 122190, Note_on_c, 4, 57, 0
5, 122190, Note_on_c, 4, 45, 0
5, 122220, Note_on_c, 4, 47, 89
5, 122220, Note_on_c, 4, 59, 98
5, 122250, Note_on_c, 4, 59, 0
5, 122250, Note_on_c, 4, 47, 0
5, 122280, Note_on_c, 4, 48, 86
5, 122280, Note_on_c, 4, 60, 84
5, 122310, Note_on_c, 4, 60, 0
5, 122310, Note_on_c, 4, 48, 0
5, 122340, Note_on_c, 4, 50, 107
5, 122340, Note_on_c, 4, 62, 104
5, 122370, Note_on_c, 4, 62, 0
5, 122370, Note_on_c, 4, 50, 0
5, 122400, Note_on_c, 4, 47, 94
5, 122400, Note_on_c, 4, 59, 93
5, 122430, Note_on_c, 4, 59, 0
5, 122430, Note_on_c, 4, 47, 0
5, 122460, Note_on_c, 4, 48, 93
5, 122460, Note_on_c, 4, 60, 90
5, 122490, Note_on_c, 4, 60, 0
5, 122490, Note_on_c, 4, 48, 0
5, 122520, Note_on_c, 4, 50, 98
5, 122520, Note_on_c, 4, 62, 81
5, 122550, Note_on_c, 4, 62, 0
5, 122550, Note_on_c, 4, 50, 0
5, 122580, Note_on_c, 4, 52, 107
5, 122580, Note_on_c, 4, 64, 104
5, 122610, Note_on_c, 4, 64, 0
5, 122610, Note_on_c, 4, 52, 0
5, 122640, Note_on_c, 4, 48, 84
5, 122670, Note_on_c, 4, 48, 0
5, 122700, Note_on_c, 4, 50, 94
5, 122730, Note_on_c, 4, 50, 0
5, 122760, Note_on_c, 4, 52, 86
5, 122790, Note_on_c, 4, 52, 0
5, 122820, Note_on_c, 4, 54, 99
5, 122850, Note_on_c, 4, 54, 0
5, 122880, Note_on_c, 4, 55, 84
5, 122940, Note_on_c, 4, 55, 0
5, 122940, Note_on_c, 4, 57, 99
5, 123000, Note_on_c, 4, 57, 0
5, 123000, Note_on_c, 4, 58, 84
5, 123060, Note_on_c, 4, 58, 0
5, 123060, Note_on_c, 4, 59, 94
5, 123120, Note_on_c, 4, 59, 0
5, 123120, Note_on_c, 4, 60, 76
5, 123180, Note_on_c, 4, 60, 0
5, 123180, Note_on_c, 4, 61, 73
5, 123240, Note_on_c, 4, 61, 0
5, 123240, Note_on_c, 4, 62, 82
5, 123300, Note_on_c, 4, 62, 0
5, 123300, Note_on_c, 4, 63, 80
5, 123360, Note_on_c, 4, 63, 0
5, 123360, Note_on_c, 4, 64, 94
5, 123420, Note_on_c, 4, 64, 0
5, 123480, Note_on_c, 4, 66, 86
5, 123540, Note_on_c, 4, 66, 0
5, 123600, Note_on_c, 4, 67, 84
5, 123660, Note_on_c, 4, 67, 0
5, 123720, Note_on_c, 4, 49, 89
5, 123780, Note_on_c, 4, 49, 0
5, 123840, Note_on_c, 4, 50, 95
5, 124080, Note_on_c, 4, 50, 0
5, 139200, Note_on_c, 4, 62, 76
5, 139200, Note_on_c, 4, 59, 89
5, 139270, Control_c, 4, 7, 99
5, 139280, Control_c, 4, 7, 98
5, 139285, Control_c, 4, 7, 97
5, 139290, Control_c, 4, 7, 96
5, 139295, Control_c, 4, 7, 95
5, 139300, Control_c, 4, 7, 94
5, 139305, Control_c, 4, 7, 93
5, 139310, Control_c, 4, 7, 92
5, 139315, Control_c, 4, 7, 91
5, 139320, Control_c, 4, 7, 90
5, 139325, Control_c, 4, 7, 89
5, 139330, Control_c, 4, 7, 88
5, 139335, Control_c, 4, 7, 87
5, 139340, Control_c, 4, 7, 86
5, 139345, Control_c, 4, 7, 85
5, 139350, Control_c, 4, 7, 84
5, 139355, Control_c, 4, 7, 83
5, 139360, Control_c, 4, 7, 82
5, 139365, Control_c, 4, 7, 81
5, 139370, Control_c, 4, 7, 80
5, 139375, Control_c, 4, 7, 79
5, 139380, Control_c, 4, 7, 78
5, 139385, Control_c, 4, 7, 77
5, 139390, Control_c, 4, 7, 76
5, 139395, Control_c, 4, 7, 75
5, 139400, Control_c, 4, 7, 74
5, 139405, Control_c, 4, 7, 73
5, 139680, Note_on_c, 4, 59, 0
5, 139680, Note_on_c, 4, 62, 0
5, 139680, Note_on_c, 4, 64, 80
5, 139680, Note_on_c, 4, 60, 76
5, 139740, Note_on_c, 4, 60, 0
5, 139740, Note_on_c, 4, 64, 0
5, 139800, Note_on_c, 4, 64, 81
5, 139800, Note_on_c, 4, 60, 86
5, 139860, Note_on_c, 4, 60, 0
5, 139860, Note_on_c, 4, 64, 0
5, 140040, Note_on_c, 4, 55, 86
5, 140040, Note_on_c, 4, 59, 81
5, 140100, Note_on_c, 4, 59, 0
5, 140100, Note_on_c, 4, 55, 0
5, 140280, Note_on_c, 4, 60, 72
5, 140280, Note_on_c, 4, 57, 89
5, 140340, Note_on_c, 4, 57, 0
5, 140340, Note_on_c, 4, 60, 0
5, 140520, Control_c, 4, 7, 100
5, 141720, Note_on_c, 4, 50, 43
5, 141840, Note_on_c, 4, 47, 55
5, 141960, Note_on_c, 4, 47, 0
5, 141960, Note_on_c, 4, 50, 0
5, 141960, Note_on_c, 4, 55, 43
5, 141960, Note_on_c, 4, 50, 43
5, 142020, Note_on_c, 4, 50, 0
5, 142020, Note_on_c, 4, 55, 0
5, 142020, Note_on_c, 4, 59, 40
5, 142020, Note_on_c, 4, 55, 29
5, 142080, Note_on_c, 4, 55, 0
5, 142080, Note_on_c, 4, 59, 0
5, 142080, Note_on_c, 4, 62, 40
5, 142080, Note_on_c, 4, 59, 38
5, 142320, Note_on_c, 4, 59, 0
5, 142320, Note_on_c, 4, 62, 0
5, 142320, Note_on_c, 4, 52, 51
5, 142320, Note_on_c, 4, 48, 45
5, 142440, Note_on_c, 4, 48, 0
5, 142440, Note_on_c, 4, 52, 0
5, 142440, Note_on_c, 4, 55, 51
5, 142440, Note_on_c, 4, 52, 65
5, 142500, Note_on_c, 4, 52, 0
5, 142500, Note_on_c, 4, 55, 0
5, 142500, Note_on_c, 4, 60, 45
5, 142500, Note_on_c, 4, 55, 45
5, 142560, Note_on_c, 4, 55, 0
5, 142560, Note_on_c, 4, 60, 0
5, 142560, Note_on_c, 4, 64, 44
5, 142560, Note_on_c, 4, 60, 40
5, 142800, Note_on_c, 4, 60, 0
5, 142800, Note_on_c, 4, 64, 0
5, 142800, Note_on_c, 4, 64, 45
5, 142800, Note_on_c, 4, 60, 46
5, 142920, Note_on_c, 4, 60, 0
5, 142920, Note_on_c, 4, 64, 0
5, 142920, Note_on_c, 4, 60, 43
5, 142920, Note_on_c, 4, 57, 52
5, 143040, Note_on_c, 4, 57, 0
5, 143040, Note_on_c, 4, 60, 0
5, 143040, Note_on_c, 4, 54, 45
5, 143040, Note_on_c, 4, 57, 43
5, 143280, Note_on_c, 4, 57, 0
5, 143280, Note_on_c, 4, 54, 0
5, 143280, Note_on_c, 4, 54, 44
5, 143280, Note_on_c, 4, 57, 43
5, 143400, Note_on_c, 4, 57, 0
5, 143400, Note_on_c, 4, 54, 0
5, 143400, Note_on_c, 4, 62, 43
5, 143400, Note_on_c, 4, 50, 43
5, 143520, Note_on_c, 4, 50, 0
5, 143520, Note_on_c, 4, 62, 0
5, 143520, Note_on_c, 4, 55, 53
5, 143520, Note_on_c, 4, 59, 44
5, 143640, Note_on_c, 4, 59, 0
5, 143640, Note_on_c, 4, 55, 0
5, 143640, Note_on_c, 4, 55, 41
5, 143640, Note_on_c, 4, 47, 52
5, 143760, Note_on_c, 4, 47, 0
5, 143760, Note_on_c, 4, 55, 0
5, 143760, Note_on_c, 4, 57, 53
5, 143760, Note_on_c, 4, 48, 47
5, 143880, Note_on_c, 4, 48, 0
5, 143880, Note_on_c, 4, 57, 0
5, 143880, Note_on_c, 4, 50, 52
5, 144000, Note_on_c, 4, 50, 0
5, 144000, Note_on_c, 4, 47, 44
5, 144240, Note_on_c, 4, 47, 0
5, 144360, Note_on_c, 4, 50, 38
5, 144360, Note_on_c, 4, 47, 38
5, 144480, Note_on_c, 4, 47, 0
5, 144480, Note_on_c, 4, 50, 0
5, 144480, Note_on_c, 4, 55, 43
5, 144480, Note_on_c, 4, 50, 43
5, 144540, Note_on_c, 4, 50, 0
5, 144540, Note_on_c, 4, 55, 0
5, 144540, Note_on_c, 4, 55, 45
5, 144540, Note_on_c, 4, 59, 45
5, 144600, Note_on_c, 4, 59, 0
5, 144600, Note_on_c, 4, 55, 0
5, 144600, Note_on_c, 4, 62, 38
5, 144600, Note_on_c, 4, 59, 29
5, 144720, Note_on_c, 4, 59, 0
5, 144720, Note_on_c, 4, 62, 0
5, 144840, Note_on_c, 4, 52, 43
5, 144840, Note_on_c, 4, 48, 43
5, 144960, Note_on_c, 4, 48, 0
5, 144960, Note_on_c, 4, 52, 0
5, 144960, Note_on_c, 4, 52, 72
5, 144960, Note_on_c, 4, 55, 45
5, 145020, Note_on_c, 4, 55, 0
5, 145020, Note_on_c, 4, 52, 0
5, 145020, Note_on_c, 4, 60, 43
5, 145020, Note_on_c, 4, 55, 38
5, 145080, Note_on_c, 4, 55, 0
5, 145080, Note_on_c, 4, 60, 0
5, 145080, Note_on_c, 4, 64, 45
5, 145080, Note_on_c, 4, 60, 43
5, 145200, Note_on_c, 4, 60, 0
5, 145200, Note_on_c, 4, 64, 0
5, 145320, Note_on_c, 4, 64, 40
5, 145320, Note_on_c, 4, 60, 40
5, 145440, Note_on_c, 4, 60, 0
5, 145440, Note_on_c, 4, 64, 0
5, 145440, Note_on_c, 4, 60, 39
5, 145440, Note_on_c, 4, 57, 50
5, 145560, Note_on_c, 4, 57, 0
5, 145560, Note_on_c, 4, 60, 0
5, 145560, Note_on_c, 4, 54, 44
5, 145560, Note_on_c, 4, 57, 40
5, 145680, Note_on_c, 4, 57, 0
5, 145680, Note_on_c, 4, 54, 0
5, 145800, Note_on_c, 4, 54, 40
5, 145800, Note_on_c, 4, 57, 40
5, 145920, Note_on_c, 4, 57, 0
5, 145920, Note_on_c, 4, 54, 0
5, 145920, Note_on_c, 4, 62, 47
5, 145920, Note_on_c, 4, 50, 44
5, 146040, Note_on_c, 4, 50, 0
5, 146040, Note_on_c, 4, 62, 0
5, 146040, Note_on_c, 4, 55, 46
5, 146040, Note_on_c, 4, 59, 40
5, 146160, Note_on_c, 4, 59, 0
5, 146160, Note_on_c, 4, 55, 0
5, 146280, Note_on_c, 4, 57, 43
5, 146280, Note_on_c, 4, 48, 43
5, 146400, Note_on_c, 4, 48, 0
5, 146400, Note_on_c, 4, 57, 0
5, 146400, Note_on_c, 4, 50, 43
5, 146520, Note_on_c, 4, 50, 0
5, 146520, Note_on_c, 4, 47, 43
5, 146640, Note_on_c, 4, 47, 0
5, 146760, Note_on_c, 4, 57, 42
5, 146760, Note_on_c, 4, 48, 41
5, 146880, Note_on_c, 4, 48, 0
5, 146880, Note_on_c, 4, 57, 0
5, 146880, Note_on_c, 4, 50, 43
5, 147000, Note_on_c, 4, 50, 0
5, 147000, Note_on_c, 4, 47, 49
5, 147120, Note_on_c, 4, 47, 0
5, 147120, Control_c, 4, 7, 99
5, 147155, Control_c, 4, 7, 98
5, 147185, Control_c, 4, 7, 97
5, 147215, Control_c, 4, 7, 96
5, 147240, Note_on_c, 4, 57, 38
5, 147240, Note_on_c, 4, 48, 38
5, 147245, Control_c, 4, 7, 95
5, 147275, Control_c, 4, 7, 94
5, 147305, Control_c, 4, 7, 93
5, 147340, Control_c, 4, 7, 92
5, 147360, Note_on_c, 4, 57, 0
5, 147360, Note_on_c, 4, 50, 43
5, 147370, Control_c, 4, 7, 91
5, 147400, Control_c, 4, 7, 90
5, 147430, Control_c, 4, 7, 89
5, 147460, Control_c, 4, 7, 88
5, 147480, Note_on_c, 4, 50, 0
5, 147480, Note_on_c, 4, 57, 45
5, 147490, Control_c, 4, 7, 87
5, 147525, Control_c, 4, 7, 86
5, 147555, Control_c, 4, 7, 85
5, 147585, Control_c, 4, 7, 84
5, 147600, Note_on_c, 4, 57, 0
5, 147600, Note_on_c, 4, 50, 43
5, 147615, Control_c, 4, 7, 83
5, 147645, Control_c, 4, 7, 82
5, 147675, Control_c, 4, 7, 81
5, 147710, Control_c, 4, 7, 80
5, 147720, Note_on_c, 4, 50, 0
5, 147720, Note_on_c, 4, 57, 43
5, 147740, Control_c, 4, 7, 79
5, 147770, Control_c, 4, 7, 78
5, 147800, Control_c, 4, 7, 77
5, 147830, Control_c, 4, 7, 76
5, 147840, Note_on_c, 4, 57, 0
5, 147840, Note_on_c, 4, 50, 61
5, 147860, Control_c, 4, 7, 75
5, 147895, Control_c, 4, 7, 74
5, 147925, Control_c, 4, 7, 73
5, 147955, Control_c, 4, 7, 72
5, 147960, Note_on_c, 4, 50, 0
5, 147960, Note_on_c, 4, 57, 41
5, 147985, Control_c, 4, 7, 71
5, 148015, Control_c, 4, 7, 70
5, 148045, Control_c, 4, 7, 69
5, 148075, Control_c, 4, 7, 68
5, 148080, Note_on_c, 4, 57, 0
5, 148080, Note_on_c, 4, 48, 0
5, 148080, Note_on_c, 4, 55, 37
5, 148080, Note_on_c, 4, 47, 40
5, 148200, Note_on_c, 4, 47, 0
5, 148200, Note_on_c, 4, 55, 0
5, 148315, Control_c, 4, 7, 100
5, 152340, Note_on_c, 4, 62, 40
5, 152340, Note_on_c, 4, 50, 44
5, 152400, Note_on_c, 4, 50, 0
5, 152400, Note_on_c, 4, 62, 0
5, 152400, Note_on_c, 4, 43, 93
5, 152400, Note_on_c, 4, 55, 89
5, 152520, Note_on_c, 4, 55, 0
5, 152520, Note_on_c, 4, 43, 0
5, 152520, Note_on_c, 4, 59, 82
5, 152520, Note_on_c, 4, 62, 80
5, 152640, Note_on_c, 4, 62, 0
5, 152640, Note_on_c, 4, 59, 0
5, 152760, Note_on_c, 4, 59, 81
5, 152760, Note_on_c, 4, 62, 74
5, 152880, Note_on_c, 4, 62, 0
5, 152880, Note_on_c, 4, 59, 0
5, 153000, Note_on_c, 4, 62, 68
5, 153000, Note_on_c, 4, 59, 84
5, 153120, Note_on_c, 4, 59, 0
5, 153120, Note_on_c, 4, 62, 0
5, 153240, Note_on_c, 4, 62, 73
5, 153240, Note_on_c, 4, 59, 84
5, 153360, Note_on_c, 4, 59, 0
5, 153360, Note_on_c, 4, 62, 0
5, 153360, Note_on_c, 4, 48, 99
5, 153400, Note_on_c, 4, 48, 0
5, 153400, Note_on_c, 4, 47, 89
5, 153440, Note_on_c, 4, 47, 0
5, 153440, Note_on_c, 4, 48, 95
5, 153480, Note_on_c, 4, 48, 0
5, 153480, Note_on_c, 4, 52, 99
5, 153520, Note_on_c, 4, 52, 0
5, 153520, Note_on_c, 4, 55, 80
5, 153560, Note_on_c, 4, 55, 0
5, 153560, Note_on_c, 4, 52, 95
5, 153600, Note_on_c, 4, 52, 0
5, 153600, Note_on_c, 4, 48, 99
5, 153640, Note_on_c, 4, 48, 0
5, 153640, Note_on_c, 4, 47, 93
5, 153680, Note_on_c, 4, 47, 0
5, 153680, Note_on_c, 4, 48, 95
5, 153720, Note_on_c, 4, 48, 0
5, 153720, Note_on_c, 4, 52, 94
5, 153760, Note_on_c, 4, 52, 0
5, 153760, Note_on_c, 4, 55, 82
5, 153800, Note_on_c, 4, 55, 0
5, 153800, Note_on_c, 4, 52, 94
5, 153840, Note_on_c, 4, 52, 0
5, 153840, Note_on_c, 4, 48, 94
5, 153880, Note_on_c, 4, 48, 0
5, 153880, Note_on_c, 4, 52, 99
5, 153920, Note_on_c, 4, 52, 0
5, 153920, Note_on_c, 4, 55, 93
5, 153960, Note_on_c, 4, 55, 0
5, 153960, Note_on_c, 4, 60, 86
5, 154000, Note_on_c, 4, 60, 0
5, 154000, Note_on_c, 4, 55, 86
5, 154040, Note_on_c, 4, 55, 0
5, 154040, Note_on_c, 4, 52, 95
5, 154080, Note_on_c, 4, 52, 0
5, 154080, Note_on_c, 4, 48, 94
5, 154120, Note_on_c, 4, 48, 0
5, 154120, Note_on_c, 4, 50, 94
5, 154160, Note_on_c, 4, 50, 0
5, 154160, Note_on_c, 4, 52, 94
5, 154200, Note_on_c, 4, 52, 0
5, 154200, Note_on_c, 4, 50, 105
5, 154240, Note_on_c, 4, 50, 0
5, 154240, Note_on_c, 4, 48, 94
5, 154280, Note_on_c, 4, 48, 0
5, 154280, Note_on_c, 4, 47, 94
5, 154320, Note_on_c, 4, 47, 0
5, 154320, Note_on_c, 4, 45, 98
5, 154360, Note_on_c, 4, 45, 0
5, 154360, Note_on_c, 4, 44, 89
5, 154400, Note_on_c, 4, 44, 0
5, 154400, Note_on_c, 4, 45, 98
5, 154440, Note_on_c, 4, 45, 0
5, 154440, Note_on_c, 4, 48, 94
5, 154480, Note_on_c, 4, 48, 0
5, 154480, Note_on_c, 4, 47, 99
5, 154520, Note_on_c, 4, 47, 0
5, 154520, Note_on_c, 4, 48, 99
5, 154560, Note_on_c, 4, 48, 0
5, 154560, Note_on_c, 4, 50, 99
5, 154600, Note_on_c, 4, 50, 0
5, 154600, Note_on_c, 4, 49, 93
5, 154640, Note_on_c, 4, 49, 0
5, 154640, Note_on_c, 4, 50, 104
5, 154680, Note_on_c, 4, 50, 0
5, 154680, Note_on_c, 4, 54, 94
5, 154720, Note_on_c, 4, 54, 0
5, 154720, Note_on_c, 4, 57, 95
5, 154760, Note_on_c, 4, 57, 0
5, 154760, Note_on_c, 4, 54, 89
5, 154800, Note_on_c, 4, 54, 0
5, 154800, Note_on_c, 4, 50, 98
5, 154840, Note_on_c, 4, 50, 0
5, 154840, Note_on_c, 4, 54, 89
5, 154880, Note_on_c, 4, 54, 0
5, 154880, Note_on_c, 4, 52, 99
5, 154920, Note_on_c, 4, 52, 0
5, 154920, Note_on_c, 4, 50, 105
5, 154960, Note_on_c, 4, 50, 0
5, 154960, Note_on_c, 4, 52, 99
5, 155000, Note_on_c, 4, 52, 0
5, 155000, Note_on_c, 4, 54, 94
5, 155040, Note_on_c, 4, 54, 0
5, 155040, Note_on_c, 4, 55, 101
5, 155080, Note_on_c, 4, 55, 0
5, 155080, Note_on_c, 4, 43, 101
5, 155120, Note_on_c, 4, 43, 0
5, 155120, Note_on_c, 4, 42, 86
5, 155160, Note_on_c, 4, 42, 0
5, 155160, Note_on_c, 4, 43, 95
5, 155200, Note_on_c, 4, 43, 0
5, 155200, Note_on_c, 4, 45, 90
5, 155240, Note_on_c, 4, 45, 0
5, 155240, Note_on_c, 4, 47, 94
5, 155280, Note_on_c, 4, 47, 0
5, 155280, Note_on_c, 4, 48, 94
5, 155320, Note_on_c, 4, 48, 0
5, 155320, Note_on_c, 4, 47, 94
5, 155360, Note_on_c, 4, 47, 0
5, 155360, Note_on_c, 4, 48, 90
5, 155400, Note_on_c, 4, 48, 0
5, 155400, Note_on_c, 4, 50, 89
5, 155440, Note_on_c, 4, 50, 0
5, 155440, Note_on_c, 4, 48, 95
5, 155480, Note_on_c, 4, 48, 0
5, 155480, Note_on_c, 4, 50, 104
5, 155520, Note_on_c, 4, 50, 0
5, 155520, Note_on_c, 4, 55, 99
5, 155580, Note_on_c, 4, 55, 0
5, 155640, Note_on_c, 4, 62, 48
5, 155640, Note_on_c, 4, 55, 44
5, 155700, Note_on_c, 4, 55, 0
5, 155700, Note_on_c, 4, 62, 0
5, 155760, Note_on_c, 4, 64, 50
5, 155760, Note_on_c, 4, 60, 44
5, 155820, Note_on_c, 4, 60, 0
5, 155820, Note_on_c, 4, 64, 0
5, 155880, Note_on_c, 4, 66, 46
5, 155880, Note_on_c, 4, 62, 55
5, 155940, Note_on_c, 4, 62, 0
5, 155940, Note_on_c, 4, 66, 0
5, 156000, Note_on_c, 4, 55, 62
5, 156000, Note_on_c, 4, 67, 38
5, 156060, Note_on_c, 4, 67, 0
5, 156060, Note_on_c, 4, 55, 0
5, 159600, Note_on_c, 4, 43, 90
5, 159600, Note_on_c, 4, 55, 85
5, 159720, Note_on_c, 4, 55, 0
5, 159720, Note_on_c, 4, 43, 0
5, 159780, Note_on_c, 4, 55, 74
5, 159780, Note_on_c, 4, 59, 76
5, 159810, Note_on_c, 4, 59, 0
5, 159810, Note_on_c, 4, 55, 0
5, 159810, Note_on_c, 4, 55, 85
5, 159810, Note_on_c, 4, 59, 81
5, 159840, Note_on_c, 4, 59, 0
5, 159840, Note_on_c, 4, 55, 0
5, 159840, Note_on_c, 4, 55, 82
5, 159840, Note_on_c, 4, 59, 81
5, 159960, Note_on_c, 4, 59, 0
5, 159960, Note_on_c, 4, 55, 0
5, 160260, Note_on_c, 4, 59, 72
5, 160260, Note_on_c, 4, 55, 73
5, 160290, Note_on_c, 4, 55, 0
5, 160290, Note_on_c, 4, 59, 0
5, 160290, Note_on_c, 4, 55, 82
5, 160290, Note_on_c, 4, 59, 80
5, 160320, Note_on_c, 4, 59, 0
5, 160320, Note_on_c, 4, 55, 0
5, 160320, Note_on_c, 4, 59, 80
5, 160320, Note_on_c, 4, 55, 82
5, 160440, Note_on_c, 4, 55, 0
5, 160440, Note_on_c, 4, 59, 0
5, 160500, Note_on_c, 4, 55, 80
5, 160500, Note_on_c, 4, 59, 73
5, 160530, Note_on_c, 4, 59, 0
5, 160530, Note_on_c, 4, 55, 0
5, 160530, Note_on_c, 4, 59, 84
5, 160530, Note_on_c, 4, 55, 84
5, 160560, Note_on_c, 4, 55, 0
5, 160560, Note_on_c, 4, 59, 0
5, 160560, Note_on_c, 4, 59, 84
5, 160560, Note_on_c, 4, 55, 89
5, 160620, Note_on_c, 4, 55, 0
5, 160620, Note_on_c, 4, 59, 0
5, 160800, Note_on_c, 4, 50, 98
5, 160860, Note_on_c, 4, 50, 0
5, 161040, Note_on_c, 4, 43, 90
5, 161100, Note_on_c, 4, 43, 0
5, 161100, End_track
6, 0, Start_track
6, 0, MIDI_port, 0
6, 0, Title_t, "French Horns"
6, 0, Control_c, 5, 0, 0
6, 0, Control_c, 5, 32, 0
6, 0, Program_c, 5, 60
6, 0, Control_c, 5, 7, 100
6, 0, Control_c, 5, 10, 56
6, 0, Control_c, 5, 93, 0
6, 0, Control_c, 5, 91, 66
6, 7440, Note_on_c, 5, 55, 90
6, 7440, Note_on_c, 5, 67, 89
6, 7560, Note_on_c, 5, 67, 0
6, 7560, Note_on_c, 5, 55, 0
6, 7620, Note_on_c, 5, 55, 93
6, 7620, Note_on_c, 5, 67, 82
6, 7650, Note_on_c, 5, 67, 0
6, 7650, Note_on_c, 5, 55, 0
6, 7650, Note_on_c, 5, 67, 93
6, 7650, Note_on_c, 5, 55, 90
6, 7680, Note_on_c, 5, 55, 0
6, 7680, Note_on_c, 5, 67, 0
6, 7680, Note_on_c, 5, 67, 84
6, 7680, Note_on_c, 5, 55, 95
6, 7800, Note_on_c, 5, 55, 0
6, 7800, Note_on_c, 5, 67, 0
6, 7860, Note_on_c, 5, 55, 90
6, 7860, Note_on_c, 5, 67, 80
6, 7890, Note_on_c, 5, 67, 0
6, 7890, Note_on_c, 5, 55, 0
6, 7890, Note_on_c, 5, 67, 89
6, 7890, Note_on_c, 5, 55, 94
6, 7920, Note_on_c, 5, 55, 0
6, 7920, Note_on_c, 5, 67, 0
6, 7920, Note_on_c, 5, 67, 80
6, 7920, Note_on_c, 5, 55, 95
6, 7980, Note_on_c, 5, 55, 0
6, 7980, Note_on_c, 5, 67, 0
6, 8040, Note_on_c, 5, 67, 80
6, 8040, Note_on_c, 5, 55, 94
6, 8070, Note_on_c, 5, 55, 0
6, 8070, Note_on_c, 5, 67, 0
6, 8100, Note_on_c, 5, 67, 86
6, 8100, Note_on_c, 5, 55, 90
6, 8130, Note_on_c, 5, 55, 0
6, 8130, Note_on_c, 5, 67, 0
6, 8160, Note_on_c, 5, 67, 86
6, 8160, Note_on_c, 5, 55, 98
6, 8190, Note_on_c, 5, 55, 0
6, 8190, Note_on_c, 5, 67, 0
6, 8400, Note_on_c, 5, 55, 84
6, 8400, Note_on_c, 5, 67, 76
6, 8460, Note_on_c, 5, 67, 0
6, 8460, Note_on_c, 5, 55, 0
6, 8520, Note_on_c, 5, 69, 95
6, 8580, Note_on_c, 5, 69, 0
6, 8640, Note_on_c, 5, 62, 90
6, 8640, Note_on_c, 5, 69, 89
6, 8700, Note_on_c, 5, 69, 0
6, 8700, Note_on_c, 5, 62, 0
6, 8880, Note_on_c, 5, 62, 94
6, 8880, Note_on_c, 5, 69, 89
6, 8940, Note_on_c, 5, 69, 0
6, 8940, Note_on_c, 5, 62, 0
6, 9000, Note_on_c, 5, 62, 89
6, 9000, Note_on_c, 5, 69, 82
6, 9060, Note_on_c, 5, 69, 0
6, 9060, Note_on_c, 5, 62, 0
6, 9120, Note_on_c, 5, 59, 86
6, 9120, Note_on_c, 5, 67, 70
6, 9180, Note_on_c, 5, 67, 0
6, 9180, Note_on_c, 5, 59, 0
6, 9240, Note_on_c, 5, 67, 80
6, 9240, Note_on_c, 5, 59, 98
6, 9300, Note_on_c, 5, 59, 0
6, 9300, Note_on_c, 5, 67, 0
6, 9360, Note_on_c, 5, 69, 70
6, 9360, Note_on_c, 5, 67, 73
6, 9420, Note_on_c, 5, 67, 0
6, 9420, Note_on_c, 5, 69, 0
6, 9480, Note_on_c, 5, 69, 65
6, 9480, Note_on_c, 5, 62, 84
6, 9540, Note_on_c, 5, 62, 0
6, 9540, Note_on_c, 5, 69, 0
6, 10260, Note_on_c, 5, 71, 73
6, 10260, Note_on_c, 5, 67, 68
6, 10320, Note_on_c, 5, 67, 0
6, 10320, Note_on_c, 5, 71, 0
6, 10320, Note_on_c, 5, 67, 76
6, 10320, Note_on_c, 5, 69, 82
6, 10380, Note_on_c, 5, 69, 0
6, 10380, Note_on_c, 5, 67, 0
6, 10380, Note_on_c, 5, 67, 76
6, 10380, Note_on_c, 5, 69, 82
6, 10440, Note_on_c, 5, 69, 0
6, 10440, Note_on_c, 5, 67, 0
6, 10440, Note_on_c, 5, 69, 78
6, 10440, Note_on_c, 5, 62, 84
6, 10500, Note_on_c, 5, 62, 0
6, 10500, Note_on_c, 5, 69, 0
6, 10500, Note_on_c, 5, 69, 77
6, 10500, Note_on_c, 5, 62, 89
6, 10560, Note_on_c, 5, 62, 0
6, 10560, Note_on_c, 5, 69, 0
6, 11520, Note_on_c, 5, 71, 81
6, 11520, Note_on_c, 5, 59, 94
6, 11760, Note_on_c, 5, 59, 0
6, 11760, Note_on_c, 5, 71, 0
6, 11820, Note_on_c, 5, 71, 80
6, 11820, Note_on_c, 5, 59, 89
6, 11880, Note_on_c, 5, 59, 0
6, 11880, Note_on_c, 5, 71, 0
6, 11940, Note_on_c, 5, 67, 85
6, 11940, Note_on_c, 5, 55, 89
6, 12000, Note_on_c, 5, 55, 0
6, 12000, Note_on_c, 5, 67, 0
6, 12360, Note_on_c, 5, 71, 76
6, 12360, Note_on_c, 5, 59, 84
6, 12420, Note_on_c, 5, 59, 0
6, 12420, Note_on_c, 5, 71, 0
6, 12420, Note_on_c, 5, 71, 68
6, 12420, Note_on_c, 5, 59, 82
6, 12480, Note_on_c, 5, 59, 0
6, 12480, Note_on_c, 5, 71, 0
6, 13440, Note_on_c, 5, 69, 94
6, 13500, Note_on_c, 5, 69, 0
6, 13500, Note_on_c, 5, 69, 98
6, 13560, Note_on_c, 5, 69, 0
6, 13920, Note_on_c, 5, 69, 95
6, 13980, Note_on_c, 5, 69, 0
6, 13980, Note_on_c, 5, 69, 98
6, 14040, Note_on_c, 5, 69, 0
6, 24720, Note_on_c, 5, 62, 43
6, 24720, Note_on_c, 5, 50, 41
6, 25240, Control_c, 5, 7, 100
6, 25250, Control_c, 5, 7, 101
6, 25260, Control_c, 5, 7, 102
6, 25270, Control_c, 5, 7, 104
6, 25280, Control_c, 5, 7, 105
6, 25290, Control_c, 5, 7, 106
6, 25300, Control_c, 5, 7, 108
6, 25310, Control_c, 5, 7, 109
6, 25320, Note_on_c, 5, 50, 0
6, 25320, Note_on_c, 5, 62, 0
6, 25320, Control_c, 5, 7, 110
6, 25320, Note_on_c, 5, 55, 64
6, 25320, Note_on_c, 5, 67, 53
6, 25330, Control_c, 5, 7, 112
6, 25340, Control_c, 5, 7, 113
6, 25350, Control_c, 5, 7, 114
6, 25360, Control_c, 5, 7, 116
6, 25370, Control_c, 5, 7, 117
6, 25380, Control_c, 5, 7, 118
6, 25390, Control_c, 5, 7, 120
6, 25400, Control_c, 5, 7, 121
6, 25410, Control_c, 5, 7, 122
6, 25420, Control_c, 5, 7, 124
6, 25430, Control_c, 5, 7, 125
6, 25440, Control_c, 5, 7, 127
6, 25450, Control_c, 5, 7, 126
6, 25460, Control_c, 5, 7, 125
6, 25470, Control_c, 5, 7, 124
6, 25480, Control_c, 5, 7, 123
6, 25490, Control_c, 5, 7, 122
6, 25500, Control_c, 5, 7, 121
6, 25510, Control_c, 5, 7, 120
6, 25520, Control_c, 5, 7, 118
6, 25530, Control_c, 5, 7, 117
6, 25540, Control_c, 5, 7, 116
6, 25550, Control_c, 5, 7, 115
6, 25560, Control_c, 5, 7, 114
6, 25570, Control_c, 5, 7, 113
6, 25580, Control_c, 5, 7, 112
6, 25590, Control_c, 5, 7, 111
6, 25600, Control_c, 5, 7, 109
6, 25610, Control_c, 5, 7, 108
6, 25620, Note_on_c, 5, 67, 0
6, 25620, Note_on_c, 5, 55, 0
6, 25620, Control_c, 5, 7, 107
6, 25620, Note_on_c, 5, 69, 72
6, 25630, Control_c, 5, 7, 106
6, 25640, Control_c, 5, 7, 105
6, 25650, Control_c, 5, 7, 104
6, 25660, Control_c, 5, 7, 103
6, 25670, Control_c, 5, 7, 102
6, 25680, Note_on_c, 5, 69, 0
6, 25680, Control_c, 5, 7, 100
6, 25680, Note_on_c, 5, 69, 64
6, 25740, Note_on_c, 5, 69, 0
6, 26100, Note_on_c, 5, 69, 68
6, 26160, Note_on_c, 5, 69, 0
6, 26160, Note_on_c, 5, 69, 89
6, 26160, Note_on_c, 5, 62, 94
6, 26220, Note_on_c, 5, 62, 0
6, 26220, Note_on_c, 5, 69, 0
6, 29580, Note_on_c, 5, 69, 49
6, 29580, Note_on_c, 5, 62, 38
6, 29640, Note_on_c, 5, 62, 0
6, 29640, Note_on_c, 5, 69, 0
6, 30060, Note_on_c, 5, 69, 40
6, 30120, Note_on_c, 5, 69, 0
6, 30540, Note_on_c, 5, 69, 42
6, 30540, Note_on_c, 5, 62, 38
6, 30600, Note_on_c, 5, 62, 0
6, 30600, Note_on_c, 5, 69, 0
6, 31020, Note_on_c, 5, 62, 38
6, 31080, Note_on_c, 5, 62, 0
6, 31500, Note_on_c, 5, 55, 43
6, 31500, Note_on_c, 5, 62, 43
6, 31560, Note_on_c, 5, 62, 0
6, 31560, Note_on_c, 5, 55, 0
6, 31980, Note_on_c, 5, 62, 94
6, 31980, Note_on_c, 5, 55, 101
6, 32160, Control_c, 5, 7, 99
6, 32170, Control_c, 5, 7, 98
6, 32180, Control_c, 5, 7, 96
6, 32190, Control_c, 5, 7, 95
6, 32200, Control_c, 5, 7, 93
6, 32210, Control_c, 5, 7, 92
6, 32220, Control_c, 5, 7, 90
6, 32230, Control_c, 5, 7, 89
6, 32240, Control_c, 5, 7, 87
6, 32250, Control_c, 5, 7, 86
6, 32260, Control_c, 5, 7, 84
6, 32270, Control_c, 5, 7, 83
6, 32280, Control_c, 5, 7, 81
6, 32290, Control_c, 5, 7, 79
6, 32300, Control_c, 5, 7, 78
6, 32310, Control_c, 5, 7, 76
6, 32320, Control_c, 5, 7, 75
6, 32330, Control_c, 5, 7, 73
6, 32340, Control_c, 5, 7, 72
6, 32350, Control_c, 5, 7, 70
6, 32360, Control_c, 5, 7, 69
6, 32370, Control_c, 5, 7, 67
6, 32380, Control_c, 5, 7, 66
6, 32390, Control_c, 5, 7, 64
6, 32400, Control_c, 5, 7, 62
6, 32640, Note_on_c, 5, 55, 0
6, 32640, Note_on_c, 5, 62, 0
6, 32640, Note_on_c, 5, 62, 86
6, 32640, Note_on_c, 5, 55, 94
6, 32700, Note_on_c, 5, 55, 0
6, 32700, Note_on_c, 5, 62, 0
6, 32760, Note_on_c, 5, 62, 89
6, 32760, Note_on_c, 5, 55, 105
6, 32820, Note_on_c, 5, 55, 0
6, 32820, Note_on_c, 5, 62, 0
6, 32880, Control_c, 5, 7, 100
6, 32940, Note_on_c, 5, 62, 90
6, 32940, Note_on_c, 5, 55, 98
6, 33100, Control_c, 5, 7, 99
6, 33110, Control_c, 5, 7, 98
6, 33120, Control_c, 5, 7, 96
6, 33130, Control_c, 5, 7, 95
6, 33140, Control_c, 5, 7, 93
6, 33150, Control_c, 5, 7, 91
6, 33160, Control_c, 5, 7, 90
6, 33170, Control_c, 5, 7, 88
6, 33180, Control_c, 5, 7, 87
6, 33190, Control_c, 5, 7, 85
6, 33200, Control_c, 5, 7, 83
6, 33210, Control_c, 5, 7, 82
6, 33220, Control_c, 5, 7, 80
6, 33230, Control_c, 5, 7, 79
6, 33240, Control_c, 5, 7, 77
6, 33250, Control_c, 5, 7, 75
6, 33260, Control_c, 5, 7, 74
6, 33270, Control_c, 5, 7, 72
6, 33280, Control_c, 5, 7, 71
6, 33290, Control_c, 5, 7, 69
6, 33300, Control_c, 5, 7, 67
6, 33310, Control_c, 5, 7, 66
6, 33320, Control_c, 5, 7, 64
6, 33330, Control_c, 5, 7, 62
6, 33590, Control_c, 5, 7, 62
6, 33600, Note_on_c, 5, 55, 0
6, 33600, Note_on_c, 5, 62, 0
6, 33600, Control_c, 5, 7, 71
6, 33600, Note_on_c, 5, 55, 67
6, 33600, Note_on_c, 5, 62, 65
6, 33610, Control_c, 5, 7, 80
6, 33620, Control_c, 5, 7, 89
6, 33630, Control_c, 5, 7, 99
6, 33660, Note_on_c, 5, 62, 0
6, 33660, Note_on_c, 5, 55, 0
6, 33720, Note_on_c, 5, 55, 70
6, 33720, Note_on_c, 5, 62, 65
6, 33780, Note_on_c, 5, 62, 0
6, 33780, Note_on_c, 5, 55, 0
6, 33840, Note_on_c, 5, 55, 68
6, 33840, Note_on_c, 5, 62, 61
6, 33900, Note_on_c, 5, 62, 0
6, 33900, Note_on_c, 5, 55, 0
6, 34260, Note_on_c, 5, 55, 62
6, 34260, Note_on_c, 5, 62, 50
6, 34290, Note_on_c, 5, 62, 0
6, 34290, Note_on_c, 5, 55, 0
6, 34290, Note_on_c, 5, 55, 62
6, 34290, Note_on_c, 5, 62, 68
6, 34320, Note_on_c, 5, 62, 0
6, 34320, Note_on_c, 5, 55, 0
6, 34320, Note_on_c, 5, 55, 73
6, 34320, Note_on_c, 5, 62, 61
6, 34380, Note_on_c, 5, 62, 0
6, 34380, Note_on_c, 5, 55, 0
6, 34740, Note_on_c, 5, 55, 57
6, 34740, Note_on_c, 5, 62, 50
6, 34770, Note_on_c, 5, 62, 0
6, 34770, Note_on_c, 5, 55, 0
6, 34770, Note_on_c, 5, 55, 73
6, 34770, Note_on_c, 5, 62, 70
6, 34800, Note_on_c, 5, 62, 0
6, 34800, Note_on_c, 5, 55, 0
6, 34800, Note_on_c, 5, 55, 80
6, 34800, Note_on_c, 5, 62, 68
6, 34860, Note_on_c, 5, 62, 0
6, 34860, Note_on_c, 5, 55, 0
6, 35820, Note_on_c, 5, 62, 60
6, 35820, Note_on_c, 5, 55, 68
6, 35850, Note_on_c, 5, 55, 0
6, 35850, Note_on_c, 5, 62, 0
6, 35850, Note_on_c, 5, 62, 65
6, 35850, Note_on_c, 5, 55, 59
6, 35880, Note_on_c, 5, 55, 0
6, 35880, Note_on_c, 5, 62, 0
6, 35880, Note_on_c, 5, 62, 64
6, 35880, Note_on_c, 5, 55, 62
6, 35940, Note_on_c, 5, 55, 0
6, 35940, Note_on_c, 5, 62, 0
6, 36300, Note_on_c, 5, 55, 68
6, 36300, Note_on_c, 5, 62, 53
6, 36330, Note_on_c, 5, 62, 0
6, 36330, Note_on_c, 5, 55, 0
6, 36330, Note_on_c, 5, 62, 63
6, 36330, Note_on_c, 5, 55, 70
6, 36360, Note_on_c, 5, 55, 0
6, 36360, Note_on_c, 5, 62, 0
6, 36360, Note_on_c, 5, 62, 53
6, 36360, Note_on_c, 5, 55, 61
6, 36420, Note_on_c, 5, 55, 0
6, 36420, Note_on_c, 5, 62, 0
6, 48000, Note_on_c, 5, 55, 90
6, 48000, Note_on_c, 5, 67, 89
6, 48120, Note_on_c, 5, 67, 0
6, 48120, Note_on_c, 5, 55, 0
6, 48180, Note_on_c, 5, 55, 93
6, 48180, Note_on_c, 5, 67, 82
6, 48210, Note_on_c, 5, 67, 0
6, 48210, Note_on_c, 5, 55, 0
6, 48210, Note_on_c, 5, 67, 93
6, 48210, Note_on_c, 5, 55, 90
6, 48240, Note_on_c, 5, 55, 0
6, 48240, Note_on_c, 5, 67, 0
6, 48240, Note_on_c, 5, 67, 84
6, 48240, Note_on_c, 5, 55, 95
6, 48360, Note_on_c, 5, 55, 0
6, 48360, Note_on_c, 5, 67, 0
6, 48420, Note_on_c, 5, 55, 90
6, 48420, Note_on_c, 5, 67, 80
6, 48450, Note_on_c, 5, 67, 0
6, 48450, Note_on_c, 5, 55, 0
6, 48450, Note_on_c, 5, 67, 89
6, 48450, Note_on_c, 5, 55, 94
6, 48480, Note_on_c, 5, 55, 0
6, 48480, Note_on_c, 5, 67, 0
6, 48480, Note_on_c, 5, 67, 80
6, 48480, Note_on_c, 5, 55, 95
6, 48540, Note_on_c, 5, 55, 0
6, 48540, Note_on_c, 5, 67, 0
6, 48600, Note_on_c, 5, 67, 80
6, 48600, Note_on_c, 5, 55, 94
6, 48630, Note_on_c, 5, 55, 0
6, 48630, Note_on_c, 5, 67, 0
6, 48660, Note_on_c, 5, 67, 86
6, 48660, Note_on_c, 5, 55, 90
6, 48690, Note_on_c, 5, 55, 0
6, 48690, Note_on_c, 5, 67, 0
6, 48720, Note_on_c, 5, 67, 86
6, 48720, Note_on_c, 5, 55, 98
6, 48750, Note_on_c, 5, 55, 0
6, 48750, Note_on_c, 5, 67, 0
6, 48960, Note_on_c, 5, 55, 84
6, 48960, Note_on_c, 5, 67, 76
6, 49020, Note_on_c, 5, 67, 0
6, 49020, Note_on_c, 5, 55, 0
6, 49080, Note_on_c, 5, 69, 95
6, 49140, Note_on_c, 5, 69, 0
6, 49200, Note_on_c, 5, 62, 90
6, 49200, Note_on_c, 5, 69, 89
6, 49260, Note_on_c, 5, 69, 0
6, 49260, Note_on_c, 5, 62, 0
6, 49440, Note_on_c, 5, 62, 94
6, 49440, Note_on_c, 5, 69, 89
6, 49500, Note_on_c, 5, 69, 0
6, 49500, Note_on_c, 5, 62, 0
6, 49560, Note_on_c, 5, 62, 89
6, 49560, Note_on_c, 5, 69, 82
6, 49620, Note_on_c, 5, 69, 0
6, 49620, Note_on_c, 5, 62, 0
6, 49680, Note_on_c, 5, 59, 86
6, 49680, Note_on_c, 5, 67, 70
6, 49740, Note_on_c, 5, 67, 0
6, 49740, Note_on_c, 5, 59, 0
6, 49800, Note_on_c, 5, 67, 80
6, 49800, Note_on_c, 5, 59, 98
6, 49860, Note_on_c, 5, 59, 0
6, 49860, Note_on_c, 5, 67, 0
6, 49920, Note_on_c, 5, 69, 70
6, 49920, Note_on_c, 5, 67, 73
6, 49980, Note_on_c, 5, 67, 0
6, 49980, Note_on_c, 5, 69, 0
6, 50040, Note_on_c, 5, 69, 65
6, 50040, Note_on_c, 5, 62, 84
6, 50100, Note_on_c, 5, 62, 0
6, 50100, Note_on_c, 5, 69, 0
6, 50820, Note_on_c, 5, 71, 73
6, 50820, Note_on_c, 5, 67, 68
6, 50880, Note_on_c, 5, 67, 0
6, 50880, Note_on_c, 5, 71, 0
6, 50880, Note_on_c, 5, 67, 76
6, 50880, Note_on_c, 5, 69, 82
6, 50940, Note_on_c, 5, 69, 0
6, 50940, Note_on_c, 5, 67, 0
6, 50940, Note_on_c, 5, 67, 76
6, 50940, Note_on_c, 5, 69, 82
6, 51000, Note_on_c, 5, 69, 0
6, 51000, Note_on_c, 5, 67, 0
6, 51000, Note_on_c, 5, 69, 78
6, 51000, Note_on_c, 5, 62, 84
6, 51060, Note_on_c, 5, 62, 0
6, 51060, Note_on_c, 5, 69, 0
6, 51060, Note_on_c, 5, 69, 77
6, 51060, Note_on_c, 5, 62, 89
6, 51120, Note_on_c, 5, 62, 0
6, 51120, Note_on_c, 5, 69, 0
6, 52080, Note_on_c, 5, 55, 89
6, 52080, Note_on_c, 5, 67, 81
6, 52320, Note_on_c, 5, 67, 0
6, 52320, Note_on_c, 5, 55, 0
6, 52440, Note_on_c, 5, 67, 80
6, 52440, Note_on_c, 5, 55, 89
6, 52500, Note_on_c, 5, 55, 0
6, 52500, Note_on_c, 5, 67, 0
6, 52680, Note_on_c, 5, 55, 90
6, 52680, Note_on_c, 5, 67, 82
6, 52740, Note_on_c, 5, 67, 0
6, 52740, Note_on_c, 5, 55, 0
6, 68340, Note_on_c, 5, 55, 54
6, 68340, Note_on_c, 5, 67, 45
6, 68400, Note_on_c, 5, 67, 0
6, 68400, Note_on_c, 5, 55, 0
6, 68400, Note_on_c, 5, 62, 80
6, 68400, Note_on_c, 5, 50, 94
6, 68460, Note_on_c, 5, 50, 0
6, 68460, Note_on_c, 5, 62, 0
6, 69300, Note_on_c, 5, 55, 55
6, 69300, Note_on_c, 5, 67, 45
6, 69360, Note_on_c, 5, 67, 0
6, 69360, Note_on_c, 5, 55, 0
6, 69360, Note_on_c, 5, 50, 95
6, 69360, Note_on_c, 5, 62, 80
6, 69420, Note_on_c, 5, 62, 0
6, 69420, Note_on_c, 5, 50, 0
6, 79200, Note_on_c, 5, 62, 41
6, 79200, Note_on_c, 5, 50, 43
6, 79680, Note_on_c, 5, 50, 0
6, 79680, Note_on_c, 5, 62, 0
6, 79680, Note_on_c, 5, 55, 41
6, 79680, Note_on_c, 5, 43, 47
6, 80160, Control_c, 5, 7, 100
6, 80170, Control_c, 5, 7, 101
6, 80180, Control_c, 5, 7, 102
6, 80190, Control_c, 5, 7, 103
6, 80200, Control_c, 5, 7, 104
6, 80210, Control_c, 5, 7, 105
6, 80220, Control_c, 5, 7, 106
6, 80230, Control_c, 5, 7, 107
6, 80240, Control_c, 5, 7, 108
6, 80250, Control_c, 5, 7, 109
6, 80260, Control_c, 5, 7, 110
6, 80270, Control_c, 5, 7, 111
6, 80280, Control_c, 5, 7, 112
6, 80285, Control_c, 5, 7, 113
6, 80295, Control_c, 5, 7, 114
6, 80305, Control_c, 5, 7, 115
6, 80315, Control_c, 5, 7, 116
6, 80325, Control_c, 5, 7, 117
6, 80335, Control_c, 5, 7, 118
6, 80345, Control_c, 5, 7, 119
6, 80355, Control_c, 5, 7, 120
6, 80365, Control_c, 5, 7, 121
6, 80375, Control_c, 5, 7, 122
6, 80385, Control_c, 5, 7, 123
6, 80395, Control_c, 5, 7, 124
6, 80400, Note_on_c, 5, 43, 0
6, 80400, Note_on_c, 5, 55, 0
6, 80400, Control_c, 5, 7, 125
6, 80400, Note_on_c, 5, 50, 94
6, 80400, Note_on_c, 5, 62, 84
6, 80405, Control_c, 5, 7, 124
6, 80410, Control_c, 5, 7, 123
6, 80415, Control_c, 5, 7, 122
6, 80420, Control_c, 5, 7, 121
6, 80425, Control_c, 5, 7, 119
6, 80430, Control_c, 5, 7, 118
6, 80435, Control_c, 5, 7, 117
6, 80440, Control_c, 5, 7, 116
6, 80445, Control_c, 5, 7, 114
6, 80450, Control_c, 5, 7, 113
6, 80455, Control_c, 5, 7, 112
6, 80460, Control_c, 5, 7, 111
6, 80465, Control_c, 5, 7, 110
6, 80470, Control_c, 5, 7, 108
6, 80475, Control_c, 5, 7, 107
6, 80480, Control_c, 5, 7, 106
6, 80485, Control_c, 5, 7, 105
6, 80490, Control_c, 5, 7, 103
6, 80495, Control_c, 5, 7, 102
6, 80500, Control_c, 5, 7, 101
6, 80505, Control_c, 5, 7, 100
6, 80510, Control_c, 5, 7, 99
6, 80515, Control_c, 5, 7, 97
6, 80520, Control_c, 5, 7, 96
6, 80525, Control_c, 5, 7, 95
6, 80530, Control_c, 5, 7, 94
6, 80535, Control_c, 5, 7, 92
6, 80540, Control_c, 5, 7, 91
6, 80545, Control_c, 5, 7, 90
6, 80550, Control_c, 5, 7, 89
6, 80555, Control_c, 5, 7, 88
6, 80560, Control_c, 5, 7, 86
6, 80565, Control_c, 5, 7, 85
6, 80570, Control_c, 5, 7, 84
6, 80575, Control_c, 5, 7, 83
6, 80580, Control_c, 5, 7, 81
6, 80585, Control_c, 5, 7, 80
6, 80590, Control_c, 5, 7, 79
6, 80595, Control_c, 5, 7, 78
6, 80600, Control_c, 5, 7, 77
6, 80605, Control_c, 5, 7, 75
6, 80610, Control_c, 5, 7, 74
6, 80615, Control_c, 5, 7, 73
6, 80620, Control_c, 5, 7, 72
6, 80625, Control_c, 5, 7, 70
6, 80630, Control_c, 5, 7, 69
6, 80635, Control_c, 5, 7, 68
6, 80640, Control_c, 5, 7, 67
6, 80645, Control_c, 5, 7, 65
6, 81120, Note_on_c, 5, 62, 0
6, 81120, Note_on_c, 5, 50, 0
6, 81120, Control_c, 5, 7, 100
6, 81120, Note_on_c, 5, 62, 74
6, 81120, Note_on_c, 5, 55, 85
6, 81150, Note_on_c, 5, 55, 0
6, 81150, Note_on_c, 5, 62, 0
6, 81180, Note_on_c, 5, 71, 94
6, 81180, Note_on_c, 5, 67, 90
6, 81210, Note_on_c, 5, 67, 0
6, 81210, Note_on_c, 5, 71, 0
6, 81660, Note_on_c, 5, 69, 94
6, 81660, Note_on_c, 5, 62, 98
6, 81720, Note_on_c, 5, 62, 0
6, 81720, Note_on_c, 5, 69, 0
6, 82140, Note_on_c, 5, 59, 98
6, 82140, Note_on_c, 5, 67, 77
6, 82200, Note_on_c, 5, 67, 0
6, 82200, Note_on_c, 5, 59, 0
6, 82620, Note_on_c, 5, 69, 89
6, 82620, Note_on_c, 5, 62, 99
6, 82680, Note_on_c, 5, 62, 0
6, 82680, Note_on_c, 5, 69, 0
6, 83100, Note_on_c, 5, 59, 101
6, 83100, Note_on_c, 5, 67, 89
6, 83160, Note_on_c, 5, 67, 0
6, 83160, Note_on_c, 5, 59, 0
6, 83340, Note_on_c, 5, 71, 76
6, 83340, Note_on_c, 5, 59, 98
6, 83400, Note_on_c, 5, 59, 0
6, 83400, Note_on_c, 5, 71, 0
6, 84540, Note_on_c, 5, 67, 43
6, 84540, Note_on_c, 5, 71, 57
6, 84600, Note_on_c, 5, 71, 0
6, 84600, Note_on_c, 5, 67, 0
6, 85020, Note_on_c, 5, 69, 38
6, 85020, Note_on_c, 5, 62, 29
6, 85080, Note_on_c, 5, 62, 0
6, 85080, Note_on_c, 5, 69, 0
6, 85500, Note_on_c, 5, 67, 34
6, 85500, Note_on_c, 5, 59, 33
6, 85560, Note_on_c, 5, 59, 0
6, 85560, Note_on_c, 5, 67, 0
6, 85980, Note_on_c, 5, 67, 33
6, 85980, Note_on_c, 5, 55, 31
6, 86040, Note_on_c, 5, 55, 0
6, 86040, Note_on_c, 5, 67, 0
6, 96240, Note_on_c, 5, 69, 105
6, 96360, Note_on_c, 5, 69, 0
6, 96420, Note_on_c, 5, 69, 95
6, 96450, Note_on_c, 5, 69, 0
6, 96450, Note_on_c, 5, 69, 99
6, 96480, Note_on_c, 5, 69, 0
6, 96480, Note_on_c, 5, 69, 101
6, 96600, Note_on_c, 5, 69, 0
6, 96660, Note_on_c, 5, 69, 104
6, 96690, Note_on_c, 5, 69, 0
6, 96690, Note_on_c, 5, 69, 104
6, 96720, Note_on_c, 5, 69, 0
6, 96720, Note_on_c, 5, 69, 104
6, 96780, Note_on_c, 5, 69, 0
6, 96840, Note_on_c, 5, 69, 99
6, 96870, Note_on_c, 5, 69, 0
6, 96900, Note_on_c, 5, 69, 104
6, 96930, Note_on_c, 5, 69, 0
6, 97200, Note_on_c, 5, 69, 125
6, 97320, Note_on_c, 5, 69, 0
6, 97380, Note_on_c, 5, 69, 104
6, 97410, Note_on_c, 5, 69, 0
6, 97410, Note_on_c, 5, 69, 104
6, 97440, Note_on_c, 5, 69, 0
6, 97440, Note_on_c, 5, 69, 101
6, 97560, Note_on_c, 5, 69, 0
6, 97620, Note_on_c, 5, 69, 99
6, 97650, Note_on_c, 5, 69, 0
6, 97650, Note_on_c, 5, 69, 99
6, 97680, Note_on_c, 5, 69, 0
6, 97680, Note_on_c, 5, 69, 104
6, 97740, Note_on_c, 5, 69, 0
6, 97800, Note_on_c, 5, 69, 104
6, 97830, Note_on_c, 5, 69, 0
6, 97860, Note_on_c, 5, 69, 105
6, 97890, Note_on_c, 5, 69, 0
6, 97920, Note_on_c, 5, 69, 119
6, 98040, Note_on_c, 5, 69, 0
6, 98040, Note_on_c, 5, 69, 104
6, 98070, Note_on_c, 5, 69, 0
6, 98100, Note_on_c, 5, 69, 99
6, 98130, Note_on_c, 5, 69, 0
6, 98160, Note_on_c, 5, 69, 123
6, 98280, Note_on_c, 5, 69, 0
6, 98280, Note_on_c, 5, 69, 104
6, 98310, Note_on_c, 5, 69, 0
6, 98340, Note_on_c, 5, 69, 99
6, 98370, Note_on_c, 5, 69, 0
6, 98400, Note_on_c, 5, 69, 125
6, 98520, Note_on_c, 5, 69, 0
6, 98520, Note_on_c, 5, 69, 99
6, 98550, Note_on_c, 5, 69, 0
6, 98580, Note_on_c, 5, 69, 101
6, 98610, Note_on_c, 5, 69, 0
6, 98640, Note_on_c, 5, 62, 89
6, 98640, Note_on_c, 5, 55, 94
6, 98700, Note_on_c, 5, 55, 0
6, 98700, Note_on_c, 5, 62, 0
6, 106260, Note_on_c, 5, 55, 95
6, 106260, Note_on_c, 5, 67, 90
6, 106290, Note_on_c, 5, 67, 0
6, 106290, Note_on_c, 5, 55, 0
6, 106290, Note_on_c, 5, 55, 104
6, 106290, Note_on_c, 5, 67, 85
6, 106320, Note_on_c, 5, 67, 0
6, 106320, Note_on_c, 5, 55, 0
6, 106320, Note_on_c, 5, 55, 99
6, 106320, Note_on_c, 5, 67, 89
6, 106440, Note_on_c, 5, 67, 0
6, 106440, Note_on_c, 5, 55, 0
6, 106500, Note_on_c, 5, 55, 93
6, 106500, Note_on_c, 5, 67, 80
6, 106530, Note_on_c, 5, 67, 0
6, 106530, Note_on_c, 5, 55, 0
6, 106530, Note_on_c, 5, 55, 99
6, 106530, Note_on_c, 5, 67, 86
6, 106560, Note_on_c, 5, 67, 0
6, 106560, Note_on_c, 5, 55, 0
6, 106560, Note_on_c, 5, 55, 104
6, 106560, Note_on_c, 5, 67, 93
6, 106680, Note_on_c, 5, 67, 0
6, 106680, Note_on_c, 5, 55, 0
6, 106740, Note_on_c, 5, 55, 94
6, 106740, Note_on_c, 5, 67, 80
6, 106770, Note_on_c, 5, 67, 0
6, 106770, Note_on_c, 5, 55, 0
6, 106770, Note_on_c, 5, 67, 89
6, 106770, Note_on_c, 5, 55, 99
6, 106800, Note_on_c, 5, 55, 0
6, 106800, Note_on_c, 5, 67, 0
6, 106800, Note_on_c, 5, 67, 89
6, 106800, Note_on_c, 5, 55, 99
6, 106860, Note_on_c, 5, 55, 0
6, 106860, Note_on_c, 5, 67, 0
6, 106860, Note_on_c, 5, 55, 99
6, 106860, Note_on_c, 5, 67, 84
6, 106890, Note_on_c, 5, 67, 0
6, 106890, Note_on_c, 5, 55, 0
6, 106890, Note_on_c, 5, 55, 98
6, 106890, Note_on_c, 5, 67, 84
6, 106920, Note_on_c, 5, 67, 0
6, 106920, Note_on_c, 5, 55, 0
6, 106920, Note_on_c, 5, 55, 99
6, 106920, Note_on_c, 5, 67, 85
6, 106980, Note_on_c, 5, 67, 0
6, 106980, Note_on_c, 5, 55, 0
6, 106980, Note_on_c, 5, 67, 81
6, 106980, Note_on_c, 5, 55, 98
6, 107010, Note_on_c, 5, 55, 0
6, 107010, Note_on_c, 5, 67, 0
6, 107010, Note_on_c, 5, 67, 89
6, 107010, Note_on_c, 5, 55, 99
6, 107040, Note_on_c, 5, 55, 0
6, 107040, Note_on_c, 5, 67, 0
6, 107040, Note_on_c, 5, 67, 85
6, 107040, Note_on_c, 5, 55, 98
6, 107100, Note_on_c, 5, 55, 0
6, 107100, Note_on_c, 5, 67, 0
6, 107220, Note_on_c, 5, 67, 86
6, 107220, Note_on_c, 5, 55, 98
6, 107250, Note_on_c, 5, 55, 0
6, 107250, Note_on_c, 5, 67, 0
6, 107250, Note_on_c, 5, 55, 99
6, 107250, Note_on_c, 5, 67, 85
6, 107280, Note_on_c, 5, 67, 0
6, 107280, Note_on_c, 5, 55, 0
6, 107280, Note_on_c, 5, 55, 101
6, 107280, Note_on_c, 5, 67, 89
6, 107340, Note_on_c, 5, 67, 0
6, 107340, Note_on_c, 5, 55, 0
6, 107340, Note_on_c, 5, 69, 90
6, 107340, Note_on_c, 5, 67, 89
6, 107370, Note_on_c, 5, 67, 0
6, 107370, Note_on_c, 5, 69, 0
6, 107370, Note_on_c, 5, 69, 93
6, 107370, Note_on_c, 5, 67, 90
6, 107400, Note_on_c, 5, 67, 0
6, 107400, Note_on_c, 5, 69, 0
6, 107400, Note_on_c, 5, 69, 86
6, 107400, Note_on_c, 5, 67, 95
6, 107460, Note_on_c, 5, 67, 0
6, 107460, Note_on_c, 5, 69, 0
6, 107460, Note_on_c, 5, 69, 89
6, 107460, Note_on_c, 5, 62, 101
6, 107490, Note_on_c, 5, 62, 0
6, 107490, Note_on_c, 5, 69, 0
6, 107490, Note_on_c, 5, 62, 101
6, 107490, Note_on_c, 5, 69, 95
6, 107520, Note_on_c, 5, 69, 0
6, 107520, Note_on_c, 5, 62, 0
6, 107520, Note_on_c, 5, 69, 86
6, 107520, Note_on_c, 5, 62, 99
6, 107580, Note_on_c, 5, 62, 0
6, 107580, Note_on_c, 5, 69, 0
6, 107700, Note_on_c, 5, 50, 105
6, 107700, Note_on_c, 5, 62, 95
6, 107730, Note_on_c, 5, 62, 0
6, 107730, Note_on_c, 5, 50, 0
6, 107730, Note_on_c, 5, 50, 107
6, 107730, Note_on_c, 5, 62, 94
6, 107760, Note_on_c, 5, 62, 0
6, 107760, Note_on_c, 5, 50, 0
6, 107760, Note_on_c, 5, 50, 105
6, 107760, Note_on_c, 5, 62, 94
6, 107820, Note_on_c, 5, 62, 0
6, 107820, Note_on_c, 5, 50, 0
6, 107880, Note_on_c, 5, 69, 89
6, 107880, Note_on_c, 5, 62, 93
6, 107940, Note_on_c, 5, 62, 0
6, 107940, Note_on_c, 5, 69, 0
6, 108000, Note_on_c, 5, 67, 86
6, 108000, Note_on_c, 5, 71, 84
6, 108060, Note_on_c, 5, 71, 0
6, 108060, Note_on_c, 5, 67, 0
6, 108120, Note_on_c, 5, 55, 98
6, 108120, Note_on_c, 5, 67, 84
6, 108180, Note_on_c, 5, 67, 0
6, 108180, Note_on_c, 5, 55, 0
6, 108240, Note_on_c, 5, 69, 84
6, 108240, Note_on_c, 5, 67, 85
6, 108300, Note_on_c, 5, 67, 0
6, 108300, Note_on_c, 5, 69, 0
6, 108360, Note_on_c, 5, 69, 89
6, 108360, Note_on_c, 5, 62, 95
6, 108420, Note_on_c, 5, 62, 0
6, 108420, Note_on_c, 5, 69, 0
6, 108420, Note_on_c, 5, 69, 93
6, 108420, Note_on_c, 5, 62, 99
6, 108480, Note_on_c, 5, 62, 0
6, 108480, Note_on_c, 5, 69, 0
6, 109140, Note_on_c, 5, 71, 73
6, 109140, Note_on_c, 5, 67, 80
6, 109200, Note_on_c, 5, 67, 0
6, 109200, Note_on_c, 5, 71, 0
6, 109200, Note_on_c, 5, 69, 78
6, 109200, Note_on_c, 5, 67, 73
6, 109260, Note_on_c, 5, 67, 0
6, 109260, Note_on_c, 5, 69, 0
6, 109260, Note_on_c, 5, 67, 76
6, 109260, Note_on_c, 5, 69, 76
6, 109320, Note_on_c, 5, 69, 0
6, 109320, Note_on_c, 5, 67, 0
6, 109320, Note_on_c, 5, 69, 73
6, 109320, Note_on_c, 5, 62, 77
6, 109380, Note_on_c, 5, 62, 0
6, 109380, Note_on_c, 5, 69, 0
6, 109380, Note_on_c, 5, 69, 74
6, 109380, Note_on_c, 5, 62, 73
6, 109440, Note_on_c, 5, 62, 0
6, 109440, Note_on_c, 5, 69, 0
6, 111120, Note_on_c, 5, 69, 64
6, 111180, Note_on_c, 5, 69, 0
6, 111240, Note_on_c, 5, 62, 64
6, 111300, Note_on_c, 5, 62, 0
6, 111360, Note_on_c, 5, 59, 95
6, 111600, Note_on_c, 5, 59, 0
6, 120960, Note_on_c, 5, 62, 82
6, 120960, Note_on_c, 5, 50, 86
6, 121920, Note_on_c, 5, 50, 0
6, 121920, Note_on_c, 5, 62, 0
6, 121920, Note_on_c, 5, 55, 77
6, 121920, Note_on_c, 5, 67, 58
6, 121980, Note_on_c, 5, 67, 0
6, 121980, Note_on_c, 5, 55, 0
6, 122880, Note_on_c, 5, 55, 85
6, 122880, Note_on_c, 5, 67, 72
6, 122940, Note_on_c, 5, 67, 0
6, 122940, Note_on_c, 5, 55, 0
6, 122940, Note_on_c, 5, 55, 82
6, 122940, Note_on_c, 5, 67, 76
6, 123000, Note_on_c, 5, 67, 0
6, 123000, Note_on_c, 5, 55, 0
6, 123000, Note_on_c, 5, 55, 80
6, 123000, Note_on_c, 5, 67, 76
6, 123060, Note_on_c, 5, 67, 0
6, 123060, Note_on_c, 5, 55, 0
6, 123060, Note_on_c, 5, 55, 94
6, 123060, Note_on_c, 5, 67, 84
6, 123120, Note_on_c, 5, 67, 0
6, 123120, Note_on_c, 5, 55, 0
6, 123120, Note_on_c, 5, 55, 93
6, 123120, Note_on_c, 5, 67, 80
6, 123180, Note_on_c, 5, 67, 0
6, 123180, Note_on_c, 5, 55, 0
6, 123180, Note_on_c, 5, 55, 89
6, 123180, Note_on_c, 5, 67, 81
6, 123240, Note_on_c, 5, 67, 0
6, 123240, Note_on_c, 5, 55, 0
6, 123240, Note_on_c, 5, 55, 94
6, 123240, Note_on_c, 5, 67, 84
6, 123300, Note_on_c, 5, 67, 0
6, 123300, Note_on_c, 5, 55, 0
6, 123300, Note_on_c, 5, 55, 94
6, 123300, Note_on_c, 5, 67, 81
6, 123360, Note_on_c, 5, 67, 0
6, 123360, Note_on_c, 5, 55, 0
6, 123360, Note_on_c, 5, 55, 101
6, 123360, Note_on_c, 5, 67, 98
6, 123420, Note_on_c, 5, 67, 0
6, 123420, Note_on_c, 5, 55, 0
6, 123480, Note_on_c, 5, 67, 105
6, 123480, Note_on_c, 5, 55, 107
6, 123540, Note_on_c, 5, 55, 0
6, 123540, Note_on_c, 5, 67, 0
6, 123600, Note_on_c, 5, 67, 99
6, 123600, Note_on_c, 5, 55, 105
6, 123660, Note_on_c, 5, 55, 0
6, 123660, Note_on_c, 5, 67, 0
6, 123720, Note_on_c, 5, 67, 101
6, 123720, Note_on_c, 5, 55, 107
6, 123780, Note_on_c, 5, 55, 0
6, 123780, Note_on_c, 5, 67, 0
6, 123840, Note_on_c, 5, 50, 105
6, 123840, Note_on_c, 5, 62, 98
6, 124080, Note_on_c, 5, 62, 0
6, 124080, Note_on_c, 5, 50, 0
6, 138480, Note_on_c, 5, 69, 57
6, 138540, Note_on_c, 5, 69, 0
6, 138720, Note_on_c, 5, 62, 62
6, 138780, Note_on_c, 5, 62, 0
6, 138960, Note_on_c, 5, 59, 104
6, 139030, Control_c, 5, 7, 99
6, 139040, Control_c, 5, 7, 98
6, 139045, Control_c, 5, 7, 97
6, 139050, Control_c, 5, 7, 96
6, 139055, Control_c, 5, 7, 95
6, 139060, Control_c, 5, 7, 94
6, 139065, Control_c, 5, 7, 93
6, 139070, Control_c, 5, 7, 92
6, 139075, Control_c, 5, 7, 91
6, 139080, Control_c, 5, 7, 90
6, 139085, Control_c, 5, 7, 89
6, 139095, Control_c, 5, 7, 88
6, 139100, Control_c, 5, 7, 87
6, 139105, Control_c, 5, 7, 86
6, 139110, Control_c, 5, 7, 85
6, 139115, Control_c, 5, 7, 84
6, 139120, Control_c, 5, 7, 83
6, 139125, Control_c, 5, 7, 82
6, 139130, Control_c, 5, 7, 81
6, 139135, Control_c, 5, 7, 80
6, 139140, Control_c, 5, 7, 79
6, 139150, Control_c, 5, 7, 78
6, 139155, Control_c, 5, 7, 77
6, 139160, Control_c, 5, 7, 76
6, 139165, Control_c, 5, 7, 75
6, 139170, Control_c, 5, 7, 74
6, 139175, Control_c, 5, 7, 73
6, 139180, Control_c, 5, 7, 72
6, 139185, Control_c, 5, 7, 71
6, 139190, Control_c, 5, 7, 70
6, 139195, Control_c, 5, 7, 69
6, 139680, Note_on_c, 5, 59, 0
6, 139795, Control_c, 5, 7, 100
6, 140040, Note_on_c, 5, 62, 62
6, 140100, Note_on_c, 5, 62, 0
6, 140280, Note_on_c, 5, 62, 55
6, 140340, Note_on_c, 5, 62, 0
6, 141840, Note_on_c, 5, 43, 43
6, 141840, Note_on_c, 5, 55, 40
6, 144240, Note_on_c, 5, 55, 0
6, 144240, Note_on_c, 5, 43, 0
6, 144480, Note_on_c, 5, 43, 42
6, 144480, Note_on_c, 5, 55, 40
6, 144720, Note_on_c, 5, 55, 0
6, 144720, Note_on_c, 5, 43, 0
6, 144960, Note_on_c, 5, 43, 45
6, 144960, Note_on_c, 5, 55, 42
6, 145200, Note_on_c, 5, 55, 0
6, 145200, Note_on_c, 5, 43, 0
6, 145440, Note_on_c, 5, 55, 44
6, 145440, Note_on_c, 5, 43, 44
6, 145680, Note_on_c, 5, 43, 0
6, 145680, Note_on_c, 5, 55, 0
6, 145920, Note_on_c, 5, 43, 43
6, 145920, Note_on_c, 5, 55, 43
6, 146160, Note_on_c, 5, 55, 0
6, 146160, Note_on_c, 5, 43, 0
6, 146400, Note_on_c, 5, 43, 45
6, 146400, Note_on_c, 5, 55, 43
6, 146640, Note_on_c, 5, 55, 0
6, 146640, Note_on_c, 5, 43, 0
6, 146880, Note_on_c, 5, 55, 46
6, 146880, Note_on_c, 5, 43, 44
6, 147120, Note_on_c, 5, 43, 0
6, 147120, Note_on_c, 5, 55, 0
6, 147360, Note_on_c, 5, 55, 44
6, 147360, Note_on_c, 5, 43, 53
6, 147600, Note_on_c, 5, 43, 0
6, 147600, Note_on_c, 5, 55, 0
6, 147840, Note_on_c, 5, 55, 41
6, 147840, Note_on_c, 5, 43, 43
6, 148200, Note_on_c, 5, 43, 0
6, 148200, Note_on_c, 5, 55, 0
6, 151920, Note_on_c, 5, 50, 43
6, 151920, Note_on_c, 5, 62, 35
6, 151980, Note_on_c, 5, 62, 0
6, 151980, Note_on_c, 5, 50, 0
6, 151980, Note_on_c, 5, 62, 38
6, 151980, Note_on_c, 5, 50, 43
6, 152040, Note_on_c, 5, 50, 0
6, 152040, Note_on_c, 5, 62, 0
6, 152040, Note_on_c, 5, 62, 45
6, 152040, Note_on_c, 5, 50, 43
6, 152100, Note_on_c, 5, 50, 0
6, 152100, Note_on_c, 5, 62, 0
6, 152100, Note_on_c, 5, 62, 66
6, 152100, Note_on_c, 5, 50, 71
6, 152160, Note_on_c, 5, 50, 0
6, 152160, Note_on_c, 5, 62, 0
6, 152160, Note_on_c, 5, 62, 66
6, 152160, Note_on_c, 5, 50, 69
6, 152220, Note_on_c, 5, 50, 0
6, 152220, Note_on_c, 5, 62, 0
6, 152220, Note_on_c, 5, 50, 61
6, 152220, Note_on_c, 5, 62, 68
6, 152280, Note_on_c, 5, 62, 0
6, 152280, Note_on_c, 5, 50, 0
6, 152280, Note_on_c, 5, 50, 85
6, 152280, Note_on_c, 5, 62, 76
6, 152340, Note_on_c, 5, 62, 0
6, 152340, Note_on_c, 5, 50, 0
6, 152340, Note_on_c, 5, 50, 72
6, 152340, Note_on_c, 5, 62, 64
6, 152400, Note_on_c, 5, 62, 0
6, 152400, Note_on_c, 5, 50, 0
6, 152400, Note_on_c, 5, 55, 82
6, 152400, Note_on_c, 5, 67, 70
6, 152520, Note_on_c, 5, 67, 0
6, 152520, Note_on_c, 5, 55, 0
6, 152520, Note_on_c, 5, 55, 76
6, 152520, Note_on_c, 5, 62, 86
6, 152640, Note_on_c, 5, 62, 0
6, 152640, Note_on_c, 5, 55, 0
6, 152760, Note_on_c, 5, 55, 78
6, 152760, Note_on_c, 5, 62, 85
6, 152880, Note_on_c, 5, 62, 0
6, 152880, Note_on_c, 5, 55, 0
6, 153000, Note_on_c, 5, 55, 80
6, 153000, Note_on_c, 5, 62, 84
6, 153120, Note_on_c, 5, 62, 0
6, 153120, Note_on_c, 5, 55, 0
6, 153240, Note_on_c, 5, 55, 80
6, 153240, Note_on_c, 5, 62, 90
6, 153360, Note_on_c, 5, 62, 0
6, 153360, Note_on_c, 5, 55, 0
6, 153360, Note_on_c, 5, 67, 95
6, 153480, Note_on_c, 5, 67, 0
6, 153540, Note_on_c, 5, 67, 95
6, 153570, Note_on_c, 5, 67, 0
6, 153570, Note_on_c, 5, 67, 98
6, 153600, Note_on_c, 5, 67, 0
6, 153600, Note_on_c, 5, 67, 99
6, 153720, Note_on_c, 5, 67, 0
6, 153780, Note_on_c, 5, 67, 86
6, 153810, Note_on_c, 5, 67, 0
6, 153810, Note_on_c, 5, 67, 95
6, 153840, Note_on_c, 5, 67, 0
6, 153840, Note_on_c, 5, 67, 94
6, 153900, Note_on_c, 5, 67, 0
6, 153960, Note_on_c, 5, 67, 94
6, 153990, Note_on_c, 5, 67, 0
6, 154020, Note_on_c, 5, 67, 93
6, 154050, Note_on_c, 5, 67, 0
6, 154080, Note_on_c, 5, 67, 89
6, 154140, Note_on_c, 5, 67, 0
6, 154320, Note_on_c, 5, 69, 99
6, 154380, Note_on_c, 5, 69, 0
6, 154440, Note_on_c, 5, 69, 101
6, 154500, Note_on_c, 5, 69, 0
6, 154560, Note_on_c, 5, 69, 94
6, 154560, Note_on_c, 5, 62, 99
6, 154620, Note_on_c, 5, 62, 0
6, 154620, Note_on_c, 5, 69, 0
6, 154800, Note_on_c, 5, 69, 93
6, 154800, Note_on_c, 5, 62, 95
6, 154860, Note_on_c, 5, 62, 0
6, 154860, Note_on_c, 5, 69, 0
6, 154920, Note_on_c, 5, 69, 89
6, 154920, Note_on_c, 5, 62, 94
6, 154980, Note_on_c, 5, 62, 0
6, 154980, Note_on_c, 5, 69, 0
6, 155040, Note_on_c, 5, 67, 86
6, 155040, Note_on_c, 5, 71, 85
6, 155100, Note_on_c, 5, 71, 0
6, 155100, Note_on_c, 5, 67, 0
6, 155160, Note_on_c, 5, 59, 95
6, 155160, Note_on_c, 5, 67, 81
6, 155220, Note_on_c, 5, 67, 0
6, 155220, Note_on_c, 5, 59, 0
6, 155280, Note_on_c, 5, 69, 94
6, 155340, Note_on_c, 5, 69, 0
6, 155400, Note_on_c, 5, 62, 99
6, 155460, Note_on_c, 5, 62, 0
6, 155520, Note_on_c, 5, 59, 98
6, 155520, Note_on_c, 5, 67, 85
6, 155580, Note_on_c, 5, 67, 0
6, 155580, Note_on_c, 5, 59, 0
6, 157680, Note_on_c, 5, 67, 40
6, 157680, Note_on_c, 5, 59, 43
6, 157920, Note_on_c, 5, 59, 0
6, 157920, Note_on_c, 5, 67, 0
6, 157920, Note_on_c, 5, 69, 43
6, 157920, Note_on_c, 5, 62, 40
6, 158160, Note_on_c, 5, 62, 0
6, 158160, Note_on_c, 5, 69, 0
6, 158160, Note_on_c, 5, 71, 45
6, 158160, Note_on_c, 5, 67, 43
6, 158400, Note_on_c, 5, 67, 0
6, 158400, Note_on_c, 5, 71, 0
6, 158400, Note_on_c, 5, 69, 40
6, 158400, Note_on_c, 5, 62, 43
6, 158640, Note_on_c, 5, 62, 0
6, 158640, Note_on_c, 5, 69, 0
6, 158640, Note_on_c, 5, 67, 44
6, 158640, Note_on_c, 5, 59, 48
6, 158880, Note_on_c, 5, 59, 0
6, 158880, Note_on_c, 5, 67, 0
6, 158880, Note_on_c, 5, 62, 65
6, 158880, Note_on_c, 5, 69, 76
6, 159120, Note_on_c, 5, 69, 0
6, 159120, Note_on_c, 5, 62, 0
6, 159120, Note_on_c, 5, 71, 76
6, 159120, Note_on_c, 5, 67, 73
6, 159360, Note_on_c, 5, 67, 0
6, 159360, Note_on_c, 5, 71, 0
6, 159360, Note_on_c, 5, 69, 81
6, 159360, Note_on_c, 5, 62, 84
6, 159600, Note_on_c, 5, 62, 0
6, 159600, Note_on_c, 5, 69, 0
6, 159600, Note_on_c, 5, 59, 86
6, 159600, Note_on_c, 5, 67, 73
6, 159720, Note_on_c, 5, 67, 0
6, 159720, Note_on_c, 5, 59, 0
6, 159780, Note_on_c, 5, 59, 89
6, 159780, Note_on_c, 5, 67, 68
6, 159810, Note_on_c, 5, 67, 0
6, 159810, Note_on_c, 5, 59, 0
6, 159810, Note_on_c, 5, 59, 93
6, 159810, Note_on_c, 5, 67, 84
6, 159840, Note_on_c, 5, 67, 0
6, 159840, Note_on_c, 5, 59, 0
6, 159840, Note_on_c, 5, 59, 90
6, 159840, Note_on_c, 5, 67, 73
6, 159960, Note_on_c, 5, 67, 0
6, 159960, Note_on_c, 5, 59, 0
6, 160260, Note_on_c, 5, 67, 72
6, 160260, Note_on_c, 5, 59, 89
6, 160290, Note_on_c, 5, 59, 0
6, 160290, Note_on_c, 5, 67, 0
6, 160290, Note_on_c, 5, 59, 93
6, 160290, Note_on_c, 5, 67, 78
6, 160320, Note_on_c, 5, 67, 0
6, 160320, Note_on_c, 5, 59, 0
6, 160320, Note_on_c, 5, 59, 94
6, 160320, Note_on_c, 5, 67, 76
6, 160440, Note_on_c, 5, 67, 0
6, 160440, Note_on_c, 5, 59, 0
6, 160500, Note_on_c, 5, 59, 89
6, 160500, Note_on_c, 5, 67, 72
6, 160530, Note_on_c, 5, 67, 0
6, 160530, Note_on_c, 5, 59, 0
6, 160530, Note_on_c, 5, 59, 89
6, 160530, Note_on_c, 5, 67, 76
6, 160560, Note_on_c, 5, 67, 0
6, 160560, Note_on_c, 5, 59, 0
6, 160560, Note_on_c, 5, 59, 95
6, 160560, Note_on_c, 5, 67, 73
6, 160620, Note_on_c, 5, 67, 0
6, 160620, Note_on_c, 5, 59, 0
6, 160800, Note_on_c, 5, 69, 90
6, 160800, Note_on_c, 5, 62, 98
6, 160860, Note_on_c, 5, 62, 0
6, 160860, Note_on_c, 5, 69, 0
6, 161040, Note_on_c, 5, 59, 93
6, 161040, Note_on_c, 5, 67, 84
6, 161100, Note_on_c, 5, 67, 0
6, 161100, Note_on_c, 5, 59, 0
6, 161100, End_track
7, 0, Start_track
7, 0, MIDI_port, 0
7, 0, Title_t, "Trumpets"
7, 0, Control_c, 6, 0, 0
7, 0, Control_c, 6, 32, 0
7, 0, Program_c, 6, 56
7, 0, Control_c, 6, 7, 100
7, 0, Control_c, 6, 10, 85
7, 0, Control_c, 6, 93, 0
7, 0, Control_c, 6, 91, 66
7, 7440, Note_on_c, 6, 60, 89
7, 7440, Note_on_c, 6, 72, 112
7, 7560, Note_on_c, 6, 72, 0
7, 7560, Note_on_c, 6, 60, 0
7, 7620, Note_on_c, 6, 60, 95
7, 7620, Note_on_c, 6, 72, 117
7, 7650, Note_on_c, 6, 72, 0
7, 7650, Note_on_c, 6, 60, 0
7, 7650, Note_on_c, 6, 60, 85
7, 7650, Note_on_c, 6, 72, 105
7, 7680, Note_on_c, 6, 72, 0
7, 7680, Note_on_c, 6, 60, 0
7, 7680, Note_on_c, 6, 60, 90
7, 7680, Note_on_c, 6, 72, 112
7, 7800, Note_on_c, 6, 72, 0
7, 7800, Note_on_c, 6, 60, 0
7, 7860, Note_on_c, 6, 60, 94
7, 7860, Note_on_c, 6, 72, 112
7, 7890, Note_on_c, 6, 72, 0
7, 7890, Note_on_c, 6, 60, 0
7, 7890, Note_on_c, 6, 60, 80
7, 7890, Note_on_c, 6, 72, 112
7, 7920, Note_on_c, 6, 72, 0
7, 7920, Note_on_c, 6, 60, 0
7, 7920, Note_on_c, 6, 60, 94
7, 7920, Note_on_c, 6, 72, 112
7, 7980, Note_on_c, 6, 72, 0
7, 7980, Note_on_c, 6, 60, 0
7, 8040, Note_on_c, 6, 60, 94
7, 8040, Note_on_c, 6, 72, 112
7, 8070, Note_on_c, 6, 72, 0
7, 8070, Note_on_c, 6, 60, 0
7, 8100, Note_on_c, 6, 60, 95
7, 8100, Note_on_c, 6, 72, 107
7, 8130, Note_on_c, 6, 72, 0
7, 8130, Note_on_c, 6, 60, 0
7, 8160, Note_on_c, 6, 60, 95
7, 8160, Note_on_c, 6, 72, 115
7, 8190, Note_on_c, 6, 72, 0
7, 8190, Note_on_c, 6, 60, 0
7, 8400, Note_on_c, 6, 60, 94
7, 8400, Note_on_c, 6, 72, 112
7, 8460, Note_on_c, 6, 72, 0
7, 8460, Note_on_c, 6, 60, 0
7, 8520, Note_on_c, 6, 60, 90
7, 8520, Note_on_c, 6, 72, 110
7, 8580, Note_on_c, 6, 72, 0
7, 8580, Note_on_c, 6, 60, 0
7, 8640, Note_on_c, 6, 60, 98
7, 8640, Note_on_c, 6, 72, 112
7, 8700, Note_on_c, 6, 72, 0
7, 8700, Note_on_c, 6, 60, 0
7, 9120, Note_on_c, 6, 55, 95
7, 9120, Note_on_c, 6, 67, 84
7, 9180, Note_on_c, 6, 67, 0
7, 9180, Note_on_c, 6, 55, 0
7, 9240, Note_on_c, 6, 67, 84
7, 9240, Note_on_c, 6, 55, 98
7, 9300, Note_on_c, 6, 55, 0
7, 9300, Note_on_c, 6, 67, 0
7, 9360, Note_on_c, 6, 60, 72
7, 9360, Note_on_c, 6, 72, 85
7, 9420, Note_on_c, 6, 72, 0
7, 9420, Note_on_c, 6, 60, 0
7, 9480, Note_on_c, 6, 74, 93
7, 9540, Note_on_c, 6, 74, 0
7, 9600, Note_on_c, 6, 55, 76
7, 9600, Note_on_c, 6, 67, 65
7, 9660, Note_on_c, 6, 67, 0
7, 9660, Note_on_c, 6, 55, 0
7, 9840, Note_on_c, 6, 55, 78
7, 9840, Note_on_c, 6, 67, 70
7, 9900, Note_on_c, 6, 67, 0
7, 9900, Note_on_c, 6, 55, 0
7, 10080, Note_on_c, 6, 60, 81
7, 10080, Note_on_c, 6, 72, 105
7, 10140, Note_on_c, 6, 72, 0
7, 10140, Note_on_c, 6, 60, 0
7, 10200, Note_on_c, 6, 55, 82
7, 10200, Note_on_c, 6, 67, 76
7, 10260, Note_on_c, 6, 67, 0
7, 10260, Note_on_c, 6, 55, 0
7, 10320, Note_on_c, 6, 60, 74
7, 10320, Note_on_c, 6, 72, 89
7, 10380, Note_on_c, 6, 72, 0
7, 10380, Note_on_c, 6, 60, 0
7, 10440, Note_on_c, 6, 74, 74
7, 10500, Note_on_c, 6, 74, 0
7, 11520, Note_on_c, 6, 67, 93
7, 11520, Note_on_c, 6, 55, 99
7, 11580, Note_on_c, 6, 55, 0
7, 11580, Note_on_c, 6, 67, 0
7, 11880, Note_on_c, 6, 55, 95
7, 11880, Note_on_c, 6, 67, 84
7, 11940, Note_on_c, 6, 67, 0
7, 11940, Note_on_c, 6, 55, 0
7, 12120, Note_on_c, 6, 55, 94
7, 12120, Note_on_c, 6, 67, 90
7, 12180, Note_on_c, 6, 67, 0
7, 12180, Note_on_c, 6, 55, 0
7, 48000, Note_on_c, 6, 60, 89
7, 48000, Note_on_c, 6, 72, 112
7, 48120, Note_on_c, 6, 72, 0
7, 48120, Note_on_c, 6, 60, 0
7, 48180, Note_on_c, 6, 60, 95
7, 48180, Note_on_c, 6, 72, 117
7, 48210, Note_on_c, 6, 72, 0
7, 48210, Note_on_c, 6, 60, 0
7, 48210, Note_on_c, 6, 60, 85
7, 48210, Note_on_c, 6, 72, 105
7, 48240, Note_on_c, 6, 72, 0
7, 48240, Note_on_c, 6, 60, 0
7, 48240, Note_on_c, 6, 60, 90
7, 48240, Note_on_c, 6, 72, 112
7, 48360, Note_on_c, 6, 72, 0
7, 48360, Note_on_c, 6, 60, 0
7, 48420, Note_on_c, 6, 60, 94
7, 48420, Note_on_c, 6, 72, 112
7, 48450, Note_on_c, 6, 72, 0
7, 48450, Note_on_c, 6, 60, 0
7, 48450, Note_on_c, 6, 60, 80
7, 48450, Note_on_c, 6, 72, 112
7, 48480, Note_on_c, 6, 72, 0
7, 48480, Note_on_c, 6, 60, 0
7, 48480, Note_on_c, 6, 60, 94
7, 48480, Note_on_c, 6, 72, 112
7, 48540, Note_on_c, 6, 72, 0
7, 48540, Note_on_c, 6, 60, 0
7, 48600, Note_on_c, 6, 60, 94
7, 48600, Note_on_c, 6, 72, 112
7, 48630, Note_on_c, 6, 72, 0
7, 48630, Note_on_c, 6, 60, 0
7, 48660, Note_on_c, 6, 60, 95
7, 48660, Note_on_c, 6, 72, 107
7, 48690, Note_on_c, 6, 72, 0
7, 48690, Note_on_c, 6, 60, 0
7, 48720, Note_on_c, 6, 60, 95
7, 48720, Note_on_c, 6, 72, 115
7, 48750, Note_on_c, 6, 72, 0
7, 48750, Note_on_c, 6, 60, 0
7, 48960, Note_on_c, 6, 60, 94
7, 48960, Note_on_c, 6, 72, 112
7, 49020, Note_on_c, 6, 72, 0
7, 49020, Note_on_c, 6, 60, 0
7, 49080, Note_on_c, 6, 60, 90
7, 49080, Note_on_c, 6, 72, 110
7, 49140, Note_on_c, 6, 72, 0
7, 49140, Note_on_c, 6, 60, 0
7, 49200, Note_on_c, 6, 60, 98
7, 49200, Note_on_c, 6, 72, 112
7, 49260, Note_on_c, 6, 72, 0
7, 49260, Note_on_c, 6, 60, 0
7, 49680, Note_on_c, 6, 55, 95
7, 49680, Note_on_c, 6, 67, 84
7, 49740, Note_on_c, 6, 67, 0
7, 49740, Note_on_c, 6, 55, 0
7, 49800, Note_on_c, 6, 67, 84
7, 49800, Note_on_c, 6, 55, 98
7, 49860, Note_on_c, 6, 55, 0
7, 49860, Note_on_c, 6, 67, 0
7, 49920, Note_on_c, 6, 60, 72
7, 49920, Note_on_c, 6, 72, 85
7, 49980, Note_on_c, 6, 72, 0
7, 49980, Note_on_c, 6, 60, 0
7, 50040, Note_on_c, 6, 74, 93
7, 50100, Note_on_c, 6, 74, 0
7, 50160, Note_on_c, 6, 55, 76
7, 50160, Note_on_c, 6, 67, 65
7, 50220, Note_on_c, 6, 67, 0
7, 50220, Note_on_c, 6, 55, 0
7, 50400, Note_on_c, 6, 55, 78
7, 50400, Note_on_c, 6, 67, 70
7, 50460, Note_on_c, 6, 67, 0
7, 50460, Note_on_c, 6, 55, 0
7, 50640, Note_on_c, 6, 60, 81
7, 50640, Note_on_c, 6, 72, 105
7, 50700, Note_on_c, 6, 72, 0
7, 50700, Note_on_c, 6, 60, 0
7, 50760, Note_on_c, 6, 55, 82
7, 50760, Note_on_c, 6, 67, 76
7, 50820, Note_on_c, 6, 67, 0
7, 50820, Note_on_c, 6, 55, 0
7, 50880, Note_on_c, 6, 60, 74
7, 50880, Note_on_c, 6, 72, 89
7, 50940, Note_on_c, 6, 72, 0
7, 50940, Note_on_c, 6, 60, 0
7, 51000, Note_on_c, 6, 74, 74
7, 51060, Note_on_c, 6, 74, 0
7, 52080, Note_on_c, 6, 55, 95
7, 52080, Note_on_c, 6, 67, 84
7, 52140, Note_on_c, 6, 67, 0
7, 52140, Note_on_c, 6, 55, 0
7, 52440, Note_on_c, 6, 55, 99
7, 52440, Note_on_c, 6, 67, 89
7, 52500, Note_on_c, 6, 67, 0
7, 52500, Note_on_c, 6, 55, 0
7, 52680, Note_on_c, 6, 67, 86
7, 52680, Note_on_c, 6, 55, 90
7, 52740, Note_on_c, 6, 55, 0
7, 52740, Note_on_c, 6, 67, 0
7, 52800, Note_on_c, 6, 60, 94
7, 52800, Note_on_c, 6, 72, 99
7, 52860, Note_on_c, 6, 72, 0
7, 52860, Note_on_c, 6, 60, 0
7, 96240, Note_on_c, 6, 60, 99
7, 96240, Note_on_c, 6, 72, 123
7, 96360, Note_on_c, 6, 72, 0
7, 96360, Note_on_c, 6, 60, 0
7, 96420, Note_on_c, 6, 60, 94
7, 96420, Note_on_c, 6, 72, 119
7, 96450, Note_on_c, 6, 72, 0
7, 96450, Note_on_c, 6, 60, 0
7, 96450, Note_on_c, 6, 60, 99
7, 96450, Note_on_c, 6, 72, 123
7, 96480, Note_on_c, 6, 72, 0
7, 96480, Note_on_c, 6, 60, 0
7, 96480, Note_on_c, 6, 60, 98
7, 96480, Note_on_c, 6, 72, 123
7, 96600, Note_on_c, 6, 72, 0
7, 96600, Note_on_c, 6, 60, 0
7, 96660, Note_on_c, 6, 60, 95
7, 96660, Note_on_c, 6, 72, 127
7, 96690, Note_on_c, 6, 72, 0
7, 96690, Note_on_c, 6, 60, 0
7, 96690, Note_on_c, 6, 60, 99
7, 96690, Note_on_c, 6, 72, 123
7, 96720, Note_on_c, 6, 72, 0
7, 96720, Note_on_c, 6, 60, 0
7, 96720, Note_on_c, 6, 60, 101
7, 96720, Note_on_c, 6, 72, 127
7, 96780, Note_on_c, 6, 72, 0
7, 96780, Note_on_c, 6, 60, 0
7, 96840, Note_on_c, 6, 60, 98
7, 96840, Note_on_c, 6, 72, 123
7, 96870, Note_on_c, 6, 72, 0
7, 96870, Note_on_c, 6, 60, 0
7, 96900, Note_on_c, 6, 60, 104
7, 96900, Note_on_c, 6, 72, 123
7, 96930, Note_on_c, 6, 72, 0
7, 96930, Note_on_c, 6, 60, 0
7, 96960, Note_on_c, 6, 60, 99
7, 96960, Note_on_c, 6, 72, 119
7, 97020, Note_on_c, 6, 72, 0
7, 97020, Note_on_c, 6, 60, 0
7, 97200, Note_on_c, 6, 60, 123
7, 97200, Note_on_c, 6, 72, 127
7, 97320, Note_on_c, 6, 72, 0
7, 97320, Note_on_c, 6, 60, 0
7, 97380, Note_on_c, 6, 60, 95
7, 97380, Note_on_c, 6, 72, 119
7, 97410, Note_on_c, 6, 72, 0
7, 97410, Note_on_c, 6, 60, 0
7, 97410, Note_on_c, 6, 60, 99
7, 97410, Note_on_c, 6, 72, 119
7, 97440, Note_on_c, 6, 72, 0
7, 97440, Note_on_c, 6, 60, 0
7, 97440, Note_on_c, 6, 60, 101
7, 97440, Note_on_c, 6, 72, 123
7, 97560, Note_on_c, 6, 72, 0
7, 97560, Note_on_c, 6, 60, 0
7, 97620, Note_on_c, 6, 60, 99
7, 97620, Note_on_c, 6, 72, 123
7, 97650, Note_on_c, 6, 72, 0
7, 97650, Note_on_c, 6, 60, 0
7, 97650, Note_on_c, 6, 60, 99
7, 97650, Note_on_c, 6, 72, 119
7, 97680, Note_on_c, 6, 72, 0
7, 97680, Note_on_c, 6, 60, 0
7, 97680, Note_on_c, 6, 60, 99
7, 97680, Note_on_c, 6, 72, 125
7, 97740, Note_on_c, 6, 72, 0
7, 97740, Note_on_c, 6, 60, 0
7, 97800, Note_on_c, 6, 60, 99
7, 97800, Note_on_c, 6, 72, 125
7, 97830, Note_on_c, 6, 72, 0
7, 97830, Note_on_c, 6, 60, 0
7, 97860, Note_on_c, 6, 60, 99
7, 97860, Note_on_c, 6, 72, 119
7, 97890, Note_on_c, 6, 72, 0
7, 97890, Note_on_c, 6, 60, 0
7, 97920, Note_on_c, 6, 60, 125
7, 97920, Note_on_c, 6, 72, 127
7, 98040, Note_on_c, 6, 72, 0
7, 98040, Note_on_c, 6, 60, 0
7, 98040, Note_on_c, 6, 60, 99
7, 98040, Note_on_c, 6, 72, 123
7, 98070, Note_on_c, 6, 72, 0
7, 98070, Note_on_c, 6, 60, 0
7, 98100, Note_on_c, 6, 60, 99
7, 98100, Note_on_c, 6, 72, 119
7, 98130, Note_on_c, 6, 72, 0
7, 98130, Note_on_c, 6, 60, 0
7, 98160, Note_on_c, 6, 60, 125
7, 98160, Note_on_c, 6, 72, 127
7, 98280, Note_on_c, 6, 72, 0
7, 98280, Note_on_c, 6, 60, 0
7, 98280, Note_on_c, 6, 60, 94
7, 98280, Note_on_c, 6, 72, 119
7, 98310, Note_on_c, 6, 72, 0
7, 98310, Note_on_c, 6, 60, 0
7, 98340, Note_on_c, 6, 60, 101
7, 98340, Note_on_c, 6, 72, 119
7, 98370, Note_on_c, 6, 72, 0
7, 98370, Note_on_c, 6, 60, 0
7, 98400, Note_on_c, 6, 60, 125
7, 98400, Note_on_c, 6, 72, 127
7, 98520, Note_on_c, 6, 72, 0
7, 98520, Note_on_c, 6, 60, 0
7, 98520, Note_on_c, 6, 60, 99
7, 98520, Note_on_c, 6, 72, 119
7, 98550, Note_on_c, 6, 72, 0
7, 98550, Note_on_c, 6, 60, 0
7, 98580, Note_on_c, 6, 60, 105
7, 98580, Note_on_c, 6, 72, 123
7, 98610, Note_on_c, 6, 72, 0
7, 98610, Note_on_c, 6, 60, 0
7, 98640, Note_on_c, 6, 55, 105
7, 98640, Note_on_c, 6, 67, 98
7, 98700, Note_on_c, 6, 67, 0
7, 98700, Note_on_c, 6, 55, 0
7, 106260, Note_on_c, 6, 60, 95
7, 106260, Note_on_c, 6, 72, 125
7, 106290, Note_on_c, 6, 72, 0
7, 106290, Note_on_c, 6, 60, 0
7, 106290, Note_on_c, 6, 60, 86
7, 106290, Note_on_c, 6, 72, 115
7, 106320, Note_on_c, 6, 72, 0
7, 106320, Note_on_c, 6, 60, 0
7, 106320, Note_on_c, 6, 60, 94
7, 106320, Note_on_c, 6, 72, 119
7, 106440, Note_on_c, 6, 72, 0
7, 106440, Note_on_c, 6, 60, 0
7, 106500, Note_on_c, 6, 60, 95
7, 106500, Note_on_c, 6, 72, 119
7, 106530, Note_on_c, 6, 72, 0
7, 106530, Note_on_c, 6, 60, 0
7, 106530, Note_on_c, 6, 60, 89
7, 106530, Note_on_c, 6, 72, 117
7, 106560, Note_on_c, 6, 72, 0
7, 106560, Note_on_c, 6, 60, 0
7, 106560, Note_on_c, 6, 60, 98
7, 106560, Note_on_c, 6, 72, 117
7, 106680, Note_on_c, 6, 72, 0
7, 106680, Note_on_c, 6, 60, 0
7, 106740, Note_on_c, 6, 60, 94
7, 106740, Note_on_c, 6, 72, 117
7, 106770, Note_on_c, 6, 72, 0
7, 106770, Note_on_c, 6, 60, 0
7, 106770, Note_on_c, 6, 60, 95
7, 106770, Note_on_c, 6, 72, 117
7, 106800, Note_on_c, 6, 72, 0
7, 106800, Note_on_c, 6, 60, 0
7, 106800, Note_on_c, 6, 60, 98
7, 106800, Note_on_c, 6, 72, 117
7, 106860, Note_on_c, 6, 72, 0
7, 106860, Note_on_c, 6, 60, 0
7, 106860, Note_on_c, 6, 60, 95
7, 106860, Note_on_c, 6, 72, 117
7, 106890, Note_on_c, 6, 72, 0
7, 106890, Note_on_c, 6, 60, 0
7, 106890, Note_on_c, 6, 60, 93
7, 106890, Note_on_c, 6, 72, 115
7, 106920, Note_on_c, 6, 72, 0
7, 106920, Note_on_c, 6, 60, 0
7, 106920, Note_on_c, 6, 60, 98
7, 106920, Note_on_c, 6, 72, 117
7, 106980, Note_on_c, 6, 72, 0
7, 106980, Note_on_c, 6, 60, 0
7, 106980, Note_on_c, 6, 60, 95
7, 106980, Note_on_c, 6, 72, 112
7, 107010, Note_on_c, 6, 72, 0
7, 107010, Note_on_c, 6, 60, 0
7, 107010, Note_on_c, 6, 60, 98
7, 107010, Note_on_c, 6, 72, 119
7, 107040, Note_on_c, 6, 72, 0
7, 107040, Note_on_c, 6, 60, 0
7, 107040, Note_on_c, 6, 60, 104
7, 107040, Note_on_c, 6, 72, 115
7, 107100, Note_on_c, 6, 72, 0
7, 107100, Note_on_c, 6, 60, 0
7, 108000, Note_on_c, 6, 55, 101
7, 108000, Note_on_c, 6, 67, 84
7, 108060, Note_on_c, 6, 67, 0
7, 108060, Note_on_c, 6, 55, 0
7, 108120, Note_on_c, 6, 60, 99
7, 108120, Note_on_c, 6, 72, 115
7, 108180, Note_on_c, 6, 72, 0
7, 108180, Note_on_c, 6, 60, 0
7, 108240, Note_on_c, 6, 60, 98
7, 108240, Note_on_c, 6, 72, 119
7, 108300, Note_on_c, 6, 72, 0
7, 108300, Note_on_c, 6, 60, 0
7, 108360, Note_on_c, 6, 74, 107
7, 108420, Note_on_c, 6, 74, 0
7, 108480, Note_on_c, 6, 55, 78
7, 108480, Note_on_c, 6, 67, 63
7, 108540, Note_on_c, 6, 67, 0
7, 108540, Note_on_c, 6, 55, 0
7, 108720, Note_on_c, 6, 55, 93
7, 108720, Note_on_c, 6, 67, 77
7, 108780, Note_on_c, 6, 67, 0
7, 108780, Note_on_c, 6, 55, 0
7, 108960, Note_on_c, 6, 67, 80
7, 108960, Note_on_c, 6, 55, 90
7, 109020, Note_on_c, 6, 55, 0
7, 109020, Note_on_c, 6, 67, 0
7, 109200, Note_on_c, 6, 60, 90
7, 109200, Note_on_c, 6, 72, 110
7, 109260, Note_on_c, 6, 72, 0
7, 109260, Note_on_c, 6, 60, 0
7, 109320, Note_on_c, 6, 74, 94
7, 109380, Note_on_c, 6, 74, 0
7, 120960, Note_on_c, 6, 55, 85
7, 120960, Note_on_c, 6, 67, 72
7, 121020, Note_on_c, 6, 67, 0
7, 121020, Note_on_c, 6, 55, 0
7, 121440, Note_on_c, 6, 60, 80
7, 121440, Note_on_c, 6, 72, 57
7, 121500, Note_on_c, 6, 72, 0
7, 121500, Note_on_c, 6, 60, 0
7, 121920, Note_on_c, 6, 55, 81
7, 121920, Note_on_c, 6, 67, 70
7, 121980, Note_on_c, 6, 67, 0
7, 121980, Note_on_c, 6, 55, 0
7, 122160, Note_on_c, 6, 55, 81
7, 122160, Note_on_c, 6, 67, 66
7, 122220, Note_on_c, 6, 67, 0
7, 122220, Note_on_c, 6, 55, 0
7, 122400, Note_on_c, 6, 55, 80
7, 122400, Note_on_c, 6, 67, 65
7, 122460, Note_on_c, 6, 67, 0
7, 122460, Note_on_c, 6, 55, 0
7, 122640, Note_on_c, 6, 55, 80
7, 122640, Note_on_c, 6, 67, 72
7, 122700, Note_on_c, 6, 67, 0
7, 122700, Note_on_c, 6, 55, 0
7, 122880, Note_on_c, 6, 55, 84
7, 122880, Note_on_c, 6, 67, 68
7, 122940, Note_on_c, 6, 67, 0
7, 122940, Note_on_c, 6, 55, 0
7, 122940, Note_on_c, 6, 55, 90
7, 122940, Note_on_c, 6, 67, 76
7, 123000, Note_on_c, 6, 67, 0
7, 123000, Note_on_c, 6, 55, 0
7, 123000, Note_on_c, 6, 55, 94
7, 123000, Note_on_c, 6, 67, 77
7, 123060, Note_on_c, 6, 67, 0
7, 123060, Note_on_c, 6, 55, 0
7, 123060, Note_on_c, 6, 55, 89
7, 123060, Note_on_c, 6, 67, 73
7, 123120, Note_on_c, 6, 67, 0
7, 123120, Note_on_c, 6, 55, 0
7, 123120, Note_on_c, 6, 55, 89
7, 123120, Note_on_c, 6, 67, 76
7, 123180, Note_on_c, 6, 67, 0
7, 123180, Note_on_c, 6, 55, 0
7, 123180, Note_on_c, 6, 55, 99
7, 123180, Note_on_c, 6, 67, 80
7, 123240, Note_on_c, 6, 67, 0
7, 123240, Note_on_c, 6, 55, 0
7, 123240, Note_on_c, 6, 55, 93
7, 123240, Note_on_c, 6, 67, 81
7, 123300, Note_on_c, 6, 67, 0
7, 123300, Note_on_c, 6, 55, 0
7, 123300, Note_on_c, 6, 67, 84
7, 123300, Note_on_c, 6, 55, 89
7, 123360, Note_on_c, 6, 55, 0
7, 123360, Note_on_c, 6, 67, 0
7, 123360, Note_on_c, 6, 55, 101
7, 123360, Note_on_c, 6, 67, 98
7, 123420, Note_on_c, 6, 67, 0
7, 123420, Note_on_c, 6, 55, 0
7, 123480, Note_on_c, 6, 67, 99
7, 123480, Note_on_c, 6, 55, 105
7, 123540, Note_on_c, 6, 55, 0
7, 123540, Note_on_c, 6, 67, 0
7, 123600, Note_on_c, 6, 67, 95
7, 123600, Note_on_c, 6, 55, 105
7, 123660, Note_on_c, 6, 55, 0
7, 123660, Note_on_c, 6, 67, 0
7, 123720, Note_on_c, 6, 55, 104
7, 123720, Note_on_c, 6, 67, 99
7, 123780, Note_on_c, 6, 67, 0
7, 123780, Note_on_c, 6, 55, 0
7, 123840, Note_on_c, 6, 55, 101
7, 123840, Note_on_c, 6, 67, 98
7, 123900, Note_on_c, 6, 67, 0
7, 123900, Note_on_c, 6, 55, 0
7, 152340, Note_on_c, 6, 60, 45
7, 152340, Note_on_c, 6, 72, 81
7, 152400, Note_on_c, 6, 72, 0
7, 152400, Note_on_c, 6, 60, 0
7, 152400, Note_on_c, 6, 55, 81
7, 152400, Note_on_c, 6, 67, 72
7, 152520, Note_on_c, 6, 67, 0
7, 152520, Note_on_c, 6, 55, 0
7, 152520, Note_on_c, 6, 67, 78
7, 152520, Note_on_c, 6, 55, 90
7, 152640, Note_on_c, 6, 55, 0
7, 152640, Note_on_c, 6, 67, 0
7, 152760, Note_on_c, 6, 55, 82
7, 152760, Note_on_c, 6, 67, 72
7, 152880, Note_on_c, 6, 67, 0
7, 152880, Note_on_c, 6, 55, 0
7, 153000, Note_on_c, 6, 55, 84
7, 153000, Note_on_c, 6, 67, 72
7, 153120, Note_on_c, 6, 67, 0
7, 153120, Note_on_c, 6, 55, 0
7, 153240, Note_on_c, 6, 67, 81
7, 153240, Note_on_c, 6, 55, 95
7, 153360, Note_on_c, 6, 55, 0
7, 153360, Note_on_c, 6, 67, 0
7, 153360, Note_on_c, 6, 60, 99
7, 153360, Note_on_c, 6, 72, 127
7, 153480, Note_on_c, 6, 72, 0
7, 153480, Note_on_c, 6, 60, 0
7, 153540, Note_on_c, 6, 60, 98
7, 153540, Note_on_c, 6, 72, 123
7, 153570, Note_on_c, 6, 72, 0
7, 153570, Note_on_c, 6, 60, 0
7, 153570, Note_on_c, 6, 60, 99
7, 153570, Note_on_c, 6, 72, 119
7, 153600, Note_on_c, 6, 72, 0
7, 153600, Note_on_c, 6, 60, 0
7, 153600, Note_on_c, 6, 60, 99
7, 153600, Note_on_c, 6, 72, 123
7, 153720, Note_on_c, 6, 72, 0
7, 153720, Note_on_c, 6, 60, 0
7, 153780, Note_on_c, 6, 60, 95
7, 153780, Note_on_c, 6, 72, 123
7, 153810, Note_on_c, 6, 72, 0
7, 153810, Note_on_c, 6, 60, 0
7, 153810, Note_on_c, 6, 60, 99
7, 153810, Note_on_c, 6, 72, 123
7, 153840, Note_on_c, 6, 72, 0
7, 153840, Note_on_c, 6, 60, 0
7, 153840, Note_on_c, 6, 60, 94
7, 153840, Note_on_c, 6, 72, 117
7, 153900, Note_on_c, 6, 72, 0
7, 153900, Note_on_c, 6, 60, 0
7, 153960, Note_on_c, 6, 60, 95
7, 153960, Note_on_c, 6, 72, 125
7, 153990, Note_on_c, 6, 72, 0
7, 153990, Note_on_c, 6, 60, 0
7, 154020, Note_on_c, 6, 60, 99
7, 154020, Note_on_c, 6, 72, 119
7, 154050, Note_on_c, 6, 72, 0
7, 154050, Note_on_c, 6, 60, 0
7, 154080, Note_on_c, 6, 60, 93
7, 154080, Note_on_c, 6, 72, 119
7, 154140, Note_on_c, 6, 72, 0
7, 154140, Note_on_c, 6, 60, 0
7, 154320, Note_on_c, 6, 72, 127
7, 154380, Note_on_c, 6, 72, 0
7, 154440, Note_on_c, 6, 72, 127
7, 154500, Note_on_c, 6, 72, 0
7, 154560, Note_on_c, 6, 74, 105
7, 154620, Note_on_c, 6, 74, 0
7, 154800, Note_on_c, 6, 74, 107
7, 154860, Note_on_c, 6, 74, 0
7, 154920, Note_on_c, 6, 74, 110
7, 154980, Note_on_c, 6, 74, 0
7, 155040, Note_on_c, 6, 74, 104
7, 155040, Note_on_c, 6, 67, 98
7, 155100, Note_on_c, 6, 67, 0
7, 155100, Note_on_c, 6, 74, 0
7, 155160, Note_on_c, 6, 67, 95
7, 155220, Note_on_c, 6, 67, 0
7, 155400, Note_on_c, 6, 74, 107
7, 155460, Note_on_c, 6, 74, 0
7, 155520, Note_on_c, 6, 55, 98
7, 155520, Note_on_c, 6, 67, 90
7, 155580, Note_on_c, 6, 67, 0
7, 155580, Note_on_c, 6, 55, 0
7, 159600, Note_on_c, 6, 55, 93
7, 159600, Note_on_c, 6, 67, 82
7, 159720, Note_on_c, 6, 67, 0
7, 159720, Note_on_c, 6, 55, 0
7, 159780, Note_on_c, 6, 55, 94
7, 159780, Note_on_c, 6, 67, 81
7, 159810, Note_on_c, 6, 67, 0
7, 159810, Note_on_c, 6, 55, 0
7, 159810, Note_on_c, 6, 55, 98
7, 159810, Note_on_c, 6, 67, 84
7, 159840, Note_on_c, 6, 67, 0
7, 159840, Note_on_c, 6, 55, 0
7, 159840, Note_on_c, 6, 55, 94
7, 159840, Note_on_c, 6, 67, 85
7, 159960, Note_on_c, 6, 67, 0
7, 159960, Note_on_c, 6, 55, 0
7, 160260, Note_on_c, 6, 55, 94
7, 160260, Note_on_c, 6, 67, 81
7, 160290, Note_on_c, 6, 67, 0
7, 160290, Note_on_c, 6, 55, 0
7, 160290, Note_on_c, 6, 55, 93
7, 160290, Note_on_c, 6, 67, 84
7, 160320, Note_on_c, 6, 67, 0
7, 160320, Note_on_c, 6, 55, 0
7, 160320, Note_on_c, 6, 55, 95
7, 160320, Note_on_c, 6, 67, 81
7, 160440, Note_on_c, 6, 67, 0
7, 160440, Note_on_c, 6, 55, 0
7, 160500, Note_on_c, 6, 55, 94
7, 160500, Note_on_c, 6, 67, 82
7, 160530, Note_on_c, 6, 67, 0
7, 160530, Note_on_c, 6, 55, 0
7, 160530, Note_on_c, 6, 55, 99
7, 160530, Note_on_c, 6, 67, 89
7, 160560, Note_on_c, 6, 67, 0
7, 160560, Note_on_c, 6, 55, 0
7, 160560, Note_on_c, 6, 55, 99
7, 160560, Note_on_c, 6, 67, 86
7, 160620, Note_on_c, 6, 67, 0
7, 160620, Note_on_c, 6, 55, 0
7, 160800, Note_on_c, 6, 74, 105
7, 160860, Note_on_c, 6, 74, 0
7, 161040, Note_on_c, 6, 55, 98
7, 161040, Note_on_c, 6, 67, 89
7, 161100, Note_on_c, 6, 67, 0
7, 161100, Note_on_c, 6, 55, 0
7, 161100, End_track
8, 0, Start_track
8, 0, MIDI_port, 0
8, 0, Title_t, "Timpani"
8, 0, Control_c, 7, 0, 0
8, 0, Control_c, 7, 32, 0
8, 0, Program_c, 7, 47
8, 0, Control_c, 7, 7, 100
8, 0, Control_c, 7, 10, 36
8, 0, Control_c, 7, 93, 0
8, 0, Control_c, 7, 91, 66
8, 7440, Note_on_c, 7, 48, 105
8, 7560, Note_on_c, 7, 48, 0
8, 7620, Note_on_c, 7, 48, 104
8, 7650, Note_on_c, 7, 48, 0
8, 7650, Note_on_c, 7, 48, 105
8, 7680, Note_on_c, 7, 48, 0
8, 7680, Note_on_c, 7, 48, 105
8, 7800, Note_on_c, 7, 48, 0
8, 7860, Note_on_c, 7, 48, 105
8, 7890, Note_on_c, 7, 48, 0
8, 7890, Note_on_c, 7, 48, 105
8, 7920, Note_on_c, 7, 48, 0
8, 7920, Note_on_c, 7, 48, 105
8, 7980, Note_on_c, 7, 48, 0
8, 8040, Note_on_c, 7, 48, 105
8, 8070, Note_on_c, 7, 48, 0
8, 8100, Note_on_c, 7, 48, 105
8, 8130, Note_on_c, 7, 48, 0
8, 8160, Note_on_c, 7, 48, 110
8, 8190, Note_on_c, 7, 48, 0
8, 8400, Note_on_c, 7, 48, 104
8, 8460, Note_on_c, 7, 48, 0
8, 8520, Note_on_c, 7, 48, 104
8, 8580, Note_on_c, 7, 48, 0
8, 8640, Note_on_c, 7, 48, 105
8, 8700, Note_on_c, 7, 48, 0
8, 9120, Note_on_c, 7, 43, 94
8, 9180, Note_on_c, 7, 43, 0
8, 9240, Note_on_c, 7, 43, 104
8, 9300, Note_on_c, 7, 43, 0
8, 9360, Note_on_c, 7, 48, 99
8, 9420, Note_on_c, 7, 48, 0
8, 9600, Note_on_c, 7, 43, 85
8, 9660, Note_on_c, 7, 43, 0
8, 9840, Note_on_c, 7, 43, 89
8, 9900, Note_on_c, 7, 43, 0
8, 10080, Note_on_c, 7, 48, 95
8, 10140, Note_on_c, 7, 48, 0
8, 10200, Note_on_c, 7, 43, 89
8, 10260, Note_on_c, 7, 43, 0
8, 10320, Note_on_c, 7, 48, 90
8, 10380, Note_on_c, 7, 48, 0
8, 11520, Note_on_c, 7, 43, 81
8, 11580, Note_on_c, 7, 43, 0
8, 11880, Note_on_c, 7, 43, 74
8, 11940, Note_on_c, 7, 43, 0
8, 12120, Note_on_c, 7, 43, 80
8, 12180, Note_on_c, 7, 43, 0
8, 48000, Note_on_c, 7, 48, 105
8, 48120, Note_on_c, 7, 48, 0
8, 48180, Note_on_c, 7, 48, 104
8, 48210, Note_on_c, 7, 48, 0
8, 48210, Note_on_c, 7, 48, 105
8, 48240, Note_on_c, 7, 48, 0
8, 48240, Note_on_c, 7, 48, 105
8, 48360, Note_on_c, 7, 48, 0
8, 48420, Note_on_c, 7, 48, 105
8, 48450, Note_on_c, 7, 48, 0
8, 48450, Note_on_c, 7, 48, 105
8, 48480, Note_on_c, 7, 48, 0
8, 48480, Note_on_c, 7, 48, 105
8, 48540, Note_on_c, 7, 48, 0
8, 48600, Note_on_c, 7, 48, 105
8, 48630, Note_on_c, 7, 48, 0
8, 48660, Note_on_c, 7, 48, 105
8, 48690, Note_on_c, 7, 48, 0
8, 48720, Note_on_c, 7, 48, 110
8, 48750, Note_on_c, 7, 48, 0
8, 48960, Note_on_c, 7, 48, 104
8, 49020, Note_on_c, 7, 48, 0
8, 49080, Note_on_c, 7, 48, 104
8, 49140, Note_on_c, 7, 48, 0
8, 49200, Note_on_c, 7, 48, 105
8, 49260, Note_on_c, 7, 48, 0
8, 49680, Note_on_c, 7, 43, 94
8, 49740, Note_on_c, 7, 43, 0
8, 49800, Note_on_c, 7, 43, 104
8, 49860, Note_on_c, 7, 43, 0
8, 49920, Note_on_c, 7, 48, 99
8, 49980, Note_on_c, 7, 48, 0
8, 50160, Note_on_c, 7, 43, 85
8, 50220, Note_on_c, 7, 43, 0
8, 50400, Note_on_c, 7, 43, 89
8, 50460, Note_on_c, 7, 43, 0
8, 50640, Note_on_c, 7, 48, 95
8, 50700, Note_on_c, 7, 48, 0
8, 50760, Note_on_c, 7, 43, 89
8, 50820, Note_on_c, 7, 43, 0
8, 50880, Note_on_c, 7, 48, 90
8, 50940, Note_on_c, 7, 48, 0
8, 52080, Note_on_c, 7, 43, 101
8, 52140, Note_on_c, 7, 43, 0
8, 52440, Note_on_c, 7, 43, 99
8, 52500, Note_on_c, 7, 43, 0
8, 52680, Note_on_c, 7, 43, 99
8, 52740, Note_on_c, 7, 43, 0
8, 52800, Note_on_c, 7, 48, 99
8, 52860, Note_on_c, 7, 48, 0
8, 63300, Note_on_c, 7, 48, 47
8, 63330, Note_on_c, 7, 48, 0
8, 63330, Note_on_c, 7, 48, 53
8, 63360, Note_on_c, 7, 48, 0
8, 63360, Note_on_c, 7, 48, 54
8, 63420, Note_on_c, 7, 48, 0
8, 63540, Note_on_c, 7, 48, 45
8, 63570, Note_on_c, 7, 48, 0
8, 63570, Note_on_c, 7, 48, 58
8, 63600, Note_on_c, 7, 48, 0
8, 63600, Note_on_c, 7, 43, 57
8, 63660, Note_on_c, 7, 43, 0
8, 64260, Note_on_c, 7, 43, 55
8, 64290, Note_on_c, 7, 43, 0
8, 64290, Note_on_c, 7, 43, 66
8, 64320, Note_on_c, 7, 43, 0
8, 64320, Note_on_c, 7, 43, 53
8, 64380, Note_on_c, 7, 43, 0
8, 64500, Note_on_c, 7, 43, 53
8, 64530, Note_on_c, 7, 43, 0
8, 64530, Note_on_c, 7, 43, 61
8, 64560, Note_on_c, 7, 43, 0
8, 64560, Note_on_c, 7, 43, 45
8, 64620, Note_on_c, 7, 43, 0
8, 65220, Note_on_c, 7, 43, 37
8, 65250, Note_on_c, 7, 43, 0
8, 65250, Note_on_c, 7, 43, 65
8, 65280, Note_on_c, 7, 43, 0
8, 65280, Note_on_c, 7, 43, 64
8, 65340, Note_on_c, 7, 43, 0
8, 65460, Note_on_c, 7, 43, 57
8, 65490, Note_on_c, 7, 43, 0
8, 65490, Note_on_c, 7, 43, 61
8, 65520, Note_on_c, 7, 43, 0
8, 65520, Note_on_c, 7, 48, 63
8, 65580, Note_on_c, 7, 48, 0
8, 66180, Note_on_c, 7, 48, 53
8, 66210, Note_on_c, 7, 48, 0
8, 66210, Note_on_c, 7, 48, 45
8, 66240, Note_on_c, 7, 48, 0
8, 66240, Note_on_c, 7, 48, 61
8, 66300, Note_on_c, 7, 48, 0
8, 66420, Note_on_c, 7, 48, 43
8, 66450, Note_on_c, 7, 48, 0
8, 66450, Note_on_c, 7, 48, 61
8, 66480, Note_on_c, 7, 48, 0
8, 66480, Note_on_c, 7, 43, 48
8, 66540, Note_on_c, 7, 43, 0
8, 67140, Note_on_c, 7, 43, 40
8, 67170, Note_on_c, 7, 43, 0
8, 67170, Note_on_c, 7, 43, 65
8, 67200, Note_on_c, 7, 43, 0
8, 67200, Note_on_c, 7, 43, 51
8, 67260, Note_on_c, 7, 43, 0
8, 67380, Note_on_c, 7, 43, 57
8, 67410, Note_on_c, 7, 43, 0
8, 67410, Note_on_c, 7, 43, 64
8, 67440, Note_on_c, 7, 43, 0
8, 96240, Note_on_c, 7, 48, 110
8, 96360, Note_on_c, 7, 48, 0
8, 96420, Note_on_c, 7, 48, 105
8, 96450, Note_on_c, 7, 48, 0
8, 96450, Note_on_c, 7, 48, 104
8, 96480, Note_on_c, 7, 48, 0
8, 96480, Note_on_c, 7, 48, 105
8, 96600, Note_on_c, 7, 48, 0
8, 96660, Note_on_c, 7, 48, 105
8, 96690, Note_on_c, 7, 48, 0
8, 96690, Note_on_c, 7, 48, 110
8, 96720, Note_on_c, 7, 48, 0
8, 96720, Note_on_c, 7, 48, 105
8, 96780, Note_on_c, 7, 48, 0
8, 96840, Note_on_c, 7, 48, 104
8, 96870, Note_on_c, 7, 48, 0
8, 96900, Note_on_c, 7, 48, 105
8, 96930, Note_on_c, 7, 48, 0
8, 96960, Note_on_c, 7, 48, 104
8, 97020, Note_on_c, 7, 48, 0
8, 97200, Note_on_c, 7, 48, 127
8, 97320, Note_on_c, 7, 48, 0
8, 97380, Note_on_c, 7, 48, 105
8, 97410, Note_on_c, 7, 48, 0
8, 97410, Note_on_c, 7, 48, 105
8, 97440, Note_on_c, 7, 48, 0
8, 97440, Note_on_c, 7, 48, 110
8, 97560, Note_on_c, 7, 48, 0
8, 97620, Note_on_c, 7, 48, 105
8, 97650, Note_on_c, 7, 48, 0
8, 97650, Note_on_c, 7, 48, 107
8, 97680, Note_on_c, 7, 48, 0
8, 97680, Note_on_c, 7, 48, 105
8, 97740, Note_on_c, 7, 48, 0
8, 97800, Note_on_c, 7, 48, 104
8, 97830, Note_on_c, 7, 48, 0
8, 97860, Note_on_c, 7, 48, 104
8, 97890, Note_on_c, 7, 48, 0
8, 97920, Note_on_c, 7, 48, 125
8, 97980, Note_on_c, 7, 48, 0
8, 98040, Note_on_c, 7, 48, 95
8, 98070, Note_on_c, 7, 48, 0
8, 98100, Note_on_c, 7, 48, 105
8, 98130, Note_on_c, 7, 48, 0
8, 98160, Note_on_c, 7, 48, 127
8, 98280, Note_on_c, 7, 48, 0
8, 98280, Note_on_c, 7, 48, 104
8, 98310, Note_on_c, 7, 48, 0
8, 98340, Note_on_c, 7, 48, 99
8, 98370, Note_on_c, 7, 48, 0
8, 98400, Note_on_c, 7, 48, 125
8, 98520, Note_on_c, 7, 48, 0
8, 98520, Note_on_c, 7, 48, 104
8, 98550, Note_on_c, 7, 48, 0
8, 98580, Note_on_c, 7, 48, 104
8, 98610, Note_on_c, 7, 48, 0
8, 98640, Note_on_c, 7, 43, 104
8, 98700, Note_on_c, 7, 43, 0
8, 106260, Note_on_c, 7, 48, 104
8, 106290, Note_on_c, 7, 48, 0
8, 106290, Note_on_c, 7, 48, 105
8, 106320, Note_on_c, 7, 48, 0
8, 106320, Note_on_c, 7, 48, 101
8, 106440, Note_on_c, 7, 48, 0
8, 106500, Note_on_c, 7, 48, 99
8, 106530, Note_on_c, 7, 48, 0
8, 106530, Note_on_c, 7, 48, 104
8, 106560, Note_on_c, 7, 48, 0
8, 106560, Note_on_c, 7, 48, 104
8, 106680, Note_on_c, 7, 48, 0
8, 106740, Note_on_c, 7, 48, 99
8, 106770, Note_on_c, 7, 48, 0
8, 106770, Note_on_c, 7, 48, 99
8, 106800, Note_on_c, 7, 48, 0
8, 106800, Note_on_c, 7, 48, 101
8, 106860, Note_on_c, 7, 48, 0
8, 106860, Note_on_c, 7, 48, 99
8, 106890, Note_on_c, 7, 48, 0
8, 106890, Note_on_c, 7, 48, 104
8, 106920, Note_on_c, 7, 48, 0
8, 106920, Note_on_c, 7, 48, 104
8, 106980, Note_on_c, 7, 48, 0
8, 106980, Note_on_c, 7, 48, 104
8, 107010, Note_on_c, 7, 48, 0
8, 107010, Note_on_c, 7, 48, 104
8, 107040, Note_on_c, 7, 48, 0
8, 107040, Note_on_c, 7, 48, 104
8, 107100, Note_on_c, 7, 48, 0
8, 107220, Note_on_c, 7, 48, 99
8, 107250, Note_on_c, 7, 48, 0
8, 107250, Note_on_c, 7, 48, 101
8, 107280, Note_on_c, 7, 48, 0
8, 107280, Note_on_c, 7, 48, 105
8, 107340, Note_on_c, 7, 48, 0
8, 108000, Note_on_c, 7, 43, 105
8, 108060, Note_on_c, 7, 43, 0
8, 108120, Note_on_c, 7, 48, 99
8, 108180, Note_on_c, 7, 48, 0
8, 108240, Note_on_c, 7, 48, 99
8, 108300, Note_on_c, 7, 48, 0
8, 108480, Note_on_c, 7, 43, 90
8, 108540, Note_on_c, 7, 43, 0
8, 108720, Note_on_c, 7, 43, 94
8, 108780, Note_on_c, 7, 43, 0
8, 108960, Note_on_c, 7, 43, 85
8, 109020, Note_on_c, 7, 43, 0
8, 109200, Note_on_c, 7, 48, 89
8, 109260, Note_on_c, 7, 48, 0
8, 110460, Note_on_c, 7, 43, 85
8, 110490, Note_on_c, 7, 43, 0
8, 110490, Note_on_c, 7, 43, 86
8, 110520, Note_on_c, 7, 43, 0
8, 110520, Note_on_c, 7, 43, 85
8, 110580, Note_on_c, 7, 43, 0
8, 111420, Note_on_c, 7, 43, 89
8, 111450, Note_on_c, 7, 43, 0
8, 111450, Note_on_c, 7, 43, 93
8, 111480, Note_on_c, 7, 43, 0
8, 111480, Note_on_c, 7, 43, 94
8, 111540, Note_on_c, 7, 43, 0
8, 120960, Note_on_c, 7, 43, 90
8, 121020, Note_on_c, 7, 43, 0
8, 121440, Note_on_c, 7, 48, 90
8, 121500, Note_on_c, 7, 48, 0
8, 121920, Note_on_c, 7, 43, 94
8, 121980, Note_on_c, 7, 43, 0
8, 122160, Note_on_c, 7, 43, 86
8, 122220, Note_on_c, 7, 43, 0
8, 122400, Note_on_c, 7, 43, 89
8, 122460, Note_on_c, 7, 43, 0
8, 122640, Note_on_c, 7, 43, 90
8, 122700, Note_on_c, 7, 43, 0
8, 122880, Note_on_c, 7, 43, 99
8, 122910, Note_on_c, 7, 43, 0
8, 122910, Note_on_c, 7, 43, 81
8, 122940, Note_on_c, 7, 43, 0
8, 122940, Note_on_c, 7, 43, 84
8, 122970, Note_on_c, 7, 43, 0
8, 122970, Note_on_c, 7, 43, 81
8, 123000, Note_on_c, 7, 43, 0
8, 123000, Note_on_c, 7, 43, 81
8, 123030, Note_on_c, 7, 43, 0
8, 123030, Note_on_c, 7, 43, 84
8, 123030, Note_on_c, 7, 43, 77
8, 123060, Note_on_c, 7, 43, 0
8, 123060, Note_on_c, 7, 43, 0
8, 123090, Note_on_c, 7, 43, 86
8, 123120, Note_on_c, 7, 43, 0
8, 123120, Note_on_c, 7, 43, 90
8, 123150, Note_on_c, 7, 43, 0
8, 123150, Note_on_c, 7, 43, 89
8, 123180, Note_on_c, 7, 43, 0
8, 123180, Note_on_c, 7, 43, 86
8, 123210, Note_on_c, 7, 43, 0
8, 123210, Note_on_c, 7, 43, 86
8, 123240, Note_on_c, 7, 43, 0
8, 123240, Note_on_c, 7, 43, 89
8, 123270, Note_on_c, 7, 43, 0
8, 123270, Note_on_c, 7, 43, 89
8, 123300, Note_on_c, 7, 43, 0
8, 123300, Note_on_c, 7, 43, 89
8, 123330, Note_on_c, 7, 43, 0
8, 123330, Note_on_c, 7, 43, 90
8, 123360, Note_on_c, 7, 43, 0
8, 123360, Note_on_c, 7, 43, 119
8, 123420, Note_on_c, 7, 43, 0
8, 123480, Note_on_c, 7, 43, 117
8, 123540, Note_on_c, 7, 43, 0
8, 123600, Note_on_c, 7, 43, 119
8, 123660, Note_on_c, 7, 43, 0
8, 123720, Note_on_c, 7, 43, 119
8, 123780, Note_on_c, 7, 43, 0
8, 123840, Note_on_c, 7, 43, 127
8, 123900, Note_on_c, 7, 43, 0
8, 152340, Note_on_c, 7, 48, 45
8, 152400, Note_on_c, 7, 48, 0
8, 152400, Note_on_c, 7, 43, 81
8, 152520, Note_on_c, 7, 43, 0
8, 152520, Note_on_c, 7, 43, 86
8, 152640, Note_on_c, 7, 43, 0
8, 152760, Note_on_c, 7, 43, 90
8, 152880, Note_on_c, 7, 43, 0
8, 153000, Note_on_c, 7, 43, 90
8, 153120, Note_on_c, 7, 43, 0
8, 153240, Note_on_c, 7, 43, 94
8, 153360, Note_on_c, 7, 43, 0
8, 153360, Note_on_c, 7, 48, 105
8, 153480, Note_on_c, 7, 48, 0
8, 153540, Note_on_c, 7, 48, 119
8, 153570, Note_on_c, 7, 48, 0
8, 153570, Note_on_c, 7, 48, 119
8, 153600, Note_on_c, 7, 48, 0
8, 153600, Note_on_c, 7, 48, 107
8, 153720, Note_on_c, 7, 48, 0
8, 153780, Note_on_c, 7, 48, 115
8, 153810, Note_on_c, 7, 48, 0
8, 153810, Note_on_c, 7, 48, 99
8, 153840, Note_on_c, 7, 48, 0
8, 153840, Note_on_c, 7, 48, 105
8, 153900, Note_on_c, 7, 48, 0
8, 153960, Note_on_c, 7, 48, 104
8, 153990, Note_on_c, 7, 48, 0
8, 154020, Note_on_c, 7, 48, 104
8, 154050, Note_on_c, 7, 48, 0
8, 154080, Note_on_c, 7, 48, 105
8, 154140, Note_on_c, 7, 48, 0
8, 154320, Note_on_c, 7, 48, 104
8, 154380, Note_on_c, 7, 48, 0
8, 154440, Note_on_c, 7, 48, 104
8, 154500, Note_on_c, 7, 48, 0
8, 155040, Note_on_c, 7, 43, 104
8, 155100, Note_on_c, 7, 43, 0
8, 155160, Note_on_c, 7, 43, 104
8, 155220, Note_on_c, 7, 43, 0
8, 155280, Note_on_c, 7, 48, 105
8, 155340, Note_on_c, 7, 48, 0
8, 155520, Note_on_c, 7, 43, 110
8, 155580, Note_on_c, 7, 43, 0
8, 159600, Note_on_c, 7, 43, 98
8, 159720, Note_on_c, 7, 43, 0
8, 159780, Note_on_c, 7, 43, 99
8, 159810, Note_on_c, 7, 43, 0
8, 159810, Note_on_c, 7, 43, 94
8, 159840, Note_on_c, 7, 43, 0
8, 159840, Note_on_c, 7, 43, 99
8, 159960, Note_on_c, 7, 43, 0
8, 160260, Note_on_c, 7, 43, 95
8, 160290, Note_on_c, 7, 43, 0
8, 160290, Note_on_c, 7, 43, 99
8, 160320, Note_on_c, 7, 43, 0
8, 160320, Note_on_c, 7, 43, 94
8, 160440, Note_on_c, 7, 43, 0
8, 160500, Note_on_c, 7, 43, 101
8, 160530, Note_on_c, 7, 43, 0
8, 160530, Note_on_c, 7, 43, 95
8, 160560, Note_on_c, 7, 43, 0
8, 160560, Note_on_c, 7, 43, 99
8, 160620, Note_on_c, 7, 43, 0
8, 161040, Note_on_c, 7, 43, 104
8, 161100, Note_on_c, 7, 43, 0
8, 161100, End_track
9, 0, Start_track
9, 0, MIDI_port, 0
9, 0, Title_t, "Piano"
9, 0, Control_c, 8, 0, 0
9, 0, Control_c, 8, 32, 0
9, 0, Program_c, 8, 0
9, 0, Control_c, 8, 7, 100
9, 0, Control_c, 8, 10, 64
9, 0, Control_c, 8, 93, 0
9, 0, Control_c, 8, 91, 66
9, 2270, Control_c, 8, 7, 81
9, 2400, Note_on_c, 8, 76, 77
9, 2400, Note_on_c, 8, 48, 68
9, 2460, Note_on_c, 8, 48, 0
9, 2460, Note_on_c, 8, 55, 61
9, 2460, Note_on_c, 8, 64, 65
9, 2460, Note_on_c, 8, 60, 67
9, 2520, Note_on_c, 8, 76, 0
9, 2550, Note_on_c, 8, 76, 81
9, 2580, Note_on_c, 8, 76, 0
9, 2580, Note_on_c, 8, 79, 70
9, 2610, Note_on_c, 8, 79, 0
9, 2610, Note_on_c, 8, 77, 69
9, 2640, Note_on_c, 8, 77, 0
9, 2640, Note_on_c, 8, 60, 0
9, 2640, Note_on_c, 8, 64, 0
9, 2640, Note_on_c, 8, 55, 0
9, 2640, Note_on_c, 8, 76, 74
9, 2640, Note_on_c, 8, 48, 65
9, 2700, Note_on_c, 8, 48, 0
9, 2700, Note_on_c, 8, 55, 63
9, 2700, Note_on_c, 8, 64, 70
9, 2700, Note_on_c, 8, 60, 73
9, 2760, Note_on_c, 8, 76, 0
9, 2790, Note_on_c, 8, 76, 82
9, 2820, Note_on_c, 8, 76, 0
9, 2820, Note_on_c, 8, 79, 72
9, 2850, Note_on_c, 8, 79, 0
9, 2850, Note_on_c, 8, 77, 71
9, 2880, Note_on_c, 8, 77, 0
9, 2880, Note_on_c, 8, 60, 0
9, 2880, Note_on_c, 8, 64, 0
9, 2880, Note_on_c, 8, 55, 0
9, 2880, Note_on_c, 8, 76, 84
9, 2880, Note_on_c, 8, 48, 62
9, 2910, Note_on_c, 8, 76, 0
9, 2910, Note_on_c, 8, 76, 81
9, 2940, Note_on_c, 8, 76, 0
9, 2940, Note_on_c, 8, 48, 0
9, 2940, Note_on_c, 8, 79, 78
9, 2940, Note_on_c, 8, 55, 72
9, 2940, Note_on_c, 8, 60, 76
9, 2940, Note_on_c, 8, 64, 58
9, 2970, Note_on_c, 8, 79, 0
9, 2970, Note_on_c, 8, 77, 76
9, 3000, Note_on_c, 8, 77, 0
9, 3000, Note_on_c, 8, 64, 0
9, 3000, Note_on_c, 8, 60, 0
9, 3000, Note_on_c, 8, 55, 0
9, 3000, Note_on_c, 8, 76, 77
9, 3000, Note_on_c, 8, 48, 65
9, 3030, Note_on_c, 8, 76, 0
9, 3030, Note_on_c, 8, 76, 86
9, 3060, Note_on_c, 8, 76, 0
9, 3060, Note_on_c, 8, 48, 0
9, 3060, Note_on_c, 8, 79, 84
9, 3060, Note_on_c, 8, 55, 74
9, 3060, Note_on_c, 8, 60, 73
9, 3060, Note_on_c, 8, 64, 65
9, 3090, Note_on_c, 8, 79, 0
9, 3090, Note_on_c, 8, 84, 73
9, 3120, Note_on_c, 8, 84, 0
9, 3120, Note_on_c, 8, 64, 0
9, 3120, Note_on_c, 8, 60, 0
9, 3120, Note_on_c, 8, 55, 0
9, 3120, Note_on_c, 8, 88, 80
9, 3120, Note_on_c, 8, 48, 72
9, 3180, Note_on_c, 8, 48, 0
9, 3180, Note_on_c, 8, 88, 0
9, 3180, Note_on_c, 8, 55, 58
9, 3180, Note_on_c, 8, 64, 72
9, 3180, Note_on_c, 8, 60, 68
9, 3360, Note_on_c, 8, 60, 0
9, 3360, Note_on_c, 8, 64, 0
9, 3360, Note_on_c, 8, 55, 0
9, 3360, Note_on_c, 8, 88, 74
9, 3360, Note_on_c, 8, 45, 77
9, 3380, Note_on_c, 8, 88, 0
9, 3380, Note_on_c, 8, 89, 74
9, 3400, Note_on_c, 8, 89, 0
9, 3400, Note_on_c, 8, 88, 77
9, 3420, Note_on_c, 8, 88, 0
9, 3420, Note_on_c, 8, 45, 0
9, 3420, Note_on_c, 8, 86, 80
9, 3420, Note_on_c, 8, 57, 67
9, 3420, Note_on_c, 8, 64, 67
9, 3420, Note_on_c, 8, 60, 73
9, 3450, Note_on_c, 8, 86, 0
9, 3450, Note_on_c, 8, 88, 78
9, 3480, Note_on_c, 8, 88, 0
9, 3480, Note_on_c, 8, 60, 0
9, 3480, Note_on_c, 8, 64, 0
9, 3480, Note_on_c, 8, 57, 0
9, 3480, Note_on_c, 8, 84, 69
9, 3480, Note_on_c, 8, 48, 74
9, 3500, Note_on_c, 8, 84, 0
9, 3500, Note_on_c, 8, 86, 84
9, 3520, Note_on_c, 8, 86, 0
9, 3520, Note_on_c, 8, 84, 71
9, 3540, Note_on_c, 8, 84, 0
9, 3540, Note_on_c, 8, 48, 0
9, 3540, Note_on_c, 8, 83, 76
9, 3540, Note_on_c, 8, 57, 82
9, 3540, Note_on_c, 8, 60, 72
9, 3540, Note_on_c, 8, 64, 70
9, 3570, Note_on_c, 8, 83, 0
9, 3570, Note_on_c, 8, 84, 74
9, 3600, Note_on_c, 8, 84, 0
9, 3600, Note_on_c, 8, 64, 0
9, 3600, Note_on_c, 8, 60, 0
9, 3600, Note_on_c, 8, 57, 0
9, 3600, Note_on_c, 8, 81, 72
9, 3600, Note_on_c, 8, 50, 77
9, 3660, Note_on_c, 8, 50, 0
9, 3660, Note_on_c, 8, 81, 0
9, 3660, Note_on_c, 8, 66, 61
9, 3660, Note_on_c, 8, 57, 73
9, 3660, Note_on_c, 8, 62, 69
9, 3840, Note_on_c, 8, 62, 0
9, 3840, Note_on_c, 8, 57, 0
9, 3840, Note_on_c, 8, 66, 0
9, 3840, Note_on_c, 8, 81, 80
9, 3840, Note_on_c, 8, 50, 80
9, 3860, Note_on_c, 8, 81, 0
9, 3860, Note_on_c, 8, 83, 74
9, 3880, Note_on_c, 8, 83, 0
9, 3880, Note_on_c, 8, 81, 59
9, 3900, Note_on_c, 8, 81, 0
9, 3900, Note_on_c, 8, 50, 0
9, 3900, Note_on_c, 8, 79, 71
9, 3900, Note_on_c, 8, 66, 65
9, 3900, Note_on_c, 8, 57, 81
9, 3900, Note_on_c, 8, 62, 80
9, 3930, Note_on_c, 8, 79, 0
9, 3930, Note_on_c, 8, 81, 69
9, 3960, Note_on_c, 8, 81, 0
9, 3960, Note_on_c, 8, 86, 72
9, 3980, Note_on_c, 8, 86, 0
9, 3980, Note_on_c, 8, 88, 67
9, 4000, Note_on_c, 8, 88, 0
9, 4000, Note_on_c, 8, 86, 76
9, 4020, Note_on_c, 8, 86, 0
9, 4020, Note_on_c, 8, 84, 73
9, 4050, Note_on_c, 8, 84, 0
9, 4050, Note_on_c, 8, 86, 73
9, 4080, Note_on_c, 8, 86, 0
9, 4080, Note_on_c, 8, 66, 0
9, 4080, Note_on_c, 8, 57, 0
9, 4080, Note_on_c, 8, 62, 0
9, 4080, Note_on_c, 8, 83, 69
9, 4080, Note_on_c, 8, 55, 73
9, 4100, Note_on_c, 8, 83, 0
9, 4100, Note_on_c, 8, 84, 73
9, 4120, Note_on_c, 8, 84, 0
9, 4120, Note_on_c, 8, 83, 78
9, 4140, Note_on_c, 8, 83, 0
9, 4140, Note_on_c, 8, 55, 0
9, 4140, Note_on_c, 8, 81, 78
9, 4140, Note_on_c, 8, 67, 58
9, 4140, Note_on_c, 8, 62, 65
9, 4140, Note_on_c, 8, 59, 62
9, 4170, Note_on_c, 8, 81, 0
9, 4170, Note_on_c, 8, 83, 65
9, 4200, Note_on_c, 8, 83, 0
9, 4200, Note_on_c, 8, 79, 73
9, 4260, Note_on_c, 8, 79, 0
9, 4320, Note_on_c, 8, 67, 0
9, 4320, Note_on_c, 8, 62, 0
9, 4320, Note_on_c, 8, 59, 0
9, 4320, Note_on_c, 8, 81, 64
9, 4320, Note_on_c, 8, 48, 77
9, 4380, Note_on_c, 8, 48, 0
9, 4380, Note_on_c, 8, 81, 0
9, 4380, Note_on_c, 8, 57, 74
9, 4380, Note_on_c, 8, 60, 73
9, 4380, Note_on_c, 8, 64, 72
9, 4440, Note_on_c, 8, 64, 0
9, 4440, Note_on_c, 8, 60, 0
9, 4440, Note_on_c, 8, 57, 0
9, 4440, Note_on_c, 8, 74, 73
9, 4440, Note_on_c, 8, 50, 93
9, 4500, Note_on_c, 8, 50, 0
9, 4500, Note_on_c, 8, 74, 0
9, 4500, Note_on_c, 8, 54, 68
9, 4500, Note_on_c, 8, 62, 64
9, 4500, Note_on_c, 8, 57, 86
9, 4560, Note_on_c, 8, 57, 0
9, 4560, Note_on_c, 8, 62, 0
9, 4560, Note_on_c, 8, 54, 0
9, 4560, Note_on_c, 8, 71, 71
9, 4560, Note_on_c, 8, 43, 77
9, 4620, Note_on_c, 8, 43, 0
9, 4620, Note_on_c, 8, 59, 68
9, 4620, Note_on_c, 8, 55, 72
9, 4620, Note_on_c, 8, 50, 59
9, 4800, Note_on_c, 8, 50, 0
9, 4800, Note_on_c, 8, 71, 0
9, 4800, Note_on_c, 8, 59, 0
9, 4800, Note_on_c, 8, 55, 0
9, 5760, Note_on_c, 8, 79, 74
9, 5760, Note_on_c, 8, 74, 65
9, 5760, Note_on_c, 8, 59, 72
9, 5790, Note_on_c, 8, 59, 0
9, 5790, Note_on_c, 8, 67, 46
9, 5820, Note_on_c, 8, 67, 0
9, 5820, Note_on_c, 8, 79, 0
9, 5820, Note_on_c, 8, 78, 70
9, 5820, Note_on_c, 8, 62, 67
9, 5850, Note_on_c, 8, 62, 0
9, 5850, Note_on_c, 8, 78, 0
9, 5850, Note_on_c, 8, 79, 80
9, 5850, Note_on_c, 8, 67, 59
9, 5880, Note_on_c, 8, 67, 0
9, 5880, Note_on_c, 8, 79, 0
9, 5880, Note_on_c, 8, 81, 76
9, 5880, Note_on_c, 8, 60, 72
9, 5910, Note_on_c, 8, 60, 0
9, 5910, Note_on_c, 8, 69, 76
9, 5940, Note_on_c, 8, 69, 0
9, 5940, Note_on_c, 8, 81, 0
9, 5940, Note_on_c, 8, 79, 74
9, 5940, Note_on_c, 8, 62, 73
9, 5970, Note_on_c, 8, 62, 0
9, 5970, Note_on_c, 8, 79, 0
9, 5970, Note_on_c, 8, 78, 80
9, 5970, Note_on_c, 8, 69, 81
9, 6000, Note_on_c, 8, 69, 0
9, 6000, Note_on_c, 8, 78, 0
9, 6000, Note_on_c, 8, 79, 67
9, 6000, Note_on_c, 8, 59, 73
9, 6030, Note_on_c, 8, 59, 0
9, 6030, Note_on_c, 8, 67, 71
9, 6060, Note_on_c, 8, 67, 0
9, 6060, Note_on_c, 8, 79, 0
9, 6060, Note_on_c, 8, 74, 0
9, 6060, Note_on_c, 8, 86, 80
9, 6060, Note_on_c, 8, 74, 74
9, 6060, Note_on_c, 8, 62, 81
9, 6090, Note_on_c, 8, 62, 0
9, 6090, Note_on_c, 8, 67, 74
9, 6120, Note_on_c, 8, 67, 0
9, 6120, Note_on_c, 8, 74, 0
9, 6120, Note_on_c, 8, 86, 0
9, 6120, Note_on_c, 8, 84, 68
9, 6120, Note_on_c, 8, 72, 82
9, 6120, Note_on_c, 8, 57, 85
9, 6150, Note_on_c, 8, 57, 0
9, 6150, Note_on_c, 8, 66, 67
9, 6180, Note_on_c, 8, 66, 0
9, 6180, Note_on_c, 8, 62, 76
9, 6210, Note_on_c, 8, 62, 0
9, 6210, Note_on_c, 8, 66, 73
9, 6240, Note_on_c, 8, 66, 0
9, 6240, Note_on_c, 8, 72, 0
9, 6240, Note_on_c, 8, 84, 0
9, 6240, Note_on_c, 8, 83, 76
9, 6240, Note_on_c, 8, 71, 72
9, 6240, Note_on_c, 8, 55, 68
9, 6270, Note_on_c, 8, 55, 0
9, 6270, Note_on_c, 8, 67, 68
9, 6300, Note_on_c, 8, 67, 0
9, 6300, Note_on_c, 8, 83, 0
9, 6300, Note_on_c, 8, 81, 76
9, 6300, Note_on_c, 8, 62, 73
9, 6330, Note_on_c, 8, 62, 0
9, 6330, Note_on_c, 8, 81, 0
9, 6330, Note_on_c, 8, 79, 71
9, 6330, Note_on_c, 8, 67, 71
9, 6360, Note_on_c, 8, 67, 0
9, 6360, Note_on_c, 8, 79, 0
9, 6360, Note_on_c, 8, 71, 0
9, 6360, Note_on_c, 8, 81, 77
9, 6360, Note_on_c, 8, 69, 72
9, 6360, Note_on_c, 8, 54, 72
9, 6390, Note_on_c, 8, 54, 0
9, 6390, Note_on_c, 8, 66, 73
9, 6420, Note_on_c, 8, 66, 0
9, 6420, Note_on_c, 8, 81, 0
9, 6420, Note_on_c, 8, 79, 77
9, 6420, Note_on_c, 8, 62, 84
9, 6450, Note_on_c, 8, 62, 0
9, 6450, Note_on_c, 8, 79, 0
9, 6450, Note_on_c, 8, 78, 74
9, 6450, Note_on_c, 8, 66, 72
9, 6480, Note_on_c, 8, 66, 0
9, 6480, Note_on_c, 8, 78, 0
9, 6480, Note_on_c, 8, 69, 0
9, 6480, Note_on_c, 8, 79, 71
9, 6480, Note_on_c, 8, 71, 70
9, 6480, Note_on_c, 8, 52, 77
9, 6510, Note_on_c, 8, 52, 0
9, 6510, Note_on_c, 8, 64, 70
9, 6540, Note_on_c, 8, 64, 0
9, 6540, Note_on_c, 8, 71, 0
9, 6540, Note_on_c, 8, 79, 0
9, 6540, Note_on_c, 8, 76, 81
9, 6540, Note_on_c, 8, 73, 65
9, 6540, Note_on_c, 8, 57, 85
9, 6570, Note_on_c, 8, 57, 0
9, 6570, Note_on_c, 8, 69, 70
9, 6600, Note_on_c, 8, 69, 0
9, 6600, Note_on_c, 8, 73, 0
9, 6600, Note_on_c, 8, 76, 0
9, 6600, Note_on_c, 8, 74, 82
9, 6600, Note_on_c, 8, 74, 76
9, 6600, Note_on_c, 8, 62, 74
9, 6600, Note_on_c, 8, 66, 72
9, 6660, Note_on_c, 8, 66, 0
9, 6660, Note_on_c, 8, 74, 0
9, 6660, Note_on_c, 8, 74, 0
9, 6660, Note_on_c, 8, 62, 0
9, 6840, Control_c, 8, 7, 99
9, 6960, Note_on_c, 8, 64, 43
9, 6960, Note_on_c, 8, 57, 50
9, 6960, Note_on_c, 8, 71, 45
9, 6960, Note_on_c, 8, 79, 61
9, 6990, Note_on_c, 8, 79, 0
9, 6990, Note_on_c, 8, 64, 0
9, 6990, Note_on_c, 8, 57, 0
9, 6990, Note_on_c, 8, 71, 0
9, 6990, Note_on_c, 8, 76, 65
9, 6990, Note_on_c, 8, 73, 55
9, 6990, Note_on_c, 8, 67, 56
9, 7020, Note_on_c, 8, 67, 0
9, 7020, Note_on_c, 8, 73, 0
9, 7020, Note_on_c, 8, 76, 0
9, 7020, Note_on_c, 8, 66, 57
9, 7020, Note_on_c, 8, 62, 62
9, 7020, Note_on_c, 8, 74, 65
9, 7050, Note_on_c, 8, 74, 0
9, 7050, Note_on_c, 8, 62, 0
9, 7050, Note_on_c, 8, 66, 0
9, 10560, Note_on_c, 8, 59, 99
9, 10590, Note_on_c, 8, 59, 0
9, 10590, Note_on_c, 8, 62, 90
9, 10620, Note_on_c, 8, 62, 0
9, 10620, Note_on_c, 8, 64, 89
9, 10620, Note_on_c, 8, 86, 119
9, 10650, Note_on_c, 8, 64, 0
9, 10650, Note_on_c, 8, 66, 94
9, 10680, Note_on_c, 8, 66, 0
9, 10680, Note_on_c, 8, 67, 84
9, 10710, Note_on_c, 8, 67, 0
9, 10710, Note_on_c, 8, 66, 94
9, 10740, Note_on_c, 8, 66, 0
9, 10740, Note_on_c, 8, 86, 0
9, 10740, Note_on_c, 8, 67, 84
9, 10740, Note_on_c, 8, 74, 105
9, 10770, Note_on_c, 8, 74, 0
9, 10770, Note_on_c, 8, 67, 0
9, 10770, Note_on_c, 8, 68, 93
9, 10800, Note_on_c, 8, 68, 0
9, 10800, Note_on_c, 8, 69, 90
9, 10800, Note_on_c, 8, 84, 99
9, 10830, Note_on_c, 8, 84, 0
9, 10830, Note_on_c, 8, 69, 0
9, 10830, Note_on_c, 8, 62, 94
9, 10860, Note_on_c, 8, 62, 0
9, 10860, Note_on_c, 8, 64, 90
9, 10860, Note_on_c, 8, 72, 125
9, 10890, Note_on_c, 8, 72, 0
9, 10890, Note_on_c, 8, 64, 0
9, 10890, Note_on_c, 8, 66, 93
9, 10920, Note_on_c, 8, 66, 0
9, 10920, Note_on_c, 8, 67, 85
9, 10920, Note_on_c, 8, 83, 104
9, 10950, Note_on_c, 8, 83, 0
9, 10950, Note_on_c, 8, 67, 0
9, 10950, Note_on_c, 8, 66, 89
9, 10980, Note_on_c, 8, 66, 0
9, 10980, Note_on_c, 8, 64, 104
9, 10980, Note_on_c, 8, 71, 104
9, 11010, Note_on_c, 8, 71, 0
9, 11010, Note_on_c, 8, 64, 0
9, 11010, Note_on_c, 8, 62, 95
9, 11040, Note_on_c, 8, 62, 0
9, 11040, Note_on_c, 8, 60, 93
9, 11040, Note_on_c, 8, 81, 104
9, 11070, Note_on_c, 8, 81, 0
9, 11070, Note_on_c, 8, 60, 0
9, 11070, Note_on_c, 8, 59, 94
9, 11100, Note_on_c, 8, 59, 0
9, 11100, Note_on_c, 8, 60, 93
9, 11100, Note_on_c, 8, 69, 104
9, 11130, Note_on_c, 8, 69, 0
9, 11130, Note_on_c, 8, 60, 0
9, 11130, Note_on_c, 8, 62, 85
9, 11160, Note_on_c, 8, 62, 0
9, 11160, Note_on_c, 8, 59, 99
9, 11160, Note_on_c, 8, 79, 99
9, 11190, Note_on_c, 8, 79, 0
9, 11190, Note_on_c, 8, 59, 0
9, 11190, Note_on_c, 8, 55, 94
9, 11220, Note_on_c, 8, 55, 0
9, 11220, Note_on_c, 8, 57, 94
9, 11220, Note_on_c, 8, 67, 95
9, 11250, Note_on_c, 8, 67, 0
9, 11250, Note_on_c, 8, 57, 0
9, 11250, Note_on_c, 8, 59, 101
9, 11280, Note_on_c, 8, 59, 0
9, 11280, Note_on_c, 8, 61, 94
9, 11280, Note_on_c, 8, 81, 104
9, 11310, Note_on_c, 8, 81, 0
9, 11310, Note_on_c, 8, 61, 0
9, 11310, Note_on_c, 8, 57, 101
9, 11340, Note_on_c, 8, 57, 0
9, 11340, Note_on_c, 8, 59, 99
9, 11340, Note_on_c, 8, 69, 104
9, 11370, Note_on_c, 8, 69, 0
9, 11370, Note_on_c, 8, 59, 0
9, 11370, Note_on_c, 8, 61, 86
9, 11400, Note_on_c, 8, 61, 0
9, 11400, Note_on_c, 8, 63, 82
9, 11400, Note_on_c, 8, 78, 95
9, 11430, Note_on_c, 8, 78, 0
9, 11430, Note_on_c, 8, 63, 0
9, 11430, Note_on_c, 8, 59, 105
9, 11460, Note_on_c, 8, 59, 0
9, 11460, Note_on_c, 8, 61, 94
9, 11460, Note_on_c, 8, 66, 99
9, 11490, Note_on_c, 8, 66, 0
9, 11490, Note_on_c, 8, 61, 0
9, 11490, Note_on_c, 8, 63, 93
9, 11520, Note_on_c, 8, 63, 0
9, 12480, Note_on_c, 8, 55, 94
9, 12510, Note_on_c, 8, 55, 0
9, 12510, Note_on_c, 8, 59, 99
9, 12540, Note_on_c, 8, 59, 0
9, 12540, Note_on_c, 8, 61, 86
9, 12540, Note_on_c, 8, 83, 115
9, 12570, Note_on_c, 8, 61, 0
9, 12570, Note_on_c, 8, 63, 95
9, 12600, Note_on_c, 8, 63, 0
9, 12600, Note_on_c, 8, 64, 89
9, 12630, Note_on_c, 8, 64, 0
9, 12630, Note_on_c, 8, 63, 93
9, 12660, Note_on_c, 8, 63, 0
9, 12660, Note_on_c, 8, 83, 0
9, 12660, Note_on_c, 8, 64, 90
9, 12660, Note_on_c, 8, 71, 95
9, 12690, Note_on_c, 8, 71, 0
9, 12690, Note_on_c, 8, 64, 0
9, 12690, Note_on_c, 8, 65, 99
9, 12720, Note_on_c, 8, 65, 0
9, 12720, Note_on_c, 8, 66, 95
9, 12720, Note_on_c, 8, 81, 93
9, 12750, Note_on_c, 8, 81, 0
9, 12750, Note_on_c, 8, 66, 0
9, 12750, Note_on_c, 8, 59, 95
9, 12780, Note_on_c, 8, 59, 0
9, 12780, Note_on_c, 8, 61, 86
9, 12780, Note_on_c, 8, 69, 101
9, 12810, Note_on_c, 8, 69, 0
9, 12810, Note_on_c, 8, 61, 0
9, 12810, Note_on_c, 8, 63, 93
9, 12840, Note_on_c, 8, 63, 0
9, 12840, Note_on_c, 8, 64, 94
9, 12840, Note_on_c, 8, 79, 86
9, 12870, Note_on_c, 8, 79, 0
9, 12870, Note_on_c, 8, 64, 0
9, 12870, Note_on_c, 8, 62, 95
9, 12900, Note_on_c, 8, 62, 0
9, 12900, Note_on_c, 8, 60, 94
9, 12900, Note_on_c, 8, 67, 95
9, 12930, Note_on_c, 8, 67, 0
9, 12930, Note_on_c, 8, 60, 0
9, 12930, Note_on_c, 8, 59, 95
9, 12960, Note_on_c, 8, 59, 0
9, 12960, Note_on_c, 8, 57, 104
9, 12960, Note_on_c, 8, 78, 89
9, 12990, Note_on_c, 8, 78, 0
9, 12990, Note_on_c, 8, 57, 0
9, 12990, Note_on_c, 8, 55, 89
9, 13020, Note_on_c, 8, 55, 0
9, 13020, Note_on_c, 8, 57, 104
9, 13020, Note_on_c, 8, 66, 99
9, 13050, Note_on_c, 8, 66, 0
9, 13050, Note_on_c, 8, 57, 0
9, 13050, Note_on_c, 8, 59, 89
9, 13080, Note_on_c, 8, 59, 0
9, 13080, Note_on_c, 8, 55, 94
9, 13080, Note_on_c, 8, 76, 90
9, 13110, Note_on_c, 8, 76, 0
9, 13110, Note_on_c, 8, 55, 0
9, 13110, Note_on_c, 8, 54, 93
9, 13140, Note_on_c, 8, 54, 0
9, 13140, Note_on_c, 8, 55, 95
9, 13140, Note_on_c, 8, 64, 104
9, 13170, Note_on_c, 8, 64, 0
9, 13170, Note_on_c, 8, 55, 0
9, 13170, Note_on_c, 8, 59, 94
9, 13200, Note_on_c, 8, 59, 0
9, 13200, Note_on_c, 8, 54, 98
9, 13200, Note_on_c, 8, 75, 95
9, 13230, Note_on_c, 8, 75, 0
9, 13230, Note_on_c, 8, 54, 0
9, 13230, Note_on_c, 8, 52, 99
9, 13260, Note_on_c, 8, 52, 0
9, 13260, Note_on_c, 8, 54, 94
9, 13260, Note_on_c, 8, 63, 94
9, 13290, Note_on_c, 8, 63, 0
9, 13290, Note_on_c, 8, 54, 0
9, 13290, Note_on_c, 8, 57, 98
9, 13320, Note_on_c, 8, 57, 0
9, 13320, Note_on_c, 8, 56, 95
9, 13320, Note_on_c, 8, 74, 95
9, 13350, Note_on_c, 8, 74, 0
9, 13350, Note_on_c, 8, 56, 0
9, 13350, Note_on_c, 8, 54, 89
9, 13380, Note_on_c, 8, 54, 0
9, 13380, Note_on_c, 8, 56, 90
9, 13380, Note_on_c, 8, 62, 99
9, 13410, Note_on_c, 8, 62, 0
9, 13410, Note_on_c, 8, 56, 0
9, 13410, Note_on_c, 8, 59, 93
9, 13440, Note_on_c, 8, 59, 0
9, 13680, Note_on_c, 8, 57, 105
9, 13680, Note_on_c, 8, 73, 76
9, 13680, Note_on_c, 8, 81, 76
9, 13710, Note_on_c, 8, 81, 0
9, 13710, Note_on_c, 8, 73, 0
9, 13710, Note_on_c, 8, 57, 0
9, 13710, Note_on_c, 8, 61, 64
9, 13740, Note_on_c, 8, 61, 0
9, 13740, Note_on_c, 8, 59, 94
9, 13740, Note_on_c, 8, 73, 76
9, 13740, Note_on_c, 8, 69, 99
9, 13770, Note_on_c, 8, 69, 0
9, 13770, Note_on_c, 8, 73, 0
9, 13770, Note_on_c, 8, 59, 0
9, 13770, Note_on_c, 8, 57, 99
9, 13800, Note_on_c, 8, 57, 0
9, 13800, Note_on_c, 8, 56, 89
9, 13800, Note_on_c, 8, 83, 89
9, 13800, Note_on_c, 8, 74, 104
9, 13830, Note_on_c, 8, 74, 0
9, 13830, Note_on_c, 8, 83, 0
9, 13830, Note_on_c, 8, 56, 0
9, 13830, Note_on_c, 8, 52, 99
9, 13860, Note_on_c, 8, 52, 0
9, 13860, Note_on_c, 8, 54, 86
9, 13860, Note_on_c, 8, 71, 90
9, 13860, Note_on_c, 8, 74, 90
9, 13890, Note_on_c, 8, 74, 0
9, 13890, Note_on_c, 8, 71, 0
9, 13890, Note_on_c, 8, 54, 0
9, 13890, Note_on_c, 8, 56, 94
9, 13920, Note_on_c, 8, 56, 0
9, 14160, Note_on_c, 8, 57, 99
9, 14160, Note_on_c, 8, 73, 82
9, 14160, Note_on_c, 8, 81, 84
9, 14190, Note_on_c, 8, 81, 0
9, 14190, Note_on_c, 8, 73, 0
9, 14190, Note_on_c, 8, 57, 0
9, 14190, Note_on_c, 8, 61, 73
9, 14220, Note_on_c, 8, 61, 0
9, 14220, Note_on_c, 8, 59, 99
9, 14220, Note_on_c, 8, 73, 84
9, 14220, Note_on_c, 8, 69, 99
9, 14250, Note_on_c, 8, 69, 0
9, 14250, Note_on_c, 8, 73, 0
9, 14250, Note_on_c, 8, 59, 0
9, 14250, Note_on_c, 8, 57, 101
9, 14280, Note_on_c, 8, 57, 0
9, 14280, Note_on_c, 8, 56, 90
9, 14280, Note_on_c, 8, 83, 80
9, 14280, Note_on_c, 8, 74, 104
9, 14310, Note_on_c, 8, 74, 0
9, 14310, Note_on_c, 8, 83, 0
9, 14310, Note_on_c, 8, 56, 0
9, 14310, Note_on_c, 8, 52, 86
9, 14340, Note_on_c, 8, 52, 0
9, 14340, Note_on_c, 8, 54, 90
9, 14340, Note_on_c, 8, 71, 95
9, 14340, Note_on_c, 8, 74, 94
9, 14370, Note_on_c, 8, 74, 0
9, 14370, Note_on_c, 8, 71, 0
9, 14370, Note_on_c, 8, 54, 0
9, 14370, Note_on_c, 8, 56, 93
9, 14400, Note_on_c, 8, 56, 0
9, 14400, Note_on_c, 8, 57, 99
9, 14400, Note_on_c, 8, 81, 89
9, 14400, Note_on_c, 8, 73, 93
9, 14430, Note_on_c, 8, 73, 0
9, 14430, Note_on_c, 8, 81, 0
9, 14430, Note_on_c, 8, 57, 0
9, 14460, Note_on_c, 8, 44, 89
9, 14460, Note_on_c, 8, 77, 81
9, 14490, Note_on_c, 8, 77, 0
9, 14490, Note_on_c, 8, 44, 0
9, 14490, Note_on_c, 8, 56, 95
9, 14490, Note_on_c, 8, 74, 105
9, 14520, Note_on_c, 8, 74, 0
9, 14520, Note_on_c, 8, 56, 0
9, 14520, Note_on_c, 8, 45, 89
9, 14520, Note_on_c, 8, 76, 90
9, 14550, Note_on_c, 8, 76, 0
9, 14550, Note_on_c, 8, 45, 0
9, 14550, Note_on_c, 8, 57, 94
9, 14550, Note_on_c, 8, 73, 81
9, 14580, Note_on_c, 8, 73, 0
9, 14580, Note_on_c, 8, 57, 0
9, 14580, Note_on_c, 8, 44, 94
9, 14580, Note_on_c, 8, 77, 86
9, 14610, Note_on_c, 8, 77, 0
9, 14610, Note_on_c, 8, 44, 0
9, 14610, Note_on_c, 8, 56, 99
9, 14610, Note_on_c, 8, 74, 95
9, 14640, Note_on_c, 8, 74, 0
9, 14640, Note_on_c, 8, 56, 0
9, 14640, Note_on_c, 8, 45, 90
9, 14640, Note_on_c, 8, 76, 89
9, 14670, Note_on_c, 8, 76, 0
9, 14670, Note_on_c, 8, 45, 0
9, 14670, Note_on_c, 8, 57, 99
9, 14670, Note_on_c, 8, 73, 86
9, 14700, Note_on_c, 8, 73, 0
9, 14700, Note_on_c, 8, 57, 0
9, 14700, Note_on_c, 8, 44, 93
9, 14700, Note_on_c, 8, 77, 81
9, 14730, Note_on_c, 8, 77, 0
9, 14730, Note_on_c, 8, 44, 0
9, 14730, Note_on_c, 8, 56, 80
9, 14730, Note_on_c, 8, 74, 104
9, 14760, Note_on_c, 8, 74, 0
9, 14760, Note_on_c, 8, 56, 0
9, 14760, Note_on_c, 8, 45, 94
9, 14760, Note_on_c, 8, 76, 94
9, 14790, Note_on_c, 8, 76, 0
9, 14790, Note_on_c, 8, 45, 0
9, 14790, Note_on_c, 8, 57, 95
9, 14790, Note_on_c, 8, 73, 86
9, 14820, Note_on_c, 8, 73, 0
9, 14820, Note_on_c, 8, 57, 0
9, 14820, Note_on_c, 8, 46, 110
9, 14820, Note_on_c, 8, 79, 115
9, 14850, Note_on_c, 8, 79, 0
9, 14850, Note_on_c, 8, 46, 0
9, 14850, Note_on_c, 8, 58, 81
9, 14850, Note_on_c, 8, 76, 99
9, 14880, Note_on_c, 8, 76, 0
9, 14880, Note_on_c, 8, 58, 0
9, 14880, Note_on_c, 8, 47, 101
9, 14880, Note_on_c, 8, 78, 89
9, 14910, Note_on_c, 8, 78, 0
9, 14910, Note_on_c, 8, 47, 0
9, 14910, Note_on_c, 8, 59, 84
9, 14910, Note_on_c, 8, 75, 95
9, 14940, Note_on_c, 8, 75, 0
9, 14940, Note_on_c, 8, 59, 0
9, 14940, Note_on_c, 8, 46, 95
9, 14940, Note_on_c, 8, 79, 89
9, 14970, Note_on_c, 8, 79, 0
9, 14970, Note_on_c, 8, 46, 0
9, 14970, Note_on_c, 8, 58, 74
9, 14970, Note_on_c, 8, 76, 98
9, 15000, Note_on_c, 8, 76, 0
9, 15000, Note_on_c, 8, 58, 0
9, 15000, Note_on_c, 8, 47, 99
9, 15000, Note_on_c, 8, 78, 86
9, 15030, Note_on_c, 8, 78, 0
9, 15030, Note_on_c, 8, 47, 0
9, 15030, Note_on_c, 8, 59, 84
9, 15030, Note_on_c, 8, 75, 95
9, 15060, Note_on_c, 8, 75, 0
9, 15060, Note_on_c, 8, 59, 0
9, 15060, Note_on_c, 8, 48, 112
9, 15060, Note_on_c, 8, 81, 112
9, 15090, Note_on_c, 8, 81, 0
9, 15090, Note_on_c, 8, 48, 0
9, 15090, Note_on_c, 8, 60, 81
9, 15090, Note_on_c, 8, 78, 81
9, 15120, Note_on_c, 8, 78, 0
9, 15120, Note_on_c, 8, 60, 0
9, 15120, Note_on_c, 8, 49, 86
9, 15120, Note_on_c, 8, 80, 95
9, 15150, Note_on_c, 8, 80, 0
9, 15150, Note_on_c, 8, 49, 0
9, 15150, Note_on_c, 8, 61, 76
9, 15150, Note_on_c, 8, 77, 93
9, 15180, Note_on_c, 8, 77, 0
9, 15180, Note_on_c, 8, 61, 0
9, 15180, Note_on_c, 8, 49, 112
9, 15180, Note_on_c, 8, 82, 119
9, 15210, Note_on_c, 8, 82, 0
9, 15210, Note_on_c, 8, 49, 0
9, 15210, Note_on_c, 8, 61, 73
9, 15210, Note_on_c, 8, 79, 95
9, 15240, Note_on_c, 8, 79, 0
9, 15240, Note_on_c, 8, 61, 0
9, 15240, Note_on_c, 8, 50, 94
9, 15240, Note_on_c, 8, 81, 95
9, 15270, Note_on_c, 8, 81, 0
9, 15270, Note_on_c, 8, 50, 0
9, 15270, Note_on_c, 8, 62, 76
9, 15270, Note_on_c, 8, 78, 86
9, 15300, Note_on_c, 8, 78, 0
9, 15300, Note_on_c, 8, 62, 0
9, 15300, Note_on_c, 8, 51, 112
9, 15300, Note_on_c, 8, 84, 119
9, 15330, Note_on_c, 8, 84, 0
9, 15330, Note_on_c, 8, 51, 0
9, 15330, Note_on_c, 8, 63, 76
9, 15330, Note_on_c, 8, 81, 93
9, 15360, Note_on_c, 8, 81, 0
9, 15360, Note_on_c, 8, 63, 0
9, 15360, Note_on_c, 8, 52, 94
9, 15360, Note_on_c, 8, 83, 94
9, 15390, Note_on_c, 8, 83, 0
9, 15390, Note_on_c, 8, 52, 0
9, 15390, Note_on_c, 8, 64, 85
9, 15390, Note_on_c, 8, 80, 94
9, 15420, Note_on_c, 8, 80, 0
9, 15420, Note_on_c, 8, 64, 0
9, 15420, Note_on_c, 8, 53, 110
9, 15420, Note_on_c, 8, 86, 119
9, 15450, Note_on_c, 8, 86, 0
9, 15450, Note_on_c, 8, 53, 0
9, 15450, Note_on_c, 8, 65, 85
9, 15450, Note_on_c, 8, 83, 95
9, 15480, Note_on_c, 8, 83, 0
9, 15480, Note_on_c, 8, 65, 0
9, 15480, Note_on_c, 8, 54, 89
9, 15480, Note_on_c, 8, 85, 94
9, 15510, Note_on_c, 8, 85, 0
9, 15510, Note_on_c, 8, 54, 0
9, 15510, Note_on_c, 8, 66, 76
9, 15510, Note_on_c, 8, 82, 94
9, 15540, Note_on_c, 8, 82, 0
9, 15540, Note_on_c, 8, 66, 0
9, 15540, Note_on_c, 8, 54, 112
9, 15540, Note_on_c, 8, 87, 127
9, 15570, Note_on_c, 8, 87, 0
9, 15570, Note_on_c, 8, 54, 0
9, 15570, Note_on_c, 8, 66, 76
9, 15570, Note_on_c, 8, 84, 94
9, 15600, Note_on_c, 8, 84, 0
9, 15600, Note_on_c, 8, 66, 0
9, 15600, Note_on_c, 8, 55, 94
9, 15600, Note_on_c, 8, 86, 94
9, 15630, Note_on_c, 8, 86, 0
9, 15630, Note_on_c, 8, 55, 0
9, 15630, Note_on_c, 8, 67, 82
9, 15630, Note_on_c, 8, 83, 93
9, 15660, Note_on_c, 8, 83, 0
9, 15660, Note_on_c, 8, 67, 0
9, 15660, Note_on_c, 8, 56, 90
9, 15660, Note_on_c, 8, 89, 94
9, 15690, Note_on_c, 8, 89, 0
9, 15690, Note_on_c, 8, 56, 0
9, 15690, Note_on_c, 8, 68, 89
9, 15690, Note_on_c, 8, 86, 99
9, 15720, Note_on_c, 8, 86, 0
9, 15720, Note_on_c, 8, 68, 0
9, 15720, Note_on_c, 8, 57, 95
9, 15720, Note_on_c, 8, 88, 95
9, 15750, Note_on_c, 8, 88, 0
9, 15750, Note_on_c, 8, 57, 0
9, 15750, Note_on_c, 8, 69, 94
9, 15750, Note_on_c, 8, 85, 93
9, 15780, Note_on_c, 8, 85, 0
9, 15780, Note_on_c, 8, 69, 0
9, 15780, Note_on_c, 8, 56, 99
9, 15780, Note_on_c, 8, 89, 99
9, 15810, Note_on_c, 8, 89, 0
9, 15810, Note_on_c, 8, 56, 0
9, 15810, Note_on_c, 8, 68, 86
9, 15810, Note_on_c, 8, 86, 101
9, 15840, Note_on_c, 8, 86, 0
9, 15840, Note_on_c, 8, 68, 0
9, 15840, Note_on_c, 8, 57, 99
9, 15840, Note_on_c, 8, 69, 93
9, 15840, Note_on_c, 8, 88, 94
9, 15870, Note_on_c, 8, 88, 0
9, 15870, Note_on_c, 8, 85, 93
9, 15900, Note_on_c, 8, 85, 0
9, 15900, Note_on_c, 8, 69, 0
9, 15900, Note_on_c, 8, 57, 0
9, 15900, Note_on_c, 8, 80, 86
9, 15900, Note_on_c, 8, 89, 86
9, 15930, Note_on_c, 8, 89, 0
9, 15930, Note_on_c, 8, 86, 89
9, 15960, Note_on_c, 8, 86, 0
9, 15960, Note_on_c, 8, 80, 0
9, 15960, Note_on_c, 8, 81, 58
9, 15960, Note_on_c, 8, 88, 78
9, 15990, Note_on_c, 8, 88, 0
9, 15990, Note_on_c, 8, 85, 59
9, 16020, Note_on_c, 8, 85, 0
9, 16020, Note_on_c, 8, 81, 0
9, 16020, Note_on_c, 8, 80, 45
9, 16020, Note_on_c, 8, 89, 68
9, 16050, Note_on_c, 8, 89, 0
9, 16050, Note_on_c, 8, 86, 30
9, 16080, Note_on_c, 8, 86, 0
9, 16080, Note_on_c, 8, 80, 0
9, 16080, Note_on_c, 8, 81, 62
9, 16080, Note_on_c, 8, 85, 53
9, 16080, Note_on_c, 8, 88, 74
9, 16120, Note_on_c, 8, 88, 0
9, 16120, Note_on_c, 8, 85, 0
9, 16120, Note_on_c, 8, 86, 86
9, 16160, Note_on_c, 8, 86, 0
9, 16160, Note_on_c, 8, 85, 70
9, 16200, Note_on_c, 8, 85, 0
9, 16200, Note_on_c, 8, 81, 0
9, 16200, Note_on_c, 8, 69, 72
9, 16200, Note_on_c, 8, 76, 50
9, 16200, Note_on_c, 8, 73, 60
9, 16200, Note_on_c, 8, 83, 67
9, 16240, Note_on_c, 8, 83, 0
9, 16240, Note_on_c, 8, 85, 63
9, 16280, Note_on_c, 8, 85, 0
9, 16280, Note_on_c, 8, 81, 72
9, 16320, Note_on_c, 8, 81, 0
9, 16320, Note_on_c, 8, 69, 0
9, 16320, Note_on_c, 8, 76, 0
9, 16320, Note_on_c, 8, 73, 0
9, 16320, Note_on_c, 8, 77, 57
9, 16320, Note_on_c, 8, 69, 72
9, 16320, Note_on_c, 8, 74, 72
9, 16320, Note_on_c, 8, 80, 72
9, 16360, Note_on_c, 8, 80, 0
9, 16360, Note_on_c, 8, 81, 64
9, 16400, Note_on_c, 8, 81, 0
9, 16400, Note_on_c, 8, 83, 61
9, 16440, Note_on_c, 8, 83, 0
9, 16440, Note_on_c, 8, 77, 0
9, 16440, Note_on_c, 8, 69, 0
9, 16440, Note_on_c, 8, 74, 0
9, 16440, Note_on_c, 8, 85, 72
9, 16480, Note_on_c, 8, 85, 0
9, 16480, Note_on_c, 8, 86, 76
9, 16520, Note_on_c, 8, 86, 0
9, 16520, Note_on_c, 8, 83, 49
9, 16560, Note_on_c, 8, 83, 0
9, 16560, Note_on_c, 8, 88, 81
9, 16600, Note_on_c, 8, 88, 0
9, 16600, Note_on_c, 8, 86, 40
9, 16640, Note_on_c, 8, 86, 0
9, 16640, Note_on_c, 8, 85, 62
9, 16680, Note_on_c, 8, 85, 0
9, 16680, Note_on_c, 8, 76, 62
9, 16680, Note_on_c, 8, 73, 58
9, 16680, Note_on_c, 8, 69, 56
9, 16680, Note_on_c, 8, 83, 64
9, 16720, Note_on_c, 8, 83, 0
9, 16720, Note_on_c, 8, 85, 69
9, 16760, Note_on_c, 8, 85, 0
9, 16760, Note_on_c, 8, 81, 64
9, 16800, Note_on_c, 8, 81, 0
9, 16800, Note_on_c, 8, 76, 0
9, 16800, Note_on_c, 8, 73, 0
9, 16800, Note_on_c, 8, 69, 0
9, 16800, Note_on_c, 8, 77, 59
9, 16800, Note_on_c, 8, 69, 71
9, 16800, Note_on_c, 8, 74, 77
9, 16800, Note_on_c, 8, 80, 50
9, 16840, Note_on_c, 8, 80, 0
9, 16840, Note_on_c, 8, 81, 52
9, 16880, Note_on_c, 8, 81, 0
9, 16880, Note_on_c, 8, 83, 71
9, 16920, Note_on_c, 8, 83, 0
9, 16920, Note_on_c, 8, 77, 0
9, 16920, Note_on_c, 8, 69, 0
9, 16920, Note_on_c, 8, 74, 0
9, 16920, Note_on_c, 8, 85, 61
9, 16960, Note_on_c, 8, 85, 0
9, 16960, Note_on_c, 8, 86, 29
9, 17000, Note_on_c, 8, 86, 0
9, 17000, Note_on_c, 8, 83, 66
9, 17040, Note_on_c, 8, 83, 0
9, 17040, Note_on_c, 8, 85, 76
9, 17080, Note_on_c, 8, 85, 0
9, 17080, Note_on_c, 8, 86, 81
9, 17120, Note_on_c, 8, 86, 0
9, 17120, Note_on_c, 8, 83, 71
9, 17160, Note_on_c, 8, 83, 0
9, 17160, Note_on_c, 8, 76, 52
9, 17160, Note_on_c, 8, 69, 63
9, 17160, Note_on_c, 8, 73, 62
9, 17160, Note_on_c, 8, 86, 80
9, 17200, Note_on_c, 8, 86, 0
9, 17200, Note_on_c, 8, 88, 80
9, 17240, Note_on_c, 8, 88, 0
9, 17240, Note_on_c, 8, 85, 67
9, 17280, Note_on_c, 8, 85, 0
9, 17280, Note_on_c, 8, 76, 0
9, 17280, Note_on_c, 8, 69, 0
9, 17280, Note_on_c, 8, 73, 0
9, 17280, Note_on_c, 8, 86, 80
9, 17320, Note_on_c, 8, 86, 0
9, 17320, Note_on_c, 8, 88, 89
9, 17360, Note_on_c, 8, 88, 0
9, 17360, Note_on_c, 8, 85, 82
9, 17400, Note_on_c, 8, 85, 0
9, 17400, Note_on_c, 8, 78, 50
9, 17400, Note_on_c, 8, 74, 53
9, 17400, Note_on_c, 8, 69, 64
9, 17400, Note_on_c, 8, 88, 78
9, 17440, Note_on_c, 8, 88, 0
9, 17440, Note_on_c, 8, 90, 84
9, 17480, Note_on_c, 8, 90, 0
9, 17480, Note_on_c, 8, 86, 99
9, 17520, Note_on_c, 8, 86, 0
9, 17520, Note_on_c, 8, 78, 0
9, 17520, Note_on_c, 8, 74, 0
9, 17520, Note_on_c, 8, 69, 0
9, 17520, Note_on_c, 8, 88, 95
9, 17560, Note_on_c, 8, 88, 0
9, 17560, Note_on_c, 8, 90, 89
9, 17600, Note_on_c, 8, 90, 0
9, 17600, Note_on_c, 8, 86, 105
9, 17640, Note_on_c, 8, 86, 0
9, 17640, Note_on_c, 8, 69, 89
9, 17640, Note_on_c, 8, 79, 61
9, 17640, Note_on_c, 8, 76, 89
9, 17640, Note_on_c, 8, 90, 81
9, 17680, Note_on_c, 8, 90, 0
9, 17680, Note_on_c, 8, 91, 90
9, 17720, Note_on_c, 8, 91, 0
9, 17720, Note_on_c, 8, 88, 95
9, 17760, Note_on_c, 8, 88, 0
9, 17760, Note_on_c, 8, 69, 0
9, 17760, Note_on_c, 8, 79, 0
9, 17760, Note_on_c, 8, 76, 0
9, 17760, Note_on_c, 8, 90, 89
9, 17800, Note_on_c, 8, 90, 0
9, 17800, Note_on_c, 8, 91, 94
9, 17840, Note_on_c, 8, 91, 0
9, 17840, Note_on_c, 8, 88, 98
9, 17880, Note_on_c, 8, 88, 0
9, 17880, Note_on_c, 8, 90, 86
9, 17920, Note_on_c, 8, 90, 0
9, 17920, Note_on_c, 8, 91, 93
9, 17960, Note_on_c, 8, 91, 0
9, 17960, Note_on_c, 8, 88, 99
9, 18000, Note_on_c, 8, 88, 0
9, 18000, Note_on_c, 8, 90, 93
9, 18040, Note_on_c, 8, 90, 0
9, 18040, Note_on_c, 8, 91, 94
9, 18080, Note_on_c, 8, 91, 0
9, 18080, Note_on_c, 8, 88, 94
9, 18120, Note_on_c, 8, 88, 0
9, 18120, Note_on_c, 8, 69, 99
9, 18120, Note_on_c, 8, 80, 85
9, 18120, Note_on_c, 8, 77, 72
9, 18120, Note_on_c, 8, 91, 99
9, 18160, Note_on_c, 8, 91, 0
9, 18160, Note_on_c, 8, 92, 89
9, 18200, Note_on_c, 8, 92, 0
9, 18200, Note_on_c, 8, 89, 105
9, 18240, Note_on_c, 8, 89, 0
9, 18240, Note_on_c, 8, 69, 0
9, 18240, Note_on_c, 8, 80, 0
9, 18240, Note_on_c, 8, 77, 0
9, 18240, Note_on_c, 8, 91, 98
9, 18280, Note_on_c, 8, 91, 0
9, 18280, Note_on_c, 8, 92, 89
9, 18320, Note_on_c, 8, 92, 0
9, 18320, Note_on_c, 8, 89, 105
9, 18360, Note_on_c, 8, 89, 0
9, 18360, Note_on_c, 8, 91, 104
9, 18400, Note_on_c, 8, 91, 0
9, 18400, Note_on_c, 8, 92, 89
9, 18440, Note_on_c, 8, 92, 0
9, 18440, Note_on_c, 8, 89, 101
9, 18480, Note_on_c, 8, 89, 0
9, 18480, Note_on_c, 8, 91, 90
9, 18520, Note_on_c, 8, 91, 0
9, 18520, Note_on_c, 8, 92, 77
9, 18560, Note_on_c, 8, 92, 0
9, 18560, Note_on_c, 8, 89, 93
9, 18600, Note_on_c, 8, 89, 0
9, 18600, Note_on_c, 8, 91, 80
9, 18640, Note_on_c, 8, 91, 0
9, 18640, Note_on_c, 8, 92, 64
9, 18680, Note_on_c, 8, 92, 0
9, 18680, Note_on_c, 8, 89, 64
9, 18720, Note_on_c, 8, 89, 0
9, 18720, Note_on_c, 8, 91, 49
9, 18760, Note_on_c, 8, 91, 0
9, 18760, Note_on_c, 8, 92, 61
9, 18800, Note_on_c, 8, 92, 0
9, 18800, Note_on_c, 8, 89, 56
9, 18840, Note_on_c, 8, 89, 0
9, 18840, Note_on_c, 8, 91, 73
9, 18880, Note_on_c, 8, 91, 0
9, 18880, Note_on_c, 8, 92, 64
9, 18920, Note_on_c, 8, 92, 0
9, 18920, Note_on_c, 8, 89, 67
9, 18950, Control_c, 8, 64, 93
9, 18960, Note_on_c, 8, 89, 0
9, 18960, Note_on_c, 8, 38, 57
9, 18960, Note_on_c, 8, 93, 76
9, 19020, Note_on_c, 8, 38, 0
9, 19080, Note_on_c, 8, 62, 49
9, 19200, Note_on_c, 8, 62, 0
9, 19200, Note_on_c, 8, 66, 61
9, 19320, Note_on_c, 8, 66, 0
9, 19320, Note_on_c, 8, 93, 0
9, 19320, Note_on_c, 8, 69, 65
9, 19320, Note_on_c, 8, 91, 68
9, 19380, Note_on_c, 8, 91, 0
9, 19380, Note_on_c, 8, 90, 53
9, 19440, Note_on_c, 8, 90, 0
9, 19440, Note_on_c, 8, 69, 0
9, 19440, Note_on_c, 8, 70, 57
9, 19440, Note_on_c, 8, 88, 78
9, 19455, Note_on_c, 8, 88, 0
9, 19455, Note_on_c, 8, 90, 62
9, 19470, Note_on_c, 8, 90, 0
9, 19470, Note_on_c, 8, 91, 73
9, 19485, Note_on_c, 8, 91, 0
9, 19485, Note_on_c, 8, 90, 67
9, 19560, Note_on_c, 8, 90, 0
9, 19560, Note_on_c, 8, 88, 62
9, 19680, Note_on_c, 8, 70, 0
9, 19680, Note_on_c, 8, 69, 64
9, 19740, Note_on_c, 8, 88, 0
9, 19740, Note_on_c, 8, 81, 61
9, 19800, Note_on_c, 8, 81, 0
9, 19800, Note_on_c, 8, 69, 0
9, 19800, Note_on_c, 8, 67, 59
9, 19800, Note_on_c, 8, 83, 80
9, 19860, Note_on_c, 8, 83, 0
9, 19860, Note_on_c, 8, 85, 70
9, 19920, Note_on_c, 8, 85, 0
9, 19920, Note_on_c, 8, 67, 0
9, 19920, Note_on_c, 8, 66, 54
9, 19920, Note_on_c, 8, 86, 74
9, 20160, Note_on_c, 8, 86, 0
9, 20160, Note_on_c, 8, 66, 0
9, 20160, Note_on_c, 8, 64, 66
9, 20160, Note_on_c, 8, 88, 81
9, 20175, Note_on_c, 8, 88, 0
9, 20175, Note_on_c, 8, 86, 53
9, 20190, Note_on_c, 8, 86, 0
9, 20190, Note_on_c, 8, 85, 58
9, 20205, Note_on_c, 8, 85, 0
9, 20205, Note_on_c, 8, 86, 65
9, 20220, Note_on_c, 8, 86, 0
9, 20220, Note_on_c, 8, 88, 67
9, 20280, Note_on_c, 8, 88, 0
9, 20280, Note_on_c, 8, 64, 0
9, 20280, Note_on_c, 8, 62, 50
9, 20280, Note_on_c, 8, 90, 53
9, 20340, Note_on_c, 8, 90, 0
9, 20340, Note_on_c, 8, 91, 68
9, 20400, Note_on_c, 8, 91, 0
9, 20400, Note_on_c, 8, 62, 0
9, 20400, Note_on_c, 8, 61, 64
9, 20400, Note_on_c, 8, 90, 63
9, 20520, Note_on_c, 8, 90, 0
9, 20520, Note_on_c, 8, 88, 65
9, 20580, Note_on_c, 8, 61, 0
9, 20580, Note_on_c, 8, 59, 44
9, 20640, Note_on_c, 8, 59, 0
9, 20640, Note_on_c, 8, 57, 68
9, 20700, Note_on_c, 8, 57, 0
9, 20700, Note_on_c, 8, 55, 60
9, 20760, Note_on_c, 8, 55, 0
9, 20760, Note_on_c, 8, 88, 0
9, 20760, Note_on_c, 8, 54, 71
9, 20760, Note_on_c, 8, 90, 65
9, 20820, Note_on_c, 8, 90, 0
9, 20820, Note_on_c, 8, 54, 0
9, 20820, Note_on_c, 8, 52, 86
9, 20820, Note_on_c, 8, 91, 74
9, 20850, Note_on_c, 8, 91, 0
9, 20850, Note_on_c, 8, 81, 48
9, 20880, Note_on_c, 8, 81, 0
9, 20880, Note_on_c, 8, 52, 0
9, 20880, Note_on_c, 8, 38, 45
9, 20880, Note_on_c, 8, 93, 76
9, 21000, Note_on_c, 8, 38, 0
9, 21000, Note_on_c, 8, 50, 76
9, 21120, Note_on_c, 8, 50, 0
9, 21120, Note_on_c, 8, 52, 56
9, 21180, Note_on_c, 8, 93, 0
9, 21180, Note_on_c, 8, 95, 70
9, 21210, Note_on_c, 8, 95, 0
9, 21210, Note_on_c, 8, 93, 76
9, 21240, Note_on_c, 8, 93, 0
9, 21240, Note_on_c, 8, 52, 0
9, 21240, Note_on_c, 8, 54, 47
9, 21240, Note_on_c, 8, 91, 65
9, 21300, Note_on_c, 8, 91, 0
9, 21300, Note_on_c, 8, 90, 67
9, 21360, Note_on_c, 8, 90, 0
9, 21360, Note_on_c, 8, 54, 0
9, 21360, Note_on_c, 8, 55, 62
9, 21360, Note_on_c, 8, 88, 84
9, 21375, Note_on_c, 8, 88, 0
9, 21375, Note_on_c, 8, 90, 65
9, 21390, Note_on_c, 8, 90, 0
9, 21390, Note_on_c, 8, 91, 72
9, 21405, Note_on_c, 8, 91, 0
9, 21405, Note_on_c, 8, 90, 76
9, 21480, Note_on_c, 8, 90, 0
9, 21480, Note_on_c, 8, 88, 73
9, 21540, Note_on_c, 8, 55, 0
9, 21540, Note_on_c, 8, 57, 69
9, 21600, Note_on_c, 8, 57, 0
9, 21600, Note_on_c, 8, 59, 59
9, 21660, Note_on_c, 8, 59, 0
9, 21660, Note_on_c, 8, 88, 0
9, 21660, Note_on_c, 8, 61, 60
9, 21660, Note_on_c, 8, 81, 62
9, 21720, Note_on_c, 8, 81, 0
9, 21720, Note_on_c, 8, 61, 0
9, 21720, Note_on_c, 8, 62, 57
9, 21720, Note_on_c, 8, 83, 74
9, 21780, Note_on_c, 8, 83, 0
9, 21780, Note_on_c, 8, 62, 0
9, 21780, Note_on_c, 8, 64, 60
9, 21780, Note_on_c, 8, 85, 67
9, 21840, Note_on_c, 8, 85, 0
9, 21840, Note_on_c, 8, 64, 0
9, 21840, Note_on_c, 8, 74, 98
9, 21840, Note_on_c, 8, 86, 99
9, 21840, Note_on_c, 8, 66, 77
9, 21840, Note_on_c, 8, 62, 99
9, 21960, Note_on_c, 8, 62, 0
9, 21960, Note_on_c, 8, 74, 0
9, 21960, Note_on_c, 8, 86, 0
9, 21960, Note_on_c, 8, 66, 0
9, 21960, Note_on_c, 8, 76, 94
9, 21960, Note_on_c, 8, 88, 93
9, 21960, Note_on_c, 8, 67, 80
9, 21960, Note_on_c, 8, 57, 105
9, 22020, Note_on_c, 8, 57, 0
9, 22020, Note_on_c, 8, 76, 0
9, 22020, Note_on_c, 8, 88, 0
9, 22020, Note_on_c, 8, 67, 0
9, 22080, Control_c, 8, 64, 0
9, 26160, Note_on_c, 8, 38, 117
9, 26190, Note_on_c, 8, 38, 0
9, 26190, Note_on_c, 8, 50, 125
9, 26220, Note_on_c, 8, 50, 0
9, 26220, Note_on_c, 8, 57, 123
9, 26220, Note_on_c, 8, 54, 123
9, 26250, Note_on_c, 8, 54, 0
9, 26250, Note_on_c, 8, 57, 0
9, 26250, Note_on_c, 8, 66, 125
9, 26280, Note_on_c, 8, 66, 0
9, 26280, Note_on_c, 8, 62, 123
9, 26310, Note_on_c, 8, 62, 0
9, 26310, Note_on_c, 8, 69, 125
9, 26340, Note_on_c, 8, 69, 0
9, 26340, Note_on_c, 8, 66, 125
9, 26370, Note_on_c, 8, 66, 0
9, 26370, Note_on_c, 8, 74, 127
9, 26400, Note_on_c, 8, 74, 0
9, 26400, Note_on_c, 8, 69, 125
9, 26430, Note_on_c, 8, 69, 0
9, 26430, Note_on_c, 8, 78, 119
9, 26460, Note_on_c, 8, 78, 0
9, 26460, Note_on_c, 8, 74, 127
9, 26490, Note_on_c, 8, 74, 0
9, 26490, Note_on_c, 8, 81, 125
9, 26520, Note_on_c, 8, 81, 0
9, 26520, Note_on_c, 8, 78, 127
9, 26550, Note_on_c, 8, 78, 0
9, 26550, Note_on_c, 8, 86, 125
9, 26580, Note_on_c, 8, 86, 0
9, 26580, Note_on_c, 8, 81, 125
9, 26610, Note_on_c, 8, 81, 0
9, 26610, Note_on_c, 8, 90, 123
9, 26640, Note_on_c, 8, 90, 0
9, 26640, Note_on_c, 8, 45, 125
9, 26670, Note_on_c, 8, 45, 0
9, 26670, Note_on_c, 8, 88, 117
9, 26670, Note_on_c, 8, 52, 127
9, 26700, Note_on_c, 8, 52, 0
9, 26700, Note_on_c, 8, 88, 0
9, 26700, Note_on_c, 8, 91, 110
9, 26700, Note_on_c, 8, 57, 117
9, 26730, Note_on_c, 8, 57, 0
9, 26730, Note_on_c, 8, 91, 0
9, 26730, Note_on_c, 8, 85, 101
9, 26760, Note_on_c, 8, 85, 0
9, 26760, Note_on_c, 8, 88, 99
9, 26790, Note_on_c, 8, 88, 0
9, 26790, Note_on_c, 8, 79, 115
9, 26820, Note_on_c, 8, 79, 0
9, 26820, Note_on_c, 8, 85, 115
9, 26850, Note_on_c, 8, 85, 0
9, 26850, Note_on_c, 8, 76, 119
9, 26880, Note_on_c, 8, 76, 0
9, 26880, Note_on_c, 8, 79, 115
9, 26910, Note_on_c, 8, 79, 0
9, 26910, Note_on_c, 8, 73, 125
9, 26940, Note_on_c, 8, 73, 0
9, 26940, Note_on_c, 8, 76, 119
9, 26970, Note_on_c, 8, 76, 0
9, 26970, Note_on_c, 8, 67, 112
9, 27000, Note_on_c, 8, 67, 0
9, 27000, Note_on_c, 8, 73, 117
9, 27030, Note_on_c, 8, 73, 0
9, 27030, Note_on_c, 8, 64, 119
9, 27060, Note_on_c, 8, 64, 0
9, 27060, Note_on_c, 8, 67, 115
9, 27090, Note_on_c, 8, 67, 0
9, 27090, Note_on_c, 8, 61, 125
9, 27120, Note_on_c, 8, 61, 0
9, 27120, Note_on_c, 8, 38, 119
9, 27150, Note_on_c, 8, 38, 0
9, 27150, Note_on_c, 8, 50, 125
9, 27180, Note_on_c, 8, 50, 0
9, 27180, Note_on_c, 8, 57, 123
9, 27180, Note_on_c, 8, 54, 119
9, 27210, Note_on_c, 8, 54, 0
9, 27210, Note_on_c, 8, 57, 0
9, 27210, Note_on_c, 8, 66, 119
9, 27240, Note_on_c, 8, 66, 0
9, 27240, Note_on_c, 8, 62, 105
9, 27270, Note_on_c, 8, 62, 0
9, 27270, Note_on_c, 8, 69, 127
9, 27300, Note_on_c, 8, 69, 0
9, 27300, Note_on_c, 8, 66, 125
9, 27330, Note_on_c, 8, 66, 0
9, 27330, Note_on_c, 8, 74, 119
9, 27360, Note_on_c, 8, 74, 0
9, 27360, Note_on_c, 8, 69, 107
9, 27390, Note_on_c, 8, 69, 0
9, 27390, Note_on_c, 8, 78, 101
9, 27420, Note_on_c, 8, 78, 0
9, 27420, Note_on_c, 8, 74, 112
9, 27450, Note_on_c, 8, 74, 0
9, 27450, Note_on_c, 8, 81, 110
9, 27480, Note_on_c, 8, 81, 0
9, 27480, Note_on_c, 8, 78, 99
9, 27510, Note_on_c, 8, 78, 0
9, 27510, Note_on_c, 8, 86, 110
9, 27540, Note_on_c, 8, 86, 0
9, 27540, Note_on_c, 8, 81, 107
9, 27570, Note_on_c, 8, 81, 0
9, 27570, Note_on_c, 8, 90, 99
9, 27600, Note_on_c, 8, 90, 0
9, 27600, Note_on_c, 8, 45, 107
9, 27630, Note_on_c, 8, 45, 0
9, 27630, Note_on_c, 8, 88, 105
9, 27630, Note_on_c, 8, 52, 105
9, 27660, Note_on_c, 8, 52, 0
9, 27660, Note_on_c, 8, 88, 0
9, 27660, Note_on_c, 8, 91, 105
9, 27660, Note_on_c, 8, 57, 112
9, 27690, Note_on_c, 8, 57, 0
9, 27690, Note_on_c, 8, 91, 0
9, 27690, Note_on_c, 8, 85, 99
9, 27720, Note_on_c, 8, 85, 0
9, 27720, Note_on_c, 8, 88, 110
9, 27750, Note_on_c, 8, 88, 0
9, 27750, Note_on_c, 8, 79, 99
9, 27780, Note_on_c, 8, 79, 0
9, 27780, Note_on_c, 8, 85, 99
9, 27810, Note_on_c, 8, 85, 0
9, 27810, Note_on_c, 8, 76, 110
9, 27840, Note_on_c, 8, 76, 0
9, 27840, Note_on_c, 8, 79, 105
9, 27870, Note_on_c, 8, 79, 0
9, 27870, Note_on_c, 8, 73, 98
9, 27900, Note_on_c, 8, 73, 0
9, 27900, Note_on_c, 8, 76, 105
9, 27930, Note_on_c, 8, 76, 0
9, 27930, Note_on_c, 8, 67, 104
9, 27960, Note_on_c, 8, 67, 0
9, 27960, Note_on_c, 8, 73, 101
9, 27990, Note_on_c, 8, 73, 0
9, 27990, Note_on_c, 8, 64, 112
9, 28020, Note_on_c, 8, 64, 0
9, 28020, Note_on_c, 8, 67, 104
9, 28050, Note_on_c, 8, 67, 0
9, 28050, Note_on_c, 8, 61, 99
9, 28080, Note_on_c, 8, 61, 0
9, 28080, Note_on_c, 8, 38, 110
9, 28110, Note_on_c, 8, 38, 0
9, 28110, Note_on_c, 8, 50, 112
9, 28110, Note_on_c, 8, 86, 112
9, 28140, Note_on_c, 8, 86, 0
9, 28140, Note_on_c, 8, 50, 0
9, 28140, Note_on_c, 8, 90, 98
9, 28140, Note_on_c, 8, 54, 101
9, 28170, Note_on_c, 8, 54, 0
9, 28170, Note_on_c, 8, 90, 0
9, 28170, Note_on_c, 8, 81, 105
9, 28200, Note_on_c, 8, 81, 0
9, 28200, Note_on_c, 8, 86, 107
9, 28230, Note_on_c, 8, 86, 0
9, 28230, Note_on_c, 8, 78, 99
9, 28260, Note_on_c, 8, 78, 0
9, 28260, Note_on_c, 8, 81, 105
9, 28290, Note_on_c, 8, 81, 0
9, 28290, Note_on_c, 8, 74, 112
9, 28320, Note_on_c, 8, 74, 0
9, 28320, Note_on_c, 8, 42, 104
9, 28350, Note_on_c, 8, 42, 0
9, 28350, Note_on_c, 8, 85, 99
9, 28350, Note_on_c, 8, 54, 99
9, 28380, Note_on_c, 8, 54, 0
9, 28380, Note_on_c, 8, 85, 0
9, 28380, Note_on_c, 8, 88, 99
9, 28380, Note_on_c, 8, 56, 105
9, 28410, Note_on_c, 8, 56, 0
9, 28410, Note_on_c, 8, 88, 0
9, 28410, Note_on_c, 8, 82, 99
9, 28440, Note_on_c, 8, 82, 0
9, 28440, Note_on_c, 8, 85, 105
9, 28470, Note_on_c, 8, 85, 0
9, 28470, Note_on_c, 8, 76, 107
9, 28500, Note_on_c, 8, 76, 0
9, 28500, Note_on_c, 8, 82, 104
9, 28530, Note_on_c, 8, 82, 0
9, 28530, Note_on_c, 8, 73, 104
9, 28560, Note_on_c, 8, 73, 0
9, 28560, Note_on_c, 8, 47, 105
9, 28590, Note_on_c, 8, 47, 0
9, 28590, Note_on_c, 8, 59, 104
9, 28590, Note_on_c, 8, 83, 105
9, 28620, Note_on_c, 8, 83, 0
9, 28620, Note_on_c, 8, 59, 0
9, 28620, Note_on_c, 8, 86, 107
9, 28620, Note_on_c, 8, 62, 94
9, 28650, Note_on_c, 8, 62, 0
9, 28650, Note_on_c, 8, 86, 0
9, 28650, Note_on_c, 8, 78, 105
9, 28680, Note_on_c, 8, 78, 0
9, 28680, Note_on_c, 8, 50, 107
9, 28710, Note_on_c, 8, 50, 0
9, 28710, Note_on_c, 8, 54, 99
9, 28710, Note_on_c, 8, 81, 105
9, 28740, Note_on_c, 8, 81, 0
9, 28740, Note_on_c, 8, 54, 0
9, 28740, Note_on_c, 8, 57, 101
9, 28740, Note_on_c, 8, 84, 99
9, 28770, Note_on_c, 8, 84, 0
9, 28770, Note_on_c, 8, 57, 0
9, 28770, Note_on_c, 8, 78, 99
9, 28800, Note_on_c, 8, 78, 0
9, 28800, Note_on_c, 8, 43, 104
9, 28830, Note_on_c, 8, 43, 0
9, 28830, Note_on_c, 8, 55, 99
9, 28830, Note_on_c, 8, 79, 105
9, 28860, Note_on_c, 8, 79, 0
9, 28860, Note_on_c, 8, 55, 0
9, 28860, Note_on_c, 8, 83, 105
9, 28860, Note_on_c, 8, 59, 98
9, 28890, Note_on_c, 8, 59, 0
9, 28890, Note_on_c, 8, 83, 0
9, 28890, Note_on_c, 8, 74, 104
9, 28920, Note_on_c, 8, 74, 0
9, 28920, Note_on_c, 8, 47, 107
9, 28950, Note_on_c, 8, 47, 0
9, 28950, Note_on_c, 8, 51, 101
9, 28950, Note_on_c, 8, 78, 104
9, 28980, Note_on_c, 8, 78, 0
9, 28980, Note_on_c, 8, 51, 0
9, 28980, Note_on_c, 8, 81, 107
9, 28980, Note_on_c, 8, 54, 101
9, 29010, Note_on_c, 8, 54, 0
9, 29010, Note_on_c, 8, 81, 0
9, 29010, Note_on_c, 8, 75, 105
9, 29040, Note_on_c, 8, 75, 0
9, 29040, Note_on_c, 8, 52, 107
9, 29070, Note_on_c, 8, 52, 0
9, 29070, Note_on_c, 8, 59, 104
9, 29070, Note_on_c, 8, 76, 105
9, 29100, Note_on_c, 8, 76, 0
9, 29100, Note_on_c, 8, 59, 0
9, 29100, Note_on_c, 8, 64, 99
9, 29100, Note_on_c, 8, 79, 105
9, 29130, Note_on_c, 8, 79, 0
9, 29130, Note_on_c, 8, 64, 0
9, 29130, Note_on_c, 8, 71, 105
9, 29160, Note_on_c, 8, 71, 0
9, 29160, Note_on_c, 8, 55, 105
9, 29190, Note_on_c, 8, 55, 0
9, 29190, Note_on_c, 8, 71, 105
9, 29190, Note_on_c, 8, 59, 104
9, 29220, Note_on_c, 8, 59, 0
9, 29220, Note_on_c, 8, 71, 0
9, 29220, Note_on_c, 8, 76, 107
9, 29220, Note_on_c, 8, 64, 101
9, 29250, Note_on_c, 8, 64, 0
9, 29250, Note_on_c, 8, 76, 0
9, 29250, Note_on_c, 8, 67, 104
9, 29280, Note_on_c, 8, 67, 0
9, 29280, Note_on_c, 8, 61, 99
9, 29280, Note_on_c, 8, 64, 101
9, 29280, Note_on_c, 8, 57, 112
9, 29310, Note_on_c, 8, 73, 104
9, 29340, Note_on_c, 8, 73, 0
9, 29340, Note_on_c, 8, 61, 0
9, 29340, Note_on_c, 8, 64, 0
9, 29340, Note_on_c, 8, 57, 0
9, 29340, Note_on_c, 8, 76, 119
9, 29370, Note_on_c, 8, 76, 0
9, 29370, Note_on_c, 8, 74, 115
9, 29400, Note_on_c, 8, 74, 0
9, 29400, Note_on_c, 8, 73, 119
9, 29430, Note_on_c, 8, 73, 0
9, 29430, Note_on_c, 8, 71, 123
9, 29460, Note_on_c, 8, 71, 0
9, 29460, Note_on_c, 8, 69, 119
9, 29490, Note_on_c, 8, 69, 0
9, 29490, Note_on_c, 8, 67, 123
9, 29520, Note_on_c, 8, 67, 0
9, 29520, Control_c, 8, 64, 95
9, 29520, Note_on_c, 8, 66, 45
9, 29520, Note_on_c, 8, 38, 65
9, 29550, Note_on_c, 8, 38, 0
9, 29550, Note_on_c, 8, 50, 65
9, 29580, Note_on_c, 8, 50, 0
9, 29580, Note_on_c, 8, 66, 0
9, 29580, Note_on_c, 8, 54, 45
9, 29580, Note_on_c, 8, 57, 69
9, 29610, Note_on_c, 8, 57, 0
9, 29610, Note_on_c, 8, 54, 0
9, 29610, Note_on_c, 8, 66, 57
9, 29640, Note_on_c, 8, 66, 0
9, 29640, Note_on_c, 8, 62, 43
9, 29670, Note_on_c, 8, 62, 0
9, 29670, Note_on_c, 8, 69, 57
9, 29700, Note_on_c, 8, 69, 0
9, 29700, Note_on_c, 8, 66, 45
9, 29730, Note_on_c, 8, 66, 0
9, 29730, Note_on_c, 8, 74, 55
9, 29760, Note_on_c, 8, 74, 0
9, 29760, Note_on_c, 8, 69, 45
9, 29790, Note_on_c, 8, 69, 0
9, 29790, Note_on_c, 8, 78, 57
9, 29820, Note_on_c, 8, 78, 0
9, 29820, Note_on_c, 8, 74, 42
9, 29850, Note_on_c, 8, 74, 0
9, 29850, Note_on_c, 8, 81, 61
9, 29880, Note_on_c, 8, 81, 0
9, 29880, Note_on_c, 8, 78, 48
9, 29910, Note_on_c, 8, 78, 0
9, 29910, Note_on_c, 8, 86, 66
9, 29940, Note_on_c, 8, 86, 0
9, 29940, Note_on_c, 8, 81, 66
9, 29970, Note_on_c, 8, 81, 0
9, 29970, Note_on_c, 8, 90, 53
9, 29980, Control_c, 8, 64, 0
9, 30000, Note_on_c, 8, 90, 0
9, 30000, Note_on_c, 8, 45, 49
9, 30010, Control_c, 8, 64, 95
9, 30030, Note_on_c, 8, 45, 0
9, 30030, Note_on_c, 8, 52, 72
9, 30030, Note_on_c, 8, 88, 61
9, 30060, Note_on_c, 8, 88, 0
9, 30060, Note_on_c, 8, 52, 0
9, 30060, Note_on_c, 8, 91, 65
9, 30060, Note_on_c, 8, 57, 58
9, 30090, Note_on_c, 8, 57, 0
9, 30090, Note_on_c, 8, 91, 0
9, 30090, Note_on_c, 8, 85, 61
9, 30120, Note_on_c, 8, 85, 0
9, 30120, Note_on_c, 8, 88, 72
9, 30150, Note_on_c, 8, 88, 0
9, 30150, Note_on_c, 8, 79, 46
9, 30180, Note_on_c, 8, 79, 0
9, 30180, Note_on_c, 8, 85, 74
9, 30210, Note_on_c, 8, 85, 0
9, 30210, Note_on_c, 8, 76, 71
9, 30240, Note_on_c, 8, 76, 0
9, 30240, Note_on_c, 8, 79, 50
9, 30270, Note_on_c, 8, 79, 0
9, 30270, Note_on_c, 8, 73, 52
9, 30300, Note_on_c, 8, 73, 0
9, 30300, Note_on_c, 8, 76, 65
9, 30330, Note_on_c, 8, 76, 0
9, 30330, Note_on_c, 8, 67, 44
9, 30360, Note_on_c, 8, 67, 0
9, 30360, Note_on_c, 8, 73, 57
9, 30390, Note_on_c, 8, 73, 0
9, 30390, Note_on_c, 8, 64, 52
9, 30420, Note_on_c, 8, 64, 0
9, 30420, Note_on_c, 8, 67, 43
9, 30450, Note_on_c, 8, 67, 0
9, 30450, Note_on_c, 8, 61, 47
9, 30470, Control_c, 8, 64, 0
9, 30480, Note_on_c, 8, 61, 0
9, 30480, Note_on_c, 8, 38, 55
9, 30490, Control_c, 8, 64, 94
9, 30510, Note_on_c, 8, 38, 0
9, 30510, Note_on_c, 8, 50, 56
9, 30540, Note_on_c, 8, 50, 0
9, 30540, Note_on_c, 8, 57, 65
9, 30540, Note_on_c, 8, 54, 43
9, 30570, Note_on_c, 8, 54, 0
9, 30570, Note_on_c, 8, 57, 0
9, 30570, Note_on_c, 8, 66, 64
9, 30600, Note_on_c, 8, 66, 0
9, 30600, Note_on_c, 8, 62, 59
9, 30630, Note_on_c, 8, 62, 0
9, 30630, Note_on_c, 8, 69, 69
9, 30660, Note_on_c, 8, 69, 0
9, 30660, Note_on_c, 8, 66, 43
9, 30690, Note_on_c, 8, 66, 0
9, 30690, Note_on_c, 8, 74, 46
9, 30720, Note_on_c, 8, 74, 0
9, 30720, Note_on_c, 8, 69, 53
9, 30750, Note_on_c, 8, 69, 0
9, 30750, Note_on_c, 8, 78, 48
9, 30780, Note_on_c, 8, 78, 0
9, 30780, Note_on_c, 8, 74, 59
9, 30810, Note_on_c, 8, 74, 0
9, 30810, Note_on_c, 8, 81, 64
9, 30840, Note_on_c, 8, 81, 0
9, 30840, Note_on_c, 8, 78, 43
9, 30870, Note_on_c, 8, 78, 0
9, 30870, Note_on_c, 8, 86, 56
9, 30900, Note_on_c, 8, 86, 0
9, 30900, Note_on_c, 8, 81, 53
9, 30930, Note_on_c, 8, 81, 0
9, 30930, Note_on_c, 8, 90, 62
9, 30940, Control_c, 8, 64, 0
9, 30960, Note_on_c, 8, 90, 0
9, 30960, Note_on_c, 8, 38, 53
9, 30970, Control_c, 8, 64, 94
9, 30990, Note_on_c, 8, 38, 0
9, 30990, Note_on_c, 8, 50, 60
9, 31020, Note_on_c, 8, 50, 0
9, 31020, Note_on_c, 8, 53, 49
9, 31020, Note_on_c, 8, 57, 62
9, 31050, Note_on_c, 8, 57, 0
9, 31050, Note_on_c, 8, 53, 0
9, 31050, Note_on_c, 8, 65, 58
9, 31080, Note_on_c, 8, 65, 0
9, 31080, Note_on_c, 8, 62, 46
9, 31110, Note_on_c, 8, 62, 0
9, 31110, Note_on_c, 8, 69, 61
9, 31140, Note_on_c, 8, 69, 0
9, 31140, Note_on_c, 8, 65, 50
9, 31170, Note_on_c, 8, 65, 0
9, 31170, Note_on_c, 8, 74, 70
9, 31200, Note_on_c, 8, 74, 0
9, 31200, Note_on_c, 8, 69, 53
9, 31230, Note_on_c, 8, 69, 0
9, 31230, Note_on_c, 8, 77, 64
9, 31260, Note_on_c, 8, 77, 0
9, 31260, Note_on_c, 8, 74, 48
9, 31290, Note_on_c, 8, 74, 0
9, 31290, Note_on_c, 8, 81, 68
9, 31320, Note_on_c, 8, 81, 0
9, 31320, Note_on_c, 8, 77, 51
9, 31350, Note_on_c, 8, 77, 0
9, 31350, Note_on_c, 8, 86, 65
9, 31380, Note_on_c, 8, 86, 0
9, 31380, Note_on_c, 8, 81, 62
9, 31410, Note_on_c, 8, 81, 0
9, 31410, Note_on_c, 8, 89, 49
9, 31420, Control_c, 8, 64, 0
9, 31440, Note_on_c, 8, 89, 0
9, 31440, Note_on_c, 8, 31, 51
9, 31450, Control_c, 8, 64, 94
9, 31470, Note_on_c, 8, 31, 0
9, 31470, Note_on_c, 8, 43, 64
9, 31500, Note_on_c, 8, 43, 0
9, 31500, Note_on_c, 8, 47, 45
9, 31500, Note_on_c, 8, 59, 43
9, 31530, Note_on_c, 8, 59, 0
9, 31530, Note_on_c, 8, 47, 0
9, 31530, Note_on_c, 8, 65, 67
9, 31560, Note_on_c, 8, 65, 0
9, 31560, Note_on_c, 8, 62, 62
9, 31590, Note_on_c, 8, 62, 0
9, 31590, Note_on_c, 8, 71, 84
9, 31620, Note_on_c, 8, 71, 0
9, 31620, Note_on_c, 8, 65, 99
9, 31650, Note_on_c, 8, 65, 0
9, 31650, Note_on_c, 8, 74, 95
9, 31680, Note_on_c, 8, 74, 0
9, 31680, Note_on_c, 8, 71, 99
9, 31710, Note_on_c, 8, 71, 0
9, 31710, Note_on_c, 8, 77, 95
9, 31740, Note_on_c, 8, 77, 0
9, 31740, Note_on_c, 8, 74, 110
9, 31770, Note_on_c, 8, 74, 0
9, 31770, Note_on_c, 8, 83, 98
9, 31800, Note_on_c, 8, 83, 0
9, 31800, Note_on_c, 8, 77, 95
9, 31840, Note_on_c, 8, 77, 0
9, 31840, Note_on_c, 8, 86, 99
9, 31880, Note_on_c, 8, 86, 0
9, 31880, Note_on_c, 8, 83, 110
9, 31890, Control_c, 8, 64, 0
9, 31900, Control_c, 8, 64, 0
9, 31920, Note_on_c, 8, 83, 0
9, 31920, Note_on_c, 8, 43, 100
9, 31920, Note_on_c, 8, 38, 100
9, 31920, Note_on_c, 8, 31, 100
9, 31920, Note_on_c, 8, 89, 119
9, 31923, Note_on_c, 8, 35, 100
9, 31930, Control_c, 8, 64, 93
9, 31960, Note_on_c, 8, 89, 0
9, 31960, Note_on_c, 8, 83, 119
9, 32000, Note_on_c, 8, 83, 0
9, 32000, Note_on_c, 8, 86, 112
9, 32040, Note_on_c, 8, 86, 0
9, 32040, Note_on_c, 8, 31, 0
9, 32040, Note_on_c, 8, 43, 0
9, 32040, Note_on_c, 8, 38, 0
9, 32040, Note_on_c, 8, 77, 119
9, 32043, Note_on_c, 8, 35, 0
9, 32080, Note_on_c, 8, 77, 0
9, 32080, Note_on_c, 8, 83, 112
9, 32120, Note_on_c, 8, 83, 0
9, 32120, Note_on_c, 8, 74, 119
9, 32160, Note_on_c, 8, 74, 0
9, 32160, Note_on_c, 8, 77, 112
9, 32200, Note_on_c, 8, 77, 0
9, 32200, Note_on_c, 8, 71, 119
9, 32240, Note_on_c, 8, 71, 0
9, 32240, Note_on_c, 8, 74, 112
9, 32280, Note_on_c, 8, 74, 0
9, 32280, Note_on_c, 8, 65, 119
9, 32320, Note_on_c, 8, 65, 0
9, 32320, Note_on_c, 8, 71, 117
9, 32360, Note_on_c, 8, 71, 0
9, 32360, Note_on_c, 8, 62, 119
9, 32400, Note_on_c, 8, 62, 0
9, 32400, Note_on_c, 8, 65, 107
9, 32440, Note_on_c, 8, 65, 0
9, 32440, Note_on_c, 8, 59, 110
9, 32480, Note_on_c, 8, 59, 0
9, 32480, Note_on_c, 8, 62, 104
9, 32520, Note_on_c, 8, 62, 0
9, 32520, Note_on_c, 8, 53, 99
9, 32560, Note_on_c, 8, 53, 0
9, 32560, Note_on_c, 8, 59, 105
9, 32600, Note_on_c, 8, 59, 0
9, 32600, Note_on_c, 8, 50, 107
9, 32640, Note_on_c, 8, 50, 0
9, 32640, Note_on_c, 8, 53, 110
9, 32680, Note_on_c, 8, 53, 0
9, 32680, Note_on_c, 8, 47, 110
9, 32720, Note_on_c, 8, 47, 0
9, 32720, Note_on_c, 8, 50, 105
9, 32760, Note_on_c, 8, 50, 0
9, 32760, Note_on_c, 8, 43, 105
9, 32800, Note_on_c, 8, 43, 0
9, 32800, Note_on_c, 8, 38, 112
9, 32800, Note_on_c, 8, 83, 110
9, 32840, Note_on_c, 8, 83, 0
9, 32840, Note_on_c, 8, 38, 0
9, 32840, Note_on_c, 8, 35, 105
9, 32840, Note_on_c, 8, 86, 110
9, 32880, Note_on_c, 8, 86, 0
9, 32880, Note_on_c, 8, 35, 0
9, 32880, Note_on_c, 8, 31, 119
9, 32880, Note_on_c, 8, 89, 107
9, 32920, Note_on_c, 8, 89, 0
9, 32920, Note_on_c, 8, 83, 110
9, 32940, Note_on_c, 8, 31, 0
9, 32960, Note_on_c, 8, 83, 0
9, 32960, Note_on_c, 8, 86, 112
9, 33000, Note_on_c, 8, 86, 0
9, 33000, Note_on_c, 8, 77, 105
9, 33040, Note_on_c, 8, 77, 0
9, 33040, Note_on_c, 8, 83, 105
9, 33080, Note_on_c, 8, 83, 0
9, 33080, Note_on_c, 8, 74, 112
9, 33120, Note_on_c, 8, 74, 0
9, 33120, Note_on_c, 8, 77, 104
9, 33160, Note_on_c, 8, 77, 0
9, 33160, Note_on_c, 8, 71, 112
9, 33200, Note_on_c, 8, 71, 0
9, 33200, Note_on_c, 8, 74, 112
9, 33240, Note_on_c, 8, 74, 0
9, 33240, Note_on_c, 8, 65, 105
9, 33280, Note_on_c, 8, 65, 0
9, 33280, Note_on_c, 8, 71, 107
9, 33320, Note_on_c, 8, 71, 0
9, 33320, Note_on_c, 8, 62, 104
9, 33360, Note_on_c, 8, 62, 0
9, 33360, Note_on_c, 8, 65, 105
9, 33400, Note_on_c, 8, 65, 0
9, 33400, Note_on_c, 8, 59, 107
9, 33440, Note_on_c, 8, 59, 0
9, 33440, Note_on_c, 8, 62, 105
9, 33480, Note_on_c, 8, 62, 0
9, 33480, Note_on_c, 8, 53, 105
9, 33520, Note_on_c, 8, 53, 0
9, 33520, Note_on_c, 8, 59, 105
9, 33560, Note_on_c, 8, 59, 0
9, 33560, Note_on_c, 8, 50, 112
9, 33600, Note_on_c, 8, 50, 0
9, 33600, Note_on_c, 8, 53, 110
9, 33640, Note_on_c, 8, 53, 0
9, 33640, Note_on_c, 8, 47, 110
9, 33680, Note_on_c, 8, 47, 0
9, 33680, Note_on_c, 8, 50, 105
9, 33720, Note_on_c, 8, 50, 0
9, 33720, Note_on_c, 8, 43, 104
9, 33760, Note_on_c, 8, 43, 0
9, 33760, Note_on_c, 8, 38, 107
9, 33760, Note_on_c, 8, 83, 94
9, 33800, Note_on_c, 8, 83, 0
9, 33800, Note_on_c, 8, 38, 0
9, 33800, Note_on_c, 8, 35, 110
9, 33800, Note_on_c, 8, 86, 99
9, 33830, Control_c, 8, 64, 0
9, 33840, Note_on_c, 8, 86, 0
9, 33840, Note_on_c, 8, 35, 0
9, 33840, Note_on_c, 8, 31, 74
9, 33840, Note_on_c, 8, 89, 69
9, 33860, Control_c, 8, 64, 94
9, 33880, Note_on_c, 8, 89, 0
9, 33880, Note_on_c, 8, 83, 65
9, 33920, Note_on_c, 8, 83, 0
9, 33920, Note_on_c, 8, 86, 76
9, 33960, Note_on_c, 8, 86, 0
9, 33960, Note_on_c, 8, 77, 69
9, 34000, Note_on_c, 8, 31, 0
9, 34000, Note_on_c, 8, 35, 57
9, 34040, Note_on_c, 8, 35, 0
9, 34040, Note_on_c, 8, 38, 58
9, 34080, Note_on_c, 8, 38, 0
9, 34080, Note_on_c, 8, 43, 76
9, 34120, Note_on_c, 8, 77, 0
9, 34120, Note_on_c, 8, 71, 73
9, 34160, Note_on_c, 8, 71, 0
9, 34160, Note_on_c, 8, 74, 77
9, 34200, Note_on_c, 8, 74, 0
9, 34200, Note_on_c, 8, 65, 69
9, 34240, Note_on_c, 8, 43, 0
9, 34240, Note_on_c, 8, 47, 65
9, 34280, Note_on_c, 8, 47, 0
9, 34280, Note_on_c, 8, 50, 81
9, 34320, Note_on_c, 8, 50, 0
9, 34320, Note_on_c, 8, 55, 64
9, 34360, Note_on_c, 8, 65, 0
9, 34360, Note_on_c, 8, 71, 78
9, 34400, Note_on_c, 8, 71, 0
9, 34400, Note_on_c, 8, 74, 78
9, 34440, Note_on_c, 8, 74, 0
9, 34440, Note_on_c, 8, 77, 72
9, 34480, Note_on_c, 8, 55, 0
9, 34480, Note_on_c, 8, 59, 84
9, 34520, Note_on_c, 8, 59, 0
9, 34520, Note_on_c, 8, 62, 72
9, 34560, Note_on_c, 8, 62, 0
9, 34560, Note_on_c, 8, 67, 67
9, 34600, Note_on_c, 8, 77, 0
9, 34600, Note_on_c, 8, 83, 81
9, 34640, Note_on_c, 8, 83, 0
9, 34640, Note_on_c, 8, 86, 82
9, 34680, Note_on_c, 8, 86, 0
9, 34680, Note_on_c, 8, 89, 89
9, 34720, Note_on_c, 8, 67, 0
9, 34720, Note_on_c, 8, 71, 80
9, 34760, Note_on_c, 8, 71, 0
9, 34760, Note_on_c, 8, 74, 86
9, 34800, Note_on_c, 8, 74, 0
9, 34800, Note_on_c, 8, 77, 80
9, 34840, Note_on_c, 8, 89, 0
9, 34840, Note_on_c, 8, 83, 84
9, 34880, Note_on_c, 8, 83, 0
9, 34880, Note_on_c, 8, 86, 95
9, 34920, Note_on_c, 8, 86, 0
9, 34920, Note_on_c, 8, 89, 95
9, 34960, Note_on_c, 8, 77, 0
9, 34960, Note_on_c, 8, 71, 84
9, 35000, Note_on_c, 8, 71, 0
9, 35000, Note_on_c, 8, 74, 66
9, 35040, Note_on_c, 8, 74, 0
9, 35040, Note_on_c, 8, 77, 86
9, 35080, Note_on_c, 8, 89, 0
9, 35080, Note_on_c, 8, 83, 99
9, 35120, Note_on_c, 8, 83, 0
9, 35120, Note_on_c, 8, 86, 105
9, 35160, Note_on_c, 8, 86, 0
9, 35160, Note_on_c, 8, 89, 107
9, 35200, Note_on_c, 8, 77, 0
9, 35200, Note_on_c, 8, 71, 104
9, 35240, Note_on_c, 8, 71, 0
9, 35240, Note_on_c, 8, 74, 99
9, 35280, Note_on_c, 8, 74, 0
9, 35280, Note_on_c, 8, 77, 95
9, 35320, Note_on_c, 8, 89, 0
9, 35320, Note_on_c, 8, 86, 99
9, 35360, Note_on_c, 8, 86, 0
9, 35360, Note_on_c, 8, 89, 99
9, 35400, Note_on_c, 8, 89, 0
9, 35400, Note_on_c, 8, 93, 101
9, 35440, Note_on_c, 8, 77, 0
9, 35440, Note_on_c, 8, 71, 105
9, 35480, Note_on_c, 8, 71, 0
9, 35480, Note_on_c, 8, 74, 105
9, 35520, Note_on_c, 8, 74, 0
9, 35520, Note_on_c, 8, 81, 90
9, 35560, Note_on_c, 8, 93, 0
9, 35560, Note_on_c, 8, 86, 101
9, 35600, Note_on_c, 8, 86, 0
9, 35600, Note_on_c, 8, 89, 105
9, 35640, Note_on_c, 8, 89, 0
9, 35640, Note_on_c, 8, 93, 99
9, 35680, Note_on_c, 8, 81, 0
9, 35680, Note_on_c, 8, 74, 98
9, 35720, Note_on_c, 8, 74, 0
9, 35720, Note_on_c, 8, 77, 93
9, 35760, Note_on_c, 8, 77, 0
9, 35760, Note_on_c, 8, 81, 94
9, 35800, Note_on_c, 8, 93, 0
9, 35800, Note_on_c, 8, 86, 99
9, 35840, Note_on_c, 8, 86, 0
9, 35840, Note_on_c, 8, 89, 107
9, 35880, Note_on_c, 8, 89, 0
9, 35880, Note_on_c, 8, 93, 125
9, 35920, Note_on_c, 8, 81, 0
9, 35920, Note_on_c, 8, 74, 99
9, 35960, Note_on_c, 8, 74, 0
9, 35960, Note_on_c, 8, 77, 98
9, 36000, Note_on_c, 8, 77, 0
9, 36000, Note_on_c, 8, 81, 125
9, 36040, Note_on_c, 8, 93, 0
9, 36040, Note_on_c, 8, 91, 101
9, 36080, Note_on_c, 8, 91, 0
9, 36080, Note_on_c, 8, 89, 99
9, 36120, Note_on_c, 8, 89, 0
9, 36120, Note_on_c, 8, 88, 104
9, 36160, Note_on_c, 8, 88, 0
9, 36160, Note_on_c, 8, 89, 101
9, 36200, Note_on_c, 8, 89, 0
9, 36200, Note_on_c, 8, 86, 104
9, 36240, Note_on_c, 8, 86, 0
9, 36240, Note_on_c, 8, 93, 95
9, 36280, Note_on_c, 8, 93, 0
9, 36280, Note_on_c, 8, 86, 105
9, 36320, Note_on_c, 8, 86, 0
9, 36320, Note_on_c, 8, 89, 105
9, 36360, Note_on_c, 8, 89, 0
9, 36360, Note_on_c, 8, 93, 127
9, 36400, Note_on_c, 8, 81, 0
9, 36400, Note_on_c, 8, 74, 101
9, 36440, Note_on_c, 8, 74, 0
9, 36440, Note_on_c, 8, 77, 104
9, 36480, Note_on_c, 8, 77, 0
9, 36480, Note_on_c, 8, 81, 125
9, 36520, Note_on_c, 8, 93, 0
9, 36520, Note_on_c, 8, 91, 104
9, 36560, Note_on_c, 8, 91, 0
9, 36560, Note_on_c, 8, 89, 95
9, 36600, Note_on_c, 8, 89, 0
9, 36600, Note_on_c, 8, 88, 105
9, 36640, Note_on_c, 8, 88, 0
9, 36640, Note_on_c, 8, 89, 104
9, 36680, Note_on_c, 8, 89, 0
9, 36680, Note_on_c, 8, 86, 104
9, 36720, Note_on_c, 8, 86, 0
9, 36720, Note_on_c, 8, 93, 99
9, 36760, Note_on_c, 8, 93, 0
9, 36760, Note_on_c, 8, 81, 0
9, 36760, Note_on_c, 8, 91, 98
9, 36760, Note_on_c, 8, 79, 104
9, 36800, Note_on_c, 8, 79, 0
9, 36800, Note_on_c, 8, 91, 0
9, 36800, Note_on_c, 8, 89, 95
9, 36800, Note_on_c, 8, 77, 89
9, 36840, Note_on_c, 8, 77, 0
9, 36840, Note_on_c, 8, 89, 0
9, 36840, Note_on_c, 8, 88, 84
9, 36840, Note_on_c, 8, 76, 93
9, 36880, Note_on_c, 8, 76, 0
9, 36880, Note_on_c, 8, 88, 0
9, 36880, Note_on_c, 8, 89, 93
9, 36880, Note_on_c, 8, 77, 93
9, 36920, Note_on_c, 8, 77, 0
9, 36920, Note_on_c, 8, 89, 0
9, 36920, Note_on_c, 8, 86, 72
9, 36920, Note_on_c, 8, 74, 82
9, 36960, Note_on_c, 8, 74, 0
9, 36960, Note_on_c, 8, 86, 0
9, 36960, Note_on_c, 8, 93, 70
9, 36960, Note_on_c, 8, 81, 72
9, 37000, Note_on_c, 8, 81, 0
9, 37000, Note_on_c, 8, 93, 0
9, 37000, Note_on_c, 8, 91, 64
9, 37000, Note_on_c, 8, 79, 81
9, 37040, Note_on_c, 8, 79, 0
9, 37040, Note_on_c, 8, 91, 0
9, 37040, Note_on_c, 8, 89, 60
9, 37040, Note_on_c, 8, 77, 71
9, 37080, Note_on_c, 8, 77, 0
9, 37080, Note_on_c, 8, 89, 0
9, 37080, Note_on_c, 8, 88, 55
9, 37080, Note_on_c, 8, 76, 72
9, 37120, Note_on_c, 8, 76, 0
9, 37120, Note_on_c, 8, 88, 0
9, 37120, Note_on_c, 8, 89, 65
9, 37120, Note_on_c, 8, 77, 71
9, 37160, Note_on_c, 8, 77, 0
9, 37160, Note_on_c, 8, 89, 0
9, 37160, Note_on_c, 8, 86, 39
9, 37160, Note_on_c, 8, 74, 81
9, 37200, Note_on_c, 8, 74, 0
9, 37200, Note_on_c, 8, 86, 0
9, 37200, Note_on_c, 8, 93, 60
9, 37200, Note_on_c, 8, 81, 54
9, 37320, Note_on_c, 8, 81, 0
9, 37320, Note_on_c, 8, 93, 0
9, 37320, Note_on_c, 8, 92, 53
9, 37320, Note_on_c, 8, 80, 53
9, 37440, Note_on_c, 8, 80, 0
9, 37440, Note_on_c, 8, 92, 0
9, 37440, Note_on_c, 8, 91, 50
9, 37440, Note_on_c, 8, 79, 56
9, 37560, Note_on_c, 8, 79, 0
9, 37560, Note_on_c, 8, 91, 0
9, 37560, Note_on_c, 8, 90, 43
9, 37560, Note_on_c, 8, 78, 49
9, 37680, Note_on_c, 8, 78, 0
9, 37680, Note_on_c, 8, 90, 0
9, 37680, Note_on_c, 8, 89, 46
9, 37680, Note_on_c, 8, 77, 52
9, 37800, Note_on_c, 8, 77, 0
9, 37800, Note_on_c, 8, 89, 0
9, 37800, Note_on_c, 8, 88, 64
9, 37800, Note_on_c, 8, 76, 57
9, 37920, Note_on_c, 8, 76, 0
9, 37920, Note_on_c, 8, 88, 0
9, 37920, Note_on_c, 8, 86, 40
9, 37920, Note_on_c, 8, 74, 64
9, 38040, Note_on_c, 8, 74, 0
9, 38040, Note_on_c, 8, 86, 0
9, 38040, Note_on_c, 8, 79, 52
9, 38040, Note_on_c, 8, 91, 45
9, 38280, Note_on_c, 8, 91, 0
9, 38280, Note_on_c, 8, 79, 0
9, 38370, Note_on_c, 8, 91, 93
9, 38400, Note_on_c, 8, 91, 0
9, 38400, Note_on_c, 8, 89, 101
9, 38430, Note_on_c, 8, 89, 0
9, 38430, Note_on_c, 8, 88, 95
9, 38460, Note_on_c, 8, 88, 0
9, 38460, Note_on_c, 8, 86, 99
9, 38490, Note_on_c, 8, 86, 0
9, 38490, Note_on_c, 8, 84, 84
9, 38520, Note_on_c, 8, 84, 0
9, 38520, Note_on_c, 8, 83, 86
9, 38550, Note_on_c, 8, 83, 0
9, 38550, Note_on_c, 8, 81, 94
9, 38580, Note_on_c, 8, 81, 0
9, 38580, Note_on_c, 8, 79, 84
9, 38610, Note_on_c, 8, 79, 0
9, 38610, Note_on_c, 8, 77, 82
9, 38640, Note_on_c, 8, 77, 0
9, 38640, Note_on_c, 8, 76, 99
9, 38670, Note_on_c, 8, 76, 0
9, 38670, Note_on_c, 8, 74, 90
9, 38700, Note_on_c, 8, 74, 0
9, 38700, Note_on_c, 8, 72, 115
9, 38730, Note_on_c, 8, 72, 0
9, 38730, Note_on_c, 8, 71, 94
9, 38760, Note_on_c, 8, 71, 0
9, 38760, Note_on_c, 8, 69, 93
9, 38790, Note_on_c, 8, 69, 0
9, 38790, Note_on_c, 8, 67, 81
9, 38820, Note_on_c, 8, 67, 0
9, 38820, Note_on_c, 8, 65, 93
9, 38850, Note_on_c, 8, 65, 0
9, 38850, Note_on_c, 8, 64, 89
9, 38880, Note_on_c, 8, 64, 0
9, 38880, Note_on_c, 8, 62, 86
9, 38910, Note_on_c, 8, 62, 0
9, 38910, Note_on_c, 8, 60, 89
9, 38940, Note_on_c, 8, 60, 0
9, 38940, Note_on_c, 8, 59, 89
9, 38970, Note_on_c, 8, 59, 0
9, 38970, Note_on_c, 8, 57, 94
9, 39000, Note_on_c, 8, 57, 0
9, 39000, Note_on_c, 8, 55, 89
9, 39030, Note_on_c, 8, 55, 0
9, 39030, Note_on_c, 8, 53, 77
9, 39060, Note_on_c, 8, 53, 0
9, 39060, Note_on_c, 8, 52, 93
9, 39090, Note_on_c, 8, 52, 0
9, 39090, Note_on_c, 8, 50, 99
9, 39120, Note_on_c, 8, 50, 0
9, 39120, Note_on_c, 8, 48, 81
9, 39150, Note_on_c, 8, 48, 0
9, 39150, Note_on_c, 8, 47, 85
9, 39180, Note_on_c, 8, 47, 0
9, 39180, Note_on_c, 8, 45, 95
9, 39210, Note_on_c, 8, 45, 0
9, 39210, Note_on_c, 8, 43, 93
9, 39220, Control_c, 8, 64, 0
9, 39230, Control_c, 8, 64, 0
9, 39240, Note_on_c, 8, 43, 0
9, 39240, Note_on_c, 8, 44, 93
9, 39270, Note_on_c, 8, 44, 0
9, 39270, Note_on_c, 8, 45, 84
9, 39300, Note_on_c, 8, 45, 0
9, 39300, Note_on_c, 8, 46, 89
9, 39330, Note_on_c, 8, 46, 0
9, 39330, Note_on_c, 8, 47, 84
9, 39360, Note_on_c, 8, 47, 0
9, 39360, Note_on_c, 8, 48, 86
9, 39390, Note_on_c, 8, 48, 0
9, 39390, Note_on_c, 8, 49, 80
9, 39420, Note_on_c, 8, 49, 0
9, 39420, Note_on_c, 8, 50, 85
9, 39450, Note_on_c, 8, 50, 0
9, 39450, Note_on_c, 8, 51, 89
9, 39480, Note_on_c, 8, 51, 0
9, 39480, Note_on_c, 8, 52, 89
9, 39510, Note_on_c, 8, 52, 0
9, 39510, Note_on_c, 8, 53, 80
9, 39540, Note_on_c, 8, 53, 0
9, 39540, Note_on_c, 8, 54, 95
9, 39570, Note_on_c, 8, 54, 0
9, 39570, Note_on_c, 8, 55, 80
9, 39600, Note_on_c, 8, 55, 0
9, 39600, Note_on_c, 8, 56, 73
9, 39630, Note_on_c, 8, 56, 0
9, 39630, Note_on_c, 8, 57, 94
9, 39660, Note_on_c, 8, 57, 0
9, 39660, Note_on_c, 8, 58, 85
9, 39690, Note_on_c, 8, 58, 0
9, 39690, Note_on_c, 8, 59, 86
9, 39720, Note_on_c, 8, 59, 0
9, 39720, Note_on_c, 8, 60, 84
9, 39750, Note_on_c, 8, 60, 0
9, 39750, Note_on_c, 8, 61, 99
9, 39780, Note_on_c, 8, 61, 0
9, 39780, Note_on_c, 8, 62, 86
9, 39810, Note_on_c, 8, 62, 0
9, 39810, Note_on_c, 8, 63, 99
9, 39840, Note_on_c, 8, 63, 0
9, 39840, Note_on_c, 8, 64, 89
9, 39870, Note_on_c, 8, 64, 0
9, 39870, Note_on_c, 8, 65, 86
9, 39900, Note_on_c, 8, 65, 0
9, 39900, Note_on_c, 8, 66, 90
9, 39930, Note_on_c, 8, 66, 0
9, 39930, Note_on_c, 8, 67, 74
9, 39960, Note_on_c, 8, 67, 0
9, 39960, Note_on_c, 8, 68, 89
9, 39990, Note_on_c, 8, 68, 0
9, 39990, Note_on_c, 8, 69, 89
9, 40020, Note_on_c, 8, 69, 0
9, 40020, Note_on_c, 8, 70, 99
9, 40050, Note_on_c, 8, 70, 0
9, 40050, Note_on_c, 8, 71, 86
9, 40080, Note_on_c, 8, 71, 0
9, 40080, Note_on_c, 8, 72, 115
9, 40110, Note_on_c, 8, 72, 0
9, 40110, Note_on_c, 8, 73, 94
9, 40140, Note_on_c, 8, 73, 0
9, 40140, Note_on_c, 8, 74, 93
9, 40170, Note_on_c, 8, 74, 0
9, 40170, Note_on_c, 8, 75, 94
9, 40200, Note_on_c, 8, 75, 0
9, 40200, Note_on_c, 8, 76, 86
9, 40230, Note_on_c, 8, 76, 0
9, 40230, Note_on_c, 8, 77, 71
9, 40260, Note_on_c, 8, 77, 0
9, 40260, Note_on_c, 8, 78, 78
9, 40290, Note_on_c, 8, 78, 0
9, 40290, Note_on_c, 8, 79, 77
9, 40320, Note_on_c, 8, 79, 0
9, 40320, Note_on_c, 8, 80, 80
9, 40350, Note_on_c, 8, 80, 0
9, 40350, Note_on_c, 8, 81, 93
9, 40380, Note_on_c, 8, 81, 0
9, 40380, Note_on_c, 8, 82, 84
9, 40410, Note_on_c, 8, 82, 0
9, 40410, Note_on_c, 8, 83, 89
9, 40440, Note_on_c, 8, 83, 0
9, 40440, Note_on_c, 8, 84, 80
9, 40470, Note_on_c, 8, 84, 0
9, 40470, Note_on_c, 8, 85, 76
9, 40500, Note_on_c, 8, 85, 0
9, 40500, Note_on_c, 8, 86, 65
9, 40530, Note_on_c, 8, 86, 0
9, 40530, Note_on_c, 8, 87, 64
9, 40560, Note_on_c, 8, 87, 0
9, 40560, Note_on_c, 8, 88, 73
9, 40680, Note_on_c, 8, 88, 0
9, 42830, Control_c, 8, 7, 81
9, 42960, Note_on_c, 8, 76, 77
9, 42960, Note_on_c, 8, 48, 68
9, 43020, Note_on_c, 8, 48, 0
9, 43020, Note_on_c, 8, 55, 61
9, 43020, Note_on_c, 8, 64, 65
9, 43020, Note_on_c, 8, 60, 67
9, 43080, Note_on_c, 8, 76, 0
9, 43110, Note_on_c, 8, 76, 81
9, 43140, Note_on_c, 8, 76, 0
9, 43140, Note_on_c, 8, 79, 70
9, 43170, Note_on_c, 8, 79, 0
9, 43170, Note_on_c, 8, 77, 69
9, 43200, Note_on_c, 8, 77, 0
9, 43200, Note_on_c, 8, 60, 0
9, 43200, Note_on_c, 8, 64, 0
9, 43200, Note_on_c, 8, 55, 0
9, 43200, Note_on_c, 8, 76, 74
9, 43200, Note_on_c, 8, 48, 65
9, 43260, Note_on_c, 8, 48, 0
9, 43260, Note_on_c, 8, 55, 63
9, 43260, Note_on_c, 8, 64, 70
9, 43260, Note_on_c, 8, 60, 73
9, 43320, Note_on_c, 8, 76, 0
9, 43350, Note_on_c, 8, 76, 82
9, 43380, Note_on_c, 8, 76, 0
9, 43380, Note_on_c, 8, 79, 72
9, 43410, Note_on_c, 8, 79, 0
9, 43410, Note_on_c, 8, 77, 71
9, 43440, Note_on_c, 8, 77, 0
9, 43440, Note_on_c, 8, 60, 0
9, 43440, Note_on_c, 8, 64, 0
9, 43440, Note_on_c, 8, 55, 0
9, 43440, Note_on_c, 8, 76, 84
9, 43440, Note_on_c, 8, 48, 62
9, 43470, Note_on_c, 8, 76, 0
9, 43470, Note_on_c, 8, 76, 81
9, 43500, Note_on_c, 8, 76, 0
9, 43500, Note_on_c, 8, 48, 0
9, 43500, Note_on_c, 8, 79, 78
9, 43500, Note_on_c, 8, 55, 72
9, 43500, Note_on_c, 8, 60, 76
9, 43500, Note_on_c, 8, 64, 58
9, 43530, Note_on_c, 8, 79, 0
9, 43530, Note_on_c, 8, 77, 76
9, 43560, Note_on_c, 8, 77, 0
9, 43560, Note_on_c, 8, 64, 0
9, 43560, Note_on_c, 8, 60, 0
9, 43560, Note_on_c, 8, 55, 0
9, 43560, Note_on_c, 8, 76, 77
9, 43560, Note_on_c, 8, 48, 65
9, 43590, Note_on_c, 8, 76, 0
9, 43590, Note_on_c, 8, 76, 86
9, 43620, Note_on_c, 8, 76, 0
9, 43620, Note_on_c, 8, 48, 0
9, 43620, Note_on_c, 8, 79, 84
9, 43620, Note_on_c, 8, 55, 74
9, 43620, Note_on_c, 8, 60, 73
9, 43620, Note_on_c, 8, 64, 65
9, 43650, Note_on_c, 8, 79, 0
9, 43650, Note_on_c, 8, 84, 73
9, 43680, Note_on_c, 8, 84, 0
9, 43680, Note_on_c, 8, 64, 0
9, 43680, Note_on_c, 8, 60, 0
9, 43680, Note_on_c, 8, 55, 0
9, 43680, Note_on_c, 8, 88, 80
9, 43680, Note_on_c, 8, 48, 72
9, 43740, Note_on_c, 8, 48, 0
9, 43740, Note_on_c, 8, 88, 0
9, 43740, Note_on_c, 8, 55, 58
9, 43740, Note_on_c, 8, 64, 72
9, 43740, Note_on_c, 8, 60, 68
9, 43920, Note_on_c, 8, 60, 0
9, 43920, Note_on_c, 8, 64, 0
9, 43920, Note_on_c, 8, 55, 0
9, 43920, Note_on_c, 8, 88, 74
9, 43920, Note_on_c, 8, 45, 77
9, 43940, Note_on_c, 8, 88, 0
9, 43940, Note_on_c, 8, 89, 74
9, 43960, Note_on_c, 8, 89, 0
9, 43960, Note_on_c, 8, 88, 77
9, 43980, Note_on_c, 8, 88, 0
9, 43980, Note_on_c, 8, 45, 0
9, 43980, Note_on_c, 8, 86, 80
9, 43980, Note_on_c, 8, 57, 67
9, 43980, Note_on_c, 8, 64, 67
9, 43980, Note_on_c, 8, 60, 73
9, 44010, Note_on_c, 8, 86, 0
9, 44010, Note_on_c, 8, 88, 78
9, 44040, Note_on_c, 8, 88, 0
9, 44040, Note_on_c, 8, 60, 0
9, 44040, Note_on_c, 8, 64, 0
9, 44040, Note_on_c, 8, 57, 0
9, 44040, Note_on_c, 8, 84, 69
9, 44040, Note_on_c, 8, 48, 74
9, 44060, Note_on_c, 8, 84, 0
9, 44060, Note_on_c, 8, 86, 84
9, 44080, Note_on_c, 8, 86, 0
9, 44080, Note_on_c, 8, 84, 71
9, 44100, Note_on_c, 8, 84, 0
9, 44100, Note_on_c, 8, 48, 0
9, 44100, Note_on_c, 8, 83, 76
9, 44100, Note_on_c, 8, 57, 82
9, 44100, Note_on_c, 8, 60, 72
9, 44100, Note_on_c, 8, 64, 70
9, 44130, Note_on_c, 8, 83, 0
9, 44130, Note_on_c, 8, 84, 74
9, 44160, Note_on_c, 8, 84, 0
9, 44160, Note_on_c, 8, 64, 0
9, 44160, Note_on_c, 8, 60, 0
9, 44160, Note_on_c, 8, 57, 0
9, 44160, Note_on_c, 8, 81, 72
9, 44160, Note_on_c, 8, 50, 77
9, 44220, Note_on_c, 8, 50, 0
9, 44220, Note_on_c, 8, 81, 0
9, 44220, Note_on_c, 8, 66, 61
9, 44220, Note_on_c, 8, 57, 73
9, 44220, Note_on_c, 8, 62, 69
9, 44400, Note_on_c, 8, 62, 0
9, 44400, Note_on_c, 8, 57, 0
9, 44400, Note_on_c, 8, 66, 0
9, 44400, Note_on_c, 8, 81, 80
9, 44400, Note_on_c, 8, 50, 80
9, 44420, Note_on_c, 8, 81, 0
9, 44420, Note_on_c, 8, 83, 74
9, 44440, Note_on_c, 8, 83, 0
9, 44440, Note_on_c, 8, 81, 59
9, 44460, Note_on_c, 8, 81, 0
9, 44460, Note_on_c, 8, 50, 0
9, 44460, Note_on_c, 8, 79, 71
9, 44460, Note_on_c, 8, 66, 65
9, 44460, Note_on_c, 8, 57, 81
9, 44460, Note_on_c, 8, 62, 80
9, 44490, Note_on_c, 8, 79, 0
9, 44490, Note_on_c, 8, 81, 69
9, 44520, Note_on_c, 8, 81, 0
9, 44520, Note_on_c, 8, 86, 72
9, 44540, Note_on_c, 8, 86, 0
9, 44540, Note_on_c, 8, 88, 67
9, 44560, Note_on_c, 8, 88, 0
9, 44560, Note_on_c, 8, 86, 76
9, 44580, Note_on_c, 8, 86, 0
9, 44580, Note_on_c, 8, 84, 73
9, 44610, Note_on_c, 8, 84, 0
9, 44610, Note_on_c, 8, 86, 73
9, 44640, Note_on_c, 8, 86, 0
9, 44640, Note_on_c, 8, 66, 0
9, 44640, Note_on_c, 8, 57, 0
9, 44640, Note_on_c, 8, 62, 0
9, 44640, Note_on_c, 8, 83, 69
9, 44640, Note_on_c, 8, 55, 73
9, 44660, Note_on_c, 8, 83, 0
9, 44660, Note_on_c, 8, 84, 73
9, 44680, Note_on_c, 8, 84, 0
9, 44680, Note_on_c, 8, 83, 78
9, 44700, Note_on_c, 8, 83, 0
9, 44700, Note_on_c, 8, 55, 0
9, 44700, Note_on_c, 8, 81, 78
9, 44700, Note_on_c, 8, 67, 58
9, 44700, Note_on_c, 8, 62, 65
9, 44700, Note_on_c, 8, 59, 62
9, 44730, Note_on_c, 8, 81, 0
9, 44730, Note_on_c, 8, 83, 65
9, 44760, Note_on_c, 8, 83, 0
9, 44760, Note_on_c, 8, 79, 73
9, 44820, Note_on_c, 8, 79, 0
9, 44880, Note_on_c, 8, 67, 0
9, 44880, Note_on_c, 8, 62, 0
9, 44880, Note_on_c, 8, 59, 0
9, 44880, Note_on_c, 8, 81, 64
9, 44880, Note_on_c, 8, 48, 77
9, 44940, Note_on_c, 8, 48, 0
9, 44940, Note_on_c, 8, 81, 0
9, 44940, Note_on_c, 8, 57, 74
9, 44940, Note_on_c, 8, 60, 73
9, 44940, Note_on_c, 8, 64, 72
9, 45000, Note_on_c, 8, 64, 0
9, 45000, Note_on_c, 8, 60, 0
9, 45000, Note_on_c, 8, 57, 0
9, 45000, Note_on_c, 8, 74, 73
9, 45000, Note_on_c, 8, 50, 93
9, 45060, Note_on_c, 8, 50, 0
9, 45060, Note_on_c, 8, 74, 0
9, 45060, Note_on_c, 8, 54, 68
9, 45060, Note_on_c, 8, 62, 64
9, 45060, Note_on_c, 8, 57, 86
9, 45120, Note_on_c, 8, 57, 0
9, 45120, Note_on_c, 8, 62, 0
9, 45120, Note_on_c, 8, 54, 0
9, 45120, Note_on_c, 8, 71, 71
9, 45120, Note_on_c, 8, 43, 77
9, 45180, Note_on_c, 8, 43, 0
9, 45180, Note_on_c, 8, 59, 68
9, 45180, Note_on_c, 8, 55, 72
9, 45180, Note_on_c, 8, 50, 59
9, 45360, Note_on_c, 8, 50, 0
9, 45360, Note_on_c, 8, 71, 0
9, 45360, Note_on_c, 8, 59, 0
9, 45360, Note_on_c, 8, 55, 0
9, 46320, Note_on_c, 8, 79, 74
9, 46320, Note_on_c, 8, 74, 65
9, 46320, Note_on_c, 8, 59, 72
9, 46350, Note_on_c, 8, 59, 0
9, 46350, Note_on_c, 8, 67, 46
9, 46380, Note_on_c, 8, 67, 0
9, 46380, Note_on_c, 8, 79, 0
9, 46380, Note_on_c, 8, 78, 70
9, 46380, Note_on_c, 8, 62, 67
9, 46410, Note_on_c, 8, 62, 0
9, 46410, Note_on_c, 8, 78, 0
9, 46410, Note_on_c, 8, 79, 80
9, 46410, Note_on_c, 8, 67, 59
9, 46440, Note_on_c, 8, 67, 0
9, 46440, Note_on_c, 8, 79, 0
9, 46440, Note_on_c, 8, 81, 76
9, 46440, Note_on_c, 8, 60, 72
9, 46470, Note_on_c, 8, 60, 0
9, 46470, Note_on_c, 8, 69, 76
9, 46500, Note_on_c, 8, 69, 0
9, 46500, Note_on_c, 8, 81, 0
9, 46500, Note_on_c, 8, 79, 74
9, 46500, Note_on_c, 8, 62, 73
9, 46530, Note_on_c, 8, 62, 0
9, 46530, Note_on_c, 8, 79, 0
9, 46530, Note_on_c, 8, 78, 80
9, 46530, Note_on_c, 8, 69, 81
9, 46560, Note_on_c, 8, 69, 0
9, 46560, Note_on_c, 8, 78, 0
9, 46560, Note_on_c, 8, 79, 67
9, 46560, Note_on_c, 8, 59, 73
9, 46590, Note_on_c, 8, 59, 0
9, 46590, Note_on_c, 8, 67, 71
9, 46620, Note_on_c, 8, 67, 0
9, 46620, Note_on_c, 8, 79, 0
9, 46620, Note_on_c, 8, 74, 0
9, 46620, Note_on_c, 8, 86, 80
9, 46620, Note_on_c, 8, 74, 74
9, 46620, Note_on_c, 8, 62, 81
9, 46650, Note_on_c, 8, 62, 0
9, 46650, Note_on_c, 8, 67, 74
9, 46680, Note_on_c, 8, 67, 0
9, 46680, Note_on_c, 8, 74, 0
9, 46680, Note_on_c, 8, 86, 0
9, 46680, Note_on_c, 8, 84, 68
9, 46680, Note_on_c, 8, 72, 82
9, 46680, Note_on_c, 8, 57, 85
9, 46710, Note_on_c, 8, 57, 0
9, 46710, Note_on_c, 8, 66, 67
9, 46740, Note_on_c, 8, 66, 0
9, 46740, Note_on_c, 8, 62, 76
9, 46770, Note_on_c, 8, 62, 0
9, 46770, Note_on_c, 8, 66, 73
9, 46800, Note_on_c, 8, 66, 0
9, 46800, Note_on_c, 8, 72, 0
9, 46800, Note_on_c, 8, 84, 0
9, 46800, Note_on_c, 8, 83, 76
9, 46800, Note_on_c, 8, 71, 72
9, 46800, Note_on_c, 8, 55, 68
9, 46830, Note_on_c, 8, 55, 0
9, 46830, Note_on_c, 8, 67, 68
9, 46860, Note_on_c, 8, 67, 0
9, 46860, Note_on_c, 8, 83, 0
9, 46860, Note_on_c, 8, 81, 76
9, 46860, Note_on_c, 8, 62, 73
9, 46890, Note_on_c, 8, 62, 0
9, 46890, Note_on_c, 8, 81, 0
9, 46890, Note_on_c, 8, 79, 71
9, 46890, Note_on_c, 8, 67, 71
9, 46920, Note_on_c, 8, 67, 0
9, 46920, Note_on_c, 8, 79, 0
9, 46920, Note_on_c, 8, 71, 0
9, 46920, Note_on_c, 8, 81, 77
9, 46920, Note_on_c, 8, 69, 72
9, 46920, Note_on_c, 8, 54, 72
9, 46950, Note_on_c, 8, 54, 0
9, 46950, Note_on_c, 8, 66, 73
9, 46980, Note_on_c, 8, 66, 0
9, 46980, Note_on_c, 8, 81, 0
9, 46980, Note_on_c, 8, 79, 77
9, 46980, Note_on_c, 8, 62, 84
9, 47010, Note_on_c, 8, 62, 0
9, 47010, Note_on_c, 8, 79, 0
9, 47010, Note_on_c, 8, 78, 74
9, 47010, Note_on_c, 8, 66, 72
9, 47040, Note_on_c, 8, 66, 0
9, 47040, Note_on_c, 8, 78, 0
9, 47040, Note_on_c, 8, 69, 0
9, 47040, Note_on_c, 8, 79, 71
9, 47040, Note_on_c, 8, 71, 70
9, 47040, Note_on_c, 8, 52, 77
9, 47070, Note_on_c, 8, 52, 0
9, 47070, Note_on_c, 8, 64, 70
9, 47100, Note_on_c, 8, 64, 0
9, 47100, Note_on_c, 8, 71, 0
9, 47100, Note_on_c, 8, 79, 0
9, 47100, Note_on_c, 8, 76, 81
9, 47100, Note_on_c, 8, 73, 65
9, 47100, Note_on_c, 8, 57, 85
9, 47130, Note_on_c, 8, 57, 0
9, 47130, Note_on_c, 8, 69, 70
9, 47160, Note_on_c, 8, 69, 0
9, 47160, Note_on_c, 8, 73, 0
9, 47160, Note_on_c, 8, 76, 0
9, 47160, Note_on_c, 8, 74, 82
9, 47160, Note_on_c, 8, 74, 76
9, 47160, Note_on_c, 8, 62, 74
9, 47160, Note_on_c, 8, 66, 72
9, 47220, Note_on_c, 8, 66, 0
9, 47220, Note_on_c, 8, 74, 0
9, 47220, Note_on_c, 8, 74, 0
9, 47220, Note_on_c, 8, 62, 0
9, 47400, Control_c, 8, 7, 99
9, 47520, Note_on_c, 8, 64, 43
9, 47520, Note_on_c, 8, 57, 50
9, 47520, Note_on_c, 8, 71, 45
9, 47520, Note_on_c, 8, 79, 61
9, 47550, Note_on_c, 8, 79, 0
9, 47550, Note_on_c, 8, 64, 0
9, 47550, Note_on_c, 8, 57, 0
9, 47550, Note_on_c, 8, 71, 0
9, 47550, Note_on_c, 8, 76, 65
9, 47550, Note_on_c, 8, 73, 55
9, 47550, Note_on_c, 8, 67, 56
9, 47580, Note_on_c, 8, 67, 0
9, 47580, Note_on_c, 8, 73, 0
9, 47580, Note_on_c, 8, 76, 0
9, 47580, Note_on_c, 8, 66, 57
9, 47580, Note_on_c, 8, 62, 62
9, 47580, Note_on_c, 8, 74, 65
9, 47610, Note_on_c, 8, 74, 0
9, 47610, Note_on_c, 8, 62, 0
9, 47610, Note_on_c, 8, 66, 0
9, 51120, Note_on_c, 8, 58, 90
9, 51150, Note_on_c, 8, 58, 0
9, 51150, Note_on_c, 8, 62, 99
9, 51180, Note_on_c, 8, 62, 0
9, 51180, Note_on_c, 8, 64, 99
9, 51180, Note_on_c, 8, 86, 119
9, 51210, Note_on_c, 8, 64, 0
9, 51210, Note_on_c, 8, 66, 84
9, 51240, Note_on_c, 8, 66, 0
9, 51240, Note_on_c, 8, 67, 84
9, 51270, Note_on_c, 8, 67, 0
9, 51270, Note_on_c, 8, 66, 89
9, 51300, Note_on_c, 8, 66, 0
9, 51300, Note_on_c, 8, 86, 0
9, 51300, Note_on_c, 8, 67, 78
9, 51300, Note_on_c, 8, 74, 99
9, 51330, Note_on_c, 8, 74, 0
9, 51330, Note_on_c, 8, 67, 0
9, 51330, Note_on_c, 8, 68, 93
9, 51360, Note_on_c, 8, 68, 0
9, 51360, Note_on_c, 8, 69, 89
9, 51360, Note_on_c, 8, 84, 86
9, 51390, Note_on_c, 8, 84, 0
9, 51390, Note_on_c, 8, 69, 0
9, 51390, Note_on_c, 8, 62, 86
9, 51420, Note_on_c, 8, 62, 0
9, 51420, Note_on_c, 8, 64, 93
9, 51420, Note_on_c, 8, 72, 119
9, 51450, Note_on_c, 8, 72, 0
9, 51450, Note_on_c, 8, 64, 0
9, 51450, Note_on_c, 8, 66, 84
9, 51480, Note_on_c, 8, 66, 0
9, 51480, Note_on_c, 8, 67, 85
9, 51480, Note_on_c, 8, 82, 76
9, 51510, Note_on_c, 8, 82, 0
9, 51510, Note_on_c, 8, 67, 0
9, 51510, Note_on_c, 8, 65, 94
9, 51540, Note_on_c, 8, 65, 0
9, 51540, Note_on_c, 8, 63, 84
9, 51540, Note_on_c, 8, 70, 99
9, 51570, Note_on_c, 8, 70, 0
9, 51570, Note_on_c, 8, 63, 0
9, 51570, Note_on_c, 8, 62, 94
9, 51600, Note_on_c, 8, 62, 0
9, 51600, Note_on_c, 8, 60, 76
9, 51600, Note_on_c, 8, 81, 90
9, 51630, Note_on_c, 8, 81, 0
9, 51630, Note_on_c, 8, 60, 0
9, 51630, Note_on_c, 8, 58, 94
9, 51660, Note_on_c, 8, 58, 0
9, 51660, Note_on_c, 8, 60, 84
9, 51660, Note_on_c, 8, 69, 98
9, 51690, Note_on_c, 8, 69, 0
9, 51690, Note_on_c, 8, 60, 0
9, 51690, Note_on_c, 8, 62, 84
9, 51720, Note_on_c, 8, 62, 0
9, 51720, Note_on_c, 8, 58, 86
9, 51720, Note_on_c, 8, 79, 86
9, 51750, Note_on_c, 8, 79, 0
9, 51750, Note_on_c, 8, 58, 0
9, 51750, Note_on_c, 8, 55, 93
9, 51780, Note_on_c, 8, 55, 0
9, 51780, Note_on_c, 8, 57, 99
9, 51780, Note_on_c, 8, 67, 93
9, 51810, Note_on_c, 8, 67, 0
9, 51810, Note_on_c, 8, 57, 0
9, 51810, Note_on_c, 8, 58, 89
9, 51840, Note_on_c, 8, 58, 0
9, 51840, Note_on_c, 8, 60, 78
9, 51840, Note_on_c, 8, 81, 84
9, 51870, Note_on_c, 8, 81, 0
9, 51870, Note_on_c, 8, 60, 0
9, 51870, Note_on_c, 8, 57, 99
9, 51900, Note_on_c, 8, 57, 0
9, 51900, Note_on_c, 8, 58, 93
9, 51900, Note_on_c, 8, 69, 99
9, 51930, Note_on_c, 8, 69, 0
9, 51930, Note_on_c, 8, 58, 0
9, 51930, Note_on_c, 8, 60, 85
9, 51960, Note_on_c, 8, 60, 0
9, 51960, Note_on_c, 8, 62, 78
9, 51960, Note_on_c, 8, 78, 84
9, 51990, Note_on_c, 8, 78, 0
9, 51990, Note_on_c, 8, 62, 0
9, 51990, Note_on_c, 8, 61, 85
9, 52020, Note_on_c, 8, 61, 0
9, 52020, Note_on_c, 8, 62, 85
9, 52020, Note_on_c, 8, 66, 90
9, 52050, Note_on_c, 8, 66, 0
9, 52050, Note_on_c, 8, 62, 0
9, 52050, Note_on_c, 8, 50, 95
9, 52080, Note_on_c, 8, 50, 0
9, 53040, Note_on_c, 8, 67, 81
9, 53070, Note_on_c, 8, 67, 0
9, 53070, Note_on_c, 8, 70, 95
9, 53100, Note_on_c, 8, 70, 0
9, 53100, Note_on_c, 8, 72, 125
9, 53100, Note_on_c, 8, 94, 117
9, 53130, Note_on_c, 8, 72, 0
9, 53130, Note_on_c, 8, 74, 99
9, 53160, Note_on_c, 8, 74, 0
9, 53160, Note_on_c, 8, 75, 94
9, 53190, Note_on_c, 8, 75, 0
9, 53190, Note_on_c, 8, 72, 123
9, 53220, Note_on_c, 8, 72, 0
9, 53220, Note_on_c, 8, 94, 0
9, 53220, Note_on_c, 8, 74, 95
9, 53220, Note_on_c, 8, 82, 90
9, 53250, Note_on_c, 8, 82, 0
9, 53250, Note_on_c, 8, 74, 0
9, 53250, Note_on_c, 8, 75, 99
9, 53280, Note_on_c, 8, 75, 0
9, 53280, Note_on_c, 8, 77, 94
9, 53280, Note_on_c, 8, 92, 89
9, 53310, Note_on_c, 8, 92, 0
9, 53310, Note_on_c, 8, 77, 0
9, 53310, Note_on_c, 8, 70, 89
9, 53340, Note_on_c, 8, 70, 0
9, 53340, Note_on_c, 8, 72, 112
9, 53340, Note_on_c, 8, 80, 104
9, 53370, Note_on_c, 8, 80, 0
9, 53370, Note_on_c, 8, 72, 0
9, 53370, Note_on_c, 8, 74, 94
9, 53400, Note_on_c, 8, 74, 0
9, 53400, Note_on_c, 8, 75, 104
9, 53400, Note_on_c, 8, 91, 89
9, 53430, Note_on_c, 8, 91, 0
9, 53430, Note_on_c, 8, 75, 0
9, 53430, Note_on_c, 8, 74, 99
9, 53460, Note_on_c, 8, 74, 0
9, 53460, Note_on_c, 8, 72, 115
9, 53460, Note_on_c, 8, 79, 93
9, 53490, Note_on_c, 8, 79, 0
9, 53490, Note_on_c, 8, 72, 0
9, 53490, Note_on_c, 8, 70, 94
9, 53520, Note_on_c, 8, 70, 0
9, 53520, Note_on_c, 8, 68, 95
9, 53520, Note_on_c, 8, 89, 95
9, 53550, Note_on_c, 8, 89, 0
9, 53550, Note_on_c, 8, 68, 0
9, 53550, Note_on_c, 8, 67, 86
9, 53580, Note_on_c, 8, 67, 0
9, 53580, Note_on_c, 8, 68, 84
9, 53580, Note_on_c, 8, 77, 95
9, 53610, Note_on_c, 8, 77, 0
9, 53610, Note_on_c, 8, 68, 0
9, 53610, Note_on_c, 8, 70, 99
9, 53640, Note_on_c, 8, 70, 0
9, 53640, Note_on_c, 8, 67, 94
9, 53640, Note_on_c, 8, 87, 99
9, 53670, Note_on_c, 8, 87, 0
9, 53670, Note_on_c, 8, 67, 0
9, 53670, Note_on_c, 8, 63, 80
9, 53700, Note_on_c, 8, 63, 0
9, 53700, Note_on_c, 8, 65, 86
9, 53700, Note_on_c, 8, 75, 105
9, 53730, Note_on_c, 8, 75, 0
9, 53730, Note_on_c, 8, 65, 0
9, 53730, Note_on_c, 8, 67, 90
9, 53760, Note_on_c, 8, 67, 0
9, 53760, Note_on_c, 8, 68, 94
9, 53760, Note_on_c, 8, 89, 99
9, 53790, Note_on_c, 8, 89, 0
9, 53790, Note_on_c, 8, 68, 0
9, 53790, Note_on_c, 8, 65, 81
9, 53820, Note_on_c, 8, 65, 0
9, 53820, Note_on_c, 8, 67, 93
9, 53820, Note_on_c, 8, 77, 98
9, 53850, Note_on_c, 8, 77, 0
9, 53850, Note_on_c, 8, 67, 0
9, 53850, Note_on_c, 8, 68, 94
9, 53880, Note_on_c, 8, 68, 0
9, 53880, Note_on_c, 8, 70, 93
9, 53880, Note_on_c, 8, 86, 94
9, 53910, Note_on_c, 8, 86, 0
9, 53910, Note_on_c, 8, 70, 0
9, 53910, Note_on_c, 8, 68, 82
9, 53940, Note_on_c, 8, 68, 0
9, 53940, Note_on_c, 8, 67, 84
9, 53940, Note_on_c, 8, 74, 104
9, 53970, Note_on_c, 8, 74, 0
9, 53970, Note_on_c, 8, 67, 0
9, 53970, Note_on_c, 8, 65, 86
9, 54000, Note_on_c, 8, 65, 0
9, 54000, Control_c, 8, 64, 100
9, 54000, Note_on_c, 8, 75, 112
9, 54000, Note_on_c, 8, 87, 107
9, 54030, Note_on_c, 8, 87, 0
9, 54030, Note_on_c, 8, 75, 0
9, 54030, Note_on_c, 8, 63, 89
9, 54030, Note_on_c, 8, 75, 99
9, 54060, Note_on_c, 8, 75, 0
9, 54060, Note_on_c, 8, 63, 0
9, 54060, Note_on_c, 8, 67, 104
9, 54060, Note_on_c, 8, 79, 107
9, 54090, Note_on_c, 8, 79, 0
9, 54090, Note_on_c, 8, 67, 0
9, 54090, Note_on_c, 8, 70, 105
9, 54090, Note_on_c, 8, 82, 104
9, 54120, Note_on_c, 8, 82, 0
9, 54120, Note_on_c, 8, 70, 0
9, 54120, Note_on_c, 8, 75, 115
9, 54120, Note_on_c, 8, 87, 105
9, 54150, Note_on_c, 8, 87, 0
9, 54150, Note_on_c, 8, 75, 0
9, 54150, Note_on_c, 8, 70, 104
9, 54150, Note_on_c, 8, 82, 98
9, 54180, Note_on_c, 8, 82, 0
9, 54180, Note_on_c, 8, 70, 0
9, 54180, Note_on_c, 8, 67, 104
9, 54180, Note_on_c, 8, 79, 99
9, 54210, Note_on_c, 8, 79, 0
9, 54210, Note_on_c, 8, 67, 0
9, 54210, Note_on_c, 8, 63, 105
9, 54210, Note_on_c, 8, 75, 98
9, 54240, Note_on_c, 8, 75, 0
9, 54240, Note_on_c, 8, 63, 0
9, 54240, Note_on_c, 8, 79, 112
9, 54240, Note_on_c, 8, 91, 119
9, 54270, Note_on_c, 8, 91, 0
9, 54270, Note_on_c, 8, 79, 0
9, 54270, Note_on_c, 8, 75, 110
9, 54270, Note_on_c, 8, 87, 101
9, 54300, Note_on_c, 8, 87, 0
9, 54300, Note_on_c, 8, 75, 0
9, 54300, Note_on_c, 8, 70, 105
9, 54300, Note_on_c, 8, 82, 93
9, 54330, Note_on_c, 8, 82, 0
9, 54330, Note_on_c, 8, 70, 0
9, 54330, Note_on_c, 8, 67, 98
9, 54330, Note_on_c, 8, 79, 99
9, 54360, Note_on_c, 8, 79, 0
9, 54360, Note_on_c, 8, 67, 0
9, 54360, Note_on_c, 8, 75, 115
9, 54360, Note_on_c, 8, 87, 112
9, 54390, Note_on_c, 8, 87, 0
9, 54390, Note_on_c, 8, 75, 0
9, 54390, Note_on_c, 8, 70, 105
9, 54390, Note_on_c, 8, 82, 95
9, 54420, Note_on_c, 8, 82, 0
9, 54420, Note_on_c, 8, 70, 0
9, 54420, Note_on_c, 8, 67, 99
9, 54420, Note_on_c, 8, 79, 99
9, 54450, Note_on_c, 8, 79, 0
9, 54450, Note_on_c, 8, 67, 0
9, 54450, Note_on_c, 8, 63, 105
9, 54450, Note_on_c, 8, 75, 99
9, 54480, Note_on_c, 8, 75, 0
9, 54480, Note_on_c, 8, 63, 0
9, 54480, Note_on_c, 8, 75, 112
9, 54480, Note_on_c, 8, 91, 125
9, 54510, Note_on_c, 8, 91, 0
9, 54510, Note_on_c, 8, 75, 0
9, 54510, Note_on_c, 8, 70, 104
9, 54510, Note_on_c, 8, 87, 104
9, 54540, Note_on_c, 8, 87, 0
9, 54540, Note_on_c, 8, 70, 0
9, 54540, Note_on_c, 8, 67, 99
9, 54540, Note_on_c, 8, 82, 90
9, 54570, Note_on_c, 8, 82, 0
9, 54570, Note_on_c, 8, 67, 0
9, 54570, Note_on_c, 8, 63, 86
9, 54570, Note_on_c, 8, 79, 99
9, 54600, Note_on_c, 8, 79, 0
9, 54600, Note_on_c, 8, 63, 0
9, 54600, Note_on_c, 8, 75, 115
9, 54600, Note_on_c, 8, 87, 104
9, 54630, Note_on_c, 8, 87, 0
9, 54630, Note_on_c, 8, 75, 0
9, 54630, Note_on_c, 8, 70, 105
9, 54630, Note_on_c, 8, 82, 101
9, 54660, Note_on_c, 8, 82, 0
9, 54660, Note_on_c, 8, 70, 0
9, 54660, Note_on_c, 8, 67, 99
9, 54660, Note_on_c, 8, 79, 95
9, 54690, Note_on_c, 8, 79, 0
9, 54690, Note_on_c, 8, 67, 0
9, 54690, Note_on_c, 8, 63, 107
9, 54690, Note_on_c, 8, 75, 99
9, 54720, Note_on_c, 8, 75, 0
9, 54720, Note_on_c, 8, 63, 0
9, 54720, Note_on_c, 8, 75, 112
9, 54720, Note_on_c, 8, 91, 125
9, 54750, Note_on_c, 8, 91, 0
9, 54750, Note_on_c, 8, 75, 0
9, 54750, Note_on_c, 8, 70, 104
9, 54750, Note_on_c, 8, 87, 104
9, 54780, Note_on_c, 8, 87, 0
9, 54780, Note_on_c, 8, 70, 0
9, 54780, Note_on_c, 8, 67, 99
9, 54780, Note_on_c, 8, 82, 99
9, 54810, Note_on_c, 8, 82, 0
9, 54810, Note_on_c, 8, 67, 0
9, 54810, Note_on_c, 8, 63, 105
9, 54810, Note_on_c, 8, 79, 95
9, 54840, Note_on_c, 8, 79, 0
9, 54840, Note_on_c, 8, 63, 0
9, 54840, Note_on_c, 8, 75, 107
9, 54840, Note_on_c, 8, 87, 110
9, 54870, Note_on_c, 8, 87, 0
9, 54870, Note_on_c, 8, 75, 0
9, 54870, Note_on_c, 8, 70, 104
9, 54870, Note_on_c, 8, 82, 101
9, 54900, Note_on_c, 8, 82, 0
9, 54900, Note_on_c, 8, 70, 0
9, 54900, Note_on_c, 8, 67, 104
9, 54900, Note_on_c, 8, 79, 105
9, 54930, Note_on_c, 8, 79, 0
9, 54930, Note_on_c, 8, 67, 0
9, 54930, Note_on_c, 8, 63, 99
9, 54930, Note_on_c, 8, 75, 110
9, 54950, Control_c, 8, 64, 0
9, 54960, Note_on_c, 8, 75, 0
9, 54960, Note_on_c, 8, 63, 0
9, 54980, Control_c, 8, 64, 99
9, 54990, Note_on_c, 8, 65, 105
9, 54990, Note_on_c, 8, 77, 95
9, 55020, Note_on_c, 8, 77, 0
9, 55020, Note_on_c, 8, 65, 0
9, 55020, Note_on_c, 8, 70, 94
9, 55020, Note_on_c, 8, 82, 95
9, 55050, Note_on_c, 8, 82, 0
9, 55050, Note_on_c, 8, 70, 0
9, 55050, Note_on_c, 8, 74, 105
9, 55050, Note_on_c, 8, 86, 104
9, 55080, Note_on_c, 8, 86, 0
9, 55080, Note_on_c, 8, 74, 0
9, 55080, Note_on_c, 8, 77, 104
9, 55080, Note_on_c, 8, 89, 101
9, 55110, Note_on_c, 8, 89, 0
9, 55110, Note_on_c, 8, 77, 0
9, 55110, Note_on_c, 8, 70, 110
9, 55110, Note_on_c, 8, 82, 94
9, 55140, Note_on_c, 8, 82, 0
9, 55140, Note_on_c, 8, 70, 0
9, 55140, Note_on_c, 8, 74, 105
9, 55140, Note_on_c, 8, 86, 112
9, 55170, Note_on_c, 8, 86, 0
9, 55170, Note_on_c, 8, 74, 0
9, 55170, Note_on_c, 8, 77, 105
9, 55170, Note_on_c, 8, 89, 112
9, 55200, Note_on_c, 8, 89, 0
9, 55200, Note_on_c, 8, 77, 0
9, 55200, Note_on_c, 8, 80, 105
9, 55200, Note_on_c, 8, 92, 123
9, 55230, Note_on_c, 8, 92, 0
9, 55230, Note_on_c, 8, 80, 0
9, 55230, Note_on_c, 8, 77, 104
9, 55230, Note_on_c, 8, 89, 105
9, 55260, Note_on_c, 8, 89, 0
9, 55260, Note_on_c, 8, 77, 0
9, 55260, Note_on_c, 8, 74, 112
9, 55260, Note_on_c, 8, 86, 107
9, 55290, Note_on_c, 8, 86, 0
9, 55290, Note_on_c, 8, 74, 0
9, 55290, Note_on_c, 8, 70, 112
9, 55290, Note_on_c, 8, 82, 89
9, 55320, Note_on_c, 8, 82, 0
9, 55320, Note_on_c, 8, 70, 0
9, 55320, Note_on_c, 8, 89, 105
9, 55320, Note_on_c, 8, 77, 93
9, 55350, Note_on_c, 8, 77, 0
9, 55350, Note_on_c, 8, 89, 0
9, 55350, Note_on_c, 8, 86, 107
9, 55350, Note_on_c, 8, 74, 105
9, 55380, Note_on_c, 8, 74, 0
9, 55380, Note_on_c, 8, 86, 0
9, 55380, Note_on_c, 8, 70, 110
9, 55380, Note_on_c, 8, 82, 104
9, 55410, Note_on_c, 8, 82, 0
9, 55410, Note_on_c, 8, 70, 0
9, 55410, Note_on_c, 8, 68, 107
9, 55410, Note_on_c, 8, 80, 104
9, 55440, Note_on_c, 8, 80, 0
9, 55440, Note_on_c, 8, 68, 0
9, 55440, Note_on_c, 8, 77, 107
9, 55440, Note_on_c, 8, 92, 119
9, 55470, Note_on_c, 8, 92, 0
9, 55470, Note_on_c, 8, 77, 0
9, 55470, Note_on_c, 8, 74, 107
9, 55470, Note_on_c, 8, 89, 104
9, 55500, Note_on_c, 8, 89, 0
9, 55500, Note_on_c, 8, 74, 0
9, 55500, Note_on_c, 8, 70, 101
9, 55500, Note_on_c, 8, 86, 99
9, 55530, Note_on_c, 8, 86, 0
9, 55530, Note_on_c, 8, 70, 0
9, 55530, Note_on_c, 8, 68, 95
9, 55530, Note_on_c, 8, 82, 90
9, 55560, Note_on_c, 8, 82, 0
9, 55560, Note_on_c, 8, 68, 0
9, 55560, Note_on_c, 8, 77, 104
9, 55560, Note_on_c, 8, 89, 104
9, 55590, Note_on_c, 8, 89, 0
9, 55590, Note_on_c, 8, 77, 0
9, 55590, Note_on_c, 8, 74, 112
9, 55590, Note_on_c, 8, 86, 110
9, 55620, Note_on_c, 8, 86, 0
9, 55620, Note_on_c, 8, 74, 0
9, 55620, Note_on_c, 8, 70, 104
9, 55620, Note_on_c, 8, 82, 99
9, 55650, Note_on_c, 8, 82, 0
9, 55650, Note_on_c, 8, 70, 0
9, 55650, Note_on_c, 8, 68, 98
9, 55650, Note_on_c, 8, 80, 110
9, 55680, Note_on_c, 8, 80, 0
9, 55680, Note_on_c, 8, 68, 0
9, 55680, Note_on_c, 8, 77, 105
9, 55680, Note_on_c, 8, 92, 119
9, 55710, Note_on_c, 8, 92, 0
9, 55710, Note_on_c, 8, 77, 0
9, 55710, Note_on_c, 8, 74, 112
9, 55710, Note_on_c, 8, 89, 105
9, 55740, Note_on_c, 8, 89, 0
9, 55740, Note_on_c, 8, 74, 0
9, 55740, Note_on_c, 8, 70, 104
9, 55740, Note_on_c, 8, 86, 104
9, 55770, Note_on_c, 8, 86, 0
9, 55770, Note_on_c, 8, 70, 0
9, 55770, Note_on_c, 8, 68, 101
9, 55770, Note_on_c, 8, 82, 94
9, 55800, Note_on_c, 8, 82, 0
9, 55800, Note_on_c, 8, 68, 0
9, 55800, Note_on_c, 8, 77, 104
9, 55800, Note_on_c, 8, 89, 104
9, 55830, Note_on_c, 8, 89, 0
9, 55830, Note_on_c, 8, 77, 0
9, 55830, Note_on_c, 8, 74, 115
9, 55830, Note_on_c, 8, 86, 105
9, 55860, Note_on_c, 8, 86, 0
9, 55860, Note_on_c, 8, 74, 0
9, 55860, Note_on_c, 8, 70, 105
9, 55860, Note_on_c, 8, 82, 99
9, 55890, Note_on_c, 8, 82, 0
9, 55890, Note_on_c, 8, 70, 0
9, 55890, Note_on_c, 8, 68, 99
9, 55890, Note_on_c, 8, 80, 89
9, 55910, Control_c, 8, 64, 0
9, 55920, Note_on_c, 8, 80, 0
9, 55920, Note_on_c, 8, 68, 0
9, 55920, Note_on_c, 8, 70, 93
9, 55920, Note_on_c, 8, 79, 98
9, 55920, Note_on_c, 8, 75, 104
9, 55920, Note_on_c, 8, 91, 105
9, 55920, Note_on_c, 8, 82, 89
9, 55980, Note_on_c, 8, 82, 0
9, 55980, Note_on_c, 8, 75, 0
9, 55980, Note_on_c, 8, 70, 0
9, 55980, Note_on_c, 8, 79, 0
9, 55980, Note_on_c, 8, 91, 0
9, 56880, Control_c, 8, 64, 99
9, 56910, Note_on_c, 8, 58, 104
9, 56910, Note_on_c, 8, 70, 110
9, 56940, Note_on_c, 8, 70, 0
9, 56940, Note_on_c, 8, 58, 0
9, 56940, Note_on_c, 8, 61, 99
9, 56940, Note_on_c, 8, 73, 95
9, 56970, Note_on_c, 8, 73, 0
9, 56970, Note_on_c, 8, 61, 0
9, 56970, Note_on_c, 8, 65, 110
9, 56970, Note_on_c, 8, 77, 99
9, 57000, Note_on_c, 8, 77, 0
9, 57000, Note_on_c, 8, 65, 0
9, 57000, Note_on_c, 8, 70, 123
9, 57000, Note_on_c, 8, 82, 104
9, 57030, Note_on_c, 8, 82, 0
9, 57030, Note_on_c, 8, 70, 0
9, 57030, Note_on_c, 8, 61, 95
9, 57030, Note_on_c, 8, 73, 95
9, 57060, Note_on_c, 8, 73, 0
9, 57060, Note_on_c, 8, 61, 0
9, 57060, Note_on_c, 8, 65, 112
9, 57060, Note_on_c, 8, 77, 104
9, 57090, Note_on_c, 8, 77, 0
9, 57090, Note_on_c, 8, 65, 0
9, 57090, Note_on_c, 8, 70, 105
9, 57090, Note_on_c, 8, 82, 101
9, 57120, Note_on_c, 8, 82, 0
9, 57120, Note_on_c, 8, 70, 0
9, 57120, Note_on_c, 8, 73, 104
9, 57120, Note_on_c, 8, 85, 99
9, 57150, Note_on_c, 8, 85, 0
9, 57150, Note_on_c, 8, 73, 0
9, 57150, Note_on_c, 8, 70, 105
9, 57150, Note_on_c, 8, 82, 101
9, 57180, Note_on_c, 8, 82, 0
9, 57180, Note_on_c, 8, 70, 0
9, 57180, Note_on_c, 8, 65, 105
9, 57180, Note_on_c, 8, 77, 105
9, 57210, Note_on_c, 8, 77, 0
9, 57210, Note_on_c, 8, 65, 0
9, 57210, Note_on_c, 8, 61, 99
9, 57210, Note_on_c, 8, 73, 105
9, 57240, Note_on_c, 8, 73, 0
9, 57240, Note_on_c, 8, 61, 0
9, 57240, Note_on_c, 8, 70, 110
9, 57240, Note_on_c, 8, 82, 105
9, 57270, Note_on_c, 8, 82, 0
9, 57270, Note_on_c, 8, 70, 0
9, 57270, Note_on_c, 8, 65, 104
9, 57270, Note_on_c, 8, 77, 105
9, 57300, Note_on_c, 8, 77, 0
9, 57300, Note_on_c, 8, 65, 0
9, 57300, Note_on_c, 8, 61, 99
9, 57300, Note_on_c, 8, 73, 99
9, 57330, Note_on_c, 8, 73, 0
9, 57330, Note_on_c, 8, 61, 0
9, 57330, Note_on_c, 8, 58, 99
9, 57330, Note_on_c, 8, 70, 99
9, 57360, Note_on_c, 8, 70, 0
9, 57360, Note_on_c, 8, 58, 0
9, 57360, Note_on_c, 8, 70, 105
9, 57360, Note_on_c, 8, 85, 104
9, 57390, Note_on_c, 8, 85, 0
9, 57390, Note_on_c, 8, 70, 0
9, 57390, Note_on_c, 8, 65, 105
9, 57390, Note_on_c, 8, 82, 99
9, 57420, Note_on_c, 8, 82, 0
9, 57420, Note_on_c, 8, 65, 0
9, 57420, Note_on_c, 8, 61, 99
9, 57420, Note_on_c, 8, 77, 99
9, 57450, Note_on_c, 8, 77, 0
9, 57450, Note_on_c, 8, 61, 0
9, 57450, Note_on_c, 8, 58, 94
9, 57450, Note_on_c, 8, 73, 89
9, 57480, Note_on_c, 8, 73, 0
9, 57480, Note_on_c, 8, 58, 0
9, 57480, Note_on_c, 8, 70, 105
9, 57480, Note_on_c, 8, 82, 104
9, 57510, Note_on_c, 8, 82, 0
9, 57510, Note_on_c, 8, 70, 0
9, 57510, Note_on_c, 8, 65, 110
9, 57510, Note_on_c, 8, 77, 105
9, 57540, Note_on_c, 8, 77, 0
9, 57540, Note_on_c, 8, 65, 0
9, 57540, Note_on_c, 8, 61, 99
9, 57540, Note_on_c, 8, 73, 99
9, 57570, Note_on_c, 8, 73, 0
9, 57570, Note_on_c, 8, 61, 0
9, 57570, Note_on_c, 8, 58, 99
9, 57570, Note_on_c, 8, 70, 104
9, 57600, Note_on_c, 8, 70, 0
9, 57600, Note_on_c, 8, 58, 0
9, 57600, Note_on_c, 8, 70, 105
9, 57600, Note_on_c, 8, 85, 99
9, 57630, Note_on_c, 8, 85, 0
9, 57630, Note_on_c, 8, 70, 0
9, 57630, Note_on_c, 8, 65, 107
9, 57630, Note_on_c, 8, 82, 101
9, 57660, Note_on_c, 8, 82, 0
9, 57660, Note_on_c, 8, 65, 0
9, 57660, Note_on_c, 8, 61, 104
9, 57660, Note_on_c, 8, 77, 99
9, 57690, Note_on_c, 8, 77, 0
9, 57690, Note_on_c, 8, 61, 0
9, 57690, Note_on_c, 8, 58, 95
9, 57690, Note_on_c, 8, 73, 85
9, 57720, Note_on_c, 8, 73, 0
9, 57720, Note_on_c, 8, 58, 0
9, 57720, Note_on_c, 8, 70, 110
9, 57720, Note_on_c, 8, 82, 104
9, 57750, Note_on_c, 8, 82, 0
9, 57750, Note_on_c, 8, 70, 0
9, 57750, Note_on_c, 8, 65, 107
9, 57750, Note_on_c, 8, 77, 110
9, 57780, Note_on_c, 8, 77, 0
9, 57780, Note_on_c, 8, 65, 0
9, 57780, Note_on_c, 8, 61, 104
9, 57780, Note_on_c, 8, 73, 99
9, 57810, Note_on_c, 8, 73, 0
9, 57810, Note_on_c, 8, 61, 0
9, 57810, Note_on_c, 8, 58, 94
9, 57810, Note_on_c, 8, 70, 115
9, 57830, Control_c, 8, 64, 0
9, 57840, Note_on_c, 8, 70, 0
9, 57840, Note_on_c, 8, 58, 0
9, 57855, Control_c, 8, 64, 99
9, 57870, Note_on_c, 8, 60, 95
9, 57870, Note_on_c, 8, 72, 127
9, 57900, Note_on_c, 8, 72, 0
9, 57900, Note_on_c, 8, 60, 0
9, 57900, Note_on_c, 8, 65, 98
9, 57900, Note_on_c, 8, 77, 94
9, 57930, Note_on_c, 8, 77, 0
9, 57930, Note_on_c, 8, 65, 0
9, 57930, Note_on_c, 8, 69, 105
9, 57930, Note_on_c, 8, 81, 105
9, 57960, Note_on_c, 8, 81, 0
9, 57960, Note_on_c, 8, 69, 0
9, 57960, Note_on_c, 8, 72, 125
9, 57960, Note_on_c, 8, 84, 105
9, 57990, Note_on_c, 8, 84, 0
9, 57990, Note_on_c, 8, 72, 0
9, 57990, Note_on_c, 8, 65, 99
9, 57990, Note_on_c, 8, 77, 98
9, 58020, Note_on_c, 8, 77, 0
9, 58020, Note_on_c, 8, 65, 0
9, 58020, Note_on_c, 8, 69, 104
9, 58020, Note_on_c, 8, 81, 107
9, 58050, Note_on_c, 8, 81, 0
9, 58050, Note_on_c, 8, 69, 0
9, 58050, Note_on_c, 8, 72, 119
9, 58050, Note_on_c, 8, 84, 105
9, 58080, Note_on_c, 8, 84, 0
9, 58080, Note_on_c, 8, 72, 0
9, 58080, Note_on_c, 8, 75, 105
9, 58080, Note_on_c, 8, 87, 105
9, 58110, Note_on_c, 8, 87, 0
9, 58110, Note_on_c, 8, 75, 0
9, 58110, Note_on_c, 8, 72, 125
9, 58110, Note_on_c, 8, 84, 105
9, 58140, Note_on_c, 8, 84, 0
9, 58140, Note_on_c, 8, 72, 0
9, 58140, Note_on_c, 8, 69, 110
9, 58140, Note_on_c, 8, 81, 105
9, 58170, Note_on_c, 8, 81, 0
9, 58170, Note_on_c, 8, 69, 0
9, 58170, Note_on_c, 8, 65, 99
9, 58170, Note_on_c, 8, 77, 95
9, 58200, Note_on_c, 8, 77, 0
9, 58200, Note_on_c, 8, 65, 0
9, 58200, Note_on_c, 8, 72, 119
9, 58200, Note_on_c, 8, 84, 104
9, 58230, Note_on_c, 8, 84, 0
9, 58230, Note_on_c, 8, 72, 0
9, 58230, Note_on_c, 8, 69, 104
9, 58230, Note_on_c, 8, 81, 107
9, 58260, Note_on_c, 8, 81, 0
9, 58260, Note_on_c, 8, 69, 0
9, 58260, Note_on_c, 8, 65, 110
9, 58260, Note_on_c, 8, 77, 110
9, 58290, Note_on_c, 8, 77, 0
9, 58290, Note_on_c, 8, 65, 0
9, 58290, Note_on_c, 8, 63, 99
9, 58290, Note_on_c, 8, 75, 99
9, 58320, Note_on_c, 8, 75, 0
9, 58320, Note_on_c, 8, 63, 0
9, 58320, Note_on_c, 8, 72, 127
9, 58320, Note_on_c, 8, 87, 105
9, 58350, Note_on_c, 8, 87, 0
9, 58350, Note_on_c, 8, 72, 0
9, 58350, Note_on_c, 8, 69, 99
9, 58350, Note_on_c, 8, 84, 105
9, 58380, Note_on_c, 8, 84, 0
9, 58380, Note_on_c, 8, 69, 0
9, 58380, Note_on_c, 8, 65, 105
9, 58380, Note_on_c, 8, 81, 105
9, 58410, Note_on_c, 8, 81, 0
9, 58410, Note_on_c, 8, 65, 0
9, 58410, Note_on_c, 8, 63, 105
9, 58410, Note_on_c, 8, 77, 95
9, 58440, Note_on_c, 8, 77, 0
9, 58440, Note_on_c, 8, 63, 0
9, 58440, Note_on_c, 8, 72, 123
9, 58440, Note_on_c, 8, 84, 86
9, 58470, Note_on_c, 8, 84, 0
9, 58470, Note_on_c, 8, 72, 0
9, 58470, Note_on_c, 8, 69, 105
9, 58470, Note_on_c, 8, 81, 110
9, 58500, Note_on_c, 8, 81, 0
9, 58500, Note_on_c, 8, 69, 0
9, 58500, Note_on_c, 8, 65, 110
9, 58500, Note_on_c, 8, 77, 105
9, 58530, Note_on_c, 8, 77, 0
9, 58530, Note_on_c, 8, 65, 0
9, 58530, Note_on_c, 8, 63, 104
9, 58530, Note_on_c, 8, 75, 95
9, 58560, Note_on_c, 8, 75, 0
9, 58560, Note_on_c, 8, 63, 0
9, 58560, Note_on_c, 8, 72, 125
9, 58560, Note_on_c, 8, 87, 110
9, 58590, Note_on_c, 8, 87, 0
9, 58590, Note_on_c, 8, 72, 0
9, 58590, Note_on_c, 8, 69, 105
9, 58590, Note_on_c, 8, 84, 105
9, 58620, Note_on_c, 8, 84, 0
9, 58620, Note_on_c, 8, 69, 0
9, 58620, Note_on_c, 8, 65, 110
9, 58620, Note_on_c, 8, 81, 107
9, 58650, Note_on_c, 8, 81, 0
9, 58650, Note_on_c, 8, 65, 0
9, 58650, Note_on_c, 8, 63, 99
9, 58650, Note_on_c, 8, 77, 94
9, 58680, Note_on_c, 8, 77, 0
9, 58680, Note_on_c, 8, 63, 0
9, 58680, Note_on_c, 8, 72, 125
9, 58680, Note_on_c, 8, 84, 104
9, 58710, Note_on_c, 8, 84, 0
9, 58710, Note_on_c, 8, 72, 0
9, 58710, Note_on_c, 8, 69, 110
9, 58710, Note_on_c, 8, 81, 110
9, 58740, Note_on_c, 8, 81, 0
9, 58740, Note_on_c, 8, 69, 0
9, 58740, Note_on_c, 8, 65, 112
9, 58740, Note_on_c, 8, 77, 105
9, 58770, Note_on_c, 8, 77, 0
9, 58770, Note_on_c, 8, 65, 0
9, 58770, Note_on_c, 8, 63, 99
9, 58770, Note_on_c, 8, 75, 112
9, 58790, Control_c, 8, 64, 0
9, 58800, Note_on_c, 8, 75, 0
9, 58800, Note_on_c, 8, 63, 0
9, 58800, Note_on_c, 8, 85, 94
9, 58800, Note_on_c, 8, 77, 99
9, 58800, Note_on_c, 8, 70, 99
9, 58800, Note_on_c, 8, 73, 94
9, 58860, Note_on_c, 8, 73, 0
9, 58860, Note_on_c, 8, 85, 0
9, 58860, Note_on_c, 8, 77, 0
9, 58860, Note_on_c, 8, 70, 0
9, 59760, Control_c, 8, 64, 100
9, 59790, Note_on_c, 8, 65, 105
9, 59790, Note_on_c, 8, 77, 94
9, 59820, Note_on_c, 8, 77, 0
9, 59820, Note_on_c, 8, 65, 0
9, 59820, Note_on_c, 8, 68, 99
9, 59820, Note_on_c, 8, 80, 90
9, 59850, Note_on_c, 8, 80, 0
9, 59850, Note_on_c, 8, 68, 0
9, 59850, Note_on_c, 8, 72, 127
9, 59850, Note_on_c, 8, 84, 101
9, 59880, Note_on_c, 8, 84, 0
9, 59880, Note_on_c, 8, 72, 0
9, 59880, Note_on_c, 8, 77, 105
9, 59880, Note_on_c, 8, 89, 112
9, 59910, Note_on_c, 8, 89, 0
9, 59910, Note_on_c, 8, 77, 0
9, 59910, Note_on_c, 8, 68, 95
9, 59910, Note_on_c, 8, 80, 81
9, 59940, Note_on_c, 8, 80, 0
9, 59940, Note_on_c, 8, 68, 0
9, 59940, Note_on_c, 8, 72, 125
9, 59940, Note_on_c, 8, 84, 99
9, 59970, Note_on_c, 8, 84, 0
9, 59970, Note_on_c, 8, 72, 0
9, 59970, Note_on_c, 8, 77, 95
9, 59970, Note_on_c, 8, 89, 107
9, 60000, Note_on_c, 8, 89, 0
9, 60000, Note_on_c, 8, 77, 0
9, 60000, Note_on_c, 8, 80, 105
9, 60000, Note_on_c, 8, 92, 99
9, 60030, Note_on_c, 8, 92, 0
9, 60030, Note_on_c, 8, 80, 0
9, 60030, Note_on_c, 8, 77, 105
9, 60030, Note_on_c, 8, 89, 105
9, 60060, Note_on_c, 8, 89, 0
9, 60060, Note_on_c, 8, 77, 0
9, 60060, Note_on_c, 8, 72, 119
9, 60060, Note_on_c, 8, 84, 95
9, 60090, Note_on_c, 8, 84, 0
9, 60090, Note_on_c, 8, 72, 0
9, 60090, Note_on_c, 8, 68, 104
9, 60090, Note_on_c, 8, 80, 86
9, 60120, Note_on_c, 8, 80, 0
9, 60120, Note_on_c, 8, 68, 0
9, 60120, Note_on_c, 8, 77, 101
9, 60120, Note_on_c, 8, 89, 110
9, 60150, Note_on_c, 8, 89, 0
9, 60150, Note_on_c, 8, 77, 0
9, 60150, Note_on_c, 8, 72, 125
9, 60150, Note_on_c, 8, 84, 99
9, 60180, Note_on_c, 8, 84, 0
9, 60180, Note_on_c, 8, 72, 0
9, 60180, Note_on_c, 8, 68, 99
9, 60180, Note_on_c, 8, 80, 81
9, 60210, Note_on_c, 8, 80, 0
9, 60210, Note_on_c, 8, 68, 0
9, 60210, Note_on_c, 8, 65, 104
9, 60210, Note_on_c, 8, 77, 95
9, 60240, Note_on_c, 8, 77, 0
9, 60240, Note_on_c, 8, 65, 0
9, 60240, Note_on_c, 8, 77, 104
9, 60240, Note_on_c, 8, 92, 99
9, 60270, Note_on_c, 8, 92, 0
9, 60270, Note_on_c, 8, 77, 0
9, 60270, Note_on_c, 8, 72, 123
9, 60270, Note_on_c, 8, 89, 105
9, 60300, Note_on_c, 8, 89, 0
9, 60300, Note_on_c, 8, 72, 0
9, 60300, Note_on_c, 8, 68, 101
9, 60300, Note_on_c, 8, 84, 99
9, 60330, Note_on_c, 8, 84, 0
9, 60330, Note_on_c, 8, 68, 0
9, 60330, Note_on_c, 8, 65, 105
9, 60330, Note_on_c, 8, 80, 86
9, 60360, Note_on_c, 8, 80, 0
9, 60360, Note_on_c, 8, 65, 0
9, 60360, Note_on_c, 8, 77, 99
9, 60360, Note_on_c, 8, 89, 107
9, 60390, Note_on_c, 8, 89, 0
9, 60390, Note_on_c, 8, 77, 0
9, 60390, Note_on_c, 8, 72, 123
9, 60390, Note_on_c, 8, 84, 99
9, 60420, Note_on_c, 8, 84, 0
9, 60420, Note_on_c, 8, 72, 0
9, 60420, Note_on_c, 8, 68, 104
9, 60420, Note_on_c, 8, 80, 81
9, 60450, Note_on_c, 8, 80, 0
9, 60450, Note_on_c, 8, 68, 0
9, 60450, Note_on_c, 8, 65, 99
9, 60450, Note_on_c, 8, 77, 95
9, 60480, Note_on_c, 8, 77, 0
9, 60480, Note_on_c, 8, 65, 0
9, 60480, Note_on_c, 8, 77, 99
9, 60480, Note_on_c, 8, 92, 99
9, 60510, Note_on_c, 8, 92, 0
9, 60510, Note_on_c, 8, 77, 0
9, 60510, Note_on_c, 8, 72, 125
9, 60510, Note_on_c, 8, 89, 105
9, 60540, Note_on_c, 8, 89, 0
9, 60540, Note_on_c, 8, 72, 0
9, 60540, Note_on_c, 8, 68, 104
9, 60540, Note_on_c, 8, 84, 95
9, 60570, Note_on_c, 8, 84, 0
9, 60570, Note_on_c, 8, 68, 0
9, 60570, Note_on_c, 8, 65, 104
9, 60570, Note_on_c, 8, 80, 81
9, 60600, Note_on_c, 8, 80, 0
9, 60600, Note_on_c, 8, 65, 0
9, 60600, Note_on_c, 8, 77, 95
9, 60600, Note_on_c, 8, 89, 105
9, 60630, Note_on_c, 8, 89, 0
9, 60630, Note_on_c, 8, 77, 0
9, 60630, Note_on_c, 8, 72, 127
9, 60630, Note_on_c, 8, 84, 101
9, 60660, Note_on_c, 8, 84, 0
9, 60660, Note_on_c, 8, 72, 0
9, 60660, Note_on_c, 8, 68, 99
9, 60660, Note_on_c, 8, 80, 89
9, 60690, Note_on_c, 8, 80, 0
9, 60690, Note_on_c, 8, 68, 0
9, 60690, Note_on_c, 8, 65, 104
9, 60690, Note_on_c, 8, 77, 94
9, 60705, Control_c, 8, 64, 0
9, 60720, Note_on_c, 8, 77, 0
9, 60720, Note_on_c, 8, 65, 0
9, 60730, Control_c, 8, 64, 99
9, 60750, Note_on_c, 8, 67, 90
9, 60750, Note_on_c, 8, 79, 104
9, 60780, Note_on_c, 8, 79, 0
9, 60780, Note_on_c, 8, 67, 0
9, 60780, Note_on_c, 8, 72, 127
9, 60780, Note_on_c, 8, 84, 84
9, 60810, Note_on_c, 8, 84, 0
9, 60810, Note_on_c, 8, 72, 0
9, 60810, Note_on_c, 8, 76, 99
9, 60810, Note_on_c, 8, 88, 105
9, 60840, Note_on_c, 8, 88, 0
9, 60840, Note_on_c, 8, 76, 0
9, 60840, Note_on_c, 8, 79, 98
9, 60840, Note_on_c, 8, 91, 101
9, 60870, Note_on_c, 8, 91, 0
9, 60870, Note_on_c, 8, 79, 0
9, 60870, Note_on_c, 8, 72, 125
9, 60870, Note_on_c, 8, 84, 84
9, 60900, Note_on_c, 8, 84, 0
9, 60900, Note_on_c, 8, 72, 0
9, 60900, Note_on_c, 8, 76, 94
9, 60900, Note_on_c, 8, 88, 104
9, 60930, Note_on_c, 8, 88, 0
9, 60930, Note_on_c, 8, 76, 0
9, 60930, Note_on_c, 8, 79, 99
9, 60930, Note_on_c, 8, 91, 105
9, 60960, Note_on_c, 8, 91, 0
9, 60960, Note_on_c, 8, 79, 0
9, 60960, Note_on_c, 8, 82, 99
9, 60960, Note_on_c, 8, 94, 101
9, 60990, Note_on_c, 8, 94, 0
9, 60990, Note_on_c, 8, 82, 0
9, 60990, Note_on_c, 8, 79, 99
9, 60990, Note_on_c, 8, 91, 107
9, 61020, Note_on_c, 8, 91, 0
9, 61020, Note_on_c, 8, 79, 0
9, 61020, Note_on_c, 8, 76, 99
9, 61020, Note_on_c, 8, 88, 105
9, 61050, Note_on_c, 8, 88, 0
9, 61050, Note_on_c, 8, 76, 0
9, 61050, Note_on_c, 8, 72, 125
9, 61050, Note_on_c, 8, 84, 93
9, 61080, Note_on_c, 8, 84, 0
9, 61080, Note_on_c, 8, 72, 0
9, 61080, Note_on_c, 8, 79, 101
9, 61080, Note_on_c, 8, 91, 93
9, 61110, Note_on_c, 8, 91, 0
9, 61110, Note_on_c, 8, 79, 0
9, 61110, Note_on_c, 8, 76, 104
9, 61110, Note_on_c, 8, 88, 105
9, 61140, Note_on_c, 8, 88, 0
9, 61140, Note_on_c, 8, 76, 0
9, 61140, Note_on_c, 8, 72, 119
9, 61140, Note_on_c, 8, 84, 104
9, 61170, Note_on_c, 8, 84, 0
9, 61170, Note_on_c, 8, 72, 0
9, 61170, Note_on_c, 8, 70, 104
9, 61170, Note_on_c, 8, 82, 85
9, 61200, Note_on_c, 8, 82, 0
9, 61200, Note_on_c, 8, 70, 0
9, 61200, Note_on_c, 8, 79, 98
9, 61200, Note_on_c, 8, 94, 105
9, 61230, Note_on_c, 8, 94, 0
9, 61230, Note_on_c, 8, 79, 0
9, 61230, Note_on_c, 8, 76, 99
9, 61230, Note_on_c, 8, 91, 107
9, 61260, Note_on_c, 8, 91, 0
9, 61260, Note_on_c, 8, 76, 0
9, 61260, Note_on_c, 8, 72, 123
9, 61260, Note_on_c, 8, 88, 105
9, 61290, Note_on_c, 8, 88, 0
9, 61290, Note_on_c, 8, 72, 0
9, 61290, Note_on_c, 8, 70, 104
9, 61290, Note_on_c, 8, 84, 98
9, 61320, Note_on_c, 8, 84, 0
9, 61320, Note_on_c, 8, 70, 0
9, 61320, Note_on_c, 8, 82, 104
9, 61350, Note_on_c, 8, 82, 0
9, 61350, Note_on_c, 8, 79, 104
9, 61380, Note_on_c, 8, 79, 0
9, 61380, Note_on_c, 8, 76, 104
9, 61410, Note_on_c, 8, 76, 0
9, 61410, Note_on_c, 8, 72, 125
9, 61440, Note_on_c, 8, 72, 0
9, 61440, Note_on_c, 8, 58, 101
9, 61440, Note_on_c, 8, 70, 99
9, 61470, Note_on_c, 8, 70, 0
9, 61470, Note_on_c, 8, 58, 0
9, 61470, Note_on_c, 8, 55, 89
9, 61470, Note_on_c, 8, 67, 99
9, 61500, Note_on_c, 8, 67, 0
9, 61500, Note_on_c, 8, 55, 0
9, 61500, Note_on_c, 8, 52, 104
9, 61500, Note_on_c, 8, 64, 95
9, 61530, Note_on_c, 8, 64, 0
9, 61530, Note_on_c, 8, 52, 0
9, 61530, Note_on_c, 8, 48, 99
9, 61530, Note_on_c, 8, 60, 98
9, 61560, Note_on_c, 8, 60, 0
9, 61560, Note_on_c, 8, 48, 0
9, 61560, Note_on_c, 8, 58, 99
9, 61560, Note_on_c, 8, 70, 105
9, 61590, Note_on_c, 8, 70, 0
9, 61590, Note_on_c, 8, 58, 0
9, 61590, Note_on_c, 8, 55, 93
9, 61590, Note_on_c, 8, 67, 98
9, 61620, Note_on_c, 8, 67, 0
9, 61620, Note_on_c, 8, 55, 0
9, 61620, Note_on_c, 8, 52, 99
9, 61620, Note_on_c, 8, 64, 93
9, 61650, Note_on_c, 8, 64, 0
9, 61650, Note_on_c, 8, 52, 0
9, 61650, Note_on_c, 8, 48, 99
9, 61650, Note_on_c, 8, 60, 101
9, 61670, Control_c, 8, 64, 0
9, 61680, Note_on_c, 8, 60, 0
9, 61680, Note_on_c, 8, 48, 0
9, 61680, Note_on_c, 8, 54, 74
9, 61680, Note_on_c, 8, 51, 85
9, 61680, Note_on_c, 8, 57, 90
9, 61680, Note_on_c, 8, 60, 89
9, 61740, Note_on_c, 8, 60, 0
9, 61740, Note_on_c, 8, 54, 0
9, 61740, Note_on_c, 8, 51, 0
9, 61740, Note_on_c, 8, 57, 0
9, 61800, Note_on_c, 8, 60, 93
9, 61800, Note_on_c, 8, 66, 85
9, 61830, Note_on_c, 8, 66, 0
9, 61830, Note_on_c, 8, 60, 0
9, 61860, Note_on_c, 8, 66, 86
9, 61860, Note_on_c, 8, 69, 89
9, 61890, Note_on_c, 8, 69, 0
9, 61890, Note_on_c, 8, 66, 0
9, 61920, Note_on_c, 8, 51, 76
9, 61920, Note_on_c, 8, 54, 73
9, 61920, Note_on_c, 8, 69, 84
9, 61920, Note_on_c, 8, 72, 112
9, 61980, Note_on_c, 8, 72, 0
9, 61980, Note_on_c, 8, 51, 0
9, 61980, Note_on_c, 8, 54, 0
9, 61980, Note_on_c, 8, 69, 0
9, 62040, Note_on_c, 8, 54, 80
9, 62040, Note_on_c, 8, 57, 84
9, 62070, Note_on_c, 8, 57, 0
9, 62070, Note_on_c, 8, 54, 0
9, 62100, Note_on_c, 8, 60, 80
9, 62100, Note_on_c, 8, 57, 85
9, 62130, Note_on_c, 8, 57, 0
9, 62130, Note_on_c, 8, 60, 0
9, 62160, Note_on_c, 8, 60, 82
9, 62160, Note_on_c, 8, 63, 81
9, 62160, Note_on_c, 8, 69, 84
9, 62160, Note_on_c, 8, 72, 105
9, 62220, Note_on_c, 8, 72, 0
9, 62220, Note_on_c, 8, 60, 0
9, 62220, Note_on_c, 8, 63, 0
9, 62220, Note_on_c, 8, 69, 0
9, 62280, Note_on_c, 8, 78, 82
9, 62280, Note_on_c, 8, 72, 117
9, 62310, Note_on_c, 8, 72, 0
9, 62310, Note_on_c, 8, 78, 0
9, 62340, Note_on_c, 8, 78, 81
9, 62340, Note_on_c, 8, 81, 84
9, 62370, Note_on_c, 8, 81, 0
9, 62370, Note_on_c, 8, 78, 0
9, 62400, Note_on_c, 8, 63, 81
9, 62400, Note_on_c, 8, 66, 86
9, 62400, Note_on_c, 8, 81, 89
9, 62400, Note_on_c, 8, 84, 89
9, 62460, Note_on_c, 8, 84, 0
9, 62460, Note_on_c, 8, 63, 0
9, 62460, Note_on_c, 8, 66, 0
9, 62460, Note_on_c, 8, 81, 0
9, 62520, Note_on_c, 8, 66, 82
9, 62520, Note_on_c, 8, 69, 85
9, 62550, Note_on_c, 8, 69, 0
9, 62550, Note_on_c, 8, 66, 0
9, 62580, Note_on_c, 8, 69, 89
9, 62580, Note_on_c, 8, 72, 112
9, 62610, Note_on_c, 8, 72, 0
9, 62610, Note_on_c, 8, 69, 0
9, 62640, Note_on_c, 8, 75, 90
9, 62640, Note_on_c, 8, 72, 112
9, 62640, Note_on_c, 8, 87, 90
9, 62680, Note_on_c, 8, 87, 0
9, 62680, Note_on_c, 8, 86, 94
9, 62700, Note_on_c, 8, 72, 0
9, 62700, Note_on_c, 8, 75, 0
9, 62720, Note_on_c, 8, 86, 0
9, 62720, Note_on_c, 8, 87, 95
9, 62760, Note_on_c, 8, 87, 0
9, 62760, Note_on_c, 8, 75, 94
9, 62760, Note_on_c, 8, 84, 90
9, 62800, Note_on_c, 8, 84, 0
9, 62800, Note_on_c, 8, 75, 0
9, 62800, Note_on_c, 8, 74, 98
9, 62800, Note_on_c, 8, 83, 94
9, 62840, Note_on_c, 8, 83, 0
9, 62840, Note_on_c, 8, 74, 0
9, 62840, Note_on_c, 8, 75, 94
9, 62840, Note_on_c, 8, 84, 99
9, 62880, Note_on_c, 8, 84, 0
9, 62880, Note_on_c, 8, 75, 0
9, 62880, Note_on_c, 8, 72, 115
9, 62880, Note_on_c, 8, 75, 99
9, 62880, Note_on_c, 8, 81, 101
9, 62920, Note_on_c, 8, 75, 0
9, 62920, Note_on_c, 8, 72, 0
9, 62920, Note_on_c, 8, 71, 93
9, 62920, Note_on_c, 8, 74, 99
9, 62960, Note_on_c, 8, 74, 0
9, 62960, Note_on_c, 8, 71, 0
9, 62960, Note_on_c, 8, 72, 115
9, 62960, Note_on_c, 8, 75, 104
9, 63000, Note_on_c, 8, 75, 0
9, 63000, Note_on_c, 8, 72, 0
9, 63000, Note_on_c, 8, 81, 0
9, 63000, Note_on_c, 8, 69, 99
9, 63000, Note_on_c, 8, 72, 119
9, 63000, Note_on_c, 8, 78, 94
9, 63040, Note_on_c, 8, 72, 0
9, 63040, Note_on_c, 8, 69, 0
9, 63040, Note_on_c, 8, 68, 89
9, 63040, Note_on_c, 8, 71, 90
9, 63080, Note_on_c, 8, 71, 0
9, 63080, Note_on_c, 8, 68, 0
9, 63080, Note_on_c, 8, 69, 99
9, 63080, Note_on_c, 8, 72, 115
9, 63120, Note_on_c, 8, 72, 0
9, 63120, Note_on_c, 8, 69, 0
9, 63120, Note_on_c, 8, 78, 0
9, 63120, Note_on_c, 8, 66, 94
9, 63120, Note_on_c, 8, 69, 99
9, 63120, Note_on_c, 8, 75, 104
9, 63160, Note_on_c, 8, 69, 0
9, 63160, Note_on_c, 8, 66, 0
9, 63160, Note_on_c, 8, 65, 95
9, 63160, Note_on_c, 8, 68, 84
9, 63200, Note_on_c, 8, 68, 0
9, 63200, Note_on_c, 8, 65, 0
9, 63200, Note_on_c, 8, 66, 94
9, 63200, Note_on_c, 8, 69, 98
9, 63240, Note_on_c, 8, 69, 0
9, 63240, Note_on_c, 8, 66, 0
9, 63240, Note_on_c, 8, 75, 0
9, 63240, Note_on_c, 8, 63, 95
9, 63240, Note_on_c, 8, 66, 94
9, 63240, Note_on_c, 8, 72, 119
9, 63280, Note_on_c, 8, 66, 0
9, 63280, Note_on_c, 8, 63, 0
9, 63280, Note_on_c, 8, 62, 94
9, 63280, Note_on_c, 8, 65, 86
9, 63320, Note_on_c, 8, 65, 0
9, 63320, Note_on_c, 8, 62, 0
9, 63320, Note_on_c, 8, 63, 90
9, 63320, Note_on_c, 8, 66, 94
9, 63360, Note_on_c, 8, 66, 0
9, 63360, Note_on_c, 8, 63, 0
9, 63360, Note_on_c, 8, 72, 0
9, 63360, Note_on_c, 8, 60, 93
9, 63360, Note_on_c, 8, 63, 93
9, 63360, Note_on_c, 8, 69, 94
9, 63400, Note_on_c, 8, 63, 0
9, 63400, Note_on_c, 8, 60, 0
9, 63400, Note_on_c, 8, 59, 95
9, 63400, Note_on_c, 8, 62, 90
9, 63440, Note_on_c, 8, 62, 0
9, 63440, Note_on_c, 8, 59, 0
9, 63440, Note_on_c, 8, 60, 95
9, 63440, Note_on_c, 8, 63, 95
9, 63480, Note_on_c, 8, 63, 0
9, 63480, Note_on_c, 8, 60, 0
9, 63480, Note_on_c, 8, 69, 0
9, 63480, Note_on_c, 8, 57, 105
9, 63480, Note_on_c, 8, 60, 90
9, 63480, Note_on_c, 8, 66, 95
9, 63520, Note_on_c, 8, 60, 0
9, 63520, Note_on_c, 8, 57, 0
9, 63520, Note_on_c, 8, 56, 90
9, 63520, Note_on_c, 8, 59, 94
9, 63560, Note_on_c, 8, 59, 0
9, 63560, Note_on_c, 8, 56, 0
9, 63560, Note_on_c, 8, 57, 105
9, 63560, Note_on_c, 8, 60, 94
9, 63600, Note_on_c, 8, 60, 0
9, 63600, Note_on_c, 8, 57, 0
9, 63600, Note_on_c, 8, 66, 0
9, 63600, Note_on_c, 8, 86, 99
9, 63640, Note_on_c, 8, 86, 0
9, 63640, Note_on_c, 8, 85, 89
9, 63680, Note_on_c, 8, 85, 0
9, 63680, Note_on_c, 8, 86, 101
9, 63720, Note_on_c, 8, 86, 0
9, 63720, Note_on_c, 8, 82, 93
9, 63720, Note_on_c, 8, 74, 104
9, 63760, Note_on_c, 8, 74, 0
9, 63760, Note_on_c, 8, 82, 0
9, 63760, Note_on_c, 8, 81, 95
9, 63760, Note_on_c, 8, 73, 89
9, 63800, Note_on_c, 8, 73, 0
9, 63800, Note_on_c, 8, 81, 0
9, 63800, Note_on_c, 8, 82, 93
9, 63800, Note_on_c, 8, 74, 104
9, 63840, Note_on_c, 8, 74, 0
9, 63840, Note_on_c, 8, 82, 0
9, 63840, Note_on_c, 8, 74, 99
9, 63840, Note_on_c, 8, 70, 98
9, 63840, Note_on_c, 8, 79, 95
9, 63880, Note_on_c, 8, 70, 0
9, 63880, Note_on_c, 8, 74, 0
9, 63880, Note_on_c, 8, 73, 86
9, 63880, Note_on_c, 8, 69, 95
9, 63920, Note_on_c, 8, 69, 0
9, 63920, Note_on_c, 8, 73, 0
9, 63920, Note_on_c, 8, 74, 105
9, 63920, Note_on_c, 8, 70, 99
9, 63960, Note_on_c, 8, 70, 0
9, 63960, Note_on_c, 8, 74, 0
9, 63960, Note_on_c, 8, 79, 0
9, 63960, Note_on_c, 8, 70, 95
9, 63960, Note_on_c, 8, 67, 86
9, 63960, Note_on_c, 8, 74, 101
9, 64000, Note_on_c, 8, 67, 0
9, 64000, Note_on_c, 8, 70, 0
9, 64000, Note_on_c, 8, 69, 99
9, 64000, Note_on_c, 8, 66, 93
9, 64040, Note_on_c, 8, 66, 0
9, 64040, Note_on_c, 8, 69, 0
9, 64040, Note_on_c, 8, 70, 95
9, 64040, Note_on_c, 8, 67, 93
9, 64080, Note_on_c, 8, 67, 0
9, 64080, Note_on_c, 8, 70, 0
9, 64080, Note_on_c, 8, 74, 0
9, 64080, Note_on_c, 8, 70, 101
9, 64080, Note_on_c, 8, 62, 95
9, 64080, Note_on_c, 8, 67, 85
9, 64120, Note_on_c, 8, 62, 0
9, 64120, Note_on_c, 8, 70, 0
9, 64120, Note_on_c, 8, 69, 95
9, 64120, Note_on_c, 8, 61, 85
9, 64160, Note_on_c, 8, 61, 0
9, 64160, Note_on_c, 8, 69, 0
9, 64160, Note_on_c, 8, 70, 94
9, 64160, Note_on_c, 8, 62, 95
9, 64200, Note_on_c, 8, 62, 0
9, 64200, Note_on_c, 8, 70, 0
9, 64200, Note_on_c, 8, 67, 0
9, 64200, Note_on_c, 8, 62, 93
9, 64200, Note_on_c, 8, 58, 94
9, 64200, Note_on_c, 8, 67, 89
9, 64240, Note_on_c, 8, 58, 0
9, 64240, Note_on_c, 8, 62, 0
9, 64240, Note_on_c, 8, 61, 86
9, 64240, Note_on_c, 8, 57, 105
9, 64280, Note_on_c, 8, 57, 0
9, 64280, Note_on_c, 8, 61, 0
9, 64280, Note_on_c, 8, 62, 95
9, 64280, Note_on_c, 8, 58, 94
9, 64320, Note_on_c, 8, 58, 0
9, 64320, Note_on_c, 8, 62, 0
9, 64320, Note_on_c, 8, 67, 0
9, 64320, Note_on_c, 8, 58, 95
9, 64320, Note_on_c, 8, 55, 94
9, 64320, Note_on_c, 8, 62, 95
9, 64360, Note_on_c, 8, 55, 0
9, 64360, Note_on_c, 8, 58, 0
9, 64360, Note_on_c, 8, 57, 107
9, 64360, Note_on_c, 8, 54, 89
9, 64400, Note_on_c, 8, 54, 0
9, 64400, Note_on_c, 8, 57, 0
9, 64400, Note_on_c, 8, 58, 99
9, 64400, Note_on_c, 8, 55, 89
9, 64440, Note_on_c, 8, 55, 0
9, 64440, Note_on_c, 8, 58, 0
9, 64440, Note_on_c, 8, 62, 0
9, 64440, Note_on_c, 8, 55, 95
9, 64440, Note_on_c, 8, 58, 94
9, 64440, Note_on_c, 8, 50, 99
9, 64480, Note_on_c, 8, 50, 0
9, 64480, Note_on_c, 8, 58, 0
9, 64480, Note_on_c, 8, 55, 0
9, 64480, Note_on_c, 8, 53, 84
9, 64480, Note_on_c, 8, 57, 101
9, 64480, Note_on_c, 8, 48, 94
9, 64520, Note_on_c, 8, 48, 0
9, 64520, Note_on_c, 8, 57, 0
9, 64520, Note_on_c, 8, 53, 0
9, 64520, Note_on_c, 8, 55, 95
9, 64520, Note_on_c, 8, 58, 86
9, 64520, Note_on_c, 8, 50, 105
9, 64560, Note_on_c, 8, 50, 0
9, 64560, Note_on_c, 8, 58, 0
9, 64560, Note_on_c, 8, 55, 0
9, 64560, Note_on_c, 8, 92, 95
9, 64600, Note_on_c, 8, 92, 0
9, 64600, Note_on_c, 8, 91, 95
9, 64640, Note_on_c, 8, 91, 0
9, 64640, Note_on_c, 8, 92, 95
9, 64680, Note_on_c, 8, 92, 0
9, 64680, Note_on_c, 8, 89, 94
9, 64680, Note_on_c, 8, 80, 99
9, 64720, Note_on_c, 8, 80, 0
9, 64720, Note_on_c, 8, 89, 0
9, 64720, Note_on_c, 8, 88, 95
9, 64720, Note_on_c, 8, 79, 99
9, 64760, Note_on_c, 8, 79, 0
9, 64760, Note_on_c, 8, 88, 0
9, 64760, Note_on_c, 8, 89, 95
9, 64760, Note_on_c, 8, 80, 95
9, 64800, Note_on_c, 8, 80, 0
9, 64800, Note_on_c, 8, 89, 0
9, 64800, Note_on_c, 8, 80, 95
9, 64800, Note_on_c, 8, 77, 95
9, 64800, Note_on_c, 8, 86, 101
9, 64840, Note_on_c, 8, 77, 0
9, 64840, Note_on_c, 8, 80, 0
9, 64840, Note_on_c, 8, 79, 90
9, 64840, Note_on_c, 8, 76, 95
9, 64880, Note_on_c, 8, 76, 0
9, 64880, Note_on_c, 8, 79, 0
9, 64880, Note_on_c, 8, 80, 95
9, 64880, Note_on_c, 8, 77, 94
9, 64920, Note_on_c, 8, 77, 0
9, 64920, Note_on_c, 8, 80, 0
9, 64920, Note_on_c, 8, 86, 0
9, 64920, Note_on_c, 8, 77, 86
9, 64920, Note_on_c, 8, 74, 104
9, 64920, Note_on_c, 8, 83, 99
9, 64960, Note_on_c, 8, 74, 0
9, 64960, Note_on_c, 8, 77, 0
9, 64960, Note_on_c, 8, 76, 95
9, 64960, Note_on_c, 8, 73, 89
9, 65000, Note_on_c, 8, 73, 0
9, 65000, Note_on_c, 8, 76, 0
9, 65000, Note_on_c, 8, 77, 94
9, 65000, Note_on_c, 8, 74, 105
9, 65040, Note_on_c, 8, 74, 0
9, 65040, Note_on_c, 8, 77, 0
9, 65040, Note_on_c, 8, 83, 0
9, 65040, Note_on_c, 8, 74, 104
9, 65040, Note_on_c, 8, 71, 99
9, 65040, Note_on_c, 8, 80, 95
9, 65080, Note_on_c, 8, 71, 0
9, 65080, Note_on_c, 8, 74, 0
9, 65080, Note_on_c, 8, 73, 84
9, 65080, Note_on_c, 8, 70, 95
9, 65120, Note_on_c, 8, 70, 0
9, 65120, Note_on_c, 8, 73, 0
9, 65120, Note_on_c, 8, 74, 105
9, 65120, Note_on_c, 8, 71, 104
9, 65160, Note_on_c, 8, 71, 0
9, 65160, Note_on_c, 8, 74, 0
9, 65160, Note_on_c, 8, 80, 0
9, 65160, Note_on_c, 8, 71, 99
9, 65160, Note_on_c, 8, 68, 94
9, 65160, Note_on_c, 8, 77, 94
9, 65200, Note_on_c, 8, 68, 0
9, 65200, Note_on_c, 8, 71, 0
9, 65200, Note_on_c, 8, 70, 94
9, 65200, Note_on_c, 8, 67, 90
9, 65240, Note_on_c, 8, 67, 0
9, 65240, Note_on_c, 8, 70, 0
9, 65240, Note_on_c, 8, 71, 101
9, 65240, Note_on_c, 8, 68, 101
9, 65280, Note_on_c, 8, 68, 0
9, 65280, Note_on_c, 8, 71, 0
9, 65280, Note_on_c, 8, 77, 0
9, 65280, Note_on_c, 8, 68, 98
9, 65280, Note_on_c, 8, 65, 99
9, 65280, Note_on_c, 8, 74, 104
9, 65320, Note_on_c, 8, 65, 0
9, 65320, Note_on_c, 8, 68, 0
9, 65320, Note_on_c, 8, 67, 86
9, 65320, Note_on_c, 8, 64, 98
9, 65360, Note_on_c, 8, 64, 0
9, 65360, Note_on_c, 8, 67, 0
9, 65360, Note_on_c, 8, 68, 101
9, 65360, Note_on_c, 8, 65, 99
9, 65400, Note_on_c, 8, 65, 0
9, 65400, Note_on_c, 8, 68, 0
9, 65400, Note_on_c, 8, 74, 0
9, 65400, Note_on_c, 8, 65, 101
9, 65400, Note_on_c, 8, 62, 95
9, 65400, Note_on_c, 8, 71, 99
9, 65440, Note_on_c, 8, 62, 0
9, 65440, Note_on_c, 8, 65, 0
9, 65440, Note_on_c, 8, 64, 94
9, 65440, Note_on_c, 8, 61, 86
9, 65480, Note_on_c, 8, 61, 0
9, 65480, Note_on_c, 8, 64, 0
9, 65480, Note_on_c, 8, 65, 101
9, 65480, Note_on_c, 8, 62, 99
9, 65520, Note_on_c, 8, 62, 0
9, 65520, Note_on_c, 8, 65, 0
9, 65520, Note_on_c, 8, 71, 0
9, 65520, Note_on_c, 8, 91, 93
9, 65560, Note_on_c, 8, 91, 0
9, 65560, Note_on_c, 8, 90, 82
9, 65600, Note_on_c, 8, 90, 0
9, 65600, Note_on_c, 8, 91, 95
9, 65640, Note_on_c, 8, 91, 0
9, 65640, Note_on_c, 8, 87, 95
9, 65640, Note_on_c, 8, 79, 94
9, 65680, Note_on_c, 8, 79, 0
9, 65680, Note_on_c, 8, 87, 0
9, 65680, Note_on_c, 8, 86, 99
9, 65680, Note_on_c, 8, 78, 86
9, 65720, Note_on_c, 8, 78, 0
9, 65720, Note_on_c, 8, 86, 0
9, 65720, Note_on_c, 8, 87, 94
9, 65720, Note_on_c, 8, 79, 95
9, 65760, Note_on_c, 8, 79, 0
9, 65760, Note_on_c, 8, 87, 0
9, 65760, Note_on_c, 8, 79, 94
9, 65760, Note_on_c, 8, 75, 101
9, 65760, Note_on_c, 8, 84, 86
9, 65800, Note_on_c, 8, 75, 0
9, 65800, Note_on_c, 8, 79, 0
9, 65800, Note_on_c, 8, 78, 86
9, 65800, Note_on_c, 8, 74, 98
9, 65840, Note_on_c, 8, 74, 0
9, 65840, Note_on_c, 8, 78, 0
9, 65840, Note_on_c, 8, 79, 95
9, 65840, Note_on_c, 8, 75, 95
9, 65880, Note_on_c, 8, 75, 0
9, 65880, Note_on_c, 8, 79, 0
9, 65880, Note_on_c, 8, 84, 0
9, 65880, Note_on_c, 8, 75, 90
9, 65880, Note_on_c, 8, 72, 119
9, 65880, Note_on_c, 8, 79, 94
9, 65920, Note_on_c, 8, 72, 0
9, 65920, Note_on_c, 8, 75, 0
9, 65920, Note_on_c, 8, 74, 95
9, 65920, Note_on_c, 8, 71, 95
9, 65960, Note_on_c, 8, 71, 0
9, 65960, Note_on_c, 8, 74, 0
9, 65960, Note_on_c, 8, 75, 95
9, 65960, Note_on_c, 8, 72, 117
9, 66000, Note_on_c, 8, 72, 0
9, 66000, Note_on_c, 8, 75, 0
9, 66000, Note_on_c, 8, 79, 0
9, 66000, Note_on_c, 8, 75, 94
9, 66000, Note_on_c, 8, 72, 112
9, 66000, Note_on_c, 8, 67, 86
9, 66040, Note_on_c, 8, 67, 0
9, 66040, Note_on_c, 8, 72, 0
9, 66040, Note_on_c, 8, 75, 0
9, 66040, Note_on_c, 8, 74, 89
9, 66040, Note_on_c, 8, 71, 85
9, 66040, Note_on_c, 8, 65, 94
9, 66080, Note_on_c, 8, 65, 0
9, 66080, Note_on_c, 8, 71, 0
9, 66080, Note_on_c, 8, 74, 0
9, 66080, Note_on_c, 8, 75, 95
9, 66080, Note_on_c, 8, 72, 110
9, 66080, Note_on_c, 8, 67, 86
9, 66120, Note_on_c, 8, 67, 0
9, 66120, Note_on_c, 8, 72, 0
9, 66120, Note_on_c, 8, 75, 0
9, 66120, Note_on_c, 8, 67, 80
9, 66120, Note_on_c, 8, 63, 89
9, 66120, Note_on_c, 8, 72, 117
9, 66160, Note_on_c, 8, 63, 0
9, 66160, Note_on_c, 8, 67, 0
9, 66160, Note_on_c, 8, 65, 89
9, 66160, Note_on_c, 8, 62, 95
9, 66200, Note_on_c, 8, 62, 0
9, 66200, Note_on_c, 8, 65, 0
9, 66200, Note_on_c, 8, 67, 80
9, 66200, Note_on_c, 8, 63, 94
9, 66240, Note_on_c, 8, 63, 0
9, 66240, Note_on_c, 8, 67, 0
9, 66240, Note_on_c, 8, 72, 0
9, 66240, Note_on_c, 8, 63, 81
9, 66240, Note_on_c, 8, 60, 86
9, 66240, Note_on_c, 8, 67, 81
9, 66280, Note_on_c, 8, 60, 0
9, 66280, Note_on_c, 8, 63, 0
9, 66280, Note_on_c, 8, 62, 84
9, 66280, Note_on_c, 8, 59, 95
9, 66320, Note_on_c, 8, 59, 0
9, 66320, Note_on_c, 8, 62, 0
9, 66320, Note_on_c, 8, 63, 84
9, 66320, Note_on_c, 8, 60, 95
9, 66360, Note_on_c, 8, 60, 0
9, 66360, Note_on_c, 8, 63, 0
9, 66360, Note_on_c, 8, 67, 0
9, 66360, Note_on_c, 8, 60, 93
9, 66360, Note_on_c, 8, 63, 95
9, 66360, Note_on_c, 8, 55, 94
9, 66400, Note_on_c, 8, 55, 0
9, 66400, Note_on_c, 8, 63, 0
9, 66400, Note_on_c, 8, 60, 0
9, 66400, Note_on_c, 8, 59, 89
9, 66400, Note_on_c, 8, 62, 90
9, 66400, Note_on_c, 8, 53, 84
9, 66440, Note_on_c, 8, 53, 0
9, 66440, Note_on_c, 8, 62, 0
9, 66440, Note_on_c, 8, 59, 0
9, 66440, Note_on_c, 8, 60, 85
9, 66440, Note_on_c, 8, 63, 89
9, 66440, Note_on_c, 8, 55, 98
9, 66480, Note_on_c, 8, 55, 0
9, 66480, Note_on_c, 8, 63, 0
9, 66480, Note_on_c, 8, 60, 0
9, 66480, Note_on_c, 8, 91, 94
9, 66520, Note_on_c, 8, 91, 0
9, 66520, Note_on_c, 8, 90, 85
9, 66560, Note_on_c, 8, 90, 0
9, 66560, Note_on_c, 8, 91, 95
9, 66600, Note_on_c, 8, 91, 0
9, 66600, Note_on_c, 8, 88, 89
9, 66600, Note_on_c, 8, 79, 94
9, 66640, Note_on_c, 8, 79, 0
9, 66640, Note_on_c, 8, 88, 0
9, 66640, Note_on_c, 8, 87, 90
9, 66640, Note_on_c, 8, 78, 85
9, 66680, Note_on_c, 8, 78, 0
9, 66680, Note_on_c, 8, 87, 0
9, 66680, Note_on_c, 8, 88, 95
9, 66680, Note_on_c, 8, 79, 95
9, 66720, Note_on_c, 8, 79, 0
9, 66720, Note_on_c, 8, 88, 0
9, 66720, Note_on_c, 8, 79, 93
9, 66720, Note_on_c, 8, 76, 99
9, 66720, Note_on_c, 8, 85, 90
9, 66760, Note_on_c, 8, 76, 0
9, 66760, Note_on_c, 8, 79, 0
9, 66760, Note_on_c, 8, 78, 84
9, 66760, Note_on_c, 8, 75, 94
9, 66800, Note_on_c, 8, 75, 0
9, 66800, Note_on_c, 8, 78, 0
9, 66800, Note_on_c, 8, 79, 98
9, 66800, Note_on_c, 8, 76, 101
9, 66840, Note_on_c, 8, 76, 0
9, 66840, Note_on_c, 8, 79, 0
9, 66840, Note_on_c, 8, 85, 0
9, 66840, Note_on_c, 8, 76, 93
9, 66840, Note_on_c, 8, 73, 93
9, 66840, Note_on_c, 8, 79, 94
9, 66880, Note_on_c, 8, 73, 0
9, 66880, Note_on_c, 8, 76, 0
9, 66880, Note_on_c, 8, 75, 94
9, 66880, Note_on_c, 8, 72, 115
9, 66920, Note_on_c, 8, 72, 0
9, 66920, Note_on_c, 8, 75, 0
9, 66920, Note_on_c, 8, 76, 94
9, 66920, Note_on_c, 8, 73, 93
9, 66960, Note_on_c, 8, 73, 0
9, 66960, Note_on_c, 8, 76, 0
9, 66960, Note_on_c, 8, 79, 0
9, 66960, Note_on_c, 8, 76, 89
9, 66960, Note_on_c, 8, 73, 85
9, 66960, Note_on_c, 8, 67, 84
9, 67000, Note_on_c, 8, 67, 0
9, 67000, Note_on_c, 8, 73, 0
9, 67000, Note_on_c, 8, 76, 0
9, 67000, Note_on_c, 8, 75, 90
9, 67000, Note_on_c, 8, 72, 117
9, 67000, Note_on_c, 8, 66, 89
9, 67040, Note_on_c, 8, 66, 0
9, 67040, Note_on_c, 8, 72, 0
9, 67040, Note_on_c, 8, 75, 0
9, 67040, Note_on_c, 8, 76, 94
9, 67040, Note_on_c, 8, 73, 86
9, 67040, Note_on_c, 8, 67, 89
9, 67080, Note_on_c, 8, 67, 0
9, 67080, Note_on_c, 8, 73, 0
9, 67080, Note_on_c, 8, 76, 0
9, 67080, Note_on_c, 8, 67, 84
9, 67080, Note_on_c, 8, 64, 99
9, 67080, Note_on_c, 8, 73, 94
9, 67120, Note_on_c, 8, 64, 0
9, 67120, Note_on_c, 8, 67, 0
9, 67120, Note_on_c, 8, 66, 89
9, 67120, Note_on_c, 8, 63, 86
9, 67160, Note_on_c, 8, 63, 0
9, 67160, Note_on_c, 8, 66, 0
9, 67160, Note_on_c, 8, 67, 86
9, 67160, Note_on_c, 8, 64, 104
9, 67200, Note_on_c, 8, 64, 0
9, 67200, Note_on_c, 8, 67, 0
9, 67200, Note_on_c, 8, 73, 0
9, 67200, Note_on_c, 8, 64, 93
9, 67200, Note_on_c, 8, 61, 84
9, 67200, Note_on_c, 8, 67, 89
9, 67240, Note_on_c, 8, 61, 0
9, 67240, Note_on_c, 8, 64, 0
9, 67240, Note_on_c, 8, 63, 80
9, 67240, Note_on_c, 8, 60, 89
9, 67280, Note_on_c, 8, 60, 0
9, 67280, Note_on_c, 8, 63, 0
9, 67280, Note_on_c, 8, 64, 99
9, 67280, Note_on_c, 8, 61, 86
9, 67320, Note_on_c, 8, 61, 0
9, 67320, Note_on_c, 8, 64, 0
9, 67320, Note_on_c, 8, 67, 0
9, 67320, Note_on_c, 8, 61, 84
9, 67320, Note_on_c, 8, 64, 98
9, 67320, Note_on_c, 8, 55, 94
9, 67360, Note_on_c, 8, 55, 0
9, 67360, Note_on_c, 8, 64, 0
9, 67360, Note_on_c, 8, 61, 0
9, 67360, Note_on_c, 8, 60, 86
9, 67360, Note_on_c, 8, 63, 85
9, 67360, Note_on_c, 8, 54, 93
9, 67400, Note_on_c, 8, 54, 0
9, 67400, Note_on_c, 8, 63, 0
9, 67400, Note_on_c, 8, 60, 0
9, 67400, Note_on_c, 8, 61, 89
9, 67400, Note_on_c, 8, 64, 99
9, 67400, Note_on_c, 8, 55, 89
9, 67440, Note_on_c, 8, 55, 0
9, 67440, Note_on_c, 8, 64, 0
9, 67440, Note_on_c, 8, 61, 0
9, 67440, Note_on_c, 8, 50, 99
9, 67470, Note_on_c, 8, 74, 80
9, 67470, Note_on_c, 8, 66, 80
9, 67470, Note_on_c, 8, 62, 76
9, 67500, Note_on_c, 8, 62, 0
9, 67500, Note_on_c, 8, 50, 0
9, 67500, Note_on_c, 8, 74, 0
9, 67500, Note_on_c, 8, 66, 0
9, 67500, Note_on_c, 8, 63, 94
9, 67530, Note_on_c, 8, 73, 68
9, 67530, Note_on_c, 8, 62, 81
9, 67530, Note_on_c, 8, 67, 84
9, 67560, Note_on_c, 8, 67, 0
9, 67560, Note_on_c, 8, 63, 0
9, 67560, Note_on_c, 8, 73, 0
9, 67560, Note_on_c, 8, 62, 0
9, 67560, Note_on_c, 8, 50, 104
9, 67590, Note_on_c, 8, 66, 80
9, 67590, Note_on_c, 8, 62, 80
9, 67590, Note_on_c, 8, 74, 81
9, 67620, Note_on_c, 8, 74, 0
9, 67620, Note_on_c, 8, 50, 0
9, 67620, Note_on_c, 8, 66, 0
9, 67620, Note_on_c, 8, 62, 0
9, 67620, Note_on_c, 8, 63, 99
9, 67650, Note_on_c, 8, 73, 67
9, 67650, Note_on_c, 8, 62, 85
9, 67650, Note_on_c, 8, 67, 85
9, 67680, Note_on_c, 8, 67, 0
9, 67680, Note_on_c, 8, 63, 0
9, 67680, Note_on_c, 8, 73, 0
9, 67680, Note_on_c, 8, 62, 0
9, 67680, Note_on_c, 8, 50, 89
9, 67710, Note_on_c, 8, 74, 76
9, 67710, Note_on_c, 8, 66, 73
9, 67710, Note_on_c, 8, 62, 80
9, 67740, Note_on_c, 8, 62, 0
9, 67740, Note_on_c, 8, 50, 0
9, 67740, Note_on_c, 8, 74, 0
9, 67740, Note_on_c, 8, 66, 0
9, 67740, Note_on_c, 8, 63, 84
9, 67770, Note_on_c, 8, 73, 68
9, 67770, Note_on_c, 8, 62, 84
9, 67770, Note_on_c, 8, 67, 84
9, 67800, Note_on_c, 8, 67, 0
9, 67800, Note_on_c, 8, 63, 0
9, 67800, Note_on_c, 8, 73, 0
9, 67800, Note_on_c, 8, 62, 0
9, 67800, Note_on_c, 8, 50, 89
9, 67830, Note_on_c, 8, 74, 80
9, 67830, Note_on_c, 8, 62, 80
9, 67830, Note_on_c, 8, 66, 80
9, 67860, Note_on_c, 8, 66, 0
9, 67860, Note_on_c, 8, 50, 0
9, 67860, Note_on_c, 8, 74, 0
9, 67860, Note_on_c, 8, 62, 0
9, 67860, Note_on_c, 8, 63, 89
9, 67890, Note_on_c, 8, 73, 73
9, 67890, Note_on_c, 8, 62, 85
9, 67890, Note_on_c, 8, 67, 89
9, 67920, Note_on_c, 8, 67, 0
9, 67920, Note_on_c, 8, 63, 0
9, 67920, Note_on_c, 8, 73, 0
9, 67920, Note_on_c, 8, 62, 0
9, 67920, Note_on_c, 8, 50, 94
9, 67950, Note_on_c, 8, 74, 81
9, 67950, Note_on_c, 8, 62, 76
9, 67950, Note_on_c, 8, 66, 84
9, 67980, Note_on_c, 8, 66, 0
9, 67980, Note_on_c, 8, 50, 0
9, 67980, Note_on_c, 8, 74, 0
9, 67980, Note_on_c, 8, 62, 0
9, 67980, Note_on_c, 8, 62, 89
9, 68010, Note_on_c, 8, 66, 82
9, 68010, Note_on_c, 8, 74, 81
9, 68040, Note_on_c, 8, 74, 0
9, 68040, Note_on_c, 8, 66, 0
9, 68040, Note_on_c, 8, 62, 0
9, 68040, Note_on_c, 8, 63, 84
9, 68070, Note_on_c, 8, 74, 84
9, 68070, Note_on_c, 8, 73, 73
9, 68070, Note_on_c, 8, 67, 77
9, 68100, Note_on_c, 8, 67, 0
9, 68100, Note_on_c, 8, 63, 0
9, 68100, Note_on_c, 8, 74, 0
9, 68100, Note_on_c, 8, 73, 0
9, 68100, Note_on_c, 8, 64, 93
9, 68130, Note_on_c, 8, 74, 81
9, 68130, Note_on_c, 8, 67, 74
9, 68130, Note_on_c, 8, 72, 123
9, 68160, Note_on_c, 8, 72, 0
9, 68160, Note_on_c, 8, 64, 0
9, 68160, Note_on_c, 8, 74, 0
9, 68160, Note_on_c, 8, 67, 0
9, 68160, Note_on_c, 8, 65, 84
9, 68190, Note_on_c, 8, 69, 78
9, 68190, Note_on_c, 8, 74, 81
9, 68190, Note_on_c, 8, 72, 119
9, 68220, Note_on_c, 8, 72, 0
9, 68220, Note_on_c, 8, 65, 0
9, 68220, Note_on_c, 8, 69, 0
9, 68220, Note_on_c, 8, 74, 0
9, 68220, Note_on_c, 8, 66, 85
9, 68250, Note_on_c, 8, 74, 76
9, 68250, Note_on_c, 8, 69, 78
9, 68250, Note_on_c, 8, 72, 105
9, 68280, Note_on_c, 8, 72, 0
9, 68280, Note_on_c, 8, 66, 0
9, 68280, Note_on_c, 8, 74, 0
9, 68280, Note_on_c, 8, 69, 0
9, 68280, Note_on_c, 8, 67, 86
9, 68310, Note_on_c, 8, 74, 78
9, 68310, Note_on_c, 8, 70, 76
9, 68310, Note_on_c, 8, 67, 69
9, 68340, Note_on_c, 8, 67, 0
9, 68340, Note_on_c, 8, 67, 0
9, 68340, Note_on_c, 8, 74, 0
9, 68340, Note_on_c, 8, 70, 0
9, 68340, Note_on_c, 8, 61, 84
9, 68370, Note_on_c, 8, 70, 84
9, 68370, Note_on_c, 8, 76, 73
9, 68370, Note_on_c, 8, 67, 76
9, 68400, Note_on_c, 8, 67, 0
9, 68400, Note_on_c, 8, 61, 0
9, 68400, Note_on_c, 8, 70, 0
9, 68400, Note_on_c, 8, 76, 0
9, 68400, Note_on_c, 8, 50, 89
9, 68430, Note_on_c, 8, 74, 64
9, 68430, Note_on_c, 8, 66, 72
9, 68430, Note_on_c, 8, 62, 72
9, 68460, Note_on_c, 8, 62, 0
9, 68460, Note_on_c, 8, 50, 0
9, 68460, Note_on_c, 8, 74, 0
9, 68460, Note_on_c, 8, 66, 0
9, 68460, Note_on_c, 8, 63, 89
9, 68490, Note_on_c, 8, 73, 70
9, 68490, Note_on_c, 8, 67, 82
9, 68490, Note_on_c, 8, 62, 72
9, 68520, Note_on_c, 8, 62, 0
9, 68520, Note_on_c, 8, 63, 0
9, 68520, Note_on_c, 8, 73, 0
9, 68520, Note_on_c, 8, 67, 0
9, 68520, Note_on_c, 8, 50, 94
9, 68550, Note_on_c, 8, 74, 76
9, 68550, Note_on_c, 8, 62, 73
9, 68550, Note_on_c, 8, 66, 81
9, 68580, Note_on_c, 8, 66, 0
9, 68580, Note_on_c, 8, 50, 0
9, 68580, Note_on_c, 8, 74, 0
9, 68580, Note_on_c, 8, 62, 0
9, 68580, Note_on_c, 8, 63, 89
9, 68610, Note_on_c, 8, 73, 68
9, 68610, Note_on_c, 8, 62, 76
9, 68610, Note_on_c, 8, 67, 86
9, 68640, Note_on_c, 8, 67, 0
9, 68640, Note_on_c, 8, 63, 0
9, 68640, Note_on_c, 8, 73, 0
9, 68640, Note_on_c, 8, 62, 0
9, 68640, Note_on_c, 8, 50, 94
9, 68670, Note_on_c, 8, 74, 80
9, 68670, Note_on_c, 8, 66, 80
9, 68670, Note_on_c, 8, 62, 77
9, 68700, Note_on_c, 8, 62, 0
9, 68700, Note_on_c, 8, 50, 0
9, 68700, Note_on_c, 8, 74, 0
9, 68700, Note_on_c, 8, 66, 0
9, 68700, Note_on_c, 8, 63, 94
9, 68730, Note_on_c, 8, 73, 72
9, 68730, Note_on_c, 8, 62, 78
9, 68730, Note_on_c, 8, 67, 86
9, 68760, Note_on_c, 8, 67, 0
9, 68760, Note_on_c, 8, 63, 0
9, 68760, Note_on_c, 8, 73, 0
9, 68760, Note_on_c, 8, 62, 0
9, 68760, Note_on_c, 8, 50, 94
9, 68790, Note_on_c, 8, 74, 76
9, 68790, Note_on_c, 8, 62, 76
9, 68790, Note_on_c, 8, 66, 80
9, 68820, Note_on_c, 8, 66, 0
9, 68820, Note_on_c, 8, 50, 0
9, 68820, Note_on_c, 8, 74, 0
9, 68820, Note_on_c, 8, 62, 0
9, 68820, Note_on_c, 8, 63, 89
9, 68850, Note_on_c, 8, 73, 74
9, 68850, Note_on_c, 8, 62, 81
9, 68850, Note_on_c, 8, 67, 89
9, 68880, Note_on_c, 8, 67, 0
9, 68880, Note_on_c, 8, 63, 0
9, 68880, Note_on_c, 8, 73, 0
9, 68880, Note_on_c, 8, 62, 0
9, 68880, Note_on_c, 8, 50, 94
9, 68910, Note_on_c, 8, 62, 82
9, 68910, Note_on_c, 8, 74, 82
9, 68910, Note_on_c, 8, 66, 80
9, 68940, Note_on_c, 8, 66, 0
9, 68940, Note_on_c, 8, 50, 0
9, 68940, Note_on_c, 8, 62, 0
9, 68940, Note_on_c, 8, 74, 0
9, 68940, Note_on_c, 8, 62, 86
9, 68970, Note_on_c, 8, 66, 86
9, 68970, Note_on_c, 8, 74, 77
9, 69000, Note_on_c, 8, 74, 0
9, 69000, Note_on_c, 8, 66, 0
9, 69000, Note_on_c, 8, 62, 0
9, 69000, Note_on_c, 8, 63, 90
9, 69030, Note_on_c, 8, 73, 80
9, 69030, Note_on_c, 8, 74, 84
9, 69030, Note_on_c, 8, 67, 73
9, 69060, Note_on_c, 8, 67, 0
9, 69060, Note_on_c, 8, 63, 0
9, 69060, Note_on_c, 8, 73, 0
9, 69060, Note_on_c, 8, 74, 0
9, 69060, Note_on_c, 8, 64, 89
9, 69090, Note_on_c, 8, 74, 77
9, 69090, Note_on_c, 8, 67, 68
9, 69090, Note_on_c, 8, 72, 119
9, 69120, Note_on_c, 8, 72, 0
9, 69120, Note_on_c, 8, 64, 0
9, 69120, Note_on_c, 8, 74, 0
9, 69120, Note_on_c, 8, 67, 0
9, 69120, Note_on_c, 8, 65, 89
9, 69150, Note_on_c, 8, 69, 80
9, 69150, Note_on_c, 8, 74, 80
9, 69150, Note_on_c, 8, 72, 110
9, 69180, Note_on_c, 8, 72, 0
9, 69180, Note_on_c, 8, 65, 0
9, 69180, Note_on_c, 8, 69, 0
9, 69180, Note_on_c, 8, 74, 0
9, 69180, Note_on_c, 8, 66, 85
9, 69210, Note_on_c, 8, 74, 76
9, 69210, Note_on_c, 8, 69, 81
9, 69210, Note_on_c, 8, 72, 110
9, 69240, Note_on_c, 8, 72, 0
9, 69240, Note_on_c, 8, 66, 0
9, 69240, Note_on_c, 8, 74, 0
9, 69240, Note_on_c, 8, 69, 0
9, 69240, Note_on_c, 8, 67, 84
9, 69270, Note_on_c, 8, 74, 84
9, 69270, Note_on_c, 8, 70, 70
9, 69270, Note_on_c, 8, 67, 77
9, 69300, Note_on_c, 8, 67, 0
9, 69300, Note_on_c, 8, 67, 0
9, 69300, Note_on_c, 8, 74, 0
9, 69300, Note_on_c, 8, 70, 0
9, 69300, Note_on_c, 8, 61, 81
9, 69330, Note_on_c, 8, 76, 73
9, 69330, Note_on_c, 8, 70, 86
9, 69330, Note_on_c, 8, 67, 73
9, 69360, Note_on_c, 8, 67, 0
9, 69360, Note_on_c, 8, 61, 0
9, 69360, Note_on_c, 8, 76, 0
9, 69360, Note_on_c, 8, 70, 0
9, 69360, Note_on_c, 8, 74, 98
9, 69360, Note_on_c, 8, 50, 104
9, 69360, Note_on_c, 8, 66, 89
9, 69390, Note_on_c, 8, 50, 0
9, 69390, Note_on_c, 8, 62, 81
9, 69420, Note_on_c, 8, 62, 0
9, 69420, Note_on_c, 8, 66, 0
9, 69420, Note_on_c, 8, 74, 0
9, 69420, Note_on_c, 8, 70, 99
9, 69420, Note_on_c, 8, 49, 86
9, 69450, Note_on_c, 8, 49, 0
9, 69450, Note_on_c, 8, 70, 0
9, 69450, Note_on_c, 8, 67, 72
9, 69450, Note_on_c, 8, 61, 72
9, 69480, Note_on_c, 8, 61, 0
9, 69480, Note_on_c, 8, 67, 0
9, 69480, Note_on_c, 8, 69, 99
9, 69480, Note_on_c, 8, 50, 94
9, 69510, Note_on_c, 8, 50, 0
9, 69510, Note_on_c, 8, 69, 0
9, 69510, Note_on_c, 8, 65, 89
9, 69510, Note_on_c, 8, 62, 89
9, 69540, Note_on_c, 8, 62, 0
9, 69540, Note_on_c, 8, 65, 0
9, 69540, Note_on_c, 8, 70, 94
9, 69540, Note_on_c, 8, 49, 95
9, 69570, Note_on_c, 8, 49, 0
9, 69570, Note_on_c, 8, 70, 0
9, 69570, Note_on_c, 8, 67, 73
9, 69570, Note_on_c, 8, 61, 99
9, 69600, Note_on_c, 8, 61, 0
9, 69600, Note_on_c, 8, 67, 0
9, 69600, Note_on_c, 8, 69, 93
9, 69600, Note_on_c, 8, 50, 105
9, 69630, Note_on_c, 8, 50, 0
9, 69630, Note_on_c, 8, 69, 0
9, 69630, Note_on_c, 8, 65, 84
9, 69630, Note_on_c, 8, 62, 85
9, 69660, Note_on_c, 8, 62, 0
9, 69660, Note_on_c, 8, 65, 0
9, 69660, Note_on_c, 8, 70, 94
9, 69660, Note_on_c, 8, 49, 94
9, 69690, Note_on_c, 8, 49, 0
9, 69690, Note_on_c, 8, 70, 0
9, 69690, Note_on_c, 8, 67, 76
9, 69690, Note_on_c, 8, 61, 82
9, 69720, Note_on_c, 8, 61, 0
9, 69720, Note_on_c, 8, 67, 0
9, 69720, Note_on_c, 8, 69, 98
9, 69720, Note_on_c, 8, 50, 95
9, 69750, Note_on_c, 8, 50, 0
9, 69750, Note_on_c, 8, 69, 0
9, 69750, Note_on_c, 8, 65, 85
9, 69750, Note_on_c, 8, 62, 81
9, 69780, Note_on_c, 8, 62, 0
9, 69780, Note_on_c, 8, 65, 0
9, 69780, Note_on_c, 8, 72, 127
9, 69780, Note_on_c, 8, 51, 105
9, 69810, Note_on_c, 8, 51, 0
9, 69810, Note_on_c, 8, 72, 0
9, 69810, Note_on_c, 8, 69, 89
9, 69810, Note_on_c, 8, 63, 89
9, 69840, Note_on_c, 8, 63, 0
9, 69840, Note_on_c, 8, 69, 0
9, 69840, Note_on_c, 8, 71, 101
9, 69840, Note_on_c, 8, 52, 99
9, 69870, Note_on_c, 8, 52, 0
9, 69870, Note_on_c, 8, 71, 0
9, 69870, Note_on_c, 8, 68, 81
9, 69870, Note_on_c, 8, 64, 93
9, 69900, Note_on_c, 8, 64, 0
9, 69900, Note_on_c, 8, 68, 0
9, 69900, Note_on_c, 8, 72, 117
9, 69900, Note_on_c, 8, 51, 94
9, 69930, Note_on_c, 8, 51, 0
9, 69930, Note_on_c, 8, 72, 0
9, 69930, Note_on_c, 8, 69, 86
9, 69930, Note_on_c, 8, 63, 89
9, 69960, Note_on_c, 8, 63, 0
9, 69960, Note_on_c, 8, 69, 0
9, 69960, Note_on_c, 8, 71, 94
9, 69960, Note_on_c, 8, 52, 84
9, 69990, Note_on_c, 8, 52, 0
9, 69990, Note_on_c, 8, 71, 0
9, 69990, Note_on_c, 8, 68, 80
9, 69990, Note_on_c, 8, 64, 89
9, 70020, Note_on_c, 8, 64, 0
9, 70020, Note_on_c, 8, 68, 0
9, 70020, Note_on_c, 8, 74, 123
9, 70020, Note_on_c, 8, 53, 112
9, 70050, Note_on_c, 8, 53, 0
9, 70050, Note_on_c, 8, 74, 0
9, 70050, Note_on_c, 8, 71, 73
9, 70050, Note_on_c, 8, 65, 93
9, 70080, Note_on_c, 8, 65, 0
9, 70080, Note_on_c, 8, 71, 0
9, 70080, Note_on_c, 8, 73, 85
9, 70080, Note_on_c, 8, 54, 94
9, 70110, Note_on_c, 8, 54, 0
9, 70110, Note_on_c, 8, 73, 0
9, 70110, Note_on_c, 8, 70, 86
9, 70110, Note_on_c, 8, 66, 85
9, 70140, Note_on_c, 8, 66, 0
9, 70140, Note_on_c, 8, 70, 0
9, 70140, Note_on_c, 8, 75, 98
9, 70140, Note_on_c, 8, 54, 112
9, 70170, Note_on_c, 8, 54, 0
9, 70170, Note_on_c, 8, 75, 0
9, 70170, Note_on_c, 8, 72, 115
9, 70170, Note_on_c, 8, 66, 85
9, 70200, Note_on_c, 8, 66, 0
9, 70200, Note_on_c, 8, 72, 0
9, 70200, Note_on_c, 8, 74, 95
9, 70200, Note_on_c, 8, 55, 94
9, 70230, Note_on_c, 8, 55, 0
9, 70230, Note_on_c, 8, 74, 0
9, 70230, Note_on_c, 8, 71, 90
9, 70230, Note_on_c, 8, 67, 80
9, 70260, Note_on_c, 8, 67, 0
9, 70260, Note_on_c, 8, 71, 0
9, 70260, Note_on_c, 8, 77, 125
9, 70260, Note_on_c, 8, 56, 110
9, 70290, Note_on_c, 8, 56, 0
9, 70290, Note_on_c, 8, 77, 0
9, 70290, Note_on_c, 8, 74, 95
9, 70290, Note_on_c, 8, 68, 94
9, 70320, Note_on_c, 8, 68, 0
9, 70320, Note_on_c, 8, 74, 0
9, 70320, Note_on_c, 8, 76, 94
9, 70320, Note_on_c, 8, 57, 95
9, 70350, Note_on_c, 8, 57, 0
9, 70350, Note_on_c, 8, 76, 0
9, 70350, Note_on_c, 8, 73, 89
9, 70350, Note_on_c, 8, 69, 95
9, 70380, Note_on_c, 8, 69, 0
9, 70380, Note_on_c, 8, 73, 0
9, 70380, Note_on_c, 8, 79, 127
9, 70380, Note_on_c, 8, 58, 112
9, 70410, Note_on_c, 8, 58, 0
9, 70410, Note_on_c, 8, 79, 0
9, 70410, Note_on_c, 8, 76, 101
9, 70410, Note_on_c, 8, 70, 89
9, 70440, Note_on_c, 8, 70, 0
9, 70440, Note_on_c, 8, 76, 0
9, 70440, Note_on_c, 8, 78, 93
9, 70440, Note_on_c, 8, 59, 99
9, 70470, Note_on_c, 8, 59, 0
9, 70470, Note_on_c, 8, 78, 0
9, 70470, Note_on_c, 8, 75, 104
9, 70470, Note_on_c, 8, 71, 89
9, 70500, Note_on_c, 8, 71, 0
9, 70500, Note_on_c, 8, 75, 0
9, 70500, Note_on_c, 8, 80, 125
9, 70500, Note_on_c, 8, 59, 115
9, 70530, Note_on_c, 8, 59, 0
9, 70530, Note_on_c, 8, 80, 0
9, 70530, Note_on_c, 8, 77, 86
9, 70530, Note_on_c, 8, 71, 95
9, 70560, Note_on_c, 8, 71, 0
9, 70560, Note_on_c, 8, 77, 0
9, 70560, Note_on_c, 8, 79, 98
9, 70560, Note_on_c, 8, 60, 93
9, 70590, Note_on_c, 8, 60, 0
9, 70590, Note_on_c, 8, 79, 0
9, 70590, Note_on_c, 8, 76, 94
9, 70590, Note_on_c, 8, 72, 110
9, 70620, Note_on_c, 8, 72, 0
9, 70620, Note_on_c, 8, 76, 0
9, 70620, Note_on_c, 8, 82, 94
9, 70620, Note_on_c, 8, 61, 90
9, 70650, Note_on_c, 8, 61, 0
9, 70650, Note_on_c, 8, 82, 0
9, 70650, Note_on_c, 8, 79, 95
9, 70650, Note_on_c, 8, 73, 89
9, 70680, Note_on_c, 8, 73, 0
9, 70680, Note_on_c, 8, 79, 0
9, 70680, Note_on_c, 8, 81, 104
9, 70680, Note_on_c, 8, 62, 99
9, 70710, Note_on_c, 8, 62, 0
9, 70710, Note_on_c, 8, 81, 0
9, 70710, Note_on_c, 8, 78, 76
9, 70710, Note_on_c, 8, 74, 93
9, 70740, Note_on_c, 8, 74, 0
9, 70740, Note_on_c, 8, 78, 0
9, 70740, Note_on_c, 8, 82, 101
9, 70740, Note_on_c, 8, 61, 93
9, 70770, Note_on_c, 8, 61, 0
9, 70770, Note_on_c, 8, 82, 0
9, 70770, Note_on_c, 8, 79, 95
9, 70770, Note_on_c, 8, 73, 84
9, 70800, Note_on_c, 8, 73, 0
9, 70800, Note_on_c, 8, 79, 0
9, 70800, Note_on_c, 8, 81, 105
9, 70800, Note_on_c, 8, 62, 93
9, 70830, Note_on_c, 8, 62, 0
9, 70830, Note_on_c, 8, 81, 0
9, 70830, Note_on_c, 8, 78, 84
9, 70830, Note_on_c, 8, 74, 76
9, 70860, Note_on_c, 8, 74, 0
9, 70860, Note_on_c, 8, 78, 0
9, 70860, Note_on_c, 8, 91, 99
9, 70860, Note_on_c, 8, 61, 65
9, 70890, Note_on_c, 8, 61, 0
9, 70890, Note_on_c, 8, 91, 0
9, 70890, Note_on_c, 8, 82, 73
9, 70890, Note_on_c, 8, 73, 56
9, 70920, Note_on_c, 8, 73, 0
9, 70920, Note_on_c, 8, 82, 0
9, 70920, Note_on_c, 8, 62, 53
9, 70920, Note_on_c, 8, 90, 81
9, 70950, Note_on_c, 8, 90, 0
9, 70950, Note_on_c, 8, 62, 0
9, 70950, Note_on_c, 8, 74, 42
9, 70950, Note_on_c, 8, 81, 71
9, 70980, Note_on_c, 8, 81, 0
9, 70980, Note_on_c, 8, 74, 0
9, 70980, Note_on_c, 8, 61, 69
9, 70980, Note_on_c, 8, 91, 61
9, 71010, Note_on_c, 8, 91, 0
9, 71010, Note_on_c, 8, 61, 0
9, 71010, Note_on_c, 8, 73, 44
9, 71010, Note_on_c, 8, 82, 43
9, 71040, Note_on_c, 8, 82, 0
9, 71040, Note_on_c, 8, 73, 0
9, 71040, Note_on_c, 8, 90, 62
9, 71040, Note_on_c, 8, 81, 56
9, 71040, Note_on_c, 8, 62, 45
9, 71040, Note_on_c, 8, 74, 56
9, 71080, Note_on_c, 8, 81, 0
9, 71080, Note_on_c, 8, 90, 0
9, 71080, Note_on_c, 8, 79, 73
9, 71120, Note_on_c, 8, 79, 0
9, 71120, Note_on_c, 8, 78, 63
9, 71160, Note_on_c, 8, 78, 0
9, 71160, Note_on_c, 8, 62, 0
9, 71160, Note_on_c, 8, 74, 0
9, 71160, Note_on_c, 8, 76, 72
9, 71160, Note_on_c, 8, 69, 51
9, 71160, Note_on_c, 8, 62, 63
9, 71160, Note_on_c, 8, 66, 35
9, 71200, Note_on_c, 8, 76, 0
9, 71200, Note_on_c, 8, 78, 63
9, 71240, Note_on_c, 8, 78, 0
9, 71240, Note_on_c, 8, 74, 72
9, 71280, Note_on_c, 8, 74, 0
9, 71280, Note_on_c, 8, 69, 0
9, 71280, Note_on_c, 8, 62, 0
9, 71280, Note_on_c, 8, 66, 0
9, 71280, Note_on_c, 8, 73, 65
9, 71280, Note_on_c, 8, 70, 61
9, 71280, Note_on_c, 8, 62, 68
9, 71280, Note_on_c, 8, 67, 68
9, 71320, Note_on_c, 8, 73, 0
9, 71320, Note_on_c, 8, 74, 76
9, 71360, Note_on_c, 8, 74, 0
9, 71360, Note_on_c, 8, 76, 72
9, 71400, Note_on_c, 8, 76, 0
9, 71400, Note_on_c, 8, 70, 0
9, 71400, Note_on_c, 8, 62, 0
9, 71400, Note_on_c, 8, 67, 0
9, 71400, Note_on_c, 8, 78, 41
9, 71440, Note_on_c, 8, 78, 0
9, 71440, Note_on_c, 8, 79, 68
9, 71480, Note_on_c, 8, 79, 0
9, 71480, Note_on_c, 8, 76, 57
9, 71520, Note_on_c, 8, 76, 0
9, 71520, Note_on_c, 8, 81, 58
9, 71560, Note_on_c, 8, 81, 0
9, 71560, Note_on_c, 8, 79, 68
9, 71600, Note_on_c, 8, 79, 0
9, 71600, Note_on_c, 8, 78, 60
9, 71640, Note_on_c, 8, 78, 0
9, 71640, Note_on_c, 8, 76, 62
9, 71640, Note_on_c, 8, 69, 56
9, 71640, Note_on_c, 8, 66, 42
9, 71640, Note_on_c, 8, 62, 46
9, 71680, Note_on_c, 8, 76, 0
9, 71680, Note_on_c, 8, 78, 61
9, 71720, Note_on_c, 8, 78, 0
9, 71720, Note_on_c, 8, 74, 54
9, 71760, Note_on_c, 8, 74, 0
9, 71760, Note_on_c, 8, 69, 0
9, 71760, Note_on_c, 8, 66, 0
9, 71760, Note_on_c, 8, 62, 0
9, 71760, Note_on_c, 8, 73, 56
9, 71760, Note_on_c, 8, 70, 45
9, 71760, Note_on_c, 8, 67, 43
9, 71760, Note_on_c, 8, 62, 46
9, 71800, Note_on_c, 8, 73, 0
9, 71800, Note_on_c, 8, 74, 72
9, 71840, Note_on_c, 8, 74, 0
9, 71840, Note_on_c, 8, 76, 80
9, 71880, Note_on_c, 8, 76, 0
9, 71880, Note_on_c, 8, 70, 0
9, 71880, Note_on_c, 8, 67, 0
9, 71880, Note_on_c, 8, 62, 0
9, 71880, Note_on_c, 8, 78, 43
9, 71920, Note_on_c, 8, 78, 0
9, 71920, Note_on_c, 8, 79, 69
9, 71960, Note_on_c, 8, 79, 0
9, 71960, Note_on_c, 8, 76, 58
9, 72000, Note_on_c, 8, 76, 0
9, 72000, Note_on_c, 8, 78, 58
9, 72040, Note_on_c, 8, 78, 0
9, 72040, Note_on_c, 8, 79, 78
9, 72080, Note_on_c, 8, 79, 0
9, 72080, Note_on_c, 8, 76, 84
9, 72120, Note_on_c, 8, 76, 0
9, 72120, Note_on_c, 8, 79, 84
9, 72120, Note_on_c, 8, 69, 46
9, 72120, Note_on_c, 8, 66, 57
9, 72120, Note_on_c, 8, 62, 63
9, 72160, Note_on_c, 8, 79, 0
9, 72160, Note_on_c, 8, 81, 85
9, 72200, Note_on_c, 8, 81, 0
9, 72200, Note_on_c, 8, 78, 85
9, 72240, Note_on_c, 8, 78, 0
9, 72240, Note_on_c, 8, 69, 0
9, 72240, Note_on_c, 8, 66, 0
9, 72240, Note_on_c, 8, 62, 0
9, 72240, Note_on_c, 8, 79, 95
9, 72280, Note_on_c, 8, 79, 0
9, 72280, Note_on_c, 8, 81, 104
9, 72320, Note_on_c, 8, 81, 0
9, 72320, Note_on_c, 8, 78, 84
9, 72360, Note_on_c, 8, 78, 0
9, 72360, Note_on_c, 8, 81, 101
9, 72360, Note_on_c, 8, 62, 72
9, 72360, Note_on_c, 8, 71, 70
9, 72360, Note_on_c, 8, 67, 66
9, 72400, Note_on_c, 8, 81, 0
9, 72400, Note_on_c, 8, 83, 99
9, 72440, Note_on_c, 8, 83, 0
9, 72440, Note_on_c, 8, 79, 86
9, 72480, Note_on_c, 8, 79, 0
9, 72480, Note_on_c, 8, 62, 0
9, 72480, Note_on_c, 8, 71, 0
9, 72480, Note_on_c, 8, 67, 0
9, 72480, Note_on_c, 8, 81, 95
9, 72520, Note_on_c, 8, 81, 0
9, 72520, Note_on_c, 8, 83, 89
9, 72560, Note_on_c, 8, 83, 0
9, 72560, Note_on_c, 8, 79, 80
9, 72600, Note_on_c, 8, 79, 0
9, 72600, Note_on_c, 8, 83, 95
9, 72600, Note_on_c, 8, 62, 65
9, 72600, Note_on_c, 8, 69, 80
9, 72600, Note_on_c, 8, 72, 110
9, 72640, Note_on_c, 8, 83, 0
9, 72640, Note_on_c, 8, 84, 86
9, 72680, Note_on_c, 8, 84, 0
9, 72680, Note_on_c, 8, 81, 89
9, 72720, Note_on_c, 8, 81, 0
9, 72720, Note_on_c, 8, 62, 0
9, 72720, Note_on_c, 8, 69, 0
9, 72720, Note_on_c, 8, 72, 0
9, 72720, Note_on_c, 8, 83, 99
9, 72760, Note_on_c, 8, 83, 0
9, 72760, Note_on_c, 8, 84, 99
9, 72800, Note_on_c, 8, 84, 0
9, 72800, Note_on_c, 8, 81, 98
9, 72840, Note_on_c, 8, 81, 0
9, 72840, Note_on_c, 8, 83, 105
9, 72880, Note_on_c, 8, 83, 0
9, 72880, Note_on_c, 8, 84, 89
9, 72920, Note_on_c, 8, 84, 0
9, 72920, Note_on_c, 8, 81, 101
9, 72960, Note_on_c, 8, 81, 0
9, 72960, Note_on_c, 8, 83, 104
9, 73000, Note_on_c, 8, 83, 0
9, 73000, Note_on_c, 8, 84, 95
9, 73040, Note_on_c, 8, 84, 0
9, 73040, Note_on_c, 8, 81, 95
9, 73080, Note_on_c, 8, 81, 0
9, 73080, Note_on_c, 8, 84, 104
9, 73080, Note_on_c, 8, 73, 74
9, 73080, Note_on_c, 8, 70, 105
9, 73080, Note_on_c, 8, 62, 95
9, 73120, Note_on_c, 8, 84, 0
9, 73120, Note_on_c, 8, 85, 94
9, 73160, Note_on_c, 8, 85, 0
9, 73160, Note_on_c, 8, 82, 99
9, 73200, Note_on_c, 8, 82, 0
9, 73200, Note_on_c, 8, 73, 0
9, 73200, Note_on_c, 8, 70, 0
9, 73200, Note_on_c, 8, 62, 0
9, 73200, Note_on_c, 8, 84, 104
9, 73240, Note_on_c, 8, 84, 0
9, 73240, Note_on_c, 8, 85, 99
9, 73280, Note_on_c, 8, 85, 0
9, 73280, Note_on_c, 8, 82, 93
9, 73320, Note_on_c, 8, 82, 0
9, 73320, Note_on_c, 8, 84, 99
9, 73360, Note_on_c, 8, 84, 0
9, 73360, Note_on_c, 8, 85, 99
9, 73400, Note_on_c, 8, 85, 0
9, 73400, Note_on_c, 8, 82, 84
9, 73440, Note_on_c, 8, 82, 0
9, 73440, Note_on_c, 8, 84, 99
9, 73480, Note_on_c, 8, 84, 0
9, 73480, Note_on_c, 8, 85, 84
9, 73520, Note_on_c, 8, 85, 0
9, 73520, Note_on_c, 8, 82, 68
9, 73560, Note_on_c, 8, 82, 0
9, 73560, Note_on_c, 8, 84, 76
9, 73600, Note_on_c, 8, 84, 0
9, 73600, Note_on_c, 8, 85, 76
9, 73640, Note_on_c, 8, 85, 0
9, 73640, Note_on_c, 8, 82, 59
9, 73680, Note_on_c, 8, 82, 0
9, 73680, Note_on_c, 8, 84, 49
9, 73720, Note_on_c, 8, 84, 0
9, 73720, Note_on_c, 8, 85, 62
9, 73760, Note_on_c, 8, 85, 0
9, 73760, Note_on_c, 8, 82, 57
9, 73800, Note_on_c, 8, 82, 0
9, 73800, Note_on_c, 8, 84, 50
9, 73840, Note_on_c, 8, 84, 0
9, 73840, Note_on_c, 8, 85, 65
9, 73880, Note_on_c, 8, 85, 0
9, 73880, Note_on_c, 8, 82, 64
9, 73920, Note_on_c, 8, 82, 0
9, 73920, Control_c, 8, 64, 98
9, 73920, Note_on_c, 8, 31, 76
9, 73920, Note_on_c, 8, 86, 68
9, 73980, Note_on_c, 8, 31, 0
9, 74040, Note_on_c, 8, 55, 38
9, 74160, Note_on_c, 8, 55, 0
9, 74160, Note_on_c, 8, 59, 51
9, 74280, Note_on_c, 8, 59, 0
9, 74280, Note_on_c, 8, 86, 0
9, 74280, Note_on_c, 8, 84, 62
9, 74280, Note_on_c, 8, 62, 58
9, 74340, Note_on_c, 8, 84, 0
9, 74340, Note_on_c, 8, 83, 72
9, 74400, Note_on_c, 8, 83, 0
9, 74400, Note_on_c, 8, 62, 0
9, 74400, Note_on_c, 8, 63, 62
9, 74400, Note_on_c, 8, 81, 57
9, 74415, Note_on_c, 8, 81, 0
9, 74415, Note_on_c, 8, 83, 73
9, 74430, Note_on_c, 8, 83, 0
9, 74430, Note_on_c, 8, 84, 72
9, 74445, Note_on_c, 8, 84, 0
9, 74445, Note_on_c, 8, 83, 73
9, 74520, Note_on_c, 8, 83, 0
9, 74520, Note_on_c, 8, 81, 52
9, 74640, Note_on_c, 8, 63, 0
9, 74640, Note_on_c, 8, 62, 53
9, 74700, Note_on_c, 8, 81, 0
9, 74700, Note_on_c, 8, 74, 68
9, 74760, Note_on_c, 8, 74, 0
9, 74760, Note_on_c, 8, 62, 0
9, 74760, Note_on_c, 8, 76, 58
9, 74760, Note_on_c, 8, 60, 43
9, 74820, Note_on_c, 8, 76, 0
9, 74820, Note_on_c, 8, 78, 67
9, 74880, Note_on_c, 8, 78, 0
9, 74880, Note_on_c, 8, 60, 0
9, 74880, Note_on_c, 8, 59, 54
9, 74880, Note_on_c, 8, 79, 62
9, 75120, Note_on_c, 8, 79, 0
9, 75120, Note_on_c, 8, 59, 0
9, 75120, Note_on_c, 8, 57, 53
9, 75120, Note_on_c, 8, 81, 55
9, 75135, Note_on_c, 8, 81, 0
9, 75135, Note_on_c, 8, 79, 53
9, 75150, Note_on_c, 8, 79, 0
9, 75150, Note_on_c, 8, 78, 64
9, 75165, Note_on_c, 8, 78, 0
9, 75165, Note_on_c, 8, 79, 76
9, 75180, Note_on_c, 8, 79, 0
9, 75180, Note_on_c, 8, 81, 50
9, 75240, Note_on_c, 8, 81, 0
9, 75240, Note_on_c, 8, 57, 0
9, 75240, Note_on_c, 8, 83, 63
9, 75240, Note_on_c, 8, 55, 61
9, 75300, Note_on_c, 8, 83, 0
9, 75300, Note_on_c, 8, 84, 59
9, 75360, Note_on_c, 8, 84, 0
9, 75360, Note_on_c, 8, 55, 0
9, 75360, Note_on_c, 8, 54, 53
9, 75360, Note_on_c, 8, 83, 62
9, 75480, Note_on_c, 8, 83, 0
9, 75480, Note_on_c, 8, 81, 55
9, 75540, Note_on_c, 8, 54, 0
9, 75540, Note_on_c, 8, 52, 54
9, 75600, Note_on_c, 8, 52, 0
9, 75600, Note_on_c, 8, 50, 81
9, 75660, Note_on_c, 8, 50, 0
9, 75660, Note_on_c, 8, 48, 57
9, 75720, Note_on_c, 8, 48, 0
9, 75720, Note_on_c, 8, 81, 0
9, 75720, Note_on_c, 8, 47, 73
9, 75720, Note_on_c, 8, 83, 64
9, 75780, Note_on_c, 8, 83, 0
9, 75780, Note_on_c, 8, 47, 0
9, 75780, Note_on_c, 8, 45, 62
9, 75780, Note_on_c, 8, 84, 59
9, 75840, Note_on_c, 8, 84, 0
9, 75840, Note_on_c, 8, 45, 0
9, 75840, Note_on_c, 8, 31, 50
9, 75840, Note_on_c, 8, 74, 80
9, 75855, Note_on_c, 8, 74, 0
9, 75855, Note_on_c, 8, 86, 80
9, 75960, Note_on_c, 8, 31, 0
9, 75960, Note_on_c, 8, 43, 53
9, 76080, Note_on_c, 8, 43, 0
9, 76080, Note_on_c, 8, 45, 46
9, 76140, Note_on_c, 8, 86, 0
9, 76140, Note_on_c, 8, 88, 69
9, 76170, Note_on_c, 8, 88, 0
9, 76170, Note_on_c, 8, 86, 65
9, 76200, Note_on_c, 8, 86, 0
9, 76200, Note_on_c, 8, 45, 0
9, 76200, Note_on_c, 8, 47, 58
9, 76200, Note_on_c, 8, 84, 69
9, 76260, Note_on_c, 8, 84, 0
9, 76260, Note_on_c, 8, 83, 76
9, 76320, Note_on_c, 8, 83, 0
9, 76320, Note_on_c, 8, 47, 0
9, 76320, Note_on_c, 8, 48, 59
9, 76320, Note_on_c, 8, 81, 61
9, 76335, Note_on_c, 8, 81, 0
9, 76335, Note_on_c, 8, 83, 78
9, 76350, Note_on_c, 8, 83, 0
9, 76350, Note_on_c, 8, 84, 69
9, 76365, Note_on_c, 8, 84, 0
9, 76365, Note_on_c, 8, 83, 76
9, 76440, Note_on_c, 8, 83, 0
9, 76440, Note_on_c, 8, 81, 54
9, 76500, Note_on_c, 8, 48, 0
9, 76500, Note_on_c, 8, 50, 57
9, 76560, Note_on_c, 8, 50, 0
9, 76560, Note_on_c, 8, 52, 67
9, 76620, Note_on_c, 8, 52, 0
9, 76620, Note_on_c, 8, 81, 0
9, 76620, Note_on_c, 8, 54, 43
9, 76620, Note_on_c, 8, 74, 67
9, 76680, Note_on_c, 8, 74, 0
9, 76680, Note_on_c, 8, 54, 0
9, 76680, Note_on_c, 8, 55, 52
9, 76680, Note_on_c, 8, 76, 68
9, 76740, Note_on_c, 8, 76, 0
9, 76740, Note_on_c, 8, 55, 0
9, 76740, Note_on_c, 8, 57, 62
9, 76740, Note_on_c, 8, 78, 60
9, 76800, Note_on_c, 8, 78, 0
9, 76800, Note_on_c, 8, 57, 0
9, 76800, Note_on_c, 8, 59, 86
9, 76800, Note_on_c, 8, 55, 89
9, 76800, Note_on_c, 8, 67, 89
9, 76800, Note_on_c, 8, 79, 89
9, 76920, Note_on_c, 8, 79, 0
9, 76920, Note_on_c, 8, 59, 0
9, 76920, Note_on_c, 8, 55, 0
9, 76920, Note_on_c, 8, 67, 0
9, 76920, Note_on_c, 8, 50, 99
9, 76920, Note_on_c, 8, 60, 84
9, 76920, Note_on_c, 8, 81, 89
9, 76920, Note_on_c, 8, 69, 95
9, 76980, Note_on_c, 8, 69, 0
9, 76980, Note_on_c, 8, 50, 0
9, 76980, Note_on_c, 8, 60, 0
9, 76980, Note_on_c, 8, 81, 0
9, 76985, Control_c, 8, 64, 0
9, 81120, Note_on_c, 8, 43, 86
9, 81150, Note_on_c, 8, 43, 0
9, 81150, Note_on_c, 8, 50, 99
9, 81180, Note_on_c, 8, 50, 0
9, 81180, Note_on_c, 8, 55, 86
9, 81180, Note_on_c, 8, 59, 86
9, 81210, Note_on_c, 8, 59, 0
9, 81210, Note_on_c, 8, 55, 0
9, 81210, Note_on_c, 8, 67, 93
9, 81240, Note_on_c, 8, 67, 0
9, 81240, Note_on_c, 8, 62, 80
9, 81270, Note_on_c, 8, 62, 0
9, 81270, Note_on_c, 8, 71, 89
9, 81300, Note_on_c, 8, 71, 0
9, 81300, Note_on_c, 8, 67, 70
9, 81330, Note_on_c, 8, 67, 0
9, 81330, Note_on_c, 8, 74, 98
9, 81360, Note_on_c, 8, 74, 0
9, 81360, Note_on_c, 8, 71, 93
9, 81390, Note_on_c, 8, 71, 0
9, 81390, Note_on_c, 8, 79, 89
9, 81420, Note_on_c, 8, 79, 0
9, 81420, Note_on_c, 8, 74, 90
9, 81450, Note_on_c, 8, 74, 0
9, 81450, Note_on_c, 8, 83, 99
9, 81480, Note_on_c, 8, 83, 0
9, 81480, Note_on_c, 8, 79, 84
9, 81510, Note_on_c, 8, 79, 0
9, 81510, Note_on_c, 8, 86, 101
9, 81540, Note_on_c, 8, 86, 0
9, 81540, Note_on_c, 8, 83, 98
9, 81570, Note_on_c, 8, 83, 0
9, 81570, Note_on_c, 8, 91, 99
9, 81600, Note_on_c, 8, 91, 0
9, 81600, Note_on_c, 8, 38, 82
9, 81630, Note_on_c, 8, 38, 0
9, 81630, Note_on_c, 8, 90, 85
9, 81630, Note_on_c, 8, 50, 95
9, 81660, Note_on_c, 8, 50, 0
9, 81660, Note_on_c, 8, 90, 0
9, 81660, Note_on_c, 8, 54, 80
9, 81660, Note_on_c, 8, 93, 94
9, 81690, Note_on_c, 8, 93, 0
9, 81690, Note_on_c, 8, 54, 0
9, 81690, Note_on_c, 8, 84, 89
9, 81720, Note_on_c, 8, 84, 0
9, 81720, Note_on_c, 8, 90, 90
9, 81750, Note_on_c, 8, 90, 0
9, 81750, Note_on_c, 8, 81, 84
9, 81780, Note_on_c, 8, 81, 0
9, 81780, Note_on_c, 8, 84, 94
9, 81810, Note_on_c, 8, 84, 0
9, 81810, Note_on_c, 8, 78, 94
9, 81840, Note_on_c, 8, 78, 0
9, 81840, Note_on_c, 8, 81, 104
9, 81870, Note_on_c, 8, 81, 0
9, 81870, Note_on_c, 8, 72, 115
9, 81900, Note_on_c, 8, 72, 0
9, 81900, Note_on_c, 8, 78, 89
9, 81930, Note_on_c, 8, 78, 0
9, 81930, Note_on_c, 8, 69, 84
9, 81960, Note_on_c, 8, 69, 0
9, 81960, Note_on_c, 8, 72, 115
9, 81990, Note_on_c, 8, 72, 0
9, 81990, Note_on_c, 8, 66, 89
9, 82020, Note_on_c, 8, 66, 0
9, 82020, Note_on_c, 8, 69, 90
9, 82050, Note_on_c, 8, 69, 0
9, 82050, Note_on_c, 8, 60, 84
9, 82080, Note_on_c, 8, 60, 0
9, 82080, Note_on_c, 8, 43, 84
9, 82110, Note_on_c, 8, 43, 0
9, 82110, Note_on_c, 8, 50, 99
9, 82140, Note_on_c, 8, 50, 0
9, 82140, Note_on_c, 8, 55, 84
9, 82140, Note_on_c, 8, 59, 90
9, 82170, Note_on_c, 8, 59, 0
9, 82170, Note_on_c, 8, 55, 0
9, 82170, Note_on_c, 8, 67, 80
9, 82200, Note_on_c, 8, 67, 0
9, 82200, Note_on_c, 8, 62, 80
9, 82230, Note_on_c, 8, 62, 0
9, 82230, Note_on_c, 8, 71, 94
9, 82260, Note_on_c, 8, 71, 0
9, 82260, Note_on_c, 8, 67, 72
9, 82290, Note_on_c, 8, 67, 0
9, 82290, Note_on_c, 8, 74, 93
9, 82320, Note_on_c, 8, 74, 0
9, 82320, Note_on_c, 8, 71, 89
9, 82350, Note_on_c, 8, 71, 0
9, 82350, Note_on_c, 8, 79, 95
9, 82380, Note_on_c, 8, 79, 0
9, 82380, Note_on_c, 8, 74, 95
9, 82410, Note_on_c, 8, 74, 0
9, 82410, Note_on_c, 8, 83, 95
9, 82440, Note_on_c, 8, 83, 0
9, 82440, Note_on_c, 8, 79, 81
9, 82470, Note_on_c, 8, 79, 0
9, 82470, Note_on_c, 8, 86, 99
9, 82500, Note_on_c, 8, 86, 0
9, 82500, Note_on_c, 8, 83, 85
9, 82530, Note_on_c, 8, 83, 0
9, 82530, Note_on_c, 8, 91, 99
9, 82560, Note_on_c, 8, 91, 0
9, 82560, Note_on_c, 8, 38, 95
9, 82590, Note_on_c, 8, 38, 0
9, 82590, Note_on_c, 8, 90, 86
9, 82590, Note_on_c, 8, 50, 99
9, 82620, Note_on_c, 8, 50, 0
9, 82620, Note_on_c, 8, 90, 0
9, 82620, Note_on_c, 8, 54, 80
9, 82620, Note_on_c, 8, 93, 99
9, 82650, Note_on_c, 8, 93, 0
9, 82650, Note_on_c, 8, 54, 0
9, 82650, Note_on_c, 8, 84, 93
9, 82680, Note_on_c, 8, 84, 0
9, 82680, Note_on_c, 8, 90, 90
9, 82710, Note_on_c, 8, 90, 0
9, 82710, Note_on_c, 8, 81, 84
9, 82740, Note_on_c, 8, 81, 0
9, 82740, Note_on_c, 8, 84, 98
9, 82770, Note_on_c, 8, 84, 0
9, 82770, Note_on_c, 8, 78, 85
9, 82800, Note_on_c, 8, 78, 0
9, 82800, Note_on_c, 8, 81, 95
9, 82830, Note_on_c, 8, 81, 0
9, 82830, Note_on_c, 8, 72, 115
9, 82860, Note_on_c, 8, 72, 0
9, 82860, Note_on_c, 8, 78, 93
9, 82890, Note_on_c, 8, 78, 0
9, 82890, Note_on_c, 8, 69, 84
9, 82920, Note_on_c, 8, 69, 0
9, 82920, Note_on_c, 8, 72, 115
9, 82950, Note_on_c, 8, 72, 0
9, 82950, Note_on_c, 8, 66, 89
9, 82980, Note_on_c, 8, 66, 0
9, 82980, Note_on_c, 8, 69, 101
9, 83010, Note_on_c, 8, 69, 0
9, 83010, Note_on_c, 8, 60, 84
9, 83040, Note_on_c, 8, 60, 0
9, 83040, Note_on_c, 8, 43, 89
9, 83070, Note_on_c, 8, 43, 0
9, 83070, Note_on_c, 8, 91, 94
9, 83070, Note_on_c, 8, 55, 89
9, 83100, Note_on_c, 8, 55, 0
9, 83100, Note_on_c, 8, 91, 0
9, 83100, Note_on_c, 8, 95, 94
9, 83100, Note_on_c, 8, 59, 84
9, 83130, Note_on_c, 8, 59, 0
9, 83130, Note_on_c, 8, 95, 0
9, 83130, Note_on_c, 8, 86, 82
9, 83160, Note_on_c, 8, 86, 0
9, 83160, Note_on_c, 8, 91, 99
9, 83190, Note_on_c, 8, 91, 0
9, 83190, Note_on_c, 8, 83, 86
9, 83220, Note_on_c, 8, 83, 0
9, 83220, Note_on_c, 8, 86, 95
9, 83250, Note_on_c, 8, 86, 0
9, 83250, Note_on_c, 8, 79, 84
9, 83280, Note_on_c, 8, 79, 0
9, 83280, Note_on_c, 8, 47, 95
9, 83310, Note_on_c, 8, 47, 0
9, 83310, Note_on_c, 8, 90, 86
9, 83310, Note_on_c, 8, 59, 95
9, 83340, Note_on_c, 8, 59, 0
9, 83340, Note_on_c, 8, 90, 0
9, 83340, Note_on_c, 8, 93, 98
9, 83340, Note_on_c, 8, 63, 80
9, 83370, Note_on_c, 8, 63, 0
9, 83370, Note_on_c, 8, 93, 0
9, 83370, Note_on_c, 8, 87, 95
9, 83400, Note_on_c, 8, 87, 0
9, 83400, Note_on_c, 8, 90, 93
9, 83430, Note_on_c, 8, 90, 0
9, 83430, Note_on_c, 8, 81, 84
9, 83460, Note_on_c, 8, 81, 0
9, 83460, Note_on_c, 8, 87, 101
9, 83490, Note_on_c, 8, 87, 0
9, 83490, Note_on_c, 8, 78, 80
9, 83520, Note_on_c, 8, 78, 0
9, 83520, Note_on_c, 8, 52, 94
9, 83550, Note_on_c, 8, 52, 0
9, 83550, Note_on_c, 8, 88, 95
9, 83550, Note_on_c, 8, 64, 95
9, 83580, Note_on_c, 8, 64, 0
9, 83580, Note_on_c, 8, 88, 0
9, 83580, Note_on_c, 8, 91, 99
9, 83580, Note_on_c, 8, 67, 80
9, 83610, Note_on_c, 8, 67, 0
9, 83610, Note_on_c, 8, 91, 0
9, 83610, Note_on_c, 8, 83, 89
9, 83640, Note_on_c, 8, 83, 0
9, 83640, Note_on_c, 8, 55, 81
9, 83670, Note_on_c, 8, 55, 0
9, 83670, Note_on_c, 8, 67, 86
9, 83670, Note_on_c, 8, 86, 94
9, 83700, Note_on_c, 8, 86, 0
9, 83700, Note_on_c, 8, 67, 0
9, 83700, Note_on_c, 8, 89, 95
9, 83700, Note_on_c, 8, 71, 90
9, 83730, Note_on_c, 8, 71, 0
9, 83730, Note_on_c, 8, 89, 0
9, 83730, Note_on_c, 8, 83, 85
9, 83760, Note_on_c, 8, 83, 0
9, 83760, Note_on_c, 8, 60, 95
9, 83790, Note_on_c, 8, 60, 0
9, 83790, Note_on_c, 8, 72, 119
9, 83790, Note_on_c, 8, 84, 94
9, 83820, Note_on_c, 8, 84, 0
9, 83820, Note_on_c, 8, 72, 0
9, 83820, Note_on_c, 8, 88, 95
9, 83820, Note_on_c, 8, 76, 81
9, 83850, Note_on_c, 8, 76, 0
9, 83850, Note_on_c, 8, 88, 0
9, 83850, Note_on_c, 8, 79, 80
9, 83880, Note_on_c, 8, 79, 0
9, 83880, Note_on_c, 8, 52, 95
9, 83910, Note_on_c, 8, 52, 0
9, 83910, Note_on_c, 8, 64, 101
9, 83910, Note_on_c, 8, 83, 90
9, 83940, Note_on_c, 8, 83, 0
9, 83940, Note_on_c, 8, 64, 0
9, 83940, Note_on_c, 8, 68, 80
9, 83940, Note_on_c, 8, 86, 95
9, 83970, Note_on_c, 8, 86, 0
9, 83970, Note_on_c, 8, 68, 0
9, 83970, Note_on_c, 8, 80, 95
9, 84000, Note_on_c, 8, 80, 0
9, 84000, Note_on_c, 8, 57, 99
9, 84030, Note_on_c, 8, 57, 0
9, 84030, Note_on_c, 8, 69, 89
9, 84030, Note_on_c, 8, 81, 95
9, 84060, Note_on_c, 8, 81, 0
9, 84060, Note_on_c, 8, 69, 0
9, 84060, Note_on_c, 8, 84, 94
9, 84060, Note_on_c, 8, 72, 110
9, 84090, Note_on_c, 8, 72, 0
9, 84090, Note_on_c, 8, 84, 0
9, 84090, Note_on_c, 8, 76, 90
9, 84120, Note_on_c, 8, 76, 0
9, 84120, Note_on_c, 8, 60, 90
9, 84150, Note_on_c, 8, 60, 0
9, 84150, Note_on_c, 8, 81, 76
9, 84150, Note_on_c, 8, 64, 90
9, 84180, Note_on_c, 8, 64, 0
9, 84180, Note_on_c, 8, 81, 0
9, 84180, Note_on_c, 8, 88, 95
9, 84180, Note_on_c, 8, 69, 81
9, 84210, Note_on_c, 8, 69, 0
9, 84210, Note_on_c, 8, 88, 0
9, 84210, Note_on_c, 8, 76, 89
9, 84240, Note_on_c, 8, 76, 0
9, 84240, Note_on_c, 8, 66, 73
9, 84240, Note_on_c, 8, 69, 73
9, 84240, Note_on_c, 8, 62, 78
9, 84270, Note_on_c, 8, 78, 84
9, 84300, Note_on_c, 8, 78, 0
9, 84300, Note_on_c, 8, 66, 0
9, 84300, Note_on_c, 8, 69, 0
9, 84300, Note_on_c, 8, 62, 0
9, 84300, Note_on_c, 8, 81, 90
9, 84330, Note_on_c, 8, 81, 0
9, 84330, Note_on_c, 8, 79, 86
9, 84360, Note_on_c, 8, 79, 0
9, 84360, Note_on_c, 8, 78, 81
9, 84390, Note_on_c, 8, 78, 0
9, 84390, Note_on_c, 8, 76, 89
9, 84420, Note_on_c, 8, 76, 0
9, 84420, Note_on_c, 8, 74, 81
9, 84450, Note_on_c, 8, 74, 0
9, 84450, Note_on_c, 8, 72, 94
9, 84480, Note_on_c, 8, 72, 0
9, 84480, Control_c, 8, 64, 98
9, 84480, Note_on_c, 8, 43, 46
9, 84480, Note_on_c, 8, 71, 39
9, 84510, Note_on_c, 8, 43, 0
9, 84510, Note_on_c, 8, 50, 37
9, 84540, Note_on_c, 8, 50, 0
9, 84540, Note_on_c, 8, 71, 0
9, 84540, Note_on_c, 8, 55, 41
9, 84540, Note_on_c, 8, 59, 38
9, 84570, Note_on_c, 8, 59, 0
9, 84570, Note_on_c, 8, 55, 0
9, 84570, Note_on_c, 8, 67, 37
9, 84600, Note_on_c, 8, 67, 0
9, 84600, Note_on_c, 8, 62, 42
9, 84630, Note_on_c, 8, 62, 0
9, 84630, Note_on_c, 8, 71, 43
9, 84660, Note_on_c, 8, 71, 0
9, 84660, Note_on_c, 8, 67, 40
9, 84690, Note_on_c, 8, 67, 0
9, 84690, Note_on_c, 8, 74, 40
9, 84720, Note_on_c, 8, 74, 0
9, 84720, Note_on_c, 8, 71, 54
9, 84750, Note_on_c, 8, 71, 0
9, 84750, Note_on_c, 8, 79, 52
9, 84780, Note_on_c, 8, 79, 0
9, 84780, Note_on_c, 8, 74, 43
9, 84810, Note_on_c, 8, 74, 0
9, 84810, Note_on_c, 8, 83, 48
9, 84840, Note_on_c, 8, 83, 0
9, 84840, Note_on_c, 8, 79, 45
9, 84870, Note_on_c, 8, 79, 0
9, 84870, Note_on_c, 8, 86, 40
9, 84900, Note_on_c, 8, 86, 0
9, 84900, Note_on_c, 8, 83, 43
9, 84930, Note_on_c, 8, 83, 0
9, 84930, Note_on_c, 8, 91, 52
9, 84955, Control_c, 8, 64, 0
9, 84960, Note_on_c, 8, 91, 0
9, 84960, Note_on_c, 8, 38, 29
9, 84970, Control_c, 8, 64, 98
9, 84990, Note_on_c, 8, 38, 0
9, 84990, Note_on_c, 8, 50, 50
9, 84990, Note_on_c, 8, 90, 33
9, 85020, Note_on_c, 8, 90, 0
9, 85020, Note_on_c, 8, 50, 0
9, 85020, Note_on_c, 8, 93, 49
9, 85020, Note_on_c, 8, 54, 35
9, 85050, Note_on_c, 8, 54, 0
9, 85050, Note_on_c, 8, 93, 0
9, 85050, Note_on_c, 8, 84, 52
9, 85080, Note_on_c, 8, 84, 0
9, 85080, Note_on_c, 8, 90, 67
9, 85110, Note_on_c, 8, 90, 0
9, 85110, Note_on_c, 8, 81, 39
9, 85140, Note_on_c, 8, 81, 0
9, 85140, Note_on_c, 8, 84, 50
9, 85170, Note_on_c, 8, 84, 0
9, 85170, Note_on_c, 8, 78, 43
9, 85200, Note_on_c, 8, 78, 0
9, 85200, Note_on_c, 8, 81, 45
9, 85230, Note_on_c, 8, 81, 0
9, 85230, Note_on_c, 8, 72, 29
9, 85260, Note_on_c, 8, 72, 0
9, 85260, Note_on_c, 8, 78, 53
9, 85290, Note_on_c, 8, 78, 0
9, 85290, Note_on_c, 8, 69, 64
9, 85320, Note_on_c, 8, 69, 0
9, 85320, Note_on_c, 8, 72, 67
9, 85350, Note_on_c, 8, 72, 0
9, 85350, Note_on_c, 8, 66, 44
9, 85380, Note_on_c, 8, 66, 0
9, 85380, Note_on_c, 8, 69, 43
9, 85410, Note_on_c, 8, 69, 0
9, 85410, Note_on_c, 8, 60, 38
9, 85440, Note_on_c, 8, 60, 0
9, 85440, Control_c, 8, 64, 98
9, 85440, Note_on_c, 8, 43, 41
9, 85470, Note_on_c, 8, 43, 0
9, 85470, Note_on_c, 8, 50, 39
9, 85500, Note_on_c, 8, 50, 0
9, 85500, Note_on_c, 8, 59, 47
9, 85500, Note_on_c, 8, 55, 40
9, 85530, Note_on_c, 8, 55, 0
9, 85530, Note_on_c, 8, 59, 0
9, 85530, Note_on_c, 8, 67, 40
9, 85560, Note_on_c, 8, 67, 0
9, 85560, Note_on_c, 8, 62, 50
9, 85590, Note_on_c, 8, 62, 0
9, 85590, Note_on_c, 8, 71, 43
9, 85620, Note_on_c, 8, 71, 0
9, 85620, Note_on_c, 8, 67, 32
9, 85650, Note_on_c, 8, 67, 0
9, 85650, Note_on_c, 8, 74, 58
9, 85680, Note_on_c, 8, 74, 0
9, 85680, Note_on_c, 8, 71, 42
9, 85710, Note_on_c, 8, 71, 0
9, 85710, Note_on_c, 8, 79, 45
9, 85740, Note_on_c, 8, 79, 0
9, 85740, Note_on_c, 8, 74, 40
9, 85770, Note_on_c, 8, 74, 0
9, 85770, Note_on_c, 8, 83, 46
9, 85800, Note_on_c, 8, 83, 0
9, 85800, Note_on_c, 8, 79, 45
9, 85830, Note_on_c, 8, 79, 0
9, 85830, Note_on_c, 8, 86, 39
9, 85860, Note_on_c, 8, 86, 0
9, 85860, Note_on_c, 8, 83, 56
9, 85890, Note_on_c, 8, 83, 0
9, 85890, Note_on_c, 8, 91, 60
9, 85910, Control_c, 8, 64, 0
9, 85920, Note_on_c, 8, 91, 0
9, 85920, Note_on_c, 8, 43, 52
9, 85930, Control_c, 8, 64, 97
9, 85950, Note_on_c, 8, 43, 0
9, 85950, Note_on_c, 8, 50, 42
9, 85980, Note_on_c, 8, 50, 0
9, 85980, Note_on_c, 8, 55, 43
9, 85980, Note_on_c, 8, 58, 43
9, 86010, Note_on_c, 8, 58, 0
9, 86010, Note_on_c, 8, 55, 0
9, 86010, Note_on_c, 8, 67, 62
9, 86040, Note_on_c, 8, 67, 0
9, 86040, Note_on_c, 8, 62, 40
9, 86070, Note_on_c, 8, 62, 0
9, 86070, Note_on_c, 8, 70, 55
9, 86100, Note_on_c, 8, 70, 0
9, 86100, Note_on_c, 8, 67, 46
9, 86130, Note_on_c, 8, 67, 0
9, 86130, Note_on_c, 8, 74, 43
9, 86160, Note_on_c, 8, 74, 0
9, 86160, Note_on_c, 8, 70, 58
9, 86190, Note_on_c, 8, 70, 0
9, 86190, Note_on_c, 8, 79, 58
9, 86220, Note_on_c, 8, 79, 0
9, 86220, Note_on_c, 8, 74, 60
9, 86250, Note_on_c, 8, 74, 0
9, 86250, Note_on_c, 8, 82, 56
9, 86280, Note_on_c, 8, 82, 0
9, 86280, Note_on_c, 8, 79, 64
9, 86310, Note_on_c, 8, 79, 0
9, 86310, Note_on_c, 8, 86, 35
9, 86340, Note_on_c, 8, 86, 0
9, 86340, Note_on_c, 8, 82, 56
9, 86370, Note_on_c, 8, 82, 0
9, 86370, Note_on_c, 8, 91, 43
9, 86395, Control_c, 8, 64, 0
9, 86400, Note_on_c, 8, 91, 0
9, 86400, Note_on_c, 8, 39, 50
9, 86410, Control_c, 8, 64, 97
9, 86430, Note_on_c, 8, 39, 0
9, 86430, Note_on_c, 8, 51, 65
9, 86460, Note_on_c, 8, 51, 0
9, 86460, Note_on_c, 8, 58, 68
9, 86460, Note_on_c, 8, 55, 53
9, 86490, Note_on_c, 8, 55, 0
9, 86490, Note_on_c, 8, 58, 0
9, 86490, Note_on_c, 8, 67, 77
9, 86520, Note_on_c, 8, 67, 0
9, 86520, Note_on_c, 8, 63, 84
9, 86550, Note_on_c, 8, 63, 0
9, 86550, Note_on_c, 8, 70, 84
9, 86580, Note_on_c, 8, 70, 0
9, 86580, Note_on_c, 8, 67, 72
9, 86610, Note_on_c, 8, 67, 0
9, 86610, Note_on_c, 8, 75, 93
9, 86640, Note_on_c, 8, 75, 0
9, 86640, Note_on_c, 8, 70, 84
9, 86670, Note_on_c, 8, 70, 0
9, 86670, Note_on_c, 8, 79, 101
9, 86700, Note_on_c, 8, 79, 0
9, 86700, Note_on_c, 8, 75, 99
9, 86730, Note_on_c, 8, 75, 0
9, 86730, Note_on_c, 8, 82, 99
9, 86760, Note_on_c, 8, 82, 0
9, 86760, Note_on_c, 8, 79, 89
9, 86800, Note_on_c, 8, 79, 0
9, 86800, Note_on_c, 8, 87, 105
9, 86840, Note_on_c, 8, 87, 0
9, 86840, Note_on_c, 8, 82, 95
9, 86880, Note_on_c, 8, 82, 0
9, 86880, Note_on_c, 8, 91, 112
9, 86880, Note_on_c, 8, 51, 80
9, 86880, Note_on_c, 8, 39, 80
9, 86880, Note_on_c, 8, 46, 89
9, 86880, Note_on_c, 8, 43, 101
9, 86920, Note_on_c, 8, 91, 0
9, 86920, Note_on_c, 8, 82, 89
9, 86940, Note_on_c, 8, 46, 0
9, 86940, Note_on_c, 8, 43, 0
9, 86940, Note_on_c, 8, 51, 0
9, 86940, Note_on_c, 8, 39, 0
9, 86960, Note_on_c, 8, 82, 0
9, 86960, Note_on_c, 8, 87, 107
9, 87000, Note_on_c, 8, 87, 0
9, 87000, Note_on_c, 8, 79, 94
9, 87040, Note_on_c, 8, 79, 0
9, 87040, Note_on_c, 8, 82, 104
9, 87080, Note_on_c, 8, 82, 0
9, 87080, Note_on_c, 8, 75, 95
9, 87120, Note_on_c, 8, 75, 0
9, 87120, Note_on_c, 8, 79, 105
9, 87160, Note_on_c, 8, 79, 0
9, 87160, Note_on_c, 8, 70, 84
9, 87200, Note_on_c, 8, 70, 0
9, 87200, Note_on_c, 8, 75, 112
9, 87240, Note_on_c, 8, 75, 0
9, 87240, Note_on_c, 8, 67, 86
9, 87280, Note_on_c, 8, 67, 0
9, 87280, Note_on_c, 8, 70, 107
9, 87320, Note_on_c, 8, 70, 0
9, 87320, Note_on_c, 8, 63, 98
9, 87360, Note_on_c, 8, 63, 0
9, 87360, Note_on_c, 8, 67, 94
9, 87400, Note_on_c, 8, 67, 0
9, 87400, Note_on_c, 8, 58, 98
9, 87440, Note_on_c, 8, 58, 0
9, 87440, Note_on_c, 8, 63, 95
9, 87480, Note_on_c, 8, 63, 0
9, 87480, Note_on_c, 8, 55, 94
9, 87520, Note_on_c, 8, 55, 0
9, 87520, Note_on_c, 8, 58, 99
9, 87560, Note_on_c, 8, 58, 0
9, 87560, Note_on_c, 8, 51, 101
9, 87600, Note_on_c, 8, 51, 0
9, 87600, Note_on_c, 8, 55, 99
9, 87640, Note_on_c, 8, 55, 0
9, 87640, Note_on_c, 8, 46, 101
9, 87680, Note_on_c, 8, 46, 0
9, 87680, Note_on_c, 8, 51, 95
9, 87720, Note_on_c, 8, 51, 0
9, 87720, Note_on_c, 8, 39, 95
9, 87760, Note_on_c, 8, 39, 0
9, 87760, Note_on_c, 8, 82, 94
9, 87760, Note_on_c, 8, 46, 80
9, 87800, Note_on_c, 8, 46, 0
9, 87800, Note_on_c, 8, 82, 0
9, 87800, Note_on_c, 8, 43, 105
9, 87800, Note_on_c, 8, 87, 107
9, 87840, Note_on_c, 8, 87, 0
9, 87840, Note_on_c, 8, 43, 0
9, 87840, Note_on_c, 8, 91, 112
9, 87840, Note_on_c, 8, 51, 76
9, 87840, Note_on_c, 8, 46, 89
9, 87840, Note_on_c, 8, 39, 72
9, 87840, Note_on_c, 8, 43, 98
9, 87880, Note_on_c, 8, 91, 0
9, 87880, Note_on_c, 8, 82, 95
9, 87900, Note_on_c, 8, 39, 0
9, 87900, Note_on_c, 8, 43, 0
9, 87900, Note_on_c, 8, 51, 0
9, 87900, Note_on_c, 8, 46, 0
9, 87920, Note_on_c, 8, 82, 0
9, 87920, Note_on_c, 8, 87, 112
9, 87960, Note_on_c, 8, 87, 0
9, 87960, Note_on_c, 8, 79, 99
9, 88000, Note_on_c, 8, 79, 0
9, 88000, Note_on_c, 8, 82, 104
9, 88040, Note_on_c, 8, 82, 0
9, 88040, Note_on_c, 8, 75, 95
9, 88080, Note_on_c, 8, 75, 0
9, 88080, Note_on_c, 8, 79, 110
9, 88120, Note_on_c, 8, 79, 0
9, 88120, Note_on_c, 8, 70, 86
9, 88160, Note_on_c, 8, 70, 0
9, 88160, Note_on_c, 8, 75, 104
9, 88200, Note_on_c, 8, 75, 0
9, 88200, Note_on_c, 8, 67, 90
9, 88240, Note_on_c, 8, 67, 0
9, 88240, Note_on_c, 8, 70, 105
9, 88280, Note_on_c, 8, 70, 0
9, 88280, Note_on_c, 8, 63, 99
9, 88320, Note_on_c, 8, 63, 0
9, 88320, Note_on_c, 8, 67, 99
9, 88360, Note_on_c, 8, 67, 0
9, 88360, Note_on_c, 8, 58, 99
9, 88400, Note_on_c, 8, 58, 0
9, 88400, Note_on_c, 8, 63, 99
9, 88440, Note_on_c, 8, 63, 0
9, 88440, Note_on_c, 8, 55, 101
9, 88480, Note_on_c, 8, 55, 0
9, 88480, Note_on_c, 8, 58, 95
9, 88520, Note_on_c, 8, 58, 0
9, 88520, Note_on_c, 8, 51, 112
9, 88560, Note_on_c, 8, 51, 0
9, 88560, Note_on_c, 8, 55, 99
9, 88600, Note_on_c, 8, 55, 0
9, 88600, Note_on_c, 8, 46, 104
9, 88640, Note_on_c, 8, 46, 0
9, 88640, Note_on_c, 8, 51, 104
9, 88680, Note_on_c, 8, 51, 0
9, 88680, Note_on_c, 8, 39, 99
9, 88720, Note_on_c, 8, 39, 0
9, 88720, Note_on_c, 8, 46, 95
9, 88720, Note_on_c, 8, 82, 84
9, 88760, Note_on_c, 8, 82, 0
9, 88760, Note_on_c, 8, 46, 0
9, 88760, Note_on_c, 8, 43, 104
9, 88760, Note_on_c, 8, 87, 110
9, 88800, Note_on_c, 8, 87, 0
9, 88800, Note_on_c, 8, 43, 0
9, 88800, Note_on_c, 8, 91, 43
9, 88800, Note_on_c, 8, 39, 59
9, 88840, Note_on_c, 8, 91, 0
9, 88840, Note_on_c, 8, 82, 50
9, 88880, Note_on_c, 8, 82, 0
9, 88880, Note_on_c, 8, 87, 56
9, 88920, Note_on_c, 8, 87, 0
9, 88920, Note_on_c, 8, 79, 61
9, 88960, Note_on_c, 8, 39, 0
9, 88960, Note_on_c, 8, 43, 42
9, 89000, Note_on_c, 8, 43, 0
9, 89000, Note_on_c, 8, 46, 43
9, 89040, Note_on_c, 8, 46, 0
9, 89040, Note_on_c, 8, 51, 61
9, 89080, Note_on_c, 8, 79, 0
9, 89080, Note_on_c, 8, 70, 46
9, 89120, Note_on_c, 8, 70, 0
9, 89120, Note_on_c, 8, 75, 71
9, 89160, Note_on_c, 8, 75, 0
9, 89160, Note_on_c, 8, 67, 44
9, 89200, Note_on_c, 8, 51, 0
9, 89200, Note_on_c, 8, 55, 42
9, 89240, Note_on_c, 8, 55, 0
9, 89240, Note_on_c, 8, 58, 58
9, 89280, Note_on_c, 8, 58, 0
9, 89280, Note_on_c, 8, 63, 45
9, 89320, Note_on_c, 8, 67, 0
9, 89320, Note_on_c, 8, 70, 64
9, 89360, Note_on_c, 8, 70, 0
9, 89360, Note_on_c, 8, 75, 50
9, 89400, Note_on_c, 8, 75, 0
9, 89400, Note_on_c, 8, 79, 47
9, 89440, Note_on_c, 8, 63, 0
9, 89440, Note_on_c, 8, 67, 45
9, 89480, Note_on_c, 8, 67, 0
9, 89480, Note_on_c, 8, 70, 71
9, 89520, Note_on_c, 8, 70, 0
9, 89520, Note_on_c, 8, 75, 76
9, 89560, Note_on_c, 8, 79, 0
9, 89560, Note_on_c, 8, 82, 68
9, 89600, Note_on_c, 8, 82, 0
9, 89600, Note_on_c, 8, 87, 45
9, 89640, Note_on_c, 8, 87, 0
9, 89640, Note_on_c, 8, 91, 44
9, 89680, Note_on_c, 8, 75, 0
9, 89680, Note_on_c, 8, 70, 71
9, 89720, Note_on_c, 8, 70, 0
9, 89720, Note_on_c, 8, 75, 61
9, 89760, Note_on_c, 8, 75, 0
9, 89760, Note_on_c, 8, 79, 62
9, 89800, Note_on_c, 8, 91, 0
9, 89800, Note_on_c, 8, 82, 54
9, 89840, Note_on_c, 8, 82, 0
9, 89840, Note_on_c, 8, 87, 72
9, 89880, Note_on_c, 8, 87, 0
9, 89880, Note_on_c, 8, 91, 53
9, 89920, Note_on_c, 8, 79, 0
9, 89920, Note_on_c, 8, 70, 68
9, 89960, Note_on_c, 8, 70, 0
9, 89960, Note_on_c, 8, 75, 52
9, 90000, Note_on_c, 8, 75, 0
9, 90000, Note_on_c, 8, 79, 38
9, 90040, Note_on_c, 8, 91, 0
9, 90040, Note_on_c, 8, 82, 43
9, 90080, Note_on_c, 8, 82, 0
9, 90080, Note_on_c, 8, 87, 74
9, 90120, Note_on_c, 8, 87, 0
9, 90120, Note_on_c, 8, 91, 73
9, 90160, Note_on_c, 8, 79, 0
9, 90160, Note_on_c, 8, 70, 36
9, 90200, Note_on_c, 8, 70, 0
9, 90200, Note_on_c, 8, 75, 45
9, 90240, Note_on_c, 8, 75, 0
9, 90240, Note_on_c, 8, 79, 43
9, 90280, Note_on_c, 8, 91, 0
9, 90280, Note_on_c, 8, 82, 53
9, 90320, Note_on_c, 8, 82, 0
9, 90320, Note_on_c, 8, 87, 55
9, 90360, Note_on_c, 8, 87, 0
9, 90360, Note_on_c, 8, 91, 59
9, 90400, Note_on_c, 8, 79, 0
9, 90400, Note_on_c, 8, 70, 38
9, 90440, Note_on_c, 8, 70, 0
9, 90440, Note_on_c, 8, 75, 35
9, 90480, Note_on_c, 8, 75, 0
9, 90480, Note_on_c, 8, 79, 29
9, 90520, Note_on_c, 8, 91, 0
9, 90520, Note_on_c, 8, 82, 46
9, 90560, Note_on_c, 8, 82, 0
9, 90560, Note_on_c, 8, 87, 45
9, 90600, Note_on_c, 8, 87, 0
9, 90600, Note_on_c, 8, 91, 40
9, 90640, Note_on_c, 8, 79, 0
9, 90640, Note_on_c, 8, 70, 29
9, 90680, Note_on_c, 8, 70, 0
9, 90680, Note_on_c, 8, 75, 33
9, 90720, Note_on_c, 8, 75, 0
9, 90720, Note_on_c, 8, 79, 29
9, 90760, Note_on_c, 8, 91, 0
9, 90760, Note_on_c, 8, 82, 29
9, 90800, Note_on_c, 8, 82, 0
9, 90800, Note_on_c, 8, 87, 29
9, 90840, Note_on_c, 8, 87, 0
9, 90840, Note_on_c, 8, 91, 40
9, 90880, Note_on_c, 8, 79, 0
9, 90880, Note_on_c, 8, 70, 31
9, 90920, Note_on_c, 8, 70, 0
9, 90920, Note_on_c, 8, 75, 31
9, 90960, Note_on_c, 8, 75, 0
9, 90960, Note_on_c, 8, 79, 32
9, 91000, Note_on_c, 8, 91, 0
9, 91000, Note_on_c, 8, 82, 29
9, 91040, Note_on_c, 8, 82, 0
9, 91040, Note_on_c, 8, 87, 29
9, 91080, Note_on_c, 8, 87, 0
9, 91080, Note_on_c, 8, 91, 40
9, 91120, Note_on_c, 8, 79, 0
9, 91120, Note_on_c, 8, 70, 32
9, 91160, Note_on_c, 8, 70, 0
9, 91160, Note_on_c, 8, 75, 37
9, 91200, Note_on_c, 8, 75, 0
9, 91200, Note_on_c, 8, 79, 38
9, 91240, Note_on_c, 8, 91, 0
9, 91240, Note_on_c, 8, 84, 40
9, 91280, Note_on_c, 8, 84, 0
9, 91280, Note_on_c, 8, 87, 32
9, 91320, Note_on_c, 8, 87, 0
9, 91320, Note_on_c, 8, 91, 50
9, 91360, Note_on_c, 8, 79, 0
9, 91360, Note_on_c, 8, 70, 29
9, 91400, Note_on_c, 8, 70, 0
9, 91400, Note_on_c, 8, 75, 60
9, 91440, Note_on_c, 8, 75, 0
9, 91440, Note_on_c, 8, 69, 43
9, 91480, Note_on_c, 8, 91, 0
9, 91480, Note_on_c, 8, 84, 37
9, 91520, Note_on_c, 8, 84, 0
9, 91520, Note_on_c, 8, 87, 30
9, 91560, Note_on_c, 8, 87, 0
9, 91560, Note_on_c, 8, 81, 40
9, 91600, Note_on_c, 8, 69, 0
9, 91600, Note_on_c, 8, 69, 43
9, 91640, Note_on_c, 8, 69, 0
9, 91640, Note_on_c, 8, 72, 29
9, 91680, Note_on_c, 8, 72, 0
9, 91680, Note_on_c, 8, 77, 40
9, 91720, Note_on_c, 8, 81, 0
9, 91720, Note_on_c, 8, 81, 39
9, 91760, Note_on_c, 8, 81, 0
9, 91760, Note_on_c, 8, 84, 46
9, 91800, Note_on_c, 8, 84, 0
9, 91800, Note_on_c, 8, 89, 43
9, 91840, Note_on_c, 8, 77, 0
9, 91840, Note_on_c, 8, 69, 43
9, 91880, Note_on_c, 8, 69, 0
9, 91880, Note_on_c, 8, 72, 72
9, 91920, Note_on_c, 8, 72, 0
9, 91920, Note_on_c, 8, 77, 36
9, 91960, Note_on_c, 8, 89, 0
9, 91960, Note_on_c, 8, 82, 44
9, 92000, Note_on_c, 8, 82, 0
9, 92000, Note_on_c, 8, 86, 29
9, 92040, Note_on_c, 8, 86, 0
9, 92040, Note_on_c, 8, 89, 46
9, 92080, Note_on_c, 8, 77, 0
9, 92080, Note_on_c, 8, 70, 43
9, 92120, Note_on_c, 8, 70, 0
9, 92120, Note_on_c, 8, 74, 29
9, 92160, Note_on_c, 8, 74, 0
9, 92160, Note_on_c, 8, 77, 40
9, 92200, Note_on_c, 8, 89, 0
9, 92200, Note_on_c, 8, 81, 50
9, 92240, Note_on_c, 8, 81, 0
9, 92240, Note_on_c, 8, 84, 43
9, 92280, Note_on_c, 8, 84, 0
9, 92280, Note_on_c, 8, 89, 44
9, 92320, Note_on_c, 8, 77, 0
9, 92320, Note_on_c, 8, 69, 29
9, 92360, Note_on_c, 8, 69, 0
9, 92360, Note_on_c, 8, 72, 29
9, 92400, Note_on_c, 8, 72, 0
9, 92400, Note_on_c, 8, 77, 45
9, 92440, Note_on_c, 8, 89, 0
9, 92440, Note_on_c, 8, 82, 37
9, 92480, Note_on_c, 8, 82, 0
9, 92480, Note_on_c, 8, 86, 33
9, 92520, Note_on_c, 8, 86, 0
9, 92520, Note_on_c, 8, 89, 49
9, 92560, Note_on_c, 8, 77, 0
9, 92560, Note_on_c, 8, 70, 43
9, 92600, Note_on_c, 8, 70, 0
9, 92600, Note_on_c, 8, 74, 35
9, 92640, Note_on_c, 8, 74, 0
9, 92640, Note_on_c, 8, 77, 35
9, 92680, Note_on_c, 8, 89, 0
9, 92680, Note_on_c, 8, 81, 35
9, 92720, Note_on_c, 8, 81, 0
9, 92720, Note_on_c, 8, 84, 30
9, 92760, Note_on_c, 8, 84, 0
9, 92760, Note_on_c, 8, 89, 43
9, 92800, Note_on_c, 8, 77, 0
9, 92800, Note_on_c, 8, 69, 43
9, 92840, Note_on_c, 8, 69, 0
9, 92840, Note_on_c, 8, 72, 29
9, 92880, Note_on_c, 8, 72, 0
9, 92880, Note_on_c, 8, 77, 43
9, 92920, Note_on_c, 8, 89, 0
9, 92920, Note_on_c, 8, 82, 31
9, 92960, Note_on_c, 8, 82, 0
9, 92960, Note_on_c, 8, 86, 29
9, 93000, Note_on_c, 8, 86, 0
9, 93000, Note_on_c, 8, 89, 35
9, 93040, Note_on_c, 8, 77, 0
9, 93040, Note_on_c, 8, 70, 42
9, 93080, Note_on_c, 8, 70, 0
9, 93080, Note_on_c, 8, 74, 44
9, 93120, Note_on_c, 8, 74, 0
9, 93120, Note_on_c, 8, 79, 38
9, 93160, Note_on_c, 8, 89, 0
9, 93160, Note_on_c, 8, 83, 37
9, 93200, Note_on_c, 8, 83, 0
9, 93200, Note_on_c, 8, 86, 39
9, 93240, Note_on_c, 8, 86, 0
9, 93240, Note_on_c, 8, 91, 35
9, 93280, Note_on_c, 8, 79, 0
9, 93280, Note_on_c, 8, 71, 33
9, 93320, Note_on_c, 8, 71, 0
9, 93320, Note_on_c, 8, 74, 39
9, 93360, Note_on_c, 8, 74, 0
9, 93360, Note_on_c, 8, 79, 43
9, 93400, Note_on_c, 8, 91, 0
9, 93400, Note_on_c, 8, 84, 42
9, 93440, Note_on_c, 8, 84, 0
9, 93440, Note_on_c, 8, 87, 40
9, 93480, Note_on_c, 8, 87, 0
9, 93480, Note_on_c, 8, 91, 38
9, 93520, Note_on_c, 8, 79, 0
9, 93520, Note_on_c, 8, 72, 29
9, 93560, Note_on_c, 8, 72, 0
9, 93560, Note_on_c, 8, 75, 29
9, 93600, Note_on_c, 8, 75, 0
9, 93600, Note_on_c, 8, 79, 29
9, 93640, Note_on_c, 8, 91, 0
9, 93640, Note_on_c, 8, 83, 33
9, 93680, Note_on_c, 8, 83, 0
9, 93680, Note_on_c, 8, 86, 38
9, 93720, Note_on_c, 8, 86, 0
9, 93720, Note_on_c, 8, 91, 33
9, 93760, Note_on_c, 8, 79, 0
9, 93760, Note_on_c, 8, 71, 45
9, 93800, Note_on_c, 8, 71, 0
9, 93800, Note_on_c, 8, 74, 30
9, 93840, Note_on_c, 8, 74, 0
9, 93840, Note_on_c, 8, 79, 40
9, 93880, Note_on_c, 8, 91, 0
9, 93880, Note_on_c, 8, 84, 29
9, 93920, Note_on_c, 8, 84, 0
9, 93920, Note_on_c, 8, 87, 29
9, 93960, Note_on_c, 8, 87, 0
9, 93960, Note_on_c, 8, 91, 30
9, 94000, Note_on_c, 8, 79, 0
9, 94000, Note_on_c, 8, 72, 29
9, 94040, Note_on_c, 8, 72, 0
9, 94040, Note_on_c, 8, 75, 44
9, 94075, Control_c, 8, 64, 0
9, 94080, Note_on_c, 8, 75, 0
9, 94080, Note_on_c, 8, 91, 0
9, 94080, Note_on_c, 8, 69, 59
9, 94080, Note_on_c, 8, 93, 62
9, 94110, Note_on_c, 8, 93, 0
9, 94110, Note_on_c, 8, 69, 0
9, 94110, Note_on_c, 8, 77, 54
9, 94110, Note_on_c, 8, 89, 43
9, 94140, Note_on_c, 8, 89, 0
9, 94140, Note_on_c, 8, 77, 0
9, 94140, Note_on_c, 8, 72, 64
9, 94140, Note_on_c, 8, 84, 59
9, 94170, Note_on_c, 8, 84, 0
9, 94170, Note_on_c, 8, 72, 0
9, 94170, Note_on_c, 8, 77, 50
9, 94170, Note_on_c, 8, 89, 67
9, 94200, Note_on_c, 8, 89, 0
9, 94200, Note_on_c, 8, 77, 0
9, 94200, Note_on_c, 8, 69, 62
9, 94200, Note_on_c, 8, 93, 76
9, 94230, Note_on_c, 8, 93, 0
9, 94230, Note_on_c, 8, 69, 0
9, 94230, Note_on_c, 8, 77, 57
9, 94230, Note_on_c, 8, 89, 65
9, 94260, Note_on_c, 8, 89, 0
9, 94260, Note_on_c, 8, 77, 0
9, 94260, Note_on_c, 8, 72, 57
9, 94260, Note_on_c, 8, 84, 65
9, 94290, Note_on_c, 8, 84, 0
9, 94290, Note_on_c, 8, 72, 0
9, 94290, Note_on_c, 8, 77, 63
9, 94290, Note_on_c, 8, 89, 81
9, 94320, Note_on_c, 8, 89, 0
9, 94320, Note_on_c, 8, 77, 0
9, 94320, Note_on_c, 8, 70, 64
9, 94320, Note_on_c, 8, 82, 38
9, 94350, Note_on_c, 8, 82, 0
9, 94350, Note_on_c, 8, 70, 0
9, 94350, Note_on_c, 8, 77, 50
9, 94350, Note_on_c, 8, 89, 73
9, 94380, Note_on_c, 8, 89, 0
9, 94380, Note_on_c, 8, 77, 0
9, 94380, Note_on_c, 8, 74, 49
9, 94380, Note_on_c, 8, 86, 45
9, 94410, Note_on_c, 8, 86, 0
9, 94410, Note_on_c, 8, 74, 0
9, 94410, Note_on_c, 8, 77, 54
9, 94410, Note_on_c, 8, 89, 84
9, 94440, Note_on_c, 8, 89, 0
9, 94440, Note_on_c, 8, 77, 0
9, 94440, Note_on_c, 8, 70, 58
9, 94440, Note_on_c, 8, 94, 65
9, 94470, Note_on_c, 8, 94, 0
9, 94470, Note_on_c, 8, 70, 0
9, 94470, Note_on_c, 8, 77, 59
9, 94470, Note_on_c, 8, 89, 76
9, 94500, Note_on_c, 8, 89, 0
9, 94500, Note_on_c, 8, 77, 0
9, 94500, Note_on_c, 8, 74, 44
9, 94500, Note_on_c, 8, 86, 41
9, 94530, Note_on_c, 8, 86, 0
9, 94530, Note_on_c, 8, 74, 0
9, 94530, Note_on_c, 8, 77, 53
9, 94530, Note_on_c, 8, 89, 51
9, 94560, Note_on_c, 8, 89, 0
9, 94560, Note_on_c, 8, 77, 0
9, 94560, Note_on_c, 8, 69, 45
9, 94560, Note_on_c, 8, 81, 54
9, 94590, Note_on_c, 8, 81, 0
9, 94590, Note_on_c, 8, 69, 0
9, 94590, Note_on_c, 8, 77, 40
9, 94590, Note_on_c, 8, 89, 53
9, 94620, Note_on_c, 8, 89, 0
9, 94620, Note_on_c, 8, 77, 0
9, 94620, Note_on_c, 8, 72, 64
9, 94620, Note_on_c, 8, 84, 61
9, 94650, Note_on_c, 8, 84, 0
9, 94650, Note_on_c, 8, 72, 0
9, 94650, Note_on_c, 8, 77, 57
9, 94650, Note_on_c, 8, 89, 58
9, 94680, Note_on_c, 8, 89, 0
9, 94680, Note_on_c, 8, 77, 0
9, 94680, Note_on_c, 8, 69, 62
9, 94680, Note_on_c, 8, 93, 42
9, 94710, Note_on_c, 8, 93, 0
9, 94710, Note_on_c, 8, 69, 0
9, 94710, Note_on_c, 8, 77, 66
9, 94710, Note_on_c, 8, 89, 78
9, 94740, Note_on_c, 8, 89, 0
9, 94740, Note_on_c, 8, 77, 0
9, 94740, Note_on_c, 8, 72, 45
9, 94740, Note_on_c, 8, 84, 53
9, 94770, Note_on_c, 8, 84, 0
9, 94770, Note_on_c, 8, 72, 0
9, 94770, Note_on_c, 8, 77, 52
9, 94770, Note_on_c, 8, 89, 64
9, 94800, Note_on_c, 8, 89, 0
9, 94800, Note_on_c, 8, 77, 0
9, 94800, Note_on_c, 8, 70, 52
9, 94800, Note_on_c, 8, 82, 46
9, 94830, Note_on_c, 8, 82, 0
9, 94830, Note_on_c, 8, 70, 0
9, 94830, Note_on_c, 8, 77, 64
9, 94830, Note_on_c, 8, 89, 76
9, 94860, Note_on_c, 8, 89, 0
9, 94860, Note_on_c, 8, 77, 0
9, 94860, Note_on_c, 8, 74, 65
9, 94860, Note_on_c, 8, 86, 58
9, 94890, Note_on_c, 8, 86, 0
9, 94890, Note_on_c, 8, 74, 0
9, 94890, Note_on_c, 8, 77, 60
9, 94890, Note_on_c, 8, 89, 76
9, 94920, Note_on_c, 8, 89, 0
9, 94920, Note_on_c, 8, 77, 0
9, 94920, Note_on_c, 8, 70, 72
9, 94920, Note_on_c, 8, 94, 68
9, 94950, Note_on_c, 8, 94, 0
9, 94950, Note_on_c, 8, 70, 0
9, 94950, Note_on_c, 8, 77, 55
9, 94950, Note_on_c, 8, 89, 84
9, 94980, Note_on_c, 8, 89, 0
9, 94980, Note_on_c, 8, 77, 0
9, 94980, Note_on_c, 8, 74, 44
9, 94980, Note_on_c, 8, 86, 40
9, 95010, Note_on_c, 8, 86, 0
9, 95010, Note_on_c, 8, 74, 0
9, 95010, Note_on_c, 8, 77, 53
9, 95010, Note_on_c, 8, 89, 81
9, 95040, Note_on_c, 8, 89, 0
9, 95040, Note_on_c, 8, 77, 0
9, 95040, Note_on_c, 8, 71, 57
9, 95040, Note_on_c, 8, 83, 71
9, 95070, Note_on_c, 8, 83, 0
9, 95070, Note_on_c, 8, 71, 0
9, 95070, Note_on_c, 8, 79, 52
9, 95070, Note_on_c, 8, 91, 71
9, 95100, Note_on_c, 8, 91, 0
9, 95100, Note_on_c, 8, 79, 0
9, 95100, Note_on_c, 8, 74, 52
9, 95100, Note_on_c, 8, 86, 58
9, 95130, Note_on_c, 8, 86, 0
9, 95130, Note_on_c, 8, 74, 0
9, 95130, Note_on_c, 8, 79, 48
9, 95130, Note_on_c, 8, 91, 57
9, 95160, Note_on_c, 8, 91, 0
9, 95160, Note_on_c, 8, 79, 0
9, 95160, Note_on_c, 8, 71, 57
9, 95160, Note_on_c, 8, 95, 69
9, 95190, Note_on_c, 8, 95, 0
9, 95190, Note_on_c, 8, 71, 0
9, 95190, Note_on_c, 8, 79, 53
9, 95190, Note_on_c, 8, 91, 80
9, 95220, Note_on_c, 8, 91, 0
9, 95220, Note_on_c, 8, 79, 0
9, 95220, Note_on_c, 8, 74, 61
9, 95220, Note_on_c, 8, 86, 53
9, 95250, Note_on_c, 8, 86, 0
9, 95250, Note_on_c, 8, 74, 0
9, 95250, Note_on_c, 8, 79, 57
9, 95250, Note_on_c, 8, 91, 55
9, 95280, Note_on_c, 8, 91, 0
9, 95280, Note_on_c, 8, 79, 0
9, 95280, Note_on_c, 8, 72, 50
9, 95280, Note_on_c, 8, 84, 58
9, 95310, Note_on_c, 8, 84, 0
9, 95310, Note_on_c, 8, 72, 0
9, 95310, Note_on_c, 8, 79, 59
9, 95310, Note_on_c, 8, 91, 62
9, 95340, Note_on_c, 8, 91, 0
9, 95340, Note_on_c, 8, 79, 0
9, 95340, Note_on_c, 8, 75, 62
9, 95340, Note_on_c, 8, 87, 72
9, 95370, Note_on_c, 8, 87, 0
9, 95370, Note_on_c, 8, 75, 0
9, 95370, Note_on_c, 8, 79, 45
9, 95370, Note_on_c, 8, 91, 65
9, 95400, Note_on_c, 8, 91, 0
9, 95400, Note_on_c, 8, 79, 0
9, 95400, Note_on_c, 8, 72, 56
9, 95400, Note_on_c, 8, 96, 55
9, 95430, Note_on_c, 8, 96, 0
9, 95430, Note_on_c, 8, 72, 0
9, 95430, Note_on_c, 8, 79, 54
9, 95430, Note_on_c, 8, 91, 60
9, 95460, Note_on_c, 8, 91, 0
9, 95460, Note_on_c, 8, 79, 0
9, 95460, Note_on_c, 8, 75, 71
9, 95460, Note_on_c, 8, 87, 54
9, 95490, Note_on_c, 8, 87, 0
9, 95490, Note_on_c, 8, 75, 0
9, 95490, Note_on_c, 8, 79, 61
9, 95490, Note_on_c, 8, 91, 76
9, 95520, Note_on_c, 8, 91, 0
9, 95520, Note_on_c, 8, 79, 0
9, 95520, Note_on_c, 8, 71, 70
9, 95520, Note_on_c, 8, 83, 72
9, 95550, Note_on_c, 8, 83, 0
9, 95550, Note_on_c, 8, 71, 0
9, 95550, Note_on_c, 8, 79, 47
9, 95550, Note_on_c, 8, 91, 62
9, 95580, Note_on_c, 8, 91, 0
9, 95580, Note_on_c, 8, 79, 0
9, 95580, Note_on_c, 8, 74, 56
9, 95580, Note_on_c, 8, 86, 62
9, 95610, Note_on_c, 8, 86, 0
9, 95610, Note_on_c, 8, 74, 0
9, 95610, Note_on_c, 8, 79, 57
9, 95610, Note_on_c, 8, 91, 45
9, 95640, Note_on_c, 8, 91, 0
9, 95640, Note_on_c, 8, 79, 0
9, 95640, Note_on_c, 8, 83, 69
9, 95640, Note_on_c, 8, 95, 69
9, 95670, Note_on_c, 8, 95, 0
9, 95670, Note_on_c, 8, 83, 0
9, 95670, Note_on_c, 8, 79, 45
9, 95670, Note_on_c, 8, 91, 71
9, 95700, Note_on_c, 8, 91, 0
9, 95700, Note_on_c, 8, 79, 0
9, 95700, Note_on_c, 8, 74, 62
9, 95700, Note_on_c, 8, 86, 70
9, 95730, Note_on_c, 8, 86, 0
9, 95730, Note_on_c, 8, 74, 0
9, 95730, Note_on_c, 8, 79, 58
9, 95730, Note_on_c, 8, 91, 74
9, 95760, Note_on_c, 8, 91, 0
9, 95760, Note_on_c, 8, 79, 0
9, 95760, Note_on_c, 8, 72, 56
9, 95760, Note_on_c, 8, 84, 67
9, 95790, Note_on_c, 8, 84, 0
9, 95790, Note_on_c, 8, 72, 0
9, 95790, Note_on_c, 8, 79, 71
9, 95790, Note_on_c, 8, 91, 84
9, 95820, Note_on_c, 8, 91, 0
9, 95820, Note_on_c, 8, 79, 0
9, 95820, Note_on_c, 8, 75, 81
9, 95820, Note_on_c, 8, 87, 93
9, 95850, Note_on_c, 8, 87, 0
9, 95850, Note_on_c, 8, 75, 0
9, 95850, Note_on_c, 8, 79, 76
9, 95850, Note_on_c, 8, 91, 104
9, 95880, Note_on_c, 8, 91, 0
9, 95880, Note_on_c, 8, 79, 0
9, 95880, Note_on_c, 8, 72, 80
9, 95880, Note_on_c, 8, 96, 93
9, 95910, Note_on_c, 8, 72, 0
9, 95910, Note_on_c, 8, 75, 95
9, 95940, Note_on_c, 8, 75, 0
9, 95940, Note_on_c, 8, 96, 0
9, 95940, Note_on_c, 8, 72, 99
9, 95940, Note_on_c, 8, 96, 110
9, 95970, Note_on_c, 8, 72, 0
9, 95970, Note_on_c, 8, 75, 104
9, 96000, Note_on_c, 8, 75, 0
9, 96000, Note_on_c, 8, 96, 0
9, 96000, Note_on_c, 8, 72, 112
9, 96000, Note_on_c, 8, 96, 115
9, 96060, Note_on_c, 8, 96, 0
9, 96060, Note_on_c, 8, 72, 0
9, 98645, Control_c, 8, 64, 98
9, 98700, Note_on_c, 8, 77, 86
9, 98700, Note_on_c, 8, 65, 98
9, 98760, Note_on_c, 8, 65, 0
9, 98760, Note_on_c, 8, 77, 0
9, 98760, Note_on_c, 8, 83, 93
9, 98760, Note_on_c, 8, 71, 98
9, 98820, Note_on_c, 8, 71, 0
9, 98820, Note_on_c, 8, 83, 0
9, 98820, Note_on_c, 8, 74, 99
9, 98820, Note_on_c, 8, 86, 101
9, 98880, Note_on_c, 8, 86, 0
9, 98880, Note_on_c, 8, 74, 0
9, 98880, Note_on_c, 8, 77, 119
9, 98880, Note_on_c, 8, 89, 123
9, 99000, Note_on_c, 8, 89, 0
9, 99000, Note_on_c, 8, 77, 0
9, 99000, Note_on_c, 8, 86, 99
9, 99000, Note_on_c, 8, 74, 101
9, 99060, Note_on_c, 8, 74, 0
9, 99060, Note_on_c, 8, 86, 0
9, 99060, Note_on_c, 8, 83, 89
9, 99060, Note_on_c, 8, 71, 98
9, 99120, Note_on_c, 8, 71, 0
9, 99120, Note_on_c, 8, 83, 0
9, 99120, Note_on_c, 8, 65, 123
9, 99120, Note_on_c, 8, 77, 119
9, 99240, Note_on_c, 8, 77, 0
9, 99240, Note_on_c, 8, 65, 0
9, 99240, Note_on_c, 8, 62, 95
9, 99240, Note_on_c, 8, 74, 99
9, 99300, Note_on_c, 8, 74, 0
9, 99300, Note_on_c, 8, 62, 0
9, 99300, Note_on_c, 8, 59, 99
9, 99300, Note_on_c, 8, 71, 99
9, 99360, Note_on_c, 8, 71, 0
9, 99360, Note_on_c, 8, 59, 0
9, 99360, Note_on_c, 8, 53, 117
9, 99360, Note_on_c, 8, 65, 119
9, 99480, Note_on_c, 8, 65, 0
9, 99480, Note_on_c, 8, 53, 0
9, 99480, Note_on_c, 8, 50, 104
9, 99480, Note_on_c, 8, 62, 98
9, 99540, Note_on_c, 8, 62, 0
9, 99540, Note_on_c, 8, 50, 0
9, 99540, Note_on_c, 8, 47, 101
9, 99540, Note_on_c, 8, 59, 99
9, 99600, Note_on_c, 8, 59, 0
9, 99600, Note_on_c, 8, 47, 0
9, 99600, Note_on_c, 8, 41, 119
9, 99600, Note_on_c, 8, 53, 119
9, 99720, Note_on_c, 8, 53, 0
9, 99720, Note_on_c, 8, 41, 0
9, 99720, Note_on_c, 8, 59, 93
9, 99720, Note_on_c, 8, 47, 101
9, 99780, Note_on_c, 8, 47, 0
9, 99780, Note_on_c, 8, 59, 0
9, 99780, Note_on_c, 8, 62, 98
9, 99780, Note_on_c, 8, 50, 99
9, 99840, Note_on_c, 8, 50, 0
9, 99840, Note_on_c, 8, 62, 0
9, 99840, Note_on_c, 8, 53, 94
9, 99840, Note_on_c, 8, 65, 101
9, 99960, Note_on_c, 8, 65, 0
9, 99960, Note_on_c, 8, 53, 0
9, 99960, Note_on_c, 8, 59, 94
9, 99960, Note_on_c, 8, 71, 84
9, 100020, Note_on_c, 8, 71, 0
9, 100020, Note_on_c, 8, 59, 0
9, 100020, Note_on_c, 8, 74, 86
9, 100020, Note_on_c, 8, 62, 81
9, 100080, Note_on_c, 8, 62, 0
9, 100080, Note_on_c, 8, 74, 0
9, 100080, Note_on_c, 8, 77, 84
9, 100080, Note_on_c, 8, 65, 73
9, 100200, Note_on_c, 8, 65, 0
9, 100200, Note_on_c, 8, 77, 0
9, 100200, Note_on_c, 8, 71, 73
9, 100200, Note_on_c, 8, 83, 72
9, 100260, Note_on_c, 8, 83, 0
9, 100260, Note_on_c, 8, 71, 0
9, 100260, Note_on_c, 8, 86, 81
9, 100260, Note_on_c, 8, 74, 68
9, 100320, Note_on_c, 8, 74, 0
9, 100320, Note_on_c, 8, 86, 0
9, 100320, Note_on_c, 8, 89, 94
9, 100320, Note_on_c, 8, 77, 84
9, 100440, Note_on_c, 8, 77, 0
9, 100440, Note_on_c, 8, 89, 0
9, 100440, Note_on_c, 8, 83, 69
9, 100440, Note_on_c, 8, 71, 71
9, 100500, Note_on_c, 8, 71, 0
9, 100500, Note_on_c, 8, 83, 0
9, 100500, Note_on_c, 8, 86, 62
9, 100500, Note_on_c, 8, 74, 77
9, 100560, Note_on_c, 8, 74, 0
9, 100560, Note_on_c, 8, 86, 0
9, 100560, Note_on_c, 8, 89, 68
9, 100560, Note_on_c, 8, 77, 58
9, 100680, Note_on_c, 8, 77, 0
9, 100680, Note_on_c, 8, 89, 0
9, 100680, Note_on_c, 8, 83, 68
9, 100680, Note_on_c, 8, 71, 49
9, 100740, Note_on_c, 8, 71, 0
9, 100740, Note_on_c, 8, 83, 0
9, 100740, Note_on_c, 8, 74, 63
9, 100740, Note_on_c, 8, 86, 45
9, 100800, Note_on_c, 8, 86, 0
9, 100800, Note_on_c, 8, 74, 0
9, 100800, Note_on_c, 8, 77, 48
9, 100800, Note_on_c, 8, 89, 64
9, 100920, Note_on_c, 8, 89, 0
9, 100920, Note_on_c, 8, 77, 0
9, 100920, Note_on_c, 8, 71, 62
9, 100920, Note_on_c, 8, 83, 46
9, 100980, Note_on_c, 8, 83, 0
9, 100980, Note_on_c, 8, 71, 0
9, 100980, Note_on_c, 8, 74, 49
9, 100980, Note_on_c, 8, 86, 58
9, 101040, Note_on_c, 8, 86, 0
9, 101040, Note_on_c, 8, 74, 0
9, 101040, Note_on_c, 8, 89, 48
9, 101040, Note_on_c, 8, 77, 42
9, 101160, Note_on_c, 8, 77, 0
9, 101160, Note_on_c, 8, 89, 0
9, 101160, Note_on_c, 8, 83, 45
9, 101160, Note_on_c, 8, 71, 40
9, 101220, Note_on_c, 8, 71, 0
9, 101220, Note_on_c, 8, 83, 0
9, 101220, Note_on_c, 8, 74, 43
9, 101220, Note_on_c, 8, 86, 42
9, 101280, Note_on_c, 8, 86, 0
9, 101280, Note_on_c, 8, 74, 0
9, 101280, Note_on_c, 8, 89, 40
9, 101280, Note_on_c, 8, 77, 39
9, 101400, Note_on_c, 8, 77, 0
9, 101400, Note_on_c, 8, 89, 0
9, 101400, Note_on_c, 8, 83, 40
9, 101400, Note_on_c, 8, 71, 35
9, 101460, Note_on_c, 8, 71, 0
9, 101460, Note_on_c, 8, 83, 0
9, 101460, Note_on_c, 8, 74, 43
9, 101460, Note_on_c, 8, 86, 40
9, 101520, Note_on_c, 8, 86, 0
9, 101520, Note_on_c, 8, 74, 0
9, 101520, Note_on_c, 8, 77, 37
9, 101520, Note_on_c, 8, 89, 40
9, 101640, Note_on_c, 8, 89, 0
9, 101640, Note_on_c, 8, 77, 0
9, 101640, Note_on_c, 8, 71, 36
9, 101640, Note_on_c, 8, 83, 38
9, 101700, Note_on_c, 8, 83, 0
9, 101700, Note_on_c, 8, 71, 0
9, 101700, Note_on_c, 8, 74, 29
9, 101700, Note_on_c, 8, 86, 29
9, 101760, Note_on_c, 8, 86, 0
9, 101760, Note_on_c, 8, 74, 0
9, 101760, Note_on_c, 8, 79, 38
9, 101760, Note_on_c, 8, 91, 42
9, 101880, Note_on_c, 8, 91, 0
9, 101880, Note_on_c, 8, 79, 0
9, 101880, Note_on_c, 8, 77, 40
9, 101880, Note_on_c, 8, 89, 40
9, 101940, Note_on_c, 8, 89, 0
9, 101940, Note_on_c, 8, 77, 0
9, 101940, Note_on_c, 8, 74, 39
9, 101940, Note_on_c, 8, 86, 40
9, 101995, Control_c, 8, 64, 0
9, 102000, Note_on_c, 8, 86, 0
9, 102000, Note_on_c, 8, 74, 0
9, 102000, Note_on_c, 8, 91, 40
9, 102040, Note_on_c, 8, 91, 0
9, 102040, Note_on_c, 8, 89, 47
9, 102080, Note_on_c, 8, 89, 0
9, 102080, Note_on_c, 8, 86, 62
9, 102120, Note_on_c, 8, 86, 0
9, 102120, Note_on_c, 8, 91, 63
9, 102160, Note_on_c, 8, 91, 0
9, 102160, Note_on_c, 8, 89, 43
9, 102200, Note_on_c, 8, 89, 0
9, 102200, Note_on_c, 8, 86, 61
9, 102240, Note_on_c, 8, 86, 0
9, 102240, Note_on_c, 8, 91, 77
9, 102280, Note_on_c, 8, 91, 0
9, 102280, Note_on_c, 8, 89, 68
9, 102320, Note_on_c, 8, 89, 0
9, 102320, Note_on_c, 8, 86, 70
9, 102360, Note_on_c, 8, 86, 0
9, 102360, Note_on_c, 8, 91, 80
9, 102400, Note_on_c, 8, 91, 0
9, 102400, Note_on_c, 8, 89, 64
9, 102440, Note_on_c, 8, 89, 0
9, 102440, Note_on_c, 8, 86, 77
9, 102480, Note_on_c, 8, 86, 0
9, 102480, Note_on_c, 8, 91, 81
9, 102520, Note_on_c, 8, 91, 0
9, 102520, Note_on_c, 8, 89, 66
9, 102560, Note_on_c, 8, 89, 0
9, 102560, Note_on_c, 8, 86, 74
9, 102600, Note_on_c, 8, 86, 0
9, 102600, Note_on_c, 8, 91, 81
9, 102640, Note_on_c, 8, 91, 0
9, 102640, Note_on_c, 8, 89, 72
9, 102680, Note_on_c, 8, 89, 0
9, 102680, Note_on_c, 8, 86, 73
9, 102720, Note_on_c, 8, 86, 0
9, 102720, Note_on_c, 8, 91, 86
9, 102760, Note_on_c, 8, 91, 0
9, 102760, Note_on_c, 8, 89, 78
9, 102800, Note_on_c, 8, 89, 0
9, 102800, Note_on_c, 8, 86, 74
9, 102840, Note_on_c, 8, 86, 0
9, 102840, Note_on_c, 8, 91, 84
9, 102880, Note_on_c, 8, 91, 0
9, 102880, Note_on_c, 8, 89, 81
9, 102920, Note_on_c, 8, 89, 0
9, 102920, Note_on_c, 8, 86, 85
9, 102960, Note_on_c, 8, 86, 0
9, 102960, Note_on_c, 8, 91, 84
9, 102987, Note_on_c, 8, 91, 0
9, 102987, Note_on_c, 8, 89, 61
9, 103014, Note_on_c, 8, 89, 0
9, 103014, Note_on_c, 8, 88, 71
9, 103041, Note_on_c, 8, 88, 0
9, 103041, Note_on_c, 8, 86, 67
9, 103068, Note_on_c, 8, 86, 0
9, 103068, Note_on_c, 8, 84, 61
9, 103095, Note_on_c, 8, 84, 0
9, 103095, Note_on_c, 8, 83, 61
9, 103122, Note_on_c, 8, 83, 0
9, 103122, Note_on_c, 8, 81, 58
9, 103149, Note_on_c, 8, 81, 0
9, 103149, Note_on_c, 8, 79, 58
9, 103176, Note_on_c, 8, 79, 0
9, 103176, Note_on_c, 8, 77, 43
9, 103203, Note_on_c, 8, 77, 0
9, 103203, Note_on_c, 8, 76, 62
9, 103230, Note_on_c, 8, 76, 0
9, 103230, Note_on_c, 8, 74, 51
9, 103257, Note_on_c, 8, 74, 0
9, 103257, Note_on_c, 8, 72, 29
9, 103284, Note_on_c, 8, 72, 0
9, 103284, Note_on_c, 8, 71, 52
9, 103311, Note_on_c, 8, 71, 0
9, 103311, Note_on_c, 8, 69, 68
9, 103338, Note_on_c, 8, 69, 0
9, 103338, Note_on_c, 8, 67, 46
9, 103365, Note_on_c, 8, 67, 0
9, 103365, Note_on_c, 8, 68, 67
9, 103392, Note_on_c, 8, 68, 0
9, 103392, Note_on_c, 8, 69, 59
9, 103419, Note_on_c, 8, 69, 0
9, 103419, Note_on_c, 8, 70, 61
9, 103446, Note_on_c, 8, 70, 0
9, 103446, Note_on_c, 8, 71, 56
9, 103473, Note_on_c, 8, 71, 0
9, 103473, Note_on_c, 8, 72, 42
9, 103500, Note_on_c, 8, 72, 0
9, 103500, Note_on_c, 8, 73, 71
9, 103527, Note_on_c, 8, 73, 0
9, 103527, Note_on_c, 8, 74, 76
9, 103554, Note_on_c, 8, 74, 0
9, 103554, Note_on_c, 8, 75, 73
9, 103581, Note_on_c, 8, 75, 0
9, 103581, Note_on_c, 8, 76, 62
9, 103608, Note_on_c, 8, 76, 0
9, 103608, Note_on_c, 8, 77, 61
9, 103635, Note_on_c, 8, 77, 0
9, 103635, Note_on_c, 8, 78, 44
9, 103662, Note_on_c, 8, 78, 0
9, 103662, Note_on_c, 8, 79, 64
9, 103689, Note_on_c, 8, 79, 0
9, 103689, Note_on_c, 8, 80, 64
9, 103716, Note_on_c, 8, 80, 0
9, 103716, Note_on_c, 8, 81, 65
9, 103743, Note_on_c, 8, 81, 0
9, 103743, Note_on_c, 8, 82, 67
9, 103770, Note_on_c, 8, 82, 0
9, 103770, Note_on_c, 8, 83, 72
9, 103797, Note_on_c, 8, 83, 0
9, 103797, Note_on_c, 8, 84, 72
9, 103824, Note_on_c, 8, 84, 0
9, 103824, Note_on_c, 8, 85, 69
9, 103851, Note_on_c, 8, 85, 0
9, 103851, Note_on_c, 8, 86, 45
9, 103878, Note_on_c, 8, 86, 0
9, 103878, Note_on_c, 8, 87, 64
9, 103905, Note_on_c, 8, 87, 0
9, 103920, Note_on_c, 8, 88, 69
9, 103950, Note_on_c, 8, 60, 46
9, 103980, Note_on_c, 8, 60, 0
9, 103980, Note_on_c, 8, 88, 0
9, 103980, Note_on_c, 8, 76, 61
9, 104010, Note_on_c, 8, 76, 0
9, 104100, Note_on_c, 8, 88, 77
9, 104130, Note_on_c, 8, 88, 0
9, 104130, Note_on_c, 8, 76, 71
9, 104160, Note_on_c, 8, 76, 0
9, 104160, Note_on_c, 8, 88, 76
9, 104190, Note_on_c, 8, 60, 52
9, 104220, Note_on_c, 8, 60, 0
9, 104220, Note_on_c, 8, 76, 69
9, 104250, Note_on_c, 8, 76, 0
9, 104280, Note_on_c, 8, 88, 0
9, 104340, Note_on_c, 8, 88, 74
9, 104370, Note_on_c, 8, 88, 0
9, 104370, Note_on_c, 8, 76, 62
9, 104400, Note_on_c, 8, 76, 0
9, 104400, Note_on_c, 8, 88, 63
9, 104400, Note_on_c, 8, 60, 54
9, 104430, Note_on_c, 8, 60, 0
9, 104430, Note_on_c, 8, 76, 61
9, 104460, Note_on_c, 8, 76, 0
9, 104460, Note_on_c, 8, 88, 0
9, 104460, Note_on_c, 8, 88, 64
9, 104490, Note_on_c, 8, 88, 0
9, 104490, Note_on_c, 8, 76, 57
9, 104520, Note_on_c, 8, 76, 0
9, 104520, Note_on_c, 8, 88, 67
9, 104520, Note_on_c, 8, 60, 65
9, 104550, Note_on_c, 8, 60, 0
9, 104550, Note_on_c, 8, 76, 61
9, 104580, Note_on_c, 8, 76, 0
9, 104580, Note_on_c, 8, 88, 0
9, 104580, Note_on_c, 8, 88, 63
9, 104610, Note_on_c, 8, 88, 0
9, 104610, Note_on_c, 8, 76, 60
9, 104640, Note_on_c, 8, 76, 0
9, 104640, Note_on_c, 8, 88, 65
9, 104640, Note_on_c, 8, 60, 65
9, 104670, Note_on_c, 8, 60, 0
9, 104670, Note_on_c, 8, 76, 65
9, 104700, Note_on_c, 8, 76, 0
9, 104700, Note_on_c, 8, 88, 0
9, 104820, Note_on_c, 8, 88, 53
9, 104850, Note_on_c, 8, 88, 0
9, 104850, Note_on_c, 8, 76, 64
9, 104880, Note_on_c, 8, 76, 0
9, 104880, Note_on_c, 8, 88, 77
9, 104880, Note_on_c, 8, 60, 45
9, 104910, Note_on_c, 8, 60, 0
9, 104910, Note_on_c, 8, 76, 61
9, 104940, Note_on_c, 8, 76, 0
9, 104940, Note_on_c, 8, 88, 0
9, 104940, Note_on_c, 8, 84, 43
9, 104970, Note_on_c, 8, 84, 0
9, 104970, Note_on_c, 8, 72, 29
9, 105000, Note_on_c, 8, 72, 0
9, 105000, Note_on_c, 8, 84, 56
9, 105000, Note_on_c, 8, 57, 64
9, 105030, Note_on_c, 8, 57, 0
9, 105030, Note_on_c, 8, 72, 73
9, 105060, Note_on_c, 8, 72, 0
9, 105060, Note_on_c, 8, 84, 0
9, 105060, Note_on_c, 8, 81, 46
9, 105090, Note_on_c, 8, 81, 0
9, 105090, Note_on_c, 8, 69, 65
9, 105120, Note_on_c, 8, 69, 0
9, 105120, Note_on_c, 8, 81, 43
9, 105120, Note_on_c, 8, 54, 73
9, 105150, Note_on_c, 8, 54, 0
9, 105150, Note_on_c, 8, 69, 64
9, 105180, Note_on_c, 8, 69, 0
9, 105180, Note_on_c, 8, 81, 0
9, 105300, Note_on_c, 8, 81, 69
9, 105330, Note_on_c, 8, 81, 0
9, 105330, Note_on_c, 8, 69, 59
9, 105360, Note_on_c, 8, 69, 0
9, 105360, Note_on_c, 8, 81, 64
9, 105360, Note_on_c, 8, 54, 60
9, 105390, Note_on_c, 8, 54, 0
9, 105390, Note_on_c, 8, 69, 53
9, 105420, Note_on_c, 8, 69, 0
9, 105420, Note_on_c, 8, 81, 0
9, 105420, Note_on_c, 8, 86, 71
9, 105450, Note_on_c, 8, 86, 0
9, 105450, Note_on_c, 8, 74, 67
9, 105480, Note_on_c, 8, 74, 0
9, 105480, Note_on_c, 8, 86, 35
9, 105480, Note_on_c, 8, 50, 64
9, 105510, Note_on_c, 8, 50, 0
9, 105510, Note_on_c, 8, 66, 52
9, 105540, Note_on_c, 8, 66, 0
9, 105540, Note_on_c, 8, 86, 0
9, 105540, Note_on_c, 8, 83, 50
9, 105570, Note_on_c, 8, 83, 0
9, 105570, Note_on_c, 8, 71, 68
9, 105600, Note_on_c, 8, 71, 0
9, 105600, Note_on_c, 8, 83, 64
9, 105600, Note_on_c, 8, 55, 67
9, 105630, Note_on_c, 8, 55, 0
9, 105630, Note_on_c, 8, 71, 66
9, 105660, Note_on_c, 8, 71, 0
9, 105660, Note_on_c, 8, 83, 0
9, 105660, Note_on_c, 8, 79, 53
9, 105690, Note_on_c, 8, 79, 0
9, 105690, Note_on_c, 8, 67, 52
9, 105720, Note_on_c, 8, 67, 0
9, 105720, Note_on_c, 8, 79, 62
9, 105720, Note_on_c, 8, 52, 68
9, 105750, Note_on_c, 8, 52, 0
9, 105750, Note_on_c, 8, 67, 43
9, 105780, Note_on_c, 8, 67, 0
9, 105780, Note_on_c, 8, 79, 0
9, 105780, Note_on_c, 8, 81, 45
9, 105810, Note_on_c, 8, 81, 0
9, 105810, Note_on_c, 8, 69, 69
9, 105840, Note_on_c, 8, 69, 0
9, 105840, Note_on_c, 8, 81, 60
9, 105840, Note_on_c, 8, 48, 58
9, 105870, Note_on_c, 8, 48, 0
9, 105870, Note_on_c, 8, 64, 71
9, 105900, Note_on_c, 8, 64, 0
9, 105900, Note_on_c, 8, 81, 0
9, 105900, Note_on_c, 8, 74, 62
9, 105930, Note_on_c, 8, 74, 0
9, 105930, Note_on_c, 8, 62, 58
9, 105960, Note_on_c, 8, 62, 0
9, 105960, Note_on_c, 8, 74, 65
9, 105960, Note_on_c, 8, 50, 64
9, 105990, Note_on_c, 8, 50, 0
9, 105990, Note_on_c, 8, 66, 65
9, 106020, Note_on_c, 8, 66, 0
9, 106020, Note_on_c, 8, 74, 0
9, 106020, Note_on_c, 8, 71, 64
9, 106050, Note_on_c, 8, 71, 0
9, 106050, Note_on_c, 8, 59, 53
9, 106080, Note_on_c, 8, 59, 0
9, 106080, Note_on_c, 8, 71, 66
9, 106080, Note_on_c, 8, 43, 67
9, 106110, Note_on_c, 8, 43, 0
9, 106110, Note_on_c, 8, 59, 52
9, 106140, Note_on_c, 8, 59, 0
9, 106200, Note_on_c, 8, 71, 0
9, 109440, Note_on_c, 8, 59, 89
9, 109470, Note_on_c, 8, 59, 0
9, 109470, Note_on_c, 8, 62, 74
9, 109500, Note_on_c, 8, 62, 0
9, 109500, Note_on_c, 8, 64, 86
9, 109500, Note_on_c, 8, 86, 119
9, 109530, Note_on_c, 8, 64, 0
9, 109530, Note_on_c, 8, 66, 90
9, 109560, Note_on_c, 8, 66, 0
9, 109560, Note_on_c, 8, 67, 76
9, 109590, Note_on_c, 8, 67, 0
9, 109590, Note_on_c, 8, 66, 89
9, 109620, Note_on_c, 8, 66, 0
9, 109620, Note_on_c, 8, 86, 0
9, 109620, Note_on_c, 8, 67, 74
9, 109620, Note_on_c, 8, 74, 101
9, 109650, Note_on_c, 8, 74, 0
9, 109650, Note_on_c, 8, 67, 0
9, 109650, Note_on_c, 8, 68, 90
9, 109680, Note_on_c, 8, 68, 0
9, 109680, Note_on_c, 8, 69, 84
9, 109680, Note_on_c, 8, 84, 86
9, 109710, Note_on_c, 8, 84, 0
9, 109710, Note_on_c, 8, 69, 0
9, 109710, Note_on_c, 8, 62, 84
9, 109740, Note_on_c, 8, 62, 0
9, 109740, Note_on_c, 8, 64, 93
9, 109740, Note_on_c, 8, 72, 123
9, 109770, Note_on_c, 8, 72, 0
9, 109770, Note_on_c, 8, 64, 0
9, 109770, Note_on_c, 8, 66, 89
9, 109800, Note_on_c, 8, 66, 0
9, 109800, Note_on_c, 8, 67, 85
9, 109800, Note_on_c, 8, 83, 94
9, 109830, Note_on_c, 8, 83, 0
9, 109830, Note_on_c, 8, 67, 0
9, 109830, Note_on_c, 8, 66, 86
9, 109860, Note_on_c, 8, 66, 0
9, 109860, Note_on_c, 8, 64, 86
9, 109860, Note_on_c, 8, 71, 86
9, 109890, Note_on_c, 8, 71, 0
9, 109890, Note_on_c, 8, 64, 0
9, 109890, Note_on_c, 8, 62, 86
9, 109920, Note_on_c, 8, 62, 0
9, 109920, Note_on_c, 8, 60, 93
9, 109920, Note_on_c, 8, 81, 86
9, 109950, Note_on_c, 8, 81, 0
9, 109950, Note_on_c, 8, 60, 0
9, 109950, Note_on_c, 8, 59, 89
9, 109980, Note_on_c, 8, 59, 0
9, 109980, Note_on_c, 8, 60, 81
9, 109980, Note_on_c, 8, 69, 99
9, 110010, Note_on_c, 8, 69, 0
9, 110010, Note_on_c, 8, 60, 0
9, 110010, Note_on_c, 8, 62, 82
9, 110040, Note_on_c, 8, 62, 0
9, 110040, Note_on_c, 8, 59, 99
9, 110040, Note_on_c, 8, 79, 89
9, 110070, Note_on_c, 8, 79, 0
9, 110070, Note_on_c, 8, 59, 0
9, 110070, Note_on_c, 8, 55, 81
9, 110100, Note_on_c, 8, 55, 0
9, 110100, Note_on_c, 8, 57, 93
9, 110100, Note_on_c, 8, 67, 93
9, 110130, Note_on_c, 8, 67, 0
9, 110130, Note_on_c, 8, 57, 0
9, 110130, Note_on_c, 8, 59, 93
9, 110160, Note_on_c, 8, 59, 0
9, 110160, Note_on_c, 8, 60, 90
9, 110160, Note_on_c, 8, 81, 94
9, 110190, Note_on_c, 8, 81, 0
9, 110190, Note_on_c, 8, 60, 0
9, 110190, Note_on_c, 8, 57, 95
9, 110220, Note_on_c, 8, 57, 0
9, 110220, Note_on_c, 8, 59, 89
9, 110220, Note_on_c, 8, 69, 99
9, 110250, Note_on_c, 8, 69, 0
9, 110250, Note_on_c, 8, 59, 0
9, 110250, Note_on_c, 8, 60, 89
9, 110280, Note_on_c, 8, 60, 0
9, 110280, Note_on_c, 8, 62, 89
9, 110280, Note_on_c, 8, 78, 89
9, 110310, Note_on_c, 8, 78, 0
9, 110310, Note_on_c, 8, 62, 0
9, 110310, Note_on_c, 8, 61, 81
9, 110340, Note_on_c, 8, 61, 0
9, 110340, Note_on_c, 8, 62, 89
9, 110340, Note_on_c, 8, 66, 90
9, 110370, Note_on_c, 8, 66, 0
9, 110370, Note_on_c, 8, 62, 0
9, 110370, Note_on_c, 8, 50, 99
9, 110400, Note_on_c, 8, 50, 0
9, 110400, Note_on_c, 8, 55, 105
9, 110400, Note_on_c, 8, 79, 62
9, 110430, Note_on_c, 8, 79, 0
9, 110430, Note_on_c, 8, 55, 0
9, 110430, Note_on_c, 8, 55, 101
9, 110430, Note_on_c, 8, 67, 81
9, 110460, Note_on_c, 8, 67, 0
9, 110460, Note_on_c, 8, 55, 0
9, 110460, Note_on_c, 8, 59, 104
9, 110460, Note_on_c, 8, 71, 101
9, 110490, Note_on_c, 8, 71, 0
9, 110490, Note_on_c, 8, 59, 0
9, 110490, Note_on_c, 8, 62, 95
9, 110490, Note_on_c, 8, 74, 107
9, 110520, Note_on_c, 8, 74, 0
9, 110520, Note_on_c, 8, 62, 0
9, 110520, Note_on_c, 8, 67, 95
9, 110520, Note_on_c, 8, 79, 95
9, 110550, Note_on_c, 8, 79, 0
9, 110550, Note_on_c, 8, 67, 0
9, 110550, Note_on_c, 8, 71, 99
9, 110550, Note_on_c, 8, 83, 99
9, 110580, Note_on_c, 8, 83, 0
9, 110580, Note_on_c, 8, 71, 0
9, 110580, Note_on_c, 8, 74, 101
9, 110580, Note_on_c, 8, 86, 104
9, 110610, Note_on_c, 8, 86, 0
9, 110610, Note_on_c, 8, 74, 0
9, 110610, Note_on_c, 8, 71, 99
9, 110610, Note_on_c, 8, 83, 98
9, 110640, Note_on_c, 8, 83, 0
9, 110640, Note_on_c, 8, 71, 0
9, 110640, Note_on_c, 8, 72, 127
9, 110640, Note_on_c, 8, 84, 125
9, 110670, Note_on_c, 8, 84, 0
9, 110670, Note_on_c, 8, 72, 0
9, 110670, Note_on_c, 8, 76, 99
9, 110670, Note_on_c, 8, 88, 101
9, 110700, Note_on_c, 8, 88, 0
9, 110700, Note_on_c, 8, 76, 0
9, 110700, Note_on_c, 8, 69, 99
9, 110700, Note_on_c, 8, 81, 104
9, 110730, Note_on_c, 8, 81, 0
9, 110730, Note_on_c, 8, 69, 0
9, 110730, Note_on_c, 8, 72, 119
9, 110730, Note_on_c, 8, 84, 93
9, 110760, Note_on_c, 8, 84, 0
9, 110760, Note_on_c, 8, 72, 0
9, 110760, Note_on_c, 8, 66, 95
9, 110760, Note_on_c, 8, 78, 86
9, 110790, Note_on_c, 8, 78, 0
9, 110790, Note_on_c, 8, 66, 0
9, 110790, Note_on_c, 8, 69, 94
9, 110790, Note_on_c, 8, 81, 94
9, 110820, Note_on_c, 8, 81, 0
9, 110820, Note_on_c, 8, 69, 0
9, 110820, Note_on_c, 8, 62, 98
9, 110820, Note_on_c, 8, 74, 94
9, 110850, Note_on_c, 8, 74, 0
9, 110850, Note_on_c, 8, 62, 0
9, 110850, Note_on_c, 8, 66, 94
9, 110850, Note_on_c, 8, 78, 85
9, 110880, Note_on_c, 8, 78, 0
9, 110880, Note_on_c, 8, 66, 0
9, 110880, Note_on_c, 8, 67, 89
9, 110880, Note_on_c, 8, 79, 101
9, 110910, Note_on_c, 8, 79, 0
9, 110910, Note_on_c, 8, 67, 0
9, 110910, Note_on_c, 8, 71, 99
9, 110910, Note_on_c, 8, 83, 95
9, 110940, Note_on_c, 8, 83, 0
9, 110940, Note_on_c, 8, 71, 0
9, 110940, Note_on_c, 8, 62, 95
9, 110940, Note_on_c, 8, 74, 89
9, 110970, Note_on_c, 8, 74, 0
9, 110970, Note_on_c, 8, 62, 0
9, 110970, Note_on_c, 8, 67, 84
9, 110970, Note_on_c, 8, 79, 94
9, 111000, Note_on_c, 8, 79, 0
9, 111000, Note_on_c, 8, 67, 0
9, 111000, Note_on_c, 8, 59, 98
9, 111000, Note_on_c, 8, 71, 90
9, 111030, Note_on_c, 8, 71, 0
9, 111030, Note_on_c, 8, 59, 0
9, 111030, Note_on_c, 8, 62, 95
9, 111030, Note_on_c, 8, 74, 105
9, 111060, Note_on_c, 8, 74, 0
9, 111060, Note_on_c, 8, 62, 0
9, 111060, Note_on_c, 8, 55, 99
9, 111060, Note_on_c, 8, 67, 76
9, 111090, Note_on_c, 8, 67, 0
9, 111090, Note_on_c, 8, 55, 0
9, 111090, Note_on_c, 8, 59, 95
9, 111090, Note_on_c, 8, 71, 101
9, 111120, Note_on_c, 8, 71, 0
9, 111120, Note_on_c, 8, 59, 0
9, 111120, Note_on_c, 8, 60, 58
9, 111120, Note_on_c, 8, 72, 89
9, 111150, Note_on_c, 8, 72, 0
9, 111150, Note_on_c, 8, 60, 0
9, 111150, Note_on_c, 8, 64, 71
9, 111150, Note_on_c, 8, 76, 78
9, 111180, Note_on_c, 8, 76, 0
9, 111180, Note_on_c, 8, 64, 0
9, 111180, Note_on_c, 8, 57, 50
9, 111180, Note_on_c, 8, 69, 67
9, 111210, Note_on_c, 8, 69, 0
9, 111210, Note_on_c, 8, 57, 0
9, 111210, Note_on_c, 8, 60, 43
9, 111210, Note_on_c, 8, 72, 29
9, 111240, Note_on_c, 8, 72, 0
9, 111240, Note_on_c, 8, 60, 0
9, 111240, Note_on_c, 8, 54, 62
9, 111240, Note_on_c, 8, 66, 64
9, 111270, Note_on_c, 8, 66, 0
9, 111270, Note_on_c, 8, 54, 0
9, 111270, Note_on_c, 8, 57, 61
9, 111270, Note_on_c, 8, 69, 65
9, 111300, Note_on_c, 8, 69, 0
9, 111300, Note_on_c, 8, 57, 0
9, 111300, Note_on_c, 8, 50, 80
9, 111300, Note_on_c, 8, 62, 67
9, 111330, Note_on_c, 8, 62, 0
9, 111330, Note_on_c, 8, 50, 0
9, 111330, Note_on_c, 8, 54, 73
9, 111330, Note_on_c, 8, 66, 72
9, 111360, Note_on_c, 8, 66, 0
9, 111360, Note_on_c, 8, 54, 0
9, 111360, Note_on_c, 8, 55, 95
9, 111360, Note_on_c, 8, 67, 89
9, 111390, Note_on_c, 8, 67, 0
9, 111390, Note_on_c, 8, 55, 0
9, 111390, Note_on_c, 8, 43, 99
9, 111390, Note_on_c, 8, 55, 99
9, 111420, Note_on_c, 8, 55, 0
9, 111420, Note_on_c, 8, 43, 0
9, 111420, Note_on_c, 8, 47, 104
9, 111420, Note_on_c, 8, 59, 104
9, 111450, Note_on_c, 8, 59, 0
9, 111450, Note_on_c, 8, 47, 0
9, 111450, Note_on_c, 8, 50, 110
9, 111450, Note_on_c, 8, 62, 89
9, 111480, Note_on_c, 8, 62, 0
9, 111480, Note_on_c, 8, 50, 0
9, 111480, Note_on_c, 8, 55, 101
9, 111480, Note_on_c, 8, 67, 99
9, 111510, Note_on_c, 8, 67, 0
9, 111510, Note_on_c, 8, 55, 0
9, 111510, Note_on_c, 8, 59, 101
9, 111510, Note_on_c, 8, 71, 101
9, 111540, Note_on_c, 8, 71, 0
9, 111540, Note_on_c, 8, 59, 0
9, 111540, Note_on_c, 8, 62, 94
9, 111540, Note_on_c, 8, 74, 104
9, 111570, Note_on_c, 8, 74, 0
9, 111570, Note_on_c, 8, 62, 0
9, 111570, Note_on_c, 8, 59, 101
9, 111570, Note_on_c, 8, 71, 99
9, 111600, Note_on_c, 8, 71, 0
9, 111600, Note_on_c, 8, 59, 0
9, 111600, Note_on_c, 8, 60, 125
9, 111600, Note_on_c, 8, 72, 127
9, 111630, Note_on_c, 8, 72, 0
9, 111630, Note_on_c, 8, 60, 0
9, 111630, Note_on_c, 8, 64, 99
9, 111630, Note_on_c, 8, 76, 104
9, 111660, Note_on_c, 8, 76, 0
9, 111660, Note_on_c, 8, 64, 0
9, 111660, Note_on_c, 8, 57, 98
9, 111660, Note_on_c, 8, 69, 89
9, 111690, Note_on_c, 8, 69, 0
9, 111690, Note_on_c, 8, 57, 0
9, 111690, Note_on_c, 8, 60, 95
9, 111690, Note_on_c, 8, 72, 125
9, 111720, Note_on_c, 8, 72, 0
9, 111720, Note_on_c, 8, 60, 0
9, 111720, Note_on_c, 8, 54, 94
9, 111720, Note_on_c, 8, 66, 71
9, 111750, Note_on_c, 8, 66, 0
9, 111750, Note_on_c, 8, 54, 0
9, 111750, Note_on_c, 8, 57, 89
9, 111750, Note_on_c, 8, 69, 98
9, 111780, Note_on_c, 8, 69, 0
9, 111780, Note_on_c, 8, 57, 0
9, 111780, Note_on_c, 8, 48, 99
9, 111780, Note_on_c, 8, 60, 82
9, 111810, Note_on_c, 8, 60, 0
9, 111810, Note_on_c, 8, 48, 0
9, 111810, Note_on_c, 8, 54, 94
9, 111810, Note_on_c, 8, 66, 93
9, 111840, Note_on_c, 8, 66, 0
9, 111840, Note_on_c, 8, 54, 0
9, 111840, Note_on_c, 8, 45, 98
9, 111840, Note_on_c, 8, 57, 99
9, 111870, Note_on_c, 8, 57, 0
9, 111870, Note_on_c, 8, 45, 0
9, 111870, Note_on_c, 8, 48, 99
9, 111870, Note_on_c, 8, 60, 90
9, 111900, Note_on_c, 8, 60, 0
9, 111900, Note_on_c, 8, 48, 0
9, 111900, Note_on_c, 8, 54, 85
9, 111900, Note_on_c, 8, 66, 94
9, 111930, Note_on_c, 8, 66, 0
9, 111930, Note_on_c, 8, 54, 0
9, 111930, Note_on_c, 8, 48, 104
9, 111930, Note_on_c, 8, 60, 89
9, 111960, Note_on_c, 8, 60, 0
9, 111960, Note_on_c, 8, 48, 0
9, 111960, Note_on_c, 8, 57, 104
9, 111960, Note_on_c, 8, 69, 95
9, 111990, Note_on_c, 8, 69, 0
9, 111990, Note_on_c, 8, 57, 0
9, 111990, Note_on_c, 8, 54, 94
9, 111990, Note_on_c, 8, 66, 89
9, 112020, Note_on_c, 8, 66, 0
9, 112020, Note_on_c, 8, 54, 0
9, 112020, Note_on_c, 8, 60, 89
9, 112020, Note_on_c, 8, 72, 123
9, 112050, Note_on_c, 8, 72, 0
9, 112050, Note_on_c, 8, 60, 0
9, 112050, Note_on_c, 8, 57, 105
9, 112050, Note_on_c, 8, 69, 99
9, 112080, Note_on_c, 8, 69, 0
9, 112080, Note_on_c, 8, 57, 0
9, 112080, Note_on_c, 8, 66, 86
9, 112080, Note_on_c, 8, 78, 86
9, 112120, Note_on_c, 8, 78, 0
9, 112120, Note_on_c, 8, 66, 0
9, 112120, Note_on_c, 8, 60, 93
9, 112120, Note_on_c, 8, 72, 105
9, 112160, Note_on_c, 8, 72, 0
9, 112160, Note_on_c, 8, 60, 0
9, 112160, Note_on_c, 8, 81, 85
9, 112160, Note_on_c, 8, 69, 76
9, 112200, Note_on_c, 8, 69, 0
9, 112200, Note_on_c, 8, 81, 0
9, 112200, Note_on_c, 8, 78, 81
9, 112200, Note_on_c, 8, 66, 85
9, 112240, Note_on_c, 8, 66, 0
9, 112240, Note_on_c, 8, 78, 0
9, 112240, Note_on_c, 8, 84, 93
9, 112240, Note_on_c, 8, 72, 112
9, 112280, Note_on_c, 8, 72, 0
9, 112280, Note_on_c, 8, 84, 0
9, 112280, Note_on_c, 8, 81, 90
9, 112280, Note_on_c, 8, 69, 86
9, 112320, Note_on_c, 8, 69, 0
9, 112320, Note_on_c, 8, 81, 0
9, 112320, Note_on_c, 8, 66, 84
9, 112320, Note_on_c, 8, 78, 74
9, 112360, Note_on_c, 8, 78, 0
9, 112360, Note_on_c, 8, 66, 0
9, 112360, Note_on_c, 8, 84, 85
9, 112360, Note_on_c, 8, 72, 104
9, 112400, Note_on_c, 8, 72, 0
9, 112400, Note_on_c, 8, 84, 0
9, 112400, Note_on_c, 8, 69, 89
9, 112400, Note_on_c, 8, 81, 89
9, 112440, Note_on_c, 8, 81, 0
9, 112440, Note_on_c, 8, 69, 0
9, 112440, Note_on_c, 8, 66, 73
9, 112440, Note_on_c, 8, 78, 61
9, 112480, Note_on_c, 8, 78, 0
9, 112480, Note_on_c, 8, 66, 0
9, 112480, Note_on_c, 8, 84, 84
9, 112480, Note_on_c, 8, 72, 89
9, 112520, Note_on_c, 8, 72, 0
9, 112520, Note_on_c, 8, 84, 0
9, 112520, Note_on_c, 8, 69, 81
9, 112520, Note_on_c, 8, 81, 84
9, 112560, Note_on_c, 8, 81, 0
9, 112560, Note_on_c, 8, 69, 0
9, 112560, Note_on_c, 8, 66, 80
9, 112560, Note_on_c, 8, 78, 61
9, 112600, Note_on_c, 8, 78, 0
9, 112600, Note_on_c, 8, 66, 0
9, 112600, Note_on_c, 8, 84, 86
9, 112600, Note_on_c, 8, 72, 64
9, 112640, Note_on_c, 8, 72, 0
9, 112640, Note_on_c, 8, 84, 0
9, 112640, Note_on_c, 8, 69, 76
9, 112640, Note_on_c, 8, 81, 77
9, 112680, Note_on_c, 8, 81, 0
9, 112680, Note_on_c, 8, 69, 0
9, 112680, Note_on_c, 8, 66, 72
9, 112680, Note_on_c, 8, 78, 60
9, 112720, Note_on_c, 8, 78, 0
9, 112720, Note_on_c, 8, 66, 0
9, 112720, Note_on_c, 8, 73, 62
9, 112720, Note_on_c, 8, 85, 82
9, 112760, Note_on_c, 8, 85, 0
9, 112760, Note_on_c, 8, 73, 0
9, 112760, Note_on_c, 8, 81, 64
9, 112760, Note_on_c, 8, 69, 70
9, 112800, Note_on_c, 8, 69, 0
9, 112800, Note_on_c, 8, 81, 0
9, 112800, Note_on_c, 8, 66, 72
9, 112800, Note_on_c, 8, 78, 64
9, 112840, Note_on_c, 8, 78, 0
9, 112840, Note_on_c, 8, 66, 0
9, 112840, Note_on_c, 8, 73, 44
9, 112840, Note_on_c, 8, 85, 72
9, 112880, Note_on_c, 8, 85, 0
9, 112880, Note_on_c, 8, 73, 0
9, 112880, Note_on_c, 8, 69, 73
9, 112880, Note_on_c, 8, 81, 65
9, 112920, Note_on_c, 8, 81, 0
9, 112920, Note_on_c, 8, 69, 0
9, 112920, Note_on_c, 8, 66, 58
9, 112920, Note_on_c, 8, 78, 52
9, 112960, Note_on_c, 8, 78, 0
9, 112960, Note_on_c, 8, 66, 0
9, 112960, Note_on_c, 8, 73, 59
9, 112960, Note_on_c, 8, 85, 84
9, 113000, Note_on_c, 8, 85, 0
9, 113000, Note_on_c, 8, 73, 0
9, 113000, Note_on_c, 8, 82, 69
9, 113000, Note_on_c, 8, 70, 68
9, 113040, Note_on_c, 8, 70, 0
9, 113040, Note_on_c, 8, 82, 0
9, 113040, Note_on_c, 8, 78, 54
9, 113040, Note_on_c, 8, 66, 65
9, 113080, Note_on_c, 8, 66, 0
9, 113080, Note_on_c, 8, 78, 0
9, 113080, Note_on_c, 8, 73, 62
9, 113080, Note_on_c, 8, 85, 70
9, 113120, Note_on_c, 8, 85, 0
9, 113120, Note_on_c, 8, 73, 0
9, 113120, Note_on_c, 8, 82, 57
9, 113120, Note_on_c, 8, 70, 62
9, 113160, Note_on_c, 8, 70, 0
9, 113160, Note_on_c, 8, 82, 0
9, 113160, Note_on_c, 8, 78, 47
9, 113160, Note_on_c, 8, 66, 61
9, 113200, Note_on_c, 8, 66, 0
9, 113200, Note_on_c, 8, 78, 0
9, 113200, Note_on_c, 8, 73, 46
9, 113200, Note_on_c, 8, 85, 72
9, 113240, Note_on_c, 8, 85, 0
9, 113240, Note_on_c, 8, 73, 0
9, 113240, Note_on_c, 8, 70, 68
9, 113240, Note_on_c, 8, 82, 61
9, 113280, Note_on_c, 8, 82, 0
9, 113280, Note_on_c, 8, 70, 0
9, 113280, Note_on_c, 8, 66, 57
9, 113280, Note_on_c, 8, 78, 45
9, 113320, Note_on_c, 8, 78, 0
9, 113320, Note_on_c, 8, 66, 0
9, 113320, Note_on_c, 8, 73, 53
9, 113320, Note_on_c, 8, 85, 68
9, 113360, Note_on_c, 8, 85, 0
9, 113360, Note_on_c, 8, 73, 0
9, 113360, Note_on_c, 8, 70, 76
9, 113360, Note_on_c, 8, 82, 64
9, 113400, Note_on_c, 8, 82, 0
9, 113400, Note_on_c, 8, 70, 0
9, 113400, Note_on_c, 8, 78, 52
9, 113400, Note_on_c, 8, 66, 64
9, 113440, Note_on_c, 8, 66, 0
9, 113440, Note_on_c, 8, 78, 0
9, 113440, Note_on_c, 8, 73, 57
9, 113440, Note_on_c, 8, 85, 73
9, 113480, Note_on_c, 8, 85, 0
9, 113480, Note_on_c, 8, 73, 0
9, 113480, Note_on_c, 8, 70, 72
9, 113480, Note_on_c, 8, 82, 65
9, 113520, Note_on_c, 8, 82, 0
9, 113520, Note_on_c, 8, 70, 0
9, 113520, Note_on_c, 8, 78, 44
9, 113520, Note_on_c, 8, 66, 36
9, 113560, Note_on_c, 8, 66, 0
9, 113560, Note_on_c, 8, 78, 0
9, 113560, Note_on_c, 8, 73, 50
9, 113560, Note_on_c, 8, 85, 72
9, 113600, Note_on_c, 8, 85, 0
9, 113600, Note_on_c, 8, 73, 0
9, 113600, Note_on_c, 8, 70, 68
9, 113600, Note_on_c, 8, 82, 53
9, 113640, Note_on_c, 8, 82, 0
9, 113640, Note_on_c, 8, 70, 0
9, 113640, Note_on_c, 8, 66, 66
9, 113640, Note_on_c, 8, 78, 52
9, 113680, Note_on_c, 8, 78, 0
9, 113680, Note_on_c, 8, 66, 0
9, 113680, Note_on_c, 8, 85, 70
9, 113680, Note_on_c, 8, 73, 57
9, 113720, Note_on_c, 8, 73, 0
9, 113720, Note_on_c, 8, 85, 0
9, 113720, Note_on_c, 8, 82, 68
9, 113720, Note_on_c, 8, 70, 77
9, 113760, Note_on_c, 8, 70, 0
9, 113760, Note_on_c, 8, 82, 0
9, 113760, Note_on_c, 8, 78, 35
9, 113760, Note_on_c, 8, 66, 29
9, 113800, Note_on_c, 8, 66, 0
9, 113800, Note_on_c, 8, 78, 0
9, 113800, Note_on_c, 8, 85, 43
9, 113800, Note_on_c, 8, 73, 29
9, 113840, Note_on_c, 8, 73, 0
9, 113840, Note_on_c, 8, 85, 0
9, 113840, Note_on_c, 8, 70, 43
9, 113840, Note_on_c, 8, 82, 39
9, 113880, Note_on_c, 8, 82, 0
9, 113880, Note_on_c, 8, 70, 0
9, 113880, Note_on_c, 8, 78, 43
9, 113880, Note_on_c, 8, 66, 40
9, 113920, Note_on_c, 8, 66, 0
9, 113920, Note_on_c, 8, 78, 0
9, 113920, Note_on_c, 8, 85, 60
9, 113920, Note_on_c, 8, 73, 35
9, 113960, Note_on_c, 8, 73, 0
9, 113960, Note_on_c, 8, 85, 0
9, 113960, Note_on_c, 8, 70, 45
9, 113960, Note_on_c, 8, 82, 44
9, 114000, Note_on_c, 8, 82, 0
9, 114000, Note_on_c, 8, 70, 0
9, 114000, Note_on_c, 8, 78, 38
9, 114000, Note_on_c, 8, 66, 40
9, 114040, Note_on_c, 8, 66, 0
9, 114040, Note_on_c, 8, 78, 0
9, 114040, Note_on_c, 8, 85, 38
9, 114040, Note_on_c, 8, 73, 29
9, 114080, Note_on_c, 8, 73, 0
9, 114080, Note_on_c, 8, 85, 0
9, 114080, Note_on_c, 8, 70, 49
9, 114080, Note_on_c, 8, 82, 32
9, 114120, Note_on_c, 8, 82, 0
9, 114120, Note_on_c, 8, 70, 0
9, 114120, Note_on_c, 8, 78, 34
9, 114120, Note_on_c, 8, 66, 29
9, 114160, Note_on_c, 8, 66, 0
9, 114160, Note_on_c, 8, 78, 0
9, 114160, Note_on_c, 8, 73, 43
9, 114160, Note_on_c, 8, 85, 43
9, 114200, Note_on_c, 8, 85, 0
9, 114200, Note_on_c, 8, 73, 0
9, 114200, Note_on_c, 8, 70, 43
9, 114200, Note_on_c, 8, 82, 41
9, 114240, Note_on_c, 8, 82, 0
9, 114240, Note_on_c, 8, 70, 0
9, 114240, Control_c, 8, 64, 97
9, 114240, Note_on_c, 8, 30, 53
9, 114240, Note_on_c, 8, 85, 56
9, 114300, Note_on_c, 8, 30, 0
9, 114300, Note_on_c, 8, 61, 43
9, 114360, Note_on_c, 8, 61, 0
9, 114360, Note_on_c, 8, 58, 41
9, 114420, Note_on_c, 8, 58, 0
9, 114420, Note_on_c, 8, 61, 43
9, 114480, Note_on_c, 8, 61, 0
9, 114480, Note_on_c, 8, 58, 58
9, 114540, Note_on_c, 8, 58, 0
9, 114540, Note_on_c, 8, 61, 58
9, 114600, Note_on_c, 8, 61, 0
9, 114600, Note_on_c, 8, 85, 0
9, 114600, Note_on_c, 8, 58, 58
9, 114600, Note_on_c, 8, 83, 52
9, 114660, Note_on_c, 8, 83, 0
9, 114660, Note_on_c, 8, 58, 0
9, 114660, Note_on_c, 8, 61, 43
9, 114660, Note_on_c, 8, 82, 68
9, 114720, Note_on_c, 8, 82, 0
9, 114720, Note_on_c, 8, 61, 0
9, 114720, Note_on_c, 8, 59, 53
9, 114720, Note_on_c, 8, 80, 68
9, 114735, Note_on_c, 8, 80, 0
9, 114735, Note_on_c, 8, 82, 71
9, 114750, Note_on_c, 8, 82, 0
9, 114750, Note_on_c, 8, 83, 69
9, 114765, Note_on_c, 8, 83, 0
9, 114765, Note_on_c, 8, 82, 52
9, 114780, Note_on_c, 8, 59, 0
9, 114780, Note_on_c, 8, 61, 42
9, 114840, Note_on_c, 8, 61, 0
9, 114840, Note_on_c, 8, 82, 0
9, 114840, Note_on_c, 8, 59, 53
9, 114840, Note_on_c, 8, 80, 65
9, 114900, Note_on_c, 8, 59, 0
9, 114900, Note_on_c, 8, 61, 54
9, 114960, Note_on_c, 8, 61, 0
9, 114960, Note_on_c, 8, 59, 45
9, 115020, Note_on_c, 8, 59, 0
9, 115020, Note_on_c, 8, 80, 0
9, 115020, Note_on_c, 8, 61, 52
9, 115020, Note_on_c, 8, 73, 45
9, 115080, Note_on_c, 8, 73, 0
9, 115080, Note_on_c, 8, 61, 0
9, 115080, Note_on_c, 8, 59, 67
9, 115080, Note_on_c, 8, 75, 56
9, 115140, Note_on_c, 8, 75, 0
9, 115140, Note_on_c, 8, 59, 0
9, 115140, Note_on_c, 8, 61, 50
9, 115140, Note_on_c, 8, 77, 53
9, 115195, Control_c, 8, 64, 0
9, 115200, Note_on_c, 8, 77, 0
9, 115200, Note_on_c, 8, 61, 0
9, 115200, Note_on_c, 8, 66, 43
9, 115200, Note_on_c, 8, 54, 48
9, 115200, Note_on_c, 8, 78, 53
9, 115260, Note_on_c, 8, 78, 0
9, 115260, Note_on_c, 8, 54, 0
9, 115260, Note_on_c, 8, 66, 0
9, 115950, Note_on_c, 8, 79, 57
9, 115980, Note_on_c, 8, 79, 0
9, 115980, Note_on_c, 8, 81, 42
9, 116010, Note_on_c, 8, 81, 0
9, 116010, Note_on_c, 8, 83, 57
9, 116040, Note_on_c, 8, 83, 0
9, 116040, Note_on_c, 8, 84, 55
9, 116070, Note_on_c, 8, 84, 0
9, 116070, Note_on_c, 8, 86, 44
9, 116100, Note_on_c, 8, 86, 0
9, 116100, Note_on_c, 8, 88, 46
9, 116130, Note_on_c, 8, 88, 0
9, 116130, Note_on_c, 8, 89, 68
9, 116160, Note_on_c, 8, 89, 0
9, 116160, Control_c, 8, 64, 99
9, 116160, Note_on_c, 8, 91, 48
9, 116160, Note_on_c, 8, 36, 52
9, 116220, Note_on_c, 8, 36, 0
9, 116220, Note_on_c, 8, 67, 40
9, 116280, Note_on_c, 8, 67, 0
9, 116280, Note_on_c, 8, 64, 45
9, 116340, Note_on_c, 8, 64, 0
9, 116340, Note_on_c, 8, 67, 44
9, 116400, Note_on_c, 8, 67, 0
9, 116400, Note_on_c, 8, 64, 43
9, 116460, Note_on_c, 8, 64, 0
9, 116460, Note_on_c, 8, 91, 0
9, 116460, Note_on_c, 8, 93, 53
9, 116460, Note_on_c, 8, 67, 43
9, 116490, Note_on_c, 8, 93, 0
9, 116490, Note_on_c, 8, 91, 61
9, 116520, Note_on_c, 8, 91, 0
9, 116520, Note_on_c, 8, 67, 0
9, 116520, Note_on_c, 8, 89, 64
9, 116520, Note_on_c, 8, 64, 44
9, 116580, Note_on_c, 8, 64, 0
9, 116580, Note_on_c, 8, 89, 0
9, 116580, Note_on_c, 8, 88, 53
9, 116580, Note_on_c, 8, 67, 43
9, 116640, Note_on_c, 8, 67, 0
9, 116640, Note_on_c, 8, 88, 0
9, 116640, Note_on_c, 8, 88, 44
9, 116640, Note_on_c, 8, 65, 42
9, 116700, Note_on_c, 8, 65, 0
9, 116700, Note_on_c, 8, 67, 43
9, 116760, Note_on_c, 8, 67, 0
9, 116760, Note_on_c, 8, 88, 0
9, 116760, Note_on_c, 8, 86, 54
9, 116760, Note_on_c, 8, 65, 47
9, 116820, Note_on_c, 8, 65, 0
9, 116820, Note_on_c, 8, 67, 43
9, 116880, Note_on_c, 8, 67, 0
9, 116880, Note_on_c, 8, 65, 45
9, 116940, Note_on_c, 8, 65, 0
9, 116940, Note_on_c, 8, 86, 0
9, 116940, Note_on_c, 8, 79, 45
9, 116940, Note_on_c, 8, 67, 40
9, 117000, Note_on_c, 8, 67, 0
9, 117000, Note_on_c, 8, 79, 0
9, 117000, Note_on_c, 8, 81, 35
9, 117000, Note_on_c, 8, 65, 61
9, 117060, Note_on_c, 8, 65, 0
9, 117060, Note_on_c, 8, 81, 0
9, 117060, Note_on_c, 8, 83, 56
9, 117060, Note_on_c, 8, 67, 38
9, 117115, Control_c, 8, 64, 0
9, 117120, Note_on_c, 8, 67, 0
9, 117120, Note_on_c, 8, 83, 0
9, 117120, Note_on_c, 8, 84, 56
9, 117120, Note_on_c, 8, 64, 56
9, 117180, Note_on_c, 8, 64, 0
9, 117180, Note_on_c, 8, 84, 0
9, 117870, Note_on_c, 8, 74, 50
9, 117870, Note_on_c, 8, 62, 44
9, 117900, Note_on_c, 8, 62, 0
9, 117900, Note_on_c, 8, 74, 0
9, 117900, Note_on_c, 8, 64, 51
9, 117900, Note_on_c, 8, 76, 46
9, 117930, Note_on_c, 8, 76, 0
9, 117930, Note_on_c, 8, 64, 0
9, 117930, Note_on_c, 8, 66, 53
9, 117930, Note_on_c, 8, 78, 40
9, 117960, Note_on_c, 8, 78, 0
9, 117960, Note_on_c, 8, 66, 0
9, 117960, Note_on_c, 8, 67, 43
9, 117960, Note_on_c, 8, 79, 43
9, 117990, Note_on_c, 8, 79, 0
9, 117990, Note_on_c, 8, 67, 0
9, 117990, Note_on_c, 8, 69, 46
9, 117990, Note_on_c, 8, 81, 43
9, 118020, Note_on_c, 8, 81, 0
9, 118020, Note_on_c, 8, 69, 0
9, 118020, Note_on_c, 8, 83, 46
9, 118020, Note_on_c, 8, 71, 53
9, 118050, Note_on_c, 8, 71, 0
9, 118050, Note_on_c, 8, 83, 0
9, 118050, Note_on_c, 8, 84, 43
9, 118050, Note_on_c, 8, 72, 29
9, 118080, Note_on_c, 8, 72, 0
9, 118080, Note_on_c, 8, 84, 0
9, 118080, Note_on_c, 8, 74, 43
9, 118080, Note_on_c, 8, 86, 46
9, 118200, Note_on_c, 8, 86, 0
9, 118200, Note_on_c, 8, 74, 0
9, 118350, Note_on_c, 8, 50, 43
9, 118350, Note_on_c, 8, 62, 44
9, 118380, Note_on_c, 8, 62, 0
9, 118380, Note_on_c, 8, 50, 0
9, 118380, Note_on_c, 8, 52, 58
9, 118380, Note_on_c, 8, 64, 35
9, 118410, Note_on_c, 8, 64, 0
9, 118410, Note_on_c, 8, 52, 0
9, 118410, Note_on_c, 8, 66, 57
9, 118410, Note_on_c, 8, 54, 33
9, 118440, Note_on_c, 8, 54, 0
9, 118440, Note_on_c, 8, 66, 0
9, 118440, Note_on_c, 8, 55, 56
9, 118440, Note_on_c, 8, 67, 43
9, 118470, Note_on_c, 8, 67, 0
9, 118470, Note_on_c, 8, 55, 0
9, 118470, Note_on_c, 8, 69, 45
9, 118470, Note_on_c, 8, 57, 53
9, 118500, Note_on_c, 8, 57, 0
9, 118500, Note_on_c, 8, 69, 0
9, 118500, Note_on_c, 8, 71, 45
9, 118500, Note_on_c, 8, 59, 43
9, 118530, Note_on_c, 8, 59, 0
9, 118530, Note_on_c, 8, 71, 0
9, 118530, Note_on_c, 8, 60, 45
9, 118530, Note_on_c, 8, 72, 48
9, 118560, Note_on_c, 8, 72, 0
9, 118560, Note_on_c, 8, 60, 0
9, 118560, Note_on_c, 8, 62, 40
9, 118560, Note_on_c, 8, 74, 49
9, 118620, Note_on_c, 8, 74, 0
9, 118620, Note_on_c, 8, 62, 0
9, 118830, Note_on_c, 8, 74, 62
9, 118830, Note_on_c, 8, 62, 40
9, 118860, Note_on_c, 8, 62, 0
9, 118860, Note_on_c, 8, 74, 0
9, 118860, Note_on_c, 8, 76, 51
9, 118860, Note_on_c, 8, 64, 44
9, 118890, Note_on_c, 8, 64, 0
9, 118890, Note_on_c, 8, 76, 0
9, 118890, Note_on_c, 8, 66, 64
9, 118890, Note_on_c, 8, 78, 43
9, 118920, Note_on_c, 8, 78, 0
9, 118920, Note_on_c, 8, 66, 0
9, 118920, Note_on_c, 8, 67, 40
9, 118920, Note_on_c, 8, 79, 58
9, 118950, Note_on_c, 8, 79, 0
9, 118950, Note_on_c, 8, 67, 0
9, 118950, Note_on_c, 8, 81, 41
9, 118950, Note_on_c, 8, 69, 38
9, 118980, Note_on_c, 8, 69, 0
9, 118980, Note_on_c, 8, 81, 0
9, 118980, Note_on_c, 8, 83, 58
9, 118980, Note_on_c, 8, 71, 53
9, 119010, Note_on_c, 8, 71, 0
9, 119010, Note_on_c, 8, 83, 0
9, 119010, Note_on_c, 8, 84, 53
9, 119010, Note_on_c, 8, 72, 31
9, 119040, Note_on_c, 8, 72, 0
9, 119040, Note_on_c, 8, 84, 0
9, 119040, Note_on_c, 8, 74, 43
9, 119040, Note_on_c, 8, 86, 46
9, 119160, Note_on_c, 8, 86, 0
9, 119160, Note_on_c, 8, 74, 0
9, 119310, Note_on_c, 8, 50, 39
9, 119310, Note_on_c, 8, 62, 30
9, 119340, Note_on_c, 8, 62, 0
9, 119340, Note_on_c, 8, 50, 0
9, 119340, Note_on_c, 8, 64, 44
9, 119340, Note_on_c, 8, 52, 60
9, 119370, Note_on_c, 8, 52, 0
9, 119370, Note_on_c, 8, 64, 0
9, 119370, Note_on_c, 8, 66, 45
9, 119370, Note_on_c, 8, 54, 43
9, 119400, Note_on_c, 8, 54, 0
9, 119400, Note_on_c, 8, 66, 0
9, 119400, Note_on_c, 8, 55, 39
9, 119400, Note_on_c, 8, 67, 43
9, 119430, Note_on_c, 8, 67, 0
9, 119430, Note_on_c, 8, 55, 0
9, 119430, Note_on_c, 8, 69, 49
9, 119430, Note_on_c, 8, 57, 54
9, 119460, Note_on_c, 8, 57, 0
9, 119460, Note_on_c, 8, 69, 0
9, 119460, Note_on_c, 8, 71, 44
9, 119460, Note_on_c, 8, 59, 50
9, 119490, Note_on_c, 8, 59, 0
9, 119490, Note_on_c, 8, 71, 0
9, 119490, Note_on_c, 8, 60, 43
9, 119490, Note_on_c, 8, 72, 40
9, 119520, Note_on_c, 8, 72, 0
9, 119520, Note_on_c, 8, 60, 0
9, 119520, Note_on_c, 8, 74, 44
9, 119520, Note_on_c, 8, 62, 43
9, 119580, Note_on_c, 8, 62, 0
9, 119580, Note_on_c, 8, 74, 0
9, 119790, Note_on_c, 8, 62, 45
9, 119790, Note_on_c, 8, 74, 68
9, 119820, Note_on_c, 8, 74, 0
9, 119820, Note_on_c, 8, 62, 0
9, 119820, Note_on_c, 8, 64, 62
9, 119820, Note_on_c, 8, 76, 43
9, 119850, Note_on_c, 8, 76, 0
9, 119850, Note_on_c, 8, 64, 0
9, 119850, Note_on_c, 8, 78, 43
9, 119850, Note_on_c, 8, 66, 36
9, 119880, Note_on_c, 8, 66, 0
9, 119880, Note_on_c, 8, 78, 0
9, 119880, Note_on_c, 8, 67, 43
9, 119880, Note_on_c, 8, 79, 53
9, 119910, Note_on_c, 8, 79, 0
9, 119910, Note_on_c, 8, 67, 0
9, 119910, Note_on_c, 8, 81, 43
9, 119910, Note_on_c, 8, 69, 43
9, 119940, Note_on_c, 8, 69, 0
9, 119940, Note_on_c, 8, 81, 0
9, 119940, Note_on_c, 8, 83, 49
9, 119940, Note_on_c, 8, 71, 45
9, 119970, Note_on_c, 8, 71, 0
9, 119970, Note_on_c, 8, 83, 0
9, 119970, Note_on_c, 8, 84, 54
9, 119970, Note_on_c, 8, 72, 29
9, 120000, Note_on_c, 8, 72, 0
9, 120000, Note_on_c, 8, 84, 0
9, 120000, Note_on_c, 8, 86, 43
9, 120000, Note_on_c, 8, 74, 42
9, 120030, Note_on_c, 8, 74, 0
9, 120030, Note_on_c, 8, 86, 0
9, 120030, Note_on_c, 8, 74, 57
9, 120030, Note_on_c, 8, 62, 40
9, 120060, Note_on_c, 8, 62, 0
9, 120060, Note_on_c, 8, 74, 0
9, 120060, Note_on_c, 8, 76, 59
9, 120060, Note_on_c, 8, 64, 58
9, 120090, Note_on_c, 8, 64, 0
9, 120090, Note_on_c, 8, 76, 0
9, 120090, Note_on_c, 8, 66, 49
9, 120090, Note_on_c, 8, 78, 45
9, 120120, Note_on_c, 8, 78, 0
9, 120120, Note_on_c, 8, 66, 0
9, 120120, Note_on_c, 8, 67, 43
9, 120120, Note_on_c, 8, 79, 64
9, 120150, Note_on_c, 8, 79, 0
9, 120150, Note_on_c, 8, 67, 0
9, 120150, Note_on_c, 8, 81, 63
9, 120150, Note_on_c, 8, 69, 61
9, 120180, Note_on_c, 8, 69, 0
9, 120180, Note_on_c, 8, 81, 0
9, 120180, Note_on_c, 8, 71, 66
9, 120180, Note_on_c, 8, 83, 68
9, 120210, Note_on_c, 8, 83, 0
9, 120210, Note_on_c, 8, 71, 0
9, 120210, Note_on_c, 8, 84, 63
9, 120210, Note_on_c, 8, 72, 29
9, 120240, Note_on_c, 8, 72, 0
9, 120240, Note_on_c, 8, 84, 0
9, 120240, Note_on_c, 8, 86, 81
9, 120240, Note_on_c, 8, 74, 71
9, 120270, Note_on_c, 8, 74, 0
9, 120270, Note_on_c, 8, 86, 0
9, 120270, Note_on_c, 8, 74, 85
9, 120270, Note_on_c, 8, 62, 68
9, 120300, Note_on_c, 8, 62, 0
9, 120300, Note_on_c, 8, 74, 0
9, 120300, Note_on_c, 8, 64, 84
9, 120300, Note_on_c, 8, 76, 90
9, 120330, Note_on_c, 8, 76, 0
9, 120330, Note_on_c, 8, 64, 0
9, 120330, Note_on_c, 8, 78, 72
9, 120330, Note_on_c, 8, 66, 73
9, 120360, Note_on_c, 8, 66, 0
9, 120360, Note_on_c, 8, 78, 0
9, 120360, Note_on_c, 8, 67, 68
9, 120360, Note_on_c, 8, 79, 74
9, 120390, Note_on_c, 8, 79, 0
9, 120390, Note_on_c, 8, 67, 0
9, 120390, Note_on_c, 8, 81, 84
9, 120390, Note_on_c, 8, 69, 72
9, 120420, Note_on_c, 8, 69, 0
9, 120420, Note_on_c, 8, 81, 0
9, 120420, Note_on_c, 8, 71, 80
9, 120420, Note_on_c, 8, 83, 80
9, 120450, Note_on_c, 8, 83, 0
9, 120450, Note_on_c, 8, 71, 0
9, 120450, Note_on_c, 8, 84, 84
9, 120450, Note_on_c, 8, 72, 115
9, 120480, Note_on_c, 8, 72, 0
9, 120480, Note_on_c, 8, 84, 0
9, 120480, Note_on_c, 8, 86, 99
9, 120480, Note_on_c, 8, 74, 93
9, 120510, Note_on_c, 8, 74, 0
9, 120510, Note_on_c, 8, 86, 0
9, 120510, Note_on_c, 8, 74, 95
9, 120510, Note_on_c, 8, 62, 81
9, 120540, Note_on_c, 8, 62, 0
9, 120540, Note_on_c, 8, 74, 0
9, 120540, Note_on_c, 8, 64, 94
9, 120540, Note_on_c, 8, 76, 99
9, 120570, Note_on_c, 8, 76, 0
9, 120570, Note_on_c, 8, 64, 0
9, 120570, Note_on_c, 8, 66, 80
9, 120570, Note_on_c, 8, 78, 84
9, 120600, Note_on_c, 8, 78, 0
9, 120600, Note_on_c, 8, 66, 0
9, 120600, Note_on_c, 8, 67, 74
9, 120600, Note_on_c, 8, 79, 65
9, 120630, Note_on_c, 8, 79, 0
9, 120630, Note_on_c, 8, 67, 0
9, 120630, Note_on_c, 8, 81, 94
9, 120630, Note_on_c, 8, 69, 82
9, 120660, Note_on_c, 8, 69, 0
9, 120660, Note_on_c, 8, 81, 0
9, 120660, Note_on_c, 8, 83, 80
9, 120660, Note_on_c, 8, 71, 85
9, 120690, Note_on_c, 8, 71, 0
9, 120690, Note_on_c, 8, 83, 0
9, 120690, Note_on_c, 8, 84, 84
9, 120690, Note_on_c, 8, 72, 105
9, 120720, Note_on_c, 8, 72, 0
9, 120720, Note_on_c, 8, 84, 0
9, 120720, Note_on_c, 8, 86, 85
9, 120720, Note_on_c, 8, 74, 93
9, 120750, Note_on_c, 8, 74, 0
9, 120750, Note_on_c, 8, 86, 0
9, 120750, Note_on_c, 8, 74, 85
9, 120750, Note_on_c, 8, 62, 94
9, 120780, Note_on_c, 8, 62, 0
9, 120780, Note_on_c, 8, 74, 0
9, 120780, Note_on_c, 8, 64, 94
9, 120780, Note_on_c, 8, 76, 99
9, 120810, Note_on_c, 8, 76, 0
9, 120810, Note_on_c, 8, 64, 0
9, 120810, Note_on_c, 8, 78, 85
9, 120810, Note_on_c, 8, 66, 89
9, 120840, Note_on_c, 8, 66, 0
9, 120840, Note_on_c, 8, 78, 0
9, 120840, Note_on_c, 8, 79, 81
9, 120840, Note_on_c, 8, 67, 89
9, 120870, Note_on_c, 8, 67, 0
9, 120870, Note_on_c, 8, 79, 0
9, 120870, Note_on_c, 8, 81, 94
9, 120870, Note_on_c, 8, 69, 89
9, 120900, Note_on_c, 8, 69, 0
9, 120900, Note_on_c, 8, 81, 0
9, 120900, Note_on_c, 8, 71, 95
9, 120900, Note_on_c, 8, 83, 94
9, 120930, Note_on_c, 8, 83, 0
9, 120930, Note_on_c, 8, 71, 0
9, 120930, Note_on_c, 8, 84, 89
9, 120930, Note_on_c, 8, 72, 117
9, 120960, Note_on_c, 8, 72, 0
9, 120960, Note_on_c, 8, 84, 0
9, 120960, Note_on_c, 8, 74, 89
9, 120960, Note_on_c, 8, 86, 89
9, 121020, Note_on_c, 8, 86, 0
9, 121020, Note_on_c, 8, 74, 0
9, 124080, Note_on_c, 8, 43, 82
9, 124080, Note_on_c, 8, 55, 80
9, 124140, Note_on_c, 8, 55, 0
9, 124140, Note_on_c, 8, 43, 0
9, 124200, Note_on_c, 8, 45, 85
9, 124200, Note_on_c, 8, 57, 80
9, 124260, Note_on_c, 8, 57, 0
9, 124260, Note_on_c, 8, 45, 0
9, 124320, Note_on_c, 8, 47, 82
9, 124320, Note_on_c, 8, 59, 80
9, 124380, Note_on_c, 8, 59, 0
9, 124380, Note_on_c, 8, 47, 0
9, 124440, Note_on_c, 8, 37, 85
9, 124440, Note_on_c, 8, 49, 78
9, 124500, Note_on_c, 8, 49, 0
9, 124500, Note_on_c, 8, 37, 0
9, 124560, Note_on_c, 8, 86, 80
9, 124560, Note_on_c, 8, 74, 80
9, 124560, Note_on_c, 8, 38, 84
9, 124560, Note_on_c, 8, 50, 85
9, 124620, Note_on_c, 8, 50, 0
9, 124620, Note_on_c, 8, 86, 0
9, 124620, Note_on_c, 8, 74, 0
9, 124620, Note_on_c, 8, 38, 0
9, 124680, Note_on_c, 8, 88, 84
9, 124680, Note_on_c, 8, 76, 89
9, 124740, Note_on_c, 8, 76, 0
9, 124740, Note_on_c, 8, 88, 0
9, 124800, Note_on_c, 8, 89, 89
9, 124800, Note_on_c, 8, 77, 81
9, 124860, Note_on_c, 8, 77, 0
9, 124860, Note_on_c, 8, 89, 0
9, 124920, Note_on_c, 8, 68, 84
9, 124920, Note_on_c, 8, 80, 89
9, 124920, Note_on_c, 8, 40, 84
9, 124920, Note_on_c, 8, 52, 82
9, 124980, Note_on_c, 8, 52, 0
9, 124980, Note_on_c, 8, 68, 0
9, 124980, Note_on_c, 8, 80, 0
9, 124980, Note_on_c, 8, 40, 0
9, 125040, Note_on_c, 8, 69, 84
9, 125040, Note_on_c, 8, 45, 94
9, 125040, Note_on_c, 8, 81, 84
9, 125040, Note_on_c, 8, 57, 93
9, 125100, Note_on_c, 8, 57, 0
9, 125100, Note_on_c, 8, 69, 0
9, 125100, Note_on_c, 8, 45, 0
9, 125100, Note_on_c, 8, 81, 0
9, 125160, Note_on_c, 8, 59, 82
9, 125160, Note_on_c, 8, 47, 85
9, 125220, Note_on_c, 8, 47, 0
9, 125220, Note_on_c, 8, 59, 0
9, 125280, Note_on_c, 8, 48, 85
9, 125280, Note_on_c, 8, 60, 81
9, 125340, Note_on_c, 8, 60, 0
9, 125340, Note_on_c, 8, 48, 0
9, 125400, Note_on_c, 8, 39, 89
9, 125400, Note_on_c, 8, 51, 85
9, 125460, Note_on_c, 8, 51, 0
9, 125460, Note_on_c, 8, 39, 0
9, 125520, Note_on_c, 8, 40, 89
9, 125520, Note_on_c, 8, 52, 84
9, 125520, Note_on_c, 8, 76, 80
9, 125520, Note_on_c, 8, 88, 85
9, 125580, Note_on_c, 8, 88, 0
9, 125580, Note_on_c, 8, 40, 0
9, 125580, Note_on_c, 8, 52, 0
9, 125580, Note_on_c, 8, 76, 0
9, 125640, Note_on_c, 8, 90, 77
9, 125640, Note_on_c, 8, 78, 89
9, 125700, Note_on_c, 8, 78, 0
9, 125700, Note_on_c, 8, 90, 0
9, 125760, Note_on_c, 8, 91, 80
9, 125760, Note_on_c, 8, 79, 86
9, 125820, Note_on_c, 8, 79, 0
9, 125820, Note_on_c, 8, 91, 0
9, 125880, Note_on_c, 8, 70, 85
9, 125880, Note_on_c, 8, 82, 82
9, 125880, Note_on_c, 8, 42, 85
9, 125880, Note_on_c, 8, 54, 77
9, 125940, Note_on_c, 8, 54, 0
9, 125940, Note_on_c, 8, 70, 0
9, 125940, Note_on_c, 8, 82, 0
9, 125940, Note_on_c, 8, 42, 0
9, 126000, Note_on_c, 8, 71, 80
9, 126000, Note_on_c, 8, 59, 86
9, 126000, Note_on_c, 8, 47, 90
9, 126030, Note_on_c, 8, 71, 0
9, 126030, Note_on_c, 8, 74, 95
9, 126060, Note_on_c, 8, 74, 0
9, 126060, Note_on_c, 8, 47, 0
9, 126060, Note_on_c, 8, 59, 0
9, 126060, Note_on_c, 8, 83, 86
9, 126090, Note_on_c, 8, 83, 0
9, 126090, Note_on_c, 8, 74, 80
9, 126120, Note_on_c, 8, 74, 0
9, 126120, Note_on_c, 8, 71, 76
9, 126120, Note_on_c, 8, 49, 84
9, 126120, Note_on_c, 8, 61, 73
9, 126150, Note_on_c, 8, 71, 0
9, 126150, Note_on_c, 8, 74, 95
9, 126180, Note_on_c, 8, 74, 0
9, 126180, Note_on_c, 8, 61, 0
9, 126180, Note_on_c, 8, 49, 0
9, 126180, Note_on_c, 8, 83, 86
9, 126210, Note_on_c, 8, 83, 0
9, 126210, Note_on_c, 8, 74, 94
9, 126240, Note_on_c, 8, 74, 0
9, 126240, Note_on_c, 8, 71, 78
9, 126240, Note_on_c, 8, 62, 86
9, 126240, Note_on_c, 8, 50, 98
9, 126270, Note_on_c, 8, 71, 0
9, 126270, Note_on_c, 8, 74, 93
9, 126300, Note_on_c, 8, 74, 0
9, 126300, Note_on_c, 8, 50, 0
9, 126300, Note_on_c, 8, 62, 0
9, 126300, Note_on_c, 8, 83, 90
9, 126330, Note_on_c, 8, 83, 0
9, 126330, Note_on_c, 8, 74, 95
9, 126360, Note_on_c, 8, 74, 0
9, 126360, Note_on_c, 8, 71, 80
9, 126360, Note_on_c, 8, 44, 86
9, 126360, Note_on_c, 8, 56, 80
9, 126390, Note_on_c, 8, 71, 0
9, 126390, Note_on_c, 8, 74, 95
9, 126420, Note_on_c, 8, 74, 0
9, 126420, Note_on_c, 8, 56, 0
9, 126420, Note_on_c, 8, 44, 0
9, 126420, Note_on_c, 8, 83, 84
9, 126450, Note_on_c, 8, 83, 0
9, 126450, Note_on_c, 8, 74, 99
9, 126480, Note_on_c, 8, 74, 0
9, 126480, Note_on_c, 8, 71, 84
9, 126480, Note_on_c, 8, 45, 82
9, 126480, Note_on_c, 8, 57, 93
9, 126510, Note_on_c, 8, 71, 0
9, 126510, Note_on_c, 8, 72, 115
9, 126540, Note_on_c, 8, 72, 0
9, 126540, Note_on_c, 8, 57, 0
9, 126540, Note_on_c, 8, 45, 0
9, 126540, Note_on_c, 8, 83, 93
9, 126570, Note_on_c, 8, 83, 0
9, 126570, Note_on_c, 8, 72, 112
9, 126600, Note_on_c, 8, 72, 0
9, 126600, Note_on_c, 8, 71, 82
9, 126600, Note_on_c, 8, 47, 89
9, 126600, Note_on_c, 8, 59, 80
9, 126630, Note_on_c, 8, 71, 0
9, 126630, Note_on_c, 8, 72, 112
9, 126660, Note_on_c, 8, 72, 0
9, 126660, Note_on_c, 8, 59, 0
9, 126660, Note_on_c, 8, 47, 0
9, 126660, Note_on_c, 8, 83, 90
9, 126690, Note_on_c, 8, 83, 0
9, 126690, Note_on_c, 8, 72, 112
9, 126720, Note_on_c, 8, 72, 0
9, 126720, Note_on_c, 8, 69, 76
9, 126720, Note_on_c, 8, 60, 82
9, 126720, Note_on_c, 8, 48, 90
9, 126750, Note_on_c, 8, 69, 0
9, 126750, Note_on_c, 8, 72, 105
9, 126780, Note_on_c, 8, 72, 0
9, 126780, Note_on_c, 8, 48, 0
9, 126780, Note_on_c, 8, 60, 0
9, 126780, Note_on_c, 8, 81, 89
9, 126810, Note_on_c, 8, 81, 0
9, 126810, Note_on_c, 8, 72, 104
9, 126840, Note_on_c, 8, 72, 0
9, 126840, Note_on_c, 8, 69, 77
9, 126840, Note_on_c, 8, 42, 94
9, 126840, Note_on_c, 8, 54, 84
9, 126870, Note_on_c, 8, 69, 0
9, 126870, Note_on_c, 8, 72, 104
9, 126900, Note_on_c, 8, 72, 0
9, 126900, Note_on_c, 8, 54, 0
9, 126900, Note_on_c, 8, 42, 0
9, 126900, Note_on_c, 8, 81, 84
9, 126930, Note_on_c, 8, 81, 0
9, 126930, Note_on_c, 8, 72, 105
9, 126960, Note_on_c, 8, 72, 0
9, 126960, Note_on_c, 8, 69, 81
9, 126960, Note_on_c, 8, 55, 84
9, 126960, Note_on_c, 8, 43, 81
9, 126990, Note_on_c, 8, 69, 0
9, 126990, Note_on_c, 8, 71, 89
9, 127020, Note_on_c, 8, 71, 0
9, 127020, Note_on_c, 8, 43, 0
9, 127020, Note_on_c, 8, 55, 0
9, 127020, Note_on_c, 8, 81, 89
9, 127050, Note_on_c, 8, 81, 0
9, 127050, Note_on_c, 8, 71, 69
9, 127080, Note_on_c, 8, 71, 0
9, 127080, Note_on_c, 8, 69, 86
9, 127080, Note_on_c, 8, 45, 94
9, 127080, Note_on_c, 8, 57, 95
9, 127110, Note_on_c, 8, 69, 0
9, 127110, Note_on_c, 8, 71, 80
9, 127140, Note_on_c, 8, 71, 0
9, 127140, Note_on_c, 8, 57, 0
9, 127140, Note_on_c, 8, 45, 0
9, 127140, Note_on_c, 8, 81, 94
9, 127170, Note_on_c, 8, 81, 0
9, 127170, Note_on_c, 8, 71, 93
9, 127200, Note_on_c, 8, 71, 0
9, 127200, Note_on_c, 8, 67, 72
9, 127200, Note_on_c, 8, 47, 93
9, 127200, Note_on_c, 8, 59, 89
9, 127230, Note_on_c, 8, 67, 0
9, 127230, Note_on_c, 8, 71, 84
9, 127260, Note_on_c, 8, 71, 0
9, 127260, Note_on_c, 8, 59, 0
9, 127260, Note_on_c, 8, 47, 0
9, 127260, Note_on_c, 8, 79, 86
9, 127290, Note_on_c, 8, 79, 0
9, 127290, Note_on_c, 8, 71, 90
9, 127320, Note_on_c, 8, 71, 0
9, 127320, Note_on_c, 8, 67, 72
9, 127320, Note_on_c, 8, 49, 84
9, 127320, Note_on_c, 8, 37, 89
9, 127350, Note_on_c, 8, 67, 0
9, 127350, Note_on_c, 8, 71, 93
9, 127380, Note_on_c, 8, 71, 0
9, 127380, Note_on_c, 8, 37, 0
9, 127380, Note_on_c, 8, 49, 0
9, 127380, Note_on_c, 8, 79, 89
9, 127410, Note_on_c, 8, 79, 0
9, 127410, Note_on_c, 8, 71, 89
9, 127440, Note_on_c, 8, 71, 0
9, 127440, Note_on_c, 8, 67, 72
9, 127440, Note_on_c, 8, 38, 93
9, 127440, Note_on_c, 8, 50, 95
9, 127470, Note_on_c, 8, 67, 0
9, 127470, Note_on_c, 8, 71, 89
9, 127500, Note_on_c, 8, 71, 0
9, 127500, Note_on_c, 8, 50, 0
9, 127500, Note_on_c, 8, 38, 0
9, 127500, Note_on_c, 8, 79, 86
9, 127530, Note_on_c, 8, 79, 0
9, 127530, Note_on_c, 8, 71, 89
9, 127560, Note_on_c, 8, 71, 0
9, 127560, Note_on_c, 8, 67, 73
9, 127560, Note_on_c, 8, 43, 94
9, 127560, Note_on_c, 8, 55, 89
9, 127590, Note_on_c, 8, 67, 0
9, 127590, Note_on_c, 8, 71, 90
9, 127620, Note_on_c, 8, 71, 0
9, 127620, Note_on_c, 8, 55, 0
9, 127620, Note_on_c, 8, 43, 0
9, 127620, Note_on_c, 8, 79, 89
9, 127650, Note_on_c, 8, 79, 0
9, 127650, Note_on_c, 8, 71, 95
9, 127680, Note_on_c, 8, 71, 0
9, 127680, Note_on_c, 8, 67, 74
9, 127680, Note_on_c, 8, 59, 85
9, 127680, Note_on_c, 8, 47, 89
9, 127710, Note_on_c, 8, 67, 0
9, 127710, Note_on_c, 8, 71, 94
9, 127740, Note_on_c, 8, 71, 0
9, 127740, Note_on_c, 8, 47, 0
9, 127740, Note_on_c, 8, 59, 0
9, 127740, Note_on_c, 8, 79, 86
9, 127770, Note_on_c, 8, 79, 0
9, 127770, Note_on_c, 8, 71, 84
9, 127800, Note_on_c, 8, 71, 0
9, 127800, Note_on_c, 8, 67, 74
9, 127800, Note_on_c, 8, 39, 95
9, 127800, Note_on_c, 8, 51, 89
9, 127830, Note_on_c, 8, 67, 0
9, 127830, Note_on_c, 8, 71, 95
9, 127860, Note_on_c, 8, 71, 0
9, 127860, Note_on_c, 8, 51, 0
9, 127860, Note_on_c, 8, 39, 0
9, 127860, Note_on_c, 8, 79, 85
9, 127890, Note_on_c, 8, 79, 0
9, 127890, Note_on_c, 8, 71, 94
9, 127920, Note_on_c, 8, 71, 0
9, 127920, Note_on_c, 8, 67, 76
9, 127920, Note_on_c, 8, 40, 93
9, 127920, Note_on_c, 8, 52, 89
9, 127950, Note_on_c, 8, 67, 0
9, 127950, Note_on_c, 8, 71, 90
9, 127980, Note_on_c, 8, 71, 0
9, 127980, Note_on_c, 8, 52, 0
9, 127980, Note_on_c, 8, 40, 0
9, 127980, Note_on_c, 8, 79, 86
9, 128010, Note_on_c, 8, 79, 0
9, 128010, Note_on_c, 8, 71, 89
9, 128040, Note_on_c, 8, 71, 0
9, 128040, Note_on_c, 8, 67, 73
9, 128040, Note_on_c, 8, 43, 89
9, 128040, Note_on_c, 8, 55, 84
9, 128070, Note_on_c, 8, 67, 0
9, 128070, Note_on_c, 8, 71, 94
9, 128100, Note_on_c, 8, 71, 0
9, 128100, Note_on_c, 8, 55, 0
9, 128100, Note_on_c, 8, 43, 0
9, 128100, Note_on_c, 8, 79, 85
9, 128130, Note_on_c, 8, 79, 0
9, 128130, Note_on_c, 8, 71, 94
9, 128160, Note_on_c, 8, 71, 0
9, 128160, Note_on_c, 8, 67, 74
9, 128160, Note_on_c, 8, 47, 94
9, 128160, Note_on_c, 8, 59, 94
9, 128190, Note_on_c, 8, 67, 0
9, 128190, Note_on_c, 8, 71, 95
9, 128220, Note_on_c, 8, 71, 0
9, 128220, Note_on_c, 8, 59, 0
9, 128220, Note_on_c, 8, 47, 0
9, 128220, Note_on_c, 8, 79, 84
9, 128250, Note_on_c, 8, 79, 0
9, 128250, Note_on_c, 8, 71, 86
9, 128280, Note_on_c, 8, 71, 0
9, 128280, Note_on_c, 8, 67, 69
9, 128280, Note_on_c, 8, 40, 94
9, 128280, Note_on_c, 8, 52, 94
9, 128310, Note_on_c, 8, 67, 0
9, 128310, Note_on_c, 8, 71, 94
9, 128340, Note_on_c, 8, 71, 0
9, 128340, Note_on_c, 8, 52, 0
9, 128340, Note_on_c, 8, 40, 0
9, 128340, Note_on_c, 8, 79, 85
9, 128370, Note_on_c, 8, 79, 0
9, 128370, Note_on_c, 8, 71, 94
9, 128400, Note_on_c, 8, 71, 0
9, 128400, Note_on_c, 8, 67, 77
9, 128400, Note_on_c, 8, 41, 86
9, 128400, Note_on_c, 8, 53, 80
9, 128430, Note_on_c, 8, 67, 0
9, 128430, Note_on_c, 8, 71, 86
9, 128430, Note_on_c, 8, 74, 84
9, 128460, Note_on_c, 8, 74, 0
9, 128460, Note_on_c, 8, 41, 0
9, 128460, Note_on_c, 8, 53, 0
9, 128460, Note_on_c, 8, 71, 0
9, 128460, Note_on_c, 8, 79, 81
9, 128490, Note_on_c, 8, 79, 0
9, 128490, Note_on_c, 8, 71, 84
9, 128490, Note_on_c, 8, 74, 98
9, 128520, Note_on_c, 8, 74, 0
9, 128520, Note_on_c, 8, 71, 0
9, 128520, Note_on_c, 8, 67, 71
9, 128520, Note_on_c, 8, 47, 94
9, 128520, Note_on_c, 8, 59, 89
9, 128550, Note_on_c, 8, 67, 0
9, 128550, Note_on_c, 8, 71, 84
9, 128550, Note_on_c, 8, 74, 94
9, 128580, Note_on_c, 8, 74, 0
9, 128580, Note_on_c, 8, 47, 0
9, 128580, Note_on_c, 8, 59, 0
9, 128580, Note_on_c, 8, 71, 0
9, 128580, Note_on_c, 8, 79, 86
9, 128610, Note_on_c, 8, 79, 0
9, 128610, Note_on_c, 8, 71, 80
9, 128610, Note_on_c, 8, 74, 94
9, 128640, Note_on_c, 8, 74, 0
9, 128640, Note_on_c, 8, 71, 0
9, 128640, Note_on_c, 8, 67, 78
9, 128640, Note_on_c, 8, 50, 95
9, 128640, Note_on_c, 8, 62, 86
9, 128670, Note_on_c, 8, 67, 0
9, 128670, Note_on_c, 8, 74, 94
9, 128670, Note_on_c, 8, 71, 89
9, 128700, Note_on_c, 8, 71, 0
9, 128700, Note_on_c, 8, 50, 0
9, 128700, Note_on_c, 8, 62, 0
9, 128700, Note_on_c, 8, 74, 0
9, 128700, Note_on_c, 8, 79, 86
9, 128730, Note_on_c, 8, 79, 0
9, 128730, Note_on_c, 8, 71, 86
9, 128730, Note_on_c, 8, 74, 101
9, 128760, Note_on_c, 8, 74, 0
9, 128760, Note_on_c, 8, 71, 0
9, 128760, Note_on_c, 8, 67, 70
9, 128760, Note_on_c, 8, 53, 84
9, 128760, Note_on_c, 8, 65, 89
9, 128790, Note_on_c, 8, 67, 0
9, 128790, Note_on_c, 8, 71, 90
9, 128790, Note_on_c, 8, 74, 95
9, 128820, Note_on_c, 8, 74, 0
9, 128820, Note_on_c, 8, 53, 0
9, 128820, Note_on_c, 8, 65, 0
9, 128820, Note_on_c, 8, 71, 0
9, 128820, Note_on_c, 8, 79, 86
9, 128850, Note_on_c, 8, 79, 0
9, 128850, Note_on_c, 8, 71, 84
9, 128850, Note_on_c, 8, 74, 101
9, 128880, Note_on_c, 8, 74, 0
9, 128880, Note_on_c, 8, 71, 0
9, 128880, Note_on_c, 8, 79, 86
9, 128880, Note_on_c, 8, 67, 69
9, 128880, Note_on_c, 8, 72, 117
9, 128880, Note_on_c, 8, 64, 95
9, 128940, Note_on_c, 8, 64, 0
9, 128940, Note_on_c, 8, 67, 73
9, 129000, Note_on_c, 8, 67, 0
9, 129000, Note_on_c, 8, 72, 0
9, 129000, Note_on_c, 8, 67, 0
9, 129000, Note_on_c, 8, 64, 89
9, 129060, Note_on_c, 8, 64, 0
9, 129060, Note_on_c, 8, 67, 76
9, 129120, Note_on_c, 8, 67, 0
9, 129120, Note_on_c, 8, 64, 94
9, 129180, Note_on_c, 8, 64, 0
9, 129180, Note_on_c, 8, 67, 76
9, 129240, Note_on_c, 8, 67, 0
9, 129240, Note_on_c, 8, 79, 0
9, 129240, Note_on_c, 8, 77, 89
9, 129240, Note_on_c, 8, 64, 90
9, 129300, Note_on_c, 8, 64, 0
9, 129300, Note_on_c, 8, 77, 0
9, 129300, Note_on_c, 8, 76, 95
9, 129300, Note_on_c, 8, 67, 73
9, 129360, Note_on_c, 8, 67, 0
9, 129360, Note_on_c, 8, 76, 0
9, 129360, Note_on_c, 8, 76, 99
9, 129360, Note_on_c, 8, 65, 93
9, 129420, Note_on_c, 8, 65, 0
9, 129420, Note_on_c, 8, 67, 74
9, 129480, Note_on_c, 8, 67, 0
9, 129480, Note_on_c, 8, 76, 0
9, 129480, Note_on_c, 8, 74, 99
9, 129480, Note_on_c, 8, 65, 89
9, 129540, Note_on_c, 8, 65, 0
9, 129540, Note_on_c, 8, 67, 76
9, 129600, Note_on_c, 8, 67, 0
9, 129600, Note_on_c, 8, 65, 85
9, 129660, Note_on_c, 8, 65, 0
9, 129660, Note_on_c, 8, 74, 0
9, 129660, Note_on_c, 8, 67, 86
9, 129660, Note_on_c, 8, 67, 74
9, 129720, Note_on_c, 8, 67, 0
9, 129720, Note_on_c, 8, 67, 0
9, 129720, Note_on_c, 8, 69, 94
9, 129720, Note_on_c, 8, 65, 89
9, 129780, Note_on_c, 8, 65, 0
9, 129780, Note_on_c, 8, 69, 0
9, 129780, Note_on_c, 8, 71, 98
9, 129780, Note_on_c, 8, 67, 74
9, 129840, Note_on_c, 8, 67, 0
9, 129840, Note_on_c, 8, 71, 0
9, 129840, Note_on_c, 8, 72, 112
9, 129840, Note_on_c, 8, 64, 93
9, 129870, Note_on_c, 8, 72, 0
9, 129870, Note_on_c, 8, 74, 99
9, 129900, Note_on_c, 8, 74, 0
9, 129900, Note_on_c, 8, 76, 101
9, 129930, Note_on_c, 8, 76, 0
9, 129930, Note_on_c, 8, 77, 81
9, 129960, Note_on_c, 8, 77, 0
9, 129960, Note_on_c, 8, 64, 0
9, 129960, Note_on_c, 8, 79, 86
9, 129990, Note_on_c, 8, 79, 0
9, 129990, Note_on_c, 8, 81, 89
9, 130020, Note_on_c, 8, 81, 0
9, 130020, Note_on_c, 8, 83, 85
9, 130050, Note_on_c, 8, 83, 0
9, 130050, Note_on_c, 8, 84, 86
9, 130080, Note_on_c, 8, 84, 0
9, 130080, Note_on_c, 8, 74, 84
9, 130080, Note_on_c, 8, 59, 86
9, 130110, Note_on_c, 8, 59, 0
9, 130110, Note_on_c, 8, 74, 0
9, 130110, Note_on_c, 8, 76, 95
9, 130110, Note_on_c, 8, 60, 84
9, 130140, Note_on_c, 8, 60, 0
9, 130140, Note_on_c, 8, 76, 0
9, 130140, Note_on_c, 8, 77, 84
9, 130140, Note_on_c, 8, 62, 89
9, 130170, Note_on_c, 8, 62, 0
9, 130170, Note_on_c, 8, 77, 0
9, 130170, Note_on_c, 8, 79, 64
9, 130170, Note_on_c, 8, 64, 98
9, 130200, Note_on_c, 8, 64, 0
9, 130200, Note_on_c, 8, 79, 0
9, 130200, Note_on_c, 8, 81, 89
9, 130200, Note_on_c, 8, 65, 94
9, 130230, Note_on_c, 8, 65, 0
9, 130230, Note_on_c, 8, 81, 0
9, 130230, Note_on_c, 8, 83, 93
9, 130230, Note_on_c, 8, 67, 84
9, 130260, Note_on_c, 8, 67, 0
9, 130260, Note_on_c, 8, 83, 0
9, 130260, Note_on_c, 8, 84, 86
9, 130260, Note_on_c, 8, 69, 94
9, 130290, Note_on_c, 8, 69, 0
9, 130290, Note_on_c, 8, 84, 0
9, 130290, Note_on_c, 8, 86, 93
9, 130290, Note_on_c, 8, 71, 93
9, 130320, Note_on_c, 8, 71, 0
9, 130320, Note_on_c, 8, 86, 0
9, 130320, Note_on_c, 8, 76, 89
9, 130320, Note_on_c, 8, 60, 86
9, 130350, Note_on_c, 8, 60, 0
9, 130350, Note_on_c, 8, 76, 0
9, 130350, Note_on_c, 8, 77, 81
9, 130350, Note_on_c, 8, 62, 86
9, 130380, Note_on_c, 8, 62, 0
9, 130380, Note_on_c, 8, 77, 0
9, 130380, Note_on_c, 8, 79, 85
9, 130380, Note_on_c, 8, 64, 95
9, 130410, Note_on_c, 8, 64, 0
9, 130410, Note_on_c, 8, 79, 0
9, 130410, Note_on_c, 8, 81, 78
9, 130410, Note_on_c, 8, 65, 95
9, 130440, Note_on_c, 8, 65, 0
9, 130440, Note_on_c, 8, 81, 0
9, 130440, Note_on_c, 8, 83, 89
9, 130440, Note_on_c, 8, 67, 80
9, 130470, Note_on_c, 8, 67, 0
9, 130470, Note_on_c, 8, 83, 0
9, 130470, Note_on_c, 8, 84, 89
9, 130470, Note_on_c, 8, 69, 93
9, 130500, Note_on_c, 8, 69, 0
9, 130500, Note_on_c, 8, 84, 0
9, 130500, Note_on_c, 8, 86, 93
9, 130500, Note_on_c, 8, 71, 94
9, 130530, Note_on_c, 8, 71, 0
9, 130530, Note_on_c, 8, 86, 0
9, 130530, Note_on_c, 8, 88, 99
9, 130530, Note_on_c, 8, 72, 115
9, 130560, Note_on_c, 8, 72, 0
9, 130560, Note_on_c, 8, 88, 0
9, 130560, Note_on_c, 8, 78, 78
9, 130560, Note_on_c, 8, 81, 80
9, 130560, Note_on_c, 8, 62, 95
9, 130590, Note_on_c, 8, 62, 0
9, 130590, Note_on_c, 8, 64, 90
9, 130620, Note_on_c, 8, 64, 0
9, 130620, Note_on_c, 8, 66, 84
9, 130650, Note_on_c, 8, 66, 0
9, 130650, Note_on_c, 8, 67, 84
9, 130680, Note_on_c, 8, 67, 0
9, 130680, Note_on_c, 8, 81, 0
9, 130680, Note_on_c, 8, 78, 0
9, 130680, Note_on_c, 8, 86, 101
9, 130680, Note_on_c, 8, 69, 93
9, 130710, Note_on_c, 8, 69, 0
9, 130710, Note_on_c, 8, 71, 89
9, 130740, Note_on_c, 8, 71, 0
9, 130740, Note_on_c, 8, 72, 119
9, 130770, Note_on_c, 8, 72, 0
9, 130770, Note_on_c, 8, 74, 94
9, 130800, Note_on_c, 8, 74, 0
9, 130800, Note_on_c, 8, 86, 0
9, 130800, Note_on_c, 8, 86, 95
9, 130800, Note_on_c, 8, 74, 99
9, 130800, Note_on_c, 8, 43, 84
9, 130860, Note_on_c, 8, 43, 0
9, 130860, Note_on_c, 8, 62, 77
9, 130920, Note_on_c, 8, 62, 0
9, 130920, Note_on_c, 8, 59, 94
9, 130980, Note_on_c, 8, 59, 0
9, 130980, Note_on_c, 8, 62, 84
9, 131040, Note_on_c, 8, 62, 0
9, 131040, Note_on_c, 8, 59, 86
9, 131100, Note_on_c, 8, 59, 0
9, 131100, Note_on_c, 8, 62, 77
9, 131160, Note_on_c, 8, 62, 0
9, 131160, Note_on_c, 8, 74, 0
9, 131160, Note_on_c, 8, 86, 0
9, 131160, Note_on_c, 8, 84, 82
9, 131160, Note_on_c, 8, 72, 112
9, 131160, Note_on_c, 8, 59, 94
9, 131220, Note_on_c, 8, 59, 0
9, 131220, Note_on_c, 8, 72, 0
9, 131220, Note_on_c, 8, 84, 0
9, 131220, Note_on_c, 8, 83, 84
9, 131220, Note_on_c, 8, 71, 90
9, 131220, Note_on_c, 8, 62, 81
9, 131280, Note_on_c, 8, 62, 0
9, 131280, Note_on_c, 8, 71, 0
9, 131280, Note_on_c, 8, 83, 0
9, 131280, Note_on_c, 8, 83, 89
9, 131280, Note_on_c, 8, 71, 95
9, 131280, Note_on_c, 8, 60, 86
9, 131340, Note_on_c, 8, 60, 0
9, 131340, Note_on_c, 8, 62, 84
9, 131400, Note_on_c, 8, 62, 0
9, 131400, Note_on_c, 8, 71, 0
9, 131400, Note_on_c, 8, 83, 0
9, 131400, Note_on_c, 8, 69, 95
9, 131400, Note_on_c, 8, 81, 85
9, 131400, Note_on_c, 8, 60, 81
9, 131460, Note_on_c, 8, 60, 0
9, 131460, Note_on_c, 8, 62, 82
9, 131520, Note_on_c, 8, 62, 0
9, 131520, Note_on_c, 8, 60, 85
9, 131580, Note_on_c, 8, 60, 0
9, 131580, Note_on_c, 8, 81, 0
9, 131580, Note_on_c, 8, 69, 0
9, 131580, Note_on_c, 8, 74, 95
9, 131580, Note_on_c, 8, 62, 81
9, 131640, Note_on_c, 8, 62, 0
9, 131640, Note_on_c, 8, 74, 0
9, 131640, Note_on_c, 8, 76, 94
9, 131640, Note_on_c, 8, 60, 86
9, 131700, Note_on_c, 8, 60, 0
9, 131700, Note_on_c, 8, 76, 0
9, 131700, Note_on_c, 8, 78, 94
9, 131700, Note_on_c, 8, 62, 89
9, 131760, Note_on_c, 8, 62, 0
9, 131760, Note_on_c, 8, 78, 0
9, 131760, Note_on_c, 8, 79, 94
9, 131790, Note_on_c, 8, 55, 84
9, 131820, Note_on_c, 8, 55, 0
9, 131820, Note_on_c, 8, 79, 0
9, 131820, Note_on_c, 8, 59, 98
9, 131850, Note_on_c, 8, 59, 0
9, 131850, Note_on_c, 8, 62, 95
9, 131880, Note_on_c, 8, 62, 0
9, 131880, Note_on_c, 8, 67, 81
9, 131940, Note_on_c, 8, 67, 0
9, 131940, Note_on_c, 8, 71, 86
9, 131970, Note_on_c, 8, 71, 0
9, 131970, Note_on_c, 8, 79, 99
9, 132000, Note_on_c, 8, 79, 0
9, 132000, Note_on_c, 8, 74, 89
9, 132030, Note_on_c, 8, 74, 0
9, 132030, Note_on_c, 8, 83, 95
9, 132060, Note_on_c, 8, 83, 0
9, 132060, Note_on_c, 8, 79, 80
9, 132090, Note_on_c, 8, 79, 0
9, 132090, Note_on_c, 8, 86, 99
9, 132120, Note_on_c, 8, 86, 0
9, 132120, Note_on_c, 8, 83, 86
9, 132150, Note_on_c, 8, 83, 0
9, 132150, Note_on_c, 8, 91, 90
9, 132180, Note_on_c, 8, 91, 0
9, 132180, Note_on_c, 8, 86, 94
9, 132210, Note_on_c, 8, 86, 0
9, 132210, Note_on_c, 8, 95, 81
9, 132240, Note_on_c, 8, 95, 0
9, 132240, Note_on_c, 8, 96, 94
9, 132270, Note_on_c, 8, 50, 99
9, 132300, Note_on_c, 8, 50, 0
9, 132300, Note_on_c, 8, 96, 0
9, 132300, Note_on_c, 8, 57, 99
9, 132330, Note_on_c, 8, 57, 0
9, 132330, Note_on_c, 8, 60, 84
9, 132360, Note_on_c, 8, 60, 0
9, 132360, Note_on_c, 8, 62, 86
9, 132390, Note_on_c, 8, 93, 93
9, 132420, Note_on_c, 8, 93, 0
9, 132420, Note_on_c, 8, 62, 0
9, 132420, Note_on_c, 8, 96, 104
9, 132450, Note_on_c, 8, 96, 0
9, 132450, Note_on_c, 8, 90, 86
9, 132480, Note_on_c, 8, 90, 0
9, 132480, Note_on_c, 8, 93, 101
9, 132510, Note_on_c, 8, 93, 0
9, 132510, Note_on_c, 8, 84, 89
9, 132540, Note_on_c, 8, 84, 0
9, 132540, Note_on_c, 8, 90, 89
9, 132570, Note_on_c, 8, 90, 0
9, 132570, Note_on_c, 8, 81, 95
9, 132600, Note_on_c, 8, 81, 0
9, 132600, Note_on_c, 8, 84, 94
9, 132630, Note_on_c, 8, 84, 0
9, 132630, Note_on_c, 8, 78, 86
9, 132660, Note_on_c, 8, 78, 0
9, 132660, Note_on_c, 8, 81, 101
9, 132690, Note_on_c, 8, 81, 0
9, 132690, Note_on_c, 8, 72, 115
9, 132720, Note_on_c, 8, 72, 0
9, 132720, Note_on_c, 8, 71, 95
9, 132750, Note_on_c, 8, 43, 90
9, 132780, Note_on_c, 8, 43, 0
9, 132780, Note_on_c, 8, 71, 0
9, 132780, Note_on_c, 8, 47, 94
9, 132810, Note_on_c, 8, 47, 0
9, 132810, Note_on_c, 8, 50, 95
9, 132840, Note_on_c, 8, 50, 0
9, 132840, Note_on_c, 8, 55, 89
9, 132900, Note_on_c, 8, 55, 0
9, 132900, Note_on_c, 8, 59, 84
9, 132930, Note_on_c, 8, 59, 0
9, 132930, Note_on_c, 8, 67, 89
9, 132960, Note_on_c, 8, 67, 0
9, 132960, Note_on_c, 8, 62, 85
9, 132990, Note_on_c, 8, 62, 0
9, 132990, Note_on_c, 8, 71, 99
9, 133020, Note_on_c, 8, 71, 0
9, 133020, Note_on_c, 8, 67, 78
9, 133050, Note_on_c, 8, 67, 0
9, 133050, Note_on_c, 8, 74, 105
9, 133080, Note_on_c, 8, 74, 0
9, 133080, Note_on_c, 8, 71, 89
9, 133110, Note_on_c, 8, 71, 0
9, 133110, Note_on_c, 8, 79, 94
9, 133140, Note_on_c, 8, 79, 0
9, 133140, Note_on_c, 8, 74, 94
9, 133170, Note_on_c, 8, 74, 0
9, 133170, Note_on_c, 8, 83, 95
9, 133200, Note_on_c, 8, 83, 0
9, 133200, Note_on_c, 8, 84, 95
9, 133230, Note_on_c, 8, 38, 94
9, 133260, Note_on_c, 8, 38, 0
9, 133260, Note_on_c, 8, 84, 0
9, 133260, Note_on_c, 8, 45, 93
9, 133290, Note_on_c, 8, 45, 0
9, 133290, Note_on_c, 8, 48, 89
9, 133320, Note_on_c, 8, 48, 0
9, 133320, Note_on_c, 8, 50, 101
9, 133350, Note_on_c, 8, 81, 95
9, 133380, Note_on_c, 8, 81, 0
9, 133380, Note_on_c, 8, 50, 0
9, 133380, Note_on_c, 8, 84, 94
9, 133410, Note_on_c, 8, 84, 0
9, 133410, Note_on_c, 8, 78, 85
9, 133440, Note_on_c, 8, 78, 0
9, 133440, Note_on_c, 8, 81, 98
9, 133470, Note_on_c, 8, 81, 0
9, 133470, Note_on_c, 8, 72, 112
9, 133500, Note_on_c, 8, 72, 0
9, 133500, Note_on_c, 8, 78, 90
9, 133530, Note_on_c, 8, 78, 0
9, 133530, Note_on_c, 8, 69, 89
9, 133560, Note_on_c, 8, 69, 0
9, 133560, Note_on_c, 8, 72, 117
9, 133590, Note_on_c, 8, 72, 0
9, 133590, Note_on_c, 8, 66, 90
9, 133620, Note_on_c, 8, 66, 0
9, 133620, Note_on_c, 8, 69, 95
9, 133650, Note_on_c, 8, 69, 0
9, 133650, Note_on_c, 8, 60, 84
9, 133680, Note_on_c, 8, 60, 0
9, 133680, Note_on_c, 8, 59, 93
9, 133710, Note_on_c, 8, 55, 93
9, 133740, Note_on_c, 8, 55, 0
9, 133740, Note_on_c, 8, 59, 0
9, 133740, Note_on_c, 8, 59, 94
9, 133770, Note_on_c, 8, 59, 0
9, 133770, Note_on_c, 8, 62, 95
9, 133800, Note_on_c, 8, 62, 0
9, 133800, Note_on_c, 8, 67, 84
9, 133830, Note_on_c, 8, 79, 86
9, 133860, Note_on_c, 8, 79, 0
9, 133860, Note_on_c, 8, 67, 0
9, 133860, Note_on_c, 8, 83, 94
9, 133890, Note_on_c, 8, 83, 0
9, 133890, Note_on_c, 8, 74, 104
9, 133920, Note_on_c, 8, 74, 0
9, 133920, Note_on_c, 8, 81, 94
9, 133950, Note_on_c, 8, 47, 99
9, 133980, Note_on_c, 8, 47, 0
9, 133980, Note_on_c, 8, 81, 0
9, 133980, Note_on_c, 8, 51, 90
9, 134010, Note_on_c, 8, 51, 0
9, 134010, Note_on_c, 8, 54, 86
9, 134040, Note_on_c, 8, 54, 0
9, 134040, Note_on_c, 8, 59, 85
9, 134070, Note_on_c, 8, 78, 89
9, 134100, Note_on_c, 8, 78, 0
9, 134100, Note_on_c, 8, 59, 0
9, 134100, Note_on_c, 8, 81, 95
9, 134130, Note_on_c, 8, 81, 0
9, 134130, Note_on_c, 8, 75, 99
9, 134160, Note_on_c, 8, 75, 0
9, 134160, Note_on_c, 8, 79, 89
9, 134190, Note_on_c, 8, 40, 90
9, 134220, Note_on_c, 8, 40, 0
9, 134220, Note_on_c, 8, 79, 0
9, 134220, Note_on_c, 8, 43, 94
9, 134250, Note_on_c, 8, 43, 0
9, 134250, Note_on_c, 8, 47, 95
9, 134280, Note_on_c, 8, 47, 0
9, 134280, Note_on_c, 8, 52, 90
9, 134310, Note_on_c, 8, 76, 98
9, 134340, Note_on_c, 8, 76, 0
9, 134340, Note_on_c, 8, 52, 0
9, 134340, Note_on_c, 8, 79, 89
9, 134370, Note_on_c, 8, 79, 0
9, 134370, Note_on_c, 8, 71, 101
9, 134400, Note_on_c, 8, 71, 0
9, 134400, Note_on_c, 8, 77, 89
9, 134430, Note_on_c, 8, 43, 89
9, 134460, Note_on_c, 8, 43, 0
9, 134460, Note_on_c, 8, 77, 0
9, 134460, Note_on_c, 8, 47, 94
9, 134490, Note_on_c, 8, 47, 0
9, 134490, Note_on_c, 8, 50, 104
9, 134520, Note_on_c, 8, 50, 0
9, 134520, Note_on_c, 8, 55, 81
9, 134550, Note_on_c, 8, 74, 98
9, 134580, Note_on_c, 8, 74, 0
9, 134580, Note_on_c, 8, 55, 0
9, 134580, Note_on_c, 8, 77, 86
9, 134610, Note_on_c, 8, 77, 0
9, 134610, Note_on_c, 8, 71, 98
9, 134640, Note_on_c, 8, 71, 0
9, 134640, Note_on_c, 8, 48, 90
9, 134670, Note_on_c, 8, 72, 119
9, 134700, Note_on_c, 8, 72, 0
9, 134700, Note_on_c, 8, 48, 0
9, 134700, Note_on_c, 8, 76, 93
9, 134730, Note_on_c, 8, 76, 0
9, 134730, Note_on_c, 8, 67, 84
9, 134760, Note_on_c, 8, 67, 0
9, 134760, Note_on_c, 8, 52, 99
9, 134790, Note_on_c, 8, 71, 94
9, 134820, Note_on_c, 8, 71, 0
9, 134820, Note_on_c, 8, 52, 0
9, 134820, Note_on_c, 8, 74, 93
9, 134850, Note_on_c, 8, 74, 0
9, 134850, Note_on_c, 8, 68, 93
9, 134880, Note_on_c, 8, 68, 0
9, 134880, Note_on_c, 8, 57, 104
9, 134910, Note_on_c, 8, 69, 101
9, 134940, Note_on_c, 8, 69, 0
9, 134940, Note_on_c, 8, 57, 0
9, 134940, Note_on_c, 8, 73, 94
9, 134970, Note_on_c, 8, 73, 0
9, 134970, Note_on_c, 8, 64, 99
9, 135000, Note_on_c, 8, 64, 0
9, 135000, Note_on_c, 8, 50, 101
9, 135030, Note_on_c, 8, 69, 99
9, 135060, Note_on_c, 8, 69, 0
9, 135060, Note_on_c, 8, 50, 0
9, 135060, Note_on_c, 8, 72, 115
9, 135090, Note_on_c, 8, 72, 0
9, 135090, Note_on_c, 8, 66, 89
9, 135120, Note_on_c, 8, 66, 0
9, 135120, Note_on_c, 8, 55, 94
9, 135150, Note_on_c, 8, 67, 89
9, 135180, Note_on_c, 8, 67, 0
9, 135180, Note_on_c, 8, 55, 0
9, 135180, Note_on_c, 8, 71, 94
9, 135210, Note_on_c, 8, 71, 0
9, 135210, Note_on_c, 8, 62, 86
9, 135240, Note_on_c, 8, 62, 0
9, 135240, Note_on_c, 8, 51, 95
9, 135270, Note_on_c, 8, 67, 94
9, 135300, Note_on_c, 8, 67, 0
9, 135300, Note_on_c, 8, 51, 0
9, 135300, Note_on_c, 8, 73, 82
9, 135330, Note_on_c, 8, 73, 0
9, 135330, Note_on_c, 8, 61, 94
9, 135360, Note_on_c, 8, 61, 0
9, 135360, Note_on_c, 8, 39, 99
9, 135390, Note_on_c, 8, 73, 89
9, 135420, Note_on_c, 8, 73, 0
9, 135420, Note_on_c, 8, 39, 0
9, 135420, Note_on_c, 8, 79, 90
9, 135450, Note_on_c, 8, 79, 0
9, 135450, Note_on_c, 8, 67, 94
9, 135480, Note_on_c, 8, 67, 0
9, 135480, Note_on_c, 8, 51, 112
9, 135480, Note_on_c, 8, 63, 112
9, 135540, Note_on_c, 8, 63, 0
9, 135540, Note_on_c, 8, 51, 0
9, 135540, Note_on_c, 8, 79, 104
9, 135540, Note_on_c, 8, 91, 98
9, 135600, Note_on_c, 8, 91, 0
9, 135600, Note_on_c, 8, 79, 0
9, 136080, Note_on_c, 8, 57, 104
9, 136110, Note_on_c, 8, 67, 85
9, 136140, Note_on_c, 8, 67, 0
9, 136140, Note_on_c, 8, 57, 0
9, 136140, Note_on_c, 8, 73, 82
9, 136170, Note_on_c, 8, 73, 0
9, 136170, Note_on_c, 8, 61, 94
9, 136200, Note_on_c, 8, 61, 0
9, 136200, Note_on_c, 8, 45, 99
9, 136230, Note_on_c, 8, 73, 86
9, 136260, Note_on_c, 8, 73, 0
9, 136260, Note_on_c, 8, 45, 0
9, 136260, Note_on_c, 8, 79, 89
9, 136290, Note_on_c, 8, 79, 0
9, 136290, Note_on_c, 8, 67, 86
9, 136320, Note_on_c, 8, 67, 0
9, 136320, Note_on_c, 8, 33, 100
9, 136350, Note_on_c, 8, 79, 99
9, 136380, Note_on_c, 8, 79, 0
9, 136380, Note_on_c, 8, 33, 0
9, 136380, Note_on_c, 8, 85, 99
9, 136410, Note_on_c, 8, 85, 0
9, 136410, Note_on_c, 8, 73, 95
9, 136440, Note_on_c, 8, 73, 0
9, 136440, Note_on_c, 8, 45, 99
9, 136440, Note_on_c, 8, 57, 104
9, 136440, Note_on_c, 8, 52, 105
9, 136440, Note_on_c, 8, 49, 89
9, 136500, Note_on_c, 8, 49, 0
9, 136500, Note_on_c, 8, 45, 0
9, 136500, Note_on_c, 8, 57, 0
9, 136500, Note_on_c, 8, 52, 0
9, 136500, Note_on_c, 8, 85, 84
9, 136500, Note_on_c, 8, 91, 95
9, 136500, Note_on_c, 8, 88, 104
9, 136500, Note_on_c, 8, 79, 104
9, 136560, Note_on_c, 8, 79, 0
9, 136560, Note_on_c, 8, 85, 0
9, 136560, Note_on_c, 8, 91, 0
9, 136560, Note_on_c, 8, 88, 0
9, 137040, Note_on_c, 8, 38, 89
9, 137040, Note_on_c, 8, 57, 93
9, 137060, Note_on_c, 8, 57, 0
9, 137060, Note_on_c, 8, 59, 93
9, 137080, Note_on_c, 8, 59, 0
9, 137080, Note_on_c, 8, 57, 101
9, 137100, Note_on_c, 8, 57, 0
9, 137100, Note_on_c, 8, 38, 0
9, 137100, Note_on_c, 8, 59, 86
9, 137115, Note_on_c, 8, 59, 0
9, 137115, Note_on_c, 8, 57, 98
9, 137130, Note_on_c, 8, 57, 0
9, 137130, Note_on_c, 8, 59, 95
9, 137145, Note_on_c, 8, 59, 0
9, 137145, Note_on_c, 8, 57, 99
9, 137160, Note_on_c, 8, 57, 0
9, 137160, Note_on_c, 8, 69, 86
9, 137180, Note_on_c, 8, 69, 0
9, 137180, Note_on_c, 8, 71, 86
9, 137200, Note_on_c, 8, 71, 0
9, 137200, Note_on_c, 8, 69, 94
9, 137220, Note_on_c, 8, 69, 0
9, 137220, Note_on_c, 8, 71, 94
9, 137235, Note_on_c, 8, 71, 0
9, 137235, Note_on_c, 8, 69, 93
9, 137250, Note_on_c, 8, 69, 0
9, 137250, Note_on_c, 8, 71, 89
9, 137265, Note_on_c, 8, 71, 0
9, 137265, Note_on_c, 8, 69, 94
9, 137280, Note_on_c, 8, 69, 0
9, 137280, Note_on_c, 8, 81, 89
9, 137300, Note_on_c, 8, 81, 0
9, 137300, Note_on_c, 8, 83, 93
9, 137320, Note_on_c, 8, 83, 0
9, 137320, Note_on_c, 8, 81, 84
9, 137340, Note_on_c, 8, 81, 0
9, 137340, Note_on_c, 8, 83, 94
9, 137355, Note_on_c, 8, 83, 0
9, 137355, Note_on_c, 8, 81, 86
9, 137370, Note_on_c, 8, 81, 0
9, 137370, Note_on_c, 8, 83, 94
9, 137385, Note_on_c, 8, 83, 0
9, 137385, Note_on_c, 8, 81, 89
9, 137400, Note_on_c, 8, 81, 0
9, 137400, Note_on_c, 8, 83, 90
9, 137420, Note_on_c, 8, 83, 0
9, 137420, Note_on_c, 8, 81, 86
9, 137440, Note_on_c, 8, 81, 0
9, 137440, Note_on_c, 8, 83, 93
9, 137460, Note_on_c, 8, 83, 0
9, 137460, Note_on_c, 8, 81, 85
9, 137475, Note_on_c, 8, 81, 0
9, 137475, Note_on_c, 8, 83, 94
9, 137490, Note_on_c, 8, 83, 0
9, 137490, Note_on_c, 8, 81, 95
9, 137505, Note_on_c, 8, 81, 0
9, 137505, Note_on_c, 8, 83, 94
9, 137520, Note_on_c, 8, 83, 0
9, 137520, Note_on_c, 8, 60, 84
9, 137520, Note_on_c, 8, 57, 95
9, 137535, Note_on_c, 8, 60, 0
9, 137535, Note_on_c, 8, 62, 84
9, 137540, Note_on_c, 8, 57, 0
9, 137540, Note_on_c, 8, 59, 93
9, 137550, Note_on_c, 8, 62, 0
9, 137550, Note_on_c, 8, 60, 86
9, 137560, Note_on_c, 8, 59, 0
9, 137560, Note_on_c, 8, 57, 98
9, 137565, Note_on_c, 8, 60, 0
9, 137565, Note_on_c, 8, 62, 82
9, 137580, Note_on_c, 8, 62, 0
9, 137580, Note_on_c, 8, 57, 0
9, 137580, Note_on_c, 8, 60, 81
9, 137580, Note_on_c, 8, 59, 93
9, 137595, Note_on_c, 8, 59, 0
9, 137595, Note_on_c, 8, 57, 94
9, 137600, Note_on_c, 8, 60, 0
9, 137600, Note_on_c, 8, 62, 89
9, 137610, Note_on_c, 8, 57, 0
9, 137610, Note_on_c, 8, 59, 89
9, 137620, Note_on_c, 8, 62, 0
9, 137620, Note_on_c, 8, 60, 86
9, 137625, Note_on_c, 8, 59, 0
9, 137625, Note_on_c, 8, 57, 99
9, 137640, Note_on_c, 8, 57, 0
9, 137640, Note_on_c, 8, 60, 0
9, 137640, Note_on_c, 8, 72, 112
9, 137640, Note_on_c, 8, 69, 94
9, 137655, Note_on_c, 8, 72, 0
9, 137655, Note_on_c, 8, 74, 93
9, 137660, Note_on_c, 8, 69, 0
9, 137660, Note_on_c, 8, 71, 86
9, 137670, Note_on_c, 8, 74, 0
9, 137670, Note_on_c, 8, 72, 112
9, 137680, Note_on_c, 8, 71, 0
9, 137680, Note_on_c, 8, 69, 90
9, 137685, Note_on_c, 8, 72, 0
9, 137685, Note_on_c, 8, 74, 94
9, 137700, Note_on_c, 8, 74, 0
9, 137700, Note_on_c, 8, 69, 0
9, 137700, Note_on_c, 8, 72, 115
9, 137700, Note_on_c, 8, 71, 94
9, 137715, Note_on_c, 8, 71, 0
9, 137715, Note_on_c, 8, 69, 89
9, 137720, Note_on_c, 8, 72, 0
9, 137720, Note_on_c, 8, 74, 95
9, 137730, Note_on_c, 8, 69, 0
9, 137730, Note_on_c, 8, 71, 90
9, 137740, Note_on_c, 8, 74, 0
9, 137740, Note_on_c, 8, 72, 115
9, 137745, Note_on_c, 8, 71, 0
9, 137745, Note_on_c, 8, 69, 93
9, 137760, Note_on_c, 8, 69, 0
9, 137760, Note_on_c, 8, 72, 0
9, 137760, Note_on_c, 8, 84, 86
9, 137760, Note_on_c, 8, 81, 89
9, 137775, Note_on_c, 8, 84, 0
9, 137775, Note_on_c, 8, 86, 89
9, 137780, Note_on_c, 8, 81, 0
9, 137780, Note_on_c, 8, 83, 89
9, 137790, Note_on_c, 8, 86, 0
9, 137790, Note_on_c, 8, 84, 84
9, 137800, Note_on_c, 8, 83, 0
9, 137800, Note_on_c, 8, 81, 89
9, 137805, Note_on_c, 8, 84, 0
9, 137805, Note_on_c, 8, 86, 94
9, 137820, Note_on_c, 8, 86, 0
9, 137820, Note_on_c, 8, 81, 0
9, 137820, Note_on_c, 8, 84, 89
9, 137820, Note_on_c, 8, 83, 94
9, 137835, Note_on_c, 8, 83, 0
9, 137835, Note_on_c, 8, 81, 90
9, 137840, Note_on_c, 8, 84, 0
9, 137840, Note_on_c, 8, 86, 94
9, 137850, Note_on_c, 8, 81, 0
9, 137850, Note_on_c, 8, 83, 90
9, 137860, Note_on_c, 8, 86, 0
9, 137860, Note_on_c, 8, 84, 89
9, 137865, Note_on_c, 8, 83, 0
9, 137865, Note_on_c, 8, 81, 86
9, 137880, Note_on_c, 8, 81, 0
9, 137880, Note_on_c, 8, 84, 0
9, 137880, Note_on_c, 8, 86, 93
9, 137880, Note_on_c, 8, 83, 90
9, 137895, Note_on_c, 8, 86, 0
9, 137895, Note_on_c, 8, 84, 84
9, 137900, Note_on_c, 8, 83, 0
9, 137900, Note_on_c, 8, 81, 86
9, 137910, Note_on_c, 8, 84, 0
9, 137910, Note_on_c, 8, 86, 94
9, 137920, Note_on_c, 8, 81, 0
9, 137920, Note_on_c, 8, 83, 89
9, 137925, Note_on_c, 8, 86, 0
9, 137925, Note_on_c, 8, 84, 86
9, 137940, Note_on_c, 8, 84, 0
9, 137940, Note_on_c, 8, 83, 0
9, 137940, Note_on_c, 8, 86, 94
9, 137940, Note_on_c, 8, 81, 84
9, 137955, Note_on_c, 8, 81, 0
9, 137955, Note_on_c, 8, 83, 93
9, 137960, Note_on_c, 8, 86, 0
9, 137960, Note_on_c, 8, 84, 86
9, 137970, Note_on_c, 8, 83, 0
9, 137970, Note_on_c, 8, 81, 89
9, 137980, Note_on_c, 8, 84, 0
9, 137980, Note_on_c, 8, 86, 95
9, 137985, Note_on_c, 8, 81, 0
9, 137985, Note_on_c, 8, 83, 90
9, 138000, Note_on_c, 8, 83, 0
9, 138000, Note_on_c, 8, 86, 0
9, 138000, Note_on_c, 8, 60, 84
9, 138000, Note_on_c, 8, 66, 84
9, 138000, Note_on_c, 8, 57, 86
9, 138015, Note_on_c, 8, 57, 0
9, 138015, Note_on_c, 8, 59, 93
9, 138020, Note_on_c, 8, 66, 0
9, 138020, Note_on_c, 8, 60, 0
9, 138020, Note_on_c, 8, 67, 76
9, 138020, Note_on_c, 8, 62, 84
9, 138030, Note_on_c, 8, 59, 0
9, 138030, Note_on_c, 8, 57, 89
9, 138040, Note_on_c, 8, 62, 0
9, 138040, Note_on_c, 8, 67, 0
9, 138040, Note_on_c, 8, 60, 85
9, 138040, Note_on_c, 8, 66, 84
9, 138045, Note_on_c, 8, 57, 0
9, 138045, Note_on_c, 8, 59, 90
9, 138060, Note_on_c, 8, 59, 0
9, 138060, Note_on_c, 8, 66, 0
9, 138060, Note_on_c, 8, 60, 0
9, 138060, Note_on_c, 8, 67, 80
9, 138060, Note_on_c, 8, 62, 81
9, 138060, Note_on_c, 8, 57, 94
9, 138075, Note_on_c, 8, 62, 0
9, 138075, Note_on_c, 8, 67, 0
9, 138075, Note_on_c, 8, 66, 80
9, 138075, Note_on_c, 8, 60, 84
9, 138080, Note_on_c, 8, 57, 0
9, 138080, Note_on_c, 8, 59, 93
9, 138090, Note_on_c, 8, 60, 0
9, 138090, Note_on_c, 8, 66, 0
9, 138090, Note_on_c, 8, 62, 82
9, 138090, Note_on_c, 8, 67, 85
9, 138100, Note_on_c, 8, 59, 0
9, 138100, Note_on_c, 8, 57, 98
9, 138105, Note_on_c, 8, 67, 0
9, 138105, Note_on_c, 8, 62, 0
9, 138105, Note_on_c, 8, 60, 84
9, 138105, Note_on_c, 8, 66, 84
9, 138120, Note_on_c, 8, 66, 0
9, 138120, Note_on_c, 8, 60, 0
9, 138120, Note_on_c, 8, 57, 0
9, 138120, Note_on_c, 8, 78, 74
9, 138120, Note_on_c, 8, 72, 112
9, 138120, Note_on_c, 8, 69, 86
9, 138135, Note_on_c, 8, 69, 0
9, 138135, Note_on_c, 8, 71, 93
9, 138140, Note_on_c, 8, 72, 0
9, 138140, Note_on_c, 8, 78, 0
9, 138140, Note_on_c, 8, 79, 85
9, 138140, Note_on_c, 8, 74, 84
9, 138150, Note_on_c, 8, 71, 0
9, 138150, Note_on_c, 8, 69, 89
9, 138160, Note_on_c, 8, 74, 0
9, 138160, Note_on_c, 8, 79, 0
9, 138160, Note_on_c, 8, 72, 117
9, 138160, Note_on_c, 8, 78, 80
9, 138165, Note_on_c, 8, 69, 0
9, 138165, Note_on_c, 8, 71, 89
9, 138180, Note_on_c, 8, 71, 0
9, 138180, Note_on_c, 8, 78, 0
9, 138180, Note_on_c, 8, 72, 0
9, 138180, Note_on_c, 8, 79, 84
9, 138180, Note_on_c, 8, 74, 89
9, 138180, Note_on_c, 8, 69, 86
9, 138195, Note_on_c, 8, 74, 0
9, 138195, Note_on_c, 8, 79, 0
9, 138195, Note_on_c, 8, 72, 112
9, 138195, Note_on_c, 8, 78, 80
9, 138200, Note_on_c, 8, 69, 0
9, 138200, Note_on_c, 8, 71, 86
9, 138210, Note_on_c, 8, 78, 0
9, 138210, Note_on_c, 8, 72, 0
9, 138210, Note_on_c, 8, 74, 84
9, 138210, Note_on_c, 8, 79, 85
9, 138220, Note_on_c, 8, 71, 0
9, 138220, Note_on_c, 8, 69, 90
9, 138225, Note_on_c, 8, 79, 0
9, 138225, Note_on_c, 8, 74, 0
9, 138225, Note_on_c, 8, 78, 76
9, 138225, Note_on_c, 8, 72, 119
9, 138240, Note_on_c, 8, 72, 0
9, 138240, Note_on_c, 8, 78, 0
9, 138240, Note_on_c, 8, 69, 0
9, 138240, Note_on_c, 8, 90, 84
9, 138240, Note_on_c, 8, 84, 90
9, 138240, Note_on_c, 8, 81, 99
9, 138255, Note_on_c, 8, 81, 0
9, 138255, Note_on_c, 8, 83, 89
9, 138260, Note_on_c, 8, 84, 0
9, 138260, Note_on_c, 8, 90, 0
9, 138260, Note_on_c, 8, 91, 73
9, 138260, Note_on_c, 8, 86, 93
9, 138270, Note_on_c, 8, 83, 0
9, 138270, Note_on_c, 8, 81, 84
9, 138280, Note_on_c, 8, 86, 0
9, 138280, Note_on_c, 8, 91, 0
9, 138280, Note_on_c, 8, 84, 86
9, 138280, Note_on_c, 8, 90, 85
9, 138285, Note_on_c, 8, 81, 0
9, 138285, Note_on_c, 8, 83, 89
9, 138300, Note_on_c, 8, 83, 0
9, 138300, Note_on_c, 8, 90, 0
9, 138300, Note_on_c, 8, 84, 0
9, 138300, Note_on_c, 8, 91, 72
9, 138300, Note_on_c, 8, 86, 99
9, 138300, Note_on_c, 8, 81, 86
9, 138315, Note_on_c, 8, 86, 0
9, 138315, Note_on_c, 8, 91, 0
9, 138315, Note_on_c, 8, 84, 84
9, 138315, Note_on_c, 8, 90, 90
9, 138320, Note_on_c, 8, 81, 0
9, 138320, Note_on_c, 8, 83, 89
9, 138330, Note_on_c, 8, 90, 0
9, 138330, Note_on_c, 8, 84, 0
9, 138330, Note_on_c, 8, 91, 71
9, 138330, Note_on_c, 8, 86, 94
9, 138340, Note_on_c, 8, 83, 0
9, 138340, Note_on_c, 8, 81, 93
9, 138345, Note_on_c, 8, 86, 0
9, 138345, Note_on_c, 8, 91, 0
9, 138345, Note_on_c, 8, 90, 81
9, 138345, Note_on_c, 8, 84, 86
9, 138360, Note_on_c, 8, 84, 0
9, 138360, Note_on_c, 8, 90, 0
9, 138360, Note_on_c, 8, 81, 0
9, 138360, Note_on_c, 8, 91, 77
9, 138360, Note_on_c, 8, 86, 99
9, 138360, Note_on_c, 8, 83, 93
9, 138375, Note_on_c, 8, 83, 0
9, 138375, Note_on_c, 8, 81, 89
9, 138380, Note_on_c, 8, 86, 0
9, 138380, Note_on_c, 8, 91, 0
9, 138380, Note_on_c, 8, 84, 84
9, 138380, Note_on_c, 8, 90, 84
9, 138390, Note_on_c, 8, 81, 0
9, 138390, Note_on_c, 8, 83, 89
9, 138400, Note_on_c, 8, 90, 0
9, 138400, Note_on_c, 8, 84, 0
9, 138400, Note_on_c, 8, 91, 76
9, 138400, Note_on_c, 8, 86, 95
9, 138405, Note_on_c, 8, 83, 0
9, 138405, Note_on_c, 8, 81, 84
9, 138420, Note_on_c, 8, 81, 0
9, 138420, Note_on_c, 8, 86, 0
9, 138420, Note_on_c, 8, 91, 0
9, 138420, Note_on_c, 8, 84, 89
9, 138420, Note_on_c, 8, 90, 84
9, 138420, Note_on_c, 8, 83, 94
9, 138435, Note_on_c, 8, 90, 0
9, 138435, Note_on_c, 8, 84, 0
9, 138435, Note_on_c, 8, 91, 81
9, 138435, Note_on_c, 8, 86, 93
9, 138440, Note_on_c, 8, 83, 0
9, 138440, Note_on_c, 8, 81, 85
9, 138450, Note_on_c, 8, 86, 0
9, 138450, Note_on_c, 8, 91, 0
9, 138450, Note_on_c, 8, 84, 82
9, 138450, Note_on_c, 8, 90, 85
9, 138460, Note_on_c, 8, 81, 0
9, 138460, Note_on_c, 8, 83, 90
9, 138465, Note_on_c, 8, 90, 0
9, 138465, Note_on_c, 8, 84, 0
9, 138465, Note_on_c, 8, 91, 78
9, 138465, Note_on_c, 8, 86, 98
9, 138480, Note_on_c, 8, 86, 0
9, 138480, Note_on_c, 8, 91, 0
9, 138480, Note_on_c, 8, 83, 0
9, 138480, Note_on_c, 8, 84, 84
9, 138480, Note_on_c, 8, 90, 84
9, 138480, Note_on_c, 8, 81, 86
9, 138495, Note_on_c, 8, 81, 0
9, 138495, Note_on_c, 8, 83, 90
9, 138500, Note_on_c, 8, 90, 0
9, 138500, Note_on_c, 8, 84, 0
9, 138500, Note_on_c, 8, 91, 80
9, 138500, Note_on_c, 8, 86, 94
9, 138510, Note_on_c, 8, 83, 0
9, 138510, Note_on_c, 8, 81, 86
9, 138520, Note_on_c, 8, 86, 0
9, 138520, Note_on_c, 8, 91, 0
9, 138520, Note_on_c, 8, 84, 86
9, 138520, Note_on_c, 8, 90, 85
9, 138525, Note_on_c, 8, 81, 0
9, 138525, Note_on_c, 8, 83, 89
9, 138540, Note_on_c, 8, 83, 0
9, 138540, Note_on_c, 8, 90, 0
9, 138540, Note_on_c, 8, 84, 0
9, 138540, Note_on_c, 8, 91, 80
9, 138540, Note_on_c, 8, 86, 94
9, 138540, Note_on_c, 8, 81, 86
9, 138555, Note_on_c, 8, 86, 0
9, 138555, Note_on_c, 8, 91, 0
9, 138555, Note_on_c, 8, 84, 84
9, 138555, Note_on_c, 8, 90, 84
9, 138560, Note_on_c, 8, 81, 0
9, 138560, Note_on_c, 8, 83, 86
9, 138570, Note_on_c, 8, 90, 0
9, 138570, Note_on_c, 8, 84, 0
9, 138570, Note_on_c, 8, 91, 77
9, 138570, Note_on_c, 8, 86, 93
9, 138580, Note_on_c, 8, 83, 0
9, 138580, Note_on_c, 8, 81, 86
9, 138585, Note_on_c, 8, 86, 0
9, 138585, Note_on_c, 8, 91, 0
9, 138585, Note_on_c, 8, 84, 86
9, 138585, Note_on_c, 8, 90, 85
9, 138600, Note_on_c, 8, 90, 0
9, 138600, Note_on_c, 8, 84, 0
9, 138600, Note_on_c, 8, 81, 0
9, 138600, Note_on_c, 8, 91, 84
9, 138600, Note_on_c, 8, 86, 98
9, 138600, Note_on_c, 8, 83, 94
9, 138615, Note_on_c, 8, 83, 0
9, 138615, Note_on_c, 8, 81, 84
9, 138620, Note_on_c, 8, 86, 0
9, 138620, Note_on_c, 8, 91, 0
9, 138620, Note_on_c, 8, 84, 84
9, 138620, Note_on_c, 8, 90, 89
9, 138630, Note_on_c, 8, 81, 0
9, 138630, Note_on_c, 8, 83, 89
9, 138640, Note_on_c, 8, 90, 0
9, 138640, Note_on_c, 8, 84, 0
9, 138640, Note_on_c, 8, 86, 99
9, 138640, Note_on_c, 8, 91, 81
9, 138645, Note_on_c, 8, 83, 0
9, 138645, Note_on_c, 8, 81, 82
9, 138660, Note_on_c, 8, 81, 0
9, 138660, Note_on_c, 8, 91, 0
9, 138660, Note_on_c, 8, 86, 0
9, 138660, Note_on_c, 8, 90, 78
9, 138660, Note_on_c, 8, 84, 86
9, 138660, Note_on_c, 8, 83, 95
9, 138675, Note_on_c, 8, 84, 0
9, 138675, Note_on_c, 8, 90, 0
9, 138675, Note_on_c, 8, 86, 94
9, 138675, Note_on_c, 8, 91, 78
9, 138680, Note_on_c, 8, 83, 0
9, 138680, Note_on_c, 8, 81, 90
9, 138690, Note_on_c, 8, 91, 0
9, 138690, Note_on_c, 8, 86, 0
9, 138690, Note_on_c, 8, 84, 86
9, 138690, Note_on_c, 8, 90, 82
9, 138700, Note_on_c, 8, 81, 0
9, 138700, Note_on_c, 8, 83, 94
9, 138705, Note_on_c, 8, 90, 0
9, 138705, Note_on_c, 8, 84, 0
9, 138705, Note_on_c, 8, 86, 99
9, 138705, Note_on_c, 8, 91, 84
9, 138720, Note_on_c, 8, 91, 0
9, 138720, Note_on_c, 8, 86, 0
9, 138720, Note_on_c, 8, 83, 0
9, 138720, Note_on_c, 8, 84, 81
9, 138720, Note_on_c, 8, 90, 84
9, 138720, Note_on_c, 8, 81, 90
9, 138735, Note_on_c, 8, 81, 0
9, 138735, Note_on_c, 8, 83, 89
9, 138740, Note_on_c, 8, 90, 0
9, 138740, Note_on_c, 8, 84, 0
9, 138740, Note_on_c, 8, 86, 94
9, 138740, Note_on_c, 8, 91, 84
9, 138750, Note_on_c, 8, 83, 0
9, 138750, Note_on_c, 8, 81, 93
9, 138760, Note_on_c, 8, 91, 0
9, 138760, Note_on_c, 8, 86, 0
9, 138760, Note_on_c, 8, 84, 84
9, 138760, Note_on_c, 8, 90, 84
9, 138765, Note_on_c, 8, 81, 0
9, 138765, Note_on_c, 8, 83, 90
9, 138780, Note_on_c, 8, 83, 0
9, 138780, Note_on_c, 8, 90, 0
9, 138780, Note_on_c, 8, 84, 0
9, 138780, Note_on_c, 8, 86, 99
9, 138780, Note_on_c, 8, 91, 85
9, 138780, Note_on_c, 8, 81, 89
9, 138795, Note_on_c, 8, 91, 0
9, 138795, Note_on_c, 8, 86, 0
9, 138795, Note_on_c, 8, 84, 80
9, 138795, Note_on_c, 8, 90, 85
9, 138800, Note_on_c, 8, 81, 0
9, 138800, Note_on_c, 8, 83, 94
9, 138810, Note_on_c, 8, 90, 0
9, 138810, Note_on_c, 8, 84, 0
9, 138810, Note_on_c, 8, 86, 89
9, 138810, Note_on_c, 8, 91, 80
9, 138820, Note_on_c, 8, 83, 0
9, 138820, Note_on_c, 8, 81, 94
9, 138825, Note_on_c, 8, 91, 0
9, 138825, Note_on_c, 8, 86, 0
9, 138825, Note_on_c, 8, 84, 85
9, 138825, Note_on_c, 8, 90, 85
9, 138840, Note_on_c, 8, 90, 0
9, 138840, Note_on_c, 8, 84, 0
9, 138840, Note_on_c, 8, 81, 0
9, 138840, Note_on_c, 8, 86, 94
9, 138840, Note_on_c, 8, 91, 82
9, 138840, Note_on_c, 8, 83, 93
9, 138855, Note_on_c, 8, 83, 0
9, 138855, Note_on_c, 8, 81, 93
9, 138860, Note_on_c, 8, 91, 0
9, 138860, Note_on_c, 8, 86, 0
9, 138860, Note_on_c, 8, 84, 78
9, 138860, Note_on_c, 8, 90, 85
9, 138870, Note_on_c, 8, 81, 0
9, 138870, Note_on_c, 8, 83, 93
9, 138880, Note_on_c, 8, 90, 0
9, 138880, Note_on_c, 8, 84, 0
9, 138880, Note_on_c, 8, 86, 99
9, 138880, Note_on_c, 8, 91, 84
9, 138885, Note_on_c, 8, 83, 0
9, 138885, Note_on_c, 8, 81, 94
9, 138900, Note_on_c, 8, 81, 0
9, 138900, Note_on_c, 8, 91, 0
9, 138900, Note_on_c, 8, 86, 0
9, 138900, Note_on_c, 8, 84, 84
9, 138900, Note_on_c, 8, 90, 76
9, 138900, Note_on_c, 8, 83, 94
9, 138915, Note_on_c, 8, 90, 0
9, 138915, Note_on_c, 8, 84, 0
9, 138915, Note_on_c, 8, 86, 86
9, 138915, Note_on_c, 8, 91, 72
9, 138920, Note_on_c, 8, 83, 0
9, 138920, Note_on_c, 8, 81, 94
9, 138930, Note_on_c, 8, 91, 0
9, 138930, Note_on_c, 8, 86, 0
9, 138930, Note_on_c, 8, 84, 84
9, 138930, Note_on_c, 8, 90, 84
9, 138940, Note_on_c, 8, 81, 0
9, 138940, Note_on_c, 8, 83, 95
9, 138945, Note_on_c, 8, 90, 0
9, 138945, Note_on_c, 8, 84, 0
9, 138945, Note_on_c, 8, 91, 80
9, 138945, Note_on_c, 8, 86, 95
9, 138960, Note_on_c, 8, 86, 0
9, 138960, Note_on_c, 8, 91, 0
9, 138960, Note_on_c, 8, 83, 0
9, 138960, Note_on_c, 8, 80, 81
9, 138960, Note_on_c, 8, 71, 105
9, 138960, Note_on_c, 8, 77, 101
9, 138960, Note_on_c, 8, 74, 110
9, 138960, Note_on_c, 8, 89, 127
9, 139000, Note_on_c, 8, 89, 0
9, 139000, Note_on_c, 8, 88, 105
9, 139040, Note_on_c, 8, 88, 0
9, 139040, Note_on_c, 8, 91, 98
9, 139080, Note_on_c, 8, 91, 0
9, 139080, Note_on_c, 8, 89, 104
9, 139120, Note_on_c, 8, 89, 0
9, 139120, Note_on_c, 8, 88, 99
9, 139160, Note_on_c, 8, 88, 0
9, 139160, Note_on_c, 8, 86, 99
9, 139200, Note_on_c, 8, 86, 0
9, 139200, Note_on_c, 8, 84, 95
9, 139240, Note_on_c, 8, 84, 0
9, 139240, Note_on_c, 8, 83, 95
9, 139280, Note_on_c, 8, 83, 0
9, 139280, Note_on_c, 8, 81, 93
9, 139320, Note_on_c, 8, 81, 0
9, 139320, Note_on_c, 8, 77, 0
9, 139320, Note_on_c, 8, 80, 0
9, 139320, Note_on_c, 8, 71, 0
9, 139320, Note_on_c, 8, 74, 0
9, 139320, Note_on_c, 8, 80, 94
9, 139360, Note_on_c, 8, 80, 0
9, 139360, Note_on_c, 8, 77, 89
9, 139400, Note_on_c, 8, 77, 0
9, 139400, Note_on_c, 8, 76, 89
9, 139440, Note_on_c, 8, 76, 0
9, 139440, Note_on_c, 8, 74, 90
9, 139480, Note_on_c, 8, 74, 0
9, 139480, Note_on_c, 8, 72, 107
9, 139520, Note_on_c, 8, 72, 0
9, 139520, Note_on_c, 8, 71, 86
9, 139560, Note_on_c, 8, 71, 0
9, 139560, Note_on_c, 8, 69, 89
9, 139600, Note_on_c, 8, 69, 0
9, 139600, Note_on_c, 8, 68, 80
9, 139640, Note_on_c, 8, 68, 0
9, 139640, Note_on_c, 8, 77, 81
9, 139720, Note_on_c, 8, 77, 0
9, 139720, Note_on_c, 8, 76, 82
9, 139760, Note_on_c, 8, 76, 0
9, 139760, Note_on_c, 8, 74, 84
9, 139800, Note_on_c, 8, 74, 0
9, 139800, Note_on_c, 8, 72, 105
9, 139800, Note_on_c, 8, 60, 72
9, 139800, Note_on_c, 8, 64, 72
9, 139800, Note_on_c, 8, 69, 73
9, 139840, Note_on_c, 8, 72, 0
9, 139840, Note_on_c, 8, 71, 80
9, 139880, Note_on_c, 8, 71, 0
9, 139880, Note_on_c, 8, 69, 84
9, 139920, Note_on_c, 8, 69, 0
9, 139920, Note_on_c, 8, 60, 0
9, 139920, Note_on_c, 8, 64, 0
9, 139920, Note_on_c, 8, 69, 0
9, 139920, Note_on_c, 8, 76, 81
9, 139960, Note_on_c, 8, 76, 0
9, 139960, Note_on_c, 8, 74, 73
9, 140000, Note_on_c, 8, 74, 0
9, 140000, Note_on_c, 8, 72, 85
9, 140040, Note_on_c, 8, 72, 0
9, 140040, Note_on_c, 8, 71, 69
9, 140040, Note_on_c, 8, 62, 57
9, 140040, Note_on_c, 8, 67, 47
9, 140080, Note_on_c, 8, 71, 0
9, 140080, Note_on_c, 8, 69, 76
9, 140120, Note_on_c, 8, 69, 0
9, 140120, Note_on_c, 8, 67, 64
9, 140160, Note_on_c, 8, 67, 0
9, 140160, Note_on_c, 8, 67, 0
9, 140160, Note_on_c, 8, 62, 0
9, 140160, Note_on_c, 8, 74, 77
9, 140200, Note_on_c, 8, 74, 0
9, 140200, Note_on_c, 8, 72, 94
9, 140240, Note_on_c, 8, 72, 0
9, 140240, Note_on_c, 8, 71, 80
9, 140280, Note_on_c, 8, 71, 0
9, 140280, Note_on_c, 8, 69, 84
9, 140280, Note_on_c, 8, 60, 63
9, 140280, Note_on_c, 8, 62, 62
9, 140320, Note_on_c, 8, 69, 0
9, 140320, Note_on_c, 8, 67, 63
9, 140360, Note_on_c, 8, 67, 0
9, 140360, Note_on_c, 8, 66, 67
9, 140400, Note_on_c, 8, 66, 0
9, 140400, Note_on_c, 8, 62, 0
9, 140400, Note_on_c, 8, 60, 0
9, 140400, Control_c, 8, 64, 99
9, 140400, Note_on_c, 8, 35, 100
9, 140440, Note_on_c, 8, 35, 0
9, 140440, Note_on_c, 8, 38, 95
9, 140480, Note_on_c, 8, 38, 0
9, 140480, Note_on_c, 8, 41, 86
9, 140520, Note_on_c, 8, 41, 0
9, 140520, Note_on_c, 8, 47, 86
9, 140560, Note_on_c, 8, 47, 0
9, 140560, Note_on_c, 8, 50, 95
9, 140600, Note_on_c, 8, 50, 0
9, 140600, Note_on_c, 8, 53, 84
9, 140640, Note_on_c, 8, 53, 0
9, 140640, Note_on_c, 8, 56, 94
9, 140680, Note_on_c, 8, 56, 0
9, 140680, Note_on_c, 8, 59, 94
9, 140720, Note_on_c, 8, 59, 0
9, 140720, Note_on_c, 8, 62, 89
9, 140760, Note_on_c, 8, 62, 0
9, 140760, Note_on_c, 8, 65, 77
9, 140800, Note_on_c, 8, 65, 0
9, 140800, Note_on_c, 8, 68, 68
9, 140840, Note_on_c, 8, 68, 0
9, 140840, Note_on_c, 8, 71, 72
9, 140880, Note_on_c, 8, 71, 0
9, 140880, Note_on_c, 8, 74, 71
9, 140920, Note_on_c, 8, 74, 0
9, 140920, Note_on_c, 8, 77, 66
9, 140960, Note_on_c, 8, 77, 0
9, 140960, Note_on_c, 8, 80, 71
9, 141000, Note_on_c, 8, 80, 0
9, 141000, Note_on_c, 8, 71, 80
9, 141000, Note_on_c, 8, 83, 73
9, 141040, Note_on_c, 8, 83, 0
9, 141040, Note_on_c, 8, 71, 0
9, 141040, Note_on_c, 8, 74, 64
9, 141040, Note_on_c, 8, 86, 57
9, 141080, Note_on_c, 8, 86, 0
9, 141080, Note_on_c, 8, 74, 0
9, 141080, Note_on_c, 8, 77, 58
9, 141080, Note_on_c, 8, 89, 62
9, 141110, Control_c, 8, 64, 0
9, 141160, Note_on_c, 8, 89, 0
9, 141160, Note_on_c, 8, 77, 0
9, 141160, Note_on_c, 8, 76, 64
9, 141160, Note_on_c, 8, 88, 68
9, 141200, Note_on_c, 8, 88, 0
9, 141200, Note_on_c, 8, 76, 0
9, 141200, Note_on_c, 8, 74, 60
9, 141200, Note_on_c, 8, 86, 43
9, 141240, Note_on_c, 8, 86, 0
9, 141240, Note_on_c, 8, 74, 0
9, 141240, Note_on_c, 8, 84, 51
9, 141240, Note_on_c, 8, 72, 40
9, 141280, Note_on_c, 8, 72, 0
9, 141280, Note_on_c, 8, 84, 0
9, 141280, Note_on_c, 8, 83, 65
9, 141280, Note_on_c, 8, 71, 64
9, 141320, Note_on_c, 8, 71, 0
9, 141320, Note_on_c, 8, 83, 0
9, 141320, Note_on_c, 8, 69, 66
9, 141320, Note_on_c, 8, 81, 61
9, 141360, Note_on_c, 8, 81, 0
9, 141360, Note_on_c, 8, 69, 0
9, 141360, Note_on_c, 8, 76, 61
9, 141360, Note_on_c, 8, 88, 43
9, 141400, Note_on_c, 8, 88, 0
9, 141400, Note_on_c, 8, 76, 0
9, 141400, Note_on_c, 8, 86, 58
9, 141400, Note_on_c, 8, 74, 57
9, 141440, Note_on_c, 8, 74, 0
9, 141440, Note_on_c, 8, 86, 0
9, 141440, Note_on_c, 8, 84, 53
9, 141440, Note_on_c, 8, 72, 29
9, 141480, Note_on_c, 8, 72, 0
9, 141480, Note_on_c, 8, 84, 0
9, 141480, Note_on_c, 8, 83, 50
9, 141480, Note_on_c, 8, 71, 57
9, 141520, Note_on_c, 8, 71, 0
9, 141520, Note_on_c, 8, 83, 0
9, 141520, Note_on_c, 8, 69, 68
9, 141520, Note_on_c, 8, 81, 45
9, 141560, Note_on_c, 8, 81, 0
9, 141560, Note_on_c, 8, 69, 0
9, 141560, Note_on_c, 8, 67, 58
9, 141560, Note_on_c, 8, 79, 53
9, 141600, Note_on_c, 8, 79, 0
9, 141600, Note_on_c, 8, 67, 0
9, 141600, Note_on_c, 8, 86, 45
9, 141600, Note_on_c, 8, 74, 38
9, 141640, Note_on_c, 8, 74, 0
9, 141640, Note_on_c, 8, 86, 0
9, 141640, Note_on_c, 8, 84, 44
9, 141640, Note_on_c, 8, 72, 29
9, 141680, Note_on_c, 8, 72, 0
9, 141680, Note_on_c, 8, 84, 0
9, 141680, Note_on_c, 8, 71, 46
9, 141680, Note_on_c, 8, 83, 45
9, 141720, Note_on_c, 8, 83, 0
9, 141720, Note_on_c, 8, 71, 0
9, 141720, Note_on_c, 8, 81, 62
9, 141720, Note_on_c, 8, 69, 57
9, 141760, Note_on_c, 8, 69, 0
9, 141760, Note_on_c, 8, 81, 0
9, 141760, Note_on_c, 8, 67, 58
9, 141760, Note_on_c, 8, 79, 61
9, 141800, Note_on_c, 8, 79, 0
9, 141800, Note_on_c, 8, 67, 0
9, 141800, Note_on_c, 8, 66, 72
9, 141800, Note_on_c, 8, 78, 54
9, 141840, Note_on_c, 8, 78, 0
9, 141840, Note_on_c, 8, 66, 0
9, 141840, Note_on_c, 8, 62, 53
9, 141850, Control_c, 8, 7, 122
9, 141870, Note_on_c, 8, 74, 43
9, 141900, Note_on_c, 8, 74, 0
9, 141900, Note_on_c, 8, 83, 65
9, 141930, Note_on_c, 8, 83, 0
9, 141930, Note_on_c, 8, 79, 59
9, 141960, Note_on_c, 8, 79, 0
9, 141960, Note_on_c, 8, 62, 0
9, 141960, Note_on_c, 8, 86, 44
9, 141990, Note_on_c, 8, 67, 43
9, 142020, Note_on_c, 8, 67, 0
9, 142020, Note_on_c, 8, 71, 40
9, 142050, Note_on_c, 8, 71, 0
9, 142050, Note_on_c, 8, 74, 43
9, 142080, Note_on_c, 8, 74, 0
9, 142080, Note_on_c, 8, 86, 0
9, 142080, Note_on_c, 8, 62, 50
9, 142110, Note_on_c, 8, 74, 38
9, 142140, Note_on_c, 8, 74, 0
9, 142140, Note_on_c, 8, 83, 43
9, 142170, Note_on_c, 8, 83, 0
9, 142170, Note_on_c, 8, 79, 45
9, 142200, Note_on_c, 8, 79, 0
9, 142200, Note_on_c, 8, 62, 0
9, 142200, Note_on_c, 8, 86, 45
9, 142230, Note_on_c, 8, 67, 43
9, 142260, Note_on_c, 8, 67, 0
9, 142260, Note_on_c, 8, 71, 46
9, 142290, Note_on_c, 8, 71, 0
9, 142290, Note_on_c, 8, 74, 38
9, 142320, Note_on_c, 8, 74, 0
9, 142320, Note_on_c, 8, 86, 0
9, 142320, Note_on_c, 8, 64, 44
9, 142350, Note_on_c, 8, 76, 44
9, 142380, Note_on_c, 8, 76, 0
9, 142380, Note_on_c, 8, 84, 54
9, 142410, Note_on_c, 8, 84, 0
9, 142410, Note_on_c, 8, 79, 56
9, 142440, Note_on_c, 8, 79, 0
9, 142440, Note_on_c, 8, 64, 0
9, 142440, Note_on_c, 8, 88, 45
9, 142470, Note_on_c, 8, 67, 44
9, 142500, Note_on_c, 8, 67, 0
9, 142500, Note_on_c, 8, 72, 29
9, 142530, Note_on_c, 8, 72, 0
9, 142530, Note_on_c, 8, 76, 53
9, 142560, Note_on_c, 8, 76, 0
9, 142560, Note_on_c, 8, 88, 0
9, 142560, Note_on_c, 8, 64, 67
9, 142590, Note_on_c, 8, 76, 56
9, 142620, Note_on_c, 8, 76, 0
9, 142620, Note_on_c, 8, 84, 40
9, 142650, Note_on_c, 8, 84, 0
9, 142650, Note_on_c, 8, 79, 52
9, 142680, Note_on_c, 8, 79, 0
9, 142680, Note_on_c, 8, 64, 0
9, 142680, Note_on_c, 8, 88, 57
9, 142710, Note_on_c, 8, 67, 40
9, 142740, Note_on_c, 8, 67, 0
9, 142740, Note_on_c, 8, 72, 29
9, 142770, Note_on_c, 8, 72, 0
9, 142770, Note_on_c, 8, 76, 45
9, 142800, Note_on_c, 8, 76, 0
9, 142800, Note_on_c, 8, 88, 0
9, 142800, Note_on_c, 8, 64, 49
9, 142830, Note_on_c, 8, 76, 58
9, 142860, Note_on_c, 8, 76, 0
9, 142860, Note_on_c, 8, 84, 36
9, 142890, Note_on_c, 8, 84, 0
9, 142890, Note_on_c, 8, 81, 38
9, 142920, Note_on_c, 8, 81, 0
9, 142920, Note_on_c, 8, 64, 0
9, 142920, Note_on_c, 8, 88, 40
9, 142950, Note_on_c, 8, 69, 61
9, 142980, Note_on_c, 8, 69, 0
9, 142980, Note_on_c, 8, 72, 49
9, 143010, Note_on_c, 8, 72, 0
9, 143010, Note_on_c, 8, 76, 69
9, 143040, Note_on_c, 8, 76, 0
9, 143040, Note_on_c, 8, 88, 0
9, 143040, Note_on_c, 8, 66, 56
9, 143070, Note_on_c, 8, 74, 45
9, 143100, Note_on_c, 8, 74, 0
9, 143100, Note_on_c, 8, 84, 53
9, 143130, Note_on_c, 8, 84, 0
9, 143130, Note_on_c, 8, 81, 43
9, 143160, Note_on_c, 8, 81, 0
9, 143160, Note_on_c, 8, 66, 0
9, 143160, Note_on_c, 8, 86, 44
9, 143190, Note_on_c, 8, 69, 54
9, 143220, Note_on_c, 8, 69, 0
9, 143220, Note_on_c, 8, 72, 32
9, 143250, Note_on_c, 8, 72, 0
9, 143250, Note_on_c, 8, 74, 43
9, 143280, Note_on_c, 8, 74, 0
9, 143280, Note_on_c, 8, 86, 0
9, 143280, Note_on_c, 8, 62, 49
9, 143310, Note_on_c, 8, 74, 42
9, 143340, Note_on_c, 8, 74, 0
9, 143340, Note_on_c, 8, 84, 60
9, 143370, Note_on_c, 8, 84, 0
9, 143370, Note_on_c, 8, 81, 33
9, 143400, Note_on_c, 8, 81, 0
9, 143400, Note_on_c, 8, 62, 0
9, 143400, Note_on_c, 8, 86, 64
9, 143430, Note_on_c, 8, 69, 60
9, 143460, Note_on_c, 8, 69, 0
9, 143460, Note_on_c, 8, 72, 29
9, 143490, Note_on_c, 8, 72, 0
9, 143490, Note_on_c, 8, 74, 43
9, 143520, Note_on_c, 8, 74, 0
9, 143520, Note_on_c, 8, 86, 0
9, 143520, Note_on_c, 8, 62, 45
9, 143550, Note_on_c, 8, 74, 43
9, 143580, Note_on_c, 8, 74, 0
9, 143580, Note_on_c, 8, 83, 41
9, 143610, Note_on_c, 8, 83, 0
9, 143610, Note_on_c, 8, 79, 45
9, 143640, Note_on_c, 8, 79, 0
9, 143640, Note_on_c, 8, 62, 0
9, 143640, Note_on_c, 8, 86, 36
9, 143670, Note_on_c, 8, 67, 44
9, 143700, Note_on_c, 8, 67, 0
9, 143700, Note_on_c, 8, 71, 43
9, 143730, Note_on_c, 8, 71, 0
9, 143730, Note_on_c, 8, 74, 52
9, 143760, Note_on_c, 8, 74, 0
9, 143760, Note_on_c, 8, 86, 0
9, 143760, Note_on_c, 8, 62, 49
9, 143790, Note_on_c, 8, 74, 46
9, 143820, Note_on_c, 8, 74, 0
9, 143820, Note_on_c, 8, 81, 40
9, 143850, Note_on_c, 8, 81, 0
9, 143850, Note_on_c, 8, 78, 56
9, 143880, Note_on_c, 8, 78, 0
9, 143880, Note_on_c, 8, 62, 0
9, 143880, Note_on_c, 8, 86, 46
9, 143910, Note_on_c, 8, 66, 46
9, 143940, Note_on_c, 8, 66, 0
9, 143940, Note_on_c, 8, 69, 32
9, 143970, Note_on_c, 8, 69, 0
9, 143970, Note_on_c, 8, 74, 40
9, 144000, Note_on_c, 8, 74, 0
9, 144000, Note_on_c, 8, 86, 0
9, 144000, Note_on_c, 8, 62, 42
9, 144030, Note_on_c, 8, 74, 65
9, 144060, Note_on_c, 8, 74, 0
9, 144060, Note_on_c, 8, 79, 57
9, 144090, Note_on_c, 8, 79, 0
9, 144090, Note_on_c, 8, 83, 50
9, 144120, Note_on_c, 8, 83, 0
9, 144120, Note_on_c, 8, 62, 0
9, 144120, Note_on_c, 8, 73, 58
9, 144120, Note_on_c, 8, 59, 46
9, 144120, Note_on_c, 8, 62, 43
9, 144150, Note_on_c, 8, 73, 0
9, 144150, Note_on_c, 8, 74, 76
9, 144180, Note_on_c, 8, 74, 0
9, 144180, Note_on_c, 8, 76, 53
9, 144210, Note_on_c, 8, 76, 0
9, 144210, Note_on_c, 8, 74, 53
9, 144240, Note_on_c, 8, 74, 0
9, 144240, Note_on_c, 8, 73, 49
9, 144270, Note_on_c, 8, 73, 0
9, 144270, Note_on_c, 8, 74, 73
9, 144300, Note_on_c, 8, 74, 0
9, 144300, Note_on_c, 8, 76, 69
9, 144330, Note_on_c, 8, 76, 0
9, 144330, Note_on_c, 8, 74, 44
9, 144360, Note_on_c, 8, 74, 0
9, 144360, Note_on_c, 8, 62, 0
9, 144360, Note_on_c, 8, 59, 0
9, 144360, Note_on_c, 8, 78, 51
9, 144360, Note_on_c, 8, 67, 40
9, 144360, Note_on_c, 8, 62, 42
9, 144390, Note_on_c, 8, 78, 0
9, 144390, Note_on_c, 8, 79, 64
9, 144420, Note_on_c, 8, 79, 0
9, 144420, Note_on_c, 8, 62, 0
9, 144420, Note_on_c, 8, 67, 0
9, 144420, Note_on_c, 8, 81, 46
9, 144420, Note_on_c, 8, 71, 46
9, 144420, Note_on_c, 8, 67, 45
9, 144450, Note_on_c, 8, 81, 0
9, 144450, Note_on_c, 8, 79, 57
9, 144480, Note_on_c, 8, 79, 0
9, 144480, Note_on_c, 8, 67, 0
9, 144480, Note_on_c, 8, 71, 0
9, 144480, Note_on_c, 8, 82, 53
9, 144480, Note_on_c, 8, 71, 54
9, 144480, Note_on_c, 8, 74, 46
9, 144510, Note_on_c, 8, 82, 0
9, 144510, Note_on_c, 8, 83, 61
9, 144540, Note_on_c, 8, 83, 0
9, 144540, Note_on_c, 8, 84, 56
9, 144570, Note_on_c, 8, 84, 0
9, 144570, Note_on_c, 8, 83, 60
9, 144600, Note_on_c, 8, 83, 0
9, 144600, Note_on_c, 8, 85, 61
9, 144630, Note_on_c, 8, 85, 0
9, 144630, Note_on_c, 8, 86, 69
9, 144660, Note_on_c, 8, 86, 0
9, 144660, Note_on_c, 8, 88, 59
9, 144690, Note_on_c, 8, 88, 0
9, 144690, Note_on_c, 8, 86, 64
9, 144720, Note_on_c, 8, 86, 0
9, 144720, Note_on_c, 8, 74, 0
9, 144720, Note_on_c, 8, 71, 0
9, 144720, Note_on_c, 8, 75, 67
9, 144720, Note_on_c, 8, 64, 44
9, 144720, Note_on_c, 8, 60, 44
9, 144750, Note_on_c, 8, 75, 0
9, 144750, Note_on_c, 8, 76, 45
9, 144780, Note_on_c, 8, 76, 0
9, 144780, Note_on_c, 8, 77, 41
9, 144810, Note_on_c, 8, 77, 0
9, 144810, Note_on_c, 8, 76, 68
9, 144840, Note_on_c, 8, 76, 0
9, 144840, Note_on_c, 8, 60, 0
9, 144840, Note_on_c, 8, 64, 0
9, 144840, Note_on_c, 8, 78, 61
9, 144840, Note_on_c, 8, 67, 40
9, 144840, Note_on_c, 8, 64, 44
9, 144870, Note_on_c, 8, 78, 0
9, 144870, Note_on_c, 8, 79, 64
9, 144900, Note_on_c, 8, 79, 0
9, 144900, Note_on_c, 8, 64, 0
9, 144900, Note_on_c, 8, 67, 0
9, 144900, Note_on_c, 8, 81, 66
9, 144900, Note_on_c, 8, 67, 52
9, 144900, Note_on_c, 8, 72, 29
9, 144930, Note_on_c, 8, 81, 0
9, 144930, Note_on_c, 8, 79, 64
9, 144960, Note_on_c, 8, 79, 0
9, 144960, Note_on_c, 8, 72, 0
9, 144960, Note_on_c, 8, 67, 0
9, 144960, Note_on_c, 8, 83, 65
9, 144960, Note_on_c, 8, 76, 44
9, 144960, Note_on_c, 8, 72, 29
9, 144990, Note_on_c, 8, 83, 0
9, 144990, Note_on_c, 8, 84, 56
9, 145020, Note_on_c, 8, 84, 0
9, 145020, Note_on_c, 8, 86, 71
9, 145050, Note_on_c, 8, 86, 0
9, 145050, Note_on_c, 8, 84, 58
9, 145080, Note_on_c, 8, 84, 0
9, 145080, Note_on_c, 8, 87, 69
9, 145110, Note_on_c, 8, 87, 0
9, 145110, Note_on_c, 8, 88, 70
9, 145140, Note_on_c, 8, 88, 0
9, 145140, Note_on_c, 8, 89, 52
9, 145170, Note_on_c, 8, 89, 0
9, 145170, Note_on_c, 8, 88, 80
9, 145200, Note_on_c, 8, 88, 0
9, 145200, Note_on_c, 8, 72, 0
9, 145200, Note_on_c, 8, 76, 0
9, 145200, Note_on_c, 8, 87, 62
9, 145200, Note_on_c, 8, 76, 56
9, 145200, Note_on_c, 8, 72, 36
9, 145230, Note_on_c, 8, 87, 0
9, 145230, Note_on_c, 8, 88, 53
9, 145260, Note_on_c, 8, 88, 0
9, 145260, Note_on_c, 8, 89, 65
9, 145290, Note_on_c, 8, 89, 0
9, 145290, Note_on_c, 8, 88, 62
9, 145320, Note_on_c, 8, 88, 0
9, 145320, Note_on_c, 8, 72, 0
9, 145320, Note_on_c, 8, 76, 0
9, 145320, Note_on_c, 8, 83, 54
9, 145320, Note_on_c, 8, 69, 64
9, 145320, Note_on_c, 8, 72, 29
9, 145350, Note_on_c, 8, 83, 0
9, 145350, Note_on_c, 8, 84, 40
9, 145380, Note_on_c, 8, 84, 0
9, 145380, Note_on_c, 8, 86, 58
9, 145410, Note_on_c, 8, 86, 0
9, 145410, Note_on_c, 8, 84, 59
9, 145440, Note_on_c, 8, 84, 0
9, 145440, Note_on_c, 8, 72, 0
9, 145440, Note_on_c, 8, 69, 0
9, 145440, Note_on_c, 8, 80, 49
9, 145440, Note_on_c, 8, 69, 43
9, 145440, Note_on_c, 8, 66, 42
9, 145470, Note_on_c, 8, 80, 0
9, 145470, Note_on_c, 8, 81, 64
9, 145500, Note_on_c, 8, 81, 0
9, 145500, Note_on_c, 8, 83, 61
9, 145530, Note_on_c, 8, 83, 0
9, 145530, Note_on_c, 8, 81, 72
9, 145560, Note_on_c, 8, 81, 0
9, 145560, Note_on_c, 8, 80, 62
9, 145590, Note_on_c, 8, 80, 0
9, 145590, Note_on_c, 8, 81, 64
9, 145620, Note_on_c, 8, 81, 0
9, 145620, Note_on_c, 8, 83, 63
9, 145650, Note_on_c, 8, 83, 0
9, 145650, Note_on_c, 8, 81, 45
9, 145680, Note_on_c, 8, 81, 0
9, 145680, Note_on_c, 8, 80, 57
9, 145710, Note_on_c, 8, 80, 0
9, 145710, Note_on_c, 8, 81, 58
9, 145740, Note_on_c, 8, 81, 0
9, 145740, Note_on_c, 8, 83, 62
9, 145770, Note_on_c, 8, 83, 0
9, 145770, Note_on_c, 8, 81, 52
9, 145800, Note_on_c, 8, 81, 0
9, 145800, Note_on_c, 8, 66, 0
9, 145800, Note_on_c, 8, 69, 0
9, 145800, Note_on_c, 8, 85, 43
9, 145800, Note_on_c, 8, 62, 43
9, 145800, Note_on_c, 8, 74, 50
9, 145830, Note_on_c, 8, 85, 0
9, 145830, Note_on_c, 8, 86, 57
9, 145860, Note_on_c, 8, 86, 0
9, 145860, Note_on_c, 8, 88, 45
9, 145890, Note_on_c, 8, 88, 0
9, 145890, Note_on_c, 8, 86, 62
9, 145920, Note_on_c, 8, 86, 0
9, 145920, Note_on_c, 8, 74, 0
9, 145920, Note_on_c, 8, 62, 0
9, 145920, Note_on_c, 8, 82, 48
9, 145920, Note_on_c, 8, 71, 54
9, 145920, Note_on_c, 8, 67, 53
9, 145950, Note_on_c, 8, 82, 0
9, 145950, Note_on_c, 8, 83, 54
9, 145980, Note_on_c, 8, 83, 0
9, 145980, Note_on_c, 8, 84, 58
9, 146010, Note_on_c, 8, 84, 0
9, 146010, Note_on_c, 8, 83, 56
9, 146040, Note_on_c, 8, 83, 0
9, 146040, Note_on_c, 8, 67, 0
9, 146040, Note_on_c, 8, 71, 0
9, 146040, Note_on_c, 8, 78, 44
9, 146040, Note_on_c, 8, 67, 40
9, 146040, Note_on_c, 8, 59, 45
9, 146070, Note_on_c, 8, 78, 0
9, 146070, Note_on_c, 8, 79, 60
9, 146100, Note_on_c, 8, 79, 0
9, 146100, Note_on_c, 8, 81, 52
9, 146130, Note_on_c, 8, 81, 0
9, 146130, Note_on_c, 8, 79, 54
9, 146160, Note_on_c, 8, 79, 0
9, 146160, Note_on_c, 8, 59, 0
9, 146160, Note_on_c, 8, 67, 0
9, 146160, Note_on_c, 8, 80, 53
9, 146160, Note_on_c, 8, 69, 66
9, 146160, Note_on_c, 8, 60, 57
9, 146190, Note_on_c, 8, 80, 0
9, 146190, Note_on_c, 8, 81, 61
9, 146220, Note_on_c, 8, 81, 0
9, 146220, Note_on_c, 8, 83, 53
9, 146250, Note_on_c, 8, 83, 0
9, 146250, Note_on_c, 8, 81, 47
9, 146280, Note_on_c, 8, 81, 0
9, 146280, Note_on_c, 8, 60, 0
9, 146280, Note_on_c, 8, 69, 0
9, 146280, Note_on_c, 8, 73, 43
9, 146280, Note_on_c, 8, 62, 52
9, 146280, Note_on_c, 8, 60, 50
9, 146310, Note_on_c, 8, 73, 0
9, 146310, Note_on_c, 8, 74, 76
9, 146340, Note_on_c, 8, 74, 0
9, 146340, Note_on_c, 8, 76, 63
9, 146370, Note_on_c, 8, 76, 0
9, 146370, Note_on_c, 8, 74, 64
9, 146400, Note_on_c, 8, 74, 0
9, 146400, Note_on_c, 8, 60, 0
9, 146400, Note_on_c, 8, 62, 0
9, 146400, Note_on_c, 8, 70, 61
9, 146400, Note_on_c, 8, 59, 69
9, 146430, Note_on_c, 8, 70, 0
9, 146430, Note_on_c, 8, 71, 72
9, 146460, Note_on_c, 8, 71, 0
9, 146460, Note_on_c, 8, 72, 62
9, 146490, Note_on_c, 8, 72, 0
9, 146490, Note_on_c, 8, 71, 61
9, 146520, Note_on_c, 8, 71, 0
9, 146520, Note_on_c, 8, 59, 0
9, 146520, Note_on_c, 8, 78, 44
9, 146520, Note_on_c, 8, 67, 50
9, 146520, Note_on_c, 8, 59, 44
9, 146550, Note_on_c, 8, 78, 0
9, 146550, Note_on_c, 8, 79, 52
9, 146580, Note_on_c, 8, 79, 0
9, 146580, Note_on_c, 8, 81, 61
9, 146610, Note_on_c, 8, 81, 0
9, 146610, Note_on_c, 8, 79, 53
9, 146640, Note_on_c, 8, 79, 0
9, 146640, Note_on_c, 8, 59, 0
9, 146640, Note_on_c, 8, 67, 0
9, 146640, Note_on_c, 8, 80, 57
9, 146640, Note_on_c, 8, 69, 64
9, 146640, Note_on_c, 8, 60, 53
9, 146670, Note_on_c, 8, 80, 0
9, 146670, Note_on_c, 8, 81, 61
9, 146700, Note_on_c, 8, 81, 0
9, 146700, Note_on_c, 8, 83, 43
9, 146730, Note_on_c, 8, 83, 0
9, 146730, Note_on_c, 8, 81, 59
9, 146760, Note_on_c, 8, 81, 0
9, 146760, Note_on_c, 8, 60, 0
9, 146760, Note_on_c, 8, 69, 0
9, 146760, Note_on_c, 8, 73, 63
9, 146760, Note_on_c, 8, 60, 44
9, 146760, Note_on_c, 8, 62, 45
9, 146790, Note_on_c, 8, 73, 0
9, 146790, Note_on_c, 8, 74, 72
9, 146820, Note_on_c, 8, 74, 0
9, 146820, Note_on_c, 8, 76, 67
9, 146850, Note_on_c, 8, 76, 0
9, 146850, Note_on_c, 8, 74, 68
9, 146880, Note_on_c, 8, 74, 0
9, 146880, Note_on_c, 8, 62, 0
9, 146880, Note_on_c, 8, 60, 0
9, 146880, Note_on_c, 8, 70, 66
9, 146880, Note_on_c, 8, 59, 62
9, 146910, Note_on_c, 8, 70, 0
9, 146910, Note_on_c, 8, 71, 63
9, 146940, Note_on_c, 8, 71, 0
9, 146940, Note_on_c, 8, 72, 29
9, 146970, Note_on_c, 8, 72, 0
9, 146970, Note_on_c, 8, 71, 67
9, 147000, Note_on_c, 8, 71, 0
9, 147000, Note_on_c, 8, 59, 0
9, 147000, Note_on_c, 8, 78, 53
9, 147000, Note_on_c, 8, 59, 44
9, 147000, Note_on_c, 8, 67, 43
9, 147030, Note_on_c, 8, 78, 0
9, 147030, Note_on_c, 8, 79, 60
9, 147060, Note_on_c, 8, 79, 0
9, 147060, Note_on_c, 8, 81, 63
9, 147090, Note_on_c, 8, 81, 0
9, 147090, Note_on_c, 8, 79, 60
9, 147120, Note_on_c, 8, 79, 0
9, 147120, Note_on_c, 8, 67, 0
9, 147120, Note_on_c, 8, 59, 0
9, 147120, Note_on_c, 8, 80, 67
9, 147120, Note_on_c, 8, 69, 52
9, 147120, Note_on_c, 8, 60, 45
9, 147150, Note_on_c, 8, 80, 0
9, 147150, Note_on_c, 8, 81, 58
9, 147180, Note_on_c, 8, 81, 0
9, 147180, Note_on_c, 8, 83, 58
9, 147210, Note_on_c, 8, 83, 0
9, 147210, Note_on_c, 8, 81, 53
9, 147240, Note_on_c, 8, 81, 0
9, 147240, Note_on_c, 8, 60, 0
9, 147240, Note_on_c, 8, 69, 0
9, 147240, Note_on_c, 8, 73, 43
9, 147240, Note_on_c, 8, 62, 38
9, 147240, Note_on_c, 8, 60, 41
9, 147270, Note_on_c, 8, 73, 0
9, 147270, Note_on_c, 8, 74, 50
9, 147300, Note_on_c, 8, 74, 0
9, 147300, Note_on_c, 8, 76, 50
9, 147330, Note_on_c, 8, 76, 0
9, 147330, Note_on_c, 8, 74, 57
9, 147360, Note_on_c, 8, 74, 0
9, 147360, Note_on_c, 8, 60, 0
9, 147360, Note_on_c, 8, 62, 0
9, 147360, Note_on_c, 8, 80, 38
9, 147360, Note_on_c, 8, 69, 43
9, 147360, Note_on_c, 8, 60, 38
9, 147390, Note_on_c, 8, 80, 0
9, 147390, Note_on_c, 8, 81, 46
9, 147420, Note_on_c, 8, 81, 0
9, 147420, Note_on_c, 8, 83, 44
9, 147450, Note_on_c, 8, 83, 0
9, 147450, Note_on_c, 8, 81, 43
9, 147480, Note_on_c, 8, 81, 0
9, 147480, Note_on_c, 8, 60, 0
9, 147480, Note_on_c, 8, 69, 0
9, 147480, Note_on_c, 8, 73, 40
9, 147480, Note_on_c, 8, 62, 43
9, 147480, Note_on_c, 8, 60, 40
9, 147510, Note_on_c, 8, 73, 0
9, 147510, Note_on_c, 8, 74, 45
9, 147540, Note_on_c, 8, 74, 0
9, 147540, Note_on_c, 8, 76, 43
9, 147570, Note_on_c, 8, 76, 0
9, 147570, Note_on_c, 8, 74, 43
9, 147600, Note_on_c, 8, 74, 0
9, 147600, Note_on_c, 8, 60, 0
9, 147600, Note_on_c, 8, 62, 0
9, 147600, Note_on_c, 8, 80, 39
9, 147600, Control_c, 8, 7, 122
9, 147600, Note_on_c, 8, 69, 43
9, 147600, Note_on_c, 8, 60, 35
9, 147630, Note_on_c, 8, 80, 0
9, 147630, Note_on_c, 8, 81, 40
9, 147650, Control_c, 8, 7, 123
9, 147660, Note_on_c, 8, 81, 0
9, 147660, Note_on_c, 8, 83, 37
9, 147690, Note_on_c, 8, 83, 0
9, 147690, Note_on_c, 8, 81, 40
9, 147700, Control_c, 8, 7, 124
9, 147720, Note_on_c, 8, 81, 0
9, 147720, Note_on_c, 8, 60, 0
9, 147720, Note_on_c, 8, 69, 0
9, 147720, Note_on_c, 8, 73, 35
9, 147720, Note_on_c, 8, 60, 33
9, 147720, Note_on_c, 8, 62, 35
9, 147745, Control_c, 8, 7, 125
9, 147750, Note_on_c, 8, 73, 0
9, 147750, Note_on_c, 8, 74, 40
9, 147780, Note_on_c, 8, 74, 0
9, 147780, Note_on_c, 8, 76, 29
9, 147795, Control_c, 8, 7, 126
9, 147810, Note_on_c, 8, 76, 0
9, 147810, Note_on_c, 8, 74, 35
9, 147840, Note_on_c, 8, 74, 0
9, 147840, Note_on_c, 8, 62, 0
9, 147840, Note_on_c, 8, 60, 0
9, 147840, Note_on_c, 8, 80, 40
9, 147840, Control_c, 8, 7, 127
9, 147840, Note_on_c, 8, 60, 29
9, 147840, Note_on_c, 8, 69, 29
9, 147870, Note_on_c, 8, 80, 0
9, 147870, Note_on_c, 8, 81, 38
9, 147900, Note_on_c, 8, 81, 0
9, 147900, Note_on_c, 8, 83, 40
9, 147930, Note_on_c, 8, 83, 0
9, 147930, Note_on_c, 8, 81, 38
9, 147960, Note_on_c, 8, 81, 0
9, 147960, Note_on_c, 8, 69, 0
9, 147960, Note_on_c, 8, 60, 0
9, 147960, Note_on_c, 8, 73, 40
9, 147960, Note_on_c, 8, 60, 37
9, 147960, Note_on_c, 8, 62, 34
9, 147990, Note_on_c, 8, 73, 0
9, 147990, Note_on_c, 8, 74, 45
9, 148020, Note_on_c, 8, 74, 0
9, 148020, Note_on_c, 8, 76, 39
9, 148050, Note_on_c, 8, 76, 0
9, 148050, Note_on_c, 8, 74, 45
9, 148080, Note_on_c, 8, 74, 0
9, 148080, Note_on_c, 8, 62, 0
9, 148080, Note_on_c, 8, 60, 0
9, 148080, Note_on_c, 8, 79, 40
9, 148080, Note_on_c, 8, 83, 44
9, 148080, Note_on_c, 8, 71, 41
9, 148080, Note_on_c, 8, 67, 42
9, 148170, Note_on_c, 8, 67, 0
9, 148170, Note_on_c, 8, 79, 0
9, 148170, Note_on_c, 8, 83, 0
9, 148170, Note_on_c, 8, 71, 0
9, 148200, Note_on_c, 8, 84, 40
9, 148200, Note_on_c, 8, 81, 29
9, 148200, Note_on_c, 8, 69, 50
9, 148200, Note_on_c, 8, 72, 29
9, 148290, Note_on_c, 8, 72, 0
9, 148290, Note_on_c, 8, 84, 0
9, 148290, Note_on_c, 8, 81, 0
9, 148290, Note_on_c, 8, 69, 0
9, 148320, Note_on_c, 8, 83, 40
9, 148320, Note_on_c, 8, 86, 39
9, 148320, Note_on_c, 8, 71, 48
9, 148320, Note_on_c, 8, 74, 44
9, 148410, Note_on_c, 8, 74, 0
9, 148410, Note_on_c, 8, 83, 0
9, 148410, Note_on_c, 8, 86, 0
9, 148410, Note_on_c, 8, 71, 0
9, 148440, Note_on_c, 8, 91, 43
9, 148440, Note_on_c, 8, 83, 39
9, 148440, Note_on_c, 8, 86, 40
9, 148440, Note_on_c, 8, 71, 44
9, 148440, Note_on_c, 8, 74, 43
9, 148530, Note_on_c, 8, 74, 0
9, 148530, Note_on_c, 8, 86, 0
9, 148530, Note_on_c, 8, 91, 0
9, 148530, Note_on_c, 8, 83, 0
9, 148530, Note_on_c, 8, 71, 0
9, 148560, Note_on_c, 8, 90, 33
9, 148560, Note_on_c, 8, 84, 40
9, 148560, Note_on_c, 8, 81, 29
9, 148560, Note_on_c, 8, 69, 62
9, 148560, Note_on_c, 8, 72, 29
9, 148650, Note_on_c, 8, 72, 0
9, 148650, Note_on_c, 8, 81, 0
9, 148650, Note_on_c, 8, 90, 0
9, 148650, Note_on_c, 8, 84, 0
9, 148650, Note_on_c, 8, 69, 0
9, 148680, Note_on_c, 8, 79, 40
9, 148680, Note_on_c, 8, 88, 32
9, 148680, Note_on_c, 8, 83, 29
9, 148680, Note_on_c, 8, 67, 43
9, 148680, Note_on_c, 8, 71, 45
9, 148770, Note_on_c, 8, 71, 0
9, 148770, Note_on_c, 8, 83, 0
9, 148770, Note_on_c, 8, 79, 0
9, 148770, Note_on_c, 8, 88, 0
9, 148770, Note_on_c, 8, 67, 0
9, 148800, Note_on_c, 8, 78, 37
9, 148800, Note_on_c, 8, 86, 45
9, 148800, Note_on_c, 8, 81, 43
9, 148800, Note_on_c, 8, 69, 50
9, 148800, Note_on_c, 8, 66, 45
9, 148890, Note_on_c, 8, 66, 0
9, 148890, Note_on_c, 8, 81, 0
9, 148890, Note_on_c, 8, 78, 0
9, 148890, Note_on_c, 8, 86, 0
9, 148890, Note_on_c, 8, 69, 0
9, 148920, Note_on_c, 8, 74, 42
9, 148920, Note_on_c, 8, 84, 40
9, 148920, Note_on_c, 8, 78, 44
9, 148920, Note_on_c, 8, 66, 43
9, 148920, Note_on_c, 8, 62, 46
9, 149010, Note_on_c, 8, 62, 0
9, 149010, Note_on_c, 8, 78, 0
9, 149010, Note_on_c, 8, 74, 0
9, 149010, Note_on_c, 8, 84, 0
9, 149010, Note_on_c, 8, 66, 0
9, 149040, Control_c, 8, 7, 123
9, 149040, Note_on_c, 8, 79, 48
9, 149040, Note_on_c, 8, 67, 43
9, 149040, Note_on_c, 8, 71, 45
9, 149075, Control_c, 8, 7, 122
9, 149100, Note_on_c, 8, 79, 0
9, 149100, Note_on_c, 8, 83, 42
9, 149105, Control_c, 8, 7, 121
9, 149135, Control_c, 8, 7, 120
9, 149160, Note_on_c, 8, 83, 0
9, 149160, Note_on_c, 8, 71, 0
9, 149160, Note_on_c, 8, 67, 0
9, 149160, Note_on_c, 8, 81, 34
9, 149160, Note_on_c, 8, 69, 45
9, 149160, Note_on_c, 8, 72, 50
9, 149165, Control_c, 8, 7, 119
9, 149195, Control_c, 8, 7, 118
9, 149220, Note_on_c, 8, 81, 0
9, 149220, Note_on_c, 8, 84, 52
9, 149230, Control_c, 8, 7, 117
9, 149260, Control_c, 8, 7, 116
9, 149280, Note_on_c, 8, 84, 0
9, 149280, Note_on_c, 8, 72, 0
9, 149280, Note_on_c, 8, 69, 0
9, 149280, Note_on_c, 8, 83, 62
9, 149280, Note_on_c, 8, 71, 43
9, 149280, Note_on_c, 8, 74, 43
9, 149290, Control_c, 8, 7, 115
9, 149320, Control_c, 8, 7, 114
9, 149340, Note_on_c, 8, 83, 0
9, 149340, Note_on_c, 8, 86, 41
9, 149350, Control_c, 8, 7, 113
9, 149380, Control_c, 8, 7, 112
9, 149400, Note_on_c, 8, 86, 0
9, 149400, Note_on_c, 8, 74, 0
9, 149400, Note_on_c, 8, 71, 0
9, 149400, Note_on_c, 8, 83, 43
9, 149400, Note_on_c, 8, 86, 56
9, 149400, Note_on_c, 8, 71, 43
9, 149400, Note_on_c, 8, 74, 43
9, 149415, Control_c, 8, 7, 111
9, 149445, Control_c, 8, 7, 110
9, 149460, Note_on_c, 8, 86, 0
9, 149460, Note_on_c, 8, 83, 0
9, 149460, Note_on_c, 8, 91, 43
9, 149475, Control_c, 8, 7, 109
9, 149505, Control_c, 8, 7, 108
9, 149520, Note_on_c, 8, 91, 0
9, 149520, Note_on_c, 8, 71, 0
9, 149520, Note_on_c, 8, 74, 0
9, 149520, Note_on_c, 8, 84, 53
9, 149520, Note_on_c, 8, 81, 35
9, 149520, Note_on_c, 8, 69, 42
9, 149520, Note_on_c, 8, 72, 63
9, 149535, Control_c, 8, 7, 107
9, 149565, Control_c, 8, 7, 106
9, 149580, Note_on_c, 8, 81, 0
9, 149580, Note_on_c, 8, 84, 0
9, 149580, Note_on_c, 8, 90, 60
9, 149600, Control_c, 8, 7, 105
9, 149630, Control_c, 8, 7, 104
9, 149640, Note_on_c, 8, 90, 0
9, 149640, Note_on_c, 8, 69, 0
9, 149640, Note_on_c, 8, 72, 0
9, 149640, Note_on_c, 8, 79, 44
9, 149640, Note_on_c, 8, 83, 61
9, 149640, Note_on_c, 8, 71, 43
9, 149640, Note_on_c, 8, 67, 38
9, 149660, Control_c, 8, 7, 103
9, 149690, Control_c, 8, 7, 102
9, 149700, Note_on_c, 8, 83, 0
9, 149700, Note_on_c, 8, 79, 0
9, 149700, Note_on_c, 8, 88, 42
9, 149720, Control_c, 8, 7, 101
9, 149750, Control_c, 8, 7, 100
9, 149760, Note_on_c, 8, 88, 0
9, 149760, Note_on_c, 8, 71, 0
9, 149760, Note_on_c, 8, 67, 0
9, 149760, Note_on_c, 8, 78, 35
9, 149760, Note_on_c, 8, 81, 29
9, 149760, Note_on_c, 8, 66, 38
9, 149760, Note_on_c, 8, 69, 41
9, 149820, Note_on_c, 8, 81, 0
9, 149820, Note_on_c, 8, 78, 0
9, 149820, Note_on_c, 8, 86, 45
9, 149880, Note_on_c, 8, 86, 0
9, 149880, Note_on_c, 8, 66, 0
9, 149880, Note_on_c, 8, 69, 0
9, 149880, Note_on_c, 8, 66, 34
9, 149880, Note_on_c, 8, 62, 39
9, 149880, Note_on_c, 8, 69, 38
9, 149880, Note_on_c, 8, 72, 29
9, 149880, Note_on_c, 8, 85, 43
9, 149890, Note_on_c, 8, 85, 0
9, 149890, Note_on_c, 8, 86, 43
9, 149900, Note_on_c, 8, 86, 0
9, 149900, Note_on_c, 8, 88, 43
9, 149910, Note_on_c, 8, 88, 0
9, 149910, Note_on_c, 8, 86, 42
9, 149920, Note_on_c, 8, 86, 0
9, 149920, Note_on_c, 8, 88, 45
9, 149930, Note_on_c, 8, 88, 0
9, 149930, Note_on_c, 8, 86, 43
9, 149940, Note_on_c, 8, 86, 0
9, 149940, Note_on_c, 8, 88, 43
9, 149950, Note_on_c, 8, 88, 0
9, 149950, Note_on_c, 8, 86, 43
9, 149960, Note_on_c, 8, 86, 0
9, 149960, Note_on_c, 8, 88, 43
9, 149970, Note_on_c, 8, 88, 0
9, 149970, Note_on_c, 8, 86, 43
9, 149980, Note_on_c, 8, 86, 0
9, 149980, Note_on_c, 8, 88, 51
9, 149990, Note_on_c, 8, 88, 0
9, 149990, Note_on_c, 8, 86, 43
9, 150000, Note_on_c, 8, 86, 0
9, 150000, Note_on_c, 8, 72, 0
9, 150000, Note_on_c, 8, 66, 0
9, 150000, Note_on_c, 8, 62, 0
9, 150000, Note_on_c, 8, 69, 0
9, 150000, Note_on_c, 8, 74, 45
9, 150000, Note_on_c, 8, 86, 40
9, 150015, Note_on_c, 8, 86, 0
9, 150015, Note_on_c, 8, 88, 43
9, 150020, Note_on_c, 8, 74, 0
9, 150020, Note_on_c, 8, 76, 39
9, 150030, Note_on_c, 8, 88, 0
9, 150030, Note_on_c, 8, 86, 40
9, 150040, Note_on_c, 8, 76, 0
9, 150040, Note_on_c, 8, 74, 46
9, 150045, Note_on_c, 8, 86, 0
9, 150045, Note_on_c, 8, 88, 43
9, 150060, Note_on_c, 8, 88, 0
9, 150060, Note_on_c, 8, 74, 0
9, 150060, Note_on_c, 8, 76, 45
9, 150060, Note_on_c, 8, 86, 40
9, 150075, Note_on_c, 8, 76, 0
9, 150075, Note_on_c, 8, 74, 43
9, 150080, Note_on_c, 8, 86, 0
9, 150080, Note_on_c, 8, 88, 40
9, 150090, Note_on_c, 8, 74, 0
9, 150090, Note_on_c, 8, 76, 43
9, 150100, Note_on_c, 8, 88, 0
9, 150100, Note_on_c, 8, 86, 43
9, 150105, Note_on_c, 8, 76, 0
9, 150105, Note_on_c, 8, 74, 45
9, 150120, Note_on_c, 8, 74, 0
9, 150120, Note_on_c, 8, 86, 0
9, 150120, Note_on_c, 8, 76, 44
9, 150120, Note_on_c, 8, 88, 44
9, 150135, Note_on_c, 8, 88, 0
9, 150135, Note_on_c, 8, 86, 43
9, 150140, Note_on_c, 8, 76, 0
9, 150140, Note_on_c, 8, 74, 43
9, 150150, Note_on_c, 8, 86, 0
9, 150150, Note_on_c, 8, 88, 40
9, 150160, Note_on_c, 8, 74, 0
9, 150160, Note_on_c, 8, 76, 46
9, 150165, Note_on_c, 8, 88, 0
9, 150165, Note_on_c, 8, 86, 43
9, 150180, Note_on_c, 8, 86, 0
9, 150180, Note_on_c, 8, 76, 0
9, 150180, Note_on_c, 8, 74, 45
9, 150180, Note_on_c, 8, 88, 45
9, 150195, Note_on_c, 8, 74, 0
9, 150195, Note_on_c, 8, 76, 43
9, 150200, Note_on_c, 8, 88, 0
9, 150200, Note_on_c, 8, 86, 43
9, 150210, Note_on_c, 8, 76, 0
9, 150210, Note_on_c, 8, 74, 43
9, 150220, Note_on_c, 8, 86, 0
9, 150220, Note_on_c, 8, 88, 43
9, 150225, Note_on_c, 8, 74, 0
9, 150225, Note_on_c, 8, 76, 43
9, 150240, Note_on_c, 8, 76, 0
9, 150240, Note_on_c, 8, 88, 0
9, 150240, Note_on_c, 8, 74, 38
9, 150240, Note_on_c, 8, 86, 50
9, 150255, Note_on_c, 8, 86, 0
9, 150255, Note_on_c, 8, 88, 41
9, 150260, Note_on_c, 8, 74, 0
9, 150260, Note_on_c, 8, 76, 43
9, 150270, Note_on_c, 8, 88, 0
9, 150270, Note_on_c, 8, 86, 50
9, 150280, Note_on_c, 8, 76, 0
9, 150280, Note_on_c, 8, 74, 43
9, 150285, Note_on_c, 8, 86, 0
9, 150285, Note_on_c, 8, 88, 43
9, 150300, Note_on_c, 8, 88, 0
9, 150300, Note_on_c, 8, 74, 0
9, 150300, Note_on_c, 8, 76, 45
9, 150300, Note_on_c, 8, 86, 40
9, 150315, Note_on_c, 8, 76, 0
9, 150315, Note_on_c, 8, 74, 50
9, 150320, Note_on_c, 8, 86, 0
9, 150320, Note_on_c, 8, 88, 40
9, 150330, Note_on_c, 8, 74, 0
9, 150330, Note_on_c, 8, 76, 44
9, 150340, Note_on_c, 8, 88, 0
9, 150340, Note_on_c, 8, 86, 40
9, 150345, Note_on_c, 8, 76, 0
9, 150345, Note_on_c, 8, 74, 45
9, 150360, Note_on_c, 8, 74, 0
9, 150360, Note_on_c, 8, 86, 0
9, 150360, Note_on_c, 8, 76, 44
9, 150360, Note_on_c, 8, 88, 43
9, 150375, Note_on_c, 8, 88, 0
9, 150375, Note_on_c, 8, 86, 42
9, 150380, Note_on_c, 8, 76, 0
9, 150380, Note_on_c, 8, 74, 43
9, 150390, Note_on_c, 8, 86, 0
9, 150390, Note_on_c, 8, 88, 42
9, 150400, Note_on_c, 8, 74, 0
9, 150400, Note_on_c, 8, 76, 45
9, 150405, Note_on_c, 8, 88, 0
9, 150405, Note_on_c, 8, 86, 40
9, 150420, Note_on_c, 8, 86, 0
9, 150420, Note_on_c, 8, 76, 0
9, 150420, Note_on_c, 8, 74, 51
9, 150420, Note_on_c, 8, 88, 40
9, 150435, Note_on_c, 8, 74, 0
9, 150435, Note_on_c, 8, 76, 42
9, 150440, Note_on_c, 8, 88, 0
9, 150440, Note_on_c, 8, 86, 48
9, 150450, Note_on_c, 8, 76, 0
9, 150450, Note_on_c, 8, 74, 43
9, 150460, Note_on_c, 8, 86, 0
9, 150460, Note_on_c, 8, 88, 43
9, 150465, Note_on_c, 8, 74, 0
9, 150465, Note_on_c, 8, 76, 46
9, 150480, Note_on_c, 8, 76, 0
9, 150480, Note_on_c, 8, 88, 0
9, 150480, Note_on_c, 8, 90, 40
9, 150480, Note_on_c, 8, 78, 40
9, 150510, Note_on_c, 8, 78, 0
9, 150510, Note_on_c, 8, 90, 0
9, 150510, Note_on_c, 8, 91, 40
9, 150510, Note_on_c, 8, 79, 43
9, 150530, Note_on_c, 8, 91, 0
9, 150530, Note_on_c, 8, 90, 62
9, 150540, Note_on_c, 8, 79, 0
9, 150540, Note_on_c, 8, 78, 40
9, 150550, Note_on_c, 8, 90, 0
9, 150550, Note_on_c, 8, 91, 45
9, 150560, Note_on_c, 8, 78, 0
9, 150560, Note_on_c, 8, 79, 41
9, 150570, Note_on_c, 8, 91, 0
9, 150570, Note_on_c, 8, 90, 58
9, 150580, Note_on_c, 8, 79, 0
9, 150580, Note_on_c, 8, 78, 44
9, 150585, Note_on_c, 8, 90, 0
9, 150585, Note_on_c, 8, 91, 45
9, 150600, Note_on_c, 8, 91, 0
9, 150600, Note_on_c, 8, 78, 0
9, 150600, Note_on_c, 8, 90, 45
9, 150600, Note_on_c, 8, 79, 43
9, 150615, Note_on_c, 8, 79, 0
9, 150615, Note_on_c, 8, 78, 52
9, 150620, Note_on_c, 8, 90, 0
9, 150620, Note_on_c, 8, 91, 44
9, 150630, Note_on_c, 8, 78, 0
9, 150630, Note_on_c, 8, 79, 43
9, 150640, Note_on_c, 8, 91, 0
9, 150640, Note_on_c, 8, 90, 53
9, 150645, Note_on_c, 8, 79, 0
9, 150645, Note_on_c, 8, 78, 41
9, 150660, Note_on_c, 8, 78, 0
9, 150660, Note_on_c, 8, 90, 0
9, 150660, Note_on_c, 8, 91, 40
9, 150660, Note_on_c, 8, 79, 42
9, 150675, Note_on_c, 8, 91, 0
9, 150675, Note_on_c, 8, 90, 40
9, 150680, Note_on_c, 8, 79, 0
9, 150680, Note_on_c, 8, 78, 57
9, 150690, Note_on_c, 8, 90, 0
9, 150690, Note_on_c, 8, 91, 42
9, 150700, Note_on_c, 8, 78, 0
9, 150700, Note_on_c, 8, 79, 46
9, 150705, Note_on_c, 8, 91, 0
9, 150705, Note_on_c, 8, 90, 61
9, 150720, Note_on_c, 8, 90, 0
9, 150720, Note_on_c, 8, 79, 0
9, 150720, Note_on_c, 8, 91, 40
9, 150720, Note_on_c, 8, 78, 35
9, 150735, Note_on_c, 8, 78, 0
9, 150735, Note_on_c, 8, 79, 43
9, 150740, Note_on_c, 8, 91, 0
9, 150740, Note_on_c, 8, 90, 30
9, 150750, Note_on_c, 8, 79, 0
9, 150750, Note_on_c, 8, 78, 38
9, 150760, Note_on_c, 8, 90, 0
9, 150760, Note_on_c, 8, 91, 40
9, 150765, Note_on_c, 8, 78, 0
9, 150765, Note_on_c, 8, 79, 53
9, 150780, Note_on_c, 8, 79, 0
9, 150780, Note_on_c, 8, 91, 0
9, 150780, Note_on_c, 8, 90, 51
9, 150780, Note_on_c, 8, 78, 30
9, 150795, Note_on_c, 8, 90, 0
9, 150795, Note_on_c, 8, 91, 40
9, 150800, Note_on_c, 8, 78, 0
9, 150800, Note_on_c, 8, 79, 43
9, 150810, Note_on_c, 8, 91, 0
9, 150810, Note_on_c, 8, 90, 40
9, 150820, Note_on_c, 8, 79, 0
9, 150820, Note_on_c, 8, 78, 56
9, 150825, Note_on_c, 8, 90, 0
9, 150825, Note_on_c, 8, 91, 49
9, 150840, Note_on_c, 8, 91, 0
9, 150840, Note_on_c, 8, 78, 0
9, 150840, Note_on_c, 8, 90, 46
9, 150840, Note_on_c, 8, 79, 43
9, 150855, Note_on_c, 8, 79, 0
9, 150855, Note_on_c, 8, 78, 46
9, 150860, Note_on_c, 8, 90, 0
9, 150860, Note_on_c, 8, 91, 46
9, 150870, Note_on_c, 8, 78, 0
9, 150870, Note_on_c, 8, 79, 44
9, 150880, Note_on_c, 8, 91, 0
9, 150880, Note_on_c, 8, 90, 57
9, 150885, Note_on_c, 8, 79, 0
9, 150885, Note_on_c, 8, 78, 53
9, 150900, Note_on_c, 8, 78, 0
9, 150900, Note_on_c, 8, 90, 0
9, 150900, Note_on_c, 8, 91, 43
9, 150900, Note_on_c, 8, 79, 43
9, 150915, Note_on_c, 8, 91, 0
9, 150915, Note_on_c, 8, 90, 43
9, 150920, Note_on_c, 8, 79, 0
9, 150920, Note_on_c, 8, 78, 53
9, 150930, Note_on_c, 8, 90, 0
9, 150930, Note_on_c, 8, 91, 50
9, 150940, Note_on_c, 8, 78, 0
9, 150940, Note_on_c, 8, 79, 43
9, 150945, Note_on_c, 8, 91, 0
9, 150945, Note_on_c, 8, 90, 46
9, 150960, Note_on_c, 8, 90, 0
9, 150960, Note_on_c, 8, 79, 0
9, 150960, Note_on_c, 8, 93, 43
9, 150960, Note_on_c, 8, 81, 43
9, 150990, Note_on_c, 8, 81, 0
9, 150990, Note_on_c, 8, 93, 0
9, 150990, Note_on_c, 8, 95, 40
9, 150990, Note_on_c, 8, 83, 43
9, 151010, Note_on_c, 8, 95, 0
9, 151010, Note_on_c, 8, 93, 68
9, 151020, Note_on_c, 8, 83, 0
9, 151020, Note_on_c, 8, 81, 43
9, 151030, Note_on_c, 8, 93, 0
9, 151030, Note_on_c, 8, 95, 39
9, 151040, Note_on_c, 8, 81, 0
9, 151040, Note_on_c, 8, 83, 43
9, 151050, Note_on_c, 8, 95, 0
9, 151050, Note_on_c, 8, 93, 70
9, 151060, Note_on_c, 8, 83, 0
9, 151060, Note_on_c, 8, 81, 57
9, 151065, Note_on_c, 8, 93, 0
9, 151065, Note_on_c, 8, 95, 41
9, 151080, Note_on_c, 8, 95, 0
9, 151080, Note_on_c, 8, 81, 0
9, 151080, Note_on_c, 8, 93, 57
9, 151080, Note_on_c, 8, 83, 44
9, 151095, Note_on_c, 8, 83, 0
9, 151095, Note_on_c, 8, 81, 43
9, 151100, Note_on_c, 8, 93, 0
9, 151100, Note_on_c, 8, 95, 52
9, 151110, Note_on_c, 8, 81, 0
9, 151110, Note_on_c, 8, 83, 45
9, 151120, Note_on_c, 8, 95, 0
9, 151120, Note_on_c, 8, 93, 58
9, 151125, Note_on_c, 8, 83, 0
9, 151125, Note_on_c, 8, 81, 57
9, 151140, Note_on_c, 8, 81, 0
9, 151140, Note_on_c, 8, 93, 0
9, 151140, Note_on_c, 8, 95, 40
9, 151140, Note_on_c, 8, 83, 42
9, 151155, Note_on_c, 8, 95, 0
9, 151155, Note_on_c, 8, 93, 45
9, 151160, Note_on_c, 8, 83, 0
9, 151160, Note_on_c, 8, 81, 43
9, 151170, Note_on_c, 8, 93, 0
9, 151170, Note_on_c, 8, 95, 36
9, 151180, Note_on_c, 8, 81, 0
9, 151180, Note_on_c, 8, 83, 54
9, 151185, Note_on_c, 8, 95, 0
9, 151185, Note_on_c, 8, 93, 47
9, 151200, Note_on_c, 8, 93, 0
9, 151200, Note_on_c, 8, 83, 0
9, 151200, Note_on_c, 8, 95, 40
9, 151200, Note_on_c, 8, 81, 39
9, 151215, Note_on_c, 8, 81, 0
9, 151215, Note_on_c, 8, 83, 41
9, 151220, Note_on_c, 8, 95, 0
9, 151220, Note_on_c, 8, 93, 49
9, 151230, Note_on_c, 8, 83, 0
9, 151230, Note_on_c, 8, 81, 43
9, 151240, Note_on_c, 8, 93, 0
9, 151240, Note_on_c, 8, 95, 42
9, 151245, Note_on_c, 8, 81, 0
9, 151245, Note_on_c, 8, 83, 45
9, 151260, Note_on_c, 8, 83, 0
9, 151260, Note_on_c, 8, 95, 0
9, 151260, Note_on_c, 8, 93, 50
9, 151260, Note_on_c, 8, 81, 40
9, 151275, Note_on_c, 8, 93, 0
9, 151275, Note_on_c, 8, 95, 43
9, 151280, Note_on_c, 8, 81, 0
9, 151280, Note_on_c, 8, 83, 45
9, 151290, Note_on_c, 8, 95, 0
9, 151290, Note_on_c, 8, 93, 57
9, 151300, Note_on_c, 8, 83, 0
9, 151300, Note_on_c, 8, 81, 48
9, 151305, Note_on_c, 8, 93, 0
9, 151305, Note_on_c, 8, 95, 42
9, 151320, Note_on_c, 8, 95, 0
9, 151320, Note_on_c, 8, 81, 0
9, 151320, Note_on_c, 8, 93, 51
9, 151320, Note_on_c, 8, 83, 45
9, 151335, Note_on_c, 8, 83, 0
9, 151335, Note_on_c, 8, 81, 45
9, 151340, Note_on_c, 8, 93, 0
9, 151340, Note_on_c, 8, 95, 42
9, 151350, Note_on_c, 8, 81, 0
9, 151350, Note_on_c, 8, 83, 52
9, 151360, Note_on_c, 8, 95, 0
9, 151360, Note_on_c, 8, 93, 62
9, 151365, Note_on_c, 8, 83, 0
9, 151365, Note_on_c, 8, 81, 44
9, 151380, Note_on_c, 8, 81, 0
9, 151380, Note_on_c, 8, 93, 0
9, 151380, Note_on_c, 8, 95, 42
9, 151380, Note_on_c, 8, 83, 43
9, 151395, Note_on_c, 8, 95, 0
9, 151395, Note_on_c, 8, 93, 57
9, 151400, Note_on_c, 8, 83, 0
9, 151400, Note_on_c, 8, 81, 40
9, 151410, Note_on_c, 8, 93, 0
9, 151410, Note_on_c, 8, 95, 43
9, 151420, Note_on_c, 8, 81, 0
9, 151420, Note_on_c, 8, 83, 59
9, 151425, Note_on_c, 8, 95, 0
9, 151425, Note_on_c, 8, 93, 57
9, 151440, Note_on_c, 8, 93, 0
9, 151440, Note_on_c, 8, 83, 0
9, 151440, Control_c, 8, 64, 96
9, 151440, Note_on_c, 8, 83, 41
9, 151440, Note_on_c, 8, 95, 43
9, 151480, Note_on_c, 8, 95, 0
9, 151480, Note_on_c, 8, 83, 0
9, 151480, Note_on_c, 8, 84, 43
9, 151480, Note_on_c, 8, 96, 43
9, 151520, Note_on_c, 8, 96, 0
9, 151520, Note_on_c, 8, 84, 0
9, 151520, Note_on_c, 8, 83, 43
9, 151520, Note_on_c, 8, 95, 40
9, 151560, Note_on_c, 8, 95, 0
9, 151560, Note_on_c, 8, 83, 0
9, 151560, Note_on_c, 8, 96, 45
9, 151560, Note_on_c, 8, 84, 41
9, 151600, Note_on_c, 8, 84, 0
9, 151600, Note_on_c, 8, 96, 0
9, 151600, Note_on_c, 8, 83, 61
9, 151600, Note_on_c, 8, 95, 45
9, 151640, Note_on_c, 8, 95, 0
9, 151640, Note_on_c, 8, 83, 0
9, 151640, Note_on_c, 8, 96, 62
9, 151640, Note_on_c, 8, 84, 53
9, 151680, Note_on_c, 8, 84, 0
9, 151680, Note_on_c, 8, 96, 0
9, 151680, Note_on_c, 8, 83, 66
9, 151680, Note_on_c, 8, 95, 53
9, 151720, Note_on_c, 8, 95, 0
9, 151720, Note_on_c, 8, 83, 0
9, 151720, Note_on_c, 8, 96, 68
9, 151720, Note_on_c, 8, 84, 67
9, 151760, Note_on_c, 8, 84, 0
9, 151760, Note_on_c, 8, 96, 0
9, 151760, Note_on_c, 8, 83, 72
9, 151760, Note_on_c, 8, 95, 58
9, 151800, Note_on_c, 8, 95, 0
9, 151800, Note_on_c, 8, 83, 0
9, 151800, Note_on_c, 8, 84, 80
9, 151800, Note_on_c, 8, 96, 76
9, 151840, Note_on_c, 8, 96, 0
9, 151840, Note_on_c, 8, 84, 0
9, 151840, Note_on_c, 8, 95, 67
9, 151840, Note_on_c, 8, 83, 78
9, 151880, Note_on_c, 8, 83, 0
9, 151880, Note_on_c, 8, 95, 0
9, 151880, Note_on_c, 8, 96, 78
9, 151880, Note_on_c, 8, 84, 80
9, 151920, Note_on_c, 8, 84, 0
9, 151920, Note_on_c, 8, 96, 0
9, 151920, Note_on_c, 8, 83, 84
9, 151920, Note_on_c, 8, 95, 80
9, 151960, Note_on_c, 8, 95, 0
9, 151960, Note_on_c, 8, 83, 0
9, 151960, Note_on_c, 8, 84, 84
9, 151960, Note_on_c, 8, 96, 84
9, 152000, Note_on_c, 8, 96, 0
9, 152000, Note_on_c, 8, 84, 0
9, 152000, Note_on_c, 8, 83, 85
9, 152000, Note_on_c, 8, 95, 76
9, 152040, Note_on_c, 8, 95, 0
9, 152040, Note_on_c, 8, 83, 0
9, 152040, Note_on_c, 8, 84, 89
9, 152040, Note_on_c, 8, 96, 93
9, 152080, Note_on_c, 8, 96, 0
9, 152080, Note_on_c, 8, 84, 0
9, 152080, Note_on_c, 8, 83, 81
9, 152080, Note_on_c, 8, 95, 80
9, 152120, Note_on_c, 8, 95, 0
9, 152120, Note_on_c, 8, 83, 0
9, 152120, Note_on_c, 8, 84, 89
9, 152120, Note_on_c, 8, 96, 89
9, 152160, Note_on_c, 8, 96, 0
9, 152160, Note_on_c, 8, 84, 0
9, 152160, Note_on_c, 8, 95, 81
9, 152160, Note_on_c, 8, 84, 84
9, 152200, Note_on_c, 8, 95, 0
9, 152200, Note_on_c, 8, 96, 95
9, 152240, Note_on_c, 8, 96, 0
9, 152240, Note_on_c, 8, 95, 89
9, 152280, Note_on_c, 8, 95, 0
9, 152280, Note_on_c, 8, 84, 0
9, 152280, Note_on_c, 8, 96, 95
9, 152280, Note_on_c, 8, 62, 80
9, 152280, Note_on_c, 8, 69, 85
9, 152280, Note_on_c, 8, 72, 105
9, 152280, Note_on_c, 8, 66, 78
9, 152320, Note_on_c, 8, 96, 0
9, 152320, Note_on_c, 8, 93, 89
9, 152360, Note_on_c, 8, 93, 0
9, 152360, Note_on_c, 8, 96, 98
9, 152400, Note_on_c, 8, 96, 0
9, 152400, Note_on_c, 8, 72, 0
9, 152400, Note_on_c, 8, 62, 0
9, 152400, Note_on_c, 8, 69, 0
9, 152400, Note_on_c, 8, 66, 0
9, 152400, Note_on_c, 8, 65, 74
9, 152400, Note_on_c, 8, 55, 84
9, 152400, Note_on_c, 8, 95, 84
9, 152400, Note_on_c, 8, 86, 73
9, 152460, Note_on_c, 8, 86, 0
9, 152460, Note_on_c, 8, 65, 0
9, 152460, Note_on_c, 8, 55, 0
9, 152460, Note_on_c, 8, 95, 0
9, 152460, Note_on_c, 8, 59, 76
9, 152460, Note_on_c, 8, 91, 80
9, 152460, Note_on_c, 8, 62, 80
9, 152460, Note_on_c, 8, 89, 82
9, 152520, Note_on_c, 8, 89, 0
9, 152520, Note_on_c, 8, 59, 0
9, 152520, Note_on_c, 8, 91, 0
9, 152520, Note_on_c, 8, 62, 0
9, 152520, Note_on_c, 8, 95, 84
9, 152520, Note_on_c, 8, 86, 84
9, 152520, Note_on_c, 8, 65, 71
9, 152520, Note_on_c, 8, 55, 76
9, 152580, Note_on_c, 8, 55, 0
9, 152580, Note_on_c, 8, 95, 0
9, 152580, Note_on_c, 8, 86, 0
9, 152580, Note_on_c, 8, 65, 0
9, 152580, Note_on_c, 8, 59, 84
9, 152580, Note_on_c, 8, 62, 76
9, 152580, Note_on_c, 8, 91, 85
9, 152580, Note_on_c, 8, 89, 85
9, 152640, Note_on_c, 8, 89, 0
9, 152640, Note_on_c, 8, 59, 0
9, 152640, Note_on_c, 8, 62, 0
9, 152640, Note_on_c, 8, 91, 0
9, 152640, Note_on_c, 8, 95, 89
9, 152640, Note_on_c, 8, 86, 84
9, 152640, Note_on_c, 8, 55, 89
9, 152640, Note_on_c, 8, 65, 80
9, 152700, Note_on_c, 8, 65, 0
9, 152700, Note_on_c, 8, 95, 0
9, 152700, Note_on_c, 8, 86, 0
9, 152700, Note_on_c, 8, 55, 0
9, 152700, Note_on_c, 8, 59, 81
9, 152700, Note_on_c, 8, 62, 84
9, 152700, Note_on_c, 8, 91, 86
9, 152700, Note_on_c, 8, 89, 85
9, 152760, Note_on_c, 8, 89, 0
9, 152760, Note_on_c, 8, 59, 0
9, 152760, Note_on_c, 8, 62, 0
9, 152760, Note_on_c, 8, 91, 0
9, 152760, Note_on_c, 8, 95, 84
9, 152760, Note_on_c, 8, 86, 80
9, 152760, Note_on_c, 8, 55, 81
9, 152760, Note_on_c, 8, 65, 77
9, 152820, Note_on_c, 8, 65, 0
9, 152820, Note_on_c, 8, 95, 0
9, 152820, Note_on_c, 8, 86, 0
9, 152820, Note_on_c, 8, 55, 0
9, 152820, Note_on_c, 8, 59, 76
9, 152820, Note_on_c, 8, 62, 76
9, 152820, Note_on_c, 8, 91, 86
9, 152820, Note_on_c, 8, 89, 89
9, 152880, Note_on_c, 8, 89, 0
9, 152880, Note_on_c, 8, 59, 0
9, 152880, Note_on_c, 8, 62, 0
9, 152880, Note_on_c, 8, 91, 0
9, 152880, Note_on_c, 8, 95, 85
9, 152880, Note_on_c, 8, 86, 80
9, 152880, Note_on_c, 8, 55, 84
9, 152880, Note_on_c, 8, 65, 77
9, 152940, Note_on_c, 8, 65, 0
9, 152940, Note_on_c, 8, 95, 0
9, 152940, Note_on_c, 8, 86, 0
9, 152940, Note_on_c, 8, 55, 0
9, 152940, Note_on_c, 8, 91, 84
9, 152940, Note_on_c, 8, 59, 84
9, 152940, Note_on_c, 8, 89, 93
9, 152940, Note_on_c, 8, 62, 78
9, 153000, Note_on_c, 8, 62, 0
9, 153000, Note_on_c, 8, 91, 0
9, 153000, Note_on_c, 8, 59, 0
9, 153000, Note_on_c, 8, 89, 0
9, 153000, Note_on_c, 8, 86, 73
9, 153000, Note_on_c, 8, 95, 85
9, 153000, Note_on_c, 8, 55, 85
9, 153000, Note_on_c, 8, 65, 73
9, 153060, Note_on_c, 8, 65, 0
9, 153060, Note_on_c, 8, 86, 0
9, 153060, Note_on_c, 8, 95, 0
9, 153060, Note_on_c, 8, 55, 0
9, 153060, Note_on_c, 8, 59, 82
9, 153060, Note_on_c, 8, 62, 89
9, 153060, Note_on_c, 8, 91, 86
9, 153060, Note_on_c, 8, 89, 93
9, 153120, Note_on_c, 8, 89, 0
9, 153120, Note_on_c, 8, 59, 0
9, 153120, Note_on_c, 8, 62, 0
9, 153120, Note_on_c, 8, 91, 0
9, 153120, Note_on_c, 8, 95, 89
9, 153120, Note_on_c, 8, 86, 85
9, 153120, Note_on_c, 8, 55, 89
9, 153120, Note_on_c, 8, 65, 84
9, 153180, Note_on_c, 8, 65, 0
9, 153180, Note_on_c, 8, 95, 0
9, 153180, Note_on_c, 8, 86, 0
9, 153180, Note_on_c, 8, 55, 0
9, 153180, Note_on_c, 8, 59, 85
9, 153180, Note_on_c, 8, 62, 86
9, 153180, Note_on_c, 8, 91, 94
9, 153180, Note_on_c, 8, 89, 95
9, 153240, Note_on_c, 8, 89, 0
9, 153240, Note_on_c, 8, 59, 0
9, 153240, Note_on_c, 8, 62, 0
9, 153240, Note_on_c, 8, 91, 0
9, 153240, Note_on_c, 8, 95, 94
9, 153240, Note_on_c, 8, 86, 90
9, 153240, Note_on_c, 8, 55, 93
9, 153240, Note_on_c, 8, 65, 93
9, 153300, Note_on_c, 8, 65, 0
9, 153300, Note_on_c, 8, 95, 0
9, 153300, Note_on_c, 8, 86, 0
9, 153300, Note_on_c, 8, 55, 0
9, 153300, Note_on_c, 8, 59, 93
9, 153300, Note_on_c, 8, 62, 95
9, 153300, Note_on_c, 8, 91, 98
9, 153300, Note_on_c, 8, 89, 98
9, 153350, Control_c, 8, 64, 0
9, 153360, Note_on_c, 8, 89, 0
9, 153360, Note_on_c, 8, 59, 0
9, 153360, Note_on_c, 8, 62, 0
9, 153360, Note_on_c, 8, 91, 0
9, 153360, Note_on_c, 8, 91, 104
9, 153360, Note_on_c, 8, 52, 105
9, 153360, Note_on_c, 8, 96, 105
9, 153360, Note_on_c, 8, 55, 98
9, 153360, Note_on_c, 8, 88, 105
9, 153360, Note_on_c, 8, 60, 93
9, 153360, Note_on_c, 8, 48, 95
9, 153360, Note_on_c, 8, 84, 89
9, 153480, Note_on_c, 8, 84, 0
9, 153480, Note_on_c, 8, 91, 0
9, 153480, Note_on_c, 8, 88, 0
9, 153480, Note_on_c, 8, 52, 0
9, 153480, Note_on_c, 8, 96, 0
9, 153480, Note_on_c, 8, 55, 0
9, 153480, Note_on_c, 8, 60, 0
9, 153480, Note_on_c, 8, 48, 0
9, 156120, Note_on_c, 8, 91, 45
9, 156120, Note_on_c, 8, 79, 42
9, 156120, Note_on_c, 8, 83, 45
9, 156120, Note_on_c, 8, 67, 43
9, 156120, Note_on_c, 8, 71, 52
9, 156240, Note_on_c, 8, 71, 0
9, 156240, Note_on_c, 8, 83, 0
9, 156240, Note_on_c, 8, 91, 0
9, 156240, Note_on_c, 8, 79, 0
9, 156240, Note_on_c, 8, 67, 0
9, 156360, Note_on_c, 8, 69, 61
9, 156360, Note_on_c, 8, 60, 45
9, 156360, Note_on_c, 8, 64, 73
9, 156360, Note_on_c, 8, 84, 58
9, 156360, Note_on_c, 8, 93, 45
9, 156360, Note_on_c, 8, 88, 71
9, 156360, Note_on_c, 8, 81, 42
9, 156480, Note_on_c, 8, 81, 0
9, 156480, Note_on_c, 8, 93, 0
9, 156480, Note_on_c, 8, 60, 0
9, 156480, Note_on_c, 8, 64, 0
9, 156480, Note_on_c, 8, 69, 0
9, 156480, Note_on_c, 8, 88, 0
9, 156480, Note_on_c, 8, 84, 0
9, 156600, Note_on_c, 8, 78, 45
9, 156600, Note_on_c, 8, 69, 58
9, 156600, Note_on_c, 8, 74, 41
9, 156600, Note_on_c, 8, 86, 43
9, 156600, Note_on_c, 8, 81, 57
9, 156600, Note_on_c, 8, 62, 43
9, 156600, Note_on_c, 8, 66, 45
9, 156720, Note_on_c, 8, 66, 0
9, 156720, Note_on_c, 8, 81, 0
9, 156720, Note_on_c, 8, 69, 0
9, 156720, Note_on_c, 8, 74, 0
9, 156720, Note_on_c, 8, 78, 0
9, 156720, Note_on_c, 8, 62, 0
9, 156720, Note_on_c, 8, 86, 0
9, 156720, Note_on_c, 8, 79, 45
9, 156720, Note_on_c, 8, 67, 36
9, 156720, Note_on_c, 8, 67, 35
9, 156760, Note_on_c, 8, 79, 0
9, 156760, Note_on_c, 8, 86, 36
9, 156800, Note_on_c, 8, 86, 0
9, 156800, Note_on_c, 8, 83, 57
9, 156840, Note_on_c, 8, 83, 0
9, 156840, Note_on_c, 8, 67, 0
9, 156840, Note_on_c, 8, 91, 59
9, 156840, Note_on_c, 8, 71, 40
9, 156880, Note_on_c, 8, 91, 0
9, 156880, Note_on_c, 8, 86, 39
9, 156920, Note_on_c, 8, 86, 0
9, 156920, Note_on_c, 8, 83, 32
9, 156960, Note_on_c, 8, 83, 0
9, 156960, Note_on_c, 8, 71, 0
9, 156960, Note_on_c, 8, 67, 0
9, 156960, Note_on_c, 8, 81, 45
9, 156960, Note_on_c, 8, 62, 40
9, 156960, Note_on_c, 8, 62, 33
9, 157000, Note_on_c, 8, 81, 0
9, 157000, Note_on_c, 8, 90, 58
9, 157040, Note_on_c, 8, 90, 0
9, 157040, Note_on_c, 8, 86, 35
9, 157080, Note_on_c, 8, 86, 0
9, 157080, Note_on_c, 8, 62, 0
9, 157080, Note_on_c, 8, 93, 32
9, 157080, Note_on_c, 8, 69, 39
9, 157120, Note_on_c, 8, 93, 0
9, 157120, Note_on_c, 8, 90, 32
9, 157160, Note_on_c, 8, 90, 0
9, 157160, Note_on_c, 8, 86, 39
9, 157200, Note_on_c, 8, 86, 0
9, 157200, Note_on_c, 8, 69, 0
9, 157200, Note_on_c, 8, 62, 0
9, 157200, Note_on_c, 8, 83, 40
9, 157200, Note_on_c, 8, 55, 43
9, 157200, Note_on_c, 8, 55, 41
9, 157240, Note_on_c, 8, 83, 0
9, 157240, Note_on_c, 8, 91, 44
9, 157280, Note_on_c, 8, 91, 0
9, 157280, Note_on_c, 8, 86, 54
9, 157320, Note_on_c, 8, 86, 0
9, 157320, Note_on_c, 8, 55, 0
9, 157320, Note_on_c, 8, 95, 32
9, 157320, Note_on_c, 8, 67, 32
9, 157360, Note_on_c, 8, 95, 0
9, 157360, Note_on_c, 8, 91, 44
9, 157400, Note_on_c, 8, 91, 0
9, 157400, Note_on_c, 8, 86, 41
9, 157440, Note_on_c, 8, 86, 0
9, 157440, Note_on_c, 8, 67, 0
9, 157440, Note_on_c, 8, 55, 0
9, 157440, Note_on_c, 8, 81, 30
9, 157440, Note_on_c, 8, 62, 38
9, 157440, Note_on_c, 8, 62, 41
9, 157480, Note_on_c, 8, 81, 0
9, 157480, Note_on_c, 8, 90, 32
9, 157520, Note_on_c, 8, 90, 0
9, 157520, Note_on_c, 8, 86, 32
9, 157560, Note_on_c, 8, 86, 0
9, 157560, Note_on_c, 8, 62, 0
9, 157560, Note_on_c, 8, 93, 33
9, 157560, Note_on_c, 8, 69, 52
9, 157600, Note_on_c, 8, 93, 0
9, 157600, Note_on_c, 8, 90, 43
9, 157640, Note_on_c, 8, 90, 0
9, 157640, Note_on_c, 8, 86, 40
9, 157680, Note_on_c, 8, 86, 0
9, 157680, Note_on_c, 8, 69, 0
9, 157680, Note_on_c, 8, 62, 0
9, 157680, Note_on_c, 8, 79, 51
9, 157680, Note_on_c, 8, 67, 29
9, 157680, Note_on_c, 8, 67, 35
9, 157720, Note_on_c, 8, 79, 0
9, 157720, Note_on_c, 8, 86, 40
9, 157760, Note_on_c, 8, 86, 0
9, 157760, Note_on_c, 8, 83, 40
9, 157800, Note_on_c, 8, 83, 0
9, 157800, Note_on_c, 8, 67, 0
9, 157800, Note_on_c, 8, 91, 53
9, 157800, Note_on_c, 8, 71, 52
9, 157840, Note_on_c, 8, 91, 0
9, 157840, Note_on_c, 8, 86, 53
9, 157880, Note_on_c, 8, 86, 0
9, 157880, Note_on_c, 8, 83, 43
9, 157920, Note_on_c, 8, 83, 0
9, 157920, Note_on_c, 8, 71, 0
9, 157920, Note_on_c, 8, 67, 0
9, 157920, Note_on_c, 8, 81, 46
9, 157920, Note_on_c, 8, 62, 42
9, 157920, Note_on_c, 8, 62, 44
9, 157960, Note_on_c, 8, 81, 0
9, 157960, Note_on_c, 8, 90, 35
9, 158000, Note_on_c, 8, 90, 0
9, 158000, Note_on_c, 8, 86, 29
9, 158040, Note_on_c, 8, 86, 0
9, 158040, Note_on_c, 8, 62, 0
9, 158040, Note_on_c, 8, 93, 37
9, 158040, Note_on_c, 8, 69, 44
9, 158080, Note_on_c, 8, 93, 0
9, 158080, Note_on_c, 8, 90, 39
9, 158120, Note_on_c, 8, 90, 0
9, 158120, Note_on_c, 8, 86, 40
9, 158160, Note_on_c, 8, 86, 0
9, 158160, Note_on_c, 8, 69, 0
9, 158160, Note_on_c, 8, 62, 0
9, 158160, Note_on_c, 8, 83, 45
9, 158160, Note_on_c, 8, 55, 32
9, 158160, Note_on_c, 8, 55, 29
9, 158200, Note_on_c, 8, 83, 0
9, 158200, Note_on_c, 8, 91, 43
9, 158240, Note_on_c, 8, 91, 0
9, 158240, Note_on_c, 8, 86, 45
9, 158280, Note_on_c, 8, 86, 0
9, 158280, Note_on_c, 8, 55, 0
9, 158280, Note_on_c, 8, 95, 43
9, 158280, Note_on_c, 8, 67, 38
9, 158320, Note_on_c, 8, 95, 0
9, 158320, Note_on_c, 8, 91, 44
9, 158360, Note_on_c, 8, 91, 0
9, 158360, Note_on_c, 8, 86, 48
9, 158400, Note_on_c, 8, 86, 0
9, 158400, Note_on_c, 8, 67, 0
9, 158400, Note_on_c, 8, 55, 0
9, 158400, Note_on_c, 8, 81, 43
9, 158400, Note_on_c, 8, 62, 39
9, 158400, Note_on_c, 8, 62, 45
9, 158440, Note_on_c, 8, 81, 0
9, 158440, Note_on_c, 8, 90, 39
9, 158480, Note_on_c, 8, 90, 0
9, 158480, Note_on_c, 8, 86, 46
9, 158520, Note_on_c, 8, 86, 0
9, 158520, Note_on_c, 8, 62, 0
9, 158520, Note_on_c, 8, 93, 43
9, 158520, Note_on_c, 8, 69, 44
9, 158560, Note_on_c, 8, 93, 0
9, 158560, Note_on_c, 8, 90, 45
9, 158600, Note_on_c, 8, 90, 0
9, 158600, Note_on_c, 8, 86, 45
9, 158640, Note_on_c, 8, 86, 0
9, 158640, Note_on_c, 8, 69, 0
9, 158640, Note_on_c, 8, 62, 0
9, 158640, Note_on_c, 8, 79, 44
9, 158640, Note_on_c, 8, 55, 65
9, 158640, Note_on_c, 8, 55, 54
9, 158680, Note_on_c, 8, 79, 0
9, 158680, Note_on_c, 8, 86, 49
9, 158720, Note_on_c, 8, 86, 0
9, 158720, Note_on_c, 8, 83, 72
9, 158760, Note_on_c, 8, 83, 0
9, 158760, Note_on_c, 8, 55, 0
9, 158760, Note_on_c, 8, 91, 61
9, 158760, Note_on_c, 8, 67, 59
9, 158800, Note_on_c, 8, 91, 0
9, 158800, Note_on_c, 8, 86, 72
9, 158840, Note_on_c, 8, 86, 0
9, 158840, Note_on_c, 8, 83, 70
9, 158875, Control_c, 8, 7, 101
9, 158880, Note_on_c, 8, 83, 0
9, 158880, Note_on_c, 8, 67, 0
9, 158880, Note_on_c, 8, 55, 0
9, 158880, Note_on_c, 8, 81, 73
9, 158880, Note_on_c, 8, 62, 76
9, 158880, Note_on_c, 8, 50, 90
9, 158910, Control_c, 8, 7, 102
9, 158920, Note_on_c, 8, 81, 0
9, 158920, Note_on_c, 8, 90, 69
9, 158945, Control_c, 8, 7, 103
9, 158960, Note_on_c, 8, 90, 0
9, 158960, Note_on_c, 8, 86, 85
9, 158980, Control_c, 8, 7, 104
9, 159000, Note_on_c, 8, 86, 0
9, 159000, Note_on_c, 8, 50, 0
9, 159000, Note_on_c, 8, 93, 77
9, 159000, Note_on_c, 8, 62, 81
9, 159015, Control_c, 8, 7, 105
9, 159040, Note_on_c, 8, 93, 0
9, 159040, Note_on_c, 8, 90, 74
9, 159050, Control_c, 8, 7, 106
9, 159080, Note_on_c, 8, 90, 0
9, 159080, Note_on_c, 8, 86, 90
9, 159085, Control_c, 8, 7, 107
9, 159120, Note_on_c, 8, 86, 0
9, 159120, Note_on_c, 8, 62, 0
9, 159120, Note_on_c, 8, 62, 0
9, 159120, Control_c, 8, 7, 108
9, 159120, Note_on_c, 8, 83, 74
9, 159120, Note_on_c, 8, 55, 89
9, 159120, Note_on_c, 8, 43, 90
9, 159155, Control_c, 8, 7, 109
9, 159160, Note_on_c, 8, 83, 0
9, 159160, Note_on_c, 8, 91, 90
9, 159190, Control_c, 8, 7, 110
9, 159200, Note_on_c, 8, 91, 0
9, 159200, Note_on_c, 8, 86, 86
9, 159225, Control_c, 8, 7, 111
9, 159240, Note_on_c, 8, 86, 0
9, 159240, Note_on_c, 8, 43, 0
9, 159240, Note_on_c, 8, 95, 85
9, 159240, Note_on_c, 8, 55, 84
9, 159255, Control_c, 8, 7, 112
9, 159280, Note_on_c, 8, 95, 0
9, 159280, Note_on_c, 8, 91, 84
9, 159290, Control_c, 8, 7, 113
9, 159320, Note_on_c, 8, 91, 0
9, 159320, Note_on_c, 8, 86, 89
9, 159325, Control_c, 8, 7, 114
9, 159360, Note_on_c, 8, 86, 0
9, 159360, Note_on_c, 8, 55, 0
9, 159360, Note_on_c, 8, 55, 0
9, 159360, Control_c, 8, 7, 115
9, 159360, Note_on_c, 8, 84, 76
9, 159360, Note_on_c, 8, 50, 95
9, 159360, Note_on_c, 8, 38, 95
9, 159395, Control_c, 8, 7, 116
9, 159400, Note_on_c, 8, 84, 0
9, 159400, Note_on_c, 8, 93, 93
9, 159430, Control_c, 8, 7, 117
9, 159440, Note_on_c, 8, 93, 0
9, 159440, Note_on_c, 8, 90, 80
9, 159465, Control_c, 8, 7, 118
9, 159480, Note_on_c, 8, 90, 0
9, 159480, Note_on_c, 8, 38, 0
9, 159480, Note_on_c, 8, 96, 93
9, 159480, Note_on_c, 8, 50, 93
9, 159520, Note_on_c, 8, 96, 0
9, 159520, Note_on_c, 8, 93, 99
9, 159560, Note_on_c, 8, 93, 0
9, 159560, Note_on_c, 8, 90, 89
9, 159600, Note_on_c, 8, 90, 0
9, 159600, Note_on_c, 8, 50, 0
9, 159600, Note_on_c, 8, 50, 0
9, 159600, Control_c, 8, 64, 98
9, 159600, Note_on_c, 8, 31, 100
9, 159600, Note_on_c, 8, 91, 110
9, 159640, Note_on_c, 8, 91, 0
9, 159640, Note_on_c, 8, 31, 0
9, 159640, Note_on_c, 8, 35, 100
9, 159640, Note_on_c, 8, 86, 104
9, 159680, Note_on_c, 8, 86, 0
9, 159680, Note_on_c, 8, 35, 0
9, 159680, Note_on_c, 8, 38, 100
9, 159680, Note_on_c, 8, 83, 99
9, 159720, Note_on_c, 8, 83, 0
9, 159720, Note_on_c, 8, 38, 0
9, 159720, Note_on_c, 8, 31, 100
9, 159720, Note_on_c, 8, 79, 104
9, 159760, Note_on_c, 8, 79, 0
9, 159760, Note_on_c, 8, 31, 0
9, 159760, Note_on_c, 8, 35, 100
9, 159760, Note_on_c, 8, 74, 104
9, 159800, Note_on_c, 8, 74, 0
9, 159800, Note_on_c, 8, 35, 0
9, 159800, Note_on_c, 8, 38, 100
9, 159800, Note_on_c, 8, 71, 89
9, 159840, Note_on_c, 8, 71, 0
9, 159840, Note_on_c, 8, 38, 0
9, 159840, Note_on_c, 8, 31, 100
9, 159840, Note_on_c, 8, 79, 99
9, 159880, Note_on_c, 8, 79, 0
9, 159880, Note_on_c, 8, 31, 0
9, 159880, Note_on_c, 8, 35, 100
9, 159880, Note_on_c, 8, 74, 110
9, 159920, Note_on_c, 8, 74, 0
9, 159920, Note_on_c, 8, 35, 0
9, 159920, Note_on_c, 8, 38, 100
9, 159920, Note_on_c, 8, 71, 99
9, 159960, Note_on_c, 8, 71, 0
9, 159960, Note_on_c, 8, 38, 0
9, 159960, Note_on_c, 8, 31, 100
9, 159960, Note_on_c, 8, 67, 86
9, 160000, Note_on_c, 8, 67, 0
9, 160000, Note_on_c, 8, 31, 0
9, 160000, Note_on_c, 8, 35, 100
9, 160000, Note_on_c, 8, 62, 98
9, 160040, Note_on_c, 8, 62, 0
9, 160040, Note_on_c, 8, 35, 0
9, 160040, Note_on_c, 8, 38, 100
9, 160040, Note_on_c, 8, 59, 104
9, 160080, Note_on_c, 8, 59, 0
9, 160080, Note_on_c, 8, 38, 0
9, 160080, Note_on_c, 8, 31, 100
9, 160080, Note_on_c, 8, 55, 104
9, 160120, Note_on_c, 8, 55, 0
9, 160120, Note_on_c, 8, 31, 0
9, 160120, Note_on_c, 8, 35, 100
9, 160120, Note_on_c, 8, 59, 101
9, 160160, Note_on_c, 8, 59, 0
9, 160160, Note_on_c, 8, 35, 0
9, 160160, Note_on_c, 8, 38, 100
9, 160160, Note_on_c, 8, 62, 95
9, 160200, Note_on_c, 8, 62, 0
9, 160200, Note_on_c, 8, 38, 0
9, 160200, Note_on_c, 8, 31, 100
9, 160200, Note_on_c, 8, 67, 82
9, 160240, Note_on_c, 8, 67, 0
9, 160240, Note_on_c, 8, 31, 0
9, 160240, Note_on_c, 8, 35, 100
9, 160240, Note_on_c, 8, 71, 99
9, 160280, Note_on_c, 8, 71, 0
9, 160280, Note_on_c, 8, 35, 0
9, 160280, Note_on_c, 8, 38, 100
9, 160280, Note_on_c, 8, 74, 105
9, 160320, Note_on_c, 8, 74, 0
9, 160320, Note_on_c, 8, 38, 0
9, 160320, Note_on_c, 8, 31, 100
9, 160320, Note_on_c, 8, 79, 104
9, 160359, Note_on_c, 8, 35, 100
9, 160360, Note_on_c, 8, 79, 0
9, 160360, Note_on_c, 8, 31, 0
9, 160360, Note_on_c, 8, 83, 105
9, 160399, Note_on_c, 8, 35, 0
9, 160400, Note_on_c, 8, 83, 0
9, 160400, Note_on_c, 8, 38, 100
9, 160400, Note_on_c, 8, 86, 107
9, 160440, Note_on_c, 8, 86, 0
9, 160440, Note_on_c, 8, 38, 0
9, 160440, Note_on_c, 8, 31, 100
9, 160440, Note_on_c, 8, 91, 104
9, 160480, Note_on_c, 8, 91, 0
9, 160480, Note_on_c, 8, 31, 0
9, 160480, Note_on_c, 8, 35, 100
9, 160480, Note_on_c, 8, 86, 99
9, 160520, Note_on_c, 8, 86, 0
9, 160520, Note_on_c, 8, 35, 0
9, 160520, Note_on_c, 8, 38, 100
9, 160520, Note_on_c, 8, 95, 104
9, 160560, Note_on_c, 8, 95, 0
9, 160560, Note_on_c, 8, 38, 0
9, 160560, Note_on_c, 8, 31, 100
9, 160560, Note_on_c, 8, 91, 105
9, 160680, Note_on_c, 8, 91, 0
9, 160680, Note_on_c, 8, 31, 0
9, 160790, Control_c, 8, 64, 0
9, 160800, Note_on_c, 8, 38, 104
9, 160800, Note_on_c, 8, 42, 89
9, 160800, Note_on_c, 8, 50, 94
9, 160800, Note_on_c, 8, 45, 104
9, 160800, Note_on_c, 8, 93, 93
9, 160800, Note_on_c, 8, 90, 89
9, 160800, Note_on_c, 8, 81, 99
9, 160800, Note_on_c, 8, 86, 99
9, 160920, Note_on_c, 8, 86, 0
9, 160920, Note_on_c, 8, 38, 0
9, 160920, Note_on_c, 8, 93, 0
9, 160920, Note_on_c, 8, 42, 0
9, 160920, Note_on_c, 8, 50, 0
9, 160920, Note_on_c, 8, 45, 0
9, 160920, Note_on_c, 8, 90, 0
9, 160920, Note_on_c, 8, 81, 0
9, 161040, Note_on_c, 8, 43, 89
9, 161040, Note_on_c, 8, 31, 94
9, 161040, Note_on_c, 8, 35, 99
9, 161040, Note_on_c, 8, 38, 99
9, 161040, Note_on_c, 8, 83, 101
9, 161040, Note_on_c, 8, 86, 98
9, 161040, Note_on_c, 8, 95, 89
9, 161040, Note_on_c, 8, 91, 101
9, 161160, Note_on_c, 8, 91, 0
9, 161160, Note_on_c, 8, 43, 0
9, 161160, Note_on_c, 8, 83, 0
9, 161160, Note_on_c, 8, 31, 0
9, 161160, Note_on_c, 8, 35, 0
9, 161160, Note_on_c, 8, 38, 0
9, 161160, Note_on_c, 8, 86, 0
9, 161160, Note_on_c, 8, 95, 0
9, 161160, End_track
10, 0, Start_track
10, 0, MIDI_port, 0
10, 0, Title_t, "1st Violins"
10, 0, Control_c, 10, 7, 100
10, 0, Control_c, 10, 10, 32
10, 0, Control_c, 10, 93, 0
10, 0, Control_c, 10, 91, 66
10, 0, Control_c, 10, 0, 0
10, 0, Control_c, 10, 32, 0
10, 0, Program_c, 10, 48
10, 0, Note_on_c, 10, 64, 40
10, 0, Note_on_c, 10, 55, 40
10, 120, Note_on_c, 10, 55, 0
10, 120, Note_on_c, 10, 64, 0
10, 180, Note_on_c, 10, 64, 43
10, 180, Note_on_c, 10, 55, 39
10, 210, Note_on_c, 10, 55, 0
10, 210, Note_on_c, 10, 64, 0
10, 210, Note_on_c, 10, 64, 38
10, 210, Note_on_c, 10, 55, 38
10, 240, Note_on_c, 10, 55, 0
10, 240, Note_on_c, 10, 64, 0
10, 240, Note_on_c, 10, 55, 43
10, 240, Note_on_c, 10, 64, 44
10, 360, Note_on_c, 10, 64, 0
10, 360, Note_on_c, 10, 55, 0
10, 420, Note_on_c, 10, 64, 37
10, 420, Note_on_c, 10, 55, 38
10, 450, Note_on_c, 10, 55, 0
10, 450, Note_on_c, 10, 64, 0
10, 450, Note_on_c, 10, 64, 35
10, 450, Note_on_c, 10, 55, 40
10, 480, Note_on_c, 10, 55, 0
10, 480, Note_on_c, 10, 64, 0
10, 480, Note_on_c, 10, 64, 42
10, 480, Note_on_c, 10, 55, 40
10, 540, Note_on_c, 10, 55, 0
10, 540, Note_on_c, 10, 64, 0
10, 600, Note_on_c, 10, 67, 40
10, 630, Note_on_c, 10, 67, 0
10, 660, Note_on_c, 10, 72, 64
10, 690, Note_on_c, 10, 72, 0
10, 720, Note_on_c, 10, 76, 29
10, 780, Note_on_c, 10, 76, 0
10, 960, Note_on_c, 10, 76, 45
10, 990, Note_on_c, 10, 76, 0
10, 1020, Note_on_c, 10, 74, 43
10, 1035, Note_on_c, 10, 74, 0
10, 1050, Note_on_c, 10, 76, 45
10, 1065, Note_on_c, 10, 76, 0
10, 1080, Note_on_c, 10, 72, 29
10, 1110, Note_on_c, 10, 72, 0
10, 1140, Note_on_c, 10, 71, 44
10, 1155, Note_on_c, 10, 71, 0
10, 1170, Note_on_c, 10, 72, 29
10, 1185, Note_on_c, 10, 72, 0
10, 1200, Note_on_c, 10, 69, 45
10, 1260, Note_on_c, 10, 69, 0
10, 1440, Note_on_c, 10, 69, 43
10, 1470, Note_on_c, 10, 69, 0
10, 1500, Note_on_c, 10, 67, 43
10, 1515, Note_on_c, 10, 67, 0
10, 1530, Note_on_c, 10, 69, 58
10, 1545, Note_on_c, 10, 69, 0
10, 1560, Note_on_c, 10, 74, 32
10, 1590, Note_on_c, 10, 74, 0
10, 1620, Note_on_c, 10, 72, 80
10, 1635, Note_on_c, 10, 72, 0
10, 1650, Note_on_c, 10, 74, 58
10, 1665, Note_on_c, 10, 74, 0
10, 1680, Note_on_c, 10, 71, 46
10, 1710, Note_on_c, 10, 71, 0
10, 1740, Note_on_c, 10, 69, 44
10, 1755, Note_on_c, 10, 69, 0
10, 1770, Note_on_c, 10, 71, 43
10, 1785, Note_on_c, 10, 71, 0
10, 1800, Note_on_c, 10, 67, 43
10, 1830, Note_on_c, 10, 67, 0
10, 1920, Note_on_c, 10, 67, 38
10, 1950, Note_on_c, 10, 67, 0
10, 2040, Note_on_c, 10, 62, 42
10, 2070, Note_on_c, 10, 62, 0
10, 2160, Note_on_c, 10, 59, 45
10, 2400, Note_on_c, 10, 59, 0
10, 4800, Note_on_c, 10, 67, 57
10, 4860, Note_on_c, 10, 67, 0
10, 4860, Note_on_c, 10, 66, 68
10, 4890, Note_on_c, 10, 66, 0
10, 4890, Note_on_c, 10, 67, 68
10, 4920, Note_on_c, 10, 67, 0
10, 4920, Note_on_c, 10, 69, 64
10, 4980, Note_on_c, 10, 69, 0
10, 4980, Note_on_c, 10, 67, 62
10, 5010, Note_on_c, 10, 67, 0
10, 5010, Note_on_c, 10, 66, 59
10, 5040, Note_on_c, 10, 66, 0
10, 5040, Note_on_c, 10, 67, 65
10, 5100, Note_on_c, 10, 67, 0
10, 5100, Note_on_c, 10, 74, 61
10, 5160, Note_on_c, 10, 74, 0
10, 5160, Note_on_c, 10, 72, 68
10, 5280, Note_on_c, 10, 72, 0
10, 5280, Note_on_c, 10, 71, 51
10, 5340, Note_on_c, 10, 71, 0
10, 5340, Note_on_c, 10, 69, 50
10, 5370, Note_on_c, 10, 69, 0
10, 5370, Note_on_c, 10, 67, 64
10, 5400, Note_on_c, 10, 67, 0
10, 5400, Note_on_c, 10, 69, 64
10, 5460, Note_on_c, 10, 69, 0
10, 5460, Note_on_c, 10, 67, 57
10, 5490, Note_on_c, 10, 67, 0
10, 5490, Note_on_c, 10, 66, 58
10, 5520, Note_on_c, 10, 66, 0
10, 5520, Note_on_c, 10, 67, 48
10, 5580, Note_on_c, 10, 67, 0
10, 5580, Note_on_c, 10, 64, 64
10, 5640, Note_on_c, 10, 64, 0
10, 5640, Note_on_c, 10, 62, 54
10, 5700, Note_on_c, 10, 62, 0
10, 6720, Note_on_c, 10, 67, 52
10, 6780, Note_on_c, 10, 67, 0
10, 6780, Note_on_c, 10, 64, 44
10, 6840, Note_on_c, 10, 64, 0
10, 6840, Note_on_c, 10, 62, 38
10, 6900, Note_on_c, 10, 62, 0
10, 7080, Note_on_c, 10, 67, 40
10, 7110, Note_on_c, 10, 67, 0
10, 7110, Note_on_c, 10, 64, 58
10, 7140, Note_on_c, 10, 64, 0
10, 7140, Note_on_c, 10, 62, 43
10, 7170, Note_on_c, 10, 62, 0
10, 7200, Note_on_c, 10, 79, 52
10, 7230, Note_on_c, 10, 79, 0
10, 7230, Note_on_c, 10, 76, 62
10, 7260, Note_on_c, 10, 76, 0
10, 7260, Note_on_c, 10, 74, 44
10, 7290, Note_on_c, 10, 74, 0
10, 7440, Note_on_c, 10, 76, 93
10, 7440, Note_on_c, 10, 64, 99
10, 7560, Note_on_c, 10, 64, 0
10, 7560, Note_on_c, 10, 76, 0
10, 7620, Note_on_c, 10, 76, 78
10, 7620, Note_on_c, 10, 64, 89
10, 7650, Note_on_c, 10, 64, 0
10, 7650, Note_on_c, 10, 76, 0
10, 7650, Note_on_c, 10, 64, 90
10, 7650, Note_on_c, 10, 76, 93
10, 7680, Note_on_c, 10, 76, 0
10, 7680, Note_on_c, 10, 64, 0
10, 7680, Note_on_c, 10, 76, 98
10, 7680, Note_on_c, 10, 64, 105
10, 7800, Note_on_c, 10, 64, 0
10, 7800, Note_on_c, 10, 76, 0
10, 7860, Note_on_c, 10, 76, 84
10, 7860, Note_on_c, 10, 64, 90
10, 7890, Note_on_c, 10, 64, 0
10, 7890, Note_on_c, 10, 76, 0
10, 7890, Note_on_c, 10, 76, 89
10, 7890, Note_on_c, 10, 64, 95
10, 7920, Note_on_c, 10, 64, 0
10, 7920, Note_on_c, 10, 76, 0
10, 7920, Note_on_c, 10, 76, 86
10, 7920, Note_on_c, 10, 64, 98
10, 7980, Note_on_c, 10, 64, 0
10, 7980, Note_on_c, 10, 76, 0
10, 8040, Note_on_c, 10, 79, 94
10, 8070, Note_on_c, 10, 79, 0
10, 8100, Note_on_c, 10, 84, 99
10, 8130, Note_on_c, 10, 84, 0
10, 8160, Note_on_c, 10, 88, 105
10, 8190, Note_on_c, 10, 88, 0
10, 8400, Note_on_c, 10, 88, 101
10, 8430, Note_on_c, 10, 88, 0
10, 8460, Note_on_c, 10, 86, 101
10, 8475, Note_on_c, 10, 86, 0
10, 8490, Note_on_c, 10, 88, 104
10, 8505, Note_on_c, 10, 88, 0
10, 8520, Note_on_c, 10, 84, 99
10, 8550, Note_on_c, 10, 84, 0
10, 8580, Note_on_c, 10, 83, 98
10, 8595, Note_on_c, 10, 83, 0
10, 8610, Note_on_c, 10, 84, 99
10, 8625, Note_on_c, 10, 84, 0
10, 8640, Note_on_c, 10, 81, 95
10, 8700, Note_on_c, 10, 81, 0
10, 8880, Note_on_c, 10, 81, 99
10, 8910, Note_on_c, 10, 81, 0
10, 8940, Note_on_c, 10, 79, 95
10, 8955, Note_on_c, 10, 79, 0
10, 8970, Note_on_c, 10, 81, 99
10, 8985, Note_on_c, 10, 81, 0
10, 9000, Note_on_c, 10, 86, 99
10, 9030, Note_on_c, 10, 86, 0
10, 9060, Note_on_c, 10, 84, 94
10, 9075, Note_on_c, 10, 84, 0
10, 9090, Note_on_c, 10, 86, 105
10, 9105, Note_on_c, 10, 86, 0
10, 9120, Note_on_c, 10, 83, 98
10, 9150, Note_on_c, 10, 83, 0
10, 9180, Note_on_c, 10, 81, 101
10, 9195, Note_on_c, 10, 81, 0
10, 9210, Note_on_c, 10, 83, 99
10, 9225, Note_on_c, 10, 83, 0
10, 9240, Note_on_c, 10, 79, 94
10, 9300, Note_on_c, 10, 79, 0
10, 9360, Note_on_c, 10, 81, 77
10, 9420, Note_on_c, 10, 81, 0
10, 9480, Note_on_c, 10, 74, 89
10, 9540, Note_on_c, 10, 74, 0
10, 9600, Note_on_c, 10, 86, 89
10, 9600, Note_on_c, 10, 74, 99
10, 9780, Note_on_c, 10, 74, 0
10, 9780, Note_on_c, 10, 86, 0
10, 9780, Note_on_c, 10, 74, 104
10, 9810, Note_on_c, 10, 74, 0
10, 9840, Note_on_c, 10, 84, 89
10, 9870, Note_on_c, 10, 84, 0
10, 9900, Note_on_c, 10, 72, 119
10, 9930, Note_on_c, 10, 72, 0
10, 9960, Note_on_c, 10, 83, 94
10, 9990, Note_on_c, 10, 83, 0
10, 10020, Note_on_c, 10, 71, 105
10, 10050, Note_on_c, 10, 71, 0
10, 10080, Note_on_c, 10, 81, 94
10, 10110, Note_on_c, 10, 81, 0
10, 10140, Note_on_c, 10, 69, 105
10, 10170, Note_on_c, 10, 69, 0
10, 10200, Note_on_c, 10, 79, 94
10, 10230, Note_on_c, 10, 79, 0
10, 10260, Note_on_c, 10, 67, 99
10, 10290, Note_on_c, 10, 67, 0
10, 10320, Note_on_c, 10, 81, 94
10, 10350, Note_on_c, 10, 81, 0
10, 10380, Note_on_c, 10, 69, 105
10, 10410, Note_on_c, 10, 69, 0
10, 10440, Note_on_c, 10, 78, 99
10, 10470, Note_on_c, 10, 78, 0
10, 10500, Note_on_c, 10, 78, 95
10, 10520, Note_on_c, 10, 78, 0
10, 10520, Note_on_c, 10, 79, 95
10, 10540, Note_on_c, 10, 79, 0
10, 10540, Note_on_c, 10, 78, 99
10, 10560, Note_on_c, 10, 78, 0
10, 11520, Note_on_c, 10, 83, 84
10, 11700, Note_on_c, 10, 83, 0
10, 11700, Note_on_c, 10, 71, 86
10, 11730, Note_on_c, 10, 71, 0
10, 11760, Note_on_c, 10, 81, 82
10, 11790, Note_on_c, 10, 81, 0
10, 11820, Note_on_c, 10, 69, 86
10, 11850, Note_on_c, 10, 69, 0
10, 11880, Note_on_c, 10, 79, 89
10, 11910, Note_on_c, 10, 79, 0
10, 11940, Note_on_c, 10, 67, 85
10, 11970, Note_on_c, 10, 67, 0
10, 12000, Note_on_c, 10, 78, 86
10, 12030, Note_on_c, 10, 78, 0
10, 12060, Note_on_c, 10, 66, 89
10, 12090, Note_on_c, 10, 66, 0
10, 12120, Note_on_c, 10, 76, 94
10, 12150, Note_on_c, 10, 76, 0
10, 12180, Note_on_c, 10, 64, 90
10, 12210, Note_on_c, 10, 64, 0
10, 12240, Note_on_c, 10, 78, 85
10, 12270, Note_on_c, 10, 78, 0
10, 12300, Note_on_c, 10, 66, 89
10, 12330, Note_on_c, 10, 66, 0
10, 12360, Note_on_c, 10, 75, 94
10, 12390, Note_on_c, 10, 75, 0
10, 12420, Note_on_c, 10, 75, 89
10, 12430, Note_on_c, 10, 75, 0
10, 12430, Note_on_c, 10, 76, 76
10, 12440, Note_on_c, 10, 76, 0
10, 12440, Note_on_c, 10, 75, 93
10, 12450, Note_on_c, 10, 75, 0
10, 12450, Note_on_c, 10, 73, 80
10, 12465, Note_on_c, 10, 73, 0
10, 12465, Note_on_c, 10, 75, 95
10, 12480, Note_on_c, 10, 75, 0
10, 13440, Note_on_c, 10, 81, 84
10, 13470, Note_on_c, 10, 81, 0
10, 13500, Note_on_c, 10, 69, 94
10, 13530, Note_on_c, 10, 69, 0
10, 13560, Note_on_c, 10, 83, 85
10, 13590, Note_on_c, 10, 83, 0
10, 13620, Note_on_c, 10, 71, 101
10, 13650, Note_on_c, 10, 71, 0
10, 13920, Note_on_c, 10, 81, 89
10, 13950, Note_on_c, 10, 81, 0
10, 13980, Note_on_c, 10, 69, 89
10, 14010, Note_on_c, 10, 69, 0
10, 14040, Note_on_c, 10, 83, 89
10, 14070, Note_on_c, 10, 83, 0
10, 14100, Note_on_c, 10, 71, 95
10, 14130, Note_on_c, 10, 71, 0
10, 14280, Program_c, 10, 45
10, 14400, Note_on_c, 10, 69, 84
10, 14460, Note_on_c, 10, 69, 0
10, 16080, Note_on_c, 10, 69, 73
10, 16200, Note_on_c, 10, 69, 0
10, 16440, Note_on_c, 10, 65, 74
10, 16560, Note_on_c, 10, 65, 0
10, 16560, Note_on_c, 10, 64, 74
10, 16680, Note_on_c, 10, 64, 0
10, 16920, Note_on_c, 10, 65, 72
10, 17040, Note_on_c, 10, 65, 0
10, 17040, Note_on_c, 10, 64, 76
10, 17160, Note_on_c, 10, 64, 0
10, 17280, Note_on_c, 10, 66, 78
10, 17400, Note_on_c, 10, 66, 0
10, 17520, Note_on_c, 10, 67, 76
10, 17640, Note_on_c, 10, 67, 0
10, 18120, Note_on_c, 10, 68, 81
10, 18240, Note_on_c, 10, 68, 0
10, 18960, Note_on_c, 10, 69, 73
10, 19080, Note_on_c, 10, 69, 0
10, 21840, Program_c, 10, 48
10, 21960, Note_on_c, 10, 64, 90
10, 21970, Control_c, 10, 7, 99
10, 21980, Control_c, 10, 7, 98
10, 21990, Control_c, 10, 7, 97
10, 22000, Control_c, 10, 7, 96
10, 22010, Control_c, 10, 7, 95
10, 22020, Control_c, 10, 7, 94
10, 22030, Control_c, 10, 7, 92
10, 22040, Control_c, 10, 7, 91
10, 22050, Control_c, 10, 7, 90
10, 22060, Control_c, 10, 7, 89
10, 22070, Control_c, 10, 7, 88
10, 22080, Control_c, 10, 7, 86
10, 22090, Control_c, 10, 7, 85
10, 22100, Control_c, 10, 7, 84
10, 22110, Control_c, 10, 7, 83
10, 22120, Control_c, 10, 7, 82
10, 22130, Control_c, 10, 7, 80
10, 22140, Control_c, 10, 7, 79
10, 22150, Control_c, 10, 7, 78
10, 22160, Control_c, 10, 7, 77
10, 22170, Control_c, 10, 7, 76
10, 22180, Control_c, 10, 7, 74
10, 22190, Control_c, 10, 7, 73
10, 22200, Control_c, 10, 7, 72
10, 22210, Control_c, 10, 7, 71
10, 22220, Control_c, 10, 7, 70
10, 22230, Control_c, 10, 7, 68
10, 22240, Control_c, 10, 7, 67
10, 22250, Control_c, 10, 7, 66
10, 22260, Control_c, 10, 7, 65
10, 22270, Control_c, 10, 7, 64
10, 22280, Control_c, 10, 7, 62
10, 22290, Control_c, 10, 7, 61
10, 22300, Control_c, 10, 7, 60
10, 22310, Control_c, 10, 7, 59
10, 22320, Control_c, 10, 7, 58
10, 22330, Control_c, 10, 7, 56
10, 22340, Control_c, 10, 7, 55
10, 22350, Control_c, 10, 7, 54
10, 22360, Control_c, 10, 7, 53
10, 22370, Control_c, 10, 7, 52
10, 22380, Control_c, 10, 7, 50
10, 22390, Control_c, 10, 7, 49
10, 22400, Control_c, 10, 7, 48
10, 22410, Control_c, 10, 7, 47
10, 22420, Control_c, 10, 7, 46
10, 22430, Control_c, 10, 7, 44
10, 22440, Control_c, 10, 7, 43
10, 22450, Control_c, 10, 7, 42
10, 22460, Control_c, 10, 7, 41
10, 22470, Control_c, 10, 7, 40
10, 22480, Control_c, 10, 7, 38
10, 22560, Note_on_c, 10, 64, 0
10, 22560, Note_on_c, 10, 66, 44
10, 22570, Control_c, 10, 7, 38
10, 22580, Control_c, 10, 7, 43
10, 22590, Control_c, 10, 7, 49
10, 22600, Control_c, 10, 7, 54
10, 22610, Control_c, 10, 7, 60
10, 22620, Control_c, 10, 7, 65
10, 22630, Control_c, 10, 7, 71
10, 22640, Control_c, 10, 7, 76
10, 22650, Control_c, 10, 7, 82
10, 22660, Control_c, 10, 7, 87
10, 22670, Control_c, 10, 7, 93
10, 22680, Note_on_c, 10, 66, 0
10, 22680, Control_c, 10, 7, 99
10, 22680, Note_on_c, 10, 67, 43
10, 22800, Note_on_c, 10, 67, 0
10, 22800, Note_on_c, 10, 69, 44
10, 23160, Note_on_c, 10, 69, 0
10, 23160, Note_on_c, 10, 67, 35
10, 23220, Note_on_c, 10, 67, 0
10, 23220, Note_on_c, 10, 66, 46
10, 23280, Note_on_c, 10, 66, 0
10, 23280, Note_on_c, 10, 66, 43
10, 23400, Note_on_c, 10, 66, 0
10, 23400, Note_on_c, 10, 64, 46
10, 23580, Note_on_c, 10, 64, 0
10, 23580, Note_on_c, 10, 57, 42
10, 23640, Note_on_c, 10, 57, 0
10, 23640, Note_on_c, 10, 59, 50
10, 23700, Note_on_c, 10, 59, 0
10, 23700, Note_on_c, 10, 61, 43
10, 23760, Note_on_c, 10, 61, 0
10, 23760, Note_on_c, 10, 62, 57
10, 24000, Note_on_c, 10, 62, 0
10, 24000, Note_on_c, 10, 64, 63
10, 24015, Note_on_c, 10, 64, 0
10, 24015, Note_on_c, 10, 62, 55
10, 24030, Note_on_c, 10, 62, 0
10, 24030, Note_on_c, 10, 61, 50
10, 24045, Note_on_c, 10, 61, 0
10, 24045, Note_on_c, 10, 62, 56
10, 24060, Note_on_c, 10, 62, 0
10, 24060, Note_on_c, 10, 64, 47
10, 24120, Note_on_c, 10, 64, 0
10, 24120, Note_on_c, 10, 66, 43
10, 24180, Note_on_c, 10, 66, 0
10, 24180, Note_on_c, 10, 67, 46
10, 24240, Note_on_c, 10, 67, 0
10, 24240, Note_on_c, 10, 66, 45
10, 24360, Note_on_c, 10, 66, 0
10, 24360, Note_on_c, 10, 64, 46
10, 24600, Note_on_c, 10, 64, 0
10, 24600, Note_on_c, 10, 66, 45
10, 24660, Note_on_c, 10, 66, 0
10, 24660, Note_on_c, 10, 67, 45
10, 24720, Note_on_c, 10, 67, 0
10, 24720, Note_on_c, 10, 69, 40
10, 25080, Note_on_c, 10, 69, 0
10, 25080, Note_on_c, 10, 67, 35
10, 25140, Note_on_c, 10, 67, 0
10, 25140, Note_on_c, 10, 66, 31
10, 25200, Note_on_c, 10, 66, 0
10, 25200, Note_on_c, 10, 66, 46
10, 25320, Note_on_c, 10, 66, 0
10, 25320, Note_on_c, 10, 64, 72
10, 25500, Note_on_c, 10, 64, 0
10, 25500, Note_on_c, 10, 57, 65
10, 25560, Note_on_c, 10, 57, 0
10, 25560, Note_on_c, 10, 59, 60
10, 25620, Note_on_c, 10, 59, 0
10, 25620, Note_on_c, 10, 61, 51
10, 25680, Note_on_c, 10, 61, 0
10, 25680, Note_on_c, 10, 62, 60
10, 25860, Note_on_c, 10, 62, 0
10, 25860, Note_on_c, 10, 64, 53
10, 25980, Note_on_c, 10, 64, 0
10, 25980, Note_on_c, 10, 57, 59
10, 26040, Note_on_c, 10, 57, 0
10, 26040, Note_on_c, 10, 59, 32
10, 26100, Note_on_c, 10, 59, 0
10, 26100, Note_on_c, 10, 61, 47
10, 26160, Note_on_c, 10, 61, 0
10, 26160, Note_on_c, 10, 62, 99
10, 26220, Note_on_c, 10, 62, 0
10, 26640, Note_on_c, 10, 67, 89
10, 26700, Note_on_c, 10, 67, 0
10, 27120, Note_on_c, 10, 66, 99
10, 27180, Note_on_c, 10, 66, 0
10, 27600, Note_on_c, 10, 67, 90
10, 27660, Note_on_c, 10, 67, 0
10, 28080, Note_on_c, 10, 66, 86
10, 28140, Note_on_c, 10, 66, 0
10, 28320, Note_on_c, 10, 61, 76
10, 28320, Note_on_c, 10, 64, 82
10, 28380, Note_on_c, 10, 64, 0
10, 28380, Note_on_c, 10, 61, 0
10, 28560, Note_on_c, 10, 62, 68
10, 28620, Note_on_c, 10, 62, 0
10, 28680, Note_on_c, 10, 72, 76
10, 28740, Note_on_c, 10, 72, 0
10, 28800, Note_on_c, 10, 71, 71
10, 28860, Note_on_c, 10, 71, 0
10, 28920, Note_on_c, 10, 69, 61
10, 28980, Note_on_c, 10, 69, 0
10, 29040, Note_on_c, 10, 67, 57
10, 29100, Note_on_c, 10, 67, 0
10, 29160, Note_on_c, 10, 67, 61
10, 29220, Note_on_c, 10, 67, 0
10, 29280, Note_on_c, 10, 64, 64
10, 29340, Note_on_c, 10, 64, 0
10, 29520, Note_on_c, 10, 66, 38
10, 29580, Note_on_c, 10, 66, 0
10, 30000, Note_on_c, 10, 67, 36
10, 30060, Note_on_c, 10, 67, 0
10, 30480, Note_on_c, 10, 66, 35
10, 30540, Note_on_c, 10, 66, 0
10, 30960, Note_on_c, 10, 65, 45
10, 31020, Note_on_c, 10, 65, 0
10, 31440, Note_on_c, 10, 65, 43
10, 31500, Note_on_c, 10, 65, 0
10, 31920, Note_on_c, 10, 65, 104
10, 31980, Note_on_c, 10, 65, 0
10, 34020, Note_on_c, 10, 65, 63
10, 34050, Note_on_c, 10, 65, 0
10, 34050, Note_on_c, 10, 65, 55
10, 34080, Note_on_c, 10, 65, 0
10, 34080, Note_on_c, 10, 65, 65
10, 34140, Note_on_c, 10, 65, 0
10, 34500, Note_on_c, 10, 65, 45
10, 34530, Note_on_c, 10, 65, 0
10, 34530, Note_on_c, 10, 65, 66
10, 34560, Note_on_c, 10, 65, 0
10, 34560, Note_on_c, 10, 65, 70
10, 34620, Note_on_c, 10, 65, 0
10, 35940, Note_on_c, 10, 65, 89
10, 35970, Note_on_c, 10, 65, 0
10, 35970, Note_on_c, 10, 65, 94
10, 36000, Note_on_c, 10, 65, 0
10, 36000, Note_on_c, 10, 65, 89
10, 36060, Note_on_c, 10, 65, 0
10, 36420, Note_on_c, 10, 65, 85
10, 36450, Note_on_c, 10, 65, 0
10, 36450, Note_on_c, 10, 65, 90
10, 36480, Note_on_c, 10, 65, 0
10, 36480, Note_on_c, 10, 65, 85
10, 36540, Note_on_c, 10, 65, 0
10, 37200, Note_on_c, 10, 65, 38
10, 38040, Note_on_c, 10, 65, 0
10, 38040, Note_on_c, 10, 65, 38
10, 38280, Note_on_c, 10, 65, 0
10, 40560, Control_c, 10, 0, 0
10, 40560, Control_c, 10, 32, 0
10, 40560, Program_c, 10, 48
10, 40560, Control_c, 10, 7, 100
10, 40560, Control_c, 10, 10, 27
10, 40560, Note_on_c, 10, 64, 40
10, 40560, Note_on_c, 10, 55, 40
10, 40680, Note_on_c, 10, 55, 0
10, 40680, Note_on_c, 10, 64, 0
10, 40740, Note_on_c, 10, 64, 43
10, 40740, Note_on_c, 10, 55, 39
10, 40770, Note_on_c, 10, 55, 0
10, 40770, Note_on_c, 10, 64, 0
10, 40770, Note_on_c, 10, 64, 38
10, 40770, Note_on_c, 10, 55, 38
10, 40800, Note_on_c, 10, 55, 0
10, 40800, Note_on_c, 10, 64, 0
10, 40800, Note_on_c, 10, 55, 43
10, 40800, Note_on_c, 10, 64, 44
10, 40920, Note_on_c, 10, 64, 0
10, 40920, Note_on_c, 10, 55, 0
10, 40980, Note_on_c, 10, 64, 37
10, 40980, Note_on_c, 10, 55, 38
10, 41010, Note_on_c, 10, 55, 0
10, 41010, Note_on_c, 10, 64, 0
10, 41010, Note_on_c, 10, 64, 35
10, 41010, Note_on_c, 10, 55, 40
10, 41040, Note_on_c, 10, 55, 0
10, 41040, Note_on_c, 10, 64, 0
10, 41040, Note_on_c, 10, 64, 42
10, 41040, Note_on_c, 10, 55, 40
10, 41100, Note_on_c, 10, 55, 0
10, 41100, Note_on_c, 10, 64, 0
10, 41160, Note_on_c, 10, 67, 40
10, 41190, Note_on_c, 10, 67, 0
10, 41220, Note_on_c, 10, 72, 64
10, 41250, Note_on_c, 10, 72, 0
10, 41280, Note_on_c, 10, 76, 29
10, 41340, Note_on_c, 10, 76, 0
10, 41520, Note_on_c, 10, 76, 45
10, 41550, Note_on_c, 10, 76, 0
10, 41580, Note_on_c, 10, 74, 43
10, 41595, Note_on_c, 10, 74, 0
10, 41610, Note_on_c, 10, 76, 45
10, 41625, Note_on_c, 10, 76, 0
10, 41640, Note_on_c, 10, 72, 29
10, 41670, Note_on_c, 10, 72, 0
10, 41700, Note_on_c, 10, 71, 44
10, 41715, Note_on_c, 10, 71, 0
10, 41730, Note_on_c, 10, 72, 29
10, 41745, Note_on_c, 10, 72, 0
10, 41760, Note_on_c, 10, 69, 45
10, 41820, Note_on_c, 10, 69, 0
10, 42000, Note_on_c, 10, 69, 43
10, 42030, Note_on_c, 10, 69, 0
10, 42060, Note_on_c, 10, 67, 43
10, 42075, Note_on_c, 10, 67, 0
10, 42090, Note_on_c, 10, 69, 58
10, 42105, Note_on_c, 10, 69, 0
10, 42120, Note_on_c, 10, 74, 32
10, 42150, Note_on_c, 10, 74, 0
10, 42180, Note_on_c, 10, 72, 80
10, 42195, Note_on_c, 10, 72, 0
10, 42210, Note_on_c, 10, 74, 58
10, 42225, Note_on_c, 10, 74, 0
10, 42240, Note_on_c, 10, 71, 46
10, 42270, Note_on_c, 10, 71, 0
10, 42300, Note_on_c, 10, 69, 44
10, 42315, Note_on_c, 10, 69, 0
10, 42330, Note_on_c, 10, 71, 43
10, 42345, Note_on_c, 10, 71, 0
10, 42360, Note_on_c, 10, 67, 43
10, 42390, Note_on_c, 10, 67, 0
10, 42480, Note_on_c, 10, 67, 38
10, 42510, Note_on_c, 10, 67, 0
10, 42600, Note_on_c, 10, 62, 42
10, 42630, Note_on_c, 10, 62, 0
10, 42720, Note_on_c, 10, 59, 45
10, 42960, Note_on_c, 10, 59, 0
10, 45360, Note_on_c, 10, 67, 57
10, 45420, Note_on_c, 10, 67, 0
10, 45420, Note_on_c, 10, 66, 68
10, 45450, Note_on_c, 10, 66, 0
10, 45450, Note_on_c, 10, 67, 68
10, 45480, Note_on_c, 10, 67, 0
10, 45480, Note_on_c, 10, 69, 64
10, 45540, Note_on_c, 10, 69, 0
10, 45540, Note_on_c, 10, 67, 62
10, 45570, Note_on_c, 10, 67, 0
10, 45570, Note_on_c, 10, 66, 59
10, 45600, Note_on_c, 10, 66, 0
10, 45600, Note_on_c, 10, 67, 65
10, 45660, Note_on_c, 10, 67, 0
10, 45660, Note_on_c, 10, 74, 61
10, 45720, Note_on_c, 10, 74, 0
10, 45720, Note_on_c, 10, 72, 68
10, 45840, Note_on_c, 10, 72, 0
10, 45840, Note_on_c, 10, 71, 51
10, 45900, Note_on_c, 10, 71, 0
10, 45900, Note_on_c, 10, 69, 50
10, 45930, Note_on_c, 10, 69, 0
10, 45930, Note_on_c, 10, 67, 64
10, 45960, Note_on_c, 10, 67, 0
10, 45960, Note_on_c, 10, 69, 64
10, 46020, Note_on_c, 10, 69, 0
10, 46020, Note_on_c, 10, 67, 57
10, 46050, Note_on_c, 10, 67, 0
10, 46050, Note_on_c, 10, 66, 58
10, 46080, Note_on_c, 10, 66, 0
10, 46080, Note_on_c, 10, 67, 48
10, 46140, Note_on_c, 10, 67, 0
10, 46140, Note_on_c, 10, 64, 64
10, 46200, Note_on_c, 10, 64, 0
10, 46200, Note_on_c, 10, 62, 54
10, 46260, Note_on_c, 10, 62, 0
10, 47280, Note_on_c, 10, 67, 52
10, 47340, Note_on_c, 10, 67, 0
10, 47340, Note_on_c, 10, 64, 44
10, 47400, Note_on_c, 10, 64, 0
10, 47400, Note_on_c, 10, 62, 38
10, 47460, Note_on_c, 10, 62, 0
10, 47640, Note_on_c, 10, 67, 40
10, 47670, Note_on_c, 10, 67, 0
10, 47670, Note_on_c, 10, 64, 58
10, 47700, Note_on_c, 10, 64, 0
10, 47700, Note_on_c, 10, 62, 43
10, 47730, Note_on_c, 10, 62, 0
10, 47760, Note_on_c, 10, 79, 52
10, 47790, Note_on_c, 10, 79, 0
10, 47790, Note_on_c, 10, 76, 62
10, 47820, Note_on_c, 10, 76, 0
10, 47820, Note_on_c, 10, 74, 44
10, 47850, Note_on_c, 10, 74, 0
10, 48000, Note_on_c, 10, 76, 93
10, 48000, Note_on_c, 10, 64, 99
10, 48120, Note_on_c, 10, 64, 0
10, 48120, Note_on_c, 10, 76, 0
10, 48180, Note_on_c, 10, 76, 78
10, 48180, Note_on_c, 10, 64, 89
10, 48210, Note_on_c, 10, 64, 0
10, 48210, Note_on_c, 10, 76, 0
10, 48210, Note_on_c, 10, 64, 90
10, 48210, Note_on_c, 10, 76, 93
10, 48240, Note_on_c, 10, 76, 0
10, 48240, Note_on_c, 10, 64, 0
10, 48240, Note_on_c, 10, 76, 98
10, 48240, Note_on_c, 10, 64, 105
10, 48360, Note_on_c, 10, 64, 0
10, 48360, Note_on_c, 10, 76, 0
10, 48420, Note_on_c, 10, 76, 84
10, 48420, Note_on_c, 10, 64, 90
10, 48450, Note_on_c, 10, 64, 0
10, 48450, Note_on_c, 10, 76, 0
10, 48450, Note_on_c, 10, 76, 89
10, 48450, Note_on_c, 10, 64, 95
10, 48480, Note_on_c, 10, 64, 0
10, 48480, Note_on_c, 10, 76, 0
10, 48480, Note_on_c, 10, 76, 86
10, 48480, Note_on_c, 10, 64, 98
10, 48540, Note_on_c, 10, 64, 0
10, 48540, Note_on_c, 10, 76, 0
10, 48600, Note_on_c, 10, 79, 94
10, 48630, Note_on_c, 10, 79, 0
10, 48660, Note_on_c, 10, 84, 99
10, 48690, Note_on_c, 10, 84, 0
10, 48720, Note_on_c, 10, 88, 105
10, 48750, Note_on_c, 10, 88, 0
10, 48960, Note_on_c, 10, 88, 101
10, 48990, Note_on_c, 10, 88, 0
10, 49020, Note_on_c, 10, 86, 101
10, 49035, Note_on_c, 10, 86, 0
10, 49050, Note_on_c, 10, 88, 104
10, 49065, Note_on_c, 10, 88, 0
10, 49080, Note_on_c, 10, 84, 99
10, 49110, Note_on_c, 10, 84, 0
10, 49140, Note_on_c, 10, 83, 98
10, 49155, Note_on_c, 10, 83, 0
10, 49170, Note_on_c, 10, 84, 99
10, 49185, Note_on_c, 10, 84, 0
10, 49200, Note_on_c, 10, 81, 95
10, 49260, Note_on_c, 10, 81, 0
10, 49440, Note_on_c, 10, 81, 99
10, 49470, Note_on_c, 10, 81, 0
10, 49500, Note_on_c, 10, 79, 95
10, 49515, Note_on_c, 10, 79, 0
10, 49530, Note_on_c, 10, 81, 99
10, 49545, Note_on_c, 10, 81, 0
10, 49560, Note_on_c, 10, 86, 99
10, 49590, Note_on_c, 10, 86, 0
10, 49620, Note_on_c, 10, 84, 94
10, 49635, Note_on_c, 10, 84, 0
10, 49650, Note_on_c, 10, 86, 105
10, 49665, Note_on_c, 10, 86, 0
10, 49680, Note_on_c, 10, 83, 98
10, 49710, Note_on_c, 10, 83, 0
10, 49740, Note_on_c, 10, 81, 101
10, 49755, Note_on_c, 10, 81, 0
10, 49770, Note_on_c, 10, 83, 99
10, 49785, Note_on_c, 10, 83, 0
10, 49800, Note_on_c, 10, 79, 94
10, 49860, Note_on_c, 10, 79, 0
10, 49920, Note_on_c, 10, 81, 77
10, 49980, Note_on_c, 10, 81, 0
10, 50040, Note_on_c, 10, 74, 89
10, 50100, Note_on_c, 10, 74, 0
10, 50160, Note_on_c, 10, 86, 89
10, 50160, Note_on_c, 10, 74, 99
10, 50340, Note_on_c, 10, 74, 0
10, 50340, Note_on_c, 10, 86, 0
10, 50340, Note_on_c, 10, 74, 104
10, 50370, Note_on_c, 10, 74, 0
10, 50400, Note_on_c, 10, 84, 89
10, 50430, Note_on_c, 10, 84, 0
10, 50460, Note_on_c, 10, 72, 119
10, 50490, Note_on_c, 10, 72, 0
10, 50520, Note_on_c, 10, 83, 94
10, 50550, Note_on_c, 10, 83, 0
10, 50580, Note_on_c, 10, 71, 105
10, 50610, Note_on_c, 10, 71, 0
10, 50640, Note_on_c, 10, 81, 94
10, 50670, Note_on_c, 10, 81, 0
10, 50700, Note_on_c, 10, 69, 105
10, 50730, Note_on_c, 10, 69, 0
10, 50760, Note_on_c, 10, 79, 94
10, 50790, Note_on_c, 10, 79, 0
10, 50820, Note_on_c, 10, 67, 99
10, 50850, Note_on_c, 10, 67, 0
10, 50880, Note_on_c, 10, 81, 94
10, 50910, Note_on_c, 10, 81, 0
10, 50940, Note_on_c, 10, 69, 105
10, 50970, Note_on_c, 10, 69, 0
10, 51000, Note_on_c, 10, 78, 99
10, 51030, Note_on_c, 10, 78, 0
10, 51060, Note_on_c, 10, 78, 95
10, 51080, Note_on_c, 10, 78, 0
10, 51080, Note_on_c, 10, 79, 95
10, 51100, Note_on_c, 10, 79, 0
10, 51100, Note_on_c, 10, 78, 99
10, 51120, Note_on_c, 10, 78, 0
10, 52080, Note_on_c, 10, 82, 84
10, 52260, Note_on_c, 10, 82, 0
10, 52260, Note_on_c, 10, 70, 99
10, 52290, Note_on_c, 10, 70, 0
10, 52320, Note_on_c, 10, 80, 89
10, 52350, Note_on_c, 10, 80, 0
10, 52380, Note_on_c, 10, 68, 99
10, 52410, Note_on_c, 10, 68, 0
10, 52440, Note_on_c, 10, 79, 86
10, 52470, Note_on_c, 10, 79, 0
10, 52500, Note_on_c, 10, 67, 90
10, 52530, Note_on_c, 10, 67, 0
10, 52560, Note_on_c, 10, 77, 84
10, 52590, Note_on_c, 10, 77, 0
10, 52620, Note_on_c, 10, 65, 99
10, 52650, Note_on_c, 10, 65, 0
10, 52680, Note_on_c, 10, 75, 94
10, 52710, Note_on_c, 10, 75, 0
10, 52740, Note_on_c, 10, 63, 98
10, 52770, Note_on_c, 10, 63, 0
10, 52800, Note_on_c, 10, 77, 84
10, 52830, Note_on_c, 10, 77, 0
10, 52860, Note_on_c, 10, 65, 99
10, 52890, Note_on_c, 10, 65, 0
10, 52920, Note_on_c, 10, 74, 105
10, 52950, Note_on_c, 10, 74, 0
10, 52980, Note_on_c, 10, 74, 95
10, 53000, Note_on_c, 10, 74, 0
10, 53000, Note_on_c, 10, 75, 89
10, 53020, Note_on_c, 10, 75, 0
10, 53020, Note_on_c, 10, 74, 98
10, 53040, Note_on_c, 10, 74, 0
10, 53940, Note_on_c, 10, 62, 68
10, 54000, Note_on_c, 10, 62, 0
10, 54000, Note_on_c, 10, 63, 84
10, 54075, Control_c, 10, 7, 99
10, 54080, Control_c, 10, 7, 97
10, 54085, Control_c, 10, 7, 95
10, 54090, Control_c, 10, 7, 92
10, 54095, Control_c, 10, 7, 90
10, 54100, Control_c, 10, 7, 87
10, 54105, Control_c, 10, 7, 85
10, 54110, Control_c, 10, 7, 83
10, 54115, Control_c, 10, 7, 80
10, 54120, Control_c, 10, 7, 78
10, 54125, Control_c, 10, 7, 75
10, 54300, Note_on_c, 10, 63, 0
10, 54300, Note_on_c, 10, 67, 89
10, 54360, Note_on_c, 10, 67, 0
10, 54360, Note_on_c, 10, 70, 94
10, 54420, Note_on_c, 10, 70, 0
10, 54420, Note_on_c, 10, 75, 104
10, 54480, Note_on_c, 10, 75, 0
10, 54480, Control_c, 10, 7, 95
10, 54480, Note_on_c, 10, 79, 104
10, 54540, Note_on_c, 10, 79, 0
10, 54540, Note_on_c, 10, 75, 89
10, 54550, Control_c, 10, 7, 95
10, 54555, Control_c, 10, 7, 93
10, 54560, Control_c, 10, 7, 91
10, 54565, Control_c, 10, 7, 89
10, 54570, Control_c, 10, 7, 87
10, 54575, Control_c, 10, 7, 85
10, 54580, Control_c, 10, 7, 83
10, 54585, Control_c, 10, 7, 81
10, 54590, Control_c, 10, 7, 79
10, 54595, Control_c, 10, 7, 77
10, 54600, Note_on_c, 10, 75, 0
10, 54600, Control_c, 10, 7, 75
10, 54600, Note_on_c, 10, 70, 98
10, 54660, Note_on_c, 10, 70, 0
10, 54660, Note_on_c, 10, 67, 90
10, 54720, Note_on_c, 10, 67, 0
10, 54720, Note_on_c, 10, 63, 94
10, 54780, Note_on_c, 10, 63, 0
10, 55200, Note_on_c, 10, 65, 95
10, 55260, Note_on_c, 10, 65, 0
10, 55260, Note_on_c, 10, 70, 95
10, 55320, Note_on_c, 10, 70, 0
10, 55320, Note_on_c, 10, 74, 94
10, 55380, Note_on_c, 10, 74, 0
10, 55380, Note_on_c, 10, 77, 86
10, 55440, Note_on_c, 10, 77, 0
10, 55440, Control_c, 10, 7, 97
10, 55440, Note_on_c, 10, 80, 107
10, 55500, Note_on_c, 10, 80, 0
10, 55500, Note_on_c, 10, 77, 93
10, 55505, Control_c, 10, 7, 96
10, 55510, Control_c, 10, 7, 94
10, 55515, Control_c, 10, 7, 92
10, 55520, Control_c, 10, 7, 89
10, 55525, Control_c, 10, 7, 87
10, 55530, Control_c, 10, 7, 85
10, 55535, Control_c, 10, 7, 82
10, 55540, Control_c, 10, 7, 80
10, 55545, Control_c, 10, 7, 78
10, 55550, Control_c, 10, 7, 75
10, 55560, Note_on_c, 10, 77, 0
10, 55560, Note_on_c, 10, 74, 99
10, 55620, Note_on_c, 10, 74, 0
10, 55620, Note_on_c, 10, 70, 101
10, 55680, Note_on_c, 10, 70, 0
10, 55680, Note_on_c, 10, 68, 93
10, 55740, Note_on_c, 10, 68, 0
10, 55740, Note_on_c, 10, 65, 105
10, 55800, Note_on_c, 10, 65, 0
10, 55800, Note_on_c, 10, 62, 101
10, 55860, Note_on_c, 10, 62, 0
10, 55860, Note_on_c, 10, 58, 98
10, 55920, Note_on_c, 10, 58, 0
10, 55920, Note_on_c, 10, 67, 63
10, 55980, Note_on_c, 10, 67, 0
10, 56040, Control_c, 10, 7, 100
10, 56100, Program_c, 10, 45
10, 56160, Note_on_c, 10, 67, 50
10, 56220, Note_on_c, 10, 67, 0
10, 56280, Note_on_c, 10, 70, 64
10, 56340, Note_on_c, 10, 70, 0
10, 56340, Note_on_c, 10, 75, 65
10, 56400, Note_on_c, 10, 75, 0
10, 56400, Note_on_c, 10, 79, 53
10, 56460, Note_on_c, 10, 79, 0
10, 56520, Program_c, 10, 48
10, 56640, Note_on_c, 10, 72, 40
10, 56670, Note_on_c, 10, 72, 0
10, 56700, Note_on_c, 10, 70, 40
10, 56715, Note_on_c, 10, 70, 0
10, 56730, Note_on_c, 10, 72, 40
10, 56745, Note_on_c, 10, 72, 0
10, 56760, Note_on_c, 10, 75, 38
10, 56790, Note_on_c, 10, 75, 0
10, 56820, Note_on_c, 10, 74, 43
10, 56835, Note_on_c, 10, 74, 0
10, 56850, Note_on_c, 10, 75, 36
10, 56865, Note_on_c, 10, 75, 0
10, 56880, Note_on_c, 10, 73, 45
10, 56940, Note_on_c, 10, 73, 0
10, 57180, Note_on_c, 10, 61, 53
10, 57240, Note_on_c, 10, 61, 0
10, 57240, Note_on_c, 10, 65, 65
10, 57300, Note_on_c, 10, 65, 0
10, 57300, Note_on_c, 10, 70, 69
10, 57360, Note_on_c, 10, 70, 0
10, 57360, Note_on_c, 10, 73, 99
10, 57420, Note_on_c, 10, 73, 0
10, 57420, Note_on_c, 10, 70, 63
10, 57480, Note_on_c, 10, 70, 0
10, 57480, Note_on_c, 10, 65, 62
10, 57540, Note_on_c, 10, 65, 0
10, 57540, Note_on_c, 10, 61, 53
10, 57600, Note_on_c, 10, 61, 0
10, 58140, Note_on_c, 10, 65, 70
10, 58200, Note_on_c, 10, 65, 0
10, 58200, Note_on_c, 10, 69, 76
10, 58260, Note_on_c, 10, 69, 0
10, 58260, Note_on_c, 10, 72, 82
10, 58320, Note_on_c, 10, 72, 0
10, 58320, Note_on_c, 10, 75, 110
10, 58380, Note_on_c, 10, 75, 0
10, 58380, Note_on_c, 10, 72, 84
10, 58440, Note_on_c, 10, 72, 0
10, 58440, Note_on_c, 10, 69, 72
10, 58500, Note_on_c, 10, 69, 0
10, 58500, Note_on_c, 10, 65, 76
10, 58560, Note_on_c, 10, 65, 0
10, 58560, Note_on_c, 10, 63, 64
10, 58620, Note_on_c, 10, 63, 0
10, 58620, Note_on_c, 10, 60, 68
10, 58680, Note_on_c, 10, 60, 0
10, 58680, Note_on_c, 10, 57, 67
10, 58740, Note_on_c, 10, 57, 0
10, 58740, Note_on_c, 10, 65, 65
10, 58800, Note_on_c, 10, 65, 0
10, 58800, Note_on_c, 10, 61, 67
10, 58860, Note_on_c, 10, 61, 0
10, 58920, Program_c, 10, 45
10, 59040, Note_on_c, 10, 61, 62
10, 59100, Note_on_c, 10, 61, 0
10, 59160, Note_on_c, 10, 65, 66
10, 59220, Note_on_c, 10, 65, 0
10, 59220, Note_on_c, 10, 70, 46
10, 59280, Note_on_c, 10, 70, 0
10, 59280, Note_on_c, 10, 73, 52
10, 59340, Note_on_c, 10, 73, 0
10, 59400, Program_c, 10, 48
10, 59520, Note_on_c, 10, 67, 43
10, 59550, Note_on_c, 10, 67, 0
10, 59580, Note_on_c, 10, 65, 56
10, 59595, Note_on_c, 10, 65, 0
10, 59610, Note_on_c, 10, 67, 46
10, 59625, Note_on_c, 10, 67, 0
10, 59640, Note_on_c, 10, 70, 53
10, 59670, Note_on_c, 10, 70, 0
10, 59700, Note_on_c, 10, 68, 45
10, 59715, Note_on_c, 10, 68, 0
10, 59730, Note_on_c, 10, 70, 45
10, 59745, Note_on_c, 10, 70, 0
10, 60060, Note_on_c, 10, 68, 61
10, 60120, Note_on_c, 10, 68, 0
10, 60120, Note_on_c, 10, 72, 78
10, 60180, Note_on_c, 10, 72, 0
10, 60180, Note_on_c, 10, 77, 52
10, 60240, Note_on_c, 10, 77, 0
10, 60240, Note_on_c, 10, 80, 117
10, 60300, Note_on_c, 10, 80, 0
10, 60300, Note_on_c, 10, 77, 85
10, 60360, Note_on_c, 10, 77, 0
10, 60360, Note_on_c, 10, 72, 89
10, 60420, Note_on_c, 10, 72, 0
10, 60420, Note_on_c, 10, 68, 63
10, 60480, Note_on_c, 10, 68, 0
10, 61020, Note_on_c, 10, 72, 73
10, 61080, Note_on_c, 10, 72, 0
10, 61080, Note_on_c, 10, 76, 80
10, 61140, Note_on_c, 10, 76, 0
10, 61140, Note_on_c, 10, 79, 80
10, 61200, Note_on_c, 10, 79, 0
10, 61200, Note_on_c, 10, 82, 95
10, 61260, Note_on_c, 10, 82, 0
10, 61260, Note_on_c, 10, 79, 84
10, 61320, Note_on_c, 10, 79, 0
10, 61320, Note_on_c, 10, 76, 73
10, 61380, Note_on_c, 10, 76, 0
10, 61380, Note_on_c, 10, 72, 89
10, 61440, Note_on_c, 10, 72, 0
10, 61440, Note_on_c, 10, 70, 73
10, 61500, Note_on_c, 10, 70, 0
10, 61500, Note_on_c, 10, 67, 62
10, 61560, Note_on_c, 10, 67, 0
10, 61560, Note_on_c, 10, 64, 72
10, 61620, Note_on_c, 10, 64, 0
10, 61620, Note_on_c, 10, 60, 49
10, 61680, Note_on_c, 10, 60, 0
10, 61680, Note_on_c, 10, 69, 94
10, 61740, Note_on_c, 10, 69, 0
10, 62760, Program_c, 10, 45
10, 62880, Note_on_c, 10, 66, 77
10, 62940, Note_on_c, 10, 66, 0
10, 63000, Note_on_c, 10, 69, 93
10, 63060, Note_on_c, 10, 69, 0
10, 63060, Note_on_c, 10, 72, 105
10, 63120, Note_on_c, 10, 72, 0
10, 63120, Note_on_c, 10, 75, 78
10, 63180, Note_on_c, 10, 75, 0
10, 63840, Note_on_c, 10, 62, 80
10, 63900, Note_on_c, 10, 62, 0
10, 63960, Note_on_c, 10, 67, 80
10, 64020, Note_on_c, 10, 67, 0
10, 64020, Note_on_c, 10, 70, 89
10, 64080, Note_on_c, 10, 70, 0
10, 64080, Note_on_c, 10, 74, 72
10, 64140, Note_on_c, 10, 74, 0
10, 64800, Note_on_c, 10, 71, 89
10, 64860, Note_on_c, 10, 71, 0
10, 64920, Note_on_c, 10, 74, 77
10, 64980, Note_on_c, 10, 74, 0
10, 64980, Note_on_c, 10, 77, 80
10, 65040, Note_on_c, 10, 77, 0
10, 65040, Note_on_c, 10, 80, 69
10, 65100, Note_on_c, 10, 80, 0
10, 65760, Note_on_c, 10, 67, 62
10, 65820, Note_on_c, 10, 67, 0
10, 65880, Note_on_c, 10, 72, 80
10, 65940, Note_on_c, 10, 72, 0
10, 65940, Note_on_c, 10, 75, 81
10, 66000, Note_on_c, 10, 75, 0
10, 66000, Note_on_c, 10, 79, 80
10, 66060, Note_on_c, 10, 79, 0
10, 66720, Note_on_c, 10, 67, 68
10, 66780, Note_on_c, 10, 67, 0
10, 66840, Note_on_c, 10, 73, 76
10, 66900, Note_on_c, 10, 73, 0
10, 66900, Note_on_c, 10, 76, 85
10, 66960, Note_on_c, 10, 76, 0
10, 66960, Note_on_c, 10, 79, 80
10, 67020, Note_on_c, 10, 79, 0
10, 67200, Program_c, 10, 48
10, 67440, Note_on_c, 10, 62, 93
10, 67500, Note_on_c, 10, 62, 0
10, 68340, Note_on_c, 10, 67, 39
10, 68400, Note_on_c, 10, 67, 0
10, 68400, Note_on_c, 10, 62, 80
10, 68460, Note_on_c, 10, 62, 0
10, 69300, Note_on_c, 10, 67, 39
10, 69360, Note_on_c, 10, 67, 0
10, 69360, Note_on_c, 10, 62, 80
10, 69420, Note_on_c, 10, 62, 0
10, 70800, Program_c, 10, 45
10, 71040, Note_on_c, 10, 57, 68
10, 71160, Note_on_c, 10, 57, 0
10, 71400, Note_on_c, 10, 58, 59
10, 71520, Note_on_c, 10, 58, 0
10, 71520, Note_on_c, 10, 57, 61
10, 71640, Note_on_c, 10, 57, 0
10, 71880, Note_on_c, 10, 58, 58
10, 72000, Note_on_c, 10, 58, 0
10, 72000, Note_on_c, 10, 57, 46
10, 72120, Note_on_c, 10, 57, 0
10, 72240, Note_on_c, 10, 59, 65
10, 72360, Note_on_c, 10, 59, 0
10, 72480, Note_on_c, 10, 60, 65
10, 72600, Note_on_c, 10, 60, 0
10, 73080, Note_on_c, 10, 61, 66
10, 73200, Note_on_c, 10, 61, 0
10, 73920, Note_on_c, 10, 62, 54
10, 74040, Note_on_c, 10, 62, 0
10, 76800, Program_c, 10, 48
10, 76920, Note_on_c, 10, 69, 93
10, 77040, Control_c, 10, 7, 99
10, 77055, Control_c, 10, 7, 98
10, 77065, Control_c, 10, 7, 97
10, 77075, Control_c, 10, 7, 96
10, 77085, Control_c, 10, 7, 95
10, 77095, Control_c, 10, 7, 94
10, 77110, Control_c, 10, 7, 93
10, 77120, Control_c, 10, 7, 92
10, 77130, Control_c, 10, 7, 91
10, 77140, Control_c, 10, 7, 90
10, 77150, Control_c, 10, 7, 89
10, 77165, Control_c, 10, 7, 88
10, 77175, Control_c, 10, 7, 87
10, 77185, Control_c, 10, 7, 86
10, 77195, Control_c, 10, 7, 85
10, 77205, Control_c, 10, 7, 84
10, 77215, Control_c, 10, 7, 83
10, 77230, Control_c, 10, 7, 82
10, 77240, Control_c, 10, 7, 81
10, 77250, Control_c, 10, 7, 80
10, 77260, Control_c, 10, 7, 79
10, 77270, Control_c, 10, 7, 78
10, 77285, Control_c, 10, 7, 77
10, 77295, Control_c, 10, 7, 76
10, 77305, Control_c, 10, 7, 75
10, 77315, Control_c, 10, 7, 74
10, 77325, Control_c, 10, 7, 73
10, 77340, Control_c, 10, 7, 72
10, 77350, Control_c, 10, 7, 71
10, 77360, Control_c, 10, 7, 70
10, 77370, Control_c, 10, 7, 69
10, 77380, Control_c, 10, 7, 68
10, 77390, Control_c, 10, 7, 67
10, 77405, Control_c, 10, 7, 66
10, 77415, Control_c, 10, 7, 65
10, 77425, Control_c, 10, 7, 64
10, 77435, Control_c, 10, 7, 63
10, 77445, Control_c, 10, 7, 62
10, 77460, Control_c, 10, 7, 61
10, 77470, Control_c, 10, 7, 60
10, 77480, Control_c, 10, 7, 59
10, 77490, Control_c, 10, 7, 58
10, 77500, Control_c, 10, 7, 57
10, 77510, Control_c, 10, 7, 56
10, 77520, Note_on_c, 10, 69, 0
10, 77520, Note_on_c, 10, 71, 43
10, 77530, Control_c, 10, 7, 57
10, 77535, Control_c, 10, 7, 67
10, 77540, Control_c, 10, 7, 78
10, 77545, Control_c, 10, 7, 88
10, 77550, Control_c, 10, 7, 99
10, 77640, Note_on_c, 10, 71, 0
10, 77640, Note_on_c, 10, 72, 45
10, 77760, Note_on_c, 10, 72, 0
10, 77760, Note_on_c, 10, 74, 34
10, 78120, Note_on_c, 10, 74, 0
10, 78120, Note_on_c, 10, 72, 60
10, 78180, Note_on_c, 10, 72, 0
10, 78180, Note_on_c, 10, 71, 40
10, 78240, Note_on_c, 10, 71, 0
10, 78240, Note_on_c, 10, 71, 44
10, 78360, Note_on_c, 10, 71, 0
10, 78360, Note_on_c, 10, 69, 43
10, 78540, Note_on_c, 10, 69, 0
10, 78540, Note_on_c, 10, 62, 35
10, 78600, Note_on_c, 10, 62, 0
10, 78600, Note_on_c, 10, 64, 38
10, 78660, Note_on_c, 10, 64, 0
10, 78660, Note_on_c, 10, 66, 41
10, 78720, Note_on_c, 10, 66, 0
10, 78720, Note_on_c, 10, 67, 52
10, 78960, Note_on_c, 10, 67, 0
10, 78960, Note_on_c, 10, 69, 71
10, 78975, Note_on_c, 10, 69, 0
10, 78975, Note_on_c, 10, 67, 49
10, 78990, Note_on_c, 10, 67, 0
10, 78990, Note_on_c, 10, 66, 61
10, 79005, Note_on_c, 10, 66, 0
10, 79005, Note_on_c, 10, 67, 53
10, 79020, Note_on_c, 10, 67, 0
10, 79020, Note_on_c, 10, 69, 43
10, 79080, Note_on_c, 10, 69, 0
10, 79080, Note_on_c, 10, 71, 43
10, 79140, Note_on_c, 10, 71, 0
10, 79140, Note_on_c, 10, 72, 29
10, 79200, Note_on_c, 10, 72, 0
10, 79200, Note_on_c, 10, 71, 43
10, 79320, Note_on_c, 10, 71, 0
10, 79320, Note_on_c, 10, 69, 43
10, 79560, Note_on_c, 10, 69, 0
10, 79560, Note_on_c, 10, 71, 40
10, 79620, Note_on_c, 10, 71, 0
10, 79620, Note_on_c, 10, 72, 29
10, 79680, Note_on_c, 10, 72, 0
10, 79680, Note_on_c, 10, 74, 40
10, 80040, Note_on_c, 10, 74, 0
10, 80040, Note_on_c, 10, 72, 66
10, 80100, Note_on_c, 10, 72, 0
10, 80100, Note_on_c, 10, 71, 40
10, 80160, Note_on_c, 10, 71, 0
10, 80160, Note_on_c, 10, 71, 71
10, 80280, Note_on_c, 10, 71, 0
10, 80280, Note_on_c, 10, 69, 84
10, 80460, Note_on_c, 10, 69, 0
10, 80460, Note_on_c, 10, 62, 61
10, 80520, Note_on_c, 10, 62, 0
10, 80520, Note_on_c, 10, 64, 66
10, 80580, Note_on_c, 10, 64, 0
10, 80580, Note_on_c, 10, 66, 29
10, 80640, Note_on_c, 10, 66, 0
10, 80640, Note_on_c, 10, 67, 59
10, 80820, Note_on_c, 10, 67, 0
10, 80820, Note_on_c, 10, 69, 71
10, 80940, Note_on_c, 10, 69, 0
10, 80940, Note_on_c, 10, 62, 56
10, 81000, Note_on_c, 10, 62, 0
10, 81000, Note_on_c, 10, 64, 73
10, 81060, Note_on_c, 10, 64, 0
10, 81060, Note_on_c, 10, 66, 68
10, 81120, Note_on_c, 10, 66, 0
10, 81120, Note_on_c, 10, 67, 85
10, 81180, Note_on_c, 10, 67, 0
10, 81600, Note_on_c, 10, 72, 85
10, 81660, Note_on_c, 10, 72, 0
10, 82080, Note_on_c, 10, 71, 84
10, 82140, Note_on_c, 10, 71, 0
10, 82560, Note_on_c, 10, 72, 84
10, 82620, Note_on_c, 10, 72, 0
10, 83040, Note_on_c, 10, 71, 86
10, 83100, Note_on_c, 10, 71, 0
10, 83280, Note_on_c, 10, 69, 85
10, 83340, Note_on_c, 10, 69, 0
10, 83520, Note_on_c, 10, 67, 71
10, 83580, Note_on_c, 10, 67, 0
10, 83640, Note_on_c, 10, 77, 64
10, 83700, Note_on_c, 10, 77, 0
10, 83760, Note_on_c, 10, 76, 72
10, 83820, Note_on_c, 10, 76, 0
10, 83880, Note_on_c, 10, 74, 67
10, 83940, Note_on_c, 10, 74, 0
10, 84000, Note_on_c, 10, 72, 60
10, 84060, Note_on_c, 10, 72, 0
10, 84120, Note_on_c, 10, 76, 64
10, 84180, Note_on_c, 10, 76, 0
10, 84240, Note_on_c, 10, 69, 65
10, 84300, Note_on_c, 10, 69, 0
10, 84480, Note_on_c, 10, 71, 44
10, 84540, Note_on_c, 10, 71, 0
10, 84960, Note_on_c, 10, 72, 29
10, 85020, Note_on_c, 10, 72, 0
10, 85440, Note_on_c, 10, 71, 29
10, 85500, Note_on_c, 10, 71, 0
10, 85920, Note_on_c, 10, 70, 29
10, 85980, Note_on_c, 10, 70, 0
10, 86400, Note_on_c, 10, 70, 29
10, 86460, Note_on_c, 10, 70, 0
10, 86880, Note_on_c, 10, 55, 80
10, 86880, Note_on_c, 10, 67, 72
10, 86940, Note_on_c, 10, 67, 0
10, 86940, Note_on_c, 10, 55, 0
10, 87840, Note_on_c, 10, 55, 80
10, 87840, Note_on_c, 10, 67, 70
10, 87900, Note_on_c, 10, 67, 0
10, 87900, Note_on_c, 10, 55, 0
10, 88980, Note_on_c, 10, 67, 45
10, 89010, Note_on_c, 10, 67, 0
10, 89010, Note_on_c, 10, 67, 61
10, 89040, Note_on_c, 10, 67, 0
10, 89040, Note_on_c, 10, 67, 58
10, 89100, Note_on_c, 10, 67, 0
10, 89460, Note_on_c, 10, 67, 44
10, 89490, Note_on_c, 10, 67, 0
10, 89490, Note_on_c, 10, 67, 43
10, 89520, Note_on_c, 10, 67, 0
10, 89520, Note_on_c, 10, 67, 38
10, 89580, Note_on_c, 10, 67, 0
10, 89940, Note_on_c, 10, 67, 35
10, 89970, Note_on_c, 10, 67, 0
10, 89970, Note_on_c, 10, 67, 38
10, 90000, Note_on_c, 10, 67, 0
10, 90000, Note_on_c, 10, 67, 40
10, 90060, Note_on_c, 10, 67, 0
10, 94200, Program_c, 10, 45
10, 94320, Note_on_c, 10, 62, 39
10, 94380, Note_on_c, 10, 62, 0
10, 94440, Note_on_c, 10, 65, 43
10, 94500, Note_on_c, 10, 65, 0
10, 94800, Note_on_c, 10, 62, 44
10, 94860, Note_on_c, 10, 62, 0
10, 94920, Note_on_c, 10, 65, 49
10, 94980, Note_on_c, 10, 65, 0
10, 95280, Note_on_c, 10, 63, 41
10, 95340, Note_on_c, 10, 63, 0
10, 95400, Note_on_c, 10, 67, 29
10, 95460, Note_on_c, 10, 67, 0
10, 95760, Note_on_c, 10, 63, 48
10, 95820, Note_on_c, 10, 63, 0
10, 95880, Note_on_c, 10, 67, 46
10, 95940, Note_on_c, 10, 67, 0
10, 95950, Program_c, 10, 48
10, 96000, Note_on_c, 10, 75, 104
10, 96030, Note_on_c, 10, 75, 0
10, 96120, Note_on_c, 10, 68, 94
10, 96150, Note_on_c, 10, 68, 0
10, 96240, Note_on_c, 10, 66, 99
10, 96960, Note_on_c, 10, 66, 0
10, 96960, Note_on_c, 10, 75, 99
10, 96990, Note_on_c, 10, 75, 0
10, 97080, Note_on_c, 10, 68, 99
10, 97110, Note_on_c, 10, 68, 0
10, 97200, Note_on_c, 10, 66, 105
10, 97920, Note_on_c, 10, 66, 0
10, 97920, Note_on_c, 10, 75, 105
10, 98040, Note_on_c, 10, 75, 0
10, 98040, Note_on_c, 10, 72, 127
10, 98070, Note_on_c, 10, 72, 0
10, 98100, Note_on_c, 10, 69, 104
10, 98130, Note_on_c, 10, 69, 0
10, 98160, Note_on_c, 10, 64, 112
10, 98280, Note_on_c, 10, 64, 0
10, 98280, Note_on_c, 10, 69, 101
10, 98310, Note_on_c, 10, 69, 0
10, 98340, Note_on_c, 10, 72, 125
10, 98370, Note_on_c, 10, 72, 0
10, 98400, Note_on_c, 10, 77, 107
10, 98520, Note_on_c, 10, 77, 0
10, 98520, Note_on_c, 10, 72, 125
10, 98550, Note_on_c, 10, 72, 0
10, 98580, Note_on_c, 10, 69, 104
10, 98610, Note_on_c, 10, 69, 0
10, 98640, Note_on_c, 10, 77, 89
10, 98640, Note_on_c, 10, 71, 82
10, 98640, Note_on_c, 10, 62, 72
10, 98640, Note_on_c, 10, 55, 95
10, 98700, Note_on_c, 10, 55, 0
10, 98700, Note_on_c, 10, 77, 0
10, 98700, Note_on_c, 10, 71, 0
10, 98700, Note_on_c, 10, 62, 0
10, 101040, Note_on_c, 10, 65, 38
10, 101095, Control_c, 10, 7, 99
10, 101110, Control_c, 10, 7, 98
10, 101125, Control_c, 10, 7, 97
10, 101140, Control_c, 10, 7, 96
10, 101150, Control_c, 10, 7, 95
10, 101165, Control_c, 10, 7, 94
10, 101180, Control_c, 10, 7, 93
10, 101190, Control_c, 10, 7, 92
10, 101205, Control_c, 10, 7, 91
10, 101220, Control_c, 10, 7, 90
10, 101230, Control_c, 10, 7, 89
10, 101245, Control_c, 10, 7, 88
10, 101260, Control_c, 10, 7, 87
10, 101270, Control_c, 10, 7, 86
10, 101285, Control_c, 10, 7, 85
10, 101300, Control_c, 10, 7, 84
10, 101310, Control_c, 10, 7, 83
10, 101325, Control_c, 10, 7, 82
10, 101340, Control_c, 10, 7, 81
10, 101350, Control_c, 10, 7, 80
10, 101365, Control_c, 10, 7, 79
10, 101380, Control_c, 10, 7, 78
10, 101390, Control_c, 10, 7, 77
10, 101405, Control_c, 10, 7, 76
10, 101420, Control_c, 10, 7, 75
10, 101430, Control_c, 10, 7, 74
10, 101445, Control_c, 10, 7, 73
10, 101460, Control_c, 10, 7, 72
10, 101470, Control_c, 10, 7, 71
10, 101485, Control_c, 10, 7, 70
10, 101500, Control_c, 10, 7, 69
10, 101510, Control_c, 10, 7, 68
10, 102000, Note_on_c, 10, 65, 0
10, 102055, Control_c, 10, 7, 100
10, 103800, Program_c, 10, 45
10, 103920, Note_on_c, 10, 64, 43
10, 103980, Note_on_c, 10, 64, 0
10, 104160, Note_on_c, 10, 64, 46
10, 104220, Note_on_c, 10, 64, 0
10, 104400, Note_on_c, 10, 64, 57
10, 104460, Note_on_c, 10, 64, 0
10, 104520, Note_on_c, 10, 67, 43
10, 104580, Note_on_c, 10, 67, 0
10, 104580, Note_on_c, 10, 72, 37
10, 104640, Note_on_c, 10, 72, 0
10, 104640, Note_on_c, 10, 76, 43
10, 104700, Note_on_c, 10, 76, 0
10, 104880, Note_on_c, 10, 76, 58
10, 104940, Note_on_c, 10, 76, 0
10, 105000, Note_on_c, 10, 72, 38
10, 105060, Note_on_c, 10, 72, 0
10, 105120, Note_on_c, 10, 69, 43
10, 105180, Note_on_c, 10, 69, 0
10, 105360, Note_on_c, 10, 69, 43
10, 105420, Note_on_c, 10, 69, 0
10, 105480, Note_on_c, 10, 74, 54
10, 105540, Note_on_c, 10, 74, 0
10, 105600, Note_on_c, 10, 71, 43
10, 105660, Note_on_c, 10, 71, 0
10, 105720, Note_on_c, 10, 67, 43
10, 105780, Note_on_c, 10, 67, 0
10, 105840, Note_on_c, 10, 69, 59
10, 105900, Note_on_c, 10, 69, 0
10, 105960, Note_on_c, 10, 62, 43
10, 106020, Note_on_c, 10, 62, 0
10, 106080, Note_on_c, 10, 59, 44
10, 106140, Note_on_c, 10, 59, 0
10, 106200, Program_c, 10, 48
10, 106260, Note_on_c, 10, 64, 98
10, 106260, Note_on_c, 10, 72, 112
10, 106290, Note_on_c, 10, 72, 0
10, 106290, Note_on_c, 10, 64, 0
10, 106290, Note_on_c, 10, 64, 99
10, 106290, Note_on_c, 10, 72, 117
10, 106320, Note_on_c, 10, 72, 0
10, 106320, Note_on_c, 10, 64, 0
10, 106320, Note_on_c, 10, 64, 98
10, 106320, Note_on_c, 10, 72, 112
10, 106440, Note_on_c, 10, 72, 0
10, 106440, Note_on_c, 10, 64, 0
10, 106500, Note_on_c, 10, 64, 90
10, 106500, Note_on_c, 10, 72, 112
10, 106530, Note_on_c, 10, 72, 0
10, 106530, Note_on_c, 10, 64, 0
10, 106530, Note_on_c, 10, 64, 94
10, 106530, Note_on_c, 10, 72, 110
10, 106560, Note_on_c, 10, 72, 0
10, 106560, Note_on_c, 10, 64, 0
10, 106560, Note_on_c, 10, 64, 90
10, 106560, Note_on_c, 10, 72, 104
10, 106680, Note_on_c, 10, 72, 0
10, 106680, Note_on_c, 10, 64, 0
10, 106740, Note_on_c, 10, 64, 90
10, 106740, Note_on_c, 10, 72, 90
10, 106770, Note_on_c, 10, 72, 0
10, 106770, Note_on_c, 10, 64, 0
10, 106770, Note_on_c, 10, 64, 99
10, 106770, Note_on_c, 10, 72, 112
10, 106800, Note_on_c, 10, 72, 0
10, 106800, Note_on_c, 10, 64, 0
10, 106800, Note_on_c, 10, 64, 94
10, 106800, Note_on_c, 10, 72, 110
10, 106860, Note_on_c, 10, 72, 0
10, 106860, Note_on_c, 10, 64, 0
10, 106860, Note_on_c, 10, 64, 93
10, 106860, Note_on_c, 10, 72, 105
10, 106890, Note_on_c, 10, 72, 0
10, 106890, Note_on_c, 10, 64, 0
10, 106890, Note_on_c, 10, 64, 90
10, 106890, Note_on_c, 10, 72, 112
10, 106920, Note_on_c, 10, 72, 0
10, 106920, Note_on_c, 10, 64, 0
10, 106920, Note_on_c, 10, 72, 115
10, 106980, Note_on_c, 10, 72, 0
10, 106980, Note_on_c, 10, 76, 95
10, 107010, Note_on_c, 10, 76, 0
10, 107010, Note_on_c, 10, 79, 89
10, 107040, Note_on_c, 10, 79, 0
10, 107040, Note_on_c, 10, 84, 84
10, 107100, Note_on_c, 10, 84, 0
10, 107220, Note_on_c, 10, 84, 85
10, 107250, Note_on_c, 10, 84, 0
10, 107250, Note_on_c, 10, 84, 86
10, 107280, Note_on_c, 10, 84, 0
10, 107280, Note_on_c, 10, 84, 84
10, 107340, Note_on_c, 10, 84, 0
10, 107340, Note_on_c, 10, 81, 85
10, 107370, Note_on_c, 10, 81, 0
10, 107370, Note_on_c, 10, 81, 94
10, 107400, Note_on_c, 10, 81, 0
10, 107400, Note_on_c, 10, 81, 94
10, 107460, Note_on_c, 10, 81, 0
10, 107460, Note_on_c, 10, 78, 85
10, 107490, Note_on_c, 10, 78, 0
10, 107490, Note_on_c, 10, 78, 84
10, 107520, Note_on_c, 10, 78, 0
10, 107520, Note_on_c, 10, 78, 80
10, 107640, Note_on_c, 10, 78, 0
10, 107700, Note_on_c, 10, 78, 80
10, 107730, Note_on_c, 10, 78, 0
10, 107730, Note_on_c, 10, 76, 90
10, 107760, Note_on_c, 10, 76, 0
10, 107760, Note_on_c, 10, 81, 86
10, 107820, Note_on_c, 10, 81, 0
10, 107820, Note_on_c, 10, 86, 89
10, 107850, Note_on_c, 10, 86, 0
10, 107850, Note_on_c, 10, 84, 85
10, 107880, Note_on_c, 10, 84, 0
10, 107880, Note_on_c, 10, 86, 90
10, 107940, Note_on_c, 10, 86, 0
10, 107940, Note_on_c, 10, 83, 93
10, 107970, Note_on_c, 10, 83, 0
10, 107970, Note_on_c, 10, 81, 86
10, 108000, Note_on_c, 10, 81, 0
10, 108000, Note_on_c, 10, 83, 94
10, 108060, Note_on_c, 10, 83, 0
10, 108060, Note_on_c, 10, 79, 94
10, 108090, Note_on_c, 10, 79, 0
10, 108090, Note_on_c, 10, 78, 85
10, 108120, Note_on_c, 10, 78, 0
10, 108120, Note_on_c, 10, 79, 86
10, 108180, Note_on_c, 10, 79, 0
10, 108180, Note_on_c, 10, 81, 89
10, 108210, Note_on_c, 10, 81, 0
10, 108210, Note_on_c, 10, 79, 86
10, 108240, Note_on_c, 10, 79, 0
10, 108240, Note_on_c, 10, 81, 94
10, 108300, Note_on_c, 10, 81, 0
10, 108300, Note_on_c, 10, 74, 98
10, 108330, Note_on_c, 10, 74, 0
10, 108330, Note_on_c, 10, 72, 117
10, 108360, Note_on_c, 10, 72, 0
10, 108360, Note_on_c, 10, 74, 95
10, 108420, Note_on_c, 10, 74, 0
10, 108420, Note_on_c, 10, 74, 105
10, 108480, Note_on_c, 10, 74, 0
10, 108480, Note_on_c, 10, 86, 105
10, 108660, Note_on_c, 10, 86, 0
10, 108660, Note_on_c, 10, 74, 98
10, 108690, Note_on_c, 10, 74, 0
10, 108720, Note_on_c, 10, 84, 89
10, 108750, Note_on_c, 10, 84, 0
10, 108780, Note_on_c, 10, 72, 123
10, 108810, Note_on_c, 10, 72, 0
10, 108840, Note_on_c, 10, 83, 94
10, 108870, Note_on_c, 10, 83, 0
10, 108900, Note_on_c, 10, 71, 99
10, 108930, Note_on_c, 10, 71, 0
10, 108960, Note_on_c, 10, 81, 95
10, 108990, Note_on_c, 10, 81, 0
10, 109020, Note_on_c, 10, 69, 99
10, 109050, Note_on_c, 10, 69, 0
10, 109080, Note_on_c, 10, 79, 99
10, 109110, Note_on_c, 10, 79, 0
10, 109140, Note_on_c, 10, 67, 94
10, 109170, Note_on_c, 10, 67, 0
10, 109200, Note_on_c, 10, 81, 90
10, 109230, Note_on_c, 10, 81, 0
10, 109260, Note_on_c, 10, 69, 99
10, 109290, Note_on_c, 10, 69, 0
10, 109320, Note_on_c, 10, 78, 95
10, 109350, Note_on_c, 10, 78, 0
10, 109380, Note_on_c, 10, 66, 99
10, 109410, Note_on_c, 10, 66, 0
10, 110340, Note_on_c, 10, 66, 43
10, 110400, Note_on_c, 10, 66, 0
10, 110400, Note_on_c, 10, 55, 80
10, 110400, Note_on_c, 10, 67, 72
10, 110460, Note_on_c, 10, 67, 0
10, 110460, Note_on_c, 10, 55, 0
10, 111360, Note_on_c, 10, 55, 73
10, 111360, Note_on_c, 10, 67, 62
10, 111420, Note_on_c, 10, 67, 0
10, 111420, Note_on_c, 10, 55, 0
10, 115080, Program_c, 10, 45
10, 115200, Note_on_c, 10, 66, 40
10, 115260, Note_on_c, 10, 66, 0
10, 115680, Note_on_c, 10, 67, 43
10, 115740, Note_on_c, 10, 67, 0
10, 116160, Note_on_c, 10, 60, 43
10, 116220, Note_on_c, 10, 60, 0
10, 117120, Note_on_c, 10, 60, 43
10, 117180, Note_on_c, 10, 60, 0
10, 117600, Note_on_c, 10, 62, 40
10, 117660, Note_on_c, 10, 62, 0
10, 118660, Program_c, 10, 48
10, 119040, Note_on_c, 10, 74, 44
10, 119400, Note_on_c, 10, 74, 0
10, 119400, Note_on_c, 10, 72, 68
10, 119460, Note_on_c, 10, 72, 0
10, 119460, Note_on_c, 10, 71, 43
10, 119520, Note_on_c, 10, 71, 0
10, 119520, Note_on_c, 10, 71, 44
10, 119640, Note_on_c, 10, 71, 0
10, 119640, Note_on_c, 10, 69, 54
10, 119820, Note_on_c, 10, 69, 0
10, 119820, Note_on_c, 10, 62, 43
10, 119880, Note_on_c, 10, 62, 0
10, 119880, Note_on_c, 10, 64, 57
10, 119940, Note_on_c, 10, 64, 0
10, 119940, Note_on_c, 10, 66, 45
10, 120000, Note_on_c, 10, 66, 0
10, 120000, Note_on_c, 10, 67, 55
10, 120210, Note_on_c, 10, 67, 0
10, 120210, Note_on_c, 10, 69, 80
10, 120220, Note_on_c, 10, 69, 0
10, 120220, Note_on_c, 10, 67, 67
10, 120230, Note_on_c, 10, 67, 0
10, 120230, Note_on_c, 10, 66, 67
10, 120240, Note_on_c, 10, 66, 0
10, 120240, Note_on_c, 10, 67, 64
10, 120300, Note_on_c, 10, 67, 0
10, 120300, Note_on_c, 10, 69, 80
10, 120360, Note_on_c, 10, 69, 0
10, 120360, Note_on_c, 10, 71, 81
10, 120420, Note_on_c, 10, 71, 0
10, 120420, Note_on_c, 10, 72, 110
10, 120480, Note_on_c, 10, 72, 0
10, 120480, Note_on_c, 10, 69, 84
10, 120780, Note_on_c, 10, 69, 0
10, 120780, Note_on_c, 10, 71, 74
10, 120840, Note_on_c, 10, 71, 0
10, 120840, Note_on_c, 10, 72, 99
10, 120900, Note_on_c, 10, 72, 0
10, 120900, Note_on_c, 10, 74, 71
10, 120960, Note_on_c, 10, 74, 0
10, 120960, Note_on_c, 10, 62, 80
10, 120960, Note_on_c, 10, 74, 77
10, 120990, Note_on_c, 10, 74, 0
10, 120990, Note_on_c, 10, 62, 0
10, 120990, Note_on_c, 10, 62, 76
10, 120990, Note_on_c, 10, 74, 76
10, 121020, Note_on_c, 10, 74, 0
10, 121020, Note_on_c, 10, 62, 0
10, 121020, Note_on_c, 10, 62, 80
10, 121020, Note_on_c, 10, 74, 78
10, 121050, Note_on_c, 10, 74, 0
10, 121050, Note_on_c, 10, 62, 0
10, 121050, Note_on_c, 10, 62, 76
10, 121050, Note_on_c, 10, 74, 76
10, 121080, Note_on_c, 10, 74, 0
10, 121080, Note_on_c, 10, 62, 0
10, 121080, Note_on_c, 10, 62, 73
10, 121080, Note_on_c, 10, 74, 73
10, 121110, Note_on_c, 10, 74, 0
10, 121110, Note_on_c, 10, 62, 0
10, 121110, Note_on_c, 10, 62, 76
10, 121110, Note_on_c, 10, 74, 72
10, 121140, Note_on_c, 10, 74, 0
10, 121140, Note_on_c, 10, 62, 0
10, 121140, Note_on_c, 10, 62, 71
10, 121140, Note_on_c, 10, 74, 68
10, 121170, Note_on_c, 10, 74, 0
10, 121170, Note_on_c, 10, 62, 0
10, 121170, Note_on_c, 10, 62, 76
10, 121170, Note_on_c, 10, 74, 72
10, 121200, Note_on_c, 10, 74, 0
10, 121200, Note_on_c, 10, 62, 0
10, 121200, Note_on_c, 10, 62, 70
10, 121200, Note_on_c, 10, 74, 76
10, 121230, Note_on_c, 10, 74, 0
10, 121230, Note_on_c, 10, 62, 0
10, 121230, Note_on_c, 10, 62, 70
10, 121230, Note_on_c, 10, 74, 67
10, 121260, Note_on_c, 10, 74, 0
10, 121260, Note_on_c, 10, 62, 0
10, 121260, Note_on_c, 10, 62, 73
10, 121260, Note_on_c, 10, 74, 72
10, 121290, Note_on_c, 10, 74, 0
10, 121290, Note_on_c, 10, 62, 0
10, 121290, Note_on_c, 10, 62, 72
10, 121290, Note_on_c, 10, 74, 68
10, 121320, Note_on_c, 10, 74, 0
10, 121320, Note_on_c, 10, 62, 0
10, 121320, Note_on_c, 10, 62, 78
10, 121320, Note_on_c, 10, 74, 69
10, 121350, Note_on_c, 10, 74, 0
10, 121350, Note_on_c, 10, 62, 0
10, 121350, Note_on_c, 10, 62, 73
10, 121350, Note_on_c, 10, 74, 76
10, 121380, Note_on_c, 10, 74, 0
10, 121380, Note_on_c, 10, 62, 0
10, 121380, Note_on_c, 10, 62, 77
10, 121380, Note_on_c, 10, 74, 71
10, 121410, Note_on_c, 10, 74, 0
10, 121410, Note_on_c, 10, 62, 0
10, 121410, Note_on_c, 10, 62, 73
10, 121410, Note_on_c, 10, 74, 74
10, 121440, Note_on_c, 10, 74, 0
10, 121440, Note_on_c, 10, 62, 0
10, 121440, Note_on_c, 10, 62, 80
10, 121440, Note_on_c, 10, 74, 74
10, 121470, Note_on_c, 10, 74, 0
10, 121470, Note_on_c, 10, 62, 0
10, 121470, Note_on_c, 10, 62, 73
10, 121470, Note_on_c, 10, 74, 70
10, 121500, Note_on_c, 10, 74, 0
10, 121500, Note_on_c, 10, 62, 0
10, 121500, Note_on_c, 10, 62, 80
10, 121500, Note_on_c, 10, 74, 71
10, 121530, Note_on_c, 10, 74, 0
10, 121530, Note_on_c, 10, 62, 0
10, 121530, Note_on_c, 10, 62, 76
10, 121530, Note_on_c, 10, 74, 76
10, 121560, Note_on_c, 10, 74, 0
10, 121560, Note_on_c, 10, 62, 0
10, 121560, Note_on_c, 10, 62, 81
10, 121560, Note_on_c, 10, 74, 76
10, 121590, Note_on_c, 10, 74, 0
10, 121590, Note_on_c, 10, 62, 0
10, 121590, Note_on_c, 10, 62, 78
10, 121590, Note_on_c, 10, 74, 76
10, 121620, Note_on_c, 10, 74, 0
10, 121620, Note_on_c, 10, 62, 0
10, 121620, Note_on_c, 10, 62, 80
10, 121620, Note_on_c, 10, 74, 73
10, 121650, Note_on_c, 10, 74, 0
10, 121650, Note_on_c, 10, 62, 0
10, 121650, Note_on_c, 10, 62, 78
10, 121650, Note_on_c, 10, 74, 77
10, 121680, Note_on_c, 10, 74, 0
10, 121680, Note_on_c, 10, 62, 0
10, 121680, Note_on_c, 10, 62, 80
10, 121680, Note_on_c, 10, 74, 80
10, 121710, Note_on_c, 10, 74, 0
10, 121710, Note_on_c, 10, 62, 0
10, 121710, Note_on_c, 10, 62, 76
10, 121710, Note_on_c, 10, 74, 76
10, 121740, Note_on_c, 10, 74, 0
10, 121740, Note_on_c, 10, 62, 0
10, 121740, Note_on_c, 10, 62, 85
10, 121740, Note_on_c, 10, 74, 85
10, 121770, Note_on_c, 10, 74, 0
10, 121770, Note_on_c, 10, 62, 0
10, 121770, Note_on_c, 10, 62, 78
10, 121770, Note_on_c, 10, 74, 80
10, 121800, Note_on_c, 10, 74, 0
10, 121800, Note_on_c, 10, 62, 0
10, 121800, Note_on_c, 10, 62, 84
10, 121800, Note_on_c, 10, 74, 80
10, 121830, Note_on_c, 10, 74, 0
10, 121830, Note_on_c, 10, 62, 0
10, 121830, Note_on_c, 10, 62, 82
10, 121830, Note_on_c, 10, 74, 73
10, 121860, Note_on_c, 10, 74, 0
10, 121860, Note_on_c, 10, 62, 0
10, 121860, Note_on_c, 10, 62, 80
10, 121860, Note_on_c, 10, 74, 74
10, 121890, Note_on_c, 10, 74, 0
10, 121890, Note_on_c, 10, 62, 0
10, 121890, Note_on_c, 10, 74, 76
10, 121890, Note_on_c, 10, 62, 80
10, 121920, Note_on_c, 10, 62, 0
10, 121920, Note_on_c, 10, 74, 0
10, 121920, Note_on_c, 10, 74, 76
10, 121920, Note_on_c, 10, 62, 74
10, 121950, Note_on_c, 10, 62, 0
10, 121950, Note_on_c, 10, 74, 0
10, 121950, Note_on_c, 10, 67, 71
10, 121980, Note_on_c, 10, 67, 0
10, 121980, Note_on_c, 10, 69, 77
10, 122010, Note_on_c, 10, 69, 0
10, 122010, Note_on_c, 10, 69, 78
10, 122040, Note_on_c, 10, 69, 0
10, 122040, Note_on_c, 10, 71, 78
10, 122070, Note_on_c, 10, 71, 0
10, 122070, Note_on_c, 10, 71, 78
10, 122100, Note_on_c, 10, 71, 0
10, 122100, Note_on_c, 10, 72, 127
10, 122130, Note_on_c, 10, 72, 0
10, 122130, Note_on_c, 10, 72, 115
10, 122160, Note_on_c, 10, 72, 0
10, 122160, Note_on_c, 10, 69, 81
10, 122190, Note_on_c, 10, 69, 0
10, 122190, Note_on_c, 10, 69, 85
10, 122220, Note_on_c, 10, 69, 0
10, 122220, Note_on_c, 10, 71, 73
10, 122250, Note_on_c, 10, 71, 0
10, 122250, Note_on_c, 10, 71, 84
10, 122280, Note_on_c, 10, 71, 0
10, 122280, Note_on_c, 10, 72, 104
10, 122310, Note_on_c, 10, 72, 0
10, 122310, Note_on_c, 10, 72, 107
10, 122340, Note_on_c, 10, 72, 0
10, 122340, Note_on_c, 10, 74, 125
10, 122370, Note_on_c, 10, 74, 0
10, 122370, Note_on_c, 10, 74, 95
10, 122400, Note_on_c, 10, 74, 0
10, 122400, Note_on_c, 10, 71, 74
10, 122430, Note_on_c, 10, 71, 0
10, 122430, Note_on_c, 10, 71, 85
10, 122460, Note_on_c, 10, 71, 0
10, 122460, Note_on_c, 10, 72, 105
10, 122490, Note_on_c, 10, 72, 0
10, 122490, Note_on_c, 10, 72, 107
10, 122520, Note_on_c, 10, 72, 0
10, 122520, Note_on_c, 10, 74, 72
10, 122550, Note_on_c, 10, 74, 0
10, 122550, Note_on_c, 10, 74, 86
10, 122580, Note_on_c, 10, 74, 0
10, 122580, Note_on_c, 10, 76, 119
10, 122610, Note_on_c, 10, 76, 0
10, 122610, Note_on_c, 10, 76, 86
10, 122640, Note_on_c, 10, 76, 0
10, 122640, Note_on_c, 10, 72, 115
10, 122670, Note_on_c, 10, 72, 0
10, 122670, Note_on_c, 10, 72, 112
10, 122700, Note_on_c, 10, 72, 0
10, 122700, Note_on_c, 10, 74, 89
10, 122730, Note_on_c, 10, 74, 0
10, 122730, Note_on_c, 10, 74, 84
10, 122760, Note_on_c, 10, 74, 0
10, 122760, Note_on_c, 10, 76, 86
10, 122790, Note_on_c, 10, 76, 0
10, 122790, Note_on_c, 10, 76, 90
10, 122820, Note_on_c, 10, 76, 0
10, 122820, Note_on_c, 10, 78, 119
10, 122850, Note_on_c, 10, 78, 0
10, 122850, Note_on_c, 10, 78, 74
10, 122880, Note_on_c, 10, 78, 0
10, 122880, Note_on_c, 10, 79, 85
10, 122910, Note_on_c, 10, 79, 0
10, 122910, Note_on_c, 10, 79, 86
10, 122940, Note_on_c, 10, 79, 0
10, 122940, Note_on_c, 10, 81, 77
10, 122970, Note_on_c, 10, 81, 0
10, 122970, Note_on_c, 10, 81, 89
10, 123000, Note_on_c, 10, 81, 0
10, 123000, Note_on_c, 10, 82, 80
10, 123030, Note_on_c, 10, 82, 0
10, 123030, Note_on_c, 10, 82, 77
10, 123060, Note_on_c, 10, 82, 0
10, 123060, Note_on_c, 10, 83, 90
10, 123090, Note_on_c, 10, 83, 0
10, 123090, Note_on_c, 10, 83, 86
10, 123120, Note_on_c, 10, 83, 0
10, 123120, Note_on_c, 10, 84, 84
10, 123150, Note_on_c, 10, 84, 0
10, 123150, Note_on_c, 10, 84, 84
10, 123180, Note_on_c, 10, 84, 0
10, 123180, Note_on_c, 10, 85, 82
10, 123210, Note_on_c, 10, 85, 0
10, 123210, Note_on_c, 10, 85, 84
10, 123240, Note_on_c, 10, 85, 0
10, 123240, Note_on_c, 10, 86, 90
10, 123270, Note_on_c, 10, 86, 0
10, 123270, Note_on_c, 10, 86, 86
10, 123300, Note_on_c, 10, 86, 0
10, 123300, Note_on_c, 10, 87, 94
10, 123330, Note_on_c, 10, 87, 0
10, 123330, Note_on_c, 10, 87, 89
10, 123360, Note_on_c, 10, 87, 0
10, 123360, Note_on_c, 10, 88, 110
10, 123420, Note_on_c, 10, 88, 0
10, 123480, Note_on_c, 10, 90, 99
10, 123540, Note_on_c, 10, 90, 0
10, 123600, Note_on_c, 10, 91, 105
10, 123660, Note_on_c, 10, 91, 0
10, 123720, Note_on_c, 10, 61, 94
10, 123780, Note_on_c, 10, 61, 0
10, 123840, Note_on_c, 10, 62, 95
10, 124080, Note_on_c, 10, 62, 0
10, 136920, Program_c, 10, 45
10, 137040, Note_on_c, 10, 69, 93
10, 137100, Note_on_c, 10, 69, 0
10, 139440, Note_on_c, 10, 59, 71
10, 139560, Note_on_c, 10, 59, 0
10, 139680, Note_on_c, 10, 60, 63
10, 139800, Note_on_c, 10, 60, 0
10, 139920, Note_on_c, 10, 62, 68
10, 139980, Note_on_c, 10, 62, 0
10, 140160, Note_on_c, 10, 62, 65
10, 140220, Note_on_c, 10, 62, 0
10, 140340, Program_c, 10, 48
10, 140640, Note_on_c, 10, 77, 85
10, 140730, Control_c, 10, 7, 98
10, 140735, Control_c, 10, 7, 97
10, 140740, Control_c, 10, 7, 96
10, 140745, Control_c, 10, 7, 95
10, 140750, Control_c, 10, 7, 94
10, 140755, Control_c, 10, 7, 92
10, 140760, Control_c, 10, 7, 91
10, 140765, Control_c, 10, 7, 90
10, 140770, Control_c, 10, 7, 89
10, 140775, Control_c, 10, 7, 87
10, 140780, Control_c, 10, 7, 86
10, 140785, Control_c, 10, 7, 85
10, 140790, Control_c, 10, 7, 84
10, 140795, Control_c, 10, 7, 82
10, 140800, Control_c, 10, 7, 81
10, 140805, Control_c, 10, 7, 80
10, 140810, Control_c, 10, 7, 79
10, 140815, Control_c, 10, 7, 78
10, 140820, Control_c, 10, 7, 76
10, 140825, Control_c, 10, 7, 75
10, 140830, Control_c, 10, 7, 74
10, 140835, Control_c, 10, 7, 73
10, 140840, Control_c, 10, 7, 71
10, 140845, Control_c, 10, 7, 70
10, 140850, Control_c, 10, 7, 69
10, 140855, Control_c, 10, 7, 68
10, 140860, Control_c, 10, 7, 66
10, 141120, Note_on_c, 10, 77, 0
10, 141120, Note_on_c, 10, 76, 85
10, 141180, Note_on_c, 10, 76, 0
10, 141240, Note_on_c, 10, 76, 89
10, 141300, Note_on_c, 10, 76, 0
10, 141480, Note_on_c, 10, 71, 84
10, 141540, Note_on_c, 10, 71, 0
10, 141705, Control_c, 10, 7, 59
10, 141720, Note_on_c, 10, 72, 112
10, 141780, Note_on_c, 10, 72, 0
10, 141840, Control_c, 10, 7, 100
10, 141840, Note_on_c, 10, 71, 46
10, 141900, Note_on_c, 10, 71, 0
10, 141910, Program_c, 10, 45
10, 141960, Note_on_c, 10, 62, 48
10, 142080, Note_on_c, 10, 62, 0
10, 142200, Note_on_c, 10, 62, 46
10, 142320, Note_on_c, 10, 62, 0
10, 142440, Note_on_c, 10, 64, 52
10, 142560, Note_on_c, 10, 64, 0
10, 142680, Note_on_c, 10, 64, 45
10, 142800, Note_on_c, 10, 64, 0
10, 142920, Note_on_c, 10, 64, 44
10, 143040, Note_on_c, 10, 64, 0
10, 143160, Note_on_c, 10, 66, 45
10, 143280, Note_on_c, 10, 66, 0
10, 143400, Note_on_c, 10, 66, 56
10, 143520, Note_on_c, 10, 66, 0
10, 143640, Note_on_c, 10, 67, 40
10, 143760, Note_on_c, 10, 67, 0
10, 143880, Note_on_c, 10, 69, 61
10, 144000, Note_on_c, 10, 69, 0
10, 144020, Program_c, 10, 48
10, 144120, Note_on_c, 10, 67, 38
10, 144240, Note_on_c, 10, 67, 0
10, 144240, Note_on_c, 10, 67, 34
10, 145320, Note_on_c, 10, 67, 0
10, 145320, Note_on_c, 10, 66, 43
10, 145920, Note_on_c, 10, 66, 0
10, 145920, Note_on_c, 10, 67, 38
10, 146160, Note_on_c, 10, 67, 0
10, 146160, Note_on_c, 10, 69, 43
10, 146400, Note_on_c, 10, 69, 0
10, 146400, Note_on_c, 10, 67, 40
10, 146640, Note_on_c, 10, 67, 0
10, 146640, Note_on_c, 10, 69, 58
10, 146880, Note_on_c, 10, 69, 0
10, 146880, Note_on_c, 10, 67, 45
10, 147120, Note_on_c, 10, 67, 0
10, 147120, Control_c, 10, 7, 100
10, 147120, Note_on_c, 10, 69, 37
10, 147150, Control_c, 10, 7, 99
10, 147180, Control_c, 10, 7, 98
10, 147210, Control_c, 10, 7, 97
10, 147240, Control_c, 10, 7, 96
10, 147270, Control_c, 10, 7, 95
10, 147300, Control_c, 10, 7, 94
10, 147330, Control_c, 10, 7, 93
10, 147360, Control_c, 10, 7, 92
10, 147390, Control_c, 10, 7, 91
10, 147420, Control_c, 10, 7, 90
10, 147450, Control_c, 10, 7, 89
10, 147480, Control_c, 10, 7, 88
10, 147510, Control_c, 10, 7, 87
10, 147540, Control_c, 10, 7, 86
10, 147570, Control_c, 10, 7, 85
10, 147600, Control_c, 10, 7, 84
10, 147630, Control_c, 10, 7, 83
10, 147660, Control_c, 10, 7, 82
10, 147690, Control_c, 10, 7, 81
10, 147720, Control_c, 10, 7, 80
10, 147750, Control_c, 10, 7, 79
10, 147780, Control_c, 10, 7, 78
10, 147810, Control_c, 10, 7, 77
10, 147840, Control_c, 10, 7, 76
10, 147870, Control_c, 10, 7, 75
10, 147900, Control_c, 10, 7, 74
10, 147930, Control_c, 10, 7, 73
10, 147960, Control_c, 10, 7, 72
10, 147990, Control_c, 10, 7, 71
10, 148020, Control_c, 10, 7, 70
10, 148050, Control_c, 10, 7, 69
10, 148080, Note_on_c, 10, 69, 0
10, 148080, Control_c, 10, 7, 68
10, 148080, Note_on_c, 10, 71, 43
10, 148200, Note_on_c, 10, 71, 0
10, 148355, Control_c, 10, 7, 100
10, 148440, Program_c, 10, 45
10, 148560, Note_on_c, 10, 69, 52
10, 148680, Note_on_c, 10, 69, 0
10, 148800, Note_on_c, 10, 62, 46
10, 148920, Note_on_c, 10, 62, 0
10, 149040, Note_on_c, 10, 67, 50
10, 149160, Note_on_c, 10, 67, 0
10, 149760, Program_c, 10, 48
10, 150000, Note_on_c, 10, 81, 32
10, 150060, Note_on_c, 10, 81, 0
10, 150060, Note_on_c, 10, 74, 35
10, 150120, Note_on_c, 10, 74, 0
10, 150480, Note_on_c, 10, 81, 29
10, 150540, Note_on_c, 10, 81, 0
10, 150540, Note_on_c, 10, 74, 32
10, 150600, Note_on_c, 10, 74, 0
10, 150600, Note_on_c, 10, 81, 40
10, 150660, Note_on_c, 10, 81, 0
10, 150660, Note_on_c, 10, 74, 33
10, 150720, Note_on_c, 10, 74, 0
10, 150720, Note_on_c, 10, 81, 35
10, 150780, Note_on_c, 10, 81, 0
10, 150780, Note_on_c, 10, 74, 35
10, 150840, Note_on_c, 10, 74, 0
10, 150840, Note_on_c, 10, 81, 40
10, 150900, Note_on_c, 10, 81, 0
10, 150900, Note_on_c, 10, 74, 38
10, 150960, Note_on_c, 10, 74, 0
10, 150960, Note_on_c, 10, 84, 38
10, 151020, Note_on_c, 10, 84, 0
10, 151020, Note_on_c, 10, 81, 29
10, 151080, Note_on_c, 10, 81, 0
10, 151080, Note_on_c, 10, 84, 32
10, 151140, Note_on_c, 10, 84, 0
10, 151140, Note_on_c, 10, 81, 38
10, 151200, Note_on_c, 10, 81, 0
10, 151200, Note_on_c, 10, 84, 39
10, 151260, Note_on_c, 10, 84, 0
10, 151260, Note_on_c, 10, 81, 29
10, 151320, Note_on_c, 10, 81, 0
10, 151320, Note_on_c, 10, 84, 38
10, 151380, Note_on_c, 10, 84, 0
10, 151380, Note_on_c, 10, 81, 31
10, 151440, Note_on_c, 10, 81, 0
10, 151440, Note_on_c, 10, 84, 33
10, 151470, Note_on_c, 10, 84, 0
10, 151470, Note_on_c, 10, 84, 39
10, 151500, Note_on_c, 10, 84, 0
10, 151500, Note_on_c, 10, 84, 42
10, 151530, Note_on_c, 10, 84, 0
10, 151530, Note_on_c, 10, 84, 39
10, 151560, Note_on_c, 10, 84, 0
10, 151560, Note_on_c, 10, 84, 40
10, 151590, Note_on_c, 10, 84, 0
10, 151590, Note_on_c, 10, 84, 40
10, 151620, Note_on_c, 10, 84, 0
10, 151620, Note_on_c, 10, 84, 38
10, 151650, Note_on_c, 10, 84, 0
10, 151650, Note_on_c, 10, 84, 41
10, 151680, Note_on_c, 10, 84, 0
10, 151680, Note_on_c, 10, 84, 33
10, 151710, Note_on_c, 10, 84, 0
10, 151710, Note_on_c, 10, 84, 40
10, 151740, Note_on_c, 10, 84, 0
10, 151740, Note_on_c, 10, 84, 40
10, 151770, Note_on_c, 10, 84, 0
10, 151770, Note_on_c, 10, 84, 40
10, 151800, Note_on_c, 10, 84, 0
10, 151800, Note_on_c, 10, 84, 40
10, 151830, Note_on_c, 10, 84, 0
10, 151830, Note_on_c, 10, 84, 40
10, 151860, Note_on_c, 10, 84, 0
10, 151860, Note_on_c, 10, 84, 38
10, 151890, Note_on_c, 10, 84, 0
10, 151890, Note_on_c, 10, 84, 38
10, 151920, Note_on_c, 10, 84, 0
10, 151920, Note_on_c, 10, 84, 38
10, 151950, Note_on_c, 10, 84, 0
10, 151950, Note_on_c, 10, 84, 42
10, 151980, Note_on_c, 10, 84, 0
10, 151980, Note_on_c, 10, 84, 40
10, 152010, Note_on_c, 10, 84, 0
10, 152010, Note_on_c, 10, 84, 43
10, 152040, Note_on_c, 10, 84, 0
10, 152040, Note_on_c, 10, 84, 45
10, 152070, Note_on_c, 10, 84, 0
10, 152070, Note_on_c, 10, 84, 46
10, 152100, Note_on_c, 10, 84, 0
10, 152100, Note_on_c, 10, 84, 53
10, 152130, Note_on_c, 10, 84, 0
10, 152130, Note_on_c, 10, 84, 53
10, 152160, Note_on_c, 10, 84, 0
10, 152160, Note_on_c, 10, 84, 65
10, 152190, Note_on_c, 10, 84, 0
10, 152190, Note_on_c, 10, 84, 65
10, 152220, Note_on_c, 10, 84, 0
10, 152220, Note_on_c, 10, 84, 60
10, 152250, Note_on_c, 10, 84, 0
10, 152250, Note_on_c, 10, 84, 68
10, 152280, Note_on_c, 10, 84, 0
10, 152280, Note_on_c, 10, 84, 64
10, 152310, Note_on_c, 10, 84, 0
10, 152310, Note_on_c, 10, 84, 70
10, 152340, Note_on_c, 10, 84, 0
10, 152340, Note_on_c, 10, 84, 68
10, 152370, Note_on_c, 10, 84, 0
10, 152370, Note_on_c, 10, 84, 76
10, 152400, Note_on_c, 10, 84, 0
10, 152400, Note_on_c, 10, 83, 73
10, 152400, Note_on_c, 10, 71, 72
10, 152400, Note_on_c, 10, 59, 81
10, 152400, Note_on_c, 10, 62, 76
10, 152520, Note_on_c, 10, 62, 0
10, 152520, Note_on_c, 10, 83, 0
10, 152520, Note_on_c, 10, 71, 0
10, 152520, Note_on_c, 10, 59, 0
10, 152640, Note_on_c, 10, 77, 82
10, 152640, Note_on_c, 10, 71, 80
10, 152640, Note_on_c, 10, 59, 76
10, 152640, Note_on_c, 10, 62, 65
10, 152760, Note_on_c, 10, 62, 0
10, 152760, Note_on_c, 10, 77, 0
10, 152760, Note_on_c, 10, 71, 0
10, 152760, Note_on_c, 10, 59, 0
10, 152880, Note_on_c, 10, 77, 76
10, 152880, Note_on_c, 10, 59, 76
10, 152880, Note_on_c, 10, 71, 68
10, 152880, Note_on_c, 10, 62, 60
10, 153000, Note_on_c, 10, 62, 0
10, 153000, Note_on_c, 10, 77, 0
10, 153000, Note_on_c, 10, 59, 0
10, 153000, Note_on_c, 10, 71, 0
10, 153120, Note_on_c, 10, 77, 81
10, 153120, Note_on_c, 10, 71, 73
10, 153120, Note_on_c, 10, 59, 73
10, 153120, Note_on_c, 10, 62, 62
10, 153240, Note_on_c, 10, 62, 0
10, 153240, Note_on_c, 10, 77, 0
10, 153240, Note_on_c, 10, 71, 0
10, 153240, Note_on_c, 10, 59, 0
10, 153360, Note_on_c, 10, 76, 105
10, 153480, Note_on_c, 10, 76, 0
10, 153540, Note_on_c, 10, 76, 94
10, 153570, Note_on_c, 10, 76, 0
10, 153570, Note_on_c, 10, 76, 95
10, 153600, Note_on_c, 10, 76, 0
10, 153600, Note_on_c, 10, 76, 95
10, 153720, Note_on_c, 10, 76, 0
10, 153780, Note_on_c, 10, 76, 99
10, 153810, Note_on_c, 10, 76, 0
10, 153810, Note_on_c, 10, 76, 99
10, 153840, Note_on_c, 10, 76, 0
10, 153840, Note_on_c, 10, 76, 99
10, 153960, Note_on_c, 10, 76, 0
10, 153960, Note_on_c, 10, 79, 94
10, 153990, Note_on_c, 10, 79, 0
10, 154020, Note_on_c, 10, 84, 94
10, 154050, Note_on_c, 10, 84, 0
10, 154080, Note_on_c, 10, 88, 99
10, 154140, Note_on_c, 10, 88, 0
10, 154320, Note_on_c, 10, 88, 99
10, 154380, Note_on_c, 10, 88, 0
10, 154440, Note_on_c, 10, 84, 94
10, 154500, Note_on_c, 10, 84, 0
10, 154560, Note_on_c, 10, 81, 99
10, 154620, Note_on_c, 10, 81, 0
10, 154800, Note_on_c, 10, 69, 80
10, 154800, Note_on_c, 10, 62, 81
10, 154800, Note_on_c, 10, 81, 89
10, 154860, Note_on_c, 10, 81, 0
10, 154860, Note_on_c, 10, 62, 0
10, 154860, Note_on_c, 10, 69, 0
10, 154920, Note_on_c, 10, 62, 89
10, 154920, Note_on_c, 10, 69, 84
10, 154920, Note_on_c, 10, 86, 78
10, 154980, Note_on_c, 10, 86, 0
10, 154980, Note_on_c, 10, 69, 0
10, 154980, Note_on_c, 10, 62, 0
10, 155040, Note_on_c, 10, 62, 80
10, 155040, Note_on_c, 10, 83, 76
10, 155040, Note_on_c, 10, 71, 80
10, 155100, Note_on_c, 10, 71, 0
10, 155100, Note_on_c, 10, 83, 0
10, 155100, Note_on_c, 10, 62, 0
10, 155160, Note_on_c, 10, 62, 90
10, 155160, Note_on_c, 10, 79, 80
10, 155160, Note_on_c, 10, 71, 86
10, 155220, Note_on_c, 10, 71, 0
10, 155220, Note_on_c, 10, 79, 0
10, 155220, Note_on_c, 10, 62, 0
10, 155280, Note_on_c, 10, 69, 89
10, 155280, Note_on_c, 10, 81, 89
10, 155340, Note_on_c, 10, 81, 0
10, 155340, Note_on_c, 10, 69, 0
10, 155400, Note_on_c, 10, 62, 93
10, 155400, Note_on_c, 10, 74, 89
10, 155460, Note_on_c, 10, 74, 0
10, 155460, Note_on_c, 10, 62, 0
10, 155520, Note_on_c, 10, 71, 101
10, 155520, Note_on_c, 10, 62, 94
10, 155520, Note_on_c, 10, 55, 95
10, 155580, Note_on_c, 10, 55, 0
10, 155580, Note_on_c, 10, 62, 0
10, 155580, Note_on_c, 10, 71, 0
10, 156120, Program_c, 10, 45
10, 156240, Note_on_c, 10, 69, 43
10, 156360, Note_on_c, 10, 69, 0
10, 156480, Note_on_c, 10, 66, 43
10, 156600, Note_on_c, 10, 66, 0
10, 156720, Note_on_c, 10, 67, 43
10, 156840, Note_on_c, 10, 67, 0
10, 156960, Note_on_c, 10, 69, 50
10, 157080, Note_on_c, 10, 69, 0
10, 157200, Note_on_c, 10, 71, 49
10, 157320, Note_on_c, 10, 71, 0
10, 157440, Note_on_c, 10, 69, 53
10, 157560, Note_on_c, 10, 69, 0
10, 157680, Note_on_c, 10, 67, 40
10, 157800, Note_on_c, 10, 67, 0
10, 157920, Note_on_c, 10, 69, 43
10, 158040, Note_on_c, 10, 69, 0
10, 158160, Note_on_c, 10, 71, 50
10, 158280, Note_on_c, 10, 71, 0
10, 158400, Note_on_c, 10, 69, 46
10, 158520, Note_on_c, 10, 69, 0
10, 158590, Program_c, 10, 48
10, 158640, Note_on_c, 10, 67, 44
10, 158700, Note_on_c, 10, 67, 0
10, 158880, Note_on_c, 10, 69, 65
10, 158940, Note_on_c, 10, 69, 0
10, 159120, Note_on_c, 10, 71, 84
10, 159180, Note_on_c, 10, 71, 0
10, 159360, Note_on_c, 10, 78, 72
10, 159360, Note_on_c, 10, 62, 76
10, 159360, Note_on_c, 10, 72, 89
10, 159420, Note_on_c, 10, 72, 0
10, 159420, Note_on_c, 10, 62, 0
10, 159420, Note_on_c, 10, 78, 0
10, 159600, Note_on_c, 10, 62, 86
10, 159600, Note_on_c, 10, 79, 86
10, 159600, Note_on_c, 10, 71, 82
10, 159720, Note_on_c, 10, 71, 0
10, 159720, Note_on_c, 10, 79, 0
10, 159720, Note_on_c, 10, 62, 0
10, 160020, Note_on_c, 10, 71, 85
10, 160020, Note_on_c, 10, 79, 73
10, 160050, Note_on_c, 10, 79, 0
10, 160050, Note_on_c, 10, 71, 0
10, 160050, Note_on_c, 10, 79, 81
10, 160050, Note_on_c, 10, 71, 94
10, 160080, Note_on_c, 10, 71, 0
10, 160080, Note_on_c, 10, 79, 0
10, 160080, Note_on_c, 10, 79, 69
10, 160080, Note_on_c, 10, 71, 89
10, 160200, Note_on_c, 10, 71, 0
10, 160200, Note_on_c, 10, 79, 0
10, 160500, Note_on_c, 10, 74, 89
10, 160500, Note_on_c, 10, 83, 74
10, 160530, Note_on_c, 10, 83, 0
10, 160530, Note_on_c, 10, 74, 0
10, 160530, Note_on_c, 10, 74, 99
10, 160530, Note_on_c, 10, 83, 93
10, 160560, Note_on_c, 10, 83, 0
10, 160560, Note_on_c, 10, 74, 0
10, 160560, Note_on_c, 10, 83, 80
10, 160560, Note_on_c, 10, 74, 99
10, 160620, Note_on_c, 10, 74, 0
10, 160620, Note_on_c, 10, 83, 0
10, 160800, Note_on_c, 10, 62, 94
10, 160800, Note_on_c, 10, 69, 85
10, 160800, Note_on_c, 10, 78, 93
10, 160860, Note_on_c, 10, 78, 0
10, 160860, Note_on_c, 10, 69, 0
10, 160860, Note_on_c, 10, 62, 0
10, 161040, Note_on_c, 10, 71, 89
10, 161040, Note_on_c, 10, 79, 90
10, 161040, Note_on_c, 10, 62, 82
10, 161040, Note_on_c, 10, 55, 94
10, 161100, Note_on_c, 10, 55, 0
10, 161100, Note_on_c, 10, 71, 0
10, 161100, Note_on_c, 10, 79, 0
10, 161100, Note_on_c, 10, 62, 0
10, 161100, End_track
11, 0, Start_track
11, 0, MIDI_port, 0
11, 0, Title_t, "2nd Violins"
11, 0, Control_c, 11, 7, 100
11, 0, Control_c, 11, 10, 13
11, 0, Control_c, 11, 93, 0
11, 0, Control_c, 11, 91, 66
11, 0, Control_c, 11, 0, 0
11, 0, Control_c, 11, 32, 0
11, 0, Program_c, 11, 48
11, 0, Note_on_c, 11, 60, 44
11, 120, Note_on_c, 11, 60, 0
11, 180, Note_on_c, 11, 60, 40
11, 210, Note_on_c, 11, 60, 0
11, 210, Note_on_c, 11, 60, 43
11, 240, Note_on_c, 11, 60, 0
11, 240, Note_on_c, 11, 60, 41
11, 360, Note_on_c, 11, 60, 0
11, 420, Note_on_c, 11, 60, 41
11, 450, Note_on_c, 11, 60, 0
11, 450, Note_on_c, 11, 60, 43
11, 480, Note_on_c, 11, 60, 0
11, 480, Note_on_c, 11, 60, 44
11, 540, Note_on_c, 11, 60, 0
11, 600, Note_on_c, 11, 64, 45
11, 630, Note_on_c, 11, 64, 0
11, 660, Note_on_c, 11, 67, 45
11, 690, Note_on_c, 11, 67, 0
11, 720, Note_on_c, 11, 72, 29
11, 780, Note_on_c, 11, 72, 0
11, 960, Note_on_c, 11, 72, 64
11, 990, Note_on_c, 11, 72, 0
11, 1020, Note_on_c, 11, 71, 47
11, 1035, Note_on_c, 11, 71, 0
11, 1050, Note_on_c, 11, 72, 31
11, 1065, Note_on_c, 11, 72, 0
11, 1080, Note_on_c, 11, 69, 48
11, 1110, Note_on_c, 11, 69, 0
11, 1140, Note_on_c, 11, 67, 42
11, 1155, Note_on_c, 11, 67, 0
11, 1170, Note_on_c, 11, 69, 55
11, 1185, Note_on_c, 11, 69, 0
11, 1200, Note_on_c, 11, 66, 43
11, 1260, Note_on_c, 11, 66, 0
11, 1440, Note_on_c, 11, 62, 39
11, 1470, Note_on_c, 11, 62, 0
11, 1500, Note_on_c, 11, 62, 44
11, 1515, Note_on_c, 11, 62, 0
11, 1530, Note_on_c, 11, 62, 44
11, 1545, Note_on_c, 11, 62, 0
11, 1560, Note_on_c, 11, 62, 43
11, 1590, Note_on_c, 11, 62, 0
11, 1620, Note_on_c, 11, 62, 39
11, 1635, Note_on_c, 11, 62, 0
11, 1650, Note_on_c, 11, 62, 45
11, 1665, Note_on_c, 11, 62, 0
11, 1680, Note_on_c, 11, 62, 54
11, 1710, Note_on_c, 11, 62, 0
11, 1740, Note_on_c, 11, 60, 50
11, 1755, Note_on_c, 11, 60, 0
11, 1770, Note_on_c, 11, 62, 46
11, 1785, Note_on_c, 11, 62, 0
11, 1800, Note_on_c, 11, 59, 43
11, 1830, Note_on_c, 11, 59, 0
11, 1920, Note_on_c, 11, 64, 43
11, 1950, Note_on_c, 11, 64, 0
11, 2040, Note_on_c, 11, 57, 55
11, 2070, Note_on_c, 11, 57, 0
11, 2160, Note_on_c, 11, 59, 40
11, 2400, Note_on_c, 11, 59, 0
11, 4800, Note_on_c, 11, 62, 49
11, 5580, Note_on_c, 11, 62, 0
11, 5580, Note_on_c, 11, 61, 52
11, 5640, Note_on_c, 11, 61, 0
11, 5640, Note_on_c, 11, 62, 50
11, 5700, Note_on_c, 11, 62, 0
11, 6720, Note_on_c, 11, 59, 50
11, 6780, Note_on_c, 11, 59, 0
11, 6780, Note_on_c, 11, 61, 53
11, 6840, Note_on_c, 11, 61, 0
11, 6840, Note_on_c, 11, 62, 50
11, 6900, Note_on_c, 11, 62, 0
11, 7080, Note_on_c, 11, 59, 57
11, 7110, Note_on_c, 11, 59, 0
11, 7110, Note_on_c, 11, 61, 53
11, 7140, Note_on_c, 11, 61, 0
11, 7140, Note_on_c, 11, 62, 68
11, 7170, Note_on_c, 11, 62, 0
11, 7200, Note_on_c, 11, 67, 50
11, 7230, Note_on_c, 11, 67, 0
11, 7230, Note_on_c, 11, 64, 66
11, 7260, Note_on_c, 11, 64, 0
11, 7260, Note_on_c, 11, 62, 53
11, 7290, Note_on_c, 11, 62, 0
11, 7440, Note_on_c, 11, 64, 89
11, 7440, Note_on_c, 11, 76, 89
11, 7560, Note_on_c, 11, 76, 0
11, 7560, Note_on_c, 11, 64, 0
11, 7620, Note_on_c, 11, 64, 84
11, 7620, Note_on_c, 11, 72, 104
11, 7650, Note_on_c, 11, 72, 0
11, 7650, Note_on_c, 11, 64, 0
11, 7650, Note_on_c, 11, 64, 89
11, 7650, Note_on_c, 11, 72, 105
11, 7680, Note_on_c, 11, 72, 0
11, 7680, Note_on_c, 11, 64, 0
11, 7680, Note_on_c, 11, 64, 89
11, 7680, Note_on_c, 11, 72, 105
11, 7800, Note_on_c, 11, 72, 0
11, 7800, Note_on_c, 11, 64, 0
11, 7860, Note_on_c, 11, 64, 82
11, 7860, Note_on_c, 11, 72, 99
11, 7890, Note_on_c, 11, 72, 0
11, 7890, Note_on_c, 11, 64, 0
11, 7890, Note_on_c, 11, 64, 89
11, 7890, Note_on_c, 11, 72, 110
11, 7920, Note_on_c, 11, 72, 0
11, 7920, Note_on_c, 11, 64, 0
11, 7920, Note_on_c, 11, 64, 90
11, 7920, Note_on_c, 11, 72, 104
11, 7980, Note_on_c, 11, 72, 0
11, 7980, Note_on_c, 11, 64, 0
11, 8040, Note_on_c, 11, 76, 99
11, 8070, Note_on_c, 11, 76, 0
11, 8100, Note_on_c, 11, 79, 94
11, 8130, Note_on_c, 11, 79, 0
11, 8160, Note_on_c, 11, 84, 94
11, 8190, Note_on_c, 11, 84, 0
11, 8400, Note_on_c, 11, 84, 84
11, 8430, Note_on_c, 11, 84, 0
11, 8460, Note_on_c, 11, 83, 98
11, 8475, Note_on_c, 11, 83, 0
11, 8490, Note_on_c, 11, 84, 89
11, 8505, Note_on_c, 11, 84, 0
11, 8520, Note_on_c, 11, 81, 95
11, 8550, Note_on_c, 11, 81, 0
11, 8580, Note_on_c, 11, 79, 89
11, 8595, Note_on_c, 11, 79, 0
11, 8610, Note_on_c, 11, 81, 95
11, 8625, Note_on_c, 11, 81, 0
11, 8640, Note_on_c, 11, 78, 86
11, 8700, Note_on_c, 11, 78, 0
11, 8880, Note_on_c, 11, 78, 86
11, 8910, Note_on_c, 11, 78, 0
11, 8940, Note_on_c, 11, 76, 94
11, 8955, Note_on_c, 11, 76, 0
11, 8970, Note_on_c, 11, 78, 89
11, 8985, Note_on_c, 11, 78, 0
11, 9000, Note_on_c, 11, 78, 93
11, 9030, Note_on_c, 11, 78, 0
11, 9060, Note_on_c, 11, 76, 99
11, 9075, Note_on_c, 11, 76, 0
11, 9090, Note_on_c, 11, 78, 90
11, 9105, Note_on_c, 11, 78, 0
11, 9120, Note_on_c, 11, 79, 95
11, 9150, Note_on_c, 11, 79, 0
11, 9180, Note_on_c, 11, 78, 94
11, 9195, Note_on_c, 11, 78, 0
11, 9210, Note_on_c, 11, 79, 99
11, 9225, Note_on_c, 11, 79, 0
11, 9240, Note_on_c, 11, 71, 98
11, 9300, Note_on_c, 11, 71, 0
11, 9360, Note_on_c, 11, 69, 82
11, 9420, Note_on_c, 11, 69, 0
11, 9480, Note_on_c, 11, 66, 82
11, 9540, Note_on_c, 11, 66, 0
11, 9600, Note_on_c, 11, 62, 99
11, 9630, Note_on_c, 11, 62, 0
11, 9630, Note_on_c, 11, 71, 94
11, 9660, Note_on_c, 11, 71, 0
11, 9660, Note_on_c, 11, 71, 95
11, 9690, Note_on_c, 11, 71, 0
11, 9690, Note_on_c, 11, 71, 98
11, 9720, Note_on_c, 11, 71, 0
11, 9720, Note_on_c, 11, 71, 101
11, 9750, Note_on_c, 11, 71, 0
11, 9750, Note_on_c, 11, 71, 101
11, 9780, Note_on_c, 11, 71, 0
11, 9780, Note_on_c, 11, 71, 99
11, 9810, Note_on_c, 11, 71, 0
11, 9810, Note_on_c, 11, 71, 101
11, 9840, Note_on_c, 11, 71, 0
11, 9840, Note_on_c, 11, 71, 99
11, 9870, Note_on_c, 11, 71, 0
11, 9870, Note_on_c, 11, 71, 95
11, 9900, Note_on_c, 11, 71, 0
11, 9900, Note_on_c, 11, 69, 101
11, 9930, Note_on_c, 11, 69, 0
11, 9930, Note_on_c, 11, 69, 101
11, 9960, Note_on_c, 11, 69, 0
11, 9960, Note_on_c, 11, 69, 104
11, 9990, Note_on_c, 11, 69, 0
11, 9990, Note_on_c, 11, 69, 99
11, 10020, Note_on_c, 11, 69, 0
11, 10020, Note_on_c, 11, 67, 94
11, 10050, Note_on_c, 11, 67, 0
11, 10050, Note_on_c, 11, 67, 98
11, 10080, Note_on_c, 11, 67, 0
11, 10080, Note_on_c, 11, 67, 95
11, 10110, Note_on_c, 11, 67, 0
11, 10110, Note_on_c, 11, 67, 95
11, 10140, Note_on_c, 11, 67, 0
11, 10140, Note_on_c, 11, 66, 95
11, 10170, Note_on_c, 11, 66, 0
11, 10170, Note_on_c, 11, 66, 95
11, 10200, Note_on_c, 11, 66, 0
11, 10200, Note_on_c, 11, 67, 94
11, 10230, Note_on_c, 11, 67, 0
11, 10230, Note_on_c, 11, 59, 99
11, 10260, Note_on_c, 11, 59, 0
11, 10260, Note_on_c, 11, 60, 98
11, 10290, Note_on_c, 11, 60, 0
11, 10290, Note_on_c, 11, 62, 86
11, 10320, Note_on_c, 11, 62, 0
11, 10320, Note_on_c, 11, 64, 95
11, 10350, Note_on_c, 11, 64, 0
11, 10350, Note_on_c, 11, 60, 95
11, 10380, Note_on_c, 11, 60, 0
11, 10380, Note_on_c, 11, 62, 94
11, 10410, Note_on_c, 11, 62, 0
11, 10410, Note_on_c, 11, 64, 94
11, 10440, Note_on_c, 11, 64, 0
11, 10440, Note_on_c, 11, 57, 110
11, 10470, Note_on_c, 11, 57, 0
11, 10470, Note_on_c, 11, 69, 99
11, 10500, Note_on_c, 11, 69, 0
11, 10500, Note_on_c, 11, 72, 119
11, 10530, Note_on_c, 11, 72, 0
11, 10530, Note_on_c, 11, 69, 99
11, 10560, Note_on_c, 11, 69, 0
11, 11520, Note_on_c, 11, 59, 84
11, 11550, Note_on_c, 11, 59, 0
11, 11550, Note_on_c, 11, 71, 65
11, 11580, Note_on_c, 11, 71, 0
11, 11580, Note_on_c, 11, 71, 76
11, 11610, Note_on_c, 11, 71, 0
11, 11610, Note_on_c, 11, 71, 85
11, 11640, Note_on_c, 11, 71, 0
11, 11640, Note_on_c, 11, 67, 68
11, 11670, Note_on_c, 11, 67, 0
11, 11670, Note_on_c, 11, 67, 71
11, 11700, Note_on_c, 11, 67, 0
11, 11700, Note_on_c, 11, 67, 74
11, 11730, Note_on_c, 11, 67, 0
11, 11730, Note_on_c, 11, 67, 72
11, 11760, Note_on_c, 11, 67, 0
11, 11760, Note_on_c, 11, 67, 74
11, 11790, Note_on_c, 11, 67, 0
11, 11790, Note_on_c, 11, 66, 81
11, 11820, Note_on_c, 11, 66, 0
11, 11820, Note_on_c, 11, 66, 74
11, 11850, Note_on_c, 11, 66, 0
11, 11850, Note_on_c, 11, 66, 74
11, 11880, Note_on_c, 11, 66, 0
11, 11880, Note_on_c, 11, 66, 81
11, 11910, Note_on_c, 11, 66, 0
11, 11910, Note_on_c, 11, 64, 84
11, 11940, Note_on_c, 11, 64, 0
11, 11940, Note_on_c, 11, 64, 80
11, 11970, Note_on_c, 11, 64, 0
11, 11970, Note_on_c, 11, 64, 80
11, 12000, Note_on_c, 11, 64, 0
11, 12000, Note_on_c, 11, 64, 86
11, 12030, Note_on_c, 11, 64, 0
11, 12030, Note_on_c, 11, 64, 76
11, 12060, Note_on_c, 11, 64, 0
11, 12060, Note_on_c, 11, 63, 76
11, 12090, Note_on_c, 11, 63, 0
11, 12090, Note_on_c, 11, 63, 76
11, 12120, Note_on_c, 11, 63, 0
11, 12120, Note_on_c, 11, 59, 78
11, 12150, Note_on_c, 11, 59, 0
11, 12150, Note_on_c, 11, 67, 73
11, 12180, Note_on_c, 11, 67, 0
11, 12180, Note_on_c, 11, 69, 84
11, 12210, Note_on_c, 11, 69, 0
11, 12210, Note_on_c, 11, 71, 65
11, 12240, Note_on_c, 11, 71, 0
11, 12240, Note_on_c, 11, 72, 105
11, 12270, Note_on_c, 11, 72, 0
11, 12270, Note_on_c, 11, 69, 93
11, 12300, Note_on_c, 11, 69, 0
11, 12300, Note_on_c, 11, 71, 81
11, 12330, Note_on_c, 11, 71, 0
11, 12330, Note_on_c, 11, 72, 95
11, 12360, Note_on_c, 11, 72, 0
11, 12360, Note_on_c, 11, 66, 71
11, 12390, Note_on_c, 11, 66, 0
11, 12390, Note_on_c, 11, 66, 78
11, 12420, Note_on_c, 11, 66, 0
11, 12420, Note_on_c, 11, 69, 74
11, 12450, Note_on_c, 11, 69, 0
11, 12450, Note_on_c, 11, 69, 86
11, 12480, Note_on_c, 11, 69, 0
11, 13440, Note_on_c, 11, 61, 72
11, 13470, Note_on_c, 11, 61, 0
11, 13470, Note_on_c, 11, 64, 76
11, 13500, Note_on_c, 11, 64, 0
11, 13500, Note_on_c, 11, 61, 80
11, 13530, Note_on_c, 11, 61, 0
11, 13530, Note_on_c, 11, 64, 74
11, 13560, Note_on_c, 11, 64, 0
11, 13560, Note_on_c, 11, 62, 73
11, 13590, Note_on_c, 11, 62, 0
11, 13590, Note_on_c, 11, 64, 84
11, 13620, Note_on_c, 11, 64, 0
11, 13620, Note_on_c, 11, 62, 76
11, 13650, Note_on_c, 11, 62, 0
11, 13650, Note_on_c, 11, 64, 84
11, 13680, Note_on_c, 11, 64, 0
11, 13920, Note_on_c, 11, 61, 76
11, 13950, Note_on_c, 11, 61, 0
11, 13950, Note_on_c, 11, 64, 80
11, 13980, Note_on_c, 11, 64, 0
11, 13980, Note_on_c, 11, 61, 80
11, 14010, Note_on_c, 11, 61, 0
11, 14010, Note_on_c, 11, 64, 81
11, 14040, Note_on_c, 11, 64, 0
11, 14040, Note_on_c, 11, 62, 81
11, 14070, Note_on_c, 11, 62, 0
11, 14070, Note_on_c, 11, 64, 85
11, 14100, Note_on_c, 11, 64, 0
11, 14100, Note_on_c, 11, 62, 84
11, 14130, Note_on_c, 11, 62, 0
11, 14130, Note_on_c, 11, 64, 80
11, 14160, Note_on_c, 11, 64, 0
11, 14280, Program_c, 11, 45
11, 14400, Note_on_c, 11, 57, 89
11, 14460, Note_on_c, 11, 57, 0
11, 16080, Note_on_c, 11, 57, 77
11, 16200, Note_on_c, 11, 57, 0
11, 16440, Note_on_c, 11, 62, 62
11, 16560, Note_on_c, 11, 62, 0
11, 16560, Note_on_c, 11, 61, 66
11, 16680, Note_on_c, 11, 61, 0
11, 16920, Note_on_c, 11, 62, 71
11, 17040, Note_on_c, 11, 62, 0
11, 17040, Note_on_c, 11, 61, 76
11, 17160, Note_on_c, 11, 61, 0
11, 17280, Note_on_c, 11, 62, 70
11, 17400, Note_on_c, 11, 62, 0
11, 17520, Note_on_c, 11, 64, 74
11, 17640, Note_on_c, 11, 64, 0
11, 18120, Note_on_c, 11, 65, 86
11, 18240, Note_on_c, 11, 65, 0
11, 18960, Note_on_c, 11, 66, 40
11, 18960, Note_on_c, 11, 57, 66
11, 19080, Note_on_c, 11, 57, 0
11, 19080, Note_on_c, 11, 66, 0
11, 22440, Program_c, 11, 48
11, 22560, Note_on_c, 11, 62, 38
11, 23040, Note_on_c, 11, 62, 0
11, 23040, Note_on_c, 11, 64, 43
11, 23160, Note_on_c, 11, 64, 0
11, 23160, Note_on_c, 11, 66, 42
11, 23280, Note_on_c, 11, 66, 0
11, 23280, Note_on_c, 11, 67, 43
11, 23760, Note_on_c, 11, 67, 0
11, 23760, Note_on_c, 11, 66, 40
11, 24000, Note_on_c, 11, 66, 0
11, 24000, Note_on_c, 11, 64, 45
11, 24120, Note_on_c, 11, 64, 0
11, 24120, Note_on_c, 11, 62, 43
11, 24240, Note_on_c, 11, 62, 0
11, 24240, Note_on_c, 11, 57, 50
11, 24540, Note_on_c, 11, 57, 0
11, 25440, Control_c, 11, 7, 102
11, 25440, Note_on_c, 11, 57, 82
11, 25450, Control_c, 11, 7, 101
11, 25460, Control_c, 11, 7, 99
11, 25470, Control_c, 11, 7, 98
11, 25480, Control_c, 11, 7, 96
11, 25490, Control_c, 11, 7, 94
11, 25500, Control_c, 11, 7, 93
11, 25510, Control_c, 11, 7, 91
11, 25520, Control_c, 11, 7, 89
11, 25530, Control_c, 11, 7, 88
11, 25540, Control_c, 11, 7, 86
11, 25550, Control_c, 11, 7, 85
11, 25560, Control_c, 11, 7, 83
11, 25570, Control_c, 11, 7, 81
11, 25580, Control_c, 11, 7, 80
11, 25590, Control_c, 11, 7, 78
11, 25600, Control_c, 11, 7, 76
11, 25610, Control_c, 11, 7, 75
11, 25620, Control_c, 11, 7, 73
11, 25630, Control_c, 11, 7, 72
11, 25640, Control_c, 11, 7, 70
11, 25650, Control_c, 11, 7, 68
11, 25660, Control_c, 11, 7, 67
11, 25670, Control_c, 11, 7, 65
11, 25680, Control_c, 11, 7, 63
11, 26160, Note_on_c, 11, 57, 0
11, 26160, Control_c, 11, 7, 61
11, 26160, Note_on_c, 11, 57, 80
11, 26170, Control_c, 11, 7, 70
11, 26180, Control_c, 11, 7, 80
11, 26190, Control_c, 11, 7, 90
11, 26200, Control_c, 11, 7, 100
11, 26220, Note_on_c, 11, 57, 0
11, 26640, Note_on_c, 11, 64, 93
11, 26700, Note_on_c, 11, 64, 0
11, 27120, Note_on_c, 11, 62, 94
11, 27180, Note_on_c, 11, 62, 0
11, 27600, Note_on_c, 11, 64, 101
11, 27660, Note_on_c, 11, 64, 0
11, 28080, Note_on_c, 11, 62, 85
11, 28140, Note_on_c, 11, 62, 0
11, 28320, Note_on_c, 11, 58, 84
11, 28380, Note_on_c, 11, 58, 0
11, 28560, Note_on_c, 11, 59, 67
11, 28620, Note_on_c, 11, 59, 0
11, 28680, Note_on_c, 11, 69, 69
11, 28740, Note_on_c, 11, 69, 0
11, 28800, Note_on_c, 11, 67, 68
11, 28860, Note_on_c, 11, 67, 0
11, 28920, Note_on_c, 11, 66, 54
11, 28980, Note_on_c, 11, 66, 0
11, 29040, Note_on_c, 11, 64, 80
11, 29100, Note_on_c, 11, 64, 0
11, 29160, Note_on_c, 11, 64, 70
11, 29220, Note_on_c, 11, 64, 0
11, 29280, Note_on_c, 11, 61, 60
11, 29340, Note_on_c, 11, 61, 0
11, 29520, Note_on_c, 11, 62, 29
11, 29580, Note_on_c, 11, 62, 0
11, 30000, Note_on_c, 11, 64, 29
11, 30060, Note_on_c, 11, 64, 0
11, 30480, Note_on_c, 11, 62, 29
11, 30540, Note_on_c, 11, 62, 0
11, 30960, Note_on_c, 11, 62, 35
11, 31020, Note_on_c, 11, 62, 0
11, 31440, Note_on_c, 11, 62, 40
11, 31440, Note_on_c, 11, 59, 38
11, 31500, Note_on_c, 11, 59, 0
11, 31500, Note_on_c, 11, 62, 0
11, 31920, Note_on_c, 11, 59, 90
11, 31920, Note_on_c, 11, 62, 89
11, 31980, Note_on_c, 11, 62, 0
11, 31980, Note_on_c, 11, 59, 0
11, 34020, Note_on_c, 11, 62, 45
11, 34020, Note_on_c, 11, 59, 52
11, 34050, Note_on_c, 11, 59, 0
11, 34050, Note_on_c, 11, 62, 0
11, 34050, Note_on_c, 11, 59, 53
11, 34050, Note_on_c, 11, 62, 46
11, 34080, Note_on_c, 11, 62, 0
11, 34080, Note_on_c, 11, 59, 0
11, 34080, Note_on_c, 11, 59, 55
11, 34080, Note_on_c, 11, 62, 53
11, 34140, Note_on_c, 11, 62, 0
11, 34140, Note_on_c, 11, 59, 0
11, 34500, Note_on_c, 11, 59, 53
11, 34500, Note_on_c, 11, 62, 48
11, 34530, Note_on_c, 11, 62, 0
11, 34530, Note_on_c, 11, 59, 0
11, 34530, Note_on_c, 11, 59, 67
11, 34530, Note_on_c, 11, 62, 46
11, 34560, Note_on_c, 11, 62, 0
11, 34560, Note_on_c, 11, 59, 0
11, 34560, Note_on_c, 11, 62, 53
11, 34560, Note_on_c, 11, 59, 61
11, 34620, Note_on_c, 11, 59, 0
11, 34620, Note_on_c, 11, 62, 0
11, 35940, Note_on_c, 11, 62, 80
11, 35940, Note_on_c, 11, 59, 90
11, 35970, Note_on_c, 11, 59, 0
11, 35970, Note_on_c, 11, 62, 0
11, 35970, Note_on_c, 11, 59, 84
11, 35970, Note_on_c, 11, 62, 76
11, 36000, Note_on_c, 11, 62, 0
11, 36000, Note_on_c, 11, 59, 0
11, 36000, Note_on_c, 11, 62, 82
11, 36000, Note_on_c, 11, 59, 89
11, 36060, Note_on_c, 11, 59, 0
11, 36060, Note_on_c, 11, 62, 0
11, 36420, Note_on_c, 11, 62, 76
11, 36420, Note_on_c, 11, 59, 84
11, 36450, Note_on_c, 11, 59, 0
11, 36450, Note_on_c, 11, 62, 0
11, 36450, Note_on_c, 11, 59, 89
11, 36450, Note_on_c, 11, 62, 81
11, 36480, Note_on_c, 11, 62, 0
11, 36480, Note_on_c, 11, 59, 0
11, 36480, Note_on_c, 11, 59, 89
11, 36480, Note_on_c, 11, 62, 81
11, 36540, Note_on_c, 11, 62, 0
11, 36540, Note_on_c, 11, 59, 0
11, 37200, Note_on_c, 11, 59, 37
11, 37200, Note_on_c, 11, 62, 29
11, 38040, Note_on_c, 11, 62, 0
11, 38040, Note_on_c, 11, 59, 0
11, 38040, Note_on_c, 11, 59, 39
11, 38040, Note_on_c, 11, 62, 35
11, 38280, Note_on_c, 11, 62, 0
11, 38280, Note_on_c, 11, 59, 0
11, 40560, Control_c, 11, 0, 0
11, 40560, Control_c, 11, 32, 0
11, 40560, Program_c, 11, 48
11, 40560, Control_c, 11, 7, 100
11, 40560, Control_c, 11, 10, 16
11, 40560, Note_on_c, 11, 60, 44
11, 40680, Note_on_c, 11, 60, 0
11, 40740, Note_on_c, 11, 60, 40
11, 40770, Note_on_c, 11, 60, 0
11, 40770, Note_on_c, 11, 60, 43
11, 40800, Note_on_c, 11, 60, 0
11, 40800, Note_on_c, 11, 60, 41
11, 40920, Note_on_c, 11, 60, 0
11, 40980, Note_on_c, 11, 60, 41
11, 41010, Note_on_c, 11, 60, 0
11, 41010, Note_on_c, 11, 60, 43
11, 41040, Note_on_c, 11, 60, 0
11, 41040, Note_on_c, 11, 60, 44
11, 41100, Note_on_c, 11, 60, 0
11, 41160, Note_on_c, 11, 64, 45
11, 41190, Note_on_c, 11, 64, 0
11, 41220, Note_on_c, 11, 67, 45
11, 41250, Note_on_c, 11, 67, 0
11, 41280, Note_on_c, 11, 72, 29
11, 41340, Note_on_c, 11, 72, 0
11, 41520, Note_on_c, 11, 72, 64
11, 41550, Note_on_c, 11, 72, 0
11, 41580, Note_on_c, 11, 71, 47
11, 41595, Note_on_c, 11, 71, 0
11, 41610, Note_on_c, 11, 72, 31
11, 41625, Note_on_c, 11, 72, 0
11, 41640, Note_on_c, 11, 69, 48
11, 41670, Note_on_c, 11, 69, 0
11, 41700, Note_on_c, 11, 67, 42
11, 41715, Note_on_c, 11, 67, 0
11, 41730, Note_on_c, 11, 69, 55
11, 41745, Note_on_c, 11, 69, 0
11, 41760, Note_on_c, 11, 66, 43
11, 41820, Note_on_c, 11, 66, 0
11, 42000, Note_on_c, 11, 62, 39
11, 42030, Note_on_c, 11, 62, 0
11, 42060, Note_on_c, 11, 62, 44
11, 42075, Note_on_c, 11, 62, 0
11, 42090, Note_on_c, 11, 62, 44
11, 42105, Note_on_c, 11, 62, 0
11, 42120, Note_on_c, 11, 62, 43
11, 42150, Note_on_c, 11, 62, 0
11, 42180, Note_on_c, 11, 62, 39
11, 42195, Note_on_c, 11, 62, 0
11, 42210, Note_on_c, 11, 62, 45
11, 42225, Note_on_c, 11, 62, 0
11, 42240, Note_on_c, 11, 62, 54
11, 42270, Note_on_c, 11, 62, 0
11, 42300, Note_on_c, 11, 60, 50
11, 42315, Note_on_c, 11, 60, 0
11, 42330, Note_on_c, 11, 62, 46
11, 42345, Note_on_c, 11, 62, 0
11, 42360, Note_on_c, 11, 59, 43
11, 42390, Note_on_c, 11, 59, 0
11, 42480, Note_on_c, 11, 64, 43
11, 42510, Note_on_c, 11, 64, 0
11, 42600, Note_on_c, 11, 57, 55
11, 42630, Note_on_c, 11, 57, 0
11, 42720, Note_on_c, 11, 59, 40
11, 42960, Note_on_c, 11, 59, 0
11, 45360, Note_on_c, 11, 62, 49
11, 46140, Note_on_c, 11, 62, 0
11, 46140, Note_on_c, 11, 61, 52
11, 46200, Note_on_c, 11, 61, 0
11, 46200, Note_on_c, 11, 62, 50
11, 46260, Note_on_c, 11, 62, 0
11, 47280, Note_on_c, 11, 59, 50
11, 47340, Note_on_c, 11, 59, 0
11, 47340, Note_on_c, 11, 61, 53
11, 47400, Note_on_c, 11, 61, 0
11, 47400, Note_on_c, 11, 62, 50
11, 47460, Note_on_c, 11, 62, 0
11, 47640, Note_on_c, 11, 59, 57
11, 47670, Note_on_c, 11, 59, 0
11, 47670, Note_on_c, 11, 61, 53
11, 47700, Note_on_c, 11, 61, 0
11, 47700, Note_on_c, 11, 62, 68
11, 47730, Note_on_c, 11, 62, 0
11, 47760, Note_on_c, 11, 67, 50
11, 47790, Note_on_c, 11, 67, 0
11, 47790, Note_on_c, 11, 64, 66
11, 47820, Note_on_c, 11, 64, 0
11, 47820, Note_on_c, 11, 62, 53
11, 47850, Note_on_c, 11, 62, 0
11, 48000, Note_on_c, 11, 64, 89
11, 48000, Note_on_c, 11, 76, 89
11, 48120, Note_on_c, 11, 76, 0
11, 48120, Note_on_c, 11, 64, 0
11, 48180, Note_on_c, 11, 64, 84
11, 48180, Note_on_c, 11, 72, 104
11, 48210, Note_on_c, 11, 72, 0
11, 48210, Note_on_c, 11, 64, 0
11, 48210, Note_on_c, 11, 64, 89
11, 48210, Note_on_c, 11, 72, 105
11, 48240, Note_on_c, 11, 72, 0
11, 48240, Note_on_c, 11, 64, 0
11, 48240, Note_on_c, 11, 64, 89
11, 48240, Note_on_c, 11, 72, 105
11, 48360, Note_on_c, 11, 72, 0
11, 48360, Note_on_c, 11, 64, 0
11, 48420, Note_on_c, 11, 64, 82
11, 48420, Note_on_c, 11, 72, 99
11, 48450, Note_on_c, 11, 72, 0
11, 48450, Note_on_c, 11, 64, 0
11, 48450, Note_on_c, 11, 64, 89
11, 48450, Note_on_c, 11, 72, 110
11, 48480, Note_on_c, 11, 72, 0
11, 48480, Note_on_c, 11, 64, 0
11, 48480, Note_on_c, 11, 64, 90
11, 48480, Note_on_c, 11, 72, 104
11, 48540, Note_on_c, 11, 72, 0
11, 48540, Note_on_c, 11, 64, 0
11, 48600, Note_on_c, 11, 76, 99
11, 48630, Note_on_c, 11, 76, 0
11, 48660, Note_on_c, 11, 79, 94
11, 48690, Note_on_c, 11, 79, 0
11, 48720, Note_on_c, 11, 84, 94
11, 48750, Note_on_c, 11, 84, 0
11, 48960, Note_on_c, 11, 84, 84
11, 48990, Note_on_c, 11, 84, 0
11, 49020, Note_on_c, 11, 83, 98
11, 49035, Note_on_c, 11, 83, 0
11, 49050, Note_on_c, 11, 84, 89
11, 49065, Note_on_c, 11, 84, 0
11, 49080, Note_on_c, 11, 81, 95
11, 49110, Note_on_c, 11, 81, 0
11, 49140, Note_on_c, 11, 79, 89
11, 49155, Note_on_c, 11, 79, 0
11, 49170, Note_on_c, 11, 81, 95
11, 49185, Note_on_c, 11, 81, 0
11, 49200, Note_on_c, 11, 78, 86
11, 49260, Note_on_c, 11, 78, 0
11, 49440, Note_on_c, 11, 78, 86
11, 49470, Note_on_c, 11, 78, 0
11, 49500, Note_on_c, 11, 76, 94
11, 49515, Note_on_c, 11, 76, 0
11, 49530, Note_on_c, 11, 78, 89
11, 49545, Note_on_c, 11, 78, 0
11, 49560, Note_on_c, 11, 78, 93
11, 49590, Note_on_c, 11, 78, 0
11, 49620, Note_on_c, 11, 76, 99
11, 49635, Note_on_c, 11, 76, 0
11, 49650, Note_on_c, 11, 78, 90
11, 49665, Note_on_c, 11, 78, 0
11, 49680, Note_on_c, 11, 79, 95
11, 49710, Note_on_c, 11, 79, 0
11, 49740, Note_on_c, 11, 78, 94
11, 49755, Note_on_c, 11, 78, 0
11, 49770, Note_on_c, 11, 79, 99
11, 49785, Note_on_c, 11, 79, 0
11, 49800, Note_on_c, 11, 71, 98
11, 49860, Note_on_c, 11, 71, 0
11, 49920, Note_on_c, 11, 69, 82
11, 49980, Note_on_c, 11, 69, 0
11, 50040, Note_on_c, 11, 66, 82
11, 50100, Note_on_c, 11, 66, 0
11, 50160, Note_on_c, 11, 62, 99
11, 50190, Note_on_c, 11, 62, 0
11, 50190, Note_on_c, 11, 71, 94
11, 50220, Note_on_c, 11, 71, 0
11, 50220, Note_on_c, 11, 71, 95
11, 50250, Note_on_c, 11, 71, 0
11, 50250, Note_on_c, 11, 71, 98
11, 50280, Note_on_c, 11, 71, 0
11, 50280, Note_on_c, 11, 71, 101
11, 50310, Note_on_c, 11, 71, 0
11, 50310, Note_on_c, 11, 71, 101
11, 50340, Note_on_c, 11, 71, 0
11, 50340, Note_on_c, 11, 71, 99
11, 50370, Note_on_c, 11, 71, 0
11, 50370, Note_on_c, 11, 71, 101
11, 50400, Note_on_c, 11, 71, 0
11, 50400, Note_on_c, 11, 71, 99
11, 50430, Note_on_c, 11, 71, 0
11, 50430, Note_on_c, 11, 71, 95
11, 50460, Note_on_c, 11, 71, 0
11, 50460, Note_on_c, 11, 69, 101
11, 50490, Note_on_c, 11, 69, 0
11, 50490, Note_on_c, 11, 69, 101
11, 50520, Note_on_c, 11, 69, 0
11, 50520, Note_on_c, 11, 69, 104
11, 50550, Note_on_c, 11, 69, 0
11, 50550, Note_on_c, 11, 69, 99
11, 50580, Note_on_c, 11, 69, 0
11, 50580, Note_on_c, 11, 67, 94
11, 50610, Note_on_c, 11, 67, 0
11, 50610, Note_on_c, 11, 67, 98
11, 50640, Note_on_c, 11, 67, 0
11, 50640, Note_on_c, 11, 67, 95
11, 50670, Note_on_c, 11, 67, 0
11, 50670, Note_on_c, 11, 67, 95
11, 50700, Note_on_c, 11, 67, 0
11, 50700, Note_on_c, 11, 66, 95
11, 50730, Note_on_c, 11, 66, 0
11, 50730, Note_on_c, 11, 66, 95
11, 50760, Note_on_c, 11, 66, 0
11, 50760, Note_on_c, 11, 67, 94
11, 50790, Note_on_c, 11, 67, 0
11, 50790, Note_on_c, 11, 59, 99
11, 50820, Note_on_c, 11, 59, 0
11, 50820, Note_on_c, 11, 60, 98
11, 50850, Note_on_c, 11, 60, 0
11, 50850, Note_on_c, 11, 62, 86
11, 50880, Note_on_c, 11, 62, 0
11, 50880, Note_on_c, 11, 64, 95
11, 50910, Note_on_c, 11, 64, 0
11, 50910, Note_on_c, 11, 60, 95
11, 50940, Note_on_c, 11, 60, 0
11, 50940, Note_on_c, 11, 62, 94
11, 50970, Note_on_c, 11, 62, 0
11, 50970, Note_on_c, 11, 64, 94
11, 51000, Note_on_c, 11, 64, 0
11, 51000, Note_on_c, 11, 57, 110
11, 51030, Note_on_c, 11, 57, 0
11, 51030, Note_on_c, 11, 69, 99
11, 51060, Note_on_c, 11, 69, 0
11, 51060, Note_on_c, 11, 72, 119
11, 51090, Note_on_c, 11, 72, 0
11, 51090, Note_on_c, 11, 69, 99
11, 51120, Note_on_c, 11, 69, 0
11, 52080, Note_on_c, 11, 70, 89
11, 52110, Note_on_c, 11, 70, 0
11, 52110, Note_on_c, 11, 70, 80
11, 52140, Note_on_c, 11, 70, 0
11, 52140, Note_on_c, 11, 70, 81
11, 52170, Note_on_c, 11, 70, 0
11, 52170, Note_on_c, 11, 70, 89
11, 52200, Note_on_c, 11, 70, 0
11, 52200, Note_on_c, 11, 70, 86
11, 52230, Note_on_c, 11, 70, 0
11, 52230, Note_on_c, 11, 70, 84
11, 52260, Note_on_c, 11, 70, 0
11, 52260, Note_on_c, 11, 70, 93
11, 52290, Note_on_c, 11, 70, 0
11, 52290, Note_on_c, 11, 70, 86
11, 52320, Note_on_c, 11, 70, 0
11, 52320, Note_on_c, 11, 68, 94
11, 52350, Note_on_c, 11, 68, 0
11, 52350, Note_on_c, 11, 68, 90
11, 52380, Note_on_c, 11, 68, 0
11, 52380, Note_on_c, 11, 68, 94
11, 52410, Note_on_c, 11, 68, 0
11, 52410, Note_on_c, 11, 68, 94
11, 52440, Note_on_c, 11, 68, 0
11, 52440, Note_on_c, 11, 67, 89
11, 52470, Note_on_c, 11, 67, 0
11, 52470, Note_on_c, 11, 67, 82
11, 52500, Note_on_c, 11, 67, 0
11, 52500, Note_on_c, 11, 67, 89
11, 52530, Note_on_c, 11, 67, 0
11, 52530, Note_on_c, 11, 67, 86
11, 52560, Note_on_c, 11, 67, 0
11, 52560, Note_on_c, 11, 65, 95
11, 52590, Note_on_c, 11, 65, 0
11, 52590, Note_on_c, 11, 65, 93
11, 52620, Note_on_c, 11, 65, 0
11, 52620, Note_on_c, 11, 62, 84
11, 52650, Note_on_c, 11, 62, 0
11, 52650, Note_on_c, 11, 62, 81
11, 52680, Note_on_c, 11, 62, 0
11, 52680, Note_on_c, 11, 63, 86
11, 52710, Note_on_c, 11, 63, 0
11, 52710, Note_on_c, 11, 55, 93
11, 52740, Note_on_c, 11, 55, 0
11, 52740, Note_on_c, 11, 56, 84
11, 52770, Note_on_c, 11, 56, 0
11, 52770, Note_on_c, 11, 58, 80
11, 52800, Note_on_c, 11, 58, 0
11, 52800, Note_on_c, 11, 60, 80
11, 52830, Note_on_c, 11, 60, 0
11, 52830, Note_on_c, 11, 56, 94
11, 52860, Note_on_c, 11, 56, 0
11, 52860, Note_on_c, 11, 56, 89
11, 52890, Note_on_c, 11, 56, 0
11, 52890, Note_on_c, 11, 56, 89
11, 52920, Note_on_c, 11, 56, 0
11, 52920, Note_on_c, 11, 56, 89
11, 52950, Note_on_c, 11, 56, 0
11, 52950, Note_on_c, 11, 58, 86
11, 52980, Note_on_c, 11, 58, 0
11, 52980, Note_on_c, 11, 58, 84
11, 53010, Note_on_c, 11, 58, 0
11, 53010, Note_on_c, 11, 58, 89
11, 53040, Note_on_c, 11, 58, 0
11, 53940, Note_on_c, 11, 56, 47
11, 54000, Note_on_c, 11, 56, 0
11, 54000, Note_on_c, 11, 55, 89
11, 54080, Control_c, 11, 7, 99
11, 54085, Control_c, 11, 7, 96
11, 54090, Control_c, 11, 7, 93
11, 54095, Control_c, 11, 7, 90
11, 54100, Control_c, 11, 7, 87
11, 54105, Control_c, 11, 7, 84
11, 54110, Control_c, 11, 7, 81
11, 54115, Control_c, 11, 7, 78
11, 54120, Control_c, 11, 7, 75
11, 54480, Note_on_c, 11, 55, 0
11, 54480, Note_on_c, 11, 63, 65
11, 54480, Note_on_c, 11, 55, 85
11, 54960, Note_on_c, 11, 55, 0
11, 54960, Note_on_c, 11, 63, 0
11, 54960, Note_on_c, 11, 65, 80
11, 54960, Note_on_c, 11, 58, 81
11, 54965, Control_c, 11, 7, 100
11, 55050, Control_c, 11, 7, 100
11, 55055, Control_c, 11, 7, 97
11, 55060, Control_c, 11, 7, 93
11, 55065, Control_c, 11, 7, 90
11, 55070, Control_c, 11, 7, 86
11, 55075, Control_c, 11, 7, 83
11, 55080, Control_c, 11, 7, 79
11, 55085, Control_c, 11, 7, 75
11, 55920, Note_on_c, 11, 58, 0
11, 55920, Note_on_c, 11, 65, 0
11, 55920, Note_on_c, 11, 58, 58
11, 55980, Note_on_c, 11, 58, 0
11, 56040, Control_c, 11, 7, 100
11, 56100, Program_c, 11, 45
11, 56160, Note_on_c, 11, 63, 36
11, 56220, Note_on_c, 11, 63, 0
11, 56280, Note_on_c, 11, 67, 64
11, 56340, Note_on_c, 11, 67, 0
11, 56340, Note_on_c, 11, 70, 62
11, 56400, Note_on_c, 11, 70, 0
11, 56400, Note_on_c, 11, 75, 61
11, 56460, Note_on_c, 11, 75, 0
11, 56520, Program_c, 11, 48
11, 56640, Note_on_c, 11, 81, 42
11, 56670, Note_on_c, 11, 81, 0
11, 56700, Note_on_c, 11, 79, 42
11, 56715, Note_on_c, 11, 79, 0
11, 56730, Note_on_c, 11, 81, 43
11, 56745, Note_on_c, 11, 81, 0
11, 56760, Note_on_c, 11, 84, 54
11, 56790, Note_on_c, 11, 84, 0
11, 56820, Note_on_c, 11, 82, 54
11, 56835, Note_on_c, 11, 82, 0
11, 56850, Note_on_c, 11, 84, 52
11, 56865, Note_on_c, 11, 84, 0
11, 56880, Note_on_c, 11, 58, 86
11, 56960, Control_c, 11, 7, 99
11, 56965, Control_c, 11, 7, 97
11, 56970, Control_c, 11, 7, 94
11, 56975, Control_c, 11, 7, 92
11, 56980, Control_c, 11, 7, 89
11, 56985, Control_c, 11, 7, 86
11, 56990, Control_c, 11, 7, 84
11, 56995, Control_c, 11, 7, 81
11, 57000, Control_c, 11, 7, 78
11, 57840, Note_on_c, 11, 58, 0
11, 57840, Control_c, 11, 7, 100
11, 57840, Note_on_c, 11, 60, 89
11, 57930, Control_c, 11, 7, 98
11, 57935, Control_c, 11, 7, 96
11, 57940, Control_c, 11, 7, 93
11, 57945, Control_c, 11, 7, 90
11, 57950, Control_c, 11, 7, 88
11, 57955, Control_c, 11, 7, 85
11, 57960, Control_c, 11, 7, 82
11, 57965, Control_c, 11, 7, 79
11, 58800, Note_on_c, 11, 60, 0
11, 58800, Note_on_c, 11, 58, 65
11, 58860, Note_on_c, 11, 58, 0
11, 58920, Control_c, 11, 7, 100
11, 58970, Program_c, 11, 45
11, 59040, Note_on_c, 11, 58, 43
11, 59100, Note_on_c, 11, 58, 0
11, 59160, Note_on_c, 11, 61, 52
11, 59220, Note_on_c, 11, 61, 0
11, 59220, Note_on_c, 11, 65, 62
11, 59280, Note_on_c, 11, 65, 0
11, 59280, Note_on_c, 11, 70, 48
11, 59340, Note_on_c, 11, 70, 0
11, 59400, Program_c, 11, 48
11, 59520, Note_on_c, 11, 64, 40
11, 59550, Note_on_c, 11, 64, 0
11, 59580, Note_on_c, 11, 62, 41
11, 59595, Note_on_c, 11, 62, 0
11, 59610, Note_on_c, 11, 64, 42
11, 59625, Note_on_c, 11, 64, 0
11, 59640, Note_on_c, 11, 67, 40
11, 59670, Note_on_c, 11, 67, 0
11, 59700, Note_on_c, 11, 65, 44
11, 59715, Note_on_c, 11, 65, 0
11, 59730, Note_on_c, 11, 67, 46
11, 59745, Note_on_c, 11, 67, 0
11, 59760, Note_on_c, 11, 56, 89
11, 59760, Note_on_c, 11, 65, 85
11, 59875, Control_c, 11, 7, 98
11, 59880, Control_c, 11, 7, 97
11, 59885, Control_c, 11, 7, 95
11, 59890, Control_c, 11, 7, 94
11, 59895, Control_c, 11, 7, 92
11, 59900, Control_c, 11, 7, 90
11, 59905, Control_c, 11, 7, 89
11, 59910, Control_c, 11, 7, 87
11, 59915, Control_c, 11, 7, 85
11, 59920, Control_c, 11, 7, 84
11, 59925, Control_c, 11, 7, 82
11, 59930, Control_c, 11, 7, 81
11, 59935, Control_c, 11, 7, 79
11, 59940, Control_c, 11, 7, 77
11, 59945, Control_c, 11, 7, 76
11, 59950, Control_c, 11, 7, 74
11, 59955, Control_c, 11, 7, 72
11, 60715, Control_c, 11, 7, 99
11, 60720, Note_on_c, 11, 65, 0
11, 60720, Note_on_c, 11, 56, 0
11, 60720, Note_on_c, 11, 60, 93
11, 60720, Note_on_c, 11, 67, 78
11, 60835, Control_c, 11, 7, 96
11, 60840, Control_c, 11, 7, 95
11, 60845, Control_c, 11, 7, 93
11, 60850, Control_c, 11, 7, 91
11, 60855, Control_c, 11, 7, 89
11, 60860, Control_c, 11, 7, 87
11, 60865, Control_c, 11, 7, 85
11, 60870, Control_c, 11, 7, 84
11, 60875, Control_c, 11, 7, 82
11, 60880, Control_c, 11, 7, 80
11, 60885, Control_c, 11, 7, 78
11, 60890, Control_c, 11, 7, 76
11, 60895, Control_c, 11, 7, 74
11, 60900, Control_c, 11, 7, 72
11, 61680, Note_on_c, 11, 67, 0
11, 61680, Note_on_c, 11, 60, 0
11, 61680, Control_c, 11, 7, 100
11, 61680, Note_on_c, 11, 60, 89
11, 61740, Note_on_c, 11, 60, 0
11, 64560, Program_c, 11, 45
11, 64800, Note_on_c, 11, 59, 93
11, 64860, Note_on_c, 11, 59, 0
11, 64920, Note_on_c, 11, 62, 77
11, 64980, Note_on_c, 11, 62, 0
11, 64980, Note_on_c, 11, 65, 84
11, 65040, Note_on_c, 11, 65, 0
11, 65040, Note_on_c, 11, 68, 82
11, 65100, Note_on_c, 11, 68, 0
11, 65760, Note_on_c, 11, 55, 76
11, 65820, Note_on_c, 11, 55, 0
11, 65880, Note_on_c, 11, 60, 81
11, 65940, Note_on_c, 11, 60, 0
11, 65940, Note_on_c, 11, 63, 78
11, 66000, Note_on_c, 11, 63, 0
11, 66000, Note_on_c, 11, 67, 81
11, 66060, Note_on_c, 11, 67, 0
11, 66720, Note_on_c, 11, 55, 74
11, 66780, Note_on_c, 11, 55, 0
11, 66840, Note_on_c, 11, 61, 80
11, 66900, Note_on_c, 11, 61, 0
11, 66900, Note_on_c, 11, 64, 93
11, 66960, Note_on_c, 11, 64, 0
11, 66960, Note_on_c, 11, 67, 73
11, 67020, Note_on_c, 11, 67, 0
11, 67200, Program_c, 11, 48
11, 67440, Note_on_c, 11, 62, 86
11, 67500, Note_on_c, 11, 62, 0
11, 68340, Note_on_c, 11, 58, 42
11, 68400, Note_on_c, 11, 58, 0
11, 68400, Note_on_c, 11, 57, 94
11, 68460, Note_on_c, 11, 57, 0
11, 69300, Note_on_c, 11, 58, 42
11, 69360, Note_on_c, 11, 58, 0
11, 69360, Note_on_c, 11, 57, 94
11, 69420, Note_on_c, 11, 57, 0
11, 70800, Program_c, 11, 45
11, 71040, Note_on_c, 11, 57, 62
11, 71160, Note_on_c, 11, 57, 0
11, 71400, Note_on_c, 11, 58, 69
11, 71520, Note_on_c, 11, 58, 0
11, 71520, Note_on_c, 11, 57, 62
11, 71640, Note_on_c, 11, 57, 0
11, 71880, Note_on_c, 11, 55, 48
11, 72000, Note_on_c, 11, 55, 0
11, 72000, Note_on_c, 11, 57, 56
11, 72120, Note_on_c, 11, 57, 0
11, 72240, Note_on_c, 11, 55, 53
11, 72360, Note_on_c, 11, 55, 0
11, 72480, Note_on_c, 11, 57, 45
11, 72600, Note_on_c, 11, 57, 0
11, 73080, Note_on_c, 11, 58, 62
11, 73200, Note_on_c, 11, 58, 0
11, 73920, Note_on_c, 11, 59, 64
11, 74040, Note_on_c, 11, 59, 0
11, 77520, Program_c, 11, 48
11, 77520, Note_on_c, 11, 67, 40
11, 78000, Note_on_c, 11, 67, 0
11, 78000, Note_on_c, 11, 69, 38
11, 78120, Note_on_c, 11, 69, 0
11, 78120, Note_on_c, 11, 71, 42
11, 78240, Note_on_c, 11, 71, 0
11, 78240, Note_on_c, 11, 72, 29
11, 78600, Note_on_c, 11, 72, 0
11, 78600, Note_on_c, 11, 71, 43
11, 78660, Note_on_c, 11, 71, 0
11, 78660, Note_on_c, 11, 69, 43
11, 78720, Note_on_c, 11, 69, 0
11, 78720, Note_on_c, 11, 71, 40
11, 78780, Note_on_c, 11, 71, 0
11, 79680, Note_on_c, 11, 62, 40
11, 79920, Note_on_c, 11, 62, 0
11, 79920, Note_on_c, 11, 64, 40
11, 80040, Note_on_c, 11, 64, 0
11, 80040, Note_on_c, 11, 65, 43
11, 80160, Note_on_c, 11, 65, 0
11, 80160, Note_on_c, 11, 67, 43
11, 80280, Note_on_c, 11, 67, 0
11, 80280, Note_on_c, 11, 60, 58
11, 80400, Note_on_c, 11, 60, 0
11, 80400, Control_c, 11, 7, 100
11, 80400, Note_on_c, 11, 60, 93
11, 80410, Control_c, 11, 7, 99
11, 80415, Control_c, 11, 7, 98
11, 80420, Control_c, 11, 7, 97
11, 80430, Control_c, 11, 7, 96
11, 80435, Control_c, 11, 7, 95
11, 80440, Control_c, 11, 7, 94
11, 80445, Control_c, 11, 7, 93
11, 80455, Control_c, 11, 7, 92
11, 80460, Control_c, 11, 7, 91
11, 80465, Control_c, 11, 7, 90
11, 80475, Control_c, 11, 7, 89
11, 80480, Control_c, 11, 7, 88
11, 80485, Control_c, 11, 7, 87
11, 80490, Control_c, 11, 7, 86
11, 80500, Control_c, 11, 7, 85
11, 80505, Control_c, 11, 7, 84
11, 80510, Control_c, 11, 7, 83
11, 80515, Control_c, 11, 7, 82
11, 80525, Control_c, 11, 7, 81
11, 80530, Control_c, 11, 7, 80
11, 80535, Control_c, 11, 7, 79
11, 80545, Control_c, 11, 7, 78
11, 80550, Control_c, 11, 7, 77
11, 80555, Control_c, 11, 7, 76
11, 80560, Control_c, 11, 7, 75
11, 80570, Control_c, 11, 7, 74
11, 80575, Control_c, 11, 7, 73
11, 80580, Control_c, 11, 7, 72
11, 80590, Control_c, 11, 7, 71
11, 80595, Control_c, 11, 7, 70
11, 80600, Control_c, 11, 7, 69
11, 80605, Control_c, 11, 7, 68
11, 80615, Control_c, 11, 7, 67
11, 80620, Control_c, 11, 7, 66
11, 80625, Control_c, 11, 7, 65
11, 80630, Control_c, 11, 7, 64
11, 80640, Note_on_c, 11, 60, 0
11, 80640, Note_on_c, 11, 59, 89
11, 80760, Note_on_c, 11, 59, 0
11, 80760, Note_on_c, 11, 60, 84
11, 81120, Note_on_c, 11, 60, 0
11, 81120, Control_c, 11, 7, 100
11, 81120, Note_on_c, 11, 59, 95
11, 81180, Note_on_c, 11, 59, 0
11, 81600, Note_on_c, 11, 69, 82
11, 81660, Note_on_c, 11, 69, 0
11, 82080, Note_on_c, 11, 67, 78
11, 82140, Note_on_c, 11, 67, 0
11, 82560, Note_on_c, 11, 69, 81
11, 82620, Note_on_c, 11, 69, 0
11, 83040, Note_on_c, 11, 67, 78
11, 83100, Note_on_c, 11, 67, 0
11, 83280, Note_on_c, 11, 66, 78
11, 83340, Note_on_c, 11, 66, 0
11, 83520, Note_on_c, 11, 64, 62
11, 83580, Note_on_c, 11, 64, 0
11, 83640, Note_on_c, 11, 67, 57
11, 83700, Note_on_c, 11, 67, 0
11, 83760, Note_on_c, 11, 67, 62
11, 83820, Note_on_c, 11, 67, 0
11, 83880, Note_on_c, 11, 64, 58
11, 83940, Note_on_c, 11, 64, 0
11, 84000, Note_on_c, 11, 64, 59
11, 84060, Note_on_c, 11, 64, 0
11, 84120, Note_on_c, 11, 64, 59
11, 84180, Note_on_c, 11, 64, 0
11, 84240, Note_on_c, 11, 66, 59
11, 84300, Note_on_c, 11, 66, 0
11, 84480, Note_on_c, 11, 67, 38
11, 84540, Note_on_c, 11, 67, 0
11, 84960, Note_on_c, 11, 69, 38
11, 85020, Note_on_c, 11, 69, 0
11, 85440, Note_on_c, 11, 67, 29
11, 85500, Note_on_c, 11, 67, 0
11, 85920, Note_on_c, 11, 62, 31
11, 85920, Note_on_c, 11, 58, 29
11, 85980, Note_on_c, 11, 58, 0
11, 85980, Note_on_c, 11, 62, 0
11, 86400, Note_on_c, 11, 67, 29
11, 86400, Note_on_c, 11, 58, 31
11, 86460, Note_on_c, 11, 58, 0
11, 86460, Note_on_c, 11, 67, 0
11, 86880, Note_on_c, 11, 63, 69
11, 86880, Note_on_c, 11, 58, 80
11, 86940, Note_on_c, 11, 58, 0
11, 86940, Note_on_c, 11, 63, 0
11, 87840, Note_on_c, 11, 63, 70
11, 87840, Note_on_c, 11, 58, 80
11, 87900, Note_on_c, 11, 58, 0
11, 87900, Note_on_c, 11, 63, 0
11, 88980, Note_on_c, 11, 63, 51
11, 89010, Note_on_c, 11, 63, 0
11, 89010, Note_on_c, 11, 63, 43
11, 89040, Note_on_c, 11, 63, 0
11, 89040, Note_on_c, 11, 63, 48
11, 89100, Note_on_c, 11, 63, 0
11, 89460, Note_on_c, 11, 63, 43
11, 89490, Note_on_c, 11, 63, 0
11, 89490, Note_on_c, 11, 63, 38
11, 89520, Note_on_c, 11, 63, 0
11, 89520, Note_on_c, 11, 63, 40
11, 89580, Note_on_c, 11, 63, 0
11, 89940, Note_on_c, 11, 63, 35
11, 89970, Note_on_c, 11, 63, 0
11, 89970, Note_on_c, 11, 63, 34
11, 90000, Note_on_c, 11, 63, 0
11, 90000, Note_on_c, 11, 63, 29
11, 90060, Note_on_c, 11, 63, 0
11, 94080, Program_c, 11, 45
11, 94320, Note_on_c, 11, 58, 43
11, 94380, Note_on_c, 11, 58, 0
11, 94440, Note_on_c, 11, 62, 43
11, 94500, Note_on_c, 11, 62, 0
11, 94800, Note_on_c, 11, 58, 42
11, 94860, Note_on_c, 11, 58, 0
11, 94920, Note_on_c, 11, 62, 42
11, 94980, Note_on_c, 11, 62, 0
11, 95280, Note_on_c, 11, 60, 43
11, 95340, Note_on_c, 11, 60, 0
11, 95400, Note_on_c, 11, 63, 44
11, 95460, Note_on_c, 11, 63, 0
11, 95760, Note_on_c, 11, 60, 43
11, 95820, Note_on_c, 11, 60, 0
11, 95880, Note_on_c, 11, 63, 43
11, 95940, Note_on_c, 11, 63, 0
11, 95950, Program_c, 11, 48
11, 96000, Note_on_c, 11, 75, 104
11, 96030, Note_on_c, 11, 75, 0
11, 96120, Note_on_c, 11, 68, 94
11, 96150, Note_on_c, 11, 68, 0
11, 96240, Note_on_c, 11, 66, 99
11, 96960, Note_on_c, 11, 66, 0
11, 96960, Note_on_c, 11, 75, 99
11, 96990, Note_on_c, 11, 75, 0
11, 97080, Note_on_c, 11, 68, 99
11, 97110, Note_on_c, 11, 68, 0
11, 97200, Note_on_c, 11, 66, 105
11, 97920, Note_on_c, 11, 66, 0
11, 97920, Note_on_c, 11, 65, 105
11, 98160, Note_on_c, 11, 65, 0
11, 98160, Note_on_c, 11, 64, 112
11, 98400, Note_on_c, 11, 64, 0
11, 98400, Note_on_c, 11, 62, 99
11, 98640, Note_on_c, 11, 62, 0
11, 98640, Note_on_c, 11, 62, 77
11, 98640, Note_on_c, 11, 59, 80
11, 98700, Note_on_c, 11, 59, 0
11, 98700, Note_on_c, 11, 62, 0
11, 101040, Note_on_c, 11, 62, 33
11, 101040, Note_on_c, 11, 59, 35
11, 101110, Control_c, 11, 7, 99
11, 101125, Control_c, 11, 7, 98
11, 101140, Control_c, 11, 7, 97
11, 101150, Control_c, 11, 7, 96
11, 101165, Control_c, 11, 7, 95
11, 101175, Control_c, 11, 7, 94
11, 101190, Control_c, 11, 7, 93
11, 101200, Control_c, 11, 7, 92
11, 101215, Control_c, 11, 7, 91
11, 101225, Control_c, 11, 7, 90
11, 101240, Control_c, 11, 7, 89
11, 101255, Control_c, 11, 7, 88
11, 101265, Control_c, 11, 7, 87
11, 101280, Control_c, 11, 7, 86
11, 101290, Control_c, 11, 7, 85
11, 101305, Control_c, 11, 7, 84
11, 101315, Control_c, 11, 7, 83
11, 101330, Control_c, 11, 7, 82
11, 101340, Control_c, 11, 7, 81
11, 101355, Control_c, 11, 7, 80
11, 101365, Control_c, 11, 7, 79
11, 101380, Control_c, 11, 7, 78
11, 101395, Control_c, 11, 7, 77
11, 101405, Control_c, 11, 7, 76
11, 101420, Control_c, 11, 7, 75
11, 101430, Control_c, 11, 7, 74
11, 101445, Control_c, 11, 7, 73
11, 101455, Control_c, 11, 7, 72
11, 101470, Control_c, 11, 7, 71
11, 101480, Control_c, 11, 7, 70
11, 101495, Control_c, 11, 7, 69
11, 101505, Control_c, 11, 7, 68
11, 102000, Note_on_c, 11, 59, 0
11, 102000, Note_on_c, 11, 62, 0
11, 102040, Control_c, 11, 7, 100
11, 103800, Program_c, 11, 45
11, 103920, Note_on_c, 11, 60, 53
11, 103980, Note_on_c, 11, 60, 0
11, 104160, Note_on_c, 11, 60, 45
11, 104220, Note_on_c, 11, 60, 0
11, 104400, Note_on_c, 11, 60, 46
11, 104460, Note_on_c, 11, 60, 0
11, 104520, Note_on_c, 11, 64, 45
11, 104580, Note_on_c, 11, 64, 0
11, 104580, Note_on_c, 11, 67, 43
11, 104640, Note_on_c, 11, 67, 0
11, 104640, Note_on_c, 11, 72, 71
11, 104700, Note_on_c, 11, 72, 0
11, 104880, Note_on_c, 11, 72, 35
11, 104940, Note_on_c, 11, 72, 0
11, 105000, Note_on_c, 11, 69, 44
11, 105060, Note_on_c, 11, 69, 0
11, 105120, Note_on_c, 11, 66, 38
11, 105180, Note_on_c, 11, 66, 0
11, 105360, Note_on_c, 11, 66, 43
11, 105420, Note_on_c, 11, 66, 0
11, 105480, Note_on_c, 11, 66, 46
11, 105540, Note_on_c, 11, 66, 0
11, 105600, Note_on_c, 11, 67, 43
11, 105660, Note_on_c, 11, 67, 0
11, 105720, Note_on_c, 11, 59, 68
11, 105780, Note_on_c, 11, 59, 0
11, 105840, Note_on_c, 11, 57, 52
11, 105900, Note_on_c, 11, 57, 0
11, 105960, Note_on_c, 11, 57, 49
11, 106020, Note_on_c, 11, 57, 0
11, 106080, Note_on_c, 11, 55, 45
11, 106140, Note_on_c, 11, 55, 0
11, 106200, Program_c, 11, 48
11, 106260, Note_on_c, 11, 64, 98
11, 106260, Note_on_c, 11, 72, 112
11, 106290, Note_on_c, 11, 72, 0
11, 106290, Note_on_c, 11, 64, 0
11, 106290, Note_on_c, 11, 64, 99
11, 106290, Note_on_c, 11, 72, 117
11, 106320, Note_on_c, 11, 72, 0
11, 106320, Note_on_c, 11, 64, 0
11, 106320, Note_on_c, 11, 64, 98
11, 106320, Note_on_c, 11, 72, 112
11, 106440, Note_on_c, 11, 72, 0
11, 106440, Note_on_c, 11, 64, 0
11, 106500, Note_on_c, 11, 64, 90
11, 106500, Note_on_c, 11, 72, 112
11, 106530, Note_on_c, 11, 72, 0
11, 106530, Note_on_c, 11, 64, 0
11, 106530, Note_on_c, 11, 64, 94
11, 106530, Note_on_c, 11, 72, 110
11, 106560, Note_on_c, 11, 72, 0
11, 106560, Note_on_c, 11, 64, 0
11, 106560, Note_on_c, 11, 64, 90
11, 106560, Note_on_c, 11, 72, 104
11, 106680, Note_on_c, 11, 72, 0
11, 106680, Note_on_c, 11, 64, 0
11, 106740, Note_on_c, 11, 64, 90
11, 106740, Note_on_c, 11, 72, 90
11, 106770, Note_on_c, 11, 72, 0
11, 106770, Note_on_c, 11, 64, 0
11, 106770, Note_on_c, 11, 64, 99
11, 106770, Note_on_c, 11, 72, 112
11, 106800, Note_on_c, 11, 72, 0
11, 106800, Note_on_c, 11, 64, 0
11, 106800, Note_on_c, 11, 64, 94
11, 106800, Note_on_c, 11, 72, 110
11, 106860, Note_on_c, 11, 72, 0
11, 106860, Note_on_c, 11, 64, 0
11, 106860, Note_on_c, 11, 64, 93
11, 106860, Note_on_c, 11, 72, 105
11, 106890, Note_on_c, 11, 72, 0
11, 106890, Note_on_c, 11, 64, 0
11, 106890, Note_on_c, 11, 64, 90
11, 106890, Note_on_c, 11, 72, 112
11, 106920, Note_on_c, 11, 72, 0
11, 106920, Note_on_c, 11, 64, 0
11, 106920, Note_on_c, 11, 72, 115
11, 106980, Note_on_c, 11, 72, 0
11, 106980, Note_on_c, 11, 76, 95
11, 107010, Note_on_c, 11, 76, 0
11, 107010, Note_on_c, 11, 79, 89
11, 107040, Note_on_c, 11, 79, 0
11, 107040, Note_on_c, 11, 84, 84
11, 107100, Note_on_c, 11, 84, 0
11, 107220, Note_on_c, 11, 84, 85
11, 107250, Note_on_c, 11, 84, 0
11, 107250, Note_on_c, 11, 84, 86
11, 107280, Note_on_c, 11, 84, 0
11, 107280, Note_on_c, 11, 84, 84
11, 107340, Note_on_c, 11, 84, 0
11, 107340, Note_on_c, 11, 81, 85
11, 107370, Note_on_c, 11, 81, 0
11, 107370, Note_on_c, 11, 81, 94
11, 107400, Note_on_c, 11, 81, 0
11, 107400, Note_on_c, 11, 81, 94
11, 107460, Note_on_c, 11, 81, 0
11, 107460, Note_on_c, 11, 78, 85
11, 107490, Note_on_c, 11, 78, 0
11, 107490, Note_on_c, 11, 78, 84
11, 107520, Note_on_c, 11, 78, 0
11, 107520, Note_on_c, 11, 78, 80
11, 107640, Note_on_c, 11, 78, 0
11, 107700, Note_on_c, 11, 78, 80
11, 107730, Note_on_c, 11, 78, 0
11, 107730, Note_on_c, 11, 76, 90
11, 107760, Note_on_c, 11, 76, 0
11, 107760, Note_on_c, 11, 78, 86
11, 107820, Note_on_c, 11, 78, 0
11, 107820, Note_on_c, 11, 78, 85
11, 107850, Note_on_c, 11, 78, 0
11, 107850, Note_on_c, 11, 76, 93
11, 107880, Note_on_c, 11, 76, 0
11, 107880, Note_on_c, 11, 78, 80
11, 107940, Note_on_c, 11, 78, 0
11, 107940, Note_on_c, 11, 79, 76
11, 107970, Note_on_c, 11, 79, 0
11, 107970, Note_on_c, 11, 78, 81
11, 108000, Note_on_c, 11, 78, 0
11, 108000, Note_on_c, 11, 79, 77
11, 108060, Note_on_c, 11, 79, 0
11, 108060, Note_on_c, 11, 71, 94
11, 108090, Note_on_c, 11, 71, 0
11, 108090, Note_on_c, 11, 69, 99
11, 108120, Note_on_c, 11, 69, 0
11, 108120, Note_on_c, 11, 71, 94
11, 108180, Note_on_c, 11, 71, 0
11, 108180, Note_on_c, 11, 72, 123
11, 108210, Note_on_c, 11, 72, 0
11, 108210, Note_on_c, 11, 71, 89
11, 108240, Note_on_c, 11, 71, 0
11, 108240, Note_on_c, 11, 72, 115
11, 108300, Note_on_c, 11, 72, 0
11, 108300, Note_on_c, 11, 66, 89
11, 108330, Note_on_c, 11, 66, 0
11, 108330, Note_on_c, 11, 64, 101
11, 108360, Note_on_c, 11, 64, 0
11, 108360, Note_on_c, 11, 66, 86
11, 108420, Note_on_c, 11, 66, 0
11, 108420, Note_on_c, 11, 66, 93
11, 108480, Note_on_c, 11, 66, 0
11, 108480, Note_on_c, 11, 67, 112
11, 108510, Note_on_c, 11, 67, 0
11, 108510, Note_on_c, 11, 71, 95
11, 108540, Note_on_c, 11, 71, 0
11, 108540, Note_on_c, 11, 71, 93
11, 108570, Note_on_c, 11, 71, 0
11, 108570, Note_on_c, 11, 71, 98
11, 108600, Note_on_c, 11, 71, 0
11, 108600, Note_on_c, 11, 71, 94
11, 108630, Note_on_c, 11, 71, 0
11, 108630, Note_on_c, 11, 71, 95
11, 108660, Note_on_c, 11, 71, 0
11, 108660, Note_on_c, 11, 71, 99
11, 108690, Note_on_c, 11, 71, 0
11, 108690, Note_on_c, 11, 71, 98
11, 108720, Note_on_c, 11, 71, 0
11, 108720, Note_on_c, 11, 71, 94
11, 108750, Note_on_c, 11, 71, 0
11, 108750, Note_on_c, 11, 71, 99
11, 108780, Note_on_c, 11, 71, 0
11, 108780, Note_on_c, 11, 69, 94
11, 108810, Note_on_c, 11, 69, 0
11, 108810, Note_on_c, 11, 69, 101
11, 108840, Note_on_c, 11, 69, 0
11, 108840, Note_on_c, 11, 69, 98
11, 108870, Note_on_c, 11, 69, 0
11, 108870, Note_on_c, 11, 69, 99
11, 108900, Note_on_c, 11, 69, 0
11, 108900, Note_on_c, 11, 67, 86
11, 108930, Note_on_c, 11, 67, 0
11, 108930, Note_on_c, 11, 67, 89
11, 108960, Note_on_c, 11, 67, 0
11, 108960, Note_on_c, 11, 67, 89
11, 108990, Note_on_c, 11, 67, 0
11, 108990, Note_on_c, 11, 67, 90
11, 109020, Note_on_c, 11, 67, 0
11, 109020, Note_on_c, 11, 66, 94
11, 109050, Note_on_c, 11, 66, 0
11, 109050, Note_on_c, 11, 66, 86
11, 109080, Note_on_c, 11, 66, 0
11, 109080, Note_on_c, 11, 67, 84
11, 109110, Note_on_c, 11, 67, 0
11, 109110, Note_on_c, 11, 59, 94
11, 109140, Note_on_c, 11, 59, 0
11, 109140, Note_on_c, 11, 60, 90
11, 109170, Note_on_c, 11, 60, 0
11, 109170, Note_on_c, 11, 62, 94
11, 109200, Note_on_c, 11, 62, 0
11, 109200, Note_on_c, 11, 64, 99
11, 109230, Note_on_c, 11, 64, 0
11, 109230, Note_on_c, 11, 60, 90
11, 109260, Note_on_c, 11, 60, 0
11, 109260, Note_on_c, 11, 57, 93
11, 109290, Note_on_c, 11, 57, 0
11, 109290, Note_on_c, 11, 60, 95
11, 109320, Note_on_c, 11, 60, 0
11, 109320, Note_on_c, 11, 57, 98
11, 109350, Note_on_c, 11, 57, 0
11, 109350, Note_on_c, 11, 60, 94
11, 109380, Note_on_c, 11, 60, 0
11, 109380, Note_on_c, 11, 57, 95
11, 109410, Note_on_c, 11, 57, 0
11, 109410, Note_on_c, 11, 60, 89
11, 109440, Note_on_c, 11, 60, 0
11, 110340, Note_on_c, 11, 60, 43
11, 110400, Note_on_c, 11, 60, 0
11, 110400, Note_on_c, 11, 59, 82
11, 110460, Note_on_c, 11, 59, 0
11, 111360, Note_on_c, 11, 55, 74
11, 111360, Note_on_c, 11, 67, 64
11, 111420, Note_on_c, 11, 67, 0
11, 111420, Note_on_c, 11, 55, 0
11, 115080, Program_c, 11, 45
11, 115200, Note_on_c, 11, 66, 40
11, 115260, Note_on_c, 11, 66, 0
11, 115680, Note_on_c, 11, 67, 43
11, 115740, Note_on_c, 11, 67, 0
11, 116160, Note_on_c, 11, 60, 43
11, 116220, Note_on_c, 11, 60, 0
11, 117120, Note_on_c, 11, 60, 43
11, 117180, Note_on_c, 11, 60, 0
11, 117600, Note_on_c, 11, 62, 40
11, 117660, Note_on_c, 11, 62, 0
11, 117960, Program_c, 11, 48
11, 118080, Note_on_c, 11, 62, 40
11, 118080, Note_on_c, 11, 59, 43
11, 118140, Note_on_c, 11, 59, 0
11, 118140, Note_on_c, 11, 62, 0
11, 118140, Note_on_c, 11, 62, 43
11, 118140, Note_on_c, 11, 59, 46
11, 118200, Note_on_c, 11, 59, 0
11, 118200, Note_on_c, 11, 62, 0
11, 118200, Note_on_c, 11, 59, 45
11, 118200, Note_on_c, 11, 62, 43
11, 118260, Note_on_c, 11, 62, 0
11, 118260, Note_on_c, 11, 59, 0
11, 118260, Note_on_c, 11, 62, 43
11, 118260, Note_on_c, 11, 59, 48
11, 118320, Note_on_c, 11, 59, 0
11, 118320, Note_on_c, 11, 62, 0
11, 118320, Note_on_c, 11, 62, 41
11, 118320, Note_on_c, 11, 59, 43
11, 118380, Note_on_c, 11, 59, 0
11, 118380, Note_on_c, 11, 62, 0
11, 118380, Note_on_c, 11, 62, 39
11, 118380, Note_on_c, 11, 59, 45
11, 118440, Note_on_c, 11, 59, 0
11, 118440, Note_on_c, 11, 62, 0
11, 118440, Note_on_c, 11, 62, 40
11, 118440, Note_on_c, 11, 59, 45
11, 118500, Note_on_c, 11, 59, 0
11, 118500, Note_on_c, 11, 62, 0
11, 118500, Note_on_c, 11, 59, 53
11, 118500, Note_on_c, 11, 62, 49
11, 118560, Note_on_c, 11, 62, 0
11, 118560, Note_on_c, 11, 59, 0
11, 118560, Note_on_c, 11, 60, 45
11, 118560, Note_on_c, 11, 62, 44
11, 118620, Note_on_c, 11, 62, 0
11, 118620, Note_on_c, 11, 60, 0
11, 118620, Note_on_c, 11, 60, 45
11, 118620, Note_on_c, 11, 62, 44
11, 118680, Note_on_c, 11, 62, 0
11, 118680, Note_on_c, 11, 60, 0
11, 118680, Note_on_c, 11, 60, 43
11, 118680, Note_on_c, 11, 62, 40
11, 118740, Note_on_c, 11, 62, 0
11, 118740, Note_on_c, 11, 60, 0
11, 118740, Note_on_c, 11, 62, 38
11, 118740, Note_on_c, 11, 60, 46
11, 118800, Note_on_c, 11, 60, 0
11, 118800, Note_on_c, 11, 62, 0
11, 118800, Note_on_c, 11, 62, 38
11, 118800, Note_on_c, 11, 60, 47
11, 118860, Note_on_c, 11, 60, 0
11, 118860, Note_on_c, 11, 62, 0
11, 118860, Note_on_c, 11, 62, 40
11, 118860, Note_on_c, 11, 60, 50
11, 118920, Note_on_c, 11, 60, 0
11, 118920, Note_on_c, 11, 62, 0
11, 118920, Note_on_c, 11, 60, 51
11, 118920, Note_on_c, 11, 62, 44
11, 118980, Note_on_c, 11, 62, 0
11, 118980, Note_on_c, 11, 60, 0
11, 118980, Note_on_c, 11, 60, 52
11, 118980, Note_on_c, 11, 62, 44
11, 119040, Note_on_c, 11, 62, 0
11, 119040, Note_on_c, 11, 60, 0
11, 119040, Note_on_c, 11, 62, 42
11, 119040, Note_on_c, 11, 59, 45
11, 119100, Note_on_c, 11, 59, 0
11, 119100, Note_on_c, 11, 62, 0
11, 119100, Note_on_c, 11, 62, 43
11, 119100, Note_on_c, 11, 59, 45
11, 119160, Note_on_c, 11, 59, 0
11, 119160, Note_on_c, 11, 62, 0
11, 119160, Note_on_c, 11, 59, 48
11, 119160, Note_on_c, 11, 62, 44
11, 119220, Note_on_c, 11, 62, 0
11, 119220, Note_on_c, 11, 59, 0
11, 119220, Note_on_c, 11, 59, 45
11, 119220, Note_on_c, 11, 62, 43
11, 119280, Note_on_c, 11, 62, 0
11, 119280, Note_on_c, 11, 59, 0
11, 119280, Note_on_c, 11, 59, 52
11, 119280, Note_on_c, 11, 62, 43
11, 119340, Note_on_c, 11, 62, 0
11, 119340, Note_on_c, 11, 59, 0
11, 119340, Note_on_c, 11, 59, 52
11, 119340, Note_on_c, 11, 62, 43
11, 119400, Note_on_c, 11, 62, 0
11, 119400, Note_on_c, 11, 59, 0
11, 119400, Note_on_c, 11, 59, 44
11, 119400, Note_on_c, 11, 62, 45
11, 119460, Note_on_c, 11, 62, 0
11, 119460, Note_on_c, 11, 59, 0
11, 119460, Note_on_c, 11, 59, 53
11, 119460, Note_on_c, 11, 62, 44
11, 119520, Note_on_c, 11, 62, 0
11, 119520, Note_on_c, 11, 59, 0
11, 119520, Note_on_c, 11, 60, 43
11, 119520, Note_on_c, 11, 62, 43
11, 119580, Note_on_c, 11, 62, 0
11, 119580, Note_on_c, 11, 60, 0
11, 119580, Note_on_c, 11, 60, 46
11, 119580, Note_on_c, 11, 62, 43
11, 119640, Note_on_c, 11, 62, 0
11, 119640, Note_on_c, 11, 60, 0
11, 119640, Note_on_c, 11, 60, 46
11, 119640, Note_on_c, 11, 62, 43
11, 119700, Note_on_c, 11, 62, 0
11, 119700, Note_on_c, 11, 60, 0
11, 119700, Note_on_c, 11, 60, 53
11, 119700, Note_on_c, 11, 62, 48
11, 119760, Note_on_c, 11, 62, 0
11, 119760, Note_on_c, 11, 60, 0
11, 119760, Note_on_c, 11, 60, 58
11, 119760, Note_on_c, 11, 62, 46
11, 119820, Note_on_c, 11, 62, 0
11, 119820, Note_on_c, 11, 60, 0
11, 119820, Note_on_c, 11, 60, 62
11, 119820, Note_on_c, 11, 62, 50
11, 119880, Note_on_c, 11, 62, 0
11, 119880, Note_on_c, 11, 60, 0
11, 119880, Note_on_c, 11, 60, 65
11, 119880, Note_on_c, 11, 62, 48
11, 119940, Note_on_c, 11, 62, 0
11, 119940, Note_on_c, 11, 60, 0
11, 119940, Note_on_c, 11, 62, 43
11, 119940, Note_on_c, 11, 60, 62
11, 120000, Note_on_c, 11, 60, 0
11, 120000, Note_on_c, 11, 62, 0
11, 120000, Note_on_c, 11, 62, 52
11, 120000, Note_on_c, 11, 59, 57
11, 120030, Note_on_c, 11, 59, 0
11, 120030, Note_on_c, 11, 62, 0
11, 120030, Note_on_c, 11, 59, 57
11, 120030, Note_on_c, 11, 62, 58
11, 120060, Note_on_c, 11, 62, 0
11, 120060, Note_on_c, 11, 59, 0
11, 120060, Note_on_c, 11, 59, 65
11, 120060, Note_on_c, 11, 62, 60
11, 120090, Note_on_c, 11, 62, 0
11, 120090, Note_on_c, 11, 59, 0
11, 120090, Note_on_c, 11, 59, 65
11, 120090, Note_on_c, 11, 62, 57
11, 120120, Note_on_c, 11, 62, 0
11, 120120, Note_on_c, 11, 59, 0
11, 120120, Note_on_c, 11, 59, 71
11, 120120, Note_on_c, 11, 62, 58
11, 120150, Note_on_c, 11, 62, 0
11, 120150, Note_on_c, 11, 59, 0
11, 120150, Note_on_c, 11, 59, 66
11, 120150, Note_on_c, 11, 62, 57
11, 120180, Note_on_c, 11, 62, 0
11, 120180, Note_on_c, 11, 59, 0
11, 120180, Note_on_c, 11, 59, 71
11, 120180, Note_on_c, 11, 62, 58
11, 120210, Note_on_c, 11, 62, 0
11, 120210, Note_on_c, 11, 59, 0
11, 120210, Note_on_c, 11, 59, 73
11, 120210, Note_on_c, 11, 62, 58
11, 120240, Note_on_c, 11, 62, 0
11, 120240, Note_on_c, 11, 59, 0
11, 120240, Note_on_c, 11, 59, 66
11, 120240, Note_on_c, 11, 62, 58
11, 120270, Note_on_c, 11, 62, 0
11, 120270, Note_on_c, 11, 59, 0
11, 120270, Note_on_c, 11, 59, 65
11, 120270, Note_on_c, 11, 62, 53
11, 120300, Note_on_c, 11, 62, 0
11, 120300, Note_on_c, 11, 59, 0
11, 120300, Note_on_c, 11, 59, 67
11, 120300, Note_on_c, 11, 62, 52
11, 120330, Note_on_c, 11, 62, 0
11, 120330, Note_on_c, 11, 59, 0
11, 120330, Note_on_c, 11, 59, 61
11, 120330, Note_on_c, 11, 62, 45
11, 120360, Note_on_c, 11, 62, 0
11, 120360, Note_on_c, 11, 59, 0
11, 120360, Note_on_c, 11, 59, 72
11, 120360, Note_on_c, 11, 62, 53
11, 120390, Note_on_c, 11, 62, 0
11, 120390, Note_on_c, 11, 59, 0
11, 120390, Note_on_c, 11, 62, 60
11, 120390, Note_on_c, 11, 59, 76
11, 120420, Note_on_c, 11, 59, 0
11, 120420, Note_on_c, 11, 62, 0
11, 120420, Note_on_c, 11, 59, 74
11, 120420, Note_on_c, 11, 62, 65
11, 120450, Note_on_c, 11, 62, 0
11, 120450, Note_on_c, 11, 59, 0
11, 120450, Note_on_c, 11, 59, 73
11, 120450, Note_on_c, 11, 62, 68
11, 120480, Note_on_c, 11, 62, 0
11, 120480, Note_on_c, 11, 59, 0
11, 120480, Note_on_c, 11, 62, 50
11, 120480, Note_on_c, 11, 60, 72
11, 120510, Note_on_c, 11, 60, 0
11, 120510, Note_on_c, 11, 62, 0
11, 120510, Note_on_c, 11, 60, 64
11, 120510, Note_on_c, 11, 62, 68
11, 120540, Note_on_c, 11, 62, 0
11, 120540, Note_on_c, 11, 60, 0
11, 120540, Note_on_c, 11, 60, 67
11, 120540, Note_on_c, 11, 62, 65
11, 120570, Note_on_c, 11, 62, 0
11, 120570, Note_on_c, 11, 60, 0
11, 120570, Note_on_c, 11, 60, 73
11, 120570, Note_on_c, 11, 62, 64
11, 120600, Note_on_c, 11, 62, 0
11, 120600, Note_on_c, 11, 60, 0
11, 120600, Note_on_c, 11, 60, 72
11, 120600, Note_on_c, 11, 62, 58
11, 120630, Note_on_c, 11, 62, 0
11, 120630, Note_on_c, 11, 60, 0
11, 120630, Note_on_c, 11, 60, 68
11, 120630, Note_on_c, 11, 62, 56
11, 120660, Note_on_c, 11, 62, 0
11, 120660, Note_on_c, 11, 60, 0
11, 120660, Note_on_c, 11, 62, 62
11, 120660, Note_on_c, 11, 60, 70
11, 120690, Note_on_c, 11, 60, 0
11, 120690, Note_on_c, 11, 62, 0
11, 120690, Note_on_c, 11, 60, 76
11, 120690, Note_on_c, 11, 62, 66
11, 120720, Note_on_c, 11, 62, 0
11, 120720, Note_on_c, 11, 60, 0
11, 120720, Note_on_c, 11, 62, 58
11, 120720, Note_on_c, 11, 60, 73
11, 120750, Note_on_c, 11, 60, 0
11, 120750, Note_on_c, 11, 62, 0
11, 120750, Note_on_c, 11, 60, 72
11, 120750, Note_on_c, 11, 62, 60
11, 120780, Note_on_c, 11, 62, 0
11, 120780, Note_on_c, 11, 60, 0
11, 120780, Note_on_c, 11, 60, 76
11, 120780, Note_on_c, 11, 62, 67
11, 120810, Note_on_c, 11, 62, 0
11, 120810, Note_on_c, 11, 60, 0
11, 120810, Note_on_c, 11, 60, 76
11, 120810, Note_on_c, 11, 62, 66
11, 120840, Note_on_c, 11, 62, 0
11, 120840, Note_on_c, 11, 60, 0
11, 120840, Note_on_c, 11, 60, 74
11, 120840, Note_on_c, 11, 62, 64
11, 120870, Note_on_c, 11, 62, 0
11, 120870, Note_on_c, 11, 60, 0
11, 120870, Note_on_c, 11, 60, 76
11, 120870, Note_on_c, 11, 62, 69
11, 120900, Note_on_c, 11, 62, 0
11, 120900, Note_on_c, 11, 60, 0
11, 120900, Note_on_c, 11, 62, 64
11, 120900, Note_on_c, 11, 60, 72
11, 120930, Note_on_c, 11, 60, 0
11, 120930, Note_on_c, 11, 62, 0
11, 120930, Note_on_c, 11, 60, 84
11, 120930, Note_on_c, 11, 62, 77
11, 120960, Note_on_c, 11, 62, 0
11, 120960, Note_on_c, 11, 60, 0
11, 120960, Note_on_c, 11, 59, 76
11, 120960, Note_on_c, 11, 67, 57
11, 120990, Note_on_c, 11, 67, 0
11, 120990, Note_on_c, 11, 59, 0
11, 120990, Note_on_c, 11, 67, 70
11, 120990, Note_on_c, 11, 59, 78
11, 121020, Note_on_c, 11, 59, 0
11, 121020, Note_on_c, 11, 67, 0
11, 121020, Note_on_c, 11, 59, 73
11, 121020, Note_on_c, 11, 67, 64
11, 121050, Note_on_c, 11, 67, 0
11, 121050, Note_on_c, 11, 59, 0
11, 121050, Note_on_c, 11, 59, 74
11, 121050, Note_on_c, 11, 67, 65
11, 121080, Note_on_c, 11, 67, 0
11, 121080, Note_on_c, 11, 59, 0
11, 121080, Note_on_c, 11, 59, 65
11, 121080, Note_on_c, 11, 67, 65
11, 121110, Note_on_c, 11, 67, 0
11, 121110, Note_on_c, 11, 59, 0
11, 121110, Note_on_c, 11, 59, 72
11, 121110, Note_on_c, 11, 67, 61
11, 121140, Note_on_c, 11, 67, 0
11, 121140, Note_on_c, 11, 59, 0
11, 121140, Note_on_c, 11, 59, 71
11, 121140, Note_on_c, 11, 67, 61
11, 121170, Note_on_c, 11, 67, 0
11, 121170, Note_on_c, 11, 59, 0
11, 121170, Note_on_c, 11, 59, 78
11, 121170, Note_on_c, 11, 67, 68
11, 121200, Note_on_c, 11, 67, 0
11, 121200, Note_on_c, 11, 59, 0
11, 121200, Note_on_c, 11, 59, 89
11, 121200, Note_on_c, 11, 67, 73
11, 121230, Note_on_c, 11, 67, 0
11, 121230, Note_on_c, 11, 59, 0
11, 121230, Note_on_c, 11, 59, 68
11, 121230, Note_on_c, 11, 67, 60
11, 121260, Note_on_c, 11, 67, 0
11, 121260, Note_on_c, 11, 59, 0
11, 121260, Note_on_c, 11, 59, 72
11, 121260, Note_on_c, 11, 67, 67
11, 121290, Note_on_c, 11, 67, 0
11, 121290, Note_on_c, 11, 59, 0
11, 121290, Note_on_c, 11, 59, 73
11, 121290, Note_on_c, 11, 67, 64
11, 121320, Note_on_c, 11, 67, 0
11, 121320, Note_on_c, 11, 59, 0
11, 121320, Note_on_c, 11, 59, 74
11, 121320, Note_on_c, 11, 67, 64
11, 121350, Note_on_c, 11, 67, 0
11, 121350, Note_on_c, 11, 59, 0
11, 121350, Note_on_c, 11, 59, 67
11, 121350, Note_on_c, 11, 67, 65
11, 121380, Note_on_c, 11, 67, 0
11, 121380, Note_on_c, 11, 59, 0
11, 121380, Note_on_c, 11, 59, 77
11, 121380, Note_on_c, 11, 67, 68
11, 121410, Note_on_c, 11, 67, 0
11, 121410, Note_on_c, 11, 59, 0
11, 121410, Note_on_c, 11, 59, 84
11, 121410, Note_on_c, 11, 67, 70
11, 121440, Note_on_c, 11, 67, 0
11, 121440, Note_on_c, 11, 59, 0
11, 121440, Note_on_c, 11, 60, 65
11, 121440, Note_on_c, 11, 62, 57
11, 121470, Note_on_c, 11, 62, 0
11, 121470, Note_on_c, 11, 60, 0
11, 121470, Note_on_c, 11, 60, 68
11, 121470, Note_on_c, 11, 62, 65
11, 121500, Note_on_c, 11, 62, 0
11, 121500, Note_on_c, 11, 60, 0
11, 121500, Note_on_c, 11, 62, 59
11, 121500, Note_on_c, 11, 60, 69
11, 121530, Note_on_c, 11, 60, 0
11, 121530, Note_on_c, 11, 62, 0
11, 121530, Note_on_c, 11, 60, 63
11, 121530, Note_on_c, 11, 62, 65
11, 121560, Note_on_c, 11, 62, 0
11, 121560, Note_on_c, 11, 60, 0
11, 121560, Note_on_c, 11, 60, 61
11, 121560, Note_on_c, 11, 62, 58
11, 121590, Note_on_c, 11, 62, 0
11, 121590, Note_on_c, 11, 60, 0
11, 121590, Note_on_c, 11, 60, 62
11, 121590, Note_on_c, 11, 62, 53
11, 121620, Note_on_c, 11, 62, 0
11, 121620, Note_on_c, 11, 60, 0
11, 121620, Note_on_c, 11, 62, 58
11, 121620, Note_on_c, 11, 60, 65
11, 121650, Note_on_c, 11, 60, 0
11, 121650, Note_on_c, 11, 62, 0
11, 121650, Note_on_c, 11, 62, 68
11, 121650, Note_on_c, 11, 60, 76
11, 121680, Note_on_c, 11, 60, 0
11, 121680, Note_on_c, 11, 62, 0
11, 121680, Note_on_c, 11, 60, 70
11, 121680, Note_on_c, 11, 62, 67
11, 121710, Note_on_c, 11, 62, 0
11, 121710, Note_on_c, 11, 60, 0
11, 121710, Note_on_c, 11, 60, 71
11, 121710, Note_on_c, 11, 62, 65
11, 121740, Note_on_c, 11, 62, 0
11, 121740, Note_on_c, 11, 60, 0
11, 121740, Note_on_c, 11, 60, 65
11, 121740, Note_on_c, 11, 62, 68
11, 121770, Note_on_c, 11, 62, 0
11, 121770, Note_on_c, 11, 60, 0
11, 121770, Note_on_c, 11, 60, 73
11, 121770, Note_on_c, 11, 62, 70
11, 121800, Note_on_c, 11, 62, 0
11, 121800, Note_on_c, 11, 60, 0
11, 121800, Note_on_c, 11, 60, 73
11, 121800, Note_on_c, 11, 62, 67
11, 121830, Note_on_c, 11, 62, 0
11, 121830, Note_on_c, 11, 60, 0
11, 121830, Note_on_c, 11, 60, 72
11, 121830, Note_on_c, 11, 62, 69
11, 121860, Note_on_c, 11, 62, 0
11, 121860, Note_on_c, 11, 60, 0
11, 121860, Note_on_c, 11, 60, 72
11, 121860, Note_on_c, 11, 62, 72
11, 121890, Note_on_c, 11, 62, 0
11, 121890, Note_on_c, 11, 60, 0
11, 121890, Note_on_c, 11, 60, 80
11, 121890, Note_on_c, 11, 62, 72
11, 121920, Note_on_c, 11, 62, 0
11, 121920, Note_on_c, 11, 60, 0
11, 121920, Note_on_c, 11, 62, 80
11, 121920, Note_on_c, 11, 59, 86
11, 121950, Note_on_c, 11, 59, 0
11, 121950, Note_on_c, 11, 62, 0
11, 121950, Note_on_c, 11, 67, 72
11, 121980, Note_on_c, 11, 67, 0
11, 121980, Note_on_c, 11, 69, 89
11, 122010, Note_on_c, 11, 69, 0
11, 122010, Note_on_c, 11, 69, 89
11, 122040, Note_on_c, 11, 69, 0
11, 122040, Note_on_c, 11, 71, 95
11, 122070, Note_on_c, 11, 71, 0
11, 122070, Note_on_c, 11, 71, 86
11, 122100, Note_on_c, 11, 71, 0
11, 122100, Note_on_c, 11, 72, 127
11, 122130, Note_on_c, 11, 72, 0
11, 122130, Note_on_c, 11, 72, 123
11, 122160, Note_on_c, 11, 72, 0
11, 122160, Note_on_c, 11, 69, 84
11, 122190, Note_on_c, 11, 69, 0
11, 122190, Note_on_c, 11, 69, 89
11, 122220, Note_on_c, 11, 69, 0
11, 122220, Note_on_c, 11, 71, 80
11, 122250, Note_on_c, 11, 71, 0
11, 122250, Note_on_c, 11, 71, 89
11, 122280, Note_on_c, 11, 71, 0
11, 122280, Note_on_c, 11, 72, 78
11, 122310, Note_on_c, 11, 72, 0
11, 122310, Note_on_c, 11, 72, 119
11, 122340, Note_on_c, 11, 72, 0
11, 122340, Note_on_c, 11, 74, 117
11, 122370, Note_on_c, 11, 74, 0
11, 122370, Note_on_c, 11, 74, 99
11, 122400, Note_on_c, 11, 74, 0
11, 122400, Note_on_c, 11, 71, 89
11, 122430, Note_on_c, 11, 71, 0
11, 122430, Note_on_c, 11, 71, 86
11, 122460, Note_on_c, 11, 71, 0
11, 122460, Note_on_c, 11, 72, 112
11, 122490, Note_on_c, 11, 72, 0
11, 122490, Note_on_c, 11, 72, 110
11, 122520, Note_on_c, 11, 72, 0
11, 122520, Note_on_c, 11, 74, 59
11, 122550, Note_on_c, 11, 74, 0
11, 122550, Note_on_c, 11, 74, 90
11, 122580, Note_on_c, 11, 74, 0
11, 122580, Note_on_c, 11, 76, 123
11, 122610, Note_on_c, 11, 76, 0
11, 122610, Note_on_c, 11, 76, 86
11, 122640, Note_on_c, 11, 76, 0
11, 122640, Note_on_c, 11, 72, 115
11, 122670, Note_on_c, 11, 72, 0
11, 122670, Note_on_c, 11, 72, 115
11, 122700, Note_on_c, 11, 72, 0
11, 122700, Note_on_c, 11, 74, 89
11, 122730, Note_on_c, 11, 74, 0
11, 122730, Note_on_c, 11, 74, 89
11, 122760, Note_on_c, 11, 74, 0
11, 122760, Note_on_c, 11, 76, 90
11, 122790, Note_on_c, 11, 76, 0
11, 122790, Note_on_c, 11, 76, 89
11, 122820, Note_on_c, 11, 76, 0
11, 122820, Note_on_c, 11, 78, 112
11, 122850, Note_on_c, 11, 78, 0
11, 122850, Note_on_c, 11, 78, 105
11, 122880, Note_on_c, 11, 78, 0
11, 122880, Note_on_c, 11, 79, 78
11, 122910, Note_on_c, 11, 79, 0
11, 122910, Note_on_c, 11, 79, 77
11, 122940, Note_on_c, 11, 79, 0
11, 122940, Note_on_c, 11, 81, 74
11, 122970, Note_on_c, 11, 81, 0
11, 122970, Note_on_c, 11, 81, 86
11, 123000, Note_on_c, 11, 81, 0
11, 123000, Note_on_c, 11, 82, 73
11, 123030, Note_on_c, 11, 82, 0
11, 123030, Note_on_c, 11, 82, 84
11, 123060, Note_on_c, 11, 82, 0
11, 123060, Note_on_c, 11, 83, 89
11, 123090, Note_on_c, 11, 83, 0
11, 123090, Note_on_c, 11, 83, 95
11, 123120, Note_on_c, 11, 83, 0
11, 123120, Note_on_c, 11, 84, 86
11, 123150, Note_on_c, 11, 84, 0
11, 123150, Note_on_c, 11, 84, 81
11, 123180, Note_on_c, 11, 84, 0
11, 123180, Note_on_c, 11, 85, 82
11, 123210, Note_on_c, 11, 85, 0
11, 123210, Note_on_c, 11, 85, 81
11, 123240, Note_on_c, 11, 85, 0
11, 123240, Note_on_c, 11, 86, 95
11, 123270, Note_on_c, 11, 86, 0
11, 123270, Note_on_c, 11, 86, 89
11, 123300, Note_on_c, 11, 86, 0
11, 123300, Note_on_c, 11, 87, 94
11, 123330, Note_on_c, 11, 87, 0
11, 123330, Note_on_c, 11, 87, 90
11, 123360, Note_on_c, 11, 87, 0
11, 123360, Note_on_c, 11, 88, 105
11, 123420, Note_on_c, 11, 88, 0
11, 123480, Note_on_c, 11, 78, 90
11, 123540, Note_on_c, 11, 78, 0
11, 123600, Note_on_c, 11, 79, 98
11, 123660, Note_on_c, 11, 79, 0
11, 123720, Note_on_c, 11, 61, 95
11, 123780, Note_on_c, 11, 61, 0
11, 123840, Note_on_c, 11, 62, 94
11, 124080, Note_on_c, 11, 62, 0
11, 136920, Program_c, 11, 45
11, 137040, Note_on_c, 11, 60, 71
11, 137040, Note_on_c, 11, 66, 76
11, 137100, Note_on_c, 11, 66, 0
11, 137100, Note_on_c, 11, 60, 0
11, 139440, Note_on_c, 11, 59, 71
11, 139560, Note_on_c, 11, 59, 0
11, 139680, Note_on_c, 11, 60, 63
11, 139800, Note_on_c, 11, 60, 0
11, 139920, Note_on_c, 11, 62, 68
11, 139980, Note_on_c, 11, 62, 0
11, 140160, Note_on_c, 11, 62, 65
11, 140220, Note_on_c, 11, 62, 0
11, 140340, Program_c, 11, 48
11, 140640, Note_on_c, 11, 62, 84
11, 140740, Control_c, 11, 7, 98
11, 140745, Control_c, 11, 7, 97
11, 140750, Control_c, 11, 7, 96
11, 140755, Control_c, 11, 7, 95
11, 140760, Control_c, 11, 7, 93
11, 140765, Control_c, 11, 7, 92
11, 140770, Control_c, 11, 7, 91
11, 140775, Control_c, 11, 7, 89
11, 140780, Control_c, 11, 7, 88
11, 140785, Control_c, 11, 7, 87
11, 140790, Control_c, 11, 7, 85
11, 140795, Control_c, 11, 7, 84
11, 140800, Control_c, 11, 7, 83
11, 140805, Control_c, 11, 7, 82
11, 140810, Control_c, 11, 7, 80
11, 140815, Control_c, 11, 7, 79
11, 140820, Control_c, 11, 7, 78
11, 140825, Control_c, 11, 7, 76
11, 140830, Control_c, 11, 7, 75
11, 140835, Control_c, 11, 7, 74
11, 140840, Control_c, 11, 7, 72
11, 141120, Note_on_c, 11, 62, 0
11, 141120, Note_on_c, 11, 60, 82
11, 141180, Note_on_c, 11, 60, 0
11, 141240, Note_on_c, 11, 64, 86
11, 141300, Note_on_c, 11, 64, 0
11, 141480, Note_on_c, 11, 59, 89
11, 141540, Note_on_c, 11, 59, 0
11, 141720, Note_on_c, 11, 60, 81
11, 141780, Note_on_c, 11, 60, 0
11, 141815, Control_c, 11, 7, 72
11, 141820, Control_c, 11, 7, 81
11, 141825, Control_c, 11, 7, 90
11, 141830, Control_c, 11, 7, 100
11, 141840, Note_on_c, 11, 59, 56
11, 141900, Note_on_c, 11, 59, 0
11, 141910, Program_c, 11, 45
11, 141960, Note_on_c, 11, 59, 43
11, 142080, Note_on_c, 11, 59, 0
11, 142200, Note_on_c, 11, 59, 43
11, 142320, Note_on_c, 11, 59, 0
11, 142440, Note_on_c, 11, 60, 43
11, 142560, Note_on_c, 11, 60, 0
11, 142680, Note_on_c, 11, 60, 45
11, 142800, Note_on_c, 11, 60, 0
11, 142920, Note_on_c, 11, 60, 45
11, 143040, Note_on_c, 11, 60, 0
11, 143160, Note_on_c, 11, 60, 52
11, 143280, Note_on_c, 11, 60, 0
11, 143400, Note_on_c, 11, 60, 43
11, 143520, Note_on_c, 11, 60, 0
11, 143640, Note_on_c, 11, 62, 42
11, 143760, Note_on_c, 11, 62, 0
11, 143880, Note_on_c, 11, 62, 45
11, 144000, Note_on_c, 11, 62, 0
11, 144020, Program_c, 11, 48
11, 144120, Note_on_c, 11, 62, 35
11, 144240, Note_on_c, 11, 62, 0
11, 144240, Note_on_c, 11, 62, 35
11, 144720, Note_on_c, 11, 62, 0
11, 144720, Note_on_c, 11, 64, 37
11, 145320, Note_on_c, 11, 64, 0
11, 145320, Note_on_c, 11, 60, 39
11, 145920, Note_on_c, 11, 60, 0
11, 145920, Note_on_c, 11, 62, 39
11, 147115, Control_c, 11, 7, 99
11, 147150, Control_c, 11, 7, 98
11, 147180, Control_c, 11, 7, 97
11, 147210, Control_c, 11, 7, 96
11, 147240, Control_c, 11, 7, 95
11, 147270, Control_c, 11, 7, 94
11, 147300, Control_c, 11, 7, 93
11, 147330, Control_c, 11, 7, 92
11, 147360, Control_c, 11, 7, 91
11, 147390, Control_c, 11, 7, 90
11, 147420, Control_c, 11, 7, 89
11, 147450, Control_c, 11, 7, 88
11, 147480, Control_c, 11, 7, 87
11, 147510, Control_c, 11, 7, 86
11, 147540, Control_c, 11, 7, 85
11, 147570, Control_c, 11, 7, 84
11, 147600, Control_c, 11, 7, 83
11, 147630, Control_c, 11, 7, 82
11, 147660, Control_c, 11, 7, 81
11, 147690, Control_c, 11, 7, 80
11, 147720, Control_c, 11, 7, 79
11, 147750, Control_c, 11, 7, 78
11, 147780, Control_c, 11, 7, 77
11, 147810, Control_c, 11, 7, 76
11, 147840, Control_c, 11, 7, 75
11, 147870, Control_c, 11, 7, 74
11, 147900, Control_c, 11, 7, 73
11, 147930, Control_c, 11, 7, 72
11, 147960, Control_c, 11, 7, 71
11, 147990, Control_c, 11, 7, 70
11, 148020, Control_c, 11, 7, 69
11, 148050, Control_c, 11, 7, 68
11, 148080, Note_on_c, 11, 62, 0
11, 148080, Control_c, 11, 7, 67
11, 148080, Note_on_c, 11, 62, 43
11, 148200, Note_on_c, 11, 62, 0
11, 148370, Control_c, 11, 7, 100
11, 148440, Program_c, 11, 45
11, 148560, Note_on_c, 11, 69, 52
11, 148680, Note_on_c, 11, 69, 0
11, 148800, Note_on_c, 11, 62, 46
11, 148920, Note_on_c, 11, 62, 0
11, 149040, Note_on_c, 11, 67, 52
11, 149160, Note_on_c, 11, 67, 0
11, 149880, Program_c, 11, 48
11, 150120, Note_on_c, 11, 69, 43
11, 150180, Note_on_c, 11, 69, 0
11, 150180, Note_on_c, 11, 62, 35
11, 150240, Note_on_c, 11, 62, 0
11, 150960, Note_on_c, 11, 81, 30
11, 151020, Note_on_c, 11, 81, 0
11, 151020, Note_on_c, 11, 74, 38
11, 151080, Note_on_c, 11, 74, 0
11, 151080, Note_on_c, 11, 81, 43
11, 151140, Note_on_c, 11, 81, 0
11, 151140, Note_on_c, 11, 74, 39
11, 151200, Note_on_c, 11, 74, 0
11, 151200, Note_on_c, 11, 81, 32
11, 151260, Note_on_c, 11, 81, 0
11, 151260, Note_on_c, 11, 74, 43
11, 151320, Note_on_c, 11, 74, 0
11, 151320, Note_on_c, 11, 81, 41
11, 151380, Note_on_c, 11, 81, 0
11, 151380, Note_on_c, 11, 74, 35
11, 151440, Note_on_c, 11, 74, 0
11, 151440, Note_on_c, 11, 81, 32
11, 151470, Note_on_c, 11, 81, 0
11, 151470, Note_on_c, 11, 81, 38
11, 151500, Note_on_c, 11, 81, 0
11, 151500, Note_on_c, 11, 81, 40
11, 151530, Note_on_c, 11, 81, 0
11, 151530, Note_on_c, 11, 81, 38
11, 151560, Note_on_c, 11, 81, 0
11, 151560, Note_on_c, 11, 81, 36
11, 151590, Note_on_c, 11, 81, 0
11, 151590, Note_on_c, 11, 81, 39
11, 151620, Note_on_c, 11, 81, 0
11, 151620, Note_on_c, 11, 81, 36
11, 151650, Note_on_c, 11, 81, 0
11, 151650, Note_on_c, 11, 81, 41
11, 151680, Note_on_c, 11, 81, 0
11, 151680, Note_on_c, 11, 81, 38
11, 151710, Note_on_c, 11, 81, 0
11, 151710, Note_on_c, 11, 81, 40
11, 151740, Note_on_c, 11, 81, 0
11, 151740, Note_on_c, 11, 81, 37
11, 151770, Note_on_c, 11, 81, 0
11, 151770, Note_on_c, 11, 81, 40
11, 151800, Note_on_c, 11, 81, 0
11, 151800, Note_on_c, 11, 81, 38
11, 151830, Note_on_c, 11, 81, 0
11, 151830, Note_on_c, 11, 81, 39
11, 151860, Note_on_c, 11, 81, 0
11, 151860, Note_on_c, 11, 81, 40
11, 151890, Note_on_c, 11, 81, 0
11, 151890, Note_on_c, 11, 81, 38
11, 151920, Note_on_c, 11, 81, 0
11, 151920, Note_on_c, 11, 81, 40
11, 151950, Note_on_c, 11, 81, 0
11, 151950, Note_on_c, 11, 81, 43
11, 151980, Note_on_c, 11, 81, 0
11, 151980, Note_on_c, 11, 81, 43
11, 152010, Note_on_c, 11, 81, 0
11, 152010, Note_on_c, 11, 81, 45
11, 152040, Note_on_c, 11, 81, 0
11, 152040, Note_on_c, 11, 81, 54
11, 152070, Note_on_c, 11, 81, 0
11, 152070, Note_on_c, 11, 81, 64
11, 152100, Note_on_c, 11, 81, 0
11, 152100, Note_on_c, 11, 81, 65
11, 152130, Note_on_c, 11, 81, 0
11, 152130, Note_on_c, 11, 81, 73
11, 152160, Note_on_c, 11, 81, 0
11, 152160, Note_on_c, 11, 81, 80
11, 152190, Note_on_c, 11, 81, 0
11, 152190, Note_on_c, 11, 81, 72
11, 152220, Note_on_c, 11, 81, 0
11, 152220, Note_on_c, 11, 81, 81
11, 152250, Note_on_c, 11, 81, 0
11, 152250, Note_on_c, 11, 81, 80
11, 152280, Note_on_c, 11, 81, 0
11, 152280, Note_on_c, 11, 81, 74
11, 152310, Note_on_c, 11, 81, 0
11, 152310, Note_on_c, 11, 81, 78
11, 152340, Note_on_c, 11, 81, 0
11, 152340, Note_on_c, 11, 81, 84
11, 152370, Note_on_c, 11, 81, 0
11, 152370, Note_on_c, 11, 81, 78
11, 152400, Note_on_c, 11, 81, 0
11, 152400, Note_on_c, 11, 62, 68
11, 152400, Note_on_c, 11, 77, 78
11, 152400, Note_on_c, 11, 71, 80
11, 152520, Note_on_c, 11, 71, 0
11, 152520, Note_on_c, 11, 77, 0
11, 152520, Note_on_c, 11, 62, 0
11, 152640, Note_on_c, 11, 55, 86
11, 152640, Note_on_c, 11, 74, 66
11, 152640, Note_on_c, 11, 65, 67
11, 152760, Note_on_c, 11, 65, 0
11, 152760, Note_on_c, 11, 74, 0
11, 152760, Note_on_c, 11, 55, 0
11, 152880, Note_on_c, 11, 55, 80
11, 152880, Note_on_c, 11, 65, 63
11, 152880, Note_on_c, 11, 74, 65
11, 153000, Note_on_c, 11, 74, 0
11, 153000, Note_on_c, 11, 65, 0
11, 153000, Note_on_c, 11, 55, 0
11, 153120, Note_on_c, 11, 65, 73
11, 153120, Note_on_c, 11, 55, 78
11, 153120, Note_on_c, 11, 74, 76
11, 153240, Note_on_c, 11, 74, 0
11, 153240, Note_on_c, 11, 55, 0
11, 153240, Note_on_c, 11, 65, 0
11, 153360, Note_on_c, 11, 64, 99
11, 153480, Note_on_c, 11, 64, 0
11, 153540, Note_on_c, 11, 64, 94
11, 153570, Note_on_c, 11, 64, 0
11, 153570, Note_on_c, 11, 64, 99
11, 153600, Note_on_c, 11, 64, 0
11, 153600, Note_on_c, 11, 64, 94
11, 153720, Note_on_c, 11, 64, 0
11, 153780, Note_on_c, 11, 64, 93
11, 153810, Note_on_c, 11, 64, 0
11, 153810, Note_on_c, 11, 64, 99
11, 153840, Note_on_c, 11, 64, 0
11, 153840, Note_on_c, 11, 64, 93
11, 153960, Note_on_c, 11, 64, 0
11, 153960, Note_on_c, 11, 67, 81
11, 153990, Note_on_c, 11, 67, 0
11, 154020, Note_on_c, 11, 72, 119
11, 154050, Note_on_c, 11, 72, 0
11, 154080, Note_on_c, 11, 76, 93
11, 154140, Note_on_c, 11, 76, 0
11, 154320, Note_on_c, 11, 76, 94
11, 154380, Note_on_c, 11, 76, 0
11, 154440, Note_on_c, 11, 72, 119
11, 154500, Note_on_c, 11, 72, 0
11, 154560, Note_on_c, 11, 69, 95
11, 154620, Note_on_c, 11, 69, 0
11, 154800, Note_on_c, 11, 69, 89
11, 154800, Note_on_c, 11, 62, 93
11, 154860, Note_on_c, 11, 62, 0
11, 154860, Note_on_c, 11, 69, 0
11, 154920, Note_on_c, 11, 62, 81
11, 154920, Note_on_c, 11, 74, 89
11, 154980, Note_on_c, 11, 74, 0
11, 154980, Note_on_c, 11, 62, 0
11, 155040, Note_on_c, 11, 62, 94
11, 155040, Note_on_c, 11, 71, 94
11, 155100, Note_on_c, 11, 71, 0
11, 155100, Note_on_c, 11, 62, 0
11, 155160, Note_on_c, 11, 67, 78
11, 155160, Note_on_c, 11, 59, 89
11, 155220, Note_on_c, 11, 59, 0
11, 155220, Note_on_c, 11, 67, 0
11, 155280, Note_on_c, 11, 69, 98
11, 155340, Note_on_c, 11, 69, 0
11, 155400, Note_on_c, 11, 62, 95
11, 155460, Note_on_c, 11, 62, 0
11, 155520, Note_on_c, 11, 59, 98
11, 155580, Note_on_c, 11, 59, 0
11, 156120, Program_c, 11, 45
11, 156240, Note_on_c, 11, 64, 43
11, 156360, Note_on_c, 11, 64, 0
11, 156480, Note_on_c, 11, 60, 41
11, 156600, Note_on_c, 11, 60, 0
11, 156720, Note_on_c, 11, 59, 42
11, 156840, Note_on_c, 11, 59, 0
11, 156960, Note_on_c, 11, 66, 41
11, 157080, Note_on_c, 11, 66, 0
11, 157200, Note_on_c, 11, 67, 40
11, 157320, Note_on_c, 11, 67, 0
11, 157440, Note_on_c, 11, 66, 45
11, 157560, Note_on_c, 11, 66, 0
11, 157680, Note_on_c, 11, 59, 44
11, 157800, Note_on_c, 11, 59, 0
11, 157920, Note_on_c, 11, 66, 44
11, 158040, Note_on_c, 11, 66, 0
11, 158160, Note_on_c, 11, 67, 40
11, 158280, Note_on_c, 11, 67, 0
11, 158400, Note_on_c, 11, 66, 53
11, 158520, Note_on_c, 11, 66, 0
11, 158590, Program_c, 11, 48
11, 158640, Note_on_c, 11, 59, 43
11, 158700, Note_on_c, 11, 59, 0
11, 158880, Note_on_c, 11, 66, 52
11, 158940, Note_on_c, 11, 66, 0
11, 159120, Note_on_c, 11, 67, 74
11, 159180, Note_on_c, 11, 67, 0
11, 159360, Note_on_c, 11, 69, 93
11, 159420, Note_on_c, 11, 69, 0
11, 159600, Note_on_c, 11, 71, 93
11, 159600, Note_on_c, 11, 55, 89
11, 159600, Note_on_c, 11, 62, 76
11, 159720, Note_on_c, 11, 62, 0
11, 159720, Note_on_c, 11, 55, 0
11, 159720, Note_on_c, 11, 71, 0
11, 160020, Note_on_c, 11, 62, 85
11, 160020, Note_on_c, 11, 71, 84
11, 160050, Note_on_c, 11, 71, 0
11, 160050, Note_on_c, 11, 62, 0
11, 160050, Note_on_c, 11, 71, 78
11, 160050, Note_on_c, 11, 62, 85
11, 160080, Note_on_c, 11, 62, 0
11, 160080, Note_on_c, 11, 71, 0
11, 160080, Note_on_c, 11, 62, 94
11, 160080, Note_on_c, 11, 71, 81
11, 160200, Note_on_c, 11, 71, 0
11, 160200, Note_on_c, 11, 62, 0
11, 160500, Note_on_c, 11, 71, 90
11, 160500, Note_on_c, 11, 79, 73
11, 160530, Note_on_c, 11, 79, 0
11, 160530, Note_on_c, 11, 71, 0
11, 160530, Note_on_c, 11, 71, 85
11, 160530, Note_on_c, 11, 79, 72
11, 160560, Note_on_c, 11, 79, 0
11, 160560, Note_on_c, 11, 71, 0
11, 160560, Note_on_c, 11, 71, 99
11, 160560, Note_on_c, 11, 79, 80
11, 160620, Note_on_c, 11, 79, 0
11, 160620, Note_on_c, 11, 71, 0
11, 160800, Note_on_c, 11, 62, 93
11, 160800, Note_on_c, 11, 72, 112
11, 160860, Note_on_c, 11, 72, 0
11, 160860, Note_on_c, 11, 62, 0
11, 161040, Note_on_c, 11, 55, 94
11, 161040, Note_on_c, 11, 62, 81
11, 161040, Note_on_c, 11, 71, 95
11, 161100, Note_on_c, 11, 71, 0
11, 161100, Note_on_c, 11, 62, 0
11, 161100, Note_on_c, 11, 55, 0
11, 161100, End_track
12, 0, Start_track
12, 0, MIDI_port, 0
12, 0, Title_t, "Violas"
12, 0, Control_c, 12, 7, 100
12, 0, Control_c, 12, 10, 65
12, 0, Control_c, 12, 93, 0
12, 0, Control_c, 12, 91, 66
12, 0, Control_c, 12, 0, 0
12, 0, Control_c, 12, 32, 0
12, 0, Program_c, 12, 48
12, 0, Note_on_c, 12, 52, 43
12, 120, Note_on_c, 12, 52, 0
12, 180, Note_on_c, 12, 52, 52
12, 210, Note_on_c, 12, 52, 0
12, 210, Note_on_c, 12, 52, 50
12, 240, Note_on_c, 12, 52, 0
12, 240, Note_on_c, 12, 52, 44
12, 360, Note_on_c, 12, 52, 0
12, 420, Note_on_c, 12, 52, 50
12, 450, Note_on_c, 12, 52, 0
12, 450, Note_on_c, 12, 52, 44
12, 480, Note_on_c, 12, 52, 0
12, 480, Note_on_c, 12, 52, 45
12, 540, Note_on_c, 12, 52, 0
12, 600, Note_on_c, 12, 52, 44
12, 630, Note_on_c, 12, 52, 0
12, 660, Note_on_c, 12, 52, 58
12, 690, Note_on_c, 12, 52, 0
12, 720, Note_on_c, 12, 52, 43
12, 780, Note_on_c, 12, 52, 0
12, 960, Note_on_c, 12, 52, 50
12, 990, Note_on_c, 12, 52, 0
12, 1020, Note_on_c, 12, 52, 56
12, 1035, Note_on_c, 12, 52, 0
12, 1050, Note_on_c, 12, 52, 43
12, 1065, Note_on_c, 12, 52, 0
12, 1080, Note_on_c, 12, 52, 43
12, 1110, Note_on_c, 12, 52, 0
12, 1140, Note_on_c, 12, 52, 40
12, 1155, Note_on_c, 12, 52, 0
12, 1170, Note_on_c, 12, 52, 50
12, 1185, Note_on_c, 12, 52, 0
12, 1200, Note_on_c, 12, 54, 40
12, 1260, Note_on_c, 12, 54, 0
12, 1440, Note_on_c, 12, 54, 33
12, 1470, Note_on_c, 12, 54, 0
12, 1500, Note_on_c, 12, 52, 40
12, 1515, Note_on_c, 12, 52, 0
12, 1530, Note_on_c, 12, 54, 43
12, 1545, Note_on_c, 12, 54, 0
12, 1560, Note_on_c, 12, 54, 35
12, 1590, Note_on_c, 12, 54, 0
12, 1620, Note_on_c, 12, 55, 43
12, 1635, Note_on_c, 12, 55, 0
12, 1650, Note_on_c, 12, 57, 44
12, 1665, Note_on_c, 12, 57, 0
12, 1680, Note_on_c, 12, 55, 43
12, 1710, Note_on_c, 12, 55, 0
12, 1740, Note_on_c, 12, 55, 43
12, 1755, Note_on_c, 12, 55, 0
12, 1770, Note_on_c, 12, 55, 40
12, 1785, Note_on_c, 12, 55, 0
12, 1800, Note_on_c, 12, 55, 41
12, 1830, Note_on_c, 12, 55, 0
12, 1920, Note_on_c, 12, 52, 47
12, 1950, Note_on_c, 12, 52, 0
12, 2040, Note_on_c, 12, 54, 61
12, 2070, Note_on_c, 12, 54, 0
12, 2160, Note_on_c, 12, 50, 45
12, 2400, Note_on_c, 12, 50, 0
12, 4800, Note_on_c, 12, 50, 43
12, 5220, Note_on_c, 12, 50, 0
12, 5220, Note_on_c, 12, 52, 53
12, 5250, Note_on_c, 12, 52, 0
12, 5250, Note_on_c, 12, 54, 44
12, 5280, Note_on_c, 12, 54, 0
12, 5280, Note_on_c, 12, 55, 43
12, 5400, Note_on_c, 12, 55, 0
12, 5400, Note_on_c, 12, 54, 44
12, 5460, Note_on_c, 12, 54, 0
12, 5460, Note_on_c, 12, 55, 59
12, 5490, Note_on_c, 12, 55, 0
12, 5490, Note_on_c, 12, 57, 67
12, 5520, Note_on_c, 12, 57, 0
12, 5520, Note_on_c, 12, 59, 53
12, 5580, Note_on_c, 12, 59, 0
12, 5580, Note_on_c, 12, 55, 62
12, 5640, Note_on_c, 12, 55, 0
12, 5640, Note_on_c, 12, 54, 52
12, 5700, Note_on_c, 12, 54, 0
12, 6720, Note_on_c, 12, 55, 39
12, 6780, Note_on_c, 12, 55, 0
12, 6780, Note_on_c, 12, 55, 43
12, 6840, Note_on_c, 12, 55, 0
12, 6840, Note_on_c, 12, 54, 38
12, 6900, Note_on_c, 12, 54, 0
12, 7080, Note_on_c, 12, 55, 43
12, 7140, Note_on_c, 12, 55, 0
12, 7140, Note_on_c, 12, 54, 57
12, 7200, Note_on_c, 12, 54, 0
12, 7440, Note_on_c, 12, 48, 95
12, 7470, Note_on_c, 12, 48, 0
12, 7470, Note_on_c, 12, 52, 101
12, 7500, Note_on_c, 12, 52, 0
12, 7500, Note_on_c, 12, 55, 95
12, 7530, Note_on_c, 12, 55, 0
12, 7530, Note_on_c, 12, 60, 94
12, 7560, Note_on_c, 12, 60, 0
12, 7560, Note_on_c, 12, 48, 104
12, 7590, Note_on_c, 12, 48, 0
12, 7590, Note_on_c, 12, 60, 89
12, 7620, Note_on_c, 12, 60, 0
12, 7620, Note_on_c, 12, 48, 99
12, 7650, Note_on_c, 12, 48, 0
12, 7650, Note_on_c, 12, 60, 94
12, 7680, Note_on_c, 12, 60, 0
12, 7680, Note_on_c, 12, 48, 95
12, 7710, Note_on_c, 12, 48, 0
12, 7710, Note_on_c, 12, 52, 99
12, 7740, Note_on_c, 12, 52, 0
12, 7740, Note_on_c, 12, 55, 94
12, 7770, Note_on_c, 12, 55, 0
12, 7770, Note_on_c, 12, 60, 94
12, 7800, Note_on_c, 12, 60, 0
12, 7800, Note_on_c, 12, 48, 104
12, 7830, Note_on_c, 12, 48, 0
12, 7830, Note_on_c, 12, 60, 85
12, 7860, Note_on_c, 12, 60, 0
12, 7860, Note_on_c, 12, 48, 99
12, 7890, Note_on_c, 12, 48, 0
12, 7890, Note_on_c, 12, 60, 94
12, 7920, Note_on_c, 12, 60, 0
12, 7920, Note_on_c, 12, 48, 101
12, 7950, Note_on_c, 12, 48, 0
12, 7950, Note_on_c, 12, 52, 98
12, 7980, Note_on_c, 12, 52, 0
12, 7980, Note_on_c, 12, 55, 94
12, 8010, Note_on_c, 12, 55, 0
12, 8010, Note_on_c, 12, 60, 86
12, 8040, Note_on_c, 12, 60, 0
12, 8040, Note_on_c, 12, 48, 99
12, 8070, Note_on_c, 12, 48, 0
12, 8070, Note_on_c, 12, 60, 86
12, 8100, Note_on_c, 12, 60, 0
12, 8100, Note_on_c, 12, 48, 99
12, 8130, Note_on_c, 12, 48, 0
12, 8130, Note_on_c, 12, 60, 89
12, 8160, Note_on_c, 12, 60, 0
12, 8160, Note_on_c, 12, 48, 101
12, 8190, Note_on_c, 12, 48, 0
12, 8190, Note_on_c, 12, 52, 99
12, 8220, Note_on_c, 12, 52, 0
12, 8220, Note_on_c, 12, 55, 95
12, 8250, Note_on_c, 12, 55, 0
12, 8250, Note_on_c, 12, 60, 94
12, 8280, Note_on_c, 12, 60, 0
12, 8280, Note_on_c, 12, 48, 93
12, 8310, Note_on_c, 12, 48, 0
12, 8310, Note_on_c, 12, 52, 104
12, 8340, Note_on_c, 12, 52, 0
12, 8340, Note_on_c, 12, 55, 95
12, 8370, Note_on_c, 12, 55, 0
12, 8370, Note_on_c, 12, 60, 95
12, 8400, Note_on_c, 12, 60, 0
12, 8400, Note_on_c, 12, 48, 94
12, 8430, Note_on_c, 12, 48, 0
12, 8430, Note_on_c, 12, 52, 105
12, 8460, Note_on_c, 12, 52, 0
12, 8460, Note_on_c, 12, 55, 90
12, 8490, Note_on_c, 12, 55, 0
12, 8490, Note_on_c, 12, 60, 93
12, 8520, Note_on_c, 12, 60, 0
12, 8520, Note_on_c, 12, 48, 95
12, 8550, Note_on_c, 12, 48, 0
12, 8550, Note_on_c, 12, 52, 104
12, 8580, Note_on_c, 12, 52, 0
12, 8580, Note_on_c, 12, 55, 90
12, 8610, Note_on_c, 12, 55, 0
12, 8610, Note_on_c, 12, 60, 94
12, 8640, Note_on_c, 12, 60, 0
12, 8640, Note_on_c, 12, 48, 98
12, 8670, Note_on_c, 12, 48, 0
12, 8670, Note_on_c, 12, 54, 93
12, 8700, Note_on_c, 12, 54, 0
12, 8700, Note_on_c, 12, 57, 105
12, 8730, Note_on_c, 12, 57, 0
12, 8730, Note_on_c, 12, 60, 89
12, 8760, Note_on_c, 12, 60, 0
12, 8760, Note_on_c, 12, 50, 104
12, 8790, Note_on_c, 12, 50, 0
12, 8790, Note_on_c, 12, 54, 93
12, 8820, Note_on_c, 12, 54, 0
12, 8820, Note_on_c, 12, 57, 84
12, 8850, Note_on_c, 12, 57, 0
12, 8850, Note_on_c, 12, 62, 94
12, 8880, Note_on_c, 12, 62, 0
12, 8880, Note_on_c, 12, 50, 101
12, 8910, Note_on_c, 12, 50, 0
12, 8910, Note_on_c, 12, 54, 94
12, 8940, Note_on_c, 12, 54, 0
12, 8940, Note_on_c, 12, 57, 105
12, 8970, Note_on_c, 12, 57, 0
12, 8970, Note_on_c, 12, 62, 95
12, 9000, Note_on_c, 12, 62, 0
12, 9000, Note_on_c, 12, 50, 101
12, 9030, Note_on_c, 12, 50, 0
12, 9030, Note_on_c, 12, 54, 89
12, 9060, Note_on_c, 12, 54, 0
12, 9060, Note_on_c, 12, 57, 104
12, 9090, Note_on_c, 12, 57, 0
12, 9090, Note_on_c, 12, 62, 93
12, 9120, Note_on_c, 12, 62, 0
12, 9120, Note_on_c, 12, 50, 104
12, 9120, Note_on_c, 12, 53, 58
12, 9150, Note_on_c, 12, 53, 0
12, 9150, Note_on_c, 12, 50, 0
12, 9150, Note_on_c, 12, 55, 101
12, 9180, Note_on_c, 12, 55, 0
12, 9180, Note_on_c, 12, 59, 99
12, 9210, Note_on_c, 12, 59, 0
12, 9210, Note_on_c, 12, 62, 94
12, 9240, Note_on_c, 12, 62, 0
12, 9240, Note_on_c, 12, 55, 94
12, 9270, Note_on_c, 12, 55, 0
12, 9270, Note_on_c, 12, 59, 101
12, 9300, Note_on_c, 12, 59, 0
12, 9300, Note_on_c, 12, 64, 104
12, 9330, Note_on_c, 12, 64, 0
12, 9330, Note_on_c, 12, 67, 86
12, 9360, Note_on_c, 12, 67, 0
12, 9360, Note_on_c, 12, 60, 89
12, 9390, Note_on_c, 12, 60, 0
12, 9390, Note_on_c, 12, 64, 89
12, 9420, Note_on_c, 12, 64, 0
12, 9420, Note_on_c, 12, 60, 90
12, 9450, Note_on_c, 12, 60, 0
12, 9450, Note_on_c, 12, 59, 95
12, 9480, Note_on_c, 12, 59, 0
12, 9480, Note_on_c, 12, 57, 99
12, 9510, Note_on_c, 12, 57, 0
12, 9510, Note_on_c, 12, 59, 95
12, 9540, Note_on_c, 12, 59, 0
12, 9540, Note_on_c, 12, 60, 89
12, 9570, Note_on_c, 12, 60, 0
12, 9570, Note_on_c, 12, 57, 98
12, 9600, Note_on_c, 12, 57, 0
12, 9600, Note_on_c, 12, 59, 94
12, 9630, Note_on_c, 12, 59, 0
12, 9630, Note_on_c, 12, 50, 104
12, 9660, Note_on_c, 12, 50, 0
12, 9660, Note_on_c, 12, 52, 99
12, 9690, Note_on_c, 12, 52, 0
12, 9690, Note_on_c, 12, 54, 94
12, 9720, Note_on_c, 12, 54, 0
12, 9720, Note_on_c, 12, 55, 94
12, 9750, Note_on_c, 12, 55, 0
12, 9750, Note_on_c, 12, 57, 95
12, 9780, Note_on_c, 12, 57, 0
12, 9780, Note_on_c, 12, 59, 90
12, 9810, Note_on_c, 12, 59, 0
12, 9810, Note_on_c, 12, 55, 95
12, 9840, Note_on_c, 12, 55, 0
12, 9840, Note_on_c, 12, 52, 99
12, 9870, Note_on_c, 12, 52, 0
12, 9870, Note_on_c, 12, 55, 95
12, 9900, Note_on_c, 12, 55, 0
12, 9900, Note_on_c, 12, 54, 89
12, 9930, Note_on_c, 12, 54, 0
12, 9930, Note_on_c, 12, 57, 98
12, 9960, Note_on_c, 12, 57, 0
12, 9960, Note_on_c, 12, 55, 95
12, 9990, Note_on_c, 12, 55, 0
12, 9990, Note_on_c, 12, 54, 94
12, 10020, Note_on_c, 12, 54, 0
12, 10020, Note_on_c, 12, 52, 105
12, 10050, Note_on_c, 12, 52, 0
12, 10050, Note_on_c, 12, 50, 105
12, 10080, Note_on_c, 12, 50, 0
12, 10080, Note_on_c, 12, 48, 105
12, 10110, Note_on_c, 12, 48, 0
12, 10110, Note_on_c, 12, 59, 99
12, 10140, Note_on_c, 12, 59, 0
12, 10140, Note_on_c, 12, 60, 90
12, 10170, Note_on_c, 12, 60, 0
12, 10170, Note_on_c, 12, 62, 89
12, 10200, Note_on_c, 12, 62, 0
12, 10200, Note_on_c, 12, 59, 99
12, 10230, Note_on_c, 12, 59, 0
12, 10230, Note_on_c, 12, 55, 94
12, 10260, Note_on_c, 12, 55, 0
12, 10260, Note_on_c, 12, 57, 101
12, 10290, Note_on_c, 12, 57, 0
12, 10290, Note_on_c, 12, 59, 99
12, 10320, Note_on_c, 12, 59, 0
12, 10320, Note_on_c, 12, 60, 89
12, 10350, Note_on_c, 12, 60, 0
12, 10350, Note_on_c, 12, 57, 104
12, 10380, Note_on_c, 12, 57, 0
12, 10380, Note_on_c, 12, 59, 99
12, 10410, Note_on_c, 12, 59, 0
12, 10410, Note_on_c, 12, 60, 89
12, 10440, Note_on_c, 12, 60, 0
12, 10440, Note_on_c, 12, 62, 99
12, 10500, Note_on_c, 12, 62, 0
12, 10500, Note_on_c, 12, 62, 98
12, 10560, Note_on_c, 12, 62, 0
12, 11520, Note_on_c, 12, 55, 73
12, 11550, Note_on_c, 12, 55, 0
12, 11550, Note_on_c, 12, 59, 86
12, 11580, Note_on_c, 12, 59, 0
12, 11580, Note_on_c, 12, 61, 76
12, 11610, Note_on_c, 12, 61, 0
12, 11610, Note_on_c, 12, 63, 71
12, 11640, Note_on_c, 12, 63, 0
12, 11640, Note_on_c, 12, 64, 73
12, 11670, Note_on_c, 12, 64, 0
12, 11670, Note_on_c, 12, 57, 86
12, 11700, Note_on_c, 12, 57, 0
12, 11700, Note_on_c, 12, 59, 80
12, 11730, Note_on_c, 12, 59, 0
12, 11730, Note_on_c, 12, 55, 69
12, 11760, Note_on_c, 12, 55, 0
12, 11760, Note_on_c, 12, 57, 93
12, 11790, Note_on_c, 12, 57, 0
12, 11790, Note_on_c, 12, 63, 78
12, 11820, Note_on_c, 12, 63, 0
12, 11820, Note_on_c, 12, 64, 84
12, 11850, Note_on_c, 12, 64, 0
12, 11850, Note_on_c, 12, 66, 74
12, 11880, Note_on_c, 12, 66, 0
12, 11880, Note_on_c, 12, 55, 73
12, 11910, Note_on_c, 12, 55, 0
12, 11910, Note_on_c, 12, 55, 82
12, 11940, Note_on_c, 12, 55, 0
12, 11940, Note_on_c, 12, 67, 64
12, 11970, Note_on_c, 12, 67, 0
12, 11970, Note_on_c, 12, 67, 74
12, 12000, Note_on_c, 12, 67, 0
12, 12000, Note_on_c, 12, 66, 76
12, 12030, Note_on_c, 12, 66, 0
12, 12030, Note_on_c, 12, 66, 76
12, 12060, Note_on_c, 12, 66, 0
12, 12060, Note_on_c, 12, 66, 74
12, 12090, Note_on_c, 12, 66, 0
12, 12090, Note_on_c, 12, 66, 70
12, 12120, Note_on_c, 12, 66, 0
12, 12120, Note_on_c, 12, 64, 84
12, 12150, Note_on_c, 12, 64, 0
12, 12150, Note_on_c, 12, 55, 74
12, 12180, Note_on_c, 12, 55, 0
12, 12180, Note_on_c, 12, 57, 84
12, 12210, Note_on_c, 12, 57, 0
12, 12210, Note_on_c, 12, 59, 81
12, 12240, Note_on_c, 12, 59, 0
12, 12240, Note_on_c, 12, 60, 69
12, 12270, Note_on_c, 12, 60, 0
12, 12270, Note_on_c, 12, 57, 89
12, 12300, Note_on_c, 12, 57, 0
12, 12300, Note_on_c, 12, 59, 84
12, 12330, Note_on_c, 12, 59, 0
12, 12330, Note_on_c, 12, 60, 74
12, 12360, Note_on_c, 12, 60, 0
12, 12360, Note_on_c, 12, 54, 80
12, 12390, Note_on_c, 12, 54, 0
12, 12390, Note_on_c, 12, 54, 85
12, 12420, Note_on_c, 12, 54, 0
12, 12420, Note_on_c, 12, 57, 95
12, 12450, Note_on_c, 12, 57, 0
12, 12450, Note_on_c, 12, 57, 89
12, 12480, Note_on_c, 12, 57, 0
12, 13440, Note_on_c, 12, 57, 99
12, 13470, Note_on_c, 12, 57, 0
12, 13470, Note_on_c, 12, 61, 64
12, 13500, Note_on_c, 12, 61, 0
12, 13500, Note_on_c, 12, 59, 89
12, 13530, Note_on_c, 12, 59, 0
12, 13530, Note_on_c, 12, 57, 99
12, 13560, Note_on_c, 12, 57, 0
12, 13560, Note_on_c, 12, 56, 85
12, 13590, Note_on_c, 12, 56, 0
12, 13590, Note_on_c, 12, 52, 93
12, 13620, Note_on_c, 12, 52, 0
12, 13620, Note_on_c, 12, 54, 84
12, 13650, Note_on_c, 12, 54, 0
12, 13650, Note_on_c, 12, 56, 89
12, 13680, Note_on_c, 12, 56, 0
12, 13920, Note_on_c, 12, 57, 99
12, 13950, Note_on_c, 12, 57, 0
12, 13950, Note_on_c, 12, 61, 69
12, 13980, Note_on_c, 12, 61, 0
12, 13980, Note_on_c, 12, 59, 94
12, 14010, Note_on_c, 12, 59, 0
12, 14010, Note_on_c, 12, 57, 99
12, 14040, Note_on_c, 12, 57, 0
12, 14040, Note_on_c, 12, 56, 93
12, 14070, Note_on_c, 12, 56, 0
12, 14070, Note_on_c, 12, 52, 90
12, 14100, Note_on_c, 12, 52, 0
12, 14100, Note_on_c, 12, 54, 84
12, 14130, Note_on_c, 12, 54, 0
12, 14130, Note_on_c, 12, 56, 93
12, 14160, Note_on_c, 12, 56, 0
12, 14280, Program_c, 12, 45
12, 14400, Note_on_c, 12, 57, 89
12, 14460, Note_on_c, 12, 57, 0
12, 16080, Note_on_c, 12, 57, 69
12, 16200, Note_on_c, 12, 57, 0
12, 16440, Note_on_c, 12, 57, 66
12, 16560, Note_on_c, 12, 57, 0
12, 16560, Note_on_c, 12, 57, 77
12, 16680, Note_on_c, 12, 57, 0
12, 16920, Note_on_c, 12, 57, 72
12, 17040, Note_on_c, 12, 57, 0
12, 17040, Note_on_c, 12, 57, 69
12, 17160, Note_on_c, 12, 57, 0
12, 17280, Note_on_c, 12, 57, 67
12, 17400, Note_on_c, 12, 57, 0
12, 17520, Note_on_c, 12, 57, 74
12, 17640, Note_on_c, 12, 57, 0
12, 18120, Note_on_c, 12, 57, 84
12, 18240, Note_on_c, 12, 57, 0
12, 18960, Note_on_c, 12, 50, 70
12, 19080, Note_on_c, 12, 50, 0
12, 23400, Program_c, 12, 48
12, 23520, Note_on_c, 12, 57, 43
12, 24120, Note_on_c, 12, 57, 0
12, 24120, Note_on_c, 12, 54, 40
12, 24180, Note_on_c, 12, 54, 0
12, 24180, Note_on_c, 12, 55, 37
12, 24240, Note_on_c, 12, 55, 0
12, 24240, Note_on_c, 12, 54, 43
12, 24360, Note_on_c, 12, 54, 0
12, 24360, Note_on_c, 12, 52, 50
12, 24600, Note_on_c, 12, 52, 0
12, 24600, Note_on_c, 12, 54, 45
12, 24660, Note_on_c, 12, 54, 0
12, 24660, Note_on_c, 12, 55, 51
12, 24720, Note_on_c, 12, 55, 0
12, 24720, Note_on_c, 12, 57, 43
12, 24840, Note_on_c, 12, 57, 0
12, 24840, Note_on_c, 12, 50, 50
12, 24960, Note_on_c, 12, 50, 0
12, 24960, Note_on_c, 12, 52, 43
12, 25080, Note_on_c, 12, 52, 0
12, 25080, Note_on_c, 12, 54, 40
12, 25200, Note_on_c, 12, 54, 0
12, 25200, Control_c, 12, 7, 99
12, 25200, Note_on_c, 12, 55, 55
12, 25210, Control_c, 12, 7, 100
12, 25220, Control_c, 12, 7, 101
12, 25230, Control_c, 12, 7, 102
12, 25240, Control_c, 12, 7, 103
12, 25250, Control_c, 12, 7, 104
12, 25260, Control_c, 12, 7, 106
12, 25270, Control_c, 12, 7, 107
12, 25280, Control_c, 12, 7, 108
12, 25290, Control_c, 12, 7, 109
12, 25300, Control_c, 12, 7, 110
12, 25310, Control_c, 12, 7, 111
12, 25320, Control_c, 12, 7, 113
12, 25330, Control_c, 12, 7, 114
12, 25340, Control_c, 12, 7, 115
12, 25350, Control_c, 12, 7, 116
12, 25360, Control_c, 12, 7, 117
12, 25370, Control_c, 12, 7, 118
12, 25380, Control_c, 12, 7, 120
12, 25390, Control_c, 12, 7, 121
12, 25400, Control_c, 12, 7, 122
12, 25410, Control_c, 12, 7, 123
12, 25420, Control_c, 12, 7, 124
12, 25430, Control_c, 12, 7, 125
12, 25440, Control_c, 12, 7, 127
12, 25450, Control_c, 12, 7, 126
12, 25460, Control_c, 12, 7, 125
12, 25470, Control_c, 12, 7, 124
12, 25480, Control_c, 12, 7, 123
12, 25490, Control_c, 12, 7, 122
12, 25500, Control_c, 12, 7, 121
12, 25510, Control_c, 12, 7, 120
12, 25520, Control_c, 12, 7, 118
12, 25530, Control_c, 12, 7, 117
12, 25540, Control_c, 12, 7, 116
12, 25550, Control_c, 12, 7, 115
12, 25560, Control_c, 12, 7, 114
12, 25570, Control_c, 12, 7, 113
12, 25580, Control_c, 12, 7, 112
12, 25590, Control_c, 12, 7, 111
12, 25600, Control_c, 12, 7, 109
12, 25610, Control_c, 12, 7, 108
12, 25620, Control_c, 12, 7, 107
12, 25630, Control_c, 12, 7, 106
12, 25640, Control_c, 12, 7, 105
12, 25650, Control_c, 12, 7, 104
12, 25660, Control_c, 12, 7, 103
12, 25670, Control_c, 12, 7, 102
12, 25680, Note_on_c, 12, 55, 0
12, 25680, Control_c, 12, 7, 100
12, 25680, Note_on_c, 12, 54, 41
12, 25800, Note_on_c, 12, 54, 0
12, 25800, Note_on_c, 12, 55, 53
12, 26160, Note_on_c, 12, 55, 0
12, 26160, Note_on_c, 12, 54, 86
12, 26220, Note_on_c, 12, 54, 0
12, 26640, Note_on_c, 12, 57, 105
12, 26700, Note_on_c, 12, 57, 0
12, 27120, Note_on_c, 12, 57, 99
12, 27180, Note_on_c, 12, 57, 0
12, 27600, Note_on_c, 12, 57, 105
12, 27660, Note_on_c, 12, 57, 0
12, 28080, Note_on_c, 12, 57, 94
12, 28140, Note_on_c, 12, 57, 0
12, 28320, Note_on_c, 12, 54, 89
12, 28380, Note_on_c, 12, 54, 0
12, 28560, Note_on_c, 12, 54, 76
12, 28620, Note_on_c, 12, 54, 0
12, 28680, Note_on_c, 12, 62, 63
12, 28740, Note_on_c, 12, 62, 0
12, 28800, Note_on_c, 12, 62, 65
12, 28860, Note_on_c, 12, 62, 0
12, 28920, Note_on_c, 12, 59, 67
12, 28980, Note_on_c, 12, 59, 0
12, 29040, Note_on_c, 12, 59, 50
12, 29100, Note_on_c, 12, 59, 0
12, 29160, Note_on_c, 12, 59, 64
12, 29220, Note_on_c, 12, 59, 0
12, 29280, Note_on_c, 12, 57, 71
12, 29340, Note_on_c, 12, 57, 0
12, 29520, Note_on_c, 12, 57, 38
12, 29580, Note_on_c, 12, 57, 0
12, 30000, Note_on_c, 12, 57, 40
12, 30060, Note_on_c, 12, 57, 0
12, 30480, Note_on_c, 12, 57, 29
12, 30540, Note_on_c, 12, 57, 0
12, 30960, Note_on_c, 12, 57, 39
12, 31020, Note_on_c, 12, 57, 0
12, 31440, Note_on_c, 12, 55, 39
12, 31500, Note_on_c, 12, 55, 0
12, 31920, Note_on_c, 12, 55, 95
12, 31980, Note_on_c, 12, 55, 0
12, 34020, Note_on_c, 12, 55, 57
12, 34050, Note_on_c, 12, 55, 0
12, 34050, Note_on_c, 12, 55, 59
12, 34080, Note_on_c, 12, 55, 0
12, 34080, Note_on_c, 12, 55, 56
12, 34140, Note_on_c, 12, 55, 0
12, 34500, Note_on_c, 12, 55, 46
12, 34530, Note_on_c, 12, 55, 0
12, 34530, Note_on_c, 12, 55, 55
12, 34560, Note_on_c, 12, 55, 0
12, 34560, Note_on_c, 12, 55, 65
12, 34620, Note_on_c, 12, 55, 0
12, 35940, Note_on_c, 12, 55, 89
12, 35970, Note_on_c, 12, 55, 0
12, 35970, Note_on_c, 12, 55, 84
12, 36000, Note_on_c, 12, 55, 0
12, 36000, Note_on_c, 12, 55, 84
12, 36060, Note_on_c, 12, 55, 0
12, 36420, Note_on_c, 12, 55, 80
12, 36450, Note_on_c, 12, 55, 0
12, 36450, Note_on_c, 12, 55, 80
12, 36480, Note_on_c, 12, 55, 0
12, 36480, Note_on_c, 12, 55, 85
12, 36540, Note_on_c, 12, 55, 0
12, 37200, Note_on_c, 12, 55, 49
12, 38040, Note_on_c, 12, 55, 0
12, 38040, Note_on_c, 12, 55, 35
12, 38280, Note_on_c, 12, 55, 0
12, 40560, Control_c, 12, 0, 0
12, 40560, Control_c, 12, 32, 0
12, 40560, Program_c, 12, 48
12, 40560, Control_c, 12, 7, 100
12, 40560, Control_c, 12, 10, 67
12, 40560, Note_on_c, 12, 52, 43
12, 40680, Note_on_c, 12, 52, 0
12, 40740, Note_on_c, 12, 52, 52
12, 40770, Note_on_c, 12, 52, 0
12, 40770, Note_on_c, 12, 52, 50
12, 40800, Note_on_c, 12, 52, 0
12, 40800, Note_on_c, 12, 52, 44
12, 40920, Note_on_c, 12, 52, 0
12, 40980, Note_on_c, 12, 52, 50
12, 41010, Note_on_c, 12, 52, 0
12, 41010, Note_on_c, 12, 52, 44
12, 41040, Note_on_c, 12, 52, 0
12, 41040, Note_on_c, 12, 52, 45
12, 41100, Note_on_c, 12, 52, 0
12, 41160, Note_on_c, 12, 52, 44
12, 41190, Note_on_c, 12, 52, 0
12, 41220, Note_on_c, 12, 52, 58
12, 41250, Note_on_c, 12, 52, 0
12, 41280, Note_on_c, 12, 52, 43
12, 41340, Note_on_c, 12, 52, 0
12, 41520, Note_on_c, 12, 52, 50
12, 41550, Note_on_c, 12, 52, 0
12, 41580, Note_on_c, 12, 52, 56
12, 41595, Note_on_c, 12, 52, 0
12, 41610, Note_on_c, 12, 52, 43
12, 41625, Note_on_c, 12, 52, 0
12, 41640, Note_on_c, 12, 52, 43
12, 41670, Note_on_c, 12, 52, 0
12, 41700, Note_on_c, 12, 52, 40
12, 41715, Note_on_c, 12, 52, 0
12, 41730, Note_on_c, 12, 52, 50
12, 41745, Note_on_c, 12, 52, 0
12, 41760, Note_on_c, 12, 54, 40
12, 41820, Note_on_c, 12, 54, 0
12, 42000, Note_on_c, 12, 54, 33
12, 42030, Note_on_c, 12, 54, 0
12, 42060, Note_on_c, 12, 52, 40
12, 42075, Note_on_c, 12, 52, 0
12, 42090, Note_on_c, 12, 54, 43
12, 42105, Note_on_c, 12, 54, 0
12, 42120, Note_on_c, 12, 54, 35
12, 42150, Note_on_c, 12, 54, 0
12, 42180, Note_on_c, 12, 55, 43
12, 42195, Note_on_c, 12, 55, 0
12, 42210, Note_on_c, 12, 57, 44
12, 42225, Note_on_c, 12, 57, 0
12, 42240, Note_on_c, 12, 55, 43
12, 42270, Note_on_c, 12, 55, 0
12, 42300, Note_on_c, 12, 55, 43
12, 42315, Note_on_c, 12, 55, 0
12, 42330, Note_on_c, 12, 55, 40
12, 42345, Note_on_c, 12, 55, 0
12, 42360, Note_on_c, 12, 55, 41
12, 42390, Note_on_c, 12, 55, 0
12, 42480, Note_on_c, 12, 52, 47
12, 42510, Note_on_c, 12, 52, 0
12, 42600, Note_on_c, 12, 54, 61
12, 42630, Note_on_c, 12, 54, 0
12, 42720, Note_on_c, 12, 50, 45
12, 42960, Note_on_c, 12, 50, 0
12, 45360, Note_on_c, 12, 50, 43
12, 45780, Note_on_c, 12, 50, 0
12, 45780, Note_on_c, 12, 52, 53
12, 45810, Note_on_c, 12, 52, 0
12, 45810, Note_on_c, 12, 54, 44
12, 45840, Note_on_c, 12, 54, 0
12, 45840, Note_on_c, 12, 55, 43
12, 45960, Note_on_c, 12, 55, 0
12, 45960, Note_on_c, 12, 54, 44
12, 46020, Note_on_c, 12, 54, 0
12, 46020, Note_on_c, 12, 55, 59
12, 46050, Note_on_c, 12, 55, 0
12, 46050, Note_on_c, 12, 57, 67
12, 46080, Note_on_c, 12, 57, 0
12, 46080, Note_on_c, 12, 59, 53
12, 46140, Note_on_c, 12, 59, 0
12, 46140, Note_on_c, 12, 55, 62
12, 46200, Note_on_c, 12, 55, 0
12, 46200, Note_on_c, 12, 54, 52
12, 46260, Note_on_c, 12, 54, 0
12, 47280, Note_on_c, 12, 55, 39
12, 47340, Note_on_c, 12, 55, 0
12, 47340, Note_on_c, 12, 55, 43
12, 47400, Note_on_c, 12, 55, 0
12, 47400, Note_on_c, 12, 54, 38
12, 47460, Note_on_c, 12, 54, 0
12, 47640, Note_on_c, 12, 55, 43
12, 47700, Note_on_c, 12, 55, 0
12, 47700, Note_on_c, 12, 54, 57
12, 47760, Note_on_c, 12, 54, 0
12, 48000, Note_on_c, 12, 48, 95
12, 48030, Note_on_c, 12, 48, 0
12, 48030, Note_on_c, 12, 52, 101
12, 48060, Note_on_c, 12, 52, 0
12, 48060, Note_on_c, 12, 55, 95
12, 48090, Note_on_c, 12, 55, 0
12, 48090, Note_on_c, 12, 60, 94
12, 48120, Note_on_c, 12, 60, 0
12, 48120, Note_on_c, 12, 48, 104
12, 48150, Note_on_c, 12, 48, 0
12, 48150, Note_on_c, 12, 60, 89
12, 48180, Note_on_c, 12, 60, 0
12, 48180, Note_on_c, 12, 48, 99
12, 48210, Note_on_c, 12, 48, 0
12, 48210, Note_on_c, 12, 60, 94
12, 48240, Note_on_c, 12, 60, 0
12, 48240, Note_on_c, 12, 48, 95
12, 48270, Note_on_c, 12, 48, 0
12, 48270, Note_on_c, 12, 52, 99
12, 48300, Note_on_c, 12, 52, 0
12, 48300, Note_on_c, 12, 55, 94
12, 48330, Note_on_c, 12, 55, 0
12, 48330, Note_on_c, 12, 60, 94
12, 48360, Note_on_c, 12, 60, 0
12, 48360, Note_on_c, 12, 48, 104
12, 48390, Note_on_c, 12, 48, 0
12, 48390, Note_on_c, 12, 60, 85
12, 48420, Note_on_c, 12, 60, 0
12, 48420, Note_on_c, 12, 48, 99
12, 48450, Note_on_c, 12, 48, 0
12, 48450, Note_on_c, 12, 60, 94
12, 48480, Note_on_c, 12, 60, 0
12, 48480, Note_on_c, 12, 48, 101
12, 48510, Note_on_c, 12, 48, 0
12, 48510, Note_on_c, 12, 52, 98
12, 48540, Note_on_c, 12, 52, 0
12, 48540, Note_on_c, 12, 55, 94
12, 48570, Note_on_c, 12, 55, 0
12, 48570, Note_on_c, 12, 60, 86
12, 48600, Note_on_c, 12, 60, 0
12, 48600, Note_on_c, 12, 48, 99
12, 48630, Note_on_c, 12, 48, 0
12, 48630, Note_on_c, 12, 60, 86
12, 48660, Note_on_c, 12, 60, 0
12, 48660, Note_on_c, 12, 48, 99
12, 48690, Note_on_c, 12, 48, 0
12, 48690, Note_on_c, 12, 60, 89
12, 48720, Note_on_c, 12, 60, 0
12, 48720, Note_on_c, 12, 48, 101
12, 48750, Note_on_c, 12, 48, 0
12, 48750, Note_on_c, 12, 52, 99
12, 48780, Note_on_c, 12, 52, 0
12, 48780, Note_on_c, 12, 55, 95
12, 48810, Note_on_c, 12, 55, 0
12, 48810, Note_on_c, 12, 60, 94
12, 48840, Note_on_c, 12, 60, 0
12, 48840, Note_on_c, 12, 48, 93
12, 48870, Note_on_c, 12, 48, 0
12, 48870, Note_on_c, 12, 52, 104
12, 48900, Note_on_c, 12, 52, 0
12, 48900, Note_on_c, 12, 55, 95
12, 48930, Note_on_c, 12, 55, 0
12, 48930, Note_on_c, 12, 60, 95
12, 48960, Note_on_c, 12, 60, 0
12, 48960, Note_on_c, 12, 48, 94
12, 48990, Note_on_c, 12, 48, 0
12, 48990, Note_on_c, 12, 52, 105
12, 49020, Note_on_c, 12, 52, 0
12, 49020, Note_on_c, 12, 55, 90
12, 49050, Note_on_c, 12, 55, 0
12, 49050, Note_on_c, 12, 60, 93
12, 49080, Note_on_c, 12, 60, 0
12, 49080, Note_on_c, 12, 48, 95
12, 49110, Note_on_c, 12, 48, 0
12, 49110, Note_on_c, 12, 52, 104
12, 49140, Note_on_c, 12, 52, 0
12, 49140, Note_on_c, 12, 55, 90
12, 49170, Note_on_c, 12, 55, 0
12, 49170, Note_on_c, 12, 60, 94
12, 49200, Note_on_c, 12, 60, 0
12, 49200, Note_on_c, 12, 48, 98
12, 49230, Note_on_c, 12, 48, 0
12, 49230, Note_on_c, 12, 54, 93
12, 49260, Note_on_c, 12, 54, 0
12, 49260, Note_on_c, 12, 57, 105
12, 49290, Note_on_c, 12, 57, 0
12, 49290, Note_on_c, 12, 60, 89
12, 49320, Note_on_c, 12, 60, 0
12, 49320, Note_on_c, 12, 50, 104
12, 49350, Note_on_c, 12, 50, 0
12, 49350, Note_on_c, 12, 54, 93
12, 49380, Note_on_c, 12, 54, 0
12, 49380, Note_on_c, 12, 57, 84
12, 49410, Note_on_c, 12, 57, 0
12, 49410, Note_on_c, 12, 62, 94
12, 49440, Note_on_c, 12, 62, 0
12, 49440, Note_on_c, 12, 50, 101
12, 49470, Note_on_c, 12, 50, 0
12, 49470, Note_on_c, 12, 54, 94
12, 49500, Note_on_c, 12, 54, 0
12, 49500, Note_on_c, 12, 57, 105
12, 49530, Note_on_c, 12, 57, 0
12, 49530, Note_on_c, 12, 62, 95
12, 49560, Note_on_c, 12, 62, 0
12, 49560, Note_on_c, 12, 50, 101
12, 49590, Note_on_c, 12, 50, 0
12, 49590, Note_on_c, 12, 54, 89
12, 49620, Note_on_c, 12, 54, 0
12, 49620, Note_on_c, 12, 57, 104
12, 49650, Note_on_c, 12, 57, 0
12, 49650, Note_on_c, 12, 62, 93
12, 49680, Note_on_c, 12, 62, 0
12, 49680, Note_on_c, 12, 50, 104
12, 49680, Note_on_c, 12, 53, 58
12, 49710, Note_on_c, 12, 53, 0
12, 49710, Note_on_c, 12, 50, 0
12, 49710, Note_on_c, 12, 55, 101
12, 49740, Note_on_c, 12, 55, 0
12, 49740, Note_on_c, 12, 59, 99
12, 49770, Note_on_c, 12, 59, 0
12, 49770, Note_on_c, 12, 62, 94
12, 49800, Note_on_c, 12, 62, 0
12, 49800, Note_on_c, 12, 55, 94
12, 49830, Note_on_c, 12, 55, 0
12, 49830, Note_on_c, 12, 59, 101
12, 49860, Note_on_c, 12, 59, 0
12, 49860, Note_on_c, 12, 64, 104
12, 49890, Note_on_c, 12, 64, 0
12, 49890, Note_on_c, 12, 67, 86
12, 49920, Note_on_c, 12, 67, 0
12, 49920, Note_on_c, 12, 60, 89
12, 49950, Note_on_c, 12, 60, 0
12, 49950, Note_on_c, 12, 64, 89
12, 49980, Note_on_c, 12, 64, 0
12, 49980, Note_on_c, 12, 60, 90
12, 50010, Note_on_c, 12, 60, 0
12, 50010, Note_on_c, 12, 59, 95
12, 50040, Note_on_c, 12, 59, 0
12, 50040, Note_on_c, 12, 57, 99
12, 50070, Note_on_c, 12, 57, 0
12, 50070, Note_on_c, 12, 59, 95
12, 50100, Note_on_c, 12, 59, 0
12, 50100, Note_on_c, 12, 60, 89
12, 50130, Note_on_c, 12, 60, 0
12, 50130, Note_on_c, 12, 57, 98
12, 50160, Note_on_c, 12, 57, 0
12, 50160, Note_on_c, 12, 59, 94
12, 50190, Note_on_c, 12, 59, 0
12, 50190, Note_on_c, 12, 50, 104
12, 50220, Note_on_c, 12, 50, 0
12, 50220, Note_on_c, 12, 52, 99
12, 50250, Note_on_c, 12, 52, 0
12, 50250, Note_on_c, 12, 54, 94
12, 50280, Note_on_c, 12, 54, 0
12, 50280, Note_on_c, 12, 55, 94
12, 50310, Note_on_c, 12, 55, 0
12, 50310, Note_on_c, 12, 57, 95
12, 50340, Note_on_c, 12, 57, 0
12, 50340, Note_on_c, 12, 59, 90
12, 50370, Note_on_c, 12, 59, 0
12, 50370, Note_on_c, 12, 55, 95
12, 50400, Note_on_c, 12, 55, 0
12, 50400, Note_on_c, 12, 52, 99
12, 50430, Note_on_c, 12, 52, 0
12, 50430, Note_on_c, 12, 55, 95
12, 50460, Note_on_c, 12, 55, 0
12, 50460, Note_on_c, 12, 54, 89
12, 50490, Note_on_c, 12, 54, 0
12, 50490, Note_on_c, 12, 57, 98
12, 50520, Note_on_c, 12, 57, 0
12, 50520, Note_on_c, 12, 55, 95
12, 50550, Note_on_c, 12, 55, 0
12, 50550, Note_on_c, 12, 54, 94
12, 50580, Note_on_c, 12, 54, 0
12, 50580, Note_on_c, 12, 52, 105
12, 50610, Note_on_c, 12, 52, 0
12, 50610, Note_on_c, 12, 50, 105
12, 50640, Note_on_c, 12, 50, 0
12, 50640, Note_on_c, 12, 48, 105
12, 50670, Note_on_c, 12, 48, 0
12, 50670, Note_on_c, 12, 59, 99
12, 50700, Note_on_c, 12, 59, 0
12, 50700, Note_on_c, 12, 60, 90
12, 50730, Note_on_c, 12, 60, 0
12, 50730, Note_on_c, 12, 62, 89
12, 50760, Note_on_c, 12, 62, 0
12, 50760, Note_on_c, 12, 59, 99
12, 50790, Note_on_c, 12, 59, 0
12, 50790, Note_on_c, 12, 55, 94
12, 50820, Note_on_c, 12, 55, 0
12, 50820, Note_on_c, 12, 57, 101
12, 50850, Note_on_c, 12, 57, 0
12, 50850, Note_on_c, 12, 59, 99
12, 50880, Note_on_c, 12, 59, 0
12, 50880, Note_on_c, 12, 60, 89
12, 50910, Note_on_c, 12, 60, 0
12, 50910, Note_on_c, 12, 57, 104
12, 50940, Note_on_c, 12, 57, 0
12, 50940, Note_on_c, 12, 59, 99
12, 50970, Note_on_c, 12, 59, 0
12, 50970, Note_on_c, 12, 60, 89
12, 51000, Note_on_c, 12, 60, 0
12, 51000, Note_on_c, 12, 62, 99
12, 51060, Note_on_c, 12, 62, 0
12, 51060, Note_on_c, 12, 62, 98
12, 51120, Note_on_c, 12, 62, 0
12, 52080, Note_on_c, 12, 58, 84
12, 52110, Note_on_c, 12, 58, 0
12, 52110, Note_on_c, 12, 67, 74
12, 52140, Note_on_c, 12, 67, 0
12, 52140, Note_on_c, 12, 67, 77
12, 52170, Note_on_c, 12, 67, 0
12, 52170, Note_on_c, 12, 67, 81
12, 52200, Note_on_c, 12, 67, 0
12, 52200, Note_on_c, 12, 67, 82
12, 52230, Note_on_c, 12, 67, 0
12, 52230, Note_on_c, 12, 67, 78
12, 52260, Note_on_c, 12, 67, 0
12, 52260, Note_on_c, 12, 67, 80
12, 52290, Note_on_c, 12, 67, 0
12, 52290, Note_on_c, 12, 67, 76
12, 52320, Note_on_c, 12, 67, 0
12, 52320, Note_on_c, 12, 67, 81
12, 52350, Note_on_c, 12, 67, 0
12, 52350, Note_on_c, 12, 65, 84
12, 52380, Note_on_c, 12, 65, 0
12, 52380, Note_on_c, 12, 65, 77
12, 52410, Note_on_c, 12, 65, 0
12, 52410, Note_on_c, 12, 65, 78
12, 52440, Note_on_c, 12, 65, 0
12, 52440, Note_on_c, 12, 65, 84
12, 52470, Note_on_c, 12, 65, 0
12, 52470, Note_on_c, 12, 63, 80
12, 52500, Note_on_c, 12, 63, 0
12, 52500, Note_on_c, 12, 63, 82
12, 52530, Note_on_c, 12, 63, 0
12, 52530, Note_on_c, 12, 63, 84
12, 52560, Note_on_c, 12, 63, 0
12, 52560, Note_on_c, 12, 62, 73
12, 52590, Note_on_c, 12, 62, 0
12, 52590, Note_on_c, 12, 62, 76
12, 52620, Note_on_c, 12, 62, 0
12, 52620, Note_on_c, 12, 58, 84
12, 52650, Note_on_c, 12, 58, 0
12, 52650, Note_on_c, 12, 58, 80
12, 52680, Note_on_c, 12, 58, 0
12, 52680, Note_on_c, 12, 58, 84
12, 52710, Note_on_c, 12, 58, 0
12, 52710, Note_on_c, 12, 51, 78
12, 52740, Note_on_c, 12, 51, 0
12, 52740, Note_on_c, 12, 53, 80
12, 52770, Note_on_c, 12, 53, 0
12, 52770, Note_on_c, 12, 55, 74
12, 52800, Note_on_c, 12, 55, 0
12, 52800, Note_on_c, 12, 56, 84
12, 52830, Note_on_c, 12, 56, 0
12, 52830, Note_on_c, 12, 53, 74
12, 52860, Note_on_c, 12, 53, 0
12, 52860, Note_on_c, 12, 53, 84
12, 52890, Note_on_c, 12, 53, 0
12, 52890, Note_on_c, 12, 53, 82
12, 52920, Note_on_c, 12, 53, 0
12, 52920, Note_on_c, 12, 53, 84
12, 52950, Note_on_c, 12, 53, 0
12, 52950, Note_on_c, 12, 56, 84
12, 52980, Note_on_c, 12, 56, 0
12, 52980, Note_on_c, 12, 56, 93
12, 53010, Note_on_c, 12, 56, 0
12, 53010, Note_on_c, 12, 56, 94
12, 53040, Note_on_c, 12, 56, 0
12, 53940, Note_on_c, 12, 53, 65
12, 54000, Note_on_c, 12, 53, 0
12, 54000, Note_on_c, 12, 51, 98
12, 54060, Note_on_c, 12, 51, 0
12, 54060, Note_on_c, 12, 51, 74
12, 54120, Note_on_c, 12, 51, 0
12, 54120, Note_on_c, 12, 55, 68
12, 54180, Note_on_c, 12, 55, 0
12, 54180, Note_on_c, 12, 58, 45
12, 54240, Note_on_c, 12, 58, 0
12, 54240, Note_on_c, 12, 63, 50
12, 54300, Note_on_c, 12, 63, 0
12, 54780, Note_on_c, 12, 58, 42
12, 54840, Note_on_c, 12, 58, 0
12, 54840, Note_on_c, 12, 55, 49
12, 54900, Note_on_c, 12, 55, 0
12, 54900, Note_on_c, 12, 51, 62
12, 54960, Note_on_c, 12, 51, 0
12, 54960, Note_on_c, 12, 50, 104
12, 55020, Note_on_c, 12, 50, 0
12, 55020, Note_on_c, 12, 53, 44
12, 55080, Note_on_c, 12, 53, 0
12, 55080, Note_on_c, 12, 58, 43
12, 55140, Note_on_c, 12, 58, 0
12, 55140, Note_on_c, 12, 62, 44
12, 55200, Note_on_c, 12, 62, 0
12, 55200, Note_on_c, 12, 65, 43
12, 55260, Note_on_c, 12, 65, 0
12, 55680, Note_on_c, 12, 56, 43
12, 55740, Note_on_c, 12, 56, 0
12, 55740, Note_on_c, 12, 53, 43
12, 55800, Note_on_c, 12, 53, 0
12, 55800, Note_on_c, 12, 50, 81
12, 55860, Note_on_c, 12, 50, 0
12, 55860, Note_on_c, 12, 58, 43
12, 55920, Note_on_c, 12, 58, 0
12, 55920, Note_on_c, 12, 51, 43
12, 55950, Note_on_c, 12, 51, 0
12, 56520, Program_c, 12, 45
12, 56640, Note_on_c, 12, 53, 46
12, 56700, Note_on_c, 12, 53, 0
12, 56760, Note_on_c, 12, 65, 43
12, 56820, Note_on_c, 12, 65, 0
12, 56820, Program_c, 12, 48
12, 56880, Note_on_c, 12, 49, 94
12, 56965, Control_c, 12, 7, 100
12, 56970, Control_c, 12, 7, 98
12, 56975, Control_c, 12, 7, 96
12, 56980, Control_c, 12, 7, 94
12, 56985, Control_c, 12, 7, 92
12, 56990, Control_c, 12, 7, 90
12, 56995, Control_c, 12, 7, 88
12, 57000, Control_c, 12, 7, 86
12, 57005, Control_c, 12, 7, 84
12, 57010, Control_c, 12, 7, 82
12, 57015, Control_c, 12, 7, 80
12, 57020, Control_c, 12, 7, 78
12, 57025, Control_c, 12, 7, 75
12, 57840, Note_on_c, 12, 49, 0
12, 57840, Control_c, 12, 7, 101
12, 57840, Note_on_c, 12, 53, 90
12, 57930, Control_c, 12, 7, 98
12, 57935, Control_c, 12, 7, 96
12, 57940, Control_c, 12, 7, 93
12, 57945, Control_c, 12, 7, 90
12, 57950, Control_c, 12, 7, 87
12, 57955, Control_c, 12, 7, 85
12, 57960, Control_c, 12, 7, 82
12, 57965, Control_c, 12, 7, 79
12, 57970, Control_c, 12, 7, 76
12, 58800, Note_on_c, 12, 53, 0
12, 58800, Note_on_c, 12, 58, 71
12, 58860, Note_on_c, 12, 58, 0
12, 58920, Control_c, 12, 7, 100
12, 59400, Program_c, 12, 45
12, 59520, Note_on_c, 12, 48, 49
12, 59580, Note_on_c, 12, 48, 0
12, 59640, Note_on_c, 12, 60, 49
12, 59700, Note_on_c, 12, 60, 0
12, 59710, Program_c, 12, 48
12, 59760, Note_on_c, 12, 48, 94
12, 59820, Note_on_c, 12, 48, 0
12, 59820, Note_on_c, 12, 53, 64
12, 59880, Note_on_c, 12, 53, 0
12, 59880, Note_on_c, 12, 56, 43
12, 59940, Note_on_c, 12, 56, 0
12, 59940, Note_on_c, 12, 60, 53
12, 60000, Note_on_c, 12, 60, 0
12, 60000, Note_on_c, 12, 65, 57
12, 60060, Note_on_c, 12, 65, 0
12, 60480, Note_on_c, 12, 65, 64
12, 60540, Note_on_c, 12, 65, 0
12, 60540, Note_on_c, 12, 60, 48
12, 60600, Note_on_c, 12, 60, 0
12, 60600, Note_on_c, 12, 56, 56
12, 60660, Note_on_c, 12, 56, 0
12, 60660, Note_on_c, 12, 53, 45
12, 60720, Note_on_c, 12, 53, 0
12, 60720, Note_on_c, 12, 52, 105
12, 60780, Note_on_c, 12, 52, 0
12, 60780, Note_on_c, 12, 55, 94
12, 60840, Note_on_c, 12, 55, 0
12, 60840, Note_on_c, 12, 60, 72
12, 60900, Note_on_c, 12, 60, 0
12, 60900, Note_on_c, 12, 64, 46
12, 60960, Note_on_c, 12, 64, 0
12, 60960, Note_on_c, 12, 67, 61
12, 61020, Note_on_c, 12, 67, 0
12, 61200, Note_on_c, 12, 48, 60
12, 61680, Note_on_c, 12, 48, 0
12, 61680, Note_on_c, 12, 54, 86
12, 61740, Note_on_c, 12, 54, 0
12, 62760, Program_c, 12, 45
12, 62880, Note_on_c, 12, 54, 84
12, 62940, Note_on_c, 12, 54, 0
12, 63000, Note_on_c, 12, 57, 93
12, 63060, Note_on_c, 12, 57, 0
12, 63060, Note_on_c, 12, 60, 81
12, 63120, Note_on_c, 12, 60, 0
12, 63120, Note_on_c, 12, 63, 73
12, 63180, Note_on_c, 12, 63, 0
12, 63840, Note_on_c, 12, 50, 89
12, 63900, Note_on_c, 12, 50, 0
12, 63960, Note_on_c, 12, 55, 89
12, 64020, Note_on_c, 12, 55, 0
12, 64020, Note_on_c, 12, 58, 84
12, 64080, Note_on_c, 12, 58, 0
12, 64080, Note_on_c, 12, 62, 74
12, 64140, Note_on_c, 12, 62, 0
12, 67200, Program_c, 12, 48
12, 67440, Note_on_c, 12, 50, 90
12, 67500, Note_on_c, 12, 50, 0
12, 68340, Note_on_c, 12, 55, 53
12, 68400, Note_on_c, 12, 55, 0
12, 68400, Note_on_c, 12, 54, 80
12, 68460, Note_on_c, 12, 54, 0
12, 69300, Note_on_c, 12, 55, 53
12, 69360, Note_on_c, 12, 55, 0
12, 69360, Note_on_c, 12, 54, 80
12, 69420, Note_on_c, 12, 54, 0
12, 70800, Program_c, 12, 45
12, 71040, Note_on_c, 12, 54, 43
12, 71040, Note_on_c, 12, 50, 57
12, 71160, Note_on_c, 12, 50, 0
12, 71160, Note_on_c, 12, 54, 0
12, 71400, Note_on_c, 12, 55, 50
12, 71400, Note_on_c, 12, 50, 53
12, 71520, Note_on_c, 12, 50, 0
12, 71520, Note_on_c, 12, 55, 0
12, 71520, Note_on_c, 12, 50, 60
12, 71520, Note_on_c, 12, 54, 43
12, 71640, Note_on_c, 12, 54, 0
12, 71640, Note_on_c, 12, 50, 0
12, 71880, Note_on_c, 12, 55, 43
12, 71880, Note_on_c, 12, 50, 52
12, 72000, Note_on_c, 12, 50, 0
12, 72000, Note_on_c, 12, 55, 0
12, 72000, Note_on_c, 12, 54, 46
12, 72000, Note_on_c, 12, 50, 60
12, 72120, Note_on_c, 12, 50, 0
12, 72120, Note_on_c, 12, 54, 0
12, 72240, Note_on_c, 12, 50, 54
12, 72360, Note_on_c, 12, 50, 0
12, 72480, Note_on_c, 12, 50, 64
12, 72600, Note_on_c, 12, 50, 0
12, 73080, Note_on_c, 12, 50, 57
12, 73200, Note_on_c, 12, 50, 0
12, 73920, Note_on_c, 12, 55, 68
12, 74040, Note_on_c, 12, 55, 0
12, 78000, Program_c, 12, 48
12, 78240, Note_on_c, 12, 62, 41
12, 78600, Note_on_c, 12, 62, 0
12, 78600, Note_on_c, 12, 60, 39
12, 78720, Note_on_c, 12, 60, 0
12, 78720, Note_on_c, 12, 59, 43
12, 79020, Note_on_c, 12, 59, 0
12, 79020, Note_on_c, 12, 57, 43
12, 79140, Note_on_c, 12, 57, 0
12, 79140, Note_on_c, 12, 55, 40
12, 79200, Note_on_c, 12, 55, 0
12, 79200, Note_on_c, 12, 50, 40
12, 79920, Note_on_c, 12, 50, 0
12, 79920, Note_on_c, 12, 52, 43
12, 80040, Note_on_c, 12, 52, 0
12, 80040, Note_on_c, 12, 53, 45
12, 80160, Note_on_c, 12, 53, 0
12, 80160, Note_on_c, 12, 55, 71
12, 80280, Note_on_c, 12, 55, 0
12, 80280, Note_on_c, 12, 60, 77
12, 80400, Note_on_c, 12, 60, 0
12, 80400, Note_on_c, 12, 60, 89
12, 80520, Note_on_c, 12, 60, 0
12, 80520, Note_on_c, 12, 57, 46
12, 80640, Note_on_c, 12, 57, 0
12, 80640, Note_on_c, 12, 55, 44
12, 80760, Note_on_c, 12, 55, 0
12, 80760, Note_on_c, 12, 60, 40
12, 81000, Note_on_c, 12, 60, 0
12, 81000, Note_on_c, 12, 57, 51
12, 81120, Note_on_c, 12, 57, 0
12, 81120, Note_on_c, 12, 55, 93
12, 81180, Note_on_c, 12, 55, 0
12, 81600, Note_on_c, 12, 62, 86
12, 81660, Note_on_c, 12, 62, 0
12, 82080, Note_on_c, 12, 62, 76
12, 82140, Note_on_c, 12, 62, 0
12, 82560, Note_on_c, 12, 62, 84
12, 82620, Note_on_c, 12, 62, 0
12, 83040, Note_on_c, 12, 62, 84
12, 83100, Note_on_c, 12, 62, 0
12, 83280, Note_on_c, 12, 59, 89
12, 83340, Note_on_c, 12, 59, 0
12, 83520, Note_on_c, 12, 59, 70
12, 83580, Note_on_c, 12, 59, 0
12, 83640, Note_on_c, 12, 62, 64
12, 83700, Note_on_c, 12, 62, 0
12, 83760, Note_on_c, 12, 60, 60
12, 83820, Note_on_c, 12, 60, 0
12, 83880, Note_on_c, 12, 59, 76
12, 83940, Note_on_c, 12, 59, 0
12, 84000, Note_on_c, 12, 57, 77
12, 84060, Note_on_c, 12, 57, 0
12, 84120, Note_on_c, 12, 60, 61
12, 84180, Note_on_c, 12, 60, 0
12, 84240, Note_on_c, 12, 62, 51
12, 84300, Note_on_c, 12, 62, 0
12, 84480, Note_on_c, 12, 62, 29
12, 84540, Note_on_c, 12, 62, 0
12, 84960, Note_on_c, 12, 62, 40
12, 85020, Note_on_c, 12, 62, 0
12, 85440, Note_on_c, 12, 62, 30
12, 85500, Note_on_c, 12, 62, 0
12, 85920, Note_on_c, 12, 55, 32
12, 85980, Note_on_c, 12, 55, 0
12, 86400, Note_on_c, 12, 51, 40
12, 86460, Note_on_c, 12, 51, 0
12, 86880, Note_on_c, 12, 51, 77
12, 86940, Note_on_c, 12, 51, 0
12, 87840, Note_on_c, 12, 51, 54
12, 87900, Note_on_c, 12, 51, 0
12, 88980, Note_on_c, 12, 58, 45
12, 89010, Note_on_c, 12, 58, 0
12, 89010, Note_on_c, 12, 58, 65
12, 89040, Note_on_c, 12, 58, 0
12, 89040, Note_on_c, 12, 58, 44
12, 89100, Note_on_c, 12, 58, 0
12, 89460, Note_on_c, 12, 58, 40
12, 89490, Note_on_c, 12, 58, 0
12, 89490, Note_on_c, 12, 58, 40
12, 89520, Note_on_c, 12, 58, 0
12, 89520, Note_on_c, 12, 58, 40
12, 89580, Note_on_c, 12, 58, 0
12, 90180, Note_on_c, 12, 51, 40
12, 90180, Note_on_c, 12, 55, 35
12, 90210, Note_on_c, 12, 55, 0
12, 90210, Note_on_c, 12, 51, 0
12, 90210, Note_on_c, 12, 51, 38
12, 90210, Note_on_c, 12, 55, 35
12, 90240, Note_on_c, 12, 55, 0
12, 90240, Note_on_c, 12, 51, 0
12, 90240, Note_on_c, 12, 51, 29
12, 90240, Note_on_c, 12, 55, 29
12, 90840, Note_on_c, 12, 55, 0
12, 90840, Note_on_c, 12, 51, 0
12, 90840, Note_on_c, 12, 55, 42
12, 90840, Note_on_c, 12, 58, 40
12, 90900, Note_on_c, 12, 58, 0
12, 90900, Note_on_c, 12, 55, 0
12, 90900, Note_on_c, 12, 58, 40
12, 90900, Note_on_c, 12, 63, 33
12, 90960, Note_on_c, 12, 63, 0
12, 90960, Note_on_c, 12, 58, 0
12, 90960, Note_on_c, 12, 67, 29
12, 90960, Note_on_c, 12, 63, 29
12, 91320, Note_on_c, 12, 63, 0
12, 91320, Note_on_c, 12, 67, 0
12, 91320, Note_on_c, 12, 60, 35
12, 91320, Note_on_c, 12, 63, 35
12, 91440, Note_on_c, 12, 63, 0
12, 91440, Note_on_c, 12, 60, 0
12, 91440, Note_on_c, 12, 57, 39
12, 91440, Note_on_c, 12, 60, 33
12, 91680, Note_on_c, 12, 60, 0
12, 91680, Note_on_c, 12, 57, 0
12, 91680, Note_on_c, 12, 57, 29
12, 91680, Note_on_c, 12, 60, 29
12, 91800, Note_on_c, 12, 60, 0
12, 91800, Note_on_c, 12, 65, 29
12, 91920, Note_on_c, 12, 65, 0
12, 91920, Note_on_c, 12, 57, 0
12, 91920, Note_on_c, 12, 62, 29
12, 91920, Note_on_c, 12, 58, 29
12, 92040, Note_on_c, 12, 58, 0
12, 92040, Note_on_c, 12, 62, 0
12, 92040, Note_on_c, 12, 58, 40
12, 92040, Note_on_c, 12, 50, 29
12, 92160, Note_on_c, 12, 50, 0
12, 92160, Note_on_c, 12, 58, 0
12, 92160, Note_on_c, 12, 51, 33
12, 92160, Note_on_c, 12, 60, 33
12, 92280, Note_on_c, 12, 60, 0
12, 92280, Note_on_c, 12, 53, 36
12, 92400, Note_on_c, 12, 53, 0
12, 92400, Note_on_c, 12, 51, 0
12, 92400, Note_on_c, 12, 50, 30
12, 92640, Note_on_c, 12, 50, 0
12, 92640, Note_on_c, 12, 51, 33
12, 92640, Note_on_c, 12, 60, 29
12, 92760, Note_on_c, 12, 60, 0
12, 92760, Note_on_c, 12, 53, 29
12, 92880, Note_on_c, 12, 53, 0
12, 92880, Note_on_c, 12, 51, 0
12, 92880, Note_on_c, 12, 50, 38
12, 93120, Note_on_c, 12, 50, 0
12, 93120, Note_on_c, 12, 53, 37
12, 93120, Note_on_c, 12, 62, 29
12, 93240, Note_on_c, 12, 62, 0
12, 93240, Note_on_c, 12, 55, 29
12, 93360, Note_on_c, 12, 55, 0
12, 93360, Note_on_c, 12, 53, 0
12, 93360, Note_on_c, 12, 51, 43
12, 93600, Note_on_c, 12, 51, 0
12, 93600, Note_on_c, 12, 53, 32
12, 93600, Note_on_c, 12, 62, 34
12, 93720, Note_on_c, 12, 62, 0
12, 93720, Note_on_c, 12, 55, 29
12, 93840, Note_on_c, 12, 55, 0
12, 93840, Note_on_c, 12, 53, 0
12, 93840, Note_on_c, 12, 51, 29
12, 94080, Note_on_c, 12, 51, 0
12, 94080, Note_on_c, 12, 65, 32
12, 94080, Note_on_c, 12, 53, 31
12, 95040, Note_on_c, 12, 53, 0
12, 95040, Note_on_c, 12, 65, 0
12, 95040, Note_on_c, 12, 67, 32
12, 95040, Note_on_c, 12, 55, 29
12, 96000, Note_on_c, 12, 55, 0
12, 96000, Note_on_c, 12, 67, 0
12, 96000, Note_on_c, 12, 63, 104
12, 96030, Note_on_c, 12, 63, 0
12, 96120, Note_on_c, 12, 56, 94
12, 96150, Note_on_c, 12, 56, 0
12, 96240, Note_on_c, 12, 54, 99
12, 96960, Note_on_c, 12, 54, 0
12, 96960, Note_on_c, 12, 63, 99
12, 96990, Note_on_c, 12, 63, 0
12, 97080, Note_on_c, 12, 56, 99
12, 97110, Note_on_c, 12, 56, 0
12, 97200, Note_on_c, 12, 54, 105
12, 97920, Note_on_c, 12, 54, 0
12, 97920, Note_on_c, 12, 53, 105
12, 98160, Note_on_c, 12, 53, 0
12, 98160, Note_on_c, 12, 52, 112
12, 98400, Note_on_c, 12, 52, 0
12, 98400, Note_on_c, 12, 50, 99
12, 98640, Note_on_c, 12, 50, 0
12, 98640, Note_on_c, 12, 55, 101
12, 98700, Note_on_c, 12, 55, 0
12, 101040, Note_on_c, 12, 55, 45
12, 101110, Control_c, 12, 7, 99
12, 101125, Control_c, 12, 7, 98
12, 101140, Control_c, 12, 7, 97
12, 101150, Control_c, 12, 7, 96
12, 101165, Control_c, 12, 7, 95
12, 101180, Control_c, 12, 7, 94
12, 101190, Control_c, 12, 7, 93
12, 101205, Control_c, 12, 7, 92
12, 101215, Control_c, 12, 7, 91
12, 101230, Control_c, 12, 7, 90
12, 101245, Control_c, 12, 7, 89
12, 101255, Control_c, 12, 7, 88
12, 101270, Control_c, 12, 7, 87
12, 101280, Control_c, 12, 7, 86
12, 101295, Control_c, 12, 7, 85
12, 101310, Control_c, 12, 7, 84
12, 101320, Control_c, 12, 7, 83
12, 101335, Control_c, 12, 7, 82
12, 101350, Control_c, 12, 7, 81
12, 101360, Control_c, 12, 7, 80
12, 101375, Control_c, 12, 7, 79
12, 101385, Control_c, 12, 7, 78
12, 101400, Control_c, 12, 7, 77
12, 101415, Control_c, 12, 7, 76
12, 101425, Control_c, 12, 7, 75
12, 101440, Control_c, 12, 7, 74
12, 101450, Control_c, 12, 7, 73
12, 101465, Control_c, 12, 7, 72
12, 101480, Control_c, 12, 7, 71
12, 101490, Control_c, 12, 7, 70
12, 101505, Control_c, 12, 7, 69
12, 101515, Control_c, 12, 7, 68
12, 102000, Note_on_c, 12, 55, 0
12, 102060, Control_c, 12, 7, 100
12, 103680, Program_c, 12, 45
12, 103920, Note_on_c, 12, 55, 43
12, 103980, Note_on_c, 12, 55, 0
12, 104160, Note_on_c, 12, 55, 43
12, 104220, Note_on_c, 12, 55, 0
12, 104400, Note_on_c, 12, 55, 52
12, 104460, Note_on_c, 12, 55, 0
12, 104520, Note_on_c, 12, 60, 42
12, 104580, Note_on_c, 12, 60, 0
12, 104580, Note_on_c, 12, 60, 43
12, 104640, Note_on_c, 12, 60, 0
12, 104640, Note_on_c, 12, 60, 46
12, 104700, Note_on_c, 12, 60, 0
12, 104880, Note_on_c, 12, 57, 58
12, 104940, Note_on_c, 12, 57, 0
12, 105000, Note_on_c, 12, 60, 48
12, 105060, Note_on_c, 12, 60, 0
12, 105120, Note_on_c, 12, 50, 45
12, 105180, Note_on_c, 12, 50, 0
12, 105480, Note_on_c, 12, 57, 45
12, 105540, Note_on_c, 12, 57, 0
12, 105600, Note_on_c, 12, 59, 43
12, 105660, Note_on_c, 12, 59, 0
12, 105720, Note_on_c, 12, 52, 43
12, 105780, Note_on_c, 12, 52, 0
12, 105840, Note_on_c, 12, 52, 44
12, 105900, Note_on_c, 12, 52, 0
12, 105960, Note_on_c, 12, 50, 50
12, 106020, Note_on_c, 12, 50, 0
12, 106080, Note_on_c, 12, 50, 50
12, 106140, Note_on_c, 12, 50, 0
12, 106200, Program_c, 12, 48
12, 106260, Note_on_c, 12, 48, 95
12, 106260, Note_on_c, 12, 60, 90
12, 106290, Note_on_c, 12, 60, 0
12, 106290, Note_on_c, 12, 48, 0
12, 106290, Note_on_c, 12, 48, 90
12, 106290, Note_on_c, 12, 60, 82
12, 106320, Note_on_c, 12, 60, 0
12, 106320, Note_on_c, 12, 48, 0
12, 106320, Note_on_c, 12, 60, 82
12, 106320, Note_on_c, 12, 48, 89
12, 106440, Note_on_c, 12, 48, 0
12, 106440, Note_on_c, 12, 60, 0
12, 106500, Note_on_c, 12, 60, 76
12, 106500, Note_on_c, 12, 48, 84
12, 106530, Note_on_c, 12, 48, 0
12, 106530, Note_on_c, 12, 60, 0
12, 106530, Note_on_c, 12, 48, 93
12, 106530, Note_on_c, 12, 60, 84
12, 106560, Note_on_c, 12, 60, 0
12, 106560, Note_on_c, 12, 48, 0
12, 106560, Note_on_c, 12, 60, 76
12, 106560, Note_on_c, 12, 48, 85
12, 106680, Note_on_c, 12, 48, 0
12, 106680, Note_on_c, 12, 60, 0
12, 106740, Note_on_c, 12, 60, 77
12, 106740, Note_on_c, 12, 48, 89
12, 106770, Note_on_c, 12, 48, 0
12, 106770, Note_on_c, 12, 60, 0
12, 106770, Note_on_c, 12, 60, 81
12, 106770, Note_on_c, 12, 48, 94
12, 106800, Note_on_c, 12, 48, 0
12, 106800, Note_on_c, 12, 60, 0
12, 106800, Note_on_c, 12, 60, 77
12, 106800, Note_on_c, 12, 48, 95
12, 106860, Note_on_c, 12, 48, 0
12, 106860, Note_on_c, 12, 60, 0
12, 106860, Note_on_c, 12, 60, 58
12, 106860, Note_on_c, 12, 64, 69
12, 106890, Note_on_c, 12, 64, 0
12, 106890, Note_on_c, 12, 60, 0
12, 106890, Note_on_c, 12, 60, 68
12, 106890, Note_on_c, 12, 64, 78
12, 106920, Note_on_c, 12, 64, 0
12, 106920, Note_on_c, 12, 60, 0
12, 106920, Note_on_c, 12, 64, 80
12, 106920, Note_on_c, 12, 60, 76
12, 106980, Note_on_c, 12, 60, 0
12, 106980, Note_on_c, 12, 64, 0
12, 106980, Note_on_c, 12, 67, 68
12, 106980, Note_on_c, 12, 64, 85
12, 107010, Note_on_c, 12, 64, 0
12, 107010, Note_on_c, 12, 67, 0
12, 107010, Note_on_c, 12, 67, 76
12, 107010, Note_on_c, 12, 72, 104
12, 107040, Note_on_c, 12, 72, 0
12, 107040, Note_on_c, 12, 67, 0
12, 107040, Note_on_c, 12, 76, 72
12, 107040, Note_on_c, 12, 72, 107
12, 107100, Note_on_c, 12, 72, 0
12, 107100, Note_on_c, 12, 76, 0
12, 107220, Note_on_c, 12, 76, 61
12, 107220, Note_on_c, 12, 72, 94
12, 107250, Note_on_c, 12, 72, 0
12, 107250, Note_on_c, 12, 76, 0
12, 107250, Note_on_c, 12, 76, 80
12, 107250, Note_on_c, 12, 72, 105
12, 107280, Note_on_c, 12, 72, 0
12, 107280, Note_on_c, 12, 76, 0
12, 107280, Note_on_c, 12, 76, 72
12, 107280, Note_on_c, 12, 72, 112
12, 107340, Note_on_c, 12, 72, 0
12, 107340, Note_on_c, 12, 76, 0
12, 107340, Note_on_c, 12, 69, 81
12, 107340, Note_on_c, 12, 72, 93
12, 107370, Note_on_c, 12, 72, 0
12, 107370, Note_on_c, 12, 69, 0
12, 107370, Note_on_c, 12, 69, 85
12, 107370, Note_on_c, 12, 72, 98
12, 107400, Note_on_c, 12, 72, 0
12, 107400, Note_on_c, 12, 69, 0
12, 107400, Note_on_c, 12, 69, 80
12, 107400, Note_on_c, 12, 72, 99
12, 107460, Note_on_c, 12, 72, 0
12, 107460, Note_on_c, 12, 69, 0
12, 107460, Note_on_c, 12, 69, 54
12, 107460, Note_on_c, 12, 66, 74
12, 107490, Note_on_c, 12, 66, 0
12, 107490, Note_on_c, 12, 69, 0
12, 107490, Note_on_c, 12, 69, 71
12, 107490, Note_on_c, 12, 66, 80
12, 107520, Note_on_c, 12, 66, 0
12, 107520, Note_on_c, 12, 69, 0
12, 107520, Note_on_c, 12, 69, 77
12, 107520, Note_on_c, 12, 66, 85
12, 107640, Note_on_c, 12, 66, 0
12, 107640, Note_on_c, 12, 69, 0
12, 107700, Note_on_c, 12, 69, 77
12, 107700, Note_on_c, 12, 66, 85
12, 107730, Note_on_c, 12, 66, 0
12, 107730, Note_on_c, 12, 69, 0
12, 107730, Note_on_c, 12, 67, 67
12, 107730, Note_on_c, 12, 64, 86
12, 107760, Note_on_c, 12, 64, 0
12, 107760, Note_on_c, 12, 67, 0
12, 107760, Note_on_c, 12, 69, 73
12, 107760, Note_on_c, 12, 66, 73
12, 107820, Note_on_c, 12, 66, 0
12, 107820, Note_on_c, 12, 69, 0
12, 107820, Note_on_c, 12, 66, 84
12, 107820, Note_on_c, 12, 74, 86
12, 107850, Note_on_c, 12, 74, 0
12, 107850, Note_on_c, 12, 66, 0
12, 107850, Note_on_c, 12, 72, 99
12, 107850, Note_on_c, 12, 64, 85
12, 107880, Note_on_c, 12, 64, 0
12, 107880, Note_on_c, 12, 72, 0
12, 107880, Note_on_c, 12, 66, 82
12, 107880, Note_on_c, 12, 74, 76
12, 107940, Note_on_c, 12, 74, 0
12, 107940, Note_on_c, 12, 66, 0
12, 107940, Note_on_c, 12, 67, 69
12, 107940, Note_on_c, 12, 71, 80
12, 107970, Note_on_c, 12, 71, 0
12, 107970, Note_on_c, 12, 67, 0
12, 107970, Note_on_c, 12, 69, 80
12, 107970, Note_on_c, 12, 66, 76
12, 108000, Note_on_c, 12, 66, 0
12, 108000, Note_on_c, 12, 69, 0
12, 108000, Note_on_c, 12, 71, 74
12, 108000, Note_on_c, 12, 67, 76
12, 108060, Note_on_c, 12, 67, 0
12, 108060, Note_on_c, 12, 71, 0
12, 108060, Note_on_c, 12, 67, 65
12, 108060, Note_on_c, 12, 59, 89
12, 108090, Note_on_c, 12, 59, 0
12, 108090, Note_on_c, 12, 67, 0
12, 108090, Note_on_c, 12, 66, 77
12, 108090, Note_on_c, 12, 57, 99
12, 108120, Note_on_c, 12, 57, 0
12, 108120, Note_on_c, 12, 66, 0
12, 108120, Note_on_c, 12, 67, 62
12, 108120, Note_on_c, 12, 59, 81
12, 108180, Note_on_c, 12, 59, 0
12, 108180, Note_on_c, 12, 67, 0
12, 108180, Note_on_c, 12, 69, 85
12, 108180, Note_on_c, 12, 60, 84
12, 108210, Note_on_c, 12, 60, 0
12, 108210, Note_on_c, 12, 69, 0
12, 108210, Note_on_c, 12, 67, 64
12, 108210, Note_on_c, 12, 59, 94
12, 108240, Note_on_c, 12, 59, 0
12, 108240, Note_on_c, 12, 67, 0
12, 108240, Note_on_c, 12, 69, 81
12, 108240, Note_on_c, 12, 60, 81
12, 108300, Note_on_c, 12, 60, 0
12, 108300, Note_on_c, 12, 69, 0
12, 108300, Note_on_c, 12, 54, 84
12, 108300, Note_on_c, 12, 62, 76
12, 108330, Note_on_c, 12, 62, 0
12, 108330, Note_on_c, 12, 54, 0
12, 108330, Note_on_c, 12, 60, 61
12, 108330, Note_on_c, 12, 52, 76
12, 108330, Note_on_c, 12, 53, 72
12, 108360, Note_on_c, 12, 53, 0
12, 108360, Note_on_c, 12, 52, 0
12, 108360, Note_on_c, 12, 60, 0
12, 108360, Note_on_c, 12, 62, 81
12, 108360, Note_on_c, 12, 54, 84
12, 108420, Note_on_c, 12, 54, 0
12, 108420, Note_on_c, 12, 62, 0
12, 108420, Note_on_c, 12, 54, 76
12, 108420, Note_on_c, 12, 57, 94
12, 108480, Note_on_c, 12, 57, 0
12, 108480, Note_on_c, 12, 54, 0
12, 108480, Note_on_c, 12, 59, 104
12, 108510, Note_on_c, 12, 59, 0
12, 108510, Note_on_c, 12, 62, 89
12, 108540, Note_on_c, 12, 62, 0
12, 108540, Note_on_c, 12, 64, 104
12, 108570, Note_on_c, 12, 64, 0
12, 108570, Note_on_c, 12, 66, 95
12, 108600, Note_on_c, 12, 66, 0
12, 108600, Note_on_c, 12, 67, 86
12, 108630, Note_on_c, 12, 67, 0
12, 108630, Note_on_c, 12, 69, 95
12, 108660, Note_on_c, 12, 69, 0
12, 108660, Note_on_c, 12, 71, 93
12, 108690, Note_on_c, 12, 71, 0
12, 108690, Note_on_c, 12, 67, 89
12, 108720, Note_on_c, 12, 67, 0
12, 108720, Note_on_c, 12, 64, 95
12, 108750, Note_on_c, 12, 64, 0
12, 108750, Note_on_c, 12, 67, 93
12, 108780, Note_on_c, 12, 67, 0
12, 108780, Note_on_c, 12, 66, 90
12, 108810, Note_on_c, 12, 66, 0
12, 108810, Note_on_c, 12, 69, 90
12, 108840, Note_on_c, 12, 69, 0
12, 108840, Note_on_c, 12, 67, 89
12, 108870, Note_on_c, 12, 67, 0
12, 108870, Note_on_c, 12, 66, 94
12, 108900, Note_on_c, 12, 66, 0
12, 108900, Note_on_c, 12, 64, 95
12, 108930, Note_on_c, 12, 64, 0
12, 108930, Note_on_c, 12, 62, 90
12, 108960, Note_on_c, 12, 62, 0
12, 108960, Note_on_c, 12, 60, 95
12, 108990, Note_on_c, 12, 60, 0
12, 108990, Note_on_c, 12, 59, 99
12, 109020, Note_on_c, 12, 59, 0
12, 109020, Note_on_c, 12, 60, 93
12, 109050, Note_on_c, 12, 60, 0
12, 109050, Note_on_c, 12, 62, 86
12, 109080, Note_on_c, 12, 62, 0
12, 109080, Note_on_c, 12, 59, 104
12, 109110, Note_on_c, 12, 59, 0
12, 109110, Note_on_c, 12, 55, 93
12, 109140, Note_on_c, 12, 55, 0
12, 109140, Note_on_c, 12, 57, 99
12, 109170, Note_on_c, 12, 57, 0
12, 109170, Note_on_c, 12, 59, 94
12, 109200, Note_on_c, 12, 59, 0
12, 109200, Note_on_c, 12, 60, 93
12, 109230, Note_on_c, 12, 60, 0
12, 109230, Note_on_c, 12, 57, 99
12, 109260, Note_on_c, 12, 57, 0
12, 109260, Note_on_c, 12, 60, 95
12, 109290, Note_on_c, 12, 60, 0
12, 109290, Note_on_c, 12, 57, 99
12, 109320, Note_on_c, 12, 57, 0
12, 109320, Note_on_c, 12, 60, 84
12, 109350, Note_on_c, 12, 60, 0
12, 109350, Note_on_c, 12, 50, 104
12, 109380, Note_on_c, 12, 50, 0
12, 109380, Note_on_c, 12, 60, 86
12, 109410, Note_on_c, 12, 60, 0
12, 109410, Note_on_c, 12, 50, 105
12, 109440, Note_on_c, 12, 50, 0
12, 110340, Note_on_c, 12, 57, 50
12, 110400, Note_on_c, 12, 57, 0
12, 110400, Note_on_c, 12, 55, 74
12, 110460, Note_on_c, 12, 55, 0
12, 111360, Note_on_c, 12, 55, 76
12, 111420, Note_on_c, 12, 55, 0
12, 114960, Program_c, 12, 45
12, 115200, Note_on_c, 12, 54, 40
12, 115260, Note_on_c, 12, 54, 0
12, 115680, Note_on_c, 12, 55, 43
12, 115740, Note_on_c, 12, 55, 0
12, 116160, Note_on_c, 12, 48, 43
12, 116220, Note_on_c, 12, 48, 0
12, 117120, Note_on_c, 12, 60, 53
12, 117180, Note_on_c, 12, 60, 0
12, 117600, Note_on_c, 12, 50, 50
12, 117660, Note_on_c, 12, 50, 0
12, 117960, Program_c, 12, 48
12, 118080, Note_on_c, 12, 55, 50
12, 118140, Note_on_c, 12, 55, 0
12, 118560, Note_on_c, 12, 50, 50
12, 118620, Note_on_c, 12, 50, 0
12, 119040, Note_on_c, 12, 55, 43
12, 119100, Note_on_c, 12, 55, 0
12, 119520, Note_on_c, 12, 50, 43
12, 119580, Note_on_c, 12, 50, 0
12, 120000, Note_on_c, 12, 55, 62
12, 120060, Note_on_c, 12, 55, 0
12, 120480, Note_on_c, 12, 50, 76
12, 120540, Note_on_c, 12, 50, 0
12, 120960, Note_on_c, 12, 62, 84
12, 121320, Note_on_c, 12, 62, 0
12, 121320, Note_on_c, 12, 60, 74
12, 121380, Note_on_c, 12, 60, 0
12, 121380, Note_on_c, 12, 59, 71
12, 121440, Note_on_c, 12, 59, 0
12, 121440, Note_on_c, 12, 59, 73
12, 121560, Note_on_c, 12, 59, 0
12, 121560, Note_on_c, 12, 57, 80
12, 121740, Note_on_c, 12, 57, 0
12, 121740, Note_on_c, 12, 50, 80
12, 121800, Note_on_c, 12, 50, 0
12, 121800, Note_on_c, 12, 52, 84
12, 121860, Note_on_c, 12, 52, 0
12, 121860, Note_on_c, 12, 54, 81
12, 121920, Note_on_c, 12, 54, 0
12, 121920, Note_on_c, 12, 55, 94
12, 121950, Note_on_c, 12, 55, 0
12, 121950, Note_on_c, 12, 55, 84
12, 121980, Note_on_c, 12, 55, 0
12, 121980, Note_on_c, 12, 57, 98
12, 122010, Note_on_c, 12, 57, 0
12, 122010, Note_on_c, 12, 57, 95
12, 122040, Note_on_c, 12, 57, 0
12, 122040, Note_on_c, 12, 59, 89
12, 122070, Note_on_c, 12, 59, 0
12, 122070, Note_on_c, 12, 59, 99
12, 122100, Note_on_c, 12, 59, 0
12, 122100, Note_on_c, 12, 60, 125
12, 122130, Note_on_c, 12, 60, 0
12, 122130, Note_on_c, 12, 60, 86
12, 122160, Note_on_c, 12, 60, 0
12, 122160, Note_on_c, 12, 57, 101
12, 122190, Note_on_c, 12, 57, 0
12, 122190, Note_on_c, 12, 57, 101
12, 122220, Note_on_c, 12, 57, 0
12, 122220, Note_on_c, 12, 59, 99
12, 122250, Note_on_c, 12, 59, 0
12, 122250, Note_on_c, 12, 59, 94
12, 122280, Note_on_c, 12, 59, 0
12, 122280, Note_on_c, 12, 60, 89
12, 122310, Note_on_c, 12, 60, 0
12, 122310, Note_on_c, 12, 60, 89
12, 122340, Note_on_c, 12, 60, 0
12, 122340, Note_on_c, 12, 62, 119
12, 122370, Note_on_c, 12, 62, 0
12, 122370, Note_on_c, 12, 62, 94
12, 122400, Note_on_c, 12, 62, 0
12, 122400, Note_on_c, 12, 59, 89
12, 122430, Note_on_c, 12, 59, 0
12, 122430, Note_on_c, 12, 59, 89
12, 122460, Note_on_c, 12, 59, 0
12, 122460, Note_on_c, 12, 60, 89
12, 122490, Note_on_c, 12, 60, 0
12, 122490, Note_on_c, 12, 60, 89
12, 122520, Note_on_c, 12, 60, 0
12, 122520, Note_on_c, 12, 62, 84
12, 122550, Note_on_c, 12, 62, 0
12, 122550, Note_on_c, 12, 62, 90
12, 122580, Note_on_c, 12, 62, 0
12, 122580, Note_on_c, 12, 64, 125
12, 122610, Note_on_c, 12, 64, 0
12, 122610, Note_on_c, 12, 64, 89
12, 122640, Note_on_c, 12, 64, 0
12, 122640, Note_on_c, 12, 60, 93
12, 122670, Note_on_c, 12, 60, 0
12, 122670, Note_on_c, 12, 60, 89
12, 122700, Note_on_c, 12, 60, 0
12, 122700, Note_on_c, 12, 62, 93
12, 122730, Note_on_c, 12, 62, 0
12, 122730, Note_on_c, 12, 62, 89
12, 122760, Note_on_c, 12, 62, 0
12, 122760, Note_on_c, 12, 64, 94
12, 122790, Note_on_c, 12, 64, 0
12, 122790, Note_on_c, 12, 64, 94
12, 122820, Note_on_c, 12, 64, 0
12, 122820, Note_on_c, 12, 66, 119
12, 122850, Note_on_c, 12, 66, 0
12, 122850, Note_on_c, 12, 66, 110
12, 122880, Note_on_c, 12, 66, 0
12, 122880, Note_on_c, 12, 67, 80
12, 122910, Note_on_c, 12, 67, 0
12, 122910, Note_on_c, 12, 67, 84
12, 122940, Note_on_c, 12, 67, 0
12, 122940, Note_on_c, 12, 69, 94
12, 122970, Note_on_c, 12, 69, 0
12, 122970, Note_on_c, 12, 69, 95
12, 123000, Note_on_c, 12, 69, 0
12, 123000, Note_on_c, 12, 70, 93
12, 123030, Note_on_c, 12, 70, 0
12, 123030, Note_on_c, 12, 70, 95
12, 123060, Note_on_c, 12, 70, 0
12, 123060, Note_on_c, 12, 71, 94
12, 123090, Note_on_c, 12, 71, 0
12, 123090, Note_on_c, 12, 71, 95
12, 123120, Note_on_c, 12, 71, 0
12, 123120, Note_on_c, 12, 72, 119
12, 123150, Note_on_c, 12, 72, 0
12, 123150, Note_on_c, 12, 72, 115
12, 123180, Note_on_c, 12, 72, 0
12, 123180, Note_on_c, 12, 73, 84
12, 123210, Note_on_c, 12, 73, 0
12, 123210, Note_on_c, 12, 73, 89
12, 123240, Note_on_c, 12, 73, 0
12, 123240, Note_on_c, 12, 74, 98
12, 123270, Note_on_c, 12, 74, 0
12, 123270, Note_on_c, 12, 74, 98
12, 123300, Note_on_c, 12, 74, 0
12, 123300, Note_on_c, 12, 75, 99
12, 123330, Note_on_c, 12, 75, 0
12, 123330, Note_on_c, 12, 75, 95
12, 123360, Note_on_c, 12, 75, 0
12, 123360, Note_on_c, 12, 76, 105
12, 123420, Note_on_c, 12, 76, 0
12, 123480, Note_on_c, 12, 78, 95
12, 123540, Note_on_c, 12, 78, 0
12, 123600, Note_on_c, 12, 79, 95
12, 123660, Note_on_c, 12, 79, 0
12, 123720, Note_on_c, 12, 49, 94
12, 123780, Note_on_c, 12, 49, 0
12, 123840, Note_on_c, 12, 50, 105
12, 124080, Note_on_c, 12, 50, 0
12, 136920, Program_c, 12, 45
12, 137040, Note_on_c, 12, 62, 80
12, 137100, Note_on_c, 12, 62, 0
12, 139440, Note_on_c, 12, 59, 62
12, 139560, Note_on_c, 12, 59, 0
12, 139680, Note_on_c, 12, 48, 64
12, 139800, Note_on_c, 12, 48, 0
12, 139920, Note_on_c, 12, 50, 72
12, 139980, Note_on_c, 12, 50, 0
12, 140160, Note_on_c, 12, 50, 68
12, 140220, Note_on_c, 12, 50, 0
12, 140320, Program_c, 12, 48
12, 140640, Note_on_c, 12, 56, 90
12, 140740, Control_c, 12, 7, 100
12, 140745, Control_c, 12, 7, 99
12, 140750, Control_c, 12, 7, 98
12, 140755, Control_c, 12, 7, 97
12, 140760, Control_c, 12, 7, 96
12, 140765, Control_c, 12, 7, 95
12, 140770, Control_c, 12, 7, 93
12, 140775, Control_c, 12, 7, 92
12, 140780, Control_c, 12, 7, 91
12, 140785, Control_c, 12, 7, 90
12, 140790, Control_c, 12, 7, 89
12, 140795, Control_c, 12, 7, 87
12, 140800, Control_c, 12, 7, 86
12, 140805, Control_c, 12, 7, 85
12, 140810, Control_c, 12, 7, 84
12, 140815, Control_c, 12, 7, 83
12, 140820, Control_c, 12, 7, 81
12, 140825, Control_c, 12, 7, 80
12, 140830, Control_c, 12, 7, 79
12, 140835, Control_c, 12, 7, 78
12, 140840, Control_c, 12, 7, 77
12, 140845, Control_c, 12, 7, 75
12, 140850, Control_c, 12, 7, 74
12, 140855, Control_c, 12, 7, 73
12, 140860, Control_c, 12, 7, 72
12, 140865, Control_c, 12, 7, 71
12, 140870, Control_c, 12, 7, 69
12, 141120, Note_on_c, 12, 56, 0
12, 141120, Note_on_c, 12, 57, 99
12, 141180, Note_on_c, 12, 57, 0
12, 141240, Note_on_c, 12, 60, 84
12, 141300, Note_on_c, 12, 60, 0
12, 141480, Note_on_c, 12, 55, 89
12, 141540, Note_on_c, 12, 55, 0
12, 141720, Note_on_c, 12, 57, 94
12, 141780, Note_on_c, 12, 57, 0
12, 141805, Control_c, 12, 7, 68
12, 141810, Control_c, 12, 7, 75
12, 141815, Control_c, 12, 7, 82
12, 141820, Control_c, 12, 7, 89
12, 141825, Control_c, 12, 7, 97
12, 141840, Note_on_c, 12, 55, 51
12, 141900, Note_on_c, 12, 55, 0
12, 141910, Program_c, 12, 45
12, 141960, Note_on_c, 12, 55, 47
12, 142080, Note_on_c, 12, 55, 0
12, 142200, Note_on_c, 12, 55, 50
12, 142320, Note_on_c, 12, 55, 0
12, 142440, Note_on_c, 12, 55, 46
12, 142560, Note_on_c, 12, 55, 0
12, 142680, Note_on_c, 12, 55, 44
12, 142800, Note_on_c, 12, 55, 0
12, 142920, Note_on_c, 12, 55, 55
12, 143040, Note_on_c, 12, 55, 0
12, 143160, Note_on_c, 12, 57, 60
12, 143280, Note_on_c, 12, 57, 0
12, 143400, Note_on_c, 12, 57, 57
12, 143520, Note_on_c, 12, 57, 0
12, 143640, Note_on_c, 12, 59, 52
12, 143760, Note_on_c, 12, 59, 0
12, 143880, Note_on_c, 12, 60, 45
12, 144000, Note_on_c, 12, 60, 0
12, 144020, Program_c, 12, 48
12, 144120, Note_on_c, 12, 59, 44
12, 144240, Note_on_c, 12, 59, 0
12, 144240, Note_on_c, 12, 59, 40
12, 144720, Note_on_c, 12, 59, 0
12, 144720, Note_on_c, 12, 60, 34
12, 145320, Note_on_c, 12, 60, 0
12, 145320, Note_on_c, 12, 57, 43
12, 145920, Note_on_c, 12, 57, 0
12, 145920, Note_on_c, 12, 59, 40
12, 146160, Note_on_c, 12, 59, 0
12, 146160, Note_on_c, 12, 60, 37
12, 146400, Note_on_c, 12, 60, 0
12, 146400, Note_on_c, 12, 59, 39
12, 146640, Note_on_c, 12, 59, 0
12, 146640, Note_on_c, 12, 60, 33
12, 146880, Note_on_c, 12, 60, 0
12, 146880, Note_on_c, 12, 59, 42
12, 147120, Note_on_c, 12, 59, 0
12, 147120, Control_c, 12, 7, 99
12, 147120, Note_on_c, 12, 60, 37
12, 147155, Control_c, 12, 7, 98
12, 147185, Control_c, 12, 7, 97
12, 147215, Control_c, 12, 7, 96
12, 147245, Control_c, 12, 7, 95
12, 147275, Control_c, 12, 7, 94
12, 147310, Control_c, 12, 7, 93
12, 147340, Control_c, 12, 7, 92
12, 147370, Control_c, 12, 7, 91
12, 147400, Control_c, 12, 7, 90
12, 147430, Control_c, 12, 7, 89
12, 147465, Control_c, 12, 7, 88
12, 147495, Control_c, 12, 7, 87
12, 147525, Control_c, 12, 7, 86
12, 147555, Control_c, 12, 7, 85
12, 147585, Control_c, 12, 7, 84
12, 147620, Control_c, 12, 7, 83
12, 147650, Control_c, 12, 7, 82
12, 147680, Control_c, 12, 7, 81
12, 147710, Control_c, 12, 7, 80
12, 147740, Control_c, 12, 7, 79
12, 147775, Control_c, 12, 7, 78
12, 147805, Control_c, 12, 7, 77
12, 147835, Control_c, 12, 7, 76
12, 147865, Control_c, 12, 7, 75
12, 147895, Control_c, 12, 7, 74
12, 147930, Control_c, 12, 7, 73
12, 147960, Control_c, 12, 7, 72
12, 147990, Control_c, 12, 7, 71
12, 148020, Control_c, 12, 7, 70
12, 148050, Control_c, 12, 7, 69
12, 148080, Note_on_c, 12, 60, 0
12, 148080, Control_c, 12, 7, 68
12, 148080, Note_on_c, 12, 59, 43
12, 148200, Note_on_c, 12, 59, 0
12, 148675, Control_c, 12, 7, 100
12, 149280, Program_c, 12, 45
12, 149520, Note_on_c, 12, 57, 40
12, 149640, Note_on_c, 12, 57, 0
12, 149760, Note_on_c, 12, 50, 41
12, 149880, Note_on_c, 12, 50, 0
12, 150000, Program_c, 12, 48
12, 150240, Note_on_c, 12, 57, 40
12, 150300, Note_on_c, 12, 57, 0
12, 150300, Note_on_c, 12, 50, 32
12, 150360, Note_on_c, 12, 50, 0
12, 151440, Note_on_c, 12, 69, 29
12, 151500, Note_on_c, 12, 69, 0
12, 151500, Note_on_c, 12, 62, 29
12, 151560, Note_on_c, 12, 62, 0
12, 151560, Note_on_c, 12, 69, 46
12, 151620, Note_on_c, 12, 69, 0
12, 151620, Note_on_c, 12, 62, 43
12, 151680, Note_on_c, 12, 62, 0
12, 151680, Note_on_c, 12, 69, 37
12, 151740, Note_on_c, 12, 69, 0
12, 151740, Note_on_c, 12, 62, 36
12, 151800, Note_on_c, 12, 62, 0
12, 151800, Note_on_c, 12, 69, 50
12, 151860, Note_on_c, 12, 69, 0
12, 151860, Note_on_c, 12, 62, 44
12, 151920, Note_on_c, 12, 62, 0
12, 151920, Note_on_c, 12, 69, 46
12, 151980, Note_on_c, 12, 69, 0
12, 151980, Note_on_c, 12, 62, 57
12, 152040, Note_on_c, 12, 62, 0
12, 152040, Note_on_c, 12, 69, 68
12, 152100, Note_on_c, 12, 69, 0
12, 152100, Note_on_c, 12, 62, 74
12, 152160, Note_on_c, 12, 62, 0
12, 152160, Note_on_c, 12, 69, 80
12, 152220, Note_on_c, 12, 69, 0
12, 152220, Note_on_c, 12, 62, 71
12, 152280, Note_on_c, 12, 62, 0
12, 152280, Note_on_c, 12, 69, 74
12, 152340, Note_on_c, 12, 69, 0
12, 152340, Note_on_c, 12, 62, 98
12, 152400, Note_on_c, 12, 62, 0
12, 152400, Note_on_c, 12, 62, 74
12, 152400, Note_on_c, 12, 71, 77
12, 152400, Note_on_c, 12, 55, 84
12, 152520, Note_on_c, 12, 55, 0
12, 152520, Note_on_c, 12, 71, 0
12, 152520, Note_on_c, 12, 62, 0
12, 152640, Note_on_c, 12, 55, 78
12, 152640, Note_on_c, 12, 62, 73
12, 152640, Note_on_c, 12, 71, 82
12, 152760, Note_on_c, 12, 71, 0
12, 152760, Note_on_c, 12, 62, 0
12, 152760, Note_on_c, 12, 55, 0
12, 152880, Note_on_c, 12, 62, 72
12, 152880, Note_on_c, 12, 55, 80
12, 152880, Note_on_c, 12, 71, 84
12, 153000, Note_on_c, 12, 71, 0
12, 153000, Note_on_c, 12, 55, 0
12, 153000, Note_on_c, 12, 62, 0
12, 153120, Note_on_c, 12, 71, 76
12, 153120, Note_on_c, 12, 55, 77
12, 153120, Note_on_c, 12, 62, 76
12, 153240, Note_on_c, 12, 62, 0
12, 153240, Note_on_c, 12, 55, 0
12, 153240, Note_on_c, 12, 71, 0
12, 153360, Note_on_c, 12, 48, 93
12, 153360, Note_on_c, 12, 60, 89
12, 153480, Note_on_c, 12, 60, 0
12, 153480, Note_on_c, 12, 48, 0
12, 153540, Note_on_c, 12, 48, 95
12, 153540, Note_on_c, 12, 60, 94
12, 153570, Note_on_c, 12, 60, 0
12, 153570, Note_on_c, 12, 48, 0
12, 153570, Note_on_c, 12, 48, 98
12, 153570, Note_on_c, 12, 60, 90
12, 153600, Note_on_c, 12, 60, 0
12, 153600, Note_on_c, 12, 48, 0
12, 153600, Note_on_c, 12, 48, 98
12, 153600, Note_on_c, 12, 60, 93
12, 153720, Note_on_c, 12, 60, 0
12, 153720, Note_on_c, 12, 48, 0
12, 153780, Note_on_c, 12, 48, 93
12, 153780, Note_on_c, 12, 60, 90
12, 153810, Note_on_c, 12, 60, 0
12, 153810, Note_on_c, 12, 48, 0
12, 153810, Note_on_c, 12, 60, 89
12, 153810, Note_on_c, 12, 48, 94
12, 153840, Note_on_c, 12, 48, 0
12, 153840, Note_on_c, 12, 60, 0
12, 153840, Note_on_c, 12, 48, 98
12, 153840, Note_on_c, 12, 60, 85
12, 153960, Note_on_c, 12, 60, 0
12, 153960, Note_on_c, 12, 48, 0
12, 153960, Note_on_c, 12, 64, 101
12, 153990, Note_on_c, 12, 64, 0
12, 154020, Note_on_c, 12, 67, 93
12, 154050, Note_on_c, 12, 67, 0
12, 154080, Note_on_c, 12, 72, 123
12, 154140, Note_on_c, 12, 72, 0
12, 154320, Note_on_c, 12, 72, 119
12, 154380, Note_on_c, 12, 72, 0
12, 154440, Note_on_c, 12, 69, 99
12, 154500, Note_on_c, 12, 69, 0
12, 154560, Note_on_c, 12, 66, 99
12, 154620, Note_on_c, 12, 66, 0
12, 154800, Note_on_c, 12, 66, 93
12, 154860, Note_on_c, 12, 66, 0
12, 154920, Note_on_c, 12, 54, 93
12, 154960, Note_on_c, 12, 54, 0
12, 154960, Note_on_c, 12, 55, 95
12, 155000, Note_on_c, 12, 55, 0
12, 155000, Note_on_c, 12, 57, 105
12, 155040, Note_on_c, 12, 57, 0
12, 155040, Note_on_c, 12, 59, 95
12, 155100, Note_on_c, 12, 59, 0
12, 155160, Note_on_c, 12, 59, 95
12, 155200, Note_on_c, 12, 59, 0
12, 155200, Note_on_c, 12, 60, 94
12, 155240, Note_on_c, 12, 60, 0
12, 155240, Note_on_c, 12, 62, 95
12, 155280, Note_on_c, 12, 62, 0
12, 155280, Note_on_c, 12, 64, 104
12, 155320, Note_on_c, 12, 64, 0
12, 155320, Note_on_c, 12, 62, 94
12, 155360, Note_on_c, 12, 62, 0
12, 155360, Note_on_c, 12, 64, 104
12, 155400, Note_on_c, 12, 64, 0
12, 155400, Note_on_c, 12, 66, 95
12, 155440, Note_on_c, 12, 66, 0
12, 155440, Note_on_c, 12, 64, 104
12, 155480, Note_on_c, 12, 64, 0
12, 155480, Note_on_c, 12, 66, 94
12, 155520, Note_on_c, 12, 66, 0
12, 155520, Note_on_c, 12, 55, 89
12, 155520, Note_on_c, 12, 67, 84
12, 155580, Note_on_c, 12, 67, 0
12, 155580, Note_on_c, 12, 55, 0
12, 156120, Program_c, 12, 45
12, 156240, Note_on_c, 12, 60, 40
12, 156360, Note_on_c, 12, 60, 0
12, 156480, Note_on_c, 12, 57, 32
12, 156600, Note_on_c, 12, 57, 0
12, 156720, Note_on_c, 12, 55, 41
12, 156840, Note_on_c, 12, 55, 0
12, 156960, Note_on_c, 12, 62, 41
12, 157080, Note_on_c, 12, 62, 0
12, 157200, Note_on_c, 12, 62, 40
12, 157320, Note_on_c, 12, 62, 0
12, 157440, Note_on_c, 12, 62, 40
12, 157560, Note_on_c, 12, 62, 0
12, 157680, Note_on_c, 12, 62, 43
12, 157800, Note_on_c, 12, 62, 0
12, 157920, Note_on_c, 12, 62, 43
12, 158040, Note_on_c, 12, 62, 0
12, 158160, Note_on_c, 12, 62, 43
12, 158280, Note_on_c, 12, 62, 0
12, 158400, Note_on_c, 12, 62, 48
12, 158520, Note_on_c, 12, 62, 0
12, 158590, Program_c, 12, 48
12, 158640, Note_on_c, 12, 62, 43
12, 158700, Note_on_c, 12, 62, 0
12, 158880, Note_on_c, 12, 62, 56
12, 158940, Note_on_c, 12, 62, 0
12, 159120, Note_on_c, 12, 62, 73
12, 159180, Note_on_c, 12, 62, 0
12, 159360, Note_on_c, 12, 62, 86
12, 159420, Note_on_c, 12, 62, 0
12, 159600, Note_on_c, 12, 55, 95
12, 159720, Note_on_c, 12, 55, 0
12, 160020, Note_on_c, 12, 55, 89
12, 160050, Note_on_c, 12, 55, 0
12, 160050, Note_on_c, 12, 55, 93
12, 160080, Note_on_c, 12, 55, 0
12, 160080, Note_on_c, 12, 55, 95
12, 160200, Note_on_c, 12, 55, 0
12, 160500, Note_on_c, 12, 55, 93
12, 160530, Note_on_c, 12, 55, 0
12, 160530, Note_on_c, 12, 55, 94
12, 160560, Note_on_c, 12, 55, 0
12, 160560, Note_on_c, 12, 55, 95
12, 160620, Note_on_c, 12, 55, 0
12, 160800, Note_on_c, 12, 62, 94
12, 160860, Note_on_c, 12, 62, 0
12, 161040, Note_on_c, 12, 55, 94
12, 161100, Note_on_c, 12, 55, 0
12, 161100, End_track
13, 0, Start_track
13, 0, MIDI_port, 0
13, 0, Title_t, "Cellos"
13, 0, Control_c, 13, 7, 100
13, 0, Control_c, 13, 10, 97
13, 0, Control_c, 13, 93, 0
13, 0, Control_c, 13, 91, 66
13, 0, Control_c, 13, 0, 0
13, 0, Control_c, 13, 32, 0
13, 0, Program_c, 13, 48
13, 0, Note_on_c, 13, 48, 39
13, 120, Note_on_c, 13, 48, 0
13, 180, Note_on_c, 13, 48, 40
13, 210, Note_on_c, 13, 48, 0
13, 210, Note_on_c, 13, 48, 43
13, 240, Note_on_c, 13, 48, 0
13, 240, Note_on_c, 13, 48, 43
13, 360, Note_on_c, 13, 48, 0
13, 420, Note_on_c, 13, 48, 35
13, 450, Note_on_c, 13, 48, 0
13, 450, Note_on_c, 13, 48, 38
13, 480, Note_on_c, 13, 48, 0
13, 480, Note_on_c, 13, 48, 42
13, 540, Note_on_c, 13, 48, 0
13, 600, Note_on_c, 13, 48, 43
13, 630, Note_on_c, 13, 48, 0
13, 660, Note_on_c, 13, 48, 47
13, 690, Note_on_c, 13, 48, 0
13, 720, Note_on_c, 13, 48, 43
13, 780, Note_on_c, 13, 48, 0
13, 960, Note_on_c, 13, 45, 45
13, 990, Note_on_c, 13, 45, 0
13, 1020, Note_on_c, 13, 45, 43
13, 1035, Note_on_c, 13, 45, 0
13, 1050, Note_on_c, 13, 45, 40
13, 1065, Note_on_c, 13, 45, 0
13, 1080, Note_on_c, 13, 48, 47
13, 1110, Note_on_c, 13, 48, 0
13, 1140, Note_on_c, 13, 48, 40
13, 1155, Note_on_c, 13, 48, 0
13, 1170, Note_on_c, 13, 48, 40
13, 1185, Note_on_c, 13, 48, 0
13, 1200, Note_on_c, 13, 50, 61
13, 1260, Note_on_c, 13, 50, 0
13, 1440, Note_on_c, 13, 50, 43
13, 1470, Note_on_c, 13, 50, 0
13, 1500, Note_on_c, 13, 50, 40
13, 1515, Note_on_c, 13, 50, 0
13, 1530, Note_on_c, 13, 50, 45
13, 1545, Note_on_c, 13, 50, 0
13, 1560, Note_on_c, 13, 50, 39
13, 1590, Note_on_c, 13, 50, 0
13, 1620, Note_on_c, 13, 52, 45
13, 1635, Note_on_c, 13, 52, 0
13, 1650, Note_on_c, 13, 54, 45
13, 1665, Note_on_c, 13, 54, 0
13, 1680, Note_on_c, 13, 55, 41
13, 1710, Note_on_c, 13, 55, 0
13, 1740, Note_on_c, 13, 55, 43
13, 1755, Note_on_c, 13, 55, 0
13, 1770, Note_on_c, 13, 55, 43
13, 1785, Note_on_c, 13, 55, 0
13, 1800, Note_on_c, 13, 55, 43
13, 1830, Note_on_c, 13, 55, 0
13, 1920, Note_on_c, 13, 48, 43
13, 1950, Note_on_c, 13, 48, 0
13, 2040, Note_on_c, 13, 50, 45
13, 2070, Note_on_c, 13, 50, 0
13, 2160, Note_on_c, 13, 55, 50
13, 2400, Note_on_c, 13, 55, 0
13, 2400, Note_on_c, 13, 48, 43
13, 3360, Note_on_c, 13, 48, 0
13, 3360, Note_on_c, 13, 45, 65
13, 3480, Note_on_c, 13, 45, 0
13, 3480, Note_on_c, 13, 48, 50
13, 3600, Note_on_c, 13, 48, 0
13, 3600, Note_on_c, 13, 50, 52
13, 4080, Note_on_c, 13, 50, 0
13, 4080, Note_on_c, 13, 55, 43
13, 4320, Note_on_c, 13, 55, 0
13, 4320, Note_on_c, 13, 48, 40
13, 4440, Note_on_c, 13, 48, 0
13, 4440, Note_on_c, 13, 50, 43
13, 4560, Note_on_c, 13, 50, 0
13, 4560, Note_on_c, 13, 55, 40
13, 4800, Note_on_c, 13, 55, 0
13, 4800, Note_on_c, 13, 59, 43
13, 4920, Note_on_c, 13, 59, 0
13, 4920, Note_on_c, 13, 60, 42
13, 5040, Note_on_c, 13, 60, 0
13, 5040, Note_on_c, 13, 59, 46
13, 5160, Note_on_c, 13, 59, 0
13, 5160, Note_on_c, 13, 57, 43
13, 5280, Note_on_c, 13, 57, 0
13, 5280, Note_on_c, 13, 55, 43
13, 5400, Note_on_c, 13, 55, 0
13, 5400, Note_on_c, 13, 54, 43
13, 5520, Note_on_c, 13, 54, 0
13, 5520, Note_on_c, 13, 52, 65
13, 5580, Note_on_c, 13, 52, 0
13, 5580, Note_on_c, 13, 57, 57
13, 5640, Note_on_c, 13, 57, 0
13, 5640, Note_on_c, 13, 50, 47
13, 5700, Note_on_c, 13, 50, 0
13, 5760, Note_on_c, 13, 59, 40
13, 5880, Note_on_c, 13, 59, 0
13, 5880, Note_on_c, 13, 60, 40
13, 6000, Note_on_c, 13, 60, 0
13, 6000, Note_on_c, 13, 59, 36
13, 6120, Note_on_c, 13, 59, 0
13, 6120, Note_on_c, 13, 57, 53
13, 6240, Note_on_c, 13, 57, 0
13, 6240, Note_on_c, 13, 55, 43
13, 6360, Note_on_c, 13, 55, 0
13, 6360, Note_on_c, 13, 54, 40
13, 6480, Note_on_c, 13, 54, 0
13, 6480, Note_on_c, 13, 52, 52
13, 6540, Note_on_c, 13, 52, 0
13, 6540, Note_on_c, 13, 57, 42
13, 6600, Note_on_c, 13, 57, 0
13, 6600, Note_on_c, 13, 50, 43
13, 6660, Note_on_c, 13, 50, 0
13, 6720, Note_on_c, 13, 52, 53
13, 6780, Note_on_c, 13, 52, 0
13, 6780, Note_on_c, 13, 45, 63
13, 6840, Note_on_c, 13, 45, 0
13, 6840, Note_on_c, 13, 50, 64
13, 6900, Note_on_c, 13, 50, 0
13, 7080, Note_on_c, 13, 45, 66
13, 7140, Note_on_c, 13, 45, 0
13, 7140, Note_on_c, 13, 50, 53
13, 7200, Note_on_c, 13, 50, 0
13, 7440, Note_on_c, 13, 48, 82
13, 7500, Note_on_c, 13, 48, 0
13, 7500, Note_on_c, 13, 48, 89
13, 7740, Note_on_c, 13, 48, 0
13, 7740, Note_on_c, 13, 48, 90
13, 7980, Note_on_c, 13, 48, 0
13, 7980, Note_on_c, 13, 48, 93
13, 8100, Note_on_c, 13, 48, 0
13, 8100, Note_on_c, 13, 48, 89
13, 8220, Note_on_c, 13, 48, 0
13, 8220, Note_on_c, 13, 48, 95
13, 8460, Note_on_c, 13, 48, 0
13, 8460, Note_on_c, 13, 45, 99
13, 8580, Note_on_c, 13, 45, 0
13, 8580, Note_on_c, 13, 48, 99
13, 8700, Note_on_c, 13, 48, 0
13, 8700, Note_on_c, 13, 50, 105
13, 8940, Note_on_c, 13, 50, 0
13, 8940, Note_on_c, 13, 50, 105
13, 9060, Note_on_c, 13, 50, 0
13, 9060, Note_on_c, 13, 50, 104
13, 9180, Note_on_c, 13, 50, 0
13, 9180, Note_on_c, 13, 55, 90
13, 9300, Note_on_c, 13, 55, 0
13, 9300, Note_on_c, 13, 52, 99
13, 9360, Note_on_c, 13, 52, 0
13, 9360, Note_on_c, 13, 48, 90
13, 9420, Note_on_c, 13, 48, 0
13, 9420, Note_on_c, 13, 60, 94
13, 9540, Note_on_c, 13, 60, 0
13, 9540, Note_on_c, 13, 62, 82
13, 9600, Note_on_c, 13, 62, 0
13, 9600, Note_on_c, 13, 59, 99
13, 9630, Note_on_c, 13, 59, 0
13, 9630, Note_on_c, 13, 50, 99
13, 9660, Note_on_c, 13, 50, 0
13, 9660, Note_on_c, 13, 52, 105
13, 9690, Note_on_c, 13, 52, 0
13, 9690, Note_on_c, 13, 54, 94
13, 9720, Note_on_c, 13, 54, 0
13, 9720, Note_on_c, 13, 55, 98
13, 9750, Note_on_c, 13, 55, 0
13, 9750, Note_on_c, 13, 57, 101
13, 9780, Note_on_c, 13, 57, 0
13, 9780, Note_on_c, 13, 59, 93
13, 9810, Note_on_c, 13, 59, 0
13, 9810, Note_on_c, 13, 55, 99
13, 9840, Note_on_c, 13, 55, 0
13, 9840, Note_on_c, 13, 52, 98
13, 9870, Note_on_c, 13, 52, 0
13, 9870, Note_on_c, 13, 55, 99
13, 9900, Note_on_c, 13, 55, 0
13, 9900, Note_on_c, 13, 54, 94
13, 9930, Note_on_c, 13, 54, 0
13, 9930, Note_on_c, 13, 57, 101
13, 9960, Note_on_c, 13, 57, 0
13, 9960, Note_on_c, 13, 55, 98
13, 9990, Note_on_c, 13, 55, 0
13, 9990, Note_on_c, 13, 54, 90
13, 10020, Note_on_c, 13, 54, 0
13, 10020, Note_on_c, 13, 52, 101
13, 10050, Note_on_c, 13, 52, 0
13, 10050, Note_on_c, 13, 50, 104
13, 10080, Note_on_c, 13, 50, 0
13, 10080, Note_on_c, 13, 48, 99
13, 10110, Note_on_c, 13, 48, 0
13, 10110, Note_on_c, 13, 47, 99
13, 10140, Note_on_c, 13, 47, 0
13, 10140, Note_on_c, 13, 48, 104
13, 10170, Note_on_c, 13, 48, 0
13, 10170, Note_on_c, 13, 50, 99
13, 10200, Note_on_c, 13, 50, 0
13, 10200, Note_on_c, 13, 47, 104
13, 10230, Note_on_c, 13, 47, 0
13, 10230, Note_on_c, 13, 43, 99
13, 10260, Note_on_c, 13, 43, 0
13, 10260, Note_on_c, 13, 45, 99
13, 10290, Note_on_c, 13, 45, 0
13, 10290, Note_on_c, 13, 47, 104
13, 10320, Note_on_c, 13, 47, 0
13, 10320, Note_on_c, 13, 48, 95
13, 10350, Note_on_c, 13, 48, 0
13, 10350, Note_on_c, 13, 45, 98
13, 10380, Note_on_c, 13, 45, 0
13, 10380, Note_on_c, 13, 47, 105
13, 10410, Note_on_c, 13, 47, 0
13, 10410, Note_on_c, 13, 48, 98
13, 10440, Note_on_c, 13, 48, 0
13, 10440, Note_on_c, 13, 50, 105
13, 10500, Note_on_c, 13, 50, 0
13, 10500, Note_on_c, 13, 50, 105
13, 10560, Note_on_c, 13, 50, 0
13, 11520, Note_on_c, 13, 43, 94
13, 11550, Note_on_c, 13, 43, 0
13, 11550, Note_on_c, 13, 47, 94
13, 11580, Note_on_c, 13, 47, 0
13, 11580, Note_on_c, 13, 49, 90
13, 11610, Note_on_c, 13, 49, 0
13, 11610, Note_on_c, 13, 51, 95
13, 11640, Note_on_c, 13, 51, 0
13, 11640, Note_on_c, 13, 52, 89
13, 11670, Note_on_c, 13, 52, 0
13, 11670, Note_on_c, 13, 54, 89
13, 11700, Note_on_c, 13, 54, 0
13, 11700, Note_on_c, 13, 55, 80
13, 11730, Note_on_c, 13, 55, 0
13, 11730, Note_on_c, 13, 52, 99
13, 11760, Note_on_c, 13, 52, 0
13, 11760, Note_on_c, 13, 54, 94
13, 11790, Note_on_c, 13, 54, 0
13, 11790, Note_on_c, 13, 47, 104
13, 11820, Note_on_c, 13, 47, 0
13, 11820, Note_on_c, 13, 49, 89
13, 11850, Note_on_c, 13, 49, 0
13, 11850, Note_on_c, 13, 51, 90
13, 11880, Note_on_c, 13, 51, 0
13, 11880, Note_on_c, 13, 52, 89
13, 11910, Note_on_c, 13, 52, 0
13, 11910, Note_on_c, 13, 50, 99
13, 11940, Note_on_c, 13, 50, 0
13, 11940, Note_on_c, 13, 48, 94
13, 11970, Note_on_c, 13, 48, 0
13, 11970, Note_on_c, 13, 47, 95
13, 12000, Note_on_c, 13, 47, 0
13, 12000, Note_on_c, 13, 45, 94
13, 12030, Note_on_c, 13, 45, 0
13, 12030, Note_on_c, 13, 43, 86
13, 12060, Note_on_c, 13, 43, 0
13, 12060, Note_on_c, 13, 45, 94
13, 12090, Note_on_c, 13, 45, 0
13, 12090, Note_on_c, 13, 47, 94
13, 12120, Note_on_c, 13, 47, 0
13, 12120, Note_on_c, 13, 43, 99
13, 12150, Note_on_c, 13, 43, 0
13, 12150, Note_on_c, 13, 52, 95
13, 12180, Note_on_c, 13, 52, 0
13, 12180, Note_on_c, 13, 54, 89
13, 12210, Note_on_c, 13, 54, 0
13, 12210, Note_on_c, 13, 55, 84
13, 12240, Note_on_c, 13, 55, 0
13, 12240, Note_on_c, 13, 57, 94
13, 12270, Note_on_c, 13, 57, 0
13, 12270, Note_on_c, 13, 54, 93
13, 12300, Note_on_c, 13, 54, 0
13, 12300, Note_on_c, 13, 55, 98
13, 12330, Note_on_c, 13, 55, 0
13, 12330, Note_on_c, 13, 57, 95
13, 12360, Note_on_c, 13, 57, 0
13, 12360, Note_on_c, 13, 59, 89
13, 12390, Note_on_c, 13, 59, 0
13, 12390, Note_on_c, 13, 58, 93
13, 12420, Note_on_c, 13, 58, 0
13, 12420, Note_on_c, 13, 59, 95
13, 12450, Note_on_c, 13, 59, 0
13, 12450, Note_on_c, 13, 47, 99
13, 12480, Note_on_c, 13, 47, 0
13, 13440, Note_on_c, 13, 57, 99
13, 13470, Note_on_c, 13, 57, 0
13, 13470, Note_on_c, 13, 61, 64
13, 13500, Note_on_c, 13, 61, 0
13, 13500, Note_on_c, 13, 59, 89
13, 13530, Note_on_c, 13, 59, 0
13, 13530, Note_on_c, 13, 57, 99
13, 13560, Note_on_c, 13, 57, 0
13, 13560, Note_on_c, 13, 56, 85
13, 13590, Note_on_c, 13, 56, 0
13, 13590, Note_on_c, 13, 52, 93
13, 13620, Note_on_c, 13, 52, 0
13, 13620, Note_on_c, 13, 54, 84
13, 13650, Note_on_c, 13, 54, 0
13, 13650, Note_on_c, 13, 56, 89
13, 13680, Note_on_c, 13, 56, 0
13, 13920, Note_on_c, 13, 57, 99
13, 13950, Note_on_c, 13, 57, 0
13, 13950, Note_on_c, 13, 61, 69
13, 13980, Note_on_c, 13, 61, 0
13, 13980, Note_on_c, 13, 59, 94
13, 14010, Note_on_c, 13, 59, 0
13, 14010, Note_on_c, 13, 57, 99
13, 14040, Note_on_c, 13, 57, 0
13, 14040, Note_on_c, 13, 56, 93
13, 14070, Note_on_c, 13, 56, 0
13, 14070, Note_on_c, 13, 52, 90
13, 14100, Note_on_c, 13, 52, 0
13, 14100, Note_on_c, 13, 54, 84
13, 14130, Note_on_c, 13, 54, 0
13, 14130, Note_on_c, 13, 56, 93
13, 14160, Note_on_c, 13, 56, 0
13, 14280, Program_c, 13, 45
13, 14400, Note_on_c, 13, 45, 95
13, 14460, Note_on_c, 13, 45, 0
13, 16080, Note_on_c, 13, 45, 69
13, 16200, Note_on_c, 13, 45, 0
13, 16440, Note_on_c, 13, 45, 66
13, 16560, Note_on_c, 13, 45, 0
13, 16560, Note_on_c, 13, 45, 77
13, 16680, Note_on_c, 13, 45, 0
13, 16920, Note_on_c, 13, 45, 72
13, 17040, Note_on_c, 13, 45, 0
13, 17040, Note_on_c, 13, 45, 69
13, 17160, Note_on_c, 13, 45, 0
13, 17280, Note_on_c, 13, 45, 67
13, 17400, Note_on_c, 13, 45, 0
13, 17520, Note_on_c, 13, 45, 74
13, 17640, Note_on_c, 13, 45, 0
13, 18120, Note_on_c, 13, 45, 84
13, 18240, Note_on_c, 13, 45, 0
13, 18840, Program_c, 13, 48
13, 18960, Note_on_c, 13, 38, 57
13, 21960, Note_on_c, 13, 38, 0
13, 21960, Note_on_c, 13, 45, 94
13, 22020, Note_on_c, 13, 45, 0
13, 23760, Note_on_c, 13, 50, 43
13, 24000, Note_on_c, 13, 50, 0
13, 24000, Note_on_c, 13, 49, 43
13, 24120, Note_on_c, 13, 49, 0
13, 24120, Note_on_c, 13, 47, 64
13, 24240, Note_on_c, 13, 47, 0
13, 24240, Note_on_c, 13, 45, 54
13, 24600, Note_on_c, 13, 45, 0
13, 24600, Note_on_c, 13, 43, 53
13, 24720, Note_on_c, 13, 43, 0
13, 24720, Note_on_c, 13, 42, 52
13, 24960, Note_on_c, 13, 42, 0
13, 24960, Note_on_c, 13, 43, 60
13, 25080, Note_on_c, 13, 43, 0
13, 25080, Note_on_c, 13, 45, 59
13, 25190, Control_c, 13, 7, 100
13, 25200, Note_on_c, 13, 45, 0
13, 25200, Control_c, 13, 7, 101
13, 25200, Note_on_c, 13, 47, 66
13, 25210, Control_c, 13, 7, 102
13, 25220, Control_c, 13, 7, 103
13, 25230, Control_c, 13, 7, 104
13, 25240, Control_c, 13, 7, 105
13, 25250, Control_c, 13, 7, 106
13, 25260, Control_c, 13, 7, 107
13, 25270, Control_c, 13, 7, 108
13, 25280, Control_c, 13, 7, 109
13, 25290, Control_c, 13, 7, 110
13, 25300, Control_c, 13, 7, 111
13, 25310, Control_c, 13, 7, 112
13, 25320, Control_c, 13, 7, 114
13, 25330, Control_c, 13, 7, 115
13, 25340, Control_c, 13, 7, 116
13, 25350, Control_c, 13, 7, 117
13, 25360, Control_c, 13, 7, 118
13, 25370, Control_c, 13, 7, 119
13, 25380, Note_on_c, 13, 47, 0
13, 25380, Control_c, 13, 7, 120
13, 25380, Note_on_c, 13, 46, 67
13, 25390, Control_c, 13, 7, 121
13, 25400, Control_c, 13, 7, 122
13, 25410, Control_c, 13, 7, 123
13, 25420, Control_c, 13, 7, 124
13, 25430, Control_c, 13, 7, 125
13, 25440, Note_on_c, 13, 46, 0
13, 25440, Control_c, 13, 7, 127
13, 25440, Note_on_c, 13, 45, 69
13, 25450, Control_c, 13, 7, 127
13, 25460, Control_c, 13, 7, 126
13, 25470, Control_c, 13, 7, 125
13, 25480, Control_c, 13, 7, 124
13, 25490, Control_c, 13, 7, 123
13, 25500, Control_c, 13, 7, 122
13, 25510, Control_c, 13, 7, 120
13, 25520, Control_c, 13, 7, 119
13, 25530, Control_c, 13, 7, 118
13, 25540, Control_c, 13, 7, 117
13, 25550, Control_c, 13, 7, 116
13, 25560, Control_c, 13, 7, 115
13, 25570, Control_c, 13, 7, 113
13, 25580, Control_c, 13, 7, 112
13, 25590, Control_c, 13, 7, 111
13, 25600, Control_c, 13, 7, 110
13, 25610, Control_c, 13, 7, 109
13, 25620, Control_c, 13, 7, 108
13, 25630, Control_c, 13, 7, 106
13, 25640, Control_c, 13, 7, 105
13, 25650, Control_c, 13, 7, 104
13, 25660, Control_c, 13, 7, 103
13, 25670, Control_c, 13, 7, 102
13, 25680, Control_c, 13, 7, 100
13, 26160, Note_on_c, 13, 45, 0
13, 26160, Note_on_c, 13, 50, 94
13, 26220, Note_on_c, 13, 50, 0
13, 26640, Note_on_c, 13, 45, 99
13, 26700, Note_on_c, 13, 45, 0
13, 27120, Note_on_c, 13, 50, 94
13, 27180, Note_on_c, 13, 50, 0
13, 27600, Note_on_c, 13, 45, 99
13, 27660, Note_on_c, 13, 45, 0
13, 28080, Note_on_c, 13, 50, 99
13, 28140, Note_on_c, 13, 50, 0
13, 28320, Note_on_c, 13, 42, 86
13, 28380, Note_on_c, 13, 42, 0
13, 28560, Note_on_c, 13, 47, 64
13, 28620, Note_on_c, 13, 47, 0
13, 28680, Note_on_c, 13, 50, 85
13, 28740, Note_on_c, 13, 50, 0
13, 28800, Note_on_c, 13, 55, 59
13, 28860, Note_on_c, 13, 55, 0
13, 28920, Note_on_c, 13, 47, 58
13, 28980, Note_on_c, 13, 47, 0
13, 29040, Note_on_c, 13, 52, 76
13, 29100, Note_on_c, 13, 52, 0
13, 29160, Note_on_c, 13, 55, 68
13, 29220, Note_on_c, 13, 55, 0
13, 29280, Note_on_c, 13, 57, 73
13, 29340, Note_on_c, 13, 57, 0
13, 29520, Note_on_c, 13, 50, 43
13, 29580, Note_on_c, 13, 50, 0
13, 30000, Note_on_c, 13, 45, 35
13, 30060, Note_on_c, 13, 45, 0
13, 30480, Note_on_c, 13, 50, 29
13, 30540, Note_on_c, 13, 50, 0
13, 30960, Note_on_c, 13, 50, 40
13, 31020, Note_on_c, 13, 50, 0
13, 31440, Note_on_c, 13, 43, 44
13, 31500, Note_on_c, 13, 43, 0
13, 31920, Note_on_c, 13, 43, 99
13, 31980, Note_on_c, 13, 43, 0
13, 34020, Note_on_c, 13, 43, 73
13, 34050, Note_on_c, 13, 43, 0
13, 34050, Note_on_c, 13, 43, 62
13, 34080, Note_on_c, 13, 43, 0
13, 34080, Note_on_c, 13, 43, 60
13, 34140, Note_on_c, 13, 43, 0
13, 34500, Note_on_c, 13, 43, 67
13, 34530, Note_on_c, 13, 43, 0
13, 34530, Note_on_c, 13, 43, 71
13, 34560, Note_on_c, 13, 43, 0
13, 34560, Note_on_c, 13, 43, 72
13, 34620, Note_on_c, 13, 43, 0
13, 35940, Note_on_c, 13, 43, 89
13, 35970, Note_on_c, 13, 43, 0
13, 35970, Note_on_c, 13, 43, 86
13, 36000, Note_on_c, 13, 43, 0
13, 36000, Note_on_c, 13, 43, 86
13, 36060, Note_on_c, 13, 43, 0
13, 36420, Note_on_c, 13, 43, 86
13, 36450, Note_on_c, 13, 43, 0
13, 36450, Note_on_c, 13, 43, 84
13, 36480, Note_on_c, 13, 43, 0
13, 36480, Note_on_c, 13, 43, 90
13, 36540, Note_on_c, 13, 43, 0
13, 37200, Note_on_c, 13, 43, 44
13, 38040, Note_on_c, 13, 43, 0
13, 38040, Note_on_c, 13, 43, 44
13, 38280, Note_on_c, 13, 43, 0
13, 40560, Control_c, 13, 0, 0
13, 40560, Control_c, 13, 32, 0
13, 40560, Program_c, 13, 48
13, 40560, Control_c, 13, 7, 100
13, 40560, Control_c, 13, 10, 99
13, 40560, Note_on_c, 13, 48, 39
13, 40680, Note_on_c, 13, 48, 0
13, 40740, Note_on_c, 13, 48, 40
13, 40770, Note_on_c, 13, 48, 0
13, 40770, Note_on_c, 13, 48, 43
13, 40800, Note_on_c, 13, 48, 0
13, 40800, Note_on_c, 13, 48, 43
13, 40920, Note_on_c, 13, 48, 0
13, 40980, Note_on_c, 13, 48, 35
13, 41010, Note_on_c, 13, 48, 0
13, 41010, Note_on_c, 13, 48, 38
13, 41040, Note_on_c, 13, 48, 0
13, 41040, Note_on_c, 13, 48, 42
13, 41100, Note_on_c, 13, 48, 0
13, 41160, Note_on_c, 13, 48, 43
13, 41190, Note_on_c, 13, 48, 0
13, 41220, Note_on_c, 13, 48, 47
13, 41250, Note_on_c, 13, 48, 0
13, 41280, Note_on_c, 13, 48, 43
13, 41340, Note_on_c, 13, 48, 0
13, 41520, Note_on_c, 13, 45, 45
13, 41550, Note_on_c, 13, 45, 0
13, 41580, Note_on_c, 13, 45, 43
13, 41595, Note_on_c, 13, 45, 0
13, 41610, Note_on_c, 13, 45, 40
13, 41625, Note_on_c, 13, 45, 0
13, 41640, Note_on_c, 13, 48, 47
13, 41670, Note_on_c, 13, 48, 0
13, 41700, Note_on_c, 13, 48, 40
13, 41715, Note_on_c, 13, 48, 0
13, 41730, Note_on_c, 13, 48, 40
13, 41745, Note_on_c, 13, 48, 0
13, 41760, Note_on_c, 13, 50, 61
13, 41820, Note_on_c, 13, 50, 0
13, 42000, Note_on_c, 13, 50, 43
13, 42030, Note_on_c, 13, 50, 0
13, 42060, Note_on_c, 13, 50, 40
13, 42075, Note_on_c, 13, 50, 0
13, 42090, Note_on_c, 13, 50, 45
13, 42105, Note_on_c, 13, 50, 0
13, 42120, Note_on_c, 13, 50, 39
13, 42150, Note_on_c, 13, 50, 0
13, 42180, Note_on_c, 13, 52, 45
13, 42195, Note_on_c, 13, 52, 0
13, 42210, Note_on_c, 13, 54, 45
13, 42225, Note_on_c, 13, 54, 0
13, 42240, Note_on_c, 13, 55, 41
13, 42270, Note_on_c, 13, 55, 0
13, 42300, Note_on_c, 13, 55, 43
13, 42315, Note_on_c, 13, 55, 0
13, 42330, Note_on_c, 13, 55, 43
13, 42345, Note_on_c, 13, 55, 0
13, 42360, Note_on_c, 13, 55, 43
13, 42390, Note_on_c, 13, 55, 0
13, 42480, Note_on_c, 13, 48, 43
13, 42510, Note_on_c, 13, 48, 0
13, 42600, Note_on_c, 13, 50, 45
13, 42630, Note_on_c, 13, 50, 0
13, 42720, Note_on_c, 13, 55, 50
13, 42960, Note_on_c, 13, 55, 0
13, 42960, Note_on_c, 13, 48, 43
13, 43920, Note_on_c, 13, 48, 0
13, 43920, Note_on_c, 13, 45, 65
13, 44040, Note_on_c, 13, 45, 0
13, 44040, Note_on_c, 13, 48, 50
13, 44160, Note_on_c, 13, 48, 0
13, 44160, Note_on_c, 13, 50, 52
13, 44640, Note_on_c, 13, 50, 0
13, 44640, Note_on_c, 13, 55, 43
13, 44880, Note_on_c, 13, 55, 0
13, 44880, Note_on_c, 13, 48, 40
13, 45000, Note_on_c, 13, 48, 0
13, 45000, Note_on_c, 13, 50, 43
13, 45120, Note_on_c, 13, 50, 0
13, 45120, Note_on_c, 13, 55, 40
13, 45360, Note_on_c, 13, 55, 0
13, 45360, Note_on_c, 13, 59, 43
13, 45480, Note_on_c, 13, 59, 0
13, 45480, Note_on_c, 13, 60, 42
13, 45600, Note_on_c, 13, 60, 0
13, 45600, Note_on_c, 13, 59, 46
13, 45720, Note_on_c, 13, 59, 0
13, 45720, Note_on_c, 13, 57, 43
13, 45840, Note_on_c, 13, 57, 0
13, 45840, Note_on_c, 13, 55, 43
13, 45960, Note_on_c, 13, 55, 0
13, 45960, Note_on_c, 13, 54, 43
13, 46080, Note_on_c, 13, 54, 0
13, 46080, Note_on_c, 13, 52, 65
13, 46140, Note_on_c, 13, 52, 0
13, 46140, Note_on_c, 13, 57, 57
13, 46200, Note_on_c, 13, 57, 0
13, 46200, Note_on_c, 13, 50, 47
13, 46260, Note_on_c, 13, 50, 0
13, 46320, Note_on_c, 13, 59, 40
13, 46440, Note_on_c, 13, 59, 0
13, 46440, Note_on_c, 13, 60, 40
13, 46560, Note_on_c, 13, 60, 0
13, 46560, Note_on_c, 13, 59, 36
13, 46680, Note_on_c, 13, 59, 0
13, 46680, Note_on_c, 13, 57, 53
13, 46800, Note_on_c, 13, 57, 0
13, 46800, Note_on_c, 13, 55, 43
13, 46920, Note_on_c, 13, 55, 0
13, 46920, Note_on_c, 13, 54, 40
13, 47040, Note_on_c, 13, 54, 0
13, 47040, Note_on_c, 13, 52, 52
13, 47100, Note_on_c, 13, 52, 0
13, 47100, Note_on_c, 13, 57, 42
13, 47160, Note_on_c, 13, 57, 0
13, 47160, Note_on_c, 13, 50, 43
13, 47220, Note_on_c, 13, 50, 0
13, 47280, Note_on_c, 13, 52, 53
13, 47340, Note_on_c, 13, 52, 0
13, 47340, Note_on_c, 13, 45, 63
13, 47400, Note_on_c, 13, 45, 0
13, 47400, Note_on_c, 13, 50, 64
13, 47460, Note_on_c, 13, 50, 0
13, 47640, Note_on_c, 13, 45, 66
13, 47700, Note_on_c, 13, 45, 0
13, 47700, Note_on_c, 13, 50, 53
13, 47760, Note_on_c, 13, 50, 0
13, 48000, Note_on_c, 13, 48, 82
13, 48060, Note_on_c, 13, 48, 0
13, 48060, Note_on_c, 13, 48, 89
13, 48300, Note_on_c, 13, 48, 0
13, 48300, Note_on_c, 13, 48, 90
13, 48540, Note_on_c, 13, 48, 0
13, 48540, Note_on_c, 13, 48, 93
13, 48660, Note_on_c, 13, 48, 0
13, 48660, Note_on_c, 13, 48, 89
13, 48780, Note_on_c, 13, 48, 0
13, 48780, Note_on_c, 13, 48, 95
13, 49020, Note_on_c, 13, 48, 0
13, 49020, Note_on_c, 13, 45, 99
13, 49140, Note_on_c, 13, 45, 0
13, 49140, Note_on_c, 13, 48, 99
13, 49260, Note_on_c, 13, 48, 0
13, 49260, Note_on_c, 13, 50, 105
13, 49500, Note_on_c, 13, 50, 0
13, 49500, Note_on_c, 13, 50, 105
13, 49620, Note_on_c, 13, 50, 0
13, 49620, Note_on_c, 13, 50, 104
13, 49740, Note_on_c, 13, 50, 0
13, 49740, Note_on_c, 13, 55, 90
13, 49860, Note_on_c, 13, 55, 0
13, 49860, Note_on_c, 13, 52, 99
13, 49920, Note_on_c, 13, 52, 0
13, 49920, Note_on_c, 13, 48, 90
13, 49980, Note_on_c, 13, 48, 0
13, 49980, Note_on_c, 13, 60, 94
13, 50100, Note_on_c, 13, 60, 0
13, 50100, Note_on_c, 13, 62, 82
13, 50160, Note_on_c, 13, 62, 0
13, 50160, Note_on_c, 13, 59, 99
13, 50190, Note_on_c, 13, 59, 0
13, 50190, Note_on_c, 13, 50, 99
13, 50220, Note_on_c, 13, 50, 0
13, 50220, Note_on_c, 13, 52, 105
13, 50250, Note_on_c, 13, 52, 0
13, 50250, Note_on_c, 13, 54, 94
13, 50280, Note_on_c, 13, 54, 0
13, 50280, Note_on_c, 13, 55, 98
13, 50310, Note_on_c, 13, 55, 0
13, 50310, Note_on_c, 13, 57, 101
13, 50340, Note_on_c, 13, 57, 0
13, 50340, Note_on_c, 13, 59, 93
13, 50370, Note_on_c, 13, 59, 0
13, 50370, Note_on_c, 13, 55, 99
13, 50400, Note_on_c, 13, 55, 0
13, 50400, Note_on_c, 13, 52, 98
13, 50430, Note_on_c, 13, 52, 0
13, 50430, Note_on_c, 13, 55, 99
13, 50460, Note_on_c, 13, 55, 0
13, 50460, Note_on_c, 13, 54, 94
13, 50490, Note_on_c, 13, 54, 0
13, 50490, Note_on_c, 13, 57, 101
13, 50520, Note_on_c, 13, 57, 0
13, 50520, Note_on_c, 13, 55, 98
13, 50550, Note_on_c, 13, 55, 0
13, 50550, Note_on_c, 13, 54, 90
13, 50580, Note_on_c, 13, 54, 0
13, 50580, Note_on_c, 13, 52, 101
13, 50610, Note_on_c, 13, 52, 0
13, 50610, Note_on_c, 13, 50, 104
13, 50640, Note_on_c, 13, 50, 0
13, 50640, Note_on_c, 13, 48, 99
13, 50670, Note_on_c, 13, 48, 0
13, 50670, Note_on_c, 13, 47, 99
13, 50700, Note_on_c, 13, 47, 0
13, 50700, Note_on_c, 13, 48, 104
13, 50730, Note_on_c, 13, 48, 0
13, 50730, Note_on_c, 13, 50, 99
13, 50760, Note_on_c, 13, 50, 0
13, 50760, Note_on_c, 13, 47, 104
13, 50790, Note_on_c, 13, 47, 0
13, 50790, Note_on_c, 13, 43, 99
13, 50820, Note_on_c, 13, 43, 0
13, 50820, Note_on_c, 13, 45, 99
13, 50850, Note_on_c, 13, 45, 0
13, 50850, Note_on_c, 13, 47, 104
13, 50880, Note_on_c, 13, 47, 0
13, 50880, Note_on_c, 13, 48, 95
13, 50910, Note_on_c, 13, 48, 0
13, 50910, Note_on_c, 13, 45, 98
13, 50940, Note_on_c, 13, 45, 0
13, 50940, Note_on_c, 13, 47, 105
13, 50970, Note_on_c, 13, 47, 0
13, 50970, Note_on_c, 13, 48, 98
13, 51000, Note_on_c, 13, 48, 0
13, 51000, Note_on_c, 13, 50, 105
13, 51060, Note_on_c, 13, 50, 0
13, 51060, Note_on_c, 13, 50, 105
13, 51120, Note_on_c, 13, 50, 0
13, 52080, Note_on_c, 13, 43, 89
13, 52110, Note_on_c, 13, 43, 0
13, 52110, Note_on_c, 13, 46, 93
13, 52140, Note_on_c, 13, 46, 0
13, 52140, Note_on_c, 13, 48, 93
13, 52170, Note_on_c, 13, 48, 0
13, 52170, Note_on_c, 13, 50, 94
13, 52200, Note_on_c, 13, 50, 0
13, 52200, Note_on_c, 13, 51, 90
13, 52230, Note_on_c, 13, 51, 0
13, 52230, Note_on_c, 13, 53, 80
13, 52260, Note_on_c, 13, 53, 0
13, 52260, Note_on_c, 13, 55, 82
13, 52290, Note_on_c, 13, 55, 0
13, 52290, Note_on_c, 13, 51, 93
13, 52320, Note_on_c, 13, 51, 0
13, 52320, Note_on_c, 13, 53, 81
13, 52350, Note_on_c, 13, 53, 0
13, 52350, Note_on_c, 13, 46, 89
13, 52380, Note_on_c, 13, 46, 0
13, 52380, Note_on_c, 13, 48, 89
13, 52410, Note_on_c, 13, 48, 0
13, 52410, Note_on_c, 13, 50, 85
13, 52440, Note_on_c, 13, 50, 0
13, 52440, Note_on_c, 13, 51, 89
13, 52470, Note_on_c, 13, 51, 0
13, 52470, Note_on_c, 13, 50, 85
13, 52500, Note_on_c, 13, 50, 0
13, 52500, Note_on_c, 13, 48, 93
13, 52530, Note_on_c, 13, 48, 0
13, 52530, Note_on_c, 13, 46, 93
13, 52560, Note_on_c, 13, 46, 0
13, 52560, Note_on_c, 13, 44, 89
13, 52590, Note_on_c, 13, 44, 0
13, 52590, Note_on_c, 13, 43, 95
13, 52620, Note_on_c, 13, 43, 0
13, 52620, Note_on_c, 13, 44, 89
13, 52650, Note_on_c, 13, 44, 0
13, 52650, Note_on_c, 13, 46, 94
13, 52680, Note_on_c, 13, 46, 0
13, 52680, Note_on_c, 13, 43, 94
13, 52710, Note_on_c, 13, 43, 0
13, 52710, Note_on_c, 13, 39, 94
13, 52740, Note_on_c, 13, 39, 0
13, 52740, Note_on_c, 13, 41, 89
13, 52770, Note_on_c, 13, 41, 0
13, 52770, Note_on_c, 13, 43, 89
13, 52800, Note_on_c, 13, 43, 0
13, 52800, Note_on_c, 13, 44, 94
13, 52830, Note_on_c, 13, 44, 0
13, 52830, Note_on_c, 13, 41, 89
13, 52860, Note_on_c, 13, 41, 0
13, 52860, Note_on_c, 13, 43, 99
13, 52890, Note_on_c, 13, 43, 0
13, 52890, Note_on_c, 13, 44, 94
13, 52920, Note_on_c, 13, 44, 0
13, 52920, Note_on_c, 13, 46, 95
13, 52950, Note_on_c, 13, 46, 0
13, 52950, Note_on_c, 13, 58, 84
13, 52980, Note_on_c, 13, 58, 0
13, 52980, Note_on_c, 13, 58, 80
13, 53010, Note_on_c, 13, 58, 0
13, 53010, Note_on_c, 13, 58, 84
13, 53040, Note_on_c, 13, 58, 0
13, 53940, Note_on_c, 13, 46, 74
13, 54000, Note_on_c, 13, 46, 0
13, 54000, Note_on_c, 13, 51, 95
13, 54090, Control_c, 13, 7, 100
13, 54095, Control_c, 13, 7, 96
13, 54100, Control_c, 13, 7, 91
13, 54105, Control_c, 13, 7, 86
13, 54110, Control_c, 13, 7, 82
13, 54115, Control_c, 13, 7, 77
13, 54120, Control_c, 13, 7, 72
13, 54125, Control_c, 13, 7, 67
13, 54960, Note_on_c, 13, 51, 0
13, 54960, Note_on_c, 13, 50, 99
13, 54965, Control_c, 13, 7, 100
13, 55045, Control_c, 13, 7, 98
13, 55050, Control_c, 13, 7, 94
13, 55055, Control_c, 13, 7, 90
13, 55060, Control_c, 13, 7, 85
13, 55065, Control_c, 13, 7, 81
13, 55070, Control_c, 13, 7, 76
13, 55075, Control_c, 13, 7, 72
13, 55080, Control_c, 13, 7, 67
13, 55920, Note_on_c, 13, 50, 0
13, 55920, Note_on_c, 13, 51, 74
13, 55950, Note_on_c, 13, 51, 0
13, 56040, Control_c, 13, 7, 100
13, 56280, Program_c, 13, 45
13, 56400, Note_on_c, 13, 48, 43
13, 56460, Note_on_c, 13, 48, 0
13, 56520, Note_on_c, 13, 51, 55
13, 56580, Note_on_c, 13, 51, 0
13, 56640, Note_on_c, 13, 53, 43
13, 56700, Note_on_c, 13, 53, 0
13, 56760, Program_c, 13, 48
13, 56880, Note_on_c, 13, 46, 105
13, 56940, Note_on_c, 13, 46, 0
13, 56940, Note_on_c, 13, 46, 84
13, 57000, Note_on_c, 13, 46, 0
13, 57000, Note_on_c, 13, 49, 73
13, 57060, Note_on_c, 13, 49, 0
13, 57060, Note_on_c, 13, 53, 64
13, 57120, Note_on_c, 13, 53, 0
13, 57120, Note_on_c, 13, 58, 64
13, 57180, Note_on_c, 13, 58, 0
13, 57360, Note_on_c, 13, 46, 71
13, 57600, Note_on_c, 13, 46, 0
13, 57600, Note_on_c, 13, 58, 46
13, 57660, Note_on_c, 13, 58, 0
13, 57660, Note_on_c, 13, 53, 72
13, 57720, Note_on_c, 13, 53, 0
13, 57720, Note_on_c, 13, 49, 71
13, 57780, Note_on_c, 13, 49, 0
13, 57780, Note_on_c, 13, 46, 80
13, 57840, Note_on_c, 13, 46, 0
13, 57840, Note_on_c, 13, 45, 110
13, 57900, Note_on_c, 13, 45, 0
13, 57900, Note_on_c, 13, 48, 68
13, 57960, Note_on_c, 13, 48, 0
13, 57960, Note_on_c, 13, 53, 59
13, 58020, Note_on_c, 13, 53, 0
13, 58020, Note_on_c, 13, 57, 73
13, 58080, Note_on_c, 13, 57, 0
13, 58080, Note_on_c, 13, 60, 59
13, 58140, Note_on_c, 13, 60, 0
13, 58320, Note_on_c, 13, 45, 63
13, 58620, Note_on_c, 13, 45, 0
13, 58620, Note_on_c, 13, 48, 74
13, 58680, Note_on_c, 13, 48, 0
13, 58680, Note_on_c, 13, 45, 77
13, 58740, Note_on_c, 13, 45, 0
13, 58740, Note_on_c, 13, 53, 45
13, 58800, Note_on_c, 13, 53, 0
13, 58800, Note_on_c, 13, 46, 64
13, 58860, Note_on_c, 13, 46, 0
13, 59160, Program_c, 13, 45
13, 59280, Note_on_c, 13, 43, 43
13, 59340, Note_on_c, 13, 43, 0
13, 59400, Note_on_c, 13, 46, 44
13, 59460, Note_on_c, 13, 46, 0
13, 59520, Note_on_c, 13, 48, 46
13, 59580, Note_on_c, 13, 48, 0
13, 59640, Program_c, 13, 48
13, 59760, Note_on_c, 13, 41, 94
13, 59880, Control_c, 13, 7, 99
13, 59885, Control_c, 13, 7, 97
13, 59890, Control_c, 13, 7, 95
13, 59895, Control_c, 13, 7, 93
13, 59900, Control_c, 13, 7, 91
13, 59905, Control_c, 13, 7, 89
13, 59910, Control_c, 13, 7, 87
13, 59915, Control_c, 13, 7, 84
13, 59920, Control_c, 13, 7, 82
13, 59925, Control_c, 13, 7, 80
13, 59930, Control_c, 13, 7, 78
13, 59935, Control_c, 13, 7, 76
13, 59940, Control_c, 13, 7, 74
13, 59945, Control_c, 13, 7, 71
13, 60720, Note_on_c, 13, 41, 0
13, 60720, Control_c, 13, 7, 99
13, 60720, Note_on_c, 13, 40, 99
13, 60845, Control_c, 13, 7, 98
13, 60850, Control_c, 13, 7, 97
13, 60855, Control_c, 13, 7, 95
13, 60860, Control_c, 13, 7, 93
13, 60865, Control_c, 13, 7, 92
13, 60870, Control_c, 13, 7, 90
13, 60875, Control_c, 13, 7, 88
13, 60880, Control_c, 13, 7, 87
13, 60885, Control_c, 13, 7, 85
13, 60890, Control_c, 13, 7, 83
13, 60895, Control_c, 13, 7, 82
13, 60900, Control_c, 13, 7, 80
13, 60905, Control_c, 13, 7, 78
13, 60910, Control_c, 13, 7, 77
13, 60915, Control_c, 13, 7, 75
13, 60920, Control_c, 13, 7, 73
13, 60925, Control_c, 13, 7, 71
13, 61680, Note_on_c, 13, 40, 0
13, 61680, Control_c, 13, 7, 100
13, 61680, Note_on_c, 13, 39, 93
13, 61740, Note_on_c, 13, 39, 0
13, 62280, Program_c, 13, 45
13, 62640, Note_on_c, 13, 48, 76
13, 62700, Note_on_c, 13, 48, 0
13, 62760, Note_on_c, 13, 54, 74
13, 62820, Note_on_c, 13, 54, 0
13, 62820, Note_on_c, 13, 57, 84
13, 62880, Note_on_c, 13, 57, 0
13, 62880, Note_on_c, 13, 60, 72
13, 62940, Note_on_c, 13, 60, 0
13, 63600, Note_on_c, 13, 46, 99
13, 63660, Note_on_c, 13, 46, 0
13, 63720, Note_on_c, 13, 50, 104
13, 63780, Note_on_c, 13, 50, 0
13, 63780, Note_on_c, 13, 55, 94
13, 63840, Note_on_c, 13, 55, 0
13, 63840, Note_on_c, 13, 58, 76
13, 63900, Note_on_c, 13, 58, 0
13, 64560, Note_on_c, 13, 41, 82
13, 64620, Note_on_c, 13, 41, 0
13, 64680, Note_on_c, 13, 47, 89
13, 64740, Note_on_c, 13, 47, 0
13, 64740, Note_on_c, 13, 50, 95
13, 64800, Note_on_c, 13, 50, 0
13, 64800, Note_on_c, 13, 53, 90
13, 64860, Note_on_c, 13, 53, 0
13, 65520, Note_on_c, 13, 51, 84
13, 65580, Note_on_c, 13, 51, 0
13, 65640, Note_on_c, 13, 55, 86
13, 65700, Note_on_c, 13, 55, 0
13, 65700, Note_on_c, 13, 60, 84
13, 65760, Note_on_c, 13, 60, 0
13, 65760, Note_on_c, 13, 63, 78
13, 65820, Note_on_c, 13, 63, 0
13, 66480, Note_on_c, 13, 45, 80
13, 66540, Note_on_c, 13, 45, 0
13, 66600, Note_on_c, 13, 49, 81
13, 66660, Note_on_c, 13, 49, 0
13, 66660, Note_on_c, 13, 52, 90
13, 66720, Note_on_c, 13, 52, 0
13, 66720, Note_on_c, 13, 57, 81
13, 66780, Note_on_c, 13, 57, 0
13, 67200, Program_c, 13, 48
13, 67440, Note_on_c, 13, 50, 94
13, 67500, Note_on_c, 13, 50, 0
13, 68340, Note_on_c, 13, 43, 68
13, 68400, Note_on_c, 13, 43, 0
13, 68400, Note_on_c, 13, 50, 95
13, 68460, Note_on_c, 13, 50, 0
13, 69300, Note_on_c, 13, 43, 68
13, 69360, Note_on_c, 13, 43, 0
13, 69360, Note_on_c, 13, 50, 95
13, 69420, Note_on_c, 13, 50, 0
13, 70920, Program_c, 13, 45
13, 71040, Note_on_c, 13, 50, 68
13, 71160, Note_on_c, 13, 50, 0
13, 71400, Note_on_c, 13, 50, 53
13, 71520, Note_on_c, 13, 50, 0
13, 71520, Note_on_c, 13, 50, 59
13, 71640, Note_on_c, 13, 50, 0
13, 71880, Note_on_c, 13, 50, 61
13, 72000, Note_on_c, 13, 50, 0
13, 72000, Note_on_c, 13, 50, 64
13, 72120, Note_on_c, 13, 50, 0
13, 72240, Note_on_c, 13, 50, 53
13, 72360, Note_on_c, 13, 50, 0
13, 72480, Note_on_c, 13, 50, 63
13, 72600, Note_on_c, 13, 50, 0
13, 73080, Note_on_c, 13, 50, 59
13, 73200, Note_on_c, 13, 50, 0
13, 73800, Program_c, 13, 48
13, 73920, Note_on_c, 13, 43, 54
13, 76800, Note_on_c, 13, 43, 0
13, 76800, Note_on_c, 13, 43, 89
13, 76920, Note_on_c, 13, 43, 0
13, 76920, Note_on_c, 13, 38, 101
13, 76980, Note_on_c, 13, 38, 0
13, 78720, Note_on_c, 13, 55, 39
13, 78960, Note_on_c, 13, 55, 0
13, 78960, Note_on_c, 13, 54, 37
13, 79080, Note_on_c, 13, 54, 0
13, 79080, Note_on_c, 13, 52, 42
13, 79200, Note_on_c, 13, 52, 0
13, 79200, Note_on_c, 13, 50, 46
13, 79560, Note_on_c, 13, 50, 0
13, 79560, Note_on_c, 13, 48, 43
13, 79680, Note_on_c, 13, 48, 0
13, 79680, Note_on_c, 13, 47, 29
13, 79920, Note_on_c, 13, 47, 0
13, 79920, Note_on_c, 13, 48, 52
13, 80040, Note_on_c, 13, 48, 0
13, 80040, Note_on_c, 13, 50, 51
13, 80160, Note_on_c, 13, 50, 0
13, 80160, Note_on_c, 13, 52, 81
13, 80340, Note_on_c, 13, 52, 0
13, 80340, Note_on_c, 13, 51, 94
13, 80400, Note_on_c, 13, 51, 0
13, 80400, Note_on_c, 13, 50, 104
13, 80440, Control_c, 13, 7, 99
13, 80450, Control_c, 13, 7, 98
13, 80455, Control_c, 13, 7, 97
13, 80460, Control_c, 13, 7, 96
13, 80465, Control_c, 13, 7, 95
13, 80470, Control_c, 13, 7, 94
13, 80475, Control_c, 13, 7, 93
13, 80480, Control_c, 13, 7, 92
13, 80485, Control_c, 13, 7, 91
13, 80490, Control_c, 13, 7, 90
13, 80495, Control_c, 13, 7, 89
13, 80500, Control_c, 13, 7, 88
13, 80505, Control_c, 13, 7, 87
13, 80510, Control_c, 13, 7, 86
13, 80515, Control_c, 13, 7, 85
13, 80520, Control_c, 13, 7, 84
13, 80525, Control_c, 13, 7, 83
13, 80530, Control_c, 13, 7, 82
13, 80535, Control_c, 13, 7, 81
13, 80545, Control_c, 13, 7, 80
13, 80550, Control_c, 13, 7, 79
13, 80555, Control_c, 13, 7, 78
13, 80560, Control_c, 13, 7, 77
13, 80565, Control_c, 13, 7, 76
13, 80570, Control_c, 13, 7, 75
13, 80575, Control_c, 13, 7, 74
13, 80580, Control_c, 13, 7, 73
13, 80585, Control_c, 13, 7, 72
13, 80590, Control_c, 13, 7, 71
13, 80595, Control_c, 13, 7, 70
13, 80600, Control_c, 13, 7, 69
13, 80605, Control_c, 13, 7, 68
13, 80610, Control_c, 13, 7, 67
13, 80615, Control_c, 13, 7, 66
13, 80620, Control_c, 13, 7, 65
13, 80625, Control_c, 13, 7, 64
13, 80630, Control_c, 13, 7, 63
13, 80635, Control_c, 13, 7, 62
13, 81120, Note_on_c, 13, 50, 0
13, 81120, Note_on_c, 13, 43, 93
13, 81125, Control_c, 13, 7, 100
13, 81180, Note_on_c, 13, 43, 0
13, 81600, Note_on_c, 13, 50, 89
13, 81660, Note_on_c, 13, 50, 0
13, 82080, Note_on_c, 13, 43, 90
13, 82140, Note_on_c, 13, 43, 0
13, 82560, Note_on_c, 13, 50, 94
13, 82620, Note_on_c, 13, 50, 0
13, 83040, Note_on_c, 13, 43, 86
13, 83100, Note_on_c, 13, 43, 0
13, 83280, Note_on_c, 13, 47, 89
13, 83340, Note_on_c, 13, 47, 0
13, 83520, Note_on_c, 13, 52, 76
13, 83580, Note_on_c, 13, 52, 0
13, 83640, Note_on_c, 13, 43, 73
13, 83700, Note_on_c, 13, 43, 0
13, 83760, Note_on_c, 13, 48, 70
13, 83820, Note_on_c, 13, 48, 0
13, 83880, Note_on_c, 13, 52, 67
13, 83940, Note_on_c, 13, 52, 0
13, 84000, Note_on_c, 13, 57, 64
13, 84060, Note_on_c, 13, 57, 0
13, 84120, Note_on_c, 13, 48, 63
13, 84180, Note_on_c, 13, 48, 0
13, 84240, Note_on_c, 13, 50, 73
13, 84300, Note_on_c, 13, 50, 0
13, 84480, Note_on_c, 13, 43, 52
13, 84540, Note_on_c, 13, 43, 0
13, 84960, Note_on_c, 13, 50, 40
13, 85020, Note_on_c, 13, 50, 0
13, 85440, Note_on_c, 13, 43, 38
13, 85500, Note_on_c, 13, 43, 0
13, 85920, Note_on_c, 13, 43, 39
13, 85980, Note_on_c, 13, 43, 0
13, 86400, Note_on_c, 13, 39, 35
13, 86460, Note_on_c, 13, 39, 0
13, 86880, Note_on_c, 13, 39, 86
13, 86940, Note_on_c, 13, 39, 0
13, 87840, Note_on_c, 13, 51, 76
13, 87900, Note_on_c, 13, 51, 0
13, 88980, Note_on_c, 13, 51, 62
13, 89010, Note_on_c, 13, 51, 0
13, 89010, Note_on_c, 13, 51, 71
13, 89040, Note_on_c, 13, 51, 0
13, 89040, Note_on_c, 13, 51, 48
13, 89100, Note_on_c, 13, 51, 0
13, 89460, Note_on_c, 13, 51, 41
13, 89490, Note_on_c, 13, 51, 0
13, 89490, Note_on_c, 13, 51, 45
13, 89520, Note_on_c, 13, 51, 0
13, 89520, Note_on_c, 13, 51, 43
13, 89580, Note_on_c, 13, 51, 0
13, 90660, Note_on_c, 13, 51, 35
13, 90690, Note_on_c, 13, 51, 0
13, 90690, Note_on_c, 13, 51, 29
13, 90720, Note_on_c, 13, 51, 0
13, 90720, Note_on_c, 13, 51, 32
13, 91200, Note_on_c, 13, 51, 0
13, 91200, Note_on_c, 13, 48, 29
13, 91320, Note_on_c, 13, 48, 0
13, 91320, Note_on_c, 13, 51, 32
13, 91440, Note_on_c, 13, 51, 0
13, 91440, Note_on_c, 13, 53, 39
13, 94080, Note_on_c, 13, 53, 0
13, 94080, Program_c, 13, 45
13, 94080, Note_on_c, 13, 41, 44
13, 94140, Note_on_c, 13, 41, 0
13, 94320, Note_on_c, 13, 46, 55
13, 94380, Note_on_c, 13, 46, 0
13, 94560, Note_on_c, 13, 41, 53
13, 94620, Note_on_c, 13, 41, 0
13, 94800, Note_on_c, 13, 46, 53
13, 94860, Note_on_c, 13, 46, 0
13, 95040, Note_on_c, 13, 43, 44
13, 95100, Note_on_c, 13, 43, 0
13, 95280, Note_on_c, 13, 48, 45
13, 95340, Note_on_c, 13, 48, 0
13, 95520, Note_on_c, 13, 43, 43
13, 95580, Note_on_c, 13, 43, 0
13, 95760, Note_on_c, 13, 48, 43
13, 95820, Note_on_c, 13, 48, 0
13, 95880, Program_c, 13, 48
13, 96000, Note_on_c, 13, 51, 104
13, 96030, Note_on_c, 13, 51, 0
13, 96120, Note_on_c, 13, 44, 94
13, 96150, Note_on_c, 13, 44, 0
13, 96240, Note_on_c, 13, 42, 99
13, 96960, Note_on_c, 13, 42, 0
13, 96960, Note_on_c, 13, 51, 99
13, 96990, Note_on_c, 13, 51, 0
13, 97080, Note_on_c, 13, 44, 99
13, 97110, Note_on_c, 13, 44, 0
13, 97200, Note_on_c, 13, 42, 105
13, 97920, Note_on_c, 13, 42, 0
13, 97920, Note_on_c, 13, 41, 105
13, 98160, Note_on_c, 13, 41, 0
13, 98160, Note_on_c, 13, 40, 112
13, 98400, Note_on_c, 13, 40, 0
13, 98400, Note_on_c, 13, 38, 99
13, 98400, Note_on_c, 13, 50, 99
13, 98640, Note_on_c, 13, 50, 0
13, 98640, Note_on_c, 13, 38, 0
13, 98640, Note_on_c, 13, 43, 101
13, 98700, Note_on_c, 13, 43, 0
13, 101040, Note_on_c, 13, 43, 45
13, 101105, Control_c, 13, 7, 99
13, 101120, Control_c, 13, 7, 98
13, 101135, Control_c, 13, 7, 97
13, 101145, Control_c, 13, 7, 96
13, 101160, Control_c, 13, 7, 95
13, 101175, Control_c, 13, 7, 94
13, 101185, Control_c, 13, 7, 93
13, 101200, Control_c, 13, 7, 92
13, 101210, Control_c, 13, 7, 91
13, 101225, Control_c, 13, 7, 90
13, 101240, Control_c, 13, 7, 89
13, 101250, Control_c, 13, 7, 88
13, 101265, Control_c, 13, 7, 87
13, 101275, Control_c, 13, 7, 86
13, 101290, Control_c, 13, 7, 85
13, 101305, Control_c, 13, 7, 84
13, 101315, Control_c, 13, 7, 83
13, 101330, Control_c, 13, 7, 82
13, 101345, Control_c, 13, 7, 81
13, 101355, Control_c, 13, 7, 80
13, 101370, Control_c, 13, 7, 79
13, 101380, Control_c, 13, 7, 78
13, 101395, Control_c, 13, 7, 77
13, 101410, Control_c, 13, 7, 76
13, 101420, Control_c, 13, 7, 75
13, 101435, Control_c, 13, 7, 74
13, 101445, Control_c, 13, 7, 73
13, 101460, Control_c, 13, 7, 72
13, 101475, Control_c, 13, 7, 71
13, 101485, Control_c, 13, 7, 70
13, 101500, Control_c, 13, 7, 69
13, 101510, Control_c, 13, 7, 68
13, 102000, Note_on_c, 13, 43, 0
13, 102060, Control_c, 13, 7, 100
13, 103680, Program_c, 13, 45
13, 103920, Note_on_c, 13, 48, 43
13, 103980, Note_on_c, 13, 48, 0
13, 104160, Note_on_c, 13, 48, 33
13, 104220, Note_on_c, 13, 48, 0
13, 104400, Note_on_c, 13, 48, 43
13, 104460, Note_on_c, 13, 48, 0
13, 104520, Note_on_c, 13, 48, 43
13, 104580, Note_on_c, 13, 48, 0
13, 104580, Note_on_c, 13, 48, 40
13, 104640, Note_on_c, 13, 48, 0
13, 104640, Note_on_c, 13, 48, 43
13, 104700, Note_on_c, 13, 48, 0
13, 104880, Note_on_c, 13, 45, 43
13, 104940, Note_on_c, 13, 45, 0
13, 105000, Note_on_c, 13, 48, 50
13, 105060, Note_on_c, 13, 48, 0
13, 105120, Note_on_c, 13, 50, 58
13, 105180, Note_on_c, 13, 50, 0
13, 105360, Note_on_c, 13, 50, 40
13, 105420, Note_on_c, 13, 50, 0
13, 105480, Note_on_c, 13, 50, 43
13, 105540, Note_on_c, 13, 50, 0
13, 105600, Note_on_c, 13, 55, 43
13, 105660, Note_on_c, 13, 55, 0
13, 105720, Note_on_c, 13, 52, 45
13, 105780, Note_on_c, 13, 52, 0
13, 105840, Note_on_c, 13, 48, 43
13, 105900, Note_on_c, 13, 48, 0
13, 105960, Note_on_c, 13, 50, 42
13, 106020, Note_on_c, 13, 50, 0
13, 106080, Note_on_c, 13, 43, 44
13, 106200, Note_on_c, 13, 43, 0
13, 106260, Program_c, 13, 48
13, 106260, Note_on_c, 13, 48, 94
13, 106290, Note_on_c, 13, 48, 0
13, 106290, Note_on_c, 13, 48, 101
13, 106320, Note_on_c, 13, 48, 0
13, 106320, Note_on_c, 13, 48, 99
13, 106380, Note_on_c, 13, 48, 0
13, 106380, Note_on_c, 13, 48, 127
13, 106620, Note_on_c, 13, 48, 0
13, 106620, Note_on_c, 13, 48, 123
13, 106860, Note_on_c, 13, 48, 0
13, 106860, Note_on_c, 13, 48, 123
13, 106980, Note_on_c, 13, 48, 0
13, 106980, Note_on_c, 13, 48, 93
13, 107100, Note_on_c, 13, 48, 0
13, 107100, Note_on_c, 13, 48, 119
13, 107340, Note_on_c, 13, 48, 0
13, 107340, Note_on_c, 13, 48, 99
13, 107460, Note_on_c, 13, 48, 0
13, 107460, Note_on_c, 13, 50, 105
13, 107580, Note_on_c, 13, 50, 0
13, 107580, Note_on_c, 13, 50, 105
13, 107820, Note_on_c, 13, 50, 0
13, 107820, Note_on_c, 13, 50, 104
13, 107940, Note_on_c, 13, 50, 0
13, 107940, Note_on_c, 13, 55, 95
13, 108060, Note_on_c, 13, 55, 0
13, 108060, Note_on_c, 13, 52, 104
13, 108180, Note_on_c, 13, 52, 0
13, 108180, Note_on_c, 13, 48, 101
13, 108300, Note_on_c, 13, 48, 0
13, 108300, Note_on_c, 13, 50, 101
13, 108420, Note_on_c, 13, 50, 0
13, 108420, Note_on_c, 13, 50, 105
13, 108480, Note_on_c, 13, 50, 0
13, 108480, Note_on_c, 13, 47, 125
13, 108510, Note_on_c, 13, 47, 0
13, 108510, Note_on_c, 13, 50, 105
13, 108540, Note_on_c, 13, 50, 0
13, 108540, Note_on_c, 13, 52, 99
13, 108570, Note_on_c, 13, 52, 0
13, 108570, Note_on_c, 13, 54, 93
13, 108600, Note_on_c, 13, 54, 0
13, 108600, Note_on_c, 13, 55, 98
13, 108630, Note_on_c, 13, 55, 0
13, 108630, Note_on_c, 13, 57, 99
13, 108660, Note_on_c, 13, 57, 0
13, 108660, Note_on_c, 13, 59, 90
13, 108690, Note_on_c, 13, 59, 0
13, 108690, Note_on_c, 13, 55, 95
13, 108720, Note_on_c, 13, 55, 0
13, 108720, Note_on_c, 13, 52, 101
13, 108750, Note_on_c, 13, 52, 0
13, 108750, Note_on_c, 13, 55, 86
13, 108780, Note_on_c, 13, 55, 0
13, 108780, Note_on_c, 13, 54, 90
13, 108810, Note_on_c, 13, 54, 0
13, 108810, Note_on_c, 13, 57, 104
13, 108840, Note_on_c, 13, 57, 0
13, 108840, Note_on_c, 13, 55, 99
13, 108870, Note_on_c, 13, 55, 0
13, 108870, Note_on_c, 13, 54, 95
13, 108900, Note_on_c, 13, 54, 0
13, 108900, Note_on_c, 13, 52, 95
13, 108930, Note_on_c, 13, 52, 0
13, 108930, Note_on_c, 13, 50, 101
13, 108960, Note_on_c, 13, 50, 0
13, 108960, Note_on_c, 13, 48, 101
13, 108990, Note_on_c, 13, 48, 0
13, 108990, Note_on_c, 13, 47, 95
13, 109020, Note_on_c, 13, 47, 0
13, 109020, Note_on_c, 13, 48, 104
13, 109050, Note_on_c, 13, 48, 0
13, 109050, Note_on_c, 13, 50, 98
13, 109080, Note_on_c, 13, 50, 0
13, 109080, Note_on_c, 13, 47, 95
13, 109110, Note_on_c, 13, 47, 0
13, 109110, Note_on_c, 13, 43, 104
13, 109140, Note_on_c, 13, 43, 0
13, 109140, Note_on_c, 13, 45, 98
13, 109170, Note_on_c, 13, 45, 0
13, 109170, Note_on_c, 13, 47, 104
13, 109200, Note_on_c, 13, 47, 0
13, 109200, Note_on_c, 13, 48, 95
13, 109230, Note_on_c, 13, 48, 0
13, 109230, Note_on_c, 13, 45, 95
13, 109260, Note_on_c, 13, 45, 0
13, 109260, Note_on_c, 13, 47, 101
13, 109290, Note_on_c, 13, 47, 0
13, 109290, Note_on_c, 13, 48, 105
13, 109320, Note_on_c, 13, 48, 0
13, 109320, Note_on_c, 13, 50, 105
13, 109380, Note_on_c, 13, 50, 0
13, 109380, Note_on_c, 13, 50, 110
13, 109440, Note_on_c, 13, 50, 0
13, 110340, Note_on_c, 13, 50, 64
13, 110400, Note_on_c, 13, 50, 0
13, 110400, Note_on_c, 13, 43, 86
13, 110460, Note_on_c, 13, 43, 0
13, 111360, Note_on_c, 13, 43, 80
13, 111420, Note_on_c, 13, 43, 0
13, 111960, Program_c, 13, 45
13, 112080, Note_on_c, 13, 57, 76
13, 112140, Note_on_c, 13, 57, 0
13, 112200, Note_on_c, 13, 50, 77
13, 112260, Note_on_c, 13, 50, 0
13, 112440, Note_on_c, 13, 57, 82
13, 112500, Note_on_c, 13, 57, 0
13, 112500, Note_on_c, 13, 50, 84
13, 112560, Note_on_c, 13, 50, 0
13, 112680, Note_on_c, 13, 57, 74
13, 112740, Note_on_c, 13, 57, 0
13, 112740, Note_on_c, 13, 49, 68
13, 112800, Note_on_c, 13, 49, 0
13, 112920, Note_on_c, 13, 58, 62
13, 112980, Note_on_c, 13, 58, 0
13, 112980, Note_on_c, 13, 49, 44
13, 113040, Note_on_c, 13, 49, 0
13, 114120, Program_c, 13, 48
13, 114240, Note_on_c, 13, 42, 41
13, 115200, Note_on_c, 13, 42, 0
13, 115200, Program_c, 13, 45
13, 115200, Note_on_c, 13, 42, 40
13, 115260, Note_on_c, 13, 42, 0
13, 115680, Note_on_c, 13, 43, 46
13, 115740, Note_on_c, 13, 43, 0
13, 116040, Program_c, 13, 48
13, 116160, Note_on_c, 13, 48, 30
13, 116160, Note_on_c, 13, 36, 35
13, 117120, Note_on_c, 13, 60, 54
13, 117180, Note_on_c, 13, 60, 0
13, 117180, Note_on_c, 13, 36, 0
13, 117180, Note_on_c, 13, 48, 0
13, 117360, Program_c, 13, 45
13, 117600, Note_on_c, 13, 50, 45
13, 117600, Note_on_c, 13, 50, 43
13, 117660, Note_on_c, 13, 50, 0
13, 117660, Note_on_c, 13, 50, 0
13, 117840, Program_c, 13, 48
13, 118080, Note_on_c, 13, 62, 44
13, 118440, Note_on_c, 13, 62, 0
13, 118440, Note_on_c, 13, 60, 47
13, 118500, Note_on_c, 13, 60, 0
13, 118500, Note_on_c, 13, 59, 54
13, 118560, Note_on_c, 13, 59, 0
13, 118560, Note_on_c, 13, 59, 54
13, 118680, Note_on_c, 13, 59, 0
13, 118680, Note_on_c, 13, 57, 67
13, 118860, Note_on_c, 13, 57, 0
13, 118860, Note_on_c, 13, 50, 58
13, 118920, Note_on_c, 13, 50, 0
13, 118920, Note_on_c, 13, 52, 45
13, 118980, Note_on_c, 13, 52, 0
13, 118980, Note_on_c, 13, 54, 44
13, 119040, Note_on_c, 13, 54, 0
13, 119040, Note_on_c, 13, 55, 57
13, 119280, Note_on_c, 13, 55, 0
13, 119280, Note_on_c, 13, 57, 50
13, 119295, Note_on_c, 13, 57, 0
13, 119295, Note_on_c, 13, 55, 44
13, 119310, Note_on_c, 13, 55, 0
13, 119310, Note_on_c, 13, 54, 39
13, 119325, Note_on_c, 13, 54, 0
13, 119325, Note_on_c, 13, 55, 56
13, 119340, Note_on_c, 13, 55, 0
13, 119340, Note_on_c, 13, 57, 62
13, 119400, Note_on_c, 13, 57, 0
13, 119400, Note_on_c, 13, 59, 53
13, 119460, Note_on_c, 13, 59, 0
13, 119460, Note_on_c, 13, 60, 42
13, 119520, Note_on_c, 13, 60, 0
13, 119520, Note_on_c, 13, 57, 59
13, 119820, Note_on_c, 13, 57, 0
13, 119820, Note_on_c, 13, 59, 42
13, 119880, Note_on_c, 13, 59, 0
13, 119880, Note_on_c, 13, 60, 43
13, 119940, Note_on_c, 13, 60, 0
13, 119940, Note_on_c, 13, 62, 44
13, 120000, Note_on_c, 13, 62, 0
13, 120000, Note_on_c, 13, 59, 58
13, 120060, Note_on_c, 13, 59, 0
13, 120480, Note_on_c, 13, 50, 84
13, 120540, Note_on_c, 13, 50, 0
13, 120960, Note_on_c, 13, 50, 84
13, 121320, Note_on_c, 13, 50, 0
13, 121320, Note_on_c, 13, 48, 74
13, 121380, Note_on_c, 13, 48, 0
13, 121380, Note_on_c, 13, 47, 71
13, 121440, Note_on_c, 13, 47, 0
13, 121440, Note_on_c, 13, 47, 73
13, 121560, Note_on_c, 13, 47, 0
13, 121560, Note_on_c, 13, 45, 80
13, 121740, Note_on_c, 13, 45, 0
13, 121740, Note_on_c, 13, 38, 80
13, 121800, Note_on_c, 13, 38, 0
13, 121800, Note_on_c, 13, 40, 84
13, 121860, Note_on_c, 13, 40, 0
13, 121860, Note_on_c, 13, 42, 81
13, 121920, Note_on_c, 13, 42, 0
13, 121920, Note_on_c, 13, 43, 89
13, 121950, Note_on_c, 13, 43, 0
13, 121980, Note_on_c, 13, 45, 93
13, 122010, Note_on_c, 13, 45, 0
13, 122040, Note_on_c, 13, 47, 93
13, 122070, Note_on_c, 13, 47, 0
13, 122100, Note_on_c, 13, 48, 125
13, 122130, Note_on_c, 13, 48, 0
13, 122160, Note_on_c, 13, 45, 94
13, 122190, Note_on_c, 13, 45, 0
13, 122220, Note_on_c, 13, 47, 95
13, 122250, Note_on_c, 13, 47, 0
13, 122280, Note_on_c, 13, 48, 86
13, 122310, Note_on_c, 13, 48, 0
13, 122340, Note_on_c, 13, 50, 127
13, 122370, Note_on_c, 13, 50, 0
13, 122400, Note_on_c, 13, 47, 98
13, 122430, Note_on_c, 13, 47, 0
13, 122460, Note_on_c, 13, 48, 99
13, 122490, Note_on_c, 13, 48, 0
13, 122520, Note_on_c, 13, 50, 104
13, 122550, Note_on_c, 13, 50, 0
13, 122580, Note_on_c, 13, 52, 119
13, 122610, Note_on_c, 13, 52, 0
13, 122640, Note_on_c, 13, 48, 101
13, 122670, Note_on_c, 13, 48, 0
13, 122700, Note_on_c, 13, 50, 104
13, 122730, Note_on_c, 13, 50, 0
13, 122760, Note_on_c, 13, 52, 99
13, 122790, Note_on_c, 13, 52, 0
13, 122820, Note_on_c, 13, 54, 119
13, 122850, Note_on_c, 13, 54, 0
13, 122880, Note_on_c, 13, 55, 89
13, 122940, Note_on_c, 13, 55, 0
13, 122940, Note_on_c, 13, 57, 99
13, 123000, Note_on_c, 13, 57, 0
13, 123000, Note_on_c, 13, 58, 85
13, 123060, Note_on_c, 13, 58, 0
13, 123060, Note_on_c, 13, 59, 89
13, 123120, Note_on_c, 13, 59, 0
13, 123120, Note_on_c, 13, 60, 77
13, 123180, Note_on_c, 13, 60, 0
13, 123180, Note_on_c, 13, 61, 78
13, 123240, Note_on_c, 13, 61, 0
13, 123240, Note_on_c, 13, 62, 86
13, 123300, Note_on_c, 13, 62, 0
13, 123300, Note_on_c, 13, 63, 82
13, 123360, Note_on_c, 13, 63, 0
13, 123360, Note_on_c, 13, 64, 105
13, 123420, Note_on_c, 13, 64, 0
13, 123480, Note_on_c, 13, 66, 99
13, 123540, Note_on_c, 13, 66, 0
13, 123600, Note_on_c, 13, 67, 94
13, 123660, Note_on_c, 13, 67, 0
13, 123720, Note_on_c, 13, 49, 95
13, 123780, Note_on_c, 13, 49, 0
13, 123840, Note_on_c, 13, 50, 107
13, 124080, Note_on_c, 13, 50, 0
13, 136800, Program_c, 13, 45
13, 137040, Note_on_c, 13, 50, 85
13, 137100, Note_on_c, 13, 50, 0
13, 139440, Note_on_c, 13, 47, 67
13, 139560, Note_on_c, 13, 47, 0
13, 139680, Note_on_c, 13, 48, 61
13, 139800, Note_on_c, 13, 48, 0
13, 139920, Note_on_c, 13, 50, 68
13, 139980, Note_on_c, 13, 50, 0
13, 140160, Note_on_c, 13, 50, 65
13, 140220, Note_on_c, 13, 50, 0
13, 140280, Program_c, 13, 48
13, 140400, Note_on_c, 13, 47, 99
13, 140480, Control_c, 13, 7, 98
13, 140485, Control_c, 13, 7, 97
13, 140490, Control_c, 13, 7, 96
13, 140495, Control_c, 13, 7, 95
13, 140500, Control_c, 13, 7, 94
13, 140505, Control_c, 13, 7, 93
13, 140510, Control_c, 13, 7, 92
13, 140515, Control_c, 13, 7, 91
13, 140520, Control_c, 13, 7, 90
13, 140525, Control_c, 13, 7, 89
13, 140530, Control_c, 13, 7, 88
13, 140535, Control_c, 13, 7, 87
13, 140540, Control_c, 13, 7, 86
13, 140545, Control_c, 13, 7, 85
13, 140550, Control_c, 13, 7, 84
13, 140555, Control_c, 13, 7, 83
13, 140560, Control_c, 13, 7, 82
13, 140565, Control_c, 13, 7, 81
13, 140570, Control_c, 13, 7, 80
13, 140575, Control_c, 13, 7, 79
13, 140580, Control_c, 13, 7, 78
13, 140585, Control_c, 13, 7, 77
13, 140590, Control_c, 13, 7, 76
13, 140595, Control_c, 13, 7, 75
13, 140600, Control_c, 13, 7, 74
13, 140605, Control_c, 13, 7, 73
13, 140610, Control_c, 13, 7, 72
13, 140615, Control_c, 13, 7, 71
13, 140620, Control_c, 13, 7, 70
13, 140625, Control_c, 13, 7, 69
13, 140630, Control_c, 13, 7, 68
13, 140635, Control_c, 13, 7, 67
13, 141120, Note_on_c, 13, 47, 0
13, 141120, Note_on_c, 13, 48, 95
13, 141180, Note_on_c, 13, 48, 0
13, 141360, Note_on_c, 13, 50, 95
13, 141420, Note_on_c, 13, 50, 0
13, 141600, Note_on_c, 13, 50, 94
13, 141660, Note_on_c, 13, 50, 0
13, 141720, Control_c, 13, 7, 100
13, 141790, Program_c, 13, 45
13, 141840, Note_on_c, 13, 43, 43
13, 141960, Note_on_c, 13, 43, 0
13, 142080, Note_on_c, 13, 43, 44
13, 142200, Note_on_c, 13, 43, 0
13, 142320, Note_on_c, 13, 43, 46
13, 142440, Note_on_c, 13, 43, 0
13, 142560, Note_on_c, 13, 43, 45
13, 142680, Note_on_c, 13, 43, 0
13, 142800, Note_on_c, 13, 43, 45
13, 142920, Note_on_c, 13, 43, 0
13, 143040, Note_on_c, 13, 43, 50
13, 143160, Note_on_c, 13, 43, 0
13, 143280, Note_on_c, 13, 43, 56
13, 143400, Note_on_c, 13, 43, 0
13, 143520, Note_on_c, 13, 43, 44
13, 143640, Note_on_c, 13, 43, 0
13, 143760, Note_on_c, 13, 43, 43
13, 143880, Note_on_c, 13, 43, 0
13, 144000, Note_on_c, 13, 43, 41
13, 144120, Note_on_c, 13, 43, 0
13, 144200, Program_c, 13, 48
13, 144240, Note_on_c, 13, 43, 46
13, 147120, Control_c, 13, 7, 99
13, 147155, Control_c, 13, 7, 98
13, 147185, Control_c, 13, 7, 97
13, 147215, Control_c, 13, 7, 96
13, 147245, Control_c, 13, 7, 95
13, 147275, Control_c, 13, 7, 94
13, 147310, Control_c, 13, 7, 93
13, 147340, Control_c, 13, 7, 92
13, 147370, Control_c, 13, 7, 91
13, 147400, Control_c, 13, 7, 90
13, 147430, Control_c, 13, 7, 89
13, 147465, Control_c, 13, 7, 88
13, 147495, Control_c, 13, 7, 87
13, 147525, Control_c, 13, 7, 86
13, 147555, Control_c, 13, 7, 85
13, 147585, Control_c, 13, 7, 84
13, 147620, Control_c, 13, 7, 83
13, 147650, Control_c, 13, 7, 82
13, 147680, Control_c, 13, 7, 81
13, 147710, Control_c, 13, 7, 80
13, 147740, Control_c, 13, 7, 79
13, 147775, Control_c, 13, 7, 78
13, 147805, Control_c, 13, 7, 77
13, 147835, Control_c, 13, 7, 76
13, 147865, Control_c, 13, 7, 75
13, 147895, Control_c, 13, 7, 74
13, 147930, Control_c, 13, 7, 73
13, 147960, Control_c, 13, 7, 72
13, 147990, Control_c, 13, 7, 71
13, 148020, Control_c, 13, 7, 70
13, 148050, Control_c, 13, 7, 69
13, 148080, Control_c, 13, 7, 68
13, 148200, Note_on_c, 13, 43, 0
13, 148800, Control_c, 13, 7, 100
13, 149400, Program_c, 13, 45
13, 149520, Note_on_c, 13, 57, 52
13, 149640, Note_on_c, 13, 57, 0
13, 149760, Note_on_c, 13, 50, 44
13, 149880, Note_on_c, 13, 50, 0
13, 150000, Program_c, 13, 48
13, 150360, Note_on_c, 13, 57, 39
13, 150420, Note_on_c, 13, 57, 0
13, 150420, Note_on_c, 13, 50, 37
13, 150480, Note_on_c, 13, 50, 0
13, 151920, Note_on_c, 13, 57, 38
13, 151980, Note_on_c, 13, 57, 0
13, 151980, Note_on_c, 13, 50, 36
13, 152040, Note_on_c, 13, 50, 0
13, 152040, Note_on_c, 13, 57, 53
13, 152100, Note_on_c, 13, 57, 0
13, 152100, Note_on_c, 13, 50, 64
13, 152160, Note_on_c, 13, 50, 0
13, 152160, Note_on_c, 13, 57, 77
13, 152220, Note_on_c, 13, 57, 0
13, 152220, Note_on_c, 13, 50, 84
13, 152280, Note_on_c, 13, 50, 0
13, 152280, Note_on_c, 13, 57, 89
13, 152340, Note_on_c, 13, 57, 0
13, 152340, Note_on_c, 13, 50, 99
13, 152400, Note_on_c, 13, 50, 0
13, 152400, Note_on_c, 13, 43, 89
13, 152520, Note_on_c, 13, 43, 0
13, 152640, Note_on_c, 13, 43, 82
13, 152760, Note_on_c, 13, 43, 0
13, 152880, Note_on_c, 13, 43, 85
13, 153000, Note_on_c, 13, 43, 0
13, 153120, Note_on_c, 13, 43, 86
13, 153240, Note_on_c, 13, 43, 0
13, 153360, Note_on_c, 13, 48, 101
13, 153400, Note_on_c, 13, 48, 0
13, 153400, Note_on_c, 13, 47, 101
13, 153440, Note_on_c, 13, 47, 0
13, 153440, Note_on_c, 13, 48, 104
13, 153480, Note_on_c, 13, 48, 0
13, 153480, Note_on_c, 13, 52, 99
13, 153520, Note_on_c, 13, 52, 0
13, 153520, Note_on_c, 13, 55, 93
13, 153560, Note_on_c, 13, 55, 0
13, 153560, Note_on_c, 13, 52, 99
13, 153600, Note_on_c, 13, 52, 0
13, 153600, Note_on_c, 13, 48, 95
13, 153640, Note_on_c, 13, 48, 0
13, 153640, Note_on_c, 13, 47, 99
13, 153680, Note_on_c, 13, 47, 0
13, 153680, Note_on_c, 13, 48, 104
13, 153720, Note_on_c, 13, 48, 0
13, 153720, Note_on_c, 13, 52, 101
13, 153760, Note_on_c, 13, 52, 0
13, 153760, Note_on_c, 13, 55, 93
13, 153800, Note_on_c, 13, 55, 0
13, 153800, Note_on_c, 13, 52, 105
13, 153840, Note_on_c, 13, 52, 0
13, 153840, Note_on_c, 13, 48, 105
13, 153880, Note_on_c, 13, 48, 0
13, 153880, Note_on_c, 13, 52, 107
13, 153920, Note_on_c, 13, 52, 0
13, 153920, Note_on_c, 13, 55, 99
13, 153960, Note_on_c, 13, 55, 0
13, 153960, Note_on_c, 13, 60, 95
13, 154000, Note_on_c, 13, 60, 0
13, 154000, Note_on_c, 13, 55, 99
13, 154040, Note_on_c, 13, 55, 0
13, 154040, Note_on_c, 13, 52, 104
13, 154080, Note_on_c, 13, 52, 0
13, 154080, Note_on_c, 13, 48, 105
13, 154120, Note_on_c, 13, 48, 0
13, 154120, Note_on_c, 13, 50, 105
13, 154160, Note_on_c, 13, 50, 0
13, 154160, Note_on_c, 13, 52, 104
13, 154200, Note_on_c, 13, 52, 0
13, 154200, Note_on_c, 13, 50, 105
13, 154240, Note_on_c, 13, 50, 0
13, 154240, Note_on_c, 13, 48, 99
13, 154280, Note_on_c, 13, 48, 0
13, 154280, Note_on_c, 13, 47, 105
13, 154320, Note_on_c, 13, 47, 0
13, 154320, Note_on_c, 13, 45, 99
13, 154360, Note_on_c, 13, 45, 0
13, 154360, Note_on_c, 13, 44, 95
13, 154400, Note_on_c, 13, 44, 0
13, 154400, Note_on_c, 13, 45, 110
13, 154440, Note_on_c, 13, 45, 0
13, 154440, Note_on_c, 13, 48, 104
13, 154480, Note_on_c, 13, 48, 0
13, 154480, Note_on_c, 13, 47, 101
13, 154520, Note_on_c, 13, 47, 0
13, 154520, Note_on_c, 13, 48, 99
13, 154560, Note_on_c, 13, 48, 0
13, 154560, Note_on_c, 13, 50, 105
13, 154600, Note_on_c, 13, 50, 0
13, 154600, Note_on_c, 13, 49, 93
13, 154640, Note_on_c, 13, 49, 0
13, 154640, Note_on_c, 13, 50, 112
13, 154680, Note_on_c, 13, 50, 0
13, 154680, Note_on_c, 13, 54, 95
13, 154720, Note_on_c, 13, 54, 0
13, 154720, Note_on_c, 13, 57, 98
13, 154760, Note_on_c, 13, 57, 0
13, 154760, Note_on_c, 13, 54, 99
13, 154800, Note_on_c, 13, 54, 0
13, 154800, Note_on_c, 13, 50, 104
13, 154840, Note_on_c, 13, 50, 0
13, 154840, Note_on_c, 13, 54, 93
13, 154880, Note_on_c, 13, 54, 0
13, 154880, Note_on_c, 13, 52, 104
13, 154920, Note_on_c, 13, 52, 0
13, 154920, Note_on_c, 13, 50, 105
13, 154960, Note_on_c, 13, 50, 0
13, 154960, Note_on_c, 13, 52, 98
13, 155000, Note_on_c, 13, 52, 0
13, 155000, Note_on_c, 13, 54, 94
13, 155040, Note_on_c, 13, 54, 0
13, 155040, Note_on_c, 13, 55, 104
13, 155080, Note_on_c, 13, 55, 0
13, 155080, Note_on_c, 13, 43, 101
13, 155120, Note_on_c, 13, 43, 0
13, 155120, Note_on_c, 13, 42, 95
13, 155160, Note_on_c, 13, 42, 0
13, 155160, Note_on_c, 13, 43, 99
13, 155200, Note_on_c, 13, 43, 0
13, 155200, Note_on_c, 13, 45, 99
13, 155240, Note_on_c, 13, 45, 0
13, 155240, Note_on_c, 13, 47, 105
13, 155280, Note_on_c, 13, 47, 0
13, 155280, Note_on_c, 13, 48, 104
13, 155320, Note_on_c, 13, 48, 0
13, 155320, Note_on_c, 13, 47, 99
13, 155360, Note_on_c, 13, 47, 0
13, 155360, Note_on_c, 13, 48, 99
13, 155400, Note_on_c, 13, 48, 0
13, 155400, Note_on_c, 13, 50, 99
13, 155440, Note_on_c, 13, 50, 0
13, 155440, Note_on_c, 13, 48, 101
13, 155480, Note_on_c, 13, 48, 0
13, 155480, Note_on_c, 13, 50, 104
13, 155520, Note_on_c, 13, 50, 0
13, 155520, Note_on_c, 13, 55, 105
13, 155580, Note_on_c, 13, 55, 0
13, 156000, Program_c, 13, 45
13, 156240, Note_on_c, 13, 48, 43
13, 156360, Note_on_c, 13, 48, 0
13, 156480, Note_on_c, 13, 50, 40
13, 156600, Note_on_c, 13, 50, 0
13, 156720, Note_on_c, 13, 55, 38
13, 156840, Note_on_c, 13, 55, 0
13, 156960, Note_on_c, 13, 50, 40
13, 157080, Note_on_c, 13, 50, 0
13, 157200, Note_on_c, 13, 43, 43
13, 157320, Note_on_c, 13, 43, 0
13, 157440, Note_on_c, 13, 50, 43
13, 157560, Note_on_c, 13, 50, 0
13, 157680, Note_on_c, 13, 55, 41
13, 157800, Note_on_c, 13, 55, 0
13, 157920, Note_on_c, 13, 50, 43
13, 158040, Note_on_c, 13, 50, 0
13, 158160, Note_on_c, 13, 43, 43
13, 158280, Note_on_c, 13, 43, 0
13, 158400, Note_on_c, 13, 50, 42
13, 158520, Note_on_c, 13, 50, 0
13, 158560, Program_c, 13, 48
13, 158640, Note_on_c, 13, 55, 40
13, 158700, Note_on_c, 13, 55, 0
13, 158880, Note_on_c, 13, 50, 49
13, 158940, Note_on_c, 13, 50, 0
13, 159120, Note_on_c, 13, 43, 65
13, 159180, Note_on_c, 13, 43, 0
13, 159360, Note_on_c, 13, 50, 80
13, 159420, Note_on_c, 13, 50, 0
13, 159600, Note_on_c, 13, 43, 93
13, 159720, Note_on_c, 13, 43, 0
13, 160020, Note_on_c, 13, 43, 94
13, 160050, Note_on_c, 13, 43, 0
13, 160050, Note_on_c, 13, 43, 90
13, 160080, Note_on_c, 13, 43, 0
13, 160080, Note_on_c, 13, 43, 93
13, 160200, Note_on_c, 13, 43, 0
13, 160500, Note_on_c, 13, 43, 94
13, 160530, Note_on_c, 13, 43, 0
13, 160530, Note_on_c, 13, 43, 95
13, 160560, Note_on_c, 13, 43, 0
13, 160560, Note_on_c, 13, 43, 99
13, 160620, Note_on_c, 13, 43, 0
13, 160800, Note_on_c, 13, 50, 104
13, 160860, Note_on_c, 13, 50, 0
13, 161040, Note_on_c, 13, 43, 95
13, 161100, Note_on_c, 13, 43, 0
13, 161100, End_track
14, 0, Start_track
14, 0, MIDI_port, 0
14, 0, Title_t, "Contrabasses"
14, 0, Control_c, 14, 7, 100
14, 0, Control_c, 14, 10, 119
14, 0, Control_c, 14, 93, 0
14, 0, Control_c, 14, 91, 66
14, 0, Control_c, 14, 0, 0
14, 0, Control_c, 14, 32, 0
14, 0, Program_c, 14, 48
14, 0, Note_on_c, 14, 36, 39
14, 120, Note_on_c, 14, 36, 0
14, 180, Note_on_c, 14, 36, 40
14, 210, Note_on_c, 14, 36, 0
14, 210, Note_on_c, 14, 36, 43
14, 240, Note_on_c, 14, 36, 0
14, 240, Note_on_c, 14, 36, 43
14, 360, Note_on_c, 14, 36, 0
14, 420, Note_on_c, 14, 36, 35
14, 450, Note_on_c, 14, 36, 0
14, 450, Note_on_c, 14, 36, 38
14, 480, Note_on_c, 14, 36, 0
14, 480, Note_on_c, 14, 36, 42
14, 540, Note_on_c, 14, 36, 0
14, 600, Note_on_c, 14, 36, 43
14, 630, Note_on_c, 14, 36, 0
14, 660, Note_on_c, 14, 36, 47
14, 690, Note_on_c, 14, 36, 0
14, 720, Note_on_c, 14, 36, 43
14, 780, Note_on_c, 14, 36, 0
14, 960, Note_on_c, 14, 33, 45
14, 990, Note_on_c, 14, 33, 0
14, 1020, Note_on_c, 14, 33, 43
14, 1035, Note_on_c, 14, 33, 0
14, 1050, Note_on_c, 14, 33, 40
14, 1065, Note_on_c, 14, 33, 0
14, 1080, Note_on_c, 14, 36, 47
14, 1110, Note_on_c, 14, 36, 0
14, 1140, Note_on_c, 14, 36, 40
14, 1155, Note_on_c, 14, 36, 0
14, 1170, Note_on_c, 14, 36, 40
14, 1185, Note_on_c, 14, 36, 0
14, 1200, Note_on_c, 14, 38, 61
14, 1260, Note_on_c, 14, 38, 0
14, 1440, Note_on_c, 14, 38, 43
14, 1470, Note_on_c, 14, 38, 0
14, 1500, Note_on_c, 14, 38, 40
14, 1515, Note_on_c, 14, 38, 0
14, 1530, Note_on_c, 14, 38, 45
14, 1545, Note_on_c, 14, 38, 0
14, 1560, Note_on_c, 14, 38, 39
14, 1590, Note_on_c, 14, 38, 0
14, 1620, Note_on_c, 14, 40, 45
14, 1635, Note_on_c, 14, 40, 0
14, 1650, Note_on_c, 14, 42, 45
14, 1665, Note_on_c, 14, 42, 0
14, 1680, Note_on_c, 14, 43, 41
14, 1710, Note_on_c, 14, 43, 0
14, 1740, Note_on_c, 14, 43, 43
14, 1755, Note_on_c, 14, 43, 0
14, 1770, Note_on_c, 14, 43, 43
14, 1785, Note_on_c, 14, 43, 0
14, 1800, Note_on_c, 14, 43, 43
14, 1830, Note_on_c, 14, 43, 0
14, 1920, Note_on_c, 14, 36, 43
14, 1950, Note_on_c, 14, 36, 0
14, 2040, Note_on_c, 14, 38, 45
14, 2070, Note_on_c, 14, 38, 0
14, 2160, Note_on_c, 14, 43, 50
14, 2400, Note_on_c, 14, 43, 0
14, 4800, Note_on_c, 14, 47, 55
14, 4920, Note_on_c, 14, 47, 0
14, 4920, Note_on_c, 14, 48, 59
14, 5040, Note_on_c, 14, 48, 0
14, 5040, Note_on_c, 14, 47, 47
14, 5160, Note_on_c, 14, 47, 0
14, 5160, Note_on_c, 14, 45, 66
14, 5280, Note_on_c, 14, 45, 0
14, 5280, Note_on_c, 14, 43, 65
14, 5400, Note_on_c, 14, 43, 0
14, 5400, Note_on_c, 14, 42, 67
14, 5520, Note_on_c, 14, 42, 0
14, 5520, Note_on_c, 14, 40, 47
14, 5580, Note_on_c, 14, 40, 0
14, 5580, Note_on_c, 14, 45, 73
14, 5640, Note_on_c, 14, 45, 0
14, 5640, Note_on_c, 14, 38, 77
14, 5700, Note_on_c, 14, 38, 0
14, 6720, Note_on_c, 14, 40, 53
14, 6780, Note_on_c, 14, 40, 0
14, 6780, Note_on_c, 14, 33, 63
14, 6840, Note_on_c, 14, 33, 0
14, 6840, Note_on_c, 14, 38, 64
14, 6900, Note_on_c, 14, 38, 0
14, 7080, Note_on_c, 14, 33, 66
14, 7140, Note_on_c, 14, 33, 0
14, 7140, Note_on_c, 14, 38, 53
14, 7200, Note_on_c, 14, 38, 0
14, 7440, Note_on_c, 14, 36, 82
14, 7500, Note_on_c, 14, 36, 0
14, 7500, Note_on_c, 14, 36, 89
14, 7740, Note_on_c, 14, 36, 0
14, 7740, Note_on_c, 14, 36, 90
14, 7980, Note_on_c, 14, 36, 0
14, 7980, Note_on_c, 14, 36, 93
14, 8100, Note_on_c, 14, 36, 0
14, 8100, Note_on_c, 14, 36, 89
14, 8220, Note_on_c, 14, 36, 0
14, 8220, Note_on_c, 14, 36, 95
14, 8460, Note_on_c, 14, 36, 0
14, 8460, Note_on_c, 14, 33, 99
14, 8580, Note_on_c, 14, 33, 0
14, 8580, Note_on_c, 14, 36, 99
14, 8700, Note_on_c, 14, 36, 0
14, 8700, Note_on_c, 14, 38, 105
14, 8940, Note_on_c, 14, 38, 0
14, 8940, Note_on_c, 14, 38, 105
14, 9060, Note_on_c, 14, 38, 0
14, 9060, Note_on_c, 14, 38, 104
14, 9180, Note_on_c, 14, 38, 0
14, 9180, Note_on_c, 14, 43, 90
14, 9300, Note_on_c, 14, 43, 0
14, 9300, Note_on_c, 14, 40, 99
14, 9360, Note_on_c, 14, 40, 0
14, 9360, Note_on_c, 14, 36, 90
14, 9420, Note_on_c, 14, 36, 0
14, 9420, Note_on_c, 14, 48, 94
14, 9540, Note_on_c, 14, 48, 0
14, 9540, Note_on_c, 14, 50, 82
14, 9600, Note_on_c, 14, 50, 0
14, 9600, Note_on_c, 14, 47, 99
14, 9630, Note_on_c, 14, 47, 0
14, 9630, Note_on_c, 14, 38, 99
14, 9660, Note_on_c, 14, 38, 0
14, 9660, Note_on_c, 14, 40, 105
14, 9690, Note_on_c, 14, 40, 0
14, 9690, Note_on_c, 14, 42, 94
14, 9720, Note_on_c, 14, 42, 0
14, 9720, Note_on_c, 14, 43, 98
14, 9750, Note_on_c, 14, 43, 0
14, 9750, Note_on_c, 14, 45, 101
14, 9780, Note_on_c, 14, 45, 0
14, 9780, Note_on_c, 14, 47, 93
14, 9810, Note_on_c, 14, 47, 0
14, 9810, Note_on_c, 14, 43, 99
14, 9840, Note_on_c, 14, 43, 0
14, 9840, Note_on_c, 14, 40, 98
14, 9870, Note_on_c, 14, 40, 0
14, 9870, Note_on_c, 14, 43, 99
14, 9900, Note_on_c, 14, 43, 0
14, 9900, Note_on_c, 14, 42, 94
14, 9930, Note_on_c, 14, 42, 0
14, 9930, Note_on_c, 14, 45, 101
14, 9960, Note_on_c, 14, 45, 0
14, 9960, Note_on_c, 14, 43, 98
14, 9990, Note_on_c, 14, 43, 0
14, 9990, Note_on_c, 14, 42, 90
14, 10020, Note_on_c, 14, 42, 0
14, 10020, Note_on_c, 14, 40, 101
14, 10050, Note_on_c, 14, 40, 0
14, 10050, Note_on_c, 14, 38, 104
14, 10080, Note_on_c, 14, 38, 0
14, 10080, Note_on_c, 14, 36, 99
14, 10110, Note_on_c, 14, 36, 0
14, 10110, Note_on_c, 14, 35, 99
14, 10140, Note_on_c, 14, 35, 0
14, 10140, Note_on_c, 14, 36, 104
14, 10170, Note_on_c, 14, 36, 0
14, 10170, Note_on_c, 14, 38, 99
14, 10200, Note_on_c, 14, 38, 0
14, 10200, Note_on_c, 14, 35, 104
14, 10230, Note_on_c, 14, 35, 0
14, 10230, Note_on_c, 14, 31, 99
14, 10260, Note_on_c, 14, 31, 0
14, 10260, Note_on_c, 14, 33, 99
14, 10290, Note_on_c, 14, 33, 0
14, 10290, Note_on_c, 14, 35, 104
14, 10320, Note_on_c, 14, 35, 0
14, 10320, Note_on_c, 14, 36, 95
14, 10350, Note_on_c, 14, 36, 0
14, 10350, Note_on_c, 14, 33, 98
14, 10380, Note_on_c, 14, 33, 0
14, 10380, Note_on_c, 14, 35, 105
14, 10410, Note_on_c, 14, 35, 0
14, 10410, Note_on_c, 14, 36, 98
14, 10440, Note_on_c, 14, 36, 0
14, 10440, Note_on_c, 14, 38, 105
14, 10500, Note_on_c, 14, 38, 0
14, 10500, Note_on_c, 14, 38, 105
14, 10560, Note_on_c, 14, 38, 0
14, 11520, Note_on_c, 14, 31, 94
14, 11550, Note_on_c, 14, 31, 0
14, 11550, Note_on_c, 14, 35, 94
14, 11580, Note_on_c, 14, 35, 0
14, 11580, Note_on_c, 14, 37, 90
14, 11610, Note_on_c, 14, 37, 0
14, 11610, Note_on_c, 14, 39, 95
14, 11640, Note_on_c, 14, 39, 0
14, 11640, Note_on_c, 14, 40, 89
14, 11670, Note_on_c, 14, 40, 0
14, 11670, Note_on_c, 14, 42, 89
14, 11700, Note_on_c, 14, 42, 0
14, 11700, Note_on_c, 14, 43, 80
14, 11730, Note_on_c, 14, 43, 0
14, 11730, Note_on_c, 14, 40, 99
14, 11760, Note_on_c, 14, 40, 0
14, 11760, Note_on_c, 14, 42, 94
14, 11790, Note_on_c, 14, 42, 0
14, 11790, Note_on_c, 14, 35, 104
14, 11820, Note_on_c, 14, 35, 0
14, 11820, Note_on_c, 14, 37, 89
14, 11850, Note_on_c, 14, 37, 0
14, 11850, Note_on_c, 14, 39, 90
14, 11880, Note_on_c, 14, 39, 0
14, 11880, Note_on_c, 14, 40, 89
14, 11910, Note_on_c, 14, 40, 0
14, 11910, Note_on_c, 14, 38, 99
14, 11940, Note_on_c, 14, 38, 0
14, 11940, Note_on_c, 14, 36, 94
14, 11970, Note_on_c, 14, 36, 0
14, 11970, Note_on_c, 14, 35, 95
14, 12000, Note_on_c, 14, 35, 0
14, 12000, Note_on_c, 14, 33, 94
14, 12030, Note_on_c, 14, 33, 0
14, 12030, Note_on_c, 14, 31, 86
14, 12060, Note_on_c, 14, 31, 0
14, 12060, Note_on_c, 14, 33, 94
14, 12090, Note_on_c, 14, 33, 0
14, 12090, Note_on_c, 14, 35, 94
14, 12120, Note_on_c, 14, 35, 0
14, 12120, Note_on_c, 14, 31, 99
14, 12150, Note_on_c, 14, 31, 0
14, 12150, Note_on_c, 14, 40, 95
14, 12180, Note_on_c, 14, 40, 0
14, 12180, Note_on_c, 14, 42, 89
14, 12210, Note_on_c, 14, 42, 0
14, 12210, Note_on_c, 14, 43, 84
14, 12240, Note_on_c, 14, 43, 0
14, 12240, Note_on_c, 14, 45, 94
14, 12270, Note_on_c, 14, 45, 0
14, 12270, Note_on_c, 14, 42, 93
14, 12300, Note_on_c, 14, 42, 0
14, 12300, Note_on_c, 14, 43, 98
14, 12330, Note_on_c, 14, 43, 0
14, 12330, Note_on_c, 14, 45, 95
14, 12360, Note_on_c, 14, 45, 0
14, 12360, Note_on_c, 14, 47, 89
14, 12390, Note_on_c, 14, 47, 0
14, 12390, Note_on_c, 14, 46, 93
14, 12420, Note_on_c, 14, 46, 0
14, 12420, Note_on_c, 14, 47, 95
14, 12450, Note_on_c, 14, 47, 0
14, 12450, Note_on_c, 14, 35, 99
14, 12480, Note_on_c, 14, 35, 0
14, 13440, Note_on_c, 14, 45, 99
14, 13470, Note_on_c, 14, 45, 0
14, 13470, Note_on_c, 14, 49, 64
14, 13500, Note_on_c, 14, 49, 0
14, 13500, Note_on_c, 14, 47, 89
14, 13530, Note_on_c, 14, 47, 0
14, 13530, Note_on_c, 14, 45, 99
14, 13560, Note_on_c, 14, 45, 0
14, 13560, Note_on_c, 14, 44, 85
14, 13590, Note_on_c, 14, 44, 0
14, 13590, Note_on_c, 14, 40, 93
14, 13620, Note_on_c, 14, 40, 0
14, 13620, Note_on_c, 14, 42, 84
14, 13650, Note_on_c, 14, 42, 0
14, 13650, Note_on_c, 14, 44, 89
14, 13680, Note_on_c, 14, 44, 0
14, 13920, Note_on_c, 14, 45, 99
14, 13950, Note_on_c, 14, 45, 0
14, 13950, Note_on_c, 14, 49, 69
14, 13980, Note_on_c, 14, 49, 0
14, 13980, Note_on_c, 14, 47, 94
14, 14010, Note_on_c, 14, 47, 0
14, 14010, Note_on_c, 14, 45, 99
14, 14040, Note_on_c, 14, 45, 0
14, 14040, Note_on_c, 14, 44, 93
14, 14070, Note_on_c, 14, 44, 0
14, 14070, Note_on_c, 14, 40, 90
14, 14100, Note_on_c, 14, 40, 0
14, 14100, Note_on_c, 14, 42, 84
14, 14130, Note_on_c, 14, 42, 0
14, 14130, Note_on_c, 14, 44, 93
14, 14160, Note_on_c, 14, 44, 0
14, 14280, Program_c, 14, 45
14, 14400, Note_on_c, 14, 33, 95
14, 14460, Note_on_c, 14, 33, 0
14, 16080, Note_on_c, 14, 33, 69
14, 16200, Note_on_c, 14, 33, 0
14, 16440, Note_on_c, 14, 33, 66
14, 16560, Note_on_c, 14, 33, 0
14, 16560, Note_on_c, 14, 33, 77
14, 16680, Note_on_c, 14, 33, 0
14, 16920, Note_on_c, 14, 33, 72
14, 17040, Note_on_c, 14, 33, 0
14, 17040, Note_on_c, 14, 33, 69
14, 17160, Note_on_c, 14, 33, 0
14, 17280, Note_on_c, 14, 33, 67
14, 17400, Note_on_c, 14, 33, 0
14, 17520, Note_on_c, 14, 33, 74
14, 17640, Note_on_c, 14, 33, 0
14, 18120, Note_on_c, 14, 33, 84
14, 18240, Note_on_c, 14, 33, 0
14, 18960, Note_on_c, 14, 38, 68
14, 19080, Note_on_c, 14, 38, 0
14, 23640, Program_c, 14, 48
14, 23760, Note_on_c, 14, 38, 43
14, 24000, Note_on_c, 14, 38, 0
14, 24000, Note_on_c, 14, 37, 43
14, 24120, Note_on_c, 14, 37, 0
14, 24120, Note_on_c, 14, 35, 64
14, 24240, Note_on_c, 14, 35, 0
14, 24240, Note_on_c, 14, 33, 54
14, 24600, Note_on_c, 14, 33, 0
14, 24600, Note_on_c, 14, 31, 53
14, 24720, Note_on_c, 14, 31, 0
14, 24720, Note_on_c, 14, 30, 52
14, 24960, Note_on_c, 14, 30, 0
14, 24960, Note_on_c, 14, 31, 60
14, 25080, Note_on_c, 14, 31, 0
14, 25080, Note_on_c, 14, 33, 59
14, 25200, Note_on_c, 14, 33, 0
14, 25200, Control_c, 14, 7, 97
14, 25200, Note_on_c, 14, 35, 66
14, 25210, Control_c, 14, 7, 98
14, 25220, Control_c, 14, 7, 99
14, 25230, Control_c, 14, 7, 100
14, 25240, Control_c, 14, 7, 101
14, 25250, Control_c, 14, 7, 103
14, 25260, Control_c, 14, 7, 104
14, 25270, Control_c, 14, 7, 105
14, 25280, Control_c, 14, 7, 106
14, 25290, Control_c, 14, 7, 107
14, 25300, Control_c, 14, 7, 109
14, 25310, Control_c, 14, 7, 110
14, 25320, Control_c, 14, 7, 111
14, 25330, Control_c, 14, 7, 112
14, 25340, Control_c, 14, 7, 113
14, 25350, Control_c, 14, 7, 115
14, 25360, Control_c, 14, 7, 116
14, 25370, Control_c, 14, 7, 117
14, 25380, Note_on_c, 14, 35, 0
14, 25380, Control_c, 14, 7, 118
14, 25380, Note_on_c, 14, 34, 67
14, 25390, Control_c, 14, 7, 119
14, 25400, Control_c, 14, 7, 121
14, 25410, Control_c, 14, 7, 122
14, 25420, Control_c, 14, 7, 123
14, 25430, Control_c, 14, 7, 124
14, 25440, Note_on_c, 14, 34, 0
14, 25440, Control_c, 14, 7, 126
14, 25440, Note_on_c, 14, 33, 69
14, 25450, Control_c, 14, 7, 125
14, 25460, Control_c, 14, 7, 124
14, 25470, Control_c, 14, 7, 123
14, 25480, Control_c, 14, 7, 122
14, 25490, Control_c, 14, 7, 121
14, 25500, Control_c, 14, 7, 120
14, 25510, Control_c, 14, 7, 119
14, 25520, Control_c, 14, 7, 118
14, 25530, Control_c, 14, 7, 117
14, 25540, Control_c, 14, 7, 116
14, 25550, Control_c, 14, 7, 115
14, 25560, Control_c, 14, 7, 113
14, 25570, Control_c, 14, 7, 112
14, 25580, Control_c, 14, 7, 111
14, 25590, Control_c, 14, 7, 110
14, 25600, Control_c, 14, 7, 109
14, 25610, Control_c, 14, 7, 108
14, 25620, Control_c, 14, 7, 107
14, 25630, Control_c, 14, 7, 106
14, 25640, Control_c, 14, 7, 105
14, 25650, Control_c, 14, 7, 104
14, 25660, Control_c, 14, 7, 103
14, 25670, Control_c, 14, 7, 102
14, 25680, Control_c, 14, 7, 100
14, 26160, Note_on_c, 14, 33, 0
14, 26160, Note_on_c, 14, 38, 94
14, 26220, Note_on_c, 14, 38, 0
14, 26640, Note_on_c, 14, 33, 99
14, 26700, Note_on_c, 14, 33, 0
14, 27120, Note_on_c, 14, 38, 95
14, 27180, Note_on_c, 14, 38, 0
14, 27600, Note_on_c, 14, 33, 104
14, 27660, Note_on_c, 14, 33, 0
14, 28080, Note_on_c, 14, 38, 94
14, 28140, Note_on_c, 14, 38, 0
14, 28320, Note_on_c, 14, 30, 99
14, 28380, Note_on_c, 14, 30, 0
14, 28560, Note_on_c, 14, 35, 64
14, 28620, Note_on_c, 14, 35, 0
14, 28680, Note_on_c, 14, 38, 85
14, 28740, Note_on_c, 14, 38, 0
14, 28800, Note_on_c, 14, 43, 59
14, 28860, Note_on_c, 14, 43, 0
14, 28920, Note_on_c, 14, 35, 58
14, 28980, Note_on_c, 14, 35, 0
14, 29040, Note_on_c, 14, 40, 76
14, 29100, Note_on_c, 14, 40, 0
14, 29160, Note_on_c, 14, 43, 68
14, 29220, Note_on_c, 14, 43, 0
14, 29280, Note_on_c, 14, 45, 73
14, 29340, Note_on_c, 14, 45, 0
14, 29520, Note_on_c, 14, 38, 39
14, 29580, Note_on_c, 14, 38, 0
14, 30000, Note_on_c, 14, 33, 38
14, 30060, Note_on_c, 14, 33, 0
14, 30480, Note_on_c, 14, 38, 43
14, 30540, Note_on_c, 14, 38, 0
14, 30960, Note_on_c, 14, 38, 41
14, 31020, Note_on_c, 14, 38, 0
14, 31440, Note_on_c, 14, 31, 51
14, 31500, Note_on_c, 14, 31, 0
14, 31920, Note_on_c, 14, 31, 95
14, 31980, Note_on_c, 14, 31, 0
14, 34020, Note_on_c, 14, 31, 67
14, 34050, Note_on_c, 14, 31, 0
14, 34050, Note_on_c, 14, 31, 71
14, 34080, Note_on_c, 14, 31, 0
14, 34080, Note_on_c, 14, 31, 77
14, 34140, Note_on_c, 14, 31, 0
14, 34500, Note_on_c, 14, 31, 72
14, 34530, Note_on_c, 14, 31, 0
14, 34530, Note_on_c, 14, 31, 71
14, 34560, Note_on_c, 14, 31, 0
14, 34560, Note_on_c, 14, 31, 73
14, 34620, Note_on_c, 14, 31, 0
14, 35940, Note_on_c, 14, 31, 95
14, 35970, Note_on_c, 14, 31, 0
14, 35970, Note_on_c, 14, 31, 89
14, 36000, Note_on_c, 14, 31, 0
14, 36000, Note_on_c, 14, 31, 94
14, 36060, Note_on_c, 14, 31, 0
14, 36420, Note_on_c, 14, 31, 94
14, 36450, Note_on_c, 14, 31, 0
14, 36450, Note_on_c, 14, 31, 94
14, 36480, Note_on_c, 14, 31, 0
14, 36480, Note_on_c, 14, 31, 94
14, 36540, Note_on_c, 14, 31, 0
14, 37200, Note_on_c, 14, 31, 46
14, 38040, Note_on_c, 14, 31, 0
14, 38040, Note_on_c, 14, 31, 42
14, 38280, Note_on_c, 14, 31, 0
14, 40560, Control_c, 14, 0, 0
14, 40560, Control_c, 14, 32, 0
14, 40560, Program_c, 14, 48
14, 40560, Control_c, 14, 7, 100
14, 40560, Control_c, 14, 10, 113
14, 40560, Note_on_c, 14, 36, 39
14, 40680, Note_on_c, 14, 36, 0
14, 40740, Note_on_c, 14, 36, 40
14, 40770, Note_on_c, 14, 36, 0
14, 40770, Note_on_c, 14, 36, 43
14, 40800, Note_on_c, 14, 36, 0
14, 40800, Note_on_c, 14, 36, 43
14, 40920, Note_on_c, 14, 36, 0
14, 40980, Note_on_c, 14, 36, 35
14, 41010, Note_on_c, 14, 36, 0
14, 41010, Note_on_c, 14, 36, 38
14, 41040, Note_on_c, 14, 36, 0
14, 41040, Note_on_c, 14, 36, 42
14, 41100, Note_on_c, 14, 36, 0
14, 41160, Note_on_c, 14, 36, 43
14, 41190, Note_on_c, 14, 36, 0
14, 41220, Note_on_c, 14, 36, 47
14, 41250, Note_on_c, 14, 36, 0
14, 41280, Note_on_c, 14, 36, 43
14, 41340, Note_on_c, 14, 36, 0
14, 41520, Note_on_c, 14, 33, 45
14, 41550, Note_on_c, 14, 33, 0
14, 41580, Note_on_c, 14, 33, 43
14, 41595, Note_on_c, 14, 33, 0
14, 41610, Note_on_c, 14, 33, 40
14, 41625, Note_on_c, 14, 33, 0
14, 41640, Note_on_c, 14, 36, 47
14, 41670, Note_on_c, 14, 36, 0
14, 41700, Note_on_c, 14, 36, 40
14, 41715, Note_on_c, 14, 36, 0
14, 41730, Note_on_c, 14, 36, 40
14, 41745, Note_on_c, 14, 36, 0
14, 41760, Note_on_c, 14, 38, 61
14, 41820, Note_on_c, 14, 38, 0
14, 42000, Note_on_c, 14, 38, 43
14, 42030, Note_on_c, 14, 38, 0
14, 42060, Note_on_c, 14, 38, 40
14, 42075, Note_on_c, 14, 38, 0
14, 42090, Note_on_c, 14, 38, 45
14, 42105, Note_on_c, 14, 38, 0
14, 42120, Note_on_c, 14, 38, 39
14, 42150, Note_on_c, 14, 38, 0
14, 42180, Note_on_c, 14, 40, 45
14, 42195, Note_on_c, 14, 40, 0
14, 42210, Note_on_c, 14, 42, 45
14, 42225, Note_on_c, 14, 42, 0
14, 42240, Note_on_c, 14, 43, 41
14, 42270, Note_on_c, 14, 43, 0
14, 42300, Note_on_c, 14, 43, 43
14, 42315, Note_on_c, 14, 43, 0
14, 42330, Note_on_c, 14, 43, 43
14, 42345, Note_on_c, 14, 43, 0
14, 42360, Note_on_c, 14, 43, 43
14, 42390, Note_on_c, 14, 43, 0
14, 42480, Note_on_c, 14, 36, 43
14, 42510, Note_on_c, 14, 36, 0
14, 42600, Note_on_c, 14, 38, 45
14, 42630, Note_on_c, 14, 38, 0
14, 42720, Note_on_c, 14, 43, 50
14, 42960, Note_on_c, 14, 43, 0
14, 45360, Note_on_c, 14, 47, 55
14, 45480, Note_on_c, 14, 47, 0
14, 45480, Note_on_c, 14, 48, 59
14, 45600, Note_on_c, 14, 48, 0
14, 45600, Note_on_c, 14, 47, 47
14, 45720, Note_on_c, 14, 47, 0
14, 45720, Note_on_c, 14, 45, 66
14, 45840, Note_on_c, 14, 45, 0
14, 45840, Note_on_c, 14, 43, 65
14, 45960, Note_on_c, 14, 43, 0
14, 45960, Note_on_c, 14, 42, 67
14, 46080, Note_on_c, 14, 42, 0
14, 46080, Note_on_c, 14, 40, 47
14, 46140, Note_on_c, 14, 40, 0
14, 46140, Note_on_c, 14, 45, 73
14, 46200, Note_on_c, 14, 45, 0
14, 46200, Note_on_c, 14, 38, 77
14, 46260, Note_on_c, 14, 38, 0
14, 47280, Note_on_c, 14, 40, 53
14, 47340, Note_on_c, 14, 40, 0
14, 47340, Note_on_c, 14, 33, 63
14, 47400, Note_on_c, 14, 33, 0
14, 47400, Note_on_c, 14, 38, 64
14, 47460, Note_on_c, 14, 38, 0
14, 47640, Note_on_c, 14, 33, 66
14, 47700, Note_on_c, 14, 33, 0
14, 47700, Note_on_c, 14, 38, 53
14, 47760, Note_on_c, 14, 38, 0
14, 48000, Note_on_c, 14, 36, 82
14, 48060, Note_on_c, 14, 36, 0
14, 48060, Note_on_c, 14, 36, 89
14, 48300, Note_on_c, 14, 36, 0
14, 48300, Note_on_c, 14, 36, 90
14, 48540, Note_on_c, 14, 36, 0
14, 48540, Note_on_c, 14, 36, 93
14, 48660, Note_on_c, 14, 36, 0
14, 48660, Note_on_c, 14, 36, 89
14, 48780, Note_on_c, 14, 36, 0
14, 48780, Note_on_c, 14, 36, 95
14, 49020, Note_on_c, 14, 36, 0
14, 49020, Note_on_c, 14, 33, 99
14, 49140, Note_on_c, 14, 33, 0
14, 49140, Note_on_c, 14, 36, 99
14, 49260, Note_on_c, 14, 36, 0
14, 49260, Note_on_c, 14, 38, 105
14, 49500, Note_on_c, 14, 38, 0
14, 49500, Note_on_c, 14, 38, 105
14, 49620, Note_on_c, 14, 38, 0
14, 49620, Note_on_c, 14, 38, 104
14, 49740, Note_on_c, 14, 38, 0
14, 49740, Note_on_c, 14, 43, 90
14, 49860, Note_on_c, 14, 43, 0
14, 49860, Note_on_c, 14, 40, 99
14, 49920, Note_on_c, 14, 40, 0
14, 49920, Note_on_c, 14, 36, 90
14, 49980, Note_on_c, 14, 36, 0
14, 49980, Note_on_c, 14, 48, 94
14, 50100, Note_on_c, 14, 48, 0
14, 50100, Note_on_c, 14, 50, 82
14, 50160, Note_on_c, 14, 50, 0
14, 50160, Note_on_c, 14, 47, 99
14, 50190, Note_on_c, 14, 47, 0
14, 50190, Note_on_c, 14, 38, 99
14, 50220, Note_on_c, 14, 38, 0
14, 50220, Note_on_c, 14, 40, 105
14, 50250, Note_on_c, 14, 40, 0
14, 50250, Note_on_c, 14, 42, 94
14, 50280, Note_on_c, 14, 42, 0
14, 50280, Note_on_c, 14, 43, 98
14, 50310, Note_on_c, 14, 43, 0
14, 50310, Note_on_c, 14, 45, 101
14, 50340, Note_on_c, 14, 45, 0
14, 50340, Note_on_c, 14, 47, 93
14, 50370, Note_on_c, 14, 47, 0
14, 50370, Note_on_c, 14, 43, 99
14, 50400, Note_on_c, 14, 43, 0
14, 50400, Note_on_c, 14, 40, 98
14, 50430, Note_on_c, 14, 40, 0
14, 50430, Note_on_c, 14, 43, 99
14, 50460, Note_on_c, 14, 43, 0
14, 50460, Note_on_c, 14, 42, 94
14, 50490, Note_on_c, 14, 42, 0
14, 50490, Note_on_c, 14, 45, 101
14, 50520, Note_on_c, 14, 45, 0
14, 50520, Note_on_c, 14, 43, 98
14, 50550, Note_on_c, 14, 43, 0
14, 50550, Note_on_c, 14, 42, 90
14, 50580, Note_on_c, 14, 42, 0
14, 50580, Note_on_c, 14, 40, 101
14, 50610, Note_on_c, 14, 40, 0
14, 50610, Note_on_c, 14, 38, 104
14, 50640, Note_on_c, 14, 38, 0
14, 50640, Note_on_c, 14, 36, 99
14, 50670, Note_on_c, 14, 36, 0
14, 50670, Note_on_c, 14, 35, 99
14, 50700, Note_on_c, 14, 35, 0
14, 50700, Note_on_c, 14, 36, 104
14, 50730, Note_on_c, 14, 36, 0
14, 50730, Note_on_c, 14, 38, 99
14, 50760, Note_on_c, 14, 38, 0
14, 50760, Note_on_c, 14, 35, 104
14, 50790, Note_on_c, 14, 35, 0
14, 50790, Note_on_c, 14, 31, 99
14, 50820, Note_on_c, 14, 31, 0
14, 50820, Note_on_c, 14, 33, 99
14, 50850, Note_on_c, 14, 33, 0
14, 50850, Note_on_c, 14, 35, 104
14, 50880, Note_on_c, 14, 35, 0
14, 50880, Note_on_c, 14, 36, 95
14, 50910, Note_on_c, 14, 36, 0
14, 50910, Note_on_c, 14, 33, 98
14, 50940, Note_on_c, 14, 33, 0
14, 50940, Note_on_c, 14, 35, 105
14, 50970, Note_on_c, 14, 35, 0
14, 50970, Note_on_c, 14, 36, 98
14, 51000, Note_on_c, 14, 36, 0
14, 51000, Note_on_c, 14, 38, 105
14, 51060, Note_on_c, 14, 38, 0
14, 51060, Note_on_c, 14, 38, 105
14, 51120, Note_on_c, 14, 38, 0
14, 52080, Note_on_c, 14, 31, 89
14, 52110, Note_on_c, 14, 31, 0
14, 52110, Note_on_c, 14, 34, 93
14, 52140, Note_on_c, 14, 34, 0
14, 52140, Note_on_c, 14, 36, 93
14, 52170, Note_on_c, 14, 36, 0
14, 52170, Note_on_c, 14, 38, 94
14, 52200, Note_on_c, 14, 38, 0
14, 52200, Note_on_c, 14, 39, 90
14, 52230, Note_on_c, 14, 39, 0
14, 52230, Note_on_c, 14, 41, 80
14, 52260, Note_on_c, 14, 41, 0
14, 52260, Note_on_c, 14, 43, 82
14, 52290, Note_on_c, 14, 43, 0
14, 52290, Note_on_c, 14, 39, 93
14, 52320, Note_on_c, 14, 39, 0
14, 52320, Note_on_c, 14, 41, 81
14, 52350, Note_on_c, 14, 41, 0
14, 52350, Note_on_c, 14, 34, 89
14, 52380, Note_on_c, 14, 34, 0
14, 52380, Note_on_c, 14, 36, 89
14, 52410, Note_on_c, 14, 36, 0
14, 52410, Note_on_c, 14, 38, 85
14, 52440, Note_on_c, 14, 38, 0
14, 52440, Note_on_c, 14, 39, 89
14, 52470, Note_on_c, 14, 39, 0
14, 52470, Note_on_c, 14, 38, 85
14, 52500, Note_on_c, 14, 38, 0
14, 52500, Note_on_c, 14, 36, 93
14, 52530, Note_on_c, 14, 36, 0
14, 52530, Note_on_c, 14, 34, 93
14, 52560, Note_on_c, 14, 34, 0
14, 52560, Note_on_c, 14, 32, 89
14, 52590, Note_on_c, 14, 32, 0
14, 52590, Note_on_c, 14, 31, 95
14, 52620, Note_on_c, 14, 31, 0
14, 52620, Note_on_c, 14, 32, 89
14, 52650, Note_on_c, 14, 32, 0
14, 52650, Note_on_c, 14, 34, 94
14, 52680, Note_on_c, 14, 34, 0
14, 52680, Note_on_c, 14, 31, 94
14, 52710, Note_on_c, 14, 31, 0
14, 52710, Note_on_c, 14, 27, 94
14, 52740, Note_on_c, 14, 27, 0
14, 52740, Note_on_c, 14, 29, 89
14, 52770, Note_on_c, 14, 29, 0
14, 52770, Note_on_c, 14, 31, 89
14, 52800, Note_on_c, 14, 31, 0
14, 52800, Note_on_c, 14, 32, 94
14, 52830, Note_on_c, 14, 32, 0
14, 52830, Note_on_c, 14, 29, 89
14, 52860, Note_on_c, 14, 29, 0
14, 52860, Note_on_c, 14, 31, 99
14, 52890, Note_on_c, 14, 31, 0
14, 52890, Note_on_c, 14, 32, 94
14, 52920, Note_on_c, 14, 32, 0
14, 52920, Note_on_c, 14, 34, 95
14, 52950, Note_on_c, 14, 34, 0
14, 52950, Note_on_c, 14, 46, 84
14, 52980, Note_on_c, 14, 46, 0
14, 52980, Note_on_c, 14, 46, 80
14, 53010, Note_on_c, 14, 46, 0
14, 53010, Note_on_c, 14, 46, 84
14, 53040, Note_on_c, 14, 46, 0
14, 53940, Note_on_c, 14, 34, 74
14, 54000, Note_on_c, 14, 34, 0
14, 54000, Note_on_c, 14, 39, 95
14, 54090, Control_c, 14, 7, 100
14, 54095, Control_c, 14, 7, 96
14, 54100, Control_c, 14, 7, 91
14, 54105, Control_c, 14, 7, 86
14, 54110, Control_c, 14, 7, 82
14, 54115, Control_c, 14, 7, 77
14, 54120, Control_c, 14, 7, 72
14, 54125, Control_c, 14, 7, 67
14, 54960, Note_on_c, 14, 39, 0
14, 54960, Note_on_c, 14, 38, 99
14, 54965, Control_c, 14, 7, 100
14, 55045, Control_c, 14, 7, 98
14, 55050, Control_c, 14, 7, 94
14, 55055, Control_c, 14, 7, 90
14, 55060, Control_c, 14, 7, 85
14, 55065, Control_c, 14, 7, 81
14, 55070, Control_c, 14, 7, 76
14, 55075, Control_c, 14, 7, 72
14, 55080, Control_c, 14, 7, 67
14, 55920, Note_on_c, 14, 38, 0
14, 55920, Note_on_c, 14, 39, 74
14, 55950, Note_on_c, 14, 39, 0
14, 56040, Control_c, 14, 7, 100
14, 56280, Program_c, 14, 45
14, 56400, Note_on_c, 14, 36, 69
14, 56460, Note_on_c, 14, 36, 0
14, 56520, Note_on_c, 14, 39, 46
14, 56580, Note_on_c, 14, 39, 0
14, 56640, Note_on_c, 14, 41, 53
14, 56700, Note_on_c, 14, 41, 0
14, 56760, Program_c, 14, 48
14, 56880, Note_on_c, 14, 34, 93
14, 56980, Control_c, 14, 7, 99
14, 56985, Control_c, 14, 7, 95
14, 56990, Control_c, 14, 7, 91
14, 56995, Control_c, 14, 7, 87
14, 57000, Control_c, 14, 7, 83
14, 57005, Control_c, 14, 7, 79
14, 57010, Control_c, 14, 7, 75
14, 57840, Note_on_c, 14, 34, 0
14, 57840, Control_c, 14, 7, 104
14, 57840, Note_on_c, 14, 33, 99
14, 57925, Control_c, 14, 7, 101
14, 57930, Control_c, 14, 7, 98
14, 57935, Control_c, 14, 7, 94
14, 57940, Control_c, 14, 7, 90
14, 57945, Control_c, 14, 7, 87
14, 57950, Control_c, 14, 7, 83
14, 57955, Control_c, 14, 7, 79
14, 57960, Control_c, 14, 7, 75
14, 58800, Note_on_c, 14, 33, 0
14, 58800, Note_on_c, 14, 34, 64
14, 58860, Note_on_c, 14, 34, 0
14, 58860, Note_on_c, 14, 48, 29
14, 58915, Control_c, 14, 7, 100
14, 58980, Note_on_c, 14, 48, 0
14, 59160, Program_c, 14, 45
14, 59280, Note_on_c, 14, 31, 43
14, 59340, Note_on_c, 14, 31, 0
14, 59400, Note_on_c, 14, 34, 44
14, 59460, Note_on_c, 14, 34, 0
14, 59520, Note_on_c, 14, 36, 46
14, 59580, Note_on_c, 14, 36, 0
14, 59640, Program_c, 14, 48
14, 59760, Note_on_c, 14, 29, 94
14, 59875, Control_c, 14, 7, 99
14, 59880, Control_c, 14, 7, 97
14, 59885, Control_c, 14, 7, 95
14, 59890, Control_c, 14, 7, 93
14, 59895, Control_c, 14, 7, 91
14, 59900, Control_c, 14, 7, 89
14, 59905, Control_c, 14, 7, 87
14, 59910, Control_c, 14, 7, 85
14, 59915, Control_c, 14, 7, 83
14, 59920, Control_c, 14, 7, 81
14, 59925, Control_c, 14, 7, 79
14, 59930, Control_c, 14, 7, 77
14, 59935, Control_c, 14, 7, 75
14, 59940, Control_c, 14, 7, 73
14, 59945, Control_c, 14, 7, 71
14, 60720, Note_on_c, 14, 29, 0
14, 60720, Control_c, 14, 7, 99
14, 60720, Note_on_c, 14, 28, 99
14, 60840, Control_c, 14, 7, 97
14, 60845, Control_c, 14, 7, 96
14, 60850, Control_c, 14, 7, 94
14, 60855, Control_c, 14, 7, 92
14, 60860, Control_c, 14, 7, 91
14, 60865, Control_c, 14, 7, 89
14, 60870, Control_c, 14, 7, 87
14, 60875, Control_c, 14, 7, 85
14, 60880, Control_c, 14, 7, 84
14, 60885, Control_c, 14, 7, 82
14, 60890, Control_c, 14, 7, 80
14, 60895, Control_c, 14, 7, 78
14, 60900, Control_c, 14, 7, 77
14, 60905, Control_c, 14, 7, 75
14, 60910, Control_c, 14, 7, 73
14, 60915, Control_c, 14, 7, 71
14, 61680, Note_on_c, 14, 28, 0
14, 61680, Control_c, 14, 7, 100
14, 61680, Note_on_c, 14, 27, 93
14, 61740, Note_on_c, 14, 27, 0
14, 62280, Program_c, 14, 45
14, 62640, Note_on_c, 14, 36, 90
14, 62700, Note_on_c, 14, 36, 0
14, 62760, Note_on_c, 14, 42, 84
14, 62820, Note_on_c, 14, 42, 0
14, 62820, Note_on_c, 14, 45, 84
14, 62880, Note_on_c, 14, 45, 0
14, 62880, Note_on_c, 14, 48, 78
14, 62940, Note_on_c, 14, 48, 0
14, 63600, Note_on_c, 14, 34, 99
14, 63660, Note_on_c, 14, 34, 0
14, 63720, Note_on_c, 14, 38, 104
14, 63780, Note_on_c, 14, 38, 0
14, 63780, Note_on_c, 14, 43, 94
14, 63840, Note_on_c, 14, 43, 0
14, 63840, Note_on_c, 14, 46, 76
14, 63900, Note_on_c, 14, 46, 0
14, 64560, Note_on_c, 14, 29, 82
14, 64620, Note_on_c, 14, 29, 0
14, 64680, Note_on_c, 14, 35, 89
14, 64740, Note_on_c, 14, 35, 0
14, 64740, Note_on_c, 14, 38, 95
14, 64800, Note_on_c, 14, 38, 0
14, 64800, Note_on_c, 14, 41, 90
14, 64860, Note_on_c, 14, 41, 0
14, 65520, Note_on_c, 14, 39, 84
14, 65580, Note_on_c, 14, 39, 0
14, 65640, Note_on_c, 14, 43, 86
14, 65700, Note_on_c, 14, 43, 0
14, 65700, Note_on_c, 14, 48, 84
14, 65760, Note_on_c, 14, 48, 0
14, 65760, Note_on_c, 14, 51, 78
14, 65820, Note_on_c, 14, 51, 0
14, 66480, Note_on_c, 14, 33, 80
14, 66540, Note_on_c, 14, 33, 0
14, 66600, Note_on_c, 14, 37, 81
14, 66660, Note_on_c, 14, 37, 0
14, 66660, Note_on_c, 14, 40, 90
14, 66720, Note_on_c, 14, 40, 0
14, 66720, Note_on_c, 14, 45, 81
14, 66780, Note_on_c, 14, 45, 0
14, 67200, Program_c, 14, 48
14, 67440, Note_on_c, 14, 38, 94
14, 67500, Note_on_c, 14, 38, 0
14, 68340, Note_on_c, 14, 31, 68
14, 68400, Note_on_c, 14, 31, 0
14, 68400, Note_on_c, 14, 38, 95
14, 68460, Note_on_c, 14, 38, 0
14, 69300, Note_on_c, 14, 31, 68
14, 69360, Note_on_c, 14, 31, 0
14, 69360, Note_on_c, 14, 38, 95
14, 69420, Note_on_c, 14, 38, 0
14, 70920, Program_c, 14, 45
14, 71040, Note_on_c, 14, 38, 68
14, 71160, Note_on_c, 14, 38, 0
14, 71400, Note_on_c, 14, 38, 53
14, 71520, Note_on_c, 14, 38, 0
14, 71520, Note_on_c, 14, 38, 59
14, 71640, Note_on_c, 14, 38, 0
14, 71880, Note_on_c, 14, 38, 61
14, 72000, Note_on_c, 14, 38, 0
14, 72000, Note_on_c, 14, 38, 64
14, 72120, Note_on_c, 14, 38, 0
14, 72240, Note_on_c, 14, 38, 53
14, 72360, Note_on_c, 14, 38, 0
14, 72480, Note_on_c, 14, 38, 63
14, 72600, Note_on_c, 14, 38, 0
14, 73080, Note_on_c, 14, 38, 59
14, 73200, Note_on_c, 14, 38, 0
14, 73920, Note_on_c, 14, 31, 55
14, 74040, Note_on_c, 14, 31, 0
14, 78600, Program_c, 14, 48
14, 78720, Note_on_c, 14, 43, 39
14, 78960, Note_on_c, 14, 43, 0
14, 78960, Note_on_c, 14, 42, 37
14, 79080, Note_on_c, 14, 42, 0
14, 79080, Note_on_c, 14, 40, 42
14, 79200, Note_on_c, 14, 40, 0
14, 79200, Note_on_c, 14, 38, 46
14, 79560, Note_on_c, 14, 38, 0
14, 79560, Note_on_c, 14, 36, 43
14, 79680, Note_on_c, 14, 36, 0
14, 79680, Note_on_c, 14, 35, 29
14, 79920, Note_on_c, 14, 35, 0
14, 79920, Note_on_c, 14, 36, 52
14, 80040, Note_on_c, 14, 36, 0
14, 80040, Note_on_c, 14, 38, 51
14, 80160, Note_on_c, 14, 38, 0
14, 80160, Note_on_c, 14, 40, 81
14, 80340, Note_on_c, 14, 40, 0
14, 80340, Note_on_c, 14, 39, 94
14, 80400, Note_on_c, 14, 39, 0
14, 80400, Note_on_c, 14, 38, 104
14, 80440, Control_c, 14, 7, 99
14, 80450, Control_c, 14, 7, 98
14, 80455, Control_c, 14, 7, 97
14, 80460, Control_c, 14, 7, 96
14, 80465, Control_c, 14, 7, 95
14, 80470, Control_c, 14, 7, 94
14, 80475, Control_c, 14, 7, 93
14, 80480, Control_c, 14, 7, 92
14, 80485, Control_c, 14, 7, 91
14, 80490, Control_c, 14, 7, 90
14, 80495, Control_c, 14, 7, 89
14, 80500, Control_c, 14, 7, 88
14, 80505, Control_c, 14, 7, 87
14, 80510, Control_c, 14, 7, 86
14, 80515, Control_c, 14, 7, 85
14, 80520, Control_c, 14, 7, 84
14, 80525, Control_c, 14, 7, 83
14, 80530, Control_c, 14, 7, 82
14, 80535, Control_c, 14, 7, 81
14, 80545, Control_c, 14, 7, 80
14, 80550, Control_c, 14, 7, 79
14, 80555, Control_c, 14, 7, 78
14, 80560, Control_c, 14, 7, 77
14, 80565, Control_c, 14, 7, 76
14, 80570, Control_c, 14, 7, 75
14, 80575, Control_c, 14, 7, 74
14, 80580, Control_c, 14, 7, 73
14, 80585, Control_c, 14, 7, 72
14, 80590, Control_c, 14, 7, 71
14, 80595, Control_c, 14, 7, 70
14, 80600, Control_c, 14, 7, 69
14, 80605, Control_c, 14, 7, 68
14, 80610, Control_c, 14, 7, 67
14, 80615, Control_c, 14, 7, 66
14, 80620, Control_c, 14, 7, 65
14, 80625, Control_c, 14, 7, 64
14, 80630, Control_c, 14, 7, 63
14, 80635, Control_c, 14, 7, 62
14, 81120, Note_on_c, 14, 38, 0
14, 81120, Note_on_c, 14, 31, 93
14, 81125, Control_c, 14, 7, 100
14, 81180, Note_on_c, 14, 31, 0
14, 81600, Note_on_c, 14, 38, 90
14, 81660, Note_on_c, 14, 38, 0
14, 82080, Note_on_c, 14, 31, 94
14, 82140, Note_on_c, 14, 31, 0
14, 82560, Note_on_c, 14, 38, 95
14, 82620, Note_on_c, 14, 38, 0
14, 83040, Note_on_c, 14, 31, 99
14, 83100, Note_on_c, 14, 31, 0
14, 83280, Note_on_c, 14, 35, 94
14, 83340, Note_on_c, 14, 35, 0
14, 83520, Note_on_c, 14, 40, 76
14, 83580, Note_on_c, 14, 40, 0
14, 83640, Note_on_c, 14, 31, 73
14, 83700, Note_on_c, 14, 31, 0
14, 83760, Note_on_c, 14, 36, 70
14, 83820, Note_on_c, 14, 36, 0
14, 83880, Note_on_c, 14, 40, 67
14, 83940, Note_on_c, 14, 40, 0
14, 84000, Note_on_c, 14, 45, 64
14, 84060, Note_on_c, 14, 45, 0
14, 84120, Note_on_c, 14, 36, 63
14, 84180, Note_on_c, 14, 36, 0
14, 84240, Note_on_c, 14, 38, 73
14, 84300, Note_on_c, 14, 38, 0
14, 84480, Note_on_c, 14, 31, 52
14, 84540, Note_on_c, 14, 31, 0
14, 84960, Note_on_c, 14, 38, 41
14, 85020, Note_on_c, 14, 38, 0
14, 85440, Note_on_c, 14, 31, 36
14, 85500, Note_on_c, 14, 31, 0
14, 85920, Note_on_c, 14, 31, 39
14, 85980, Note_on_c, 14, 31, 0
14, 86400, Note_on_c, 14, 27, 42
14, 86460, Note_on_c, 14, 27, 0
14, 86880, Note_on_c, 14, 27, 84
14, 86940, Note_on_c, 14, 27, 0
14, 87840, Note_on_c, 14, 39, 86
14, 87900, Note_on_c, 14, 39, 0
14, 88980, Note_on_c, 14, 39, 62
14, 89010, Note_on_c, 14, 39, 0
14, 89010, Note_on_c, 14, 39, 71
14, 89040, Note_on_c, 14, 39, 0
14, 89040, Note_on_c, 14, 39, 48
14, 89100, Note_on_c, 14, 39, 0
14, 89460, Note_on_c, 14, 39, 41
14, 89490, Note_on_c, 14, 39, 0
14, 89490, Note_on_c, 14, 39, 45
14, 89520, Note_on_c, 14, 39, 0
14, 89520, Note_on_c, 14, 39, 43
14, 89580, Note_on_c, 14, 39, 0
14, 93840, Program_c, 14, 45
14, 94080, Note_on_c, 14, 29, 44
14, 94140, Note_on_c, 14, 29, 0
14, 94320, Note_on_c, 14, 34, 55
14, 94380, Note_on_c, 14, 34, 0
14, 94560, Note_on_c, 14, 29, 53
14, 94620, Note_on_c, 14, 29, 0
14, 94800, Note_on_c, 14, 34, 53
14, 94860, Note_on_c, 14, 34, 0
14, 95040, Note_on_c, 14, 31, 44
14, 95100, Note_on_c, 14, 31, 0
14, 95280, Note_on_c, 14, 36, 45
14, 95340, Note_on_c, 14, 36, 0
14, 95520, Note_on_c, 14, 31, 43
14, 95580, Note_on_c, 14, 31, 0
14, 95760, Note_on_c, 14, 36, 43
14, 95820, Note_on_c, 14, 36, 0
14, 95880, Program_c, 14, 48
14, 96000, Note_on_c, 14, 39, 104
14, 96030, Note_on_c, 14, 39, 0
14, 96120, Note_on_c, 14, 32, 94
14, 96150, Note_on_c, 14, 32, 0
14, 96240, Note_on_c, 14, 30, 99
14, 96960, Note_on_c, 14, 30, 0
14, 96960, Note_on_c, 14, 39, 99
14, 96990, Note_on_c, 14, 39, 0
14, 97080, Note_on_c, 14, 32, 99
14, 97110, Note_on_c, 14, 32, 0
14, 97200, Note_on_c, 14, 30, 105
14, 97920, Note_on_c, 14, 30, 0
14, 97920, Note_on_c, 14, 29, 105
14, 98160, Note_on_c, 14, 29, 0
14, 98160, Note_on_c, 14, 28, 112
14, 98400, Note_on_c, 14, 28, 0
14, 98400, Note_on_c, 14, 26, 99
14, 98400, Note_on_c, 14, 38, 99
14, 98640, Note_on_c, 14, 38, 0
14, 98640, Note_on_c, 14, 26, 0
14, 98640, Note_on_c, 14, 31, 101
14, 98700, Note_on_c, 14, 31, 0
14, 101040, Note_on_c, 14, 31, 45
14, 101105, Control_c, 14, 7, 99
14, 101120, Control_c, 14, 7, 98
14, 101135, Control_c, 14, 7, 97
14, 101145, Control_c, 14, 7, 96
14, 101160, Control_c, 14, 7, 95
14, 101175, Control_c, 14, 7, 94
14, 101185, Control_c, 14, 7, 93
14, 101200, Control_c, 14, 7, 92
14, 101215, Control_c, 14, 7, 91
14, 101225, Control_c, 14, 7, 90
14, 101240, Control_c, 14, 7, 89
14, 101255, Control_c, 14, 7, 88
14, 101265, Control_c, 14, 7, 87
14, 101280, Control_c, 14, 7, 86
14, 101295, Control_c, 14, 7, 85
14, 101305, Control_c, 14, 7, 84
14, 101320, Control_c, 14, 7, 83
14, 101330, Control_c, 14, 7, 82
14, 101345, Control_c, 14, 7, 81
14, 101360, Control_c, 14, 7, 80
14, 101370, Control_c, 14, 7, 79
14, 101385, Control_c, 14, 7, 78
14, 101400, Control_c, 14, 7, 77
14, 101410, Control_c, 14, 7, 76
14, 101425, Control_c, 14, 7, 75
14, 101440, Control_c, 14, 7, 74
14, 101450, Control_c, 14, 7, 73
14, 101465, Control_c, 14, 7, 72
14, 101480, Control_c, 14, 7, 71
14, 101490, Control_c, 14, 7, 70
14, 101505, Control_c, 14, 7, 69
14, 101515, Control_c, 14, 7, 68
14, 102000, Note_on_c, 14, 31, 0
14, 102070, Control_c, 14, 7, 100
14, 103680, Program_c, 14, 45
14, 103920, Note_on_c, 14, 36, 43
14, 103980, Note_on_c, 14, 36, 0
14, 104160, Note_on_c, 14, 36, 33
14, 104220, Note_on_c, 14, 36, 0
14, 104400, Note_on_c, 14, 36, 43
14, 104460, Note_on_c, 14, 36, 0
14, 104520, Note_on_c, 14, 36, 43
14, 104580, Note_on_c, 14, 36, 0
14, 104580, Note_on_c, 14, 36, 40
14, 104640, Note_on_c, 14, 36, 0
14, 104640, Note_on_c, 14, 36, 43
14, 104700, Note_on_c, 14, 36, 0
14, 104880, Note_on_c, 14, 33, 43
14, 104940, Note_on_c, 14, 33, 0
14, 105000, Note_on_c, 14, 36, 50
14, 105060, Note_on_c, 14, 36, 0
14, 105120, Note_on_c, 14, 38, 58
14, 105180, Note_on_c, 14, 38, 0
14, 105360, Note_on_c, 14, 38, 40
14, 105420, Note_on_c, 14, 38, 0
14, 105480, Note_on_c, 14, 38, 43
14, 105540, Note_on_c, 14, 38, 0
14, 105600, Note_on_c, 14, 43, 43
14, 105660, Note_on_c, 14, 43, 0
14, 105720, Note_on_c, 14, 40, 45
14, 105780, Note_on_c, 14, 40, 0
14, 105840, Note_on_c, 14, 36, 43
14, 105900, Note_on_c, 14, 36, 0
14, 105960, Note_on_c, 14, 38, 42
14, 106020, Note_on_c, 14, 38, 0
14, 106080, Note_on_c, 14, 31, 44
14, 106200, Note_on_c, 14, 31, 0
14, 106260, Program_c, 14, 48
14, 106260, Note_on_c, 14, 36, 94
14, 106290, Note_on_c, 14, 36, 0
14, 106290, Note_on_c, 14, 36, 101
14, 106320, Note_on_c, 14, 36, 0
14, 106320, Note_on_c, 14, 36, 99
14, 106380, Note_on_c, 14, 36, 0
14, 106380, Note_on_c, 14, 36, 127
14, 106620, Note_on_c, 14, 36, 0
14, 106620, Note_on_c, 14, 36, 123
14, 106860, Note_on_c, 14, 36, 0
14, 106860, Note_on_c, 14, 36, 123
14, 106980, Note_on_c, 14, 36, 0
14, 106980, Note_on_c, 14, 36, 93
14, 107100, Note_on_c, 14, 36, 0
14, 107100, Note_on_c, 14, 36, 119
14, 107340, Note_on_c, 14, 36, 0
14, 107340, Note_on_c, 14, 36, 99
14, 107460, Note_on_c, 14, 36, 0
14, 107460, Note_on_c, 14, 38, 105
14, 107580, Note_on_c, 14, 38, 0
14, 107580, Note_on_c, 14, 38, 105
14, 107820, Note_on_c, 14, 38, 0
14, 107820, Note_on_c, 14, 38, 104
14, 107940, Note_on_c, 14, 38, 0
14, 107940, Note_on_c, 14, 43, 95
14, 108060, Note_on_c, 14, 43, 0
14, 108060, Note_on_c, 14, 40, 104
14, 108180, Note_on_c, 14, 40, 0
14, 108180, Note_on_c, 14, 36, 101
14, 108300, Note_on_c, 14, 36, 0
14, 108300, Note_on_c, 14, 38, 101
14, 108420, Note_on_c, 14, 38, 0
14, 108420, Note_on_c, 14, 38, 105
14, 108480, Note_on_c, 14, 38, 0
14, 108480, Note_on_c, 14, 35, 125
14, 108510, Note_on_c, 14, 35, 0
14, 108510, Note_on_c, 14, 38, 105
14, 108540, Note_on_c, 14, 38, 0
14, 108540, Note_on_c, 14, 40, 99
14, 108570, Note_on_c, 14, 40, 0
14, 108570, Note_on_c, 14, 42, 93
14, 108600, Note_on_c, 14, 42, 0
14, 108600, Note_on_c, 14, 43, 98
14, 108630, Note_on_c, 14, 43, 0
14, 108630, Note_on_c, 14, 45, 99
14, 108660, Note_on_c, 14, 45, 0
14, 108660, Note_on_c, 14, 47, 90
14, 108690, Note_on_c, 14, 47, 0
14, 108690, Note_on_c, 14, 43, 95
14, 108720, Note_on_c, 14, 43, 0
14, 108720, Note_on_c, 14, 40, 101
14, 108750, Note_on_c, 14, 40, 0
14, 108750, Note_on_c, 14, 43, 86
14, 108780, Note_on_c, 14, 43, 0
14, 108780, Note_on_c, 14, 42, 90
14, 108810, Note_on_c, 14, 42, 0
14, 108810, Note_on_c, 14, 45, 104
14, 108840, Note_on_c, 14, 45, 0
14, 108840, Note_on_c, 14, 43, 99
14, 108870, Note_on_c, 14, 43, 0
14, 108870, Note_on_c, 14, 42, 95
14, 108900, Note_on_c, 14, 42, 0
14, 108900, Note_on_c, 14, 40, 95
14, 108930, Note_on_c, 14, 40, 0
14, 108930, Note_on_c, 14, 38, 101
14, 108960, Note_on_c, 14, 38, 0
14, 108960, Note_on_c, 14, 36, 101
14, 108990, Note_on_c, 14, 36, 0
14, 108990, Note_on_c, 14, 35, 95
14, 109020, Note_on_c, 14, 35, 0
14, 109020, Note_on_c, 14, 36, 104
14, 109050, Note_on_c, 14, 36, 0
14, 109050, Note_on_c, 14, 38, 98
14, 109080, Note_on_c, 14, 38, 0
14, 109080, Note_on_c, 14, 35, 95
14, 109110, Note_on_c, 14, 35, 0
14, 109110, Note_on_c, 14, 31, 104
14, 109140, Note_on_c, 14, 31, 0
14, 109140, Note_on_c, 14, 33, 98
14, 109170, Note_on_c, 14, 33, 0
14, 109170, Note_on_c, 14, 35, 104
14, 109200, Note_on_c, 14, 35, 0
14, 109200, Note_on_c, 14, 36, 95
14, 109230, Note_on_c, 14, 36, 0
14, 109230, Note_on_c, 14, 33, 95
14, 109260, Note_on_c, 14, 33, 0
14, 109260, Note_on_c, 14, 35, 101
14, 109290, Note_on_c, 14, 35, 0
14, 109290, Note_on_c, 14, 36, 105
14, 109320, Note_on_c, 14, 36, 0
14, 109320, Note_on_c, 14, 38, 105
14, 109380, Note_on_c, 14, 38, 0
14, 109380, Note_on_c, 14, 38, 110
14, 109440, Note_on_c, 14, 38, 0
14, 110340, Note_on_c, 14, 38, 64
14, 110400, Note_on_c, 14, 38, 0
14, 110400, Note_on_c, 14, 31, 86
14, 110460, Note_on_c, 14, 31, 0
14, 111360, Note_on_c, 14, 31, 100
14, 111420, Note_on_c, 14, 31, 0
14, 111840, Program_c, 14, 45
14, 112080, Note_on_c, 14, 45, 76
14, 112140, Note_on_c, 14, 45, 0
14, 112200, Note_on_c, 14, 38, 77
14, 112260, Note_on_c, 14, 38, 0
14, 112440, Note_on_c, 14, 45, 82
14, 112500, Note_on_c, 14, 45, 0
14, 112500, Note_on_c, 14, 38, 84
14, 112560, Note_on_c, 14, 38, 0
14, 112680, Note_on_c, 14, 45, 74
14, 112740, Note_on_c, 14, 45, 0
14, 112740, Note_on_c, 14, 37, 68
14, 112800, Note_on_c, 14, 37, 0
14, 112920, Note_on_c, 14, 46, 62
14, 112980, Note_on_c, 14, 46, 0
14, 112980, Note_on_c, 14, 37, 44
14, 113040, Note_on_c, 14, 37, 0
14, 114000, Program_c, 14, 48
14, 114240, Note_on_c, 14, 30, 41
14, 115200, Note_on_c, 14, 30, 0
14, 115200, Program_c, 14, 45
14, 115200, Note_on_c, 14, 30, 44
14, 115260, Note_on_c, 14, 30, 0
14, 115680, Note_on_c, 14, 31, 49
14, 115740, Note_on_c, 14, 31, 0
14, 116160, Note_on_c, 14, 36, 43
14, 116220, Note_on_c, 14, 36, 0
14, 117120, Note_on_c, 14, 36, 64
14, 117180, Note_on_c, 14, 36, 0
14, 117600, Note_on_c, 14, 38, 60
14, 117660, Note_on_c, 14, 38, 0
14, 117840, Program_c, 14, 48
14, 118080, Note_on_c, 14, 31, 41
14, 118140, Note_on_c, 14, 31, 0
14, 118560, Note_on_c, 14, 38, 43
14, 118620, Note_on_c, 14, 38, 0
14, 119040, Note_on_c, 14, 43, 44
14, 119100, Note_on_c, 14, 43, 0
14, 119520, Note_on_c, 14, 38, 49
14, 119580, Note_on_c, 14, 38, 0
14, 120000, Note_on_c, 14, 43, 52
14, 120060, Note_on_c, 14, 43, 0
14, 120480, Note_on_c, 14, 38, 86
14, 120540, Note_on_c, 14, 38, 0
14, 120960, Note_on_c, 14, 38, 84
14, 121320, Note_on_c, 14, 38, 0
14, 121320, Note_on_c, 14, 36, 74
14, 121380, Note_on_c, 14, 36, 0
14, 121380, Note_on_c, 14, 35, 71
14, 121440, Note_on_c, 14, 35, 0
14, 121440, Note_on_c, 14, 35, 73
14, 121560, Note_on_c, 14, 35, 0
14, 121560, Note_on_c, 14, 33, 80
14, 121740, Note_on_c, 14, 33, 0
14, 121740, Note_on_c, 14, 26, 80
14, 121800, Note_on_c, 14, 26, 0
14, 121800, Note_on_c, 14, 28, 84
14, 121860, Note_on_c, 14, 28, 0
14, 121860, Note_on_c, 14, 30, 81
14, 121920, Note_on_c, 14, 30, 0
14, 121920, Note_on_c, 14, 31, 89
14, 121950, Note_on_c, 14, 31, 0
14, 121980, Note_on_c, 14, 33, 93
14, 122010, Note_on_c, 14, 33, 0
14, 122040, Note_on_c, 14, 35, 93
14, 122070, Note_on_c, 14, 35, 0
14, 122100, Note_on_c, 14, 36, 125
14, 122130, Note_on_c, 14, 36, 0
14, 122160, Note_on_c, 14, 33, 94
14, 122190, Note_on_c, 14, 33, 0
14, 122220, Note_on_c, 14, 35, 95
14, 122250, Note_on_c, 14, 35, 0
14, 122280, Note_on_c, 14, 36, 86
14, 122310, Note_on_c, 14, 36, 0
14, 122340, Note_on_c, 14, 38, 127
14, 122370, Note_on_c, 14, 38, 0
14, 122400, Note_on_c, 14, 35, 98
14, 122430, Note_on_c, 14, 35, 0
14, 122460, Note_on_c, 14, 36, 99
14, 122490, Note_on_c, 14, 36, 0
14, 122520, Note_on_c, 14, 38, 104
14, 122550, Note_on_c, 14, 38, 0
14, 122580, Note_on_c, 14, 40, 119
14, 122610, Note_on_c, 14, 40, 0
14, 122640, Note_on_c, 14, 36, 101
14, 122670, Note_on_c, 14, 36, 0
14, 122700, Note_on_c, 14, 38, 104
14, 122730, Note_on_c, 14, 38, 0
14, 122760, Note_on_c, 14, 40, 99
14, 122790, Note_on_c, 14, 40, 0
14, 122820, Note_on_c, 14, 42, 119
14, 122850, Note_on_c, 14, 42, 0
14, 122880, Note_on_c, 14, 43, 89
14, 122940, Note_on_c, 14, 43, 0
14, 122940, Note_on_c, 14, 45, 99
14, 123000, Note_on_c, 14, 45, 0
14, 123000, Note_on_c, 14, 46, 85
14, 123060, Note_on_c, 14, 46, 0
14, 123060, Note_on_c, 14, 47, 89
14, 123120, Note_on_c, 14, 47, 0
14, 123120, Note_on_c, 14, 48, 77
14, 123180, Note_on_c, 14, 48, 0
14, 123180, Note_on_c, 14, 49, 78
14, 123240, Note_on_c, 14, 49, 0
14, 123240, Note_on_c, 14, 50, 86
14, 123300, Note_on_c, 14, 50, 0
14, 123300, Note_on_c, 14, 51, 82
14, 123360, Note_on_c, 14, 51, 0
14, 123360, Note_on_c, 14, 52, 105
14, 123420, Note_on_c, 14, 52, 0
14, 123480, Note_on_c, 14, 54, 99
14, 123540, Note_on_c, 14, 54, 0
14, 123600, Note_on_c, 14, 55, 94
14, 123660, Note_on_c, 14, 55, 0
14, 123720, Note_on_c, 14, 37, 95
14, 123780, Note_on_c, 14, 37, 0
14, 123840, Note_on_c, 14, 38, 107
14, 124080, Note_on_c, 14, 38, 0
14, 136800, Program_c, 14, 45
14, 137040, Note_on_c, 14, 38, 89
14, 137100, Note_on_c, 14, 38, 0
14, 139440, Note_on_c, 14, 35, 67
14, 139560, Note_on_c, 14, 35, 0
14, 139680, Note_on_c, 14, 36, 61
14, 139800, Note_on_c, 14, 36, 0
14, 139920, Note_on_c, 14, 38, 68
14, 139980, Note_on_c, 14, 38, 0
14, 140160, Note_on_c, 14, 38, 65
14, 140220, Note_on_c, 14, 38, 0
14, 140280, Program_c, 14, 48
14, 140400, Note_on_c, 14, 35, 99
14, 140480, Control_c, 14, 7, 98
14, 140485, Control_c, 14, 7, 97
14, 140490, Control_c, 14, 7, 96
14, 140495, Control_c, 14, 7, 95
14, 140500, Control_c, 14, 7, 94
14, 140505, Control_c, 14, 7, 93
14, 140510, Control_c, 14, 7, 92
14, 140515, Control_c, 14, 7, 91
14, 140520, Control_c, 14, 7, 90
14, 140525, Control_c, 14, 7, 89
14, 140530, Control_c, 14, 7, 88
14, 140535, Control_c, 14, 7, 87
14, 140540, Control_c, 14, 7, 86
14, 140545, Control_c, 14, 7, 85
14, 140550, Control_c, 14, 7, 84
14, 140555, Control_c, 14, 7, 83
14, 140560, Control_c, 14, 7, 82
14, 140565, Control_c, 14, 7, 81
14, 140570, Control_c, 14, 7, 80
14, 140575, Control_c, 14, 7, 79
14, 140580, Control_c, 14, 7, 78
14, 140585, Control_c, 14, 7, 77
14, 140590, Control_c, 14, 7, 76
14, 140595, Control_c, 14, 7, 75
14, 140600, Control_c, 14, 7, 74
14, 140605, Control_c, 14, 7, 73
14, 140610, Control_c, 14, 7, 72
14, 140615, Control_c, 14, 7, 71
14, 140620, Control_c, 14, 7, 70
14, 140625, Control_c, 14, 7, 69
14, 140630, Control_c, 14, 7, 68
14, 140635, Control_c, 14, 7, 67
14, 141120, Note_on_c, 14, 35, 0
14, 141120, Note_on_c, 14, 36, 95
14, 141180, Note_on_c, 14, 36, 0
14, 141360, Note_on_c, 14, 38, 95
14, 141420, Note_on_c, 14, 38, 0
14, 141600, Note_on_c, 14, 38, 94
14, 141660, Note_on_c, 14, 38, 0
14, 141720, Control_c, 14, 7, 100
14, 141790, Program_c, 14, 45
14, 141840, Note_on_c, 14, 31, 43
14, 141960, Note_on_c, 14, 31, 0
14, 142080, Note_on_c, 14, 31, 44
14, 142200, Note_on_c, 14, 31, 0
14, 142320, Note_on_c, 14, 31, 46
14, 142440, Note_on_c, 14, 31, 0
14, 142560, Note_on_c, 14, 31, 45
14, 142680, Note_on_c, 14, 31, 0
14, 142800, Note_on_c, 14, 31, 45
14, 142920, Note_on_c, 14, 31, 0
14, 143040, Note_on_c, 14, 31, 50
14, 143160, Note_on_c, 14, 31, 0
14, 143280, Note_on_c, 14, 31, 56
14, 143400, Note_on_c, 14, 31, 0
14, 143520, Note_on_c, 14, 31, 44
14, 143640, Note_on_c, 14, 31, 0
14, 143760, Note_on_c, 14, 31, 43
14, 143880, Note_on_c, 14, 31, 0
14, 144000, Note_on_c, 14, 31, 41
14, 144120, Note_on_c, 14, 31, 0
14, 144200, Program_c, 14, 48
14, 144240, Note_on_c, 14, 31, 46
14, 147125, Control_c, 14, 7, 99
14, 147160, Control_c, 14, 7, 98
14, 147190, Control_c, 14, 7, 97
14, 147220, Control_c, 14, 7, 96
14, 147250, Control_c, 14, 7, 95
14, 147280, Control_c, 14, 7, 94
14, 147310, Control_c, 14, 7, 93
14, 147340, Control_c, 14, 7, 92
14, 147370, Control_c, 14, 7, 91
14, 147400, Control_c, 14, 7, 90
14, 147430, Control_c, 14, 7, 89
14, 147460, Control_c, 14, 7, 88
14, 147490, Control_c, 14, 7, 87
14, 147520, Control_c, 14, 7, 86
14, 147550, Control_c, 14, 7, 85
14, 147580, Control_c, 14, 7, 84
14, 147610, Control_c, 14, 7, 83
14, 147640, Control_c, 14, 7, 82
14, 147670, Control_c, 14, 7, 81
14, 147700, Control_c, 14, 7, 80
14, 147730, Control_c, 14, 7, 79
14, 147760, Control_c, 14, 7, 78
14, 147790, Control_c, 14, 7, 77
14, 147820, Control_c, 14, 7, 76
14, 147850, Control_c, 14, 7, 75
14, 147880, Control_c, 14, 7, 74
14, 147910, Control_c, 14, 7, 73
14, 147940, Control_c, 14, 7, 72
14, 147970, Control_c, 14, 7, 71
14, 148000, Control_c, 14, 7, 70
14, 148030, Control_c, 14, 7, 69
14, 148060, Control_c, 14, 7, 68
14, 148090, Control_c, 14, 7, 67
14, 148200, Note_on_c, 14, 31, 0
14, 148925, Control_c, 14, 7, 100
14, 149400, Program_c, 14, 45
14, 149520, Note_on_c, 14, 45, 44
14, 149640, Note_on_c, 14, 45, 0
14, 149760, Note_on_c, 14, 38, 39
14, 149880, Note_on_c, 14, 38, 0
14, 150000, Program_c, 14, 48
14, 150360, Note_on_c, 14, 45, 40
14, 150420, Note_on_c, 14, 45, 0
14, 150420, Note_on_c, 14, 38, 40
14, 150480, Note_on_c, 14, 38, 0
14, 151920, Note_on_c, 14, 45, 38
14, 151980, Note_on_c, 14, 45, 0
14, 151980, Note_on_c, 14, 38, 36
14, 152040, Note_on_c, 14, 38, 0
14, 152040, Note_on_c, 14, 45, 53
14, 152100, Note_on_c, 14, 45, 0
14, 152100, Note_on_c, 14, 38, 64
14, 152160, Note_on_c, 14, 38, 0
14, 152160, Note_on_c, 14, 45, 77
14, 152220, Note_on_c, 14, 45, 0
14, 152220, Note_on_c, 14, 38, 84
14, 152280, Note_on_c, 14, 38, 0
14, 152280, Note_on_c, 14, 45, 89
14, 152340, Note_on_c, 14, 45, 0
14, 152340, Note_on_c, 14, 38, 99
14, 152400, Note_on_c, 14, 38, 0
14, 152400, Note_on_c, 14, 31, 89
14, 152520, Note_on_c, 14, 31, 0
14, 152640, Note_on_c, 14, 31, 82
14, 152760, Note_on_c, 14, 31, 0
14, 152880, Note_on_c, 14, 31, 85
14, 153000, Note_on_c, 14, 31, 0
14, 153120, Note_on_c, 14, 31, 86
14, 153240, Note_on_c, 14, 31, 0
14, 153360, Note_on_c, 14, 36, 101
14, 153400, Note_on_c, 14, 36, 0
14, 153400, Note_on_c, 14, 35, 101
14, 153440, Note_on_c, 14, 35, 0
14, 153440, Note_on_c, 14, 36, 104
14, 153480, Note_on_c, 14, 36, 0
14, 153480, Note_on_c, 14, 40, 99
14, 153520, Note_on_c, 14, 40, 0
14, 153520, Note_on_c, 14, 43, 93
14, 153560, Note_on_c, 14, 43, 0
14, 153560, Note_on_c, 14, 40, 99
14, 153600, Note_on_c, 14, 40, 0
14, 153600, Note_on_c, 14, 36, 95
14, 153640, Note_on_c, 14, 36, 0
14, 153640, Note_on_c, 14, 35, 99
14, 153680, Note_on_c, 14, 35, 0
14, 153680, Note_on_c, 14, 36, 104
14, 153720, Note_on_c, 14, 36, 0
14, 153720, Note_on_c, 14, 40, 101
14, 153760, Note_on_c, 14, 40, 0
14, 153760, Note_on_c, 14, 43, 93
14, 153800, Note_on_c, 14, 43, 0
14, 153800, Note_on_c, 14, 40, 105
14, 153840, Note_on_c, 14, 40, 0
14, 153840, Note_on_c, 14, 36, 105
14, 153880, Note_on_c, 14, 36, 0
14, 153880, Note_on_c, 14, 40, 107
14, 153920, Note_on_c, 14, 40, 0
14, 153920, Note_on_c, 14, 43, 99
14, 153960, Note_on_c, 14, 43, 0
14, 153960, Note_on_c, 14, 48, 95
14, 154000, Note_on_c, 14, 48, 0
14, 154000, Note_on_c, 14, 43, 99
14, 154040, Note_on_c, 14, 43, 0
14, 154040, Note_on_c, 14, 40, 104
14, 154080, Note_on_c, 14, 40, 0
14, 154080, Note_on_c, 14, 36, 105
14, 154120, Note_on_c, 14, 36, 0
14, 154120, Note_on_c, 14, 38, 105
14, 154160, Note_on_c, 14, 38, 0
14, 154160, Note_on_c, 14, 40, 104
14, 154200, Note_on_c, 14, 40, 0
14, 154200, Note_on_c, 14, 38, 105
14, 154240, Note_on_c, 14, 38, 0
14, 154240, Note_on_c, 14, 36, 99
14, 154280, Note_on_c, 14, 36, 0
14, 154280, Note_on_c, 14, 35, 105
14, 154320, Note_on_c, 14, 35, 0
14, 154320, Note_on_c, 14, 33, 99
14, 154360, Note_on_c, 14, 33, 0
14, 154360, Note_on_c, 14, 32, 95
14, 154400, Note_on_c, 14, 32, 0
14, 154400, Note_on_c, 14, 33, 110
14, 154440, Note_on_c, 14, 33, 0
14, 154440, Note_on_c, 14, 36, 104
14, 154480, Note_on_c, 14, 36, 0
14, 154480, Note_on_c, 14, 35, 101
14, 154520, Note_on_c, 14, 35, 0
14, 154520, Note_on_c, 14, 36, 99
14, 154560, Note_on_c, 14, 36, 0
14, 154560, Note_on_c, 14, 38, 105
14, 154600, Note_on_c, 14, 38, 0
14, 154600, Note_on_c, 14, 37, 93
14, 154640, Note_on_c, 14, 37, 0
14, 154640, Note_on_c, 14, 38, 112
14, 154680, Note_on_c, 14, 38, 0
14, 154680, Note_on_c, 14, 42, 95
14, 154720, Note_on_c, 14, 42, 0
14, 154720, Note_on_c, 14, 45, 98
14, 154760, Note_on_c, 14, 45, 0
14, 154760, Note_on_c, 14, 42, 99
14, 154800, Note_on_c, 14, 42, 0
14, 154800, Note_on_c, 14, 38, 104
14, 154840, Note_on_c, 14, 38, 0
14, 154840, Note_on_c, 14, 42, 93
14, 154880, Note_on_c, 14, 42, 0
14, 154880, Note_on_c, 14, 40, 104
14, 154920, Note_on_c, 14, 40, 0
14, 154920, Note_on_c, 14, 38, 105
14, 154960, Note_on_c, 14, 38, 0
14, 154960, Note_on_c, 14, 40, 98
14, 155000, Note_on_c, 14, 40, 0
14, 155000, Note_on_c, 14, 42, 94
14, 155040, Note_on_c, 14, 42, 0
14, 155040, Note_on_c, 14, 43, 104
14, 155080, Note_on_c, 14, 43, 0
14, 155080, Note_on_c, 14, 31, 101
14, 155120, Note_on_c, 14, 31, 0
14, 155120, Note_on_c, 14, 30, 95
14, 155160, Note_on_c, 14, 30, 0
14, 155160, Note_on_c, 14, 31, 99
14, 155200, Note_on_c, 14, 31, 0
14, 155200, Note_on_c, 14, 33, 99
14, 155240, Note_on_c, 14, 33, 0
14, 155240, Note_on_c, 14, 35, 105
14, 155280, Note_on_c, 14, 35, 0
14, 155280, Note_on_c, 14, 36, 104
14, 155320, Note_on_c, 14, 36, 0
14, 155320, Note_on_c, 14, 35, 99
14, 155360, Note_on_c, 14, 35, 0
14, 155360, Note_on_c, 14, 36, 99
14, 155400, Note_on_c, 14, 36, 0
14, 155400, Note_on_c, 14, 38, 99
14, 155440, Note_on_c, 14, 38, 0
14, 155440, Note_on_c, 14, 36, 101
14, 155480, Note_on_c, 14, 36, 0
14, 155480, Note_on_c, 14, 38, 104
14, 155520, Note_on_c, 14, 38, 0
14, 155520, Note_on_c, 14, 43, 105
14, 155580, Note_on_c, 14, 43, 0
14, 156000, Program_c, 14, 45
14, 156240, Note_on_c, 14, 36, 43
14, 156360, Note_on_c, 14, 36, 0
14, 156480, Note_on_c, 14, 38, 40
14, 156600, Note_on_c, 14, 38, 0
14, 156720, Note_on_c, 14, 43, 38
14, 156840, Note_on_c, 14, 43, 0
14, 156960, Note_on_c, 14, 38, 40
14, 157080, Note_on_c, 14, 38, 0
14, 157200, Note_on_c, 14, 31, 43
14, 157320, Note_on_c, 14, 31, 0
14, 157440, Note_on_c, 14, 38, 43
14, 157560, Note_on_c, 14, 38, 0
14, 157680, Note_on_c, 14, 43, 41
14, 157800, Note_on_c, 14, 43, 0
14, 157920, Note_on_c, 14, 38, 43
14, 158040, Note_on_c, 14, 38, 0
14, 158160, Note_on_c, 14, 31, 43
14, 158280, Note_on_c, 14, 31, 0
14, 158400, Note_on_c, 14, 38, 42
14, 158520, Note_on_c, 14, 38, 0
14, 158560, Program_c, 14, 48
14, 158640, Note_on_c, 14, 43, 40
14, 158700, Note_on_c, 14, 43, 0
14, 158880, Note_on_c, 14, 38, 49
14, 158940, Note_on_c, 14, 38, 0
14, 159120, Note_on_c, 14, 31, 65
14, 159180, Note_on_c, 14, 31, 0
14, 159360, Note_on_c, 14, 38, 80
14, 159420, Note_on_c, 14, 38, 0
14, 159600, Note_on_c, 14, 31, 93
14, 159720, Note_on_c, 14, 31, 0
14, 160020, Note_on_c, 14, 31, 94
14, 160050, Note_on_c, 14, 31, 0
14, 160050, Note_on_c, 14, 31, 90
14, 160080, Note_on_c, 14, 31, 0
14, 160080, Note_on_c, 14, 31, 93
14, 160200, Note_on_c, 14, 31, 0
14, 160500, Note_on_c, 14, 31, 94
14, 160530, Note_on_c, 14, 31, 0
14, 160530, Note_on_c, 14, 31, 95
14, 160560, Note_on_c, 14, 31, 0
14, 160560, Note_on_c, 14, 31, 99
14, 160620, Note_on_c, 14, 31, 0
14, 160800, Note_on_c, 14, 38, 104
14, 160860, Note_on_c, 14, 38, 0
14, 161040, Note_on_c, 14, 31, 95
14, 161100, Note_on_c, 14, 31, 0
14, 161100, End_track
15, 0, Start_track
15, 0, MIDI_port, 0
15, 0, Title_t, "Ludwig van Beethoven"
15, 0, End_track
16, 0, Start_track
16, 0, MIDI_port, 0
16, 0, Title_t, "Piano Concerto No.4"
16, 0, End_track
17, 0, Start_track
17, 0, MIDI_port, 0
17, 0, Title_t, "in G Major, Op. 58"
17, 0, End_track
18, 0, Start_track
18, 0, MIDI_port, 0
18, 0, Title_t, "Mov't. 3 - Rondo - Vivace"
18, 0, End_track
19, 0, Start_track
19, 0, MIDI_port, 0
19, 0, Title_t, "Sequenced by Bill Nemitz"
19, 0, End_track
20, 0, Start_track
20, 0, MIDI_port, 0
20, 0, Title_t, "Email at billnem@ix.netcom.com"
20, 0, End_track
0, 0, End_of_file