0, 0, Header, 1, 4, 192
1, 0, Start_track
1, 0, Title_t, "Sieben Bagatellen Opus.33, No.1"
1, 0, Copyright_t, "Copyright \251February 2001 by Reginald Steven Ritchie Reginald Steven Ritchie"
1, 0, Text_t, "By Ludwig Van Beethoven\012"
1, 0, Text_t, "Generated by NoteWorthy Composer\012"
1, 0, Time_signature, 6, 3, 12, 8
1, 0, Key_signature, -3, "major"
1, 0, Tempo, 571429
1, 0, End_track
2, 0, Start_track
2, 0, Title_t, "Copyright 2001 Reg"
2, 0, Program_c, 0, 0
2, 0, Control_c, 0, 7, 127
2, 0, Control_c, 0, 10, 83
2, 0, Program_c, 0, 0
2, 0, Control_c, 0, 7, 127
2, 0, Control_c, 0, 10, 112
2, 0, Control_c, 0, 91, 84
2, 0, Control_c, 0, 93, 84
2, 0, Note_on_c, 0, 70, 60
2, 96, Note_on_c, 0, 70, 0
2, 96, Note_on_c, 0, 79, 60
2, 128, Note_on_c, 0, 79, 0
2, 192, Note_on_c, 0, 75, 60
2, 224, Note_on_c, 0, 75, 0
2, 288, Note_on_c, 0, 70, 60
2, 480, Note_on_c, 0, 70, 0
2, 480, Note_on_c, 0, 67, 60
2, 574, Note_on_c, 0, 67, 0
2, 576, Note_on_c, 0, 70, 60
2, 598, Note_on_c, 0, 70, 0
2, 600, Note_on_c, 0, 68, 60
2, 670, Note_on_c, 0, 68, 0
2, 672, Note_on_c, 0, 67, 60
2, 766, Note_on_c, 0, 67, 0
2, 768, Note_on_c, 0, 68, 60
2, 862, Note_on_c, 0, 68, 0
2, 864, Note_on_c, 0, 67, 60
2, 886, Note_on_c, 0, 67, 0
2, 888, Note_on_c, 0, 68, 60
2, 910, Note_on_c, 0, 68, 0
2, 912, Note_on_c, 0, 70, 60
2, 1120, Note_on_c, 0, 70, 0
2, 1152, Note_on_c, 0, 70, 60
2, 1248, Note_on_c, 0, 70, 0
2, 1248, Note_on_c, 0, 68, 60
2, 1344, Note_on_c, 0, 68, 0
2, 1344, Note_on_c, 0, 67, 60
2, 1438, Note_on_c, 0, 67, 0
2, 1440, Note_on_c, 0, 67, 60
2, 1462, Note_on_c, 0, 67, 0
2, 1464, Note_on_c, 0, 65, 60
2, 1534, Note_on_c, 0, 65, 0
2, 1536, Note_on_c, 0, 64, 60
2, 1630, Note_on_c, 0, 64, 0
2, 1632, Note_on_c, 0, 65, 60
2, 1726, Note_on_c, 0, 65, 0
2, 1728, Note_on_c, 0, 69, 60
2, 1822, Note_on_c, 0, 69, 0
2, 1824, Note_on_c, 0, 70, 60
2, 1856, Note_on_c, 0, 70, 0
2, 1920, Note_on_c, 0, 62, 60
2, 1952, Note_on_c, 0, 62, 0
2, 2016, Note_on_c, 0, 65, 60
2, 2062, Note_on_c, 0, 65, 0
2, 2064, Note_on_c, 0, 63, 60
2, 2110, Note_on_c, 0, 63, 0
2, 2112, Note_on_c, 0, 62, 60
2, 2158, Note_on_c, 0, 62, 0
2, 2160, Note_on_c, 0, 63, 60
2, 2206, Note_on_c, 0, 63, 0
2, 2208, Note_on_c, 0, 65, 60
2, 2254, Note_on_c, 0, 65, 0
2, 2256, Note_on_c, 0, 67, 60
2, 2302, Note_on_c, 0, 67, 0
2, 2304, Note_on_c, 0, 68, 60
2, 2334, Note_on_c, 0, 68, 0
2, 2336, Note_on_c, 0, 70, 60
2, 2366, Note_on_c, 0, 70, 0
2, 2368, Note_on_c, 0, 72, 60
2, 2398, Note_on_c, 0, 72, 0
2, 2400, Note_on_c, 0, 74, 60
2, 2430, Note_on_c, 0, 74, 0
2, 2432, Note_on_c, 0, 75, 60
2, 2462, Note_on_c, 0, 75, 0
2, 2464, Note_on_c, 0, 77, 60
2, 2494, Note_on_c, 0, 77, 0
2, 2496, Note_on_c, 0, 79, 60
2, 2510, Note_on_c, 0, 79, 0
2, 2512, Note_on_c, 0, 77, 60
2, 2526, Note_on_c, 0, 77, 0
2, 2528, Note_on_c, 0, 75, 60
2, 2542, Note_on_c, 0, 75, 0
2, 2544, Note_on_c, 0, 74, 60
2, 2558, Note_on_c, 0, 74, 0
2, 2560, Note_on_c, 0, 72, 60
2, 2574, Note_on_c, 0, 72, 0
2, 2592, Note_on_c, 0, 70, 60
2, 2752, Note_on_c, 0, 70, 0
2, 2784, Note_on_c, 0, 67, 60
2, 2878, Note_on_c, 0, 67, 0
2, 2880, Note_on_c, 0, 70, 60
2, 2902, Note_on_c, 0, 70, 0
2, 2904, Note_on_c, 0, 68, 60
2, 2974, Note_on_c, 0, 68, 0
2, 2976, Note_on_c, 0, 67, 60
2, 3070, Note_on_c, 0, 67, 0
2, 3072, Note_on_c, 0, 68, 60
2, 3166, Note_on_c, 0, 68, 0
2, 3168, Note_on_c, 0, 69, 60
2, 3262, Note_on_c, 0, 69, 0
2, 3264, Note_on_c, 0, 70, 92
2, 3424, Note_on_c, 0, 70, 0
2, 3456, Note_on_c, 0, 70, 60
2, 3550, Note_on_c, 0, 70, 0
2, 3552, Note_on_c, 0, 72, 60
2, 3598, Note_on_c, 0, 72, 0
2, 3600, Note_on_c, 0, 70, 60
2, 3646, Note_on_c, 0, 70, 0
2, 3648, Note_on_c, 0, 68, 60
2, 3694, Note_on_c, 0, 68, 0
2, 3696, Note_on_c, 0, 67, 60
2, 3742, Note_on_c, 0, 67, 0
2, 3744, Note_on_c, 0, 67, 60
2, 3766, Note_on_c, 0, 67, 0
2, 3768, Note_on_c, 0, 65, 60
2, 3838, Note_on_c, 0, 65, 0
2, 3840, Note_on_c, 0, 64, 60
2, 3934, Note_on_c, 0, 64, 0
2, 3936, Note_on_c, 0, 65, 60
2, 4030, Note_on_c, 0, 65, 0
2, 4032, Note_on_c, 0, 69, 60
2, 4126, Note_on_c, 0, 69, 0
2, 4128, Note_on_c, 0, 70, 60
2, 4222, Note_on_c, 0, 70, 0
2, 4224, Note_on_c, 0, 62, 60
2, 4318, Note_on_c, 0, 62, 0
2, 4320, Note_on_c, 0, 63, 60
2, 4480, Note_on_c, 0, 63, 0
2, 4608, Note_on_c, 0, 58, 60
2, 4640, Note_on_c, 0, 58, 0
2, 4704, Note_on_c, 0, 58, 60
2, 4736, Note_on_c, 0, 58, 0
2, 4800, Note_on_c, 0, 58, 60
2, 4832, Note_on_c, 0, 58, 0
2, 4896, Note_on_c, 0, 58, 92
2, 4896, Note_on_c, 0, 65, 92
2, 4896, Note_on_c, 0, 70, 92
2, 5088, Note_on_c, 0, 70, 0
2, 5088, Note_on_c, 0, 68, 60
2, 5152, Note_on_c, 0, 65, 0
2, 5152, Note_on_c, 0, 58, 0
2, 5182, Note_on_c, 0, 68, 0
2, 5184, Note_on_c, 0, 58, 60
2, 5216, Note_on_c, 0, 58, 0
2, 5280, Note_on_c, 0, 58, 60
2, 5312, Note_on_c, 0, 58, 0
2, 5376, Note_on_c, 0, 58, 60
2, 5408, Note_on_c, 0, 58, 0
2, 5472, Note_on_c, 0, 58, 92
2, 5472, Note_on_c, 0, 63, 92
2, 5472, Note_on_c, 0, 68, 92
2, 5664, Note_on_c, 0, 68, 0
2, 5664, Note_on_c, 0, 67, 60
2, 5728, Note_on_c, 0, 63, 0
2, 5728, Note_on_c, 0, 58, 0
2, 5758, Note_on_c, 0, 67, 0
2, 5760, Note_on_c, 0, 58, 60
2, 5792, Note_on_c, 0, 58, 0
2, 5856, Note_on_c, 0, 58, 60
2, 5888, Note_on_c, 0, 58, 0
2, 5952, Note_on_c, 0, 58, 60
2, 5984, Note_on_c, 0, 58, 0
2, 6048, Note_on_c, 0, 58, 92
2, 6048, Note_on_c, 0, 62, 92
2, 6048, Note_on_c, 0, 67, 92
2, 6240, Note_on_c, 0, 67, 0
2, 6240, Note_on_c, 0, 65, 60
2, 6304, Note_on_c, 0, 62, 0
2, 6304, Note_on_c, 0, 58, 0
2, 6334, Note_on_c, 0, 65, 0
2, 6336, Note_on_c, 0, 58, 60
2, 6336, Note_on_c, 0, 63, 60
2, 6368, Note_on_c, 0, 63, 0
2, 6368, Note_on_c, 0, 58, 0
2, 6432, Note_on_c, 0, 58, 60
2, 6432, Note_on_c, 0, 62, 60
2, 6432, Note_on_c, 0, 65, 60
2, 6464, Note_on_c, 0, 65, 0
2, 6464, Note_on_c, 0, 62, 0
2, 6464, Note_on_c, 0, 58, 0
2, 6528, Note_on_c, 0, 58, 60
2, 6528, Note_on_c, 0, 63, 60
2, 6528, Note_on_c, 0, 67, 60
2, 6560, Note_on_c, 0, 67, 0
2, 6560, Note_on_c, 0, 63, 0
2, 6560, Note_on_c, 0, 58, 0
2, 6624, Note_on_c, 0, 58, 60
2, 6624, Note_on_c, 0, 62, 60
2, 6624, Note_on_c, 0, 65, 60
2, 6880, Note_on_c, 0, 65, 0
2, 6880, Note_on_c, 0, 62, 0
2, 6880, Note_on_c, 0, 58, 0
2, 6912, Note_on_c, 0, 70, 60
2, 6944, Note_on_c, 0, 70, 0
2, 7008, Note_on_c, 0, 70, 60
2, 7040, Note_on_c, 0, 70, 0
2, 7104, Note_on_c, 0, 70, 60
2, 7136, Note_on_c, 0, 70, 0
2, 7200, Note_on_c, 0, 70, 92
2, 7200, Note_on_c, 0, 82, 92
2, 7392, Note_on_c, 0, 82, 0
2, 7392, Note_on_c, 0, 80, 60
2, 7456, Note_on_c, 0, 70, 0
2, 7486, Note_on_c, 0, 80, 0
2, 7488, Note_on_c, 0, 70, 60
2, 7520, Note_on_c, 0, 70, 0
2, 7584, Note_on_c, 0, 70, 60
2, 7616, Note_on_c, 0, 70, 0
2, 7680, Note_on_c, 0, 70, 60
2, 7712, Note_on_c, 0, 70, 0
2, 7776, Note_on_c, 0, 70, 92
2, 7776, Note_on_c, 0, 80, 92
2, 7968, Note_on_c, 0, 80, 0
2, 7968, Note_on_c, 0, 79, 60
2, 8032, Note_on_c, 0, 70, 0
2, 8062, Note_on_c, 0, 79, 0
2, 8064, Note_on_c, 0, 70, 60
2, 8096, Note_on_c, 0, 70, 0
2, 8160, Note_on_c, 0, 70, 60
2, 8192, Note_on_c, 0, 70, 0
2, 8256, Note_on_c, 0, 70, 60
2, 8288, Note_on_c, 0, 70, 0
2, 8352, Note_on_c, 0, 70, 92
2, 8352, Note_on_c, 0, 74, 92
2, 8352, Note_on_c, 0, 79, 92
2, 8544, Note_on_c, 0, 79, 0
2, 8544, Note_on_c, 0, 77, 60
2, 8608, Note_on_c, 0, 74, 0
2, 8608, Note_on_c, 0, 70, 0
2, 8638, Note_on_c, 0, 77, 0
2, 8640, Note_on_c, 0, 70, 60
2, 8640, Note_on_c, 0, 75, 60
2, 8672, Note_on_c, 0, 75, 0
2, 8672, Note_on_c, 0, 70, 0
2, 8736, Note_on_c, 0, 74, 60
2, 8736, Note_on_c, 0, 77, 60
2, 8768, Note_on_c, 0, 77, 0
2, 8768, Note_on_c, 0, 74, 0
2, 8832, Note_on_c, 0, 75, 60
2, 8832, Note_on_c, 0, 79, 60
2, 8864, Note_on_c, 0, 79, 0
2, 8864, Note_on_c, 0, 75, 0
2, 8928, Note_on_c, 0, 74, 60
2, 8928, Note_on_c, 0, 77, 60
2, 9184, Note_on_c, 0, 77, 0
2, 9184, Note_on_c, 0, 74, 0
2, 9216, Note_on_c, 0, 58, 60
2, 9216, Note_on_c, 0, 63, 60
2, 9248, Note_on_c, 0, 63, 0
2, 9248, Note_on_c, 0, 58, 0
2, 9312, Note_on_c, 0, 62, 60
2, 9312, Note_on_c, 0, 65, 60
2, 9344, Note_on_c, 0, 65, 0
2, 9344, Note_on_c, 0, 62, 0
2, 9408, Note_on_c, 0, 63, 60
2, 9408, Note_on_c, 0, 67, 60
2, 9440, Note_on_c, 0, 67, 0
2, 9440, Note_on_c, 0, 63, 0
2, 9504, Note_on_c, 0, 62, 60
2, 9504, Note_on_c, 0, 65, 60
2, 9760, Note_on_c, 0, 65, 0
2, 9760, Note_on_c, 0, 62, 0
2, 9792, Note_on_c, 0, 70, 60
2, 9792, Note_on_c, 0, 75, 60
2, 9824, Note_on_c, 0, 75, 0
2, 9824, Note_on_c, 0, 70, 0
2, 9888, Note_on_c, 0, 74, 60
2, 9888, Note_on_c, 0, 77, 60
2, 9920, Note_on_c, 0, 77, 0
2, 9920, Note_on_c, 0, 74, 0
2, 9984, Note_on_c, 0, 75, 60
2, 9984, Note_on_c, 0, 79, 60
2, 10016, Note_on_c, 0, 79, 0
2, 10016, Note_on_c, 0, 75, 0
2, 10080, Note_on_c, 0, 74, 60
2, 10080, Note_on_c, 0, 77, 60
2, 10336, Note_on_c, 0, 77, 0
2, 10336, Note_on_c, 0, 74, 0
2, 10368, Note_on_c, 0, 70, 60
2, 10368, Note_on_c, 0, 75, 60
2, 10400, Note_on_c, 0, 75, 0
2, 10400, Note_on_c, 0, 70, 0
2, 10464, Note_on_c, 0, 74, 60
2, 10464, Note_on_c, 0, 77, 60
2, 10496, Note_on_c, 0, 77, 0
2, 10496, Note_on_c, 0, 74, 0
2, 10560, Note_on_c, 0, 75, 60
2, 10560, Note_on_c, 0, 79, 60
2, 10592, Note_on_c, 0, 79, 0
2, 10592, Note_on_c, 0, 75, 0
2, 10656, Note_on_c, 0, 74, 60
2, 10656, Note_on_c, 0, 77, 60
2, 10798, Note_on_c, 0, 77, 0
2, 10798, Note_on_c, 0, 74, 0
2, 10800, Note_on_c, 0, 70, 60
2, 10800, Note_on_c, 0, 75, 60
2, 10832, Note_on_c, 0, 75, 0
2, 10832, Note_on_c, 0, 70, 0
2, 10848, Note_on_c, 0, 74, 60
2, 10848, Note_on_c, 0, 77, 60
2, 10880, Note_on_c, 0, 77, 0
2, 10880, Note_on_c, 0, 74, 0
2, 10896, Note_on_c, 0, 75, 60
2, 10896, Note_on_c, 0, 79, 60
2, 10928, Note_on_c, 0, 79, 0
2, 10928, Note_on_c, 0, 75, 0
2, 10944, Note_on_c, 0, 74, 60
2, 10944, Note_on_c, 0, 77, 60
2, 11086, Note_on_c, 0, 77, 0
2, 11086, Note_on_c, 0, 74, 0
2, 11088, Note_on_c, 0, 70, 60
2, 11088, Note_on_c, 0, 75, 60
2, 11120, Note_on_c, 0, 75, 0
2, 11120, Note_on_c, 0, 70, 0
2, 11136, Note_on_c, 0, 74, 60
2, 11136, Note_on_c, 0, 77, 60
2, 11168, Note_on_c, 0, 77, 0
2, 11168, Note_on_c, 0, 74, 0
2, 11184, Note_on_c, 0, 75, 60
2, 11184, Note_on_c, 0, 79, 60
2, 11216, Note_on_c, 0, 79, 0
2, 11216, Note_on_c, 0, 75, 0
2, 11232, Note_on_c, 0, 74, 60
2, 11232, Note_on_c, 0, 77, 60
2, 11264, Note_on_c, 0, 77, 0
2, 11264, Note_on_c, 0, 74, 0
2, 11280, Note_on_c, 0, 70, 62
2, 11280, Note_on_c, 0, 75, 62
2, 11312, Note_on_c, 0, 75, 0
2, 11312, Note_on_c, 0, 70, 0
2, 11328, Note_on_c, 0, 74, 64
2, 11328, Note_on_c, 0, 77, 64
2, 11360, Note_on_c, 0, 77, 0
2, 11360, Note_on_c, 0, 74, 0
2, 11376, Note_on_c, 0, 75, 66
2, 11376, Note_on_c, 0, 79, 66
2, 11408, Note_on_c, 0, 79, 0
2, 11408, Note_on_c, 0, 75, 0
2, 11424, Note_on_c, 0, 74, 68
2, 11424, Note_on_c, 0, 77, 68
2, 11456, Note_on_c, 0, 77, 0
2, 11456, Note_on_c, 0, 74, 0
2, 11472, Note_on_c, 0, 70, 71
2, 11472, Note_on_c, 0, 75, 71
2, 11504, Note_on_c, 0, 75, 0
2, 11504, Note_on_c, 0, 70, 0
2, 11520, Note_on_c, 0, 74, 74
2, 11520, Note_on_c, 0, 77, 74
2, 11552, Note_on_c, 0, 77, 0
2, 11552, Note_on_c, 0, 74, 0
2, 11568, Note_on_c, 0, 75, 77
2, 11568, Note_on_c, 0, 79, 77
2, 11600, Note_on_c, 0, 79, 0
2, 11600, Note_on_c, 0, 75, 0
2, 11616, Note_on_c, 0, 74, 80
2, 11616, Note_on_c, 0, 77, 80
2, 11648, Note_on_c, 0, 77, 0
2, 11648, Note_on_c, 0, 74, 0
2, 11664, Note_on_c, 0, 70, 83
2, 11664, Note_on_c, 0, 75, 83
2, 11696, Note_on_c, 0, 75, 0
2, 11696, Note_on_c, 0, 70, 0
2, 11712, Note_on_c, 0, 74, 86
2, 11712, Note_on_c, 0, 77, 86
2, 11744, Note_on_c, 0, 77, 0
2, 11744, Note_on_c, 0, 74, 0
2, 11760, Note_on_c, 0, 75, 89
2, 11760, Note_on_c, 0, 79, 89
2, 11792, Note_on_c, 0, 79, 0
2, 11792, Note_on_c, 0, 75, 0
2, 11808, Note_on_c, 0, 74, 92
2, 11808, Note_on_c, 0, 77, 92
2, 11902, Note_on_c, 0, 77, 0
2, 11902, Note_on_c, 0, 74, 0
2, 12000, Note_on_c, 0, 77, 92
2, 12024, Note_on_c, 0, 77, 0
2, 12024, Note_on_c, 0, 75, 92
2, 12048, Note_on_c, 0, 75, 0
2, 12048, Note_on_c, 0, 74, 92
2, 12072, Note_on_c, 0, 74, 0
2, 12072, Note_on_c, 0, 72, 92
2, 12096, Note_on_c, 0, 72, 0
2, 12096, Note_on_c, 0, 70, 92
2, 12128, Note_on_c, 0, 70, 0
2, 12288, Note_on_c, 0, 77, 92
2, 12312, Note_on_c, 0, 77, 0
2, 12312, Note_on_c, 0, 75, 92
2, 12336, Note_on_c, 0, 75, 0
2, 12336, Note_on_c, 0, 74, 92
2, 12360, Note_on_c, 0, 74, 0
2, 12360, Note_on_c, 0, 72, 92
2, 12382, Note_on_c, 0, 72, 0
2, 12384, Note_on_c, 0, 70, 92
2, 12416, Note_on_c, 0, 70, 0
2, 12864, Note_on_c, 0, 77, 45
2, 12888, Note_on_c, 0, 77, 0
2, 12888, Note_on_c, 0, 75, 45
2, 12912, Note_on_c, 0, 75, 0
2, 12912, Note_on_c, 0, 74, 45
2, 12936, Note_on_c, 0, 74, 0
2, 12936, Note_on_c, 0, 72, 45
2, 12960, Note_on_c, 0, 72, 0
2, 12960, Note_on_c, 0, 70, 45
2, 13102, Note_on_c, 0, 70, 0
2, 13192, Note_on_c, 0, 79, 46
2, 13208, Note_on_c, 0, 79, 0
2, 13208, Note_on_c, 0, 77, 46
2, 13224, Note_on_c, 0, 77, 0
2, 13224, Note_on_c, 0, 75, 46
2, 13240, Note_on_c, 0, 75, 0
2, 13240, Note_on_c, 0, 74, 46
2, 13256, Note_on_c, 0, 74, 0
2, 13256, Note_on_c, 0, 72, 46
2, 13272, Note_on_c, 0, 72, 0
2, 13272, Note_on_c, 0, 70, 46
2, 13304, Note_on_c, 0, 70, 0
2, 13464, Note_on_c, 0, 80, 48
2, 13480, Note_on_c, 0, 80, 0
2, 13480, Note_on_c, 0, 79, 48
2, 13496, Note_on_c, 0, 79, 0
2, 13496, Note_on_c, 0, 77, 48
2, 13512, Note_on_c, 0, 77, 0
2, 13512, Note_on_c, 0, 75, 48
2, 13528, Note_on_c, 0, 75, 0
2, 13528, Note_on_c, 0, 74, 48
2, 13544, Note_on_c, 0, 74, 0
2, 13544, Note_on_c, 0, 72, 48
2, 13560, Note_on_c, 0, 72, 0
2, 13560, Note_on_c, 0, 70, 48
2, 13592, Note_on_c, 0, 70, 0
2, 13608, Note_on_c, 0, 82, 49
2, 13654, Note_on_c, 0, 82, 0
2, 13656, Note_on_c, 0, 80, 50
2, 13702, Note_on_c, 0, 80, 0
2, 13704, Note_on_c, 0, 79, 51
2, 13750, Note_on_c, 0, 79, 0
2, 13752, Note_on_c, 0, 77, 52
2, 13774, Note_on_c, 0, 77, 0
2, 13776, Note_on_c, 0, 75, 52
2, 13798, Note_on_c, 0, 75, 0
2, 13800, Note_on_c, 0, 74, 52
2, 13822, Note_on_c, 0, 74, 0
2, 13824, Note_on_c, 0, 72, 52
2, 13846, Note_on_c, 0, 72, 0
2, 13848, Note_on_c, 0, 70, 52
2, 13942, Note_on_c, 0, 70, 0
2, 13944, Note_on_c, 0, 79, 54
2, 13976, Note_on_c, 0, 79, 0
2, 14040, Note_on_c, 0, 75, 57
2, 14072, Note_on_c, 0, 75, 0
2, 14136, Note_on_c, 0, 70, 60
2, 14328, Note_on_c, 0, 70, 0
2, 14328, Note_on_c, 0, 67, 60
2, 14422, Note_on_c, 0, 67, 0
2, 14424, Note_on_c, 0, 70, 60
2, 14446, Note_on_c, 0, 70, 0
2, 14448, Note_on_c, 0, 68, 60
2, 14520, Note_on_c, 0, 68, 0
2, 14520, Note_on_c, 0, 67, 60
2, 14616, Note_on_c, 0, 67, 0
2, 14616, Note_on_c, 0, 68, 60
2, 14710, Note_on_c, 0, 68, 0
2, 14712, Note_on_c, 0, 67, 60
2, 14734, Note_on_c, 0, 67, 0
2, 14736, Note_on_c, 0, 68, 60
2, 14758, Note_on_c, 0, 68, 0
2, 14760, Note_on_c, 0, 70, 60
2, 15000, Note_on_c, 0, 70, 0
2, 15000, Note_on_c, 0, 70, 60
2, 15094, Note_on_c, 0, 70, 0
2, 15096, Note_on_c, 0, 68, 60
2, 15190, Note_on_c, 0, 68, 0
2, 15192, Note_on_c, 0, 67, 60
2, 15286, Note_on_c, 0, 67, 0
2, 15288, Note_on_c, 0, 67, 60
2, 15312, Note_on_c, 0, 67, 0
2, 15312, Note_on_c, 0, 65, 60
2, 15382, Note_on_c, 0, 65, 0
2, 15384, Note_on_c, 0, 64, 60
2, 15480, Note_on_c, 0, 64, 0
2, 15480, Note_on_c, 0, 65, 60
2, 15576, Note_on_c, 0, 65, 0
2, 15576, Note_on_c, 0, 69, 60
2, 15672, Note_on_c, 0, 69, 0
2, 15672, Note_on_c, 0, 70, 60
2, 15768, Note_on_c, 0, 70, 0
2, 15768, Note_on_c, 0, 62, 60
2, 15800, Note_on_c, 0, 62, 0
2, 15864, Note_on_c, 0, 65, 60
2, 15910, Note_on_c, 0, 65, 0
2, 15912, Note_on_c, 0, 63, 60
2, 15958, Note_on_c, 0, 63, 0
2, 15960, Note_on_c, 0, 62, 60
2, 16006, Note_on_c, 0, 62, 0
2, 16008, Note_on_c, 0, 63, 60
2, 16054, Note_on_c, 0, 63, 0
2, 16056, Note_on_c, 0, 67, 60
2, 16102, Note_on_c, 0, 67, 0
2, 16104, Note_on_c, 0, 63, 60
2, 16150, Note_on_c, 0, 63, 0
2, 16152, Note_on_c, 0, 70, 60
2, 16198, Note_on_c, 0, 70, 0
2, 16200, Note_on_c, 0, 67, 60
2, 16246, Note_on_c, 0, 67, 0
2, 16248, Note_on_c, 0, 75, 60
2, 16278, Note_on_c, 0, 75, 0
2, 16280, Note_on_c, 0, 70, 60
2, 16310, Note_on_c, 0, 70, 0
2, 16312, Note_on_c, 0, 67, 60
2, 16342, Note_on_c, 0, 67, 0
2, 16344, Note_on_c, 0, 79, 60
2, 16374, Note_on_c, 0, 79, 0
2, 16376, Note_on_c, 0, 75, 60
2, 16406, Note_on_c, 0, 75, 0
2, 16408, Note_on_c, 0, 70, 60
2, 16438, Note_on_c, 0, 70, 0
2, 16440, Note_on_c, 0, 68, 60
2, 16488, Note_on_c, 0, 68, 0
2, 16488, Note_on_c, 0, 67, 60
2, 16536, Note_on_c, 0, 67, 0
2, 16536, Note_on_c, 0, 66, 60
2, 16584, Note_on_c, 0, 66, 0
2, 16584, Note_on_c, 0, 67, 60
2, 16632, Note_on_c, 0, 67, 0
2, 16632, Note_on_c, 0, 66, 60
2, 16680, Note_on_c, 0, 66, 0
2, 16680, Note_on_c, 0, 67, 60
2, 16728, Note_on_c, 0, 67, 0
2, 16728, Note_on_c, 0, 70, 60
2, 16776, Note_on_c, 0, 70, 0
2, 16776, Note_on_c, 0, 68, 60
2, 16824, Note_on_c, 0, 68, 0
2, 16824, Note_on_c, 0, 67, 60
2, 16872, Note_on_c, 0, 67, 0
2, 16872, Note_on_c, 0, 68, 60
2, 16920, Note_on_c, 0, 68, 0
2, 16920, Note_on_c, 0, 67, 60
2, 16968, Note_on_c, 0, 67, 0
2, 16968, Note_on_c, 0, 68, 60
2, 17016, Note_on_c, 0, 68, 0
2, 17016, Note_on_c, 0, 72, 60
2, 17064, Note_on_c, 0, 72, 0
2, 17064, Note_on_c, 0, 70, 60
2, 17112, Note_on_c, 0, 70, 0
2, 17112, Note_on_c, 0, 69, 60
2, 17160, Note_on_c, 0, 69, 0
2, 17160, Note_on_c, 0, 70, 60
2, 17208, Note_on_c, 0, 70, 0
2, 17208, Note_on_c, 0, 69, 60
2, 17256, Note_on_c, 0, 69, 0
2, 17256, Note_on_c, 0, 70, 60
2, 17304, Note_on_c, 0, 70, 0
2, 17304, Note_on_c, 0, 69, 60
2, 17352, Note_on_c, 0, 69, 0
2, 17352, Note_on_c, 0, 70, 60
2, 17400, Note_on_c, 0, 70, 0
2, 17400, Note_on_c, 0, 72, 60
2, 17448, Note_on_c, 0, 72, 0
2, 17448, Note_on_c, 0, 70, 60
2, 17496, Note_on_c, 0, 70, 0
2, 17496, Note_on_c, 0, 68, 60
2, 17544, Note_on_c, 0, 68, 0
2, 17544, Note_on_c, 0, 67, 60
2, 17590, Note_on_c, 0, 67, 0
2, 17592, Note_on_c, 0, 65, 60
2, 17638, Note_on_c, 0, 65, 0
2, 17640, Note_on_c, 0, 67, 60
2, 17686, Note_on_c, 0, 67, 0
2, 17688, Note_on_c, 0, 65, 60
2, 17734, Note_on_c, 0, 65, 0
2, 17736, Note_on_c, 0, 64, 60
2, 17782, Note_on_c, 0, 64, 0
2, 17784, Note_on_c, 0, 65, 60
2, 17830, Note_on_c, 0, 65, 0
2, 17832, Note_on_c, 0, 67, 60
2, 17878, Note_on_c, 0, 67, 0
2, 17880, Note_on_c, 0, 68, 60
2, 17926, Note_on_c, 0, 68, 0
2, 17928, Note_on_c, 0, 69, 60
2, 17974, Note_on_c, 0, 69, 0
2, 17976, Note_on_c, 0, 70, 60
2, 18022, Note_on_c, 0, 70, 0
2, 18024, Note_on_c, 0, 62, 60
2, 18070, Note_on_c, 0, 62, 0
2, 18072, Note_on_c, 0, 70, 60
2, 18118, Note_on_c, 0, 70, 0
2, 18120, Note_on_c, 0, 62, 60
2, 18166, Note_on_c, 0, 62, 0
2, 18168, Note_on_c, 0, 63, 60
2, 18424, Note_on_c, 0, 63, 0
2, 18552, Note_on_c, 0, 58, 60
2, 18584, Note_on_c, 0, 58, 0
2, 18648, Note_on_c, 0, 58, 60
2, 18680, Note_on_c, 0, 58, 0
2, 18744, Note_on_c, 0, 58, 60
2, 18776, Note_on_c, 0, 58, 0
2, 18840, Note_on_c, 0, 58, 92
2, 18840, Note_on_c, 0, 65, 92
2, 18840, Note_on_c, 0, 70, 92
2, 19032, Note_on_c, 0, 70, 0
2, 19032, Note_on_c, 0, 68, 60
2, 19096, Note_on_c, 0, 65, 0
2, 19096, Note_on_c, 0, 58, 0
2, 19126, Note_on_c, 0, 68, 0
2, 19128, Note_on_c, 0, 58, 60
2, 19160, Note_on_c, 0, 58, 0
2, 19224, Note_on_c, 0, 58, 60
2, 19256, Note_on_c, 0, 58, 0
2, 19320, Note_on_c, 0, 58, 60
2, 19352, Note_on_c, 0, 58, 0
2, 19416, Note_on_c, 0, 58, 92
2, 19416, Note_on_c, 0, 63, 92
2, 19416, Note_on_c, 0, 68, 92
2, 19608, Note_on_c, 0, 68, 0
2, 19608, Note_on_c, 0, 67, 60
2, 19672, Note_on_c, 0, 63, 0
2, 19672, Note_on_c, 0, 58, 0
2, 19702, Note_on_c, 0, 67, 0
2, 19704, Note_on_c, 0, 58, 60
2, 19736, Note_on_c, 0, 58, 0
2, 19800, Note_on_c, 0, 58, 60
2, 19832, Note_on_c, 0, 58, 0
2, 19896, Note_on_c, 0, 58, 60
2, 19928, Note_on_c, 0, 58, 0
2, 19992, Note_on_c, 0, 58, 92
2, 19992, Note_on_c, 0, 62, 92
2, 19992, Note_on_c, 0, 67, 92
2, 20184, Note_on_c, 0, 67, 0
2, 20184, Note_on_c, 0, 65, 60
2, 20248, Note_on_c, 0, 62, 0
2, 20248, Note_on_c, 0, 58, 0
2, 20278, Note_on_c, 0, 65, 0
2, 20280, Note_on_c, 0, 58, 60
2, 20280, Note_on_c, 0, 63, 60
2, 20312, Note_on_c, 0, 63, 0
2, 20312, Note_on_c, 0, 58, 0
2, 20376, Note_on_c, 0, 58, 60
2, 20376, Note_on_c, 0, 62, 60
2, 20376, Note_on_c, 0, 65, 60
2, 20408, Note_on_c, 0, 65, 0
2, 20408, Note_on_c, 0, 62, 0
2, 20408, Note_on_c, 0, 58, 0
2, 20472, Note_on_c, 0, 58, 60
2, 20472, Note_on_c, 0, 63, 60
2, 20472, Note_on_c, 0, 67, 60
2, 20504, Note_on_c, 0, 67, 0
2, 20504, Note_on_c, 0, 63, 0
2, 20504, Note_on_c, 0, 58, 0
2, 20568, Note_on_c, 0, 58, 60
2, 20568, Note_on_c, 0, 62, 60
2, 20568, Note_on_c, 0, 65, 60
2, 20824, Note_on_c, 0, 65, 0
2, 20824, Note_on_c, 0, 62, 0
2, 20824, Note_on_c, 0, 58, 0
2, 20856, Note_on_c, 0, 70, 60
2, 20888, Note_on_c, 0, 70, 0
2, 20952, Note_on_c, 0, 70, 60
2, 20984, Note_on_c, 0, 70, 0
2, 21048, Note_on_c, 0, 70, 60
2, 21080, Note_on_c, 0, 70, 0
2, 21144, Note_on_c, 0, 70, 92
2, 21144, Note_on_c, 0, 82, 92
2, 21336, Note_on_c, 0, 82, 0
2, 21336, Note_on_c, 0, 80, 60
2, 21400, Note_on_c, 0, 70, 0
2, 21430, Note_on_c, 0, 80, 0
2, 21432, Note_on_c, 0, 70, 60
2, 21464, Note_on_c, 0, 70, 0
2, 21528, Note_on_c, 0, 70, 60
2, 21560, Note_on_c, 0, 70, 0
2, 21624, Note_on_c, 0, 70, 60
2, 21656, Note_on_c, 0, 70, 0
2, 21720, Note_on_c, 0, 70, 92
2, 21720, Note_on_c, 0, 80, 92
2, 21912, Note_on_c, 0, 80, 0
2, 21912, Note_on_c, 0, 79, 60
2, 21976, Note_on_c, 0, 70, 0
2, 22006, Note_on_c, 0, 79, 0
2, 22008, Note_on_c, 0, 70, 60
2, 22040, Note_on_c, 0, 70, 0
2, 22104, Note_on_c, 0, 70, 60
2, 22136, Note_on_c, 0, 70, 0
2, 22200, Note_on_c, 0, 70, 60
2, 22232, Note_on_c, 0, 70, 0
2, 22296, Note_on_c, 0, 70, 92
2, 22296, Note_on_c, 0, 74, 92
2, 22296, Note_on_c, 0, 79, 92
2, 22488, Note_on_c, 0, 79, 0
2, 22488, Note_on_c, 0, 77, 60
2, 22552, Note_on_c, 0, 74, 0
2, 22552, Note_on_c, 0, 70, 0
2, 22582, Note_on_c, 0, 77, 0
2, 22584, Note_on_c, 0, 70, 60
2, 22584, Note_on_c, 0, 75, 60
2, 22616, Note_on_c, 0, 75, 0
2, 22616, Note_on_c, 0, 70, 0
2, 22680, Note_on_c, 0, 74, 60
2, 22680, Note_on_c, 0, 77, 60
2, 22712, Note_on_c, 0, 77, 0
2, 22712, Note_on_c, 0, 74, 0
2, 22776, Note_on_c, 0, 75, 60
2, 22776, Note_on_c, 0, 79, 60
2, 22808, Note_on_c, 0, 79, 0
2, 22808, Note_on_c, 0, 75, 0
2, 22872, Note_on_c, 0, 74, 60
2, 22872, Note_on_c, 0, 77, 60
2, 23128, Note_on_c, 0, 77, 0
2, 23128, Note_on_c, 0, 74, 0
2, 23160, Note_on_c, 0, 58, 60
2, 23160, Note_on_c, 0, 63, 60
2, 23192, Note_on_c, 0, 63, 0
2, 23192, Note_on_c, 0, 58, 0
2, 23256, Note_on_c, 0, 62, 60
2, 23256, Note_on_c, 0, 65, 60
2, 23288, Note_on_c, 0, 65, 0
2, 23288, Note_on_c, 0, 62, 0
2, 23352, Note_on_c, 0, 63, 60
2, 23352, Note_on_c, 0, 67, 60
2, 23384, Note_on_c, 0, 67, 0
2, 23384, Note_on_c, 0, 63, 0
2, 23448, Note_on_c, 0, 62, 60
2, 23448, Note_on_c, 0, 65, 60
2, 23704, Note_on_c, 0, 65, 0
2, 23704, Note_on_c, 0, 62, 0
2, 23736, Note_on_c, 0, 70, 60
2, 23736, Note_on_c, 0, 75, 60
2, 23768, Note_on_c, 0, 75, 0
2, 23768, Note_on_c, 0, 70, 0
2, 23832, Note_on_c, 0, 74, 60
2, 23832, Note_on_c, 0, 77, 60
2, 23864, Note_on_c, 0, 77, 0
2, 23864, Note_on_c, 0, 74, 0
2, 23928, Note_on_c, 0, 75, 60
2, 23928, Note_on_c, 0, 79, 60
2, 23960, Note_on_c, 0, 79, 0
2, 23960, Note_on_c, 0, 75, 0
2, 24024, Note_on_c, 0, 74, 60
2, 24024, Note_on_c, 0, 77, 60
2, 24280, Note_on_c, 0, 77, 0
2, 24280, Note_on_c, 0, 74, 0
2, 24312, Note_on_c, 0, 70, 60
2, 24312, Note_on_c, 0, 75, 60
2, 24344, Note_on_c, 0, 75, 0
2, 24344, Note_on_c, 0, 70, 0
2, 24408, Note_on_c, 0, 74, 60
2, 24408, Note_on_c, 0, 77, 60
2, 24440, Note_on_c, 0, 77, 0
2, 24440, Note_on_c, 0, 74, 0
2, 24504, Note_on_c, 0, 75, 60
2, 24504, Note_on_c, 0, 79, 60
2, 24536, Note_on_c, 0, 79, 0
2, 24536, Note_on_c, 0, 75, 0
2, 24600, Note_on_c, 0, 74, 60
2, 24600, Note_on_c, 0, 77, 60
2, 24742, Note_on_c, 0, 77, 0
2, 24742, Note_on_c, 0, 74, 0
2, 24744, Note_on_c, 0, 70, 60
2, 24744, Note_on_c, 0, 75, 60
2, 24776, Note_on_c, 0, 75, 0
2, 24776, Note_on_c, 0, 70, 0
2, 24792, Note_on_c, 0, 74, 60
2, 24792, Note_on_c, 0, 77, 60
2, 24824, Note_on_c, 0, 77, 0
2, 24824, Note_on_c, 0, 74, 0
2, 24840, Note_on_c, 0, 75, 60
2, 24840, Note_on_c, 0, 79, 60
2, 24872, Note_on_c, 0, 79, 0
2, 24872, Note_on_c, 0, 75, 0
2, 24888, Note_on_c, 0, 74, 60
2, 24888, Note_on_c, 0, 77, 60
2, 25030, Note_on_c, 0, 77, 0
2, 25030, Note_on_c, 0, 74, 0
2, 25032, Note_on_c, 0, 70, 60
2, 25032, Note_on_c, 0, 75, 60
2, 25064, Note_on_c, 0, 75, 0
2, 25064, Note_on_c, 0, 70, 0
2, 25080, Note_on_c, 0, 74, 60
2, 25080, Note_on_c, 0, 77, 60
2, 25112, Note_on_c, 0, 77, 0
2, 25112, Note_on_c, 0, 74, 0
2, 25128, Note_on_c, 0, 75, 60
2, 25128, Note_on_c, 0, 79, 60
2, 25160, Note_on_c, 0, 79, 0
2, 25160, Note_on_c, 0, 75, 0
2, 25176, Note_on_c, 0, 74, 60
2, 25176, Note_on_c, 0, 77, 60
2, 25208, Note_on_c, 0, 77, 0
2, 25208, Note_on_c, 0, 74, 0
2, 25224, Note_on_c, 0, 70, 62
2, 25224, Note_on_c, 0, 75, 62
2, 25256, Note_on_c, 0, 75, 0
2, 25256, Note_on_c, 0, 70, 0
2, 25272, Note_on_c, 0, 74, 64
2, 25272, Note_on_c, 0, 77, 64
2, 25304, Note_on_c, 0, 77, 0
2, 25304, Note_on_c, 0, 74, 0
2, 25320, Note_on_c, 0, 75, 66
2, 25320, Note_on_c, 0, 79, 66
2, 25352, Note_on_c, 0, 79, 0
2, 25352, Note_on_c, 0, 75, 0
2, 25368, Note_on_c, 0, 74, 68
2, 25368, Note_on_c, 0, 77, 68
2, 25400, Note_on_c, 0, 77, 0
2, 25400, Note_on_c, 0, 74, 0
2, 25416, Note_on_c, 0, 70, 71
2, 25416, Note_on_c, 0, 75, 71
2, 25448, Note_on_c, 0, 75, 0
2, 25448, Note_on_c, 0, 70, 0
2, 25464, Note_on_c, 0, 74, 74
2, 25464, Note_on_c, 0, 77, 74
2, 25496, Note_on_c, 0, 77, 0
2, 25496, Note_on_c, 0, 74, 0
2, 25512, Note_on_c, 0, 75, 77
2, 25512, Note_on_c, 0, 79, 77
2, 25544, Note_on_c, 0, 79, 0
2, 25544, Note_on_c, 0, 75, 0
2, 25560, Note_on_c, 0, 74, 80
2, 25560, Note_on_c, 0, 77, 80
2, 25592, Note_on_c, 0, 77, 0
2, 25592, Note_on_c, 0, 74, 0
2, 25608, Note_on_c, 0, 70, 83
2, 25608, Note_on_c, 0, 75, 83
2, 25640, Note_on_c, 0, 75, 0
2, 25640, Note_on_c, 0, 70, 0
2, 25656, Note_on_c, 0, 74, 86
2, 25656, Note_on_c, 0, 77, 86
2, 25688, Note_on_c, 0, 77, 0
2, 25688, Note_on_c, 0, 74, 0
2, 25704, Note_on_c, 0, 75, 89
2, 25704, Note_on_c, 0, 79, 89
2, 25736, Note_on_c, 0, 79, 0
2, 25736, Note_on_c, 0, 75, 0
2, 25752, Note_on_c, 0, 74, 92
2, 25752, Note_on_c, 0, 77, 92
2, 25846, Note_on_c, 0, 77, 0
2, 25846, Note_on_c, 0, 74, 0
2, 25944, Note_on_c, 0, 77, 92
2, 25968, Note_on_c, 0, 77, 0
2, 25968, Note_on_c, 0, 75, 92
2, 25992, Note_on_c, 0, 75, 0
2, 25992, Note_on_c, 0, 74, 92
2, 26016, Note_on_c, 0, 74, 0
2, 26016, Note_on_c, 0, 72, 92
2, 26040, Note_on_c, 0, 72, 0
2, 26040, Note_on_c, 0, 70, 92
2, 26072, Note_on_c, 0, 70, 0
2, 26232, Note_on_c, 0, 77, 92
2, 26256, Note_on_c, 0, 77, 0
2, 26256, Note_on_c, 0, 75, 92
2, 26280, Note_on_c, 0, 75, 0
2, 26280, Note_on_c, 0, 74, 92
2, 26304, Note_on_c, 0, 74, 0
2, 26304, Note_on_c, 0, 72, 92
2, 26326, Note_on_c, 0, 72, 0
2, 26328, Note_on_c, 0, 70, 92
2, 26360, Note_on_c, 0, 70, 0
2, 26808, Note_on_c, 0, 77, 45
2, 26832, Note_on_c, 0, 77, 0
2, 26832, Note_on_c, 0, 75, 45
2, 26856, Note_on_c, 0, 75, 0
2, 26856, Note_on_c, 0, 74, 45
2, 26880, Note_on_c, 0, 74, 0
2, 26880, Note_on_c, 0, 72, 45
2, 26904, Note_on_c, 0, 72, 0
2, 26904, Note_on_c, 0, 70, 45
2, 27046, Note_on_c, 0, 70, 0
2, 27136, Note_on_c, 0, 79, 46
2, 27152, Note_on_c, 0, 79, 0
2, 27152, Note_on_c, 0, 77, 46
2, 27168, Note_on_c, 0, 77, 0
2, 27168, Note_on_c, 0, 75, 46
2, 27184, Note_on_c, 0, 75, 0
2, 27184, Note_on_c, 0, 74, 46
2, 27200, Note_on_c, 0, 74, 0
2, 27200, Note_on_c, 0, 72, 46
2, 27216, Note_on_c, 0, 72, 0
2, 27216, Note_on_c, 0, 70, 46
2, 27248, Note_on_c, 0, 70, 0
2, 27408, Note_on_c, 0, 80, 48
2, 27424, Note_on_c, 0, 80, 0
2, 27424, Note_on_c, 0, 79, 48
2, 27440, Note_on_c, 0, 79, 0
2, 27440, Note_on_c, 0, 77, 48
2, 27456, Note_on_c, 0, 77, 0
2, 27456, Note_on_c, 0, 75, 48
2, 27472, Note_on_c, 0, 75, 0
2, 27472, Note_on_c, 0, 74, 48
2, 27488, Note_on_c, 0, 74, 0
2, 27488, Note_on_c, 0, 72, 48
2, 27504, Note_on_c, 0, 72, 0
2, 27504, Note_on_c, 0, 70, 48
2, 27536, Note_on_c, 0, 70, 0
2, 27552, Note_on_c, 0, 82, 49
2, 27598, Note_on_c, 0, 82, 0
2, 27600, Note_on_c, 0, 80, 50
2, 27646, Note_on_c, 0, 80, 0
2, 27648, Note_on_c, 0, 79, 51
2, 27694, Note_on_c, 0, 79, 0
2, 27696, Note_on_c, 0, 77, 52
2, 27718, Note_on_c, 0, 77, 0
2, 27720, Note_on_c, 0, 75, 52
2, 27742, Note_on_c, 0, 75, 0
2, 27744, Note_on_c, 0, 74, 52
2, 27766, Note_on_c, 0, 74, 0
2, 27768, Note_on_c, 0, 72, 52
2, 27790, Note_on_c, 0, 72, 0
2, 27792, Note_on_c, 0, 70, 52
2, 27886, Note_on_c, 0, 70, 0
2, 27888, Note_on_c, 0, 79, 54
2, 27920, Note_on_c, 0, 79, 0
2, 27984, Note_on_c, 0, 75, 57
2, 28016, Note_on_c, 0, 75, 0
2, 28080, Note_on_c, 0, 70, 60
2, 28272, Note_on_c, 0, 70, 0
2, 28272, Note_on_c, 0, 67, 60
2, 28366, Note_on_c, 0, 67, 0
2, 28368, Note_on_c, 0, 70, 60
2, 28390, Note_on_c, 0, 70, 0
2, 28392, Note_on_c, 0, 68, 60
2, 28464, Note_on_c, 0, 68, 0
2, 28464, Note_on_c, 0, 67, 60
2, 28560, Note_on_c, 0, 67, 0
2, 28560, Note_on_c, 0, 68, 60
2, 28654, Note_on_c, 0, 68, 0
2, 28656, Note_on_c, 0, 67, 60
2, 28678, Note_on_c, 0, 67, 0
2, 28680, Note_on_c, 0, 68, 60
2, 28702, Note_on_c, 0, 68, 0
2, 28704, Note_on_c, 0, 70, 60
2, 28944, Note_on_c, 0, 70, 0
2, 28944, Note_on_c, 0, 70, 60
2, 29038, Note_on_c, 0, 70, 0
2, 29040, Note_on_c, 0, 68, 60
2, 29134, Note_on_c, 0, 68, 0
2, 29136, Note_on_c, 0, 67, 60
2, 29230, Note_on_c, 0, 67, 0
2, 29232, Note_on_c, 0, 67, 60
2, 29256, Note_on_c, 0, 67, 0
2, 29256, Note_on_c, 0, 65, 60
2, 29326, Note_on_c, 0, 65, 0
2, 29328, Note_on_c, 0, 64, 60
2, 29424, Note_on_c, 0, 64, 0
2, 29424, Note_on_c, 0, 65, 60
2, 29520, Note_on_c, 0, 65, 0
2, 29520, Note_on_c, 0, 69, 60
2, 29616, Note_on_c, 0, 69, 0
2, 29616, Note_on_c, 0, 70, 60
2, 29712, Note_on_c, 0, 70, 0
2, 29712, Note_on_c, 0, 62, 60
2, 29744, Note_on_c, 0, 62, 0
2, 29808, Note_on_c, 0, 65, 60
2, 29854, Note_on_c, 0, 65, 0
2, 29856, Note_on_c, 0, 63, 60
2, 29902, Note_on_c, 0, 63, 0
2, 29904, Note_on_c, 0, 62, 60
2, 29950, Note_on_c, 0, 62, 0
2, 29952, Note_on_c, 0, 63, 60
2, 29998, Note_on_c, 0, 63, 0
2, 30000, Note_on_c, 0, 67, 60
2, 30046, Note_on_c, 0, 67, 0
2, 30048, Note_on_c, 0, 63, 60
2, 30094, Note_on_c, 0, 63, 0
2, 30096, Note_on_c, 0, 70, 60
2, 30142, Note_on_c, 0, 70, 0
2, 30144, Note_on_c, 0, 67, 60
2, 30190, Note_on_c, 0, 67, 0
2, 30192, Note_on_c, 0, 75, 60
2, 30222, Note_on_c, 0, 75, 0
2, 30224, Note_on_c, 0, 70, 60
2, 30254, Note_on_c, 0, 70, 0
2, 30256, Note_on_c, 0, 67, 60
2, 30286, Note_on_c, 0, 67, 0
2, 30288, Note_on_c, 0, 79, 60
2, 30318, Note_on_c, 0, 79, 0
2, 30320, Note_on_c, 0, 75, 60
2, 30350, Note_on_c, 0, 75, 0
2, 30352, Note_on_c, 0, 70, 60
2, 30382, Note_on_c, 0, 70, 0
2, 30384, Note_on_c, 0, 68, 60
2, 30432, Note_on_c, 0, 68, 0
2, 30432, Note_on_c, 0, 67, 60
2, 30480, Note_on_c, 0, 67, 0
2, 30480, Note_on_c, 0, 66, 60
2, 30528, Note_on_c, 0, 66, 0
2, 30528, Note_on_c, 0, 67, 60
2, 30576, Note_on_c, 0, 67, 0
2, 30576, Note_on_c, 0, 66, 60
2, 30624, Note_on_c, 0, 66, 0
2, 30624, Note_on_c, 0, 67, 60
2, 30672, Note_on_c, 0, 67, 0
2, 30672, Note_on_c, 0, 70, 60
2, 30720, Note_on_c, 0, 70, 0
2, 30720, Note_on_c, 0, 68, 60
2, 30768, Note_on_c, 0, 68, 0
2, 30768, Note_on_c, 0, 67, 60
2, 30816, Note_on_c, 0, 67, 0
2, 30816, Note_on_c, 0, 68, 60
2, 30864, Note_on_c, 0, 68, 0
2, 30864, Note_on_c, 0, 67, 60
2, 30912, Note_on_c, 0, 67, 0
2, 30912, Note_on_c, 0, 68, 60
2, 30960, Note_on_c, 0, 68, 0
2, 30960, Note_on_c, 0, 72, 60
2, 31008, Note_on_c, 0, 72, 0
2, 31008, Note_on_c, 0, 70, 60
2, 31056, Note_on_c, 0, 70, 0
2, 31056, Note_on_c, 0, 69, 60
2, 31104, Note_on_c, 0, 69, 0
2, 31104, Note_on_c, 0, 70, 60
2, 31152, Note_on_c, 0, 70, 0
2, 31152, Note_on_c, 0, 69, 60
2, 31200, Note_on_c, 0, 69, 0
2, 31200, Note_on_c, 0, 70, 60
2, 31248, Note_on_c, 0, 70, 0
2, 31248, Note_on_c, 0, 69, 60
2, 31296, Note_on_c, 0, 69, 0
2, 31296, Note_on_c, 0, 70, 60
2, 31344, Note_on_c, 0, 70, 0
2, 31344, Note_on_c, 0, 72, 60
2, 31392, Note_on_c, 0, 72, 0
2, 31392, Note_on_c, 0, 70, 60
2, 31440, Note_on_c, 0, 70, 0
2, 31440, Note_on_c, 0, 68, 60
2, 31488, Note_on_c, 0, 68, 0
2, 31488, Note_on_c, 0, 67, 60
2, 31534, Note_on_c, 0, 67, 0
2, 31536, Note_on_c, 0, 65, 60
2, 31582, Note_on_c, 0, 65, 0
2, 31584, Note_on_c, 0, 67, 60
2, 31630, Note_on_c, 0, 67, 0
2, 31632, Note_on_c, 0, 65, 60
2, 31678, Note_on_c, 0, 65, 0
2, 31680, Note_on_c, 0, 64, 60
2, 31726, Note_on_c, 0, 64, 0
2, 31728, Note_on_c, 0, 65, 60
2, 31774, Note_on_c, 0, 65, 0
2, 31776, Note_on_c, 0, 67, 60
2, 31822, Note_on_c, 0, 67, 0
2, 31824, Note_on_c, 0, 68, 60
2, 31870, Note_on_c, 0, 68, 0
2, 31872, Note_on_c, 0, 69, 60
2, 31918, Note_on_c, 0, 69, 0
2, 31920, Note_on_c, 0, 70, 60
2, 31966, Note_on_c, 0, 70, 0
2, 31968, Note_on_c, 0, 62, 60
2, 32014, Note_on_c, 0, 62, 0
2, 32016, Note_on_c, 0, 70, 60
2, 32062, Note_on_c, 0, 70, 0
2, 32064, Note_on_c, 0, 62, 60
2, 32110, Note_on_c, 0, 62, 0
2, 32112, Note_on_c, 0, 63, 60
2, 32368, Note_on_c, 0, 63, 0
2, 32496, Note_on_c, 0, 63, 45
2, 32688, Note_on_c, 0, 63, 0
2, 32688, Note_on_c, 0, 70, 45
2, 32784, Note_on_c, 0, 70, 0
2, 32784, Note_on_c, 0, 78, 45
2, 32880, Note_on_c, 0, 78, 0
2, 32880, Note_on_c, 0, 75, 45
2, 32976, Note_on_c, 0, 75, 0
2, 32976, Note_on_c, 0, 74, 45
2, 33072, Note_on_c, 0, 74, 0
2, 33072, Note_on_c, 0, 75, 45
2, 33168, Note_on_c, 0, 75, 0
2, 33168, Note_on_c, 0, 70, 45
2, 33264, Note_on_c, 0, 70, 0
2, 33264, Note_on_c, 0, 69, 45
2, 33360, Note_on_c, 0, 69, 0
2, 33360, Note_on_c, 0, 70, 45
2, 33456, Note_on_c, 0, 70, 0
2, 33456, Note_on_c, 0, 66, 45
2, 33552, Note_on_c, 0, 66, 0
2, 33552, Note_on_c, 0, 65, 45
2, 33646, Note_on_c, 0, 65, 0
2, 33648, Note_on_c, 0, 63, 45
2, 33744, Note_on_c, 0, 58, 45
2, 33808, Note_on_c, 0, 63, 0
2, 33840, Note_on_c, 0, 66, 45
2, 33904, Note_on_c, 0, 58, 0
2, 33934, Note_on_c, 0, 66, 0
2, 33936, Note_on_c, 0, 58, 45
2, 33936, Note_on_c, 0, 65, 45
2, 34030, Note_on_c, 0, 65, 0
2, 34032, Note_on_c, 0, 68, 45
2, 34126, Note_on_c, 0, 68, 0
2, 34128, Note_on_c, 0, 62, 45
2, 34192, Note_on_c, 0, 58, 0
2, 34222, Note_on_c, 0, 62, 0
2, 34224, Note_on_c, 0, 63, 45
2, 34320, Note_on_c, 0, 58, 45
2, 34384, Note_on_c, 0, 63, 0
2, 34416, Note_on_c, 0, 66, 45
2, 34480, Note_on_c, 0, 58, 0
2, 34510, Note_on_c, 0, 66, 0
2, 34512, Note_on_c, 0, 58, 45
2, 34512, Note_on_c, 0, 65, 45
2, 34606, Note_on_c, 0, 65, 0
2, 34608, Note_on_c, 0, 68, 45
2, 34702, Note_on_c, 0, 68, 0
2, 34704, Note_on_c, 0, 62, 45
2, 34768, Note_on_c, 0, 58, 0
2, 34798, Note_on_c, 0, 62, 0
2, 34800, Note_on_c, 0, 63, 45
2, 34896, Note_on_c, 0, 58, 45
2, 34960, Note_on_c, 0, 63, 0
2, 34990, Note_on_c, 0, 58, 0
2, 34992, Note_on_c, 0, 70, 45
2, 35086, Note_on_c, 0, 70, 0
2, 35088, Note_on_c, 0, 78, 45
2, 35182, Note_on_c, 0, 78, 0
2, 35184, Note_on_c, 0, 75, 45
2, 35278, Note_on_c, 0, 75, 0
2, 35280, Note_on_c, 0, 74, 45
2, 35374, Note_on_c, 0, 74, 0
2, 35376, Note_on_c, 0, 75, 45
2, 35472, Note_on_c, 0, 75, 0
2, 35472, Note_on_c, 0, 70, 45
2, 35568, Note_on_c, 0, 70, 0
2, 35568, Note_on_c, 0, 69, 45
2, 35664, Note_on_c, 0, 69, 0
2, 35664, Note_on_c, 0, 70, 45
2, 35760, Note_on_c, 0, 70, 0
2, 35760, Note_on_c, 0, 66, 45
2, 35856, Note_on_c, 0, 66, 0
2, 35856, Note_on_c, 0, 65, 45
2, 35950, Note_on_c, 0, 65, 0
2, 35952, Note_on_c, 0, 63, 45
2, 36048, Note_on_c, 0, 58, 45
2, 36112, Note_on_c, 0, 63, 0
2, 36144, Note_on_c, 0, 66, 45
2, 36208, Note_on_c, 0, 58, 0
2, 36240, Note_on_c, 0, 66, 0
2, 36240, Note_on_c, 0, 63, 45
2, 36336, Note_on_c, 0, 63, 0
2, 36336, Note_on_c, 0, 66, 45
2, 36432, Note_on_c, 0, 66, 0
2, 36432, Note_on_c, 0, 60, 45
2, 36528, Note_on_c, 0, 60, 0
2, 36528, Note_on_c, 0, 61, 45
2, 36720, Note_on_c, 0, 61, 0
2, 36720, Note_on_c, 0, 65, 45
2, 36816, Note_on_c, 0, 65, 0
2, 36816, Note_on_c, 0, 63, 45
2, 36912, Note_on_c, 0, 63, 0
2, 36912, Note_on_c, 0, 66, 45
2, 37008, Note_on_c, 0, 66, 0
2, 37008, Note_on_c, 0, 60, 45
2, 37104, Note_on_c, 0, 60, 0
2, 37104, Note_on_c, 0, 61, 45
2, 37264, Note_on_c, 0, 61, 0
2, 37296, Note_on_c, 0, 68, 45
2, 37390, Note_on_c, 0, 68, 0
2, 37392, Note_on_c, 0, 65, 45
2, 37486, Note_on_c, 0, 65, 0
2, 37488, Note_on_c, 0, 68, 45
2, 37582, Note_on_c, 0, 68, 0
2, 37584, Note_on_c, 0, 62, 45
2, 37678, Note_on_c, 0, 62, 0
2, 37680, Note_on_c, 0, 63, 45
2, 37840, Note_on_c, 0, 63, 0
2, 37872, Note_on_c, 0, 68, 45
2, 37966, Note_on_c, 0, 68, 0
2, 37968, Note_on_c, 0, 65, 45
2, 38062, Note_on_c, 0, 65, 0
2, 38064, Note_on_c, 0, 68, 45
2, 38158, Note_on_c, 0, 68, 0
2, 38160, Note_on_c, 0, 62, 45
2, 38254, Note_on_c, 0, 62, 0
2, 38256, Note_on_c, 0, 63, 45
2, 38416, Note_on_c, 0, 63, 0
2, 38448, Note_on_c, 0, 75, 52
2, 38542, Note_on_c, 0, 75, 0
2, 38544, Note_on_c, 0, 74, 55
2, 38638, Note_on_c, 0, 74, 0
2, 38640, Note_on_c, 0, 75, 59
2, 38734, Note_on_c, 0, 75, 0
2, 38736, Note_on_c, 0, 69, 63
2, 38830, Note_on_c, 0, 69, 0
2, 38832, Note_on_c, 0, 70, 67
2, 38926, Note_on_c, 0, 70, 0
2, 38928, Note_on_c, 0, 75, 71
2, 39022, Note_on_c, 0, 75, 0
2, 39024, Note_on_c, 0, 69, 75
2, 39118, Note_on_c, 0, 69, 0
2, 39120, Note_on_c, 0, 70, 45
2, 39214, Note_on_c, 0, 70, 0
2, 39216, Note_on_c, 0, 75, 45
2, 39310, Note_on_c, 0, 75, 0
2, 39312, Note_on_c, 0, 69, 75
2, 39406, Note_on_c, 0, 69, 0
2, 39408, Note_on_c, 0, 70, 45
2, 39502, Note_on_c, 0, 70, 0
2, 39504, Note_on_c, 0, 82, 45
2, 39598, Note_on_c, 0, 82, 0
2, 39600, Note_on_c, 0, 74, 75
2, 39694, Note_on_c, 0, 74, 0
2, 39696, Note_on_c, 0, 86, 45
2, 39790, Note_on_c, 0, 86, 0
2, 39792, Note_on_c, 0, 77, 45
2, 39886, Note_on_c, 0, 77, 0
2, 39888, Note_on_c, 0, 89, 75
2, 39982, Note_on_c, 0, 89, 0
2, 39984, Note_on_c, 0, 89, 45
2, 40030, Note_on_c, 0, 89, 0
2, 40032, Note_on_c, 0, 87, 45
2, 40078, Note_on_c, 0, 87, 0
2, 40080, Note_on_c, 0, 86, 45
2, 40126, Note_on_c, 0, 86, 0
2, 40128, Note_on_c, 0, 84, 45
2, 40174, Note_on_c, 0, 84, 0
2, 40176, Note_on_c, 0, 82, 45
2, 40222, Note_on_c, 0, 82, 0
2, 40224, Note_on_c, 0, 81, 45
2, 40270, Note_on_c, 0, 81, 0
2, 40272, Note_on_c, 0, 79, 45
2, 40318, Note_on_c, 0, 79, 0
2, 40320, Note_on_c, 0, 77, 45
2, 40366, Note_on_c, 0, 77, 0
2, 40368, Note_on_c, 0, 75, 45
2, 40414, Note_on_c, 0, 75, 0
2, 40416, Note_on_c, 0, 74, 45
2, 40462, Note_on_c, 0, 74, 0
2, 40464, Note_on_c, 0, 72, 45
2, 40510, Note_on_c, 0, 72, 0
2, 40512, Note_on_c, 0, 70, 45
2, 40558, Note_on_c, 0, 70, 0
2, 40560, Note_on_c, 0, 69, 45
2, 40606, Note_on_c, 0, 69, 0
2, 40608, Note_on_c, 0, 70, 45
2, 40654, Note_on_c, 0, 70, 0
2, 40656, Note_on_c, 0, 72, 45
2, 40702, Note_on_c, 0, 72, 0
2, 40704, Note_on_c, 0, 74, 45
2, 40750, Note_on_c, 0, 74, 0
2, 40752, Note_on_c, 0, 75, 45
2, 40798, Note_on_c, 0, 75, 0
2, 40800, Note_on_c, 0, 77, 45
2, 40846, Note_on_c, 0, 77, 0
2, 40848, Note_on_c, 0, 79, 45
2, 40894, Note_on_c, 0, 79, 0
2, 40896, Note_on_c, 0, 81, 45
2, 40942, Note_on_c, 0, 81, 0
2, 40944, Note_on_c, 0, 82, 45
2, 40990, Note_on_c, 0, 82, 0
2, 40992, Note_on_c, 0, 84, 45
2, 41038, Note_on_c, 0, 84, 0
2, 41040, Note_on_c, 0, 86, 45
2, 41086, Note_on_c, 0, 86, 0
2, 41088, Note_on_c, 0, 87, 45
2, 41134, Note_on_c, 0, 87, 0
2, 41136, Note_on_c, 0, 89, 45
2, 41182, Note_on_c, 0, 89, 0
2, 41184, Note_on_c, 0, 87, 45
2, 41230, Note_on_c, 0, 87, 0
2, 41232, Note_on_c, 0, 86, 45
2, 41278, Note_on_c, 0, 86, 0
2, 41280, Note_on_c, 0, 84, 45
2, 41326, Note_on_c, 0, 84, 0
2, 41328, Note_on_c, 0, 82, 45
2, 41374, Note_on_c, 0, 82, 0
2, 41376, Note_on_c, 0, 80, 45
2, 41422, Note_on_c, 0, 80, 0
2, 41424, Note_on_c, 0, 79, 45
2, 41470, Note_on_c, 0, 79, 0
2, 41472, Note_on_c, 0, 77, 45
2, 41518, Note_on_c, 0, 77, 0
2, 41520, Note_on_c, 0, 75, 45
2, 41566, Note_on_c, 0, 75, 0
2, 41568, Note_on_c, 0, 74, 45
2, 41614, Note_on_c, 0, 74, 0
2, 41616, Note_on_c, 0, 72, 45
2, 41662, Note_on_c, 0, 72, 0
2, 41664, Note_on_c, 0, 70, 45
2, 41710, Note_on_c, 0, 70, 0
2, 41712, Note_on_c, 0, 68, 45
2, 41758, Note_on_c, 0, 68, 0
2, 41760, Note_on_c, 0, 70, 45
2, 41806, Note_on_c, 0, 70, 0
2, 41808, Note_on_c, 0, 72, 45
2, 41854, Note_on_c, 0, 72, 0
2, 41856, Note_on_c, 0, 74, 45
2, 41902, Note_on_c, 0, 74, 0
2, 41904, Note_on_c, 0, 75, 45
2, 41950, Note_on_c, 0, 75, 0
2, 41952, Note_on_c, 0, 77, 45
2, 41998, Note_on_c, 0, 77, 0
2, 42000, Note_on_c, 0, 79, 45
2, 42046, Note_on_c, 0, 79, 0
2, 42048, Note_on_c, 0, 80, 45
2, 42094, Note_on_c, 0, 80, 0
2, 42096, Note_on_c, 0, 82, 45
2, 42142, Note_on_c, 0, 82, 0
2, 42144, Note_on_c, 0, 84, 45
2, 42190, Note_on_c, 0, 84, 0
2, 42192, Note_on_c, 0, 86, 45
2, 42238, Note_on_c, 0, 86, 0
2, 42240, Note_on_c, 0, 87, 45
2, 42286, Note_on_c, 0, 87, 0
2, 42288, Note_on_c, 0, 89, 45
2, 42334, Note_on_c, 0, 89, 0
2, 42336, Note_on_c, 0, 87, 47
2, 42382, Note_on_c, 0, 87, 0
2, 42384, Note_on_c, 0, 86, 49
2, 42430, Note_on_c, 0, 86, 0
2, 42432, Note_on_c, 0, 84, 51
2, 42478, Note_on_c, 0, 84, 0
2, 42480, Note_on_c, 0, 82, 53
2, 42526, Note_on_c, 0, 82, 0
2, 42528, Note_on_c, 0, 80, 55
2, 42574, Note_on_c, 0, 80, 0
2, 42576, Note_on_c, 0, 79, 57
2, 42622, Note_on_c, 0, 79, 0
2, 42624, Note_on_c, 0, 77, 59
2, 42670, Note_on_c, 0, 77, 0
2, 42672, Note_on_c, 0, 75, 62
2, 42718, Note_on_c, 0, 75, 0
2, 42720, Note_on_c, 0, 74, 65
2, 42766, Note_on_c, 0, 74, 0
2, 42768, Note_on_c, 0, 72, 68
2, 42814, Note_on_c, 0, 72, 0
2, 42816, Note_on_c, 0, 70, 71
2, 42862, Note_on_c, 0, 70, 0
2, 42864, Note_on_c, 0, 68, 74
2, 42910, Note_on_c, 0, 68, 0
2, 42912, Note_on_c, 0, 67, 77
2, 42958, Note_on_c, 0, 67, 0
2, 42960, Note_on_c, 0, 68, 80
2, 43006, Note_on_c, 0, 68, 0
2, 43008, Note_on_c, 0, 70, 83
2, 43054, Note_on_c, 0, 70, 0
2, 43056, Note_on_c, 0, 72, 86
2, 43078, Note_on_c, 0, 72, 0
2, 43080, Note_on_c, 0, 74, 87
2, 43102, Note_on_c, 0, 74, 0
2, 43104, Note_on_c, 0, 75, 88
2, 43126, Note_on_c, 0, 75, 0
2, 43128, Note_on_c, 0, 77, 90
2, 43150, Note_on_c, 0, 77, 0
2, 43152, Note_on_c, 0, 79, 92
2, 43184, Note_on_c, 0, 79, 0
2, 43344, Note_on_c, 0, 75, 60
2, 43376, Note_on_c, 0, 75, 0
2, 43440, Note_on_c, 0, 70, 60
2, 43632, Note_on_c, 0, 70, 0
2, 43632, Note_on_c, 0, 67, 60
2, 43726, Note_on_c, 0, 67, 0
2, 43728, Note_on_c, 0, 70, 60
2, 43750, Note_on_c, 0, 70, 0
2, 43752, Note_on_c, 0, 68, 60
2, 43822, Note_on_c, 0, 68, 0
2, 43824, Note_on_c, 0, 67, 60
2, 43918, Note_on_c, 0, 67, 0
2, 43920, Note_on_c, 0, 68, 60
2, 44014, Note_on_c, 0, 68, 0
2, 44016, Note_on_c, 0, 67, 60
2, 44038, Note_on_c, 0, 67, 0
2, 44040, Note_on_c, 0, 68, 60
2, 44062, Note_on_c, 0, 68, 0
2, 44064, Note_on_c, 0, 70, 60
2, 44272, Note_on_c, 0, 70, 0
2, 44304, Note_on_c, 0, 70, 60
2, 44398, Note_on_c, 0, 70, 0
2, 44400, Note_on_c, 0, 68, 60
2, 44494, Note_on_c, 0, 68, 0
2, 44496, Note_on_c, 0, 67, 60
2, 44590, Note_on_c, 0, 67, 0
2, 44592, Note_on_c, 0, 67, 60
2, 44616, Note_on_c, 0, 67, 0
2, 44616, Note_on_c, 0, 65, 60
2, 44686, Note_on_c, 0, 65, 0
2, 44688, Note_on_c, 0, 64, 60
2, 44782, Note_on_c, 0, 64, 0
2, 44784, Note_on_c, 0, 65, 60
2, 44878, Note_on_c, 0, 65, 0
2, 44880, Note_on_c, 0, 69, 60
2, 44974, Note_on_c, 0, 69, 0
2, 44976, Note_on_c, 0, 70, 60
2, 45070, Note_on_c, 0, 70, 0
2, 45072, Note_on_c, 0, 62, 60
2, 45104, Note_on_c, 0, 62, 0
2, 45168, Note_on_c, 0, 65, 60
2, 45216, Note_on_c, 0, 65, 0
2, 45216, Note_on_c, 0, 63, 60
2, 45264, Note_on_c, 0, 63, 0
2, 45264, Note_on_c, 0, 62, 60
2, 45312, Note_on_c, 0, 62, 0
2, 45312, Note_on_c, 0, 63, 60
2, 45360, Note_on_c, 0, 63, 0
2, 45360, Note_on_c, 0, 67, 60
2, 45408, Note_on_c, 0, 67, 0
2, 45408, Note_on_c, 0, 63, 60
2, 45456, Note_on_c, 0, 63, 0
2, 45456, Note_on_c, 0, 70, 60
2, 45488, Note_on_c, 0, 70, 0
2, 45488, Note_on_c, 0, 67, 60
2, 45520, Note_on_c, 0, 67, 0
2, 45520, Note_on_c, 0, 75, 60
2, 45552, Note_on_c, 0, 75, 0
2, 45552, Note_on_c, 0, 70, 60
2, 45584, Note_on_c, 0, 70, 0
2, 45584, Note_on_c, 0, 79, 60
2, 45616, Note_on_c, 0, 79, 0
2, 45616, Note_on_c, 0, 75, 60
2, 45648, Note_on_c, 0, 75, 0
2, 45648, Note_on_c, 0, 82, 60
2, 45672, Note_on_c, 0, 82, 0
2, 45672, Note_on_c, 0, 79, 60
2, 45696, Note_on_c, 0, 79, 0
2, 45696, Note_on_c, 0, 75, 60
2, 45720, Note_on_c, 0, 75, 0
2, 45720, Note_on_c, 0, 70, 60
2, 45742, Note_on_c, 0, 70, 0
2, 45744, Note_on_c, 0, 68, 60
2, 45790, Note_on_c, 0, 68, 0
2, 45792, Note_on_c, 0, 67, 60
2, 45838, Note_on_c, 0, 67, 0
2, 45840, Note_on_c, 0, 66, 60
2, 45886, Note_on_c, 0, 66, 0
2, 45888, Note_on_c, 0, 67, 60
2, 45934, Note_on_c, 0, 67, 0
2, 45936, Note_on_c, 0, 66, 60
2, 45982, Note_on_c, 0, 66, 0
2, 45984, Note_on_c, 0, 67, 60
2, 46030, Note_on_c, 0, 67, 0
2, 46032, Note_on_c, 0, 70, 60
2, 46078, Note_on_c, 0, 70, 0
2, 46080, Note_on_c, 0, 68, 60
2, 46126, Note_on_c, 0, 68, 0
2, 46128, Note_on_c, 0, 67, 60
2, 46174, Note_on_c, 0, 67, 0
2, 46176, Note_on_c, 0, 68, 60
2, 46222, Note_on_c, 0, 68, 0
2, 46224, Note_on_c, 0, 67, 60
2, 46270, Note_on_c, 0, 67, 0
2, 46272, Note_on_c, 0, 68, 60
2, 46318, Note_on_c, 0, 68, 0
2, 46320, Note_on_c, 0, 72, 60
2, 46366, Note_on_c, 0, 72, 0
2, 46368, Note_on_c, 0, 70, 60
2, 46414, Note_on_c, 0, 70, 0
2, 46416, Note_on_c, 0, 69, 60
2, 46462, Note_on_c, 0, 69, 0
2, 46464, Note_on_c, 0, 70, 60
2, 46510, Note_on_c, 0, 70, 0
2, 46512, Note_on_c, 0, 69, 60
2, 46558, Note_on_c, 0, 69, 0
2, 46560, Note_on_c, 0, 70, 60
2, 46606, Note_on_c, 0, 70, 0
2, 46608, Note_on_c, 0, 69, 60
2, 46654, Note_on_c, 0, 69, 0
2, 46656, Note_on_c, 0, 70, 60
2, 46702, Note_on_c, 0, 70, 0
2, 46704, Note_on_c, 0, 72, 60
2, 46750, Note_on_c, 0, 72, 0
2, 46752, Note_on_c, 0, 70, 60
2, 46798, Note_on_c, 0, 70, 0
2, 46800, Note_on_c, 0, 68, 60
2, 46846, Note_on_c, 0, 68, 0
2, 46848, Note_on_c, 0, 67, 60
2, 46894, Note_on_c, 0, 67, 0
2, 46896, Note_on_c, 0, 65, 60
2, 46942, Note_on_c, 0, 65, 0
2, 46944, Note_on_c, 0, 67, 60
2, 46990, Note_on_c, 0, 67, 0
2, 46992, Note_on_c, 0, 65, 60
2, 47038, Note_on_c, 0, 65, 0
2, 47040, Note_on_c, 0, 64, 60
2, 47086, Note_on_c, 0, 64, 0
2, 47088, Note_on_c, 0, 65, 60
2, 47134, Note_on_c, 0, 65, 0
2, 47136, Note_on_c, 0, 67, 60
2, 47182, Note_on_c, 0, 67, 0
2, 47184, Note_on_c, 0, 68, 60
2, 47230, Note_on_c, 0, 68, 0
2, 47232, Note_on_c, 0, 69, 60
2, 47278, Note_on_c, 0, 69, 0
2, 47280, Note_on_c, 0, 70, 60
2, 47326, Note_on_c, 0, 70, 0
2, 47328, Note_on_c, 0, 62, 60
2, 47374, Note_on_c, 0, 62, 0
2, 47376, Note_on_c, 0, 70, 60
2, 47422, Note_on_c, 0, 70, 0
2, 47424, Note_on_c, 0, 62, 60
2, 47470, Note_on_c, 0, 62, 0
2, 47472, Note_on_c, 0, 63, 60
2, 47632, Note_on_c, 0, 63, 0
2, 47760, Note_on_c, 0, 58, 60
2, 47792, Note_on_c, 0, 58, 0
2, 47856, Note_on_c, 0, 58, 60
2, 47888, Note_on_c, 0, 58, 0
2, 47952, Note_on_c, 0, 58, 60
2, 47984, Note_on_c, 0, 58, 0
2, 48048, Note_on_c, 0, 58, 92
2, 48048, Note_on_c, 0, 65, 92
2, 48048, Note_on_c, 0, 70, 92
2, 48240, Note_on_c, 0, 70, 0
2, 48240, Note_on_c, 0, 68, 60
2, 48304, Note_on_c, 0, 65, 0
2, 48304, Note_on_c, 0, 58, 0
2, 48334, Note_on_c, 0, 68, 0
2, 48336, Note_on_c, 0, 58, 60
2, 48368, Note_on_c, 0, 58, 0
2, 48432, Note_on_c, 0, 58, 60
2, 48464, Note_on_c, 0, 58, 0
2, 48528, Note_on_c, 0, 58, 60
2, 48560, Note_on_c, 0, 58, 0
2, 48624, Note_on_c, 0, 58, 92
2, 48624, Note_on_c, 0, 63, 92
2, 48624, Note_on_c, 0, 68, 92
2, 48816, Note_on_c, 0, 68, 0
2, 48816, Note_on_c, 0, 67, 60
2, 48880, Note_on_c, 0, 63, 0
2, 48880, Note_on_c, 0, 58, 0
2, 48910, Note_on_c, 0, 67, 0
2, 48912, Note_on_c, 0, 58, 60
2, 48944, Note_on_c, 0, 58, 0
2, 49008, Note_on_c, 0, 58, 60
2, 49040, Note_on_c, 0, 58, 0
2, 49104, Note_on_c, 0, 58, 60
2, 49136, Note_on_c, 0, 58, 0
2, 49200, Note_on_c, 0, 58, 92
2, 49200, Note_on_c, 0, 62, 92
2, 49200, Note_on_c, 0, 67, 92
2, 49392, Note_on_c, 0, 67, 0
2, 49392, Note_on_c, 0, 65, 60
2, 49456, Note_on_c, 0, 62, 0
2, 49456, Note_on_c, 0, 58, 0
2, 49486, Note_on_c, 0, 65, 0
2, 49488, Note_on_c, 0, 58, 60
2, 49488, Note_on_c, 0, 63, 60
2, 49520, Note_on_c, 0, 63, 0
2, 49520, Note_on_c, 0, 58, 0
2, 49584, Note_on_c, 0, 58, 60
2, 49584, Note_on_c, 0, 62, 60
2, 49584, Note_on_c, 0, 65, 60
2, 49616, Note_on_c, 0, 65, 0
2, 49616, Note_on_c, 0, 62, 0
2, 49616, Note_on_c, 0, 58, 0
2, 49680, Note_on_c, 0, 58, 60
2, 49680, Note_on_c, 0, 63, 60
2, 49680, Note_on_c, 0, 67, 60
2, 49712, Note_on_c, 0, 67, 0
2, 49712, Note_on_c, 0, 63, 0
2, 49712, Note_on_c, 0, 58, 0
2, 49776, Note_on_c, 0, 58, 60
2, 49776, Note_on_c, 0, 62, 60
2, 49776, Note_on_c, 0, 65, 60
2, 50032, Note_on_c, 0, 65, 0
2, 50032, Note_on_c, 0, 62, 0
2, 50032, Note_on_c, 0, 58, 0
2, 50064, Note_on_c, 0, 69, 60
2, 50110, Note_on_c, 0, 69, 0
2, 50112, Note_on_c, 0, 70, 60
2, 50158, Note_on_c, 0, 70, 0
2, 50160, Note_on_c, 0, 69, 60
2, 50206, Note_on_c, 0, 69, 0
2, 50208, Note_on_c, 0, 70, 60
2, 50254, Note_on_c, 0, 70, 0
2, 50256, Note_on_c, 0, 69, 60
2, 50302, Note_on_c, 0, 69, 0
2, 50304, Note_on_c, 0, 70, 60
2, 50350, Note_on_c, 0, 70, 0
2, 50352, Note_on_c, 0, 70, 92
2, 50352, Note_on_c, 0, 82, 92
2, 50512, Note_on_c, 0, 82, 0
2, 50544, Note_on_c, 0, 80, 60
2, 50608, Note_on_c, 0, 70, 0
2, 50638, Note_on_c, 0, 80, 0
2, 50640, Note_on_c, 0, 69, 60
2, 50686, Note_on_c, 0, 69, 0
2, 50688, Note_on_c, 0, 70, 60
2, 50734, Note_on_c, 0, 70, 0
2, 50736, Note_on_c, 0, 69, 60
2, 50782, Note_on_c, 0, 69, 0
2, 50784, Note_on_c, 0, 70, 60
2, 50830, Note_on_c, 0, 70, 0
2, 50832, Note_on_c, 0, 69, 60
2, 50878, Note_on_c, 0, 69, 0
2, 50880, Note_on_c, 0, 70, 60
2, 50926, Note_on_c, 0, 70, 0
2, 50928, Note_on_c, 0, 70, 92
2, 50928, Note_on_c, 0, 80, 92
2, 51088, Note_on_c, 0, 80, 0
2, 51120, Note_on_c, 0, 79, 60
2, 51184, Note_on_c, 0, 70, 0
2, 51214, Note_on_c, 0, 79, 0
2, 51216, Note_on_c, 0, 69, 60
2, 51262, Note_on_c, 0, 69, 0
2, 51264, Note_on_c, 0, 70, 60
2, 51310, Note_on_c, 0, 70, 0
2, 51312, Note_on_c, 0, 69, 60
2, 51358, Note_on_c, 0, 69, 0
2, 51360, Note_on_c, 0, 70, 60
2, 51406, Note_on_c, 0, 70, 0
2, 51408, Note_on_c, 0, 69, 60
2, 51454, Note_on_c, 0, 69, 0
2, 51456, Note_on_c, 0, 70, 60
2, 51502, Note_on_c, 0, 70, 0
2, 51504, Note_on_c, 0, 70, 92
2, 51504, Note_on_c, 0, 74, 92
2, 51504, Note_on_c, 0, 79, 92
2, 51696, Note_on_c, 0, 79, 0
2, 51696, Note_on_c, 0, 77, 60
2, 51760, Note_on_c, 0, 74, 0
2, 51760, Note_on_c, 0, 70, 0
2, 51790, Note_on_c, 0, 77, 0
2, 51792, Note_on_c, 0, 70, 60
2, 51792, Note_on_c, 0, 75, 60
2, 51824, Note_on_c, 0, 75, 0
2, 51824, Note_on_c, 0, 70, 0
2, 51888, Note_on_c, 0, 74, 60
2, 51888, Note_on_c, 0, 77, 60
2, 51920, Note_on_c, 0, 77, 0
2, 51920, Note_on_c, 0, 74, 0
2, 51984, Note_on_c, 0, 75, 60
2, 51984, Note_on_c, 0, 79, 60
2, 52016, Note_on_c, 0, 79, 0
2, 52016, Note_on_c, 0, 75, 0
2, 52080, Note_on_c, 0, 74, 60
2, 52080, Note_on_c, 0, 77, 60
2, 52336, Note_on_c, 0, 77, 0
2, 52336, Note_on_c, 0, 74, 0
2, 52368, Note_on_c, 0, 58, 60
2, 52368, Note_on_c, 0, 63, 60
2, 52400, Note_on_c, 0, 63, 0
2, 52400, Note_on_c, 0, 58, 0
2, 52464, Note_on_c, 0, 62, 60
2, 52464, Note_on_c, 0, 65, 60
2, 52496, Note_on_c, 0, 65, 0
2, 52496, Note_on_c, 0, 62, 0
2, 52560, Note_on_c, 0, 63, 60
2, 52560, Note_on_c, 0, 67, 60
2, 52592, Note_on_c, 0, 67, 0
2, 52592, Note_on_c, 0, 63, 0
2, 52656, Note_on_c, 0, 62, 60
2, 52656, Note_on_c, 0, 65, 60
2, 52912, Note_on_c, 0, 65, 0
2, 52912, Note_on_c, 0, 62, 0
2, 52944, Note_on_c, 0, 70, 60
2, 52944, Note_on_c, 0, 75, 60
2, 52976, Note_on_c, 0, 75, 0
2, 52976, Note_on_c, 0, 70, 0
2, 53040, Note_on_c, 0, 74, 60
2, 53040, Note_on_c, 0, 77, 60
2, 53072, Note_on_c, 0, 77, 0
2, 53072, Note_on_c, 0, 74, 0
2, 53136, Note_on_c, 0, 75, 60
2, 53136, Note_on_c, 0, 79, 60
2, 53168, Note_on_c, 0, 79, 0
2, 53168, Note_on_c, 0, 75, 0
2, 53232, Note_on_c, 0, 74, 60
2, 53232, Note_on_c, 0, 77, 60
2, 53488, Note_on_c, 0, 77, 0
2, 53488, Note_on_c, 0, 74, 0
2, 53520, Note_on_c, 0, 70, 60
2, 53520, Note_on_c, 0, 75, 60
2, 53552, Note_on_c, 0, 75, 0
2, 53552, Note_on_c, 0, 70, 0
2, 53616, Note_on_c, 0, 74, 60
2, 53616, Note_on_c, 0, 77, 60
2, 53648, Note_on_c, 0, 77, 0
2, 53648, Note_on_c, 0, 74, 0
2, 53712, Note_on_c, 0, 75, 60
2, 53712, Note_on_c, 0, 79, 60
2, 53744, Note_on_c, 0, 79, 0
2, 53744, Note_on_c, 0, 75, 0
2, 53808, Note_on_c, 0, 74, 60
2, 53808, Note_on_c, 0, 77, 60
2, 53950, Note_on_c, 0, 77, 0
2, 53950, Note_on_c, 0, 74, 0
2, 53952, Note_on_c, 0, 70, 60
2, 53952, Note_on_c, 0, 75, 60
2, 53984, Note_on_c, 0, 75, 0
2, 53984, Note_on_c, 0, 70, 0
2, 54000, Note_on_c, 0, 74, 60
2, 54000, Note_on_c, 0, 77, 60
2, 54032, Note_on_c, 0, 77, 0
2, 54032, Note_on_c, 0, 74, 0
2, 54048, Note_on_c, 0, 75, 60
2, 54048, Note_on_c, 0, 79, 60
2, 54080, Note_on_c, 0, 79, 0
2, 54080, Note_on_c, 0, 75, 0
2, 54096, Note_on_c, 0, 74, 60
2, 54096, Note_on_c, 0, 77, 60
2, 54238, Note_on_c, 0, 77, 0
2, 54238, Note_on_c, 0, 74, 0
2, 54240, Note_on_c, 0, 70, 60
2, 54240, Note_on_c, 0, 75, 60
2, 54272, Note_on_c, 0, 75, 0
2, 54272, Note_on_c, 0, 70, 0
2, 54288, Note_on_c, 0, 74, 60
2, 54288, Note_on_c, 0, 77, 60
2, 54320, Note_on_c, 0, 77, 0
2, 54320, Note_on_c, 0, 74, 0
2, 54336, Note_on_c, 0, 75, 60
2, 54336, Note_on_c, 0, 79, 60
2, 54368, Note_on_c, 0, 79, 0
2, 54368, Note_on_c, 0, 75, 0
2, 54384, Note_on_c, 0, 74, 60
2, 54384, Note_on_c, 0, 77, 60
2, 54416, Note_on_c, 0, 77, 0
2, 54416, Note_on_c, 0, 74, 0
2, 54432, Note_on_c, 0, 70, 62
2, 54432, Note_on_c, 0, 75, 62
2, 54464, Note_on_c, 0, 75, 0
2, 54464, Note_on_c, 0, 70, 0
2, 54480, Note_on_c, 0, 74, 64
2, 54480, Note_on_c, 0, 77, 64
2, 54512, Note_on_c, 0, 77, 0
2, 54512, Note_on_c, 0, 74, 0
2, 54528, Note_on_c, 0, 75, 66
2, 54528, Note_on_c, 0, 79, 66
2, 54560, Note_on_c, 0, 79, 0
2, 54560, Note_on_c, 0, 75, 0
2, 54576, Note_on_c, 0, 74, 68
2, 54576, Note_on_c, 0, 77, 68
2, 54608, Note_on_c, 0, 77, 0
2, 54608, Note_on_c, 0, 74, 0
2, 54624, Note_on_c, 0, 70, 71
2, 54624, Note_on_c, 0, 75, 71
2, 54656, Note_on_c, 0, 75, 0
2, 54656, Note_on_c, 0, 70, 0
2, 54672, Note_on_c, 0, 74, 74
2, 54672, Note_on_c, 0, 77, 74
2, 54704, Note_on_c, 0, 77, 0
2, 54704, Note_on_c, 0, 74, 0
2, 54720, Note_on_c, 0, 75, 77
2, 54720, Note_on_c, 0, 79, 77
2, 54752, Note_on_c, 0, 79, 0
2, 54752, Note_on_c, 0, 75, 0
2, 54768, Note_on_c, 0, 74, 80
2, 54768, Note_on_c, 0, 77, 80
2, 54800, Note_on_c, 0, 77, 0
2, 54800, Note_on_c, 0, 74, 0
2, 54816, Note_on_c, 0, 70, 83
2, 54816, Note_on_c, 0, 75, 83
2, 54848, Note_on_c, 0, 75, 0
2, 54848, Note_on_c, 0, 70, 0
2, 54864, Note_on_c, 0, 74, 86
2, 54864, Note_on_c, 0, 77, 86
2, 54896, Note_on_c, 0, 77, 0
2, 54896, Note_on_c, 0, 74, 0
2, 54912, Note_on_c, 0, 75, 89
2, 54912, Note_on_c, 0, 79, 89
2, 54944, Note_on_c, 0, 79, 0
2, 54944, Note_on_c, 0, 75, 0
2, 54960, Note_on_c, 0, 74, 92
2, 54960, Note_on_c, 0, 77, 92
2, 55054, Note_on_c, 0, 77, 0
2, 55054, Note_on_c, 0, 74, 0
2, 55152, Note_on_c, 0, 77, 92
2, 55176, Note_on_c, 0, 77, 0
2, 55176, Note_on_c, 0, 75, 92
2, 55200, Note_on_c, 0, 75, 0
2, 55200, Note_on_c, 0, 74, 92
2, 55224, Note_on_c, 0, 74, 0
2, 55224, Note_on_c, 0, 72, 92
2, 55248, Note_on_c, 0, 72, 0
2, 55248, Note_on_c, 0, 70, 92
2, 55280, Note_on_c, 0, 70, 0
2, 55440, Note_on_c, 0, 77, 92
2, 55464, Note_on_c, 0, 77, 0
2, 55464, Note_on_c, 0, 75, 92
2, 55488, Note_on_c, 0, 75, 0
2, 55488, Note_on_c, 0, 74, 92
2, 55512, Note_on_c, 0, 74, 0
2, 55512, Note_on_c, 0, 72, 92
2, 55534, Note_on_c, 0, 72, 0
2, 55536, Note_on_c, 0, 70, 92
2, 55568, Note_on_c, 0, 70, 0
2, 56016, Note_on_c, 0, 77, 92
2, 56040, Note_on_c, 0, 77, 0
2, 56040, Note_on_c, 0, 75, 92
2, 56064, Note_on_c, 0, 75, 0
2, 56064, Note_on_c, 0, 74, 92
2, 56088, Note_on_c, 0, 74, 0
2, 56088, Note_on_c, 0, 72, 92
2, 56110, Note_on_c, 0, 72, 0
2, 56112, Note_on_c, 0, 70, 92
2, 56144, Note_on_c, 0, 70, 0
2, 56320, Note_on_c, 0, 79, 88
2, 56334, Note_on_c, 0, 79, 0
2, 56336, Note_on_c, 0, 77, 88
2, 56350, Note_on_c, 0, 77, 0
2, 56352, Note_on_c, 0, 75, 88
2, 56366, Note_on_c, 0, 75, 0
2, 56368, Note_on_c, 0, 74, 88
2, 56382, Note_on_c, 0, 74, 0
2, 56384, Note_on_c, 0, 72, 88
2, 56398, Note_on_c, 0, 72, 0
2, 56400, Note_on_c, 0, 70, 88
2, 56432, Note_on_c, 0, 70, 0
2, 56592, Note_on_c, 0, 80, 82
2, 56606, Note_on_c, 0, 80, 0
2, 56608, Note_on_c, 0, 79, 82
2, 56622, Note_on_c, 0, 79, 0
2, 56624, Note_on_c, 0, 77, 82
2, 56638, Note_on_c, 0, 77, 0
2, 56640, Note_on_c, 0, 75, 82
2, 56654, Note_on_c, 0, 75, 0
2, 56656, Note_on_c, 0, 74, 82
2, 56670, Note_on_c, 0, 74, 0
2, 56672, Note_on_c, 0, 72, 82
2, 56686, Note_on_c, 0, 72, 0
2, 56688, Note_on_c, 0, 70, 82
2, 56720, Note_on_c, 0, 70, 0
2, 56736, Note_on_c, 0, 82, 81
2, 56782, Note_on_c, 0, 82, 0
2, 56784, Note_on_c, 0, 80, 80
2, 56830, Note_on_c, 0, 80, 0
2, 56832, Note_on_c, 0, 79, 78
2, 56878, Note_on_c, 0, 79, 0
2, 56880, Note_on_c, 0, 77, 76
2, 56902, Note_on_c, 0, 77, 0
2, 56904, Note_on_c, 0, 75, 75
2, 56926, Note_on_c, 0, 75, 0
2, 56928, Note_on_c, 0, 74, 74
2, 56950, Note_on_c, 0, 74, 0
2, 56952, Note_on_c, 0, 72, 73
2, 56974, Note_on_c, 0, 72, 0
2, 56976, Note_on_c, 0, 70, 72
2, 57070, Note_on_c, 0, 70, 0
2, 57072, Note_on_c, 0, 79, 68
2, 57104, Note_on_c, 0, 79, 0
2, 57168, Note_on_c, 0, 75, 64
2, 57200, Note_on_c, 0, 75, 0
2, 57264, Note_on_c, 0, 70, 60
2, 57424, Note_on_c, 0, 70, 0
2, 57456, Note_on_c, 0, 67, 60
2, 57550, Note_on_c, 0, 67, 0
2, 57552, Note_on_c, 0, 70, 60
2, 57574, Note_on_c, 0, 70, 0
2, 57576, Note_on_c, 0, 68, 60
2, 57646, Note_on_c, 0, 68, 0
2, 57648, Note_on_c, 0, 67, 60
2, 57742, Note_on_c, 0, 67, 0
2, 57744, Note_on_c, 0, 68, 60
2, 57838, Note_on_c, 0, 68, 0
2, 57840, Note_on_c, 0, 67, 60
2, 57862, Note_on_c, 0, 67, 0
2, 57864, Note_on_c, 0, 68, 60
2, 57886, Note_on_c, 0, 68, 0
2, 57888, Note_on_c, 0, 70, 60
2, 58096, Note_on_c, 0, 70, 0
2, 58128, Note_on_c, 0, 70, 60
2, 58222, Note_on_c, 0, 70, 0
2, 58224, Note_on_c, 0, 68, 60
2, 58318, Note_on_c, 0, 68, 0
2, 58320, Note_on_c, 0, 67, 60
2, 58414, Note_on_c, 0, 67, 0
2, 58416, Note_on_c, 0, 67, 60
2, 58440, Note_on_c, 0, 67, 0
2, 58440, Note_on_c, 0, 65, 60
2, 58510, Note_on_c, 0, 65, 0
2, 58512, Note_on_c, 0, 64, 60
2, 58606, Note_on_c, 0, 64, 0
2, 58608, Note_on_c, 0, 65, 60
2, 58702, Note_on_c, 0, 65, 0
2, 58704, Note_on_c, 0, 69, 60
2, 58798, Note_on_c, 0, 69, 0
2, 58800, Note_on_c, 0, 70, 60
2, 58894, Note_on_c, 0, 70, 0
2, 58896, Note_on_c, 0, 62, 60
2, 58928, Note_on_c, 0, 62, 0
2, 58992, Note_on_c, 0, 65, 60
2, 59024, Note_on_c, 0, 65, 0
2, 59024, Note_on_c, 0, 63, 60
2, 59056, Note_on_c, 0, 63, 0
2, 59056, Note_on_c, 0, 62, 60
2, 59088, Note_on_c, 0, 62, 0
2, 59088, Note_on_c, 0, 63, 60
2, 59120, Note_on_c, 0, 63, 0
2, 59120, Note_on_c, 0, 65, 60
2, 59152, Note_on_c, 0, 65, 0
2, 59152, Note_on_c, 0, 67, 60
2, 59184, Note_on_c, 0, 67, 0
2, 59184, Note_on_c, 0, 68, 60
2, 59216, Note_on_c, 0, 68, 0
2, 59216, Note_on_c, 0, 70, 60
2, 59248, Note_on_c, 0, 70, 0
2, 59248, Note_on_c, 0, 72, 60
2, 59280, Note_on_c, 0, 72, 0
2, 59280, Note_on_c, 0, 74, 60
2, 59312, Note_on_c, 0, 74, 0
2, 59312, Note_on_c, 0, 75, 60
2, 59344, Note_on_c, 0, 75, 0
2, 59344, Note_on_c, 0, 77, 60
2, 59376, Note_on_c, 0, 77, 0
2, 59376, Note_on_c, 0, 79, 60
2, 59400, Note_on_c, 0, 79, 0
2, 59400, Note_on_c, 0, 80, 60
2, 59424, Note_on_c, 0, 80, 0
2, 59424, Note_on_c, 0, 79, 60
2, 59448, Note_on_c, 0, 79, 0
2, 59448, Note_on_c, 0, 77, 60
2, 59472, Note_on_c, 0, 77, 0
2, 59472, Note_on_c, 0, 75, 60
2, 59496, Note_on_c, 0, 75, 0
2, 59496, Note_on_c, 0, 74, 60
2, 59520, Note_on_c, 0, 74, 0
2, 59520, Note_on_c, 0, 72, 60
2, 59544, Note_on_c, 0, 72, 0
2, 59544, Note_on_c, 0, 70, 60
2, 59566, Note_on_c, 0, 70, 0
2, 59568, Note_on_c, 0, 68, 60
2, 59598, Note_on_c, 0, 68, 0
2, 59600, Note_on_c, 0, 67, 60
2, 59630, Note_on_c, 0, 67, 0
2, 59632, Note_on_c, 0, 66, 60
2, 59662, Note_on_c, 0, 66, 0
2, 59664, Note_on_c, 0, 67, 60
2, 59694, Note_on_c, 0, 67, 0
2, 59696, Note_on_c, 0, 66, 60
2, 59726, Note_on_c, 0, 66, 0
2, 59728, Note_on_c, 0, 67, 60
2, 59758, Note_on_c, 0, 67, 0
2, 59760, Note_on_c, 0, 66, 60
2, 59782, Note_on_c, 0, 66, 0
2, 59784, Note_on_c, 0, 67, 60
2, 59806, Note_on_c, 0, 67, 0
2, 59808, Note_on_c, 0, 66, 60
2, 59830, Note_on_c, 0, 66, 0
2, 59832, Note_on_c, 0, 67, 60
2, 59854, Note_on_c, 0, 67, 0
2, 59856, Note_on_c, 0, 70, 60
2, 59886, Note_on_c, 0, 70, 0
2, 59888, Note_on_c, 0, 68, 60
2, 59918, Note_on_c, 0, 68, 0
2, 59920, Note_on_c, 0, 67, 60
2, 59950, Note_on_c, 0, 67, 0
2, 59952, Note_on_c, 0, 68, 60
2, 59982, Note_on_c, 0, 68, 0
2, 59984, Note_on_c, 0, 67, 60
2, 60014, Note_on_c, 0, 67, 0
2, 60016, Note_on_c, 0, 68, 60
2, 60046, Note_on_c, 0, 68, 0
2, 60048, Note_on_c, 0, 67, 60
2, 60070, Note_on_c, 0, 67, 0
2, 60072, Note_on_c, 0, 68, 60
2, 60094, Note_on_c, 0, 68, 0
2, 60096, Note_on_c, 0, 67, 60
2, 60118, Note_on_c, 0, 67, 0
2, 60120, Note_on_c, 0, 68, 60
2, 60142, Note_on_c, 0, 68, 0
2, 60144, Note_on_c, 0, 72, 60
2, 60174, Note_on_c, 0, 72, 0
2, 60176, Note_on_c, 0, 70, 60
2, 60206, Note_on_c, 0, 70, 0
2, 60208, Note_on_c, 0, 69, 60
2, 60238, Note_on_c, 0, 69, 0
2, 60240, Note_on_c, 0, 70, 60
2, 60270, Note_on_c, 0, 70, 0
2, 60272, Note_on_c, 0, 72, 60
2, 60302, Note_on_c, 0, 72, 0
2, 60304, Note_on_c, 0, 74, 60
2, 60334, Note_on_c, 0, 74, 0
2, 60336, Note_on_c, 0, 75, 60
2, 60366, Note_on_c, 0, 75, 0
2, 60368, Note_on_c, 0, 77, 60
2, 60398, Note_on_c, 0, 77, 0
2, 60400, Note_on_c, 0, 79, 60
2, 60430, Note_on_c, 0, 79, 0
2, 60432, Note_on_c, 0, 80, 60
2, 60454, Note_on_c, 0, 80, 0
2, 60456, Note_on_c, 0, 82, 60
2, 60478, Note_on_c, 0, 82, 0
2, 60480, Note_on_c, 0, 84, 60
2, 60502, Note_on_c, 0, 84, 0
2, 60504, Note_on_c, 0, 86, 60
2, 60526, Note_on_c, 0, 86, 0
2, 60528, Note_on_c, 0, 87, 60
2, 60550, Note_on_c, 0, 87, 0
2, 60552, Note_on_c, 0, 89, 60
2, 60574, Note_on_c, 0, 89, 0
2, 60576, Note_on_c, 0, 87, 60
2, 60598, Note_on_c, 0, 87, 0
2, 60600, Note_on_c, 0, 86, 60
2, 60622, Note_on_c, 0, 86, 0
2, 60624, Note_on_c, 0, 84, 60
2, 60646, Note_on_c, 0, 84, 0
2, 60648, Note_on_c, 0, 82, 60
2, 60670, Note_on_c, 0, 82, 0
2, 60672, Note_on_c, 0, 80, 60
2, 60694, Note_on_c, 0, 80, 0
2, 60696, Note_on_c, 0, 79, 60
2, 60718, Note_on_c, 0, 79, 0
2, 60720, Note_on_c, 0, 77, 60
2, 60750, Note_on_c, 0, 77, 0
2, 60752, Note_on_c, 0, 79, 60
2, 60782, Note_on_c, 0, 79, 0
2, 60784, Note_on_c, 0, 77, 60
2, 60814, Note_on_c, 0, 77, 0
2, 60816, Note_on_c, 0, 76, 60
2, 60846, Note_on_c, 0, 76, 0
2, 60848, Note_on_c, 0, 77, 60
2, 60878, Note_on_c, 0, 77, 0
2, 60880, Note_on_c, 0, 79, 60
2, 60910, Note_on_c, 0, 79, 0
2, 60912, Note_on_c, 0, 80, 60
2, 60942, Note_on_c, 0, 80, 0
2, 60944, Note_on_c, 0, 81, 60
2, 60974, Note_on_c, 0, 81, 0
2, 61008, Note_on_c, 0, 82, 60
2, 61040, Note_on_c, 0, 82, 0
2, 61200, Note_on_c, 0, 74, 56
2, 61232, Note_on_c, 0, 74, 0
2, 61296, Note_on_c, 0, 75, 54
2, 61456, Note_on_c, 0, 75, 0
2, 61584, Note_on_c, 0, 80, 45
2, 61632, Note_on_c, 0, 80, 0
2, 61632, Note_on_c, 0, 79, 45
2, 61680, Note_on_c, 0, 79, 0
2, 61680, Note_on_c, 0, 77, 45
2, 61728, Note_on_c, 0, 77, 0
2, 61728, Note_on_c, 0, 75, 45
2, 61776, Note_on_c, 0, 75, 0
2, 61776, Note_on_c, 0, 74, 45
2, 61824, Note_on_c, 0, 74, 0
2, 61824, Note_on_c, 0, 72, 45
2, 61870, Note_on_c, 0, 72, 0
2, 61872, Note_on_c, 0, 70, 45
2, 62128, Note_on_c, 0, 70, 0
2, 62160, Note_on_c, 0, 69, 45
2, 62208, Note_on_c, 0, 69, 0
2, 62208, Note_on_c, 0, 70, 45
2, 62256, Note_on_c, 0, 70, 0
2, 62256, Note_on_c, 0, 71, 45
2, 62304, Note_on_c, 0, 71, 0
2, 62304, Note_on_c, 0, 72, 45
2, 62352, Note_on_c, 0, 72, 0
2, 62352, Note_on_c, 0, 73, 45
2, 62400, Note_on_c, 0, 73, 0
2, 62400, Note_on_c, 0, 74, 45
2, 62448, Note_on_c, 0, 74, 0
2, 62448, Note_on_c, 0, 75, 45
2, 62736, Note_on_c, 0, 75, 0
2, 62736, Note_on_c, 0, 75, 45
2, 62784, Note_on_c, 0, 75, 0
2, 62784, Note_on_c, 0, 74, 45
2, 62832, Note_on_c, 0, 74, 0
2, 62832, Note_on_c, 0, 72, 45
2, 62880, Note_on_c, 0, 72, 0
2, 62880, Note_on_c, 0, 70, 45
2, 62928, Note_on_c, 0, 70, 0
2, 62928, Note_on_c, 0, 68, 45
2, 62976, Note_on_c, 0, 68, 0
2, 62976, Note_on_c, 0, 67, 45
2, 63022, Note_on_c, 0, 67, 0
2, 63024, Note_on_c, 0, 65, 45
2, 63216, Note_on_c, 0, 65, 0
2, 63216, Note_on_c, 0, 68, 45
2, 63248, Note_on_c, 0, 68, 0
2, 63312, Note_on_c, 0, 58, 45
2, 63504, Note_on_c, 0, 58, 0
2, 63504, Note_on_c, 0, 62, 45
2, 63536, Note_on_c, 0, 62, 0
2, 63600, Note_on_c, 0, 63, 45
2, 63760, Note_on_c, 0, 63, 0
2, 64224, Note_on_c, 0, 68, 45
2, 64272, Note_on_c, 0, 68, 0
2, 64272, Note_on_c, 0, 74, 45
2, 64320, Note_on_c, 0, 74, 0
2, 64320, Note_on_c, 0, 77, 45
2, 64368, Note_on_c, 0, 77, 0
2, 64368, Note_on_c, 0, 80, 45
2, 64400, Note_on_c, 0, 80, 0
2, 64800, Note_on_c, 0, 67, 45
2, 64848, Note_on_c, 0, 67, 0
2, 64848, Note_on_c, 0, 70, 45
2, 64896, Note_on_c, 0, 70, 0
2, 64896, Note_on_c, 0, 75, 45
2, 64944, Note_on_c, 0, 75, 0
2, 64944, Note_on_c, 0, 79, 45
2, 64976, Note_on_c, 0, 79, 0
2, 65376, Note_on_c, 0, 72, 45
2, 65422, Note_on_c, 0, 72, 0
2, 65424, Note_on_c, 0, 77, 45
2, 65470, Note_on_c, 0, 77, 0
2, 65472, Note_on_c, 0, 80, 45
2, 65518, Note_on_c, 0, 80, 0
2, 65520, Note_on_c, 0, 84, 45
2, 65552, Note_on_c, 0, 84, 0
2, 65664, Note_on_c, 0, 70, 45
2, 65710, Note_on_c, 0, 70, 0
2, 65712, Note_on_c, 0, 74, 45
2, 65758, Note_on_c, 0, 74, 0
2, 65760, Note_on_c, 0, 77, 45
2, 65806, Note_on_c, 0, 77, 0
2, 65808, Note_on_c, 0, 82, 45
2, 65854, Note_on_c, 0, 82, 0
2, 65856, Note_on_c, 0, 80, 45
2, 65902, Note_on_c, 0, 80, 0
2, 65904, Note_on_c, 0, 79, 45
2, 65936, Note_on_c, 0, 79, 0
2, 65952, Note_on_c, 0, 67, 45
2, 65998, Note_on_c, 0, 67, 0
2, 66000, Note_on_c, 0, 70, 45
2, 66046, Note_on_c, 0, 70, 0
2, 66048, Note_on_c, 0, 75, 45
2, 66094, Note_on_c, 0, 75, 0
2, 66096, Note_on_c, 0, 79, 45
2, 66142, Note_on_c, 0, 79, 0
2, 66144, Note_on_c, 0, 82, 45
2, 66190, Note_on_c, 0, 82, 0
2, 66192, Note_on_c, 0, 87, 45
2, 66238, Note_on_c, 0, 87, 0
2, 66240, Note_on_c, 0, 86, 45
2, 66286, Note_on_c, 0, 86, 0
2, 66288, Note_on_c, 0, 84, 45
2, 66334, Note_on_c, 0, 84, 0
2, 66336, Note_on_c, 0, 82, 45
2, 66382, Note_on_c, 0, 82, 0
2, 66384, Note_on_c, 0, 80, 45
2, 66430, Note_on_c, 0, 80, 0
2, 66432, Note_on_c, 0, 79, 45
2, 66478, Note_on_c, 0, 79, 0
2, 66480, Note_on_c, 0, 77, 45
2, 66672, Note_on_c, 0, 77, 0
2, 66672, Note_on_c, 0, 80, 45
2, 66766, Note_on_c, 0, 80, 0
2, 66768, Note_on_c, 0, 70, 45
2, 66928, Note_on_c, 0, 70, 0
2, 66960, Note_on_c, 0, 74, 45
2, 66992, Note_on_c, 0, 74, 0
2, 67056, Note_on_c, 0, 75, 45
2, 67102, Note_on_c, 0, 75, 0
2, 67104, Note_on_c, 0, 74, 45
2, 67150, Note_on_c, 0, 74, 0
2, 67152, Note_on_c, 0, 75, 45
2, 67198, Note_on_c, 0, 75, 0
2, 67200, Note_on_c, 0, 74, 45
2, 67246, Note_on_c, 0, 74, 0
2, 67248, Note_on_c, 0, 79, 45
2, 67294, Note_on_c, 0, 79, 0
2, 67296, Note_on_c, 0, 77, 45
2, 67342, Note_on_c, 0, 77, 0
2, 67344, Note_on_c, 0, 75, 45
2, 67390, Note_on_c, 0, 75, 0
2, 67392, Note_on_c, 0, 74, 45
2, 67438, Note_on_c, 0, 74, 0
2, 67440, Note_on_c, 0, 72, 45
2, 67486, Note_on_c, 0, 72, 0
2, 67488, Note_on_c, 0, 70, 45
2, 67534, Note_on_c, 0, 70, 0
2, 67536, Note_on_c, 0, 68, 45
2, 67582, Note_on_c, 0, 68, 0
2, 67584, Note_on_c, 0, 67, 45
2, 67630, Note_on_c, 0, 67, 0
2, 67632, Note_on_c, 0, 65, 45
2, 67678, Note_on_c, 0, 65, 0
2, 67680, Note_on_c, 0, 67, 45
2, 67726, Note_on_c, 0, 67, 0
2, 67728, Note_on_c, 0, 65, 45
2, 67774, Note_on_c, 0, 65, 0
2, 67776, Note_on_c, 0, 64, 45
2, 67822, Note_on_c, 0, 64, 0
2, 67824, Note_on_c, 0, 65, 45
2, 67870, Note_on_c, 0, 65, 0
2, 67872, Note_on_c, 0, 68, 45
2, 67918, Note_on_c, 0, 68, 0
2, 67920, Note_on_c, 0, 58, 45
2, 67966, Note_on_c, 0, 58, 0
2, 67968, Note_on_c, 0, 60, 45
2, 68014, Note_on_c, 0, 60, 0
2, 68016, Note_on_c, 0, 58, 45
2, 68062, Note_on_c, 0, 58, 0
2, 68064, Note_on_c, 0, 57, 45
2, 68110, Note_on_c, 0, 57, 0
2, 68112, Note_on_c, 0, 58, 45
2, 68158, Note_on_c, 0, 58, 0
2, 68160, Note_on_c, 0, 62, 45
2, 68206, Note_on_c, 0, 62, 0
2, 68208, Note_on_c, 0, 63, 45
2, 68368, Note_on_c, 0, 63, 0
2, 68592, Note_on_c, 0, 70, 92
2, 68592, Note_on_c, 0, 82, 92
2, 68624, Note_on_c, 0, 82, 0
2, 68624, Note_on_c, 0, 70, 0
2, 68688, Note_on_c, 0, 74, 92
2, 68688, Note_on_c, 0, 80, 92
2, 68688, Note_on_c, 0, 86, 92
2, 68720, Note_on_c, 0, 86, 0
2, 68720, Note_on_c, 0, 80, 0
2, 68720, Note_on_c, 0, 74, 0
2, 68784, Note_on_c, 0, 75, 92
2, 68784, Note_on_c, 0, 79, 92
2, 68784, Note_on_c, 0, 87, 92
2, 68816, Note_on_c, 0, 87, 0
2, 68816, Note_on_c, 0, 79, 0
2, 68816, Note_on_c, 0, 75, 0
2, 68816, End_track
3, 0, Start_track
3, 0, Title_t, "Reginald Steven Ritchie"
3, 0, Program_c, 1, 0
3, 0, Control_c, 1, 7, 127
3, 0, Control_c, 1, 10, 45
3, 0, Program_c, 1, 0
3, 0, Control_c, 1, 7, 127
3, 0, Control_c, 1, 10, 9
3, 0, Control_c, 1, 91, 84
3, 0, Control_c, 1, 93, 84
3, 288, Note_on_c, 1, 51, 45
3, 288, Note_on_c, 1, 55, 45
3, 382, Note_on_c, 1, 55, 0
3, 384, Note_on_c, 1, 58, 45
3, 478, Note_on_c, 1, 58, 0
3, 480, Note_on_c, 1, 63, 45
3, 574, Note_on_c, 1, 63, 0
3, 576, Note_on_c, 1, 53, 45
3, 670, Note_on_c, 1, 53, 0
3, 672, Note_on_c, 1, 56, 45
3, 766, Note_on_c, 1, 56, 0
3, 768, Note_on_c, 1, 63, 45
3, 816, Note_on_c, 1, 51, 0
3, 862, Note_on_c, 1, 63, 0
3, 864, Note_on_c, 1, 51, 45
3, 864, Note_on_c, 1, 55, 45
3, 958, Note_on_c, 1, 55, 0
3, 960, Note_on_c, 1, 58, 45
3, 1054, Note_on_c, 1, 58, 0
3, 1056, Note_on_c, 1, 63, 45
3, 1150, Note_on_c, 1, 63, 0
3, 1152, Note_on_c, 1, 55, 45
3, 1246, Note_on_c, 1, 55, 0
3, 1248, Note_on_c, 1, 58, 45
3, 1342, Note_on_c, 1, 58, 0
3, 1344, Note_on_c, 1, 63, 45
3, 1392, Note_on_c, 1, 51, 0
3, 1438, Note_on_c, 1, 63, 0
3, 1440, Note_on_c, 1, 51, 45
3, 1440, Note_on_c, 1, 51, 45
3, 1534, Note_on_c, 1, 51, 0
3, 1536, Note_on_c, 1, 56, 45
3, 1630, Note_on_c, 1, 56, 0
3, 1632, Note_on_c, 1, 60, 45
3, 1696, Note_on_c, 1, 51, 0
3, 1726, Note_on_c, 1, 60, 0
3, 1728, Note_on_c, 1, 51, 45
3, 1728, Note_on_c, 1, 51, 45
3, 1822, Note_on_c, 1, 51, 0
3, 1824, Note_on_c, 1, 53, 45
3, 1918, Note_on_c, 1, 53, 0
3, 1920, Note_on_c, 1, 56, 45
3, 1984, Note_on_c, 1, 51, 0
3, 2014, Note_on_c, 1, 56, 0
3, 2016, Note_on_c, 1, 51, 45
3, 2016, Note_on_c, 1, 51, 45
3, 2110, Note_on_c, 1, 51, 0
3, 2112, Note_on_c, 1, 55, 45
3, 2206, Note_on_c, 1, 55, 0
3, 2208, Note_on_c, 1, 58, 45
3, 2302, Note_on_c, 1, 58, 0
3, 2304, Note_on_c, 1, 55, 45
3, 2398, Note_on_c, 1, 55, 0
3, 2400, Note_on_c, 1, 58, 45
3, 2494, Note_on_c, 1, 58, 0
3, 2496, Note_on_c, 1, 63, 45
3, 2544, Note_on_c, 1, 51, 0
3, 2590, Note_on_c, 1, 63, 0
3, 2592, Note_on_c, 1, 51, 45
3, 2592, Note_on_c, 1, 55, 45
3, 2686, Note_on_c, 1, 55, 0
3, 2688, Note_on_c, 1, 58, 45
3, 2782, Note_on_c, 1, 58, 0
3, 2784, Note_on_c, 1, 63, 45
3, 2878, Note_on_c, 1, 63, 0
3, 2880, Note_on_c, 1, 53, 45
3, 2974, Note_on_c, 1, 53, 0
3, 2976, Note_on_c, 1, 56, 45
3, 3070, Note_on_c, 1, 56, 0
3, 3072, Note_on_c, 1, 63, 45
3, 3120, Note_on_c, 1, 51, 0
3, 3166, Note_on_c, 1, 63, 0
3, 3168, Note_on_c, 1, 51, 45
3, 3168, Note_on_c, 1, 55, 45
3, 3262, Note_on_c, 1, 55, 0
3, 3264, Note_on_c, 1, 58, 45
3, 3358, Note_on_c, 1, 58, 0
3, 3360, Note_on_c, 1, 63, 45
3, 3454, Note_on_c, 1, 63, 0
3, 3456, Note_on_c, 1, 55, 45
3, 3550, Note_on_c, 1, 55, 0
3, 3552, Note_on_c, 1, 58, 45
3, 3646, Note_on_c, 1, 58, 0
3, 3648, Note_on_c, 1, 63, 45
3, 3696, Note_on_c, 1, 51, 0
3, 3742, Note_on_c, 1, 63, 0
3, 3744, Note_on_c, 1, 51, 45
3, 3744, Note_on_c, 1, 51, 45
3, 3838, Note_on_c, 1, 51, 0
3, 3840, Note_on_c, 1, 56, 45
3, 3934, Note_on_c, 1, 56, 0
3, 3936, Note_on_c, 1, 60, 45
3, 4000, Note_on_c, 1, 51, 0
3, 4030, Note_on_c, 1, 60, 0
3, 4032, Note_on_c, 1, 51, 45
3, 4032, Note_on_c, 1, 51, 45
3, 4126, Note_on_c, 1, 51, 0
3, 4128, Note_on_c, 1, 53, 45
3, 4222, Note_on_c, 1, 53, 0
3, 4224, Note_on_c, 1, 56, 45
3, 4288, Note_on_c, 1, 51, 0
3, 4318, Note_on_c, 1, 56, 0
3, 4320, Note_on_c, 1, 51, 45
3, 4320, Note_on_c, 1, 55, 45
3, 4414, Note_on_c, 1, 55, 0
3, 4414, Note_on_c, 1, 51, 0
3, 4416, Note_on_c, 1, 58, 45
3, 4510, Note_on_c, 1, 58, 0
3, 4512, Note_on_c, 1, 51, 45
3, 4606, Note_on_c, 1, 51, 0
3, 4896, Note_on_c, 1, 38, 92
3, 4896, Note_on_c, 1, 46, 92
3, 5152, Note_on_c, 1, 46, 0
3, 5152, Note_on_c, 1, 38, 0
3, 5472, Note_on_c, 1, 39, 92
3, 5472, Note_on_c, 1, 46, 92
3, 5728, Note_on_c, 1, 46, 0
3, 5728, Note_on_c, 1, 39, 0
3, 6048, Note_on_c, 1, 44, 92
3, 6304, Note_on_c, 1, 44, 0
3, 6336, Note_on_c, 1, 43, 45
3, 6368, Note_on_c, 1, 43, 0
3, 6432, Note_on_c, 1, 41, 45
3, 6464, Note_on_c, 1, 41, 0
3, 6528, Note_on_c, 1, 39, 45
3, 6560, Note_on_c, 1, 39, 0
3, 6624, Note_on_c, 1, 46, 45
3, 6880, Note_on_c, 1, 46, 0
3, 7200, Note_on_c, 1, 62, 92
3, 7200, Note_on_c, 1, 65, 92
3, 7456, Note_on_c, 1, 65, 0
3, 7456, Note_on_c, 1, 62, 0
3, 7776, Note_on_c, 1, 63, 92
3, 7776, Note_on_c, 1, 67, 92
3, 8032, Note_on_c, 1, 67, 0
3, 8032, Note_on_c, 1, 63, 0
3, 8352, Note_on_c, 1, 68, 92
3, 8608, Note_on_c, 1, 68, 0
3, 8640, Note_on_c, 1, 67, 45
3, 8672, Note_on_c, 1, 67, 0
3, 8736, Note_on_c, 1, 65, 45
3, 8768, Note_on_c, 1, 65, 0
3, 8832, Note_on_c, 1, 63, 45
3, 8864, Note_on_c, 1, 63, 0
3, 8928, Note_on_c, 1, 70, 45
3, 9184, Note_on_c, 1, 70, 0
3, 9216, Note_on_c, 1, 55, 45
3, 9248, Note_on_c, 1, 55, 0
3, 9312, Note_on_c, 1, 53, 45
3, 9344, Note_on_c, 1, 53, 0
3, 9408, Note_on_c, 1, 51, 45
3, 9440, Note_on_c, 1, 51, 0
3, 9504, Note_on_c, 1, 46, 45
3, 9760, Note_on_c, 1, 46, 0
3, 9792, Note_on_c, 1, 67, 45
3, 9824, Note_on_c, 1, 67, 0
3, 9888, Note_on_c, 1, 65, 45
3, 9920, Note_on_c, 1, 65, 0
3, 9984, Note_on_c, 1, 63, 45
3, 10016, Note_on_c, 1, 63, 0
3, 10080, Note_on_c, 1, 70, 45
3, 10336, Note_on_c, 1, 70, 0
3, 10368, Note_on_c, 1, 67, 45
3, 10400, Note_on_c, 1, 67, 0
3, 10464, Note_on_c, 1, 65, 45
3, 10496, Note_on_c, 1, 65, 0
3, 10560, Note_on_c, 1, 63, 45
3, 10592, Note_on_c, 1, 63, 0
3, 10656, Note_on_c, 1, 58, 45
3, 10798, Note_on_c, 1, 58, 0
3, 10800, Note_on_c, 1, 67, 45
3, 10832, Note_on_c, 1, 67, 0
3, 10848, Note_on_c, 1, 65, 45
3, 10880, Note_on_c, 1, 65, 0
3, 10896, Note_on_c, 1, 63, 45
3, 10928, Note_on_c, 1, 63, 0
3, 10944, Note_on_c, 1, 70, 45
3, 11086, Note_on_c, 1, 70, 0
3, 11088, Note_on_c, 1, 67, 45
3, 11120, Note_on_c, 1, 67, 0
3, 11136, Note_on_c, 1, 65, 45
3, 11168, Note_on_c, 1, 65, 0
3, 11184, Note_on_c, 1, 63, 45
3, 11216, Note_on_c, 1, 63, 0
3, 11232, Note_on_c, 1, 58, 45
3, 11264, Note_on_c, 1, 58, 0
3, 11280, Note_on_c, 1, 67, 48
3, 11312, Note_on_c, 1, 67, 0
3, 11328, Note_on_c, 1, 65, 52
3, 11360, Note_on_c, 1, 65, 0
3, 11376, Note_on_c, 1, 63, 56
3, 11408, Note_on_c, 1, 63, 0
3, 11424, Note_on_c, 1, 58, 60
3, 11456, Note_on_c, 1, 58, 0
3, 11472, Note_on_c, 1, 67, 64
3, 11504, Note_on_c, 1, 67, 0
3, 11520, Note_on_c, 1, 65, 68
3, 11552, Note_on_c, 1, 65, 0
3, 11568, Note_on_c, 1, 63, 72
3, 11600, Note_on_c, 1, 63, 0
3, 11616, Note_on_c, 1, 58, 76
3, 11648, Note_on_c, 1, 58, 0
3, 11664, Note_on_c, 1, 67, 80
3, 11696, Note_on_c, 1, 67, 0
3, 11712, Note_on_c, 1, 65, 84
3, 11744, Note_on_c, 1, 65, 0
3, 11760, Note_on_c, 1, 63, 88
3, 11792, Note_on_c, 1, 63, 0
3, 11808, Note_on_c, 1, 58, 92
3, 11902, Note_on_c, 1, 58, 0
3, 12576, Note_on_c, 1, 53, 92
3, 12600, Note_on_c, 1, 53, 0
3, 12600, Note_on_c, 1, 51, 92
3, 12624, Note_on_c, 1, 51, 0
3, 12624, Note_on_c, 1, 50, 92
3, 12648, Note_on_c, 1, 50, 0
3, 12648, Note_on_c, 1, 48, 92
3, 12672, Note_on_c, 1, 48, 0
3, 12672, Note_on_c, 1, 46, 92
3, 12704, Note_on_c, 1, 46, 0
3, 14136, Note_on_c, 1, 51, 45
3, 14136, Note_on_c, 1, 55, 45
3, 14230, Note_on_c, 1, 55, 0
3, 14232, Note_on_c, 1, 58, 45
3, 14326, Note_on_c, 1, 58, 0
3, 14328, Note_on_c, 1, 63, 45
3, 14422, Note_on_c, 1, 63, 0
3, 14424, Note_on_c, 1, 53, 45
3, 14518, Note_on_c, 1, 53, 0
3, 14520, Note_on_c, 1, 56, 45
3, 14614, Note_on_c, 1, 56, 0
3, 14616, Note_on_c, 1, 63, 45
3, 14664, Note_on_c, 1, 51, 0
3, 14710, Note_on_c, 1, 63, 0
3, 14712, Note_on_c, 1, 51, 45
3, 14712, Note_on_c, 1, 55, 45
3, 14806, Note_on_c, 1, 55, 0
3, 14808, Note_on_c, 1, 58, 45
3, 14902, Note_on_c, 1, 58, 0
3, 14904, Note_on_c, 1, 63, 45
3, 14998, Note_on_c, 1, 63, 0
3, 15000, Note_on_c, 1, 55, 45
3, 15094, Note_on_c, 1, 55, 0
3, 15096, Note_on_c, 1, 58, 45
3, 15190, Note_on_c, 1, 58, 0
3, 15192, Note_on_c, 1, 63, 45
3, 15240, Note_on_c, 1, 51, 0
3, 15286, Note_on_c, 1, 63, 0
3, 15288, Note_on_c, 1, 51, 45
3, 15288, Note_on_c, 1, 51, 45
3, 15382, Note_on_c, 1, 51, 0
3, 15384, Note_on_c, 1, 56, 45
3, 15478, Note_on_c, 1, 56, 0
3, 15480, Note_on_c, 1, 60, 45
3, 15544, Note_on_c, 1, 51, 0
3, 15574, Note_on_c, 1, 60, 0
3, 15576, Note_on_c, 1, 51, 45
3, 15576, Note_on_c, 1, 51, 45
3, 15670, Note_on_c, 1, 51, 0
3, 15672, Note_on_c, 1, 53, 45
3, 15766, Note_on_c, 1, 53, 0
3, 15768, Note_on_c, 1, 56, 45
3, 15832, Note_on_c, 1, 51, 0
3, 15862, Note_on_c, 1, 56, 0
3, 15864, Note_on_c, 1, 51, 45
3, 15864, Note_on_c, 1, 51, 45
3, 15958, Note_on_c, 1, 51, 0
3, 15960, Note_on_c, 1, 55, 45
3, 16054, Note_on_c, 1, 55, 0
3, 16056, Note_on_c, 1, 58, 45
3, 16150, Note_on_c, 1, 58, 0
3, 16152, Note_on_c, 1, 55, 45
3, 16246, Note_on_c, 1, 55, 0
3, 16248, Note_on_c, 1, 58, 45
3, 16342, Note_on_c, 1, 58, 0
3, 16344, Note_on_c, 1, 63, 45
3, 16392, Note_on_c, 1, 51, 0
3, 16438, Note_on_c, 1, 63, 0
3, 16440, Note_on_c, 1, 51, 45
3, 16440, Note_on_c, 1, 55, 45
3, 16534, Note_on_c, 1, 55, 0
3, 16536, Note_on_c, 1, 58, 45
3, 16630, Note_on_c, 1, 58, 0
3, 16632, Note_on_c, 1, 63, 45
3, 16696, Note_on_c, 1, 51, 0
3, 16726, Note_on_c, 1, 63, 0
3, 16728, Note_on_c, 1, 51, 45
3, 16728, Note_on_c, 1, 53, 45
3, 16822, Note_on_c, 1, 53, 0
3, 16824, Note_on_c, 1, 56, 45
3, 16918, Note_on_c, 1, 56, 0
3, 16920, Note_on_c, 1, 63, 45
3, 16984, Note_on_c, 1, 51, 0
3, 17014, Note_on_c, 1, 63, 0
3, 17016, Note_on_c, 1, 51, 45
3, 17016, Note_on_c, 1, 55, 45
3, 17110, Note_on_c, 1, 55, 0
3, 17112, Note_on_c, 1, 58, 45
3, 17206, Note_on_c, 1, 58, 0
3, 17208, Note_on_c, 1, 63, 45
3, 17302, Note_on_c, 1, 63, 0
3, 17304, Note_on_c, 1, 55, 45
3, 17398, Note_on_c, 1, 55, 0
3, 17400, Note_on_c, 1, 58, 45
3, 17494, Note_on_c, 1, 58, 0
3, 17496, Note_on_c, 1, 63, 45
3, 17544, Note_on_c, 1, 51, 0
3, 17590, Note_on_c, 1, 63, 0
3, 17592, Note_on_c, 1, 51, 45
3, 17592, Note_on_c, 1, 51, 45
3, 17688, Note_on_c, 1, 51, 0
3, 17688, Note_on_c, 1, 56, 45
3, 17784, Note_on_c, 1, 56, 0
3, 17784, Note_on_c, 1, 60, 45
3, 17848, Note_on_c, 1, 51, 0
3, 17880, Note_on_c, 1, 60, 0
3, 17880, Note_on_c, 1, 51, 45
3, 17880, Note_on_c, 1, 51, 45
3, 17976, Note_on_c, 1, 51, 0
3, 17976, Note_on_c, 1, 53, 45
3, 18072, Note_on_c, 1, 53, 0
3, 18072, Note_on_c, 1, 56, 45
3, 18136, Note_on_c, 1, 51, 0
3, 18166, Note_on_c, 1, 56, 0
3, 18168, Note_on_c, 1, 51, 45
3, 18168, Note_on_c, 1, 55, 45
3, 18424, Note_on_c, 1, 55, 0
3, 18424, Note_on_c, 1, 51, 0
3, 18840, Note_on_c, 1, 38, 92
3, 18840, Note_on_c, 1, 46, 92
3, 19096, Note_on_c, 1, 46, 0
3, 19096, Note_on_c, 1, 38, 0
3, 19416, Note_on_c, 1, 39, 92
3, 19416, Note_on_c, 1, 46, 92
3, 19672, Note_on_c, 1, 46, 0
3, 19672, Note_on_c, 1, 39, 0
3, 19992, Note_on_c, 1, 44, 92
3, 20248, Note_on_c, 1, 44, 0
3, 20280, Note_on_c, 1, 43, 45
3, 20312, Note_on_c, 1, 43, 0
3, 20376, Note_on_c, 1, 41, 45
3, 20408, Note_on_c, 1, 41, 0
3, 20472, Note_on_c, 1, 39, 45
3, 20504, Note_on_c, 1, 39, 0
3, 20568, Note_on_c, 1, 46, 45
3, 20824, Note_on_c, 1, 46, 0
3, 21144, Note_on_c, 1, 62, 92
3, 21144, Note_on_c, 1, 65, 92
3, 21400, Note_on_c, 1, 65, 0
3, 21400, Note_on_c, 1, 62, 0
3, 21720, Note_on_c, 1, 63, 92
3, 21720, Note_on_c, 1, 67, 92
3, 21976, Note_on_c, 1, 67, 0
3, 21976, Note_on_c, 1, 63, 0
3, 22296, Note_on_c, 1, 68, 92
3, 22552, Note_on_c, 1, 68, 0
3, 22584, Note_on_c, 1, 67, 45
3, 22616, Note_on_c, 1, 67, 0
3, 22680, Note_on_c, 1, 65, 45
3, 22712, Note_on_c, 1, 65, 0
3, 22776, Note_on_c, 1, 63, 45
3, 22808, Note_on_c, 1, 63, 0
3, 22872, Note_on_c, 1, 70, 45
3, 23128, Note_on_c, 1, 70, 0
3, 23160, Note_on_c, 1, 55, 45
3, 23192, Note_on_c, 1, 55, 0
3, 23256, Note_on_c, 1, 53, 45
3, 23288, Note_on_c, 1, 53, 0
3, 23352, Note_on_c, 1, 51, 45
3, 23384, Note_on_c, 1, 51, 0
3, 23448, Note_on_c, 1, 46, 45
3, 23704, Note_on_c, 1, 46, 0
3, 23736, Note_on_c, 1, 67, 45
3, 23768, Note_on_c, 1, 67, 0
3, 23832, Note_on_c, 1, 65, 45
3, 23864, Note_on_c, 1, 65, 0
3, 23928, Note_on_c, 1, 63, 45
3, 23960, Note_on_c, 1, 63, 0
3, 24024, Note_on_c, 1, 70, 45
3, 24280, Note_on_c, 1, 70, 0
3, 24312, Note_on_c, 1, 67, 45
3, 24344, Note_on_c, 1, 67, 0
3, 24408, Note_on_c, 1, 65, 45
3, 24440, Note_on_c, 1, 65, 0
3, 24504, Note_on_c, 1, 63, 45
3, 24536, Note_on_c, 1, 63, 0
3, 24600, Note_on_c, 1, 58, 45
3, 24742, Note_on_c, 1, 58, 0
3, 24744, Note_on_c, 1, 67, 45
3, 24776, Note_on_c, 1, 67, 0
3, 24792, Note_on_c, 1, 65, 45
3, 24824, Note_on_c, 1, 65, 0
3, 24840, Note_on_c, 1, 63, 45
3, 24872, Note_on_c, 1, 63, 0
3, 24888, Note_on_c, 1, 70, 45
3, 25030, Note_on_c, 1, 70, 0
3, 25032, Note_on_c, 1, 67, 45
3, 25064, Note_on_c, 1, 67, 0
3, 25080, Note_on_c, 1, 65, 45
3, 25112, Note_on_c, 1, 65, 0
3, 25128, Note_on_c, 1, 63, 45
3, 25160, Note_on_c, 1, 63, 0
3, 25176, Note_on_c, 1, 58, 45
3, 25208, Note_on_c, 1, 58, 0
3, 25224, Note_on_c, 1, 67, 48
3, 25256, Note_on_c, 1, 67, 0
3, 25272, Note_on_c, 1, 65, 52
3, 25304, Note_on_c, 1, 65, 0
3, 25320, Note_on_c, 1, 63, 56
3, 25352, Note_on_c, 1, 63, 0
3, 25368, Note_on_c, 1, 58, 60
3, 25400, Note_on_c, 1, 58, 0
3, 25416, Note_on_c, 1, 67, 64
3, 25448, Note_on_c, 1, 67, 0
3, 25464, Note_on_c, 1, 65, 68
3, 25496, Note_on_c, 1, 65, 0
3, 25512, Note_on_c, 1, 63, 72
3, 25544, Note_on_c, 1, 63, 0
3, 25560, Note_on_c, 1, 58, 76
3, 25592, Note_on_c, 1, 58, 0
3, 25608, Note_on_c, 1, 67, 80
3, 25640, Note_on_c, 1, 67, 0
3, 25656, Note_on_c, 1, 65, 84
3, 25688, Note_on_c, 1, 65, 0
3, 25704, Note_on_c, 1, 63, 88
3, 25736, Note_on_c, 1, 63, 0
3, 25752, Note_on_c, 1, 58, 92
3, 25846, Note_on_c, 1, 58, 0
3, 26520, Note_on_c, 1, 53, 92
3, 26544, Note_on_c, 1, 53, 0
3, 26544, Note_on_c, 1, 51, 92
3, 26568, Note_on_c, 1, 51, 0
3, 26568, Note_on_c, 1, 50, 92
3, 26592, Note_on_c, 1, 50, 0
3, 26592, Note_on_c, 1, 48, 92
3, 26616, Note_on_c, 1, 48, 0
3, 26616, Note_on_c, 1, 46, 92
3, 26648, Note_on_c, 1, 46, 0
3, 28080, Note_on_c, 1, 51, 45
3, 28080, Note_on_c, 1, 55, 45
3, 28174, Note_on_c, 1, 55, 0
3, 28176, Note_on_c, 1, 58, 45
3, 28270, Note_on_c, 1, 58, 0
3, 28272, Note_on_c, 1, 63, 45
3, 28366, Note_on_c, 1, 63, 0
3, 28368, Note_on_c, 1, 53, 45
3, 28462, Note_on_c, 1, 53, 0
3, 28464, Note_on_c, 1, 56, 45
3, 28558, Note_on_c, 1, 56, 0
3, 28560, Note_on_c, 1, 63, 45
3, 28608, Note_on_c, 1, 51, 0
3, 28654, Note_on_c, 1, 63, 0
3, 28656, Note_on_c, 1, 51, 45
3, 28656, Note_on_c, 1, 55, 45
3, 28750, Note_on_c, 1, 55, 0
3, 28752, Note_on_c, 1, 58, 45
3, 28846, Note_on_c, 1, 58, 0
3, 28848, Note_on_c, 1, 63, 45
3, 28942, Note_on_c, 1, 63, 0
3, 28944, Note_on_c, 1, 55, 45
3, 29038, Note_on_c, 1, 55, 0
3, 29040, Note_on_c, 1, 58, 45
3, 29134, Note_on_c, 1, 58, 0
3, 29136, Note_on_c, 1, 63, 45
3, 29184, Note_on_c, 1, 51, 0
3, 29230, Note_on_c, 1, 63, 0
3, 29232, Note_on_c, 1, 51, 45
3, 29232, Note_on_c, 1, 51, 45
3, 29326, Note_on_c, 1, 51, 0
3, 29328, Note_on_c, 1, 56, 45
3, 29422, Note_on_c, 1, 56, 0
3, 29424, Note_on_c, 1, 60, 45
3, 29488, Note_on_c, 1, 51, 0
3, 29518, Note_on_c, 1, 60, 0
3, 29520, Note_on_c, 1, 51, 45
3, 29520, Note_on_c, 1, 51, 45
3, 29614, Note_on_c, 1, 51, 0
3, 29616, Note_on_c, 1, 53, 45
3, 29710, Note_on_c, 1, 53, 0
3, 29712, Note_on_c, 1, 56, 45
3, 29776, Note_on_c, 1, 51, 0
3, 29806, Note_on_c, 1, 56, 0
3, 29808, Note_on_c, 1, 51, 45
3, 29808, Note_on_c, 1, 51, 45
3, 29902, Note_on_c, 1, 51, 0
3, 29904, Note_on_c, 1, 55, 45
3, 29998, Note_on_c, 1, 55, 0
3, 30000, Note_on_c, 1, 58, 45
3, 30094, Note_on_c, 1, 58, 0
3, 30096, Note_on_c, 1, 55, 45
3, 30190, Note_on_c, 1, 55, 0
3, 30192, Note_on_c, 1, 58, 45
3, 30286, Note_on_c, 1, 58, 0
3, 30288, Note_on_c, 1, 63, 45
3, 30336, Note_on_c, 1, 51, 0
3, 30382, Note_on_c, 1, 63, 0
3, 30384, Note_on_c, 1, 51, 45
3, 30384, Note_on_c, 1, 55, 45
3, 30478, Note_on_c, 1, 55, 0
3, 30480, Note_on_c, 1, 58, 45
3, 30574, Note_on_c, 1, 58, 0
3, 30576, Note_on_c, 1, 63, 45
3, 30640, Note_on_c, 1, 51, 0
3, 30670, Note_on_c, 1, 63, 0
3, 30672, Note_on_c, 1, 51, 45
3, 30672, Note_on_c, 1, 53, 45
3, 30766, Note_on_c, 1, 53, 0
3, 30768, Note_on_c, 1, 56, 45
3, 30862, Note_on_c, 1, 56, 0
3, 30864, Note_on_c, 1, 63, 45
3, 30928, Note_on_c, 1, 51, 0
3, 30958, Note_on_c, 1, 63, 0
3, 30960, Note_on_c, 1, 51, 45
3, 30960, Note_on_c, 1, 55, 45
3, 31054, Note_on_c, 1, 55, 0
3, 31056, Note_on_c, 1, 58, 45
3, 31150, Note_on_c, 1, 58, 0
3, 31152, Note_on_c, 1, 63, 45
3, 31246, Note_on_c, 1, 63, 0
3, 31248, Note_on_c, 1, 55, 45
3, 31342, Note_on_c, 1, 55, 0
3, 31344, Note_on_c, 1, 58, 45
3, 31438, Note_on_c, 1, 58, 0
3, 31440, Note_on_c, 1, 63, 45
3, 31488, Note_on_c, 1, 51, 0
3, 31534, Note_on_c, 1, 63, 0
3, 31536, Note_on_c, 1, 51, 45
3, 31536, Note_on_c, 1, 51, 45
3, 31632, Note_on_c, 1, 51, 0
3, 31632, Note_on_c, 1, 56, 45
3, 31728, Note_on_c, 1, 56, 0
3, 31728, Note_on_c, 1, 60, 45
3, 31792, Note_on_c, 1, 51, 0
3, 31824, Note_on_c, 1, 60, 0
3, 31824, Note_on_c, 1, 51, 45
3, 31824, Note_on_c, 1, 51, 45
3, 31920, Note_on_c, 1, 51, 0
3, 31920, Note_on_c, 1, 53, 45
3, 32016, Note_on_c, 1, 53, 0
3, 32016, Note_on_c, 1, 56, 45
3, 32080, Note_on_c, 1, 51, 0
3, 32110, Note_on_c, 1, 56, 0
3, 32112, Note_on_c, 1, 51, 45
3, 32112, Note_on_c, 1, 55, 45
3, 32368, Note_on_c, 1, 55, 0
3, 32368, Note_on_c, 1, 51, 0
3, 32496, Note_on_c, 1, 51, 45
3, 32496, Note_on_c, 1, 55, 45
3, 32656, Note_on_c, 1, 55, 0
3, 32656, Note_on_c, 1, 51, 0
3, 32688, Note_on_c, 1, 58, 45
3, 32782, Note_on_c, 1, 58, 0
3, 32784, Note_on_c, 1, 66, 45
3, 32880, Note_on_c, 1, 66, 0
3, 32880, Note_on_c, 1, 63, 45
3, 32976, Note_on_c, 1, 63, 0
3, 32976, Note_on_c, 1, 62, 45
3, 33072, Note_on_c, 1, 62, 0
3, 33072, Note_on_c, 1, 63, 45
3, 33168, Note_on_c, 1, 63, 0
3, 33168, Note_on_c, 1, 58, 45
3, 33264, Note_on_c, 1, 58, 0
3, 33264, Note_on_c, 1, 57, 45
3, 33360, Note_on_c, 1, 57, 0
3, 33360, Note_on_c, 1, 58, 45
3, 33456, Note_on_c, 1, 58, 0
3, 33456, Note_on_c, 1, 54, 45
3, 33552, Note_on_c, 1, 54, 0
3, 33552, Note_on_c, 1, 53, 45
3, 33648, Note_on_c, 1, 53, 0
3, 33648, Note_on_c, 1, 51, 45
3, 33904, Note_on_c, 1, 51, 0
3, 33936, Note_on_c, 1, 46, 45
3, 34192, Note_on_c, 1, 46, 0
3, 34224, Note_on_c, 1, 39, 45
3, 34480, Note_on_c, 1, 39, 0
3, 34512, Note_on_c, 1, 34, 45
3, 34768, Note_on_c, 1, 34, 0
3, 34800, Note_on_c, 1, 39, 45
3, 34960, Note_on_c, 1, 39, 0
3, 35280, Note_on_c, 1, 62, 45
3, 35376, Note_on_c, 1, 62, 0
3, 35376, Note_on_c, 1, 63, 45
3, 35470, Note_on_c, 1, 63, 0
3, 35472, Note_on_c, 1, 58, 45
3, 35568, Note_on_c, 1, 58, 0
3, 35568, Note_on_c, 1, 57, 45
3, 35664, Note_on_c, 1, 57, 0
3, 35664, Note_on_c, 1, 58, 45
3, 35760, Note_on_c, 1, 58, 0
3, 35760, Note_on_c, 1, 54, 45
3, 35856, Note_on_c, 1, 54, 0
3, 35856, Note_on_c, 1, 53, 45
3, 35952, Note_on_c, 1, 53, 0
3, 35952, Note_on_c, 1, 51, 45
3, 36208, Note_on_c, 1, 51, 0
3, 36240, Note_on_c, 1, 44, 45
3, 36432, Note_on_c, 1, 54, 45
3, 36496, Note_on_c, 1, 44, 0
3, 36526, Note_on_c, 1, 54, 0
3, 36528, Note_on_c, 1, 37, 45
3, 36624, Note_on_c, 1, 49, 45
3, 36784, Note_on_c, 1, 49, 0
3, 36784, Note_on_c, 1, 37, 0
3, 36816, Note_on_c, 1, 32, 45
3, 37008, Note_on_c, 1, 56, 45
3, 37072, Note_on_c, 1, 32, 0
3, 37102, Note_on_c, 1, 56, 0
3, 37104, Note_on_c, 1, 37, 45
3, 37200, Note_on_c, 1, 53, 45
3, 37360, Note_on_c, 1, 53, 0
3, 37360, Note_on_c, 1, 37, 0
3, 37392, Note_on_c, 1, 34, 45
3, 37584, Note_on_c, 1, 56, 45
3, 37648, Note_on_c, 1, 34, 0
3, 37678, Note_on_c, 1, 56, 0
3, 37680, Note_on_c, 1, 39, 45
3, 37776, Note_on_c, 1, 54, 45
3, 37936, Note_on_c, 1, 54, 0
3, 37936, Note_on_c, 1, 39, 0
3, 37968, Note_on_c, 1, 34, 45
3, 38160, Note_on_c, 1, 56, 45
3, 38224, Note_on_c, 1, 34, 0
3, 38254, Note_on_c, 1, 56, 0
3, 38256, Note_on_c, 1, 39, 45
3, 38352, Note_on_c, 1, 54, 48
3, 38446, Note_on_c, 1, 54, 0
3, 38512, Note_on_c, 1, 39, 0
3, 38544, Note_on_c, 1, 35, 55
3, 38800, Note_on_c, 1, 35, 0
3, 38832, Note_on_c, 1, 34, 67
3, 38926, Note_on_c, 1, 34, 0
3, 39024, Note_on_c, 1, 59, 75
3, 39024, Note_on_c, 1, 63, 75
3, 39118, Note_on_c, 1, 63, 0
3, 39118, Note_on_c, 1, 59, 0
3, 39120, Note_on_c, 1, 58, 45
3, 39120, Note_on_c, 1, 62, 45
3, 39214, Note_on_c, 1, 62, 0
3, 39214, Note_on_c, 1, 58, 0
3, 39312, Note_on_c, 1, 59, 75
3, 39312, Note_on_c, 1, 63, 75
3, 39406, Note_on_c, 1, 63, 0
3, 39406, Note_on_c, 1, 59, 0
3, 39408, Note_on_c, 1, 58, 45
3, 39408, Note_on_c, 1, 62, 45
3, 39568, Note_on_c, 1, 62, 0
3, 39568, Note_on_c, 1, 58, 0
3, 43440, Note_on_c, 1, 51, 45
3, 43440, Note_on_c, 1, 55, 45
3, 43534, Note_on_c, 1, 55, 0
3, 43536, Note_on_c, 1, 58, 45
3, 43630, Note_on_c, 1, 58, 0
3, 43632, Note_on_c, 1, 63, 45
3, 43726, Note_on_c, 1, 63, 0
3, 43728, Note_on_c, 1, 53, 45
3, 43822, Note_on_c, 1, 53, 0
3, 43824, Note_on_c, 1, 56, 45
3, 43918, Note_on_c, 1, 56, 0
3, 43920, Note_on_c, 1, 63, 45
3, 43968, Note_on_c, 1, 51, 0
3, 44014, Note_on_c, 1, 63, 0
3, 44016, Note_on_c, 1, 51, 45
3, 44016, Note_on_c, 1, 55, 45
3, 44110, Note_on_c, 1, 55, 0
3, 44112, Note_on_c, 1, 58, 45
3, 44206, Note_on_c, 1, 58, 0
3, 44208, Note_on_c, 1, 63, 45
3, 44302, Note_on_c, 1, 63, 0
3, 44304, Note_on_c, 1, 55, 45
3, 44398, Note_on_c, 1, 55, 0
3, 44400, Note_on_c, 1, 58, 45
3, 44494, Note_on_c, 1, 58, 0
3, 44496, Note_on_c, 1, 63, 45
3, 44544, Note_on_c, 1, 51, 0
3, 44590, Note_on_c, 1, 63, 0
3, 44592, Note_on_c, 1, 51, 45
3, 44592, Note_on_c, 1, 51, 45
3, 44686, Note_on_c, 1, 51, 0
3, 44688, Note_on_c, 1, 56, 45
3, 44782, Note_on_c, 1, 56, 0
3, 44784, Note_on_c, 1, 60, 45
3, 44848, Note_on_c, 1, 51, 0
3, 44878, Note_on_c, 1, 60, 0
3, 44880, Note_on_c, 1, 51, 45
3, 44880, Note_on_c, 1, 51, 45
3, 44974, Note_on_c, 1, 51, 0
3, 44976, Note_on_c, 1, 53, 45
3, 45070, Note_on_c, 1, 53, 0
3, 45072, Note_on_c, 1, 56, 45
3, 45136, Note_on_c, 1, 51, 0
3, 45166, Note_on_c, 1, 56, 0
3, 45168, Note_on_c, 1, 51, 45
3, 45168, Note_on_c, 1, 51, 45
3, 45262, Note_on_c, 1, 51, 0
3, 45264, Note_on_c, 1, 55, 45
3, 45358, Note_on_c, 1, 55, 0
3, 45360, Note_on_c, 1, 58, 45
3, 45454, Note_on_c, 1, 58, 0
3, 45456, Note_on_c, 1, 55, 45
3, 45550, Note_on_c, 1, 55, 0
3, 45552, Note_on_c, 1, 58, 45
3, 45646, Note_on_c, 1, 58, 0
3, 45648, Note_on_c, 1, 63, 45
3, 45696, Note_on_c, 1, 51, 0
3, 45742, Note_on_c, 1, 63, 0
3, 45744, Note_on_c, 1, 51, 45
3, 45744, Note_on_c, 1, 55, 45
3, 45838, Note_on_c, 1, 55, 0
3, 45840, Note_on_c, 1, 58, 45
3, 45934, Note_on_c, 1, 58, 0
3, 45936, Note_on_c, 1, 63, 45
3, 46030, Note_on_c, 1, 63, 0
3, 46032, Note_on_c, 1, 53, 45
3, 46126, Note_on_c, 1, 53, 0
3, 46128, Note_on_c, 1, 56, 45
3, 46222, Note_on_c, 1, 56, 0
3, 46224, Note_on_c, 1, 63, 45
3, 46272, Note_on_c, 1, 51, 0
3, 46318, Note_on_c, 1, 63, 0
3, 46320, Note_on_c, 1, 51, 45
3, 46320, Note_on_c, 1, 55, 45
3, 46414, Note_on_c, 1, 55, 0
3, 46416, Note_on_c, 1, 58, 45
3, 46510, Note_on_c, 1, 58, 0
3, 46512, Note_on_c, 1, 63, 45
3, 46606, Note_on_c, 1, 63, 0
3, 46608, Note_on_c, 1, 55, 45
3, 46702, Note_on_c, 1, 55, 0
3, 46704, Note_on_c, 1, 58, 45
3, 46798, Note_on_c, 1, 58, 0
3, 46800, Note_on_c, 1, 63, 45
3, 46848, Note_on_c, 1, 51, 0
3, 46894, Note_on_c, 1, 63, 0
3, 46896, Note_on_c, 1, 51, 45
3, 46896, Note_on_c, 1, 51, 45
3, 46990, Note_on_c, 1, 51, 0
3, 46992, Note_on_c, 1, 56, 45
3, 47086, Note_on_c, 1, 56, 0
3, 47088, Note_on_c, 1, 60, 45
3, 47152, Note_on_c, 1, 51, 0
3, 47182, Note_on_c, 1, 60, 0
3, 47184, Note_on_c, 1, 51, 45
3, 47184, Note_on_c, 1, 51, 45
3, 47278, Note_on_c, 1, 51, 0
3, 47280, Note_on_c, 1, 53, 45
3, 47374, Note_on_c, 1, 53, 0
3, 47376, Note_on_c, 1, 56, 45
3, 47440, Note_on_c, 1, 51, 0
3, 47470, Note_on_c, 1, 56, 0
3, 47472, Note_on_c, 1, 51, 45
3, 47472, Note_on_c, 1, 55, 45
3, 47566, Note_on_c, 1, 55, 0
3, 47566, Note_on_c, 1, 51, 0
3, 47568, Note_on_c, 1, 58, 45
3, 47662, Note_on_c, 1, 58, 0
3, 47664, Note_on_c, 1, 51, 45
3, 47758, Note_on_c, 1, 51, 0
3, 48048, Note_on_c, 1, 38, 92
3, 48048, Note_on_c, 1, 46, 92
3, 48304, Note_on_c, 1, 46, 0
3, 48304, Note_on_c, 1, 38, 0
3, 48624, Note_on_c, 1, 39, 92
3, 48624, Note_on_c, 1, 46, 92
3, 48880, Note_on_c, 1, 46, 0
3, 48880, Note_on_c, 1, 39, 0
3, 49200, Note_on_c, 1, 44, 92
3, 49456, Note_on_c, 1, 44, 0
3, 49488, Note_on_c, 1, 43, 60
3, 49520, Note_on_c, 1, 43, 0
3, 49584, Note_on_c, 1, 41, 60
3, 49616, Note_on_c, 1, 41, 0
3, 49680, Note_on_c, 1, 39, 60
3, 49712, Note_on_c, 1, 39, 0
3, 49776, Note_on_c, 1, 46, 60
3, 50032, Note_on_c, 1, 46, 0
3, 50352, Note_on_c, 1, 62, 92
3, 50352, Note_on_c, 1, 65, 92
3, 50608, Note_on_c, 1, 65, 0
3, 50608, Note_on_c, 1, 62, 0
3, 50928, Note_on_c, 1, 63, 92
3, 50928, Note_on_c, 1, 67, 92
3, 51184, Note_on_c, 1, 67, 0
3, 51184, Note_on_c, 1, 63, 0
3, 51504, Note_on_c, 1, 68, 92
3, 51760, Note_on_c, 1, 68, 0
3, 51792, Note_on_c, 1, 67, 60
3, 51824, Note_on_c, 1, 67, 0
3, 51888, Note_on_c, 1, 65, 60
3, 51920, Note_on_c, 1, 65, 0
3, 51984, Note_on_c, 1, 63, 60
3, 52016, Note_on_c, 1, 63, 0
3, 52080, Note_on_c, 1, 70, 60
3, 52336, Note_on_c, 1, 70, 0
3, 52368, Note_on_c, 1, 55, 60
3, 52400, Note_on_c, 1, 55, 0
3, 52464, Note_on_c, 1, 53, 60
3, 52496, Note_on_c, 1, 53, 0
3, 52560, Note_on_c, 1, 51, 60
3, 52592, Note_on_c, 1, 51, 0
3, 52656, Note_on_c, 1, 46, 60
3, 52912, Note_on_c, 1, 46, 0
3, 52944, Note_on_c, 1, 67, 60
3, 52976, Note_on_c, 1, 67, 0
3, 53040, Note_on_c, 1, 65, 60
3, 53072, Note_on_c, 1, 65, 0
3, 53136, Note_on_c, 1, 63, 60
3, 53168, Note_on_c, 1, 63, 0
3, 53232, Note_on_c, 1, 70, 60
3, 53488, Note_on_c, 1, 70, 0
3, 53520, Note_on_c, 1, 67, 60
3, 53552, Note_on_c, 1, 67, 0
3, 53616, Note_on_c, 1, 65, 60
3, 53648, Note_on_c, 1, 65, 0
3, 53712, Note_on_c, 1, 63, 60
3, 53744, Note_on_c, 1, 63, 0
3, 53808, Note_on_c, 1, 58, 60
3, 53950, Note_on_c, 1, 58, 0
3, 53952, Note_on_c, 1, 67, 60
3, 53984, Note_on_c, 1, 67, 0
3, 54000, Note_on_c, 1, 65, 60
3, 54032, Note_on_c, 1, 65, 0
3, 54048, Note_on_c, 1, 63, 60
3, 54080, Note_on_c, 1, 63, 0
3, 54096, Note_on_c, 1, 70, 60
3, 54238, Note_on_c, 1, 70, 0
3, 54240, Note_on_c, 1, 67, 60
3, 54272, Note_on_c, 1, 67, 0
3, 54288, Note_on_c, 1, 65, 60
3, 54320, Note_on_c, 1, 65, 0
3, 54336, Note_on_c, 1, 63, 60
3, 54368, Note_on_c, 1, 63, 0
3, 54384, Note_on_c, 1, 58, 60
3, 54416, Note_on_c, 1, 58, 0
3, 54432, Note_on_c, 1, 67, 62
3, 54464, Note_on_c, 1, 67, 0
3, 54480, Note_on_c, 1, 65, 64
3, 54512, Note_on_c, 1, 65, 0
3, 54528, Note_on_c, 1, 63, 66
3, 54560, Note_on_c, 1, 63, 0
3, 54576, Note_on_c, 1, 58, 68
3, 54608, Note_on_c, 1, 58, 0
3, 54624, Note_on_c, 1, 67, 71
3, 54656, Note_on_c, 1, 67, 0
3, 54672, Note_on_c, 1, 65, 74
3, 54704, Note_on_c, 1, 65, 0
3, 54720, Note_on_c, 1, 63, 77
3, 54752, Note_on_c, 1, 63, 0
3, 54768, Note_on_c, 1, 58, 80
3, 54800, Note_on_c, 1, 58, 0
3, 54816, Note_on_c, 1, 67, 83
3, 54848, Note_on_c, 1, 67, 0
3, 54864, Note_on_c, 1, 65, 86
3, 54896, Note_on_c, 1, 65, 0
3, 54912, Note_on_c, 1, 63, 89
3, 54944, Note_on_c, 1, 63, 0
3, 54960, Note_on_c, 1, 58, 92
3, 55054, Note_on_c, 1, 58, 0
3, 55728, Note_on_c, 1, 53, 92
3, 55750, Note_on_c, 1, 53, 0
3, 55752, Note_on_c, 1, 51, 92
3, 55774, Note_on_c, 1, 51, 0
3, 55776, Note_on_c, 1, 50, 92
3, 55798, Note_on_c, 1, 50, 0
3, 55800, Note_on_c, 1, 48, 92
3, 55822, Note_on_c, 1, 48, 0
3, 55824, Note_on_c, 1, 46, 92
3, 55856, Note_on_c, 1, 46, 0
3, 57264, Note_on_c, 1, 51, 45
3, 57264, Note_on_c, 1, 55, 45
3, 57358, Note_on_c, 1, 55, 0
3, 57360, Note_on_c, 1, 58, 45
3, 57454, Note_on_c, 1, 58, 0
3, 57456, Note_on_c, 1, 63, 45
3, 57550, Note_on_c, 1, 63, 0
3, 57552, Note_on_c, 1, 53, 45
3, 57646, Note_on_c, 1, 53, 0
3, 57648, Note_on_c, 1, 56, 45
3, 57742, Note_on_c, 1, 56, 0
3, 57744, Note_on_c, 1, 63, 45
3, 57792, Note_on_c, 1, 51, 0
3, 57838, Note_on_c, 1, 63, 0
3, 57840, Note_on_c, 1, 51, 45
3, 57840, Note_on_c, 1, 55, 45
3, 57934, Note_on_c, 1, 55, 0
3, 57936, Note_on_c, 1, 58, 45
3, 58030, Note_on_c, 1, 58, 0
3, 58032, Note_on_c, 1, 63, 45
3, 58126, Note_on_c, 1, 63, 0
3, 58128, Note_on_c, 1, 55, 45
3, 58222, Note_on_c, 1, 55, 0
3, 58224, Note_on_c, 1, 58, 45
3, 58318, Note_on_c, 1, 58, 0
3, 58320, Note_on_c, 1, 63, 45
3, 58368, Note_on_c, 1, 51, 0
3, 58414, Note_on_c, 1, 63, 0
3, 58416, Note_on_c, 1, 51, 45
3, 58416, Note_on_c, 1, 51, 45
3, 58510, Note_on_c, 1, 51, 0
3, 58512, Note_on_c, 1, 56, 45
3, 58606, Note_on_c, 1, 56, 0
3, 58608, Note_on_c, 1, 60, 45
3, 58672, Note_on_c, 1, 51, 0
3, 58702, Note_on_c, 1, 60, 0
3, 58704, Note_on_c, 1, 51, 45
3, 58704, Note_on_c, 1, 51, 45
3, 58798, Note_on_c, 1, 51, 0
3, 58800, Note_on_c, 1, 53, 45
3, 58894, Note_on_c, 1, 53, 0
3, 58896, Note_on_c, 1, 56, 45
3, 58960, Note_on_c, 1, 51, 0
3, 58990, Note_on_c, 1, 56, 0
3, 58992, Note_on_c, 1, 51, 45
3, 58992, Note_on_c, 1, 51, 45
3, 59086, Note_on_c, 1, 51, 0
3, 59088, Note_on_c, 1, 55, 45
3, 59182, Note_on_c, 1, 55, 0
3, 59184, Note_on_c, 1, 58, 45
3, 59278, Note_on_c, 1, 58, 0
3, 59280, Note_on_c, 1, 55, 45
3, 59374, Note_on_c, 1, 55, 0
3, 59376, Note_on_c, 1, 58, 45
3, 59470, Note_on_c, 1, 58, 0
3, 59472, Note_on_c, 1, 63, 45
3, 59520, Note_on_c, 1, 51, 0
3, 59566, Note_on_c, 1, 63, 0
3, 59568, Note_on_c, 1, 51, 45
3, 59568, Note_on_c, 1, 51, 45
3, 59662, Note_on_c, 1, 51, 0
3, 59664, Note_on_c, 1, 58, 45
3, 59758, Note_on_c, 1, 58, 0
3, 59760, Note_on_c, 1, 63, 45
3, 59854, Note_on_c, 1, 63, 0
3, 59856, Note_on_c, 1, 53, 45
3, 59950, Note_on_c, 1, 53, 0
3, 59952, Note_on_c, 1, 56, 45
3, 60046, Note_on_c, 1, 56, 0
3, 60048, Note_on_c, 1, 63, 45
3, 60096, Note_on_c, 1, 51, 0
3, 60142, Note_on_c, 1, 63, 0
3, 60144, Note_on_c, 1, 51, 45
3, 60144, Note_on_c, 1, 51, 45
3, 60238, Note_on_c, 1, 51, 0
3, 60240, Note_on_c, 1, 58, 45
3, 60334, Note_on_c, 1, 58, 0
3, 60336, Note_on_c, 1, 63, 45
3, 60430, Note_on_c, 1, 63, 0
3, 60432, Note_on_c, 1, 55, 45
3, 60526, Note_on_c, 1, 55, 0
3, 60528, Note_on_c, 1, 58, 45
3, 60622, Note_on_c, 1, 58, 0
3, 60624, Note_on_c, 1, 63, 45
3, 60672, Note_on_c, 1, 51, 0
3, 60718, Note_on_c, 1, 63, 0
3, 60720, Note_on_c, 1, 51, 45
3, 60720, Note_on_c, 1, 51, 45
3, 60814, Note_on_c, 1, 51, 0
3, 60816, Note_on_c, 1, 56, 45
3, 60910, Note_on_c, 1, 56, 0
3, 60912, Note_on_c, 1, 60, 45
3, 60976, Note_on_c, 1, 51, 0
3, 61006, Note_on_c, 1, 60, 0
3, 61008, Note_on_c, 1, 51, 45
3, 61008, Note_on_c, 1, 51, 45
3, 61102, Note_on_c, 1, 51, 0
3, 61104, Note_on_c, 1, 53, 45
3, 61198, Note_on_c, 1, 53, 0
3, 61200, Note_on_c, 1, 56, 45
3, 61264, Note_on_c, 1, 51, 0
3, 61294, Note_on_c, 1, 56, 0
3, 61296, Note_on_c, 1, 51, 45
3, 61296, Note_on_c, 1, 55, 45
3, 61390, Note_on_c, 1, 55, 0
3, 61390, Note_on_c, 1, 51, 0
3, 61392, Note_on_c, 1, 58, 45
3, 61486, Note_on_c, 1, 58, 0
3, 61488, Note_on_c, 1, 51, 45
3, 61582, Note_on_c, 1, 51, 0
3, 61968, Note_on_c, 1, 56, 45
3, 61968, Note_on_c, 1, 58, 45
3, 61968, Note_on_c, 1, 62, 45
3, 61968, Note_on_c, 1, 65, 45
3, 62000, Note_on_c, 1, 65, 0
3, 62000, Note_on_c, 1, 56, 0
3, 62000, Note_on_c, 1, 58, 0
3, 62000, Note_on_c, 1, 62, 0
3, 62064, Note_on_c, 1, 56, 45
3, 62064, Note_on_c, 1, 58, 45
3, 62064, Note_on_c, 1, 62, 45
3, 62064, Note_on_c, 1, 65, 45
3, 62096, Note_on_c, 1, 65, 0
3, 62096, Note_on_c, 1, 56, 0
3, 62096, Note_on_c, 1, 58, 0
3, 62096, Note_on_c, 1, 62, 0
3, 62544, Note_on_c, 1, 55, 45
3, 62544, Note_on_c, 1, 58, 45
3, 62544, Note_on_c, 1, 63, 45
3, 62576, Note_on_c, 1, 63, 0
3, 62576, Note_on_c, 1, 58, 0
3, 62576, Note_on_c, 1, 55, 0
3, 62640, Note_on_c, 1, 55, 45
3, 62640, Note_on_c, 1, 58, 45
3, 62640, Note_on_c, 1, 63, 45
3, 62672, Note_on_c, 1, 63, 0
3, 62672, Note_on_c, 1, 58, 0
3, 62672, Note_on_c, 1, 55, 0
3, 63120, Note_on_c, 1, 44, 45
3, 63120, Note_on_c, 1, 48, 45
3, 63120, Note_on_c, 1, 53, 45
3, 63152, Note_on_c, 1, 53, 0
3, 63152, Note_on_c, 1, 48, 0
3, 63152, Note_on_c, 1, 44, 0
3, 63408, Note_on_c, 1, 46, 45
3, 63408, Note_on_c, 1, 53, 45
3, 63408, Note_on_c, 1, 56, 45
3, 63440, Note_on_c, 1, 56, 0
3, 63440, Note_on_c, 1, 53, 0
3, 63440, Note_on_c, 1, 46, 0
3, 63696, Note_on_c, 1, 51, 45
3, 63696, Note_on_c, 1, 55, 45
3, 63728, Note_on_c, 1, 55, 0
3, 63728, Note_on_c, 1, 51, 0
3, 63792, Note_on_c, 1, 65, 45
3, 63838, Note_on_c, 1, 65, 0
3, 63840, Note_on_c, 1, 67, 45
3, 63886, Note_on_c, 1, 67, 0
3, 63888, Note_on_c, 1, 68, 45
3, 63934, Note_on_c, 1, 68, 0
3, 63936, Note_on_c, 1, 67, 45
3, 63982, Note_on_c, 1, 67, 0
3, 63984, Note_on_c, 1, 65, 45
3, 64030, Note_on_c, 1, 65, 0
3, 64032, Note_on_c, 1, 63, 45
3, 64078, Note_on_c, 1, 63, 0
3, 64080, Note_on_c, 1, 62, 45
3, 64126, Note_on_c, 1, 62, 0
3, 64128, Note_on_c, 1, 60, 45
3, 64174, Note_on_c, 1, 60, 0
3, 64176, Note_on_c, 1, 58, 45
3, 64432, Note_on_c, 1, 58, 0
3, 64464, Note_on_c, 1, 57, 45
3, 64510, Note_on_c, 1, 57, 0
3, 64512, Note_on_c, 1, 58, 45
3, 64558, Note_on_c, 1, 58, 0
3, 64560, Note_on_c, 1, 59, 45
3, 64606, Note_on_c, 1, 59, 0
3, 64608, Note_on_c, 1, 60, 45
3, 64654, Note_on_c, 1, 60, 0
3, 64656, Note_on_c, 1, 61, 45
3, 64702, Note_on_c, 1, 61, 0
3, 64704, Note_on_c, 1, 62, 45
3, 64750, Note_on_c, 1, 62, 0
3, 64752, Note_on_c, 1, 63, 45
3, 65008, Note_on_c, 1, 63, 0
3, 65040, Note_on_c, 1, 63, 45
3, 65086, Note_on_c, 1, 63, 0
3, 65088, Note_on_c, 1, 62, 45
3, 65134, Note_on_c, 1, 62, 0
3, 65136, Note_on_c, 1, 60, 45
3, 65182, Note_on_c, 1, 60, 0
3, 65184, Note_on_c, 1, 58, 45
3, 65230, Note_on_c, 1, 58, 0
3, 65232, Note_on_c, 1, 56, 45
3, 65278, Note_on_c, 1, 56, 0
3, 65280, Note_on_c, 1, 55, 45
3, 65326, Note_on_c, 1, 55, 0
3, 65328, Note_on_c, 1, 44, 45
3, 65328, Note_on_c, 1, 53, 45
3, 65488, Note_on_c, 1, 53, 0
3, 65520, Note_on_c, 1, 56, 45
3, 65552, Note_on_c, 1, 56, 0
3, 65584, Note_on_c, 1, 44, 0
3, 65616, Note_on_c, 1, 46, 45
3, 65808, Note_on_c, 1, 46, 0
3, 65808, Note_on_c, 1, 50, 45
3, 65840, Note_on_c, 1, 50, 0
3, 65904, Note_on_c, 1, 39, 45
3, 65904, Note_on_c, 1, 51, 45
3, 66064, Note_on_c, 1, 51, 0
3, 66064, Note_on_c, 1, 39, 0
3, 66576, Note_on_c, 1, 56, 45
3, 66576, Note_on_c, 1, 60, 45
3, 66576, Note_on_c, 1, 65, 45
3, 66608, Note_on_c, 1, 65, 0
3, 66608, Note_on_c, 1, 60, 0
3, 66608, Note_on_c, 1, 56, 0
3, 66864, Note_on_c, 1, 58, 45
3, 66864, Note_on_c, 1, 65, 45
3, 66864, Note_on_c, 1, 68, 45
3, 66896, Note_on_c, 1, 68, 0
3, 66896, Note_on_c, 1, 65, 0
3, 66896, Note_on_c, 1, 58, 0
3, 67152, Note_on_c, 1, 63, 45
3, 67152, Note_on_c, 1, 67, 45
3, 67184, Note_on_c, 1, 67, 0
3, 67184, Note_on_c, 1, 63, 0
3, 67728, Note_on_c, 1, 44, 45
3, 67728, Note_on_c, 1, 48, 45
3, 67728, Note_on_c, 1, 53, 45
3, 67760, Note_on_c, 1, 53, 0
3, 67760, Note_on_c, 1, 48, 0
3, 67760, Note_on_c, 1, 44, 0
3, 68016, Note_on_c, 1, 46, 45
3, 68016, Note_on_c, 1, 53, 45
3, 68016, Note_on_c, 1, 56, 45
3, 68048, Note_on_c, 1, 56, 0
3, 68048, Note_on_c, 1, 53, 0
3, 68048, Note_on_c, 1, 46, 0
3, 68208, Note_on_c, 1, 51, 45
3, 68208, Note_on_c, 1, 55, 45
3, 68302, Note_on_c, 1, 55, 0
3, 68302, Note_on_c, 1, 51, 0
3, 68304, Note_on_c, 1, 46, 56
3, 68304, Note_on_c, 1, 58, 56
3, 68336, Note_on_c, 1, 58, 0
3, 68336, Note_on_c, 1, 46, 0
3, 68400, Note_on_c, 1, 46, 68
3, 68400, Note_on_c, 1, 58, 68
3, 68432, Note_on_c, 1, 58, 0
3, 68432, Note_on_c, 1, 46, 0
3, 68496, Note_on_c, 1, 46, 80
3, 68496, Note_on_c, 1, 58, 80
3, 68528, Note_on_c, 1, 58, 0
3, 68528, Note_on_c, 1, 46, 0
3, 68592, Note_on_c, 1, 46, 92
3, 68592, Note_on_c, 1, 53, 92
3, 68592, Note_on_c, 1, 56, 92
3, 68592, Note_on_c, 1, 58, 92
3, 68624, Note_on_c, 1, 58, 0
3, 68624, Note_on_c, 1, 46, 0
3, 68624, Note_on_c, 1, 53, 0
3, 68624, Note_on_c, 1, 56, 0
3, 68688, Note_on_c, 1, 46, 92
3, 68688, Note_on_c, 1, 53, 92
3, 68688, Note_on_c, 1, 56, 92
3, 68688, Note_on_c, 1, 58, 92
3, 68720, Note_on_c, 1, 58, 0
3, 68720, Note_on_c, 1, 46, 0
3, 68720, Note_on_c, 1, 53, 0
3, 68720, Note_on_c, 1, 56, 0
3, 68784, Note_on_c, 1, 39, 92
3, 68784, Note_on_c, 1, 51, 92
3, 68816, Note_on_c, 1, 51, 0
3, 68816, Note_on_c, 1, 39, 0
3, 68816, End_track
4, 0, Start_track
4, 0, End_track
0, 0, End_of_file