0, 0, Header, 1, 18, 480
1, 0, Start_track
1, 0, Title_t, "untitled"
1, 0, Time_signature, 4, 1, 48, 8
1, 0, Key_signature, 0, "major"
1, 0, Tempo, 750000
1, 3840, Time_signature, 3, 1, 48, 8
1, 9600, Time_signature, 5, 1, 48, 8
1, 14400, Time_signature, 3, 1, 48, 8
1, 48960, Time_signature, 4, 3, 12, 8
1, 48960, Tempo, 394737
1, 77760, Tempo, 441176
1, 79680, Tempo, 394737
1, 189120, Tempo, 441176
1, 191040, Tempo, 394737
1, 296640, Tempo, 441176
1, 303360, Tempo, 476190
1, 303360, End_track
2, 0, Start_track
2, 0, Title_t, "Flutes"
2, 0, Program_c, 0, 73
2, 0, Control_c, 0, 7, 90
2, 0, Control_c, 0, 10, 40
2, 0, Control_c, 0, 10, 54
2, 960, Note_on_c, 0, 76, 64
2, 960, Note_on_c, 0, 84, 64
2, 1094, Note_on_c, 0, 84, 0
2, 1096, Note_on_c, 0, 76, 0
2, 3840, Note_on_c, 0, 77, 64
2, 3840, Note_on_c, 0, 84, 64
2, 4002, Note_on_c, 0, 77, 0
2, 4022, Note_on_c, 0, 84, 0
2, 6720, Note_on_c, 0, 84, 64
2, 6872, Note_on_c, 0, 84, 0
2, 7680, Note_on_c, 0, 84, 64
2, 7680, Note_on_c, 0, 90, 64
2, 7806, Note_on_c, 0, 84, 0
2, 7826, Note_on_c, 0, 90, 0
2, 8640, Note_on_c, 0, 90, 64
2, 8640, Note_on_c, 0, 84, 64
2, 8790, Note_on_c, 0, 84, 0
2, 8794, Note_on_c, 0, 90, 0
2, 9600, Note_on_c, 0, 83, 64
2, 9600, Note_on_c, 0, 91, 64
2, 9784, Note_on_c, 0, 83, 0
2, 9786, Note_on_c, 0, 91, 0
2, 10440, Note_on_c, 0, 79, 64
2, 10512, Note_on_c, 0, 79, 0
2, 10560, Note_on_c, 0, 79, 64
2, 12840, Note_on_c, 0, 79, 0
2, 37440, Note_on_c, 0, 88, 64
2, 37440, Note_on_c, 0, 84, 64
2, 38400, Note_on_c, 0, 84, 0
2, 38400, Note_on_c, 0, 88, 0
2, 38400, Note_on_c, 0, 91, 64
2, 38400, Note_on_c, 0, 88, 64
2, 39840, Note_on_c, 0, 88, 0
2, 39840, Note_on_c, 0, 86, 64
2, 39840, Note_on_c, 0, 89, 64
2, 39874, Note_on_c, 0, 91, 0
2, 40310, Note_on_c, 0, 86, 0
2, 40318, Note_on_c, 0, 89, 0
2, 40320, Note_on_c, 0, 84, 64
2, 40320, Note_on_c, 0, 88, 64
2, 41160, Note_on_c, 0, 88, 0
2, 41160, Note_on_c, 0, 84, 0
2, 41160, Note_on_c, 0, 91, 64
2, 41160, Note_on_c, 0, 88, 64
2, 41280, Note_on_c, 0, 88, 0
2, 41280, Note_on_c, 0, 91, 0
2, 41280, Note_on_c, 0, 88, 64
2, 41280, Note_on_c, 0, 91, 64
2, 42720, Note_on_c, 0, 88, 0
2, 42720, Note_on_c, 0, 89, 64
2, 42720, Note_on_c, 0, 86, 64
2, 42726, Note_on_c, 0, 91, 0
2, 43200, Note_on_c, 0, 84, 64
2, 43200, Note_on_c, 0, 88, 64
2, 43220, Note_on_c, 0, 86, 0
2, 43278, Note_on_c, 0, 89, 0
2, 43680, Note_on_c, 0, 84, 0
2, 43702, Note_on_c, 0, 88, 0
2, 45120, Note_on_c, 0, 84, 64
2, 45120, Note_on_c, 0, 87, 64
2, 46080, Note_on_c, 0, 88, 45
2, 46166, Note_on_c, 0, 87, 0
2, 48000, Note_on_c, 0, 86, 45
2, 48000, Note_on_c, 0, 89, 45
2, 48042, Note_on_c, 0, 84, 0
2, 48052, Note_on_c, 0, 88, 0
2, 48720, Note_on_c, 0, 86, 0
2, 48720, Note_on_c, 0, 89, 0
2, 48720, Note_on_c, 0, 83, 45
2, 48720, Note_on_c, 0, 86, 45
2, 48960, Note_on_c, 0, 86, 0
2, 48960, Note_on_c, 0, 83, 0
2, 48960, Control_c, 0, 7, 90
2, 48960, Note_on_c, 0, 84, 60
2, 49186, Note_on_c, 0, 84, 0
2, 60480, Note_on_c, 0, 84, 64
2, 60480, Note_on_c, 0, 79, 64
2, 62446, Note_on_c, 0, 79, 0
2, 62466, Note_on_c, 0, 84, 0
2, 62880, Note_on_c, 0, 84, 64
2, 62880, Note_on_c, 0, 79, 64
2, 62950, Note_on_c, 0, 84, 0
2, 62962, Note_on_c, 0, 79, 0
2, 63360, Note_on_c, 0, 84, 64
2, 63360, Note_on_c, 0, 79, 64
2, 63440, Note_on_c, 0, 79, 0
2, 63442, Note_on_c, 0, 84, 0
2, 64320, Note_on_c, 0, 86, 64
2, 64320, Note_on_c, 0, 81, 64
2, 66152, Note_on_c, 0, 81, 0
2, 66240, Note_on_c, 0, 79, 64
2, 66320, Note_on_c, 0, 79, 0
2, 66350, Note_on_c, 0, 86, 0
2, 66720, Note_on_c, 0, 86, 64
2, 66720, Note_on_c, 0, 79, 64
2, 66792, Note_on_c, 0, 86, 0
2, 66806, Note_on_c, 0, 79, 0
2, 67200, Note_on_c, 0, 79, 64
2, 67200, Note_on_c, 0, 86, 64
2, 67280, Note_on_c, 0, 86, 0
2, 67282, Note_on_c, 0, 79, 0
2, 68160, Note_on_c, 0, 88, 64
2, 68160, Note_on_c, 0, 79, 64
2, 68212, Note_on_c, 0, 88, 0
2, 68222, Note_on_c, 0, 79, 0
2, 68400, Note_on_c, 0, 88, 64
2, 68400, Note_on_c, 0, 79, 64
2, 68802, Note_on_c, 0, 88, 0
2, 68822, Note_on_c, 0, 79, 0
2, 68880, Note_on_c, 0, 79, 64
2, 68880, Note_on_c, 0, 86, 64
2, 68942, Note_on_c, 0, 86, 0
2, 68942, Note_on_c, 0, 79, 0
2, 69120, Note_on_c, 0, 88, 64
2, 69120, Note_on_c, 0, 76, 64
2, 69176, Note_on_c, 0, 88, 0
2, 69184, Note_on_c, 0, 76, 0
2, 69360, Note_on_c, 0, 76, 64
2, 69360, Note_on_c, 0, 84, 64
2, 69760, Note_on_c, 0, 76, 0
2, 69776, Note_on_c, 0, 84, 0
2, 69840, Note_on_c, 0, 83, 64
2, 69840, Note_on_c, 0, 76, 64
2, 69906, Note_on_c, 0, 83, 0
2, 69912, Note_on_c, 0, 76, 0
2, 70080, Note_on_c, 0, 72, 64
2, 70080, Note_on_c, 0, 84, 64
2, 70146, Note_on_c, 0, 72, 0
2, 70152, Note_on_c, 0, 84, 0
2, 70320, Note_on_c, 0, 72, 64
2, 70320, Note_on_c, 0, 81, 64
2, 70690, Note_on_c, 0, 72, 0
2, 70734, Note_on_c, 0, 81, 0
2, 70800, Note_on_c, 0, 72, 64
2, 70800, Note_on_c, 0, 82, 64
2, 70854, Note_on_c, 0, 72, 0
2, 70856, Note_on_c, 0, 82, 0
2, 71040, Note_on_c, 0, 72, 64
2, 71040, Note_on_c, 0, 81, 64
2, 71102, Note_on_c, 0, 81, 0
2, 71106, Note_on_c, 0, 72, 0
2, 71280, Note_on_c, 0, 89, 64
2, 71280, Note_on_c, 0, 81, 64
2, 71280, Note_on_c, 0, 88, 64
2, 71312, Note_on_c, 0, 89, 0
2, 71322, Note_on_c, 0, 81, 0
2, 71326, Note_on_c, 0, 88, 0
2, 71520, Note_on_c, 0, 77, 64
2, 71520, Note_on_c, 0, 86, 64
2, 71566, Note_on_c, 0, 77, 0
2, 71570, Note_on_c, 0, 86, 0
2, 71760, Note_on_c, 0, 76, 64
2, 71760, Note_on_c, 0, 84, 64
2, 71816, Note_on_c, 0, 76, 0
2, 71824, Note_on_c, 0, 84, 0
2, 72000, Note_on_c, 0, 74, 64
2, 72000, Note_on_c, 0, 83, 64
2, 72046, Note_on_c, 0, 74, 0
2, 72050, Note_on_c, 0, 83, 0
2, 74160, Note_on_c, 0, 86, 64
2, 74160, Note_on_c, 0, 83, 64
2, 74564, Note_on_c, 0, 83, 0
2, 74584, Note_on_c, 0, 86, 0
2, 74640, Note_on_c, 0, 86, 64
2, 74640, Note_on_c, 0, 83, 64
2, 74706, Note_on_c, 0, 86, 0
2, 74712, Note_on_c, 0, 83, 0
2, 74880, Note_on_c, 0, 88, 64
2, 74880, Note_on_c, 0, 84, 64
2, 74932, Note_on_c, 0, 84, 0
2, 74936, Note_on_c, 0, 88, 0
2, 75120, Note_on_c, 0, 84, 64
2, 75120, Note_on_c, 0, 88, 64
2, 75526, Note_on_c, 0, 88, 0
2, 75534, Note_on_c, 0, 84, 0
2, 75600, Note_on_c, 0, 88, 64
2, 75600, Note_on_c, 0, 84, 64
2, 75672, Note_on_c, 0, 88, 0
2, 75674, Note_on_c, 0, 84, 0
2, 75840, Note_on_c, 0, 86, 64
2, 75840, Note_on_c, 0, 83, 64
2, 75890, Note_on_c, 0, 86, 0
2, 75906, Note_on_c, 0, 83, 0
2, 76080, Note_on_c, 0, 86, 64
2, 76080, Note_on_c, 0, 84, 64
2, 76142, Note_on_c, 0, 86, 0
2, 76144, Note_on_c, 0, 84, 0
2, 76320, Note_on_c, 0, 86, 64
2, 76320, Note_on_c, 0, 83, 64
2, 76382, Note_on_c, 0, 86, 0
2, 76390, Note_on_c, 0, 83, 0
2, 76560, Note_on_c, 0, 84, 64
2, 76560, Note_on_c, 0, 86, 64
2, 76620, Note_on_c, 0, 86, 0
2, 76620, Note_on_c, 0, 84, 0
2, 76800, Note_on_c, 0, 86, 64
2, 76800, Note_on_c, 0, 83, 64
2, 76852, Note_on_c, 0, 86, 0
2, 76874, Note_on_c, 0, 83, 0
2, 77040, Note_on_c, 0, 86, 64
2, 77040, Note_on_c, 0, 84, 64
2, 77092, Note_on_c, 0, 86, 0
2, 77104, Note_on_c, 0, 84, 0
2, 77280, Note_on_c, 0, 86, 64
2, 77280, Note_on_c, 0, 83, 64
2, 77334, Note_on_c, 0, 86, 0
2, 77346, Note_on_c, 0, 83, 0
2, 77520, Note_on_c, 0, 86, 64
2, 77520, Note_on_c, 0, 84, 64
2, 77582, Note_on_c, 0, 86, 0
2, 77586, Note_on_c, 0, 84, 0
2, 77760, Note_on_c, 0, 83, 64
2, 77760, Note_on_c, 0, 86, 64
2, 77816, Note_on_c, 0, 86, 0
2, 77826, Note_on_c, 0, 83, 0
2, 78240, Note_on_c, 0, 91, 64
2, 78240, Note_on_c, 0, 83, 64
2, 78290, Note_on_c, 0, 91, 0
2, 78310, Note_on_c, 0, 83, 0
2, 78720, Note_on_c, 0, 79, 64
2, 78786, Note_on_c, 0, 79, 0
2, 79920, Note_on_c, 0, 74, 64
2, 79920, Note_on_c, 0, 71, 64
2, 79966, Note_on_c, 0, 74, 0
2, 79972, Note_on_c, 0, 71, 0
2, 80160, Note_on_c, 0, 74, 64
2, 80160, Note_on_c, 0, 79, 64
2, 80206, Note_on_c, 0, 74, 0
2, 80210, Note_on_c, 0, 79, 0
2, 80400, Note_on_c, 0, 83, 64
2, 80400, Note_on_c, 0, 79, 64
2, 80450, Note_on_c, 0, 79, 0
2, 80450, Note_on_c, 0, 83, 0
2, 80640, Note_on_c, 0, 86, 64
2, 80640, Note_on_c, 0, 83, 64
2, 81614, Note_on_c, 0, 86, 0
2, 81630, Note_on_c, 0, 83, 0
2, 81840, Note_on_c, 0, 83, 64
2, 81840, Note_on_c, 0, 86, 64
2, 82194, Note_on_c, 0, 83, 0
2, 82244, Note_on_c, 0, 86, 0
2, 82320, Note_on_c, 0, 84, 64
2, 82320, Note_on_c, 0, 81, 64
2, 82660, Note_on_c, 0, 84, 0
2, 82694, Note_on_c, 0, 81, 0
2, 82800, Note_on_c, 0, 83, 64
2, 82800, Note_on_c, 0, 79, 64
2, 83136, Note_on_c, 0, 83, 0
2, 83170, Note_on_c, 0, 79, 0
2, 83280, Note_on_c, 0, 84, 64
2, 83280, Note_on_c, 0, 81, 64
2, 83334, Note_on_c, 0, 84, 0
2, 83340, Note_on_c, 0, 81, 0
2, 83520, Note_on_c, 0, 81, 64
2, 83520, Note_on_c, 0, 78, 64
2, 83566, Note_on_c, 0, 81, 0
2, 83570, Note_on_c, 0, 78, 0
2, 83760, Note_on_c, 0, 78, 64
2, 83760, Note_on_c, 0, 74, 64
2, 83804, Note_on_c, 0, 78, 0
2, 83820, Note_on_c, 0, 74, 0
2, 84000, Note_on_c, 0, 81, 64
2, 84000, Note_on_c, 0, 78, 64
2, 84054, Note_on_c, 0, 81, 0
2, 84062, Note_on_c, 0, 78, 0
2, 84240, Note_on_c, 0, 84, 64
2, 84240, Note_on_c, 0, 81, 64
2, 84292, Note_on_c, 0, 81, 0
2, 84296, Note_on_c, 0, 84, 0
2, 84480, Note_on_c, 0, 88, 64
2, 84480, Note_on_c, 0, 84, 64
2, 85516, Note_on_c, 0, 88, 0
2, 85556, Note_on_c, 0, 84, 0
2, 85680, Note_on_c, 0, 83, 64
2, 85680, Note_on_c, 0, 86, 64
2, 85954, Note_on_c, 0, 83, 0
2, 85972, Note_on_c, 0, 86, 0
2, 86160, Note_on_c, 0, 84, 64
2, 86160, Note_on_c, 0, 81, 64
2, 86496, Note_on_c, 0, 84, 0
2, 86502, Note_on_c, 0, 81, 0
2, 86640, Note_on_c, 0, 83, 64
2, 86640, Note_on_c, 0, 79, 64
2, 86956, Note_on_c, 0, 83, 0
2, 86980, Note_on_c, 0, 79, 0
2, 87120, Note_on_c, 0, 78, 64
2, 87120, Note_on_c, 0, 81, 64
2, 87174, Note_on_c, 0, 78, 0
2, 87180, Note_on_c, 0, 81, 0
2, 87360, Note_on_c, 0, 83, 64
2, 87360, Note_on_c, 0, 79, 64
2, 87414, Note_on_c, 0, 83, 0
2, 87420, Note_on_c, 0, 79, 0
2, 88080, Note_on_c, 0, 74, 64
2, 88080, Note_on_c, 0, 71, 64
2, 88130, Note_on_c, 0, 74, 0
2, 88134, Note_on_c, 0, 71, 0
2, 88320, Note_on_c, 0, 74, 64
2, 88320, Note_on_c, 0, 79, 64
2, 88364, Note_on_c, 0, 74, 0
2, 88370, Note_on_c, 0, 79, 0
2, 88560, Note_on_c, 0, 79, 64
2, 88560, Note_on_c, 0, 83, 64
2, 88606, Note_on_c, 0, 83, 0
2, 88606, Note_on_c, 0, 79, 0
2, 88800, Note_on_c, 0, 79, 64
2, 88800, Note_on_c, 0, 86, 64
2, 88852, Note_on_c, 0, 79, 0
2, 89040, Note_on_c, 0, 83, 64
2, 89096, Note_on_c, 0, 83, 0
2, 89354, Note_on_c, 0, 86, 0
2, 89520, Note_on_c, 0, 86, 64
2, 89520, Note_on_c, 0, 83, 64
2, 89582, Note_on_c, 0, 86, 0
2, 89586, Note_on_c, 0, 83, 0
2, 90000, Note_on_c, 0, 84, 64
2, 90000, Note_on_c, 0, 81, 64
2, 90060, Note_on_c, 0, 84, 0
2, 90066, Note_on_c, 0, 81, 0
2, 90480, Note_on_c, 0, 83, 64
2, 90480, Note_on_c, 0, 79, 64
2, 90542, Note_on_c, 0, 83, 0
2, 90546, Note_on_c, 0, 79, 0
2, 90960, Note_on_c, 0, 81, 64
2, 90960, Note_on_c, 0, 84, 64
2, 91016, Note_on_c, 0, 81, 0
2, 91020, Note_on_c, 0, 84, 0
2, 91200, Note_on_c, 0, 78, 64
2, 91200, Note_on_c, 0, 81, 64
2, 91250, Note_on_c, 0, 81, 0
2, 91250, Note_on_c, 0, 78, 0
2, 91920, Note_on_c, 0, 78, 64
2, 91974, Note_on_c, 0, 78, 0
2, 92160, Note_on_c, 0, 81, 64
2, 92160, Note_on_c, 0, 84, 64
2, 92210, Note_on_c, 0, 84, 0
2, 92214, Note_on_c, 0, 81, 0
2, 92400, Note_on_c, 0, 84, 64
2, 92400, Note_on_c, 0, 88, 64
2, 93226, Note_on_c, 0, 84, 0
2, 93262, Note_on_c, 0, 88, 0
2, 93360, Note_on_c, 0, 86, 64
2, 93360, Note_on_c, 0, 83, 64
2, 93410, Note_on_c, 0, 86, 0
2, 93420, Note_on_c, 0, 83, 0
2, 93840, Note_on_c, 0, 81, 64
2, 93840, Note_on_c, 0, 84, 64
2, 93894, Note_on_c, 0, 81, 0
2, 93900, Note_on_c, 0, 84, 0
2, 94320, Note_on_c, 0, 79, 64
2, 94320, Note_on_c, 0, 83, 64
2, 94374, Note_on_c, 0, 79, 0
2, 94382, Note_on_c, 0, 83, 0
2, 94800, Note_on_c, 0, 81, 64
2, 94800, Note_on_c, 0, 78, 64
2, 94852, Note_on_c, 0, 81, 0
2, 94860, Note_on_c, 0, 78, 0
2, 95040, Note_on_c, 0, 79, 64
2, 95096, Note_on_c, 0, 79, 0
2, 96240, Note_on_c, 0, 74, 64
2, 96292, Note_on_c, 0, 74, 0
2, 96480, Note_on_c, 0, 79, 64
2, 96530, Note_on_c, 0, 79, 0
2, 96720, Note_on_c, 0, 83, 64
2, 96774, Note_on_c, 0, 83, 0
2, 96960, Note_on_c, 0, 84, 64
2, 97054, Note_on_c, 0, 84, 0
2, 98640, Note_on_c, 0, 78, 64
2, 98640, Note_on_c, 0, 90, 64
2, 98880, Note_on_c, 0, 79, 64
2, 98880, Note_on_c, 0, 91, 64
2, 98902, Note_on_c, 0, 78, 0
2, 98904, Note_on_c, 0, 90, 0
2, 98926, Note_on_c, 0, 91, 0
2, 98952, Note_on_c, 0, 79, 0
2, 100080, Note_on_c, 0, 74, 64
2, 100132, Note_on_c, 0, 74, 0
2, 100320, Note_on_c, 0, 79, 64
2, 100374, Note_on_c, 0, 79, 0
2, 100560, Note_on_c, 0, 83, 64
2, 100604, Note_on_c, 0, 83, 0
2, 100800, Note_on_c, 0, 84, 64
2, 100856, Note_on_c, 0, 84, 0
2, 102480, Note_on_c, 0, 78, 64
2, 102480, Note_on_c, 0, 90, 64
2, 102720, Note_on_c, 0, 79, 64
2, 102720, Note_on_c, 0, 91, 64
2, 102730, Note_on_c, 0, 78, 0
2, 102734, Note_on_c, 0, 90, 0
2, 102786, Note_on_c, 0, 91, 0
2, 102804, Note_on_c, 0, 79, 0
2, 110400, Note_on_c, 0, 91, 64
2, 110400, Note_on_c, 0, 89, 64
2, 112246, Note_on_c, 0, 89, 0
2, 112320, Note_on_c, 0, 87, 64
2, 112354, Note_on_c, 0, 91, 0
2, 112402, Note_on_c, 0, 87, 0
2, 112800, Note_on_c, 0, 86, 64
2, 113040, Note_on_c, 0, 89, 64
2, 113072, Note_on_c, 0, 86, 0
2, 113094, Note_on_c, 0, 89, 0
2, 113280, Note_on_c, 0, 84, 64
2, 113520, Note_on_c, 0, 87, 64
2, 113522, Note_on_c, 0, 84, 0
2, 113574, Note_on_c, 0, 87, 0
2, 113760, Note_on_c, 0, 83, 64
2, 114000, Note_on_c, 0, 86, 64
2, 114002, Note_on_c, 0, 83, 0
2, 114052, Note_on_c, 0, 86, 0
2, 114240, Note_on_c, 0, 84, 64
2, 114240, Note_on_c, 0, 86, 64
2, 116072, Note_on_c, 0, 84, 0
2, 116160, Note_on_c, 0, 82, 64
2, 116196, Note_on_c, 0, 86, 0
2, 116240, Note_on_c, 0, 82, 0
2, 118800, Note_on_c, 0, 81, 64
2, 118870, Note_on_c, 0, 81, 0
2, 119040, Note_on_c, 0, 83, 64
2, 119114, Note_on_c, 0, 83, 0
2, 119760, Note_on_c, 0, 86, 64
2, 119830, Note_on_c, 0, 86, 0
2, 120000, Note_on_c, 0, 83, 64
2, 120000, Note_on_c, 0, 86, 64
2, 120056, Note_on_c, 0, 83, 0
2, 120062, Note_on_c, 0, 86, 0
2, 120720, Note_on_c, 0, 83, 64
2, 120786, Note_on_c, 0, 83, 0
2, 120960, Note_on_c, 0, 84, 64
2, 121046, Note_on_c, 0, 84, 0
2, 122640, Note_on_c, 0, 85, 64
2, 122704, Note_on_c, 0, 85, 0
2, 122880, Note_on_c, 0, 86, 64
2, 122950, Note_on_c, 0, 86, 0
2, 123600, Note_on_c, 0, 90, 64
2, 123600, Note_on_c, 0, 85, 64
2, 123634, Note_on_c, 0, 90, 0
2, 123640, Note_on_c, 0, 85, 0
2, 123840, Note_on_c, 0, 86, 64
2, 123840, Note_on_c, 0, 90, 64
2, 123872, Note_on_c, 0, 86, 0
2, 123896, Note_on_c, 0, 90, 0
2, 124560, Note_on_c, 0, 85, 64
2, 124624, Note_on_c, 0, 85, 0
2, 124800, Note_on_c, 0, 86, 64
2, 124872, Note_on_c, 0, 86, 0
2, 125520, Note_on_c, 0, 87, 64
2, 125596, Note_on_c, 0, 87, 0
2, 125760, Note_on_c, 0, 88, 64
2, 125846, Note_on_c, 0, 88, 0
2, 127920, Note_on_c, 0, 78, 64
2, 127986, Note_on_c, 0, 78, 0
2, 128160, Note_on_c, 0, 79, 64
2, 128230, Note_on_c, 0, 79, 0
2, 128400, Note_on_c, 0, 81, 64
2, 128472, Note_on_c, 0, 81, 0
2, 128640, Note_on_c, 0, 83, 64
2, 128720, Note_on_c, 0, 83, 0
2, 128880, Note_on_c, 0, 81, 64
2, 128952, Note_on_c, 0, 81, 0
2, 129120, Note_on_c, 0, 83, 64
2, 129196, Note_on_c, 0, 83, 0
2, 129360, Note_on_c, 0, 84, 64
2, 129442, Note_on_c, 0, 84, 0
2, 129600, Note_on_c, 0, 86, 64
2, 129736, Note_on_c, 0, 86, 0
2, 135360, Note_on_c, 0, 86, 64
2, 135360, Note_on_c, 0, 83, 64
2, 136902, Note_on_c, 0, 86, 0
2, 136912, Note_on_c, 0, 83, 0
2, 137040, Note_on_c, 0, 90, 64
2, 137040, Note_on_c, 0, 84, 64
2, 137134, Note_on_c, 0, 90, 0
2, 137160, Note_on_c, 0, 84, 0
2, 137280, Note_on_c, 0, 91, 64
2, 137280, Note_on_c, 0, 83, 64
2, 138740, Note_on_c, 0, 91, 0
2, 138772, Note_on_c, 0, 83, 0
2, 138960, Note_on_c, 0, 87, 64
2, 138960, Note_on_c, 0, 81, 64
2, 139022, Note_on_c, 0, 87, 0
2, 139042, Note_on_c, 0, 81, 0
2, 139200, Note_on_c, 0, 79, 64
2, 139200, Note_on_c, 0, 88, 64
2, 139554, Note_on_c, 0, 79, 0
2, 139604, Note_on_c, 0, 88, 0
2, 139680, Note_on_c, 0, 84, 64
2, 139680, Note_on_c, 0, 93, 64
2, 140062, Note_on_c, 0, 93, 0
2, 140064, Note_on_c, 0, 84, 0
2, 140160, Note_on_c, 0, 91, 64
2, 140160, Note_on_c, 0, 83, 64
2, 140542, Note_on_c, 0, 83, 0
2, 140550, Note_on_c, 0, 91, 0
2, 140640, Note_on_c, 0, 90, 64
2, 140640, Note_on_c, 0, 81, 64
2, 140972, Note_on_c, 0, 90, 0
2, 140996, Note_on_c, 0, 81, 0
2, 141120, Note_on_c, 0, 83, 64
2, 141120, Note_on_c, 0, 91, 64
2, 141186, Note_on_c, 0, 91, 0
2, 141226, Note_on_c, 0, 83, 0
2, 143040, Note_on_c, 0, 78, 64
2, 143094, Note_on_c, 0, 78, 0
2, 143280, Note_on_c, 0, 87, 64
2, 143614, Note_on_c, 0, 87, 0
2, 143760, Note_on_c, 0, 87, 64
2, 143832, Note_on_c, 0, 87, 0
2, 144000, Note_on_c, 0, 86, 64
2, 144066, Note_on_c, 0, 86, 0
2, 144240, Note_on_c, 0, 84, 64
2, 144300, Note_on_c, 0, 84, 0
2, 144480, Note_on_c, 0, 83, 64
2, 144542, Note_on_c, 0, 83, 0
2, 144720, Note_on_c, 0, 81, 64
2, 144782, Note_on_c, 0, 81, 0
2, 144960, Note_on_c, 0, 79, 64
2, 145020, Note_on_c, 0, 79, 0
2, 146880, Note_on_c, 0, 78, 64
2, 146936, Note_on_c, 0, 78, 0
2, 147120, Note_on_c, 0, 87, 64
2, 147444, Note_on_c, 0, 87, 0
2, 147600, Note_on_c, 0, 87, 64
2, 147664, Note_on_c, 0, 87, 0
2, 147840, Note_on_c, 0, 86, 64
2, 147904, Note_on_c, 0, 86, 0
2, 148080, Note_on_c, 0, 84, 64
2, 148134, Note_on_c, 0, 84, 0
2, 148320, Note_on_c, 0, 83, 64
2, 148374, Note_on_c, 0, 83, 0
2, 148560, Note_on_c, 0, 81, 64
2, 148622, Note_on_c, 0, 81, 0
2, 148800, Note_on_c, 0, 80, 64
2, 148864, Note_on_c, 0, 80, 0
2, 149040, Note_on_c, 0, 89, 64
2, 149414, Note_on_c, 0, 89, 0
2, 149520, Note_on_c, 0, 89, 64
2, 149584, Note_on_c, 0, 89, 0
2, 149760, Note_on_c, 0, 88, 64
2, 149826, Note_on_c, 0, 88, 0
2, 150000, Note_on_c, 0, 86, 64
2, 150060, Note_on_c, 0, 86, 0
2, 150240, Note_on_c, 0, 84, 64
2, 150292, Note_on_c, 0, 84, 0
2, 150480, Note_on_c, 0, 83, 64
2, 150532, Note_on_c, 0, 83, 0
2, 150720, Note_on_c, 0, 82, 64
2, 150786, Note_on_c, 0, 82, 0
2, 150960, Note_on_c, 0, 91, 64
2, 151310, Note_on_c, 0, 91, 0
2, 151440, Note_on_c, 0, 91, 64
2, 151502, Note_on_c, 0, 91, 0
2, 151680, Note_on_c, 0, 89, 64
2, 151742, Note_on_c, 0, 89, 0
2, 151920, Note_on_c, 0, 88, 64
2, 151976, Note_on_c, 0, 88, 0
2, 152160, Note_on_c, 0, 86, 64
2, 152216, Note_on_c, 0, 86, 0
2, 152400, Note_on_c, 0, 84, 64
2, 152452, Note_on_c, 0, 84, 0
2, 152640, Note_on_c, 0, 83, 64
2, 152694, Note_on_c, 0, 83, 0
2, 152880, Note_on_c, 0, 93, 48
2, 153232, Note_on_c, 0, 93, 0
2, 153360, Note_on_c, 0, 91, 48
2, 153416, Note_on_c, 0, 91, 0
2, 153600, Note_on_c, 0, 89, 48
2, 153654, Note_on_c, 0, 89, 0
2, 153840, Note_on_c, 0, 88, 48
2, 153902, Note_on_c, 0, 88, 0
2, 154080, Note_on_c, 0, 86, 48
2, 154136, Note_on_c, 0, 86, 0
2, 154320, Note_on_c, 0, 84, 48
2, 154380, Note_on_c, 0, 84, 0
2, 154560, Note_on_c, 0, 83, 48
2, 154616, Note_on_c, 0, 83, 0
2, 154800, Note_on_c, 0, 81, 48
2, 154854, Note_on_c, 0, 81, 0
2, 155040, Note_on_c, 0, 79, 48
2, 155084, Note_on_c, 0, 79, 0
2, 155280, Note_on_c, 0, 78, 48
2, 155326, Note_on_c, 0, 78, 0
2, 155520, Note_on_c, 0, 79, 48
2, 155570, Note_on_c, 0, 79, 0
2, 155760, Note_on_c, 0, 81, 48
2, 155806, Note_on_c, 0, 81, 0
2, 156000, Note_on_c, 0, 83, 48
2, 156060, Note_on_c, 0, 83, 0
2, 156240, Note_on_c, 0, 84, 48
2, 156306, Note_on_c, 0, 84, 0
2, 156480, Note_on_c, 0, 86, 64
2, 156554, Note_on_c, 0, 86, 0
2, 156720, Note_on_c, 0, 84, 64
2, 156786, Note_on_c, 0, 84, 0
2, 156960, Note_on_c, 0, 83, 64
2, 157020, Note_on_c, 0, 83, 0
2, 157200, Note_on_c, 0, 81, 64
2, 157260, Note_on_c, 0, 81, 0
2, 157440, Note_on_c, 0, 79, 64
2, 157506, Note_on_c, 0, 79, 0
2, 157680, Note_on_c, 0, 81, 64
2, 157746, Note_on_c, 0, 81, 0
2, 157920, Note_on_c, 0, 83, 64
2, 157976, Note_on_c, 0, 83, 0
2, 158160, Note_on_c, 0, 84, 64
2, 158220, Note_on_c, 0, 84, 0
2, 158400, Note_on_c, 0, 86, 64
2, 158472, Note_on_c, 0, 86, 0
2, 158640, Note_on_c, 0, 84, 64
2, 158700, Note_on_c, 0, 84, 0
2, 158880, Note_on_c, 0, 83, 64
2, 158950, Note_on_c, 0, 83, 0
2, 159120, Note_on_c, 0, 81, 64
2, 159192, Note_on_c, 0, 81, 0
2, 159360, Note_on_c, 0, 79, 64
2, 159414, Note_on_c, 0, 79, 0
2, 159600, Note_on_c, 0, 89, 64
2, 159662, Note_on_c, 0, 89, 0
2, 159840, Note_on_c, 0, 88, 64
2, 159896, Note_on_c, 0, 88, 0
2, 160080, Note_on_c, 0, 86, 64
2, 160136, Note_on_c, 0, 86, 0
2, 160320, Note_on_c, 0, 84, 64
2, 160376, Note_on_c, 0, 84, 0
2, 168000, Note_on_c, 0, 84, 64
2, 168000, Note_on_c, 0, 79, 64
2, 169986, Note_on_c, 0, 79, 0
2, 170006, Note_on_c, 0, 84, 0
2, 170400, Note_on_c, 0, 79, 64
2, 170400, Note_on_c, 0, 84, 64
2, 170460, Note_on_c, 0, 79, 0
2, 170516, Note_on_c, 0, 84, 0
2, 170880, Note_on_c, 0, 84, 64
2, 170880, Note_on_c, 0, 79, 64
2, 170964, Note_on_c, 0, 79, 0
2, 171002, Note_on_c, 0, 84, 0
2, 171840, Note_on_c, 0, 86, 64
2, 171840, Note_on_c, 0, 80, 64
2, 173792, Note_on_c, 0, 80, 0
2, 173830, Note_on_c, 0, 86, 0
2, 174240, Note_on_c, 0, 86, 64
2, 174240, Note_on_c, 0, 80, 64
2, 174320, Note_on_c, 0, 86, 0
2, 174330, Note_on_c, 0, 80, 0
2, 174720, Note_on_c, 0, 86, 64
2, 174720, Note_on_c, 0, 80, 64
2, 174800, Note_on_c, 0, 80, 0
2, 174806, Note_on_c, 0, 86, 0
2, 175680, Note_on_c, 0, 79, 64
2, 175680, Note_on_c, 0, 87, 64
2, 175742, Note_on_c, 0, 79, 0
2, 175750, Note_on_c, 0, 87, 0
2, 177840, Note_on_c, 0, 77, 64
2, 177840, Note_on_c, 0, 85, 64
2, 178164, Note_on_c, 0, 85, 0
2, 178164, Note_on_c, 0, 77, 0
2, 178320, Note_on_c, 0, 84, 64
2, 178320, Note_on_c, 0, 77, 64
2, 178380, Note_on_c, 0, 84, 0
2, 178382, Note_on_c, 0, 77, 0
2, 178560, Note_on_c, 0, 85, 64
2, 178560, Note_on_c, 0, 77, 64
2, 178606, Note_on_c, 0, 77, 0
2, 178622, Note_on_c, 0, 85, 0
2, 178800, Note_on_c, 0, 77, 64
2, 178800, Note_on_c, 0, 84, 64
2, 178852, Note_on_c, 0, 77, 0
2, 178860, Note_on_c, 0, 84, 0
2, 179040, Note_on_c, 0, 77, 64
2, 179040, Note_on_c, 0, 82, 64
2, 179090, Note_on_c, 0, 77, 0
2, 179096, Note_on_c, 0, 82, 0
2, 179280, Note_on_c, 0, 76, 64
2, 179280, Note_on_c, 0, 82, 64
2, 179332, Note_on_c, 0, 76, 0
2, 179340, Note_on_c, 0, 82, 0
2, 179520, Note_on_c, 0, 77, 64
2, 179520, Note_on_c, 0, 80, 64
2, 179570, Note_on_c, 0, 77, 0
2, 179594, Note_on_c, 0, 80, 0
2, 181680, Note_on_c, 0, 87, 64
2, 181680, Note_on_c, 0, 79, 64
2, 182034, Note_on_c, 0, 87, 0
2, 182050, Note_on_c, 0, 79, 0
2, 182160, Note_on_c, 0, 79, 64
2, 182160, Note_on_c, 0, 86, 64
2, 182212, Note_on_c, 0, 79, 0
2, 182214, Note_on_c, 0, 86, 0
2, 182400, Note_on_c, 0, 79, 64
2, 182400, Note_on_c, 0, 87, 64
2, 182454, Note_on_c, 0, 79, 0
2, 182466, Note_on_c, 0, 87, 0
2, 182640, Note_on_c, 0, 79, 64
2, 182640, Note_on_c, 0, 86, 64
2, 182692, Note_on_c, 0, 79, 0
2, 182700, Note_on_c, 0, 86, 0
2, 182880, Note_on_c, 0, 79, 64
2, 182880, Note_on_c, 0, 84, 64
2, 182930, Note_on_c, 0, 79, 0
2, 182942, Note_on_c, 0, 84, 0
2, 183120, Note_on_c, 0, 78, 64
2, 183120, Note_on_c, 0, 84, 64
2, 183164, Note_on_c, 0, 78, 0
2, 183180, Note_on_c, 0, 84, 0
2, 183360, Note_on_c, 0, 83, 64
2, 183360, Note_on_c, 0, 79, 64
2, 183416, Note_on_c, 0, 79, 0
2, 183422, Note_on_c, 0, 83, 0
2, 185520, Note_on_c, 0, 83, 64
2, 185944, Note_on_c, 0, 83, 0
2, 186000, Note_on_c, 0, 83, 64
2, 186072, Note_on_c, 0, 83, 0
2, 186240, Note_on_c, 0, 84, 64
2, 186312, Note_on_c, 0, 84, 0
2, 186480, Note_on_c, 0, 87, 64
2, 186480, Note_on_c, 0, 84, 64
2, 186880, Note_on_c, 0, 84, 0
2, 186890, Note_on_c, 0, 87, 0
2, 186960, Note_on_c, 0, 87, 64
2, 186960, Note_on_c, 0, 84, 64
2, 187024, Note_on_c, 0, 87, 0
2, 187040, Note_on_c, 0, 84, 0
2, 187200, Note_on_c, 0, 86, 64
2, 187200, Note_on_c, 0, 83, 64
2, 187262, Note_on_c, 0, 86, 0
2, 187274, Note_on_c, 0, 83, 0
2, 187440, Note_on_c, 0, 87, 64
2, 187440, Note_on_c, 0, 84, 64
2, 187492, Note_on_c, 0, 87, 0
2, 187506, Note_on_c, 0, 84, 0
2, 187680, Note_on_c, 0, 86, 64
2, 187680, Note_on_c, 0, 83, 64
2, 187742, Note_on_c, 0, 86, 0
2, 187752, Note_on_c, 0, 83, 0
2, 187920, Note_on_c, 0, 87, 64
2, 187920, Note_on_c, 0, 84, 64
2, 187992, Note_on_c, 0, 87, 0
2, 188000, Note_on_c, 0, 84, 0
2, 188160, Note_on_c, 0, 86, 64
2, 188160, Note_on_c, 0, 83, 64
2, 188220, Note_on_c, 0, 86, 0
2, 188232, Note_on_c, 0, 83, 0
2, 188400, Note_on_c, 0, 87, 64
2, 188400, Note_on_c, 0, 84, 64
2, 188466, Note_on_c, 0, 87, 0
2, 188476, Note_on_c, 0, 84, 0
2, 188640, Note_on_c, 0, 86, 64
2, 188640, Note_on_c, 0, 83, 64
2, 188704, Note_on_c, 0, 86, 0
2, 188712, Note_on_c, 0, 83, 0
2, 188880, Note_on_c, 0, 84, 64
2, 188880, Note_on_c, 0, 87, 64
2, 188950, Note_on_c, 0, 87, 0
2, 188950, Note_on_c, 0, 84, 0
2, 189120, Note_on_c, 0, 83, 64
2, 189120, Note_on_c, 0, 86, 64
2, 189184, Note_on_c, 0, 86, 0
2, 189210, Note_on_c, 0, 83, 0
2, 189600, Note_on_c, 0, 83, 64
2, 189600, Note_on_c, 0, 91, 64
2, 189684, Note_on_c, 0, 83, 0
2, 189692, Note_on_c, 0, 91, 0
2, 190080, Note_on_c, 0, 79, 64
2, 190160, Note_on_c, 0, 79, 0
2, 191280, Note_on_c, 0, 76, 64
2, 191280, Note_on_c, 0, 79, 64
2, 191326, Note_on_c, 0, 76, 0
2, 191352, Note_on_c, 0, 79, 0
2, 191520, Note_on_c, 0, 79, 64
2, 191520, Note_on_c, 0, 84, 64
2, 191566, Note_on_c, 0, 79, 0
2, 191576, Note_on_c, 0, 84, 0
2, 191760, Note_on_c, 0, 88, 64
2, 191760, Note_on_c, 0, 84, 64
2, 191820, Note_on_c, 0, 84, 0
2, 191820, Note_on_c, 0, 88, 0
2, 192000, Note_on_c, 0, 88, 64
2, 192000, Note_on_c, 0, 91, 64
2, 192982, Note_on_c, 0, 88, 0
2, 192992, Note_on_c, 0, 91, 0
2, 193200, Note_on_c, 0, 88, 64
2, 193200, Note_on_c, 0, 91, 64
2, 193542, Note_on_c, 0, 88, 0
2, 193622, Note_on_c, 0, 91, 0
2, 193680, Note_on_c, 0, 86, 64
2, 193680, Note_on_c, 0, 89, 64
2, 194062, Note_on_c, 0, 86, 0
2, 194102, Note_on_c, 0, 89, 0
2, 194160, Note_on_c, 0, 84, 64
2, 194160, Note_on_c, 0, 88, 64
2, 194516, Note_on_c, 0, 84, 0
2, 194562, Note_on_c, 0, 88, 0
2, 194640, Note_on_c, 0, 86, 64
2, 194640, Note_on_c, 0, 89, 64
2, 194706, Note_on_c, 0, 89, 0
2, 194706, Note_on_c, 0, 86, 0
2, 194880, Note_on_c, 0, 86, 64
2, 194880, Note_on_c, 0, 83, 64
2, 194942, Note_on_c, 0, 86, 0
2, 194944, Note_on_c, 0, 83, 0
2, 199440, Note_on_c, 0, 76, 64
2, 199440, Note_on_c, 0, 79, 64
2, 199506, Note_on_c, 0, 76, 0
2, 199514, Note_on_c, 0, 79, 0
2, 199680, Note_on_c, 0, 79, 64
2, 199680, Note_on_c, 0, 84, 64
2, 199736, Note_on_c, 0, 79, 0
2, 199750, Note_on_c, 0, 84, 0
2, 199920, Note_on_c, 0, 84, 64
2, 199920, Note_on_c, 0, 88, 64
2, 199982, Note_on_c, 0, 84, 0
2, 199986, Note_on_c, 0, 88, 0
2, 200160, Note_on_c, 0, 84, 64
2, 200160, Note_on_c, 0, 91, 64
2, 200220, Note_on_c, 0, 84, 0
2, 200400, Note_on_c, 0, 88, 64
2, 200684, Note_on_c, 0, 88, 0
2, 200700, Note_on_c, 0, 91, 0
2, 200880, Note_on_c, 0, 88, 64
2, 200880, Note_on_c, 0, 91, 64
2, 200950, Note_on_c, 0, 88, 0
2, 201000, Note_on_c, 0, 91, 0
2, 201360, Note_on_c, 0, 86, 64
2, 201360, Note_on_c, 0, 89, 64
2, 201426, Note_on_c, 0, 86, 0
2, 201452, Note_on_c, 0, 89, 0
2, 201840, Note_on_c, 0, 88, 64
2, 201840, Note_on_c, 0, 84, 64
2, 201914, Note_on_c, 0, 84, 0
2, 201916, Note_on_c, 0, 88, 0
2, 202320, Note_on_c, 0, 86, 64
2, 202320, Note_on_c, 0, 89, 64
2, 202384, Note_on_c, 0, 86, 0
2, 202396, Note_on_c, 0, 89, 0
2, 202560, Note_on_c, 0, 83, 64
2, 202560, Note_on_c, 0, 86, 64
2, 202620, Note_on_c, 0, 83, 0
2, 202626, Note_on_c, 0, 86, 0
2, 203280, Note_on_c, 0, 83, 64
2, 203280, Note_on_c, 0, 86, 64
2, 203336, Note_on_c, 0, 86, 0
2, 203336, Note_on_c, 0, 83, 0
2, 203520, Note_on_c, 0, 86, 64
2, 203520, Note_on_c, 0, 89, 64
2, 203572, Note_on_c, 0, 86, 0
2, 203574, Note_on_c, 0, 89, 0
2, 203760, Note_on_c, 0, 93, 64
2, 203760, Note_on_c, 0, 89, 64
2, 204560, Note_on_c, 0, 93, 0
2, 204564, Note_on_c, 0, 89, 0
2, 204720, Note_on_c, 0, 88, 64
2, 204720, Note_on_c, 0, 91, 64
2, 204774, Note_on_c, 0, 88, 0
2, 204780, Note_on_c, 0, 91, 0
2, 205200, Note_on_c, 0, 86, 64
2, 205200, Note_on_c, 0, 89, 64
2, 205262, Note_on_c, 0, 86, 0
2, 205270, Note_on_c, 0, 89, 0
2, 205680, Note_on_c, 0, 88, 64
2, 205680, Note_on_c, 0, 84, 64
2, 205736, Note_on_c, 0, 84, 0
2, 205744, Note_on_c, 0, 88, 0
2, 206160, Note_on_c, 0, 83, 64
2, 206160, Note_on_c, 0, 86, 64
2, 206212, Note_on_c, 0, 83, 0
2, 206220, Note_on_c, 0, 86, 0
2, 206400, Note_on_c, 0, 84, 64
2, 206454, Note_on_c, 0, 84, 0
2, 207600, Note_on_c, 0, 79, 64
2, 207666, Note_on_c, 0, 79, 0
2, 207840, Note_on_c, 0, 84, 64
2, 207906, Note_on_c, 0, 84, 0
2, 208080, Note_on_c, 0, 88, 64
2, 208146, Note_on_c, 0, 88, 0
2, 208320, Note_on_c, 0, 89, 64
2, 208402, Note_on_c, 0, 89, 0
2, 209520, Note_on_c, 0, 86, 64
2, 209760, Note_on_c, 0, 83, 64
2, 209762, Note_on_c, 0, 86, 0
2, 209806, Note_on_c, 0, 83, 0
2, 210000, Note_on_c, 0, 77, 64
2, 210046, Note_on_c, 0, 77, 0
2, 210240, Note_on_c, 0, 76, 64
2, 210292, Note_on_c, 0, 76, 0
2, 211440, Note_on_c, 0, 79, 64
2, 211504, Note_on_c, 0, 79, 0
2, 211680, Note_on_c, 0, 84, 64
2, 211726, Note_on_c, 0, 84, 0
2, 211920, Note_on_c, 0, 88, 64
2, 211970, Note_on_c, 0, 88, 0
2, 212160, Note_on_c, 0, 89, 64
2, 212230, Note_on_c, 0, 89, 0
2, 213360, Note_on_c, 0, 86, 64
2, 213600, Note_on_c, 0, 83, 64
2, 213616, Note_on_c, 0, 86, 0
2, 213652, Note_on_c, 0, 83, 0
2, 213840, Note_on_c, 0, 77, 64
2, 213906, Note_on_c, 0, 77, 0
2, 214080, Note_on_c, 0, 75, 64
2, 214186, Note_on_c, 0, 75, 0
2, 216000, Note_on_c, 0, 87, 64
2, 219890, Note_on_c, 0, 87, 0
2, 221760, Note_on_c, 0, 84, 64
2, 221760, Note_on_c, 0, 82, 64
2, 223566, Note_on_c, 0, 82, 0
2, 223680, Note_on_c, 0, 80, 64
2, 223736, Note_on_c, 0, 84, 0
2, 223766, Note_on_c, 0, 80, 0
2, 225600, Note_on_c, 0, 89, 64
2, 225600, Note_on_c, 0, 91, 64
2, 227424, Note_on_c, 0, 89, 0
2, 227520, Note_on_c, 0, 87, 64
2, 227550, Note_on_c, 0, 91, 0
2, 227606, Note_on_c, 0, 87, 0
2, 228000, Note_on_c, 0, 86, 64
2, 228240, Note_on_c, 0, 89, 64
2, 228254, Note_on_c, 0, 86, 0
2, 228286, Note_on_c, 0, 89, 0
2, 228480, Note_on_c, 0, 84, 64
2, 228720, Note_on_c, 0, 87, 64
2, 228740, Note_on_c, 0, 84, 0
2, 228784, Note_on_c, 0, 87, 0
2, 228960, Note_on_c, 0, 83, 64
2, 229196, Note_on_c, 0, 83, 0
2, 229200, Note_on_c, 0, 86, 64
2, 229250, Note_on_c, 0, 86, 0
2, 229440, Note_on_c, 0, 84, 64
2, 229500, Note_on_c, 0, 84, 0
2, 230160, Note_on_c, 0, 83, 64
2, 230224, Note_on_c, 0, 83, 0
2, 230400, Note_on_c, 0, 84, 64
2, 230464, Note_on_c, 0, 84, 0
2, 232080, Note_on_c, 0, 79, 64
2, 232080, Note_on_c, 0, 85, 64
2, 232120, Note_on_c, 0, 79, 0
2, 232136, Note_on_c, 0, 85, 0
2, 232320, Note_on_c, 0, 77, 64
2, 232320, Note_on_c, 0, 86, 64
2, 232360, Note_on_c, 0, 77, 0
2, 232382, Note_on_c, 0, 86, 0
2, 234000, Note_on_c, 0, 81, 64
2, 234000, Note_on_c, 0, 87, 64
2, 234052, Note_on_c, 0, 81, 0
2, 234056, Note_on_c, 0, 87, 0
2, 234240, Note_on_c, 0, 79, 64
2, 234240, Note_on_c, 0, 88, 64
2, 234292, Note_on_c, 0, 79, 0
2, 234304, Note_on_c, 0, 88, 0
2, 235920, Note_on_c, 0, 84, 64
2, 235920, Note_on_c, 0, 90, 64
2, 235964, Note_on_c, 0, 84, 0
2, 235966, Note_on_c, 0, 90, 0
2, 236160, Note_on_c, 0, 83, 64
2, 236160, Note_on_c, 0, 91, 64
2, 236210, Note_on_c, 0, 83, 0
2, 236222, Note_on_c, 0, 91, 0
2, 236880, Note_on_c, 0, 86, 64
2, 236880, Note_on_c, 0, 92, 64
2, 236932, Note_on_c, 0, 86, 0
2, 236934, Note_on_c, 0, 92, 0
2, 237120, Note_on_c, 0, 93, 64
2, 237120, Note_on_c, 0, 84, 64
2, 237174, Note_on_c, 0, 84, 0
2, 237226, Note_on_c, 0, 93, 0
2, 239280, Note_on_c, 0, 83, 64
2, 239360, Note_on_c, 0, 83, 0
2, 239520, Note_on_c, 0, 84, 64
2, 239592, Note_on_c, 0, 84, 0
2, 239760, Note_on_c, 0, 86, 64
2, 239842, Note_on_c, 0, 86, 0
2, 240000, Note_on_c, 0, 88, 64
2, 240084, Note_on_c, 0, 88, 0
2, 240240, Note_on_c, 0, 86, 64
2, 240314, Note_on_c, 0, 86, 0
2, 240480, Note_on_c, 0, 88, 64
2, 240564, Note_on_c, 0, 88, 0
2, 240720, Note_on_c, 0, 89, 64
2, 240790, Note_on_c, 0, 89, 0
2, 240960, Note_on_c, 0, 88, 64
2, 240960, Note_on_c, 0, 91, 64
2, 242476, Note_on_c, 0, 88, 0
2, 242554, Note_on_c, 0, 91, 0
2, 242640, Note_on_c, 0, 86, 64
2, 242640, Note_on_c, 0, 89, 64
2, 242796, Note_on_c, 0, 86, 0
2, 242822, Note_on_c, 0, 89, 0
2, 242880, Note_on_c, 0, 88, 64
2, 242880, Note_on_c, 0, 84, 64
2, 243034, Note_on_c, 0, 88, 0
2, 243120, Note_on_c, 0, 80, 64
2, 243192, Note_on_c, 0, 84, 0
2, 243240, Note_on_c, 0, 80, 0
2, 243240, Note_on_c, 0, 80, 64
2, 243360, Note_on_c, 0, 81, 64
2, 243454, Note_on_c, 0, 80, 0
2, 243600, Note_on_c, 0, 84, 64
2, 243614, Note_on_c, 0, 81, 0
2, 243840, Note_on_c, 0, 88, 64
2, 243856, Note_on_c, 0, 84, 0
2, 244390, Note_on_c, 0, 88, 0
2, 244560, Note_on_c, 0, 76, 64
2, 244650, Note_on_c, 0, 76, 0
2, 244800, Note_on_c, 0, 77, 64
2, 245396, Note_on_c, 0, 77, 0
2, 245400, Note_on_c, 0, 74, 64
2, 245520, Note_on_c, 0, 76, 64
2, 245560, Note_on_c, 0, 74, 0
2, 245640, Note_on_c, 0, 77, 64
2, 245690, Note_on_c, 0, 76, 0
2, 245760, Note_on_c, 0, 79, 64
2, 245800, Note_on_c, 0, 77, 0
2, 245880, Note_on_c, 0, 78, 64
2, 245920, Note_on_c, 0, 79, 0
2, 246000, Note_on_c, 0, 79, 64
2, 246012, Note_on_c, 0, 78, 0
2, 246120, Note_on_c, 0, 78, 64
2, 246126, Note_on_c, 0, 79, 0
2, 246240, Note_on_c, 0, 79, 64
2, 246270, Note_on_c, 0, 78, 0
2, 246314, Note_on_c, 0, 79, 0
2, 246480, Note_on_c, 0, 67, 64
2, 246540, Note_on_c, 0, 67, 0
2, 246720, Note_on_c, 0, 91, 64
2, 246720, Note_on_c, 0, 88, 64
2, 248214, Note_on_c, 0, 91, 0
2, 248284, Note_on_c, 0, 88, 0
2, 248400, Note_on_c, 0, 89, 64
2, 248400, Note_on_c, 0, 86, 64
2, 248476, Note_on_c, 0, 89, 0
2, 248512, Note_on_c, 0, 86, 0
2, 248640, Note_on_c, 0, 84, 64
2, 248640, Note_on_c, 0, 88, 64
2, 248812, Note_on_c, 0, 84, 0
2, 248822, Note_on_c, 0, 88, 0
2, 248880, Note_on_c, 0, 81, 64
2, 249000, Note_on_c, 0, 80, 64
2, 249026, Note_on_c, 0, 81, 0
2, 249120, Note_on_c, 0, 81, 64
2, 249136, Note_on_c, 0, 80, 0
2, 249240, Note_on_c, 0, 83, 64
2, 249270, Note_on_c, 0, 81, 0
2, 249360, Note_on_c, 0, 84, 64
2, 249410, Note_on_c, 0, 83, 0
2, 249480, Note_on_c, 0, 86, 64
2, 249512, Note_on_c, 0, 84, 0
2, 249600, Note_on_c, 0, 88, 64
2, 249662, Note_on_c, 0, 86, 0
2, 250226, Note_on_c, 0, 88, 0
2, 250320, Note_on_c, 0, 92, 64
2, 250320, Note_on_c, 0, 86, 64
2, 250402, Note_on_c, 0, 92, 0
2, 250432, Note_on_c, 0, 86, 0
2, 250560, Note_on_c, 0, 84, 64
2, 250560, Note_on_c, 0, 93, 64
2, 250884, Note_on_c, 0, 93, 0
2, 250970, Note_on_c, 0, 84, 0
2, 251040, Note_on_c, 0, 86, 64
2, 251040, Note_on_c, 0, 89, 64
2, 251324, Note_on_c, 0, 89, 0
2, 251404, Note_on_c, 0, 86, 0
2, 251520, Note_on_c, 0, 88, 64
2, 251520, Note_on_c, 0, 84, 64
2, 251852, Note_on_c, 0, 88, 0
2, 251896, Note_on_c, 0, 84, 0
2, 252000, Note_on_c, 0, 86, 64
2, 252000, Note_on_c, 0, 83, 64
2, 252322, Note_on_c, 0, 86, 0
2, 252376, Note_on_c, 0, 83, 0
2, 252480, Note_on_c, 0, 84, 64
2, 252556, Note_on_c, 0, 84, 0
2, 255360, Note_on_c, 0, 83, 80
2, 255440, Note_on_c, 0, 83, 0
2, 255440, Note_on_c, 0, 84, 80
2, 255520, Note_on_c, 0, 84, 0
2, 255520, Note_on_c, 0, 83, 80
2, 255600, Note_on_c, 0, 83, 0
2, 255600, Note_on_c, 0, 84, 80
2, 255680, Note_on_c, 0, 84, 0
2, 255680, Note_on_c, 0, 83, 80
2, 255760, Note_on_c, 0, 83, 0
2, 255760, Note_on_c, 0, 84, 80
2, 255840, Note_on_c, 0, 84, 0
2, 255840, Note_on_c, 0, 83, 80
2, 255920, Note_on_c, 0, 83, 0
2, 255920, Note_on_c, 0, 84, 80
2, 256000, Note_on_c, 0, 84, 0
2, 256000, Note_on_c, 0, 83, 80
2, 256080, Note_on_c, 0, 83, 0
2, 256080, Note_on_c, 0, 84, 80
2, 256160, Note_on_c, 0, 84, 0
2, 256160, Note_on_c, 0, 81, 80
2, 256240, Note_on_c, 0, 81, 0
2, 256240, Note_on_c, 0, 83, 80
2, 256320, Note_on_c, 0, 83, 0
2, 256320, Note_on_c, 0, 84, 64
2, 256320, Note_on_c, 0, 83, 64
2, 256322, Note_on_c, 0, 83, 0
2, 256394, Note_on_c, 0, 84, 0
2, 262320, Note_on_c, 0, 84, 64
2, 262696, Note_on_c, 0, 84, 0
2, 262800, Note_on_c, 0, 84, 64
2, 262862, Note_on_c, 0, 84, 0
2, 263280, Note_on_c, 0, 85, 64
2, 263672, Note_on_c, 0, 85, 0
2, 263760, Note_on_c, 0, 85, 64
2, 263822, Note_on_c, 0, 85, 0
2, 264240, Note_on_c, 0, 86, 64
2, 264576, Note_on_c, 0, 86, 0
2, 264720, Note_on_c, 0, 86, 64
2, 264790, Note_on_c, 0, 86, 0
2, 265200, Note_on_c, 0, 87, 64
2, 265590, Note_on_c, 0, 87, 0
2, 265680, Note_on_c, 0, 87, 64
2, 265750, Note_on_c, 0, 87, 0
2, 266880, Note_on_c, 0, 92, 64
2, 267360, Note_on_c, 0, 87, 64
2, 267744, Note_on_c, 0, 87, 0
2, 267840, Note_on_c, 0, 89, 64
2, 267990, Note_on_c, 0, 89, 0
2, 268134, Note_on_c, 0, 92, 0
2, 268320, Note_on_c, 0, 87, 64
2, 268320, Note_on_c, 0, 92, 64
2, 269114, Note_on_c, 0, 87, 0
2, 269140, Note_on_c, 0, 92, 0
2, 269280, Note_on_c, 0, 87, 64
2, 269280, Note_on_c, 0, 92, 64
2, 269602, Note_on_c, 0, 87, 0
2, 269760, Note_on_c, 0, 89, 64
2, 270042, Note_on_c, 0, 89, 0
2, 270114, Note_on_c, 0, 92, 0
2, 270240, Note_on_c, 0, 93, 64
2, 270240, Note_on_c, 0, 87, 64
2, 270820, Note_on_c, 0, 93, 0
2, 270826, Note_on_c, 0, 87, 0
2, 270960, Note_on_c, 0, 93, 64
2, 270960, Note_on_c, 0, 87, 64
2, 271026, Note_on_c, 0, 87, 0
2, 271026, Note_on_c, 0, 93, 0
2, 271200, Note_on_c, 0, 87, 64
2, 271200, Note_on_c, 0, 93, 64
2, 271264, Note_on_c, 0, 87, 0
2, 271274, Note_on_c, 0, 93, 0
2, 271440, Note_on_c, 0, 87, 64
2, 271440, Note_on_c, 0, 93, 64
2, 271512, Note_on_c, 0, 87, 0
2, 271514, Note_on_c, 0, 93, 0
2, 271680, Note_on_c, 0, 88, 64
2, 271680, Note_on_c, 0, 91, 64
2, 272542, Note_on_c, 0, 88, 0
2, 272560, Note_on_c, 0, 91, 0
2, 272640, Note_on_c, 0, 89, 64
2, 272640, Note_on_c, 0, 84, 64
2, 273524, Note_on_c, 0, 89, 0
2, 273536, Note_on_c, 0, 84, 0
2, 273600, Note_on_c, 0, 87, 64
2, 273600, Note_on_c, 0, 90, 64
2, 274460, Note_on_c, 0, 87, 0
2, 274496, Note_on_c, 0, 90, 0
2, 274560, Note_on_c, 0, 88, 64
2, 274560, Note_on_c, 0, 91, 64
2, 274992, Note_on_c, 0, 88, 0
2, 275014, Note_on_c, 0, 91, 0
2, 275040, Note_on_c, 0, 83, 64
2, 275040, Note_on_c, 0, 77, 64
2, 275426, Note_on_c, 0, 83, 0
2, 275454, Note_on_c, 0, 77, 0
2, 275520, Note_on_c, 0, 76, 64
2, 275520, Note_on_c, 0, 84, 64
2, 275606, Note_on_c, 0, 76, 0
2, 275616, Note_on_c, 0, 84, 0
2, 276000, Note_on_c, 0, 84, 64
2, 276084, Note_on_c, 0, 84, 0
2, 276960, Note_on_c, 0, 85, 64
2, 277190, Note_on_c, 0, 85, 0
2, 277920, Note_on_c, 0, 86, 64
2, 278174, Note_on_c, 0, 86, 0
2, 278880, Note_on_c, 0, 83, 64
2, 279184, Note_on_c, 0, 83, 0
2, 279840, Note_on_c, 0, 84, 64
2, 279840, Note_on_c, 0, 88, 64
2, 280202, Note_on_c, 0, 84, 0
2, 280260, Note_on_c, 0, 88, 0
2, 280800, Note_on_c, 0, 85, 64
2, 280800, Note_on_c, 0, 88, 64
2, 281254, Note_on_c, 0, 85, 0
2, 281280, Note_on_c, 0, 88, 0
2, 281760, Note_on_c, 0, 86, 64
2, 281760, Note_on_c, 0, 89, 64
2, 282224, Note_on_c, 0, 86, 0
2, 282240, Note_on_c, 0, 89, 0
2, 282720, Note_on_c, 0, 86, 64
2, 282720, Note_on_c, 0, 83, 64
2, 283084, Note_on_c, 0, 86, 0
2, 283112, Note_on_c, 0, 83, 0
2, 283200, Note_on_c, 0, 84, 64
2, 283200, Note_on_c, 0, 88, 64
2, 283552, Note_on_c, 0, 84, 0
2, 283584, Note_on_c, 0, 88, 0
2, 283680, Note_on_c, 0, 85, 64
2, 283680, Note_on_c, 0, 88, 64
2, 284082, Note_on_c, 0, 85, 0
2, 284102, Note_on_c, 0, 88, 0
2, 284160, Note_on_c, 0, 86, 64
2, 284160, Note_on_c, 0, 89, 64
2, 284510, Note_on_c, 0, 86, 0
2, 284554, Note_on_c, 0, 89, 0
2, 284640, Note_on_c, 0, 83, 64
2, 284640, Note_on_c, 0, 86, 64
2, 284996, Note_on_c, 0, 83, 0
2, 285044, Note_on_c, 0, 86, 0
2, 285120, Note_on_c, 0, 84, 64
2, 285120, Note_on_c, 0, 88, 64
2, 285180, Note_on_c, 0, 84, 0
2, 285236, Note_on_c, 0, 88, 0
2, 285360, Note_on_c, 0, 84, 64
2, 285360, Note_on_c, 0, 88, 64
2, 285422, Note_on_c, 0, 84, 0
2, 285460, Note_on_c, 0, 88, 0
2, 285600, Note_on_c, 0, 85, 64
2, 285600, Note_on_c, 0, 88, 64
2, 285670, Note_on_c, 0, 85, 0
2, 285686, Note_on_c, 0, 88, 0
2, 285840, Note_on_c, 0, 88, 64
2, 285840, Note_on_c, 0, 85, 64
2, 285914, Note_on_c, 0, 85, 0
2, 285932, Note_on_c, 0, 88, 0
2, 286080, Note_on_c, 0, 86, 64
2, 286080, Note_on_c, 0, 89, 64
2, 286152, Note_on_c, 0, 86, 0
2, 286172, Note_on_c, 0, 89, 0
2, 286320, Note_on_c, 0, 86, 64
2, 286320, Note_on_c, 0, 89, 64
2, 286400, Note_on_c, 0, 86, 0
2, 286412, Note_on_c, 0, 89, 0
2, 286560, Note_on_c, 0, 86, 64
2, 286560, Note_on_c, 0, 83, 64
2, 286646, Note_on_c, 0, 83, 0
2, 286654, Note_on_c, 0, 86, 0
2, 286800, Note_on_c, 0, 83, 64
2, 286800, Note_on_c, 0, 86, 64
2, 286880, Note_on_c, 0, 83, 0
2, 286890, Note_on_c, 0, 86, 0
2, 287040, Note_on_c, 0, 84, 64
2, 287174, Note_on_c, 0, 84, 0
2, 289440, Note_on_c, 0, 91, 64
2, 290012, Note_on_c, 0, 91, 0
2, 290160, Note_on_c, 0, 93, 64
2, 290236, Note_on_c, 0, 93, 0
2, 290400, Note_on_c, 0, 91, 64
2, 290472, Note_on_c, 0, 91, 0
2, 290640, Note_on_c, 0, 89, 64
2, 290704, Note_on_c, 0, 89, 0
2, 290880, Note_on_c, 0, 88, 64
2, 291946, Note_on_c, 0, 88, 0
2, 292080, Note_on_c, 0, 89, 64
2, 292140, Note_on_c, 0, 89, 0
2, 292320, Note_on_c, 0, 88, 64
2, 292386, Note_on_c, 0, 88, 0
2, 292560, Note_on_c, 0, 86, 64
2, 292624, Note_on_c, 0, 86, 0
2, 292800, Note_on_c, 0, 84, 64
2, 292874, Note_on_c, 0, 84, 0
2, 293040, Note_on_c, 0, 81, 64
2, 293040, Note_on_c, 0, 93, 64
2, 293096, Note_on_c, 0, 93, 0
2, 293116, Note_on_c, 0, 81, 0
2, 293280, Note_on_c, 0, 91, 64
2, 293280, Note_on_c, 0, 79, 64
2, 293336, Note_on_c, 0, 91, 0
2, 293344, Note_on_c, 0, 79, 0
2, 293520, Note_on_c, 0, 77, 64
2, 293520, Note_on_c, 0, 89, 64
2, 293584, Note_on_c, 0, 77, 0
2, 293586, Note_on_c, 0, 89, 0
2, 293760, Note_on_c, 0, 88, 64
2, 293760, Note_on_c, 0, 76, 64
2, 293830, Note_on_c, 0, 76, 0
2, 293834, Note_on_c, 0, 88, 0
2, 294000, Note_on_c, 0, 93, 64
2, 294000, Note_on_c, 0, 81, 64
2, 294062, Note_on_c, 0, 81, 0
2, 294070, Note_on_c, 0, 93, 0
2, 294240, Note_on_c, 0, 79, 64
2, 294240, Note_on_c, 0, 91, 64
2, 294302, Note_on_c, 0, 79, 0
2, 294304, Note_on_c, 0, 91, 0
2, 294480, Note_on_c, 0, 77, 64
2, 294480, Note_on_c, 0, 89, 64
2, 294546, Note_on_c, 0, 77, 0
2, 294554, Note_on_c, 0, 89, 0
2, 294720, Note_on_c, 0, 88, 64
2, 294720, Note_on_c, 0, 76, 64
2, 294780, Note_on_c, 0, 76, 0
2, 294804, Note_on_c, 0, 88, 0
2, 294960, Note_on_c, 0, 93, 64
2, 294960, Note_on_c, 0, 81, 64
2, 295026, Note_on_c, 0, 81, 0
2, 295034, Note_on_c, 0, 93, 0
2, 295200, Note_on_c, 0, 79, 64
2, 295200, Note_on_c, 0, 91, 64
2, 295264, Note_on_c, 0, 79, 0
2, 295274, Note_on_c, 0, 91, 0
2, 295440, Note_on_c, 0, 77, 64
2, 295440, Note_on_c, 0, 89, 64
2, 295506, Note_on_c, 0, 77, 0
2, 295516, Note_on_c, 0, 89, 0
2, 295680, Note_on_c, 0, 88, 64
2, 295680, Note_on_c, 0, 76, 64
2, 295754, Note_on_c, 0, 76, 0
2, 295760, Note_on_c, 0, 88, 0
2, 295920, Note_on_c, 0, 93, 64
2, 295920, Note_on_c, 0, 81, 64
2, 295986, Note_on_c, 0, 81, 0
2, 295994, Note_on_c, 0, 93, 0
2, 296160, Note_on_c, 0, 79, 64
2, 296160, Note_on_c, 0, 91, 64
2, 296230, Note_on_c, 0, 79, 0
2, 296234, Note_on_c, 0, 91, 0
2, 296400, Note_on_c, 0, 77, 64
2, 296400, Note_on_c, 0, 89, 64
2, 296464, Note_on_c, 0, 77, 0
2, 296480, Note_on_c, 0, 89, 0
2, 296640, Note_on_c, 0, 76, 64
2, 296640, Note_on_c, 0, 88, 64
2, 296832, Note_on_c, 0, 88, 0
2, 296832, Note_on_c, 0, 76, 0
2, 297120, Note_on_c, 0, 84, 64
2, 297120, Note_on_c, 0, 76, 64
2, 297312, Note_on_c, 0, 76, 0
2, 297312, Note_on_c, 0, 84, 0
2, 298080, Note_on_c, 0, 88, 64
2, 298080, Note_on_c, 0, 84, 64
2, 298272, Note_on_c, 0, 84, 0
2, 298272, Note_on_c, 0, 88, 0
2, 299040, Note_on_c, 0, 84, 64
2, 299040, Note_on_c, 0, 91, 64
2, 299232, Note_on_c, 0, 91, 0
2, 299232, Note_on_c, 0, 84, 0
2, 300000, Note_on_c, 0, 84, 64
2, 300000, Note_on_c, 0, 88, 64
2, 300192, Note_on_c, 0, 88, 0
2, 300192, Note_on_c, 0, 84, 0
2, 300480, Note_on_c, 0, 84, 64
2, 300480, Note_on_c, 0, 76, 64
2, 300672, Note_on_c, 0, 76, 0
2, 300672, Note_on_c, 0, 84, 0
2, 301440, Note_on_c, 0, 88, 64
2, 301440, Note_on_c, 0, 84, 64
2, 301632, Note_on_c, 0, 84, 0
2, 301632, Note_on_c, 0, 88, 0
2, 302400, Note_on_c, 0, 76, 64
2, 302400, Note_on_c, 0, 84, 64
2, 302520, Note_on_c, 0, 84, 0
2, 302520, Note_on_c, 0, 76, 0
2, 303360, Note_on_c, 0, 84, 96
2, 303480, Note_on_c, 0, 84, 0
2, 303840, Note_on_c, 0, 84, 96
2, 303960, Note_on_c, 0, 84, 0
2, 304320, Note_on_c, 0, 84, 96
2, 304440, Note_on_c, 0, 84, 0
2, 304440, End_track
3, 0, Start_track
3, 0, Title_t, "Oboes"
3, 0, Program_c, 1, 68
3, 0, Control_c, 1, 7, 90
3, 0, Control_c, 1, 10, 77
3, 0, Control_c, 1, 10, 74
3, 960, Note_on_c, 1, 76, 64
3, 960, Note_on_c, 1, 72, 64
3, 1162, Note_on_c, 1, 72, 0
3, 1172, Note_on_c, 1, 76, 0
3, 3840, Note_on_c, 1, 72, 64
3, 3840, Note_on_c, 1, 77, 64
3, 4012, Note_on_c, 1, 72, 0
3, 4020, Note_on_c, 1, 77, 0
3, 6720, Note_on_c, 1, 72, 64
3, 6720, Note_on_c, 1, 78, 64
3, 6862, Note_on_c, 1, 72, 0
3, 6866, Note_on_c, 1, 78, 0
3, 7680, Note_on_c, 1, 78, 64
3, 7680, Note_on_c, 1, 72, 64
3, 7814, Note_on_c, 1, 72, 0
3, 7830, Note_on_c, 1, 78, 0
3, 8640, Note_on_c, 1, 78, 64
3, 8640, Note_on_c, 1, 72, 64
3, 8784, Note_on_c, 1, 72, 0
3, 8786, Note_on_c, 1, 78, 0
3, 9600, Note_on_c, 1, 71, 64
3, 9600, Note_on_c, 1, 79, 64
3, 9772, Note_on_c, 1, 79, 0
3, 9776, Note_on_c, 1, 71, 0
3, 10440, Note_on_c, 1, 67, 64
3, 10440, Note_on_c, 1, 79, 64
3, 10522, Note_on_c, 1, 67, 0
3, 10528, Note_on_c, 1, 79, 0
3, 10560, Note_on_c, 1, 79, 64
3, 10560, Note_on_c, 1, 67, 64
3, 12840, Note_on_c, 1, 67, 0
3, 12840, Note_on_c, 1, 79, 0
3, 14400, Note_on_c, 1, 67, 64
3, 15360, Note_on_c, 1, 67, 0
3, 15360, Note_on_c, 1, 67, 64
3, 15360, Note_on_c, 1, 72, 64
3, 16320, Note_on_c, 1, 72, 0
3, 16320, Note_on_c, 1, 67, 0
3, 16320, Note_on_c, 1, 74, 64
3, 16320, Note_on_c, 1, 71, 64
3, 17280, Note_on_c, 1, 71, 0
3, 17280, Note_on_c, 1, 74, 0
3, 17280, Note_on_c, 1, 76, 64
3, 17280, Note_on_c, 1, 72, 64
3, 18080, Note_on_c, 1, 74, 64
3, 18080, Note_on_c, 1, 71, 64
3, 18120, Note_on_c, 1, 72, 0
3, 18120, Note_on_c, 1, 76, 0
3, 18240, Note_on_c, 1, 72, 64
3, 18240, Note_on_c, 1, 67, 64
3, 18249, Note_on_c, 1, 74, 0
3, 18249, Note_on_c, 1, 71, 0
3, 19224, Note_on_c, 1, 72, 0
3, 19240, Note_on_c, 1, 67, 0
3, 20160, Note_on_c, 1, 74, 64
3, 20160, Note_on_c, 1, 67, 64
3, 21090, Note_on_c, 1, 67, 0
3, 21120, Note_on_c, 1, 74, 0
3, 21120, Note_on_c, 1, 77, 64
3, 21120, Note_on_c, 1, 74, 64
3, 22080, Note_on_c, 1, 74, 0
3, 22080, Note_on_c, 1, 77, 0
3, 22080, Note_on_c, 1, 77, 64
3, 22080, Note_on_c, 1, 74, 64
3, 22320, Note_on_c, 1, 76, 64
3, 22320, Note_on_c, 1, 72, 64
3, 22342, Note_on_c, 1, 77, 0
3, 22394, Note_on_c, 1, 74, 0
3, 22560, Note_on_c, 1, 74, 64
3, 22560, Note_on_c, 1, 71, 64
3, 22566, Note_on_c, 1, 72, 0
3, 22624, Note_on_c, 1, 76, 0
3, 22800, Note_on_c, 1, 72, 64
3, 22800, Note_on_c, 1, 76, 64
3, 22826, Note_on_c, 1, 71, 0
3, 22872, Note_on_c, 1, 74, 0
3, 23040, Note_on_c, 1, 74, 64
3, 23040, Note_on_c, 1, 71, 64
3, 23056, Note_on_c, 1, 72, 0
3, 23056, Note_on_c, 1, 76, 0
3, 24960, Note_on_c, 1, 74, 0
3, 24960, Note_on_c, 1, 71, 0
3, 24960, Note_on_c, 1, 75, 64
3, 24960, Note_on_c, 1, 71, 64
3, 25920, Note_on_c, 1, 75, 0
3, 25920, Note_on_c, 1, 72, 64
3, 25920, Note_on_c, 1, 76, 64
3, 26036, Note_on_c, 1, 71, 0
3, 26880, Note_on_c, 1, 79, 83
3, 26972, Note_on_c, 1, 76, 0
3, 27840, Note_on_c, 1, 67, 64
3, 27894, Note_on_c, 1, 72, 0
3, 28320, Note_on_c, 1, 77, 64
3, 28320, Note_on_c, 1, 74, 64
3, 28376, Note_on_c, 1, 79, 0
3, 28574, Note_on_c, 1, 67, 0
3, 28800, Note_on_c, 1, 72, 64
3, 28800, Note_on_c, 1, 76, 64
3, 28856, Note_on_c, 1, 77, 0
3, 28864, Note_on_c, 1, 74, 0
3, 29520, Note_on_c, 1, 79, 64
3, 29602, Note_on_c, 1, 76, 0
3, 29734, Note_on_c, 1, 79, 0
3, 29760, Note_on_c, 1, 79, 83
3, 30720, Note_on_c, 1, 67, 64
3, 30794, Note_on_c, 1, 72, 0
3, 31200, Note_on_c, 1, 74, 64
3, 31200, Note_on_c, 1, 77, 64
3, 31264, Note_on_c, 1, 79, 0
3, 31344, Note_on_c, 1, 67, 0
3, 31680, Note_on_c, 1, 76, 64
3, 31680, Note_on_c, 1, 72, 64
3, 31726, Note_on_c, 1, 77, 0
3, 31750, Note_on_c, 1, 74, 0
3, 32640, Note_on_c, 1, 69, 64
3, 32640, Note_on_c, 1, 81, 64
3, 32674, Note_on_c, 1, 72, 0
3, 32690, Note_on_c, 1, 76, 0
3, 33600, Note_on_c, 1, 79, 83
3, 33638, Note_on_c, 1, 81, 0
3, 33840, Note_on_c, 1, 77, 83
3, 33842, Note_on_c, 1, 79, 0
3, 33888, Note_on_c, 1, 69, 0
3, 34080, Note_on_c, 1, 76, 83
3, 34080, Note_on_c, 1, 69, 64
3, 34089, Note_on_c, 1, 77, 0
3, 34320, Note_on_c, 1, 74, 83
3, 34329, Note_on_c, 1, 76, 0
3, 34560, Note_on_c, 1, 72, 83
3, 34560, Note_on_c, 1, 64, 64
3, 34569, Note_on_c, 1, 74, 0
3, 34579, Note_on_c, 1, 69, 0
3, 35468, Note_on_c, 1, 64, 0
3, 35520, Note_on_c, 1, 71, 64
3, 35520, Note_on_c, 1, 62, 64
3, 35558, Note_on_c, 1, 72, 0
3, 36010, Note_on_c, 1, 62, 0
3, 36035, Note_on_c, 1, 71, 0
3, 37440, Note_on_c, 1, 72, 64
3, 37440, Note_on_c, 1, 76, 64
3, 38400, Note_on_c, 1, 76, 0
3, 38400, Note_on_c, 1, 72, 0
3, 38400, Note_on_c, 1, 76, 64
3, 38400, Note_on_c, 1, 79, 64
3, 39840, Note_on_c, 1, 79, 0
3, 39840, Note_on_c, 1, 76, 0
3, 39840, Note_on_c, 1, 74, 64
3, 39840, Note_on_c, 1, 77, 64
3, 40276, Note_on_c, 1, 74, 0
3, 40286, Note_on_c, 1, 77, 0
3, 40320, Note_on_c, 1, 72, 64
3, 40320, Note_on_c, 1, 76, 64
3, 41160, Note_on_c, 1, 76, 0
3, 41160, Note_on_c, 1, 72, 0
3, 41160, Note_on_c, 1, 79, 64
3, 41160, Note_on_c, 1, 76, 64
3, 41280, Note_on_c, 1, 76, 0
3, 41280, Note_on_c, 1, 79, 0
3, 41280, Note_on_c, 1, 79, 64
3, 41280, Note_on_c, 1, 76, 64
3, 42720, Note_on_c, 1, 76, 0
3, 42720, Note_on_c, 1, 79, 0
3, 42720, Note_on_c, 1, 77, 64
3, 42720, Note_on_c, 1, 74, 64
3, 43174, Note_on_c, 1, 77, 0
3, 43180, Note_on_c, 1, 74, 0
3, 43200, Note_on_c, 1, 76, 64
3, 43200, Note_on_c, 1, 72, 64
3, 43620, Note_on_c, 1, 72, 0
3, 43650, Note_on_c, 1, 76, 0
3, 45120, Note_on_c, 1, 72, 64
3, 45120, Note_on_c, 1, 75, 64
3, 46080, Note_on_c, 1, 76, 45
3, 46144, Note_on_c, 1, 75, 0
3, 48000, Note_on_c, 1, 76, 0
3, 48000, Note_on_c, 1, 77, 45
3, 48000, Note_on_c, 1, 74, 45
3, 48042, Note_on_c, 1, 72, 0
3, 48720, Note_on_c, 1, 74, 0
3, 48720, Note_on_c, 1, 77, 0
3, 48720, Note_on_c, 1, 74, 45
3, 48720, Note_on_c, 1, 71, 45
3, 48960, Note_on_c, 1, 71, 0
3, 48960, Note_on_c, 1, 74, 0
3, 48960, Control_c, 1, 7, 90
3, 48960, Note_on_c, 1, 72, 60
3, 49186, Note_on_c, 1, 72, 0
3, 60480, Note_on_c, 1, 76, 64
3, 60480, Note_on_c, 1, 72, 64
3, 62454, Note_on_c, 1, 72, 0
3, 62454, Note_on_c, 1, 76, 0
3, 62880, Note_on_c, 1, 72, 64
3, 62880, Note_on_c, 1, 76, 64
3, 62944, Note_on_c, 1, 72, 0
3, 62960, Note_on_c, 1, 76, 0
3, 63360, Note_on_c, 1, 72, 64
3, 63360, Note_on_c, 1, 76, 64
3, 63432, Note_on_c, 1, 72, 0
3, 63434, Note_on_c, 1, 76, 0
3, 64320, Note_on_c, 1, 69, 64
3, 64320, Note_on_c, 1, 77, 64
3, 66020, Note_on_c, 1, 69, 0
3, 66156, Note_on_c, 1, 77, 0
3, 66240, Note_on_c, 1, 74, 64
3, 66240, Note_on_c, 1, 77, 64
3, 66292, Note_on_c, 1, 74, 0
3, 66306, Note_on_c, 1, 77, 0
3, 66720, Note_on_c, 1, 74, 64
3, 66720, Note_on_c, 1, 77, 64
3, 66776, Note_on_c, 1, 74, 0
3, 66794, Note_on_c, 1, 77, 0
3, 67200, Note_on_c, 1, 74, 64
3, 67200, Note_on_c, 1, 77, 64
3, 67252, Note_on_c, 1, 74, 0
3, 67262, Note_on_c, 1, 77, 0
3, 68160, Note_on_c, 1, 76, 64
3, 68160, Note_on_c, 1, 72, 64
3, 68210, Note_on_c, 1, 76, 0
3, 68222, Note_on_c, 1, 72, 0
3, 68400, Note_on_c, 1, 79, 64
3, 68400, Note_on_c, 1, 76, 64
3, 68792, Note_on_c, 1, 79, 0
3, 68794, Note_on_c, 1, 76, 0
3, 68880, Note_on_c, 1, 74, 64
3, 68880, Note_on_c, 1, 79, 64
3, 68934, Note_on_c, 1, 74, 0
3, 68946, Note_on_c, 1, 79, 0
3, 69120, Note_on_c, 1, 79, 64
3, 69120, Note_on_c, 1, 76, 64
3, 69144, Note_on_c, 1, 79, 0
3, 69182, Note_on_c, 1, 76, 0
3, 69360, Note_on_c, 1, 72, 64
3, 69360, Note_on_c, 1, 76, 64
3, 69724, Note_on_c, 1, 72, 0
3, 69736, Note_on_c, 1, 76, 0
3, 69840, Note_on_c, 1, 71, 64
3, 69840, Note_on_c, 1, 76, 64
3, 69882, Note_on_c, 1, 71, 0
3, 69896, Note_on_c, 1, 76, 0
3, 70080, Note_on_c, 1, 72, 64
3, 70136, Note_on_c, 1, 72, 0
3, 70320, Note_on_c, 1, 81, 64
3, 70320, Note_on_c, 1, 72, 64
3, 70656, Note_on_c, 1, 81, 0
3, 70674, Note_on_c, 1, 72, 0
3, 70800, Note_on_c, 1, 72, 64
3, 70800, Note_on_c, 1, 82, 64
3, 70856, Note_on_c, 1, 72, 0
3, 70874, Note_on_c, 1, 82, 0
3, 71040, Note_on_c, 1, 72, 64
3, 71040, Note_on_c, 1, 81, 64
3, 71100, Note_on_c, 1, 72, 0
3, 71102, Note_on_c, 1, 81, 0
3, 71280, Note_on_c, 1, 81, 64
3, 71340, Note_on_c, 1, 81, 0
3, 71520, Note_on_c, 1, 77, 64
3, 71520, Note_on_c, 1, 74, 64
3, 71564, Note_on_c, 1, 77, 0
3, 71582, Note_on_c, 1, 74, 0
3, 71760, Note_on_c, 1, 72, 64
3, 71760, Note_on_c, 1, 76, 64
3, 71810, Note_on_c, 1, 72, 0
3, 71814, Note_on_c, 1, 76, 0
3, 72000, Note_on_c, 1, 71, 64
3, 72000, Note_on_c, 1, 74, 64
3, 72054, Note_on_c, 1, 74, 0
3, 72062, Note_on_c, 1, 71, 0
3, 74160, Note_on_c, 1, 77, 64
3, 74160, Note_on_c, 1, 74, 64
3, 74546, Note_on_c, 1, 74, 0
3, 74562, Note_on_c, 1, 77, 0
3, 74640, Note_on_c, 1, 74, 64
3, 74640, Note_on_c, 1, 77, 64
3, 74696, Note_on_c, 1, 74, 0
3, 74704, Note_on_c, 1, 77, 0
3, 74880, Note_on_c, 1, 76, 64
3, 74880, Note_on_c, 1, 72, 64
3, 74922, Note_on_c, 1, 72, 0
3, 74934, Note_on_c, 1, 76, 0
3, 75120, Note_on_c, 1, 84, 64
3, 75120, Note_on_c, 1, 76, 64
3, 75442, Note_on_c, 1, 76, 0
3, 75476, Note_on_c, 1, 84, 0
3, 75600, Note_on_c, 1, 76, 64
3, 75600, Note_on_c, 1, 84, 64
3, 75664, Note_on_c, 1, 76, 0
3, 75670, Note_on_c, 1, 84, 0
3, 75840, Note_on_c, 1, 74, 64
3, 75840, Note_on_c, 1, 83, 64
3, 75892, Note_on_c, 1, 74, 0
3, 75896, Note_on_c, 1, 83, 0
3, 76080, Note_on_c, 1, 78, 64
3, 76080, Note_on_c, 1, 69, 64
3, 76134, Note_on_c, 1, 69, 0
3, 76134, Note_on_c, 1, 78, 0
3, 76320, Note_on_c, 1, 77, 64
3, 76320, Note_on_c, 1, 79, 64
3, 76320, Note_on_c, 1, 71, 64
3, 76346, Note_on_c, 1, 77, 0
3, 76372, Note_on_c, 1, 79, 0
3, 76376, Note_on_c, 1, 71, 0
3, 76560, Note_on_c, 1, 69, 64
3, 76560, Note_on_c, 1, 78, 64
3, 76610, Note_on_c, 1, 69, 0
3, 76622, Note_on_c, 1, 78, 0
3, 76800, Note_on_c, 1, 79, 64
3, 76800, Note_on_c, 1, 71, 64
3, 76862, Note_on_c, 1, 71, 0
3, 76862, Note_on_c, 1, 79, 0
3, 77040, Note_on_c, 1, 69, 64
3, 77040, Note_on_c, 1, 78, 64
3, 77086, Note_on_c, 1, 69, 0
3, 77102, Note_on_c, 1, 78, 0
3, 77280, Note_on_c, 1, 71, 64
3, 77280, Note_on_c, 1, 79, 64
3, 77336, Note_on_c, 1, 71, 0
3, 77342, Note_on_c, 1, 79, 0
3, 77520, Note_on_c, 1, 69, 64
3, 77520, Note_on_c, 1, 78, 64
3, 77576, Note_on_c, 1, 69, 0
3, 77586, Note_on_c, 1, 78, 0
3, 77760, Note_on_c, 1, 79, 64
3, 77760, Note_on_c, 1, 71, 64
3, 77830, Note_on_c, 1, 71, 0
3, 77846, Note_on_c, 1, 79, 0
3, 78240, Note_on_c, 1, 71, 64
3, 78240, Note_on_c, 1, 79, 64
3, 78320, Note_on_c, 1, 71, 0
3, 78322, Note_on_c, 1, 79, 0
3, 78720, Note_on_c, 1, 67, 64
3, 78800, Note_on_c, 1, 67, 0
3, 79680, Note_on_c, 1, 67, 64
3, 79810, Note_on_c, 1, 67, 0
3, 80880, Note_on_c, 1, 67, 64
3, 80952, Note_on_c, 1, 67, 0
3, 81120, Note_on_c, 1, 71, 64
3, 81176, Note_on_c, 1, 71, 0
3, 81360, Note_on_c, 1, 74, 64
3, 81416, Note_on_c, 1, 74, 0
3, 81600, Note_on_c, 1, 79, 64
3, 81682, Note_on_c, 1, 79, 0
3, 82080, Note_on_c, 1, 75, 64
3, 82162, Note_on_c, 1, 75, 0
3, 82560, Note_on_c, 1, 76, 64
3, 82642, Note_on_c, 1, 76, 0
3, 83040, Note_on_c, 1, 72, 64
3, 83106, Note_on_c, 1, 72, 0
3, 83520, Note_on_c, 1, 74, 64
3, 83604, Note_on_c, 1, 74, 0
3, 84720, Note_on_c, 1, 74, 64
3, 84794, Note_on_c, 1, 74, 0
3, 84960, Note_on_c, 1, 76, 64
3, 85022, Note_on_c, 1, 76, 0
3, 85200, Note_on_c, 1, 78, 64
3, 85254, Note_on_c, 1, 78, 0
3, 85440, Note_on_c, 1, 79, 64
3, 85526, Note_on_c, 1, 79, 0
3, 85920, Note_on_c, 1, 72, 64
3, 86012, Note_on_c, 1, 72, 0
3, 86400, Note_on_c, 1, 74, 64
3, 86480, Note_on_c, 1, 74, 0
3, 86880, Note_on_c, 1, 62, 64
3, 86956, Note_on_c, 1, 62, 0
3, 87360, Note_on_c, 1, 67, 64
3, 87444, Note_on_c, 1, 67, 0
3, 96240, Note_on_c, 1, 62, 64
3, 96316, Note_on_c, 1, 62, 0
3, 96480, Note_on_c, 1, 67, 64
3, 96532, Note_on_c, 1, 67, 0
3, 96720, Note_on_c, 1, 71, 64
3, 96772, Note_on_c, 1, 71, 0
3, 96960, Note_on_c, 1, 74, 64
3, 96960, Note_on_c, 1, 72, 64
3, 97032, Note_on_c, 1, 72, 0
3, 98160, Note_on_c, 1, 81, 64
3, 98400, Note_on_c, 1, 78, 64
3, 98426, Note_on_c, 1, 81, 0
3, 98456, Note_on_c, 1, 78, 0
3, 98640, Note_on_c, 1, 72, 64
3, 98680, Note_on_c, 1, 72, 0
3, 98880, Note_on_c, 1, 71, 64
3, 99264, Note_on_c, 1, 71, 0
3, 100080, Note_on_c, 1, 62, 64
3, 100136, Note_on_c, 1, 62, 0
3, 100320, Note_on_c, 1, 67, 64
3, 100366, Note_on_c, 1, 67, 0
3, 100560, Note_on_c, 1, 71, 64
3, 100606, Note_on_c, 1, 71, 0
3, 100800, Note_on_c, 1, 72, 64
3, 100880, Note_on_c, 1, 72, 0
3, 102000, Note_on_c, 1, 81, 64
3, 102240, Note_on_c, 1, 81, 0
3, 102240, Note_on_c, 1, 78, 64
3, 102286, Note_on_c, 1, 78, 0
3, 102480, Note_on_c, 1, 72, 64
3, 102522, Note_on_c, 1, 72, 0
3, 102720, Note_on_c, 1, 70, 64
3, 102792, Note_on_c, 1, 70, 0
3, 102876, Note_on_c, 1, 74, 0
3, 104640, Note_on_c, 1, 82, 64
3, 106560, Note_on_c, 1, 70, 64
3, 108526, Note_on_c, 1, 70, 0
3, 108554, Note_on_c, 1, 82, 0
3, 110400, Note_on_c, 1, 86, 64
3, 110400, Note_on_c, 1, 77, 64
3, 112170, Note_on_c, 1, 77, 0
3, 112212, Note_on_c, 1, 86, 0
3, 112320, Note_on_c, 1, 84, 64
3, 112320, Note_on_c, 1, 75, 64
3, 112410, Note_on_c, 1, 75, 0
3, 112420, Note_on_c, 1, 84, 0
3, 114240, Note_on_c, 1, 72, 64
3, 114240, Note_on_c, 1, 81, 64
3, 116010, Note_on_c, 1, 72, 0
3, 116062, Note_on_c, 1, 81, 0
3, 116160, Note_on_c, 1, 70, 64
3, 116160, Note_on_c, 1, 82, 64
3, 116226, Note_on_c, 1, 70, 0
3, 116232, Note_on_c, 1, 82, 0
3, 116640, Note_on_c, 1, 69, 64
3, 116880, Note_on_c, 1, 72, 64
3, 116884, Note_on_c, 1, 69, 0
3, 116930, Note_on_c, 1, 72, 0
3, 117120, Note_on_c, 1, 67, 64
3, 117360, Note_on_c, 1, 70, 64
3, 117370, Note_on_c, 1, 67, 0
3, 117414, Note_on_c, 1, 70, 0
3, 117600, Note_on_c, 1, 66, 64
3, 117840, Note_on_c, 1, 69, 64
3, 117846, Note_on_c, 1, 66, 0
3, 117876, Note_on_c, 1, 69, 0
3, 118080, Note_on_c, 1, 67, 64
3, 118132, Note_on_c, 1, 67, 0
3, 118800, Note_on_c, 1, 74, 64
3, 118800, Note_on_c, 1, 78, 64
3, 118842, Note_on_c, 1, 74, 0
3, 118860, Note_on_c, 1, 78, 0
3, 119040, Note_on_c, 1, 79, 64
3, 119074, Note_on_c, 1, 79, 0
3, 120720, Note_on_c, 1, 80, 64
3, 120720, Note_on_c, 1, 71, 64
3, 120776, Note_on_c, 1, 80, 0
3, 120782, Note_on_c, 1, 71, 0
3, 120960, Note_on_c, 1, 81, 64
3, 120960, Note_on_c, 1, 72, 64
3, 121026, Note_on_c, 1, 72, 0
3, 121036, Note_on_c, 1, 81, 0
3, 122640, Note_on_c, 1, 73, 64
3, 122640, Note_on_c, 1, 82, 64
3, 122702, Note_on_c, 1, 73, 0
3, 122710, Note_on_c, 1, 82, 0
3, 122880, Note_on_c, 1, 83, 64
3, 122880, Note_on_c, 1, 74, 64
3, 122940, Note_on_c, 1, 74, 0
3, 122956, Note_on_c, 1, 83, 0
3, 124560, Note_on_c, 1, 73, 64
3, 124560, Note_on_c, 1, 76, 64
3, 124620, Note_on_c, 1, 76, 0
3, 124620, Note_on_c, 1, 73, 0
3, 124800, Note_on_c, 1, 74, 64
3, 124800, Note_on_c, 1, 78, 64
3, 124866, Note_on_c, 1, 78, 0
3, 124872, Note_on_c, 1, 74, 0
3, 125520, Note_on_c, 1, 75, 64
3, 125520, Note_on_c, 1, 78, 64
3, 125570, Note_on_c, 1, 75, 0
3, 125574, Note_on_c, 1, 78, 0
3, 125760, Note_on_c, 1, 76, 64
3, 125760, Note_on_c, 1, 79, 64
3, 125812, Note_on_c, 1, 76, 0
3, 125836, Note_on_c, 1, 79, 0
3, 126000, Note_on_c, 1, 75, 64
3, 126064, Note_on_c, 1, 75, 0
3, 126240, Note_on_c, 1, 76, 64
3, 126314, Note_on_c, 1, 76, 0
3, 126480, Note_on_c, 1, 78, 64
3, 126540, Note_on_c, 1, 78, 0
3, 126720, Note_on_c, 1, 79, 64
3, 126784, Note_on_c, 1, 79, 0
3, 126960, Note_on_c, 1, 78, 64
3, 127026, Note_on_c, 1, 78, 0
3, 127200, Note_on_c, 1, 79, 64
3, 127254, Note_on_c, 1, 79, 0
3, 127440, Note_on_c, 1, 81, 64
3, 127512, Note_on_c, 1, 81, 0
3, 127680, Note_on_c, 1, 81, 64
3, 127680, Note_on_c, 1, 83, 64
3, 127706, Note_on_c, 1, 81, 0
3, 127742, Note_on_c, 1, 83, 0
3, 127920, Note_on_c, 1, 78, 64
3, 127984, Note_on_c, 1, 78, 0
3, 128160, Note_on_c, 1, 79, 64
3, 128246, Note_on_c, 1, 79, 0
3, 128400, Note_on_c, 1, 81, 64
3, 128460, Note_on_c, 1, 81, 0
3, 128640, Note_on_c, 1, 83, 64
3, 128702, Note_on_c, 1, 83, 0
3, 128880, Note_on_c, 1, 81, 64
3, 128944, Note_on_c, 1, 81, 0
3, 129120, Note_on_c, 1, 83, 64
3, 129186, Note_on_c, 1, 83, 0
3, 129360, Note_on_c, 1, 84, 64
3, 129436, Note_on_c, 1, 84, 0
3, 129600, Note_on_c, 1, 86, 64
3, 129660, Note_on_c, 1, 86, 0
3, 129840, Note_on_c, 1, 66, 64
3, 130080, Note_on_c, 1, 67, 64
3, 130114, Note_on_c, 1, 66, 0
3, 130320, Note_on_c, 1, 71, 64
3, 130354, Note_on_c, 1, 67, 0
3, 130554, Note_on_c, 1, 71, 0
3, 130560, Note_on_c, 1, 74, 64
3, 131142, Note_on_c, 1, 74, 0
3, 131280, Note_on_c, 1, 75, 64
3, 131366, Note_on_c, 1, 75, 0
3, 131520, Note_on_c, 1, 76, 64
3, 131760, Note_on_c, 1, 75, 64
3, 131796, Note_on_c, 1, 76, 0
3, 132000, Note_on_c, 1, 76, 64
3, 132016, Note_on_c, 1, 75, 0
3, 132240, Note_on_c, 1, 79, 64
3, 132300, Note_on_c, 1, 76, 0
3, 132480, Note_on_c, 1, 83, 64
3, 132516, Note_on_c, 1, 79, 0
3, 132946, Note_on_c, 1, 83, 0
3, 133200, Note_on_c, 1, 71, 64
3, 133270, Note_on_c, 1, 71, 0
3, 133440, Note_on_c, 1, 72, 64
3, 134040, Note_on_c, 1, 69, 64
3, 134062, Note_on_c, 1, 72, 0
3, 134160, Note_on_c, 1, 71, 64
3, 134196, Note_on_c, 1, 69, 0
3, 134280, Note_on_c, 1, 72, 64
3, 134316, Note_on_c, 1, 71, 0
3, 134400, Note_on_c, 1, 74, 64
3, 134404, Note_on_c, 1, 72, 0
3, 134520, Note_on_c, 1, 73, 64
3, 134532, Note_on_c, 1, 74, 0
3, 134640, Note_on_c, 1, 74, 64
3, 134652, Note_on_c, 1, 73, 0
3, 134760, Note_on_c, 1, 73, 64
3, 134780, Note_on_c, 1, 74, 0
3, 134880, Note_on_c, 1, 74, 64
3, 134906, Note_on_c, 1, 73, 0
3, 134966, Note_on_c, 1, 74, 0
3, 135120, Note_on_c, 1, 62, 64
3, 135120, Note_on_c, 1, 74, 64
3, 135184, Note_on_c, 1, 62, 0
3, 135190, Note_on_c, 1, 74, 0
3, 137280, Note_on_c, 1, 76, 64
3, 137400, Note_on_c, 1, 78, 64
3, 137422, Note_on_c, 1, 76, 0
3, 137520, Note_on_c, 1, 76, 64
3, 137540, Note_on_c, 1, 78, 0
3, 137640, Note_on_c, 1, 75, 64
3, 137670, Note_on_c, 1, 76, 0
3, 137760, Note_on_c, 1, 76, 64
3, 137776, Note_on_c, 1, 75, 0
3, 137880, Note_on_c, 1, 78, 64
3, 137924, Note_on_c, 1, 76, 0
3, 138000, Note_on_c, 1, 79, 64
3, 138040, Note_on_c, 1, 78, 0
3, 138120, Note_on_c, 1, 81, 64
3, 138122, Note_on_c, 1, 79, 0
3, 138240, Note_on_c, 1, 83, 64
3, 138290, Note_on_c, 1, 81, 0
3, 138774, Note_on_c, 1, 83, 0
3, 138960, Note_on_c, 1, 71, 64
3, 139032, Note_on_c, 1, 71, 0
3, 139200, Note_on_c, 1, 72, 64
3, 139312, Note_on_c, 1, 72, 0
3, 139680, Note_on_c, 1, 84, 64
3, 139680, Note_on_c, 1, 81, 64
3, 140062, Note_on_c, 1, 84, 0
3, 140072, Note_on_c, 1, 81, 0
3, 140160, Note_on_c, 1, 83, 64
3, 140160, Note_on_c, 1, 79, 64
3, 140582, Note_on_c, 1, 83, 0
3, 140590, Note_on_c, 1, 79, 0
3, 140640, Note_on_c, 1, 78, 64
3, 140640, Note_on_c, 1, 81, 64
3, 140980, Note_on_c, 1, 78, 0
3, 141020, Note_on_c, 1, 81, 0
3, 141120, Note_on_c, 1, 79, 64
3, 141176, Note_on_c, 1, 79, 0
3, 141360, Note_on_c, 1, 74, 64
3, 141730, Note_on_c, 1, 74, 0
3, 141840, Note_on_c, 1, 74, 64
3, 141890, Note_on_c, 1, 74, 0
3, 142080, Note_on_c, 1, 72, 64
3, 142136, Note_on_c, 1, 72, 0
3, 142320, Note_on_c, 1, 71, 64
3, 142380, Note_on_c, 1, 71, 0
3, 142560, Note_on_c, 1, 69, 64
3, 142616, Note_on_c, 1, 69, 0
3, 142800, Note_on_c, 1, 67, 64
3, 142866, Note_on_c, 1, 67, 0
3, 143040, Note_on_c, 1, 66, 64
3, 143094, Note_on_c, 1, 66, 0
3, 145200, Note_on_c, 1, 74, 64
3, 145586, Note_on_c, 1, 74, 0
3, 145680, Note_on_c, 1, 74, 64
3, 145740, Note_on_c, 1, 74, 0
3, 145920, Note_on_c, 1, 72, 64
3, 145984, Note_on_c, 1, 72, 0
3, 146160, Note_on_c, 1, 71, 64
3, 146216, Note_on_c, 1, 71, 0
3, 146400, Note_on_c, 1, 69, 64
3, 146454, Note_on_c, 1, 69, 0
3, 146640, Note_on_c, 1, 67, 64
3, 146706, Note_on_c, 1, 67, 0
3, 146880, Note_on_c, 1, 66, 64
3, 146940, Note_on_c, 1, 66, 0
3, 152880, Note_on_c, 1, 81, 48
3, 153250, Note_on_c, 1, 81, 0
3, 153360, Note_on_c, 1, 79, 48
3, 153414, Note_on_c, 1, 79, 0
3, 153600, Note_on_c, 1, 77, 48
3, 153640, Note_on_c, 1, 77, 0
3, 153840, Note_on_c, 1, 76, 48
3, 153890, Note_on_c, 1, 76, 0
3, 154080, Note_on_c, 1, 74, 48
3, 154132, Note_on_c, 1, 74, 0
3, 154320, Note_on_c, 1, 72, 48
3, 154374, Note_on_c, 1, 72, 0
3, 154560, Note_on_c, 1, 71, 48
3, 154602, Note_on_c, 1, 71, 0
3, 154800, Note_on_c, 1, 69, 48
3, 154842, Note_on_c, 1, 69, 0
3, 155040, Note_on_c, 1, 67, 48
3, 155094, Note_on_c, 1, 67, 0
3, 155280, Note_on_c, 1, 66, 48
3, 155326, Note_on_c, 1, 66, 0
3, 155520, Note_on_c, 1, 67, 48
3, 155580, Note_on_c, 1, 67, 0
3, 155760, Note_on_c, 1, 69, 48
3, 155810, Note_on_c, 1, 69, 0
3, 156000, Note_on_c, 1, 71, 48
3, 156052, Note_on_c, 1, 71, 0
3, 156240, Note_on_c, 1, 72, 48
3, 156292, Note_on_c, 1, 72, 0
3, 156480, Note_on_c, 1, 74, 64
3, 156542, Note_on_c, 1, 74, 0
3, 156720, Note_on_c, 1, 72, 64
3, 156772, Note_on_c, 1, 72, 0
3, 156960, Note_on_c, 1, 71, 64
3, 157006, Note_on_c, 1, 71, 0
3, 157200, Note_on_c, 1, 69, 64
3, 157252, Note_on_c, 1, 69, 0
3, 157440, Note_on_c, 1, 67, 64
3, 157502, Note_on_c, 1, 67, 0
3, 157680, Note_on_c, 1, 69, 64
3, 157734, Note_on_c, 1, 69, 0
3, 157920, Note_on_c, 1, 71, 64
3, 157970, Note_on_c, 1, 71, 0
3, 158160, Note_on_c, 1, 72, 64
3, 158222, Note_on_c, 1, 72, 0
3, 158400, Note_on_c, 1, 74, 64
3, 158466, Note_on_c, 1, 74, 0
3, 158640, Note_on_c, 1, 72, 64
3, 158690, Note_on_c, 1, 72, 0
3, 158880, Note_on_c, 1, 71, 64
3, 158926, Note_on_c, 1, 71, 0
3, 159120, Note_on_c, 1, 81, 64
3, 159120, Note_on_c, 1, 69, 64
3, 159172, Note_on_c, 1, 81, 0
3, 159174, Note_on_c, 1, 69, 0
3, 159360, Note_on_c, 1, 79, 64
3, 159360, Note_on_c, 1, 67, 64
3, 159404, Note_on_c, 1, 67, 0
3, 159404, Note_on_c, 1, 79, 0
3, 159600, Note_on_c, 1, 77, 64
3, 159600, Note_on_c, 1, 65, 64
3, 159634, Note_on_c, 1, 77, 0
3, 159640, Note_on_c, 1, 65, 0
3, 159840, Note_on_c, 1, 64, 64
3, 159840, Note_on_c, 1, 76, 64
3, 159880, Note_on_c, 1, 64, 0
3, 159890, Note_on_c, 1, 76, 0
3, 160080, Note_on_c, 1, 74, 64
3, 160080, Note_on_c, 1, 62, 64
3, 160114, Note_on_c, 1, 74, 0
3, 160122, Note_on_c, 1, 62, 0
3, 160320, Note_on_c, 1, 72, 64
3, 160320, Note_on_c, 1, 60, 64
3, 160344, Note_on_c, 1, 60, 0
3, 160360, Note_on_c, 1, 72, 0
3, 168000, Note_on_c, 1, 72, 64
3, 168000, Note_on_c, 1, 75, 64
3, 169982, Note_on_c, 1, 72, 0
3, 169984, Note_on_c, 1, 75, 0
3, 170400, Note_on_c, 1, 72, 64
3, 170400, Note_on_c, 1, 75, 64
3, 170456, Note_on_c, 1, 72, 0
3, 170466, Note_on_c, 1, 75, 0
3, 170880, Note_on_c, 1, 72, 64
3, 170880, Note_on_c, 1, 75, 64
3, 170936, Note_on_c, 1, 72, 0
3, 170952, Note_on_c, 1, 75, 0
3, 171840, Note_on_c, 1, 77, 64
3, 171840, Note_on_c, 1, 74, 64
3, 173850, Note_on_c, 1, 77, 0
3, 173854, Note_on_c, 1, 74, 0
3, 174240, Note_on_c, 1, 77, 64
3, 174240, Note_on_c, 1, 74, 64
3, 174304, Note_on_c, 1, 74, 0
3, 174304, Note_on_c, 1, 77, 0
3, 174720, Note_on_c, 1, 77, 64
3, 174720, Note_on_c, 1, 74, 64
3, 174786, Note_on_c, 1, 74, 0
3, 174786, Note_on_c, 1, 77, 0
3, 175680, Note_on_c, 1, 75, 64
3, 175680, Note_on_c, 1, 79, 64
3, 175714, Note_on_c, 1, 75, 0
3, 175726, Note_on_c, 1, 79, 0
3, 175920, Note_on_c, 1, 70, 64
3, 175920, Note_on_c, 1, 79, 64
3, 176232, Note_on_c, 1, 79, 0
3, 176232, Note_on_c, 1, 70, 0
3, 176400, Note_on_c, 1, 70, 64
3, 176400, Note_on_c, 1, 78, 64
3, 176444, Note_on_c, 1, 70, 0
3, 176456, Note_on_c, 1, 78, 0
3, 176640, Note_on_c, 1, 79, 64
3, 176640, Note_on_c, 1, 70, 64
3, 176690, Note_on_c, 1, 70, 0
3, 176696, Note_on_c, 1, 79, 0
3, 176880, Note_on_c, 1, 70, 64
3, 176880, Note_on_c, 1, 77, 64
3, 176932, Note_on_c, 1, 70, 0
3, 176934, Note_on_c, 1, 77, 0
3, 177120, Note_on_c, 1, 75, 64
3, 177120, Note_on_c, 1, 70, 64
3, 177170, Note_on_c, 1, 70, 0
3, 177170, Note_on_c, 1, 75, 0
3, 177360, Note_on_c, 1, 69, 64
3, 177360, Note_on_c, 1, 75, 64
3, 177406, Note_on_c, 1, 75, 0
3, 177406, Note_on_c, 1, 69, 0
3, 177600, Note_on_c, 1, 70, 64
3, 177600, Note_on_c, 1, 74, 64
3, 177630, Note_on_c, 1, 70, 0
3, 177640, Note_on_c, 1, 74, 0
3, 179760, Note_on_c, 1, 72, 64
3, 179760, Note_on_c, 1, 80, 64
3, 180080, Note_on_c, 1, 72, 0
3, 180100, Note_on_c, 1, 80, 0
3, 180240, Note_on_c, 1, 79, 64
3, 180240, Note_on_c, 1, 72, 64
3, 180290, Note_on_c, 1, 79, 0
3, 180296, Note_on_c, 1, 72, 0
3, 180480, Note_on_c, 1, 80, 64
3, 180480, Note_on_c, 1, 72, 64
3, 180522, Note_on_c, 1, 72, 0
3, 180534, Note_on_c, 1, 80, 0
3, 180720, Note_on_c, 1, 72, 64
3, 180720, Note_on_c, 1, 79, 64
3, 180770, Note_on_c, 1, 72, 0
3, 180776, Note_on_c, 1, 79, 0
3, 180960, Note_on_c, 1, 72, 64
3, 180960, Note_on_c, 1, 77, 64
3, 181014, Note_on_c, 1, 72, 0
3, 181016, Note_on_c, 1, 77, 0
3, 181200, Note_on_c, 1, 71, 64
3, 181200, Note_on_c, 1, 77, 64
3, 181252, Note_on_c, 1, 71, 0
3, 181256, Note_on_c, 1, 77, 0
3, 181440, Note_on_c, 1, 75, 64
3, 181440, Note_on_c, 1, 72, 64
3, 181494, Note_on_c, 1, 75, 0
3, 181496, Note_on_c, 1, 72, 0
3, 185520, Note_on_c, 1, 77, 64
3, 185520, Note_on_c, 1, 71, 64
3, 185924, Note_on_c, 1, 71, 0
3, 185942, Note_on_c, 1, 77, 0
3, 186000, Note_on_c, 1, 71, 64
3, 186000, Note_on_c, 1, 77, 64
3, 186050, Note_on_c, 1, 71, 0
3, 186070, Note_on_c, 1, 77, 0
3, 186240, Note_on_c, 1, 72, 64
3, 186240, Note_on_c, 1, 75, 64
3, 186292, Note_on_c, 1, 75, 0
3, 186310, Note_on_c, 1, 72, 0
3, 186480, Note_on_c, 1, 75, 64
3, 186480, Note_on_c, 1, 84, 64
3, 186834, Note_on_c, 1, 75, 0
3, 186856, Note_on_c, 1, 84, 0
3, 186960, Note_on_c, 1, 75, 64
3, 186960, Note_on_c, 1, 84, 64
3, 187022, Note_on_c, 1, 75, 0
3, 187036, Note_on_c, 1, 84, 0
3, 187200, Note_on_c, 1, 74, 64
3, 187200, Note_on_c, 1, 83, 64
3, 187270, Note_on_c, 1, 74, 0
3, 187282, Note_on_c, 1, 83, 0
3, 187440, Note_on_c, 1, 75, 64
3, 187440, Note_on_c, 1, 84, 64
3, 187514, Note_on_c, 1, 75, 0
3, 187524, Note_on_c, 1, 84, 0
3, 187680, Note_on_c, 1, 74, 64
3, 187680, Note_on_c, 1, 83, 64
3, 187744, Note_on_c, 1, 74, 0
3, 187760, Note_on_c, 1, 83, 0
3, 187920, Note_on_c, 1, 75, 64
3, 187920, Note_on_c, 1, 84, 64
3, 187994, Note_on_c, 1, 75, 0
3, 188000, Note_on_c, 1, 84, 0
3, 188160, Note_on_c, 1, 74, 64
3, 188160, Note_on_c, 1, 83, 64
3, 188226, Note_on_c, 1, 74, 0
3, 188242, Note_on_c, 1, 83, 0
3, 188400, Note_on_c, 1, 84, 64
3, 188400, Note_on_c, 1, 75, 64
3, 188466, Note_on_c, 1, 75, 0
3, 188476, Note_on_c, 1, 84, 0
3, 188640, Note_on_c, 1, 74, 64
3, 188640, Note_on_c, 1, 83, 64
3, 188702, Note_on_c, 1, 74, 0
3, 188716, Note_on_c, 1, 83, 0
3, 188880, Note_on_c, 1, 75, 64
3, 188880, Note_on_c, 1, 84, 64
3, 188942, Note_on_c, 1, 75, 0
3, 188956, Note_on_c, 1, 84, 0
3, 189120, Note_on_c, 1, 83, 64
3, 189120, Note_on_c, 1, 74, 64
3, 189190, Note_on_c, 1, 74, 0
3, 189226, Note_on_c, 1, 83, 0
3, 189600, Note_on_c, 1, 79, 64
3, 189672, Note_on_c, 1, 79, 0
3, 190080, Note_on_c, 1, 67, 64
3, 190154, Note_on_c, 1, 67, 0
3, 191040, Note_on_c, 1, 72, 64
3, 191102, Note_on_c, 1, 72, 0
3, 192240, Note_on_c, 1, 72, 64
3, 192296, Note_on_c, 1, 72, 0
3, 192480, Note_on_c, 1, 76, 64
3, 192534, Note_on_c, 1, 76, 0
3, 192720, Note_on_c, 1, 79, 64
3, 192776, Note_on_c, 1, 79, 0
3, 192960, Note_on_c, 1, 84, 64
3, 193040, Note_on_c, 1, 84, 0
3, 193440, Note_on_c, 1, 80, 64
3, 193512, Note_on_c, 1, 80, 0
3, 193920, Note_on_c, 1, 81, 64
3, 193984, Note_on_c, 1, 81, 0
3, 194400, Note_on_c, 1, 77, 64
3, 194464, Note_on_c, 1, 77, 0
3, 194880, Note_on_c, 1, 79, 64
3, 194952, Note_on_c, 1, 79, 0
3, 195120, Note_on_c, 1, 67, 64
3, 195120, Note_on_c, 1, 71, 64
3, 195154, Note_on_c, 1, 67, 0
3, 195156, Note_on_c, 1, 71, 0
3, 195360, Note_on_c, 1, 74, 64
3, 195360, Note_on_c, 1, 71, 64
3, 195400, Note_on_c, 1, 71, 0
3, 195400, Note_on_c, 1, 74, 0
3, 195600, Note_on_c, 1, 77, 64
3, 195600, Note_on_c, 1, 74, 64
3, 195646, Note_on_c, 1, 74, 0
3, 195650, Note_on_c, 1, 77, 0
3, 195840, Note_on_c, 1, 77, 64
3, 195840, Note_on_c, 1, 81, 64
3, 196366, Note_on_c, 1, 81, 0
3, 196374, Note_on_c, 1, 77, 0
3, 196560, Note_on_c, 1, 77, 64
3, 196560, Note_on_c, 1, 81, 64
3, 197014, Note_on_c, 1, 77, 0
3, 197022, Note_on_c, 1, 81, 0
3, 197040, Note_on_c, 1, 79, 64
3, 197040, Note_on_c, 1, 76, 64
3, 197440, Note_on_c, 1, 79, 0
3, 197450, Note_on_c, 1, 76, 0
3, 197520, Note_on_c, 1, 77, 64
3, 197520, Note_on_c, 1, 74, 64
3, 197894, Note_on_c, 1, 77, 0
3, 197916, Note_on_c, 1, 74, 0
3, 198000, Note_on_c, 1, 72, 64
3, 198000, Note_on_c, 1, 76, 64
3, 198392, Note_on_c, 1, 72, 0
3, 198420, Note_on_c, 1, 76, 0
3, 198480, Note_on_c, 1, 71, 64
3, 198480, Note_on_c, 1, 74, 64
3, 198544, Note_on_c, 1, 71, 0
3, 198556, Note_on_c, 1, 74, 0
3, 198720, Note_on_c, 1, 72, 64
3, 198720, Note_on_c, 1, 76, 64
3, 198784, Note_on_c, 1, 72, 0
3, 198792, Note_on_c, 1, 76, 0
3, 201840, Note_on_c, 1, 72, 64
3, 201840, Note_on_c, 1, 76, 64
3, 201906, Note_on_c, 1, 72, 0
3, 201916, Note_on_c, 1, 76, 0
3, 202320, Note_on_c, 1, 74, 64
3, 202320, Note_on_c, 1, 77, 64
3, 202374, Note_on_c, 1, 74, 0
3, 202386, Note_on_c, 1, 77, 0
3, 202560, Note_on_c, 1, 71, 64
3, 202560, Note_on_c, 1, 74, 64
3, 202604, Note_on_c, 1, 71, 0
3, 202620, Note_on_c, 1, 74, 0
3, 202800, Note_on_c, 1, 71, 64
3, 202800, Note_on_c, 1, 67, 64
3, 202852, Note_on_c, 1, 71, 0
3, 202856, Note_on_c, 1, 67, 0
3, 203040, Note_on_c, 1, 71, 64
3, 203040, Note_on_c, 1, 74, 64
3, 203092, Note_on_c, 1, 74, 0
3, 203092, Note_on_c, 1, 71, 0
3, 203280, Note_on_c, 1, 77, 64
3, 203280, Note_on_c, 1, 74, 64
3, 203334, Note_on_c, 1, 77, 0
3, 203340, Note_on_c, 1, 74, 0
3, 203520, Note_on_c, 1, 81, 64
3, 203520, Note_on_c, 1, 77, 64
3, 204574, Note_on_c, 1, 81, 0
3, 204582, Note_on_c, 1, 77, 0
3, 204720, Note_on_c, 1, 79, 64
3, 204720, Note_on_c, 1, 76, 64
3, 205024, Note_on_c, 1, 79, 0
3, 205032, Note_on_c, 1, 76, 0
3, 205200, Note_on_c, 1, 74, 64
3, 205200, Note_on_c, 1, 77, 64
3, 205492, Note_on_c, 1, 74, 0
3, 205512, Note_on_c, 1, 77, 0
3, 205680, Note_on_c, 1, 72, 64
3, 205680, Note_on_c, 1, 76, 64
3, 205982, Note_on_c, 1, 72, 0
3, 205992, Note_on_c, 1, 76, 0
3, 206160, Note_on_c, 1, 71, 64
3, 206160, Note_on_c, 1, 74, 64
3, 206204, Note_on_c, 1, 71, 0
3, 206206, Note_on_c, 1, 74, 0
3, 206400, Note_on_c, 1, 64, 64
3, 206400, Note_on_c, 1, 72, 64
3, 206536, Note_on_c, 1, 64, 0
3, 206554, Note_on_c, 1, 72, 0
3, 207600, Note_on_c, 1, 67, 64
3, 207666, Note_on_c, 1, 67, 0
3, 207840, Note_on_c, 1, 72, 64
3, 207900, Note_on_c, 1, 72, 0
3, 208080, Note_on_c, 1, 76, 64
3, 208144, Note_on_c, 1, 76, 0
3, 208320, Note_on_c, 1, 77, 64
3, 208432, Note_on_c, 1, 77, 0
3, 209520, Note_on_c, 1, 74, 64
3, 209760, Note_on_c, 1, 71, 64
3, 209776, Note_on_c, 1, 74, 0
3, 209812, Note_on_c, 1, 71, 0
3, 210000, Note_on_c, 1, 65, 64
3, 210052, Note_on_c, 1, 65, 0
3, 210240, Note_on_c, 1, 64, 64
3, 210296, Note_on_c, 1, 64, 0
3, 211440, Note_on_c, 1, 67, 64
3, 211504, Note_on_c, 1, 67, 0
3, 211680, Note_on_c, 1, 72, 64
3, 211722, Note_on_c, 1, 72, 0
3, 211920, Note_on_c, 1, 76, 64
3, 211984, Note_on_c, 1, 76, 0
3, 212160, Note_on_c, 1, 77, 64
3, 212232, Note_on_c, 1, 77, 0
3, 213360, Note_on_c, 1, 74, 64
3, 213594, Note_on_c, 1, 74, 0
3, 213600, Note_on_c, 1, 71, 64
3, 213656, Note_on_c, 1, 71, 0
3, 213840, Note_on_c, 1, 65, 64
3, 213906, Note_on_c, 1, 65, 0
3, 214080, Note_on_c, 1, 63, 64
3, 214162, Note_on_c, 1, 63, 0
3, 215040, Note_on_c, 1, 75, 64
3, 219870, Note_on_c, 1, 75, 0
3, 221760, Note_on_c, 1, 79, 64
3, 221760, Note_on_c, 1, 70, 64
3, 223504, Note_on_c, 1, 70, 0
3, 223540, Note_on_c, 1, 79, 0
3, 223680, Note_on_c, 1, 68, 64
3, 223680, Note_on_c, 1, 77, 64
3, 223774, Note_on_c, 1, 68, 0
3, 223784, Note_on_c, 1, 77, 0
3, 225600, Note_on_c, 1, 77, 64
3, 225600, Note_on_c, 1, 86, 64
3, 227304, Note_on_c, 1, 77, 0
3, 227412, Note_on_c, 1, 86, 0
3, 227520, Note_on_c, 1, 84, 64
3, 227520, Note_on_c, 1, 75, 64
3, 227616, Note_on_c, 1, 75, 0
3, 227636, Note_on_c, 1, 84, 0
3, 228000, Note_on_c, 1, 74, 64
3, 228240, Note_on_c, 1, 77, 64
3, 228254, Note_on_c, 1, 74, 0
3, 228282, Note_on_c, 1, 77, 0
3, 228480, Note_on_c, 1, 72, 64
3, 228720, Note_on_c, 1, 75, 64
3, 228732, Note_on_c, 1, 72, 0
3, 228774, Note_on_c, 1, 75, 0
3, 228960, Note_on_c, 1, 71, 64
3, 229200, Note_on_c, 1, 74, 64
3, 229206, Note_on_c, 1, 71, 0
3, 229260, Note_on_c, 1, 74, 0
3, 229440, Note_on_c, 1, 72, 64
3, 229512, Note_on_c, 1, 72, 0
3, 230160, Note_on_c, 1, 77, 64
3, 230160, Note_on_c, 1, 74, 64
3, 230174, Note_on_c, 1, 77, 0
3, 230182, Note_on_c, 1, 74, 0
3, 230400, Note_on_c, 1, 76, 64
3, 230400, Note_on_c, 1, 72, 64
3, 230450, Note_on_c, 1, 72, 0
3, 230454, Note_on_c, 1, 76, 0
3, 232080, Note_on_c, 1, 76, 64
3, 232080, Note_on_c, 1, 73, 64
3, 232136, Note_on_c, 1, 76, 0
3, 232142, Note_on_c, 1, 73, 0
3, 232320, Note_on_c, 1, 74, 64
3, 232320, Note_on_c, 1, 77, 64
3, 232382, Note_on_c, 1, 74, 0
3, 232396, Note_on_c, 1, 77, 0
3, 234000, Note_on_c, 1, 78, 64
3, 234000, Note_on_c, 1, 75, 64
3, 234060, Note_on_c, 1, 75, 0
3, 234060, Note_on_c, 1, 78, 0
3, 234240, Note_on_c, 1, 79, 64
3, 234240, Note_on_c, 1, 76, 64
3, 234310, Note_on_c, 1, 79, 0
3, 234312, Note_on_c, 1, 76, 0
3, 235920, Note_on_c, 1, 72, 64
3, 235920, Note_on_c, 1, 81, 64
3, 235980, Note_on_c, 1, 72, 0
3, 235986, Note_on_c, 1, 81, 0
3, 236160, Note_on_c, 1, 71, 64
3, 236160, Note_on_c, 1, 79, 64
3, 236226, Note_on_c, 1, 71, 0
3, 236236, Note_on_c, 1, 79, 0
3, 236880, Note_on_c, 1, 74, 64
3, 236880, Note_on_c, 1, 83, 64
3, 236946, Note_on_c, 1, 74, 0
3, 236966, Note_on_c, 1, 83, 0
3, 237120, Note_on_c, 1, 81, 64
3, 237120, Note_on_c, 1, 72, 64
3, 237190, Note_on_c, 1, 72, 0
3, 237204, Note_on_c, 1, 81, 0
3, 239280, Note_on_c, 1, 71, 64
3, 239366, Note_on_c, 1, 71, 0
3, 239520, Note_on_c, 1, 72, 64
3, 239600, Note_on_c, 1, 72, 0
3, 239760, Note_on_c, 1, 74, 64
3, 239840, Note_on_c, 1, 74, 0
3, 240000, Note_on_c, 1, 76, 64
3, 240072, Note_on_c, 1, 76, 0
3, 240240, Note_on_c, 1, 74, 64
3, 240300, Note_on_c, 1, 74, 0
3, 240480, Note_on_c, 1, 76, 64
3, 240542, Note_on_c, 1, 76, 0
3, 240720, Note_on_c, 1, 77, 64
3, 240794, Note_on_c, 1, 77, 0
3, 240960, Note_on_c, 1, 79, 64
3, 241016, Note_on_c, 1, 79, 0
3, 241200, Note_on_c, 1, 71, 64
3, 241440, Note_on_c, 1, 72, 64
3, 241470, Note_on_c, 1, 71, 0
3, 241680, Note_on_c, 1, 76, 64
3, 241724, Note_on_c, 1, 72, 0
3, 241920, Note_on_c, 1, 79, 64
3, 241946, Note_on_c, 1, 76, 0
3, 242524, Note_on_c, 1, 79, 0
3, 242640, Note_on_c, 1, 80, 64
3, 242740, Note_on_c, 1, 80, 0
3, 242880, Note_on_c, 1, 81, 64
3, 242966, Note_on_c, 1, 81, 0
3, 243840, Note_on_c, 1, 76, 64
3, 244444, Note_on_c, 1, 76, 0
3, 244560, Note_on_c, 1, 80, 64
3, 244672, Note_on_c, 1, 80, 0
3, 244800, Note_on_c, 1, 81, 64
3, 244970, Note_on_c, 1, 81, 0
3, 246720, Note_on_c, 1, 79, 64
3, 246720, Note_on_c, 1, 76, 64
3, 248252, Note_on_c, 1, 79, 0
3, 248266, Note_on_c, 1, 76, 0
3, 248400, Note_on_c, 1, 77, 64
3, 248400, Note_on_c, 1, 74, 64
3, 248526, Note_on_c, 1, 77, 0
3, 248552, Note_on_c, 1, 74, 0
3, 248640, Note_on_c, 1, 76, 64
3, 248640, Note_on_c, 1, 72, 64
3, 249304, Note_on_c, 1, 72, 0
3, 249322, Note_on_c, 1, 76, 0
3, 249600, Note_on_c, 1, 72, 64
3, 249600, Note_on_c, 1, 76, 64
3, 250160, Note_on_c, 1, 72, 0
3, 250224, Note_on_c, 1, 76, 0
3, 250320, Note_on_c, 1, 80, 64
3, 250320, Note_on_c, 1, 71, 64
3, 250414, Note_on_c, 1, 71, 0
3, 250422, Note_on_c, 1, 80, 0
3, 250560, Note_on_c, 1, 69, 64
3, 250560, Note_on_c, 1, 81, 64
3, 250756, Note_on_c, 1, 69, 0
3, 250766, Note_on_c, 1, 81, 0
3, 252720, Note_on_c, 1, 79, 64
3, 253080, Note_on_c, 1, 79, 0
3, 253200, Note_on_c, 1, 79, 64
3, 253262, Note_on_c, 1, 79, 0
3, 253440, Note_on_c, 1, 77, 64
3, 253490, Note_on_c, 1, 77, 0
3, 253680, Note_on_c, 1, 76, 64
3, 253724, Note_on_c, 1, 76, 0
3, 253920, Note_on_c, 1, 74, 64
3, 253966, Note_on_c, 1, 74, 0
3, 254160, Note_on_c, 1, 72, 64
3, 254204, Note_on_c, 1, 72, 0
3, 254400, Note_on_c, 1, 71, 64
3, 254450, Note_on_c, 1, 71, 0
3, 256560, Note_on_c, 1, 79, 64
3, 256944, Note_on_c, 1, 79, 0
3, 257040, Note_on_c, 1, 79, 64
3, 257096, Note_on_c, 1, 79, 0
3, 257280, Note_on_c, 1, 77, 64
3, 257346, Note_on_c, 1, 77, 0
3, 257520, Note_on_c, 1, 76, 64
3, 257574, Note_on_c, 1, 76, 0
3, 257760, Note_on_c, 1, 74, 64
3, 257816, Note_on_c, 1, 74, 0
3, 258000, Note_on_c, 1, 72, 64
3, 258056, Note_on_c, 1, 72, 0
3, 258240, Note_on_c, 1, 71, 64
3, 258292, Note_on_c, 1, 71, 0
3, 262320, Note_on_c, 1, 72, 64
3, 262696, Note_on_c, 1, 72, 0
3, 262800, Note_on_c, 1, 72, 64
3, 262864, Note_on_c, 1, 72, 0
3, 263280, Note_on_c, 1, 73, 64
3, 263650, Note_on_c, 1, 73, 0
3, 263760, Note_on_c, 1, 73, 64
3, 263812, Note_on_c, 1, 73, 0
3, 264240, Note_on_c, 1, 74, 64
3, 264612, Note_on_c, 1, 74, 0
3, 264720, Note_on_c, 1, 74, 64
3, 264772, Note_on_c, 1, 74, 0
3, 265200, Note_on_c, 1, 75, 64
3, 265514, Note_on_c, 1, 75, 0
3, 265680, Note_on_c, 1, 75, 64
3, 265744, Note_on_c, 1, 75, 0
3, 265920, Note_on_c, 1, 80, 64
3, 267840, Note_on_c, 1, 77, 64
3, 267960, Note_on_c, 1, 77, 0
3, 267994, Note_on_c, 1, 80, 0
3, 268320, Note_on_c, 1, 75, 64
3, 268320, Note_on_c, 1, 80, 64
3, 269192, Note_on_c, 1, 75, 0
3, 269202, Note_on_c, 1, 80, 0
3, 269280, Note_on_c, 1, 80, 64
3, 269280, Note_on_c, 1, 75, 64
3, 269712, Note_on_c, 1, 75, 0
3, 269760, Note_on_c, 1, 77, 64
3, 270046, Note_on_c, 1, 80, 0
3, 270052, Note_on_c, 1, 77, 0
3, 270240, Note_on_c, 1, 81, 64
3, 270240, Note_on_c, 1, 75, 64
3, 270800, Note_on_c, 1, 75, 0
3, 270802, Note_on_c, 1, 81, 0
3, 270960, Note_on_c, 1, 75, 64
3, 270960, Note_on_c, 1, 81, 64
3, 271014, Note_on_c, 1, 75, 0
3, 271026, Note_on_c, 1, 81, 0
3, 271200, Note_on_c, 1, 75, 64
3, 271200, Note_on_c, 1, 81, 64
3, 271246, Note_on_c, 1, 75, 0
3, 271262, Note_on_c, 1, 81, 0
3, 271440, Note_on_c, 1, 75, 64
3, 271440, Note_on_c, 1, 81, 64
3, 271482, Note_on_c, 1, 75, 0
3, 271512, Note_on_c, 1, 81, 0
3, 271680, Note_on_c, 1, 79, 64
3, 271680, Note_on_c, 1, 76, 64
3, 272520, Note_on_c, 1, 79, 0
3, 272544, Note_on_c, 1, 76, 0
3, 272640, Note_on_c, 1, 77, 64
3, 272640, Note_on_c, 1, 72, 64
3, 273504, Note_on_c, 1, 72, 0
3, 273504, Note_on_c, 1, 77, 0
3, 273600, Note_on_c, 1, 84, 64
3, 273600, Note_on_c, 1, 72, 64
3, 274892, Note_on_c, 1, 72, 0
3, 274924, Note_on_c, 1, 84, 0
3, 275040, Note_on_c, 1, 77, 64
3, 275040, Note_on_c, 1, 74, 64
3, 275382, Note_on_c, 1, 77, 0
3, 275400, Note_on_c, 1, 74, 0
3, 275520, Note_on_c, 1, 72, 64
3, 275520, Note_on_c, 1, 76, 64
3, 275606, Note_on_c, 1, 76, 0
3, 275610, Note_on_c, 1, 72, 0
3, 276000, Note_on_c, 1, 72, 64
3, 276000, Note_on_c, 1, 76, 64
3, 276366, Note_on_c, 1, 72, 0
3, 276376, Note_on_c, 1, 76, 0
3, 276960, Note_on_c, 1, 73, 64
3, 276960, Note_on_c, 1, 76, 64
3, 277412, Note_on_c, 1, 73, 0
3, 277420, Note_on_c, 1, 76, 0
3, 277920, Note_on_c, 1, 74, 64
3, 277920, Note_on_c, 1, 77, 64
3, 278354, Note_on_c, 1, 77, 0
3, 278354, Note_on_c, 1, 74, 0
3, 278880, Note_on_c, 1, 71, 64
3, 278880, Note_on_c, 1, 74, 64
3, 279322, Note_on_c, 1, 71, 0
3, 279336, Note_on_c, 1, 74, 0
3, 279840, Note_on_c, 1, 76, 64
3, 279840, Note_on_c, 1, 72, 64
3, 280276, Note_on_c, 1, 76, 0
3, 280286, Note_on_c, 1, 72, 0
3, 280800, Note_on_c, 1, 76, 64
3, 280800, Note_on_c, 1, 73, 64
3, 281256, Note_on_c, 1, 76, 0
3, 281262, Note_on_c, 1, 73, 0
3, 281760, Note_on_c, 1, 74, 64
3, 281760, Note_on_c, 1, 77, 64
3, 282210, Note_on_c, 1, 74, 0
3, 282214, Note_on_c, 1, 77, 0
3, 282720, Note_on_c, 1, 71, 64
3, 282720, Note_on_c, 1, 74, 64
3, 283070, Note_on_c, 1, 71, 0
3, 283082, Note_on_c, 1, 74, 0
3, 283200, Note_on_c, 1, 76, 64
3, 283200, Note_on_c, 1, 72, 64
3, 283532, Note_on_c, 1, 76, 0
3, 283546, Note_on_c, 1, 72, 0
3, 283680, Note_on_c, 1, 73, 64
3, 283680, Note_on_c, 1, 76, 64
3, 283994, Note_on_c, 1, 73, 0
3, 284012, Note_on_c, 1, 76, 0
3, 284160, Note_on_c, 1, 77, 64
3, 284160, Note_on_c, 1, 74, 64
3, 284470, Note_on_c, 1, 77, 0
3, 284474, Note_on_c, 1, 74, 0
3, 284640, Note_on_c, 1, 71, 64
3, 284640, Note_on_c, 1, 74, 64
3, 284924, Note_on_c, 1, 71, 0
3, 284976, Note_on_c, 1, 74, 0
3, 285120, Note_on_c, 1, 72, 64
3, 285120, Note_on_c, 1, 76, 64
3, 285192, Note_on_c, 1, 76, 0
3, 285192, Note_on_c, 1, 72, 0
3, 285360, Note_on_c, 1, 76, 64
3, 285360, Note_on_c, 1, 72, 64
3, 285420, Note_on_c, 1, 72, 0
3, 285420, Note_on_c, 1, 76, 0
3, 285600, Note_on_c, 1, 73, 64
3, 285600, Note_on_c, 1, 76, 64
3, 285662, Note_on_c, 1, 73, 0
3, 285666, Note_on_c, 1, 76, 0
3, 285840, Note_on_c, 1, 73, 64
3, 285840, Note_on_c, 1, 76, 64
3, 285904, Note_on_c, 1, 73, 0
3, 285906, Note_on_c, 1, 76, 0
3, 286080, Note_on_c, 1, 77, 64
3, 286080, Note_on_c, 1, 74, 64
3, 286144, Note_on_c, 1, 74, 0
3, 286144, Note_on_c, 1, 77, 0
3, 286320, Note_on_c, 1, 74, 64
3, 286320, Note_on_c, 1, 77, 64
3, 286384, Note_on_c, 1, 77, 0
3, 286384, Note_on_c, 1, 74, 0
3, 286560, Note_on_c, 1, 74, 64
3, 286560, Note_on_c, 1, 71, 64
3, 286630, Note_on_c, 1, 74, 0
3, 286632, Note_on_c, 1, 71, 0
3, 286800, Note_on_c, 1, 74, 64
3, 286800, Note_on_c, 1, 71, 64
3, 286860, Note_on_c, 1, 71, 0
3, 286870, Note_on_c, 1, 74, 0
3, 287040, Note_on_c, 1, 72, 64
3, 287206, Note_on_c, 1, 72, 0
3, 287520, Note_on_c, 1, 84, 64
3, 288084, Note_on_c, 1, 84, 0
3, 288240, Note_on_c, 1, 84, 64
3, 288300, Note_on_c, 1, 84, 0
3, 288480, Note_on_c, 1, 83, 64
3, 288540, Note_on_c, 1, 83, 0
3, 288720, Note_on_c, 1, 81, 64
3, 288772, Note_on_c, 1, 81, 0
3, 288960, Note_on_c, 1, 79, 64
3, 290014, Note_on_c, 1, 79, 0
3, 290160, Note_on_c, 1, 81, 64
3, 290220, Note_on_c, 1, 81, 0
3, 290400, Note_on_c, 1, 79, 64
3, 290460, Note_on_c, 1, 79, 0
3, 290640, Note_on_c, 1, 77, 64
3, 290702, Note_on_c, 1, 77, 0
3, 290880, Note_on_c, 1, 76, 64
3, 291972, Note_on_c, 1, 76, 0
3, 292080, Note_on_c, 1, 77, 64
3, 292140, Note_on_c, 1, 77, 0
3, 292320, Note_on_c, 1, 76, 64
3, 292376, Note_on_c, 1, 76, 0
3, 292560, Note_on_c, 1, 74, 64
3, 292616, Note_on_c, 1, 74, 0
3, 292800, Note_on_c, 1, 72, 64
3, 292862, Note_on_c, 1, 72, 0
3, 293040, Note_on_c, 1, 81, 64
3, 293106, Note_on_c, 1, 81, 0
3, 293280, Note_on_c, 1, 79, 64
3, 293342, Note_on_c, 1, 79, 0
3, 293520, Note_on_c, 1, 77, 64
3, 293582, Note_on_c, 1, 77, 0
3, 293760, Note_on_c, 1, 76, 64
3, 293832, Note_on_c, 1, 76, 0
3, 294000, Note_on_c, 1, 81, 64
3, 294066, Note_on_c, 1, 81, 0
3, 294240, Note_on_c, 1, 79, 64
3, 294302, Note_on_c, 1, 79, 0
3, 294480, Note_on_c, 1, 77, 64
3, 294536, Note_on_c, 1, 77, 0
3, 294720, Note_on_c, 1, 76, 64
3, 294792, Note_on_c, 1, 76, 0
3, 294960, Note_on_c, 1, 81, 64
3, 295026, Note_on_c, 1, 81, 0
3, 295200, Note_on_c, 1, 79, 64
3, 295272, Note_on_c, 1, 79, 0
3, 295440, Note_on_c, 1, 77, 64
3, 295524, Note_on_c, 1, 77, 0
3, 295680, Note_on_c, 1, 76, 64
3, 295750, Note_on_c, 1, 76, 0
3, 295920, Note_on_c, 1, 81, 64
3, 295994, Note_on_c, 1, 81, 0
3, 296160, Note_on_c, 1, 79, 64
3, 296224, Note_on_c, 1, 79, 0
3, 296400, Note_on_c, 1, 77, 64
3, 296466, Note_on_c, 1, 77, 0
3, 296640, Note_on_c, 1, 76, 64
3, 296832, Note_on_c, 1, 76, 0
3, 297120, Note_on_c, 1, 72, 64
3, 297120, Note_on_c, 1, 76, 64
3, 297312, Note_on_c, 1, 76, 0
3, 297312, Note_on_c, 1, 72, 0
3, 298080, Note_on_c, 1, 76, 64
3, 298080, Note_on_c, 1, 84, 64
3, 298272, Note_on_c, 1, 84, 0
3, 298272, Note_on_c, 1, 76, 0
3, 299040, Note_on_c, 1, 84, 64
3, 299040, Note_on_c, 1, 76, 64
3, 299232, Note_on_c, 1, 76, 0
3, 299232, Note_on_c, 1, 84, 0
3, 300000, Note_on_c, 1, 76, 64
3, 300000, Note_on_c, 1, 84, 64
3, 300192, Note_on_c, 1, 84, 0
3, 300192, Note_on_c, 1, 76, 0
3, 300480, Note_on_c, 1, 76, 64
3, 300480, Note_on_c, 1, 84, 64
3, 300672, Note_on_c, 1, 84, 0
3, 300672, Note_on_c, 1, 76, 0
3, 301440, Note_on_c, 1, 76, 64
3, 301440, Note_on_c, 1, 79, 64
3, 301632, Note_on_c, 1, 79, 0
3, 301632, Note_on_c, 1, 76, 0
3, 302400, Note_on_c, 1, 72, 64
3, 302400, Note_on_c, 1, 76, 64
3, 302520, Note_on_c, 1, 76, 0
3, 302520, Note_on_c, 1, 72, 0
3, 303360, Note_on_c, 1, 76, 96
3, 303360, Note_on_c, 1, 84, 96
3, 303480, Note_on_c, 1, 84, 0
3, 303480, Note_on_c, 1, 76, 0
3, 303840, Note_on_c, 1, 76, 96
3, 303840, Note_on_c, 1, 84, 96
3, 303960, Note_on_c, 1, 84, 0
3, 303960, Note_on_c, 1, 76, 0
3, 304320, Note_on_c, 1, 84, 96
3, 304320, Note_on_c, 1, 76, 96
3, 304440, Note_on_c, 1, 76, 0
3, 304440, Note_on_c, 1, 84, 0
3, 304440, End_track
4, 0, Start_track
4, 0, Title_t, "Clarinets"
4, 0, Program_c, 2, 71
4, 0, Control_c, 2, 7, 90
4, 0, Control_c, 2, 10, 54
4, 0, Control_c, 2, 10, 54
4, 960, Note_on_c, 2, 72, 80
4, 960, Note_on_c, 2, 64, 80
4, 1200, Note_on_c, 2, 64, 0
4, 1200, Note_on_c, 2, 72, 0
4, 3840, Note_on_c, 2, 72, 80
4, 3840, Note_on_c, 2, 65, 80
4, 4080, Note_on_c, 2, 65, 0
4, 4080, Note_on_c, 2, 72, 0
4, 6720, Note_on_c, 2, 72, 80
4, 6720, Note_on_c, 2, 66, 80
4, 6960, Note_on_c, 2, 66, 0
4, 6960, Note_on_c, 2, 72, 0
4, 7680, Note_on_c, 2, 72, 80
4, 7680, Note_on_c, 2, 66, 80
4, 7920, Note_on_c, 2, 66, 0
4, 7920, Note_on_c, 2, 72, 0
4, 8640, Note_on_c, 2, 66, 80
4, 8640, Note_on_c, 2, 72, 80
4, 8880, Note_on_c, 2, 72, 0
4, 8880, Note_on_c, 2, 66, 0
4, 9600, Note_on_c, 2, 67, 96
4, 9600, Note_on_c, 2, 71, 96
4, 9840, Note_on_c, 2, 71, 0
4, 9840, Note_on_c, 2, 67, 0
4, 10440, Note_on_c, 2, 55, 96
4, 10530, Note_on_c, 2, 55, 0
4, 10560, Note_on_c, 2, 55, 96
4, 12840, Note_on_c, 2, 55, 0
4, 37440, Note_on_c, 2, 64, 64
4, 37440, Note_on_c, 2, 60, 64
4, 38400, Note_on_c, 2, 60, 0
4, 38400, Note_on_c, 2, 64, 0
4, 38400, Note_on_c, 2, 67, 64
4, 38400, Note_on_c, 2, 64, 64
4, 39840, Note_on_c, 2, 64, 0
4, 39840, Note_on_c, 2, 67, 0
4, 39840, Note_on_c, 2, 62, 64
4, 39840, Note_on_c, 2, 65, 64
4, 40276, Note_on_c, 2, 62, 0
4, 40286, Note_on_c, 2, 65, 0
4, 40320, Note_on_c, 2, 64, 64
4, 40320, Note_on_c, 2, 60, 64
4, 41160, Note_on_c, 2, 60, 0
4, 41160, Note_on_c, 2, 64, 0
4, 41160, Note_on_c, 2, 64, 64
4, 41160, Note_on_c, 2, 67, 64
4, 41280, Note_on_c, 2, 67, 0
4, 41280, Note_on_c, 2, 64, 0
4, 41280, Note_on_c, 2, 67, 64
4, 41280, Note_on_c, 2, 64, 64
4, 42720, Note_on_c, 2, 64, 0
4, 42720, Note_on_c, 2, 67, 0
4, 42720, Note_on_c, 2, 65, 64
4, 42720, Note_on_c, 2, 62, 64
4, 43174, Note_on_c, 2, 65, 0
4, 43180, Note_on_c, 2, 62, 0
4, 43200, Note_on_c, 2, 60, 64
4, 43200, Note_on_c, 2, 64, 64
4, 43620, Note_on_c, 2, 60, 0
4, 43650, Note_on_c, 2, 64, 0
4, 45120, Note_on_c, 2, 60, 64
4, 45120, Note_on_c, 2, 63, 64
4, 46080, Note_on_c, 2, 64, 45
4, 46144, Note_on_c, 2, 63, 0
4, 48000, Note_on_c, 2, 64, 0
4, 48000, Note_on_c, 2, 62, 45
4, 48000, Note_on_c, 2, 65, 45
4, 48042, Note_on_c, 2, 60, 0
4, 48720, Note_on_c, 2, 65, 0
4, 48720, Note_on_c, 2, 62, 0
4, 48720, Note_on_c, 2, 62, 45
4, 48720, Note_on_c, 2, 59, 45
4, 48960, Note_on_c, 2, 59, 0
4, 48960, Note_on_c, 2, 62, 0
4, 48960, Note_on_c, 2, 60, 60
4, 49186, Note_on_c, 2, 60, 0
4, 60480, Note_on_c, 2, 67, 64
4, 60480, Note_on_c, 2, 64, 64
4, 62422, Note_on_c, 2, 64, 0
4, 62422, Note_on_c, 2, 67, 0
4, 62880, Note_on_c, 2, 64, 64
4, 62880, Note_on_c, 2, 67, 64
4, 62950, Note_on_c, 2, 64, 0
4, 62954, Note_on_c, 2, 67, 0
4, 63360, Note_on_c, 2, 67, 64
4, 63360, Note_on_c, 2, 64, 64
4, 63424, Note_on_c, 2, 64, 0
4, 63434, Note_on_c, 2, 67, 0
4, 64320, Note_on_c, 2, 69, 64
4, 64320, Note_on_c, 2, 65, 64
4, 66146, Note_on_c, 2, 65, 0
4, 66146, Note_on_c, 2, 69, 0
4, 66240, Note_on_c, 2, 65, 64
4, 66240, Note_on_c, 2, 67, 64
4, 66304, Note_on_c, 2, 67, 0
4, 66304, Note_on_c, 2, 65, 0
4, 66720, Note_on_c, 2, 67, 64
4, 66720, Note_on_c, 2, 65, 64
4, 66800, Note_on_c, 2, 65, 0
4, 66800, Note_on_c, 2, 67, 0
4, 67200, Note_on_c, 2, 65, 64
4, 67200, Note_on_c, 2, 67, 64
4, 67250, Note_on_c, 2, 67, 0
4, 67266, Note_on_c, 2, 65, 0
4, 68160, Note_on_c, 2, 64, 64
4, 68160, Note_on_c, 2, 67, 64
4, 68210, Note_on_c, 2, 64, 0
4, 68216, Note_on_c, 2, 67, 0
4, 68400, Note_on_c, 2, 64, 64
4, 68400, Note_on_c, 2, 67, 64
4, 68782, Note_on_c, 2, 64, 0
4, 68786, Note_on_c, 2, 67, 0
4, 68880, Note_on_c, 2, 67, 64
4, 68880, Note_on_c, 2, 62, 64
4, 68936, Note_on_c, 2, 67, 0
4, 68940, Note_on_c, 2, 62, 0
4, 69120, Note_on_c, 2, 64, 64
4, 69172, Note_on_c, 2, 64, 0
4, 69360, Note_on_c, 2, 64, 64
4, 69360, Note_on_c, 2, 72, 64
4, 69722, Note_on_c, 2, 64, 0
4, 69736, Note_on_c, 2, 72, 0
4, 69840, Note_on_c, 2, 71, 64
4, 69840, Note_on_c, 2, 64, 64
4, 69894, Note_on_c, 2, 71, 0
4, 69906, Note_on_c, 2, 64, 0
4, 70080, Note_on_c, 2, 60, 64
4, 70080, Note_on_c, 2, 72, 64
4, 70130, Note_on_c, 2, 72, 0
4, 70130, Note_on_c, 2, 60, 0
4, 70320, Note_on_c, 2, 72, 64
4, 70320, Note_on_c, 2, 69, 64
4, 70654, Note_on_c, 2, 72, 0
4, 70692, Note_on_c, 2, 69, 0
4, 70800, Note_on_c, 2, 72, 64
4, 70800, Note_on_c, 2, 67, 64
4, 70846, Note_on_c, 2, 72, 0
4, 70862, Note_on_c, 2, 67, 0
4, 71040, Note_on_c, 2, 69, 64
4, 71040, Note_on_c, 2, 72, 64
4, 71092, Note_on_c, 2, 69, 0
4, 71102, Note_on_c, 2, 72, 0
4, 71280, Note_on_c, 2, 65, 64
4, 71280, Note_on_c, 2, 69, 64
4, 71336, Note_on_c, 2, 69, 0
4, 71340, Note_on_c, 2, 65, 0
4, 71520, Note_on_c, 2, 65, 64
4, 71520, Note_on_c, 2, 62, 64
4, 71570, Note_on_c, 2, 65, 0
4, 71576, Note_on_c, 2, 62, 0
4, 71760, Note_on_c, 2, 64, 64
4, 71760, Note_on_c, 2, 60, 64
4, 71802, Note_on_c, 2, 64, 0
4, 71806, Note_on_c, 2, 60, 0
4, 72000, Note_on_c, 2, 62, 64
4, 72000, Note_on_c, 2, 59, 64
4, 72042, Note_on_c, 2, 59, 0
4, 72046, Note_on_c, 2, 62, 0
4, 72240, Note_on_c, 2, 65, 64
4, 72240, Note_on_c, 2, 71, 64
4, 72646, Note_on_c, 2, 65, 0
4, 72652, Note_on_c, 2, 71, 0
4, 72720, Note_on_c, 2, 71, 64
4, 72720, Note_on_c, 2, 65, 64
4, 72780, Note_on_c, 2, 71, 0
4, 72792, Note_on_c, 2, 65, 0
4, 72960, Note_on_c, 2, 72, 64
4, 72960, Note_on_c, 2, 64, 64
4, 73030, Note_on_c, 2, 64, 0
4, 73044, Note_on_c, 2, 72, 0
4, 74160, Note_on_c, 2, 65, 64
4, 74160, Note_on_c, 2, 71, 64
4, 74564, Note_on_c, 2, 65, 0
4, 74566, Note_on_c, 2, 71, 0
4, 74640, Note_on_c, 2, 71, 64
4, 74640, Note_on_c, 2, 65, 64
4, 74704, Note_on_c, 2, 71, 0
4, 74710, Note_on_c, 2, 65, 0
4, 74880, Note_on_c, 2, 64, 64
4, 74880, Note_on_c, 2, 72, 64
4, 74944, Note_on_c, 2, 64, 0
4, 74946, Note_on_c, 2, 72, 0
4, 75120, Note_on_c, 2, 72, 64
4, 75120, Note_on_c, 2, 64, 64
4, 75502, Note_on_c, 2, 72, 0
4, 75510, Note_on_c, 2, 64, 0
4, 75600, Note_on_c, 2, 72, 64
4, 75600, Note_on_c, 2, 64, 64
4, 75656, Note_on_c, 2, 72, 0
4, 75666, Note_on_c, 2, 64, 0
4, 75840, Note_on_c, 2, 62, 64
4, 75840, Note_on_c, 2, 71, 64
4, 75912, Note_on_c, 2, 62, 0
4, 75936, Note_on_c, 2, 71, 0
4, 76080, Note_on_c, 2, 66, 64
4, 76080, Note_on_c, 2, 69, 64
4, 76174, Note_on_c, 2, 66, 0
4, 76184, Note_on_c, 2, 69, 0
4, 76320, Note_on_c, 2, 67, 64
4, 76320, Note_on_c, 2, 71, 64
4, 76410, Note_on_c, 2, 67, 0
4, 76416, Note_on_c, 2, 71, 0
4, 76560, Note_on_c, 2, 69, 64
4, 76560, Note_on_c, 2, 66, 64
4, 76624, Note_on_c, 2, 66, 0
4, 76624, Note_on_c, 2, 69, 0
4, 76800, Note_on_c, 2, 67, 64
4, 76800, Note_on_c, 2, 71, 64
4, 76870, Note_on_c, 2, 67, 0
4, 76872, Note_on_c, 2, 71, 0
4, 77040, Note_on_c, 2, 66, 64
4, 77040, Note_on_c, 2, 69, 64
4, 77094, Note_on_c, 2, 69, 0
4, 77100, Note_on_c, 2, 66, 0
4, 77280, Note_on_c, 2, 67, 64
4, 77280, Note_on_c, 2, 71, 64
4, 77340, Note_on_c, 2, 67, 0
4, 77350, Note_on_c, 2, 71, 0
4, 77520, Note_on_c, 2, 69, 64
4, 77520, Note_on_c, 2, 66, 64
4, 77580, Note_on_c, 2, 66, 0
4, 77580, Note_on_c, 2, 69, 0
4, 77760, Note_on_c, 2, 71, 64
4, 77760, Note_on_c, 2, 67, 64
4, 77846, Note_on_c, 2, 71, 0
4, 77852, Note_on_c, 2, 67, 0
4, 78240, Note_on_c, 2, 67, 64
4, 78240, Note_on_c, 2, 79, 64
4, 78340, Note_on_c, 2, 79, 0
4, 78340, Note_on_c, 2, 67, 0
4, 78720, Note_on_c, 2, 55, 64
4, 78720, Note_on_c, 2, 67, 64
4, 78806, Note_on_c, 2, 55, 0
4, 78814, Note_on_c, 2, 67, 0
4, 87600, Note_on_c, 2, 62, 64
4, 87600, Note_on_c, 2, 59, 64
4, 87644, Note_on_c, 2, 62, 0
4, 87646, Note_on_c, 2, 59, 0
4, 87840, Note_on_c, 2, 67, 64
4, 87840, Note_on_c, 2, 62, 64
4, 87874, Note_on_c, 2, 67, 0
4, 87886, Note_on_c, 2, 62, 0
4, 88080, Note_on_c, 2, 67, 64
4, 88080, Note_on_c, 2, 71, 64
4, 88130, Note_on_c, 2, 67, 0
4, 88134, Note_on_c, 2, 71, 0
4, 88320, Note_on_c, 2, 74, 64
4, 88320, Note_on_c, 2, 71, 64
4, 89760, Note_on_c, 2, 71, 0
4, 89760, Note_on_c, 2, 74, 0
4, 89760, Note_on_c, 2, 72, 64
4, 89760, Note_on_c, 2, 69, 64
4, 90240, Note_on_c, 2, 71, 64
4, 90240, Note_on_c, 2, 67, 64
4, 90246, Note_on_c, 2, 72, 0
4, 90256, Note_on_c, 2, 69, 0
4, 90720, Note_on_c, 2, 69, 64
4, 90720, Note_on_c, 2, 72, 64
4, 90746, Note_on_c, 2, 67, 0
4, 90780, Note_on_c, 2, 71, 0
4, 91112, Note_on_c, 2, 69, 0
4, 91172, Note_on_c, 2, 72, 0
4, 91200, Note_on_c, 2, 66, 64
4, 91200, Note_on_c, 2, 69, 64
4, 91256, Note_on_c, 2, 66, 0
4, 91262, Note_on_c, 2, 69, 0
4, 91440, Note_on_c, 2, 62, 64
4, 91440, Note_on_c, 2, 66, 64
4, 91492, Note_on_c, 2, 62, 0
4, 91494, Note_on_c, 2, 66, 0
4, 91680, Note_on_c, 2, 66, 64
4, 91680, Note_on_c, 2, 69, 64
4, 91724, Note_on_c, 2, 66, 0
4, 91736, Note_on_c, 2, 69, 0
4, 91920, Note_on_c, 2, 69, 64
4, 91920, Note_on_c, 2, 72, 64
4, 91974, Note_on_c, 2, 69, 0
4, 91980, Note_on_c, 2, 72, 0
4, 92160, Note_on_c, 2, 72, 64
4, 92160, Note_on_c, 2, 76, 64
4, 93334, Note_on_c, 2, 76, 0
4, 93342, Note_on_c, 2, 72, 0
4, 93360, Note_on_c, 2, 74, 64
4, 93360, Note_on_c, 2, 71, 64
4, 93752, Note_on_c, 2, 71, 0
4, 93774, Note_on_c, 2, 74, 0
4, 93840, Note_on_c, 2, 72, 64
4, 93840, Note_on_c, 2, 69, 64
4, 94254, Note_on_c, 2, 72, 0
4, 94280, Note_on_c, 2, 69, 0
4, 94320, Note_on_c, 2, 71, 64
4, 94320, Note_on_c, 2, 67, 64
4, 94700, Note_on_c, 2, 71, 0
4, 94740, Note_on_c, 2, 67, 0
4, 94800, Note_on_c, 2, 66, 64
4, 94800, Note_on_c, 2, 69, 64
4, 94890, Note_on_c, 2, 66, 0
4, 94920, Note_on_c, 2, 69, 0
4, 95040, Note_on_c, 2, 74, 64
4, 95040, Note_on_c, 2, 62, 64
4, 97062, Note_on_c, 2, 74, 0
4, 97200, Note_on_c, 2, 69, 64
4, 97440, Note_on_c, 2, 66, 64
4, 97500, Note_on_c, 2, 66, 0
4, 97684, Note_on_c, 2, 69, 0
4, 98160, Note_on_c, 2, 69, 64
4, 98374, Note_on_c, 2, 62, 0
4, 98400, Note_on_c, 2, 66, 64
4, 98412, Note_on_c, 2, 69, 0
4, 98470, Note_on_c, 2, 66, 0
4, 98640, Note_on_c, 2, 60, 64
4, 98710, Note_on_c, 2, 60, 0
4, 98880, Note_on_c, 2, 59, 64
4, 99010, Note_on_c, 2, 59, 0
4, 102000, Note_on_c, 2, 69, 64
4, 102222, Note_on_c, 2, 69, 0
4, 102240, Note_on_c, 2, 66, 64
4, 102286, Note_on_c, 2, 66, 0
4, 102480, Note_on_c, 2, 60, 64
4, 102536, Note_on_c, 2, 60, 0
4, 102720, Note_on_c, 2, 58, 64
4, 103012, Note_on_c, 2, 58, 0
4, 110400, Note_on_c, 2, 74, 64
4, 110400, Note_on_c, 2, 77, 64
4, 112204, Note_on_c, 2, 77, 0
4, 112210, Note_on_c, 2, 74, 0
4, 112320, Note_on_c, 2, 72, 64
4, 112320, Note_on_c, 2, 75, 64
4, 112424, Note_on_c, 2, 75, 0
4, 112430, Note_on_c, 2, 72, 0
4, 114240, Note_on_c, 2, 72, 64
4, 114240, Note_on_c, 2, 69, 64
4, 116034, Note_on_c, 2, 72, 0
4, 116062, Note_on_c, 2, 69, 0
4, 116160, Note_on_c, 2, 70, 64
4, 116160, Note_on_c, 2, 67, 64
4, 116256, Note_on_c, 2, 70, 0
4, 116266, Note_on_c, 2, 67, 0
4, 118800, Note_on_c, 2, 69, 64
4, 118800, Note_on_c, 2, 66, 64
4, 118874, Note_on_c, 2, 66, 0
4, 118874, Note_on_c, 2, 69, 0
4, 119040, Note_on_c, 2, 67, 64
4, 119040, Note_on_c, 2, 71, 64
4, 119114, Note_on_c, 2, 67, 0
4, 119142, Note_on_c, 2, 71, 0
4, 120720, Note_on_c, 2, 71, 64
4, 120720, Note_on_c, 2, 68, 64
4, 120792, Note_on_c, 2, 71, 0
4, 120804, Note_on_c, 2, 68, 0
4, 120960, Note_on_c, 2, 69, 64
4, 120960, Note_on_c, 2, 72, 64
4, 121036, Note_on_c, 2, 69, 0
4, 121056, Note_on_c, 2, 72, 0
4, 124560, Note_on_c, 2, 67, 64
4, 124560, Note_on_c, 2, 64, 64
4, 124626, Note_on_c, 2, 67, 0
4, 124630, Note_on_c, 2, 64, 0
4, 124800, Note_on_c, 2, 62, 64
4, 124800, Note_on_c, 2, 66, 64
4, 124876, Note_on_c, 2, 62, 0
4, 124880, Note_on_c, 2, 66, 0
4, 125520, Note_on_c, 2, 69, 64
4, 125520, Note_on_c, 2, 66, 64
4, 125586, Note_on_c, 2, 66, 0
4, 125586, Note_on_c, 2, 69, 0
4, 125760, Note_on_c, 2, 64, 64
4, 125760, Note_on_c, 2, 67, 64
4, 125830, Note_on_c, 2, 64, 0
4, 125834, Note_on_c, 2, 67, 0
4, 126000, Note_on_c, 2, 63, 64
4, 126056, Note_on_c, 2, 63, 0
4, 126240, Note_on_c, 2, 64, 64
4, 126314, Note_on_c, 2, 64, 0
4, 126480, Note_on_c, 2, 66, 64
4, 126542, Note_on_c, 2, 66, 0
4, 126720, Note_on_c, 2, 67, 64
4, 126780, Note_on_c, 2, 67, 0
4, 126960, Note_on_c, 2, 66, 64
4, 127022, Note_on_c, 2, 66, 0
4, 127200, Note_on_c, 2, 67, 64
4, 127272, Note_on_c, 2, 67, 0
4, 127440, Note_on_c, 2, 69, 64
4, 127496, Note_on_c, 2, 69, 0
4, 127680, Note_on_c, 2, 71, 64
4, 127752, Note_on_c, 2, 71, 0
4, 127920, Note_on_c, 2, 66, 64
4, 127982, Note_on_c, 2, 66, 0
4, 128160, Note_on_c, 2, 67, 64
4, 128240, Note_on_c, 2, 67, 0
4, 128400, Note_on_c, 2, 69, 64
4, 128456, Note_on_c, 2, 69, 0
4, 128640, Note_on_c, 2, 71, 64
4, 128706, Note_on_c, 2, 71, 0
4, 128880, Note_on_c, 2, 69, 64
4, 128936, Note_on_c, 2, 69, 0
4, 129120, Note_on_c, 2, 71, 64
4, 129182, Note_on_c, 2, 71, 0
4, 129360, Note_on_c, 2, 72, 64
4, 129420, Note_on_c, 2, 72, 0
4, 129600, Note_on_c, 2, 74, 64
4, 129670, Note_on_c, 2, 74, 0
4, 131280, Note_on_c, 2, 63, 64
4, 131382, Note_on_c, 2, 63, 0
4, 131520, Note_on_c, 2, 64, 64
4, 131760, Note_on_c, 2, 63, 64
4, 131790, Note_on_c, 2, 64, 0
4, 132000, Note_on_c, 2, 64, 64
4, 132022, Note_on_c, 2, 63, 0
4, 132240, Note_on_c, 2, 67, 64
4, 132266, Note_on_c, 2, 64, 0
4, 132480, Note_on_c, 2, 71, 64
4, 132496, Note_on_c, 2, 67, 0
4, 133026, Note_on_c, 2, 71, 0
4, 133200, Note_on_c, 2, 71, 64
4, 133270, Note_on_c, 2, 71, 0
4, 133440, Note_on_c, 2, 72, 64
4, 134040, Note_on_c, 2, 69, 64
4, 134080, Note_on_c, 2, 72, 0
4, 134160, Note_on_c, 2, 71, 64
4, 134184, Note_on_c, 2, 69, 0
4, 134280, Note_on_c, 2, 72, 64
4, 134312, Note_on_c, 2, 71, 0
4, 134400, Note_on_c, 2, 74, 64
4, 134414, Note_on_c, 2, 72, 0
4, 134520, Note_on_c, 2, 73, 64
4, 134542, Note_on_c, 2, 74, 0
4, 134640, Note_on_c, 2, 74, 64
4, 134666, Note_on_c, 2, 73, 0
4, 134760, Note_on_c, 2, 73, 64
4, 134772, Note_on_c, 2, 74, 0
4, 134880, Note_on_c, 2, 74, 64
4, 134922, Note_on_c, 2, 73, 0
4, 134946, Note_on_c, 2, 74, 0
4, 135120, Note_on_c, 2, 60, 64
4, 135120, Note_on_c, 2, 62, 64
4, 135120, Note_on_c, 2, 74, 64
4, 135154, Note_on_c, 2, 60, 0
4, 135166, Note_on_c, 2, 62, 0
4, 135184, Note_on_c, 2, 74, 0
4, 135360, Note_on_c, 2, 67, 64
4, 135480, Note_on_c, 2, 69, 64
4, 135504, Note_on_c, 2, 67, 0
4, 135600, Note_on_c, 2, 67, 64
4, 135612, Note_on_c, 2, 69, 0
4, 135720, Note_on_c, 2, 66, 64
4, 135740, Note_on_c, 2, 67, 0
4, 135840, Note_on_c, 2, 67, 64
4, 135856, Note_on_c, 2, 66, 0
4, 135960, Note_on_c, 2, 69, 64
4, 135986, Note_on_c, 2, 67, 0
4, 136080, Note_on_c, 2, 71, 64
4, 136122, Note_on_c, 2, 69, 0
4, 136200, Note_on_c, 2, 72, 64
4, 136234, Note_on_c, 2, 71, 0
4, 136320, Note_on_c, 2, 74, 64
4, 136360, Note_on_c, 2, 72, 0
4, 136852, Note_on_c, 2, 74, 0
4, 137040, Note_on_c, 2, 75, 64
4, 137120, Note_on_c, 2, 75, 0
4, 137280, Note_on_c, 2, 76, 64
4, 137400, Note_on_c, 2, 66, 64
4, 137414, Note_on_c, 2, 76, 0
4, 137520, Note_on_c, 2, 64, 64
4, 137526, Note_on_c, 2, 66, 0
4, 137640, Note_on_c, 2, 63, 64
4, 137652, Note_on_c, 2, 64, 0
4, 137760, Note_on_c, 2, 64, 64
4, 137764, Note_on_c, 2, 63, 0
4, 137880, Note_on_c, 2, 64, 0
4, 137880, Note_on_c, 2, 66, 64
4, 138000, Note_on_c, 2, 67, 64
4, 138026, Note_on_c, 2, 66, 0
4, 138120, Note_on_c, 2, 69, 64
4, 138140, Note_on_c, 2, 67, 0
4, 138240, Note_on_c, 2, 71, 64
4, 138272, Note_on_c, 2, 69, 0
4, 138796, Note_on_c, 2, 71, 0
4, 138960, Note_on_c, 2, 71, 64
4, 139026, Note_on_c, 2, 71, 0
4, 139200, Note_on_c, 2, 72, 64
4, 139320, Note_on_c, 2, 71, 64
4, 139350, Note_on_c, 2, 72, 0
4, 139440, Note_on_c, 2, 72, 64
4, 139484, Note_on_c, 2, 71, 0
4, 139560, Note_on_c, 2, 71, 64
4, 139592, Note_on_c, 2, 72, 0
4, 139680, Note_on_c, 2, 72, 64
4, 139730, Note_on_c, 2, 71, 0
4, 139800, Note_on_c, 2, 69, 64
4, 139816, Note_on_c, 2, 72, 0
4, 139920, Note_on_c, 2, 71, 64
4, 139964, Note_on_c, 2, 69, 0
4, 140040, Note_on_c, 2, 72, 64
4, 140102, Note_on_c, 2, 71, 0
4, 140110, Note_on_c, 2, 72, 0
4, 140160, Note_on_c, 2, 74, 64
4, 140280, Note_on_c, 2, 73, 64
4, 140302, Note_on_c, 2, 74, 0
4, 140400, Note_on_c, 2, 74, 64
4, 140422, Note_on_c, 2, 73, 0
4, 140520, Note_on_c, 2, 73, 64
4, 140546, Note_on_c, 2, 74, 0
4, 140640, Note_on_c, 2, 74, 64
4, 140716, Note_on_c, 2, 73, 0
4, 140724, Note_on_c, 2, 74, 0
4, 140880, Note_on_c, 2, 74, 64
4, 140934, Note_on_c, 2, 74, 0
4, 141120, Note_on_c, 2, 67, 64
4, 141256, Note_on_c, 2, 67, 0
4, 152880, Note_on_c, 2, 69, 48
4, 153232, Note_on_c, 2, 69, 0
4, 153360, Note_on_c, 2, 67, 48
4, 153420, Note_on_c, 2, 67, 0
4, 153600, Note_on_c, 2, 65, 48
4, 153646, Note_on_c, 2, 65, 0
4, 153840, Note_on_c, 2, 64, 48
4, 153890, Note_on_c, 2, 64, 0
4, 154080, Note_on_c, 2, 62, 48
4, 154126, Note_on_c, 2, 62, 0
4, 154320, Note_on_c, 2, 60, 48
4, 154354, Note_on_c, 2, 60, 0
4, 154560, Note_on_c, 2, 59, 48
4, 154616, Note_on_c, 2, 59, 0
4, 154800, Note_on_c, 2, 69, 48
4, 154834, Note_on_c, 2, 69, 0
4, 155040, Note_on_c, 2, 67, 48
4, 155084, Note_on_c, 2, 67, 0
4, 155280, Note_on_c, 2, 66, 48
4, 155322, Note_on_c, 2, 66, 0
4, 155520, Note_on_c, 2, 67, 48
4, 155576, Note_on_c, 2, 67, 0
4, 155760, Note_on_c, 2, 69, 48
4, 155810, Note_on_c, 2, 69, 0
4, 156000, Note_on_c, 2, 71, 48
4, 156052, Note_on_c, 2, 71, 0
4, 156240, Note_on_c, 2, 72, 48
4, 156294, Note_on_c, 2, 72, 0
4, 156480, Note_on_c, 2, 74, 64
4, 156540, Note_on_c, 2, 74, 0
4, 156720, Note_on_c, 2, 72, 64
4, 156782, Note_on_c, 2, 72, 0
4, 156960, Note_on_c, 2, 71, 64
4, 157016, Note_on_c, 2, 71, 0
4, 157200, Note_on_c, 2, 69, 64
4, 157260, Note_on_c, 2, 69, 0
4, 157440, Note_on_c, 2, 67, 64
4, 157512, Note_on_c, 2, 67, 0
4, 157680, Note_on_c, 2, 69, 64
4, 157734, Note_on_c, 2, 69, 0
4, 157920, Note_on_c, 2, 71, 64
4, 157980, Note_on_c, 2, 71, 0
4, 158160, Note_on_c, 2, 72, 64
4, 158222, Note_on_c, 2, 72, 0
4, 158400, Note_on_c, 2, 74, 64
4, 158466, Note_on_c, 2, 74, 0
4, 158640, Note_on_c, 2, 72, 64
4, 158692, Note_on_c, 2, 72, 0
4, 158880, Note_on_c, 2, 71, 64
4, 158936, Note_on_c, 2, 71, 0
4, 159120, Note_on_c, 2, 69, 64
4, 159180, Note_on_c, 2, 69, 0
4, 159360, Note_on_c, 2, 67, 64
4, 159434, Note_on_c, 2, 67, 0
4, 159600, Note_on_c, 2, 65, 64
4, 159660, Note_on_c, 2, 65, 0
4, 159840, Note_on_c, 2, 64, 64
4, 159920, Note_on_c, 2, 64, 0
4, 160080, Note_on_c, 2, 62, 64
4, 160134, Note_on_c, 2, 62, 0
4, 160320, Note_on_c, 2, 60, 64
4, 160446, Note_on_c, 2, 60, 0
4, 168000, Note_on_c, 2, 67, 64
4, 168000, Note_on_c, 2, 63, 64
4, 169972, Note_on_c, 2, 63, 0
4, 169972, Note_on_c, 2, 67, 0
4, 170400, Note_on_c, 2, 63, 64
4, 170400, Note_on_c, 2, 67, 64
4, 170486, Note_on_c, 2, 63, 0
4, 170504, Note_on_c, 2, 67, 0
4, 170880, Note_on_c, 2, 67, 64
4, 170880, Note_on_c, 2, 63, 64
4, 170976, Note_on_c, 2, 63, 0
4, 170990, Note_on_c, 2, 67, 0
4, 171840, Note_on_c, 2, 68, 64
4, 171840, Note_on_c, 2, 65, 64
4, 173824, Note_on_c, 2, 65, 0
4, 173840, Note_on_c, 2, 68, 0
4, 174240, Note_on_c, 2, 65, 64
4, 174240, Note_on_c, 2, 68, 64
4, 174316, Note_on_c, 2, 65, 0
4, 174326, Note_on_c, 2, 68, 0
4, 174720, Note_on_c, 2, 68, 64
4, 174720, Note_on_c, 2, 65, 64
4, 174792, Note_on_c, 2, 65, 0
4, 174804, Note_on_c, 2, 68, 0
4, 175680, Note_on_c, 2, 63, 64
4, 175680, Note_on_c, 2, 67, 64
4, 175746, Note_on_c, 2, 63, 0
4, 175752, Note_on_c, 2, 67, 0
4, 177840, Note_on_c, 2, 65, 64
4, 177840, Note_on_c, 2, 73, 64
4, 178192, Note_on_c, 2, 65, 0
4, 178216, Note_on_c, 2, 73, 0
4, 178320, Note_on_c, 2, 72, 64
4, 178320, Note_on_c, 2, 65, 64
4, 178372, Note_on_c, 2, 72, 0
4, 178380, Note_on_c, 2, 65, 0
4, 178560, Note_on_c, 2, 73, 64
4, 178560, Note_on_c, 2, 65, 64
4, 178610, Note_on_c, 2, 65, 0
4, 178616, Note_on_c, 2, 73, 0
4, 178800, Note_on_c, 2, 65, 64
4, 178800, Note_on_c, 2, 72, 64
4, 178850, Note_on_c, 2, 65, 0
4, 178862, Note_on_c, 2, 72, 0
4, 179040, Note_on_c, 2, 65, 64
4, 179040, Note_on_c, 2, 70, 64
4, 179096, Note_on_c, 2, 65, 0
4, 179102, Note_on_c, 2, 70, 0
4, 179280, Note_on_c, 2, 64, 64
4, 179280, Note_on_c, 2, 70, 64
4, 179334, Note_on_c, 2, 64, 0
4, 179344, Note_on_c, 2, 70, 0
4, 179520, Note_on_c, 2, 68, 64
4, 179520, Note_on_c, 2, 65, 64
4, 179604, Note_on_c, 2, 68, 0
4, 179606, Note_on_c, 2, 65, 0
4, 181680, Note_on_c, 2, 67, 64
4, 181680, Note_on_c, 2, 75, 64
4, 182044, Note_on_c, 2, 67, 0
4, 182062, Note_on_c, 2, 75, 0
4, 182160, Note_on_c, 2, 74, 64
4, 182160, Note_on_c, 2, 67, 64
4, 182212, Note_on_c, 2, 74, 0
4, 182222, Note_on_c, 2, 67, 0
4, 182400, Note_on_c, 2, 67, 64
4, 182400, Note_on_c, 2, 75, 64
4, 182452, Note_on_c, 2, 67, 0
4, 182464, Note_on_c, 2, 75, 0
4, 182640, Note_on_c, 2, 67, 64
4, 182640, Note_on_c, 2, 74, 64
4, 182690, Note_on_c, 2, 67, 0
4, 182694, Note_on_c, 2, 74, 0
4, 182880, Note_on_c, 2, 67, 64
4, 182880, Note_on_c, 2, 72, 64
4, 182932, Note_on_c, 2, 72, 0
4, 182932, Note_on_c, 2, 67, 0
4, 183120, Note_on_c, 2, 66, 64
4, 183120, Note_on_c, 2, 72, 64
4, 183164, Note_on_c, 2, 66, 0
4, 183186, Note_on_c, 2, 72, 0
4, 183360, Note_on_c, 2, 67, 64
4, 183360, Note_on_c, 2, 71, 64
4, 183410, Note_on_c, 2, 67, 0
4, 183422, Note_on_c, 2, 71, 0
4, 186480, Note_on_c, 2, 75, 64
4, 186480, Note_on_c, 2, 72, 64
4, 186850, Note_on_c, 2, 72, 0
4, 186862, Note_on_c, 2, 75, 0
4, 186960, Note_on_c, 2, 72, 64
4, 186960, Note_on_c, 2, 75, 64
4, 187030, Note_on_c, 2, 72, 0
4, 187042, Note_on_c, 2, 75, 0
4, 187200, Note_on_c, 2, 71, 64
4, 187200, Note_on_c, 2, 74, 64
4, 187266, Note_on_c, 2, 74, 0
4, 187266, Note_on_c, 2, 71, 0
4, 187440, Note_on_c, 2, 75, 64
4, 187440, Note_on_c, 2, 72, 64
4, 187494, Note_on_c, 2, 72, 0
4, 187510, Note_on_c, 2, 75, 0
4, 187680, Note_on_c, 2, 74, 64
4, 187680, Note_on_c, 2, 71, 64
4, 187736, Note_on_c, 2, 71, 0
4, 187736, Note_on_c, 2, 74, 0
4, 187920, Note_on_c, 2, 72, 64
4, 187920, Note_on_c, 2, 75, 64
4, 187984, Note_on_c, 2, 72, 0
4, 187996, Note_on_c, 2, 75, 0
4, 188160, Note_on_c, 2, 71, 64
4, 188160, Note_on_c, 2, 74, 64
4, 188222, Note_on_c, 2, 74, 0
4, 188222, Note_on_c, 2, 71, 0
4, 188400, Note_on_c, 2, 75, 64
4, 188400, Note_on_c, 2, 72, 64
4, 188452, Note_on_c, 2, 72, 0
4, 188474, Note_on_c, 2, 75, 0
4, 188640, Note_on_c, 2, 74, 64
4, 188640, Note_on_c, 2, 71, 64
4, 188694, Note_on_c, 2, 74, 0
4, 188700, Note_on_c, 2, 71, 0
4, 188880, Note_on_c, 2, 72, 64
4, 188880, Note_on_c, 2, 75, 64
4, 188930, Note_on_c, 2, 72, 0
4, 188946, Note_on_c, 2, 75, 0
4, 189120, Note_on_c, 2, 71, 64
4, 189120, Note_on_c, 2, 74, 64
4, 189206, Note_on_c, 2, 71, 0
4, 189212, Note_on_c, 2, 74, 0
4, 189600, Note_on_c, 2, 67, 64
4, 189600, Note_on_c, 2, 79, 64
4, 189696, Note_on_c, 2, 67, 0
4, 189714, Note_on_c, 2, 79, 0
4, 190080, Note_on_c, 2, 67, 64
4, 190176, Note_on_c, 2, 67, 0
4, 196080, Note_on_c, 2, 67, 45
4, 196156, Note_on_c, 2, 67, 0
4, 196320, Note_on_c, 2, 69, 45
4, 196380, Note_on_c, 2, 69, 0
4, 196560, Note_on_c, 2, 71, 45
4, 196630, Note_on_c, 2, 71, 0
4, 196800, Note_on_c, 2, 72, 45
4, 196906, Note_on_c, 2, 72, 0
4, 197280, Note_on_c, 2, 65, 45
4, 197376, Note_on_c, 2, 65, 0
4, 197760, Note_on_c, 2, 67, 45
4, 197860, Note_on_c, 2, 67, 0
4, 198240, Note_on_c, 2, 55, 45
4, 198240, Note_on_c, 2, 67, 45
4, 198326, Note_on_c, 2, 55, 0
4, 198346, Note_on_c, 2, 67, 0
4, 198720, Note_on_c, 2, 60, 64
4, 198774, Note_on_c, 2, 60, 0
4, 198960, Note_on_c, 2, 64, 64
4, 198960, Note_on_c, 2, 67, 64
4, 199012, Note_on_c, 2, 64, 0
4, 199014, Note_on_c, 2, 67, 0
4, 199200, Note_on_c, 2, 72, 64
4, 199200, Note_on_c, 2, 67, 64
4, 199262, Note_on_c, 2, 67, 0
4, 199262, Note_on_c, 2, 72, 0
4, 199440, Note_on_c, 2, 72, 64
4, 199440, Note_on_c, 2, 76, 64
4, 199500, Note_on_c, 2, 72, 0
4, 199504, Note_on_c, 2, 76, 0
4, 199680, Note_on_c, 2, 76, 64
4, 199680, Note_on_c, 2, 79, 64
4, 201120, Note_on_c, 2, 76, 0
4, 201120, Note_on_c, 2, 77, 64
4, 201120, Note_on_c, 2, 74, 64
4, 201124, Note_on_c, 2, 79, 0
4, 201590, Note_on_c, 2, 77, 0
4, 201600, Note_on_c, 2, 72, 64
4, 201600, Note_on_c, 2, 76, 64
4, 201622, Note_on_c, 2, 74, 0
4, 202080, Note_on_c, 2, 74, 64
4, 202080, Note_on_c, 2, 77, 64
4, 202136, Note_on_c, 2, 72, 0
4, 202156, Note_on_c, 2, 76, 0
4, 202486, Note_on_c, 2, 74, 0
4, 202506, Note_on_c, 2, 77, 0
4, 202560, Note_on_c, 2, 71, 45
4, 202560, Note_on_c, 2, 74, 45
4, 202614, Note_on_c, 2, 74, 0
4, 202622, Note_on_c, 2, 71, 0
4, 202800, Note_on_c, 2, 55, 45
4, 202800, Note_on_c, 2, 59, 45
4, 202820, Note_on_c, 2, 59, 0
4, 202826, Note_on_c, 2, 55, 0
4, 203040, Note_on_c, 2, 59, 45
4, 203040, Note_on_c, 2, 62, 45
4, 203082, Note_on_c, 2, 59, 0
4, 203086, Note_on_c, 2, 62, 0
4, 203280, Note_on_c, 2, 65, 45
4, 203280, Note_on_c, 2, 62, 45
4, 203332, Note_on_c, 2, 62, 0
4, 203340, Note_on_c, 2, 65, 0
4, 203520, Note_on_c, 2, 65, 45
4, 203520, Note_on_c, 2, 69, 45
4, 204720, Note_on_c, 2, 64, 45
4, 204720, Note_on_c, 2, 67, 45
4, 204732, Note_on_c, 2, 69, 0
4, 204752, Note_on_c, 2, 65, 0
4, 205120, Note_on_c, 2, 67, 0
4, 205126, Note_on_c, 2, 64, 0
4, 205200, Note_on_c, 2, 65, 45
4, 205200, Note_on_c, 2, 62, 45
4, 205624, Note_on_c, 2, 65, 0
4, 205632, Note_on_c, 2, 62, 0
4, 205680, Note_on_c, 2, 60, 45
4, 205680, Note_on_c, 2, 64, 45
4, 206062, Note_on_c, 2, 64, 0
4, 206084, Note_on_c, 2, 60, 0
4, 206160, Note_on_c, 2, 59, 45
4, 206160, Note_on_c, 2, 62, 45
4, 206230, Note_on_c, 2, 59, 0
4, 206236, Note_on_c, 2, 62, 0
4, 206400, Note_on_c, 2, 60, 64
4, 206504, Note_on_c, 2, 60, 0
4, 207360, Note_on_c, 2, 60, 53
4, 207360, Note_on_c, 2, 72, 53
4, 208220, Note_on_c, 2, 60, 0
4, 208294, Note_on_c, 2, 72, 0
4, 208320, Note_on_c, 2, 59, 53
4, 208320, Note_on_c, 2, 71, 53
4, 210036, Note_on_c, 2, 59, 0
4, 210164, Note_on_c, 2, 71, 0
4, 210240, Note_on_c, 2, 60, 53
4, 210240, Note_on_c, 2, 72, 53
4, 212036, Note_on_c, 2, 60, 0
4, 212096, Note_on_c, 2, 72, 0
4, 212160, Note_on_c, 2, 59, 53
4, 212160, Note_on_c, 2, 71, 53
4, 213980, Note_on_c, 2, 59, 0
4, 214036, Note_on_c, 2, 71, 0
4, 214080, Note_on_c, 2, 72, 64
4, 214080, Note_on_c, 2, 60, 64
4, 214240, Note_on_c, 2, 60, 0
4, 214244, Note_on_c, 2, 72, 0
4, 221760, Note_on_c, 2, 72, 64
4, 221760, Note_on_c, 2, 67, 64
4, 223662, Note_on_c, 2, 67, 0
4, 223680, Note_on_c, 2, 68, 64
4, 223822, Note_on_c, 2, 72, 0
4, 223834, Note_on_c, 2, 68, 0
4, 224160, Note_on_c, 2, 67, 64
4, 224400, Note_on_c, 2, 70, 64
4, 224440, Note_on_c, 2, 67, 0
4, 224466, Note_on_c, 2, 70, 0
4, 224640, Note_on_c, 2, 65, 64
4, 224880, Note_on_c, 2, 68, 64
4, 224906, Note_on_c, 2, 65, 0
4, 224944, Note_on_c, 2, 68, 0
4, 225120, Note_on_c, 2, 64, 64
4, 225360, Note_on_c, 2, 67, 64
4, 225410, Note_on_c, 2, 64, 0
4, 225424, Note_on_c, 2, 67, 0
4, 225600, Note_on_c, 2, 74, 64
4, 225600, Note_on_c, 2, 65, 64
4, 227344, Note_on_c, 2, 74, 0
4, 227462, Note_on_c, 2, 65, 0
4, 227520, Note_on_c, 2, 63, 64
4, 227520, Note_on_c, 2, 72, 64
4, 227636, Note_on_c, 2, 63, 0
4, 227664, Note_on_c, 2, 72, 0
4, 230160, Note_on_c, 2, 62, 64
4, 230160, Note_on_c, 2, 65, 64
4, 230244, Note_on_c, 2, 62, 0
4, 230250, Note_on_c, 2, 65, 0
4, 230400, Note_on_c, 2, 60, 64
4, 230400, Note_on_c, 2, 64, 64
4, 230484, Note_on_c, 2, 64, 0
4, 230490, Note_on_c, 2, 60, 0
4, 232080, Note_on_c, 2, 61, 64
4, 232080, Note_on_c, 2, 64, 64
4, 232164, Note_on_c, 2, 61, 0
4, 232176, Note_on_c, 2, 64, 0
4, 232320, Note_on_c, 2, 62, 64
4, 232320, Note_on_c, 2, 65, 64
4, 232406, Note_on_c, 2, 62, 0
4, 232414, Note_on_c, 2, 65, 0
4, 234000, Note_on_c, 2, 69, 64
4, 234000, Note_on_c, 2, 66, 64
4, 234064, Note_on_c, 2, 69, 0
4, 234066, Note_on_c, 2, 66, 0
4, 234240, Note_on_c, 2, 67, 64
4, 234240, Note_on_c, 2, 64, 64
4, 234310, Note_on_c, 2, 67, 0
4, 234312, Note_on_c, 2, 64, 0
4, 235920, Note_on_c, 2, 69, 64
4, 235920, Note_on_c, 2, 66, 64
4, 235990, Note_on_c, 2, 69, 0
4, 235994, Note_on_c, 2, 66, 0
4, 236160, Note_on_c, 2, 71, 64
4, 236160, Note_on_c, 2, 67, 64
4, 236242, Note_on_c, 2, 67, 0
4, 236242, Note_on_c, 2, 71, 0
4, 236880, Note_on_c, 2, 71, 64
4, 236880, Note_on_c, 2, 74, 64
4, 236946, Note_on_c, 2, 71, 0
4, 236960, Note_on_c, 2, 74, 0
4, 237120, Note_on_c, 2, 69, 64
4, 237120, Note_on_c, 2, 72, 64
4, 237200, Note_on_c, 2, 69, 0
4, 237202, Note_on_c, 2, 72, 0
4, 239280, Note_on_c, 2, 59, 64
4, 239280, Note_on_c, 2, 71, 64
4, 239364, Note_on_c, 2, 59, 0
4, 239382, Note_on_c, 2, 71, 0
4, 239520, Note_on_c, 2, 60, 64
4, 239520, Note_on_c, 2, 72, 64
4, 239592, Note_on_c, 2, 60, 0
4, 239596, Note_on_c, 2, 72, 0
4, 239760, Note_on_c, 2, 62, 64
4, 239760, Note_on_c, 2, 74, 64
4, 239830, Note_on_c, 2, 62, 0
4, 239842, Note_on_c, 2, 74, 0
4, 240000, Note_on_c, 2, 64, 64
4, 240000, Note_on_c, 2, 76, 64
4, 240072, Note_on_c, 2, 64, 0
4, 240084, Note_on_c, 2, 76, 0
4, 240240, Note_on_c, 2, 62, 64
4, 240240, Note_on_c, 2, 74, 64
4, 240304, Note_on_c, 2, 62, 0
4, 240316, Note_on_c, 2, 74, 0
4, 240480, Note_on_c, 2, 64, 64
4, 240480, Note_on_c, 2, 76, 64
4, 240546, Note_on_c, 2, 64, 0
4, 240564, Note_on_c, 2, 76, 0
4, 240720, Note_on_c, 2, 65, 64
4, 240720, Note_on_c, 2, 77, 64
4, 240792, Note_on_c, 2, 65, 0
4, 240804, Note_on_c, 2, 77, 0
4, 240960, Note_on_c, 2, 67, 64
4, 240960, Note_on_c, 2, 79, 64
4, 241052, Note_on_c, 2, 67, 0
4, 241070, Note_on_c, 2, 79, 0
4, 241920, Note_on_c, 2, 76, 64
4, 241920, Note_on_c, 2, 79, 64
4, 242532, Note_on_c, 2, 76, 0
4, 242536, Note_on_c, 2, 79, 0
4, 242640, Note_on_c, 2, 77, 64
4, 242640, Note_on_c, 2, 74, 64
4, 242794, Note_on_c, 2, 74, 0
4, 242794, Note_on_c, 2, 77, 0
4, 242880, Note_on_c, 2, 72, 64
4, 242880, Note_on_c, 2, 76, 64
4, 242962, Note_on_c, 2, 72, 0
4, 242964, Note_on_c, 2, 76, 0
4, 243120, Note_on_c, 2, 68, 64
4, 243120, Note_on_c, 2, 56, 64
4, 243340, Note_on_c, 2, 56, 0
4, 243350, Note_on_c, 2, 68, 0
4, 243360, Note_on_c, 2, 57, 64
4, 243360, Note_on_c, 2, 69, 64
4, 243524, Note_on_c, 2, 57, 0
4, 243536, Note_on_c, 2, 69, 0
4, 243600, Note_on_c, 2, 60, 64
4, 243600, Note_on_c, 2, 72, 64
4, 243752, Note_on_c, 2, 60, 0
4, 243762, Note_on_c, 2, 72, 0
4, 243840, Note_on_c, 2, 64, 64
4, 243840, Note_on_c, 2, 76, 64
4, 244434, Note_on_c, 2, 64, 0
4, 244460, Note_on_c, 2, 76, 0
4, 244560, Note_on_c, 2, 64, 64
4, 244560, Note_on_c, 2, 76, 64
4, 244630, Note_on_c, 2, 64, 0
4, 244654, Note_on_c, 2, 76, 0
4, 244800, Note_on_c, 2, 65, 64
4, 244800, Note_on_c, 2, 77, 64
4, 245400, Note_on_c, 2, 62, 64
4, 245400, Note_on_c, 2, 74, 64
4, 245406, Note_on_c, 2, 77, 0
4, 245440, Note_on_c, 2, 65, 0
4, 245520, Note_on_c, 2, 76, 64
4, 245520, Note_on_c, 2, 64, 64
4, 245530, Note_on_c, 2, 62, 0
4, 245554, Note_on_c, 2, 74, 0
4, 245640, Note_on_c, 2, 65, 64
4, 245640, Note_on_c, 2, 77, 64
4, 245666, Note_on_c, 2, 76, 0
4, 245684, Note_on_c, 2, 64, 0
4, 245760, Note_on_c, 2, 79, 64
4, 245760, Note_on_c, 2, 67, 64
4, 245776, Note_on_c, 2, 65, 0
4, 245794, Note_on_c, 2, 77, 0
4, 245880, Note_on_c, 2, 66, 64
4, 245880, Note_on_c, 2, 78, 64
4, 245896, Note_on_c, 2, 67, 0
4, 245910, Note_on_c, 2, 79, 0
4, 246000, Note_on_c, 2, 67, 64
4, 246000, Note_on_c, 2, 79, 64
4, 246032, Note_on_c, 2, 66, 0
4, 246032, Note_on_c, 2, 78, 0
4, 246112, Note_on_c, 2, 67, 0
4, 246120, Note_on_c, 2, 66, 64
4, 246120, Note_on_c, 2, 78, 64
4, 246146, Note_on_c, 2, 79, 0
4, 246240, Note_on_c, 2, 79, 64
4, 246240, Note_on_c, 2, 67, 64
4, 246256, Note_on_c, 2, 78, 0
4, 246296, Note_on_c, 2, 66, 0
4, 246320, Note_on_c, 2, 79, 0
4, 246332, Note_on_c, 2, 67, 0
4, 246480, Note_on_c, 2, 55, 64
4, 246480, Note_on_c, 2, 67, 64
4, 246544, Note_on_c, 2, 55, 0
4, 246550, Note_on_c, 2, 67, 0
4, 246720, Note_on_c, 2, 60, 64
4, 246720, Note_on_c, 2, 72, 64
4, 246840, Note_on_c, 2, 74, 64
4, 246840, Note_on_c, 2, 62, 64
4, 246870, Note_on_c, 2, 60, 0
4, 246880, Note_on_c, 2, 72, 0
4, 246960, Note_on_c, 2, 72, 64
4, 246960, Note_on_c, 2, 60, 64
4, 246980, Note_on_c, 2, 62, 0
4, 246986, Note_on_c, 2, 74, 0
4, 247080, Note_on_c, 2, 71, 64
4, 247080, Note_on_c, 2, 59, 64
4, 247102, Note_on_c, 2, 72, 0
4, 247106, Note_on_c, 2, 60, 0
4, 247200, Note_on_c, 2, 72, 64
4, 247200, Note_on_c, 2, 60, 64
4, 247234, Note_on_c, 2, 59, 0
4, 247236, Note_on_c, 2, 71, 0
4, 247320, Note_on_c, 2, 60, 0
4, 247320, Note_on_c, 2, 74, 64
4, 247320, Note_on_c, 2, 62, 64
4, 247364, Note_on_c, 2, 72, 0
4, 247440, Note_on_c, 2, 64, 64
4, 247440, Note_on_c, 2, 76, 64
4, 247496, Note_on_c, 2, 74, 0
4, 247510, Note_on_c, 2, 62, 0
4, 247560, Note_on_c, 2, 77, 64
4, 247560, Note_on_c, 2, 65, 64
4, 247600, Note_on_c, 2, 64, 0
4, 247604, Note_on_c, 2, 76, 0
4, 247680, Note_on_c, 2, 79, 64
4, 247680, Note_on_c, 2, 67, 64
4, 247690, Note_on_c, 2, 77, 0
4, 247706, Note_on_c, 2, 65, 0
4, 248332, Note_on_c, 2, 79, 0
4, 248372, Note_on_c, 2, 67, 0
4, 248400, Note_on_c, 2, 68, 64
4, 248400, Note_on_c, 2, 80, 64
4, 248604, Note_on_c, 2, 80, 0
4, 248640, Note_on_c, 2, 69, 64
4, 248640, Note_on_c, 2, 81, 64
4, 248676, Note_on_c, 2, 68, 0
4, 248754, Note_on_c, 2, 81, 0
4, 248760, Note_on_c, 2, 71, 64
4, 248806, Note_on_c, 2, 69, 0
4, 248880, Note_on_c, 2, 69, 64
4, 248912, Note_on_c, 2, 71, 0
4, 249000, Note_on_c, 2, 68, 64
4, 249016, Note_on_c, 2, 69, 0
4, 249120, Note_on_c, 2, 69, 64
4, 249134, Note_on_c, 2, 68, 0
4, 249240, Note_on_c, 2, 71, 64
4, 249272, Note_on_c, 2, 69, 0
4, 249360, Note_on_c, 2, 72, 64
4, 249392, Note_on_c, 2, 71, 0
4, 249480, Note_on_c, 2, 74, 64
4, 249520, Note_on_c, 2, 72, 0
4, 249600, Note_on_c, 2, 76, 64
4, 249636, Note_on_c, 2, 74, 0
4, 250212, Note_on_c, 2, 76, 0
4, 250320, Note_on_c, 2, 76, 64
4, 250320, Note_on_c, 2, 64, 64
4, 250416, Note_on_c, 2, 76, 0
4, 250422, Note_on_c, 2, 64, 0
4, 250560, Note_on_c, 2, 77, 64
4, 250560, Note_on_c, 2, 65, 64
4, 250680, Note_on_c, 2, 76, 64
4, 250680, Note_on_c, 2, 64, 64
4, 250690, Note_on_c, 2, 65, 0
4, 250714, Note_on_c, 2, 77, 0
4, 250800, Note_on_c, 2, 65, 64
4, 250800, Note_on_c, 2, 77, 64
4, 250810, Note_on_c, 2, 64, 0
4, 250834, Note_on_c, 2, 76, 0
4, 250920, Note_on_c, 2, 76, 64
4, 250920, Note_on_c, 2, 64, 64
4, 250924, Note_on_c, 2, 65, 0
4, 250932, Note_on_c, 2, 77, 0
4, 251040, Note_on_c, 2, 65, 64
4, 251040, Note_on_c, 2, 77, 64
4, 251046, Note_on_c, 2, 64, 0
4, 251066, Note_on_c, 2, 76, 0
4, 251160, Note_on_c, 2, 62, 64
4, 251160, Note_on_c, 2, 74, 64
4, 251174, Note_on_c, 2, 77, 0
4, 251196, Note_on_c, 2, 65, 0
4, 251280, Note_on_c, 2, 64, 64
4, 251280, Note_on_c, 2, 76, 64
4, 251300, Note_on_c, 2, 62, 0
4, 251310, Note_on_c, 2, 74, 0
4, 251400, Note_on_c, 2, 77, 64
4, 251400, Note_on_c, 2, 65, 64
4, 251420, Note_on_c, 2, 64, 0
4, 251436, Note_on_c, 2, 76, 0
4, 251480, Note_on_c, 2, 65, 0
4, 251520, Note_on_c, 2, 67, 64
4, 251520, Note_on_c, 2, 79, 64
4, 251536, Note_on_c, 2, 77, 0
4, 251632, Note_on_c, 2, 67, 0
4, 251640, Note_on_c, 2, 66, 64
4, 251640, Note_on_c, 2, 78, 64
4, 251666, Note_on_c, 2, 79, 0
4, 251760, Note_on_c, 2, 67, 64
4, 251760, Note_on_c, 2, 79, 64
4, 251762, Note_on_c, 2, 78, 0
4, 251766, Note_on_c, 2, 66, 0
4, 251870, Note_on_c, 2, 67, 0
4, 251880, Note_on_c, 2, 78, 64
4, 251880, Note_on_c, 2, 66, 64
4, 251912, Note_on_c, 2, 79, 0
4, 252000, Note_on_c, 2, 79, 64
4, 252000, Note_on_c, 2, 67, 64
4, 252020, Note_on_c, 2, 66, 0
4, 252034, Note_on_c, 2, 78, 0
4, 252094, Note_on_c, 2, 79, 0
4, 252116, Note_on_c, 2, 67, 0
4, 252240, Note_on_c, 2, 55, 64
4, 252240, Note_on_c, 2, 67, 64
4, 252340, Note_on_c, 2, 55, 0
4, 252352, Note_on_c, 2, 67, 0
4, 252480, Note_on_c, 2, 72, 64
4, 252480, Note_on_c, 2, 60, 64
4, 252550, Note_on_c, 2, 72, 0
4, 252570, Note_on_c, 2, 60, 0
4, 265920, Note_on_c, 2, 72, 64
4, 265920, Note_on_c, 2, 75, 64
4, 267782, Note_on_c, 2, 72, 0
4, 267802, Note_on_c, 2, 75, 0
4, 267840, Note_on_c, 2, 77, 64
4, 267840, Note_on_c, 2, 73, 64
4, 268044, Note_on_c, 2, 73, 0
4, 268044, Note_on_c, 2, 77, 0
4, 268320, Note_on_c, 2, 63, 64
4, 268320, Note_on_c, 2, 72, 64
4, 269184, Note_on_c, 2, 63, 0
4, 269202, Note_on_c, 2, 72, 0
4, 269280, Note_on_c, 2, 63, 64
4, 269280, Note_on_c, 2, 72, 64
4, 269614, Note_on_c, 2, 63, 0
4, 269690, Note_on_c, 2, 72, 0
4, 269760, Note_on_c, 2, 65, 64
4, 269760, Note_on_c, 2, 73, 64
4, 269936, Note_on_c, 2, 73, 0
4, 269956, Note_on_c, 2, 65, 0
4, 270240, Note_on_c, 2, 63, 64
4, 270240, Note_on_c, 2, 72, 64
4, 270846, Note_on_c, 2, 63, 0
4, 270860, Note_on_c, 2, 72, 0
4, 270960, Note_on_c, 2, 63, 64
4, 270960, Note_on_c, 2, 72, 64
4, 271024, Note_on_c, 2, 63, 0
4, 271050, Note_on_c, 2, 72, 0
4, 271200, Note_on_c, 2, 63, 64
4, 271200, Note_on_c, 2, 72, 64
4, 271256, Note_on_c, 2, 63, 0
4, 271276, Note_on_c, 2, 72, 0
4, 271440, Note_on_c, 2, 72, 64
4, 271440, Note_on_c, 2, 63, 64
4, 271492, Note_on_c, 2, 63, 0
4, 271502, Note_on_c, 2, 72, 0
4, 271680, Note_on_c, 2, 64, 64
4, 271680, Note_on_c, 2, 72, 64
4, 272546, Note_on_c, 2, 72, 0
4, 272602, Note_on_c, 2, 64, 0
4, 272640, Note_on_c, 2, 65, 64
4, 272640, Note_on_c, 2, 72, 64
4, 273482, Note_on_c, 2, 65, 0
4, 273510, Note_on_c, 2, 72, 0
4, 273600, Note_on_c, 2, 66, 64
4, 273600, Note_on_c, 2, 75, 64
4, 274530, Note_on_c, 2, 66, 0
4, 274556, Note_on_c, 2, 75, 0
4, 274560, Note_on_c, 2, 67, 64
4, 274560, Note_on_c, 2, 76, 64
4, 274904, Note_on_c, 2, 76, 0
4, 274972, Note_on_c, 2, 67, 0
4, 275040, Note_on_c, 2, 65, 64
4, 275040, Note_on_c, 2, 71, 64
4, 275484, Note_on_c, 2, 65, 0
4, 275512, Note_on_c, 2, 71, 0
4, 275520, Note_on_c, 2, 72, 64
4, 275520, Note_on_c, 2, 64, 64
4, 275616, Note_on_c, 2, 64, 0
4, 275626, Note_on_c, 2, 72, 0
4, 276000, Note_on_c, 2, 64, 64
4, 276000, Note_on_c, 2, 72, 64
4, 276392, Note_on_c, 2, 64, 0
4, 276402, Note_on_c, 2, 72, 0
4, 276960, Note_on_c, 2, 64, 64
4, 276960, Note_on_c, 2, 73, 64
4, 277372, Note_on_c, 2, 64, 0
4, 277396, Note_on_c, 2, 73, 0
4, 277920, Note_on_c, 2, 74, 64
4, 277920, Note_on_c, 2, 65, 64
4, 278374, Note_on_c, 2, 74, 0
4, 278376, Note_on_c, 2, 65, 0
4, 278880, Note_on_c, 2, 62, 64
4, 278880, Note_on_c, 2, 71, 64
4, 279316, Note_on_c, 2, 62, 0
4, 279326, Note_on_c, 2, 71, 0
4, 279840, Note_on_c, 2, 64, 64
4, 279840, Note_on_c, 2, 60, 64
4, 280294, Note_on_c, 2, 64, 0
4, 280300, Note_on_c, 2, 60, 0
4, 280800, Note_on_c, 2, 64, 64
4, 280800, Note_on_c, 2, 61, 64
4, 281230, Note_on_c, 2, 64, 0
4, 281236, Note_on_c, 2, 61, 0
4, 281760, Note_on_c, 2, 65, 64
4, 281760, Note_on_c, 2, 62, 64
4, 282220, Note_on_c, 2, 65, 0
4, 282230, Note_on_c, 2, 62, 0
4, 282720, Note_on_c, 2, 59, 64
4, 282720, Note_on_c, 2, 62, 64
4, 283100, Note_on_c, 2, 59, 0
4, 283114, Note_on_c, 2, 62, 0
4, 283200, Note_on_c, 2, 60, 64
4, 283200, Note_on_c, 2, 64, 64
4, 283574, Note_on_c, 2, 64, 0
4, 283574, Note_on_c, 2, 60, 0
4, 283680, Note_on_c, 2, 61, 64
4, 283680, Note_on_c, 2, 64, 64
4, 284064, Note_on_c, 2, 61, 0
4, 284082, Note_on_c, 2, 64, 0
4, 284160, Note_on_c, 2, 62, 64
4, 284160, Note_on_c, 2, 65, 64
4, 284532, Note_on_c, 2, 62, 0
4, 284602, Note_on_c, 2, 65, 0
4, 284640, Note_on_c, 2, 59, 64
4, 284640, Note_on_c, 2, 62, 64
4, 284922, Note_on_c, 2, 59, 0
4, 285042, Note_on_c, 2, 62, 0
4, 285120, Note_on_c, 2, 64, 64
4, 285120, Note_on_c, 2, 60, 64
4, 285176, Note_on_c, 2, 60, 0
4, 285182, Note_on_c, 2, 64, 0
4, 285360, Note_on_c, 2, 72, 64
4, 285360, Note_on_c, 2, 64, 64
4, 285426, Note_on_c, 2, 64, 0
4, 285432, Note_on_c, 2, 72, 0
4, 285600, Note_on_c, 2, 73, 64
4, 285600, Note_on_c, 2, 64, 64
4, 285652, Note_on_c, 2, 64, 0
4, 285656, Note_on_c, 2, 73, 0
4, 285840, Note_on_c, 2, 64, 64
4, 285840, Note_on_c, 2, 73, 64
4, 285896, Note_on_c, 2, 64, 0
4, 285912, Note_on_c, 2, 73, 0
4, 286080, Note_on_c, 2, 74, 64
4, 286080, Note_on_c, 2, 65, 64
4, 286144, Note_on_c, 2, 65, 0
4, 286150, Note_on_c, 2, 74, 0
4, 286320, Note_on_c, 2, 65, 64
4, 286320, Note_on_c, 2, 74, 64
4, 286374, Note_on_c, 2, 74, 0
4, 286374, Note_on_c, 2, 65, 0
4, 286560, Note_on_c, 2, 62, 64
4, 286560, Note_on_c, 2, 71, 64
4, 286620, Note_on_c, 2, 62, 0
4, 286630, Note_on_c, 2, 71, 0
4, 286800, Note_on_c, 2, 62, 64
4, 286800, Note_on_c, 2, 71, 64
4, 286854, Note_on_c, 2, 62, 0
4, 286864, Note_on_c, 2, 71, 0
4, 287040, Note_on_c, 2, 72, 64
4, 287040, Note_on_c, 2, 64, 64
4, 287126, Note_on_c, 2, 64, 0
4, 287140, Note_on_c, 2, 72, 0
4, 287520, Note_on_c, 2, 72, 64
4, 288142, Note_on_c, 2, 72, 0
4, 288240, Note_on_c, 2, 72, 64
4, 288300, Note_on_c, 2, 72, 0
4, 288480, Note_on_c, 2, 71, 64
4, 288534, Note_on_c, 2, 71, 0
4, 288720, Note_on_c, 2, 69, 64
4, 288766, Note_on_c, 2, 69, 0
4, 288960, Note_on_c, 2, 79, 64
4, 288960, Note_on_c, 2, 67, 64
4, 290042, Note_on_c, 2, 67, 0
4, 290062, Note_on_c, 2, 79, 0
4, 290160, Note_on_c, 2, 81, 64
4, 290160, Note_on_c, 2, 69, 64
4, 290216, Note_on_c, 2, 69, 0
4, 290216, Note_on_c, 2, 81, 0
4, 290400, Note_on_c, 2, 67, 64
4, 290400, Note_on_c, 2, 79, 64
4, 290456, Note_on_c, 2, 67, 0
4, 290466, Note_on_c, 2, 79, 0
4, 290640, Note_on_c, 2, 65, 64
4, 290640, Note_on_c, 2, 77, 64
4, 290700, Note_on_c, 2, 65, 0
4, 290710, Note_on_c, 2, 77, 0
4, 290880, Note_on_c, 2, 64, 64
4, 290880, Note_on_c, 2, 76, 64
4, 291942, Note_on_c, 2, 64, 0
4, 291960, Note_on_c, 2, 76, 0
4, 292080, Note_on_c, 2, 65, 64
4, 292080, Note_on_c, 2, 77, 64
4, 292132, Note_on_c, 2, 77, 0
4, 292132, Note_on_c, 2, 65, 0
4, 292320, Note_on_c, 2, 76, 64
4, 292320, Note_on_c, 2, 64, 64
4, 292376, Note_on_c, 2, 76, 0
4, 292380, Note_on_c, 2, 64, 0
4, 292560, Note_on_c, 2, 74, 64
4, 292560, Note_on_c, 2, 62, 64
4, 292612, Note_on_c, 2, 62, 0
4, 292612, Note_on_c, 2, 74, 0
4, 292800, Note_on_c, 2, 72, 64
4, 292800, Note_on_c, 2, 60, 64
4, 292852, Note_on_c, 2, 60, 0
4, 292852, Note_on_c, 2, 72, 0
4, 293040, Note_on_c, 2, 69, 64
4, 293094, Note_on_c, 2, 69, 0
4, 293280, Note_on_c, 2, 67, 64
4, 293330, Note_on_c, 2, 67, 0
4, 293520, Note_on_c, 2, 65, 64
4, 293564, Note_on_c, 2, 65, 0
4, 293760, Note_on_c, 2, 64, 64
4, 293820, Note_on_c, 2, 64, 0
4, 294000, Note_on_c, 2, 69, 64
4, 294060, Note_on_c, 2, 69, 0
4, 294240, Note_on_c, 2, 67, 64
4, 294302, Note_on_c, 2, 67, 0
4, 294480, Note_on_c, 2, 65, 64
4, 294546, Note_on_c, 2, 65, 0
4, 294720, Note_on_c, 2, 64, 64
4, 294794, Note_on_c, 2, 64, 0
4, 294960, Note_on_c, 2, 69, 64
4, 295032, Note_on_c, 2, 69, 0
4, 295200, Note_on_c, 2, 67, 64
4, 295262, Note_on_c, 2, 67, 0
4, 295440, Note_on_c, 2, 65, 64
4, 295506, Note_on_c, 2, 65, 0
4, 295680, Note_on_c, 2, 64, 64
4, 295754, Note_on_c, 2, 64, 0
4, 295920, Note_on_c, 2, 69, 64
4, 295992, Note_on_c, 2, 69, 0
4, 296160, Note_on_c, 2, 67, 64
4, 296230, Note_on_c, 2, 67, 0
4, 296400, Note_on_c, 2, 65, 64
4, 296462, Note_on_c, 2, 65, 0
4, 296640, Note_on_c, 2, 64, 64
4, 296832, Note_on_c, 2, 64, 0
4, 297120, Note_on_c, 2, 72, 64
4, 297120, Note_on_c, 2, 64, 64
4, 297312, Note_on_c, 2, 64, 0
4, 297312, Note_on_c, 2, 72, 0
4, 298080, Note_on_c, 2, 72, 64
4, 298080, Note_on_c, 2, 76, 64
4, 298272, Note_on_c, 2, 76, 0
4, 298272, Note_on_c, 2, 72, 0
4, 299040, Note_on_c, 2, 76, 64
4, 299040, Note_on_c, 2, 79, 64
4, 299232, Note_on_c, 2, 79, 0
4, 299232, Note_on_c, 2, 76, 0
4, 300000, Note_on_c, 2, 67, 64
4, 300000, Note_on_c, 2, 76, 64
4, 300192, Note_on_c, 2, 76, 0
4, 300192, Note_on_c, 2, 67, 0
4, 300480, Note_on_c, 2, 64, 64
4, 300480, Note_on_c, 2, 72, 64
4, 300672, Note_on_c, 2, 72, 0
4, 300672, Note_on_c, 2, 64, 0
4, 301440, Note_on_c, 2, 67, 64
4, 301440, Note_on_c, 2, 76, 64
4, 301632, Note_on_c, 2, 76, 0
4, 301632, Note_on_c, 2, 67, 0
4, 302400, Note_on_c, 2, 64, 64
4, 302400, Note_on_c, 2, 72, 64
4, 302520, Note_on_c, 2, 72, 0
4, 302520, Note_on_c, 2, 64, 0
4, 303360, Note_on_c, 2, 64, 96
4, 303360, Note_on_c, 2, 72, 96
4, 303480, Note_on_c, 2, 72, 0
4, 303480, Note_on_c, 2, 64, 0
4, 303840, Note_on_c, 2, 64, 96
4, 303840, Note_on_c, 2, 72, 96
4, 303960, Note_on_c, 2, 72, 0
4, 303960, Note_on_c, 2, 64, 0
4, 304320, Note_on_c, 2, 64, 96
4, 304320, Note_on_c, 2, 72, 96
4, 304440, Note_on_c, 2, 72, 0
4, 304440, Note_on_c, 2, 64, 0
4, 304440, End_track
5, 0, Start_track
5, 0, Title_t, "Bassoons"
5, 0, Program_c, 3, 70
5, 0, Control_c, 3, 7, 90
5, 0, Control_c, 3, 10, 94
5, 0, Control_c, 3, 10, 74
5, 960, Note_on_c, 3, 46, 96
5, 1160, Note_on_c, 3, 46, 0
5, 3840, Note_on_c, 3, 45, 96
5, 4050, Note_on_c, 3, 45, 0
5, 6720, Note_on_c, 3, 44, 96
5, 6990, Note_on_c, 3, 44, 0
5, 7680, Note_on_c, 3, 56, 96
5, 7834, Note_on_c, 3, 56, 0
5, 8640, Note_on_c, 3, 56, 96
5, 8780, Note_on_c, 3, 56, 0
5, 9600, Note_on_c, 3, 55, 96
5, 9778, Note_on_c, 3, 55, 0
5, 10440, Note_on_c, 3, 43, 96
5, 10536, Note_on_c, 3, 43, 0
5, 10560, Note_on_c, 3, 43, 96
5, 12840, Note_on_c, 3, 43, 0
5, 31680, Note_on_c, 3, 60, 80
5, 31680, Note_on_c, 3, 64, 80
5, 32160, Note_on_c, 3, 64, 0
5, 32160, Note_on_c, 3, 60, 0
5, 32640, Note_on_c, 3, 53, 80
5, 32640, Note_on_c, 3, 60, 80
5, 33120, Note_on_c, 3, 60, 0
5, 33120, Note_on_c, 3, 61, 80
5, 33600, Note_on_c, 3, 61, 0
5, 33600, Note_on_c, 3, 62, 80
5, 34080, Note_on_c, 3, 62, 0
5, 34080, Note_on_c, 3, 53, 0
5, 34080, Note_on_c, 3, 53, 80
5, 34080, Note_on_c, 3, 65, 80
5, 34560, Note_on_c, 3, 65, 0
5, 34560, Note_on_c, 3, 53, 0
5, 34560, Note_on_c, 3, 64, 80
5, 34560, Note_on_c, 3, 55, 80
5, 35040, Note_on_c, 3, 64, 0
5, 35040, Note_on_c, 3, 66, 80
5, 35520, Note_on_c, 3, 66, 0
5, 35520, Note_on_c, 3, 67, 80
5, 35904, Note_on_c, 3, 67, 0
5, 36000, Note_on_c, 3, 55, 0
5, 36000, Note_on_c, 3, 57, 56
5, 36000, Note_on_c, 3, 53, 56
5, 36480, Note_on_c, 3, 53, 0
5, 36480, Note_on_c, 3, 57, 0
5, 36480, Note_on_c, 3, 52, 56
5, 36480, Note_on_c, 3, 55, 56
5, 36960, Note_on_c, 3, 55, 0
5, 36960, Note_on_c, 3, 52, 0
5, 36960, Note_on_c, 3, 50, 56
5, 36960, Note_on_c, 3, 53, 56
5, 37440, Note_on_c, 3, 53, 0
5, 37440, Note_on_c, 3, 50, 0
5, 37440, Note_on_c, 3, 52, 64
5, 37440, Note_on_c, 3, 48, 64
5, 38400, Note_on_c, 3, 48, 0
5, 38400, Note_on_c, 3, 52, 0
5, 38400, Note_on_c, 3, 52, 64
5, 38400, Note_on_c, 3, 55, 64
5, 39840, Note_on_c, 3, 55, 0
5, 39840, Note_on_c, 3, 52, 0
5, 39840, Note_on_c, 3, 50, 64
5, 39840, Note_on_c, 3, 53, 64
5, 40276, Note_on_c, 3, 50, 0
5, 40286, Note_on_c, 3, 53, 0
5, 40320, Note_on_c, 3, 52, 64
5, 40320, Note_on_c, 3, 48, 64
5, 41160, Note_on_c, 3, 48, 0
5, 41160, Note_on_c, 3, 52, 0
5, 41160, Note_on_c, 3, 52, 64
5, 41160, Note_on_c, 3, 55, 64
5, 41280, Note_on_c, 3, 55, 0
5, 41280, Note_on_c, 3, 52, 0
5, 41280, Note_on_c, 3, 55, 64
5, 41280, Note_on_c, 3, 52, 64
5, 42720, Note_on_c, 3, 52, 0
5, 42720, Note_on_c, 3, 55, 0
5, 42720, Note_on_c, 3, 50, 64
5, 42720, Note_on_c, 3, 53, 64
5, 43174, Note_on_c, 3, 53, 0
5, 43180, Note_on_c, 3, 50, 0
5, 43200, Note_on_c, 3, 52, 64
5, 43200, Note_on_c, 3, 48, 64
5, 43620, Note_on_c, 3, 48, 0
5, 43650, Note_on_c, 3, 52, 0
5, 45120, Note_on_c, 3, 51, 64
5, 45120, Note_on_c, 3, 48, 64
5, 46080, Note_on_c, 3, 52, 45
5, 46144, Note_on_c, 3, 51, 0
5, 48000, Note_on_c, 3, 52, 0
5, 48000, Note_on_c, 3, 50, 45
5, 48000, Note_on_c, 3, 53, 45
5, 48042, Note_on_c, 3, 48, 0
5, 48720, Note_on_c, 3, 53, 0
5, 48720, Note_on_c, 3, 50, 0
5, 48720, Note_on_c, 3, 50, 45
5, 48720, Note_on_c, 3, 47, 45
5, 48960, Note_on_c, 3, 47, 0
5, 48960, Note_on_c, 3, 50, 0
5, 48960, Note_on_c, 3, 48, 60
5, 48960, Note_on_c, 3, 52, 60
5, 49186, Note_on_c, 3, 52, 0
5, 49186, Note_on_c, 3, 48, 0
5, 60480, Note_on_c, 3, 48, 64
5, 60480, Note_on_c, 3, 52, 64
5, 62494, Note_on_c, 3, 52, 0
5, 62500, Note_on_c, 3, 48, 0
5, 62880, Note_on_c, 3, 48, 64
5, 62880, Note_on_c, 3, 52, 64
5, 62972, Note_on_c, 3, 48, 0
5, 62986, Note_on_c, 3, 52, 0
5, 63360, Note_on_c, 3, 52, 64
5, 63360, Note_on_c, 3, 48, 64
5, 63442, Note_on_c, 3, 48, 0
5, 63456, Note_on_c, 3, 52, 0
5, 64320, Note_on_c, 3, 53, 64
5, 64320, Note_on_c, 3, 48, 64
5, 66144, Note_on_c, 3, 48, 0
5, 66240, Note_on_c, 3, 47, 64
5, 66356, Note_on_c, 3, 47, 0
5, 66390, Note_on_c, 3, 53, 0
5, 66720, Note_on_c, 3, 53, 64
5, 66720, Note_on_c, 3, 47, 64
5, 66806, Note_on_c, 3, 53, 0
5, 66812, Note_on_c, 3, 47, 0
5, 67200, Note_on_c, 3, 47, 64
5, 67200, Note_on_c, 3, 53, 64
5, 67266, Note_on_c, 3, 53, 0
5, 67272, Note_on_c, 3, 47, 0
5, 68160, Note_on_c, 3, 52, 64
5, 68160, Note_on_c, 3, 48, 64
5, 68212, Note_on_c, 3, 52, 0
5, 68216, Note_on_c, 3, 48, 0
5, 68400, Note_on_c, 3, 64, 64
5, 68400, Note_on_c, 3, 60, 64
5, 68794, Note_on_c, 3, 64, 0
5, 68814, Note_on_c, 3, 60, 0
5, 68880, Note_on_c, 3, 62, 64
5, 68880, Note_on_c, 3, 59, 64
5, 68936, Note_on_c, 3, 62, 0
5, 68944, Note_on_c, 3, 59, 0
5, 69120, Note_on_c, 3, 60, 64
5, 69120, Note_on_c, 3, 64, 64
5, 69166, Note_on_c, 3, 60, 0
5, 69174, Note_on_c, 3, 64, 0
5, 69360, Note_on_c, 3, 60, 64
5, 69360, Note_on_c, 3, 57, 64
5, 69742, Note_on_c, 3, 60, 0
5, 69746, Note_on_c, 3, 57, 0
5, 69840, Note_on_c, 3, 59, 64
5, 69840, Note_on_c, 3, 56, 64
5, 69886, Note_on_c, 3, 59, 0
5, 69890, Note_on_c, 3, 56, 0
5, 70080, Note_on_c, 3, 60, 64
5, 70080, Note_on_c, 3, 57, 64
5, 70134, Note_on_c, 3, 57, 0
5, 70134, Note_on_c, 3, 60, 0
5, 70320, Note_on_c, 3, 53, 64
5, 70320, Note_on_c, 3, 57, 64
5, 70692, Note_on_c, 3, 53, 0
5, 70724, Note_on_c, 3, 57, 0
5, 70800, Note_on_c, 3, 55, 64
5, 70800, Note_on_c, 3, 52, 64
5, 70856, Note_on_c, 3, 55, 0
5, 70862, Note_on_c, 3, 52, 0
5, 71040, Note_on_c, 3, 53, 64
5, 71040, Note_on_c, 3, 57, 64
5, 71092, Note_on_c, 3, 57, 0
5, 71100, Note_on_c, 3, 53, 0
5, 71280, Note_on_c, 3, 53, 64
5, 71350, Note_on_c, 3, 53, 0
5, 71520, Note_on_c, 3, 50, 64
5, 71560, Note_on_c, 3, 50, 0
5, 71760, Note_on_c, 3, 54, 64
5, 71812, Note_on_c, 3, 54, 0
5, 72000, Note_on_c, 3, 55, 64
5, 72072, Note_on_c, 3, 55, 0
5, 73200, Note_on_c, 3, 52, 64
5, 73200, Note_on_c, 3, 60, 64
5, 73560, Note_on_c, 3, 60, 0
5, 73560, Note_on_c, 3, 52, 0
5, 73680, Note_on_c, 3, 52, 64
5, 73680, Note_on_c, 3, 60, 64
5, 73746, Note_on_c, 3, 52, 0
5, 73752, Note_on_c, 3, 60, 0
5, 73920, Note_on_c, 3, 59, 64
5, 73920, Note_on_c, 3, 50, 64
5, 74026, Note_on_c, 3, 59, 0
5, 74032, Note_on_c, 3, 50, 0
5, 74160, Note_on_c, 3, 55, 64
5, 74232, Note_on_c, 3, 55, 0
5, 74280, Note_on_c, 3, 55, 64
5, 74346, Note_on_c, 3, 55, 0
5, 74400, Note_on_c, 3, 55, 64
5, 74466, Note_on_c, 3, 55, 0
5, 74520, Note_on_c, 3, 55, 64
5, 74586, Note_on_c, 3, 55, 0
5, 74640, Note_on_c, 3, 55, 64
5, 74700, Note_on_c, 3, 55, 0
5, 74760, Note_on_c, 3, 55, 64
5, 74830, Note_on_c, 3, 55, 0
5, 74880, Note_on_c, 3, 55, 64
5, 74944, Note_on_c, 3, 55, 0
5, 75000, Note_on_c, 3, 55, 64
5, 75084, Note_on_c, 3, 55, 0
5, 75120, Note_on_c, 3, 60, 64
5, 75184, Note_on_c, 3, 60, 0
5, 75240, Note_on_c, 3, 62, 64
5, 75240, Note_on_c, 3, 55, 64
5, 75290, Note_on_c, 3, 62, 0
5, 75296, Note_on_c, 3, 55, 0
5, 75360, Note_on_c, 3, 55, 64
5, 75360, Note_on_c, 3, 64, 64
5, 75406, Note_on_c, 3, 55, 0
5, 75426, Note_on_c, 3, 64, 0
5, 75480, Note_on_c, 3, 55, 64
5, 75480, Note_on_c, 3, 62, 64
5, 75534, Note_on_c, 3, 55, 0
5, 75540, Note_on_c, 3, 62, 0
5, 75600, Note_on_c, 3, 55, 64
5, 75600, Note_on_c, 3, 64, 64
5, 75646, Note_on_c, 3, 55, 0
5, 75656, Note_on_c, 3, 64, 0
5, 75720, Note_on_c, 3, 55, 64
5, 75720, Note_on_c, 3, 66, 64
5, 75770, Note_on_c, 3, 55, 0
5, 75780, Note_on_c, 3, 66, 0
5, 75840, Note_on_c, 3, 55, 64
5, 75840, Note_on_c, 3, 67, 64
5, 75902, Note_on_c, 3, 67, 0
5, 75906, Note_on_c, 3, 55, 0
5, 76080, Note_on_c, 3, 57, 64
5, 76160, Note_on_c, 3, 57, 0
5, 76320, Note_on_c, 3, 59, 64
5, 76320, Note_on_c, 3, 55, 64
5, 76376, Note_on_c, 3, 55, 0
5, 76376, Note_on_c, 3, 59, 0
5, 76560, Note_on_c, 3, 57, 64
5, 76560, Note_on_c, 3, 60, 64
5, 76622, Note_on_c, 3, 57, 0
5, 76630, Note_on_c, 3, 60, 0
5, 76800, Note_on_c, 3, 55, 64
5, 76800, Note_on_c, 3, 59, 64
5, 76864, Note_on_c, 3, 59, 0
5, 76864, Note_on_c, 3, 55, 0
5, 77040, Note_on_c, 3, 60, 64
5, 77040, Note_on_c, 3, 57, 64
5, 77100, Note_on_c, 3, 60, 0
5, 77104, Note_on_c, 3, 57, 0
5, 77280, Note_on_c, 3, 55, 64
5, 77280, Note_on_c, 3, 59, 64
5, 77342, Note_on_c, 3, 55, 0
5, 77350, Note_on_c, 3, 59, 0
5, 77520, Note_on_c, 3, 60, 64
5, 77520, Note_on_c, 3, 57, 64
5, 77580, Note_on_c, 3, 57, 0
5, 77580, Note_on_c, 3, 60, 0
5, 77760, Note_on_c, 3, 55, 64
5, 77760, Note_on_c, 3, 59, 64
5, 77850, Note_on_c, 3, 55, 0
5, 77852, Note_on_c, 3, 59, 0
5, 78240, Note_on_c, 3, 43, 64
5, 78366, Note_on_c, 3, 43, 0
5, 78720, Note_on_c, 3, 43, 64
5, 78832, Note_on_c, 3, 43, 0
5, 79680, Note_on_c, 3, 55, 64
5, 79800, Note_on_c, 3, 55, 0
5, 87600, Note_on_c, 3, 50, 64
5, 87600, Note_on_c, 3, 47, 64
5, 87646, Note_on_c, 3, 47, 0
5, 87650, Note_on_c, 3, 50, 0
5, 87840, Note_on_c, 3, 55, 64
5, 87840, Note_on_c, 3, 50, 64
5, 87896, Note_on_c, 3, 50, 0
5, 87896, Note_on_c, 3, 55, 0
5, 88080, Note_on_c, 3, 59, 64
5, 88080, Note_on_c, 3, 55, 64
5, 88130, Note_on_c, 3, 55, 0
5, 88142, Note_on_c, 3, 59, 0
5, 88320, Note_on_c, 3, 62, 64
5, 88320, Note_on_c, 3, 59, 64
5, 89760, Note_on_c, 3, 59, 0
5, 89760, Note_on_c, 3, 62, 0
5, 89760, Note_on_c, 3, 60, 64
5, 89760, Note_on_c, 3, 57, 64
5, 90240, Note_on_c, 3, 59, 64
5, 90240, Note_on_c, 3, 55, 64
5, 90250, Note_on_c, 3, 60, 0
5, 90272, Note_on_c, 3, 57, 0
5, 90720, Note_on_c, 3, 57, 64
5, 90720, Note_on_c, 3, 60, 64
5, 90736, Note_on_c, 3, 55, 0
5, 90782, Note_on_c, 3, 59, 0
5, 91130, Note_on_c, 3, 57, 0
5, 91200, Note_on_c, 3, 54, 64
5, 91200, Note_on_c, 3, 57, 64
5, 91210, Note_on_c, 3, 60, 0
5, 91266, Note_on_c, 3, 54, 0
5, 91274, Note_on_c, 3, 57, 0
5, 91440, Note_on_c, 3, 50, 64
5, 91440, Note_on_c, 3, 54, 64
5, 91500, Note_on_c, 3, 54, 0
5, 91502, Note_on_c, 3, 50, 0
5, 91680, Note_on_c, 3, 54, 64
5, 91680, Note_on_c, 3, 57, 64
5, 91732, Note_on_c, 3, 54, 0
5, 91750, Note_on_c, 3, 57, 0
5, 91920, Note_on_c, 3, 60, 64
5, 91920, Note_on_c, 3, 57, 64
5, 91982, Note_on_c, 3, 57, 0
5, 91986, Note_on_c, 3, 60, 0
5, 92160, Note_on_c, 3, 64, 64
5, 92160, Note_on_c, 3, 60, 64
5, 93256, Note_on_c, 3, 64, 0
5, 93280, Note_on_c, 3, 60, 0
5, 93360, Note_on_c, 3, 62, 64
5, 93360, Note_on_c, 3, 59, 64
5, 93794, Note_on_c, 3, 62, 0
5, 93806, Note_on_c, 3, 59, 0
5, 93840, Note_on_c, 3, 60, 64
5, 93840, Note_on_c, 3, 57, 64
5, 94210, Note_on_c, 3, 60, 0
5, 94236, Note_on_c, 3, 57, 0
5, 94320, Note_on_c, 3, 55, 64
5, 94320, Note_on_c, 3, 59, 64
5, 94694, Note_on_c, 3, 55, 0
5, 94734, Note_on_c, 3, 59, 0
5, 94800, Note_on_c, 3, 54, 64
5, 94800, Note_on_c, 3, 57, 64
5, 94894, Note_on_c, 3, 54, 0
5, 94914, Note_on_c, 3, 57, 0
5, 95040, Note_on_c, 3, 55, 64
5, 95124, Note_on_c, 3, 55, 0
5, 96240, Note_on_c, 3, 50, 64
5, 96342, Note_on_c, 3, 50, 0
5, 96480, Note_on_c, 3, 55, 64
5, 96552, Note_on_c, 3, 55, 0
5, 96720, Note_on_c, 3, 59, 64
5, 96790, Note_on_c, 3, 59, 0
5, 96960, Note_on_c, 3, 60, 64
5, 97084, Note_on_c, 3, 60, 0
5, 98160, Note_on_c, 3, 57, 64
5, 98400, Note_on_c, 3, 54, 64
5, 98404, Note_on_c, 3, 57, 0
5, 98462, Note_on_c, 3, 54, 0
5, 98640, Note_on_c, 3, 48, 64
5, 98712, Note_on_c, 3, 48, 0
5, 98880, Note_on_c, 3, 47, 64
5, 98964, Note_on_c, 3, 47, 0
5, 100080, Note_on_c, 3, 50, 64
5, 100152, Note_on_c, 3, 50, 0
5, 100320, Note_on_c, 3, 55, 64
5, 100374, Note_on_c, 3, 55, 0
5, 100560, Note_on_c, 3, 59, 64
5, 100622, Note_on_c, 3, 59, 0
5, 100800, Note_on_c, 3, 60, 64
5, 100886, Note_on_c, 3, 60, 0
5, 102000, Note_on_c, 3, 57, 64
5, 102240, Note_on_c, 3, 57, 0
5, 102240, Note_on_c, 3, 54, 64
5, 102296, Note_on_c, 3, 54, 0
5, 102480, Note_on_c, 3, 48, 64
5, 102546, Note_on_c, 3, 48, 0
5, 102720, Note_on_c, 3, 46, 64
5, 102916, Note_on_c, 3, 46, 0
5, 105600, Note_on_c, 3, 58, 64
5, 108240, Note_on_c, 3, 62, 64
5, 108260, Note_on_c, 3, 58, 0
5, 108384, Note_on_c, 3, 62, 0
5, 108480, Note_on_c, 3, 63, 64
5, 108634, Note_on_c, 3, 63, 0
5, 110400, Note_on_c, 3, 59, 64
5, 111480, Note_on_c, 3, 60, 64
5, 111486, Note_on_c, 3, 59, 0
5, 111600, Note_on_c, 3, 62, 64
5, 111626, Note_on_c, 3, 60, 0
5, 111720, Note_on_c, 3, 60, 64
5, 111742, Note_on_c, 3, 62, 0
5, 111840, Note_on_c, 3, 59, 64
5, 111880, Note_on_c, 3, 60, 0
5, 111960, Note_on_c, 3, 55, 64
5, 111996, Note_on_c, 3, 59, 0
5, 112080, Note_on_c, 3, 57, 64
5, 112110, Note_on_c, 3, 55, 0
5, 112200, Note_on_c, 3, 59, 64
5, 112224, Note_on_c, 3, 57, 0
5, 112320, Note_on_c, 3, 60, 64
5, 112346, Note_on_c, 3, 59, 0
5, 112526, Note_on_c, 3, 60, 0
5, 112800, Note_on_c, 3, 62, 64
5, 113040, Note_on_c, 3, 65, 64
5, 113052, Note_on_c, 3, 62, 0
5, 113096, Note_on_c, 3, 65, 0
5, 113280, Note_on_c, 3, 60, 64
5, 113520, Note_on_c, 3, 63, 64
5, 113530, Note_on_c, 3, 60, 0
5, 113582, Note_on_c, 3, 63, 0
5, 113760, Note_on_c, 3, 59, 64
5, 114000, Note_on_c, 3, 62, 64
5, 114024, Note_on_c, 3, 59, 0
5, 114056, Note_on_c, 3, 62, 0
5, 114240, Note_on_c, 3, 54, 64
5, 115320, Note_on_c, 3, 55, 64
5, 115350, Note_on_c, 3, 54, 0
5, 115440, Note_on_c, 3, 57, 64
5, 115474, Note_on_c, 3, 55, 0
5, 115560, Note_on_c, 3, 55, 64
5, 115580, Note_on_c, 3, 57, 0
5, 115680, Note_on_c, 3, 54, 64
5, 115704, Note_on_c, 3, 55, 0
5, 115800, Note_on_c, 3, 50, 64
5, 115806, Note_on_c, 3, 54, 0
5, 115920, Note_on_c, 3, 52, 64
5, 115940, Note_on_c, 3, 50, 0
5, 116040, Note_on_c, 3, 54, 64
5, 116056, Note_on_c, 3, 52, 0
5, 116160, Note_on_c, 3, 55, 64
5, 116210, Note_on_c, 3, 54, 0
5, 116302, Note_on_c, 3, 55, 0
5, 116640, Note_on_c, 3, 48, 64
5, 116640, Note_on_c, 3, 57, 64
5, 116880, Note_on_c, 3, 60, 64
5, 116882, Note_on_c, 3, 48, 0
5, 116906, Note_on_c, 3, 57, 0
5, 116932, Note_on_c, 3, 60, 0
5, 117120, Note_on_c, 3, 50, 64
5, 117120, Note_on_c, 3, 55, 64
5, 117360, Note_on_c, 3, 58, 64
5, 117372, Note_on_c, 3, 50, 0
5, 117376, Note_on_c, 3, 55, 0
5, 117412, Note_on_c, 3, 58, 0
5, 117600, Note_on_c, 3, 50, 64
5, 117600, Note_on_c, 3, 54, 64
5, 117840, Note_on_c, 3, 57, 64
5, 117852, Note_on_c, 3, 50, 0
5, 117854, Note_on_c, 3, 54, 0
5, 117906, Note_on_c, 3, 57, 0
5, 118080, Note_on_c, 3, 43, 64
5, 118080, Note_on_c, 3, 55, 64
5, 118172, Note_on_c, 3, 43, 0
5, 118222, Note_on_c, 3, 55, 0
5, 118800, Note_on_c, 3, 62, 64
5, 118800, Note_on_c, 3, 50, 64
5, 118860, Note_on_c, 3, 62, 0
5, 118872, Note_on_c, 3, 50, 0
5, 119040, Note_on_c, 3, 62, 64
5, 119040, Note_on_c, 3, 50, 64
5, 119104, Note_on_c, 3, 62, 0
5, 119106, Note_on_c, 3, 50, 0
5, 120720, Note_on_c, 3, 52, 64
5, 120720, Note_on_c, 3, 62, 64
5, 120804, Note_on_c, 3, 52, 0
5, 120810, Note_on_c, 3, 62, 0
5, 120960, Note_on_c, 3, 60, 64
5, 120960, Note_on_c, 3, 57, 64
5, 121036, Note_on_c, 3, 57, 0
5, 121036, Note_on_c, 3, 60, 0
5, 122640, Note_on_c, 3, 66, 64
5, 122640, Note_on_c, 3, 54, 64
5, 122712, Note_on_c, 3, 66, 0
5, 122714, Note_on_c, 3, 54, 0
5, 122880, Note_on_c, 3, 66, 64
5, 122880, Note_on_c, 3, 59, 64
5, 122964, Note_on_c, 3, 59, 0
5, 122964, Note_on_c, 3, 66, 0
5, 124560, Note_on_c, 3, 57, 64
5, 124632, Note_on_c, 3, 57, 0
5, 124800, Note_on_c, 3, 62, 64
5, 124882, Note_on_c, 3, 62, 0
5, 125520, Note_on_c, 3, 47, 64
5, 125520, Note_on_c, 3, 59, 64
5, 125586, Note_on_c, 3, 47, 0
5, 125596, Note_on_c, 3, 59, 0
5, 125760, Note_on_c, 3, 52, 64
5, 125760, Note_on_c, 3, 64, 64
5, 125840, Note_on_c, 3, 64, 0
5, 125852, Note_on_c, 3, 52, 0
5, 126000, Note_on_c, 3, 51, 64
5, 126086, Note_on_c, 3, 51, 0
5, 126240, Note_on_c, 3, 52, 64
5, 126336, Note_on_c, 3, 52, 0
5, 126480, Note_on_c, 3, 54, 64
5, 126576, Note_on_c, 3, 54, 0
5, 126720, Note_on_c, 3, 55, 64
5, 126804, Note_on_c, 3, 55, 0
5, 126960, Note_on_c, 3, 54, 64
5, 127032, Note_on_c, 3, 54, 0
5, 127200, Note_on_c, 3, 55, 64
5, 127272, Note_on_c, 3, 55, 0
5, 127440, Note_on_c, 3, 57, 64
5, 127512, Note_on_c, 3, 57, 0
5, 127680, Note_on_c, 3, 59, 64
5, 127746, Note_on_c, 3, 59, 0
5, 127920, Note_on_c, 3, 54, 64
5, 127984, Note_on_c, 3, 54, 0
5, 128160, Note_on_c, 3, 55, 64
5, 128226, Note_on_c, 3, 55, 0
5, 128400, Note_on_c, 3, 57, 64
5, 128466, Note_on_c, 3, 57, 0
5, 128640, Note_on_c, 3, 59, 64
5, 128714, Note_on_c, 3, 59, 0
5, 128880, Note_on_c, 3, 57, 64
5, 128956, Note_on_c, 3, 57, 0
5, 129120, Note_on_c, 3, 59, 64
5, 129172, Note_on_c, 3, 59, 0
5, 129360, Note_on_c, 3, 60, 64
5, 129416, Note_on_c, 3, 60, 0
5, 129600, Note_on_c, 3, 62, 64
5, 129664, Note_on_c, 3, 62, 0
5, 129840, Note_on_c, 3, 54, 64
5, 129840, Note_on_c, 3, 42, 64
5, 130080, Note_on_c, 3, 43, 64
5, 130080, Note_on_c, 3, 55, 64
5, 130112, Note_on_c, 3, 54, 0
5, 130116, Note_on_c, 3, 42, 0
5, 130320, Note_on_c, 3, 47, 64
5, 130320, Note_on_c, 3, 59, 64
5, 130346, Note_on_c, 3, 43, 0
5, 130346, Note_on_c, 3, 55, 0
5, 130560, Note_on_c, 3, 50, 64
5, 130560, Note_on_c, 3, 62, 64
5, 130586, Note_on_c, 3, 59, 0
5, 130592, Note_on_c, 3, 47, 0
5, 131200, Note_on_c, 3, 62, 0
5, 131206, Note_on_c, 3, 50, 0
5, 131280, Note_on_c, 3, 63, 64
5, 131280, Note_on_c, 3, 51, 64
5, 131372, Note_on_c, 3, 63, 0
5, 131380, Note_on_c, 3, 51, 0
5, 131520, Note_on_c, 3, 64, 64
5, 131520, Note_on_c, 3, 52, 64
5, 131620, Note_on_c, 3, 64, 0
5, 131692, Note_on_c, 3, 52, 0
5, 131760, Note_on_c, 3, 51, 64
5, 132000, Note_on_c, 3, 52, 64
5, 132020, Note_on_c, 3, 51, 0
5, 132240, Note_on_c, 3, 55, 64
5, 132244, Note_on_c, 3, 52, 0
5, 132480, Note_on_c, 3, 59, 64
5, 132522, Note_on_c, 3, 55, 0
5, 133062, Note_on_c, 3, 59, 0
5, 133200, Note_on_c, 3, 59, 64
5, 133272, Note_on_c, 3, 59, 0
5, 133440, Note_on_c, 3, 60, 64
5, 134040, Note_on_c, 3, 57, 64
5, 134074, Note_on_c, 3, 60, 0
5, 134160, Note_on_c, 3, 59, 64
5, 134190, Note_on_c, 3, 57, 0
5, 134280, Note_on_c, 3, 60, 64
5, 134332, Note_on_c, 3, 59, 0
5, 134400, Note_on_c, 3, 62, 64
5, 134420, Note_on_c, 3, 60, 0
5, 134520, Note_on_c, 3, 61, 64
5, 134536, Note_on_c, 3, 62, 0
5, 134640, Note_on_c, 3, 62, 64
5, 134660, Note_on_c, 3, 61, 0
5, 134760, Note_on_c, 3, 61, 64
5, 134770, Note_on_c, 3, 62, 0
5, 134880, Note_on_c, 3, 62, 64
5, 134896, Note_on_c, 3, 61, 0
5, 134950, Note_on_c, 3, 62, 0
5, 135120, Note_on_c, 3, 50, 64
5, 135192, Note_on_c, 3, 50, 0
5, 135360, Note_on_c, 3, 55, 64
5, 135360, Note_on_c, 3, 43, 64
5, 135480, Note_on_c, 3, 57, 64
5, 135480, Note_on_c, 3, 45, 64
5, 135484, Note_on_c, 3, 43, 0
5, 135484, Note_on_c, 3, 55, 0
5, 135600, Note_on_c, 3, 55, 64
5, 135600, Note_on_c, 3, 43, 64
5, 135632, Note_on_c, 3, 45, 0
5, 135644, Note_on_c, 3, 57, 0
5, 135720, Note_on_c, 3, 42, 64
5, 135720, Note_on_c, 3, 54, 64
5, 135734, Note_on_c, 3, 43, 0
5, 135740, Note_on_c, 3, 55, 0
5, 135840, Note_on_c, 3, 43, 64
5, 135840, Note_on_c, 3, 55, 64
5, 135852, Note_on_c, 3, 54, 0
5, 135866, Note_on_c, 3, 42, 0
5, 135960, Note_on_c, 3, 57, 64
5, 135960, Note_on_c, 3, 45, 64
5, 135970, Note_on_c, 3, 43, 0
5, 135984, Note_on_c, 3, 55, 0
5, 136080, Note_on_c, 3, 47, 64
5, 136080, Note_on_c, 3, 59, 64
5, 136096, Note_on_c, 3, 57, 0
5, 136134, Note_on_c, 3, 45, 0
5, 136200, Note_on_c, 3, 48, 64
5, 136200, Note_on_c, 3, 60, 64
5, 136224, Note_on_c, 3, 47, 0
5, 136234, Note_on_c, 3, 59, 0
5, 136320, Note_on_c, 3, 62, 64
5, 136320, Note_on_c, 3, 50, 64
5, 136364, Note_on_c, 3, 48, 0
5, 136374, Note_on_c, 3, 60, 0
5, 136866, Note_on_c, 3, 62, 0
5, 136894, Note_on_c, 3, 50, 0
5, 137040, Note_on_c, 3, 63, 64
5, 137040, Note_on_c, 3, 51, 64
5, 137102, Note_on_c, 3, 63, 0
5, 137120, Note_on_c, 3, 51, 0
5, 137280, Note_on_c, 3, 52, 64
5, 137280, Note_on_c, 3, 64, 64
5, 137400, Note_on_c, 3, 54, 64
5, 137404, Note_on_c, 3, 64, 0
5, 137416, Note_on_c, 3, 52, 0
5, 137520, Note_on_c, 3, 52, 64
5, 137540, Note_on_c, 3, 54, 0
5, 137640, Note_on_c, 3, 51, 64
5, 137674, Note_on_c, 3, 52, 0
5, 137760, Note_on_c, 3, 52, 64
5, 137782, Note_on_c, 3, 51, 0
5, 137880, Note_on_c, 3, 54, 64
5, 137884, Note_on_c, 3, 52, 0
5, 138000, Note_on_c, 3, 55, 64
5, 138016, Note_on_c, 3, 54, 0
5, 138120, Note_on_c, 3, 57, 64
5, 138146, Note_on_c, 3, 55, 0
5, 138240, Note_on_c, 3, 59, 64
5, 138264, Note_on_c, 3, 57, 0
5, 138790, Note_on_c, 3, 59, 0
5, 138960, Note_on_c, 3, 59, 64
5, 139022, Note_on_c, 3, 59, 0
5, 139200, Note_on_c, 3, 60, 64
5, 139320, Note_on_c, 3, 59, 64
5, 139340, Note_on_c, 3, 60, 0
5, 139440, Note_on_c, 3, 60, 64
5, 139472, Note_on_c, 3, 59, 0
5, 139560, Note_on_c, 3, 59, 64
5, 139572, Note_on_c, 3, 60, 0
5, 139680, Note_on_c, 3, 60, 64
5, 139714, Note_on_c, 3, 59, 0
5, 139800, Note_on_c, 3, 57, 64
5, 139826, Note_on_c, 3, 60, 0
5, 139920, Note_on_c, 3, 59, 64
5, 139952, Note_on_c, 3, 57, 0
5, 140040, Note_on_c, 3, 60, 64
5, 140080, Note_on_c, 3, 59, 0
5, 140160, Note_on_c, 3, 62, 64
5, 140180, Note_on_c, 3, 60, 0
5, 140280, Note_on_c, 3, 61, 64
5, 140302, Note_on_c, 3, 62, 0
5, 140400, Note_on_c, 3, 62, 64
5, 140416, Note_on_c, 3, 61, 0
5, 140520, Note_on_c, 3, 61, 64
5, 140536, Note_on_c, 3, 62, 0
5, 140640, Note_on_c, 3, 62, 64
5, 140672, Note_on_c, 3, 61, 0
5, 140724, Note_on_c, 3, 62, 0
5, 140880, Note_on_c, 3, 50, 64
5, 140954, Note_on_c, 3, 50, 0
5, 141120, Note_on_c, 3, 55, 64
5, 141192, Note_on_c, 3, 55, 0
5, 141360, Note_on_c, 3, 62, 64
5, 141694, Note_on_c, 3, 62, 0
5, 141840, Note_on_c, 3, 62, 64
5, 141900, Note_on_c, 3, 62, 0
5, 142080, Note_on_c, 3, 60, 64
5, 142136, Note_on_c, 3, 60, 0
5, 142320, Note_on_c, 3, 59, 64
5, 142380, Note_on_c, 3, 59, 0
5, 142560, Note_on_c, 3, 57, 64
5, 142616, Note_on_c, 3, 57, 0
5, 142800, Note_on_c, 3, 55, 64
5, 142874, Note_on_c, 3, 55, 0
5, 143040, Note_on_c, 3, 54, 64
5, 143102, Note_on_c, 3, 54, 0
5, 145200, Note_on_c, 3, 62, 64
5, 145592, Note_on_c, 3, 62, 0
5, 145680, Note_on_c, 3, 62, 64
5, 145744, Note_on_c, 3, 62, 0
5, 145920, Note_on_c, 3, 60, 64
5, 145976, Note_on_c, 3, 60, 0
5, 146160, Note_on_c, 3, 59, 64
5, 146216, Note_on_c, 3, 59, 0
5, 146400, Note_on_c, 3, 57, 64
5, 146460, Note_on_c, 3, 57, 0
5, 146640, Note_on_c, 3, 55, 64
5, 146712, Note_on_c, 3, 55, 0
5, 146880, Note_on_c, 3, 54, 64
5, 146932, Note_on_c, 3, 54, 0
5, 152880, Note_on_c, 3, 69, 48
5, 152880, Note_on_c, 3, 57, 48
5, 153254, Note_on_c, 3, 69, 0
5, 153266, Note_on_c, 3, 57, 0
5, 153360, Note_on_c, 3, 55, 48
5, 153360, Note_on_c, 3, 67, 48
5, 153414, Note_on_c, 3, 67, 0
5, 153416, Note_on_c, 3, 55, 0
5, 153600, Note_on_c, 3, 65, 48
5, 153600, Note_on_c, 3, 53, 48
5, 153644, Note_on_c, 3, 65, 0
5, 153650, Note_on_c, 3, 53, 0
5, 153840, Note_on_c, 3, 64, 48
5, 153840, Note_on_c, 3, 52, 48
5, 153886, Note_on_c, 3, 52, 0
5, 153892, Note_on_c, 3, 64, 0
5, 154080, Note_on_c, 3, 62, 48
5, 154080, Note_on_c, 3, 50, 48
5, 154122, Note_on_c, 3, 62, 0
5, 154132, Note_on_c, 3, 50, 0
5, 154320, Note_on_c, 3, 48, 48
5, 154320, Note_on_c, 3, 60, 48
5, 154364, Note_on_c, 3, 60, 0
5, 154366, Note_on_c, 3, 48, 0
5, 154560, Note_on_c, 3, 59, 48
5, 154560, Note_on_c, 3, 47, 48
5, 154612, Note_on_c, 3, 59, 0
5, 154620, Note_on_c, 3, 47, 0
5, 154800, Note_on_c, 3, 45, 48
5, 154800, Note_on_c, 3, 57, 48
5, 154850, Note_on_c, 3, 57, 0
5, 154852, Note_on_c, 3, 45, 0
5, 155040, Note_on_c, 3, 55, 48
5, 155040, Note_on_c, 3, 43, 48
5, 155090, Note_on_c, 3, 55, 0
5, 155092, Note_on_c, 3, 43, 0
5, 155280, Note_on_c, 3, 54, 48
5, 155280, Note_on_c, 3, 42, 48
5, 155332, Note_on_c, 3, 42, 0
5, 155332, Note_on_c, 3, 54, 0
5, 155520, Note_on_c, 3, 43, 48
5, 155520, Note_on_c, 3, 55, 48
5, 155572, Note_on_c, 3, 43, 0
5, 155576, Note_on_c, 3, 55, 0
5, 155760, Note_on_c, 3, 57, 48
5, 155760, Note_on_c, 3, 45, 48
5, 155814, Note_on_c, 3, 57, 0
5, 155816, Note_on_c, 3, 45, 0
5, 156000, Note_on_c, 3, 59, 48
5, 156000, Note_on_c, 3, 47, 48
5, 156052, Note_on_c, 3, 59, 0
5, 156056, Note_on_c, 3, 47, 0
5, 156240, Note_on_c, 3, 60, 48
5, 156240, Note_on_c, 3, 48, 48
5, 156292, Note_on_c, 3, 60, 0
5, 156302, Note_on_c, 3, 48, 0
5, 156480, Note_on_c, 3, 62, 64
5, 156480, Note_on_c, 3, 50, 64
5, 156526, Note_on_c, 3, 62, 0
5, 156546, Note_on_c, 3, 50, 0
5, 156720, Note_on_c, 3, 48, 64
5, 156720, Note_on_c, 3, 60, 64
5, 156770, Note_on_c, 3, 60, 0
5, 156782, Note_on_c, 3, 48, 0
5, 156960, Note_on_c, 3, 59, 64
5, 156960, Note_on_c, 3, 47, 64
5, 157014, Note_on_c, 3, 59, 0
5, 157022, Note_on_c, 3, 47, 0
5, 157200, Note_on_c, 3, 57, 64
5, 157200, Note_on_c, 3, 45, 64
5, 157242, Note_on_c, 3, 57, 0
5, 157272, Note_on_c, 3, 45, 0
5, 157440, Note_on_c, 3, 55, 64
5, 157440, Note_on_c, 3, 43, 64
5, 157502, Note_on_c, 3, 43, 0
5, 157502, Note_on_c, 3, 55, 0
5, 157680, Note_on_c, 3, 45, 64
5, 157680, Note_on_c, 3, 57, 64
5, 157736, Note_on_c, 3, 57, 0
5, 157742, Note_on_c, 3, 45, 0
5, 157920, Note_on_c, 3, 59, 64
5, 157920, Note_on_c, 3, 47, 64
5, 157974, Note_on_c, 3, 59, 0
5, 157986, Note_on_c, 3, 47, 0
5, 158160, Note_on_c, 3, 60, 64
5, 158160, Note_on_c, 3, 48, 64
5, 158214, Note_on_c, 3, 60, 0
5, 158226, Note_on_c, 3, 48, 0
5, 158400, Note_on_c, 3, 62, 64
5, 158400, Note_on_c, 3, 50, 64
5, 158454, Note_on_c, 3, 62, 0
5, 158462, Note_on_c, 3, 50, 0
5, 158640, Note_on_c, 3, 48, 64
5, 158640, Note_on_c, 3, 60, 64
5, 158694, Note_on_c, 3, 60, 0
5, 158706, Note_on_c, 3, 48, 0
5, 158880, Note_on_c, 3, 59, 64
5, 158880, Note_on_c, 3, 47, 64
5, 158932, Note_on_c, 3, 59, 0
5, 158946, Note_on_c, 3, 47, 0
5, 159120, Note_on_c, 3, 45, 64
5, 159120, Note_on_c, 3, 57, 64
5, 159170, Note_on_c, 3, 57, 0
5, 159182, Note_on_c, 3, 45, 0
5, 159360, Note_on_c, 3, 43, 64
5, 159360, Note_on_c, 3, 55, 64
5, 159416, Note_on_c, 3, 43, 0
5, 159434, Note_on_c, 3, 55, 0
5, 159600, Note_on_c, 3, 53, 64
5, 159600, Note_on_c, 3, 41, 64
5, 159652, Note_on_c, 3, 53, 0
5, 159654, Note_on_c, 3, 41, 0
5, 159840, Note_on_c, 3, 52, 64
5, 159840, Note_on_c, 3, 40, 64
5, 159894, Note_on_c, 3, 52, 0
5, 159896, Note_on_c, 3, 40, 0
5, 160080, Note_on_c, 3, 38, 64
5, 160080, Note_on_c, 3, 50, 64
5, 160134, Note_on_c, 3, 50, 0
5, 160134, Note_on_c, 3, 38, 0
5, 160320, Note_on_c, 3, 48, 64
5, 160320, Note_on_c, 3, 36, 64
5, 160396, Note_on_c, 3, 48, 0
5, 160450, Note_on_c, 3, 36, 0
5, 168000, Note_on_c, 3, 51, 64
5, 168000, Note_on_c, 3, 55, 64
5, 169996, Note_on_c, 3, 51, 0
5, 170002, Note_on_c, 3, 55, 0
5, 170400, Note_on_c, 3, 51, 64
5, 170400, Note_on_c, 3, 55, 64
5, 170472, Note_on_c, 3, 51, 0
5, 170476, Note_on_c, 3, 55, 0
5, 170880, Note_on_c, 3, 55, 64
5, 170880, Note_on_c, 3, 51, 64
5, 170954, Note_on_c, 3, 51, 0
5, 170964, Note_on_c, 3, 55, 0
5, 171840, Note_on_c, 3, 53, 64
5, 171840, Note_on_c, 3, 56, 64
5, 173806, Note_on_c, 3, 53, 0
5, 173812, Note_on_c, 3, 56, 0
5, 174240, Note_on_c, 3, 53, 64
5, 174240, Note_on_c, 3, 56, 64
5, 174300, Note_on_c, 3, 53, 0
5, 174310, Note_on_c, 3, 56, 0
5, 174720, Note_on_c, 3, 53, 64
5, 174720, Note_on_c, 3, 56, 64
5, 174780, Note_on_c, 3, 53, 0
5, 174800, Note_on_c, 3, 56, 0
5, 175680, Note_on_c, 3, 51, 64
5, 175680, Note_on_c, 3, 55, 64
5, 175736, Note_on_c, 3, 51, 0
5, 175746, Note_on_c, 3, 55, 0
5, 175920, Note_on_c, 3, 63, 64
5, 176306, Note_on_c, 3, 63, 0
5, 176400, Note_on_c, 3, 62, 64
5, 176462, Note_on_c, 3, 62, 0
5, 176640, Note_on_c, 3, 63, 64
5, 176704, Note_on_c, 3, 63, 0
5, 176880, Note_on_c, 3, 62, 64
5, 176940, Note_on_c, 3, 62, 0
5, 177120, Note_on_c, 3, 60, 64
5, 177192, Note_on_c, 3, 60, 0
5, 177360, Note_on_c, 3, 65, 64
5, 177360, Note_on_c, 3, 67, 64
5, 177402, Note_on_c, 3, 65, 0
5, 177406, Note_on_c, 3, 67, 0
5, 177600, Note_on_c, 3, 58, 64
5, 177672, Note_on_c, 3, 58, 0
5, 179760, Note_on_c, 3, 65, 64
5, 180122, Note_on_c, 3, 65, 0
5, 180240, Note_on_c, 3, 64, 64
5, 180310, Note_on_c, 3, 64, 0
5, 180480, Note_on_c, 3, 65, 64
5, 180550, Note_on_c, 3, 65, 0
5, 180720, Note_on_c, 3, 63, 64
5, 180794, Note_on_c, 3, 63, 0
5, 180960, Note_on_c, 3, 62, 64
5, 181040, Note_on_c, 3, 62, 0
5, 181200, Note_on_c, 3, 67, 64
5, 181264, Note_on_c, 3, 67, 0
5, 181440, Note_on_c, 3, 60, 64
5, 181506, Note_on_c, 3, 60, 0
5, 181680, Note_on_c, 3, 60, 64
5, 181680, Note_on_c, 3, 63, 64
5, 182034, Note_on_c, 3, 60, 0
5, 182046, Note_on_c, 3, 63, 0
5, 182160, Note_on_c, 3, 62, 64
5, 182160, Note_on_c, 3, 59, 64
5, 182214, Note_on_c, 3, 59, 0
5, 182214, Note_on_c, 3, 62, 0
5, 182400, Note_on_c, 3, 60, 64
5, 182400, Note_on_c, 3, 63, 64
5, 182450, Note_on_c, 3, 60, 0
5, 182460, Note_on_c, 3, 63, 0
5, 182640, Note_on_c, 3, 58, 64
5, 182640, Note_on_c, 3, 62, 64
5, 182696, Note_on_c, 3, 62, 0
5, 182700, Note_on_c, 3, 58, 0
5, 182880, Note_on_c, 3, 60, 64
5, 182880, Note_on_c, 3, 57, 64
5, 182944, Note_on_c, 3, 60, 0
5, 182946, Note_on_c, 3, 57, 0
5, 183120, Note_on_c, 3, 60, 64
5, 183120, Note_on_c, 3, 56, 64
5, 183186, Note_on_c, 3, 56, 0
5, 183186, Note_on_c, 3, 60, 0
5, 183360, Note_on_c, 3, 59, 64
5, 183360, Note_on_c, 3, 55, 64
5, 183470, Note_on_c, 3, 55, 0
5, 183480, Note_on_c, 3, 59, 0
5, 185520, Note_on_c, 3, 62, 64
5, 185520, Note_on_c, 3, 65, 64
5, 185936, Note_on_c, 3, 62, 0
5, 185942, Note_on_c, 3, 65, 0
5, 186000, Note_on_c, 3, 65, 64
5, 186000, Note_on_c, 3, 62, 64
5, 186064, Note_on_c, 3, 65, 0
5, 186066, Note_on_c, 3, 62, 0
5, 186240, Note_on_c, 3, 63, 64
5, 186240, Note_on_c, 3, 60, 64
5, 186300, Note_on_c, 3, 63, 0
5, 186304, Note_on_c, 3, 60, 0
5, 186480, Note_on_c, 3, 60, 64
5, 186480, Note_on_c, 3, 63, 64
5, 186876, Note_on_c, 3, 60, 0
5, 186886, Note_on_c, 3, 63, 0
5, 186960, Note_on_c, 3, 60, 64
5, 186960, Note_on_c, 3, 63, 64
5, 187022, Note_on_c, 3, 60, 0
5, 187026, Note_on_c, 3, 63, 0
5, 187200, Note_on_c, 3, 59, 64
5, 187200, Note_on_c, 3, 62, 64
5, 187256, Note_on_c, 3, 62, 0
5, 187262, Note_on_c, 3, 59, 0
5, 187440, Note_on_c, 3, 63, 64
5, 187440, Note_on_c, 3, 60, 64
5, 187502, Note_on_c, 3, 60, 0
5, 187502, Note_on_c, 3, 63, 0
5, 187680, Note_on_c, 3, 62, 64
5, 187680, Note_on_c, 3, 59, 64
5, 187740, Note_on_c, 3, 62, 0
5, 187744, Note_on_c, 3, 59, 0
5, 187920, Note_on_c, 3, 60, 64
5, 187920, Note_on_c, 3, 63, 64
5, 187982, Note_on_c, 3, 60, 0
5, 187986, Note_on_c, 3, 63, 0
5, 188160, Note_on_c, 3, 62, 64
5, 188160, Note_on_c, 3, 59, 64
5, 188220, Note_on_c, 3, 59, 0
5, 188220, Note_on_c, 3, 62, 0
5, 188400, Note_on_c, 3, 63, 64
5, 188400, Note_on_c, 3, 60, 64
5, 188462, Note_on_c, 3, 60, 0
5, 188462, Note_on_c, 3, 63, 0
5, 188640, Note_on_c, 3, 62, 64
5, 188640, Note_on_c, 3, 59, 64
5, 188700, Note_on_c, 3, 62, 0
5, 188704, Note_on_c, 3, 59, 0
5, 188880, Note_on_c, 3, 60, 64
5, 188880, Note_on_c, 3, 63, 64
5, 188934, Note_on_c, 3, 60, 0
5, 188944, Note_on_c, 3, 63, 0
5, 189120, Note_on_c, 3, 62, 64
5, 189120, Note_on_c, 3, 59, 64
5, 189200, Note_on_c, 3, 62, 0
5, 189204, Note_on_c, 3, 59, 0
5, 189600, Note_on_c, 3, 67, 64
5, 189600, Note_on_c, 3, 55, 64
5, 189696, Note_on_c, 3, 67, 0
5, 189702, Note_on_c, 3, 55, 0
5, 190080, Note_on_c, 3, 43, 64
5, 190080, Note_on_c, 3, 55, 64
5, 190162, Note_on_c, 3, 43, 0
5, 190170, Note_on_c, 3, 55, 0
5, 201120, Note_on_c, 3, 59, 64
5, 201600, Note_on_c, 3, 60, 64
5, 201642, Note_on_c, 3, 59, 0
5, 202080, Note_on_c, 3, 57, 64
5, 202114, Note_on_c, 3, 60, 0
5, 202560, Note_on_c, 3, 55, 64
5, 202604, Note_on_c, 3, 57, 0
5, 202690, Note_on_c, 3, 55, 0
5, 203760, Note_on_c, 3, 43, 64
5, 203760, Note_on_c, 3, 55, 64
5, 203830, Note_on_c, 3, 55, 0
5, 203834, Note_on_c, 3, 43, 0
5, 204000, Note_on_c, 3, 57, 64
5, 204000, Note_on_c, 3, 45, 64
5, 204074, Note_on_c, 3, 57, 0
5, 204090, Note_on_c, 3, 45, 0
5, 204240, Note_on_c, 3, 59, 64
5, 204240, Note_on_c, 3, 47, 64
5, 204312, Note_on_c, 3, 59, 0
5, 204316, Note_on_c, 3, 47, 0
5, 204480, Note_on_c, 3, 48, 64
5, 204480, Note_on_c, 3, 60, 64
5, 204570, Note_on_c, 3, 60, 0
5, 204590, Note_on_c, 3, 48, 0
5, 204960, Note_on_c, 3, 53, 64
5, 204960, Note_on_c, 3, 57, 64
5, 205032, Note_on_c, 3, 53, 0
5, 205440, Note_on_c, 3, 55, 64
5, 205480, Note_on_c, 3, 57, 0
5, 205920, Note_on_c, 3, 43, 64
5, 205920, Note_on_c, 3, 53, 64
5, 205950, Note_on_c, 3, 55, 0
5, 205980, Note_on_c, 3, 43, 0
5, 206400, Note_on_c, 3, 52, 64
5, 206400, Note_on_c, 3, 48, 64
5, 206426, Note_on_c, 3, 53, 0
5, 206522, Note_on_c, 3, 48, 0
5, 206524, Note_on_c, 3, 52, 0
5, 207600, Note_on_c, 3, 55, 64
5, 207686, Note_on_c, 3, 55, 0
5, 207840, Note_on_c, 3, 60, 64
5, 207910, Note_on_c, 3, 60, 0
5, 208080, Note_on_c, 3, 64, 64
5, 208162, Note_on_c, 3, 64, 0
5, 208320, Note_on_c, 3, 65, 64
5, 208396, Note_on_c, 3, 65, 0
5, 209520, Note_on_c, 3, 62, 64
5, 209760, Note_on_c, 3, 59, 64
5, 209762, Note_on_c, 3, 62, 0
5, 209814, Note_on_c, 3, 59, 0
5, 210000, Note_on_c, 3, 53, 64
5, 210070, Note_on_c, 3, 53, 0
5, 210240, Note_on_c, 3, 52, 64
5, 210322, Note_on_c, 3, 52, 0
5, 211440, Note_on_c, 3, 55, 64
5, 211522, Note_on_c, 3, 55, 0
5, 211680, Note_on_c, 3, 60, 64
5, 211736, Note_on_c, 3, 60, 0
5, 211920, Note_on_c, 3, 64, 64
5, 211982, Note_on_c, 3, 64, 0
5, 212160, Note_on_c, 3, 65, 64
5, 212280, Note_on_c, 3, 65, 0
5, 213360, Note_on_c, 3, 62, 64
5, 213584, Note_on_c, 3, 62, 0
5, 213600, Note_on_c, 3, 59, 64
5, 213660, Note_on_c, 3, 59, 0
5, 213840, Note_on_c, 3, 53, 64
5, 213916, Note_on_c, 3, 53, 0
5, 214080, Note_on_c, 3, 51, 64
5, 214210, Note_on_c, 3, 51, 0
5, 215040, Note_on_c, 3, 63, 64
5, 216000, Note_on_c, 3, 61, 64
5, 217672, Note_on_c, 3, 61, 0
5, 217680, Note_on_c, 3, 60, 64
5, 217920, Note_on_c, 3, 58, 64
5, 218004, Note_on_c, 3, 60, 0
5, 218194, Note_on_c, 3, 63, 0
5, 218280, Note_on_c, 3, 63, 64
5, 218640, Note_on_c, 3, 56, 64
5, 218676, Note_on_c, 3, 58, 0
5, 218880, Note_on_c, 3, 55, 64
5, 218910, Note_on_c, 3, 56, 0
5, 219524, Note_on_c, 3, 55, 0
5, 219600, Note_on_c, 3, 55, 64
5, 219724, Note_on_c, 3, 55, 0
5, 219840, Note_on_c, 3, 56, 64
5, 219972, Note_on_c, 3, 56, 0
5, 220032, Note_on_c, 3, 63, 0
5, 221760, Note_on_c, 3, 52, 64
5, 222840, Note_on_c, 3, 53, 64
5, 222872, Note_on_c, 3, 52, 0
5, 222960, Note_on_c, 3, 55, 64
5, 222982, Note_on_c, 3, 53, 0
5, 223080, Note_on_c, 3, 53, 64
5, 223110, Note_on_c, 3, 55, 0
5, 223200, Note_on_c, 3, 52, 64
5, 223232, Note_on_c, 3, 53, 0
5, 223320, Note_on_c, 3, 48, 64
5, 223342, Note_on_c, 3, 52, 0
5, 223440, Note_on_c, 3, 50, 64
5, 223472, Note_on_c, 3, 48, 0
5, 223560, Note_on_c, 3, 52, 64
5, 223574, Note_on_c, 3, 50, 0
5, 223680, Note_on_c, 3, 53, 64
5, 223712, Note_on_c, 3, 52, 0
5, 223810, Note_on_c, 3, 53, 0
5, 224160, Note_on_c, 3, 46, 64
5, 224160, Note_on_c, 3, 55, 64
5, 224380, Note_on_c, 3, 46, 0
5, 224400, Note_on_c, 3, 58, 64
5, 224412, Note_on_c, 3, 55, 0
5, 224456, Note_on_c, 3, 58, 0
5, 224640, Note_on_c, 3, 48, 64
5, 224640, Note_on_c, 3, 53, 64
5, 224874, Note_on_c, 3, 48, 0
5, 224880, Note_on_c, 3, 56, 64
5, 224896, Note_on_c, 3, 53, 0
5, 224932, Note_on_c, 3, 56, 0
5, 225120, Note_on_c, 3, 48, 64
5, 225120, Note_on_c, 3, 52, 64
5, 225360, Note_on_c, 3, 55, 64
5, 225362, Note_on_c, 3, 48, 0
5, 225372, Note_on_c, 3, 52, 0
5, 225422, Note_on_c, 3, 55, 0
5, 225600, Note_on_c, 3, 47, 64
5, 226680, Note_on_c, 3, 48, 64
5, 226746, Note_on_c, 3, 47, 0
5, 226800, Note_on_c, 3, 50, 64
5, 226830, Note_on_c, 3, 48, 0
5, 226920, Note_on_c, 3, 48, 64
5, 226972, Note_on_c, 3, 50, 0
5, 227040, Note_on_c, 3, 47, 64
5, 227082, Note_on_c, 3, 48, 0
5, 227160, Note_on_c, 3, 43, 64
5, 227194, Note_on_c, 3, 47, 0
5, 227280, Note_on_c, 3, 45, 64
5, 227310, Note_on_c, 3, 43, 0
5, 227400, Note_on_c, 3, 47, 64
5, 227410, Note_on_c, 3, 45, 0
5, 227520, Note_on_c, 3, 48, 64
5, 227566, Note_on_c, 3, 47, 0
5, 227686, Note_on_c, 3, 48, 0
5, 228000, Note_on_c, 3, 62, 64
5, 228000, Note_on_c, 3, 53, 64
5, 228240, Note_on_c, 3, 65, 64
5, 228256, Note_on_c, 3, 53, 0
5, 228256, Note_on_c, 3, 62, 0
5, 228294, Note_on_c, 3, 65, 0
5, 228480, Note_on_c, 3, 55, 64
5, 228480, Note_on_c, 3, 60, 64
5, 228720, Note_on_c, 3, 63, 64
5, 228726, Note_on_c, 3, 55, 0
5, 228750, Note_on_c, 3, 60, 0
5, 228774, Note_on_c, 3, 63, 0
5, 228960, Note_on_c, 3, 59, 64
5, 228960, Note_on_c, 3, 43, 64
5, 229200, Note_on_c, 3, 62, 64
5, 229210, Note_on_c, 3, 59, 0
5, 229214, Note_on_c, 3, 43, 0
5, 229260, Note_on_c, 3, 62, 0
5, 229440, Note_on_c, 3, 48, 64
5, 229440, Note_on_c, 3, 60, 64
5, 229550, Note_on_c, 3, 60, 0
5, 229576, Note_on_c, 3, 48, 0
5, 230160, Note_on_c, 3, 62, 64
5, 230160, Note_on_c, 3, 59, 64
5, 230242, Note_on_c, 3, 62, 0
5, 230254, Note_on_c, 3, 59, 0
5, 230400, Note_on_c, 3, 60, 64
5, 230400, Note_on_c, 3, 64, 64
5, 230484, Note_on_c, 3, 60, 0
5, 230492, Note_on_c, 3, 64, 0
5, 232080, Note_on_c, 3, 45, 64
5, 232080, Note_on_c, 3, 57, 64
5, 232162, Note_on_c, 3, 45, 0
5, 232164, Note_on_c, 3, 57, 0
5, 232320, Note_on_c, 3, 62, 64
5, 232320, Note_on_c, 3, 50, 64
5, 232400, Note_on_c, 3, 62, 0
5, 232402, Note_on_c, 3, 50, 0
5, 234000, Note_on_c, 3, 47, 64
5, 234000, Note_on_c, 3, 59, 64
5, 234062, Note_on_c, 3, 47, 0
5, 234082, Note_on_c, 3, 59, 0
5, 234240, Note_on_c, 3, 64, 64
5, 234240, Note_on_c, 3, 52, 64
5, 234322, Note_on_c, 3, 64, 0
5, 234324, Note_on_c, 3, 52, 0
5, 235920, Note_on_c, 3, 62, 64
5, 235976, Note_on_c, 3, 62, 0
5, 236160, Note_on_c, 3, 55, 64
5, 236160, Note_on_c, 3, 67, 64
5, 236226, Note_on_c, 3, 55, 0
5, 236236, Note_on_c, 3, 67, 0
5, 236880, Note_on_c, 3, 64, 64
5, 236880, Note_on_c, 3, 52, 64
5, 236940, Note_on_c, 3, 64, 0
5, 236956, Note_on_c, 3, 52, 0
5, 237120, Note_on_c, 3, 57, 64
5, 237202, Note_on_c, 3, 57, 0
5, 237360, Note_on_c, 3, 56, 64
5, 237426, Note_on_c, 3, 56, 0
5, 237600, Note_on_c, 3, 57, 64
5, 237680, Note_on_c, 3, 57, 0
5, 237840, Note_on_c, 3, 59, 64
5, 237910, Note_on_c, 3, 59, 0
5, 238080, Note_on_c, 3, 60, 64
5, 238152, Note_on_c, 3, 60, 0
5, 238320, Note_on_c, 3, 59, 64
5, 238390, Note_on_c, 3, 59, 0
5, 238560, Note_on_c, 3, 60, 64
5, 238626, Note_on_c, 3, 60, 0
5, 238800, Note_on_c, 3, 62, 64
5, 238880, Note_on_c, 3, 62, 0
5, 239040, Note_on_c, 3, 64, 64
5, 239112, Note_on_c, 3, 64, 0
5, 239280, Note_on_c, 3, 59, 64
5, 239280, Note_on_c, 3, 47, 64
5, 239354, Note_on_c, 3, 59, 0
5, 239362, Note_on_c, 3, 47, 0
5, 239520, Note_on_c, 3, 60, 64
5, 239520, Note_on_c, 3, 48, 64
5, 239580, Note_on_c, 3, 60, 0
5, 239590, Note_on_c, 3, 48, 0
5, 239760, Note_on_c, 3, 50, 64
5, 239760, Note_on_c, 3, 62, 64
5, 239820, Note_on_c, 3, 50, 0
5, 239834, Note_on_c, 3, 62, 0
5, 240000, Note_on_c, 3, 64, 64
5, 240000, Note_on_c, 3, 52, 64
5, 240064, Note_on_c, 3, 52, 0
5, 240064, Note_on_c, 3, 64, 0
5, 240240, Note_on_c, 3, 50, 64
5, 240240, Note_on_c, 3, 62, 64
5, 240300, Note_on_c, 3, 50, 0
5, 240304, Note_on_c, 3, 62, 0
5, 240480, Note_on_c, 3, 64, 64
5, 240480, Note_on_c, 3, 52, 64
5, 240534, Note_on_c, 3, 64, 0
5, 240544, Note_on_c, 3, 52, 0
5, 240720, Note_on_c, 3, 53, 64
5, 240720, Note_on_c, 3, 65, 64
5, 240780, Note_on_c, 3, 53, 0
5, 240792, Note_on_c, 3, 65, 0
5, 240960, Note_on_c, 3, 67, 64
5, 240960, Note_on_c, 3, 55, 64
5, 241012, Note_on_c, 3, 55, 0
5, 241020, Note_on_c, 3, 67, 0
5, 241200, Note_on_c, 3, 47, 64
5, 241200, Note_on_c, 3, 59, 64
5, 241440, Note_on_c, 3, 60, 64
5, 241440, Note_on_c, 3, 48, 64
5, 241454, Note_on_c, 3, 47, 0
5, 241484, Note_on_c, 3, 59, 0
5, 241680, Note_on_c, 3, 64, 64
5, 241680, Note_on_c, 3, 52, 64
5, 241704, Note_on_c, 3, 60, 0
5, 241730, Note_on_c, 3, 48, 0
5, 241912, Note_on_c, 3, 64, 0
5, 241920, Note_on_c, 3, 55, 64
5, 241920, Note_on_c, 3, 67, 64
5, 241926, Note_on_c, 3, 52, 0
5, 242540, Note_on_c, 3, 55, 0
5, 242640, Note_on_c, 3, 67, 0
5, 242640, Note_on_c, 3, 68, 64
5, 242640, Note_on_c, 3, 56, 64
5, 242730, Note_on_c, 3, 68, 0
5, 242734, Note_on_c, 3, 56, 0
5, 242880, Note_on_c, 3, 69, 64
5, 242880, Note_on_c, 3, 57, 64
5, 242960, Note_on_c, 3, 69, 0
5, 242962, Note_on_c, 3, 57, 0
5, 243240, Note_on_c, 3, 56, 64
5, 243240, Note_on_c, 3, 44, 64
5, 243240, Note_on_c, 3, 46, 64
5, 243274, Note_on_c, 3, 46, 0
5, 243360, Note_on_c, 3, 45, 64
5, 243360, Note_on_c, 3, 57, 64
5, 243404, Note_on_c, 3, 44, 0
5, 243442, Note_on_c, 3, 56, 0
5, 243512, Note_on_c, 3, 45, 0
5, 243530, Note_on_c, 3, 57, 0
5, 243600, Note_on_c, 3, 48, 64
5, 243600, Note_on_c, 3, 60, 64
5, 243732, Note_on_c, 3, 48, 0
5, 243750, Note_on_c, 3, 60, 0
5, 243840, Note_on_c, 3, 64, 64
5, 243840, Note_on_c, 3, 52, 64
5, 244200, Note_on_c, 3, 60, 64
5, 244374, Note_on_c, 3, 60, 0
5, 244410, Note_on_c, 3, 64, 0
5, 244412, Note_on_c, 3, 52, 0
5, 244560, Note_on_c, 3, 59, 64
5, 244560, Note_on_c, 3, 62, 64
5, 244652, Note_on_c, 3, 62, 0
5, 244652, Note_on_c, 3, 59, 0
5, 244800, Note_on_c, 3, 60, 64
5, 244800, Note_on_c, 3, 57, 64
5, 245024, Note_on_c, 3, 57, 0
5, 245024, Note_on_c, 3, 60, 0
5, 245280, Note_on_c, 3, 65, 64
5, 245280, Note_on_c, 3, 53, 64
5, 245400, Note_on_c, 3, 62, 64
5, 245400, Note_on_c, 3, 50, 64
5, 245422, Note_on_c, 3, 53, 0
5, 245422, Note_on_c, 3, 65, 0
5, 245520, Note_on_c, 3, 52, 64
5, 245520, Note_on_c, 3, 64, 64
5, 245552, Note_on_c, 3, 62, 0
5, 245554, Note_on_c, 3, 50, 0
5, 245640, Note_on_c, 3, 65, 64
5, 245640, Note_on_c, 3, 53, 64
5, 245674, Note_on_c, 3, 52, 0
5, 245680, Note_on_c, 3, 64, 0
5, 245760, Note_on_c, 3, 55, 64
5, 245760, Note_on_c, 3, 67, 64
5, 245776, Note_on_c, 3, 65, 0
5, 245806, Note_on_c, 3, 53, 0
5, 245880, Note_on_c, 3, 66, 64
5, 245880, Note_on_c, 3, 54, 64
5, 245902, Note_on_c, 3, 55, 0
5, 245910, Note_on_c, 3, 67, 0
5, 246000, Note_on_c, 3, 67, 64
5, 246000, Note_on_c, 3, 55, 64
5, 246016, Note_on_c, 3, 54, 0
5, 246024, Note_on_c, 3, 66, 0
5, 246120, Note_on_c, 3, 55, 0
5, 246120, Note_on_c, 3, 54, 64
5, 246120, Note_on_c, 3, 66, 64
5, 246126, Note_on_c, 3, 67, 0
5, 246240, Note_on_c, 3, 67, 64
5, 246240, Note_on_c, 3, 55, 64
5, 246250, Note_on_c, 3, 66, 0
5, 246266, Note_on_c, 3, 54, 0
5, 246314, Note_on_c, 3, 67, 0
5, 246322, Note_on_c, 3, 55, 0
5, 246480, Note_on_c, 3, 55, 64
5, 246480, Note_on_c, 3, 43, 64
5, 246544, Note_on_c, 3, 43, 0
5, 246546, Note_on_c, 3, 55, 0
5, 246720, Note_on_c, 3, 48, 64
5, 246840, Note_on_c, 3, 50, 64
5, 246862, Note_on_c, 3, 48, 0
5, 246960, Note_on_c, 3, 48, 64
5, 246986, Note_on_c, 3, 50, 0
5, 247080, Note_on_c, 3, 47, 64
5, 247112, Note_on_c, 3, 48, 0
5, 247200, Note_on_c, 3, 48, 64
5, 247240, Note_on_c, 3, 47, 0
5, 247320, Note_on_c, 3, 50, 64
5, 247342, Note_on_c, 3, 48, 0
5, 247440, Note_on_c, 3, 52, 64
5, 247476, Note_on_c, 3, 50, 0
5, 247560, Note_on_c, 3, 53, 64
5, 247582, Note_on_c, 3, 52, 0
5, 247680, Note_on_c, 3, 55, 64
5, 247716, Note_on_c, 3, 53, 0
5, 248300, Note_on_c, 3, 55, 0
5, 248400, Note_on_c, 3, 56, 64
5, 248516, Note_on_c, 3, 56, 0
5, 248640, Note_on_c, 3, 57, 64
5, 248790, Note_on_c, 3, 57, 0
5, 249120, Note_on_c, 3, 64, 64
5, 249120, Note_on_c, 3, 60, 64
5, 250152, Note_on_c, 3, 64, 0
5, 250196, Note_on_c, 3, 60, 0
5, 250320, Note_on_c, 3, 62, 64
5, 250320, Note_on_c, 3, 59, 64
5, 250430, Note_on_c, 3, 62, 0
5, 250464, Note_on_c, 3, 59, 0
5, 250560, Note_on_c, 3, 60, 64
5, 250560, Note_on_c, 3, 57, 64
5, 250860, Note_on_c, 3, 57, 0
5, 250872, Note_on_c, 3, 60, 0
5, 251040, Note_on_c, 3, 53, 64
5, 251160, Note_on_c, 3, 53, 0
5, 251160, Note_on_c, 3, 50, 64
5, 251280, Note_on_c, 3, 52, 64
5, 251306, Note_on_c, 3, 50, 0
5, 251400, Note_on_c, 3, 53, 64
5, 251432, Note_on_c, 3, 52, 0
5, 251520, Note_on_c, 3, 55, 64
5, 251540, Note_on_c, 3, 53, 0
5, 251640, Note_on_c, 3, 54, 64
5, 251670, Note_on_c, 3, 55, 0
5, 251760, Note_on_c, 3, 55, 64
5, 251766, Note_on_c, 3, 54, 0
5, 251880, Note_on_c, 3, 54, 64
5, 251904, Note_on_c, 3, 55, 0
5, 251936, Note_on_c, 3, 54, 0
5, 252000, Note_on_c, 3, 55, 64
5, 252130, Note_on_c, 3, 55, 0
5, 252240, Note_on_c, 3, 43, 64
5, 252332, Note_on_c, 3, 43, 0
5, 252480, Note_on_c, 3, 48, 64
5, 252550, Note_on_c, 3, 48, 0
5, 252720, Note_on_c, 3, 67, 64
5, 253070, Note_on_c, 3, 67, 0
5, 253200, Note_on_c, 3, 67, 64
5, 253260, Note_on_c, 3, 67, 0
5, 253440, Note_on_c, 3, 65, 64
5, 253510, Note_on_c, 3, 65, 0
5, 253680, Note_on_c, 3, 64, 64
5, 253744, Note_on_c, 3, 64, 0
5, 253920, Note_on_c, 3, 62, 64
5, 253992, Note_on_c, 3, 62, 0
5, 254160, Note_on_c, 3, 60, 64
5, 254220, Note_on_c, 3, 60, 0
5, 254400, Note_on_c, 3, 59, 64
5, 254492, Note_on_c, 3, 59, 0
5, 256560, Note_on_c, 3, 67, 64
5, 256926, Note_on_c, 3, 67, 0
5, 257040, Note_on_c, 3, 67, 64
5, 257104, Note_on_c, 3, 67, 0
5, 257280, Note_on_c, 3, 65, 64
5, 257340, Note_on_c, 3, 65, 0
5, 257520, Note_on_c, 3, 64, 64
5, 257576, Note_on_c, 3, 64, 0
5, 257760, Note_on_c, 3, 62, 64
5, 257816, Note_on_c, 3, 62, 0
5, 258000, Note_on_c, 3, 60, 64
5, 258060, Note_on_c, 3, 60, 0
5, 258240, Note_on_c, 3, 59, 64
5, 258300, Note_on_c, 3, 59, 0
5, 263280, Note_on_c, 3, 61, 64
5, 263640, Note_on_c, 3, 61, 0
5, 263760, Note_on_c, 3, 61, 64
5, 263826, Note_on_c, 3, 61, 0
5, 264240, Note_on_c, 3, 62, 64
5, 264600, Note_on_c, 3, 62, 0
5, 264720, Note_on_c, 3, 62, 64
5, 264786, Note_on_c, 3, 62, 0
5, 265200, Note_on_c, 3, 63, 64
5, 265564, Note_on_c, 3, 63, 0
5, 265680, Note_on_c, 3, 63, 64
5, 265746, Note_on_c, 3, 63, 0
5, 265920, Note_on_c, 3, 54, 64
5, 266980, Note_on_c, 3, 54, 0
5, 267120, Note_on_c, 3, 54, 64
5, 267360, Note_on_c, 3, 56, 64
5, 267392, Note_on_c, 3, 54, 0
5, 267600, Note_on_c, 3, 54, 64
5, 267630, Note_on_c, 3, 56, 0
5, 267840, Note_on_c, 3, 53, 64
5, 267886, Note_on_c, 3, 54, 0
5, 268046, Note_on_c, 3, 53, 0
5, 268320, Note_on_c, 3, 54, 64
5, 269012, Note_on_c, 3, 54, 0
5, 269040, Note_on_c, 3, 54, 64
5, 269280, Note_on_c, 3, 56, 64
5, 269310, Note_on_c, 3, 54, 0
5, 269520, Note_on_c, 3, 54, 64
5, 269542, Note_on_c, 3, 56, 0
5, 269760, Note_on_c, 3, 53, 64
5, 269820, Note_on_c, 3, 54, 0
5, 269974, Note_on_c, 3, 53, 0
5, 270240, Note_on_c, 3, 54, 64
5, 270866, Note_on_c, 3, 54, 0
5, 270960, Note_on_c, 3, 54, 64
5, 271024, Note_on_c, 3, 54, 0
5, 271200, Note_on_c, 3, 54, 64
5, 271260, Note_on_c, 3, 54, 0
5, 271440, Note_on_c, 3, 54, 64
5, 271500, Note_on_c, 3, 54, 0
5, 271680, Note_on_c, 3, 43, 64
5, 271680, Note_on_c, 3, 55, 64
5, 272596, Note_on_c, 3, 55, 0
5, 272624, Note_on_c, 3, 43, 0
5, 272640, Note_on_c, 3, 44, 64
5, 272640, Note_on_c, 3, 56, 64
5, 273540, Note_on_c, 3, 56, 0
5, 273544, Note_on_c, 3, 44, 0
5, 273600, Note_on_c, 3, 45, 64
5, 273600, Note_on_c, 3, 57, 64
5, 274480, Note_on_c, 3, 57, 0
5, 274512, Note_on_c, 3, 45, 0
5, 274560, Note_on_c, 3, 43, 64
5, 274560, Note_on_c, 3, 55, 64
5, 274992, Note_on_c, 3, 55, 0
5, 275014, Note_on_c, 3, 43, 0
5, 275040, Note_on_c, 3, 55, 64
5, 275040, Note_on_c, 3, 43, 64
5, 275414, Note_on_c, 3, 55, 0
5, 275444, Note_on_c, 3, 43, 0
5, 275520, Note_on_c, 3, 48, 64
5, 275520, Note_on_c, 3, 60, 64
5, 275620, Note_on_c, 3, 48, 0
5, 275624, Note_on_c, 3, 60, 0
5, 276000, Note_on_c, 3, 48, 64
5, 276000, Note_on_c, 3, 60, 64
5, 276366, Note_on_c, 3, 48, 0
5, 276370, Note_on_c, 3, 60, 0
5, 276960, Note_on_c, 3, 57, 64
5, 276960, Note_on_c, 3, 45, 64
5, 277396, Note_on_c, 3, 45, 0
5, 277396, Note_on_c, 3, 57, 0
5, 277920, Note_on_c, 3, 50, 64
5, 277920, Note_on_c, 3, 62, 64
5, 278354, Note_on_c, 3, 50, 0
5, 278366, Note_on_c, 3, 62, 0
5, 278880, Note_on_c, 3, 55, 64
5, 278880, Note_on_c, 3, 43, 64
5, 279342, Note_on_c, 3, 43, 0
5, 279366, Note_on_c, 3, 55, 0
5, 279840, Note_on_c, 3, 60, 64
5, 279840, Note_on_c, 3, 48, 64
5, 280260, Note_on_c, 3, 48, 0
5, 280270, Note_on_c, 3, 60, 0
5, 280800, Note_on_c, 3, 45, 64
5, 280800, Note_on_c, 3, 57, 64
5, 281246, Note_on_c, 3, 45, 0
5, 281254, Note_on_c, 3, 57, 0
5, 281760, Note_on_c, 3, 50, 64
5, 281760, Note_on_c, 3, 62, 64
5, 282220, Note_on_c, 3, 62, 0
5, 282220, Note_on_c, 3, 50, 0
5, 282720, Note_on_c, 3, 43, 64
5, 282720, Note_on_c, 3, 55, 64
5, 283106, Note_on_c, 3, 43, 0
5, 283122, Note_on_c, 3, 55, 0
5, 283200, Note_on_c, 3, 60, 64
5, 283200, Note_on_c, 3, 48, 64
5, 283590, Note_on_c, 3, 60, 0
5, 283602, Note_on_c, 3, 48, 0
5, 283680, Note_on_c, 3, 45, 64
5, 283680, Note_on_c, 3, 57, 64
5, 284094, Note_on_c, 3, 45, 0
5, 284100, Note_on_c, 3, 57, 0
5, 284160, Note_on_c, 3, 62, 64
5, 284160, Note_on_c, 3, 50, 64
5, 284532, Note_on_c, 3, 62, 0
5, 284576, Note_on_c, 3, 50, 0
5, 284640, Note_on_c, 3, 43, 64
5, 284640, Note_on_c, 3, 55, 64
5, 284936, Note_on_c, 3, 43, 0
5, 284966, Note_on_c, 3, 55, 0
5, 285120, Note_on_c, 3, 48, 64
5, 285120, Note_on_c, 3, 60, 64
5, 285174, Note_on_c, 3, 48, 0
5, 285180, Note_on_c, 3, 60, 0
5, 285360, Note_on_c, 3, 48, 64
5, 285360, Note_on_c, 3, 60, 64
5, 285400, Note_on_c, 3, 48, 0
5, 285420, Note_on_c, 3, 60, 0
5, 285600, Note_on_c, 3, 47, 64
5, 285600, Note_on_c, 3, 57, 64
5, 285600, Note_on_c, 3, 45, 64
5, 285630, Note_on_c, 3, 47, 0
5, 285652, Note_on_c, 3, 45, 0
5, 285666, Note_on_c, 3, 57, 0
5, 285840, Note_on_c, 3, 45, 64
5, 285840, Note_on_c, 3, 57, 64
5, 285886, Note_on_c, 3, 45, 0
5, 285894, Note_on_c, 3, 57, 0
5, 286080, Note_on_c, 3, 50, 64
5, 286080, Note_on_c, 3, 62, 64
5, 286156, Note_on_c, 3, 50, 0
5, 286162, Note_on_c, 3, 62, 0
5, 286320, Note_on_c, 3, 50, 64
5, 286320, Note_on_c, 3, 62, 64
5, 286372, Note_on_c, 3, 62, 0
5, 286382, Note_on_c, 3, 50, 0
5, 286560, Note_on_c, 3, 43, 64
5, 286560, Note_on_c, 3, 55, 64
5, 286610, Note_on_c, 3, 43, 0
5, 286620, Note_on_c, 3, 55, 0
5, 286800, Note_on_c, 3, 55, 64
5, 286800, Note_on_c, 3, 43, 64
5, 286850, Note_on_c, 3, 55, 0
5, 286864, Note_on_c, 3, 43, 0
5, 287040, Note_on_c, 3, 60, 64
5, 287040, Note_on_c, 3, 48, 64
5, 287122, Note_on_c, 3, 60, 0
5, 287182, Note_on_c, 3, 48, 0
5, 287520, Note_on_c, 3, 60, 64
5, 287520, Note_on_c, 3, 48, 64
5, 288146, Note_on_c, 3, 60, 0
5, 288162, Note_on_c, 3, 48, 0
5, 288240, Note_on_c, 3, 48, 64
5, 288240, Note_on_c, 3, 60, 64
5, 288304, Note_on_c, 3, 60, 0
5, 288320, Note_on_c, 3, 48, 0
5, 288480, Note_on_c, 3, 47, 64
5, 288480, Note_on_c, 3, 59, 64
5, 288546, Note_on_c, 3, 47, 0
5, 288556, Note_on_c, 3, 59, 0
5, 288720, Note_on_c, 3, 57, 64
5, 288720, Note_on_c, 3, 45, 64
5, 288794, Note_on_c, 3, 57, 0
5, 288812, Note_on_c, 3, 45, 0
5, 288960, Note_on_c, 3, 55, 64
5, 288960, Note_on_c, 3, 43, 64
5, 290056, Note_on_c, 3, 55, 0
5, 290104, Note_on_c, 3, 43, 0
5, 290160, Note_on_c, 3, 45, 64
5, 290160, Note_on_c, 3, 57, 64
5, 290222, Note_on_c, 3, 57, 0
5, 290234, Note_on_c, 3, 45, 0
5, 290400, Note_on_c, 3, 55, 64
5, 290400, Note_on_c, 3, 43, 64
5, 290464, Note_on_c, 3, 55, 0
5, 290480, Note_on_c, 3, 43, 0
5, 290640, Note_on_c, 3, 41, 64
5, 290640, Note_on_c, 3, 53, 64
5, 290704, Note_on_c, 3, 53, 0
5, 290716, Note_on_c, 3, 41, 0
5, 290880, Note_on_c, 3, 52, 64
5, 290880, Note_on_c, 3, 40, 64
5, 291972, Note_on_c, 3, 52, 0
5, 291990, Note_on_c, 3, 40, 0
5, 292080, Note_on_c, 3, 53, 64
5, 292080, Note_on_c, 3, 41, 64
5, 292146, Note_on_c, 3, 53, 0
5, 292160, Note_on_c, 3, 41, 0
5, 292320, Note_on_c, 3, 52, 64
5, 292320, Note_on_c, 3, 40, 64
5, 292394, Note_on_c, 3, 52, 0
5, 292410, Note_on_c, 3, 40, 0
5, 292560, Note_on_c, 3, 38, 64
5, 292560, Note_on_c, 3, 50, 64
5, 292624, Note_on_c, 3, 38, 0
5, 292630, Note_on_c, 3, 50, 0
5, 292800, Note_on_c, 3, 36, 64
5, 292800, Note_on_c, 3, 48, 64
5, 292876, Note_on_c, 3, 48, 0
5, 292916, Note_on_c, 3, 36, 0
5, 293040, Note_on_c, 3, 53, 64
5, 293040, Note_on_c, 3, 57, 64
5, 293102, Note_on_c, 3, 57, 0
5, 293110, Note_on_c, 3, 53, 0
5, 293280, Note_on_c, 3, 55, 64
5, 293280, Note_on_c, 3, 52, 64
5, 293336, Note_on_c, 3, 55, 0
5, 293352, Note_on_c, 3, 52, 0
5, 293520, Note_on_c, 3, 53, 64
5, 293520, Note_on_c, 3, 50, 64
5, 293570, Note_on_c, 3, 53, 0
5, 293590, Note_on_c, 3, 50, 0
5, 293760, Note_on_c, 3, 52, 64
5, 293760, Note_on_c, 3, 48, 64
5, 293816, Note_on_c, 3, 48, 0
5, 293822, Note_on_c, 3, 52, 0
5, 294000, Note_on_c, 3, 57, 64
5, 294000, Note_on_c, 3, 53, 64
5, 294062, Note_on_c, 3, 53, 0
5, 294080, Note_on_c, 3, 57, 0
5, 294240, Note_on_c, 3, 55, 64
5, 294240, Note_on_c, 3, 52, 64
5, 294306, Note_on_c, 3, 55, 0
5, 294314, Note_on_c, 3, 52, 0
5, 294480, Note_on_c, 3, 50, 64
5, 294480, Note_on_c, 3, 53, 64
5, 294540, Note_on_c, 3, 53, 0
5, 294544, Note_on_c, 3, 50, 0
5, 294720, Note_on_c, 3, 52, 64
5, 294720, Note_on_c, 3, 48, 64
5, 294784, Note_on_c, 3, 48, 0
5, 294790, Note_on_c, 3, 52, 0
5, 294960, Note_on_c, 3, 57, 64
5, 294960, Note_on_c, 3, 53, 64
5, 295034, Note_on_c, 3, 53, 0
5, 295040, Note_on_c, 3, 57, 0
5, 295200, Note_on_c, 3, 55, 64
5, 295200, Note_on_c, 3, 52, 64
5, 295264, Note_on_c, 3, 52, 0
5, 295264, Note_on_c, 3, 55, 0
5, 295440, Note_on_c, 3, 50, 64
5, 295440, Note_on_c, 3, 53, 64
5, 295500, Note_on_c, 3, 53, 0
5, 295504, Note_on_c, 3, 50, 0
5, 295680, Note_on_c, 3, 52, 64
5, 295680, Note_on_c, 3, 48, 64
5, 295740, Note_on_c, 3, 48, 0
5, 295744, Note_on_c, 3, 52, 0
5, 295920, Note_on_c, 3, 53, 64
5, 295920, Note_on_c, 3, 57, 64
5, 295996, Note_on_c, 3, 57, 0
5, 295996, Note_on_c, 3, 53, 0
5, 296160, Note_on_c, 3, 55, 64
5, 296160, Note_on_c, 3, 52, 64
5, 296226, Note_on_c, 3, 52, 0
5, 296226, Note_on_c, 3, 55, 0
5, 296400, Note_on_c, 3, 53, 64
5, 296400, Note_on_c, 3, 50, 64
5, 296474, Note_on_c, 3, 50, 0
5, 296476, Note_on_c, 3, 53, 0
5, 296640, Note_on_c, 3, 52, 64
5, 296640, Note_on_c, 3, 48, 64
5, 296832, Note_on_c, 3, 48, 0
5, 296832, Note_on_c, 3, 52, 0
5, 297120, Note_on_c, 3, 60, 64
5, 297120, Note_on_c, 3, 48, 64
5, 297312, Note_on_c, 3, 48, 0
5, 297312, Note_on_c, 3, 60, 0
5, 298080, Note_on_c, 3, 48, 64
5, 298080, Note_on_c, 3, 60, 64
5, 298272, Note_on_c, 3, 60, 0
5, 298272, Note_on_c, 3, 48, 0
5, 299040, Note_on_c, 3, 60, 64
5, 299040, Note_on_c, 3, 48, 64
5, 299232, Note_on_c, 3, 48, 0
5, 299232, Note_on_c, 3, 60, 0
5, 300000, Note_on_c, 3, 60, 64
5, 300000, Note_on_c, 3, 48, 64
5, 300192, Note_on_c, 3, 48, 0
5, 300192, Note_on_c, 3, 60, 0
5, 300480, Note_on_c, 3, 60, 64
5, 300480, Note_on_c, 3, 48, 64
5, 300672, Note_on_c, 3, 48, 0
5, 300672, Note_on_c, 3, 60, 0
5, 301440, Note_on_c, 3, 64, 64
5, 301440, Note_on_c, 3, 55, 64
5, 301632, Note_on_c, 3, 55, 0
5, 301632, Note_on_c, 3, 64, 0
5, 302400, Note_on_c, 3, 60, 64
5, 302400, Note_on_c, 3, 52, 64
5, 302520, Note_on_c, 3, 52, 0
5, 302520, Note_on_c, 3, 60, 0
5, 303360, Note_on_c, 3, 60, 96
5, 303360, Note_on_c, 3, 48, 96
5, 303480, Note_on_c, 3, 48, 0
5, 303480, Note_on_c, 3, 60, 0
5, 303840, Note_on_c, 3, 60, 96
5, 303840, Note_on_c, 3, 48, 96
5, 303960, Note_on_c, 3, 48, 0
5, 303960, Note_on_c, 3, 60, 0
5, 304320, Note_on_c, 3, 60, 96
5, 304320, Note_on_c, 3, 48, 96
5, 304440, Note_on_c, 3, 48, 0
5, 304440, Note_on_c, 3, 60, 0
5, 304440, End_track
6, 0, Start_track
6, 0, Title_t, "Horns"
6, 0, Program_c, 5, 60
6, 0, Control_c, 5, 7, 90
6, 0, Control_c, 5, 10, 33
6, 0, Control_c, 5, 10, 25
6, 960, Note_on_c, 5, 60, 64
6, 960, Note_on_c, 5, 48, 64
6, 1200, Note_on_c, 5, 48, 0
6, 1200, Note_on_c, 5, 60, 0
6, 3840, Note_on_c, 5, 48, 64
6, 3840, Note_on_c, 5, 60, 64
6, 4200, Note_on_c, 5, 60, 0
6, 4200, Note_on_c, 5, 48, 0
6, 6720, Note_on_c, 5, 48, 64
6, 6720, Note_on_c, 5, 60, 64
6, 6854, Note_on_c, 5, 60, 0
6, 6854, Note_on_c, 5, 48, 0
6, 7680, Note_on_c, 5, 60, 64
6, 7680, Note_on_c, 5, 48, 64
6, 7784, Note_on_c, 5, 48, 0
6, 7784, Note_on_c, 5, 60, 0
6, 8640, Note_on_c, 5, 60, 64
6, 8640, Note_on_c, 5, 48, 64
6, 8752, Note_on_c, 5, 48, 0
6, 8752, Note_on_c, 5, 60, 0
6, 9600, Note_on_c, 5, 43, 64
6, 9600, Note_on_c, 5, 55, 64
6, 9690, Note_on_c, 5, 55, 0
6, 9690, Note_on_c, 5, 43, 0
6, 10440, Note_on_c, 5, 43, 64
6, 10440, Note_on_c, 5, 55, 64
6, 10536, Note_on_c, 5, 55, 0
6, 10536, Note_on_c, 5, 43, 0
6, 10560, Note_on_c, 5, 55, 64
6, 10560, Note_on_c, 5, 43, 64
6, 12706, Note_on_c, 5, 43, 0
6, 12706, Note_on_c, 5, 55, 0
6, 14400, Note_on_c, 5, 55, 64
6, 15360, Note_on_c, 5, 55, 0
6, 15360, Note_on_c, 5, 60, 64
6, 15360, Note_on_c, 5, 52, 64
6, 16320, Note_on_c, 5, 52, 0
6, 16320, Note_on_c, 5, 60, 0
6, 16320, Note_on_c, 5, 55, 64
6, 16320, Note_on_c, 5, 62, 64
6, 17280, Note_on_c, 5, 62, 0
6, 17280, Note_on_c, 5, 55, 0
6, 17280, Note_on_c, 5, 64, 64
6, 17280, Note_on_c, 5, 60, 64
6, 18080, Note_on_c, 5, 62, 64
6, 18080, Note_on_c, 5, 55, 64
6, 18120, Note_on_c, 5, 60, 0
6, 18120, Note_on_c, 5, 64, 0
6, 18200, Note_on_c, 5, 62, 0
6, 18200, Note_on_c, 5, 55, 0
6, 18240, Note_on_c, 5, 60, 64
6, 18240, Note_on_c, 5, 52, 64
6, 19224, Note_on_c, 5, 60, 0
6, 19240, Note_on_c, 5, 52, 0
6, 20160, Note_on_c, 5, 62, 64
6, 20160, Note_on_c, 5, 55, 64
6, 21090, Note_on_c, 5, 55, 0
6, 21120, Note_on_c, 5, 62, 0
6, 21120, Note_on_c, 5, 65, 64
6, 21120, Note_on_c, 5, 62, 64
6, 22032, Note_on_c, 5, 62, 0
6, 22032, Note_on_c, 5, 65, 0
6, 22080, Note_on_c, 5, 65, 64
6, 22080, Note_on_c, 5, 62, 64
6, 22320, Note_on_c, 5, 64, 64
6, 22320, Note_on_c, 5, 60, 64
6, 22342, Note_on_c, 5, 65, 0
6, 22394, Note_on_c, 5, 62, 0
6, 22560, Note_on_c, 5, 59, 64
6, 22560, Note_on_c, 5, 62, 64
6, 22566, Note_on_c, 5, 60, 0
6, 22624, Note_on_c, 5, 64, 0
6, 22800, Note_on_c, 5, 64, 64
6, 22800, Note_on_c, 5, 60, 64
6, 22826, Note_on_c, 5, 59, 0
6, 22872, Note_on_c, 5, 62, 0
6, 23040, Note_on_c, 5, 62, 64
6, 23040, Note_on_c, 5, 55, 64
6, 23056, Note_on_c, 5, 64, 0
6, 23056, Note_on_c, 5, 60, 0
6, 24840, Note_on_c, 5, 62, 0
6, 24840, Note_on_c, 5, 55, 0
6, 25920, Note_on_c, 5, 60, 80
6, 25920, Note_on_c, 5, 52, 80
6, 27840, Note_on_c, 5, 52, 0
6, 27840, Note_on_c, 5, 60, 0
6, 27840, Note_on_c, 5, 55, 80
6, 27840, Note_on_c, 5, 62, 80
6, 28800, Note_on_c, 5, 62, 0
6, 28800, Note_on_c, 5, 55, 0
6, 28800, Note_on_c, 5, 64, 80
6, 28800, Note_on_c, 5, 60, 80
6, 29760, Note_on_c, 5, 60, 0
6, 29760, Note_on_c, 5, 64, 0
6, 29760, Note_on_c, 5, 52, 80
6, 29760, Note_on_c, 5, 60, 80
6, 30720, Note_on_c, 5, 60, 0
6, 30720, Note_on_c, 5, 52, 0
6, 30720, Note_on_c, 5, 55, 80
6, 30720, Note_on_c, 5, 62, 80
6, 31680, Note_on_c, 5, 62, 0
6, 31680, Note_on_c, 5, 55, 0
6, 31680, Note_on_c, 5, 64, 80
6, 31680, Note_on_c, 5, 60, 80
6, 32160, Note_on_c, 5, 60, 0
6, 32160, Note_on_c, 5, 64, 0
6, 34080, Note_on_c, 5, 62, 56
6, 34080, Note_on_c, 5, 65, 56
6, 34560, Note_on_c, 5, 65, 0
6, 34560, Note_on_c, 5, 62, 0
6, 34560, Note_on_c, 5, 60, 56
6, 34560, Note_on_c, 5, 64, 56
6, 35520, Note_on_c, 5, 64, 0
6, 35520, Note_on_c, 5, 60, 0
6, 35520, Note_on_c, 5, 62, 56
6, 35520, Note_on_c, 5, 55, 56
6, 36000, Note_on_c, 5, 55, 0
6, 36000, Note_on_c, 5, 62, 0
6, 37440, Note_on_c, 5, 60, 64
6, 37440, Note_on_c, 5, 64, 64
6, 38400, Note_on_c, 5, 64, 0
6, 38400, Note_on_c, 5, 60, 0
6, 38400, Note_on_c, 5, 67, 64
6, 38400, Note_on_c, 5, 64, 64
6, 39840, Note_on_c, 5, 64, 0
6, 39840, Note_on_c, 5, 67, 0
6, 39840, Note_on_c, 5, 65, 64
6, 39840, Note_on_c, 5, 62, 64
6, 40276, Note_on_c, 5, 62, 0
6, 40286, Note_on_c, 5, 65, 0
6, 40320, Note_on_c, 5, 64, 64
6, 40320, Note_on_c, 5, 60, 64
6, 41160, Note_on_c, 5, 60, 0
6, 41160, Note_on_c, 5, 64, 0
6, 41160, Note_on_c, 5, 64, 64
6, 41160, Note_on_c, 5, 67, 64
6, 41280, Note_on_c, 5, 67, 0
6, 41280, Note_on_c, 5, 64, 0
6, 41280, Note_on_c, 5, 67, 64
6, 41280, Note_on_c, 5, 64, 64
6, 42720, Note_on_c, 5, 64, 0
6, 42720, Note_on_c, 5, 67, 0
6, 42720, Note_on_c, 5, 65, 64
6, 42720, Note_on_c, 5, 62, 64
6, 43174, Note_on_c, 5, 65, 0
6, 43180, Note_on_c, 5, 62, 0
6, 43200, Note_on_c, 5, 64, 64
6, 43200, Note_on_c, 5, 60, 64
6, 43620, Note_on_c, 5, 60, 0
6, 43650, Note_on_c, 5, 64, 0
6, 44160, Note_on_c, 5, 48, 80
6, 44160, Note_on_c, 5, 60, 80
6, 45696, Note_on_c, 5, 60, 0
6, 45696, Note_on_c, 5, 48, 0
6, 46080, Note_on_c, 5, 55, 80
6, 46080, Note_on_c, 5, 43, 80
6, 46464, Note_on_c, 5, 43, 0
6, 46464, Note_on_c, 5, 55, 0
6, 46560, Note_on_c, 5, 48, 80
6, 46560, Note_on_c, 5, 60, 80
6, 46776, Note_on_c, 5, 60, 0
6, 46776, Note_on_c, 5, 48, 0
6, 46920, Note_on_c, 5, 52, 80
6, 46920, Note_on_c, 5, 64, 80
6, 46992, Note_on_c, 5, 64, 0
6, 46992, Note_on_c, 5, 52, 0
6, 47040, Note_on_c, 5, 67, 80
6, 47040, Note_on_c, 5, 55, 80
6, 47424, Note_on_c, 5, 55, 0
6, 47424, Note_on_c, 5, 67, 0
6, 47520, Note_on_c, 5, 55, 80
6, 47520, Note_on_c, 5, 43, 80
6, 47904, Note_on_c, 5, 43, 0
6, 47904, Note_on_c, 5, 55, 0
6, 48000, Note_on_c, 5, 55, 80
6, 48000, Note_on_c, 5, 43, 80
6, 48384, Note_on_c, 5, 43, 0
6, 48384, Note_on_c, 5, 55, 0
6, 48480, Note_on_c, 5, 43, 80
6, 48480, Note_on_c, 5, 55, 80
6, 48864, Note_on_c, 5, 55, 0
6, 48864, Note_on_c, 5, 43, 0
6, 48960, Note_on_c, 5, 48, 60
6, 48960, Note_on_c, 5, 60, 60
6, 49186, Note_on_c, 5, 60, 0
6, 49186, Note_on_c, 5, 48, 0
6, 60480, Note_on_c, 5, 60, 64
6, 62474, Note_on_c, 5, 60, 0
6, 62880, Note_on_c, 5, 60, 64
6, 62934, Note_on_c, 5, 60, 0
6, 63360, Note_on_c, 5, 60, 64
6, 63414, Note_on_c, 5, 60, 0
6, 64320, Note_on_c, 5, 62, 64
6, 66252, Note_on_c, 5, 62, 0
6, 66720, Note_on_c, 5, 55, 64
6, 66720, Note_on_c, 5, 62, 64
6, 66790, Note_on_c, 5, 55, 0
6, 66800, Note_on_c, 5, 62, 0
6, 67200, Note_on_c, 5, 62, 64
6, 67200, Note_on_c, 5, 55, 64
6, 67274, Note_on_c, 5, 62, 0
6, 67276, Note_on_c, 5, 55, 0
6, 68160, Note_on_c, 5, 60, 64
6, 68160, Note_on_c, 5, 64, 64
6, 68200, Note_on_c, 5, 60, 0
6, 68220, Note_on_c, 5, 64, 0
6, 68400, Note_on_c, 5, 55, 64
6, 68400, Note_on_c, 5, 67, 64
6, 68750, Note_on_c, 5, 55, 0
6, 68776, Note_on_c, 5, 67, 0
6, 68880, Note_on_c, 5, 67, 64
6, 68880, Note_on_c, 5, 55, 64
6, 68946, Note_on_c, 5, 67, 0
6, 68950, Note_on_c, 5, 55, 0
6, 69120, Note_on_c, 5, 52, 64
6, 69120, Note_on_c, 5, 64, 64
6, 69176, Note_on_c, 5, 52, 0
6, 69186, Note_on_c, 5, 64, 0
6, 69360, Note_on_c, 5, 52, 64
6, 69360, Note_on_c, 5, 64, 64
6, 69672, Note_on_c, 5, 52, 0
6, 69686, Note_on_c, 5, 64, 0
6, 69840, Note_on_c, 5, 64, 64
6, 69840, Note_on_c, 5, 52, 64
6, 69886, Note_on_c, 5, 52, 0
6, 69886, Note_on_c, 5, 64, 0
6, 70080, Note_on_c, 5, 60, 64
6, 70080, Note_on_c, 5, 48, 64
6, 70116, Note_on_c, 5, 60, 0
6, 70126, Note_on_c, 5, 48, 0
6, 70320, Note_on_c, 5, 60, 64
6, 70320, Note_on_c, 5, 48, 64
6, 70676, Note_on_c, 5, 60, 0
6, 70682, Note_on_c, 5, 48, 0
6, 70800, Note_on_c, 5, 60, 64
6, 70800, Note_on_c, 5, 48, 64
6, 70844, Note_on_c, 5, 60, 0
6, 70850, Note_on_c, 5, 48, 0
6, 71040, Note_on_c, 5, 60, 64
6, 71040, Note_on_c, 5, 48, 64
6, 71086, Note_on_c, 5, 48, 0
6, 71092, Note_on_c, 5, 60, 0
6, 72000, Note_on_c, 5, 55, 64
6, 72000, Note_on_c, 5, 43, 64
6, 72050, Note_on_c, 5, 43, 0
6, 72060, Note_on_c, 5, 55, 0
6, 72960, Note_on_c, 5, 43, 64
6, 72960, Note_on_c, 5, 55, 64
6, 73014, Note_on_c, 5, 55, 0
6, 73020, Note_on_c, 5, 43, 0
6, 73920, Note_on_c, 5, 43, 64
6, 73920, Note_on_c, 5, 55, 64
6, 73976, Note_on_c, 5, 55, 0
6, 73976, Note_on_c, 5, 43, 0
6, 74880, Note_on_c, 5, 43, 64
6, 74880, Note_on_c, 5, 55, 64
6, 74936, Note_on_c, 5, 43, 0
6, 74942, Note_on_c, 5, 55, 0
6, 75840, Note_on_c, 5, 55, 64
6, 75840, Note_on_c, 5, 43, 64
6, 75862, Note_on_c, 5, 43, 0
6, 75896, Note_on_c, 5, 55, 0
6, 76080, Note_on_c, 5, 62, 64
6, 76126, Note_on_c, 5, 62, 0
6, 76320, Note_on_c, 5, 62, 64
6, 76380, Note_on_c, 5, 62, 0
6, 76560, Note_on_c, 5, 62, 64
6, 76614, Note_on_c, 5, 62, 0
6, 76800, Note_on_c, 5, 62, 64
6, 76864, Note_on_c, 5, 62, 0
6, 77040, Note_on_c, 5, 62, 64
6, 77092, Note_on_c, 5, 62, 0
6, 77280, Note_on_c, 5, 62, 64
6, 77340, Note_on_c, 5, 62, 0
6, 77520, Note_on_c, 5, 62, 64
6, 77580, Note_on_c, 5, 62, 0
6, 77760, Note_on_c, 5, 55, 64
6, 77760, Note_on_c, 5, 62, 64
6, 77826, Note_on_c, 5, 55, 0
6, 77830, Note_on_c, 5, 62, 0
6, 78240, Note_on_c, 5, 55, 64
6, 78240, Note_on_c, 5, 67, 64
6, 78314, Note_on_c, 5, 55, 0
6, 78324, Note_on_c, 5, 67, 0
6, 78720, Note_on_c, 5, 55, 64
6, 78796, Note_on_c, 5, 55, 0
6, 95040, Note_on_c, 5, 62, 64
6, 98162, Note_on_c, 5, 62, 0
6, 98400, Note_on_c, 5, 62, 64
6, 98646, Note_on_c, 5, 62, 0
6, 98880, Note_on_c, 5, 62, 64
6, 101944, Note_on_c, 5, 62, 0
6, 102240, Note_on_c, 5, 62, 64
6, 102594, Note_on_c, 5, 62, 0
6, 102720, Note_on_c, 5, 62, 64
6, 102790, Note_on_c, 5, 62, 0
6, 110400, Note_on_c, 5, 67, 64
6, 110400, Note_on_c, 5, 55, 64
6, 112396, Note_on_c, 5, 55, 0
6, 112416, Note_on_c, 5, 67, 0
6, 114240, Note_on_c, 5, 62, 64
6, 116166, Note_on_c, 5, 62, 0
6, 119040, Note_on_c, 5, 62, 64
6, 119090, Note_on_c, 5, 62, 0
6, 120720, Note_on_c, 5, 64, 64
6, 120780, Note_on_c, 5, 64, 0
6, 120960, Note_on_c, 5, 64, 64
6, 121022, Note_on_c, 5, 64, 0
6, 129600, Note_on_c, 5, 62, 64
6, 130684, Note_on_c, 5, 62, 0
6, 131520, Note_on_c, 5, 67, 64
6, 131520, Note_on_c, 5, 55, 64
6, 132552, Note_on_c, 5, 55, 0
6, 132580, Note_on_c, 5, 67, 0
6, 135360, Note_on_c, 5, 62, 64
6, 136362, Note_on_c, 5, 62, 0
6, 137280, Note_on_c, 5, 67, 64
6, 137280, Note_on_c, 5, 55, 64
6, 138626, Note_on_c, 5, 55, 0
6, 138640, Note_on_c, 5, 67, 0
6, 139680, Note_on_c, 5, 64, 64
6, 139680, Note_on_c, 5, 60, 64
6, 140006, Note_on_c, 5, 60, 0
6, 140020, Note_on_c, 5, 64, 0
6, 140160, Note_on_c, 5, 62, 64
6, 140514, Note_on_c, 5, 62, 0
6, 140640, Note_on_c, 5, 62, 64
6, 140964, Note_on_c, 5, 62, 0
6, 141120, Note_on_c, 5, 62, 64
6, 141120, Note_on_c, 5, 55, 64
6, 141212, Note_on_c, 5, 55, 0
6, 141224, Note_on_c, 5, 62, 0
6, 158400, Note_on_c, 5, 43, 38
6, 158400, Note_on_c, 5, 55, 38
6, 160224, Note_on_c, 5, 43, 0
6, 160240, Note_on_c, 5, 55, 0
6, 160320, Note_on_c, 5, 60, 64
6, 160320, Note_on_c, 5, 48, 64
6, 160366, Note_on_c, 5, 48, 0
6, 160366, Note_on_c, 5, 60, 0
6, 168000, Note_on_c, 5, 48, 64
6, 168000, Note_on_c, 5, 60, 64
6, 169950, Note_on_c, 5, 48, 0
6, 169964, Note_on_c, 5, 60, 0
6, 170400, Note_on_c, 5, 60, 64
6, 170400, Note_on_c, 5, 48, 64
6, 170444, Note_on_c, 5, 48, 0
6, 170444, Note_on_c, 5, 60, 0
6, 170880, Note_on_c, 5, 48, 64
6, 170880, Note_on_c, 5, 60, 64
6, 170930, Note_on_c, 5, 48, 0
6, 170932, Note_on_c, 5, 60, 0
6, 182880, Note_on_c, 5, 36, 64
6, 182880, Note_on_c, 5, 48, 64
6, 183174, Note_on_c, 5, 36, 0
6, 183182, Note_on_c, 5, 48, 0
6, 183360, Note_on_c, 5, 43, 64
6, 183360, Note_on_c, 5, 55, 64
6, 183414, Note_on_c, 5, 43, 0
6, 183422, Note_on_c, 5, 55, 0
6, 185280, Note_on_c, 5, 55, 64
6, 185280, Note_on_c, 5, 67, 64
6, 187252, Note_on_c, 5, 67, 0
6, 187256, Note_on_c, 5, 55, 0
6, 187440, Note_on_c, 5, 60, 64
6, 187440, Note_on_c, 5, 48, 64
6, 187484, Note_on_c, 5, 60, 0
6, 187496, Note_on_c, 5, 48, 0
6, 187680, Note_on_c, 5, 43, 64
6, 187680, Note_on_c, 5, 55, 64
6, 187724, Note_on_c, 5, 43, 0
6, 187730, Note_on_c, 5, 55, 0
6, 187920, Note_on_c, 5, 48, 64
6, 187920, Note_on_c, 5, 60, 64
6, 187964, Note_on_c, 5, 48, 0
6, 187972, Note_on_c, 5, 60, 0
6, 188160, Note_on_c, 5, 55, 64
6, 188160, Note_on_c, 5, 43, 64
6, 188212, Note_on_c, 5, 43, 0
6, 188212, Note_on_c, 5, 55, 0
6, 188400, Note_on_c, 5, 48, 64
6, 188400, Note_on_c, 5, 60, 64
6, 188444, Note_on_c, 5, 60, 0
6, 188444, Note_on_c, 5, 48, 0
6, 188640, Note_on_c, 5, 55, 64
6, 188640, Note_on_c, 5, 43, 64
6, 188692, Note_on_c, 5, 43, 0
6, 188692, Note_on_c, 5, 55, 0
6, 188880, Note_on_c, 5, 48, 64
6, 188880, Note_on_c, 5, 60, 64
6, 188924, Note_on_c, 5, 48, 0
6, 188926, Note_on_c, 5, 60, 0
6, 189120, Note_on_c, 5, 55, 64
6, 189120, Note_on_c, 5, 43, 64
6, 189166, Note_on_c, 5, 43, 0
6, 189166, Note_on_c, 5, 55, 0
6, 189600, Note_on_c, 5, 55, 64
6, 189600, Note_on_c, 5, 43, 64
6, 189654, Note_on_c, 5, 43, 0
6, 189654, Note_on_c, 5, 55, 0
6, 190080, Note_on_c, 5, 55, 64
6, 190080, Note_on_c, 5, 43, 64
6, 190134, Note_on_c, 5, 43, 0
6, 190134, Note_on_c, 5, 55, 0
6, 198960, Note_on_c, 5, 52, 64
6, 198960, Note_on_c, 5, 55, 64
6, 199032, Note_on_c, 5, 55, 0
6, 199032, Note_on_c, 5, 52, 0
6, 199200, Note_on_c, 5, 60, 64
6, 199200, Note_on_c, 5, 55, 64
6, 199272, Note_on_c, 5, 55, 0
6, 199272, Note_on_c, 5, 60, 0
6, 199440, Note_on_c, 5, 64, 64
6, 199440, Note_on_c, 5, 60, 64
6, 199512, Note_on_c, 5, 60, 0
6, 199512, Note_on_c, 5, 64, 0
6, 199680, Note_on_c, 5, 67, 64
6, 199680, Note_on_c, 5, 64, 64
6, 200934, Note_on_c, 5, 64, 0
6, 200944, Note_on_c, 5, 67, 0
6, 201120, Note_on_c, 5, 65, 64
6, 201120, Note_on_c, 5, 62, 64
6, 201596, Note_on_c, 5, 65, 0
6, 201600, Note_on_c, 5, 64, 64
6, 201600, Note_on_c, 5, 60, 64
6, 201602, Note_on_c, 5, 62, 0
6, 202014, Note_on_c, 5, 60, 0
6, 202036, Note_on_c, 5, 64, 0
6, 202080, Note_on_c, 5, 62, 64
6, 202080, Note_on_c, 5, 65, 64
6, 202462, Note_on_c, 5, 62, 0
6, 202496, Note_on_c, 5, 65, 0
6, 202560, Note_on_c, 5, 62, 64
6, 202560, Note_on_c, 5, 55, 64
6, 202670, Note_on_c, 5, 55, 0
6, 202670, Note_on_c, 5, 62, 0
6, 206400, Note_on_c, 5, 43, 64
6, 206400, Note_on_c, 5, 55, 64
6, 209610, Note_on_c, 5, 43, 0
6, 209612, Note_on_c, 5, 55, 0
6, 209760, Note_on_c, 5, 43, 64
6, 209760, Note_on_c, 5, 55, 64
6, 210076, Note_on_c, 5, 43, 0
6, 210080, Note_on_c, 5, 55, 0
6, 210240, Note_on_c, 5, 43, 64
6, 210240, Note_on_c, 5, 55, 64
6, 213462, Note_on_c, 5, 43, 0
6, 213466, Note_on_c, 5, 55, 0
6, 213600, Note_on_c, 5, 55, 64
6, 213600, Note_on_c, 5, 43, 64
6, 213996, Note_on_c, 5, 43, 0
6, 213996, Note_on_c, 5, 55, 0
6, 214080, Note_on_c, 5, 55, 64
6, 214080, Note_on_c, 5, 43, 64
6, 214142, Note_on_c, 5, 43, 0
6, 214146, Note_on_c, 5, 55, 0
6, 221760, Note_on_c, 5, 60, 64
6, 221760, Note_on_c, 5, 48, 64
6, 223760, Note_on_c, 5, 48, 0
6, 223766, Note_on_c, 5, 60, 0
6, 225600, Note_on_c, 5, 55, 64
6, 225600, Note_on_c, 5, 67, 64
6, 227594, Note_on_c, 5, 55, 0
6, 227602, Note_on_c, 5, 67, 0
6, 230160, Note_on_c, 5, 43, 64
6, 230160, Note_on_c, 5, 55, 64
6, 230206, Note_on_c, 5, 43, 0
6, 230216, Note_on_c, 5, 55, 0
6, 230400, Note_on_c, 5, 43, 64
6, 230400, Note_on_c, 5, 55, 64
6, 230446, Note_on_c, 5, 43, 0
6, 230450, Note_on_c, 5, 55, 0
6, 235920, Note_on_c, 5, 50, 64
6, 235966, Note_on_c, 5, 50, 0
6, 236160, Note_on_c, 5, 50, 64
6, 236206, Note_on_c, 5, 50, 0
6, 236880, Note_on_c, 5, 52, 64
6, 236932, Note_on_c, 5, 52, 0
6, 237120, Note_on_c, 5, 52, 64
6, 237180, Note_on_c, 5, 52, 0
6, 240960, Note_on_c, 5, 55, 64
6, 240960, Note_on_c, 5, 67, 64
6, 241940, Note_on_c, 5, 55, 0
6, 241956, Note_on_c, 5, 67, 0
6, 242880, Note_on_c, 5, 64, 64
6, 242880, Note_on_c, 5, 52, 64
6, 243872, Note_on_c, 5, 52, 0
6, 243892, Note_on_c, 5, 64, 0
6, 245280, Note_on_c, 5, 65, 64
6, 245280, Note_on_c, 5, 62, 64
6, 245622, Note_on_c, 5, 62, 0
6, 245626, Note_on_c, 5, 65, 0
6, 245760, Note_on_c, 5, 60, 64
6, 245760, Note_on_c, 5, 64, 64
6, 246106, Note_on_c, 5, 64, 0
6, 246162, Note_on_c, 5, 60, 0
6, 246240, Note_on_c, 5, 62, 64
6, 246240, Note_on_c, 5, 55, 64
6, 246536, Note_on_c, 5, 55, 0
6, 246536, Note_on_c, 5, 62, 0
6, 246720, Note_on_c, 5, 48, 64
6, 246720, Note_on_c, 5, 60, 64
6, 247284, Note_on_c, 5, 48, 0
6, 247286, Note_on_c, 5, 60, 0
6, 247440, Note_on_c, 5, 64, 64
6, 247440, Note_on_c, 5, 52, 64
6, 247492, Note_on_c, 5, 52, 0
6, 247506, Note_on_c, 5, 64, 0
6, 248400, Note_on_c, 5, 65, 64
6, 248400, Note_on_c, 5, 62, 64
6, 248526, Note_on_c, 5, 65, 0
6, 248552, Note_on_c, 5, 62, 0
6, 248640, Note_on_c, 5, 64, 64
6, 248640, Note_on_c, 5, 60, 64
6, 249826, Note_on_c, 5, 60, 0
6, 249826, Note_on_c, 5, 64, 0
6, 251040, Note_on_c, 5, 62, 64
6, 251040, Note_on_c, 5, 65, 64
6, 251474, Note_on_c, 5, 65, 0
6, 251480, Note_on_c, 5, 62, 0
6, 251520, Note_on_c, 5, 64, 64
6, 251520, Note_on_c, 5, 60, 64
6, 251924, Note_on_c, 5, 64, 0
6, 251930, Note_on_c, 5, 60, 0
6, 252000, Note_on_c, 5, 62, 64
6, 252000, Note_on_c, 5, 55, 64
6, 252330, Note_on_c, 5, 55, 0
6, 252330, Note_on_c, 5, 62, 0
6, 252480, Note_on_c, 5, 60, 64
6, 252480, Note_on_c, 5, 52, 64
6, 252534, Note_on_c, 5, 52, 0
6, 252536, Note_on_c, 5, 60, 0
6, 270240, Note_on_c, 5, 48, 64
6, 270240, Note_on_c, 5, 60, 64
6, 270832, Note_on_c, 5, 48, 0
6, 270844, Note_on_c, 5, 60, 0
6, 270960, Note_on_c, 5, 48, 64
6, 270960, Note_on_c, 5, 60, 64
6, 271012, Note_on_c, 5, 48, 0
6, 271020, Note_on_c, 5, 60, 0
6, 271200, Note_on_c, 5, 48, 64
6, 271200, Note_on_c, 5, 60, 64
6, 271250, Note_on_c, 5, 48, 0
6, 271254, Note_on_c, 5, 60, 0
6, 271440, Note_on_c, 5, 60, 64
6, 271440, Note_on_c, 5, 48, 64
6, 271490, Note_on_c, 5, 60, 0
6, 271492, Note_on_c, 5, 48, 0
6, 271680, Note_on_c, 5, 60, 64
6, 271680, Note_on_c, 5, 48, 64
6, 272536, Note_on_c, 5, 48, 0
6, 272542, Note_on_c, 5, 60, 0
6, 272640, Note_on_c, 5, 60, 64
6, 272640, Note_on_c, 5, 48, 64
6, 273504, Note_on_c, 5, 48, 0
6, 273510, Note_on_c, 5, 60, 0
6, 273600, Note_on_c, 5, 48, 64
6, 273600, Note_on_c, 5, 60, 64
6, 274890, Note_on_c, 5, 60, 0
6, 274944, Note_on_c, 5, 48, 0
6, 275040, Note_on_c, 5, 62, 64
6, 275040, Note_on_c, 5, 55, 64
6, 275372, Note_on_c, 5, 62, 0
6, 275376, Note_on_c, 5, 55, 0
6, 275520, Note_on_c, 5, 52, 64
6, 275520, Note_on_c, 5, 60, 64
6, 275632, Note_on_c, 5, 52, 0
6, 275636, Note_on_c, 5, 60, 0
6, 276000, Note_on_c, 5, 48, 64
6, 276000, Note_on_c, 5, 60, 64
6, 276326, Note_on_c, 5, 48, 0
6, 276342, Note_on_c, 5, 60, 0
6, 276960, Note_on_c, 5, 52, 64
6, 276960, Note_on_c, 5, 64, 64
6, 277346, Note_on_c, 5, 52, 0
6, 277386, Note_on_c, 5, 64, 0
6, 277920, Note_on_c, 5, 62, 64
6, 277920, Note_on_c, 5, 65, 64
6, 278324, Note_on_c, 5, 62, 0
6, 278334, Note_on_c, 5, 65, 0
6, 278880, Note_on_c, 5, 55, 64
6, 278880, Note_on_c, 5, 62, 64
6, 279306, Note_on_c, 5, 55, 0
6, 279322, Note_on_c, 5, 62, 0
6, 279840, Note_on_c, 5, 64, 64
6, 279840, Note_on_c, 5, 60, 64
6, 280246, Note_on_c, 5, 60, 0
6, 280270, Note_on_c, 5, 64, 0
6, 280800, Note_on_c, 5, 64, 64
6, 281196, Note_on_c, 5, 64, 0
6, 281760, Note_on_c, 5, 62, 64
6, 281760, Note_on_c, 5, 65, 64
6, 282150, Note_on_c, 5, 62, 0
6, 282152, Note_on_c, 5, 65, 0
6, 282720, Note_on_c, 5, 55, 64
6, 282720, Note_on_c, 5, 62, 64
6, 283046, Note_on_c, 5, 55, 0
6, 283064, Note_on_c, 5, 62, 0
6, 283200, Note_on_c, 5, 60, 64
6, 283200, Note_on_c, 5, 64, 64
6, 283526, Note_on_c, 5, 60, 0
6, 283550, Note_on_c, 5, 64, 0
6, 283680, Note_on_c, 5, 64, 64
6, 284000, Note_on_c, 5, 64, 0
6, 284160, Note_on_c, 5, 62, 64
6, 284160, Note_on_c, 5, 65, 64
6, 284496, Note_on_c, 5, 62, 0
6, 284574, Note_on_c, 5, 65, 0
6, 284640, Note_on_c, 5, 55, 64
6, 284640, Note_on_c, 5, 62, 64
6, 284966, Note_on_c, 5, 55, 0
6, 285012, Note_on_c, 5, 62, 0
6, 285120, Note_on_c, 5, 60, 64
6, 285120, Note_on_c, 5, 64, 64
6, 285216, Note_on_c, 5, 64, 0
6, 285216, Note_on_c, 5, 60, 0
6, 285360, Note_on_c, 5, 64, 64
6, 285360, Note_on_c, 5, 52, 64
6, 285456, Note_on_c, 5, 52, 0
6, 285456, Note_on_c, 5, 64, 0
6, 285600, Note_on_c, 5, 64, 64
6, 285600, Note_on_c, 5, 52, 64
6, 285696, Note_on_c, 5, 52, 0
6, 285696, Note_on_c, 5, 64, 0
6, 285840, Note_on_c, 5, 64, 64
6, 285840, Note_on_c, 5, 52, 64
6, 285936, Note_on_c, 5, 52, 0
6, 285936, Note_on_c, 5, 64, 0
6, 286080, Note_on_c, 5, 62, 64
6, 286080, Note_on_c, 5, 65, 64
6, 286176, Note_on_c, 5, 65, 0
6, 286176, Note_on_c, 5, 62, 0
6, 286320, Note_on_c, 5, 62, 64
6, 286320, Note_on_c, 5, 65, 64
6, 286416, Note_on_c, 5, 65, 0
6, 286416, Note_on_c, 5, 62, 0
6, 286560, Note_on_c, 5, 55, 64
6, 286560, Note_on_c, 5, 62, 64
6, 286656, Note_on_c, 5, 62, 0
6, 286656, Note_on_c, 5, 55, 0
6, 286800, Note_on_c, 5, 62, 64
6, 286800, Note_on_c, 5, 55, 64
6, 286896, Note_on_c, 5, 55, 0
6, 286896, Note_on_c, 5, 62, 0
6, 287040, Note_on_c, 5, 52, 64
6, 287040, Note_on_c, 5, 60, 64
6, 287100, Note_on_c, 5, 52, 0
6, 287110, Note_on_c, 5, 60, 0
6, 287520, Note_on_c, 5, 48, 64
6, 287520, Note_on_c, 5, 60, 64
6, 289100, Note_on_c, 5, 48, 0
6, 289116, Note_on_c, 5, 60, 0
6, 289440, Note_on_c, 5, 60, 64
6, 289440, Note_on_c, 5, 48, 64
6, 291052, Note_on_c, 5, 60, 0
6, 291062, Note_on_c, 5, 48, 0
6, 291360, Note_on_c, 5, 48, 64
6, 291360, Note_on_c, 5, 60, 64
6, 292872, Note_on_c, 5, 48, 0
6, 292874, Note_on_c, 5, 60, 0
6, 293040, Note_on_c, 5, 60, 64
6, 293040, Note_on_c, 5, 48, 64
6, 293096, Note_on_c, 5, 48, 0
6, 293102, Note_on_c, 5, 60, 0
6, 293280, Note_on_c, 5, 48, 64
6, 293280, Note_on_c, 5, 60, 64
6, 293330, Note_on_c, 5, 48, 0
6, 293340, Note_on_c, 5, 60, 0
6, 293520, Note_on_c, 5, 48, 64
6, 293520, Note_on_c, 5, 60, 64
6, 293574, Note_on_c, 5, 48, 0
6, 293584, Note_on_c, 5, 60, 0
6, 293760, Note_on_c, 5, 48, 64
6, 293760, Note_on_c, 5, 60, 64
6, 293820, Note_on_c, 5, 60, 0
6, 293820, Note_on_c, 5, 48, 0
6, 294000, Note_on_c, 5, 48, 64
6, 294000, Note_on_c, 5, 60, 64
6, 294050, Note_on_c, 5, 48, 0
6, 294070, Note_on_c, 5, 60, 0
6, 294240, Note_on_c, 5, 48, 64
6, 294240, Note_on_c, 5, 60, 64
6, 294300, Note_on_c, 5, 48, 0
6, 294306, Note_on_c, 5, 60, 0
6, 294480, Note_on_c, 5, 60, 64
6, 294480, Note_on_c, 5, 48, 64
6, 294540, Note_on_c, 5, 48, 0
6, 294542, Note_on_c, 5, 60, 0
6, 294720, Note_on_c, 5, 60, 64
6, 294720, Note_on_c, 5, 48, 64
6, 294780, Note_on_c, 5, 48, 0
6, 294784, Note_on_c, 5, 60, 0
6, 294960, Note_on_c, 5, 48, 64
6, 294960, Note_on_c, 5, 60, 64
6, 295020, Note_on_c, 5, 48, 0
6, 295030, Note_on_c, 5, 60, 0
6, 295200, Note_on_c, 5, 48, 64
6, 295200, Note_on_c, 5, 60, 64
6, 295250, Note_on_c, 5, 48, 0
6, 295270, Note_on_c, 5, 60, 0
6, 295440, Note_on_c, 5, 60, 64
6, 295440, Note_on_c, 5, 48, 64
6, 295500, Note_on_c, 5, 48, 0
6, 295506, Note_on_c, 5, 60, 0
6, 295680, Note_on_c, 5, 60, 64
6, 295680, Note_on_c, 5, 48, 64
6, 295740, Note_on_c, 5, 48, 0
6, 295744, Note_on_c, 5, 60, 0
6, 295920, Note_on_c, 5, 48, 64
6, 295920, Note_on_c, 5, 60, 64
6, 295980, Note_on_c, 5, 48, 0
6, 295984, Note_on_c, 5, 60, 0
6, 296160, Note_on_c, 5, 48, 64
6, 296160, Note_on_c, 5, 60, 64
6, 296210, Note_on_c, 5, 48, 0
6, 296230, Note_on_c, 5, 60, 0
6, 296400, Note_on_c, 5, 60, 64
6, 296400, Note_on_c, 5, 48, 64
6, 296452, Note_on_c, 5, 48, 0
6, 296462, Note_on_c, 5, 60, 0
6, 296640, Note_on_c, 5, 48, 64
6, 296640, Note_on_c, 5, 60, 64
6, 296832, Note_on_c, 5, 60, 0
6, 296832, Note_on_c, 5, 48, 0
6, 297120, Note_on_c, 5, 52, 64
6, 297120, Note_on_c, 5, 60, 64
6, 297312, Note_on_c, 5, 60, 0
6, 297312, Note_on_c, 5, 52, 0
6, 298080, Note_on_c, 5, 60, 64
6, 298080, Note_on_c, 5, 64, 64
6, 298272, Note_on_c, 5, 64, 0
6, 298272, Note_on_c, 5, 60, 0
6, 299040, Note_on_c, 5, 64, 64
6, 299040, Note_on_c, 5, 67, 64
6, 299232, Note_on_c, 5, 67, 0
6, 299232, Note_on_c, 5, 64, 0
6, 300000, Note_on_c, 5, 64, 64
6, 300000, Note_on_c, 5, 60, 64
6, 300192, Note_on_c, 5, 60, 0
6, 300192, Note_on_c, 5, 64, 0
6, 300480, Note_on_c, 5, 52, 64
6, 300480, Note_on_c, 5, 60, 64
6, 300672, Note_on_c, 5, 60, 0
6, 300672, Note_on_c, 5, 52, 0
6, 301440, Note_on_c, 5, 60, 64
6, 301440, Note_on_c, 5, 64, 64
6, 301632, Note_on_c, 5, 64, 0
6, 301632, Note_on_c, 5, 60, 0
6, 302400, Note_on_c, 5, 52, 64
6, 302400, Note_on_c, 5, 60, 64
6, 302520, Note_on_c, 5, 60, 0
6, 302520, Note_on_c, 5, 52, 0
6, 303360, Note_on_c, 5, 52, 96
6, 303360, Note_on_c, 5, 60, 96
6, 303480, Note_on_c, 5, 60, 0
6, 303480, Note_on_c, 5, 52, 0
6, 303840, Note_on_c, 5, 52, 96
6, 303840, Note_on_c, 5, 60, 96
6, 303960, Note_on_c, 5, 60, 0
6, 303960, Note_on_c, 5, 52, 0
6, 304320, Note_on_c, 5, 52, 96
6, 304320, Note_on_c, 5, 60, 96
6, 304440, Note_on_c, 5, 60, 0
6, 304440, Note_on_c, 5, 52, 0
6, 304440, End_track
7, 0, Start_track
7, 0, Title_t, "Trumpets"
7, 0, Program_c, 6, 61
7, 0, Control_c, 6, 7, 90
7, 0, Control_c, 6, 10, 99
7, 0, Control_c, 6, 10, 110
7, 960, Note_on_c, 6, 72, 64
7, 960, Note_on_c, 6, 60, 64
7, 1200, Note_on_c, 6, 60, 0
7, 1200, Note_on_c, 6, 72, 0
7, 3840, Note_on_c, 6, 60, 64
7, 3840, Note_on_c, 6, 72, 64
7, 4080, Note_on_c, 6, 72, 0
7, 4080, Note_on_c, 6, 60, 0
7, 6720, Note_on_c, 6, 72, 64
7, 6720, Note_on_c, 6, 60, 64
7, 6854, Note_on_c, 6, 60, 0
7, 6854, Note_on_c, 6, 72, 0
7, 7680, Note_on_c, 6, 72, 64
7, 7680, Note_on_c, 6, 60, 64
7, 7784, Note_on_c, 6, 60, 0
7, 7784, Note_on_c, 6, 72, 0
7, 8640, Note_on_c, 6, 60, 64
7, 8640, Note_on_c, 6, 72, 64
7, 8752, Note_on_c, 6, 72, 0
7, 8752, Note_on_c, 6, 60, 0
7, 9600, Note_on_c, 6, 67, 64
7, 9600, Note_on_c, 6, 55, 64
7, 9690, Note_on_c, 6, 55, 0
7, 9690, Note_on_c, 6, 67, 0
7, 10440, Note_on_c, 6, 67, 64
7, 10440, Note_on_c, 6, 55, 64
7, 10536, Note_on_c, 6, 55, 0
7, 10536, Note_on_c, 6, 67, 0
7, 10560, Note_on_c, 6, 55, 64
7, 10560, Note_on_c, 6, 67, 64
7, 12706, Note_on_c, 6, 67, 0
7, 12706, Note_on_c, 6, 55, 0
7, 25920, Note_on_c, 6, 60, 40
7, 25920, Note_on_c, 6, 72, 40
7, 26642, Note_on_c, 6, 72, 0
7, 26642, Note_on_c, 6, 60, 0
7, 27840, Note_on_c, 6, 55, 40
7, 27840, Note_on_c, 6, 67, 40
7, 28296, Note_on_c, 6, 67, 0
7, 28296, Note_on_c, 6, 55, 0
7, 28800, Note_on_c, 6, 60, 40
7, 28800, Note_on_c, 6, 72, 40
7, 29300, Note_on_c, 6, 72, 0
7, 29300, Note_on_c, 6, 60, 0
7, 30720, Note_on_c, 6, 67, 40
7, 30720, Note_on_c, 6, 55, 40
7, 31190, Note_on_c, 6, 55, 0
7, 31190, Note_on_c, 6, 67, 0
7, 31680, Note_on_c, 6, 60, 40
7, 31680, Note_on_c, 6, 72, 40
7, 32156, Note_on_c, 6, 72, 0
7, 32156, Note_on_c, 6, 60, 0
7, 38400, Note_on_c, 6, 67, 40
7, 38400, Note_on_c, 6, 55, 40
7, 39552, Note_on_c, 6, 55, 0
7, 39552, Note_on_c, 6, 67, 0
7, 39840, Note_on_c, 6, 55, 40
7, 39840, Note_on_c, 6, 67, 40
7, 40224, Note_on_c, 6, 67, 0
7, 40224, Note_on_c, 6, 55, 0
7, 40320, Note_on_c, 6, 55, 40
7, 40320, Note_on_c, 6, 67, 40
7, 41088, Note_on_c, 6, 67, 0
7, 41088, Note_on_c, 6, 55, 0
7, 41760, Note_on_c, 6, 55, 40
7, 41760, Note_on_c, 6, 67, 40
7, 42528, Note_on_c, 6, 67, 0
7, 42528, Note_on_c, 6, 55, 0
7, 42720, Note_on_c, 6, 67, 40
7, 42720, Note_on_c, 6, 55, 40
7, 43104, Note_on_c, 6, 55, 0
7, 43104, Note_on_c, 6, 67, 0
7, 43200, Note_on_c, 6, 60, 40
7, 43584, Note_on_c, 6, 60, 0
7, 44160, Note_on_c, 6, 72, 80
7, 44160, Note_on_c, 6, 60, 80
7, 45696, Note_on_c, 6, 60, 0
7, 45696, Note_on_c, 6, 72, 0
7, 46080, Note_on_c, 6, 55, 40
7, 46080, Note_on_c, 6, 67, 40
7, 46192, Note_on_c, 6, 67, 0
7, 46192, Note_on_c, 6, 55, 0
7, 60480, Note_on_c, 6, 60, 64
7, 60480, Note_on_c, 6, 72, 64
7, 60574, Note_on_c, 6, 72, 0
7, 60574, Note_on_c, 6, 60, 0
7, 61440, Note_on_c, 6, 60, 64
7, 61440, Note_on_c, 6, 72, 64
7, 61536, Note_on_c, 6, 72, 0
7, 61536, Note_on_c, 6, 60, 0
7, 62400, Note_on_c, 6, 60, 64
7, 62400, Note_on_c, 6, 72, 64
7, 62496, Note_on_c, 6, 72, 0
7, 62496, Note_on_c, 6, 60, 0
7, 62880, Note_on_c, 6, 72, 64
7, 62880, Note_on_c, 6, 60, 64
7, 62976, Note_on_c, 6, 60, 0
7, 62976, Note_on_c, 6, 72, 0
7, 63360, Note_on_c, 6, 60, 64
7, 63360, Note_on_c, 6, 72, 64
7, 63440, Note_on_c, 6, 72, 0
7, 63440, Note_on_c, 6, 60, 0
7, 64320, Note_on_c, 6, 60, 64
7, 64320, Note_on_c, 6, 72, 64
7, 64412, Note_on_c, 6, 72, 0
7, 64412, Note_on_c, 6, 60, 0
7, 65280, Note_on_c, 6, 60, 64
7, 65280, Note_on_c, 6, 72, 64
7, 65374, Note_on_c, 6, 72, 0
7, 65374, Note_on_c, 6, 60, 0
7, 66240, Note_on_c, 6, 55, 64
7, 66240, Note_on_c, 6, 67, 64
7, 66330, Note_on_c, 6, 67, 0
7, 66330, Note_on_c, 6, 55, 0
7, 66720, Note_on_c, 6, 67, 64
7, 66720, Note_on_c, 6, 55, 64
7, 66810, Note_on_c, 6, 55, 0
7, 66810, Note_on_c, 6, 67, 0
7, 67200, Note_on_c, 6, 55, 64
7, 67200, Note_on_c, 6, 67, 64
7, 67286, Note_on_c, 6, 67, 0
7, 67286, Note_on_c, 6, 55, 0
7, 68160, Note_on_c, 6, 60, 64
7, 68160, Note_on_c, 6, 72, 64
7, 68244, Note_on_c, 6, 72, 0
7, 68244, Note_on_c, 6, 60, 0
7, 69120, Note_on_c, 6, 60, 64
7, 69120, Note_on_c, 6, 72, 64
7, 69216, Note_on_c, 6, 72, 0
7, 69216, Note_on_c, 6, 60, 0
7, 70080, Note_on_c, 6, 60, 64
7, 70080, Note_on_c, 6, 72, 64
7, 70180, Note_on_c, 6, 72, 0
7, 70180, Note_on_c, 6, 60, 0
7, 71040, Note_on_c, 6, 72, 64
7, 71040, Note_on_c, 6, 60, 64
7, 71132, Note_on_c, 6, 60, 0
7, 71132, Note_on_c, 6, 72, 0
7, 72000, Note_on_c, 6, 55, 64
7, 72000, Note_on_c, 6, 67, 64
7, 72084, Note_on_c, 6, 67, 0
7, 72084, Note_on_c, 6, 55, 0
7, 72960, Note_on_c, 6, 67, 64
7, 72960, Note_on_c, 6, 55, 64
7, 73050, Note_on_c, 6, 55, 0
7, 73050, Note_on_c, 6, 67, 0
7, 73920, Note_on_c, 6, 67, 64
7, 73920, Note_on_c, 6, 55, 64
7, 74004, Note_on_c, 6, 55, 0
7, 74004, Note_on_c, 6, 67, 0
7, 74880, Note_on_c, 6, 67, 64
7, 74880, Note_on_c, 6, 55, 64
7, 74970, Note_on_c, 6, 55, 0
7, 74970, Note_on_c, 6, 67, 0
7, 75840, Note_on_c, 6, 55, 64
7, 75840, Note_on_c, 6, 67, 64
7, 75924, Note_on_c, 6, 67, 0
7, 75924, Note_on_c, 6, 55, 0
7, 76800, Note_on_c, 6, 55, 64
7, 76800, Note_on_c, 6, 67, 64
7, 76896, Note_on_c, 6, 67, 0
7, 76896, Note_on_c, 6, 55, 0
7, 77760, Note_on_c, 6, 67, 64
7, 77760, Note_on_c, 6, 55, 64
7, 77846, Note_on_c, 6, 55, 0
7, 77846, Note_on_c, 6, 67, 0
7, 78240, Note_on_c, 6, 67, 64
7, 78240, Note_on_c, 6, 55, 64
7, 78324, Note_on_c, 6, 55, 0
7, 78324, Note_on_c, 6, 67, 0
7, 78720, Note_on_c, 6, 67, 64
7, 78720, Note_on_c, 6, 55, 64
7, 78806, Note_on_c, 6, 55, 0
7, 78806, Note_on_c, 6, 67, 0
7, 110400, Note_on_c, 6, 67, 64
7, 110400, Note_on_c, 6, 55, 64
7, 110472, Note_on_c, 6, 55, 0
7, 110472, Note_on_c, 6, 67, 0
7, 110520, Note_on_c, 6, 67, 64
7, 110520, Note_on_c, 6, 55, 64
7, 110596, Note_on_c, 6, 55, 0
7, 110596, Note_on_c, 6, 67, 0
7, 110640, Note_on_c, 6, 67, 64
7, 110640, Note_on_c, 6, 55, 64
7, 110712, Note_on_c, 6, 55, 0
7, 110712, Note_on_c, 6, 67, 0
7, 110760, Note_on_c, 6, 55, 64
7, 110760, Note_on_c, 6, 67, 64
7, 110836, Note_on_c, 6, 67, 0
7, 110836, Note_on_c, 6, 55, 0
7, 110880, Note_on_c, 6, 67, 64
7, 110880, Note_on_c, 6, 55, 64
7, 110960, Note_on_c, 6, 55, 0
7, 110960, Note_on_c, 6, 67, 0
7, 111000, Note_on_c, 6, 67, 64
7, 111000, Note_on_c, 6, 55, 64
7, 111074, Note_on_c, 6, 55, 0
7, 111074, Note_on_c, 6, 67, 0
7, 111120, Note_on_c, 6, 55, 64
7, 111120, Note_on_c, 6, 67, 64
7, 111194, Note_on_c, 6, 67, 0
7, 111194, Note_on_c, 6, 55, 0
7, 111240, Note_on_c, 6, 67, 64
7, 111240, Note_on_c, 6, 55, 64
7, 111316, Note_on_c, 6, 55, 0
7, 111316, Note_on_c, 6, 67, 0
7, 111360, Note_on_c, 6, 67, 64
7, 111360, Note_on_c, 6, 55, 64
7, 111436, Note_on_c, 6, 55, 0
7, 111436, Note_on_c, 6, 67, 0
7, 111480, Note_on_c, 6, 67, 64
7, 111480, Note_on_c, 6, 55, 64
7, 111556, Note_on_c, 6, 55, 0
7, 111556, Note_on_c, 6, 67, 0
7, 111600, Note_on_c, 6, 67, 64
7, 111600, Note_on_c, 6, 55, 64
7, 111676, Note_on_c, 6, 55, 0
7, 111676, Note_on_c, 6, 67, 0
7, 111720, Note_on_c, 6, 67, 64
7, 111720, Note_on_c, 6, 55, 64
7, 111790, Note_on_c, 6, 55, 0
7, 111790, Note_on_c, 6, 67, 0
7, 111840, Note_on_c, 6, 55, 64
7, 111840, Note_on_c, 6, 67, 64
7, 111904, Note_on_c, 6, 67, 0
7, 111904, Note_on_c, 6, 55, 0
7, 111960, Note_on_c, 6, 67, 64
7, 111960, Note_on_c, 6, 55, 64
7, 112030, Note_on_c, 6, 55, 0
7, 112030, Note_on_c, 6, 67, 0
7, 112080, Note_on_c, 6, 55, 64
7, 112080, Note_on_c, 6, 67, 64
7, 112150, Note_on_c, 6, 67, 0
7, 112150, Note_on_c, 6, 55, 0
7, 112200, Note_on_c, 6, 67, 64
7, 112200, Note_on_c, 6, 55, 64
7, 112346, Note_on_c, 6, 55, 0
7, 112346, Note_on_c, 6, 67, 0
7, 112440, Note_on_c, 6, 60, 64
7, 112440, Note_on_c, 6, 72, 64
7, 112546, Note_on_c, 6, 72, 0
7, 112546, Note_on_c, 6, 60, 0
7, 135360, Note_on_c, 6, 55, 64
7, 135360, Note_on_c, 6, 67, 64
7, 135474, Note_on_c, 6, 67, 0
7, 135474, Note_on_c, 6, 55, 0
7, 137280, Note_on_c, 6, 55, 64
7, 137280, Note_on_c, 6, 67, 64
7, 137396, Note_on_c, 6, 67, 0
7, 137396, Note_on_c, 6, 55, 0
7, 139200, Note_on_c, 6, 72, 64
7, 139200, Note_on_c, 6, 60, 64
7, 139296, Note_on_c, 6, 60, 0
7, 139296, Note_on_c, 6, 72, 0
7, 168120, Note_on_c, 6, 60, 64
7, 168120, Note_on_c, 6, 72, 64
7, 168206, Note_on_c, 6, 72, 0
7, 168206, Note_on_c, 6, 60, 0
7, 168960, Note_on_c, 6, 60, 64
7, 168960, Note_on_c, 6, 72, 64
7, 169036, Note_on_c, 6, 72, 0
7, 169036, Note_on_c, 6, 60, 0
7, 169920, Note_on_c, 6, 60, 64
7, 169920, Note_on_c, 6, 72, 64
7, 170000, Note_on_c, 6, 72, 0
7, 170000, Note_on_c, 6, 60, 0
7, 170400, Note_on_c, 6, 72, 64
7, 170400, Note_on_c, 6, 60, 64
7, 170466, Note_on_c, 6, 60, 0
7, 170466, Note_on_c, 6, 72, 0
7, 170880, Note_on_c, 6, 60, 64
7, 170880, Note_on_c, 6, 72, 64
7, 170946, Note_on_c, 6, 72, 0
7, 170946, Note_on_c, 6, 60, 0
7, 185280, Note_on_c, 6, 67, 64
7, 185280, Note_on_c, 6, 55, 64
7, 185374, Note_on_c, 6, 55, 0
7, 185374, Note_on_c, 6, 67, 0
7, 186240, Note_on_c, 6, 55, 64
7, 186240, Note_on_c, 6, 67, 64
7, 186336, Note_on_c, 6, 67, 0
7, 186336, Note_on_c, 6, 55, 0
7, 187200, Note_on_c, 6, 55, 64
7, 187200, Note_on_c, 6, 67, 64
7, 187292, Note_on_c, 6, 67, 0
7, 187292, Note_on_c, 6, 55, 0
7, 187440, Note_on_c, 6, 60, 64
7, 187440, Note_on_c, 6, 72, 64
7, 187552, Note_on_c, 6, 72, 0
7, 187552, Note_on_c, 6, 60, 0
7, 187680, Note_on_c, 6, 67, 64
7, 187680, Note_on_c, 6, 55, 64
7, 187780, Note_on_c, 6, 55, 0
7, 187780, Note_on_c, 6, 67, 0
7, 187920, Note_on_c, 6, 60, 64
7, 187920, Note_on_c, 6, 72, 64
7, 188022, Note_on_c, 6, 72, 0
7, 188022, Note_on_c, 6, 60, 0
7, 188160, Note_on_c, 6, 55, 64
7, 188160, Note_on_c, 6, 67, 64
7, 188254, Note_on_c, 6, 67, 0
7, 188254, Note_on_c, 6, 55, 0
7, 188400, Note_on_c, 6, 60, 64
7, 188400, Note_on_c, 6, 72, 64
7, 188502, Note_on_c, 6, 72, 0
7, 188502, Note_on_c, 6, 60, 0
7, 188640, Note_on_c, 6, 67, 64
7, 188640, Note_on_c, 6, 55, 64
7, 188726, Note_on_c, 6, 55, 0
7, 188726, Note_on_c, 6, 67, 0
7, 188880, Note_on_c, 6, 60, 64
7, 188880, Note_on_c, 6, 72, 64
7, 188974, Note_on_c, 6, 72, 0
7, 188974, Note_on_c, 6, 60, 0
7, 189120, Note_on_c, 6, 67, 64
7, 189120, Note_on_c, 6, 55, 64
7, 189214, Note_on_c, 6, 55, 0
7, 189214, Note_on_c, 6, 67, 0
7, 189600, Note_on_c, 6, 67, 64
7, 189600, Note_on_c, 6, 55, 64
7, 189692, Note_on_c, 6, 55, 0
7, 189692, Note_on_c, 6, 67, 0
7, 190080, Note_on_c, 6, 55, 64
7, 190080, Note_on_c, 6, 67, 64
7, 190166, Note_on_c, 6, 67, 0
7, 190166, Note_on_c, 6, 55, 0
7, 221760, Note_on_c, 6, 72, 64
7, 221760, Note_on_c, 6, 60, 64
7, 221830, Note_on_c, 6, 60, 0
7, 221830, Note_on_c, 6, 72, 0
7, 221880, Note_on_c, 6, 72, 64
7, 221880, Note_on_c, 6, 60, 64
7, 221960, Note_on_c, 6, 60, 0
7, 221960, Note_on_c, 6, 72, 0
7, 222000, Note_on_c, 6, 72, 64
7, 222000, Note_on_c, 6, 60, 64
7, 222072, Note_on_c, 6, 60, 0
7, 222072, Note_on_c, 6, 72, 0
7, 222120, Note_on_c, 6, 60, 64
7, 222120, Note_on_c, 6, 72, 64
7, 222192, Note_on_c, 6, 72, 0
7, 222192, Note_on_c, 6, 60, 0
7, 222240, Note_on_c, 6, 72, 64
7, 222240, Note_on_c, 6, 60, 64
7, 222316, Note_on_c, 6, 60, 0
7, 222316, Note_on_c, 6, 72, 0
7, 222360, Note_on_c, 6, 72, 64
7, 222360, Note_on_c, 6, 60, 64
7, 222426, Note_on_c, 6, 60, 0
7, 222426, Note_on_c, 6, 72, 0
7, 222480, Note_on_c, 6, 60, 64
7, 222480, Note_on_c, 6, 72, 64
7, 222560, Note_on_c, 6, 72, 0
7, 222560, Note_on_c, 6, 60, 0
7, 222600, Note_on_c, 6, 72, 64
7, 222600, Note_on_c, 6, 60, 64
7, 222664, Note_on_c, 6, 60, 0
7, 222664, Note_on_c, 6, 72, 0
7, 222720, Note_on_c, 6, 72, 64
7, 222720, Note_on_c, 6, 60, 64
7, 222792, Note_on_c, 6, 60, 0
7, 222792, Note_on_c, 6, 72, 0
7, 222840, Note_on_c, 6, 72, 64
7, 222840, Note_on_c, 6, 60, 64
7, 222904, Note_on_c, 6, 60, 0
7, 222904, Note_on_c, 6, 72, 0
7, 222960, Note_on_c, 6, 72, 64
7, 222960, Note_on_c, 6, 60, 64
7, 223044, Note_on_c, 6, 60, 0
7, 223044, Note_on_c, 6, 72, 0
7, 223080, Note_on_c, 6, 72, 64
7, 223080, Note_on_c, 6, 60, 64
7, 223144, Note_on_c, 6, 60, 0
7, 223144, Note_on_c, 6, 72, 0
7, 223200, Note_on_c, 6, 60, 64
7, 223200, Note_on_c, 6, 72, 64
7, 223266, Note_on_c, 6, 72, 0
7, 223266, Note_on_c, 6, 60, 0
7, 223320, Note_on_c, 6, 72, 64
7, 223320, Note_on_c, 6, 60, 64
7, 223400, Note_on_c, 6, 60, 0
7, 223400, Note_on_c, 6, 72, 0
7, 223440, Note_on_c, 6, 60, 64
7, 223440, Note_on_c, 6, 72, 64
7, 223512, Note_on_c, 6, 72, 0
7, 223512, Note_on_c, 6, 60, 0
7, 223560, Note_on_c, 6, 72, 64
7, 223560, Note_on_c, 6, 60, 64
7, 223644, Note_on_c, 6, 60, 0
7, 223644, Note_on_c, 6, 72, 0
7, 223680, Note_on_c, 6, 60, 64
7, 223680, Note_on_c, 6, 72, 64
7, 223740, Note_on_c, 6, 72, 0
7, 223740, Note_on_c, 6, 60, 0
7, 230160, Note_on_c, 6, 55, 64
7, 230160, Note_on_c, 6, 67, 64
7, 230244, Note_on_c, 6, 67, 0
7, 230244, Note_on_c, 6, 55, 0
7, 230400, Note_on_c, 6, 60, 64
7, 230400, Note_on_c, 6, 72, 64
7, 230496, Note_on_c, 6, 72, 0
7, 230496, Note_on_c, 6, 60, 0
7, 240960, Note_on_c, 6, 72, 64
7, 240960, Note_on_c, 6, 60, 64
7, 241054, Note_on_c, 6, 60, 0
7, 241054, Note_on_c, 6, 72, 0
7, 242880, Note_on_c, 6, 72, 64
7, 242880, Note_on_c, 6, 60, 64
7, 242980, Note_on_c, 6, 60, 0
7, 242980, Note_on_c, 6, 72, 0
7, 245280, Note_on_c, 6, 74, 64
7, 245280, Note_on_c, 6, 77, 64
7, 245622, Note_on_c, 6, 74, 0
7, 245626, Note_on_c, 6, 77, 0
7, 245760, Note_on_c, 6, 72, 64
7, 245760, Note_on_c, 6, 76, 64
7, 246106, Note_on_c, 6, 76, 0
7, 246162, Note_on_c, 6, 72, 0
7, 246240, Note_on_c, 6, 67, 64
7, 246240, Note_on_c, 6, 74, 64
7, 246536, Note_on_c, 6, 74, 0
7, 246536, Note_on_c, 6, 67, 0
7, 246720, Note_on_c, 6, 72, 64
7, 246720, Note_on_c, 6, 60, 64
7, 247284, Note_on_c, 6, 60, 0
7, 247286, Note_on_c, 6, 72, 0
7, 247440, Note_on_c, 6, 64, 64
7, 247440, Note_on_c, 6, 76, 64
7, 247492, Note_on_c, 6, 64, 0
7, 247506, Note_on_c, 6, 76, 0
7, 247680, Note_on_c, 6, 79, 64
7, 247680, Note_on_c, 6, 67, 64
7, 247736, Note_on_c, 6, 67, 0
7, 247742, Note_on_c, 6, 79, 0
7, 248640, Note_on_c, 6, 64, 80
7, 248640, Note_on_c, 6, 76, 80
7, 249792, Note_on_c, 6, 76, 0
7, 249792, Note_on_c, 6, 64, 0
7, 251040, Note_on_c, 6, 77, 64
7, 251040, Note_on_c, 6, 74, 64
7, 251474, Note_on_c, 6, 77, 0
7, 251480, Note_on_c, 6, 74, 0
7, 251520, Note_on_c, 6, 76, 64
7, 251520, Note_on_c, 6, 72, 64
7, 251924, Note_on_c, 6, 76, 0
7, 251930, Note_on_c, 6, 72, 0
7, 252000, Note_on_c, 6, 67, 64
7, 252000, Note_on_c, 6, 74, 64
7, 252330, Note_on_c, 6, 74, 0
7, 252330, Note_on_c, 6, 67, 0
7, 252480, Note_on_c, 6, 60, 64
7, 252480, Note_on_c, 6, 72, 64
7, 252564, Note_on_c, 6, 72, 0
7, 252564, Note_on_c, 6, 60, 0
7, 270240, Note_on_c, 6, 60, 80
7, 270240, Note_on_c, 6, 72, 80
7, 270912, Note_on_c, 6, 72, 0
7, 270912, Note_on_c, 6, 60, 0
7, 270960, Note_on_c, 6, 60, 80
7, 270960, Note_on_c, 6, 72, 80
7, 271152, Note_on_c, 6, 72, 0
7, 271152, Note_on_c, 6, 60, 0
7, 271200, Note_on_c, 6, 60, 80
7, 271200, Note_on_c, 6, 72, 80
7, 271392, Note_on_c, 6, 72, 0
7, 271392, Note_on_c, 6, 60, 0
7, 271440, Note_on_c, 6, 72, 80
7, 271440, Note_on_c, 6, 60, 80
7, 271632, Note_on_c, 6, 60, 0
7, 271632, Note_on_c, 6, 72, 0
7, 271680, Note_on_c, 6, 72, 64
7, 271680, Note_on_c, 6, 60, 64
7, 272536, Note_on_c, 6, 60, 0
7, 272542, Note_on_c, 6, 72, 0
7, 272640, Note_on_c, 6, 72, 64
7, 272640, Note_on_c, 6, 60, 64
7, 273504, Note_on_c, 6, 60, 0
7, 273510, Note_on_c, 6, 72, 0
7, 273600, Note_on_c, 6, 60, 64
7, 273600, Note_on_c, 6, 72, 64
7, 274890, Note_on_c, 6, 72, 0
7, 274944, Note_on_c, 6, 60, 0
7, 275040, Note_on_c, 6, 67, 64
7, 275040, Note_on_c, 6, 74, 64
7, 275372, Note_on_c, 6, 74, 0
7, 275376, Note_on_c, 6, 67, 0
7, 275520, Note_on_c, 6, 60, 64
7, 275520, Note_on_c, 6, 72, 64
7, 275614, Note_on_c, 6, 72, 0
7, 275614, Note_on_c, 6, 60, 0
7, 276000, Note_on_c, 6, 72, 64
7, 276000, Note_on_c, 6, 60, 64
7, 276112, Note_on_c, 6, 60, 0
7, 276112, Note_on_c, 6, 72, 0
7, 278880, Note_on_c, 6, 67, 64
7, 278880, Note_on_c, 6, 55, 64
7, 278994, Note_on_c, 6, 55, 0
7, 278994, Note_on_c, 6, 67, 0
7, 279840, Note_on_c, 6, 72, 64
7, 279840, Note_on_c, 6, 60, 64
7, 280290, Note_on_c, 6, 60, 0
7, 280290, Note_on_c, 6, 72, 0
7, 282720, Note_on_c, 6, 67, 64
7, 282720, Note_on_c, 6, 55, 64
7, 282846, Note_on_c, 6, 55, 0
7, 282846, Note_on_c, 6, 67, 0
7, 283200, Note_on_c, 6, 72, 64
7, 283200, Note_on_c, 6, 76, 64
7, 283526, Note_on_c, 6, 72, 0
7, 283550, Note_on_c, 6, 76, 0
7, 283680, Note_on_c, 6, 76, 64
7, 284000, Note_on_c, 6, 76, 0
7, 284160, Note_on_c, 6, 74, 64
7, 284160, Note_on_c, 6, 77, 64
7, 284496, Note_on_c, 6, 74, 0
7, 284574, Note_on_c, 6, 77, 0
7, 284640, Note_on_c, 6, 67, 64
7, 284640, Note_on_c, 6, 74, 64
7, 284966, Note_on_c, 6, 67, 0
7, 285012, Note_on_c, 6, 74, 0
7, 285120, Note_on_c, 6, 72, 80
7, 285120, Note_on_c, 6, 76, 80
7, 285216, Note_on_c, 6, 76, 0
7, 285216, Note_on_c, 6, 72, 0
7, 285360, Note_on_c, 6, 64, 80
7, 285360, Note_on_c, 6, 76, 80
7, 285456, Note_on_c, 6, 76, 0
7, 285456, Note_on_c, 6, 64, 0
7, 285600, Note_on_c, 6, 64, 80
7, 285600, Note_on_c, 6, 76, 80
7, 285696, Note_on_c, 6, 76, 0
7, 285696, Note_on_c, 6, 64, 0
7, 285840, Note_on_c, 6, 76, 80
7, 285840, Note_on_c, 6, 64, 80
7, 285936, Note_on_c, 6, 64, 0
7, 285936, Note_on_c, 6, 76, 0
7, 286080, Note_on_c, 6, 74, 80
7, 286080, Note_on_c, 6, 77, 80
7, 286176, Note_on_c, 6, 77, 0
7, 286176, Note_on_c, 6, 74, 0
7, 286320, Note_on_c, 6, 74, 80
7, 286320, Note_on_c, 6, 77, 80
7, 286416, Note_on_c, 6, 77, 0
7, 286416, Note_on_c, 6, 74, 0
7, 286560, Note_on_c, 6, 67, 80
7, 286560, Note_on_c, 6, 74, 80
7, 286656, Note_on_c, 6, 74, 0
7, 286656, Note_on_c, 6, 67, 0
7, 286800, Note_on_c, 6, 74, 80
7, 286800, Note_on_c, 6, 67, 80
7, 286896, Note_on_c, 6, 67, 0
7, 286896, Note_on_c, 6, 74, 0
7, 287040, Note_on_c, 6, 64, 64
7, 287040, Note_on_c, 6, 72, 64
7, 287100, Note_on_c, 6, 64, 0
7, 287110, Note_on_c, 6, 72, 0
7, 287520, Note_on_c, 6, 72, 64
7, 287520, Note_on_c, 6, 60, 64
7, 289100, Note_on_c, 6, 60, 0
7, 289116, Note_on_c, 6, 72, 0
7, 289440, Note_on_c, 6, 72, 64
7, 289440, Note_on_c, 6, 60, 64
7, 291052, Note_on_c, 6, 72, 0
7, 291062, Note_on_c, 6, 60, 0
7, 291360, Note_on_c, 6, 60, 64
7, 291360, Note_on_c, 6, 72, 64
7, 292872, Note_on_c, 6, 60, 0
7, 292874, Note_on_c, 6, 72, 0
7, 293040, Note_on_c, 6, 60, 64
7, 293040, Note_on_c, 6, 72, 64
7, 293096, Note_on_c, 6, 60, 0
7, 293102, Note_on_c, 6, 72, 0
7, 293280, Note_on_c, 6, 60, 64
7, 293280, Note_on_c, 6, 72, 64
7, 293330, Note_on_c, 6, 60, 0
7, 293340, Note_on_c, 6, 72, 0
7, 293520, Note_on_c, 6, 72, 64
7, 293520, Note_on_c, 6, 60, 64
7, 293574, Note_on_c, 6, 60, 0
7, 293584, Note_on_c, 6, 72, 0
7, 293760, Note_on_c, 6, 72, 64
7, 293760, Note_on_c, 6, 60, 64
7, 293820, Note_on_c, 6, 60, 0
7, 293820, Note_on_c, 6, 72, 0
7, 294000, Note_on_c, 6, 60, 64
7, 294000, Note_on_c, 6, 72, 64
7, 294050, Note_on_c, 6, 60, 0
7, 294070, Note_on_c, 6, 72, 0
7, 294240, Note_on_c, 6, 60, 64
7, 294240, Note_on_c, 6, 72, 64
7, 294300, Note_on_c, 6, 60, 0
7, 294306, Note_on_c, 6, 72, 0
7, 294480, Note_on_c, 6, 72, 64
7, 294480, Note_on_c, 6, 60, 64
7, 294540, Note_on_c, 6, 60, 0
7, 294542, Note_on_c, 6, 72, 0
7, 294720, Note_on_c, 6, 60, 64
7, 294720, Note_on_c, 6, 72, 64
7, 294780, Note_on_c, 6, 60, 0
7, 294784, Note_on_c, 6, 72, 0
7, 294960, Note_on_c, 6, 60, 64
7, 294960, Note_on_c, 6, 72, 64
7, 295020, Note_on_c, 6, 60, 0
7, 295030, Note_on_c, 6, 72, 0
7, 295200, Note_on_c, 6, 60, 64
7, 295200, Note_on_c, 6, 72, 64
7, 295250, Note_on_c, 6, 60, 0
7, 295270, Note_on_c, 6, 72, 0
7, 295440, Note_on_c, 6, 72, 64
7, 295440, Note_on_c, 6, 60, 64
7, 295500, Note_on_c, 6, 60, 0
7, 295506, Note_on_c, 6, 72, 0
7, 295680, Note_on_c, 6, 60, 64
7, 295680, Note_on_c, 6, 72, 64
7, 295740, Note_on_c, 6, 60, 0
7, 295744, Note_on_c, 6, 72, 0
7, 295920, Note_on_c, 6, 60, 64
7, 295920, Note_on_c, 6, 72, 64
7, 295980, Note_on_c, 6, 60, 0
7, 295984, Note_on_c, 6, 72, 0
7, 296160, Note_on_c, 6, 60, 64
7, 296160, Note_on_c, 6, 72, 64
7, 296210, Note_on_c, 6, 60, 0
7, 296230, Note_on_c, 6, 72, 0
7, 296400, Note_on_c, 6, 72, 64
7, 296400, Note_on_c, 6, 60, 64
7, 296452, Note_on_c, 6, 60, 0
7, 296462, Note_on_c, 6, 72, 0
7, 296640, Note_on_c, 6, 72, 64
7, 296640, Note_on_c, 6, 60, 64
7, 296832, Note_on_c, 6, 60, 0
7, 296832, Note_on_c, 6, 72, 0
7, 297120, Note_on_c, 6, 72, 64
7, 297120, Note_on_c, 6, 60, 64
7, 297312, Note_on_c, 6, 60, 0
7, 297312, Note_on_c, 6, 72, 0
7, 298080, Note_on_c, 6, 72, 64
7, 298080, Note_on_c, 6, 60, 64
7, 298272, Note_on_c, 6, 60, 0
7, 298272, Note_on_c, 6, 72, 0
7, 299040, Note_on_c, 6, 72, 64
7, 299040, Note_on_c, 6, 60, 64
7, 299232, Note_on_c, 6, 60, 0
7, 299232, Note_on_c, 6, 72, 0
7, 300000, Note_on_c, 6, 72, 64
7, 300000, Note_on_c, 6, 60, 64
7, 300192, Note_on_c, 6, 60, 0
7, 300192, Note_on_c, 6, 72, 0
7, 300480, Note_on_c, 6, 72, 64
7, 300480, Note_on_c, 6, 60, 64
7, 300672, Note_on_c, 6, 60, 0
7, 300672, Note_on_c, 6, 72, 0
7, 301440, Note_on_c, 6, 72, 64
7, 301440, Note_on_c, 6, 60, 64
7, 301632, Note_on_c, 6, 60, 0
7, 301632, Note_on_c, 6, 72, 0
7, 302400, Note_on_c, 6, 72, 64
7, 302400, Note_on_c, 6, 60, 64
7, 302520, Note_on_c, 6, 60, 0
7, 302520, Note_on_c, 6, 72, 0
7, 303360, Note_on_c, 6, 72, 96
7, 303360, Note_on_c, 6, 60, 96
7, 303480, Note_on_c, 6, 60, 0
7, 303480, Note_on_c, 6, 72, 0
7, 303840, Note_on_c, 6, 72, 96
7, 303840, Note_on_c, 6, 60, 96
7, 303960, Note_on_c, 6, 60, 0
7, 303960, Note_on_c, 6, 72, 0
7, 304320, Note_on_c, 6, 72, 96
7, 304320, Note_on_c, 6, 60, 96
7, 304440, Note_on_c, 6, 60, 0
7, 304440, Note_on_c, 6, 72, 0
7, 304440, End_track
8, 0, Start_track
8, 0, Title_t, "Timpani"
8, 0, Program_c, 7, 47
8, 0, Control_c, 7, 7, 90
8, 0, Control_c, 7, 10, 64
8, 0, Control_c, 7, 10, 25
8, 960, Note_on_c, 7, 48, 64
8, 1200, Note_on_c, 7, 48, 0
8, 3840, Note_on_c, 7, 48, 64
8, 4200, Note_on_c, 7, 48, 0
8, 6720, Note_on_c, 7, 48, 64
8, 6854, Note_on_c, 7, 48, 0
8, 7680, Note_on_c, 7, 48, 64
8, 7784, Note_on_c, 7, 48, 0
8, 8640, Note_on_c, 7, 48, 64
8, 8752, Note_on_c, 7, 48, 0
8, 9600, Note_on_c, 7, 43, 64
8, 9690, Note_on_c, 7, 43, 0
8, 10440, Note_on_c, 7, 43, 64
8, 10536, Note_on_c, 7, 43, 0
8, 10560, Note_on_c, 7, 43, 80
8, 10608, Note_on_c, 7, 43, 0
8, 10620, Note_on_c, 7, 43, 80
8, 10668, Note_on_c, 7, 43, 0
8, 10680, Note_on_c, 7, 43, 80
8, 10728, Note_on_c, 7, 43, 0
8, 10740, Note_on_c, 7, 43, 80
8, 10788, Note_on_c, 7, 43, 0
8, 10800, Note_on_c, 7, 43, 80
8, 10848, Note_on_c, 7, 43, 0
8, 10860, Note_on_c, 7, 43, 80
8, 10908, Note_on_c, 7, 43, 0
8, 10920, Note_on_c, 7, 43, 80
8, 10968, Note_on_c, 7, 43, 0
8, 10980, Note_on_c, 7, 43, 80
8, 11028, Note_on_c, 7, 43, 0
8, 11040, Note_on_c, 7, 43, 80
8, 11088, Note_on_c, 7, 43, 0
8, 11100, Note_on_c, 7, 43, 80
8, 11148, Note_on_c, 7, 43, 0
8, 11160, Note_on_c, 7, 43, 80
8, 11208, Note_on_c, 7, 43, 0
8, 11220, Note_on_c, 7, 43, 80
8, 11268, Note_on_c, 7, 43, 0
8, 11280, Note_on_c, 7, 43, 80
8, 11328, Note_on_c, 7, 43, 0
8, 11340, Note_on_c, 7, 43, 80
8, 11388, Note_on_c, 7, 43, 0
8, 11400, Note_on_c, 7, 43, 80
8, 11448, Note_on_c, 7, 43, 0
8, 11460, Note_on_c, 7, 43, 80
8, 11508, Note_on_c, 7, 43, 0
8, 11520, Note_on_c, 7, 43, 80
8, 11568, Note_on_c, 7, 43, 0
8, 11580, Note_on_c, 7, 43, 80
8, 11628, Note_on_c, 7, 43, 0
8, 11640, Note_on_c, 7, 43, 80
8, 11688, Note_on_c, 7, 43, 0
8, 11700, Note_on_c, 7, 43, 80
8, 11748, Note_on_c, 7, 43, 0
8, 11760, Note_on_c, 7, 43, 80
8, 11808, Note_on_c, 7, 43, 0
8, 11820, Note_on_c, 7, 43, 80
8, 11868, Note_on_c, 7, 43, 0
8, 11880, Note_on_c, 7, 43, 80
8, 11880, Note_on_c, 7, 43, 80
8, 11880, Note_on_c, 7, 43, 80
8, 11928, Note_on_c, 7, 43, 0
8, 11928, Note_on_c, 7, 43, 0
8, 11928, Note_on_c, 7, 43, 0
8, 11940, Note_on_c, 7, 43, 80
8, 11988, Note_on_c, 7, 43, 0
8, 12000, Note_on_c, 7, 43, 80
8, 12048, Note_on_c, 7, 43, 0
8, 12060, Note_on_c, 7, 43, 80
8, 12108, Note_on_c, 7, 43, 0
8, 12120, Note_on_c, 7, 43, 80
8, 12168, Note_on_c, 7, 43, 0
8, 12180, Note_on_c, 7, 43, 80
8, 12228, Note_on_c, 7, 43, 0
8, 12240, Note_on_c, 7, 43, 80
8, 12288, Note_on_c, 7, 43, 0
8, 12300, Note_on_c, 7, 43, 80
8, 12348, Note_on_c, 7, 43, 0
8, 12360, Note_on_c, 7, 43, 80
8, 12408, Note_on_c, 7, 43, 0
8, 12420, Note_on_c, 7, 43, 80
8, 12468, Note_on_c, 7, 43, 0
8, 12480, Note_on_c, 7, 43, 80
8, 12528, Note_on_c, 7, 43, 0
8, 12540, Note_on_c, 7, 43, 80
8, 12588, Note_on_c, 7, 43, 0
8, 14400, Note_on_c, 7, 48, 64
8, 14530, Note_on_c, 7, 48, 0
8, 16320, Note_on_c, 7, 43, 64
8, 16486, Note_on_c, 7, 43, 0
8, 17280, Note_on_c, 7, 48, 64
8, 17476, Note_on_c, 7, 48, 0
8, 21120, Note_on_c, 7, 43, 64
8, 21612, Note_on_c, 7, 43, 0
8, 22080, Note_on_c, 7, 48, 64
8, 22496, Note_on_c, 7, 48, 0
8, 23040, Note_on_c, 7, 43, 64
8, 23514, Note_on_c, 7, 43, 0
8, 25920, Note_on_c, 7, 48, 64
8, 26642, Note_on_c, 7, 48, 0
8, 27840, Note_on_c, 7, 43, 64
8, 28296, Note_on_c, 7, 43, 0
8, 28800, Note_on_c, 7, 48, 64
8, 29300, Note_on_c, 7, 48, 0
8, 30720, Note_on_c, 7, 43, 64
8, 31190, Note_on_c, 7, 43, 0
8, 31680, Note_on_c, 7, 48, 64
8, 32156, Note_on_c, 7, 48, 0
8, 37440, Note_on_c, 7, 48, 64
8, 38274, Note_on_c, 7, 48, 0
8, 38880, Note_on_c, 7, 48, 64
8, 39040, Note_on_c, 7, 48, 0
8, 39360, Note_on_c, 7, 43, 64
8, 39510, Note_on_c, 7, 43, 0
8, 39840, Note_on_c, 7, 43, 64
8, 39972, Note_on_c, 7, 43, 0
8, 40320, Note_on_c, 7, 48, 64
8, 40572, Note_on_c, 7, 48, 0
8, 41760, Note_on_c, 7, 48, 64
8, 41956, Note_on_c, 7, 48, 0
8, 42240, Note_on_c, 7, 43, 64
8, 42374, Note_on_c, 7, 43, 0
8, 42720, Note_on_c, 7, 43, 64
8, 42834, Note_on_c, 7, 43, 0
8, 43200, Note_on_c, 7, 48, 64
8, 43356, Note_on_c, 7, 48, 0
8, 44160, Note_on_c, 7, 48, 108
8, 44208, Note_on_c, 7, 48, 0
8, 44220, Note_on_c, 7, 48, 106
8, 44268, Note_on_c, 7, 48, 0
8, 44280, Note_on_c, 7, 48, 104
8, 44328, Note_on_c, 7, 48, 0
8, 44340, Note_on_c, 7, 48, 102
8, 44388, Note_on_c, 7, 48, 0
8, 44400, Note_on_c, 7, 48, 99
8, 44448, Note_on_c, 7, 48, 0
8, 44460, Note_on_c, 7, 48, 97
8, 44508, Note_on_c, 7, 48, 0
8, 44520, Note_on_c, 7, 48, 95
8, 44568, Note_on_c, 7, 48, 0
8, 44580, Note_on_c, 7, 48, 93
8, 44628, Note_on_c, 7, 48, 0
8, 44640, Note_on_c, 7, 48, 91
8, 44688, Note_on_c, 7, 48, 0
8, 44700, Note_on_c, 7, 48, 89
8, 44748, Note_on_c, 7, 48, 0
8, 44760, Note_on_c, 7, 48, 87
8, 44808, Note_on_c, 7, 48, 0
8, 44820, Note_on_c, 7, 48, 85
8, 44868, Note_on_c, 7, 48, 0
8, 44880, Note_on_c, 7, 48, 82
8, 44928, Note_on_c, 7, 48, 0
8, 44940, Note_on_c, 7, 48, 80
8, 44940, Note_on_c, 7, 48, 80
8, 44940, Note_on_c, 7, 48, 80
8, 44988, Note_on_c, 7, 48, 0
8, 44988, Note_on_c, 7, 48, 0
8, 44988, Note_on_c, 7, 48, 0
8, 45000, Note_on_c, 7, 48, 78
8, 45048, Note_on_c, 7, 48, 0
8, 45060, Note_on_c, 7, 48, 76
8, 45108, Note_on_c, 7, 48, 0
8, 45120, Note_on_c, 7, 48, 94
8, 45168, Note_on_c, 7, 48, 0
8, 45180, Note_on_c, 7, 48, 72
8, 45228, Note_on_c, 7, 48, 0
8, 45240, Note_on_c, 7, 48, 70
8, 45288, Note_on_c, 7, 48, 0
8, 45300, Note_on_c, 7, 48, 68
8, 45348, Note_on_c, 7, 48, 0
8, 45360, Note_on_c, 7, 48, 65
8, 45360, Note_on_c, 7, 48, 65
8, 45360, Note_on_c, 7, 48, 65
8, 45360, Note_on_c, 7, 48, 65
8, 45408, Note_on_c, 7, 48, 0
8, 45408, Note_on_c, 7, 48, 0
8, 45408, Note_on_c, 7, 48, 0
8, 45408, Note_on_c, 7, 48, 0
8, 45420, Note_on_c, 7, 48, 63
8, 45468, Note_on_c, 7, 48, 0
8, 45480, Note_on_c, 7, 48, 61
8, 45528, Note_on_c, 7, 48, 0
8, 45540, Note_on_c, 7, 48, 59
8, 45588, Note_on_c, 7, 48, 0
8, 45600, Note_on_c, 7, 48, 57
8, 45648, Note_on_c, 7, 48, 0
8, 45660, Note_on_c, 7, 48, 55
8, 45708, Note_on_c, 7, 48, 0
8, 45720, Note_on_c, 7, 48, 53
8, 45768, Note_on_c, 7, 48, 0
8, 45780, Note_on_c, 7, 48, 51
8, 45828, Note_on_c, 7, 48, 0
8, 45840, Note_on_c, 7, 48, 48
8, 45888, Note_on_c, 7, 48, 0
8, 45900, Note_on_c, 7, 48, 46
8, 45948, Note_on_c, 7, 48, 0
8, 45960, Note_on_c, 7, 48, 44
8, 45960, Note_on_c, 7, 48, 44
8, 46008, Note_on_c, 7, 48, 0
8, 46008, Note_on_c, 7, 48, 0
8, 46020, Note_on_c, 7, 48, 42
8, 46068, Note_on_c, 7, 48, 0
8, 46080, Note_on_c, 7, 43, 64
8, 46192, Note_on_c, 7, 43, 0
8, 47520, Note_on_c, 7, 43, 64
8, 47642, Note_on_c, 7, 43, 0
8, 48000, Note_on_c, 7, 43, 64
8, 48112, Note_on_c, 7, 43, 0
8, 48480, Note_on_c, 7, 43, 64
8, 48592, Note_on_c, 7, 43, 0
8, 48960, Note_on_c, 7, 48, 60
8, 49186, Note_on_c, 7, 48, 0
8, 60480, Note_on_c, 7, 48, 64
8, 60574, Note_on_c, 7, 48, 0
8, 61440, Note_on_c, 7, 48, 64
8, 61536, Note_on_c, 7, 48, 0
8, 62400, Note_on_c, 7, 48, 64
8, 62496, Note_on_c, 7, 48, 0
8, 62880, Note_on_c, 7, 48, 64
8, 62976, Note_on_c, 7, 48, 0
8, 63360, Note_on_c, 7, 48, 64
8, 63440, Note_on_c, 7, 48, 0
8, 64320, Note_on_c, 7, 48, 64
8, 64412, Note_on_c, 7, 48, 0
8, 65280, Note_on_c, 7, 48, 64
8, 65374, Note_on_c, 7, 48, 0
8, 66240, Note_on_c, 7, 43, 64
8, 66330, Note_on_c, 7, 43, 0
8, 66720, Note_on_c, 7, 43, 64
8, 66810, Note_on_c, 7, 43, 0
8, 67200, Note_on_c, 7, 43, 64
8, 67286, Note_on_c, 7, 43, 0
8, 68160, Note_on_c, 7, 48, 64
8, 68244, Note_on_c, 7, 48, 0
8, 69120, Note_on_c, 7, 48, 64
8, 69216, Note_on_c, 7, 48, 0
8, 70080, Note_on_c, 7, 48, 64
8, 70180, Note_on_c, 7, 48, 0
8, 71040, Note_on_c, 7, 48, 64
8, 71132, Note_on_c, 7, 48, 0
8, 72000, Note_on_c, 7, 43, 64
8, 72084, Note_on_c, 7, 43, 0
8, 72960, Note_on_c, 7, 43, 64
8, 73050, Note_on_c, 7, 43, 0
8, 73920, Note_on_c, 7, 43, 64
8, 74004, Note_on_c, 7, 43, 0
8, 74880, Note_on_c, 7, 43, 64
8, 74970, Note_on_c, 7, 43, 0
8, 75840, Note_on_c, 7, 43, 64
8, 75924, Note_on_c, 7, 43, 0
8, 76800, Note_on_c, 7, 43, 64
8, 76896, Note_on_c, 7, 43, 0
8, 77760, Note_on_c, 7, 43, 64
8, 77846, Note_on_c, 7, 43, 0
8, 78240, Note_on_c, 7, 43, 64
8, 78324, Note_on_c, 7, 43, 0
8, 78720, Note_on_c, 7, 43, 64
8, 78806, Note_on_c, 7, 43, 0
8, 110400, Note_on_c, 7, 43, 64
8, 110472, Note_on_c, 7, 43, 0
8, 110520, Note_on_c, 7, 43, 64
8, 110596, Note_on_c, 7, 43, 0
8, 110640, Note_on_c, 7, 43, 64
8, 110712, Note_on_c, 7, 43, 0
8, 110760, Note_on_c, 7, 43, 64
8, 110836, Note_on_c, 7, 43, 0
8, 110880, Note_on_c, 7, 43, 64
8, 110960, Note_on_c, 7, 43, 0
8, 111000, Note_on_c, 7, 43, 64
8, 111074, Note_on_c, 7, 43, 0
8, 111120, Note_on_c, 7, 43, 64
8, 111194, Note_on_c, 7, 43, 0
8, 111240, Note_on_c, 7, 43, 64
8, 111316, Note_on_c, 7, 43, 0
8, 111360, Note_on_c, 7, 43, 64
8, 111436, Note_on_c, 7, 43, 0
8, 111480, Note_on_c, 7, 43, 64
8, 111556, Note_on_c, 7, 43, 0
8, 111600, Note_on_c, 7, 43, 64
8, 111676, Note_on_c, 7, 43, 0
8, 111720, Note_on_c, 7, 43, 64
8, 111790, Note_on_c, 7, 43, 0
8, 111840, Note_on_c, 7, 43, 64
8, 111904, Note_on_c, 7, 43, 0
8, 111960, Note_on_c, 7, 43, 64
8, 112030, Note_on_c, 7, 43, 0
8, 112080, Note_on_c, 7, 43, 64
8, 112150, Note_on_c, 7, 43, 0
8, 112200, Note_on_c, 7, 43, 64
8, 112346, Note_on_c, 7, 43, 0
8, 112440, Note_on_c, 7, 48, 64
8, 112546, Note_on_c, 7, 48, 0
8, 135360, Note_on_c, 7, 43, 64
8, 135474, Note_on_c, 7, 43, 0
8, 137280, Note_on_c, 7, 43, 64
8, 137396, Note_on_c, 7, 43, 0
8, 139200, Note_on_c, 7, 48, 64
8, 139296, Note_on_c, 7, 48, 0
8, 168120, Note_on_c, 7, 48, 64
8, 168206, Note_on_c, 7, 48, 0
8, 168960, Note_on_c, 7, 48, 64
8, 169036, Note_on_c, 7, 48, 0
8, 169920, Note_on_c, 7, 48, 64
8, 170000, Note_on_c, 7, 48, 0
8, 170400, Note_on_c, 7, 48, 64
8, 170466, Note_on_c, 7, 48, 0
8, 170880, Note_on_c, 7, 48, 64
8, 170946, Note_on_c, 7, 48, 0
8, 185280, Note_on_c, 7, 43, 100
8, 185374, Note_on_c, 7, 43, 0
8, 186240, Note_on_c, 7, 43, 110
8, 186336, Note_on_c, 7, 43, 0
8, 187200, Note_on_c, 7, 43, 64
8, 187292, Note_on_c, 7, 43, 0
8, 187440, Note_on_c, 7, 48, 64
8, 187552, Note_on_c, 7, 48, 0
8, 187680, Note_on_c, 7, 43, 64
8, 187780, Note_on_c, 7, 43, 0
8, 187920, Note_on_c, 7, 48, 64
8, 188022, Note_on_c, 7, 48, 0
8, 188160, Note_on_c, 7, 43, 64
8, 188254, Note_on_c, 7, 43, 0
8, 188400, Note_on_c, 7, 48, 64
8, 188502, Note_on_c, 7, 48, 0
8, 188640, Note_on_c, 7, 43, 64
8, 188726, Note_on_c, 7, 43, 0
8, 188880, Note_on_c, 7, 48, 64
8, 188974, Note_on_c, 7, 48, 0
8, 189120, Note_on_c, 7, 43, 64
8, 189214, Note_on_c, 7, 43, 0
8, 189600, Note_on_c, 7, 43, 64
8, 189692, Note_on_c, 7, 43, 0
8, 190080, Note_on_c, 7, 43, 64
8, 190166, Note_on_c, 7, 43, 0
8, 221760, Note_on_c, 7, 48, 64
8, 221830, Note_on_c, 7, 48, 0
8, 221880, Note_on_c, 7, 48, 64
8, 221960, Note_on_c, 7, 48, 0
8, 222000, Note_on_c, 7, 48, 64
8, 222072, Note_on_c, 7, 48, 0
8, 222120, Note_on_c, 7, 48, 64
8, 222192, Note_on_c, 7, 48, 0
8, 222240, Note_on_c, 7, 48, 64
8, 222316, Note_on_c, 7, 48, 0
8, 222360, Note_on_c, 7, 48, 64
8, 222426, Note_on_c, 7, 48, 0
8, 222480, Note_on_c, 7, 48, 64
8, 222560, Note_on_c, 7, 48, 0
8, 222600, Note_on_c, 7, 48, 64
8, 222664, Note_on_c, 7, 48, 0
8, 222720, Note_on_c, 7, 48, 64
8, 222792, Note_on_c, 7, 48, 0
8, 222840, Note_on_c, 7, 48, 64
8, 222904, Note_on_c, 7, 48, 0
8, 222960, Note_on_c, 7, 48, 64
8, 223044, Note_on_c, 7, 48, 0
8, 223080, Note_on_c, 7, 48, 64
8, 223144, Note_on_c, 7, 48, 0
8, 223200, Note_on_c, 7, 48, 64
8, 223266, Note_on_c, 7, 48, 0
8, 223320, Note_on_c, 7, 48, 64
8, 223400, Note_on_c, 7, 48, 0
8, 223440, Note_on_c, 7, 48, 64
8, 223512, Note_on_c, 7, 48, 0
8, 223560, Note_on_c, 7, 48, 64
8, 223644, Note_on_c, 7, 48, 0
8, 223680, Note_on_c, 7, 48, 64
8, 223740, Note_on_c, 7, 48, 0
8, 230160, Note_on_c, 7, 43, 64
8, 230244, Note_on_c, 7, 43, 0
8, 230400, Note_on_c, 7, 48, 64
8, 230496, Note_on_c, 7, 48, 0
8, 240960, Note_on_c, 7, 48, 64
8, 241054, Note_on_c, 7, 48, 0
8, 242880, Note_on_c, 7, 48, 64
8, 242980, Note_on_c, 7, 48, 0
8, 245880, Note_on_c, 7, 43, 64
8, 245962, Note_on_c, 7, 43, 0
8, 246000, Note_on_c, 7, 43, 64
8, 246092, Note_on_c, 7, 43, 0
8, 246120, Note_on_c, 7, 43, 64
8, 246204, Note_on_c, 7, 43, 0
8, 246240, Note_on_c, 7, 43, 64
8, 246314, Note_on_c, 7, 43, 0
8, 246360, Note_on_c, 7, 43, 64
8, 246442, Note_on_c, 7, 43, 0
8, 246480, Note_on_c, 7, 43, 64
8, 246570, Note_on_c, 7, 43, 0
8, 246600, Note_on_c, 7, 43, 64
8, 246674, Note_on_c, 7, 43, 0
8, 246720, Note_on_c, 7, 48, 64
8, 246820, Note_on_c, 7, 48, 0
8, 248640, Note_on_c, 7, 48, 64
8, 248734, Note_on_c, 7, 48, 0
8, 249600, Note_on_c, 7, 48, 64
8, 249686, Note_on_c, 7, 48, 0
8, 250560, Note_on_c, 7, 48, 64
8, 250656, Note_on_c, 7, 48, 0
8, 251040, Note_on_c, 7, 48, 64
8, 251122, Note_on_c, 7, 48, 0
8, 251520, Note_on_c, 7, 43, 64
8, 251622, Note_on_c, 7, 43, 0
8, 251640, Note_on_c, 7, 43, 64
8, 251716, Note_on_c, 7, 43, 0
8, 251760, Note_on_c, 7, 43, 64
8, 251840, Note_on_c, 7, 43, 0
8, 251880, Note_on_c, 7, 43, 64
8, 251956, Note_on_c, 7, 43, 0
8, 252000, Note_on_c, 7, 43, 64
8, 252096, Note_on_c, 7, 43, 0
8, 252120, Note_on_c, 7, 43, 64
8, 252210, Note_on_c, 7, 43, 0
8, 252240, Note_on_c, 7, 43, 64
8, 252334, Note_on_c, 7, 43, 0
8, 252360, Note_on_c, 7, 43, 64
8, 252434, Note_on_c, 7, 43, 0
8, 252480, Note_on_c, 7, 48, 64
8, 252564, Note_on_c, 7, 48, 0
8, 270240, Note_on_c, 7, 48, 96
8, 270310, Note_on_c, 7, 48, 0
8, 270360, Note_on_c, 7, 48, 96
8, 270430, Note_on_c, 7, 48, 0
8, 270480, Note_on_c, 7, 48, 96
8, 270550, Note_on_c, 7, 48, 0
8, 270600, Note_on_c, 7, 48, 96
8, 270664, Note_on_c, 7, 48, 0
8, 270720, Note_on_c, 7, 48, 96
8, 270782, Note_on_c, 7, 48, 0
8, 270840, Note_on_c, 7, 48, 96
8, 270910, Note_on_c, 7, 48, 0
8, 270960, Note_on_c, 7, 48, 96
8, 271042, Note_on_c, 7, 48, 0
8, 271200, Note_on_c, 7, 48, 96
8, 271292, Note_on_c, 7, 48, 0
8, 271440, Note_on_c, 7, 48, 96
8, 271516, Note_on_c, 7, 48, 0
8, 271680, Note_on_c, 7, 48, 96
8, 271754, Note_on_c, 7, 48, 0
8, 271800, Note_on_c, 7, 48, 96
8, 271866, Note_on_c, 7, 48, 0
8, 271920, Note_on_c, 7, 48, 96
8, 271982, Note_on_c, 7, 48, 0
8, 272040, Note_on_c, 7, 48, 96
8, 272106, Note_on_c, 7, 48, 0
8, 272160, Note_on_c, 7, 48, 96
8, 272230, Note_on_c, 7, 48, 0
8, 272280, Note_on_c, 7, 48, 96
8, 272346, Note_on_c, 7, 48, 0
8, 272400, Note_on_c, 7, 48, 96
8, 272470, Note_on_c, 7, 48, 0
8, 272520, Note_on_c, 7, 48, 96
8, 272584, Note_on_c, 7, 48, 0
8, 272640, Note_on_c, 7, 48, 96
8, 272714, Note_on_c, 7, 48, 0
8, 272760, Note_on_c, 7, 48, 96
8, 272830, Note_on_c, 7, 48, 0
8, 272880, Note_on_c, 7, 48, 96
8, 272950, Note_on_c, 7, 48, 0
8, 273000, Note_on_c, 7, 48, 96
8, 273062, Note_on_c, 7, 48, 0
8, 273120, Note_on_c, 7, 48, 96
8, 273194, Note_on_c, 7, 48, 0
8, 273240, Note_on_c, 7, 48, 96
8, 273310, Note_on_c, 7, 48, 0
8, 273360, Note_on_c, 7, 48, 96
8, 273426, Note_on_c, 7, 48, 0
8, 273480, Note_on_c, 7, 48, 96
8, 273542, Note_on_c, 7, 48, 0
8, 273600, Note_on_c, 7, 48, 96
8, 273660, Note_on_c, 7, 48, 0
8, 273720, Note_on_c, 7, 48, 96
8, 273790, Note_on_c, 7, 48, 0
8, 273840, Note_on_c, 7, 48, 96
8, 273906, Note_on_c, 7, 48, 0
8, 273960, Note_on_c, 7, 48, 96
8, 274034, Note_on_c, 7, 48, 0
8, 274080, Note_on_c, 7, 48, 96
8, 274156, Note_on_c, 7, 48, 0
8, 274200, Note_on_c, 7, 48, 96
8, 274274, Note_on_c, 7, 48, 0
8, 274320, Note_on_c, 7, 48, 96
8, 274390, Note_on_c, 7, 48, 0
8, 274440, Note_on_c, 7, 48, 96
8, 274510, Note_on_c, 7, 48, 0
8, 274560, Note_on_c, 7, 43, 96
8, 274630, Note_on_c, 7, 43, 0
8, 274680, Note_on_c, 7, 43, 96
8, 274744, Note_on_c, 7, 43, 0
8, 274800, Note_on_c, 7, 43, 96
8, 274864, Note_on_c, 7, 43, 0
8, 274920, Note_on_c, 7, 43, 96
8, 274974, Note_on_c, 7, 43, 0
8, 275040, Note_on_c, 7, 43, 96
8, 275100, Note_on_c, 7, 43, 0
8, 275160, Note_on_c, 7, 43, 96
8, 275220, Note_on_c, 7, 43, 0
8, 275280, Note_on_c, 7, 43, 96
8, 275346, Note_on_c, 7, 43, 0
8, 275400, Note_on_c, 7, 43, 96
8, 275490, Note_on_c, 7, 43, 0
8, 275520, Note_on_c, 7, 48, 64
8, 275614, Note_on_c, 7, 48, 0
8, 276000, Note_on_c, 7, 48, 64
8, 276112, Note_on_c, 7, 48, 0
8, 278880, Note_on_c, 7, 43, 64
8, 278994, Note_on_c, 7, 43, 0
8, 279840, Note_on_c, 7, 48, 64
8, 280290, Note_on_c, 7, 48, 0
8, 282720, Note_on_c, 7, 43, 64
8, 282846, Note_on_c, 7, 43, 0
8, 283200, Note_on_c, 7, 48, 64
8, 283324, Note_on_c, 7, 48, 0
8, 284640, Note_on_c, 7, 43, 64
8, 284776, Note_on_c, 7, 43, 0
8, 285120, Note_on_c, 7, 48, 64
8, 285200, Note_on_c, 7, 48, 0
8, 285240, Note_on_c, 7, 48, 64
8, 285304, Note_on_c, 7, 48, 0
8, 285360, Note_on_c, 7, 48, 64
8, 285422, Note_on_c, 7, 48, 0
8, 285480, Note_on_c, 7, 48, 64
8, 285540, Note_on_c, 7, 48, 0
8, 286560, Note_on_c, 7, 43, 64
8, 286624, Note_on_c, 7, 43, 0
8, 286680, Note_on_c, 7, 43, 64
8, 286744, Note_on_c, 7, 43, 0
8, 286800, Note_on_c, 7, 43, 64
8, 286864, Note_on_c, 7, 43, 0
8, 286920, Note_on_c, 7, 43, 64
8, 287000, Note_on_c, 7, 43, 0
8, 287040, Note_on_c, 7, 48, 64
8, 287140, Note_on_c, 7, 48, 0
8, 287520, Note_on_c, 7, 48, 64
8, 287582, Note_on_c, 7, 48, 0
8, 287640, Note_on_c, 7, 48, 64
8, 287700, Note_on_c, 7, 48, 0
8, 287760, Note_on_c, 7, 48, 64
8, 287830, Note_on_c, 7, 48, 0
8, 287880, Note_on_c, 7, 48, 64
8, 287952, Note_on_c, 7, 48, 0
8, 288000, Note_on_c, 7, 48, 64
8, 288090, Note_on_c, 7, 48, 0
8, 288240, Note_on_c, 7, 48, 64
8, 288320, Note_on_c, 7, 48, 0
8, 288480, Note_on_c, 7, 48, 64
8, 288572, Note_on_c, 7, 48, 0
8, 288720, Note_on_c, 7, 48, 64
8, 288810, Note_on_c, 7, 48, 0
8, 288960, Note_on_c, 7, 48, 64
8, 289054, Note_on_c, 7, 48, 0
8, 289440, Note_on_c, 7, 48, 64
8, 289510, Note_on_c, 7, 48, 0
8, 289560, Note_on_c, 7, 48, 64
8, 289634, Note_on_c, 7, 48, 0
8, 289680, Note_on_c, 7, 48, 64
8, 289754, Note_on_c, 7, 48, 0
8, 289800, Note_on_c, 7, 48, 64
8, 289872, Note_on_c, 7, 48, 0
8, 289920, Note_on_c, 7, 48, 64
8, 290002, Note_on_c, 7, 48, 0
8, 290160, Note_on_c, 7, 48, 64
8, 290242, Note_on_c, 7, 48, 0
8, 290400, Note_on_c, 7, 48, 64
8, 290480, Note_on_c, 7, 48, 0
8, 290640, Note_on_c, 7, 48, 64
8, 290730, Note_on_c, 7, 48, 0
8, 290880, Note_on_c, 7, 48, 64
8, 290964, Note_on_c, 7, 48, 0
8, 291360, Note_on_c, 7, 48, 64
8, 291432, Note_on_c, 7, 48, 0
8, 291480, Note_on_c, 7, 48, 64
8, 291554, Note_on_c, 7, 48, 0
8, 291600, Note_on_c, 7, 48, 64
8, 291672, Note_on_c, 7, 48, 0
8, 291720, Note_on_c, 7, 48, 64
8, 291794, Note_on_c, 7, 48, 0
8, 291840, Note_on_c, 7, 48, 64
8, 291924, Note_on_c, 7, 48, 0
8, 292080, Note_on_c, 7, 48, 64
8, 292160, Note_on_c, 7, 48, 0
8, 292320, Note_on_c, 7, 48, 64
8, 292390, Note_on_c, 7, 48, 0
8, 292560, Note_on_c, 7, 48, 64
8, 292626, Note_on_c, 7, 48, 0
8, 292800, Note_on_c, 7, 48, 64
8, 292894, Note_on_c, 7, 48, 0
8, 292920, Note_on_c, 7, 48, 64
8, 292992, Note_on_c, 7, 48, 0
8, 293040, Note_on_c, 7, 48, 64
8, 293096, Note_on_c, 7, 48, 0
8, 293160, Note_on_c, 7, 48, 64
8, 293236, Note_on_c, 7, 48, 0
8, 293280, Note_on_c, 7, 48, 64
8, 293374, Note_on_c, 7, 48, 0
8, 293400, Note_on_c, 7, 48, 64
8, 293480, Note_on_c, 7, 48, 0
8, 293520, Note_on_c, 7, 48, 64
8, 293594, Note_on_c, 7, 48, 0
8, 293640, Note_on_c, 7, 48, 64
8, 293704, Note_on_c, 7, 48, 0
8, 293760, Note_on_c, 7, 48, 64
8, 293860, Note_on_c, 7, 48, 0
8, 293880, Note_on_c, 7, 48, 64
8, 293944, Note_on_c, 7, 48, 0
8, 294000, Note_on_c, 7, 48, 64
8, 294080, Note_on_c, 7, 48, 0
8, 294120, Note_on_c, 7, 48, 64
8, 294190, Note_on_c, 7, 48, 0
8, 294240, Note_on_c, 7, 48, 64
8, 294326, Note_on_c, 7, 48, 0
8, 294360, Note_on_c, 7, 48, 64
8, 294430, Note_on_c, 7, 48, 0
8, 294480, Note_on_c, 7, 48, 64
8, 294556, Note_on_c, 7, 48, 0
8, 294600, Note_on_c, 7, 48, 64
8, 294674, Note_on_c, 7, 48, 0
8, 294720, Note_on_c, 7, 48, 64
8, 294812, Note_on_c, 7, 48, 0
8, 294840, Note_on_c, 7, 48, 64
8, 294910, Note_on_c, 7, 48, 0
8, 294960, Note_on_c, 7, 48, 64
8, 295042, Note_on_c, 7, 48, 0
8, 295080, Note_on_c, 7, 48, 64
8, 295156, Note_on_c, 7, 48, 0
8, 295200, Note_on_c, 7, 48, 64
8, 295286, Note_on_c, 7, 48, 0
8, 295320, Note_on_c, 7, 48, 64
8, 295390, Note_on_c, 7, 48, 0
8, 295440, Note_on_c, 7, 48, 64
8, 295520, Note_on_c, 7, 48, 0
8, 295560, Note_on_c, 7, 48, 64
8, 295630, Note_on_c, 7, 48, 0
8, 295680, Note_on_c, 7, 48, 64
8, 295772, Note_on_c, 7, 48, 0
8, 295800, Note_on_c, 7, 48, 64
8, 295872, Note_on_c, 7, 48, 0
8, 295920, Note_on_c, 7, 48, 64
8, 295992, Note_on_c, 7, 48, 0
8, 296040, Note_on_c, 7, 48, 64
8, 296114, Note_on_c, 7, 48, 0
8, 296160, Note_on_c, 7, 48, 64
8, 296226, Note_on_c, 7, 48, 0
8, 296280, Note_on_c, 7, 48, 64
8, 296356, Note_on_c, 7, 48, 0
8, 296400, Note_on_c, 7, 48, 64
8, 296480, Note_on_c, 7, 48, 0
8, 296520, Note_on_c, 7, 48, 64
8, 296584, Note_on_c, 7, 48, 0
8, 296640, Note_on_c, 7, 48, 64
8, 296832, Note_on_c, 7, 48, 0
8, 297120, Note_on_c, 7, 48, 64
8, 297312, Note_on_c, 7, 48, 0
8, 298080, Note_on_c, 7, 48, 64
8, 298272, Note_on_c, 7, 48, 0
8, 299040, Note_on_c, 7, 48, 64
8, 299232, Note_on_c, 7, 48, 0
8, 300000, Note_on_c, 7, 48, 64
8, 300192, Note_on_c, 7, 48, 0
8, 300480, Note_on_c, 7, 48, 64
8, 300672, Note_on_c, 7, 48, 0
8, 301440, Note_on_c, 7, 48, 64
8, 301632, Note_on_c, 7, 48, 0
8, 302400, Note_on_c, 7, 48, 64
8, 302520, Note_on_c, 7, 48, 0
8, 303360, Note_on_c, 7, 48, 127
8, 303480, Note_on_c, 7, 48, 0
8, 303840, Note_on_c, 7, 48, 127
8, 303960, Note_on_c, 7, 48, 0
8, 304320, Note_on_c, 7, 48, 127
8, 304440, Note_on_c, 7, 48, 0
8, 304440, End_track
9, 0, Start_track
9, 0, Title_t, "Violin 1"
9, 0, Program_c, 4, 48
9, 0, Control_c, 4, 7, 100
9, 0, Control_c, 4, 10, 38
9, 0, Control_c, 4, 10, 35
9, 960, Note_on_c, 4, 60, 127
9, 960, Note_on_c, 4, 64, 127
9, 1114, Note_on_c, 4, 60, 0
9, 1140, Note_on_c, 4, 64, 0
9, 3840, Note_on_c, 4, 65, 127
9, 3840, Note_on_c, 4, 60, 127
9, 4036, Note_on_c, 4, 60, 0
9, 4056, Note_on_c, 4, 65, 0
9, 6720, Note_on_c, 4, 60, 127
9, 6720, Note_on_c, 4, 66, 127
9, 6880, Note_on_c, 4, 60, 0
9, 6886, Note_on_c, 4, 66, 0
9, 7680, Note_on_c, 4, 72, 127
9, 7680, Note_on_c, 4, 60, 127
9, 7856, Note_on_c, 4, 60, 0
9, 7894, Note_on_c, 4, 72, 0
9, 8640, Note_on_c, 4, 72, 127
9, 8640, Note_on_c, 4, 60, 127
9, 8790, Note_on_c, 4, 60, 0
9, 8824, Note_on_c, 4, 72, 0
9, 9600, Note_on_c, 4, 59, 127
9, 9600, Note_on_c, 4, 71, 127
9, 9724, Note_on_c, 4, 59, 0
9, 9762, Note_on_c, 4, 71, 0
9, 10440, Note_on_c, 4, 55, 127
9, 10554, Note_on_c, 4, 55, 0
9, 10560, Note_on_c, 4, 55, 127
9, 12840, Note_on_c, 4, 55, 0
9, 14400, Control_c, 4, 7, 60
9, 14400, Note_on_c, 4, 55, 80
9, 14400, Note_on_c, 4, 67, 80
9, 16058, Note_on_c, 4, 67, 0
9, 16058, Note_on_c, 4, 55, 0
9, 16320, Note_on_c, 4, 67, 80
9, 16320, Note_on_c, 4, 55, 80
9, 17149, Note_on_c, 4, 55, 0
9, 17149, Note_on_c, 4, 67, 0
9, 17280, Control_c, 4, 7, 60
9, 17280, Note_on_c, 4, 67, 80
9, 17280, Note_on_c, 4, 55, 80
9, 18938, Note_on_c, 4, 55, 0
9, 18938, Note_on_c, 4, 67, 0
9, 19200, Note_on_c, 4, 67, 80
9, 19200, Note_on_c, 4, 55, 80
9, 20029, Note_on_c, 4, 55, 0
9, 20029, Note_on_c, 4, 67, 0
9, 20160, Control_c, 4, 7, 60
9, 20160, Note_on_c, 4, 55, 80
9, 20160, Note_on_c, 4, 67, 80
9, 21818, Note_on_c, 4, 67, 0
9, 21818, Note_on_c, 4, 55, 0
9, 22080, Note_on_c, 4, 67, 80
9, 22080, Note_on_c, 4, 55, 80
9, 22909, Note_on_c, 4, 55, 0
9, 22909, Note_on_c, 4, 67, 0
9, 23040, Note_on_c, 4, 67, 96
9, 23040, Note_on_c, 4, 55, 96
9, 24465, Note_on_c, 4, 67, 0
9, 24469, Note_on_c, 4, 55, 0
9, 24480, Note_on_c, 4, 67, 96
9, 24870, Note_on_c, 4, 67, 0
9, 24960, Note_on_c, 4, 67, 96
9, 25322, Note_on_c, 4, 67, 0
9, 25440, Note_on_c, 4, 67, 96
9, 25920, Note_on_c, 4, 55, 96
9, 25920, Note_on_c, 4, 64, 96
9, 26012, Note_on_c, 4, 67, 0
9, 26880, Note_on_c, 4, 67, 125
9, 27045, Note_on_c, 4, 64, 0
9, 28320, Note_on_c, 4, 65, 96
9, 28504, Note_on_c, 4, 67, 0
9, 28800, Note_on_c, 4, 55, 96
9, 28800, Note_on_c, 4, 64, 96
9, 28816, Note_on_c, 4, 55, 0
9, 28946, Note_on_c, 4, 65, 0
9, 29562, Note_on_c, 4, 55, 0
9, 29562, Note_on_c, 4, 64, 0
9, 29600, Note_on_c, 4, 67, 96
9, 29720, Note_on_c, 4, 67, 96
9, 29723, Note_on_c, 4, 67, 0
9, 31160, Note_on_c, 4, 65, 96
9, 31363, Note_on_c, 4, 67, 0
9, 31680, Note_on_c, 4, 64, 96
9, 31810, Note_on_c, 4, 65, 0
9, 32640, Note_on_c, 4, 69, 96
9, 32729, Note_on_c, 4, 64, 0
9, 33600, Note_on_c, 4, 67, 96
9, 33767, Note_on_c, 4, 69, 0
9, 33840, Note_on_c, 4, 65, 96
9, 33926, Note_on_c, 4, 67, 0
9, 34080, Note_on_c, 4, 64, 96
9, 34168, Note_on_c, 4, 65, 0
9, 34320, Note_on_c, 4, 62, 96
9, 34384, Note_on_c, 4, 64, 0
9, 34560, Note_on_c, 4, 60, 96
9, 34654, Note_on_c, 4, 62, 0
9, 35520, Note_on_c, 4, 59, 96
9, 35700, Note_on_c, 4, 60, 0
9, 35794, Note_on_c, 4, 59, 0
9, 36000, Note_on_c, 4, 81, 67
9, 36480, Note_on_c, 4, 79, 67
9, 36494, Note_on_c, 4, 81, 0
9, 36960, Note_on_c, 4, 77, 67
9, 37038, Note_on_c, 4, 79, 0
9, 37440, Note_on_c, 4, 76, 96
9, 37450, Note_on_c, 4, 77, 0
9, 38426, Note_on_c, 4, 76, 0
9, 38640, Note_on_c, 4, 79, 96
9, 38880, Note_on_c, 4, 78, 96
9, 38964, Note_on_c, 4, 79, 0
9, 39120, Note_on_c, 4, 79, 96
9, 39196, Note_on_c, 4, 78, 0
9, 39360, Note_on_c, 4, 78, 96
9, 39438, Note_on_c, 4, 79, 0
9, 39600, Note_on_c, 4, 79, 96
9, 39626, Note_on_c, 4, 78, 0
9, 39840, Note_on_c, 4, 81, 96
9, 39922, Note_on_c, 4, 79, 0
9, 40080, Note_on_c, 4, 83, 96
9, 40172, Note_on_c, 4, 81, 0
9, 40318, Note_on_c, 4, 83, 0
9, 40320, Note_on_c, 4, 84, 96
9, 40996, Note_on_c, 4, 84, 0
9, 41520, Note_on_c, 4, 79, 96
9, 41746, Note_on_c, 4, 79, 0
9, 41760, Note_on_c, 4, 78, 96
9, 41986, Note_on_c, 4, 78, 0
9, 42000, Note_on_c, 4, 79, 96
9, 42226, Note_on_c, 4, 79, 0
9, 42240, Note_on_c, 4, 78, 96
9, 42466, Note_on_c, 4, 78, 0
9, 42480, Note_on_c, 4, 79, 96
9, 42706, Note_on_c, 4, 79, 0
9, 42720, Note_on_c, 4, 81, 96
9, 42946, Note_on_c, 4, 81, 0
9, 42960, Note_on_c, 4, 83, 96
9, 43186, Note_on_c, 4, 83, 0
9, 43200, Note_on_c, 4, 84, 96
9, 43672, Note_on_c, 4, 84, 0
9, 44160, Note_on_c, 4, 69, 96
9, 44160, Note_on_c, 4, 81, 96
9, 44172, Control_c, 4, 7, 80
9, 44682, Control_c, 4, 7, 75
9, 45132, Control_c, 4, 7, 70
9, 45612, Control_c, 4, 7, 65
9, 46080, Note_on_c, 4, 81, 0
9, 46080, Note_on_c, 4, 69, 0
9, 46080, Note_on_c, 4, 64, 67
9, 46110, Control_c, 4, 7, 60
9, 46730, Note_on_c, 4, 64, 0
9, 47040, Note_on_c, 4, 64, 67
9, 48000, Note_on_c, 4, 65, 67
9, 48066, Note_on_c, 4, 64, 0
9, 48782, Note_on_c, 4, 65, 0
9, 48960, Note_on_c, 4, 60, 100
9, 49032, Note_on_c, 4, 60, 0
9, 49080, Note_on_c, 4, 55, 100
9, 49152, Note_on_c, 4, 55, 0
9, 49200, Note_on_c, 4, 57, 100
9, 49272, Note_on_c, 4, 57, 0
9, 49320, Note_on_c, 4, 59, 100
9, 49392, Note_on_c, 4, 59, 0
9, 49440, Note_on_c, 4, 60, 100
9, 49512, Note_on_c, 4, 60, 0
9, 49560, Control_c, 4, 7, 80
9, 49560, Note_on_c, 4, 62, 100
9, 49632, Note_on_c, 4, 62, 0
9, 49680, Note_on_c, 4, 64, 100
9, 49752, Note_on_c, 4, 64, 0
9, 49800, Note_on_c, 4, 62, 100
9, 49872, Note_on_c, 4, 62, 0
9, 49920, Note_on_c, 4, 60, 100
9, 49992, Note_on_c, 4, 60, 0
9, 50040, Note_on_c, 4, 55, 100
9, 50112, Note_on_c, 4, 55, 0
9, 50160, Note_on_c, 4, 57, 100
9, 50232, Note_on_c, 4, 57, 0
9, 50280, Note_on_c, 4, 59, 100
9, 50352, Note_on_c, 4, 59, 0
9, 50400, Note_on_c, 4, 60, 100
9, 50472, Note_on_c, 4, 60, 0
9, 50520, Note_on_c, 4, 62, 100
9, 50592, Note_on_c, 4, 62, 0
9, 50640, Note_on_c, 4, 64, 100
9, 50712, Note_on_c, 4, 64, 0
9, 50760, Note_on_c, 4, 62, 100
9, 50832, Note_on_c, 4, 62, 0
9, 50880, Note_on_c, 4, 60, 100
9, 50952, Note_on_c, 4, 60, 0
9, 51000, Note_on_c, 4, 55, 100
9, 51072, Note_on_c, 4, 55, 0
9, 51120, Note_on_c, 4, 57, 100
9, 51192, Note_on_c, 4, 57, 0
9, 51240, Note_on_c, 4, 59, 100
9, 51312, Note_on_c, 4, 59, 0
9, 51360, Note_on_c, 4, 60, 100
9, 51432, Note_on_c, 4, 60, 0
9, 51480, Note_on_c, 4, 62, 100
9, 51552, Note_on_c, 4, 62, 0
9, 51600, Note_on_c, 4, 64, 100
9, 51672, Note_on_c, 4, 64, 0
9, 51720, Note_on_c, 4, 65, 100
9, 51792, Note_on_c, 4, 65, 0
9, 51840, Note_on_c, 4, 67, 100
9, 51912, Note_on_c, 4, 67, 0
9, 51960, Note_on_c, 4, 66, 100
9, 52032, Note_on_c, 4, 66, 0
9, 52080, Note_on_c, 4, 69, 100
9, 52152, Note_on_c, 4, 69, 0
9, 52200, Note_on_c, 4, 67, 100
9, 52272, Note_on_c, 4, 67, 0
9, 52320, Note_on_c, 4, 65, 100
9, 52392, Note_on_c, 4, 65, 0
9, 52440, Note_on_c, 4, 64, 100
9, 52512, Note_on_c, 4, 64, 0
9, 52560, Note_on_c, 4, 62, 100
9, 52632, Note_on_c, 4, 62, 0
9, 52680, Note_on_c, 4, 60, 100
9, 52752, Note_on_c, 4, 60, 0
9, 52800, Note_on_c, 4, 62, 100
9, 52872, Note_on_c, 4, 62, 0
9, 52920, Note_on_c, 4, 57, 100
9, 52992, Note_on_c, 4, 57, 0
9, 53040, Note_on_c, 4, 59, 100
9, 53112, Note_on_c, 4, 59, 0
9, 53160, Note_on_c, 4, 61, 100
9, 53232, Note_on_c, 4, 61, 0
9, 53280, Note_on_c, 4, 62, 100
9, 53352, Note_on_c, 4, 62, 0
9, 53400, Note_on_c, 4, 64, 100
9, 53472, Note_on_c, 4, 64, 0
9, 53520, Note_on_c, 4, 65, 100
9, 53592, Note_on_c, 4, 65, 0
9, 53640, Note_on_c, 4, 64, 100
9, 53712, Note_on_c, 4, 64, 0
9, 53760, Note_on_c, 4, 62, 100
9, 53832, Note_on_c, 4, 62, 0
9, 53880, Note_on_c, 4, 57, 100
9, 53952, Note_on_c, 4, 57, 0
9, 54000, Note_on_c, 4, 59, 100
9, 54072, Note_on_c, 4, 59, 0
9, 54120, Note_on_c, 4, 61, 100
9, 54192, Note_on_c, 4, 61, 0
9, 54240, Note_on_c, 4, 62, 100
9, 54312, Note_on_c, 4, 62, 0
9, 54360, Note_on_c, 4, 64, 100
9, 54432, Note_on_c, 4, 64, 0
9, 54480, Note_on_c, 4, 65, 100
9, 54552, Note_on_c, 4, 65, 0
9, 54600, Note_on_c, 4, 64, 100
9, 54672, Note_on_c, 4, 64, 0
9, 54720, Note_on_c, 4, 62, 100
9, 54792, Note_on_c, 4, 62, 0
9, 54840, Note_on_c, 4, 62, 100
9, 54912, Note_on_c, 4, 62, 0
9, 54960, Note_on_c, 4, 64, 100
9, 55032, Note_on_c, 4, 64, 0
9, 55080, Note_on_c, 4, 65, 100
9, 55152, Note_on_c, 4, 65, 0
9, 55200, Note_on_c, 4, 67, 100
9, 55272, Note_on_c, 4, 67, 0
9, 55320, Note_on_c, 4, 69, 100
9, 55392, Note_on_c, 4, 69, 0
9, 55440, Note_on_c, 4, 71, 100
9, 55512, Note_on_c, 4, 71, 0
9, 55560, Note_on_c, 4, 72, 100
9, 55632, Note_on_c, 4, 72, 0
9, 55680, Note_on_c, 4, 74, 100
9, 55752, Note_on_c, 4, 74, 0
9, 55800, Note_on_c, 4, 76, 100
9, 55872, Note_on_c, 4, 76, 0
9, 55920, Note_on_c, 4, 74, 100
9, 55992, Note_on_c, 4, 74, 0
9, 56040, Note_on_c, 4, 72, 100
9, 56112, Note_on_c, 4, 72, 0
9, 56160, Note_on_c, 4, 71, 100
9, 56232, Note_on_c, 4, 71, 0
9, 56280, Note_on_c, 4, 69, 100
9, 56352, Note_on_c, 4, 69, 0
9, 56400, Note_on_c, 4, 67, 100
9, 56472, Note_on_c, 4, 67, 0
9, 56520, Note_on_c, 4, 65, 100
9, 56592, Note_on_c, 4, 65, 0
9, 56640, Note_on_c, 4, 64, 96
9, 56640, Note_on_c, 4, 55, 96
9, 56724, Note_on_c, 4, 64, 0
9, 56730, Note_on_c, 4, 55, 0
9, 56760, Note_on_c, 4, 76, 96
9, 56844, Note_on_c, 4, 76, 0
9, 56880, Note_on_c, 4, 60, 96
9, 56880, Note_on_c, 4, 74, 96
9, 56964, Note_on_c, 4, 74, 0
9, 57000, Note_on_c, 4, 72, 96
9, 57084, Note_on_c, 4, 72, 0
9, 57120, Note_on_c, 4, 71, 96
9, 57204, Note_on_c, 4, 71, 0
9, 57240, Note_on_c, 4, 69, 96
9, 57302, Note_on_c, 4, 60, 0
9, 57324, Note_on_c, 4, 69, 0
9, 57360, Note_on_c, 4, 67, 96
9, 57360, Note_on_c, 4, 59, 96
9, 57444, Note_on_c, 4, 67, 0
9, 57450, Note_on_c, 4, 59, 0
9, 57480, Note_on_c, 4, 65, 96
9, 57564, Note_on_c, 4, 65, 0
9, 57600, Note_on_c, 4, 60, 96
9, 57600, Note_on_c, 4, 64, 96
9, 57680, Note_on_c, 4, 60, 0
9, 57684, Note_on_c, 4, 64, 0
9, 57720, Note_on_c, 4, 76, 96
9, 57804, Note_on_c, 4, 76, 0
9, 57840, Note_on_c, 4, 74, 96
9, 57840, Note_on_c, 4, 60, 96
9, 57924, Note_on_c, 4, 74, 0
9, 57960, Note_on_c, 4, 72, 96
9, 58034, Note_on_c, 4, 60, 0
9, 58044, Note_on_c, 4, 72, 0
9, 58080, Note_on_c, 4, 71, 96
9, 58164, Note_on_c, 4, 71, 0
9, 58200, Note_on_c, 4, 69, 96
9, 58284, Note_on_c, 4, 69, 0
9, 58320, Note_on_c, 4, 67, 96
9, 58320, Note_on_c, 4, 59, 96
9, 58404, Note_on_c, 4, 67, 0
9, 58414, Note_on_c, 4, 59, 0
9, 58440, Note_on_c, 4, 65, 96
9, 58524, Note_on_c, 4, 65, 0
9, 58560, Note_on_c, 4, 60, 96
9, 58560, Note_on_c, 4, 64, 96
9, 58634, Note_on_c, 4, 60, 0
9, 58644, Note_on_c, 4, 64, 0
9, 58680, Note_on_c, 4, 65, 96
9, 58764, Note_on_c, 4, 65, 0
9, 58800, Note_on_c, 4, 67, 96
9, 58800, Note_on_c, 4, 59, 96
9, 58884, Note_on_c, 4, 59, 0
9, 58884, Note_on_c, 4, 67, 0
9, 58920, Note_on_c, 4, 64, 96
9, 59004, Note_on_c, 4, 64, 0
9, 59040, Note_on_c, 4, 57, 96
9, 59040, Note_on_c, 4, 66, 96
9, 59120, Note_on_c, 4, 57, 0
9, 59124, Note_on_c, 4, 66, 0
9, 59160, Note_on_c, 4, 67, 96
9, 59244, Note_on_c, 4, 67, 0
9, 59280, Note_on_c, 4, 62, 96
9, 59280, Note_on_c, 4, 69, 96
9, 59360, Note_on_c, 4, 62, 0
9, 59364, Note_on_c, 4, 69, 0
9, 59400, Note_on_c, 4, 66, 96
9, 59484, Note_on_c, 4, 66, 0
9, 59520, Note_on_c, 4, 67, 96
9, 59520, Note_on_c, 4, 55, 96
9, 59604, Note_on_c, 4, 67, 0
9, 59606, Note_on_c, 4, 55, 0
9, 59640, Note_on_c, 4, 69, 96
9, 59724, Note_on_c, 4, 69, 0
9, 59760, Note_on_c, 4, 65, 96
9, 59844, Note_on_c, 4, 65, 0
9, 59880, Note_on_c, 4, 67, 96
9, 59964, Note_on_c, 4, 67, 0
9, 60000, Note_on_c, 4, 64, 96
9, 60084, Note_on_c, 4, 64, 0
9, 60120, Note_on_c, 4, 65, 96
9, 60204, Note_on_c, 4, 65, 0
9, 60240, Note_on_c, 4, 62, 96
9, 60324, Note_on_c, 4, 62, 0
9, 60360, Note_on_c, 4, 64, 96
9, 60444, Note_on_c, 4, 64, 0
9, 60480, Control_c, 4, 7, 127
9, 60480, Note_on_c, 4, 60, 127
9, 60552, Note_on_c, 4, 60, 0
9, 60600, Note_on_c, 4, 67, 127
9, 60672, Note_on_c, 4, 67, 0
9, 60720, Note_on_c, 4, 57, 127
9, 60720, Note_on_c, 4, 69, 127
9, 60792, Note_on_c, 4, 69, 0
9, 60792, Note_on_c, 4, 57, 0
9, 60840, Note_on_c, 4, 59, 127
9, 60840, Note_on_c, 4, 71, 127
9, 60912, Note_on_c, 4, 71, 0
9, 60912, Note_on_c, 4, 59, 0
9, 60960, Note_on_c, 4, 60, 127
9, 60960, Note_on_c, 4, 72, 127
9, 61032, Note_on_c, 4, 72, 0
9, 61032, Note_on_c, 4, 60, 0
9, 61080, Control_c, 4, 7, 120
9, 61080, Note_on_c, 4, 62, 127
9, 61080, Note_on_c, 4, 74, 127
9, 61152, Note_on_c, 4, 74, 0
9, 61152, Note_on_c, 4, 62, 0
9, 61200, Note_on_c, 4, 64, 127
9, 61200, Note_on_c, 4, 76, 127
9, 61272, Note_on_c, 4, 76, 0
9, 61272, Note_on_c, 4, 64, 0
9, 61320, Note_on_c, 4, 62, 127
9, 61320, Note_on_c, 4, 74, 127
9, 61392, Note_on_c, 4, 74, 0
9, 61392, Note_on_c, 4, 62, 0
9, 61440, Note_on_c, 4, 72, 127
9, 61440, Note_on_c, 4, 60, 127
9, 61512, Note_on_c, 4, 60, 0
9, 61512, Note_on_c, 4, 72, 0
9, 61560, Note_on_c, 4, 55, 127
9, 61560, Note_on_c, 4, 67, 127
9, 61632, Note_on_c, 4, 67, 0
9, 61632, Note_on_c, 4, 55, 0
9, 61680, Note_on_c, 4, 57, 127
9, 61680, Note_on_c, 4, 69, 127
9, 61752, Note_on_c, 4, 69, 0
9, 61752, Note_on_c, 4, 57, 0
9, 61800, Note_on_c, 4, 59, 127
9, 61800, Note_on_c, 4, 71, 127
9, 61872, Note_on_c, 4, 71, 0
9, 61872, Note_on_c, 4, 59, 0
9, 61920, Note_on_c, 4, 72, 127
9, 61920, Note_on_c, 4, 60, 127
9, 61992, Note_on_c, 4, 60, 0
9, 61992, Note_on_c, 4, 72, 0
9, 62040, Note_on_c, 4, 62, 127
9, 62040, Note_on_c, 4, 74, 127
9, 62112, Note_on_c, 4, 74, 0
9, 62112, Note_on_c, 4, 62, 0
9, 62160, Note_on_c, 4, 64, 127
9, 62160, Note_on_c, 4, 76, 127
9, 62232, Note_on_c, 4, 76, 0
9, 62232, Note_on_c, 4, 64, 0
9, 62280, Note_on_c, 4, 62, 127
9, 62280, Note_on_c, 4, 74, 127
9, 62352, Note_on_c, 4, 74, 0
9, 62352, Note_on_c, 4, 62, 0
9, 62400, Note_on_c, 4, 72, 127
9, 62400, Note_on_c, 4, 60, 127
9, 62472, Note_on_c, 4, 60, 0
9, 62472, Note_on_c, 4, 72, 0
9, 62520, Note_on_c, 4, 55, 127
9, 62520, Note_on_c, 4, 67, 127
9, 62592, Note_on_c, 4, 67, 0
9, 62592, Note_on_c, 4, 55, 0
9, 62640, Note_on_c, 4, 57, 127
9, 62640, Note_on_c, 4, 69, 127
9, 62712, Note_on_c, 4, 69, 0
9, 62712, Note_on_c, 4, 57, 0
9, 62760, Note_on_c, 4, 59, 127
9, 62760, Note_on_c, 4, 71, 127
9, 62832, Note_on_c, 4, 71, 0
9, 62832, Note_on_c, 4, 59, 0
9, 62880, Note_on_c, 4, 72, 127
9, 62880, Note_on_c, 4, 60, 127
9, 62952, Note_on_c, 4, 60, 0
9, 62952, Note_on_c, 4, 72, 0
9, 63000, Note_on_c, 4, 62, 127
9, 63000, Note_on_c, 4, 74, 127
9, 63072, Note_on_c, 4, 74, 0
9, 63072, Note_on_c, 4, 62, 0
9, 63120, Note_on_c, 4, 76, 127
9, 63120, Note_on_c, 4, 64, 127
9, 63192, Note_on_c, 4, 64, 0
9, 63192, Note_on_c, 4, 76, 0
9, 63240, Note_on_c, 4, 65, 127
9, 63240, Note_on_c, 4, 77, 127
9, 63312, Note_on_c, 4, 77, 0
9, 63312, Note_on_c, 4, 65, 0
9, 63360, Note_on_c, 4, 79, 127
9, 63360, Note_on_c, 4, 67, 127
9, 63432, Note_on_c, 4, 67, 0
9, 63432, Note_on_c, 4, 79, 0
9, 63480, Note_on_c, 4, 78, 127
9, 63480, Note_on_c, 4, 66, 127
9, 63552, Note_on_c, 4, 66, 0
9, 63552, Note_on_c, 4, 78, 0
9, 63600, Note_on_c, 4, 69, 127
9, 63600, Note_on_c, 4, 81, 127
9, 63672, Note_on_c, 4, 81, 0
9, 63672, Note_on_c, 4, 69, 0
9, 63720, Note_on_c, 4, 67, 127
9, 63720, Note_on_c, 4, 79, 127
9, 63792, Note_on_c, 4, 79, 0
9, 63792, Note_on_c, 4, 67, 0
9, 63840, Note_on_c, 4, 65, 127
9, 63840, Note_on_c, 4, 77, 127
9, 63912, Note_on_c, 4, 77, 0
9, 63912, Note_on_c, 4, 65, 0
9, 63960, Note_on_c, 4, 76, 127
9, 63960, Note_on_c, 4, 64, 127
9, 64032, Note_on_c, 4, 64, 0
9, 64032, Note_on_c, 4, 76, 0
9, 64080, Note_on_c, 4, 62, 127
9, 64080, Note_on_c, 4, 74, 127
9, 64152, Note_on_c, 4, 74, 0
9, 64152, Note_on_c, 4, 62, 0
9, 64200, Note_on_c, 4, 72, 127
9, 64200, Note_on_c, 4, 60, 127
9, 64272, Note_on_c, 4, 60, 0
9, 64272, Note_on_c, 4, 72, 0
9, 64320, Note_on_c, 4, 74, 127
9, 64320, Note_on_c, 4, 62, 127
9, 64400, Note_on_c, 4, 62, 0
9, 64404, Note_on_c, 4, 74, 0
9, 64440, Note_on_c, 4, 69, 127
9, 64440, Note_on_c, 4, 57, 127
9, 64524, Note_on_c, 4, 57, 0
9, 64524, Note_on_c, 4, 69, 0
9, 64560, Note_on_c, 4, 59, 127
9, 64560, Note_on_c, 4, 71, 127
9, 64642, Note_on_c, 4, 59, 0
9, 64644, Note_on_c, 4, 71, 0
9, 64680, Note_on_c, 4, 61, 127
9, 64680, Note_on_c, 4, 73, 127
9, 64760, Note_on_c, 4, 61, 0
9, 64764, Note_on_c, 4, 73, 0
9, 64800, Note_on_c, 4, 74, 127
9, 64800, Note_on_c, 4, 62, 127
9, 64884, Note_on_c, 4, 74, 0
9, 64896, Note_on_c, 4, 62, 0
9, 64920, Note_on_c, 4, 64, 127
9, 64920, Note_on_c, 4, 76, 127
9, 65004, Note_on_c, 4, 76, 0
9, 65004, Note_on_c, 4, 64, 0
9, 65040, Note_on_c, 4, 65, 127
9, 65040, Note_on_c, 4, 77, 127
9, 65124, Note_on_c, 4, 77, 0
9, 65124, Note_on_c, 4, 65, 0
9, 65160, Note_on_c, 4, 64, 127
9, 65160, Note_on_c, 4, 76, 127
9, 65236, Note_on_c, 4, 64, 0
9, 65244, Note_on_c, 4, 76, 0
9, 65280, Note_on_c, 4, 74, 127
9, 65280, Note_on_c, 4, 62, 127
9, 65364, Note_on_c, 4, 62, 0
9, 65364, Note_on_c, 4, 74, 0
9, 65400, Note_on_c, 4, 69, 127
9, 65400, Note_on_c, 4, 57, 127
9, 65484, Note_on_c, 4, 57, 0
9, 65484, Note_on_c, 4, 69, 0
9, 65520, Note_on_c, 4, 59, 127
9, 65520, Note_on_c, 4, 71, 127
9, 65604, Note_on_c, 4, 71, 0
9, 65604, Note_on_c, 4, 59, 0
9, 65640, Note_on_c, 4, 61, 127
9, 65640, Note_on_c, 4, 73, 127
9, 65716, Note_on_c, 4, 61, 0
9, 65724, Note_on_c, 4, 73, 0
9, 65760, Note_on_c, 4, 74, 127
9, 65760, Note_on_c, 4, 62, 127
9, 65844, Note_on_c, 4, 74, 0
9, 65854, Note_on_c, 4, 62, 0
9, 65880, Note_on_c, 4, 64, 127
9, 65880, Note_on_c, 4, 76, 127
9, 65956, Note_on_c, 4, 64, 0
9, 65964, Note_on_c, 4, 76, 0
9, 66000, Note_on_c, 4, 65, 127
9, 66000, Note_on_c, 4, 77, 127
9, 66076, Note_on_c, 4, 65, 0
9, 66084, Note_on_c, 4, 77, 0
9, 66120, Note_on_c, 4, 64, 127
9, 66120, Note_on_c, 4, 76, 127
9, 66194, Note_on_c, 4, 64, 0
9, 66204, Note_on_c, 4, 76, 0
9, 66240, Note_on_c, 4, 74, 127
9, 66240, Note_on_c, 4, 62, 127
9, 66324, Note_on_c, 4, 62, 0
9, 66324, Note_on_c, 4, 74, 0
9, 66360, Note_on_c, 4, 62, 127
9, 66360, Note_on_c, 4, 74, 127
9, 66444, Note_on_c, 4, 74, 0
9, 66450, Note_on_c, 4, 62, 0
9, 66480, Note_on_c, 4, 76, 127
9, 66480, Note_on_c, 4, 64, 127
9, 66564, Note_on_c, 4, 64, 0
9, 66564, Note_on_c, 4, 76, 0
9, 66600, Note_on_c, 4, 77, 127
9, 66600, Note_on_c, 4, 65, 127
9, 66684, Note_on_c, 4, 77, 0
9, 66686, Note_on_c, 4, 65, 0
9, 66720, Note_on_c, 4, 79, 127
9, 66720, Note_on_c, 4, 67, 127
9, 66804, Note_on_c, 4, 79, 0
9, 66806, Note_on_c, 4, 67, 0
9, 66840, Note_on_c, 4, 69, 127
9, 66840, Note_on_c, 4, 81, 127
9, 66920, Note_on_c, 4, 69, 0
9, 66924, Note_on_c, 4, 81, 0
9, 66960, Note_on_c, 4, 71, 127
9, 66960, Note_on_c, 4, 83, 127
9, 67042, Note_on_c, 4, 71, 0
9, 67044, Note_on_c, 4, 83, 0
9, 67080, Note_on_c, 4, 72, 127
9, 67080, Note_on_c, 4, 84, 127
9, 67154, Note_on_c, 4, 72, 0
9, 67164, Note_on_c, 4, 84, 0
9, 67200, Note_on_c, 4, 74, 127
9, 67200, Note_on_c, 4, 86, 127
9, 67274, Note_on_c, 4, 74, 0
9, 67284, Note_on_c, 4, 86, 0
9, 67320, Note_on_c, 4, 84, 127
9, 67320, Note_on_c, 4, 72, 127
9, 67386, Note_on_c, 4, 72, 0
9, 67404, Note_on_c, 4, 84, 0
9, 67440, Note_on_c, 4, 71, 127
9, 67440, Note_on_c, 4, 83, 127
9, 67506, Note_on_c, 4, 71, 0
9, 67524, Note_on_c, 4, 83, 0
9, 67560, Note_on_c, 4, 69, 127
9, 67560, Note_on_c, 4, 81, 127
9, 67624, Note_on_c, 4, 69, 0
9, 67644, Note_on_c, 4, 81, 0
9, 67680, Note_on_c, 4, 79, 127
9, 67680, Note_on_c, 4, 67, 127
9, 67764, Note_on_c, 4, 79, 0
9, 67772, Note_on_c, 4, 67, 0
9, 67800, Note_on_c, 4, 65, 127
9, 67800, Note_on_c, 4, 77, 127
9, 67866, Note_on_c, 4, 65, 0
9, 67884, Note_on_c, 4, 77, 0
9, 67920, Note_on_c, 4, 64, 127
9, 67920, Note_on_c, 4, 76, 127
9, 68000, Note_on_c, 4, 64, 0
9, 68004, Note_on_c, 4, 76, 0
9, 68040, Note_on_c, 4, 62, 127
9, 68040, Note_on_c, 4, 74, 127
9, 68114, Note_on_c, 4, 62, 0
9, 68124, Note_on_c, 4, 74, 0
9, 68160, Note_on_c, 4, 64, 127
9, 68160, Note_on_c, 4, 76, 127
9, 68240, Note_on_c, 4, 64, 0
9, 68244, Note_on_c, 4, 76, 0
9, 68280, Note_on_c, 4, 88, 127
9, 68280, Note_on_c, 4, 76, 127
9, 68354, Note_on_c, 4, 76, 0
9, 68364, Note_on_c, 4, 88, 0
9, 68400, Note_on_c, 4, 74, 127
9, 68400, Note_on_c, 4, 86, 127
9, 68474, Note_on_c, 4, 74, 0
9, 68484, Note_on_c, 4, 86, 0
9, 68520, Note_on_c, 4, 72, 127
9, 68520, Note_on_c, 4, 84, 127
9, 68604, Note_on_c, 4, 84, 0
9, 68606, Note_on_c, 4, 72, 0
9, 68640, Note_on_c, 4, 71, 127
9, 68640, Note_on_c, 4, 83, 127
9, 68712, Note_on_c, 4, 71, 0
9, 68724, Note_on_c, 4, 83, 0
9, 68760, Note_on_c, 4, 81, 127
9, 68760, Note_on_c, 4, 69, 127
9, 68840, Note_on_c, 4, 69, 0
9, 68844, Note_on_c, 4, 81, 0
9, 68880, Note_on_c, 4, 67, 127
9, 68880, Note_on_c, 4, 79, 127
9, 68956, Note_on_c, 4, 67, 0
9, 68964, Note_on_c, 4, 79, 0
9, 69000, Note_on_c, 4, 77, 127
9, 69000, Note_on_c, 4, 65, 127
9, 69076, Note_on_c, 4, 65, 0
9, 69084, Note_on_c, 4, 77, 0
9, 69120, Note_on_c, 4, 64, 127
9, 69120, Note_on_c, 4, 76, 127
9, 69192, Note_on_c, 4, 64, 0
9, 69204, Note_on_c, 4, 76, 0
9, 69240, Note_on_c, 4, 84, 127
9, 69240, Note_on_c, 4, 72, 127
9, 69314, Note_on_c, 4, 72, 0
9, 69324, Note_on_c, 4, 84, 0
9, 69360, Note_on_c, 4, 71, 127
9, 69360, Note_on_c, 4, 83, 127
9, 69430, Note_on_c, 4, 71, 0
9, 69444, Note_on_c, 4, 83, 0
9, 69480, Note_on_c, 4, 69, 127
9, 69480, Note_on_c, 4, 81, 127
9, 69564, Note_on_c, 4, 81, 0
9, 69570, Note_on_c, 4, 69, 0
9, 69600, Note_on_c, 4, 67, 127
9, 69600, Note_on_c, 4, 79, 127
9, 69674, Note_on_c, 4, 67, 0
9, 69684, Note_on_c, 4, 79, 0
9, 69720, Note_on_c, 4, 77, 127
9, 69720, Note_on_c, 4, 65, 127
9, 69804, Note_on_c, 4, 65, 0
9, 69804, Note_on_c, 4, 77, 0
9, 69840, Note_on_c, 4, 64, 127
9, 69840, Note_on_c, 4, 76, 127
9, 69912, Note_on_c, 4, 64, 0
9, 69924, Note_on_c, 4, 76, 0
9, 69960, Note_on_c, 4, 74, 127
9, 69960, Note_on_c, 4, 62, 127
9, 70044, Note_on_c, 4, 62, 0
9, 70044, Note_on_c, 4, 74, 0
9, 70080, Note_on_c, 4, 60, 127
9, 70080, Note_on_c, 4, 72, 127
9, 70142, Note_on_c, 4, 60, 0
9, 70164, Note_on_c, 4, 72, 0
9, 70200, Note_on_c, 4, 81, 127
9, 70200, Note_on_c, 4, 69, 127
9, 70274, Note_on_c, 4, 69, 0
9, 70284, Note_on_c, 4, 81, 0
9, 70320, Note_on_c, 4, 67, 127
9, 70320, Note_on_c, 4, 79, 127
9, 70394, Note_on_c, 4, 67, 0
9, 70404, Note_on_c, 4, 79, 0
9, 70440, Note_on_c, 4, 65, 127
9, 70440, Note_on_c, 4, 77, 127
9, 70524, Note_on_c, 4, 77, 0
9, 70534, Note_on_c, 4, 65, 0
9, 70560, Note_on_c, 4, 76, 127
9, 70560, Note_on_c, 4, 64, 127
9, 70644, Note_on_c, 4, 76, 0
9, 70646, Note_on_c, 4, 64, 0
9, 70680, Note_on_c, 4, 62, 127
9, 70680, Note_on_c, 4, 74, 127
9, 70764, Note_on_c, 4, 74, 0
9, 70772, Note_on_c, 4, 62, 0
9, 70800, Note_on_c, 4, 60, 127
9, 70800, Note_on_c, 4, 72, 127
9, 70872, Note_on_c, 4, 60, 0
9, 70884, Note_on_c, 4, 72, 0
9, 70920, Note_on_c, 4, 70, 127
9, 70920, Note_on_c, 4, 58, 127
9, 71002, Note_on_c, 4, 58, 0
9, 71004, Note_on_c, 4, 70, 0
9, 71040, Note_on_c, 4, 57, 127
9, 71040, Note_on_c, 4, 69, 127
9, 71104, Note_on_c, 4, 69, 0
9, 71132, Note_on_c, 4, 57, 0
9, 71160, Note_on_c, 4, 67, 127
9, 71160, Note_on_c, 4, 55, 127
9, 71224, Note_on_c, 4, 55, 0
9, 71240, Note_on_c, 4, 67, 0
9, 71280, Note_on_c, 4, 55, 127
9, 71280, Note_on_c, 4, 53, 127
9, 71280, Note_on_c, 4, 65, 127
9, 71326, Note_on_c, 4, 55, 0
9, 71340, Note_on_c, 4, 53, 0
9, 71356, Note_on_c, 4, 65, 0
9, 71400, Note_on_c, 4, 64, 127
9, 71400, Note_on_c, 4, 52, 127
9, 71456, Note_on_c, 4, 52, 0
9, 71484, Note_on_c, 4, 64, 0
9, 71520, Note_on_c, 4, 62, 127
9, 71590, Note_on_c, 4, 62, 0
9, 71640, Note_on_c, 4, 64, 127
9, 71712, Note_on_c, 4, 64, 0
9, 71760, Note_on_c, 4, 60, 127
9, 71834, Note_on_c, 4, 60, 0
9, 71880, Note_on_c, 4, 62, 127
9, 71940, Note_on_c, 4, 62, 0
9, 72000, Note_on_c, 4, 59, 80
9, 72066, Note_on_c, 4, 59, 0
9, 72240, Note_on_c, 4, 62, 83
9, 72240, Note_on_c, 4, 65, 83
9, 72312, Note_on_c, 4, 62, 0
9, 72360, Note_on_c, 4, 60, 84
9, 72430, Note_on_c, 4, 60, 0
9, 72480, Note_on_c, 4, 59, 85
9, 72554, Note_on_c, 4, 59, 0
9, 72600, Note_on_c, 4, 55, 86
9, 72614, Note_on_c, 4, 65, 0
9, 72684, Note_on_c, 4, 55, 0
9, 72720, Note_on_c, 4, 65, 88
9, 72720, Note_on_c, 4, 57, 88
9, 72794, Note_on_c, 4, 65, 0
9, 72796, Note_on_c, 4, 57, 0
9, 72840, Note_on_c, 4, 59, 89
9, 72904, Note_on_c, 4, 59, 0
9, 72960, Note_on_c, 4, 64, 90
9, 72960, Note_on_c, 4, 60, 90
9, 73030, Note_on_c, 4, 60, 0
9, 73030, Note_on_c, 4, 64, 0
9, 73080, Note_on_c, 4, 59, 91
9, 73156, Note_on_c, 4, 59, 0
9, 73200, Note_on_c, 4, 72, 93
9, 73200, Note_on_c, 4, 60, 93
9, 73272, Note_on_c, 4, 60, 0
9, 73320, Note_on_c, 4, 62, 94
9, 73396, Note_on_c, 4, 62, 0
9, 73440, Note_on_c, 4, 64, 95
9, 73514, Note_on_c, 4, 64, 0
9, 73560, Note_on_c, 4, 62, 96
9, 73562, Note_on_c, 4, 72, 0
9, 73646, Note_on_c, 4, 62, 0
9, 73680, Note_on_c, 4, 72, 98
9, 73680, Note_on_c, 4, 64, 98
9, 73742, Note_on_c, 4, 72, 0
9, 73754, Note_on_c, 4, 64, 0
9, 73800, Note_on_c, 4, 66, 99
9, 73882, Note_on_c, 4, 66, 0
9, 73920, Note_on_c, 4, 67, 100
9, 73920, Note_on_c, 4, 71, 100
9, 73994, Note_on_c, 4, 71, 0
9, 74002, Note_on_c, 4, 67, 0
9, 74040, Note_on_c, 4, 66, 101
9, 74116, Note_on_c, 4, 66, 0
9, 74160, Note_on_c, 4, 67, 103
9, 74160, Note_on_c, 4, 77, 103
9, 74254, Note_on_c, 4, 67, 0
9, 74280, Note_on_c, 4, 69, 104
9, 74354, Note_on_c, 4, 69, 0
9, 74400, Note_on_c, 4, 71, 105
9, 74474, Note_on_c, 4, 71, 0
9, 74520, Note_on_c, 4, 67, 106
9, 74576, Note_on_c, 4, 77, 0
9, 74602, Note_on_c, 4, 67, 0
9, 74640, Note_on_c, 4, 69, 108
9, 74640, Note_on_c, 4, 77, 108
9, 74712, Note_on_c, 4, 69, 0
9, 74722, Note_on_c, 4, 77, 0
9, 74760, Note_on_c, 4, 71, 109
9, 74840, Note_on_c, 4, 71, 0
9, 74880, Note_on_c, 4, 76, 110
9, 74880, Note_on_c, 4, 72, 110
9, 74960, Note_on_c, 4, 72, 0
9, 74966, Note_on_c, 4, 76, 0
9, 75000, Note_on_c, 4, 71, 111
9, 75086, Note_on_c, 4, 71, 0
9, 75120, Note_on_c, 4, 72, 113
9, 75120, Note_on_c, 4, 84, 113
9, 75192, Note_on_c, 4, 72, 0
9, 75240, Note_on_c, 4, 74, 114
9, 75314, Note_on_c, 4, 74, 0
9, 75360, Note_on_c, 4, 76, 115
9, 75424, Note_on_c, 4, 76, 0
9, 75480, Note_on_c, 4, 74, 116
9, 75506, Note_on_c, 4, 84, 0
9, 75570, Note_on_c, 4, 74, 0
9, 75600, Note_on_c, 4, 76, 118
9, 75600, Note_on_c, 4, 84, 118
9, 75680, Note_on_c, 4, 76, 0
9, 75690, Note_on_c, 4, 84, 0
9, 75720, Note_on_c, 4, 78, 119
9, 75806, Note_on_c, 4, 78, 0
9, 75840, Note_on_c, 4, 79, 127
9, 75840, Note_on_c, 4, 83, 127
9, 75922, Note_on_c, 4, 83, 0
9, 75932, Note_on_c, 4, 79, 0
9, 75960, Note_on_c, 4, 79, 127
9, 76076, Note_on_c, 4, 79, 0
9, 76080, Note_on_c, 4, 74, 127
9, 76080, Note_on_c, 4, 84, 127
9, 76080, Note_on_c, 4, 78, 127
9, 76160, Note_on_c, 4, 74, 0
9, 76166, Note_on_c, 4, 84, 0
9, 76182, Note_on_c, 4, 78, 0
9, 76200, Note_on_c, 4, 78, 127
9, 76296, Note_on_c, 4, 78, 0
9, 76320, Note_on_c, 4, 74, 127
9, 76320, Note_on_c, 4, 83, 127
9, 76320, Note_on_c, 4, 79, 127
9, 76396, Note_on_c, 4, 74, 0
9, 76406, Note_on_c, 4, 83, 0
9, 76412, Note_on_c, 4, 79, 0
9, 76440, Note_on_c, 4, 79, 127
9, 76534, Note_on_c, 4, 79, 0
9, 76560, Note_on_c, 4, 74, 127
9, 76560, Note_on_c, 4, 84, 127
9, 76560, Note_on_c, 4, 78, 127
9, 76636, Note_on_c, 4, 74, 0
9, 76644, Note_on_c, 4, 84, 0
9, 76652, Note_on_c, 4, 78, 0
9, 76680, Note_on_c, 4, 78, 127
9, 76774, Note_on_c, 4, 78, 0
9, 76800, Note_on_c, 4, 79, 127
9, 76800, Note_on_c, 4, 83, 127
9, 76800, Note_on_c, 4, 74, 127
9, 76872, Note_on_c, 4, 74, 0
9, 76884, Note_on_c, 4, 83, 0
9, 76896, Note_on_c, 4, 79, 0
9, 76920, Note_on_c, 4, 79, 127
9, 77006, Note_on_c, 4, 79, 0
9, 77040, Note_on_c, 4, 74, 127
9, 77040, Note_on_c, 4, 84, 127
9, 77040, Note_on_c, 4, 78, 127
9, 77112, Note_on_c, 4, 74, 0
9, 77122, Note_on_c, 4, 84, 0
9, 77124, Note_on_c, 4, 78, 0
9, 77160, Note_on_c, 4, 78, 127
9, 77250, Note_on_c, 4, 78, 0
9, 77280, Note_on_c, 4, 74, 127
9, 77280, Note_on_c, 4, 79, 127
9, 77280, Note_on_c, 4, 83, 127
9, 77354, Note_on_c, 4, 74, 0
9, 77362, Note_on_c, 4, 79, 0
9, 77366, Note_on_c, 4, 83, 0
9, 77400, Note_on_c, 4, 79, 127
9, 77486, Note_on_c, 4, 79, 0
9, 77520, Note_on_c, 4, 78, 127
9, 77520, Note_on_c, 4, 74, 127
9, 77520, Note_on_c, 4, 84, 127
9, 77592, Note_on_c, 4, 78, 0
9, 77594, Note_on_c, 4, 74, 0
9, 77602, Note_on_c, 4, 84, 0
9, 77640, Note_on_c, 4, 78, 127
9, 77724, Note_on_c, 4, 78, 0
9, 77760, Note_on_c, 4, 74, 127
9, 77760, Note_on_c, 4, 83, 127
9, 77760, Note_on_c, 4, 79, 127
9, 77852, Note_on_c, 4, 74, 0
9, 77856, Note_on_c, 4, 83, 0
9, 77882, Note_on_c, 4, 79, 0
9, 78240, Note_on_c, 4, 71, 127
9, 78240, Note_on_c, 4, 79, 127
9, 78240, Note_on_c, 4, 55, 127
9, 78240, Note_on_c, 4, 62, 127
9, 78350, Note_on_c, 4, 71, 0
9, 78360, Note_on_c, 4, 79, 0
9, 78364, Note_on_c, 4, 55, 0
9, 78376, Note_on_c, 4, 62, 0
9, 78720, Note_on_c, 4, 55, 127
9, 78820, Note_on_c, 4, 55, 0
9, 79680, Note_on_c, 4, 67, 67
9, 79752, Note_on_c, 4, 67, 0
9, 81600, Control_c, 4, 7, 60
9, 81600, Note_on_c, 4, 79, 96
9, 81664, Note_on_c, 4, 79, 0
9, 82080, Note_on_c, 4, 75, 96
9, 82152, Note_on_c, 4, 75, 0
9, 82560, Note_on_c, 4, 76, 96
9, 82642, Note_on_c, 4, 76, 0
9, 83040, Note_on_c, 4, 72, 96
9, 83122, Note_on_c, 4, 72, 0
9, 83520, Note_on_c, 4, 74, 96
9, 83594, Note_on_c, 4, 74, 0
9, 85440, Note_on_c, 4, 79, 96
9, 85526, Note_on_c, 4, 79, 0
9, 85920, Note_on_c, 4, 72, 96
9, 86006, Note_on_c, 4, 72, 0
9, 86400, Note_on_c, 4, 74, 96
9, 86482, Note_on_c, 4, 74, 0
9, 86880, Note_on_c, 4, 62, 96
9, 86964, Note_on_c, 4, 62, 0
9, 87360, Note_on_c, 4, 67, 58
9, 87360, Note_on_c, 4, 55, 58
9, 87440, Note_on_c, 4, 67, 0
9, 87486, Note_on_c, 4, 55, 0
9, 88320, Control_c, 4, 7, 90
9, 88560, Note_on_c, 4, 55, 72
9, 88632, Note_on_c, 4, 55, 0
9, 88800, Note_on_c, 4, 59, 72
9, 88874, Note_on_c, 4, 59, 0
9, 89040, Note_on_c, 4, 62, 72
9, 89114, Note_on_c, 4, 62, 0
9, 89280, Note_on_c, 4, 67, 72
9, 89362, Note_on_c, 4, 67, 0
9, 89520, Note_on_c, 4, 62, 72
9, 89520, Note_on_c, 4, 74, 72
9, 89590, Note_on_c, 4, 62, 0
9, 89592, Note_on_c, 4, 74, 0
9, 90000, Note_on_c, 4, 66, 72
9, 90000, Note_on_c, 4, 78, 72
9, 90074, Note_on_c, 4, 66, 0
9, 90076, Note_on_c, 4, 78, 0
9, 90480, Note_on_c, 4, 79, 72
9, 90480, Note_on_c, 4, 67, 72
9, 90556, Note_on_c, 4, 67, 0
9, 90556, Note_on_c, 4, 79, 0
9, 90960, Note_on_c, 4, 76, 72
9, 90960, Note_on_c, 4, 64, 72
9, 91036, Note_on_c, 4, 76, 0
9, 91040, Note_on_c, 4, 64, 0
9, 91200, Note_on_c, 4, 69, 96
9, 91200, Note_on_c, 4, 57, 96
9, 91284, Note_on_c, 4, 69, 0
9, 91290, Note_on_c, 4, 57, 0
9, 92400, Note_on_c, 4, 62, 72
9, 92484, Note_on_c, 4, 62, 0
9, 92640, Note_on_c, 4, 64, 72
9, 92716, Note_on_c, 4, 64, 0
9, 92880, Note_on_c, 4, 66, 72
9, 92956, Note_on_c, 4, 66, 0
9, 93120, Note_on_c, 4, 67, 72
9, 93204, Note_on_c, 4, 67, 0
9, 93360, Note_on_c, 4, 74, 72
9, 93360, Note_on_c, 4, 62, 72
9, 93436, Note_on_c, 4, 74, 0
9, 93444, Note_on_c, 4, 62, 0
9, 93840, Note_on_c, 4, 64, 72
9, 93840, Note_on_c, 4, 76, 72
9, 93914, Note_on_c, 4, 64, 0
9, 93916, Note_on_c, 4, 76, 0
9, 94320, Note_on_c, 4, 67, 72
9, 94320, Note_on_c, 4, 59, 72
9, 94394, Note_on_c, 4, 67, 0
9, 94402, Note_on_c, 4, 59, 0
9, 94800, Note_on_c, 4, 60, 72
9, 94800, Note_on_c, 4, 66, 72
9, 94876, Note_on_c, 4, 60, 0
9, 94880, Note_on_c, 4, 66, 0
9, 95040, Note_on_c, 4, 67, 96
9, 95040, Control_c, 4, 7, 110
9, 95040, Note_on_c, 4, 59, 70
9, 95110, Note_on_c, 4, 67, 0
9, 95112, Note_on_c, 4, 59, 0
9, 95160, Note_on_c, 4, 59, 70
9, 95240, Note_on_c, 4, 59, 0
9, 95280, Note_on_c, 4, 74, 96
9, 95280, Note_on_c, 4, 62, 70
9, 95340, Note_on_c, 4, 74, 0
9, 95346, Note_on_c, 4, 62, 0
9, 95400, Note_on_c, 4, 62, 70
9, 95472, Note_on_c, 4, 62, 0
9, 95520, Note_on_c, 4, 79, 96
9, 95520, Note_on_c, 4, 55, 70
9, 95590, Note_on_c, 4, 79, 0
9, 95604, Note_on_c, 4, 55, 0
9, 95640, Note_on_c, 4, 59, 70
9, 95710, Note_on_c, 4, 59, 0
9, 95760, Note_on_c, 4, 83, 96
9, 95760, Note_on_c, 4, 62, 70
9, 95822, Note_on_c, 4, 83, 0
9, 95832, Note_on_c, 4, 62, 0
9, 95880, Note_on_c, 4, 59, 70
9, 95946, Note_on_c, 4, 59, 0
9, 96000, Note_on_c, 4, 86, 96
9, 96000, Note_on_c, 4, 55, 70
9, 96080, Note_on_c, 4, 55, 0
9, 96080, Note_on_c, 4, 86, 0
9, 96120, Note_on_c, 4, 59, 70
9, 96186, Note_on_c, 4, 59, 0
9, 96240, Note_on_c, 4, 62, 70
9, 96306, Note_on_c, 4, 62, 0
9, 96360, Note_on_c, 4, 59, 70
9, 96434, Note_on_c, 4, 59, 0
9, 96480, Note_on_c, 4, 55, 70
9, 96560, Note_on_c, 4, 55, 0
9, 96600, Note_on_c, 4, 59, 70
9, 96674, Note_on_c, 4, 59, 0
9, 96720, Note_on_c, 4, 62, 70
9, 96790, Note_on_c, 4, 62, 0
9, 96840, Note_on_c, 4, 59, 70
9, 96914, Note_on_c, 4, 59, 0
9, 96960, Note_on_c, 4, 57, 70
9, 97044, Note_on_c, 4, 57, 0
9, 97080, Note_on_c, 4, 60, 70
9, 97154, Note_on_c, 4, 60, 0
9, 97200, Note_on_c, 4, 74, 96
9, 97200, Note_on_c, 4, 62, 70
9, 97270, Note_on_c, 4, 62, 0
9, 97272, Note_on_c, 4, 74, 0
9, 97320, Note_on_c, 4, 60, 70
9, 97390, Note_on_c, 4, 60, 0
9, 97440, Note_on_c, 4, 78, 96
9, 97440, Note_on_c, 4, 57, 70
9, 97516, Note_on_c, 4, 78, 0
9, 97532, Note_on_c, 4, 57, 0
9, 97560, Note_on_c, 4, 60, 70
9, 97632, Note_on_c, 4, 60, 0
9, 97680, Note_on_c, 4, 81, 96
9, 97680, Note_on_c, 4, 62, 70
9, 97754, Note_on_c, 4, 62, 0
9, 97756, Note_on_c, 4, 81, 0
9, 97800, Note_on_c, 4, 60, 70
9, 97870, Note_on_c, 4, 60, 0
9, 97920, Note_on_c, 4, 84, 96
9, 97920, Note_on_c, 4, 57, 70
9, 98002, Note_on_c, 4, 57, 0
9, 98006, Note_on_c, 4, 84, 0
9, 98040, Note_on_c, 4, 60, 70
9, 98112, Note_on_c, 4, 60, 0
9, 98160, Note_on_c, 4, 62, 70
9, 98230, Note_on_c, 4, 62, 0
9, 98280, Note_on_c, 4, 60, 70
9, 98346, Note_on_c, 4, 60, 0
9, 98400, Note_on_c, 4, 57, 70
9, 98476, Note_on_c, 4, 57, 0
9, 98520, Note_on_c, 4, 60, 70
9, 98594, Note_on_c, 4, 60, 0
9, 98640, Note_on_c, 4, 62, 70
9, 98714, Note_on_c, 4, 62, 0
9, 98760, Note_on_c, 4, 60, 70
9, 98824, Note_on_c, 4, 60, 0
9, 98880, Note_on_c, 4, 55, 70
9, 98946, Note_on_c, 4, 55, 0
9, 99000, Note_on_c, 4, 59, 70
9, 99074, Note_on_c, 4, 59, 0
9, 99120, Note_on_c, 4, 74, 96
9, 99120, Note_on_c, 4, 62, 70
9, 99190, Note_on_c, 4, 74, 0
9, 99192, Note_on_c, 4, 62, 0
9, 99240, Note_on_c, 4, 59, 70
9, 99316, Note_on_c, 4, 59, 0
9, 99360, Note_on_c, 4, 79, 96
9, 99360, Note_on_c, 4, 55, 70
9, 99440, Note_on_c, 4, 79, 0
9, 99444, Note_on_c, 4, 55, 0
9, 99480, Note_on_c, 4, 59, 70
9, 99554, Note_on_c, 4, 59, 0
9, 99600, Note_on_c, 4, 83, 96
9, 99600, Note_on_c, 4, 62, 70
9, 99672, Note_on_c, 4, 62, 0
9, 99674, Note_on_c, 4, 83, 0
9, 99720, Note_on_c, 4, 59, 70
9, 99790, Note_on_c, 4, 59, 0
9, 99840, Note_on_c, 4, 86, 96
9, 99840, Note_on_c, 4, 55, 70
9, 99922, Note_on_c, 4, 55, 0
9, 99924, Note_on_c, 4, 86, 0
9, 99960, Note_on_c, 4, 59, 70
9, 100034, Note_on_c, 4, 59, 0
9, 100080, Note_on_c, 4, 62, 70
9, 100152, Note_on_c, 4, 62, 0
9, 100200, Note_on_c, 4, 59, 70
9, 100266, Note_on_c, 4, 59, 0
9, 100320, Note_on_c, 4, 55, 70
9, 100404, Note_on_c, 4, 55, 0
9, 100440, Note_on_c, 4, 59, 70
9, 100514, Note_on_c, 4, 59, 0
9, 100560, Note_on_c, 4, 62, 70
9, 100626, Note_on_c, 4, 62, 0
9, 100680, Note_on_c, 4, 59, 70
9, 100756, Note_on_c, 4, 59, 0
9, 100800, Note_on_c, 4, 57, 70
9, 100884, Note_on_c, 4, 57, 0
9, 100920, Note_on_c, 4, 60, 70
9, 101000, Note_on_c, 4, 60, 0
9, 101040, Note_on_c, 4, 74, 96
9, 101040, Note_on_c, 4, 62, 70
9, 101094, Note_on_c, 4, 74, 0
9, 101114, Note_on_c, 4, 62, 0
9, 101160, Note_on_c, 4, 60, 70
9, 101226, Note_on_c, 4, 60, 0
9, 101280, Note_on_c, 4, 78, 96
9, 101280, Note_on_c, 4, 57, 70
9, 101354, Note_on_c, 4, 57, 0
9, 101362, Note_on_c, 4, 78, 0
9, 101400, Note_on_c, 4, 60, 70
9, 101466, Note_on_c, 4, 60, 0
9, 101520, Note_on_c, 4, 81, 96
9, 101520, Note_on_c, 4, 62, 70
9, 101580, Note_on_c, 4, 62, 0
9, 101604, Note_on_c, 4, 81, 0
9, 101640, Note_on_c, 4, 60, 70
9, 101710, Note_on_c, 4, 60, 0
9, 101760, Note_on_c, 4, 84, 96
9, 101760, Note_on_c, 4, 57, 70
9, 101832, Note_on_c, 4, 84, 0
9, 101842, Note_on_c, 4, 57, 0
9, 101880, Note_on_c, 4, 60, 70
9, 101956, Note_on_c, 4, 60, 0
9, 102000, Note_on_c, 4, 62, 70
9, 102056, Note_on_c, 4, 62, 0
9, 102120, Note_on_c, 4, 60, 70
9, 102194, Note_on_c, 4, 60, 0
9, 102240, Note_on_c, 4, 57, 70
9, 102314, Note_on_c, 4, 57, 0
9, 102360, Note_on_c, 4, 60, 70
9, 102432, Note_on_c, 4, 60, 0
9, 102480, Note_on_c, 4, 62, 70
9, 102534, Note_on_c, 4, 62, 0
9, 102600, Note_on_c, 4, 60, 70
9, 102670, Note_on_c, 4, 60, 0
9, 102720, Note_on_c, 4, 62, 96
9, 102720, Note_on_c, 4, 74, 96
9, 103440, Note_on_c, 4, 61, 96
9, 103440, Note_on_c, 4, 73, 96
9, 103466, Note_on_c, 4, 62, 0
9, 103510, Note_on_c, 4, 74, 0
9, 103680, Note_on_c, 4, 74, 96
9, 103680, Note_on_c, 4, 62, 96
9, 103734, Note_on_c, 4, 61, 0
9, 103740, Note_on_c, 4, 73, 0
9, 104400, Note_on_c, 4, 63, 96
9, 104400, Note_on_c, 4, 75, 96
9, 104452, Note_on_c, 4, 62, 0
9, 104464, Note_on_c, 4, 74, 0
9, 104640, Note_on_c, 4, 62, 96
9, 104640, Note_on_c, 4, 74, 96
9, 104696, Note_on_c, 4, 63, 0
9, 104706, Note_on_c, 4, 75, 0
9, 105360, Note_on_c, 4, 73, 96
9, 105360, Note_on_c, 4, 61, 96
9, 105414, Note_on_c, 4, 74, 0
9, 105426, Note_on_c, 4, 62, 0
9, 105600, Note_on_c, 4, 74, 96
9, 105600, Note_on_c, 4, 62, 96
9, 105654, Note_on_c, 4, 73, 0
9, 105660, Note_on_c, 4, 61, 0
9, 106320, Note_on_c, 4, 63, 96
9, 106320, Note_on_c, 4, 75, 96
9, 106386, Note_on_c, 4, 62, 0
9, 106392, Note_on_c, 4, 74, 0
9, 106560, Note_on_c, 4, 77, 96
9, 106560, Note_on_c, 4, 65, 96
9, 106614, Note_on_c, 4, 63, 0
9, 106616, Note_on_c, 4, 75, 0
9, 107280, Note_on_c, 4, 79, 96
9, 107280, Note_on_c, 4, 67, 96
9, 107332, Note_on_c, 4, 65, 0
9, 107352, Note_on_c, 4, 77, 0
9, 107520, Note_on_c, 4, 80, 96
9, 107520, Note_on_c, 4, 68, 96
9, 107570, Note_on_c, 4, 79, 0
9, 107586, Note_on_c, 4, 67, 0
9, 108240, Note_on_c, 4, 65, 96
9, 108240, Note_on_c, 4, 77, 96
9, 108286, Note_on_c, 4, 68, 0
9, 108290, Note_on_c, 4, 80, 0
9, 108402, Note_on_c, 4, 65, 0
9, 108426, Note_on_c, 4, 77, 0
9, 108480, Note_on_c, 4, 82, 73
9, 108480, Note_on_c, 4, 70, 73
9, 108720, Note_on_c, 4, 79, 73
9, 108720, Note_on_c, 4, 67, 73
9, 108756, Note_on_c, 4, 82, 0
9, 108760, Note_on_c, 4, 70, 0
9, 108772, Note_on_c, 4, 79, 0
9, 108796, Note_on_c, 4, 67, 0
9, 108960, Note_on_c, 4, 77, 73
9, 108960, Note_on_c, 4, 65, 73
9, 109200, Note_on_c, 4, 80, 73
9, 109200, Note_on_c, 4, 68, 73
9, 109224, Note_on_c, 4, 77, 0
9, 109236, Note_on_c, 4, 65, 0
9, 109272, Note_on_c, 4, 80, 0
9, 109284, Note_on_c, 4, 68, 0
9, 109440, Note_on_c, 4, 75, 73
9, 109440, Note_on_c, 4, 63, 73
9, 109680, Note_on_c, 4, 79, 73
9, 109680, Note_on_c, 4, 67, 73
9, 109724, Note_on_c, 4, 75, 0
9, 109730, Note_on_c, 4, 63, 0
9, 109756, Note_on_c, 4, 79, 0
9, 109756, Note_on_c, 4, 67, 0
9, 109920, Note_on_c, 4, 74, 73
9, 109920, Note_on_c, 4, 62, 73
9, 110160, Note_on_c, 4, 65, 73
9, 110160, Note_on_c, 4, 77, 73
9, 110194, Note_on_c, 4, 74, 0
9, 110216, Note_on_c, 4, 62, 0
9, 110226, Note_on_c, 4, 65, 0
9, 110236, Note_on_c, 4, 77, 0
9, 110400, Control_c, 4, 7, 127
9, 110400, Note_on_c, 4, 74, 127
9, 110400, Note_on_c, 4, 79, 127
9, 110400, Note_on_c, 4, 77, 127
9, 110494, Note_on_c, 4, 79, 0
9, 110494, Note_on_c, 4, 74, 0
9, 110500, Note_on_c, 4, 77, 0
9, 110520, Note_on_c, 4, 74, 127
9, 110520, Note_on_c, 4, 79, 127
9, 110520, Note_on_c, 4, 77, 127
9, 110612, Note_on_c, 4, 77, 0
9, 110612, Note_on_c, 4, 74, 0
9, 110614, Note_on_c, 4, 79, 0
9, 110640, Note_on_c, 4, 74, 127
9, 110640, Note_on_c, 4, 77, 127
9, 110640, Note_on_c, 4, 79, 127
9, 110726, Note_on_c, 4, 79, 0
9, 110730, Note_on_c, 4, 74, 0
9, 110734, Note_on_c, 4, 77, 0
9, 110760, Note_on_c, 4, 77, 127
9, 110760, Note_on_c, 4, 79, 127
9, 110760, Note_on_c, 4, 74, 127
9, 110846, Note_on_c, 4, 74, 0
9, 110846, Note_on_c, 4, 79, 0
9, 110856, Note_on_c, 4, 77, 0
9, 110880, Note_on_c, 4, 74, 127
9, 110880, Note_on_c, 4, 79, 127
9, 110880, Note_on_c, 4, 77, 127
9, 110962, Note_on_c, 4, 74, 0
9, 110964, Note_on_c, 4, 79, 0
9, 110974, Note_on_c, 4, 77, 0
9, 111000, Note_on_c, 4, 77, 127
9, 111000, Note_on_c, 4, 74, 127
9, 111000, Note_on_c, 4, 79, 127
9, 111084, Note_on_c, 4, 74, 0
9, 111092, Note_on_c, 4, 77, 0
9, 111094, Note_on_c, 4, 79, 0
9, 111120, Note_on_c, 4, 77, 127
9, 111120, Note_on_c, 4, 79, 127
9, 111120, Note_on_c, 4, 74, 127
9, 111204, Note_on_c, 4, 74, 0
9, 111212, Note_on_c, 4, 79, 0
9, 111212, Note_on_c, 4, 77, 0
9, 111240, Note_on_c, 4, 74, 127
9, 111240, Note_on_c, 4, 77, 127
9, 111240, Note_on_c, 4, 79, 127
9, 111324, Note_on_c, 4, 74, 0
9, 111332, Note_on_c, 4, 79, 0
9, 111334, Note_on_c, 4, 77, 0
9, 111360, Note_on_c, 4, 74, 127
9, 111360, Note_on_c, 4, 79, 127
9, 111360, Note_on_c, 4, 77, 127
9, 111444, Note_on_c, 4, 79, 0
9, 111452, Note_on_c, 4, 74, 0
9, 111462, Note_on_c, 4, 77, 0
9, 111480, Note_on_c, 4, 79, 127
9, 111480, Note_on_c, 4, 77, 127
9, 111480, Note_on_c, 4, 74, 127
9, 111564, Note_on_c, 4, 79, 0
9, 111572, Note_on_c, 4, 74, 0
9, 111582, Note_on_c, 4, 77, 0
9, 111600, Note_on_c, 4, 74, 127
9, 111600, Note_on_c, 4, 79, 127
9, 111600, Note_on_c, 4, 77, 127
9, 111684, Note_on_c, 4, 74, 0
9, 111690, Note_on_c, 4, 79, 0
9, 111692, Note_on_c, 4, 77, 0
9, 111720, Note_on_c, 4, 77, 127
9, 111720, Note_on_c, 4, 79, 127
9, 111720, Note_on_c, 4, 74, 127
9, 111804, Note_on_c, 4, 74, 0
9, 111806, Note_on_c, 4, 79, 0
9, 111806, Note_on_c, 4, 77, 0
9, 111840, Note_on_c, 4, 79, 127
9, 111840, Note_on_c, 4, 74, 127
9, 111840, Note_on_c, 4, 77, 127
9, 111930, Note_on_c, 4, 74, 0
9, 111930, Note_on_c, 4, 79, 0
9, 111934, Note_on_c, 4, 77, 0
9, 111960, Note_on_c, 4, 77, 127
9, 111960, Note_on_c, 4, 79, 127
9, 111960, Note_on_c, 4, 74, 127
9, 112044, Note_on_c, 4, 79, 0
9, 112044, Note_on_c, 4, 77, 0
9, 112046, Note_on_c, 4, 74, 0
9, 112080, Note_on_c, 4, 74, 127
9, 112080, Note_on_c, 4, 79, 127
9, 112080, Note_on_c, 4, 77, 127
9, 112156, Note_on_c, 4, 74, 0
9, 112162, Note_on_c, 4, 79, 0
9, 112164, Note_on_c, 4, 77, 0
9, 112200, Note_on_c, 4, 77, 127
9, 112200, Note_on_c, 4, 79, 127
9, 112200, Note_on_c, 4, 74, 127
9, 112276, Note_on_c, 4, 74, 0
9, 112276, Note_on_c, 4, 79, 0
9, 112282, Note_on_c, 4, 77, 0
9, 112320, Control_c, 4, 7, 100
9, 112320, Note_on_c, 4, 75, 99
9, 112320, Note_on_c, 4, 79, 99
9, 112560, Note_on_c, 4, 63, 68
9, 112576, Note_on_c, 4, 79, 0
9, 112604, Note_on_c, 4, 75, 0
9, 112644, Note_on_c, 4, 63, 0
9, 112800, Note_on_c, 4, 62, 68
9, 112800, Note_on_c, 4, 74, 68
9, 113040, Note_on_c, 4, 77, 68
9, 113040, Note_on_c, 4, 65, 68
9, 113066, Note_on_c, 4, 62, 0
9, 113076, Note_on_c, 4, 74, 0
9, 113106, Note_on_c, 4, 77, 0
9, 113116, Note_on_c, 4, 65, 0
9, 113280, Note_on_c, 4, 60, 68
9, 113280, Note_on_c, 4, 72, 68
9, 113520, Note_on_c, 4, 75, 68
9, 113520, Note_on_c, 4, 63, 68
9, 113566, Note_on_c, 4, 60, 0
9, 113576, Note_on_c, 4, 72, 0
9, 113592, Note_on_c, 4, 75, 0
9, 113606, Note_on_c, 4, 63, 0
9, 113760, Note_on_c, 4, 71, 68
9, 113760, Note_on_c, 4, 59, 68
9, 114000, Note_on_c, 4, 62, 68
9, 114000, Note_on_c, 4, 74, 68
9, 114046, Note_on_c, 4, 71, 0
9, 114052, Note_on_c, 4, 59, 0
9, 114062, Note_on_c, 4, 62, 0
9, 114064, Note_on_c, 4, 74, 0
9, 114240, Control_c, 4, 7, 127
9, 114240, Note_on_c, 4, 84, 127
9, 114240, Note_on_c, 4, 74, 127
9, 114240, Note_on_c, 4, 86, 127
9, 114304, Note_on_c, 4, 74, 0
9, 114304, Note_on_c, 4, 84, 0
9, 114340, Note_on_c, 4, 86, 0
9, 114360, Note_on_c, 4, 74, 127
9, 114360, Note_on_c, 4, 86, 127
9, 114360, Note_on_c, 4, 84, 127
9, 114432, Note_on_c, 4, 84, 0
9, 114440, Note_on_c, 4, 74, 0
9, 114450, Note_on_c, 4, 86, 0
9, 114480, Note_on_c, 4, 84, 127
9, 114480, Note_on_c, 4, 86, 127
9, 114480, Note_on_c, 4, 74, 127
9, 114544, Note_on_c, 4, 74, 0
9, 114560, Note_on_c, 4, 84, 0
9, 114572, Note_on_c, 4, 86, 0
9, 114600, Note_on_c, 4, 84, 127
9, 114600, Note_on_c, 4, 86, 127
9, 114600, Note_on_c, 4, 74, 127
9, 114674, Note_on_c, 4, 74, 0
9, 114682, Note_on_c, 4, 84, 0
9, 114692, Note_on_c, 4, 86, 0
9, 114720, Note_on_c, 4, 74, 127
9, 114720, Note_on_c, 4, 84, 127
9, 114720, Note_on_c, 4, 86, 127
9, 114802, Note_on_c, 4, 74, 0
9, 114810, Note_on_c, 4, 84, 0
9, 114812, Note_on_c, 4, 86, 0
9, 114840, Note_on_c, 4, 84, 127
9, 114840, Note_on_c, 4, 86, 127
9, 114840, Note_on_c, 4, 74, 127
9, 114920, Note_on_c, 4, 74, 0
9, 114926, Note_on_c, 4, 84, 0
9, 114930, Note_on_c, 4, 86, 0
9, 114960, Note_on_c, 4, 84, 127
9, 114960, Note_on_c, 4, 86, 127
9, 114960, Note_on_c, 4, 74, 127
9, 115040, Note_on_c, 4, 74, 0
9, 115046, Note_on_c, 4, 84, 0
9, 115050, Note_on_c, 4, 86, 0
9, 115080, Note_on_c, 4, 84, 127
9, 115080, Note_on_c, 4, 86, 127
9, 115080, Note_on_c, 4, 74, 127
9, 115152, Note_on_c, 4, 74, 0
9, 115170, Note_on_c, 4, 84, 0
9, 115172, Note_on_c, 4, 86, 0
9, 115200, Note_on_c, 4, 84, 127
9, 115200, Note_on_c, 4, 86, 127
9, 115200, Note_on_c, 4, 74, 127
9, 115270, Note_on_c, 4, 74, 0
9, 115294, Note_on_c, 4, 86, 0
9, 115294, Note_on_c, 4, 84, 0
9, 115320, Note_on_c, 4, 74, 127
9, 115320, Note_on_c, 4, 84, 127
9, 115320, Note_on_c, 4, 86, 127
9, 115404, Note_on_c, 4, 74, 0
9, 115416, Note_on_c, 4, 84, 0
9, 115420, Note_on_c, 4, 86, 0
9, 115440, Note_on_c, 4, 84, 127
9, 115440, Note_on_c, 4, 74, 127
9, 115440, Note_on_c, 4, 86, 127
9, 115512, Note_on_c, 4, 74, 0
9, 115534, Note_on_c, 4, 86, 0
9, 115534, Note_on_c, 4, 84, 0
9, 115560, Note_on_c, 4, 86, 127
9, 115560, Note_on_c, 4, 84, 127
9, 115560, Note_on_c, 4, 74, 127
9, 115626, Note_on_c, 4, 74, 0
9, 115650, Note_on_c, 4, 84, 0
9, 115656, Note_on_c, 4, 86, 0
9, 115680, Note_on_c, 4, 74, 127
9, 115680, Note_on_c, 4, 86, 127
9, 115680, Note_on_c, 4, 84, 127
9, 115744, Note_on_c, 4, 74, 0
9, 115766, Note_on_c, 4, 84, 0
9, 115770, Note_on_c, 4, 86, 0
9, 115800, Note_on_c, 4, 84, 127
9, 115800, Note_on_c, 4, 74, 127
9, 115800, Note_on_c, 4, 86, 127
9, 115870, Note_on_c, 4, 74, 0
9, 115880, Note_on_c, 4, 84, 0
9, 115894, Note_on_c, 4, 86, 0
9, 115920, Note_on_c, 4, 84, 127
9, 115920, Note_on_c, 4, 74, 127
9, 115920, Note_on_c, 4, 86, 127
9, 115990, Note_on_c, 4, 74, 0
9, 115996, Note_on_c, 4, 84, 0
9, 116004, Note_on_c, 4, 86, 0
9, 116040, Note_on_c, 4, 74, 127
9, 116040, Note_on_c, 4, 84, 127
9, 116040, Note_on_c, 4, 86, 127
9, 116114, Note_on_c, 4, 74, 0
9, 116126, Note_on_c, 4, 84, 0
9, 116130, Note_on_c, 4, 86, 0
9, 116160, Control_c, 4, 7, 80
9, 116160, Note_on_c, 4, 82, 99
9, 116160, Note_on_c, 4, 74, 99
9, 116160, Note_on_c, 4, 86, 99
9, 116364, Note_on_c, 4, 82, 0
9, 116400, Note_on_c, 4, 70, 68
9, 116400, Note_on_c, 4, 82, 68
9, 116436, Note_on_c, 4, 74, 0
9, 116450, Note_on_c, 4, 86, 0
9, 116474, Note_on_c, 4, 70, 0
9, 116482, Note_on_c, 4, 82, 0
9, 116640, Note_on_c, 4, 69, 68
9, 116640, Note_on_c, 4, 81, 68
9, 116880, Note_on_c, 4, 84, 68
9, 116880, Note_on_c, 4, 72, 68
9, 116912, Note_on_c, 4, 69, 0
9, 116916, Note_on_c, 4, 81, 0
9, 116950, Note_on_c, 4, 84, 0
9, 116952, Note_on_c, 4, 72, 0
9, 117120, Note_on_c, 4, 79, 68
9, 117120, Note_on_c, 4, 67, 68
9, 117360, Note_on_c, 4, 70, 68
9, 117360, Note_on_c, 4, 82, 68
9, 117404, Note_on_c, 4, 67, 0
9, 117426, Note_on_c, 4, 79, 0
9, 117430, Note_on_c, 4, 82, 0
9, 117444, Note_on_c, 4, 70, 0
9, 117600, Note_on_c, 4, 78, 68
9, 117600, Note_on_c, 4, 66, 68
9, 117840, Note_on_c, 4, 81, 68
9, 117840, Note_on_c, 4, 69, 68
9, 117866, Note_on_c, 4, 78, 0
9, 117880, Note_on_c, 4, 66, 0
9, 117902, Note_on_c, 4, 81, 0
9, 117920, Note_on_c, 4, 69, 0
9, 118080, Control_c, 4, 7, 110
9, 118080, Note_on_c, 4, 79, 96
9, 118080, Note_on_c, 4, 67, 96
9, 118164, Note_on_c, 4, 67, 0
9, 118164, Note_on_c, 4, 79, 0
9, 118200, Note_on_c, 4, 62, 96
9, 118284, Note_on_c, 4, 62, 0
9, 118320, Note_on_c, 4, 64, 96
9, 118404, Note_on_c, 4, 64, 0
9, 118440, Note_on_c, 4, 66, 96
9, 118524, Note_on_c, 4, 66, 0
9, 118560, Note_on_c, 4, 67, 96
9, 118644, Note_on_c, 4, 67, 0
9, 118680, Note_on_c, 4, 69, 96
9, 118764, Note_on_c, 4, 69, 0
9, 118800, Note_on_c, 4, 71, 96
9, 118884, Note_on_c, 4, 71, 0
9, 118920, Note_on_c, 4, 69, 96
9, 119004, Note_on_c, 4, 69, 0
9, 119040, Note_on_c, 4, 67, 96
9, 119124, Note_on_c, 4, 67, 0
9, 119160, Note_on_c, 4, 62, 96
9, 119244, Note_on_c, 4, 62, 0
9, 119280, Note_on_c, 4, 64, 96
9, 119364, Note_on_c, 4, 64, 0
9, 119400, Note_on_c, 4, 66, 96
9, 119484, Note_on_c, 4, 66, 0
9, 119520, Note_on_c, 4, 67, 96
9, 119604, Note_on_c, 4, 67, 0
9, 119640, Note_on_c, 4, 69, 96
9, 119724, Note_on_c, 4, 69, 0
9, 119760, Note_on_c, 4, 62, 96
9, 119760, Note_on_c, 4, 71, 96
9, 119844, Note_on_c, 4, 71, 0
9, 119844, Note_on_c, 4, 62, 0
9, 119880, Note_on_c, 4, 68, 96
9, 119964, Note_on_c, 4, 68, 0
9, 120000, Note_on_c, 4, 69, 96
9, 120000, Note_on_c, 4, 60, 96
9, 120084, Note_on_c, 4, 60, 0
9, 120084, Note_on_c, 4, 69, 0
9, 120120, Note_on_c, 4, 64, 96
9, 120204, Note_on_c, 4, 64, 0
9, 120240, Note_on_c, 4, 66, 96
9, 120324, Note_on_c, 4, 66, 0
9, 120360, Note_on_c, 4, 68, 96
9, 120444, Note_on_c, 4, 68, 0
9, 120480, Note_on_c, 4, 69, 96
9, 120564, Note_on_c, 4, 69, 0
9, 120600, Note_on_c, 4, 71, 96
9, 120684, Note_on_c, 4, 71, 0
9, 120720, Note_on_c, 4, 72, 96
9, 120804, Note_on_c, 4, 72, 0
9, 120840, Note_on_c, 4, 71, 96
9, 120924, Note_on_c, 4, 71, 0
9, 120960, Note_on_c, 4, 69, 96
9, 121044, Note_on_c, 4, 69, 0
9, 121080, Note_on_c, 4, 64, 96
9, 121164, Note_on_c, 4, 64, 0
9, 121200, Note_on_c, 4, 66, 96
9, 121284, Note_on_c, 4, 66, 0
9, 121320, Note_on_c, 4, 68, 96
9, 121404, Note_on_c, 4, 68, 0
9, 121440, Note_on_c, 4, 69, 96
9, 121524, Note_on_c, 4, 69, 0
9, 121560, Note_on_c, 4, 71, 96
9, 121644, Note_on_c, 4, 71, 0
9, 121680, Note_on_c, 4, 64, 96
9, 121680, Note_on_c, 4, 73, 96
9, 121764, Note_on_c, 4, 73, 0
9, 121764, Note_on_c, 4, 64, 0
9, 121800, Note_on_c, 4, 70, 96
9, 121884, Note_on_c, 4, 70, 0
9, 121920, Note_on_c, 4, 62, 96
9, 121920, Note_on_c, 4, 71, 96
9, 122004, Note_on_c, 4, 71, 0
9, 122004, Note_on_c, 4, 62, 0
9, 122040, Note_on_c, 4, 66, 96
9, 122124, Note_on_c, 4, 66, 0
9, 122160, Note_on_c, 4, 68, 96
9, 122244, Note_on_c, 4, 68, 0
9, 122280, Note_on_c, 4, 70, 96
9, 122364, Note_on_c, 4, 70, 0
9, 122400, Note_on_c, 4, 71, 96
9, 122484, Note_on_c, 4, 71, 0
9, 122520, Note_on_c, 4, 73, 96
9, 122604, Note_on_c, 4, 73, 0
9, 122640, Note_on_c, 4, 74, 96
9, 122724, Note_on_c, 4, 74, 0
9, 122760, Note_on_c, 4, 73, 96
9, 122844, Note_on_c, 4, 73, 0
9, 122880, Note_on_c, 4, 71, 96
9, 122964, Note_on_c, 4, 71, 0
9, 123000, Note_on_c, 4, 66, 96
9, 123084, Note_on_c, 4, 66, 0
9, 123120, Note_on_c, 4, 68, 96
9, 123204, Note_on_c, 4, 68, 0
9, 123240, Note_on_c, 4, 70, 96
9, 123324, Note_on_c, 4, 70, 0
9, 123360, Note_on_c, 4, 71, 96
9, 123444, Note_on_c, 4, 71, 0
9, 123480, Note_on_c, 4, 72, 96
9, 123564, Note_on_c, 4, 72, 0
9, 123600, Note_on_c, 4, 65, 96
9, 123600, Note_on_c, 4, 74, 96
9, 123684, Note_on_c, 4, 74, 0
9, 123684, Note_on_c, 4, 65, 0
9, 123720, Note_on_c, 4, 71, 96
9, 123804, Note_on_c, 4, 71, 0
9, 123840, Note_on_c, 4, 72, 96
9, 123840, Note_on_c, 4, 64, 96
9, 123924, Note_on_c, 4, 64, 0
9, 123924, Note_on_c, 4, 72, 0
9, 123960, Note_on_c, 4, 67, 96
9, 124044, Note_on_c, 4, 67, 0
9, 124080, Note_on_c, 4, 69, 96
9, 124164, Note_on_c, 4, 69, 0
9, 124200, Note_on_c, 4, 71, 96
9, 124284, Note_on_c, 4, 71, 0
9, 124320, Note_on_c, 4, 72, 96
9, 124404, Note_on_c, 4, 72, 0
9, 124440, Note_on_c, 4, 74, 96
9, 124524, Note_on_c, 4, 74, 0
9, 124560, Note_on_c, 4, 67, 96
9, 124560, Note_on_c, 4, 76, 96
9, 124644, Note_on_c, 4, 76, 0
9, 124644, Note_on_c, 4, 67, 0
9, 124680, Note_on_c, 4, 73, 96
9, 124764, Note_on_c, 4, 73, 0
9, 124800, Note_on_c, 4, 74, 96
9, 124800, Note_on_c, 4, 66, 96
9, 124884, Note_on_c, 4, 66, 0
9, 124884, Note_on_c, 4, 74, 0
9, 124920, Note_on_c, 4, 69, 96
9, 125004, Note_on_c, 4, 69, 0
9, 125040, Note_on_c, 4, 71, 96
9, 125124, Note_on_c, 4, 71, 0
9, 125160, Note_on_c, 4, 73, 96
9, 125244, Note_on_c, 4, 73, 0
9, 125280, Note_on_c, 4, 74, 96
9, 125364, Note_on_c, 4, 74, 0
9, 125400, Note_on_c, 4, 76, 96
9, 125484, Note_on_c, 4, 76, 0
9, 125520, Note_on_c, 4, 69, 96
9, 125520, Note_on_c, 4, 78, 96
9, 125604, Note_on_c, 4, 78, 0
9, 125604, Note_on_c, 4, 69, 0
9, 125640, Note_on_c, 4, 75, 96
9, 125724, Note_on_c, 4, 75, 0
9, 125760, Control_c, 4, 7, 110
9, 125760, Note_on_c, 4, 76, 80
9, 125760, Note_on_c, 4, 67, 80
9, 125862, Note_on_c, 4, 67, 0
9, 125880, Note_on_c, 4, 76, 0
9, 125880, Note_on_c, 4, 67, 81
9, 125880, Note_on_c, 4, 76, 81
9, 125980, Note_on_c, 4, 67, 0
9, 126000, Note_on_c, 4, 76, 0
9, 126000, Note_on_c, 4, 75, 83
9, 126000, Note_on_c, 4, 63, 83
9, 126094, Note_on_c, 4, 63, 0
9, 126120, Note_on_c, 4, 75, 0
9, 126120, Note_on_c, 4, 63, 84
9, 126120, Note_on_c, 4, 75, 84
9, 126222, Note_on_c, 4, 63, 0
9, 126240, Note_on_c, 4, 75, 0
9, 126240, Note_on_c, 4, 64, 85
9, 126240, Note_on_c, 4, 76, 85
9, 126342, Note_on_c, 4, 64, 0
9, 126360, Note_on_c, 4, 76, 0
9, 126360, Note_on_c, 4, 76, 86
9, 126360, Note_on_c, 4, 64, 86
9, 126460, Note_on_c, 4, 64, 0
9, 126480, Note_on_c, 4, 76, 0
9, 126480, Note_on_c, 4, 66, 88
9, 126480, Note_on_c, 4, 78, 88
9, 126572, Note_on_c, 4, 66, 0
9, 126600, Note_on_c, 4, 78, 0
9, 126600, Note_on_c, 4, 78, 89
9, 126600, Note_on_c, 4, 66, 89
9, 126692, Note_on_c, 4, 66, 0
9, 126720, Note_on_c, 4, 78, 0
9, 126720, Control_c, 4, 7, 115
9, 126720, Note_on_c, 4, 79, 90
9, 126720, Note_on_c, 4, 67, 90
9, 126814, Note_on_c, 4, 67, 0
9, 126840, Note_on_c, 4, 79, 0
9, 126840, Note_on_c, 4, 67, 91
9, 126840, Note_on_c, 4, 79, 91
9, 126936, Note_on_c, 4, 67, 0
9, 126960, Note_on_c, 4, 79, 0
9, 126960, Note_on_c, 4, 66, 93
9, 126960, Note_on_c, 4, 78, 93
9, 127054, Note_on_c, 4, 66, 0
9, 127080, Note_on_c, 4, 78, 0
9, 127080, Note_on_c, 4, 66, 94
9, 127080, Note_on_c, 4, 78, 94
9, 127170, Note_on_c, 4, 66, 0
9, 127200, Note_on_c, 4, 78, 0
9, 127200, Note_on_c, 4, 67, 95
9, 127200, Note_on_c, 4, 79, 95
9, 127292, Note_on_c, 4, 67, 0
9, 127320, Note_on_c, 4, 79, 0
9, 127320, Note_on_c, 4, 79, 96
9, 127320, Note_on_c, 4, 67, 96
9, 127422, Note_on_c, 4, 67, 0
9, 127440, Note_on_c, 4, 79, 0
9, 127440, Note_on_c, 4, 69, 98
9, 127440, Note_on_c, 4, 81, 98
9, 127524, Note_on_c, 4, 69, 0
9, 127560, Note_on_c, 4, 81, 0
9, 127560, Note_on_c, 4, 81, 99
9, 127560, Note_on_c, 4, 69, 99
9, 127650, Note_on_c, 4, 69, 0
9, 127680, Note_on_c, 4, 81, 0
9, 127680, Control_c, 4, 7, 120
9, 127680, Note_on_c, 4, 83, 100
9, 127680, Note_on_c, 4, 71, 100
9, 127770, Note_on_c, 4, 71, 0
9, 127800, Note_on_c, 4, 83, 0
9, 127800, Note_on_c, 4, 71, 101
9, 127800, Note_on_c, 4, 83, 101
9, 127886, Note_on_c, 4, 71, 0
9, 127920, Note_on_c, 4, 83, 0
9, 127920, Note_on_c, 4, 66, 103
9, 127920, Note_on_c, 4, 78, 103
9, 128012, Note_on_c, 4, 66, 0
9, 128040, Note_on_c, 4, 78, 0
9, 128040, Note_on_c, 4, 66, 104
9, 128040, Note_on_c, 4, 78, 104
9, 128140, Note_on_c, 4, 66, 0
9, 128160, Note_on_c, 4, 78, 0
9, 128160, Note_on_c, 4, 67, 105
9, 128160, Note_on_c, 4, 79, 105
9, 128260, Note_on_c, 4, 67, 0
9, 128280, Note_on_c, 4, 79, 0
9, 128280, Note_on_c, 4, 79, 106
9, 128280, Note_on_c, 4, 67, 106
9, 128382, Note_on_c, 4, 67, 0
9, 128400, Note_on_c, 4, 79, 0
9, 128400, Note_on_c, 4, 69, 108
9, 128400, Note_on_c, 4, 81, 108
9, 128490, Note_on_c, 4, 69, 0
9, 128520, Note_on_c, 4, 81, 0
9, 128520, Note_on_c, 4, 81, 109
9, 128520, Note_on_c, 4, 69, 109
9, 128606, Note_on_c, 4, 69, 0
9, 128640, Note_on_c, 4, 81, 0
9, 128640, Control_c, 4, 7, 123
9, 128640, Note_on_c, 4, 71, 110
9, 128640, Note_on_c, 4, 83, 110
9, 128732, Note_on_c, 4, 71, 0
9, 128760, Note_on_c, 4, 83, 0
9, 128760, Note_on_c, 4, 71, 111
9, 128760, Note_on_c, 4, 83, 111
9, 128846, Note_on_c, 4, 71, 0
9, 128880, Note_on_c, 4, 83, 0
9, 128880, Note_on_c, 4, 69, 113
9, 128880, Note_on_c, 4, 81, 113
9, 128966, Note_on_c, 4, 69, 0
9, 129000, Note_on_c, 4, 81, 0
9, 129000, Note_on_c, 4, 69, 114
9, 129000, Note_on_c, 4, 81, 114
9, 129086, Note_on_c, 4, 69, 0
9, 129120, Note_on_c, 4, 81, 0
9, 129120, Note_on_c, 4, 71, 115
9, 129120, Note_on_c, 4, 83, 115
9, 129206, Note_on_c, 4, 71, 0
9, 129240, Note_on_c, 4, 83, 0
9, 129240, Note_on_c, 4, 83, 116
9, 129240, Note_on_c, 4, 71, 116
9, 129326, Note_on_c, 4, 71, 0
9, 129360, Note_on_c, 4, 83, 0
9, 129360, Note_on_c, 4, 71, 118
9, 129360, Note_on_c, 4, 72, 118
9, 129360, Note_on_c, 4, 84, 118
9, 129426, Note_on_c, 4, 71, 0
9, 129432, Note_on_c, 4, 72, 0
9, 129480, Note_on_c, 4, 84, 0
9, 129480, Note_on_c, 4, 84, 119
9, 129480, Note_on_c, 4, 72, 119
9, 129554, Note_on_c, 4, 72, 0
9, 129600, Note_on_c, 4, 84, 0
9, 129600, Control_c, 4, 7, 127
9, 129600, Note_on_c, 4, 86, 127
9, 129600, Note_on_c, 4, 74, 127
9, 129600, Note_on_c, 4, 83, 100
9, 129686, Note_on_c, 4, 74, 0
9, 129700, Note_on_c, 4, 83, 0
9, 129720, Note_on_c, 4, 86, 0
9, 129720, Note_on_c, 4, 83, 127
9, 129720, Note_on_c, 4, 86, 127
9, 129826, Note_on_c, 4, 83, 0
9, 129840, Note_on_c, 4, 86, 0
9, 129840, Note_on_c, 4, 86, 127
9, 129840, Note_on_c, 4, 83, 127
9, 129940, Note_on_c, 4, 83, 0
9, 129960, Note_on_c, 4, 86, 0
9, 129960, Note_on_c, 4, 83, 127
9, 129960, Note_on_c, 4, 86, 127
9, 130054, Note_on_c, 4, 83, 0
9, 130080, Note_on_c, 4, 86, 0
9, 130080, Note_on_c, 4, 86, 127
9, 130080, Note_on_c, 4, 83, 127
9, 130176, Note_on_c, 4, 83, 0
9, 130200, Note_on_c, 4, 86, 0
9, 130200, Note_on_c, 4, 86, 127
9, 130200, Note_on_c, 4, 83, 127
9, 130302, Note_on_c, 4, 83, 0
9, 130320, Note_on_c, 4, 86, 0
9, 130320, Note_on_c, 4, 83, 127
9, 130320, Note_on_c, 4, 86, 127
9, 130420, Note_on_c, 4, 83, 0
9, 130440, Note_on_c, 4, 86, 0
9, 130440, Note_on_c, 4, 86, 127
9, 130440, Note_on_c, 4, 83, 127
9, 130542, Note_on_c, 4, 83, 0
9, 130560, Note_on_c, 4, 86, 0
9, 130560, Note_on_c, 4, 86, 127
9, 130560, Note_on_c, 4, 83, 127
9, 130666, Note_on_c, 4, 83, 0
9, 130680, Note_on_c, 4, 86, 0
9, 130680, Note_on_c, 4, 86, 127
9, 130680, Note_on_c, 4, 83, 127
9, 130782, Note_on_c, 4, 83, 0
9, 130800, Note_on_c, 4, 86, 0
9, 130800, Note_on_c, 4, 86, 127
9, 130800, Note_on_c, 4, 83, 127
9, 130900, Note_on_c, 4, 83, 0
9, 130920, Note_on_c, 4, 86, 0
9, 130920, Note_on_c, 4, 83, 127
9, 130920, Note_on_c, 4, 86, 127
9, 131014, Note_on_c, 4, 83, 0
9, 131040, Note_on_c, 4, 86, 0
9, 131040, Note_on_c, 4, 83, 127
9, 131040, Note_on_c, 4, 86, 127
9, 131134, Note_on_c, 4, 83, 0
9, 131160, Note_on_c, 4, 86, 0
9, 131160, Note_on_c, 4, 86, 127
9, 131160, Note_on_c, 4, 83, 127
9, 131260, Note_on_c, 4, 83, 0
9, 131280, Note_on_c, 4, 86, 0
9, 131280, Note_on_c, 4, 81, 127
9, 131280, Note_on_c, 4, 84, 127
9, 131376, Note_on_c, 4, 81, 0
9, 131400, Note_on_c, 4, 84, 0
9, 131400, Note_on_c, 4, 84, 127
9, 131400, Note_on_c, 4, 81, 127
9, 131494, Note_on_c, 4, 81, 0
9, 131520, Note_on_c, 4, 84, 0
9, 131520, Note_on_c, 4, 79, 127
9, 131520, Note_on_c, 4, 83, 127
9, 131612, Note_on_c, 4, 79, 0
9, 131640, Note_on_c, 4, 83, 0
9, 131640, Note_on_c, 4, 83, 127
9, 131640, Note_on_c, 4, 79, 127
9, 131730, Note_on_c, 4, 79, 0
9, 131760, Note_on_c, 4, 83, 0
9, 131760, Note_on_c, 4, 83, 127
9, 131760, Note_on_c, 4, 79, 127
9, 131846, Note_on_c, 4, 79, 0
9, 131880, Note_on_c, 4, 83, 0
9, 131880, Note_on_c, 4, 79, 127
9, 131880, Note_on_c, 4, 83, 127
9, 131962, Note_on_c, 4, 79, 0
9, 132000, Note_on_c, 4, 83, 0
9, 132000, Note_on_c, 4, 79, 127
9, 132000, Note_on_c, 4, 83, 127
9, 132084, Note_on_c, 4, 79, 0
9, 132120, Note_on_c, 4, 83, 0
9, 132120, Note_on_c, 4, 83, 127
9, 132120, Note_on_c, 4, 79, 127
9, 132206, Note_on_c, 4, 79, 0
9, 132240, Note_on_c, 4, 83, 0
9, 132240, Note_on_c, 4, 79, 127
9, 132240, Note_on_c, 4, 83, 127
9, 132326, Note_on_c, 4, 79, 0
9, 132360, Note_on_c, 4, 83, 0
9, 132360, Note_on_c, 4, 83, 127
9, 132360, Note_on_c, 4, 79, 127
9, 132440, Note_on_c, 4, 79, 0
9, 132480, Note_on_c, 4, 83, 0
9, 132480, Note_on_c, 4, 79, 127
9, 132480, Note_on_c, 4, 83, 127
9, 132566, Note_on_c, 4, 79, 0
9, 132600, Note_on_c, 4, 83, 0
9, 132600, Note_on_c, 4, 79, 127
9, 132600, Note_on_c, 4, 83, 127
9, 132686, Note_on_c, 4, 79, 0
9, 132720, Note_on_c, 4, 83, 0
9, 132720, Note_on_c, 4, 83, 127
9, 132720, Note_on_c, 4, 79, 127
9, 132806, Note_on_c, 4, 79, 0
9, 132840, Note_on_c, 4, 83, 0
9, 132840, Note_on_c, 4, 79, 127
9, 132840, Note_on_c, 4, 83, 127
9, 132930, Note_on_c, 4, 79, 0
9, 132960, Note_on_c, 4, 83, 0
9, 132960, Note_on_c, 4, 79, 127
9, 132960, Note_on_c, 4, 83, 127
9, 133042, Note_on_c, 4, 79, 0
9, 133080, Note_on_c, 4, 83, 0
9, 133080, Note_on_c, 4, 83, 127
9, 133080, Note_on_c, 4, 79, 127
9, 133176, Note_on_c, 4, 79, 0
9, 133200, Note_on_c, 4, 83, 0
9, 133200, Note_on_c, 4, 78, 127
9, 133200, Note_on_c, 4, 81, 127
9, 133284, Note_on_c, 4, 78, 0
9, 133320, Note_on_c, 4, 81, 0
9, 133320, Note_on_c, 4, 81, 127
9, 133320, Note_on_c, 4, 78, 127
9, 133410, Note_on_c, 4, 78, 0
9, 133440, Note_on_c, 4, 81, 0
9, 133440, Note_on_c, 4, 79, 127
9, 133440, Note_on_c, 4, 76, 127
9, 133544, Note_on_c, 4, 76, 0
9, 133560, Note_on_c, 4, 79, 0
9, 133560, Note_on_c, 4, 76, 127
9, 133560, Note_on_c, 4, 79, 127
9, 133656, Note_on_c, 4, 76, 0
9, 133680, Note_on_c, 4, 79, 0
9, 133680, Note_on_c, 4, 76, 127
9, 133680, Note_on_c, 4, 79, 127
9, 133774, Note_on_c, 4, 76, 0
9, 133800, Note_on_c, 4, 79, 0
9, 133800, Note_on_c, 4, 76, 127
9, 133800, Note_on_c, 4, 79, 127
9, 133890, Note_on_c, 4, 76, 0
9, 133920, Note_on_c, 4, 79, 0
9, 133920, Note_on_c, 4, 84, 127
9, 133920, Note_on_c, 4, 81, 127
9, 134006, Note_on_c, 4, 81, 0
9, 134040, Note_on_c, 4, 84, 0
9, 134040, Note_on_c, 4, 81, 127
9, 134040, Note_on_c, 4, 84, 127
9, 134126, Note_on_c, 4, 81, 0
9, 134160, Note_on_c, 4, 84, 0
9, 134160, Note_on_c, 4, 81, 127
9, 134160, Note_on_c, 4, 84, 127
9, 134240, Note_on_c, 4, 81, 0
9, 134280, Note_on_c, 4, 84, 0
9, 134280, Note_on_c, 4, 81, 127
9, 134280, Note_on_c, 4, 84, 127
9, 134360, Note_on_c, 4, 81, 0
9, 134400, Note_on_c, 4, 84, 0
9, 134400, Note_on_c, 4, 83, 127
9, 134400, Note_on_c, 4, 79, 127
9, 134486, Note_on_c, 4, 79, 0
9, 134520, Note_on_c, 4, 83, 0
9, 134520, Note_on_c, 4, 83, 127
9, 134520, Note_on_c, 4, 79, 127
9, 134600, Note_on_c, 4, 79, 0
9, 134640, Note_on_c, 4, 83, 0
9, 134640, Note_on_c, 4, 79, 127
9, 134640, Note_on_c, 4, 83, 127
9, 134716, Note_on_c, 4, 79, 0
9, 134760, Note_on_c, 4, 83, 0
9, 134760, Note_on_c, 4, 83, 127
9, 134760, Note_on_c, 4, 79, 127
9, 134834, Note_on_c, 4, 79, 0
9, 134880, Note_on_c, 4, 83, 0
9, 134880, Note_on_c, 4, 78, 127
9, 134880, Note_on_c, 4, 81, 127
9, 134964, Note_on_c, 4, 78, 0
9, 135000, Note_on_c, 4, 81, 0
9, 135000, Note_on_c, 4, 81, 127
9, 135000, Note_on_c, 4, 78, 127
9, 135086, Note_on_c, 4, 78, 0
9, 135120, Note_on_c, 4, 81, 0
9, 135120, Note_on_c, 4, 78, 127
9, 135120, Note_on_c, 4, 81, 127
9, 135206, Note_on_c, 4, 78, 0
9, 135240, Note_on_c, 4, 81, 0
9, 135240, Note_on_c, 4, 81, 127
9, 135240, Note_on_c, 4, 78, 127
9, 135334, Note_on_c, 4, 78, 0
9, 135360, Note_on_c, 4, 81, 0
9, 135360, Note_on_c, 4, 83, 127
9, 135360, Note_on_c, 4, 86, 127
9, 135452, Note_on_c, 4, 83, 0
9, 135480, Note_on_c, 4, 86, 0
9, 135480, Note_on_c, 4, 86, 127
9, 135480, Note_on_c, 4, 83, 127
9, 135574, Note_on_c, 4, 83, 0
9, 135600, Note_on_c, 4, 86, 0
9, 135600, Note_on_c, 4, 86, 127
9, 135600, Note_on_c, 4, 83, 127
9, 135692, Note_on_c, 4, 83, 0
9, 135720, Note_on_c, 4, 86, 0
9, 135720, Note_on_c, 4, 86, 127
9, 135720, Note_on_c, 4, 83, 127
9, 135814, Note_on_c, 4, 83, 0
9, 135840, Note_on_c, 4, 86, 0
9, 135840, Note_on_c, 4, 86, 127
9, 135840, Note_on_c, 4, 83, 127
9, 135932, Note_on_c, 4, 83, 0
9, 135960, Note_on_c, 4, 86, 0
9, 135960, Note_on_c, 4, 83, 127
9, 135960, Note_on_c, 4, 86, 127
9, 136046, Note_on_c, 4, 83, 0
9, 136080, Note_on_c, 4, 86, 0
9, 136080, Note_on_c, 4, 83, 127
9, 136080, Note_on_c, 4, 86, 127
9, 136164, Note_on_c, 4, 83, 0
9, 136200, Note_on_c, 4, 86, 0
9, 136200, Note_on_c, 4, 83, 127
9, 136200, Note_on_c, 4, 86, 127
9, 136282, Note_on_c, 4, 83, 0
9, 136320, Note_on_c, 4, 86, 0
9, 136320, Note_on_c, 4, 83, 127
9, 136320, Note_on_c, 4, 86, 127
9, 136400, Note_on_c, 4, 83, 0
9, 136440, Note_on_c, 4, 86, 0
9, 136440, Note_on_c, 4, 86, 127
9, 136440, Note_on_c, 4, 83, 127
9, 136522, Note_on_c, 4, 83, 0
9, 136560, Note_on_c, 4, 86, 0
9, 136560, Note_on_c, 4, 83, 127
9, 136560, Note_on_c, 4, 86, 127
9, 136640, Note_on_c, 4, 83, 0
9, 136680, Note_on_c, 4, 86, 0
9, 136680, Note_on_c, 4, 83, 127
9, 136680, Note_on_c, 4, 86, 127
9, 136766, Note_on_c, 4, 83, 0
9, 136800, Note_on_c, 4, 86, 0
9, 136800, Note_on_c, 4, 83, 127
9, 136800, Note_on_c, 4, 86, 127
9, 136884, Note_on_c, 4, 83, 0
9, 136920, Note_on_c, 4, 86, 0
9, 136920, Note_on_c, 4, 86, 127
9, 136920, Note_on_c, 4, 83, 127
9, 137010, Note_on_c, 4, 83, 0
9, 137040, Note_on_c, 4, 86, 0
9, 137040, Note_on_c, 4, 81, 127
9, 137040, Note_on_c, 4, 84, 127
9, 137122, Note_on_c, 4, 81, 0
9, 137160, Note_on_c, 4, 84, 0
9, 137160, Note_on_c, 4, 84, 127
9, 137160, Note_on_c, 4, 81, 127
9, 137242, Note_on_c, 4, 81, 0
9, 137280, Note_on_c, 4, 84, 0
9, 137280, Note_on_c, 4, 79, 127
9, 137280, Note_on_c, 4, 83, 127
9, 137362, Note_on_c, 4, 79, 0
9, 137400, Note_on_c, 4, 83, 0
9, 137400, Note_on_c, 4, 83, 127
9, 137400, Note_on_c, 4, 79, 127
9, 137486, Note_on_c, 4, 79, 0
9, 137520, Note_on_c, 4, 83, 0
9, 137520, Note_on_c, 4, 83, 127
9, 137520, Note_on_c, 4, 79, 127
9, 137604, Note_on_c, 4, 79, 0
9, 137640, Note_on_c, 4, 83, 0
9, 137640, Note_on_c, 4, 83, 127
9, 137640, Note_on_c, 4, 79, 127
9, 137722, Note_on_c, 4, 79, 0
9, 137760, Note_on_c, 4, 83, 0
9, 137760, Note_on_c, 4, 83, 127
9, 137760, Note_on_c, 4, 79, 127
9, 137844, Note_on_c, 4, 79, 0
9, 137880, Note_on_c, 4, 83, 0
9, 137880, Note_on_c, 4, 79, 127
9, 137880, Note_on_c, 4, 83, 127
9, 137956, Note_on_c, 4, 79, 0
9, 138000, Note_on_c, 4, 83, 0
9, 138000, Note_on_c, 4, 79, 127
9, 138000, Note_on_c, 4, 83, 127
9, 138082, Note_on_c, 4, 79, 0
9, 138120, Note_on_c, 4, 83, 0
9, 138120, Note_on_c, 4, 79, 127
9, 138120, Note_on_c, 4, 83, 127
9, 138196, Note_on_c, 4, 79, 0
9, 138240, Note_on_c, 4, 83, 0
9, 138240, Note_on_c, 4, 79, 127
9, 138240, Note_on_c, 4, 83, 127
9, 138316, Note_on_c, 4, 79, 0
9, 138360, Note_on_c, 4, 83, 0
9, 138360, Note_on_c, 4, 83, 127
9, 138360, Note_on_c, 4, 79, 127
9, 138436, Note_on_c, 4, 79, 0
9, 138480, Note_on_c, 4, 83, 0
9, 138480, Note_on_c, 4, 79, 127
9, 138480, Note_on_c, 4, 83, 127
9, 138562, Note_on_c, 4, 79, 0
9, 138600, Note_on_c, 4, 83, 0
9, 138600, Note_on_c, 4, 79, 127
9, 138600, Note_on_c, 4, 83, 127
9, 138676, Note_on_c, 4, 79, 0
9, 138720, Note_on_c, 4, 83, 0
9, 138720, Note_on_c, 4, 79, 127
9, 138720, Note_on_c, 4, 83, 127
9, 138804, Note_on_c, 4, 79, 0
9, 138840, Note_on_c, 4, 83, 0
9, 138840, Note_on_c, 4, 83, 127
9, 138840, Note_on_c, 4, 79, 127
9, 138922, Note_on_c, 4, 79, 0
9, 138960, Note_on_c, 4, 83, 0
9, 138960, Note_on_c, 4, 78, 127
9, 138960, Note_on_c, 4, 81, 127
9, 139042, Note_on_c, 4, 78, 0
9, 139080, Note_on_c, 4, 81, 0
9, 139080, Note_on_c, 4, 81, 127
9, 139080, Note_on_c, 4, 78, 127
9, 139166, Note_on_c, 4, 78, 0
9, 139200, Note_on_c, 4, 81, 0
9, 139200, Note_on_c, 4, 76, 127
9, 139200, Note_on_c, 4, 79, 127
9, 139300, Note_on_c, 4, 76, 0
9, 139320, Note_on_c, 4, 79, 0
9, 139320, Note_on_c, 4, 79, 127
9, 139320, Note_on_c, 4, 76, 127
9, 139412, Note_on_c, 4, 76, 0
9, 139440, Note_on_c, 4, 79, 0
9, 139440, Note_on_c, 4, 79, 127
9, 139440, Note_on_c, 4, 76, 127
9, 139536, Note_on_c, 4, 76, 0
9, 139560, Note_on_c, 4, 79, 0
9, 139560, Note_on_c, 4, 79, 127
9, 139560, Note_on_c, 4, 76, 127
9, 139642, Note_on_c, 4, 76, 0
9, 139680, Note_on_c, 4, 79, 0
9, 139680, Note_on_c, 4, 81, 127
9, 139680, Note_on_c, 4, 84, 127
9, 139774, Note_on_c, 4, 81, 0
9, 139800, Note_on_c, 4, 84, 0
9, 139800, Note_on_c, 4, 81, 127
9, 139800, Note_on_c, 4, 84, 127
9, 139880, Note_on_c, 4, 81, 0
9, 139920, Note_on_c, 4, 84, 0
9, 139920, Note_on_c, 4, 81, 127
9, 139920, Note_on_c, 4, 84, 127
9, 139996, Note_on_c, 4, 81, 0
9, 140040, Note_on_c, 4, 84, 0
9, 140040, Note_on_c, 4, 81, 127
9, 140040, Note_on_c, 4, 84, 127
9, 140126, Note_on_c, 4, 81, 0
9, 140160, Note_on_c, 4, 84, 0
9, 140160, Note_on_c, 4, 83, 127
9, 140160, Note_on_c, 4, 79, 127
9, 140236, Note_on_c, 4, 79, 0
9, 140280, Note_on_c, 4, 83, 0
9, 140280, Note_on_c, 4, 83, 127
9, 140280, Note_on_c, 4, 79, 127
9, 140360, Note_on_c, 4, 79, 0
9, 140400, Note_on_c, 4, 83, 0
9, 140400, Note_on_c, 4, 83, 127
9, 140400, Note_on_c, 4, 79, 127
9, 140474, Note_on_c, 4, 79, 0
9, 140520, Note_on_c, 4, 83, 0
9, 140520, Note_on_c, 4, 83, 127
9, 140520, Note_on_c, 4, 79, 127
9, 140594, Note_on_c, 4, 79, 0
9, 140640, Note_on_c, 4, 83, 0
9, 140640, Note_on_c, 4, 78, 127
9, 140640, Note_on_c, 4, 81, 127
9, 140726, Note_on_c, 4, 78, 0
9, 140760, Note_on_c, 4, 81, 0
9, 140760, Note_on_c, 4, 81, 127
9, 140760, Note_on_c, 4, 78, 127
9, 140836, Note_on_c, 4, 78, 0
9, 140880, Note_on_c, 4, 81, 0
9, 140880, Note_on_c, 4, 78, 127
9, 140880, Note_on_c, 4, 81, 127
9, 140960, Note_on_c, 4, 78, 0
9, 141000, Note_on_c, 4, 81, 0
9, 141000, Note_on_c, 4, 81, 127
9, 141000, Note_on_c, 4, 78, 127
9, 141082, Note_on_c, 4, 78, 0
9, 141120, Note_on_c, 4, 81, 0
9, 141120, Note_on_c, 4, 79, 127
9, 141134, Control_c, 4, 7, 90
9, 141240, Note_on_c, 4, 79, 0
9, 141360, Note_on_c, 4, 62, 96
9, 141360, Note_on_c, 4, 59, 96
9, 141742, Note_on_c, 4, 59, 0
9, 141742, Note_on_c, 4, 62, 0
9, 141840, Note_on_c, 4, 62, 96
9, 141840, Note_on_c, 4, 59, 96
9, 142206, Note_on_c, 4, 62, 0
9, 142212, Note_on_c, 4, 59, 0
9, 142320, Note_on_c, 4, 59, 96
9, 142320, Note_on_c, 4, 62, 96
9, 142392, Note_on_c, 4, 62, 0
9, 142392, Note_on_c, 4, 59, 0
9, 142560, Note_on_c, 4, 62, 96
9, 142560, Note_on_c, 4, 59, 96
9, 142626, Note_on_c, 4, 62, 0
9, 142632, Note_on_c, 4, 59, 0
9, 142800, Note_on_c, 4, 59, 96
9, 142800, Note_on_c, 4, 62, 96
9, 142864, Note_on_c, 4, 62, 0
9, 142874, Note_on_c, 4, 59, 0
9, 143040, Note_on_c, 4, 66, 96
9, 143040, Note_on_c, 4, 60, 96
9, 143040, Note_on_c, 4, 62, 96
9, 143090, Note_on_c, 4, 66, 0
9, 143112, Note_on_c, 4, 62, 0
9, 143112, Note_on_c, 4, 60, 0
9, 143280, Note_on_c, 4, 75, 96
9, 143280, Note_on_c, 4, 63, 96
9, 143584, Note_on_c, 4, 63, 0
9, 143632, Note_on_c, 4, 75, 0
9, 143760, Note_on_c, 4, 63, 96
9, 143760, Note_on_c, 4, 75, 96
9, 143844, Note_on_c, 4, 75, 0
9, 143844, Note_on_c, 4, 63, 0
9, 144000, Note_on_c, 4, 62, 96
9, 144000, Note_on_c, 4, 74, 96
9, 144074, Note_on_c, 4, 62, 0
9, 144080, Note_on_c, 4, 74, 0
9, 144240, Note_on_c, 4, 60, 96
9, 144240, Note_on_c, 4, 72, 96
9, 144318, Note_on_c, 4, 72, 0
9, 144330, Note_on_c, 4, 60, 0
9, 144480, Note_on_c, 4, 71, 96
9, 144480, Note_on_c, 4, 59, 96
9, 144542, Note_on_c, 4, 59, 0
9, 144562, Note_on_c, 4, 71, 0
9, 144720, Note_on_c, 4, 69, 96
9, 144720, Note_on_c, 4, 57, 96
9, 144798, Note_on_c, 4, 69, 0
9, 144802, Note_on_c, 4, 57, 0
9, 144960, Note_on_c, 4, 55, 96
9, 144960, Note_on_c, 4, 67, 96
9, 145040, Note_on_c, 4, 55, 0
9, 145046, Note_on_c, 4, 67, 0
9, 145200, Note_on_c, 4, 59, 96
9, 145200, Note_on_c, 4, 62, 96
9, 145504, Note_on_c, 4, 62, 0
9, 145504, Note_on_c, 4, 59, 0
9, 145680, Note_on_c, 4, 62, 96
9, 145680, Note_on_c, 4, 59, 96
9, 146050, Note_on_c, 4, 62, 0
9, 146052, Note_on_c, 4, 59, 0
9, 146160, Note_on_c, 4, 59, 96
9, 146160, Note_on_c, 4, 62, 96
9, 146222, Note_on_c, 4, 62, 0
9, 146226, Note_on_c, 4, 59, 0
9, 146400, Note_on_c, 4, 59, 96
9, 146400, Note_on_c, 4, 62, 96
9, 146466, Note_on_c, 4, 59, 0
9, 146472, Note_on_c, 4, 62, 0
9, 146640, Note_on_c, 4, 59, 96
9, 146640, Note_on_c, 4, 62, 96
9, 146712, Note_on_c, 4, 62, 0
9, 146716, Note_on_c, 4, 59, 0
9, 146880, Note_on_c, 4, 62, 96
9, 146880, Note_on_c, 4, 60, 96
9, 146880, Note_on_c, 4, 66, 96
9, 146952, Note_on_c, 4, 60, 0
9, 146952, Note_on_c, 4, 62, 0
9, 146956, Note_on_c, 4, 66, 0
9, 147120, Note_on_c, 4, 75, 96
9, 147120, Note_on_c, 4, 63, 96
9, 147432, Note_on_c, 4, 63, 0
9, 147486, Note_on_c, 4, 75, 0
9, 147600, Note_on_c, 4, 63, 96
9, 147600, Note_on_c, 4, 75, 96
9, 147680, Note_on_c, 4, 63, 0
9, 147684, Note_on_c, 4, 75, 0
9, 147840, Note_on_c, 4, 74, 96
9, 147840, Note_on_c, 4, 62, 96
9, 147914, Note_on_c, 4, 62, 0
9, 147930, Note_on_c, 4, 74, 0
9, 148080, Note_on_c, 4, 60, 96
9, 148080, Note_on_c, 4, 72, 96
9, 148158, Note_on_c, 4, 72, 0
9, 148166, Note_on_c, 4, 60, 0
9, 148320, Note_on_c, 4, 71, 96
9, 148320, Note_on_c, 4, 59, 96
9, 148396, Note_on_c, 4, 59, 0
9, 148396, Note_on_c, 4, 71, 0
9, 148560, Note_on_c, 4, 69, 96
9, 148560, Note_on_c, 4, 57, 96
9, 148640, Note_on_c, 4, 69, 0
9, 148646, Note_on_c, 4, 57, 0
9, 148800, Note_on_c, 4, 68, 96
9, 148800, Note_on_c, 4, 56, 96
9, 148852, Note_on_c, 4, 68, 0
9, 148876, Note_on_c, 4, 56, 0
9, 149040, Note_on_c, 4, 77, 96
9, 149040, Note_on_c, 4, 65, 96
9, 149382, Note_on_c, 4, 77, 0
9, 149386, Note_on_c, 4, 65, 0
9, 149520, Note_on_c, 4, 65, 96
9, 149520, Note_on_c, 4, 77, 96
9, 149590, Note_on_c, 4, 65, 0
9, 149600, Note_on_c, 4, 77, 0
9, 149760, Note_on_c, 4, 76, 96
9, 149760, Note_on_c, 4, 64, 96
9, 149834, Note_on_c, 4, 64, 0
9, 149836, Note_on_c, 4, 76, 0
9, 150000, Note_on_c, 4, 62, 96
9, 150000, Note_on_c, 4, 74, 96
9, 150072, Note_on_c, 4, 74, 0
9, 150076, Note_on_c, 4, 62, 0
9, 150240, Note_on_c, 4, 72, 96
9, 150240, Note_on_c, 4, 60, 96
9, 150312, Note_on_c, 4, 72, 0
9, 150316, Note_on_c, 4, 60, 0
9, 150480, Note_on_c, 4, 71, 96
9, 150480, Note_on_c, 4, 59, 96
9, 150554, Note_on_c, 4, 59, 0
9, 150560, Note_on_c, 4, 71, 0
9, 150720, Note_on_c, 4, 70, 96
9, 150720, Note_on_c, 4, 58, 96
9, 150762, Note_on_c, 4, 70, 0
9, 150794, Note_on_c, 4, 58, 0
9, 150960, Note_on_c, 4, 79, 96
9, 150960, Note_on_c, 4, 67, 96
9, 151294, Note_on_c, 4, 79, 0
9, 151350, Note_on_c, 4, 67, 0
9, 151440, Note_on_c, 4, 79, 96
9, 151440, Note_on_c, 4, 67, 96
9, 151502, Note_on_c, 4, 67, 0
9, 151518, Note_on_c, 4, 79, 0
9, 151680, Note_on_c, 4, 65, 96
9, 151680, Note_on_c, 4, 77, 96
9, 151740, Note_on_c, 4, 77, 0
9, 151754, Note_on_c, 4, 65, 0
9, 151920, Note_on_c, 4, 64, 96
9, 151920, Note_on_c, 4, 76, 96
9, 151994, Note_on_c, 4, 64, 0
9, 152000, Note_on_c, 4, 76, 0
9, 152160, Note_on_c, 4, 74, 96
9, 152160, Note_on_c, 4, 62, 96
9, 152230, Note_on_c, 4, 62, 0
9, 152232, Note_on_c, 4, 74, 0
9, 152400, Note_on_c, 4, 72, 96
9, 152400, Note_on_c, 4, 60, 96
9, 152472, Note_on_c, 4, 72, 0
9, 152480, Note_on_c, 4, 60, 0
9, 152640, Note_on_c, 4, 71, 96
9, 152640, Note_on_c, 4, 59, 96
9, 152716, Note_on_c, 4, 71, 0
9, 152720, Note_on_c, 4, 59, 0
9, 155040, Note_on_c, 4, 62, 58
9, 155040, Note_on_c, 4, 65, 58
9, 155162, Note_on_c, 4, 62, 0
9, 155194, Note_on_c, 4, 65, 0
9, 156000, Note_on_c, 4, 65, 58
9, 156000, Note_on_c, 4, 62, 58
9, 156134, Note_on_c, 4, 62, 0
9, 156186, Note_on_c, 4, 65, 0
9, 156960, Note_on_c, 4, 62, 58
9, 156960, Note_on_c, 4, 65, 58
9, 157142, Note_on_c, 4, 62, 0
9, 157150, Note_on_c, 4, 65, 0
9, 157920, Note_on_c, 4, 62, 58
9, 157920, Note_on_c, 4, 65, 58
9, 158080, Note_on_c, 4, 62, 0
9, 158120, Note_on_c, 4, 65, 0
9, 159360, Note_on_c, 4, 59, 80
9, 159440, Note_on_c, 4, 59, 0
9, 159440, Note_on_c, 4, 60, 80
9, 159520, Note_on_c, 4, 60, 0
9, 159520, Note_on_c, 4, 59, 80
9, 159600, Note_on_c, 4, 59, 0
9, 159600, Note_on_c, 4, 60, 80
9, 159680, Note_on_c, 4, 60, 0
9, 159680, Note_on_c, 4, 59, 80
9, 159760, Note_on_c, 4, 59, 0
9, 159760, Note_on_c, 4, 60, 80
9, 159840, Note_on_c, 4, 60, 0
9, 159840, Note_on_c, 4, 59, 80
9, 159920, Note_on_c, 4, 59, 0
9, 159920, Note_on_c, 4, 60, 80
9, 160000, Note_on_c, 4, 60, 0
9, 160000, Note_on_c, 4, 59, 80
9, 160080, Note_on_c, 4, 59, 0
9, 160080, Note_on_c, 4, 60, 80
9, 160160, Note_on_c, 4, 60, 0
9, 160160, Note_on_c, 4, 57, 80
9, 160240, Note_on_c, 4, 57, 0
9, 160240, Note_on_c, 4, 59, 80
9, 160320, Note_on_c, 4, 59, 0
9, 160320, Control_c, 4, 7, 110
9, 160320, Note_on_c, 4, 60, 96
9, 160320, Note_on_c, 4, 55, 96
9, 160404, Note_on_c, 4, 60, 0
9, 160410, Note_on_c, 4, 55, 0
9, 160440, Note_on_c, 4, 55, 96
9, 160524, Note_on_c, 4, 55, 0
9, 160560, Note_on_c, 4, 57, 96
9, 160644, Note_on_c, 4, 57, 0
9, 160680, Note_on_c, 4, 59, 96
9, 160764, Note_on_c, 4, 59, 0
9, 160800, Note_on_c, 4, 60, 96
9, 160884, Note_on_c, 4, 60, 0
9, 160920, Note_on_c, 4, 62, 96
9, 161004, Note_on_c, 4, 62, 0
9, 161040, Note_on_c, 4, 64, 96
9, 161124, Note_on_c, 4, 64, 0
9, 161160, Note_on_c, 4, 62, 96
9, 161244, Note_on_c, 4, 62, 0
9, 161280, Note_on_c, 4, 60, 96
9, 161280, Note_on_c, 4, 55, 96
9, 161394, Note_on_c, 4, 55, 0
9, 161394, Note_on_c, 4, 60, 0
9, 161400, Note_on_c, 4, 55, 96
9, 161484, Note_on_c, 4, 55, 0
9, 161520, Note_on_c, 4, 57, 96
9, 161604, Note_on_c, 4, 57, 0
9, 161640, Note_on_c, 4, 59, 96
9, 161724, Note_on_c, 4, 59, 0
9, 161760, Note_on_c, 4, 60, 96
9, 161844, Note_on_c, 4, 60, 0
9, 161880, Note_on_c, 4, 62, 96
9, 161964, Note_on_c, 4, 62, 0
9, 162000, Note_on_c, 4, 64, 96
9, 162084, Note_on_c, 4, 64, 0
9, 162120, Note_on_c, 4, 62, 80
9, 162216, Note_on_c, 4, 62, 0
9, 162240, Note_on_c, 4, 60, 96
9, 162240, Note_on_c, 4, 55, 96
9, 162354, Note_on_c, 4, 55, 0
9, 162354, Note_on_c, 4, 60, 0
9, 162360, Note_on_c, 4, 55, 96
9, 162444, Note_on_c, 4, 55, 0
9, 162480, Note_on_c, 4, 57, 96
9, 162564, Note_on_c, 4, 57, 0
9, 162600, Note_on_c, 4, 59, 96
9, 162684, Note_on_c, 4, 59, 0
9, 162720, Note_on_c, 4, 60, 96
9, 162720, Note_on_c, 4, 55, 96
9, 162804, Note_on_c, 4, 55, 0
9, 162804, Note_on_c, 4, 60, 0
9, 162840, Note_on_c, 4, 62, 96
9, 162924, Note_on_c, 4, 62, 0
9, 162960, Note_on_c, 4, 64, 96
9, 163044, Note_on_c, 4, 64, 0
9, 163080, Note_on_c, 4, 65, 80
9, 163176, Note_on_c, 4, 65, 0
9, 163200, Note_on_c, 4, 67, 96
9, 163200, Note_on_c, 4, 55, 96
9, 163284, Note_on_c, 4, 67, 0
9, 163314, Note_on_c, 4, 55, 0
9, 163320, Note_on_c, 4, 66, 96
9, 163404, Note_on_c, 4, 66, 0
9, 163440, Note_on_c, 4, 69, 96
9, 163524, Note_on_c, 4, 69, 0
9, 163560, Note_on_c, 4, 67, 96
9, 163644, Note_on_c, 4, 67, 0
9, 163680, Note_on_c, 4, 65, 96
9, 163764, Note_on_c, 4, 65, 0
9, 163800, Note_on_c, 4, 64, 96
9, 163884, Note_on_c, 4, 64, 0
9, 163920, Note_on_c, 4, 62, 96
9, 164004, Note_on_c, 4, 62, 0
9, 164040, Note_on_c, 4, 60, 96
9, 164124, Note_on_c, 4, 60, 0
9, 164160, Note_on_c, 4, 62, 96
9, 164160, Note_on_c, 4, 57, 96
9, 164274, Note_on_c, 4, 57, 0
9, 164274, Note_on_c, 4, 62, 0
9, 164280, Note_on_c, 4, 57, 80
9, 164376, Note_on_c, 4, 57, 0
9, 164400, Note_on_c, 4, 59, 96
9, 164484, Note_on_c, 4, 59, 0
9, 164520, Note_on_c, 4, 61, 96
9, 164604, Note_on_c, 4, 61, 0
9, 164640, Note_on_c, 4, 62, 96
9, 164724, Note_on_c, 4, 62, 0
9, 164760, Note_on_c, 4, 64, 96
9, 164844, Note_on_c, 4, 64, 0
9, 164880, Note_on_c, 4, 65, 96
9, 164964, Note_on_c, 4, 65, 0
9, 165000, Note_on_c, 4, 64, 96
9, 165084, Note_on_c, 4, 64, 0
9, 165120, Note_on_c, 4, 62, 96
9, 165120, Note_on_c, 4, 57, 96
9, 165234, Note_on_c, 4, 57, 0
9, 165234, Note_on_c, 4, 62, 0
9, 165240, Note_on_c, 4, 57, 80
9, 165336, Note_on_c, 4, 57, 0
9, 165360, Note_on_c, 4, 59, 96
9, 165444, Note_on_c, 4, 59, 0
9, 165480, Note_on_c, 4, 61, 96
9, 165564, Note_on_c, 4, 61, 0
9, 165600, Note_on_c, 4, 62, 96
9, 165684, Note_on_c, 4, 62, 0
9, 165720, Note_on_c, 4, 64, 96
9, 165804, Note_on_c, 4, 64, 0
9, 165840, Note_on_c, 4, 65, 96
9, 165924, Note_on_c, 4, 65, 0
9, 165960, Note_on_c, 4, 64, 96
9, 166044, Note_on_c, 4, 64, 0
9, 166080, Note_on_c, 4, 62, 96
9, 166080, Note_on_c, 4, 55, 96
9, 166182, Note_on_c, 4, 55, 0
9, 166182, Note_on_c, 4, 62, 0
9, 166200, Note_on_c, 4, 62, 96
9, 166284, Note_on_c, 4, 62, 0
9, 166320, Note_on_c, 4, 64, 96
9, 166404, Note_on_c, 4, 64, 0
9, 166440, Note_on_c, 4, 65, 96
9, 166524, Note_on_c, 4, 65, 0
9, 166560, Note_on_c, 4, 67, 96
9, 166560, Note_on_c, 4, 55, 96
9, 166560, Note_on_c, 4, 62, 96
9, 166644, Note_on_c, 4, 67, 0
9, 166660, Note_on_c, 4, 55, 0
9, 166666, Note_on_c, 4, 62, 0
9, 166680, Note_on_c, 4, 69, 96
9, 166764, Note_on_c, 4, 69, 0
9, 166800, Note_on_c, 4, 71, 96
9, 166884, Note_on_c, 4, 71, 0
9, 166920, Note_on_c, 4, 72, 96
9, 167004, Note_on_c, 4, 72, 0
9, 167040, Note_on_c, 4, 74, 96
9, 167040, Note_on_c, 4, 55, 96
9, 167040, Note_on_c, 4, 62, 96
9, 167124, Note_on_c, 4, 74, 0
9, 167130, Note_on_c, 4, 55, 0
9, 167134, Note_on_c, 4, 62, 0
9, 167160, Note_on_c, 4, 76, 96
9, 167244, Note_on_c, 4, 76, 0
9, 167280, Note_on_c, 4, 74, 96
9, 167364, Note_on_c, 4, 74, 0
9, 167400, Note_on_c, 4, 72, 96
9, 167484, Note_on_c, 4, 72, 0
9, 167520, Note_on_c, 4, 71, 96
9, 167604, Note_on_c, 4, 71, 0
9, 167640, Note_on_c, 4, 69, 96
9, 167724, Note_on_c, 4, 69, 0
9, 167760, Note_on_c, 4, 67, 96
9, 167844, Note_on_c, 4, 67, 0
9, 167880, Note_on_c, 4, 65, 96
9, 167964, Note_on_c, 4, 65, 0
9, 168000, Control_c, 4, 7, 127
9, 168000, Note_on_c, 4, 63, 127
9, 168000, Note_on_c, 4, 60, 127
9, 168084, Note_on_c, 4, 60, 0
9, 168084, Note_on_c, 4, 63, 0
9, 168120, Note_on_c, 4, 67, 127
9, 168120, Note_on_c, 4, 55, 127
9, 168204, Note_on_c, 4, 67, 0
9, 168210, Note_on_c, 4, 55, 0
9, 168240, Note_on_c, 4, 57, 127
9, 168240, Note_on_c, 4, 69, 127
9, 168320, Note_on_c, 4, 57, 0
9, 168324, Note_on_c, 4, 69, 0
9, 168360, Note_on_c, 4, 59, 127
9, 168360, Note_on_c, 4, 71, 127
9, 168434, Note_on_c, 4, 59, 0
9, 168444, Note_on_c, 4, 71, 0
9, 168480, Note_on_c, 4, 72, 127
9, 168480, Note_on_c, 4, 60, 127
9, 168564, Note_on_c, 4, 72, 0
9, 168570, Note_on_c, 4, 60, 0
9, 168600, Note_on_c, 4, 62, 127
9, 168600, Note_on_c, 4, 74, 127
9, 168674, Note_on_c, 4, 62, 0
9, 168684, Note_on_c, 4, 74, 0
9, 168720, Note_on_c, 4, 75, 127
9, 168720, Note_on_c, 4, 63, 127
9, 168804, Note_on_c, 4, 75, 0
9, 168812, Note_on_c, 4, 63, 0
9, 168840, Note_on_c, 4, 62, 127
9, 168840, Note_on_c, 4, 74, 127
9, 168916, Note_on_c, 4, 62, 0
9, 168924, Note_on_c, 4, 74, 0
9, 168960, Note_on_c, 4, 60, 127
9, 168960, Note_on_c, 4, 72, 127
9, 169036, Note_on_c, 4, 60, 0
9, 169044, Note_on_c, 4, 72, 0
9, 169080, Note_on_c, 4, 67, 127
9, 169080, Note_on_c, 4, 55, 127
9, 169164, Note_on_c, 4, 55, 0
9, 169164, Note_on_c, 4, 67, 0
9, 169200, Note_on_c, 4, 57, 127
9, 169200, Note_on_c, 4, 69, 127
9, 169282, Note_on_c, 4, 57, 0
9, 169284, Note_on_c, 4, 69, 0
9, 169320, Note_on_c, 4, 59, 127
9, 169320, Note_on_c, 4, 71, 127
9, 169396, Note_on_c, 4, 59, 0
9, 169404, Note_on_c, 4, 71, 0
9, 169440, Note_on_c, 4, 72, 127
9, 169440, Note_on_c, 4, 60, 127
9, 169524, Note_on_c, 4, 72, 0
9, 169532, Note_on_c, 4, 60, 0
9, 169560, Note_on_c, 4, 62, 127
9, 169560, Note_on_c, 4, 74, 127
9, 169640, Note_on_c, 4, 62, 0
9, 169644, Note_on_c, 4, 74, 0
9, 169680, Note_on_c, 4, 63, 127
9, 169680, Note_on_c, 4, 75, 127
9, 169764, Note_on_c, 4, 75, 0
9, 169764, Note_on_c, 4, 63, 0
9, 169800, Note_on_c, 4, 62, 127
9, 169800, Note_on_c, 4, 74, 127
9, 169876, Note_on_c, 4, 62, 0
9, 169884, Note_on_c, 4, 74, 0
9, 169920, Note_on_c, 4, 60, 127
9, 169920, Note_on_c, 4, 72, 127
9, 170002, Note_on_c, 4, 60, 0
9, 170004, Note_on_c, 4, 72, 0
9, 170040, Note_on_c, 4, 67, 127
9, 170040, Note_on_c, 4, 55, 127
9, 170116, Note_on_c, 4, 55, 0
9, 170124, Note_on_c, 4, 67, 0
9, 170160, Note_on_c, 4, 57, 127
9, 170160, Note_on_c, 4, 69, 127
9, 170240, Note_on_c, 4, 57, 0
9, 170244, Note_on_c, 4, 69, 0
9, 170280, Note_on_c, 4, 59, 127
9, 170280, Note_on_c, 4, 71, 127
9, 170352, Note_on_c, 4, 59, 0
9, 170364, Note_on_c, 4, 71, 0
9, 170400, Note_on_c, 4, 60, 127
9, 170400, Note_on_c, 4, 72, 127
9, 170470, Note_on_c, 4, 60, 0
9, 170484, Note_on_c, 4, 72, 0
9, 170520, Note_on_c, 4, 62, 127
9, 170520, Note_on_c, 4, 74, 127
9, 170586, Note_on_c, 4, 62, 0
9, 170604, Note_on_c, 4, 74, 0
9, 170640, Note_on_c, 4, 75, 127
9, 170640, Note_on_c, 4, 63, 127
9, 170724, Note_on_c, 4, 75, 0
9, 170726, Note_on_c, 4, 63, 0
9, 170760, Note_on_c, 4, 65, 127
9, 170760, Note_on_c, 4, 77, 127
9, 170836, Note_on_c, 4, 65, 0
9, 170844, Note_on_c, 4, 77, 0
9, 170880, Note_on_c, 4, 67, 127
9, 170880, Note_on_c, 4, 79, 127
9, 170962, Note_on_c, 4, 67, 0
9, 170964, Note_on_c, 4, 79, 0
9, 171000, Note_on_c, 4, 78, 127
9, 171000, Note_on_c, 4, 66, 127
9, 171082, Note_on_c, 4, 66, 0
9, 171084, Note_on_c, 4, 78, 0
9, 171120, Note_on_c, 4, 80, 127
9, 171120, Note_on_c, 4, 68, 127
9, 171204, Note_on_c, 4, 80, 0
9, 171212, Note_on_c, 4, 68, 0
9, 171240, Note_on_c, 4, 67, 127
9, 171240, Note_on_c, 4, 79, 127
9, 171322, Note_on_c, 4, 67, 0
9, 171324, Note_on_c, 4, 79, 0
9, 171360, Note_on_c, 4, 77, 127
9, 171360, Note_on_c, 4, 65, 127
9, 171444, Note_on_c, 4, 77, 0
9, 171454, Note_on_c, 4, 65, 0
9, 171480, Note_on_c, 4, 75, 127
9, 171480, Note_on_c, 4, 63, 127
9, 171564, Note_on_c, 4, 75, 0
9, 171566, Note_on_c, 4, 63, 0
9, 171600, Note_on_c, 4, 62, 127
9, 171600, Note_on_c, 4, 74, 127
9, 171680, Note_on_c, 4, 62, 0
9, 171684, Note_on_c, 4, 74, 0
9, 171720, Note_on_c, 4, 72, 127
9, 171720, Note_on_c, 4, 60, 127
9, 171804, Note_on_c, 4, 72, 0
9, 171806, Note_on_c, 4, 60, 0
9, 171840, Note_on_c, 4, 74, 127
9, 171840, Note_on_c, 4, 62, 127
9, 171914, Note_on_c, 4, 62, 0
9, 171924, Note_on_c, 4, 74, 0
9, 171960, Note_on_c, 4, 72, 127
9, 171960, Note_on_c, 4, 60, 127
9, 172044, Note_on_c, 4, 72, 0
9, 172046, Note_on_c, 4, 60, 0
9, 172080, Note_on_c, 4, 70, 127
9, 172080, Note_on_c, 4, 58, 127
9, 172156, Note_on_c, 4, 58, 0
9, 172164, Note_on_c, 4, 70, 0
9, 172200, Note_on_c, 4, 69, 127
9, 172200, Note_on_c, 4, 57, 127
9, 172284, Note_on_c, 4, 69, 0
9, 172290, Note_on_c, 4, 57, 0
9, 172320, Note_on_c, 4, 58, 127
9, 172320, Note_on_c, 4, 70, 127
9, 172396, Note_on_c, 4, 58, 0
9, 172404, Note_on_c, 4, 70, 0
9, 172440, Note_on_c, 4, 60, 127
9, 172440, Note_on_c, 4, 72, 127
9, 172512, Note_on_c, 4, 60, 0
9, 172524, Note_on_c, 4, 72, 0
9, 172560, Note_on_c, 4, 74, 127
9, 172560, Note_on_c, 4, 62, 127
9, 172626, Note_on_c, 4, 62, 0
9, 172644, Note_on_c, 4, 74, 0
9, 172680, Note_on_c, 4, 63, 127
9, 172680, Note_on_c, 4, 75, 127
9, 172756, Note_on_c, 4, 63, 0
9, 172764, Note_on_c, 4, 75, 0
9, 172800, Note_on_c, 4, 77, 127
9, 172800, Note_on_c, 4, 65, 127
9, 172884, Note_on_c, 4, 65, 0
9, 172884, Note_on_c, 4, 77, 0
9, 172920, Note_on_c, 4, 63, 127
9, 172920, Note_on_c, 4, 75, 127
9, 173000, Note_on_c, 4, 63, 0
9, 173004, Note_on_c, 4, 75, 0
9, 173040, Note_on_c, 4, 62, 127
9, 173040, Note_on_c, 4, 74, 127
9, 173124, Note_on_c, 4, 74, 0
9, 173124, Note_on_c, 4, 62, 0
9, 173160, Note_on_c, 4, 60, 127
9, 173160, Note_on_c, 4, 72, 127
9, 173236, Note_on_c, 4, 60, 0
9, 173244, Note_on_c, 4, 72, 0
9, 173280, Note_on_c, 4, 74, 127
9, 173280, Note_on_c, 4, 62, 127
9, 173364, Note_on_c, 4, 74, 0
9, 173366, Note_on_c, 4, 62, 0
9, 173400, Note_on_c, 4, 75, 127
9, 173400, Note_on_c, 4, 63, 127
9, 173484, Note_on_c, 4, 75, 0
9, 173486, Note_on_c, 4, 63, 0
9, 173520, Note_on_c, 4, 77, 127
9, 173520, Note_on_c, 4, 65, 127
9, 173604, Note_on_c, 4, 77, 0
9, 173622, Note_on_c, 4, 65, 0
9, 173640, Note_on_c, 4, 79, 127
9, 173640, Note_on_c, 4, 67, 127
9, 173724, Note_on_c, 4, 79, 0
9, 173726, Note_on_c, 4, 67, 0
9, 173760, Note_on_c, 4, 68, 127
9, 173760, Note_on_c, 4, 80, 127
9, 173844, Note_on_c, 4, 80, 0
9, 173852, Note_on_c, 4, 68, 0
9, 173880, Note_on_c, 4, 82, 127
9, 173880, Note_on_c, 4, 70, 127
9, 173964, Note_on_c, 4, 82, 0
9, 173966, Note_on_c, 4, 70, 0
9, 174000, Note_on_c, 4, 84, 127
9, 174000, Note_on_c, 4, 72, 127
9, 174080, Note_on_c, 4, 72, 0
9, 174084, Note_on_c, 4, 84, 0
9, 174120, Note_on_c, 4, 82, 127
9, 174120, Note_on_c, 4, 70, 127
9, 174204, Note_on_c, 4, 82, 0
9, 174206, Note_on_c, 4, 70, 0
9, 174240, Note_on_c, 4, 80, 127
9, 174240, Note_on_c, 4, 68, 127
9, 174324, Note_on_c, 4, 80, 0
9, 174334, Note_on_c, 4, 68, 0
9, 174360, Note_on_c, 4, 79, 127
9, 174360, Note_on_c, 4, 67, 127
9, 174444, Note_on_c, 4, 79, 0
9, 174446, Note_on_c, 4, 67, 0
9, 174480, Note_on_c, 4, 77, 127
9, 174480, Note_on_c, 4, 65, 127
9, 174564, Note_on_c, 4, 77, 0
9, 174574, Note_on_c, 4, 65, 0
9, 174600, Note_on_c, 4, 63, 127
9, 174600, Note_on_c, 4, 75, 127
9, 174684, Note_on_c, 4, 75, 0
9, 174684, Note_on_c, 4, 63, 0
9, 174720, Note_on_c, 4, 62, 127
9, 174720, Note_on_c, 4, 74, 127
9, 174804, Note_on_c, 4, 74, 0
9, 174812, Note_on_c, 4, 62, 0
9, 174840, Note_on_c, 4, 63, 127
9, 174840, Note_on_c, 4, 75, 127
9, 174916, Note_on_c, 4, 63, 0
9, 174924, Note_on_c, 4, 75, 0
9, 174960, Note_on_c, 4, 77, 127
9, 174960, Note_on_c, 4, 65, 127
9, 175040, Note_on_c, 4, 65, 0
9, 175044, Note_on_c, 4, 77, 0
9, 175080, Note_on_c, 4, 63, 127
9, 175080, Note_on_c, 4, 75, 127
9, 175160, Note_on_c, 4, 63, 0
9, 175164, Note_on_c, 4, 75, 0
9, 175200, Note_on_c, 4, 74, 127
9, 175200, Note_on_c, 4, 62, 127
9, 175284, Note_on_c, 4, 74, 0
9, 175286, Note_on_c, 4, 62, 0
9, 175320, Note_on_c, 4, 60, 127
9, 175320, Note_on_c, 4, 72, 127
9, 175380, Note_on_c, 4, 60, 0
9, 175404, Note_on_c, 4, 72, 0
9, 175440, Note_on_c, 4, 58, 127
9, 175440, Note_on_c, 4, 70, 127
9, 175520, Note_on_c, 4, 58, 0
9, 175524, Note_on_c, 4, 70, 0
9, 175560, Note_on_c, 4, 68, 127
9, 175560, Note_on_c, 4, 56, 127
9, 175644, Note_on_c, 4, 68, 0
9, 175650, Note_on_c, 4, 56, 0
9, 175680, Note_on_c, 4, 67, 127
9, 175680, Note_on_c, 4, 55, 127
9, 175764, Note_on_c, 4, 67, 0
9, 175786, Note_on_c, 4, 55, 0
9, 176640, Control_c, 4, 7, 90
9, 176760, Note_on_c, 4, 58, 96
9, 176880, Note_on_c, 4, 60, 96
9, 176936, Note_on_c, 4, 58, 0
9, 177000, Note_on_c, 4, 62, 96
9, 177062, Note_on_c, 4, 60, 0
9, 177120, Note_on_c, 4, 63, 96
9, 177190, Note_on_c, 4, 62, 0
9, 177240, Note_on_c, 4, 65, 96
9, 177286, Note_on_c, 4, 63, 0
9, 177360, Note_on_c, 4, 67, 96
9, 177424, Note_on_c, 4, 65, 0
9, 177480, Note_on_c, 4, 63, 96
9, 177520, Note_on_c, 4, 67, 0
9, 177600, Note_on_c, 4, 62, 96
9, 177640, Note_on_c, 4, 63, 0
9, 177690, Note_on_c, 4, 62, 0
9, 177840, Note_on_c, 4, 73, 96
9, 178236, Note_on_c, 4, 73, 0
9, 178320, Note_on_c, 4, 72, 96
9, 178402, Note_on_c, 4, 72, 0
9, 178560, Note_on_c, 4, 73, 96
9, 178632, Note_on_c, 4, 73, 0
9, 178680, Note_on_c, 4, 65, 96
9, 178800, Note_on_c, 4, 72, 96
9, 178800, Note_on_c, 4, 67, 96
9, 178822, Note_on_c, 4, 65, 0
9, 178870, Note_on_c, 4, 72, 0
9, 178920, Note_on_c, 4, 68, 96
9, 178942, Note_on_c, 4, 67, 0
9, 179040, Note_on_c, 4, 70, 96
9, 179062, Note_on_c, 4, 68, 0
9, 179110, Note_on_c, 4, 70, 0
9, 179160, Note_on_c, 4, 72, 96
9, 179280, Note_on_c, 4, 70, 96
9, 179280, Note_on_c, 4, 73, 96
9, 179302, Note_on_c, 4, 72, 0
9, 179354, Note_on_c, 4, 70, 0
9, 179400, Note_on_c, 4, 70, 96
9, 179422, Note_on_c, 4, 73, 0
9, 179520, Note_on_c, 4, 68, 96
9, 179542, Note_on_c, 4, 70, 0
9, 179616, Note_on_c, 4, 68, 0
9, 180600, Note_on_c, 4, 60, 96
9, 180720, Note_on_c, 4, 62, 96
9, 180780, Note_on_c, 4, 60, 0
9, 180840, Note_on_c, 4, 63, 96
9, 180882, Note_on_c, 4, 62, 0
9, 180960, Note_on_c, 4, 65, 96
9, 181020, Note_on_c, 4, 63, 0
9, 181080, Note_on_c, 4, 67, 96
9, 181144, Note_on_c, 4, 65, 0
9, 181200, Note_on_c, 4, 68, 96
9, 181254, Note_on_c, 4, 67, 0
9, 181320, Note_on_c, 4, 65, 96
9, 181340, Note_on_c, 4, 68, 0
9, 181440, Note_on_c, 4, 63, 96
9, 181476, Note_on_c, 4, 65, 0
9, 181630, Note_on_c, 4, 63, 0
9, 182520, Note_on_c, 4, 71, 96
9, 182640, Note_on_c, 4, 72, 96
9, 182662, Note_on_c, 4, 71, 0
9, 182760, Note_on_c, 4, 74, 96
9, 182782, Note_on_c, 4, 72, 0
9, 182880, Note_on_c, 4, 75, 96
9, 182902, Note_on_c, 4, 74, 0
9, 183000, Note_on_c, 4, 76, 96
9, 183022, Note_on_c, 4, 75, 0
9, 183120, Note_on_c, 4, 77, 96
9, 183142, Note_on_c, 4, 76, 0
9, 183240, Note_on_c, 4, 78, 96
9, 183262, Note_on_c, 4, 77, 0
9, 183360, Note_on_c, 4, 79, 80
9, 183360, Control_c, 4, 7, 100
9, 183382, Note_on_c, 4, 78, 0
9, 183502, Note_on_c, 4, 79, 0
9, 183600, Note_on_c, 4, 65, 82
9, 183600, Note_on_c, 4, 62, 82
9, 183672, Note_on_c, 4, 62, 0
9, 183720, Note_on_c, 4, 60, 83
9, 183792, Note_on_c, 4, 60, 0
9, 183840, Note_on_c, 4, 59, 85
9, 183912, Note_on_c, 4, 59, 0
9, 183960, Note_on_c, 4, 55, 86
9, 183984, Note_on_c, 4, 65, 0
9, 184030, Note_on_c, 4, 55, 0
9, 184080, Note_on_c, 4, 57, 87
9, 184080, Note_on_c, 4, 65, 87
9, 184156, Note_on_c, 4, 57, 0
9, 184164, Note_on_c, 4, 65, 0
9, 184200, Note_on_c, 4, 59, 88
9, 184274, Note_on_c, 4, 59, 0
9, 184320, Control_c, 4, 7, 105
9, 184320, Note_on_c, 4, 63, 90
9, 184320, Note_on_c, 4, 60, 90
9, 184396, Note_on_c, 4, 60, 0
9, 184404, Note_on_c, 4, 63, 0
9, 184440, Note_on_c, 4, 59, 91
9, 184514, Note_on_c, 4, 59, 0
9, 184560, Note_on_c, 4, 72, 92
9, 184560, Note_on_c, 4, 60, 92
9, 184632, Note_on_c, 4, 60, 0
9, 184680, Note_on_c, 4, 62, 94
9, 184754, Note_on_c, 4, 62, 0
9, 184800, Note_on_c, 4, 63, 95
9, 184870, Note_on_c, 4, 63, 0
9, 184920, Note_on_c, 4, 62, 96
9, 184944, Note_on_c, 4, 72, 0
9, 184994, Note_on_c, 4, 62, 0
9, 185040, Note_on_c, 4, 63, 97
9, 185040, Note_on_c, 4, 72, 97
9, 185106, Note_on_c, 4, 63, 0
9, 185124, Note_on_c, 4, 72, 0
9, 185160, Note_on_c, 4, 66, 99
9, 185234, Note_on_c, 4, 66, 0
9, 185280, Control_c, 4, 7, 110
9, 185280, Note_on_c, 4, 71, 100
9, 185280, Note_on_c, 4, 67, 100
9, 185346, Note_on_c, 4, 67, 0
9, 185364, Note_on_c, 4, 71, 0
9, 185400, Note_on_c, 4, 66, 101
9, 185466, Note_on_c, 4, 66, 0
9, 185520, Note_on_c, 4, 77, 102
9, 185520, Note_on_c, 4, 67, 102
9, 185604, Note_on_c, 4, 67, 0
9, 185640, Note_on_c, 4, 69, 104
9, 185710, Note_on_c, 4, 69, 0
9, 185760, Note_on_c, 4, 71, 105
9, 185834, Note_on_c, 4, 71, 0
9, 185880, Note_on_c, 4, 67, 106
9, 185904, Note_on_c, 4, 77, 0
9, 185964, Note_on_c, 4, 67, 0
9, 186000, Note_on_c, 4, 69, 107
9, 186000, Note_on_c, 4, 77, 107
9, 186070, Note_on_c, 4, 69, 0
9, 186084, Note_on_c, 4, 77, 0
9, 186120, Note_on_c, 4, 71, 109
9, 186194, Note_on_c, 4, 71, 0
9, 186240, Control_c, 4, 7, 115
9, 186240, Note_on_c, 4, 75, 110
9, 186240, Note_on_c, 4, 72, 110
9, 186306, Note_on_c, 4, 72, 0
9, 186324, Note_on_c, 4, 75, 0
9, 186360, Note_on_c, 4, 71, 111
9, 186436, Note_on_c, 4, 71, 0
9, 186480, Note_on_c, 4, 84, 112
9, 186480, Note_on_c, 4, 72, 112
9, 186546, Note_on_c, 4, 72, 0
9, 186600, Note_on_c, 4, 74, 114
9, 186666, Note_on_c, 4, 74, 0
9, 186720, Note_on_c, 4, 75, 115
9, 186786, Note_on_c, 4, 75, 0
9, 186840, Note_on_c, 4, 74, 116
9, 186864, Note_on_c, 4, 84, 0
9, 186914, Note_on_c, 4, 74, 0
9, 186960, Note_on_c, 4, 75, 117
9, 186960, Note_on_c, 4, 84, 117
9, 187040, Note_on_c, 4, 75, 0
9, 187044, Note_on_c, 4, 84, 0
9, 187080, Note_on_c, 4, 78, 119
9, 187154, Note_on_c, 4, 78, 0
9, 187200, Control_c, 4, 7, 127
9, 187200, Note_on_c, 4, 79, 127
9, 187200, Note_on_c, 4, 83, 127
9, 187284, Note_on_c, 4, 79, 0
9, 187320, Note_on_c, 4, 83, 0
9, 187320, Note_on_c, 4, 79, 127
9, 187320, Note_on_c, 4, 83, 127
9, 187424, Note_on_c, 4, 79, 0
9, 187440, Note_on_c, 4, 83, 0
9, 187440, Note_on_c, 4, 79, 127
9, 187440, Note_on_c, 4, 84, 127
9, 187532, Note_on_c, 4, 79, 0
9, 187560, Note_on_c, 4, 84, 0
9, 187560, Note_on_c, 4, 84, 127
9, 187560, Note_on_c, 4, 79, 127
9, 187654, Note_on_c, 4, 79, 0
9, 187680, Note_on_c, 4, 84, 0
9, 187680, Note_on_c, 4, 79, 127
9, 187680, Note_on_c, 4, 83, 127
9, 187770, Note_on_c, 4, 79, 0
9, 187800, Note_on_c, 4, 83, 0
9, 187800, Note_on_c, 4, 79, 127
9, 187800, Note_on_c, 4, 83, 127
9, 187896, Note_on_c, 4, 79, 0
9, 187920, Note_on_c, 4, 83, 0
9, 187920, Note_on_c, 4, 79, 127
9, 187920, Note_on_c, 4, 84, 127
9, 188014, Note_on_c, 4, 79, 0
9, 188040, Note_on_c, 4, 84, 0
9, 188040, Note_on_c, 4, 84, 127
9, 188040, Note_on_c, 4, 79, 127
9, 188134, Note_on_c, 4, 79, 0
9, 188160, Note_on_c, 4, 84, 0
9, 188160, Note_on_c, 4, 83, 127
9, 188160, Note_on_c, 4, 79, 127
9, 188256, Note_on_c, 4, 79, 0
9, 188280, Note_on_c, 4, 83, 0
9, 188280, Note_on_c, 4, 79, 127
9, 188280, Note_on_c, 4, 83, 127
9, 188380, Note_on_c, 4, 79, 0
9, 188400, Note_on_c, 4, 83, 0
9, 188400, Note_on_c, 4, 79, 127
9, 188400, Note_on_c, 4, 84, 127
9, 188500, Note_on_c, 4, 79, 0
9, 188520, Note_on_c, 4, 84, 0
9, 188520, Note_on_c, 4, 84, 127
9, 188520, Note_on_c, 4, 79, 127
9, 188616, Note_on_c, 4, 79, 0
9, 188640, Note_on_c, 4, 84, 0
9, 188640, Note_on_c, 4, 79, 127
9, 188640, Note_on_c, 4, 83, 127
9, 188730, Note_on_c, 4, 79, 0
9, 188760, Note_on_c, 4, 83, 0
9, 188760, Note_on_c, 4, 79, 127
9, 188760, Note_on_c, 4, 83, 127
9, 188852, Note_on_c, 4, 79, 0
9, 188880, Note_on_c, 4, 83, 0
9, 188880, Note_on_c, 4, 79, 127
9, 188880, Note_on_c, 4, 84, 127
9, 188964, Note_on_c, 4, 79, 0
9, 189000, Note_on_c, 4, 84, 0
9, 189000, Note_on_c, 4, 84, 127
9, 189000, Note_on_c, 4, 79, 127
9, 189086, Note_on_c, 4, 79, 0
9, 189120, Note_on_c, 4, 84, 0
9, 189120, Note_on_c, 4, 79, 127
9, 189120, Note_on_c, 4, 83, 127
9, 189224, Note_on_c, 4, 79, 0
9, 189240, Note_on_c, 4, 83, 0
9, 189600, Note_on_c, 4, 71, 127
9, 189600, Note_on_c, 4, 79, 127
9, 189600, Note_on_c, 4, 55, 127
9, 189600, Note_on_c, 4, 62, 127
9, 189720, Note_on_c, 4, 79, 0
9, 189720, Note_on_c, 4, 71, 0
9, 189764, Note_on_c, 4, 55, 0
9, 189774, Note_on_c, 4, 62, 0
9, 190080, Note_on_c, 4, 55, 127
9, 190200, Note_on_c, 4, 55, 0
9, 191040, Note_on_c, 4, 60, 67
9, 191120, Note_on_c, 4, 60, 0
9, 192960, Note_on_c, 4, 72, 41
9, 193066, Note_on_c, 4, 72, 0
9, 193440, Note_on_c, 4, 68, 41
9, 193532, Note_on_c, 4, 68, 0
9, 193920, Note_on_c, 4, 69, 41
9, 194004, Note_on_c, 4, 69, 0
9, 194400, Note_on_c, 4, 65, 41
9, 194506, Note_on_c, 4, 65, 0
9, 194880, Note_on_c, 4, 67, 50
9, 194980, Note_on_c, 4, 67, 0
9, 196800, Note_on_c, 4, 72, 50
9, 196912, Note_on_c, 4, 72, 0
9, 197280, Note_on_c, 4, 65, 50
9, 197396, Note_on_c, 4, 65, 0
9, 197760, Note_on_c, 4, 67, 50
9, 197870, Note_on_c, 4, 67, 0
9, 198240, Note_on_c, 4, 55, 50
9, 198360, Note_on_c, 4, 55, 0
9, 198720, Note_on_c, 4, 60, 67
9, 198820, Note_on_c, 4, 60, 0
9, 199920, Note_on_c, 4, 60, 67
9, 200000, Note_on_c, 4, 60, 0
9, 200160, Note_on_c, 4, 64, 67
9, 200240, Note_on_c, 4, 64, 0
9, 200400, Note_on_c, 4, 67, 67
9, 200466, Note_on_c, 4, 67, 0
9, 200640, Note_on_c, 4, 72, 67
9, 200726, Note_on_c, 4, 72, 0
9, 200880, Note_on_c, 4, 79, 67
9, 200880, Note_on_c, 4, 67, 67
9, 200962, Note_on_c, 4, 79, 0
9, 200980, Note_on_c, 4, 67, 0
9, 201360, Note_on_c, 4, 83, 67
9, 201360, Note_on_c, 4, 71, 67
9, 201440, Note_on_c, 4, 83, 0
9, 201442, Note_on_c, 4, 71, 0
9, 201840, Note_on_c, 4, 84, 67
9, 201840, Note_on_c, 4, 72, 67
9, 201930, Note_on_c, 4, 84, 0
9, 201932, Note_on_c, 4, 72, 0
9, 202320, Note_on_c, 4, 69, 67
9, 202320, Note_on_c, 4, 81, 67
9, 202402, Note_on_c, 4, 81, 0
9, 202402, Note_on_c, 4, 69, 0
9, 202560, Note_on_c, 4, 62, 67
9, 202560, Note_on_c, 4, 74, 67
9, 202660, Note_on_c, 4, 62, 0
9, 202662, Note_on_c, 4, 74, 0
9, 203760, Note_on_c, 4, 59, 67
9, 203840, Note_on_c, 4, 59, 0
9, 204000, Note_on_c, 4, 60, 67
9, 204080, Note_on_c, 4, 60, 0
9, 204240, Note_on_c, 4, 62, 67
9, 204320, Note_on_c, 4, 62, 0
9, 204480, Note_on_c, 4, 64, 67
9, 204562, Note_on_c, 4, 64, 0
9, 204720, Note_on_c, 4, 76, 67
9, 204720, Note_on_c, 4, 64, 67
9, 204796, Note_on_c, 4, 64, 0
9, 204796, Note_on_c, 4, 76, 0
9, 205200, Note_on_c, 4, 69, 67
9, 205200, Note_on_c, 4, 81, 67
9, 205276, Note_on_c, 4, 69, 0
9, 205304, Note_on_c, 4, 81, 0
9, 205680, Note_on_c, 4, 60, 67
9, 205680, Note_on_c, 4, 55, 67
9, 205762, Note_on_c, 4, 60, 0
9, 205766, Note_on_c, 4, 55, 0
9, 206160, Note_on_c, 4, 55, 67
9, 206160, Note_on_c, 4, 59, 67
9, 206242, Note_on_c, 4, 59, 0
9, 206242, Note_on_c, 4, 55, 0
9, 206400, Control_c, 4, 7, 115
9, 206400, Note_on_c, 4, 55, 96
9, 206400, Note_on_c, 4, 60, 96
9, 206474, Note_on_c, 4, 55, 0
9, 206476, Note_on_c, 4, 60, 0
9, 206640, Note_on_c, 4, 67, 96
9, 206640, Note_on_c, 4, 55, 96
9, 206720, Note_on_c, 4, 55, 0
9, 206726, Note_on_c, 4, 67, 0
9, 206880, Note_on_c, 4, 60, 96
9, 206880, Note_on_c, 4, 72, 96
9, 206956, Note_on_c, 4, 60, 0
9, 206964, Note_on_c, 4, 72, 0
9, 207120, Note_on_c, 4, 64, 96
9, 207120, Note_on_c, 4, 76, 96
9, 207196, Note_on_c, 4, 64, 0
9, 207212, Note_on_c, 4, 76, 0
9, 207360, Note_on_c, 4, 79, 96
9, 207360, Note_on_c, 4, 67, 96
9, 207442, Note_on_c, 4, 67, 0
9, 207454, Note_on_c, 4, 79, 0
9, 208560, Note_on_c, 4, 67, 96
9, 208560, Note_on_c, 4, 55, 96
9, 208640, Note_on_c, 4, 55, 0
9, 208654, Note_on_c, 4, 67, 0
9, 208800, Note_on_c, 4, 59, 96
9, 208800, Note_on_c, 4, 71, 96
9, 208876, Note_on_c, 4, 59, 0
9, 208882, Note_on_c, 4, 71, 0
9, 209040, Note_on_c, 4, 62, 96
9, 209040, Note_on_c, 4, 74, 96
9, 209112, Note_on_c, 4, 62, 0
9, 209126, Note_on_c, 4, 74, 0
9, 209280, Note_on_c, 4, 77, 96
9, 209280, Note_on_c, 4, 65, 96
9, 209372, Note_on_c, 4, 65, 0
9, 209384, Note_on_c, 4, 77, 0
9, 210480, Note_on_c, 4, 67, 96
9, 210480, Note_on_c, 4, 55, 96
9, 210572, Note_on_c, 4, 55, 0
9, 210580, Note_on_c, 4, 67, 0
9, 210720, Note_on_c, 4, 60, 96
9, 210720, Note_on_c, 4, 72, 96
9, 210800, Note_on_c, 4, 60, 0
9, 210802, Note_on_c, 4, 72, 0
9, 210960, Note_on_c, 4, 64, 96
9, 210960, Note_on_c, 4, 76, 96
9, 211044, Note_on_c, 4, 64, 0
9, 211060, Note_on_c, 4, 76, 0
9, 211200, Note_on_c, 4, 79, 96
9, 211200, Note_on_c, 4, 67, 96
9, 211286, Note_on_c, 4, 67, 0
9, 211292, Note_on_c, 4, 79, 0
9, 212400, Note_on_c, 4, 67, 96
9, 212400, Note_on_c, 4, 55, 96
9, 212490, Note_on_c, 4, 55, 0
9, 212490, Note_on_c, 4, 67, 0
9, 212640, Note_on_c, 4, 71, 96
9, 212640, Note_on_c, 4, 59, 96
9, 212714, Note_on_c, 4, 71, 0
9, 212716, Note_on_c, 4, 59, 0
9, 212880, Note_on_c, 4, 62, 96
9, 212880, Note_on_c, 4, 74, 96
9, 212950, Note_on_c, 4, 62, 0
9, 212960, Note_on_c, 4, 74, 0
9, 213120, Note_on_c, 4, 77, 96
9, 213120, Note_on_c, 4, 65, 96
9, 213202, Note_on_c, 4, 65, 0
9, 213204, Note_on_c, 4, 77, 0
9, 214080, Note_on_c, 4, 67, 96
9, 214080, Note_on_c, 4, 79, 96
9, 214800, Note_on_c, 4, 78, 96
9, 214800, Note_on_c, 4, 66, 96
9, 214866, Note_on_c, 4, 67, 0
9, 214874, Note_on_c, 4, 79, 0
9, 215040, Note_on_c, 4, 67, 96
9, 215040, Note_on_c, 4, 79, 96
9, 215090, Note_on_c, 4, 78, 0
9, 215116, Note_on_c, 4, 66, 0
9, 215760, Note_on_c, 4, 80, 96
9, 215760, Note_on_c, 4, 68, 96
9, 215830, Note_on_c, 4, 67, 0
9, 215844, Note_on_c, 4, 79, 0
9, 216000, Note_on_c, 4, 79, 96
9, 216000, Note_on_c, 4, 67, 96
9, 216066, Note_on_c, 4, 80, 0
9, 216072, Note_on_c, 4, 68, 0
9, 216720, Note_on_c, 4, 78, 96
9, 216720, Note_on_c, 4, 66, 96
9, 216752, Note_on_c, 4, 67, 0
9, 216814, Note_on_c, 4, 79, 0
9, 216960, Note_on_c, 4, 79, 96
9, 216960, Note_on_c, 4, 67, 96
9, 217020, Note_on_c, 4, 78, 0
9, 217024, Note_on_c, 4, 66, 0
9, 217680, Note_on_c, 4, 68, 96
9, 217680, Note_on_c, 4, 80, 96
9, 217754, Note_on_c, 4, 79, 0
9, 217756, Note_on_c, 4, 67, 0
9, 217920, Note_on_c, 4, 82, 96
9, 217920, Note_on_c, 4, 70, 96
9, 217980, Note_on_c, 4, 68, 0
9, 218002, Note_on_c, 4, 80, 0
9, 218640, Note_on_c, 4, 72, 96
9, 218640, Note_on_c, 4, 84, 96
9, 218680, Note_on_c, 4, 82, 0
9, 218706, Note_on_c, 4, 70, 0
9, 218880, Note_on_c, 4, 73, 96
9, 218880, Note_on_c, 4, 85, 96
9, 218944, Note_on_c, 4, 72, 0
9, 218964, Note_on_c, 4, 84, 0
9, 219600, Note_on_c, 4, 70, 96
9, 219600, Note_on_c, 4, 82, 96
9, 219636, Note_on_c, 4, 85, 0
9, 219702, Note_on_c, 4, 73, 0
9, 219736, Note_on_c, 4, 70, 0
9, 219742, Note_on_c, 4, 82, 0
9, 219840, Control_c, 4, 7, 90
9, 219840, Note_on_c, 4, 75, 68
9, 219840, Note_on_c, 4, 87, 68
9, 220080, Note_on_c, 4, 84, 68
9, 220080, Note_on_c, 4, 72, 68
9, 220106, Note_on_c, 4, 75, 0
9, 220122, Note_on_c, 4, 87, 0
9, 220164, Note_on_c, 4, 72, 0
9, 220166, Note_on_c, 4, 84, 0
9, 220320, Note_on_c, 4, 82, 68
9, 220320, Note_on_c, 4, 70, 68
9, 220560, Note_on_c, 4, 73, 68
9, 220560, Note_on_c, 4, 85, 68
9, 220602, Note_on_c, 4, 82, 0
9, 220606, Note_on_c, 4, 70, 0
9, 220632, Note_on_c, 4, 73, 0
9, 220634, Note_on_c, 4, 85, 0
9, 220800, Note_on_c, 4, 68, 68
9, 220800, Note_on_c, 4, 80, 68
9, 221040, Note_on_c, 4, 72, 68
9, 221040, Note_on_c, 4, 84, 68
9, 221086, Note_on_c, 4, 80, 0
9, 221086, Note_on_c, 4, 68, 0
9, 221120, Note_on_c, 4, 72, 0
9, 221120, Note_on_c, 4, 84, 0
9, 221280, Note_on_c, 4, 79, 68
9, 221280, Note_on_c, 4, 67, 68
9, 221520, Note_on_c, 4, 70, 68
9, 221520, Note_on_c, 4, 82, 68
9, 221574, Note_on_c, 4, 79, 0
9, 221584, Note_on_c, 4, 67, 0
9, 221586, Note_on_c, 4, 70, 0
9, 221592, Note_on_c, 4, 82, 0
9, 221760, Control_c, 4, 7, 127
9, 221760, Note_on_c, 4, 72, 96
9, 221760, Note_on_c, 4, 84, 96
9, 221760, Note_on_c, 4, 82, 96
9, 221840, Note_on_c, 4, 72, 0
9, 221842, Note_on_c, 4, 84, 0
9, 221866, Note_on_c, 4, 82, 0
9, 221880, Note_on_c, 4, 82, 96
9, 221880, Note_on_c, 4, 84, 96
9, 221880, Note_on_c, 4, 72, 96
9, 221962, Note_on_c, 4, 72, 0
9, 221972, Note_on_c, 4, 82, 0
9, 221980, Note_on_c, 4, 84, 0
9, 222000, Note_on_c, 4, 82, 96
9, 222000, Note_on_c, 4, 84, 96
9, 222000, Note_on_c, 4, 72, 96
9, 222082, Note_on_c, 4, 72, 0
9, 222090, Note_on_c, 4, 82, 0
9, 222100, Note_on_c, 4, 84, 0
9, 222120, Note_on_c, 4, 84, 96
9, 222120, Note_on_c, 4, 82, 96
9, 222120, Note_on_c, 4, 72, 96
9, 222204, Note_on_c, 4, 72, 0
9, 222214, Note_on_c, 4, 82, 0
9, 222216, Note_on_c, 4, 84, 0
9, 222240, Note_on_c, 4, 72, 96
9, 222240, Note_on_c, 4, 84, 96
9, 222240, Note_on_c, 4, 82, 96
9, 222326, Note_on_c, 4, 72, 0
9, 222334, Note_on_c, 4, 84, 0
9, 222336, Note_on_c, 4, 82, 0
9, 222360, Note_on_c, 4, 72, 96
9, 222360, Note_on_c, 4, 82, 96
9, 222360, Note_on_c, 4, 84, 96
9, 222446, Note_on_c, 4, 82, 0
9, 222452, Note_on_c, 4, 72, 0
9, 222456, Note_on_c, 4, 84, 0
9, 222480, Note_on_c, 4, 84, 96
9, 222480, Note_on_c, 4, 82, 96
9, 222480, Note_on_c, 4, 72, 96
9, 222570, Note_on_c, 4, 72, 0
9, 222572, Note_on_c, 4, 82, 0
9, 222574, Note_on_c, 4, 84, 0
9, 222600, Note_on_c, 4, 72, 96
9, 222600, Note_on_c, 4, 84, 96
9, 222600, Note_on_c, 4, 82, 96
9, 222690, Note_on_c, 4, 82, 0
9, 222690, Note_on_c, 4, 72, 0
9, 222696, Note_on_c, 4, 84, 0
9, 222720, Note_on_c, 4, 82, 96
9, 222720, Note_on_c, 4, 72, 96
9, 222720, Note_on_c, 4, 84, 96
9, 222806, Note_on_c, 4, 72, 0
9, 222810, Note_on_c, 4, 82, 0
9, 222826, Note_on_c, 4, 84, 0
9, 222840, Note_on_c, 4, 72, 96
9, 222840, Note_on_c, 4, 84, 96
9, 222840, Note_on_c, 4, 82, 96
9, 222916, Note_on_c, 4, 72, 0
9, 222924, Note_on_c, 4, 82, 0
9, 222944, Note_on_c, 4, 84, 0
9, 222960, Note_on_c, 4, 72, 96
9, 222960, Note_on_c, 4, 82, 96
9, 222960, Note_on_c, 4, 84, 96
9, 223042, Note_on_c, 4, 72, 0
9, 223046, Note_on_c, 4, 82, 0
9, 223060, Note_on_c, 4, 84, 0
9, 223080, Note_on_c, 4, 84, 96
9, 223080, Note_on_c, 4, 82, 96
9, 223080, Note_on_c, 4, 72, 96
9, 223162, Note_on_c, 4, 72, 0
9, 223164, Note_on_c, 4, 82, 0
9, 223184, Note_on_c, 4, 84, 0
9, 223200, Note_on_c, 4, 82, 96
9, 223200, Note_on_c, 4, 72, 96
9, 223200, Note_on_c, 4, 84, 96
9, 223280, Note_on_c, 4, 72, 0
9, 223286, Note_on_c, 4, 82, 0
9, 223302, Note_on_c, 4, 84, 0
9, 223320, Note_on_c, 4, 72, 96
9, 223320, Note_on_c, 4, 82, 96
9, 223320, Note_on_c, 4, 84, 96
9, 223394, Note_on_c, 4, 72, 0
9, 223406, Note_on_c, 4, 82, 0
9, 223420, Note_on_c, 4, 84, 0
9, 223440, Note_on_c, 4, 72, 96
9, 223440, Note_on_c, 4, 82, 96
9, 223440, Note_on_c, 4, 84, 96
9, 223516, Note_on_c, 4, 72, 0
9, 223524, Note_on_c, 4, 82, 0
9, 223542, Note_on_c, 4, 84, 0
9, 223560, Note_on_c, 4, 84, 96
9, 223560, Note_on_c, 4, 82, 96
9, 223560, Note_on_c, 4, 72, 96
9, 223634, Note_on_c, 4, 72, 0
9, 223642, Note_on_c, 4, 82, 0
9, 223660, Note_on_c, 4, 84, 0
9, 223680, Control_c, 4, 7, 90
9, 223680, Note_on_c, 4, 84, 68
9, 223680, Note_on_c, 4, 80, 68
9, 223680, Note_on_c, 4, 72, 68
9, 223892, Note_on_c, 4, 80, 0
9, 223920, Note_on_c, 4, 80, 68
9, 223920, Note_on_c, 4, 68, 68
9, 223950, Note_on_c, 4, 72, 0
9, 223974, Note_on_c, 4, 84, 0
9, 223986, Note_on_c, 4, 68, 0
9, 223992, Note_on_c, 4, 80, 0
9, 224160, Note_on_c, 4, 67, 68
9, 224160, Note_on_c, 4, 79, 68
9, 224400, Note_on_c, 4, 70, 68
9, 224400, Note_on_c, 4, 82, 68
9, 224430, Note_on_c, 4, 67, 0
9, 224434, Note_on_c, 4, 79, 0
9, 224454, Note_on_c, 4, 70, 0
9, 224474, Note_on_c, 4, 82, 0
9, 224640, Note_on_c, 4, 65, 68
9, 224640, Note_on_c, 4, 77, 68
9, 224880, Note_on_c, 4, 80, 68
9, 224880, Note_on_c, 4, 68, 68
9, 224922, Note_on_c, 4, 77, 0
9, 224942, Note_on_c, 4, 65, 0
9, 224942, Note_on_c, 4, 68, 0
9, 224966, Note_on_c, 4, 80, 0
9, 225120, Note_on_c, 4, 64, 68
9, 225120, Note_on_c, 4, 76, 68
9, 225360, Note_on_c, 4, 67, 68
9, 225360, Note_on_c, 4, 79, 68
9, 225400, Note_on_c, 4, 64, 0
9, 225416, Note_on_c, 4, 76, 0
9, 225416, Note_on_c, 4, 67, 0
9, 225452, Note_on_c, 4, 79, 0
9, 225600, Control_c, 4, 7, 127
9, 225600, Note_on_c, 4, 74, 96
9, 225600, Note_on_c, 4, 77, 96
9, 225600, Note_on_c, 4, 79, 96
9, 225676, Note_on_c, 4, 74, 0
9, 225684, Note_on_c, 4, 77, 0
9, 225692, Note_on_c, 4, 79, 0
9, 225720, Note_on_c, 4, 77, 96
9, 225720, Note_on_c, 4, 79, 96
9, 225720, Note_on_c, 4, 74, 96
9, 225804, Note_on_c, 4, 74, 0
9, 225810, Note_on_c, 4, 77, 0
9, 225812, Note_on_c, 4, 79, 0
9, 225840, Note_on_c, 4, 77, 96
9, 225840, Note_on_c, 4, 79, 96
9, 225840, Note_on_c, 4, 74, 96
9, 225922, Note_on_c, 4, 74, 0
9, 225922, Note_on_c, 4, 77, 0
9, 225930, Note_on_c, 4, 79, 0
9, 225960, Note_on_c, 4, 74, 96
9, 225960, Note_on_c, 4, 79, 96
9, 225960, Note_on_c, 4, 77, 96
9, 226042, Note_on_c, 4, 77, 0
9, 226042, Note_on_c, 4, 74, 0
9, 226056, Note_on_c, 4, 79, 0
9, 226080, Note_on_c, 4, 74, 96
9, 226080, Note_on_c, 4, 77, 96
9, 226080, Note_on_c, 4, 79, 96
9, 226152, Note_on_c, 4, 74, 0
9, 226156, Note_on_c, 4, 77, 0
9, 226182, Note_on_c, 4, 79, 0
9, 226200, Note_on_c, 4, 74, 96
9, 226200, Note_on_c, 4, 79, 96
9, 226200, Note_on_c, 4, 77, 96
9, 226276, Note_on_c, 4, 77, 0
9, 226284, Note_on_c, 4, 74, 0
9, 226300, Note_on_c, 4, 79, 0
9, 226320, Note_on_c, 4, 74, 96
9, 226320, Note_on_c, 4, 79, 96
9, 226320, Note_on_c, 4, 77, 96
9, 226396, Note_on_c, 4, 77, 0
9, 226404, Note_on_c, 4, 74, 0
9, 226420, Note_on_c, 4, 79, 0
9, 226440, Note_on_c, 4, 74, 96
9, 226440, Note_on_c, 4, 79, 96
9, 226440, Note_on_c, 4, 77, 96
9, 226522, Note_on_c, 4, 77, 0
9, 226522, Note_on_c, 4, 74, 0
9, 226536, Note_on_c, 4, 79, 0
9, 226560, Note_on_c, 4, 79, 96
9, 226560, Note_on_c, 4, 77, 96
9, 226560, Note_on_c, 4, 74, 96
9, 226640, Note_on_c, 4, 74, 0
9, 226642, Note_on_c, 4, 77, 0
9, 226660, Note_on_c, 4, 79, 0
9, 226680, Note_on_c, 4, 79, 96
9, 226680, Note_on_c, 4, 74, 96
9, 226680, Note_on_c, 4, 77, 96
9, 226760, Note_on_c, 4, 74, 0
9, 226764, Note_on_c, 4, 77, 0
9, 226780, Note_on_c, 4, 79, 0
9, 226800, Note_on_c, 4, 79, 96
9, 226800, Note_on_c, 4, 77, 96
9, 226800, Note_on_c, 4, 74, 96
9, 226874, Note_on_c, 4, 74, 0
9, 226884, Note_on_c, 4, 77, 0
9, 226894, Note_on_c, 4, 79, 0
9, 226920, Note_on_c, 4, 79, 96
9, 226920, Note_on_c, 4, 77, 96
9, 226920, Note_on_c, 4, 74, 96
9, 226994, Note_on_c, 4, 74, 0
9, 226996, Note_on_c, 4, 77, 0
9, 227014, Note_on_c, 4, 79, 0
9, 227040, Note_on_c, 4, 77, 96
9, 227040, Note_on_c, 4, 74, 96
9, 227040, Note_on_c, 4, 79, 96
9, 227114, Note_on_c, 4, 74, 0
9, 227116, Note_on_c, 4, 77, 0
9, 227126, Note_on_c, 4, 79, 0
9, 227160, Note_on_c, 4, 77, 96
9, 227160, Note_on_c, 4, 74, 96
9, 227160, Note_on_c, 4, 79, 96
9, 227240, Note_on_c, 4, 74, 0
9, 227240, Note_on_c, 4, 77, 0
9, 227244, Note_on_c, 4, 79, 0
9, 227280, Note_on_c, 4, 77, 96
9, 227280, Note_on_c, 4, 74, 96
9, 227280, Note_on_c, 4, 79, 96
9, 227354, Note_on_c, 4, 74, 0
9, 227354, Note_on_c, 4, 77, 0
9, 227370, Note_on_c, 4, 79, 0
9, 227400, Note_on_c, 4, 74, 96
9, 227400, Note_on_c, 4, 77, 96
9, 227400, Note_on_c, 4, 79, 96
9, 227470, Note_on_c, 4, 74, 0
9, 227472, Note_on_c, 4, 77, 0
9, 227486, Note_on_c, 4, 79, 0
9, 227520, Control_c, 4, 7, 90
9, 227520, Note_on_c, 4, 75, 68
9, 227520, Note_on_c, 4, 79, 68
9, 227760, Note_on_c, 4, 63, 68
9, 227796, Note_on_c, 4, 79, 0
9, 227796, Note_on_c, 4, 75, 0
9, 227840, Note_on_c, 4, 63, 0
9, 228000, Note_on_c, 4, 74, 68
9, 228000, Note_on_c, 4, 62, 68
9, 228240, Note_on_c, 4, 65, 68
9, 228240, Note_on_c, 4, 77, 68
9, 228264, Note_on_c, 4, 74, 0
9, 228274, Note_on_c, 4, 62, 0
9, 228306, Note_on_c, 4, 65, 0
9, 228314, Note_on_c, 4, 77, 0
9, 228480, Note_on_c, 4, 72, 68
9, 228480, Note_on_c, 4, 60, 68
9, 228720, Note_on_c, 4, 75, 68
9, 228720, Note_on_c, 4, 63, 68
9, 228760, Note_on_c, 4, 60, 0
9, 228774, Note_on_c, 4, 72, 0
9, 228794, Note_on_c, 4, 63, 0
9, 228796, Note_on_c, 4, 75, 0
9, 228960, Note_on_c, 4, 59, 68
9, 228960, Note_on_c, 4, 71, 68
9, 229200, Note_on_c, 4, 74, 68
9, 229200, Note_on_c, 4, 62, 68
9, 229222, Note_on_c, 4, 59, 0
9, 229232, Note_on_c, 4, 71, 0
9, 229276, Note_on_c, 4, 74, 0
9, 229280, Note_on_c, 4, 62, 0
9, 229440, Note_on_c, 4, 72, 96
9, 229440, Note_on_c, 4, 60, 96
9, 229524, Note_on_c, 4, 72, 0
9, 229534, Note_on_c, 4, 60, 0
9, 229560, Note_on_c, 4, 67, 96
9, 229644, Note_on_c, 4, 67, 0
9, 229680, Note_on_c, 4, 69, 96
9, 229764, Note_on_c, 4, 69, 0
9, 229800, Note_on_c, 4, 71, 96
9, 229884, Note_on_c, 4, 71, 0
9, 229920, Note_on_c, 4, 72, 96
9, 230004, Note_on_c, 4, 72, 0
9, 230040, Note_on_c, 4, 74, 96
9, 230124, Note_on_c, 4, 74, 0
9, 230160, Note_on_c, 4, 76, 96
9, 230244, Note_on_c, 4, 76, 0
9, 230280, Note_on_c, 4, 74, 96
9, 230364, Note_on_c, 4, 74, 0
9, 230400, Note_on_c, 4, 72, 96
9, 230484, Note_on_c, 4, 72, 0
9, 230520, Note_on_c, 4, 67, 96
9, 230604, Note_on_c, 4, 67, 0
9, 230640, Note_on_c, 4, 69, 96
9, 230724, Note_on_c, 4, 69, 0
9, 230760, Note_on_c, 4, 71, 96
9, 230844, Note_on_c, 4, 71, 0
9, 230880, Note_on_c, 4, 72, 96
9, 230964, Note_on_c, 4, 72, 0
9, 231000, Note_on_c, 4, 74, 96
9, 231084, Note_on_c, 4, 74, 0
9, 231120, Note_on_c, 4, 67, 96
9, 231120, Note_on_c, 4, 57, 96
9, 231120, Note_on_c, 4, 76, 96
9, 231202, Note_on_c, 4, 57, 0
9, 231202, Note_on_c, 4, 67, 0
9, 231204, Note_on_c, 4, 76, 0
9, 231240, Note_on_c, 4, 73, 96
9, 231324, Note_on_c, 4, 73, 0
9, 231360, Note_on_c, 4, 65, 96
9, 231360, Note_on_c, 4, 74, 96
9, 231360, Note_on_c, 4, 57, 96
9, 231444, Note_on_c, 4, 74, 0
9, 231444, Note_on_c, 4, 65, 0
9, 231450, Note_on_c, 4, 57, 0
9, 231480, Note_on_c, 4, 69, 96
9, 231564, Note_on_c, 4, 69, 0
9, 231600, Note_on_c, 4, 71, 96
9, 231684, Note_on_c, 4, 71, 0
9, 231720, Note_on_c, 4, 73, 96
9, 231804, Note_on_c, 4, 73, 0
9, 231840, Note_on_c, 4, 74, 96
9, 231924, Note_on_c, 4, 74, 0
9, 231960, Note_on_c, 4, 76, 96
9, 232044, Note_on_c, 4, 76, 0
9, 232080, Note_on_c, 4, 77, 96
9, 232164, Note_on_c, 4, 77, 0
9, 232200, Note_on_c, 4, 76, 96
9, 232284, Note_on_c, 4, 76, 0
9, 232320, Note_on_c, 4, 74, 96
9, 232404, Note_on_c, 4, 74, 0
9, 232440, Note_on_c, 4, 69, 96
9, 232524, Note_on_c, 4, 69, 0
9, 232560, Note_on_c, 4, 71, 96
9, 232644, Note_on_c, 4, 71, 0
9, 232680, Note_on_c, 4, 73, 96
9, 232764, Note_on_c, 4, 73, 0
9, 232800, Note_on_c, 4, 74, 96
9, 232884, Note_on_c, 4, 74, 0
9, 232920, Note_on_c, 4, 76, 96
9, 233004, Note_on_c, 4, 76, 0
9, 233040, Note_on_c, 4, 59, 96
9, 233040, Note_on_c, 4, 78, 96
9, 233040, Note_on_c, 4, 69, 96
9, 233122, Note_on_c, 4, 59, 0
9, 233124, Note_on_c, 4, 78, 0
9, 233126, Note_on_c, 4, 69, 0
9, 233160, Note_on_c, 4, 75, 96
9, 233244, Note_on_c, 4, 75, 0
9, 233280, Note_on_c, 4, 59, 96
9, 233280, Note_on_c, 4, 76, 96
9, 233280, Note_on_c, 4, 67, 96
9, 233364, Note_on_c, 4, 76, 0
9, 233364, Note_on_c, 4, 59, 0
9, 233374, Note_on_c, 4, 67, 0
9, 233400, Note_on_c, 4, 71, 96
9, 233484, Note_on_c, 4, 71, 0
9, 233520, Note_on_c, 4, 73, 96
9, 233604, Note_on_c, 4, 73, 0
9, 233640, Note_on_c, 4, 75, 96
9, 233724, Note_on_c, 4, 75, 0
9, 233760, Note_on_c, 4, 76, 96
9, 233844, Note_on_c, 4, 76, 0
9, 233880, Note_on_c, 4, 78, 96
9, 233964, Note_on_c, 4, 78, 0
9, 234000, Note_on_c, 4, 79, 96
9, 234084, Note_on_c, 4, 79, 0
9, 234120, Note_on_c, 4, 78, 96
9, 234204, Note_on_c, 4, 78, 0
9, 234240, Note_on_c, 4, 76, 96
9, 234324, Note_on_c, 4, 76, 0
9, 234360, Note_on_c, 4, 71, 96
9, 234444, Note_on_c, 4, 71, 0
9, 234480, Note_on_c, 4, 73, 96
9, 234564, Note_on_c, 4, 73, 0
9, 234600, Note_on_c, 4, 75, 96
9, 234684, Note_on_c, 4, 75, 0
9, 234720, Note_on_c, 4, 76, 96
9, 234804, Note_on_c, 4, 76, 0
9, 234840, Note_on_c, 4, 77, 96
9, 234924, Note_on_c, 4, 77, 0
9, 234960, Note_on_c, 4, 67, 96
9, 234960, Note_on_c, 4, 70, 96
9, 234960, Note_on_c, 4, 79, 96
9, 235036, Note_on_c, 4, 67, 0
9, 235042, Note_on_c, 4, 70, 0
9, 235044, Note_on_c, 4, 79, 0
9, 235080, Note_on_c, 4, 76, 96
9, 235164, Note_on_c, 4, 76, 0
9, 235200, Control_c, 4, 7, 95
9, 235200, Note_on_c, 4, 69, 96
9, 235200, Note_on_c, 4, 77, 96
9, 235200, Note_on_c, 4, 65, 96
9, 235284, Note_on_c, 4, 77, 0
9, 235284, Note_on_c, 4, 69, 0
9, 235286, Note_on_c, 4, 65, 0
9, 235320, Note_on_c, 4, 72, 96
9, 235404, Note_on_c, 4, 72, 0
9, 235440, Note_on_c, 4, 74, 96
9, 235524, Note_on_c, 4, 74, 0
9, 235560, Note_on_c, 4, 76, 96
9, 235644, Note_on_c, 4, 76, 0
9, 235680, Note_on_c, 4, 77, 96
9, 235764, Note_on_c, 4, 77, 0
9, 235800, Note_on_c, 4, 79, 96
9, 235884, Note_on_c, 4, 79, 0
9, 235920, Note_on_c, 4, 72, 96
9, 235920, Note_on_c, 4, 62, 96
9, 235920, Note_on_c, 4, 81, 96
9, 236000, Note_on_c, 4, 62, 0
9, 236000, Note_on_c, 4, 72, 0
9, 236004, Note_on_c, 4, 81, 0
9, 236040, Note_on_c, 4, 78, 96
9, 236124, Note_on_c, 4, 78, 0
9, 236160, Control_c, 4, 7, 100
9, 236160, Note_on_c, 4, 62, 96
9, 236160, Note_on_c, 4, 71, 96
9, 236160, Note_on_c, 4, 79, 96
9, 236234, Note_on_c, 4, 62, 0
9, 236240, Note_on_c, 4, 71, 0
9, 236244, Note_on_c, 4, 79, 0
9, 236280, Note_on_c, 4, 74, 96
9, 236280, Note_on_c, 4, 62, 96
9, 236364, Note_on_c, 4, 74, 0
9, 236370, Note_on_c, 4, 62, 0
9, 236400, Note_on_c, 4, 64, 96
9, 236400, Note_on_c, 4, 76, 96
9, 236476, Note_on_c, 4, 64, 0
9, 236484, Note_on_c, 4, 76, 0
9, 236520, Note_on_c, 4, 66, 96
9, 236520, Note_on_c, 4, 78, 96
9, 236592, Note_on_c, 4, 66, 0
9, 236604, Note_on_c, 4, 78, 0
9, 236640, Note_on_c, 4, 67, 96
9, 236640, Note_on_c, 4, 79, 96
9, 236724, Note_on_c, 4, 79, 0
9, 236724, Note_on_c, 4, 67, 0
9, 236760, Note_on_c, 4, 81, 96
9, 236760, Note_on_c, 4, 69, 96
9, 236832, Note_on_c, 4, 69, 0
9, 236844, Note_on_c, 4, 81, 0
9, 236880, Note_on_c, 4, 71, 96
9, 236880, Note_on_c, 4, 83, 96
9, 236952, Note_on_c, 4, 71, 0
9, 236964, Note_on_c, 4, 83, 0
9, 237000, Note_on_c, 4, 80, 96
9, 237000, Note_on_c, 4, 68, 96
9, 237084, Note_on_c, 4, 68, 0
9, 237084, Note_on_c, 4, 80, 0
9, 237120, Control_c, 4, 7, 105
9, 237120, Note_on_c, 4, 81, 96
9, 237120, Note_on_c, 4, 69, 96
9, 237220, Note_on_c, 4, 69, 0
9, 237240, Note_on_c, 4, 81, 0
9, 237240, Note_on_c, 4, 69, 96
9, 237240, Note_on_c, 4, 81, 96
9, 237342, Note_on_c, 4, 69, 0
9, 237360, Note_on_c, 4, 81, 0
9, 237360, Note_on_c, 4, 68, 96
9, 237360, Note_on_c, 4, 80, 96
9, 237452, Note_on_c, 4, 68, 0
9, 237480, Note_on_c, 4, 80, 0
9, 237480, Note_on_c, 4, 68, 96
9, 237480, Note_on_c, 4, 80, 96
9, 237580, Note_on_c, 4, 68, 0
9, 237600, Note_on_c, 4, 80, 0
9, 237600, Note_on_c, 4, 69, 96
9, 237600, Note_on_c, 4, 81, 96
9, 237694, Note_on_c, 4, 69, 0
9, 237720, Note_on_c, 4, 81, 0
9, 237720, Note_on_c, 4, 81, 96
9, 237720, Note_on_c, 4, 69, 96
9, 237816, Note_on_c, 4, 69, 0
9, 237840, Note_on_c, 4, 81, 0
9, 237840, Note_on_c, 4, 71, 96
9, 237840, Note_on_c, 4, 83, 96
9, 237926, Note_on_c, 4, 71, 0
9, 237960, Note_on_c, 4, 83, 0
9, 237960, Note_on_c, 4, 83, 96
9, 237960, Note_on_c, 4, 71, 96
9, 238052, Note_on_c, 4, 71, 0
9, 238080, Note_on_c, 4, 83, 0
9, 238080, Control_c, 4, 7, 110
9, 238080, Note_on_c, 4, 84, 96
9, 238080, Note_on_c, 4, 72, 96
9, 238176, Note_on_c, 4, 72, 0
9, 238200, Note_on_c, 4, 84, 0
9, 238200, Note_on_c, 4, 72, 96
9, 238200, Note_on_c, 4, 84, 96
9, 238290, Note_on_c, 4, 72, 0
9, 238320, Note_on_c, 4, 84, 0
9, 238320, Note_on_c, 4, 83, 96
9, 238320, Note_on_c, 4, 71, 96
9, 238420, Note_on_c, 4, 71, 0
9, 238440, Note_on_c, 4, 83, 0
9, 238440, Note_on_c, 4, 71, 96
9, 238440, Note_on_c, 4, 83, 96
9, 238532, Note_on_c, 4, 71, 0
9, 238560, Note_on_c, 4, 83, 0
9, 238560, Note_on_c, 4, 72, 96
9, 238560, Note_on_c, 4, 84, 96
9, 238646, Note_on_c, 4, 72, 0
9, 238680, Note_on_c, 4, 84, 0
9, 238680, Note_on_c, 4, 84, 96
9, 238680, Note_on_c, 4, 72, 96
9, 238770, Note_on_c, 4, 72, 0
9, 238800, Note_on_c, 4, 84, 0
9, 238800, Note_on_c, 4, 74, 96
9, 238800, Note_on_c, 4, 86, 96
9, 238894, Note_on_c, 4, 74, 0
9, 238920, Note_on_c, 4, 86, 0
9, 238920, Note_on_c, 4, 86, 96
9, 238920, Note_on_c, 4, 74, 96
9, 239010, Note_on_c, 4, 74, 0
9, 239040, Note_on_c, 4, 86, 0
9, 239040, Control_c, 4, 7, 115
9, 239040, Note_on_c, 4, 76, 96
9, 239040, Note_on_c, 4, 88, 96
9, 239134, Note_on_c, 4, 76, 0
9, 239160, Note_on_c, 4, 88, 0
9, 239160, Note_on_c, 4, 76, 96
9, 239160, Note_on_c, 4, 88, 96
9, 239250, Note_on_c, 4, 76, 0
9, 239280, Note_on_c, 4, 88, 0
9, 239280, Note_on_c, 4, 83, 96
9, 239280, Note_on_c, 4, 71, 96
9, 239372, Note_on_c, 4, 71, 0
9, 239400, Note_on_c, 4, 83, 0
9, 239400, Note_on_c, 4, 71, 96
9, 239400, Note_on_c, 4, 83, 96
9, 239496, Note_on_c, 4, 71, 0
9, 239520, Note_on_c, 4, 83, 0
9, 239520, Note_on_c, 4, 72, 96
9, 239520, Note_on_c, 4, 84, 96
9, 239602, Note_on_c, 4, 72, 0
9, 239640, Note_on_c, 4, 84, 0
9, 239640, Note_on_c, 4, 84, 96
9, 239640, Note_on_c, 4, 72, 96
9, 239720, Note_on_c, 4, 72, 0
9, 239760, Note_on_c, 4, 84, 0
9, 239760, Note_on_c, 4, 74, 96
9, 239760, Note_on_c, 4, 86, 96
9, 239842, Note_on_c, 4, 74, 0
9, 239880, Note_on_c, 4, 86, 0
9, 239880, Note_on_c, 4, 86, 96
9, 239880, Note_on_c, 4, 74, 96
9, 239956, Note_on_c, 4, 74, 0
9, 240000, Note_on_c, 4, 86, 0
9, 240000, Control_c, 4, 7, 120
9, 240000, Note_on_c, 4, 88, 96
9, 240000, Note_on_c, 4, 76, 96
9, 240086, Note_on_c, 4, 76, 0
9, 240120, Note_on_c, 4, 88, 0
9, 240120, Note_on_c, 4, 76, 96
9, 240120, Note_on_c, 4, 88, 96
9, 240212, Note_on_c, 4, 76, 0
9, 240240, Note_on_c, 4, 88, 0
9, 240240, Note_on_c, 4, 86, 96
9, 240240, Note_on_c, 4, 74, 96
9, 240320, Note_on_c, 4, 74, 0
9, 240360, Note_on_c, 4, 86, 0
9, 240360, Note_on_c, 4, 74, 96
9, 240360, Note_on_c, 4, 86, 96
9, 240444, Note_on_c, 4, 74, 0
9, 240480, Note_on_c, 4, 86, 0
9, 240480, Note_on_c, 4, 76, 96
9, 240480, Note_on_c, 4, 88, 96
9, 240560, Note_on_c, 4, 76, 0
9, 240600, Note_on_c, 4, 88, 0
9, 240600, Note_on_c, 4, 88, 96
9, 240600, Note_on_c, 4, 76, 96
9, 240674, Note_on_c, 4, 76, 0
9, 240720, Note_on_c, 4, 88, 0
9, 240720, Note_on_c, 4, 77, 96
9, 240720, Note_on_c, 4, 89, 96
9, 240796, Note_on_c, 4, 77, 0
9, 240840, Note_on_c, 4, 89, 0
9, 240840, Note_on_c, 4, 89, 96
9, 240840, Note_on_c, 4, 77, 96
9, 240916, Note_on_c, 4, 77, 0
9, 240960, Note_on_c, 4, 89, 0
9, 240960, Control_c, 4, 7, 127
9, 240960, Note_on_c, 4, 91, 96
9, 240960, Note_on_c, 4, 79, 96
9, 240960, Note_on_c, 4, 88, 100
9, 241050, Note_on_c, 4, 79, 0
9, 241060, Note_on_c, 4, 88, 0
9, 241080, Note_on_c, 4, 91, 0
9, 241080, Note_on_c, 4, 88, 96
9, 241080, Note_on_c, 4, 91, 96
9, 241080, Note_on_c, 4, 88, 100
9, 241180, Note_on_c, 4, 88, 0
9, 241186, Note_on_c, 4, 88, 0
9, 241200, Note_on_c, 4, 91, 0
9, 241200, Note_on_c, 4, 91, 96
9, 241200, Note_on_c, 4, 88, 96
9, 241300, Note_on_c, 4, 88, 0
9, 241320, Note_on_c, 4, 91, 0
9, 241320, Note_on_c, 4, 91, 96
9, 241320, Note_on_c, 4, 88, 96
9, 241420, Note_on_c, 4, 88, 0
9, 241440, Note_on_c, 4, 91, 0
9, 241440, Note_on_c, 4, 88, 96
9, 241440, Note_on_c, 4, 91, 96
9, 241536, Note_on_c, 4, 88, 0
9, 241560, Note_on_c, 4, 91, 0
9, 241560, Note_on_c, 4, 91, 96
9, 241560, Note_on_c, 4, 88, 96
9, 241650, Note_on_c, 4, 88, 0
9, 241680, Note_on_c, 4, 91, 0
9, 241680, Note_on_c, 4, 88, 96
9, 241680, Note_on_c, 4, 91, 96
9, 241774, Note_on_c, 4, 88, 0
9, 241800, Note_on_c, 4, 91, 0
9, 241800, Note_on_c, 4, 91, 96
9, 241800, Note_on_c, 4, 88, 96
9, 241892, Note_on_c, 4, 88, 0
9, 241920, Note_on_c, 4, 91, 0
9, 241920, Note_on_c, 4, 88, 96
9, 241920, Note_on_c, 4, 91, 96
9, 242014, Note_on_c, 4, 88, 0
9, 242040, Note_on_c, 4, 91, 0
9, 242040, Note_on_c, 4, 88, 96
9, 242040, Note_on_c, 4, 91, 96
9, 242140, Note_on_c, 4, 88, 0
9, 242160, Note_on_c, 4, 91, 0
9, 242160, Note_on_c, 4, 88, 96
9, 242160, Note_on_c, 4, 91, 96
9, 242254, Note_on_c, 4, 88, 0
9, 242280, Note_on_c, 4, 91, 0
9, 242280, Note_on_c, 4, 88, 96
9, 242280, Note_on_c, 4, 91, 96
9, 242374, Note_on_c, 4, 88, 0
9, 242400, Note_on_c, 4, 91, 0
9, 242400, Note_on_c, 4, 88, 96
9, 242400, Note_on_c, 4, 91, 96
9, 242494, Note_on_c, 4, 88, 0
9, 242520, Note_on_c, 4, 91, 0
9, 242520, Note_on_c, 4, 91, 96
9, 242520, Note_on_c, 4, 88, 96
9, 242626, Note_on_c, 4, 88, 0
9, 242640, Note_on_c, 4, 91, 0
9, 242640, Note_on_c, 4, 86, 96
9, 242640, Note_on_c, 4, 89, 96
9, 242730, Note_on_c, 4, 86, 0
9, 242760, Note_on_c, 4, 89, 0
9, 242760, Note_on_c, 4, 89, 96
9, 242760, Note_on_c, 4, 86, 96
9, 242850, Note_on_c, 4, 86, 0
9, 242880, Note_on_c, 4, 89, 0
9, 242880, Note_on_c, 4, 88, 96
9, 242880, Note_on_c, 4, 84, 96
9, 242970, Note_on_c, 4, 84, 0
9, 243000, Note_on_c, 4, 88, 0
9, 243000, Note_on_c, 4, 84, 96
9, 243000, Note_on_c, 4, 88, 96
9, 243090, Note_on_c, 4, 84, 0
9, 243120, Note_on_c, 4, 88, 0
9, 243120, Note_on_c, 4, 84, 96
9, 243120, Note_on_c, 4, 88, 96
9, 243214, Note_on_c, 4, 84, 0
9, 243240, Note_on_c, 4, 88, 0
9, 243240, Note_on_c, 4, 88, 96
9, 243240, Note_on_c, 4, 84, 96
9, 243332, Note_on_c, 4, 84, 0
9, 243360, Note_on_c, 4, 88, 0
9, 243360, Note_on_c, 4, 84, 96
9, 243360, Note_on_c, 4, 88, 96
9, 243442, Note_on_c, 4, 84, 0
9, 243480, Note_on_c, 4, 88, 0
9, 243480, Note_on_c, 4, 88, 96
9, 243480, Note_on_c, 4, 84, 96
9, 243564, Note_on_c, 4, 84, 0
9, 243600, Note_on_c, 4, 88, 0
9, 243600, Note_on_c, 4, 84, 96
9, 243600, Note_on_c, 4, 88, 96
9, 243694, Note_on_c, 4, 84, 0
9, 243720, Note_on_c, 4, 88, 0
9, 243720, Note_on_c, 4, 88, 96
9, 243720, Note_on_c, 4, 84, 96
9, 243806, Note_on_c, 4, 84, 0
9, 243840, Note_on_c, 4, 88, 0
9, 243840, Note_on_c, 4, 84, 96
9, 243840, Note_on_c, 4, 88, 96
9, 243936, Note_on_c, 4, 84, 0
9, 243960, Note_on_c, 4, 88, 0
9, 243960, Note_on_c, 4, 84, 96
9, 243960, Note_on_c, 4, 88, 96
9, 244054, Note_on_c, 4, 84, 0
9, 244080, Note_on_c, 4, 88, 0
9, 244080, Note_on_c, 4, 84, 96
9, 244080, Note_on_c, 4, 88, 96
9, 244170, Note_on_c, 4, 84, 0
9, 244200, Note_on_c, 4, 88, 0
9, 244200, Note_on_c, 4, 88, 96
9, 244200, Note_on_c, 4, 84, 96
9, 244290, Note_on_c, 4, 84, 0
9, 244320, Note_on_c, 4, 88, 0
9, 244320, Note_on_c, 4, 84, 96
9, 244320, Note_on_c, 4, 88, 96
9, 244404, Note_on_c, 4, 84, 0
9, 244440, Note_on_c, 4, 88, 0
9, 244440, Note_on_c, 4, 88, 96
9, 244440, Note_on_c, 4, 84, 96
9, 244526, Note_on_c, 4, 84, 0
9, 244560, Note_on_c, 4, 88, 0
9, 244560, Note_on_c, 4, 83, 96
9, 244560, Note_on_c, 4, 86, 96
9, 244646, Note_on_c, 4, 83, 0
9, 244680, Note_on_c, 4, 86, 0
9, 244680, Note_on_c, 4, 86, 96
9, 244680, Note_on_c, 4, 83, 96
9, 244764, Note_on_c, 4, 83, 0
9, 244800, Note_on_c, 4, 86, 0
9, 244800, Note_on_c, 4, 81, 96
9, 244800, Note_on_c, 4, 84, 96
9, 244906, Note_on_c, 4, 81, 0
9, 244920, Note_on_c, 4, 84, 0
9, 244920, Note_on_c, 4, 84, 96
9, 244920, Note_on_c, 4, 81, 96
9, 245022, Note_on_c, 4, 81, 0
9, 245040, Note_on_c, 4, 84, 0
9, 245040, Note_on_c, 4, 81, 96
9, 245040, Note_on_c, 4, 84, 96
9, 245130, Note_on_c, 4, 81, 0
9, 245160, Note_on_c, 4, 84, 0
9, 245160, Note_on_c, 4, 81, 96
9, 245160, Note_on_c, 4, 84, 96
9, 245250, Note_on_c, 4, 81, 0
9, 245280, Note_on_c, 4, 84, 0
9, 245280, Note_on_c, 4, 89, 96
9, 245280, Note_on_c, 4, 86, 96
9, 245380, Note_on_c, 4, 86, 0
9, 245400, Note_on_c, 4, 89, 0
9, 245400, Note_on_c, 4, 86, 96
9, 245400, Note_on_c, 4, 89, 96
9, 245494, Note_on_c, 4, 86, 0
9, 245520, Note_on_c, 4, 89, 0
9, 245520, Note_on_c, 4, 86, 96
9, 245520, Note_on_c, 4, 89, 96
9, 245610, Note_on_c, 4, 86, 0
9, 245640, Note_on_c, 4, 89, 0
9, 245640, Note_on_c, 4, 89, 96
9, 245640, Note_on_c, 4, 86, 96
9, 245734, Note_on_c, 4, 86, 0
9, 245760, Note_on_c, 4, 89, 0
9, 245760, Note_on_c, 4, 84, 96
9, 245760, Note_on_c, 4, 88, 96
9, 245850, Note_on_c, 4, 84, 0
9, 245880, Note_on_c, 4, 88, 0
9, 245880, Note_on_c, 4, 84, 96
9, 245880, Note_on_c, 4, 88, 96
9, 245970, Note_on_c, 4, 84, 0
9, 246000, Note_on_c, 4, 88, 0
9, 246000, Note_on_c, 4, 84, 96
9, 246000, Note_on_c, 4, 88, 96
9, 246082, Note_on_c, 4, 84, 0
9, 246120, Note_on_c, 4, 88, 0
9, 246120, Note_on_c, 4, 88, 96
9, 246120, Note_on_c, 4, 84, 96
9, 246204, Note_on_c, 4, 84, 0
9, 246240, Note_on_c, 4, 88, 0
9, 246240, Note_on_c, 4, 83, 96
9, 246240, Note_on_c, 4, 86, 96
9, 246336, Note_on_c, 4, 83, 0
9, 246360, Note_on_c, 4, 86, 0
9, 246360, Note_on_c, 4, 86, 96
9, 246360, Note_on_c, 4, 83, 96
9, 246450, Note_on_c, 4, 83, 0
9, 246480, Note_on_c, 4, 86, 0
9, 246480, Note_on_c, 4, 83, 96
9, 246480, Note_on_c, 4, 86, 96
9, 246566, Note_on_c, 4, 83, 0
9, 246600, Note_on_c, 4, 86, 0
9, 246600, Note_on_c, 4, 86, 96
9, 246600, Note_on_c, 4, 83, 96
9, 246692, Note_on_c, 4, 83, 0
9, 246720, Note_on_c, 4, 86, 0
9, 246720, Note_on_c, 4, 91, 96
9, 246720, Note_on_c, 4, 88, 96
9, 246812, Note_on_c, 4, 88, 0
9, 246840, Note_on_c, 4, 91, 0
9, 246840, Note_on_c, 4, 88, 96
9, 246840, Note_on_c, 4, 91, 96
9, 246924, Note_on_c, 4, 88, 0
9, 246960, Note_on_c, 4, 91, 0
9, 246960, Note_on_c, 4, 91, 96
9, 246960, Note_on_c, 4, 88, 96
9, 247046, Note_on_c, 4, 88, 0
9, 247080, Note_on_c, 4, 91, 0
9, 247080, Note_on_c, 4, 88, 96
9, 247080, Note_on_c, 4, 91, 96
9, 247164, Note_on_c, 4, 88, 0
9, 247200, Note_on_c, 4, 91, 0
9, 247200, Note_on_c, 4, 91, 96
9, 247200, Note_on_c, 4, 88, 96
9, 247282, Note_on_c, 4, 88, 0
9, 247320, Note_on_c, 4, 91, 0
9, 247320, Note_on_c, 4, 91, 96
9, 247320, Note_on_c, 4, 88, 96
9, 247406, Note_on_c, 4, 88, 0
9, 247440, Note_on_c, 4, 91, 0
9, 247440, Note_on_c, 4, 88, 96
9, 247440, Note_on_c, 4, 91, 96
9, 247526, Note_on_c, 4, 88, 0
9, 247560, Note_on_c, 4, 91, 0
9, 247560, Note_on_c, 4, 88, 96
9, 247560, Note_on_c, 4, 91, 96
9, 247654, Note_on_c, 4, 88, 0
9, 247680, Note_on_c, 4, 91, 0
9, 247680, Note_on_c, 4, 91, 96
9, 247680, Note_on_c, 4, 88, 96
9, 247770, Note_on_c, 4, 88, 0
9, 247800, Note_on_c, 4, 91, 0
9, 247800, Note_on_c, 4, 91, 96
9, 247800, Note_on_c, 4, 88, 96
9, 247884, Note_on_c, 4, 88, 0
9, 247920, Note_on_c, 4, 91, 0
9, 247920, Note_on_c, 4, 88, 96
9, 247920, Note_on_c, 4, 91, 96
9, 248010, Note_on_c, 4, 88, 0
9, 248040, Note_on_c, 4, 91, 0
9, 248040, Note_on_c, 4, 88, 96
9, 248040, Note_on_c, 4, 91, 96
9, 248124, Note_on_c, 4, 88, 0
9, 248160, Note_on_c, 4, 91, 0
9, 248160, Note_on_c, 4, 88, 96
9, 248160, Note_on_c, 4, 91, 96
9, 248244, Note_on_c, 4, 88, 0
9, 248280, Note_on_c, 4, 91, 0
9, 248280, Note_on_c, 4, 88, 96
9, 248280, Note_on_c, 4, 91, 96
9, 248366, Note_on_c, 4, 88, 0
9, 248400, Note_on_c, 4, 91, 0
9, 248400, Note_on_c, 4, 89, 96
9, 248400, Note_on_c, 4, 86, 96
9, 248492, Note_on_c, 4, 86, 0
9, 248520, Note_on_c, 4, 89, 0
9, 248520, Note_on_c, 4, 89, 96
9, 248520, Note_on_c, 4, 86, 96
9, 248610, Note_on_c, 4, 86, 0
9, 248640, Note_on_c, 4, 89, 0
9, 248640, Note_on_c, 4, 88, 96
9, 248640, Note_on_c, 4, 84, 96
9, 248734, Note_on_c, 4, 84, 0
9, 248760, Note_on_c, 4, 88, 0
9, 248760, Note_on_c, 4, 84, 96
9, 248760, Note_on_c, 4, 88, 96
9, 248850, Note_on_c, 4, 84, 0
9, 248880, Note_on_c, 4, 88, 0
9, 248880, Note_on_c, 4, 88, 96
9, 248880, Note_on_c, 4, 84, 96
9, 248966, Note_on_c, 4, 84, 0
9, 249000, Note_on_c, 4, 88, 0
9, 249000, Note_on_c, 4, 88, 96
9, 249000, Note_on_c, 4, 84, 96
9, 249080, Note_on_c, 4, 84, 0
9, 249120, Note_on_c, 4, 88, 0
9, 249120, Note_on_c, 4, 88, 96
9, 249120, Note_on_c, 4, 84, 96
9, 249204, Note_on_c, 4, 84, 0
9, 249240, Note_on_c, 4, 88, 0
9, 249240, Note_on_c, 4, 88, 96
9, 249240, Note_on_c, 4, 84, 96
9, 249324, Note_on_c, 4, 84, 0
9, 249360, Note_on_c, 4, 88, 0
9, 249360, Note_on_c, 4, 84, 96
9, 249360, Note_on_c, 4, 88, 96
9, 249436, Note_on_c, 4, 84, 0
9, 249480, Note_on_c, 4, 88, 0
9, 249480, Note_on_c, 4, 88, 96
9, 249480, Note_on_c, 4, 84, 96
9, 249554, Note_on_c, 4, 84, 0
9, 249600, Note_on_c, 4, 88, 0
9, 249600, Note_on_c, 4, 88, 96
9, 249600, Note_on_c, 4, 84, 96
9, 249682, Note_on_c, 4, 84, 0
9, 249720, Note_on_c, 4, 88, 0
9, 249720, Note_on_c, 4, 88, 96
9, 249720, Note_on_c, 4, 84, 96
9, 249796, Note_on_c, 4, 84, 0
9, 249840, Note_on_c, 4, 88, 0
9, 249840, Note_on_c, 4, 84, 96
9, 249840, Note_on_c, 4, 88, 96
9, 249926, Note_on_c, 4, 84, 0
9, 249960, Note_on_c, 4, 88, 0
9, 249960, Note_on_c, 4, 88, 96
9, 249960, Note_on_c, 4, 84, 96
9, 250042, Note_on_c, 4, 84, 0
9, 250080, Note_on_c, 4, 88, 0
9, 250080, Note_on_c, 4, 88, 96
9, 250080, Note_on_c, 4, 84, 96
9, 250164, Note_on_c, 4, 84, 0
9, 250200, Note_on_c, 4, 88, 0
9, 250200, Note_on_c, 4, 84, 96
9, 250200, Note_on_c, 4, 88, 96
9, 250284, Note_on_c, 4, 84, 0
9, 250320, Note_on_c, 4, 88, 0
9, 250320, Note_on_c, 4, 83, 96
9, 250320, Note_on_c, 4, 86, 96
9, 250402, Note_on_c, 4, 83, 0
9, 250440, Note_on_c, 4, 86, 0
9, 250440, Note_on_c, 4, 86, 96
9, 250440, Note_on_c, 4, 83, 96
9, 250532, Note_on_c, 4, 83, 0
9, 250560, Note_on_c, 4, 86, 0
9, 250560, Note_on_c, 4, 81, 96
9, 250560, Note_on_c, 4, 84, 96
9, 250656, Note_on_c, 4, 81, 0
9, 250680, Note_on_c, 4, 84, 0
9, 250680, Note_on_c, 4, 81, 96
9, 250680, Note_on_c, 4, 84, 96
9, 250774, Note_on_c, 4, 81, 0
9, 250800, Note_on_c, 4, 84, 0
9, 250800, Note_on_c, 4, 84, 96
9, 250800, Note_on_c, 4, 81, 96
9, 250886, Note_on_c, 4, 81, 0
9, 250920, Note_on_c, 4, 84, 0
9, 250920, Note_on_c, 4, 84, 96
9, 250920, Note_on_c, 4, 81, 96
9, 251004, Note_on_c, 4, 81, 0
9, 251040, Note_on_c, 4, 84, 0
9, 251040, Note_on_c, 4, 86, 96
9, 251040, Note_on_c, 4, 89, 96
9, 251130, Note_on_c, 4, 86, 0
9, 251160, Note_on_c, 4, 89, 0
9, 251160, Note_on_c, 4, 86, 96
9, 251160, Note_on_c, 4, 89, 96
9, 251246, Note_on_c, 4, 86, 0
9, 251280, Note_on_c, 4, 89, 0
9, 251280, Note_on_c, 4, 86, 96
9, 251280, Note_on_c, 4, 89, 96
9, 251364, Note_on_c, 4, 86, 0
9, 251400, Note_on_c, 4, 89, 0
9, 251400, Note_on_c, 4, 86, 96
9, 251400, Note_on_c, 4, 89, 96
9, 251486, Note_on_c, 4, 86, 0
9, 251520, Note_on_c, 4, 89, 0
9, 251520, Note_on_c, 4, 88, 96
9, 251520, Note_on_c, 4, 84, 96
9, 251610, Note_on_c, 4, 84, 0
9, 251640, Note_on_c, 4, 88, 0
9, 251640, Note_on_c, 4, 84, 96
9, 251640, Note_on_c, 4, 88, 96
9, 251722, Note_on_c, 4, 84, 0
9, 251760, Note_on_c, 4, 88, 0
9, 251760, Note_on_c, 4, 88, 96
9, 251760, Note_on_c, 4, 84, 96
9, 251842, Note_on_c, 4, 84, 0
9, 251880, Note_on_c, 4, 88, 0
9, 251880, Note_on_c, 4, 88, 96
9, 251880, Note_on_c, 4, 84, 96
9, 251962, Note_on_c, 4, 84, 0
9, 252000, Note_on_c, 4, 88, 0
9, 252000, Note_on_c, 4, 83, 96
9, 252000, Note_on_c, 4, 86, 96
9, 252084, Note_on_c, 4, 83, 0
9, 252120, Note_on_c, 4, 86, 0
9, 252120, Note_on_c, 4, 86, 96
9, 252120, Note_on_c, 4, 83, 96
9, 252200, Note_on_c, 4, 83, 0
9, 252240, Note_on_c, 4, 86, 0
9, 252240, Note_on_c, 4, 83, 96
9, 252240, Note_on_c, 4, 86, 96
9, 252326, Note_on_c, 4, 83, 0
9, 252360, Note_on_c, 4, 86, 0
9, 252360, Note_on_c, 4, 86, 96
9, 252360, Note_on_c, 4, 83, 96
9, 252442, Note_on_c, 4, 83, 0
9, 252480, Note_on_c, 4, 86, 0
9, 252480, Control_c, 4, 7, 80
9, 252480, Note_on_c, 4, 84, 125
9, 252600, Note_on_c, 4, 84, 0
9, 252720, Note_on_c, 4, 55, 67
9, 253052, Note_on_c, 4, 55, 0
9, 253200, Note_on_c, 4, 55, 67
9, 253566, Note_on_c, 4, 55, 0
9, 253680, Note_on_c, 4, 55, 67
9, 253746, Note_on_c, 4, 55, 0
9, 253920, Note_on_c, 4, 55, 67
9, 253984, Note_on_c, 4, 55, 0
9, 254160, Note_on_c, 4, 55, 67
9, 254230, Note_on_c, 4, 55, 0
9, 254400, Note_on_c, 4, 55, 67
9, 254400, Note_on_c, 4, 71, 67
9, 254464, Note_on_c, 4, 55, 0
9, 254482, Note_on_c, 4, 71, 0
9, 254640, Note_on_c, 4, 68, 96
9, 254640, Note_on_c, 4, 80, 96
9, 255000, Note_on_c, 4, 68, 0
9, 255022, Note_on_c, 4, 80, 0
9, 255120, Note_on_c, 4, 68, 96
9, 255120, Note_on_c, 4, 80, 96
9, 255182, Note_on_c, 4, 68, 0
9, 255196, Note_on_c, 4, 80, 0
9, 255360, Note_on_c, 4, 79, 96
9, 255360, Note_on_c, 4, 67, 96
9, 255422, Note_on_c, 4, 67, 0
9, 255432, Note_on_c, 4, 79, 0
9, 255600, Note_on_c, 4, 77, 96
9, 255600, Note_on_c, 4, 65, 96
9, 255666, Note_on_c, 4, 65, 0
9, 255672, Note_on_c, 4, 77, 0
9, 255840, Note_on_c, 4, 64, 96
9, 255840, Note_on_c, 4, 76, 96
9, 255904, Note_on_c, 4, 64, 0
9, 255906, Note_on_c, 4, 76, 0
9, 256080, Note_on_c, 4, 62, 96
9, 256080, Note_on_c, 4, 74, 96
9, 256144, Note_on_c, 4, 62, 0
9, 256152, Note_on_c, 4, 74, 0
9, 256320, Note_on_c, 4, 60, 96
9, 256320, Note_on_c, 4, 72, 96
9, 256386, Note_on_c, 4, 60, 0
9, 256390, Note_on_c, 4, 72, 0
9, 256560, Note_on_c, 4, 55, 67
9, 256856, Note_on_c, 4, 55, 0
9, 257040, Note_on_c, 4, 55, 67
9, 257380, Note_on_c, 4, 55, 0
9, 257520, Note_on_c, 4, 55, 67
9, 257586, Note_on_c, 4, 55, 0
9, 257760, Note_on_c, 4, 55, 67
9, 257826, Note_on_c, 4, 55, 0
9, 258000, Note_on_c, 4, 55, 67
9, 258064, Note_on_c, 4, 55, 0
9, 258240, Note_on_c, 4, 55, 67
9, 258240, Note_on_c, 4, 71, 67
9, 258306, Note_on_c, 4, 55, 0
9, 258314, Note_on_c, 4, 71, 0
9, 258480, Note_on_c, 4, 68, 96
9, 258480, Note_on_c, 4, 80, 96
9, 258846, Note_on_c, 4, 68, 0
9, 258892, Note_on_c, 4, 80, 0
9, 258960, Note_on_c, 4, 68, 96
9, 258960, Note_on_c, 4, 80, 96
9, 259026, Note_on_c, 4, 68, 0
9, 259044, Note_on_c, 4, 80, 0
9, 259200, Note_on_c, 4, 67, 96
9, 259200, Note_on_c, 4, 79, 96
9, 259272, Note_on_c, 4, 67, 0
9, 259274, Note_on_c, 4, 79, 0
9, 259440, Note_on_c, 4, 65, 96
9, 259440, Note_on_c, 4, 77, 96
9, 259510, Note_on_c, 4, 65, 0
9, 259514, Note_on_c, 4, 77, 0
9, 259680, Note_on_c, 4, 64, 96
9, 259680, Note_on_c, 4, 76, 96
9, 259754, Note_on_c, 4, 64, 0
9, 259760, Note_on_c, 4, 76, 0
9, 259920, Note_on_c, 4, 62, 96
9, 259920, Note_on_c, 4, 74, 96
9, 259994, Note_on_c, 4, 74, 0
9, 259994, Note_on_c, 4, 62, 0
9, 260160, Note_on_c, 4, 61, 96
9, 260160, Note_on_c, 4, 73, 96
9, 260230, Note_on_c, 4, 61, 0
9, 260234, Note_on_c, 4, 73, 0
9, 260400, Note_on_c, 4, 70, 96
9, 260400, Note_on_c, 4, 82, 96
9, 260790, Note_on_c, 4, 70, 0
9, 260792, Note_on_c, 4, 82, 0
9, 260880, Note_on_c, 4, 70, 96
9, 260880, Note_on_c, 4, 82, 96
9, 260954, Note_on_c, 4, 70, 0
9, 260956, Note_on_c, 4, 82, 0
9, 261120, Note_on_c, 4, 69, 96
9, 261120, Note_on_c, 4, 81, 96
9, 261190, Note_on_c, 4, 69, 0
9, 261196, Note_on_c, 4, 81, 0
9, 261360, Note_on_c, 4, 67, 96
9, 261360, Note_on_c, 4, 79, 96
9, 261432, Note_on_c, 4, 67, 0
9, 261442, Note_on_c, 4, 79, 0
9, 261600, Note_on_c, 4, 65, 96
9, 261600, Note_on_c, 4, 77, 96
9, 261672, Note_on_c, 4, 77, 0
9, 261672, Note_on_c, 4, 65, 0
9, 261840, Note_on_c, 4, 76, 96
9, 261840, Note_on_c, 4, 64, 96
9, 261910, Note_on_c, 4, 76, 0
9, 261914, Note_on_c, 4, 64, 0
9, 262080, Control_c, 4, 7, 95
9, 262080, Note_on_c, 4, 63, 96
9, 262080, Note_on_c, 4, 75, 96
9, 262154, Note_on_c, 4, 75, 0
9, 262154, Note_on_c, 4, 63, 0
9, 262320, Note_on_c, 4, 72, 96
9, 262320, Note_on_c, 4, 84, 96
9, 262670, Note_on_c, 4, 72, 0
9, 262714, Note_on_c, 4, 84, 0
9, 262800, Note_on_c, 4, 72, 96
9, 262800, Note_on_c, 4, 84, 96
9, 262870, Note_on_c, 4, 72, 0
9, 262880, Note_on_c, 4, 84, 0
9, 263040, Control_c, 4, 7, 100
9, 263040, Note_on_c, 4, 64, 96
9, 263040, Note_on_c, 4, 76, 96
9, 263114, Note_on_c, 4, 64, 0
9, 263126, Note_on_c, 4, 76, 0
9, 263280, Note_on_c, 4, 73, 96
9, 263280, Note_on_c, 4, 85, 96
9, 263650, Note_on_c, 4, 73, 0
9, 263652, Note_on_c, 4, 85, 0
9, 263760, Note_on_c, 4, 85, 96
9, 263760, Note_on_c, 4, 73, 96
9, 263844, Note_on_c, 4, 85, 0
9, 263852, Note_on_c, 4, 73, 0
9, 264000, Control_c, 4, 7, 105
9, 264000, Note_on_c, 4, 77, 96
9, 264000, Note_on_c, 4, 65, 96
9, 264050, Note_on_c, 4, 77, 0
9, 264076, Note_on_c, 4, 65, 0
9, 264240, Note_on_c, 4, 86, 96
9, 264240, Note_on_c, 4, 74, 96
9, 264594, Note_on_c, 4, 86, 0
9, 264626, Note_on_c, 4, 74, 0
9, 264720, Note_on_c, 4, 74, 96
9, 264720, Note_on_c, 4, 86, 96
9, 264800, Note_on_c, 4, 74, 0
9, 264804, Note_on_c, 4, 86, 0
9, 264960, Control_c, 4, 7, 110
9, 264960, Note_on_c, 4, 66, 96
9, 264960, Note_on_c, 4, 78, 96
9, 265044, Note_on_c, 4, 78, 0
9, 265044, Note_on_c, 4, 66, 0
9, 265200, Note_on_c, 4, 87, 96
9, 265200, Note_on_c, 4, 75, 96
9, 265580, Note_on_c, 4, 87, 0
9, 265592, Note_on_c, 4, 75, 0
9, 265680, Note_on_c, 4, 75, 96
9, 265680, Note_on_c, 4, 87, 96
9, 265764, Note_on_c, 4, 75, 0
9, 265786, Note_on_c, 4, 87, 0
9, 265920, Control_c, 4, 7, 115
9, 265920, Note_on_c, 4, 75, 125
9, 265920, Note_on_c, 4, 84, 125
9, 265920, Note_on_c, 4, 87, 125
9, 265994, Note_on_c, 4, 75, 0
9, 266016, Note_on_c, 4, 84, 0
9, 266024, Note_on_c, 4, 87, 0
9, 266040, Note_on_c, 4, 84, 96
9, 266040, Note_on_c, 4, 87, 96
9, 266040, Note_on_c, 4, 75, 96
9, 266120, Note_on_c, 4, 75, 0
9, 266140, Note_on_c, 4, 84, 0
9, 266146, Note_on_c, 4, 87, 0
9, 266160, Note_on_c, 4, 84, 96
9, 266160, Note_on_c, 4, 87, 96
9, 266160, Note_on_c, 4, 75, 96
9, 266242, Note_on_c, 4, 75, 0
9, 266252, Note_on_c, 4, 84, 0
9, 266262, Note_on_c, 4, 87, 0
9, 266280, Note_on_c, 4, 84, 96
9, 266280, Note_on_c, 4, 87, 96
9, 266280, Note_on_c, 4, 75, 96
9, 266356, Note_on_c, 4, 75, 0
9, 266376, Note_on_c, 4, 84, 0
9, 266380, Note_on_c, 4, 87, 0
9, 266400, Note_on_c, 4, 75, 96
9, 266400, Note_on_c, 4, 84, 96
9, 266400, Note_on_c, 4, 87, 96
9, 266476, Note_on_c, 4, 75, 0
9, 266494, Note_on_c, 4, 84, 0
9, 266496, Note_on_c, 4, 87, 0
9, 266520, Note_on_c, 4, 84, 96
9, 266520, Note_on_c, 4, 87, 96
9, 266520, Note_on_c, 4, 75, 96
9, 266594, Note_on_c, 4, 75, 0
9, 266610, Note_on_c, 4, 84, 0
9, 266622, Note_on_c, 4, 87, 0
9, 266640, Note_on_c, 4, 84, 96
9, 266640, Note_on_c, 4, 87, 96
9, 266640, Note_on_c, 4, 75, 96
9, 266722, Note_on_c, 4, 75, 0
9, 266730, Note_on_c, 4, 84, 0
9, 266734, Note_on_c, 4, 87, 0
9, 266760, Note_on_c, 4, 84, 96
9, 266760, Note_on_c, 4, 87, 96
9, 266760, Note_on_c, 4, 75, 96
9, 266840, Note_on_c, 4, 75, 0
9, 266856, Note_on_c, 4, 84, 0
9, 266862, Note_on_c, 4, 87, 0
9, 266880, Note_on_c, 4, 75, 96
9, 266880, Note_on_c, 4, 84, 96
9, 266880, Note_on_c, 4, 87, 96
9, 266956, Note_on_c, 4, 75, 0
9, 266966, Note_on_c, 4, 84, 0
9, 266986, Note_on_c, 4, 87, 0
9, 267000, Note_on_c, 4, 84, 96
9, 267000, Note_on_c, 4, 87, 96
9, 267000, Note_on_c, 4, 75, 96
9, 267082, Note_on_c, 4, 75, 0
9, 267092, Note_on_c, 4, 84, 0
9, 267112, Note_on_c, 4, 87, 0
9, 267120, Note_on_c, 4, 87, 96
9, 267120, Note_on_c, 4, 84, 96
9, 267120, Note_on_c, 4, 75, 96
9, 267202, Note_on_c, 4, 75, 0
9, 267210, Note_on_c, 4, 84, 0
9, 267220, Note_on_c, 4, 87, 0
9, 267240, Note_on_c, 4, 87, 96
9, 267240, Note_on_c, 4, 75, 96
9, 267240, Note_on_c, 4, 84, 96
9, 267324, Note_on_c, 4, 75, 0
9, 267330, Note_on_c, 4, 87, 0
9, 267334, Note_on_c, 4, 84, 0
9, 267360, Note_on_c, 4, 75, 96
9, 267360, Note_on_c, 4, 87, 96
9, 267360, Note_on_c, 4, 84, 96
9, 267434, Note_on_c, 4, 75, 0
9, 267446, Note_on_c, 4, 87, 0
9, 267454, Note_on_c, 4, 84, 0
9, 267480, Note_on_c, 4, 87, 96
9, 267480, Note_on_c, 4, 84, 96
9, 267480, Note_on_c, 4, 75, 96
9, 267562, Note_on_c, 4, 75, 0
9, 267570, Note_on_c, 4, 87, 0
9, 267572, Note_on_c, 4, 84, 0
9, 267600, Note_on_c, 4, 75, 96
9, 267600, Note_on_c, 4, 84, 96
9, 267600, Note_on_c, 4, 87, 96
9, 267682, Note_on_c, 4, 75, 0
9, 267684, Note_on_c, 4, 84, 0
9, 267690, Note_on_c, 4, 87, 0
9, 267720, Note_on_c, 4, 84, 96
9, 267720, Note_on_c, 4, 87, 96
9, 267720, Note_on_c, 4, 75, 96
9, 267800, Note_on_c, 4, 75, 0
9, 267812, Note_on_c, 4, 84, 0
9, 267820, Note_on_c, 4, 87, 0
9, 267840, Note_on_c, 4, 77, 96
9, 267840, Note_on_c, 4, 85, 96
9, 267840, Note_on_c, 4, 89, 96
9, 267934, Note_on_c, 4, 89, 0
9, 267936, Note_on_c, 4, 77, 0
9, 267942, Note_on_c, 4, 85, 0
9, 267960, Note_on_c, 4, 85, 96
9, 267960, Note_on_c, 4, 89, 96
9, 267960, Note_on_c, 4, 77, 96
9, 268040, Note_on_c, 4, 77, 0
9, 268046, Note_on_c, 4, 85, 0
9, 268052, Note_on_c, 4, 89, 0
9, 268080, Note_on_c, 4, 77, 96
9, 268080, Note_on_c, 4, 85, 96
9, 268080, Note_on_c, 4, 89, 96
9, 268166, Note_on_c, 4, 85, 0
9, 268166, Note_on_c, 4, 77, 0
9, 268170, Note_on_c, 4, 89, 0
9, 268200, Note_on_c, 4, 85, 96
9, 268200, Note_on_c, 4, 77, 96
9, 268200, Note_on_c, 4, 89, 96
9, 268286, Note_on_c, 4, 77, 0
9, 268292, Note_on_c, 4, 85, 0
9, 268300, Note_on_c, 4, 89, 0
9, 268320, Note_on_c, 4, 85, 125
9, 268320, Note_on_c, 4, 75, 125
9, 268320, Note_on_c, 4, 84, 125
9, 268320, Note_on_c, 4, 87, 125
9, 268364, Note_on_c, 4, 85, 0
9, 268402, Note_on_c, 4, 75, 0
9, 268412, Note_on_c, 4, 84, 0
9, 268414, Note_on_c, 4, 87, 0
9, 268440, Note_on_c, 4, 84, 96
9, 268440, Note_on_c, 4, 87, 96
9, 268440, Note_on_c, 4, 75, 96
9, 268522, Note_on_c, 4, 75, 0
9, 268522, Note_on_c, 4, 84, 0
9, 268526, Note_on_c, 4, 87, 0
9, 268560, Note_on_c, 4, 84, 96
9, 268560, Note_on_c, 4, 87, 96
9, 268560, Note_on_c, 4, 75, 96
9, 268642, Note_on_c, 4, 75, 0
9, 268644, Note_on_c, 4, 84, 0
9, 268652, Note_on_c, 4, 87, 0
9, 268680, Note_on_c, 4, 87, 96
9, 268680, Note_on_c, 4, 84, 96
9, 268680, Note_on_c, 4, 75, 96
9, 268766, Note_on_c, 4, 75, 0
9, 268766, Note_on_c, 4, 87, 0
9, 268772, Note_on_c, 4, 84, 0
9, 268800, Note_on_c, 4, 75, 96
9, 268800, Note_on_c, 4, 84, 96
9, 268800, Note_on_c, 4, 87, 96
9, 268882, Note_on_c, 4, 75, 0
9, 268890, Note_on_c, 4, 84, 0
9, 268892, Note_on_c, 4, 87, 0
9, 268920, Note_on_c, 4, 84, 96
9, 268920, Note_on_c, 4, 87, 96
9, 268920, Note_on_c, 4, 75, 96
9, 269000, Note_on_c, 4, 75, 0
9, 269004, Note_on_c, 4, 84, 0
9, 269012, Note_on_c, 4, 87, 0
9, 269040, Note_on_c, 4, 87, 96
9, 269040, Note_on_c, 4, 84, 96
9, 269040, Note_on_c, 4, 75, 96
9, 269122, Note_on_c, 4, 75, 0
9, 269126, Note_on_c, 4, 84, 0
9, 269132, Note_on_c, 4, 87, 0
9, 269160, Note_on_c, 4, 75, 96
9, 269160, Note_on_c, 4, 84, 96
9, 269160, Note_on_c, 4, 87, 96
9, 269246, Note_on_c, 4, 84, 0
9, 269246, Note_on_c, 4, 75, 0
9, 269254, Note_on_c, 4, 87, 0
9, 269280, Note_on_c, 4, 75, 96
9, 269280, Note_on_c, 4, 84, 96
9, 269280, Note_on_c, 4, 87, 96
9, 269362, Note_on_c, 4, 75, 0
9, 269366, Note_on_c, 4, 84, 0
9, 269374, Note_on_c, 4, 87, 0
9, 269400, Note_on_c, 4, 84, 96
9, 269400, Note_on_c, 4, 75, 96
9, 269400, Note_on_c, 4, 87, 96
9, 269476, Note_on_c, 4, 75, 0
9, 269484, Note_on_c, 4, 84, 0
9, 269494, Note_on_c, 4, 87, 0
9, 269520, Note_on_c, 4, 84, 96
9, 269520, Note_on_c, 4, 75, 96
9, 269520, Note_on_c, 4, 87, 96
9, 269596, Note_on_c, 4, 75, 0
9, 269596, Note_on_c, 4, 84, 0
9, 269606, Note_on_c, 4, 87, 0
9, 269640, Note_on_c, 4, 84, 96
9, 269640, Note_on_c, 4, 87, 96
9, 269640, Note_on_c, 4, 75, 96
9, 269716, Note_on_c, 4, 75, 0
9, 269730, Note_on_c, 4, 84, 0
9, 269736, Note_on_c, 4, 87, 0
9, 269760, Note_on_c, 4, 89, 96
9, 269760, Note_on_c, 4, 85, 96
9, 269760, Note_on_c, 4, 77, 96
9, 269842, Note_on_c, 4, 77, 0
9, 269846, Note_on_c, 4, 85, 0
9, 269854, Note_on_c, 4, 89, 0
9, 269880, Note_on_c, 4, 85, 96
9, 269880, Note_on_c, 4, 89, 96
9, 269880, Note_on_c, 4, 77, 96
9, 269960, Note_on_c, 4, 77, 0
9, 269964, Note_on_c, 4, 85, 0
9, 269970, Note_on_c, 4, 89, 0
9, 270000, Note_on_c, 4, 85, 96
9, 270000, Note_on_c, 4, 89, 96
9, 270000, Note_on_c, 4, 77, 96
9, 270076, Note_on_c, 4, 77, 0
9, 270084, Note_on_c, 4, 85, 0
9, 270090, Note_on_c, 4, 89, 0
9, 270120, Note_on_c, 4, 77, 96
9, 270120, Note_on_c, 4, 89, 96
9, 270120, Note_on_c, 4, 85, 96
9, 270200, Note_on_c, 4, 85, 0
9, 270204, Note_on_c, 4, 77, 0
9, 270214, Note_on_c, 4, 89, 0
9, 270240, Note_on_c, 4, 75, 127
9, 270240, Note_on_c, 4, 84, 127
9, 270240, Note_on_c, 4, 87, 127
9, 270322, Note_on_c, 4, 75, 0
9, 270334, Note_on_c, 4, 87, 0
9, 270334, Note_on_c, 4, 84, 0
9, 270360, Note_on_c, 4, 75, 127
9, 270360, Note_on_c, 4, 84, 127
9, 270360, Note_on_c, 4, 87, 127
9, 270434, Note_on_c, 4, 75, 0
9, 270436, Note_on_c, 4, 84, 0
9, 270450, Note_on_c, 4, 87, 0
9, 270480, Note_on_c, 4, 84, 127
9, 270480, Note_on_c, 4, 75, 127
9, 270480, Note_on_c, 4, 87, 127
9, 270562, Note_on_c, 4, 75, 0
9, 270562, Note_on_c, 4, 84, 0
9, 270572, Note_on_c, 4, 87, 0
9, 270600, Note_on_c, 4, 87, 127
9, 270600, Note_on_c, 4, 84, 127
9, 270600, Note_on_c, 4, 75, 127
9, 270676, Note_on_c, 4, 75, 0
9, 270682, Note_on_c, 4, 84, 0
9, 270692, Note_on_c, 4, 87, 0
9, 270720, Note_on_c, 4, 84, 127
9, 270720, Note_on_c, 4, 75, 127
9, 270720, Note_on_c, 4, 87, 127
9, 270802, Note_on_c, 4, 75, 0
9, 270810, Note_on_c, 4, 84, 0
9, 270812, Note_on_c, 4, 87, 0
9, 270840, Note_on_c, 4, 75, 127
9, 270840, Note_on_c, 4, 84, 127
9, 270840, Note_on_c, 4, 87, 127
9, 270922, Note_on_c, 4, 75, 0
9, 270926, Note_on_c, 4, 87, 0
9, 270926, Note_on_c, 4, 84, 0
9, 270960, Note_on_c, 4, 75, 127
9, 270960, Note_on_c, 4, 84, 127
9, 270960, Note_on_c, 4, 87, 127
9, 271032, Note_on_c, 4, 75, 0
9, 271046, Note_on_c, 4, 87, 0
9, 271046, Note_on_c, 4, 84, 0
9, 271080, Note_on_c, 4, 87, 127
9, 271080, Note_on_c, 4, 75, 127
9, 271080, Note_on_c, 4, 84, 127
9, 271160, Note_on_c, 4, 75, 0
9, 271166, Note_on_c, 4, 84, 0
9, 271170, Note_on_c, 4, 87, 0
9, 271200, Note_on_c, 4, 75, 127
9, 271200, Note_on_c, 4, 84, 127
9, 271200, Note_on_c, 4, 87, 127
9, 271274, Note_on_c, 4, 75, 0
9, 271290, Note_on_c, 4, 87, 0
9, 271292, Note_on_c, 4, 84, 0
9, 271320, Note_on_c, 4, 84, 127
9, 271320, Note_on_c, 4, 87, 127
9, 271320, Note_on_c, 4, 75, 127
9, 271400, Note_on_c, 4, 75, 0
9, 271402, Note_on_c, 4, 84, 0
9, 271404, Note_on_c, 4, 87, 0
9, 271440, Note_on_c, 4, 84, 127
9, 271440, Note_on_c, 4, 87, 127
9, 271440, Note_on_c, 4, 75, 127
9, 271520, Note_on_c, 4, 75, 0
9, 271520, Note_on_c, 4, 84, 0
9, 271526, Note_on_c, 4, 87, 0
9, 271560, Note_on_c, 4, 84, 127
9, 271560, Note_on_c, 4, 75, 127
9, 271560, Note_on_c, 4, 87, 127
9, 271644, Note_on_c, 4, 75, 0
9, 271644, Note_on_c, 4, 84, 0
9, 271646, Note_on_c, 4, 87, 0
9, 271680, Control_c, 4, 7, 127
9, 271680, Note_on_c, 4, 76, 127
9, 271680, Note_on_c, 4, 84, 127
9, 271680, Note_on_c, 4, 88, 127
9, 271766, Note_on_c, 4, 88, 0
9, 271766, Note_on_c, 4, 84, 0
9, 271766, Note_on_c, 4, 76, 0
9, 271800, Note_on_c, 4, 88, 127
9, 271800, Note_on_c, 4, 84, 127
9, 271886, Note_on_c, 4, 88, 0
9, 271892, Note_on_c, 4, 84, 0
9, 271920, Note_on_c, 4, 88, 127
9, 271920, Note_on_c, 4, 84, 127
9, 272010, Note_on_c, 4, 88, 0
9, 272012, Note_on_c, 4, 84, 0
9, 272040, Note_on_c, 4, 84, 127
9, 272040, Note_on_c, 4, 88, 127
9, 272126, Note_on_c, 4, 88, 0
9, 272134, Note_on_c, 4, 84, 0
9, 272160, Note_on_c, 4, 88, 127
9, 272160, Note_on_c, 4, 84, 127
9, 272246, Note_on_c, 4, 88, 0
9, 272250, Note_on_c, 4, 84, 0
9, 272280, Note_on_c, 4, 88, 127
9, 272280, Note_on_c, 4, 84, 127
9, 272362, Note_on_c, 4, 88, 0
9, 272370, Note_on_c, 4, 84, 0
9, 272400, Note_on_c, 4, 84, 127
9, 272400, Note_on_c, 4, 88, 127
9, 272480, Note_on_c, 4, 84, 0
9, 272490, Note_on_c, 4, 88, 0
9, 272520, Note_on_c, 4, 88, 127
9, 272520, Note_on_c, 4, 84, 127
9, 272612, Note_on_c, 4, 88, 0
9, 272616, Note_on_c, 4, 84, 0
9, 272640, Note_on_c, 4, 89, 127
9, 272640, Note_on_c, 4, 72, 127
9, 272734, Note_on_c, 4, 72, 0
9, 272734, Note_on_c, 4, 89, 0
9, 272760, Note_on_c, 4, 89, 127
9, 272760, Note_on_c, 4, 84, 127
9, 272854, Note_on_c, 4, 89, 0
9, 272856, Note_on_c, 4, 84, 0
9, 272880, Note_on_c, 4, 84, 127
9, 272880, Note_on_c, 4, 89, 127
9, 272974, Note_on_c, 4, 89, 0
9, 272974, Note_on_c, 4, 84, 0
9, 273000, Note_on_c, 4, 84, 127
9, 273000, Note_on_c, 4, 89, 127
9, 273092, Note_on_c, 4, 89, 0
9, 273100, Note_on_c, 4, 84, 0
9, 273120, Note_on_c, 4, 84, 127
9, 273120, Note_on_c, 4, 89, 127
9, 273210, Note_on_c, 4, 84, 0
9, 273214, Note_on_c, 4, 89, 0
9, 273240, Note_on_c, 4, 84, 127
9, 273240, Note_on_c, 4, 89, 127
9, 273326, Note_on_c, 4, 84, 0
9, 273332, Note_on_c, 4, 89, 0
9, 273360, Note_on_c, 4, 84, 127
9, 273360, Note_on_c, 4, 89, 127
9, 273446, Note_on_c, 4, 89, 0
9, 273446, Note_on_c, 4, 84, 0
9, 273480, Note_on_c, 4, 84, 127
9, 273480, Note_on_c, 4, 89, 127
9, 273562, Note_on_c, 4, 84, 0
9, 273574, Note_on_c, 4, 89, 0
9, 273600, Note_on_c, 4, 87, 127
9, 273600, Note_on_c, 4, 90, 127
9, 273684, Note_on_c, 4, 90, 0
9, 273694, Note_on_c, 4, 87, 0
9, 273720, Note_on_c, 4, 90, 127
9, 273720, Note_on_c, 4, 87, 127
9, 273806, Note_on_c, 4, 90, 0
9, 273816, Note_on_c, 4, 87, 0
9, 273840, Note_on_c, 4, 90, 127
9, 273840, Note_on_c, 4, 87, 127
9, 273916, Note_on_c, 4, 90, 0
9, 273940, Note_on_c, 4, 87, 0
9, 273960, Note_on_c, 4, 87, 127
9, 273960, Note_on_c, 4, 90, 127
9, 274044, Note_on_c, 4, 90, 0
9, 274052, Note_on_c, 4, 87, 0
9, 274080, Note_on_c, 4, 90, 127
9, 274080, Note_on_c, 4, 87, 127
9, 274164, Note_on_c, 4, 90, 0
9, 274166, Note_on_c, 4, 87, 0
9, 274200, Note_on_c, 4, 90, 127
9, 274200, Note_on_c, 4, 87, 127
9, 274284, Note_on_c, 4, 90, 0
9, 274294, Note_on_c, 4, 87, 0
9, 274320, Note_on_c, 4, 90, 127
9, 274320, Note_on_c, 4, 87, 127
9, 274402, Note_on_c, 4, 90, 0
9, 274412, Note_on_c, 4, 87, 0
9, 274440, Note_on_c, 4, 87, 127
9, 274440, Note_on_c, 4, 90, 127
9, 274534, Note_on_c, 4, 87, 0
9, 274540, Note_on_c, 4, 90, 0
9, 274560, Note_on_c, 4, 88, 127
9, 274560, Note_on_c, 4, 91, 127
9, 274650, Note_on_c, 4, 91, 0
9, 274660, Note_on_c, 4, 88, 0
9, 274680, Note_on_c, 4, 91, 127
9, 274680, Note_on_c, 4, 88, 127
9, 274764, Note_on_c, 4, 91, 0
9, 274766, Note_on_c, 4, 88, 0
9, 274800, Note_on_c, 4, 88, 127
9, 274800, Note_on_c, 4, 91, 127
9, 274874, Note_on_c, 4, 88, 0
9, 274880, Note_on_c, 4, 91, 0
9, 274920, Note_on_c, 4, 91, 127
9, 274920, Note_on_c, 4, 88, 127
9, 275010, Note_on_c, 4, 88, 0
9, 275012, Note_on_c, 4, 91, 0
9, 275040, Note_on_c, 4, 77, 127
9, 275040, Note_on_c, 4, 83, 127
9, 275132, Note_on_c, 4, 77, 0
9, 275136, Note_on_c, 4, 83, 0
9, 275160, Note_on_c, 4, 83, 127
9, 275160, Note_on_c, 4, 77, 127
9, 275244, Note_on_c, 4, 77, 0
9, 275250, Note_on_c, 4, 83, 0
9, 275280, Note_on_c, 4, 77, 127
9, 275280, Note_on_c, 4, 83, 127
9, 275346, Note_on_c, 4, 77, 0
9, 275374, Note_on_c, 4, 83, 0
9, 275400, Note_on_c, 4, 83, 127
9, 275400, Note_on_c, 4, 77, 127
9, 275486, Note_on_c, 4, 83, 0
9, 275494, Note_on_c, 4, 77, 0
9, 275520, Note_on_c, 4, 76, 96
9, 275520, Note_on_c, 4, 84, 96
9, 275576, Note_on_c, 4, 76, 0
9, 275604, Note_on_c, 4, 84, 0
9, 275640, Note_on_c, 4, 55, 96
9, 275640, Note_on_c, 4, 67, 96
9, 275722, Note_on_c, 4, 55, 0
9, 275724, Note_on_c, 4, 67, 0
9, 275760, Note_on_c, 4, 57, 96
9, 275760, Note_on_c, 4, 69, 96
9, 275840, Note_on_c, 4, 57, 0
9, 275844, Note_on_c, 4, 69, 0
9, 275880, Note_on_c, 4, 71, 96
9, 275880, Note_on_c, 4, 59, 96
9, 275960, Note_on_c, 4, 59, 0
9, 275964, Note_on_c, 4, 71, 0
9, 276000, Note_on_c, 4, 60, 96
9, 276000, Note_on_c, 4, 72, 96
9, 276072, Note_on_c, 4, 60, 0
9, 276084, Note_on_c, 4, 72, 0
9, 276120, Note_on_c, 4, 62, 96
9, 276120, Note_on_c, 4, 74, 96
9, 276190, Note_on_c, 4, 62, 0
9, 276204, Note_on_c, 4, 74, 0
9, 276240, Note_on_c, 4, 64, 96
9, 276240, Note_on_c, 4, 76, 96
9, 276312, Note_on_c, 4, 64, 0
9, 276324, Note_on_c, 4, 76, 0
9, 276360, Note_on_c, 4, 74, 96
9, 276360, Note_on_c, 4, 62, 96
9, 276430, Note_on_c, 4, 62, 0
9, 276444, Note_on_c, 4, 74, 0
9, 276480, Note_on_c, 4, 61, 96
9, 276480, Note_on_c, 4, 73, 96
9, 276560, Note_on_c, 4, 61, 0
9, 276564, Note_on_c, 4, 73, 0
9, 276600, Note_on_c, 4, 59, 96
9, 276600, Note_on_c, 4, 71, 96
9, 276674, Note_on_c, 4, 59, 0
9, 276684, Note_on_c, 4, 71, 0
9, 276720, Note_on_c, 4, 57, 96
9, 276720, Note_on_c, 4, 69, 96
9, 276804, Note_on_c, 4, 69, 0
9, 276804, Note_on_c, 4, 57, 0
9, 276840, Note_on_c, 4, 59, 96
9, 276840, Note_on_c, 4, 71, 96
9, 276914, Note_on_c, 4, 59, 0
9, 276924, Note_on_c, 4, 71, 0
9, 276960, Note_on_c, 4, 61, 96
9, 276960, Note_on_c, 4, 73, 96
9, 277042, Note_on_c, 4, 61, 0
9, 277044, Note_on_c, 4, 73, 0
9, 277080, Note_on_c, 4, 74, 96
9, 277080, Note_on_c, 4, 62, 96
9, 277160, Note_on_c, 4, 62, 0
9, 277164, Note_on_c, 4, 74, 0
9, 277200, Note_on_c, 4, 76, 96
9, 277200, Note_on_c, 4, 64, 96
9, 277276, Note_on_c, 4, 64, 0
9, 277284, Note_on_c, 4, 76, 0
9, 277320, Note_on_c, 4, 73, 96
9, 277320, Note_on_c, 4, 61, 96
9, 277396, Note_on_c, 4, 61, 0
9, 277404, Note_on_c, 4, 73, 0
9, 277440, Note_on_c, 4, 62, 96
9, 277440, Note_on_c, 4, 74, 96
9, 277514, Note_on_c, 4, 62, 0
9, 277524, Note_on_c, 4, 74, 0
9, 277560, Note_on_c, 4, 57, 96
9, 277560, Note_on_c, 4, 69, 96
9, 277644, Note_on_c, 4, 69, 0
9, 277644, Note_on_c, 4, 57, 0
9, 277680, Note_on_c, 4, 59, 96
9, 277680, Note_on_c, 4, 71, 96
9, 277756, Note_on_c, 4, 59, 0
9, 277764, Note_on_c, 4, 71, 0
9, 277800, Note_on_c, 4, 61, 96
9, 277800, Note_on_c, 4, 73, 96
9, 277880, Note_on_c, 4, 61, 0
9, 277884, Note_on_c, 4, 73, 0
9, 277920, Note_on_c, 4, 74, 96
9, 277920, Note_on_c, 4, 62, 96
9, 278004, Note_on_c, 4, 74, 0
9, 278006, Note_on_c, 4, 62, 0
9, 278040, Note_on_c, 4, 76, 96
9, 278040, Note_on_c, 4, 64, 96
9, 278120, Note_on_c, 4, 64, 0
9, 278124, Note_on_c, 4, 76, 0
9, 278160, Note_on_c, 4, 77, 96
9, 278160, Note_on_c, 4, 65, 96
9, 278234, Note_on_c, 4, 65, 0
9, 278244, Note_on_c, 4, 77, 0
9, 278280, Note_on_c, 4, 74, 96
9, 278280, Note_on_c, 4, 62, 96
9, 278356, Note_on_c, 4, 62, 0
9, 278364, Note_on_c, 4, 74, 0
9, 278400, Note_on_c, 4, 59, 96
9, 278400, Note_on_c, 4, 71, 96
9, 278474, Note_on_c, 4, 59, 0
9, 278484, Note_on_c, 4, 71, 0
9, 278520, Note_on_c, 4, 57, 96
9, 278520, Note_on_c, 4, 69, 96
9, 278602, Note_on_c, 4, 57, 0
9, 278604, Note_on_c, 4, 69, 0
9, 278640, Note_on_c, 4, 67, 96
9, 278640, Note_on_c, 4, 55, 96
9, 278720, Note_on_c, 4, 55, 0
9, 278724, Note_on_c, 4, 67, 0
9, 278760, Note_on_c, 4, 69, 96
9, 278760, Note_on_c, 4, 57, 96
9, 278834, Note_on_c, 4, 57, 0
9, 278844, Note_on_c, 4, 69, 0
9, 278880, Note_on_c, 4, 59, 96
9, 278880, Note_on_c, 4, 71, 96
9, 278952, Note_on_c, 4, 59, 0
9, 278964, Note_on_c, 4, 71, 0
9, 279000, Note_on_c, 4, 60, 96
9, 279000, Note_on_c, 4, 72, 96
9, 279072, Note_on_c, 4, 60, 0
9, 279084, Note_on_c, 4, 72, 0
9, 279120, Note_on_c, 4, 62, 96
9, 279120, Note_on_c, 4, 74, 96
9, 279186, Note_on_c, 4, 62, 0
9, 279204, Note_on_c, 4, 74, 0
9, 279240, Note_on_c, 4, 71, 96
9, 279240, Note_on_c, 4, 59, 96
9, 279300, Note_on_c, 4, 59, 0
9, 279324, Note_on_c, 4, 71, 0
9, 279360, Note_on_c, 4, 60, 96
9, 279360, Note_on_c, 4, 72, 96
9, 279434, Note_on_c, 4, 60, 0
9, 279444, Note_on_c, 4, 72, 0
9, 279480, Note_on_c, 4, 67, 96
9, 279480, Note_on_c, 4, 55, 96
9, 279560, Note_on_c, 4, 55, 0
9, 279564, Note_on_c, 4, 67, 0
9, 279600, Note_on_c, 4, 69, 96
9, 279600, Note_on_c, 4, 57, 96
9, 279680, Note_on_c, 4, 57, 0
9, 279684, Note_on_c, 4, 69, 0
9, 279720, Note_on_c, 4, 71, 96
9, 279720, Note_on_c, 4, 59, 96
9, 279794, Note_on_c, 4, 59, 0
9, 279804, Note_on_c, 4, 71, 0
9, 279840, Note_on_c, 4, 72, 96
9, 279840, Note_on_c, 4, 60, 96
9, 279924, Note_on_c, 4, 72, 0
9, 279926, Note_on_c, 4, 60, 0
9, 279960, Note_on_c, 4, 62, 96
9, 279960, Note_on_c, 4, 74, 96
9, 280030, Note_on_c, 4, 62, 0
9, 280044, Note_on_c, 4, 74, 0
9, 280080, Note_on_c, 4, 76, 96
9, 280080, Note_on_c, 4, 64, 96
9, 280152, Note_on_c, 4, 64, 0
9, 280164, Note_on_c, 4, 76, 0
9, 280200, Note_on_c, 4, 74, 96
9, 280200, Note_on_c, 4, 62, 96
9, 280266, Note_on_c, 4, 62, 0
9, 280284, Note_on_c, 4, 74, 0
9, 280320, Note_on_c, 4, 61, 96
9, 280320, Note_on_c, 4, 73, 96
9, 280396, Note_on_c, 4, 61, 0
9, 280404, Note_on_c, 4, 73, 0
9, 280440, Note_on_c, 4, 59, 96
9, 280440, Note_on_c, 4, 71, 96
9, 280506, Note_on_c, 4, 59, 0
9, 280524, Note_on_c, 4, 71, 0
9, 280560, Note_on_c, 4, 57, 96
9, 280560, Note_on_c, 4, 69, 96
9, 280640, Note_on_c, 4, 57, 0
9, 280644, Note_on_c, 4, 69, 0
9, 280680, Note_on_c, 4, 59, 96
9, 280680, Note_on_c, 4, 71, 96
9, 280746, Note_on_c, 4, 59, 0
9, 280764, Note_on_c, 4, 71, 0
9, 280800, Note_on_c, 4, 61, 96
9, 280800, Note_on_c, 4, 73, 96
9, 280882, Note_on_c, 4, 61, 0
9, 280884, Note_on_c, 4, 73, 0
9, 280920, Note_on_c, 4, 74, 96
9, 280920, Note_on_c, 4, 62, 96
9, 280992, Note_on_c, 4, 62, 0
9, 281004, Note_on_c, 4, 74, 0
9, 281040, Note_on_c, 4, 76, 96
9, 281040, Note_on_c, 4, 64, 96
9, 281120, Note_on_c, 4, 64, 0
9, 281124, Note_on_c, 4, 76, 0
9, 281160, Note_on_c, 4, 73, 96
9, 281160, Note_on_c, 4, 61, 96
9, 281240, Note_on_c, 4, 61, 0
9, 281244, Note_on_c, 4, 73, 0
9, 281280, Note_on_c, 4, 62, 96
9, 281280, Note_on_c, 4, 74, 96
9, 281354, Note_on_c, 4, 62, 0
9, 281364, Note_on_c, 4, 74, 0
9, 281400, Note_on_c, 4, 57, 96
9, 281400, Note_on_c, 4, 69, 96
9, 281482, Note_on_c, 4, 57, 0
9, 281484, Note_on_c, 4, 69, 0
9, 281520, Note_on_c, 4, 59, 96
9, 281520, Note_on_c, 4, 71, 96
9, 281594, Note_on_c, 4, 59, 0
9, 281604, Note_on_c, 4, 71, 0
9, 281640, Note_on_c, 4, 61, 96
9, 281640, Note_on_c, 4, 73, 96
9, 281720, Note_on_c, 4, 61, 0
9, 281724, Note_on_c, 4, 73, 0
9, 281760, Note_on_c, 4, 74, 96
9, 281760, Note_on_c, 4, 62, 96
9, 281844, Note_on_c, 4, 74, 0
9, 281846, Note_on_c, 4, 62, 0
9, 281880, Note_on_c, 4, 76, 96
9, 281880, Note_on_c, 4, 64, 96
9, 281946, Note_on_c, 4, 64, 0
9, 281964, Note_on_c, 4, 76, 0
9, 282000, Note_on_c, 4, 77, 96
9, 282000, Note_on_c, 4, 65, 96
9, 282080, Note_on_c, 4, 65, 0
9, 282084, Note_on_c, 4, 77, 0
9, 282120, Note_on_c, 4, 74, 96
9, 282120, Note_on_c, 4, 62, 96
9, 282196, Note_on_c, 4, 62, 0
9, 282204, Note_on_c, 4, 74, 0
9, 282240, Note_on_c, 4, 59, 96
9, 282240, Note_on_c, 4, 71, 96
9, 282320, Note_on_c, 4, 59, 0
9, 282324, Note_on_c, 4, 71, 0
9, 282360, Note_on_c, 4, 69, 96
9, 282360, Note_on_c, 4, 57, 96
9, 282440, Note_on_c, 4, 57, 0
9, 282444, Note_on_c, 4, 69, 0
9, 282480, Note_on_c, 4, 55, 96
9, 282480, Note_on_c, 4, 67, 96
9, 282564, Note_on_c, 4, 67, 0
9, 282566, Note_on_c, 4, 55, 0
9, 282600, Note_on_c, 4, 69, 96
9, 282600, Note_on_c, 4, 57, 96
9, 282674, Note_on_c, 4, 57, 0
9, 282684, Note_on_c, 4, 69, 0
9, 282720, Note_on_c, 4, 59, 96
9, 282720, Note_on_c, 4, 71, 96
9, 282794, Note_on_c, 4, 59, 0
9, 282804, Note_on_c, 4, 71, 0
9, 282840, Note_on_c, 4, 60, 96
9, 282840, Note_on_c, 4, 72, 96
9, 282914, Note_on_c, 4, 60, 0
9, 282924, Note_on_c, 4, 72, 0
9, 282960, Note_on_c, 4, 62, 96
9, 282960, Note_on_c, 4, 74, 96
9, 283032, Note_on_c, 4, 62, 0
9, 283044, Note_on_c, 4, 74, 0
9, 283080, Note_on_c, 4, 71, 96
9, 283080, Note_on_c, 4, 59, 96
9, 283146, Note_on_c, 4, 59, 0
9, 283164, Note_on_c, 4, 71, 0
9, 283200, Note_on_c, 4, 60, 96
9, 283200, Note_on_c, 4, 72, 96
9, 283272, Note_on_c, 4, 60, 0
9, 283284, Note_on_c, 4, 72, 0
9, 283320, Note_on_c, 4, 74, 96
9, 283320, Note_on_c, 4, 62, 96
9, 283392, Note_on_c, 4, 62, 0
9, 283404, Note_on_c, 4, 74, 0
9, 283440, Note_on_c, 4, 76, 96
9, 283440, Note_on_c, 4, 64, 96
9, 283516, Note_on_c, 4, 64, 0
9, 283524, Note_on_c, 4, 76, 0
9, 283560, Note_on_c, 4, 72, 96
9, 283560, Note_on_c, 4, 60, 96
9, 283634, Note_on_c, 4, 60, 0
9, 283644, Note_on_c, 4, 72, 0
9, 283680, Note_on_c, 4, 61, 96
9, 283680, Note_on_c, 4, 73, 96
9, 283760, Note_on_c, 4, 61, 0
9, 283764, Note_on_c, 4, 73, 0
9, 283800, Note_on_c, 4, 62, 96
9, 283800, Note_on_c, 4, 74, 96
9, 283874, Note_on_c, 4, 62, 0
9, 283884, Note_on_c, 4, 74, 0
9, 283920, Note_on_c, 4, 64, 96
9, 283920, Note_on_c, 4, 76, 96
9, 283990, Note_on_c, 4, 64, 0
9, 284004, Note_on_c, 4, 76, 0
9, 284040, Note_on_c, 4, 61, 96
9, 284040, Note_on_c, 4, 73, 96
9, 284122, Note_on_c, 4, 61, 0
9, 284124, Note_on_c, 4, 73, 0
9, 284160, Note_on_c, 4, 62, 96
9, 284160, Note_on_c, 4, 74, 96
9, 284236, Note_on_c, 4, 62, 0
9, 284244, Note_on_c, 4, 74, 0
9, 284280, Note_on_c, 4, 76, 96
9, 284280, Note_on_c, 4, 64, 96
9, 284360, Note_on_c, 4, 64, 0
9, 284364, Note_on_c, 4, 76, 0
9, 284400, Note_on_c, 4, 77, 96
9, 284400, Note_on_c, 4, 65, 96
9, 284470, Note_on_c, 4, 65, 0
9, 284484, Note_on_c, 4, 77, 0
9, 284520, Note_on_c, 4, 74, 96
9, 284520, Note_on_c, 4, 62, 96
9, 284596, Note_on_c, 4, 62, 0
9, 284604, Note_on_c, 4, 74, 0
9, 284640, Note_on_c, 4, 71, 96
9, 284640, Note_on_c, 4, 59, 96
9, 284724, Note_on_c, 4, 71, 0
9, 284726, Note_on_c, 4, 59, 0
9, 284760, Note_on_c, 4, 72, 96
9, 284760, Note_on_c, 4, 60, 96
9, 284834, Note_on_c, 4, 60, 0
9, 284844, Note_on_c, 4, 72, 0
9, 284880, Note_on_c, 4, 62, 96
9, 284880, Note_on_c, 4, 74, 96
9, 284952, Note_on_c, 4, 62, 0
9, 284964, Note_on_c, 4, 74, 0
9, 285000, Note_on_c, 4, 59, 96
9, 285000, Note_on_c, 4, 71, 96
9, 285084, Note_on_c, 4, 71, 0
9, 285086, Note_on_c, 4, 59, 0
9, 285120, Note_on_c, 4, 72, 96
9, 285120, Note_on_c, 4, 60, 96
9, 285200, Note_on_c, 4, 60, 0
9, 285204, Note_on_c, 4, 72, 0
9, 285240, Note_on_c, 4, 62, 96
9, 285240, Note_on_c, 4, 74, 96
9, 285320, Note_on_c, 4, 62, 0
9, 285324, Note_on_c, 4, 74, 0
9, 285360, Note_on_c, 4, 64, 96
9, 285360, Note_on_c, 4, 76, 96
9, 285426, Note_on_c, 4, 64, 0
9, 285444, Note_on_c, 4, 76, 0
9, 285480, Note_on_c, 4, 72, 96
9, 285480, Note_on_c, 4, 60, 96
9, 285550, Note_on_c, 4, 60, 0
9, 285564, Note_on_c, 4, 72, 0
9, 285600, Note_on_c, 4, 73, 96
9, 285600, Note_on_c, 4, 61, 96
9, 285682, Note_on_c, 4, 61, 0
9, 285684, Note_on_c, 4, 73, 0
9, 285720, Note_on_c, 4, 74, 96
9, 285720, Note_on_c, 4, 62, 96
9, 285800, Note_on_c, 4, 62, 0
9, 285804, Note_on_c, 4, 74, 0
9, 285840, Note_on_c, 4, 76, 96
9, 285840, Note_on_c, 4, 64, 96
9, 285914, Note_on_c, 4, 64, 0
9, 285924, Note_on_c, 4, 76, 0
9, 285960, Note_on_c, 4, 73, 96
9, 285960, Note_on_c, 4, 61, 96
9, 286032, Note_on_c, 4, 61, 0
9, 286044, Note_on_c, 4, 73, 0
9, 286080, Note_on_c, 4, 74, 96
9, 286080, Note_on_c, 4, 62, 96
9, 286154, Note_on_c, 4, 62, 0
9, 286164, Note_on_c, 4, 74, 0
9, 286200, Note_on_c, 4, 76, 96
9, 286200, Note_on_c, 4, 64, 96
9, 286274, Note_on_c, 4, 64, 0
9, 286284, Note_on_c, 4, 76, 0
9, 286320, Note_on_c, 4, 77, 96
9, 286320, Note_on_c, 4, 65, 96
9, 286390, Note_on_c, 4, 65, 0
9, 286404, Note_on_c, 4, 77, 0
9, 286440, Note_on_c, 4, 74, 96
9, 286440, Note_on_c, 4, 62, 96
9, 286516, Note_on_c, 4, 62, 0
9, 286524, Note_on_c, 4, 74, 0
9, 286560, Note_on_c, 4, 71, 96
9, 286560, Note_on_c, 4, 59, 96
9, 286644, Note_on_c, 4, 59, 0
9, 286644, Note_on_c, 4, 71, 0
9, 286680, Note_on_c, 4, 72, 96
9, 286680, Note_on_c, 4, 60, 96
9, 286760, Note_on_c, 4, 60, 0
9, 286764, Note_on_c, 4, 72, 0
9, 286800, Note_on_c, 4, 62, 96
9, 286800, Note_on_c, 4, 74, 96
9, 286876, Note_on_c, 4, 62, 0
9, 286884, Note_on_c, 4, 74, 0
9, 286920, Note_on_c, 4, 59, 96
9, 286920, Note_on_c, 4, 71, 96
9, 287000, Note_on_c, 4, 59, 0
9, 287004, Note_on_c, 4, 71, 0
9, 287040, Note_on_c, 4, 72, 127
9, 287040, Note_on_c, 4, 60, 127
9, 287114, Note_on_c, 4, 60, 0
9, 287160, Note_on_c, 4, 72, 0
9, 287160, Note_on_c, 4, 72, 127
9, 287160, Note_on_c, 4, 60, 127
9, 287246, Note_on_c, 4, 60, 0
9, 287280, Note_on_c, 4, 72, 0
9, 287280, Note_on_c, 4, 62, 127
9, 287280, Note_on_c, 4, 74, 127
9, 287364, Note_on_c, 4, 62, 0
9, 287400, Note_on_c, 4, 74, 0
9, 287400, Note_on_c, 4, 76, 127
9, 287400, Note_on_c, 4, 64, 127
9, 287490, Note_on_c, 4, 64, 0
9, 287520, Note_on_c, 4, 76, 0
9, 287520, Note_on_c, 4, 65, 127
9, 287520, Note_on_c, 4, 77, 127
9, 287616, Note_on_c, 4, 65, 0
9, 287640, Note_on_c, 4, 77, 0
9, 287640, Note_on_c, 4, 79, 127
9, 287640, Note_on_c, 4, 67, 127
9, 287746, Note_on_c, 4, 67, 0
9, 287760, Note_on_c, 4, 79, 0
9, 287760, Note_on_c, 4, 81, 127
9, 287760, Note_on_c, 4, 69, 127
9, 287854, Note_on_c, 4, 69, 0
9, 287880, Note_on_c, 4, 81, 0
9, 287880, Note_on_c, 4, 83, 127
9, 287880, Note_on_c, 4, 71, 127
9, 287974, Note_on_c, 4, 71, 0
9, 288000, Note_on_c, 4, 83, 0
9, 288000, Note_on_c, 4, 72, 89
9, 288000, Note_on_c, 4, 84, 89
9, 289080, Note_on_c, 4, 83, 89
9, 289080, Note_on_c, 4, 71, 89
9, 289104, Note_on_c, 4, 84, 0
9, 289152, Note_on_c, 4, 72, 0
9, 289200, Note_on_c, 4, 72, 89
9, 289200, Note_on_c, 4, 84, 89
9, 289222, Note_on_c, 4, 83, 0
9, 289284, Note_on_c, 4, 71, 0
9, 289320, Note_on_c, 4, 71, 89
9, 289320, Note_on_c, 4, 83, 89
9, 289342, Note_on_c, 4, 84, 0
9, 289376, Note_on_c, 4, 72, 0
9, 289440, Note_on_c, 4, 72, 89
9, 289440, Note_on_c, 4, 84, 89
9, 289462, Note_on_c, 4, 83, 0
9, 289500, Note_on_c, 4, 71, 0
9, 289560, Note_on_c, 4, 83, 89
9, 289560, Note_on_c, 4, 71, 89
9, 289582, Note_on_c, 4, 84, 0
9, 289610, Note_on_c, 4, 72, 0
9, 289680, Note_on_c, 4, 84, 89
9, 289680, Note_on_c, 4, 72, 89
9, 289702, Note_on_c, 4, 83, 0
9, 289750, Note_on_c, 4, 71, 0
9, 289800, Note_on_c, 4, 83, 89
9, 289800, Note_on_c, 4, 71, 89
9, 289822, Note_on_c, 4, 84, 0
9, 289844, Note_on_c, 4, 72, 0
9, 289920, Note_on_c, 4, 71, 0
9, 289920, Note_on_c, 4, 72, 89
9, 289920, Note_on_c, 4, 84, 89
9, 289942, Note_on_c, 4, 83, 0
9, 291000, Note_on_c, 4, 71, 89
9, 291000, Note_on_c, 4, 83, 89
9, 291024, Note_on_c, 4, 84, 0
9, 291050, Note_on_c, 4, 72, 0
9, 291120, Note_on_c, 4, 84, 89
9, 291120, Note_on_c, 4, 72, 89
9, 291142, Note_on_c, 4, 83, 0
9, 291162, Note_on_c, 4, 71, 0
9, 291240, Note_on_c, 4, 71, 89
9, 291240, Note_on_c, 4, 83, 89
9, 291262, Note_on_c, 4, 84, 0
9, 291294, Note_on_c, 4, 72, 0
9, 291360, Note_on_c, 4, 72, 89
9, 291360, Note_on_c, 4, 84, 89
9, 291382, Note_on_c, 4, 83, 0
9, 291412, Note_on_c, 4, 71, 0
9, 291480, Note_on_c, 4, 71, 89
9, 291480, Note_on_c, 4, 83, 89
9, 291502, Note_on_c, 4, 84, 0
9, 291530, Note_on_c, 4, 72, 0
9, 291600, Note_on_c, 4, 72, 89
9, 291600, Note_on_c, 4, 84, 89
9, 291622, Note_on_c, 4, 83, 0
9, 291666, Note_on_c, 4, 71, 0
9, 291720, Note_on_c, 4, 83, 89
9, 291720, Note_on_c, 4, 71, 89
9, 291742, Note_on_c, 4, 84, 0
9, 291764, Note_on_c, 4, 72, 0
9, 291840, Note_on_c, 4, 84, 89
9, 291840, Note_on_c, 4, 72, 89
9, 291862, Note_on_c, 4, 83, 0
9, 291890, Note_on_c, 4, 71, 0
9, 291960, Note_on_c, 4, 71, 89
9, 291960, Note_on_c, 4, 83, 89
9, 291984, Note_on_c, 4, 84, 0
9, 292004, Note_on_c, 4, 72, 0
9, 292080, Note_on_c, 4, 72, 89
9, 292080, Note_on_c, 4, 84, 89
9, 292102, Note_on_c, 4, 83, 0
9, 292122, Note_on_c, 4, 71, 0
9, 292200, Note_on_c, 4, 83, 89
9, 292200, Note_on_c, 4, 71, 89
9, 292222, Note_on_c, 4, 84, 0
9, 292252, Note_on_c, 4, 72, 0
9, 292320, Note_on_c, 4, 84, 89
9, 292320, Note_on_c, 4, 72, 89
9, 292342, Note_on_c, 4, 83, 0
9, 292356, Note_on_c, 4, 71, 0
9, 292440, Note_on_c, 4, 71, 89
9, 292440, Note_on_c, 4, 83, 89
9, 292462, Note_on_c, 4, 84, 0
9, 292482, Note_on_c, 4, 72, 0
9, 292560, Note_on_c, 4, 84, 89
9, 292560, Note_on_c, 4, 72, 89
9, 292582, Note_on_c, 4, 83, 0
9, 292594, Note_on_c, 4, 71, 0
9, 292680, Note_on_c, 4, 83, 89
9, 292680, Note_on_c, 4, 71, 89
9, 292702, Note_on_c, 4, 84, 0
9, 292726, Note_on_c, 4, 72, 0
9, 292800, Note_on_c, 4, 84, 89
9, 292800, Note_on_c, 4, 72, 89
9, 292822, Note_on_c, 4, 83, 0
9, 292856, Note_on_c, 4, 71, 0
9, 292920, Note_on_c, 4, 83, 89
9, 292920, Note_on_c, 4, 71, 89
9, 292944, Note_on_c, 4, 84, 0
9, 292962, Note_on_c, 4, 72, 0
9, 293040, Note_on_c, 4, 84, 89
9, 293040, Note_on_c, 4, 72, 89
9, 293062, Note_on_c, 4, 83, 0
9, 293094, Note_on_c, 4, 71, 0
9, 293160, Note_on_c, 4, 71, 89
9, 293160, Note_on_c, 4, 83, 89
9, 293182, Note_on_c, 4, 84, 0
9, 293202, Note_on_c, 4, 72, 0
9, 293280, Note_on_c, 4, 84, 89
9, 293280, Note_on_c, 4, 72, 89
9, 293302, Note_on_c, 4, 83, 0
9, 293332, Note_on_c, 4, 71, 0
9, 293400, Note_on_c, 4, 71, 89
9, 293400, Note_on_c, 4, 83, 89
9, 293422, Note_on_c, 4, 84, 0
9, 293442, Note_on_c, 4, 72, 0
9, 293520, Note_on_c, 4, 72, 89
9, 293520, Note_on_c, 4, 84, 89
9, 293542, Note_on_c, 4, 83, 0
9, 293564, Note_on_c, 4, 71, 0
9, 293640, Note_on_c, 4, 83, 89
9, 293640, Note_on_c, 4, 71, 89
9, 293662, Note_on_c, 4, 84, 0
9, 293680, Note_on_c, 4, 72, 0
9, 293760, Note_on_c, 4, 84, 89
9, 293760, Note_on_c, 4, 72, 89
9, 293782, Note_on_c, 4, 83, 0
9, 293820, Note_on_c, 4, 71, 0
9, 293880, Note_on_c, 4, 83, 89
9, 293880, Note_on_c, 4, 71, 89
9, 293904, Note_on_c, 4, 84, 0
9, 293916, Note_on_c, 4, 72, 0
9, 294000, Note_on_c, 4, 84, 89
9, 294000, Note_on_c, 4, 72, 89
9, 294022, Note_on_c, 4, 83, 0
9, 294044, Note_on_c, 4, 71, 0
9, 294120, Note_on_c, 4, 71, 89
9, 294120, Note_on_c, 4, 83, 89
9, 294142, Note_on_c, 4, 84, 0
9, 294154, Note_on_c, 4, 72, 0
9, 294240, Note_on_c, 4, 84, 89
9, 294240, Note_on_c, 4, 72, 89
9, 294262, Note_on_c, 4, 83, 0
9, 294292, Note_on_c, 4, 71, 0
9, 294360, Note_on_c, 4, 83, 89
9, 294360, Note_on_c, 4, 71, 89
9, 294382, Note_on_c, 4, 84, 0
9, 294404, Note_on_c, 4, 72, 0
9, 294480, Note_on_c, 4, 84, 89
9, 294480, Note_on_c, 4, 72, 89
9, 294502, Note_on_c, 4, 83, 0
9, 294526, Note_on_c, 4, 71, 0
9, 294600, Note_on_c, 4, 71, 89
9, 294600, Note_on_c, 4, 83, 89
9, 294622, Note_on_c, 4, 84, 0
9, 294636, Note_on_c, 4, 72, 0
9, 294720, Note_on_c, 4, 84, 89
9, 294720, Note_on_c, 4, 72, 89
9, 294742, Note_on_c, 4, 83, 0
9, 294772, Note_on_c, 4, 71, 0
9, 294840, Note_on_c, 4, 83, 89
9, 294840, Note_on_c, 4, 71, 89
9, 294864, Note_on_c, 4, 84, 0
9, 294886, Note_on_c, 4, 72, 0
9, 294960, Note_on_c, 4, 84, 89
9, 294960, Note_on_c, 4, 72, 89
9, 294982, Note_on_c, 4, 83, 0
9, 295014, Note_on_c, 4, 71, 0
9, 295080, Note_on_c, 4, 71, 89
9, 295080, Note_on_c, 4, 83, 89
9, 295102, Note_on_c, 4, 84, 0
9, 295110, Note_on_c, 4, 72, 0
9, 295200, Note_on_c, 4, 84, 89
9, 295200, Note_on_c, 4, 72, 89
9, 295222, Note_on_c, 4, 83, 0
9, 295256, Note_on_c, 4, 71, 0
9, 295320, Note_on_c, 4, 83, 89
9, 295320, Note_on_c, 4, 71, 89
9, 295342, Note_on_c, 4, 84, 0
9, 295360, Note_on_c, 4, 72, 0
9, 295440, Note_on_c, 4, 84, 89
9, 295440, Note_on_c, 4, 72, 89
9, 295462, Note_on_c, 4, 83, 0
9, 295490, Note_on_c, 4, 71, 0
9, 295560, Note_on_c, 4, 71, 89
9, 295560, Note_on_c, 4, 83, 89
9, 295582, Note_on_c, 4, 84, 0
9, 295596, Note_on_c, 4, 72, 0
9, 295680, Note_on_c, 4, 84, 89
9, 295680, Note_on_c, 4, 72, 89
9, 295702, Note_on_c, 4, 83, 0
9, 295730, Note_on_c, 4, 71, 0
9, 295800, Note_on_c, 4, 83, 89
9, 295800, Note_on_c, 4, 71, 89
9, 295824, Note_on_c, 4, 84, 0
9, 295836, Note_on_c, 4, 72, 0
9, 295920, Note_on_c, 4, 84, 89
9, 295920, Note_on_c, 4, 72, 89
9, 295942, Note_on_c, 4, 83, 0
9, 295970, Note_on_c, 4, 71, 0
9, 296040, Note_on_c, 4, 71, 89
9, 296040, Note_on_c, 4, 83, 89
9, 296062, Note_on_c, 4, 84, 0
9, 296072, Note_on_c, 4, 72, 0
9, 296160, Note_on_c, 4, 84, 89
9, 296160, Note_on_c, 4, 72, 89
9, 296182, Note_on_c, 4, 83, 0
9, 296212, Note_on_c, 4, 71, 0
9, 296280, Note_on_c, 4, 83, 89
9, 296280, Note_on_c, 4, 71, 89
9, 296302, Note_on_c, 4, 84, 0
9, 296312, Note_on_c, 4, 72, 0
9, 296400, Note_on_c, 4, 84, 89
9, 296400, Note_on_c, 4, 72, 89
9, 296422, Note_on_c, 4, 83, 0
9, 296440, Note_on_c, 4, 71, 0
9, 296520, Note_on_c, 4, 71, 89
9, 296520, Note_on_c, 4, 83, 89
9, 296542, Note_on_c, 4, 84, 0
9, 296552, Note_on_c, 4, 72, 0
9, 296640, Note_on_c, 4, 72, 89
9, 296640, Note_on_c, 4, 84, 89
9, 296662, Note_on_c, 4, 83, 0
9, 296670, Note_on_c, 4, 71, 0
9, 296832, Note_on_c, 4, 72, 0
9, 296832, Note_on_c, 4, 84, 0
9, 297600, Note_on_c, 4, 76, 127
9, 297600, Note_on_c, 4, 84, 127
9, 297600, Note_on_c, 4, 67, 127
9, 297792, Note_on_c, 4, 67, 0
9, 297792, Note_on_c, 4, 84, 0
9, 297792, Note_on_c, 4, 76, 0
9, 298560, Note_on_c, 4, 72, 127
9, 298560, Note_on_c, 4, 79, 127
9, 298560, Note_on_c, 4, 64, 127
9, 298752, Note_on_c, 4, 64, 0
9, 298752, Note_on_c, 4, 79, 0
9, 298752, Note_on_c, 4, 72, 0
9, 299520, Note_on_c, 4, 67, 127
9, 299520, Note_on_c, 4, 76, 127
9, 299520, Note_on_c, 4, 60, 127
9, 299712, Note_on_c, 4, 60, 0
9, 299712, Note_on_c, 4, 76, 0
9, 299712, Note_on_c, 4, 67, 0
9, 300480, Note_on_c, 4, 55, 127
9, 300480, Note_on_c, 4, 64, 127
9, 300480, Note_on_c, 4, 72, 127
9, 300672, Note_on_c, 4, 72, 0
9, 300672, Note_on_c, 4, 64, 0
9, 300672, Note_on_c, 4, 55, 0
9, 301440, Note_on_c, 4, 76, 127
9, 301440, Note_on_c, 4, 84, 127
9, 301440, Note_on_c, 4, 67, 127
9, 301632, Note_on_c, 4, 67, 0
9, 301632, Note_on_c, 4, 84, 0
9, 301632, Note_on_c, 4, 76, 0
9, 302400, Note_on_c, 4, 64, 127
9, 302400, Note_on_c, 4, 55, 127
9, 302400, Note_on_c, 4, 72, 127
9, 302568, Note_on_c, 4, 72, 0
9, 302568, Note_on_c, 4, 55, 0
9, 302568, Note_on_c, 4, 64, 0
9, 303360, Note_on_c, 4, 60, 127
9, 303360, Note_on_c, 4, 48, 127
9, 303600, Note_on_c, 4, 48, 0
9, 303600, Note_on_c, 4, 60, 0
9, 303840, Note_on_c, 4, 60, 127
9, 303840, Note_on_c, 4, 48, 127
9, 304080, Note_on_c, 4, 48, 0
9, 304080, Note_on_c, 4, 60, 0
9, 304320, Note_on_c, 4, 60, 127
9, 304320, Note_on_c, 4, 48, 127
9, 304560, Note_on_c, 4, 48, 0
9, 304560, Note_on_c, 4, 60, 0
9, 304560, End_track
10, 0, Start_track
10, 0, Title_t, "Violin 2"
10, 0, Program_c, 8, 48
10, 0, Control_c, 8, 7, 105
10, 0, Control_c, 8, 10, 46
10, 0, Control_c, 8, 10, 25
10, 960, Note_on_c, 8, 64, 127
10, 960, Note_on_c, 8, 55, 127
10, 1160, Note_on_c, 8, 55, 0
10, 1160, Note_on_c, 8, 64, 0
10, 3840, Note_on_c, 8, 65, 127
10, 3840, Note_on_c, 8, 57, 127
10, 4024, Note_on_c, 8, 65, 0
10, 4030, Note_on_c, 8, 57, 0
10, 6720, Note_on_c, 8, 66, 127
10, 6720, Note_on_c, 8, 56, 127
10, 6892, Note_on_c, 8, 56, 0
10, 6900, Note_on_c, 8, 66, 0
10, 7680, Note_on_c, 8, 78, 127
10, 7680, Note_on_c, 8, 72, 127
10, 7850, Note_on_c, 8, 72, 0
10, 7864, Note_on_c, 8, 78, 0
10, 8640, Note_on_c, 8, 78, 127
10, 8640, Note_on_c, 8, 72, 127
10, 8802, Note_on_c, 8, 72, 0
10, 8804, Note_on_c, 8, 78, 0
10, 9600, Note_on_c, 8, 71, 127
10, 9600, Note_on_c, 8, 79, 127
10, 9802, Note_on_c, 8, 79, 0
10, 9804, Note_on_c, 8, 71, 0
10, 10440, Note_on_c, 8, 55, 127
10, 10530, Note_on_c, 8, 55, 0
10, 10560, Note_on_c, 8, 55, 127
10, 12840, Note_on_c, 8, 55, 0
10, 14400, Note_on_c, 8, 55, 96
10, 14436, Control_c, 8, 7, 60
10, 15360, Note_on_c, 8, 60, 96
10, 15457, Note_on_c, 8, 55, 0
10, 16320, Note_on_c, 8, 59, 96
10, 16320, Note_on_c, 8, 62, 96
10, 16447, Note_on_c, 8, 60, 0
10, 17280, Note_on_c, 8, 60, 96
10, 17280, Note_on_c, 8, 64, 96
10, 17461, Note_on_c, 8, 62, 0
10, 17468, Note_on_c, 8, 59, 0
10, 19200, Note_on_c, 8, 64, 96
10, 19200, Note_on_c, 8, 60, 96
10, 19307, Note_on_c, 8, 64, 0
10, 19314, Note_on_c, 8, 60, 0
10, 20160, Note_on_c, 8, 62, 96
10, 20289, Note_on_c, 8, 64, 0
10, 20289, Note_on_c, 8, 60, 0
10, 21120, Note_on_c, 8, 65, 96
10, 21177, Note_on_c, 8, 62, 0
10, 22080, Note_on_c, 8, 65, 0
10, 22080, Note_on_c, 8, 65, 96
10, 22320, Note_on_c, 8, 64, 96
10, 22403, Note_on_c, 8, 65, 0
10, 22560, Note_on_c, 8, 62, 96
10, 22672, Note_on_c, 8, 64, 0
10, 22800, Note_on_c, 8, 64, 96
10, 22880, Note_on_c, 8, 62, 0
10, 23040, Note_on_c, 8, 62, 96
10, 23066, Note_on_c, 8, 64, 0
10, 24000, Note_on_c, 8, 55, 96
10, 24057, Note_on_c, 8, 62, 0
10, 24454, Note_on_c, 8, 55, 0
10, 24480, Note_on_c, 8, 55, 96
10, 24911, Note_on_c, 8, 55, 0
10, 24960, Note_on_c, 8, 55, 96
10, 25500, Note_on_c, 8, 55, 0
10, 25920, Note_on_c, 8, 64, 96
10, 26040, Note_on_c, 8, 60, 96
10, 27840, Note_on_c, 8, 59, 96
10, 28033, Note_on_c, 8, 64, 0
10, 28105, Note_on_c, 8, 60, 0
10, 28320, Note_on_c, 8, 62, 96
10, 28463, Note_on_c, 8, 59, 0
10, 28800, Note_on_c, 8, 64, 96
10, 28800, Note_on_c, 8, 60, 96
10, 28946, Note_on_c, 8, 62, 0
10, 30720, Note_on_c, 8, 59, 96
10, 30998, Note_on_c, 8, 64, 0
10, 31030, Note_on_c, 8, 60, 0
10, 31200, Note_on_c, 8, 62, 96
10, 31330, Note_on_c, 8, 59, 0
10, 31680, Note_on_c, 8, 60, 96
10, 31812, Note_on_c, 8, 62, 0
10, 32498, Note_on_c, 8, 60, 0
10, 32640, Note_on_c, 8, 57, 96
10, 34080, Note_on_c, 8, 57, 96
10, 34122, Note_on_c, 8, 57, 0
10, 34493, Note_on_c, 8, 57, 0
10, 34560, Note_on_c, 8, 55, 96
10, 35730, Note_on_c, 8, 55, 0
10, 36000, Note_on_c, 8, 77, 67
10, 36480, Note_on_c, 8, 76, 67
10, 36550, Note_on_c, 8, 77, 0
10, 36960, Note_on_c, 8, 74, 67
10, 37030, Note_on_c, 8, 76, 0
10, 37440, Note_on_c, 8, 72, 96
10, 37450, Note_on_c, 8, 74, 0
10, 38454, Note_on_c, 8, 72, 0
10, 38640, Note_on_c, 8, 67, 96
10, 38880, Note_on_c, 8, 66, 96
10, 38930, Note_on_c, 8, 67, 0
10, 39120, Note_on_c, 8, 67, 96
10, 39162, Note_on_c, 8, 66, 0
10, 39360, Note_on_c, 8, 66, 96
10, 39404, Note_on_c, 8, 67, 0
10, 39600, Note_on_c, 8, 67, 96
10, 39634, Note_on_c, 8, 66, 0
10, 39840, Note_on_c, 8, 69, 96
10, 39896, Note_on_c, 8, 67, 0
10, 40080, Note_on_c, 8, 71, 96
10, 40124, Note_on_c, 8, 69, 0
10, 40320, Note_on_c, 8, 72, 96
10, 40386, Note_on_c, 8, 71, 0
10, 40812, Note_on_c, 8, 72, 0
10, 41520, Note_on_c, 8, 67, 96
10, 41760, Note_on_c, 8, 66, 96
10, 41808, Note_on_c, 8, 67, 0
10, 42000, Note_on_c, 8, 67, 96
10, 42046, Note_on_c, 8, 66, 0
10, 42240, Note_on_c, 8, 66, 96
10, 42296, Note_on_c, 8, 67, 0
10, 42480, Note_on_c, 8, 67, 96
10, 42494, Note_on_c, 8, 66, 0
10, 42720, Note_on_c, 8, 69, 96
10, 42782, Note_on_c, 8, 67, 0
10, 42960, Note_on_c, 8, 71, 96
10, 43016, Note_on_c, 8, 69, 0
10, 43200, Note_on_c, 8, 72, 96
10, 43240, Note_on_c, 8, 71, 0
10, 43576, Note_on_c, 8, 72, 0
10, 44160, Note_on_c, 8, 63, 96
10, 44160, Note_on_c, 8, 75, 96
10, 45120, Note_on_c, 8, 75, 0
10, 45120, Note_on_c, 8, 63, 0
10, 45120, Note_on_c, 8, 60, 96
10, 46944, Note_on_c, 8, 60, 0
10, 47040, Note_on_c, 8, 60, 67
10, 48000, Note_on_c, 8, 60, 0
10, 48000, Note_on_c, 8, 62, 67
10, 48876, Note_on_c, 8, 62, 0
10, 48960, Note_on_c, 8, 55, 79
10, 48960, Control_c, 8, 7, 100
10, 49080, Note_on_c, 8, 55, 0
10, 49920, Note_on_c, 8, 55, 79
10, 50016, Note_on_c, 8, 55, 0
10, 50880, Note_on_c, 8, 55, 79
10, 50960, Note_on_c, 8, 55, 0
10, 51360, Note_on_c, 8, 55, 79
10, 51456, Note_on_c, 8, 55, 0
10, 51840, Note_on_c, 8, 55, 79
10, 51936, Note_on_c, 8, 55, 0
10, 52800, Note_on_c, 8, 57, 79
10, 52890, Note_on_c, 8, 57, 0
10, 53760, Note_on_c, 8, 62, 79
10, 53760, Note_on_c, 8, 57, 79
10, 53860, Note_on_c, 8, 57, 0
10, 53860, Note_on_c, 8, 62, 0
10, 54720, Note_on_c, 8, 55, 79
10, 54720, Note_on_c, 8, 62, 79
10, 54812, Note_on_c, 8, 62, 0
10, 54812, Note_on_c, 8, 55, 0
10, 55200, Note_on_c, 8, 62, 79
10, 55200, Note_on_c, 8, 55, 79
10, 55286, Note_on_c, 8, 55, 0
10, 55286, Note_on_c, 8, 62, 0
10, 55680, Note_on_c, 8, 62, 79
10, 55680, Note_on_c, 8, 55, 79
10, 55766, Note_on_c, 8, 55, 0
10, 55766, Note_on_c, 8, 62, 0
10, 55766, End_track
11, 0, Start_track
11, 0, Title_t, "Viola"
11, 0, Program_c, 8, 48
11, 0, Control_c, 8, 7, 122
11, 0, Control_c, 8, 10, 83
11, 0, Control_c, 8, 10, 66
11, 960, Note_on_c, 8, 58, 127
11, 960, Note_on_c, 8, 55, 127
11, 1104, Note_on_c, 8, 55, 0
11, 1124, Note_on_c, 8, 58, 0
11, 3840, Note_on_c, 8, 57, 127
11, 4000, Note_on_c, 8, 57, 0
11, 6720, Note_on_c, 8, 56, 127
11, 6864, Note_on_c, 8, 56, 0
11, 7680, Note_on_c, 8, 56, 127
11, 7822, Note_on_c, 8, 56, 0
11, 8640, Note_on_c, 8, 56, 127
11, 8772, Note_on_c, 8, 56, 0
11, 9600, Note_on_c, 8, 62, 127
11, 9600, Note_on_c, 8, 55, 127
11, 9786, Note_on_c, 8, 62, 0
11, 9794, Note_on_c, 8, 55, 0
11, 10440, Note_on_c, 8, 55, 127
11, 10554, Note_on_c, 8, 55, 0
11, 10560, Note_on_c, 8, 55, 127
11, 12840, Note_on_c, 8, 55, 0
11, 14400, Note_on_c, 8, 48, 96
11, 14400, Note_on_c, 8, 52, 96
11, 14416, Control_c, 8, 7, 60
11, 15260, Note_on_c, 8, 52, 0
11, 15288, Note_on_c, 8, 48, 0
11, 15360, Note_on_c, 8, 52, 96
11, 15360, Note_on_c, 8, 55, 96
11, 16320, Note_on_c, 8, 50, 96
11, 16320, Note_on_c, 8, 59, 96
11, 16368, Note_on_c, 8, 52, 0
11, 16390, Note_on_c, 8, 55, 0
11, 17280, Note_on_c, 8, 59, 0
11, 17280, Note_on_c, 8, 52, 96
11, 17280, Note_on_c, 8, 60, 96
11, 17314, Note_on_c, 8, 50, 0
11, 19110, Note_on_c, 8, 60, 0
11, 19114, Note_on_c, 8, 52, 0
11, 19200, Note_on_c, 8, 52, 96
11, 19200, Note_on_c, 8, 60, 96
11, 20160, Note_on_c, 8, 55, 96
11, 20160, Note_on_c, 8, 50, 96
11, 20170, Note_on_c, 8, 60, 0
11, 20188, Note_on_c, 8, 52, 0
11, 21120, Note_on_c, 8, 62, 96
11, 21160, Note_on_c, 8, 55, 0
11, 22080, Note_on_c, 8, 62, 0
11, 22080, Note_on_c, 8, 62, 96
11, 22080, Note_on_c, 8, 52, 96
11, 22116, Note_on_c, 8, 50, 0
11, 22320, Note_on_c, 8, 60, 96
11, 22376, Note_on_c, 8, 62, 0
11, 22560, Note_on_c, 8, 59, 96
11, 22588, Note_on_c, 8, 60, 0
11, 22800, Note_on_c, 8, 60, 96
11, 22830, Note_on_c, 8, 59, 0
11, 23040, Note_on_c, 8, 50, 96
11, 23040, Note_on_c, 8, 59, 96
11, 23090, Note_on_c, 8, 60, 0
11, 23156, Note_on_c, 8, 52, 0
11, 24430, Note_on_c, 8, 59, 0
11, 24480, Note_on_c, 8, 55, 96
11, 24502, Note_on_c, 8, 50, 0
11, 24910, Note_on_c, 8, 55, 0
11, 24960, Note_on_c, 8, 55, 96
11, 25380, Note_on_c, 8, 55, 0
11, 25440, Note_on_c, 8, 55, 96
11, 26006, Note_on_c, 8, 55, 0
11, 26040, Note_on_c, 8, 48, 96
11, 26040, Note_on_c, 8, 52, 96
11, 27840, Note_on_c, 8, 50, 96
11, 27840, Note_on_c, 8, 53, 96
11, 27844, Note_on_c, 8, 52, 0
11, 27868, Note_on_c, 8, 48, 0
11, 28800, Note_on_c, 8, 48, 96
11, 28800, Note_on_c, 8, 52, 100
11, 28834, Note_on_c, 8, 50, 0
11, 28840, Note_on_c, 8, 53, 0
11, 30720, Note_on_c, 8, 52, 0
11, 30720, Note_on_c, 8, 53, 96
11, 30720, Note_on_c, 8, 50, 96
11, 30800, Note_on_c, 8, 48, 0
11, 31680, Note_on_c, 8, 48, 96
11, 31702, Note_on_c, 8, 50, 0
11, 31716, Note_on_c, 8, 53, 0
11, 33120, Note_on_c, 8, 49, 96
11, 33146, Note_on_c, 8, 48, 0
11, 33600, Note_on_c, 8, 50, 96
11, 33694, Note_on_c, 8, 49, 0
11, 34080, Note_on_c, 8, 53, 96
11, 34162, Note_on_c, 8, 50, 0
11, 34560, Note_on_c, 8, 52, 96
11, 34640, Note_on_c, 8, 53, 0
11, 35520, Note_on_c, 8, 52, 0
11, 35520, Note_on_c, 8, 50, 96
11, 35914, Note_on_c, 8, 50, 0
11, 37440, Note_on_c, 8, 60, 96
11, 38880, Note_on_c, 8, 64, 96
11, 38890, Note_on_c, 8, 60, 0
11, 39360, Note_on_c, 8, 67, 96
11, 39392, Note_on_c, 8, 64, 0
11, 39840, Note_on_c, 8, 55, 96
11, 39874, Note_on_c, 8, 67, 0
11, 40320, Note_on_c, 8, 60, 96
11, 40346, Note_on_c, 8, 55, 0
11, 41748, Note_on_c, 8, 60, 0
11, 41760, Note_on_c, 8, 64, 96
11, 42226, Note_on_c, 8, 64, 0
11, 42240, Note_on_c, 8, 67, 96
11, 42720, Note_on_c, 8, 55, 96
11, 42742, Note_on_c, 8, 67, 0
11, 43188, Note_on_c, 8, 55, 0
11, 43200, Note_on_c, 8, 57, 96
11, 43650, Note_on_c, 8, 57, 0
11, 44160, Note_on_c, 8, 66, 96
11, 46080, Note_on_c, 8, 66, 0
11, 46080, Note_on_c, 8, 67, 67
11, 46404, Note_on_c, 8, 67, 0
11, 47040, Note_on_c, 8, 55, 67
11, 47378, Note_on_c, 8, 55, 0
11, 48000, Note_on_c, 8, 55, 67
11, 48284, Note_on_c, 8, 55, 0
11, 48960, Note_on_c, 8, 52, 79
11, 48960, Control_c, 8, 7, 100
11, 49080, Note_on_c, 8, 52, 0
11, 49920, Note_on_c, 8, 52, 79
11, 50040, Note_on_c, 8, 52, 0
11, 50880, Note_on_c, 8, 52, 79
11, 51000, Note_on_c, 8, 52, 0
11, 51360, Note_on_c, 8, 52, 79
11, 51480, Note_on_c, 8, 52, 0
11, 51840, Note_on_c, 8, 52, 83
11, 51960, Note_on_c, 8, 52, 0
11, 52800, Note_on_c, 8, 53, 79
11, 52890, Note_on_c, 8, 53, 0
11, 53760, Note_on_c, 8, 53, 79
11, 53860, Note_on_c, 8, 53, 0
11, 54720, Note_on_c, 8, 53, 79
11, 54812, Note_on_c, 8, 53, 0
11, 55200, Note_on_c, 8, 53, 79
11, 55286, Note_on_c, 8, 53, 0
11, 55680, Note_on_c, 8, 53, 79
11, 55766, Note_on_c, 8, 53, 0
11, 56640, Note_on_c, 8, 60, 79
11, 56714, Note_on_c, 8, 60, 0
11, 56880, Note_on_c, 8, 60, 79
11, 57294, Note_on_c, 8, 60, 0
11, 57360, Note_on_c, 8, 59, 79
11, 57442, Note_on_c, 8, 59, 0
11, 57600, Note_on_c, 8, 60, 79
11, 57674, Note_on_c, 8, 60, 0
11, 57840, Note_on_c, 8, 60, 79
11, 58182, Note_on_c, 8, 60, 0
11, 58320, Note_on_c, 8, 59, 79
11, 58406, Note_on_c, 8, 59, 0
11, 58560, Note_on_c, 8, 60, 79
11, 58640, Note_on_c, 8, 60, 0
11, 58800, Note_on_c, 8, 59, 79
11, 58886, Note_on_c, 8, 59, 0
11, 59040, Note_on_c, 8, 57, 79
11, 59126, Note_on_c, 8, 57, 0
11, 59280, Note_on_c, 8, 62, 79
11, 59370, Note_on_c, 8, 62, 0
11, 59520, Note_on_c, 8, 55, 79
11, 59612, Note_on_c, 8, 55, 0
11, 60480, Note_on_c, 8, 52, 96
11, 60480, Note_on_c, 8, 55, 96
11, 60554, Note_on_c, 8, 55, 0
11, 60600, Note_on_c, 8, 52, 96
11, 60600, Note_on_c, 8, 55, 96
11, 60670, Note_on_c, 8, 55, 0
11, 60674, Note_on_c, 8, 52, 0
11, 60720, Note_on_c, 8, 52, 96
11, 60720, Note_on_c, 8, 55, 96
11, 60794, Note_on_c, 8, 55, 0
11, 60794, Note_on_c, 8, 52, 0
11, 60840, Note_on_c, 8, 55, 96
11, 60840, Note_on_c, 8, 52, 96
11, 60910, Note_on_c, 8, 52, 0
11, 60914, Note_on_c, 8, 55, 0
11, 60960, Note_on_c, 8, 52, 96
11, 60960, Note_on_c, 8, 55, 96
11, 61030, Note_on_c, 8, 52, 0
11, 61034, Note_on_c, 8, 55, 0
11, 61080, Note_on_c, 8, 52, 96
11, 61080, Note_on_c, 8, 55, 96
11, 61152, Note_on_c, 8, 55, 0
11, 61152, Note_on_c, 8, 52, 0
11, 61200, Note_on_c, 8, 52, 96
11, 61200, Note_on_c, 8, 55, 96
11, 61274, Note_on_c, 8, 55, 0
11, 61274, Note_on_c, 8, 52, 0
11, 61320, Note_on_c, 8, 55, 96
11, 61320, Note_on_c, 8, 52, 96
11, 61392, Note_on_c, 8, 52, 0
11, 61396, Note_on_c, 8, 55, 0
11, 61440, Note_on_c, 8, 55, 96
11, 61440, Note_on_c, 8, 52, 96
11, 61514, Note_on_c, 8, 52, 0
11, 61516, Note_on_c, 8, 55, 0
11, 61560, Note_on_c, 8, 52, 96
11, 61560, Note_on_c, 8, 55, 96
11, 61640, Note_on_c, 8, 55, 0
11, 61640, Note_on_c, 8, 52, 0
11, 61680, Note_on_c, 8, 52, 96
11, 61680, Note_on_c, 8, 55, 96
11, 61754, Note_on_c, 8, 55, 0
11, 61760, Note_on_c, 8, 52, 0
11, 61800, Note_on_c, 8, 52, 96
11, 61800, Note_on_c, 8, 55, 96
11, 61880, Note_on_c, 8, 55, 0
11, 61880, Note_on_c, 8, 52, 0
11, 61920, Note_on_c, 8, 55, 96
11, 61920, Note_on_c, 8, 52, 96
11, 61994, Note_on_c, 8, 55, 0
11, 61994, Note_on_c, 8, 52, 0
11, 62040, Note_on_c, 8, 55, 96
11, 62040, Note_on_c, 8, 52, 96
11, 62110, Note_on_c, 8, 52, 0
11, 62120, Note_on_c, 8, 55, 0
11, 62160, Note_on_c, 8, 52, 96
11, 62160, Note_on_c, 8, 55, 96
11, 62234, Note_on_c, 8, 55, 0
11, 62236, Note_on_c, 8, 52, 0
11, 62280, Note_on_c, 8, 52, 96
11, 62280, Note_on_c, 8, 55, 96
11, 62356, Note_on_c, 8, 55, 0
11, 62356, Note_on_c, 8, 52, 0
11, 62400, Note_on_c, 8, 55, 96
11, 62400, Note_on_c, 8, 52, 96
11, 62472, Note_on_c, 8, 55, 0
11, 62480, Note_on_c, 8, 52, 0
11, 62520, Note_on_c, 8, 55, 96
11, 62520, Note_on_c, 8, 52, 96
11, 62592, Note_on_c, 8, 55, 0
11, 62596, Note_on_c, 8, 52, 0
11, 62640, Note_on_c, 8, 55, 96
11, 62640, Note_on_c, 8, 52, 96
11, 62712, Note_on_c, 8, 52, 0
11, 62716, Note_on_c, 8, 55, 0
11, 62760, Note_on_c, 8, 52, 96
11, 62760, Note_on_c, 8, 55, 96
11, 62834, Note_on_c, 8, 55, 0
11, 62834, Note_on_c, 8, 52, 0
11, 62880, Note_on_c, 8, 55, 96
11, 62880, Note_on_c, 8, 52, 96
11, 62950, Note_on_c, 8, 55, 0
11, 62954, Note_on_c, 8, 52, 0
11, 63000, Note_on_c, 8, 55, 96
11, 63000, Note_on_c, 8, 52, 96
11, 63076, Note_on_c, 8, 55, 0
11, 63076, Note_on_c, 8, 52, 0
11, 63120, Note_on_c, 8, 55, 96
11, 63120, Note_on_c, 8, 52, 96
11, 63194, Note_on_c, 8, 55, 0
11, 63194, Note_on_c, 8, 52, 0
11, 63240, Note_on_c, 8, 52, 96
11, 63240, Note_on_c, 8, 55, 96
11, 63320, Note_on_c, 8, 55, 0
11, 63320, Note_on_c, 8, 52, 0
11, 63360, Note_on_c, 8, 52, 96
11, 63360, Note_on_c, 8, 55, 96
11, 63440, Note_on_c, 8, 55, 0
11, 63440, Note_on_c, 8, 52, 0
11, 63480, Note_on_c, 8, 55, 96
11, 63480, Note_on_c, 8, 52, 96
11, 63560, Note_on_c, 8, 52, 0
11, 63562, Note_on_c, 8, 55, 0
11, 63600, Note_on_c, 8, 52, 96
11, 63600, Note_on_c, 8, 55, 96
11, 63674, Note_on_c, 8, 55, 0
11, 63680, Note_on_c, 8, 52, 0
11, 63720, Note_on_c, 8, 55, 96
11, 63720, Note_on_c, 8, 52, 96
11, 63792, Note_on_c, 8, 52, 0
11, 63796, Note_on_c, 8, 55, 0
11, 63840, Note_on_c, 8, 55, 96
11, 63840, Note_on_c, 8, 52, 96
11, 63914, Note_on_c, 8, 55, 0
11, 63914, Note_on_c, 8, 52, 0
11, 63960, Note_on_c, 8, 52, 96
11, 63960, Note_on_c, 8, 55, 96
11, 64030, Note_on_c, 8, 55, 0
11, 64034, Note_on_c, 8, 52, 0
11, 64080, Note_on_c, 8, 55, 96
11, 64080, Note_on_c, 8, 52, 96
11, 64146, Note_on_c, 8, 52, 0
11, 64156, Note_on_c, 8, 55, 0
11, 64200, Note_on_c, 8, 52, 96
11, 64200, Note_on_c, 8, 55, 96
11, 64274, Note_on_c, 8, 55, 0
11, 64274, Note_on_c, 8, 52, 0
11, 64320, Note_on_c, 8, 53, 96
11, 64320, Note_on_c, 8, 57, 96
11, 64394, Note_on_c, 8, 57, 0
11, 64394, Note_on_c, 8, 53, 0
11, 64440, Note_on_c, 8, 57, 96
11, 64440, Note_on_c, 8, 53, 96
11, 64506, Note_on_c, 8, 53, 0
11, 64520, Note_on_c, 8, 57, 0
11, 64560, Note_on_c, 8, 53, 96
11, 64560, Note_on_c, 8, 57, 96
11, 64634, Note_on_c, 8, 57, 0
11, 64634, Note_on_c, 8, 53, 0
11, 64680, Note_on_c, 8, 53, 96
11, 64680, Note_on_c, 8, 57, 96
11, 64754, Note_on_c, 8, 57, 0
11, 64754, Note_on_c, 8, 53, 0
11, 64800, Note_on_c, 8, 57, 96
11, 64800, Note_on_c, 8, 53, 96
11, 64872, Note_on_c, 8, 53, 0
11, 64872, Note_on_c, 8, 57, 0
11, 64920, Note_on_c, 8, 57, 96
11, 64920, Note_on_c, 8, 53, 96
11, 64990, Note_on_c, 8, 53, 0
11, 64996, Note_on_c, 8, 57, 0
11, 65040, Note_on_c, 8, 57, 96
11, 65040, Note_on_c, 8, 53, 96
11, 65112, Note_on_c, 8, 53, 0
11, 65114, Note_on_c, 8, 57, 0
11, 65160, Note_on_c, 8, 53, 96
11, 65160, Note_on_c, 8, 57, 96
11, 65234, Note_on_c, 8, 57, 0
11, 65234, Note_on_c, 8, 53, 0
11, 65280, Note_on_c, 8, 57, 96
11, 65280, Note_on_c, 8, 53, 96
11, 65354, Note_on_c, 8, 53, 0
11, 65360, Note_on_c, 8, 57, 0
11, 65400, Note_on_c, 8, 57, 96
11, 65400, Note_on_c, 8, 53, 96
11, 65470, Note_on_c, 8, 53, 0
11, 65474, Note_on_c, 8, 57, 0
11, 65520, Note_on_c, 8, 57, 96
11, 65520, Note_on_c, 8, 53, 96
11, 65590, Note_on_c, 8, 53, 0
11, 65594, Note_on_c, 8, 57, 0
11, 65640, Note_on_c, 8, 53, 96
11, 65640, Note_on_c, 8, 57, 96
11, 65712, Note_on_c, 8, 57, 0
11, 65712, Note_on_c, 8, 53, 0
11, 65760, Note_on_c, 8, 57, 96
11, 65760, Note_on_c, 8, 53, 96
11, 65840, Note_on_c, 8, 53, 0
11, 65840, Note_on_c, 8, 57, 0
11, 65880, Note_on_c, 8, 57, 96
11, 65880, Note_on_c, 8, 53, 96
11, 65950, Note_on_c, 8, 53, 0
11, 65954, Note_on_c, 8, 57, 0
11, 66000, Note_on_c, 8, 57, 96
11, 66000, Note_on_c, 8, 53, 96
11, 66076, Note_on_c, 8, 53, 0
11, 66082, Note_on_c, 8, 57, 0
11, 66120, Note_on_c, 8, 57, 96
11, 66120, Note_on_c, 8, 53, 96
11, 66192, Note_on_c, 8, 53, 0
11, 66194, Note_on_c, 8, 57, 0
11, 66240, Note_on_c, 8, 53, 96
11, 66240, Note_on_c, 8, 55, 96
11, 66314, Note_on_c, 8, 53, 0
11, 66316, Note_on_c, 8, 55, 0
11, 66360, Note_on_c, 8, 53, 96
11, 66360, Note_on_c, 8, 55, 96
11, 66434, Note_on_c, 8, 53, 0
11, 66440, Note_on_c, 8, 55, 0
11, 66480, Note_on_c, 8, 55, 96
11, 66480, Note_on_c, 8, 53, 96
11, 66554, Note_on_c, 8, 53, 0
11, 66554, Note_on_c, 8, 55, 0
11, 66600, Note_on_c, 8, 53, 96
11, 66600, Note_on_c, 8, 55, 96
11, 66674, Note_on_c, 8, 55, 0
11, 66674, Note_on_c, 8, 53, 0
11, 66720, Note_on_c, 8, 55, 96
11, 66720, Note_on_c, 8, 53, 96
11, 66794, Note_on_c, 8, 53, 0
11, 66794, Note_on_c, 8, 55, 0
11, 66840, Note_on_c, 8, 55, 96
11, 66840, Note_on_c, 8, 53, 96
11, 66912, Note_on_c, 8, 53, 0
11, 66912, Note_on_c, 8, 55, 0
11, 66960, Note_on_c, 8, 55, 96
11, 66960, Note_on_c, 8, 53, 96
11, 67032, Note_on_c, 8, 53, 0
11, 67032, Note_on_c, 8, 55, 0
11, 67080, Note_on_c, 8, 55, 96
11, 67080, Note_on_c, 8, 53, 96
11, 67156, Note_on_c, 8, 53, 0
11, 67160, Note_on_c, 8, 55, 0
11, 67200, Note_on_c, 8, 55, 96
11, 67200, Note_on_c, 8, 53, 96
11, 67276, Note_on_c, 8, 55, 0
11, 67280, Note_on_c, 8, 53, 0
11, 67320, Note_on_c, 8, 55, 96
11, 67320, Note_on_c, 8, 53, 96
11, 67390, Note_on_c, 8, 53, 0
11, 67392, Note_on_c, 8, 55, 0
11, 67440, Note_on_c, 8, 53, 96
11, 67440, Note_on_c, 8, 55, 96
11, 67502, Note_on_c, 8, 55, 0
11, 67512, Note_on_c, 8, 53, 0
11, 67560, Note_on_c, 8, 53, 96
11, 67560, Note_on_c, 8, 55, 96
11, 67632, Note_on_c, 8, 55, 0
11, 67634, Note_on_c, 8, 53, 0
11, 67680, Note_on_c, 8, 55, 96
11, 67680, Note_on_c, 8, 53, 96
11, 67756, Note_on_c, 8, 53, 0
11, 67756, Note_on_c, 8, 55, 0
11, 67800, Note_on_c, 8, 53, 96
11, 67800, Note_on_c, 8, 55, 96
11, 67874, Note_on_c, 8, 55, 0
11, 67874, Note_on_c, 8, 53, 0
11, 67920, Note_on_c, 8, 53, 96
11, 67920, Note_on_c, 8, 55, 96
11, 67984, Note_on_c, 8, 55, 0
11, 67992, Note_on_c, 8, 53, 0
11, 68040, Note_on_c, 8, 53, 96
11, 68040, Note_on_c, 8, 55, 96
11, 68106, Note_on_c, 8, 55, 0
11, 68124, Note_on_c, 8, 53, 0
11, 68160, Note_on_c, 8, 55, 96
11, 68160, Note_on_c, 8, 52, 96
11, 68226, Note_on_c, 8, 55, 0
11, 68226, Note_on_c, 8, 52, 0
11, 68400, Note_on_c, 8, 72, 96
11, 68804, Note_on_c, 8, 72, 0
11, 68880, Note_on_c, 8, 71, 96
11, 68972, Note_on_c, 8, 71, 0
11, 69120, Note_on_c, 8, 72, 96
11, 69186, Note_on_c, 8, 72, 0
11, 69360, Note_on_c, 8, 69, 96
11, 69780, Note_on_c, 8, 69, 0
11, 69840, Note_on_c, 8, 68, 96
11, 69926, Note_on_c, 8, 68, 0
11, 70080, Note_on_c, 8, 69, 96
11, 70154, Note_on_c, 8, 69, 0
11, 70320, Note_on_c, 8, 65, 96
11, 70800, Note_on_c, 8, 64, 96
11, 70814, Note_on_c, 8, 65, 0
11, 70894, Note_on_c, 8, 64, 0
11, 71040, Note_on_c, 8, 65, 96
11, 71116, Note_on_c, 8, 65, 0
11, 71280, Note_on_c, 8, 62, 96
11, 71356, Note_on_c, 8, 62, 0
11, 71520, Note_on_c, 8, 65, 96
11, 71602, Note_on_c, 8, 65, 0
11, 71760, Note_on_c, 8, 66, 96
11, 71842, Note_on_c, 8, 66, 0
11, 72000, Note_on_c, 8, 67, 80
11, 72082, Note_on_c, 8, 67, 0
11, 73200, Note_on_c, 8, 48, 93
11, 73276, Note_on_c, 8, 48, 0
11, 73320, Note_on_c, 8, 50, 94
11, 73394, Note_on_c, 8, 50, 0
11, 73440, Note_on_c, 8, 52, 95
11, 73516, Note_on_c, 8, 52, 0
11, 73560, Note_on_c, 8, 50, 96
11, 73640, Note_on_c, 8, 50, 0
11, 73680, Note_on_c, 8, 52, 98
11, 73752, Note_on_c, 8, 52, 0
11, 73800, Note_on_c, 8, 54, 99
11, 73872, Note_on_c, 8, 54, 0
11, 73920, Note_on_c, 8, 55, 100
11, 73990, Note_on_c, 8, 55, 0
11, 74040, Note_on_c, 8, 54, 101
11, 74124, Note_on_c, 8, 54, 0
11, 74160, Note_on_c, 8, 55, 103
11, 74242, Note_on_c, 8, 55, 0
11, 74280, Note_on_c, 8, 57, 104
11, 74354, Note_on_c, 8, 57, 0
11, 74400, Note_on_c, 8, 59, 105
11, 74472, Note_on_c, 8, 59, 0
11, 74520, Note_on_c, 8, 55, 106
11, 74604, Note_on_c, 8, 55, 0
11, 74640, Note_on_c, 8, 57, 108
11, 74714, Note_on_c, 8, 57, 0
11, 74760, Note_on_c, 8, 59, 109
11, 74834, Note_on_c, 8, 59, 0
11, 74880, Note_on_c, 8, 60, 110
11, 74952, Note_on_c, 8, 60, 0
11, 75000, Note_on_c, 8, 59, 111
11, 75084, Note_on_c, 8, 59, 0
11, 75120, Note_on_c, 8, 60, 113
11, 75196, Note_on_c, 8, 60, 0
11, 75240, Note_on_c, 8, 62, 114
11, 75316, Note_on_c, 8, 62, 0
11, 75360, Note_on_c, 8, 64, 115
11, 75436, Note_on_c, 8, 64, 0
11, 75480, Note_on_c, 8, 62, 116
11, 75562, Note_on_c, 8, 62, 0
11, 75600, Note_on_c, 8, 64, 118
11, 75672, Note_on_c, 8, 64, 0
11, 75720, Note_on_c, 8, 66, 119
11, 75796, Note_on_c, 8, 66, 0
11, 75840, Note_on_c, 8, 67, 127
11, 75930, Note_on_c, 8, 67, 0
11, 75960, Note_on_c, 8, 62, 127
11, 76054, Note_on_c, 8, 62, 0
11, 76080, Note_on_c, 8, 62, 127
11, 76174, Note_on_c, 8, 62, 0
11, 76200, Note_on_c, 8, 62, 127
11, 76296, Note_on_c, 8, 62, 0
11, 76320, Note_on_c, 8, 62, 127
11, 76412, Note_on_c, 8, 62, 0
11, 76440, Note_on_c, 8, 62, 127
11, 76522, Note_on_c, 8, 62, 0
11, 76560, Note_on_c, 8, 62, 127
11, 76650, Note_on_c, 8, 62, 0
11, 76680, Note_on_c, 8, 62, 127
11, 76764, Note_on_c, 8, 62, 0
11, 76800, Note_on_c, 8, 62, 127
11, 76890, Note_on_c, 8, 62, 0
11, 76920, Note_on_c, 8, 62, 127
11, 77006, Note_on_c, 8, 62, 0
11, 77040, Note_on_c, 8, 62, 127
11, 77130, Note_on_c, 8, 62, 0
11, 77160, Note_on_c, 8, 62, 127
11, 77242, Note_on_c, 8, 62, 0
11, 77280, Note_on_c, 8, 62, 127
11, 77362, Note_on_c, 8, 62, 0
11, 77400, Note_on_c, 8, 62, 127
11, 77480, Note_on_c, 8, 62, 0
11, 77520, Note_on_c, 8, 62, 127
11, 77596, Note_on_c, 8, 62, 0
11, 77640, Note_on_c, 8, 62, 127
11, 77722, Note_on_c, 8, 62, 0
11, 77760, Note_on_c, 8, 62, 127
11, 77866, Note_on_c, 8, 62, 0
11, 78240, Note_on_c, 8, 55, 127
11, 78336, Note_on_c, 8, 55, 0
11, 78720, Note_on_c, 8, 55, 127
11, 78814, Note_on_c, 8, 55, 0
11, 79680, Note_on_c, 8, 55, 67
11, 79770, Note_on_c, 8, 55, 0
11, 87360, Note_on_c, 8, 55, 58
11, 87486, Note_on_c, 8, 55, 0
11, 88800, Note_on_c, 8, 59, 72
11, 88874, Note_on_c, 8, 59, 0
11, 89040, Note_on_c, 8, 62, 72
11, 89106, Note_on_c, 8, 62, 0
11, 89280, Note_on_c, 8, 67, 72
11, 89356, Note_on_c, 8, 67, 0
11, 89760, Note_on_c, 8, 63, 72
11, 89840, Note_on_c, 8, 63, 0
11, 90240, Note_on_c, 8, 64, 72
11, 90324, Note_on_c, 8, 64, 0
11, 90720, Note_on_c, 8, 60, 72
11, 90804, Note_on_c, 8, 60, 0
11, 91200, Note_on_c, 8, 62, 96
11, 91290, Note_on_c, 8, 62, 0
11, 92400, Note_on_c, 8, 50, 72
11, 92486, Note_on_c, 8, 50, 0
11, 92640, Note_on_c, 8, 52, 72
11, 92724, Note_on_c, 8, 52, 0
11, 92760, Note_on_c, 8, 52, 0
11, 92880, Note_on_c, 8, 54, 72
11, 92952, Note_on_c, 8, 54, 0
11, 93120, Note_on_c, 8, 55, 72
11, 93210, Note_on_c, 8, 55, 0
11, 93600, Note_on_c, 8, 60, 72
11, 93682, Note_on_c, 8, 60, 0
11, 94080, Note_on_c, 8, 62, 72
11, 94154, Note_on_c, 8, 62, 0
11, 94320, Note_on_c, 8, 62, 72
11, 94392, Note_on_c, 8, 62, 0
11, 94800, Note_on_c, 8, 62, 72
11, 94870, Note_on_c, 8, 62, 0
11, 95040, Note_on_c, 8, 55, 96
11, 95116, Note_on_c, 8, 55, 0
11, 95280, Note_on_c, 8, 62, 96
11, 95350, Note_on_c, 8, 62, 0
11, 95520, Note_on_c, 8, 67, 96
11, 95592, Note_on_c, 8, 67, 0
11, 95760, Note_on_c, 8, 71, 96
11, 95836, Note_on_c, 8, 71, 0
11, 96000, Note_on_c, 8, 74, 96
11, 96074, Note_on_c, 8, 74, 0
11, 97200, Note_on_c, 8, 62, 96
11, 97284, Note_on_c, 8, 62, 0
11, 97440, Note_on_c, 8, 66, 96
11, 97516, Note_on_c, 8, 66, 0
11, 97680, Note_on_c, 8, 69, 96
11, 97754, Note_on_c, 8, 69, 0
11, 97920, Note_on_c, 8, 72, 96
11, 98002, Note_on_c, 8, 72, 0
11, 99120, Note_on_c, 8, 62, 96
11, 99200, Note_on_c, 8, 62, 0
11, 99360, Note_on_c, 8, 67, 96
11, 99432, Note_on_c, 8, 67, 0
11, 99600, Note_on_c, 8, 71, 96
11, 99680, Note_on_c, 8, 71, 0
11, 99840, Note_on_c, 8, 74, 96
11, 99922, Note_on_c, 8, 74, 0
11, 101040, Note_on_c, 8, 62, 96
11, 101116, Note_on_c, 8, 62, 0
11, 101280, Note_on_c, 8, 66, 96
11, 101364, Note_on_c, 8, 66, 0
11, 101520, Note_on_c, 8, 69, 96
11, 101590, Note_on_c, 8, 69, 0
11, 101760, Note_on_c, 8, 72, 96
11, 101836, Note_on_c, 8, 72, 0
11, 102720, Note_on_c, 8, 58, 96
11, 102816, Note_on_c, 8, 58, 0
11, 102840, Note_on_c, 8, 58, 96
11, 102932, Note_on_c, 8, 58, 0
11, 102960, Note_on_c, 8, 58, 96
11, 103050, Note_on_c, 8, 58, 0
11, 103080, Note_on_c, 8, 58, 96
11, 103166, Note_on_c, 8, 58, 0
11, 103200, Note_on_c, 8, 58, 96
11, 103286, Note_on_c, 8, 58, 0
11, 103320, Note_on_c, 8, 58, 96
11, 103410, Note_on_c, 8, 58, 0
11, 103440, Note_on_c, 8, 58, 96
11, 103530, Note_on_c, 8, 58, 0
11, 103560, Note_on_c, 8, 58, 96
11, 103650, Note_on_c, 8, 58, 0
11, 103680, Note_on_c, 8, 58, 96
11, 103774, Note_on_c, 8, 58, 0
11, 103800, Note_on_c, 8, 58, 96
11, 103892, Note_on_c, 8, 58, 0
11, 103920, Note_on_c, 8, 58, 96
11, 104010, Note_on_c, 8, 58, 0
11, 104040, Note_on_c, 8, 58, 96
11, 104132, Note_on_c, 8, 58, 0
11, 104160, Note_on_c, 8, 58, 96
11, 104250, Note_on_c, 8, 58, 0
11, 104280, Note_on_c, 8, 58, 96
11, 104374, Note_on_c, 8, 58, 0
11, 104400, Note_on_c, 8, 58, 96
11, 104490, Note_on_c, 8, 58, 0
11, 104520, Note_on_c, 8, 58, 96
11, 104616, Note_on_c, 8, 58, 0
11, 104640, Note_on_c, 8, 56, 96
11, 104734, Note_on_c, 8, 56, 0
11, 104760, Note_on_c, 8, 56, 96
11, 104844, Note_on_c, 8, 56, 0
11, 104880, Note_on_c, 8, 56, 96
11, 104972, Note_on_c, 8, 56, 0
11, 105000, Note_on_c, 8, 56, 96
11, 105084, Note_on_c, 8, 56, 0
11, 105120, Note_on_c, 8, 56, 96
11, 105202, Note_on_c, 8, 56, 0
11, 105240, Note_on_c, 8, 56, 96
11, 105322, Note_on_c, 8, 56, 0
11, 105360, Note_on_c, 8, 56, 96
11, 105436, Note_on_c, 8, 56, 0
11, 105480, Note_on_c, 8, 56, 96
11, 105560, Note_on_c, 8, 56, 0
11, 105600, Note_on_c, 8, 56, 96
11, 105686, Note_on_c, 8, 56, 0
11, 105720, Note_on_c, 8, 56, 96
11, 105800, Note_on_c, 8, 56, 0
11, 105840, Note_on_c, 8, 56, 96
11, 105920, Note_on_c, 8, 56, 0
11, 105960, Note_on_c, 8, 56, 96
11, 106036, Note_on_c, 8, 56, 0
11, 106080, Note_on_c, 8, 56, 96
11, 106160, Note_on_c, 8, 56, 0
11, 106200, Note_on_c, 8, 56, 96
11, 106280, Note_on_c, 8, 56, 0
11, 106320, Note_on_c, 8, 56, 96
11, 106396, Note_on_c, 8, 56, 0
11, 106440, Note_on_c, 8, 56, 96
11, 106526, Note_on_c, 8, 56, 0
11, 106560, Note_on_c, 8, 53, 96
11, 106660, Note_on_c, 8, 53, 0
11, 106680, Note_on_c, 8, 53, 96
11, 106762, Note_on_c, 8, 53, 0
11, 106800, Note_on_c, 8, 53, 96
11, 106890, Note_on_c, 8, 53, 0
11, 106920, Note_on_c, 8, 53, 96
11, 107014, Note_on_c, 8, 53, 0
11, 107040, Note_on_c, 8, 53, 96
11, 107124, Note_on_c, 8, 53, 0
11, 107160, Note_on_c, 8, 53, 96
11, 107234, Note_on_c, 8, 53, 0
11, 107280, Note_on_c, 8, 51, 96
11, 107360, Note_on_c, 8, 51, 0
11, 107400, Note_on_c, 8, 51, 96
11, 107476, Note_on_c, 8, 51, 0
11, 107520, Note_on_c, 8, 50, 96
11, 107606, Note_on_c, 8, 50, 0
11, 107640, Note_on_c, 8, 50, 96
11, 107712, Note_on_c, 8, 50, 0
11, 107760, Note_on_c, 8, 62, 96
11, 107844, Note_on_c, 8, 62, 0
11, 107880, Note_on_c, 8, 62, 96
11, 107962, Note_on_c, 8, 62, 0
11, 108000, Note_on_c, 8, 62, 96
11, 108074, Note_on_c, 8, 62, 0
11, 108120, Note_on_c, 8, 62, 96
11, 108192, Note_on_c, 8, 62, 0
11, 108240, Note_on_c, 8, 62, 96
11, 108312, Note_on_c, 8, 62, 0
11, 108360, Note_on_c, 8, 62, 96
11, 108424, Note_on_c, 8, 62, 0
11, 108480, Note_on_c, 8, 63, 96
11, 108562, Note_on_c, 8, 63, 0
11, 108720, Note_on_c, 8, 58, 96
11, 108720, Note_on_c, 8, 63, 96
11, 108766, Note_on_c, 8, 58, 0
11, 108786, Note_on_c, 8, 63, 0
11, 109200, Note_on_c, 8, 60, 96
11, 109200, Note_on_c, 8, 56, 96
11, 109276, Note_on_c, 8, 60, 0
11, 109282, Note_on_c, 8, 56, 0
11, 109680, Note_on_c, 8, 55, 96
11, 109680, Note_on_c, 8, 58, 96
11, 109754, Note_on_c, 8, 55, 0
11, 109756, Note_on_c, 8, 58, 0
11, 110160, Note_on_c, 8, 53, 96
11, 110160, Note_on_c, 8, 56, 96
11, 110226, Note_on_c, 8, 53, 0
11, 110236, Note_on_c, 8, 56, 0
11, 110400, Note_on_c, 8, 59, 127
11, 111480, Note_on_c, 8, 60, 127
11, 111544, Note_on_c, 8, 59, 0
11, 111600, Note_on_c, 8, 62, 127
11, 111672, Note_on_c, 8, 60, 0
11, 111720, Note_on_c, 8, 60, 127
11, 111796, Note_on_c, 8, 62, 0
11, 111840, Note_on_c, 8, 59, 127
11, 111920, Note_on_c, 8, 60, 0
11, 111960, Note_on_c, 8, 55, 127
11, 112004, Note_on_c, 8, 59, 0
11, 112080, Note_on_c, 8, 57, 127
11, 112136, Note_on_c, 8, 55, 0
11, 112200, Note_on_c, 8, 59, 127
11, 112262, Note_on_c, 8, 57, 0
11, 112320, Note_on_c, 8, 60, 127
11, 112360, Note_on_c, 8, 59, 0
11, 112400, Note_on_c, 8, 60, 0
11, 112560, Note_on_c, 8, 55, 96
11, 112560, Note_on_c, 8, 60, 96
11, 112644, Note_on_c, 8, 55, 0
11, 112652, Note_on_c, 8, 60, 0
11, 113040, Note_on_c, 8, 56, 96
11, 113040, Note_on_c, 8, 53, 96
11, 113116, Note_on_c, 8, 53, 0
11, 113126, Note_on_c, 8, 56, 0
11, 113520, Note_on_c, 8, 51, 96
11, 113520, Note_on_c, 8, 55, 96
11, 113596, Note_on_c, 8, 51, 0
11, 113600, Note_on_c, 8, 55, 0
11, 114000, Note_on_c, 8, 50, 96
11, 114000, Note_on_c, 8, 53, 96
11, 114070, Note_on_c, 8, 50, 0
11, 114074, Note_on_c, 8, 53, 0
11, 114240, Note_on_c, 8, 66, 127
11, 115320, Note_on_c, 8, 67, 127
11, 115392, Note_on_c, 8, 66, 0
11, 115440, Note_on_c, 8, 69, 127
11, 115484, Note_on_c, 8, 67, 0
11, 115560, Note_on_c, 8, 67, 127
11, 115600, Note_on_c, 8, 69, 0
11, 115680, Note_on_c, 8, 66, 127
11, 115746, Note_on_c, 8, 67, 0
11, 115800, Note_on_c, 8, 62, 127
11, 115852, Note_on_c, 8, 66, 0
11, 115920, Note_on_c, 8, 64, 127
11, 115972, Note_on_c, 8, 62, 0
11, 116040, Note_on_c, 8, 66, 127
11, 116094, Note_on_c, 8, 64, 0
11, 116160, Note_on_c, 8, 67, 127
11, 116234, Note_on_c, 8, 66, 0
11, 116244, Note_on_c, 8, 67, 0
11, 116400, Note_on_c, 8, 62, 96
11, 116400, Note_on_c, 8, 58, 96
11, 116474, Note_on_c, 8, 58, 0
11, 116482, Note_on_c, 8, 62, 0
11, 116880, Note_on_c, 8, 60, 96
11, 116880, Note_on_c, 8, 63, 96
11, 116954, Note_on_c, 8, 60, 0
11, 116960, Note_on_c, 8, 63, 0
11, 117360, Note_on_c, 8, 62, 96
11, 117360, Note_on_c, 8, 58, 96
11, 117434, Note_on_c, 8, 58, 0
11, 117440, Note_on_c, 8, 62, 0
11, 117840, Note_on_c, 8, 62, 96
11, 117840, Note_on_c, 8, 60, 96
11, 117914, Note_on_c, 8, 60, 0
11, 117914, Note_on_c, 8, 62, 0
11, 118080, Note_on_c, 8, 59, 96
11, 118080, Note_on_c, 8, 62, 96
11, 118166, Note_on_c, 8, 59, 0
11, 118172, Note_on_c, 8, 62, 0
11, 119760, Note_on_c, 8, 59, 96
11, 119850, Note_on_c, 8, 59, 0
11, 120000, Note_on_c, 8, 57, 96
11, 120100, Note_on_c, 8, 57, 0
11, 121680, Note_on_c, 8, 61, 96
11, 121760, Note_on_c, 8, 61, 0
11, 121920, Note_on_c, 8, 59, 96
11, 122014, Note_on_c, 8, 59, 0
11, 123600, Note_on_c, 8, 62, 96
11, 123684, Note_on_c, 8, 62, 0
11, 123840, Note_on_c, 8, 60, 96
11, 123924, Note_on_c, 8, 60, 0
11, 124560, Note_on_c, 8, 64, 96
11, 124650, Note_on_c, 8, 64, 0
11, 124800, Note_on_c, 8, 62, 96
11, 124882, Note_on_c, 8, 62, 0
11, 125520, Note_on_c, 8, 66, 96
11, 125600, Note_on_c, 8, 66, 0
11, 125760, Note_on_c, 8, 67, 80
11, 125836, Note_on_c, 8, 67, 0
11, 126000, Note_on_c, 8, 63, 83
11, 126080, Note_on_c, 8, 63, 0
11, 126240, Note_on_c, 8, 64, 85
11, 126322, Note_on_c, 8, 64, 0
11, 126480, Note_on_c, 8, 66, 88
11, 126570, Note_on_c, 8, 66, 0
11, 126720, Note_on_c, 8, 67, 90
11, 126812, Note_on_c, 8, 67, 0
11, 126960, Note_on_c, 8, 66, 93
11, 127042, Note_on_c, 8, 66, 0
11, 127200, Note_on_c, 8, 67, 95
11, 127292, Note_on_c, 8, 67, 0
11, 127440, Note_on_c, 8, 69, 98
11, 127532, Note_on_c, 8, 69, 0
11, 127680, Note_on_c, 8, 71, 100
11, 127772, Note_on_c, 8, 71, 0
11, 127920, Note_on_c, 8, 66, 103
11, 128016, Note_on_c, 8, 66, 0
11, 128160, Note_on_c, 8, 67, 105
11, 128244, Note_on_c, 8, 67, 0
11, 128400, Note_on_c, 8, 69, 108
11, 128490, Note_on_c, 8, 69, 0
11, 128640, Note_on_c, 8, 71, 110
11, 128726, Note_on_c, 8, 71, 0
11, 128880, Note_on_c, 8, 69, 113
11, 128962, Note_on_c, 8, 69, 0
11, 129120, Note_on_c, 8, 71, 115
11, 129212, Note_on_c, 8, 71, 0
11, 129360, Note_on_c, 8, 72, 118
11, 129460, Note_on_c, 8, 72, 0
11, 129600, Note_on_c, 8, 74, 127
11, 129674, Note_on_c, 8, 74, 0
11, 129840, Note_on_c, 8, 54, 127
11, 130080, Note_on_c, 8, 55, 127
11, 130124, Note_on_c, 8, 54, 0
11, 130320, Note_on_c, 8, 59, 127
11, 130374, Note_on_c, 8, 55, 0
11, 130560, Note_on_c, 8, 62, 127
11, 130632, Note_on_c, 8, 59, 0
11, 131166, Note_on_c, 8, 62, 0
11, 131280, Note_on_c, 8, 63, 127
11, 131404, Note_on_c, 8, 63, 0
11, 131520, Note_on_c, 8, 64, 127
11, 131760, Note_on_c, 8, 63, 127
11, 131810, Note_on_c, 8, 64, 0
11, 132000, Note_on_c, 8, 64, 127
11, 132072, Note_on_c, 8, 63, 0
11, 132240, Note_on_c, 8, 67, 127
11, 132322, Note_on_c, 8, 64, 0
11, 132460, Note_on_c, 8, 67, 0
11, 132480, Note_on_c, 8, 71, 127
11, 133090, Note_on_c, 8, 71, 0
11, 133200, Note_on_c, 8, 71, 127
11, 133304, Note_on_c, 8, 71, 0
11, 133440, Note_on_c, 8, 72, 127
11, 134040, Note_on_c, 8, 69, 127
11, 134082, Note_on_c, 8, 72, 0
11, 134160, Note_on_c, 8, 71, 127
11, 134232, Note_on_c, 8, 69, 0
11, 134280, Note_on_c, 8, 72, 127
11, 134356, Note_on_c, 8, 71, 0
11, 134400, Note_on_c, 8, 74, 127
11, 134460, Note_on_c, 8, 72, 0
11, 134520, Note_on_c, 8, 73, 127
11, 134574, Note_on_c, 8, 74, 0
11, 134640, Note_on_c, 8, 74, 127
11, 134704, Note_on_c, 8, 73, 0
11, 134760, Note_on_c, 8, 73, 127
11, 134810, Note_on_c, 8, 74, 0
11, 134880, Note_on_c, 8, 74, 127
11, 134944, Note_on_c, 8, 73, 0
11, 135120, Note_on_c, 8, 62, 127
11, 135164, Note_on_c, 8, 74, 0
11, 135216, Note_on_c, 8, 62, 0
11, 135360, Note_on_c, 8, 55, 127
11, 135480, Note_on_c, 8, 57, 127
11, 135512, Note_on_c, 8, 55, 0
11, 135600, Note_on_c, 8, 55, 127
11, 135644, Note_on_c, 8, 57, 0
11, 135720, Note_on_c, 8, 54, 127
11, 135766, Note_on_c, 8, 55, 0
11, 135840, Note_on_c, 8, 55, 127
11, 135894, Note_on_c, 8, 54, 0
11, 135960, Note_on_c, 8, 57, 127
11, 136002, Note_on_c, 8, 55, 0
11, 136080, Note_on_c, 8, 59, 127
11, 136164, Note_on_c, 8, 57, 0
11, 136200, Note_on_c, 8, 60, 127
11, 136234, Note_on_c, 8, 59, 0
11, 136320, Note_on_c, 8, 62, 127
11, 136374, Note_on_c, 8, 60, 0
11, 136912, Note_on_c, 8, 62, 0
11, 137040, Note_on_c, 8, 63, 127
11, 137192, Note_on_c, 8, 63, 0
11, 137280, Note_on_c, 8, 64, 127
11, 137400, Note_on_c, 8, 66, 127
11, 137450, Note_on_c, 8, 64, 0
11, 137520, Note_on_c, 8, 64, 127
11, 137570, Note_on_c, 8, 66, 0
11, 137640, Note_on_c, 8, 63, 127
11, 137680, Note_on_c, 8, 64, 0
11, 137760, Note_on_c, 8, 64, 127
11, 137812, Note_on_c, 8, 63, 0
11, 137880, Note_on_c, 8, 66, 127
11, 137912, Note_on_c, 8, 64, 0
11, 138000, Note_on_c, 8, 67, 127
11, 138052, Note_on_c, 8, 66, 0
11, 138120, Note_on_c, 8, 69, 127
11, 138166, Note_on_c, 8, 67, 0
11, 138240, Note_on_c, 8, 71, 127
11, 138286, Note_on_c, 8, 69, 0
11, 138832, Note_on_c, 8, 71, 0
11, 138960, Note_on_c, 8, 71, 127
11, 139070, Note_on_c, 8, 71, 0
11, 139200, Note_on_c, 8, 72, 127
11, 139320, Note_on_c, 8, 71, 127
11, 139354, Note_on_c, 8, 72, 0
11, 139440, Note_on_c, 8, 72, 127
11, 139500, Note_on_c, 8, 71, 0
11, 139560, Note_on_c, 8, 71, 127
11, 139596, Note_on_c, 8, 72, 0
11, 139680, Note_on_c, 8, 72, 127
11, 139732, Note_on_c, 8, 71, 0
11, 139800, Note_on_c, 8, 69, 127
11, 139872, Note_on_c, 8, 72, 0
11, 139920, Note_on_c, 8, 71, 127
11, 139962, Note_on_c, 8, 69, 0
11, 140040, Note_on_c, 8, 72, 127
11, 140120, Note_on_c, 8, 71, 0
11, 140160, Note_on_c, 8, 74, 127
11, 140220, Note_on_c, 8, 72, 0
11, 140280, Note_on_c, 8, 73, 127
11, 140334, Note_on_c, 8, 74, 0
11, 140400, Note_on_c, 8, 74, 127
11, 140470, Note_on_c, 8, 73, 0
11, 140520, Note_on_c, 8, 73, 127
11, 140556, Note_on_c, 8, 74, 0
11, 140640, Note_on_c, 8, 74, 127
11, 140694, Note_on_c, 8, 73, 0
11, 140752, Note_on_c, 8, 74, 0
11, 140880, Note_on_c, 8, 62, 127
11, 140980, Note_on_c, 8, 62, 0
11, 141120, Note_on_c, 8, 67, 127
11, 141236, Note_on_c, 8, 67, 0
11, 143040, Note_on_c, 8, 60, 96
11, 143126, Note_on_c, 8, 60, 0
11, 143280, Note_on_c, 8, 63, 96
11, 143676, Note_on_c, 8, 63, 0
11, 143760, Note_on_c, 8, 63, 96
11, 143856, Note_on_c, 8, 63, 0
11, 144000, Note_on_c, 8, 62, 96
11, 144082, Note_on_c, 8, 62, 0
11, 144240, Note_on_c, 8, 60, 96
11, 144330, Note_on_c, 8, 60, 0
11, 144480, Note_on_c, 8, 59, 96
11, 144564, Note_on_c, 8, 59, 0
11, 144720, Note_on_c, 8, 57, 96
11, 144814, Note_on_c, 8, 57, 0
11, 144960, Note_on_c, 8, 55, 96
11, 145054, Note_on_c, 8, 55, 0
11, 146880, Note_on_c, 8, 60, 96
11, 146964, Note_on_c, 8, 60, 0
11, 147120, Note_on_c, 8, 63, 96
11, 147506, Note_on_c, 8, 63, 0
11, 147600, Note_on_c, 8, 63, 96
11, 147684, Note_on_c, 8, 63, 0
11, 147840, Note_on_c, 8, 62, 96
11, 147916, Note_on_c, 8, 62, 0
11, 148080, Note_on_c, 8, 60, 96
11, 148166, Note_on_c, 8, 60, 0
11, 148320, Note_on_c, 8, 59, 96
11, 148402, Note_on_c, 8, 59, 0
11, 148560, Note_on_c, 8, 57, 96
11, 148646, Note_on_c, 8, 57, 0
11, 148800, Note_on_c, 8, 56, 96
11, 148874, Note_on_c, 8, 56, 0
11, 149040, Note_on_c, 8, 65, 96
11, 149400, Note_on_c, 8, 65, 0
11, 149520, Note_on_c, 8, 65, 96
11, 149604, Note_on_c, 8, 65, 0
11, 149760, Note_on_c, 8, 64, 96
11, 149834, Note_on_c, 8, 64, 0
11, 150000, Note_on_c, 8, 62, 96
11, 150080, Note_on_c, 8, 62, 0
11, 150240, Note_on_c, 8, 60, 96
11, 150316, Note_on_c, 8, 60, 0
11, 150480, Note_on_c, 8, 59, 96
11, 150564, Note_on_c, 8, 59, 0
11, 150720, Note_on_c, 8, 58, 96
11, 150800, Note_on_c, 8, 58, 0
11, 150960, Note_on_c, 8, 67, 96
11, 151306, Note_on_c, 8, 67, 0
11, 151440, Note_on_c, 8, 67, 96
11, 151522, Note_on_c, 8, 67, 0
11, 151680, Note_on_c, 8, 65, 96
11, 151756, Note_on_c, 8, 65, 0
11, 151920, Note_on_c, 8, 64, 96
11, 152006, Note_on_c, 8, 64, 0
11, 152160, Note_on_c, 8, 62, 96
11, 152242, Note_on_c, 8, 62, 0
11, 152400, Note_on_c, 8, 60, 96
11, 152482, Note_on_c, 8, 60, 0
11, 152640, Note_on_c, 8, 59, 96
11, 152726, Note_on_c, 8, 59, 0
11, 155040, Note_on_c, 8, 55, 58
11, 155172, Note_on_c, 8, 55, 0
11, 156000, Note_on_c, 8, 55, 58
11, 156212, Note_on_c, 8, 55, 0
11, 156960, Note_on_c, 8, 55, 58
11, 157176, Note_on_c, 8, 55, 0
11, 157920, Note_on_c, 8, 55, 58
11, 158074, Note_on_c, 8, 55, 0
11, 160320, Note_on_c, 8, 52, 96
11, 160440, Note_on_c, 8, 52, 0
11, 161280, Note_on_c, 8, 52, 96
11, 161400, Note_on_c, 8, 52, 0
11, 162240, Note_on_c, 8, 52, 96
11, 162360, Note_on_c, 8, 52, 0
11, 162720, Note_on_c, 8, 52, 96
11, 162840, Note_on_c, 8, 52, 0
11, 163200, Note_on_c, 8, 52, 100
11, 163300, Note_on_c, 8, 52, 0
11, 164160, Note_on_c, 8, 53, 96
11, 164282, Note_on_c, 8, 53, 0
11, 165120, Note_on_c, 8, 53, 96
11, 165264, Note_on_c, 8, 53, 0
11, 166080, Note_on_c, 8, 53, 96
11, 166196, Note_on_c, 8, 53, 0
11, 166560, Note_on_c, 8, 53, 96
11, 166672, Note_on_c, 8, 53, 0
11, 167040, Note_on_c, 8, 53, 96
11, 167156, Note_on_c, 8, 53, 0
11, 168000, Note_on_c, 8, 51, 96
11, 168000, Note_on_c, 8, 55, 96
11, 168092, Note_on_c, 8, 55, 0
11, 168092, Note_on_c, 8, 51, 0
11, 168120, Note_on_c, 8, 55, 96
11, 168120, Note_on_c, 8, 51, 96
11, 168206, Note_on_c, 8, 51, 0
11, 168216, Note_on_c, 8, 55, 0
11, 168240, Note_on_c, 8, 55, 96
11, 168240, Note_on_c, 8, 51, 96
11, 168322, Note_on_c, 8, 51, 0
11, 168326, Note_on_c, 8, 55, 0
11, 168360, Note_on_c, 8, 51, 96
11, 168360, Note_on_c, 8, 55, 96
11, 168442, Note_on_c, 8, 51, 0
11, 168446, Note_on_c, 8, 55, 0
11, 168480, Note_on_c, 8, 51, 96
11, 168480, Note_on_c, 8, 55, 96
11, 168564, Note_on_c, 8, 51, 0
11, 168576, Note_on_c, 8, 55, 0
11, 168600, Note_on_c, 8, 55, 96
11, 168600, Note_on_c, 8, 51, 96
11, 168684, Note_on_c, 8, 51, 0
11, 168694, Note_on_c, 8, 55, 0
11, 168720, Note_on_c, 8, 55, 96
11, 168720, Note_on_c, 8, 51, 96
11, 168806, Note_on_c, 8, 51, 0
11, 168810, Note_on_c, 8, 55, 0
11, 168840, Note_on_c, 8, 55, 96
11, 168840, Note_on_c, 8, 51, 96
11, 168924, Note_on_c, 8, 51, 0
11, 168934, Note_on_c, 8, 55, 0
11, 168960, Note_on_c, 8, 51, 96
11, 168960, Note_on_c, 8, 55, 96
11, 169046, Note_on_c, 8, 51, 0
11, 169054, Note_on_c, 8, 55, 0
11, 169080, Note_on_c, 8, 55, 96
11, 169080, Note_on_c, 8, 51, 96
11, 169166, Note_on_c, 8, 51, 0
11, 169174, Note_on_c, 8, 55, 0
11, 169200, Note_on_c, 8, 51, 96
11, 169200, Note_on_c, 8, 55, 96
11, 169290, Note_on_c, 8, 55, 0
11, 169290, Note_on_c, 8, 51, 0
11, 169320, Note_on_c, 8, 55, 96
11, 169320, Note_on_c, 8, 51, 96
11, 169404, Note_on_c, 8, 51, 0
11, 169412, Note_on_c, 8, 55, 0
11, 169440, Note_on_c, 8, 51, 96
11, 169440, Note_on_c, 8, 55, 96
11, 169526, Note_on_c, 8, 51, 0
11, 169540, Note_on_c, 8, 55, 0
11, 169560, Note_on_c, 8, 55, 96
11, 169560, Note_on_c, 8, 51, 96
11, 169642, Note_on_c, 8, 51, 0
11, 169652, Note_on_c, 8, 55, 0
11, 169680, Note_on_c, 8, 55, 96
11, 169680, Note_on_c, 8, 51, 96
11, 169766, Note_on_c, 8, 51, 0
11, 169776, Note_on_c, 8, 55, 0
11, 169800, Note_on_c, 8, 55, 96
11, 169800, Note_on_c, 8, 51, 96
11, 169892, Note_on_c, 8, 51, 0
11, 169894, Note_on_c, 8, 55, 0
11, 169920, Note_on_c, 8, 55, 96
11, 169920, Note_on_c, 8, 51, 96
11, 170006, Note_on_c, 8, 51, 0
11, 170012, Note_on_c, 8, 55, 0
11, 170040, Note_on_c, 8, 51, 96
11, 170040, Note_on_c, 8, 55, 96
11, 170126, Note_on_c, 8, 51, 0
11, 170134, Note_on_c, 8, 55, 0
11, 170160, Note_on_c, 8, 55, 96
11, 170160, Note_on_c, 8, 51, 96
11, 170246, Note_on_c, 8, 51, 0
11, 170252, Note_on_c, 8, 55, 0
11, 170280, Note_on_c, 8, 55, 96
11, 170280, Note_on_c, 8, 51, 96
11, 170362, Note_on_c, 8, 51, 0
11, 170366, Note_on_c, 8, 55, 0
11, 170400, Note_on_c, 8, 51, 96
11, 170400, Note_on_c, 8, 55, 96
11, 170482, Note_on_c, 8, 51, 0
11, 170494, Note_on_c, 8, 55, 0
11, 170520, Note_on_c, 8, 51, 96
11, 170520, Note_on_c, 8, 55, 96
11, 170606, Note_on_c, 8, 51, 0
11, 170614, Note_on_c, 8, 55, 0
11, 170640, Note_on_c, 8, 55, 96
11, 170640, Note_on_c, 8, 51, 96
11, 170724, Note_on_c, 8, 51, 0
11, 170724, Note_on_c, 8, 55, 0
11, 170760, Note_on_c, 8, 55, 96
11, 170760, Note_on_c, 8, 51, 96
11, 170842, Note_on_c, 8, 51, 0
11, 170850, Note_on_c, 8, 55, 0
11, 170880, Note_on_c, 8, 51, 96
11, 170880, Note_on_c, 8, 55, 96
11, 170970, Note_on_c, 8, 51, 0
11, 170972, Note_on_c, 8, 55, 0
11, 171000, Note_on_c, 8, 55, 96
11, 171000, Note_on_c, 8, 51, 96
11, 171086, Note_on_c, 8, 51, 0
11, 171094, Note_on_c, 8, 55, 0
11, 171120, Note_on_c, 8, 55, 96
11, 171120, Note_on_c, 8, 51, 96
11, 171202, Note_on_c, 8, 51, 0
11, 171206, Note_on_c, 8, 55, 0
11, 171240, Note_on_c, 8, 55, 96
11, 171240, Note_on_c, 8, 51, 96
11, 171322, Note_on_c, 8, 51, 0
11, 171330, Note_on_c, 8, 55, 0
11, 171360, Note_on_c, 8, 51, 96
11, 171360, Note_on_c, 8, 55, 96
11, 171436, Note_on_c, 8, 51, 0
11, 171452, Note_on_c, 8, 55, 0
11, 171480, Note_on_c, 8, 55, 96
11, 171480, Note_on_c, 8, 51, 96
11, 171554, Note_on_c, 8, 51, 0
11, 171566, Note_on_c, 8, 55, 0
11, 171600, Note_on_c, 8, 55, 96
11, 171600, Note_on_c, 8, 51, 96
11, 171674, Note_on_c, 8, 51, 0
11, 171686, Note_on_c, 8, 55, 0
11, 171720, Note_on_c, 8, 51, 96
11, 171720, Note_on_c, 8, 55, 96
11, 171800, Note_on_c, 8, 55, 0
11, 171804, Note_on_c, 8, 51, 0
11, 171840, Note_on_c, 8, 53, 96
11, 171840, Note_on_c, 8, 56, 96
11, 171924, Note_on_c, 8, 53, 0
11, 171930, Note_on_c, 8, 56, 0
11, 171960, Note_on_c, 8, 56, 96
11, 171960, Note_on_c, 8, 53, 96
11, 172034, Note_on_c, 8, 56, 0
11, 172054, Note_on_c, 8, 53, 0
11, 172080, Note_on_c, 8, 56, 96
11, 172080, Note_on_c, 8, 53, 96
11, 172156, Note_on_c, 8, 56, 0
11, 172170, Note_on_c, 8, 53, 0
11, 172200, Note_on_c, 8, 56, 96
11, 172200, Note_on_c, 8, 53, 96
11, 172280, Note_on_c, 8, 56, 0
11, 172286, Note_on_c, 8, 53, 0
11, 172320, Note_on_c, 8, 53, 96
11, 172320, Note_on_c, 8, 56, 96
11, 172404, Note_on_c, 8, 56, 0
11, 172414, Note_on_c, 8, 53, 0
11, 172440, Note_on_c, 8, 56, 96
11, 172440, Note_on_c, 8, 53, 96
11, 172524, Note_on_c, 8, 56, 0
11, 172526, Note_on_c, 8, 53, 0
11, 172560, Note_on_c, 8, 53, 96
11, 172560, Note_on_c, 8, 56, 96
11, 172642, Note_on_c, 8, 56, 0
11, 172652, Note_on_c, 8, 53, 0
11, 172680, Note_on_c, 8, 56, 96
11, 172680, Note_on_c, 8, 53, 96
11, 172762, Note_on_c, 8, 56, 0
11, 172766, Note_on_c, 8, 53, 0
11, 172800, Note_on_c, 8, 56, 96
11, 172800, Note_on_c, 8, 53, 96
11, 172886, Note_on_c, 8, 56, 0
11, 172890, Note_on_c, 8, 53, 0
11, 172920, Note_on_c, 8, 56, 96
11, 172920, Note_on_c, 8, 53, 96
11, 173004, Note_on_c, 8, 53, 0
11, 173006, Note_on_c, 8, 56, 0
11, 173040, Note_on_c, 8, 53, 96
11, 173040, Note_on_c, 8, 56, 96
11, 173130, Note_on_c, 8, 56, 0
11, 173130, Note_on_c, 8, 53, 0
11, 173160, Note_on_c, 8, 56, 96
11, 173160, Note_on_c, 8, 53, 96
11, 173244, Note_on_c, 8, 53, 0
11, 173250, Note_on_c, 8, 56, 0
11, 173280, Note_on_c, 8, 53, 96
11, 173280, Note_on_c, 8, 56, 96
11, 173366, Note_on_c, 8, 56, 0
11, 173366, Note_on_c, 8, 53, 0
11, 173400, Note_on_c, 8, 56, 96
11, 173400, Note_on_c, 8, 53, 96
11, 173482, Note_on_c, 8, 56, 0
11, 173484, Note_on_c, 8, 53, 0
11, 173520, Note_on_c, 8, 56, 96
11, 173520, Note_on_c, 8, 53, 96
11, 173602, Note_on_c, 8, 56, 0
11, 173604, Note_on_c, 8, 53, 0
11, 173640, Note_on_c, 8, 53, 96
11, 173640, Note_on_c, 8, 56, 96
11, 173724, Note_on_c, 8, 56, 0
11, 173724, Note_on_c, 8, 53, 0
11, 173760, Note_on_c, 8, 56, 96
11, 173760, Note_on_c, 8, 53, 96
11, 173846, Note_on_c, 8, 53, 0
11, 173846, Note_on_c, 8, 56, 0
11, 173880, Note_on_c, 8, 56, 96
11, 173880, Note_on_c, 8, 53, 96
11, 173966, Note_on_c, 8, 53, 0
11, 173966, Note_on_c, 8, 56, 0
11, 174000, Note_on_c, 8, 56, 96
11, 174000, Note_on_c, 8, 53, 96
11, 174084, Note_on_c, 8, 53, 0
11, 174086, Note_on_c, 8, 56, 0
11, 174120, Note_on_c, 8, 56, 96
11, 174120, Note_on_c, 8, 53, 96
11, 174204, Note_on_c, 8, 53, 0
11, 174206, Note_on_c, 8, 56, 0
11, 174240, Note_on_c, 8, 56, 96
11, 174240, Note_on_c, 8, 53, 96
11, 174320, Note_on_c, 8, 56, 0
11, 174330, Note_on_c, 8, 53, 0
11, 174360, Note_on_c, 8, 53, 96
11, 174360, Note_on_c, 8, 56, 96
11, 174440, Note_on_c, 8, 53, 0
11, 174446, Note_on_c, 8, 56, 0
11, 174480, Note_on_c, 8, 53, 96
11, 174480, Note_on_c, 8, 56, 96
11, 174564, Note_on_c, 8, 53, 0
11, 174566, Note_on_c, 8, 56, 0
11, 174600, Note_on_c, 8, 53, 96
11, 174600, Note_on_c, 8, 56, 96
11, 174684, Note_on_c, 8, 56, 0
11, 174684, Note_on_c, 8, 53, 0
11, 174720, Note_on_c, 8, 53, 96
11, 174720, Note_on_c, 8, 56, 96
11, 174806, Note_on_c, 8, 53, 0
11, 174810, Note_on_c, 8, 56, 0
11, 174840, Note_on_c, 8, 56, 96
11, 174840, Note_on_c, 8, 53, 96
11, 174924, Note_on_c, 8, 53, 0
11, 174924, Note_on_c, 8, 56, 0
11, 174960, Note_on_c, 8, 56, 96
11, 174960, Note_on_c, 8, 53, 96
11, 175042, Note_on_c, 8, 53, 0
11, 175042, Note_on_c, 8, 56, 0
11, 175080, Note_on_c, 8, 53, 96
11, 175080, Note_on_c, 8, 56, 96
11, 175162, Note_on_c, 8, 56, 0
11, 175164, Note_on_c, 8, 53, 0
11, 175200, Note_on_c, 8, 56, 96
11, 175200, Note_on_c, 8, 53, 96
11, 175284, Note_on_c, 8, 56, 0
11, 175290, Note_on_c, 8, 53, 0
11, 175320, Note_on_c, 8, 56, 96
11, 175320, Note_on_c, 8, 53, 96
11, 175404, Note_on_c, 8, 53, 0
11, 175404, Note_on_c, 8, 56, 0
11, 175440, Note_on_c, 8, 56, 96
11, 175440, Note_on_c, 8, 53, 96
11, 175520, Note_on_c, 8, 56, 0
11, 175522, Note_on_c, 8, 53, 0
11, 175560, Note_on_c, 8, 53, 96
11, 175560, Note_on_c, 8, 56, 96
11, 175654, Note_on_c, 8, 53, 0
11, 175656, Note_on_c, 8, 56, 0
11, 175680, Note_on_c, 8, 51, 127
11, 175680, Note_on_c, 8, 55, 127
11, 175824, Note_on_c, 8, 51, 0
11, 175832, Note_on_c, 8, 55, 0
11, 177840, Note_on_c, 8, 53, 96
11, 177840, Note_on_c, 8, 61, 96
11, 178156, Note_on_c, 8, 53, 0
11, 178176, Note_on_c, 8, 61, 0
11, 178320, Note_on_c, 8, 53, 96
11, 178320, Note_on_c, 8, 60, 96
11, 178392, Note_on_c, 8, 60, 0
11, 178392, Note_on_c, 8, 53, 0
11, 178560, Note_on_c, 8, 53, 96
11, 178560, Note_on_c, 8, 61, 96
11, 178630, Note_on_c, 8, 53, 0
11, 178634, Note_on_c, 8, 61, 0
11, 178800, Note_on_c, 8, 53, 96
11, 178800, Note_on_c, 8, 60, 96
11, 178870, Note_on_c, 8, 53, 0
11, 178872, Note_on_c, 8, 60, 0
11, 179040, Note_on_c, 8, 53, 96
11, 179040, Note_on_c, 8, 58, 96
11, 179112, Note_on_c, 8, 53, 0
11, 179114, Note_on_c, 8, 58, 0
11, 179280, Note_on_c, 8, 58, 96
11, 179280, Note_on_c, 8, 52, 100
11, 179364, Note_on_c, 8, 58, 0
11, 179380, Note_on_c, 8, 52, 0
11, 179520, Note_on_c, 8, 53, 96
11, 179520, Note_on_c, 8, 56, 96
11, 179604, Note_on_c, 8, 53, 0
11, 179606, Note_on_c, 8, 56, 0
11, 181200, Note_on_c, 8, 55, 96
11, 181290, Note_on_c, 8, 55, 0
11, 181440, Note_on_c, 8, 60, 96
11, 181514, Note_on_c, 8, 60, 0
11, 181680, Note_on_c, 8, 60, 96
11, 181760, Note_on_c, 8, 60, 0
11, 182160, Note_on_c, 8, 59, 96
11, 182234, Note_on_c, 8, 59, 0
11, 182400, Note_on_c, 8, 60, 96
11, 182480, Note_on_c, 8, 60, 0
11, 182640, Note_on_c, 8, 58, 96
11, 182714, Note_on_c, 8, 58, 0
11, 182880, Note_on_c, 8, 57, 96
11, 182960, Note_on_c, 8, 57, 0
11, 183120, Note_on_c, 8, 56, 96
11, 183190, Note_on_c, 8, 56, 0
11, 183360, Note_on_c, 8, 55, 80
11, 183452, Note_on_c, 8, 55, 0
11, 184560, Note_on_c, 8, 48, 80
11, 184660, Note_on_c, 8, 48, 0
11, 184680, Note_on_c, 8, 50, 86
11, 184762, Note_on_c, 8, 50, 0
11, 184800, Note_on_c, 8, 51, 95
11, 184886, Note_on_c, 8, 51, 0
11, 184920, Note_on_c, 8, 50, 86
11, 185006, Note_on_c, 8, 50, 0
11, 185040, Note_on_c, 8, 51, 109
11, 185122, Note_on_c, 8, 51, 0
11, 185160, Note_on_c, 8, 53, 99
11, 185234, Note_on_c, 8, 53, 0
11, 185280, Note_on_c, 8, 55, 100
11, 185364, Note_on_c, 8, 55, 0
11, 185400, Note_on_c, 8, 54, 101
11, 185476, Note_on_c, 8, 54, 0
11, 185520, Note_on_c, 8, 55, 102
11, 185610, Note_on_c, 8, 55, 0
11, 185640, Note_on_c, 8, 57, 104
11, 185722, Note_on_c, 8, 57, 0
11, 185760, Note_on_c, 8, 59, 105
11, 185836, Note_on_c, 8, 59, 0
11, 185880, Note_on_c, 8, 55, 102
11, 185970, Note_on_c, 8, 55, 0
11, 186000, Note_on_c, 8, 57, 106
11, 186074, Note_on_c, 8, 57, 0
11, 186120, Note_on_c, 8, 59, 109
11, 186200, Note_on_c, 8, 59, 0
11, 186240, Note_on_c, 8, 60, 115
11, 186320, Note_on_c, 8, 60, 0
11, 186360, Note_on_c, 8, 59, 109
11, 186450, Note_on_c, 8, 59, 0
11, 186480, Note_on_c, 8, 60, 112
11, 186554, Note_on_c, 8, 60, 0
11, 186600, Note_on_c, 8, 62, 127
11, 186672, Note_on_c, 8, 62, 0
11, 186720, Note_on_c, 8, 63, 112
11, 186794, Note_on_c, 8, 63, 0
11, 186840, Note_on_c, 8, 62, 110
11, 186920, Note_on_c, 8, 62, 0
11, 186960, Note_on_c, 8, 63, 113
11, 187036, Note_on_c, 8, 63, 0
11, 187080, Note_on_c, 8, 66, 117
11, 187164, Note_on_c, 8, 66, 0
11, 187200, Note_on_c, 8, 67, 115
11, 187276, Note_on_c, 8, 67, 0
11, 187440, Note_on_c, 8, 63, 117
11, 187534, Note_on_c, 8, 63, 0
11, 187560, Note_on_c, 8, 63, 127
11, 187664, Note_on_c, 8, 63, 0
11, 187680, Note_on_c, 8, 62, 119
11, 187780, Note_on_c, 8, 62, 0
11, 187800, Note_on_c, 8, 62, 127
11, 187906, Note_on_c, 8, 62, 0
11, 187920, Note_on_c, 8, 63, 115
11, 188016, Note_on_c, 8, 63, 0
11, 188040, Note_on_c, 8, 63, 120
11, 188144, Note_on_c, 8, 63, 0
11, 188160, Note_on_c, 8, 62, 120
11, 188254, Note_on_c, 8, 62, 0
11, 188280, Note_on_c, 8, 62, 127
11, 188380, Note_on_c, 8, 62, 0
11, 188400, Note_on_c, 8, 63, 127
11, 188490, Note_on_c, 8, 63, 0
11, 188520, Note_on_c, 8, 63, 127
11, 188610, Note_on_c, 8, 63, 0
11, 188640, Note_on_c, 8, 62, 125
11, 188726, Note_on_c, 8, 62, 0
11, 188760, Note_on_c, 8, 62, 127
11, 188852, Note_on_c, 8, 62, 0
11, 188880, Note_on_c, 8, 63, 127
11, 188960, Note_on_c, 8, 63, 0
11, 189000, Note_on_c, 8, 63, 124
11, 189092, Note_on_c, 8, 63, 0
11, 189120, Note_on_c, 8, 62, 127
11, 189214, Note_on_c, 8, 62, 0
11, 189600, Note_on_c, 8, 67, 127
11, 189694, Note_on_c, 8, 67, 0
11, 190080, Note_on_c, 8, 55, 127
11, 190180, Note_on_c, 8, 55, 0
11, 191040, Note_on_c, 8, 60, 67
11, 191136, Note_on_c, 8, 60, 0
11, 194880, Note_on_c, 8, 55, 50
11, 195044, Note_on_c, 8, 55, 0
11, 198720, Note_on_c, 8, 60, 67
11, 198900, Note_on_c, 8, 60, 0
11, 199920, Note_on_c, 8, 60, 67
11, 199996, Note_on_c, 8, 60, 0
11, 200160, Note_on_c, 8, 64, 67
11, 200232, Note_on_c, 8, 64, 0
11, 200400, Note_on_c, 8, 67, 67
11, 200476, Note_on_c, 8, 67, 0
11, 200640, Note_on_c, 8, 72, 67
11, 200726, Note_on_c, 8, 72, 0
11, 201120, Note_on_c, 8, 68, 67
11, 201200, Note_on_c, 8, 68, 0
11, 201600, Note_on_c, 8, 69, 67
11, 201682, Note_on_c, 8, 69, 0
11, 202080, Note_on_c, 8, 65, 67
11, 202154, Note_on_c, 8, 65, 0
11, 202560, Note_on_c, 8, 59, 67
11, 202650, Note_on_c, 8, 59, 0
11, 203760, Note_on_c, 8, 55, 67
11, 203842, Note_on_c, 8, 55, 0
11, 204000, Note_on_c, 8, 57, 67
11, 204072, Note_on_c, 8, 57, 0
11, 204240, Note_on_c, 8, 59, 67
11, 204316, Note_on_c, 8, 59, 0
11, 204480, Note_on_c, 8, 60, 67
11, 204550, Note_on_c, 8, 60, 0
11, 204960, Note_on_c, 8, 65, 67
11, 205046, Note_on_c, 8, 65, 0
11, 205440, Note_on_c, 8, 52, 67
11, 205560, Note_on_c, 8, 52, 0
11, 205920, Note_on_c, 8, 53, 67
11, 206006, Note_on_c, 8, 53, 0
11, 206400, Note_on_c, 8, 52, 96
11, 206520, Note_on_c, 8, 52, 96
11, 206606, Note_on_c, 8, 52, 0
11, 206640, Note_on_c, 8, 55, 96
11, 206712, Note_on_c, 8, 55, 0
11, 206760, Note_on_c, 8, 52, 96
11, 206834, Note_on_c, 8, 52, 0
11, 206880, Note_on_c, 8, 48, 96
11, 206956, Note_on_c, 8, 48, 0
11, 207000, Note_on_c, 8, 52, 96
11, 207074, Note_on_c, 8, 52, 0
11, 207120, Note_on_c, 8, 55, 96
11, 207190, Note_on_c, 8, 55, 0
11, 207240, Note_on_c, 8, 52, 96
11, 207320, Note_on_c, 8, 52, 0
11, 207360, Note_on_c, 8, 48, 96
11, 207444, Note_on_c, 8, 48, 0
11, 207480, Note_on_c, 8, 52, 96
11, 207556, Note_on_c, 8, 52, 0
11, 207600, Note_on_c, 8, 55, 96
11, 207674, Note_on_c, 8, 55, 0
11, 207720, Note_on_c, 8, 52, 96
11, 207800, Note_on_c, 8, 52, 0
11, 207840, Note_on_c, 8, 48, 96
11, 207922, Note_on_c, 8, 48, 0
11, 207960, Note_on_c, 8, 52, 96
11, 208034, Note_on_c, 8, 52, 0
11, 208080, Note_on_c, 8, 55, 96
11, 208146, Note_on_c, 8, 55, 0
11, 208200, Note_on_c, 8, 52, 96
11, 208280, Note_on_c, 8, 52, 0
11, 208320, Note_on_c, 8, 50, 96
11, 208406, Note_on_c, 8, 50, 0
11, 208440, Note_on_c, 8, 53, 96
11, 208512, Note_on_c, 8, 53, 0
11, 208560, Note_on_c, 8, 55, 96
11, 208644, Note_on_c, 8, 55, 0
11, 208680, Note_on_c, 8, 53, 96
11, 208760, Note_on_c, 8, 53, 0
11, 208800, Note_on_c, 8, 50, 96
11, 208886, Note_on_c, 8, 50, 0
11, 208920, Note_on_c, 8, 53, 96
11, 209000, Note_on_c, 8, 53, 0
11, 209040, Note_on_c, 8, 55, 96
11, 209112, Note_on_c, 8, 55, 0
11, 209160, Note_on_c, 8, 53, 96
11, 209236, Note_on_c, 8, 53, 0
11, 209280, Note_on_c, 8, 50, 96
11, 209364, Note_on_c, 8, 50, 0
11, 209400, Note_on_c, 8, 53, 96
11, 209474, Note_on_c, 8, 53, 0
11, 209520, Note_on_c, 8, 55, 96
11, 209594, Note_on_c, 8, 55, 0
11, 209640, Note_on_c, 8, 53, 96
11, 209714, Note_on_c, 8, 53, 0
11, 209760, Note_on_c, 8, 50, 96
11, 209840, Note_on_c, 8, 50, 0
11, 209880, Note_on_c, 8, 53, 96
11, 209952, Note_on_c, 8, 53, 0
11, 210000, Note_on_c, 8, 55, 96
11, 210076, Note_on_c, 8, 55, 0
11, 210120, Note_on_c, 8, 53, 96
11, 210200, Note_on_c, 8, 53, 0
11, 210240, Note_on_c, 8, 48, 96
11, 210334, Note_on_c, 8, 48, 0
11, 210360, Note_on_c, 8, 52, 96
11, 210436, Note_on_c, 8, 52, 0
11, 210480, Note_on_c, 8, 55, 96
11, 210556, Note_on_c, 8, 55, 0
11, 210600, Note_on_c, 8, 52, 96
11, 210674, Note_on_c, 8, 52, 0
11, 210720, Note_on_c, 8, 48, 96
11, 210802, Note_on_c, 8, 48, 0
11, 210840, Note_on_c, 8, 52, 96
11, 210912, Note_on_c, 8, 52, 0
11, 210960, Note_on_c, 8, 55, 96
11, 211036, Note_on_c, 8, 55, 0
11, 211080, Note_on_c, 8, 52, 96
11, 211160, Note_on_c, 8, 52, 0
11, 211200, Note_on_c, 8, 48, 96
11, 211284, Note_on_c, 8, 48, 0
11, 211320, Note_on_c, 8, 52, 96
11, 211390, Note_on_c, 8, 52, 0
11, 211440, Note_on_c, 8, 55, 96
11, 211510, Note_on_c, 8, 55, 0
11, 211560, Note_on_c, 8, 52, 96
11, 211642, Note_on_c, 8, 52, 0
11, 211680, Note_on_c, 8, 48, 96
11, 211766, Note_on_c, 8, 48, 0
11, 211800, Note_on_c, 8, 52, 96
11, 211870, Note_on_c, 8, 52, 0
11, 211920, Note_on_c, 8, 55, 96
11, 211986, Note_on_c, 8, 55, 0
11, 212040, Note_on_c, 8, 52, 96
11, 212112, Note_on_c, 8, 52, 0
11, 212160, Note_on_c, 8, 50, 96
11, 212246, Note_on_c, 8, 50, 0
11, 212280, Note_on_c, 8, 53, 96
11, 212352, Note_on_c, 8, 53, 0
11, 212400, Note_on_c, 8, 55, 96
11, 212476, Note_on_c, 8, 55, 0
11, 212520, Note_on_c, 8, 53, 96
11, 212586, Note_on_c, 8, 53, 0
11, 212640, Note_on_c, 8, 50, 96
11, 212722, Note_on_c, 8, 50, 0
11, 212760, Note_on_c, 8, 53, 96
11, 212832, Note_on_c, 8, 53, 0
11, 212880, Note_on_c, 8, 55, 96
11, 212940, Note_on_c, 8, 55, 0
11, 213000, Note_on_c, 8, 53, 96
11, 213072, Note_on_c, 8, 53, 0
11, 213120, Note_on_c, 8, 50, 96
11, 213196, Note_on_c, 8, 50, 0
11, 213240, Note_on_c, 8, 53, 96
11, 213310, Note_on_c, 8, 53, 0
11, 213360, Note_on_c, 8, 55, 96
11, 213430, Note_on_c, 8, 55, 0
11, 213480, Note_on_c, 8, 53, 96
11, 213554, Note_on_c, 8, 53, 0
11, 213600, Note_on_c, 8, 50, 96
11, 213672, Note_on_c, 8, 50, 0
11, 213720, Note_on_c, 8, 53, 96
11, 213792, Note_on_c, 8, 53, 0
11, 213840, Note_on_c, 8, 55, 96
11, 213906, Note_on_c, 8, 55, 0
11, 213960, Note_on_c, 8, 53, 96
11, 214026, Note_on_c, 8, 53, 0
11, 214080, Note_on_c, 8, 51, 96
11, 214200, Note_on_c, 8, 63, 96
11, 214210, Note_on_c, 8, 51, 0
11, 214284, Note_on_c, 8, 63, 0
11, 214320, Note_on_c, 8, 63, 96
11, 214406, Note_on_c, 8, 63, 0
11, 214440, Note_on_c, 8, 63, 96
11, 214514, Note_on_c, 8, 63, 0
11, 214560, Note_on_c, 8, 63, 96
11, 214646, Note_on_c, 8, 63, 0
11, 214680, Note_on_c, 8, 63, 96
11, 214762, Note_on_c, 8, 63, 0
11, 214800, Note_on_c, 8, 63, 96
11, 214880, Note_on_c, 8, 63, 0
11, 214920, Note_on_c, 8, 63, 96
11, 215000, Note_on_c, 8, 63, 0
11, 215040, Note_on_c, 8, 63, 96
11, 215124, Note_on_c, 8, 63, 0
11, 215160, Note_on_c, 8, 63, 96
11, 215242, Note_on_c, 8, 63, 0
11, 215280, Note_on_c, 8, 63, 96
11, 215360, Note_on_c, 8, 63, 0
11, 215400, Note_on_c, 8, 63, 96
11, 215482, Note_on_c, 8, 63, 0
11, 215520, Note_on_c, 8, 63, 96
11, 215604, Note_on_c, 8, 63, 0
11, 215640, Note_on_c, 8, 63, 96
11, 215724, Note_on_c, 8, 63, 0
11, 215760, Note_on_c, 8, 63, 96
11, 215846, Note_on_c, 8, 63, 0
11, 215880, Note_on_c, 8, 63, 96
11, 215972, Note_on_c, 8, 63, 0
11, 216000, Note_on_c, 8, 61, 96
11, 216086, Note_on_c, 8, 61, 0
11, 216120, Note_on_c, 8, 61, 96
11, 216206, Note_on_c, 8, 61, 0
11, 216240, Note_on_c, 8, 61, 96
11, 216316, Note_on_c, 8, 61, 0
11, 216360, Note_on_c, 8, 61, 96
11, 216442, Note_on_c, 8, 61, 0
11, 216480, Note_on_c, 8, 61, 96
11, 216560, Note_on_c, 8, 61, 0
11, 216600, Note_on_c, 8, 61, 96
11, 216680, Note_on_c, 8, 61, 0
11, 216720, Note_on_c, 8, 61, 96
11, 216804, Note_on_c, 8, 61, 0
11, 216840, Note_on_c, 8, 61, 96
11, 216922, Note_on_c, 8, 61, 0
11, 216960, Note_on_c, 8, 61, 96
11, 217042, Note_on_c, 8, 61, 0
11, 217080, Note_on_c, 8, 61, 96
11, 217164, Note_on_c, 8, 61, 0
11, 217200, Note_on_c, 8, 61, 96
11, 217282, Note_on_c, 8, 61, 0
11, 217320, Note_on_c, 8, 61, 96
11, 217402, Note_on_c, 8, 61, 0
11, 217440, Note_on_c, 8, 61, 96
11, 217522, Note_on_c, 8, 61, 0
11, 217560, Note_on_c, 8, 61, 96
11, 217656, Note_on_c, 8, 61, 0
11, 217680, Note_on_c, 8, 60, 96
11, 217772, Note_on_c, 8, 60, 0
11, 217800, Note_on_c, 8, 60, 96
11, 217900, Note_on_c, 8, 60, 0
11, 217920, Note_on_c, 8, 58, 96
11, 218014, Note_on_c, 8, 58, 0
11, 218040, Note_on_c, 8, 58, 96
11, 218126, Note_on_c, 8, 58, 0
11, 218160, Note_on_c, 8, 58, 96
11, 218246, Note_on_c, 8, 58, 0
11, 218280, Note_on_c, 8, 58, 96
11, 218360, Note_on_c, 8, 58, 0
11, 218400, Note_on_c, 8, 58, 96
11, 218482, Note_on_c, 8, 58, 0
11, 218520, Note_on_c, 8, 58, 96
11, 218614, Note_on_c, 8, 58, 0
11, 218640, Note_on_c, 8, 56, 96
11, 218726, Note_on_c, 8, 56, 0
11, 218760, Note_on_c, 8, 56, 96
11, 218850, Note_on_c, 8, 56, 0
11, 218880, Note_on_c, 8, 55, 96
11, 218980, Note_on_c, 8, 55, 0
11, 219000, Note_on_c, 8, 55, 96
11, 219086, Note_on_c, 8, 55, 0
11, 219120, Note_on_c, 8, 55, 96
11, 219200, Note_on_c, 8, 55, 0
11, 219240, Note_on_c, 8, 55, 96
11, 219322, Note_on_c, 8, 55, 0
11, 219360, Note_on_c, 8, 55, 96
11, 219434, Note_on_c, 8, 55, 0
11, 219480, Note_on_c, 8, 55, 96
11, 219562, Note_on_c, 8, 55, 0
11, 219720, Note_on_c, 8, 67, 96
11, 219810, Note_on_c, 8, 67, 0
11, 219840, Note_on_c, 8, 68, 96
11, 219926, Note_on_c, 8, 68, 0
11, 220080, Note_on_c, 8, 63, 96
11, 220080, Note_on_c, 8, 68, 96
11, 220164, Note_on_c, 8, 63, 0
11, 220184, Note_on_c, 8, 68, 0
11, 220560, Note_on_c, 8, 65, 96
11, 220560, Note_on_c, 8, 61, 96
11, 220634, Note_on_c, 8, 61, 0
11, 220634, Note_on_c, 8, 65, 0
11, 221040, Note_on_c, 8, 63, 96
11, 221040, Note_on_c, 8, 60, 96
11, 221126, Note_on_c, 8, 63, 0
11, 221130, Note_on_c, 8, 60, 0
11, 221520, Note_on_c, 8, 58, 96
11, 221520, Note_on_c, 8, 61, 96
11, 221592, Note_on_c, 8, 58, 0
11, 221596, Note_on_c, 8, 61, 0
11, 221760, Note_on_c, 8, 64, 96
11, 222840, Note_on_c, 8, 65, 96
11, 222936, Note_on_c, 8, 64, 0
11, 222960, Note_on_c, 8, 67, 96
11, 223032, Note_on_c, 8, 65, 0
11, 223080, Note_on_c, 8, 65, 96
11, 223166, Note_on_c, 8, 67, 0
11, 223200, Note_on_c, 8, 64, 96
11, 223272, Note_on_c, 8, 65, 0
11, 223320, Note_on_c, 8, 60, 96
11, 223364, Note_on_c, 8, 64, 0
11, 223440, Note_on_c, 8, 62, 96
11, 223482, Note_on_c, 8, 60, 0
11, 223560, Note_on_c, 8, 64, 96
11, 223602, Note_on_c, 8, 62, 0
11, 223680, Note_on_c, 8, 65, 96
11, 223720, Note_on_c, 8, 64, 0
11, 223756, Note_on_c, 8, 65, 0
11, 223920, Note_on_c, 8, 60, 96
11, 224006, Note_on_c, 8, 60, 0
11, 224400, Note_on_c, 8, 61, 96
11, 224400, Note_on_c, 8, 58, 96
11, 224464, Note_on_c, 8, 58, 0
11, 224476, Note_on_c, 8, 61, 0
11, 224880, Note_on_c, 8, 60, 96
11, 224880, Note_on_c, 8, 56, 96
11, 224946, Note_on_c, 8, 56, 0
11, 224960, Note_on_c, 8, 60, 0
11, 225360, Note_on_c, 8, 58, 96
11, 225360, Note_on_c, 8, 60, 96
11, 225430, Note_on_c, 8, 58, 0
11, 225434, Note_on_c, 8, 60, 0
11, 225600, Note_on_c, 8, 59, 96
11, 226680, Note_on_c, 8, 60, 96
11, 226734, Note_on_c, 8, 59, 0
11, 226800, Note_on_c, 8, 62, 96
11, 226856, Note_on_c, 8, 60, 0
11, 226920, Note_on_c, 8, 60, 96
11, 226982, Note_on_c, 8, 62, 0
11, 227040, Note_on_c, 8, 59, 96
11, 227122, Note_on_c, 8, 60, 0
11, 227160, Note_on_c, 8, 55, 96
11, 227200, Note_on_c, 8, 59, 0
11, 227280, Note_on_c, 8, 57, 96
11, 227344, Note_on_c, 8, 55, 0
11, 227400, Note_on_c, 8, 59, 96
11, 227460, Note_on_c, 8, 57, 0
11, 227504, Note_on_c, 8, 59, 0
11, 227520, Note_on_c, 8, 60, 96
11, 227594, Note_on_c, 8, 60, 0
11, 227760, Note_on_c, 8, 55, 96
11, 227842, Note_on_c, 8, 55, 0
11, 228240, Note_on_c, 8, 53, 96
11, 228240, Note_on_c, 8, 56, 96
11, 228320, Note_on_c, 8, 53, 0
11, 228324, Note_on_c, 8, 56, 0
11, 228720, Note_on_c, 8, 51, 96
11, 228720, Note_on_c, 8, 55, 96
11, 228792, Note_on_c, 8, 55, 0
11, 228796, Note_on_c, 8, 51, 0
11, 229200, Note_on_c, 8, 55, 96
11, 229200, Note_on_c, 8, 53, 96
11, 229266, Note_on_c, 8, 53, 0
11, 229266, Note_on_c, 8, 55, 0
11, 229440, Note_on_c, 8, 55, 96
11, 229440, Note_on_c, 8, 52, 100
11, 229520, Note_on_c, 8, 55, 0
11, 229522, Note_on_c, 8, 52, 0
11, 229540, Note_on_c, 8, 52, 0
11, 231120, Note_on_c, 8, 57, 96
11, 231200, Note_on_c, 8, 57, 0
11, 231360, Note_on_c, 8, 62, 96
11, 231434, Note_on_c, 8, 62, 0
11, 233040, Note_on_c, 8, 59, 96
11, 233130, Note_on_c, 8, 59, 0
11, 233280, Note_on_c, 8, 64, 96
11, 233360, Note_on_c, 8, 64, 0
11, 234960, Note_on_c, 8, 60, 96
11, 235040, Note_on_c, 8, 60, 0
11, 235200, Note_on_c, 8, 60, 96
11, 235282, Note_on_c, 8, 60, 0
11, 235920, Note_on_c, 8, 69, 96
11, 235994, Note_on_c, 8, 69, 0
11, 236160, Note_on_c, 8, 67, 96
11, 236240, Note_on_c, 8, 67, 0
11, 236880, Note_on_c, 8, 64, 96
11, 236962, Note_on_c, 8, 64, 0
11, 237120, Note_on_c, 8, 69, 96
11, 237202, Note_on_c, 8, 69, 0
11, 237360, Note_on_c, 8, 68, 96
11, 237454, Note_on_c, 8, 68, 0
11, 237600, Note_on_c, 8, 69, 96
11, 237680, Note_on_c, 8, 69, 0
11, 237840, Note_on_c, 8, 71, 96
11, 237922, Note_on_c, 8, 71, 0
11, 238080, Note_on_c, 8, 72, 96
11, 238162, Note_on_c, 8, 72, 0
11, 238320, Note_on_c, 8, 71, 96
11, 238406, Note_on_c, 8, 71, 0
11, 238560, Note_on_c, 8, 72, 96
11, 238650, Note_on_c, 8, 72, 0
11, 238800, Note_on_c, 8, 74, 96
11, 238886, Note_on_c, 8, 74, 0
11, 239040, Note_on_c, 8, 76, 96
11, 239116, Note_on_c, 8, 76, 0
11, 239280, Note_on_c, 8, 59, 96
11, 239372, Note_on_c, 8, 59, 0
11, 239520, Note_on_c, 8, 60, 96
11, 239600, Note_on_c, 8, 60, 0
11, 239760, Note_on_c, 8, 62, 96
11, 239836, Note_on_c, 8, 62, 0
11, 240000, Note_on_c, 8, 64, 96
11, 240082, Note_on_c, 8, 64, 0
11, 240240, Note_on_c, 8, 62, 96
11, 240314, Note_on_c, 8, 62, 0
11, 240480, Note_on_c, 8, 64, 96
11, 240560, Note_on_c, 8, 64, 0
11, 240720, Note_on_c, 8, 65, 96
11, 240806, Note_on_c, 8, 65, 0
11, 240960, Note_on_c, 8, 67, 96
11, 241036, Note_on_c, 8, 67, 0
11, 241200, Note_on_c, 8, 59, 96
11, 241440, Note_on_c, 8, 60, 96
11, 241514, Note_on_c, 8, 59, 0
11, 241680, Note_on_c, 8, 64, 96
11, 241750, Note_on_c, 8, 60, 0
11, 241920, Note_on_c, 8, 67, 96
11, 241954, Note_on_c, 8, 64, 0
11, 242632, Note_on_c, 8, 67, 0
11, 242640, Note_on_c, 8, 68, 96
11, 242742, Note_on_c, 8, 68, 0
11, 242880, Note_on_c, 8, 69, 96
11, 243120, Note_on_c, 8, 68, 96
11, 243170, Note_on_c, 8, 69, 0
11, 243360, Note_on_c, 8, 69, 96
11, 243422, Note_on_c, 8, 68, 0
11, 243600, Note_on_c, 8, 72, 96
11, 243670, Note_on_c, 8, 69, 0
11, 243840, Note_on_c, 8, 76, 96
11, 243870, Note_on_c, 8, 72, 0
11, 244394, Note_on_c, 8, 76, 0
11, 244560, Note_on_c, 8, 64, 96
11, 244660, Note_on_c, 8, 64, 0
11, 244800, Note_on_c, 8, 65, 96
11, 245400, Note_on_c, 8, 62, 96
11, 245466, Note_on_c, 8, 65, 0
11, 245520, Note_on_c, 8, 64, 96
11, 245600, Note_on_c, 8, 62, 0
11, 245640, Note_on_c, 8, 65, 96
11, 245720, Note_on_c, 8, 64, 0
11, 245760, Note_on_c, 8, 67, 96
11, 245814, Note_on_c, 8, 65, 0
11, 245880, Note_on_c, 8, 66, 96
11, 245924, Note_on_c, 8, 67, 0
11, 246000, Note_on_c, 8, 67, 96
11, 246072, Note_on_c, 8, 66, 0
11, 246120, Note_on_c, 8, 66, 96
11, 246164, Note_on_c, 8, 67, 0
11, 246240, Note_on_c, 8, 67, 96
11, 246294, Note_on_c, 8, 66, 0
11, 246316, Note_on_c, 8, 67, 0
11, 246480, Note_on_c, 8, 55, 96
11, 246560, Note_on_c, 8, 55, 0
11, 246720, Note_on_c, 8, 60, 96
11, 246840, Note_on_c, 8, 62, 96
11, 246890, Note_on_c, 8, 60, 0
11, 246960, Note_on_c, 8, 60, 96
11, 247022, Note_on_c, 8, 62, 0
11, 247080, Note_on_c, 8, 59, 96
11, 247124, Note_on_c, 8, 60, 0
11, 247200, Note_on_c, 8, 60, 96
11, 247240, Note_on_c, 8, 59, 0
11, 247320, Note_on_c, 8, 62, 96
11, 247356, Note_on_c, 8, 60, 0
11, 247440, Note_on_c, 8, 64, 96
11, 247490, Note_on_c, 8, 62, 0
11, 247560, Note_on_c, 8, 65, 96
11, 247622, Note_on_c, 8, 64, 0
11, 247680, Note_on_c, 8, 67, 96
11, 247724, Note_on_c, 8, 65, 0
11, 248284, Note_on_c, 8, 67, 0
11, 248400, Note_on_c, 8, 68, 96
11, 248480, Note_on_c, 8, 68, 0
11, 248640, Note_on_c, 8, 69, 96
11, 248760, Note_on_c, 8, 71, 96
11, 248814, Note_on_c, 8, 69, 0
11, 248880, Note_on_c, 8, 69, 96
11, 248934, Note_on_c, 8, 71, 0
11, 249000, Note_on_c, 8, 68, 96
11, 249042, Note_on_c, 8, 69, 0
11, 249120, Note_on_c, 8, 69, 96
11, 249176, Note_on_c, 8, 68, 0
11, 249240, Note_on_c, 8, 71, 96
11, 249280, Note_on_c, 8, 69, 0
11, 249360, Note_on_c, 8, 72, 96
11, 249434, Note_on_c, 8, 71, 0
11, 249480, Note_on_c, 8, 74, 96
11, 249530, Note_on_c, 8, 72, 0
11, 249600, Note_on_c, 8, 76, 96
11, 249670, Note_on_c, 8, 74, 0
11, 250060, Note_on_c, 8, 76, 0
11, 250320, Note_on_c, 8, 64, 96
11, 250402, Note_on_c, 8, 64, 0
11, 250560, Note_on_c, 8, 65, 96
11, 250680, Note_on_c, 8, 64, 96
11, 250726, Note_on_c, 8, 65, 0
11, 250800, Note_on_c, 8, 65, 96
11, 250862, Note_on_c, 8, 64, 0
11, 250920, Note_on_c, 8, 64, 96
11, 250966, Note_on_c, 8, 65, 0
11, 251040, Note_on_c, 8, 65, 96
11, 251104, Note_on_c, 8, 64, 0
11, 251160, Note_on_c, 8, 62, 96
11, 251212, Note_on_c, 8, 65, 0
11, 251280, Note_on_c, 8, 64, 96
11, 251342, Note_on_c, 8, 62, 0
11, 251400, Note_on_c, 8, 65, 96
11, 251486, Note_on_c, 8, 64, 0
11, 251520, Note_on_c, 8, 67, 96
11, 251576, Note_on_c, 8, 65, 0
11, 251640, Note_on_c, 8, 66, 96
11, 251702, Note_on_c, 8, 67, 0
11, 251760, Note_on_c, 8, 67, 96
11, 251824, Note_on_c, 8, 66, 0
11, 251880, Note_on_c, 8, 66, 96
11, 251924, Note_on_c, 8, 67, 0
11, 252000, Note_on_c, 8, 67, 96
11, 252054, Note_on_c, 8, 66, 0
11, 252142, Note_on_c, 8, 67, 0
11, 252240, Note_on_c, 8, 55, 96
11, 252320, Note_on_c, 8, 55, 0
11, 252480, Note_on_c, 8, 60, 96
11, 252552, Note_on_c, 8, 60, 0
11, 252720, Note_on_c, 8, 52, 67
11, 253200, Note_on_c, 8, 52, 67
11, 253514, Note_on_c, 8, 52, 0
11, 253680, Note_on_c, 8, 52, 67
11, 253760, Note_on_c, 8, 52, 0
11, 253920, Note_on_c, 8, 52, 67
11, 253994, Note_on_c, 8, 52, 0
11, 254160, Note_on_c, 8, 52, 67
11, 254240, Note_on_c, 8, 52, 0
11, 254400, Note_on_c, 8, 53, 67
11, 254472, Note_on_c, 8, 53, 0
11, 254640, Note_on_c, 8, 56, 96
11, 255000, Note_on_c, 8, 56, 0
11, 255120, Note_on_c, 8, 56, 96
11, 255200, Note_on_c, 8, 56, 0
11, 255360, Note_on_c, 8, 55, 96
11, 255432, Note_on_c, 8, 55, 0
11, 255600, Note_on_c, 8, 53, 96
11, 255670, Note_on_c, 8, 53, 0
11, 255840, Note_on_c, 8, 52, 96
11, 255912, Note_on_c, 8, 52, 0
11, 256080, Note_on_c, 8, 50, 96
11, 256152, Note_on_c, 8, 50, 0
11, 256320, Note_on_c, 8, 48, 96
11, 256386, Note_on_c, 8, 48, 0
11, 256560, Note_on_c, 8, 52, 67
11, 256844, Note_on_c, 8, 52, 0
11, 257040, Note_on_c, 8, 52, 67
11, 257412, Note_on_c, 8, 52, 0
11, 257520, Note_on_c, 8, 52, 67
11, 257594, Note_on_c, 8, 52, 0
11, 257760, Note_on_c, 8, 52, 67
11, 257830, Note_on_c, 8, 52, 0
11, 258000, Note_on_c, 8, 52, 67
11, 258066, Note_on_c, 8, 52, 0
11, 258240, Note_on_c, 8, 53, 67
11, 258312, Note_on_c, 8, 53, 0
11, 258480, Note_on_c, 8, 56, 96
11, 258830, Note_on_c, 8, 56, 0
11, 258960, Note_on_c, 8, 56, 96
11, 259036, Note_on_c, 8, 56, 0
11, 259200, Note_on_c, 8, 55, 96
11, 259272, Note_on_c, 8, 55, 0
11, 259440, Note_on_c, 8, 53, 96
11, 259506, Note_on_c, 8, 53, 0
11, 259680, Note_on_c, 8, 52, 96
11, 259760, Note_on_c, 8, 52, 0
11, 259920, Note_on_c, 8, 50, 96
11, 259994, Note_on_c, 8, 50, 0
11, 260160, Note_on_c, 8, 49, 96
11, 260226, Note_on_c, 8, 49, 0
11, 260400, Note_on_c, 8, 58, 96
11, 260722, Note_on_c, 8, 58, 0
11, 260880, Note_on_c, 8, 58, 96
11, 260952, Note_on_c, 8, 58, 0
11, 261120, Note_on_c, 8, 57, 96
11, 261196, Note_on_c, 8, 57, 0
11, 261360, Note_on_c, 8, 55, 96
11, 261434, Note_on_c, 8, 55, 0
11, 261600, Note_on_c, 8, 53, 96
11, 261674, Note_on_c, 8, 53, 0
11, 261840, Note_on_c, 8, 53, 96
11, 261840, Note_on_c, 8, 52, 96
11, 261890, Note_on_c, 8, 53, 0
11, 261914, Note_on_c, 8, 52, 0
11, 262080, Note_on_c, 8, 51, 96
11, 262156, Note_on_c, 8, 51, 0
11, 262320, Note_on_c, 8, 60, 96
11, 262680, Note_on_c, 8, 60, 0
11, 262800, Note_on_c, 8, 60, 96
11, 262886, Note_on_c, 8, 60, 0
11, 263040, Note_on_c, 8, 52, 96
11, 263122, Note_on_c, 8, 52, 0
11, 263280, Note_on_c, 8, 61, 96
11, 263620, Note_on_c, 8, 61, 0
11, 263760, Note_on_c, 8, 61, 96
11, 263846, Note_on_c, 8, 61, 0
11, 264000, Note_on_c, 8, 53, 96
11, 264084, Note_on_c, 8, 53, 0
11, 264240, Note_on_c, 8, 62, 96
11, 264594, Note_on_c, 8, 62, 0
11, 264720, Note_on_c, 8, 62, 96
11, 264796, Note_on_c, 8, 62, 0
11, 264960, Note_on_c, 8, 54, 96
11, 265044, Note_on_c, 8, 54, 0
11, 265200, Note_on_c, 8, 63, 96
11, 265496, Note_on_c, 8, 63, 0
11, 265680, Note_on_c, 8, 63, 96
11, 265764, Note_on_c, 8, 63, 0
11, 265920, Note_on_c, 8, 66, 96
11, 267082, Note_on_c, 8, 66, 0
11, 267120, Note_on_c, 8, 66, 96
11, 267360, Note_on_c, 8, 68, 96
11, 267420, Note_on_c, 8, 66, 0
11, 267600, Note_on_c, 8, 66, 96
11, 267672, Note_on_c, 8, 68, 0
11, 267836, Note_on_c, 8, 66, 0
11, 267840, Note_on_c, 8, 65, 96
11, 268024, Note_on_c, 8, 65, 0
11, 268320, Note_on_c, 8, 66, 96
11, 268910, Note_on_c, 8, 66, 0
11, 269040, Note_on_c, 8, 66, 96
11, 269280, Note_on_c, 8, 68, 96
11, 269342, Note_on_c, 8, 66, 0
11, 269520, Note_on_c, 8, 66, 96
11, 269572, Note_on_c, 8, 68, 0
11, 269760, Note_on_c, 8, 65, 96
11, 269860, Note_on_c, 8, 66, 0
11, 269980, Note_on_c, 8, 65, 0
11, 270240, Note_on_c, 8, 66, 127
11, 270240, Note_on_c, 8, 69, 127
11, 270782, Note_on_c, 8, 66, 0
11, 270790, Note_on_c, 8, 69, 0
11, 270960, Note_on_c, 8, 69, 127
11, 270960, Note_on_c, 8, 66, 127
11, 271032, Note_on_c, 8, 66, 0
11, 271042, Note_on_c, 8, 69, 0
11, 271200, Note_on_c, 8, 66, 127
11, 271200, Note_on_c, 8, 69, 127
11, 271270, Note_on_c, 8, 69, 0
11, 271270, Note_on_c, 8, 66, 0
11, 271440, Note_on_c, 8, 69, 127
11, 271440, Note_on_c, 8, 66, 127
11, 271504, Note_on_c, 8, 69, 0
11, 271510, Note_on_c, 8, 66, 0
11, 271680, Note_on_c, 8, 55, 127
11, 271800, Note_on_c, 8, 67, 127
11, 271832, Note_on_c, 8, 55, 0
11, 271896, Note_on_c, 8, 67, 0
11, 271920, Note_on_c, 8, 67, 127
11, 272002, Note_on_c, 8, 67, 0
11, 272040, Note_on_c, 8, 67, 127
11, 272134, Note_on_c, 8, 67, 0
11, 272160, Note_on_c, 8, 67, 127
11, 272250, Note_on_c, 8, 67, 0
11, 272280, Note_on_c, 8, 67, 127
11, 272370, Note_on_c, 8, 67, 0
11, 272400, Note_on_c, 8, 67, 127
11, 272480, Note_on_c, 8, 67, 0
11, 272520, Note_on_c, 8, 67, 127
11, 272612, Note_on_c, 8, 67, 0
11, 272640, Note_on_c, 8, 56, 127
11, 272746, Note_on_c, 8, 56, 0
11, 272760, Note_on_c, 8, 68, 127
11, 272874, Note_on_c, 8, 68, 0
11, 272880, Note_on_c, 8, 68, 127
11, 272966, Note_on_c, 8, 68, 0
11, 273000, Note_on_c, 8, 68, 127
11, 273084, Note_on_c, 8, 68, 0
11, 273120, Note_on_c, 8, 68, 127
11, 273204, Note_on_c, 8, 68, 0
11, 273240, Note_on_c, 8, 68, 127
11, 273326, Note_on_c, 8, 68, 0
11, 273360, Note_on_c, 8, 68, 127
11, 273446, Note_on_c, 8, 68, 0
11, 273480, Note_on_c, 8, 68, 127
11, 273576, Note_on_c, 8, 68, 0
11, 273600, Note_on_c, 8, 57, 127
11, 273720, Note_on_c, 8, 69, 127
11, 273760, Note_on_c, 8, 57, 0
11, 273816, Note_on_c, 8, 69, 0
11, 273840, Note_on_c, 8, 69, 127
11, 273922, Note_on_c, 8, 69, 0
11, 273960, Note_on_c, 8, 69, 127
11, 274042, Note_on_c, 8, 69, 0
11, 274080, Note_on_c, 8, 69, 127
11, 274160, Note_on_c, 8, 69, 0
11, 274200, Note_on_c, 8, 69, 127
11, 274286, Note_on_c, 8, 69, 0
11, 274320, Note_on_c, 8, 69, 127
11, 274404, Note_on_c, 8, 69, 0
11, 274440, Note_on_c, 8, 69, 127
11, 274534, Note_on_c, 8, 69, 0
11, 274560, Note_on_c, 8, 67, 127
11, 274650, Note_on_c, 8, 67, 0
11, 274680, Note_on_c, 8, 67, 127
11, 274766, Note_on_c, 8, 67, 0
11, 274800, Note_on_c, 8, 67, 127
11, 274880, Note_on_c, 8, 67, 0
11, 274920, Note_on_c, 8, 67, 127
11, 275002, Note_on_c, 8, 67, 0
11, 275040, Note_on_c, 8, 62, 127
11, 275120, Note_on_c, 8, 62, 0
11, 275160, Note_on_c, 8, 62, 127
11, 275236, Note_on_c, 8, 62, 0
11, 275280, Note_on_c, 8, 62, 127
11, 275360, Note_on_c, 8, 62, 0
11, 275400, Note_on_c, 8, 62, 127
11, 275484, Note_on_c, 8, 62, 0
11, 275520, Note_on_c, 8, 60, 96
11, 276222, Note_on_c, 8, 60, 0
11, 276480, Note_on_c, 8, 57, 96
11, 277372, Note_on_c, 8, 57, 0
11, 277440, Note_on_c, 8, 62, 96
11, 278324, Note_on_c, 8, 62, 0
11, 278400, Note_on_c, 8, 55, 96
11, 279310, Note_on_c, 8, 55, 0
11, 279360, Note_on_c, 8, 60, 96
11, 280232, Note_on_c, 8, 60, 0
11, 280320, Note_on_c, 8, 57, 96
11, 281252, Note_on_c, 8, 57, 0
11, 281280, Note_on_c, 8, 62, 96
11, 282182, Note_on_c, 8, 62, 0
11, 282240, Note_on_c, 8, 55, 96
11, 283140, Note_on_c, 8, 55, 0
11, 283200, Note_on_c, 8, 60, 96
11, 283630, Note_on_c, 8, 60, 0
11, 283680, Note_on_c, 8, 57, 96
11, 283994, Note_on_c, 8, 57, 0
11, 284160, Note_on_c, 8, 62, 96
11, 284566, Note_on_c, 8, 62, 0
11, 284640, Note_on_c, 8, 55, 96
11, 284986, Note_on_c, 8, 55, 0
11, 285120, Note_on_c, 8, 60, 96
11, 285220, Note_on_c, 8, 60, 0
11, 285240, Note_on_c, 8, 60, 100
11, 285340, Note_on_c, 8, 60, 0
11, 285360, Note_on_c, 8, 60, 96
11, 285446, Note_on_c, 8, 60, 0
11, 285480, Note_on_c, 8, 60, 96
11, 285572, Note_on_c, 8, 60, 0
11, 285600, Note_on_c, 8, 57, 96
11, 285704, Note_on_c, 8, 57, 0
11, 285720, Note_on_c, 8, 57, 96
11, 285816, Note_on_c, 8, 57, 0
11, 285840, Note_on_c, 8, 57, 96
11, 285930, Note_on_c, 8, 57, 0
11, 285960, Note_on_c, 8, 57, 96
11, 286056, Note_on_c, 8, 57, 0
11, 286080, Note_on_c, 8, 62, 96
11, 286176, Note_on_c, 8, 62, 0
11, 286200, Note_on_c, 8, 62, 96
11, 286290, Note_on_c, 8, 62, 0
11, 286320, Note_on_c, 8, 62, 96
11, 286404, Note_on_c, 8, 62, 0
11, 286440, Note_on_c, 8, 62, 96
11, 286524, Note_on_c, 8, 62, 0
11, 286560, Note_on_c, 8, 55, 96
11, 286654, Note_on_c, 8, 55, 0
11, 286680, Note_on_c, 8, 55, 96
11, 286764, Note_on_c, 8, 55, 0
11, 286800, Note_on_c, 8, 55, 96
11, 286886, Note_on_c, 8, 55, 0
11, 286920, Note_on_c, 8, 55, 96
11, 287012, Note_on_c, 8, 55, 0
11, 287040, Note_on_c, 8, 60, 96
11, 288212, Note_on_c, 8, 60, 0
11, 288240, Note_on_c, 8, 72, 96
11, 288330, Note_on_c, 8, 72, 0
11, 288480, Note_on_c, 8, 71, 96
11, 288566, Note_on_c, 8, 71, 0
11, 288720, Note_on_c, 8, 69, 96
11, 288810, Note_on_c, 8, 69, 0
11, 288960, Note_on_c, 8, 67, 96
11, 290052, Note_on_c, 8, 67, 0
11, 290160, Note_on_c, 8, 69, 96
11, 290244, Note_on_c, 8, 69, 0
11, 290400, Note_on_c, 8, 67, 96
11, 290490, Note_on_c, 8, 67, 0
11, 290640, Note_on_c, 8, 65, 96
11, 290730, Note_on_c, 8, 65, 0
11, 290880, Note_on_c, 8, 64, 96
11, 292026, Note_on_c, 8, 64, 0
11, 292080, Note_on_c, 8, 65, 96
11, 292162, Note_on_c, 8, 65, 0
11, 292320, Note_on_c, 8, 64, 96
11, 292400, Note_on_c, 8, 64, 0
11, 292560, Note_on_c, 8, 62, 96
11, 292634, Note_on_c, 8, 62, 0
11, 292800, Note_on_c, 8, 60, 96
11, 292886, Note_on_c, 8, 60, 0
11, 293040, Note_on_c, 8, 65, 96
11, 293120, Note_on_c, 8, 65, 0
11, 293280, Note_on_c, 8, 64, 96
11, 293356, Note_on_c, 8, 64, 0
11, 293520, Note_on_c, 8, 62, 96
11, 293602, Note_on_c, 8, 62, 0
11, 293760, Note_on_c, 8, 60, 96
11, 293844, Note_on_c, 8, 60, 0
11, 294000, Note_on_c, 8, 65, 96
11, 294084, Note_on_c, 8, 65, 0
11, 294240, Note_on_c, 8, 64, 96
11, 294316, Note_on_c, 8, 64, 0
11, 294480, Note_on_c, 8, 62, 96
11, 294564, Note_on_c, 8, 62, 0
11, 294720, Note_on_c, 8, 60, 96
11, 294814, Note_on_c, 8, 60, 0
11, 294960, Note_on_c, 8, 65, 96
11, 295040, Note_on_c, 8, 65, 0
11, 295200, Note_on_c, 8, 64, 96
11, 295280, Note_on_c, 8, 64, 0
11, 295440, Note_on_c, 8, 62, 96
11, 295530, Note_on_c, 8, 62, 0
11, 295680, Note_on_c, 8, 60, 96
11, 295776, Note_on_c, 8, 60, 0
11, 295920, Note_on_c, 8, 65, 96
11, 296010, Note_on_c, 8, 65, 0
11, 296160, Note_on_c, 8, 64, 96
11, 296246, Note_on_c, 8, 64, 0
11, 296400, Note_on_c, 8, 62, 96
11, 296492, Note_on_c, 8, 62, 0
11, 296640, Note_on_c, 8, 60, 96
11, 296832, Note_on_c, 8, 60, 0
11, 297600, Note_on_c, 8, 60, 96
11, 297792, Note_on_c, 8, 60, 0
11, 298560, Note_on_c, 8, 60, 96
11, 298752, Note_on_c, 8, 60, 0
11, 299520, Note_on_c, 8, 60, 96
11, 299712, Note_on_c, 8, 60, 0
11, 300480, Note_on_c, 8, 64, 96
11, 300480, Note_on_c, 8, 72, 96
11, 300672, Note_on_c, 8, 72, 0
11, 300672, Note_on_c, 8, 64, 0
11, 301440, Note_on_c, 8, 48, 96
11, 301440, Note_on_c, 8, 60, 96
11, 301632, Note_on_c, 8, 60, 0
11, 301632, Note_on_c, 8, 48, 0
11, 302400, Note_on_c, 8, 48, 96
11, 302568, Note_on_c, 8, 48, 0
11, 303360, Note_on_c, 8, 48, 127
11, 303480, Note_on_c, 8, 48, 0
11, 303840, Note_on_c, 8, 48, 127
11, 303960, Note_on_c, 8, 48, 0
11, 304320, Note_on_c, 8, 60, 127
11, 304440, Note_on_c, 8, 60, 0
11, 304440, Note_on_c, 8, 52, 0
11, 304440, End_track
12, 0, Start_track
12, 0, Title_t, "Celli"
12, 0, Program_c, 10, 48
12, 0, Control_c, 10, 7, 127
12, 0, Control_c, 10, 10, 95
12, 0, Control_c, 10, 10, 80
12, 960, Note_on_c, 10, 46, 127
12, 1160, Note_on_c, 10, 46, 0
12, 3840, Note_on_c, 10, 45, 127
12, 4050, Note_on_c, 10, 45, 0
12, 6720, Note_on_c, 10, 44, 127
12, 6990, Note_on_c, 10, 44, 0
12, 7680, Note_on_c, 10, 56, 127
12, 7834, Note_on_c, 10, 56, 0
12, 8640, Note_on_c, 10, 56, 127
12, 8780, Note_on_c, 10, 56, 0
12, 9600, Note_on_c, 10, 55, 127
12, 9778, Note_on_c, 10, 55, 0
12, 10440, Note_on_c, 10, 43, 127
12, 10536, Note_on_c, 10, 43, 0
12, 10560, Note_on_c, 10, 43, 127
12, 12840, Note_on_c, 10, 43, 0
12, 14400, Note_on_c, 10, 48, 96
12, 14416, Control_c, 10, 7, 60
12, 16320, Note_on_c, 10, 43, 96
12, 16332, Note_on_c, 10, 48, 0
12, 17280, Note_on_c, 10, 48, 96
12, 17360, Note_on_c, 10, 43, 0
12, 18992, Note_on_c, 10, 48, 0
12, 19200, Note_on_c, 10, 48, 96
12, 20160, Note_on_c, 10, 47, 96
12, 20172, Note_on_c, 10, 48, 0
12, 20896, Note_on_c, 10, 47, 0
12, 21120, Note_on_c, 10, 43, 96
12, 22080, Note_on_c, 10, 48, 96
12, 22118, Note_on_c, 10, 43, 0
12, 23040, Note_on_c, 10, 43, 96
12, 23050, Note_on_c, 10, 48, 0
12, 24164, Note_on_c, 10, 43, 0
12, 24480, Note_on_c, 10, 43, 96
12, 24714, Note_on_c, 10, 43, 0
12, 24960, Note_on_c, 10, 43, 96
12, 25178, Note_on_c, 10, 43, 0
12, 25440, Note_on_c, 10, 43, 96
12, 25702, Note_on_c, 10, 43, 0
12, 25920, Note_on_c, 10, 48, 96
12, 26880, Note_on_c, 10, 52, 96
12, 26962, Note_on_c, 10, 48, 0
12, 27840, Note_on_c, 10, 55, 96
12, 27872, Note_on_c, 10, 52, 0
12, 28766, Note_on_c, 10, 55, 0
12, 28800, Note_on_c, 10, 48, 96
12, 29760, Note_on_c, 10, 52, 96
12, 29776, Note_on_c, 10, 48, 0
12, 30720, Note_on_c, 10, 55, 96
12, 30816, Note_on_c, 10, 52, 0
12, 31596, Note_on_c, 10, 55, 0
12, 31680, Note_on_c, 10, 48, 96
12, 32356, Note_on_c, 10, 48, 0
12, 32640, Note_on_c, 10, 41, 96
12, 33408, Note_on_c, 10, 41, 0
12, 33600, Note_on_c, 10, 41, 96
12, 34266, Note_on_c, 10, 41, 0
12, 34560, Note_on_c, 10, 43, 96
12, 35646, Note_on_c, 10, 43, 0
12, 37440, Note_on_c, 10, 48, 96
12, 38880, Note_on_c, 10, 52, 96
12, 38954, Note_on_c, 10, 48, 0
12, 39360, Note_on_c, 10, 55, 96
12, 39434, Note_on_c, 10, 52, 0
12, 39840, Note_on_c, 10, 43, 96
12, 39904, Note_on_c, 10, 55, 0
12, 40320, Note_on_c, 10, 48, 96
12, 40356, Note_on_c, 10, 43, 0
12, 41760, Note_on_c, 10, 52, 96
12, 41772, Note_on_c, 10, 48, 0
12, 42240, Note_on_c, 10, 55, 96
12, 42264, Note_on_c, 10, 52, 0
12, 42720, Note_on_c, 10, 55, 0
12, 42720, Note_on_c, 10, 43, 96
12, 43196, Note_on_c, 10, 43, 0
12, 43200, Note_on_c, 10, 45, 96
12, 43664, Note_on_c, 10, 45, 0
12, 44160, Note_on_c, 10, 54, 125
12, 46080, Note_on_c, 10, 54, 0
12, 46080, Note_on_c, 10, 55, 67
12, 46380, Note_on_c, 10, 55, 0
12, 47040, Note_on_c, 10, 43, 67
12, 47398, Note_on_c, 10, 43, 0
12, 48000, Note_on_c, 10, 43, 67
12, 48340, Note_on_c, 10, 43, 0
12, 48960, Note_on_c, 10, 48, 79
12, 48960, Control_c, 10, 7, 100
12, 49062, Note_on_c, 10, 48, 0
12, 49920, Note_on_c, 10, 48, 79
12, 50030, Note_on_c, 10, 48, 0
12, 50880, Note_on_c, 10, 48, 79
12, 50974, Note_on_c, 10, 48, 0
12, 51360, Note_on_c, 10, 48, 79
12, 51460, Note_on_c, 10, 48, 0
12, 51840, Note_on_c, 10, 48, 79
12, 51934, Note_on_c, 10, 48, 0
12, 52800, Note_on_c, 10, 48, 79
12, 52896, Note_on_c, 10, 48, 0
12, 53760, Note_on_c, 10, 48, 79
12, 53854, Note_on_c, 10, 48, 0
12, 54720, Note_on_c, 10, 47, 79
12, 54806, Note_on_c, 10, 47, 0
12, 55200, Note_on_c, 10, 47, 79
12, 55284, Note_on_c, 10, 47, 0
12, 55680, Note_on_c, 10, 47, 79
12, 55766, Note_on_c, 10, 47, 0
12, 56640, Note_on_c, 10, 48, 79
12, 56716, Note_on_c, 10, 48, 0
12, 56880, Note_on_c, 10, 60, 79
12, 57360, Note_on_c, 10, 59, 79
12, 57392, Note_on_c, 10, 60, 0
12, 57444, Note_on_c, 10, 59, 0
12, 57600, Note_on_c, 10, 60, 79
12, 57682, Note_on_c, 10, 60, 0
12, 57840, Note_on_c, 10, 60, 79
12, 58244, Note_on_c, 10, 60, 0
12, 58320, Note_on_c, 10, 59, 79
12, 58390, Note_on_c, 10, 59, 0
12, 58560, Note_on_c, 10, 60, 79
12, 58632, Note_on_c, 10, 60, 0
12, 58800, Note_on_c, 10, 59, 79
12, 58870, Note_on_c, 10, 59, 0
12, 59040, Note_on_c, 10, 57, 79
12, 59126, Note_on_c, 10, 57, 0
12, 59280, Note_on_c, 10, 62, 79
12, 59346, Note_on_c, 10, 62, 0
12, 59520, Note_on_c, 10, 55, 79
12, 59594, Note_on_c, 10, 55, 0
12, 60480, Note_on_c, 10, 48, 96
12, 60572, Note_on_c, 10, 48, 0
12, 60600, Note_on_c, 10, 48, 96
12, 60696, Note_on_c, 10, 48, 0
12, 60720, Note_on_c, 10, 48, 96
12, 60812, Note_on_c, 10, 48, 0
12, 60840, Note_on_c, 10, 48, 96
12, 60932, Note_on_c, 10, 48, 0
12, 60960, Note_on_c, 10, 48, 96
12, 61052, Note_on_c, 10, 48, 0
12, 61080, Note_on_c, 10, 48, 96
12, 61166, Note_on_c, 10, 48, 0
12, 61200, Note_on_c, 10, 48, 96
12, 61290, Note_on_c, 10, 48, 0
12, 61320, Note_on_c, 10, 48, 96
12, 61412, Note_on_c, 10, 48, 0
12, 61440, Note_on_c, 10, 48, 96
12, 61534, Note_on_c, 10, 48, 0
12, 61560, Note_on_c, 10, 48, 96
12, 61652, Note_on_c, 10, 48, 0
12, 61680, Note_on_c, 10, 48, 96
12, 61766, Note_on_c, 10, 48, 0
12, 61800, Note_on_c, 10, 48, 96
12, 61884, Note_on_c, 10, 48, 0
12, 61920, Note_on_c, 10, 48, 96
12, 62010, Note_on_c, 10, 48, 0
12, 62040, Note_on_c, 10, 48, 96
12, 62126, Note_on_c, 10, 48, 0
12, 62160, Note_on_c, 10, 48, 96
12, 62244, Note_on_c, 10, 48, 0
12, 62280, Note_on_c, 10, 48, 96
12, 62364, Note_on_c, 10, 48, 0
12, 62400, Note_on_c, 10, 48, 96
12, 62482, Note_on_c, 10, 48, 0
12, 62520, Note_on_c, 10, 48, 96
12, 62606, Note_on_c, 10, 48, 0
12, 62640, Note_on_c, 10, 48, 96
12, 62726, Note_on_c, 10, 48, 0
12, 62760, Note_on_c, 10, 48, 96
12, 62842, Note_on_c, 10, 48, 0
12, 62880, Note_on_c, 10, 48, 96
12, 62960, Note_on_c, 10, 48, 0
12, 63000, Note_on_c, 10, 48, 96
12, 63084, Note_on_c, 10, 48, 0
12, 63120, Note_on_c, 10, 48, 96
12, 63210, Note_on_c, 10, 48, 0
12, 63240, Note_on_c, 10, 48, 96
12, 63330, Note_on_c, 10, 48, 0
12, 63360, Note_on_c, 10, 48, 96
12, 63450, Note_on_c, 10, 48, 0
12, 63480, Note_on_c, 10, 48, 96
12, 63562, Note_on_c, 10, 48, 0
12, 63600, Note_on_c, 10, 48, 96
12, 63684, Note_on_c, 10, 48, 0
12, 63720, Note_on_c, 10, 48, 96
12, 63800, Note_on_c, 10, 48, 0
12, 63840, Note_on_c, 10, 48, 96
12, 63924, Note_on_c, 10, 48, 0
12, 63960, Note_on_c, 10, 48, 96
12, 64044, Note_on_c, 10, 48, 0
12, 64080, Note_on_c, 10, 48, 96
12, 64170, Note_on_c, 10, 48, 0
12, 64200, Note_on_c, 10, 48, 96
12, 64284, Note_on_c, 10, 48, 0
12, 64320, Note_on_c, 10, 48, 96
12, 64404, Note_on_c, 10, 48, 0
12, 64440, Note_on_c, 10, 48, 96
12, 64524, Note_on_c, 10, 48, 0
12, 64560, Note_on_c, 10, 48, 96
12, 64640, Note_on_c, 10, 48, 0
12, 64680, Note_on_c, 10, 48, 96
12, 64766, Note_on_c, 10, 48, 0
12, 64800, Note_on_c, 10, 48, 96
12, 64880, Note_on_c, 10, 48, 0
12, 64920, Note_on_c, 10, 48, 96
12, 64994, Note_on_c, 10, 48, 0
12, 65040, Note_on_c, 10, 48, 96
12, 65116, Note_on_c, 10, 48, 0
12, 65160, Note_on_c, 10, 48, 96
12, 65244, Note_on_c, 10, 48, 0
12, 65280, Note_on_c, 10, 48, 96
12, 65364, Note_on_c, 10, 48, 0
12, 65400, Note_on_c, 10, 48, 96
12, 65480, Note_on_c, 10, 48, 0
12, 65520, Note_on_c, 10, 48, 96
12, 65604, Note_on_c, 10, 48, 0
12, 65640, Note_on_c, 10, 48, 96
12, 65722, Note_on_c, 10, 48, 0
12, 65760, Note_on_c, 10, 48, 96
12, 65844, Note_on_c, 10, 48, 0
12, 65880, Note_on_c, 10, 48, 96
12, 65964, Note_on_c, 10, 48, 0
12, 66000, Note_on_c, 10, 48, 96
12, 66084, Note_on_c, 10, 48, 0
12, 66120, Note_on_c, 10, 48, 96
12, 66206, Note_on_c, 10, 48, 0
12, 66240, Note_on_c, 10, 47, 96
12, 66332, Note_on_c, 10, 47, 0
12, 66360, Note_on_c, 10, 47, 96
12, 66444, Note_on_c, 10, 47, 0
12, 66480, Note_on_c, 10, 47, 96
12, 66560, Note_on_c, 10, 47, 0
12, 66600, Note_on_c, 10, 47, 96
12, 66674, Note_on_c, 10, 47, 0
12, 66720, Note_on_c, 10, 47, 96
12, 66792, Note_on_c, 10, 47, 0
12, 66840, Note_on_c, 10, 47, 96
12, 66922, Note_on_c, 10, 47, 0
12, 66960, Note_on_c, 10, 47, 96
12, 67044, Note_on_c, 10, 47, 0
12, 67080, Note_on_c, 10, 47, 96
12, 67162, Note_on_c, 10, 47, 0
12, 67200, Note_on_c, 10, 47, 96
12, 67280, Note_on_c, 10, 47, 0
12, 67320, Note_on_c, 10, 47, 96
12, 67404, Note_on_c, 10, 47, 0
12, 67440, Note_on_c, 10, 47, 96
12, 67522, Note_on_c, 10, 47, 0
12, 67560, Note_on_c, 10, 47, 96
12, 67640, Note_on_c, 10, 47, 0
12, 67680, Note_on_c, 10, 47, 96
12, 67760, Note_on_c, 10, 47, 0
12, 67800, Note_on_c, 10, 47, 96
12, 67876, Note_on_c, 10, 47, 0
12, 67920, Note_on_c, 10, 47, 96
12, 67994, Note_on_c, 10, 47, 0
12, 68040, Note_on_c, 10, 47, 96
12, 68122, Note_on_c, 10, 47, 0
12, 68160, Note_on_c, 10, 48, 96
12, 68232, Note_on_c, 10, 48, 0
12, 68400, Note_on_c, 10, 60, 96
12, 68790, Note_on_c, 10, 60, 0
12, 68880, Note_on_c, 10, 59, 96
12, 68952, Note_on_c, 10, 59, 0
12, 69120, Note_on_c, 10, 60, 96
12, 69192, Note_on_c, 10, 60, 0
12, 69360, Note_on_c, 10, 57, 96
12, 69756, Note_on_c, 10, 57, 0
12, 69840, Note_on_c, 10, 56, 96
12, 69924, Note_on_c, 10, 56, 0
12, 70080, Note_on_c, 10, 57, 96
12, 70152, Note_on_c, 10, 57, 0
12, 70320, Note_on_c, 10, 53, 96
12, 70686, Note_on_c, 10, 53, 0
12, 70800, Note_on_c, 10, 52, 96
12, 70882, Note_on_c, 10, 52, 0
12, 71040, Note_on_c, 10, 53, 96
12, 71120, Note_on_c, 10, 53, 0
12, 71280, Note_on_c, 10, 50, 96
12, 71370, Note_on_c, 10, 50, 0
12, 71520, Note_on_c, 10, 53, 96
12, 71596, Note_on_c, 10, 53, 0
12, 71760, Note_on_c, 10, 54, 96
12, 71832, Note_on_c, 10, 54, 0
12, 72000, Note_on_c, 10, 43, 80
12, 72120, Note_on_c, 10, 55, 81
12, 72132, Note_on_c, 10, 43, 0
12, 72200, Note_on_c, 10, 55, 0
12, 72240, Note_on_c, 10, 55, 83
12, 72322, Note_on_c, 10, 55, 0
12, 72360, Note_on_c, 10, 55, 84
12, 72440, Note_on_c, 10, 55, 0
12, 72480, Note_on_c, 10, 55, 85
12, 72552, Note_on_c, 10, 55, 0
12, 72600, Note_on_c, 10, 55, 86
12, 72682, Note_on_c, 10, 55, 0
12, 72720, Note_on_c, 10, 55, 88
12, 72802, Note_on_c, 10, 55, 0
12, 72840, Note_on_c, 10, 55, 89
12, 72922, Note_on_c, 10, 55, 0
12, 72960, Note_on_c, 10, 43, 90
12, 73066, Note_on_c, 10, 43, 0
12, 73080, Note_on_c, 10, 55, 91
12, 73162, Note_on_c, 10, 55, 0
12, 73200, Note_on_c, 10, 55, 93
12, 73282, Note_on_c, 10, 55, 0
12, 73320, Note_on_c, 10, 55, 94
12, 73400, Note_on_c, 10, 55, 0
12, 73440, Note_on_c, 10, 55, 95
12, 73516, Note_on_c, 10, 55, 0
12, 73560, Note_on_c, 10, 55, 96
12, 73632, Note_on_c, 10, 55, 0
12, 73680, Note_on_c, 10, 55, 98
12, 73766, Note_on_c, 10, 55, 0
12, 73800, Note_on_c, 10, 55, 99
12, 73884, Note_on_c, 10, 55, 0
12, 73920, Note_on_c, 10, 43, 100
12, 74034, Note_on_c, 10, 43, 0
12, 74040, Note_on_c, 10, 55, 101
12, 74124, Note_on_c, 10, 55, 0
12, 74160, Note_on_c, 10, 55, 103
12, 74244, Note_on_c, 10, 55, 0
12, 74280, Note_on_c, 10, 55, 104
12, 74360, Note_on_c, 10, 55, 0
12, 74400, Note_on_c, 10, 55, 105
12, 74482, Note_on_c, 10, 55, 0
12, 74520, Note_on_c, 10, 55, 106
12, 74600, Note_on_c, 10, 55, 0
12, 74640, Note_on_c, 10, 55, 108
12, 74716, Note_on_c, 10, 55, 0
12, 74760, Note_on_c, 10, 55, 109
12, 74840, Note_on_c, 10, 55, 0
12, 74880, Note_on_c, 10, 43, 110
12, 74990, Note_on_c, 10, 43, 0
12, 75000, Note_on_c, 10, 55, 111
12, 75082, Note_on_c, 10, 55, 0
12, 75120, Note_on_c, 10, 55, 113
12, 75202, Note_on_c, 10, 55, 0
12, 75240, Note_on_c, 10, 55, 114
12, 75322, Note_on_c, 10, 55, 0
12, 75360, Note_on_c, 10, 55, 115
12, 75442, Note_on_c, 10, 55, 0
12, 75480, Note_on_c, 10, 55, 116
12, 75562, Note_on_c, 10, 55, 0
12, 75600, Note_on_c, 10, 55, 118
12, 75676, Note_on_c, 10, 55, 0
12, 75720, Note_on_c, 10, 55, 119
12, 75796, Note_on_c, 10, 55, 0
12, 75840, Note_on_c, 10, 55, 127
12, 75924, Note_on_c, 10, 55, 0
12, 76080, Note_on_c, 10, 50, 127
12, 76172, Note_on_c, 10, 50, 0
12, 76320, Note_on_c, 10, 55, 127
12, 76404, Note_on_c, 10, 55, 0
12, 76560, Note_on_c, 10, 50, 127
12, 76654, Note_on_c, 10, 50, 0
12, 76800, Note_on_c, 10, 55, 127
12, 76880, Note_on_c, 10, 55, 0
12, 77040, Note_on_c, 10, 50, 127
12, 77134, Note_on_c, 10, 50, 0
12, 77280, Note_on_c, 10, 55, 127
12, 77370, Note_on_c, 10, 55, 0
12, 77520, Note_on_c, 10, 50, 127
12, 77616, Note_on_c, 10, 50, 0
12, 77760, Note_on_c, 10, 55, 127
12, 77856, Note_on_c, 10, 55, 0
12, 78240, Note_on_c, 10, 43, 127
12, 78354, Note_on_c, 10, 43, 0
12, 78720, Note_on_c, 10, 43, 127
12, 78842, Note_on_c, 10, 43, 0
12, 79680, Note_on_c, 10, 55, 67
12, 79776, Note_on_c, 10, 55, 0
12, 87360, Note_on_c, 10, 55, 58
12, 87460, Note_on_c, 10, 55, 0
12, 88560, Note_on_c, 10, 43, 72
12, 88644, Note_on_c, 10, 43, 0
12, 88800, Note_on_c, 10, 47, 72
12, 88886, Note_on_c, 10, 47, 0
12, 89040, Note_on_c, 10, 50, 72
12, 89122, Note_on_c, 10, 50, 0
12, 89280, Note_on_c, 10, 55, 72
12, 89354, Note_on_c, 10, 55, 0
12, 89760, Note_on_c, 10, 51, 72
12, 89836, Note_on_c, 10, 51, 0
12, 90240, Note_on_c, 10, 52, 72
12, 90324, Note_on_c, 10, 52, 0
12, 90720, Note_on_c, 10, 48, 72
12, 90820, Note_on_c, 10, 48, 0
12, 91200, Note_on_c, 10, 50, 96
12, 91290, Note_on_c, 10, 50, 0
12, 92400, Note_on_c, 10, 50, 72
12, 92484, Note_on_c, 10, 50, 0
12, 92640, Note_on_c, 10, 52, 72
12, 92716, Note_on_c, 10, 52, 0
12, 92880, Note_on_c, 10, 54, 72
12, 92960, Note_on_c, 10, 54, 0
12, 93120, Note_on_c, 10, 55, 72
12, 93204, Note_on_c, 10, 55, 0
12, 93600, Note_on_c, 10, 48, 72
12, 93694, Note_on_c, 10, 48, 0
12, 94080, Note_on_c, 10, 50, 72
12, 94166, Note_on_c, 10, 50, 0
12, 94560, Note_on_c, 10, 50, 72
12, 94650, Note_on_c, 10, 50, 0
12, 95040, Note_on_c, 10, 55, 96
12, 95130, Note_on_c, 10, 55, 0
12, 96000, Note_on_c, 10, 59, 96
12, 96112, Note_on_c, 10, 59, 0
12, 96960, Note_on_c, 10, 57, 96
12, 97062, Note_on_c, 10, 57, 0
12, 97920, Note_on_c, 10, 50, 96
12, 98030, Note_on_c, 10, 50, 0
12, 98880, Note_on_c, 10, 55, 96
12, 98976, Note_on_c, 10, 55, 0
12, 99840, Note_on_c, 10, 59, 96
12, 99946, Note_on_c, 10, 59, 0
12, 100800, Note_on_c, 10, 57, 96
12, 100910, Note_on_c, 10, 57, 0
12, 101760, Note_on_c, 10, 50, 96
12, 101862, Note_on_c, 10, 50, 0
12, 102720, Note_on_c, 10, 43, 96
12, 102816, Note_on_c, 10, 43, 0
12, 102840, Note_on_c, 10, 55, 96
12, 102922, Note_on_c, 10, 55, 0
12, 102960, Note_on_c, 10, 55, 96
12, 103030, Note_on_c, 10, 55, 0
12, 103080, Note_on_c, 10, 55, 96
12, 103156, Note_on_c, 10, 55, 0
12, 103200, Note_on_c, 10, 55, 96
12, 103276, Note_on_c, 10, 55, 0
12, 103320, Note_on_c, 10, 55, 96
12, 103400, Note_on_c, 10, 55, 0
12, 103440, Note_on_c, 10, 55, 96
12, 103520, Note_on_c, 10, 55, 0
12, 103560, Note_on_c, 10, 55, 96
12, 103646, Note_on_c, 10, 55, 0
12, 103680, Note_on_c, 10, 55, 96
12, 103766, Note_on_c, 10, 55, 0
12, 103800, Note_on_c, 10, 55, 96
12, 103882, Note_on_c, 10, 55, 0
12, 103920, Note_on_c, 10, 55, 96
12, 104006, Note_on_c, 10, 55, 0
12, 104040, Note_on_c, 10, 55, 96
12, 104120, Note_on_c, 10, 55, 0
12, 104160, Note_on_c, 10, 55, 96
12, 104244, Note_on_c, 10, 55, 0
12, 104280, Note_on_c, 10, 55, 96
12, 104364, Note_on_c, 10, 55, 0
12, 104400, Note_on_c, 10, 55, 96
12, 104482, Note_on_c, 10, 55, 0
12, 104520, Note_on_c, 10, 55, 96
12, 104610, Note_on_c, 10, 55, 0
12, 104640, Note_on_c, 10, 53, 96
12, 104726, Note_on_c, 10, 53, 0
12, 104760, Note_on_c, 10, 53, 96
12, 104844, Note_on_c, 10, 53, 0
12, 104880, Note_on_c, 10, 53, 96
12, 104964, Note_on_c, 10, 53, 0
12, 105000, Note_on_c, 10, 53, 96
12, 105084, Note_on_c, 10, 53, 0
12, 105120, Note_on_c, 10, 53, 96
12, 105202, Note_on_c, 10, 53, 0
12, 105240, Note_on_c, 10, 53, 96
12, 105316, Note_on_c, 10, 53, 0
12, 105360, Note_on_c, 10, 53, 96
12, 105432, Note_on_c, 10, 53, 0
12, 105480, Note_on_c, 10, 53, 96
12, 105560, Note_on_c, 10, 53, 0
12, 105600, Note_on_c, 10, 53, 96
12, 105672, Note_on_c, 10, 53, 0
12, 105720, Note_on_c, 10, 53, 96
12, 105792, Note_on_c, 10, 53, 0
12, 105840, Note_on_c, 10, 53, 96
12, 105904, Note_on_c, 10, 53, 0
12, 105960, Note_on_c, 10, 53, 96
12, 106032, Note_on_c, 10, 53, 0
12, 106080, Note_on_c, 10, 53, 96
12, 106152, Note_on_c, 10, 53, 0
12, 106200, Note_on_c, 10, 53, 96
12, 106282, Note_on_c, 10, 53, 0
12, 106320, Note_on_c, 10, 51, 96
12, 106396, Note_on_c, 10, 51, 0
12, 106440, Note_on_c, 10, 51, 96
12, 106516, Note_on_c, 10, 51, 0
12, 106560, Note_on_c, 10, 50, 96
12, 106640, Note_on_c, 10, 50, 0
12, 106680, Note_on_c, 10, 50, 96
12, 106754, Note_on_c, 10, 50, 0
12, 106800, Note_on_c, 10, 50, 96
12, 106864, Note_on_c, 10, 50, 0
12, 106920, Note_on_c, 10, 50, 96
12, 106992, Note_on_c, 10, 50, 0
12, 107040, Note_on_c, 10, 50, 96
12, 107110, Note_on_c, 10, 50, 0
12, 107160, Note_on_c, 10, 50, 96
12, 107230, Note_on_c, 10, 50, 0
12, 107280, Note_on_c, 10, 48, 96
12, 107370, Note_on_c, 10, 48, 0
12, 107400, Note_on_c, 10, 48, 96
12, 107482, Note_on_c, 10, 48, 0
12, 107520, Note_on_c, 10, 46, 96
12, 107590, Note_on_c, 10, 46, 0
12, 107640, Note_on_c, 10, 46, 96
12, 107716, Note_on_c, 10, 46, 0
12, 107760, Note_on_c, 10, 46, 96
12, 107834, Note_on_c, 10, 46, 0
12, 107880, Note_on_c, 10, 46, 96
12, 107956, Note_on_c, 10, 46, 0
12, 108000, Note_on_c, 10, 46, 96
12, 108072, Note_on_c, 10, 46, 0
12, 108120, Note_on_c, 10, 46, 96
12, 108200, Note_on_c, 10, 46, 0
12, 108240, Note_on_c, 10, 44, 96
12, 108314, Note_on_c, 10, 44, 0
12, 108360, Note_on_c, 10, 44, 96
12, 108450, Note_on_c, 10, 44, 0
12, 108480, Note_on_c, 10, 43, 96
12, 108606, Note_on_c, 10, 43, 0
12, 108960, Note_on_c, 10, 44, 96
12, 109062, Note_on_c, 10, 44, 0
12, 109440, Note_on_c, 10, 46, 96
12, 109524, Note_on_c, 10, 46, 0
12, 109920, Note_on_c, 10, 46, 96
12, 110004, Note_on_c, 10, 46, 0
12, 110400, Note_on_c, 10, 59, 127
12, 111480, Note_on_c, 10, 60, 127
12, 111514, Note_on_c, 10, 59, 0
12, 111600, Note_on_c, 10, 62, 127
12, 111642, Note_on_c, 10, 60, 0
12, 111720, Note_on_c, 10, 60, 127
12, 111770, Note_on_c, 10, 62, 0
12, 111840, Note_on_c, 10, 59, 127
12, 111896, Note_on_c, 10, 60, 0
12, 111960, Note_on_c, 10, 55, 127
12, 111996, Note_on_c, 10, 59, 0
12, 112080, Note_on_c, 10, 57, 127
12, 112140, Note_on_c, 10, 55, 0
12, 112200, Note_on_c, 10, 59, 127
12, 112230, Note_on_c, 10, 57, 0
12, 112320, Note_on_c, 10, 60, 127
12, 112370, Note_on_c, 10, 59, 0
12, 112416, Note_on_c, 10, 60, 0
12, 112800, Note_on_c, 10, 53, 96
12, 112892, Note_on_c, 10, 53, 0
12, 113280, Note_on_c, 10, 55, 96
12, 113366, Note_on_c, 10, 55, 0
12, 113760, Note_on_c, 10, 43, 96
12, 113844, Note_on_c, 10, 43, 0
12, 114240, Note_on_c, 10, 54, 127
12, 115320, Note_on_c, 10, 55, 127
12, 115370, Note_on_c, 10, 54, 0
12, 115440, Note_on_c, 10, 57, 127
12, 115486, Note_on_c, 10, 55, 0
12, 115560, Note_on_c, 10, 55, 127
12, 115602, Note_on_c, 10, 57, 0
12, 115680, Note_on_c, 10, 54, 127
12, 115750, Note_on_c, 10, 55, 0
12, 115800, Note_on_c, 10, 50, 127
12, 115830, Note_on_c, 10, 54, 0
12, 115920, Note_on_c, 10, 52, 127
12, 115960, Note_on_c, 10, 50, 0
12, 116040, Note_on_c, 10, 54, 127
12, 116070, Note_on_c, 10, 52, 0
12, 116160, Note_on_c, 10, 55, 127
12, 116224, Note_on_c, 10, 54, 0
12, 116312, Note_on_c, 10, 55, 0
12, 116640, Note_on_c, 10, 48, 96
12, 116772, Note_on_c, 10, 48, 0
12, 117120, Note_on_c, 10, 50, 96
12, 117234, Note_on_c, 10, 50, 0
12, 117600, Note_on_c, 10, 50, 96
12, 117704, Note_on_c, 10, 50, 0
12, 118080, Note_on_c, 10, 55, 96
12, 118174, Note_on_c, 10, 55, 0
12, 119760, Note_on_c, 10, 52, 96
12, 119844, Note_on_c, 10, 52, 0
12, 120000, Note_on_c, 10, 57, 96
12, 120074, Note_on_c, 10, 57, 0
12, 121680, Note_on_c, 10, 54, 96
12, 121756, Note_on_c, 10, 54, 0
12, 121920, Note_on_c, 10, 59, 96
12, 122006, Note_on_c, 10, 59, 0
12, 123600, Note_on_c, 10, 55, 96
12, 123692, Note_on_c, 10, 55, 0
12, 123840, Note_on_c, 10, 60, 96
12, 123924, Note_on_c, 10, 60, 0
12, 124560, Note_on_c, 10, 57, 96
12, 124652, Note_on_c, 10, 57, 0
12, 124800, Note_on_c, 10, 62, 96
12, 124880, Note_on_c, 10, 62, 0
12, 125520, Note_on_c, 10, 59, 96
12, 125614, Note_on_c, 10, 59, 0
12, 125760, Note_on_c, 10, 52, 80
12, 125856, Note_on_c, 10, 52, 0
12, 126000, Note_on_c, 10, 51, 83
12, 126092, Note_on_c, 10, 51, 0
12, 126240, Note_on_c, 10, 52, 85
12, 126332, Note_on_c, 10, 52, 0
12, 126480, Note_on_c, 10, 54, 88
12, 126566, Note_on_c, 10, 54, 0
12, 126720, Note_on_c, 10, 55, 90
12, 126802, Note_on_c, 10, 55, 0
12, 126960, Note_on_c, 10, 54, 93
12, 127046, Note_on_c, 10, 54, 0
12, 127200, Note_on_c, 10, 55, 95
12, 127276, Note_on_c, 10, 55, 0
12, 127440, Note_on_c, 10, 57, 98
12, 127534, Note_on_c, 10, 57, 0
12, 127680, Note_on_c, 10, 59, 100
12, 127766, Note_on_c, 10, 59, 0
12, 127920, Note_on_c, 10, 54, 103
12, 128012, Note_on_c, 10, 54, 0
12, 128160, Note_on_c, 10, 55, 105
12, 128264, Note_on_c, 10, 55, 0
12, 128400, Note_on_c, 10, 57, 108
12, 128490, Note_on_c, 10, 57, 0
12, 128640, Note_on_c, 10, 59, 110
12, 128722, Note_on_c, 10, 59, 0
12, 128880, Note_on_c, 10, 57, 113
12, 128966, Note_on_c, 10, 57, 0
12, 129120, Note_on_c, 10, 59, 115
12, 129204, Note_on_c, 10, 59, 0
12, 129360, Note_on_c, 10, 60, 118
12, 129450, Note_on_c, 10, 60, 0
12, 129600, Note_on_c, 10, 62, 127
12, 129672, Note_on_c, 10, 62, 0
12, 129840, Note_on_c, 10, 42, 127
12, 130080, Note_on_c, 10, 43, 127
12, 130136, Note_on_c, 10, 42, 0
12, 130320, Note_on_c, 10, 47, 127
12, 130372, Note_on_c, 10, 43, 0
12, 130560, Note_on_c, 10, 50, 127
12, 130602, Note_on_c, 10, 47, 0
12, 131184, Note_on_c, 10, 50, 0
12, 131280, Note_on_c, 10, 51, 127
12, 131422, Note_on_c, 10, 51, 0
12, 131520, Note_on_c, 10, 52, 127
12, 131760, Note_on_c, 10, 51, 127
12, 131820, Note_on_c, 10, 52, 0
12, 132000, Note_on_c, 10, 52, 127
12, 132070, Note_on_c, 10, 51, 0
12, 132240, Note_on_c, 10, 55, 127
12, 132294, Note_on_c, 10, 52, 0
12, 132480, Note_on_c, 10, 59, 127
12, 132526, Note_on_c, 10, 55, 0
12, 132960, Note_on_c, 10, 59, 0
12, 133200, Note_on_c, 10, 59, 127
12, 133290, Note_on_c, 10, 59, 0
12, 133440, Note_on_c, 10, 60, 127
12, 134040, Note_on_c, 10, 57, 127
12, 134080, Note_on_c, 10, 60, 0
12, 134160, Note_on_c, 10, 59, 127
12, 134236, Note_on_c, 10, 57, 0
12, 134280, Note_on_c, 10, 60, 127
12, 134332, Note_on_c, 10, 59, 0
12, 134400, Note_on_c, 10, 62, 127
12, 134454, Note_on_c, 10, 60, 0
12, 134520, Note_on_c, 10, 61, 127
12, 134572, Note_on_c, 10, 62, 0
12, 134640, Note_on_c, 10, 62, 127
12, 134706, Note_on_c, 10, 61, 0
12, 134760, Note_on_c, 10, 61, 127
12, 134810, Note_on_c, 10, 62, 0
12, 134880, Note_on_c, 10, 62, 127
12, 134922, Note_on_c, 10, 61, 0
12, 134994, Note_on_c, 10, 62, 0
12, 135120, Note_on_c, 10, 50, 127
12, 135224, Note_on_c, 10, 50, 0
12, 135360, Note_on_c, 10, 43, 127
12, 135480, Note_on_c, 10, 45, 127
12, 135530, Note_on_c, 10, 43, 0
12, 135600, Note_on_c, 10, 43, 127
12, 135646, Note_on_c, 10, 45, 0
12, 135720, Note_on_c, 10, 42, 127
12, 135766, Note_on_c, 10, 43, 0
12, 135840, Note_on_c, 10, 43, 127
12, 135884, Note_on_c, 10, 42, 0
12, 135960, Note_on_c, 10, 45, 127
12, 136024, Note_on_c, 10, 43, 0
12, 136080, Note_on_c, 10, 47, 127
12, 136140, Note_on_c, 10, 45, 0
12, 136200, Note_on_c, 10, 48, 127
12, 136256, Note_on_c, 10, 47, 0
12, 136320, Note_on_c, 10, 50, 127
12, 136400, Note_on_c, 10, 48, 0
12, 136920, Note_on_c, 10, 50, 0
12, 137040, Note_on_c, 10, 51, 127
12, 137156, Note_on_c, 10, 51, 0
12, 137280, Note_on_c, 10, 52, 127
12, 137400, Note_on_c, 10, 54, 127
12, 137442, Note_on_c, 10, 52, 0
12, 137520, Note_on_c, 10, 52, 127
12, 137560, Note_on_c, 10, 54, 0
12, 137640, Note_on_c, 10, 51, 127
12, 137682, Note_on_c, 10, 52, 0
12, 137760, Note_on_c, 10, 52, 127
12, 137804, Note_on_c, 10, 51, 0
12, 137880, Note_on_c, 10, 54, 127
12, 137932, Note_on_c, 10, 52, 0
12, 138000, Note_on_c, 10, 55, 127
12, 138056, Note_on_c, 10, 54, 0
12, 138120, Note_on_c, 10, 57, 127
12, 138166, Note_on_c, 10, 55, 0
12, 138240, Note_on_c, 10, 59, 127
12, 138300, Note_on_c, 10, 57, 0
12, 138790, Note_on_c, 10, 59, 0
12, 138960, Note_on_c, 10, 59, 127
12, 139034, Note_on_c, 10, 59, 0
12, 139200, Note_on_c, 10, 60, 127
12, 139320, Note_on_c, 10, 59, 127
12, 139362, Note_on_c, 10, 60, 0
12, 139440, Note_on_c, 10, 60, 127
12, 139500, Note_on_c, 10, 59, 0
12, 139560, Note_on_c, 10, 59, 127
12, 139614, Note_on_c, 10, 60, 0
12, 139680, Note_on_c, 10, 60, 127
12, 139734, Note_on_c, 10, 59, 0
12, 139800, Note_on_c, 10, 57, 127
12, 139840, Note_on_c, 10, 60, 0
12, 139920, Note_on_c, 10, 59, 127
12, 139984, Note_on_c, 10, 57, 0
12, 140040, Note_on_c, 10, 60, 127
12, 140106, Note_on_c, 10, 59, 0
12, 140160, Note_on_c, 10, 62, 127
12, 140194, Note_on_c, 10, 60, 0
12, 140280, Note_on_c, 10, 61, 127
12, 140324, Note_on_c, 10, 62, 0
12, 140400, Note_on_c, 10, 62, 127
12, 140432, Note_on_c, 10, 61, 0
12, 140520, Note_on_c, 10, 61, 127
12, 140550, Note_on_c, 10, 62, 0
12, 140640, Note_on_c, 10, 62, 127
12, 140692, Note_on_c, 10, 61, 0
12, 140714, Note_on_c, 10, 62, 0
12, 140880, Note_on_c, 10, 50, 127
12, 140964, Note_on_c, 10, 50, 0
12, 141120, Note_on_c, 10, 43, 127
12, 141456, Note_on_c, 10, 43, 0
12, 143040, Note_on_c, 10, 50, 96
12, 143120, Note_on_c, 10, 50, 0
12, 143280, Note_on_c, 10, 51, 96
12, 143630, Note_on_c, 10, 51, 0
12, 143760, Note_on_c, 10, 51, 96
12, 143840, Note_on_c, 10, 51, 0
12, 144000, Note_on_c, 10, 50, 96
12, 144074, Note_on_c, 10, 50, 0
12, 144240, Note_on_c, 10, 48, 96
12, 144314, Note_on_c, 10, 48, 0
12, 144480, Note_on_c, 10, 47, 96
12, 144562, Note_on_c, 10, 47, 0
12, 144720, Note_on_c, 10, 45, 96
12, 144800, Note_on_c, 10, 45, 0
12, 144960, Note_on_c, 10, 43, 96
12, 145036, Note_on_c, 10, 43, 0
12, 146880, Note_on_c, 10, 50, 96
12, 146956, Note_on_c, 10, 50, 0
12, 147120, Note_on_c, 10, 51, 96
12, 147430, Note_on_c, 10, 51, 0
12, 147600, Note_on_c, 10, 51, 96
12, 147686, Note_on_c, 10, 51, 0
12, 147840, Note_on_c, 10, 50, 96
12, 147912, Note_on_c, 10, 50, 0
12, 148080, Note_on_c, 10, 48, 96
12, 148152, Note_on_c, 10, 48, 0
12, 148320, Note_on_c, 10, 47, 96
12, 148402, Note_on_c, 10, 47, 0
12, 148560, Note_on_c, 10, 45, 96
12, 148634, Note_on_c, 10, 45, 0
12, 148800, Note_on_c, 10, 44, 96
12, 148870, Note_on_c, 10, 44, 0
12, 149040, Note_on_c, 10, 53, 96
12, 149402, Note_on_c, 10, 53, 0
12, 149520, Note_on_c, 10, 53, 96
12, 149594, Note_on_c, 10, 53, 0
12, 149760, Note_on_c, 10, 52, 96
12, 149832, Note_on_c, 10, 52, 0
12, 150000, Note_on_c, 10, 50, 96
12, 150076, Note_on_c, 10, 50, 0
12, 150240, Note_on_c, 10, 48, 96
12, 150322, Note_on_c, 10, 48, 0
12, 150480, Note_on_c, 10, 47, 96
12, 150564, Note_on_c, 10, 47, 0
12, 150720, Note_on_c, 10, 46, 96
12, 150776, Note_on_c, 10, 46, 0
12, 150960, Note_on_c, 10, 55, 96
12, 151336, Note_on_c, 10, 55, 0
12, 151440, Note_on_c, 10, 55, 96
12, 151514, Note_on_c, 10, 55, 0
12, 151680, Note_on_c, 10, 53, 96
12, 151752, Note_on_c, 10, 53, 0
12, 151920, Note_on_c, 10, 52, 96
12, 151992, Note_on_c, 10, 52, 0
12, 152160, Note_on_c, 10, 50, 96
12, 152230, Note_on_c, 10, 50, 0
12, 152400, Note_on_c, 10, 48, 96
12, 152472, Note_on_c, 10, 48, 0
12, 152640, Note_on_c, 10, 47, 96
12, 152710, Note_on_c, 10, 47, 0
12, 155040, Note_on_c, 10, 55, 58
12, 155134, Note_on_c, 10, 55, 0
12, 156000, Note_on_c, 10, 55, 58
12, 156092, Note_on_c, 10, 55, 0
12, 156960, Note_on_c, 10, 55, 58
12, 157060, Note_on_c, 10, 55, 0
12, 157920, Note_on_c, 10, 55, 58
12, 158016, Note_on_c, 10, 55, 0
12, 160320, Note_on_c, 10, 48, 96
12, 160404, Note_on_c, 10, 48, 0
12, 161280, Note_on_c, 10, 48, 96
12, 161366, Note_on_c, 10, 48, 0
12, 162240, Note_on_c, 10, 48, 96
12, 162332, Note_on_c, 10, 48, 0
12, 162720, Note_on_c, 10, 48, 96
12, 162820, Note_on_c, 10, 48, 0
12, 163200, Note_on_c, 10, 48, 96
12, 163294, Note_on_c, 10, 48, 0
12, 164160, Note_on_c, 10, 48, 96
12, 164250, Note_on_c, 10, 48, 0
12, 165120, Note_on_c, 10, 48, 96
12, 165210, Note_on_c, 10, 48, 0
12, 166080, Note_on_c, 10, 47, 96
12, 166164, Note_on_c, 10, 47, 0
12, 166560, Note_on_c, 10, 47, 96
12, 166646, Note_on_c, 10, 47, 0
12, 167040, Note_on_c, 10, 47, 96
12, 167134, Note_on_c, 10, 47, 0
12, 168000, Note_on_c, 10, 48, 96
12, 168084, Note_on_c, 10, 48, 0
12, 168120, Note_on_c, 10, 48, 96
12, 168212, Note_on_c, 10, 48, 0
12, 168240, Note_on_c, 10, 48, 96
12, 168322, Note_on_c, 10, 48, 0
12, 168360, Note_on_c, 10, 48, 96
12, 168442, Note_on_c, 10, 48, 0
12, 168480, Note_on_c, 10, 48, 96
12, 168564, Note_on_c, 10, 48, 0
12, 168600, Note_on_c, 10, 48, 96
12, 168674, Note_on_c, 10, 48, 0
12, 168720, Note_on_c, 10, 48, 96
12, 168804, Note_on_c, 10, 48, 0
12, 168840, Note_on_c, 10, 48, 96
12, 168922, Note_on_c, 10, 48, 0
12, 168960, Note_on_c, 10, 48, 96
12, 169050, Note_on_c, 10, 48, 0
12, 169080, Note_on_c, 10, 48, 96
12, 169166, Note_on_c, 10, 48, 0
12, 169200, Note_on_c, 10, 48, 96
12, 169284, Note_on_c, 10, 48, 0
12, 169320, Note_on_c, 10, 48, 96
12, 169402, Note_on_c, 10, 48, 0
12, 169440, Note_on_c, 10, 48, 96
12, 169524, Note_on_c, 10, 48, 0
12, 169560, Note_on_c, 10, 48, 96
12, 169642, Note_on_c, 10, 48, 0
12, 169680, Note_on_c, 10, 48, 96
12, 169764, Note_on_c, 10, 48, 0
12, 169800, Note_on_c, 10, 48, 96
12, 169890, Note_on_c, 10, 48, 0
12, 169920, Note_on_c, 10, 48, 96
12, 170004, Note_on_c, 10, 48, 0
12, 170040, Note_on_c, 10, 48, 96
12, 170122, Note_on_c, 10, 48, 0
12, 170160, Note_on_c, 10, 48, 96
12, 170242, Note_on_c, 10, 48, 0
12, 170280, Note_on_c, 10, 48, 96
12, 170364, Note_on_c, 10, 48, 0
12, 170400, Note_on_c, 10, 48, 96
12, 170484, Note_on_c, 10, 48, 0
12, 170520, Note_on_c, 10, 48, 96
12, 170602, Note_on_c, 10, 48, 0
12, 170640, Note_on_c, 10, 48, 96
12, 170722, Note_on_c, 10, 48, 0
12, 170760, Note_on_c, 10, 48, 96
12, 170840, Note_on_c, 10, 48, 0
12, 170880, Note_on_c, 10, 48, 96
12, 170954, Note_on_c, 10, 48, 0
12, 171000, Note_on_c, 10, 48, 96
12, 171082, Note_on_c, 10, 48, 0
12, 171120, Note_on_c, 10, 48, 96
12, 171202, Note_on_c, 10, 48, 0
12, 171240, Note_on_c, 10, 48, 96
12, 171322, Note_on_c, 10, 48, 0
12, 171360, Note_on_c, 10, 48, 96
12, 171444, Note_on_c, 10, 48, 0
12, 171480, Note_on_c, 10, 48, 96
12, 171560, Note_on_c, 10, 48, 0
12, 171600, Note_on_c, 10, 48, 96
12, 171676, Note_on_c, 10, 48, 0
12, 171720, Note_on_c, 10, 48, 96
12, 171800, Note_on_c, 10, 48, 0
12, 171840, Note_on_c, 10, 46, 96
12, 171922, Note_on_c, 10, 46, 0
12, 171960, Note_on_c, 10, 46, 96
12, 172042, Note_on_c, 10, 46, 0
12, 172080, Note_on_c, 10, 46, 96
12, 172162, Note_on_c, 10, 46, 0
12, 172200, Note_on_c, 10, 46, 96
12, 172280, Note_on_c, 10, 46, 0
12, 172320, Note_on_c, 10, 46, 96
12, 172400, Note_on_c, 10, 46, 0
12, 172440, Note_on_c, 10, 46, 96
12, 172520, Note_on_c, 10, 46, 0
12, 172560, Note_on_c, 10, 46, 96
12, 172634, Note_on_c, 10, 46, 0
12, 172680, Note_on_c, 10, 46, 96
12, 172756, Note_on_c, 10, 46, 0
12, 172800, Note_on_c, 10, 46, 96
12, 172876, Note_on_c, 10, 46, 0
12, 172920, Note_on_c, 10, 46, 96
12, 172994, Note_on_c, 10, 46, 0
12, 173040, Note_on_c, 10, 46, 96
12, 173112, Note_on_c, 10, 46, 0
12, 173160, Note_on_c, 10, 46, 96
12, 173234, Note_on_c, 10, 46, 0
12, 173280, Note_on_c, 10, 46, 96
12, 173360, Note_on_c, 10, 46, 0
12, 173400, Note_on_c, 10, 46, 96
12, 173480, Note_on_c, 10, 46, 0
12, 173520, Note_on_c, 10, 46, 96
12, 173586, Note_on_c, 10, 46, 0
12, 173640, Note_on_c, 10, 46, 96
12, 173710, Note_on_c, 10, 46, 0
12, 173760, Note_on_c, 10, 46, 96
12, 173832, Note_on_c, 10, 46, 0
12, 173880, Note_on_c, 10, 46, 96
12, 173956, Note_on_c, 10, 46, 0
12, 174000, Note_on_c, 10, 46, 96
12, 174080, Note_on_c, 10, 46, 0
12, 174120, Note_on_c, 10, 46, 96
12, 174200, Note_on_c, 10, 46, 0
12, 174240, Note_on_c, 10, 46, 96
12, 174312, Note_on_c, 10, 46, 0
12, 174360, Note_on_c, 10, 46, 96
12, 174434, Note_on_c, 10, 46, 0
12, 174480, Note_on_c, 10, 46, 96
12, 174554, Note_on_c, 10, 46, 0
12, 174600, Note_on_c, 10, 46, 96
12, 174682, Note_on_c, 10, 46, 0
12, 174720, Note_on_c, 10, 46, 96
12, 174800, Note_on_c, 10, 46, 0
12, 174840, Note_on_c, 10, 46, 96
12, 174920, Note_on_c, 10, 46, 0
12, 174960, Note_on_c, 10, 46, 96
12, 175036, Note_on_c, 10, 46, 0
12, 175080, Note_on_c, 10, 46, 96
12, 175156, Note_on_c, 10, 46, 0
12, 175200, Note_on_c, 10, 46, 96
12, 175276, Note_on_c, 10, 46, 0
12, 175320, Note_on_c, 10, 46, 96
12, 175406, Note_on_c, 10, 46, 0
12, 175440, Note_on_c, 10, 46, 96
12, 175522, Note_on_c, 10, 46, 0
12, 175560, Note_on_c, 10, 46, 96
12, 175636, Note_on_c, 10, 46, 0
12, 175680, Note_on_c, 10, 51, 127
12, 175776, Note_on_c, 10, 51, 0
12, 177360, Note_on_c, 10, 53, 96
12, 177440, Note_on_c, 10, 53, 0
12, 177600, Note_on_c, 10, 46, 96
12, 177674, Note_on_c, 10, 46, 0
12, 177840, Note_on_c, 10, 58, 96
12, 178224, Note_on_c, 10, 58, 0
12, 178320, Note_on_c, 10, 57, 96
12, 178392, Note_on_c, 10, 57, 0
12, 178560, Note_on_c, 10, 58, 96
12, 178644, Note_on_c, 10, 58, 0
12, 178800, Note_on_c, 10, 56, 96
12, 178882, Note_on_c, 10, 56, 0
12, 179040, Note_on_c, 10, 55, 96
12, 179116, Note_on_c, 10, 55, 0
12, 179280, Note_on_c, 10, 60, 96
12, 179360, Note_on_c, 10, 60, 0
12, 179520, Note_on_c, 10, 53, 96
12, 179604, Note_on_c, 10, 53, 0
12, 181200, Note_on_c, 10, 43, 96
12, 181284, Note_on_c, 10, 43, 0
12, 181440, Note_on_c, 10, 48, 96
12, 181512, Note_on_c, 10, 48, 0
12, 181680, Note_on_c, 10, 60, 96
12, 182086, Note_on_c, 10, 60, 0
12, 182160, Note_on_c, 10, 59, 96
12, 182226, Note_on_c, 10, 59, 0
12, 182400, Note_on_c, 10, 60, 96
12, 182470, Note_on_c, 10, 60, 0
12, 182640, Note_on_c, 10, 58, 96
12, 182712, Note_on_c, 10, 58, 0
12, 182880, Note_on_c, 10, 57, 96
12, 182952, Note_on_c, 10, 57, 0
12, 183120, Note_on_c, 10, 56, 96
12, 183184, Note_on_c, 10, 56, 0
12, 183360, Note_on_c, 10, 43, 80
12, 183466, Note_on_c, 10, 43, 0
12, 183480, Note_on_c, 10, 55, 81
12, 183556, Note_on_c, 10, 55, 0
12, 183600, Note_on_c, 10, 55, 82
12, 183676, Note_on_c, 10, 55, 0
12, 183720, Note_on_c, 10, 55, 83
12, 183796, Note_on_c, 10, 55, 0
12, 183840, Note_on_c, 10, 55, 85
12, 183922, Note_on_c, 10, 55, 0
12, 183960, Note_on_c, 10, 55, 86
12, 184032, Note_on_c, 10, 55, 0
12, 184080, Note_on_c, 10, 55, 87
12, 184146, Note_on_c, 10, 55, 0
12, 184200, Note_on_c, 10, 55, 88
12, 184294, Note_on_c, 10, 55, 0
12, 184320, Note_on_c, 10, 43, 90
12, 184434, Note_on_c, 10, 43, 0
12, 184440, Note_on_c, 10, 55, 91
12, 184516, Note_on_c, 10, 55, 0
12, 184560, Note_on_c, 10, 55, 92
12, 184636, Note_on_c, 10, 55, 0
12, 184680, Note_on_c, 10, 55, 94
12, 184760, Note_on_c, 10, 55, 0
12, 184800, Note_on_c, 10, 55, 95
12, 184876, Note_on_c, 10, 55, 0
12, 184920, Note_on_c, 10, 55, 96
12, 184994, Note_on_c, 10, 55, 0
12, 185040, Note_on_c, 10, 55, 97
12, 185120, Note_on_c, 10, 55, 0
12, 185160, Note_on_c, 10, 55, 99
12, 185244, Note_on_c, 10, 55, 0
12, 185280, Note_on_c, 10, 43, 100
12, 185374, Note_on_c, 10, 43, 0
12, 185400, Note_on_c, 10, 55, 101
12, 185476, Note_on_c, 10, 55, 0
12, 185520, Note_on_c, 10, 55, 102
12, 185594, Note_on_c, 10, 55, 0
12, 185640, Note_on_c, 10, 55, 104
12, 185720, Note_on_c, 10, 55, 0
12, 185760, Note_on_c, 10, 55, 105
12, 185832, Note_on_c, 10, 55, 0
12, 185880, Note_on_c, 10, 55, 106
12, 185956, Note_on_c, 10, 55, 0
12, 186000, Note_on_c, 10, 55, 107
12, 186076, Note_on_c, 10, 55, 0
12, 186120, Note_on_c, 10, 55, 109
12, 186200, Note_on_c, 10, 55, 0
12, 186240, Note_on_c, 10, 43, 110
12, 186326, Note_on_c, 10, 43, 0
12, 186360, Note_on_c, 10, 55, 111
12, 186442, Note_on_c, 10, 55, 0
12, 186480, Note_on_c, 10, 55, 112
12, 186550, Note_on_c, 10, 55, 0
12, 186600, Note_on_c, 10, 55, 114
12, 186676, Note_on_c, 10, 55, 0
12, 186720, Note_on_c, 10, 55, 115
12, 186804, Note_on_c, 10, 55, 0
12, 186840, Note_on_c, 10, 55, 116
12, 186922, Note_on_c, 10, 55, 0
12, 186960, Note_on_c, 10, 55, 117
12, 187040, Note_on_c, 10, 55, 0
12, 187080, Note_on_c, 10, 55, 119
12, 187164, Note_on_c, 10, 55, 0
12, 187200, Note_on_c, 10, 55, 127
12, 187282, Note_on_c, 10, 55, 0
12, 187440, Note_on_c, 10, 48, 127
12, 187526, Note_on_c, 10, 48, 0
12, 187680, Note_on_c, 10, 55, 127
12, 187772, Note_on_c, 10, 55, 0
12, 187920, Note_on_c, 10, 48, 127
12, 188004, Note_on_c, 10, 48, 0
12, 188160, Note_on_c, 10, 55, 127
12, 188246, Note_on_c, 10, 55, 0
12, 188400, Note_on_c, 10, 48, 127
12, 188476, Note_on_c, 10, 48, 0
12, 188640, Note_on_c, 10, 55, 127
12, 188722, Note_on_c, 10, 55, 0
12, 188880, Note_on_c, 10, 48, 127
12, 188956, Note_on_c, 10, 48, 0
12, 189120, Note_on_c, 10, 55, 127
12, 189216, Note_on_c, 10, 55, 0
12, 189600, Note_on_c, 10, 55, 127
12, 189684, Note_on_c, 10, 55, 0
12, 190080, Note_on_c, 10, 43, 127
12, 190176, Note_on_c, 10, 43, 0
12, 191040, Note_on_c, 10, 48, 67
12, 191116, Note_on_c, 10, 48, 0
12, 194880, Note_on_c, 10, 43, 50
12, 194994, Note_on_c, 10, 43, 0
12, 198720, Note_on_c, 10, 48, 67
12, 198830, Note_on_c, 10, 48, 0
12, 199920, Note_on_c, 10, 48, 67
12, 200014, Note_on_c, 10, 48, 0
12, 200160, Note_on_c, 10, 52, 67
12, 200236, Note_on_c, 10, 52, 0
12, 200400, Note_on_c, 10, 55, 67
12, 200476, Note_on_c, 10, 55, 0
12, 200640, Note_on_c, 10, 60, 67
12, 200724, Note_on_c, 10, 60, 0
12, 201120, Note_on_c, 10, 56, 67
12, 201210, Note_on_c, 10, 56, 0
12, 201600, Note_on_c, 10, 57, 67
12, 201684, Note_on_c, 10, 57, 0
12, 202080, Note_on_c, 10, 53, 67
12, 202164, Note_on_c, 10, 53, 0
12, 202560, Note_on_c, 10, 55, 67
12, 202650, Note_on_c, 10, 55, 0
12, 203760, Note_on_c, 10, 55, 67
12, 203860, Note_on_c, 10, 55, 0
12, 204000, Note_on_c, 10, 57, 67
12, 204090, Note_on_c, 10, 57, 0
12, 204240, Note_on_c, 10, 59, 67
12, 204324, Note_on_c, 10, 59, 0
12, 204480, Note_on_c, 10, 60, 67
12, 204560, Note_on_c, 10, 60, 0
12, 204960, Note_on_c, 10, 53, 67
12, 205044, Note_on_c, 10, 53, 0
12, 205440, Note_on_c, 10, 55, 67
12, 205520, Note_on_c, 10, 55, 0
12, 205920, Note_on_c, 10, 43, 67
12, 206004, Note_on_c, 10, 43, 0
12, 206400, Note_on_c, 10, 48, 96
12, 206484, Note_on_c, 10, 48, 0
12, 207360, Note_on_c, 10, 52, 96
12, 207466, Note_on_c, 10, 52, 0
12, 208320, Note_on_c, 10, 50, 96
12, 208414, Note_on_c, 10, 50, 0
12, 209280, Note_on_c, 10, 43, 96
12, 209372, Note_on_c, 10, 43, 0
12, 210240, Note_on_c, 10, 48, 96
12, 210346, Note_on_c, 10, 48, 0
12, 211200, Note_on_c, 10, 52, 96
12, 211304, Note_on_c, 10, 52, 0
12, 212160, Note_on_c, 10, 50, 96
12, 212260, Note_on_c, 10, 50, 0
12, 213120, Note_on_c, 10, 43, 96
12, 213212, Note_on_c, 10, 43, 0
12, 214080, Note_on_c, 10, 48, 96
12, 214194, Note_on_c, 10, 48, 0
12, 214200, Note_on_c, 10, 60, 96
12, 214274, Note_on_c, 10, 60, 0
12, 214320, Note_on_c, 10, 60, 96
12, 214400, Note_on_c, 10, 60, 0
12, 214440, Note_on_c, 10, 60, 96
12, 214516, Note_on_c, 10, 60, 0
12, 214560, Note_on_c, 10, 60, 96
12, 214636, Note_on_c, 10, 60, 0
12, 214680, Note_on_c, 10, 60, 96
12, 214760, Note_on_c, 10, 60, 0
12, 214800, Note_on_c, 10, 60, 96
12, 214884, Note_on_c, 10, 60, 0
12, 214920, Note_on_c, 10, 60, 96
12, 215006, Note_on_c, 10, 60, 0
12, 215040, Note_on_c, 10, 60, 96
12, 215122, Note_on_c, 10, 60, 0
12, 215160, Note_on_c, 10, 60, 96
12, 215242, Note_on_c, 10, 60, 0
12, 215280, Note_on_c, 10, 60, 96
12, 215366, Note_on_c, 10, 60, 0
12, 215400, Note_on_c, 10, 60, 96
12, 215482, Note_on_c, 10, 60, 0
12, 215520, Note_on_c, 10, 60, 96
12, 215604, Note_on_c, 10, 60, 0
12, 215640, Note_on_c, 10, 60, 96
12, 215720, Note_on_c, 10, 60, 0
12, 215760, Note_on_c, 10, 60, 96
12, 215840, Note_on_c, 10, 60, 0
12, 215880, Note_on_c, 10, 60, 96
12, 215970, Note_on_c, 10, 60, 0
12, 216000, Note_on_c, 10, 58, 96
12, 216086, Note_on_c, 10, 58, 0
12, 216120, Note_on_c, 10, 58, 96
12, 216202, Note_on_c, 10, 58, 0
12, 216240, Note_on_c, 10, 58, 96
12, 216320, Note_on_c, 10, 58, 0
12, 216360, Note_on_c, 10, 58, 96
12, 216440, Note_on_c, 10, 58, 0
12, 216480, Note_on_c, 10, 58, 96
12, 216560, Note_on_c, 10, 58, 0
12, 216600, Note_on_c, 10, 58, 96
12, 216680, Note_on_c, 10, 58, 0
12, 216720, Note_on_c, 10, 58, 96
12, 216800, Note_on_c, 10, 58, 0
12, 216840, Note_on_c, 10, 58, 96
12, 216922, Note_on_c, 10, 58, 0
12, 216960, Note_on_c, 10, 58, 96
12, 217050, Note_on_c, 10, 58, 0
12, 217080, Note_on_c, 10, 58, 96
12, 217170, Note_on_c, 10, 58, 0
12, 217200, Note_on_c, 10, 58, 96
12, 217276, Note_on_c, 10, 58, 0
12, 217320, Note_on_c, 10, 58, 96
12, 217406, Note_on_c, 10, 58, 0
12, 217440, Note_on_c, 10, 58, 96
12, 217530, Note_on_c, 10, 58, 0
12, 217560, Note_on_c, 10, 58, 96
12, 217646, Note_on_c, 10, 58, 0
12, 217680, Note_on_c, 10, 56, 96
12, 217766, Note_on_c, 10, 56, 0
12, 217800, Note_on_c, 10, 56, 96
12, 217870, Note_on_c, 10, 56, 0
12, 217920, Note_on_c, 10, 55, 96
12, 218004, Note_on_c, 10, 55, 0
12, 218040, Note_on_c, 10, 55, 96
12, 218112, Note_on_c, 10, 55, 0
12, 218160, Note_on_c, 10, 55, 96
12, 218232, Note_on_c, 10, 55, 0
12, 218280, Note_on_c, 10, 55, 96
12, 218360, Note_on_c, 10, 55, 0
12, 218400, Note_on_c, 10, 55, 96
12, 218472, Note_on_c, 10, 55, 0
12, 218520, Note_on_c, 10, 55, 96
12, 218596, Note_on_c, 10, 55, 0
12, 218640, Note_on_c, 10, 53, 96
12, 218722, Note_on_c, 10, 53, 0
12, 218760, Note_on_c, 10, 53, 96
12, 218840, Note_on_c, 10, 53, 0
12, 218880, Note_on_c, 10, 51, 96
12, 218966, Note_on_c, 10, 51, 0
12, 219000, Note_on_c, 10, 51, 96
12, 219082, Note_on_c, 10, 51, 0
12, 219120, Note_on_c, 10, 51, 96
12, 219196, Note_on_c, 10, 51, 0
12, 219240, Note_on_c, 10, 51, 96
12, 219320, Note_on_c, 10, 51, 0
12, 219360, Note_on_c, 10, 51, 96
12, 219434, Note_on_c, 10, 51, 0
12, 219480, Note_on_c, 10, 51, 96
12, 219560, Note_on_c, 10, 51, 0
12, 219600, Note_on_c, 10, 49, 96
12, 219682, Note_on_c, 10, 49, 0
12, 219720, Note_on_c, 10, 49, 96
12, 219802, Note_on_c, 10, 49, 0
12, 219840, Note_on_c, 10, 48, 96
12, 220004, Note_on_c, 10, 48, 0
12, 220320, Note_on_c, 10, 49, 96
12, 220470, Note_on_c, 10, 49, 0
12, 220800, Note_on_c, 10, 51, 96
12, 220922, Note_on_c, 10, 51, 0
12, 221280, Note_on_c, 10, 51, 96
12, 221416, Note_on_c, 10, 51, 0
12, 221760, Note_on_c, 10, 52, 96
12, 222840, Note_on_c, 10, 53, 96
12, 222882, Note_on_c, 10, 52, 0
12, 222960, Note_on_c, 10, 55, 96
12, 223012, Note_on_c, 10, 53, 0
12, 223080, Note_on_c, 10, 53, 96
12, 223136, Note_on_c, 10, 55, 0
12, 223200, Note_on_c, 10, 52, 96
12, 223256, Note_on_c, 10, 53, 0
12, 223320, Note_on_c, 10, 48, 96
12, 223366, Note_on_c, 10, 52, 0
12, 223440, Note_on_c, 10, 50, 96
12, 223504, Note_on_c, 10, 48, 0
12, 223560, Note_on_c, 10, 52, 96
12, 223620, Note_on_c, 10, 50, 0
12, 223680, Note_on_c, 10, 53, 96
12, 223722, Note_on_c, 10, 52, 0
12, 223830, Note_on_c, 10, 53, 0
12, 224160, Note_on_c, 10, 46, 96
12, 224330, Note_on_c, 10, 46, 0
12, 224640, Note_on_c, 10, 48, 96
12, 224796, Note_on_c, 10, 48, 0
12, 225120, Note_on_c, 10, 48, 96
12, 225294, Note_on_c, 10, 48, 0
12, 225600, Note_on_c, 10, 47, 96
12, 226680, Note_on_c, 10, 48, 96
12, 226734, Note_on_c, 10, 47, 0
12, 226800, Note_on_c, 10, 50, 96
12, 226860, Note_on_c, 10, 48, 0
12, 226920, Note_on_c, 10, 48, 96
12, 226986, Note_on_c, 10, 50, 0
12, 227040, Note_on_c, 10, 47, 96
12, 227096, Note_on_c, 10, 48, 0
12, 227160, Note_on_c, 10, 43, 96
12, 227204, Note_on_c, 10, 47, 0
12, 227280, Note_on_c, 10, 45, 96
12, 227352, Note_on_c, 10, 43, 0
12, 227400, Note_on_c, 10, 47, 96
12, 227454, Note_on_c, 10, 45, 0
12, 227520, Note_on_c, 10, 48, 96
12, 227574, Note_on_c, 10, 47, 0
12, 227640, Note_on_c, 10, 48, 0
12, 228000, Note_on_c, 10, 53, 96
12, 228114, Note_on_c, 10, 53, 0
12, 228480, Note_on_c, 10, 55, 96
12, 228600, Note_on_c, 10, 55, 0
12, 228960, Note_on_c, 10, 43, 96
12, 229084, Note_on_c, 10, 43, 0
12, 229440, Note_on_c, 10, 48, 96
12, 229546, Note_on_c, 10, 48, 0
12, 231120, Note_on_c, 10, 45, 96
12, 231212, Note_on_c, 10, 45, 0
12, 231360, Note_on_c, 10, 50, 96
12, 231460, Note_on_c, 10, 50, 0
12, 233040, Note_on_c, 10, 47, 96
12, 233146, Note_on_c, 10, 47, 0
12, 233280, Note_on_c, 10, 52, 96
12, 233376, Note_on_c, 10, 52, 0
12, 234960, Note_on_c, 10, 48, 96
12, 235062, Note_on_c, 10, 48, 0
12, 235200, Note_on_c, 10, 53, 96
12, 235292, Note_on_c, 10, 53, 0
12, 235920, Note_on_c, 10, 50, 96
12, 236012, Note_on_c, 10, 50, 0
12, 236160, Note_on_c, 10, 55, 96
12, 236256, Note_on_c, 10, 55, 0
12, 236880, Note_on_c, 10, 52, 96
12, 236976, Note_on_c, 10, 52, 0
12, 237120, Note_on_c, 10, 57, 96
12, 237214, Note_on_c, 10, 57, 0
12, 237360, Note_on_c, 10, 56, 96
12, 237462, Note_on_c, 10, 56, 0
12, 237600, Note_on_c, 10, 57, 96
12, 237696, Note_on_c, 10, 57, 0
12, 237840, Note_on_c, 10, 59, 96
12, 237926, Note_on_c, 10, 59, 0
12, 238080, Note_on_c, 10, 60, 96
12, 238172, Note_on_c, 10, 60, 0
12, 238320, Note_on_c, 10, 59, 96
12, 238420, Note_on_c, 10, 59, 0
12, 238560, Note_on_c, 10, 60, 96
12, 238650, Note_on_c, 10, 60, 0
12, 238800, Note_on_c, 10, 62, 96
12, 238894, Note_on_c, 10, 62, 0
12, 239040, Note_on_c, 10, 64, 96
12, 239130, Note_on_c, 10, 64, 0
12, 239280, Note_on_c, 10, 47, 96
12, 239386, Note_on_c, 10, 47, 0
12, 239520, Note_on_c, 10, 48, 96
12, 239612, Note_on_c, 10, 48, 0
12, 239760, Note_on_c, 10, 50, 96
12, 239846, Note_on_c, 10, 50, 0
12, 240000, Note_on_c, 10, 52, 96
12, 240086, Note_on_c, 10, 52, 0
12, 240240, Note_on_c, 10, 50, 96
12, 240334, Note_on_c, 10, 50, 0
12, 240480, Note_on_c, 10, 52, 96
12, 240566, Note_on_c, 10, 52, 0
12, 240720, Note_on_c, 10, 53, 96
12, 240806, Note_on_c, 10, 53, 0
12, 240960, Note_on_c, 10, 55, 96
12, 241044, Note_on_c, 10, 55, 0
12, 241200, Note_on_c, 10, 47, 96
12, 241440, Note_on_c, 10, 48, 96
12, 241526, Note_on_c, 10, 47, 0
12, 241680, Note_on_c, 10, 52, 96
12, 241760, Note_on_c, 10, 48, 0
12, 241920, Note_on_c, 10, 55, 96
12, 241972, Note_on_c, 10, 52, 0
12, 242606, Note_on_c, 10, 55, 0
12, 242640, Note_on_c, 10, 56, 96
12, 242726, Note_on_c, 10, 56, 0
12, 242880, Note_on_c, 10, 57, 96
12, 242966, Note_on_c, 10, 57, 0
12, 243120, Note_on_c, 10, 56, 96
12, 243360, Note_on_c, 10, 57, 96
12, 243396, Note_on_c, 10, 56, 0
12, 243600, Note_on_c, 10, 60, 96
12, 243652, Note_on_c, 10, 57, 0
12, 243840, Note_on_c, 10, 64, 96
12, 243890, Note_on_c, 10, 60, 0
12, 244426, Note_on_c, 10, 64, 0
12, 244560, Note_on_c, 10, 52, 96
12, 244642, Note_on_c, 10, 52, 0
12, 244800, Note_on_c, 10, 53, 96
12, 245400, Note_on_c, 10, 50, 96
12, 245456, Note_on_c, 10, 53, 0
12, 245520, Note_on_c, 10, 52, 96
12, 245594, Note_on_c, 10, 50, 0
12, 245640, Note_on_c, 10, 53, 96
12, 245714, Note_on_c, 10, 52, 0
12, 245760, Note_on_c, 10, 55, 96
12, 245804, Note_on_c, 10, 53, 0
12, 245880, Note_on_c, 10, 54, 96
12, 245932, Note_on_c, 10, 55, 0
12, 246000, Note_on_c, 10, 55, 96
12, 246050, Note_on_c, 10, 54, 0
12, 246120, Note_on_c, 10, 54, 96
12, 246164, Note_on_c, 10, 55, 0
12, 246240, Note_on_c, 10, 55, 96
12, 246310, Note_on_c, 10, 54, 0
12, 246350, Note_on_c, 10, 55, 0
12, 246480, Note_on_c, 10, 43, 96
12, 246576, Note_on_c, 10, 43, 0
12, 246720, Note_on_c, 10, 48, 96
12, 246840, Note_on_c, 10, 50, 96
12, 246890, Note_on_c, 10, 48, 0
12, 246960, Note_on_c, 10, 48, 96
12, 247014, Note_on_c, 10, 50, 0
12, 247080, Note_on_c, 10, 47, 96
12, 247136, Note_on_c, 10, 48, 0
12, 247200, Note_on_c, 10, 48, 96
12, 247226, Note_on_c, 10, 47, 0
12, 247320, Note_on_c, 10, 50, 96
12, 247366, Note_on_c, 10, 48, 0
12, 247440, Note_on_c, 10, 52, 96
12, 247492, Note_on_c, 10, 50, 0
12, 247560, Note_on_c, 10, 53, 96
12, 247626, Note_on_c, 10, 52, 0
12, 247680, Note_on_c, 10, 55, 96
12, 247740, Note_on_c, 10, 53, 0
12, 248276, Note_on_c, 10, 55, 0
12, 248400, Note_on_c, 10, 56, 96
12, 248502, Note_on_c, 10, 56, 0
12, 248640, Note_on_c, 10, 57, 96
12, 248760, Note_on_c, 10, 59, 96
12, 248822, Note_on_c, 10, 57, 0
12, 248880, Note_on_c, 10, 57, 96
12, 248914, Note_on_c, 10, 59, 0
12, 249000, Note_on_c, 10, 56, 96
12, 249050, Note_on_c, 10, 57, 0
12, 249120, Note_on_c, 10, 57, 96
12, 249166, Note_on_c, 10, 56, 0
12, 249240, Note_on_c, 10, 59, 96
12, 249294, Note_on_c, 10, 57, 0
12, 249360, Note_on_c, 10, 60, 96
12, 249440, Note_on_c, 10, 59, 0
12, 249480, Note_on_c, 10, 62, 96
12, 249536, Note_on_c, 10, 60, 0
12, 249600, Note_on_c, 10, 64, 96
12, 249654, Note_on_c, 10, 62, 0
12, 250156, Note_on_c, 10, 64, 0
12, 250320, Note_on_c, 10, 52, 96
12, 250406, Note_on_c, 10, 52, 0
12, 250560, Note_on_c, 10, 53, 96
12, 250680, Note_on_c, 10, 52, 96
12, 250704, Note_on_c, 10, 53, 0
12, 250800, Note_on_c, 10, 53, 96
12, 250866, Note_on_c, 10, 52, 0
12, 250920, Note_on_c, 10, 52, 96
12, 250964, Note_on_c, 10, 53, 0
12, 251040, Note_on_c, 10, 53, 96
12, 251094, Note_on_c, 10, 52, 0
12, 251160, Note_on_c, 10, 50, 96
12, 251194, Note_on_c, 10, 53, 0
12, 251280, Note_on_c, 10, 52, 96
12, 251344, Note_on_c, 10, 50, 0
12, 251400, Note_on_c, 10, 53, 96
12, 251460, Note_on_c, 10, 52, 0
12, 251520, Note_on_c, 10, 55, 96
12, 251550, Note_on_c, 10, 53, 0
12, 251640, Note_on_c, 10, 54, 96
12, 251696, Note_on_c, 10, 55, 0
12, 251760, Note_on_c, 10, 55, 96
12, 251806, Note_on_c, 10, 54, 0
12, 251880, Note_on_c, 10, 54, 96
12, 251912, Note_on_c, 10, 55, 0
12, 252000, Note_on_c, 10, 55, 96
12, 252054, Note_on_c, 10, 54, 0
12, 252114, Note_on_c, 10, 55, 0
12, 252240, Note_on_c, 10, 43, 96
12, 252350, Note_on_c, 10, 43, 0
12, 252480, Note_on_c, 10, 48, 96
12, 252580, Note_on_c, 10, 48, 0
12, 254400, Note_on_c, 10, 55, 67
12, 254472, Note_on_c, 10, 55, 0
12, 254640, Note_on_c, 10, 56, 96
12, 254976, Note_on_c, 10, 56, 0
12, 255120, Note_on_c, 10, 56, 96
12, 255194, Note_on_c, 10, 56, 0
12, 255360, Note_on_c, 10, 55, 96
12, 255432, Note_on_c, 10, 55, 0
12, 255600, Note_on_c, 10, 53, 96
12, 255672, Note_on_c, 10, 53, 0
12, 255840, Note_on_c, 10, 52, 96
12, 255916, Note_on_c, 10, 52, 0
12, 256080, Note_on_c, 10, 50, 96
12, 256162, Note_on_c, 10, 50, 0
12, 256320, Note_on_c, 10, 48, 96
12, 256406, Note_on_c, 10, 48, 0
12, 258240, Note_on_c, 10, 55, 67
12, 258312, Note_on_c, 10, 55, 0
12, 258480, Note_on_c, 10, 56, 96
12, 258824, Note_on_c, 10, 56, 0
12, 258960, Note_on_c, 10, 56, 96
12, 259042, Note_on_c, 10, 56, 0
12, 259200, Note_on_c, 10, 55, 96
12, 259280, Note_on_c, 10, 55, 0
12, 259440, Note_on_c, 10, 53, 96
12, 259512, Note_on_c, 10, 53, 0
12, 259680, Note_on_c, 10, 52, 96
12, 259760, Note_on_c, 10, 52, 0
12, 259920, Note_on_c, 10, 50, 96
12, 260002, Note_on_c, 10, 50, 0
12, 260160, Note_on_c, 10, 49, 96
12, 260234, Note_on_c, 10, 49, 0
12, 260400, Note_on_c, 10, 58, 96
12, 260794, Note_on_c, 10, 58, 0
12, 260880, Note_on_c, 10, 58, 96
12, 260956, Note_on_c, 10, 58, 0
12, 261120, Note_on_c, 10, 57, 96
12, 261194, Note_on_c, 10, 57, 0
12, 261360, Note_on_c, 10, 55, 96
12, 261434, Note_on_c, 10, 55, 0
12, 261600, Note_on_c, 10, 53, 96
12, 261672, Note_on_c, 10, 53, 0
12, 261840, Note_on_c, 10, 52, 96
12, 261914, Note_on_c, 10, 52, 0
12, 262080, Note_on_c, 10, 51, 96
12, 262154, Note_on_c, 10, 51, 0
12, 262320, Note_on_c, 10, 60, 96
12, 262692, Note_on_c, 10, 60, 0
12, 262800, Note_on_c, 10, 60, 96
12, 262874, Note_on_c, 10, 60, 0
12, 263040, Note_on_c, 10, 52, 96
12, 263112, Note_on_c, 10, 52, 0
12, 263280, Note_on_c, 10, 61, 96
12, 263636, Note_on_c, 10, 61, 0
12, 263760, Note_on_c, 10, 61, 96
12, 263854, Note_on_c, 10, 61, 0
12, 264000, Note_on_c, 10, 53, 96
12, 264090, Note_on_c, 10, 53, 0
12, 264240, Note_on_c, 10, 62, 96
12, 264584, Note_on_c, 10, 62, 0
12, 264720, Note_on_c, 10, 62, 96
12, 264804, Note_on_c, 10, 62, 0
12, 264960, Note_on_c, 10, 54, 96
12, 265052, Note_on_c, 10, 54, 0
12, 265200, Note_on_c, 10, 63, 96
12, 265560, Note_on_c, 10, 63, 0
12, 265680, Note_on_c, 10, 63, 96
12, 265756, Note_on_c, 10, 63, 0
12, 265920, Note_on_c, 10, 54, 96
12, 267010, Note_on_c, 10, 54, 0
12, 267120, Note_on_c, 10, 54, 96
12, 267360, Note_on_c, 10, 56, 96
12, 267436, Note_on_c, 10, 54, 0
12, 267600, Note_on_c, 10, 54, 96
12, 267664, Note_on_c, 10, 56, 0
12, 267840, Note_on_c, 10, 53, 96
12, 267896, Note_on_c, 10, 54, 0
12, 268140, Note_on_c, 10, 53, 0
12, 268320, Note_on_c, 10, 54, 96
12, 269014, Note_on_c, 10, 54, 0
12, 269040, Note_on_c, 10, 54, 96
12, 269280, Note_on_c, 10, 56, 96
12, 269356, Note_on_c, 10, 54, 0
12, 269520, Note_on_c, 10, 54, 96
12, 269576, Note_on_c, 10, 56, 0
12, 269760, Note_on_c, 10, 53, 96
12, 269836, Note_on_c, 10, 54, 0
12, 269972, Note_on_c, 10, 53, 0
12, 270240, Note_on_c, 10, 54, 127
12, 270922, Note_on_c, 10, 54, 0
12, 270960, Note_on_c, 10, 54, 127
12, 271040, Note_on_c, 10, 54, 0
12, 271200, Note_on_c, 10, 54, 127
12, 271280, Note_on_c, 10, 54, 0
12, 271440, Note_on_c, 10, 54, 127
12, 271526, Note_on_c, 10, 54, 0
12, 271680, Note_on_c, 10, 55, 127
12, 271770, Note_on_c, 10, 55, 0
12, 271800, Note_on_c, 10, 55, 127
12, 271890, Note_on_c, 10, 55, 0
12, 271920, Note_on_c, 10, 55, 127
12, 272004, Note_on_c, 10, 55, 0
12, 272040, Note_on_c, 10, 55, 127
12, 272122, Note_on_c, 10, 55, 0
12, 272160, Note_on_c, 10, 55, 127
12, 272244, Note_on_c, 10, 55, 0
12, 272280, Note_on_c, 10, 55, 127
12, 272362, Note_on_c, 10, 55, 0
12, 272400, Note_on_c, 10, 55, 127
12, 272480, Note_on_c, 10, 55, 0
12, 272520, Note_on_c, 10, 55, 127
12, 272596, Note_on_c, 10, 55, 0
12, 272640, Note_on_c, 10, 56, 127
12, 272730, Note_on_c, 10, 56, 0
12, 272760, Note_on_c, 10, 56, 127
12, 272842, Note_on_c, 10, 56, 0
12, 272880, Note_on_c, 10, 56, 127
12, 272964, Note_on_c, 10, 56, 0
12, 273000, Note_on_c, 10, 56, 127
12, 273084, Note_on_c, 10, 56, 0
12, 273120, Note_on_c, 10, 56, 127
12, 273206, Note_on_c, 10, 56, 0
12, 273240, Note_on_c, 10, 56, 127
12, 273324, Note_on_c, 10, 56, 0
12, 273360, Note_on_c, 10, 56, 127
12, 273446, Note_on_c, 10, 56, 0
12, 273480, Note_on_c, 10, 56, 127
12, 273570, Note_on_c, 10, 56, 0
12, 273600, Note_on_c, 10, 57, 127
12, 273686, Note_on_c, 10, 57, 0
12, 273720, Note_on_c, 10, 57, 127
12, 273804, Note_on_c, 10, 57, 0
12, 273840, Note_on_c, 10, 57, 127
12, 273922, Note_on_c, 10, 57, 0
12, 273960, Note_on_c, 10, 57, 127
12, 274046, Note_on_c, 10, 57, 0
12, 274080, Note_on_c, 10, 57, 127
12, 274160, Note_on_c, 10, 57, 0
12, 274200, Note_on_c, 10, 57, 127
12, 274284, Note_on_c, 10, 57, 0
12, 274320, Note_on_c, 10, 57, 127
12, 274400, Note_on_c, 10, 57, 0
12, 274440, Note_on_c, 10, 57, 127
12, 274524, Note_on_c, 10, 57, 0
12, 274560, Note_on_c, 10, 57, 127
12, 274560, Note_on_c, 10, 55, 127
12, 274616, Note_on_c, 10, 57, 0
12, 274630, Note_on_c, 10, 55, 0
12, 274680, Note_on_c, 10, 55, 127
12, 274762, Note_on_c, 10, 55, 0
12, 274800, Note_on_c, 10, 55, 127
12, 274872, Note_on_c, 10, 55, 0
12, 274920, Note_on_c, 10, 55, 127
12, 274980, Note_on_c, 10, 55, 0
12, 275040, Note_on_c, 10, 43, 127
12, 275120, Note_on_c, 10, 43, 0
12, 275160, Note_on_c, 10, 43, 127
12, 275242, Note_on_c, 10, 43, 0
12, 275280, Note_on_c, 10, 43, 127
12, 275356, Note_on_c, 10, 43, 0
12, 275400, Note_on_c, 10, 43, 127
12, 275486, Note_on_c, 10, 43, 0
12, 275520, Note_on_c, 10, 48, 96
12, 276382, Note_on_c, 10, 48, 0
12, 276480, Note_on_c, 10, 45, 96
12, 277352, Note_on_c, 10, 45, 0
12, 277440, Note_on_c, 10, 50, 96
12, 278292, Note_on_c, 10, 50, 0
12, 278400, Note_on_c, 10, 43, 96
12, 279282, Note_on_c, 10, 43, 0
12, 279360, Note_on_c, 10, 48, 96
12, 280240, Note_on_c, 10, 48, 0
12, 280320, Note_on_c, 10, 45, 96
12, 281190, Note_on_c, 10, 45, 0
12, 281280, Note_on_c, 10, 50, 96
12, 282116, Note_on_c, 10, 50, 0
12, 282240, Note_on_c, 10, 43, 96
12, 283160, Note_on_c, 10, 43, 0
12, 283200, Note_on_c, 10, 48, 96
12, 283554, Note_on_c, 10, 48, 0
12, 283680, Note_on_c, 10, 45, 96
12, 284046, Note_on_c, 10, 45, 0
12, 284160, Note_on_c, 10, 50, 96
12, 284504, Note_on_c, 10, 50, 0
12, 284640, Note_on_c, 10, 43, 96
12, 285012, Note_on_c, 10, 43, 0
12, 285120, Note_on_c, 10, 48, 96
12, 285220, Note_on_c, 10, 48, 0
12, 285240, Note_on_c, 10, 48, 96
12, 285330, Note_on_c, 10, 48, 0
12, 285360, Note_on_c, 10, 48, 96
12, 285450, Note_on_c, 10, 48, 0
12, 285480, Note_on_c, 10, 48, 96
12, 285570, Note_on_c, 10, 48, 0
12, 285600, Note_on_c, 10, 45, 96
12, 285700, Note_on_c, 10, 45, 0
12, 285720, Note_on_c, 10, 45, 96
12, 285816, Note_on_c, 10, 45, 0
12, 285840, Note_on_c, 10, 45, 96
12, 285924, Note_on_c, 10, 45, 0
12, 285960, Note_on_c, 10, 45, 96
12, 286054, Note_on_c, 10, 45, 0
12, 286080, Note_on_c, 10, 50, 96
12, 286172, Note_on_c, 10, 50, 0
12, 286200, Note_on_c, 10, 50, 96
12, 286294, Note_on_c, 10, 50, 0
12, 286320, Note_on_c, 10, 50, 96
12, 286396, Note_on_c, 10, 50, 0
12, 286440, Note_on_c, 10, 50, 96
12, 286532, Note_on_c, 10, 50, 0
12, 286560, Note_on_c, 10, 43, 96
12, 286664, Note_on_c, 10, 43, 0
12, 286680, Note_on_c, 10, 43, 96
12, 286784, Note_on_c, 10, 43, 0
12, 286800, Note_on_c, 10, 43, 96
12, 286886, Note_on_c, 10, 43, 0
12, 286920, Note_on_c, 10, 43, 96
12, 287022, Note_on_c, 10, 43, 0
12, 287040, Note_on_c, 10, 48, 96
12, 288124, Note_on_c, 10, 48, 0
12, 288240, Note_on_c, 10, 60, 96
12, 288332, Note_on_c, 10, 60, 0
12, 288480, Note_on_c, 10, 59, 96
12, 288564, Note_on_c, 10, 59, 0
12, 288720, Note_on_c, 10, 57, 96
12, 288810, Note_on_c, 10, 57, 0
12, 288960, Note_on_c, 10, 55, 96
12, 290010, Note_on_c, 10, 55, 0
12, 290160, Note_on_c, 10, 57, 96
12, 290234, Note_on_c, 10, 57, 0
12, 290400, Note_on_c, 10, 55, 96
12, 290476, Note_on_c, 10, 55, 0
12, 290640, Note_on_c, 10, 53, 96
12, 290720, Note_on_c, 10, 53, 0
12, 290880, Note_on_c, 10, 52, 96
12, 291880, Note_on_c, 10, 52, 0
12, 292080, Note_on_c, 10, 53, 96
12, 292160, Note_on_c, 10, 53, 0
12, 292320, Note_on_c, 10, 52, 96
12, 292400, Note_on_c, 10, 52, 0
12, 292560, Note_on_c, 10, 50, 96
12, 292644, Note_on_c, 10, 50, 0
12, 292800, Note_on_c, 10, 48, 96
12, 292920, Note_on_c, 10, 48, 0
12, 293040, Note_on_c, 10, 53, 96
12, 293120, Note_on_c, 10, 53, 0
12, 293280, Note_on_c, 10, 52, 96
12, 293362, Note_on_c, 10, 52, 0
12, 293520, Note_on_c, 10, 50, 96
12, 293612, Note_on_c, 10, 50, 0
12, 293760, Note_on_c, 10, 48, 96
12, 293880, Note_on_c, 10, 48, 0
12, 294000, Note_on_c, 10, 53, 96
12, 294084, Note_on_c, 10, 53, 0
12, 294240, Note_on_c, 10, 52, 96
12, 294324, Note_on_c, 10, 52, 0
12, 294480, Note_on_c, 10, 50, 96
12, 294584, Note_on_c, 10, 50, 0
12, 294720, Note_on_c, 10, 48, 96
12, 294832, Note_on_c, 10, 48, 0
12, 294960, Note_on_c, 10, 53, 96
12, 295046, Note_on_c, 10, 53, 0
12, 295200, Note_on_c, 10, 52, 96
12, 295292, Note_on_c, 10, 52, 0
12, 295440, Note_on_c, 10, 50, 96
12, 295544, Note_on_c, 10, 50, 0
12, 295680, Note_on_c, 10, 48, 96
12, 295786, Note_on_c, 10, 48, 0
12, 295920, Note_on_c, 10, 53, 96
12, 296012, Note_on_c, 10, 53, 0
12, 296160, Note_on_c, 10, 52, 96
12, 296256, Note_on_c, 10, 52, 0
12, 296400, Note_on_c, 10, 50, 96
12, 296494, Note_on_c, 10, 50, 0
12, 296640, Note_on_c, 10, 48, 96
12, 296832, Note_on_c, 10, 48, 0
12, 297600, Note_on_c, 10, 60, 96
12, 297792, Note_on_c, 10, 60, 0
12, 298560, Note_on_c, 10, 60, 96
12, 298752, Note_on_c, 10, 60, 0
12, 299520, Note_on_c, 10, 48, 96
12, 299712, Note_on_c, 10, 48, 0
12, 300480, Note_on_c, 10, 48, 96
12, 300672, Note_on_c, 10, 48, 0
12, 301440, Note_on_c, 10, 48, 96
12, 301632, Note_on_c, 10, 48, 0
12, 302400, Note_on_c, 10, 48, 96
12, 302568, Note_on_c, 10, 48, 0
12, 303360, Note_on_c, 10, 48, 127
12, 303480, Note_on_c, 10, 48, 0
12, 303840, Note_on_c, 10, 48, 127
12, 303960, Note_on_c, 10, 48, 0
12, 304320, Note_on_c, 10, 48, 127
12, 304440, Note_on_c, 10, 48, 0
12, 304440, End_track
13, 0, Start_track
13, 0, Title_t, "Bass"
13, 0, Program_c, 11, 48
13, 0, Control_c, 11, 7, 127
13, 0, Control_c, 11, 10, 63
13, 0, Control_c, 11, 10, 90
13, 960, Note_on_c, 11, 34, 96
13, 1160, Note_on_c, 11, 34, 0
13, 3840, Note_on_c, 11, 33, 96
13, 4050, Note_on_c, 11, 33, 0
13, 6720, Note_on_c, 11, 32, 96
13, 6990, Note_on_c, 11, 32, 0
13, 7680, Note_on_c, 11, 44, 96
13, 7834, Note_on_c, 11, 44, 0
13, 8640, Note_on_c, 11, 44, 96
13, 8780, Note_on_c, 11, 44, 0
13, 9600, Note_on_c, 11, 43, 96
13, 9778, Note_on_c, 11, 43, 0
13, 10440, Note_on_c, 11, 31, 96
13, 10536, Note_on_c, 11, 31, 0
13, 10560, Note_on_c, 11, 31, 96
13, 12840, Note_on_c, 11, 31, 0
13, 14400, Note_on_c, 11, 36, 64
13, 14416, Control_c, 11, 7, 60
13, 16320, Note_on_c, 11, 31, 64
13, 16332, Note_on_c, 11, 36, 0
13, 17280, Note_on_c, 11, 36, 64
13, 17360, Note_on_c, 11, 31, 0
13, 18992, Note_on_c, 11, 36, 0
13, 19200, Note_on_c, 11, 36, 64
13, 20160, Note_on_c, 11, 35, 64
13, 20172, Note_on_c, 11, 36, 0
13, 20896, Note_on_c, 11, 35, 0
13, 21120, Note_on_c, 11, 31, 64
13, 22080, Note_on_c, 11, 36, 64
13, 22118, Note_on_c, 11, 31, 0
13, 23040, Note_on_c, 11, 31, 64
13, 23050, Note_on_c, 11, 36, 0
13, 24164, Note_on_c, 11, 31, 0
13, 24480, Note_on_c, 11, 31, 64
13, 24714, Note_on_c, 11, 31, 0
13, 24960, Note_on_c, 11, 31, 64
13, 25178, Note_on_c, 11, 31, 0
13, 25440, Note_on_c, 11, 31, 64
13, 25702, Note_on_c, 11, 31, 0
13, 25920, Note_on_c, 11, 36, 64
13, 26880, Note_on_c, 11, 40, 64
13, 26962, Note_on_c, 11, 36, 0
13, 27840, Note_on_c, 11, 43, 64
13, 27872, Note_on_c, 11, 40, 0
13, 28766, Note_on_c, 11, 43, 0
13, 28800, Note_on_c, 11, 36, 64
13, 29760, Note_on_c, 11, 40, 64
13, 29776, Note_on_c, 11, 36, 0
13, 30720, Note_on_c, 11, 43, 64
13, 30816, Note_on_c, 11, 40, 0
13, 31596, Note_on_c, 11, 43, 0
13, 31680, Note_on_c, 11, 36, 64
13, 32356, Note_on_c, 11, 36, 0
13, 32640, Note_on_c, 11, 29, 64
13, 33408, Note_on_c, 11, 29, 0
13, 33600, Note_on_c, 11, 29, 64
13, 34266, Note_on_c, 11, 29, 0
13, 34560, Note_on_c, 11, 31, 64
13, 35646, Note_on_c, 11, 31, 0
13, 37440, Note_on_c, 11, 36, 64
13, 38880, Note_on_c, 11, 40, 64
13, 38954, Note_on_c, 11, 36, 0
13, 39360, Note_on_c, 11, 43, 64
13, 39434, Note_on_c, 11, 40, 0
13, 39840, Note_on_c, 11, 31, 64
13, 39904, Note_on_c, 11, 43, 0
13, 40320, Note_on_c, 11, 36, 64
13, 40356, Note_on_c, 11, 31, 0
13, 41760, Note_on_c, 11, 40, 64
13, 41772, Note_on_c, 11, 36, 0
13, 42240, Note_on_c, 11, 43, 64
13, 42264, Note_on_c, 11, 40, 0
13, 42720, Note_on_c, 11, 43, 0
13, 42720, Note_on_c, 11, 31, 64
13, 43196, Note_on_c, 11, 31, 0
13, 43200, Note_on_c, 11, 33, 64
13, 43664, Note_on_c, 11, 33, 0
13, 44100, Control_c, 11, 7, 80
13, 44160, Note_on_c, 11, 42, 83
13, 44640, Control_c, 11, 7, 75
13, 45090, Control_c, 11, 7, 70
13, 45600, Control_c, 11, 7, 65
13, 46080, Note_on_c, 11, 42, 0
13, 46080, Control_c, 11, 7, 60
13, 46080, Note_on_c, 11, 43, 45
13, 46380, Note_on_c, 11, 43, 0
13, 47040, Note_on_c, 11, 31, 45
13, 47398, Note_on_c, 11, 31, 0
13, 48000, Note_on_c, 11, 31, 45
13, 48340, Note_on_c, 11, 31, 0
13, 48960, Note_on_c, 11, 36, 53
13, 48960, Control_c, 11, 7, 100
13, 49062, Note_on_c, 11, 36, 0
13, 49920, Note_on_c, 11, 36, 53
13, 50030, Note_on_c, 11, 36, 0
13, 50880, Note_on_c, 11, 36, 53
13, 50974, Note_on_c, 11, 36, 0
13, 51360, Note_on_c, 11, 36, 53
13, 51460, Note_on_c, 11, 36, 0
13, 51840, Note_on_c, 11, 36, 53
13, 51934, Note_on_c, 11, 36, 0
13, 52800, Note_on_c, 11, 36, 53
13, 52896, Note_on_c, 11, 36, 0
13, 53760, Note_on_c, 11, 36, 53
13, 53854, Note_on_c, 11, 36, 0
13, 54720, Note_on_c, 11, 35, 53
13, 54806, Note_on_c, 11, 35, 0
13, 55200, Note_on_c, 11, 35, 53
13, 55284, Note_on_c, 11, 35, 0
13, 55680, Note_on_c, 11, 35, 53
13, 55766, Note_on_c, 11, 35, 0
13, 56640, Note_on_c, 11, 36, 53
13, 56716, Note_on_c, 11, 36, 0
13, 56880, Note_on_c, 11, 48, 53
13, 57360, Note_on_c, 11, 47, 53
13, 57392, Note_on_c, 11, 48, 0
13, 57444, Note_on_c, 11, 47, 0
13, 57600, Note_on_c, 11, 48, 53
13, 57682, Note_on_c, 11, 48, 0
13, 57840, Note_on_c, 11, 48, 53
13, 58244, Note_on_c, 11, 48, 0
13, 58320, Note_on_c, 11, 47, 53
13, 58390, Note_on_c, 11, 47, 0
13, 58560, Note_on_c, 11, 48, 53
13, 58632, Note_on_c, 11, 48, 0
13, 58800, Note_on_c, 11, 47, 53
13, 58870, Note_on_c, 11, 47, 0
13, 59040, Note_on_c, 11, 45, 53
13, 59126, Note_on_c, 11, 45, 0
13, 59280, Note_on_c, 11, 50, 53
13, 59346, Note_on_c, 11, 50, 0
13, 59520, Note_on_c, 11, 43, 53
13, 59594, Note_on_c, 11, 43, 0
13, 60480, Note_on_c, 11, 36, 64
13, 60572, Note_on_c, 11, 36, 0
13, 60600, Note_on_c, 11, 36, 64
13, 60696, Note_on_c, 11, 36, 0
13, 60720, Note_on_c, 11, 36, 64
13, 60812, Note_on_c, 11, 36, 0
13, 60840, Note_on_c, 11, 36, 64
13, 60932, Note_on_c, 11, 36, 0
13, 60960, Note_on_c, 11, 36, 64
13, 61052, Note_on_c, 11, 36, 0
13, 61080, Note_on_c, 11, 36, 64
13, 61166, Note_on_c, 11, 36, 0
13, 61200, Note_on_c, 11, 36, 64
13, 61290, Note_on_c, 11, 36, 0
13, 61320, Note_on_c, 11, 36, 64
13, 61412, Note_on_c, 11, 36, 0
13, 61440, Note_on_c, 11, 36, 64
13, 61534, Note_on_c, 11, 36, 0
13, 61560, Note_on_c, 11, 36, 64
13, 61652, Note_on_c, 11, 36, 0
13, 61680, Note_on_c, 11, 36, 64
13, 61766, Note_on_c, 11, 36, 0
13, 61800, Note_on_c, 11, 36, 64
13, 61884, Note_on_c, 11, 36, 0
13, 61920, Note_on_c, 11, 36, 64
13, 62010, Note_on_c, 11, 36, 0
13, 62040, Note_on_c, 11, 36, 64
13, 62126, Note_on_c, 11, 36, 0
13, 62160, Note_on_c, 11, 36, 64
13, 62244, Note_on_c, 11, 36, 0
13, 62280, Note_on_c, 11, 36, 64
13, 62364, Note_on_c, 11, 36, 0
13, 62400, Note_on_c, 11, 36, 64
13, 62482, Note_on_c, 11, 36, 0
13, 62520, Note_on_c, 11, 36, 64
13, 62606, Note_on_c, 11, 36, 0
13, 62640, Note_on_c, 11, 36, 64
13, 62726, Note_on_c, 11, 36, 0
13, 62760, Note_on_c, 11, 36, 64
13, 62842, Note_on_c, 11, 36, 0
13, 62880, Note_on_c, 11, 36, 64
13, 62960, Note_on_c, 11, 36, 0
13, 63000, Note_on_c, 11, 36, 64
13, 63084, Note_on_c, 11, 36, 0
13, 63120, Note_on_c, 11, 36, 64
13, 63210, Note_on_c, 11, 36, 0
13, 63240, Note_on_c, 11, 36, 64
13, 63330, Note_on_c, 11, 36, 0
13, 63360, Note_on_c, 11, 36, 64
13, 63450, Note_on_c, 11, 36, 0
13, 63480, Note_on_c, 11, 36, 64
13, 63562, Note_on_c, 11, 36, 0
13, 63600, Note_on_c, 11, 36, 64
13, 63684, Note_on_c, 11, 36, 0
13, 63720, Note_on_c, 11, 36, 64
13, 63800, Note_on_c, 11, 36, 0
13, 63840, Note_on_c, 11, 36, 64
13, 63924, Note_on_c, 11, 36, 0
13, 63960, Note_on_c, 11, 36, 64
13, 64044, Note_on_c, 11, 36, 0
13, 64080, Note_on_c, 11, 36, 64
13, 64170, Note_on_c, 11, 36, 0
13, 64200, Note_on_c, 11, 36, 64
13, 64284, Note_on_c, 11, 36, 0
13, 64320, Note_on_c, 11, 36, 64
13, 64404, Note_on_c, 11, 36, 0
13, 64440, Note_on_c, 11, 36, 64
13, 64524, Note_on_c, 11, 36, 0
13, 64560, Note_on_c, 11, 36, 64
13, 64640, Note_on_c, 11, 36, 0
13, 64680, Note_on_c, 11, 36, 64
13, 64766, Note_on_c, 11, 36, 0
13, 64800, Note_on_c, 11, 36, 64
13, 64880, Note_on_c, 11, 36, 0
13, 64920, Note_on_c, 11, 36, 64
13, 64994, Note_on_c, 11, 36, 0
13, 65040, Note_on_c, 11, 36, 64
13, 65116, Note_on_c, 11, 36, 0
13, 65160, Note_on_c, 11, 36, 64
13, 65244, Note_on_c, 11, 36, 0
13, 65280, Note_on_c, 11, 36, 64
13, 65364, Note_on_c, 11, 36, 0
13, 65400, Note_on_c, 11, 36, 64
13, 65480, Note_on_c, 11, 36, 0
13, 65520, Note_on_c, 11, 36, 64
13, 65604, Note_on_c, 11, 36, 0
13, 65640, Note_on_c, 11, 36, 64
13, 65722, Note_on_c, 11, 36, 0
13, 65760, Note_on_c, 11, 36, 64
13, 65844, Note_on_c, 11, 36, 0
13, 65880, Note_on_c, 11, 36, 64
13, 65964, Note_on_c, 11, 36, 0
13, 66000, Note_on_c, 11, 36, 64
13, 66084, Note_on_c, 11, 36, 0
13, 66120, Note_on_c, 11, 36, 64
13, 66206, Note_on_c, 11, 36, 0
13, 66240, Note_on_c, 11, 35, 64
13, 66332, Note_on_c, 11, 35, 0
13, 66360, Note_on_c, 11, 35, 64
13, 66444, Note_on_c, 11, 35, 0
13, 66480, Note_on_c, 11, 35, 64
13, 66560, Note_on_c, 11, 35, 0
13, 66600, Note_on_c, 11, 35, 64
13, 66674, Note_on_c, 11, 35, 0
13, 66720, Note_on_c, 11, 35, 64
13, 66792, Note_on_c, 11, 35, 0
13, 66840, Note_on_c, 11, 35, 64
13, 66922, Note_on_c, 11, 35, 0
13, 66960, Note_on_c, 11, 35, 64
13, 67044, Note_on_c, 11, 35, 0
13, 67080, Note_on_c, 11, 35, 64
13, 67162, Note_on_c, 11, 35, 0
13, 67200, Note_on_c, 11, 35, 64
13, 67280, Note_on_c, 11, 35, 0
13, 67320, Note_on_c, 11, 35, 64
13, 67404, Note_on_c, 11, 35, 0
13, 67440, Note_on_c, 11, 35, 64
13, 67522, Note_on_c, 11, 35, 0
13, 67560, Note_on_c, 11, 35, 64
13, 67640, Note_on_c, 11, 35, 0
13, 67680, Note_on_c, 11, 35, 64
13, 67760, Note_on_c, 11, 35, 0
13, 67800, Note_on_c, 11, 35, 64
13, 67876, Note_on_c, 11, 35, 0
13, 67920, Note_on_c, 11, 35, 64
13, 67994, Note_on_c, 11, 35, 0
13, 68040, Note_on_c, 11, 35, 64
13, 68122, Note_on_c, 11, 35, 0
13, 68160, Note_on_c, 11, 36, 64
13, 68232, Note_on_c, 11, 36, 0
13, 68400, Note_on_c, 11, 48, 64
13, 68790, Note_on_c, 11, 48, 0
13, 68880, Note_on_c, 11, 47, 64
13, 68952, Note_on_c, 11, 47, 0
13, 69120, Note_on_c, 11, 48, 64
13, 69192, Note_on_c, 11, 48, 0
13, 69360, Note_on_c, 11, 45, 64
13, 69756, Note_on_c, 11, 45, 0
13, 69840, Note_on_c, 11, 44, 64
13, 69924, Note_on_c, 11, 44, 0
13, 70080, Note_on_c, 11, 45, 64
13, 70152, Note_on_c, 11, 45, 0
13, 70320, Note_on_c, 11, 41, 64
13, 70686, Note_on_c, 11, 41, 0
13, 70800, Note_on_c, 11, 40, 64
13, 70882, Note_on_c, 11, 40, 0
13, 71040, Note_on_c, 11, 41, 64
13, 71120, Note_on_c, 11, 41, 0
13, 71280, Note_on_c, 11, 38, 64
13, 71370, Note_on_c, 11, 38, 0
13, 71520, Note_on_c, 11, 41, 64
13, 71596, Note_on_c, 11, 41, 0
13, 71760, Note_on_c, 11, 42, 64
13, 71832, Note_on_c, 11, 42, 0
13, 72000, Note_on_c, 11, 31, 64
13, 72120, Note_on_c, 11, 43, 81
13, 72132, Note_on_c, 11, 31, 0
13, 72200, Note_on_c, 11, 43, 0
13, 72240, Note_on_c, 11, 43, 83
13, 72322, Note_on_c, 11, 43, 0
13, 72360, Note_on_c, 11, 43, 84
13, 72440, Note_on_c, 11, 43, 0
13, 72480, Note_on_c, 11, 43, 85
13, 72552, Note_on_c, 11, 43, 0
13, 72600, Note_on_c, 11, 43, 86
13, 72682, Note_on_c, 11, 43, 0
13, 72720, Note_on_c, 11, 43, 88
13, 72802, Note_on_c, 11, 43, 0
13, 72840, Note_on_c, 11, 43, 89
13, 72922, Note_on_c, 11, 43, 0
13, 72960, Note_on_c, 11, 31, 64
13, 73066, Note_on_c, 11, 31, 0
13, 73080, Note_on_c, 11, 43, 91
13, 73162, Note_on_c, 11, 43, 0
13, 73200, Note_on_c, 11, 43, 93
13, 73282, Note_on_c, 11, 43, 0
13, 73320, Note_on_c, 11, 43, 94
13, 73400, Note_on_c, 11, 43, 0
13, 73440, Note_on_c, 11, 43, 95
13, 73516, Note_on_c, 11, 43, 0
13, 73560, Note_on_c, 11, 43, 96
13, 73632, Note_on_c, 11, 43, 0
13, 73680, Note_on_c, 11, 43, 98
13, 73766, Note_on_c, 11, 43, 0
13, 73800, Note_on_c, 11, 43, 99
13, 73884, Note_on_c, 11, 43, 0
13, 73920, Note_on_c, 11, 31, 64
13, 74034, Note_on_c, 11, 31, 0
13, 74040, Note_on_c, 11, 43, 101
13, 74124, Note_on_c, 11, 43, 0
13, 74160, Note_on_c, 11, 43, 103
13, 74244, Note_on_c, 11, 43, 0
13, 74280, Note_on_c, 11, 43, 104
13, 74360, Note_on_c, 11, 43, 0
13, 74400, Note_on_c, 11, 43, 105
13, 74482, Note_on_c, 11, 43, 0
13, 74520, Note_on_c, 11, 43, 106
13, 74600, Note_on_c, 11, 43, 0
13, 74640, Note_on_c, 11, 43, 108
13, 74716, Note_on_c, 11, 43, 0
13, 74760, Note_on_c, 11, 43, 109
13, 74840, Note_on_c, 11, 43, 0
13, 74880, Note_on_c, 11, 31, 64
13, 74990, Note_on_c, 11, 31, 0
13, 75000, Note_on_c, 11, 43, 111
13, 75082, Note_on_c, 11, 43, 0
13, 75120, Note_on_c, 11, 43, 113
13, 75202, Note_on_c, 11, 43, 0
13, 75240, Note_on_c, 11, 43, 114
13, 75322, Note_on_c, 11, 43, 0
13, 75360, Note_on_c, 11, 43, 115
13, 75442, Note_on_c, 11, 43, 0
13, 75480, Note_on_c, 11, 43, 116
13, 75562, Note_on_c, 11, 43, 0
13, 75600, Note_on_c, 11, 43, 118
13, 75676, Note_on_c, 11, 43, 0
13, 75720, Note_on_c, 11, 43, 119
13, 75796, Note_on_c, 11, 43, 0
13, 75840, Note_on_c, 11, 43, 96
13, 75924, Note_on_c, 11, 43, 0
13, 76080, Note_on_c, 11, 38, 64
13, 76172, Note_on_c, 11, 38, 0
13, 76320, Note_on_c, 11, 43, 96
13, 76404, Note_on_c, 11, 43, 0
13, 76560, Note_on_c, 11, 38, 64
13, 76654, Note_on_c, 11, 38, 0
13, 76800, Note_on_c, 11, 43, 96
13, 76880, Note_on_c, 11, 43, 0
13, 77040, Note_on_c, 11, 38, 64
13, 77134, Note_on_c, 11, 38, 0
13, 77280, Note_on_c, 11, 43, 96
13, 77370, Note_on_c, 11, 43, 0
13, 77520, Note_on_c, 11, 38, 64
13, 77616, Note_on_c, 11, 38, 0
13, 77760, Note_on_c, 11, 43, 96
13, 77856, Note_on_c, 11, 43, 0
13, 78240, Note_on_c, 11, 31, 64
13, 78354, Note_on_c, 11, 31, 0
13, 78720, Note_on_c, 11, 31, 64
13, 78842, Note_on_c, 11, 31, 0
13, 79680, Note_on_c, 11, 43, 45
13, 79776, Note_on_c, 11, 43, 0
13, 87360, Note_on_c, 11, 43, 38
13, 87460, Note_on_c, 11, 43, 0
13, 88560, Note_on_c, 11, 31, 64
13, 88644, Note_on_c, 11, 31, 0
13, 88800, Note_on_c, 11, 35, 64
13, 88886, Note_on_c, 11, 35, 0
13, 89040, Note_on_c, 11, 38, 48
13, 89122, Note_on_c, 11, 38, 0
13, 89280, Note_on_c, 11, 43, 48
13, 89354, Note_on_c, 11, 43, 0
13, 89760, Note_on_c, 11, 39, 48
13, 89836, Note_on_c, 11, 39, 0
13, 90240, Note_on_c, 11, 40, 48
13, 90324, Note_on_c, 11, 40, 0
13, 90720, Note_on_c, 11, 36, 64
13, 90820, Note_on_c, 11, 36, 0
13, 91200, Note_on_c, 11, 38, 64
13, 91290, Note_on_c, 11, 38, 0
13, 92400, Note_on_c, 11, 38, 48
13, 92484, Note_on_c, 11, 38, 0
13, 92640, Note_on_c, 11, 40, 48
13, 92716, Note_on_c, 11, 40, 0
13, 92880, Note_on_c, 11, 42, 48
13, 92960, Note_on_c, 11, 42, 0
13, 93120, Note_on_c, 11, 43, 48
13, 93204, Note_on_c, 11, 43, 0
13, 93600, Note_on_c, 11, 36, 64
13, 93694, Note_on_c, 11, 36, 0
13, 94080, Note_on_c, 11, 38, 48
13, 94166, Note_on_c, 11, 38, 0
13, 94560, Note_on_c, 11, 38, 48
13, 94650, Note_on_c, 11, 38, 0
13, 95040, Note_on_c, 11, 43, 64
13, 95130, Note_on_c, 11, 43, 0
13, 96000, Note_on_c, 11, 47, 64
13, 96112, Note_on_c, 11, 47, 0
13, 96960, Note_on_c, 11, 45, 64
13, 97062, Note_on_c, 11, 45, 0
13, 97920, Note_on_c, 11, 38, 64
13, 98030, Note_on_c, 11, 38, 0
13, 98880, Note_on_c, 11, 43, 64
13, 98976, Note_on_c, 11, 43, 0
13, 99840, Note_on_c, 11, 47, 64
13, 99946, Note_on_c, 11, 47, 0
13, 100800, Note_on_c, 11, 45, 64
13, 100910, Note_on_c, 11, 45, 0
13, 101760, Note_on_c, 11, 38, 64
13, 101862, Note_on_c, 11, 38, 0
13, 102720, Note_on_c, 11, 31, 64
13, 102816, Note_on_c, 11, 31, 0
13, 102840, Note_on_c, 11, 43, 64
13, 102922, Note_on_c, 11, 43, 0
13, 102960, Note_on_c, 11, 43, 64
13, 103030, Note_on_c, 11, 43, 0
13, 103080, Note_on_c, 11, 43, 64
13, 103156, Note_on_c, 11, 43, 0
13, 103200, Note_on_c, 11, 43, 64
13, 103276, Note_on_c, 11, 43, 0
13, 103320, Note_on_c, 11, 43, 64
13, 103400, Note_on_c, 11, 43, 0
13, 103440, Note_on_c, 11, 43, 64
13, 103520, Note_on_c, 11, 43, 0
13, 103560, Note_on_c, 11, 43, 64
13, 103646, Note_on_c, 11, 43, 0
13, 103680, Note_on_c, 11, 43, 64
13, 103766, Note_on_c, 11, 43, 0
13, 103800, Note_on_c, 11, 43, 64
13, 103882, Note_on_c, 11, 43, 0
13, 103920, Note_on_c, 11, 43, 64
13, 104006, Note_on_c, 11, 43, 0
13, 104040, Note_on_c, 11, 43, 64
13, 104120, Note_on_c, 11, 43, 0
13, 104160, Note_on_c, 11, 43, 64
13, 104244, Note_on_c, 11, 43, 0
13, 104280, Note_on_c, 11, 43, 64
13, 104364, Note_on_c, 11, 43, 0
13, 104400, Note_on_c, 11, 43, 64
13, 104482, Note_on_c, 11, 43, 0
13, 104520, Note_on_c, 11, 43, 64
13, 104610, Note_on_c, 11, 43, 0
13, 104640, Note_on_c, 11, 41, 64
13, 104726, Note_on_c, 11, 41, 0
13, 104760, Note_on_c, 11, 41, 64
13, 104844, Note_on_c, 11, 41, 0
13, 104880, Note_on_c, 11, 41, 64
13, 104964, Note_on_c, 11, 41, 0
13, 105000, Note_on_c, 11, 41, 64
13, 105084, Note_on_c, 11, 41, 0
13, 105120, Note_on_c, 11, 41, 64
13, 105202, Note_on_c, 11, 41, 0
13, 105240, Note_on_c, 11, 41, 64
13, 105316, Note_on_c, 11, 41, 0
13, 105360, Note_on_c, 11, 41, 64
13, 105432, Note_on_c, 11, 41, 0
13, 105480, Note_on_c, 11, 41, 64
13, 105560, Note_on_c, 11, 41, 0
13, 105600, Note_on_c, 11, 41, 64
13, 105672, Note_on_c, 11, 41, 0
13, 105720, Note_on_c, 11, 41, 64
13, 105792, Note_on_c, 11, 41, 0
13, 105840, Note_on_c, 11, 41, 64
13, 105904, Note_on_c, 11, 41, 0
13, 105960, Note_on_c, 11, 41, 64
13, 106032, Note_on_c, 11, 41, 0
13, 106080, Note_on_c, 11, 41, 64
13, 106152, Note_on_c, 11, 41, 0
13, 106200, Note_on_c, 11, 41, 64
13, 106282, Note_on_c, 11, 41, 0
13, 106320, Note_on_c, 11, 39, 64
13, 106396, Note_on_c, 11, 39, 0
13, 106440, Note_on_c, 11, 39, 64
13, 106516, Note_on_c, 11, 39, 0
13, 106560, Note_on_c, 11, 38, 64
13, 106640, Note_on_c, 11, 38, 0
13, 106680, Note_on_c, 11, 38, 64
13, 106754, Note_on_c, 11, 38, 0
13, 106800, Note_on_c, 11, 38, 64
13, 106864, Note_on_c, 11, 38, 0
13, 106920, Note_on_c, 11, 38, 64
13, 106992, Note_on_c, 11, 38, 0
13, 107040, Note_on_c, 11, 38, 64
13, 107110, Note_on_c, 11, 38, 0
13, 107160, Note_on_c, 11, 38, 64
13, 107230, Note_on_c, 11, 38, 0
13, 107280, Note_on_c, 11, 36, 64
13, 107370, Note_on_c, 11, 36, 0
13, 107400, Note_on_c, 11, 36, 64
13, 107482, Note_on_c, 11, 36, 0
13, 107520, Note_on_c, 11, 34, 64
13, 107590, Note_on_c, 11, 34, 0
13, 107640, Note_on_c, 11, 34, 64
13, 107716, Note_on_c, 11, 34, 0
13, 107760, Note_on_c, 11, 34, 64
13, 107834, Note_on_c, 11, 34, 0
13, 107880, Note_on_c, 11, 34, 64
13, 107956, Note_on_c, 11, 34, 0
13, 108000, Note_on_c, 11, 34, 64
13, 108072, Note_on_c, 11, 34, 0
13, 108120, Note_on_c, 11, 34, 64
13, 108200, Note_on_c, 11, 34, 0
13, 108240, Note_on_c, 11, 32, 64
13, 108314, Note_on_c, 11, 32, 0
13, 108360, Note_on_c, 11, 32, 64
13, 108450, Note_on_c, 11, 32, 0
13, 108480, Note_on_c, 11, 31, 64
13, 108606, Note_on_c, 11, 31, 0
13, 108960, Note_on_c, 11, 32, 64
13, 109062, Note_on_c, 11, 32, 0
13, 109440, Note_on_c, 11, 34, 64
13, 109524, Note_on_c, 11, 34, 0
13, 109920, Note_on_c, 11, 34, 64
13, 110004, Note_on_c, 11, 34, 0
13, 110400, Note_on_c, 11, 47, 96
13, 111480, Note_on_c, 11, 48, 96
13, 111514, Note_on_c, 11, 47, 0
13, 111600, Note_on_c, 11, 50, 96
13, 111642, Note_on_c, 11, 48, 0
13, 111720, Note_on_c, 11, 48, 96
13, 111770, Note_on_c, 11, 50, 0
13, 111840, Note_on_c, 11, 47, 96
13, 111896, Note_on_c, 11, 48, 0
13, 111960, Note_on_c, 11, 43, 96
13, 111996, Note_on_c, 11, 47, 0
13, 112080, Note_on_c, 11, 45, 96
13, 112140, Note_on_c, 11, 43, 0
13, 112200, Note_on_c, 11, 47, 96
13, 112230, Note_on_c, 11, 45, 0
13, 112320, Note_on_c, 11, 48, 96
13, 112370, Note_on_c, 11, 47, 0
13, 112416, Note_on_c, 11, 48, 0
13, 112800, Note_on_c, 11, 41, 64
13, 112892, Note_on_c, 11, 41, 0
13, 113280, Note_on_c, 11, 43, 64
13, 113366, Note_on_c, 11, 43, 0
13, 113760, Note_on_c, 11, 31, 64
13, 113844, Note_on_c, 11, 31, 0
13, 114240, Note_on_c, 11, 42, 96
13, 115320, Note_on_c, 11, 43, 96
13, 115370, Note_on_c, 11, 42, 0
13, 115440, Note_on_c, 11, 45, 96
13, 115486, Note_on_c, 11, 43, 0
13, 115560, Note_on_c, 11, 43, 96
13, 115602, Note_on_c, 11, 45, 0
13, 115680, Note_on_c, 11, 42, 96
13, 115750, Note_on_c, 11, 43, 0
13, 115800, Note_on_c, 11, 38, 96
13, 115830, Note_on_c, 11, 42, 0
13, 115920, Note_on_c, 11, 40, 96
13, 115960, Note_on_c, 11, 38, 0
13, 116040, Note_on_c, 11, 42, 96
13, 116070, Note_on_c, 11, 40, 0
13, 116160, Note_on_c, 11, 43, 96
13, 116224, Note_on_c, 11, 42, 0
13, 116312, Note_on_c, 11, 43, 0
13, 116640, Note_on_c, 11, 36, 64
13, 116772, Note_on_c, 11, 36, 0
13, 117120, Note_on_c, 11, 38, 64
13, 117234, Note_on_c, 11, 38, 0
13, 117600, Note_on_c, 11, 38, 64
13, 117704, Note_on_c, 11, 38, 0
13, 118080, Note_on_c, 11, 43, 64
13, 118174, Note_on_c, 11, 43, 0
13, 119760, Note_on_c, 11, 40, 64
13, 119844, Note_on_c, 11, 40, 0
13, 120000, Note_on_c, 11, 45, 64
13, 120074, Note_on_c, 11, 45, 0
13, 121680, Note_on_c, 11, 42, 64
13, 121756, Note_on_c, 11, 42, 0
13, 121920, Note_on_c, 11, 47, 64
13, 122006, Note_on_c, 11, 47, 0
13, 123600, Note_on_c, 11, 43, 64
13, 123692, Note_on_c, 11, 43, 0
13, 123840, Note_on_c, 11, 48, 64
13, 123924, Note_on_c, 11, 48, 0
13, 124560, Note_on_c, 11, 45, 64
13, 124652, Note_on_c, 11, 45, 0
13, 124800, Note_on_c, 11, 50, 64
13, 124880, Note_on_c, 11, 50, 0
13, 125520, Note_on_c, 11, 47, 64
13, 125614, Note_on_c, 11, 47, 0
13, 125760, Note_on_c, 11, 40, 80
13, 125856, Note_on_c, 11, 40, 0
13, 126000, Note_on_c, 11, 39, 83
13, 126092, Note_on_c, 11, 39, 0
13, 126240, Note_on_c, 11, 40, 85
13, 126332, Note_on_c, 11, 40, 0
13, 126480, Note_on_c, 11, 42, 88
13, 126566, Note_on_c, 11, 42, 0
13, 126720, Note_on_c, 11, 43, 90
13, 126802, Note_on_c, 11, 43, 0
13, 126960, Note_on_c, 11, 42, 93
13, 127046, Note_on_c, 11, 42, 0
13, 127200, Note_on_c, 11, 43, 95
13, 127276, Note_on_c, 11, 43, 0
13, 127440, Note_on_c, 11, 45, 98
13, 127534, Note_on_c, 11, 45, 0
13, 127680, Note_on_c, 11, 47, 100
13, 127766, Note_on_c, 11, 47, 0
13, 127920, Note_on_c, 11, 42, 103
13, 128012, Note_on_c, 11, 42, 0
13, 128160, Note_on_c, 11, 43, 105
13, 128264, Note_on_c, 11, 43, 0
13, 128400, Note_on_c, 11, 45, 108
13, 128490, Note_on_c, 11, 45, 0
13, 128640, Note_on_c, 11, 47, 110
13, 128722, Note_on_c, 11, 47, 0
13, 128880, Note_on_c, 11, 45, 113
13, 128966, Note_on_c, 11, 45, 0
13, 129120, Note_on_c, 11, 47, 115
13, 129204, Note_on_c, 11, 47, 0
13, 129360, Note_on_c, 11, 48, 118
13, 129450, Note_on_c, 11, 48, 0
13, 129600, Note_on_c, 11, 50, 96
13, 129672, Note_on_c, 11, 50, 0
13, 129840, Note_on_c, 11, 30, 64
13, 130080, Note_on_c, 11, 31, 64
13, 130136, Note_on_c, 11, 30, 0
13, 130320, Note_on_c, 11, 35, 64
13, 130372, Note_on_c, 11, 31, 0
13, 130560, Note_on_c, 11, 38, 96
13, 130602, Note_on_c, 11, 35, 0
13, 131184, Note_on_c, 11, 38, 0
13, 131280, Note_on_c, 11, 39, 96
13, 131422, Note_on_c, 11, 39, 0
13, 131520, Note_on_c, 11, 40, 96
13, 131760, Note_on_c, 11, 39, 96
13, 131820, Note_on_c, 11, 40, 0
13, 132000, Note_on_c, 11, 40, 96
13, 132070, Note_on_c, 11, 39, 0
13, 132240, Note_on_c, 11, 43, 96
13, 132294, Note_on_c, 11, 40, 0
13, 132480, Note_on_c, 11, 47, 96
13, 132526, Note_on_c, 11, 43, 0
13, 132960, Note_on_c, 11, 47, 0
13, 133200, Note_on_c, 11, 47, 96
13, 133290, Note_on_c, 11, 47, 0
13, 133440, Note_on_c, 11, 48, 96
13, 134040, Note_on_c, 11, 45, 96
13, 134080, Note_on_c, 11, 48, 0
13, 134160, Note_on_c, 11, 47, 96
13, 134236, Note_on_c, 11, 45, 0
13, 134280, Note_on_c, 11, 48, 96
13, 134332, Note_on_c, 11, 47, 0
13, 134400, Note_on_c, 11, 50, 96
13, 134454, Note_on_c, 11, 48, 0
13, 134520, Note_on_c, 11, 49, 96
13, 134572, Note_on_c, 11, 50, 0
13, 134640, Note_on_c, 11, 50, 96
13, 134706, Note_on_c, 11, 49, 0
13, 134760, Note_on_c, 11, 49, 96
13, 134810, Note_on_c, 11, 50, 0
13, 134880, Note_on_c, 11, 50, 96
13, 134922, Note_on_c, 11, 49, 0
13, 134994, Note_on_c, 11, 50, 0
13, 135120, Note_on_c, 11, 38, 96
13, 135224, Note_on_c, 11, 38, 0
13, 135360, Note_on_c, 11, 31, 64
13, 135480, Note_on_c, 11, 33, 64
13, 135530, Note_on_c, 11, 31, 0
13, 135600, Note_on_c, 11, 31, 64
13, 135646, Note_on_c, 11, 33, 0
13, 135720, Note_on_c, 11, 30, 64
13, 135766, Note_on_c, 11, 31, 0
13, 135840, Note_on_c, 11, 31, 64
13, 135884, Note_on_c, 11, 30, 0
13, 135960, Note_on_c, 11, 33, 64
13, 136024, Note_on_c, 11, 31, 0
13, 136080, Note_on_c, 11, 35, 64
13, 136140, Note_on_c, 11, 33, 0
13, 136200, Note_on_c, 11, 36, 64
13, 136256, Note_on_c, 11, 35, 0
13, 136320, Note_on_c, 11, 38, 96
13, 136400, Note_on_c, 11, 36, 0
13, 136920, Note_on_c, 11, 38, 0
13, 137040, Note_on_c, 11, 39, 96
13, 137156, Note_on_c, 11, 39, 0
13, 137280, Note_on_c, 11, 40, 96
13, 137400, Note_on_c, 11, 42, 96
13, 137442, Note_on_c, 11, 40, 0
13, 137520, Note_on_c, 11, 40, 96
13, 137560, Note_on_c, 11, 42, 0
13, 137640, Note_on_c, 11, 39, 96
13, 137682, Note_on_c, 11, 40, 0
13, 137760, Note_on_c, 11, 40, 96
13, 137804, Note_on_c, 11, 39, 0
13, 137880, Note_on_c, 11, 42, 96
13, 137932, Note_on_c, 11, 40, 0
13, 138000, Note_on_c, 11, 43, 96
13, 138056, Note_on_c, 11, 42, 0
13, 138120, Note_on_c, 11, 45, 96
13, 138166, Note_on_c, 11, 43, 0
13, 138240, Note_on_c, 11, 47, 96
13, 138300, Note_on_c, 11, 45, 0
13, 138790, Note_on_c, 11, 47, 0
13, 138960, Note_on_c, 11, 47, 96
13, 139034, Note_on_c, 11, 47, 0
13, 139200, Note_on_c, 11, 48, 96
13, 139320, Note_on_c, 11, 47, 96
13, 139362, Note_on_c, 11, 48, 0
13, 139440, Note_on_c, 11, 48, 96
13, 139500, Note_on_c, 11, 47, 0
13, 139560, Note_on_c, 11, 47, 96
13, 139614, Note_on_c, 11, 48, 0
13, 139680, Note_on_c, 11, 48, 96
13, 139734, Note_on_c, 11, 47, 0
13, 139800, Note_on_c, 11, 45, 96
13, 139840, Note_on_c, 11, 48, 0
13, 139920, Note_on_c, 11, 47, 96
13, 139984, Note_on_c, 11, 45, 0
13, 140040, Note_on_c, 11, 48, 96
13, 140106, Note_on_c, 11, 47, 0
13, 140160, Note_on_c, 11, 50, 96
13, 140194, Note_on_c, 11, 48, 0
13, 140280, Note_on_c, 11, 49, 96
13, 140324, Note_on_c, 11, 50, 0
13, 140400, Note_on_c, 11, 50, 96
13, 140432, Note_on_c, 11, 49, 0
13, 140520, Note_on_c, 11, 49, 96
13, 140550, Note_on_c, 11, 50, 0
13, 140640, Note_on_c, 11, 50, 96
13, 140692, Note_on_c, 11, 49, 0
13, 140714, Note_on_c, 11, 50, 0
13, 140880, Note_on_c, 11, 38, 96
13, 140964, Note_on_c, 11, 38, 0
13, 141120, Note_on_c, 11, 31, 64
13, 141456, Note_on_c, 11, 31, 0
13, 143040, Note_on_c, 11, 38, 64
13, 143120, Note_on_c, 11, 38, 0
13, 143280, Note_on_c, 11, 39, 64
13, 143630, Note_on_c, 11, 39, 0
13, 143760, Note_on_c, 11, 39, 64
13, 143840, Note_on_c, 11, 39, 0
13, 144000, Note_on_c, 11, 38, 64
13, 144074, Note_on_c, 11, 38, 0
13, 144240, Note_on_c, 11, 36, 64
13, 144314, Note_on_c, 11, 36, 0
13, 144480, Note_on_c, 11, 35, 64
13, 144562, Note_on_c, 11, 35, 0
13, 144720, Note_on_c, 11, 33, 64
13, 144800, Note_on_c, 11, 33, 0
13, 144960, Note_on_c, 11, 31, 64
13, 145036, Note_on_c, 11, 31, 0
13, 146880, Note_on_c, 11, 38, 64
13, 146956, Note_on_c, 11, 38, 0
13, 147120, Note_on_c, 11, 39, 64
13, 147430, Note_on_c, 11, 39, 0
13, 147600, Note_on_c, 11, 39, 64
13, 147686, Note_on_c, 11, 39, 0
13, 147840, Note_on_c, 11, 38, 64
13, 147912, Note_on_c, 11, 38, 0
13, 148080, Note_on_c, 11, 36, 64
13, 148152, Note_on_c, 11, 36, 0
13, 148320, Note_on_c, 11, 35, 64
13, 148402, Note_on_c, 11, 35, 0
13, 148560, Note_on_c, 11, 33, 64
13, 148634, Note_on_c, 11, 33, 0
13, 148800, Note_on_c, 11, 32, 64
13, 148870, Note_on_c, 11, 32, 0
13, 149040, Note_on_c, 11, 41, 64
13, 149402, Note_on_c, 11, 41, 0
13, 149520, Note_on_c, 11, 41, 64
13, 149594, Note_on_c, 11, 41, 0
13, 149760, Note_on_c, 11, 40, 64
13, 149832, Note_on_c, 11, 40, 0
13, 150000, Note_on_c, 11, 38, 64
13, 150076, Note_on_c, 11, 38, 0
13, 150240, Note_on_c, 11, 36, 64
13, 150322, Note_on_c, 11, 36, 0
13, 150480, Note_on_c, 11, 35, 64
13, 150564, Note_on_c, 11, 35, 0
13, 150720, Note_on_c, 11, 34, 64
13, 150776, Note_on_c, 11, 34, 0
13, 150960, Note_on_c, 11, 43, 64
13, 151336, Note_on_c, 11, 43, 0
13, 151440, Note_on_c, 11, 43, 64
13, 151514, Note_on_c, 11, 43, 0
13, 151680, Note_on_c, 11, 41, 64
13, 151752, Note_on_c, 11, 41, 0
13, 151920, Note_on_c, 11, 40, 64
13, 151992, Note_on_c, 11, 40, 0
13, 152160, Note_on_c, 11, 38, 64
13, 152230, Note_on_c, 11, 38, 0
13, 152400, Note_on_c, 11, 36, 64
13, 152472, Note_on_c, 11, 36, 0
13, 152640, Note_on_c, 11, 35, 64
13, 152710, Note_on_c, 11, 35, 0
13, 155040, Note_on_c, 11, 43, 38
13, 155134, Note_on_c, 11, 43, 0
13, 156000, Note_on_c, 11, 43, 38
13, 156092, Note_on_c, 11, 43, 0
13, 156960, Note_on_c, 11, 43, 38
13, 157060, Note_on_c, 11, 43, 0
13, 157920, Note_on_c, 11, 43, 38
13, 158016, Note_on_c, 11, 43, 0
13, 160320, Note_on_c, 11, 36, 64
13, 160404, Note_on_c, 11, 36, 0
13, 161280, Note_on_c, 11, 36, 64
13, 161366, Note_on_c, 11, 36, 0
13, 162240, Note_on_c, 11, 36, 64
13, 162332, Note_on_c, 11, 36, 0
13, 162720, Note_on_c, 11, 36, 64
13, 162820, Note_on_c, 11, 36, 0
13, 163200, Note_on_c, 11, 36, 64
13, 163294, Note_on_c, 11, 36, 0
13, 164160, Note_on_c, 11, 36, 64
13, 164250, Note_on_c, 11, 36, 0
13, 165120, Note_on_c, 11, 36, 64
13, 165210, Note_on_c, 11, 36, 0
13, 166080, Note_on_c, 11, 35, 64
13, 166164, Note_on_c, 11, 35, 0
13, 166560, Note_on_c, 11, 35, 64
13, 166646, Note_on_c, 11, 35, 0
13, 167040, Note_on_c, 11, 35, 64
13, 167134, Note_on_c, 11, 35, 0
13, 168000, Note_on_c, 11, 36, 64
13, 168084, Note_on_c, 11, 36, 0
13, 168120, Note_on_c, 11, 36, 64
13, 168212, Note_on_c, 11, 36, 0
13, 168240, Note_on_c, 11, 36, 64
13, 168322, Note_on_c, 11, 36, 0
13, 168360, Note_on_c, 11, 36, 64
13, 168442, Note_on_c, 11, 36, 0
13, 168480, Note_on_c, 11, 36, 64
13, 168564, Note_on_c, 11, 36, 0
13, 168600, Note_on_c, 11, 36, 64
13, 168674, Note_on_c, 11, 36, 0
13, 168720, Note_on_c, 11, 36, 64
13, 168804, Note_on_c, 11, 36, 0
13, 168840, Note_on_c, 11, 36, 64
13, 168922, Note_on_c, 11, 36, 0
13, 168960, Note_on_c, 11, 36, 64
13, 169050, Note_on_c, 11, 36, 0
13, 169080, Note_on_c, 11, 36, 64
13, 169166, Note_on_c, 11, 36, 0
13, 169200, Note_on_c, 11, 36, 64
13, 169284, Note_on_c, 11, 36, 0
13, 169320, Note_on_c, 11, 36, 64
13, 169402, Note_on_c, 11, 36, 0
13, 169440, Note_on_c, 11, 36, 64
13, 169524, Note_on_c, 11, 36, 0
13, 169560, Note_on_c, 11, 36, 64
13, 169642, Note_on_c, 11, 36, 0
13, 169680, Note_on_c, 11, 36, 64
13, 169764, Note_on_c, 11, 36, 0
13, 169800, Note_on_c, 11, 36, 64
13, 169890, Note_on_c, 11, 36, 0
13, 169920, Note_on_c, 11, 36, 64
13, 170004, Note_on_c, 11, 36, 0
13, 170040, Note_on_c, 11, 36, 64
13, 170122, Note_on_c, 11, 36, 0
13, 170160, Note_on_c, 11, 36, 64
13, 170242, Note_on_c, 11, 36, 0
13, 170280, Note_on_c, 11, 36, 64
13, 170364, Note_on_c, 11, 36, 0
13, 170400, Note_on_c, 11, 36, 64
13, 170484, Note_on_c, 11, 36, 0
13, 170520, Note_on_c, 11, 36, 64
13, 170602, Note_on_c, 11, 36, 0
13, 170640, Note_on_c, 11, 36, 64
13, 170722, Note_on_c, 11, 36, 0
13, 170760, Note_on_c, 11, 36, 64
13, 170840, Note_on_c, 11, 36, 0
13, 170880, Note_on_c, 11, 36, 64
13, 170954, Note_on_c, 11, 36, 0
13, 171000, Note_on_c, 11, 36, 64
13, 171082, Note_on_c, 11, 36, 0
13, 171120, Note_on_c, 11, 36, 64
13, 171202, Note_on_c, 11, 36, 0
13, 171240, Note_on_c, 11, 36, 64
13, 171322, Note_on_c, 11, 36, 0
13, 171360, Note_on_c, 11, 36, 64
13, 171444, Note_on_c, 11, 36, 0
13, 171480, Note_on_c, 11, 36, 64
13, 171560, Note_on_c, 11, 36, 0
13, 171600, Note_on_c, 11, 36, 64
13, 171676, Note_on_c, 11, 36, 0
13, 171720, Note_on_c, 11, 36, 64
13, 171800, Note_on_c, 11, 36, 0
13, 171840, Note_on_c, 11, 34, 64
13, 171922, Note_on_c, 11, 34, 0
13, 171960, Note_on_c, 11, 34, 64
13, 172042, Note_on_c, 11, 34, 0
13, 172080, Note_on_c, 11, 34, 64
13, 172162, Note_on_c, 11, 34, 0
13, 172200, Note_on_c, 11, 34, 64
13, 172280, Note_on_c, 11, 34, 0
13, 172320, Note_on_c, 11, 34, 64
13, 172400, Note_on_c, 11, 34, 0
13, 172440, Note_on_c, 11, 34, 64
13, 172520, Note_on_c, 11, 34, 0
13, 172560, Note_on_c, 11, 34, 64
13, 172634, Note_on_c, 11, 34, 0
13, 172680, Note_on_c, 11, 34, 64
13, 172756, Note_on_c, 11, 34, 0
13, 172800, Note_on_c, 11, 34, 64
13, 172876, Note_on_c, 11, 34, 0
13, 172920, Note_on_c, 11, 34, 64
13, 172994, Note_on_c, 11, 34, 0
13, 173040, Note_on_c, 11, 34, 64
13, 173112, Note_on_c, 11, 34, 0
13, 173160, Note_on_c, 11, 34, 64
13, 173234, Note_on_c, 11, 34, 0
13, 173280, Note_on_c, 11, 34, 64
13, 173360, Note_on_c, 11, 34, 0
13, 173400, Note_on_c, 11, 34, 64
13, 173480, Note_on_c, 11, 34, 0
13, 173520, Note_on_c, 11, 34, 64
13, 173586, Note_on_c, 11, 34, 0
13, 173640, Note_on_c, 11, 34, 64
13, 173710, Note_on_c, 11, 34, 0
13, 173760, Note_on_c, 11, 34, 64
13, 173832, Note_on_c, 11, 34, 0
13, 173880, Note_on_c, 11, 34, 64
13, 173956, Note_on_c, 11, 34, 0
13, 174000, Note_on_c, 11, 34, 64
13, 174080, Note_on_c, 11, 34, 0
13, 174120, Note_on_c, 11, 34, 64
13, 174200, Note_on_c, 11, 34, 0
13, 174240, Note_on_c, 11, 34, 64
13, 174312, Note_on_c, 11, 34, 0
13, 174360, Note_on_c, 11, 34, 64
13, 174434, Note_on_c, 11, 34, 0
13, 174480, Note_on_c, 11, 34, 64
13, 174554, Note_on_c, 11, 34, 0
13, 174600, Note_on_c, 11, 34, 64
13, 174682, Note_on_c, 11, 34, 0
13, 174720, Note_on_c, 11, 34, 64
13, 174800, Note_on_c, 11, 34, 0
13, 174840, Note_on_c, 11, 34, 64
13, 174920, Note_on_c, 11, 34, 0
13, 174960, Note_on_c, 11, 34, 64
13, 175036, Note_on_c, 11, 34, 0
13, 175080, Note_on_c, 11, 34, 64
13, 175156, Note_on_c, 11, 34, 0
13, 175200, Note_on_c, 11, 34, 64
13, 175276, Note_on_c, 11, 34, 0
13, 175320, Note_on_c, 11, 34, 64
13, 175406, Note_on_c, 11, 34, 0
13, 175440, Note_on_c, 11, 34, 64
13, 175522, Note_on_c, 11, 34, 0
13, 175560, Note_on_c, 11, 34, 64
13, 175636, Note_on_c, 11, 34, 0
13, 175680, Note_on_c, 11, 39, 96
13, 175776, Note_on_c, 11, 39, 0
13, 177360, Note_on_c, 11, 41, 64
13, 177440, Note_on_c, 11, 41, 0
13, 177600, Note_on_c, 11, 34, 64
13, 177674, Note_on_c, 11, 34, 0
13, 177840, Note_on_c, 11, 46, 64
13, 178224, Note_on_c, 11, 46, 0
13, 178320, Note_on_c, 11, 45, 64
13, 178392, Note_on_c, 11, 45, 0
13, 178560, Note_on_c, 11, 46, 64
13, 178644, Note_on_c, 11, 46, 0
13, 178800, Note_on_c, 11, 44, 64
13, 178882, Note_on_c, 11, 44, 0
13, 179040, Note_on_c, 11, 43, 64
13, 179116, Note_on_c, 11, 43, 0
13, 179280, Note_on_c, 11, 48, 64
13, 179360, Note_on_c, 11, 48, 0
13, 179520, Note_on_c, 11, 41, 64
13, 179604, Note_on_c, 11, 41, 0
13, 181200, Note_on_c, 11, 31, 64
13, 181284, Note_on_c, 11, 31, 0
13, 181440, Note_on_c, 11, 36, 64
13, 181512, Note_on_c, 11, 36, 0
13, 181680, Note_on_c, 11, 48, 64
13, 182086, Note_on_c, 11, 48, 0
13, 182160, Note_on_c, 11, 47, 64
13, 182226, Note_on_c, 11, 47, 0
13, 182400, Note_on_c, 11, 48, 64
13, 182470, Note_on_c, 11, 48, 0
13, 182640, Note_on_c, 11, 46, 64
13, 182712, Note_on_c, 11, 46, 0
13, 182880, Note_on_c, 11, 45, 64
13, 182952, Note_on_c, 11, 45, 0
13, 183120, Note_on_c, 11, 44, 64
13, 183184, Note_on_c, 11, 44, 0
13, 183360, Note_on_c, 11, 31, 64
13, 183466, Note_on_c, 11, 31, 0
13, 183480, Note_on_c, 11, 43, 81
13, 183556, Note_on_c, 11, 43, 0
13, 183600, Note_on_c, 11, 43, 82
13, 183676, Note_on_c, 11, 43, 0
13, 183720, Note_on_c, 11, 43, 83
13, 183796, Note_on_c, 11, 43, 0
13, 183840, Note_on_c, 11, 43, 85
13, 183922, Note_on_c, 11, 43, 0
13, 183960, Note_on_c, 11, 43, 86
13, 184032, Note_on_c, 11, 43, 0
13, 184080, Note_on_c, 11, 43, 87
13, 184146, Note_on_c, 11, 43, 0
13, 184200, Note_on_c, 11, 43, 88
13, 184294, Note_on_c, 11, 43, 0
13, 184320, Note_on_c, 11, 31, 64
13, 184434, Note_on_c, 11, 31, 0
13, 184440, Note_on_c, 11, 43, 91
13, 184516, Note_on_c, 11, 43, 0
13, 184560, Note_on_c, 11, 43, 92
13, 184636, Note_on_c, 11, 43, 0
13, 184680, Note_on_c, 11, 43, 94
13, 184760, Note_on_c, 11, 43, 0
13, 184800, Note_on_c, 11, 43, 95
13, 184876, Note_on_c, 11, 43, 0
13, 184920, Note_on_c, 11, 43, 96
13, 184994, Note_on_c, 11, 43, 0
13, 185040, Note_on_c, 11, 43, 97
13, 185120, Note_on_c, 11, 43, 0
13, 185160, Note_on_c, 11, 43, 99
13, 185244, Note_on_c, 11, 43, 0
13, 185280, Note_on_c, 11, 31, 64
13, 185374, Note_on_c, 11, 31, 0
13, 185400, Note_on_c, 11, 43, 101
13, 185476, Note_on_c, 11, 43, 0
13, 185520, Note_on_c, 11, 43, 102
13, 185594, Note_on_c, 11, 43, 0
13, 185640, Note_on_c, 11, 43, 104
13, 185720, Note_on_c, 11, 43, 0
13, 185760, Note_on_c, 11, 43, 105
13, 185832, Note_on_c, 11, 43, 0
13, 185880, Note_on_c, 11, 43, 106
13, 185956, Note_on_c, 11, 43, 0
13, 186000, Note_on_c, 11, 43, 107
13, 186076, Note_on_c, 11, 43, 0
13, 186120, Note_on_c, 11, 43, 109
13, 186200, Note_on_c, 11, 43, 0
13, 186240, Note_on_c, 11, 31, 64
13, 186326, Note_on_c, 11, 31, 0
13, 186360, Note_on_c, 11, 43, 111
13, 186442, Note_on_c, 11, 43, 0
13, 186480, Note_on_c, 11, 43, 112
13, 186550, Note_on_c, 11, 43, 0
13, 186600, Note_on_c, 11, 43, 114
13, 186676, Note_on_c, 11, 43, 0
13, 186720, Note_on_c, 11, 43, 115
13, 186804, Note_on_c, 11, 43, 0
13, 186840, Note_on_c, 11, 43, 116
13, 186922, Note_on_c, 11, 43, 0
13, 186960, Note_on_c, 11, 43, 117
13, 187040, Note_on_c, 11, 43, 0
13, 187080, Note_on_c, 11, 43, 119
13, 187164, Note_on_c, 11, 43, 0
13, 187200, Note_on_c, 11, 43, 96
13, 187282, Note_on_c, 11, 43, 0
13, 187440, Note_on_c, 11, 36, 64
13, 187526, Note_on_c, 11, 36, 0
13, 187680, Note_on_c, 11, 43, 96
13, 187772, Note_on_c, 11, 43, 0
13, 187920, Note_on_c, 11, 36, 64
13, 188004, Note_on_c, 11, 36, 0
13, 188160, Note_on_c, 11, 43, 96
13, 188246, Note_on_c, 11, 43, 0
13, 188400, Note_on_c, 11, 36, 64
13, 188476, Note_on_c, 11, 36, 0
13, 188640, Note_on_c, 11, 43, 96
13, 188722, Note_on_c, 11, 43, 0
13, 188880, Note_on_c, 11, 36, 64
13, 188956, Note_on_c, 11, 36, 0
13, 189120, Note_on_c, 11, 43, 96
13, 189216, Note_on_c, 11, 43, 0
13, 189600, Note_on_c, 11, 43, 96
13, 189684, Note_on_c, 11, 43, 0
13, 190080, Note_on_c, 11, 31, 64
13, 190176, Note_on_c, 11, 31, 0
13, 191040, Note_on_c, 11, 36, 64
13, 191116, Note_on_c, 11, 36, 0
13, 194880, Note_on_c, 11, 31, 34
13, 194994, Note_on_c, 11, 31, 0
13, 198720, Note_on_c, 11, 36, 45
13, 198830, Note_on_c, 11, 36, 0
13, 199920, Note_on_c, 11, 36, 45
13, 200014, Note_on_c, 11, 36, 0
13, 200160, Note_on_c, 11, 40, 45
13, 200236, Note_on_c, 11, 40, 0
13, 200400, Note_on_c, 11, 43, 45
13, 200476, Note_on_c, 11, 43, 0
13, 200640, Note_on_c, 11, 48, 45
13, 200724, Note_on_c, 11, 48, 0
13, 201120, Note_on_c, 11, 44, 45
13, 201210, Note_on_c, 11, 44, 0
13, 201600, Note_on_c, 11, 45, 45
13, 201684, Note_on_c, 11, 45, 0
13, 202080, Note_on_c, 11, 41, 45
13, 202164, Note_on_c, 11, 41, 0
13, 202560, Note_on_c, 11, 43, 45
13, 202650, Note_on_c, 11, 43, 0
13, 203760, Note_on_c, 11, 43, 45
13, 203860, Note_on_c, 11, 43, 0
13, 204000, Note_on_c, 11, 45, 45
13, 204090, Note_on_c, 11, 45, 0
13, 204240, Note_on_c, 11, 47, 45
13, 204324, Note_on_c, 11, 47, 0
13, 204480, Note_on_c, 11, 48, 45
13, 204560, Note_on_c, 11, 48, 0
13, 204960, Note_on_c, 11, 41, 45
13, 205044, Note_on_c, 11, 41, 0
13, 205440, Note_on_c, 11, 43, 45
13, 205520, Note_on_c, 11, 43, 0
13, 205920, Note_on_c, 11, 31, 45
13, 206004, Note_on_c, 11, 31, 0
13, 206400, Note_on_c, 11, 36, 64
13, 206484, Note_on_c, 11, 36, 0
13, 207360, Note_on_c, 11, 40, 64
13, 207466, Note_on_c, 11, 40, 0
13, 208320, Note_on_c, 11, 38, 64
13, 208414, Note_on_c, 11, 38, 0
13, 209280, Note_on_c, 11, 31, 64
13, 209372, Note_on_c, 11, 31, 0
13, 210240, Note_on_c, 11, 36, 64
13, 210346, Note_on_c, 11, 36, 0
13, 211200, Note_on_c, 11, 40, 64
13, 211304, Note_on_c, 11, 40, 0
13, 212160, Note_on_c, 11, 38, 64
13, 212260, Note_on_c, 11, 38, 0
13, 213120, Note_on_c, 11, 31, 64
13, 213212, Note_on_c, 11, 31, 0
13, 214080, Note_on_c, 11, 36, 64
13, 214194, Note_on_c, 11, 36, 0
13, 214200, Note_on_c, 11, 48, 64
13, 214274, Note_on_c, 11, 48, 0
13, 214320, Note_on_c, 11, 48, 64
13, 214400, Note_on_c, 11, 48, 0
13, 214440, Note_on_c, 11, 48, 64
13, 214516, Note_on_c, 11, 48, 0
13, 214560, Note_on_c, 11, 48, 64
13, 214636, Note_on_c, 11, 48, 0
13, 214680, Note_on_c, 11, 48, 64
13, 214760, Note_on_c, 11, 48, 0
13, 214800, Note_on_c, 11, 48, 64
13, 214884, Note_on_c, 11, 48, 0
13, 214920, Note_on_c, 11, 48, 64
13, 215006, Note_on_c, 11, 48, 0
13, 215040, Note_on_c, 11, 48, 64
13, 215122, Note_on_c, 11, 48, 0
13, 215160, Note_on_c, 11, 48, 64
13, 215242, Note_on_c, 11, 48, 0
13, 215280, Note_on_c, 11, 48, 64
13, 215366, Note_on_c, 11, 48, 0
13, 215400, Note_on_c, 11, 48, 64
13, 215482, Note_on_c, 11, 48, 0
13, 215520, Note_on_c, 11, 48, 64
13, 215604, Note_on_c, 11, 48, 0
13, 215640, Note_on_c, 11, 48, 64
13, 215720, Note_on_c, 11, 48, 0
13, 215760, Note_on_c, 11, 48, 64
13, 215840, Note_on_c, 11, 48, 0
13, 215880, Note_on_c, 11, 48, 64
13, 215970, Note_on_c, 11, 48, 0
13, 216000, Note_on_c, 11, 46, 64
13, 216086, Note_on_c, 11, 46, 0
13, 216120, Note_on_c, 11, 46, 64
13, 216202, Note_on_c, 11, 46, 0
13, 216240, Note_on_c, 11, 46, 64
13, 216320, Note_on_c, 11, 46, 0
13, 216360, Note_on_c, 11, 46, 64
13, 216440, Note_on_c, 11, 46, 0
13, 216480, Note_on_c, 11, 46, 64
13, 216560, Note_on_c, 11, 46, 0
13, 216600, Note_on_c, 11, 46, 64
13, 216680, Note_on_c, 11, 46, 0
13, 216720, Note_on_c, 11, 46, 64
13, 216800, Note_on_c, 11, 46, 0
13, 216840, Note_on_c, 11, 46, 64
13, 216922, Note_on_c, 11, 46, 0
13, 216960, Note_on_c, 11, 46, 64
13, 217050, Note_on_c, 11, 46, 0
13, 217080, Note_on_c, 11, 46, 64
13, 217170, Note_on_c, 11, 46, 0
13, 217200, Note_on_c, 11, 46, 64
13, 217276, Note_on_c, 11, 46, 0
13, 217320, Note_on_c, 11, 46, 64
13, 217406, Note_on_c, 11, 46, 0
13, 217440, Note_on_c, 11, 46, 64
13, 217530, Note_on_c, 11, 46, 0
13, 217560, Note_on_c, 11, 46, 64
13, 217646, Note_on_c, 11, 46, 0
13, 217680, Note_on_c, 11, 44, 64
13, 217766, Note_on_c, 11, 44, 0
13, 217800, Note_on_c, 11, 44, 64
13, 217870, Note_on_c, 11, 44, 0
13, 217920, Note_on_c, 11, 43, 64
13, 218004, Note_on_c, 11, 43, 0
13, 218040, Note_on_c, 11, 43, 64
13, 218112, Note_on_c, 11, 43, 0
13, 218160, Note_on_c, 11, 43, 64
13, 218232, Note_on_c, 11, 43, 0
13, 218280, Note_on_c, 11, 43, 64
13, 218360, Note_on_c, 11, 43, 0
13, 218400, Note_on_c, 11, 43, 64
13, 218472, Note_on_c, 11, 43, 0
13, 218520, Note_on_c, 11, 43, 64
13, 218596, Note_on_c, 11, 43, 0
13, 218640, Note_on_c, 11, 41, 64
13, 218722, Note_on_c, 11, 41, 0
13, 218760, Note_on_c, 11, 41, 64
13, 218840, Note_on_c, 11, 41, 0
13, 218880, Note_on_c, 11, 39, 64
13, 218966, Note_on_c, 11, 39, 0
13, 219000, Note_on_c, 11, 39, 64
13, 219082, Note_on_c, 11, 39, 0
13, 219120, Note_on_c, 11, 39, 64
13, 219196, Note_on_c, 11, 39, 0
13, 219240, Note_on_c, 11, 39, 64
13, 219320, Note_on_c, 11, 39, 0
13, 219360, Note_on_c, 11, 39, 64
13, 219434, Note_on_c, 11, 39, 0
13, 219480, Note_on_c, 11, 39, 64
13, 219560, Note_on_c, 11, 39, 0
13, 219600, Note_on_c, 11, 37, 64
13, 219682, Note_on_c, 11, 37, 0
13, 219720, Note_on_c, 11, 37, 64
13, 219802, Note_on_c, 11, 37, 0
13, 219840, Note_on_c, 11, 36, 64
13, 220004, Note_on_c, 11, 36, 0
13, 220320, Note_on_c, 11, 37, 64
13, 220470, Note_on_c, 11, 37, 0
13, 220800, Note_on_c, 11, 39, 64
13, 220922, Note_on_c, 11, 39, 0
13, 221280, Note_on_c, 11, 39, 64
13, 221416, Note_on_c, 11, 39, 0
13, 221760, Note_on_c, 11, 40, 64
13, 222840, Note_on_c, 11, 41, 64
13, 222882, Note_on_c, 11, 40, 0
13, 222960, Note_on_c, 11, 43, 64
13, 223012, Note_on_c, 11, 41, 0
13, 223080, Note_on_c, 11, 41, 64
13, 223136, Note_on_c, 11, 43, 0
13, 223200, Note_on_c, 11, 40, 64
13, 223256, Note_on_c, 11, 41, 0
13, 223320, Note_on_c, 11, 36, 64
13, 223366, Note_on_c, 11, 40, 0
13, 223440, Note_on_c, 11, 38, 64
13, 223504, Note_on_c, 11, 36, 0
13, 223560, Note_on_c, 11, 40, 64
13, 223620, Note_on_c, 11, 38, 0
13, 223680, Note_on_c, 11, 41, 64
13, 223722, Note_on_c, 11, 40, 0
13, 223830, Note_on_c, 11, 41, 0
13, 224160, Note_on_c, 11, 34, 64
13, 224330, Note_on_c, 11, 34, 0
13, 224640, Note_on_c, 11, 36, 64
13, 224796, Note_on_c, 11, 36, 0
13, 225120, Note_on_c, 11, 36, 64
13, 225294, Note_on_c, 11, 36, 0
13, 225600, Note_on_c, 11, 35, 64
13, 226680, Note_on_c, 11, 36, 64
13, 226734, Note_on_c, 11, 35, 0
13, 226800, Note_on_c, 11, 38, 64
13, 226860, Note_on_c, 11, 36, 0
13, 226920, Note_on_c, 11, 36, 64
13, 226986, Note_on_c, 11, 38, 0
13, 227040, Note_on_c, 11, 35, 64
13, 227096, Note_on_c, 11, 36, 0
13, 227160, Note_on_c, 11, 31, 64
13, 227204, Note_on_c, 11, 35, 0
13, 227280, Note_on_c, 11, 33, 64
13, 227352, Note_on_c, 11, 31, 0
13, 227400, Note_on_c, 11, 35, 64
13, 227454, Note_on_c, 11, 33, 0
13, 227520, Note_on_c, 11, 36, 64
13, 227574, Note_on_c, 11, 35, 0
13, 227640, Note_on_c, 11, 36, 0
13, 228000, Note_on_c, 11, 41, 64
13, 228114, Note_on_c, 11, 41, 0
13, 228480, Note_on_c, 11, 43, 64
13, 228600, Note_on_c, 11, 43, 0
13, 228960, Note_on_c, 11, 31, 64
13, 229084, Note_on_c, 11, 31, 0
13, 229440, Note_on_c, 11, 36, 64
13, 229546, Note_on_c, 11, 36, 0
13, 231120, Note_on_c, 11, 33, 64
13, 231212, Note_on_c, 11, 33, 0
13, 231360, Note_on_c, 11, 38, 64
13, 231460, Note_on_c, 11, 38, 0
13, 233040, Note_on_c, 11, 35, 64
13, 233146, Note_on_c, 11, 35, 0
13, 233280, Note_on_c, 11, 40, 64
13, 233376, Note_on_c, 11, 40, 0
13, 234960, Note_on_c, 11, 36, 64
13, 235062, Note_on_c, 11, 36, 0
13, 235200, Note_on_c, 11, 41, 64
13, 235292, Note_on_c, 11, 41, 0
13, 235920, Note_on_c, 11, 38, 64
13, 236012, Note_on_c, 11, 38, 0
13, 236160, Note_on_c, 11, 43, 64
13, 236256, Note_on_c, 11, 43, 0
13, 236880, Note_on_c, 11, 40, 64
13, 236976, Note_on_c, 11, 40, 0
13, 237120, Note_on_c, 11, 45, 64
13, 237214, Note_on_c, 11, 45, 0
13, 237360, Note_on_c, 11, 44, 64
13, 237462, Note_on_c, 11, 44, 0
13, 237600, Note_on_c, 11, 45, 64
13, 237696, Note_on_c, 11, 45, 0
13, 237840, Note_on_c, 11, 47, 64
13, 237926, Note_on_c, 11, 47, 0
13, 238080, Note_on_c, 11, 48, 64
13, 238172, Note_on_c, 11, 48, 0
13, 238320, Note_on_c, 11, 47, 64
13, 238420, Note_on_c, 11, 47, 0
13, 238560, Note_on_c, 11, 48, 64
13, 238650, Note_on_c, 11, 48, 0
13, 238800, Note_on_c, 11, 50, 64
13, 238894, Note_on_c, 11, 50, 0
13, 239040, Note_on_c, 11, 52, 64
13, 239130, Note_on_c, 11, 52, 0
13, 239280, Note_on_c, 11, 35, 64
13, 239386, Note_on_c, 11, 35, 0
13, 239520, Note_on_c, 11, 36, 64
13, 239612, Note_on_c, 11, 36, 0
13, 239760, Note_on_c, 11, 38, 64
13, 239846, Note_on_c, 11, 38, 0
13, 240000, Note_on_c, 11, 40, 64
13, 240086, Note_on_c, 11, 40, 0
13, 240240, Note_on_c, 11, 38, 64
13, 240334, Note_on_c, 11, 38, 0
13, 240480, Note_on_c, 11, 40, 64
13, 240566, Note_on_c, 11, 40, 0
13, 240720, Note_on_c, 11, 41, 64
13, 240806, Note_on_c, 11, 41, 0
13, 240960, Note_on_c, 11, 43, 64
13, 241044, Note_on_c, 11, 43, 0
13, 241200, Note_on_c, 11, 35, 64
13, 241440, Note_on_c, 11, 36, 64
13, 241526, Note_on_c, 11, 35, 0
13, 241680, Note_on_c, 11, 40, 64
13, 241760, Note_on_c, 11, 36, 0
13, 241920, Note_on_c, 11, 43, 64
13, 241972, Note_on_c, 11, 40, 0
13, 242606, Note_on_c, 11, 43, 0
13, 242640, Note_on_c, 11, 44, 64
13, 242726, Note_on_c, 11, 44, 0
13, 242880, Note_on_c, 11, 45, 64
13, 242966, Note_on_c, 11, 45, 0
13, 243120, Note_on_c, 11, 44, 64
13, 243360, Note_on_c, 11, 45, 64
13, 243396, Note_on_c, 11, 44, 0
13, 243600, Note_on_c, 11, 48, 64
13, 243652, Note_on_c, 11, 45, 0
13, 243840, Note_on_c, 11, 52, 64
13, 243890, Note_on_c, 11, 48, 0
13, 244426, Note_on_c, 11, 52, 0
13, 244560, Note_on_c, 11, 40, 64
13, 244642, Note_on_c, 11, 40, 0
13, 244800, Note_on_c, 11, 41, 64
13, 245400, Note_on_c, 11, 38, 64
13, 245456, Note_on_c, 11, 41, 0
13, 245520, Note_on_c, 11, 40, 64
13, 245594, Note_on_c, 11, 38, 0
13, 245640, Note_on_c, 11, 41, 64
13, 245714, Note_on_c, 11, 40, 0
13, 245760, Note_on_c, 11, 43, 64
13, 245804, Note_on_c, 11, 41, 0
13, 245880, Note_on_c, 11, 42, 64
13, 245932, Note_on_c, 11, 43, 0
13, 246000, Note_on_c, 11, 43, 64
13, 246050, Note_on_c, 11, 42, 0
13, 246120, Note_on_c, 11, 42, 64
13, 246164, Note_on_c, 11, 43, 0
13, 246240, Note_on_c, 11, 43, 64
13, 246310, Note_on_c, 11, 42, 0
13, 246350, Note_on_c, 11, 43, 0
13, 246480, Note_on_c, 11, 31, 64
13, 246576, Note_on_c, 11, 31, 0
13, 246720, Note_on_c, 11, 36, 64
13, 246840, Note_on_c, 11, 38, 64
13, 246890, Note_on_c, 11, 36, 0
13, 246960, Note_on_c, 11, 36, 64
13, 247014, Note_on_c, 11, 38, 0
13, 247080, Note_on_c, 11, 35, 64
13, 247136, Note_on_c, 11, 36, 0
13, 247200, Note_on_c, 11, 36, 64
13, 247226, Note_on_c, 11, 35, 0
13, 247320, Note_on_c, 11, 38, 64
13, 247366, Note_on_c, 11, 36, 0
13, 247440, Note_on_c, 11, 40, 64
13, 247492, Note_on_c, 11, 38, 0
13, 247560, Note_on_c, 11, 41, 64
13, 247626, Note_on_c, 11, 40, 0
13, 247680, Note_on_c, 11, 43, 64
13, 247740, Note_on_c, 11, 41, 0
13, 248276, Note_on_c, 11, 43, 0
13, 248400, Note_on_c, 11, 44, 64
13, 248502, Note_on_c, 11, 44, 0
13, 248640, Note_on_c, 11, 45, 64
13, 248760, Note_on_c, 11, 47, 64
13, 248822, Note_on_c, 11, 45, 0
13, 248880, Note_on_c, 11, 45, 64
13, 248914, Note_on_c, 11, 47, 0
13, 249000, Note_on_c, 11, 44, 64
13, 249050, Note_on_c, 11, 45, 0
13, 249120, Note_on_c, 11, 45, 64
13, 249166, Note_on_c, 11, 44, 0
13, 249240, Note_on_c, 11, 47, 64
13, 249294, Note_on_c, 11, 45, 0
13, 249360, Note_on_c, 11, 48, 64
13, 249440, Note_on_c, 11, 47, 0
13, 249480, Note_on_c, 11, 50, 64
13, 249536, Note_on_c, 11, 48, 0
13, 249600, Note_on_c, 11, 52, 64
13, 249654, Note_on_c, 11, 50, 0
13, 250156, Note_on_c, 11, 52, 0
13, 250320, Note_on_c, 11, 40, 64
13, 250406, Note_on_c, 11, 40, 0
13, 250560, Note_on_c, 11, 41, 64
13, 250680, Note_on_c, 11, 40, 64
13, 250704, Note_on_c, 11, 41, 0
13, 250800, Note_on_c, 11, 41, 64
13, 250866, Note_on_c, 11, 40, 0
13, 250920, Note_on_c, 11, 40, 64
13, 250964, Note_on_c, 11, 41, 0
13, 251040, Note_on_c, 11, 41, 64
13, 251094, Note_on_c, 11, 40, 0
13, 251160, Note_on_c, 11, 38, 64
13, 251194, Note_on_c, 11, 41, 0
13, 251280, Note_on_c, 11, 40, 64
13, 251344, Note_on_c, 11, 38, 0
13, 251400, Note_on_c, 11, 41, 64
13, 251460, Note_on_c, 11, 40, 0
13, 251520, Note_on_c, 11, 43, 64
13, 251550, Note_on_c, 11, 41, 0
13, 251640, Note_on_c, 11, 42, 64
13, 251696, Note_on_c, 11, 43, 0
13, 251760, Note_on_c, 11, 43, 64
13, 251806, Note_on_c, 11, 42, 0
13, 251880, Note_on_c, 11, 42, 64
13, 251912, Note_on_c, 11, 43, 0
13, 252000, Note_on_c, 11, 43, 64
13, 252054, Note_on_c, 11, 42, 0
13, 252114, Note_on_c, 11, 43, 0
13, 252240, Note_on_c, 11, 31, 64
13, 252350, Note_on_c, 11, 31, 0
13, 252480, Note_on_c, 11, 36, 64
13, 252580, Note_on_c, 11, 36, 0
13, 254400, Note_on_c, 11, 43, 45
13, 254472, Note_on_c, 11, 43, 0
13, 254640, Note_on_c, 11, 44, 64
13, 254976, Note_on_c, 11, 44, 0
13, 255120, Note_on_c, 11, 44, 64
13, 255194, Note_on_c, 11, 44, 0
13, 255360, Note_on_c, 11, 43, 64
13, 255432, Note_on_c, 11, 43, 0
13, 255600, Note_on_c, 11, 41, 64
13, 255672, Note_on_c, 11, 41, 0
13, 255840, Note_on_c, 11, 40, 64
13, 255916, Note_on_c, 11, 40, 0
13, 256080, Note_on_c, 11, 38, 64
13, 256162, Note_on_c, 11, 38, 0
13, 256320, Note_on_c, 11, 36, 64
13, 256406, Note_on_c, 11, 36, 0
13, 258240, Note_on_c, 11, 43, 45
13, 258312, Note_on_c, 11, 43, 0
13, 258480, Note_on_c, 11, 44, 64
13, 258824, Note_on_c, 11, 44, 0
13, 258960, Note_on_c, 11, 44, 64
13, 259042, Note_on_c, 11, 44, 0
13, 259200, Note_on_c, 11, 43, 64
13, 259280, Note_on_c, 11, 43, 0
13, 259440, Note_on_c, 11, 41, 64
13, 259512, Note_on_c, 11, 41, 0
13, 259680, Note_on_c, 11, 40, 64
13, 259760, Note_on_c, 11, 40, 0
13, 259920, Note_on_c, 11, 38, 64
13, 260002, Note_on_c, 11, 38, 0
13, 260160, Note_on_c, 11, 37, 64
13, 260234, Note_on_c, 11, 37, 0
13, 260400, Note_on_c, 11, 46, 64
13, 260794, Note_on_c, 11, 46, 0
13, 260880, Note_on_c, 11, 46, 64
13, 260956, Note_on_c, 11, 46, 0
13, 261120, Note_on_c, 11, 45, 64
13, 261194, Note_on_c, 11, 45, 0
13, 261360, Note_on_c, 11, 43, 64
13, 261434, Note_on_c, 11, 43, 0
13, 261600, Note_on_c, 11, 41, 64
13, 261672, Note_on_c, 11, 41, 0
13, 261840, Note_on_c, 11, 40, 64
13, 261914, Note_on_c, 11, 40, 0
13, 262080, Note_on_c, 11, 39, 64
13, 262154, Note_on_c, 11, 39, 0
13, 262320, Note_on_c, 11, 48, 64
13, 262692, Note_on_c, 11, 48, 0
13, 262800, Note_on_c, 11, 48, 64
13, 262874, Note_on_c, 11, 48, 0
13, 263040, Note_on_c, 11, 40, 64
13, 263112, Note_on_c, 11, 40, 0
13, 263280, Note_on_c, 11, 49, 64
13, 263636, Note_on_c, 11, 49, 0
13, 263760, Note_on_c, 11, 49, 64
13, 263854, Note_on_c, 11, 49, 0
13, 264000, Note_on_c, 11, 41, 64
13, 264090, Note_on_c, 11, 41, 0
13, 264240, Note_on_c, 11, 50, 64
13, 264584, Note_on_c, 11, 50, 0
13, 264720, Note_on_c, 11, 50, 64
13, 264804, Note_on_c, 11, 50, 0
13, 264960, Note_on_c, 11, 42, 64
13, 265052, Note_on_c, 11, 42, 0
13, 265200, Note_on_c, 11, 51, 64
13, 265560, Note_on_c, 11, 51, 0
13, 265680, Note_on_c, 11, 51, 64
13, 265756, Note_on_c, 11, 51, 0
13, 265920, Note_on_c, 11, 42, 64
13, 267010, Note_on_c, 11, 42, 0
13, 267120, Note_on_c, 11, 42, 64
13, 267360, Note_on_c, 11, 44, 64
13, 267436, Note_on_c, 11, 42, 0
13, 267600, Note_on_c, 11, 42, 64
13, 267664, Note_on_c, 11, 44, 0
13, 267840, Note_on_c, 11, 41, 64
13, 267896, Note_on_c, 11, 42, 0
13, 268140, Note_on_c, 11, 41, 0
13, 268320, Note_on_c, 11, 42, 64
13, 269014, Note_on_c, 11, 42, 0
13, 269040, Note_on_c, 11, 42, 64
13, 269280, Note_on_c, 11, 44, 64
13, 269356, Note_on_c, 11, 42, 0
13, 269520, Note_on_c, 11, 42, 64
13, 269576, Note_on_c, 11, 44, 0
13, 269760, Note_on_c, 11, 41, 64
13, 269836, Note_on_c, 11, 42, 0
13, 269972, Note_on_c, 11, 41, 0
13, 270240, Note_on_c, 11, 42, 96
13, 270922, Note_on_c, 11, 42, 0
13, 270960, Note_on_c, 11, 42, 96
13, 271040, Note_on_c, 11, 42, 0
13, 271200, Note_on_c, 11, 42, 96
13, 271280, Note_on_c, 11, 42, 0
13, 271440, Note_on_c, 11, 42, 96
13, 271526, Note_on_c, 11, 42, 0
13, 271680, Note_on_c, 11, 43, 96
13, 271770, Note_on_c, 11, 43, 0
13, 271800, Note_on_c, 11, 43, 96
13, 271890, Note_on_c, 11, 43, 0
13, 271920, Note_on_c, 11, 43, 96
13, 272004, Note_on_c, 11, 43, 0
13, 272040, Note_on_c, 11, 43, 96
13, 272122, Note_on_c, 11, 43, 0
13, 272160, Note_on_c, 11, 43, 96
13, 272244, Note_on_c, 11, 43, 0
13, 272280, Note_on_c, 11, 43, 96
13, 272362, Note_on_c, 11, 43, 0
13, 272400, Note_on_c, 11, 43, 96
13, 272480, Note_on_c, 11, 43, 0
13, 272520, Note_on_c, 11, 43, 96
13, 272596, Note_on_c, 11, 43, 0
13, 272640, Note_on_c, 11, 44, 96
13, 272730, Note_on_c, 11, 44, 0
13, 272760, Note_on_c, 11, 44, 96
13, 272842, Note_on_c, 11, 44, 0
13, 272880, Note_on_c, 11, 44, 96
13, 272964, Note_on_c, 11, 44, 0
13, 273000, Note_on_c, 11, 44, 96
13, 273084, Note_on_c, 11, 44, 0
13, 273120, Note_on_c, 11, 44, 96
13, 273206, Note_on_c, 11, 44, 0
13, 273240, Note_on_c, 11, 44, 96
13, 273324, Note_on_c, 11, 44, 0
13, 273360, Note_on_c, 11, 44, 96
13, 273446, Note_on_c, 11, 44, 0
13, 273480, Note_on_c, 11, 44, 96
13, 273570, Note_on_c, 11, 44, 0
13, 273600, Note_on_c, 11, 45, 96
13, 273686, Note_on_c, 11, 45, 0
13, 273720, Note_on_c, 11, 45, 96
13, 273804, Note_on_c, 11, 45, 0
13, 273840, Note_on_c, 11, 45, 96
13, 273922, Note_on_c, 11, 45, 0
13, 273960, Note_on_c, 11, 45, 96
13, 274046, Note_on_c, 11, 45, 0
13, 274080, Note_on_c, 11, 45, 96
13, 274160, Note_on_c, 11, 45, 0
13, 274200, Note_on_c, 11, 45, 96
13, 274284, Note_on_c, 11, 45, 0
13, 274320, Note_on_c, 11, 45, 96
13, 274400, Note_on_c, 11, 45, 0
13, 274440, Note_on_c, 11, 45, 96
13, 274524, Note_on_c, 11, 45, 0
13, 274560, Note_on_c, 11, 43, 96
13, 274560, Note_on_c, 11, 45, 96
13, 274616, Note_on_c, 11, 45, 0
13, 274630, Note_on_c, 11, 43, 0
13, 274680, Note_on_c, 11, 43, 96
13, 274762, Note_on_c, 11, 43, 0
13, 274800, Note_on_c, 11, 43, 96
13, 274872, Note_on_c, 11, 43, 0
13, 274920, Note_on_c, 11, 43, 96
13, 274980, Note_on_c, 11, 43, 0
13, 275040, Note_on_c, 11, 31, 96
13, 275120, Note_on_c, 11, 31, 0
13, 275160, Note_on_c, 11, 31, 96
13, 275242, Note_on_c, 11, 31, 0
13, 275280, Note_on_c, 11, 31, 96
13, 275356, Note_on_c, 11, 31, 0
13, 275400, Note_on_c, 11, 31, 96
13, 275486, Note_on_c, 11, 31, 0
13, 275520, Note_on_c, 11, 36, 64
13, 276382, Note_on_c, 11, 36, 0
13, 276480, Note_on_c, 11, 33, 64
13, 277352, Note_on_c, 11, 33, 0
13, 277440, Note_on_c, 11, 38, 64
13, 278292, Note_on_c, 11, 38, 0
13, 278400, Note_on_c, 11, 31, 64
13, 279282, Note_on_c, 11, 31, 0
13, 279360, Note_on_c, 11, 36, 64
13, 280240, Note_on_c, 11, 36, 0
13, 280320, Note_on_c, 11, 33, 64
13, 281190, Note_on_c, 11, 33, 0
13, 281280, Note_on_c, 11, 38, 64
13, 282116, Note_on_c, 11, 38, 0
13, 282240, Note_on_c, 11, 31, 64
13, 283160, Note_on_c, 11, 31, 0
13, 283200, Note_on_c, 11, 36, 64
13, 283554, Note_on_c, 11, 36, 0
13, 283680, Note_on_c, 11, 33, 64
13, 284046, Note_on_c, 11, 33, 0
13, 284160, Note_on_c, 11, 38, 64
13, 284504, Note_on_c, 11, 38, 0
13, 284640, Note_on_c, 11, 31, 64
13, 285012, Note_on_c, 11, 31, 0
13, 285120, Note_on_c, 11, 36, 64
13, 285220, Note_on_c, 11, 36, 0
13, 285240, Note_on_c, 11, 36, 64
13, 285330, Note_on_c, 11, 36, 0
13, 285360, Note_on_c, 11, 36, 64
13, 285450, Note_on_c, 11, 36, 0
13, 285480, Note_on_c, 11, 36, 64
13, 285570, Note_on_c, 11, 36, 0
13, 285600, Note_on_c, 11, 33, 64
13, 285700, Note_on_c, 11, 33, 0
13, 285720, Note_on_c, 11, 33, 64
13, 285816, Note_on_c, 11, 33, 0
13, 285840, Note_on_c, 11, 33, 64
13, 285924, Note_on_c, 11, 33, 0
13, 285960, Note_on_c, 11, 33, 64
13, 286054, Note_on_c, 11, 33, 0
13, 286080, Note_on_c, 11, 38, 64
13, 286172, Note_on_c, 11, 38, 0
13, 286200, Note_on_c, 11, 38, 64
13, 286294, Note_on_c, 11, 38, 0
13, 286320, Note_on_c, 11, 38, 64
13, 286396, Note_on_c, 11, 38, 0
13, 286440, Note_on_c, 11, 38, 64
13, 286532, Note_on_c, 11, 38, 0
13, 286560, Note_on_c, 11, 31, 64
13, 286664, Note_on_c, 11, 31, 0
13, 286680, Note_on_c, 11, 31, 64
13, 286784, Note_on_c, 11, 31, 0
13, 286800, Note_on_c, 11, 31, 64
13, 286886, Note_on_c, 11, 31, 0
13, 286920, Note_on_c, 11, 31, 64
13, 287022, Note_on_c, 11, 31, 0
13, 287040, Note_on_c, 11, 36, 64
13, 288124, Note_on_c, 11, 36, 0
13, 288240, Note_on_c, 11, 48, 64
13, 288332, Note_on_c, 11, 48, 0
13, 288480, Note_on_c, 11, 47, 64
13, 288564, Note_on_c, 11, 47, 0
13, 288720, Note_on_c, 11, 45, 64
13, 288810, Note_on_c, 11, 45, 0
13, 288960, Note_on_c, 11, 43, 64
13, 290010, Note_on_c, 11, 43, 0
13, 290160, Note_on_c, 11, 45, 64
13, 290234, Note_on_c, 11, 45, 0
13, 290400, Note_on_c, 11, 43, 64
13, 290476, Note_on_c, 11, 43, 0
13, 290640, Note_on_c, 11, 41, 64
13, 290720, Note_on_c, 11, 41, 0
13, 290880, Note_on_c, 11, 40, 64
13, 291880, Note_on_c, 11, 40, 0
13, 292080, Note_on_c, 11, 41, 64
13, 292160, Note_on_c, 11, 41, 0
13, 292320, Note_on_c, 11, 40, 64
13, 292400, Note_on_c, 11, 40, 0
13, 292560, Note_on_c, 11, 38, 64
13, 292644, Note_on_c, 11, 38, 0
13, 292800, Note_on_c, 11, 36, 64
13, 292920, Note_on_c, 11, 36, 0
13, 293040, Note_on_c, 11, 41, 64
13, 293120, Note_on_c, 11, 41, 0
13, 293280, Note_on_c, 11, 40, 64
13, 293362, Note_on_c, 11, 40, 0
13, 293520, Note_on_c, 11, 38, 64
13, 293612, Note_on_c, 11, 38, 0
13, 293760, Note_on_c, 11, 36, 64
13, 293880, Note_on_c, 11, 36, 0
13, 294000, Note_on_c, 11, 41, 64
13, 294084, Note_on_c, 11, 41, 0
13, 294240, Note_on_c, 11, 40, 64
13, 294324, Note_on_c, 11, 40, 0
13, 294480, Note_on_c, 11, 38, 64
13, 294584, Note_on_c, 11, 38, 0
13, 294720, Note_on_c, 11, 36, 64
13, 294832, Note_on_c, 11, 36, 0
13, 294960, Note_on_c, 11, 41, 64
13, 295046, Note_on_c, 11, 41, 0
13, 295200, Note_on_c, 11, 40, 64
13, 295292, Note_on_c, 11, 40, 0
13, 295440, Note_on_c, 11, 38, 64
13, 295544, Note_on_c, 11, 38, 0
13, 295680, Note_on_c, 11, 36, 64
13, 295786, Note_on_c, 11, 36, 0
13, 295920, Note_on_c, 11, 41, 64
13, 296012, Note_on_c, 11, 41, 0
13, 296160, Note_on_c, 11, 40, 64
13, 296256, Note_on_c, 11, 40, 0
13, 296400, Note_on_c, 11, 38, 64
13, 296494, Note_on_c, 11, 38, 0
13, 296640, Note_on_c, 11, 36, 64
13, 296776, Note_on_c, 11, 36, 0
13, 297600, Note_on_c, 11, 48, 64
13, 297792, Note_on_c, 11, 48, 0
13, 298560, Note_on_c, 11, 48, 64
13, 298752, Note_on_c, 11, 48, 0
13, 299520, Note_on_c, 11, 36, 64
13, 299634, Note_on_c, 11, 36, 0
13, 300480, Note_on_c, 11, 36, 64
13, 300584, Note_on_c, 11, 36, 0
13, 301440, Note_on_c, 11, 36, 64
13, 301544, Note_on_c, 11, 36, 0
13, 302400, Note_on_c, 11, 36, 64
13, 302568, Note_on_c, 11, 36, 0
13, 303360, Note_on_c, 11, 36, 96
13, 303472, Note_on_c, 11, 36, 0
13, 303840, Note_on_c, 11, 36, 96
13, 303946, Note_on_c, 11, 36, 0
13, 304320, Note_on_c, 11, 36, 96
13, 304420, Note_on_c, 11, 36, 0
13, 304420, End_track
14, 0, Start_track
14, 0, Control_c, 9, 10, 64
14, 0, End_track
15, 0, Start_track
15, 0, Title_t, "Optimized for Sound Blaster AWE-32"
15, 0, End_track
16, 0, Start_track
16, 0, Title_t, "Michael Abelson"
16, 0, End_track
17, 0, Start_track
17, 0, Title_t, "12/14/96"
17, 0, End_track
18, 0, Start_track
18, 0, End_track
0, 0, End_of_file