0, 0, Header, 1, 5, 192
1, 0, Start_track
1, 0, Title_t, "String Quartet No.2 - III"
1, 0, Text_t, "By Ludwig van Beethoven"
1, 0, Copyright_t, "Copyright \251 2000 by S.E.Edwards"
1, 0, Copyright_t, "All Rights Reserved"
1, 0, Text_t, "Generated by NoteWorthy Composer"
1, 0, Tempo, 413793
1, 0, Key_signature, 1, "major"
1, 0, Time_signature, 3, 2, 24, 8
1, 4608, Tempo, 413793
1, 49536, Key_signature, 0, "major"
1, 95616, Tempo, 413793
1, 95616, Key_signature, 1, "major"
1, 95616, End_track
2, 0, Start_track
2, 0, MIDI_port, 0
2, 0, Title_t, "Violino I."
2, 0, Program_c, 1, 0
2, 0, Control_c, 1, 7, 127
2, 0, Control_c, 1, 10, 64
2, 0, Note_on_c, 1, 74, 45
2, 32, Note_on_c, 1, 74, 0
2, 96, Note_on_c, 1, 74, 45
2, 144, Note_on_c, 1, 74, 0
2, 144, Note_on_c, 1, 71, 45
2, 192, Note_on_c, 1, 71, 0
2, 192, Note_on_c, 1, 79, 45
2, 352, Note_on_c, 1, 79, 0
2, 576, Note_on_c, 1, 74, 45
2, 608, Note_on_c, 1, 74, 0
2, 672, Note_on_c, 1, 74, 45
2, 720, Note_on_c, 1, 74, 0
2, 720, Note_on_c, 1, 71, 45
2, 768, Note_on_c, 1, 71, 0
2, 768, Note_on_c, 1, 67, 45
2, 928, Note_on_c, 1, 67, 0
2, 1152, Note_on_c, 1, 71, 45
2, 1184, Note_on_c, 1, 71, 0
2, 1248, Note_on_c, 1, 71, 45
2, 1296, Note_on_c, 1, 71, 0
2, 1296, Note_on_c, 1, 67, 45
2, 1342, Note_on_c, 1, 67, 0
2, 1344, Note_on_c, 1, 66, 45
2, 1376, Note_on_c, 1, 66, 0
2, 1440, Note_on_c, 1, 73, 45
2, 1488, Note_on_c, 1, 73, 0
2, 1488, Note_on_c, 1, 74, 45
2, 1534, Note_on_c, 1, 74, 0
2, 1536, Note_on_c, 1, 66, 45
2, 1568, Note_on_c, 1, 66, 0
2, 1632, Note_on_c, 1, 73, 45
2, 1680, Note_on_c, 1, 73, 0
2, 1680, Note_on_c, 1, 74, 45
2, 1726, Note_on_c, 1, 74, 0
2, 1728, Note_on_c, 1, 67, 45
2, 1760, Note_on_c, 1, 67, 0
2, 1824, Note_on_c, 1, 73, 45
2, 1872, Note_on_c, 1, 73, 0
2, 1872, Note_on_c, 1, 74, 45
2, 1918, Note_on_c, 1, 74, 0
2, 1920, Note_on_c, 1, 69, 60
2, 2080, Note_on_c, 1, 69, 0
2, 2304, Note_on_c, 1, 81, 45
2, 2336, Note_on_c, 1, 81, 0
2, 2400, Note_on_c, 1, 81, 45
2, 2448, Note_on_c, 1, 81, 0
2, 2448, Note_on_c, 1, 78, 45
2, 2496, Note_on_c, 1, 78, 0
2, 2496, Note_on_c, 1, 84, 45
2, 2656, Note_on_c, 1, 84, 0
2, 2880, Note_on_c, 1, 81, 45
2, 2912, Note_on_c, 1, 81, 0
2, 2976, Note_on_c, 1, 81, 45
2, 3024, Note_on_c, 1, 81, 0
2, 3024, Note_on_c, 1, 78, 45
2, 3072, Note_on_c, 1, 78, 0
2, 3072, Note_on_c, 1, 72, 45
2, 3232, Note_on_c, 1, 72, 0
2, 3360, Note_on_c, 1, 74, 45
2, 3408, Note_on_c, 1, 74, 0
2, 3408, Note_on_c, 1, 72, 45
2, 3454, Note_on_c, 1, 72, 0
2, 3456, Note_on_c, 1, 71, 45
2, 3488, Note_on_c, 1, 71, 0
2, 3552, Note_on_c, 1, 78, 45
2, 3600, Note_on_c, 1, 78, 0
2, 3600, Note_on_c, 1, 79, 45
2, 3646, Note_on_c, 1, 79, 0
2, 3648, Note_on_c, 1, 69, 45
2, 3808, Note_on_c, 1, 69, 0
2, 3936, Note_on_c, 1, 75, 45
2, 3984, Note_on_c, 1, 75, 0
2, 3984, Note_on_c, 1, 76, 45
2, 4030, Note_on_c, 1, 76, 0
2, 4032, Note_on_c, 1, 66, 45
2, 4064, Note_on_c, 1, 66, 0
2, 4128, Note_on_c, 1, 73, 45
2, 4176, Note_on_c, 1, 73, 0
2, 4176, Note_on_c, 1, 74, 45
2, 4222, Note_on_c, 1, 74, 0
2, 4224, Note_on_c, 1, 67, 45
2, 4272, Note_on_c, 1, 67, 0
2, 4608, Note_on_c, 1, 74, 45
2, 4640, Note_on_c, 1, 74, 0
2, 4704, Note_on_c, 1, 74, 45
2, 4752, Note_on_c, 1, 74, 0
2, 4752, Note_on_c, 1, 71, 45
2, 4800, Note_on_c, 1, 71, 0
2, 4800, Note_on_c, 1, 79, 45
2, 4960, Note_on_c, 1, 79, 0
2, 5184, Note_on_c, 1, 74, 45
2, 5216, Note_on_c, 1, 74, 0
2, 5280, Note_on_c, 1, 74, 45
2, 5328, Note_on_c, 1, 74, 0
2, 5328, Note_on_c, 1, 71, 45
2, 5376, Note_on_c, 1, 71, 0
2, 5376, Note_on_c, 1, 67, 45
2, 5536, Note_on_c, 1, 67, 0
2, 5760, Note_on_c, 1, 71, 45
2, 5792, Note_on_c, 1, 71, 0
2, 5856, Note_on_c, 1, 71, 45
2, 5904, Note_on_c, 1, 71, 0
2, 5904, Note_on_c, 1, 67, 45
2, 5950, Note_on_c, 1, 67, 0
2, 5952, Note_on_c, 1, 66, 45
2, 5984, Note_on_c, 1, 66, 0
2, 6048, Note_on_c, 1, 73, 45
2, 6096, Note_on_c, 1, 73, 0
2, 6096, Note_on_c, 1, 74, 45
2, 6142, Note_on_c, 1, 74, 0
2, 6144, Note_on_c, 1, 66, 45
2, 6176, Note_on_c, 1, 66, 0
2, 6240, Note_on_c, 1, 73, 45
2, 6288, Note_on_c, 1, 73, 0
2, 6288, Note_on_c, 1, 74, 45
2, 6334, Note_on_c, 1, 74, 0
2, 6336, Note_on_c, 1, 67, 45
2, 6368, Note_on_c, 1, 67, 0
2, 6432, Note_on_c, 1, 73, 45
2, 6480, Note_on_c, 1, 73, 0
2, 6480, Note_on_c, 1, 74, 45
2, 6526, Note_on_c, 1, 74, 0
2, 6528, Note_on_c, 1, 69, 60
2, 6688, Note_on_c, 1, 69, 0
2, 6912, Note_on_c, 1, 81, 45
2, 6944, Note_on_c, 1, 81, 0
2, 7008, Note_on_c, 1, 81, 45
2, 7056, Note_on_c, 1, 81, 0
2, 7056, Note_on_c, 1, 78, 45
2, 7104, Note_on_c, 1, 78, 0
2, 7104, Note_on_c, 1, 84, 45
2, 7264, Note_on_c, 1, 84, 0
2, 7488, Note_on_c, 1, 81, 45
2, 7520, Note_on_c, 1, 81, 0
2, 7584, Note_on_c, 1, 81, 45
2, 7632, Note_on_c, 1, 81, 0
2, 7632, Note_on_c, 1, 78, 45
2, 7680, Note_on_c, 1, 78, 0
2, 7680, Note_on_c, 1, 72, 45
2, 7840, Note_on_c, 1, 72, 0
2, 7968, Note_on_c, 1, 74, 45
2, 8016, Note_on_c, 1, 74, 0
2, 8016, Note_on_c, 1, 72, 45
2, 8062, Note_on_c, 1, 72, 0
2, 8064, Note_on_c, 1, 71, 45
2, 8096, Note_on_c, 1, 71, 0
2, 8160, Note_on_c, 1, 78, 45
2, 8208, Note_on_c, 1, 78, 0
2, 8208, Note_on_c, 1, 79, 45
2, 8254, Note_on_c, 1, 79, 0
2, 8256, Note_on_c, 1, 69, 45
2, 8416, Note_on_c, 1, 69, 0
2, 8544, Note_on_c, 1, 75, 45
2, 8592, Note_on_c, 1, 75, 0
2, 8592, Note_on_c, 1, 76, 45
2, 8638, Note_on_c, 1, 76, 0
2, 8640, Note_on_c, 1, 66, 45
2, 8672, Note_on_c, 1, 66, 0
2, 8736, Note_on_c, 1, 73, 45
2, 8784, Note_on_c, 1, 73, 0
2, 8784, Note_on_c, 1, 74, 45
2, 8830, Note_on_c, 1, 74, 0
2, 8832, Note_on_c, 1, 67, 45
2, 8880, Note_on_c, 1, 67, 0
2, 9216, Note_on_c, 1, 71, 45
2, 9376, Note_on_c, 1, 71, 0
2, 9408, Note_on_c, 1, 71, 127
2, 9408, Note_on_c, 1, 83, 127
2, 9664, Note_on_c, 1, 71, 0
2, 9664, Note_on_c, 1, 83, 0
2, 9696, Note_on_c, 1, 71, 45
2, 9728, Note_on_c, 1, 71, 0
2, 9792, Note_on_c, 1, 70, 45
2, 9824, Note_on_c, 1, 70, 0
2, 9888, Note_on_c, 1, 71, 45
2, 9920, Note_on_c, 1, 71, 0
2, 9984, Note_on_c, 1, 73, 45
2, 10016, Note_on_c, 1, 73, 0
2, 10080, Note_on_c, 1, 75, 45
2, 10112, Note_on_c, 1, 75, 0
2, 10176, Note_on_c, 1, 76, 45
2, 10208, Note_on_c, 1, 76, 0
2, 10272, Note_on_c, 1, 78, 45
2, 10304, Note_on_c, 1, 78, 0
2, 10368, Note_on_c, 1, 80, 45
2, 10400, Note_on_c, 1, 80, 0
2, 10464, Note_on_c, 1, 82, 45
2, 10496, Note_on_c, 1, 82, 0
2, 10560, Note_on_c, 1, 83, 45
2, 10720, Note_on_c, 1, 83, 0
2, 10752, Note_on_c, 1, 83, 45
2, 10912, Note_on_c, 1, 83, 0
2, 10944, Note_on_c, 1, 85, 45
2, 10976, Note_on_c, 1, 85, 0
2, 10976, Note_on_c, 1, 87, 45
2, 11008, Note_on_c, 1, 87, 0
2, 11008, Note_on_c, 1, 85, 45
2, 11040, Note_on_c, 1, 85, 0
2, 11040, Note_on_c, 1, 83, 45
2, 11088, Note_on_c, 1, 83, 0
2, 11088, Note_on_c, 1, 85, 45
2, 11134, Note_on_c, 1, 85, 0
2, 11136, Note_on_c, 1, 87, 45
2, 11328, Note_on_c, 1, 87, 0
2, 11328, Note_on_c, 1, 83, 45
2, 11488, Note_on_c, 1, 83, 0
2, 11520, Note_on_c, 1, 71, 45
2, 11680, Note_on_c, 1, 71, 0
2, 11712, Note_on_c, 1, 71, 92
2, 11712, Note_on_c, 1, 83, 92
2, 12048, Note_on_c, 1, 71, 0
2, 12048, Note_on_c, 1, 83, 0
2, 12096, Note_on_c, 1, 71, 92
2, 12128, Note_on_c, 1, 71, 0
2, 12192, Note_on_c, 1, 72, 92
2, 12224, Note_on_c, 1, 72, 0
2, 12288, Note_on_c, 1, 74, 92
2, 12320, Note_on_c, 1, 74, 0
2, 12384, Note_on_c, 1, 76, 92
2, 12416, Note_on_c, 1, 76, 0
2, 12480, Note_on_c, 1, 77, 92
2, 12512, Note_on_c, 1, 77, 0
2, 12576, Note_on_c, 1, 79, 92
2, 12608, Note_on_c, 1, 79, 0
2, 12672, Note_on_c, 1, 81, 92
2, 12704, Note_on_c, 1, 81, 0
2, 12768, Note_on_c, 1, 83, 92
2, 12800, Note_on_c, 1, 83, 0
2, 12864, Note_on_c, 1, 84, 92
2, 12958, Note_on_c, 1, 84, 0
2, 12960, Note_on_c, 1, 87, 88
2, 13054, Note_on_c, 1, 87, 0
2, 13056, Note_on_c, 1, 88, 84
2, 13150, Note_on_c, 1, 88, 0
2, 13152, Note_on_c, 1, 87, 80
2, 13246, Note_on_c, 1, 87, 0
2, 13248, Note_on_c, 1, 88, 75
2, 13342, Note_on_c, 1, 88, 0
2, 13344, Note_on_c, 1, 84, 70
2, 13438, Note_on_c, 1, 84, 0
2, 13440, Note_on_c, 1, 83, 65
2, 13632, Note_on_c, 1, 83, 0
2, 13632, Note_on_c, 1, 81, 55
2, 13726, Note_on_c, 1, 81, 0
2, 13824, Note_on_c, 1, 86, 45
2, 13856, Note_on_c, 1, 86, 0
2, 13920, Note_on_c, 1, 86, 45
2, 13968, Note_on_c, 1, 86, 0
2, 13968, Note_on_c, 1, 83, 45
2, 14016, Note_on_c, 1, 83, 0
2, 14016, Note_on_c, 1, 91, 45
2, 14176, Note_on_c, 1, 91, 0
2, 14400, Note_on_c, 1, 86, 45
2, 14432, Note_on_c, 1, 86, 0
2, 14496, Note_on_c, 1, 86, 45
2, 14544, Note_on_c, 1, 86, 0
2, 14544, Note_on_c, 1, 83, 45
2, 14592, Note_on_c, 1, 83, 0
2, 14592, Note_on_c, 1, 79, 45
2, 14752, Note_on_c, 1, 79, 0
2, 14976, Note_on_c, 1, 83, 45
2, 15008, Note_on_c, 1, 83, 0
2, 15072, Note_on_c, 1, 83, 45
2, 15120, Note_on_c, 1, 83, 0
2, 15120, Note_on_c, 1, 79, 45
2, 15166, Note_on_c, 1, 79, 0
2, 15168, Note_on_c, 1, 78, 45
2, 15200, Note_on_c, 1, 78, 0
2, 15264, Note_on_c, 1, 85, 45
2, 15312, Note_on_c, 1, 85, 0
2, 15312, Note_on_c, 1, 86, 45
2, 15358, Note_on_c, 1, 86, 0
2, 15360, Note_on_c, 1, 78, 45
2, 15392, Note_on_c, 1, 78, 0
2, 15456, Note_on_c, 1, 85, 45
2, 15504, Note_on_c, 1, 85, 0
2, 15504, Note_on_c, 1, 86, 45
2, 15550, Note_on_c, 1, 86, 0
2, 15552, Note_on_c, 1, 79, 45
2, 15584, Note_on_c, 1, 79, 0
2, 15648, Note_on_c, 1, 85, 45
2, 15696, Note_on_c, 1, 85, 0
2, 15696, Note_on_c, 1, 86, 45
2, 15742, Note_on_c, 1, 86, 0
2, 15744, Note_on_c, 1, 81, 45
2, 15904, Note_on_c, 1, 81, 0
2, 16416, Note_on_c, 1, 78, 45
2, 16464, Note_on_c, 1, 78, 0
2, 16464, Note_on_c, 1, 81, 45
2, 16512, Note_on_c, 1, 81, 0
2, 16512, Note_on_c, 1, 84, 45
2, 16544, Note_on_c, 1, 84, 0
2, 16992, Note_on_c, 1, 81, 45
2, 17040, Note_on_c, 1, 81, 0
2, 17040, Note_on_c, 1, 78, 45
2, 17088, Note_on_c, 1, 78, 0
2, 17088, Note_on_c, 1, 75, 45
2, 17120, Note_on_c, 1, 75, 0
2, 17568, Note_on_c, 1, 78, 45
2, 17616, Note_on_c, 1, 78, 0
2, 17616, Note_on_c, 1, 75, 45
2, 17662, Note_on_c, 1, 75, 0
2, 17664, Note_on_c, 1, 71, 45
2, 17696, Note_on_c, 1, 71, 0
2, 17760, Note_on_c, 1, 66, 75
2, 17808, Note_on_c, 1, 66, 0
2, 17808, Note_on_c, 1, 63, 75
2, 17854, Note_on_c, 1, 63, 0
2, 17856, Note_on_c, 1, 59, 75
2, 17888, Note_on_c, 1, 59, 0
2, 17952, Note_on_c, 1, 66, 75
2, 18000, Note_on_c, 1, 66, 0
2, 18000, Note_on_c, 1, 63, 75
2, 18046, Note_on_c, 1, 63, 0
2, 18048, Note_on_c, 1, 59, 75
2, 18080, Note_on_c, 1, 59, 0
2, 18144, Note_on_c, 1, 67, 75
2, 18192, Note_on_c, 1, 67, 0
2, 18192, Note_on_c, 1, 64, 75
2, 18238, Note_on_c, 1, 64, 0
2, 18240, Note_on_c, 1, 59, 75
2, 18272, Note_on_c, 1, 59, 0
2, 18336, Note_on_c, 1, 67, 75
2, 18384, Note_on_c, 1, 67, 0
2, 18384, Note_on_c, 1, 64, 75
2, 18430, Note_on_c, 1, 64, 0
2, 18432, Note_on_c, 1, 59, 75
2, 18464, Note_on_c, 1, 59, 0
2, 18528, Note_on_c, 1, 67, 75
2, 18576, Note_on_c, 1, 67, 0
2, 18576, Note_on_c, 1, 64, 75
2, 18622, Note_on_c, 1, 64, 0
2, 18624, Note_on_c, 1, 59, 92
2, 18718, Note_on_c, 1, 59, 0
2, 18720, Note_on_c, 1, 79, 45
2, 18880, Note_on_c, 1, 79, 0
2, 18912, Note_on_c, 1, 79, 56
2, 19072, Note_on_c, 1, 79, 0
2, 19104, Note_on_c, 1, 79, 67
2, 19294, Note_on_c, 1, 79, 0
2, 19296, Note_on_c, 1, 79, 78
2, 19456, Note_on_c, 1, 79, 0
2, 19488, Note_on_c, 1, 79, 90
2, 19648, Note_on_c, 1, 79, 0
2, 19680, Note_on_c, 1, 79, 102
2, 19728, Note_on_c, 1, 79, 0
2, 19728, Note_on_c, 1, 76, 105
2, 19776, Note_on_c, 1, 76, 0
2, 19776, Note_on_c, 1, 84, 108
2, 19936, Note_on_c, 1, 84, 0
2, 20160, Note_on_c, 1, 79, 108
2, 20192, Note_on_c, 1, 79, 0
2, 20256, Note_on_c, 1, 79, 108
2, 20304, Note_on_c, 1, 79, 0
2, 20304, Note_on_c, 1, 76, 108
2, 20352, Note_on_c, 1, 76, 0
2, 20352, Note_on_c, 1, 72, 108
2, 20512, Note_on_c, 1, 72, 0
2, 20736, Note_on_c, 1, 76, 108
2, 20768, Note_on_c, 1, 76, 0
2, 20832, Note_on_c, 1, 76, 108
2, 20880, Note_on_c, 1, 76, 0
2, 20880, Note_on_c, 1, 72, 108
2, 20926, Note_on_c, 1, 72, 0
2, 20928, Note_on_c, 1, 71, 45
2, 20960, Note_on_c, 1, 71, 0
2, 21024, Note_on_c, 1, 73, 45
2, 21072, Note_on_c, 1, 73, 0
2, 21072, Note_on_c, 1, 74, 45
2, 21118, Note_on_c, 1, 74, 0
2, 21120, Note_on_c, 1, 71, 45
2, 21152, Note_on_c, 1, 71, 0
2, 21216, Note_on_c, 1, 73, 45
2, 21264, Note_on_c, 1, 73, 0
2, 21264, Note_on_c, 1, 74, 45
2, 21310, Note_on_c, 1, 74, 0
2, 21312, Note_on_c, 1, 69, 45
2, 21344, Note_on_c, 1, 69, 0
2, 21408, Note_on_c, 1, 73, 45
2, 21456, Note_on_c, 1, 73, 0
2, 21456, Note_on_c, 1, 74, 45
2, 21502, Note_on_c, 1, 74, 0
2, 21504, Note_on_c, 1, 67, 45
2, 21664, Note_on_c, 1, 67, 0
2, 21792, Note_on_c, 1, 66, 45
2, 21824, Note_on_c, 1, 66, 0
2, 21888, Note_on_c, 1, 67, 45
2, 21920, Note_on_c, 1, 67, 0
2, 21984, Note_on_c, 1, 68, 45
2, 22016, Note_on_c, 1, 68, 0
2, 22080, Note_on_c, 1, 69, 45
2, 22240, Note_on_c, 1, 69, 0
2, 22368, Note_on_c, 1, 68, 45
2, 22400, Note_on_c, 1, 68, 0
2, 22464, Note_on_c, 1, 69, 45
2, 22496, Note_on_c, 1, 69, 0
2, 22560, Note_on_c, 1, 70, 45
2, 22592, Note_on_c, 1, 70, 0
2, 22656, Note_on_c, 1, 71, 45
2, 22816, Note_on_c, 1, 71, 0
2, 22944, Note_on_c, 1, 73, 45
2, 22976, Note_on_c, 1, 73, 0
2, 23040, Note_on_c, 1, 74, 45
2, 23072, Note_on_c, 1, 74, 0
2, 23136, Note_on_c, 1, 75, 45
2, 23168, Note_on_c, 1, 75, 0
2, 23232, Note_on_c, 1, 76, 45
2, 23326, Note_on_c, 1, 76, 0
2, 23328, Note_on_c, 1, 79, 45
2, 23422, Note_on_c, 1, 79, 0
2, 23424, Note_on_c, 1, 79, 45
2, 23518, Note_on_c, 1, 79, 0
2, 23520, Note_on_c, 1, 79, 45
2, 23614, Note_on_c, 1, 79, 0
2, 23616, Note_on_c, 1, 69, 45
2, 23710, Note_on_c, 1, 69, 0
2, 23712, Note_on_c, 1, 74, 45
2, 23806, Note_on_c, 1, 74, 0
2, 23808, Note_on_c, 1, 67, 45
2, 23840, Note_on_c, 1, 67, 0
2, 23904, Note_on_c, 1, 73, 45
2, 23936, Note_on_c, 1, 73, 0
2, 24000, Note_on_c, 1, 74, 45
2, 24478, Note_on_c, 1, 74, 0
2, 24480, Note_on_c, 1, 73, 45
2, 24512, Note_on_c, 1, 73, 0
2, 24576, Note_on_c, 1, 74, 45
2, 25054, Note_on_c, 1, 74, 0
2, 25056, Note_on_c, 1, 78, 45
2, 25088, Note_on_c, 1, 78, 0
2, 25152, Note_on_c, 1, 79, 45
2, 25630, Note_on_c, 1, 79, 0
2, 25632, Note_on_c, 1, 84, 67
2, 25664, Note_on_c, 1, 84, 0
2, 25728, Note_on_c, 1, 83, 72
2, 25760, Note_on_c, 1, 83, 0
2, 25824, Note_on_c, 1, 88, 77
2, 25856, Note_on_c, 1, 88, 0
2, 25920, Note_on_c, 1, 86, 82
2, 25952, Note_on_c, 1, 86, 0
2, 26016, Note_on_c, 1, 78, 87
2, 26048, Note_on_c, 1, 78, 0
2, 26112, Note_on_c, 1, 79, 45
2, 26272, Note_on_c, 1, 79, 0
2, 27456, Note_on_c, 1, 86, 45
2, 27488, Note_on_c, 1, 86, 0
2, 27552, Note_on_c, 1, 86, 49
2, 27600, Note_on_c, 1, 86, 0
2, 27600, Note_on_c, 1, 83, 51
2, 27648, Note_on_c, 1, 83, 0
2, 27648, Note_on_c, 1, 91, 53
2, 28032, Note_on_c, 1, 91, 0
2, 28032, Note_on_c, 1, 90, 72
2, 28192, Note_on_c, 1, 90, 0
2, 28224, Note_on_c, 1, 91, 82
2, 28256, Note_on_c, 1, 91, 0
2, 28256, Note_on_c, 1, 90, 83
2, 28288, Note_on_c, 1, 90, 0
2, 28288, Note_on_c, 1, 91, 84
2, 28320, Note_on_c, 1, 91, 0
2, 28320, Note_on_c, 1, 90, 86
2, 28352, Note_on_c, 1, 90, 0
2, 28352, Note_on_c, 1, 88, 88
2, 28384, Note_on_c, 1, 88, 0
2, 28384, Note_on_c, 1, 90, 90
2, 28416, Note_on_c, 1, 90, 0
2, 28416, Note_on_c, 1, 91, 92
2, 28448, Note_on_c, 1, 91, 0
2, 28512, Note_on_c, 1, 86, 92
2, 28560, Note_on_c, 1, 86, 0
2, 28560, Note_on_c, 1, 83, 92
2, 28606, Note_on_c, 1, 83, 0
2, 28608, Note_on_c, 1, 79, 92
2, 28640, Note_on_c, 1, 79, 0
2, 28704, Note_on_c, 1, 74, 92
2, 28752, Note_on_c, 1, 74, 0
2, 28752, Note_on_c, 1, 71, 92
2, 28798, Note_on_c, 1, 71, 0
2, 28800, Note_on_c, 1, 67, 127
2, 28832, Note_on_c, 1, 67, 0
2, 28896, Note_on_c, 1, 62, 127
2, 28944, Note_on_c, 1, 62, 0
2, 28944, Note_on_c, 1, 59, 127
2, 28992, Note_on_c, 1, 59, 0
2, 28992, Note_on_c, 1, 55, 127
2, 29152, Note_on_c, 1, 55, 0
2, 29376, Note_on_c, 1, 71, 92
2, 29536, Note_on_c, 1, 71, 0
2, 29568, Note_on_c, 1, 71, 127
2, 29568, Note_on_c, 1, 83, 127
2, 29824, Note_on_c, 1, 71, 0
2, 29824, Note_on_c, 1, 83, 0
2, 29856, Note_on_c, 1, 71, 45
2, 29888, Note_on_c, 1, 71, 0
2, 29952, Note_on_c, 1, 70, 45
2, 29984, Note_on_c, 1, 70, 0
2, 30048, Note_on_c, 1, 71, 45
2, 30080, Note_on_c, 1, 71, 0
2, 30144, Note_on_c, 1, 73, 45
2, 30176, Note_on_c, 1, 73, 0
2, 30240, Note_on_c, 1, 75, 45
2, 30272, Note_on_c, 1, 75, 0
2, 30336, Note_on_c, 1, 76, 45
2, 30368, Note_on_c, 1, 76, 0
2, 30432, Note_on_c, 1, 78, 45
2, 30464, Note_on_c, 1, 78, 0
2, 30528, Note_on_c, 1, 80, 45
2, 30560, Note_on_c, 1, 80, 0
2, 30624, Note_on_c, 1, 82, 45
2, 30656, Note_on_c, 1, 82, 0
2, 30720, Note_on_c, 1, 83, 45
2, 30880, Note_on_c, 1, 83, 0
2, 30912, Note_on_c, 1, 83, 45
2, 31072, Note_on_c, 1, 83, 0
2, 31104, Note_on_c, 1, 85, 45
2, 31136, Note_on_c, 1, 85, 0
2, 31136, Note_on_c, 1, 87, 45
2, 31168, Note_on_c, 1, 87, 0
2, 31168, Note_on_c, 1, 85, 45
2, 31200, Note_on_c, 1, 85, 0
2, 31200, Note_on_c, 1, 83, 45
2, 31248, Note_on_c, 1, 83, 0
2, 31248, Note_on_c, 1, 85, 45
2, 31294, Note_on_c, 1, 85, 0
2, 31296, Note_on_c, 1, 87, 45
2, 31488, Note_on_c, 1, 87, 0
2, 31488, Note_on_c, 1, 83, 45
2, 31648, Note_on_c, 1, 83, 0
2, 31680, Note_on_c, 1, 71, 45
2, 31840, Note_on_c, 1, 71, 0
2, 31872, Note_on_c, 1, 71, 92
2, 31872, Note_on_c, 1, 83, 92
2, 32208, Note_on_c, 1, 71, 0
2, 32208, Note_on_c, 1, 83, 0
2, 32256, Note_on_c, 1, 71, 92
2, 32288, Note_on_c, 1, 71, 0
2, 32352, Note_on_c, 1, 72, 92
2, 32384, Note_on_c, 1, 72, 0
2, 32448, Note_on_c, 1, 74, 92
2, 32480, Note_on_c, 1, 74, 0
2, 32544, Note_on_c, 1, 76, 92
2, 32576, Note_on_c, 1, 76, 0
2, 32640, Note_on_c, 1, 77, 92
2, 32672, Note_on_c, 1, 77, 0
2, 32736, Note_on_c, 1, 79, 92
2, 32768, Note_on_c, 1, 79, 0
2, 32832, Note_on_c, 1, 81, 92
2, 32864, Note_on_c, 1, 81, 0
2, 32928, Note_on_c, 1, 83, 92
2, 32960, Note_on_c, 1, 83, 0
2, 33024, Note_on_c, 1, 84, 92
2, 33118, Note_on_c, 1, 84, 0
2, 33120, Note_on_c, 1, 87, 88
2, 33214, Note_on_c, 1, 87, 0
2, 33216, Note_on_c, 1, 88, 84
2, 33310, Note_on_c, 1, 88, 0
2, 33312, Note_on_c, 1, 87, 80
2, 33406, Note_on_c, 1, 87, 0
2, 33408, Note_on_c, 1, 88, 75
2, 33502, Note_on_c, 1, 88, 0
2, 33504, Note_on_c, 1, 84, 70
2, 33598, Note_on_c, 1, 84, 0
2, 33600, Note_on_c, 1, 83, 65
2, 33792, Note_on_c, 1, 83, 0
2, 33792, Note_on_c, 1, 81, 55
2, 33886, Note_on_c, 1, 81, 0
2, 33984, Note_on_c, 1, 86, 45
2, 34016, Note_on_c, 1, 86, 0
2, 34080, Note_on_c, 1, 86, 45
2, 34128, Note_on_c, 1, 86, 0
2, 34128, Note_on_c, 1, 83, 45
2, 34176, Note_on_c, 1, 83, 0
2, 34176, Note_on_c, 1, 91, 45
2, 34336, Note_on_c, 1, 91, 0
2, 34560, Note_on_c, 1, 86, 45
2, 34592, Note_on_c, 1, 86, 0
2, 34656, Note_on_c, 1, 86, 45
2, 34704, Note_on_c, 1, 86, 0
2, 34704, Note_on_c, 1, 83, 45
2, 34752, Note_on_c, 1, 83, 0
2, 34752, Note_on_c, 1, 79, 45
2, 34912, Note_on_c, 1, 79, 0
2, 35136, Note_on_c, 1, 83, 45
2, 35168, Note_on_c, 1, 83, 0
2, 35232, Note_on_c, 1, 83, 45
2, 35280, Note_on_c, 1, 83, 0
2, 35280, Note_on_c, 1, 79, 45
2, 35326, Note_on_c, 1, 79, 0
2, 35328, Note_on_c, 1, 78, 45
2, 35360, Note_on_c, 1, 78, 0
2, 35424, Note_on_c, 1, 85, 45
2, 35472, Note_on_c, 1, 85, 0
2, 35472, Note_on_c, 1, 86, 45
2, 35518, Note_on_c, 1, 86, 0
2, 35520, Note_on_c, 1, 78, 45
2, 35552, Note_on_c, 1, 78, 0
2, 35616, Note_on_c, 1, 85, 45
2, 35664, Note_on_c, 1, 85, 0
2, 35664, Note_on_c, 1, 86, 45
2, 35710, Note_on_c, 1, 86, 0
2, 35712, Note_on_c, 1, 79, 45
2, 35744, Note_on_c, 1, 79, 0
2, 35808, Note_on_c, 1, 85, 45
2, 35856, Note_on_c, 1, 85, 0
2, 35856, Note_on_c, 1, 86, 45
2, 35902, Note_on_c, 1, 86, 0
2, 35904, Note_on_c, 1, 81, 45
2, 36064, Note_on_c, 1, 81, 0
2, 36576, Note_on_c, 1, 78, 45
2, 36624, Note_on_c, 1, 78, 0
2, 36624, Note_on_c, 1, 81, 45
2, 36672, Note_on_c, 1, 81, 0
2, 36672, Note_on_c, 1, 84, 45
2, 36704, Note_on_c, 1, 84, 0
2, 37152, Note_on_c, 1, 81, 45
2, 37200, Note_on_c, 1, 81, 0
2, 37200, Note_on_c, 1, 78, 45
2, 37248, Note_on_c, 1, 78, 0
2, 37248, Note_on_c, 1, 75, 45
2, 37280, Note_on_c, 1, 75, 0
2, 37728, Note_on_c, 1, 78, 45
2, 37776, Note_on_c, 1, 78, 0
2, 37776, Note_on_c, 1, 75, 45
2, 37822, Note_on_c, 1, 75, 0
2, 37824, Note_on_c, 1, 71, 45
2, 37856, Note_on_c, 1, 71, 0
2, 37920, Note_on_c, 1, 66, 75
2, 37968, Note_on_c, 1, 66, 0
2, 37968, Note_on_c, 1, 63, 75
2, 38014, Note_on_c, 1, 63, 0
2, 38016, Note_on_c, 1, 59, 75
2, 38048, Note_on_c, 1, 59, 0
2, 38112, Note_on_c, 1, 66, 75
2, 38160, Note_on_c, 1, 66, 0
2, 38160, Note_on_c, 1, 63, 75
2, 38206, Note_on_c, 1, 63, 0
2, 38208, Note_on_c, 1, 59, 75
2, 38240, Note_on_c, 1, 59, 0
2, 38304, Note_on_c, 1, 67, 75
2, 38352, Note_on_c, 1, 67, 0
2, 38352, Note_on_c, 1, 64, 75
2, 38398, Note_on_c, 1, 64, 0
2, 38400, Note_on_c, 1, 59, 75
2, 38432, Note_on_c, 1, 59, 0
2, 38496, Note_on_c, 1, 67, 75
2, 38544, Note_on_c, 1, 67, 0
2, 38544, Note_on_c, 1, 64, 75
2, 38590, Note_on_c, 1, 64, 0
2, 38592, Note_on_c, 1, 59, 75
2, 38624, Note_on_c, 1, 59, 0
2, 38688, Note_on_c, 1, 67, 75
2, 38736, Note_on_c, 1, 67, 0
2, 38736, Note_on_c, 1, 64, 75
2, 38782, Note_on_c, 1, 64, 0
2, 38784, Note_on_c, 1, 59, 92
2, 38878, Note_on_c, 1, 59, 0
2, 38880, Note_on_c, 1, 79, 45
2, 39040, Note_on_c, 1, 79, 0
2, 39072, Note_on_c, 1, 79, 56
2, 39232, Note_on_c, 1, 79, 0
2, 39264, Note_on_c, 1, 79, 67
2, 39454, Note_on_c, 1, 79, 0
2, 39456, Note_on_c, 1, 79, 78
2, 39616, Note_on_c, 1, 79, 0
2, 39648, Note_on_c, 1, 79, 90
2, 39808, Note_on_c, 1, 79, 0
2, 39840, Note_on_c, 1, 79, 102
2, 39888, Note_on_c, 1, 79, 0
2, 39888, Note_on_c, 1, 76, 105
2, 39936, Note_on_c, 1, 76, 0
2, 39936, Note_on_c, 1, 84, 108
2, 40096, Note_on_c, 1, 84, 0
2, 40320, Note_on_c, 1, 79, 108
2, 40352, Note_on_c, 1, 79, 0
2, 40416, Note_on_c, 1, 79, 108
2, 40464, Note_on_c, 1, 79, 0
2, 40464, Note_on_c, 1, 76, 108
2, 40512, Note_on_c, 1, 76, 0
2, 40512, Note_on_c, 1, 72, 108
2, 40672, Note_on_c, 1, 72, 0
2, 40896, Note_on_c, 1, 76, 108
2, 40928, Note_on_c, 1, 76, 0
2, 40992, Note_on_c, 1, 76, 108
2, 41040, Note_on_c, 1, 76, 0
2, 41040, Note_on_c, 1, 72, 108
2, 41086, Note_on_c, 1, 72, 0
2, 41088, Note_on_c, 1, 71, 45
2, 41120, Note_on_c, 1, 71, 0
2, 41184, Note_on_c, 1, 73, 45
2, 41232, Note_on_c, 1, 73, 0
2, 41232, Note_on_c, 1, 74, 45
2, 41278, Note_on_c, 1, 74, 0
2, 41280, Note_on_c, 1, 71, 45
2, 41312, Note_on_c, 1, 71, 0
2, 41376, Note_on_c, 1, 73, 45
2, 41424, Note_on_c, 1, 73, 0
2, 41424, Note_on_c, 1, 74, 45
2, 41470, Note_on_c, 1, 74, 0
2, 41472, Note_on_c, 1, 69, 45
2, 41504, Note_on_c, 1, 69, 0
2, 41568, Note_on_c, 1, 73, 45
2, 41616, Note_on_c, 1, 73, 0
2, 41616, Note_on_c, 1, 74, 45
2, 41662, Note_on_c, 1, 74, 0
2, 41664, Note_on_c, 1, 67, 45
2, 41824, Note_on_c, 1, 67, 0
2, 41952, Note_on_c, 1, 66, 45
2, 41984, Note_on_c, 1, 66, 0
2, 42048, Note_on_c, 1, 67, 45
2, 42080, Note_on_c, 1, 67, 0
2, 42144, Note_on_c, 1, 68, 45
2, 42176, Note_on_c, 1, 68, 0
2, 42240, Note_on_c, 1, 69, 45
2, 42400, Note_on_c, 1, 69, 0
2, 42528, Note_on_c, 1, 68, 45
2, 42560, Note_on_c, 1, 68, 0
2, 42624, Note_on_c, 1, 69, 45
2, 42656, Note_on_c, 1, 69, 0
2, 42720, Note_on_c, 1, 70, 45
2, 42752, Note_on_c, 1, 70, 0
2, 42816, Note_on_c, 1, 71, 45
2, 42976, Note_on_c, 1, 71, 0
2, 43104, Note_on_c, 1, 73, 45
2, 43136, Note_on_c, 1, 73, 0
2, 43200, Note_on_c, 1, 74, 45
2, 43232, Note_on_c, 1, 74, 0
2, 43296, Note_on_c, 1, 75, 45
2, 43328, Note_on_c, 1, 75, 0
2, 43392, Note_on_c, 1, 76, 45
2, 43486, Note_on_c, 1, 76, 0
2, 43488, Note_on_c, 1, 79, 45
2, 43582, Note_on_c, 1, 79, 0
2, 43584, Note_on_c, 1, 79, 45
2, 43678, Note_on_c, 1, 79, 0
2, 43680, Note_on_c, 1, 79, 45
2, 43774, Note_on_c, 1, 79, 0
2, 43776, Note_on_c, 1, 69, 45
2, 43870, Note_on_c, 1, 69, 0
2, 43872, Note_on_c, 1, 74, 45
2, 43966, Note_on_c, 1, 74, 0
2, 43968, Note_on_c, 1, 67, 45
2, 44000, Note_on_c, 1, 67, 0
2, 44064, Note_on_c, 1, 73, 45
2, 44096, Note_on_c, 1, 73, 0
2, 44160, Note_on_c, 1, 74, 45
2, 44638, Note_on_c, 1, 74, 0
2, 44640, Note_on_c, 1, 73, 45
2, 44672, Note_on_c, 1, 73, 0
2, 44736, Note_on_c, 1, 74, 45
2, 45214, Note_on_c, 1, 74, 0
2, 45216, Note_on_c, 1, 78, 45
2, 45248, Note_on_c, 1, 78, 0
2, 45312, Note_on_c, 1, 79, 45
2, 45790, Note_on_c, 1, 79, 0
2, 45792, Note_on_c, 1, 84, 67
2, 45824, Note_on_c, 1, 84, 0
2, 45888, Note_on_c, 1, 83, 72
2, 45920, Note_on_c, 1, 83, 0
2, 45984, Note_on_c, 1, 88, 77
2, 46016, Note_on_c, 1, 88, 0
2, 46080, Note_on_c, 1, 86, 82
2, 46112, Note_on_c, 1, 86, 0
2, 46176, Note_on_c, 1, 78, 87
2, 46208, Note_on_c, 1, 78, 0
2, 46272, Note_on_c, 1, 79, 45
2, 46432, Note_on_c, 1, 79, 0
2, 47616, Note_on_c, 1, 86, 45
2, 47648, Note_on_c, 1, 86, 0
2, 47712, Note_on_c, 1, 86, 49
2, 47760, Note_on_c, 1, 86, 0
2, 47760, Note_on_c, 1, 83, 51
2, 47808, Note_on_c, 1, 83, 0
2, 47808, Note_on_c, 1, 91, 53
2, 48192, Note_on_c, 1, 91, 0
2, 48192, Note_on_c, 1, 90, 72
2, 48352, Note_on_c, 1, 90, 0
2, 48384, Note_on_c, 1, 91, 82
2, 48416, Note_on_c, 1, 91, 0
2, 48416, Note_on_c, 1, 90, 83
2, 48448, Note_on_c, 1, 90, 0
2, 48448, Note_on_c, 1, 91, 84
2, 48480, Note_on_c, 1, 91, 0
2, 48480, Note_on_c, 1, 90, 86
2, 48512, Note_on_c, 1, 90, 0
2, 48512, Note_on_c, 1, 88, 88
2, 48544, Note_on_c, 1, 88, 0
2, 48544, Note_on_c, 1, 90, 90
2, 48576, Note_on_c, 1, 90, 0
2, 48576, Note_on_c, 1, 91, 92
2, 48608, Note_on_c, 1, 91, 0
2, 48672, Note_on_c, 1, 86, 92
2, 48720, Note_on_c, 1, 86, 0
2, 48720, Note_on_c, 1, 83, 92
2, 48766, Note_on_c, 1, 83, 0
2, 48768, Note_on_c, 1, 79, 92
2, 48800, Note_on_c, 1, 79, 0
2, 48864, Note_on_c, 1, 74, 92
2, 48912, Note_on_c, 1, 74, 0
2, 48912, Note_on_c, 1, 71, 92
2, 48958, Note_on_c, 1, 71, 0
2, 48960, Note_on_c, 1, 67, 127
2, 48992, Note_on_c, 1, 67, 0
2, 49056, Note_on_c, 1, 62, 127
2, 49104, Note_on_c, 1, 62, 0
2, 49104, Note_on_c, 1, 59, 127
2, 49152, Note_on_c, 1, 59, 0
2, 49152, Note_on_c, 1, 55, 127
2, 49312, Note_on_c, 1, 55, 0
2, 49536, Note_on_c, 1, 55, 92
2, 49696, Note_on_c, 1, 55, 0
2, 49728, Note_on_c, 1, 60, 127
2, 50256, Note_on_c, 1, 60, 0
2, 50304, Note_on_c, 1, 62, 45
2, 50352, Note_on_c, 1, 62, 0
2, 50496, Note_on_c, 1, 62, 45
2, 50544, Note_on_c, 1, 62, 0
2, 50688, Note_on_c, 1, 62, 45
2, 50720, Note_on_c, 1, 62, 0
2, 50720, Note_on_c, 1, 64, 45
2, 50752, Note_on_c, 1, 64, 0
2, 50752, Note_on_c, 1, 62, 45
2, 50784, Note_on_c, 1, 62, 0
2, 50784, Note_on_c, 1, 60, 45
2, 50832, Note_on_c, 1, 60, 0
2, 50832, Note_on_c, 1, 62, 45
2, 50878, Note_on_c, 1, 62, 0
2, 50880, Note_on_c, 1, 64, 45
2, 50928, Note_on_c, 1, 64, 0
2, 51072, Note_on_c, 1, 64, 45
2, 51120, Note_on_c, 1, 64, 0
2, 51264, Note_on_c, 1, 64, 45
2, 51296, Note_on_c, 1, 64, 0
2, 51296, Note_on_c, 1, 65, 45
2, 51328, Note_on_c, 1, 65, 0
2, 51328, Note_on_c, 1, 64, 45
2, 51360, Note_on_c, 1, 64, 0
2, 51360, Note_on_c, 1, 62, 45
2, 51408, Note_on_c, 1, 62, 0
2, 51408, Note_on_c, 1, 64, 45
2, 51454, Note_on_c, 1, 64, 0
2, 51456, Note_on_c, 1, 65, 45
2, 51616, Note_on_c, 1, 65, 0
2, 52032, Note_on_c, 1, 66, 127
2, 52560, Note_on_c, 1, 66, 0
2, 52608, Note_on_c, 1, 67, 45
2, 52768, Note_on_c, 1, 67, 0
2, 52800, Note_on_c, 1, 67, 45
2, 52960, Note_on_c, 1, 67, 0
2, 52992, Note_on_c, 1, 67, 45
2, 53024, Note_on_c, 1, 67, 0
2, 53024, Note_on_c, 1, 69, 45
2, 53056, Note_on_c, 1, 69, 0
2, 53056, Note_on_c, 1, 67, 45
2, 53088, Note_on_c, 1, 67, 0
2, 53088, Note_on_c, 1, 66, 45
2, 53136, Note_on_c, 1, 66, 0
2, 53136, Note_on_c, 1, 67, 45
2, 53182, Note_on_c, 1, 67, 0
2, 53184, Note_on_c, 1, 69, 45
2, 53344, Note_on_c, 1, 69, 0
2, 53376, Note_on_c, 1, 69, 45
2, 53536, Note_on_c, 1, 69, 0
2, 53568, Note_on_c, 1, 69, 45
2, 53712, Note_on_c, 1, 69, 0
2, 53712, Note_on_c, 1, 71, 45
2, 53758, Note_on_c, 1, 71, 0
2, 53760, Note_on_c, 1, 67, 45
2, 53920, Note_on_c, 1, 67, 0
2, 54144, Note_on_c, 1, 55, 45
2, 54304, Note_on_c, 1, 55, 0
2, 54336, Note_on_c, 1, 60, 127
2, 54864, Note_on_c, 1, 60, 0
2, 54912, Note_on_c, 1, 62, 45
2, 54960, Note_on_c, 1, 62, 0
2, 55104, Note_on_c, 1, 62, 45
2, 55152, Note_on_c, 1, 62, 0
2, 55296, Note_on_c, 1, 62, 45
2, 55328, Note_on_c, 1, 62, 0
2, 55328, Note_on_c, 1, 64, 45
2, 55360, Note_on_c, 1, 64, 0
2, 55360, Note_on_c, 1, 62, 45
2, 55392, Note_on_c, 1, 62, 0
2, 55392, Note_on_c, 1, 60, 45
2, 55440, Note_on_c, 1, 60, 0
2, 55440, Note_on_c, 1, 62, 45
2, 55486, Note_on_c, 1, 62, 0
2, 55488, Note_on_c, 1, 64, 45
2, 55536, Note_on_c, 1, 64, 0
2, 55680, Note_on_c, 1, 64, 45
2, 55728, Note_on_c, 1, 64, 0
2, 55872, Note_on_c, 1, 64, 45
2, 55904, Note_on_c, 1, 64, 0
2, 55904, Note_on_c, 1, 65, 45
2, 55936, Note_on_c, 1, 65, 0
2, 55936, Note_on_c, 1, 64, 45
2, 55968, Note_on_c, 1, 64, 0
2, 55968, Note_on_c, 1, 62, 45
2, 56016, Note_on_c, 1, 62, 0
2, 56016, Note_on_c, 1, 64, 45
2, 56062, Note_on_c, 1, 64, 0
2, 56064, Note_on_c, 1, 65, 45
2, 56224, Note_on_c, 1, 65, 0
2, 56640, Note_on_c, 1, 66, 127
2, 57168, Note_on_c, 1, 66, 0
2, 57216, Note_on_c, 1, 67, 45
2, 57376, Note_on_c, 1, 67, 0
2, 57408, Note_on_c, 1, 67, 45
2, 57568, Note_on_c, 1, 67, 0
2, 57600, Note_on_c, 1, 67, 45
2, 57632, Note_on_c, 1, 67, 0
2, 57632, Note_on_c, 1, 69, 45
2, 57664, Note_on_c, 1, 69, 0
2, 57664, Note_on_c, 1, 67, 45
2, 57696, Note_on_c, 1, 67, 0
2, 57696, Note_on_c, 1, 66, 45
2, 57744, Note_on_c, 1, 66, 0
2, 57744, Note_on_c, 1, 67, 45
2, 57790, Note_on_c, 1, 67, 0
2, 57792, Note_on_c, 1, 69, 45
2, 57952, Note_on_c, 1, 69, 0
2, 57984, Note_on_c, 1, 69, 45
2, 58144, Note_on_c, 1, 69, 0
2, 58176, Note_on_c, 1, 69, 45
2, 58320, Note_on_c, 1, 69, 0
2, 58320, Note_on_c, 1, 71, 45
2, 58366, Note_on_c, 1, 71, 0
2, 58368, Note_on_c, 1, 67, 45
2, 58528, Note_on_c, 1, 67, 0
2, 58752, Note_on_c, 1, 67, 45
2, 58944, Note_on_c, 1, 67, 0
2, 58944, Note_on_c, 1, 79, 45
2, 58992, Note_on_c, 1, 79, 0
2, 59136, Note_on_c, 1, 79, 45
2, 59184, Note_on_c, 1, 79, 0
2, 59328, Note_on_c, 1, 79, 45
2, 59360, Note_on_c, 1, 79, 0
2, 59360, Note_on_c, 1, 81, 45
2, 59392, Note_on_c, 1, 81, 0
2, 59392, Note_on_c, 1, 79, 45
2, 59424, Note_on_c, 1, 79, 0
2, 59424, Note_on_c, 1, 78, 45
2, 59472, Note_on_c, 1, 78, 0
2, 59472, Note_on_c, 1, 79, 45
2, 59518, Note_on_c, 1, 79, 0
2, 59520, Note_on_c, 1, 83, 45
2, 60048, Note_on_c, 1, 83, 0
2, 60096, Note_on_c, 1, 84, 45
2, 60160, Note_on_c, 1, 84, 0
2, 60160, Note_on_c, 1, 88, 45
2, 60222, Note_on_c, 1, 88, 0
2, 60224, Note_on_c, 1, 86, 45
2, 60266, Note_on_c, 1, 86, 0
2, 60288, Note_on_c, 1, 84, 45
2, 60330, Note_on_c, 1, 84, 0
2, 60352, Note_on_c, 1, 83, 45
2, 60394, Note_on_c, 1, 83, 0
2, 60416, Note_on_c, 1, 81, 45
2, 60458, Note_on_c, 1, 81, 0
2, 60480, Note_on_c, 1, 79, 45
2, 60522, Note_on_c, 1, 79, 0
2, 60544, Note_on_c, 1, 77, 45
2, 60586, Note_on_c, 1, 77, 0
2, 60608, Note_on_c, 1, 76, 45
2, 60650, Note_on_c, 1, 76, 0
2, 60672, Note_on_c, 1, 74, 45
2, 60714, Note_on_c, 1, 74, 0
2, 60736, Note_on_c, 1, 79, 45
2, 60800, Note_on_c, 1, 79, 0
2, 60800, Note_on_c, 1, 78, 45
2, 60862, Note_on_c, 1, 78, 0
2, 60864, Note_on_c, 1, 79, 45
2, 60906, Note_on_c, 1, 79, 0
2, 60928, Note_on_c, 1, 74, 45
2, 60970, Note_on_c, 1, 74, 0
2, 60992, Note_on_c, 1, 71, 45
2, 61034, Note_on_c, 1, 71, 0
2, 61056, Note_on_c, 1, 67, 45
2, 61098, Note_on_c, 1, 67, 0
2, 61120, Note_on_c, 1, 62, 45
2, 61162, Note_on_c, 1, 62, 0
2, 61184, Note_on_c, 1, 59, 45
2, 61226, Note_on_c, 1, 59, 0
2, 61248, Note_on_c, 1, 55, 75
2, 61296, Note_on_c, 1, 55, 0
2, 61440, Note_on_c, 1, 55, 92
2, 61488, Note_on_c, 1, 55, 0
2, 61632, Note_on_c, 1, 55, 109
2, 61680, Note_on_c, 1, 55, 0
2, 61824, Note_on_c, 1, 89, 127
2, 62160, Note_on_c, 1, 89, 0
2, 62208, Note_on_c, 1, 81, 61
2, 62240, Note_on_c, 1, 81, 0
2, 62240, Note_on_c, 1, 83, 59
2, 62272, Note_on_c, 1, 83, 0
2, 62272, Note_on_c, 1, 81, 57
2, 62304, Note_on_c, 1, 81, 0
2, 62304, Note_on_c, 1, 83, 54
2, 62336, Note_on_c, 1, 83, 0
2, 62336, Note_on_c, 1, 81, 51
2, 62368, Note_on_c, 1, 81, 0
2, 62368, Note_on_c, 1, 83, 48
2, 62398, Note_on_c, 1, 83, 0
2, 62400, Note_on_c, 1, 84, 45
2, 62464, Note_on_c, 1, 84, 0
2, 62464, Note_on_c, 1, 88, 45
2, 62526, Note_on_c, 1, 88, 0
2, 62528, Note_on_c, 1, 86, 45
2, 62570, Note_on_c, 1, 86, 0
2, 62592, Note_on_c, 1, 84, 45
2, 62634, Note_on_c, 1, 84, 0
2, 62656, Note_on_c, 1, 83, 45
2, 62698, Note_on_c, 1, 83, 0
2, 62720, Note_on_c, 1, 81, 45
2, 62762, Note_on_c, 1, 81, 0
2, 62784, Note_on_c, 1, 79, 45
2, 62826, Note_on_c, 1, 79, 0
2, 62848, Note_on_c, 1, 77, 45
2, 62890, Note_on_c, 1, 77, 0
2, 62912, Note_on_c, 1, 76, 45
2, 62954, Note_on_c, 1, 76, 0
2, 62976, Note_on_c, 1, 74, 45
2, 63018, Note_on_c, 1, 74, 0
2, 63040, Note_on_c, 1, 79, 45
2, 63104, Note_on_c, 1, 79, 0
2, 63104, Note_on_c, 1, 78, 45
2, 63166, Note_on_c, 1, 78, 0
2, 63168, Note_on_c, 1, 79, 45
2, 63210, Note_on_c, 1, 79, 0
2, 63232, Note_on_c, 1, 81, 45
2, 63274, Note_on_c, 1, 81, 0
2, 63296, Note_on_c, 1, 83, 45
2, 63338, Note_on_c, 1, 83, 0
2, 63360, Note_on_c, 1, 84, 45
2, 63422, Note_on_c, 1, 84, 0
2, 63424, Note_on_c, 1, 79, 45
2, 63486, Note_on_c, 1, 79, 0
2, 63488, Note_on_c, 1, 76, 45
2, 63550, Note_on_c, 1, 76, 0
2, 63552, Note_on_c, 1, 74, 45
2, 63594, Note_on_c, 1, 74, 0
2, 63616, Note_on_c, 1, 79, 45
2, 63680, Note_on_c, 1, 79, 0
2, 63680, Note_on_c, 1, 78, 45
2, 63742, Note_on_c, 1, 78, 0
2, 63744, Note_on_c, 1, 79, 45
2, 63786, Note_on_c, 1, 79, 0
2, 63808, Note_on_c, 1, 81, 45
2, 63850, Note_on_c, 1, 81, 0
2, 63872, Note_on_c, 1, 83, 45
2, 63914, Note_on_c, 1, 83, 0
2, 63936, Note_on_c, 1, 84, 45
2, 63998, Note_on_c, 1, 84, 0
2, 64000, Note_on_c, 1, 79, 45
2, 64062, Note_on_c, 1, 79, 0
2, 64064, Note_on_c, 1, 76, 45
2, 64126, Note_on_c, 1, 76, 0
2, 64128, Note_on_c, 1, 74, 45
2, 64170, Note_on_c, 1, 74, 0
2, 64192, Note_on_c, 1, 79, 45
2, 64256, Note_on_c, 1, 79, 0
2, 64256, Note_on_c, 1, 78, 45
2, 64318, Note_on_c, 1, 78, 0
2, 64320, Note_on_c, 1, 79, 45
2, 64362, Note_on_c, 1, 79, 0
2, 64384, Note_on_c, 1, 74, 44
2, 64426, Note_on_c, 1, 74, 0
2, 64448, Note_on_c, 1, 71, 43
2, 64490, Note_on_c, 1, 71, 0
2, 64512, Note_on_c, 1, 67, 42
2, 64574, Note_on_c, 1, 67, 0
2, 64576, Note_on_c, 1, 62, 41
2, 64638, Note_on_c, 1, 62, 0
2, 64640, Note_on_c, 1, 59, 40
2, 64702, Note_on_c, 1, 59, 0
2, 64704, Note_on_c, 1, 55, 39
2, 64766, Note_on_c, 1, 55, 0
2, 64768, Note_on_c, 1, 59, 38
2, 64830, Note_on_c, 1, 59, 0
2, 64832, Note_on_c, 1, 62, 37
2, 64894, Note_on_c, 1, 62, 0
2, 64896, Note_on_c, 1, 67, 36
2, 64958, Note_on_c, 1, 67, 0
2, 64960, Note_on_c, 1, 71, 35
2, 65022, Note_on_c, 1, 71, 0
2, 65024, Note_on_c, 1, 74, 34
2, 65086, Note_on_c, 1, 74, 0
2, 65088, Note_on_c, 1, 77, 33
2, 65150, Note_on_c, 1, 77, 0
2, 65152, Note_on_c, 1, 74, 32
2, 65214, Note_on_c, 1, 74, 0
2, 65216, Note_on_c, 1, 71, 31
2, 65278, Note_on_c, 1, 71, 0
2, 65280, Note_on_c, 1, 72, 30
2, 65808, Note_on_c, 1, 72, 0
2, 65856, Note_on_c, 1, 74, 30
2, 66016, Note_on_c, 1, 74, 0
2, 66048, Note_on_c, 1, 74, 30
2, 66208, Note_on_c, 1, 74, 0
2, 66240, Note_on_c, 1, 74, 30
2, 66272, Note_on_c, 1, 74, 0
2, 66272, Note_on_c, 1, 76, 30
2, 66304, Note_on_c, 1, 76, 0
2, 66304, Note_on_c, 1, 74, 30
2, 66336, Note_on_c, 1, 74, 0
2, 66336, Note_on_c, 1, 72, 30
2, 66384, Note_on_c, 1, 72, 0
2, 66384, Note_on_c, 1, 74, 30
2, 66430, Note_on_c, 1, 74, 0
2, 66432, Note_on_c, 1, 76, 30
2, 66592, Note_on_c, 1, 76, 0
2, 66624, Note_on_c, 1, 76, 32
2, 66784, Note_on_c, 1, 76, 0
2, 66816, Note_on_c, 1, 76, 34
2, 66848, Note_on_c, 1, 76, 0
2, 66848, Note_on_c, 1, 77, 34
2, 66880, Note_on_c, 1, 77, 0
2, 66880, Note_on_c, 1, 76, 34
2, 66912, Note_on_c, 1, 76, 0
2, 66912, Note_on_c, 1, 74, 34
2, 66960, Note_on_c, 1, 74, 0
2, 66960, Note_on_c, 1, 76, 34
2, 67006, Note_on_c, 1, 76, 0
2, 67008, Note_on_c, 1, 77, 34
2, 67168, Note_on_c, 1, 77, 0
2, 67584, Note_on_c, 1, 77, 45
2, 67744, Note_on_c, 1, 77, 0
2, 67776, Note_on_c, 1, 77, 45
2, 67936, Note_on_c, 1, 77, 0
2, 67968, Note_on_c, 1, 77, 45
2, 68000, Note_on_c, 1, 77, 0
2, 68000, Note_on_c, 1, 79, 45
2, 68032, Note_on_c, 1, 79, 0
2, 68032, Note_on_c, 1, 77, 45
2, 68064, Note_on_c, 1, 77, 0
2, 68064, Note_on_c, 1, 76, 45
2, 68112, Note_on_c, 1, 76, 0
2, 68112, Note_on_c, 1, 77, 45
2, 68158, Note_on_c, 1, 77, 0
2, 68160, Note_on_c, 1, 76, 45
2, 68320, Note_on_c, 1, 76, 0
2, 68736, Note_on_c, 1, 74, 45
2, 68896, Note_on_c, 1, 74, 0
2, 68928, Note_on_c, 1, 74, 45
2, 69088, Note_on_c, 1, 74, 0
2, 69120, Note_on_c, 1, 74, 45
2, 69152, Note_on_c, 1, 74, 0
2, 69152, Note_on_c, 1, 76, 45
2, 69184, Note_on_c, 1, 76, 0
2, 69184, Note_on_c, 1, 74, 45
2, 69216, Note_on_c, 1, 74, 0
2, 69216, Note_on_c, 1, 72, 45
2, 69264, Note_on_c, 1, 72, 0
2, 69264, Note_on_c, 1, 74, 45
2, 69310, Note_on_c, 1, 74, 0
2, 69312, Note_on_c, 1, 72, 45
2, 69472, Note_on_c, 1, 72, 0
2, 69888, Note_on_c, 1, 79, 30
2, 69930, Note_on_c, 1, 79, 0
2, 69952, Note_on_c, 1, 83, 30
2, 69994, Note_on_c, 1, 83, 0
2, 70016, Note_on_c, 1, 81, 30
2, 70058, Note_on_c, 1, 81, 0
2, 70080, Note_on_c, 1, 79, 30
2, 70122, Note_on_c, 1, 79, 0
2, 70144, Note_on_c, 1, 83, 30
2, 70186, Note_on_c, 1, 83, 0
2, 70208, Note_on_c, 1, 81, 30
2, 70250, Note_on_c, 1, 81, 0
2, 70272, Note_on_c, 1, 79, 30
2, 70314, Note_on_c, 1, 79, 0
2, 70336, Note_on_c, 1, 81, 30
2, 70378, Note_on_c, 1, 81, 0
2, 70400, Note_on_c, 1, 83, 30
2, 70442, Note_on_c, 1, 83, 0
2, 70464, Note_on_c, 1, 84, 30
2, 70526, Note_on_c, 1, 84, 0
2, 70528, Note_on_c, 1, 88, 30
2, 70590, Note_on_c, 1, 88, 0
2, 70592, Note_on_c, 1, 86, 30
2, 70654, Note_on_c, 1, 86, 0
2, 70656, Note_on_c, 1, 84, 30
2, 70718, Note_on_c, 1, 84, 0
2, 70720, Note_on_c, 1, 83, 30
2, 70782, Note_on_c, 1, 83, 0
2, 70784, Note_on_c, 1, 81, 30
2, 70846, Note_on_c, 1, 81, 0
2, 70848, Note_on_c, 1, 79, 30
2, 70910, Note_on_c, 1, 79, 0
2, 70912, Note_on_c, 1, 77, 30
2, 70974, Note_on_c, 1, 77, 0
2, 70976, Note_on_c, 1, 76, 30
2, 71038, Note_on_c, 1, 76, 0
2, 71040, Note_on_c, 1, 74, 30
2, 71102, Note_on_c, 1, 74, 0
2, 71104, Note_on_c, 1, 76, 30
2, 71166, Note_on_c, 1, 76, 0
2, 71168, Note_on_c, 1, 77, 30
2, 71230, Note_on_c, 1, 77, 0
2, 71232, Note_on_c, 1, 71, 30
2, 71294, Note_on_c, 1, 71, 0
2, 71296, Note_on_c, 1, 72, 30
2, 71358, Note_on_c, 1, 72, 0
2, 71360, Note_on_c, 1, 74, 30
2, 71422, Note_on_c, 1, 74, 0
2, 71424, Note_on_c, 1, 67, 30
2, 71486, Note_on_c, 1, 67, 0
2, 71488, Note_on_c, 1, 69, 30
2, 71550, Note_on_c, 1, 69, 0
2, 71552, Note_on_c, 1, 71, 30
2, 71614, Note_on_c, 1, 71, 0
2, 71616, Note_on_c, 1, 72, 30
2, 71680, Note_on_c, 1, 72, 0
2, 71680, Note_on_c, 1, 74, 30
2, 71744, Note_on_c, 1, 74, 0
2, 71744, Note_on_c, 1, 75, 30
2, 71808, Note_on_c, 1, 75, 0
2, 71808, Note_on_c, 1, 76, 30
2, 71872, Note_on_c, 1, 76, 0
2, 71872, Note_on_c, 1, 77, 30
2, 71936, Note_on_c, 1, 77, 0
2, 71936, Note_on_c, 1, 78, 30
2, 72000, Note_on_c, 1, 78, 0
2, 72000, Note_on_c, 1, 79, 30
2, 72064, Note_on_c, 1, 79, 0
2, 72064, Note_on_c, 1, 80, 30
2, 72128, Note_on_c, 1, 80, 0
2, 72128, Note_on_c, 1, 81, 30
2, 72190, Note_on_c, 1, 81, 0
2, 72192, Note_on_c, 1, 79, 30
2, 72256, Note_on_c, 1, 79, 0
2, 72256, Note_on_c, 1, 77, 30
2, 72320, Note_on_c, 1, 77, 0
2, 72320, Note_on_c, 1, 76, 30
2, 72384, Note_on_c, 1, 76, 0
2, 72384, Note_on_c, 1, 75, 30
2, 72448, Note_on_c, 1, 75, 0
2, 72448, Note_on_c, 1, 74, 30
2, 72512, Note_on_c, 1, 74, 0
2, 72512, Note_on_c, 1, 73, 30
2, 72576, Note_on_c, 1, 73, 0
2, 72576, Note_on_c, 1, 74, 30
2, 72640, Note_on_c, 1, 74, 0
2, 72640, Note_on_c, 1, 77, 30
2, 72704, Note_on_c, 1, 77, 0
2, 72704, Note_on_c, 1, 71, 30
2, 72766, Note_on_c, 1, 71, 0
2, 72768, Note_on_c, 1, 72, 30
2, 72832, Note_on_c, 1, 72, 0
2, 72832, Note_on_c, 1, 71, 30
2, 72896, Note_on_c, 1, 71, 0
2, 72896, Note_on_c, 1, 69, 30
2, 72960, Note_on_c, 1, 69, 0
2, 72960, Note_on_c, 1, 67, 30
2, 73024, Note_on_c, 1, 67, 0
2, 73024, Note_on_c, 1, 66, 31
2, 73088, Note_on_c, 1, 66, 0
2, 73088, Note_on_c, 1, 65, 32
2, 73152, Note_on_c, 1, 65, 0
2, 73152, Note_on_c, 1, 64, 33
2, 73216, Note_on_c, 1, 64, 0
2, 73216, Note_on_c, 1, 63, 34
2, 73280, Note_on_c, 1, 63, 0
2, 73280, Note_on_c, 1, 62, 35
2, 73342, Note_on_c, 1, 62, 0
2, 73344, Note_on_c, 1, 67, 36
2, 73408, Note_on_c, 1, 67, 0
2, 73408, Note_on_c, 1, 66, 37
2, 73472, Note_on_c, 1, 66, 0
2, 73472, Note_on_c, 1, 69, 38
2, 73534, Note_on_c, 1, 69, 0
2, 73536, Note_on_c, 1, 67, 39
2, 73578, Note_on_c, 1, 67, 0
2, 73600, Note_on_c, 1, 64, 40
2, 73642, Note_on_c, 1, 64, 0
2, 73664, Note_on_c, 1, 60, 41
2, 73706, Note_on_c, 1, 60, 0
2, 73728, Note_on_c, 1, 55, 42
2, 73790, Note_on_c, 1, 55, 0
2, 73792, Note_on_c, 1, 57, 43
2, 73854, Note_on_c, 1, 57, 0
2, 73856, Note_on_c, 1, 59, 44
2, 73918, Note_on_c, 1, 59, 0
2, 73920, Note_on_c, 1, 60, 45
2, 73982, Note_on_c, 1, 60, 0
2, 73984, Note_on_c, 1, 64, 45
2, 74046, Note_on_c, 1, 64, 0
2, 74048, Note_on_c, 1, 67, 45
2, 74110, Note_on_c, 1, 67, 0
2, 74112, Note_on_c, 1, 72, 45
2, 74174, Note_on_c, 1, 72, 0
2, 74176, Note_on_c, 1, 76, 45
2, 74238, Note_on_c, 1, 76, 0
2, 74240, Note_on_c, 1, 79, 45
2, 74302, Note_on_c, 1, 79, 0
2, 74304, Note_on_c, 1, 84, 45
2, 74366, Note_on_c, 1, 84, 0
2, 74368, Note_on_c, 1, 88, 45
2, 74430, Note_on_c, 1, 88, 0
2, 74432, Note_on_c, 1, 91, 45
2, 74494, Note_on_c, 1, 91, 0
2, 74496, Note_on_c, 1, 96, 45
2, 74656, Note_on_c, 1, 96, 0
2, 74880, Note_on_c, 1, 67, 45
2, 75072, Note_on_c, 1, 67, 0
2, 75072, Note_on_c, 1, 79, 45
2, 75120, Note_on_c, 1, 79, 0
2, 75264, Note_on_c, 1, 79, 45
2, 75312, Note_on_c, 1, 79, 0
2, 75456, Note_on_c, 1, 79, 45
2, 75488, Note_on_c, 1, 79, 0
2, 75488, Note_on_c, 1, 81, 45
2, 75520, Note_on_c, 1, 81, 0
2, 75520, Note_on_c, 1, 79, 45
2, 75552, Note_on_c, 1, 79, 0
2, 75552, Note_on_c, 1, 78, 45
2, 75600, Note_on_c, 1, 78, 0
2, 75600, Note_on_c, 1, 79, 45
2, 75646, Note_on_c, 1, 79, 0
2, 75648, Note_on_c, 1, 83, 45
2, 76176, Note_on_c, 1, 83, 0
2, 76224, Note_on_c, 1, 84, 45
2, 76288, Note_on_c, 1, 84, 0
2, 76288, Note_on_c, 1, 88, 45
2, 76350, Note_on_c, 1, 88, 0
2, 76352, Note_on_c, 1, 86, 45
2, 76394, Note_on_c, 1, 86, 0
2, 76416, Note_on_c, 1, 84, 45
2, 76458, Note_on_c, 1, 84, 0
2, 76480, Note_on_c, 1, 83, 45
2, 76522, Note_on_c, 1, 83, 0
2, 76544, Note_on_c, 1, 81, 45
2, 76586, Note_on_c, 1, 81, 0
2, 76608, Note_on_c, 1, 79, 45
2, 76650, Note_on_c, 1, 79, 0
2, 76672, Note_on_c, 1, 77, 45
2, 76714, Note_on_c, 1, 77, 0
2, 76736, Note_on_c, 1, 76, 45
2, 76778, Note_on_c, 1, 76, 0
2, 76800, Note_on_c, 1, 74, 45
2, 76842, Note_on_c, 1, 74, 0
2, 76864, Note_on_c, 1, 79, 45
2, 76928, Note_on_c, 1, 79, 0
2, 76928, Note_on_c, 1, 78, 45
2, 76990, Note_on_c, 1, 78, 0
2, 76992, Note_on_c, 1, 79, 45
2, 77034, Note_on_c, 1, 79, 0
2, 77056, Note_on_c, 1, 74, 45
2, 77098, Note_on_c, 1, 74, 0
2, 77120, Note_on_c, 1, 71, 45
2, 77162, Note_on_c, 1, 71, 0
2, 77184, Note_on_c, 1, 67, 45
2, 77226, Note_on_c, 1, 67, 0
2, 77248, Note_on_c, 1, 62, 45
2, 77290, Note_on_c, 1, 62, 0
2, 77312, Note_on_c, 1, 59, 45
2, 77354, Note_on_c, 1, 59, 0
2, 77376, Note_on_c, 1, 55, 75
2, 77424, Note_on_c, 1, 55, 0
2, 77568, Note_on_c, 1, 55, 92
2, 77616, Note_on_c, 1, 55, 0
2, 77760, Note_on_c, 1, 55, 109
2, 77808, Note_on_c, 1, 55, 0
2, 77952, Note_on_c, 1, 89, 127
2, 78288, Note_on_c, 1, 89, 0
2, 78336, Note_on_c, 1, 81, 61
2, 78368, Note_on_c, 1, 81, 0
2, 78368, Note_on_c, 1, 83, 59
2, 78400, Note_on_c, 1, 83, 0
2, 78400, Note_on_c, 1, 81, 57
2, 78432, Note_on_c, 1, 81, 0
2, 78432, Note_on_c, 1, 83, 54
2, 78464, Note_on_c, 1, 83, 0
2, 78464, Note_on_c, 1, 81, 51
2, 78496, Note_on_c, 1, 81, 0
2, 78496, Note_on_c, 1, 83, 48
2, 78526, Note_on_c, 1, 83, 0
2, 78528, Note_on_c, 1, 84, 45
2, 78592, Note_on_c, 1, 84, 0
2, 78592, Note_on_c, 1, 88, 45
2, 78654, Note_on_c, 1, 88, 0
2, 78656, Note_on_c, 1, 86, 45
2, 78698, Note_on_c, 1, 86, 0
2, 78720, Note_on_c, 1, 84, 45
2, 78762, Note_on_c, 1, 84, 0
2, 78784, Note_on_c, 1, 83, 45
2, 78826, Note_on_c, 1, 83, 0
2, 78848, Note_on_c, 1, 81, 45
2, 78890, Note_on_c, 1, 81, 0
2, 78912, Note_on_c, 1, 79, 45
2, 78954, Note_on_c, 1, 79, 0
2, 78976, Note_on_c, 1, 77, 45
2, 79018, Note_on_c, 1, 77, 0
2, 79040, Note_on_c, 1, 76, 45
2, 79082, Note_on_c, 1, 76, 0
2, 79104, Note_on_c, 1, 74, 45
2, 79146, Note_on_c, 1, 74, 0
2, 79168, Note_on_c, 1, 79, 45
2, 79232, Note_on_c, 1, 79, 0
2, 79232, Note_on_c, 1, 78, 45
2, 79294, Note_on_c, 1, 78, 0
2, 79296, Note_on_c, 1, 79, 45
2, 79338, Note_on_c, 1, 79, 0
2, 79360, Note_on_c, 1, 81, 45
2, 79402, Note_on_c, 1, 81, 0
2, 79424, Note_on_c, 1, 83, 45
2, 79466, Note_on_c, 1, 83, 0
2, 79488, Note_on_c, 1, 84, 45
2, 79550, Note_on_c, 1, 84, 0
2, 79552, Note_on_c, 1, 79, 45
2, 79614, Note_on_c, 1, 79, 0
2, 79616, Note_on_c, 1, 76, 45
2, 79678, Note_on_c, 1, 76, 0
2, 79680, Note_on_c, 1, 74, 45
2, 79722, Note_on_c, 1, 74, 0
2, 79744, Note_on_c, 1, 79, 45
2, 79808, Note_on_c, 1, 79, 0
2, 79808, Note_on_c, 1, 78, 45
2, 79870, Note_on_c, 1, 78, 0
2, 79872, Note_on_c, 1, 79, 45
2, 79914, Note_on_c, 1, 79, 0
2, 79936, Note_on_c, 1, 81, 45
2, 79978, Note_on_c, 1, 81, 0
2, 80000, Note_on_c, 1, 83, 45
2, 80042, Note_on_c, 1, 83, 0
2, 80064, Note_on_c, 1, 84, 45
2, 80126, Note_on_c, 1, 84, 0
2, 80128, Note_on_c, 1, 79, 45
2, 80190, Note_on_c, 1, 79, 0
2, 80192, Note_on_c, 1, 76, 45
2, 80254, Note_on_c, 1, 76, 0
2, 80256, Note_on_c, 1, 74, 45
2, 80298, Note_on_c, 1, 74, 0
2, 80320, Note_on_c, 1, 79, 45
2, 80384, Note_on_c, 1, 79, 0
2, 80384, Note_on_c, 1, 78, 45
2, 80446, Note_on_c, 1, 78, 0
2, 80448, Note_on_c, 1, 79, 45
2, 80490, Note_on_c, 1, 79, 0
2, 80512, Note_on_c, 1, 74, 44
2, 80554, Note_on_c, 1, 74, 0
2, 80576, Note_on_c, 1, 71, 43
2, 80618, Note_on_c, 1, 71, 0
2, 80640, Note_on_c, 1, 67, 42
2, 80702, Note_on_c, 1, 67, 0
2, 80704, Note_on_c, 1, 62, 41
2, 80766, Note_on_c, 1, 62, 0
2, 80768, Note_on_c, 1, 59, 40
2, 80830, Note_on_c, 1, 59, 0
2, 80832, Note_on_c, 1, 55, 39
2, 80894, Note_on_c, 1, 55, 0
2, 80896, Note_on_c, 1, 59, 38
2, 80958, Note_on_c, 1, 59, 0
2, 80960, Note_on_c, 1, 62, 37
2, 81022, Note_on_c, 1, 62, 0
2, 81024, Note_on_c, 1, 67, 36
2, 81086, Note_on_c, 1, 67, 0
2, 81088, Note_on_c, 1, 71, 35
2, 81150, Note_on_c, 1, 71, 0
2, 81152, Note_on_c, 1, 74, 34
2, 81214, Note_on_c, 1, 74, 0
2, 81216, Note_on_c, 1, 77, 33
2, 81278, Note_on_c, 1, 77, 0
2, 81280, Note_on_c, 1, 74, 32
2, 81342, Note_on_c, 1, 74, 0
2, 81344, Note_on_c, 1, 71, 31
2, 81406, Note_on_c, 1, 71, 0
2, 81408, Note_on_c, 1, 72, 30
2, 81936, Note_on_c, 1, 72, 0
2, 81984, Note_on_c, 1, 74, 30
2, 82144, Note_on_c, 1, 74, 0
2, 82176, Note_on_c, 1, 74, 30
2, 82336, Note_on_c, 1, 74, 0
2, 82368, Note_on_c, 1, 74, 30
2, 82400, Note_on_c, 1, 74, 0
2, 82400, Note_on_c, 1, 76, 30
2, 82432, Note_on_c, 1, 76, 0
2, 82432, Note_on_c, 1, 74, 30
2, 82464, Note_on_c, 1, 74, 0
2, 82464, Note_on_c, 1, 72, 30
2, 82512, Note_on_c, 1, 72, 0
2, 82512, Note_on_c, 1, 74, 30
2, 82558, Note_on_c, 1, 74, 0
2, 82560, Note_on_c, 1, 76, 30
2, 82720, Note_on_c, 1, 76, 0
2, 82752, Note_on_c, 1, 76, 32
2, 82912, Note_on_c, 1, 76, 0
2, 82944, Note_on_c, 1, 76, 34
2, 82976, Note_on_c, 1, 76, 0
2, 82976, Note_on_c, 1, 77, 34
2, 83008, Note_on_c, 1, 77, 0
2, 83008, Note_on_c, 1, 76, 34
2, 83040, Note_on_c, 1, 76, 0
2, 83040, Note_on_c, 1, 74, 34
2, 83088, Note_on_c, 1, 74, 0
2, 83088, Note_on_c, 1, 76, 34
2, 83134, Note_on_c, 1, 76, 0
2, 83136, Note_on_c, 1, 77, 34
2, 83296, Note_on_c, 1, 77, 0
2, 83712, Note_on_c, 1, 77, 45
2, 83872, Note_on_c, 1, 77, 0
2, 83904, Note_on_c, 1, 77, 45
2, 84064, Note_on_c, 1, 77, 0
2, 84096, Note_on_c, 1, 77, 45
2, 84128, Note_on_c, 1, 77, 0
2, 84128, Note_on_c, 1, 79, 45
2, 84160, Note_on_c, 1, 79, 0
2, 84160, Note_on_c, 1, 77, 45
2, 84192, Note_on_c, 1, 77, 0
2, 84192, Note_on_c, 1, 76, 45
2, 84240, Note_on_c, 1, 76, 0
2, 84240, Note_on_c, 1, 77, 45
2, 84286, Note_on_c, 1, 77, 0
2, 84288, Note_on_c, 1, 76, 45
2, 84448, Note_on_c, 1, 76, 0
2, 84864, Note_on_c, 1, 74, 45
2, 85024, Note_on_c, 1, 74, 0
2, 85056, Note_on_c, 1, 74, 45
2, 85216, Note_on_c, 1, 74, 0
2, 85248, Note_on_c, 1, 74, 45
2, 85280, Note_on_c, 1, 74, 0
2, 85280, Note_on_c, 1, 76, 45
2, 85312, Note_on_c, 1, 76, 0
2, 85312, Note_on_c, 1, 74, 45
2, 85344, Note_on_c, 1, 74, 0
2, 85344, Note_on_c, 1, 72, 45
2, 85392, Note_on_c, 1, 72, 0
2, 85392, Note_on_c, 1, 74, 45
2, 85438, Note_on_c, 1, 74, 0
2, 85440, Note_on_c, 1, 72, 45
2, 85600, Note_on_c, 1, 72, 0
2, 86016, Note_on_c, 1, 79, 30
2, 86058, Note_on_c, 1, 79, 0
2, 86080, Note_on_c, 1, 83, 30
2, 86122, Note_on_c, 1, 83, 0
2, 86144, Note_on_c, 1, 81, 30
2, 86186, Note_on_c, 1, 81, 0
2, 86208, Note_on_c, 1, 79, 30
2, 86250, Note_on_c, 1, 79, 0
2, 86272, Note_on_c, 1, 83, 30
2, 86314, Note_on_c, 1, 83, 0
2, 86336, Note_on_c, 1, 81, 30
2, 86378, Note_on_c, 1, 81, 0
2, 86400, Note_on_c, 1, 79, 30
2, 86442, Note_on_c, 1, 79, 0
2, 86464, Note_on_c, 1, 81, 30
2, 86506, Note_on_c, 1, 81, 0
2, 86528, Note_on_c, 1, 83, 30
2, 86570, Note_on_c, 1, 83, 0
2, 86592, Note_on_c, 1, 84, 30
2, 86654, Note_on_c, 1, 84, 0
2, 86656, Note_on_c, 1, 88, 30
2, 86718, Note_on_c, 1, 88, 0
2, 86720, Note_on_c, 1, 86, 30
2, 86782, Note_on_c, 1, 86, 0
2, 86784, Note_on_c, 1, 84, 30
2, 86846, Note_on_c, 1, 84, 0
2, 86848, Note_on_c, 1, 83, 30
2, 86910, Note_on_c, 1, 83, 0
2, 86912, Note_on_c, 1, 81, 30
2, 86974, Note_on_c, 1, 81, 0
2, 86976, Note_on_c, 1, 79, 30
2, 87038, Note_on_c, 1, 79, 0
2, 87040, Note_on_c, 1, 77, 30
2, 87102, Note_on_c, 1, 77, 0
2, 87104, Note_on_c, 1, 76, 30
2, 87166, Note_on_c, 1, 76, 0
2, 87168, Note_on_c, 1, 74, 30
2, 87230, Note_on_c, 1, 74, 0
2, 87232, Note_on_c, 1, 76, 30
2, 87294, Note_on_c, 1, 76, 0
2, 87296, Note_on_c, 1, 77, 30
2, 87358, Note_on_c, 1, 77, 0
2, 87360, Note_on_c, 1, 71, 30
2, 87422, Note_on_c, 1, 71, 0
2, 87424, Note_on_c, 1, 72, 30
2, 87486, Note_on_c, 1, 72, 0
2, 87488, Note_on_c, 1, 74, 30
2, 87550, Note_on_c, 1, 74, 0
2, 87552, Note_on_c, 1, 67, 30
2, 87614, Note_on_c, 1, 67, 0
2, 87616, Note_on_c, 1, 69, 30
2, 87678, Note_on_c, 1, 69, 0
2, 87680, Note_on_c, 1, 71, 30
2, 87742, Note_on_c, 1, 71, 0
2, 87744, Note_on_c, 1, 72, 30
2, 87808, Note_on_c, 1, 72, 0
2, 87808, Note_on_c, 1, 74, 30
2, 87872, Note_on_c, 1, 74, 0
2, 87872, Note_on_c, 1, 75, 30
2, 87936, Note_on_c, 1, 75, 0
2, 87936, Note_on_c, 1, 76, 30
2, 88000, Note_on_c, 1, 76, 0
2, 88000, Note_on_c, 1, 77, 30
2, 88064, Note_on_c, 1, 77, 0
2, 88064, Note_on_c, 1, 78, 30
2, 88128, Note_on_c, 1, 78, 0
2, 88128, Note_on_c, 1, 79, 30
2, 88192, Note_on_c, 1, 79, 0
2, 88192, Note_on_c, 1, 80, 30
2, 88256, Note_on_c, 1, 80, 0
2, 88256, Note_on_c, 1, 81, 30
2, 88318, Note_on_c, 1, 81, 0
2, 88320, Note_on_c, 1, 79, 30
2, 88384, Note_on_c, 1, 79, 0
2, 88384, Note_on_c, 1, 77, 30
2, 88448, Note_on_c, 1, 77, 0
2, 88448, Note_on_c, 1, 76, 30
2, 88512, Note_on_c, 1, 76, 0
2, 88512, Note_on_c, 1, 75, 30
2, 88576, Note_on_c, 1, 75, 0
2, 88576, Note_on_c, 1, 74, 30
2, 88640, Note_on_c, 1, 74, 0
2, 88640, Note_on_c, 1, 73, 30
2, 88704, Note_on_c, 1, 73, 0
2, 88704, Note_on_c, 1, 74, 30
2, 88768, Note_on_c, 1, 74, 0
2, 88768, Note_on_c, 1, 77, 30
2, 88832, Note_on_c, 1, 77, 0
2, 88832, Note_on_c, 1, 71, 30
2, 88894, Note_on_c, 1, 71, 0
2, 88896, Note_on_c, 1, 72, 30
2, 88960, Note_on_c, 1, 72, 0
2, 88960, Note_on_c, 1, 71, 30
2, 89024, Note_on_c, 1, 71, 0
2, 89024, Note_on_c, 1, 69, 30
2, 89088, Note_on_c, 1, 69, 0
2, 89088, Note_on_c, 1, 67, 30
2, 89152, Note_on_c, 1, 67, 0
2, 89152, Note_on_c, 1, 66, 31
2, 89216, Note_on_c, 1, 66, 0
2, 89216, Note_on_c, 1, 65, 32
2, 89280, Note_on_c, 1, 65, 0
2, 89280, Note_on_c, 1, 64, 33
2, 89344, Note_on_c, 1, 64, 0
2, 89344, Note_on_c, 1, 63, 34
2, 89408, Note_on_c, 1, 63, 0
2, 89408, Note_on_c, 1, 62, 35
2, 89470, Note_on_c, 1, 62, 0
2, 89472, Note_on_c, 1, 67, 36
2, 89536, Note_on_c, 1, 67, 0
2, 89536, Note_on_c, 1, 66, 37
2, 89600, Note_on_c, 1, 66, 0
2, 89600, Note_on_c, 1, 69, 38
2, 89662, Note_on_c, 1, 69, 0
2, 89664, Note_on_c, 1, 67, 39
2, 89706, Note_on_c, 1, 67, 0
2, 89728, Note_on_c, 1, 64, 40
2, 89770, Note_on_c, 1, 64, 0
2, 89792, Note_on_c, 1, 60, 41
2, 89834, Note_on_c, 1, 60, 0
2, 89856, Note_on_c, 1, 55, 42
2, 89918, Note_on_c, 1, 55, 0
2, 89920, Note_on_c, 1, 57, 43
2, 89982, Note_on_c, 1, 57, 0
2, 89984, Note_on_c, 1, 59, 44
2, 90046, Note_on_c, 1, 59, 0
2, 90048, Note_on_c, 1, 60, 45
2, 90110, Note_on_c, 1, 60, 0
2, 90112, Note_on_c, 1, 64, 45
2, 90174, Note_on_c, 1, 64, 0
2, 90176, Note_on_c, 1, 67, 45
2, 90238, Note_on_c, 1, 67, 0
2, 90240, Note_on_c, 1, 72, 45
2, 90302, Note_on_c, 1, 72, 0
2, 90304, Note_on_c, 1, 76, 45
2, 90366, Note_on_c, 1, 76, 0
2, 90368, Note_on_c, 1, 79, 45
2, 90430, Note_on_c, 1, 79, 0
2, 90432, Note_on_c, 1, 84, 45
2, 90494, Note_on_c, 1, 84, 0
2, 90496, Note_on_c, 1, 88, 45
2, 90558, Note_on_c, 1, 88, 0
2, 90560, Note_on_c, 1, 91, 45
2, 90622, Note_on_c, 1, 91, 0
2, 90624, Note_on_c, 1, 96, 45
2, 90784, Note_on_c, 1, 96, 0
2, 91296, Note_on_c, 1, 76, 30
2, 91344, Note_on_c, 1, 76, 0
2, 91344, Note_on_c, 1, 79, 30
2, 91392, Note_on_c, 1, 79, 0
2, 91392, Note_on_c, 1, 84, 30
2, 91424, Note_on_c, 1, 84, 0
2, 91872, Note_on_c, 1, 79, 30
2, 91920, Note_on_c, 1, 79, 0
2, 91920, Note_on_c, 1, 76, 30
2, 91968, Note_on_c, 1, 76, 0
2, 91968, Note_on_c, 1, 72, 30
2, 92000, Note_on_c, 1, 72, 0
2, 92160, Note_on_c, 1, 72, 30
2, 92192, Note_on_c, 1, 72, 0
2, 92256, Note_on_c, 1, 76, 30
2, 92304, Note_on_c, 1, 76, 0
2, 92304, Note_on_c, 1, 79, 30
2, 92352, Note_on_c, 1, 79, 0
2, 92352, Note_on_c, 1, 84, 30
2, 92384, Note_on_c, 1, 84, 0
2, 92448, Note_on_c, 1, 79, 30
2, 92496, Note_on_c, 1, 79, 0
2, 92496, Note_on_c, 1, 76, 30
2, 92544, Note_on_c, 1, 76, 0
2, 92544, Note_on_c, 1, 72, 30
2, 92576, Note_on_c, 1, 72, 0
2, 92640, Note_on_c, 1, 76, 30
2, 92688, Note_on_c, 1, 76, 0
2, 92688, Note_on_c, 1, 79, 30
2, 92736, Note_on_c, 1, 79, 0
2, 92736, Note_on_c, 1, 84, 30
2, 92768, Note_on_c, 1, 84, 0
2, 92832, Note_on_c, 1, 79, 30
2, 92880, Note_on_c, 1, 79, 0
2, 92880, Note_on_c, 1, 76, 30
2, 92928, Note_on_c, 1, 76, 0
2, 92928, Note_on_c, 1, 72, 30
2, 92960, Note_on_c, 1, 72, 0
2, 93024, Note_on_c, 1, 76, 30
2, 93072, Note_on_c, 1, 76, 0
2, 93072, Note_on_c, 1, 79, 30
2, 93120, Note_on_c, 1, 79, 0
2, 93120, Note_on_c, 1, 84, 30
2, 93168, Note_on_c, 1, 84, 0
2, 93600, Note_on_c, 1, 78, 30
2, 93648, Note_on_c, 1, 78, 0
2, 93648, Note_on_c, 1, 81, 30
2, 93696, Note_on_c, 1, 81, 0
2, 93696, Note_on_c, 1, 84, 30
2, 93728, Note_on_c, 1, 84, 0
2, 94176, Note_on_c, 1, 81, 30
2, 94224, Note_on_c, 1, 81, 0
2, 94224, Note_on_c, 1, 78, 30
2, 94272, Note_on_c, 1, 78, 0
2, 94272, Note_on_c, 1, 72, 30
2, 94304, Note_on_c, 1, 72, 0
2, 94464, Note_on_c, 1, 72, 30
2, 94496, Note_on_c, 1, 72, 0
2, 94560, Note_on_c, 1, 78, 30
2, 94608, Note_on_c, 1, 78, 0
2, 94608, Note_on_c, 1, 81, 30
2, 94656, Note_on_c, 1, 81, 0
2, 94656, Note_on_c, 1, 84, 30
2, 94688, Note_on_c, 1, 84, 0
2, 94752, Note_on_c, 1, 81, 30
2, 94800, Note_on_c, 1, 81, 0
2, 94800, Note_on_c, 1, 78, 30
2, 94848, Note_on_c, 1, 78, 0
2, 94848, Note_on_c, 1, 72, 30
2, 94880, Note_on_c, 1, 72, 0
2, 94944, Note_on_c, 1, 78, 30
2, 94992, Note_on_c, 1, 78, 0
2, 94992, Note_on_c, 1, 81, 30
2, 95040, Note_on_c, 1, 81, 0
2, 95040, Note_on_c, 1, 84, 30
2, 95072, Note_on_c, 1, 84, 0
2, 95136, Note_on_c, 1, 81, 30
2, 95184, Note_on_c, 1, 81, 0
2, 95184, Note_on_c, 1, 78, 30
2, 95232, Note_on_c, 1, 78, 0
2, 95232, Note_on_c, 1, 72, 30
2, 95264, Note_on_c, 1, 72, 0
2, 95328, Note_on_c, 1, 78, 30
2, 95376, Note_on_c, 1, 78, 0
2, 95376, Note_on_c, 1, 81, 30
2, 95424, Note_on_c, 1, 81, 0
2, 95424, Note_on_c, 1, 84, 30
2, 95584, Note_on_c, 1, 84, 0
2, 95616, Note_on_c, 1, 74, 45
2, 95648, Note_on_c, 1, 74, 0
2, 95712, Note_on_c, 1, 74, 45
2, 95760, Note_on_c, 1, 74, 0
2, 95760, Note_on_c, 1, 71, 45
2, 95808, Note_on_c, 1, 71, 0
2, 95808, Note_on_c, 1, 79, 45
2, 95968, Note_on_c, 1, 79, 0
2, 96192, Note_on_c, 1, 74, 45
2, 96224, Note_on_c, 1, 74, 0
2, 96288, Note_on_c, 1, 74, 45
2, 96336, Note_on_c, 1, 74, 0
2, 96336, Note_on_c, 1, 71, 45
2, 96384, Note_on_c, 1, 71, 0
2, 96384, Note_on_c, 1, 67, 45
2, 96544, Note_on_c, 1, 67, 0
2, 96768, Note_on_c, 1, 71, 45
2, 96800, Note_on_c, 1, 71, 0
2, 96864, Note_on_c, 1, 71, 45
2, 96912, Note_on_c, 1, 71, 0
2, 96912, Note_on_c, 1, 67, 45
2, 96958, Note_on_c, 1, 67, 0
2, 96960, Note_on_c, 1, 66, 45
2, 96992, Note_on_c, 1, 66, 0
2, 97056, Note_on_c, 1, 73, 45
2, 97104, Note_on_c, 1, 73, 0
2, 97104, Note_on_c, 1, 74, 45
2, 97150, Note_on_c, 1, 74, 0
2, 97152, Note_on_c, 1, 66, 45
2, 97184, Note_on_c, 1, 66, 0
2, 97248, Note_on_c, 1, 73, 45
2, 97296, Note_on_c, 1, 73, 0
2, 97296, Note_on_c, 1, 74, 45
2, 97342, Note_on_c, 1, 74, 0
2, 97344, Note_on_c, 1, 67, 45
2, 97376, Note_on_c, 1, 67, 0
2, 97440, Note_on_c, 1, 73, 45
2, 97488, Note_on_c, 1, 73, 0
2, 97488, Note_on_c, 1, 74, 45
2, 97534, Note_on_c, 1, 74, 0
2, 97536, Note_on_c, 1, 69, 60
2, 97696, Note_on_c, 1, 69, 0
2, 97920, Note_on_c, 1, 81, 45
2, 97952, Note_on_c, 1, 81, 0
2, 98016, Note_on_c, 1, 81, 45
2, 98064, Note_on_c, 1, 81, 0
2, 98064, Note_on_c, 1, 78, 45
2, 98112, Note_on_c, 1, 78, 0
2, 98112, Note_on_c, 1, 84, 45
2, 98272, Note_on_c, 1, 84, 0
2, 98496, Note_on_c, 1, 81, 45
2, 98528, Note_on_c, 1, 81, 0
2, 98592, Note_on_c, 1, 81, 45
2, 98640, Note_on_c, 1, 81, 0
2, 98640, Note_on_c, 1, 78, 45
2, 98688, Note_on_c, 1, 78, 0
2, 98688, Note_on_c, 1, 72, 45
2, 98848, Note_on_c, 1, 72, 0
2, 98976, Note_on_c, 1, 74, 45
2, 99024, Note_on_c, 1, 74, 0
2, 99024, Note_on_c, 1, 72, 45
2, 99070, Note_on_c, 1, 72, 0
2, 99072, Note_on_c, 1, 71, 45
2, 99104, Note_on_c, 1, 71, 0
2, 99168, Note_on_c, 1, 78, 45
2, 99216, Note_on_c, 1, 78, 0
2, 99216, Note_on_c, 1, 79, 45
2, 99262, Note_on_c, 1, 79, 0
2, 99264, Note_on_c, 1, 69, 45
2, 99424, Note_on_c, 1, 69, 0
2, 99552, Note_on_c, 1, 75, 45
2, 99600, Note_on_c, 1, 75, 0
2, 99600, Note_on_c, 1, 76, 45
2, 99646, Note_on_c, 1, 76, 0
2, 99648, Note_on_c, 1, 66, 45
2, 99680, Note_on_c, 1, 66, 0
2, 99744, Note_on_c, 1, 73, 45
2, 99792, Note_on_c, 1, 73, 0
2, 99792, Note_on_c, 1, 74, 45
2, 99838, Note_on_c, 1, 74, 0
2, 99840, Note_on_c, 1, 67, 45
2, 99888, Note_on_c, 1, 67, 0
2, 100224, Note_on_c, 1, 71, 45
2, 100384, Note_on_c, 1, 71, 0
2, 100416, Note_on_c, 1, 71, 127
2, 100416, Note_on_c, 1, 83, 127
2, 100672, Note_on_c, 1, 71, 0
2, 100672, Note_on_c, 1, 83, 0
2, 100704, Note_on_c, 1, 71, 45
2, 100736, Note_on_c, 1, 71, 0
2, 100800, Note_on_c, 1, 70, 45
2, 100832, Note_on_c, 1, 70, 0
2, 100896, Note_on_c, 1, 71, 45
2, 100928, Note_on_c, 1, 71, 0
2, 100992, Note_on_c, 1, 73, 45
2, 101024, Note_on_c, 1, 73, 0
2, 101088, Note_on_c, 1, 75, 45
2, 101120, Note_on_c, 1, 75, 0
2, 101184, Note_on_c, 1, 76, 45
2, 101216, Note_on_c, 1, 76, 0
2, 101280, Note_on_c, 1, 78, 45
2, 101312, Note_on_c, 1, 78, 0
2, 101376, Note_on_c, 1, 80, 45
2, 101408, Note_on_c, 1, 80, 0
2, 101472, Note_on_c, 1, 82, 45
2, 101504, Note_on_c, 1, 82, 0
2, 101568, Note_on_c, 1, 83, 45
2, 101728, Note_on_c, 1, 83, 0
2, 101760, Note_on_c, 1, 83, 45
2, 101920, Note_on_c, 1, 83, 0
2, 101952, Note_on_c, 1, 85, 45
2, 101984, Note_on_c, 1, 85, 0
2, 101984, Note_on_c, 1, 87, 45
2, 102016, Note_on_c, 1, 87, 0
2, 102016, Note_on_c, 1, 85, 45
2, 102048, Note_on_c, 1, 85, 0
2, 102048, Note_on_c, 1, 83, 45
2, 102096, Note_on_c, 1, 83, 0
2, 102096, Note_on_c, 1, 85, 45
2, 102142, Note_on_c, 1, 85, 0
2, 102144, Note_on_c, 1, 87, 45
2, 102336, Note_on_c, 1, 87, 0
2, 102336, Note_on_c, 1, 83, 45
2, 102496, Note_on_c, 1, 83, 0
2, 102528, Note_on_c, 1, 71, 45
2, 102688, Note_on_c, 1, 71, 0
2, 102720, Note_on_c, 1, 71, 92
2, 102720, Note_on_c, 1, 83, 92
2, 103056, Note_on_c, 1, 71, 0
2, 103056, Note_on_c, 1, 83, 0
2, 103104, Note_on_c, 1, 71, 92
2, 103136, Note_on_c, 1, 71, 0
2, 103200, Note_on_c, 1, 72, 92
2, 103232, Note_on_c, 1, 72, 0
2, 103296, Note_on_c, 1, 74, 92
2, 103328, Note_on_c, 1, 74, 0
2, 103392, Note_on_c, 1, 76, 92
2, 103424, Note_on_c, 1, 76, 0
2, 103488, Note_on_c, 1, 77, 92
2, 103520, Note_on_c, 1, 77, 0
2, 103584, Note_on_c, 1, 79, 92
2, 103616, Note_on_c, 1, 79, 0
2, 103680, Note_on_c, 1, 81, 92
2, 103712, Note_on_c, 1, 81, 0
2, 103776, Note_on_c, 1, 83, 92
2, 103808, Note_on_c, 1, 83, 0
2, 103872, Note_on_c, 1, 84, 92
2, 103966, Note_on_c, 1, 84, 0
2, 103968, Note_on_c, 1, 87, 88
2, 104062, Note_on_c, 1, 87, 0
2, 104064, Note_on_c, 1, 88, 84
2, 104158, Note_on_c, 1, 88, 0
2, 104160, Note_on_c, 1, 87, 80
2, 104254, Note_on_c, 1, 87, 0
2, 104256, Note_on_c, 1, 88, 75
2, 104350, Note_on_c, 1, 88, 0
2, 104352, Note_on_c, 1, 84, 70
2, 104446, Note_on_c, 1, 84, 0
2, 104448, Note_on_c, 1, 83, 65
2, 104640, Note_on_c, 1, 83, 0
2, 104640, Note_on_c, 1, 81, 55
2, 104734, Note_on_c, 1, 81, 0
2, 104832, Note_on_c, 1, 86, 45
2, 104864, Note_on_c, 1, 86, 0
2, 104928, Note_on_c, 1, 86, 45
2, 104976, Note_on_c, 1, 86, 0
2, 104976, Note_on_c, 1, 83, 45
2, 105024, Note_on_c, 1, 83, 0
2, 105024, Note_on_c, 1, 91, 45
2, 105184, Note_on_c, 1, 91, 0
2, 105408, Note_on_c, 1, 86, 45
2, 105440, Note_on_c, 1, 86, 0
2, 105504, Note_on_c, 1, 86, 45
2, 105552, Note_on_c, 1, 86, 0
2, 105552, Note_on_c, 1, 83, 45
2, 105600, Note_on_c, 1, 83, 0
2, 105600, Note_on_c, 1, 79, 45
2, 105760, Note_on_c, 1, 79, 0
2, 105984, Note_on_c, 1, 83, 45
2, 106016, Note_on_c, 1, 83, 0
2, 106080, Note_on_c, 1, 83, 45
2, 106128, Note_on_c, 1, 83, 0
2, 106128, Note_on_c, 1, 79, 45
2, 106174, Note_on_c, 1, 79, 0
2, 106176, Note_on_c, 1, 78, 45
2, 106208, Note_on_c, 1, 78, 0
2, 106272, Note_on_c, 1, 85, 45
2, 106320, Note_on_c, 1, 85, 0
2, 106320, Note_on_c, 1, 86, 45
2, 106366, Note_on_c, 1, 86, 0
2, 106368, Note_on_c, 1, 78, 45
2, 106400, Note_on_c, 1, 78, 0
2, 106464, Note_on_c, 1, 85, 45
2, 106512, Note_on_c, 1, 85, 0
2, 106512, Note_on_c, 1, 86, 45
2, 106558, Note_on_c, 1, 86, 0
2, 106560, Note_on_c, 1, 79, 45
2, 106592, Note_on_c, 1, 79, 0
2, 106656, Note_on_c, 1, 85, 45
2, 106704, Note_on_c, 1, 85, 0
2, 106704, Note_on_c, 1, 86, 45
2, 106750, Note_on_c, 1, 86, 0
2, 106752, Note_on_c, 1, 81, 45
2, 106912, Note_on_c, 1, 81, 0
2, 107424, Note_on_c, 1, 78, 45
2, 107472, Note_on_c, 1, 78, 0
2, 107472, Note_on_c, 1, 81, 45
2, 107520, Note_on_c, 1, 81, 0
2, 107520, Note_on_c, 1, 84, 45
2, 107552, Note_on_c, 1, 84, 0
2, 108000, Note_on_c, 1, 81, 45
2, 108048, Note_on_c, 1, 81, 0
2, 108048, Note_on_c, 1, 78, 45
2, 108096, Note_on_c, 1, 78, 0
2, 108096, Note_on_c, 1, 75, 45
2, 108128, Note_on_c, 1, 75, 0
2, 108576, Note_on_c, 1, 78, 45
2, 108624, Note_on_c, 1, 78, 0
2, 108624, Note_on_c, 1, 75, 45
2, 108670, Note_on_c, 1, 75, 0
2, 108672, Note_on_c, 1, 71, 45
2, 108704, Note_on_c, 1, 71, 0
2, 108768, Note_on_c, 1, 66, 75
2, 108816, Note_on_c, 1, 66, 0
2, 108816, Note_on_c, 1, 63, 75
2, 108862, Note_on_c, 1, 63, 0
2, 108864, Note_on_c, 1, 59, 75
2, 108896, Note_on_c, 1, 59, 0
2, 108960, Note_on_c, 1, 66, 75
2, 109008, Note_on_c, 1, 66, 0
2, 109008, Note_on_c, 1, 63, 75
2, 109054, Note_on_c, 1, 63, 0
2, 109056, Note_on_c, 1, 59, 75
2, 109088, Note_on_c, 1, 59, 0
2, 109152, Note_on_c, 1, 67, 75
2, 109200, Note_on_c, 1, 67, 0
2, 109200, Note_on_c, 1, 64, 75
2, 109246, Note_on_c, 1, 64, 0
2, 109248, Note_on_c, 1, 59, 75
2, 109280, Note_on_c, 1, 59, 0
2, 109344, Note_on_c, 1, 67, 75
2, 109392, Note_on_c, 1, 67, 0
2, 109392, Note_on_c, 1, 64, 75
2, 109438, Note_on_c, 1, 64, 0
2, 109440, Note_on_c, 1, 59, 75
2, 109472, Note_on_c, 1, 59, 0
2, 109536, Note_on_c, 1, 67, 75
2, 109584, Note_on_c, 1, 67, 0
2, 109584, Note_on_c, 1, 64, 75
2, 109630, Note_on_c, 1, 64, 0
2, 109632, Note_on_c, 1, 59, 92
2, 109726, Note_on_c, 1, 59, 0
2, 109728, Note_on_c, 1, 79, 45
2, 109888, Note_on_c, 1, 79, 0
2, 109920, Note_on_c, 1, 79, 56
2, 110080, Note_on_c, 1, 79, 0
2, 110112, Note_on_c, 1, 79, 67
2, 110302, Note_on_c, 1, 79, 0
2, 110304, Note_on_c, 1, 79, 78
2, 110464, Note_on_c, 1, 79, 0
2, 110496, Note_on_c, 1, 79, 90
2, 110656, Note_on_c, 1, 79, 0
2, 110688, Note_on_c, 1, 79, 102
2, 110736, Note_on_c, 1, 79, 0
2, 110736, Note_on_c, 1, 76, 105
2, 110784, Note_on_c, 1, 76, 0
2, 110784, Note_on_c, 1, 84, 108
2, 110944, Note_on_c, 1, 84, 0
2, 111168, Note_on_c, 1, 79, 108
2, 111200, Note_on_c, 1, 79, 0
2, 111264, Note_on_c, 1, 79, 108
2, 111312, Note_on_c, 1, 79, 0
2, 111312, Note_on_c, 1, 76, 108
2, 111360, Note_on_c, 1, 76, 0
2, 111360, Note_on_c, 1, 72, 108
2, 111520, Note_on_c, 1, 72, 0
2, 111744, Note_on_c, 1, 76, 108
2, 111776, Note_on_c, 1, 76, 0
2, 111840, Note_on_c, 1, 76, 108
2, 111888, Note_on_c, 1, 76, 0
2, 111888, Note_on_c, 1, 72, 108
2, 111934, Note_on_c, 1, 72, 0
2, 111936, Note_on_c, 1, 71, 45
2, 111968, Note_on_c, 1, 71, 0
2, 112032, Note_on_c, 1, 73, 45
2, 112080, Note_on_c, 1, 73, 0
2, 112080, Note_on_c, 1, 74, 45
2, 112126, Note_on_c, 1, 74, 0
2, 112128, Note_on_c, 1, 71, 45
2, 112160, Note_on_c, 1, 71, 0
2, 112224, Note_on_c, 1, 73, 45
2, 112272, Note_on_c, 1, 73, 0
2, 112272, Note_on_c, 1, 74, 45
2, 112318, Note_on_c, 1, 74, 0
2, 112320, Note_on_c, 1, 69, 45
2, 112352, Note_on_c, 1, 69, 0
2, 112416, Note_on_c, 1, 73, 45
2, 112464, Note_on_c, 1, 73, 0
2, 112464, Note_on_c, 1, 74, 45
2, 112510, Note_on_c, 1, 74, 0
2, 112512, Note_on_c, 1, 67, 45
2, 112672, Note_on_c, 1, 67, 0
2, 112800, Note_on_c, 1, 66, 45
2, 112832, Note_on_c, 1, 66, 0
2, 112896, Note_on_c, 1, 67, 45
2, 112928, Note_on_c, 1, 67, 0
2, 112992, Note_on_c, 1, 68, 45
2, 113024, Note_on_c, 1, 68, 0
2, 113088, Note_on_c, 1, 69, 45
2, 113248, Note_on_c, 1, 69, 0
2, 113376, Note_on_c, 1, 68, 45
2, 113408, Note_on_c, 1, 68, 0
2, 113472, Note_on_c, 1, 69, 45
2, 113504, Note_on_c, 1, 69, 0
2, 113568, Note_on_c, 1, 70, 45
2, 113600, Note_on_c, 1, 70, 0
2, 113664, Note_on_c, 1, 71, 45
2, 113824, Note_on_c, 1, 71, 0
2, 113952, Note_on_c, 1, 73, 45
2, 113984, Note_on_c, 1, 73, 0
2, 114048, Note_on_c, 1, 74, 45
2, 114080, Note_on_c, 1, 74, 0
2, 114144, Note_on_c, 1, 75, 45
2, 114176, Note_on_c, 1, 75, 0
2, 114240, Note_on_c, 1, 76, 45
2, 114334, Note_on_c, 1, 76, 0
2, 114336, Note_on_c, 1, 79, 45
2, 114430, Note_on_c, 1, 79, 0
2, 114432, Note_on_c, 1, 79, 45
2, 114526, Note_on_c, 1, 79, 0
2, 114528, Note_on_c, 1, 79, 45
2, 114622, Note_on_c, 1, 79, 0
2, 114624, Note_on_c, 1, 69, 45
2, 114718, Note_on_c, 1, 69, 0
2, 114720, Note_on_c, 1, 74, 45
2, 114814, Note_on_c, 1, 74, 0
2, 114816, Note_on_c, 1, 67, 45
2, 114848, Note_on_c, 1, 67, 0
2, 114912, Note_on_c, 1, 73, 45
2, 114944, Note_on_c, 1, 73, 0
2, 115008, Note_on_c, 1, 74, 45
2, 115486, Note_on_c, 1, 74, 0
2, 115488, Note_on_c, 1, 73, 45
2, 115520, Note_on_c, 1, 73, 0
2, 115584, Note_on_c, 1, 74, 45
2, 116062, Note_on_c, 1, 74, 0
2, 116064, Note_on_c, 1, 78, 45
2, 116096, Note_on_c, 1, 78, 0
2, 116160, Note_on_c, 1, 79, 45
2, 116638, Note_on_c, 1, 79, 0
2, 116640, Note_on_c, 1, 84, 67
2, 116672, Note_on_c, 1, 84, 0
2, 116736, Note_on_c, 1, 83, 72
2, 116768, Note_on_c, 1, 83, 0
2, 116832, Note_on_c, 1, 88, 77
2, 116864, Note_on_c, 1, 88, 0
2, 116928, Note_on_c, 1, 86, 82
2, 116960, Note_on_c, 1, 86, 0
2, 117024, Note_on_c, 1, 78, 87
2, 117056, Note_on_c, 1, 78, 0
2, 117120, Note_on_c, 1, 79, 45
2, 117280, Note_on_c, 1, 79, 0
2, 118464, Note_on_c, 1, 86, 45
2, 118496, Note_on_c, 1, 86, 0
2, 118560, Note_on_c, 1, 86, 49
2, 118608, Note_on_c, 1, 86, 0
2, 118608, Note_on_c, 1, 83, 51
2, 118656, Note_on_c, 1, 83, 0
2, 118656, Note_on_c, 1, 91, 53
2, 119040, Note_on_c, 1, 91, 0
2, 119040, Note_on_c, 1, 90, 72
2, 119200, Note_on_c, 1, 90, 0
2, 119232, Note_on_c, 1, 91, 82
2, 119264, Note_on_c, 1, 91, 0
2, 119264, Note_on_c, 1, 90, 83
2, 119296, Note_on_c, 1, 90, 0
2, 119296, Note_on_c, 1, 91, 84
2, 119328, Note_on_c, 1, 91, 0
2, 119328, Note_on_c, 1, 90, 86
2, 119360, Note_on_c, 1, 90, 0
2, 119360, Note_on_c, 1, 88, 88
2, 119392, Note_on_c, 1, 88, 0
2, 119392, Note_on_c, 1, 90, 90
2, 119424, Note_on_c, 1, 90, 0
2, 119424, Note_on_c, 1, 91, 92
2, 119456, Note_on_c, 1, 91, 0
2, 119520, Note_on_c, 1, 86, 92
2, 119568, Note_on_c, 1, 86, 0
2, 119568, Note_on_c, 1, 83, 92
2, 119614, Note_on_c, 1, 83, 0
2, 119616, Note_on_c, 1, 79, 92
2, 119648, Note_on_c, 1, 79, 0
2, 119712, Note_on_c, 1, 74, 92
2, 119760, Note_on_c, 1, 74, 0
2, 119760, Note_on_c, 1, 71, 92
2, 119806, Note_on_c, 1, 71, 0
2, 119808, Note_on_c, 1, 67, 127
2, 119840, Note_on_c, 1, 67, 0
2, 119904, Note_on_c, 1, 62, 127
2, 119952, Note_on_c, 1, 62, 0
2, 119952, Note_on_c, 1, 59, 127
2, 120000, Note_on_c, 1, 59, 0
2, 120000, Note_on_c, 1, 55, 127
2, 120160, Note_on_c, 1, 55, 0
2, 120384, Control_c, 1, 7, 0
2, 120384, Note_on_c, 1, 71, 60
2, 121104, Note_on_c, 1, 71, 0
2, 121104, End_track
3, 0, Start_track
3, 0, MIDI_port, 0
3, 0, Title_t, "Violino II."
3, 0, Program_c, 2, 0
3, 0, Control_c, 2, 7, 127
3, 0, Control_c, 2, 10, 64
3, 288, Note_on_c, 2, 59, 45
3, 336, Note_on_c, 2, 59, 0
3, 336, Note_on_c, 2, 62, 45
3, 384, Note_on_c, 2, 62, 0
3, 384, Note_on_c, 2, 67, 45
3, 416, Note_on_c, 2, 67, 0
3, 864, Note_on_c, 2, 62, 45
3, 912, Note_on_c, 2, 62, 0
3, 912, Note_on_c, 2, 67, 45
3, 960, Note_on_c, 2, 67, 0
3, 960, Note_on_c, 2, 71, 45
3, 992, Note_on_c, 2, 71, 0
3, 1536, Note_on_c, 2, 72, 45
3, 1584, Note_on_c, 2, 72, 0
3, 1728, Note_on_c, 2, 71, 45
3, 1776, Note_on_c, 2, 71, 0
3, 2112, Note_on_c, 2, 66, 45
3, 2160, Note_on_c, 2, 66, 0
3, 2592, Note_on_c, 2, 57, 45
3, 2640, Note_on_c, 2, 57, 0
3, 2640, Note_on_c, 2, 60, 45
3, 2688, Note_on_c, 2, 60, 0
3, 2688, Note_on_c, 2, 66, 45
3, 2720, Note_on_c, 2, 66, 0
3, 3168, Note_on_c, 2, 62, 45
3, 3216, Note_on_c, 2, 62, 0
3, 3216, Note_on_c, 2, 66, 45
3, 3264, Note_on_c, 2, 66, 0
3, 3264, Note_on_c, 2, 69, 45
3, 3296, Note_on_c, 2, 69, 0
3, 3456, Note_on_c, 2, 67, 45
3, 3504, Note_on_c, 2, 67, 0
3, 3744, Note_on_c, 2, 57, 45
3, 3792, Note_on_c, 2, 57, 0
3, 3792, Note_on_c, 2, 60, 45
3, 3840, Note_on_c, 2, 60, 0
3, 3840, Note_on_c, 2, 64, 45
3, 3872, Note_on_c, 2, 64, 0
3, 4032, Note_on_c, 2, 60, 45
3, 4080, Note_on_c, 2, 60, 0
3, 4224, Note_on_c, 2, 59, 45
3, 4272, Note_on_c, 2, 59, 0
3, 4896, Note_on_c, 2, 59, 45
3, 4944, Note_on_c, 2, 59, 0
3, 4944, Note_on_c, 2, 62, 45
3, 4992, Note_on_c, 2, 62, 0
3, 4992, Note_on_c, 2, 67, 45
3, 5024, Note_on_c, 2, 67, 0
3, 5472, Note_on_c, 2, 62, 45
3, 5520, Note_on_c, 2, 62, 0
3, 5520, Note_on_c, 2, 67, 45
3, 5568, Note_on_c, 2, 67, 0
3, 5568, Note_on_c, 2, 71, 45
3, 5600, Note_on_c, 2, 71, 0
3, 6144, Note_on_c, 2, 72, 45
3, 6192, Note_on_c, 2, 72, 0
3, 6336, Note_on_c, 2, 71, 45
3, 6384, Note_on_c, 2, 71, 0
3, 6720, Note_on_c, 2, 66, 45
3, 6768, Note_on_c, 2, 66, 0
3, 7200, Note_on_c, 2, 57, 45
3, 7248, Note_on_c, 2, 57, 0
3, 7248, Note_on_c, 2, 60, 45
3, 7296, Note_on_c, 2, 60, 0
3, 7296, Note_on_c, 2, 66, 45
3, 7328, Note_on_c, 2, 66, 0
3, 7776, Note_on_c, 2, 62, 45
3, 7824, Note_on_c, 2, 62, 0
3, 7824, Note_on_c, 2, 66, 45
3, 7872, Note_on_c, 2, 66, 0
3, 7872, Note_on_c, 2, 69, 45
3, 7904, Note_on_c, 2, 69, 0
3, 8064, Note_on_c, 2, 67, 45
3, 8112, Note_on_c, 2, 67, 0
3, 8352, Note_on_c, 2, 57, 45
3, 8400, Note_on_c, 2, 57, 0
3, 8400, Note_on_c, 2, 60, 45
3, 8448, Note_on_c, 2, 60, 0
3, 8448, Note_on_c, 2, 64, 45
3, 8480, Note_on_c, 2, 64, 0
3, 8640, Note_on_c, 2, 60, 45
3, 8688, Note_on_c, 2, 60, 0
3, 8832, Note_on_c, 2, 59, 45
3, 8880, Note_on_c, 2, 59, 0
3, 9408, Note_on_c, 2, 66, 127
3, 9664, Note_on_c, 2, 66, 0
3, 9696, Note_on_c, 2, 66, 45
3, 9728, Note_on_c, 2, 66, 0
3, 9792, Note_on_c, 2, 66, 45
3, 9824, Note_on_c, 2, 66, 0
3, 9888, Note_on_c, 2, 66, 45
3, 9920, Note_on_c, 2, 66, 0
3, 9984, Note_on_c, 2, 66, 45
3, 10016, Note_on_c, 2, 66, 0
3, 10080, Note_on_c, 2, 66, 45
3, 10112, Note_on_c, 2, 66, 0
3, 10176, Note_on_c, 2, 66, 45
3, 10208, Note_on_c, 2, 66, 0
3, 10272, Note_on_c, 2, 66, 45
3, 10304, Note_on_c, 2, 66, 0
3, 10368, Note_on_c, 2, 66, 45
3, 10400, Note_on_c, 2, 66, 0
3, 10464, Note_on_c, 2, 66, 45
3, 10496, Note_on_c, 2, 66, 0
3, 10560, Note_on_c, 2, 66, 45
3, 10720, Note_on_c, 2, 66, 0
3, 10752, Note_on_c, 2, 66, 45
3, 10912, Note_on_c, 2, 66, 0
3, 10944, Note_on_c, 2, 70, 45
3, 11104, Note_on_c, 2, 70, 0
3, 11136, Note_on_c, 2, 71, 45
3, 11296, Note_on_c, 2, 71, 0
3, 11712, Note_on_c, 2, 65, 92
3, 12048, Note_on_c, 2, 65, 0
3, 12096, Note_on_c, 2, 67, 92
3, 12128, Note_on_c, 2, 67, 0
3, 12192, Note_on_c, 2, 69, 92
3, 12224, Note_on_c, 2, 69, 0
3, 12288, Note_on_c, 2, 71, 92
3, 12320, Note_on_c, 2, 71, 0
3, 12384, Note_on_c, 2, 72, 92
3, 12416, Note_on_c, 2, 72, 0
3, 12480, Note_on_c, 2, 74, 92
3, 12512, Note_on_c, 2, 74, 0
3, 12576, Note_on_c, 2, 76, 92
3, 12608, Note_on_c, 2, 76, 0
3, 12672, Note_on_c, 2, 77, 92
3, 12704, Note_on_c, 2, 77, 0
3, 12768, Note_on_c, 2, 65, 92
3, 12800, Note_on_c, 2, 65, 0
3, 12864, Note_on_c, 2, 64, 92
3, 12958, Note_on_c, 2, 64, 0
3, 12960, Note_on_c, 2, 66, 88
3, 13054, Note_on_c, 2, 66, 0
3, 13056, Note_on_c, 2, 64, 84
3, 13150, Note_on_c, 2, 64, 0
3, 13152, Note_on_c, 2, 66, 80
3, 13246, Note_on_c, 2, 66, 0
3, 13248, Note_on_c, 2, 64, 75
3, 13342, Note_on_c, 2, 64, 0
3, 13344, Note_on_c, 2, 72, 70
3, 13438, Note_on_c, 2, 72, 0
3, 13440, Note_on_c, 2, 71, 65
3, 13632, Note_on_c, 2, 71, 0
3, 13632, Note_on_c, 2, 69, 55
3, 13726, Note_on_c, 2, 69, 0
3, 13824, Note_on_c, 2, 74, 45
3, 13856, Note_on_c, 2, 74, 0
3, 13920, Note_on_c, 2, 74, 45
3, 13968, Note_on_c, 2, 74, 0
3, 13968, Note_on_c, 2, 71, 45
3, 14016, Note_on_c, 2, 71, 0
3, 14016, Note_on_c, 2, 79, 45
3, 14176, Note_on_c, 2, 79, 0
3, 14400, Note_on_c, 2, 74, 45
3, 14432, Note_on_c, 2, 74, 0
3, 14496, Note_on_c, 2, 74, 45
3, 14544, Note_on_c, 2, 74, 0
3, 14544, Note_on_c, 2, 71, 45
3, 14592, Note_on_c, 2, 71, 0
3, 14592, Note_on_c, 2, 67, 45
3, 14752, Note_on_c, 2, 67, 0
3, 15360, Note_on_c, 2, 72, 45
3, 15408, Note_on_c, 2, 72, 0
3, 15552, Note_on_c, 2, 71, 45
3, 15600, Note_on_c, 2, 71, 0
3, 15744, Note_on_c, 2, 69, 45
3, 15792, Note_on_c, 2, 69, 0
3, 15936, Note_on_c, 2, 66, 45
3, 15984, Note_on_c, 2, 66, 0
3, 16416, Note_on_c, 2, 66, 45
3, 16464, Note_on_c, 2, 66, 0
3, 16464, Note_on_c, 2, 69, 45
3, 16512, Note_on_c, 2, 69, 0
3, 16512, Note_on_c, 2, 72, 45
3, 16544, Note_on_c, 2, 72, 0
3, 16992, Note_on_c, 2, 69, 45
3, 17040, Note_on_c, 2, 69, 0
3, 17040, Note_on_c, 2, 66, 45
3, 17088, Note_on_c, 2, 66, 0
3, 17088, Note_on_c, 2, 63, 45
3, 17120, Note_on_c, 2, 63, 0
3, 17568, Note_on_c, 2, 66, 60
3, 17616, Note_on_c, 2, 66, 0
3, 17616, Note_on_c, 2, 63, 60
3, 17662, Note_on_c, 2, 63, 0
3, 17664, Note_on_c, 2, 59, 60
3, 17696, Note_on_c, 2, 59, 0
3, 18720, Note_on_c, 2, 67, 45
3, 18880, Note_on_c, 2, 67, 0
3, 18912, Note_on_c, 2, 67, 56
3, 19072, Note_on_c, 2, 67, 0
3, 19104, Note_on_c, 2, 67, 67
3, 19294, Note_on_c, 2, 67, 0
3, 19296, Note_on_c, 2, 67, 78
3, 19456, Note_on_c, 2, 67, 0
3, 19488, Note_on_c, 2, 67, 90
3, 19648, Note_on_c, 2, 67, 0
3, 19680, Note_on_c, 2, 67, 102
3, 19728, Note_on_c, 2, 67, 0
3, 19728, Note_on_c, 2, 64, 105
3, 19776, Note_on_c, 2, 64, 0
3, 19776, Note_on_c, 2, 72, 108
3, 19936, Note_on_c, 2, 72, 0
3, 20160, Note_on_c, 2, 67, 108
3, 20192, Note_on_c, 2, 67, 0
3, 20256, Note_on_c, 2, 67, 108
3, 20304, Note_on_c, 2, 67, 0
3, 20304, Note_on_c, 2, 64, 108
3, 20352, Note_on_c, 2, 64, 0
3, 20352, Note_on_c, 2, 60, 108
3, 20512, Note_on_c, 2, 60, 0
3, 20736, Note_on_c, 2, 64, 108
3, 20768, Note_on_c, 2, 64, 0
3, 20832, Note_on_c, 2, 64, 108
3, 20880, Note_on_c, 2, 64, 0
3, 20880, Note_on_c, 2, 60, 108
3, 20926, Note_on_c, 2, 60, 0
3, 20928, Note_on_c, 2, 59, 45
3, 21022, Note_on_c, 2, 59, 0
3, 21024, Note_on_c, 2, 67, 45
3, 21118, Note_on_c, 2, 67, 0
3, 21120, Note_on_c, 2, 59, 45
3, 21214, Note_on_c, 2, 59, 0
3, 21216, Note_on_c, 2, 67, 45
3, 21310, Note_on_c, 2, 67, 0
3, 21312, Note_on_c, 2, 60, 45
3, 21406, Note_on_c, 2, 60, 0
3, 21408, Note_on_c, 2, 66, 45
3, 21502, Note_on_c, 2, 66, 0
3, 21504, Note_on_c, 2, 59, 45
3, 21536, Note_on_c, 2, 59, 0
3, 21600, Note_on_c, 2, 61, 45
3, 21632, Note_on_c, 2, 61, 0
3, 21696, Note_on_c, 2, 62, 45
3, 22174, Note_on_c, 2, 62, 0
3, 22176, Note_on_c, 2, 61, 45
3, 22208, Note_on_c, 2, 61, 0
3, 22272, Note_on_c, 2, 62, 45
3, 22750, Note_on_c, 2, 62, 0
3, 22752, Note_on_c, 2, 66, 45
3, 22784, Note_on_c, 2, 66, 0
3, 22848, Note_on_c, 2, 67, 45
3, 23326, Note_on_c, 2, 67, 0
3, 23328, Note_on_c, 2, 69, 45
3, 23422, Note_on_c, 2, 69, 0
3, 23424, Note_on_c, 2, 71, 45
3, 23518, Note_on_c, 2, 71, 0
3, 23520, Note_on_c, 2, 72, 45
3, 23614, Note_on_c, 2, 72, 0
3, 23616, Note_on_c, 2, 67, 45
3, 23710, Note_on_c, 2, 67, 0
3, 23712, Note_on_c, 2, 66, 45
3, 23806, Note_on_c, 2, 66, 0
3, 24096, Note_on_c, 2, 70, 45
3, 24128, Note_on_c, 2, 70, 0
3, 24192, Note_on_c, 2, 71, 45
3, 24224, Note_on_c, 2, 71, 0
3, 24288, Note_on_c, 2, 71, 45
3, 24320, Note_on_c, 2, 71, 0
3, 24384, Note_on_c, 2, 72, 45
3, 24544, Note_on_c, 2, 72, 0
3, 24672, Note_on_c, 2, 71, 45
3, 24766, Note_on_c, 2, 71, 0
3, 24768, Note_on_c, 2, 72, 45
3, 24862, Note_on_c, 2, 72, 0
3, 24864, Note_on_c, 2, 73, 45
3, 24958, Note_on_c, 2, 73, 0
3, 25248, Note_on_c, 2, 75, 45
3, 25342, Note_on_c, 2, 75, 0
3, 25344, Note_on_c, 2, 76, 50
3, 25438, Note_on_c, 2, 76, 0
3, 25440, Note_on_c, 2, 69, 55
3, 25534, Note_on_c, 2, 69, 0
3, 25536, Note_on_c, 2, 71, 60
3, 25630, Note_on_c, 2, 71, 0
3, 25632, Note_on_c, 2, 69, 65
3, 25726, Note_on_c, 2, 69, 0
3, 25728, Note_on_c, 2, 67, 70
3, 25822, Note_on_c, 2, 67, 0
3, 25824, Note_on_c, 2, 69, 75
3, 25918, Note_on_c, 2, 69, 0
3, 25920, Note_on_c, 2, 71, 80
3, 26014, Note_on_c, 2, 71, 0
3, 26016, Note_on_c, 2, 72, 86
3, 26110, Note_on_c, 2, 72, 0
3, 26112, Note_on_c, 2, 71, 45
3, 26272, Note_on_c, 2, 71, 0
3, 26880, Note_on_c, 2, 69, 45
3, 26912, Note_on_c, 2, 69, 0
3, 26976, Note_on_c, 2, 69, 45
3, 27024, Note_on_c, 2, 69, 0
3, 27024, Note_on_c, 2, 62, 45
3, 27072, Note_on_c, 2, 62, 0
3, 27072, Note_on_c, 2, 72, 45
3, 27456, Note_on_c, 2, 72, 0
3, 27456, Note_on_c, 2, 71, 52
3, 27616, Note_on_c, 2, 71, 0
3, 28224, Note_on_c, 2, 69, 84
3, 28256, Note_on_c, 2, 69, 0
3, 28320, Note_on_c, 2, 69, 88
3, 28368, Note_on_c, 2, 69, 0
3, 28368, Note_on_c, 2, 62, 90
3, 28414, Note_on_c, 2, 62, 0
3, 28416, Note_on_c, 2, 67, 92
3, 28576, Note_on_c, 2, 67, 0
3, 29568, Note_on_c, 2, 66, 127
3, 29824, Note_on_c, 2, 66, 0
3, 29856, Note_on_c, 2, 66, 45
3, 29888, Note_on_c, 2, 66, 0
3, 29952, Note_on_c, 2, 66, 45
3, 29984, Note_on_c, 2, 66, 0
3, 30048, Note_on_c, 2, 66, 45
3, 30080, Note_on_c, 2, 66, 0
3, 30144, Note_on_c, 2, 66, 45
3, 30176, Note_on_c, 2, 66, 0
3, 30240, Note_on_c, 2, 66, 45
3, 30272, Note_on_c, 2, 66, 0
3, 30336, Note_on_c, 2, 66, 45
3, 30368, Note_on_c, 2, 66, 0
3, 30432, Note_on_c, 2, 66, 45
3, 30464, Note_on_c, 2, 66, 0
3, 30528, Note_on_c, 2, 66, 45
3, 30560, Note_on_c, 2, 66, 0
3, 30624, Note_on_c, 2, 66, 45
3, 30656, Note_on_c, 2, 66, 0
3, 30720, Note_on_c, 2, 66, 45
3, 30880, Note_on_c, 2, 66, 0
3, 30912, Note_on_c, 2, 66, 45
3, 31072, Note_on_c, 2, 66, 0
3, 31104, Note_on_c, 2, 70, 45
3, 31264, Note_on_c, 2, 70, 0
3, 31296, Note_on_c, 2, 71, 45
3, 31456, Note_on_c, 2, 71, 0
3, 31872, Note_on_c, 2, 65, 92
3, 32208, Note_on_c, 2, 65, 0
3, 32256, Note_on_c, 2, 67, 92
3, 32288, Note_on_c, 2, 67, 0
3, 32352, Note_on_c, 2, 69, 92
3, 32384, Note_on_c, 2, 69, 0
3, 32448, Note_on_c, 2, 71, 92
3, 32480, Note_on_c, 2, 71, 0
3, 32544, Note_on_c, 2, 72, 92
3, 32576, Note_on_c, 2, 72, 0
3, 32640, Note_on_c, 2, 74, 92
3, 32672, Note_on_c, 2, 74, 0
3, 32736, Note_on_c, 2, 76, 92
3, 32768, Note_on_c, 2, 76, 0
3, 32832, Note_on_c, 2, 77, 92
3, 32864, Note_on_c, 2, 77, 0
3, 32928, Note_on_c, 2, 65, 92
3, 32960, Note_on_c, 2, 65, 0
3, 33024, Note_on_c, 2, 64, 92
3, 33118, Note_on_c, 2, 64, 0
3, 33120, Note_on_c, 2, 66, 88
3, 33214, Note_on_c, 2, 66, 0
3, 33216, Note_on_c, 2, 64, 84
3, 33310, Note_on_c, 2, 64, 0
3, 33312, Note_on_c, 2, 66, 80
3, 33406, Note_on_c, 2, 66, 0
3, 33408, Note_on_c, 2, 64, 75
3, 33502, Note_on_c, 2, 64, 0
3, 33504, Note_on_c, 2, 72, 70
3, 33598, Note_on_c, 2, 72, 0
3, 33600, Note_on_c, 2, 71, 65
3, 33792, Note_on_c, 2, 71, 0
3, 33792, Note_on_c, 2, 69, 55
3, 33886, Note_on_c, 2, 69, 0
3, 33984, Note_on_c, 2, 74, 45
3, 34016, Note_on_c, 2, 74, 0
3, 34080, Note_on_c, 2, 74, 45
3, 34128, Note_on_c, 2, 74, 0
3, 34128, Note_on_c, 2, 71, 45
3, 34176, Note_on_c, 2, 71, 0
3, 34176, Note_on_c, 2, 79, 45
3, 34336, Note_on_c, 2, 79, 0
3, 34560, Note_on_c, 2, 74, 45
3, 34592, Note_on_c, 2, 74, 0
3, 34656, Note_on_c, 2, 74, 45
3, 34704, Note_on_c, 2, 74, 0
3, 34704, Note_on_c, 2, 71, 45
3, 34752, Note_on_c, 2, 71, 0
3, 34752, Note_on_c, 2, 67, 45
3, 34912, Note_on_c, 2, 67, 0
3, 35520, Note_on_c, 2, 72, 45
3, 35568, Note_on_c, 2, 72, 0
3, 35712, Note_on_c, 2, 71, 45
3, 35760, Note_on_c, 2, 71, 0
3, 35904, Note_on_c, 2, 69, 45
3, 35952, Note_on_c, 2, 69, 0
3, 36096, Note_on_c, 2, 66, 45
3, 36144, Note_on_c, 2, 66, 0
3, 36576, Note_on_c, 2, 66, 45
3, 36624, Note_on_c, 2, 66, 0
3, 36624, Note_on_c, 2, 69, 45
3, 36672, Note_on_c, 2, 69, 0
3, 36672, Note_on_c, 2, 72, 45
3, 36704, Note_on_c, 2, 72, 0
3, 37152, Note_on_c, 2, 69, 45
3, 37200, Note_on_c, 2, 69, 0
3, 37200, Note_on_c, 2, 66, 45
3, 37248, Note_on_c, 2, 66, 0
3, 37248, Note_on_c, 2, 63, 45
3, 37280, Note_on_c, 2, 63, 0
3, 37728, Note_on_c, 2, 66, 60
3, 37776, Note_on_c, 2, 66, 0
3, 37776, Note_on_c, 2, 63, 60
3, 37822, Note_on_c, 2, 63, 0
3, 37824, Note_on_c, 2, 59, 60
3, 37856, Note_on_c, 2, 59, 0
3, 38880, Note_on_c, 2, 67, 45
3, 39040, Note_on_c, 2, 67, 0
3, 39072, Note_on_c, 2, 67, 56
3, 39232, Note_on_c, 2, 67, 0
3, 39264, Note_on_c, 2, 67, 67
3, 39454, Note_on_c, 2, 67, 0
3, 39456, Note_on_c, 2, 67, 78
3, 39616, Note_on_c, 2, 67, 0
3, 39648, Note_on_c, 2, 67, 90
3, 39808, Note_on_c, 2, 67, 0
3, 39840, Note_on_c, 2, 67, 102
3, 39888, Note_on_c, 2, 67, 0
3, 39888, Note_on_c, 2, 64, 105
3, 39936, Note_on_c, 2, 64, 0
3, 39936, Note_on_c, 2, 72, 108
3, 40096, Note_on_c, 2, 72, 0
3, 40320, Note_on_c, 2, 67, 108
3, 40352, Note_on_c, 2, 67, 0
3, 40416, Note_on_c, 2, 67, 108
3, 40464, Note_on_c, 2, 67, 0
3, 40464, Note_on_c, 2, 64, 108
3, 40512, Note_on_c, 2, 64, 0
3, 40512, Note_on_c, 2, 60, 108
3, 40672, Note_on_c, 2, 60, 0
3, 40896, Note_on_c, 2, 64, 108
3, 40928, Note_on_c, 2, 64, 0
3, 40992, Note_on_c, 2, 64, 108
3, 41040, Note_on_c, 2, 64, 0
3, 41040, Note_on_c, 2, 60, 108
3, 41086, Note_on_c, 2, 60, 0
3, 41088, Note_on_c, 2, 59, 45
3, 41182, Note_on_c, 2, 59, 0
3, 41184, Note_on_c, 2, 67, 45
3, 41278, Note_on_c, 2, 67, 0
3, 41280, Note_on_c, 2, 59, 45
3, 41374, Note_on_c, 2, 59, 0
3, 41376, Note_on_c, 2, 67, 45
3, 41470, Note_on_c, 2, 67, 0
3, 41472, Note_on_c, 2, 60, 45
3, 41566, Note_on_c, 2, 60, 0
3, 41568, Note_on_c, 2, 66, 45
3, 41662, Note_on_c, 2, 66, 0
3, 41664, Note_on_c, 2, 59, 45
3, 41696, Note_on_c, 2, 59, 0
3, 41760, Note_on_c, 2, 61, 45
3, 41792, Note_on_c, 2, 61, 0
3, 41856, Note_on_c, 2, 62, 45
3, 42334, Note_on_c, 2, 62, 0
3, 42336, Note_on_c, 2, 61, 45
3, 42368, Note_on_c, 2, 61, 0
3, 42432, Note_on_c, 2, 62, 45
3, 42910, Note_on_c, 2, 62, 0
3, 42912, Note_on_c, 2, 66, 45
3, 42944, Note_on_c, 2, 66, 0
3, 43008, Note_on_c, 2, 67, 45
3, 43486, Note_on_c, 2, 67, 0
3, 43488, Note_on_c, 2, 69, 45
3, 43582, Note_on_c, 2, 69, 0
3, 43584, Note_on_c, 2, 71, 45
3, 43678, Note_on_c, 2, 71, 0
3, 43680, Note_on_c, 2, 72, 45
3, 43774, Note_on_c, 2, 72, 0
3, 43776, Note_on_c, 2, 67, 45
3, 43870, Note_on_c, 2, 67, 0
3, 43872, Note_on_c, 2, 66, 45
3, 43966, Note_on_c, 2, 66, 0
3, 44256, Note_on_c, 2, 70, 45
3, 44288, Note_on_c, 2, 70, 0
3, 44352, Note_on_c, 2, 71, 45
3, 44384, Note_on_c, 2, 71, 0
3, 44448, Note_on_c, 2, 71, 45
3, 44480, Note_on_c, 2, 71, 0
3, 44544, Note_on_c, 2, 72, 45
3, 44704, Note_on_c, 2, 72, 0
3, 44832, Note_on_c, 2, 71, 45
3, 44926, Note_on_c, 2, 71, 0
3, 44928, Note_on_c, 2, 72, 45
3, 45022, Note_on_c, 2, 72, 0
3, 45024, Note_on_c, 2, 73, 45
3, 45118, Note_on_c, 2, 73, 0
3, 45408, Note_on_c, 2, 75, 45
3, 45502, Note_on_c, 2, 75, 0
3, 45504, Note_on_c, 2, 76, 50
3, 45598, Note_on_c, 2, 76, 0
3, 45600, Note_on_c, 2, 69, 55
3, 45694, Note_on_c, 2, 69, 0
3, 45696, Note_on_c, 2, 71, 60
3, 45790, Note_on_c, 2, 71, 0
3, 45792, Note_on_c, 2, 69, 65
3, 45886, Note_on_c, 2, 69, 0
3, 45888, Note_on_c, 2, 67, 70
3, 45982, Note_on_c, 2, 67, 0
3, 45984, Note_on_c, 2, 69, 75
3, 46078, Note_on_c, 2, 69, 0
3, 46080, Note_on_c, 2, 71, 80
3, 46174, Note_on_c, 2, 71, 0
3, 46176, Note_on_c, 2, 72, 86
3, 46270, Note_on_c, 2, 72, 0
3, 46272, Note_on_c, 2, 71, 45
3, 46432, Note_on_c, 2, 71, 0
3, 47040, Note_on_c, 2, 69, 45
3, 47072, Note_on_c, 2, 69, 0
3, 47136, Note_on_c, 2, 69, 45
3, 47184, Note_on_c, 2, 69, 0
3, 47184, Note_on_c, 2, 62, 45
3, 47232, Note_on_c, 2, 62, 0
3, 47232, Note_on_c, 2, 72, 45
3, 47616, Note_on_c, 2, 72, 0
3, 47616, Note_on_c, 2, 71, 52
3, 47776, Note_on_c, 2, 71, 0
3, 48384, Note_on_c, 2, 69, 84
3, 48416, Note_on_c, 2, 69, 0
3, 48480, Note_on_c, 2, 69, 88
3, 48528, Note_on_c, 2, 69, 0
3, 48528, Note_on_c, 2, 62, 90
3, 48574, Note_on_c, 2, 62, 0
3, 48576, Note_on_c, 2, 67, 92
3, 48736, Note_on_c, 2, 67, 0
3, 49728, Note_on_c, 2, 55, 127
3, 50256, Note_on_c, 2, 55, 0
3, 50304, Note_on_c, 2, 55, 45
3, 50352, Note_on_c, 2, 55, 0
3, 50496, Note_on_c, 2, 55, 45
3, 50544, Note_on_c, 2, 55, 0
3, 50688, Note_on_c, 2, 55, 45
3, 50736, Note_on_c, 2, 55, 0
3, 50880, Note_on_c, 2, 55, 45
3, 51040, Note_on_c, 2, 55, 0
3, 51072, Note_on_c, 2, 55, 45
3, 51232, Note_on_c, 2, 55, 0
3, 51264, Note_on_c, 2, 55, 45
3, 51424, Note_on_c, 2, 55, 0
3, 51456, Note_on_c, 2, 57, 45
3, 51616, Note_on_c, 2, 57, 0
3, 52032, Note_on_c, 2, 60, 127
3, 52560, Note_on_c, 2, 60, 0
3, 52608, Note_on_c, 2, 59, 45
3, 52768, Note_on_c, 2, 59, 0
3, 52800, Note_on_c, 2, 59, 45
3, 52960, Note_on_c, 2, 59, 0
3, 52992, Note_on_c, 2, 59, 45
3, 53152, Note_on_c, 2, 59, 0
3, 53184, Note_on_c, 2, 60, 45
3, 53344, Note_on_c, 2, 60, 0
3, 53376, Note_on_c, 2, 60, 45
3, 53536, Note_on_c, 2, 60, 0
3, 53568, Note_on_c, 2, 60, 45
3, 53728, Note_on_c, 2, 60, 0
3, 53760, Note_on_c, 2, 59, 45
3, 53920, Note_on_c, 2, 59, 0
3, 54336, Note_on_c, 2, 55, 127
3, 54864, Note_on_c, 2, 55, 0
3, 54912, Note_on_c, 2, 55, 45
3, 54960, Note_on_c, 2, 55, 0
3, 55104, Note_on_c, 2, 55, 45
3, 55152, Note_on_c, 2, 55, 0
3, 55296, Note_on_c, 2, 55, 45
3, 55344, Note_on_c, 2, 55, 0
3, 55488, Note_on_c, 2, 55, 45
3, 55648, Note_on_c, 2, 55, 0
3, 55680, Note_on_c, 2, 55, 45
3, 55840, Note_on_c, 2, 55, 0
3, 55872, Note_on_c, 2, 55, 45
3, 56032, Note_on_c, 2, 55, 0
3, 56064, Note_on_c, 2, 57, 45
3, 56224, Note_on_c, 2, 57, 0
3, 56640, Note_on_c, 2, 60, 127
3, 57168, Note_on_c, 2, 60, 0
3, 57216, Note_on_c, 2, 59, 45
3, 57376, Note_on_c, 2, 59, 0
3, 57408, Note_on_c, 2, 59, 45
3, 57568, Note_on_c, 2, 59, 0
3, 57600, Note_on_c, 2, 59, 45
3, 57760, Note_on_c, 2, 59, 0
3, 57792, Note_on_c, 2, 60, 45
3, 57952, Note_on_c, 2, 60, 0
3, 57984, Note_on_c, 2, 60, 45
3, 58144, Note_on_c, 2, 60, 0
3, 58176, Note_on_c, 2, 60, 45
3, 58336, Note_on_c, 2, 60, 0
3, 58368, Note_on_c, 2, 59, 45
3, 58528, Note_on_c, 2, 59, 0
3, 59520, Note_on_c, 2, 77, 45
3, 59712, Note_on_c, 2, 77, 0
3, 59712, Note_on_c, 2, 74, 45
3, 59904, Note_on_c, 2, 74, 0
3, 59904, Note_on_c, 2, 79, 45
3, 60190, Note_on_c, 2, 79, 0
3, 60288, Note_on_c, 2, 67, 45
3, 60382, Note_on_c, 2, 67, 0
3, 60480, Note_on_c, 2, 72, 45
3, 60574, Note_on_c, 2, 72, 0
3, 60672, Note_on_c, 2, 71, 45
3, 60832, Note_on_c, 2, 71, 0
3, 61824, Note_on_c, 2, 56, 127
3, 62016, Note_on_c, 2, 56, 0
3, 62016, Note_on_c, 2, 65, 87
3, 62208, Note_on_c, 2, 65, 0
3, 62208, Note_on_c, 2, 55, 66
3, 62208, Note_on_c, 2, 62, 66
3, 62400, Note_on_c, 2, 62, 0
3, 62400, Note_on_c, 2, 67, 45
3, 62494, Note_on_c, 2, 55, 0
3, 62494, Note_on_c, 2, 67, 0
3, 62592, Note_on_c, 2, 55, 45
3, 62592, Note_on_c, 2, 67, 45
3, 62686, Note_on_c, 2, 55, 0
3, 62686, Note_on_c, 2, 67, 0
3, 62784, Note_on_c, 2, 55, 45
3, 62784, Note_on_c, 2, 64, 45
3, 62878, Note_on_c, 2, 55, 0
3, 62878, Note_on_c, 2, 64, 0
3, 62976, Note_on_c, 2, 55, 45
3, 62976, Note_on_c, 2, 62, 45
3, 63024, Note_on_c, 2, 55, 0
3, 63024, Note_on_c, 2, 62, 0
3, 63360, Note_on_c, 2, 55, 45
3, 63360, Note_on_c, 2, 64, 45
3, 63552, Note_on_c, 2, 64, 0
3, 63552, Note_on_c, 2, 62, 45
3, 63600, Note_on_c, 2, 55, 0
3, 63600, Note_on_c, 2, 62, 0
3, 63936, Note_on_c, 2, 55, 45
3, 63936, Note_on_c, 2, 64, 45
3, 64128, Note_on_c, 2, 64, 0
3, 64128, Note_on_c, 2, 62, 45
3, 64176, Note_on_c, 2, 55, 0
3, 64176, Note_on_c, 2, 62, 0
3, 65280, Note_on_c, 2, 64, 30
3, 65322, Note_on_c, 2, 64, 0
3, 65344, Note_on_c, 2, 72, 30
3, 65408, Note_on_c, 2, 72, 0
3, 65408, Note_on_c, 2, 71, 30
3, 65470, Note_on_c, 2, 71, 0
3, 65472, Note_on_c, 2, 72, 30
3, 65514, Note_on_c, 2, 72, 0
3, 65536, Note_on_c, 2, 67, 30
3, 65578, Note_on_c, 2, 67, 0
3, 65600, Note_on_c, 2, 65, 30
3, 65642, Note_on_c, 2, 65, 0
3, 65664, Note_on_c, 2, 64, 30
3, 65706, Note_on_c, 2, 64, 0
3, 65728, Note_on_c, 2, 62, 30
3, 65770, Note_on_c, 2, 62, 0
3, 65792, Note_on_c, 2, 60, 30
3, 65834, Note_on_c, 2, 60, 0
3, 65856, Note_on_c, 2, 59, 45
3, 66016, Note_on_c, 2, 59, 0
3, 66432, Note_on_c, 2, 58, 30
3, 66494, Note_on_c, 2, 58, 0
3, 66496, Note_on_c, 2, 70, 30
3, 66560, Note_on_c, 2, 70, 0
3, 66560, Note_on_c, 2, 69, 30
3, 66622, Note_on_c, 2, 69, 0
3, 66624, Note_on_c, 2, 70, 30
3, 66666, Note_on_c, 2, 70, 0
3, 66688, Note_on_c, 2, 67, 31
3, 66730, Note_on_c, 2, 67, 0
3, 66752, Note_on_c, 2, 64, 32
3, 66794, Note_on_c, 2, 64, 0
3, 66880, Note_on_c, 2, 62, 34
3, 66922, Note_on_c, 2, 62, 0
3, 66944, Note_on_c, 2, 58, 35
3, 66986, Note_on_c, 2, 58, 0
3, 67008, Note_on_c, 2, 57, 36
3, 67168, Note_on_c, 2, 57, 0
3, 67648, Note_on_c, 2, 74, 45
3, 67712, Note_on_c, 2, 74, 0
3, 67712, Note_on_c, 2, 73, 45
3, 67774, Note_on_c, 2, 73, 0
3, 67776, Note_on_c, 2, 74, 45
3, 67818, Note_on_c, 2, 74, 0
3, 67840, Note_on_c, 2, 72, 45
3, 67882, Note_on_c, 2, 72, 0
3, 67904, Note_on_c, 2, 71, 45
3, 67946, Note_on_c, 2, 71, 0
3, 67968, Note_on_c, 2, 69, 45
3, 68010, Note_on_c, 2, 69, 0
3, 68032, Note_on_c, 2, 67, 45
3, 68074, Note_on_c, 2, 67, 0
3, 68096, Note_on_c, 2, 65, 45
3, 68138, Note_on_c, 2, 65, 0
3, 68160, Note_on_c, 2, 64, 45
3, 68320, Note_on_c, 2, 64, 0
3, 68736, Note_on_c, 2, 55, 45
3, 68798, Note_on_c, 2, 55, 0
3, 68800, Note_on_c, 2, 65, 45
3, 68864, Note_on_c, 2, 65, 0
3, 68864, Note_on_c, 2, 64, 45
3, 68926, Note_on_c, 2, 64, 0
3, 68928, Note_on_c, 2, 65, 45
3, 68970, Note_on_c, 2, 65, 0
3, 68992, Note_on_c, 2, 62, 45
3, 69034, Note_on_c, 2, 62, 0
3, 69056, Note_on_c, 2, 59, 45
3, 69098, Note_on_c, 2, 59, 0
3, 69120, Note_on_c, 2, 55, 45
3, 69162, Note_on_c, 2, 55, 0
3, 69184, Note_on_c, 2, 57, 45
3, 69226, Note_on_c, 2, 57, 0
3, 69248, Note_on_c, 2, 59, 45
3, 69290, Note_on_c, 2, 59, 0
3, 69312, Note_on_c, 2, 60, 45
3, 69472, Note_on_c, 2, 60, 0
3, 70464, Note_on_c, 2, 79, 30
3, 70624, Note_on_c, 2, 79, 0
3, 70656, Note_on_c, 2, 79, 30
3, 70816, Note_on_c, 2, 79, 0
3, 70848, Note_on_c, 2, 79, 30
3, 70880, Note_on_c, 2, 79, 0
3, 70880, Note_on_c, 2, 81, 30
3, 70912, Note_on_c, 2, 81, 0
3, 70912, Note_on_c, 2, 79, 30
3, 70944, Note_on_c, 2, 79, 0
3, 70944, Note_on_c, 2, 78, 30
3, 70992, Note_on_c, 2, 78, 0
3, 70992, Note_on_c, 2, 79, 30
3, 71038, Note_on_c, 2, 79, 0
3, 71040, Note_on_c, 2, 79, 30
3, 71200, Note_on_c, 2, 79, 0
3, 71808, Note_on_c, 2, 72, 30
3, 71840, Note_on_c, 2, 72, 0
3, 71840, Note_on_c, 2, 74, 30
3, 71872, Note_on_c, 2, 74, 0
3, 71872, Note_on_c, 2, 72, 30
3, 71904, Note_on_c, 2, 72, 0
3, 71904, Note_on_c, 2, 71, 30
3, 71952, Note_on_c, 2, 71, 0
3, 71952, Note_on_c, 2, 72, 30
3, 71998, Note_on_c, 2, 72, 0
3, 72384, Note_on_c, 2, 79, 32
3, 72416, Note_on_c, 2, 79, 0
3, 72416, Note_on_c, 2, 81, 32
3, 72448, Note_on_c, 2, 81, 0
3, 72448, Note_on_c, 2, 79, 32
3, 72480, Note_on_c, 2, 79, 0
3, 72480, Note_on_c, 2, 78, 32
3, 72528, Note_on_c, 2, 78, 0
3, 72528, Note_on_c, 2, 79, 32
3, 72574, Note_on_c, 2, 79, 0
3, 72960, Note_on_c, 2, 84, 35
3, 72992, Note_on_c, 2, 84, 0
3, 72992, Note_on_c, 2, 86, 35
3, 73024, Note_on_c, 2, 86, 0
3, 73024, Note_on_c, 2, 84, 35
3, 73056, Note_on_c, 2, 84, 0
3, 73056, Note_on_c, 2, 83, 35
3, 73104, Note_on_c, 2, 83, 0
3, 73104, Note_on_c, 2, 84, 35
3, 73150, Note_on_c, 2, 84, 0
3, 73536, Note_on_c, 2, 79, 39
3, 73568, Note_on_c, 2, 79, 0
3, 73568, Note_on_c, 2, 81, 39
3, 73600, Note_on_c, 2, 81, 0
3, 73600, Note_on_c, 2, 79, 39
3, 73632, Note_on_c, 2, 79, 0
3, 73632, Note_on_c, 2, 78, 39
3, 73680, Note_on_c, 2, 78, 0
3, 73680, Note_on_c, 2, 79, 40
3, 73726, Note_on_c, 2, 79, 0
3, 73728, Note_on_c, 2, 65, 41
3, 73920, Note_on_c, 2, 65, 0
3, 73920, Note_on_c, 2, 64, 45
3, 74080, Note_on_c, 2, 64, 0
3, 74112, Note_on_c, 2, 55, 45
3, 74272, Note_on_c, 2, 55, 0
3, 74304, Note_on_c, 2, 55, 45
3, 74464, Note_on_c, 2, 55, 0
3, 74496, Note_on_c, 2, 55, 45
3, 74656, Note_on_c, 2, 55, 0
3, 75648, Note_on_c, 2, 77, 45
3, 75840, Note_on_c, 2, 77, 0
3, 75840, Note_on_c, 2, 74, 45
3, 76032, Note_on_c, 2, 74, 0
3, 76032, Note_on_c, 2, 79, 45
3, 76318, Note_on_c, 2, 79, 0
3, 76416, Note_on_c, 2, 67, 45
3, 76510, Note_on_c, 2, 67, 0
3, 76608, Note_on_c, 2, 72, 45
3, 76702, Note_on_c, 2, 72, 0
3, 76800, Note_on_c, 2, 71, 45
3, 76960, Note_on_c, 2, 71, 0
3, 77952, Note_on_c, 2, 56, 127
3, 78144, Note_on_c, 2, 56, 0
3, 78144, Note_on_c, 2, 65, 87
3, 78336, Note_on_c, 2, 65, 0
3, 78336, Note_on_c, 2, 55, 66
3, 78336, Note_on_c, 2, 62, 66
3, 78528, Note_on_c, 2, 62, 0
3, 78528, Note_on_c, 2, 67, 45
3, 78622, Note_on_c, 2, 55, 0
3, 78622, Note_on_c, 2, 67, 0
3, 78720, Note_on_c, 2, 55, 45
3, 78720, Note_on_c, 2, 67, 45
3, 78814, Note_on_c, 2, 55, 0
3, 78814, Note_on_c, 2, 67, 0
3, 78912, Note_on_c, 2, 55, 45
3, 78912, Note_on_c, 2, 64, 45
3, 79006, Note_on_c, 2, 55, 0
3, 79006, Note_on_c, 2, 64, 0
3, 79104, Note_on_c, 2, 55, 45
3, 79104, Note_on_c, 2, 62, 45
3, 79152, Note_on_c, 2, 55, 0
3, 79152, Note_on_c, 2, 62, 0
3, 79488, Note_on_c, 2, 55, 45
3, 79488, Note_on_c, 2, 64, 45
3, 79680, Note_on_c, 2, 64, 0
3, 79680, Note_on_c, 2, 62, 45
3, 79728, Note_on_c, 2, 55, 0
3, 79728, Note_on_c, 2, 62, 0
3, 80064, Note_on_c, 2, 55, 45
3, 80064, Note_on_c, 2, 64, 45
3, 80256, Note_on_c, 2, 64, 0
3, 80256, Note_on_c, 2, 62, 45
3, 80304, Note_on_c, 2, 55, 0
3, 80304, Note_on_c, 2, 62, 0
3, 81408, Note_on_c, 2, 64, 30
3, 81450, Note_on_c, 2, 64, 0
3, 81472, Note_on_c, 2, 72, 30
3, 81536, Note_on_c, 2, 72, 0
3, 81536, Note_on_c, 2, 71, 30
3, 81598, Note_on_c, 2, 71, 0
3, 81600, Note_on_c, 2, 72, 30
3, 81642, Note_on_c, 2, 72, 0
3, 81664, Note_on_c, 2, 67, 30
3, 81706, Note_on_c, 2, 67, 0
3, 81728, Note_on_c, 2, 65, 30
3, 81770, Note_on_c, 2, 65, 0
3, 81792, Note_on_c, 2, 64, 30
3, 81834, Note_on_c, 2, 64, 0
3, 81856, Note_on_c, 2, 62, 30
3, 81898, Note_on_c, 2, 62, 0
3, 81920, Note_on_c, 2, 60, 30
3, 81962, Note_on_c, 2, 60, 0
3, 81984, Note_on_c, 2, 59, 45
3, 82144, Note_on_c, 2, 59, 0
3, 82560, Note_on_c, 2, 58, 30
3, 82622, Note_on_c, 2, 58, 0
3, 82624, Note_on_c, 2, 70, 30
3, 82688, Note_on_c, 2, 70, 0
3, 82688, Note_on_c, 2, 69, 30
3, 82750, Note_on_c, 2, 69, 0
3, 82752, Note_on_c, 2, 70, 30
3, 82794, Note_on_c, 2, 70, 0
3, 82816, Note_on_c, 2, 67, 31
3, 82858, Note_on_c, 2, 67, 0
3, 82880, Note_on_c, 2, 64, 32
3, 82922, Note_on_c, 2, 64, 0
3, 83008, Note_on_c, 2, 62, 34
3, 83050, Note_on_c, 2, 62, 0
3, 83072, Note_on_c, 2, 58, 35
3, 83114, Note_on_c, 2, 58, 0
3, 83136, Note_on_c, 2, 57, 36
3, 83296, Note_on_c, 2, 57, 0
3, 83776, Note_on_c, 2, 74, 45
3, 83840, Note_on_c, 2, 74, 0
3, 83840, Note_on_c, 2, 73, 45
3, 83902, Note_on_c, 2, 73, 0
3, 83904, Note_on_c, 2, 74, 45
3, 83946, Note_on_c, 2, 74, 0
3, 83968, Note_on_c, 2, 72, 45
3, 84010, Note_on_c, 2, 72, 0
3, 84032, Note_on_c, 2, 71, 45
3, 84074, Note_on_c, 2, 71, 0
3, 84096, Note_on_c, 2, 69, 45
3, 84138, Note_on_c, 2, 69, 0
3, 84160, Note_on_c, 2, 67, 45
3, 84202, Note_on_c, 2, 67, 0
3, 84224, Note_on_c, 2, 65, 45
3, 84266, Note_on_c, 2, 65, 0
3, 84288, Note_on_c, 2, 64, 45
3, 84448, Note_on_c, 2, 64, 0
3, 84864, Note_on_c, 2, 55, 45
3, 84926, Note_on_c, 2, 55, 0
3, 84928, Note_on_c, 2, 65, 45
3, 84992, Note_on_c, 2, 65, 0
3, 84992, Note_on_c, 2, 64, 45
3, 85054, Note_on_c, 2, 64, 0
3, 85056, Note_on_c, 2, 65, 45
3, 85098, Note_on_c, 2, 65, 0
3, 85120, Note_on_c, 2, 62, 45
3, 85162, Note_on_c, 2, 62, 0
3, 85184, Note_on_c, 2, 59, 45
3, 85226, Note_on_c, 2, 59, 0
3, 85248, Note_on_c, 2, 55, 45
3, 85290, Note_on_c, 2, 55, 0
3, 85312, Note_on_c, 2, 57, 45
3, 85354, Note_on_c, 2, 57, 0
3, 85376, Note_on_c, 2, 59, 45
3, 85418, Note_on_c, 2, 59, 0
3, 85440, Note_on_c, 2, 60, 45
3, 85600, Note_on_c, 2, 60, 0
3, 86592, Note_on_c, 2, 79, 30
3, 86752, Note_on_c, 2, 79, 0
3, 86784, Note_on_c, 2, 79, 30
3, 86944, Note_on_c, 2, 79, 0
3, 86976, Note_on_c, 2, 79, 30
3, 87008, Note_on_c, 2, 79, 0
3, 87008, Note_on_c, 2, 81, 30
3, 87040, Note_on_c, 2, 81, 0
3, 87040, Note_on_c, 2, 79, 30
3, 87072, Note_on_c, 2, 79, 0
3, 87072, Note_on_c, 2, 78, 30
3, 87120, Note_on_c, 2, 78, 0
3, 87120, Note_on_c, 2, 79, 30
3, 87166, Note_on_c, 2, 79, 0
3, 87168, Note_on_c, 2, 79, 30
3, 87328, Note_on_c, 2, 79, 0
3, 87936, Note_on_c, 2, 72, 30
3, 87968, Note_on_c, 2, 72, 0
3, 87968, Note_on_c, 2, 74, 30
3, 88000, Note_on_c, 2, 74, 0
3, 88000, Note_on_c, 2, 72, 30
3, 88032, Note_on_c, 2, 72, 0
3, 88032, Note_on_c, 2, 71, 30
3, 88080, Note_on_c, 2, 71, 0
3, 88080, Note_on_c, 2, 72, 30
3, 88126, Note_on_c, 2, 72, 0
3, 88512, Note_on_c, 2, 79, 32
3, 88544, Note_on_c, 2, 79, 0
3, 88544, Note_on_c, 2, 81, 32
3, 88576, Note_on_c, 2, 81, 0
3, 88576, Note_on_c, 2, 79, 32
3, 88608, Note_on_c, 2, 79, 0
3, 88608, Note_on_c, 2, 78, 32
3, 88656, Note_on_c, 2, 78, 0
3, 88656, Note_on_c, 2, 79, 32
3, 88702, Note_on_c, 2, 79, 0
3, 89088, Note_on_c, 2, 84, 35
3, 89120, Note_on_c, 2, 84, 0
3, 89120, Note_on_c, 2, 86, 35
3, 89152, Note_on_c, 2, 86, 0
3, 89152, Note_on_c, 2, 84, 35
3, 89184, Note_on_c, 2, 84, 0
3, 89184, Note_on_c, 2, 83, 35
3, 89232, Note_on_c, 2, 83, 0
3, 89232, Note_on_c, 2, 84, 35
3, 89278, Note_on_c, 2, 84, 0
3, 89664, Note_on_c, 2, 79, 39
3, 89696, Note_on_c, 2, 79, 0
3, 89696, Note_on_c, 2, 81, 39
3, 89728, Note_on_c, 2, 81, 0
3, 89728, Note_on_c, 2, 79, 39
3, 89760, Note_on_c, 2, 79, 0
3, 89760, Note_on_c, 2, 78, 39
3, 89808, Note_on_c, 2, 78, 0
3, 89808, Note_on_c, 2, 79, 40
3, 89854, Note_on_c, 2, 79, 0
3, 89856, Note_on_c, 2, 65, 41
3, 90048, Note_on_c, 2, 65, 0
3, 90048, Note_on_c, 2, 64, 45
3, 90208, Note_on_c, 2, 64, 0
3, 90240, Note_on_c, 2, 55, 45
3, 90400, Note_on_c, 2, 55, 0
3, 90432, Note_on_c, 2, 55, 45
3, 90592, Note_on_c, 2, 55, 0
3, 90624, Note_on_c, 2, 55, 45
3, 90784, Note_on_c, 2, 55, 0
3, 91008, Note_on_c, 2, 67, 30
3, 91040, Note_on_c, 2, 67, 0
3, 91104, Note_on_c, 2, 67, 30
3, 91152, Note_on_c, 2, 67, 0
3, 91152, Note_on_c, 2, 64, 30
3, 91200, Note_on_c, 2, 64, 0
3, 91200, Note_on_c, 2, 72, 30
3, 91248, Note_on_c, 2, 72, 0
3, 91584, Note_on_c, 2, 67, 30
3, 91616, Note_on_c, 2, 67, 0
3, 91680, Note_on_c, 2, 67, 30
3, 91728, Note_on_c, 2, 67, 0
3, 91728, Note_on_c, 2, 64, 30
3, 91776, Note_on_c, 2, 64, 0
3, 91776, Note_on_c, 2, 60, 30
3, 91824, Note_on_c, 2, 60, 0
3, 93312, Note_on_c, 2, 69, 30
3, 93344, Note_on_c, 2, 69, 0
3, 93408, Note_on_c, 2, 69, 30
3, 93456, Note_on_c, 2, 69, 0
3, 93456, Note_on_c, 2, 66, 30
3, 93504, Note_on_c, 2, 66, 0
3, 93504, Note_on_c, 2, 72, 30
3, 93552, Note_on_c, 2, 72, 0
3, 93888, Note_on_c, 2, 69, 30
3, 93920, Note_on_c, 2, 69, 0
3, 93984, Note_on_c, 2, 69, 30
3, 94032, Note_on_c, 2, 69, 0
3, 94032, Note_on_c, 2, 66, 30
3, 94080, Note_on_c, 2, 66, 0
3, 94080, Note_on_c, 2, 60, 30
3, 94128, Note_on_c, 2, 60, 0
3, 95904, Note_on_c, 2, 59, 45
3, 95952, Note_on_c, 2, 59, 0
3, 95952, Note_on_c, 2, 62, 45
3, 96000, Note_on_c, 2, 62, 0
3, 96000, Note_on_c, 2, 67, 45
3, 96032, Note_on_c, 2, 67, 0
3, 96480, Note_on_c, 2, 62, 45
3, 96528, Note_on_c, 2, 62, 0
3, 96528, Note_on_c, 2, 67, 45
3, 96576, Note_on_c, 2, 67, 0
3, 96576, Note_on_c, 2, 71, 45
3, 96608, Note_on_c, 2, 71, 0
3, 97152, Note_on_c, 2, 72, 45
3, 97200, Note_on_c, 2, 72, 0
3, 97344, Note_on_c, 2, 71, 45
3, 97392, Note_on_c, 2, 71, 0
3, 97728, Note_on_c, 2, 66, 45
3, 97776, Note_on_c, 2, 66, 0
3, 98208, Note_on_c, 2, 57, 45
3, 98256, Note_on_c, 2, 57, 0
3, 98256, Note_on_c, 2, 60, 45
3, 98304, Note_on_c, 2, 60, 0
3, 98304, Note_on_c, 2, 66, 45
3, 98336, Note_on_c, 2, 66, 0
3, 98784, Note_on_c, 2, 62, 45
3, 98832, Note_on_c, 2, 62, 0
3, 98832, Note_on_c, 2, 66, 45
3, 98880, Note_on_c, 2, 66, 0
3, 98880, Note_on_c, 2, 69, 45
3, 98912, Note_on_c, 2, 69, 0
3, 99072, Note_on_c, 2, 67, 45
3, 99120, Note_on_c, 2, 67, 0
3, 99360, Note_on_c, 2, 57, 45
3, 99408, Note_on_c, 2, 57, 0
3, 99408, Note_on_c, 2, 60, 45
3, 99456, Note_on_c, 2, 60, 0
3, 99456, Note_on_c, 2, 64, 45
3, 99488, Note_on_c, 2, 64, 0
3, 99648, Note_on_c, 2, 60, 45
3, 99696, Note_on_c, 2, 60, 0
3, 99840, Note_on_c, 2, 59, 45
3, 99888, Note_on_c, 2, 59, 0
3, 100416, Note_on_c, 2, 66, 127
3, 100672, Note_on_c, 2, 66, 0
3, 100704, Note_on_c, 2, 66, 45
3, 100736, Note_on_c, 2, 66, 0
3, 100800, Note_on_c, 2, 66, 45
3, 100832, Note_on_c, 2, 66, 0
3, 100896, Note_on_c, 2, 66, 45
3, 100928, Note_on_c, 2, 66, 0
3, 100992, Note_on_c, 2, 66, 45
3, 101024, Note_on_c, 2, 66, 0
3, 101088, Note_on_c, 2, 66, 45
3, 101120, Note_on_c, 2, 66, 0
3, 101184, Note_on_c, 2, 66, 45
3, 101216, Note_on_c, 2, 66, 0
3, 101280, Note_on_c, 2, 66, 45
3, 101312, Note_on_c, 2, 66, 0
3, 101376, Note_on_c, 2, 66, 45
3, 101408, Note_on_c, 2, 66, 0
3, 101472, Note_on_c, 2, 66, 45
3, 101504, Note_on_c, 2, 66, 0
3, 101568, Note_on_c, 2, 66, 45
3, 101728, Note_on_c, 2, 66, 0
3, 101760, Note_on_c, 2, 66, 45
3, 101920, Note_on_c, 2, 66, 0
3, 101952, Note_on_c, 2, 70, 45
3, 102112, Note_on_c, 2, 70, 0
3, 102144, Note_on_c, 2, 71, 45
3, 102304, Note_on_c, 2, 71, 0
3, 102720, Note_on_c, 2, 65, 92
3, 103056, Note_on_c, 2, 65, 0
3, 103104, Note_on_c, 2, 67, 92
3, 103136, Note_on_c, 2, 67, 0
3, 103200, Note_on_c, 2, 69, 92
3, 103232, Note_on_c, 2, 69, 0
3, 103296, Note_on_c, 2, 71, 92
3, 103328, Note_on_c, 2, 71, 0
3, 103392, Note_on_c, 2, 72, 92
3, 103424, Note_on_c, 2, 72, 0
3, 103488, Note_on_c, 2, 74, 92
3, 103520, Note_on_c, 2, 74, 0
3, 103584, Note_on_c, 2, 76, 92
3, 103616, Note_on_c, 2, 76, 0
3, 103680, Note_on_c, 2, 77, 92
3, 103712, Note_on_c, 2, 77, 0
3, 103776, Note_on_c, 2, 65, 92
3, 103808, Note_on_c, 2, 65, 0
3, 103872, Note_on_c, 2, 64, 92
3, 103966, Note_on_c, 2, 64, 0
3, 103968, Note_on_c, 2, 66, 88
3, 104062, Note_on_c, 2, 66, 0
3, 104064, Note_on_c, 2, 64, 84
3, 104158, Note_on_c, 2, 64, 0
3, 104160, Note_on_c, 2, 66, 80
3, 104254, Note_on_c, 2, 66, 0
3, 104256, Note_on_c, 2, 64, 75
3, 104350, Note_on_c, 2, 64, 0
3, 104352, Note_on_c, 2, 72, 70
3, 104446, Note_on_c, 2, 72, 0
3, 104448, Note_on_c, 2, 71, 65
3, 104640, Note_on_c, 2, 71, 0
3, 104640, Note_on_c, 2, 69, 55
3, 104734, Note_on_c, 2, 69, 0
3, 104832, Note_on_c, 2, 74, 45
3, 104864, Note_on_c, 2, 74, 0
3, 104928, Note_on_c, 2, 74, 45
3, 104976, Note_on_c, 2, 74, 0
3, 104976, Note_on_c, 2, 71, 45
3, 105024, Note_on_c, 2, 71, 0
3, 105024, Note_on_c, 2, 79, 45
3, 105184, Note_on_c, 2, 79, 0
3, 105408, Note_on_c, 2, 74, 45
3, 105440, Note_on_c, 2, 74, 0
3, 105504, Note_on_c, 2, 74, 45
3, 105552, Note_on_c, 2, 74, 0
3, 105552, Note_on_c, 2, 71, 45
3, 105600, Note_on_c, 2, 71, 0
3, 105600, Note_on_c, 2, 67, 45
3, 105760, Note_on_c, 2, 67, 0
3, 106368, Note_on_c, 2, 72, 45
3, 106416, Note_on_c, 2, 72, 0
3, 106560, Note_on_c, 2, 71, 45
3, 106608, Note_on_c, 2, 71, 0
3, 106752, Note_on_c, 2, 69, 45
3, 106800, Note_on_c, 2, 69, 0
3, 106944, Note_on_c, 2, 66, 45
3, 106992, Note_on_c, 2, 66, 0
3, 107424, Note_on_c, 2, 66, 45
3, 107472, Note_on_c, 2, 66, 0
3, 107472, Note_on_c, 2, 69, 45
3, 107520, Note_on_c, 2, 69, 0
3, 107520, Note_on_c, 2, 72, 45
3, 107552, Note_on_c, 2, 72, 0
3, 108000, Note_on_c, 2, 69, 45
3, 108048, Note_on_c, 2, 69, 0
3, 108048, Note_on_c, 2, 66, 45
3, 108096, Note_on_c, 2, 66, 0
3, 108096, Note_on_c, 2, 63, 45
3, 108128, Note_on_c, 2, 63, 0
3, 108576, Note_on_c, 2, 66, 60
3, 108624, Note_on_c, 2, 66, 0
3, 108624, Note_on_c, 2, 63, 60
3, 108670, Note_on_c, 2, 63, 0
3, 108672, Note_on_c, 2, 59, 60
3, 108704, Note_on_c, 2, 59, 0
3, 109728, Note_on_c, 2, 67, 45
3, 109888, Note_on_c, 2, 67, 0
3, 109920, Note_on_c, 2, 67, 56
3, 110080, Note_on_c, 2, 67, 0
3, 110112, Note_on_c, 2, 67, 67
3, 110302, Note_on_c, 2, 67, 0
3, 110304, Note_on_c, 2, 67, 78
3, 110464, Note_on_c, 2, 67, 0
3, 110496, Note_on_c, 2, 67, 90
3, 110656, Note_on_c, 2, 67, 0
3, 110688, Note_on_c, 2, 67, 102
3, 110736, Note_on_c, 2, 67, 0
3, 110736, Note_on_c, 2, 64, 105
3, 110784, Note_on_c, 2, 64, 0
3, 110784, Note_on_c, 2, 72, 108
3, 110944, Note_on_c, 2, 72, 0
3, 111168, Note_on_c, 2, 67, 108
3, 111200, Note_on_c, 2, 67, 0
3, 111264, Note_on_c, 2, 67, 108
3, 111312, Note_on_c, 2, 67, 0
3, 111312, Note_on_c, 2, 64, 108
3, 111360, Note_on_c, 2, 64, 0
3, 111360, Note_on_c, 2, 60, 108
3, 111520, Note_on_c, 2, 60, 0
3, 111744, Note_on_c, 2, 64, 108
3, 111776, Note_on_c, 2, 64, 0
3, 111840, Note_on_c, 2, 64, 108
3, 111888, Note_on_c, 2, 64, 0
3, 111888, Note_on_c, 2, 60, 108
3, 111934, Note_on_c, 2, 60, 0
3, 111936, Note_on_c, 2, 59, 45
3, 112030, Note_on_c, 2, 59, 0
3, 112032, Note_on_c, 2, 67, 45
3, 112126, Note_on_c, 2, 67, 0
3, 112128, Note_on_c, 2, 59, 45
3, 112222, Note_on_c, 2, 59, 0
3, 112224, Note_on_c, 2, 67, 45
3, 112318, Note_on_c, 2, 67, 0
3, 112320, Note_on_c, 2, 60, 45
3, 112414, Note_on_c, 2, 60, 0
3, 112416, Note_on_c, 2, 66, 45
3, 112510, Note_on_c, 2, 66, 0
3, 112512, Note_on_c, 2, 59, 45
3, 112544, Note_on_c, 2, 59, 0
3, 112608, Note_on_c, 2, 61, 45
3, 112640, Note_on_c, 2, 61, 0
3, 112704, Note_on_c, 2, 62, 45
3, 113182, Note_on_c, 2, 62, 0
3, 113184, Note_on_c, 2, 61, 45
3, 113216, Note_on_c, 2, 61, 0
3, 113280, Note_on_c, 2, 62, 45
3, 113758, Note_on_c, 2, 62, 0
3, 113760, Note_on_c, 2, 66, 45
3, 113792, Note_on_c, 2, 66, 0
3, 113856, Note_on_c, 2, 67, 45
3, 114334, Note_on_c, 2, 67, 0
3, 114336, Note_on_c, 2, 69, 45
3, 114430, Note_on_c, 2, 69, 0
3, 114432, Note_on_c, 2, 71, 45
3, 114526, Note_on_c, 2, 71, 0
3, 114528, Note_on_c, 2, 72, 45
3, 114622, Note_on_c, 2, 72, 0
3, 114624, Note_on_c, 2, 67, 45
3, 114718, Note_on_c, 2, 67, 0
3, 114720, Note_on_c, 2, 66, 45
3, 114814, Note_on_c, 2, 66, 0
3, 115104, Note_on_c, 2, 70, 45
3, 115136, Note_on_c, 2, 70, 0
3, 115200, Note_on_c, 2, 71, 45
3, 115232, Note_on_c, 2, 71, 0
3, 115296, Note_on_c, 2, 71, 45
3, 115328, Note_on_c, 2, 71, 0
3, 115392, Note_on_c, 2, 72, 45
3, 115552, Note_on_c, 2, 72, 0
3, 115680, Note_on_c, 2, 71, 45
3, 115774, Note_on_c, 2, 71, 0
3, 115776, Note_on_c, 2, 72, 45
3, 115870, Note_on_c, 2, 72, 0
3, 115872, Note_on_c, 2, 73, 45
3, 115966, Note_on_c, 2, 73, 0
3, 116256, Note_on_c, 2, 75, 45
3, 116350, Note_on_c, 2, 75, 0
3, 116352, Note_on_c, 2, 76, 50
3, 116446, Note_on_c, 2, 76, 0
3, 116448, Note_on_c, 2, 69, 55
3, 116542, Note_on_c, 2, 69, 0
3, 116544, Note_on_c, 2, 71, 60
3, 116638, Note_on_c, 2, 71, 0
3, 116640, Note_on_c, 2, 69, 65
3, 116734, Note_on_c, 2, 69, 0
3, 116736, Note_on_c, 2, 67, 70
3, 116830, Note_on_c, 2, 67, 0
3, 116832, Note_on_c, 2, 69, 75
3, 116926, Note_on_c, 2, 69, 0
3, 116928, Note_on_c, 2, 71, 80
3, 117022, Note_on_c, 2, 71, 0
3, 117024, Note_on_c, 2, 72, 86
3, 117118, Note_on_c, 2, 72, 0
3, 117120, Note_on_c, 2, 71, 45
3, 117280, Note_on_c, 2, 71, 0
3, 117888, Note_on_c, 2, 69, 45
3, 117920, Note_on_c, 2, 69, 0
3, 117984, Note_on_c, 2, 69, 45
3, 118032, Note_on_c, 2, 69, 0
3, 118032, Note_on_c, 2, 62, 45
3, 118080, Note_on_c, 2, 62, 0
3, 118080, Note_on_c, 2, 72, 45
3, 118464, Note_on_c, 2, 72, 0
3, 118464, Note_on_c, 2, 71, 52
3, 118624, Note_on_c, 2, 71, 0
3, 119232, Note_on_c, 2, 69, 84
3, 119264, Note_on_c, 2, 69, 0
3, 119328, Note_on_c, 2, 69, 88
3, 119376, Note_on_c, 2, 69, 0
3, 119376, Note_on_c, 2, 62, 90
3, 119422, Note_on_c, 2, 62, 0
3, 119424, Note_on_c, 2, 67, 92
3, 119584, Note_on_c, 2, 67, 0
3, 119584, End_track
4, 0, Start_track
4, 0, MIDI_port, 0
4, 0, Title_t, "Viola."
4, 0, Program_c, 3, 0
4, 0, Control_c, 3, 7, 127
4, 0, Control_c, 3, 10, 64
4, 384, Note_on_c, 3, 59, 45
4, 432, Note_on_c, 3, 59, 0
4, 960, Note_on_c, 3, 62, 45
4, 1008, Note_on_c, 3, 62, 0
4, 1536, Note_on_c, 3, 62, 45
4, 1584, Note_on_c, 3, 62, 0
4, 1728, Note_on_c, 3, 62, 45
4, 1776, Note_on_c, 3, 62, 0
4, 1920, Note_on_c, 3, 62, 45
4, 1968, Note_on_c, 3, 62, 0
4, 2112, Note_on_c, 3, 62, 45
4, 2160, Note_on_c, 3, 62, 0
4, 2688, Note_on_c, 3, 60, 45
4, 2736, Note_on_c, 3, 60, 0
4, 3264, Note_on_c, 3, 62, 45
4, 3312, Note_on_c, 3, 62, 0
4, 3456, Note_on_c, 3, 62, 45
4, 3504, Note_on_c, 3, 62, 0
4, 3840, Note_on_c, 3, 60, 45
4, 3888, Note_on_c, 3, 60, 0
4, 4032, Note_on_c, 3, 57, 45
4, 4080, Note_on_c, 3, 57, 0
4, 4224, Note_on_c, 3, 55, 60
4, 4272, Note_on_c, 3, 55, 0
4, 4992, Note_on_c, 3, 59, 45
4, 5040, Note_on_c, 3, 59, 0
4, 5568, Note_on_c, 3, 62, 45
4, 5616, Note_on_c, 3, 62, 0
4, 6144, Note_on_c, 3, 62, 45
4, 6192, Note_on_c, 3, 62, 0
4, 6336, Note_on_c, 3, 62, 45
4, 6384, Note_on_c, 3, 62, 0
4, 6528, Note_on_c, 3, 62, 45
4, 6576, Note_on_c, 3, 62, 0
4, 6720, Note_on_c, 3, 62, 45
4, 6768, Note_on_c, 3, 62, 0
4, 7296, Note_on_c, 3, 60, 45
4, 7344, Note_on_c, 3, 60, 0
4, 7872, Note_on_c, 3, 62, 45
4, 7920, Note_on_c, 3, 62, 0
4, 8064, Note_on_c, 3, 62, 45
4, 8112, Note_on_c, 3, 62, 0
4, 8448, Note_on_c, 3, 60, 45
4, 8496, Note_on_c, 3, 60, 0
4, 8640, Note_on_c, 3, 57, 45
4, 8688, Note_on_c, 3, 57, 0
4, 8832, Note_on_c, 3, 55, 60
4, 8880, Note_on_c, 3, 55, 0
4, 9408, Note_on_c, 3, 63, 127
4, 9664, Note_on_c, 3, 63, 0
4, 9696, Note_on_c, 3, 63, 45
4, 9728, Note_on_c, 3, 63, 0
4, 9792, Note_on_c, 3, 63, 45
4, 9824, Note_on_c, 3, 63, 0
4, 9888, Note_on_c, 3, 63, 45
4, 9920, Note_on_c, 3, 63, 0
4, 9984, Note_on_c, 3, 64, 45
4, 10016, Note_on_c, 3, 64, 0
4, 10080, Note_on_c, 3, 64, 45
4, 10112, Note_on_c, 3, 64, 0
4, 10176, Note_on_c, 3, 64, 45
4, 10208, Note_on_c, 3, 64, 0
4, 10272, Note_on_c, 3, 64, 45
4, 10304, Note_on_c, 3, 64, 0
4, 10368, Note_on_c, 3, 64, 45
4, 10400, Note_on_c, 3, 64, 0
4, 10464, Note_on_c, 3, 64, 45
4, 10496, Note_on_c, 3, 64, 0
4, 10560, Note_on_c, 3, 63, 45
4, 10720, Note_on_c, 3, 63, 0
4, 10752, Note_on_c, 3, 63, 45
4, 10912, Note_on_c, 3, 63, 0
4, 10944, Note_on_c, 3, 66, 45
4, 11104, Note_on_c, 3, 66, 0
4, 11136, Note_on_c, 3, 66, 45
4, 11296, Note_on_c, 3, 66, 0
4, 11712, Note_on_c, 3, 55, 108
4, 12048, Note_on_c, 3, 55, 0
4, 12096, Note_on_c, 3, 65, 92
4, 12128, Note_on_c, 3, 65, 0
4, 12192, Note_on_c, 3, 64, 92
4, 12224, Note_on_c, 3, 64, 0
4, 12288, Note_on_c, 3, 62, 92
4, 12320, Note_on_c, 3, 62, 0
4, 12384, Note_on_c, 3, 60, 92
4, 12416, Note_on_c, 3, 60, 0
4, 12480, Note_on_c, 3, 59, 92
4, 12512, Note_on_c, 3, 59, 0
4, 12576, Note_on_c, 3, 57, 92
4, 12608, Note_on_c, 3, 57, 0
4, 12672, Note_on_c, 3, 55, 92
4, 12704, Note_on_c, 3, 55, 0
4, 12768, Note_on_c, 3, 55, 92
4, 12800, Note_on_c, 3, 55, 0
4, 12864, Note_on_c, 3, 55, 92
4, 12958, Note_on_c, 3, 55, 0
4, 12960, Note_on_c, 3, 57, 89
4, 13054, Note_on_c, 3, 57, 0
4, 13056, Note_on_c, 3, 55, 86
4, 13150, Note_on_c, 3, 55, 0
4, 13152, Note_on_c, 3, 57, 83
4, 13246, Note_on_c, 3, 57, 0
4, 13248, Note_on_c, 3, 55, 80
4, 13342, Note_on_c, 3, 55, 0
4, 13344, Note_on_c, 3, 64, 77
4, 13438, Note_on_c, 3, 64, 0
4, 13440, Note_on_c, 3, 67, 73
4, 13632, Note_on_c, 3, 67, 0
4, 13632, Note_on_c, 3, 66, 65
4, 13726, Note_on_c, 3, 66, 0
4, 14112, Note_on_c, 3, 59, 45
4, 14160, Note_on_c, 3, 59, 0
4, 14160, Note_on_c, 3, 62, 45
4, 14208, Note_on_c, 3, 62, 0
4, 14208, Note_on_c, 3, 67, 45
4, 14240, Note_on_c, 3, 67, 0
4, 14688, Note_on_c, 3, 62, 45
4, 14736, Note_on_c, 3, 62, 0
4, 14736, Note_on_c, 3, 59, 45
4, 14784, Note_on_c, 3, 59, 0
4, 14784, Note_on_c, 3, 55, 45
4, 14816, Note_on_c, 3, 55, 0
4, 15360, Note_on_c, 3, 50, 45
4, 15408, Note_on_c, 3, 50, 0
4, 15552, Note_on_c, 3, 50, 45
4, 15600, Note_on_c, 3, 50, 0
4, 15744, Note_on_c, 3, 50, 45
4, 15792, Note_on_c, 3, 50, 0
4, 15936, Note_on_c, 3, 50, 45
4, 15984, Note_on_c, 3, 50, 0
4, 16128, Note_on_c, 3, 69, 45
4, 16160, Note_on_c, 3, 69, 0
4, 16224, Note_on_c, 3, 69, 45
4, 16272, Note_on_c, 3, 69, 0
4, 16272, Note_on_c, 3, 66, 45
4, 16320, Note_on_c, 3, 66, 0
4, 16320, Note_on_c, 3, 72, 45
4, 16368, Note_on_c, 3, 72, 0
4, 16704, Note_on_c, 3, 69, 45
4, 16736, Note_on_c, 3, 69, 0
4, 16800, Note_on_c, 3, 69, 45
4, 16848, Note_on_c, 3, 69, 0
4, 16848, Note_on_c, 3, 66, 45
4, 16896, Note_on_c, 3, 66, 0
4, 16896, Note_on_c, 3, 63, 45
4, 16944, Note_on_c, 3, 63, 0
4, 17280, Note_on_c, 3, 66, 45
4, 17312, Note_on_c, 3, 66, 0
4, 17376, Note_on_c, 3, 66, 45
4, 17424, Note_on_c, 3, 66, 0
4, 17424, Note_on_c, 3, 63, 45
4, 17472, Note_on_c, 3, 63, 0
4, 17472, Note_on_c, 3, 59, 45
4, 17504, Note_on_c, 3, 59, 0
4, 18720, Note_on_c, 3, 64, 45
4, 18752, Note_on_c, 3, 64, 0
4, 18816, Note_on_c, 3, 65, 50
4, 18848, Note_on_c, 3, 65, 0
4, 18912, Note_on_c, 3, 64, 55
4, 18944, Note_on_c, 3, 64, 0
4, 19008, Note_on_c, 3, 65, 60
4, 19040, Note_on_c, 3, 65, 0
4, 19104, Note_on_c, 3, 64, 66
4, 19136, Note_on_c, 3, 64, 0
4, 19200, Note_on_c, 3, 62, 72
4, 19294, Note_on_c, 3, 62, 0
4, 19296, Note_on_c, 3, 60, 78
4, 19390, Note_on_c, 3, 60, 0
4, 19392, Note_on_c, 3, 59, 84
4, 19486, Note_on_c, 3, 59, 0
4, 19488, Note_on_c, 3, 57, 90
4, 19582, Note_on_c, 3, 57, 0
4, 19584, Note_on_c, 3, 55, 96
4, 19678, Note_on_c, 3, 55, 0
4, 19680, Note_on_c, 3, 53, 102
4, 19774, Note_on_c, 3, 53, 0
4, 19776, Note_on_c, 3, 52, 108
4, 19808, Note_on_c, 3, 52, 0
4, 19872, Note_on_c, 3, 48, 108
4, 19920, Note_on_c, 3, 48, 0
4, 19920, Note_on_c, 3, 52, 108
4, 19968, Note_on_c, 3, 52, 0
4, 19968, Note_on_c, 3, 55, 108
4, 20016, Note_on_c, 3, 55, 0
4, 20448, Note_on_c, 3, 48, 108
4, 20496, Note_on_c, 3, 48, 0
4, 20496, Note_on_c, 3, 52, 108
4, 20544, Note_on_c, 3, 52, 0
4, 20544, Note_on_c, 3, 57, 108
4, 20592, Note_on_c, 3, 57, 0
4, 20928, Note_on_c, 3, 50, 45
4, 20960, Note_on_c, 3, 50, 0
4, 21024, Note_on_c, 3, 55, 45
4, 21072, Note_on_c, 3, 55, 0
4, 21072, Note_on_c, 3, 59, 45
4, 21118, Note_on_c, 3, 59, 0
4, 21120, Note_on_c, 3, 62, 45
4, 21280, Note_on_c, 3, 62, 0
4, 21312, Note_on_c, 3, 62, 45
4, 21472, Note_on_c, 3, 62, 0
4, 21504, Note_on_c, 3, 62, 45
4, 21664, Note_on_c, 3, 62, 0
4, 21792, Note_on_c, 3, 58, 45
4, 21886, Note_on_c, 3, 58, 0
4, 21888, Note_on_c, 3, 59, 45
4, 21982, Note_on_c, 3, 59, 0
4, 21984, Note_on_c, 3, 59, 45
4, 22078, Note_on_c, 3, 59, 0
4, 22080, Note_on_c, 3, 60, 45
4, 22240, Note_on_c, 3, 60, 0
4, 22368, Note_on_c, 3, 59, 45
4, 22462, Note_on_c, 3, 59, 0
4, 22464, Note_on_c, 3, 60, 45
4, 22558, Note_on_c, 3, 60, 0
4, 22560, Note_on_c, 3, 60, 45
4, 22654, Note_on_c, 3, 60, 0
4, 22656, Note_on_c, 3, 59, 45
4, 22816, Note_on_c, 3, 59, 0
4, 22944, Note_on_c, 3, 58, 45
4, 23038, Note_on_c, 3, 58, 0
4, 23040, Note_on_c, 3, 59, 45
4, 23134, Note_on_c, 3, 59, 0
4, 23136, Note_on_c, 3, 65, 45
4, 23230, Note_on_c, 3, 65, 0
4, 23232, Note_on_c, 3, 64, 45
4, 23326, Note_on_c, 3, 64, 0
4, 23328, Note_on_c, 3, 64, 45
4, 23422, Note_on_c, 3, 64, 0
4, 23424, Note_on_c, 3, 62, 45
4, 23518, Note_on_c, 3, 62, 0
4, 23520, Note_on_c, 3, 60, 45
4, 23614, Note_on_c, 3, 60, 0
4, 23616, Note_on_c, 3, 64, 45
4, 23710, Note_on_c, 3, 64, 0
4, 23712, Note_on_c, 3, 60, 45
4, 23806, Note_on_c, 3, 60, 0
4, 23808, Note_on_c, 3, 59, 45
4, 23968, Note_on_c, 3, 59, 0
4, 24288, Note_on_c, 3, 62, 45
4, 24320, Note_on_c, 3, 62, 0
4, 24384, Note_on_c, 3, 54, 45
4, 24544, Note_on_c, 3, 54, 0
4, 24864, Note_on_c, 3, 62, 45
4, 24896, Note_on_c, 3, 62, 0
4, 24960, Note_on_c, 3, 55, 45
4, 25120, Note_on_c, 3, 55, 0
4, 25248, Note_on_c, 3, 55, 45
4, 25342, Note_on_c, 3, 55, 0
4, 25344, Note_on_c, 3, 55, 50
4, 25438, Note_on_c, 3, 55, 0
4, 25440, Note_on_c, 3, 64, 55
4, 25534, Note_on_c, 3, 64, 0
4, 25536, Note_on_c, 3, 62, 60
4, 25630, Note_on_c, 3, 62, 0
4, 25632, Note_on_c, 3, 66, 65
4, 25726, Note_on_c, 3, 66, 0
4, 25824, Note_on_c, 3, 67, 75
4, 25918, Note_on_c, 3, 67, 0
4, 25920, Note_on_c, 3, 67, 80
4, 26014, Note_on_c, 3, 67, 0
4, 26016, Note_on_c, 3, 69, 86
4, 26110, Note_on_c, 3, 69, 0
4, 26112, Note_on_c, 3, 67, 45
4, 26272, Note_on_c, 3, 67, 0
4, 26304, Note_on_c, 3, 62, 45
4, 26336, Note_on_c, 3, 62, 0
4, 26400, Note_on_c, 3, 62, 45
4, 26448, Note_on_c, 3, 62, 0
4, 26448, Note_on_c, 3, 59, 45
4, 26496, Note_on_c, 3, 59, 0
4, 26496, Note_on_c, 3, 67, 45
4, 26880, Note_on_c, 3, 67, 0
4, 26880, Note_on_c, 3, 66, 45
4, 27040, Note_on_c, 3, 66, 0
4, 28032, Note_on_c, 3, 69, 45
4, 28064, Note_on_c, 3, 69, 0
4, 28128, Note_on_c, 3, 69, 56
4, 28176, Note_on_c, 3, 69, 0
4, 28176, Note_on_c, 3, 66, 62
4, 28224, Note_on_c, 3, 66, 0
4, 28224, Note_on_c, 3, 72, 68
4, 28416, Note_on_c, 3, 72, 0
4, 28416, Note_on_c, 3, 71, 92
4, 28576, Note_on_c, 3, 71, 0
4, 29568, Note_on_c, 3, 63, 127
4, 29824, Note_on_c, 3, 63, 0
4, 29856, Note_on_c, 3, 63, 45
4, 29888, Note_on_c, 3, 63, 0
4, 29952, Note_on_c, 3, 63, 45
4, 29984, Note_on_c, 3, 63, 0
4, 30048, Note_on_c, 3, 63, 45
4, 30080, Note_on_c, 3, 63, 0
4, 30144, Note_on_c, 3, 64, 45
4, 30176, Note_on_c, 3, 64, 0
4, 30240, Note_on_c, 3, 64, 45
4, 30272, Note_on_c, 3, 64, 0
4, 30336, Note_on_c, 3, 64, 45
4, 30368, Note_on_c, 3, 64, 0
4, 30432, Note_on_c, 3, 64, 45
4, 30464, Note_on_c, 3, 64, 0
4, 30528, Note_on_c, 3, 64, 45
4, 30560, Note_on_c, 3, 64, 0
4, 30624, Note_on_c, 3, 64, 45
4, 30656, Note_on_c, 3, 64, 0
4, 30720, Note_on_c, 3, 63, 45
4, 30880, Note_on_c, 3, 63, 0
4, 30912, Note_on_c, 3, 63, 45
4, 31072, Note_on_c, 3, 63, 0
4, 31104, Note_on_c, 3, 66, 45
4, 31264, Note_on_c, 3, 66, 0
4, 31296, Note_on_c, 3, 66, 45
4, 31456, Note_on_c, 3, 66, 0
4, 31872, Note_on_c, 3, 55, 108
4, 32208, Note_on_c, 3, 55, 0
4, 32256, Note_on_c, 3, 65, 92
4, 32288, Note_on_c, 3, 65, 0
4, 32352, Note_on_c, 3, 64, 92
4, 32384, Note_on_c, 3, 64, 0
4, 32448, Note_on_c, 3, 62, 92
4, 32480, Note_on_c, 3, 62, 0
4, 32544, Note_on_c, 3, 60, 92
4, 32576, Note_on_c, 3, 60, 0
4, 32640, Note_on_c, 3, 59, 92
4, 32672, Note_on_c, 3, 59, 0
4, 32736, Note_on_c, 3, 57, 92
4, 32768, Note_on_c, 3, 57, 0
4, 32832, Note_on_c, 3, 55, 92
4, 32864, Note_on_c, 3, 55, 0
4, 32928, Note_on_c, 3, 55, 92
4, 32960, Note_on_c, 3, 55, 0
4, 33024, Note_on_c, 3, 55, 92
4, 33118, Note_on_c, 3, 55, 0
4, 33120, Note_on_c, 3, 57, 89
4, 33214, Note_on_c, 3, 57, 0
4, 33216, Note_on_c, 3, 55, 86
4, 33310, Note_on_c, 3, 55, 0
4, 33312, Note_on_c, 3, 57, 83
4, 33406, Note_on_c, 3, 57, 0
4, 33408, Note_on_c, 3, 55, 80
4, 33502, Note_on_c, 3, 55, 0
4, 33504, Note_on_c, 3, 64, 77
4, 33598, Note_on_c, 3, 64, 0
4, 33600, Note_on_c, 3, 67, 73
4, 33792, Note_on_c, 3, 67, 0
4, 33792, Note_on_c, 3, 66, 65
4, 33886, Note_on_c, 3, 66, 0
4, 34272, Note_on_c, 3, 59, 45
4, 34320, Note_on_c, 3, 59, 0
4, 34320, Note_on_c, 3, 62, 45
4, 34368, Note_on_c, 3, 62, 0
4, 34368, Note_on_c, 3, 67, 45
4, 34400, Note_on_c, 3, 67, 0
4, 34848, Note_on_c, 3, 62, 45
4, 34896, Note_on_c, 3, 62, 0
4, 34896, Note_on_c, 3, 59, 45
4, 34944, Note_on_c, 3, 59, 0
4, 34944, Note_on_c, 3, 55, 45
4, 34976, Note_on_c, 3, 55, 0
4, 35520, Note_on_c, 3, 50, 45
4, 35568, Note_on_c, 3, 50, 0
4, 35712, Note_on_c, 3, 50, 45
4, 35760, Note_on_c, 3, 50, 0
4, 35904, Note_on_c, 3, 50, 45
4, 35952, Note_on_c, 3, 50, 0
4, 36096, Note_on_c, 3, 50, 45
4, 36144, Note_on_c, 3, 50, 0
4, 36288, Note_on_c, 3, 69, 45
4, 36320, Note_on_c, 3, 69, 0
4, 36384, Note_on_c, 3, 69, 45
4, 36432, Note_on_c, 3, 69, 0
4, 36432, Note_on_c, 3, 66, 45
4, 36480, Note_on_c, 3, 66, 0
4, 36480, Note_on_c, 3, 72, 45
4, 36528, Note_on_c, 3, 72, 0
4, 36864, Note_on_c, 3, 69, 45
4, 36896, Note_on_c, 3, 69, 0
4, 36960, Note_on_c, 3, 69, 45
4, 37008, Note_on_c, 3, 69, 0
4, 37008, Note_on_c, 3, 66, 45
4, 37056, Note_on_c, 3, 66, 0
4, 37056, Note_on_c, 3, 63, 45
4, 37104, Note_on_c, 3, 63, 0
4, 37440, Note_on_c, 3, 66, 45
4, 37472, Note_on_c, 3, 66, 0
4, 37536, Note_on_c, 3, 66, 45
4, 37584, Note_on_c, 3, 66, 0
4, 37584, Note_on_c, 3, 63, 45
4, 37632, Note_on_c, 3, 63, 0
4, 37632, Note_on_c, 3, 59, 45
4, 37664, Note_on_c, 3, 59, 0
4, 38880, Note_on_c, 3, 64, 45
4, 38912, Note_on_c, 3, 64, 0
4, 38976, Note_on_c, 3, 65, 50
4, 39008, Note_on_c, 3, 65, 0
4, 39072, Note_on_c, 3, 64, 55
4, 39104, Note_on_c, 3, 64, 0
4, 39168, Note_on_c, 3, 65, 60
4, 39200, Note_on_c, 3, 65, 0
4, 39264, Note_on_c, 3, 64, 66
4, 39296, Note_on_c, 3, 64, 0
4, 39360, Note_on_c, 3, 62, 72
4, 39454, Note_on_c, 3, 62, 0
4, 39456, Note_on_c, 3, 60, 78
4, 39550, Note_on_c, 3, 60, 0
4, 39552, Note_on_c, 3, 59, 84
4, 39646, Note_on_c, 3, 59, 0
4, 39648, Note_on_c, 3, 57, 90
4, 39742, Note_on_c, 3, 57, 0
4, 39744, Note_on_c, 3, 55, 96
4, 39838, Note_on_c, 3, 55, 0
4, 39840, Note_on_c, 3, 53, 102
4, 39934, Note_on_c, 3, 53, 0
4, 39936, Note_on_c, 3, 52, 108
4, 39968, Note_on_c, 3, 52, 0
4, 40032, Note_on_c, 3, 48, 108
4, 40080, Note_on_c, 3, 48, 0
4, 40080, Note_on_c, 3, 52, 108
4, 40128, Note_on_c, 3, 52, 0
4, 40128, Note_on_c, 3, 55, 108
4, 40176, Note_on_c, 3, 55, 0
4, 40608, Note_on_c, 3, 48, 108
4, 40656, Note_on_c, 3, 48, 0
4, 40656, Note_on_c, 3, 52, 108
4, 40704, Note_on_c, 3, 52, 0
4, 40704, Note_on_c, 3, 57, 108
4, 40752, Note_on_c, 3, 57, 0
4, 41088, Note_on_c, 3, 50, 45
4, 41120, Note_on_c, 3, 50, 0
4, 41184, Note_on_c, 3, 55, 45
4, 41232, Note_on_c, 3, 55, 0
4, 41232, Note_on_c, 3, 59, 45
4, 41278, Note_on_c, 3, 59, 0
4, 41280, Note_on_c, 3, 62, 45
4, 41440, Note_on_c, 3, 62, 0
4, 41472, Note_on_c, 3, 62, 45
4, 41632, Note_on_c, 3, 62, 0
4, 41664, Note_on_c, 3, 62, 45
4, 41824, Note_on_c, 3, 62, 0
4, 41952, Note_on_c, 3, 58, 45
4, 42046, Note_on_c, 3, 58, 0
4, 42048, Note_on_c, 3, 59, 45
4, 42142, Note_on_c, 3, 59, 0
4, 42144, Note_on_c, 3, 59, 45
4, 42238, Note_on_c, 3, 59, 0
4, 42240, Note_on_c, 3, 60, 45
4, 42400, Note_on_c, 3, 60, 0
4, 42528, Note_on_c, 3, 59, 45
4, 42622, Note_on_c, 3, 59, 0
4, 42624, Note_on_c, 3, 60, 45
4, 42718, Note_on_c, 3, 60, 0
4, 42720, Note_on_c, 3, 60, 45
4, 42814, Note_on_c, 3, 60, 0
4, 42816, Note_on_c, 3, 59, 45
4, 42976, Note_on_c, 3, 59, 0
4, 43104, Note_on_c, 3, 58, 45
4, 43198, Note_on_c, 3, 58, 0
4, 43200, Note_on_c, 3, 59, 45
4, 43294, Note_on_c, 3, 59, 0
4, 43296, Note_on_c, 3, 65, 45
4, 43390, Note_on_c, 3, 65, 0
4, 43392, Note_on_c, 3, 64, 45
4, 43486, Note_on_c, 3, 64, 0
4, 43488, Note_on_c, 3, 64, 45
4, 43582, Note_on_c, 3, 64, 0
4, 43584, Note_on_c, 3, 62, 45
4, 43678, Note_on_c, 3, 62, 0
4, 43680, Note_on_c, 3, 60, 45
4, 43774, Note_on_c, 3, 60, 0
4, 43776, Note_on_c, 3, 64, 45
4, 43870, Note_on_c, 3, 64, 0
4, 43872, Note_on_c, 3, 60, 45
4, 43966, Note_on_c, 3, 60, 0
4, 43968, Note_on_c, 3, 59, 45
4, 44128, Note_on_c, 3, 59, 0
4, 44448, Note_on_c, 3, 62, 45
4, 44480, Note_on_c, 3, 62, 0
4, 44544, Note_on_c, 3, 54, 45
4, 44704, Note_on_c, 3, 54, 0
4, 45024, Note_on_c, 3, 62, 45
4, 45056, Note_on_c, 3, 62, 0
4, 45120, Note_on_c, 3, 55, 45
4, 45280, Note_on_c, 3, 55, 0
4, 45408, Note_on_c, 3, 55, 45
4, 45502, Note_on_c, 3, 55, 0
4, 45504, Note_on_c, 3, 55, 50
4, 45598, Note_on_c, 3, 55, 0
4, 45600, Note_on_c, 3, 64, 55
4, 45694, Note_on_c, 3, 64, 0
4, 45696, Note_on_c, 3, 62, 60
4, 45790, Note_on_c, 3, 62, 0
4, 45792, Note_on_c, 3, 66, 65
4, 45886, Note_on_c, 3, 66, 0
4, 45984, Note_on_c, 3, 67, 75
4, 46078, Note_on_c, 3, 67, 0
4, 46080, Note_on_c, 3, 67, 80
4, 46174, Note_on_c, 3, 67, 0
4, 46176, Note_on_c, 3, 69, 86
4, 46270, Note_on_c, 3, 69, 0
4, 46272, Note_on_c, 3, 67, 45
4, 46432, Note_on_c, 3, 67, 0
4, 46464, Note_on_c, 3, 62, 45
4, 46496, Note_on_c, 3, 62, 0
4, 46560, Note_on_c, 3, 62, 45
4, 46608, Note_on_c, 3, 62, 0
4, 46608, Note_on_c, 3, 59, 45
4, 46656, Note_on_c, 3, 59, 0
4, 46656, Note_on_c, 3, 67, 45
4, 47040, Note_on_c, 3, 67, 0
4, 47040, Note_on_c, 3, 66, 45
4, 47200, Note_on_c, 3, 66, 0
4, 48192, Note_on_c, 3, 69, 45
4, 48224, Note_on_c, 3, 69, 0
4, 48288, Note_on_c, 3, 69, 56
4, 48336, Note_on_c, 3, 69, 0
4, 48336, Note_on_c, 3, 66, 62
4, 48384, Note_on_c, 3, 66, 0
4, 48384, Note_on_c, 3, 72, 68
4, 48576, Note_on_c, 3, 72, 0
4, 48576, Note_on_c, 3, 71, 92
4, 48736, Note_on_c, 3, 71, 0
4, 49728, Note_on_c, 3, 52, 127
4, 50256, Note_on_c, 3, 52, 0
4, 50304, Note_on_c, 3, 53, 45
4, 50352, Note_on_c, 3, 53, 0
4, 50496, Note_on_c, 3, 53, 45
4, 50544, Note_on_c, 3, 53, 0
4, 50688, Note_on_c, 3, 53, 45
4, 50736, Note_on_c, 3, 53, 0
4, 50880, Note_on_c, 3, 48, 45
4, 51040, Note_on_c, 3, 48, 0
4, 51072, Note_on_c, 3, 60, 45
4, 51232, Note_on_c, 3, 60, 0
4, 51264, Note_on_c, 3, 60, 45
4, 51424, Note_on_c, 3, 60, 0
4, 51456, Note_on_c, 3, 60, 45
4, 51616, Note_on_c, 3, 60, 0
4, 52032, Note_on_c, 3, 48, 127
4, 52560, Note_on_c, 3, 48, 0
4, 52608, Note_on_c, 3, 50, 45
4, 52768, Note_on_c, 3, 50, 0
4, 52800, Note_on_c, 3, 50, 45
4, 52960, Note_on_c, 3, 50, 0
4, 52992, Note_on_c, 3, 50, 45
4, 53152, Note_on_c, 3, 50, 0
4, 53184, Note_on_c, 3, 54, 45
4, 53344, Note_on_c, 3, 54, 0
4, 53376, Note_on_c, 3, 54, 45
4, 53536, Note_on_c, 3, 54, 0
4, 53568, Note_on_c, 3, 54, 45
4, 53728, Note_on_c, 3, 54, 0
4, 53760, Note_on_c, 3, 55, 45
4, 53920, Note_on_c, 3, 55, 0
4, 54336, Note_on_c, 3, 52, 127
4, 54864, Note_on_c, 3, 52, 0
4, 54912, Note_on_c, 3, 53, 45
4, 54960, Note_on_c, 3, 53, 0
4, 55104, Note_on_c, 3, 53, 45
4, 55152, Note_on_c, 3, 53, 0
4, 55296, Note_on_c, 3, 53, 45
4, 55344, Note_on_c, 3, 53, 0
4, 55488, Note_on_c, 3, 48, 45
4, 55648, Note_on_c, 3, 48, 0
4, 55680, Note_on_c, 3, 60, 45
4, 55840, Note_on_c, 3, 60, 0
4, 55872, Note_on_c, 3, 60, 45
4, 56032, Note_on_c, 3, 60, 0
4, 56064, Note_on_c, 3, 60, 45
4, 56224, Note_on_c, 3, 60, 0
4, 56640, Note_on_c, 3, 48, 127
4, 57168, Note_on_c, 3, 48, 0
4, 57216, Note_on_c, 3, 50, 45
4, 57376, Note_on_c, 3, 50, 0
4, 57408, Note_on_c, 3, 50, 45
4, 57568, Note_on_c, 3, 50, 0
4, 57600, Note_on_c, 3, 50, 45
4, 57760, Note_on_c, 3, 50, 0
4, 57792, Note_on_c, 3, 54, 45
4, 57952, Note_on_c, 3, 54, 0
4, 57984, Note_on_c, 3, 54, 45
4, 58144, Note_on_c, 3, 54, 0
4, 58176, Note_on_c, 3, 54, 45
4, 58336, Note_on_c, 3, 54, 0
4, 58368, Note_on_c, 3, 55, 45
4, 58528, Note_on_c, 3, 55, 0
4, 59520, Note_on_c, 3, 62, 45
4, 59712, Note_on_c, 3, 62, 0
4, 59712, Note_on_c, 3, 67, 45
4, 59904, Note_on_c, 3, 67, 0
4, 59904, Note_on_c, 3, 65, 45
4, 60064, Note_on_c, 3, 65, 0
4, 60096, Note_on_c, 3, 64, 45
4, 60190, Note_on_c, 3, 64, 0
4, 60288, Note_on_c, 3, 64, 45
4, 60382, Note_on_c, 3, 64, 0
4, 60480, Note_on_c, 3, 67, 45
4, 60574, Note_on_c, 3, 67, 0
4, 60672, Note_on_c, 3, 67, 60
4, 60832, Note_on_c, 3, 67, 0
4, 62016, Note_on_c, 3, 50, 77
4, 62208, Note_on_c, 3, 50, 0
4, 62208, Note_on_c, 3, 53, 61
4, 62400, Note_on_c, 3, 53, 0
4, 62400, Note_on_c, 3, 52, 45
4, 62494, Note_on_c, 3, 52, 0
4, 62592, Note_on_c, 3, 64, 45
4, 62686, Note_on_c, 3, 64, 0
4, 62784, Note_on_c, 3, 60, 45
4, 62878, Note_on_c, 3, 60, 0
4, 62976, Note_on_c, 3, 59, 45
4, 63024, Note_on_c, 3, 59, 0
4, 63360, Note_on_c, 3, 60, 45
4, 63552, Note_on_c, 3, 60, 0
4, 63552, Note_on_c, 3, 59, 45
4, 63600, Note_on_c, 3, 59, 0
4, 63936, Note_on_c, 3, 60, 45
4, 64128, Note_on_c, 3, 60, 0
4, 64128, Note_on_c, 3, 59, 45
4, 64176, Note_on_c, 3, 59, 0
4, 65280, Note_on_c, 3, 60, 30
4, 65376, Note_on_c, 3, 60, 0
4, 65376, Note_on_c, 3, 55, 30
4, 65472, Note_on_c, 3, 55, 0
4, 65472, Note_on_c, 3, 60, 30
4, 65568, Note_on_c, 3, 60, 0
4, 65568, Note_on_c, 3, 55, 30
4, 65664, Note_on_c, 3, 55, 0
4, 65664, Note_on_c, 3, 60, 30
4, 65760, Note_on_c, 3, 60, 0
4, 65760, Note_on_c, 3, 55, 30
4, 65854, Note_on_c, 3, 55, 0
4, 65952, Note_on_c, 3, 55, 30
4, 66048, Note_on_c, 3, 55, 0
4, 66048, Note_on_c, 3, 59, 30
4, 66144, Note_on_c, 3, 59, 0
4, 66144, Note_on_c, 3, 55, 30
4, 66240, Note_on_c, 3, 55, 0
4, 66240, Note_on_c, 3, 59, 30
4, 66336, Note_on_c, 3, 59, 0
4, 66336, Note_on_c, 3, 55, 30
4, 66430, Note_on_c, 3, 55, 0
4, 66432, Note_on_c, 3, 60, 30
4, 66528, Note_on_c, 3, 60, 0
4, 66528, Note_on_c, 3, 55, 32
4, 66624, Note_on_c, 3, 55, 0
4, 66624, Note_on_c, 3, 60, 34
4, 66720, Note_on_c, 3, 60, 0
4, 66720, Note_on_c, 3, 55, 36
4, 66816, Note_on_c, 3, 55, 0
4, 66816, Note_on_c, 3, 60, 38
4, 66912, Note_on_c, 3, 60, 0
4, 66912, Note_on_c, 3, 55, 40
4, 67006, Note_on_c, 3, 55, 0
4, 67008, Note_on_c, 3, 60, 42
4, 67104, Note_on_c, 3, 60, 0
4, 67104, Note_on_c, 3, 57, 45
4, 67200, Note_on_c, 3, 57, 0
4, 67200, Note_on_c, 3, 60, 48
4, 67296, Note_on_c, 3, 60, 0
4, 67296, Note_on_c, 3, 57, 51
4, 67392, Note_on_c, 3, 57, 0
4, 67392, Note_on_c, 3, 60, 54
4, 67488, Note_on_c, 3, 60, 0
4, 67488, Note_on_c, 3, 57, 57
4, 67582, Note_on_c, 3, 57, 0
4, 67584, Note_on_c, 3, 62, 60
4, 67680, Note_on_c, 3, 62, 0
4, 67680, Note_on_c, 3, 55, 45
4, 67776, Note_on_c, 3, 55, 0
4, 67776, Note_on_c, 3, 62, 45
4, 67872, Note_on_c, 3, 62, 0
4, 67872, Note_on_c, 3, 55, 45
4, 67968, Note_on_c, 3, 55, 0
4, 67968, Note_on_c, 3, 62, 45
4, 68064, Note_on_c, 3, 62, 0
4, 68064, Note_on_c, 3, 55, 45
4, 68158, Note_on_c, 3, 55, 0
4, 68160, Note_on_c, 3, 60, 45
4, 68256, Note_on_c, 3, 60, 0
4, 68256, Note_on_c, 3, 55, 45
4, 68352, Note_on_c, 3, 55, 0
4, 68352, Note_on_c, 3, 60, 60
4, 68448, Note_on_c, 3, 60, 0
4, 68448, Note_on_c, 3, 55, 45
4, 68544, Note_on_c, 3, 55, 0
4, 68544, Note_on_c, 3, 60, 45
4, 68640, Note_on_c, 3, 60, 0
4, 68640, Note_on_c, 3, 55, 45
4, 68734, Note_on_c, 3, 55, 0
4, 68736, Note_on_c, 3, 59, 45
4, 68832, Note_on_c, 3, 59, 0
4, 68832, Note_on_c, 3, 55, 45
4, 68928, Note_on_c, 3, 55, 0
4, 68928, Note_on_c, 3, 59, 45
4, 69024, Note_on_c, 3, 59, 0
4, 69024, Note_on_c, 3, 55, 45
4, 69120, Note_on_c, 3, 55, 0
4, 69120, Note_on_c, 3, 53, 45
4, 69216, Note_on_c, 3, 53, 0
4, 69216, Note_on_c, 3, 55, 45
4, 69310, Note_on_c, 3, 55, 0
4, 69312, Note_on_c, 3, 52, 45
4, 69472, Note_on_c, 3, 52, 0
4, 69888, Note_on_c, 3, 62, 30
4, 70048, Note_on_c, 3, 62, 0
4, 70080, Note_on_c, 3, 62, 30
4, 70240, Note_on_c, 3, 62, 0
4, 70272, Note_on_c, 3, 62, 30
4, 70304, Note_on_c, 3, 62, 0
4, 70304, Note_on_c, 3, 64, 30
4, 70336, Note_on_c, 3, 64, 0
4, 70336, Note_on_c, 3, 62, 30
4, 70368, Note_on_c, 3, 62, 0
4, 70368, Note_on_c, 3, 60, 30
4, 70416, Note_on_c, 3, 60, 0
4, 70416, Note_on_c, 3, 62, 30
4, 70462, Note_on_c, 3, 62, 0
4, 70464, Note_on_c, 3, 60, 30
4, 70624, Note_on_c, 3, 60, 0
4, 71040, Note_on_c, 3, 55, 30
4, 71200, Note_on_c, 3, 55, 0
4, 71232, Note_on_c, 3, 55, 30
4, 71392, Note_on_c, 3, 55, 0
4, 71424, Note_on_c, 3, 55, 30
4, 71584, Note_on_c, 3, 55, 0
4, 71616, Note_on_c, 3, 48, 30
4, 71776, Note_on_c, 3, 48, 0
4, 72000, Note_on_c, 3, 60, 30
4, 72000, Note_on_c, 3, 62, 30
4, 72192, Note_on_c, 3, 60, 0
4, 72192, Note_on_c, 3, 62, 0
4, 72192, Note_on_c, 3, 60, 31
4, 72192, Note_on_c, 3, 64, 31
4, 72352, Note_on_c, 3, 60, 0
4, 72352, Note_on_c, 3, 64, 0
4, 72576, Note_on_c, 3, 65, 33
4, 72768, Note_on_c, 3, 65, 0
4, 72768, Note_on_c, 3, 64, 34
4, 72928, Note_on_c, 3, 64, 0
4, 73152, Note_on_c, 3, 60, 37
4, 73344, Note_on_c, 3, 60, 0
4, 73344, Note_on_c, 3, 64, 39
4, 73504, Note_on_c, 3, 64, 0
4, 73728, Note_on_c, 3, 55, 43
4, 74080, Note_on_c, 3, 55, 0
4, 74112, Note_on_c, 3, 52, 45
4, 74272, Note_on_c, 3, 52, 0
4, 74304, Note_on_c, 3, 52, 45
4, 74464, Note_on_c, 3, 52, 0
4, 74496, Note_on_c, 3, 52, 45
4, 74656, Note_on_c, 3, 52, 0
4, 75648, Note_on_c, 3, 62, 45
4, 75840, Note_on_c, 3, 62, 0
4, 75840, Note_on_c, 3, 67, 45
4, 76032, Note_on_c, 3, 67, 0
4, 76032, Note_on_c, 3, 65, 45
4, 76192, Note_on_c, 3, 65, 0
4, 76224, Note_on_c, 3, 64, 45
4, 76318, Note_on_c, 3, 64, 0
4, 76416, Note_on_c, 3, 64, 45
4, 76510, Note_on_c, 3, 64, 0
4, 76608, Note_on_c, 3, 67, 45
4, 76702, Note_on_c, 3, 67, 0
4, 76800, Note_on_c, 3, 67, 60
4, 76960, Note_on_c, 3, 67, 0
4, 78144, Note_on_c, 3, 50, 77
4, 78336, Note_on_c, 3, 50, 0
4, 78336, Note_on_c, 3, 53, 61
4, 78528, Note_on_c, 3, 53, 0
4, 78528, Note_on_c, 3, 52, 45
4, 78622, Note_on_c, 3, 52, 0
4, 78720, Note_on_c, 3, 64, 45
4, 78814, Note_on_c, 3, 64, 0
4, 78912, Note_on_c, 3, 60, 45
4, 79006, Note_on_c, 3, 60, 0
4, 79104, Note_on_c, 3, 59, 45
4, 79152, Note_on_c, 3, 59, 0
4, 79488, Note_on_c, 3, 60, 45
4, 79680, Note_on_c, 3, 60, 0
4, 79680, Note_on_c, 3, 59, 45
4, 79728, Note_on_c, 3, 59, 0
4, 80064, Note_on_c, 3, 60, 45
4, 80256, Note_on_c, 3, 60, 0
4, 80256, Note_on_c, 3, 59, 45
4, 80304, Note_on_c, 3, 59, 0
4, 81408, Note_on_c, 3, 60, 30
4, 81504, Note_on_c, 3, 60, 0
4, 81504, Note_on_c, 3, 55, 30
4, 81600, Note_on_c, 3, 55, 0
4, 81600, Note_on_c, 3, 60, 30
4, 81696, Note_on_c, 3, 60, 0
4, 81696, Note_on_c, 3, 55, 30
4, 81792, Note_on_c, 3, 55, 0
4, 81792, Note_on_c, 3, 60, 30
4, 81888, Note_on_c, 3, 60, 0
4, 81888, Note_on_c, 3, 55, 30
4, 81982, Note_on_c, 3, 55, 0
4, 82080, Note_on_c, 3, 55, 30
4, 82176, Note_on_c, 3, 55, 0
4, 82176, Note_on_c, 3, 59, 30
4, 82272, Note_on_c, 3, 59, 0
4, 82272, Note_on_c, 3, 55, 30
4, 82368, Note_on_c, 3, 55, 0
4, 82368, Note_on_c, 3, 59, 30
4, 82464, Note_on_c, 3, 59, 0
4, 82464, Note_on_c, 3, 55, 30
4, 82558, Note_on_c, 3, 55, 0
4, 82560, Note_on_c, 3, 60, 30
4, 82656, Note_on_c, 3, 60, 0
4, 82656, Note_on_c, 3, 55, 32
4, 82752, Note_on_c, 3, 55, 0
4, 82752, Note_on_c, 3, 60, 34
4, 82848, Note_on_c, 3, 60, 0
4, 82848, Note_on_c, 3, 55, 36
4, 82944, Note_on_c, 3, 55, 0
4, 82944, Note_on_c, 3, 60, 38
4, 83040, Note_on_c, 3, 60, 0
4, 83040, Note_on_c, 3, 55, 40
4, 83134, Note_on_c, 3, 55, 0
4, 83136, Note_on_c, 3, 60, 42
4, 83232, Note_on_c, 3, 60, 0
4, 83232, Note_on_c, 3, 57, 45
4, 83328, Note_on_c, 3, 57, 0
4, 83328, Note_on_c, 3, 60, 48
4, 83424, Note_on_c, 3, 60, 0
4, 83424, Note_on_c, 3, 57, 51
4, 83520, Note_on_c, 3, 57, 0
4, 83520, Note_on_c, 3, 60, 54
4, 83616, Note_on_c, 3, 60, 0
4, 83616, Note_on_c, 3, 57, 57
4, 83710, Note_on_c, 3, 57, 0
4, 83712, Note_on_c, 3, 62, 60
4, 83808, Note_on_c, 3, 62, 0
4, 83808, Note_on_c, 3, 55, 45
4, 83904, Note_on_c, 3, 55, 0
4, 83904, Note_on_c, 3, 62, 45
4, 84000, Note_on_c, 3, 62, 0
4, 84000, Note_on_c, 3, 55, 45
4, 84096, Note_on_c, 3, 55, 0
4, 84096, Note_on_c, 3, 62, 45
4, 84192, Note_on_c, 3, 62, 0
4, 84192, Note_on_c, 3, 55, 45
4, 84286, Note_on_c, 3, 55, 0
4, 84288, Note_on_c, 3, 60, 45
4, 84384, Note_on_c, 3, 60, 0
4, 84384, Note_on_c, 3, 55, 45
4, 84480, Note_on_c, 3, 55, 0
4, 84480, Note_on_c, 3, 60, 60
4, 84576, Note_on_c, 3, 60, 0
4, 84576, Note_on_c, 3, 55, 45
4, 84672, Note_on_c, 3, 55, 0
4, 84672, Note_on_c, 3, 60, 45
4, 84768, Note_on_c, 3, 60, 0
4, 84768, Note_on_c, 3, 55, 45
4, 84862, Note_on_c, 3, 55, 0
4, 84864, Note_on_c, 3, 59, 45
4, 84960, Note_on_c, 3, 59, 0
4, 84960, Note_on_c, 3, 55, 45
4, 85056, Note_on_c, 3, 55, 0
4, 85056, Note_on_c, 3, 59, 45
4, 85152, Note_on_c, 3, 59, 0
4, 85152, Note_on_c, 3, 55, 45
4, 85248, Note_on_c, 3, 55, 0
4, 85248, Note_on_c, 3, 53, 45
4, 85344, Note_on_c, 3, 53, 0
4, 85344, Note_on_c, 3, 55, 45
4, 85438, Note_on_c, 3, 55, 0
4, 85440, Note_on_c, 3, 52, 45
4, 85600, Note_on_c, 3, 52, 0
4, 86016, Note_on_c, 3, 62, 30
4, 86176, Note_on_c, 3, 62, 0
4, 86208, Note_on_c, 3, 62, 30
4, 86368, Note_on_c, 3, 62, 0
4, 86400, Note_on_c, 3, 62, 30
4, 86432, Note_on_c, 3, 62, 0
4, 86432, Note_on_c, 3, 64, 30
4, 86464, Note_on_c, 3, 64, 0
4, 86464, Note_on_c, 3, 62, 30
4, 86496, Note_on_c, 3, 62, 0
4, 86496, Note_on_c, 3, 60, 30
4, 86544, Note_on_c, 3, 60, 0
4, 86544, Note_on_c, 3, 62, 30
4, 86590, Note_on_c, 3, 62, 0
4, 86592, Note_on_c, 3, 60, 30
4, 86752, Note_on_c, 3, 60, 0
4, 87168, Note_on_c, 3, 55, 30
4, 87328, Note_on_c, 3, 55, 0
4, 87360, Note_on_c, 3, 55, 30
4, 87520, Note_on_c, 3, 55, 0
4, 87552, Note_on_c, 3, 55, 30
4, 87712, Note_on_c, 3, 55, 0
4, 87744, Note_on_c, 3, 48, 30
4, 87904, Note_on_c, 3, 48, 0
4, 88128, Note_on_c, 3, 60, 30
4, 88128, Note_on_c, 3, 62, 30
4, 88320, Note_on_c, 3, 60, 0
4, 88320, Note_on_c, 3, 62, 0
4, 88320, Note_on_c, 3, 60, 31
4, 88320, Note_on_c, 3, 64, 31
4, 88480, Note_on_c, 3, 60, 0
4, 88480, Note_on_c, 3, 64, 0
4, 88704, Note_on_c, 3, 65, 33
4, 88896, Note_on_c, 3, 65, 0
4, 88896, Note_on_c, 3, 64, 34
4, 89056, Note_on_c, 3, 64, 0
4, 89280, Note_on_c, 3, 60, 37
4, 89472, Note_on_c, 3, 60, 0
4, 89472, Note_on_c, 3, 64, 39
4, 89632, Note_on_c, 3, 64, 0
4, 89856, Note_on_c, 3, 55, 43
4, 90208, Note_on_c, 3, 55, 0
4, 90240, Note_on_c, 3, 52, 45
4, 90400, Note_on_c, 3, 52, 0
4, 90432, Note_on_c, 3, 52, 45
4, 90592, Note_on_c, 3, 52, 0
4, 90624, Note_on_c, 3, 52, 45
4, 90784, Note_on_c, 3, 52, 0
4, 91200, Note_on_c, 3, 48, 45
4, 92352, Note_on_c, 3, 60, 30
4, 92928, Note_on_c, 3, 60, 0
4, 92928, Note_on_c, 3, 59, 30
4, 93456, Note_on_c, 3, 59, 0
4, 93504, Note_on_c, 3, 57, 30
4, 94080, Note_on_c, 3, 57, 0
4, 94080, Note_on_c, 3, 55, 30
4, 94608, Note_on_c, 3, 48, 0
4, 94608, Note_on_c, 3, 55, 0
4, 94656, Note_on_c, 3, 54, 30
4, 94816, Note_on_c, 3, 54, 0
4, 96000, Note_on_c, 3, 59, 45
4, 96048, Note_on_c, 3, 59, 0
4, 96576, Note_on_c, 3, 62, 45
4, 96624, Note_on_c, 3, 62, 0
4, 97152, Note_on_c, 3, 62, 45
4, 97200, Note_on_c, 3, 62, 0
4, 97344, Note_on_c, 3, 62, 45
4, 97392, Note_on_c, 3, 62, 0
4, 97536, Note_on_c, 3, 62, 45
4, 97584, Note_on_c, 3, 62, 0
4, 97728, Note_on_c, 3, 62, 45
4, 97776, Note_on_c, 3, 62, 0
4, 98304, Note_on_c, 3, 60, 45
4, 98352, Note_on_c, 3, 60, 0
4, 98880, Note_on_c, 3, 62, 45
4, 98928, Note_on_c, 3, 62, 0
4, 99072, Note_on_c, 3, 62, 45
4, 99120, Note_on_c, 3, 62, 0
4, 99456, Note_on_c, 3, 60, 45
4, 99504, Note_on_c, 3, 60, 0
4, 99648, Note_on_c, 3, 57, 45
4, 99696, Note_on_c, 3, 57, 0
4, 99840, Note_on_c, 3, 55, 60
4, 99888, Note_on_c, 3, 55, 0
4, 100416, Note_on_c, 3, 63, 127
4, 100672, Note_on_c, 3, 63, 0
4, 100704, Note_on_c, 3, 63, 45
4, 100736, Note_on_c, 3, 63, 0
4, 100800, Note_on_c, 3, 63, 45
4, 100832, Note_on_c, 3, 63, 0
4, 100896, Note_on_c, 3, 63, 45
4, 100928, Note_on_c, 3, 63, 0
4, 100992, Note_on_c, 3, 64, 45
4, 101024, Note_on_c, 3, 64, 0
4, 101088, Note_on_c, 3, 64, 45
4, 101120, Note_on_c, 3, 64, 0
4, 101184, Note_on_c, 3, 64, 45
4, 101216, Note_on_c, 3, 64, 0
4, 101280, Note_on_c, 3, 64, 45
4, 101312, Note_on_c, 3, 64, 0
4, 101376, Note_on_c, 3, 64, 45
4, 101408, Note_on_c, 3, 64, 0
4, 101472, Note_on_c, 3, 64, 45
4, 101504, Note_on_c, 3, 64, 0
4, 101568, Note_on_c, 3, 63, 45
4, 101728, Note_on_c, 3, 63, 0
4, 101760, Note_on_c, 3, 63, 45
4, 101920, Note_on_c, 3, 63, 0
4, 101952, Note_on_c, 3, 66, 45
4, 102112, Note_on_c, 3, 66, 0
4, 102144, Note_on_c, 3, 66, 45
4, 102304, Note_on_c, 3, 66, 0
4, 102720, Note_on_c, 3, 55, 108
4, 103056, Note_on_c, 3, 55, 0
4, 103104, Note_on_c, 3, 65, 92
4, 103136, Note_on_c, 3, 65, 0
4, 103200, Note_on_c, 3, 64, 92
4, 103232, Note_on_c, 3, 64, 0
4, 103296, Note_on_c, 3, 62, 92
4, 103328, Note_on_c, 3, 62, 0
4, 103392, Note_on_c, 3, 60, 92
4, 103424, Note_on_c, 3, 60, 0
4, 103488, Note_on_c, 3, 59, 92
4, 103520, Note_on_c, 3, 59, 0
4, 103584, Note_on_c, 3, 57, 92
4, 103616, Note_on_c, 3, 57, 0
4, 103680, Note_on_c, 3, 55, 92
4, 103712, Note_on_c, 3, 55, 0
4, 103776, Note_on_c, 3, 55, 92
4, 103808, Note_on_c, 3, 55, 0
4, 103872, Note_on_c, 3, 55, 92
4, 103966, Note_on_c, 3, 55, 0
4, 103968, Note_on_c, 3, 57, 89
4, 104062, Note_on_c, 3, 57, 0
4, 104064, Note_on_c, 3, 55, 86
4, 104158, Note_on_c, 3, 55, 0
4, 104160, Note_on_c, 3, 57, 83
4, 104254, Note_on_c, 3, 57, 0
4, 104256, Note_on_c, 3, 55, 80
4, 104350, Note_on_c, 3, 55, 0
4, 104352, Note_on_c, 3, 64, 77
4, 104446, Note_on_c, 3, 64, 0
4, 104448, Note_on_c, 3, 67, 73
4, 104640, Note_on_c, 3, 67, 0
4, 104640, Note_on_c, 3, 66, 65
4, 104734, Note_on_c, 3, 66, 0
4, 105120, Note_on_c, 3, 59, 45
4, 105168, Note_on_c, 3, 59, 0
4, 105168, Note_on_c, 3, 62, 45
4, 105216, Note_on_c, 3, 62, 0
4, 105216, Note_on_c, 3, 67, 45
4, 105248, Note_on_c, 3, 67, 0
4, 105696, Note_on_c, 3, 62, 45
4, 105744, Note_on_c, 3, 62, 0
4, 105744, Note_on_c, 3, 59, 45
4, 105792, Note_on_c, 3, 59, 0
4, 105792, Note_on_c, 3, 55, 45
4, 105824, Note_on_c, 3, 55, 0
4, 106368, Note_on_c, 3, 50, 45
4, 106416, Note_on_c, 3, 50, 0
4, 106560, Note_on_c, 3, 50, 45
4, 106608, Note_on_c, 3, 50, 0
4, 106752, Note_on_c, 3, 50, 45
4, 106800, Note_on_c, 3, 50, 0
4, 106944, Note_on_c, 3, 50, 45
4, 106992, Note_on_c, 3, 50, 0
4, 107136, Note_on_c, 3, 69, 45
4, 107168, Note_on_c, 3, 69, 0
4, 107232, Note_on_c, 3, 69, 45
4, 107280, Note_on_c, 3, 69, 0
4, 107280, Note_on_c, 3, 66, 45
4, 107328, Note_on_c, 3, 66, 0
4, 107328, Note_on_c, 3, 72, 45
4, 107376, Note_on_c, 3, 72, 0
4, 107712, Note_on_c, 3, 69, 45
4, 107744, Note_on_c, 3, 69, 0
4, 107808, Note_on_c, 3, 69, 45
4, 107856, Note_on_c, 3, 69, 0
4, 107856, Note_on_c, 3, 66, 45
4, 107904, Note_on_c, 3, 66, 0
4, 107904, Note_on_c, 3, 63, 45
4, 107952, Note_on_c, 3, 63, 0
4, 108288, Note_on_c, 3, 66, 45
4, 108320, Note_on_c, 3, 66, 0
4, 108384, Note_on_c, 3, 66, 45
4, 108432, Note_on_c, 3, 66, 0
4, 108432, Note_on_c, 3, 63, 45
4, 108480, Note_on_c, 3, 63, 0
4, 108480, Note_on_c, 3, 59, 45
4, 108512, Note_on_c, 3, 59, 0
4, 109728, Note_on_c, 3, 64, 45
4, 109760, Note_on_c, 3, 64, 0
4, 109824, Note_on_c, 3, 65, 50
4, 109856, Note_on_c, 3, 65, 0
4, 109920, Note_on_c, 3, 64, 55
4, 109952, Note_on_c, 3, 64, 0
4, 110016, Note_on_c, 3, 65, 60
4, 110048, Note_on_c, 3, 65, 0
4, 110112, Note_on_c, 3, 64, 66
4, 110144, Note_on_c, 3, 64, 0
4, 110208, Note_on_c, 3, 62, 72
4, 110302, Note_on_c, 3, 62, 0
4, 110304, Note_on_c, 3, 60, 78
4, 110398, Note_on_c, 3, 60, 0
4, 110400, Note_on_c, 3, 59, 84
4, 110494, Note_on_c, 3, 59, 0
4, 110496, Note_on_c, 3, 57, 90
4, 110590, Note_on_c, 3, 57, 0
4, 110592, Note_on_c, 3, 55, 96
4, 110686, Note_on_c, 3, 55, 0
4, 110688, Note_on_c, 3, 53, 102
4, 110782, Note_on_c, 3, 53, 0
4, 110784, Note_on_c, 3, 52, 108
4, 110816, Note_on_c, 3, 52, 0
4, 110880, Note_on_c, 3, 48, 108
4, 110928, Note_on_c, 3, 48, 0
4, 110928, Note_on_c, 3, 52, 108
4, 110976, Note_on_c, 3, 52, 0
4, 110976, Note_on_c, 3, 55, 108
4, 111024, Note_on_c, 3, 55, 0
4, 111456, Note_on_c, 3, 48, 108
4, 111504, Note_on_c, 3, 48, 0
4, 111504, Note_on_c, 3, 52, 108
4, 111552, Note_on_c, 3, 52, 0
4, 111552, Note_on_c, 3, 57, 108
4, 111600, Note_on_c, 3, 57, 0
4, 111936, Note_on_c, 3, 50, 45
4, 111968, Note_on_c, 3, 50, 0
4, 112032, Note_on_c, 3, 55, 45
4, 112080, Note_on_c, 3, 55, 0
4, 112080, Note_on_c, 3, 59, 45
4, 112126, Note_on_c, 3, 59, 0
4, 112128, Note_on_c, 3, 62, 45
4, 112288, Note_on_c, 3, 62, 0
4, 112320, Note_on_c, 3, 62, 45
4, 112480, Note_on_c, 3, 62, 0
4, 112512, Note_on_c, 3, 62, 45
4, 112672, Note_on_c, 3, 62, 0
4, 112800, Note_on_c, 3, 58, 45
4, 112894, Note_on_c, 3, 58, 0
4, 112896, Note_on_c, 3, 59, 45
4, 112990, Note_on_c, 3, 59, 0
4, 112992, Note_on_c, 3, 59, 45
4, 113086, Note_on_c, 3, 59, 0
4, 113088, Note_on_c, 3, 60, 45
4, 113248, Note_on_c, 3, 60, 0
4, 113376, Note_on_c, 3, 59, 45
4, 113470, Note_on_c, 3, 59, 0
4, 113472, Note_on_c, 3, 60, 45
4, 113566, Note_on_c, 3, 60, 0
4, 113568, Note_on_c, 3, 60, 45
4, 113662, Note_on_c, 3, 60, 0
4, 113664, Note_on_c, 3, 59, 45
4, 113824, Note_on_c, 3, 59, 0
4, 113952, Note_on_c, 3, 58, 45
4, 114046, Note_on_c, 3, 58, 0
4, 114048, Note_on_c, 3, 59, 45
4, 114142, Note_on_c, 3, 59, 0
4, 114144, Note_on_c, 3, 65, 45
4, 114238, Note_on_c, 3, 65, 0
4, 114240, Note_on_c, 3, 64, 45
4, 114334, Note_on_c, 3, 64, 0
4, 114336, Note_on_c, 3, 64, 45
4, 114430, Note_on_c, 3, 64, 0
4, 114432, Note_on_c, 3, 62, 45
4, 114526, Note_on_c, 3, 62, 0
4, 114528, Note_on_c, 3, 60, 45
4, 114622, Note_on_c, 3, 60, 0
4, 114624, Note_on_c, 3, 64, 45
4, 114718, Note_on_c, 3, 64, 0
4, 114720, Note_on_c, 3, 60, 45
4, 114814, Note_on_c, 3, 60, 0
4, 114816, Note_on_c, 3, 59, 45
4, 114976, Note_on_c, 3, 59, 0
4, 115296, Note_on_c, 3, 62, 45
4, 115328, Note_on_c, 3, 62, 0
4, 115392, Note_on_c, 3, 54, 45
4, 115552, Note_on_c, 3, 54, 0
4, 115872, Note_on_c, 3, 62, 45
4, 115904, Note_on_c, 3, 62, 0
4, 115968, Note_on_c, 3, 55, 45
4, 116128, Note_on_c, 3, 55, 0
4, 116256, Note_on_c, 3, 55, 45
4, 116350, Note_on_c, 3, 55, 0
4, 116352, Note_on_c, 3, 55, 50
4, 116446, Note_on_c, 3, 55, 0
4, 116448, Note_on_c, 3, 64, 55
4, 116542, Note_on_c, 3, 64, 0
4, 116544, Note_on_c, 3, 62, 60
4, 116638, Note_on_c, 3, 62, 0
4, 116640, Note_on_c, 3, 66, 65
4, 116734, Note_on_c, 3, 66, 0
4, 116832, Note_on_c, 3, 67, 75
4, 116926, Note_on_c, 3, 67, 0
4, 116928, Note_on_c, 3, 67, 80
4, 117022, Note_on_c, 3, 67, 0
4, 117024, Note_on_c, 3, 69, 86
4, 117118, Note_on_c, 3, 69, 0
4, 117120, Note_on_c, 3, 67, 45
4, 117280, Note_on_c, 3, 67, 0
4, 117312, Note_on_c, 3, 62, 45
4, 117344, Note_on_c, 3, 62, 0
4, 117408, Note_on_c, 3, 62, 45
4, 117456, Note_on_c, 3, 62, 0
4, 117456, Note_on_c, 3, 59, 45
4, 117504, Note_on_c, 3, 59, 0
4, 117504, Note_on_c, 3, 67, 45
4, 117888, Note_on_c, 3, 67, 0
4, 117888, Note_on_c, 3, 66, 45
4, 118048, Note_on_c, 3, 66, 0
4, 119040, Note_on_c, 3, 69, 45
4, 119072, Note_on_c, 3, 69, 0
4, 119136, Note_on_c, 3, 69, 56
4, 119184, Note_on_c, 3, 69, 0
4, 119184, Note_on_c, 3, 66, 62
4, 119232, Note_on_c, 3, 66, 0
4, 119232, Note_on_c, 3, 72, 68
4, 119424, Note_on_c, 3, 72, 0
4, 119424, Note_on_c, 3, 71, 92
4, 119584, Note_on_c, 3, 71, 0
4, 119584, End_track
5, 0, Start_track
5, 0, MIDI_port, 0
5, 0, Title_t, "Violoncello."
5, 0, Program_c, 4, 0
5, 0, Control_c, 4, 7, 127
5, 0, Control_c, 4, 10, 64
5, 384, Note_on_c, 4, 43, 45
5, 432, Note_on_c, 4, 43, 0
5, 960, Note_on_c, 4, 55, 45
5, 1008, Note_on_c, 4, 55, 0
5, 1536, Note_on_c, 4, 57, 45
5, 1584, Note_on_c, 4, 57, 0
5, 1728, Note_on_c, 4, 55, 45
5, 1776, Note_on_c, 4, 55, 0
5, 1920, Note_on_c, 4, 54, 45
5, 1968, Note_on_c, 4, 54, 0
5, 2112, Note_on_c, 4, 50, 45
5, 2160, Note_on_c, 4, 50, 0
5, 2688, Note_on_c, 4, 50, 45
5, 2736, Note_on_c, 4, 50, 0
5, 3264, Note_on_c, 4, 54, 45
5, 3312, Note_on_c, 4, 54, 0
5, 3456, Note_on_c, 4, 55, 45
5, 3504, Note_on_c, 4, 55, 0
5, 3840, Note_on_c, 4, 48, 45
5, 3888, Note_on_c, 4, 48, 0
5, 4032, Note_on_c, 4, 50, 45
5, 4080, Note_on_c, 4, 50, 0
5, 4416, Note_on_c, 4, 43, 45
5, 4464, Note_on_c, 4, 43, 0
5, 4992, Note_on_c, 4, 43, 45
5, 5040, Note_on_c, 4, 43, 0
5, 5568, Note_on_c, 4, 55, 45
5, 5616, Note_on_c, 4, 55, 0
5, 6144, Note_on_c, 4, 57, 45
5, 6192, Note_on_c, 4, 57, 0
5, 6336, Note_on_c, 4, 55, 45
5, 6384, Note_on_c, 4, 55, 0
5, 6528, Note_on_c, 4, 54, 45
5, 6576, Note_on_c, 4, 54, 0
5, 6720, Note_on_c, 4, 50, 45
5, 6768, Note_on_c, 4, 50, 0
5, 7296, Note_on_c, 4, 50, 45
5, 7344, Note_on_c, 4, 50, 0
5, 7872, Note_on_c, 4, 54, 45
5, 7920, Note_on_c, 4, 54, 0
5, 8064, Note_on_c, 4, 55, 45
5, 8112, Note_on_c, 4, 55, 0
5, 8448, Note_on_c, 4, 48, 45
5, 8496, Note_on_c, 4, 48, 0
5, 8640, Note_on_c, 4, 50, 45
5, 8688, Note_on_c, 4, 50, 0
5, 9024, Note_on_c, 4, 43, 45
5, 9072, Note_on_c, 4, 43, 0
5, 9408, Note_on_c, 4, 47, 127
5, 9664, Note_on_c, 4, 47, 0
5, 9696, Note_on_c, 4, 59, 45
5, 9728, Note_on_c, 4, 59, 0
5, 9792, Note_on_c, 4, 59, 45
5, 9824, Note_on_c, 4, 59, 0
5, 9888, Note_on_c, 4, 59, 45
5, 9920, Note_on_c, 4, 59, 0
5, 9984, Note_on_c, 4, 59, 45
5, 10016, Note_on_c, 4, 59, 0
5, 10080, Note_on_c, 4, 59, 45
5, 10112, Note_on_c, 4, 59, 0
5, 10176, Note_on_c, 4, 59, 45
5, 10208, Note_on_c, 4, 59, 0
5, 10272, Note_on_c, 4, 59, 45
5, 10304, Note_on_c, 4, 59, 0
5, 10368, Note_on_c, 4, 59, 45
5, 10400, Note_on_c, 4, 59, 0
5, 10464, Note_on_c, 4, 59, 45
5, 10496, Note_on_c, 4, 59, 0
5, 10560, Note_on_c, 4, 59, 45
5, 10720, Note_on_c, 4, 59, 0
5, 10752, Note_on_c, 4, 59, 45
5, 10912, Note_on_c, 4, 59, 0
5, 10944, Note_on_c, 4, 59, 45
5, 11104, Note_on_c, 4, 59, 0
5, 11136, Note_on_c, 4, 59, 45
5, 11296, Note_on_c, 4, 59, 0
5, 11712, Note_on_c, 4, 43, 92
5, 12048, Note_on_c, 4, 43, 0
5, 12096, Note_on_c, 4, 62, 92
5, 12128, Note_on_c, 4, 62, 0
5, 12192, Note_on_c, 4, 60, 92
5, 12224, Note_on_c, 4, 60, 0
5, 12288, Note_on_c, 4, 59, 92
5, 12320, Note_on_c, 4, 59, 0
5, 12384, Note_on_c, 4, 57, 92
5, 12416, Note_on_c, 4, 57, 0
5, 12480, Note_on_c, 4, 55, 92
5, 12512, Note_on_c, 4, 55, 0
5, 12576, Note_on_c, 4, 53, 92
5, 12608, Note_on_c, 4, 53, 0
5, 12672, Note_on_c, 4, 52, 92
5, 12704, Note_on_c, 4, 52, 0
5, 12768, Note_on_c, 4, 50, 92
5, 12800, Note_on_c, 4, 50, 0
5, 12864, Note_on_c, 4, 48, 92
5, 12958, Note_on_c, 4, 48, 0
5, 12960, Note_on_c, 4, 47, 89
5, 13054, Note_on_c, 4, 47, 0
5, 13056, Note_on_c, 4, 48, 86
5, 13150, Note_on_c, 4, 48, 0
5, 13152, Note_on_c, 4, 47, 83
5, 13246, Note_on_c, 4, 47, 0
5, 13248, Note_on_c, 4, 48, 80
5, 13342, Note_on_c, 4, 48, 0
5, 13344, Note_on_c, 4, 45, 77
5, 13438, Note_on_c, 4, 45, 0
5, 13440, Note_on_c, 4, 50, 73
5, 13632, Note_on_c, 4, 50, 0
5, 13632, Note_on_c, 4, 38, 65
5, 13726, Note_on_c, 4, 38, 0
5, 14112, Note_on_c, 4, 47, 45
5, 14160, Note_on_c, 4, 47, 0
5, 14160, Note_on_c, 4, 50, 45
5, 14208, Note_on_c, 4, 50, 0
5, 14208, Note_on_c, 4, 55, 45
5, 14240, Note_on_c, 4, 55, 0
5, 14688, Note_on_c, 4, 50, 45
5, 14736, Note_on_c, 4, 50, 0
5, 14736, Note_on_c, 4, 47, 45
5, 14784, Note_on_c, 4, 47, 0
5, 14784, Note_on_c, 4, 43, 45
5, 14816, Note_on_c, 4, 43, 0
5, 15360, Note_on_c, 4, 45, 45
5, 15408, Note_on_c, 4, 45, 0
5, 15552, Note_on_c, 4, 43, 45
5, 15600, Note_on_c, 4, 43, 0
5, 15744, Note_on_c, 4, 42, 45
5, 15792, Note_on_c, 4, 42, 0
5, 15936, Note_on_c, 4, 38, 45
5, 15984, Note_on_c, 4, 38, 0
5, 16128, Note_on_c, 4, 57, 45
5, 16160, Note_on_c, 4, 57, 0
5, 16224, Note_on_c, 4, 57, 45
5, 16272, Note_on_c, 4, 57, 0
5, 16272, Note_on_c, 4, 54, 45
5, 16320, Note_on_c, 4, 54, 0
5, 16320, Note_on_c, 4, 60, 45
5, 16368, Note_on_c, 4, 60, 0
5, 16704, Note_on_c, 4, 57, 45
5, 16736, Note_on_c, 4, 57, 0
5, 16800, Note_on_c, 4, 57, 45
5, 16848, Note_on_c, 4, 57, 0
5, 16848, Note_on_c, 4, 54, 45
5, 16896, Note_on_c, 4, 54, 0
5, 16896, Note_on_c, 4, 51, 45
5, 16944, Note_on_c, 4, 51, 0
5, 17280, Note_on_c, 4, 54, 45
5, 17312, Note_on_c, 4, 54, 0
5, 17376, Note_on_c, 4, 54, 45
5, 17424, Note_on_c, 4, 54, 0
5, 17424, Note_on_c, 4, 51, 45
5, 17472, Note_on_c, 4, 51, 0
5, 17472, Note_on_c, 4, 47, 45
5, 17504, Note_on_c, 4, 47, 0
5, 17568, Note_on_c, 4, 54, 45
5, 17616, Note_on_c, 4, 54, 0
5, 17616, Note_on_c, 4, 51, 45
5, 17662, Note_on_c, 4, 51, 0
5, 17664, Note_on_c, 4, 47, 45
5, 17696, Note_on_c, 4, 47, 0
5, 17760, Note_on_c, 4, 54, 45
5, 17808, Note_on_c, 4, 54, 0
5, 17808, Note_on_c, 4, 51, 45
5, 17854, Note_on_c, 4, 51, 0
5, 17856, Note_on_c, 4, 47, 45
5, 17888, Note_on_c, 4, 47, 0
5, 17952, Note_on_c, 4, 54, 45
5, 18000, Note_on_c, 4, 54, 0
5, 18000, Note_on_c, 4, 51, 45
5, 18046, Note_on_c, 4, 51, 0
5, 18048, Note_on_c, 4, 47, 45
5, 18080, Note_on_c, 4, 47, 0
5, 18144, Note_on_c, 4, 55, 45
5, 18192, Note_on_c, 4, 55, 0
5, 18192, Note_on_c, 4, 52, 45
5, 18238, Note_on_c, 4, 52, 0
5, 18240, Note_on_c, 4, 47, 45
5, 18272, Note_on_c, 4, 47, 0
5, 18336, Note_on_c, 4, 55, 45
5, 18384, Note_on_c, 4, 55, 0
5, 18384, Note_on_c, 4, 52, 45
5, 18430, Note_on_c, 4, 52, 0
5, 18432, Note_on_c, 4, 47, 45
5, 18464, Note_on_c, 4, 47, 0
5, 18528, Note_on_c, 4, 55, 45
5, 18576, Note_on_c, 4, 55, 0
5, 18576, Note_on_c, 4, 52, 45
5, 18622, Note_on_c, 4, 52, 0
5, 18624, Note_on_c, 4, 47, 45
5, 18656, Note_on_c, 4, 47, 0
5, 18720, Note_on_c, 4, 49, 45
5, 18752, Note_on_c, 4, 49, 0
5, 18816, Note_on_c, 4, 50, 50
5, 18848, Note_on_c, 4, 50, 0
5, 18912, Note_on_c, 4, 49, 55
5, 18944, Note_on_c, 4, 49, 0
5, 19008, Note_on_c, 4, 50, 60
5, 19040, Note_on_c, 4, 50, 0
5, 19104, Note_on_c, 4, 49, 66
5, 19136, Note_on_c, 4, 49, 0
5, 19200, Note_on_c, 4, 47, 72
5, 19294, Note_on_c, 4, 47, 0
5, 19296, Note_on_c, 4, 45, 78
5, 19390, Note_on_c, 4, 45, 0
5, 19392, Note_on_c, 4, 43, 84
5, 19486, Note_on_c, 4, 43, 0
5, 19488, Note_on_c, 4, 41, 90
5, 19582, Note_on_c, 4, 41, 0
5, 19584, Note_on_c, 4, 40, 96
5, 19678, Note_on_c, 4, 40, 0
5, 19680, Note_on_c, 4, 38, 102
5, 19774, Note_on_c, 4, 38, 0
5, 19776, Note_on_c, 4, 36, 108
5, 19808, Note_on_c, 4, 36, 0
5, 19872, Note_on_c, 4, 36, 108
5, 19920, Note_on_c, 4, 36, 0
5, 19920, Note_on_c, 4, 40, 108
5, 19968, Note_on_c, 4, 40, 0
5, 19968, Note_on_c, 4, 43, 108
5, 20016, Note_on_c, 4, 43, 0
5, 20448, Note_on_c, 4, 36, 108
5, 20496, Note_on_c, 4, 36, 0
5, 20496, Note_on_c, 4, 40, 108
5, 20544, Note_on_c, 4, 40, 0
5, 20544, Note_on_c, 4, 45, 108
5, 20592, Note_on_c, 4, 45, 0
5, 20928, Note_on_c, 4, 38, 45
5, 20960, Note_on_c, 4, 38, 0
5, 21024, Note_on_c, 4, 43, 45
5, 21072, Note_on_c, 4, 43, 0
5, 21072, Note_on_c, 4, 47, 45
5, 21118, Note_on_c, 4, 47, 0
5, 21120, Note_on_c, 4, 50, 45
5, 21280, Note_on_c, 4, 50, 0
5, 21312, Note_on_c, 4, 50, 45
5, 21472, Note_on_c, 4, 50, 0
5, 21504, Note_on_c, 4, 43, 45
5, 21664, Note_on_c, 4, 43, 0
5, 21984, Note_on_c, 4, 50, 45
5, 22016, Note_on_c, 4, 50, 0
5, 22080, Note_on_c, 4, 42, 45
5, 22128, Note_on_c, 4, 42, 0
5, 22560, Note_on_c, 4, 50, 45
5, 22592, Note_on_c, 4, 50, 0
5, 22656, Note_on_c, 4, 43, 45
5, 22704, Note_on_c, 4, 43, 0
5, 23136, Note_on_c, 4, 47, 45
5, 23230, Note_on_c, 4, 47, 0
5, 23232, Note_on_c, 4, 48, 45
5, 23326, Note_on_c, 4, 48, 0
5, 23328, Note_on_c, 4, 49, 45
5, 23422, Note_on_c, 4, 49, 0
5, 23424, Note_on_c, 4, 50, 45
5, 23518, Note_on_c, 4, 50, 0
5, 23520, Note_on_c, 4, 52, 45
5, 23614, Note_on_c, 4, 52, 0
5, 23616, Note_on_c, 4, 48, 45
5, 23710, Note_on_c, 4, 48, 0
5, 23712, Note_on_c, 4, 50, 45
5, 23806, Note_on_c, 4, 50, 0
5, 23808, Note_on_c, 4, 55, 45
5, 23968, Note_on_c, 4, 55, 0
5, 24096, Note_on_c, 4, 42, 45
5, 24128, Note_on_c, 4, 42, 0
5, 24192, Note_on_c, 4, 43, 45
5, 24224, Note_on_c, 4, 43, 0
5, 24288, Note_on_c, 4, 44, 45
5, 24320, Note_on_c, 4, 44, 0
5, 24384, Note_on_c, 4, 45, 45
5, 24544, Note_on_c, 4, 45, 0
5, 24672, Note_on_c, 4, 44, 45
5, 24766, Note_on_c, 4, 44, 0
5, 24768, Note_on_c, 4, 45, 45
5, 24862, Note_on_c, 4, 45, 0
5, 24864, Note_on_c, 4, 46, 45
5, 24958, Note_on_c, 4, 46, 0
5, 24960, Note_on_c, 4, 47, 45
5, 25120, Note_on_c, 4, 47, 0
5, 25248, Note_on_c, 4, 47, 45
5, 25342, Note_on_c, 4, 47, 0
5, 25344, Note_on_c, 4, 48, 50
5, 25438, Note_on_c, 4, 48, 0
5, 25440, Note_on_c, 4, 49, 55
5, 25534, Note_on_c, 4, 49, 0
5, 25536, Note_on_c, 4, 50, 60
5, 25630, Note_on_c, 4, 50, 0
5, 25632, Note_on_c, 4, 51, 65
5, 25726, Note_on_c, 4, 51, 0
5, 25728, Note_on_c, 4, 52, 70
5, 25822, Note_on_c, 4, 52, 0
5, 25824, Note_on_c, 4, 48, 75
5, 25918, Note_on_c, 4, 48, 0
5, 25920, Note_on_c, 4, 50, 80
5, 26014, Note_on_c, 4, 50, 0
5, 26016, Note_on_c, 4, 38, 86
5, 26110, Note_on_c, 4, 38, 0
5, 26112, Note_on_c, 4, 43, 45
5, 26144, Note_on_c, 4, 43, 0
5, 26208, Note_on_c, 4, 42, 45
5, 26240, Note_on_c, 4, 42, 0
5, 26304, Note_on_c, 4, 43, 45
5, 26336, Note_on_c, 4, 43, 0
5, 26400, Note_on_c, 4, 42, 45
5, 26432, Note_on_c, 4, 42, 0
5, 26496, Note_on_c, 4, 43, 45
5, 26528, Note_on_c, 4, 43, 0
5, 26592, Note_on_c, 4, 47, 45
5, 26624, Note_on_c, 4, 47, 0
5, 26688, Note_on_c, 4, 50, 45
5, 26782, Note_on_c, 4, 50, 0
5, 26784, Note_on_c, 4, 49, 45
5, 26878, Note_on_c, 4, 49, 0
5, 26880, Note_on_c, 4, 50, 45
5, 26974, Note_on_c, 4, 50, 0
5, 26976, Note_on_c, 4, 49, 45
5, 27070, Note_on_c, 4, 49, 0
5, 27072, Note_on_c, 4, 50, 45
5, 27166, Note_on_c, 4, 50, 0
5, 27168, Note_on_c, 4, 54, 45
5, 27262, Note_on_c, 4, 54, 0
5, 27264, Note_on_c, 4, 55, 45
5, 27358, Note_on_c, 4, 55, 0
5, 27360, Note_on_c, 4, 54, 48
5, 27454, Note_on_c, 4, 54, 0
5, 27456, Note_on_c, 4, 55, 52
5, 27550, Note_on_c, 4, 55, 0
5, 27552, Note_on_c, 4, 54, 56
5, 27646, Note_on_c, 4, 54, 0
5, 27648, Note_on_c, 4, 55, 60
5, 27742, Note_on_c, 4, 55, 0
5, 27744, Note_on_c, 4, 59, 64
5, 27838, Note_on_c, 4, 59, 0
5, 27840, Note_on_c, 4, 62, 68
5, 27934, Note_on_c, 4, 62, 0
5, 27936, Note_on_c, 4, 61, 72
5, 28030, Note_on_c, 4, 61, 0
5, 28032, Note_on_c, 4, 62, 76
5, 28126, Note_on_c, 4, 62, 0
5, 28128, Note_on_c, 4, 61, 80
5, 28222, Note_on_c, 4, 61, 0
5, 28224, Note_on_c, 4, 62, 84
5, 28318, Note_on_c, 4, 62, 0
5, 28320, Note_on_c, 4, 50, 88
5, 28414, Note_on_c, 4, 50, 0
5, 28416, Note_on_c, 4, 55, 92
5, 28576, Note_on_c, 4, 55, 0
5, 28800, Note_on_c, 4, 55, 92
5, 28832, Note_on_c, 4, 55, 0
5, 28896, Note_on_c, 4, 50, 92
5, 28944, Note_on_c, 4, 50, 0
5, 28944, Note_on_c, 4, 47, 92
5, 28992, Note_on_c, 4, 47, 0
5, 28992, Note_on_c, 4, 43, 92
5, 29152, Note_on_c, 4, 43, 0
5, 29568, Note_on_c, 4, 47, 127
5, 29824, Note_on_c, 4, 47, 0
5, 29856, Note_on_c, 4, 59, 45
5, 29888, Note_on_c, 4, 59, 0
5, 29952, Note_on_c, 4, 59, 45
5, 29984, Note_on_c, 4, 59, 0
5, 30048, Note_on_c, 4, 59, 45
5, 30080, Note_on_c, 4, 59, 0
5, 30144, Note_on_c, 4, 59, 45
5, 30176, Note_on_c, 4, 59, 0
5, 30240, Note_on_c, 4, 59, 45
5, 30272, Note_on_c, 4, 59, 0
5, 30336, Note_on_c, 4, 59, 45
5, 30368, Note_on_c, 4, 59, 0
5, 30432, Note_on_c, 4, 59, 45
5, 30464, Note_on_c, 4, 59, 0
5, 30528, Note_on_c, 4, 59, 45
5, 30560, Note_on_c, 4, 59, 0
5, 30624, Note_on_c, 4, 59, 45
5, 30656, Note_on_c, 4, 59, 0
5, 30720, Note_on_c, 4, 59, 45
5, 30880, Note_on_c, 4, 59, 0
5, 30912, Note_on_c, 4, 59, 45
5, 31072, Note_on_c, 4, 59, 0
5, 31104, Note_on_c, 4, 59, 45
5, 31264, Note_on_c, 4, 59, 0
5, 31296, Note_on_c, 4, 59, 45
5, 31456, Note_on_c, 4, 59, 0
5, 31872, Note_on_c, 4, 43, 92
5, 32208, Note_on_c, 4, 43, 0
5, 32256, Note_on_c, 4, 62, 92
5, 32288, Note_on_c, 4, 62, 0
5, 32352, Note_on_c, 4, 60, 92
5, 32384, Note_on_c, 4, 60, 0
5, 32448, Note_on_c, 4, 59, 92
5, 32480, Note_on_c, 4, 59, 0
5, 32544, Note_on_c, 4, 57, 92
5, 32576, Note_on_c, 4, 57, 0
5, 32640, Note_on_c, 4, 55, 92
5, 32672, Note_on_c, 4, 55, 0
5, 32736, Note_on_c, 4, 53, 92
5, 32768, Note_on_c, 4, 53, 0
5, 32832, Note_on_c, 4, 52, 92
5, 32864, Note_on_c, 4, 52, 0
5, 32928, Note_on_c, 4, 50, 92
5, 32960, Note_on_c, 4, 50, 0
5, 33024, Note_on_c, 4, 48, 92
5, 33118, Note_on_c, 4, 48, 0
5, 33120, Note_on_c, 4, 47, 89
5, 33214, Note_on_c, 4, 47, 0
5, 33216, Note_on_c, 4, 48, 86
5, 33310, Note_on_c, 4, 48, 0
5, 33312, Note_on_c, 4, 47, 83
5, 33406, Note_on_c, 4, 47, 0
5, 33408, Note_on_c, 4, 48, 80
5, 33502, Note_on_c, 4, 48, 0
5, 33504, Note_on_c, 4, 45, 77
5, 33598, Note_on_c, 4, 45, 0
5, 33600, Note_on_c, 4, 50, 73
5, 33792, Note_on_c, 4, 50, 0
5, 33792, Note_on_c, 4, 38, 65
5, 33886, Note_on_c, 4, 38, 0
5, 34272, Note_on_c, 4, 47, 45
5, 34320, Note_on_c, 4, 47, 0
5, 34320, Note_on_c, 4, 50, 45
5, 34368, Note_on_c, 4, 50, 0
5, 34368, Note_on_c, 4, 55, 45
5, 34400, Note_on_c, 4, 55, 0
5, 34848, Note_on_c, 4, 50, 45
5, 34896, Note_on_c, 4, 50, 0
5, 34896, Note_on_c, 4, 47, 45
5, 34944, Note_on_c, 4, 47, 0
5, 34944, Note_on_c, 4, 43, 45
5, 34976, Note_on_c, 4, 43, 0
5, 35520, Note_on_c, 4, 45, 45
5, 35568, Note_on_c, 4, 45, 0
5, 35712, Note_on_c, 4, 43, 45
5, 35760, Note_on_c, 4, 43, 0
5, 35904, Note_on_c, 4, 42, 45
5, 35952, Note_on_c, 4, 42, 0
5, 36096, Note_on_c, 4, 38, 45
5, 36144, Note_on_c, 4, 38, 0
5, 36288, Note_on_c, 4, 57, 45
5, 36320, Note_on_c, 4, 57, 0
5, 36384, Note_on_c, 4, 57, 45
5, 36432, Note_on_c, 4, 57, 0
5, 36432, Note_on_c, 4, 54, 45
5, 36480, Note_on_c, 4, 54, 0
5, 36480, Note_on_c, 4, 60, 45
5, 36528, Note_on_c, 4, 60, 0
5, 36864, Note_on_c, 4, 57, 45
5, 36896, Note_on_c, 4, 57, 0
5, 36960, Note_on_c, 4, 57, 45
5, 37008, Note_on_c, 4, 57, 0
5, 37008, Note_on_c, 4, 54, 45
5, 37056, Note_on_c, 4, 54, 0
5, 37056, Note_on_c, 4, 51, 45
5, 37104, Note_on_c, 4, 51, 0
5, 37440, Note_on_c, 4, 54, 45
5, 37472, Note_on_c, 4, 54, 0
5, 37536, Note_on_c, 4, 54, 45
5, 37584, Note_on_c, 4, 54, 0
5, 37584, Note_on_c, 4, 51, 45
5, 37632, Note_on_c, 4, 51, 0
5, 37632, Note_on_c, 4, 47, 45
5, 37664, Note_on_c, 4, 47, 0
5, 37728, Note_on_c, 4, 54, 45
5, 37776, Note_on_c, 4, 54, 0
5, 37776, Note_on_c, 4, 51, 45
5, 37822, Note_on_c, 4, 51, 0
5, 37824, Note_on_c, 4, 47, 45
5, 37856, Note_on_c, 4, 47, 0
5, 37920, Note_on_c, 4, 54, 45
5, 37968, Note_on_c, 4, 54, 0
5, 37968, Note_on_c, 4, 51, 45
5, 38014, Note_on_c, 4, 51, 0
5, 38016, Note_on_c, 4, 47, 45
5, 38048, Note_on_c, 4, 47, 0
5, 38112, Note_on_c, 4, 54, 45
5, 38160, Note_on_c, 4, 54, 0
5, 38160, Note_on_c, 4, 51, 45
5, 38206, Note_on_c, 4, 51, 0
5, 38208, Note_on_c, 4, 47, 45
5, 38240, Note_on_c, 4, 47, 0
5, 38304, Note_on_c, 4, 55, 45
5, 38352, Note_on_c, 4, 55, 0
5, 38352, Note_on_c, 4, 52, 45
5, 38398, Note_on_c, 4, 52, 0
5, 38400, Note_on_c, 4, 47, 45
5, 38432, Note_on_c, 4, 47, 0
5, 38496, Note_on_c, 4, 55, 45
5, 38544, Note_on_c, 4, 55, 0
5, 38544, Note_on_c, 4, 52, 45
5, 38590, Note_on_c, 4, 52, 0
5, 38592, Note_on_c, 4, 47, 45
5, 38624, Note_on_c, 4, 47, 0
5, 38688, Note_on_c, 4, 55, 45
5, 38736, Note_on_c, 4, 55, 0
5, 38736, Note_on_c, 4, 52, 45
5, 38782, Note_on_c, 4, 52, 0
5, 38784, Note_on_c, 4, 47, 45
5, 38816, Note_on_c, 4, 47, 0
5, 38880, Note_on_c, 4, 49, 45
5, 38912, Note_on_c, 4, 49, 0
5, 38976, Note_on_c, 4, 50, 50
5, 39008, Note_on_c, 4, 50, 0
5, 39072, Note_on_c, 4, 49, 55
5, 39104, Note_on_c, 4, 49, 0
5, 39168, Note_on_c, 4, 50, 60
5, 39200, Note_on_c, 4, 50, 0
5, 39264, Note_on_c, 4, 49, 66
5, 39296, Note_on_c, 4, 49, 0
5, 39360, Note_on_c, 4, 47, 72
5, 39454, Note_on_c, 4, 47, 0
5, 39456, Note_on_c, 4, 45, 78
5, 39550, Note_on_c, 4, 45, 0
5, 39552, Note_on_c, 4, 43, 84
5, 39646, Note_on_c, 4, 43, 0
5, 39648, Note_on_c, 4, 41, 90
5, 39742, Note_on_c, 4, 41, 0
5, 39744, Note_on_c, 4, 40, 96
5, 39838, Note_on_c, 4, 40, 0
5, 39840, Note_on_c, 4, 38, 102
5, 39934, Note_on_c, 4, 38, 0
5, 39936, Note_on_c, 4, 36, 108
5, 39968, Note_on_c, 4, 36, 0
5, 40032, Note_on_c, 4, 36, 108
5, 40080, Note_on_c, 4, 36, 0
5, 40080, Note_on_c, 4, 40, 108
5, 40128, Note_on_c, 4, 40, 0
5, 40128, Note_on_c, 4, 43, 108
5, 40176, Note_on_c, 4, 43, 0
5, 40608, Note_on_c, 4, 36, 108
5, 40656, Note_on_c, 4, 36, 0
5, 40656, Note_on_c, 4, 40, 108
5, 40704, Note_on_c, 4, 40, 0
5, 40704, Note_on_c, 4, 45, 108
5, 40752, Note_on_c, 4, 45, 0
5, 41088, Note_on_c, 4, 38, 45
5, 41120, Note_on_c, 4, 38, 0
5, 41184, Note_on_c, 4, 43, 45
5, 41232, Note_on_c, 4, 43, 0
5, 41232, Note_on_c, 4, 47, 45
5, 41278, Note_on_c, 4, 47, 0
5, 41280, Note_on_c, 4, 50, 45
5, 41440, Note_on_c, 4, 50, 0
5, 41472, Note_on_c, 4, 50, 45
5, 41632, Note_on_c, 4, 50, 0
5, 41664, Note_on_c, 4, 43, 45
5, 41824, Note_on_c, 4, 43, 0
5, 42144, Note_on_c, 4, 50, 45
5, 42176, Note_on_c, 4, 50, 0
5, 42240, Note_on_c, 4, 42, 45
5, 42288, Note_on_c, 4, 42, 0
5, 42720, Note_on_c, 4, 50, 45
5, 42752, Note_on_c, 4, 50, 0
5, 42816, Note_on_c, 4, 43, 45
5, 42864, Note_on_c, 4, 43, 0
5, 43296, Note_on_c, 4, 47, 45
5, 43390, Note_on_c, 4, 47, 0
5, 43392, Note_on_c, 4, 48, 45
5, 43486, Note_on_c, 4, 48, 0
5, 43488, Note_on_c, 4, 49, 45
5, 43582, Note_on_c, 4, 49, 0
5, 43584, Note_on_c, 4, 50, 45
5, 43678, Note_on_c, 4, 50, 0
5, 43680, Note_on_c, 4, 52, 45
5, 43774, Note_on_c, 4, 52, 0
5, 43776, Note_on_c, 4, 48, 45
5, 43870, Note_on_c, 4, 48, 0
5, 43872, Note_on_c, 4, 50, 45
5, 43966, Note_on_c, 4, 50, 0
5, 43968, Note_on_c, 4, 55, 45
5, 44128, Note_on_c, 4, 55, 0
5, 44256, Note_on_c, 4, 42, 45
5, 44288, Note_on_c, 4, 42, 0
5, 44352, Note_on_c, 4, 43, 45
5, 44384, Note_on_c, 4, 43, 0
5, 44448, Note_on_c, 4, 44, 45
5, 44480, Note_on_c, 4, 44, 0
5, 44544, Note_on_c, 4, 45, 45
5, 44704, Note_on_c, 4, 45, 0
5, 44832, Note_on_c, 4, 44, 45
5, 44926, Note_on_c, 4, 44, 0
5, 44928, Note_on_c, 4, 45, 45
5, 45022, Note_on_c, 4, 45, 0
5, 45024, Note_on_c, 4, 46, 45
5, 45118, Note_on_c, 4, 46, 0
5, 45120, Note_on_c, 4, 47, 45
5, 45280, Note_on_c, 4, 47, 0
5, 45408, Note_on_c, 4, 47, 45
5, 45502, Note_on_c, 4, 47, 0
5, 45504, Note_on_c, 4, 48, 50
5, 45598, Note_on_c, 4, 48, 0
5, 45600, Note_on_c, 4, 49, 55
5, 45694, Note_on_c, 4, 49, 0
5, 45696, Note_on_c, 4, 50, 60
5, 45790, Note_on_c, 4, 50, 0
5, 45792, Note_on_c, 4, 51, 65
5, 45886, Note_on_c, 4, 51, 0
5, 45888, Note_on_c, 4, 52, 70
5, 45982, Note_on_c, 4, 52, 0
5, 45984, Note_on_c, 4, 48, 75
5, 46078, Note_on_c, 4, 48, 0
5, 46080, Note_on_c, 4, 50, 80
5, 46174, Note_on_c, 4, 50, 0
5, 46176, Note_on_c, 4, 38, 86
5, 46270, Note_on_c, 4, 38, 0
5, 46272, Note_on_c, 4, 43, 45
5, 46304, Note_on_c, 4, 43, 0
5, 46368, Note_on_c, 4, 42, 45
5, 46400, Note_on_c, 4, 42, 0
5, 46464, Note_on_c, 4, 43, 45
5, 46496, Note_on_c, 4, 43, 0
5, 46560, Note_on_c, 4, 42, 45
5, 46592, Note_on_c, 4, 42, 0
5, 46656, Note_on_c, 4, 43, 45
5, 46688, Note_on_c, 4, 43, 0
5, 46752, Note_on_c, 4, 47, 45
5, 46784, Note_on_c, 4, 47, 0
5, 46848, Note_on_c, 4, 50, 45
5, 46942, Note_on_c, 4, 50, 0
5, 46944, Note_on_c, 4, 49, 45
5, 47038, Note_on_c, 4, 49, 0
5, 47040, Note_on_c, 4, 50, 45
5, 47134, Note_on_c, 4, 50, 0
5, 47136, Note_on_c, 4, 49, 45
5, 47230, Note_on_c, 4, 49, 0
5, 47232, Note_on_c, 4, 50, 45
5, 47326, Note_on_c, 4, 50, 0
5, 47328, Note_on_c, 4, 54, 45
5, 47422, Note_on_c, 4, 54, 0
5, 47424, Note_on_c, 4, 55, 45
5, 47518, Note_on_c, 4, 55, 0
5, 47520, Note_on_c, 4, 54, 48
5, 47614, Note_on_c, 4, 54, 0
5, 47616, Note_on_c, 4, 55, 52
5, 47710, Note_on_c, 4, 55, 0
5, 47712, Note_on_c, 4, 54, 56
5, 47806, Note_on_c, 4, 54, 0
5, 47808, Note_on_c, 4, 55, 60
5, 47902, Note_on_c, 4, 55, 0
5, 47904, Note_on_c, 4, 59, 64
5, 47998, Note_on_c, 4, 59, 0
5, 48000, Note_on_c, 4, 62, 68
5, 48094, Note_on_c, 4, 62, 0
5, 48096, Note_on_c, 4, 61, 72
5, 48190, Note_on_c, 4, 61, 0
5, 48192, Note_on_c, 4, 62, 76
5, 48286, Note_on_c, 4, 62, 0
5, 48288, Note_on_c, 4, 61, 80
5, 48382, Note_on_c, 4, 61, 0
5, 48384, Note_on_c, 4, 62, 84
5, 48478, Note_on_c, 4, 62, 0
5, 48480, Note_on_c, 4, 50, 88
5, 48574, Note_on_c, 4, 50, 0
5, 48576, Note_on_c, 4, 55, 92
5, 48736, Note_on_c, 4, 55, 0
5, 48960, Note_on_c, 4, 55, 92
5, 48992, Note_on_c, 4, 55, 0
5, 49056, Note_on_c, 4, 50, 92
5, 49104, Note_on_c, 4, 50, 0
5, 49104, Note_on_c, 4, 47, 92
5, 49152, Note_on_c, 4, 47, 0
5, 49152, Note_on_c, 4, 43, 92
5, 49312, Note_on_c, 4, 43, 0
5, 49728, Note_on_c, 4, 48, 127
5, 50256, Note_on_c, 4, 48, 0
5, 50304, Note_on_c, 4, 47, 45
5, 50352, Note_on_c, 4, 47, 0
5, 50496, Note_on_c, 4, 47, 45
5, 50544, Note_on_c, 4, 47, 0
5, 50688, Note_on_c, 4, 47, 45
5, 50736, Note_on_c, 4, 47, 0
5, 50880, Note_on_c, 4, 46, 45
5, 51040, Note_on_c, 4, 46, 0
5, 51072, Note_on_c, 4, 46, 45
5, 51232, Note_on_c, 4, 46, 0
5, 51264, Note_on_c, 4, 46, 45
5, 51424, Note_on_c, 4, 46, 0
5, 51456, Note_on_c, 4, 45, 45
5, 51616, Note_on_c, 4, 45, 0
5, 52032, Note_on_c, 4, 44, 127
5, 52560, Note_on_c, 4, 44, 0
5, 52608, Note_on_c, 4, 43, 45
5, 52768, Note_on_c, 4, 43, 0
5, 52800, Note_on_c, 4, 43, 45
5, 52960, Note_on_c, 4, 43, 0
5, 52992, Note_on_c, 4, 43, 45
5, 53152, Note_on_c, 4, 43, 0
5, 53184, Note_on_c, 4, 38, 45
5, 53344, Note_on_c, 4, 38, 0
5, 53376, Note_on_c, 4, 38, 45
5, 53536, Note_on_c, 4, 38, 0
5, 53568, Note_on_c, 4, 38, 45
5, 53728, Note_on_c, 4, 38, 0
5, 53760, Note_on_c, 4, 43, 45
5, 53920, Note_on_c, 4, 43, 0
5, 54336, Note_on_c, 4, 48, 127
5, 54864, Note_on_c, 4, 48, 0
5, 54912, Note_on_c, 4, 47, 45
5, 54960, Note_on_c, 4, 47, 0
5, 55104, Note_on_c, 4, 47, 45
5, 55152, Note_on_c, 4, 47, 0
5, 55296, Note_on_c, 4, 47, 45
5, 55344, Note_on_c, 4, 47, 0
5, 55488, Note_on_c, 4, 46, 45
5, 55648, Note_on_c, 4, 46, 0
5, 55680, Note_on_c, 4, 46, 45
5, 55840, Note_on_c, 4, 46, 0
5, 55872, Note_on_c, 4, 46, 45
5, 56032, Note_on_c, 4, 46, 0
5, 56064, Note_on_c, 4, 45, 45
5, 56224, Note_on_c, 4, 45, 0
5, 56640, Note_on_c, 4, 44, 127
5, 57168, Note_on_c, 4, 44, 0
5, 57216, Note_on_c, 4, 43, 45
5, 57376, Note_on_c, 4, 43, 0
5, 57408, Note_on_c, 4, 43, 45
5, 57568, Note_on_c, 4, 43, 0
5, 57600, Note_on_c, 4, 43, 45
5, 57760, Note_on_c, 4, 43, 0
5, 57792, Note_on_c, 4, 38, 45
5, 57952, Note_on_c, 4, 38, 0
5, 57984, Note_on_c, 4, 38, 45
5, 58144, Note_on_c, 4, 38, 0
5, 58176, Note_on_c, 4, 38, 45
5, 58336, Note_on_c, 4, 38, 0
5, 58368, Note_on_c, 4, 43, 45
5, 58528, Note_on_c, 4, 43, 0
5, 59520, Note_on_c, 4, 55, 45
5, 60048, Note_on_c, 4, 55, 0
5, 60096, Note_on_c, 4, 60, 45
5, 60190, Note_on_c, 4, 60, 0
5, 60288, Note_on_c, 4, 60, 45
5, 60382, Note_on_c, 4, 60, 0
5, 60480, Note_on_c, 4, 64, 45
5, 60574, Note_on_c, 4, 64, 0
5, 61248, Note_on_c, 4, 43, 45
5, 61296, Note_on_c, 4, 43, 0
5, 61440, Note_on_c, 4, 43, 60
5, 61488, Note_on_c, 4, 43, 0
5, 61632, Note_on_c, 4, 43, 76
5, 61680, Note_on_c, 4, 43, 0
5, 61824, Note_on_c, 4, 44, 127
5, 62016, Note_on_c, 4, 44, 0
5, 62016, Note_on_c, 4, 38, 77
5, 62208, Note_on_c, 4, 38, 0
5, 62208, Note_on_c, 4, 41, 61
5, 62400, Note_on_c, 4, 41, 0
5, 62400, Note_on_c, 4, 40, 45
5, 62494, Note_on_c, 4, 40, 0
5, 62592, Note_on_c, 4, 36, 45
5, 62686, Note_on_c, 4, 36, 0
5, 62784, Note_on_c, 4, 40, 45
5, 62878, Note_on_c, 4, 40, 0
5, 62976, Note_on_c, 4, 43, 45
5, 63024, Note_on_c, 4, 43, 0
5, 63360, Note_on_c, 4, 48, 45
5, 63552, Note_on_c, 4, 48, 0
5, 63552, Note_on_c, 4, 43, 45
5, 63600, Note_on_c, 4, 43, 0
5, 63936, Note_on_c, 4, 48, 45
5, 64128, Note_on_c, 4, 48, 0
5, 64128, Note_on_c, 4, 43, 45
5, 64176, Note_on_c, 4, 43, 0
5, 65280, Note_on_c, 4, 48, 30
5, 65440, Note_on_c, 4, 48, 0
5, 65856, Note_on_c, 4, 43, 30
5, 65898, Note_on_c, 4, 43, 0
5, 65920, Note_on_c, 4, 55, 30
5, 65984, Note_on_c, 4, 55, 0
5, 65984, Note_on_c, 4, 54, 30
5, 66046, Note_on_c, 4, 54, 0
5, 66048, Note_on_c, 4, 55, 30
5, 66090, Note_on_c, 4, 55, 0
5, 66112, Note_on_c, 4, 50, 30
5, 66154, Note_on_c, 4, 50, 0
5, 66176, Note_on_c, 4, 48, 30
5, 66218, Note_on_c, 4, 48, 0
5, 66240, Note_on_c, 4, 47, 30
5, 66282, Note_on_c, 4, 47, 0
5, 66304, Note_on_c, 4, 45, 30
5, 66346, Note_on_c, 4, 45, 0
5, 66368, Note_on_c, 4, 43, 30
5, 66410, Note_on_c, 4, 43, 0
5, 66432, Note_on_c, 4, 48, 30
5, 66592, Note_on_c, 4, 48, 0
5, 67008, Note_on_c, 4, 41, 36
5, 67050, Note_on_c, 4, 41, 0
5, 67072, Note_on_c, 4, 53, 37
5, 67136, Note_on_c, 4, 53, 0
5, 67136, Note_on_c, 4, 55, 38
5, 67198, Note_on_c, 4, 55, 0
5, 67200, Note_on_c, 4, 57, 39
5, 67242, Note_on_c, 4, 57, 0
5, 67264, Note_on_c, 4, 55, 40
5, 67306, Note_on_c, 4, 55, 0
5, 67328, Note_on_c, 4, 53, 41
5, 67370, Note_on_c, 4, 53, 0
5, 67392, Note_on_c, 4, 52, 42
5, 67434, Note_on_c, 4, 52, 0
5, 67456, Note_on_c, 4, 50, 43
5, 67498, Note_on_c, 4, 50, 0
5, 67520, Note_on_c, 4, 48, 44
5, 67562, Note_on_c, 4, 48, 0
5, 67584, Note_on_c, 4, 47, 45
5, 67744, Note_on_c, 4, 47, 0
5, 68160, Note_on_c, 4, 48, 45
5, 68202, Note_on_c, 4, 48, 0
5, 68224, Note_on_c, 4, 60, 45
5, 68288, Note_on_c, 4, 60, 0
5, 68288, Note_on_c, 4, 59, 45
5, 68350, Note_on_c, 4, 59, 0
5, 68416, Note_on_c, 4, 55, 45
5, 68458, Note_on_c, 4, 55, 0
5, 68480, Note_on_c, 4, 53, 45
5, 68522, Note_on_c, 4, 53, 0
5, 68544, Note_on_c, 4, 52, 45
5, 68586, Note_on_c, 4, 52, 0
5, 68608, Note_on_c, 4, 50, 45
5, 68650, Note_on_c, 4, 50, 0
5, 68672, Note_on_c, 4, 48, 45
5, 68714, Note_on_c, 4, 48, 0
5, 68736, Note_on_c, 4, 43, 45
5, 68896, Note_on_c, 4, 43, 0
5, 69312, Note_on_c, 4, 36, 45
5, 69354, Note_on_c, 4, 36, 0
5, 69376, Note_on_c, 4, 40, 45
5, 69418, Note_on_c, 4, 40, 0
5, 69440, Note_on_c, 4, 43, 45
5, 69482, Note_on_c, 4, 43, 0
5, 69504, Note_on_c, 4, 48, 45
5, 69546, Note_on_c, 4, 48, 0
5, 69568, Note_on_c, 4, 52, 45
5, 69610, Note_on_c, 4, 52, 0
5, 69632, Note_on_c, 4, 55, 45
5, 69674, Note_on_c, 4, 55, 0
5, 69696, Note_on_c, 4, 60, 45
5, 69738, Note_on_c, 4, 60, 0
5, 69760, Note_on_c, 4, 62, 45
5, 69802, Note_on_c, 4, 62, 0
5, 69824, Note_on_c, 4, 64, 45
5, 69866, Note_on_c, 4, 64, 0
5, 69888, Note_on_c, 4, 65, 30
5, 70048, Note_on_c, 4, 65, 0
5, 70080, Note_on_c, 4, 65, 30
5, 70240, Note_on_c, 4, 65, 0
5, 70272, Note_on_c, 4, 65, 30
5, 70304, Note_on_c, 4, 65, 0
5, 70304, Note_on_c, 4, 67, 30
5, 70336, Note_on_c, 4, 67, 0
5, 70336, Note_on_c, 4, 65, 30
5, 70368, Note_on_c, 4, 65, 0
5, 70368, Note_on_c, 4, 64, 30
5, 70416, Note_on_c, 4, 64, 0
5, 70416, Note_on_c, 4, 65, 30
5, 70462, Note_on_c, 4, 65, 0
5, 70464, Note_on_c, 4, 64, 30
5, 70624, Note_on_c, 4, 64, 0
5, 71040, Note_on_c, 4, 62, 30
5, 71200, Note_on_c, 4, 62, 0
5, 71232, Note_on_c, 4, 62, 30
5, 71392, Note_on_c, 4, 62, 0
5, 71424, Note_on_c, 4, 62, 30
5, 71456, Note_on_c, 4, 62, 0
5, 71456, Note_on_c, 4, 64, 30
5, 71488, Note_on_c, 4, 64, 0
5, 71488, Note_on_c, 4, 62, 30
5, 71520, Note_on_c, 4, 62, 0
5, 71520, Note_on_c, 4, 60, 30
5, 71568, Note_on_c, 4, 60, 0
5, 71568, Note_on_c, 4, 62, 30
5, 71614, Note_on_c, 4, 62, 0
5, 71616, Note_on_c, 4, 60, 30
5, 71776, Note_on_c, 4, 60, 0
5, 72000, Note_on_c, 4, 54, 30
5, 72192, Note_on_c, 4, 54, 0
5, 72192, Note_on_c, 4, 55, 31
5, 72352, Note_on_c, 4, 55, 0
5, 72576, Note_on_c, 4, 43, 33
5, 72768, Note_on_c, 4, 43, 0
5, 72768, Note_on_c, 4, 48, 34
5, 72928, Note_on_c, 4, 48, 0
5, 73152, Note_on_c, 4, 42, 37
5, 73344, Note_on_c, 4, 42, 0
5, 73344, Note_on_c, 4, 43, 39
5, 73504, Note_on_c, 4, 43, 0
5, 73728, Note_on_c, 4, 43, 43
5, 73920, Note_on_c, 4, 43, 0
5, 73920, Note_on_c, 4, 48, 45
5, 74080, Note_on_c, 4, 48, 0
5, 74112, Note_on_c, 4, 36, 45
5, 74272, Note_on_c, 4, 36, 0
5, 74304, Note_on_c, 4, 36, 45
5, 74464, Note_on_c, 4, 36, 0
5, 74496, Note_on_c, 4, 36, 45
5, 74656, Note_on_c, 4, 36, 0
5, 75648, Note_on_c, 4, 55, 45
5, 76176, Note_on_c, 4, 55, 0
5, 76224, Note_on_c, 4, 60, 45
5, 76318, Note_on_c, 4, 60, 0
5, 76416, Note_on_c, 4, 60, 45
5, 76510, Note_on_c, 4, 60, 0
5, 76608, Note_on_c, 4, 64, 45
5, 76702, Note_on_c, 4, 64, 0
5, 77376, Note_on_c, 4, 43, 45
5, 77424, Note_on_c, 4, 43, 0
5, 77568, Note_on_c, 4, 43, 60
5, 77616, Note_on_c, 4, 43, 0
5, 77760, Note_on_c, 4, 43, 76
5, 77808, Note_on_c, 4, 43, 0
5, 77952, Note_on_c, 4, 44, 127
5, 78144, Note_on_c, 4, 44, 0
5, 78144, Note_on_c, 4, 38, 77
5, 78336, Note_on_c, 4, 38, 0
5, 78336, Note_on_c, 4, 41, 61
5, 78528, Note_on_c, 4, 41, 0
5, 78528, Note_on_c, 4, 40, 45
5, 78622, Note_on_c, 4, 40, 0
5, 78720, Note_on_c, 4, 36, 45
5, 78814, Note_on_c, 4, 36, 0
5, 78912, Note_on_c, 4, 40, 45
5, 79006, Note_on_c, 4, 40, 0
5, 79104, Note_on_c, 4, 43, 45
5, 79152, Note_on_c, 4, 43, 0
5, 79488, Note_on_c, 4, 48, 45
5, 79680, Note_on_c, 4, 48, 0
5, 79680, Note_on_c, 4, 43, 45
5, 79728, Note_on_c, 4, 43, 0
5, 80064, Note_on_c, 4, 48, 45
5, 80256, Note_on_c, 4, 48, 0
5, 80256, Note_on_c, 4, 43, 45
5, 80304, Note_on_c, 4, 43, 0
5, 81408, Note_on_c, 4, 48, 30
5, 81568, Note_on_c, 4, 48, 0
5, 81984, Note_on_c, 4, 43, 30
5, 82026, Note_on_c, 4, 43, 0
5, 82048, Note_on_c, 4, 55, 30
5, 82112, Note_on_c, 4, 55, 0
5, 82112, Note_on_c, 4, 54, 30
5, 82174, Note_on_c, 4, 54, 0
5, 82176, Note_on_c, 4, 55, 30
5, 82218, Note_on_c, 4, 55, 0
5, 82240, Note_on_c, 4, 50, 30
5, 82282, Note_on_c, 4, 50, 0
5, 82304, Note_on_c, 4, 48, 30
5, 82346, Note_on_c, 4, 48, 0
5, 82368, Note_on_c, 4, 47, 30
5, 82410, Note_on_c, 4, 47, 0
5, 82432, Note_on_c, 4, 45, 30
5, 82474, Note_on_c, 4, 45, 0
5, 82496, Note_on_c, 4, 43, 30
5, 82538, Note_on_c, 4, 43, 0
5, 82560, Note_on_c, 4, 48, 30
5, 82720, Note_on_c, 4, 48, 0
5, 83136, Note_on_c, 4, 41, 36
5, 83178, Note_on_c, 4, 41, 0
5, 83200, Note_on_c, 4, 53, 37
5, 83264, Note_on_c, 4, 53, 0
5, 83264, Note_on_c, 4, 55, 38
5, 83326, Note_on_c, 4, 55, 0
5, 83328, Note_on_c, 4, 57, 39
5, 83370, Note_on_c, 4, 57, 0
5, 83392, Note_on_c, 4, 55, 40
5, 83434, Note_on_c, 4, 55, 0
5, 83456, Note_on_c, 4, 53, 41
5, 83498, Note_on_c, 4, 53, 0
5, 83520, Note_on_c, 4, 52, 42
5, 83562, Note_on_c, 4, 52, 0
5, 83584, Note_on_c, 4, 50, 43
5, 83626, Note_on_c, 4, 50, 0
5, 83648, Note_on_c, 4, 48, 44
5, 83690, Note_on_c, 4, 48, 0
5, 83712, Note_on_c, 4, 47, 45
5, 83872, Note_on_c, 4, 47, 0
5, 84288, Note_on_c, 4, 48, 45
5, 84330, Note_on_c, 4, 48, 0
5, 84352, Note_on_c, 4, 60, 45
5, 84416, Note_on_c, 4, 60, 0
5, 84416, Note_on_c, 4, 59, 45
5, 84478, Note_on_c, 4, 59, 0
5, 84544, Note_on_c, 4, 55, 45
5, 84586, Note_on_c, 4, 55, 0
5, 84608, Note_on_c, 4, 53, 45
5, 84650, Note_on_c, 4, 53, 0
5, 84672, Note_on_c, 4, 52, 45
5, 84714, Note_on_c, 4, 52, 0
5, 84736, Note_on_c, 4, 50, 45
5, 84778, Note_on_c, 4, 50, 0
5, 84800, Note_on_c, 4, 48, 45
5, 84842, Note_on_c, 4, 48, 0
5, 84864, Note_on_c, 4, 43, 45
5, 85024, Note_on_c, 4, 43, 0
5, 85440, Note_on_c, 4, 36, 45
5, 85482, Note_on_c, 4, 36, 0
5, 85504, Note_on_c, 4, 40, 45
5, 85546, Note_on_c, 4, 40, 0
5, 85568, Note_on_c, 4, 43, 45
5, 85610, Note_on_c, 4, 43, 0
5, 85632, Note_on_c, 4, 48, 45
5, 85674, Note_on_c, 4, 48, 0
5, 85696, Note_on_c, 4, 52, 45
5, 85738, Note_on_c, 4, 52, 0
5, 85760, Note_on_c, 4, 55, 45
5, 85802, Note_on_c, 4, 55, 0
5, 85824, Note_on_c, 4, 60, 45
5, 85866, Note_on_c, 4, 60, 0
5, 85888, Note_on_c, 4, 62, 45
5, 85930, Note_on_c, 4, 62, 0
5, 85952, Note_on_c, 4, 64, 45
5, 85994, Note_on_c, 4, 64, 0
5, 86016, Note_on_c, 4, 65, 30
5, 86176, Note_on_c, 4, 65, 0
5, 86208, Note_on_c, 4, 65, 30
5, 86368, Note_on_c, 4, 65, 0
5, 86400, Note_on_c, 4, 65, 30
5, 86432, Note_on_c, 4, 65, 0
5, 86432, Note_on_c, 4, 67, 30
5, 86464, Note_on_c, 4, 67, 0
5, 86464, Note_on_c, 4, 65, 30
5, 86496, Note_on_c, 4, 65, 0
5, 86496, Note_on_c, 4, 64, 30
5, 86544, Note_on_c, 4, 64, 0
5, 86544, Note_on_c, 4, 65, 30
5, 86590, Note_on_c, 4, 65, 0
5, 86592, Note_on_c, 4, 64, 30
5, 86752, Note_on_c, 4, 64, 0
5, 87168, Note_on_c, 4, 62, 30
5, 87328, Note_on_c, 4, 62, 0
5, 87360, Note_on_c, 4, 62, 30
5, 87520, Note_on_c, 4, 62, 0
5, 87552, Note_on_c, 4, 62, 30
5, 87584, Note_on_c, 4, 62, 0
5, 87584, Note_on_c, 4, 64, 30
5, 87616, Note_on_c, 4, 64, 0
5, 87616, Note_on_c, 4, 62, 30
5, 87648, Note_on_c, 4, 62, 0
5, 87648, Note_on_c, 4, 60, 30
5, 87696, Note_on_c, 4, 60, 0
5, 87696, Note_on_c, 4, 62, 30
5, 87742, Note_on_c, 4, 62, 0
5, 87744, Note_on_c, 4, 60, 30
5, 87904, Note_on_c, 4, 60, 0
5, 88128, Note_on_c, 4, 54, 30
5, 88320, Note_on_c, 4, 54, 0
5, 88320, Note_on_c, 4, 55, 31
5, 88480, Note_on_c, 4, 55, 0
5, 88704, Note_on_c, 4, 43, 33
5, 88896, Note_on_c, 4, 43, 0
5, 88896, Note_on_c, 4, 48, 34
5, 89056, Note_on_c, 4, 48, 0
5, 89280, Note_on_c, 4, 42, 37
5, 89472, Note_on_c, 4, 42, 0
5, 89472, Note_on_c, 4, 43, 39
5, 89632, Note_on_c, 4, 43, 0
5, 89856, Note_on_c, 4, 43, 43
5, 90048, Note_on_c, 4, 43, 0
5, 90048, Note_on_c, 4, 48, 45
5, 90208, Note_on_c, 4, 48, 0
5, 90240, Note_on_c, 4, 36, 45
5, 90400, Note_on_c, 4, 36, 0
5, 90432, Note_on_c, 4, 36, 45
5, 90592, Note_on_c, 4, 36, 0
5, 90624, Note_on_c, 4, 36, 45
5, 90784, Note_on_c, 4, 36, 0
5, 91776, Note_on_c, 4, 47, 30
5, 92352, Note_on_c, 4, 47, 0
5, 92352, Note_on_c, 4, 45, 30
5, 92928, Note_on_c, 4, 45, 0
5, 92928, Note_on_c, 4, 43, 30
5, 93504, Note_on_c, 4, 43, 0
5, 93504, Note_on_c, 4, 42, 30
5, 94080, Note_on_c, 4, 42, 0
5, 94080, Note_on_c, 4, 40, 30
5, 94608, Note_on_c, 4, 40, 0
5, 94656, Note_on_c, 4, 38, 30
5, 94816, Note_on_c, 4, 38, 0
5, 96000, Note_on_c, 4, 43, 45
5, 96048, Note_on_c, 4, 43, 0
5, 96576, Note_on_c, 4, 55, 45
5, 96624, Note_on_c, 4, 55, 0
5, 97152, Note_on_c, 4, 57, 45
5, 97200, Note_on_c, 4, 57, 0
5, 97344, Note_on_c, 4, 55, 45
5, 97392, Note_on_c, 4, 55, 0
5, 97536, Note_on_c, 4, 54, 45
5, 97584, Note_on_c, 4, 54, 0
5, 97728, Note_on_c, 4, 50, 45
5, 97776, Note_on_c, 4, 50, 0
5, 98304, Note_on_c, 4, 50, 45
5, 98352, Note_on_c, 4, 50, 0
5, 98880, Note_on_c, 4, 54, 45
5, 98928, Note_on_c, 4, 54, 0
5, 99072, Note_on_c, 4, 55, 45
5, 99120, Note_on_c, 4, 55, 0
5, 99456, Note_on_c, 4, 48, 45
5, 99504, Note_on_c, 4, 48, 0
5, 99648, Note_on_c, 4, 50, 45
5, 99696, Note_on_c, 4, 50, 0
5, 100032, Note_on_c, 4, 43, 45
5, 100080, Note_on_c, 4, 43, 0
5, 100416, Note_on_c, 4, 47, 127
5, 100672, Note_on_c, 4, 47, 0
5, 100704, Note_on_c, 4, 59, 45
5, 100736, Note_on_c, 4, 59, 0
5, 100800, Note_on_c, 4, 59, 45
5, 100832, Note_on_c, 4, 59, 0
5, 100896, Note_on_c, 4, 59, 45
5, 100928, Note_on_c, 4, 59, 0
5, 100992, Note_on_c, 4, 59, 45
5, 101024, Note_on_c, 4, 59, 0
5, 101088, Note_on_c, 4, 59, 45
5, 101120, Note_on_c, 4, 59, 0
5, 101184, Note_on_c, 4, 59, 45
5, 101216, Note_on_c, 4, 59, 0
5, 101280, Note_on_c, 4, 59, 45
5, 101312, Note_on_c, 4, 59, 0
5, 101376, Note_on_c, 4, 59, 45
5, 101408, Note_on_c, 4, 59, 0
5, 101472, Note_on_c, 4, 59, 45
5, 101504, Note_on_c, 4, 59, 0
5, 101568, Note_on_c, 4, 59, 45
5, 101728, Note_on_c, 4, 59, 0
5, 101760, Note_on_c, 4, 59, 45
5, 101920, Note_on_c, 4, 59, 0
5, 101952, Note_on_c, 4, 59, 45
5, 102112, Note_on_c, 4, 59, 0
5, 102144, Note_on_c, 4, 59, 45
5, 102304, Note_on_c, 4, 59, 0
5, 102720, Note_on_c, 4, 43, 92
5, 103056, Note_on_c, 4, 43, 0
5, 103104, Note_on_c, 4, 62, 92
5, 103136, Note_on_c, 4, 62, 0
5, 103200, Note_on_c, 4, 60, 92
5, 103232, Note_on_c, 4, 60, 0
5, 103296, Note_on_c, 4, 59, 92
5, 103328, Note_on_c, 4, 59, 0
5, 103392, Note_on_c, 4, 57, 92
5, 103424, Note_on_c, 4, 57, 0
5, 103488, Note_on_c, 4, 55, 92
5, 103520, Note_on_c, 4, 55, 0
5, 103584, Note_on_c, 4, 53, 92
5, 103616, Note_on_c, 4, 53, 0
5, 103680, Note_on_c, 4, 52, 92
5, 103712, Note_on_c, 4, 52, 0
5, 103776, Note_on_c, 4, 50, 92
5, 103808, Note_on_c, 4, 50, 0
5, 103872, Note_on_c, 4, 48, 92
5, 103966, Note_on_c, 4, 48, 0
5, 103968, Note_on_c, 4, 47, 89
5, 104062, Note_on_c, 4, 47, 0
5, 104064, Note_on_c, 4, 48, 86
5, 104158, Note_on_c, 4, 48, 0
5, 104160, Note_on_c, 4, 47, 83
5, 104254, Note_on_c, 4, 47, 0
5, 104256, Note_on_c, 4, 48, 80
5, 104350, Note_on_c, 4, 48, 0
5, 104352, Note_on_c, 4, 45, 77
5, 104446, Note_on_c, 4, 45, 0
5, 104448, Note_on_c, 4, 50, 73
5, 104640, Note_on_c, 4, 50, 0
5, 104640, Note_on_c, 4, 38, 65
5, 104734, Note_on_c, 4, 38, 0
5, 105120, Note_on_c, 4, 47, 45
5, 105168, Note_on_c, 4, 47, 0
5, 105168, Note_on_c, 4, 50, 45
5, 105216, Note_on_c, 4, 50, 0
5, 105216, Note_on_c, 4, 55, 45
5, 105248, Note_on_c, 4, 55, 0
5, 105696, Note_on_c, 4, 50, 45
5, 105744, Note_on_c, 4, 50, 0
5, 105744, Note_on_c, 4, 47, 45
5, 105792, Note_on_c, 4, 47, 0
5, 105792, Note_on_c, 4, 43, 45
5, 105824, Note_on_c, 4, 43, 0
5, 106368, Note_on_c, 4, 45, 45
5, 106416, Note_on_c, 4, 45, 0
5, 106560, Note_on_c, 4, 43, 45
5, 106608, Note_on_c, 4, 43, 0
5, 106752, Note_on_c, 4, 42, 45
5, 106800, Note_on_c, 4, 42, 0
5, 106944, Note_on_c, 4, 38, 45
5, 106992, Note_on_c, 4, 38, 0
5, 107136, Note_on_c, 4, 57, 45
5, 107168, Note_on_c, 4, 57, 0
5, 107232, Note_on_c, 4, 57, 45
5, 107280, Note_on_c, 4, 57, 0
5, 107280, Note_on_c, 4, 54, 45
5, 107328, Note_on_c, 4, 54, 0
5, 107328, Note_on_c, 4, 60, 45
5, 107376, Note_on_c, 4, 60, 0
5, 107712, Note_on_c, 4, 57, 45
5, 107744, Note_on_c, 4, 57, 0
5, 107808, Note_on_c, 4, 57, 45
5, 107856, Note_on_c, 4, 57, 0
5, 107856, Note_on_c, 4, 54, 45
5, 107904, Note_on_c, 4, 54, 0
5, 107904, Note_on_c, 4, 51, 45
5, 107952, Note_on_c, 4, 51, 0
5, 108288, Note_on_c, 4, 54, 45
5, 108320, Note_on_c, 4, 54, 0
5, 108384, Note_on_c, 4, 54, 45
5, 108432, Note_on_c, 4, 54, 0
5, 108432, Note_on_c, 4, 51, 45
5, 108480, Note_on_c, 4, 51, 0
5, 108480, Note_on_c, 4, 47, 45
5, 108512, Note_on_c, 4, 47, 0
5, 108576, Note_on_c, 4, 54, 45
5, 108624, Note_on_c, 4, 54, 0
5, 108624, Note_on_c, 4, 51, 45
5, 108670, Note_on_c, 4, 51, 0
5, 108672, Note_on_c, 4, 47, 45
5, 108704, Note_on_c, 4, 47, 0
5, 108768, Note_on_c, 4, 54, 45
5, 108816, Note_on_c, 4, 54, 0
5, 108816, Note_on_c, 4, 51, 45
5, 108862, Note_on_c, 4, 51, 0
5, 108864, Note_on_c, 4, 47, 45
5, 108896, Note_on_c, 4, 47, 0
5, 108960, Note_on_c, 4, 54, 45
5, 109008, Note_on_c, 4, 54, 0
5, 109008, Note_on_c, 4, 51, 45
5, 109054, Note_on_c, 4, 51, 0
5, 109056, Note_on_c, 4, 47, 45
5, 109088, Note_on_c, 4, 47, 0
5, 109152, Note_on_c, 4, 55, 45
5, 109200, Note_on_c, 4, 55, 0
5, 109200, Note_on_c, 4, 52, 45
5, 109246, Note_on_c, 4, 52, 0
5, 109248, Note_on_c, 4, 47, 45
5, 109280, Note_on_c, 4, 47, 0
5, 109344, Note_on_c, 4, 55, 45
5, 109392, Note_on_c, 4, 55, 0
5, 109392, Note_on_c, 4, 52, 45
5, 109438, Note_on_c, 4, 52, 0
5, 109440, Note_on_c, 4, 47, 45
5, 109472, Note_on_c, 4, 47, 0
5, 109536, Note_on_c, 4, 55, 45
5, 109584, Note_on_c, 4, 55, 0
5, 109584, Note_on_c, 4, 52, 45
5, 109630, Note_on_c, 4, 52, 0
5, 109632, Note_on_c, 4, 47, 45
5, 109664, Note_on_c, 4, 47, 0
5, 109728, Note_on_c, 4, 49, 45
5, 109760, Note_on_c, 4, 49, 0
5, 109824, Note_on_c, 4, 50, 50
5, 109856, Note_on_c, 4, 50, 0
5, 109920, Note_on_c, 4, 49, 55
5, 109952, Note_on_c, 4, 49, 0
5, 110016, Note_on_c, 4, 50, 60
5, 110048, Note_on_c, 4, 50, 0
5, 110112, Note_on_c, 4, 49, 66
5, 110144, Note_on_c, 4, 49, 0
5, 110208, Note_on_c, 4, 47, 72
5, 110302, Note_on_c, 4, 47, 0
5, 110304, Note_on_c, 4, 45, 78
5, 110398, Note_on_c, 4, 45, 0
5, 110400, Note_on_c, 4, 43, 84
5, 110494, Note_on_c, 4, 43, 0
5, 110496, Note_on_c, 4, 41, 90
5, 110590, Note_on_c, 4, 41, 0
5, 110592, Note_on_c, 4, 40, 96
5, 110686, Note_on_c, 4, 40, 0
5, 110688, Note_on_c, 4, 38, 102
5, 110782, Note_on_c, 4, 38, 0
5, 110784, Note_on_c, 4, 36, 108
5, 110816, Note_on_c, 4, 36, 0
5, 110880, Note_on_c, 4, 36, 108
5, 110928, Note_on_c, 4, 36, 0
5, 110928, Note_on_c, 4, 40, 108
5, 110976, Note_on_c, 4, 40, 0
5, 110976, Note_on_c, 4, 43, 108
5, 111024, Note_on_c, 4, 43, 0
5, 111456, Note_on_c, 4, 36, 108
5, 111504, Note_on_c, 4, 36, 0
5, 111504, Note_on_c, 4, 40, 108
5, 111552, Note_on_c, 4, 40, 0
5, 111552, Note_on_c, 4, 45, 108
5, 111600, Note_on_c, 4, 45, 0
5, 111936, Note_on_c, 4, 38, 45
5, 111968, Note_on_c, 4, 38, 0
5, 112032, Note_on_c, 4, 43, 45
5, 112080, Note_on_c, 4, 43, 0
5, 112080, Note_on_c, 4, 47, 45
5, 112126, Note_on_c, 4, 47, 0
5, 112128, Note_on_c, 4, 50, 45
5, 112288, Note_on_c, 4, 50, 0
5, 112320, Note_on_c, 4, 50, 45
5, 112480, Note_on_c, 4, 50, 0
5, 112512, Note_on_c, 4, 43, 45
5, 112672, Note_on_c, 4, 43, 0
5, 112992, Note_on_c, 4, 50, 45
5, 113024, Note_on_c, 4, 50, 0
5, 113088, Note_on_c, 4, 42, 45
5, 113136, Note_on_c, 4, 42, 0
5, 113568, Note_on_c, 4, 50, 45
5, 113600, Note_on_c, 4, 50, 0
5, 113664, Note_on_c, 4, 43, 45
5, 113712, Note_on_c, 4, 43, 0
5, 114144, Note_on_c, 4, 47, 45
5, 114238, Note_on_c, 4, 47, 0
5, 114240, Note_on_c, 4, 48, 45
5, 114334, Note_on_c, 4, 48, 0
5, 114336, Note_on_c, 4, 49, 45
5, 114430, Note_on_c, 4, 49, 0
5, 114432, Note_on_c, 4, 50, 45
5, 114526, Note_on_c, 4, 50, 0
5, 114528, Note_on_c, 4, 52, 45
5, 114622, Note_on_c, 4, 52, 0
5, 114624, Note_on_c, 4, 48, 45
5, 114718, Note_on_c, 4, 48, 0
5, 114720, Note_on_c, 4, 50, 45
5, 114814, Note_on_c, 4, 50, 0
5, 114816, Note_on_c, 4, 55, 45
5, 114976, Note_on_c, 4, 55, 0
5, 115104, Note_on_c, 4, 42, 45
5, 115136, Note_on_c, 4, 42, 0
5, 115200, Note_on_c, 4, 43, 45
5, 115232, Note_on_c, 4, 43, 0
5, 115296, Note_on_c, 4, 44, 45
5, 115328, Note_on_c, 4, 44, 0
5, 115392, Note_on_c, 4, 45, 45
5, 115552, Note_on_c, 4, 45, 0
5, 115680, Note_on_c, 4, 44, 45
5, 115774, Note_on_c, 4, 44, 0
5, 115776, Note_on_c, 4, 45, 45
5, 115870, Note_on_c, 4, 45, 0
5, 115872, Note_on_c, 4, 46, 45
5, 115966, Note_on_c, 4, 46, 0
5, 115968, Note_on_c, 4, 47, 45
5, 116128, Note_on_c, 4, 47, 0
5, 116256, Note_on_c, 4, 47, 45
5, 116350, Note_on_c, 4, 47, 0
5, 116352, Note_on_c, 4, 48, 50
5, 116446, Note_on_c, 4, 48, 0
5, 116448, Note_on_c, 4, 49, 55
5, 116542, Note_on_c, 4, 49, 0
5, 116544, Note_on_c, 4, 50, 60
5, 116638, Note_on_c, 4, 50, 0
5, 116640, Note_on_c, 4, 51, 65
5, 116734, Note_on_c, 4, 51, 0
5, 116736, Note_on_c, 4, 52, 70
5, 116830, Note_on_c, 4, 52, 0
5, 116832, Note_on_c, 4, 48, 75
5, 116926, Note_on_c, 4, 48, 0
5, 116928, Note_on_c, 4, 50, 80
5, 117022, Note_on_c, 4, 50, 0
5, 117024, Note_on_c, 4, 38, 86
5, 117118, Note_on_c, 4, 38, 0
5, 117120, Note_on_c, 4, 43, 45
5, 117152, Note_on_c, 4, 43, 0
5, 117216, Note_on_c, 4, 42, 45
5, 117248, Note_on_c, 4, 42, 0
5, 117312, Note_on_c, 4, 43, 45
5, 117344, Note_on_c, 4, 43, 0
5, 117408, Note_on_c, 4, 42, 45
5, 117440, Note_on_c, 4, 42, 0
5, 117504, Note_on_c, 4, 43, 45
5, 117536, Note_on_c, 4, 43, 0
5, 117600, Note_on_c, 4, 47, 45
5, 117632, Note_on_c, 4, 47, 0
5, 117696, Note_on_c, 4, 50, 45
5, 117790, Note_on_c, 4, 50, 0
5, 117792, Note_on_c, 4, 49, 45
5, 117886, Note_on_c, 4, 49, 0
5, 117888, Note_on_c, 4, 50, 45
5, 117982, Note_on_c, 4, 50, 0
5, 117984, Note_on_c, 4, 49, 45
5, 118078, Note_on_c, 4, 49, 0
5, 118080, Note_on_c, 4, 50, 45
5, 118174, Note_on_c, 4, 50, 0
5, 118176, Note_on_c, 4, 54, 45
5, 118270, Note_on_c, 4, 54, 0
5, 118272, Note_on_c, 4, 55, 45
5, 118366, Note_on_c, 4, 55, 0
5, 118368, Note_on_c, 4, 54, 48
5, 118462, Note_on_c, 4, 54, 0
5, 118464, Note_on_c, 4, 55, 52
5, 118558, Note_on_c, 4, 55, 0
5, 118560, Note_on_c, 4, 54, 56
5, 118654, Note_on_c, 4, 54, 0
5, 118656, Note_on_c, 4, 55, 60
5, 118750, Note_on_c, 4, 55, 0
5, 118752, Note_on_c, 4, 59, 64
5, 118846, Note_on_c, 4, 59, 0
5, 118848, Note_on_c, 4, 62, 68
5, 118942, Note_on_c, 4, 62, 0
5, 118944, Note_on_c, 4, 61, 72
5, 119038, Note_on_c, 4, 61, 0
5, 119040, Note_on_c, 4, 62, 76
5, 119134, Note_on_c, 4, 62, 0
5, 119136, Note_on_c, 4, 61, 80
5, 119230, Note_on_c, 4, 61, 0
5, 119232, Note_on_c, 4, 62, 84
5, 119326, Note_on_c, 4, 62, 0
5, 119328, Note_on_c, 4, 50, 88
5, 119422, Note_on_c, 4, 50, 0
5, 119424, Note_on_c, 4, 55, 92
5, 119584, Note_on_c, 4, 55, 0
5, 119808, Note_on_c, 4, 55, 92
5, 119840, Note_on_c, 4, 55, 0
5, 119904, Note_on_c, 4, 50, 92
5, 119952, Note_on_c, 4, 50, 0
5, 119952, Note_on_c, 4, 47, 92
5, 120000, Note_on_c, 4, 47, 0
5, 120000, Note_on_c, 4, 43, 92
5, 120160, Note_on_c, 4, 43, 0
5, 120160, End_track
0, 0, End_of_file