0, 0, Header, 1, 5, 192
1, 0, Start_track
1, 0, Title_t, "String Quartet No.2 - IV"
1, 0, Text_t, "By Ludwig van Beethoven"
1, 0, Copyright_t, "Copyright \251 2000 by S.E.Edwards"
1, 0, Copyright_t, "All Rights Reserved"
1, 0, Text_t, "Generated by NoteWorthy Composer"
1, 0, Tempo, 375000
1, 0, Key_signature, 1, "major"
1, 0, Time_signature, 2, 2, 24, 8
1, 0, End_track
2, 0, Start_track
2, 0, MIDI_port, 0
2, 0, Title_t, "Violino I."
2, 0, Program_c, 1, 0
2, 0, Control_c, 1, 7, 127
2, 0, Control_c, 1, 10, 64
2, 1536, Note_on_c, 1, 62, 45
2, 1584, Note_on_c, 1, 62, 0
2, 1728, Note_on_c, 1, 67, 45
2, 1776, Note_on_c, 1, 67, 0
2, 1920, Note_on_c, 1, 71, 45
2, 2208, Note_on_c, 1, 71, 0
2, 2208, Note_on_c, 1, 69, 45
2, 2256, Note_on_c, 1, 69, 0
2, 2256, Note_on_c, 1, 67, 45
2, 2302, Note_on_c, 1, 67, 0
2, 2304, Note_on_c, 1, 66, 45
2, 2336, Note_on_c, 1, 66, 0
2, 2400, Note_on_c, 1, 69, 45
2, 2432, Note_on_c, 1, 69, 0
2, 2496, Note_on_c, 1, 67, 45
2, 2528, Note_on_c, 1, 67, 0
2, 2592, Note_on_c, 1, 64, 45
2, 2624, Note_on_c, 1, 64, 0
2, 2688, Note_on_c, 1, 62, 60
2, 2782, Note_on_c, 1, 62, 0
2, 4608, Note_on_c, 1, 75, 45
2, 4656, Note_on_c, 1, 75, 0
2, 4800, Note_on_c, 1, 78, 45
2, 4848, Note_on_c, 1, 78, 0
2, 4992, Note_on_c, 1, 81, 45
2, 5280, Note_on_c, 1, 81, 0
2, 5280, Note_on_c, 1, 79, 45
2, 5328, Note_on_c, 1, 79, 0
2, 5328, Note_on_c, 1, 78, 45
2, 5374, Note_on_c, 1, 78, 0
2, 5376, Note_on_c, 1, 76, 45
2, 5408, Note_on_c, 1, 76, 0
2, 5472, Note_on_c, 1, 79, 45
2, 5504, Note_on_c, 1, 79, 0
2, 5568, Note_on_c, 1, 78, 45
2, 5600, Note_on_c, 1, 78, 0
2, 5664, Note_on_c, 1, 75, 45
2, 5696, Note_on_c, 1, 75, 0
2, 5760, Note_on_c, 1, 76, 45
2, 5854, Note_on_c, 1, 76, 0
2, 6144, Note_on_c, 1, 77, 45
2, 6336, Note_on_c, 1, 77, 0
2, 6336, Note_on_c, 1, 76, 45
2, 6384, Note_on_c, 1, 76, 0
2, 6384, Note_on_c, 1, 74, 45
2, 6432, Note_on_c, 1, 74, 0
2, 6432, Note_on_c, 1, 72, 45
2, 6480, Note_on_c, 1, 72, 0
2, 6480, Note_on_c, 1, 71, 45
2, 6526, Note_on_c, 1, 71, 0
2, 6528, Note_on_c, 1, 74, 45
2, 6552, Note_on_c, 1, 74, 0
2, 6552, Note_on_c, 1, 72, 45
2, 6576, Note_on_c, 1, 72, 0
2, 6576, Note_on_c, 1, 71, 45
2, 6624, Note_on_c, 1, 71, 0
2, 6624, Note_on_c, 1, 72, 45
2, 6672, Note_on_c, 1, 72, 0
2, 6672, Note_on_c, 1, 74, 45
2, 6720, Note_on_c, 1, 74, 0
2, 6720, Note_on_c, 1, 76, 45
2, 6814, Note_on_c, 1, 76, 0
2, 6912, Note_on_c, 1, 84, 45
2, 7200, Note_on_c, 1, 84, 0
2, 7200, Note_on_c, 1, 81, 62
2, 7248, Note_on_c, 1, 81, 0
2, 7248, Note_on_c, 1, 78, 65
2, 7296, Note_on_c, 1, 78, 0
2, 7296, Note_on_c, 1, 74, 68
2, 7328, Note_on_c, 1, 74, 0
2, 7392, Note_on_c, 1, 74, 74
2, 7424, Note_on_c, 1, 74, 0
2, 7488, Note_on_c, 1, 74, 80
2, 7520, Note_on_c, 1, 74, 0
2, 7584, Note_on_c, 1, 74, 86
2, 7616, Note_on_c, 1, 74, 0
2, 7680, Note_on_c, 1, 74, 92
2, 7728, Note_on_c, 1, 74, 0
2, 7872, Note_on_c, 1, 79, 92
2, 7920, Note_on_c, 1, 79, 0
2, 8064, Note_on_c, 1, 83, 127
2, 8352, Note_on_c, 1, 83, 0
2, 8352, Note_on_c, 1, 81, 92
2, 8400, Note_on_c, 1, 81, 0
2, 8400, Note_on_c, 1, 79, 92
2, 8446, Note_on_c, 1, 79, 0
2, 8448, Note_on_c, 1, 78, 92
2, 8480, Note_on_c, 1, 78, 0
2, 8544, Note_on_c, 1, 79, 92
2, 8576, Note_on_c, 1, 79, 0
2, 8640, Note_on_c, 1, 81, 92
2, 8672, Note_on_c, 1, 81, 0
2, 8736, Note_on_c, 1, 83, 92
2, 8768, Note_on_c, 1, 83, 0
2, 8832, Note_on_c, 1, 84, 92
2, 8926, Note_on_c, 1, 84, 0
2, 9216, Note_on_c, 1, 74, 92
2, 9264, Note_on_c, 1, 74, 0
2, 9408, Note_on_c, 1, 81, 92
2, 9456, Note_on_c, 1, 81, 0
2, 9600, Note_on_c, 1, 84, 127
2, 9888, Note_on_c, 1, 84, 0
2, 9888, Note_on_c, 1, 83, 92
2, 9936, Note_on_c, 1, 83, 0
2, 9936, Note_on_c, 1, 81, 92
2, 9982, Note_on_c, 1, 81, 0
2, 9984, Note_on_c, 1, 86, 92
2, 10016, Note_on_c, 1, 86, 0
2, 10080, Note_on_c, 1, 83, 92
2, 10112, Note_on_c, 1, 83, 0
2, 10176, Note_on_c, 1, 84, 92
2, 10208, Note_on_c, 1, 84, 0
2, 10272, Note_on_c, 1, 81, 92
2, 10304, Note_on_c, 1, 81, 0
2, 10368, Note_on_c, 1, 79, 92
2, 10400, Note_on_c, 1, 79, 0
2, 10464, Note_on_c, 1, 83, 45
2, 10512, Note_on_c, 1, 83, 0
2, 10512, Note_on_c, 1, 79, 45
2, 10558, Note_on_c, 1, 79, 0
2, 10560, Note_on_c, 1, 74, 45
2, 10846, Note_on_c, 1, 74, 0
2, 10848, Note_on_c, 1, 74, 45
2, 10896, Note_on_c, 1, 74, 0
2, 10896, Note_on_c, 1, 73, 45
2, 10942, Note_on_c, 1, 73, 0
2, 10944, Note_on_c, 1, 74, 45
2, 11230, Note_on_c, 1, 74, 0
2, 11232, Note_on_c, 1, 74, 45
2, 11280, Note_on_c, 1, 74, 0
2, 11280, Note_on_c, 1, 76, 45
2, 11326, Note_on_c, 1, 76, 0
2, 11328, Note_on_c, 1, 72, 45
2, 11360, Note_on_c, 1, 72, 0
2, 11424, Note_on_c, 1, 72, 45
2, 11472, Note_on_c, 1, 72, 0
2, 11472, Note_on_c, 1, 74, 45
2, 11518, Note_on_c, 1, 74, 0
2, 11520, Note_on_c, 1, 71, 60
2, 11552, Note_on_c, 1, 71, 0
2, 11616, Note_on_c, 1, 71, 45
2, 11664, Note_on_c, 1, 71, 0
2, 11664, Note_on_c, 1, 72, 45
2, 11710, Note_on_c, 1, 72, 0
2, 11712, Note_on_c, 1, 69, 45
2, 11744, Note_on_c, 1, 69, 0
2, 11808, Note_on_c, 1, 69, 45
2, 11856, Note_on_c, 1, 69, 0
2, 11856, Note_on_c, 1, 71, 45
2, 11902, Note_on_c, 1, 71, 0
2, 11904, Note_on_c, 1, 67, 45
2, 11998, Note_on_c, 1, 67, 0
2, 12000, Note_on_c, 1, 71, 45
2, 12048, Note_on_c, 1, 71, 0
2, 12048, Note_on_c, 1, 67, 45
2, 12094, Note_on_c, 1, 67, 0
2, 12096, Note_on_c, 1, 62, 45
2, 12382, Note_on_c, 1, 62, 0
2, 12384, Note_on_c, 1, 62, 45
2, 12432, Note_on_c, 1, 62, 0
2, 12432, Note_on_c, 1, 61, 45
2, 12478, Note_on_c, 1, 61, 0
2, 12480, Note_on_c, 1, 62, 45
2, 12766, Note_on_c, 1, 62, 0
2, 12816, Note_on_c, 1, 60, 53
2, 12864, Note_on_c, 1, 60, 0
2, 12864, Note_on_c, 1, 59, 56
2, 12912, Note_on_c, 1, 59, 0
2, 12912, Note_on_c, 1, 60, 59
2, 12960, Note_on_c, 1, 60, 0
2, 12960, Note_on_c, 1, 59, 62
2, 13008, Note_on_c, 1, 59, 0
2, 13008, Note_on_c, 1, 57, 65
2, 13054, Note_on_c, 1, 57, 0
2, 13056, Note_on_c, 1, 55, 68
2, 13088, Note_on_c, 1, 55, 0
2, 13200, Note_on_c, 1, 66, 77
2, 13246, Note_on_c, 1, 66, 0
2, 13296, Note_on_c, 1, 69, 83
2, 13344, Note_on_c, 1, 69, 0
2, 13344, Note_on_c, 1, 71, 86
2, 13392, Note_on_c, 1, 71, 0
2, 13392, Note_on_c, 1, 73, 89
2, 13438, Note_on_c, 1, 73, 0
2, 13440, Note_on_c, 1, 74, 92
2, 13472, Note_on_c, 1, 74, 0
2, 13536, Note_on_c, 1, 74, 92
2, 13584, Note_on_c, 1, 74, 0
2, 13584, Note_on_c, 1, 73, 92
2, 13632, Note_on_c, 1, 73, 0
2, 13632, Note_on_c, 1, 74, 92
2, 13680, Note_on_c, 1, 74, 0
2, 13680, Note_on_c, 1, 76, 92
2, 13728, Note_on_c, 1, 76, 0
2, 13728, Note_on_c, 1, 78, 92
2, 13776, Note_on_c, 1, 78, 0
2, 13776, Note_on_c, 1, 74, 92
2, 13822, Note_on_c, 1, 74, 0
2, 13824, Note_on_c, 1, 79, 92
2, 13856, Note_on_c, 1, 79, 0
2, 13920, Note_on_c, 1, 79, 92
2, 13968, Note_on_c, 1, 79, 0
2, 13968, Note_on_c, 1, 78, 92
2, 14016, Note_on_c, 1, 78, 0
2, 14016, Note_on_c, 1, 79, 92
2, 14064, Note_on_c, 1, 79, 0
2, 14064, Note_on_c, 1, 81, 92
2, 14112, Note_on_c, 1, 81, 0
2, 14112, Note_on_c, 1, 83, 92
2, 14160, Note_on_c, 1, 83, 0
2, 14160, Note_on_c, 1, 85, 92
2, 14206, Note_on_c, 1, 85, 0
2, 14208, Note_on_c, 1, 86, 108
2, 14302, Note_on_c, 1, 86, 0
2, 14976, Note_on_c, 1, 81, 108
2, 15456, Note_on_c, 1, 81, 0
2, 15456, Note_on_c, 1, 82, 108
2, 15552, Note_on_c, 1, 82, 0
2, 15552, Note_on_c, 1, 81, 108
2, 15648, Note_on_c, 1, 81, 0
2, 15648, Note_on_c, 1, 82, 108
2, 15742, Note_on_c, 1, 82, 0
2, 15744, Note_on_c, 1, 81, 108
2, 15838, Note_on_c, 1, 81, 0
2, 16512, Note_on_c, 1, 86, 108
2, 16992, Note_on_c, 1, 86, 0
2, 16992, Note_on_c, 1, 85, 108
2, 17088, Note_on_c, 1, 85, 0
2, 17088, Note_on_c, 1, 86, 108
2, 17184, Note_on_c, 1, 86, 0
2, 17184, Note_on_c, 1, 85, 108
2, 17278, Note_on_c, 1, 85, 0
2, 17280, Note_on_c, 1, 86, 108
2, 17328, Note_on_c, 1, 86, 0
2, 17472, Note_on_c, 1, 89, 108
2, 17760, Note_on_c, 1, 89, 0
2, 17760, Note_on_c, 1, 88, 108
2, 17856, Note_on_c, 1, 88, 0
2, 17856, Note_on_c, 1, 89, 108
2, 17952, Note_on_c, 1, 89, 0
2, 17952, Note_on_c, 1, 88, 108
2, 18046, Note_on_c, 1, 88, 0
2, 18048, Note_on_c, 1, 89, 108
2, 18208, Note_on_c, 1, 89, 0
2, 18240, Note_on_c, 1, 77, 108
2, 18528, Note_on_c, 1, 77, 0
2, 18528, Note_on_c, 1, 76, 108
2, 18622, Note_on_c, 1, 76, 0
2, 18624, Note_on_c, 1, 77, 108
2, 18656, Note_on_c, 1, 77, 0
2, 18720, Note_on_c, 1, 77, 108
2, 18752, Note_on_c, 1, 77, 0
2, 18816, Note_on_c, 1, 76, 108
2, 18848, Note_on_c, 1, 76, 0
2, 18912, Note_on_c, 1, 69, 108
2, 18944, Note_on_c, 1, 69, 0
2, 19008, Note_on_c, 1, 81, 108
2, 19294, Note_on_c, 1, 81, 0
2, 19296, Note_on_c, 1, 71, 108
2, 19390, Note_on_c, 1, 71, 0
2, 19392, Note_on_c, 1, 83, 108
2, 19678, Note_on_c, 1, 83, 0
2, 19680, Note_on_c, 1, 73, 108
2, 19774, Note_on_c, 1, 73, 0
2, 19776, Note_on_c, 1, 85, 108
2, 20062, Note_on_c, 1, 85, 0
2, 20064, Note_on_c, 1, 74, 108
2, 20158, Note_on_c, 1, 74, 0
2, 20160, Note_on_c, 1, 86, 108
2, 20446, Note_on_c, 1, 86, 0
2, 20448, Note_on_c, 1, 76, 92
2, 20544, Note_on_c, 1, 76, 0
2, 20544, Note_on_c, 1, 88, 86
2, 20638, Note_on_c, 1, 88, 0
2, 20640, Note_on_c, 1, 86, 80
2, 20734, Note_on_c, 1, 86, 0
2, 20736, Note_on_c, 1, 85, 73
2, 20768, Note_on_c, 1, 85, 0
2, 20832, Note_on_c, 1, 83, 66
2, 20864, Note_on_c, 1, 83, 0
2, 20928, Note_on_c, 1, 81, 59
2, 20960, Note_on_c, 1, 81, 0
2, 21024, Note_on_c, 1, 79, 52
2, 21056, Note_on_c, 1, 79, 0
2, 21120, Note_on_c, 1, 78, 45
2, 21214, Note_on_c, 1, 78, 0
2, 21216, Note_on_c, 1, 78, 45
2, 21376, Note_on_c, 1, 78, 0
2, 21408, Note_on_c, 1, 78, 45
2, 21598, Note_on_c, 1, 78, 0
2, 21600, Note_on_c, 1, 78, 45
2, 21694, Note_on_c, 1, 78, 0
2, 21696, Note_on_c, 1, 79, 45
2, 21744, Note_on_c, 1, 79, 0
2, 21744, Note_on_c, 1, 78, 45
2, 21792, Note_on_c, 1, 78, 0
2, 21792, Note_on_c, 1, 76, 45
2, 21840, Note_on_c, 1, 76, 0
2, 21840, Note_on_c, 1, 78, 45
2, 21886, Note_on_c, 1, 78, 0
2, 21888, Note_on_c, 1, 79, 45
2, 21984, Note_on_c, 1, 79, 0
2, 21984, Note_on_c, 1, 76, 45
2, 22080, Note_on_c, 1, 76, 0
2, 22080, Note_on_c, 1, 78, 45
2, 22176, Note_on_c, 1, 78, 0
2, 22176, Note_on_c, 1, 74, 45
2, 22270, Note_on_c, 1, 74, 0
2, 22272, Note_on_c, 1, 74, 45
2, 22368, Note_on_c, 1, 74, 0
2, 22368, Note_on_c, 1, 73, 45
2, 22464, Note_on_c, 1, 73, 0
2, 22464, Note_on_c, 1, 71, 45
2, 22560, Note_on_c, 1, 71, 0
2, 22560, Note_on_c, 1, 69, 45
2, 22654, Note_on_c, 1, 69, 0
2, 22656, Note_on_c, 1, 81, 45
2, 22750, Note_on_c, 1, 81, 0
2, 22752, Note_on_c, 1, 81, 45
2, 22912, Note_on_c, 1, 81, 0
2, 22944, Note_on_c, 1, 81, 45
2, 23134, Note_on_c, 1, 81, 0
2, 23136, Note_on_c, 1, 81, 45
2, 23230, Note_on_c, 1, 81, 0
2, 23232, Note_on_c, 1, 83, 45
2, 23280, Note_on_c, 1, 83, 0
2, 23280, Note_on_c, 1, 81, 45
2, 23328, Note_on_c, 1, 81, 0
2, 23328, Note_on_c, 1, 79, 45
2, 23376, Note_on_c, 1, 79, 0
2, 23376, Note_on_c, 1, 81, 45
2, 23422, Note_on_c, 1, 81, 0
2, 23424, Note_on_c, 1, 83, 45
2, 23456, Note_on_c, 1, 83, 0
2, 23520, Note_on_c, 1, 79, 45
2, 23552, Note_on_c, 1, 79, 0
2, 23616, Note_on_c, 1, 76, 45
2, 23648, Note_on_c, 1, 76, 0
2, 23712, Note_on_c, 1, 73, 45
2, 23744, Note_on_c, 1, 73, 0
2, 23808, Note_on_c, 1, 74, 45
2, 23902, Note_on_c, 1, 74, 0
2, 24960, Note_on_c, 1, 79, 45
2, 24992, Note_on_c, 1, 79, 0
2, 25056, Note_on_c, 1, 76, 45
2, 25088, Note_on_c, 1, 76, 0
2, 25152, Note_on_c, 1, 73, 45
2, 25184, Note_on_c, 1, 73, 0
2, 25248, Note_on_c, 1, 67, 45
2, 25280, Note_on_c, 1, 67, 0
2, 25344, Note_on_c, 1, 67, 45
2, 25376, Note_on_c, 1, 67, 0
2, 25440, Note_on_c, 1, 67, 45
2, 25472, Note_on_c, 1, 67, 0
2, 25536, Note_on_c, 1, 69, 45
2, 25584, Note_on_c, 1, 69, 0
2, 25584, Note_on_c, 1, 67, 45
2, 25632, Note_on_c, 1, 67, 0
2, 25632, Note_on_c, 1, 66, 45
2, 25680, Note_on_c, 1, 66, 0
2, 25680, Note_on_c, 1, 67, 45
2, 25726, Note_on_c, 1, 67, 0
2, 25728, Note_on_c, 1, 69, 45
2, 25888, Note_on_c, 1, 69, 0
2, 26496, Note_on_c, 1, 83, 45
2, 26528, Note_on_c, 1, 83, 0
2, 26592, Note_on_c, 1, 79, 45
2, 26624, Note_on_c, 1, 79, 0
2, 26688, Note_on_c, 1, 74, 45
2, 26720, Note_on_c, 1, 74, 0
2, 26784, Note_on_c, 1, 71, 45
2, 26816, Note_on_c, 1, 71, 0
2, 26880, Note_on_c, 1, 71, 45
2, 26912, Note_on_c, 1, 71, 0
2, 26976, Note_on_c, 1, 71, 45
2, 27008, Note_on_c, 1, 71, 0
2, 27072, Note_on_c, 1, 73, 45
2, 27120, Note_on_c, 1, 73, 0
2, 27120, Note_on_c, 1, 71, 45
2, 27168, Note_on_c, 1, 71, 0
2, 27168, Note_on_c, 1, 69, 45
2, 27216, Note_on_c, 1, 69, 0
2, 27216, Note_on_c, 1, 71, 45
2, 27262, Note_on_c, 1, 71, 0
2, 27264, Note_on_c, 1, 73, 63
2, 27358, Note_on_c, 1, 73, 0
2, 27360, Note_on_c, 1, 73, 45
2, 27454, Note_on_c, 1, 73, 0
2, 27456, Note_on_c, 1, 74, 45
2, 27504, Note_on_c, 1, 74, 0
2, 27504, Note_on_c, 1, 73, 45
2, 27552, Note_on_c, 1, 73, 0
2, 27552, Note_on_c, 1, 71, 45
2, 27600, Note_on_c, 1, 71, 0
2, 27600, Note_on_c, 1, 73, 45
2, 27646, Note_on_c, 1, 73, 0
2, 27648, Note_on_c, 1, 74, 63
2, 27742, Note_on_c, 1, 74, 0
2, 27744, Note_on_c, 1, 74, 45
2, 27838, Note_on_c, 1, 74, 0
2, 27840, Note_on_c, 1, 76, 45
2, 27888, Note_on_c, 1, 76, 0
2, 27888, Note_on_c, 1, 74, 45
2, 27936, Note_on_c, 1, 74, 0
2, 27936, Note_on_c, 1, 73, 45
2, 27984, Note_on_c, 1, 73, 0
2, 27984, Note_on_c, 1, 74, 45
2, 28030, Note_on_c, 1, 74, 0
2, 28032, Note_on_c, 1, 76, 63
2, 28126, Note_on_c, 1, 76, 0
2, 28128, Note_on_c, 1, 76, 45
2, 28222, Note_on_c, 1, 76, 0
2, 28224, Note_on_c, 1, 78, 45
2, 28272, Note_on_c, 1, 78, 0
2, 28272, Note_on_c, 1, 76, 45
2, 28320, Note_on_c, 1, 76, 0
2, 28320, Note_on_c, 1, 74, 45
2, 28368, Note_on_c, 1, 74, 0
2, 28368, Note_on_c, 1, 76, 45
2, 28414, Note_on_c, 1, 76, 0
2, 28416, Note_on_c, 1, 78, 63
2, 28510, Note_on_c, 1, 78, 0
2, 28512, Note_on_c, 1, 78, 45
2, 28606, Note_on_c, 1, 78, 0
2, 28608, Note_on_c, 1, 79, 45
2, 28656, Note_on_c, 1, 79, 0
2, 28656, Note_on_c, 1, 78, 45
2, 28704, Note_on_c, 1, 78, 0
2, 28704, Note_on_c, 1, 76, 45
2, 28752, Note_on_c, 1, 76, 0
2, 28752, Note_on_c, 1, 78, 45
2, 28798, Note_on_c, 1, 78, 0
2, 28800, Note_on_c, 1, 79, 45
2, 28992, Note_on_c, 1, 79, 0
2, 28992, Note_on_c, 1, 76, 45
2, 29184, Note_on_c, 1, 76, 0
2, 29184, Note_on_c, 1, 73, 45
2, 29520, Note_on_c, 1, 73, 0
2, 29568, Note_on_c, 1, 85, 45
2, 29760, Note_on_c, 1, 85, 0
2, 29760, Note_on_c, 1, 79, 45
2, 29952, Note_on_c, 1, 79, 0
2, 29952, Note_on_c, 1, 76, 45
2, 30288, Note_on_c, 1, 76, 0
2, 30336, Note_on_c, 1, 88, 45
2, 30528, Note_on_c, 1, 88, 0
2, 30528, Note_on_c, 1, 85, 45
2, 30720, Note_on_c, 1, 85, 0
2, 30720, Note_on_c, 1, 79, 45
2, 31056, Note_on_c, 1, 79, 0
2, 31104, Note_on_c, 1, 91, 45
2, 31296, Note_on_c, 1, 91, 0
2, 31296, Note_on_c, 1, 88, 45
2, 31488, Note_on_c, 1, 88, 0
2, 31488, Note_on_c, 1, 85, 45
2, 31824, Note_on_c, 1, 85, 0
2, 31872, Note_on_c, 1, 89, 45
2, 31968, Note_on_c, 1, 89, 0
2, 31968, Note_on_c, 1, 86, 50
2, 32064, Note_on_c, 1, 86, 0
2, 32064, Note_on_c, 1, 83, 56
2, 32160, Note_on_c, 1, 83, 0
2, 32160, Note_on_c, 1, 80, 62
2, 32256, Note_on_c, 1, 80, 0
2, 32256, Note_on_c, 1, 77, 68
2, 32352, Note_on_c, 1, 77, 0
2, 32352, Note_on_c, 1, 74, 74
2, 32448, Note_on_c, 1, 74, 0
2, 32448, Note_on_c, 1, 71, 80
2, 32544, Note_on_c, 1, 71, 0
2, 32544, Note_on_c, 1, 68, 86
2, 32638, Note_on_c, 1, 68, 0
2, 32640, Note_on_c, 1, 69, 92
2, 32928, Note_on_c, 1, 69, 0
2, 32928, Note_on_c, 1, 66, 92
2, 32976, Note_on_c, 1, 66, 0
2, 32976, Note_on_c, 1, 62, 92
2, 33022, Note_on_c, 1, 62, 0
2, 33024, Note_on_c, 1, 64, 92
2, 33056, Note_on_c, 1, 64, 0
2, 33056, Note_on_c, 1, 66, 92
2, 33088, Note_on_c, 1, 66, 0
2, 33088, Note_on_c, 1, 64, 92
2, 33120, Note_on_c, 1, 64, 0
2, 33120, Note_on_c, 1, 66, 92
2, 33152, Note_on_c, 1, 66, 0
2, 33152, Note_on_c, 1, 64, 92
2, 33184, Note_on_c, 1, 64, 0
2, 33184, Note_on_c, 1, 66, 92
2, 33216, Note_on_c, 1, 66, 0
2, 33216, Note_on_c, 1, 64, 92
2, 33248, Note_on_c, 1, 64, 0
2, 33248, Note_on_c, 1, 66, 92
2, 33280, Note_on_c, 1, 66, 0
2, 33280, Note_on_c, 1, 64, 92
2, 33312, Note_on_c, 1, 64, 0
2, 33312, Note_on_c, 1, 66, 92
2, 33344, Note_on_c, 1, 66, 0
2, 33344, Note_on_c, 1, 64, 92
2, 33376, Note_on_c, 1, 64, 0
2, 33376, Note_on_c, 1, 66, 92
2, 33406, Note_on_c, 1, 66, 0
2, 33408, Note_on_c, 1, 73, 45
2, 33600, Note_on_c, 1, 73, 0
2, 33600, Note_on_c, 1, 67, 45
2, 33792, Note_on_c, 1, 67, 0
2, 33792, Note_on_c, 1, 64, 60
2, 34128, Note_on_c, 1, 64, 0
2, 34176, Note_on_c, 1, 76, 45
2, 34368, Note_on_c, 1, 76, 0
2, 34368, Note_on_c, 1, 73, 45
2, 34560, Note_on_c, 1, 73, 0
2, 34560, Note_on_c, 1, 67, 60
2, 34896, Note_on_c, 1, 67, 0
2, 34944, Note_on_c, 1, 79, 45
2, 35136, Note_on_c, 1, 79, 0
2, 35136, Note_on_c, 1, 76, 45
2, 35328, Note_on_c, 1, 76, 0
2, 35328, Note_on_c, 1, 73, 45
2, 35664, Note_on_c, 1, 73, 0
2, 35712, Note_on_c, 1, 79, 30
2, 35808, Note_on_c, 1, 79, 0
2, 35808, Note_on_c, 1, 76, 30
2, 35904, Note_on_c, 1, 76, 0
2, 35904, Note_on_c, 1, 73, 30
2, 36096, Note_on_c, 1, 73, 0
2, 36096, Note_on_c, 1, 82, 30
2, 36192, Note_on_c, 1, 82, 0
2, 36192, Note_on_c, 1, 79, 30
2, 36288, Note_on_c, 1, 79, 0
2, 36288, Note_on_c, 1, 76, 30
2, 36448, Note_on_c, 1, 76, 0
2, 36480, Note_on_c, 1, 82, 30
2, 36864, Note_on_c, 1, 82, 0
2, 36864, Note_on_c, 1, 81, 30
2, 36960, Note_on_c, 1, 81, 0
2, 36960, Note_on_c, 1, 80, 30
2, 37056, Note_on_c, 1, 80, 0
2, 37056, Note_on_c, 1, 81, 30
2, 37152, Note_on_c, 1, 81, 0
2, 37152, Note_on_c, 1, 77, 30
2, 37246, Note_on_c, 1, 77, 0
2, 37248, Note_on_c, 1, 76, 30
2, 37296, Note_on_c, 1, 76, 0
2, 37440, Note_on_c, 1, 76, 30
2, 37488, Note_on_c, 1, 76, 0
2, 37632, Note_on_c, 1, 77, 30
2, 37920, Note_on_c, 1, 77, 0
2, 37920, Note_on_c, 1, 79, 30
2, 37968, Note_on_c, 1, 79, 0
2, 37968, Note_on_c, 1, 81, 30
2, 38014, Note_on_c, 1, 81, 0
2, 38016, Note_on_c, 1, 82, 30
2, 38400, Note_on_c, 1, 82, 0
2, 38400, Note_on_c, 1, 81, 30
2, 38496, Note_on_c, 1, 81, 0
2, 38496, Note_on_c, 1, 80, 30
2, 38592, Note_on_c, 1, 80, 0
2, 38592, Note_on_c, 1, 81, 30
2, 38688, Note_on_c, 1, 81, 0
2, 38688, Note_on_c, 1, 77, 30
2, 38782, Note_on_c, 1, 77, 0
2, 38784, Note_on_c, 1, 76, 30
2, 38832, Note_on_c, 1, 76, 0
2, 38976, Note_on_c, 1, 76, 30
2, 39024, Note_on_c, 1, 76, 0
2, 39168, Note_on_c, 1, 77, 30
2, 39456, Note_on_c, 1, 77, 0
2, 39456, Note_on_c, 1, 76, 30
2, 39550, Note_on_c, 1, 76, 0
2, 39552, Note_on_c, 1, 75, 30
2, 40272, Note_on_c, 1, 75, 0
2, 40320, Note_on_c, 1, 76, 60
2, 40608, Note_on_c, 1, 76, 0
2, 40608, Note_on_c, 1, 73, 72
2, 40656, Note_on_c, 1, 73, 0
2, 40656, Note_on_c, 1, 69, 74
2, 40702, Note_on_c, 1, 69, 0
2, 40704, Note_on_c, 1, 71, 76
2, 40736, Note_on_c, 1, 71, 0
2, 40736, Note_on_c, 1, 73, 77
2, 40768, Note_on_c, 1, 73, 0
2, 40768, Note_on_c, 1, 71, 78
2, 40800, Note_on_c, 1, 71, 0
2, 40800, Note_on_c, 1, 73, 79
2, 40832, Note_on_c, 1, 73, 0
2, 40832, Note_on_c, 1, 71, 80
2, 40864, Note_on_c, 1, 71, 0
2, 40864, Note_on_c, 1, 73, 81
2, 40896, Note_on_c, 1, 73, 0
2, 40896, Note_on_c, 1, 71, 82
2, 40928, Note_on_c, 1, 71, 0
2, 40928, Note_on_c, 1, 73, 83
2, 40960, Note_on_c, 1, 73, 0
2, 40960, Note_on_c, 1, 71, 84
2, 40992, Note_on_c, 1, 71, 0
2, 40992, Note_on_c, 1, 73, 86
2, 41024, Note_on_c, 1, 73, 0
2, 41024, Note_on_c, 1, 71, 88
2, 41056, Note_on_c, 1, 71, 0
2, 41056, Note_on_c, 1, 73, 90
2, 41086, Note_on_c, 1, 73, 0
2, 41088, Note_on_c, 1, 73, 92
2, 41120, Note_on_c, 1, 73, 0
2, 41120, Note_on_c, 1, 74, 92
2, 41152, Note_on_c, 1, 74, 0
2, 41152, Note_on_c, 1, 73, 92
2, 41184, Note_on_c, 1, 73, 0
2, 41184, Note_on_c, 1, 74, 92
2, 41216, Note_on_c, 1, 74, 0
2, 41216, Note_on_c, 1, 73, 92
2, 41248, Note_on_c, 1, 73, 0
2, 41248, Note_on_c, 1, 74, 92
2, 41280, Note_on_c, 1, 74, 0
2, 41280, Note_on_c, 1, 73, 92
2, 41312, Note_on_c, 1, 73, 0
2, 41312, Note_on_c, 1, 74, 92
2, 41344, Note_on_c, 1, 74, 0
2, 41344, Note_on_c, 1, 73, 92
2, 41376, Note_on_c, 1, 73, 0
2, 41376, Note_on_c, 1, 74, 92
2, 41408, Note_on_c, 1, 74, 0
2, 41408, Note_on_c, 1, 73, 92
2, 41440, Note_on_c, 1, 73, 0
2, 41440, Note_on_c, 1, 74, 92
2, 41472, Note_on_c, 1, 74, 0
2, 41472, Note_on_c, 1, 73, 92
2, 41504, Note_on_c, 1, 73, 0
2, 41504, Note_on_c, 1, 74, 92
2, 41536, Note_on_c, 1, 74, 0
2, 41536, Note_on_c, 1, 73, 92
2, 41568, Note_on_c, 1, 73, 0
2, 41568, Note_on_c, 1, 74, 92
2, 41600, Note_on_c, 1, 74, 0
2, 41600, Note_on_c, 1, 73, 92
2, 41632, Note_on_c, 1, 73, 0
2, 41632, Note_on_c, 1, 74, 92
2, 41664, Note_on_c, 1, 74, 0
2, 41664, Note_on_c, 1, 73, 92
2, 41696, Note_on_c, 1, 73, 0
2, 41696, Note_on_c, 1, 74, 92
2, 41728, Note_on_c, 1, 74, 0
2, 41728, Note_on_c, 1, 73, 92
2, 41760, Note_on_c, 1, 73, 0
2, 41760, Note_on_c, 1, 74, 92
2, 41792, Note_on_c, 1, 74, 0
2, 41792, Note_on_c, 1, 71, 92
2, 41824, Note_on_c, 1, 71, 0
2, 41824, Note_on_c, 1, 73, 92
2, 41854, Note_on_c, 1, 73, 0
2, 41856, Note_on_c, 1, 74, 108
2, 41888, Note_on_c, 1, 74, 0
2, 41888, Note_on_c, 1, 76, 108
2, 41920, Note_on_c, 1, 76, 0
2, 41920, Note_on_c, 1, 74, 108
2, 41952, Note_on_c, 1, 74, 0
2, 41952, Note_on_c, 1, 76, 108
2, 41984, Note_on_c, 1, 76, 0
2, 41984, Note_on_c, 1, 73, 108
2, 42016, Note_on_c, 1, 73, 0
2, 42016, Note_on_c, 1, 74, 108
2, 42046, Note_on_c, 1, 74, 0
2, 42048, Note_on_c, 1, 76, 108
2, 42080, Note_on_c, 1, 76, 0
2, 42080, Note_on_c, 1, 78, 108
2, 42112, Note_on_c, 1, 78, 0
2, 42112, Note_on_c, 1, 76, 108
2, 42144, Note_on_c, 1, 76, 0
2, 42144, Note_on_c, 1, 78, 108
2, 42176, Note_on_c, 1, 78, 0
2, 42176, Note_on_c, 1, 74, 108
2, 42208, Note_on_c, 1, 74, 0
2, 42208, Note_on_c, 1, 76, 108
2, 42238, Note_on_c, 1, 76, 0
2, 42240, Note_on_c, 1, 78, 108
2, 42288, Note_on_c, 1, 78, 0
2, 42432, Note_on_c, 1, 76, 108
2, 42480, Note_on_c, 1, 76, 0
2, 42624, Note_on_c, 1, 74, 108
2, 42672, Note_on_c, 1, 74, 0
2, 43392, Note_on_c, 1, 81, 108
2, 43440, Note_on_c, 1, 81, 0
2, 43584, Note_on_c, 1, 88, 108
2, 43632, Note_on_c, 1, 88, 0
2, 43776, Note_on_c, 1, 91, 127
2, 44064, Note_on_c, 1, 91, 0
2, 44064, Note_on_c, 1, 90, 108
2, 44112, Note_on_c, 1, 90, 0
2, 44112, Note_on_c, 1, 88, 108
2, 44158, Note_on_c, 1, 88, 0
2, 44160, Note_on_c, 1, 86, 108
2, 44320, Note_on_c, 1, 86, 0
2, 44928, Note_on_c, 1, 81, 108
2, 45022, Note_on_c, 1, 81, 0
2, 45024, Note_on_c, 1, 81, 108
2, 45118, Note_on_c, 1, 81, 0
2, 45120, Note_on_c, 1, 88, 108
2, 45214, Note_on_c, 1, 88, 0
2, 45216, Note_on_c, 1, 88, 108
2, 45310, Note_on_c, 1, 88, 0
2, 45312, Note_on_c, 1, 91, 127
2, 45600, Note_on_c, 1, 91, 0
2, 45600, Note_on_c, 1, 90, 108
2, 45648, Note_on_c, 1, 90, 0
2, 45648, Note_on_c, 1, 88, 108
2, 45694, Note_on_c, 1, 88, 0
2, 45696, Note_on_c, 1, 86, 108
2, 45728, Note_on_c, 1, 86, 0
2, 45792, Note_on_c, 1, 88, 108
2, 45840, Note_on_c, 1, 88, 0
2, 45840, Note_on_c, 1, 90, 108
2, 45888, Note_on_c, 1, 90, 0
2, 45888, Note_on_c, 1, 91, 108
2, 45920, Note_on_c, 1, 91, 0
2, 45984, Note_on_c, 1, 90, 108
2, 46032, Note_on_c, 1, 90, 0
2, 46032, Note_on_c, 1, 88, 108
2, 46080, Note_on_c, 1, 88, 0
2, 46080, Note_on_c, 1, 86, 108
2, 46112, Note_on_c, 1, 86, 0
2, 46176, Note_on_c, 1, 88, 108
2, 46224, Note_on_c, 1, 88, 0
2, 46224, Note_on_c, 1, 90, 108
2, 46272, Note_on_c, 1, 90, 0
2, 46272, Note_on_c, 1, 91, 108
2, 46304, Note_on_c, 1, 91, 0
2, 46368, Note_on_c, 1, 90, 108
2, 46416, Note_on_c, 1, 90, 0
2, 46416, Note_on_c, 1, 88, 108
2, 46464, Note_on_c, 1, 88, 0
2, 46464, Note_on_c, 1, 86, 108
2, 46512, Note_on_c, 1, 86, 0
2, 46656, Note_on_c, 1, 81, 108
2, 46704, Note_on_c, 1, 81, 0
2, 46848, Note_on_c, 1, 78, 127
2, 47184, Note_on_c, 1, 78, 0
2, 47232, Note_on_c, 1, 81, 108
2, 47280, Note_on_c, 1, 81, 0
2, 47424, Note_on_c, 1, 78, 108
2, 47472, Note_on_c, 1, 78, 0
2, 47616, Note_on_c, 1, 74, 127
2, 47952, Note_on_c, 1, 74, 0
2, 48000, Note_on_c, 1, 78, 108
2, 48048, Note_on_c, 1, 78, 0
2, 48192, Note_on_c, 1, 74, 108
2, 48240, Note_on_c, 1, 74, 0
2, 48384, Note_on_c, 1, 69, 127
2, 48720, Note_on_c, 1, 69, 0
2, 48768, Note_on_c, 1, 74, 108
2, 48800, Note_on_c, 1, 74, 0
2, 48864, Note_on_c, 1, 69, 108
2, 48896, Note_on_c, 1, 69, 0
2, 48960, Note_on_c, 1, 66, 127
2, 49120, Note_on_c, 1, 66, 0
2, 49152, Note_on_c, 1, 69, 108
2, 49184, Note_on_c, 1, 69, 0
2, 49248, Note_on_c, 1, 66, 108
2, 49280, Note_on_c, 1, 66, 0
2, 49344, Note_on_c, 1, 62, 127
2, 49504, Note_on_c, 1, 62, 0
2, 49536, Note_on_c, 1, 66, 108
2, 49568, Note_on_c, 1, 66, 0
2, 49632, Note_on_c, 1, 62, 108
2, 49664, Note_on_c, 1, 62, 0
2, 49920, Note_on_c, 1, 69, 108
2, 49952, Note_on_c, 1, 69, 0
2, 50016, Note_on_c, 1, 66, 108
2, 50048, Note_on_c, 1, 66, 0
2, 50112, Note_on_c, 1, 62, 127
2, 50272, Note_on_c, 1, 62, 0
2, 50304, Note_on_c, 1, 69, 108
2, 50336, Note_on_c, 1, 69, 0
2, 50400, Note_on_c, 1, 66, 108
2, 50432, Note_on_c, 1, 66, 0
2, 50496, Note_on_c, 1, 62, 127
2, 50656, Note_on_c, 1, 62, 0
2, 50688, Note_on_c, 1, 69, 108
2, 50720, Note_on_c, 1, 69, 0
2, 50784, Note_on_c, 1, 66, 108
2, 50816, Note_on_c, 1, 66, 0
2, 50880, Note_on_c, 1, 62, 127
2, 51040, Note_on_c, 1, 62, 0
2, 51072, Note_on_c, 1, 69, 108
2, 51104, Note_on_c, 1, 69, 0
2, 51168, Note_on_c, 1, 66, 108
2, 51200, Note_on_c, 1, 66, 0
2, 51264, Note_on_c, 1, 62, 127
2, 51792, Note_on_c, 1, 62, 0
2, 51840, Note_on_c, 1, 69, 45
2, 51936, Note_on_c, 1, 69, 0
2, 51936, Note_on_c, 1, 66, 45
2, 52030, Note_on_c, 1, 66, 0
2, 52032, Note_on_c, 1, 62, 45
2, 52560, Note_on_c, 1, 62, 0
2, 52608, Note_on_c, 1, 69, 30
2, 52704, Note_on_c, 1, 69, 0
2, 52704, Note_on_c, 1, 66, 30
2, 52798, Note_on_c, 1, 66, 0
2, 52800, Note_on_c, 1, 60, 30
2, 54480, Note_on_c, 1, 60, 0
2, 54528, Note_on_c, 1, 58, 45
2, 54576, Note_on_c, 1, 58, 0
2, 54720, Note_on_c, 1, 63, 45
2, 54768, Note_on_c, 1, 63, 0
2, 54912, Note_on_c, 1, 67, 63
2, 55200, Note_on_c, 1, 67, 0
2, 55200, Note_on_c, 1, 65, 45
2, 55248, Note_on_c, 1, 65, 0
2, 55248, Note_on_c, 1, 63, 45
2, 55294, Note_on_c, 1, 63, 0
2, 55296, Note_on_c, 1, 62, 45
2, 55328, Note_on_c, 1, 62, 0
2, 55392, Note_on_c, 1, 63, 45
2, 55424, Note_on_c, 1, 63, 0
2, 55488, Note_on_c, 1, 65, 45
2, 55520, Note_on_c, 1, 65, 0
2, 55584, Note_on_c, 1, 67, 45
2, 55616, Note_on_c, 1, 67, 0
2, 55680, Note_on_c, 1, 68, 45
2, 55774, Note_on_c, 1, 68, 0
2, 56064, Note_on_c, 1, 70, 45
2, 56112, Note_on_c, 1, 70, 0
2, 56256, Note_on_c, 1, 77, 45
2, 56304, Note_on_c, 1, 77, 0
2, 56448, Note_on_c, 1, 80, 45
2, 56736, Note_on_c, 1, 80, 0
2, 56736, Note_on_c, 1, 79, 45
2, 56784, Note_on_c, 1, 79, 0
2, 56784, Note_on_c, 1, 77, 45
2, 56830, Note_on_c, 1, 77, 0
2, 56832, Note_on_c, 1, 82, 45
2, 56864, Note_on_c, 1, 82, 0
2, 56928, Note_on_c, 1, 79, 45
2, 56960, Note_on_c, 1, 79, 0
2, 57024, Note_on_c, 1, 80, 45
2, 57056, Note_on_c, 1, 80, 0
2, 57120, Note_on_c, 1, 77, 45
2, 57152, Note_on_c, 1, 77, 0
2, 57216, Note_on_c, 1, 75, 45
2, 57248, Note_on_c, 1, 75, 0
2, 57312, Note_on_c, 1, 79, 45
2, 57360, Note_on_c, 1, 79, 0
2, 57360, Note_on_c, 1, 75, 45
2, 57406, Note_on_c, 1, 75, 0
2, 57408, Note_on_c, 1, 70, 45
2, 57694, Note_on_c, 1, 71, 0
2, 57696, Note_on_c, 1, 70, 45
2, 57744, Note_on_c, 1, 70, 0
2, 57744, Note_on_c, 1, 69, 45
2, 57790, Note_on_c, 1, 69, 0
2, 57792, Note_on_c, 1, 70, 45
2, 58078, Note_on_c, 1, 71, 0
2, 58080, Note_on_c, 1, 70, 45
2, 58128, Note_on_c, 1, 70, 0
2, 58128, Note_on_c, 1, 72, 45
2, 58174, Note_on_c, 1, 72, 0
2, 58176, Note_on_c, 1, 68, 45
2, 58208, Note_on_c, 1, 68, 0
2, 58272, Note_on_c, 1, 68, 45
2, 58320, Note_on_c, 1, 68, 0
2, 58320, Note_on_c, 1, 70, 45
2, 58366, Note_on_c, 1, 70, 0
2, 58368, Note_on_c, 1, 67, 45
2, 58400, Note_on_c, 1, 67, 0
2, 58464, Note_on_c, 1, 67, 45
2, 58512, Note_on_c, 1, 67, 0
2, 58512, Note_on_c, 1, 68, 45
2, 58558, Note_on_c, 1, 68, 0
2, 58560, Note_on_c, 1, 65, 45
2, 58592, Note_on_c, 1, 65, 0
2, 58656, Note_on_c, 1, 65, 45
2, 58704, Note_on_c, 1, 65, 0
2, 58704, Note_on_c, 1, 67, 45
2, 58750, Note_on_c, 1, 67, 0
2, 58752, Note_on_c, 1, 63, 45
2, 58784, Note_on_c, 1, 63, 0
2, 58848, Note_on_c, 1, 67, 45
2, 58896, Note_on_c, 1, 67, 0
2, 58896, Note_on_c, 1, 63, 45
2, 58942, Note_on_c, 1, 63, 0
2, 58944, Note_on_c, 1, 58, 45
2, 59230, Note_on_c, 1, 58, 0
2, 59232, Note_on_c, 1, 58, 45
2, 59280, Note_on_c, 1, 58, 0
2, 59280, Note_on_c, 1, 57, 45
2, 59326, Note_on_c, 1, 57, 0
2, 59328, Note_on_c, 1, 58, 45
2, 59614, Note_on_c, 1, 58, 0
2, 59616, Note_on_c, 1, 58, 45
2, 59664, Note_on_c, 1, 58, 0
2, 59664, Note_on_c, 1, 57, 45
2, 59710, Note_on_c, 1, 57, 0
2, 59712, Note_on_c, 1, 58, 45
2, 59998, Note_on_c, 1, 58, 0
2, 60000, Note_on_c, 1, 58, 45
2, 60048, Note_on_c, 1, 58, 0
2, 60048, Note_on_c, 1, 57, 45
2, 60094, Note_on_c, 1, 57, 0
2, 60096, Note_on_c, 1, 58, 45
2, 60128, Note_on_c, 1, 58, 0
2, 60192, Note_on_c, 1, 59, 45
2, 60224, Note_on_c, 1, 59, 0
2, 60288, Note_on_c, 1, 60, 45
2, 60320, Note_on_c, 1, 60, 0
2, 60384, Note_on_c, 1, 60, 46
2, 60432, Note_on_c, 1, 60, 0
2, 60432, Note_on_c, 1, 59, 46
2, 60478, Note_on_c, 1, 59, 0
2, 60480, Note_on_c, 1, 60, 46
2, 60512, Note_on_c, 1, 60, 0
2, 60576, Note_on_c, 1, 62, 47
2, 60608, Note_on_c, 1, 62, 0
2, 60672, Note_on_c, 1, 63, 48
2, 60704, Note_on_c, 1, 63, 0
2, 60768, Note_on_c, 1, 63, 49
2, 60816, Note_on_c, 1, 63, 0
2, 60816, Note_on_c, 1, 62, 49
2, 60862, Note_on_c, 1, 62, 0
2, 60864, Note_on_c, 1, 63, 49
2, 60896, Note_on_c, 1, 63, 0
2, 60960, Note_on_c, 1, 64, 50
2, 60992, Note_on_c, 1, 64, 0
2, 61056, Note_on_c, 1, 65, 51
2, 61088, Note_on_c, 1, 65, 0
2, 61152, Note_on_c, 1, 65, 52
2, 61200, Note_on_c, 1, 65, 0
2, 61200, Note_on_c, 1, 64, 52
2, 61246, Note_on_c, 1, 64, 0
2, 61248, Note_on_c, 1, 65, 52
2, 61342, Note_on_c, 1, 65, 0
2, 61344, Note_on_c, 1, 67, 53
2, 61438, Note_on_c, 1, 67, 0
2, 61440, Note_on_c, 1, 68, 54
2, 61472, Note_on_c, 1, 68, 0
2, 61536, Note_on_c, 1, 68, 55
2, 61584, Note_on_c, 1, 68, 0
2, 61584, Note_on_c, 1, 67, 55
2, 61630, Note_on_c, 1, 67, 0
2, 61632, Note_on_c, 1, 68, 56
2, 61726, Note_on_c, 1, 68, 0
2, 61728, Note_on_c, 1, 69, 58
2, 61822, Note_on_c, 1, 69, 0
2, 61824, Note_on_c, 1, 70, 60
2, 61856, Note_on_c, 1, 70, 0
2, 61920, Note_on_c, 1, 70, 62
2, 61968, Note_on_c, 1, 70, 0
2, 61968, Note_on_c, 1, 69, 63
2, 62014, Note_on_c, 1, 69, 0
2, 62016, Note_on_c, 1, 70, 63
2, 62048, Note_on_c, 1, 70, 0
2, 62112, Note_on_c, 1, 71, 65
2, 62144, Note_on_c, 1, 71, 0
2, 62208, Note_on_c, 1, 72, 67
2, 62240, Note_on_c, 1, 72, 0
2, 62304, Note_on_c, 1, 72, 69
2, 62352, Note_on_c, 1, 72, 0
2, 62352, Note_on_c, 1, 71, 70
2, 62398, Note_on_c, 1, 71, 0
2, 62400, Note_on_c, 1, 72, 71
2, 62432, Note_on_c, 1, 72, 0
2, 62496, Note_on_c, 1, 74, 73
2, 62528, Note_on_c, 1, 74, 0
2, 62592, Note_on_c, 1, 75, 75
2, 62624, Note_on_c, 1, 75, 0
2, 62688, Note_on_c, 1, 75, 77
2, 62736, Note_on_c, 1, 75, 0
2, 62736, Note_on_c, 1, 74, 78
2, 62782, Note_on_c, 1, 74, 0
2, 62784, Note_on_c, 1, 75, 79
2, 62816, Note_on_c, 1, 75, 0
2, 62880, Note_on_c, 1, 76, 81
2, 62912, Note_on_c, 1, 76, 0
2, 62976, Note_on_c, 1, 77, 83
2, 63008, Note_on_c, 1, 77, 0
2, 63072, Note_on_c, 1, 77, 85
2, 63120, Note_on_c, 1, 77, 0
2, 63120, Note_on_c, 1, 76, 86
2, 63166, Note_on_c, 1, 76, 0
2, 63168, Note_on_c, 1, 77, 87
2, 63200, Note_on_c, 1, 77, 0
2, 63264, Note_on_c, 1, 78, 89
2, 63296, Note_on_c, 1, 78, 0
2, 63360, Note_on_c, 1, 79, 92
2, 63454, Note_on_c, 1, 79, 0
2, 63456, Note_on_c, 1, 78, 92
2, 63502, Note_on_c, 1, 78, 0
2, 63504, Note_on_c, 1, 79, 92
2, 63550, Note_on_c, 1, 79, 0
2, 63552, Note_on_c, 1, 83, 92
2, 63598, Note_on_c, 1, 83, 0
2, 63600, Note_on_c, 1, 79, 92
2, 63646, Note_on_c, 1, 79, 0
2, 63648, Note_on_c, 1, 78, 92
2, 63694, Note_on_c, 1, 78, 0
2, 63696, Note_on_c, 1, 79, 92
2, 63742, Note_on_c, 1, 79, 0
2, 63744, Note_on_c, 1, 84, 92
2, 63790, Note_on_c, 1, 84, 0
2, 63792, Note_on_c, 1, 79, 92
2, 63838, Note_on_c, 1, 79, 0
2, 63840, Note_on_c, 1, 78, 92
2, 63886, Note_on_c, 1, 78, 0
2, 63888, Note_on_c, 1, 79, 92
2, 63934, Note_on_c, 1, 79, 0
2, 63936, Note_on_c, 1, 77, 92
2, 63982, Note_on_c, 1, 77, 0
2, 63984, Note_on_c, 1, 75, 92
2, 64030, Note_on_c, 1, 75, 0
2, 64032, Note_on_c, 1, 74, 92
2, 64078, Note_on_c, 1, 74, 0
2, 64080, Note_on_c, 1, 72, 92
2, 64126, Note_on_c, 1, 72, 0
2, 64128, Note_on_c, 1, 71, 92
2, 64222, Note_on_c, 1, 71, 0
2, 64224, Note_on_c, 1, 66, 92
2, 64270, Note_on_c, 1, 66, 0
2, 64272, Note_on_c, 1, 67, 92
2, 64318, Note_on_c, 1, 67, 0
2, 64320, Note_on_c, 1, 71, 92
2, 64366, Note_on_c, 1, 71, 0
2, 64368, Note_on_c, 1, 67, 92
2, 64414, Note_on_c, 1, 67, 0
2, 64416, Note_on_c, 1, 66, 92
2, 64462, Note_on_c, 1, 66, 0
2, 64464, Note_on_c, 1, 67, 92
2, 64510, Note_on_c, 1, 67, 0
2, 64512, Note_on_c, 1, 72, 92
2, 64558, Note_on_c, 1, 72, 0
2, 64560, Note_on_c, 1, 67, 92
2, 64606, Note_on_c, 1, 67, 0
2, 64608, Note_on_c, 1, 66, 92
2, 64654, Note_on_c, 1, 66, 0
2, 64656, Note_on_c, 1, 67, 92
2, 64702, Note_on_c, 1, 67, 0
2, 64704, Note_on_c, 1, 65, 92
2, 64750, Note_on_c, 1, 65, 0
2, 64752, Note_on_c, 1, 63, 92
2, 64798, Note_on_c, 1, 63, 0
2, 64800, Note_on_c, 1, 62, 92
2, 64846, Note_on_c, 1, 62, 0
2, 64848, Note_on_c, 1, 60, 92
2, 64894, Note_on_c, 1, 60, 0
2, 64896, Note_on_c, 1, 55, 92
2, 64990, Note_on_c, 1, 55, 0
2, 64992, Note_on_c, 1, 78, 92
2, 65038, Note_on_c, 1, 78, 0
2, 65040, Note_on_c, 1, 79, 92
2, 65086, Note_on_c, 1, 79, 0
2, 65088, Note_on_c, 1, 83, 92
2, 65134, Note_on_c, 1, 83, 0
2, 65136, Note_on_c, 1, 79, 92
2, 65182, Note_on_c, 1, 79, 0
2, 65184, Note_on_c, 1, 83, 92
2, 65230, Note_on_c, 1, 83, 0
2, 65232, Note_on_c, 1, 79, 92
2, 65278, Note_on_c, 1, 79, 0
2, 65280, Note_on_c, 1, 84, 92
2, 65326, Note_on_c, 1, 84, 0
2, 65328, Note_on_c, 1, 79, 92
2, 65374, Note_on_c, 1, 79, 0
2, 65376, Note_on_c, 1, 78, 92
2, 65422, Note_on_c, 1, 78, 0
2, 65424, Note_on_c, 1, 79, 92
2, 65470, Note_on_c, 1, 79, 0
2, 65472, Note_on_c, 1, 77, 92
2, 65518, Note_on_c, 1, 77, 0
2, 65520, Note_on_c, 1, 75, 92
2, 65566, Note_on_c, 1, 75, 0
2, 65568, Note_on_c, 1, 74, 92
2, 65614, Note_on_c, 1, 74, 0
2, 65616, Note_on_c, 1, 72, 92
2, 65662, Note_on_c, 1, 72, 0
2, 65664, Note_on_c, 1, 71, 92
2, 65758, Note_on_c, 1, 71, 0
2, 65760, Note_on_c, 1, 66, 92
2, 65806, Note_on_c, 1, 66, 0
2, 65808, Note_on_c, 1, 67, 92
2, 65854, Note_on_c, 1, 67, 0
2, 65856, Note_on_c, 1, 71, 92
2, 65902, Note_on_c, 1, 71, 0
2, 65904, Note_on_c, 1, 67, 92
2, 65950, Note_on_c, 1, 67, 0
2, 65952, Note_on_c, 1, 71, 92
2, 65998, Note_on_c, 1, 71, 0
2, 66000, Note_on_c, 1, 67, 92
2, 66046, Note_on_c, 1, 67, 0
2, 66048, Note_on_c, 1, 72, 92
2, 66094, Note_on_c, 1, 72, 0
2, 66096, Note_on_c, 1, 67, 92
2, 66142, Note_on_c, 1, 67, 0
2, 66144, Note_on_c, 1, 66, 92
2, 66190, Note_on_c, 1, 66, 0
2, 66192, Note_on_c, 1, 67, 92
2, 66238, Note_on_c, 1, 67, 0
2, 66240, Note_on_c, 1, 65, 92
2, 66286, Note_on_c, 1, 65, 0
2, 66288, Note_on_c, 1, 63, 92
2, 66334, Note_on_c, 1, 63, 0
2, 66336, Note_on_c, 1, 62, 92
2, 66382, Note_on_c, 1, 62, 0
2, 66384, Note_on_c, 1, 60, 92
2, 66430, Note_on_c, 1, 60, 0
2, 66432, Note_on_c, 1, 55, 92
2, 66592, Note_on_c, 1, 55, 0
2, 66624, Note_on_c, 1, 71, 45
2, 66672, Note_on_c, 1, 71, 0
2, 66672, Note_on_c, 1, 67, 45
2, 66720, Note_on_c, 1, 67, 0
2, 66720, Note_on_c, 1, 66, 45
2, 66768, Note_on_c, 1, 66, 0
2, 66768, Note_on_c, 1, 67, 45
2, 66814, Note_on_c, 1, 67, 0
2, 66816, Note_on_c, 1, 71, 45
2, 66864, Note_on_c, 1, 71, 0
2, 66864, Note_on_c, 1, 67, 46
2, 66912, Note_on_c, 1, 67, 0
2, 66912, Note_on_c, 1, 66, 47
2, 66960, Note_on_c, 1, 66, 0
2, 66960, Note_on_c, 1, 67, 48
2, 67006, Note_on_c, 1, 67, 0
2, 67008, Note_on_c, 1, 71, 49
2, 67056, Note_on_c, 1, 71, 0
2, 67056, Note_on_c, 1, 67, 50
2, 67104, Note_on_c, 1, 67, 0
2, 67104, Note_on_c, 1, 66, 51
2, 67152, Note_on_c, 1, 66, 0
2, 67152, Note_on_c, 1, 67, 52
2, 67198, Note_on_c, 1, 67, 0
2, 67200, Note_on_c, 1, 74, 53
2, 67248, Note_on_c, 1, 74, 0
2, 67248, Note_on_c, 1, 71, 54
2, 67296, Note_on_c, 1, 71, 0
2, 67296, Note_on_c, 1, 70, 55
2, 67344, Note_on_c, 1, 70, 0
2, 67344, Note_on_c, 1, 71, 56
2, 67390, Note_on_c, 1, 71, 0
2, 67392, Note_on_c, 1, 74, 57
2, 67440, Note_on_c, 1, 74, 0
2, 67440, Note_on_c, 1, 71, 58
2, 67488, Note_on_c, 1, 71, 0
2, 67488, Note_on_c, 1, 70, 59
2, 67536, Note_on_c, 1, 70, 0
2, 67536, Note_on_c, 1, 71, 60
2, 67582, Note_on_c, 1, 71, 0
2, 67584, Note_on_c, 1, 74, 61
2, 67632, Note_on_c, 1, 74, 0
2, 67632, Note_on_c, 1, 71, 62
2, 67680, Note_on_c, 1, 71, 0
2, 67680, Note_on_c, 1, 70, 64
2, 67728, Note_on_c, 1, 70, 0
2, 67728, Note_on_c, 1, 71, 66
2, 67774, Note_on_c, 1, 71, 0
2, 67776, Note_on_c, 1, 74, 68
2, 67824, Note_on_c, 1, 74, 0
2, 67824, Note_on_c, 1, 71, 70
2, 67872, Note_on_c, 1, 71, 0
2, 67872, Note_on_c, 1, 70, 72
2, 67920, Note_on_c, 1, 70, 0
2, 67920, Note_on_c, 1, 71, 74
2, 67966, Note_on_c, 1, 71, 0
2, 67968, Note_on_c, 1, 77, 76
2, 68016, Note_on_c, 1, 77, 0
2, 68016, Note_on_c, 1, 74, 78
2, 68064, Note_on_c, 1, 74, 0
2, 68064, Note_on_c, 1, 73, 80
2, 68112, Note_on_c, 1, 73, 0
2, 68112, Note_on_c, 1, 74, 82
2, 68158, Note_on_c, 1, 74, 0
2, 68160, Note_on_c, 1, 77, 84
2, 68208, Note_on_c, 1, 77, 0
2, 68208, Note_on_c, 1, 74, 86
2, 68256, Note_on_c, 1, 74, 0
2, 68256, Note_on_c, 1, 73, 88
2, 68304, Note_on_c, 1, 73, 0
2, 68304, Note_on_c, 1, 74, 90
2, 68350, Note_on_c, 1, 74, 0
2, 68352, Note_on_c, 1, 77, 92
2, 68400, Note_on_c, 1, 77, 0
2, 68400, Note_on_c, 1, 74, 94
2, 68448, Note_on_c, 1, 74, 0
2, 68448, Note_on_c, 1, 73, 96
2, 68496, Note_on_c, 1, 73, 0
2, 68496, Note_on_c, 1, 74, 98
2, 68542, Note_on_c, 1, 74, 0
2, 68544, Note_on_c, 1, 77, 100
2, 68592, Note_on_c, 1, 77, 0
2, 68592, Note_on_c, 1, 74, 102
2, 68640, Note_on_c, 1, 74, 0
2, 68640, Note_on_c, 1, 73, 104
2, 68688, Note_on_c, 1, 73, 0
2, 68688, Note_on_c, 1, 74, 106
2, 68734, Note_on_c, 1, 74, 0
2, 68736, Note_on_c, 1, 81, 108
2, 68784, Note_on_c, 1, 81, 0
2, 68784, Note_on_c, 1, 77, 108
2, 68832, Note_on_c, 1, 77, 0
2, 68832, Note_on_c, 1, 76, 108
2, 68880, Note_on_c, 1, 76, 0
2, 68880, Note_on_c, 1, 77, 108
2, 68926, Note_on_c, 1, 77, 0
2, 68928, Note_on_c, 1, 81, 108
2, 68976, Note_on_c, 1, 81, 0
2, 68976, Note_on_c, 1, 79, 108
2, 69024, Note_on_c, 1, 79, 0
2, 69024, Note_on_c, 1, 77, 108
2, 69072, Note_on_c, 1, 77, 0
2, 69072, Note_on_c, 1, 76, 108
2, 69120, Note_on_c, 1, 76, 0
2, 69120, Note_on_c, 1, 74, 108
2, 69168, Note_on_c, 1, 74, 0
2, 69168, Note_on_c, 1, 72, 108
2, 69216, Note_on_c, 1, 72, 0
2, 69216, Note_on_c, 1, 71, 108
2, 69264, Note_on_c, 1, 71, 0
2, 69264, Note_on_c, 1, 69, 108
2, 69312, Note_on_c, 1, 69, 0
2, 69312, Note_on_c, 1, 67, 108
2, 69360, Note_on_c, 1, 67, 0
2, 69360, Note_on_c, 1, 65, 108
2, 69408, Note_on_c, 1, 65, 0
2, 69408, Note_on_c, 1, 64, 108
2, 69456, Note_on_c, 1, 64, 0
2, 69456, Note_on_c, 1, 62, 108
2, 69502, Note_on_c, 1, 62, 0
2, 69504, Note_on_c, 1, 60, 127
2, 69552, Note_on_c, 1, 60, 0
2, 69696, Note_on_c, 1, 60, 45
2, 69744, Note_on_c, 1, 60, 0
2, 69888, Note_on_c, 1, 64, 45
2, 70176, Note_on_c, 1, 64, 0
2, 70176, Note_on_c, 1, 62, 45
2, 70224, Note_on_c, 1, 62, 0
2, 70224, Note_on_c, 1, 60, 45
2, 70270, Note_on_c, 1, 60, 0
2, 70272, Note_on_c, 1, 59, 45
2, 70304, Note_on_c, 1, 59, 0
2, 70368, Note_on_c, 1, 60, 45
2, 70400, Note_on_c, 1, 60, 0
2, 70464, Note_on_c, 1, 62, 45
2, 70496, Note_on_c, 1, 62, 0
2, 70560, Note_on_c, 1, 64, 45
2, 70592, Note_on_c, 1, 64, 0
2, 70656, Note_on_c, 1, 65, 45
2, 70750, Note_on_c, 1, 65, 0
2, 71040, Note_on_c, 1, 55, 45
2, 71088, Note_on_c, 1, 55, 0
2, 71232, Note_on_c, 1, 62, 45
2, 71280, Note_on_c, 1, 62, 0
2, 71424, Note_on_c, 1, 65, 63
2, 71712, Note_on_c, 1, 65, 0
2, 71712, Note_on_c, 1, 64, 45
2, 71760, Note_on_c, 1, 64, 0
2, 71760, Note_on_c, 1, 62, 45
2, 71806, Note_on_c, 1, 62, 0
2, 71808, Note_on_c, 1, 67, 45
2, 71840, Note_on_c, 1, 67, 0
2, 71904, Note_on_c, 1, 64, 45
2, 71936, Note_on_c, 1, 64, 0
2, 72000, Note_on_c, 1, 67, 45
2, 72032, Note_on_c, 1, 67, 0
2, 72096, Note_on_c, 1, 64, 45
2, 72128, Note_on_c, 1, 64, 0
2, 72192, Note_on_c, 1, 60, 45
2, 72286, Note_on_c, 1, 60, 0
2, 73728, Note_on_c, 1, 83, 45
2, 73760, Note_on_c, 1, 83, 0
2, 73824, Note_on_c, 1, 84, 45
2, 73856, Note_on_c, 1, 84, 0
2, 73920, Note_on_c, 1, 86, 45
2, 73952, Note_on_c, 1, 86, 0
2, 74016, Note_on_c, 1, 88, 45
2, 74048, Note_on_c, 1, 88, 0
2, 74112, Note_on_c, 1, 89, 45
2, 74206, Note_on_c, 1, 89, 0
2, 75264, Note_on_c, 1, 84, 45
2, 75296, Note_on_c, 1, 84, 0
2, 75360, Note_on_c, 1, 86, 45
2, 75392, Note_on_c, 1, 86, 0
2, 75456, Note_on_c, 1, 88, 45
2, 75488, Note_on_c, 1, 88, 0
2, 75552, Note_on_c, 1, 89, 45
2, 75584, Note_on_c, 1, 89, 0
2, 75648, Note_on_c, 1, 91, 63
2, 76064, Note_on_c, 1, 91, 0
2, 76128, Note_on_c, 1, 89, 45
2, 76160, Note_on_c, 1, 89, 0
2, 76224, Note_on_c, 1, 88, 45
2, 76256, Note_on_c, 1, 88, 0
2, 76320, Note_on_c, 1, 86, 45
2, 76352, Note_on_c, 1, 86, 0
2, 76416, Note_on_c, 1, 84, 63
2, 76752, Note_on_c, 1, 84, 0
2, 76800, Note_on_c, 1, 88, 45
2, 76832, Note_on_c, 1, 88, 0
2, 76896, Note_on_c, 1, 86, 45
2, 76928, Note_on_c, 1, 86, 0
2, 76992, Note_on_c, 1, 84, 45
2, 77024, Note_on_c, 1, 84, 0
2, 77088, Note_on_c, 1, 83, 45
2, 77120, Note_on_c, 1, 83, 0
2, 77184, Note_on_c, 1, 81, 63
2, 77520, Note_on_c, 1, 81, 0
2, 77568, Note_on_c, 1, 84, 45
2, 77600, Note_on_c, 1, 84, 0
2, 77664, Note_on_c, 1, 83, 45
2, 77696, Note_on_c, 1, 83, 0
2, 77760, Note_on_c, 1, 81, 45
2, 77792, Note_on_c, 1, 81, 0
2, 77856, Note_on_c, 1, 79, 45
2, 77888, Note_on_c, 1, 79, 0
2, 77952, Note_on_c, 1, 78, 63
2, 78288, Note_on_c, 1, 78, 0
2, 78336, Note_on_c, 1, 81, 45
2, 78368, Note_on_c, 1, 81, 0
2, 78432, Note_on_c, 1, 79, 45
2, 78464, Note_on_c, 1, 79, 0
2, 78528, Note_on_c, 1, 78, 45
2, 78560, Note_on_c, 1, 78, 0
2, 78624, Note_on_c, 1, 76, 45
2, 78656, Note_on_c, 1, 76, 0
2, 78720, Note_on_c, 1, 74, 63
2, 79056, Note_on_c, 1, 74, 0
2, 79872, Note_on_c, 1, 74, 108
2, 79920, Note_on_c, 1, 74, 0
2, 80064, Note_on_c, 1, 78, 108
2, 80112, Note_on_c, 1, 78, 0
2, 80256, Note_on_c, 1, 81, 127
2, 80592, Note_on_c, 1, 81, 0
2, 81408, Note_on_c, 1, 78, 108
2, 81456, Note_on_c, 1, 78, 0
2, 81600, Note_on_c, 1, 81, 108
2, 81648, Note_on_c, 1, 81, 0
2, 81792, Note_on_c, 1, 84, 127
2, 82128, Note_on_c, 1, 84, 0
2, 82944, Note_on_c, 1, 81, 108
2, 82992, Note_on_c, 1, 81, 0
2, 83136, Note_on_c, 1, 84, 108
2, 83184, Note_on_c, 1, 84, 0
2, 83328, Note_on_c, 1, 87, 45
2, 83520, Note_on_c, 1, 87, 0
2, 83520, Note_on_c, 1, 84, 45
2, 83712, Note_on_c, 1, 84, 0
2, 83712, Note_on_c, 1, 81, 45
2, 84048, Note_on_c, 1, 81, 0
2, 84096, Note_on_c, 1, 84, 45
2, 84288, Note_on_c, 1, 84, 0
2, 84288, Note_on_c, 1, 81, 45
2, 84480, Note_on_c, 1, 81, 0
2, 84480, Note_on_c, 1, 78, 45
2, 84816, Note_on_c, 1, 78, 0
2, 84864, Note_on_c, 1, 84, 45
2, 85056, Note_on_c, 1, 84, 0
2, 85056, Note_on_c, 1, 81, 45
2, 85248, Note_on_c, 1, 81, 0
2, 85248, Note_on_c, 1, 78, 45
2, 85440, Note_on_c, 1, 78, 0
2, 85440, Note_on_c, 1, 75, 45
2, 85632, Note_on_c, 1, 75, 0
2, 85632, Note_on_c, 1, 72, 45
2, 85824, Note_on_c, 1, 72, 0
2, 85824, Note_on_c, 1, 69, 45
2, 86016, Note_on_c, 1, 69, 0
2, 86016, Note_on_c, 1, 70, 45
2, 86208, Note_on_c, 1, 70, 0
2, 86208, Note_on_c, 1, 67, 45
2, 86400, Note_on_c, 1, 67, 0
2, 86400, Note_on_c, 1, 66, 45
2, 86560, Note_on_c, 1, 66, 0
2, 86592, Note_on_c, 1, 81, 45
2, 86784, Note_on_c, 1, 81, 0
2, 86784, Note_on_c, 1, 78, 45
2, 86976, Note_on_c, 1, 78, 0
2, 86976, Note_on_c, 1, 75, 45
2, 87168, Note_on_c, 1, 75, 0
2, 87168, Note_on_c, 1, 72, 45
2, 87360, Note_on_c, 1, 72, 0
2, 87360, Note_on_c, 1, 69, 45
2, 87552, Note_on_c, 1, 69, 0
2, 87552, Note_on_c, 1, 70, 45
2, 87744, Note_on_c, 1, 70, 0
2, 87744, Note_on_c, 1, 67, 45
2, 87904, Note_on_c, 1, 67, 0
2, 87936, Note_on_c, 1, 66, 45
2, 88320, Note_on_c, 1, 66, 0
2, 88320, Note_on_c, 1, 67, 45
2, 88656, Note_on_c, 1, 67, 0
2, 88704, Note_on_c, 1, 66, 45
2, 89088, Note_on_c, 1, 66, 0
2, 89088, Note_on_c, 1, 67, 42
2, 89424, Note_on_c, 1, 67, 0
2, 89472, Note_on_c, 1, 66, 39
2, 89856, Note_on_c, 1, 66, 0
2, 89856, Note_on_c, 1, 67, 36
2, 90624, Note_on_c, 1, 67, 0
2, 90624, Note_on_c, 1, 67, 30
2, 92496, Note_on_c, 1, 67, 0
2, 92544, Note_on_c, 1, 63, 30
2, 92592, Note_on_c, 1, 63, 0
2, 92736, Note_on_c, 1, 68, 30
2, 92784, Note_on_c, 1, 68, 0
2, 92928, Note_on_c, 1, 72, 30
2, 93216, Note_on_c, 1, 72, 0
2, 93216, Note_on_c, 1, 70, 30
2, 93264, Note_on_c, 1, 70, 0
2, 93264, Note_on_c, 1, 68, 30
2, 93310, Note_on_c, 1, 68, 0
2, 93312, Note_on_c, 1, 67, 30
2, 93344, Note_on_c, 1, 67, 0
2, 93408, Note_on_c, 1, 68, 30
2, 93440, Note_on_c, 1, 68, 0
2, 93504, Note_on_c, 1, 70, 30
2, 93536, Note_on_c, 1, 70, 0
2, 93600, Note_on_c, 1, 72, 30
2, 93632, Note_on_c, 1, 72, 0
2, 93696, Note_on_c, 1, 73, 30
2, 93790, Note_on_c, 1, 73, 0
2, 94080, Note_on_c, 1, 67, 45
2, 94112, Note_on_c, 1, 67, 0
2, 94176, Note_on_c, 1, 68, 30
2, 94208, Note_on_c, 1, 68, 0
2, 94272, Note_on_c, 1, 70, 30
2, 94304, Note_on_c, 1, 70, 0
2, 94368, Note_on_c, 1, 72, 30
2, 94400, Note_on_c, 1, 72, 0
2, 94464, Note_on_c, 1, 73, 30
2, 94558, Note_on_c, 1, 73, 0
2, 94848, Note_on_c, 1, 73, 30
2, 94880, Note_on_c, 1, 73, 0
2, 94944, Note_on_c, 1, 74, 30
2, 94976, Note_on_c, 1, 74, 0
2, 95040, Note_on_c, 1, 76, 30
2, 95072, Note_on_c, 1, 76, 0
2, 95136, Note_on_c, 1, 78, 30
2, 95168, Note_on_c, 1, 78, 0
2, 95232, Note_on_c, 1, 79, 30
2, 95326, Note_on_c, 1, 79, 0
2, 95616, Note_on_c, 1, 78, 30
2, 95664, Note_on_c, 1, 78, 0
2, 95808, Note_on_c, 1, 79, 45
2, 95856, Note_on_c, 1, 79, 0
2, 96000, Note_on_c, 1, 81, 60
2, 96048, Note_on_c, 1, 81, 0
2, 96192, Note_on_c, 1, 83, 76
2, 96240, Note_on_c, 1, 83, 0
2, 96384, Note_on_c, 1, 84, 127
2, 98256, Note_on_c, 1, 84, 0
2, 99264, Note_on_c, 1, 66, 45
2, 99296, Note_on_c, 1, 66, 0
2, 99360, Note_on_c, 1, 67, 45
2, 99392, Note_on_c, 1, 67, 0
2, 99456, Note_on_c, 1, 69, 45
2, 99488, Note_on_c, 1, 69, 0
2, 99552, Note_on_c, 1, 71, 45
2, 99584, Note_on_c, 1, 71, 0
2, 99648, Note_on_c, 1, 72, 45
2, 99680, Note_on_c, 1, 72, 0
2, 99744, Note_on_c, 1, 73, 45
2, 99776, Note_on_c, 1, 73, 0
2, 99840, Note_on_c, 1, 74, 45
2, 99872, Note_on_c, 1, 74, 0
2, 99936, Note_on_c, 1, 76, 45
2, 99968, Note_on_c, 1, 76, 0
2, 100032, Note_on_c, 1, 78, 45
2, 100064, Note_on_c, 1, 78, 0
2, 100128, Note_on_c, 1, 79, 45
2, 100160, Note_on_c, 1, 79, 0
2, 100224, Note_on_c, 1, 81, 45
2, 100256, Note_on_c, 1, 81, 0
2, 100320, Note_on_c, 1, 82, 45
2, 100352, Note_on_c, 1, 82, 0
2, 100416, Note_on_c, 1, 83, 45
2, 100448, Note_on_c, 1, 83, 0
2, 100512, Note_on_c, 1, 79, 45
2, 100544, Note_on_c, 1, 79, 0
2, 100608, Note_on_c, 1, 78, 45
2, 100640, Note_on_c, 1, 78, 0
2, 100704, Note_on_c, 1, 81, 45
2, 100736, Note_on_c, 1, 81, 0
2, 100800, Note_on_c, 1, 79, 45
2, 100832, Note_on_c, 1, 79, 0
2, 100896, Note_on_c, 1, 76, 45
2, 100928, Note_on_c, 1, 76, 0
2, 100992, Note_on_c, 1, 74, 45
2, 101024, Note_on_c, 1, 74, 0
2, 101088, Note_on_c, 1, 66, 45
2, 101120, Note_on_c, 1, 66, 0
2, 101184, Note_on_c, 1, 69, 45
2, 101216, Note_on_c, 1, 69, 0
2, 101280, Note_on_c, 1, 62, 45
2, 101312, Note_on_c, 1, 62, 0
2, 101856, Note_on_c, 1, 81, 45
2, 101888, Note_on_c, 1, 81, 0
2, 101952, Note_on_c, 1, 78, 45
2, 101984, Note_on_c, 1, 78, 0
2, 102048, Note_on_c, 1, 75, 45
2, 102080, Note_on_c, 1, 75, 0
2, 102144, Note_on_c, 1, 76, 45
2, 102176, Note_on_c, 1, 76, 0
2, 102240, Note_on_c, 1, 79, 45
2, 102272, Note_on_c, 1, 79, 0
2, 102336, Note_on_c, 1, 78, 45
2, 102368, Note_on_c, 1, 78, 0
2, 102432, Note_on_c, 1, 76, 45
2, 102464, Note_on_c, 1, 76, 0
2, 102528, Note_on_c, 1, 75, 45
2, 102560, Note_on_c, 1, 75, 0
2, 102624, Note_on_c, 1, 73, 45
2, 102656, Note_on_c, 1, 73, 0
2, 102720, Note_on_c, 1, 71, 45
2, 102752, Note_on_c, 1, 71, 0
2, 102816, Note_on_c, 1, 73, 45
2, 102848, Note_on_c, 1, 73, 0
2, 102912, Note_on_c, 1, 75, 45
2, 102944, Note_on_c, 1, 75, 0
2, 103008, Note_on_c, 1, 76, 45
2, 103040, Note_on_c, 1, 76, 0
2, 103104, Note_on_c, 1, 78, 45
2, 103136, Note_on_c, 1, 78, 0
2, 103200, Note_on_c, 1, 79, 45
2, 103232, Note_on_c, 1, 79, 0
2, 103296, Note_on_c, 1, 81, 45
2, 103328, Note_on_c, 1, 81, 0
2, 103392, Note_on_c, 1, 83, 45
2, 103424, Note_on_c, 1, 83, 0
2, 103488, Note_on_c, 1, 85, 45
2, 103520, Note_on_c, 1, 85, 0
2, 103584, Note_on_c, 1, 87, 45
2, 103616, Note_on_c, 1, 87, 0
2, 103680, Note_on_c, 1, 88, 45
2, 103712, Note_on_c, 1, 88, 0
2, 103776, Note_on_c, 1, 91, 45
2, 103808, Note_on_c, 1, 91, 0
2, 103872, Note_on_c, 1, 90, 45
2, 103904, Note_on_c, 1, 90, 0
2, 103968, Note_on_c, 1, 87, 45
2, 104000, Note_on_c, 1, 87, 0
2, 104064, Note_on_c, 1, 88, 45
2, 104096, Note_on_c, 1, 88, 0
2, 104160, Note_on_c, 1, 79, 45
2, 104192, Note_on_c, 1, 79, 0
2, 104256, Note_on_c, 1, 83, 45
2, 104288, Note_on_c, 1, 83, 0
2, 104352, Note_on_c, 1, 76, 45
2, 104384, Note_on_c, 1, 76, 0
2, 104448, Note_on_c, 1, 77, 45
2, 104480, Note_on_c, 1, 77, 0
2, 104544, Note_on_c, 1, 71, 45
2, 104576, Note_on_c, 1, 71, 0
2, 104640, Note_on_c, 1, 74, 45
2, 104672, Note_on_c, 1, 74, 0
2, 104736, Note_on_c, 1, 65, 45
2, 104768, Note_on_c, 1, 65, 0
2, 104832, Note_on_c, 1, 64, 45
2, 104864, Note_on_c, 1, 64, 0
2, 104928, Note_on_c, 1, 72, 45
2, 104960, Note_on_c, 1, 72, 0
2, 105024, Note_on_c, 1, 67, 45
2, 105056, Note_on_c, 1, 67, 0
2, 105120, Note_on_c, 1, 76, 45
2, 105152, Note_on_c, 1, 76, 0
2, 105216, Note_on_c, 1, 84, 45
2, 105248, Note_on_c, 1, 84, 0
2, 105312, Note_on_c, 1, 78, 50
2, 105344, Note_on_c, 1, 78, 0
2, 105408, Note_on_c, 1, 81, 56
2, 105440, Note_on_c, 1, 81, 0
2, 105504, Note_on_c, 1, 72, 62
2, 105536, Note_on_c, 1, 72, 0
2, 105600, Note_on_c, 1, 78, 68
2, 105632, Note_on_c, 1, 78, 0
2, 105696, Note_on_c, 1, 69, 74
2, 105728, Note_on_c, 1, 69, 0
2, 105792, Note_on_c, 1, 72, 80
2, 105824, Note_on_c, 1, 72, 0
2, 105888, Note_on_c, 1, 66, 86
2, 105920, Note_on_c, 1, 66, 0
2, 105984, Note_on_c, 1, 74, 92
2, 106032, Note_on_c, 1, 74, 0
2, 106176, Note_on_c, 1, 79, 92
2, 106224, Note_on_c, 1, 79, 0
2, 106368, Note_on_c, 1, 83, 127
2, 106656, Note_on_c, 1, 83, 0
2, 106656, Note_on_c, 1, 81, 92
2, 106704, Note_on_c, 1, 81, 0
2, 106704, Note_on_c, 1, 79, 92
2, 106750, Note_on_c, 1, 79, 0
2, 106752, Note_on_c, 1, 78, 92
2, 106784, Note_on_c, 1, 78, 0
2, 106848, Note_on_c, 1, 79, 92
2, 106880, Note_on_c, 1, 79, 0
2, 106944, Note_on_c, 1, 81, 92
2, 106976, Note_on_c, 1, 81, 0
2, 107040, Note_on_c, 1, 83, 92
2, 107072, Note_on_c, 1, 83, 0
2, 107136, Note_on_c, 1, 84, 92
2, 107230, Note_on_c, 1, 84, 0
2, 107520, Note_on_c, 1, 74, 92
2, 107568, Note_on_c, 1, 74, 0
2, 107712, Note_on_c, 1, 81, 92
2, 107760, Note_on_c, 1, 81, 0
2, 107904, Note_on_c, 1, 84, 127
2, 108192, Note_on_c, 1, 84, 0
2, 108192, Note_on_c, 1, 83, 92
2, 108240, Note_on_c, 1, 83, 0
2, 108240, Note_on_c, 1, 81, 92
2, 108286, Note_on_c, 1, 81, 0
2, 108288, Note_on_c, 1, 86, 92
2, 108320, Note_on_c, 1, 86, 0
2, 108384, Note_on_c, 1, 83, 92
2, 108416, Note_on_c, 1, 83, 0
2, 108480, Note_on_c, 1, 84, 92
2, 108512, Note_on_c, 1, 84, 0
2, 108576, Note_on_c, 1, 81, 92
2, 108608, Note_on_c, 1, 81, 0
2, 108672, Note_on_c, 1, 79, 92
2, 108704, Note_on_c, 1, 79, 0
2, 108768, Note_on_c, 1, 83, 45
2, 108816, Note_on_c, 1, 83, 0
2, 108816, Note_on_c, 1, 79, 45
2, 108862, Note_on_c, 1, 79, 0
2, 108864, Note_on_c, 1, 74, 45
2, 109150, Note_on_c, 1, 74, 0
2, 109152, Note_on_c, 1, 74, 45
2, 109200, Note_on_c, 1, 74, 0
2, 109200, Note_on_c, 1, 73, 45
2, 109246, Note_on_c, 1, 73, 0
2, 109248, Note_on_c, 1, 74, 45
2, 109534, Note_on_c, 1, 74, 0
2, 109536, Note_on_c, 1, 74, 45
2, 109584, Note_on_c, 1, 74, 0
2, 109584, Note_on_c, 1, 76, 45
2, 109630, Note_on_c, 1, 76, 0
2, 109632, Note_on_c, 1, 72, 45
2, 109664, Note_on_c, 1, 72, 0
2, 109728, Note_on_c, 1, 72, 45
2, 109776, Note_on_c, 1, 72, 0
2, 109776, Note_on_c, 1, 74, 45
2, 109822, Note_on_c, 1, 74, 0
2, 109824, Note_on_c, 1, 71, 60
2, 109856, Note_on_c, 1, 71, 0
2, 109920, Note_on_c, 1, 71, 45
2, 109968, Note_on_c, 1, 71, 0
2, 109968, Note_on_c, 1, 72, 45
2, 110014, Note_on_c, 1, 72, 0
2, 110016, Note_on_c, 1, 69, 45
2, 110048, Note_on_c, 1, 69, 0
2, 110112, Note_on_c, 1, 69, 45
2, 110160, Note_on_c, 1, 69, 0
2, 110160, Note_on_c, 1, 71, 45
2, 110206, Note_on_c, 1, 71, 0
2, 110208, Note_on_c, 1, 67, 45
2, 110240, Note_on_c, 1, 67, 0
2, 110304, Note_on_c, 1, 71, 45
2, 110352, Note_on_c, 1, 71, 0
2, 110352, Note_on_c, 1, 67, 45
2, 110398, Note_on_c, 1, 67, 0
2, 110400, Note_on_c, 1, 62, 45
2, 110686, Note_on_c, 1, 62, 0
2, 110688, Note_on_c, 1, 62, 45
2, 110736, Note_on_c, 1, 62, 0
2, 110736, Note_on_c, 1, 61, 45
2, 110782, Note_on_c, 1, 61, 0
2, 110784, Note_on_c, 1, 62, 45
2, 111070, Note_on_c, 1, 62, 0
2, 111072, Note_on_c, 1, 62, 50
2, 111120, Note_on_c, 1, 62, 0
2, 111120, Note_on_c, 1, 61, 53
2, 111168, Note_on_c, 1, 61, 0
2, 111168, Note_on_c, 1, 62, 56
2, 111216, Note_on_c, 1, 62, 0
2, 111216, Note_on_c, 1, 60, 59
2, 111264, Note_on_c, 1, 60, 0
2, 111264, Note_on_c, 1, 59, 62
2, 111312, Note_on_c, 1, 59, 0
2, 111312, Note_on_c, 1, 57, 65
2, 111358, Note_on_c, 1, 57, 0
2, 111360, Note_on_c, 1, 55, 68
2, 111392, Note_on_c, 1, 55, 0
2, 111456, Note_on_c, 1, 67, 74
2, 111504, Note_on_c, 1, 67, 0
2, 111504, Note_on_c, 1, 66, 77
2, 111552, Note_on_c, 1, 66, 0
2, 111552, Note_on_c, 1, 67, 80
2, 111600, Note_on_c, 1, 67, 0
2, 111600, Note_on_c, 1, 69, 83
2, 111648, Note_on_c, 1, 69, 0
2, 111648, Note_on_c, 1, 71, 86
2, 111696, Note_on_c, 1, 71, 0
2, 111696, Note_on_c, 1, 73, 89
2, 111742, Note_on_c, 1, 73, 0
2, 111744, Note_on_c, 1, 74, 92
2, 111776, Note_on_c, 1, 74, 0
2, 111840, Note_on_c, 1, 74, 92
2, 111888, Note_on_c, 1, 74, 0
2, 111888, Note_on_c, 1, 73, 92
2, 111936, Note_on_c, 1, 73, 0
2, 111936, Note_on_c, 1, 74, 92
2, 111984, Note_on_c, 1, 74, 0
2, 111984, Note_on_c, 1, 76, 92
2, 112032, Note_on_c, 1, 76, 0
2, 112032, Note_on_c, 1, 78, 92
2, 112080, Note_on_c, 1, 78, 0
2, 112080, Note_on_c, 1, 74, 92
2, 112126, Note_on_c, 1, 74, 0
2, 112128, Note_on_c, 1, 79, 92
2, 112160, Note_on_c, 1, 79, 0
2, 112224, Note_on_c, 1, 79, 92
2, 112272, Note_on_c, 1, 79, 0
2, 112272, Note_on_c, 1, 78, 92
2, 112320, Note_on_c, 1, 78, 0
2, 112320, Note_on_c, 1, 79, 92
2, 112368, Note_on_c, 1, 79, 0
2, 112368, Note_on_c, 1, 81, 92
2, 112416, Note_on_c, 1, 81, 0
2, 112416, Note_on_c, 1, 83, 92
2, 112464, Note_on_c, 1, 83, 0
2, 112464, Note_on_c, 1, 85, 92
2, 112510, Note_on_c, 1, 85, 0
2, 112512, Note_on_c, 1, 86, 92
2, 112672, Note_on_c, 1, 86, 0
2, 113280, Note_on_c, 1, 74, 108
2, 113760, Note_on_c, 1, 74, 0
2, 113760, Note_on_c, 1, 75, 108
2, 113856, Note_on_c, 1, 75, 0
2, 113856, Note_on_c, 1, 74, 108
2, 113952, Note_on_c, 1, 74, 0
2, 113952, Note_on_c, 1, 75, 108
2, 114046, Note_on_c, 1, 75, 0
2, 114048, Note_on_c, 1, 74, 108
2, 114142, Note_on_c, 1, 74, 0
2, 114816, Note_on_c, 1, 79, 108
2, 115296, Note_on_c, 1, 79, 0
2, 115296, Note_on_c, 1, 78, 108
2, 115392, Note_on_c, 1, 78, 0
2, 115392, Note_on_c, 1, 79, 108
2, 115488, Note_on_c, 1, 79, 0
2, 115488, Note_on_c, 1, 78, 108
2, 115582, Note_on_c, 1, 78, 0
2, 115584, Note_on_c, 1, 79, 108
2, 115678, Note_on_c, 1, 79, 0
2, 115776, Note_on_c, 1, 82, 108
2, 116064, Note_on_c, 1, 82, 0
2, 116064, Note_on_c, 1, 81, 108
2, 116160, Note_on_c, 1, 81, 0
2, 116160, Note_on_c, 1, 82, 108
2, 116256, Note_on_c, 1, 82, 0
2, 116256, Note_on_c, 1, 81, 108
2, 116350, Note_on_c, 1, 81, 0
2, 116352, Note_on_c, 1, 82, 108
2, 116446, Note_on_c, 1, 82, 0
2, 116544, Note_on_c, 1, 70, 108
2, 116832, Note_on_c, 1, 70, 0
2, 116832, Note_on_c, 1, 69, 108
2, 116926, Note_on_c, 1, 69, 0
2, 116928, Note_on_c, 1, 70, 108
2, 116960, Note_on_c, 1, 70, 0
2, 117024, Note_on_c, 1, 70, 108
2, 117056, Note_on_c, 1, 70, 0
2, 117120, Note_on_c, 1, 69, 108
2, 117214, Note_on_c, 1, 69, 0
2, 117216, Note_on_c, 1, 62, 108
2, 117310, Note_on_c, 1, 62, 0
2, 117312, Note_on_c, 1, 74, 108
2, 117598, Note_on_c, 1, 74, 0
2, 117600, Note_on_c, 1, 64, 108
2, 117694, Note_on_c, 1, 64, 0
2, 117696, Note_on_c, 1, 76, 108
2, 117982, Note_on_c, 1, 76, 0
2, 117984, Note_on_c, 1, 66, 108
2, 118078, Note_on_c, 1, 66, 0
2, 118080, Note_on_c, 1, 78, 108
2, 118366, Note_on_c, 1, 78, 0
2, 118368, Note_on_c, 1, 67, 108
2, 118462, Note_on_c, 1, 67, 0
2, 118464, Note_on_c, 1, 79, 108
2, 118750, Note_on_c, 1, 79, 0
2, 118752, Note_on_c, 1, 69, 108
2, 118848, Note_on_c, 1, 69, 0
2, 118848, Note_on_c, 1, 81, 108
2, 118880, Note_on_c, 1, 81, 0
2, 118944, Note_on_c, 1, 79, 98
2, 118976, Note_on_c, 1, 79, 0
2, 119040, Note_on_c, 1, 78, 88
2, 119072, Note_on_c, 1, 78, 0
2, 119136, Note_on_c, 1, 76, 78
2, 119168, Note_on_c, 1, 76, 0
2, 119232, Note_on_c, 1, 74, 67
2, 119264, Note_on_c, 1, 74, 0
2, 119328, Note_on_c, 1, 72, 56
2, 119360, Note_on_c, 1, 72, 0
2, 119424, Note_on_c, 1, 71, 45
2, 119518, Note_on_c, 1, 71, 0
2, 119520, Note_on_c, 1, 71, 45
2, 119680, Note_on_c, 1, 71, 0
2, 119712, Note_on_c, 1, 71, 45
2, 119902, Note_on_c, 1, 71, 0
2, 119904, Note_on_c, 1, 71, 45
2, 119936, Note_on_c, 1, 71, 0
2, 120000, Note_on_c, 1, 72, 45
2, 120048, Note_on_c, 1, 72, 0
2, 120048, Note_on_c, 1, 71, 45
2, 120096, Note_on_c, 1, 71, 0
2, 120096, Note_on_c, 1, 69, 45
2, 120144, Note_on_c, 1, 69, 0
2, 120144, Note_on_c, 1, 71, 45
2, 120190, Note_on_c, 1, 71, 0
2, 120192, Note_on_c, 1, 72, 45
2, 120288, Note_on_c, 1, 72, 0
2, 120288, Note_on_c, 1, 69, 45
2, 120384, Note_on_c, 1, 69, 0
2, 120384, Note_on_c, 1, 71, 45
2, 120480, Note_on_c, 1, 71, 0
2, 120480, Note_on_c, 1, 67, 45
2, 120574, Note_on_c, 1, 67, 0
2, 120576, Note_on_c, 1, 67, 45
2, 120672, Note_on_c, 1, 67, 0
2, 120672, Note_on_c, 1, 66, 45
2, 120768, Note_on_c, 1, 66, 0
2, 120768, Note_on_c, 1, 64, 45
2, 120864, Note_on_c, 1, 64, 0
2, 120864, Note_on_c, 1, 62, 45
2, 120958, Note_on_c, 1, 62, 0
2, 120960, Note_on_c, 1, 74, 45
2, 121054, Note_on_c, 1, 74, 0
2, 121056, Note_on_c, 1, 74, 45
2, 121216, Note_on_c, 1, 74, 0
2, 121248, Note_on_c, 1, 74, 45
2, 121438, Note_on_c, 1, 74, 0
2, 121440, Note_on_c, 1, 74, 45
2, 121472, Note_on_c, 1, 74, 0
2, 121536, Note_on_c, 1, 76, 45
2, 121584, Note_on_c, 1, 76, 0
2, 121584, Note_on_c, 1, 74, 45
2, 121632, Note_on_c, 1, 74, 0
2, 121632, Note_on_c, 1, 73, 45
2, 121680, Note_on_c, 1, 73, 0
2, 121680, Note_on_c, 1, 74, 45
2, 121726, Note_on_c, 1, 74, 0
2, 121728, Note_on_c, 1, 76, 45
2, 121760, Note_on_c, 1, 76, 0
2, 121824, Note_on_c, 1, 72, 45
2, 121856, Note_on_c, 1, 72, 0
2, 121920, Note_on_c, 1, 69, 45
2, 121952, Note_on_c, 1, 69, 0
2, 122016, Note_on_c, 1, 66, 45
2, 122048, Note_on_c, 1, 66, 0
2, 122112, Note_on_c, 1, 67, 45
2, 122206, Note_on_c, 1, 67, 0
2, 123264, Note_on_c, 1, 84, 45
2, 123296, Note_on_c, 1, 84, 0
2, 123360, Note_on_c, 1, 81, 45
2, 123392, Note_on_c, 1, 81, 0
2, 123456, Note_on_c, 1, 78, 45
2, 123488, Note_on_c, 1, 78, 0
2, 123552, Note_on_c, 1, 72, 45
2, 123584, Note_on_c, 1, 72, 0
2, 123648, Note_on_c, 1, 72, 45
2, 123742, Note_on_c, 1, 72, 0
2, 123744, Note_on_c, 1, 72, 45
2, 123838, Note_on_c, 1, 72, 0
2, 123840, Note_on_c, 1, 74, 45
2, 123888, Note_on_c, 1, 74, 0
2, 123888, Note_on_c, 1, 72, 45
2, 123936, Note_on_c, 1, 72, 0
2, 123936, Note_on_c, 1, 71, 45
2, 123984, Note_on_c, 1, 71, 0
2, 123984, Note_on_c, 1, 72, 45
2, 124030, Note_on_c, 1, 72, 0
2, 124032, Note_on_c, 1, 74, 45
2, 124126, Note_on_c, 1, 74, 0
2, 124800, Note_on_c, 1, 76, 45
2, 124832, Note_on_c, 1, 76, 0
2, 124896, Note_on_c, 1, 72, 45
2, 124928, Note_on_c, 1, 72, 0
2, 124992, Note_on_c, 1, 67, 45
2, 125024, Note_on_c, 1, 67, 0
2, 125088, Note_on_c, 1, 64, 45
2, 125120, Note_on_c, 1, 64, 0
2, 125184, Note_on_c, 1, 64, 45
2, 125278, Note_on_c, 1, 64, 0
2, 125280, Note_on_c, 1, 64, 45
2, 125374, Note_on_c, 1, 64, 0
2, 125376, Note_on_c, 1, 66, 45
2, 125424, Note_on_c, 1, 66, 0
2, 125424, Note_on_c, 1, 64, 45
2, 125472, Note_on_c, 1, 64, 0
2, 125472, Note_on_c, 1, 63, 45
2, 125520, Note_on_c, 1, 63, 0
2, 125520, Note_on_c, 1, 64, 45
2, 125566, Note_on_c, 1, 64, 0
2, 125568, Note_on_c, 1, 66, 63
2, 125662, Note_on_c, 1, 66, 0
2, 125664, Note_on_c, 1, 66, 45
2, 125758, Note_on_c, 1, 66, 0
2, 125760, Note_on_c, 1, 67, 45
2, 125808, Note_on_c, 1, 67, 0
2, 125808, Note_on_c, 1, 66, 45
2, 125856, Note_on_c, 1, 66, 0
2, 125856, Note_on_c, 1, 64, 45
2, 125904, Note_on_c, 1, 64, 0
2, 125904, Note_on_c, 1, 66, 45
2, 125950, Note_on_c, 1, 66, 0
2, 125952, Note_on_c, 1, 67, 63
2, 126046, Note_on_c, 1, 67, 0
2, 126048, Note_on_c, 1, 67, 45
2, 126142, Note_on_c, 1, 67, 0
2, 126144, Note_on_c, 1, 69, 45
2, 126192, Note_on_c, 1, 69, 0
2, 126192, Note_on_c, 1, 67, 45
2, 126240, Note_on_c, 1, 67, 0
2, 126240, Note_on_c, 1, 66, 45
2, 126288, Note_on_c, 1, 66, 0
2, 126288, Note_on_c, 1, 67, 45
2, 126334, Note_on_c, 1, 67, 0
2, 126336, Note_on_c, 1, 69, 63
2, 126430, Note_on_c, 1, 69, 0
2, 126432, Note_on_c, 1, 69, 45
2, 126526, Note_on_c, 1, 69, 0
2, 126528, Note_on_c, 1, 71, 45
2, 126576, Note_on_c, 1, 71, 0
2, 126576, Note_on_c, 1, 69, 45
2, 126624, Note_on_c, 1, 69, 0
2, 126624, Note_on_c, 1, 68, 45
2, 126672, Note_on_c, 1, 68, 0
2, 126672, Note_on_c, 1, 69, 45
2, 126718, Note_on_c, 1, 69, 0
2, 126720, Note_on_c, 1, 71, 63
2, 126814, Note_on_c, 1, 71, 0
2, 126816, Note_on_c, 1, 71, 45
2, 126910, Note_on_c, 1, 71, 0
2, 126912, Note_on_c, 1, 72, 45
2, 126960, Note_on_c, 1, 72, 0
2, 126960, Note_on_c, 1, 71, 45
2, 127008, Note_on_c, 1, 71, 0
2, 127008, Note_on_c, 1, 69, 45
2, 127056, Note_on_c, 1, 69, 0
2, 127056, Note_on_c, 1, 71, 45
2, 127102, Note_on_c, 1, 71, 0
2, 127104, Note_on_c, 1, 72, 45
2, 127296, Note_on_c, 1, 72, 0
2, 127296, Note_on_c, 1, 69, 45
2, 127488, Note_on_c, 1, 69, 0
2, 127488, Note_on_c, 1, 66, 45
2, 127824, Note_on_c, 1, 66, 0
2, 127872, Note_on_c, 1, 78, 45
2, 128064, Note_on_c, 1, 78, 0
2, 128064, Note_on_c, 1, 72, 45
2, 128256, Note_on_c, 1, 72, 0
2, 128256, Note_on_c, 1, 69, 45
2, 128592, Note_on_c, 1, 69, 0
2, 128640, Note_on_c, 1, 81, 45
2, 128832, Note_on_c, 1, 81, 0
2, 128832, Note_on_c, 1, 78, 45
2, 129024, Note_on_c, 1, 78, 0
2, 129024, Note_on_c, 1, 72, 45
2, 129360, Note_on_c, 1, 72, 0
2, 129408, Note_on_c, 1, 84, 45
2, 129600, Note_on_c, 1, 84, 0
2, 129600, Note_on_c, 1, 81, 45
2, 129792, Note_on_c, 1, 81, 0
2, 129792, Note_on_c, 1, 78, 45
2, 130128, Note_on_c, 1, 78, 0
2, 130176, Note_on_c, 1, 82, 45
2, 130272, Note_on_c, 1, 82, 0
2, 130272, Note_on_c, 1, 79, 52
2, 130368, Note_on_c, 1, 79, 0
2, 130368, Note_on_c, 1, 76, 60
2, 130464, Note_on_c, 1, 76, 0
2, 130464, Note_on_c, 1, 73, 68
2, 130560, Note_on_c, 1, 73, 0
2, 130560, Note_on_c, 1, 70, 76
2, 130656, Note_on_c, 1, 70, 0
2, 130656, Note_on_c, 1, 67, 84
2, 130752, Note_on_c, 1, 67, 0
2, 130752, Note_on_c, 1, 64, 92
2, 130848, Note_on_c, 1, 64, 0
2, 130848, Note_on_c, 1, 61, 100
2, 130942, Note_on_c, 1, 61, 0
2, 130944, Note_on_c, 1, 62, 108
2, 131232, Note_on_c, 1, 62, 0
2, 131232, Note_on_c, 1, 59, 108
2, 131280, Note_on_c, 1, 59, 0
2, 131280, Note_on_c, 1, 55, 108
2, 131326, Note_on_c, 1, 55, 0
2, 131328, Note_on_c, 1, 57, 108
2, 131360, Note_on_c, 1, 57, 0
2, 131360, Note_on_c, 1, 59, 108
2, 131392, Note_on_c, 1, 59, 0
2, 131392, Note_on_c, 1, 57, 108
2, 131424, Note_on_c, 1, 57, 0
2, 131424, Note_on_c, 1, 59, 108
2, 131456, Note_on_c, 1, 59, 0
2, 131456, Note_on_c, 1, 57, 108
2, 131488, Note_on_c, 1, 57, 0
2, 131488, Note_on_c, 1, 59, 108
2, 131520, Note_on_c, 1, 59, 0
2, 131520, Note_on_c, 1, 57, 108
2, 131552, Note_on_c, 1, 57, 0
2, 131552, Note_on_c, 1, 59, 108
2, 131584, Note_on_c, 1, 59, 0
2, 131584, Note_on_c, 1, 57, 108
2, 131616, Note_on_c, 1, 57, 0
2, 131616, Note_on_c, 1, 59, 108
2, 131648, Note_on_c, 1, 59, 0
2, 131648, Note_on_c, 1, 57, 108
2, 131680, Note_on_c, 1, 57, 0
2, 131680, Note_on_c, 1, 59, 108
2, 131710, Note_on_c, 1, 59, 0
2, 131712, Note_on_c, 1, 72, 45
2, 131904, Note_on_c, 1, 72, 0
2, 131904, Note_on_c, 1, 69, 45
2, 132096, Note_on_c, 1, 69, 0
2, 132096, Note_on_c, 1, 66, 45
2, 132432, Note_on_c, 1, 66, 0
2, 132480, Note_on_c, 1, 78, 45
2, 132672, Note_on_c, 1, 78, 0
2, 132672, Note_on_c, 1, 72, 45
2, 132864, Note_on_c, 1, 72, 0
2, 132864, Note_on_c, 1, 69, 45
2, 133200, Note_on_c, 1, 69, 0
2, 133248, Note_on_c, 1, 81, 45
2, 133440, Note_on_c, 1, 81, 0
2, 133440, Note_on_c, 1, 78, 45
2, 133632, Note_on_c, 1, 78, 0
2, 133632, Note_on_c, 1, 72, 60
2, 133968, Note_on_c, 1, 72, 0
2, 134016, Note_on_c, 1, 84, 30
2, 134112, Note_on_c, 1, 84, 0
2, 134112, Note_on_c, 1, 81, 30
2, 134208, Note_on_c, 1, 81, 0
2, 134208, Note_on_c, 1, 78, 30
2, 134400, Note_on_c, 1, 78, 0
2, 134400, Note_on_c, 1, 87, 30
2, 134496, Note_on_c, 1, 87, 0
2, 134496, Note_on_c, 1, 84, 30
2, 134592, Note_on_c, 1, 84, 0
2, 134592, Note_on_c, 1, 81, 30
2, 134752, Note_on_c, 1, 81, 0
2, 134784, Note_on_c, 1, 87, 30
2, 135168, Note_on_c, 1, 87, 0
2, 135168, Note_on_c, 1, 86, 30
2, 135264, Note_on_c, 1, 86, 0
2, 135264, Note_on_c, 1, 85, 30
2, 135360, Note_on_c, 1, 85, 0
2, 135360, Note_on_c, 1, 86, 30
2, 135456, Note_on_c, 1, 86, 0
2, 135456, Note_on_c, 1, 82, 30
2, 135550, Note_on_c, 1, 82, 0
2, 135552, Note_on_c, 1, 81, 30
2, 135600, Note_on_c, 1, 81, 0
2, 135744, Note_on_c, 1, 81, 30
2, 135792, Note_on_c, 1, 81, 0
2, 135936, Note_on_c, 1, 82, 30
2, 136224, Note_on_c, 1, 82, 0
2, 136224, Note_on_c, 1, 84, 30
2, 136272, Note_on_c, 1, 84, 0
2, 136272, Note_on_c, 1, 86, 30
2, 136318, Note_on_c, 1, 86, 0
2, 136320, Note_on_c, 1, 87, 30
2, 136704, Note_on_c, 1, 87, 0
2, 136704, Note_on_c, 1, 86, 30
2, 136800, Note_on_c, 1, 86, 0
2, 136800, Note_on_c, 1, 85, 30
2, 136896, Note_on_c, 1, 85, 0
2, 136896, Note_on_c, 1, 86, 30
2, 136992, Note_on_c, 1, 86, 0
2, 136992, Note_on_c, 1, 82, 30
2, 137086, Note_on_c, 1, 82, 0
2, 137088, Note_on_c, 1, 81, 30
2, 137136, Note_on_c, 1, 81, 0
2, 137280, Note_on_c, 1, 81, 30
2, 137328, Note_on_c, 1, 81, 0
2, 137472, Note_on_c, 1, 82, 30
2, 137760, Note_on_c, 1, 82, 0
2, 137760, Note_on_c, 1, 81, 30
2, 137854, Note_on_c, 1, 81, 0
2, 137856, Note_on_c, 1, 80, 30
2, 138576, Note_on_c, 1, 80, 0
2, 138624, Note_on_c, 1, 81, 60
2, 138912, Note_on_c, 1, 81, 0
2, 138912, Note_on_c, 1, 78, 72
2, 138960, Note_on_c, 1, 78, 0
2, 138960, Note_on_c, 1, 74, 74
2, 139006, Note_on_c, 1, 74, 0
2, 139008, Note_on_c, 1, 78, 76
2, 139040, Note_on_c, 1, 78, 0
2, 139040, Note_on_c, 1, 76, 77
2, 139072, Note_on_c, 1, 76, 0
2, 139072, Note_on_c, 1, 78, 78
2, 139104, Note_on_c, 1, 78, 0
2, 139104, Note_on_c, 1, 76, 79
2, 139136, Note_on_c, 1, 76, 0
2, 139136, Note_on_c, 1, 78, 80
2, 139168, Note_on_c, 1, 78, 0
2, 139168, Note_on_c, 1, 76, 81
2, 139200, Note_on_c, 1, 76, 0
2, 139200, Note_on_c, 1, 78, 82
2, 139232, Note_on_c, 1, 78, 0
2, 139232, Note_on_c, 1, 76, 83
2, 139264, Note_on_c, 1, 76, 0
2, 139264, Note_on_c, 1, 78, 84
2, 139296, Note_on_c, 1, 78, 0
2, 139296, Note_on_c, 1, 76, 86
2, 139328, Note_on_c, 1, 76, 0
2, 139328, Note_on_c, 1, 74, 88
2, 139360, Note_on_c, 1, 74, 0
2, 139360, Note_on_c, 1, 76, 90
2, 139390, Note_on_c, 1, 76, 0
2, 139392, Note_on_c, 1, 79, 92
2, 139424, Note_on_c, 1, 79, 0
2, 139424, Note_on_c, 1, 78, 92
2, 139456, Note_on_c, 1, 78, 0
2, 139456, Note_on_c, 1, 79, 92
2, 139488, Note_on_c, 1, 79, 0
2, 139488, Note_on_c, 1, 78, 92
2, 139520, Note_on_c, 1, 78, 0
2, 139520, Note_on_c, 1, 79, 92
2, 139552, Note_on_c, 1, 79, 0
2, 139552, Note_on_c, 1, 78, 92
2, 139584, Note_on_c, 1, 78, 0
2, 139584, Note_on_c, 1, 79, 92
2, 139616, Note_on_c, 1, 79, 0
2, 139616, Note_on_c, 1, 78, 92
2, 139648, Note_on_c, 1, 78, 0
2, 139648, Note_on_c, 1, 79, 92
2, 139680, Note_on_c, 1, 79, 0
2, 139680, Note_on_c, 1, 78, 92
2, 139712, Note_on_c, 1, 78, 0
2, 139712, Note_on_c, 1, 79, 92
2, 139744, Note_on_c, 1, 79, 0
2, 139744, Note_on_c, 1, 78, 92
2, 139776, Note_on_c, 1, 78, 0
2, 139776, Note_on_c, 1, 79, 92
2, 139808, Note_on_c, 1, 79, 0
2, 139808, Note_on_c, 1, 78, 92
2, 139840, Note_on_c, 1, 78, 0
2, 139840, Note_on_c, 1, 79, 92
2, 139872, Note_on_c, 1, 79, 0
2, 139872, Note_on_c, 1, 78, 92
2, 139904, Note_on_c, 1, 78, 0
2, 139904, Note_on_c, 1, 79, 92
2, 139936, Note_on_c, 1, 79, 0
2, 139936, Note_on_c, 1, 78, 92
2, 139968, Note_on_c, 1, 78, 0
2, 139968, Note_on_c, 1, 79, 92
2, 140000, Note_on_c, 1, 79, 0
2, 140000, Note_on_c, 1, 78, 92
2, 140032, Note_on_c, 1, 78, 0
2, 140032, Note_on_c, 1, 79, 92
2, 140064, Note_on_c, 1, 79, 0
2, 140064, Note_on_c, 1, 78, 92
2, 140096, Note_on_c, 1, 78, 0
2, 140096, Note_on_c, 1, 79, 92
2, 140128, Note_on_c, 1, 79, 0
2, 140128, Note_on_c, 1, 78, 92
2, 140158, Note_on_c, 1, 78, 0
2, 140160, Note_on_c, 1, 81, 108
2, 140192, Note_on_c, 1, 81, 0
2, 140192, Note_on_c, 1, 79, 108
2, 140224, Note_on_c, 1, 79, 0
2, 140224, Note_on_c, 1, 81, 108
2, 140256, Note_on_c, 1, 81, 0
2, 140256, Note_on_c, 1, 79, 108
2, 140288, Note_on_c, 1, 79, 0
2, 140288, Note_on_c, 1, 78, 108
2, 140320, Note_on_c, 1, 78, 0
2, 140320, Note_on_c, 1, 79, 108
2, 140350, Note_on_c, 1, 79, 0
2, 140352, Note_on_c, 1, 83, 108
2, 140384, Note_on_c, 1, 83, 0
2, 140384, Note_on_c, 1, 81, 108
2, 140416, Note_on_c, 1, 81, 0
2, 140416, Note_on_c, 1, 83, 108
2, 140448, Note_on_c, 1, 83, 0
2, 140448, Note_on_c, 1, 81, 108
2, 140480, Note_on_c, 1, 81, 0
2, 140480, Note_on_c, 1, 79, 108
2, 140512, Note_on_c, 1, 79, 0
2, 140512, Note_on_c, 1, 81, 108
2, 140542, Note_on_c, 1, 81, 0
2, 140544, Note_on_c, 1, 83, 108
2, 140592, Note_on_c, 1, 83, 0
2, 140736, Note_on_c, 1, 81, 108
2, 140784, Note_on_c, 1, 81, 0
2, 140928, Note_on_c, 1, 79, 108
2, 140976, Note_on_c, 1, 79, 0
2, 141696, Note_on_c, 1, 74, 108
2, 141744, Note_on_c, 1, 74, 0
2, 141888, Note_on_c, 1, 81, 108
2, 141936, Note_on_c, 1, 81, 0
2, 142080, Note_on_c, 1, 84, 127
2, 142368, Note_on_c, 1, 84, 0
2, 142368, Note_on_c, 1, 83, 108
2, 142416, Note_on_c, 1, 83, 0
2, 142416, Note_on_c, 1, 81, 108
2, 142462, Note_on_c, 1, 81, 0
2, 142464, Note_on_c, 1, 79, 108
2, 142624, Note_on_c, 1, 79, 0
2, 143232, Note_on_c, 1, 74, 108
2, 143264, Note_on_c, 1, 74, 0
2, 143328, Note_on_c, 1, 74, 108
2, 143360, Note_on_c, 1, 74, 0
2, 143424, Note_on_c, 1, 81, 108
2, 143456, Note_on_c, 1, 81, 0
2, 143520, Note_on_c, 1, 81, 108
2, 143552, Note_on_c, 1, 81, 0
2, 143616, Note_on_c, 1, 84, 127
2, 143904, Note_on_c, 1, 84, 0
2, 143904, Note_on_c, 1, 83, 108
2, 143952, Note_on_c, 1, 83, 0
2, 143952, Note_on_c, 1, 81, 108
2, 143998, Note_on_c, 1, 81, 0
2, 144000, Note_on_c, 1, 79, 108
2, 144032, Note_on_c, 1, 79, 0
2, 144096, Note_on_c, 1, 81, 108
2, 144144, Note_on_c, 1, 81, 0
2, 144144, Note_on_c, 1, 83, 108
2, 144192, Note_on_c, 1, 83, 0
2, 144192, Note_on_c, 1, 84, 108
2, 144224, Note_on_c, 1, 84, 0
2, 144288, Note_on_c, 1, 83, 108
2, 144336, Note_on_c, 1, 83, 0
2, 144336, Note_on_c, 1, 81, 108
2, 144384, Note_on_c, 1, 81, 0
2, 144384, Note_on_c, 1, 79, 108
2, 144416, Note_on_c, 1, 79, 0
2, 144480, Note_on_c, 1, 81, 108
2, 144528, Note_on_c, 1, 81, 0
2, 144528, Note_on_c, 1, 83, 108
2, 144576, Note_on_c, 1, 83, 0
2, 144576, Note_on_c, 1, 84, 108
2, 144608, Note_on_c, 1, 84, 0
2, 144672, Note_on_c, 1, 83, 108
2, 144720, Note_on_c, 1, 83, 0
2, 144720, Note_on_c, 1, 81, 108
2, 144768, Note_on_c, 1, 81, 0
2, 144768, Note_on_c, 1, 79, 108
2, 144800, Note_on_c, 1, 79, 0
2, 144864, Note_on_c, 1, 86, 108
2, 145024, Note_on_c, 1, 86, 0
2, 145056, Note_on_c, 1, 86, 108
2, 145246, Note_on_c, 1, 86, 0
2, 145248, Note_on_c, 1, 86, 108
2, 145408, Note_on_c, 1, 86, 0
2, 145440, Note_on_c, 1, 86, 108
2, 145584, Note_on_c, 1, 86, 0
2, 145728, Note_on_c, 1, 83, 108
2, 145776, Note_on_c, 1, 83, 0
2, 145920, Note_on_c, 1, 79, 127
2, 146256, Note_on_c, 1, 79, 0
2, 146304, Note_on_c, 1, 83, 108
2, 146352, Note_on_c, 1, 83, 0
2, 146496, Note_on_c, 1, 79, 108
2, 146544, Note_on_c, 1, 79, 0
2, 146688, Note_on_c, 1, 74, 127
2, 147024, Note_on_c, 1, 74, 0
2, 147072, Note_on_c, 1, 79, 108
2, 147120, Note_on_c, 1, 79, 0
2, 147264, Note_on_c, 1, 74, 108
2, 147312, Note_on_c, 1, 74, 0
2, 147456, Note_on_c, 1, 71, 127
2, 147792, Note_on_c, 1, 71, 0
2, 147840, Note_on_c, 1, 74, 108
2, 147872, Note_on_c, 1, 74, 0
2, 147936, Note_on_c, 1, 71, 108
2, 147968, Note_on_c, 1, 71, 0
2, 148032, Note_on_c, 1, 67, 127
2, 148192, Note_on_c, 1, 67, 0
2, 148224, Note_on_c, 1, 71, 108
2, 148318, Note_on_c, 1, 71, 0
2, 148320, Note_on_c, 1, 67, 108
2, 148414, Note_on_c, 1, 67, 0
2, 148608, Note_on_c, 1, 67, 108
2, 148702, Note_on_c, 1, 67, 0
2, 148704, Note_on_c, 1, 62, 108
2, 148798, Note_on_c, 1, 62, 0
2, 148992, Note_on_c, 1, 62, 108
2, 149086, Note_on_c, 1, 62, 0
2, 149088, Note_on_c, 1, 59, 108
2, 149182, Note_on_c, 1, 59, 0
2, 149184, Note_on_c, 1, 55, 127
2, 149344, Note_on_c, 1, 55, 0
2, 149376, Note_on_c, 1, 62, 108
2, 149470, Note_on_c, 1, 62, 0
2, 149472, Note_on_c, 1, 59, 108
2, 149566, Note_on_c, 1, 59, 0
2, 149568, Note_on_c, 1, 55, 127
2, 149728, Note_on_c, 1, 55, 0
2, 149760, Note_on_c, 1, 62, 108
2, 149854, Note_on_c, 1, 62, 0
2, 149856, Note_on_c, 1, 59, 108
2, 149950, Note_on_c, 1, 59, 0
2, 149952, Note_on_c, 1, 55, 127
2, 150112, Note_on_c, 1, 55, 0
2, 150144, Note_on_c, 1, 62, 108
2, 150238, Note_on_c, 1, 62, 0
2, 150240, Note_on_c, 1, 59, 108
2, 150334, Note_on_c, 1, 59, 0
2, 150336, Note_on_c, 1, 55, 127
2, 150864, Note_on_c, 1, 55, 0
2, 150912, Note_on_c, 1, 62, 45
2, 151008, Note_on_c, 1, 62, 0
2, 151008, Note_on_c, 1, 59, 45
2, 151104, Note_on_c, 1, 59, 0
2, 151104, Note_on_c, 1, 55, 45
2, 151632, Note_on_c, 1, 55, 0
2, 151680, Note_on_c, 1, 65, 30
2, 151776, Note_on_c, 1, 65, 0
2, 151776, Note_on_c, 1, 62, 30
2, 151872, Note_on_c, 1, 62, 0
2, 151872, Note_on_c, 1, 55, 30
2, 153552, Note_on_c, 1, 55, 0
2, 153600, Note_on_c, 1, 67, 30
2, 153648, Note_on_c, 1, 67, 0
2, 153792, Note_on_c, 1, 72, 30
2, 153840, Note_on_c, 1, 72, 0
2, 153984, Note_on_c, 1, 76, 30
2, 154272, Note_on_c, 1, 76, 0
2, 154272, Note_on_c, 1, 74, 30
2, 154320, Note_on_c, 1, 74, 0
2, 154320, Note_on_c, 1, 72, 30
2, 154366, Note_on_c, 1, 72, 0
2, 154368, Note_on_c, 1, 71, 30
2, 154400, Note_on_c, 1, 71, 0
2, 154464, Note_on_c, 1, 72, 30
2, 154496, Note_on_c, 1, 72, 0
2, 154560, Note_on_c, 1, 74, 30
2, 154592, Note_on_c, 1, 74, 0
2, 154656, Note_on_c, 1, 76, 30
2, 154688, Note_on_c, 1, 76, 0
2, 154752, Note_on_c, 1, 77, 30
2, 154846, Note_on_c, 1, 77, 0
2, 155136, Note_on_c, 1, 67, 45
2, 155184, Note_on_c, 1, 67, 0
2, 155328, Note_on_c, 1, 72, 30
2, 155376, Note_on_c, 1, 72, 0
2, 155520, Note_on_c, 1, 76, 30
2, 155856, Note_on_c, 1, 76, 0
2, 155904, Note_on_c, 1, 62, 45
2, 155952, Note_on_c, 1, 62, 0
2, 156096, Note_on_c, 1, 69, 30
2, 156144, Note_on_c, 1, 69, 0
2, 156288, Note_on_c, 1, 72, 30
2, 156624, Note_on_c, 1, 72, 0
2, 156672, Note_on_c, 1, 71, 30
2, 156720, Note_on_c, 1, 71, 0
2, 156864, Note_on_c, 1, 79, 45
2, 156912, Note_on_c, 1, 79, 0
2, 157056, Note_on_c, 1, 83, 30
2, 157344, Note_on_c, 1, 83, 0
2, 157344, Note_on_c, 1, 81, 30
2, 157392, Note_on_c, 1, 81, 0
2, 157392, Note_on_c, 1, 79, 30
2, 157438, Note_on_c, 1, 79, 0
2, 157440, Note_on_c, 1, 78, 30
2, 157472, Note_on_c, 1, 78, 0
2, 157536, Note_on_c, 1, 79, 45
2, 157568, Note_on_c, 1, 79, 0
2, 157632, Note_on_c, 1, 81, 30
2, 157664, Note_on_c, 1, 81, 0
2, 157728, Note_on_c, 1, 83, 30
2, 157760, Note_on_c, 1, 83, 0
2, 157824, Note_on_c, 1, 84, 30
2, 157918, Note_on_c, 1, 84, 0
2, 158208, Note_on_c, 1, 74, 30
2, 158256, Note_on_c, 1, 74, 0
2, 158400, Note_on_c, 1, 81, 30
2, 158448, Note_on_c, 1, 81, 0
2, 158592, Note_on_c, 1, 84, 30
2, 158880, Note_on_c, 1, 84, 0
2, 158880, Note_on_c, 1, 83, 30
2, 158928, Note_on_c, 1, 83, 0
2, 158928, Note_on_c, 1, 81, 30
2, 158974, Note_on_c, 1, 81, 0
2, 158976, Note_on_c, 1, 86, 30
2, 159008, Note_on_c, 1, 86, 0
2, 159072, Note_on_c, 1, 83, 33
2, 159104, Note_on_c, 1, 83, 0
2, 159168, Note_on_c, 1, 84, 36
2, 159200, Note_on_c, 1, 84, 0
2, 159264, Note_on_c, 1, 81, 39
2, 159296, Note_on_c, 1, 81, 0
2, 159360, Note_on_c, 1, 86, 42
2, 159392, Note_on_c, 1, 86, 0
2, 159456, Note_on_c, 1, 83, 45
2, 159488, Note_on_c, 1, 83, 0
2, 159552, Note_on_c, 1, 84, 48
2, 159584, Note_on_c, 1, 84, 0
2, 159648, Note_on_c, 1, 81, 51
2, 159680, Note_on_c, 1, 81, 0
2, 159744, Note_on_c, 1, 86, 54
2, 159776, Note_on_c, 1, 86, 0
2, 159840, Note_on_c, 1, 83, 57
2, 159872, Note_on_c, 1, 83, 0
2, 159936, Note_on_c, 1, 84, 60
2, 159968, Note_on_c, 1, 84, 0
2, 160032, Note_on_c, 1, 81, 63
2, 160064, Note_on_c, 1, 81, 0
2, 160128, Note_on_c, 1, 86, 66
2, 160160, Note_on_c, 1, 86, 0
2, 160224, Note_on_c, 1, 83, 69
2, 160256, Note_on_c, 1, 83, 0
2, 160320, Note_on_c, 1, 84, 72
2, 160352, Note_on_c, 1, 84, 0
2, 160416, Note_on_c, 1, 81, 75
2, 160448, Note_on_c, 1, 81, 0
2, 160512, Note_on_c, 1, 86, 78
2, 160558, Note_on_c, 1, 86, 0
2, 160560, Note_on_c, 1, 86, 79
2, 160606, Note_on_c, 1, 86, 0
2, 160608, Note_on_c, 1, 83, 80
2, 160654, Note_on_c, 1, 83, 0
2, 160656, Note_on_c, 1, 83, 82
2, 160702, Note_on_c, 1, 83, 0
2, 160704, Note_on_c, 1, 84, 84
2, 160750, Note_on_c, 1, 84, 0
2, 160752, Note_on_c, 1, 84, 86
2, 160798, Note_on_c, 1, 84, 0
2, 160800, Note_on_c, 1, 81, 88
2, 160846, Note_on_c, 1, 81, 0
2, 160848, Note_on_c, 1, 81, 90
2, 160894, Note_on_c, 1, 81, 0
2, 160896, Note_on_c, 1, 86, 92
2, 160942, Note_on_c, 1, 86, 0
2, 160944, Note_on_c, 1, 86, 94
2, 160990, Note_on_c, 1, 86, 0
2, 160992, Note_on_c, 1, 83, 96
2, 161038, Note_on_c, 1, 83, 0
2, 161040, Note_on_c, 1, 83, 98
2, 161086, Note_on_c, 1, 83, 0
2, 161088, Note_on_c, 1, 84, 100
2, 161134, Note_on_c, 1, 84, 0
2, 161136, Note_on_c, 1, 84, 102
2, 161182, Note_on_c, 1, 84, 0
2, 161184, Note_on_c, 1, 81, 104
2, 161230, Note_on_c, 1, 81, 0
2, 161232, Note_on_c, 1, 81, 106
2, 161278, Note_on_c, 1, 81, 0
2, 161280, Note_on_c, 1, 86, 108
2, 161326, Note_on_c, 1, 86, 0
2, 161328, Note_on_c, 1, 86, 108
2, 161374, Note_on_c, 1, 86, 0
2, 161376, Note_on_c, 1, 83, 108
2, 161422, Note_on_c, 1, 83, 0
2, 161424, Note_on_c, 1, 83, 108
2, 161470, Note_on_c, 1, 83, 0
2, 161472, Note_on_c, 1, 79, 108
2, 161518, Note_on_c, 1, 79, 0
2, 161520, Note_on_c, 1, 79, 108
2, 161566, Note_on_c, 1, 79, 0
2, 161568, Note_on_c, 1, 74, 108
2, 161614, Note_on_c, 1, 74, 0
2, 161616, Note_on_c, 1, 74, 108
2, 161662, Note_on_c, 1, 74, 0
2, 161664, Note_on_c, 1, 71, 108
2, 161710, Note_on_c, 1, 71, 0
2, 161712, Note_on_c, 1, 71, 108
2, 161758, Note_on_c, 1, 71, 0
2, 161760, Note_on_c, 1, 67, 108
2, 161806, Note_on_c, 1, 67, 0
2, 161808, Note_on_c, 1, 67, 108
2, 161854, Note_on_c, 1, 67, 0
2, 161856, Note_on_c, 1, 62, 127
2, 161950, Note_on_c, 1, 62, 0
2, 161952, Note_on_c, 1, 69, 108
2, 161952, Note_on_c, 1, 78, 108
2, 162046, Note_on_c, 1, 69, 0
2, 162046, Note_on_c, 1, 78, 0
2, 162048, Note_on_c, 1, 71, 108
2, 162048, Note_on_c, 1, 79, 108
2, 162208, Note_on_c, 1, 71, 0
2, 162208, Note_on_c, 1, 79, 0
2, 162432, Note_on_c, 1, 74, 108
2, 162432, Note_on_c, 1, 83, 108
2, 162592, Note_on_c, 1, 74, 0
2, 162592, Note_on_c, 1, 83, 0
2, 162816, Note_on_c, 1, 55, 127
2, 162976, Note_on_c, 1, 55, 0
2, 164736, Control_c, 1, 7, 0
2, 164736, Note_on_c, 1, 71, 60
2, 165456, Note_on_c, 1, 71, 0
2, 165456, End_track
3, 0, Start_track
3, 0, MIDI_port, 0
3, 0, Title_t, "Violino II."
3, 0, Program_c, 2, 0
3, 0, Control_c, 2, 7, 127
3, 0, Control_c, 2, 10, 64
3, 1536, Note_on_c, 2, 59, 60
3, 1584, Note_on_c, 2, 59, 0
3, 1728, Note_on_c, 2, 62, 45
3, 1776, Note_on_c, 2, 62, 0
3, 1920, Note_on_c, 2, 67, 45
3, 2208, Note_on_c, 2, 67, 0
3, 2208, Note_on_c, 2, 66, 45
3, 2256, Note_on_c, 2, 66, 0
3, 2256, Note_on_c, 2, 64, 45
3, 2302, Note_on_c, 2, 64, 0
3, 2304, Note_on_c, 2, 62, 45
3, 2336, Note_on_c, 2, 62, 0
3, 2400, Note_on_c, 2, 62, 45
3, 2432, Note_on_c, 2, 62, 0
3, 2496, Note_on_c, 2, 61, 45
3, 2528, Note_on_c, 2, 61, 0
3, 2592, Note_on_c, 2, 61, 45
3, 2624, Note_on_c, 2, 61, 0
3, 4608, Note_on_c, 2, 69, 45
3, 4656, Note_on_c, 2, 69, 0
3, 4800, Note_on_c, 2, 75, 45
3, 4848, Note_on_c, 2, 75, 0
3, 4992, Note_on_c, 2, 75, 45
3, 5248, Note_on_c, 2, 75, 0
3, 5280, Note_on_c, 2, 75, 45
3, 5374, Note_on_c, 2, 75, 0
3, 5376, Note_on_c, 2, 71, 45
3, 5408, Note_on_c, 2, 71, 0
3, 5472, Note_on_c, 2, 71, 45
3, 5504, Note_on_c, 2, 71, 0
3, 5568, Note_on_c, 2, 72, 45
3, 5600, Note_on_c, 2, 72, 0
3, 5664, Note_on_c, 2, 71, 45
3, 5696, Note_on_c, 2, 71, 0
3, 5760, Note_on_c, 2, 71, 45
3, 5854, Note_on_c, 2, 71, 0
3, 6144, Note_on_c, 2, 65, 45
3, 6528, Note_on_c, 2, 65, 0
3, 6528, Note_on_c, 2, 64, 45
3, 6688, Note_on_c, 2, 64, 0
3, 6912, Note_on_c, 2, 66, 45
3, 7390, Note_on_c, 2, 66, 0
3, 7392, Note_on_c, 2, 57, 74
3, 7424, Note_on_c, 2, 57, 0
3, 7488, Note_on_c, 2, 59, 80
3, 7520, Note_on_c, 2, 59, 0
3, 7584, Note_on_c, 2, 60, 86
3, 7616, Note_on_c, 2, 60, 0
3, 7680, Note_on_c, 2, 62, 92
3, 7728, Note_on_c, 2, 62, 0
3, 7872, Note_on_c, 2, 67, 92
3, 7920, Note_on_c, 2, 67, 0
3, 8064, Note_on_c, 2, 71, 127
3, 8352, Note_on_c, 2, 71, 0
3, 8352, Note_on_c, 2, 69, 92
3, 8400, Note_on_c, 2, 69, 0
3, 8400, Note_on_c, 2, 67, 92
3, 8446, Note_on_c, 2, 67, 0
3, 8448, Note_on_c, 2, 66, 92
3, 8480, Note_on_c, 2, 66, 0
3, 8544, Note_on_c, 2, 67, 92
3, 8576, Note_on_c, 2, 67, 0
3, 8640, Note_on_c, 2, 69, 92
3, 8672, Note_on_c, 2, 69, 0
3, 8736, Note_on_c, 2, 71, 92
3, 8768, Note_on_c, 2, 71, 0
3, 8832, Note_on_c, 2, 72, 92
3, 8926, Note_on_c, 2, 72, 0
3, 9216, Note_on_c, 2, 62, 92
3, 9264, Note_on_c, 2, 62, 0
3, 9408, Note_on_c, 2, 69, 92
3, 9456, Note_on_c, 2, 69, 0
3, 9600, Note_on_c, 2, 72, 127
3, 9888, Note_on_c, 2, 72, 0
3, 9888, Note_on_c, 2, 71, 92
3, 9936, Note_on_c, 2, 71, 0
3, 9936, Note_on_c, 2, 69, 92
3, 9982, Note_on_c, 2, 69, 0
3, 9984, Note_on_c, 2, 74, 92
3, 10016, Note_on_c, 2, 74, 0
3, 10080, Note_on_c, 2, 71, 92
3, 10112, Note_on_c, 2, 71, 0
3, 10176, Note_on_c, 2, 72, 92
3, 10208, Note_on_c, 2, 72, 0
3, 10272, Note_on_c, 2, 69, 92
3, 10304, Note_on_c, 2, 69, 0
3, 10368, Note_on_c, 2, 67, 92
3, 10528, Note_on_c, 2, 67, 0
3, 10656, Note_on_c, 2, 71, 45
3, 10752, Note_on_c, 2, 71, 0
3, 10752, Note_on_c, 2, 72, 45
3, 10912, Note_on_c, 2, 72, 0
3, 11040, Note_on_c, 2, 72, 45
3, 11136, Note_on_c, 2, 72, 0
3, 11136, Note_on_c, 2, 71, 45
3, 11230, Note_on_c, 2, 71, 0
3, 11232, Note_on_c, 2, 71, 45
3, 11264, Note_on_c, 2, 71, 0
3, 11328, Note_on_c, 2, 67, 45
3, 11360, Note_on_c, 2, 67, 0
3, 11424, Note_on_c, 2, 69, 45
3, 11456, Note_on_c, 2, 69, 0
3, 11616, Note_on_c, 2, 67, 45
3, 11648, Note_on_c, 2, 67, 0
3, 11712, Note_on_c, 2, 64, 45
3, 11744, Note_on_c, 2, 64, 0
3, 11808, Note_on_c, 2, 66, 45
3, 11840, Note_on_c, 2, 66, 0
3, 11904, Note_on_c, 2, 59, 45
3, 12064, Note_on_c, 2, 59, 0
3, 12192, Note_on_c, 2, 59, 45
3, 12288, Note_on_c, 2, 59, 0
3, 12288, Note_on_c, 2, 60, 45
3, 12448, Note_on_c, 2, 60, 0
3, 12576, Note_on_c, 2, 60, 45
3, 12672, Note_on_c, 2, 60, 0
3, 12672, Note_on_c, 2, 59, 45
3, 12766, Note_on_c, 2, 59, 0
3, 12768, Note_on_c, 2, 62, 50
3, 12862, Note_on_c, 2, 62, 0
3, 12864, Note_on_c, 2, 62, 56
3, 12958, Note_on_c, 2, 62, 0
3, 12960, Note_on_c, 2, 62, 62
3, 13054, Note_on_c, 2, 62, 0
3, 13056, Note_on_c, 2, 67, 68
3, 13150, Note_on_c, 2, 67, 0
3, 13152, Note_on_c, 2, 67, 74
3, 13246, Note_on_c, 2, 67, 0
3, 13248, Note_on_c, 2, 67, 80
3, 13342, Note_on_c, 2, 67, 0
3, 13344, Note_on_c, 2, 67, 86
3, 13438, Note_on_c, 2, 67, 0
3, 13440, Note_on_c, 2, 66, 92
3, 13600, Note_on_c, 2, 66, 0
3, 14304, Note_on_c, 2, 57, 108
3, 14304, Note_on_c, 2, 65, 108
3, 14398, Note_on_c, 2, 57, 0
3, 14398, Note_on_c, 2, 65, 0
3, 14400, Note_on_c, 2, 57, 108
3, 14400, Note_on_c, 2, 65, 108
3, 14494, Note_on_c, 2, 57, 0
3, 14494, Note_on_c, 2, 65, 0
3, 14496, Note_on_c, 2, 57, 108
3, 14496, Note_on_c, 2, 65, 108
3, 14590, Note_on_c, 2, 57, 0
3, 14590, Note_on_c, 2, 65, 0
3, 14592, Note_on_c, 2, 57, 108
3, 14592, Note_on_c, 2, 65, 108
3, 14686, Note_on_c, 2, 57, 0
3, 14686, Note_on_c, 2, 65, 0
3, 14688, Note_on_c, 2, 57, 108
3, 14688, Note_on_c, 2, 65, 108
3, 14782, Note_on_c, 2, 57, 0
3, 14782, Note_on_c, 2, 65, 0
3, 14784, Note_on_c, 2, 57, 108
3, 14784, Note_on_c, 2, 65, 108
3, 14878, Note_on_c, 2, 57, 0
3, 14878, Note_on_c, 2, 65, 0
3, 14880, Note_on_c, 2, 57, 108
3, 14880, Note_on_c, 2, 65, 108
3, 14974, Note_on_c, 2, 57, 0
3, 14974, Note_on_c, 2, 65, 0
3, 14976, Note_on_c, 2, 57, 108
3, 14976, Note_on_c, 2, 67, 108
3, 15070, Note_on_c, 2, 57, 0
3, 15070, Note_on_c, 2, 67, 0
3, 15072, Note_on_c, 2, 57, 108
3, 15072, Note_on_c, 2, 67, 108
3, 15166, Note_on_c, 2, 57, 0
3, 15166, Note_on_c, 2, 67, 0
3, 15168, Note_on_c, 2, 57, 108
3, 15168, Note_on_c, 2, 67, 108
3, 15262, Note_on_c, 2, 57, 0
3, 15262, Note_on_c, 2, 67, 0
3, 15264, Note_on_c, 2, 57, 108
3, 15264, Note_on_c, 2, 67, 108
3, 15358, Note_on_c, 2, 57, 0
3, 15358, Note_on_c, 2, 67, 0
3, 15360, Note_on_c, 2, 57, 108
3, 15360, Note_on_c, 2, 67, 108
3, 15454, Note_on_c, 2, 57, 0
3, 15454, Note_on_c, 2, 67, 0
3, 15456, Note_on_c, 2, 57, 108
3, 15456, Note_on_c, 2, 67, 108
3, 15550, Note_on_c, 2, 57, 0
3, 15550, Note_on_c, 2, 67, 0
3, 15552, Note_on_c, 2, 57, 108
3, 15552, Note_on_c, 2, 67, 108
3, 15646, Note_on_c, 2, 57, 0
3, 15646, Note_on_c, 2, 67, 0
3, 15648, Note_on_c, 2, 57, 108
3, 15648, Note_on_c, 2, 67, 108
3, 15742, Note_on_c, 2, 57, 0
3, 15742, Note_on_c, 2, 67, 0
3, 15744, Note_on_c, 2, 57, 108
3, 15744, Note_on_c, 2, 64, 108
3, 15838, Note_on_c, 2, 57, 0
3, 15838, Note_on_c, 2, 64, 0
3, 15840, Note_on_c, 2, 57, 108
3, 15840, Note_on_c, 2, 64, 108
3, 15934, Note_on_c, 2, 57, 0
3, 15934, Note_on_c, 2, 64, 0
3, 15936, Note_on_c, 2, 57, 108
3, 15936, Note_on_c, 2, 64, 108
3, 16030, Note_on_c, 2, 57, 0
3, 16030, Note_on_c, 2, 64, 0
3, 16032, Note_on_c, 2, 57, 108
3, 16032, Note_on_c, 2, 64, 108
3, 16126, Note_on_c, 2, 57, 0
3, 16126, Note_on_c, 2, 64, 0
3, 16128, Note_on_c, 2, 57, 108
3, 16128, Note_on_c, 2, 64, 108
3, 16222, Note_on_c, 2, 57, 0
3, 16222, Note_on_c, 2, 64, 0
3, 16224, Note_on_c, 2, 57, 108
3, 16224, Note_on_c, 2, 64, 108
3, 16318, Note_on_c, 2, 57, 0
3, 16318, Note_on_c, 2, 64, 0
3, 16320, Note_on_c, 2, 57, 108
3, 16320, Note_on_c, 2, 64, 108
3, 16414, Note_on_c, 2, 57, 0
3, 16414, Note_on_c, 2, 64, 0
3, 16416, Note_on_c, 2, 57, 108
3, 16416, Note_on_c, 2, 64, 108
3, 16510, Note_on_c, 2, 57, 0
3, 16510, Note_on_c, 2, 64, 0
3, 16512, Note_on_c, 2, 57, 108
3, 16512, Note_on_c, 2, 65, 108
3, 16606, Note_on_c, 2, 57, 0
3, 16606, Note_on_c, 2, 65, 0
3, 16608, Note_on_c, 2, 65, 108
3, 16702, Note_on_c, 2, 65, 0
3, 16704, Note_on_c, 2, 65, 108
3, 16798, Note_on_c, 2, 65, 0
3, 16800, Note_on_c, 2, 65, 108
3, 16894, Note_on_c, 2, 65, 0
3, 16896, Note_on_c, 2, 65, 108
3, 16990, Note_on_c, 2, 65, 0
3, 16992, Note_on_c, 2, 65, 108
3, 17086, Note_on_c, 2, 65, 0
3, 17088, Note_on_c, 2, 65, 108
3, 17182, Note_on_c, 2, 65, 0
3, 17184, Note_on_c, 2, 65, 108
3, 17278, Note_on_c, 2, 65, 0
3, 17280, Note_on_c, 2, 65, 108
3, 17374, Note_on_c, 2, 65, 0
3, 17376, Note_on_c, 2, 65, 108
3, 17470, Note_on_c, 2, 65, 0
3, 17472, Note_on_c, 2, 65, 108
3, 17566, Note_on_c, 2, 65, 0
3, 17568, Note_on_c, 2, 65, 108
3, 17662, Note_on_c, 2, 65, 0
3, 17664, Note_on_c, 2, 65, 108
3, 17758, Note_on_c, 2, 65, 0
3, 17760, Note_on_c, 2, 65, 108
3, 17854, Note_on_c, 2, 65, 0
3, 17856, Note_on_c, 2, 65, 108
3, 17950, Note_on_c, 2, 65, 0
3, 17952, Note_on_c, 2, 65, 108
3, 18046, Note_on_c, 2, 65, 0
3, 18048, Note_on_c, 2, 65, 108
3, 18142, Note_on_c, 2, 65, 0
3, 18144, Note_on_c, 2, 65, 108
3, 18238, Note_on_c, 2, 65, 0
3, 18240, Note_on_c, 2, 65, 108
3, 18334, Note_on_c, 2, 65, 0
3, 18336, Note_on_c, 2, 65, 108
3, 18430, Note_on_c, 2, 65, 0
3, 18432, Note_on_c, 2, 65, 108
3, 18528, Note_on_c, 2, 65, 0
3, 18528, Note_on_c, 2, 64, 108
3, 18622, Note_on_c, 2, 64, 0
3, 18624, Note_on_c, 2, 65, 108
3, 18656, Note_on_c, 2, 65, 0
3, 18720, Note_on_c, 2, 65, 108
3, 18752, Note_on_c, 2, 65, 0
3, 18816, Note_on_c, 2, 64, 108
3, 18864, Note_on_c, 2, 64, 0
3, 19104, Note_on_c, 2, 73, 108
3, 19136, Note_on_c, 2, 73, 0
3, 19200, Note_on_c, 2, 62, 108
3, 19248, Note_on_c, 2, 62, 0
3, 19488, Note_on_c, 2, 74, 108
3, 19520, Note_on_c, 2, 74, 0
3, 19584, Note_on_c, 2, 64, 108
3, 19632, Note_on_c, 2, 64, 0
3, 19872, Note_on_c, 2, 76, 108
3, 19904, Note_on_c, 2, 76, 0
3, 19968, Note_on_c, 2, 66, 108
3, 20016, Note_on_c, 2, 66, 0
3, 20256, Note_on_c, 2, 78, 108
3, 20288, Note_on_c, 2, 78, 0
3, 20352, Note_on_c, 2, 67, 108
3, 20400, Note_on_c, 2, 67, 0
3, 21120, Note_on_c, 2, 62, 45
3, 21152, Note_on_c, 2, 62, 0
3, 21216, Note_on_c, 2, 66, 45
3, 21248, Note_on_c, 2, 66, 0
3, 21312, Note_on_c, 2, 69, 45
3, 21344, Note_on_c, 2, 69, 0
3, 21408, Note_on_c, 2, 73, 45
3, 21440, Note_on_c, 2, 73, 0
3, 21504, Note_on_c, 2, 74, 45
3, 21536, Note_on_c, 2, 74, 0
3, 21600, Note_on_c, 2, 73, 45
3, 21632, Note_on_c, 2, 73, 0
3, 21696, Note_on_c, 2, 74, 45
3, 21728, Note_on_c, 2, 74, 0
3, 21792, Note_on_c, 2, 71, 45
3, 21824, Note_on_c, 2, 71, 0
3, 21888, Note_on_c, 2, 67, 45
3, 21982, Note_on_c, 2, 67, 0
3, 22080, Note_on_c, 2, 68, 45
3, 22174, Note_on_c, 2, 68, 0
3, 22272, Note_on_c, 2, 69, 45
3, 22432, Note_on_c, 2, 69, 0
3, 22656, Note_on_c, 2, 66, 45
3, 22688, Note_on_c, 2, 66, 0
3, 22752, Note_on_c, 2, 69, 45
3, 22784, Note_on_c, 2, 69, 0
3, 22848, Note_on_c, 2, 74, 45
3, 22880, Note_on_c, 2, 74, 0
3, 22944, Note_on_c, 2, 76, 45
3, 22976, Note_on_c, 2, 76, 0
3, 23040, Note_on_c, 2, 78, 45
3, 23072, Note_on_c, 2, 78, 0
3, 23136, Note_on_c, 2, 76, 45
3, 23168, Note_on_c, 2, 76, 0
3, 23232, Note_on_c, 2, 78, 45
3, 23264, Note_on_c, 2, 78, 0
3, 23328, Note_on_c, 2, 74, 45
3, 23360, Note_on_c, 2, 74, 0
3, 23424, Note_on_c, 2, 71, 45
3, 23456, Note_on_c, 2, 71, 0
3, 23520, Note_on_c, 2, 71, 45
3, 23552, Note_on_c, 2, 71, 0
3, 23616, Note_on_c, 2, 67, 45
3, 23648, Note_on_c, 2, 67, 0
3, 23712, Note_on_c, 2, 64, 45
3, 23744, Note_on_c, 2, 64, 0
3, 23808, Note_on_c, 2, 66, 45
3, 23902, Note_on_c, 2, 66, 0
3, 24960, Note_on_c, 2, 61, 45
3, 24992, Note_on_c, 2, 61, 0
3, 25056, Note_on_c, 2, 64, 45
3, 25088, Note_on_c, 2, 64, 0
3, 25152, Note_on_c, 2, 67, 45
3, 25184, Note_on_c, 2, 67, 0
3, 25248, Note_on_c, 2, 73, 45
3, 25280, Note_on_c, 2, 73, 0
3, 25344, Note_on_c, 2, 76, 45
3, 25438, Note_on_c, 2, 76, 0
3, 25440, Note_on_c, 2, 64, 45
3, 25534, Note_on_c, 2, 64, 0
3, 25536, Note_on_c, 2, 64, 45
3, 25630, Note_on_c, 2, 64, 0
3, 25632, Note_on_c, 2, 64, 45
3, 25726, Note_on_c, 2, 64, 0
3, 25728, Note_on_c, 2, 57, 60
3, 25888, Note_on_c, 2, 57, 0
3, 26496, Note_on_c, 2, 55, 45
3, 26528, Note_on_c, 2, 55, 0
3, 26592, Note_on_c, 2, 59, 45
3, 26624, Note_on_c, 2, 59, 0
3, 26688, Note_on_c, 2, 62, 45
3, 26720, Note_on_c, 2, 62, 0
3, 26784, Note_on_c, 2, 67, 45
3, 26816, Note_on_c, 2, 67, 0
3, 26880, Note_on_c, 2, 67, 45
3, 26974, Note_on_c, 2, 67, 0
3, 26976, Note_on_c, 2, 67, 45
3, 27070, Note_on_c, 2, 67, 0
3, 27072, Note_on_c, 2, 67, 45
3, 27166, Note_on_c, 2, 67, 0
3, 27168, Note_on_c, 2, 67, 45
3, 27262, Note_on_c, 2, 67, 0
3, 27264, Note_on_c, 2, 67, 45
3, 27424, Note_on_c, 2, 67, 0
3, 27456, Note_on_c, 2, 67, 63
3, 27616, Note_on_c, 2, 67, 0
3, 27840, Note_on_c, 2, 66, 63
3, 28000, Note_on_c, 2, 66, 0
3, 28224, Note_on_c, 2, 64, 63
3, 28384, Note_on_c, 2, 64, 0
3, 28608, Note_on_c, 2, 62, 63
3, 28768, Note_on_c, 2, 62, 0
3, 28800, Note_on_c, 2, 61, 45
3, 29136, Note_on_c, 2, 61, 0
3, 29184, Note_on_c, 2, 67, 45
3, 29376, Note_on_c, 2, 67, 0
3, 29376, Note_on_c, 2, 64, 45
3, 29568, Note_on_c, 2, 64, 0
3, 29568, Note_on_c, 2, 61, 45
3, 29904, Note_on_c, 2, 61, 0
3, 29952, Note_on_c, 2, 67, 45
3, 30144, Note_on_c, 2, 67, 0
3, 30144, Note_on_c, 2, 64, 45
3, 30336, Note_on_c, 2, 64, 0
3, 30336, Note_on_c, 2, 61, 45
3, 30672, Note_on_c, 2, 61, 0
3, 30720, Note_on_c, 2, 67, 45
3, 30912, Note_on_c, 2, 67, 0
3, 30912, Note_on_c, 2, 64, 45
3, 31104, Note_on_c, 2, 64, 0
3, 31104, Note_on_c, 2, 61, 45
3, 31440, Note_on_c, 2, 61, 0
3, 31488, Note_on_c, 2, 67, 45
3, 31680, Note_on_c, 2, 67, 0
3, 31680, Note_on_c, 2, 64, 45
3, 31840, Note_on_c, 2, 64, 0
3, 31872, Note_on_c, 2, 59, 45
3, 31872, Note_on_c, 2, 62, 45
3, 32350, Note_on_c, 2, 59, 0
3, 32350, Note_on_c, 2, 62, 0
3, 32352, Note_on_c, 2, 62, 74
3, 32512, Note_on_c, 2, 62, 0
3, 32544, Note_on_c, 2, 62, 86
3, 32734, Note_on_c, 2, 62, 0
3, 32736, Note_on_c, 2, 62, 92
3, 32768, Note_on_c, 2, 62, 0
3, 32832, Note_on_c, 2, 62, 92
3, 32864, Note_on_c, 2, 62, 0
3, 32928, Note_on_c, 2, 62, 92
3, 32960, Note_on_c, 2, 62, 0
3, 33024, Note_on_c, 2, 61, 92
3, 33118, Note_on_c, 2, 61, 0
3, 33120, Note_on_c, 2, 61, 92
3, 33214, Note_on_c, 2, 61, 0
3, 33216, Note_on_c, 2, 61, 92
3, 33310, Note_on_c, 2, 61, 0
3, 33312, Note_on_c, 2, 61, 92
3, 33406, Note_on_c, 2, 61, 0
3, 34176, Note_on_c, 2, 67, 45
3, 34368, Note_on_c, 2, 67, 0
3, 34368, Note_on_c, 2, 64, 45
3, 34528, Note_on_c, 2, 64, 0
3, 34944, Note_on_c, 2, 76, 45
3, 35136, Note_on_c, 2, 76, 0
3, 35136, Note_on_c, 2, 73, 45
3, 35296, Note_on_c, 2, 73, 0
3, 36480, Note_on_c, 2, 55, 30
3, 36576, Note_on_c, 2, 55, 0
3, 36576, Note_on_c, 2, 60, 30
3, 36672, Note_on_c, 2, 60, 0
3, 36672, Note_on_c, 2, 55, 30
3, 36768, Note_on_c, 2, 55, 0
3, 36768, Note_on_c, 2, 60, 30
3, 36862, Note_on_c, 2, 60, 0
3, 36864, Note_on_c, 2, 57, 30
3, 36960, Note_on_c, 2, 57, 0
3, 36960, Note_on_c, 2, 60, 30
3, 37056, Note_on_c, 2, 60, 0
3, 37056, Note_on_c, 2, 57, 30
3, 37152, Note_on_c, 2, 57, 0
3, 37152, Note_on_c, 2, 60, 30
3, 37246, Note_on_c, 2, 60, 0
3, 37248, Note_on_c, 2, 58, 30
3, 37344, Note_on_c, 2, 58, 0
3, 37344, Note_on_c, 2, 60, 30
3, 37440, Note_on_c, 2, 60, 0
3, 37440, Note_on_c, 2, 58, 30
3, 37536, Note_on_c, 2, 58, 0
3, 37536, Note_on_c, 2, 60, 30
3, 37630, Note_on_c, 2, 60, 0
3, 37632, Note_on_c, 2, 57, 30
3, 37728, Note_on_c, 2, 57, 0
3, 37728, Note_on_c, 2, 60, 30
3, 37824, Note_on_c, 2, 60, 0
3, 37824, Note_on_c, 2, 57, 30
3, 37920, Note_on_c, 2, 57, 0
3, 37920, Note_on_c, 2, 60, 30
3, 38014, Note_on_c, 2, 60, 0
3, 38016, Note_on_c, 2, 55, 30
3, 38112, Note_on_c, 2, 55, 0
3, 38112, Note_on_c, 2, 60, 30
3, 38208, Note_on_c, 2, 60, 0
3, 38208, Note_on_c, 2, 55, 30
3, 38304, Note_on_c, 2, 55, 0
3, 38304, Note_on_c, 2, 60, 30
3, 38398, Note_on_c, 2, 60, 0
3, 38400, Note_on_c, 2, 57, 30
3, 38496, Note_on_c, 2, 57, 0
3, 38496, Note_on_c, 2, 60, 30
3, 38592, Note_on_c, 2, 60, 0
3, 38592, Note_on_c, 2, 57, 30
3, 38688, Note_on_c, 2, 57, 0
3, 38688, Note_on_c, 2, 60, 30
3, 38782, Note_on_c, 2, 60, 0
3, 38784, Note_on_c, 2, 58, 30
3, 38880, Note_on_c, 2, 58, 0
3, 38880, Note_on_c, 2, 60, 30
3, 38976, Note_on_c, 2, 60, 0
3, 38976, Note_on_c, 2, 58, 30
3, 39072, Note_on_c, 2, 58, 0
3, 39072, Note_on_c, 2, 60, 30
3, 39166, Note_on_c, 2, 60, 0
3, 39168, Note_on_c, 2, 57, 30
3, 39264, Note_on_c, 2, 57, 0
3, 39264, Note_on_c, 2, 60, 30
3, 39360, Note_on_c, 2, 60, 0
3, 39360, Note_on_c, 2, 57, 30
3, 39456, Note_on_c, 2, 57, 0
3, 39456, Note_on_c, 2, 60, 30
3, 39550, Note_on_c, 2, 60, 0
3, 39552, Note_on_c, 2, 57, 30
3, 39646, Note_on_c, 2, 57, 0
3, 39648, Note_on_c, 2, 60, 33
3, 39742, Note_on_c, 2, 60, 0
3, 39744, Note_on_c, 2, 60, 36
3, 39838, Note_on_c, 2, 60, 0
3, 39840, Note_on_c, 2, 60, 40
3, 39934, Note_on_c, 2, 60, 0
3, 39936, Note_on_c, 2, 60, 44
3, 40030, Note_on_c, 2, 60, 0
3, 40032, Note_on_c, 2, 60, 48
3, 40126, Note_on_c, 2, 60, 0
3, 40128, Note_on_c, 2, 60, 52
3, 40222, Note_on_c, 2, 60, 0
3, 40224, Note_on_c, 2, 60, 56
3, 40318, Note_on_c, 2, 60, 0
3, 40320, Note_on_c, 2, 61, 60
3, 40414, Note_on_c, 2, 61, 0
3, 40416, Note_on_c, 2, 61, 64
3, 40510, Note_on_c, 2, 61, 0
3, 40512, Note_on_c, 2, 61, 68
3, 40606, Note_on_c, 2, 61, 0
3, 40608, Note_on_c, 2, 61, 72
3, 40702, Note_on_c, 2, 61, 0
3, 40704, Note_on_c, 2, 62, 76
3, 40798, Note_on_c, 2, 62, 0
3, 40800, Note_on_c, 2, 62, 80
3, 40894, Note_on_c, 2, 62, 0
3, 40896, Note_on_c, 2, 62, 84
3, 40990, Note_on_c, 2, 62, 0
3, 40992, Note_on_c, 2, 62, 88
3, 41086, Note_on_c, 2, 62, 0
3, 41088, Note_on_c, 2, 64, 92
3, 41182, Note_on_c, 2, 64, 0
3, 41184, Note_on_c, 2, 67, 92
3, 41278, Note_on_c, 2, 67, 0
3, 41280, Note_on_c, 2, 67, 92
3, 41374, Note_on_c, 2, 67, 0
3, 41376, Note_on_c, 2, 67, 92
3, 41470, Note_on_c, 2, 67, 0
3, 41472, Note_on_c, 2, 67, 92
3, 41566, Note_on_c, 2, 67, 0
3, 41568, Note_on_c, 2, 67, 92
3, 41662, Note_on_c, 2, 67, 0
3, 41664, Note_on_c, 2, 67, 92
3, 41758, Note_on_c, 2, 67, 0
3, 41760, Note_on_c, 2, 67, 92
3, 41854, Note_on_c, 2, 67, 0
3, 41856, Note_on_c, 2, 66, 108
3, 41950, Note_on_c, 2, 66, 0
3, 41952, Note_on_c, 2, 66, 108
3, 42046, Note_on_c, 2, 66, 0
3, 42048, Note_on_c, 2, 71, 108
3, 42142, Note_on_c, 2, 71, 0
3, 42144, Note_on_c, 2, 71, 108
3, 42238, Note_on_c, 2, 71, 0
3, 42240, Note_on_c, 2, 69, 108
3, 42334, Note_on_c, 2, 69, 0
3, 42336, Note_on_c, 2, 69, 108
3, 42430, Note_on_c, 2, 69, 0
3, 42432, Note_on_c, 2, 67, 108
3, 42526, Note_on_c, 2, 67, 0
3, 42528, Note_on_c, 2, 67, 108
3, 42622, Note_on_c, 2, 67, 0
3, 42624, Note_on_c, 2, 66, 108
3, 42672, Note_on_c, 2, 66, 0
3, 42816, Note_on_c, 2, 74, 108
3, 42864, Note_on_c, 2, 74, 0
3, 43008, Note_on_c, 2, 78, 127
3, 43296, Note_on_c, 2, 78, 0
3, 43296, Note_on_c, 2, 76, 108
3, 43344, Note_on_c, 2, 76, 0
3, 43344, Note_on_c, 2, 74, 108
3, 43390, Note_on_c, 2, 74, 0
3, 43392, Note_on_c, 2, 73, 108
3, 43440, Note_on_c, 2, 73, 0
3, 43440, Note_on_c, 2, 74, 108
3, 43488, Note_on_c, 2, 74, 0
3, 43488, Note_on_c, 2, 76, 108
3, 43536, Note_on_c, 2, 76, 0
3, 43536, Note_on_c, 2, 78, 108
3, 43584, Note_on_c, 2, 78, 0
3, 43584, Note_on_c, 2, 79, 108
3, 43632, Note_on_c, 2, 79, 0
3, 43632, Note_on_c, 2, 78, 108
3, 43680, Note_on_c, 2, 78, 0
3, 43680, Note_on_c, 2, 76, 108
3, 43728, Note_on_c, 2, 76, 0
3, 43728, Note_on_c, 2, 74, 108
3, 43776, Note_on_c, 2, 74, 0
3, 43776, Note_on_c, 2, 73, 108
3, 43824, Note_on_c, 2, 73, 0
3, 43824, Note_on_c, 2, 74, 108
3, 43872, Note_on_c, 2, 74, 0
3, 43872, Note_on_c, 2, 76, 108
3, 43920, Note_on_c, 2, 76, 0
3, 43920, Note_on_c, 2, 74, 108
3, 43968, Note_on_c, 2, 74, 0
3, 43968, Note_on_c, 2, 73, 108
3, 44016, Note_on_c, 2, 73, 0
3, 44016, Note_on_c, 2, 69, 108
3, 44064, Note_on_c, 2, 69, 0
3, 44064, Note_on_c, 2, 71, 108
3, 44112, Note_on_c, 2, 71, 0
3, 44112, Note_on_c, 2, 73, 108
3, 44158, Note_on_c, 2, 73, 0
3, 44160, Note_on_c, 2, 74, 108
3, 44254, Note_on_c, 2, 74, 0
3, 44256, Note_on_c, 2, 69, 108
3, 44350, Note_on_c, 2, 69, 0
3, 44352, Note_on_c, 2, 74, 108
3, 44446, Note_on_c, 2, 74, 0
3, 44448, Note_on_c, 2, 74, 108
3, 44542, Note_on_c, 2, 74, 0
3, 44544, Note_on_c, 2, 78, 127
3, 44832, Note_on_c, 2, 78, 0
3, 44832, Note_on_c, 2, 76, 108
3, 44880, Note_on_c, 2, 76, 0
3, 44880, Note_on_c, 2, 74, 108
3, 44926, Note_on_c, 2, 74, 0
3, 44928, Note_on_c, 2, 73, 108
3, 44976, Note_on_c, 2, 73, 0
3, 44976, Note_on_c, 2, 74, 108
3, 45024, Note_on_c, 2, 74, 0
3, 45024, Note_on_c, 2, 76, 108
3, 45072, Note_on_c, 2, 76, 0
3, 45072, Note_on_c, 2, 78, 108
3, 45120, Note_on_c, 2, 78, 0
3, 45120, Note_on_c, 2, 79, 108
3, 45168, Note_on_c, 2, 79, 0
3, 45168, Note_on_c, 2, 78, 108
3, 45216, Note_on_c, 2, 78, 0
3, 45216, Note_on_c, 2, 76, 108
3, 45264, Note_on_c, 2, 76, 0
3, 45264, Note_on_c, 2, 74, 108
3, 45312, Note_on_c, 2, 74, 0
3, 45312, Note_on_c, 2, 73, 108
3, 45360, Note_on_c, 2, 73, 0
3, 45360, Note_on_c, 2, 74, 108
3, 45408, Note_on_c, 2, 74, 0
3, 45408, Note_on_c, 2, 76, 108
3, 45456, Note_on_c, 2, 76, 0
3, 45456, Note_on_c, 2, 74, 108
3, 45504, Note_on_c, 2, 74, 0
3, 45504, Note_on_c, 2, 73, 108
3, 45552, Note_on_c, 2, 73, 0
3, 45552, Note_on_c, 2, 69, 108
3, 45600, Note_on_c, 2, 69, 0
3, 45600, Note_on_c, 2, 71, 108
3, 45648, Note_on_c, 2, 71, 0
3, 45648, Note_on_c, 2, 73, 108
3, 45694, Note_on_c, 2, 73, 0
3, 45696, Note_on_c, 2, 74, 108
3, 45790, Note_on_c, 2, 74, 0
3, 45792, Note_on_c, 2, 73, 108
3, 45952, Note_on_c, 2, 73, 0
3, 45984, Note_on_c, 2, 73, 108
3, 46078, Note_on_c, 2, 73, 0
3, 46080, Note_on_c, 2, 74, 108
3, 46174, Note_on_c, 2, 74, 0
3, 46176, Note_on_c, 2, 61, 108
3, 46336, Note_on_c, 2, 61, 0
3, 46368, Note_on_c, 2, 61, 108
3, 46462, Note_on_c, 2, 61, 0
3, 46464, Note_on_c, 2, 62, 108
3, 46512, Note_on_c, 2, 62, 0
3, 46656, Note_on_c, 2, 69, 108
3, 46704, Note_on_c, 2, 69, 0
3, 46848, Note_on_c, 2, 66, 127
3, 47184, Note_on_c, 2, 66, 0
3, 47232, Note_on_c, 2, 69, 108
3, 47280, Note_on_c, 2, 69, 0
3, 47424, Note_on_c, 2, 66, 108
3, 47472, Note_on_c, 2, 66, 0
3, 47616, Note_on_c, 2, 62, 127
3, 47952, Note_on_c, 2, 62, 0
3, 48000, Note_on_c, 2, 66, 108
3, 48048, Note_on_c, 2, 66, 0
3, 48192, Note_on_c, 2, 62, 108
3, 48240, Note_on_c, 2, 62, 0
3, 48384, Note_on_c, 2, 57, 127
3, 48720, Note_on_c, 2, 57, 0
3, 48768, Note_on_c, 2, 62, 108
3, 48928, Note_on_c, 2, 62, 0
3, 48960, Note_on_c, 2, 57, 127
3, 49312, Note_on_c, 2, 57, 0
3, 49344, Note_on_c, 2, 57, 127
3, 49696, Note_on_c, 2, 57, 0
3, 49728, Note_on_c, 2, 57, 127
3, 50080, Note_on_c, 2, 57, 0
3, 50112, Note_on_c, 2, 57, 127
3, 50464, Note_on_c, 2, 57, 0
3, 50496, Note_on_c, 2, 57, 127
3, 50848, Note_on_c, 2, 57, 0
3, 50880, Note_on_c, 2, 57, 127
3, 51232, Note_on_c, 2, 57, 0
3, 51264, Note_on_c, 2, 57, 127
3, 52000, Note_on_c, 2, 57, 0
3, 52032, Note_on_c, 2, 57, 45
3, 52768, Note_on_c, 2, 57, 0
3, 52800, Note_on_c, 2, 57, 30
3, 54480, Note_on_c, 2, 57, 0
3, 54528, Note_on_c, 2, 55, 60
3, 54576, Note_on_c, 2, 55, 0
3, 54720, Note_on_c, 2, 58, 45
3, 54768, Note_on_c, 2, 58, 0
3, 54912, Note_on_c, 2, 58, 45
3, 55168, Note_on_c, 2, 58, 0
3, 55200, Note_on_c, 2, 58, 45
3, 55294, Note_on_c, 2, 58, 0
3, 55296, Note_on_c, 2, 58, 45
3, 55328, Note_on_c, 2, 58, 0
3, 55392, Note_on_c, 2, 58, 45
3, 55424, Note_on_c, 2, 58, 0
3, 55488, Note_on_c, 2, 58, 45
3, 55520, Note_on_c, 2, 58, 0
3, 55584, Note_on_c, 2, 58, 45
3, 55616, Note_on_c, 2, 58, 0
3, 55680, Note_on_c, 2, 58, 45
3, 55774, Note_on_c, 2, 58, 0
3, 56064, Note_on_c, 2, 62, 45
3, 56112, Note_on_c, 2, 62, 0
3, 56256, Note_on_c, 2, 70, 45
3, 56304, Note_on_c, 2, 70, 0
3, 56448, Note_on_c, 2, 70, 45
3, 56704, Note_on_c, 2, 70, 0
3, 56736, Note_on_c, 2, 70, 45
3, 56830, Note_on_c, 2, 70, 0
3, 56832, Note_on_c, 2, 70, 45
3, 56864, Note_on_c, 2, 70, 0
3, 56928, Note_on_c, 2, 70, 45
3, 56960, Note_on_c, 2, 70, 0
3, 57024, Note_on_c, 2, 70, 45
3, 57056, Note_on_c, 2, 70, 0
3, 57120, Note_on_c, 2, 68, 45
3, 57152, Note_on_c, 2, 68, 0
3, 57216, Note_on_c, 2, 67, 45
3, 57376, Note_on_c, 2, 67, 0
3, 57504, Note_on_c, 2, 67, 45
3, 57600, Note_on_c, 2, 67, 0
3, 57600, Note_on_c, 2, 68, 45
3, 57760, Note_on_c, 2, 68, 0
3, 57888, Note_on_c, 2, 68, 45
3, 57984, Note_on_c, 2, 68, 0
3, 57984, Note_on_c, 2, 67, 45
3, 58016, Note_on_c, 2, 67, 0
3, 58080, Note_on_c, 2, 67, 45
3, 58112, Note_on_c, 2, 67, 0
3, 58176, Note_on_c, 2, 60, 45
3, 58208, Note_on_c, 2, 60, 0
3, 58272, Note_on_c, 2, 65, 45
3, 58304, Note_on_c, 2, 65, 0
3, 58368, Note_on_c, 2, 58, 45
3, 58400, Note_on_c, 2, 58, 0
3, 58464, Note_on_c, 2, 63, 45
3, 58496, Note_on_c, 2, 63, 0
3, 58560, Note_on_c, 2, 63, 45
3, 58592, Note_on_c, 2, 63, 0
3, 58656, Note_on_c, 2, 62, 45
3, 58688, Note_on_c, 2, 62, 0
3, 58752, Note_on_c, 2, 55, 45
3, 58912, Note_on_c, 2, 55, 0
3, 59040, Note_on_c, 2, 55, 45
3, 59136, Note_on_c, 2, 55, 0
3, 59136, Note_on_c, 2, 56, 45
3, 59296, Note_on_c, 2, 56, 0
3, 59424, Note_on_c, 2, 56, 45
3, 59520, Note_on_c, 2, 56, 0
3, 59520, Note_on_c, 2, 55, 45
3, 59680, Note_on_c, 2, 55, 0
3, 59808, Note_on_c, 2, 58, 45
3, 59904, Note_on_c, 2, 58, 0
3, 59904, Note_on_c, 2, 65, 45
3, 60064, Note_on_c, 2, 65, 0
3, 60192, Note_on_c, 2, 65, 45
3, 60288, Note_on_c, 2, 65, 0
3, 60288, Note_on_c, 2, 64, 45
3, 60448, Note_on_c, 2, 64, 0
3, 60576, Note_on_c, 2, 72, 48
3, 60608, Note_on_c, 2, 72, 0
3, 60672, Note_on_c, 2, 72, 49
3, 60720, Note_on_c, 2, 72, 0
3, 60960, Note_on_c, 2, 72, 53
3, 60992, Note_on_c, 2, 72, 0
3, 61056, Note_on_c, 2, 72, 54
3, 61104, Note_on_c, 2, 72, 0
3, 61344, Note_on_c, 2, 60, 58
3, 61438, Note_on_c, 2, 60, 0
3, 61440, Note_on_c, 2, 60, 59
3, 61600, Note_on_c, 2, 60, 0
3, 61728, Note_on_c, 2, 65, 63
3, 61822, Note_on_c, 2, 65, 0
3, 61824, Note_on_c, 2, 65, 64
3, 61984, Note_on_c, 2, 65, 0
3, 62112, Note_on_c, 2, 67, 68
3, 62206, Note_on_c, 2, 67, 0
3, 62208, Note_on_c, 2, 67, 69
3, 62368, Note_on_c, 2, 67, 0
3, 62496, Note_on_c, 2, 67, 74
3, 62590, Note_on_c, 2, 67, 0
3, 62592, Note_on_c, 2, 67, 76
3, 62752, Note_on_c, 2, 67, 0
3, 62880, Note_on_c, 2, 72, 82
3, 62974, Note_on_c, 2, 72, 0
3, 62976, Note_on_c, 2, 72, 84
3, 63136, Note_on_c, 2, 72, 0
3, 63264, Note_on_c, 2, 72, 90
3, 63358, Note_on_c, 2, 72, 0
3, 63360, Note_on_c, 2, 71, 92
3, 63408, Note_on_c, 2, 71, 0
3, 63552, Note_on_c, 2, 62, 92
3, 63600, Note_on_c, 2, 62, 0
3, 63936, Note_on_c, 2, 63, 92
3, 64096, Note_on_c, 2, 63, 0
3, 64320, Note_on_c, 2, 67, 92
3, 64320, Note_on_c, 2, 74, 92
3, 64480, Note_on_c, 2, 67, 0
3, 64480, Note_on_c, 2, 74, 0
3, 64704, Note_on_c, 2, 67, 92
3, 64704, Note_on_c, 2, 75, 92
3, 64864, Note_on_c, 2, 67, 0
3, 64864, Note_on_c, 2, 75, 0
3, 65088, Note_on_c, 2, 62, 92
3, 65248, Note_on_c, 2, 62, 0
3, 65472, Note_on_c, 2, 63, 92
3, 65632, Note_on_c, 2, 63, 0
3, 65856, Note_on_c, 2, 67, 92
3, 65856, Note_on_c, 2, 74, 92
3, 66016, Note_on_c, 2, 67, 0
3, 66016, Note_on_c, 2, 74, 0
3, 66240, Note_on_c, 2, 67, 92
3, 66240, Note_on_c, 2, 75, 92
3, 66400, Note_on_c, 2, 67, 0
3, 66400, Note_on_c, 2, 75, 0
3, 66432, Note_on_c, 2, 67, 92
3, 66432, Note_on_c, 2, 74, 92
3, 66592, Note_on_c, 2, 67, 0
3, 66592, Note_on_c, 2, 74, 0
3, 66624, Note_on_c, 2, 59, 45
3, 66784, Note_on_c, 2, 59, 0
3, 67392, Note_on_c, 2, 62, 45
3, 67552, Note_on_c, 2, 62, 0
3, 68160, Note_on_c, 2, 65, 66
3, 68320, Note_on_c, 2, 65, 0
3, 70656, Note_on_c, 2, 77, 45
3, 70688, Note_on_c, 2, 77, 0
3, 70752, Note_on_c, 2, 76, 45
3, 70784, Note_on_c, 2, 76, 0
3, 70848, Note_on_c, 2, 74, 45
3, 70880, Note_on_c, 2, 74, 0
3, 70944, Note_on_c, 2, 72, 45
3, 70976, Note_on_c, 2, 72, 0
3, 71040, Note_on_c, 2, 71, 45
3, 71134, Note_on_c, 2, 71, 0
3, 72192, Note_on_c, 2, 79, 45
3, 72224, Note_on_c, 2, 79, 0
3, 72288, Note_on_c, 2, 76, 45
3, 72320, Note_on_c, 2, 76, 0
3, 72384, Note_on_c, 2, 79, 45
3, 72416, Note_on_c, 2, 79, 0
3, 72480, Note_on_c, 2, 76, 45
3, 72512, Note_on_c, 2, 76, 0
3, 72576, Note_on_c, 2, 72, 45
3, 72624, Note_on_c, 2, 72, 0
3, 72768, Note_on_c, 2, 67, 45
3, 72816, Note_on_c, 2, 67, 0
3, 72960, Note_on_c, 2, 72, 45
3, 73008, Note_on_c, 2, 72, 0
3, 73152, Note_on_c, 2, 76, 63
3, 73440, Note_on_c, 2, 76, 0
3, 73440, Note_on_c, 2, 74, 45
3, 73488, Note_on_c, 2, 74, 0
3, 73488, Note_on_c, 2, 72, 45
3, 73534, Note_on_c, 2, 72, 0
3, 73536, Note_on_c, 2, 71, 45
3, 73568, Note_on_c, 2, 71, 0
3, 73632, Note_on_c, 2, 72, 45
3, 73664, Note_on_c, 2, 72, 0
3, 73728, Note_on_c, 2, 74, 45
3, 73760, Note_on_c, 2, 74, 0
3, 73824, Note_on_c, 2, 76, 45
3, 73856, Note_on_c, 2, 76, 0
3, 73920, Note_on_c, 2, 77, 45
3, 73952, Note_on_c, 2, 77, 0
3, 74304, Note_on_c, 2, 67, 45
3, 74352, Note_on_c, 2, 67, 0
3, 74496, Note_on_c, 2, 74, 45
3, 74544, Note_on_c, 2, 74, 0
3, 74688, Note_on_c, 2, 77, 63
3, 74976, Note_on_c, 2, 77, 0
3, 74976, Note_on_c, 2, 76, 45
3, 75024, Note_on_c, 2, 76, 0
3, 75024, Note_on_c, 2, 74, 45
3, 75070, Note_on_c, 2, 74, 0
3, 75072, Note_on_c, 2, 72, 45
3, 75104, Note_on_c, 2, 72, 0
3, 75168, Note_on_c, 2, 74, 45
3, 75200, Note_on_c, 2, 74, 0
3, 75264, Note_on_c, 2, 76, 45
3, 75296, Note_on_c, 2, 76, 0
3, 75360, Note_on_c, 2, 77, 45
3, 75392, Note_on_c, 2, 77, 0
3, 75456, Note_on_c, 2, 79, 45
3, 75488, Note_on_c, 2, 79, 0
3, 75840, Note_on_c, 2, 79, 45
3, 75872, Note_on_c, 2, 79, 0
3, 75936, Note_on_c, 2, 77, 45
3, 75968, Note_on_c, 2, 77, 0
3, 76032, Note_on_c, 2, 76, 45
3, 76064, Note_on_c, 2, 76, 0
3, 76128, Note_on_c, 2, 74, 45
3, 76160, Note_on_c, 2, 74, 0
3, 76224, Note_on_c, 2, 72, 45
3, 76256, Note_on_c, 2, 72, 0
3, 76608, Note_on_c, 2, 76, 45
3, 76640, Note_on_c, 2, 76, 0
3, 76704, Note_on_c, 2, 74, 45
3, 76736, Note_on_c, 2, 74, 0
3, 76800, Note_on_c, 2, 72, 45
3, 76832, Note_on_c, 2, 72, 0
3, 76896, Note_on_c, 2, 71, 45
3, 76928, Note_on_c, 2, 71, 0
3, 76992, Note_on_c, 2, 69, 45
3, 77024, Note_on_c, 2, 69, 0
3, 77376, Note_on_c, 2, 72, 45
3, 77408, Note_on_c, 2, 72, 0
3, 77472, Note_on_c, 2, 71, 45
3, 77504, Note_on_c, 2, 71, 0
3, 77568, Note_on_c, 2, 69, 45
3, 77600, Note_on_c, 2, 69, 0
3, 77664, Note_on_c, 2, 67, 45
3, 77696, Note_on_c, 2, 67, 0
3, 77760, Note_on_c, 2, 66, 45
3, 77792, Note_on_c, 2, 66, 0
3, 78144, Note_on_c, 2, 69, 45
3, 78176, Note_on_c, 2, 69, 0
3, 78240, Note_on_c, 2, 67, 45
3, 78272, Note_on_c, 2, 67, 0
3, 78336, Note_on_c, 2, 66, 45
3, 78368, Note_on_c, 2, 66, 0
3, 78432, Note_on_c, 2, 64, 45
3, 78464, Note_on_c, 2, 64, 0
3, 78528, Note_on_c, 2, 62, 45
3, 78560, Note_on_c, 2, 62, 0
3, 81408, Note_on_c, 2, 62, 108
3, 81456, Note_on_c, 2, 62, 0
3, 81600, Note_on_c, 2, 66, 108
3, 81648, Note_on_c, 2, 66, 0
3, 81792, Note_on_c, 2, 69, 127
3, 82128, Note_on_c, 2, 69, 0
3, 82944, Note_on_c, 2, 66, 108
3, 82992, Note_on_c, 2, 66, 0
3, 83136, Note_on_c, 2, 69, 108
3, 83184, Note_on_c, 2, 69, 0
3, 83328, Note_on_c, 2, 72, 45
3, 83664, Note_on_c, 2, 72, 0
3, 83712, Note_on_c, 2, 63, 45
3, 83904, Note_on_c, 2, 63, 0
3, 83904, Note_on_c, 2, 60, 45
3, 84096, Note_on_c, 2, 60, 0
3, 84096, Note_on_c, 2, 57, 45
3, 84432, Note_on_c, 2, 57, 0
3, 84480, Note_on_c, 2, 72, 45
3, 84672, Note_on_c, 2, 72, 0
3, 84672, Note_on_c, 2, 69, 45
3, 84864, Note_on_c, 2, 69, 0
3, 84864, Note_on_c, 2, 66, 45
3, 85024, Note_on_c, 2, 66, 0
3, 85056, Note_on_c, 2, 75, 45
3, 85248, Note_on_c, 2, 75, 0
3, 85248, Note_on_c, 2, 72, 45
3, 85440, Note_on_c, 2, 72, 0
3, 85440, Note_on_c, 2, 69, 45
3, 85632, Note_on_c, 2, 69, 0
3, 85632, Note_on_c, 2, 66, 45
3, 85824, Note_on_c, 2, 66, 0
3, 85824, Note_on_c, 2, 63, 45
3, 86016, Note_on_c, 2, 63, 0
3, 86016, Note_on_c, 2, 64, 45
3, 86208, Note_on_c, 2, 64, 0
3, 86208, Note_on_c, 2, 61, 45
3, 86400, Note_on_c, 2, 61, 0
3, 86400, Note_on_c, 2, 62, 45
3, 86560, Note_on_c, 2, 62, 0
3, 86592, Note_on_c, 2, 75, 45
3, 86784, Note_on_c, 2, 75, 0
3, 86784, Note_on_c, 2, 72, 45
3, 86976, Note_on_c, 2, 72, 0
3, 86976, Note_on_c, 2, 69, 45
3, 87168, Note_on_c, 2, 69, 0
3, 87168, Note_on_c, 2, 66, 45
3, 87360, Note_on_c, 2, 66, 0
3, 87360, Note_on_c, 2, 63, 45
3, 87552, Note_on_c, 2, 63, 0
3, 87552, Note_on_c, 2, 64, 45
3, 87744, Note_on_c, 2, 64, 0
3, 87744, Note_on_c, 2, 61, 45
3, 87904, Note_on_c, 2, 61, 0
3, 87936, Note_on_c, 2, 62, 45
3, 88320, Note_on_c, 2, 62, 0
3, 88320, Note_on_c, 2, 61, 45
3, 88656, Note_on_c, 2, 61, 0
3, 88704, Note_on_c, 2, 62, 45
3, 89088, Note_on_c, 2, 62, 0
3, 89088, Note_on_c, 2, 61, 42
3, 89424, Note_on_c, 2, 61, 0
3, 89472, Note_on_c, 2, 62, 39
3, 89856, Note_on_c, 2, 62, 0
3, 89856, Note_on_c, 2, 61, 36
3, 90576, Note_on_c, 2, 61, 0
3, 90624, Note_on_c, 2, 58, 30
3, 92496, Note_on_c, 2, 58, 0
3, 92544, Note_on_c, 2, 60, 30
3, 92592, Note_on_c, 2, 60, 0
3, 92736, Note_on_c, 2, 60, 30
3, 92784, Note_on_c, 2, 60, 0
3, 92928, Note_on_c, 2, 60, 30
3, 93184, Note_on_c, 2, 60, 0
3, 93216, Note_on_c, 2, 60, 30
3, 93310, Note_on_c, 2, 60, 0
3, 93312, Note_on_c, 2, 61, 30
3, 93344, Note_on_c, 2, 61, 0
3, 93408, Note_on_c, 2, 61, 30
3, 93440, Note_on_c, 2, 61, 0
3, 93504, Note_on_c, 2, 61, 30
3, 93536, Note_on_c, 2, 61, 0
3, 93600, Note_on_c, 2, 61, 30
3, 93632, Note_on_c, 2, 61, 0
3, 93696, Note_on_c, 2, 61, 30
3, 93790, Note_on_c, 2, 61, 0
3, 94176, Note_on_c, 2, 67, 30
3, 94208, Note_on_c, 2, 67, 0
3, 94272, Note_on_c, 2, 67, 30
3, 94304, Note_on_c, 2, 67, 0
3, 94368, Note_on_c, 2, 67, 30
3, 94400, Note_on_c, 2, 67, 0
3, 94464, Note_on_c, 2, 67, 30
3, 94558, Note_on_c, 2, 67, 0
3, 94848, Note_on_c, 2, 67, 30
3, 94880, Note_on_c, 2, 67, 0
3, 94944, Note_on_c, 2, 67, 30
3, 94976, Note_on_c, 2, 67, 0
3, 95040, Note_on_c, 2, 67, 30
3, 95072, Note_on_c, 2, 67, 0
3, 95136, Note_on_c, 2, 67, 30
3, 95168, Note_on_c, 2, 67, 0
3, 95232, Note_on_c, 2, 67, 30
3, 95326, Note_on_c, 2, 67, 0
3, 95616, Note_on_c, 2, 72, 30
3, 95664, Note_on_c, 2, 72, 0
3, 95808, Note_on_c, 2, 71, 45
3, 95856, Note_on_c, 2, 71, 0
3, 96000, Note_on_c, 2, 69, 60
3, 96048, Note_on_c, 2, 69, 0
3, 96192, Note_on_c, 2, 67, 76
3, 96240, Note_on_c, 2, 67, 0
3, 96384, Note_on_c, 2, 66, 127
3, 98256, Note_on_c, 2, 66, 0
3, 99840, Note_on_c, 2, 62, 45
3, 99888, Note_on_c, 2, 62, 0
3, 100032, Note_on_c, 2, 67, 45
3, 100080, Note_on_c, 2, 67, 0
3, 100224, Note_on_c, 2, 71, 45
3, 100512, Note_on_c, 2, 71, 0
3, 100512, Note_on_c, 2, 69, 45
3, 100560, Note_on_c, 2, 69, 0
3, 100560, Note_on_c, 2, 67, 45
3, 100606, Note_on_c, 2, 67, 0
3, 100608, Note_on_c, 2, 66, 45
3, 100640, Note_on_c, 2, 66, 0
3, 100704, Note_on_c, 2, 69, 45
3, 100736, Note_on_c, 2, 69, 0
3, 100800, Note_on_c, 2, 67, 45
3, 100832, Note_on_c, 2, 67, 0
3, 100896, Note_on_c, 2, 64, 45
3, 100928, Note_on_c, 2, 64, 0
3, 100992, Note_on_c, 2, 66, 45
3, 101086, Note_on_c, 2, 66, 0
3, 102912, Note_on_c, 2, 66, 45
3, 102960, Note_on_c, 2, 66, 0
3, 103104, Note_on_c, 2, 69, 45
3, 103152, Note_on_c, 2, 69, 0
3, 103296, Note_on_c, 2, 72, 45
3, 103584, Note_on_c, 2, 72, 0
3, 103584, Note_on_c, 2, 71, 45
3, 103632, Note_on_c, 2, 71, 0
3, 103632, Note_on_c, 2, 69, 45
3, 103678, Note_on_c, 2, 69, 0
3, 103680, Note_on_c, 2, 67, 45
3, 103712, Note_on_c, 2, 67, 0
3, 103776, Note_on_c, 2, 71, 45
3, 103808, Note_on_c, 2, 71, 0
3, 103872, Note_on_c, 2, 72, 45
3, 103904, Note_on_c, 2, 72, 0
3, 103968, Note_on_c, 2, 71, 45
3, 104000, Note_on_c, 2, 71, 0
3, 104064, Note_on_c, 2, 71, 45
3, 104158, Note_on_c, 2, 71, 0
3, 104448, Note_on_c, 2, 65, 45
3, 104640, Note_on_c, 2, 65, 0
3, 104640, Note_on_c, 2, 64, 45
3, 104688, Note_on_c, 2, 64, 0
3, 104688, Note_on_c, 2, 62, 45
3, 104736, Note_on_c, 2, 62, 0
3, 104736, Note_on_c, 2, 60, 45
3, 104784, Note_on_c, 2, 60, 0
3, 104784, Note_on_c, 2, 59, 45
3, 104830, Note_on_c, 2, 59, 0
3, 104832, Note_on_c, 2, 62, 45
3, 104856, Note_on_c, 2, 62, 0
3, 104856, Note_on_c, 2, 60, 45
3, 104880, Note_on_c, 2, 60, 0
3, 104880, Note_on_c, 2, 59, 45
3, 104928, Note_on_c, 2, 59, 0
3, 104928, Note_on_c, 2, 60, 45
3, 104976, Note_on_c, 2, 60, 0
3, 104976, Note_on_c, 2, 62, 45
3, 105022, Note_on_c, 2, 62, 0
3, 105024, Note_on_c, 2, 64, 45
3, 105118, Note_on_c, 2, 64, 0
3, 105216, Note_on_c, 2, 72, 45
3, 105504, Note_on_c, 2, 72, 0
3, 105504, Note_on_c, 2, 69, 62
3, 105552, Note_on_c, 2, 69, 0
3, 105552, Note_on_c, 2, 66, 65
3, 105600, Note_on_c, 2, 66, 0
3, 105600, Note_on_c, 2, 62, 68
3, 105694, Note_on_c, 2, 62, 0
3, 105696, Note_on_c, 2, 62, 74
3, 105728, Note_on_c, 2, 62, 0
3, 105792, Note_on_c, 2, 62, 80
3, 105824, Note_on_c, 2, 62, 0
3, 105888, Note_on_c, 2, 62, 86
3, 105920, Note_on_c, 2, 62, 0
3, 105984, Note_on_c, 2, 62, 92
3, 106032, Note_on_c, 2, 62, 0
3, 106176, Note_on_c, 2, 67, 92
3, 106224, Note_on_c, 2, 67, 0
3, 106368, Note_on_c, 2, 71, 127
3, 106656, Note_on_c, 2, 71, 0
3, 106656, Note_on_c, 2, 69, 92
3, 106704, Note_on_c, 2, 69, 0
3, 106704, Note_on_c, 2, 67, 92
3, 106750, Note_on_c, 2, 67, 0
3, 106752, Note_on_c, 2, 66, 92
3, 106784, Note_on_c, 2, 66, 0
3, 106848, Note_on_c, 2, 67, 92
3, 106880, Note_on_c, 2, 67, 0
3, 106944, Note_on_c, 2, 69, 92
3, 106976, Note_on_c, 2, 69, 0
3, 107040, Note_on_c, 2, 71, 92
3, 107072, Note_on_c, 2, 71, 0
3, 107136, Note_on_c, 2, 72, 92
3, 107230, Note_on_c, 2, 72, 0
3, 107520, Note_on_c, 2, 62, 92
3, 107568, Note_on_c, 2, 62, 0
3, 107712, Note_on_c, 2, 69, 92
3, 107760, Note_on_c, 2, 69, 0
3, 107904, Note_on_c, 2, 72, 127
3, 108192, Note_on_c, 2, 72, 0
3, 108192, Note_on_c, 2, 71, 92
3, 108240, Note_on_c, 2, 71, 0
3, 108240, Note_on_c, 2, 69, 92
3, 108286, Note_on_c, 2, 69, 0
3, 108288, Note_on_c, 2, 74, 92
3, 108320, Note_on_c, 2, 74, 0
3, 108384, Note_on_c, 2, 71, 92
3, 108416, Note_on_c, 2, 71, 0
3, 108480, Note_on_c, 2, 72, 92
3, 108512, Note_on_c, 2, 72, 0
3, 108576, Note_on_c, 2, 69, 92
3, 108608, Note_on_c, 2, 69, 0
3, 108672, Note_on_c, 2, 67, 92
3, 108832, Note_on_c, 2, 67, 0
3, 108960, Note_on_c, 2, 71, 45
3, 109056, Note_on_c, 2, 71, 0
3, 109056, Note_on_c, 2, 72, 45
3, 109216, Note_on_c, 2, 72, 0
3, 109344, Note_on_c, 2, 72, 45
3, 109440, Note_on_c, 2, 72, 0
3, 109440, Note_on_c, 2, 71, 45
3, 109472, Note_on_c, 2, 71, 0
3, 109536, Note_on_c, 2, 71, 45
3, 109568, Note_on_c, 2, 71, 0
3, 109632, Note_on_c, 2, 67, 45
3, 109664, Note_on_c, 2, 67, 0
3, 109728, Note_on_c, 2, 69, 45
3, 109760, Note_on_c, 2, 69, 0
3, 109920, Note_on_c, 2, 67, 45
3, 109952, Note_on_c, 2, 67, 0
3, 110016, Note_on_c, 2, 64, 45
3, 110048, Note_on_c, 2, 64, 0
3, 110112, Note_on_c, 2, 66, 45
3, 110144, Note_on_c, 2, 66, 0
3, 110208, Note_on_c, 2, 59, 45
3, 110368, Note_on_c, 2, 59, 0
3, 110496, Note_on_c, 2, 59, 45
3, 110592, Note_on_c, 2, 59, 0
3, 110592, Note_on_c, 2, 60, 45
3, 110752, Note_on_c, 2, 60, 0
3, 110880, Note_on_c, 2, 60, 45
3, 110976, Note_on_c, 2, 60, 0
3, 110976, Note_on_c, 2, 59, 45
3, 111070, Note_on_c, 2, 59, 0
3, 111264, Note_on_c, 2, 62, 62
3, 111358, Note_on_c, 2, 62, 0
3, 111360, Note_on_c, 2, 67, 68
3, 111454, Note_on_c, 2, 67, 0
3, 111648, Note_on_c, 2, 67, 86
3, 111742, Note_on_c, 2, 67, 0
3, 111744, Note_on_c, 2, 66, 92
3, 111904, Note_on_c, 2, 66, 0
3, 112608, Note_on_c, 2, 58, 108
3, 112608, Note_on_c, 2, 62, 108
3, 112702, Note_on_c, 2, 58, 0
3, 112702, Note_on_c, 2, 62, 0
3, 112704, Note_on_c, 2, 58, 108
3, 112704, Note_on_c, 2, 62, 108
3, 112798, Note_on_c, 2, 58, 0
3, 112798, Note_on_c, 2, 62, 0
3, 112800, Note_on_c, 2, 58, 108
3, 112800, Note_on_c, 2, 62, 108
3, 112894, Note_on_c, 2, 58, 0
3, 112894, Note_on_c, 2, 62, 0
3, 112896, Note_on_c, 2, 58, 108
3, 112896, Note_on_c, 2, 62, 108
3, 112990, Note_on_c, 2, 58, 0
3, 112990, Note_on_c, 2, 62, 0
3, 112992, Note_on_c, 2, 58, 108
3, 112992, Note_on_c, 2, 62, 108
3, 113086, Note_on_c, 2, 58, 0
3, 113086, Note_on_c, 2, 62, 0
3, 113088, Note_on_c, 2, 58, 108
3, 113088, Note_on_c, 2, 62, 108
3, 113182, Note_on_c, 2, 58, 0
3, 113182, Note_on_c, 2, 62, 0
3, 113184, Note_on_c, 2, 58, 108
3, 113184, Note_on_c, 2, 62, 108
3, 113278, Note_on_c, 2, 58, 0
3, 113278, Note_on_c, 2, 62, 0
3, 113280, Note_on_c, 2, 60, 108
3, 113280, Note_on_c, 2, 62, 108
3, 113374, Note_on_c, 2, 60, 0
3, 113374, Note_on_c, 2, 62, 0
3, 113376, Note_on_c, 2, 60, 108
3, 113376, Note_on_c, 2, 62, 108
3, 113470, Note_on_c, 2, 60, 0
3, 113470, Note_on_c, 2, 62, 0
3, 113472, Note_on_c, 2, 60, 108
3, 113472, Note_on_c, 2, 62, 108
3, 113566, Note_on_c, 2, 60, 0
3, 113566, Note_on_c, 2, 62, 0
3, 113568, Note_on_c, 2, 60, 108
3, 113568, Note_on_c, 2, 62, 108
3, 113662, Note_on_c, 2, 60, 0
3, 113662, Note_on_c, 2, 62, 0
3, 113664, Note_on_c, 2, 60, 108
3, 113664, Note_on_c, 2, 62, 108
3, 113758, Note_on_c, 2, 60, 0
3, 113758, Note_on_c, 2, 62, 0
3, 113760, Note_on_c, 2, 60, 108
3, 113760, Note_on_c, 2, 62, 108
3, 113854, Note_on_c, 2, 60, 0
3, 113854, Note_on_c, 2, 62, 0
3, 113856, Note_on_c, 2, 60, 108
3, 113856, Note_on_c, 2, 62, 108
3, 113950, Note_on_c, 2, 60, 0
3, 113950, Note_on_c, 2, 62, 0
3, 113952, Note_on_c, 2, 60, 108
3, 113952, Note_on_c, 2, 62, 108
3, 114046, Note_on_c, 2, 60, 0
3, 114046, Note_on_c, 2, 62, 0
3, 114048, Note_on_c, 2, 57, 108
3, 114048, Note_on_c, 2, 62, 108
3, 114142, Note_on_c, 2, 57, 0
3, 114142, Note_on_c, 2, 62, 0
3, 114144, Note_on_c, 2, 57, 108
3, 114144, Note_on_c, 2, 62, 108
3, 114238, Note_on_c, 2, 57, 0
3, 114238, Note_on_c, 2, 62, 0
3, 114240, Note_on_c, 2, 57, 108
3, 114240, Note_on_c, 2, 62, 108
3, 114334, Note_on_c, 2, 57, 0
3, 114334, Note_on_c, 2, 62, 0
3, 114336, Note_on_c, 2, 57, 108
3, 114336, Note_on_c, 2, 62, 108
3, 114430, Note_on_c, 2, 57, 0
3, 114430, Note_on_c, 2, 62, 0
3, 114432, Note_on_c, 2, 57, 108
3, 114432, Note_on_c, 2, 62, 108
3, 114526, Note_on_c, 2, 57, 0
3, 114526, Note_on_c, 2, 62, 0
3, 114528, Note_on_c, 2, 57, 108
3, 114528, Note_on_c, 2, 62, 108
3, 114622, Note_on_c, 2, 57, 0
3, 114622, Note_on_c, 2, 62, 0
3, 114624, Note_on_c, 2, 57, 108
3, 114624, Note_on_c, 2, 62, 108
3, 114718, Note_on_c, 2, 57, 0
3, 114718, Note_on_c, 2, 62, 0
3, 114720, Note_on_c, 2, 57, 108
3, 114720, Note_on_c, 2, 62, 108
3, 114814, Note_on_c, 2, 57, 0
3, 114814, Note_on_c, 2, 62, 0
3, 114816, Note_on_c, 2, 58, 108
3, 114816, Note_on_c, 2, 62, 108
3, 114910, Note_on_c, 2, 58, 0
3, 114910, Note_on_c, 2, 62, 0
3, 114912, Note_on_c, 2, 58, 108
3, 114912, Note_on_c, 2, 62, 108
3, 115006, Note_on_c, 2, 58, 0
3, 115006, Note_on_c, 2, 62, 0
3, 115008, Note_on_c, 2, 58, 108
3, 115008, Note_on_c, 2, 62, 108
3, 115102, Note_on_c, 2, 58, 0
3, 115102, Note_on_c, 2, 62, 0
3, 115104, Note_on_c, 2, 58, 108
3, 115104, Note_on_c, 2, 62, 108
3, 115198, Note_on_c, 2, 58, 0
3, 115198, Note_on_c, 2, 62, 0
3, 115200, Note_on_c, 2, 58, 108
3, 115200, Note_on_c, 2, 62, 108
3, 115294, Note_on_c, 2, 58, 0
3, 115294, Note_on_c, 2, 62, 0
3, 115296, Note_on_c, 2, 58, 108
3, 115296, Note_on_c, 2, 62, 108
3, 115390, Note_on_c, 2, 58, 0
3, 115390, Note_on_c, 2, 62, 0
3, 115392, Note_on_c, 2, 58, 108
3, 115392, Note_on_c, 2, 62, 108
3, 115486, Note_on_c, 2, 58, 0
3, 115486, Note_on_c, 2, 62, 0
3, 115488, Note_on_c, 2, 58, 108
3, 115488, Note_on_c, 2, 62, 108
3, 115582, Note_on_c, 2, 58, 0
3, 115582, Note_on_c, 2, 62, 0
3, 115584, Note_on_c, 2, 58, 108
3, 115584, Note_on_c, 2, 67, 108
3, 115678, Note_on_c, 2, 58, 0
3, 115678, Note_on_c, 2, 67, 0
3, 115680, Note_on_c, 2, 58, 108
3, 115680, Note_on_c, 2, 67, 108
3, 115774, Note_on_c, 2, 58, 0
3, 115774, Note_on_c, 2, 67, 0
3, 115776, Note_on_c, 2, 58, 108
3, 115776, Note_on_c, 2, 67, 108
3, 115870, Note_on_c, 2, 58, 0
3, 115870, Note_on_c, 2, 67, 0
3, 115872, Note_on_c, 2, 58, 108
3, 115872, Note_on_c, 2, 67, 108
3, 115966, Note_on_c, 2, 58, 0
3, 115966, Note_on_c, 2, 67, 0
3, 115968, Note_on_c, 2, 58, 108
3, 115968, Note_on_c, 2, 67, 108
3, 116062, Note_on_c, 2, 58, 0
3, 116062, Note_on_c, 2, 67, 0
3, 116064, Note_on_c, 2, 58, 108
3, 116064, Note_on_c, 2, 67, 108
3, 116158, Note_on_c, 2, 58, 0
3, 116158, Note_on_c, 2, 67, 0
3, 116160, Note_on_c, 2, 58, 108
3, 116160, Note_on_c, 2, 67, 108
3, 116254, Note_on_c, 2, 58, 0
3, 116254, Note_on_c, 2, 67, 0
3, 116256, Note_on_c, 2, 58, 108
3, 116256, Note_on_c, 2, 67, 108
3, 116350, Note_on_c, 2, 58, 0
3, 116350, Note_on_c, 2, 67, 0
3, 116352, Note_on_c, 2, 58, 108
3, 116352, Note_on_c, 2, 67, 108
3, 116446, Note_on_c, 2, 58, 0
3, 116446, Note_on_c, 2, 67, 0
3, 116544, Note_on_c, 2, 67, 108
3, 116832, Note_on_c, 2, 67, 0
3, 116832, Note_on_c, 2, 66, 108
3, 116926, Note_on_c, 2, 66, 0
3, 116928, Note_on_c, 2, 67, 108
3, 116960, Note_on_c, 2, 67, 0
3, 117024, Note_on_c, 2, 67, 108
3, 117056, Note_on_c, 2, 67, 0
3, 117120, Note_on_c, 2, 66, 108
3, 117280, Note_on_c, 2, 66, 0
3, 117408, Note_on_c, 2, 66, 108
3, 117440, Note_on_c, 2, 66, 0
3, 117504, Note_on_c, 2, 55, 108
3, 117552, Note_on_c, 2, 55, 0
3, 117792, Note_on_c, 2, 67, 108
3, 117824, Note_on_c, 2, 67, 0
3, 117888, Note_on_c, 2, 57, 108
3, 117936, Note_on_c, 2, 57, 0
3, 118176, Note_on_c, 2, 69, 108
3, 118208, Note_on_c, 2, 69, 0
3, 118272, Note_on_c, 2, 59, 127
3, 118320, Note_on_c, 2, 59, 0
3, 118560, Note_on_c, 2, 71, 108
3, 118592, Note_on_c, 2, 71, 0
3, 118656, Note_on_c, 2, 60, 108
3, 118688, Note_on_c, 2, 60, 0
3, 119424, Note_on_c, 2, 55, 45
3, 119456, Note_on_c, 2, 55, 0
3, 119520, Note_on_c, 2, 59, 45
3, 119552, Note_on_c, 2, 59, 0
3, 119616, Note_on_c, 2, 62, 45
3, 119648, Note_on_c, 2, 62, 0
3, 119712, Note_on_c, 2, 66, 45
3, 119744, Note_on_c, 2, 66, 0
3, 119808, Note_on_c, 2, 67, 45
3, 119840, Note_on_c, 2, 67, 0
3, 119904, Note_on_c, 2, 66, 45
3, 119936, Note_on_c, 2, 66, 0
3, 120000, Note_on_c, 2, 67, 45
3, 120032, Note_on_c, 2, 67, 0
3, 120096, Note_on_c, 2, 64, 45
3, 120128, Note_on_c, 2, 64, 0
3, 120192, Note_on_c, 2, 60, 45
3, 120286, Note_on_c, 2, 60, 0
3, 120384, Note_on_c, 2, 61, 45
3, 120478, Note_on_c, 2, 61, 0
3, 120576, Note_on_c, 2, 62, 45
3, 120670, Note_on_c, 2, 62, 0
3, 120960, Note_on_c, 2, 59, 45
3, 120992, Note_on_c, 2, 59, 0
3, 121056, Note_on_c, 2, 62, 45
3, 121088, Note_on_c, 2, 62, 0
3, 121152, Note_on_c, 2, 67, 45
3, 121184, Note_on_c, 2, 67, 0
3, 121248, Note_on_c, 2, 69, 45
3, 121280, Note_on_c, 2, 69, 0
3, 121344, Note_on_c, 2, 71, 45
3, 121376, Note_on_c, 2, 71, 0
3, 121440, Note_on_c, 2, 69, 45
3, 121472, Note_on_c, 2, 69, 0
3, 121536, Note_on_c, 2, 71, 45
3, 121568, Note_on_c, 2, 71, 0
3, 121632, Note_on_c, 2, 67, 45
3, 121664, Note_on_c, 2, 67, 0
3, 121728, Note_on_c, 2, 64, 45
3, 121760, Note_on_c, 2, 64, 0
3, 121824, Note_on_c, 2, 64, 45
3, 121856, Note_on_c, 2, 64, 0
3, 121920, Note_on_c, 2, 60, 45
3, 121952, Note_on_c, 2, 60, 0
3, 122016, Note_on_c, 2, 57, 45
3, 122048, Note_on_c, 2, 57, 0
3, 122112, Note_on_c, 2, 59, 45
3, 122158, Note_on_c, 2, 59, 0
3, 122160, Note_on_c, 2, 71, 45
3, 122208, Note_on_c, 2, 71, 0
3, 122208, Note_on_c, 2, 69, 45
3, 122256, Note_on_c, 2, 69, 0
3, 122256, Note_on_c, 2, 67, 45
3, 122304, Note_on_c, 2, 67, 0
3, 122304, Note_on_c, 2, 66, 45
3, 122352, Note_on_c, 2, 66, 0
3, 122352, Note_on_c, 2, 64, 45
3, 122400, Note_on_c, 2, 64, 0
3, 122400, Note_on_c, 2, 62, 45
3, 122448, Note_on_c, 2, 62, 0
3, 122448, Note_on_c, 2, 60, 45
3, 122494, Note_on_c, 2, 60, 0
3, 122496, Note_on_c, 2, 59, 45
3, 122590, Note_on_c, 2, 59, 0
3, 122592, Note_on_c, 2, 59, 45
3, 122752, Note_on_c, 2, 59, 0
3, 122784, Note_on_c, 2, 59, 45
3, 122974, Note_on_c, 2, 59, 0
3, 122976, Note_on_c, 2, 59, 45
3, 123070, Note_on_c, 2, 59, 0
3, 123072, Note_on_c, 2, 60, 45
3, 123120, Note_on_c, 2, 60, 0
3, 123120, Note_on_c, 2, 59, 45
3, 123168, Note_on_c, 2, 59, 0
3, 123168, Note_on_c, 2, 57, 45
3, 123216, Note_on_c, 2, 57, 0
3, 123216, Note_on_c, 2, 59, 45
3, 123262, Note_on_c, 2, 59, 0
3, 123264, Note_on_c, 2, 60, 45
3, 123424, Note_on_c, 2, 60, 0
3, 124032, Note_on_c, 2, 62, 45
3, 124126, Note_on_c, 2, 62, 0
3, 124128, Note_on_c, 2, 62, 45
3, 124288, Note_on_c, 2, 62, 0
3, 124320, Note_on_c, 2, 62, 45
3, 124510, Note_on_c, 2, 62, 0
3, 124512, Note_on_c, 2, 62, 45
3, 124606, Note_on_c, 2, 62, 0
3, 124608, Note_on_c, 2, 64, 45
3, 124656, Note_on_c, 2, 64, 0
3, 124656, Note_on_c, 2, 62, 45
3, 124704, Note_on_c, 2, 62, 0
3, 124704, Note_on_c, 2, 60, 45
3, 124752, Note_on_c, 2, 60, 0
3, 124752, Note_on_c, 2, 62, 45
3, 124798, Note_on_c, 2, 62, 0
3, 124800, Note_on_c, 2, 64, 45
3, 124960, Note_on_c, 2, 64, 0
3, 125760, Note_on_c, 2, 60, 63
3, 125920, Note_on_c, 2, 60, 0
3, 126144, Note_on_c, 2, 59, 63
3, 126304, Note_on_c, 2, 59, 0
3, 126528, Note_on_c, 2, 57, 63
3, 126688, Note_on_c, 2, 57, 0
3, 126912, Note_on_c, 2, 67, 63
3, 127072, Note_on_c, 2, 67, 0
3, 127104, Note_on_c, 2, 66, 45
3, 127264, Note_on_c, 2, 66, 0
3, 127488, Note_on_c, 2, 60, 45
3, 127680, Note_on_c, 2, 60, 0
3, 127680, Note_on_c, 2, 57, 45
3, 127872, Note_on_c, 2, 57, 0
3, 127872, Note_on_c, 2, 66, 45
3, 128208, Note_on_c, 2, 66, 0
3, 128256, Note_on_c, 2, 60, 45
3, 128448, Note_on_c, 2, 60, 0
3, 128448, Note_on_c, 2, 57, 45
3, 128640, Note_on_c, 2, 57, 0
3, 128640, Note_on_c, 2, 66, 45
3, 128976, Note_on_c, 2, 66, 0
3, 129024, Note_on_c, 2, 60, 45
3, 129216, Note_on_c, 2, 60, 0
3, 129216, Note_on_c, 2, 57, 45
3, 129408, Note_on_c, 2, 57, 0
3, 129408, Note_on_c, 2, 66, 45
3, 129744, Note_on_c, 2, 66, 0
3, 129792, Note_on_c, 2, 60, 45
3, 129984, Note_on_c, 2, 60, 0
3, 129984, Note_on_c, 2, 57, 45
3, 130144, Note_on_c, 2, 57, 0
3, 130176, Note_on_c, 2, 58, 45
3, 130176, Note_on_c, 2, 67, 45
3, 130654, Note_on_c, 2, 58, 0
3, 130654, Note_on_c, 2, 67, 0
3, 130656, Note_on_c, 2, 58, 74
3, 130750, Note_on_c, 2, 58, 0
3, 130752, Note_on_c, 2, 58, 80
3, 130846, Note_on_c, 2, 58, 0
3, 130848, Note_on_c, 2, 58, 86
3, 130848, Note_on_c, 2, 67, 86
3, 130942, Note_on_c, 2, 58, 0
3, 130942, Note_on_c, 2, 67, 0
3, 130944, Note_on_c, 2, 59, 92
3, 130944, Note_on_c, 2, 67, 92
3, 131038, Note_on_c, 2, 59, 0
3, 131038, Note_on_c, 2, 67, 0
3, 131040, Note_on_c, 2, 59, 92
3, 131134, Note_on_c, 2, 59, 0
3, 131136, Note_on_c, 2, 59, 92
3, 131230, Note_on_c, 2, 59, 0
3, 131328, Note_on_c, 2, 60, 92
3, 131422, Note_on_c, 2, 60, 0
3, 131424, Note_on_c, 2, 60, 92
3, 131518, Note_on_c, 2, 60, 0
3, 131520, Note_on_c, 2, 60, 92
3, 131614, Note_on_c, 2, 60, 0
3, 131616, Note_on_c, 2, 60, 92
3, 131710, Note_on_c, 2, 60, 0
3, 132480, Note_on_c, 2, 72, 45
3, 132672, Note_on_c, 2, 72, 0
3, 132672, Note_on_c, 2, 69, 45
3, 132832, Note_on_c, 2, 69, 0
3, 133248, Note_on_c, 2, 72, 45
3, 133440, Note_on_c, 2, 72, 0
3, 133440, Note_on_c, 2, 69, 45
3, 133600, Note_on_c, 2, 69, 0
3, 134784, Note_on_c, 2, 60, 30
3, 134880, Note_on_c, 2, 60, 0
3, 134880, Note_on_c, 2, 65, 30
3, 134976, Note_on_c, 2, 65, 0
3, 134976, Note_on_c, 2, 60, 30
3, 135072, Note_on_c, 2, 60, 0
3, 135072, Note_on_c, 2, 65, 30
3, 135166, Note_on_c, 2, 65, 0
3, 135168, Note_on_c, 2, 62, 30
3, 135264, Note_on_c, 2, 62, 0
3, 135264, Note_on_c, 2, 65, 30
3, 135360, Note_on_c, 2, 65, 0
3, 135360, Note_on_c, 2, 62, 30
3, 135456, Note_on_c, 2, 62, 0
3, 135456, Note_on_c, 2, 65, 30
3, 135550, Note_on_c, 2, 65, 0
3, 135552, Note_on_c, 2, 63, 30
3, 135648, Note_on_c, 2, 63, 0
3, 135648, Note_on_c, 2, 65, 30
3, 135744, Note_on_c, 2, 65, 0
3, 135744, Note_on_c, 2, 63, 30
3, 135840, Note_on_c, 2, 63, 0
3, 135840, Note_on_c, 2, 65, 30
3, 135934, Note_on_c, 2, 65, 0
3, 135936, Note_on_c, 2, 62, 30
3, 136032, Note_on_c, 2, 62, 0
3, 136032, Note_on_c, 2, 65, 30
3, 136128, Note_on_c, 2, 65, 0
3, 136128, Note_on_c, 2, 62, 30
3, 136224, Note_on_c, 2, 62, 0
3, 136224, Note_on_c, 2, 65, 30
3, 136318, Note_on_c, 2, 65, 0
3, 136320, Note_on_c, 2, 60, 30
3, 136416, Note_on_c, 2, 60, 0
3, 136416, Note_on_c, 2, 65, 30
3, 136512, Note_on_c, 2, 65, 0
3, 136512, Note_on_c, 2, 60, 30
3, 136608, Note_on_c, 2, 60, 0
3, 136608, Note_on_c, 2, 65, 30
3, 136702, Note_on_c, 2, 65, 0
3, 136704, Note_on_c, 2, 62, 30
3, 136800, Note_on_c, 2, 62, 0
3, 136800, Note_on_c, 2, 65, 30
3, 136896, Note_on_c, 2, 65, 0
3, 136896, Note_on_c, 2, 62, 30
3, 136992, Note_on_c, 2, 62, 0
3, 136992, Note_on_c, 2, 65, 30
3, 137086, Note_on_c, 2, 65, 0
3, 137088, Note_on_c, 2, 63, 30
3, 137184, Note_on_c, 2, 63, 0
3, 137184, Note_on_c, 2, 65, 30
3, 137280, Note_on_c, 2, 65, 0
3, 137280, Note_on_c, 2, 63, 30
3, 137376, Note_on_c, 2, 63, 0
3, 137376, Note_on_c, 2, 65, 30
3, 137470, Note_on_c, 2, 65, 0
3, 137472, Note_on_c, 2, 62, 30
3, 137568, Note_on_c, 2, 62, 0
3, 137568, Note_on_c, 2, 65, 30
3, 137664, Note_on_c, 2, 65, 0
3, 137664, Note_on_c, 2, 62, 30
3, 137760, Note_on_c, 2, 62, 0
3, 137760, Note_on_c, 2, 65, 30
3, 137854, Note_on_c, 2, 65, 0
3, 137856, Note_on_c, 2, 62, 30
3, 137950, Note_on_c, 2, 62, 0
3, 137952, Note_on_c, 2, 65, 33
3, 138046, Note_on_c, 2, 65, 0
3, 138048, Note_on_c, 2, 65, 36
3, 138142, Note_on_c, 2, 65, 0
3, 138144, Note_on_c, 2, 65, 40
3, 138238, Note_on_c, 2, 65, 0
3, 138240, Note_on_c, 2, 65, 44
3, 138334, Note_on_c, 2, 65, 0
3, 138336, Note_on_c, 2, 65, 48
3, 138430, Note_on_c, 2, 65, 0
3, 138432, Note_on_c, 2, 65, 52
3, 138526, Note_on_c, 2, 65, 0
3, 138528, Note_on_c, 2, 65, 56
3, 138622, Note_on_c, 2, 65, 0
3, 138624, Note_on_c, 2, 66, 60
3, 138718, Note_on_c, 2, 66, 0
3, 138720, Note_on_c, 2, 66, 64
3, 138814, Note_on_c, 2, 66, 0
3, 138816, Note_on_c, 2, 66, 68
3, 138910, Note_on_c, 2, 66, 0
3, 138912, Note_on_c, 2, 66, 72
3, 139006, Note_on_c, 2, 66, 0
3, 139008, Note_on_c, 2, 67, 76
3, 139102, Note_on_c, 2, 67, 0
3, 139104, Note_on_c, 2, 67, 80
3, 139198, Note_on_c, 2, 67, 0
3, 139200, Note_on_c, 2, 67, 84
3, 139294, Note_on_c, 2, 67, 0
3, 139296, Note_on_c, 2, 67, 88
3, 139390, Note_on_c, 2, 67, 0
3, 139392, Note_on_c, 2, 69, 92
3, 139486, Note_on_c, 2, 69, 0
3, 139488, Note_on_c, 2, 60, 92
3, 139582, Note_on_c, 2, 60, 0
3, 139584, Note_on_c, 2, 60, 92
3, 139678, Note_on_c, 2, 60, 0
3, 139680, Note_on_c, 2, 60, 92
3, 139774, Note_on_c, 2, 60, 0
3, 139776, Note_on_c, 2, 60, 92
3, 139870, Note_on_c, 2, 60, 0
3, 139872, Note_on_c, 2, 60, 92
3, 139966, Note_on_c, 2, 60, 0
3, 139968, Note_on_c, 2, 60, 92
3, 140062, Note_on_c, 2, 60, 0
3, 140064, Note_on_c, 2, 60, 92
3, 140158, Note_on_c, 2, 60, 0
3, 140160, Note_on_c, 2, 59, 108
3, 140254, Note_on_c, 2, 59, 0
3, 140256, Note_on_c, 2, 59, 108
3, 140350, Note_on_c, 2, 59, 0
3, 140352, Note_on_c, 2, 64, 127
3, 140446, Note_on_c, 2, 64, 0
3, 140448, Note_on_c, 2, 64, 127
3, 140542, Note_on_c, 2, 64, 0
3, 140544, Note_on_c, 2, 67, 108
3, 140638, Note_on_c, 2, 67, 0
3, 140640, Note_on_c, 2, 67, 108
3, 140734, Note_on_c, 2, 67, 0
3, 140736, Note_on_c, 2, 66, 108
3, 140830, Note_on_c, 2, 66, 0
3, 140832, Note_on_c, 2, 66, 108
3, 140926, Note_on_c, 2, 66, 0
3, 140928, Note_on_c, 2, 67, 108
3, 140976, Note_on_c, 2, 67, 0
3, 141120, Note_on_c, 2, 67, 108
3, 141168, Note_on_c, 2, 67, 0
3, 141312, Note_on_c, 2, 71, 127
3, 141600, Note_on_c, 2, 71, 0
3, 141600, Note_on_c, 2, 69, 108
3, 141648, Note_on_c, 2, 69, 0
3, 141648, Note_on_c, 2, 67, 108
3, 141694, Note_on_c, 2, 67, 0
3, 141696, Note_on_c, 2, 66, 108
3, 141744, Note_on_c, 2, 66, 0
3, 141744, Note_on_c, 2, 67, 108
3, 141792, Note_on_c, 2, 67, 0
3, 141792, Note_on_c, 2, 69, 108
3, 141840, Note_on_c, 2, 69, 0
3, 141840, Note_on_c, 2, 71, 108
3, 141888, Note_on_c, 2, 71, 0
3, 141888, Note_on_c, 2, 72, 108
3, 141936, Note_on_c, 2, 72, 0
3, 141936, Note_on_c, 2, 71, 108
3, 141984, Note_on_c, 2, 71, 0
3, 141984, Note_on_c, 2, 69, 108
3, 142032, Note_on_c, 2, 69, 0
3, 142032, Note_on_c, 2, 67, 108
3, 142080, Note_on_c, 2, 67, 0
3, 142080, Note_on_c, 2, 66, 108
3, 142128, Note_on_c, 2, 66, 0
3, 142128, Note_on_c, 2, 67, 108
3, 142176, Note_on_c, 2, 67, 0
3, 142176, Note_on_c, 2, 69, 108
3, 142224, Note_on_c, 2, 69, 0
3, 142224, Note_on_c, 2, 67, 108
3, 142272, Note_on_c, 2, 67, 0
3, 142272, Note_on_c, 2, 66, 108
3, 142320, Note_on_c, 2, 66, 0
3, 142320, Note_on_c, 2, 62, 108
3, 142368, Note_on_c, 2, 62, 0
3, 142368, Note_on_c, 2, 64, 108
3, 142416, Note_on_c, 2, 64, 0
3, 142416, Note_on_c, 2, 66, 108
3, 142462, Note_on_c, 2, 66, 0
3, 142464, Note_on_c, 2, 67, 108
3, 142496, Note_on_c, 2, 67, 0
3, 142560, Note_on_c, 2, 74, 108
3, 142592, Note_on_c, 2, 74, 0
3, 142656, Note_on_c, 2, 79, 108
3, 142688, Note_on_c, 2, 79, 0
3, 142752, Note_on_c, 2, 79, 108
3, 142784, Note_on_c, 2, 79, 0
3, 142848, Note_on_c, 2, 83, 127
3, 143136, Note_on_c, 2, 83, 0
3, 143136, Note_on_c, 2, 81, 108
3, 143184, Note_on_c, 2, 81, 0
3, 143184, Note_on_c, 2, 79, 108
3, 143232, Note_on_c, 2, 79, 0
3, 143232, Note_on_c, 2, 78, 108
3, 143264, Note_on_c, 2, 78, 0
3, 143328, Note_on_c, 2, 69, 108
3, 143376, Note_on_c, 2, 69, 0
3, 143376, Note_on_c, 2, 71, 108
3, 143424, Note_on_c, 2, 71, 0
3, 143424, Note_on_c, 2, 72, 108
3, 143472, Note_on_c, 2, 72, 0
3, 143472, Note_on_c, 2, 71, 108
3, 143520, Note_on_c, 2, 71, 0
3, 143520, Note_on_c, 2, 69, 108
3, 143568, Note_on_c, 2, 69, 0
3, 143568, Note_on_c, 2, 67, 108
3, 143616, Note_on_c, 2, 67, 0
3, 143616, Note_on_c, 2, 66, 108
3, 143664, Note_on_c, 2, 66, 0
3, 143664, Note_on_c, 2, 67, 108
3, 143712, Note_on_c, 2, 67, 0
3, 143712, Note_on_c, 2, 69, 108
3, 143760, Note_on_c, 2, 69, 0
3, 143760, Note_on_c, 2, 67, 108
3, 143808, Note_on_c, 2, 67, 0
3, 143808, Note_on_c, 2, 66, 108
3, 143856, Note_on_c, 2, 66, 0
3, 143856, Note_on_c, 2, 62, 108
3, 143904, Note_on_c, 2, 62, 0
3, 143904, Note_on_c, 2, 64, 108
3, 143952, Note_on_c, 2, 64, 0
3, 143952, Note_on_c, 2, 66, 108
3, 143998, Note_on_c, 2, 66, 0
3, 144000, Note_on_c, 2, 67, 108
3, 144094, Note_on_c, 2, 67, 0
3, 144096, Note_on_c, 2, 66, 108
3, 144256, Note_on_c, 2, 66, 0
3, 144288, Note_on_c, 2, 66, 108
3, 144382, Note_on_c, 2, 66, 0
3, 144384, Note_on_c, 2, 67, 108
3, 144478, Note_on_c, 2, 67, 0
3, 144480, Note_on_c, 2, 66, 108
3, 144640, Note_on_c, 2, 66, 0
3, 144672, Note_on_c, 2, 66, 108
3, 144766, Note_on_c, 2, 66, 0
3, 144768, Note_on_c, 2, 67, 108
3, 144800, Note_on_c, 2, 67, 0
3, 144864, Note_on_c, 2, 69, 108
3, 144912, Note_on_c, 2, 69, 0
3, 144912, Note_on_c, 2, 71, 108
3, 144960, Note_on_c, 2, 71, 0
3, 144960, Note_on_c, 2, 72, 108
3, 144992, Note_on_c, 2, 72, 0
3, 145056, Note_on_c, 2, 71, 108
3, 145104, Note_on_c, 2, 71, 0
3, 145104, Note_on_c, 2, 69, 108
3, 145152, Note_on_c, 2, 69, 0
3, 145152, Note_on_c, 2, 67, 108
3, 145184, Note_on_c, 2, 67, 0
3, 145248, Note_on_c, 2, 69, 108
3, 145296, Note_on_c, 2, 69, 0
3, 145296, Note_on_c, 2, 71, 108
3, 145344, Note_on_c, 2, 71, 0
3, 145344, Note_on_c, 2, 72, 108
3, 145376, Note_on_c, 2, 72, 0
3, 145440, Note_on_c, 2, 71, 108
3, 145488, Note_on_c, 2, 71, 0
3, 145488, Note_on_c, 2, 69, 108
3, 145536, Note_on_c, 2, 69, 0
3, 145536, Note_on_c, 2, 67, 108
3, 145584, Note_on_c, 2, 67, 0
3, 145728, Note_on_c, 2, 71, 108
3, 145776, Note_on_c, 2, 71, 0
3, 145920, Note_on_c, 2, 67, 127
3, 146256, Note_on_c, 2, 67, 0
3, 146304, Note_on_c, 2, 71, 108
3, 146352, Note_on_c, 2, 71, 0
3, 146496, Note_on_c, 2, 67, 108
3, 146544, Note_on_c, 2, 67, 0
3, 146688, Note_on_c, 2, 62, 127
3, 147024, Note_on_c, 2, 62, 0
3, 147072, Note_on_c, 2, 67, 108
3, 147120, Note_on_c, 2, 67, 0
3, 147264, Note_on_c, 2, 62, 108
3, 147312, Note_on_c, 2, 62, 0
3, 147456, Note_on_c, 2, 59, 127
3, 147792, Note_on_c, 2, 59, 0
3, 147840, Note_on_c, 2, 62, 108
3, 148000, Note_on_c, 2, 62, 0
3, 148032, Note_on_c, 2, 62, 127
3, 148384, Note_on_c, 2, 62, 0
3, 148416, Note_on_c, 2, 62, 127
3, 148768, Note_on_c, 2, 62, 0
3, 148800, Note_on_c, 2, 62, 127
3, 149152, Note_on_c, 2, 62, 0
3, 149184, Note_on_c, 2, 62, 127
3, 149536, Note_on_c, 2, 62, 0
3, 149568, Note_on_c, 2, 62, 127
3, 149920, Note_on_c, 2, 62, 0
3, 149952, Note_on_c, 2, 62, 127
3, 150304, Note_on_c, 2, 62, 0
3, 150336, Note_on_c, 2, 62, 127
3, 151072, Note_on_c, 2, 62, 0
3, 151104, Note_on_c, 2, 62, 45
3, 151840, Note_on_c, 2, 62, 0
3, 151872, Note_on_c, 2, 62, 30
3, 153552, Note_on_c, 2, 62, 0
3, 153600, Note_on_c, 2, 64, 30
3, 153648, Note_on_c, 2, 64, 0
3, 153792, Note_on_c, 2, 67, 30
3, 153840, Note_on_c, 2, 67, 0
3, 153984, Note_on_c, 2, 67, 30
3, 154240, Note_on_c, 2, 67, 0
3, 154272, Note_on_c, 2, 67, 30
3, 154366, Note_on_c, 2, 67, 0
3, 154368, Note_on_c, 2, 67, 30
3, 154400, Note_on_c, 2, 67, 0
3, 154464, Note_on_c, 2, 67, 30
3, 154496, Note_on_c, 2, 67, 0
3, 154560, Note_on_c, 2, 67, 30
3, 154592, Note_on_c, 2, 67, 0
3, 154656, Note_on_c, 2, 67, 30
3, 154688, Note_on_c, 2, 67, 0
3, 154752, Note_on_c, 2, 67, 30
3, 154846, Note_on_c, 2, 67, 0
3, 155328, Note_on_c, 2, 67, 30
3, 155376, Note_on_c, 2, 67, 0
3, 155520, Note_on_c, 2, 67, 30
3, 155856, Note_on_c, 2, 67, 0
3, 156096, Note_on_c, 2, 62, 30
3, 156144, Note_on_c, 2, 62, 0
3, 156288, Note_on_c, 2, 62, 30
3, 156624, Note_on_c, 2, 62, 0
3, 156672, Note_on_c, 2, 62, 30
3, 156720, Note_on_c, 2, 62, 0
3, 156864, Note_on_c, 2, 74, 30
3, 156912, Note_on_c, 2, 74, 0
3, 157056, Note_on_c, 2, 74, 30
3, 157312, Note_on_c, 2, 74, 0
3, 157344, Note_on_c, 2, 74, 30
3, 157438, Note_on_c, 2, 74, 0
3, 157440, Note_on_c, 2, 74, 30
3, 157472, Note_on_c, 2, 74, 0
3, 157536, Note_on_c, 2, 74, 30
3, 157568, Note_on_c, 2, 74, 0
3, 157632, Note_on_c, 2, 74, 30
3, 157664, Note_on_c, 2, 74, 0
3, 157728, Note_on_c, 2, 74, 30
3, 157760, Note_on_c, 2, 74, 0
3, 157824, Note_on_c, 2, 74, 45
3, 157918, Note_on_c, 2, 74, 0
3, 158208, Note_on_c, 2, 69, 30
3, 158256, Note_on_c, 2, 69, 0
3, 158400, Note_on_c, 2, 74, 30
3, 158448, Note_on_c, 2, 74, 0
3, 158592, Note_on_c, 2, 74, 30
3, 158848, Note_on_c, 2, 74, 0
3, 158880, Note_on_c, 2, 74, 30
3, 158974, Note_on_c, 2, 74, 0
3, 158976, Note_on_c, 2, 74, 30
3, 159008, Note_on_c, 2, 74, 0
3, 159072, Note_on_c, 2, 71, 33
3, 159104, Note_on_c, 2, 71, 0
3, 159168, Note_on_c, 2, 72, 36
3, 159200, Note_on_c, 2, 72, 0
3, 159264, Note_on_c, 2, 69, 39
3, 159296, Note_on_c, 2, 69, 0
3, 159360, Note_on_c, 2, 74, 42
3, 159392, Note_on_c, 2, 74, 0
3, 159456, Note_on_c, 2, 71, 45
3, 159488, Note_on_c, 2, 71, 0
3, 159552, Note_on_c, 2, 72, 48
3, 159584, Note_on_c, 2, 72, 0
3, 159648, Note_on_c, 2, 69, 51
3, 159680, Note_on_c, 2, 69, 0
3, 159744, Note_on_c, 2, 74, 54
3, 159776, Note_on_c, 2, 74, 0
3, 159840, Note_on_c, 2, 79, 57
3, 159872, Note_on_c, 2, 79, 0
3, 159936, Note_on_c, 2, 76, 60
3, 159968, Note_on_c, 2, 76, 0
3, 160032, Note_on_c, 2, 78, 63
3, 160064, Note_on_c, 2, 78, 0
3, 160128, Note_on_c, 2, 79, 66
3, 160160, Note_on_c, 2, 79, 0
3, 160224, Note_on_c, 2, 79, 69
3, 160256, Note_on_c, 2, 79, 0
3, 160320, Note_on_c, 2, 76, 72
3, 160352, Note_on_c, 2, 76, 0
3, 160416, Note_on_c, 2, 78, 75
3, 160448, Note_on_c, 2, 78, 0
3, 160512, Note_on_c, 2, 79, 78
3, 160558, Note_on_c, 2, 79, 0
3, 160560, Note_on_c, 2, 79, 79
3, 160606, Note_on_c, 2, 79, 0
3, 160608, Note_on_c, 2, 79, 80
3, 160654, Note_on_c, 2, 79, 0
3, 160656, Note_on_c, 2, 79, 82
3, 160702, Note_on_c, 2, 79, 0
3, 160704, Note_on_c, 2, 76, 84
3, 160750, Note_on_c, 2, 76, 0
3, 160752, Note_on_c, 2, 76, 86
3, 160798, Note_on_c, 2, 76, 0
3, 160800, Note_on_c, 2, 78, 88
3, 160846, Note_on_c, 2, 78, 0
3, 160848, Note_on_c, 2, 78, 90
3, 160894, Note_on_c, 2, 78, 0
3, 160896, Note_on_c, 2, 79, 92
3, 160942, Note_on_c, 2, 79, 0
3, 160944, Note_on_c, 2, 79, 94
3, 160990, Note_on_c, 2, 79, 0
3, 160992, Note_on_c, 2, 79, 96
3, 161038, Note_on_c, 2, 79, 0
3, 161040, Note_on_c, 2, 79, 98
3, 161086, Note_on_c, 2, 79, 0
3, 161088, Note_on_c, 2, 76, 100
3, 161134, Note_on_c, 2, 76, 0
3, 161136, Note_on_c, 2, 76, 102
3, 161182, Note_on_c, 2, 76, 0
3, 161184, Note_on_c, 2, 78, 104
3, 161230, Note_on_c, 2, 78, 0
3, 161232, Note_on_c, 2, 78, 106
3, 161278, Note_on_c, 2, 78, 0
3, 161280, Note_on_c, 2, 79, 108
3, 161374, Note_on_c, 2, 79, 0
3, 161376, Note_on_c, 2, 71, 127
3, 161422, Note_on_c, 2, 71, 0
3, 161424, Note_on_c, 2, 71, 127
3, 161470, Note_on_c, 2, 71, 0
3, 161472, Note_on_c, 2, 67, 127
3, 161518, Note_on_c, 2, 67, 0
3, 161520, Note_on_c, 2, 67, 127
3, 161566, Note_on_c, 2, 67, 0
3, 161568, Note_on_c, 2, 62, 127
3, 161614, Note_on_c, 2, 62, 0
3, 161616, Note_on_c, 2, 62, 127
3, 161662, Note_on_c, 2, 62, 0
3, 161664, Note_on_c, 2, 59, 127
3, 161710, Note_on_c, 2, 59, 0
3, 161712, Note_on_c, 2, 59, 127
3, 161758, Note_on_c, 2, 59, 0
3, 161760, Note_on_c, 2, 55, 127
3, 161806, Note_on_c, 2, 55, 0
3, 161808, Note_on_c, 2, 55, 127
3, 161854, Note_on_c, 2, 55, 0
3, 161904, Note_on_c, 2, 62, 127
3, 161950, Note_on_c, 2, 62, 0
3, 161952, Note_on_c, 2, 72, 108
3, 161998, Note_on_c, 2, 72, 0
3, 162000, Note_on_c, 2, 72, 108
3, 162046, Note_on_c, 2, 72, 0
3, 162048, Note_on_c, 2, 62, 108
3, 162208, Note_on_c, 2, 62, 0
3, 162432, Note_on_c, 2, 71, 108
3, 162432, Note_on_c, 2, 79, 108
3, 162592, Note_on_c, 2, 71, 0
3, 162592, Note_on_c, 2, 79, 0
3, 162592, End_track
4, 0, Start_track
4, 0, MIDI_port, 0
4, 0, Title_t, "Viola."
4, 0, Program_c, 3, 0
4, 0, Control_c, 3, 7, 127
4, 0, Control_c, 3, 10, 64
4, 1728, Note_on_c, 3, 59, 45
4, 1776, Note_on_c, 3, 59, 0
4, 1920, Note_on_c, 3, 55, 45
4, 2208, Note_on_c, 3, 55, 0
4, 2208, Note_on_c, 3, 57, 45
4, 2256, Note_on_c, 3, 57, 0
4, 2256, Note_on_c, 3, 59, 45
4, 2302, Note_on_c, 3, 59, 0
4, 2304, Note_on_c, 3, 57, 60
4, 2336, Note_on_c, 3, 57, 0
4, 2400, Note_on_c, 3, 54, 45
4, 2432, Note_on_c, 3, 54, 0
4, 2496, Note_on_c, 3, 52, 45
4, 2528, Note_on_c, 3, 52, 0
4, 2592, Note_on_c, 3, 55, 45
4, 2624, Note_on_c, 3, 55, 0
4, 2688, Note_on_c, 3, 54, 45
4, 2782, Note_on_c, 3, 54, 0
4, 4608, Note_on_c, 3, 66, 45
4, 4656, Note_on_c, 3, 66, 0
4, 4800, Note_on_c, 3, 69, 45
4, 4848, Note_on_c, 3, 69, 0
4, 4992, Note_on_c, 3, 72, 45
4, 5280, Note_on_c, 3, 72, 0
4, 5280, Note_on_c, 3, 71, 45
4, 5328, Note_on_c, 3, 71, 0
4, 5328, Note_on_c, 3, 69, 45
4, 5374, Note_on_c, 3, 69, 0
4, 5376, Note_on_c, 3, 67, 45
4, 5408, Note_on_c, 3, 67, 0
4, 5472, Note_on_c, 3, 67, 45
4, 5504, Note_on_c, 3, 67, 0
4, 5568, Note_on_c, 3, 69, 45
4, 5600, Note_on_c, 3, 69, 0
4, 5664, Note_on_c, 3, 69, 45
4, 5696, Note_on_c, 3, 69, 0
4, 5760, Note_on_c, 3, 67, 45
4, 5854, Note_on_c, 3, 67, 0
4, 6144, Note_on_c, 3, 62, 45
4, 6528, Note_on_c, 3, 62, 0
4, 6528, Note_on_c, 3, 60, 45
4, 6688, Note_on_c, 3, 60, 0
4, 6912, Note_on_c, 3, 57, 45
4, 7390, Note_on_c, 3, 57, 0
4, 7392, Note_on_c, 3, 54, 74
4, 7424, Note_on_c, 3, 54, 0
4, 7488, Note_on_c, 3, 55, 80
4, 7520, Note_on_c, 3, 55, 0
4, 7584, Note_on_c, 3, 57, 86
4, 7616, Note_on_c, 3, 57, 0
4, 7680, Note_on_c, 3, 59, 92
4, 7774, Note_on_c, 3, 59, 0
4, 7776, Note_on_c, 3, 59, 92
4, 7870, Note_on_c, 3, 59, 0
4, 7872, Note_on_c, 3, 59, 92
4, 7966, Note_on_c, 3, 59, 0
4, 7968, Note_on_c, 3, 59, 92
4, 8062, Note_on_c, 3, 59, 0
4, 8064, Note_on_c, 3, 59, 92
4, 8158, Note_on_c, 3, 59, 0
4, 8160, Note_on_c, 3, 59, 92
4, 8254, Note_on_c, 3, 59, 0
4, 8256, Note_on_c, 3, 59, 92
4, 8350, Note_on_c, 3, 59, 0
4, 8352, Note_on_c, 3, 59, 92
4, 8446, Note_on_c, 3, 59, 0
4, 8448, Note_on_c, 3, 60, 92
4, 8542, Note_on_c, 3, 60, 0
4, 8544, Note_on_c, 3, 60, 92
4, 8638, Note_on_c, 3, 60, 0
4, 8640, Note_on_c, 3, 60, 92
4, 8734, Note_on_c, 3, 60, 0
4, 8736, Note_on_c, 3, 60, 92
4, 8830, Note_on_c, 3, 60, 0
4, 8832, Note_on_c, 3, 60, 92
4, 8926, Note_on_c, 3, 60, 0
4, 8928, Note_on_c, 3, 59, 92
4, 9022, Note_on_c, 3, 59, 0
4, 9024, Note_on_c, 3, 57, 92
4, 9118, Note_on_c, 3, 57, 0
4, 9120, Note_on_c, 3, 55, 92
4, 9214, Note_on_c, 3, 55, 0
4, 9216, Note_on_c, 3, 54, 92
4, 9310, Note_on_c, 3, 54, 0
4, 9312, Note_on_c, 3, 54, 92
4, 9406, Note_on_c, 3, 54, 0
4, 9408, Note_on_c, 3, 54, 92
4, 9502, Note_on_c, 3, 54, 0
4, 9504, Note_on_c, 3, 54, 92
4, 9598, Note_on_c, 3, 54, 0
4, 9600, Note_on_c, 3, 54, 92
4, 9694, Note_on_c, 3, 54, 0
4, 9696, Note_on_c, 3, 54, 92
4, 9790, Note_on_c, 3, 54, 0
4, 9792, Note_on_c, 3, 54, 92
4, 9886, Note_on_c, 3, 54, 0
4, 9888, Note_on_c, 3, 62, 92
4, 9982, Note_on_c, 3, 62, 0
4, 9984, Note_on_c, 3, 62, 92
4, 10078, Note_on_c, 3, 62, 0
4, 10080, Note_on_c, 3, 67, 92
4, 10174, Note_on_c, 3, 67, 0
4, 10176, Note_on_c, 3, 64, 92
4, 10270, Note_on_c, 3, 64, 0
4, 10272, Note_on_c, 3, 66, 92
4, 10366, Note_on_c, 3, 66, 0
4, 10368, Note_on_c, 3, 59, 92
4, 10528, Note_on_c, 3, 59, 0
4, 10656, Note_on_c, 3, 67, 45
4, 10752, Note_on_c, 3, 67, 0
4, 10752, Note_on_c, 3, 66, 45
4, 10912, Note_on_c, 3, 66, 0
4, 11040, Note_on_c, 3, 66, 45
4, 11136, Note_on_c, 3, 66, 0
4, 11136, Note_on_c, 3, 67, 45
4, 11230, Note_on_c, 3, 67, 0
4, 11232, Note_on_c, 3, 65, 45
4, 11264, Note_on_c, 3, 65, 0
4, 11328, Note_on_c, 3, 64, 45
4, 11360, Note_on_c, 3, 64, 0
4, 11424, Note_on_c, 3, 66, 45
4, 11456, Note_on_c, 3, 66, 0
4, 11520, Note_on_c, 3, 67, 45
4, 11552, Note_on_c, 3, 67, 0
4, 11616, Note_on_c, 3, 64, 45
4, 11648, Note_on_c, 3, 64, 0
4, 11712, Note_on_c, 3, 60, 45
4, 11744, Note_on_c, 3, 60, 0
4, 11808, Note_on_c, 3, 62, 45
4, 11840, Note_on_c, 3, 62, 0
4, 11904, Note_on_c, 3, 55, 45
4, 12064, Note_on_c, 3, 55, 0
4, 12192, Note_on_c, 3, 55, 45
4, 12288, Note_on_c, 3, 55, 0
4, 12288, Note_on_c, 3, 57, 45
4, 12448, Note_on_c, 3, 57, 0
4, 12576, Note_on_c, 3, 57, 45
4, 12672, Note_on_c, 3, 57, 0
4, 12672, Note_on_c, 3, 55, 45
4, 12766, Note_on_c, 3, 55, 0
4, 12768, Note_on_c, 3, 59, 50
4, 12862, Note_on_c, 3, 59, 0
4, 12864, Note_on_c, 3, 59, 56
4, 12958, Note_on_c, 3, 59, 0
4, 12960, Note_on_c, 3, 59, 62
4, 13054, Note_on_c, 3, 59, 0
4, 13056, Note_on_c, 3, 59, 68
4, 13150, Note_on_c, 3, 59, 0
4, 13152, Note_on_c, 3, 59, 74
4, 13246, Note_on_c, 3, 59, 0
4, 13248, Note_on_c, 3, 57, 80
4, 13342, Note_on_c, 3, 57, 0
4, 13344, Note_on_c, 3, 57, 86
4, 13438, Note_on_c, 3, 57, 0
4, 13440, Note_on_c, 3, 57, 92
4, 13600, Note_on_c, 3, 57, 0
4, 14304, Note_on_c, 3, 62, 108
4, 14398, Note_on_c, 3, 62, 0
4, 14400, Note_on_c, 3, 62, 108
4, 14494, Note_on_c, 3, 62, 0
4, 14496, Note_on_c, 3, 62, 108
4, 14590, Note_on_c, 3, 62, 0
4, 14592, Note_on_c, 3, 62, 108
4, 14686, Note_on_c, 3, 62, 0
4, 14688, Note_on_c, 3, 62, 108
4, 14782, Note_on_c, 3, 62, 0
4, 14784, Note_on_c, 3, 62, 108
4, 14878, Note_on_c, 3, 62, 0
4, 14880, Note_on_c, 3, 62, 108
4, 14974, Note_on_c, 3, 62, 0
4, 14976, Note_on_c, 3, 64, 108
4, 15070, Note_on_c, 3, 64, 0
4, 15072, Note_on_c, 3, 64, 108
4, 15166, Note_on_c, 3, 64, 0
4, 15168, Note_on_c, 3, 64, 108
4, 15262, Note_on_c, 3, 64, 0
4, 15264, Note_on_c, 3, 64, 108
4, 15358, Note_on_c, 3, 64, 0
4, 15360, Note_on_c, 3, 64, 108
4, 15454, Note_on_c, 3, 64, 0
4, 15456, Note_on_c, 3, 64, 108
4, 15550, Note_on_c, 3, 64, 0
4, 15552, Note_on_c, 3, 64, 108
4, 15646, Note_on_c, 3, 64, 0
4, 15648, Note_on_c, 3, 64, 108
4, 15742, Note_on_c, 3, 64, 0
4, 15744, Note_on_c, 3, 61, 108
4, 15838, Note_on_c, 3, 61, 0
4, 15840, Note_on_c, 3, 61, 108
4, 15934, Note_on_c, 3, 61, 0
4, 15936, Note_on_c, 3, 61, 108
4, 16030, Note_on_c, 3, 61, 0
4, 16032, Note_on_c, 3, 61, 108
4, 16126, Note_on_c, 3, 61, 0
4, 16128, Note_on_c, 3, 61, 108
4, 16222, Note_on_c, 3, 61, 0
4, 16224, Note_on_c, 3, 61, 108
4, 16318, Note_on_c, 3, 61, 0
4, 16320, Note_on_c, 3, 61, 108
4, 16414, Note_on_c, 3, 61, 0
4, 16416, Note_on_c, 3, 61, 108
4, 16510, Note_on_c, 3, 61, 0
4, 16512, Note_on_c, 3, 62, 108
4, 16606, Note_on_c, 3, 62, 0
4, 16608, Note_on_c, 3, 62, 108
4, 16702, Note_on_c, 3, 62, 0
4, 16704, Note_on_c, 3, 62, 108
4, 16798, Note_on_c, 3, 62, 0
4, 16800, Note_on_c, 3, 62, 108
4, 16894, Note_on_c, 3, 62, 0
4, 16896, Note_on_c, 3, 62, 108
4, 16990, Note_on_c, 3, 62, 0
4, 16992, Note_on_c, 3, 62, 108
4, 17086, Note_on_c, 3, 62, 0
4, 17088, Note_on_c, 3, 62, 108
4, 17182, Note_on_c, 3, 62, 0
4, 17184, Note_on_c, 3, 62, 108
4, 17278, Note_on_c, 3, 62, 0
4, 17280, Note_on_c, 3, 62, 108
4, 17374, Note_on_c, 3, 62, 0
4, 17376, Note_on_c, 3, 62, 108
4, 17470, Note_on_c, 3, 62, 0
4, 17472, Note_on_c, 3, 62, 108
4, 17566, Note_on_c, 3, 62, 0
4, 17568, Note_on_c, 3, 62, 108
4, 17662, Note_on_c, 3, 62, 0
4, 17664, Note_on_c, 3, 62, 108
4, 17758, Note_on_c, 3, 62, 0
4, 17760, Note_on_c, 3, 62, 108
4, 17854, Note_on_c, 3, 62, 0
4, 17856, Note_on_c, 3, 62, 108
4, 17950, Note_on_c, 3, 62, 0
4, 17952, Note_on_c, 3, 62, 108
4, 18046, Note_on_c, 3, 62, 0
4, 18048, Note_on_c, 3, 62, 108
4, 18142, Note_on_c, 3, 62, 0
4, 18144, Note_on_c, 3, 62, 108
4, 18238, Note_on_c, 3, 62, 0
4, 18240, Note_on_c, 3, 62, 108
4, 18334, Note_on_c, 3, 62, 0
4, 18336, Note_on_c, 3, 62, 108
4, 18430, Note_on_c, 3, 62, 0
4, 18432, Note_on_c, 3, 62, 108
4, 18528, Note_on_c, 3, 62, 0
4, 18528, Note_on_c, 3, 61, 108
4, 18622, Note_on_c, 3, 61, 0
4, 18624, Note_on_c, 3, 62, 108
4, 18656, Note_on_c, 3, 62, 0
4, 18720, Note_on_c, 3, 62, 108
4, 18752, Note_on_c, 3, 62, 0
4, 18816, Note_on_c, 3, 61, 108
4, 18864, Note_on_c, 3, 61, 0
4, 19104, Note_on_c, 3, 69, 108
4, 19136, Note_on_c, 3, 69, 0
4, 19200, Note_on_c, 3, 68, 108
4, 19248, Note_on_c, 3, 68, 0
4, 19488, Note_on_c, 3, 68, 108
4, 19520, Note_on_c, 3, 68, 0
4, 19584, Note_on_c, 3, 67, 108
4, 19632, Note_on_c, 3, 67, 0
4, 19872, Note_on_c, 3, 67, 108
4, 19904, Note_on_c, 3, 67, 0
4, 20256, Note_on_c, 3, 66, 108
4, 20288, Note_on_c, 3, 66, 0
4, 20352, Note_on_c, 3, 61, 108
4, 20400, Note_on_c, 3, 61, 0
4, 22656, Note_on_c, 3, 62, 45
4, 22688, Note_on_c, 3, 62, 0
4, 22752, Note_on_c, 3, 66, 45
4, 22784, Note_on_c, 3, 66, 0
4, 22848, Note_on_c, 3, 69, 45
4, 22880, Note_on_c, 3, 69, 0
4, 22944, Note_on_c, 3, 73, 45
4, 22976, Note_on_c, 3, 73, 0
4, 23040, Note_on_c, 3, 74, 45
4, 23072, Note_on_c, 3, 74, 0
4, 23136, Note_on_c, 3, 73, 45
4, 23168, Note_on_c, 3, 73, 0
4, 23232, Note_on_c, 3, 74, 45
4, 23264, Note_on_c, 3, 74, 0
4, 23328, Note_on_c, 3, 71, 45
4, 23360, Note_on_c, 3, 71, 0
4, 23424, Note_on_c, 3, 67, 45
4, 23456, Note_on_c, 3, 67, 0
4, 23520, Note_on_c, 3, 64, 45
4, 23552, Note_on_c, 3, 64, 0
4, 23616, Note_on_c, 3, 69, 45
4, 23648, Note_on_c, 3, 69, 0
4, 23712, Note_on_c, 3, 57, 45
4, 23744, Note_on_c, 3, 57, 0
4, 23808, Note_on_c, 3, 62, 45
4, 23856, Note_on_c, 3, 62, 0
4, 23856, Note_on_c, 3, 66, 45
4, 23904, Note_on_c, 3, 66, 0
4, 23904, Note_on_c, 3, 64, 45
4, 23952, Note_on_c, 3, 64, 0
4, 23952, Note_on_c, 3, 62, 45
4, 24000, Note_on_c, 3, 62, 0
4, 24000, Note_on_c, 3, 61, 45
4, 24048, Note_on_c, 3, 61, 0
4, 24048, Note_on_c, 3, 59, 45
4, 24096, Note_on_c, 3, 59, 0
4, 24096, Note_on_c, 3, 57, 45
4, 24144, Note_on_c, 3, 57, 0
4, 24144, Note_on_c, 3, 55, 45
4, 24190, Note_on_c, 3, 55, 0
4, 24192, Note_on_c, 3, 54, 45
4, 24286, Note_on_c, 3, 54, 0
4, 24288, Note_on_c, 3, 54, 45
4, 24448, Note_on_c, 3, 54, 0
4, 24480, Note_on_c, 3, 54, 45
4, 24670, Note_on_c, 3, 54, 0
4, 24672, Note_on_c, 3, 54, 45
4, 24766, Note_on_c, 3, 54, 0
4, 24768, Note_on_c, 3, 55, 45
4, 24816, Note_on_c, 3, 55, 0
4, 24816, Note_on_c, 3, 54, 45
4, 24864, Note_on_c, 3, 54, 0
4, 24864, Note_on_c, 3, 52, 45
4, 24912, Note_on_c, 3, 52, 0
4, 24912, Note_on_c, 3, 54, 45
4, 24958, Note_on_c, 3, 54, 0
4, 24960, Note_on_c, 3, 55, 45
4, 25120, Note_on_c, 3, 55, 0
4, 25824, Note_on_c, 3, 57, 45
4, 25984, Note_on_c, 3, 57, 0
4, 26016, Note_on_c, 3, 57, 45
4, 26206, Note_on_c, 3, 57, 0
4, 26208, Note_on_c, 3, 57, 45
4, 26240, Note_on_c, 3, 57, 0
4, 26304, Note_on_c, 3, 59, 45
4, 26352, Note_on_c, 3, 59, 0
4, 26352, Note_on_c, 3, 57, 45
4, 26400, Note_on_c, 3, 57, 0
4, 26400, Note_on_c, 3, 55, 45
4, 26448, Note_on_c, 3, 55, 0
4, 26448, Note_on_c, 3, 57, 45
4, 26494, Note_on_c, 3, 57, 0
4, 26496, Note_on_c, 3, 59, 45
4, 26656, Note_on_c, 3, 59, 0
4, 27456, Note_on_c, 3, 64, 63
4, 27616, Note_on_c, 3, 64, 0
4, 27840, Note_on_c, 3, 62, 63
4, 28000, Note_on_c, 3, 62, 0
4, 28224, Note_on_c, 3, 61, 63
4, 28384, Note_on_c, 3, 61, 0
4, 28608, Note_on_c, 3, 59, 63
4, 28768, Note_on_c, 3, 59, 0
4, 28800, Note_on_c, 3, 57, 45
4, 29136, Note_on_c, 3, 57, 0
4, 29184, Note_on_c, 3, 58, 45
4, 29376, Note_on_c, 3, 58, 0
4, 29376, Note_on_c, 3, 55, 45
4, 29568, Note_on_c, 3, 55, 0
4, 29568, Note_on_c, 3, 57, 45
4, 29904, Note_on_c, 3, 57, 0
4, 29952, Note_on_c, 3, 58, 45
4, 30144, Note_on_c, 3, 58, 0
4, 30144, Note_on_c, 3, 55, 45
4, 30336, Note_on_c, 3, 55, 0
4, 30336, Note_on_c, 3, 57, 45
4, 30672, Note_on_c, 3, 57, 0
4, 30720, Note_on_c, 3, 58, 45
4, 30912, Note_on_c, 3, 58, 0
4, 30912, Note_on_c, 3, 55, 45
4, 31104, Note_on_c, 3, 55, 0
4, 31104, Note_on_c, 3, 57, 45
4, 31440, Note_on_c, 3, 57, 0
4, 31488, Note_on_c, 3, 58, 45
4, 31680, Note_on_c, 3, 58, 0
4, 31680, Note_on_c, 3, 55, 45
4, 31840, Note_on_c, 3, 55, 0
4, 31872, Note_on_c, 3, 56, 45
4, 32352, Note_on_c, 3, 55, 0
4, 32352, Note_on_c, 3, 59, 74
4, 32448, Note_on_c, 3, 59, 0
4, 32448, Note_on_c, 3, 62, 80
4, 32544, Note_on_c, 3, 62, 0
4, 32544, Note_on_c, 3, 65, 86
4, 32638, Note_on_c, 3, 65, 0
4, 32640, Note_on_c, 3, 66, 92
4, 32734, Note_on_c, 3, 66, 0
4, 32736, Note_on_c, 3, 54, 92
4, 32768, Note_on_c, 3, 54, 0
4, 32832, Note_on_c, 3, 54, 92
4, 32864, Note_on_c, 3, 54, 0
4, 32928, Note_on_c, 3, 54, 92
4, 32960, Note_on_c, 3, 54, 0
4, 33024, Note_on_c, 3, 55, 92
4, 33118, Note_on_c, 3, 55, 0
4, 33120, Note_on_c, 3, 55, 92
4, 33214, Note_on_c, 3, 55, 0
4, 33216, Note_on_c, 3, 55, 92
4, 33310, Note_on_c, 3, 55, 0
4, 33312, Note_on_c, 3, 55, 92
4, 33406, Note_on_c, 3, 55, 0
4, 33984, Note_on_c, 3, 64, 45
4, 34144, Note_on_c, 3, 64, 0
4, 34752, Note_on_c, 3, 64, 45
4, 34912, Note_on_c, 3, 64, 0
4, 35328, Note_on_c, 3, 67, 45
4, 35520, Note_on_c, 3, 67, 0
4, 35520, Note_on_c, 3, 64, 45
4, 35680, Note_on_c, 3, 64, 0
4, 36096, Note_on_c, 3, 55, 30
4, 36256, Note_on_c, 3, 55, 0
4, 36288, Note_on_c, 3, 58, 30
4, 36384, Note_on_c, 3, 58, 0
4, 36384, Note_on_c, 3, 55, 30
4, 36480, Note_on_c, 3, 55, 0
4, 36480, Note_on_c, 3, 52, 30
4, 36864, Note_on_c, 3, 52, 0
4, 36864, Note_on_c, 3, 53, 30
4, 37248, Note_on_c, 3, 53, 0
4, 37248, Note_on_c, 3, 55, 30
4, 37632, Note_on_c, 3, 55, 0
4, 37632, Note_on_c, 3, 53, 30
4, 37968, Note_on_c, 3, 53, 0
4, 38016, Note_on_c, 3, 52, 30
4, 38400, Note_on_c, 3, 52, 0
4, 38400, Note_on_c, 3, 53, 30
4, 38784, Note_on_c, 3, 53, 0
4, 38784, Note_on_c, 3, 55, 30
4, 39168, Note_on_c, 3, 55, 0
4, 39168, Note_on_c, 3, 53, 45
4, 39504, Note_on_c, 3, 53, 0
4, 39552, Note_on_c, 3, 60, 30
4, 39646, Note_on_c, 3, 60, 0
4, 39648, Note_on_c, 3, 57, 33
4, 39742, Note_on_c, 3, 57, 0
4, 39744, Note_on_c, 3, 57, 36
4, 39838, Note_on_c, 3, 57, 0
4, 39840, Note_on_c, 3, 57, 40
4, 39934, Note_on_c, 3, 57, 0
4, 39936, Note_on_c, 3, 57, 44
4, 40030, Note_on_c, 3, 57, 0
4, 40032, Note_on_c, 3, 57, 48
4, 40126, Note_on_c, 3, 57, 0
4, 40128, Note_on_c, 3, 57, 52
4, 40222, Note_on_c, 3, 57, 0
4, 40224, Note_on_c, 3, 57, 56
4, 40318, Note_on_c, 3, 57, 0
4, 40320, Note_on_c, 3, 57, 60
4, 40414, Note_on_c, 3, 57, 0
4, 40416, Note_on_c, 3, 57, 64
4, 40510, Note_on_c, 3, 57, 0
4, 40512, Note_on_c, 3, 57, 68
4, 40606, Note_on_c, 3, 57, 0
4, 40608, Note_on_c, 3, 57, 72
4, 40702, Note_on_c, 3, 57, 0
4, 40704, Note_on_c, 3, 56, 76
4, 40798, Note_on_c, 3, 56, 0
4, 40800, Note_on_c, 3, 56, 80
4, 40894, Note_on_c, 3, 56, 0
4, 40896, Note_on_c, 3, 56, 84
4, 40990, Note_on_c, 3, 56, 0
4, 40992, Note_on_c, 3, 56, 88
4, 41086, Note_on_c, 3, 56, 0
4, 41088, Note_on_c, 3, 55, 92
4, 41182, Note_on_c, 3, 55, 0
4, 41184, Note_on_c, 3, 64, 92
4, 41278, Note_on_c, 3, 64, 0
4, 41280, Note_on_c, 3, 64, 92
4, 41374, Note_on_c, 3, 64, 0
4, 41376, Note_on_c, 3, 64, 92
4, 41470, Note_on_c, 3, 64, 0
4, 41472, Note_on_c, 3, 64, 92
4, 41566, Note_on_c, 3, 64, 0
4, 41568, Note_on_c, 3, 64, 92
4, 41662, Note_on_c, 3, 64, 0
4, 41664, Note_on_c, 3, 64, 92
4, 41758, Note_on_c, 3, 64, 0
4, 41760, Note_on_c, 3, 64, 92
4, 41854, Note_on_c, 3, 64, 0
4, 41856, Note_on_c, 3, 62, 108
4, 41950, Note_on_c, 3, 62, 0
4, 41952, Note_on_c, 3, 62, 108
4, 42046, Note_on_c, 3, 62, 0
4, 42048, Note_on_c, 3, 62, 108
4, 42142, Note_on_c, 3, 62, 0
4, 42144, Note_on_c, 3, 62, 108
4, 42238, Note_on_c, 3, 62, 0
4, 42240, Note_on_c, 3, 62, 108
4, 42334, Note_on_c, 3, 62, 0
4, 42336, Note_on_c, 3, 62, 108
4, 42430, Note_on_c, 3, 62, 0
4, 42432, Note_on_c, 3, 61, 108
4, 42526, Note_on_c, 3, 61, 0
4, 42528, Note_on_c, 3, 61, 108
4, 42622, Note_on_c, 3, 61, 0
4, 42624, Note_on_c, 3, 62, 108
4, 42672, Note_on_c, 3, 62, 0
4, 42816, Note_on_c, 3, 62, 108
4, 42864, Note_on_c, 3, 62, 0
4, 43008, Note_on_c, 3, 66, 127
4, 43296, Note_on_c, 3, 66, 0
4, 43296, Note_on_c, 3, 64, 108
4, 43344, Note_on_c, 3, 64, 0
4, 43344, Note_on_c, 3, 62, 127
4, 43390, Note_on_c, 3, 62, 0
4, 43392, Note_on_c, 3, 61, 108
4, 43486, Note_on_c, 3, 61, 0
4, 43488, Note_on_c, 3, 67, 108
4, 43582, Note_on_c, 3, 67, 0
4, 43584, Note_on_c, 3, 67, 108
4, 43678, Note_on_c, 3, 67, 0
4, 43680, Note_on_c, 3, 67, 108
4, 43774, Note_on_c, 3, 67, 0
4, 43776, Note_on_c, 3, 67, 108
4, 43870, Note_on_c, 3, 67, 0
4, 43872, Note_on_c, 3, 67, 108
4, 43966, Note_on_c, 3, 67, 0
4, 43968, Note_on_c, 3, 67, 108
4, 44062, Note_on_c, 3, 67, 0
4, 44064, Note_on_c, 3, 67, 108
4, 44158, Note_on_c, 3, 67, 0
4, 44160, Note_on_c, 3, 66, 108
4, 44254, Note_on_c, 3, 66, 0
4, 44256, Note_on_c, 3, 57, 108
4, 44350, Note_on_c, 3, 57, 0
4, 44352, Note_on_c, 3, 62, 108
4, 44446, Note_on_c, 3, 62, 0
4, 44448, Note_on_c, 3, 62, 108
4, 44542, Note_on_c, 3, 62, 0
4, 44544, Note_on_c, 3, 66, 127
4, 44832, Note_on_c, 3, 66, 0
4, 44832, Note_on_c, 3, 64, 108
4, 44880, Note_on_c, 3, 64, 0
4, 44880, Note_on_c, 3, 62, 108
4, 44926, Note_on_c, 3, 62, 0
4, 44928, Note_on_c, 3, 61, 108
4, 44976, Note_on_c, 3, 61, 0
4, 44976, Note_on_c, 3, 62, 108
4, 45024, Note_on_c, 3, 62, 0
4, 45024, Note_on_c, 3, 64, 108
4, 45072, Note_on_c, 3, 64, 0
4, 45072, Note_on_c, 3, 66, 108
4, 45120, Note_on_c, 3, 66, 0
4, 45120, Note_on_c, 3, 67, 108
4, 45168, Note_on_c, 3, 67, 0
4, 45168, Note_on_c, 3, 66, 108
4, 45216, Note_on_c, 3, 66, 0
4, 45216, Note_on_c, 3, 64, 108
4, 45264, Note_on_c, 3, 64, 0
4, 45264, Note_on_c, 3, 62, 108
4, 45312, Note_on_c, 3, 62, 0
4, 45312, Note_on_c, 3, 61, 108
4, 45360, Note_on_c, 3, 61, 0
4, 45360, Note_on_c, 3, 62, 108
4, 45408, Note_on_c, 3, 62, 0
4, 45408, Note_on_c, 3, 64, 108
4, 45456, Note_on_c, 3, 64, 0
4, 45456, Note_on_c, 3, 62, 108
4, 45504, Note_on_c, 3, 62, 0
4, 45504, Note_on_c, 3, 61, 108
4, 45552, Note_on_c, 3, 61, 0
4, 45552, Note_on_c, 3, 57, 108
4, 45600, Note_on_c, 3, 57, 0
4, 45600, Note_on_c, 3, 59, 108
4, 45648, Note_on_c, 3, 59, 0
4, 45648, Note_on_c, 3, 61, 108
4, 45694, Note_on_c, 3, 61, 0
4, 45696, Note_on_c, 3, 62, 108
4, 45790, Note_on_c, 3, 62, 0
4, 45792, Note_on_c, 3, 67, 108
4, 45952, Note_on_c, 3, 67, 0
4, 45984, Note_on_c, 3, 67, 108
4, 46078, Note_on_c, 3, 67, 0
4, 46080, Note_on_c, 3, 66, 108
4, 46174, Note_on_c, 3, 66, 0
4, 46176, Note_on_c, 3, 55, 108
4, 46336, Note_on_c, 3, 55, 0
4, 46368, Note_on_c, 3, 55, 108
4, 46462, Note_on_c, 3, 55, 0
4, 46464, Note_on_c, 3, 54, 108
4, 46624, Note_on_c, 3, 54, 0
4, 46848, Note_on_c, 3, 69, 108
4, 46896, Note_on_c, 3, 69, 0
4, 47040, Note_on_c, 3, 66, 108
4, 47088, Note_on_c, 3, 66, 0
4, 47232, Note_on_c, 3, 62, 127
4, 47568, Note_on_c, 3, 62, 0
4, 47616, Note_on_c, 3, 66, 108
4, 47664, Note_on_c, 3, 66, 0
4, 47808, Note_on_c, 3, 62, 108
4, 47856, Note_on_c, 3, 62, 0
4, 48000, Note_on_c, 3, 57, 127
4, 48336, Note_on_c, 3, 57, 0
4, 48384, Note_on_c, 3, 62, 108
4, 48432, Note_on_c, 3, 62, 0
4, 48576, Note_on_c, 3, 57, 108
4, 48624, Note_on_c, 3, 57, 0
4, 48768, Note_on_c, 3, 54, 108
4, 48928, Note_on_c, 3, 54, 0
4, 48960, Note_on_c, 3, 54, 127
4, 49312, Note_on_c, 3, 54, 0
4, 49344, Note_on_c, 3, 54, 127
4, 49696, Note_on_c, 3, 54, 0
4, 49728, Note_on_c, 3, 54, 127
4, 50080, Note_on_c, 3, 54, 0
4, 50112, Note_on_c, 3, 54, 127
4, 50464, Note_on_c, 3, 54, 0
4, 50496, Note_on_c, 3, 54, 127
4, 50848, Note_on_c, 3, 54, 0
4, 50880, Note_on_c, 3, 54, 127
4, 51232, Note_on_c, 3, 54, 0
4, 51264, Note_on_c, 3, 54, 127
4, 52000, Note_on_c, 3, 54, 0
4, 52032, Note_on_c, 3, 54, 45
4, 52768, Note_on_c, 3, 54, 0
4, 52800, Note_on_c, 3, 54, 30
4, 54480, Note_on_c, 3, 54, 0
4, 54720, Note_on_c, 3, 55, 45
4, 54768, Note_on_c, 3, 55, 0
4, 54912, Note_on_c, 3, 55, 45
4, 55168, Note_on_c, 3, 55, 0
4, 55200, Note_on_c, 3, 55, 45
4, 55294, Note_on_c, 3, 55, 0
4, 55296, Note_on_c, 3, 56, 45
4, 55328, Note_on_c, 3, 56, 0
4, 55392, Note_on_c, 3, 55, 45
4, 55424, Note_on_c, 3, 55, 0
4, 55488, Note_on_c, 3, 53, 45
4, 55520, Note_on_c, 3, 53, 0
4, 55584, Note_on_c, 3, 51, 45
4, 55616, Note_on_c, 3, 51, 0
4, 55680, Note_on_c, 3, 50, 45
4, 55774, Note_on_c, 3, 50, 0
4, 56064, Note_on_c, 3, 65, 45
4, 56112, Note_on_c, 3, 65, 0
4, 56256, Note_on_c, 3, 62, 45
4, 56304, Note_on_c, 3, 62, 0
4, 56448, Note_on_c, 3, 65, 45
4, 56736, Note_on_c, 3, 65, 0
4, 56736, Note_on_c, 3, 63, 45
4, 56784, Note_on_c, 3, 63, 0
4, 56784, Note_on_c, 3, 62, 45
4, 56830, Note_on_c, 3, 62, 0
4, 56832, Note_on_c, 3, 67, 45
4, 56864, Note_on_c, 3, 67, 0
4, 56928, Note_on_c, 3, 63, 45
4, 56960, Note_on_c, 3, 63, 0
4, 57024, Note_on_c, 3, 65, 45
4, 57056, Note_on_c, 3, 65, 0
4, 57120, Note_on_c, 3, 62, 45
4, 57152, Note_on_c, 3, 62, 0
4, 57216, Note_on_c, 3, 63, 45
4, 57376, Note_on_c, 3, 63, 0
4, 57504, Note_on_c, 3, 63, 45
4, 57600, Note_on_c, 3, 63, 0
4, 57600, Note_on_c, 3, 62, 45
4, 57760, Note_on_c, 3, 62, 0
4, 57888, Note_on_c, 3, 62, 45
4, 57984, Note_on_c, 3, 62, 0
4, 57984, Note_on_c, 3, 63, 45
4, 58016, Note_on_c, 3, 63, 0
4, 58080, Note_on_c, 3, 64, 45
4, 58112, Note_on_c, 3, 64, 0
4, 58176, Note_on_c, 3, 65, 45
4, 58208, Note_on_c, 3, 65, 0
4, 58272, Note_on_c, 3, 62, 45
4, 58304, Note_on_c, 3, 62, 0
4, 58368, Note_on_c, 3, 63, 45
4, 58400, Note_on_c, 3, 63, 0
4, 58464, Note_on_c, 3, 60, 45
4, 58496, Note_on_c, 3, 60, 0
4, 58560, Note_on_c, 3, 56, 45
4, 58592, Note_on_c, 3, 56, 0
4, 58656, Note_on_c, 3, 58, 45
4, 58688, Note_on_c, 3, 58, 0
4, 58752, Note_on_c, 3, 51, 45
4, 58912, Note_on_c, 3, 51, 0
4, 59040, Note_on_c, 3, 51, 60
4, 59136, Note_on_c, 3, 51, 0
4, 59136, Note_on_c, 3, 53, 45
4, 59296, Note_on_c, 3, 53, 0
4, 59424, Note_on_c, 3, 53, 45
4, 59520, Note_on_c, 3, 53, 0
4, 59520, Note_on_c, 3, 51, 60
4, 59680, Note_on_c, 3, 51, 0
4, 59808, Note_on_c, 3, 55, 45
4, 59904, Note_on_c, 3, 55, 0
4, 59904, Note_on_c, 3, 53, 45
4, 60064, Note_on_c, 3, 53, 0
4, 60192, Note_on_c, 3, 53, 45
4, 60288, Note_on_c, 3, 53, 0
4, 60288, Note_on_c, 3, 55, 45
4, 60448, Note_on_c, 3, 55, 0
4, 60576, Note_on_c, 3, 53, 45
4, 60608, Note_on_c, 3, 53, 0
4, 60672, Note_on_c, 3, 55, 46
4, 60720, Note_on_c, 3, 55, 0
4, 60960, Note_on_c, 3, 55, 50
4, 60992, Note_on_c, 3, 55, 0
4, 61056, Note_on_c, 3, 56, 51
4, 61104, Note_on_c, 3, 56, 0
4, 61440, Note_on_c, 3, 65, 57
4, 61600, Note_on_c, 3, 65, 0
4, 61728, Note_on_c, 3, 60, 61
4, 61822, Note_on_c, 3, 60, 0
4, 61824, Note_on_c, 3, 62, 62
4, 61984, Note_on_c, 3, 62, 0
4, 62112, Note_on_c, 3, 62, 66
4, 62206, Note_on_c, 3, 62, 0
4, 62208, Note_on_c, 3, 63, 68
4, 62368, Note_on_c, 3, 63, 0
4, 62496, Note_on_c, 3, 65, 74
4, 62590, Note_on_c, 3, 65, 0
4, 62592, Note_on_c, 3, 63, 76
4, 62752, Note_on_c, 3, 63, 0
4, 62880, Note_on_c, 3, 60, 82
4, 62974, Note_on_c, 3, 60, 0
4, 62976, Note_on_c, 3, 60, 84
4, 63136, Note_on_c, 3, 60, 0
4, 63264, Note_on_c, 3, 60, 90
4, 63358, Note_on_c, 3, 60, 0
4, 63360, Note_on_c, 3, 59, 92
4, 63408, Note_on_c, 3, 59, 0
4, 63552, Note_on_c, 3, 59, 92
4, 63600, Note_on_c, 3, 59, 0
4, 63936, Note_on_c, 3, 60, 92
4, 64096, Note_on_c, 3, 60, 0
4, 64320, Note_on_c, 3, 59, 92
4, 64480, Note_on_c, 3, 59, 0
4, 64704, Note_on_c, 3, 60, 92
4, 64864, Note_on_c, 3, 60, 0
4, 65088, Note_on_c, 3, 59, 92
4, 65248, Note_on_c, 3, 59, 0
4, 65472, Note_on_c, 3, 60, 92
4, 65632, Note_on_c, 3, 60, 0
4, 65856, Note_on_c, 3, 59, 92
4, 66016, Note_on_c, 3, 59, 0
4, 66240, Note_on_c, 3, 60, 92
4, 66400, Note_on_c, 3, 60, 0
4, 66432, Note_on_c, 3, 59, 92
4, 66592, Note_on_c, 3, 59, 0
4, 66624, Note_on_c, 3, 55, 45
4, 66784, Note_on_c, 3, 55, 0
4, 67392, Note_on_c, 3, 59, 45
4, 67552, Note_on_c, 3, 59, 0
4, 68160, Note_on_c, 3, 62, 66
4, 68320, Note_on_c, 3, 62, 0
4, 69504, Note_on_c, 3, 52, 127
4, 69504, Note_on_c, 3, 55, 127
4, 69598, Note_on_c, 3, 52, 0
4, 69598, Note_on_c, 3, 55, 0
4, 69600, Note_on_c, 3, 52, 45
4, 69600, Note_on_c, 3, 55, 45
4, 69694, Note_on_c, 3, 52, 0
4, 69694, Note_on_c, 3, 55, 0
4, 69696, Note_on_c, 3, 52, 45
4, 69696, Note_on_c, 3, 55, 45
4, 69790, Note_on_c, 3, 52, 0
4, 69790, Note_on_c, 3, 55, 0
4, 69792, Note_on_c, 3, 52, 45
4, 69792, Note_on_c, 3, 55, 45
4, 69886, Note_on_c, 3, 52, 0
4, 69886, Note_on_c, 3, 55, 0
4, 69888, Note_on_c, 3, 52, 45
4, 69888, Note_on_c, 3, 55, 45
4, 69982, Note_on_c, 3, 52, 0
4, 69982, Note_on_c, 3, 55, 0
4, 69984, Note_on_c, 3, 52, 45
4, 69984, Note_on_c, 3, 55, 45
4, 70078, Note_on_c, 3, 52, 0
4, 70078, Note_on_c, 3, 55, 0
4, 70080, Note_on_c, 3, 52, 45
4, 70080, Note_on_c, 3, 55, 45
4, 70174, Note_on_c, 3, 52, 0
4, 70174, Note_on_c, 3, 55, 0
4, 70176, Note_on_c, 3, 52, 45
4, 70176, Note_on_c, 3, 55, 45
4, 70270, Note_on_c, 3, 52, 0
4, 70270, Note_on_c, 3, 55, 0
4, 70272, Note_on_c, 3, 53, 45
4, 70272, Note_on_c, 3, 55, 45
4, 70366, Note_on_c, 3, 53, 0
4, 70366, Note_on_c, 3, 55, 0
4, 70368, Note_on_c, 3, 53, 45
4, 70368, Note_on_c, 3, 55, 45
4, 70462, Note_on_c, 3, 53, 0
4, 70462, Note_on_c, 3, 55, 0
4, 70464, Note_on_c, 3, 53, 45
4, 70464, Note_on_c, 3, 55, 45
4, 70558, Note_on_c, 3, 53, 0
4, 70558, Note_on_c, 3, 55, 0
4, 70560, Note_on_c, 3, 53, 45
4, 70560, Note_on_c, 3, 55, 45
4, 70654, Note_on_c, 3, 53, 0
4, 70654, Note_on_c, 3, 55, 0
4, 70656, Note_on_c, 3, 53, 45
4, 70656, Note_on_c, 3, 55, 45
4, 70750, Note_on_c, 3, 53, 0
4, 70750, Note_on_c, 3, 55, 0
4, 70752, Note_on_c, 3, 53, 45
4, 70752, Note_on_c, 3, 55, 45
4, 70846, Note_on_c, 3, 53, 0
4, 70846, Note_on_c, 3, 55, 0
4, 70848, Note_on_c, 3, 53, 45
4, 70848, Note_on_c, 3, 55, 45
4, 70942, Note_on_c, 3, 53, 0
4, 70942, Note_on_c, 3, 55, 0
4, 70944, Note_on_c, 3, 53, 45
4, 70944, Note_on_c, 3, 55, 45
4, 71038, Note_on_c, 3, 53, 0
4, 71038, Note_on_c, 3, 55, 0
4, 71040, Note_on_c, 3, 53, 45
4, 71134, Note_on_c, 3, 53, 0
4, 71136, Note_on_c, 3, 53, 45
4, 71136, Note_on_c, 3, 55, 45
4, 71230, Note_on_c, 3, 53, 0
4, 71230, Note_on_c, 3, 55, 0
4, 71232, Note_on_c, 3, 53, 45
4, 71232, Note_on_c, 3, 55, 45
4, 71326, Note_on_c, 3, 53, 0
4, 71326, Note_on_c, 3, 55, 0
4, 71328, Note_on_c, 3, 53, 45
4, 71328, Note_on_c, 3, 55, 45
4, 71422, Note_on_c, 3, 53, 0
4, 71422, Note_on_c, 3, 55, 0
4, 71424, Note_on_c, 3, 53, 45
4, 71424, Note_on_c, 3, 55, 45
4, 71518, Note_on_c, 3, 53, 0
4, 71518, Note_on_c, 3, 55, 0
4, 71520, Note_on_c, 3, 53, 45
4, 71520, Note_on_c, 3, 55, 45
4, 71614, Note_on_c, 3, 53, 0
4, 71614, Note_on_c, 3, 55, 0
4, 71616, Note_on_c, 3, 53, 45
4, 71616, Note_on_c, 3, 55, 45
4, 71710, Note_on_c, 3, 53, 0
4, 71710, Note_on_c, 3, 55, 0
4, 71712, Note_on_c, 3, 53, 45
4, 71712, Note_on_c, 3, 55, 45
4, 71806, Note_on_c, 3, 53, 0
4, 71806, Note_on_c, 3, 55, 0
4, 71808, Note_on_c, 3, 52, 45
4, 71808, Note_on_c, 3, 55, 45
4, 71902, Note_on_c, 3, 52, 0
4, 71902, Note_on_c, 3, 55, 0
4, 71904, Note_on_c, 3, 52, 45
4, 71904, Note_on_c, 3, 55, 45
4, 71998, Note_on_c, 3, 52, 0
4, 71998, Note_on_c, 3, 55, 0
4, 72000, Note_on_c, 3, 52, 45
4, 72000, Note_on_c, 3, 55, 45
4, 72094, Note_on_c, 3, 52, 0
4, 72094, Note_on_c, 3, 55, 0
4, 72096, Note_on_c, 3, 52, 45
4, 72096, Note_on_c, 3, 55, 45
4, 72190, Note_on_c, 3, 52, 0
4, 72190, Note_on_c, 3, 55, 0
4, 72192, Note_on_c, 3, 52, 45
4, 72192, Note_on_c, 3, 55, 45
4, 72286, Note_on_c, 3, 52, 0
4, 72286, Note_on_c, 3, 55, 0
4, 72288, Note_on_c, 3, 52, 45
4, 72288, Note_on_c, 3, 55, 45
4, 72382, Note_on_c, 3, 52, 0
4, 72382, Note_on_c, 3, 55, 0
4, 72384, Note_on_c, 3, 52, 45
4, 72384, Note_on_c, 3, 55, 45
4, 72478, Note_on_c, 3, 52, 0
4, 72478, Note_on_c, 3, 55, 0
4, 72480, Note_on_c, 3, 52, 45
4, 72480, Note_on_c, 3, 55, 45
4, 72574, Note_on_c, 3, 52, 0
4, 72574, Note_on_c, 3, 55, 0
4, 72576, Note_on_c, 3, 52, 45
4, 72576, Note_on_c, 3, 55, 45
4, 72670, Note_on_c, 3, 52, 0
4, 72670, Note_on_c, 3, 55, 0
4, 72672, Note_on_c, 3, 55, 45
4, 72672, Note_on_c, 3, 67, 45
4, 72766, Note_on_c, 3, 55, 0
4, 72766, Note_on_c, 3, 67, 0
4, 72768, Note_on_c, 3, 55, 45
4, 72862, Note_on_c, 3, 55, 0
4, 72864, Note_on_c, 3, 55, 45
4, 72864, Note_on_c, 3, 67, 45
4, 72958, Note_on_c, 3, 55, 0
4, 72958, Note_on_c, 3, 67, 0
4, 72960, Note_on_c, 3, 55, 45
4, 72960, Note_on_c, 3, 67, 45
4, 73054, Note_on_c, 3, 55, 0
4, 73054, Note_on_c, 3, 67, 0
4, 73056, Note_on_c, 3, 55, 45
4, 73056, Note_on_c, 3, 67, 45
4, 73150, Note_on_c, 3, 55, 0
4, 73150, Note_on_c, 3, 67, 0
4, 73152, Note_on_c, 3, 55, 45
4, 73152, Note_on_c, 3, 67, 45
4, 73246, Note_on_c, 3, 55, 0
4, 73246, Note_on_c, 3, 67, 0
4, 73248, Note_on_c, 3, 55, 45
4, 73248, Note_on_c, 3, 67, 45
4, 73342, Note_on_c, 3, 55, 0
4, 73342, Note_on_c, 3, 67, 0
4, 73344, Note_on_c, 3, 55, 45
4, 73344, Note_on_c, 3, 67, 45
4, 73438, Note_on_c, 3, 55, 0
4, 73438, Note_on_c, 3, 67, 0
4, 73440, Note_on_c, 3, 55, 45
4, 73440, Note_on_c, 3, 67, 45
4, 73534, Note_on_c, 3, 55, 0
4, 73534, Note_on_c, 3, 67, 0
4, 73536, Note_on_c, 3, 55, 45
4, 73536, Note_on_c, 3, 67, 45
4, 73630, Note_on_c, 3, 55, 0
4, 73630, Note_on_c, 3, 67, 0
4, 73632, Note_on_c, 3, 55, 45
4, 73632, Note_on_c, 3, 67, 45
4, 73726, Note_on_c, 3, 55, 0
4, 73726, Note_on_c, 3, 67, 0
4, 73728, Note_on_c, 3, 55, 45
4, 73728, Note_on_c, 3, 67, 45
4, 73822, Note_on_c, 3, 55, 0
4, 73822, Note_on_c, 3, 67, 0
4, 73824, Note_on_c, 3, 55, 45
4, 73824, Note_on_c, 3, 67, 45
4, 73918, Note_on_c, 3, 55, 0
4, 73918, Note_on_c, 3, 67, 0
4, 73920, Note_on_c, 3, 55, 45
4, 73920, Note_on_c, 3, 67, 45
4, 74014, Note_on_c, 3, 55, 0
4, 74014, Note_on_c, 3, 67, 0
4, 74016, Note_on_c, 3, 55, 45
4, 74016, Note_on_c, 3, 67, 45
4, 74110, Note_on_c, 3, 55, 0
4, 74110, Note_on_c, 3, 67, 0
4, 74112, Note_on_c, 3, 55, 45
4, 74112, Note_on_c, 3, 67, 45
4, 74206, Note_on_c, 3, 55, 0
4, 74206, Note_on_c, 3, 67, 0
4, 74208, Note_on_c, 3, 55, 45
4, 74208, Note_on_c, 3, 67, 45
4, 74302, Note_on_c, 3, 55, 0
4, 74302, Note_on_c, 3, 67, 0
4, 74304, Note_on_c, 3, 55, 45
4, 74398, Note_on_c, 3, 55, 0
4, 74400, Note_on_c, 3, 55, 45
4, 74400, Note_on_c, 3, 67, 45
4, 74494, Note_on_c, 3, 55, 0
4, 74494, Note_on_c, 3, 67, 0
4, 74496, Note_on_c, 3, 55, 45
4, 74496, Note_on_c, 3, 67, 45
4, 74590, Note_on_c, 3, 55, 0
4, 74590, Note_on_c, 3, 67, 0
4, 74592, Note_on_c, 3, 55, 45
4, 74592, Note_on_c, 3, 67, 45
4, 74686, Note_on_c, 3, 55, 0
4, 74686, Note_on_c, 3, 67, 0
4, 74688, Note_on_c, 3, 55, 45
4, 74688, Note_on_c, 3, 67, 45
4, 74782, Note_on_c, 3, 55, 0
4, 74782, Note_on_c, 3, 67, 0
4, 74784, Note_on_c, 3, 55, 45
4, 74784, Note_on_c, 3, 67, 45
4, 74878, Note_on_c, 3, 55, 0
4, 74878, Note_on_c, 3, 67, 0
4, 74880, Note_on_c, 3, 55, 45
4, 74880, Note_on_c, 3, 67, 45
4, 74974, Note_on_c, 3, 55, 0
4, 74974, Note_on_c, 3, 67, 0
4, 74976, Note_on_c, 3, 55, 45
4, 74976, Note_on_c, 3, 67, 45
4, 75070, Note_on_c, 3, 55, 0
4, 75070, Note_on_c, 3, 67, 0
4, 75072, Note_on_c, 3, 55, 45
4, 75072, Note_on_c, 3, 67, 45
4, 75166, Note_on_c, 3, 55, 0
4, 75166, Note_on_c, 3, 67, 0
4, 75168, Note_on_c, 3, 55, 45
4, 75168, Note_on_c, 3, 67, 45
4, 75262, Note_on_c, 3, 55, 0
4, 75262, Note_on_c, 3, 67, 0
4, 75264, Note_on_c, 3, 67, 45
4, 75358, Note_on_c, 3, 67, 0
4, 75360, Note_on_c, 3, 55, 45
4, 75360, Note_on_c, 3, 67, 45
4, 75454, Note_on_c, 3, 55, 0
4, 75454, Note_on_c, 3, 67, 0
4, 75456, Note_on_c, 3, 60, 45
4, 75488, Note_on_c, 3, 60, 0
4, 75552, Note_on_c, 3, 62, 45
4, 75584, Note_on_c, 3, 62, 0
4, 75648, Note_on_c, 3, 64, 45
4, 75680, Note_on_c, 3, 64, 0
4, 75744, Note_on_c, 3, 65, 45
4, 75776, Note_on_c, 3, 65, 0
4, 75840, Note_on_c, 3, 67, 45
4, 75872, Note_on_c, 3, 67, 0
4, 76224, Note_on_c, 3, 57, 45
4, 76256, Note_on_c, 3, 57, 0
4, 76320, Note_on_c, 3, 59, 45
4, 76352, Note_on_c, 3, 59, 0
4, 76416, Note_on_c, 3, 60, 45
4, 76448, Note_on_c, 3, 60, 0
4, 76512, Note_on_c, 3, 62, 45
4, 76544, Note_on_c, 3, 62, 0
4, 76608, Note_on_c, 3, 64, 45
4, 76640, Note_on_c, 3, 64, 0
4, 76992, Note_on_c, 3, 54, 45
4, 77024, Note_on_c, 3, 54, 0
4, 77088, Note_on_c, 3, 55, 45
4, 77120, Note_on_c, 3, 55, 0
4, 77184, Note_on_c, 3, 57, 45
4, 77216, Note_on_c, 3, 57, 0
4, 77280, Note_on_c, 3, 59, 45
4, 77312, Note_on_c, 3, 59, 0
4, 77376, Note_on_c, 3, 60, 45
4, 77408, Note_on_c, 3, 60, 0
4, 77760, Note_on_c, 3, 50, 45
4, 77792, Note_on_c, 3, 50, 0
4, 77856, Note_on_c, 3, 52, 45
4, 77888, Note_on_c, 3, 52, 0
4, 77952, Note_on_c, 3, 54, 45
4, 77984, Note_on_c, 3, 54, 0
4, 78048, Note_on_c, 3, 55, 45
4, 78080, Note_on_c, 3, 55, 0
4, 78144, Note_on_c, 3, 57, 45
4, 78176, Note_on_c, 3, 57, 0
4, 78528, Note_on_c, 3, 50, 108
4, 78560, Note_on_c, 3, 50, 0
4, 78624, Note_on_c, 3, 52, 108
4, 78656, Note_on_c, 3, 52, 0
4, 78720, Note_on_c, 3, 54, 108
4, 78752, Note_on_c, 3, 54, 0
4, 78816, Note_on_c, 3, 55, 108
4, 78848, Note_on_c, 3, 55, 0
4, 78912, Note_on_c, 3, 57, 108
4, 78944, Note_on_c, 3, 57, 0
4, 79008, Note_on_c, 3, 59, 108
4, 79040, Note_on_c, 3, 59, 0
4, 79104, Note_on_c, 3, 50, 108
4, 79104, Note_on_c, 3, 60, 108
4, 80032, Note_on_c, 3, 50, 0
4, 80032, Note_on_c, 3, 60, 0
4, 80064, Note_on_c, 3, 50, 127
4, 80096, Note_on_c, 3, 50, 0
4, 80160, Note_on_c, 3, 52, 108
4, 80192, Note_on_c, 3, 52, 0
4, 80256, Note_on_c, 3, 54, 108
4, 80288, Note_on_c, 3, 54, 0
4, 80352, Note_on_c, 3, 55, 108
4, 80384, Note_on_c, 3, 55, 0
4, 80448, Note_on_c, 3, 57, 108
4, 80480, Note_on_c, 3, 57, 0
4, 80544, Note_on_c, 3, 59, 108
4, 80576, Note_on_c, 3, 59, 0
4, 80640, Note_on_c, 3, 50, 108
4, 80640, Note_on_c, 3, 60, 108
4, 81568, Note_on_c, 3, 50, 0
4, 81568, Note_on_c, 3, 60, 0
4, 81600, Note_on_c, 3, 50, 127
4, 81632, Note_on_c, 3, 50, 0
4, 81696, Note_on_c, 3, 52, 108
4, 81728, Note_on_c, 3, 52, 0
4, 81792, Note_on_c, 3, 54, 108
4, 81824, Note_on_c, 3, 54, 0
4, 81888, Note_on_c, 3, 55, 108
4, 81920, Note_on_c, 3, 55, 0
4, 81984, Note_on_c, 3, 57, 108
4, 82016, Note_on_c, 3, 57, 0
4, 82080, Note_on_c, 3, 59, 108
4, 82112, Note_on_c, 3, 59, 0
4, 82176, Note_on_c, 3, 50, 108
4, 82176, Note_on_c, 3, 60, 108
4, 83280, Note_on_c, 3, 50, 0
4, 83280, Note_on_c, 3, 60, 0
4, 83328, Note_on_c, 3, 54, 45
4, 83376, Note_on_c, 3, 54, 0
4, 83520, Note_on_c, 3, 57, 45
4, 83568, Note_on_c, 3, 57, 0
4, 83712, Note_on_c, 3, 60, 45
4, 83904, Note_on_c, 3, 60, 0
4, 83904, Note_on_c, 3, 57, 45
4, 84096, Note_on_c, 3, 57, 0
4, 84096, Note_on_c, 3, 54, 45
4, 84432, Note_on_c, 3, 54, 0
4, 84480, Note_on_c, 3, 63, 45
4, 84672, Note_on_c, 3, 63, 0
4, 84672, Note_on_c, 3, 60, 45
4, 84864, Note_on_c, 3, 60, 0
4, 84864, Note_on_c, 3, 57, 45
4, 85024, Note_on_c, 3, 57, 0
4, 85056, Note_on_c, 3, 72, 45
4, 85248, Note_on_c, 3, 72, 0
4, 85248, Note_on_c, 3, 69, 45
4, 85440, Note_on_c, 3, 69, 0
4, 85440, Note_on_c, 3, 66, 45
4, 85632, Note_on_c, 3, 66, 0
4, 85632, Note_on_c, 3, 63, 45
4, 85824, Note_on_c, 3, 63, 0
4, 85824, Note_on_c, 3, 60, 45
4, 86016, Note_on_c, 3, 60, 0
4, 86016, Note_on_c, 3, 61, 45
4, 86208, Note_on_c, 3, 61, 0
4, 86208, Note_on_c, 3, 58, 45
4, 86400, Note_on_c, 3, 58, 0
4, 86400, Note_on_c, 3, 57, 45
4, 86560, Note_on_c, 3, 57, 0
4, 86592, Note_on_c, 3, 72, 45
4, 86784, Note_on_c, 3, 72, 0
4, 86784, Note_on_c, 3, 69, 45
4, 86976, Note_on_c, 3, 69, 0
4, 86976, Note_on_c, 3, 66, 45
4, 87168, Note_on_c, 3, 66, 0
4, 87168, Note_on_c, 3, 63, 45
4, 87360, Note_on_c, 3, 63, 0
4, 87360, Note_on_c, 3, 60, 45
4, 87552, Note_on_c, 3, 60, 0
4, 87552, Note_on_c, 3, 61, 45
4, 87744, Note_on_c, 3, 61, 0
4, 87744, Note_on_c, 3, 58, 45
4, 87904, Note_on_c, 3, 58, 0
4, 87936, Note_on_c, 3, 57, 45
4, 88320, Note_on_c, 3, 57, 0
4, 88320, Note_on_c, 3, 55, 45
4, 88656, Note_on_c, 3, 55, 0
4, 88704, Note_on_c, 3, 57, 45
4, 89088, Note_on_c, 3, 57, 0
4, 89088, Note_on_c, 3, 55, 42
4, 89424, Note_on_c, 3, 55, 0
4, 89472, Note_on_c, 3, 57, 39
4, 89856, Note_on_c, 3, 57, 0
4, 89856, Note_on_c, 3, 55, 36
4, 90576, Note_on_c, 3, 55, 0
4, 90624, Note_on_c, 3, 61, 30
4, 92496, Note_on_c, 3, 61, 0
4, 92544, Note_on_c, 3, 51, 30
4, 92592, Note_on_c, 3, 51, 0
4, 92736, Note_on_c, 3, 51, 30
4, 92784, Note_on_c, 3, 51, 0
4, 92928, Note_on_c, 3, 51, 30
4, 93184, Note_on_c, 3, 51, 0
4, 93216, Note_on_c, 3, 51, 30
4, 93310, Note_on_c, 3, 51, 0
4, 93312, Note_on_c, 3, 51, 30
4, 93344, Note_on_c, 3, 51, 0
4, 93408, Note_on_c, 3, 51, 30
4, 93440, Note_on_c, 3, 51, 0
4, 93504, Note_on_c, 3, 51, 30
4, 93536, Note_on_c, 3, 51, 0
4, 93600, Note_on_c, 3, 51, 30
4, 93632, Note_on_c, 3, 51, 0
4, 93696, Note_on_c, 3, 51, 30
4, 93790, Note_on_c, 3, 51, 0
4, 94080, Note_on_c, 3, 64, 30
4, 94112, Note_on_c, 3, 64, 0
4, 94176, Note_on_c, 3, 64, 30
4, 94208, Note_on_c, 3, 64, 0
4, 94272, Note_on_c, 3, 64, 30
4, 94304, Note_on_c, 3, 64, 0
4, 94368, Note_on_c, 3, 64, 30
4, 94400, Note_on_c, 3, 64, 0
4, 94464, Note_on_c, 3, 64, 30
4, 94558, Note_on_c, 3, 64, 0
4, 94848, Note_on_c, 3, 64, 30
4, 94880, Note_on_c, 3, 64, 0
4, 94944, Note_on_c, 3, 64, 30
4, 94976, Note_on_c, 3, 64, 0
4, 95040, Note_on_c, 3, 64, 30
4, 95072, Note_on_c, 3, 64, 0
4, 95136, Note_on_c, 3, 64, 30
4, 95168, Note_on_c, 3, 64, 0
4, 95232, Note_on_c, 3, 64, 30
4, 95326, Note_on_c, 3, 64, 0
4, 95616, Note_on_c, 3, 62, 30
4, 95664, Note_on_c, 3, 62, 0
4, 95808, Note_on_c, 3, 62, 45
4, 95856, Note_on_c, 3, 62, 0
4, 96000, Note_on_c, 3, 62, 60
4, 96048, Note_on_c, 3, 62, 0
4, 96192, Note_on_c, 3, 62, 76
4, 96240, Note_on_c, 3, 62, 0
4, 96384, Note_on_c, 3, 62, 127
4, 98256, Note_on_c, 3, 62, 0
4, 99840, Note_on_c, 3, 59, 45
4, 99888, Note_on_c, 3, 59, 0
4, 100032, Note_on_c, 3, 59, 45
4, 100080, Note_on_c, 3, 59, 0
4, 100224, Note_on_c, 3, 67, 45
4, 100512, Note_on_c, 3, 67, 0
4, 100512, Note_on_c, 3, 66, 45
4, 100560, Note_on_c, 3, 66, 0
4, 100560, Note_on_c, 3, 64, 45
4, 100606, Note_on_c, 3, 64, 0
4, 100608, Note_on_c, 3, 62, 45
4, 100640, Note_on_c, 3, 62, 0
4, 100704, Note_on_c, 3, 66, 45
4, 100736, Note_on_c, 3, 66, 0
4, 100800, Note_on_c, 3, 64, 45
4, 100832, Note_on_c, 3, 64, 0
4, 100896, Note_on_c, 3, 61, 45
4, 100928, Note_on_c, 3, 61, 0
4, 100992, Note_on_c, 3, 62, 45
4, 101086, Note_on_c, 3, 62, 0
4, 102912, Note_on_c, 3, 63, 45
4, 102960, Note_on_c, 3, 63, 0
4, 103104, Note_on_c, 3, 66, 45
4, 103152, Note_on_c, 3, 66, 0
4, 103296, Note_on_c, 3, 69, 45
4, 103584, Note_on_c, 3, 69, 0
4, 103584, Note_on_c, 3, 67, 45
4, 103632, Note_on_c, 3, 67, 0
4, 103632, Note_on_c, 3, 66, 45
4, 103678, Note_on_c, 3, 66, 0
4, 103680, Note_on_c, 3, 64, 60
4, 103712, Note_on_c, 3, 64, 0
4, 103776, Note_on_c, 3, 67, 45
4, 103808, Note_on_c, 3, 67, 0
4, 103872, Note_on_c, 3, 69, 45
4, 103904, Note_on_c, 3, 69, 0
4, 103968, Note_on_c, 3, 69, 45
4, 104000, Note_on_c, 3, 69, 0
4, 104064, Note_on_c, 3, 67, 45
4, 104158, Note_on_c, 3, 67, 0
4, 104448, Note_on_c, 3, 50, 45
4, 104832, Note_on_c, 3, 50, 0
4, 104832, Note_on_c, 3, 52, 45
4, 104926, Note_on_c, 3, 52, 0
4, 105216, Note_on_c, 3, 54, 45
4, 105694, Note_on_c, 3, 54, 0
4, 105696, Note_on_c, 3, 50, 74
4, 105728, Note_on_c, 3, 50, 0
4, 105888, Note_on_c, 3, 60, 86
4, 105920, Note_on_c, 3, 60, 0
4, 105984, Note_on_c, 3, 59, 92
4, 106078, Note_on_c, 3, 59, 0
4, 106080, Note_on_c, 3, 59, 92
4, 106174, Note_on_c, 3, 59, 0
4, 106176, Note_on_c, 3, 59, 92
4, 106270, Note_on_c, 3, 59, 0
4, 106272, Note_on_c, 3, 59, 92
4, 106366, Note_on_c, 3, 59, 0
4, 106368, Note_on_c, 3, 59, 92
4, 106462, Note_on_c, 3, 59, 0
4, 106464, Note_on_c, 3, 59, 92
4, 106558, Note_on_c, 3, 59, 0
4, 106560, Note_on_c, 3, 59, 92
4, 106654, Note_on_c, 3, 59, 0
4, 106656, Note_on_c, 3, 59, 92
4, 106750, Note_on_c, 3, 59, 0
4, 106752, Note_on_c, 3, 60, 92
4, 106846, Note_on_c, 3, 60, 0
4, 106848, Note_on_c, 3, 59, 92
4, 106942, Note_on_c, 3, 59, 0
4, 106944, Note_on_c, 3, 57, 92
4, 107038, Note_on_c, 3, 57, 0
4, 107040, Note_on_c, 3, 55, 92
4, 107134, Note_on_c, 3, 55, 0
4, 107136, Note_on_c, 3, 54, 92
4, 107184, Note_on_c, 3, 54, 0
4, 107184, Note_on_c, 3, 57, 92
4, 107232, Note_on_c, 3, 57, 0
4, 107232, Note_on_c, 3, 62, 92
4, 107280, Note_on_c, 3, 62, 0
4, 107280, Note_on_c, 3, 66, 92
4, 107328, Note_on_c, 3, 66, 0
4, 107328, Note_on_c, 3, 69, 92
4, 107376, Note_on_c, 3, 69, 0
4, 107376, Note_on_c, 3, 66, 92
4, 107424, Note_on_c, 3, 66, 0
4, 107424, Note_on_c, 3, 62, 92
4, 107472, Note_on_c, 3, 62, 0
4, 107472, Note_on_c, 3, 57, 92
4, 107518, Note_on_c, 3, 57, 0
4, 107520, Note_on_c, 3, 54, 92
4, 107614, Note_on_c, 3, 54, 0
4, 107616, Note_on_c, 3, 54, 92
4, 107710, Note_on_c, 3, 54, 0
4, 107712, Note_on_c, 3, 54, 92
4, 107806, Note_on_c, 3, 54, 0
4, 107808, Note_on_c, 3, 54, 92
4, 107902, Note_on_c, 3, 54, 0
4, 107904, Note_on_c, 3, 54, 92
4, 107998, Note_on_c, 3, 54, 0
4, 108000, Note_on_c, 3, 54, 92
4, 108094, Note_on_c, 3, 54, 0
4, 108096, Note_on_c, 3, 54, 92
4, 108190, Note_on_c, 3, 54, 0
4, 108192, Note_on_c, 3, 54, 92
4, 108286, Note_on_c, 3, 54, 0
4, 108288, Note_on_c, 3, 55, 92
4, 108382, Note_on_c, 3, 55, 0
4, 108384, Note_on_c, 3, 67, 92
4, 108478, Note_on_c, 3, 67, 0
4, 108480, Note_on_c, 3, 69, 92
4, 108574, Note_on_c, 3, 69, 0
4, 108576, Note_on_c, 3, 66, 92
4, 108670, Note_on_c, 3, 66, 0
4, 108672, Note_on_c, 3, 59, 92
4, 108832, Note_on_c, 3, 59, 0
4, 108960, Note_on_c, 3, 67, 45
4, 109056, Note_on_c, 3, 67, 0
4, 109056, Note_on_c, 3, 66, 45
4, 109216, Note_on_c, 3, 66, 0
4, 109344, Note_on_c, 3, 66, 45
4, 109440, Note_on_c, 3, 66, 0
4, 109440, Note_on_c, 3, 67, 45
4, 109472, Note_on_c, 3, 67, 0
4, 109536, Note_on_c, 3, 65, 45
4, 109568, Note_on_c, 3, 65, 0
4, 109632, Note_on_c, 3, 64, 45
4, 109664, Note_on_c, 3, 64, 0
4, 109728, Note_on_c, 3, 66, 45
4, 109760, Note_on_c, 3, 66, 0
4, 109824, Note_on_c, 3, 67, 45
4, 109856, Note_on_c, 3, 67, 0
4, 109920, Note_on_c, 3, 64, 45
4, 109952, Note_on_c, 3, 64, 0
4, 110016, Note_on_c, 3, 60, 45
4, 110048, Note_on_c, 3, 60, 0
4, 110112, Note_on_c, 3, 62, 45
4, 110144, Note_on_c, 3, 62, 0
4, 110208, Note_on_c, 3, 55, 45
4, 110368, Note_on_c, 3, 55, 0
4, 110496, Note_on_c, 3, 55, 60
4, 110592, Note_on_c, 3, 55, 0
4, 110592, Note_on_c, 3, 57, 45
4, 110752, Note_on_c, 3, 57, 0
4, 110880, Note_on_c, 3, 57, 45
4, 110976, Note_on_c, 3, 57, 0
4, 110976, Note_on_c, 3, 55, 45
4, 111070, Note_on_c, 3, 55, 0
4, 111072, Note_on_c, 3, 59, 50
4, 111166, Note_on_c, 3, 59, 0
4, 111168, Note_on_c, 3, 59, 56
4, 111262, Note_on_c, 3, 59, 0
4, 111264, Note_on_c, 3, 59, 62
4, 111358, Note_on_c, 3, 59, 0
4, 111360, Note_on_c, 3, 59, 68
4, 111454, Note_on_c, 3, 59, 0
4, 111456, Note_on_c, 3, 57, 74
4, 111550, Note_on_c, 3, 57, 0
4, 111552, Note_on_c, 3, 57, 80
4, 111646, Note_on_c, 3, 57, 0
4, 111648, Note_on_c, 3, 57, 86
4, 111742, Note_on_c, 3, 57, 0
4, 111744, Note_on_c, 3, 57, 92
4, 111904, Note_on_c, 3, 57, 0
4, 112608, Note_on_c, 3, 55, 108
4, 112702, Note_on_c, 3, 55, 0
4, 112704, Note_on_c, 3, 55, 108
4, 112798, Note_on_c, 3, 55, 0
4, 112800, Note_on_c, 3, 55, 108
4, 112894, Note_on_c, 3, 55, 0
4, 112896, Note_on_c, 3, 55, 108
4, 112990, Note_on_c, 3, 55, 0
4, 112992, Note_on_c, 3, 55, 108
4, 113086, Note_on_c, 3, 55, 0
4, 113088, Note_on_c, 3, 55, 108
4, 113182, Note_on_c, 3, 55, 0
4, 113184, Note_on_c, 3, 55, 108
4, 113278, Note_on_c, 3, 55, 0
4, 113280, Note_on_c, 3, 57, 108
4, 113374, Note_on_c, 3, 57, 0
4, 113376, Note_on_c, 3, 57, 108
4, 113470, Note_on_c, 3, 57, 0
4, 113472, Note_on_c, 3, 57, 108
4, 113566, Note_on_c, 3, 57, 0
4, 113568, Note_on_c, 3, 57, 108
4, 113662, Note_on_c, 3, 57, 0
4, 113664, Note_on_c, 3, 57, 108
4, 113758, Note_on_c, 3, 57, 0
4, 113760, Note_on_c, 3, 57, 108
4, 113854, Note_on_c, 3, 57, 0
4, 113856, Note_on_c, 3, 57, 108
4, 113950, Note_on_c, 3, 57, 0
4, 113952, Note_on_c, 3, 57, 108
4, 114046, Note_on_c, 3, 57, 0
4, 114048, Note_on_c, 3, 54, 108
4, 114142, Note_on_c, 3, 54, 0
4, 114144, Note_on_c, 3, 54, 108
4, 114238, Note_on_c, 3, 54, 0
4, 114240, Note_on_c, 3, 54, 108
4, 114334, Note_on_c, 3, 54, 0
4, 114336, Note_on_c, 3, 54, 108
4, 114430, Note_on_c, 3, 54, 0
4, 114432, Note_on_c, 3, 54, 108
4, 114526, Note_on_c, 3, 54, 0
4, 114528, Note_on_c, 3, 54, 108
4, 114622, Note_on_c, 3, 54, 0
4, 114624, Note_on_c, 3, 54, 108
4, 114718, Note_on_c, 3, 54, 0
4, 114720, Note_on_c, 3, 54, 108
4, 114814, Note_on_c, 3, 54, 0
4, 114816, Note_on_c, 3, 55, 108
4, 114910, Note_on_c, 3, 55, 0
4, 114912, Note_on_c, 3, 55, 108
4, 115006, Note_on_c, 3, 55, 0
4, 115008, Note_on_c, 3, 55, 108
4, 115102, Note_on_c, 3, 55, 0
4, 115104, Note_on_c, 3, 55, 108
4, 115198, Note_on_c, 3, 55, 0
4, 115200, Note_on_c, 3, 55, 108
4, 115294, Note_on_c, 3, 55, 0
4, 115296, Note_on_c, 3, 55, 108
4, 115390, Note_on_c, 3, 55, 0
4, 115392, Note_on_c, 3, 55, 108
4, 115486, Note_on_c, 3, 55, 0
4, 115488, Note_on_c, 3, 55, 108
4, 115582, Note_on_c, 3, 55, 0
4, 115584, Note_on_c, 3, 55, 108
4, 115678, Note_on_c, 3, 55, 0
4, 115680, Note_on_c, 3, 63, 108
4, 115774, Note_on_c, 3, 63, 0
4, 115776, Note_on_c, 3, 63, 108
4, 115870, Note_on_c, 3, 63, 0
4, 115872, Note_on_c, 3, 63, 108
4, 115966, Note_on_c, 3, 63, 0
4, 115968, Note_on_c, 3, 63, 108
4, 116062, Note_on_c, 3, 63, 0
4, 116064, Note_on_c, 3, 63, 108
4, 116158, Note_on_c, 3, 63, 0
4, 116160, Note_on_c, 3, 63, 108
4, 116254, Note_on_c, 3, 63, 0
4, 116256, Note_on_c, 3, 63, 108
4, 116350, Note_on_c, 3, 63, 0
4, 116352, Note_on_c, 3, 64, 108
4, 116384, Note_on_c, 3, 64, 0
4, 116448, Note_on_c, 3, 62, 108
4, 116480, Note_on_c, 3, 62, 0
4, 116544, Note_on_c, 3, 64, 108
4, 116576, Note_on_c, 3, 64, 0
4, 116640, Note_on_c, 3, 66, 108
4, 116672, Note_on_c, 3, 66, 0
4, 116736, Note_on_c, 3, 67, 108
4, 116896, Note_on_c, 3, 67, 0
4, 116928, Note_on_c, 3, 61, 108
4, 117088, Note_on_c, 3, 61, 0
4, 117120, Note_on_c, 3, 62, 108
4, 117280, Note_on_c, 3, 62, 0
4, 117408, Note_on_c, 3, 62, 108
4, 117502, Note_on_c, 3, 62, 0
4, 117504, Note_on_c, 3, 61, 108
4, 117552, Note_on_c, 3, 61, 0
4, 117792, Note_on_c, 3, 61, 108
4, 117824, Note_on_c, 3, 61, 0
4, 117888, Note_on_c, 3, 60, 108
4, 117936, Note_on_c, 3, 60, 0
4, 118176, Note_on_c, 3, 60, 108
4, 118208, Note_on_c, 3, 60, 0
4, 118560, Note_on_c, 3, 59, 108
4, 118592, Note_on_c, 3, 59, 0
4, 118656, Note_on_c, 3, 54, 108
4, 118688, Note_on_c, 3, 54, 0
4, 120960, Note_on_c, 3, 55, 45
4, 120992, Note_on_c, 3, 55, 0
4, 121056, Note_on_c, 3, 59, 45
4, 121088, Note_on_c, 3, 59, 0
4, 121152, Note_on_c, 3, 62, 45
4, 121184, Note_on_c, 3, 62, 0
4, 121248, Note_on_c, 3, 66, 45
4, 121280, Note_on_c, 3, 66, 0
4, 121344, Note_on_c, 3, 67, 45
4, 121376, Note_on_c, 3, 67, 0
4, 121440, Note_on_c, 3, 66, 45
4, 121472, Note_on_c, 3, 66, 0
4, 121536, Note_on_c, 3, 67, 45
4, 121568, Note_on_c, 3, 67, 0
4, 121632, Note_on_c, 3, 64, 45
4, 121664, Note_on_c, 3, 64, 0
4, 121728, Note_on_c, 3, 60, 45
4, 121760, Note_on_c, 3, 60, 0
4, 121824, Note_on_c, 3, 57, 45
4, 121856, Note_on_c, 3, 57, 0
4, 121920, Note_on_c, 3, 62, 45
4, 121952, Note_on_c, 3, 62, 0
4, 122016, Note_on_c, 3, 50, 45
4, 122048, Note_on_c, 3, 50, 0
4, 122112, Note_on_c, 3, 55, 45
4, 122206, Note_on_c, 3, 55, 0
4, 123360, Note_on_c, 3, 60, 45
4, 123392, Note_on_c, 3, 60, 0
4, 123456, Note_on_c, 3, 66, 45
4, 123488, Note_on_c, 3, 66, 0
4, 123552, Note_on_c, 3, 67, 45
4, 123584, Note_on_c, 3, 67, 0
4, 123648, Note_on_c, 3, 69, 45
4, 123742, Note_on_c, 3, 69, 0
4, 123744, Note_on_c, 3, 57, 45
4, 123838, Note_on_c, 3, 57, 0
4, 123840, Note_on_c, 3, 57, 45
4, 123934, Note_on_c, 3, 57, 0
4, 123936, Note_on_c, 3, 57, 45
4, 124030, Note_on_c, 3, 57, 0
4, 124032, Note_on_c, 3, 59, 45
4, 124126, Note_on_c, 3, 59, 0
4, 124800, Note_on_c, 3, 48, 45
4, 124832, Note_on_c, 3, 48, 0
4, 124896, Note_on_c, 3, 52, 45
4, 124928, Note_on_c, 3, 52, 0
4, 124992, Note_on_c, 3, 55, 45
4, 125024, Note_on_c, 3, 55, 0
4, 125088, Note_on_c, 3, 59, 45
4, 125120, Note_on_c, 3, 59, 0
4, 125184, Note_on_c, 3, 60, 45
4, 125278, Note_on_c, 3, 60, 0
4, 125280, Note_on_c, 3, 60, 45
4, 125374, Note_on_c, 3, 60, 0
4, 125376, Note_on_c, 3, 60, 45
4, 125470, Note_on_c, 3, 60, 0
4, 125472, Note_on_c, 3, 60, 45
4, 125566, Note_on_c, 3, 60, 0
4, 125568, Note_on_c, 3, 60, 45
4, 125728, Note_on_c, 3, 60, 0
4, 125760, Note_on_c, 3, 57, 63
4, 125920, Note_on_c, 3, 57, 0
4, 126144, Note_on_c, 3, 55, 63
4, 126304, Note_on_c, 3, 55, 0
4, 126528, Note_on_c, 3, 54, 63
4, 126688, Note_on_c, 3, 54, 0
4, 126912, Note_on_c, 3, 52, 63
4, 127072, Note_on_c, 3, 52, 0
4, 127104, Note_on_c, 3, 50, 45
4, 127440, Note_on_c, 3, 50, 0
4, 127488, Note_on_c, 3, 51, 45
4, 127680, Note_on_c, 3, 51, 0
4, 127680, Note_on_c, 3, 48, 45
4, 127872, Note_on_c, 3, 48, 0
4, 127872, Note_on_c, 3, 50, 45
4, 128208, Note_on_c, 3, 50, 0
4, 128256, Note_on_c, 3, 51, 45
4, 128448, Note_on_c, 3, 51, 0
4, 128448, Note_on_c, 3, 48, 45
4, 128640, Note_on_c, 3, 48, 0
4, 128640, Note_on_c, 3, 50, 45
4, 128976, Note_on_c, 3, 50, 0
4, 129024, Note_on_c, 3, 51, 45
4, 129216, Note_on_c, 3, 51, 0
4, 129216, Note_on_c, 3, 48, 45
4, 129408, Note_on_c, 3, 48, 0
4, 129408, Note_on_c, 3, 50, 45
4, 129744, Note_on_c, 3, 50, 0
4, 129792, Note_on_c, 3, 51, 45
4, 129984, Note_on_c, 3, 51, 0
4, 129984, Note_on_c, 3, 48, 45
4, 130144, Note_on_c, 3, 48, 0
4, 130176, Note_on_c, 3, 49, 45
4, 130272, Note_on_c, 3, 49, 0
4, 130272, Note_on_c, 3, 52, 50
4, 130368, Note_on_c, 3, 52, 0
4, 130368, Note_on_c, 3, 55, 56
4, 130464, Note_on_c, 3, 55, 0
4, 130464, Note_on_c, 3, 58, 62
4, 130560, Note_on_c, 3, 58, 0
4, 130560, Note_on_c, 3, 61, 68
4, 130656, Note_on_c, 3, 61, 0
4, 130656, Note_on_c, 3, 64, 74
4, 130752, Note_on_c, 3, 64, 0
4, 130752, Note_on_c, 3, 67, 80
4, 130848, Note_on_c, 3, 67, 0
4, 130848, Note_on_c, 3, 64, 86
4, 130942, Note_on_c, 3, 64, 0
4, 131040, Note_on_c, 3, 55, 92
4, 131134, Note_on_c, 3, 55, 0
4, 131136, Note_on_c, 3, 55, 92
4, 131230, Note_on_c, 3, 55, 0
4, 131232, Note_on_c, 3, 55, 92
4, 131326, Note_on_c, 3, 55, 0
4, 131328, Note_on_c, 3, 54, 92
4, 131422, Note_on_c, 3, 54, 0
4, 131424, Note_on_c, 3, 54, 92
4, 131518, Note_on_c, 3, 54, 0
4, 131520, Note_on_c, 3, 54, 92
4, 131614, Note_on_c, 3, 54, 0
4, 131616, Note_on_c, 3, 54, 92
4, 131710, Note_on_c, 3, 54, 0
4, 132096, Note_on_c, 3, 72, 45
4, 132288, Note_on_c, 3, 72, 0
4, 132288, Note_on_c, 3, 69, 45
4, 132448, Note_on_c, 3, 69, 0
4, 132864, Note_on_c, 3, 72, 45
4, 133056, Note_on_c, 3, 72, 0
4, 133056, Note_on_c, 3, 69, 45
4, 133216, Note_on_c, 3, 69, 0
4, 133824, Note_on_c, 3, 69, 45
4, 133984, Note_on_c, 3, 69, 0
4, 134400, Note_on_c, 3, 60, 30
4, 134560, Note_on_c, 3, 60, 0
4, 134592, Note_on_c, 3, 63, 30
4, 134688, Note_on_c, 3, 63, 0
4, 134688, Note_on_c, 3, 60, 30
4, 134784, Note_on_c, 3, 60, 0
4, 134784, Note_on_c, 3, 57, 30
4, 135168, Note_on_c, 3, 57, 0
4, 135168, Note_on_c, 3, 58, 30
4, 135552, Note_on_c, 3, 58, 0
4, 135552, Note_on_c, 3, 60, 30
4, 135936, Note_on_c, 3, 60, 0
4, 135936, Note_on_c, 3, 58, 30
4, 136272, Note_on_c, 3, 58, 0
4, 136320, Note_on_c, 3, 57, 30
4, 136704, Note_on_c, 3, 57, 0
4, 136704, Note_on_c, 3, 58, 30
4, 137088, Note_on_c, 3, 58, 0
4, 137088, Note_on_c, 3, 60, 30
4, 137472, Note_on_c, 3, 60, 0
4, 137472, Note_on_c, 3, 58, 30
4, 137808, Note_on_c, 3, 58, 0
4, 137856, Note_on_c, 3, 58, 30
4, 137950, Note_on_c, 3, 58, 0
4, 137952, Note_on_c, 3, 62, 33
4, 138046, Note_on_c, 3, 62, 0
4, 138048, Note_on_c, 3, 62, 36
4, 138142, Note_on_c, 3, 62, 0
4, 138144, Note_on_c, 3, 62, 40
4, 138238, Note_on_c, 3, 62, 0
4, 138240, Note_on_c, 3, 62, 44
4, 138334, Note_on_c, 3, 62, 0
4, 138336, Note_on_c, 3, 62, 48
4, 138430, Note_on_c, 3, 62, 0
4, 138432, Note_on_c, 3, 62, 52
4, 138526, Note_on_c, 3, 62, 0
4, 138528, Note_on_c, 3, 62, 56
4, 138622, Note_on_c, 3, 62, 0
4, 138624, Note_on_c, 3, 62, 60
4, 138718, Note_on_c, 3, 62, 0
4, 138720, Note_on_c, 3, 62, 64
4, 138814, Note_on_c, 3, 62, 0
4, 138816, Note_on_c, 3, 62, 68
4, 138910, Note_on_c, 3, 62, 0
4, 138912, Note_on_c, 3, 62, 72
4, 139006, Note_on_c, 3, 62, 0
4, 139008, Note_on_c, 3, 61, 76
4, 139102, Note_on_c, 3, 61, 0
4, 139104, Note_on_c, 3, 61, 80
4, 139198, Note_on_c, 3, 61, 0
4, 139200, Note_on_c, 3, 61, 84
4, 139294, Note_on_c, 3, 61, 0
4, 139296, Note_on_c, 3, 61, 88
4, 139390, Note_on_c, 3, 61, 0
4, 139392, Note_on_c, 3, 60, 92
4, 139486, Note_on_c, 3, 60, 0
4, 139488, Note_on_c, 3, 57, 92
4, 139582, Note_on_c, 3, 57, 0
4, 139584, Note_on_c, 3, 57, 92
4, 139678, Note_on_c, 3, 57, 0
4, 139680, Note_on_c, 3, 57, 92
4, 139774, Note_on_c, 3, 57, 0
4, 139776, Note_on_c, 3, 57, 92
4, 139870, Note_on_c, 3, 57, 0
4, 139872, Note_on_c, 3, 57, 92
4, 139966, Note_on_c, 3, 57, 0
4, 139968, Note_on_c, 3, 57, 92
4, 140062, Note_on_c, 3, 57, 0
4, 140064, Note_on_c, 3, 57, 92
4, 140158, Note_on_c, 3, 57, 0
4, 140160, Note_on_c, 3, 55, 108
4, 140254, Note_on_c, 3, 55, 0
4, 140256, Note_on_c, 3, 55, 108
4, 140350, Note_on_c, 3, 55, 0
4, 140544, Note_on_c, 3, 62, 108
4, 140638, Note_on_c, 3, 62, 0
4, 140640, Note_on_c, 3, 62, 108
4, 140734, Note_on_c, 3, 62, 0
4, 140736, Note_on_c, 3, 60, 108
4, 140830, Note_on_c, 3, 60, 0
4, 140832, Note_on_c, 3, 60, 108
4, 140926, Note_on_c, 3, 60, 0
4, 140928, Note_on_c, 3, 59, 108
4, 141088, Note_on_c, 3, 59, 0
4, 141696, Note_on_c, 3, 60, 108
4, 141790, Note_on_c, 3, 60, 0
4, 141792, Note_on_c, 3, 60, 108
4, 141886, Note_on_c, 3, 60, 0
4, 141888, Note_on_c, 3, 60, 108
4, 141982, Note_on_c, 3, 60, 0
4, 141984, Note_on_c, 3, 60, 108
4, 142078, Note_on_c, 3, 60, 0
4, 142080, Note_on_c, 3, 60, 108
4, 142174, Note_on_c, 3, 60, 0
4, 142176, Note_on_c, 3, 60, 108
4, 142270, Note_on_c, 3, 60, 0
4, 142272, Note_on_c, 3, 60, 108
4, 142366, Note_on_c, 3, 60, 0
4, 142368, Note_on_c, 3, 60, 108
4, 142462, Note_on_c, 3, 60, 0
4, 142464, Note_on_c, 3, 59, 108
4, 142558, Note_on_c, 3, 59, 0
4, 142560, Note_on_c, 3, 62, 108
4, 142654, Note_on_c, 3, 62, 0
4, 142656, Note_on_c, 3, 67, 108
4, 142750, Note_on_c, 3, 67, 0
4, 142752, Note_on_c, 3, 67, 108
4, 142846, Note_on_c, 3, 67, 0
4, 142848, Note_on_c, 3, 71, 127
4, 143136, Note_on_c, 3, 71, 0
4, 143136, Note_on_c, 3, 69, 108
4, 143184, Note_on_c, 3, 69, 0
4, 143184, Note_on_c, 3, 67, 108
4, 143232, Note_on_c, 3, 67, 0
4, 143232, Note_on_c, 3, 66, 108
4, 143264, Note_on_c, 3, 66, 0
4, 143328, Note_on_c, 3, 57, 108
4, 143376, Note_on_c, 3, 57, 0
4, 143376, Note_on_c, 3, 59, 108
4, 143424, Note_on_c, 3, 59, 0
4, 143424, Note_on_c, 3, 60, 108
4, 143472, Note_on_c, 3, 60, 0
4, 143472, Note_on_c, 3, 59, 108
4, 143520, Note_on_c, 3, 59, 0
4, 143520, Note_on_c, 3, 57, 108
4, 143568, Note_on_c, 3, 57, 0
4, 143568, Note_on_c, 3, 55, 108
4, 143616, Note_on_c, 3, 55, 0
4, 143616, Note_on_c, 3, 54, 108
4, 143664, Note_on_c, 3, 54, 0
4, 143664, Note_on_c, 3, 55, 108
4, 143712, Note_on_c, 3, 55, 0
4, 143712, Note_on_c, 3, 57, 108
4, 143760, Note_on_c, 3, 57, 0
4, 143760, Note_on_c, 3, 55, 108
4, 143808, Note_on_c, 3, 55, 0
4, 143808, Note_on_c, 3, 54, 108
4, 143856, Note_on_c, 3, 54, 0
4, 143856, Note_on_c, 3, 50, 108
4, 143904, Note_on_c, 3, 50, 0
4, 143904, Note_on_c, 3, 52, 108
4, 143952, Note_on_c, 3, 52, 0
4, 143952, Note_on_c, 3, 54, 108
4, 143998, Note_on_c, 3, 54, 0
4, 144000, Note_on_c, 3, 55, 108
4, 144094, Note_on_c, 3, 55, 0
4, 144096, Note_on_c, 3, 60, 108
4, 144256, Note_on_c, 3, 60, 0
4, 144288, Note_on_c, 3, 60, 108
4, 144382, Note_on_c, 3, 60, 0
4, 144384, Note_on_c, 3, 59, 108
4, 144478, Note_on_c, 3, 59, 0
4, 144480, Note_on_c, 3, 60, 108
4, 144640, Note_on_c, 3, 60, 0
4, 144672, Note_on_c, 3, 60, 108
4, 144766, Note_on_c, 3, 60, 0
4, 144768, Note_on_c, 3, 59, 108
4, 144800, Note_on_c, 3, 59, 0
4, 144864, Note_on_c, 3, 57, 108
4, 144912, Note_on_c, 3, 57, 0
4, 144912, Note_on_c, 3, 59, 108
4, 144960, Note_on_c, 3, 59, 0
4, 144960, Note_on_c, 3, 60, 108
4, 144992, Note_on_c, 3, 60, 0
4, 145056, Note_on_c, 3, 59, 108
4, 145104, Note_on_c, 3, 59, 0
4, 145104, Note_on_c, 3, 57, 108
4, 145152, Note_on_c, 3, 57, 0
4, 145152, Note_on_c, 3, 55, 108
4, 145184, Note_on_c, 3, 55, 0
4, 145248, Note_on_c, 3, 57, 108
4, 145296, Note_on_c, 3, 57, 0
4, 145296, Note_on_c, 3, 59, 108
4, 145344, Note_on_c, 3, 59, 0
4, 145344, Note_on_c, 3, 60, 108
4, 145376, Note_on_c, 3, 60, 0
4, 145440, Note_on_c, 3, 59, 108
4, 145488, Note_on_c, 3, 59, 0
4, 145488, Note_on_c, 3, 57, 108
4, 145536, Note_on_c, 3, 57, 0
4, 145536, Note_on_c, 3, 55, 108
4, 145584, Note_on_c, 3, 55, 0
4, 145920, Note_on_c, 3, 74, 108
4, 145968, Note_on_c, 3, 74, 0
4, 146112, Note_on_c, 3, 71, 108
4, 146160, Note_on_c, 3, 71, 0
4, 146304, Note_on_c, 3, 67, 127
4, 146640, Note_on_c, 3, 67, 0
4, 146688, Note_on_c, 3, 71, 108
4, 146736, Note_on_c, 3, 71, 0
4, 146880, Note_on_c, 3, 67, 108
4, 146928, Note_on_c, 3, 67, 0
4, 147072, Note_on_c, 3, 62, 127
4, 147408, Note_on_c, 3, 62, 0
4, 147456, Note_on_c, 3, 67, 108
4, 147504, Note_on_c, 3, 67, 0
4, 147648, Note_on_c, 3, 62, 108
4, 147696, Note_on_c, 3, 62, 0
4, 147840, Note_on_c, 3, 59, 108
4, 148000, Note_on_c, 3, 59, 0
4, 148032, Note_on_c, 3, 59, 127
4, 148384, Note_on_c, 3, 59, 0
4, 148416, Note_on_c, 3, 59, 127
4, 148768, Note_on_c, 3, 59, 0
4, 148800, Note_on_c, 3, 59, 127
4, 149152, Note_on_c, 3, 59, 0
4, 149184, Note_on_c, 3, 59, 127
4, 149536, Note_on_c, 3, 59, 0
4, 149568, Note_on_c, 3, 59, 127
4, 149920, Note_on_c, 3, 59, 0
4, 149952, Note_on_c, 3, 59, 127
4, 150304, Note_on_c, 3, 59, 0
4, 150336, Note_on_c, 3, 59, 127
4, 151072, Note_on_c, 3, 59, 0
4, 151104, Note_on_c, 3, 59, 45
4, 151840, Note_on_c, 3, 59, 0
4, 151872, Note_on_c, 3, 59, 30
4, 153552, Note_on_c, 3, 59, 0
4, 153600, Note_on_c, 3, 60, 30
4, 153648, Note_on_c, 3, 60, 0
4, 153792, Note_on_c, 3, 64, 30
4, 153840, Note_on_c, 3, 64, 0
4, 153984, Note_on_c, 3, 64, 30
4, 154240, Note_on_c, 3, 64, 0
4, 154272, Note_on_c, 3, 64, 30
4, 154366, Note_on_c, 3, 64, 0
4, 154368, Note_on_c, 3, 65, 30
4, 154400, Note_on_c, 3, 65, 0
4, 154464, Note_on_c, 3, 64, 30
4, 154496, Note_on_c, 3, 64, 0
4, 154560, Note_on_c, 3, 62, 30
4, 154592, Note_on_c, 3, 62, 0
4, 154656, Note_on_c, 3, 60, 30
4, 154688, Note_on_c, 3, 60, 0
4, 154752, Note_on_c, 3, 59, 30
4, 154846, Note_on_c, 3, 59, 0
4, 155136, Note_on_c, 3, 64, 30
4, 155184, Note_on_c, 3, 64, 0
4, 155328, Note_on_c, 3, 64, 30
4, 155376, Note_on_c, 3, 64, 0
4, 155520, Note_on_c, 3, 64, 30
4, 155856, Note_on_c, 3, 64, 0
4, 155904, Note_on_c, 3, 57, 30
4, 155952, Note_on_c, 3, 57, 0
4, 156096, Note_on_c, 3, 57, 30
4, 156144, Note_on_c, 3, 57, 0
4, 156288, Note_on_c, 3, 57, 30
4, 156576, Note_on_c, 3, 57, 0
4, 156576, Note_on_c, 3, 54, 30
4, 156670, Note_on_c, 3, 54, 0
4, 156672, Note_on_c, 3, 59, 30
4, 156720, Note_on_c, 3, 59, 0
4, 156864, Note_on_c, 3, 71, 30
4, 156912, Note_on_c, 3, 71, 0
4, 157056, Note_on_c, 3, 71, 30
4, 157312, Note_on_c, 3, 71, 0
4, 157344, Note_on_c, 3, 71, 30
4, 157438, Note_on_c, 3, 71, 0
4, 157440, Note_on_c, 3, 72, 30
4, 157472, Note_on_c, 3, 72, 0
4, 157536, Note_on_c, 3, 71, 30
4, 157568, Note_on_c, 3, 71, 0
4, 157632, Note_on_c, 3, 69, 30
4, 157664, Note_on_c, 3, 69, 0
4, 157728, Note_on_c, 3, 67, 30
4, 157760, Note_on_c, 3, 67, 0
4, 157824, Note_on_c, 3, 66, 30
4, 157918, Note_on_c, 3, 66, 0
4, 158208, Note_on_c, 3, 66, 30
4, 158256, Note_on_c, 3, 66, 0
4, 158400, Note_on_c, 3, 66, 30
4, 158448, Note_on_c, 3, 66, 0
4, 158592, Note_on_c, 3, 66, 30
4, 158848, Note_on_c, 3, 66, 0
4, 158880, Note_on_c, 3, 66, 30
4, 158974, Note_on_c, 3, 66, 0
4, 158976, Note_on_c, 3, 67, 30
4, 159008, Note_on_c, 3, 67, 0
4, 159072, Note_on_c, 3, 67, 33
4, 159104, Note_on_c, 3, 67, 0
4, 159168, Note_on_c, 3, 69, 36
4, 159200, Note_on_c, 3, 69, 0
4, 159264, Note_on_c, 3, 66, 39
4, 159296, Note_on_c, 3, 66, 0
4, 159360, Note_on_c, 3, 67, 42
4, 159392, Note_on_c, 3, 67, 0
4, 159456, Note_on_c, 3, 67, 45
4, 159488, Note_on_c, 3, 67, 0
4, 159552, Note_on_c, 3, 69, 48
4, 159584, Note_on_c, 3, 69, 0
4, 159648, Note_on_c, 3, 66, 51
4, 159680, Note_on_c, 3, 66, 0
4, 159744, Note_on_c, 3, 67, 54
4, 159776, Note_on_c, 3, 67, 0
4, 159840, Note_on_c, 3, 67, 57
4, 159872, Note_on_c, 3, 67, 0
4, 159936, Note_on_c, 3, 64, 60
4, 159968, Note_on_c, 3, 64, 0
4, 160032, Note_on_c, 3, 66, 63
4, 160064, Note_on_c, 3, 66, 0
4, 160128, Note_on_c, 3, 67, 66
4, 160160, Note_on_c, 3, 67, 0
4, 160224, Note_on_c, 3, 67, 69
4, 160256, Note_on_c, 3, 67, 0
4, 160320, Note_on_c, 3, 64, 72
4, 160352, Note_on_c, 3, 64, 0
4, 160416, Note_on_c, 3, 66, 75
4, 160448, Note_on_c, 3, 66, 0
4, 160512, Note_on_c, 3, 67, 78
4, 160558, Note_on_c, 3, 67, 0
4, 160560, Note_on_c, 3, 67, 79
4, 160606, Note_on_c, 3, 67, 0
4, 160608, Note_on_c, 3, 67, 80
4, 160654, Note_on_c, 3, 67, 0
4, 160656, Note_on_c, 3, 67, 82
4, 160702, Note_on_c, 3, 67, 0
4, 160704, Note_on_c, 3, 64, 84
4, 160750, Note_on_c, 3, 64, 0
4, 160752, Note_on_c, 3, 64, 86
4, 160798, Note_on_c, 3, 64, 0
4, 160800, Note_on_c, 3, 66, 88
4, 160846, Note_on_c, 3, 66, 0
4, 160848, Note_on_c, 3, 66, 90
4, 160894, Note_on_c, 3, 66, 0
4, 160896, Note_on_c, 3, 67, 92
4, 160942, Note_on_c, 3, 67, 0
4, 160944, Note_on_c, 3, 67, 94
4, 160990, Note_on_c, 3, 67, 0
4, 160992, Note_on_c, 3, 67, 96
4, 161038, Note_on_c, 3, 67, 0
4, 161040, Note_on_c, 3, 67, 98
4, 161086, Note_on_c, 3, 67, 0
4, 161088, Note_on_c, 3, 64, 100
4, 161134, Note_on_c, 3, 64, 0
4, 161136, Note_on_c, 3, 64, 102
4, 161182, Note_on_c, 3, 64, 0
4, 161184, Note_on_c, 3, 66, 104
4, 161230, Note_on_c, 3, 66, 0
4, 161232, Note_on_c, 3, 66, 106
4, 161278, Note_on_c, 3, 66, 0
4, 161280, Note_on_c, 3, 67, 108
4, 161326, Note_on_c, 3, 67, 0
4, 161328, Note_on_c, 3, 67, 108
4, 161374, Note_on_c, 3, 67, 0
4, 161952, Note_on_c, 3, 50, 108
4, 161998, Note_on_c, 3, 50, 0
4, 162000, Note_on_c, 3, 50, 108
4, 162046, Note_on_c, 3, 50, 0
4, 162048, Note_on_c, 3, 55, 108
4, 162208, Note_on_c, 3, 55, 0
4, 162432, Note_on_c, 3, 67, 127
4, 162592, Note_on_c, 3, 67, 0
4, 162592, End_track
5, 0, Start_track
5, 0, MIDI_port, 0
5, 0, Title_t, "Violoncello."
5, 0, Program_c, 4, 0
5, 0, Control_c, 4, 7, 127
5, 0, Control_c, 4, 10, 64
5, 0, Note_on_c, 4, 50, 45
5, 48, Note_on_c, 4, 50, 0
5, 192, Note_on_c, 4, 55, 45
5, 240, Note_on_c, 4, 55, 0
5, 384, Note_on_c, 4, 59, 45
5, 672, Note_on_c, 4, 59, 0
5, 672, Note_on_c, 4, 57, 45
5, 720, Note_on_c, 4, 57, 0
5, 720, Note_on_c, 4, 55, 45
5, 766, Note_on_c, 4, 55, 0
5, 768, Note_on_c, 4, 54, 45
5, 800, Note_on_c, 4, 54, 0
5, 864, Note_on_c, 4, 55, 45
5, 896, Note_on_c, 4, 55, 0
5, 960, Note_on_c, 4, 57, 45
5, 992, Note_on_c, 4, 57, 0
5, 1056, Note_on_c, 4, 59, 45
5, 1088, Note_on_c, 4, 59, 0
5, 1152, Note_on_c, 4, 60, 45
5, 1246, Note_on_c, 4, 60, 0
5, 1536, Note_on_c, 4, 55, 45
5, 1584, Note_on_c, 4, 55, 0
5, 1728, Note_on_c, 4, 55, 45
5, 1776, Note_on_c, 4, 55, 0
5, 1920, Note_on_c, 4, 52, 45
5, 2208, Note_on_c, 4, 52, 0
5, 2208, Note_on_c, 4, 54, 45
5, 2256, Note_on_c, 4, 54, 0
5, 2256, Note_on_c, 4, 55, 45
5, 2302, Note_on_c, 4, 55, 0
5, 2400, Note_on_c, 4, 45, 45
5, 2432, Note_on_c, 4, 45, 0
5, 2496, Note_on_c, 4, 45, 45
5, 2528, Note_on_c, 4, 45, 0
5, 2592, Note_on_c, 4, 45, 45
5, 2624, Note_on_c, 4, 45, 0
5, 2688, Note_on_c, 4, 50, 45
5, 2782, Note_on_c, 4, 50, 0
5, 3072, Note_on_c, 4, 50, 45
5, 3120, Note_on_c, 4, 50, 0
5, 3264, Note_on_c, 4, 57, 45
5, 3312, Note_on_c, 4, 57, 0
5, 3456, Note_on_c, 4, 60, 45
5, 3744, Note_on_c, 4, 60, 0
5, 3744, Note_on_c, 4, 59, 45
5, 3792, Note_on_c, 4, 59, 0
5, 3792, Note_on_c, 4, 57, 45
5, 3838, Note_on_c, 4, 57, 0
5, 3840, Note_on_c, 4, 55, 45
5, 3872, Note_on_c, 4, 55, 0
5, 3936, Note_on_c, 4, 56, 45
5, 3968, Note_on_c, 4, 56, 0
5, 4032, Note_on_c, 4, 57, 45
5, 4064, Note_on_c, 4, 57, 0
5, 4128, Note_on_c, 4, 58, 45
5, 4160, Note_on_c, 4, 58, 0
5, 4224, Note_on_c, 4, 59, 45
5, 4318, Note_on_c, 4, 59, 0
5, 4608, Note_on_c, 4, 59, 45
5, 4656, Note_on_c, 4, 59, 0
5, 4800, Note_on_c, 4, 59, 45
5, 4848, Note_on_c, 4, 59, 0
5, 4992, Note_on_c, 4, 59, 45
5, 5248, Note_on_c, 4, 59, 0
5, 5280, Note_on_c, 4, 59, 45
5, 5374, Note_on_c, 4, 59, 0
5, 5376, Note_on_c, 4, 64, 45
5, 5408, Note_on_c, 4, 64, 0
5, 5472, Note_on_c, 4, 64, 45
5, 5504, Note_on_c, 4, 64, 0
5, 5568, Note_on_c, 4, 59, 45
5, 5600, Note_on_c, 4, 59, 0
5, 5664, Note_on_c, 4, 59, 45
5, 5696, Note_on_c, 4, 59, 0
5, 5760, Note_on_c, 4, 52, 45
5, 5854, Note_on_c, 4, 52, 0
5, 6144, Note_on_c, 4, 55, 45
5, 6528, Note_on_c, 4, 55, 0
5, 6528, Note_on_c, 4, 48, 45
5, 6688, Note_on_c, 4, 48, 0
5, 6912, Note_on_c, 4, 50, 45
5, 7390, Note_on_c, 4, 50, 0
5, 7392, Note_on_c, 4, 48, 74
5, 7424, Note_on_c, 4, 48, 0
5, 7488, Note_on_c, 4, 47, 80
5, 7520, Note_on_c, 4, 47, 0
5, 7584, Note_on_c, 4, 45, 86
5, 7616, Note_on_c, 4, 45, 0
5, 7680, Note_on_c, 4, 43, 92
5, 7774, Note_on_c, 4, 43, 0
5, 7776, Note_on_c, 4, 55, 92
5, 7870, Note_on_c, 4, 55, 0
5, 7872, Note_on_c, 4, 55, 92
5, 7966, Note_on_c, 4, 55, 0
5, 7968, Note_on_c, 4, 55, 92
5, 8062, Note_on_c, 4, 55, 0
5, 8064, Note_on_c, 4, 55, 92
5, 8158, Note_on_c, 4, 55, 0
5, 8160, Note_on_c, 4, 55, 92
5, 8254, Note_on_c, 4, 55, 0
5, 8256, Note_on_c, 4, 55, 92
5, 8350, Note_on_c, 4, 55, 0
5, 8352, Note_on_c, 4, 55, 92
5, 8446, Note_on_c, 4, 55, 0
5, 8448, Note_on_c, 4, 57, 92
5, 8542, Note_on_c, 4, 57, 0
5, 8544, Note_on_c, 4, 57, 92
5, 8638, Note_on_c, 4, 57, 0
5, 8640, Note_on_c, 4, 57, 92
5, 8734, Note_on_c, 4, 57, 0
5, 8736, Note_on_c, 4, 57, 92
5, 8830, Note_on_c, 4, 57, 0
5, 8832, Note_on_c, 4, 57, 92
5, 8926, Note_on_c, 4, 57, 0
5, 8928, Note_on_c, 4, 55, 92
5, 9022, Note_on_c, 4, 55, 0
5, 9024, Note_on_c, 4, 54, 92
5, 9118, Note_on_c, 4, 54, 0
5, 9120, Note_on_c, 4, 52, 92
5, 9214, Note_on_c, 4, 52, 0
5, 9216, Note_on_c, 4, 50, 92
5, 9310, Note_on_c, 4, 50, 0
5, 9312, Note_on_c, 4, 50, 92
5, 9406, Note_on_c, 4, 50, 0
5, 9408, Note_on_c, 4, 50, 92
5, 9502, Note_on_c, 4, 50, 0
5, 9504, Note_on_c, 4, 50, 92
5, 9598, Note_on_c, 4, 50, 0
5, 9600, Note_on_c, 4, 50, 92
5, 9694, Note_on_c, 4, 50, 0
5, 9696, Note_on_c, 4, 50, 92
5, 9790, Note_on_c, 4, 50, 0
5, 9792, Note_on_c, 4, 50, 92
5, 9886, Note_on_c, 4, 50, 0
5, 9888, Note_on_c, 4, 48, 92
5, 9982, Note_on_c, 4, 48, 0
5, 9984, Note_on_c, 4, 47, 92
5, 10078, Note_on_c, 4, 47, 0
5, 10080, Note_on_c, 4, 52, 92
5, 10174, Note_on_c, 4, 52, 0
5, 10176, Note_on_c, 4, 48, 92
5, 10270, Note_on_c, 4, 48, 0
5, 10272, Note_on_c, 4, 50, 92
5, 10366, Note_on_c, 4, 50, 0
5, 10368, Note_on_c, 4, 43, 92
5, 10528, Note_on_c, 4, 43, 0
5, 11904, Note_on_c, 4, 43, 45
5, 12064, Note_on_c, 4, 43, 0
5, 12288, Note_on_c, 4, 54, 45
5, 12448, Note_on_c, 4, 54, 0
5, 12576, Note_on_c, 4, 54, 45
5, 12672, Note_on_c, 4, 54, 0
5, 12672, Note_on_c, 4, 43, 45
5, 12766, Note_on_c, 4, 43, 0
5, 12768, Note_on_c, 4, 55, 50
5, 12862, Note_on_c, 4, 55, 0
5, 12864, Note_on_c, 4, 55, 56
5, 12958, Note_on_c, 4, 55, 0
5, 12960, Note_on_c, 4, 55, 62
5, 13054, Note_on_c, 4, 55, 0
5, 13056, Note_on_c, 4, 40, 68
5, 13150, Note_on_c, 4, 40, 0
5, 13152, Note_on_c, 4, 52, 74
5, 13246, Note_on_c, 4, 52, 0
5, 13248, Note_on_c, 4, 52, 80
5, 13342, Note_on_c, 4, 52, 0
5, 13344, Note_on_c, 4, 52, 86
5, 13438, Note_on_c, 4, 52, 0
5, 13440, Note_on_c, 4, 50, 92
5, 13600, Note_on_c, 4, 50, 0
5, 14208, Note_on_c, 4, 38, 108
5, 14368, Note_on_c, 4, 38, 0
5, 14400, Note_on_c, 4, 50, 108
5, 14560, Note_on_c, 4, 50, 0
5, 14592, Note_on_c, 4, 53, 127
5, 14880, Note_on_c, 4, 53, 0
5, 14880, Note_on_c, 4, 52, 108
5, 14928, Note_on_c, 4, 52, 0
5, 14928, Note_on_c, 4, 50, 108
5, 14974, Note_on_c, 4, 50, 0
5, 14976, Note_on_c, 4, 49, 108
5, 15008, Note_on_c, 4, 49, 0
5, 15072, Note_on_c, 4, 50, 108
5, 15104, Note_on_c, 4, 50, 0
5, 15168, Note_on_c, 4, 52, 108
5, 15200, Note_on_c, 4, 52, 0
5, 15264, Note_on_c, 4, 53, 108
5, 15296, Note_on_c, 4, 53, 0
5, 15360, Note_on_c, 4, 55, 108
5, 15454, Note_on_c, 4, 55, 0
5, 15744, Note_on_c, 4, 45, 108
5, 15904, Note_on_c, 4, 45, 0
5, 15936, Note_on_c, 4, 52, 108
5, 16096, Note_on_c, 4, 52, 0
5, 16128, Note_on_c, 4, 55, 127
5, 16416, Note_on_c, 4, 55, 0
5, 16416, Note_on_c, 4, 53, 108
5, 16464, Note_on_c, 4, 53, 0
5, 16464, Note_on_c, 4, 52, 108
5, 16510, Note_on_c, 4, 52, 0
5, 16512, Note_on_c, 4, 50, 108
5, 16544, Note_on_c, 4, 50, 0
5, 16608, Note_on_c, 4, 52, 108
5, 16640, Note_on_c, 4, 52, 0
5, 16704, Note_on_c, 4, 53, 108
5, 16736, Note_on_c, 4, 53, 0
5, 16800, Note_on_c, 4, 55, 108
5, 16832, Note_on_c, 4, 55, 0
5, 16896, Note_on_c, 4, 57, 108
5, 16990, Note_on_c, 4, 57, 0
5, 17280, Note_on_c, 4, 46, 108
5, 17374, Note_on_c, 4, 46, 0
5, 17376, Note_on_c, 4, 48, 108
5, 17470, Note_on_c, 4, 48, 0
5, 17472, Note_on_c, 4, 50, 108
5, 17566, Note_on_c, 4, 50, 0
5, 17568, Note_on_c, 4, 51, 108
5, 17662, Note_on_c, 4, 51, 0
5, 17664, Note_on_c, 4, 53, 108
5, 17758, Note_on_c, 4, 53, 0
5, 18048, Note_on_c, 4, 44, 108
5, 18142, Note_on_c, 4, 44, 0
5, 18144, Note_on_c, 4, 45, 108
5, 18238, Note_on_c, 4, 45, 0
5, 18240, Note_on_c, 4, 47, 108
5, 18334, Note_on_c, 4, 47, 0
5, 18336, Note_on_c, 4, 49, 108
5, 18430, Note_on_c, 4, 49, 0
5, 18432, Note_on_c, 4, 50, 108
5, 18592, Note_on_c, 4, 50, 0
5, 18624, Note_on_c, 4, 44, 108
5, 18784, Note_on_c, 4, 44, 0
5, 18816, Note_on_c, 4, 45, 108
5, 18864, Note_on_c, 4, 45, 0
5, 19104, Note_on_c, 4, 57, 108
5, 19136, Note_on_c, 4, 57, 0
5, 19200, Note_on_c, 4, 45, 108
5, 19248, Note_on_c, 4, 45, 0
5, 19488, Note_on_c, 4, 57, 108
5, 19520, Note_on_c, 4, 57, 0
5, 19584, Note_on_c, 4, 45, 108
5, 19632, Note_on_c, 4, 45, 0
5, 19872, Note_on_c, 4, 57, 108
5, 19904, Note_on_c, 4, 57, 0
5, 19968, Note_on_c, 4, 45, 108
5, 20016, Note_on_c, 4, 45, 0
5, 20256, Note_on_c, 4, 57, 108
5, 20288, Note_on_c, 4, 57, 0
5, 20352, Note_on_c, 4, 45, 108
5, 20400, Note_on_c, 4, 45, 0
5, 24192, Note_on_c, 4, 38, 45
5, 24224, Note_on_c, 4, 38, 0
5, 24288, Note_on_c, 4, 42, 45
5, 24320, Note_on_c, 4, 42, 0
5, 24384, Note_on_c, 4, 45, 45
5, 24416, Note_on_c, 4, 45, 0
5, 24480, Note_on_c, 4, 49, 45
5, 24512, Note_on_c, 4, 49, 0
5, 24576, Note_on_c, 4, 50, 45
5, 24670, Note_on_c, 4, 50, 0
5, 24672, Note_on_c, 4, 49, 45
5, 24766, Note_on_c, 4, 49, 0
5, 24768, Note_on_c, 4, 50, 45
5, 24862, Note_on_c, 4, 50, 0
5, 24864, Note_on_c, 4, 50, 45
5, 24958, Note_on_c, 4, 50, 0
5, 24960, Note_on_c, 4, 52, 45
5, 25120, Note_on_c, 4, 52, 0
5, 25728, Note_on_c, 4, 42, 45
5, 25760, Note_on_c, 4, 42, 0
5, 25824, Note_on_c, 4, 45, 45
5, 25856, Note_on_c, 4, 45, 0
5, 25920, Note_on_c, 4, 50, 45
5, 25952, Note_on_c, 4, 50, 0
5, 26016, Note_on_c, 4, 52, 45
5, 26048, Note_on_c, 4, 52, 0
5, 26112, Note_on_c, 4, 54, 45
5, 26206, Note_on_c, 4, 54, 0
5, 26208, Note_on_c, 4, 53, 45
5, 26302, Note_on_c, 4, 53, 0
5, 26304, Note_on_c, 4, 54, 45
5, 26398, Note_on_c, 4, 54, 0
5, 26400, Note_on_c, 4, 54, 45
5, 26494, Note_on_c, 4, 54, 0
5, 26496, Note_on_c, 4, 55, 45
5, 26656, Note_on_c, 4, 55, 0
5, 27264, Note_on_c, 4, 57, 63
5, 27424, Note_on_c, 4, 57, 0
5, 27648, Note_on_c, 4, 57, 63
5, 27808, Note_on_c, 4, 57, 0
5, 28032, Note_on_c, 4, 57, 63
5, 28192, Note_on_c, 4, 57, 0
5, 28416, Note_on_c, 4, 57, 63
5, 28576, Note_on_c, 4, 57, 0
5, 28800, Note_on_c, 4, 45, 45
5, 29136, Note_on_c, 4, 45, 0
5, 29184, Note_on_c, 4, 46, 45
5, 29376, Note_on_c, 4, 46, 0
5, 29376, Note_on_c, 4, 43, 45
5, 29568, Note_on_c, 4, 43, 0
5, 29568, Note_on_c, 4, 45, 45
5, 29904, Note_on_c, 4, 45, 0
5, 29952, Note_on_c, 4, 46, 45
5, 30144, Note_on_c, 4, 46, 0
5, 30144, Note_on_c, 4, 43, 45
5, 30336, Note_on_c, 4, 43, 0
5, 30336, Note_on_c, 4, 45, 45
5, 30672, Note_on_c, 4, 45, 0
5, 30720, Note_on_c, 4, 46, 45
5, 30912, Note_on_c, 4, 46, 0
5, 30912, Note_on_c, 4, 43, 45
5, 31104, Note_on_c, 4, 43, 0
5, 31104, Note_on_c, 4, 45, 45
5, 31440, Note_on_c, 4, 45, 0
5, 31488, Note_on_c, 4, 46, 45
5, 31680, Note_on_c, 4, 46, 0
5, 31680, Note_on_c, 4, 43, 45
5, 31840, Note_on_c, 4, 43, 0
5, 31872, Note_on_c, 4, 44, 45
5, 31968, Note_on_c, 4, 44, 0
5, 31968, Note_on_c, 4, 47, 50
5, 32064, Note_on_c, 4, 47, 0
5, 32064, Note_on_c, 4, 50, 56
5, 32160, Note_on_c, 4, 50, 0
5, 32160, Note_on_c, 4, 53, 62
5, 32254, Note_on_c, 4, 53, 0
5, 32256, Note_on_c, 4, 56, 68
5, 32416, Note_on_c, 4, 56, 0
5, 32544, Note_on_c, 4, 47, 86
5, 32638, Note_on_c, 4, 47, 0
5, 32640, Note_on_c, 4, 45, 92
5, 32734, Note_on_c, 4, 45, 0
5, 32736, Note_on_c, 4, 45, 92
5, 32830, Note_on_c, 4, 45, 0
5, 32832, Note_on_c, 4, 45, 92
5, 32926, Note_on_c, 4, 45, 0
5, 32928, Note_on_c, 4, 45, 92
5, 33022, Note_on_c, 4, 45, 0
5, 33024, Note_on_c, 4, 45, 92
5, 33118, Note_on_c, 4, 45, 0
5, 33120, Note_on_c, 4, 45, 92
5, 33214, Note_on_c, 4, 45, 0
5, 33216, Note_on_c, 4, 45, 92
5, 33310, Note_on_c, 4, 45, 0
5, 33312, Note_on_c, 4, 45, 92
5, 33406, Note_on_c, 4, 45, 0
5, 33408, Note_on_c, 4, 57, 45
5, 33744, Note_on_c, 4, 57, 0
5, 33792, Note_on_c, 4, 58, 45
5, 33984, Note_on_c, 4, 58, 0
5, 33984, Note_on_c, 4, 55, 45
5, 34176, Note_on_c, 4, 55, 0
5, 34176, Note_on_c, 4, 57, 45
5, 34512, Note_on_c, 4, 57, 0
5, 34560, Note_on_c, 4, 58, 45
5, 34752, Note_on_c, 4, 58, 0
5, 34752, Note_on_c, 4, 55, 45
5, 34944, Note_on_c, 4, 55, 0
5, 34944, Note_on_c, 4, 57, 45
5, 35280, Note_on_c, 4, 57, 0
5, 35328, Note_on_c, 4, 58, 45
5, 35520, Note_on_c, 4, 58, 0
5, 35520, Note_on_c, 4, 55, 45
5, 35712, Note_on_c, 4, 55, 0
5, 35712, Note_on_c, 4, 57, 30
5, 35872, Note_on_c, 4, 57, 0
5, 35904, Note_on_c, 4, 58, 30
5, 36000, Note_on_c, 4, 58, 0
5, 36000, Note_on_c, 4, 55, 30
5, 36096, Note_on_c, 4, 55, 0
5, 36096, Note_on_c, 4, 52, 30
5, 36256, Note_on_c, 4, 52, 0
5, 36288, Note_on_c, 4, 55, 30
5, 36384, Note_on_c, 4, 55, 0
5, 36384, Note_on_c, 4, 52, 30
5, 36480, Note_on_c, 4, 52, 0
5, 36480, Note_on_c, 4, 48, 30
5, 39120, Note_on_c, 4, 48, 0
5, 39552, Note_on_c, 4, 54, 30
5, 39646, Note_on_c, 4, 54, 0
5, 39648, Note_on_c, 4, 54, 33
5, 39742, Note_on_c, 4, 54, 0
5, 39744, Note_on_c, 4, 54, 36
5, 39838, Note_on_c, 4, 54, 0
5, 39840, Note_on_c, 4, 54, 40
5, 39934, Note_on_c, 4, 54, 0
5, 39936, Note_on_c, 4, 54, 44
5, 40030, Note_on_c, 4, 54, 0
5, 40032, Note_on_c, 4, 54, 48
5, 40126, Note_on_c, 4, 54, 0
5, 40128, Note_on_c, 4, 54, 52
5, 40222, Note_on_c, 4, 54, 0
5, 40224, Note_on_c, 4, 54, 56
5, 40318, Note_on_c, 4, 54, 0
5, 40320, Note_on_c, 4, 52, 60
5, 40414, Note_on_c, 4, 52, 0
5, 40416, Note_on_c, 4, 52, 64
5, 40510, Note_on_c, 4, 52, 0
5, 40512, Note_on_c, 4, 52, 68
5, 40606, Note_on_c, 4, 52, 0
5, 40608, Note_on_c, 4, 52, 72
5, 40702, Note_on_c, 4, 52, 0
5, 40704, Note_on_c, 4, 52, 76
5, 40798, Note_on_c, 4, 52, 0
5, 40800, Note_on_c, 4, 52, 80
5, 40894, Note_on_c, 4, 52, 0
5, 40896, Note_on_c, 4, 52, 84
5, 40990, Note_on_c, 4, 52, 0
5, 40992, Note_on_c, 4, 52, 88
5, 41086, Note_on_c, 4, 52, 0
5, 41088, Note_on_c, 4, 45, 92
5, 41182, Note_on_c, 4, 45, 0
5, 41184, Note_on_c, 4, 57, 92
5, 41278, Note_on_c, 4, 57, 0
5, 41280, Note_on_c, 4, 57, 92
5, 41374, Note_on_c, 4, 57, 0
5, 41376, Note_on_c, 4, 57, 92
5, 41470, Note_on_c, 4, 57, 0
5, 41472, Note_on_c, 4, 58, 92
5, 41566, Note_on_c, 4, 58, 0
5, 41568, Note_on_c, 4, 58, 92
5, 41662, Note_on_c, 4, 58, 0
5, 41664, Note_on_c, 4, 58, 92
5, 41758, Note_on_c, 4, 58, 0
5, 41760, Note_on_c, 4, 58, 92
5, 41854, Note_on_c, 4, 58, 0
5, 41856, Note_on_c, 4, 59, 108
5, 41950, Note_on_c, 4, 59, 0
5, 41952, Note_on_c, 4, 59, 108
5, 42046, Note_on_c, 4, 59, 0
5, 42048, Note_on_c, 4, 56, 108
5, 42142, Note_on_c, 4, 56, 0
5, 42144, Note_on_c, 4, 56, 108
5, 42238, Note_on_c, 4, 56, 0
5, 42240, Note_on_c, 4, 57, 108
5, 42334, Note_on_c, 4, 57, 0
5, 42336, Note_on_c, 4, 57, 108
5, 42430, Note_on_c, 4, 57, 0
5, 42432, Note_on_c, 4, 45, 108
5, 42526, Note_on_c, 4, 45, 0
5, 42528, Note_on_c, 4, 45, 108
5, 42622, Note_on_c, 4, 45, 0
5, 42624, Note_on_c, 4, 50, 108
5, 42672, Note_on_c, 4, 50, 0
5, 42672, Note_on_c, 4, 52, 108
5, 42720, Note_on_c, 4, 52, 0
5, 42720, Note_on_c, 4, 54, 108
5, 42768, Note_on_c, 4, 54, 0
5, 42768, Note_on_c, 4, 55, 108
5, 42816, Note_on_c, 4, 55, 0
5, 42816, Note_on_c, 4, 57, 108
5, 42864, Note_on_c, 4, 57, 0
5, 42864, Note_on_c, 4, 55, 108
5, 42912, Note_on_c, 4, 55, 0
5, 42912, Note_on_c, 4, 54, 108
5, 42960, Note_on_c, 4, 54, 0
5, 42960, Note_on_c, 4, 52, 108
5, 43008, Note_on_c, 4, 52, 0
5, 43008, Note_on_c, 4, 50, 108
5, 43056, Note_on_c, 4, 50, 0
5, 43056, Note_on_c, 4, 52, 108
5, 43104, Note_on_c, 4, 52, 0
5, 43104, Note_on_c, 4, 54, 108
5, 43152, Note_on_c, 4, 54, 0
5, 43152, Note_on_c, 4, 55, 108
5, 43200, Note_on_c, 4, 55, 0
5, 43200, Note_on_c, 4, 57, 108
5, 43248, Note_on_c, 4, 57, 0
5, 43248, Note_on_c, 4, 59, 108
5, 43296, Note_on_c, 4, 59, 0
5, 43296, Note_on_c, 4, 61, 108
5, 43342, Note_on_c, 4, 61, 0
5, 43392, Note_on_c, 4, 50, 108
5, 43486, Note_on_c, 4, 50, 0
5, 43488, Note_on_c, 4, 50, 108
5, 43582, Note_on_c, 4, 50, 0
5, 43584, Note_on_c, 4, 50, 108
5, 43678, Note_on_c, 4, 50, 0
5, 43680, Note_on_c, 4, 50, 108
5, 43774, Note_on_c, 4, 50, 0
5, 43776, Note_on_c, 4, 50, 108
5, 43870, Note_on_c, 4, 50, 0
5, 43872, Note_on_c, 4, 50, 108
5, 43966, Note_on_c, 4, 50, 0
5, 43968, Note_on_c, 4, 50, 108
5, 44062, Note_on_c, 4, 50, 0
5, 44064, Note_on_c, 4, 50, 108
5, 44158, Note_on_c, 4, 50, 0
5, 44160, Note_on_c, 4, 38, 108
5, 44208, Note_on_c, 4, 38, 0
5, 44208, Note_on_c, 4, 40, 108
5, 44256, Note_on_c, 4, 40, 0
5, 44256, Note_on_c, 4, 42, 108
5, 44304, Note_on_c, 4, 42, 0
5, 44304, Note_on_c, 4, 43, 108
5, 44352, Note_on_c, 4, 43, 0
5, 44352, Note_on_c, 4, 45, 108
5, 44400, Note_on_c, 4, 45, 0
5, 44400, Note_on_c, 4, 43, 108
5, 44448, Note_on_c, 4, 43, 0
5, 44448, Note_on_c, 4, 42, 108
5, 44496, Note_on_c, 4, 42, 0
5, 44496, Note_on_c, 4, 40, 108
5, 44544, Note_on_c, 4, 40, 0
5, 44544, Note_on_c, 4, 38, 108
5, 44592, Note_on_c, 4, 38, 0
5, 44592, Note_on_c, 4, 40, 108
5, 44640, Note_on_c, 4, 40, 0
5, 44640, Note_on_c, 4, 42, 108
5, 44688, Note_on_c, 4, 42, 0
5, 44688, Note_on_c, 4, 43, 108
5, 44736, Note_on_c, 4, 43, 0
5, 44736, Note_on_c, 4, 45, 108
5, 44784, Note_on_c, 4, 45, 0
5, 44784, Note_on_c, 4, 47, 108
5, 44832, Note_on_c, 4, 47, 0
5, 44832, Note_on_c, 4, 49, 108
5, 44880, Note_on_c, 4, 49, 0
5, 44880, Note_on_c, 4, 50, 108
5, 44926, Note_on_c, 4, 50, 0
5, 44928, Note_on_c, 4, 38, 108
5, 45022, Note_on_c, 4, 38, 0
5, 45024, Note_on_c, 4, 50, 108
5, 45118, Note_on_c, 4, 50, 0
5, 45120, Note_on_c, 4, 50, 108
5, 45214, Note_on_c, 4, 50, 0
5, 45216, Note_on_c, 4, 50, 108
5, 45310, Note_on_c, 4, 50, 0
5, 45312, Note_on_c, 4, 50, 108
5, 45406, Note_on_c, 4, 50, 0
5, 45408, Note_on_c, 4, 50, 108
5, 45502, Note_on_c, 4, 50, 0
5, 45504, Note_on_c, 4, 50, 108
5, 45598, Note_on_c, 4, 50, 0
5, 45600, Note_on_c, 4, 50, 108
5, 45694, Note_on_c, 4, 50, 0
5, 45696, Note_on_c, 4, 38, 108
5, 45790, Note_on_c, 4, 38, 0
5, 45792, Note_on_c, 4, 50, 108
5, 45886, Note_on_c, 4, 50, 0
5, 45888, Note_on_c, 4, 50, 108
5, 45982, Note_on_c, 4, 50, 0
5, 45984, Note_on_c, 4, 50, 108
5, 46078, Note_on_c, 4, 50, 0
5, 46080, Note_on_c, 4, 38, 108
5, 46174, Note_on_c, 4, 38, 0
5, 46176, Note_on_c, 4, 50, 108
5, 46270, Note_on_c, 4, 50, 0
5, 46272, Note_on_c, 4, 50, 108
5, 46366, Note_on_c, 4, 50, 0
5, 46368, Note_on_c, 4, 50, 108
5, 46462, Note_on_c, 4, 50, 0
5, 46464, Note_on_c, 4, 38, 108
5, 46624, Note_on_c, 4, 38, 0
5, 46848, Note_on_c, 4, 57, 108
5, 46896, Note_on_c, 4, 57, 0
5, 47040, Note_on_c, 4, 54, 108
5, 47088, Note_on_c, 4, 54, 0
5, 47232, Note_on_c, 4, 50, 127
5, 47568, Note_on_c, 4, 50, 0
5, 47616, Note_on_c, 4, 54, 108
5, 47664, Note_on_c, 4, 54, 0
5, 47808, Note_on_c, 4, 50, 108
5, 47856, Note_on_c, 4, 50, 0
5, 48000, Note_on_c, 4, 45, 127
5, 48336, Note_on_c, 4, 45, 0
5, 48384, Note_on_c, 4, 50, 108
5, 48432, Note_on_c, 4, 50, 0
5, 48576, Note_on_c, 4, 45, 108
5, 48624, Note_on_c, 4, 45, 0
5, 48768, Note_on_c, 4, 42, 108
5, 48928, Note_on_c, 4, 42, 0
5, 49056, Note_on_c, 4, 54, 108
5, 49088, Note_on_c, 4, 54, 0
5, 49152, Note_on_c, 4, 50, 127
5, 49312, Note_on_c, 4, 50, 0
5, 49440, Note_on_c, 4, 50, 108
5, 49472, Note_on_c, 4, 50, 0
5, 49536, Note_on_c, 4, 45, 127
5, 49696, Note_on_c, 4, 45, 0
5, 49728, Note_on_c, 4, 50, 108
5, 49760, Note_on_c, 4, 50, 0
5, 49824, Note_on_c, 4, 45, 108
5, 49856, Note_on_c, 4, 45, 0
5, 49920, Note_on_c, 4, 42, 127
5, 50080, Note_on_c, 4, 42, 0
5, 50112, Note_on_c, 4, 45, 108
5, 50144, Note_on_c, 4, 45, 0
5, 50208, Note_on_c, 4, 42, 108
5, 50240, Note_on_c, 4, 42, 0
5, 50304, Note_on_c, 4, 38, 127
5, 50464, Note_on_c, 4, 38, 0
5, 50496, Note_on_c, 4, 45, 108
5, 50528, Note_on_c, 4, 45, 0
5, 50592, Note_on_c, 4, 42, 108
5, 50624, Note_on_c, 4, 42, 0
5, 50688, Note_on_c, 4, 38, 127
5, 50848, Note_on_c, 4, 38, 0
5, 50880, Note_on_c, 4, 45, 108
5, 50912, Note_on_c, 4, 45, 0
5, 50976, Note_on_c, 4, 42, 108
5, 51008, Note_on_c, 4, 42, 0
5, 51072, Note_on_c, 4, 38, 108
5, 51408, Note_on_c, 4, 38, 0
5, 51456, Note_on_c, 4, 45, 108
5, 51488, Note_on_c, 4, 45, 0
5, 51552, Note_on_c, 4, 42, 93
5, 51584, Note_on_c, 4, 42, 0
5, 51648, Note_on_c, 4, 38, 77
5, 52176, Note_on_c, 4, 38, 0
5, 52224, Note_on_c, 4, 45, 45
5, 52320, Note_on_c, 4, 45, 0
5, 52320, Note_on_c, 4, 42, 45
5, 52414, Note_on_c, 4, 42, 0
5, 52416, Note_on_c, 4, 38, 45
5, 52944, Note_on_c, 4, 38, 0
5, 52992, Note_on_c, 4, 48, 30
5, 53088, Note_on_c, 4, 48, 0
5, 53088, Note_on_c, 4, 45, 30
5, 53182, Note_on_c, 4, 45, 0
5, 53184, Note_on_c, 4, 38, 30
5, 54480, Note_on_c, 4, 38, 0
5, 54528, Note_on_c, 4, 39, 45
5, 54688, Note_on_c, 4, 39, 0
5, 54720, Note_on_c, 4, 51, 45
5, 54880, Note_on_c, 4, 51, 0
5, 54912, Note_on_c, 4, 51, 45
5, 55168, Note_on_c, 4, 51, 0
5, 55200, Note_on_c, 4, 51, 45
5, 55294, Note_on_c, 4, 51, 0
5, 55296, Note_on_c, 4, 53, 45
5, 55328, Note_on_c, 4, 53, 0
5, 55392, Note_on_c, 4, 51, 45
5, 55424, Note_on_c, 4, 51, 0
5, 55488, Note_on_c, 4, 50, 45
5, 55520, Note_on_c, 4, 50, 0
5, 55584, Note_on_c, 4, 48, 45
5, 55616, Note_on_c, 4, 48, 0
5, 55680, Note_on_c, 4, 46, 45
5, 55774, Note_on_c, 4, 46, 0
5, 56064, Note_on_c, 4, 58, 45
5, 56112, Note_on_c, 4, 58, 0
5, 56256, Note_on_c, 4, 58, 45
5, 56304, Note_on_c, 4, 58, 0
5, 56448, Note_on_c, 4, 58, 45
5, 56704, Note_on_c, 4, 58, 0
5, 56736, Note_on_c, 4, 56, 45
5, 56830, Note_on_c, 4, 56, 0
5, 56832, Note_on_c, 4, 55, 45
5, 56864, Note_on_c, 4, 55, 0
5, 56928, Note_on_c, 4, 60, 45
5, 56960, Note_on_c, 4, 60, 0
5, 57024, Note_on_c, 4, 56, 45
5, 57056, Note_on_c, 4, 56, 0
5, 57120, Note_on_c, 4, 58, 45
5, 57152, Note_on_c, 4, 58, 0
5, 57216, Note_on_c, 4, 51, 45
5, 57376, Note_on_c, 4, 51, 0
5, 59136, Note_on_c, 4, 50, 45
5, 59296, Note_on_c, 4, 50, 0
5, 59424, Note_on_c, 4, 50, 45
5, 59518, Note_on_c, 4, 50, 0
5, 59808, Note_on_c, 4, 51, 45
5, 59904, Note_on_c, 4, 51, 0
5, 59904, Note_on_c, 4, 49, 45
5, 60064, Note_on_c, 4, 49, 0
5, 60192, Note_on_c, 4, 49, 45
5, 60288, Note_on_c, 4, 49, 0
5, 60288, Note_on_c, 4, 48, 45
5, 60448, Note_on_c, 4, 48, 0
5, 60576, Note_on_c, 4, 48, 45
5, 60608, Note_on_c, 4, 48, 0
5, 60672, Note_on_c, 4, 48, 46
5, 60720, Note_on_c, 4, 48, 0
5, 60960, Note_on_c, 4, 46, 50
5, 60992, Note_on_c, 4, 46, 0
5, 61056, Note_on_c, 4, 44, 51
5, 61104, Note_on_c, 4, 44, 0
5, 61344, Note_on_c, 4, 52, 55
5, 61438, Note_on_c, 4, 52, 0
5, 61440, Note_on_c, 4, 53, 56
5, 61600, Note_on_c, 4, 53, 0
5, 61728, Note_on_c, 4, 51, 60
5, 61822, Note_on_c, 4, 51, 0
5, 61824, Note_on_c, 4, 50, 61
5, 61984, Note_on_c, 4, 50, 0
5, 62112, Note_on_c, 4, 53, 66
5, 62206, Note_on_c, 4, 53, 0
5, 62208, Note_on_c, 4, 51, 68
5, 62368, Note_on_c, 4, 51, 0
5, 62496, Note_on_c, 4, 47, 74
5, 62590, Note_on_c, 4, 47, 0
5, 62592, Note_on_c, 4, 48, 76
5, 62752, Note_on_c, 4, 48, 0
5, 62880, Note_on_c, 4, 46, 82
5, 62974, Note_on_c, 4, 46, 0
5, 62976, Note_on_c, 4, 45, 84
5, 63136, Note_on_c, 4, 45, 0
5, 63264, Note_on_c, 4, 44, 90
5, 63358, Note_on_c, 4, 44, 0
5, 63360, Note_on_c, 4, 43, 92
5, 63454, Note_on_c, 4, 43, 0
5, 63456, Note_on_c, 4, 47, 92
5, 63550, Note_on_c, 4, 47, 0
5, 63552, Note_on_c, 4, 50, 92
5, 63646, Note_on_c, 4, 50, 0
5, 63648, Note_on_c, 4, 55, 92
5, 63742, Note_on_c, 4, 55, 0
5, 63744, Note_on_c, 4, 43, 92
5, 63838, Note_on_c, 4, 43, 0
5, 63840, Note_on_c, 4, 48, 92
5, 63934, Note_on_c, 4, 48, 0
5, 63936, Note_on_c, 4, 51, 92
5, 64030, Note_on_c, 4, 51, 0
5, 64032, Note_on_c, 4, 55, 92
5, 64126, Note_on_c, 4, 55, 0
5, 64128, Note_on_c, 4, 43, 92
5, 64222, Note_on_c, 4, 43, 0
5, 64224, Note_on_c, 4, 47, 92
5, 64318, Note_on_c, 4, 47, 0
5, 64320, Note_on_c, 4, 50, 92
5, 64414, Note_on_c, 4, 50, 0
5, 64416, Note_on_c, 4, 55, 92
5, 64510, Note_on_c, 4, 55, 0
5, 64512, Note_on_c, 4, 43, 92
5, 64606, Note_on_c, 4, 43, 0
5, 64608, Note_on_c, 4, 48, 92
5, 64702, Note_on_c, 4, 48, 0
5, 64704, Note_on_c, 4, 51, 92
5, 64798, Note_on_c, 4, 51, 0
5, 64800, Note_on_c, 4, 55, 92
5, 64894, Note_on_c, 4, 55, 0
5, 64896, Note_on_c, 4, 43, 92
5, 64990, Note_on_c, 4, 43, 0
5, 64992, Note_on_c, 4, 47, 92
5, 65086, Note_on_c, 4, 47, 0
5, 65088, Note_on_c, 4, 50, 92
5, 65182, Note_on_c, 4, 50, 0
5, 65184, Note_on_c, 4, 55, 92
5, 65278, Note_on_c, 4, 55, 0
5, 65280, Note_on_c, 4, 43, 92
5, 65374, Note_on_c, 4, 43, 0
5, 65376, Note_on_c, 4, 48, 92
5, 65470, Note_on_c, 4, 48, 0
5, 65472, Note_on_c, 4, 51, 92
5, 65566, Note_on_c, 4, 51, 0
5, 65568, Note_on_c, 4, 55, 92
5, 65662, Note_on_c, 4, 55, 0
5, 65664, Note_on_c, 4, 43, 92
5, 65758, Note_on_c, 4, 43, 0
5, 65760, Note_on_c, 4, 47, 92
5, 65854, Note_on_c, 4, 47, 0
5, 65856, Note_on_c, 4, 50, 92
5, 65950, Note_on_c, 4, 50, 0
5, 65952, Note_on_c, 4, 55, 92
5, 66046, Note_on_c, 4, 55, 0
5, 66048, Note_on_c, 4, 43, 92
5, 66142, Note_on_c, 4, 43, 0
5, 66144, Note_on_c, 4, 48, 92
5, 66238, Note_on_c, 4, 48, 0
5, 66240, Note_on_c, 4, 51, 92
5, 66334, Note_on_c, 4, 51, 0
5, 66336, Note_on_c, 4, 55, 92
5, 66430, Note_on_c, 4, 55, 0
5, 66432, Note_on_c, 4, 43, 92
5, 66592, Note_on_c, 4, 43, 0
5, 67200, Note_on_c, 4, 43, 45
5, 67360, Note_on_c, 4, 43, 0
5, 67968, Note_on_c, 4, 43, 45
5, 68128, Note_on_c, 4, 43, 0
5, 69504, Note_on_c, 4, 36, 127
5, 69598, Note_on_c, 4, 36, 0
5, 69600, Note_on_c, 4, 48, 45
5, 69694, Note_on_c, 4, 48, 0
5, 69696, Note_on_c, 4, 48, 45
5, 69790, Note_on_c, 4, 48, 0
5, 69792, Note_on_c, 4, 48, 45
5, 69886, Note_on_c, 4, 48, 0
5, 69888, Note_on_c, 4, 48, 45
5, 69982, Note_on_c, 4, 48, 0
5, 69984, Note_on_c, 4, 48, 45
5, 70078, Note_on_c, 4, 48, 0
5, 70080, Note_on_c, 4, 48, 45
5, 70174, Note_on_c, 4, 48, 0
5, 70176, Note_on_c, 4, 48, 45
5, 70270, Note_on_c, 4, 48, 0
5, 70272, Note_on_c, 4, 48, 45
5, 70366, Note_on_c, 4, 48, 0
5, 70368, Note_on_c, 4, 48, 45
5, 70462, Note_on_c, 4, 48, 0
5, 70464, Note_on_c, 4, 48, 45
5, 70558, Note_on_c, 4, 48, 0
5, 70560, Note_on_c, 4, 48, 45
5, 70654, Note_on_c, 4, 48, 0
5, 70656, Note_on_c, 4, 48, 45
5, 70750, Note_on_c, 4, 48, 0
5, 70752, Note_on_c, 4, 48, 45
5, 70846, Note_on_c, 4, 48, 0
5, 70848, Note_on_c, 4, 48, 45
5, 70942, Note_on_c, 4, 48, 0
5, 70944, Note_on_c, 4, 48, 45
5, 71038, Note_on_c, 4, 48, 0
5, 71040, Note_on_c, 4, 48, 45
5, 71134, Note_on_c, 4, 48, 0
5, 71136, Note_on_c, 4, 48, 45
5, 71230, Note_on_c, 4, 48, 0
5, 71232, Note_on_c, 4, 48, 45
5, 71326, Note_on_c, 4, 48, 0
5, 71328, Note_on_c, 4, 48, 45
5, 71422, Note_on_c, 4, 48, 0
5, 71424, Note_on_c, 4, 48, 45
5, 71518, Note_on_c, 4, 48, 0
5, 71520, Note_on_c, 4, 48, 45
5, 71614, Note_on_c, 4, 48, 0
5, 71616, Note_on_c, 4, 48, 45
5, 71710, Note_on_c, 4, 48, 0
5, 71712, Note_on_c, 4, 48, 45
5, 71806, Note_on_c, 4, 48, 0
5, 71808, Note_on_c, 4, 48, 45
5, 71902, Note_on_c, 4, 48, 0
5, 71904, Note_on_c, 4, 48, 45
5, 71998, Note_on_c, 4, 48, 0
5, 72000, Note_on_c, 4, 48, 45
5, 72094, Note_on_c, 4, 48, 0
5, 72096, Note_on_c, 4, 48, 45
5, 72190, Note_on_c, 4, 48, 0
5, 72192, Note_on_c, 4, 48, 45
5, 72286, Note_on_c, 4, 48, 0
5, 72288, Note_on_c, 4, 48, 45
5, 72382, Note_on_c, 4, 48, 0
5, 72384, Note_on_c, 4, 48, 45
5, 72478, Note_on_c, 4, 48, 0
5, 72480, Note_on_c, 4, 48, 45
5, 72574, Note_on_c, 4, 48, 0
5, 72576, Note_on_c, 4, 43, 45
5, 72624, Note_on_c, 4, 43, 0
5, 72768, Note_on_c, 4, 48, 45
5, 72816, Note_on_c, 4, 48, 0
5, 72960, Note_on_c, 4, 52, 63
5, 73248, Note_on_c, 4, 52, 0
5, 73248, Note_on_c, 4, 50, 45
5, 73296, Note_on_c, 4, 50, 0
5, 73296, Note_on_c, 4, 48, 45
5, 73342, Note_on_c, 4, 48, 0
5, 73344, Note_on_c, 4, 47, 45
5, 73376, Note_on_c, 4, 47, 0
5, 73440, Note_on_c, 4, 48, 45
5, 73472, Note_on_c, 4, 48, 0
5, 73536, Note_on_c, 4, 50, 45
5, 73568, Note_on_c, 4, 50, 0
5, 73632, Note_on_c, 4, 52, 45
5, 73664, Note_on_c, 4, 52, 0
5, 73728, Note_on_c, 4, 53, 45
5, 73822, Note_on_c, 4, 53, 0
5, 74112, Note_on_c, 4, 43, 45
5, 74160, Note_on_c, 4, 43, 0
5, 74304, Note_on_c, 4, 50, 45
5, 74352, Note_on_c, 4, 50, 0
5, 74496, Note_on_c, 4, 53, 63
5, 74784, Note_on_c, 4, 53, 0
5, 74784, Note_on_c, 4, 52, 45
5, 74832, Note_on_c, 4, 52, 0
5, 74832, Note_on_c, 4, 50, 45
5, 74878, Note_on_c, 4, 50, 0
5, 74880, Note_on_c, 4, 48, 45
5, 74912, Note_on_c, 4, 48, 0
5, 74976, Note_on_c, 4, 50, 45
5, 75008, Note_on_c, 4, 50, 0
5, 75072, Note_on_c, 4, 52, 45
5, 75104, Note_on_c, 4, 52, 0
5, 75168, Note_on_c, 4, 53, 45
5, 75200, Note_on_c, 4, 53, 0
5, 75264, Note_on_c, 4, 55, 63
5, 75680, Note_on_c, 4, 55, 0
5, 75744, Note_on_c, 4, 53, 45
5, 75776, Note_on_c, 4, 53, 0
5, 75840, Note_on_c, 4, 52, 45
5, 75872, Note_on_c, 4, 52, 0
5, 75936, Note_on_c, 4, 50, 45
5, 75968, Note_on_c, 4, 50, 0
5, 76032, Note_on_c, 4, 48, 63
5, 76368, Note_on_c, 4, 48, 0
5, 76416, Note_on_c, 4, 52, 45
5, 76448, Note_on_c, 4, 52, 0
5, 76512, Note_on_c, 4, 50, 45
5, 76544, Note_on_c, 4, 50, 0
5, 76608, Note_on_c, 4, 48, 45
5, 76640, Note_on_c, 4, 48, 0
5, 76704, Note_on_c, 4, 47, 45
5, 76736, Note_on_c, 4, 47, 0
5, 76800, Note_on_c, 4, 45, 63
5, 77136, Note_on_c, 4, 45, 0
5, 77184, Note_on_c, 4, 48, 45
5, 77216, Note_on_c, 4, 48, 0
5, 77280, Note_on_c, 4, 47, 45
5, 77312, Note_on_c, 4, 47, 0
5, 77376, Note_on_c, 4, 45, 45
5, 77408, Note_on_c, 4, 45, 0
5, 77472, Note_on_c, 4, 43, 45
5, 77504, Note_on_c, 4, 43, 0
5, 77568, Note_on_c, 4, 42, 63
5, 77904, Note_on_c, 4, 42, 0
5, 77952, Note_on_c, 4, 45, 45
5, 77984, Note_on_c, 4, 45, 0
5, 78048, Note_on_c, 4, 43, 45
5, 78080, Note_on_c, 4, 43, 0
5, 78144, Note_on_c, 4, 42, 45
5, 78176, Note_on_c, 4, 42, 0
5, 78240, Note_on_c, 4, 40, 45
5, 78272, Note_on_c, 4, 40, 0
5, 78336, Note_on_c, 4, 38, 63
5, 78672, Note_on_c, 4, 38, 0
5, 78720, Note_on_c, 4, 38, 108
5, 78752, Note_on_c, 4, 38, 0
5, 78816, Note_on_c, 4, 40, 108
5, 78848, Note_on_c, 4, 40, 0
5, 78912, Note_on_c, 4, 42, 108
5, 78944, Note_on_c, 4, 42, 0
5, 79008, Note_on_c, 4, 43, 108
5, 79040, Note_on_c, 4, 43, 0
5, 79104, Note_on_c, 4, 45, 108
5, 79198, Note_on_c, 4, 45, 0
5, 79200, Note_on_c, 4, 47, 108
5, 79294, Note_on_c, 4, 47, 0
5, 79296, Note_on_c, 4, 48, 108
5, 79390, Note_on_c, 4, 48, 0
5, 79392, Note_on_c, 4, 47, 108
5, 79486, Note_on_c, 4, 47, 0
5, 79488, Note_on_c, 4, 48, 108
5, 79582, Note_on_c, 4, 48, 0
5, 79584, Note_on_c, 4, 47, 108
5, 79678, Note_on_c, 4, 47, 0
5, 79680, Note_on_c, 4, 45, 108
5, 79774, Note_on_c, 4, 45, 0
5, 79776, Note_on_c, 4, 43, 108
5, 79870, Note_on_c, 4, 43, 0
5, 79872, Note_on_c, 4, 42, 108
5, 79966, Note_on_c, 4, 42, 0
5, 79968, Note_on_c, 4, 40, 108
5, 80062, Note_on_c, 4, 40, 0
5, 80064, Note_on_c, 4, 38, 108
5, 80158, Note_on_c, 4, 38, 0
5, 80160, Note_on_c, 4, 37, 108
5, 80254, Note_on_c, 4, 37, 0
5, 80256, Note_on_c, 4, 38, 127
5, 80350, Note_on_c, 4, 38, 0
5, 80352, Note_on_c, 4, 40, 108
5, 80446, Note_on_c, 4, 40, 0
5, 80448, Note_on_c, 4, 42, 108
5, 80542, Note_on_c, 4, 42, 0
5, 80544, Note_on_c, 4, 43, 108
5, 80638, Note_on_c, 4, 43, 0
5, 80640, Note_on_c, 4, 45, 108
5, 80734, Note_on_c, 4, 45, 0
5, 80736, Note_on_c, 4, 47, 108
5, 80830, Note_on_c, 4, 47, 0
5, 80832, Note_on_c, 4, 48, 108
5, 80926, Note_on_c, 4, 48, 0
5, 80928, Note_on_c, 4, 47, 108
5, 81022, Note_on_c, 4, 47, 0
5, 81024, Note_on_c, 4, 48, 108
5, 81118, Note_on_c, 4, 48, 0
5, 81120, Note_on_c, 4, 47, 108
5, 81214, Note_on_c, 4, 47, 0
5, 81216, Note_on_c, 4, 45, 108
5, 81310, Note_on_c, 4, 45, 0
5, 81312, Note_on_c, 4, 43, 108
5, 81406, Note_on_c, 4, 43, 0
5, 81408, Note_on_c, 4, 42, 108
5, 81502, Note_on_c, 4, 42, 0
5, 81504, Note_on_c, 4, 40, 108
5, 81598, Note_on_c, 4, 40, 0
5, 81600, Note_on_c, 4, 38, 108
5, 81694, Note_on_c, 4, 38, 0
5, 81696, Note_on_c, 4, 37, 108
5, 81790, Note_on_c, 4, 37, 0
5, 81792, Note_on_c, 4, 38, 127
5, 81886, Note_on_c, 4, 38, 0
5, 81888, Note_on_c, 4, 40, 108
5, 81982, Note_on_c, 4, 40, 0
5, 81984, Note_on_c, 4, 42, 108
5, 82078, Note_on_c, 4, 42, 0
5, 82080, Note_on_c, 4, 43, 108
5, 82174, Note_on_c, 4, 43, 0
5, 82176, Note_on_c, 4, 45, 108
5, 82270, Note_on_c, 4, 45, 0
5, 82272, Note_on_c, 4, 47, 108
5, 82366, Note_on_c, 4, 47, 0
5, 82368, Note_on_c, 4, 48, 108
5, 82462, Note_on_c, 4, 48, 0
5, 82464, Note_on_c, 4, 49, 108
5, 82558, Note_on_c, 4, 49, 0
5, 82560, Note_on_c, 4, 50, 108
5, 82654, Note_on_c, 4, 50, 0
5, 82656, Note_on_c, 4, 49, 108
5, 82750, Note_on_c, 4, 49, 0
5, 82752, Note_on_c, 4, 50, 108
5, 82846, Note_on_c, 4, 50, 0
5, 82848, Note_on_c, 4, 49, 108
5, 82942, Note_on_c, 4, 49, 0
5, 82944, Note_on_c, 4, 50, 108
5, 83038, Note_on_c, 4, 50, 0
5, 83040, Note_on_c, 4, 49, 108
5, 83134, Note_on_c, 4, 49, 0
5, 83136, Note_on_c, 4, 50, 108
5, 83230, Note_on_c, 4, 50, 0
5, 83232, Note_on_c, 4, 49, 108
5, 83326, Note_on_c, 4, 49, 0
5, 83328, Note_on_c, 4, 50, 45
5, 84864, Note_on_c, 4, 50, 0
5, 84864, Note_on_c, 4, 50, 45
5, 86400, Note_on_c, 4, 50, 0
5, 86400, Note_on_c, 4, 50, 45
5, 87936, Note_on_c, 4, 50, 0
5, 87936, Note_on_c, 4, 50, 45
5, 88272, Note_on_c, 4, 50, 0
5, 88320, Note_on_c, 4, 51, 45
5, 88656, Note_on_c, 4, 51, 0
5, 88704, Note_on_c, 4, 50, 45
5, 89088, Note_on_c, 4, 50, 0
5, 89088, Note_on_c, 4, 51, 42
5, 89424, Note_on_c, 4, 51, 0
5, 89472, Note_on_c, 4, 50, 39
5, 89856, Note_on_c, 4, 50, 0
5, 89856, Note_on_c, 4, 51, 36
5, 90624, Note_on_c, 4, 51, 0
5, 90624, Note_on_c, 4, 51, 30
5, 92496, Note_on_c, 4, 51, 0
5, 92544, Note_on_c, 4, 44, 30
5, 92592, Note_on_c, 4, 44, 0
5, 92736, Note_on_c, 4, 44, 30
5, 92784, Note_on_c, 4, 44, 0
5, 92928, Note_on_c, 4, 44, 30
5, 93184, Note_on_c, 4, 44, 0
5, 93216, Note_on_c, 4, 44, 30
5, 93310, Note_on_c, 4, 44, 0
5, 93312, Note_on_c, 4, 46, 30
5, 93344, Note_on_c, 4, 46, 0
5, 93408, Note_on_c, 4, 46, 30
5, 93440, Note_on_c, 4, 46, 0
5, 93504, Note_on_c, 4, 46, 30
5, 93536, Note_on_c, 4, 46, 0
5, 93600, Note_on_c, 4, 46, 30
5, 93632, Note_on_c, 4, 46, 0
5, 93696, Note_on_c, 4, 46, 30
5, 93790, Note_on_c, 4, 46, 0
5, 94080, Note_on_c, 4, 58, 30
5, 94112, Note_on_c, 4, 58, 0
5, 94176, Note_on_c, 4, 58, 30
5, 94208, Note_on_c, 4, 58, 0
5, 94272, Note_on_c, 4, 58, 30
5, 94304, Note_on_c, 4, 58, 0
5, 94368, Note_on_c, 4, 58, 30
5, 94400, Note_on_c, 4, 58, 0
5, 94464, Note_on_c, 4, 58, 30
5, 94558, Note_on_c, 4, 58, 0
5, 94848, Note_on_c, 4, 57, 30
5, 94880, Note_on_c, 4, 57, 0
5, 94944, Note_on_c, 4, 57, 30
5, 94976, Note_on_c, 4, 57, 0
5, 95040, Note_on_c, 4, 57, 30
5, 95072, Note_on_c, 4, 57, 0
5, 95136, Note_on_c, 4, 57, 30
5, 95168, Note_on_c, 4, 57, 0
5, 95232, Note_on_c, 4, 57, 30
5, 95326, Note_on_c, 4, 57, 0
5, 95616, Note_on_c, 4, 57, 30
5, 95664, Note_on_c, 4, 57, 0
5, 95808, Note_on_c, 4, 55, 45
5, 95856, Note_on_c, 4, 55, 0
5, 96000, Note_on_c, 4, 54, 60
5, 96048, Note_on_c, 4, 54, 0
5, 96192, Note_on_c, 4, 52, 76
5, 96240, Note_on_c, 4, 52, 0
5, 96384, Note_on_c, 4, 50, 127
5, 98256, Note_on_c, 4, 50, 0
5, 98304, Note_on_c, 4, 50, 45
5, 98352, Note_on_c, 4, 50, 0
5, 98496, Note_on_c, 4, 55, 45
5, 98544, Note_on_c, 4, 55, 0
5, 98688, Note_on_c, 4, 59, 45
5, 98976, Note_on_c, 4, 59, 0
5, 98976, Note_on_c, 4, 57, 45
5, 99024, Note_on_c, 4, 57, 0
5, 99024, Note_on_c, 4, 55, 45
5, 99070, Note_on_c, 4, 55, 0
5, 99072, Note_on_c, 4, 54, 45
5, 99104, Note_on_c, 4, 54, 0
5, 99168, Note_on_c, 4, 55, 45
5, 99200, Note_on_c, 4, 55, 0
5, 99264, Note_on_c, 4, 57, 45
5, 99296, Note_on_c, 4, 57, 0
5, 99360, Note_on_c, 4, 59, 45
5, 99392, Note_on_c, 4, 59, 0
5, 99456, Note_on_c, 4, 60, 45
5, 99550, Note_on_c, 4, 60, 0
5, 99840, Note_on_c, 4, 55, 45
5, 99888, Note_on_c, 4, 55, 0
5, 100032, Note_on_c, 4, 55, 45
5, 100080, Note_on_c, 4, 55, 0
5, 100224, Note_on_c, 4, 52, 45
5, 100512, Note_on_c, 4, 52, 0
5, 100512, Note_on_c, 4, 54, 45
5, 100560, Note_on_c, 4, 54, 0
5, 100560, Note_on_c, 4, 55, 45
5, 100606, Note_on_c, 4, 55, 0
5, 100608, Note_on_c, 4, 57, 45
5, 100640, Note_on_c, 4, 57, 0
5, 100704, Note_on_c, 4, 57, 45
5, 100736, Note_on_c, 4, 57, 0
5, 100800, Note_on_c, 4, 45, 45
5, 100832, Note_on_c, 4, 45, 0
5, 100896, Note_on_c, 4, 45, 45
5, 100928, Note_on_c, 4, 45, 0
5, 100992, Note_on_c, 4, 50, 45
5, 101086, Note_on_c, 4, 50, 0
5, 101376, Note_on_c, 4, 50, 45
5, 101424, Note_on_c, 4, 50, 0
5, 101568, Note_on_c, 4, 57, 45
5, 101616, Note_on_c, 4, 57, 0
5, 101760, Note_on_c, 4, 60, 45
5, 102048, Note_on_c, 4, 60, 0
5, 102048, Note_on_c, 4, 59, 45
5, 102096, Note_on_c, 4, 59, 0
5, 102096, Note_on_c, 4, 57, 45
5, 102142, Note_on_c, 4, 57, 0
5, 102144, Note_on_c, 4, 55, 45
5, 102176, Note_on_c, 4, 55, 0
5, 102240, Note_on_c, 4, 55, 45
5, 102272, Note_on_c, 4, 55, 0
5, 102336, Note_on_c, 4, 57, 45
5, 102368, Note_on_c, 4, 57, 0
5, 102432, Note_on_c, 4, 58, 45
5, 102464, Note_on_c, 4, 58, 0
5, 102528, Note_on_c, 4, 59, 45
5, 102622, Note_on_c, 4, 59, 0
5, 102912, Note_on_c, 4, 59, 45
5, 102960, Note_on_c, 4, 59, 0
5, 103104, Note_on_c, 4, 59, 45
5, 103152, Note_on_c, 4, 59, 0
5, 103296, Note_on_c, 4, 59, 45
5, 103552, Note_on_c, 4, 59, 0
5, 103584, Note_on_c, 4, 59, 45
5, 103678, Note_on_c, 4, 59, 0
5, 103776, Note_on_c, 4, 64, 45
5, 103808, Note_on_c, 4, 64, 0
5, 103872, Note_on_c, 4, 59, 45
5, 103904, Note_on_c, 4, 59, 0
5, 103968, Note_on_c, 4, 59, 45
5, 104000, Note_on_c, 4, 59, 0
5, 104064, Note_on_c, 4, 55, 45
5, 104158, Note_on_c, 4, 55, 0
5, 104448, Note_on_c, 4, 43, 45
5, 104832, Note_on_c, 4, 43, 0
5, 104832, Note_on_c, 4, 48, 45
5, 104926, Note_on_c, 4, 48, 0
5, 105216, Note_on_c, 4, 50, 45
5, 105694, Note_on_c, 4, 50, 0
5, 105696, Note_on_c, 4, 48, 74
5, 105728, Note_on_c, 4, 48, 0
5, 105792, Note_on_c, 4, 47, 80
5, 105824, Note_on_c, 4, 47, 0
5, 105888, Note_on_c, 4, 45, 86
5, 105920, Note_on_c, 4, 45, 0
5, 105984, Note_on_c, 4, 43, 92
5, 106078, Note_on_c, 4, 43, 0
5, 106080, Note_on_c, 4, 55, 92
5, 106174, Note_on_c, 4, 55, 0
5, 106176, Note_on_c, 4, 55, 92
5, 106270, Note_on_c, 4, 55, 0
5, 106272, Note_on_c, 4, 55, 92
5, 106366, Note_on_c, 4, 55, 0
5, 106368, Note_on_c, 4, 55, 92
5, 106462, Note_on_c, 4, 55, 0
5, 106464, Note_on_c, 4, 55, 92
5, 106558, Note_on_c, 4, 55, 0
5, 106560, Note_on_c, 4, 55, 92
5, 106654, Note_on_c, 4, 55, 0
5, 106656, Note_on_c, 4, 55, 92
5, 106750, Note_on_c, 4, 55, 0
5, 106752, Note_on_c, 4, 57, 92
5, 106846, Note_on_c, 4, 57, 0
5, 106848, Note_on_c, 4, 55, 92
5, 106942, Note_on_c, 4, 55, 0
5, 106944, Note_on_c, 4, 54, 92
5, 107038, Note_on_c, 4, 54, 0
5, 107040, Note_on_c, 4, 52, 92
5, 107134, Note_on_c, 4, 52, 0
5, 107136, Note_on_c, 4, 50, 92
5, 107184, Note_on_c, 4, 50, 0
5, 107184, Note_on_c, 4, 54, 92
5, 107232, Note_on_c, 4, 54, 0
5, 107232, Note_on_c, 4, 57, 92
5, 107280, Note_on_c, 4, 57, 0
5, 107280, Note_on_c, 4, 62, 92
5, 107328, Note_on_c, 4, 62, 0
5, 107328, Note_on_c, 4, 66, 92
5, 107376, Note_on_c, 4, 66, 0
5, 107376, Note_on_c, 4, 62, 92
5, 107424, Note_on_c, 4, 62, 0
5, 107424, Note_on_c, 4, 57, 92
5, 107472, Note_on_c, 4, 57, 0
5, 107472, Note_on_c, 4, 54, 92
5, 107518, Note_on_c, 4, 54, 0
5, 107520, Note_on_c, 4, 50, 92
5, 107614, Note_on_c, 4, 50, 0
5, 107616, Note_on_c, 4, 50, 92
5, 107710, Note_on_c, 4, 50, 0
5, 107712, Note_on_c, 4, 50, 92
5, 107806, Note_on_c, 4, 50, 0
5, 107808, Note_on_c, 4, 50, 92
5, 107902, Note_on_c, 4, 50, 0
5, 107904, Note_on_c, 4, 50, 92
5, 107998, Note_on_c, 4, 50, 0
5, 108000, Note_on_c, 4, 50, 92
5, 108094, Note_on_c, 4, 50, 0
5, 108096, Note_on_c, 4, 50, 92
5, 108190, Note_on_c, 4, 50, 0
5, 108192, Note_on_c, 4, 48, 92
5, 108286, Note_on_c, 4, 48, 0
5, 108288, Note_on_c, 4, 47, 92
5, 108382, Note_on_c, 4, 47, 0
5, 108384, Note_on_c, 4, 52, 92
5, 108478, Note_on_c, 4, 52, 0
5, 108480, Note_on_c, 4, 50, 92
5, 108574, Note_on_c, 4, 50, 0
5, 108576, Note_on_c, 4, 50, 92
5, 108670, Note_on_c, 4, 50, 0
5, 108672, Note_on_c, 4, 43, 92
5, 108832, Note_on_c, 4, 43, 0
5, 110208, Note_on_c, 4, 43, 45
5, 110368, Note_on_c, 4, 43, 0
5, 110592, Note_on_c, 4, 54, 45
5, 110752, Note_on_c, 4, 54, 0
5, 110880, Note_on_c, 4, 54, 45
5, 110976, Note_on_c, 4, 54, 0
5, 110976, Note_on_c, 4, 43, 45
5, 111070, Note_on_c, 4, 43, 0
5, 111072, Note_on_c, 4, 55, 50
5, 111166, Note_on_c, 4, 55, 0
5, 111168, Note_on_c, 4, 55, 56
5, 111262, Note_on_c, 4, 55, 0
5, 111264, Note_on_c, 4, 55, 62
5, 111358, Note_on_c, 4, 55, 0
5, 111360, Note_on_c, 4, 40, 68
5, 111454, Note_on_c, 4, 40, 0
5, 111456, Note_on_c, 4, 52, 74
5, 111550, Note_on_c, 4, 52, 0
5, 111552, Note_on_c, 4, 52, 80
5, 111646, Note_on_c, 4, 52, 0
5, 111648, Note_on_c, 4, 52, 86
5, 111742, Note_on_c, 4, 52, 0
5, 111744, Note_on_c, 4, 50, 92
5, 111904, Note_on_c, 4, 50, 0
5, 112512, Note_on_c, 4, 38, 108
5, 112560, Note_on_c, 4, 38, 0
5, 112704, Note_on_c, 4, 43, 108
5, 112752, Note_on_c, 4, 43, 0
5, 112896, Note_on_c, 4, 46, 127
5, 113184, Note_on_c, 4, 46, 0
5, 113184, Note_on_c, 4, 45, 108
5, 113232, Note_on_c, 4, 45, 0
5, 113232, Note_on_c, 4, 43, 108
5, 113278, Note_on_c, 4, 43, 0
5, 113280, Note_on_c, 4, 42, 108
5, 113312, Note_on_c, 4, 42, 0
5, 113376, Note_on_c, 4, 43, 108
5, 113408, Note_on_c, 4, 43, 0
5, 113472, Note_on_c, 4, 45, 108
5, 113504, Note_on_c, 4, 45, 0
5, 113568, Note_on_c, 4, 46, 108
5, 113600, Note_on_c, 4, 46, 0
5, 113664, Note_on_c, 4, 48, 108
5, 113758, Note_on_c, 4, 48, 0
5, 114048, Note_on_c, 4, 38, 108
5, 114096, Note_on_c, 4, 38, 0
5, 114240, Note_on_c, 4, 45, 108
5, 114288, Note_on_c, 4, 45, 0
5, 114432, Note_on_c, 4, 48, 127
5, 114720, Note_on_c, 4, 48, 0
5, 114720, Note_on_c, 4, 46, 108
5, 114768, Note_on_c, 4, 46, 0
5, 114768, Note_on_c, 4, 45, 108
5, 114814, Note_on_c, 4, 45, 0
5, 114816, Note_on_c, 4, 43, 108
5, 114848, Note_on_c, 4, 43, 0
5, 114912, Note_on_c, 4, 45, 108
5, 114944, Note_on_c, 4, 45, 0
5, 115008, Note_on_c, 4, 46, 108
5, 115040, Note_on_c, 4, 46, 0
5, 115104, Note_on_c, 4, 48, 108
5, 115136, Note_on_c, 4, 48, 0
5, 115200, Note_on_c, 4, 50, 108
5, 115294, Note_on_c, 4, 50, 0
5, 115584, Note_on_c, 4, 51, 108
5, 115678, Note_on_c, 4, 51, 0
5, 115680, Note_on_c, 4, 53, 108
5, 115774, Note_on_c, 4, 53, 0
5, 115776, Note_on_c, 4, 55, 108
5, 115870, Note_on_c, 4, 55, 0
5, 115872, Note_on_c, 4, 56, 108
5, 115966, Note_on_c, 4, 56, 0
5, 115968, Note_on_c, 4, 58, 108
5, 116062, Note_on_c, 4, 58, 0
5, 116352, Note_on_c, 4, 49, 108
5, 116446, Note_on_c, 4, 49, 0
5, 116448, Note_on_c, 4, 50, 108
5, 116542, Note_on_c, 4, 50, 0
5, 116544, Note_on_c, 4, 52, 108
5, 116638, Note_on_c, 4, 52, 0
5, 116640, Note_on_c, 4, 54, 108
5, 116734, Note_on_c, 4, 54, 0
5, 116736, Note_on_c, 4, 55, 108
5, 116896, Note_on_c, 4, 55, 0
5, 116928, Note_on_c, 4, 49, 108
5, 117088, Note_on_c, 4, 49, 0
5, 117120, Note_on_c, 4, 50, 108
5, 117280, Note_on_c, 4, 50, 0
5, 117408, Note_on_c, 4, 50, 108
5, 117440, Note_on_c, 4, 50, 0
5, 117504, Note_on_c, 4, 38, 108
5, 117552, Note_on_c, 4, 38, 0
5, 117792, Note_on_c, 4, 50, 108
5, 117824, Note_on_c, 4, 50, 0
5, 117888, Note_on_c, 4, 38, 108
5, 117936, Note_on_c, 4, 38, 0
5, 118176, Note_on_c, 4, 50, 108
5, 118208, Note_on_c, 4, 50, 0
5, 118272, Note_on_c, 4, 38, 108
5, 118320, Note_on_c, 4, 38, 0
5, 118560, Note_on_c, 4, 50, 108
5, 118592, Note_on_c, 4, 50, 0
5, 118656, Note_on_c, 4, 38, 108
5, 118688, Note_on_c, 4, 38, 0
5, 122496, Note_on_c, 4, 43, 45
5, 122528, Note_on_c, 4, 43, 0
5, 122592, Note_on_c, 4, 47, 45
5, 122624, Note_on_c, 4, 47, 0
5, 122688, Note_on_c, 4, 50, 45
5, 122720, Note_on_c, 4, 50, 0
5, 122784, Note_on_c, 4, 54, 45
5, 122816, Note_on_c, 4, 54, 0
5, 122880, Note_on_c, 4, 55, 45
5, 122974, Note_on_c, 4, 55, 0
5, 122976, Note_on_c, 4, 54, 45
5, 123070, Note_on_c, 4, 54, 0
5, 123072, Note_on_c, 4, 55, 45
5, 123166, Note_on_c, 4, 55, 0
5, 123168, Note_on_c, 4, 55, 45
5, 123262, Note_on_c, 4, 55, 0
5, 123264, Note_on_c, 4, 57, 60
5, 123424, Note_on_c, 4, 57, 0
5, 124032, Note_on_c, 4, 47, 45
5, 124126, Note_on_c, 4, 47, 0
5, 124128, Note_on_c, 4, 50, 45
5, 124222, Note_on_c, 4, 50, 0
5, 124224, Note_on_c, 4, 55, 45
5, 124318, Note_on_c, 4, 55, 0
5, 124320, Note_on_c, 4, 57, 45
5, 124414, Note_on_c, 4, 57, 0
5, 124416, Note_on_c, 4, 59, 45
5, 124510, Note_on_c, 4, 59, 0
5, 124512, Note_on_c, 4, 58, 45
5, 124606, Note_on_c, 4, 58, 0
5, 124608, Note_on_c, 4, 59, 45
5, 124702, Note_on_c, 4, 59, 0
5, 124704, Note_on_c, 4, 59, 45
5, 124798, Note_on_c, 4, 59, 0
5, 124800, Note_on_c, 4, 60, 45
5, 124960, Note_on_c, 4, 60, 0
5, 125568, Note_on_c, 4, 50, 63
5, 125728, Note_on_c, 4, 50, 0
5, 125952, Note_on_c, 4, 50, 63
5, 126112, Note_on_c, 4, 50, 0
5, 126336, Note_on_c, 4, 50, 63
5, 126496, Note_on_c, 4, 50, 0
5, 126720, Note_on_c, 4, 50, 63
5, 126880, Note_on_c, 4, 50, 0
5, 127104, Note_on_c, 4, 38, 45
5, 127440, Note_on_c, 4, 38, 0
5, 127488, Note_on_c, 4, 39, 45
5, 127680, Note_on_c, 4, 39, 0
5, 127680, Note_on_c, 4, 36, 45
5, 127872, Note_on_c, 4, 36, 0
5, 127872, Note_on_c, 4, 38, 45
5, 128208, Note_on_c, 4, 38, 0
5, 128256, Note_on_c, 4, 39, 45
5, 128448, Note_on_c, 4, 39, 0
5, 128448, Note_on_c, 4, 36, 45
5, 128640, Note_on_c, 4, 36, 0
5, 128640, Note_on_c, 4, 38, 45
5, 128976, Note_on_c, 4, 38, 0
5, 129024, Note_on_c, 4, 39, 45
5, 129216, Note_on_c, 4, 39, 0
5, 129216, Note_on_c, 4, 36, 45
5, 129408, Note_on_c, 4, 36, 0
5, 129408, Note_on_c, 4, 38, 45
5, 129744, Note_on_c, 4, 38, 0
5, 129792, Note_on_c, 4, 39, 45
5, 129984, Note_on_c, 4, 39, 0
5, 129984, Note_on_c, 4, 36, 45
5, 130144, Note_on_c, 4, 36, 0
5, 130176, Note_on_c, 4, 37, 45
5, 130272, Note_on_c, 4, 37, 0
5, 130272, Note_on_c, 4, 40, 50
5, 130368, Note_on_c, 4, 40, 0
5, 130368, Note_on_c, 4, 43, 56
5, 130464, Note_on_c, 4, 43, 0
5, 130464, Note_on_c, 4, 46, 62
5, 130560, Note_on_c, 4, 46, 0
5, 130560, Note_on_c, 4, 49, 68
5, 130656, Note_on_c, 4, 49, 0
5, 130656, Note_on_c, 4, 52, 74
5, 130752, Note_on_c, 4, 52, 0
5, 130752, Note_on_c, 4, 55, 80
5, 130848, Note_on_c, 4, 55, 0
5, 130848, Note_on_c, 4, 52, 86
5, 130942, Note_on_c, 4, 52, 0
5, 130944, Note_on_c, 4, 50, 92
5, 131038, Note_on_c, 4, 50, 0
5, 131040, Note_on_c, 4, 50, 92
5, 131134, Note_on_c, 4, 50, 0
5, 131136, Note_on_c, 4, 50, 92
5, 131230, Note_on_c, 4, 50, 0
5, 131232, Note_on_c, 4, 50, 92
5, 131326, Note_on_c, 4, 50, 0
5, 131328, Note_on_c, 4, 50, 92
5, 131422, Note_on_c, 4, 50, 0
5, 131424, Note_on_c, 4, 50, 92
5, 131518, Note_on_c, 4, 50, 0
5, 131520, Note_on_c, 4, 50, 92
5, 131614, Note_on_c, 4, 50, 0
5, 131616, Note_on_c, 4, 50, 92
5, 131710, Note_on_c, 4, 50, 0
5, 131712, Note_on_c, 4, 62, 45
5, 132048, Note_on_c, 4, 62, 0
5, 132096, Note_on_c, 4, 63, 45
5, 132288, Note_on_c, 4, 63, 0
5, 132288, Note_on_c, 4, 60, 45
5, 132480, Note_on_c, 4, 60, 0
5, 132480, Note_on_c, 4, 62, 45
5, 132816, Note_on_c, 4, 62, 0
5, 132864, Note_on_c, 4, 63, 45
5, 133056, Note_on_c, 4, 63, 0
5, 133056, Note_on_c, 4, 60, 45
5, 133248, Note_on_c, 4, 60, 0
5, 133248, Note_on_c, 4, 62, 45
5, 133584, Note_on_c, 4, 62, 0
5, 133632, Note_on_c, 4, 63, 45
5, 133824, Note_on_c, 4, 63, 0
5, 133824, Note_on_c, 4, 60, 45
5, 134016, Note_on_c, 4, 60, 0
5, 134016, Note_on_c, 4, 62, 30
5, 134176, Note_on_c, 4, 62, 0
5, 134208, Note_on_c, 4, 63, 30
5, 134304, Note_on_c, 4, 63, 0
5, 134304, Note_on_c, 4, 60, 30
5, 134400, Note_on_c, 4, 60, 0
5, 134400, Note_on_c, 4, 57, 30
5, 134560, Note_on_c, 4, 57, 0
5, 134592, Note_on_c, 4, 60, 30
5, 134688, Note_on_c, 4, 60, 0
5, 134688, Note_on_c, 4, 57, 30
5, 134784, Note_on_c, 4, 57, 0
5, 134784, Note_on_c, 4, 53, 30
5, 136320, Note_on_c, 4, 53, 0
5, 136320, Note_on_c, 4, 53, 30
5, 137472, Note_on_c, 4, 53, 0
5, 137472, Note_on_c, 4, 46, 30
5, 137950, Note_on_c, 4, 47, 0
5, 137952, Note_on_c, 4, 58, 33
5, 138046, Note_on_c, 4, 58, 0
5, 138048, Note_on_c, 4, 58, 36
5, 138142, Note_on_c, 4, 58, 0
5, 138144, Note_on_c, 4, 58, 40
5, 138238, Note_on_c, 4, 58, 0
5, 138240, Note_on_c, 4, 58, 44
5, 138334, Note_on_c, 4, 58, 0
5, 138336, Note_on_c, 4, 58, 48
5, 138430, Note_on_c, 4, 58, 0
5, 138432, Note_on_c, 4, 58, 52
5, 138526, Note_on_c, 4, 58, 0
5, 138528, Note_on_c, 4, 58, 56
5, 138622, Note_on_c, 4, 58, 0
5, 138624, Note_on_c, 4, 57, 60
5, 138718, Note_on_c, 4, 57, 0
5, 138720, Note_on_c, 4, 57, 64
5, 138814, Note_on_c, 4, 57, 0
5, 138816, Note_on_c, 4, 57, 68
5, 138910, Note_on_c, 4, 57, 0
5, 138912, Note_on_c, 4, 57, 72
5, 139006, Note_on_c, 4, 57, 0
5, 139008, Note_on_c, 4, 57, 76
5, 139102, Note_on_c, 4, 57, 0
5, 139104, Note_on_c, 4, 57, 80
5, 139198, Note_on_c, 4, 57, 0
5, 139200, Note_on_c, 4, 57, 84
5, 139294, Note_on_c, 4, 57, 0
5, 139296, Note_on_c, 4, 57, 88
5, 139390, Note_on_c, 4, 57, 0
5, 139392, Note_on_c, 4, 50, 92
5, 139486, Note_on_c, 4, 50, 0
5, 139488, Note_on_c, 4, 50, 92
5, 139582, Note_on_c, 4, 50, 0
5, 139584, Note_on_c, 4, 50, 92
5, 139678, Note_on_c, 4, 50, 0
5, 139680, Note_on_c, 4, 50, 92
5, 139774, Note_on_c, 4, 50, 0
5, 139776, Note_on_c, 4, 51, 92
5, 139870, Note_on_c, 4, 51, 0
5, 139872, Note_on_c, 4, 51, 92
5, 139966, Note_on_c, 4, 51, 0
5, 139968, Note_on_c, 4, 51, 92
5, 140062, Note_on_c, 4, 51, 0
5, 140064, Note_on_c, 4, 51, 92
5, 140158, Note_on_c, 4, 51, 0
5, 140160, Note_on_c, 4, 52, 108
5, 140254, Note_on_c, 4, 52, 0
5, 140256, Note_on_c, 4, 52, 108
5, 140350, Note_on_c, 4, 52, 0
5, 140352, Note_on_c, 4, 49, 108
5, 140446, Note_on_c, 4, 49, 0
5, 140448, Note_on_c, 4, 49, 108
5, 140542, Note_on_c, 4, 49, 0
5, 140544, Note_on_c, 4, 50, 108
5, 140638, Note_on_c, 4, 50, 0
5, 140640, Note_on_c, 4, 50, 108
5, 140734, Note_on_c, 4, 50, 0
5, 140736, Note_on_c, 4, 38, 108
5, 140830, Note_on_c, 4, 38, 0
5, 140832, Note_on_c, 4, 38, 108
5, 140926, Note_on_c, 4, 38, 0
5, 140928, Note_on_c, 4, 43, 108
5, 140976, Note_on_c, 4, 43, 0
5, 140976, Note_on_c, 4, 45, 108
5, 141024, Note_on_c, 4, 45, 0
5, 141024, Note_on_c, 4, 47, 108
5, 141072, Note_on_c, 4, 47, 0
5, 141072, Note_on_c, 4, 48, 108
5, 141120, Note_on_c, 4, 48, 0
5, 141120, Note_on_c, 4, 50, 108
5, 141168, Note_on_c, 4, 50, 0
5, 141168, Note_on_c, 4, 48, 108
5, 141216, Note_on_c, 4, 48, 0
5, 141216, Note_on_c, 4, 47, 108
5, 141264, Note_on_c, 4, 47, 0
5, 141264, Note_on_c, 4, 45, 108
5, 141312, Note_on_c, 4, 45, 0
5, 141312, Note_on_c, 4, 43, 108
5, 141360, Note_on_c, 4, 43, 0
5, 141360, Note_on_c, 4, 45, 108
5, 141408, Note_on_c, 4, 45, 0
5, 141408, Note_on_c, 4, 47, 108
5, 141456, Note_on_c, 4, 47, 0
5, 141456, Note_on_c, 4, 48, 108
5, 141504, Note_on_c, 4, 48, 0
5, 141504, Note_on_c, 4, 50, 108
5, 141552, Note_on_c, 4, 50, 0
5, 141552, Note_on_c, 4, 52, 108
5, 141600, Note_on_c, 4, 52, 0
5, 141600, Note_on_c, 4, 54, 108
5, 141648, Note_on_c, 4, 54, 0
5, 141648, Note_on_c, 4, 55, 108
5, 141694, Note_on_c, 4, 55, 0
5, 141696, Note_on_c, 4, 43, 108
5, 141790, Note_on_c, 4, 43, 0
5, 141792, Note_on_c, 4, 55, 108
5, 141886, Note_on_c, 4, 55, 0
5, 141888, Note_on_c, 4, 55, 108
5, 141982, Note_on_c, 4, 55, 0
5, 141984, Note_on_c, 4, 55, 108
5, 142078, Note_on_c, 4, 55, 0
5, 142080, Note_on_c, 4, 55, 108
5, 142174, Note_on_c, 4, 55, 0
5, 142176, Note_on_c, 4, 55, 108
5, 142270, Note_on_c, 4, 55, 0
5, 142272, Note_on_c, 4, 55, 108
5, 142366, Note_on_c, 4, 55, 0
5, 142368, Note_on_c, 4, 55, 108
5, 142462, Note_on_c, 4, 55, 0
5, 142464, Note_on_c, 4, 43, 108
5, 142512, Note_on_c, 4, 43, 0
5, 142512, Note_on_c, 4, 45, 108
5, 142560, Note_on_c, 4, 45, 0
5, 142560, Note_on_c, 4, 47, 108
5, 142608, Note_on_c, 4, 47, 0
5, 142608, Note_on_c, 4, 48, 108
5, 142656, Note_on_c, 4, 48, 0
5, 142656, Note_on_c, 4, 50, 108
5, 142704, Note_on_c, 4, 50, 0
5, 142704, Note_on_c, 4, 48, 108
5, 142752, Note_on_c, 4, 48, 0
5, 142752, Note_on_c, 4, 47, 108
5, 142800, Note_on_c, 4, 47, 0
5, 142800, Note_on_c, 4, 45, 108
5, 142848, Note_on_c, 4, 45, 0
5, 142848, Note_on_c, 4, 43, 108
5, 142896, Note_on_c, 4, 43, 0
5, 142896, Note_on_c, 4, 45, 108
5, 142944, Note_on_c, 4, 45, 0
5, 142944, Note_on_c, 4, 47, 108
5, 142992, Note_on_c, 4, 47, 0
5, 142992, Note_on_c, 4, 48, 108
5, 143040, Note_on_c, 4, 48, 0
5, 143040, Note_on_c, 4, 50, 108
5, 143088, Note_on_c, 4, 50, 0
5, 143088, Note_on_c, 4, 52, 108
5, 143136, Note_on_c, 4, 52, 0
5, 143136, Note_on_c, 4, 54, 108
5, 143184, Note_on_c, 4, 54, 0
5, 143184, Note_on_c, 4, 55, 108
5, 143230, Note_on_c, 4, 55, 0
5, 143232, Note_on_c, 4, 43, 108
5, 143326, Note_on_c, 4, 43, 0
5, 143328, Note_on_c, 4, 43, 108
5, 143422, Note_on_c, 4, 43, 0
5, 143424, Note_on_c, 4, 43, 108
5, 143518, Note_on_c, 4, 43, 0
5, 143520, Note_on_c, 4, 43, 108
5, 143614, Note_on_c, 4, 43, 0
5, 143616, Note_on_c, 4, 43, 108
5, 143710, Note_on_c, 4, 43, 0
5, 143712, Note_on_c, 4, 43, 108
5, 143806, Note_on_c, 4, 43, 0
5, 143808, Note_on_c, 4, 43, 108
5, 143902, Note_on_c, 4, 43, 0
5, 143904, Note_on_c, 4, 43, 108
5, 143998, Note_on_c, 4, 43, 0
5, 144000, Note_on_c, 4, 43, 108
5, 144094, Note_on_c, 4, 43, 0
5, 144096, Note_on_c, 4, 55, 108
5, 144190, Note_on_c, 4, 55, 0
5, 144192, Note_on_c, 4, 55, 108
5, 144286, Note_on_c, 4, 55, 0
5, 144288, Note_on_c, 4, 55, 108
5, 144382, Note_on_c, 4, 55, 0
5, 144384, Note_on_c, 4, 43, 108
5, 144478, Note_on_c, 4, 43, 0
5, 144480, Note_on_c, 4, 55, 108
5, 144574, Note_on_c, 4, 55, 0
5, 144576, Note_on_c, 4, 55, 108
5, 144670, Note_on_c, 4, 55, 0
5, 144672, Note_on_c, 4, 55, 108
5, 144766, Note_on_c, 4, 55, 0
5, 144768, Note_on_c, 4, 43, 108
5, 144800, Note_on_c, 4, 43, 0
5, 144864, Note_on_c, 4, 42, 108
5, 144912, Note_on_c, 4, 42, 0
5, 144912, Note_on_c, 4, 40, 108
5, 144960, Note_on_c, 4, 40, 0
5, 144960, Note_on_c, 4, 38, 108
5, 144992, Note_on_c, 4, 38, 0
5, 145056, Note_on_c, 4, 40, 108
5, 145104, Note_on_c, 4, 40, 0
5, 145104, Note_on_c, 4, 42, 108
5, 145152, Note_on_c, 4, 42, 0
5, 145152, Note_on_c, 4, 43, 108
5, 145184, Note_on_c, 4, 43, 0
5, 145248, Note_on_c, 4, 42, 108
5, 145296, Note_on_c, 4, 42, 0
5, 145296, Note_on_c, 4, 40, 108
5, 145344, Note_on_c, 4, 40, 0
5, 145344, Note_on_c, 4, 38, 108
5, 145376, Note_on_c, 4, 38, 0
5, 145440, Note_on_c, 4, 40, 108
5, 145488, Note_on_c, 4, 40, 0
5, 145488, Note_on_c, 4, 42, 108
5, 145536, Note_on_c, 4, 42, 0
5, 145536, Note_on_c, 4, 43, 108
5, 145584, Note_on_c, 4, 43, 0
5, 145920, Note_on_c, 4, 62, 108
5, 145968, Note_on_c, 4, 62, 0
5, 146112, Note_on_c, 4, 59, 108
5, 146160, Note_on_c, 4, 59, 0
5, 146304, Note_on_c, 4, 55, 127
5, 146640, Note_on_c, 4, 55, 0
5, 146688, Note_on_c, 4, 59, 108
5, 146736, Note_on_c, 4, 59, 0
5, 146880, Note_on_c, 4, 55, 108
5, 146928, Note_on_c, 4, 55, 0
5, 147072, Note_on_c, 4, 50, 127
5, 147408, Note_on_c, 4, 50, 0
5, 147456, Note_on_c, 4, 55, 108
5, 147504, Note_on_c, 4, 55, 0
5, 147648, Note_on_c, 4, 50, 108
5, 147696, Note_on_c, 4, 50, 0
5, 147840, Note_on_c, 4, 47, 108
5, 148000, Note_on_c, 4, 47, 0
5, 148128, Note_on_c, 4, 59, 108
5, 148222, Note_on_c, 4, 59, 0
5, 148224, Note_on_c, 4, 55, 127
5, 148384, Note_on_c, 4, 55, 0
5, 148512, Note_on_c, 4, 55, 108
5, 148606, Note_on_c, 4, 55, 0
5, 148608, Note_on_c, 4, 50, 127
5, 148768, Note_on_c, 4, 50, 0
5, 148800, Note_on_c, 4, 55, 108
5, 148894, Note_on_c, 4, 55, 0
5, 148896, Note_on_c, 4, 50, 108
5, 148990, Note_on_c, 4, 50, 0
5, 148992, Note_on_c, 4, 47, 127
5, 149152, Note_on_c, 4, 47, 0
5, 149184, Note_on_c, 4, 50, 108
5, 149278, Note_on_c, 4, 50, 0
5, 149280, Note_on_c, 4, 47, 108
5, 149374, Note_on_c, 4, 47, 0
5, 149376, Note_on_c, 4, 43, 127
5, 149536, Note_on_c, 4, 43, 0
5, 149568, Note_on_c, 4, 50, 108
5, 149662, Note_on_c, 4, 50, 0
5, 149664, Note_on_c, 4, 47, 108
5, 149758, Note_on_c, 4, 47, 0
5, 149760, Note_on_c, 4, 43, 127
5, 149920, Note_on_c, 4, 43, 0
5, 149952, Note_on_c, 4, 50, 108
5, 150046, Note_on_c, 4, 50, 0
5, 150048, Note_on_c, 4, 47, 108
5, 150142, Note_on_c, 4, 47, 0
5, 150144, Note_on_c, 4, 43, 127
5, 150480, Note_on_c, 4, 43, 0
5, 150528, Note_on_c, 4, 50, 108
5, 150624, Note_on_c, 4, 50, 0
5, 150624, Note_on_c, 4, 47, 93
5, 150720, Note_on_c, 4, 47, 0
5, 150720, Note_on_c, 4, 43, 77
5, 151248, Note_on_c, 4, 43, 0
5, 151296, Note_on_c, 4, 50, 45
5, 151392, Note_on_c, 4, 50, 0
5, 151392, Note_on_c, 4, 47, 45
5, 151488, Note_on_c, 4, 47, 0
5, 151488, Note_on_c, 4, 43, 45
5, 152016, Note_on_c, 4, 43, 0
5, 152064, Note_on_c, 4, 53, 30
5, 152160, Note_on_c, 4, 53, 0
5, 152160, Note_on_c, 4, 50, 30
5, 152256, Note_on_c, 4, 50, 0
5, 152256, Note_on_c, 4, 43, 30
5, 153552, Note_on_c, 4, 43, 0
5, 153600, Note_on_c, 4, 48, 30
5, 153760, Note_on_c, 4, 48, 0
5, 153792, Note_on_c, 4, 60, 30
5, 153840, Note_on_c, 4, 60, 0
5, 153984, Note_on_c, 4, 60, 30
5, 154240, Note_on_c, 4, 60, 0
5, 154272, Note_on_c, 4, 60, 30
5, 154366, Note_on_c, 4, 60, 0
5, 154368, Note_on_c, 4, 62, 30
5, 154400, Note_on_c, 4, 62, 0
5, 154464, Note_on_c, 4, 60, 30
5, 154496, Note_on_c, 4, 60, 0
5, 154560, Note_on_c, 4, 59, 30
5, 154592, Note_on_c, 4, 59, 0
5, 154656, Note_on_c, 4, 57, 30
5, 154688, Note_on_c, 4, 57, 0
5, 154752, Note_on_c, 4, 55, 30
5, 154846, Note_on_c, 4, 55, 0
5, 155136, Note_on_c, 4, 48, 30
5, 155184, Note_on_c, 4, 48, 0
5, 155328, Note_on_c, 4, 60, 30
5, 155376, Note_on_c, 4, 60, 0
5, 155520, Note_on_c, 4, 60, 30
5, 155856, Note_on_c, 4, 60, 0
5, 155904, Note_on_c, 4, 42, 30
5, 155952, Note_on_c, 4, 42, 0
5, 156096, Note_on_c, 4, 54, 30
5, 156144, Note_on_c, 4, 54, 0
5, 156288, Note_on_c, 4, 54, 30
5, 156544, Note_on_c, 4, 54, 0
5, 156576, Note_on_c, 4, 50, 30
5, 156670, Note_on_c, 4, 50, 0
5, 156672, Note_on_c, 4, 55, 30
5, 156720, Note_on_c, 4, 55, 0
5, 157056, Note_on_c, 4, 79, 30
5, 157312, Note_on_c, 4, 79, 0
5, 157344, Note_on_c, 4, 79, 30
5, 157438, Note_on_c, 4, 79, 0
5, 157440, Note_on_c, 4, 81, 30
5, 157472, Note_on_c, 4, 81, 0
5, 157632, Note_on_c, 4, 78, 30
5, 157664, Note_on_c, 4, 78, 0
5, 157728, Note_on_c, 4, 76, 30
5, 157760, Note_on_c, 4, 76, 0
5, 158208, Note_on_c, 4, 50, 30
5, 158256, Note_on_c, 4, 50, 0
5, 158400, Note_on_c, 4, 62, 30
5, 158448, Note_on_c, 4, 62, 0
5, 158592, Note_on_c, 4, 62, 30
5, 158848, Note_on_c, 4, 62, 0
5, 158880, Note_on_c, 4, 60, 30
5, 158974, Note_on_c, 4, 60, 0
5, 158976, Note_on_c, 4, 59, 30
5, 159008, Note_on_c, 4, 59, 0
5, 159072, Note_on_c, 4, 64, 33
5, 159104, Note_on_c, 4, 64, 0
5, 159168, Note_on_c, 4, 60, 36
5, 159200, Note_on_c, 4, 60, 0
5, 159264, Note_on_c, 4, 62, 39
5, 159296, Note_on_c, 4, 62, 0
5, 159360, Note_on_c, 4, 59, 42
5, 159392, Note_on_c, 4, 59, 0
5, 159456, Note_on_c, 4, 64, 45
5, 159488, Note_on_c, 4, 64, 0
5, 159552, Note_on_c, 4, 60, 48
5, 159584, Note_on_c, 4, 60, 0
5, 159648, Note_on_c, 4, 62, 51
5, 159680, Note_on_c, 4, 62, 0
5, 159744, Note_on_c, 4, 59, 54
5, 159776, Note_on_c, 4, 59, 0
5, 159840, Note_on_c, 4, 52, 57
5, 159872, Note_on_c, 4, 52, 0
5, 159936, Note_on_c, 4, 48, 60
5, 159968, Note_on_c, 4, 48, 0
5, 160032, Note_on_c, 4, 50, 63
5, 160064, Note_on_c, 4, 50, 0
5, 160128, Note_on_c, 4, 47, 66
5, 160160, Note_on_c, 4, 47, 0
5, 160224, Note_on_c, 4, 52, 69
5, 160256, Note_on_c, 4, 52, 0
5, 160320, Note_on_c, 4, 48, 72
5, 160352, Note_on_c, 4, 48, 0
5, 160416, Note_on_c, 4, 50, 75
5, 160448, Note_on_c, 4, 50, 0
5, 160512, Note_on_c, 4, 47, 78
5, 160558, Note_on_c, 4, 47, 0
5, 160560, Note_on_c, 4, 47, 79
5, 160606, Note_on_c, 4, 47, 0
5, 160608, Note_on_c, 4, 52, 80
5, 160654, Note_on_c, 4, 52, 0
5, 160656, Note_on_c, 4, 52, 82
5, 160702, Note_on_c, 4, 52, 0
5, 160704, Note_on_c, 4, 48, 84
5, 160750, Note_on_c, 4, 48, 0
5, 160752, Note_on_c, 4, 48, 86
5, 160798, Note_on_c, 4, 48, 0
5, 160800, Note_on_c, 4, 50, 88
5, 160846, Note_on_c, 4, 50, 0
5, 160848, Note_on_c, 4, 50, 90
5, 160894, Note_on_c, 4, 50, 0
5, 160896, Note_on_c, 4, 47, 92
5, 160942, Note_on_c, 4, 47, 0
5, 160944, Note_on_c, 4, 47, 94
5, 160990, Note_on_c, 4, 47, 0
5, 160992, Note_on_c, 4, 52, 96
5, 161038, Note_on_c, 4, 52, 0
5, 161040, Note_on_c, 4, 52, 98
5, 161086, Note_on_c, 4, 52, 0
5, 161088, Note_on_c, 4, 48, 100
5, 161134, Note_on_c, 4, 48, 0
5, 161136, Note_on_c, 4, 48, 102
5, 161182, Note_on_c, 4, 48, 0
5, 161184, Note_on_c, 4, 50, 104
5, 161230, Note_on_c, 4, 50, 0
5, 161232, Note_on_c, 4, 50, 106
5, 161278, Note_on_c, 4, 50, 0
5, 161280, Note_on_c, 4, 43, 108
5, 161374, Note_on_c, 4, 43, 0
5, 161376, Note_on_c, 4, 59, 108
5, 161470, Note_on_c, 4, 59, 0
5, 161472, Note_on_c, 4, 55, 108
5, 161566, Note_on_c, 4, 55, 0
5, 161568, Note_on_c, 4, 50, 108
5, 161662, Note_on_c, 4, 50, 0
5, 161664, Note_on_c, 4, 47, 108
5, 161758, Note_on_c, 4, 47, 0
5, 161760, Note_on_c, 4, 43, 108
5, 161854, Note_on_c, 4, 43, 0
5, 161856, Note_on_c, 4, 50, 108
5, 161950, Note_on_c, 4, 50, 0
5, 161952, Note_on_c, 4, 38, 108
5, 162046, Note_on_c, 4, 38, 0
5, 162048, Note_on_c, 4, 43, 108
5, 162208, Note_on_c, 4, 43, 0
5, 162432, Note_on_c, 4, 55, 108
5, 162592, Note_on_c, 4, 55, 0
5, 162816, Note_on_c, 4, 43, 108
5, 162976, Note_on_c, 4, 43, 0
5, 162976, End_track
0, 0, End_of_file