0, 0, Header, 1, 11, 240
1, 0, Start_track
1, 0, Time_signature, 2, 2, 24, 8
1, 0, Tempo, 500000
1, 44160, Tempo, 375000
1, 47520, Tempo, 444444
1, 48000, Tempo, 394737
1, 63360, Tempo, 357143
1, 75840, Tempo, 394737
1, 79680, Tempo, 357143
1, 84000, Tempo, 375000
1, 89280, Tempo, 394737
1, 125760, Tempo, 375000
1, 138720, Tempo, 444444
1, 139200, Tempo, 394737
1, 154560, Tempo, 357143
1, 166560, Tempo, 394737
1, 170880, Tempo, 357143
1, 175200, Tempo, 375000
1, 180480, Tempo, 394737
1, 216960, Tempo, 375000
1, 222720, Tempo, 357143
1, 223680, Tempo, 340909
1, 226560, Tempo, 288462
1, 247200, Tempo, 277778
1, 251040, Tempo, 267857
1, 255840, Tempo, 277778
1, 259680, Tempo, 291262
1, 259680, End_track
2, 0, Start_track
2, 0, Title_t, "Part1 Piano"
2, 0, Program_c, 0, 0
2, 358, Control_c, 0, 64, 0
2, 359, Note_on_c, 0, 73, 80
2, 359, Note_on_c, 0, 46, 78
2, 360, Note_on_c, 0, 64, 67
2, 361, Note_on_c, 0, 55, 75
2, 637, Note_off_c, 0, 46, 64
2, 637, Note_off_c, 0, 73, 64
2, 637, Note_off_c, 0, 64, 64
2, 637, Note_off_c, 0, 55, 64
2, 637, Note_on_c, 0, 73, 80
2, 637, Note_on_c, 0, 55, 67
2, 637, Note_on_c, 0, 64, 64
2, 637, Note_on_c, 0, 46, 78
2, 732, Note_off_c, 0, 46, 64
2, 733, Note_off_c, 0, 64, 64
2, 734, Note_off_c, 0, 55, 64
2, 735, Note_off_c, 0, 73, 64
2, 736, Note_on_c, 0, 73, 86
2, 736, Note_on_c, 0, 55, 67
2, 737, Note_on_c, 0, 64, 78
2, 738, Note_on_c, 0, 46, 84
2, 1012, Note_off_c, 0, 46, 64
2, 1013, Note_off_c, 0, 64, 64
2, 1014, Note_off_c, 0, 55, 64
2, 1015, Note_off_c, 0, 73, 64
2, 1016, Note_on_c, 0, 73, 80
2, 1016, Note_on_c, 0, 64, 67
2, 1017, Note_on_c, 0, 55, 62
2, 1017, Note_on_c, 0, 46, 72
2, 1105, Note_off_c, 0, 46, 64
2, 1106, Note_off_c, 0, 55, 64
2, 1107, Note_off_c, 0, 64, 64
2, 1108, Note_off_c, 0, 73, 64
2, 1109, Note_on_c, 0, 73, 86
2, 1110, Note_on_c, 0, 55, 75
2, 1110, Note_on_c, 0, 64, 83
2, 1111, Note_on_c, 0, 46, 84
2, 1245, Note_off_c, 0, 46, 64
2, 1245, Note_off_c, 0, 64, 64
2, 1245, Note_off_c, 0, 55, 64
2, 1245, Note_off_c, 0, 73, 64
2, 1245, Note_on_c, 0, 73, 80
2, 1245, Note_on_c, 0, 64, 64
2, 1245, Note_on_c, 0, 55, 59
2, 1245, Note_on_c, 0, 46, 67
2, 1294, Note_off_c, 0, 46, 64
2, 1294, Note_off_c, 0, 55, 64
2, 1295, Note_off_c, 0, 64, 64
2, 1296, Note_off_c, 0, 73, 64
2, 1297, Note_on_c, 0, 46, 72
2, 1298, Note_on_c, 0, 73, 86
2, 1299, Note_on_c, 0, 55, 75
2, 1300, Note_on_c, 0, 64, 70
2, 1433, Note_off_c, 0, 64, 64
2, 1433, Note_off_c, 0, 55, 64
2, 1433, Note_off_c, 0, 73, 64
2, 1433, Note_off_c, 0, 46, 64
2, 1433, Note_on_c, 0, 46, 72
2, 1433, Note_on_c, 0, 55, 67
2, 1433, Note_on_c, 0, 64, 70
2, 1433, Note_on_c, 0, 73, 80
2, 1480, Note_off_c, 0, 73, 64
2, 1480, Note_off_c, 0, 64, 64
2, 1480, Note_off_c, 0, 55, 64
2, 1480, Note_off_c, 0, 46, 64
2, 1480, Note_on_c, 0, 64, 70
2, 1480, Note_on_c, 0, 73, 80
2, 1480, Note_on_c, 0, 46, 67
2, 1480, Note_on_c, 0, 55, 59
2, 1619, Note_off_c, 0, 55, 64
2, 1619, Note_off_c, 0, 46, 64
2, 1619, Note_off_c, 0, 73, 64
2, 1619, Note_off_c, 0, 64, 64
2, 1619, Note_on_c, 0, 73, 80
2, 1619, Note_on_c, 0, 64, 70
2, 1619, Note_on_c, 0, 55, 56
2, 1619, Note_on_c, 0, 46, 78
2, 1666, Note_off_c, 0, 46, 64
2, 1666, Note_off_c, 0, 55, 64
2, 1666, Note_off_c, 0, 64, 64
2, 1666, Note_off_c, 0, 73, 64
2, 1666, Note_on_c, 0, 73, 86
2, 1666, Note_on_c, 0, 64, 75
2, 1666, Note_on_c, 0, 46, 67
2, 1666, Note_on_c, 0, 55, 59
2, 1807, Note_off_c, 0, 55, 64
2, 1807, Note_off_c, 0, 46, 64
2, 1807, Note_off_c, 0, 64, 64
2, 1807, Note_off_c, 0, 73, 64
2, 1810, Note_on_c, 0, 73, 80
2, 1811, Note_on_c, 0, 64, 75
2, 1812, Note_on_c, 0, 55, 70
2, 1812, Note_on_c, 0, 46, 84
2, 1854, Note_off_c, 0, 46, 64
2, 1854, Note_off_c, 0, 55, 64
2, 1854, Note_off_c, 0, 64, 64
2, 1854, Note_off_c, 0, 73, 64
2, 1854, Note_on_c, 0, 46, 84
2, 1854, Note_on_c, 0, 73, 94
2, 1854, Note_on_c, 0, 55, 80
2, 1854, Note_on_c, 0, 64, 100
2, 2041, Note_off_c, 0, 64, 64
2, 2041, Note_off_c, 0, 55, 64
2, 2041, Note_off_c, 0, 73, 64
2, 2041, Note_off_c, 0, 46, 64
2, 2135, Note_on_c, 0, 85, 47
2, 2184, Note_off_c, 0, 85, 64
2, 2185, Note_on_c, 0, 84, 44
2, 2229, Note_off_c, 0, 84, 64
2, 2229, Note_on_c, 0, 82, 50
2, 2276, Note_off_c, 0, 82, 64
2, 2276, Note_on_c, 0, 84, 47
2, 2324, Note_off_c, 0, 84, 64
2, 2325, Note_on_c, 0, 82, 50
2, 2368, Note_off_c, 0, 82, 64
2, 2371, Note_on_c, 0, 80, 47
2, 2415, Note_off_c, 0, 80, 64
2, 2418, Note_on_c, 0, 79, 59
2, 2462, Note_off_c, 0, 79, 64
2, 2464, Note_on_c, 0, 80, 50
2, 2511, Note_off_c, 0, 80, 64
2, 2512, Note_on_c, 0, 79, 50
2, 2557, Note_off_c, 0, 79, 64
2, 2557, Note_on_c, 0, 77, 44
2, 2602, Note_off_c, 0, 77, 64
2, 2606, Note_on_c, 0, 76, 59
2, 2792, Note_off_c, 0, 76, 64
2, 2884, Note_on_c, 0, 73, 55
2, 2936, Note_off_c, 0, 73, 64
2, 2936, Note_on_c, 0, 72, 47
2, 2978, Note_off_c, 0, 72, 64
2, 2978, Note_on_c, 0, 70, 63
2, 3025, Note_off_c, 0, 70, 64
2, 3025, Note_on_c, 0, 72, 50
2, 3072, Note_off_c, 0, 72, 64
2, 3072, Note_on_c, 0, 70, 55
2, 3119, Note_off_c, 0, 70, 64
2, 3119, Note_on_c, 0, 68, 50
2, 3165, Note_off_c, 0, 68, 64
2, 3167, Note_on_c, 0, 67, 56
2, 3212, Note_off_c, 0, 67, 64
2, 3214, Note_on_c, 0, 68, 55
2, 3258, Note_off_c, 0, 68, 64
2, 3260, Note_on_c, 0, 67, 50
2, 3306, Note_off_c, 0, 67, 64
2, 3308, Note_on_c, 0, 65, 52
2, 3355, Note_off_c, 0, 65, 64
2, 3356, Note_on_c, 0, 64, 60
2, 3541, Note_off_c, 0, 64, 64
2, 3634, Note_on_c, 0, 73, 35
2, 3680, Note_off_c, 0, 73, 64
2, 3680, Note_on_c, 0, 72, 47
2, 3727, Note_off_c, 0, 72, 64
2, 3727, Note_on_c, 0, 70, 55
2, 3775, Note_off_c, 0, 70, 64
2, 3777, Note_on_c, 0, 72, 52
2, 3821, Note_off_c, 0, 72, 64
2, 3821, Note_on_c, 0, 70, 50
2, 3868, Note_off_c, 0, 70, 64
2, 3868, Note_on_c, 0, 68, 55
2, 3915, Note_off_c, 0, 68, 64
2, 3915, Note_on_c, 0, 67, 62
2, 3960, Note_off_c, 0, 67, 64
2, 3960, Note_on_c, 0, 68, 58
2, 4006, Note_off_c, 0, 68, 64
2, 4010, Note_on_c, 0, 67, 59
2, 4053, Note_off_c, 0, 67, 64
2, 4055, Note_on_c, 0, 65, 59
2, 4101, Note_off_c, 0, 65, 64
2, 4104, Note_on_c, 0, 64, 67
2, 4149, Note_off_c, 0, 64, 64
2, 4149, Note_on_c, 0, 65, 59
2, 4194, Note_off_c, 0, 65, 64
2, 4198, Note_on_c, 0, 64, 58
2, 4241, Note_off_c, 0, 64, 64
2, 4243, Note_on_c, 0, 61, 63
2, 4289, Note_off_c, 0, 61, 64
2, 4290, Note_on_c, 0, 60, 56
2, 4335, Note_off_c, 0, 60, 64
2, 4335, Note_on_c, 0, 61, 59
2, 4382, Note_off_c, 0, 61, 64
2, 4382, Note_on_c, 0, 60, 52
2, 4429, Note_off_c, 0, 60, 64
2, 4429, Note_on_c, 0, 59, 60
2, 4476, Note_off_c, 0, 59, 64
2, 4476, Note_on_c, 0, 58, 63
2, 4523, Note_off_c, 0, 58, 64
2, 4525, Note_on_c, 0, 60, 56
2, 4571, Note_off_c, 0, 60, 64
2, 4572, Note_on_c, 0, 58, 63
2, 4616, Note_off_c, 0, 58, 64
2, 4616, Note_on_c, 0, 56, 67
2, 4664, Note_off_c, 0, 56, 64
2, 4664, Note_on_c, 0, 55, 70
2, 4711, Note_off_c, 0, 55, 64
2, 4711, Note_on_c, 0, 56, 67
2, 4757, Note_off_c, 0, 56, 64
2, 4757, Note_on_c, 0, 55, 67
2, 4802, Note_off_c, 0, 55, 64
2, 4803, Note_on_c, 0, 53, 66
2, 4851, Note_off_c, 0, 53, 64
2, 4853, Note_on_c, 0, 52, 67
2, 4897, Note_off_c, 0, 52, 64
2, 4898, Note_on_c, 0, 53, 66
2, 4945, Note_off_c, 0, 53, 64
2, 4945, Note_on_c, 0, 52, 67
2, 4991, Note_off_c, 0, 52, 64
2, 4994, Note_on_c, 0, 49, 68
2, 5037, Note_off_c, 0, 49, 64
2, 5039, Note_on_c, 0, 48, 62
2, 5039, Note_on_c, 0, 36, 56
2, 5084, Note_off_c, 0, 36, 64
2, 5084, Note_off_c, 0, 48, 64
2, 5086, Note_on_c, 0, 49, 58
2, 5086, Note_on_c, 0, 37, 44
2, 5132, Note_off_c, 0, 37, 64
2, 5133, Note_off_c, 0, 49, 64
2, 5134, Note_on_c, 0, 48, 50
2, 5135, Note_on_c, 0, 36, 44
2, 5179, Note_off_c, 0, 36, 64
2, 5180, Note_off_c, 0, 48, 64
2, 5181, Note_on_c, 0, 47, 44
2, 5181, Note_on_c, 0, 35, 39
2, 5225, Note_off_c, 0, 35, 64
2, 5225, Note_off_c, 0, 47, 64
2, 5225, Note_on_c, 0, 48, 70
2, 5225, Note_on_c, 0, 36, 59
2, 5272, Note_off_c, 0, 36, 64
2, 5272, Note_off_c, 0, 48, 64
2, 5272, Note_on_c, 0, 37, 50
2, 5272, Note_on_c, 0, 49, 58
2, 5319, Note_off_c, 0, 49, 64
2, 5319, Note_off_c, 0, 37, 64
2, 5319, Note_on_c, 0, 48, 50
2, 5319, Note_on_c, 0, 36, 59
2, 5367, Note_off_c, 0, 36, 64
2, 5368, Note_off_c, 0, 48, 64
2, 5369, Note_on_c, 0, 35, 47
2, 5369, Note_on_c, 0, 47, 47
2, 5412, Note_off_c, 0, 47, 64
2, 5412, Note_off_c, 0, 35, 64
2, 5412, Note_on_c, 0, 48, 70
2, 5412, Note_on_c, 0, 36, 70
2, 5461, Note_off_c, 0, 36, 64
2, 5462, Note_off_c, 0, 48, 64
2, 5464, Note_on_c, 0, 49, 55
2, 5465, Note_on_c, 0, 37, 58
2, 5506, Note_off_c, 0, 37, 64
2, 5506, Note_off_c, 0, 49, 64
2, 5506, Note_on_c, 0, 48, 56
2, 5506, Note_on_c, 0, 36, 59
2, 5553, Note_off_c, 0, 36, 64
2, 5554, Note_off_c, 0, 48, 64
2, 5555, Note_on_c, 0, 47, 52
2, 5555, Note_on_c, 0, 35, 47
2, 5598, Note_off_c, 0, 35, 64
2, 5598, Note_off_c, 0, 47, 64
2, 5602, Note_on_c, 0, 48, 59
2, 5602, Note_on_c, 0, 36, 67
2, 5645, Note_off_c, 0, 36, 64
2, 5645, Note_off_c, 0, 48, 64
2, 5647, Note_on_c, 0, 49, 55
2, 5647, Note_on_c, 0, 37, 50
2, 5692, Note_off_c, 0, 37, 64
2, 5692, Note_off_c, 0, 49, 64
2, 5693, Note_on_c, 0, 48, 56
2, 5693, Note_on_c, 0, 36, 56
2, 5741, Note_off_c, 0, 36, 64
2, 5742, Note_off_c, 0, 48, 64
2, 5742, Note_on_c, 0, 47, 52
2, 5743, Note_on_c, 0, 35, 47
2, 5787, Note_off_c, 0, 35, 64
2, 5788, Note_off_c, 0, 47, 64
2, 5790, Note_on_c, 0, 48, 59
2, 5790, Note_on_c, 0, 36, 59
2, 5832, Note_off_c, 0, 36, 64
2, 5832, Note_off_c, 0, 48, 64
2, 5836, Note_on_c, 0, 49, 58
2, 5837, Note_on_c, 0, 37, 55
2, 5881, Note_off_c, 0, 37, 64
2, 5882, Note_off_c, 0, 49, 64
2, 5883, Note_on_c, 0, 48, 62
2, 5884, Note_on_c, 0, 36, 62
2, 5928, Note_off_c, 0, 36, 64
2, 5929, Note_off_c, 0, 48, 64
2, 5930, Note_on_c, 0, 47, 62
2, 5931, Note_on_c, 0, 35, 44
2, 5975, Note_off_c, 0, 35, 64
2, 5976, Note_off_c, 0, 47, 64
2, 5977, Note_on_c, 0, 46, 78
2, 5978, Note_on_c, 0, 34, 58
2, 6020, Note_off_c, 0, 34, 64
2, 6020, Note_off_c, 0, 46, 64
2, 6020, Note_on_c, 0, 48, 59
2, 6020, Note_on_c, 0, 36, 44
2, 6068, Note_off_c, 0, 36, 64
2, 6068, Note_off_c, 0, 48, 64
2, 6068, Note_on_c, 0, 46, 67
2, 6068, Note_on_c, 0, 34, 47
2, 6115, Note_off_c, 0, 34, 64
2, 6115, Note_off_c, 0, 46, 64
2, 6115, Note_on_c, 0, 45, 62
2, 6115, Note_on_c, 0, 33, 44
2, 6163, Note_off_c, 0, 33, 64
2, 6164, Note_off_c, 0, 45, 64
2, 6164, Note_on_c, 0, 46, 72
2, 6165, Note_on_c, 0, 34, 63
2, 6208, Note_off_c, 0, 34, 64
2, 6208, Note_off_c, 0, 46, 64
2, 6208, Note_on_c, 0, 36, 47
2, 6208, Note_on_c, 0, 48, 59
2, 6256, Note_off_c, 0, 36, 64
2, 6257, Note_off_c, 0, 48, 64
2, 6258, Note_on_c, 0, 46, 67
2, 6259, Note_on_c, 0, 34, 58
2, 6302, Note_off_c, 0, 34, 64
2, 6302, Note_off_c, 0, 46, 64
2, 6302, Note_on_c, 0, 33, 50
2, 6302, Note_on_c, 0, 45, 62
2, 6349, Note_off_c, 0, 45, 64
2, 6349, Note_off_c, 0, 33, 64
2, 6350, Note_on_c, 0, 46, 72
2, 6351, Note_on_c, 0, 34, 55
2, 6394, Note_off_c, 0, 34, 64
2, 6394, Note_off_c, 0, 46, 64
2, 6398, Note_on_c, 0, 48, 59
2, 6398, Note_on_c, 0, 36, 47
2, 6441, Note_off_c, 0, 36, 64
2, 6441, Note_off_c, 0, 48, 64
2, 6443, Note_on_c, 0, 46, 67
2, 6443, Note_on_c, 0, 34, 47
2, 6488, Note_off_c, 0, 34, 64
2, 6490, Note_off_c, 0, 46, 64
2, 6492, Note_on_c, 0, 45, 62
2, 6493, Note_on_c, 0, 33, 50
2, 6536, Note_off_c, 0, 33, 64
2, 6537, Note_off_c, 0, 45, 64
2, 6538, Note_on_c, 0, 46, 84
2, 6539, Note_on_c, 0, 34, 68
2, 6584, Note_off_c, 0, 34, 64
2, 6584, Note_off_c, 0, 46, 64
2, 6585, Note_on_c, 0, 48, 67
2, 6586, Note_on_c, 0, 36, 52
2, 6629, Note_off_c, 0, 36, 64
2, 6629, Note_off_c, 0, 48, 64
2, 6632, Note_on_c, 0, 46, 72
2, 6632, Note_on_c, 0, 34, 58
2, 6676, Note_off_c, 0, 34, 64
2, 6676, Note_off_c, 0, 46, 64
2, 6676, Note_on_c, 0, 45, 62
2, 6676, Note_on_c, 0, 33, 52
2, 6724, Note_off_c, 0, 33, 64
2, 6725, Note_off_c, 0, 45, 64
2, 6726, Note_on_c, 0, 46, 72
2, 6727, Note_on_c, 0, 34, 68
2, 6770, Note_off_c, 0, 34, 64
2, 6770, Note_off_c, 0, 46, 64
2, 6770, Note_on_c, 0, 48, 50
2, 6770, Note_on_c, 0, 36, 50
2, 6817, Note_off_c, 0, 36, 64
2, 6817, Note_off_c, 0, 48, 64
2, 6817, Note_on_c, 0, 46, 54
2, 6817, Note_on_c, 0, 34, 50
2, 6863, Note_off_c, 0, 34, 64
2, 6863, Note_off_c, 0, 46, 64
2, 6863, Note_on_c, 0, 45, 56
2, 6863, Note_on_c, 0, 33, 50
2, 6910, Note_off_c, 0, 33, 64
2, 6910, Note_off_c, 0, 45, 64
2, 6910, Note_on_c, 0, 46, 62
2, 6910, Note_on_c, 0, 34, 63
2, 6958, Note_off_c, 0, 34, 64
2, 6959, Note_off_c, 0, 46, 64
2, 6960, Note_on_c, 0, 48, 52
2, 6961, Note_on_c, 0, 36, 52
2, 7004, Note_off_c, 0, 36, 64
2, 7004, Note_off_c, 0, 48, 64
2, 7004, Note_on_c, 0, 46, 62
2, 7004, Note_on_c, 0, 34, 55
2, 7051, Note_off_c, 0, 34, 64
2, 7051, Note_off_c, 0, 46, 64
2, 7051, Note_on_c, 0, 45, 62
2, 7051, Note_on_c, 0, 33, 47
2, 7098, Note_off_c, 0, 33, 64
2, 7098, Note_off_c, 0, 45, 64
2, 7098, Note_on_c, 0, 46, 72
2, 7098, Note_on_c, 0, 34, 63
2, 7145, Note_off_c, 0, 34, 64
2, 7145, Note_off_c, 0, 46, 64
2, 7146, Note_on_c, 0, 43, 67
2, 7147, Note_on_c, 0, 31, 52
2, 7190, Note_off_c, 0, 31, 64
2, 7190, Note_off_c, 0, 43, 64
2, 7194, Note_on_c, 0, 44, 74
2, 7195, Note_on_c, 0, 32, 63
2, 7237, Note_off_c, 0, 44, 64
2, 7237, Note_off_c, 0, 32, 64
2, 7239, Note_on_c, 0, 46, 78
2, 7239, Note_on_c, 0, 34, 63
2, 7284, Note_off_c, 0, 34, 64
2, 7285, Note_off_c, 0, 46, 64
2, 7287, Note_on_c, 0, 48, 70
2, 7288, Note_on_c, 0, 36, 67
2, 7331, Note_off_c, 0, 36, 64
2, 7331, Note_off_c, 0, 48, 64
2, 7334, Note_on_c, 0, 46, 78
2, 7336, Note_on_c, 0, 34, 55
2, 7378, Note_off_c, 0, 34, 64
2, 7378, Note_off_c, 0, 46, 64
2, 7381, Note_on_c, 0, 44, 80
2, 7382, Note_on_c, 0, 32, 68
2, 7424, Note_off_c, 0, 32, 64
2, 7424, Note_off_c, 0, 44, 64
2, 7426, Note_on_c, 0, 43, 75
2, 7426, Note_on_c, 0, 31, 70
2, 7472, Note_off_c, 0, 31, 64
2, 7473, Note_off_c, 0, 43, 64
2, 7475, Note_on_c, 0, 29, 75
2, 7519, Note_on_c, 0, 48, 41
2, 7567, Note_off_c, 0, 48, 64
2, 7568, Note_on_c, 0, 53, 40
2, 7612, Note_off_c, 0, 53, 64
2, 7612, Note_on_c, 0, 56, 54
2, 7660, Note_off_c, 0, 56, 64
2, 7661, Note_off_c, 0, 29, 64
2, 7662, Note_on_c, 0, 60, 47
2, 7706, Note_off_c, 0, 60, 64
2, 7706, Note_on_c, 0, 61, 51
2, 7754, Note_off_c, 0, 61, 64
2, 7755, Note_on_c, 0, 60, 44
2, 7800, Note_off_c, 0, 60, 64
2, 7800, Note_on_c, 0, 58, 47
2, 7847, Note_off_c, 0, 58, 64
2, 7847, Note_on_c, 0, 56, 59
2, 7894, Note_off_c, 0, 56, 64
2, 7894, Note_on_c, 0, 58, 50
2, 7940, Note_off_c, 0, 58, 64
2, 7944, Note_on_c, 0, 56, 48
2, 7987, Note_off_c, 0, 56, 64
2, 7988, Note_on_c, 0, 55, 50
2, 8033, Note_off_c, 0, 55, 64
2, 8035, Note_on_c, 0, 53, 56
2, 8080, Note_off_c, 0, 53, 64
2, 8082, Note_on_c, 0, 55, 32
2, 8126, Note_off_c, 0, 55, 64
2, 8130, Note_on_c, 0, 56, 48
2, 8173, Note_off_c, 0, 56, 64
2, 8177, Note_on_c, 0, 53, 51
2, 8178, Note_on_c, 0, 41, 60
2, 8220, Note_off_c, 0, 41, 64
2, 8220, Note_off_c, 0, 53, 64
2, 8222, Note_on_c, 0, 29, 86
2, 8269, Note_on_c, 0, 48, 44
2, 8314, Note_off_c, 0, 48, 64
2, 8314, Note_on_c, 0, 53, 48
2, 8362, Note_off_c, 0, 53, 64
2, 8365, Note_on_c, 0, 56, 54
2, 8408, Note_off_c, 0, 56, 64
2, 8408, Note_off_c, 0, 29, 64
2, 8408, Note_on_c, 0, 60, 59
2, 8455, Note_off_c, 0, 60, 64
2, 8455, Note_on_c, 0, 61, 51
2, 8502, Note_off_c, 0, 61, 64
2, 8502, Note_on_c, 0, 60, 50
2, 8550, Note_off_c, 0, 60, 64
2, 8551, Note_on_c, 0, 58, 44
2, 8596, Note_off_c, 0, 58, 64
2, 8596, Note_on_c, 0, 56, 51
2, 8643, Note_off_c, 0, 56, 64
2, 8643, Note_on_c, 0, 58, 44
2, 8690, Note_off_c, 0, 58, 64
2, 8690, Note_on_c, 0, 56, 39
2, 8736, Note_off_c, 0, 56, 64
2, 8736, Note_on_c, 0, 55, 50
2, 8781, Note_off_c, 0, 55, 64
2, 8785, Note_on_c, 0, 53, 51
2, 8828, Note_off_c, 0, 53, 64
2, 8830, Note_on_c, 0, 55, 50
2, 8876, Note_off_c, 0, 55, 64
2, 8877, Note_on_c, 0, 56, 54
2, 8923, Note_off_c, 0, 56, 64
2, 8925, Note_on_c, 0, 53, 56
2, 8926, Note_on_c, 0, 41, 63
2, 8936, Control_c, 0, 64, 64
2, 8945, Control_c, 0, 64, 96
2, 8962, Control_c, 0, 64, 127
2, 8969, Note_off_c, 0, 41, 64
2, 8969, Note_off_c, 0, 53, 64
2, 8973, Note_on_c, 0, 34, 80
2, 9018, Note_on_c, 0, 49, 47
2, 9035, Control_c, 0, 64, 96
2, 9047, Control_c, 0, 64, 0
2, 9064, Note_off_c, 0, 49, 64
2, 9067, Note_on_c, 0, 54, 55
2, 9110, Note_off_c, 0, 54, 64
2, 9110, Note_on_c, 0, 58, 40
2, 9158, Note_off_c, 0, 58, 64
2, 9159, Note_off_c, 0, 34, 64
2, 9160, Note_on_c, 0, 61, 59
2, 9204, Note_off_c, 0, 61, 64
2, 9204, Note_on_c, 0, 63, 58
2, 9252, Note_off_c, 0, 63, 64
2, 9253, Note_on_c, 0, 61, 54
2, 9298, Note_off_c, 0, 61, 64
2, 9298, Note_on_c, 0, 60, 44
2, 9346, Note_off_c, 0, 60, 64
2, 9347, Note_on_c, 0, 58, 55
2, 9392, Note_off_c, 0, 58, 64
2, 9392, Note_on_c, 0, 60, 52
2, 9439, Note_off_c, 0, 60, 64
2, 9439, Note_on_c, 0, 58, 44
2, 9486, Note_off_c, 0, 58, 64
2, 9486, Note_on_c, 0, 56, 54
2, 9532, Note_off_c, 0, 56, 64
2, 9532, Note_on_c, 0, 54, 55
2, 9579, Note_off_c, 0, 54, 64
2, 9581, Note_on_c, 0, 56, 44
2, 9624, Note_off_c, 0, 56, 64
2, 9626, Note_on_c, 0, 54, 50
2, 9672, Note_off_c, 0, 54, 64
2, 9673, Note_on_c, 0, 53, 51
2, 9673, Note_on_c, 0, 37, 74
2, 9720, Note_off_c, 0, 37, 64
2, 9721, Note_off_c, 0, 53, 64
2, 9721, Note_on_c, 0, 52, 59
2, 9722, Note_on_c, 0, 36, 86
2, 9766, Note_off_c, 0, 36, 64
2, 9767, Note_off_c, 0, 52, 64
2, 9767, Note_on_c, 0, 53, 56
2, 9815, Note_off_c, 0, 53, 64
2, 9816, Note_on_c, 0, 55, 47
2, 9860, Note_off_c, 0, 55, 64
2, 9861, Note_on_c, 0, 52, 52
2, 9906, Note_off_c, 0, 52, 64
2, 9906, Note_on_c, 0, 53, 60
2, 9906, Note_on_c, 0, 37, 74
2, 9954, Note_off_c, 0, 37, 64
2, 9955, Note_off_c, 0, 53, 64
2, 9956, Note_on_c, 0, 55, 44
2, 9999, Note_off_c, 0, 55, 64
2, 9999, Note_on_c, 0, 56, 51
2, 10047, Note_off_c, 0, 56, 64
2, 10047, Note_on_c, 0, 53, 54
2, 10095, Note_off_c, 0, 53, 64
2, 10096, Note_on_c, 0, 55, 62
2, 10097, Note_on_c, 0, 34, 80
2, 10142, Note_off_c, 0, 34, 64
2, 10143, Note_off_c, 0, 55, 64
2, 10144, Note_on_c, 0, 56, 59
2, 10187, Note_off_c, 0, 56, 64
2, 10187, Note_on_c, 0, 58, 58
2, 10234, Note_off_c, 0, 58, 64
2, 10234, Note_on_c, 0, 55, 52
2, 10281, Note_off_c, 0, 55, 64
2, 10281, Note_on_c, 0, 52, 59
2, 10281, Note_on_c, 0, 36, 70
2, 10328, Note_off_c, 0, 36, 64
2, 10328, Note_off_c, 0, 52, 64
2, 10330, Note_on_c, 0, 53, 60
2, 10374, Note_off_c, 0, 53, 64
2, 10376, Note_on_c, 0, 55, 50
2, 10420, Note_off_c, 0, 55, 64
2, 10424, Note_on_c, 0, 52, 56
2, 10468, Note_off_c, 0, 52, 64
2, 10469, Note_on_c, 0, 29, 80
2, 10469, Note_on_c, 0, 41, 84
2, 10469, Note_on_c, 0, 53, 60
2, 10516, Note_off_c, 0, 53, 64
2, 10516, Note_on_c, 0, 48, 44
2, 10562, Note_off_c, 0, 48, 64
2, 10563, Note_on_c, 0, 53, 51
2, 10608, Note_off_c, 0, 53, 64
2, 10611, Note_on_c, 0, 56, 59
2, 10655, Note_off_c, 0, 56, 64
2, 10656, Note_off_c, 0, 41, 64
2, 10657, Note_off_c, 0, 29, 64
2, 10659, Note_on_c, 0, 60, 67
2, 10704, Note_off_c, 0, 60, 64
2, 10705, Note_on_c, 0, 61, 62
2, 10750, Note_off_c, 0, 61, 64
2, 10751, Note_on_c, 0, 60, 56
2, 10796, Note_off_c, 0, 60, 64
2, 10796, Note_on_c, 0, 58, 55
2, 10796, Note_on_c, 0, 72, 70
2, 10796, Note_on_c, 0, 68, 74
2, 10842, Note_off_c, 0, 68, 64
2, 10842, Note_off_c, 0, 72, 64
2, 10842, Note_off_c, 0, 58, 64
2, 10842, Note_on_c, 0, 56, 62
2, 10842, Note_on_c, 0, 68, 68
2, 10842, Note_on_c, 0, 72, 70
2, 10890, Note_off_c, 0, 56, 64
2, 10890, Note_on_c, 0, 58, 55
2, 10933, Control_c, 0, 64, 64
2, 10937, Note_off_c, 0, 58, 64
2, 10937, Note_on_c, 0, 56, 54
2, 10983, Note_off_c, 0, 56, 64
2, 10983, Note_on_c, 0, 55, 47
2, 11010, Control_c, 0, 64, 96
2, 11030, Note_off_c, 0, 55, 64
2, 11030, Note_off_c, 0, 72, 64
2, 11030, Note_off_c, 0, 68, 64
2, 11030, Note_on_c, 0, 65, 44
2, 11030, Note_on_c, 0, 68, 63
2, 11030, Note_on_c, 0, 53, 54
2, 11077, Note_off_c, 0, 53, 64
2, 11077, Note_on_c, 0, 55, 50
2, 11124, Note_off_c, 0, 55, 64
2, 11125, Note_off_c, 0, 68, 64
2, 11125, Note_off_c, 0, 65, 64
2, 11126, Note_on_c, 0, 56, 62
2, 11143, Control_c, 0, 64, 64
2, 11150, Control_c, 0, 64, 0
2, 11171, Note_off_c, 0, 56, 64
2, 11171, Note_on_c, 0, 53, 48
2, 11216, Note_off_c, 0, 53, 64
2, 11218, Note_on_c, 0, 29, 92
2, 11218, Note_on_c, 0, 41, 90
2, 11264, Note_on_c, 0, 48, 56
2, 11312, Note_off_c, 0, 48, 64
2, 11312, Note_on_c, 0, 53, 54
2, 11358, Note_off_c, 0, 53, 64
2, 11359, Note_on_c, 0, 56, 62
2, 11404, Note_off_c, 0, 56, 64
2, 11404, Note_off_c, 0, 41, 64
2, 11404, Note_off_c, 0, 29, 64
2, 11407, Note_on_c, 0, 60, 59
2, 11451, Note_off_c, 0, 60, 64
2, 11452, Note_on_c, 0, 61, 62
2, 11499, Note_off_c, 0, 61, 64
2, 11500, Note_on_c, 0, 60, 50
2, 11546, Note_off_c, 0, 60, 64
2, 11547, Note_on_c, 0, 58, 55
2, 11548, Note_on_c, 0, 72, 70
2, 11548, Note_on_c, 0, 68, 74
2, 11591, Note_off_c, 0, 68, 64
2, 11591, Note_off_c, 0, 72, 64
2, 11591, Note_off_c, 0, 58, 64
2, 11591, Note_on_c, 0, 56, 62
2, 11591, Note_on_c, 0, 68, 80
2, 11591, Note_on_c, 0, 72, 75
2, 11638, Note_off_c, 0, 56, 64
2, 11638, Note_on_c, 0, 58, 50
2, 11651, Control_c, 0, 64, 64
2, 11685, Note_off_c, 0, 58, 64
2, 11685, Note_on_c, 0, 56, 59
2, 11734, Note_off_c, 0, 56, 64
2, 11735, Note_on_c, 0, 55, 47
2, 11777, Control_c, 0, 64, 96
2, 11781, Note_off_c, 0, 55, 64
2, 11782, Note_off_c, 0, 72, 64
2, 11782, Note_off_c, 0, 68, 64
2, 11784, Note_on_c, 0, 53, 54
2, 11784, Note_on_c, 0, 68, 58
2, 11785, Note_on_c, 0, 65, 52
2, 11826, Note_off_c, 0, 53, 64
2, 11826, Note_on_c, 0, 55, 44
2, 11873, Note_off_c, 0, 55, 64
2, 11873, Note_off_c, 0, 65, 64
2, 11873, Note_off_c, 0, 68, 64
2, 11873, Note_on_c, 0, 56, 67
2, 11912, Control_c, 0, 64, 64
2, 11920, Note_off_c, 0, 56, 64
2, 11920, Note_on_c, 0, 53, 60
2, 11924, Control_c, 0, 64, 0
2, 11965, Note_off_c, 0, 53, 64
2, 11969, Note_on_c, 0, 46, 78
2, 11969, Note_on_c, 0, 34, 74
2, 12014, Note_on_c, 0, 49, 55
2, 12059, Note_off_c, 0, 49, 64
2, 12061, Note_on_c, 0, 54, 50
2, 12107, Note_off_c, 0, 54, 64
2, 12107, Note_on_c, 0, 58, 50
2, 12152, Note_off_c, 0, 58, 64
2, 12152, Note_off_c, 0, 34, 64
2, 12152, Note_off_c, 0, 46, 64
2, 12156, Note_on_c, 0, 61, 59
2, 12200, Note_off_c, 0, 61, 64
2, 12201, Note_on_c, 0, 63, 58
2, 12248, Note_off_c, 0, 63, 64
2, 12250, Note_on_c, 0, 61, 48
2, 12293, Note_off_c, 0, 61, 64
2, 12293, Note_on_c, 0, 60, 47
2, 12293, Note_on_c, 0, 73, 86
2, 12293, Note_on_c, 0, 70, 80
2, 12342, Note_off_c, 0, 70, 64
2, 12343, Note_off_c, 0, 73, 64
2, 12343, Note_off_c, 0, 60, 64
2, 12344, Note_on_c, 0, 58, 68
2, 12345, Note_on_c, 0, 70, 19
2, 12346, Note_on_c, 0, 73, 86
2, 12387, Note_off_c, 0, 58, 64
2, 12387, Note_on_c, 0, 60, 41
2, 12434, Note_off_c, 0, 60, 64
2, 12434, Note_on_c, 0, 58, 47
2, 12481, Note_off_c, 0, 58, 64
2, 12481, Note_on_c, 0, 56, 48
2, 12529, Note_off_c, 0, 56, 64
2, 12531, Note_on_c, 0, 54, 63
2, 12575, Note_off_c, 0, 54, 64
2, 12575, Note_on_c, 0, 56, 48
2, 12622, Note_off_c, 0, 56, 64
2, 12622, Note_on_c, 0, 54, 47
2, 12669, Note_off_c, 0, 54, 64
2, 12669, Note_on_c, 0, 53, 54
2, 12717, Note_off_c, 0, 53, 64
2, 12718, Note_off_c, 0, 73, 64
2, 12719, Note_off_c, 0, 70, 64
2, 12720, Note_on_c, 0, 52, 62
2, 12720, Note_on_c, 0, 72, 50
2, 12721, Note_on_c, 0, 70, 50
2, 12762, Note_off_c, 0, 70, 64
2, 12763, Note_off_c, 0, 72, 64
2, 12764, Note_off_c, 0, 52, 64
2, 12764, Note_on_c, 0, 53, 54
2, 12808, Note_off_c, 0, 53, 64
2, 12810, Note_on_c, 0, 55, 47
2, 12810, Note_on_c, 0, 48, 67
2, 12810, Note_on_c, 0, 36, 67
2, 12855, Note_off_c, 0, 36, 64
2, 12855, Note_off_c, 0, 48, 64
2, 12855, Note_off_c, 0, 55, 64
2, 12857, Note_on_c, 0, 52, 59
2, 12904, Note_off_c, 0, 52, 64
2, 12904, Note_on_c, 0, 53, 71
2, 12950, Note_off_c, 0, 53, 64
2, 12950, Note_on_c, 0, 55, 52
2, 12995, Note_off_c, 0, 55, 64
2, 12997, Note_on_c, 0, 56, 67
2, 12997, Note_on_c, 0, 49, 74
2, 12997, Note_on_c, 0, 37, 80
2, 13042, Note_off_c, 0, 37, 64
2, 13042, Note_off_c, 0, 49, 64
2, 13042, Note_off_c, 0, 56, 64
2, 13044, Note_on_c, 0, 53, 45
2, 13091, Note_off_c, 0, 53, 64
2, 13092, Note_on_c, 0, 55, 59
2, 13136, Note_off_c, 0, 55, 64
2, 13136, Note_on_c, 0, 56, 67
2, 13183, Note_off_c, 0, 56, 64
2, 13183, Note_on_c, 0, 58, 55
2, 13183, Note_on_c, 0, 46, 78
2, 13183, Note_on_c, 0, 34, 80
2, 13230, Note_off_c, 0, 34, 64
2, 13230, Note_off_c, 0, 46, 64
2, 13230, Note_off_c, 0, 58, 64
2, 13230, Note_on_c, 0, 55, 50
2, 13277, Note_off_c, 0, 55, 64
2, 13277, Note_on_c, 0, 52, 67
2, 13325, Note_off_c, 0, 52, 64
2, 13326, Note_on_c, 0, 53, 60
2, 13371, Note_off_c, 0, 53, 64
2, 13371, Note_on_c, 0, 55, 52
2, 13371, Note_on_c, 0, 48, 67
2, 13371, Note_on_c, 0, 36, 67
2, 13418, Note_off_c, 0, 36, 64
2, 13418, Note_off_c, 0, 48, 64
2, 13418, Note_off_c, 0, 55, 64
2, 13418, Note_on_c, 0, 52, 56
2, 13465, Note_off_c, 0, 52, 64
2, 13467, Note_on_c, 0, 53, 63
2, 13467, Note_on_c, 0, 41, 71
2, 13468, Note_on_c, 0, 29, 75
2, 13511, Note_off_c, 0, 53, 64
2, 13511, Note_on_c, 0, 60, 41
2, 13557, Note_off_c, 0, 60, 64
2, 13557, Note_off_c, 0, 29, 64
2, 13557, Note_off_c, 0, 41, 64
2, 13557, Note_on_c, 0, 65, 44
2, 13604, Note_off_c, 0, 65, 64
2, 13605, Note_on_c, 0, 68, 38
2, 13652, Note_off_c, 0, 68, 64
2, 13652, Note_on_c, 0, 72, 59
2, 13675, Control_c, 0, 64, 64
2, 13698, Note_off_c, 0, 72, 64
2, 13700, Note_on_c, 0, 60, 47
2, 13746, Note_off_c, 0, 60, 64
2, 13746, Note_on_c, 0, 65, 52
2, 13747, Control_c, 0, 64, 96
2, 13791, Note_off_c, 0, 65, 64
2, 13795, Note_on_c, 0, 68, 50
2, 13796, Note_on_c, 0, 56, 72
2, 13797, Note_on_c, 0, 53, 66
2, 13811, Control_c, 0, 64, 127
2, 13838, Note_off_c, 0, 53, 64
2, 13838, Note_off_c, 0, 56, 64
2, 13838, Note_off_c, 0, 68, 64
2, 13840, Note_on_c, 0, 53, 60
2, 13840, Note_on_c, 0, 56, 67
2, 13885, Note_on_c, 0, 60, 44
2, 13934, Note_off_c, 0, 60, 64
2, 13935, Note_on_c, 0, 65, 47
2, 13979, Note_off_c, 0, 65, 64
2, 13979, Note_on_c, 0, 68, 22
2, 14026, Note_off_c, 0, 68, 64
2, 14026, Note_off_c, 0, 56, 64
2, 14026, Note_off_c, 0, 53, 64
2, 14026, Note_on_c, 0, 72, 67
2, 14073, Note_off_c, 0, 72, 64
2, 14075, Note_on_c, 0, 60, 56
2, 14121, Note_off_c, 0, 60, 64
2, 14122, Note_on_c, 0, 65, 52
2, 14167, Note_off_c, 0, 65, 64
2, 14167, Note_on_c, 0, 68, 47
2, 14167, Note_on_c, 0, 53, 71
2, 14167, Note_on_c, 0, 56, 72
2, 14191, Control_c, 0, 64, 0
2, 14214, Note_off_c, 0, 56, 64
2, 14214, Note_off_c, 0, 53, 64
2, 14214, Note_off_c, 0, 68, 64
2, 14214, Note_on_c, 0, 56, 90
2, 14214, Note_on_c, 0, 48, 75
2, 14214, Note_on_c, 0, 53, 84
2, 14242, Control_c, 0, 64, 64
2, 14251, Control_c, 0, 64, 127
2, 14263, Note_on_c, 0, 59, 38
2, 14307, Note_off_c, 0, 59, 64
2, 14307, Note_on_c, 0, 62, 50
2, 14352, Note_off_c, 0, 62, 64
2, 14356, Note_on_c, 0, 68, 58
2, 14399, Note_off_c, 0, 68, 64
2, 14401, Note_on_c, 0, 71, 59
2, 14447, Note_off_c, 0, 71, 64
2, 14448, Note_on_c, 0, 59, 54
2, 14495, Note_off_c, 0, 59, 64
2, 14495, Note_on_c, 0, 62, 44
2, 14541, Note_off_c, 0, 62, 64
2, 14542, Note_on_c, 0, 68, 47
2, 14588, Note_off_c, 0, 68, 64
2, 14589, Note_off_c, 0, 53, 64
2, 14589, Note_off_c, 0, 48, 64
2, 14590, Note_off_c, 0, 56, 64
2, 14591, Note_on_c, 0, 71, 62
2, 14592, Note_on_c, 0, 55, 50
2, 14592, Note_on_c, 0, 52, 52
2, 14593, Note_on_c, 0, 48, 21
2, 14618, Control_c, 0, 64, 96
2, 14627, Control_c, 0, 64, 64
2, 14636, Control_c, 0, 64, 0
2, 14636, Note_on_c, 0, 59, 51
2, 14681, Note_off_c, 0, 59, 64
2, 14681, Note_off_c, 0, 48, 64
2, 14681, Note_off_c, 0, 52, 64
2, 14681, Note_off_c, 0, 55, 64
2, 14681, Note_on_c, 0, 64, 47
2, 14729, Note_off_c, 0, 64, 64
2, 14730, Note_on_c, 0, 67, 39
2, 14776, Note_off_c, 0, 67, 64
2, 14777, Note_off_c, 0, 71, 64
2, 14778, Note_on_c, 0, 72, 59
2, 14822, Note_on_c, 0, 60, 26
2, 14869, Note_off_c, 0, 60, 64
2, 14869, Note_on_c, 0, 64, 26
2, 14917, Note_off_c, 0, 64, 64
2, 14918, Note_on_c, 0, 67, 25
2, 14962, Note_off_c, 0, 67, 64
2, 14962, Note_off_c, 0, 72, 64
2, 14962, Note_on_c, 0, 48, 75
2, 14962, Note_on_c, 0, 36, 80
2, 15009, Note_on_c, 0, 60, 47
2, 15056, Note_off_c, 0, 60, 64
2, 15056, Note_on_c, 0, 64, 40
2, 15104, Note_off_c, 0, 64, 64
2, 15105, Note_on_c, 0, 67, 50
2, 15149, Note_off_c, 0, 67, 64
2, 15149, Note_off_c, 0, 36, 64
2, 15149, Note_off_c, 0, 48, 64
2, 15152, Note_on_c, 0, 72, 41
2, 15195, Note_off_c, 0, 72, 64
2, 15197, Note_on_c, 0, 60, 39
2, 15242, Note_off_c, 0, 60, 64
2, 15244, Note_on_c, 0, 64, 52
2, 15291, Note_off_c, 0, 64, 64
2, 15291, Note_on_c, 0, 67, 47
2, 15291, Note_on_c, 0, 55, 67
2, 15291, Note_on_c, 0, 58, 58
2, 15337, Note_off_c, 0, 58, 64
2, 15338, Note_off_c, 0, 55, 64
2, 15339, Note_off_c, 0, 67, 64
2, 15340, Note_on_c, 0, 55, 59
2, 15340, Note_on_c, 0, 58, 68
2, 15360, Control_c, 0, 64, 64
2, 15377, Control_c, 0, 64, 96
2, 15385, Note_on_c, 0, 60, 50
2, 15430, Note_off_c, 0, 60, 64
2, 15433, Note_on_c, 0, 64, 31
2, 15477, Note_off_c, 0, 64, 64
2, 15477, Note_on_c, 0, 67, 52
2, 15525, Note_off_c, 0, 67, 64
2, 15526, Note_off_c, 0, 58, 64
2, 15526, Note_off_c, 0, 55, 64
2, 15527, Note_on_c, 0, 72, 59
2, 15571, Note_off_c, 0, 72, 64
2, 15571, Note_on_c, 0, 60, 52
2, 15605, Control_c, 0, 64, 64
2, 15614, Control_c, 0, 64, 0
2, 15618, Note_off_c, 0, 60, 64
2, 15620, Note_on_c, 0, 64, 49
2, 15665, Note_off_c, 0, 64, 64
2, 15665, Note_on_c, 0, 67, 50
2, 15665, Note_on_c, 0, 58, 68
2, 15666, Note_on_c, 0, 55, 70
2, 15696, Control_c, 0, 64, 64
2, 15707, Control_c, 0, 64, 96
2, 15713, Note_off_c, 0, 55, 64
2, 15714, Note_off_c, 0, 58, 64
2, 15715, Note_off_c, 0, 67, 64
2, 15716, Note_on_c, 0, 58, 74
2, 15716, Note_on_c, 0, 55, 70
2, 15716, Note_on_c, 0, 53, 74
2, 15760, Note_on_c, 0, 60, 50
2, 15805, Note_off_c, 0, 60, 64
2, 15805, Note_on_c, 0, 64, 44
2, 15852, Note_off_c, 0, 64, 64
2, 15852, Note_on_c, 0, 67, 59
2, 15886, Control_c, 0, 64, 127
2, 15899, Note_off_c, 0, 67, 64
2, 15899, Note_on_c, 0, 72, 56
2, 15945, Note_off_c, 0, 72, 64
2, 15948, Note_on_c, 0, 60, 34
2, 15991, Note_off_c, 0, 60, 64
2, 15993, Note_on_c, 0, 64, 44
2, 16039, Note_off_c, 0, 64, 64
2, 16040, Note_on_c, 0, 67, 52
2, 16087, Note_off_c, 0, 67, 64
2, 16087, Note_off_c, 0, 53, 64
2, 16088, Note_off_c, 0, 55, 64
2, 16088, Note_off_c, 0, 58, 64
2, 16090, Note_on_c, 0, 72, 56
2, 16091, Note_on_c, 0, 56, 42
2, 16092, Note_on_c, 0, 53, 43
2, 16132, Note_off_c, 0, 72, 64
2, 16136, Note_on_c, 0, 60, 44
2, 16158, Control_c, 0, 64, 96
2, 16179, Note_off_c, 0, 60, 64
2, 16179, Note_off_c, 0, 53, 64
2, 16179, Note_off_c, 0, 56, 64
2, 16179, Control_c, 0, 64, 64
2, 16179, Note_on_c, 0, 64, 42
2, 16198, Control_c, 0, 64, 0
2, 16226, Note_off_c, 0, 64, 64
2, 16228, Note_on_c, 0, 67, 52
2, 16273, Note_off_c, 0, 67, 64
2, 16276, Note_on_c, 0, 72, 47
2, 16321, Note_off_c, 0, 72, 64
2, 16322, Note_on_c, 0, 60, 44
2, 16366, Note_off_c, 0, 60, 64
2, 16366, Note_on_c, 0, 65, 41
2, 16414, Note_off_c, 0, 65, 64
2, 16415, Note_on_c, 0, 68, 44
2, 16460, Note_off_c, 0, 68, 64
2, 16460, Note_on_c, 0, 53, 66
2, 16460, Note_on_c, 0, 41, 71
2, 16508, Note_on_c, 0, 65, 47
2, 16554, Note_off_c, 0, 65, 64
2, 16554, Note_on_c, 0, 69, 52
2, 16601, Note_off_c, 0, 69, 64
2, 16601, Note_on_c, 0, 72, 56
2, 16648, Note_off_c, 0, 72, 64
2, 16648, Note_off_c, 0, 41, 64
2, 16648, Note_off_c, 0, 53, 64
2, 16648, Note_on_c, 0, 77, 56
2, 16695, Note_off_c, 0, 77, 64
2, 16695, Note_on_c, 0, 65, 44
2, 16741, Note_off_c, 0, 65, 64
2, 16742, Note_on_c, 0, 69, 36
2, 16787, Note_off_c, 0, 69, 64
2, 16789, Note_on_c, 0, 60, 52
2, 16789, Note_on_c, 0, 63, 63
2, 16789, Note_on_c, 0, 72, 47
2, 16834, Note_off_c, 0, 60, 64
2, 16835, Note_off_c, 0, 63, 64
2, 16836, Note_off_c, 0, 72, 64
2, 16837, Note_on_c, 0, 60, 50
2, 16838, Note_on_c, 0, 63, 50
2, 16859, Control_c, 0, 64, 64
2, 16884, Note_on_c, 0, 65, 52
2, 16928, Note_off_c, 0, 65, 64
2, 16931, Note_on_c, 0, 69, 47
2, 16945, Control_c, 0, 64, 96
2, 16975, Note_off_c, 0, 69, 64
2, 16977, Note_on_c, 0, 72, 44
2, 17022, Note_off_c, 0, 72, 64
2, 17022, Note_off_c, 0, 63, 64
2, 17022, Note_off_c, 0, 60, 64
2, 17024, Note_on_c, 0, 77, 25
2, 17069, Note_off_c, 0, 77, 64
2, 17069, Note_on_c, 0, 65, 50
2, 17092, Control_c, 0, 64, 64
2, 17102, Control_c, 0, 64, 0
2, 17117, Note_off_c, 0, 65, 64
2, 17118, Note_on_c, 0, 69, 39
2, 17162, Note_off_c, 0, 69, 64
2, 17162, Note_on_c, 0, 72, 44
2, 17162, Note_on_c, 0, 60, 67
2, 17162, Note_on_c, 0, 63, 58
2, 17204, Control_c, 0, 64, 64
2, 17209, Note_off_c, 0, 63, 64
2, 17209, Note_off_c, 0, 60, 64
2, 17209, Note_off_c, 0, 72, 64
2, 17209, Note_on_c, 0, 63, 74
2, 17209, Note_on_c, 0, 58, 68
2, 17209, Note_on_c, 0, 60, 67
2, 17230, Control_c, 0, 64, 96
2, 17258, Note_on_c, 0, 65, 39
2, 17305, Note_off_c, 0, 65, 64
2, 17306, Note_on_c, 0, 69, 44
2, 17345, Control_c, 0, 64, 127
2, 17350, Note_off_c, 0, 69, 64
2, 17350, Note_on_c, 0, 72, 47
2, 17397, Note_off_c, 0, 72, 64
2, 17397, Note_on_c, 0, 77, 52
2, 17444, Note_off_c, 0, 77, 64
2, 17446, Note_on_c, 0, 65, 34
2, 17489, Note_off_c, 0, 65, 64
2, 17492, Note_on_c, 0, 69, 41
2, 17537, Note_off_c, 0, 69, 64
2, 17538, Note_on_c, 0, 72, 52
2, 17583, Note_off_c, 0, 72, 64
2, 17585, Note_on_c, 0, 65, 47
2, 17585, Note_on_c, 0, 69, 44
2, 17630, Note_off_c, 0, 69, 64
2, 17631, Note_off_c, 0, 65, 64
2, 17632, Note_on_c, 0, 77, 56
2, 17677, Note_off_c, 0, 77, 64
2, 17677, Note_off_c, 0, 60, 64
2, 17677, Note_off_c, 0, 58, 64
2, 17677, Note_off_c, 0, 63, 64
2, 17679, Note_on_c, 0, 65, 44
2, 17680, Note_on_c, 0, 70, 50
2, 17681, Note_on_c, 0, 58, 55
2, 17682, Note_on_c, 0, 61, 51
2, 17725, Note_off_c, 0, 70, 64
2, 17726, Note_off_c, 0, 65, 64
2, 17727, Note_on_c, 0, 77, 44
2, 17729, Control_c, 0, 64, 96
2, 17742, Control_c, 0, 64, 64
2, 17768, Control_c, 0, 64, 96
2, 17770, Note_off_c, 0, 58, 64
2, 17770, Note_off_c, 0, 61, 64
2, 17770, Note_off_c, 0, 77, 64
2, 17774, Note_on_c, 0, 72, 47
2, 17775, Note_on_c, 0, 56, 62
2, 17775, Note_on_c, 0, 65, 39
2, 17776, Note_on_c, 0, 60, 47
2, 17801, Control_c, 0, 64, 64
2, 17817, Note_off_c, 0, 65, 64
2, 17817, Note_off_c, 0, 72, 64
2, 17817, Note_on_c, 0, 77, 47
2, 17817, Control_c, 0, 64, 0
2, 17864, Note_off_c, 0, 77, 64
2, 17864, Note_off_c, 0, 60, 64
2, 17864, Note_off_c, 0, 56, 64
2, 17864, Note_on_c, 0, 73, 55
2, 17864, Note_on_c, 0, 65, 23
2, 17864, Note_on_c, 0, 58, 58
2, 17864, Note_on_c, 0, 55, 52
2, 17912, Note_off_c, 0, 65, 64
2, 17913, Note_off_c, 0, 73, 64
2, 17914, Note_on_c, 0, 77, 56
2, 17958, Note_off_c, 0, 77, 64
2, 17958, Note_off_c, 0, 55, 64
2, 17958, Note_off_c, 0, 58, 64
2, 17958, Note_on_c, 0, 48, 62
2, 17958, Note_on_c, 0, 56, 67
2, 17958, Note_on_c, 0, 53, 60
2, 18005, Note_on_c, 0, 60, 39
2, 18053, Note_off_c, 0, 60, 64
2, 18053, Note_on_c, 0, 65, 52
2, 18100, Note_off_c, 0, 65, 64
2, 18101, Note_on_c, 0, 68, 47
2, 18146, Note_off_c, 0, 68, 64
2, 18146, Note_off_c, 0, 53, 64
2, 18146, Note_off_c, 0, 56, 64
2, 18146, Note_off_c, 0, 48, 64
2, 18146, Note_on_c, 0, 72, 56
2, 18193, Note_off_c, 0, 72, 64
2, 18193, Note_on_c, 0, 60, 41
2, 18240, Note_off_c, 0, 60, 64
2, 18242, Note_on_c, 0, 65, 52
2, 18286, Note_off_c, 0, 65, 64
2, 18287, Note_on_c, 0, 68, 47
2, 18288, Note_on_c, 0, 53, 63
2, 18289, Note_on_c, 0, 56, 62
2, 18333, Note_off_c, 0, 56, 64
2, 18334, Note_off_c, 0, 53, 64
2, 18334, Note_off_c, 0, 68, 64
2, 18335, Note_on_c, 0, 72, 56
2, 18336, Note_on_c, 0, 58, 68
2, 18337, Note_on_c, 0, 48, 80
2, 18337, Note_on_c, 0, 55, 70
2, 18379, Note_off_c, 0, 72, 64
2, 18382, Note_on_c, 0, 60, 44
2, 18426, Note_off_c, 0, 60, 64
2, 18428, Note_on_c, 0, 67, 50
2, 18473, Note_off_c, 0, 67, 64
2, 18476, Note_on_c, 0, 70, 50
2, 18521, Note_off_c, 0, 70, 64
2, 18522, Note_off_c, 0, 55, 64
2, 18522, Note_off_c, 0, 48, 64
2, 18523, Note_off_c, 0, 58, 64
2, 18524, Note_on_c, 0, 72, 62
2, 18566, Note_off_c, 0, 72, 64
2, 18568, Note_on_c, 0, 60, 52
2, 18615, Note_off_c, 0, 60, 64
2, 18617, Note_on_c, 0, 64, 52
2, 18660, Note_off_c, 0, 64, 64
2, 18660, Note_on_c, 0, 67, 39
2, 18660, Note_on_c, 0, 55, 39
2, 18660, Note_on_c, 0, 52, 56
2, 18708, Note_off_c, 0, 52, 64
2, 18709, Note_off_c, 0, 55, 64
2, 18710, Note_off_c, 0, 67, 64
2, 18711, Note_on_c, 0, 72, 67
2, 18712, Note_on_c, 0, 60, 62
2, 18712, Note_on_c, 0, 68, 68
2, 18713, Note_on_c, 0, 65, 62
2, 18714, Note_on_c, 0, 53, 56
2, 18744, Control_c, 0, 64, 64
2, 18754, Note_off_c, 0, 53, 64
2, 18754, Note_on_c, 0, 60, 50
2, 18772, Control_c, 0, 64, 96
2, 18801, Note_off_c, 0, 60, 64
2, 18801, Note_on_c, 0, 56, 48
2, 18849, Note_off_c, 0, 56, 64
2, 18850, Note_on_c, 0, 53, 48
2, 18896, Note_off_c, 0, 53, 64
2, 18897, Note_off_c, 0, 68, 64
2, 18897, Note_off_c, 0, 65, 64
2, 18898, Note_off_c, 0, 60, 64
2, 18899, Note_off_c, 0, 72, 64
2, 18899, Note_on_c, 0, 48, 56
2, 18942, Note_off_c, 0, 48, 64
2, 18942, Note_on_c, 0, 56, 62
2, 18962, Control_c, 0, 64, 127
2, 18989, Note_off_c, 0, 56, 64
2, 18989, Note_on_c, 0, 53, 51
2, 19036, Note_off_c, 0, 53, 64
2, 19038, Note_on_c, 0, 77, 62
2, 19038, Note_on_c, 0, 80, 68
2, 19039, Note_on_c, 0, 48, 50
2, 19082, Note_off_c, 0, 48, 64
2, 19083, Note_off_c, 0, 80, 64
2, 19084, Note_off_c, 0, 77, 64
2, 19085, Control_c, 0, 64, 96
2, 19086, Note_on_c, 0, 77, 62
2, 19087, Note_on_c, 0, 80, 80
2, 19087, Note_on_c, 0, 44, 58
2, 19103, Control_c, 0, 64, 64
2, 19114, Control_c, 0, 64, 0
2, 19127, Note_off_c, 0, 44, 64
2, 19127, Control_c, 0, 64, 64
2, 19131, Note_on_c, 0, 53, 48
2, 19148, Control_c, 0, 64, 96
2, 19156, Control_c, 0, 64, 127
2, 19174, Note_off_c, 0, 53, 64
2, 19178, Note_on_c, 0, 48, 39
2, 19222, Note_off_c, 0, 48, 64
2, 19224, Note_on_c, 0, 44, 47
2, 19270, Note_off_c, 0, 44, 64
2, 19271, Note_off_c, 0, 77, 64
2, 19271, Note_off_c, 0, 80, 64
2, 19272, Note_on_c, 0, 41, 71
2, 19316, Note_off_c, 0, 41, 64
2, 19317, Note_on_c, 0, 48, 56
2, 19362, Note_off_c, 0, 48, 64
2, 19365, Note_on_c, 0, 44, 58
2, 19374, Control_c, 0, 64, 96
2, 19383, Control_c, 0, 64, 64
2, 19405, Control_c, 0, 64, 0
2, 19410, Note_off_c, 0, 44, 64
2, 19411, Note_on_c, 0, 77, 67
2, 19411, Note_on_c, 0, 80, 74
2, 19411, Note_on_c, 0, 41, 56
2, 19452, Control_c, 0, 64, 64
2, 19458, Note_off_c, 0, 41, 64
2, 19459, Note_off_c, 0, 80, 64
2, 19459, Note_off_c, 0, 77, 64
2, 19460, Note_on_c, 0, 77, 67
2, 19460, Note_on_c, 0, 80, 86
2, 19461, Note_on_c, 0, 36, 67
2, 19467, Control_c, 0, 64, 127
2, 19504, Note_off_c, 0, 36, 64
2, 19505, Note_on_c, 0, 41, 56
2, 19525, Control_c, 0, 64, 96
2, 19533, Control_c, 0, 64, 64
2, 19550, Note_off_c, 0, 41, 64
2, 19550, Note_on_c, 0, 44, 58
2, 19596, Note_off_c, 0, 44, 64
2, 19596, Note_on_c, 0, 48, 44
2, 19596, Control_c, 0, 64, 96
2, 19644, Note_off_c, 0, 48, 64
2, 19644, Note_on_c, 0, 47, 47
2, 19663, Control_c, 0, 64, 127
2, 19692, Note_off_c, 0, 47, 64
2, 19693, Note_on_c, 0, 48, 44
2, 19738, Note_off_c, 0, 48, 64
2, 19738, Note_on_c, 0, 47, 39
2, 19752, Control_c, 0, 64, 96
2, 19781, Control_c, 0, 64, 64
2, 19784, Note_off_c, 0, 47, 64
2, 19784, Note_on_c, 0, 48, 50
2, 19803, Control_c, 0, 64, 96
2, 19832, Note_off_c, 0, 48, 64
2, 19833, Note_off_c, 0, 80, 64
2, 19835, Note_off_c, 0, 77, 64
2, 19836, Note_on_c, 0, 79, 59
2, 19837, Note_on_c, 0, 76, 34
2, 19837, Note_on_c, 0, 47, 52
2, 19854, Control_c, 0, 64, 0
2, 19878, Note_off_c, 0, 47, 64
2, 19878, Note_on_c, 0, 48, 52
2, 19923, Note_off_c, 0, 48, 64
2, 19923, Note_off_c, 0, 76, 64
2, 19923, Note_off_c, 0, 79, 64
2, 19927, Note_on_c, 0, 43, 56
2, 19971, Note_off_c, 0, 43, 64
2, 19972, Note_on_c, 0, 48, 39
2, 20019, Note_off_c, 0, 48, 64
2, 20020, Note_on_c, 0, 40, 56
2, 20064, Note_off_c, 0, 40, 64
2, 20067, Note_on_c, 0, 48, 47
2, 20112, Note_off_c, 0, 48, 64
2, 20113, Note_on_c, 0, 43, 50
2, 20158, Note_off_c, 0, 43, 64
2, 20161, Note_on_c, 0, 48, 56
2, 20205, Note_off_c, 0, 48, 64
2, 20207, Note_on_c, 0, 36, 67
2, 20224, Control_c, 0, 64, 64
2, 20235, Control_c, 0, 64, 96
2, 20242, Control_c, 0, 64, 127
2, 20254, Note_off_c, 0, 36, 64
2, 20255, Note_on_c, 0, 40, 52
2, 20269, Control_c, 0, 64, 96
2, 20279, Control_c, 0, 64, 64
2, 20289, Control_c, 0, 64, 0
2, 20300, Note_off_c, 0, 40, 64
2, 20301, Note_on_c, 0, 43, 56
2, 20346, Note_off_c, 0, 43, 64
2, 20346, Note_on_c, 0, 48, 44
2, 20393, Note_off_c, 0, 48, 64
2, 20393, Note_on_c, 0, 40, 67
2, 20440, Note_off_c, 0, 40, 64
2, 20440, Note_on_c, 0, 43, 52
2, 20488, Note_off_c, 0, 43, 64
2, 20489, Note_on_c, 0, 48, 59
2, 20533, Note_off_c, 0, 48, 64
2, 20533, Note_on_c, 0, 82, 58
2, 20533, Note_on_c, 0, 79, 47
2, 20533, Note_on_c, 0, 52, 62
2, 20576, Control_c, 0, 64, 64
2, 20580, Note_off_c, 0, 52, 64
2, 20580, Note_off_c, 0, 79, 64
2, 20580, Note_off_c, 0, 82, 64
2, 20580, Note_on_c, 0, 79, 50
2, 20580, Note_on_c, 0, 82, 68
2, 20580, Note_on_c, 0, 43, 62
2, 20587, Control_c, 0, 64, 96
2, 20609, Control_c, 0, 64, 127
2, 20624, Control_c, 0, 64, 96
2, 20628, Note_off_c, 0, 43, 64
2, 20629, Note_on_c, 0, 48, 47
2, 20650, Control_c, 0, 64, 64
2, 20673, Note_off_c, 0, 48, 64
2, 20675, Note_on_c, 0, 52, 59
2, 20720, Note_off_c, 0, 52, 64
2, 20723, Note_on_c, 0, 55, 62
2, 20766, Note_off_c, 0, 55, 64
2, 20766, Note_off_c, 0, 82, 64
2, 20766, Note_off_c, 0, 79, 64
2, 20769, Note_on_c, 0, 48, 59
2, 20814, Note_off_c, 0, 48, 64
2, 20815, Note_on_c, 0, 52, 50
2, 20862, Note_off_c, 0, 52, 64
2, 20864, Note_on_c, 0, 55, 56
2, 20877, Control_c, 0, 64, 0
2, 20908, Note_off_c, 0, 55, 64
2, 20909, Note_on_c, 0, 82, 80
2, 20909, Note_on_c, 0, 79, 67
2, 20909, Note_on_c, 0, 60, 59
2, 20954, Note_off_c, 0, 60, 64
2, 20954, Note_off_c, 0, 79, 64
2, 20954, Note_off_c, 0, 82, 64
2, 20957, Note_on_c, 0, 79, 70
2, 20958, Note_on_c, 0, 82, 80
2, 20959, Note_on_c, 0, 53, 63
2, 20980, Control_c, 0, 64, 96
2, 20991, Control_c, 0, 64, 127
2, 21001, Note_off_c, 0, 53, 64
2, 21003, Note_on_c, 0, 56, 59
2, 21049, Note_off_c, 0, 56, 64
2, 21050, Note_on_c, 0, 60, 50
2, 21095, Note_off_c, 0, 60, 64
2, 21095, Note_on_c, 0, 65, 56
2, 21141, Note_off_c, 0, 65, 64
2, 21141, Note_on_c, 0, 64, 58
2, 21188, Note_off_c, 0, 64, 64
2, 21188, Note_on_c, 0, 65, 52
2, 21236, Note_off_c, 0, 65, 64
2, 21236, Note_on_c, 0, 64, 55
2, 21282, Note_off_c, 0, 64, 64
2, 21282, Note_on_c, 0, 65, 62
2, 21320, Control_c, 0, 64, 96
2, 21329, Note_off_c, 0, 65, 64
2, 21329, Note_off_c, 0, 79, 64
2, 21329, Note_off_c, 0, 82, 64
2, 21329, Note_on_c, 0, 80, 47
2, 21329, Note_on_c, 0, 77, 47
2, 21329, Note_on_c, 0, 64, 58
2, 21329, Control_c, 0, 64, 64
2, 21357, Control_c, 0, 64, 0
2, 21376, Note_off_c, 0, 64, 64
2, 21376, Note_on_c, 0, 65, 62
2, 21422, Note_off_c, 0, 65, 64
2, 21423, Note_off_c, 0, 77, 64
2, 21424, Note_off_c, 0, 80, 64
2, 21425, Note_on_c, 0, 60, 59
2, 21472, Note_off_c, 0, 60, 64
2, 21473, Note_on_c, 0, 65, 36
2, 21516, Note_off_c, 0, 65, 64
2, 21517, Note_on_c, 0, 56, 62
2, 21562, Note_off_c, 0, 56, 64
2, 21565, Note_on_c, 0, 65, 44
2, 21609, Note_off_c, 0, 65, 64
2, 21610, Note_on_c, 0, 60, 50
2, 21656, Note_off_c, 0, 60, 64
2, 21659, Note_on_c, 0, 65, 50
2, 21704, Note_off_c, 0, 65, 64
2, 21705, Note_on_c, 0, 53, 63
2, 21732, Control_c, 0, 64, 64
2, 21750, Note_off_c, 0, 53, 64
2, 21753, Note_on_c, 0, 57, 39
2, 21758, Control_c, 0, 64, 96
2, 21797, Note_off_c, 0, 57, 64
2, 21799, Note_on_c, 0, 60, 59
2, 21844, Note_off_c, 0, 60, 64
2, 21844, Note_on_c, 0, 65, 56
2, 21870, Control_c, 0, 64, 127
2, 21890, Note_off_c, 0, 65, 64
2, 21890, Note_on_c, 0, 57, 70
2, 21937, Note_off_c, 0, 57, 64
2, 21937, Note_on_c, 0, 60, 67
2, 21984, Note_off_c, 0, 60, 64
2, 21984, Note_on_c, 0, 65, 67
2, 22031, Note_off_c, 0, 65, 64
2, 22031, Note_on_c, 0, 87, 58
2, 22031, Note_on_c, 0, 84, 47
2, 22031, Note_on_c, 0, 69, 70
2, 22031, Control_c, 0, 64, 96
2, 22056, Control_c, 0, 64, 0
2, 22080, Note_off_c, 0, 69, 64
2, 22080, Note_off_c, 0, 84, 64
2, 22081, Note_off_c, 0, 87, 64
2, 22082, Note_on_c, 0, 84, 50
2, 22083, Note_on_c, 0, 87, 63
2, 22084, Note_on_c, 0, 60, 70
2, 22112, Control_c, 0, 64, 64
2, 22123, Control_c, 0, 64, 96
2, 22125, Note_off_c, 0, 60, 64
2, 22125, Note_on_c, 0, 65, 56
2, 22137, Control_c, 0, 64, 127
2, 22172, Note_off_c, 0, 65, 64
2, 22172, Note_on_c, 0, 69, 56
2, 22218, Note_off_c, 0, 69, 64
2, 22221, Note_on_c, 0, 72, 56
2, 22266, Note_off_c, 0, 72, 64
2, 22267, Note_off_c, 0, 87, 64
2, 22267, Note_off_c, 0, 84, 64
2, 22268, Note_on_c, 0, 65, 70
2, 22312, Note_off_c, 0, 65, 64
2, 22313, Note_on_c, 0, 69, 52
2, 22358, Note_off_c, 0, 69, 64
2, 22361, Note_on_c, 0, 72, 62
2, 22405, Note_off_c, 0, 72, 64
2, 22407, Control_c, 0, 64, 96
2, 22408, Note_on_c, 0, 87, 74
2, 22409, Note_on_c, 0, 84, 62
2, 22410, Note_on_c, 0, 77, 62
2, 22430, Control_c, 0, 64, 0
2, 22452, Note_off_c, 0, 77, 64
2, 22452, Note_off_c, 0, 84, 64
2, 22452, Note_off_c, 0, 87, 64
2, 22452, Note_on_c, 0, 84, 80
2, 22452, Note_on_c, 0, 87, 86
2, 22452, Note_on_c, 0, 69, 62
2, 22474, Control_c, 0, 64, 64
2, 22485, Control_c, 0, 64, 127
2, 22500, Note_off_c, 0, 69, 64
2, 22500, Note_on_c, 0, 77, 56
2, 22545, Note_off_c, 0, 77, 64
2, 22549, Note_on_c, 0, 76, 59
2, 22592, Note_off_c, 0, 76, 64
2, 22594, Note_on_c, 0, 77, 59
2, 22640, Note_off_c, 0, 77, 64
2, 22640, Note_on_c, 0, 69, 56
2, 22688, Note_off_c, 0, 69, 64
2, 22688, Note_on_c, 0, 77, 59
2, 22733, Note_off_c, 0, 77, 64
2, 22733, Note_on_c, 0, 69, 52
2, 22780, Note_off_c, 0, 69, 64
2, 22780, Note_on_c, 0, 77, 59
2, 22827, Note_off_c, 0, 77, 64
2, 22827, Note_on_c, 0, 69, 62
2, 22876, Note_off_c, 0, 69, 64
2, 22877, Note_on_c, 0, 77, 62
2, 22921, Note_off_c, 0, 77, 64
2, 22921, Note_off_c, 0, 87, 64
2, 22921, Note_off_c, 0, 84, 64
2, 22921, Note_on_c, 0, 85, 55
2, 22921, Note_on_c, 0, 82, 50
2, 22921, Note_on_c, 0, 70, 58
2, 22966, Control_c, 0, 64, 96
2, 22968, Note_off_c, 0, 70, 64
2, 22968, Note_on_c, 0, 77, 56
2, 22981, Control_c, 0, 64, 64
2, 22990, Control_c, 0, 64, 0
2, 23014, Note_off_c, 0, 77, 64
2, 23015, Note_off_c, 0, 82, 64
2, 23016, Note_off_c, 0, 85, 64
2, 23017, Note_on_c, 0, 84, 59
2, 23018, Note_on_c, 0, 80, 40
2, 23018, Note_on_c, 0, 72, 62
2, 23061, Note_off_c, 0, 72, 64
2, 23064, Note_on_c, 0, 77, 59
2, 23108, Note_off_c, 0, 77, 64
2, 23109, Note_off_c, 0, 84, 64
2, 23109, Note_off_c, 0, 80, 64
2, 23110, Note_on_c, 0, 82, 63
2, 23111, Note_on_c, 0, 79, 50
2, 23111, Note_on_c, 0, 73, 63
2, 23154, Note_off_c, 0, 73, 64
2, 23158, Note_on_c, 0, 77, 62
2, 23200, Control_c, 0, 64, 64
2, 23201, Note_off_c, 0, 77, 64
2, 23201, Note_off_c, 0, 79, 64
2, 23201, Note_off_c, 0, 82, 64
2, 23203, Note_on_c, 0, 80, 68
2, 23203, Note_on_c, 0, 77, 56
2, 23203, Note_on_c, 0, 60, 62
2, 23217, Control_c, 0, 64, 127
2, 23249, Note_off_c, 0, 60, 64
2, 23249, Note_on_c, 0, 65, 47
2, 23295, Note_off_c, 0, 65, 64
2, 23298, Note_on_c, 0, 68, 50
2, 23342, Note_off_c, 0, 68, 64
2, 23344, Note_on_c, 0, 72, 56
2, 23388, Note_off_c, 0, 72, 64
2, 23388, Note_off_c, 0, 77, 64
2, 23388, Note_off_c, 0, 80, 64
2, 23390, Note_on_c, 0, 71, 59
2, 23435, Note_off_c, 0, 71, 64
2, 23435, Note_on_c, 0, 72, 36
2, 23484, Note_off_c, 0, 72, 64
2, 23485, Note_on_c, 0, 71, 44
2, 23529, Note_off_c, 0, 71, 64
2, 23529, Note_on_c, 0, 77, 47
2, 23529, Note_on_c, 0, 80, 58
2, 23529, Note_on_c, 0, 89, 56
2, 23529, Note_on_c, 0, 72, 56
2, 23555, Control_c, 0, 64, 64
2, 23566, Control_c, 0, 64, 0
2, 23578, Note_off_c, 0, 72, 64
2, 23579, Note_off_c, 0, 89, 64
2, 23579, Note_off_c, 0, 80, 64
2, 23580, Note_off_c, 0, 77, 64
2, 23581, Note_on_c, 0, 82, 74
2, 23582, Note_on_c, 0, 91, 70
2, 23583, Note_on_c, 0, 79, 39
2, 23584, Note_on_c, 0, 60, 70
2, 23624, Note_off_c, 0, 60, 64
2, 23625, Note_on_c, 0, 64, 44
2, 23634, Control_c, 0, 64, 64
2, 23645, Control_c, 0, 64, 127
2, 23672, Note_off_c, 0, 64, 64
2, 23672, Note_on_c, 0, 67, 59
2, 23717, Note_off_c, 0, 67, 64
2, 23717, Note_on_c, 0, 72, 52
2, 23763, Note_off_c, 0, 72, 64
2, 23763, Note_off_c, 0, 79, 64
2, 23763, Note_off_c, 0, 91, 64
2, 23763, Note_off_c, 0, 82, 64
2, 23763, Note_on_c, 0, 60, 62
2, 23811, Note_off_c, 0, 60, 64
2, 23812, Note_on_c, 0, 67, 41
2, 23857, Note_off_c, 0, 67, 64
2, 23857, Note_on_c, 0, 70, 63
2, 23902, Note_off_c, 0, 70, 64
2, 23906, Note_on_c, 0, 88, 62
2, 23907, Note_on_c, 0, 79, 52
2, 23907, Note_on_c, 0, 76, 50
2, 23908, Note_on_c, 0, 72, 67
2, 23926, Control_c, 0, 64, 64
2, 23935, Control_c, 0, 64, 0
2, 23949, Note_off_c, 0, 72, 64
2, 23949, Note_off_c, 0, 76, 64
2, 23949, Note_off_c, 0, 79, 64
2, 23949, Note_off_c, 0, 88, 64
2, 23949, Note_on_c, 0, 80, 74
2, 23949, Note_on_c, 0, 89, 80
2, 23949, Note_on_c, 0, 77, 47
2, 23949, Note_on_c, 0, 53, 54
2, 23996, Note_off_c, 0, 53, 64
2, 23996, Note_off_c, 0, 77, 64
2, 23996, Note_off_c, 0, 89, 64
2, 23996, Note_off_c, 0, 80, 64
2, 23996, Note_on_c, 0, 72, 39
2, 23996, Note_on_c, 0, 65, 41
2, 23996, Note_on_c, 0, 68, 32
2, 24010, Control_c, 0, 64, 64
2, 24021, Control_c, 0, 64, 96
2, 24031, Control_c, 0, 64, 127
2, 24044, Note_off_c, 0, 68, 64
2, 24044, Note_off_c, 0, 65, 64
2, 24044, Note_off_c, 0, 72, 64
2, 24046, Note_on_c, 0, 77, 47
2, 24047, Note_on_c, 0, 60, 41
2, 24048, Note_on_c, 0, 72, 41
2, 24090, Note_off_c, 0, 72, 64
2, 24090, Note_off_c, 0, 60, 64
2, 24090, Note_off_c, 0, 77, 64
2, 24093, Note_on_c, 0, 80, 32
2, 24093, Note_on_c, 0, 65, 44
2, 24093, Note_on_c, 0, 68, 44
2, 24137, Note_off_c, 0, 68, 64
2, 24137, Note_off_c, 0, 65, 64
2, 24137, Note_off_c, 0, 80, 64
2, 24140, Note_on_c, 0, 84, 47
2, 24141, Note_on_c, 0, 72, 44
2, 24141, Note_on_c, 0, 60, 50
2, 24165, Control_c, 0, 64, 96
2, 24180, Control_c, 0, 64, 64
2, 24184, Note_off_c, 0, 60, 64
2, 24184, Note_off_c, 0, 72, 64
2, 24184, Note_off_c, 0, 84, 64
2, 24184, Note_on_c, 0, 85, 58
2, 24184, Note_on_c, 0, 65, 41
2, 24184, Note_on_c, 0, 68, 44
2, 24191, Control_c, 0, 64, 0
2, 24231, Note_off_c, 0, 68, 64
2, 24231, Note_off_c, 0, 65, 64
2, 24231, Note_off_c, 0, 85, 64
2, 24231, Note_on_c, 0, 84, 52
2, 24231, Note_on_c, 0, 72, 44
2, 24231, Note_on_c, 0, 60, 47
2, 24279, Note_off_c, 0, 60, 64
2, 24280, Note_off_c, 0, 72, 64
2, 24281, Note_off_c, 0, 84, 64
2, 24282, Note_on_c, 0, 82, 50
2, 24282, Note_on_c, 0, 65, 39
2, 24283, Note_on_c, 0, 68, 44
2, 24325, Note_off_c, 0, 68, 64
2, 24325, Note_off_c, 0, 65, 64
2, 24325, Note_off_c, 0, 82, 64
2, 24325, Note_on_c, 0, 80, 58
2, 24325, Note_on_c, 0, 72, 34
2, 24325, Note_on_c, 0, 60, 47
2, 24372, Note_off_c, 0, 60, 64
2, 24374, Note_off_c, 0, 72, 64
2, 24374, Note_off_c, 0, 80, 64
2, 24375, Note_on_c, 0, 82, 50
2, 24376, Note_on_c, 0, 65, 34
2, 24377, Note_on_c, 0, 68, 38
2, 24419, Note_off_c, 0, 68, 64
2, 24419, Note_off_c, 0, 65, 64
2, 24419, Note_off_c, 0, 82, 64
2, 24419, Note_on_c, 0, 80, 38
2, 24419, Note_on_c, 0, 72, 47
2, 24419, Note_on_c, 0, 60, 47
2, 24467, Note_off_c, 0, 60, 64
2, 24468, Note_off_c, 0, 72, 64
2, 24468, Note_off_c, 0, 80, 64
2, 24469, Note_on_c, 0, 79, 52
2, 24470, Note_on_c, 0, 65, 39
2, 24471, Note_on_c, 0, 68, 40
2, 24512, Note_off_c, 0, 79, 64
2, 24512, Note_off_c, 0, 65, 64
2, 24512, Note_off_c, 0, 68, 64
2, 24512, Note_on_c, 0, 77, 40
2, 24512, Note_on_c, 0, 72, 47
2, 24512, Note_on_c, 0, 60, 49
2, 24560, Note_off_c, 0, 60, 64
2, 24560, Note_off_c, 0, 72, 64
2, 24560, Note_off_c, 0, 77, 64
2, 24560, Note_on_c, 0, 65, 35
2, 24560, Note_on_c, 0, 68, 32
2, 24560, Note_on_c, 0, 79, 37
2, 24605, Note_off_c, 0, 65, 64
2, 24606, Note_off_c, 0, 68, 64
2, 24608, Note_off_c, 0, 79, 64
2, 24609, Note_on_c, 0, 80, 25
2, 24609, Note_on_c, 0, 60, 31
2, 24610, Note_on_c, 0, 72, 31
2, 24653, Note_off_c, 0, 72, 64
2, 24654, Note_off_c, 0, 60, 64
2, 24655, Note_off_c, 0, 80, 64
2, 24656, Note_on_c, 0, 77, 27
2, 24656, Note_on_c, 0, 65, 37
2, 24657, Note_on_c, 0, 68, 32
2, 24699, Note_off_c, 0, 68, 64
2, 24699, Note_off_c, 0, 65, 64
2, 24699, Note_off_c, 0, 77, 64
2, 24699, Note_on_c, 0, 53, 40
2, 24745, Note_off_c, 0, 53, 64
2, 24747, Note_on_c, 0, 72, 40
2, 24747, Note_on_c, 0, 65, 32
2, 24747, Note_on_c, 0, 68, 30
2, 24794, Note_off_c, 0, 68, 64
2, 24795, Note_off_c, 0, 65, 64
2, 24796, Note_off_c, 0, 72, 64
2, 24797, Note_on_c, 0, 77, 47
2, 24797, Note_on_c, 0, 72, 37
2, 24798, Note_on_c, 0, 60, 35
2, 24841, Note_off_c, 0, 60, 64
2, 24842, Note_off_c, 0, 72, 64
2, 24842, Note_off_c, 0, 77, 64
2, 24845, Note_on_c, 0, 80, 46
2, 24845, Note_on_c, 0, 65, 32
2, 24846, Note_on_c, 0, 68, 30
2, 24887, Note_off_c, 0, 68, 64
2, 24888, Note_off_c, 0, 65, 64
2, 24889, Note_off_c, 0, 80, 64
2, 24890, Note_on_c, 0, 84, 47
2, 24890, Note_on_c, 0, 60, 47
2, 24891, Note_on_c, 0, 72, 44
2, 24933, Note_off_c, 0, 72, 64
2, 24933, Note_off_c, 0, 60, 64
2, 24933, Note_off_c, 0, 84, 64
2, 24936, Note_on_c, 0, 85, 50
2, 24937, Note_on_c, 0, 68, 32
2, 24938, Note_on_c, 0, 65, 31
2, 24980, Note_off_c, 0, 85, 64
2, 24980, Note_off_c, 0, 68, 64
2, 24980, Note_off_c, 0, 65, 64
2, 24982, Note_on_c, 0, 84, 40
2, 24982, Note_on_c, 0, 60, 32
2, 24982, Note_on_c, 0, 72, 32
2, 25027, Note_off_c, 0, 72, 64
2, 25027, Note_off_c, 0, 60, 64
2, 25027, Note_off_c, 0, 84, 64
2, 25027, Note_on_c, 0, 82, 40
2, 25027, Note_on_c, 0, 68, 35
2, 25027, Note_on_c, 0, 65, 32
2, 25075, Note_off_c, 0, 65, 64
2, 25076, Note_off_c, 0, 68, 64
2, 25076, Note_off_c, 0, 82, 64
2, 25077, Note_on_c, 0, 80, 44
2, 25078, Note_on_c, 0, 60, 41
2, 25079, Note_on_c, 0, 72, 41
2, 25121, Note_off_c, 0, 72, 64
2, 25121, Note_off_c, 0, 60, 64
2, 25121, Note_off_c, 0, 80, 64
2, 25121, Note_on_c, 0, 82, 37
2, 25121, Note_on_c, 0, 65, 35
2, 25121, Note_on_c, 0, 68, 32
2, 25168, Note_off_c, 0, 68, 64
2, 25168, Note_off_c, 0, 65, 64
2, 25168, Note_off_c, 0, 82, 64
2, 25168, Note_on_c, 0, 80, 40
2, 25168, Note_on_c, 0, 72, 35
2, 25168, Note_on_c, 0, 60, 41
2, 25215, Note_off_c, 0, 60, 64
2, 25215, Note_off_c, 0, 72, 64
2, 25215, Note_off_c, 0, 80, 64
2, 25215, Note_on_c, 0, 79, 23
2, 25215, Note_on_c, 0, 68, 35
2, 25215, Note_on_c, 0, 65, 28
2, 25263, Note_off_c, 0, 65, 64
2, 25264, Note_off_c, 0, 68, 64
2, 25265, Note_off_c, 0, 79, 64
2, 25267, Note_on_c, 0, 77, 27
2, 25268, Note_on_c, 0, 60, 37
2, 25268, Note_on_c, 0, 72, 32
2, 25308, Note_off_c, 0, 72, 64
2, 25308, Note_off_c, 0, 60, 64
2, 25308, Note_off_c, 0, 77, 64
2, 25308, Note_on_c, 0, 79, 24
2, 25308, Note_on_c, 0, 65, 31
2, 25308, Note_on_c, 0, 68, 23
2, 25355, Note_off_c, 0, 68, 64
2, 25355, Note_off_c, 0, 65, 64
2, 25355, Note_off_c, 0, 79, 64
2, 25355, Note_on_c, 0, 80, 19
2, 25355, Note_on_c, 0, 72, 44
2, 25355, Note_on_c, 0, 60, 32
2, 25401, Note_off_c, 0, 60, 64
2, 25402, Note_off_c, 0, 72, 64
2, 25403, Note_off_c, 0, 80, 64
2, 25404, Note_on_c, 0, 77, 40
2, 25405, Note_on_c, 0, 68, 28
2, 25405, Note_on_c, 0, 65, 44
2, 25448, Note_off_c, 0, 68, 64
2, 25449, Note_off_c, 0, 65, 64
2, 25450, Note_off_c, 0, 77, 64
2, 25452, Note_on_c, 0, 43, 49
2, 25496, Note_off_c, 0, 43, 64
2, 25496, Note_on_c, 0, 55, 28
2, 25496, Note_on_c, 0, 53, 40
2, 25496, Note_on_c, 0, 77, 40
2, 25541, Note_off_c, 0, 77, 64
2, 25541, Note_off_c, 0, 53, 64
2, 25541, Note_off_c, 0, 55, 64
2, 25544, Note_on_c, 0, 83, 44
2, 25544, Note_on_c, 0, 59, 44
2, 25544, Note_on_c, 0, 50, 41
2, 25588, Note_off_c, 0, 50, 64
2, 25588, Note_off_c, 0, 59, 64
2, 25588, Note_off_c, 0, 83, 64
2, 25590, Note_on_c, 0, 86, 44
2, 25590, Note_on_c, 0, 53, 44
2, 25590, Note_on_c, 0, 55, 31
2, 25634, Note_off_c, 0, 55, 64
2, 25634, Note_off_c, 0, 53, 64
2, 25634, Note_off_c, 0, 86, 64
2, 25638, Note_on_c, 0, 89, 41
2, 25639, Note_on_c, 0, 50, 47
2, 25640, Note_on_c, 0, 59, 44
2, 25684, Note_off_c, 0, 59, 64
2, 25684, Note_off_c, 0, 50, 64
2, 25685, Note_off_c, 0, 89, 64
2, 25686, Note_on_c, 0, 91, 44
2, 25687, Note_on_c, 0, 53, 40
2, 25687, Note_on_c, 0, 55, 27
2, 25729, Note_off_c, 0, 55, 64
2, 25729, Note_off_c, 0, 53, 64
2, 25729, Note_off_c, 0, 91, 64
2, 25732, Note_on_c, 0, 89, 44
2, 25733, Note_on_c, 0, 50, 44
2, 25734, Note_on_c, 0, 59, 44
2, 25776, Note_off_c, 0, 59, 64
2, 25777, Note_off_c, 0, 50, 64
2, 25778, Note_off_c, 0, 89, 64
2, 25779, Note_on_c, 0, 87, 37
2, 25780, Note_on_c, 0, 55, 32
2, 25781, Note_on_c, 0, 53, 32
2, 25824, Note_off_c, 0, 53, 64
2, 25825, Note_off_c, 0, 55, 64
2, 25826, Note_off_c, 0, 87, 64
2, 25827, Note_on_c, 0, 86, 47
2, 25827, Note_on_c, 0, 59, 50
2, 25828, Note_on_c, 0, 50, 49
2, 25871, Note_off_c, 0, 50, 64
2, 25872, Note_off_c, 0, 59, 64
2, 25873, Note_off_c, 0, 86, 64
2, 25874, Note_on_c, 0, 87, 46
2, 25875, Note_on_c, 0, 53, 40
2, 25875, Note_on_c, 0, 56, 38
2, 25916, Note_off_c, 0, 56, 64
2, 25916, Note_off_c, 0, 53, 64
2, 25916, Note_off_c, 0, 87, 64
2, 25916, Note_on_c, 0, 86, 35
2, 25916, Note_on_c, 0, 59, 48
2, 25916, Note_on_c, 0, 50, 41
2, 25964, Note_off_c, 0, 50, 64
2, 25964, Note_off_c, 0, 59, 64
2, 25964, Note_off_c, 0, 86, 64
2, 25964, Note_on_c, 0, 84, 27
2, 25964, Note_on_c, 0, 53, 44
2, 25964, Note_on_c, 0, 56, 40
2, 26011, Note_off_c, 0, 56, 64
2, 26011, Note_off_c, 0, 53, 64
2, 26011, Note_off_c, 0, 84, 64
2, 26011, Note_on_c, 0, 83, 32
2, 26011, Note_on_c, 0, 59, 48
2, 26011, Note_on_c, 0, 50, 47
2, 26057, Note_off_c, 0, 50, 64
2, 26057, Note_off_c, 0, 59, 64
2, 26057, Note_off_c, 0, 83, 64
2, 26057, Note_on_c, 0, 84, 27
2, 26057, Note_on_c, 0, 55, 37
2, 26057, Note_on_c, 0, 53, 40
2, 26104, Note_off_c, 0, 53, 64
2, 26104, Note_off_c, 0, 55, 64
2, 26104, Note_off_c, 0, 84, 64
2, 26104, Note_on_c, 0, 86, 14
2, 26104, Note_on_c, 0, 59, 50
2, 26104, Note_on_c, 0, 50, 41
2, 26151, Note_off_c, 0, 50, 64
2, 26151, Note_off_c, 0, 59, 64
2, 26151, Note_off_c, 0, 86, 64
2, 26151, Note_on_c, 0, 83, 20
2, 26151, Note_on_c, 0, 53, 36
2, 26151, Note_on_c, 0, 55, 44
2, 26197, Note_off_c, 0, 55, 64
2, 26198, Note_off_c, 0, 53, 64
2, 26199, Note_off_c, 0, 83, 64
2, 26200, Note_on_c, 0, 43, 49
2, 26245, Note_off_c, 0, 43, 64
2, 26245, Note_on_c, 0, 77, 35
2, 26245, Note_on_c, 0, 55, 40
2, 26245, Note_on_c, 0, 53, 36
2, 26290, Note_off_c, 0, 53, 64
2, 26290, Note_off_c, 0, 55, 64
2, 26290, Note_off_c, 0, 77, 64
2, 26293, Note_on_c, 0, 83, 40
2, 26295, Note_on_c, 0, 59, 43
2, 26296, Note_on_c, 0, 50, 41
2, 26337, Note_off_c, 0, 50, 64
2, 26337, Note_off_c, 0, 59, 64
2, 26337, Note_off_c, 0, 83, 64
2, 26340, Note_on_c, 0, 86, 47
2, 26341, Note_on_c, 0, 53, 40
2, 26341, Note_on_c, 0, 55, 28
2, 26384, Note_off_c, 0, 55, 64
2, 26384, Note_off_c, 0, 53, 64
2, 26384, Note_off_c, 0, 86, 64
2, 26386, Note_on_c, 0, 50, 41
2, 26386, Note_on_c, 0, 59, 43
2, 26386, Note_on_c, 0, 89, 47
2, 26431, Note_off_c, 0, 89, 64
2, 26431, Note_off_c, 0, 59, 64
2, 26431, Note_off_c, 0, 50, 64
2, 26434, Note_on_c, 0, 91, 49
2, 26435, Note_on_c, 0, 53, 32
2, 26436, Note_on_c, 0, 55, 28
2, 26480, Note_off_c, 0, 55, 64
2, 26481, Note_off_c, 0, 53, 64
2, 26481, Note_off_c, 0, 91, 64
2, 26482, Note_on_c, 0, 89, 47
2, 26483, Note_on_c, 0, 59, 44
2, 26484, Note_on_c, 0, 50, 35
2, 26525, Note_off_c, 0, 50, 64
2, 26525, Note_off_c, 0, 59, 64
2, 26525, Note_off_c, 0, 89, 64
2, 26528, Note_on_c, 0, 87, 44
2, 26528, Note_on_c, 0, 53, 34
2, 26529, Note_on_c, 0, 55, 27
2, 26530, Note_on_c, 0, 50, 10
2, 26572, Note_off_c, 0, 50, 64
2, 26574, Note_off_c, 0, 55, 64
2, 26574, Note_off_c, 0, 53, 64
2, 26575, Note_off_c, 0, 87, 64
2, 26576, Note_on_c, 0, 86, 35
2, 26576, Note_on_c, 0, 50, 44
2, 26577, Note_on_c, 0, 59, 48
2, 26619, Note_off_c, 0, 59, 64
2, 26619, Note_off_c, 0, 50, 64
2, 26619, Note_off_c, 0, 86, 64
2, 26619, Note_on_c, 0, 87, 46
2, 26619, Note_on_c, 0, 53, 40
2, 26619, Note_on_c, 0, 56, 40
2, 26667, Note_off_c, 0, 56, 64
2, 26668, Note_off_c, 0, 53, 64
2, 26668, Note_off_c, 0, 87, 64
2, 26669, Note_on_c, 0, 86, 28
2, 26670, Note_on_c, 0, 50, 40
2, 26671, Note_on_c, 0, 59, 43
2, 26712, Note_off_c, 0, 59, 64
2, 26712, Note_off_c, 0, 50, 64
2, 26712, Note_off_c, 0, 86, 64
2, 26712, Note_on_c, 0, 84, 31
2, 26712, Note_on_c, 0, 53, 43
2, 26712, Note_on_c, 0, 56, 43
2, 26759, Note_off_c, 0, 56, 64
2, 26759, Note_off_c, 0, 53, 64
2, 26759, Note_off_c, 0, 84, 64
2, 26759, Note_on_c, 0, 83, 40
2, 26759, Note_on_c, 0, 59, 50
2, 26759, Note_on_c, 0, 50, 40
2, 26807, Note_off_c, 0, 50, 64
2, 26808, Note_off_c, 0, 59, 64
2, 26809, Note_off_c, 0, 83, 64
2, 26810, Note_on_c, 0, 84, 28
2, 26810, Note_on_c, 0, 53, 38
2, 26811, Note_on_c, 0, 55, 40
2, 26854, Note_off_c, 0, 55, 64
2, 26855, Note_off_c, 0, 53, 64
2, 26856, Note_off_c, 0, 84, 64
2, 26857, Note_on_c, 0, 86, 27
2, 26857, Note_on_c, 0, 59, 44
2, 26858, Note_on_c, 0, 50, 40
2, 26900, Note_off_c, 0, 59, 64
2, 26900, Note_off_c, 0, 86, 64
2, 26900, Note_off_c, 0, 50, 64
2, 26900, Note_on_c, 0, 83, 37
2, 26900, Note_on_c, 0, 53, 28
2, 26900, Note_on_c, 0, 55, 44
2, 26947, Note_off_c, 0, 55, 64
2, 26947, Note_off_c, 0, 53, 64
2, 26947, Note_off_c, 0, 83, 64
2, 26947, Note_on_c, 0, 48, 47
2, 26994, Note_off_c, 0, 48, 64
2, 26994, Note_on_c, 0, 79, 44
2, 26994, Note_on_c, 0, 60, 40
2, 26994, Note_on_c, 0, 63, 17
2, 27041, Note_off_c, 0, 63, 64
2, 27042, Note_off_c, 0, 60, 64
2, 27042, Note_off_c, 0, 79, 64
2, 27043, Note_on_c, 0, 84, 28
2, 27044, Note_on_c, 0, 55, 40
2, 27044, Note_on_c, 0, 67, 32
2, 27087, Note_off_c, 0, 67, 64
2, 27088, Note_off_c, 0, 55, 64
2, 27089, Note_off_c, 0, 84, 64
2, 27090, Note_on_c, 0, 87, 50
2, 27090, Note_on_c, 0, 63, 35
2, 27091, Note_on_c, 0, 60, 41
2, 27133, Note_off_c, 0, 60, 64
2, 27133, Note_off_c, 0, 63, 64
2, 27133, Note_off_c, 0, 87, 64
2, 27136, Note_on_c, 0, 91, 53
2, 27137, Note_on_c, 0, 55, 47
2, 27137, Note_on_c, 0, 67, 37
2, 27180, Note_off_c, 0, 67, 64
2, 27180, Note_off_c, 0, 55, 64
2, 27180, Note_off_c, 0, 91, 64
2, 27184, Note_on_c, 0, 92, 46
2, 27184, Note_on_c, 0, 63, 37
2, 27185, Note_on_c, 0, 60, 37
2, 27227, Note_off_c, 0, 60, 64
2, 27227, Note_off_c, 0, 63, 64
2, 27227, Note_off_c, 0, 92, 64
2, 27229, Note_on_c, 0, 91, 40
2, 27230, Note_on_c, 0, 55, 41
2, 27231, Note_on_c, 0, 67, 40
2, 27275, Note_off_c, 0, 67, 64
2, 27276, Note_off_c, 0, 55, 64
2, 27276, Note_off_c, 0, 91, 64
2, 27277, Note_on_c, 0, 89, 40
2, 27278, Note_on_c, 0, 63, 40
2, 27279, Note_on_c, 0, 60, 37
2, 27320, Note_off_c, 0, 60, 64
2, 27320, Note_off_c, 0, 63, 64
2, 27320, Note_off_c, 0, 89, 64
2, 27320, Note_on_c, 0, 67, 49
2, 27320, Note_on_c, 0, 55, 49
2, 27320, Note_on_c, 0, 87, 46
2, 27368, Note_off_c, 0, 67, 64
2, 27369, Note_off_c, 0, 55, 64
2, 27370, Note_off_c, 0, 87, 64
2, 27371, Note_on_c, 0, 89, 32
2, 27371, Note_on_c, 0, 63, 37
2, 27372, Note_on_c, 0, 60, 37
2, 27415, Note_off_c, 0, 60, 64
2, 27415, Note_off_c, 0, 63, 64
2, 27415, Note_off_c, 0, 89, 64
2, 27415, Note_on_c, 0, 67, 41
2, 27415, Note_on_c, 0, 55, 44
2, 27415, Note_on_c, 0, 87, 28
2, 27463, Note_off_c, 0, 67, 64
2, 27464, Note_off_c, 0, 87, 64
2, 27464, Note_off_c, 0, 55, 64
2, 27465, Note_on_c, 0, 86, 28
2, 27466, Note_on_c, 0, 60, 35
2, 27466, Note_on_c, 0, 63, 37
2, 27508, Note_off_c, 0, 63, 64
2, 27508, Note_off_c, 0, 60, 64
2, 27508, Note_off_c, 0, 86, 64
2, 27508, Note_on_c, 0, 84, 35
2, 27508, Note_on_c, 0, 67, 53
2, 27508, Note_on_c, 0, 55, 49
2, 27555, Note_off_c, 0, 55, 64
2, 27555, Note_off_c, 0, 67, 64
2, 27555, Note_off_c, 0, 84, 64
2, 27555, Note_on_c, 0, 86, 35
2, 27555, Note_on_c, 0, 60, 37
2, 27555, Note_on_c, 0, 63, 40
2, 27604, Note_off_c, 0, 63, 64
2, 27604, Note_off_c, 0, 60, 64
2, 27605, Note_off_c, 0, 86, 64
2, 27606, Note_on_c, 0, 87, 37
2, 27607, Note_on_c, 0, 55, 41
2, 27607, Note_on_c, 0, 67, 44
2, 27651, Note_off_c, 0, 67, 64
2, 27651, Note_off_c, 0, 55, 64
2, 27652, Note_off_c, 0, 87, 64
2, 27653, Note_on_c, 0, 84, 35
2, 27654, Note_on_c, 0, 63, 37
2, 27655, Note_on_c, 0, 60, 40
2, 27655, Note_on_c, 0, 67, 28
2, 27696, Note_off_c, 0, 67, 64
2, 27696, Note_off_c, 0, 60, 64
2, 27696, Note_off_c, 0, 63, 64
2, 27696, Note_off_c, 0, 84, 64
2, 27696, Note_on_c, 0, 48, 41
2, 27743, Note_on_c, 0, 79, 41
2, 27788, Note_off_c, 0, 79, 64
2, 27789, Note_off_c, 0, 48, 64
2, 27791, Note_on_c, 0, 84, 47
2, 27792, Note_on_c, 0, 67, 37
2, 27836, Note_off_c, 0, 67, 64
2, 27837, Note_off_c, 0, 84, 64
2, 27838, Note_on_c, 0, 87, 44
2, 27839, Note_on_c, 0, 63, 50
2, 27884, Note_off_c, 0, 87, 64
2, 27884, Note_off_c, 0, 63, 64
2, 27885, Note_on_c, 0, 91, 49
2, 27885, Note_on_c, 0, 72, 49
2, 27929, Note_off_c, 0, 72, 64
2, 27929, Note_off_c, 0, 91, 64
2, 27929, Note_on_c, 0, 92, 40
2, 27929, Note_on_c, 0, 67, 44
2, 27976, Note_off_c, 0, 67, 64
2, 27976, Note_off_c, 0, 92, 64
2, 27978, Note_on_c, 0, 91, 40
2, 27978, Note_on_c, 0, 72, 47
2, 28023, Note_off_c, 0, 72, 64
2, 28023, Note_off_c, 0, 91, 64
2, 28026, Note_on_c, 0, 89, 37
2, 28027, Note_on_c, 0, 67, 47
2, 28071, Note_off_c, 0, 67, 64
2, 28072, Note_off_c, 0, 89, 64
2, 28073, Note_on_c, 0, 87, 40
2, 28074, Note_on_c, 0, 75, 54
2, 28116, Note_off_c, 0, 75, 64
2, 28116, Note_off_c, 0, 87, 64
2, 28119, Note_on_c, 0, 89, 41
2, 28119, Note_on_c, 0, 72, 44
2, 28163, Note_off_c, 0, 72, 64
2, 28163, Note_off_c, 0, 89, 64
2, 28165, Note_on_c, 0, 87, 35
2, 28165, Note_on_c, 0, 75, 54
2, 28212, Note_off_c, 0, 75, 64
2, 28213, Note_off_c, 0, 87, 64
2, 28214, Note_on_c, 0, 86, 35
2, 28215, Note_on_c, 0, 72, 47
2, 28258, Note_off_c, 0, 72, 64
2, 28259, Note_off_c, 0, 86, 64
2, 28260, Note_on_c, 0, 84, 31
2, 28261, Note_on_c, 0, 79, 53
2, 28304, Note_off_c, 0, 79, 64
2, 28304, Note_off_c, 0, 84, 64
2, 28304, Note_on_c, 0, 75, 54
2, 28304, Note_on_c, 0, 86, 35
2, 28351, Note_off_c, 0, 86, 64
2, 28351, Note_off_c, 0, 75, 64
2, 28351, Note_on_c, 0, 87, 50
2, 28351, Note_on_c, 0, 79, 67
2, 28398, Note_off_c, 0, 79, 64
2, 28398, Note_off_c, 0, 87, 64
2, 28398, Note_on_c, 0, 75, 50
2, 28398, Note_on_c, 0, 84, 41
2, 28447, Note_off_c, 0, 84, 64
2, 28447, Note_off_c, 0, 75, 64
2, 28448, Note_on_c, 0, 80, 80
2, 28448, Note_on_c, 0, 77, 70
2, 28494, Note_on_c, 0, 85, 55
2, 28541, Note_off_c, 0, 85, 64
2, 28542, Note_on_c, 0, 87, 44
2, 28584, Note_off_c, 0, 87, 64
2, 28585, Note_on_c, 0, 85, 47
2, 28631, Note_off_c, 0, 85, 64
2, 28634, Note_on_c, 0, 87, 40
2, 28679, Note_off_c, 0, 87, 64
2, 28679, Note_on_c, 0, 85, 47
2, 28724, Note_off_c, 0, 85, 64
2, 28724, Note_off_c, 0, 77, 64
2, 28724, Note_off_c, 0, 80, 64
2, 28728, Note_on_c, 0, 79, 44
2, 28728, Note_on_c, 0, 84, 36
2, 28729, Note_on_c, 0, 75, 40
2, 28772, Note_off_c, 0, 84, 64
2, 28772, Note_on_c, 0, 85, 35
2, 28819, Note_off_c, 0, 79, 64
2, 28819, Note_off_c, 0, 75, 64
2, 28819, Note_off_c, 0, 85, 64
2, 28821, Note_on_c, 0, 77, 59
2, 28822, Note_on_c, 0, 74, 50
2, 28868, Note_on_c, 0, 83, 50
2, 28912, Note_off_c, 0, 83, 64
2, 28916, Note_on_c, 0, 84, 56
2, 28959, Note_off_c, 0, 84, 64
2, 28961, Note_on_c, 0, 83, 47
2, 29006, Note_off_c, 0, 83, 64
2, 29006, Note_off_c, 0, 74, 64
2, 29006, Note_off_c, 0, 77, 64
2, 29006, Note_on_c, 0, 79, 56
2, 29006, Note_on_c, 0, 75, 55
2, 29053, Note_on_c, 0, 84, 50
2, 29100, Note_off_c, 0, 84, 64
2, 29100, Note_on_c, 0, 86, 50
2, 29147, Note_off_c, 0, 86, 64
2, 29147, Note_on_c, 0, 84, 50
2, 29194, Note_off_c, 0, 84, 64
2, 29194, Note_off_c, 0, 75, 64
2, 29194, Note_off_c, 0, 79, 64
2, 29194, Note_on_c, 0, 80, 86
2, 29194, Note_on_c, 0, 77, 80
2, 29241, Note_on_c, 0, 85, 74
2, 29288, Note_off_c, 0, 85, 64
2, 29288, Note_on_c, 0, 87, 38
2, 29335, Note_off_c, 0, 87, 64
2, 29335, Note_on_c, 0, 85, 32
2, 29379, Note_off_c, 0, 85, 64
2, 29382, Note_on_c, 0, 87, 40
2, 29427, Note_off_c, 0, 87, 64
2, 29430, Note_on_c, 0, 85, 45
2, 29475, Note_off_c, 0, 85, 64
2, 29476, Note_off_c, 0, 77, 64
2, 29476, Note_off_c, 0, 80, 64
2, 29477, Note_on_c, 0, 84, 23
2, 29478, Note_on_c, 0, 79, 48
2, 29479, Note_on_c, 0, 75, 48
2, 29520, Note_off_c, 0, 84, 64
2, 29522, Note_on_c, 0, 85, 25
2, 29568, Note_off_c, 0, 85, 64
2, 29569, Note_off_c, 0, 75, 64
2, 29570, Note_off_c, 0, 79, 64
2, 29571, Note_on_c, 0, 77, 55
2, 29571, Note_on_c, 0, 74, 49
2, 29616, Note_on_c, 0, 83, 42
2, 29662, Note_off_c, 0, 83, 64
2, 29665, Note_on_c, 0, 84, 55
2, 29708, Note_off_c, 0, 84, 64
2, 29711, Note_on_c, 0, 83, 48
2, 29755, Note_off_c, 0, 83, 64
2, 29755, Note_off_c, 0, 74, 64
2, 29755, Note_off_c, 0, 77, 64
2, 29757, Note_on_c, 0, 79, 52
2, 29757, Note_on_c, 0, 75, 59
2, 29802, Note_on_c, 0, 84, 48
2, 29850, Note_off_c, 0, 84, 64
2, 29851, Note_on_c, 0, 86, 48
2, 29897, Note_off_c, 0, 86, 64
2, 29898, Note_on_c, 0, 84, 43
2, 29943, Note_off_c, 0, 84, 64
2, 29943, Note_off_c, 0, 75, 64
2, 29943, Note_off_c, 0, 79, 64
2, 29943, Note_on_c, 0, 80, 68
2, 29943, Note_on_c, 0, 77, 69
2, 29990, Note_on_c, 0, 85, 72
2, 30039, Note_off_c, 0, 85, 64
2, 30040, Note_on_c, 0, 87, 38
2, 30083, Note_off_c, 0, 87, 64
2, 30083, Note_on_c, 0, 85, 28
2, 30130, Note_off_c, 0, 85, 64
2, 30130, Note_on_c, 0, 87, 31
2, 30176, Note_off_c, 0, 87, 64
2, 30177, Note_on_c, 0, 85, 44
2, 30223, Note_off_c, 0, 85, 64
2, 30223, Note_off_c, 0, 77, 64
2, 30223, Note_off_c, 0, 80, 64
2, 30223, Note_on_c, 0, 79, 41
2, 30223, Note_on_c, 0, 75, 44
2, 30223, Note_on_c, 0, 84, 44
2, 30271, Note_off_c, 0, 84, 64
2, 30271, Note_on_c, 0, 86, 21
2, 30316, Note_off_c, 0, 86, 64
2, 30316, Note_off_c, 0, 75, 64
2, 30316, Note_off_c, 0, 79, 64
2, 30320, Note_on_c, 0, 74, 44
2, 30320, Note_on_c, 0, 77, 48
2, 30365, Note_on_c, 0, 83, 39
2, 30410, Note_off_c, 0, 83, 64
2, 30414, Note_on_c, 0, 84, 39
2, 30458, Note_off_c, 0, 84, 64
2, 30459, Note_on_c, 0, 83, 34
2, 30504, Note_off_c, 0, 83, 64
2, 30504, Note_off_c, 0, 77, 64
2, 30504, Note_off_c, 0, 74, 64
2, 30506, Note_on_c, 0, 75, 52
2, 30506, Note_on_c, 0, 72, 43
2, 30553, Note_on_c, 0, 80, 46
2, 30598, Note_off_c, 0, 80, 64
2, 30598, Note_on_c, 0, 82, 40
2, 30644, Note_off_c, 0, 82, 64
2, 30644, Note_on_c, 0, 80, 38
2, 30692, Note_off_c, 0, 80, 64
2, 30692, Note_off_c, 0, 72, 64
2, 30692, Note_off_c, 0, 75, 64
2, 30692, Note_on_c, 0, 71, 48
2, 30692, Note_on_c, 0, 74, 40
2, 30739, Note_on_c, 0, 79, 40
2, 30786, Note_off_c, 0, 79, 64
2, 30788, Note_on_c, 0, 80, 40
2, 30832, Note_off_c, 0, 80, 64
2, 30832, Note_on_c, 0, 79, 40
2, 30879, Note_off_c, 0, 79, 64
2, 30879, Note_off_c, 0, 74, 64
2, 30879, Note_off_c, 0, 71, 64
2, 30879, Note_on_c, 0, 72, 46
2, 30879, Note_on_c, 0, 69, 40
2, 30926, Note_on_c, 0, 78, 42
2, 30972, Note_off_c, 0, 78, 64
2, 30973, Note_on_c, 0, 79, 39
2, 31018, Note_off_c, 0, 79, 64
2, 31022, Note_on_c, 0, 78, 42
2, 31066, Note_off_c, 0, 78, 64
2, 31068, Note_off_c, 0, 69, 64
2, 31069, Note_off_c, 0, 72, 64
2, 31070, Note_on_c, 0, 72, 43
2, 31071, Note_on_c, 0, 68, 48
2, 31115, Note_on_c, 0, 77, 38
2, 31159, Note_off_c, 0, 77, 64
2, 31161, Note_on_c, 0, 79, 37
2, 31208, Note_off_c, 0, 79, 64
2, 31208, Note_on_c, 0, 77, 34
2, 31253, Note_off_c, 0, 77, 64
2, 31253, Note_off_c, 0, 72, 64
2, 31253, Note_off_c, 0, 68, 64
2, 31255, Note_on_c, 0, 67, 44
2, 31255, Note_on_c, 0, 72, 41
2, 31302, Note_on_c, 0, 75, 49
2, 31347, Note_off_c, 0, 75, 64
2, 31349, Note_on_c, 0, 77, 25
2, 31394, Note_off_c, 0, 77, 64
2, 31394, Note_on_c, 0, 75, 31
2, 31442, Note_off_c, 0, 75, 64
2, 31443, Note_off_c, 0, 67, 64
2, 31444, Note_off_c, 0, 72, 64
2, 31445, Note_on_c, 0, 66, 52
2, 31490, Note_on_c, 0, 75, 39
2, 31534, Note_off_c, 0, 75, 64
2, 31534, Note_on_c, 0, 77, 28
2, 31582, Note_off_c, 0, 77, 64
2, 31584, Note_on_c, 0, 75, 30
2, 31630, Note_off_c, 0, 75, 64
2, 31630, Note_off_c, 0, 66, 64
2, 31631, Note_on_c, 0, 69, 48
2, 31676, Note_on_c, 0, 74, 25
2, 31722, Note_off_c, 0, 74, 64
2, 31722, Note_on_c, 0, 75, 32
2, 31767, Note_off_c, 0, 75, 64
2, 31769, Note_on_c, 0, 74, 24
2, 31814, Note_off_c, 0, 74, 64
2, 31814, Note_off_c, 0, 69, 64
2, 31817, Note_on_c, 0, 67, 51
2, 31818, Note_on_c, 0, 55, 51
2, 31819, Note_on_c, 0, 63, 50
2, 31864, Note_on_c, 0, 72, 34
2, 31908, Note_off_c, 0, 72, 64
2, 31912, Note_on_c, 0, 74, 33
2, 31955, Note_off_c, 0, 74, 64
2, 31957, Note_on_c, 0, 72, 31
2, 32002, Note_off_c, 0, 72, 64
2, 32004, Note_off_c, 0, 63, 64
2, 32005, Note_on_c, 0, 62, 41
2, 32052, Note_on_c, 0, 71, 25
2, 32096, Note_off_c, 0, 71, 64
2, 32098, Note_on_c, 0, 72, 30
2, 32143, Note_off_c, 0, 72, 64
2, 32145, Note_on_c, 0, 71, 28
2, 32190, Note_off_c, 0, 67, 64
2, 32190, Note_off_c, 0, 55, 64
2, 32190, Note_off_c, 0, 62, 64
2, 32190, Note_off_c, 0, 71, 64
2, 32190, Note_on_c, 0, 56, 98
2, 32190, Note_on_c, 0, 53, 79
2, 32190, Note_on_c, 0, 61, 90
2, 32237, Note_on_c, 0, 68, 40
2, 32283, Note_off_c, 0, 68, 64
2, 32283, Note_on_c, 0, 80, 38
2, 32330, Note_off_c, 0, 80, 64
2, 32330, Note_on_c, 0, 68, 32
2, 32377, Note_off_c, 0, 68, 64
2, 32377, Note_on_c, 0, 80, 58
2, 32426, Note_off_c, 0, 80, 64
2, 32427, Note_on_c, 0, 68, 50
2, 32471, Note_off_c, 0, 68, 64
2, 32471, Note_off_c, 0, 61, 64
2, 32471, Note_off_c, 0, 53, 64
2, 32471, Note_off_c, 0, 56, 64
2, 32471, Note_on_c, 0, 80, 55
2, 32471, Note_on_c, 0, 60, 67
2, 32471, Note_on_c, 0, 51, 63
2, 32471, Note_on_c, 0, 55, 70
2, 32517, Note_off_c, 0, 80, 64
2, 32517, Note_on_c, 0, 68, 24
2, 32564, Note_off_c, 0, 68, 64
2, 32564, Note_off_c, 0, 55, 64
2, 32565, Note_off_c, 0, 51, 64
2, 32566, Note_off_c, 0, 60, 64
2, 32567, Note_on_c, 0, 59, 74
2, 32568, Note_on_c, 0, 50, 70
2, 32568, Note_on_c, 0, 53, 74
2, 32612, Note_on_c, 0, 68, 47
2, 32658, Note_off_c, 0, 68, 64
2, 32659, Note_on_c, 0, 80, 58
2, 32704, Note_off_c, 0, 80, 64
2, 32706, Note_on_c, 0, 79, 47
2, 32751, Note_off_c, 0, 79, 64
2, 32751, Note_off_c, 0, 59, 64
2, 32751, Note_off_c, 0, 53, 64
2, 32751, Note_off_c, 0, 50, 64
2, 32751, Note_on_c, 0, 77, 50
2, 32751, Note_on_c, 0, 60, 67
2, 32751, Note_on_c, 0, 55, 67
2, 32751, Note_on_c, 0, 51, 68
2, 32798, Note_off_c, 0, 77, 64
2, 32800, Note_on_c, 0, 75, 44
2, 32846, Note_off_c, 0, 75, 64
2, 32846, Note_on_c, 0, 74, 52
2, 32893, Note_off_c, 0, 74, 64
2, 32895, Note_on_c, 0, 72, 47
2, 32938, Note_off_c, 0, 72, 64
2, 32938, Note_off_c, 0, 51, 64
2, 32938, Note_off_c, 0, 55, 64
2, 32938, Note_off_c, 0, 60, 64
2, 32938, Note_on_c, 0, 61, 90
2, 32938, Note_on_c, 0, 56, 90
2, 32938, Note_on_c, 0, 53, 79
2, 32985, Note_on_c, 0, 80, 44
2, 33034, Note_off_c, 0, 80, 64
2, 33035, Note_on_c, 0, 92, 44
2, 33079, Note_off_c, 0, 92, 64
2, 33079, Note_on_c, 0, 80, 40
2, 33126, Note_off_c, 0, 80, 64
2, 33126, Note_on_c, 0, 92, 55
2, 33173, Note_off_c, 0, 92, 64
2, 33173, Note_on_c, 0, 80, 44
2, 33221, Note_off_c, 0, 80, 64
2, 33222, Note_off_c, 0, 53, 64
2, 33223, Note_off_c, 0, 56, 64
2, 33224, Note_off_c, 0, 61, 64
2, 33224, Note_on_c, 0, 92, 50
2, 33225, Note_on_c, 0, 60, 67
2, 33226, Note_on_c, 0, 51, 68
2, 33226, Note_on_c, 0, 55, 59
2, 33267, Note_off_c, 0, 92, 64
2, 33267, Note_on_c, 0, 80, 35
2, 33314, Note_off_c, 0, 80, 64
2, 33314, Note_off_c, 0, 55, 64
2, 33314, Note_off_c, 0, 51, 64
2, 33314, Note_off_c, 0, 60, 64
2, 33314, Note_on_c, 0, 59, 63
2, 33314, Note_on_c, 0, 53, 66
2, 33314, Note_on_c, 0, 50, 59
2, 33360, Note_on_c, 0, 80, 50
2, 33407, Note_off_c, 0, 80, 64
2, 33407, Note_on_c, 0, 92, 63
2, 33452, Note_off_c, 0, 92, 64
2, 33456, Note_on_c, 0, 91, 62
2, 33500, Note_off_c, 0, 91, 64
2, 33500, Note_off_c, 0, 50, 64
2, 33500, Note_off_c, 0, 53, 64
2, 33500, Note_off_c, 0, 59, 64
2, 33504, Note_on_c, 0, 51, 68
2, 33504, Note_on_c, 0, 89, 52
2, 33505, Note_on_c, 0, 60, 62
2, 33506, Note_on_c, 0, 55, 67
2, 33546, Note_off_c, 0, 89, 64
2, 33548, Note_on_c, 0, 87, 63
2, 33594, Note_off_c, 0, 87, 64
2, 33596, Note_on_c, 0, 86, 59
2, 33642, Note_off_c, 0, 86, 64
2, 33642, Note_on_c, 0, 84, 59
2, 33687, Note_off_c, 0, 84, 64
2, 33687, Note_off_c, 0, 51, 64
2, 33687, Note_off_c, 0, 60, 64
2, 33687, Note_off_c, 0, 55, 64
2, 33688, Note_on_c, 0, 61, 90
2, 33688, Note_on_c, 0, 56, 90
2, 33688, Note_on_c, 0, 53, 79
2, 33736, Note_on_c, 0, 68, 44
2, 33781, Note_off_c, 0, 68, 64
2, 33781, Note_on_c, 0, 80, 58
2, 33829, Note_off_c, 0, 80, 64
2, 33830, Note_on_c, 0, 68, 50
2, 33875, Note_off_c, 0, 68, 64
2, 33875, Note_on_c, 0, 80, 47
2, 33922, Note_off_c, 0, 80, 64
2, 33922, Note_on_c, 0, 68, 40
2, 33969, Note_off_c, 0, 68, 64
2, 33970, Note_off_c, 0, 53, 64
2, 33971, Note_off_c, 0, 56, 64
2, 33972, Note_off_c, 0, 61, 64
2, 33973, Note_on_c, 0, 80, 47
2, 33974, Note_on_c, 0, 60, 62
2, 33974, Note_on_c, 0, 55, 62
2, 33975, Note_on_c, 0, 51, 63
2, 34017, Note_off_c, 0, 80, 64
2, 34018, Note_on_c, 0, 68, 32
2, 34063, Note_off_c, 0, 68, 64
2, 34063, Note_off_c, 0, 51, 64
2, 34063, Note_off_c, 0, 55, 64
2, 34063, Note_off_c, 0, 60, 64
2, 34063, Note_on_c, 0, 50, 70
2, 34063, Note_on_c, 0, 53, 74
2, 34063, Note_on_c, 0, 59, 79
2, 34110, Note_on_c, 0, 80, 58
2, 34155, Note_off_c, 0, 80, 64
2, 34157, Note_on_c, 0, 68, 47
2, 34204, Note_off_c, 0, 68, 64
2, 34206, Note_on_c, 0, 80, 47
2, 34249, Note_off_c, 0, 80, 64
2, 34249, Note_off_c, 0, 59, 64
2, 34249, Note_off_c, 0, 53, 64
2, 34249, Note_off_c, 0, 50, 64
2, 34252, Note_on_c, 0, 51, 80
2, 34253, Note_on_c, 0, 56, 90
2, 34254, Note_on_c, 0, 48, 75
2, 34297, Note_on_c, 0, 92, 58
2, 34342, Note_off_c, 0, 92, 64
2, 34344, Note_on_c, 0, 80, 63
2, 34388, Note_off_c, 0, 80, 64
2, 34392, Note_on_c, 0, 92, 63
2, 34437, Note_off_c, 0, 92, 64
2, 34438, Note_off_c, 0, 48, 64
2, 34439, Note_off_c, 0, 56, 64
2, 34439, Note_off_c, 0, 51, 64
2, 34440, Note_on_c, 0, 47, 80
2, 34441, Note_on_c, 0, 55, 86
2, 34443, Note_on_c, 0, 50, 80
2, 34486, Note_on_c, 0, 91, 56
2, 34531, Note_off_c, 0, 91, 64
2, 34532, Note_on_c, 0, 79, 59
2, 34577, Note_off_c, 0, 79, 64
2, 34577, Note_on_c, 0, 91, 59
2, 34625, Note_off_c, 0, 91, 64
2, 34626, Note_off_c, 0, 50, 64
2, 34628, Note_off_c, 0, 47, 64
2, 34628, Note_off_c, 0, 55, 64
2, 34629, Note_on_c, 0, 45, 67
2, 34630, Note_on_c, 0, 48, 70
2, 34630, Note_on_c, 0, 54, 86
2, 34631, Note_on_c, 0, 51, 80
2, 34672, Note_on_c, 0, 90, 68
2, 34718, Note_off_c, 0, 90, 64
2, 34718, Note_on_c, 0, 78, 58
2, 34765, Note_off_c, 0, 78, 64
2, 34767, Note_on_c, 0, 90, 63
2, 34813, Note_off_c, 0, 90, 64
2, 34814, Note_off_c, 0, 51, 64
2, 34815, Note_off_c, 0, 54, 64
2, 34816, Note_off_c, 0, 48, 64
2, 34816, Note_off_c, 0, 45, 64
2, 34817, Note_on_c, 0, 47, 80
2, 34818, Note_on_c, 0, 50, 80
2, 34819, Note_on_c, 0, 53, 84
2, 34859, Note_on_c, 0, 89, 59
2, 34905, Note_off_c, 0, 89, 64
2, 34905, Note_on_c, 0, 77, 56
2, 34951, Note_off_c, 0, 77, 64
2, 34952, Note_on_c, 0, 89, 62
2, 34998, Note_off_c, 0, 89, 64
2, 34998, Note_off_c, 0, 53, 64
2, 34998, Note_off_c, 0, 50, 64
2, 34998, Note_off_c, 0, 47, 64
2, 35001, Note_on_c, 0, 48, 70
2, 35002, Note_on_c, 0, 51, 74
2, 35048, Note_on_c, 0, 87, 63
2, 35092, Note_off_c, 0, 87, 64
2, 35093, Note_on_c, 0, 79, 52
2, 35093, Note_on_c, 0, 75, 38
2, 35138, Note_off_c, 0, 75, 64
2, 35138, Note_off_c, 0, 79, 64
2, 35140, Note_on_c, 0, 87, 68
2, 35185, Note_off_c, 0, 87, 64
2, 35185, Note_off_c, 0, 48, 64
2, 35185, Note_off_c, 0, 51, 64
2, 35187, Note_on_c, 0, 41, 84
2, 35187, Note_on_c, 0, 45, 75
2, 35187, Note_on_c, 0, 51, 94
2, 35236, Note_on_c, 0, 87, 68
2, 35279, Note_off_c, 0, 87, 64
2, 35282, Note_on_c, 0, 75, 47
2, 35283, Note_on_c, 0, 81, 52
2, 35326, Note_off_c, 0, 81, 64
2, 35326, Note_off_c, 0, 75, 64
2, 35328, Note_on_c, 0, 87, 68
2, 35373, Note_off_c, 0, 87, 64
2, 35373, Note_off_c, 0, 51, 64
2, 35373, Note_on_c, 0, 50, 75
2, 35420, Note_on_c, 0, 86, 67
2, 35467, Note_off_c, 0, 86, 64
2, 35467, Note_on_c, 0, 81, 62
2, 35467, Note_on_c, 0, 74, 47
2, 35514, Note_off_c, 0, 74, 64
2, 35514, Note_off_c, 0, 81, 64
2, 35514, Note_on_c, 0, 86, 70
2, 35561, Note_off_c, 0, 86, 64
2, 35562, Note_off_c, 0, 50, 64
2, 35563, Note_off_c, 0, 45, 64
2, 35564, Note_off_c, 0, 41, 64
2, 35565, Note_on_c, 0, 43, 75
2, 35565, Note_on_c, 0, 48, 70
2, 35608, Note_on_c, 0, 84, 70
2, 35654, Note_off_c, 0, 84, 64
2, 35654, Note_on_c, 0, 75, 63
2, 35654, Note_on_c, 0, 72, 47
2, 35701, Note_off_c, 0, 72, 64
2, 35701, Note_off_c, 0, 75, 64
2, 35701, Note_on_c, 0, 84, 70
2, 35747, Note_off_c, 0, 84, 64
2, 35748, Note_off_c, 0, 48, 64
2, 35750, Note_on_c, 0, 47, 75
2, 35796, Note_on_c, 0, 83, 75
2, 35841, Note_off_c, 0, 83, 64
2, 35842, Note_on_c, 0, 71, 59
2, 35842, Note_on_c, 0, 74, 67
2, 35887, Note_off_c, 0, 74, 64
2, 35887, Note_off_c, 0, 71, 64
2, 35890, Note_on_c, 0, 83, 80
2, 35934, Note_off_c, 0, 83, 64
2, 35934, Note_off_c, 0, 47, 64
2, 35934, Note_off_c, 0, 43, 64
2, 35936, Note_on_c, 0, 43, 86
2, 35936, Note_on_c, 0, 39, 86
2, 35936, Note_on_c, 0, 48, 80
2, 35936, Note_on_c, 0, 36, 86
2, 35936, Note_on_c, 0, 75, 58
2, 35936, Note_on_c, 0, 72, 56
2, 35936, Note_on_c, 0, 84, 67
2, 35936, Note_on_c, 0, 79, 67
2, 35981, Note_off_c, 0, 79, 64
2, 35981, Note_off_c, 0, 84, 64
2, 35981, Note_off_c, 0, 72, 64
2, 35981, Note_off_c, 0, 75, 64
2, 35984, Note_on_c, 0, 67, 39
2, 36029, Note_off_c, 0, 67, 64
2, 36030, Note_off_c, 0, 43, 64
2, 36031, Note_off_c, 0, 39, 64
2, 36032, Note_off_c, 0, 36, 64
2, 36032, Note_off_c, 0, 48, 64
2, 36033, Note_on_c, 0, 72, 36
2, 36075, Note_off_c, 0, 72, 64
2, 36076, Note_on_c, 0, 75, 47
2, 36122, Note_off_c, 0, 75, 64
2, 36124, Note_on_c, 0, 79, 50
2, 36169, Note_off_c, 0, 79, 64
2, 36169, Note_on_c, 0, 80, 47
2, 36169, Note_on_c, 0, 55, 52
2, 36216, Note_off_c, 0, 55, 64
2, 36216, Note_off_c, 0, 80, 64
2, 36216, Note_on_c, 0, 79, 41
2, 36216, Note_on_c, 0, 60, 47
2, 36262, Note_off_c, 0, 60, 64
2, 36262, Note_off_c, 0, 79, 64
2, 36262, Note_on_c, 0, 77, 32
2, 36262, Note_on_c, 0, 63, 55
2, 36309, Note_off_c, 0, 63, 64
2, 36309, Note_off_c, 0, 77, 64
2, 36309, Note_on_c, 0, 75, 47
2, 36309, Note_on_c, 0, 67, 62
2, 36357, Note_off_c, 0, 67, 64
2, 36358, Note_off_c, 0, 75, 64
2, 36359, Note_on_c, 0, 77, 44
2, 36360, Note_on_c, 0, 68, 58
2, 36405, Note_off_c, 0, 68, 64
2, 36405, Note_off_c, 0, 77, 64
2, 36406, Note_on_c, 0, 75, 47
2, 36407, Note_on_c, 0, 67, 56
2, 36450, Note_off_c, 0, 67, 64
2, 36450, Note_off_c, 0, 75, 64
2, 36450, Note_on_c, 0, 74, 47
2, 36450, Note_on_c, 0, 65, 56
2, 36497, Note_off_c, 0, 65, 64
2, 36497, Note_off_c, 0, 74, 64
2, 36497, Note_on_c, 0, 72, 52
2, 36497, Note_on_c, 0, 63, 63
2, 36544, Note_off_c, 0, 63, 64
2, 36544, Note_off_c, 0, 72, 64
2, 36546, Note_on_c, 0, 70, 44
2, 36547, Note_on_c, 0, 62, 56
2, 36589, Note_off_c, 0, 62, 64
2, 36589, Note_off_c, 0, 70, 64
2, 36592, Note_on_c, 0, 68, 44
2, 36593, Note_on_c, 0, 60, 56
2, 36637, Note_off_c, 0, 60, 64
2, 36638, Note_off_c, 0, 68, 64
2, 36640, Note_on_c, 0, 67, 50
2, 36640, Note_on_c, 0, 58, 58
2, 36683, Note_off_c, 0, 58, 64
2, 36683, Note_off_c, 0, 67, 64
2, 36684, Note_on_c, 0, 65, 59
2, 36684, Note_on_c, 0, 56, 67
2, 36730, Note_off_c, 0, 56, 64
2, 36730, Note_off_c, 0, 65, 64
2, 36732, Note_on_c, 0, 63, 50
2, 36732, Note_on_c, 0, 55, 52
2, 36777, Note_off_c, 0, 55, 64
2, 36777, Note_off_c, 0, 63, 64
2, 36779, Note_on_c, 0, 62, 52
2, 36780, Note_on_c, 0, 53, 56
2, 36825, Note_off_c, 0, 53, 64
2, 36826, Note_off_c, 0, 62, 64
2, 36827, Note_on_c, 0, 60, 47
2, 36828, Note_on_c, 0, 51, 55
2, 36871, Note_off_c, 0, 51, 64
2, 36871, Note_off_c, 0, 60, 64
2, 36872, Note_on_c, 0, 59, 66
2, 36872, Note_on_c, 0, 50, 59
2, 36918, Note_off_c, 0, 50, 64
2, 36918, Note_off_c, 0, 59, 64
2, 36920, Note_on_c, 0, 51, 58
2, 36965, Note_off_c, 0, 51, 64
2, 36967, Note_on_c, 0, 59, 63
2, 36967, Note_on_c, 0, 67, 62
2, 36968, Note_on_c, 0, 55, 52
2, 36968, Note_on_c, 0, 62, 56
2, 36969, Note_on_c, 0, 53, 63
2, 37013, Note_off_c, 0, 53, 64
2, 37014, Note_off_c, 0, 62, 64
2, 37015, Note_off_c, 0, 55, 64
2, 37015, Note_off_c, 0, 67, 64
2, 37016, Note_off_c, 0, 59, 64
2, 37016, Note_on_c, 0, 51, 63
2, 37058, Note_off_c, 0, 51, 64
2, 37058, Note_on_c, 0, 59, 63
2, 37058, Note_on_c, 0, 67, 59
2, 37058, Note_on_c, 0, 65, 56
2, 37058, Note_on_c, 0, 55, 47
2, 37058, Note_on_c, 0, 50, 70
2, 37105, Note_off_c, 0, 50, 64
2, 37105, Note_off_c, 0, 55, 64
2, 37105, Note_off_c, 0, 65, 64
2, 37105, Note_off_c, 0, 67, 64
2, 37105, Note_off_c, 0, 59, 64
2, 37105, Note_on_c, 0, 48, 52
2, 37154, Note_off_c, 0, 48, 64
2, 37155, Note_on_c, 0, 59, 60
2, 37155, Note_on_c, 0, 55, 50
2, 37156, Note_on_c, 0, 65, 50
2, 37157, Note_on_c, 0, 67, 39
2, 37157, Note_on_c, 0, 47, 62
2, 37201, Note_off_c, 0, 47, 64
2, 37201, Note_off_c, 0, 67, 64
2, 37202, Note_off_c, 0, 65, 64
2, 37203, Note_off_c, 0, 55, 64
2, 37204, Note_off_c, 0, 59, 64
2, 37205, Note_on_c, 0, 44, 63
2, 37246, Note_off_c, 0, 44, 64
2, 37246, Note_on_c, 0, 55, 44
2, 37246, Note_on_c, 0, 65, 56
2, 37246, Note_on_c, 0, 59, 60
2, 37246, Note_on_c, 0, 67, 52
2, 37246, Note_on_c, 0, 43, 62
2, 37293, Note_off_c, 0, 43, 64
2, 37293, Note_off_c, 0, 67, 64
2, 37293, Note_off_c, 0, 59, 64
2, 37293, Note_off_c, 0, 65, 64
2, 37293, Note_off_c, 0, 55, 64
2, 37293, Note_on_c, 0, 41, 63
2, 37338, Note_off_c, 0, 41, 64
2, 37341, Note_on_c, 0, 59, 56
2, 37343, Note_on_c, 0, 55, 41
2, 37343, Note_on_c, 0, 65, 56
2, 37344, Note_on_c, 0, 67, 52
2, 37345, Note_on_c, 0, 39, 68
2, 37385, Note_off_c, 0, 39, 64
2, 37385, Note_off_c, 0, 67, 64
2, 37385, Note_off_c, 0, 65, 64
2, 37385, Note_off_c, 0, 55, 64
2, 37385, Note_off_c, 0, 59, 64
2, 37385, Note_on_c, 0, 38, 70
2, 37434, Note_off_c, 0, 38, 64
2, 37434, Note_on_c, 0, 67, 75
2, 37434, Note_on_c, 0, 60, 70
2, 37434, Note_on_c, 0, 55, 70
2, 37434, Note_on_c, 0, 63, 74
2, 37434, Note_on_c, 0, 36, 75
2, 37434, Note_on_c, 0, 39, 74
2, 37434, Note_on_c, 0, 48, 75
2, 37434, Note_on_c, 0, 43, 67
2, 37479, Note_off_c, 0, 43, 64
2, 37479, Note_off_c, 0, 48, 64
2, 37479, Note_off_c, 0, 39, 64
2, 37479, Note_off_c, 0, 36, 64
2, 37479, Note_off_c, 0, 63, 64
2, 37479, Note_off_c, 0, 55, 64
2, 37479, Note_off_c, 0, 60, 64
2, 37479, Note_off_c, 0, 67, 64
2, 37479, Note_on_c, 0, 79, 39
2, 37526, Note_off_c, 0, 79, 64
2, 37526, Note_on_c, 0, 84, 36
2, 37573, Note_off_c, 0, 84, 64
2, 37575, Note_on_c, 0, 87, 47
2, 37621, Note_off_c, 0, 87, 64
2, 37621, Note_on_c, 0, 91, 59
2, 37666, Note_off_c, 0, 91, 64
2, 37670, Note_on_c, 0, 92, 50
2, 37671, Note_on_c, 0, 67, 52
2, 37713, Note_off_c, 0, 67, 64
2, 37713, Note_off_c, 0, 92, 64
2, 37715, Note_on_c, 0, 91, 47
2, 37715, Note_on_c, 0, 72, 52
2, 37760, Note_off_c, 0, 72, 64
2, 37760, Note_off_c, 0, 91, 64
2, 37760, Note_on_c, 0, 89, 36
2, 37760, Note_on_c, 0, 75, 47
2, 37809, Note_off_c, 0, 75, 64
2, 37809, Note_off_c, 0, 89, 64
2, 37810, Note_on_c, 0, 87, 63
2, 37811, Note_on_c, 0, 79, 67
2, 37856, Note_off_c, 0, 79, 64
2, 37856, Note_off_c, 0, 87, 64
2, 37857, Note_on_c, 0, 89, 50
2, 37858, Note_on_c, 0, 80, 55
2, 37901, Note_off_c, 0, 80, 64
2, 37901, Note_off_c, 0, 89, 64
2, 37901, Note_on_c, 0, 79, 52
2, 37901, Note_on_c, 0, 87, 50
2, 37948, Note_off_c, 0, 87, 64
2, 37948, Note_off_c, 0, 79, 64
2, 37948, Note_on_c, 0, 86, 50
2, 37948, Note_on_c, 0, 77, 36
2, 37997, Note_off_c, 0, 77, 64
2, 37997, Note_off_c, 0, 86, 64
2, 37998, Note_on_c, 0, 84, 59
2, 37999, Note_on_c, 0, 75, 58
2, 38042, Note_off_c, 0, 75, 64
2, 38042, Note_off_c, 0, 84, 64
2, 38042, Note_on_c, 0, 82, 47
2, 38042, Note_on_c, 0, 74, 47
2, 38089, Note_off_c, 0, 74, 64
2, 38089, Note_off_c, 0, 82, 64
2, 38089, Note_on_c, 0, 80, 50
2, 38089, Note_on_c, 0, 72, 50
2, 38133, Note_off_c, 0, 72, 64
2, 38133, Note_off_c, 0, 80, 64
2, 38134, Note_on_c, 0, 79, 50
2, 38134, Note_on_c, 0, 70, 47
2, 38181, Note_off_c, 0, 70, 64
2, 38181, Note_off_c, 0, 79, 64
2, 38184, Note_on_c, 0, 77, 56
2, 38185, Note_on_c, 0, 68, 44
2, 38229, Note_off_c, 0, 68, 64
2, 38230, Note_off_c, 0, 77, 64
2, 38231, Note_on_c, 0, 75, 50
2, 38232, Note_on_c, 0, 67, 47
2, 38275, Note_off_c, 0, 67, 64
2, 38275, Note_off_c, 0, 75, 64
2, 38277, Note_on_c, 0, 74, 47
2, 38277, Note_on_c, 0, 65, 56
2, 38322, Note_off_c, 0, 65, 64
2, 38322, Note_off_c, 0, 74, 64
2, 38323, Note_on_c, 0, 72, 50
2, 38323, Note_on_c, 0, 63, 58
2, 38370, Note_off_c, 0, 63, 64
2, 38372, Note_off_c, 0, 72, 64
2, 38373, Note_on_c, 0, 71, 52
2, 38374, Note_on_c, 0, 62, 59
2, 38417, Note_off_c, 0, 62, 64
2, 38418, Note_off_c, 0, 71, 64
2, 38419, Note_on_c, 0, 63, 58
2, 38462, Note_off_c, 0, 63, 64
2, 38465, Note_on_c, 0, 79, 80
2, 38465, Note_on_c, 0, 71, 75
2, 38465, Note_on_c, 0, 67, 70
2, 38465, Note_on_c, 0, 74, 75
2, 38465, Note_on_c, 0, 65, 59
2, 38509, Note_off_c, 0, 65, 64
2, 38509, Note_off_c, 0, 74, 64
2, 38509, Note_off_c, 0, 67, 64
2, 38509, Note_off_c, 0, 71, 64
2, 38509, Note_off_c, 0, 79, 64
2, 38509, Note_on_c, 0, 63, 58
2, 38557, Note_off_c, 0, 63, 64
2, 38558, Note_on_c, 0, 67, 31
2, 38559, Note_on_c, 0, 71, 34
2, 38560, Note_on_c, 0, 77, 31
2, 38560, Note_on_c, 0, 79, 16
2, 38561, Note_on_c, 0, 62, 67
2, 38605, Note_off_c, 0, 62, 64
2, 38605, Note_off_c, 0, 79, 64
2, 38606, Note_off_c, 0, 77, 64
2, 38607, Note_off_c, 0, 71, 64
2, 38607, Note_off_c, 0, 67, 64
2, 38609, Note_on_c, 0, 60, 62
2, 38650, Note_off_c, 0, 60, 64
2, 38650, Note_on_c, 0, 71, 52
2, 38650, Note_on_c, 0, 77, 52
2, 38650, Note_on_c, 0, 67, 41
2, 38650, Note_on_c, 0, 79, 32
2, 38650, Note_on_c, 0, 59, 63
2, 38698, Note_off_c, 0, 59, 64
2, 38699, Note_off_c, 0, 79, 64
2, 38700, Note_off_c, 0, 67, 64
2, 38700, Note_off_c, 0, 77, 64
2, 38701, Note_off_c, 0, 71, 64
2, 38702, Note_on_c, 0, 56, 62
2, 38744, Note_off_c, 0, 56, 64
2, 38746, Note_on_c, 0, 71, 52
2, 38746, Note_on_c, 0, 77, 50
2, 38747, Note_on_c, 0, 67, 41
2, 38748, Note_on_c, 0, 79, 36
2, 38748, Note_on_c, 0, 55, 59
2, 38793, Note_off_c, 0, 55, 64
2, 38793, Note_off_c, 0, 79, 64
2, 38794, Note_off_c, 0, 67, 64
2, 38795, Note_off_c, 0, 77, 64
2, 38796, Note_off_c, 0, 71, 64
2, 38797, Note_on_c, 0, 53, 63
2, 38838, Note_off_c, 0, 53, 64
2, 38838, Note_on_c, 0, 51, 58
2, 38838, Note_on_c, 0, 79, 50
2, 38838, Note_on_c, 0, 67, 47
2, 38838, Note_on_c, 0, 77, 56
2, 38838, Note_on_c, 0, 71, 56
2, 38885, Note_off_c, 0, 71, 64
2, 38885, Note_off_c, 0, 77, 64
2, 38885, Note_off_c, 0, 67, 64
2, 38885, Note_off_c, 0, 79, 64
2, 38885, Note_off_c, 0, 51, 64
2, 38885, Note_on_c, 0, 50, 62
2, 38930, Note_off_c, 0, 50, 64
2, 38931, Note_on_c, 0, 48, 59
2, 38931, Note_on_c, 0, 75, 68
2, 38931, Note_on_c, 0, 67, 59
2, 38931, Note_on_c, 0, 72, 59
2, 38931, Note_on_c, 0, 79, 70
2, 38977, Note_off_c, 0, 48, 64
2, 38980, Note_on_c, 0, 50, 56
2, 39025, Note_off_c, 0, 50, 64
2, 39026, Note_on_c, 0, 51, 63
2, 39070, Note_off_c, 0, 51, 64
2, 39072, Note_on_c, 0, 53, 60
2, 39117, Note_off_c, 0, 53, 64
2, 39119, Note_on_c, 0, 55, 59
2, 39164, Note_off_c, 0, 55, 64
2, 39166, Note_on_c, 0, 57, 47
2, 39212, Note_off_c, 0, 57, 64
2, 39213, Note_off_c, 0, 75, 64
2, 39214, Note_off_c, 0, 67, 64
2, 39216, Note_off_c, 0, 79, 64
2, 39216, Note_off_c, 0, 72, 64
2, 39217, Note_on_c, 0, 91, 80
2, 39218, Note_on_c, 0, 87, 74
2, 39219, Note_on_c, 0, 79, 62
2, 39219, Note_on_c, 0, 84, 59
2, 39220, Note_on_c, 0, 59, 51
2, 39258, Note_off_c, 0, 59, 64
2, 39258, Note_off_c, 0, 84, 64
2, 39258, Note_off_c, 0, 79, 64
2, 39258, Note_off_c, 0, 87, 64
2, 39258, Note_off_c, 0, 91, 64
2, 39258, Note_on_c, 0, 60, 52
2, 39305, Note_off_c, 0, 60, 64
2, 39307, Note_on_c, 0, 79, 44
2, 39307, Note_on_c, 0, 89, 44
2, 39307, Note_on_c, 0, 83, 52
2, 39307, Note_on_c, 0, 91, 36
2, 39307, Note_on_c, 0, 62, 59
2, 39354, Note_off_c, 0, 62, 64
2, 39354, Note_off_c, 0, 91, 64
2, 39355, Note_off_c, 0, 83, 64
2, 39356, Note_off_c, 0, 89, 64
2, 39356, Note_off_c, 0, 79, 64
2, 39357, Note_on_c, 0, 60, 47
2, 39399, Note_off_c, 0, 60, 64
2, 39399, Note_on_c, 0, 89, 59
2, 39399, Note_on_c, 0, 91, 52
2, 39399, Note_on_c, 0, 83, 56
2, 39399, Note_on_c, 0, 79, 39
2, 39399, Note_on_c, 0, 59, 54
2, 39446, Note_off_c, 0, 59, 64
2, 39446, Note_off_c, 0, 79, 64
2, 39446, Note_off_c, 0, 83, 64
2, 39446, Note_off_c, 0, 91, 64
2, 39446, Note_off_c, 0, 89, 64
2, 39446, Note_on_c, 0, 57, 41
2, 39493, Note_off_c, 0, 57, 64
2, 39493, Note_on_c, 0, 79, 41
2, 39493, Note_on_c, 0, 89, 50
2, 39493, Note_on_c, 0, 83, 52
2, 39493, Note_on_c, 0, 91, 39
2, 39493, Note_on_c, 0, 55, 59
2, 39540, Note_off_c, 0, 55, 64
2, 39541, Note_off_c, 0, 91, 64
2, 39542, Note_off_c, 0, 83, 64
2, 39543, Note_off_c, 0, 89, 64
2, 39544, Note_off_c, 0, 79, 64
2, 39545, Note_on_c, 0, 53, 60
2, 39588, Note_off_c, 0, 53, 64
2, 39589, Note_on_c, 0, 83, 47
2, 39590, Note_on_c, 0, 79, 44
2, 39590, Note_on_c, 0, 89, 50
2, 39591, Note_on_c, 0, 91, 56
2, 39592, Note_on_c, 0, 51, 63
2, 39633, Note_off_c, 0, 51, 64
2, 39633, Note_off_c, 0, 91, 64
2, 39633, Note_off_c, 0, 89, 64
2, 39633, Note_off_c, 0, 79, 64
2, 39633, Note_off_c, 0, 83, 64
2, 39633, Note_on_c, 0, 50, 59
2, 39680, Note_off_c, 0, 50, 64
2, 39680, Note_on_c, 0, 84, 41
2, 39680, Note_on_c, 0, 87, 47
2, 39680, Note_on_c, 0, 79, 34
2, 39680, Note_on_c, 0, 91, 47
2, 39680, Note_on_c, 0, 48, 59
2, 39726, Note_off_c, 0, 48, 64
2, 39728, Note_on_c, 0, 50, 52
2, 39773, Note_off_c, 0, 50, 64
2, 39775, Note_on_c, 0, 51, 68
2, 39821, Note_off_c, 0, 51, 64
2, 39823, Note_on_c, 0, 53, 63
2, 39866, Note_off_c, 0, 91, 64
2, 39866, Note_off_c, 0, 79, 64
2, 39866, Note_off_c, 0, 87, 64
2, 39866, Note_off_c, 0, 84, 64
2, 39866, Note_off_c, 0, 53, 64
2, 39866, Note_on_c, 0, 55, 70
2, 39913, Note_off_c, 0, 55, 64
2, 39915, Note_on_c, 0, 57, 59
2, 39960, Note_off_c, 0, 57, 64
2, 39964, Note_on_c, 0, 79, 80
2, 39965, Note_on_c, 0, 72, 67
2, 39966, Note_on_c, 0, 67, 70
2, 39966, Note_on_c, 0, 75, 74
2, 39967, Note_on_c, 0, 59, 71
2, 40008, Note_off_c, 0, 59, 64
2, 40009, Note_off_c, 0, 75, 64
2, 40010, Note_off_c, 0, 67, 64
2, 40010, Note_off_c, 0, 72, 64
2, 40011, Note_off_c, 0, 79, 64
2, 40012, Note_on_c, 0, 60, 67
2, 40055, Note_off_c, 0, 60, 64
2, 40057, Note_on_c, 0, 71, 47
2, 40059, Note_on_c, 0, 79, 41
2, 40060, Note_on_c, 0, 77, 50
2, 40061, Note_on_c, 0, 67, 39
2, 40061, Note_on_c, 0, 62, 70
2, 40101, Note_off_c, 0, 62, 64
2, 40101, Note_off_c, 0, 67, 64
2, 40101, Note_off_c, 0, 77, 64
2, 40101, Note_off_c, 0, 79, 64
2, 40101, Note_off_c, 0, 71, 64
2, 40101, Note_on_c, 0, 60, 59
2, 40148, Note_off_c, 0, 60, 64
2, 40150, Note_on_c, 0, 71, 44
2, 40150, Note_on_c, 0, 77, 50
2, 40151, Note_on_c, 0, 67, 32
2, 40152, Note_on_c, 0, 79, 39
2, 40153, Note_on_c, 0, 59, 60
2, 40196, Note_off_c, 0, 59, 64
2, 40197, Note_off_c, 0, 79, 64
2, 40198, Note_off_c, 0, 67, 64
2, 40198, Note_off_c, 0, 77, 64
2, 40199, Note_off_c, 0, 71, 64
2, 40200, Note_on_c, 0, 57, 56
2, 40242, Note_off_c, 0, 57, 64
2, 40242, Note_on_c, 0, 77, 56
2, 40242, Note_on_c, 0, 79, 52
2, 40242, Note_on_c, 0, 71, 50
2, 40242, Note_on_c, 0, 67, 39
2, 40242, Note_on_c, 0, 55, 67
2, 40289, Note_off_c, 0, 55, 64
2, 40289, Note_off_c, 0, 67, 64
2, 40289, Note_off_c, 0, 71, 64
2, 40289, Note_off_c, 0, 79, 64
2, 40289, Note_off_c, 0, 77, 64
2, 40289, Note_on_c, 0, 53, 63
2, 40336, Note_off_c, 0, 53, 64
2, 40336, Note_on_c, 0, 71, 52
2, 40336, Note_on_c, 0, 77, 56
2, 40336, Note_on_c, 0, 67, 50
2, 40336, Note_on_c, 0, 79, 52
2, 40336, Note_on_c, 0, 51, 68
2, 40382, Note_off_c, 0, 51, 64
2, 40382, Note_off_c, 0, 79, 64
2, 40382, Note_off_c, 0, 67, 64
2, 40382, Note_off_c, 0, 77, 64
2, 40382, Note_off_c, 0, 71, 64
2, 40382, Note_on_c, 0, 50, 62
2, 40429, Note_off_c, 0, 50, 64
2, 40429, Note_on_c, 0, 67, 52
2, 40429, Note_on_c, 0, 72, 52
2, 40429, Note_on_c, 0, 79, 52
2, 40429, Note_on_c, 0, 75, 55
2, 40429, Note_on_c, 0, 48, 59
2, 40476, Note_off_c, 0, 48, 64
2, 40476, Note_on_c, 0, 50, 56
2, 40522, Note_off_c, 0, 50, 64
2, 40523, Note_on_c, 0, 51, 68
2, 40568, Note_off_c, 0, 51, 64
2, 40570, Note_on_c, 0, 53, 56
2, 40616, Note_off_c, 0, 53, 64
2, 40617, Note_off_c, 0, 75, 64
2, 40618, Note_off_c, 0, 79, 64
2, 40618, Note_off_c, 0, 72, 64
2, 40619, Note_off_c, 0, 67, 64
2, 40620, Note_on_c, 0, 55, 70
2, 40662, Note_off_c, 0, 55, 64
2, 40666, Note_on_c, 0, 57, 50
2, 40709, Note_off_c, 0, 57, 64
2, 40711, Note_on_c, 0, 84, 75
2, 40711, Note_on_c, 0, 75, 68
2, 40711, Note_on_c, 0, 72, 47
2, 40711, Note_on_c, 0, 79, 67
2, 40711, Note_on_c, 0, 59, 51
2, 40756, Note_off_c, 0, 59, 64
2, 40756, Note_off_c, 0, 79, 64
2, 40756, Note_off_c, 0, 72, 64
2, 40756, Note_off_c, 0, 75, 64
2, 40756, Note_off_c, 0, 84, 64
2, 40756, Note_on_c, 0, 60, 50
2, 40804, Note_off_c, 0, 60, 64
2, 40805, Note_on_c, 0, 72, 36
2, 40805, Note_on_c, 0, 79, 47
2, 40805, Note_on_c, 0, 84, 50
2, 40805, Note_on_c, 0, 76, 47
2, 40805, Note_on_c, 0, 58, 68
2, 40851, Note_off_c, 0, 58, 64
2, 40852, Note_off_c, 0, 76, 64
2, 40852, Note_off_c, 0, 84, 64
2, 40853, Note_off_c, 0, 79, 64
2, 40854, Note_off_c, 0, 72, 64
2, 40855, Note_on_c, 0, 56, 67
2, 40897, Note_off_c, 0, 56, 64
2, 40899, Note_on_c, 0, 76, 47
2, 40899, Note_on_c, 0, 84, 47
2, 40899, Note_on_c, 0, 72, 25
2, 40899, Note_on_c, 0, 79, 50
2, 40899, Note_on_c, 0, 55, 59
2, 40944, Note_off_c, 0, 55, 64
2, 40946, Note_off_c, 0, 79, 64
2, 40946, Note_off_c, 0, 72, 64
2, 40947, Note_off_c, 0, 84, 64
2, 40948, Note_off_c, 0, 76, 64
2, 40949, Note_on_c, 0, 53, 56
2, 40992, Note_off_c, 0, 53, 64
2, 40993, Note_on_c, 0, 72, 47
2, 40994, Note_on_c, 0, 84, 41
2, 40995, Note_on_c, 0, 76, 47
2, 40995, Note_on_c, 0, 79, 52
2, 40996, Note_on_c, 0, 52, 62
2, 41037, Note_off_c, 0, 52, 64
2, 41037, Note_off_c, 0, 79, 64
2, 41037, Note_off_c, 0, 76, 64
2, 41037, Note_off_c, 0, 84, 64
2, 41037, Note_off_c, 0, 72, 64
2, 41037, Note_on_c, 0, 49, 55
2, 41084, Note_off_c, 0, 49, 64
2, 41084, Note_on_c, 0, 84, 59
2, 41084, Note_on_c, 0, 76, 52
2, 41084, Note_on_c, 0, 72, 50
2, 41084, Note_on_c, 0, 79, 56
2, 41084, Note_on_c, 0, 48, 41
2, 41132, Note_off_c, 0, 48, 64
2, 41132, Note_off_c, 0, 79, 64
2, 41132, Note_off_c, 0, 72, 64
2, 41132, Note_off_c, 0, 76, 64
2, 41132, Note_off_c, 0, 84, 64
2, 41132, Note_on_c, 0, 46, 51
2, 41179, Note_off_c, 0, 46, 64
2, 41179, Note_on_c, 0, 84, 67
2, 41179, Note_on_c, 0, 72, 44
2, 41179, Note_on_c, 0, 80, 58
2, 41179, Note_on_c, 0, 77, 59
2, 41179, Note_on_c, 0, 44, 55
2, 41225, Note_off_c, 0, 44, 64
2, 41225, Note_on_c, 0, 46, 44
2, 41272, Note_off_c, 0, 46, 64
2, 41272, Note_on_c, 0, 48, 47
2, 41317, Note_off_c, 0, 48, 64
2, 41319, Note_on_c, 0, 50, 62
2, 41366, Note_off_c, 0, 50, 64
2, 41366, Note_off_c, 0, 77, 64
2, 41367, Note_off_c, 0, 80, 64
2, 41368, Note_off_c, 0, 72, 64
2, 41369, Note_off_c, 0, 84, 64
2, 41370, Note_on_c, 0, 52, 67
2, 41412, Note_off_c, 0, 52, 64
2, 41413, Note_on_c, 0, 53, 66
2, 41458, Note_off_c, 0, 53, 64
2, 41461, Note_on_c, 0, 72, 75
2, 41462, Note_on_c, 0, 68, 80
2, 41463, Note_on_c, 0, 60, 70
2, 41464, Note_on_c, 0, 65, 70
2, 41464, Note_on_c, 0, 55, 52
2, 41505, Note_off_c, 0, 55, 64
2, 41505, Note_off_c, 0, 65, 64
2, 41505, Note_off_c, 0, 60, 64
2, 41505, Note_off_c, 0, 68, 64
2, 41505, Note_off_c, 0, 72, 64
2, 41505, Note_on_c, 0, 56, 67
2, 41552, Note_off_c, 0, 56, 64
2, 41554, Note_on_c, 0, 70, 47
2, 41555, Note_on_c, 0, 60, 44
2, 41556, Note_on_c, 0, 72, 50
2, 41557, Note_on_c, 0, 64, 47
2, 41557, Note_on_c, 0, 55, 62
2, 41600, Note_off_c, 0, 55, 64
2, 41601, Note_off_c, 0, 64, 64
2, 41601, Note_off_c, 0, 72, 64
2, 41602, Note_off_c, 0, 60, 64
2, 41603, Note_off_c, 0, 70, 64
2, 41604, Note_on_c, 0, 53, 63
2, 41646, Note_off_c, 0, 53, 64
2, 41649, Note_on_c, 0, 70, 47
2, 41649, Note_on_c, 0, 72, 50
2, 41650, Note_on_c, 0, 64, 47
2, 41651, Note_on_c, 0, 60, 36
2, 41652, Note_on_c, 0, 52, 59
2, 41693, Note_off_c, 0, 52, 64
2, 41693, Note_off_c, 0, 60, 64
2, 41693, Note_off_c, 0, 64, 64
2, 41693, Note_off_c, 0, 72, 64
2, 41693, Note_off_c, 0, 70, 64
2, 41693, Note_on_c, 0, 49, 63
2, 41740, Note_off_c, 0, 49, 64
2, 41742, Note_on_c, 0, 64, 49
2, 41742, Note_on_c, 0, 70, 50
2, 41743, Note_on_c, 0, 72, 52
2, 41744, Note_on_c, 0, 48, 59
2, 41744, Note_on_c, 0, 60, 36
2, 41788, Note_off_c, 0, 48, 64
2, 41789, Note_off_c, 0, 60, 64
2, 41790, Note_off_c, 0, 64, 64
2, 41790, Note_off_c, 0, 72, 64
2, 41791, Note_off_c, 0, 70, 64
2, 41792, Note_on_c, 0, 46, 67
2, 41833, Note_off_c, 0, 46, 64
2, 41833, Note_on_c, 0, 44, 68
2, 41833, Note_on_c, 0, 60, 34
2, 41833, Note_on_c, 0, 70, 44
2, 41833, Note_on_c, 0, 64, 52
2, 41833, Note_on_c, 0, 72, 52
2, 41880, Note_off_c, 0, 72, 64
2, 41880, Note_off_c, 0, 64, 64
2, 41880, Note_off_c, 0, 70, 64
2, 41880, Note_off_c, 0, 60, 64
2, 41880, Note_off_c, 0, 44, 64
2, 41880, Note_on_c, 0, 43, 67
2, 41928, Note_off_c, 0, 43, 64
2, 41929, Note_on_c, 0, 72, 52
2, 41931, Note_on_c, 0, 63, 55
2, 41932, Note_on_c, 0, 60, 41
2, 41933, Note_on_c, 0, 69, 62
2, 41934, Note_on_c, 0, 30, 80
2, 41934, Note_on_c, 0, 42, 74
2, 41975, Note_off_c, 0, 30, 64
2, 41976, Note_off_c, 0, 69, 64
2, 41977, Note_off_c, 0, 60, 64
2, 41978, Note_off_c, 0, 63, 64
2, 41978, Note_off_c, 0, 72, 64
2, 41979, Note_on_c, 0, 57, 52
2, 42021, Note_off_c, 0, 57, 64
2, 42021, Note_off_c, 0, 42, 64
2, 42021, Note_on_c, 0, 60, 52
2, 42068, Note_off_c, 0, 60, 64
2, 42068, Note_on_c, 0, 63, 58
2, 42113, Note_off_c, 0, 63, 64
2, 42115, Note_on_c, 0, 66, 68
2, 42160, Note_off_c, 0, 66, 64
2, 42164, Note_on_c, 0, 69, 47
2, 42208, Note_off_c, 0, 69, 64
2, 42209, Note_on_c, 0, 72, 44
2, 42254, Note_off_c, 0, 72, 64
2, 42256, Note_on_c, 0, 75, 50
2, 42300, Note_off_c, 0, 75, 64
2, 42303, Note_on_c, 0, 78, 58
2, 42348, Note_off_c, 0, 78, 64
2, 42350, Note_on_c, 0, 81, 50
2, 42396, Note_off_c, 0, 81, 64
2, 42396, Note_on_c, 0, 84, 50
2, 42441, Note_off_c, 0, 84, 64
2, 42445, Note_on_c, 0, 87, 55
2, 42488, Note_off_c, 0, 87, 64
2, 42490, Note_on_c, 0, 90, 68
2, 42536, Note_off_c, 0, 90, 64
2, 42536, Note_on_c, 0, 87, 58
2, 42582, Note_off_c, 0, 87, 64
2, 42582, Note_on_c, 0, 84, 50
2, 42629, Note_off_c, 0, 84, 64
2, 42629, Note_on_c, 0, 81, 50
2, 42676, Note_off_c, 0, 81, 64
2, 42676, Note_on_c, 0, 78, 74
2, 42724, Note_off_c, 0, 78, 64
2, 42725, Note_on_c, 0, 75, 55
2, 42772, Note_off_c, 0, 75, 64
2, 42773, Note_on_c, 0, 72, 52
2, 42819, Note_off_c, 0, 72, 64
2, 42820, Note_on_c, 0, 69, 52
2, 42864, Note_off_c, 0, 69, 64
2, 42864, Note_on_c, 0, 66, 68
2, 42909, Note_off_c, 0, 66, 64
2, 42911, Note_on_c, 0, 63, 55
2, 42956, Note_off_c, 0, 63, 64
2, 42960, Note_on_c, 0, 60, 50
2, 43004, Note_off_c, 0, 60, 64
2, 43006, Note_on_c, 0, 57, 56
2, 43052, Note_off_c, 0, 57, 64
2, 43053, Note_on_c, 0, 54, 58
2, 43097, Note_off_c, 0, 54, 64
2, 43099, Note_on_c, 0, 51, 50
2, 43143, Note_off_c, 0, 51, 64
2, 43147, Note_on_c, 0, 48, 44
2, 43192, Note_off_c, 0, 48, 64
2, 43192, Note_on_c, 0, 45, 41
2, 43237, Note_off_c, 0, 45, 64
2, 43241, Note_on_c, 0, 42, 58
2, 43284, Note_off_c, 0, 42, 64
2, 43286, Note_on_c, 0, 39, 55
2, 43331, Note_off_c, 0, 39, 64
2, 43331, Note_on_c, 0, 36, 41
2, 43380, Note_off_c, 0, 36, 64
2, 43382, Note_on_c, 0, 33, 44
2, 43425, Note_off_c, 0, 33, 64
2, 43425, Note_on_c, 0, 30, 63
2, 43472, Note_off_c, 0, 30, 64
2, 43472, Note_on_c, 0, 33, 36
2, 43520, Note_off_c, 0, 33, 64
2, 43521, Note_on_c, 0, 36, 29
2, 43568, Note_off_c, 0, 36, 64
2, 43568, Note_on_c, 0, 39, 50
2, 43613, Note_off_c, 0, 39, 64
2, 43613, Note_on_c, 0, 30, 58
2, 43660, Note_off_c, 0, 30, 64
2, 43660, Note_on_c, 0, 33, 39
2, 43705, Note_off_c, 0, 33, 64
2, 43707, Note_on_c, 0, 36, 36
2, 43752, Note_off_c, 0, 36, 64
2, 43754, Note_on_c, 0, 39, 50
2, 43800, Note_off_c, 0, 39, 64
2, 43800, Note_on_c, 0, 30, 63
2, 43845, Note_off_c, 0, 30, 64
2, 43849, Note_on_c, 0, 33, 44
2, 43894, Note_off_c, 0, 33, 64
2, 43894, Note_on_c, 0, 36, 32
2, 43940, Note_off_c, 0, 36, 64
2, 43941, Note_on_c, 0, 39, 55
2, 43990, Note_off_c, 0, 39, 64
2, 43991, Note_on_c, 0, 30, 58
2, 44033, Note_off_c, 0, 30, 64
2, 44036, Note_on_c, 0, 33, 50
2, 44080, Note_off_c, 0, 33, 64
2, 44082, Note_on_c, 0, 36, 41
2, 44127, Note_off_c, 0, 36, 64
2, 44127, Note_on_c, 0, 39, 44
2, 44160, Note_off_c, 0, 39, 64
2, 44160, End_track
3, 0, Start_track
3, 0, Title_t, "Right"
3, 44220, Note_on_c, 0, 57, 20
3, 44265, Note_off_c, 0, 57, 64
3, 44280, Note_on_c, 0, 60, 23
3, 44325, Note_off_c, 0, 60, 64
3, 44340, Note_on_c, 0, 63, 30
3, 44385, Note_off_c, 0, 63, 64
3, 44400, Note_on_c, 0, 66, 30
3, 44445, Note_off_c, 0, 66, 64
3, 44460, Note_on_c, 0, 68, 33
3, 44505, Note_off_c, 0, 68, 64
3, 44520, Note_on_c, 0, 66, 28
3, 44565, Note_off_c, 0, 66, 64
3, 44580, Note_on_c, 0, 65, 28
3, 44625, Note_off_c, 0, 65, 64
3, 44640, Note_on_c, 0, 63, 24
3, 44685, Note_off_c, 0, 63, 64
3, 44700, Note_on_c, 0, 65, 28
3, 44745, Note_off_c, 0, 65, 64
3, 44760, Note_on_c, 0, 63, 28
3, 44805, Note_off_c, 0, 63, 64
3, 44820, Note_on_c, 0, 61, 25
3, 44865, Note_off_c, 0, 61, 64
3, 44880, Note_on_c, 0, 60, 23
3, 44925, Note_off_c, 0, 60, 64
3, 44940, Note_on_c, 0, 61, 26
3, 44985, Note_off_c, 0, 61, 64
3, 45000, Note_on_c, 0, 63, 22
3, 45045, Note_off_c, 0, 63, 64
3, 45060, Note_on_c, 0, 60, 24
3, 45105, Note_off_c, 0, 60, 64
3, 45180, Note_on_c, 0, 57, 30
3, 45225, Note_off_c, 0, 57, 64
3, 45240, Note_on_c, 0, 60, 31
3, 45285, Note_off_c, 0, 60, 64
3, 45300, Note_on_c, 0, 63, 34
3, 45345, Note_off_c, 0, 63, 64
3, 45360, Note_on_c, 0, 66, 30
3, 45405, Note_off_c, 0, 66, 64
3, 45420, Note_on_c, 0, 68, 30
3, 45465, Note_off_c, 0, 68, 64
3, 45480, Note_on_c, 0, 66, 28
3, 45525, Note_off_c, 0, 66, 64
3, 45540, Note_on_c, 0, 65, 26
3, 45585, Note_off_c, 0, 65, 64
3, 45600, Note_on_c, 0, 63, 30
3, 45645, Note_off_c, 0, 63, 64
3, 45660, Note_on_c, 0, 65, 28
3, 45705, Note_off_c, 0, 65, 64
3, 45720, Note_on_c, 0, 63, 26
3, 45765, Note_off_c, 0, 63, 64
3, 45780, Note_on_c, 0, 61, 21
3, 45825, Note_off_c, 0, 61, 64
3, 45840, Note_on_c, 0, 60, 28
3, 45885, Note_off_c, 0, 60, 64
3, 45900, Note_on_c, 0, 61, 25
3, 45945, Note_off_c, 0, 61, 64
3, 45960, Note_on_c, 0, 63, 28
3, 46005, Note_off_c, 0, 63, 64
3, 46020, Note_on_c, 0, 60, 28
3, 46065, Note_off_c, 0, 60, 64
3, 46140, Note_on_c, 0, 57, 56
3, 46185, Note_off_c, 0, 57, 64
3, 46200, Note_on_c, 0, 60, 56
3, 46245, Note_off_c, 0, 60, 64
3, 46260, Note_on_c, 0, 63, 50
3, 46305, Note_off_c, 0, 63, 64
3, 46320, Note_on_c, 0, 66, 58
3, 46365, Note_off_c, 0, 66, 64
3, 46380, Note_on_c, 0, 68, 55
3, 46425, Note_off_c, 0, 68, 64
3, 46440, Note_on_c, 0, 66, 55
3, 46485, Note_off_c, 0, 66, 64
3, 46500, Note_on_c, 0, 65, 50
3, 46545, Note_off_c, 0, 65, 64
3, 46560, Note_on_c, 0, 63, 47
3, 46650, Note_off_c, 0, 63, 64
3, 46680, Note_on_c, 0, 63, 44
3, 46725, Note_off_c, 0, 63, 64
3, 46740, Note_on_c, 0, 65, 36
3, 46785, Note_off_c, 0, 65, 64
3, 46800, Note_on_c, 0, 66, 40
3, 46845, Note_off_c, 0, 66, 64
3, 46860, Note_on_c, 0, 68, 40
3, 46905, Note_off_c, 0, 68, 64
3, 46920, Note_on_c, 0, 66, 40
3, 46965, Note_off_c, 0, 66, 64
3, 46980, Note_on_c, 0, 65, 50
3, 47025, Note_off_c, 0, 65, 64
3, 47040, Note_on_c, 0, 63, 68
3, 47130, Note_off_c, 0, 63, 64
3, 47160, Note_on_c, 0, 63, 44
3, 47205, Note_off_c, 0, 63, 64
3, 47220, Note_on_c, 0, 65, 41
3, 47265, Note_off_c, 0, 65, 64
3, 47280, Note_on_c, 0, 66, 50
3, 47325, Note_off_c, 0, 66, 64
3, 47340, Note_on_c, 0, 68, 50
3, 47385, Note_off_c, 0, 68, 64
3, 47400, Note_on_c, 0, 66, 44
3, 47445, Note_off_c, 0, 66, 64
3, 47460, Note_on_c, 0, 65, 50
3, 47505, Note_off_c, 0, 65, 64
3, 47520, Note_on_c, 0, 63, 44
3, 47610, Note_off_c, 0, 63, 64
3, 47640, Note_on_c, 0, 78, 55
3, 47640, Note_on_c, 0, 66, 38
3, 47730, Note_off_c, 0, 66, 64
3, 47730, Note_off_c, 0, 78, 64
3, 47760, Note_on_c, 0, 77, 59
3, 47760, Note_on_c, 0, 65, 56
3, 47850, Note_off_c, 0, 65, 64
3, 47850, Note_off_c, 0, 77, 64
3, 47880, Note_on_c, 0, 81, 52
3, 47880, Note_on_c, 0, 69, 44
3, 47970, Note_off_c, 0, 69, 64
3, 47970, Note_off_c, 0, 81, 64
3, 48000, Note_on_c, 0, 82, 47
3, 48000, Note_on_c, 0, 70, 35
3, 48045, Note_off_c, 0, 70, 64
3, 48045, Note_off_c, 0, 82, 64
3, 48060, Note_on_c, 0, 65, 41
3, 48120, Note_off_c, 0, 65, 64
3, 48120, Note_on_c, 0, 70, 40
3, 48180, Note_off_c, 0, 70, 64
3, 48180, Note_on_c, 0, 73, 47
3, 48240, Note_off_c, 0, 73, 64
3, 48240, Note_on_c, 0, 77, 52
3, 48300, Note_off_c, 0, 77, 64
3, 48300, Note_on_c, 0, 78, 55
3, 48360, Note_off_c, 0, 78, 64
3, 48360, Note_on_c, 0, 77, 52
3, 48420, Note_off_c, 0, 77, 64
3, 48420, Note_on_c, 0, 75, 44
3, 48480, Note_off_c, 0, 75, 64
3, 48480, Note_on_c, 0, 73, 40
3, 48540, Note_off_c, 0, 73, 64
3, 48540, Note_on_c, 0, 75, 44
3, 48600, Note_off_c, 0, 75, 64
3, 48600, Note_on_c, 0, 73, 44
3, 48660, Note_off_c, 0, 73, 64
3, 48660, Note_on_c, 0, 72, 39
3, 48720, Note_off_c, 0, 72, 64
3, 48720, Note_on_c, 0, 70, 40
3, 48780, Note_off_c, 0, 70, 64
3, 48780, Note_on_c, 0, 72, 44
3, 48840, Note_off_c, 0, 72, 64
3, 48840, Note_on_c, 0, 73, 47
3, 48900, Note_off_c, 0, 73, 64
3, 48900, Note_on_c, 0, 70, 35
3, 48960, Note_off_c, 0, 70, 64
3, 49020, Note_on_c, 0, 65, 56
3, 49080, Note_off_c, 0, 65, 64
3, 49080, Note_on_c, 0, 70, 38
3, 49140, Note_off_c, 0, 70, 64
3, 49140, Note_on_c, 0, 73, 47
3, 49200, Note_off_c, 0, 73, 64
3, 49200, Note_on_c, 0, 77, 50
3, 49260, Note_off_c, 0, 77, 64
3, 49260, Note_on_c, 0, 78, 55
3, 49320, Note_off_c, 0, 78, 64
3, 49320, Note_on_c, 0, 77, 50
3, 49380, Note_off_c, 0, 77, 64
3, 49380, Note_on_c, 0, 75, 44
3, 49440, Note_off_c, 0, 75, 64
3, 49440, Note_on_c, 0, 73, 47
3, 49500, Note_off_c, 0, 73, 64
3, 49500, Note_on_c, 0, 75, 44
3, 49560, Note_off_c, 0, 75, 64
3, 49560, Note_on_c, 0, 73, 40
3, 49620, Note_off_c, 0, 73, 64
3, 49620, Note_on_c, 0, 72, 32
3, 49680, Note_off_c, 0, 72, 64
3, 49680, Note_on_c, 0, 70, 38
3, 49740, Note_off_c, 0, 70, 64
3, 49740, Note_on_c, 0, 72, 44
3, 49800, Note_off_c, 0, 72, 64
3, 49800, Note_on_c, 0, 73, 55
3, 49860, Note_off_c, 0, 73, 64
3, 49860, Note_on_c, 0, 70, 32
3, 49920, Note_off_c, 0, 70, 64
3, 49980, Note_on_c, 0, 66, 44
3, 50040, Note_off_c, 0, 66, 64
3, 50040, Note_on_c, 0, 71, 41
3, 50100, Note_off_c, 0, 71, 64
3, 50100, Note_on_c, 0, 75, 55
3, 50160, Note_off_c, 0, 75, 64
3, 50160, Note_on_c, 0, 78, 55
3, 50220, Note_off_c, 0, 78, 64
3, 50220, Note_on_c, 0, 80, 58
3, 50280, Note_off_c, 0, 80, 64
3, 50280, Note_on_c, 0, 78, 50
3, 50340, Note_off_c, 0, 78, 64
3, 50340, Note_on_c, 0, 77, 44
3, 50400, Note_off_c, 0, 77, 64
3, 50400, Note_on_c, 0, 75, 47
3, 50460, Note_off_c, 0, 75, 64
3, 50460, Note_on_c, 0, 77, 50
3, 50520, Note_off_c, 0, 77, 64
3, 50520, Note_on_c, 0, 75, 50
3, 50580, Note_off_c, 0, 75, 64
3, 50580, Note_on_c, 0, 73, 55
3, 50640, Note_off_c, 0, 73, 64
3, 50640, Note_on_c, 0, 71, 21
3, 50700, Note_off_c, 0, 71, 64
3, 50700, Note_on_c, 0, 73, 40
3, 50760, Note_off_c, 0, 73, 64
3, 50760, Note_on_c, 0, 75, 50
3, 50820, Note_off_c, 0, 75, 64
3, 50820, Note_on_c, 0, 71, 36
3, 50880, Note_off_c, 0, 71, 64
3, 50880, Note_on_c, 0, 70, 29
3, 50940, Note_off_c, 0, 70, 64
3, 50940, Note_on_c, 0, 72, 36
3, 51000, Note_off_c, 0, 72, 64
3, 51000, Note_on_c, 0, 70, 40
3, 51060, Note_off_c, 0, 70, 64
3, 51060, Note_on_c, 0, 69, 39
3, 51120, Note_off_c, 0, 69, 64
3, 51120, Note_on_c, 0, 70, 44
3, 51180, Note_off_c, 0, 70, 64
3, 51180, Note_on_c, 0, 72, 50
3, 51240, Note_off_c, 0, 72, 64
3, 51240, Note_on_c, 0, 73, 55
3, 51300, Note_off_c, 0, 73, 64
3, 51300, Note_on_c, 0, 70, 44
3, 51360, Note_off_c, 0, 70, 64
3, 51360, Note_on_c, 0, 69, 47
3, 51420, Note_off_c, 0, 69, 64
3, 51420, Note_on_c, 0, 70, 40
3, 51480, Note_off_c, 0, 70, 64
3, 51480, Note_on_c, 0, 69, 41
3, 51540, Note_off_c, 0, 69, 64
3, 51540, Note_on_c, 0, 67, 36
3, 51600, Note_off_c, 0, 67, 64
3, 51600, Note_on_c, 0, 69, 47
3, 51660, Note_off_c, 0, 69, 64
3, 51660, Note_on_c, 0, 70, 44
3, 51720, Note_off_c, 0, 70, 64
3, 51720, Note_on_c, 0, 72, 44
3, 51780, Note_off_c, 0, 72, 64
3, 51780, Note_on_c, 0, 69, 36
3, 51840, Note_off_c, 0, 69, 64
3, 51840, Note_on_c, 0, 70, 40
3, 51960, Note_off_c, 0, 70, 64
3, 51960, Note_on_c, 0, 70, 40
3, 52020, Note_off_c, 0, 70, 64
3, 52020, Note_on_c, 0, 73, 47
3, 52080, Note_off_c, 0, 73, 64
3, 52080, Note_on_c, 0, 77, 36
3, 52140, Note_off_c, 0, 77, 64
3, 52140, Note_on_c, 0, 78, 44
3, 52200, Note_off_c, 0, 78, 64
3, 52200, Note_on_c, 0, 77, 41
3, 52260, Note_off_c, 0, 77, 64
3, 52260, Note_on_c, 0, 75, 40
3, 52320, Note_off_c, 0, 75, 64
3, 52320, Note_on_c, 0, 73, 47
3, 52380, Note_off_c, 0, 73, 64
3, 52380, Note_on_c, 0, 75, 44
3, 52440, Note_off_c, 0, 75, 64
3, 52440, Note_on_c, 0, 73, 50
3, 52500, Note_off_c, 0, 73, 64
3, 52500, Note_on_c, 0, 72, 50
3, 52560, Note_off_c, 0, 72, 64
3, 52560, Note_on_c, 0, 82, 75
3, 52560, Note_on_c, 0, 70, 44
3, 52620, Note_off_c, 0, 70, 64
3, 52620, Note_on_c, 0, 72, 36
3, 52680, Note_off_c, 0, 72, 64
3, 52680, Note_on_c, 0, 73, 50
3, 52740, Note_off_c, 0, 73, 64
3, 52740, Note_on_c, 0, 70, 47
3, 52800, Note_off_c, 0, 70, 64
3, 52800, Note_off_c, 0, 82, 64
3, 52800, Note_on_c, 0, 81, 75
3, 52920, Note_on_c, 0, 70, 35
3, 52980, Note_off_c, 0, 70, 64
3, 52980, Note_on_c, 0, 73, 44
3, 53040, Note_off_c, 0, 73, 64
3, 53040, Note_off_c, 0, 81, 64
3, 53040, Note_on_c, 0, 82, 75
3, 53040, Note_on_c, 0, 77, 52
3, 53100, Note_off_c, 0, 77, 64
3, 53100, Note_on_c, 0, 78, 55
3, 53160, Note_off_c, 0, 78, 64
3, 53160, Note_on_c, 0, 77, 50
3, 53220, Note_off_c, 0, 77, 64
3, 53220, Note_on_c, 0, 75, 35
3, 53280, Note_off_c, 0, 75, 64
3, 53280, Note_off_c, 0, 82, 64
3, 53280, Note_on_c, 0, 73, 50
3, 53340, Note_off_c, 0, 73, 64
3, 53340, Note_on_c, 0, 75, 38
3, 53400, Note_off_c, 0, 75, 64
3, 53400, Note_on_c, 0, 73, 50
3, 53460, Note_off_c, 0, 73, 64
3, 53460, Note_on_c, 0, 72, 41
3, 53520, Note_off_c, 0, 72, 64
3, 53520, Note_on_c, 0, 82, 75
3, 53520, Note_on_c, 0, 70, 35
3, 53580, Note_off_c, 0, 70, 64
3, 53580, Note_on_c, 0, 72, 36
3, 53640, Note_off_c, 0, 72, 64
3, 53640, Note_on_c, 0, 73, 32
3, 53700, Note_off_c, 0, 73, 64
3, 53700, Note_on_c, 0, 70, 38
3, 53760, Note_off_c, 0, 70, 64
3, 53760, Note_off_c, 0, 82, 64
3, 53760, Note_on_c, 0, 83, 80
3, 53760, Note_on_c, 0, 71, 32
3, 53820, Note_off_c, 0, 71, 64
3, 53820, Note_off_c, 0, 83, 64
3, 53820, Note_on_c, 0, 78, 50
3, 53880, Note_off_c, 0, 78, 64
3, 53880, Note_on_c, 0, 83, 47
3, 53940, Note_off_c, 0, 83, 64
3, 53940, Note_on_c, 0, 87, 58
3, 54000, Note_off_c, 0, 87, 64
3, 54000, Note_on_c, 0, 90, 58
3, 54060, Note_off_c, 0, 90, 64
3, 54060, Note_on_c, 0, 92, 58
3, 54120, Note_off_c, 0, 92, 64
3, 54120, Note_on_c, 0, 90, 58
3, 54180, Note_off_c, 0, 90, 64
3, 54180, Note_on_c, 0, 89, 59
3, 54240, Note_off_c, 0, 89, 64
3, 54240, Note_on_c, 0, 87, 58
3, 54300, Note_off_c, 0, 87, 64
3, 54300, Note_on_c, 0, 89, 47
3, 54360, Note_off_c, 0, 89, 64
3, 54360, Note_on_c, 0, 87, 55
3, 54420, Note_off_c, 0, 87, 64
3, 54420, Note_on_c, 0, 85, 50
3, 54480, Note_off_c, 0, 85, 64
3, 54480, Note_on_c, 0, 83, 52
3, 54540, Note_off_c, 0, 83, 64
3, 54540, Note_on_c, 0, 85, 55
3, 54600, Note_off_c, 0, 85, 64
3, 54600, Note_on_c, 0, 83, 50
3, 54660, Note_off_c, 0, 83, 64
3, 54660, Note_on_c, 0, 82, 55
3, 54720, Note_off_c, 0, 82, 64
3, 54720, Note_on_c, 0, 81, 52
3, 54780, Note_off_c, 0, 81, 64
3, 54780, Note_on_c, 0, 84, 50
3, 54840, Note_off_c, 0, 84, 64
3, 54840, Note_on_c, 0, 87, 58
3, 54900, Note_off_c, 0, 87, 64
3, 54900, Note_on_c, 0, 85, 55
3, 54960, Note_off_c, 0, 85, 64
3, 54960, Note_on_c, 0, 84, 50
3, 55020, Note_off_c, 0, 84, 64
3, 55020, Note_on_c, 0, 85, 55
3, 55080, Note_off_c, 0, 85, 64
3, 55080, Note_on_c, 0, 84, 44
3, 55140, Note_off_c, 0, 84, 64
3, 55140, Note_on_c, 0, 82, 50
3, 55200, Note_off_c, 0, 82, 64
3, 55200, Note_on_c, 0, 81, 50
3, 55260, Note_off_c, 0, 81, 64
3, 55260, Note_on_c, 0, 82, 55
3, 55320, Note_off_c, 0, 82, 64
3, 55320, Note_on_c, 0, 81, 41
3, 55380, Note_off_c, 0, 81, 64
3, 55380, Note_on_c, 0, 78, 44
3, 55440, Note_off_c, 0, 78, 64
3, 55440, Note_on_c, 0, 77, 56
3, 55500, Note_off_c, 0, 77, 64
3, 55500, Note_on_c, 0, 75, 55
3, 55560, Note_off_c, 0, 75, 64
3, 55560, Note_on_c, 0, 73, 40
3, 55620, Note_off_c, 0, 73, 64
3, 55620, Note_on_c, 0, 72, 52
3, 55680, Note_off_c, 0, 72, 64
3, 55680, Note_on_c, 0, 70, 58
3, 55740, Note_off_c, 0, 70, 64
3, 55800, Note_on_c, 0, 77, 70
3, 55920, Note_off_c, 0, 77, 64
3, 56040, Note_on_c, 0, 77, 56
3, 56100, Note_off_c, 0, 77, 64
3, 56160, Note_on_c, 0, 77, 67
3, 56220, Note_off_c, 0, 77, 64
3, 56280, Note_on_c, 0, 78, 68
3, 56400, Note_off_c, 0, 78, 64
3, 56520, Note_on_c, 0, 78, 63
3, 56580, Note_off_c, 0, 78, 64
3, 56640, Note_on_c, 0, 78, 68
3, 56700, Note_off_c, 0, 78, 64
3, 56760, Note_on_c, 0, 77, 75
3, 56880, Note_off_c, 0, 77, 64
3, 57000, Note_on_c, 0, 77, 70
3, 57060, Note_off_c, 0, 77, 64
3, 57120, Note_on_c, 0, 77, 44
3, 57180, Note_off_c, 0, 77, 64
3, 57240, Note_on_c, 0, 72, 31
3, 57300, Note_off_c, 0, 72, 64
3, 57360, Note_on_c, 0, 73, 39
3, 57420, Note_off_c, 0, 73, 64
3, 57480, Note_on_c, 0, 75, 39
3, 57540, Note_off_c, 0, 75, 64
3, 57600, Note_on_c, 0, 73, 63
3, 57660, Note_off_c, 0, 73, 64
3, 57720, Note_on_c, 0, 89, 62
3, 57720, Note_on_c, 0, 77, 56
3, 57840, Note_off_c, 0, 77, 64
3, 57840, Note_off_c, 0, 89, 64
3, 57960, Note_on_c, 0, 89, 62
3, 57960, Note_on_c, 0, 77, 50
3, 58020, Note_off_c, 0, 77, 64
3, 58020, Note_off_c, 0, 89, 64
3, 58080, Note_on_c, 0, 89, 59
3, 58080, Note_on_c, 0, 77, 47
3, 58140, Note_off_c, 0, 77, 64
3, 58140, Note_off_c, 0, 89, 64
3, 58200, Note_on_c, 0, 90, 74
3, 58200, Note_on_c, 0, 78, 58
3, 58320, Note_off_c, 0, 78, 64
3, 58320, Note_off_c, 0, 90, 64
3, 58440, Note_on_c, 0, 90, 68
3, 58440, Note_on_c, 0, 78, 38
3, 58500, Note_off_c, 0, 78, 64
3, 58500, Note_off_c, 0, 90, 64
3, 58560, Note_on_c, 0, 90, 63
3, 58560, Note_on_c, 0, 78, 40
3, 58620, Note_off_c, 0, 78, 64
3, 58620, Note_off_c, 0, 90, 64
3, 58680, Note_on_c, 0, 89, 67
3, 58680, Note_on_c, 0, 77, 52
3, 58800, Note_off_c, 0, 77, 64
3, 58800, Note_off_c, 0, 89, 64
3, 58920, Note_on_c, 0, 89, 59
3, 58920, Note_on_c, 0, 77, 44
3, 58980, Note_off_c, 0, 77, 64
3, 58980, Note_off_c, 0, 89, 64
3, 59040, Note_on_c, 0, 89, 36
3, 59040, Note_on_c, 0, 77, 28
3, 59100, Note_off_c, 0, 77, 64
3, 59100, Note_off_c, 0, 89, 64
3, 59160, Note_on_c, 0, 84, 31
3, 59160, Note_on_c, 0, 72, 26
3, 59220, Note_off_c, 0, 72, 64
3, 59220, Note_off_c, 0, 84, 64
3, 59280, Note_on_c, 0, 85, 40
3, 59280, Note_on_c, 0, 73, 28
3, 59340, Note_off_c, 0, 73, 64
3, 59340, Note_off_c, 0, 85, 64
3, 59400, Note_on_c, 0, 87, 37
3, 59400, Note_on_c, 0, 75, 24
3, 59460, Note_off_c, 0, 75, 64
3, 59460, Note_off_c, 0, 87, 64
3, 59520, Note_on_c, 0, 85, 50
3, 59520, Note_on_c, 0, 73, 38
3, 59580, Note_off_c, 0, 73, 64
3, 59580, Note_off_c, 0, 85, 64
3, 59640, Note_on_c, 0, 72, 62
3, 59760, Note_off_c, 0, 72, 64
3, 59880, Note_on_c, 0, 72, 59
3, 59940, Note_off_c, 0, 72, 64
3, 60000, Note_on_c, 0, 72, 62
3, 60060, Note_off_c, 0, 72, 64
3, 60120, Note_on_c, 0, 71, 59
3, 60240, Note_off_c, 0, 71, 64
3, 60360, Note_on_c, 0, 71, 59
3, 60420, Note_off_c, 0, 71, 64
3, 60480, Note_on_c, 0, 71, 59
3, 60540, Note_off_c, 0, 71, 64
3, 60600, Note_on_c, 0, 72, 67
3, 60720, Note_off_c, 0, 72, 64
3, 60840, Note_on_c, 0, 72, 59
3, 60900, Note_off_c, 0, 72, 64
3, 60960, Note_on_c, 0, 72, 46
3, 61020, Note_off_c, 0, 72, 64
3, 61080, Note_on_c, 0, 67, 42
3, 61140, Note_off_c, 0, 67, 64
3, 61200, Note_on_c, 0, 68, 43
3, 61260, Note_off_c, 0, 68, 64
3, 61320, Note_on_c, 0, 70, 41
3, 61380, Note_off_c, 0, 70, 64
3, 61440, Note_on_c, 0, 68, 63
3, 61500, Note_off_c, 0, 68, 64
3, 61560, Note_on_c, 0, 84, 70
3, 61560, Note_on_c, 0, 72, 59
3, 61680, Note_off_c, 0, 72, 64
3, 61680, Note_off_c, 0, 84, 64
3, 61800, Note_on_c, 0, 84, 67
3, 61800, Note_on_c, 0, 72, 52
3, 61860, Note_off_c, 0, 72, 64
3, 61860, Note_off_c, 0, 84, 64
3, 61920, Note_on_c, 0, 84, 59
3, 61920, Note_on_c, 0, 72, 47
3, 61980, Note_off_c, 0, 72, 64
3, 61980, Note_off_c, 0, 84, 64
3, 62040, Note_on_c, 0, 83, 62
3, 62040, Note_on_c, 0, 71, 52
3, 62160, Note_off_c, 0, 71, 64
3, 62160, Note_off_c, 0, 83, 64
3, 62280, Note_on_c, 0, 83, 62
3, 62280, Note_on_c, 0, 71, 47
3, 62340, Note_off_c, 0, 71, 64
3, 62340, Note_off_c, 0, 83, 64
3, 62400, Note_on_c, 0, 83, 70
3, 62400, Note_on_c, 0, 71, 59
3, 62460, Note_off_c, 0, 71, 64
3, 62460, Note_off_c, 0, 83, 64
3, 62520, Note_on_c, 0, 84, 80
3, 62520, Note_on_c, 0, 72, 70
3, 62640, Note_off_c, 0, 72, 64
3, 62640, Note_off_c, 0, 84, 64
3, 62760, Note_on_c, 0, 84, 70
3, 62760, Note_on_c, 0, 72, 52
3, 62820, Note_off_c, 0, 72, 64
3, 62820, Note_off_c, 0, 84, 64
3, 62880, Note_on_c, 0, 84, 70
3, 62880, Note_on_c, 0, 72, 52
3, 62940, Note_off_c, 0, 72, 64
3, 62940, Note_off_c, 0, 84, 64
3, 63000, Note_on_c, 0, 79, 70
3, 63000, Note_on_c, 0, 67, 56
3, 63060, Note_off_c, 0, 67, 64
3, 63060, Note_off_c, 0, 79, 64
3, 63120, Note_on_c, 0, 80, 68
3, 63120, Note_on_c, 0, 68, 47
3, 63180, Note_off_c, 0, 68, 64
3, 63180, Note_off_c, 0, 80, 64
3, 63240, Note_on_c, 0, 82, 68
3, 63240, Note_on_c, 0, 70, 50
3, 63300, Note_off_c, 0, 70, 64
3, 63300, Note_off_c, 0, 82, 64
3, 63360, Note_on_c, 0, 80, 68
3, 63360, Note_on_c, 0, 68, 55
3, 63405, Note_off_c, 0, 68, 64
3, 63405, Note_off_c, 0, 80, 64
3, 63420, Note_on_c, 0, 60, 41
3, 63465, Note_off_c, 0, 60, 64
3, 63480, Note_on_c, 0, 65, 39
3, 63525, Note_off_c, 0, 65, 64
3, 63540, Note_on_c, 0, 68, 40
3, 63585, Note_off_c, 0, 68, 64
3, 63600, Note_on_c, 0, 72, 56
3, 63645, Note_off_c, 0, 72, 64
3, 63660, Note_on_c, 0, 73, 58
3, 63705, Note_off_c, 0, 73, 64
3, 63720, Note_on_c, 0, 72, 52
3, 63765, Note_off_c, 0, 72, 64
3, 63780, Note_on_c, 0, 70, 44
3, 63825, Note_off_c, 0, 70, 64
3, 63840, Note_on_c, 0, 68, 50
3, 63885, Note_off_c, 0, 68, 64
3, 63900, Note_on_c, 0, 70, 40
3, 63945, Note_off_c, 0, 70, 64
3, 63960, Note_on_c, 0, 68, 55
3, 64005, Note_off_c, 0, 68, 64
3, 64020, Note_on_c, 0, 67, 56
3, 64065, Note_off_c, 0, 67, 64
3, 64080, Note_on_c, 0, 65, 52
3, 64125, Note_off_c, 0, 65, 64
3, 64140, Note_on_c, 0, 67, 39
3, 64185, Note_off_c, 0, 67, 64
3, 64200, Note_on_c, 0, 68, 47
3, 64245, Note_off_c, 0, 68, 64
3, 64260, Note_on_c, 0, 65, 52
3, 64305, Note_off_c, 0, 65, 64
3, 64320, Note_on_c, 0, 66, 50
3, 64365, Note_off_c, 0, 66, 64
3, 64380, Note_on_c, 0, 61, 54
3, 64425, Note_off_c, 0, 61, 64
3, 64440, Note_on_c, 0, 66, 50
3, 64485, Note_off_c, 0, 66, 64
3, 64500, Note_on_c, 0, 70, 47
3, 64545, Note_off_c, 0, 70, 64
3, 64560, Note_on_c, 0, 73, 63
3, 64605, Note_off_c, 0, 73, 64
3, 64620, Note_on_c, 0, 75, 55
3, 64665, Note_off_c, 0, 75, 64
3, 64680, Note_on_c, 0, 73, 55
3, 64725, Note_off_c, 0, 73, 64
3, 64740, Note_on_c, 0, 72, 41
3, 64785, Note_off_c, 0, 72, 64
3, 64800, Note_on_c, 0, 70, 50
3, 64845, Note_off_c, 0, 70, 64
3, 64860, Note_on_c, 0, 72, 44
3, 64905, Note_off_c, 0, 72, 64
3, 64920, Note_on_c, 0, 70, 47
3, 64965, Note_off_c, 0, 70, 64
3, 64980, Note_on_c, 0, 68, 44
3, 65025, Note_off_c, 0, 68, 64
3, 65040, Note_on_c, 0, 66, 44
3, 65085, Note_off_c, 0, 66, 64
3, 65100, Note_on_c, 0, 68, 44
3, 65145, Note_off_c, 0, 68, 64
3, 65160, Note_on_c, 0, 70, 38
3, 65205, Note_off_c, 0, 70, 64
3, 65220, Note_on_c, 0, 66, 47
3, 65265, Note_off_c, 0, 66, 64
3, 65280, Note_on_c, 0, 69, 52
3, 65325, Note_off_c, 0, 69, 64
3, 65340, Note_on_c, 0, 63, 50
3, 65385, Note_off_c, 0, 63, 64
3, 65400, Note_on_c, 0, 69, 50
3, 65445, Note_off_c, 0, 69, 64
3, 65460, Note_on_c, 0, 72, 56
3, 65505, Note_off_c, 0, 72, 64
3, 65520, Note_on_c, 0, 75, 58
3, 65565, Note_off_c, 0, 75, 64
3, 65580, Note_on_c, 0, 77, 56
3, 65625, Note_off_c, 0, 77, 64
3, 65640, Note_on_c, 0, 75, 50
3, 65685, Note_off_c, 0, 75, 64
3, 65700, Note_on_c, 0, 73, 55
3, 65745, Note_off_c, 0, 73, 64
3, 65760, Note_on_c, 0, 72, 56
3, 65805, Note_off_c, 0, 72, 64
3, 65820, Note_on_c, 0, 73, 55
3, 65865, Note_off_c, 0, 73, 64
3, 65880, Note_on_c, 0, 72, 50
3, 65925, Note_off_c, 0, 72, 64
3, 65940, Note_on_c, 0, 70, 47
3, 65985, Note_off_c, 0, 70, 64
3, 66000, Note_on_c, 0, 69, 50
3, 66045, Note_off_c, 0, 69, 64
3, 66060, Note_on_c, 0, 70, 47
3, 66105, Note_off_c, 0, 70, 64
3, 66120, Note_on_c, 0, 72, 52
3, 66165, Note_off_c, 0, 72, 64
3, 66180, Note_on_c, 0, 69, 50
3, 66225, Note_off_c, 0, 69, 64
3, 66240, Note_on_c, 0, 70, 47
3, 66285, Note_off_c, 0, 70, 64
3, 66300, Note_on_c, 0, 65, 47
3, 66345, Note_off_c, 0, 65, 64
3, 66360, Note_on_c, 0, 70, 50
3, 66405, Note_off_c, 0, 70, 64
3, 66420, Note_on_c, 0, 73, 50
3, 66465, Note_off_c, 0, 73, 64
3, 66480, Note_on_c, 0, 77, 62
3, 66525, Note_off_c, 0, 77, 64
3, 66540, Note_on_c, 0, 78, 63
3, 66585, Note_off_c, 0, 78, 64
3, 66600, Note_on_c, 0, 77, 59
3, 66645, Note_off_c, 0, 77, 64
3, 66660, Note_on_c, 0, 75, 58
3, 66705, Note_off_c, 0, 75, 64
3, 66720, Note_on_c, 0, 73, 55
3, 66765, Note_off_c, 0, 73, 64
3, 66780, Note_on_c, 0, 72, 52
3, 66825, Note_off_c, 0, 72, 64
3, 66840, Note_on_c, 0, 70, 50
3, 66885, Note_off_c, 0, 70, 64
3, 66900, Note_on_c, 0, 68, 55
3, 66945, Note_off_c, 0, 68, 64
3, 66960, Note_on_c, 0, 66, 58
3, 67005, Note_off_c, 0, 66, 64
3, 67020, Note_on_c, 0, 65, 59
3, 67065, Note_off_c, 0, 65, 64
3, 67080, Note_on_c, 0, 63, 34
3, 67125, Note_off_c, 0, 63, 64
3, 67140, Note_on_c, 0, 61, 59
3, 67185, Note_off_c, 0, 61, 64
3, 67200, Note_on_c, 0, 60, 52
3, 67245, Note_off_c, 0, 60, 64
3, 67260, Note_on_c, 0, 58, 55
3, 67305, Note_off_c, 0, 58, 64
3, 67320, Note_on_c, 0, 56, 59
3, 67365, Note_off_c, 0, 56, 64
3, 67380, Note_on_c, 0, 54, 55
3, 67425, Note_off_c, 0, 54, 64
3, 67440, Note_on_c, 0, 53, 60
3, 67485, Note_off_c, 0, 53, 64
3, 67500, Note_on_c, 0, 51, 63
3, 67545, Note_off_c, 0, 51, 64
3, 67560, Note_on_c, 0, 49, 63
3, 67605, Note_off_c, 0, 49, 64
3, 67620, Note_on_c, 0, 48, 62
3, 67665, Note_off_c, 0, 48, 64
3, 67680, Note_on_c, 0, 46, 67
3, 67725, Note_off_c, 0, 46, 64
3, 67740, Note_on_c, 0, 48, 62
3, 67785, Note_off_c, 0, 48, 64
3, 67800, Note_on_c, 0, 49, 63
3, 67845, Note_off_c, 0, 49, 64
3, 67860, Note_on_c, 0, 48, 62
3, 67905, Note_off_c, 0, 48, 64
3, 67920, Note_on_c, 0, 46, 78
3, 68010, Note_off_c, 0, 46, 64
3, 68040, Note_on_c, 0, 56, 67
3, 68040, Note_on_c, 0, 50, 62
3, 68040, Note_on_c, 0, 47, 52
3, 68040, Note_on_c, 0, 53, 63
3, 68130, Note_off_c, 0, 53, 64
3, 68130, Note_off_c, 0, 47, 64
3, 68130, Note_off_c, 0, 50, 64
3, 68130, Note_off_c, 0, 56, 64
3, 68160, Note_on_c, 0, 55, 44
3, 68160, Note_on_c, 0, 52, 36
3, 68160, Note_on_c, 0, 48, 15
3, 68205, Note_off_c, 0, 48, 64
3, 68205, Note_off_c, 0, 52, 64
3, 68205, Note_off_c, 0, 55, 64
3, 68220, Note_on_c, 0, 48, 47
3, 68220, Note_on_c, 0, 60, 50
3, 68265, Note_off_c, 0, 60, 64
3, 68265, Note_off_c, 0, 48, 64
3, 68340, Note_on_c, 0, 60, 56
3, 68340, Note_on_c, 0, 48, 41
3, 68385, Note_off_c, 0, 48, 64
3, 68385, Note_off_c, 0, 60, 64
3, 68460, Note_on_c, 0, 60, 56
3, 68460, Note_on_c, 0, 48, 47
3, 68505, Note_off_c, 0, 48, 64
3, 68505, Note_off_c, 0, 60, 64
3, 68580, Note_on_c, 0, 60, 56
3, 68580, Note_on_c, 0, 48, 47
3, 68625, Note_off_c, 0, 48, 64
3, 68625, Note_off_c, 0, 60, 64
3, 68700, Note_on_c, 0, 60, 50
3, 68700, Note_on_c, 0, 48, 29
3, 68745, Note_off_c, 0, 48, 64
3, 68745, Note_off_c, 0, 60, 64
3, 68820, Note_on_c, 0, 60, 47
3, 68820, Note_on_c, 0, 48, 36
3, 68865, Note_off_c, 0, 48, 64
3, 68865, Note_off_c, 0, 60, 64
3, 68940, Note_on_c, 0, 60, 47
3, 68940, Note_on_c, 0, 48, 39
3, 68985, Note_off_c, 0, 48, 64
3, 68985, Note_off_c, 0, 60, 64
3, 69060, Note_on_c, 0, 60, 52
3, 69060, Note_on_c, 0, 48, 47
3, 69105, Note_off_c, 0, 48, 64
3, 69105, Note_off_c, 0, 60, 64
3, 69180, Note_on_c, 0, 72, 62
3, 69180, Note_on_c, 0, 60, 50
3, 69225, Note_off_c, 0, 60, 64
3, 69225, Note_off_c, 0, 72, 64
3, 69300, Note_on_c, 0, 72, 59
3, 69300, Note_on_c, 0, 60, 47
3, 69345, Note_off_c, 0, 60, 64
3, 69345, Note_off_c, 0, 72, 64
3, 69420, Note_on_c, 0, 72, 59
3, 69420, Note_on_c, 0, 60, 41
3, 69465, Note_off_c, 0, 60, 64
3, 69465, Note_off_c, 0, 72, 64
3, 69540, Note_on_c, 0, 72, 59
3, 69540, Note_on_c, 0, 60, 41
3, 69585, Note_off_c, 0, 60, 64
3, 69585, Note_off_c, 0, 72, 64
3, 69660, Note_on_c, 0, 72, 52
3, 69660, Note_on_c, 0, 60, 41
3, 69705, Note_off_c, 0, 60, 64
3, 69705, Note_off_c, 0, 72, 64
3, 69780, Note_on_c, 0, 72, 56
3, 69780, Note_on_c, 0, 60, 44
3, 69825, Note_off_c, 0, 60, 64
3, 69825, Note_off_c, 0, 72, 64
3, 69900, Note_on_c, 0, 72, 50
3, 69900, Note_on_c, 0, 60, 34
3, 69945, Note_off_c, 0, 60, 64
3, 69945, Note_off_c, 0, 72, 64
3, 70020, Note_on_c, 0, 72, 52
3, 70020, Note_on_c, 0, 60, 41
3, 70065, Note_off_c, 0, 60, 64
3, 70065, Note_off_c, 0, 72, 64
3, 70140, Note_on_c, 0, 84, 50
3, 70140, Note_on_c, 0, 72, 42
3, 70185, Note_off_c, 0, 72, 64
3, 70185, Note_off_c, 0, 84, 64
3, 70260, Note_on_c, 0, 84, 58
3, 70260, Note_on_c, 0, 72, 43
3, 70305, Note_off_c, 0, 72, 64
3, 70305, Note_off_c, 0, 84, 64
3, 70380, Note_on_c, 0, 84, 53
3, 70380, Note_on_c, 0, 72, 43
3, 70425, Note_off_c, 0, 72, 64
3, 70425, Note_off_c, 0, 84, 64
3, 70500, Note_on_c, 0, 84, 60
3, 70500, Note_on_c, 0, 72, 50
3, 70545, Note_off_c, 0, 72, 64
3, 70545, Note_off_c, 0, 84, 64
3, 70620, Note_on_c, 0, 84, 58
3, 70620, Note_on_c, 0, 72, 47
3, 70665, Note_off_c, 0, 72, 64
3, 70665, Note_off_c, 0, 84, 64
3, 70740, Note_on_c, 0, 84, 60
3, 70740, Note_on_c, 0, 72, 42
3, 70785, Note_off_c, 0, 72, 64
3, 70785, Note_off_c, 0, 84, 64
3, 70860, Note_on_c, 0, 84, 56
3, 70860, Note_on_c, 0, 72, 44
3, 70905, Note_off_c, 0, 72, 64
3, 70905, Note_off_c, 0, 84, 64
3, 70980, Note_on_c, 0, 72, 51
3, 70980, Note_on_c, 0, 84, 69
3, 71025, Note_off_c, 0, 84, 64
3, 71025, Note_off_c, 0, 72, 64
3, 71100, Note_on_c, 0, 96, 74
3, 71100, Note_on_c, 0, 84, 65
3, 71145, Note_off_c, 0, 84, 64
3, 71145, Note_off_c, 0, 96, 64
3, 71220, Note_on_c, 0, 96, 81
3, 71220, Note_on_c, 0, 84, 64
3, 71265, Note_off_c, 0, 84, 64
3, 71265, Note_off_c, 0, 96, 64
3, 71340, Note_on_c, 0, 96, 75
3, 71340, Note_on_c, 0, 84, 62
3, 71385, Note_off_c, 0, 84, 64
3, 71385, Note_off_c, 0, 96, 64
3, 71460, Note_on_c, 0, 96, 71
3, 71460, Note_on_c, 0, 84, 54
3, 71505, Note_off_c, 0, 84, 64
3, 71505, Note_off_c, 0, 96, 64
3, 71580, Note_on_c, 0, 84, 55
3, 71580, Note_on_c, 0, 96, 66
3, 71625, Note_off_c, 0, 96, 64
3, 71625, Note_off_c, 0, 84, 64
3, 71700, Note_on_c, 0, 96, 81
3, 71700, Note_on_c, 0, 84, 53
3, 71745, Note_off_c, 0, 84, 64
3, 71745, Note_off_c, 0, 96, 64
3, 71820, Note_on_c, 0, 96, 70
3, 71820, Note_on_c, 0, 84, 48
3, 71865, Note_off_c, 0, 84, 64
3, 71865, Note_off_c, 0, 96, 64
3, 71940, Note_on_c, 0, 96, 89
3, 71940, Note_on_c, 0, 84, 79
3, 71985, Note_off_c, 0, 84, 64
3, 71985, Note_off_c, 0, 96, 64
3, 72060, Note_on_c, 0, 49, 50
3, 72120, Note_off_c, 0, 49, 64
3, 72120, Note_on_c, 0, 54, 55
3, 72180, Note_off_c, 0, 54, 64
3, 72180, Note_on_c, 0, 58, 55
3, 72240, Note_off_c, 0, 58, 64
3, 72240, Note_on_c, 0, 61, 62
3, 72360, Note_off_c, 0, 61, 64
3, 72540, Note_on_c, 0, 61, 48
3, 72600, Note_off_c, 0, 61, 64
3, 72600, Note_on_c, 0, 66, 47
3, 72660, Note_off_c, 0, 66, 64
3, 72660, Note_on_c, 0, 70, 50
3, 72720, Note_off_c, 0, 70, 64
3, 72720, Note_on_c, 0, 73, 55
3, 72840, Note_off_c, 0, 73, 64
3, 73020, Note_on_c, 0, 73, 44
3, 73080, Note_off_c, 0, 73, 64
3, 73080, Note_on_c, 0, 78, 55
3, 73140, Note_off_c, 0, 78, 64
3, 73140, Note_on_c, 0, 82, 55
3, 73200, Note_off_c, 0, 82, 64
3, 73200, Note_on_c, 0, 85, 63
3, 73320, Note_off_c, 0, 85, 64
3, 73980, Note_on_c, 0, 52, 41
3, 74040, Note_off_c, 0, 52, 64
3, 74040, Note_on_c, 0, 55, 36
3, 74100, Note_off_c, 0, 55, 64
3, 74100, Note_on_c, 0, 58, 40
3, 74160, Note_off_c, 0, 58, 64
3, 74160, Note_on_c, 0, 64, 44
3, 74280, Note_off_c, 0, 64, 64
3, 74460, Note_on_c, 0, 64, 49
3, 74520, Note_off_c, 0, 64, 64
3, 74520, Note_on_c, 0, 67, 62
3, 74580, Note_off_c, 0, 67, 64
3, 74580, Note_on_c, 0, 70, 63
3, 74640, Note_off_c, 0, 70, 64
3, 74640, Note_on_c, 0, 76, 59
3, 74760, Note_off_c, 0, 76, 64
3, 74940, Note_on_c, 0, 76, 47
3, 75000, Note_off_c, 0, 76, 64
3, 75000, Note_on_c, 0, 79, 67
3, 75060, Note_off_c, 0, 79, 64
3, 75060, Note_on_c, 0, 82, 74
3, 75120, Note_off_c, 0, 82, 64
3, 75128, Note_on_c, 0, 88, 56
3, 75248, Note_off_c, 0, 88, 64
3, 75840, Note_on_c, 0, 37, 58
3, 75920, Note_off_c, 0, 37, 64
3, 75920, Note_on_c, 0, 49, 50
3, 76000, Note_off_c, 0, 49, 64
3, 76000, Note_on_c, 0, 52, 50
3, 76080, Note_off_c, 0, 52, 64
3, 76080, Note_on_c, 0, 55, 50
3, 76140, Note_off_c, 0, 55, 64
3, 76140, Note_on_c, 0, 58, 58
3, 76200, Note_off_c, 0, 58, 64
3, 76200, Note_on_c, 0, 61, 59
3, 76260, Note_off_c, 0, 61, 64
3, 76260, Note_on_c, 0, 64, 58
3, 76320, Note_off_c, 0, 64, 64
3, 76320, Note_on_c, 0, 67, 56
3, 76440, Note_off_c, 0, 67, 64
3, 76800, Note_on_c, 0, 40, 56
3, 76880, Note_off_c, 0, 40, 64
3, 76880, Note_on_c, 0, 52, 59
3, 76960, Note_off_c, 0, 52, 64
3, 76960, Note_on_c, 0, 55, 56
3, 77040, Note_off_c, 0, 55, 64
3, 77040, Note_on_c, 0, 58, 55
3, 77100, Note_off_c, 0, 58, 64
3, 77100, Note_on_c, 0, 61, 59
3, 77160, Note_off_c, 0, 61, 64
3, 77160, Note_on_c, 0, 64, 49
3, 77220, Note_off_c, 0, 64, 64
3, 77220, Note_on_c, 0, 67, 59
3, 77280, Note_off_c, 0, 67, 64
3, 77280, Note_on_c, 0, 70, 63
3, 77400, Note_off_c, 0, 70, 64
3, 77760, Note_on_c, 0, 43, 59
3, 77840, Note_off_c, 0, 43, 64
3, 77840, Note_on_c, 0, 55, 52
3, 77920, Note_off_c, 0, 55, 64
3, 77920, Note_on_c, 0, 58, 63
3, 78000, Note_off_c, 0, 58, 64
3, 78000, Note_on_c, 0, 61, 51
3, 78060, Note_off_c, 0, 61, 64
3, 78060, Note_on_c, 0, 64, 55
3, 78120, Note_off_c, 0, 64, 64
3, 78120, Note_on_c, 0, 67, 56
3, 78180, Note_off_c, 0, 67, 64
3, 78180, Note_on_c, 0, 70, 58
3, 78240, Note_off_c, 0, 70, 64
3, 78240, Note_on_c, 0, 73, 55
3, 78360, Note_off_c, 0, 73, 64
3, 78720, Note_on_c, 0, 46, 59
3, 78800, Note_off_c, 0, 46, 64
3, 78800, Note_on_c, 0, 58, 58
3, 78880, Note_off_c, 0, 58, 64
3, 78880, Note_on_c, 0, 61, 51
3, 78960, Note_off_c, 0, 61, 64
3, 78960, Note_on_c, 0, 64, 52
3, 79020, Note_off_c, 0, 64, 64
3, 79020, Note_on_c, 0, 67, 62
3, 79080, Note_off_c, 0, 67, 64
3, 79080, Note_on_c, 0, 70, 58
3, 79140, Note_off_c, 0, 70, 64
3, 79140, Note_on_c, 0, 73, 68
3, 79200, Note_off_c, 0, 73, 64
3, 79200, Note_on_c, 0, 76, 59
3, 79320, Note_off_c, 0, 76, 64
3, 79680, Note_on_c, 0, 49, 37
3, 79800, Note_off_c, 0, 49, 64
3, 79800, Note_on_c, 0, 52, 32
3, 79920, Note_off_c, 0, 52, 64
3, 79920, Note_on_c, 0, 55, 41
3, 80040, Note_off_c, 0, 55, 64
3, 80040, Note_on_c, 0, 58, 40
3, 80160, Note_off_c, 0, 58, 64
3, 80160, Note_on_c, 0, 61, 40
3, 80280, Note_off_c, 0, 61, 64
3, 80280, Note_on_c, 0, 64, 33
3, 80400, Note_off_c, 0, 64, 64
3, 80400, Note_on_c, 0, 67, 35
3, 80520, Note_off_c, 0, 67, 64
3, 80520, Note_on_c, 0, 70, 44
3, 80640, Note_off_c, 0, 70, 64
3, 80640, Note_on_c, 0, 73, 40
3, 80760, Note_off_c, 0, 73, 64
3, 80760, Note_on_c, 0, 76, 44
3, 80880, Note_off_c, 0, 76, 64
3, 80880, Note_on_c, 0, 79, 37
3, 81000, Note_off_c, 0, 79, 64
3, 81000, Note_on_c, 0, 82, 35
3, 81120, Note_off_c, 0, 82, 64
3, 81120, Note_on_c, 0, 85, 40
3, 81240, Note_off_c, 0, 85, 64
3, 81240, Note_on_c, 0, 88, 41
3, 81360, Note_off_c, 0, 88, 64
3, 81360, Note_on_c, 0, 91, 40
3, 81480, Note_off_c, 0, 91, 64
3, 81480, Note_on_c, 0, 94, 40
3, 81600, Note_off_c, 0, 94, 64
3, 81600, Note_on_c, 0, 91, 41
3, 81720, Note_off_c, 0, 91, 64
3, 81720, Note_on_c, 0, 88, 41
3, 81840, Note_off_c, 0, 88, 64
3, 81840, Note_on_c, 0, 85, 44
3, 81960, Note_off_c, 0, 85, 64
3, 81960, Note_on_c, 0, 82, 40
3, 82080, Note_off_c, 0, 82, 64
3, 82080, Note_on_c, 0, 79, 37
3, 82200, Note_off_c, 0, 79, 64
3, 82200, Note_on_c, 0, 76, 41
3, 82320, Note_off_c, 0, 76, 64
3, 82320, Note_on_c, 0, 73, 44
3, 82440, Note_off_c, 0, 73, 64
3, 82440, Note_on_c, 0, 70, 32
3, 82560, Note_off_c, 0, 70, 64
3, 82560, Note_on_c, 0, 67, 37
3, 82680, Note_off_c, 0, 67, 64
3, 82680, Note_on_c, 0, 64, 35
3, 82800, Note_off_c, 0, 64, 64
3, 82800, Note_on_c, 0, 61, 43
3, 82920, Note_off_c, 0, 61, 64
3, 82920, Note_on_c, 0, 58, 44
3, 83040, Note_off_c, 0, 58, 64
3, 83040, Note_on_c, 0, 55, 40
3, 83160, Note_off_c, 0, 55, 64
3, 83160, Note_on_c, 0, 52, 35
3, 83280, Note_off_c, 0, 52, 64
3, 83280, Note_on_c, 0, 49, 40
3, 83400, Note_off_c, 0, 49, 64
3, 83400, Note_on_c, 0, 46, 38
3, 83520, Note_off_c, 0, 46, 64
3, 83520, Note_on_c, 0, 43, 47
3, 84000, Note_off_c, 0, 43, 64
3, 86400, Note_on_c, 0, 52, 44
3, 86400, Note_on_c, 0, 43, 25
3, 86400, Note_on_c, 0, 46, 48
3, 86400, Note_on_c, 0, 48, 47
3, 86760, Note_off_c, 0, 48, 64
3, 86760, Note_off_c, 0, 46, 64
3, 86760, Note_off_c, 0, 43, 64
3, 86760, Note_off_c, 0, 52, 64
3, 87360, Note_on_c, 0, 64, 47
3, 87360, Note_on_c, 0, 60, 52
3, 87360, Note_on_c, 0, 58, 44
3, 87360, Note_on_c, 0, 55, 32
3, 87720, Note_off_c, 0, 55, 64
3, 87720, Note_off_c, 0, 58, 64
3, 87720, Note_off_c, 0, 60, 64
3, 87720, Note_off_c, 0, 64, 64
3, 87840, Note_on_c, 0, 76, 59
3, 87840, Note_on_c, 0, 72, 59
3, 87840, Note_on_c, 0, 67, 44
3, 87840, Note_on_c, 0, 70, 55
3, 88200, Note_off_c, 0, 70, 64
3, 88200, Note_off_c, 0, 67, 64
3, 88200, Note_off_c, 0, 72, 64
3, 88200, Note_off_c, 0, 76, 64
3, 88320, Note_on_c, 0, 88, 70
3, 88320, Note_on_c, 0, 79, 56
3, 88320, Note_on_c, 0, 82, 58
3, 88320, Note_on_c, 0, 84, 59
3, 88680, Note_off_c, 0, 84, 64
3, 88680, Note_off_c, 0, 82, 64
3, 88680, Note_off_c, 0, 79, 64
3, 88680, Note_off_c, 0, 88, 64
3, 88800, Note_on_c, 0, 52, 50
3, 88800, Note_on_c, 0, 46, 48
3, 88800, Note_on_c, 0, 43, 31
3, 88800, Note_on_c, 0, 48, 47
3, 89160, Note_off_c, 0, 48, 64
3, 89160, Note_off_c, 0, 43, 64
3, 89160, Note_off_c, 0, 46, 64
3, 89160, Note_off_c, 0, 52, 64
3, 89340, Note_on_c, 0, 48, 15
3, 89385, Note_off_c, 0, 48, 64
3, 89400, Note_on_c, 0, 53, 21
3, 89445, Note_off_c, 0, 53, 64
3, 89460, Note_on_c, 0, 56, 28
3, 89505, Note_off_c, 0, 56, 64
3, 89520, Note_on_c, 0, 60, 26
3, 89565, Note_off_c, 0, 60, 64
3, 89580, Note_on_c, 0, 61, 30
3, 89625, Note_off_c, 0, 61, 64
3, 89640, Note_on_c, 0, 60, 30
3, 89685, Note_off_c, 0, 60, 64
3, 89700, Note_on_c, 0, 58, 28
3, 89745, Note_off_c, 0, 58, 64
3, 89760, Note_on_c, 0, 56, 25
3, 89805, Note_off_c, 0, 56, 64
3, 89820, Note_on_c, 0, 58, 17
3, 89865, Note_off_c, 0, 58, 64
3, 89880, Note_on_c, 0, 56, 30
3, 89925, Note_off_c, 0, 56, 64
3, 89940, Note_on_c, 0, 55, 20
3, 89985, Note_off_c, 0, 55, 64
3, 90000, Note_on_c, 0, 53, 28
3, 90045, Note_off_c, 0, 53, 64
3, 90060, Note_on_c, 0, 55, 20
3, 90105, Note_off_c, 0, 55, 64
3, 90120, Note_on_c, 0, 56, 26
3, 90165, Note_off_c, 0, 56, 64
3, 90180, Note_on_c, 0, 53, 13
3, 90225, Note_off_c, 0, 53, 64
3, 90300, Note_on_c, 0, 48, 18
3, 90345, Note_off_c, 0, 48, 64
3, 90360, Note_on_c, 0, 53, 21
3, 90405, Note_off_c, 0, 53, 64
3, 90420, Note_on_c, 0, 56, 21
3, 90465, Note_off_c, 0, 56, 64
3, 90480, Note_on_c, 0, 60, 21
3, 90525, Note_off_c, 0, 60, 64
3, 90540, Note_on_c, 0, 61, 28
3, 90585, Note_off_c, 0, 61, 64
3, 90600, Note_on_c, 0, 60, 28
3, 90645, Note_off_c, 0, 60, 64
3, 90660, Note_on_c, 0, 58, 28
3, 90705, Note_off_c, 0, 58, 64
3, 90720, Note_on_c, 0, 56, 32
3, 90765, Note_off_c, 0, 56, 64
3, 90780, Note_on_c, 0, 58, 26
3, 90825, Note_off_c, 0, 58, 64
3, 90840, Note_on_c, 0, 56, 28
3, 90885, Note_off_c, 0, 56, 64
3, 90900, Note_on_c, 0, 55, 24
3, 90945, Note_off_c, 0, 55, 64
3, 90960, Note_on_c, 0, 53, 28
3, 91005, Note_off_c, 0, 53, 64
3, 91020, Note_on_c, 0, 55, 23
3, 91065, Note_off_c, 0, 55, 64
3, 91080, Note_on_c, 0, 56, 32
3, 91125, Note_off_c, 0, 56, 64
3, 91140, Note_on_c, 0, 53, 21
3, 91185, Note_off_c, 0, 53, 64
3, 91260, Note_on_c, 0, 49, 22
3, 91305, Note_off_c, 0, 49, 64
3, 91320, Note_on_c, 0, 54, 21
3, 91365, Note_off_c, 0, 54, 64
3, 91380, Note_on_c, 0, 58, 16
3, 91425, Note_off_c, 0, 58, 64
3, 91440, Note_on_c, 0, 61, 26
3, 91485, Note_off_c, 0, 61, 64
3, 91500, Note_on_c, 0, 63, 34
3, 91545, Note_off_c, 0, 63, 64
3, 91560, Note_on_c, 0, 61, 23
3, 91605, Note_off_c, 0, 61, 64
3, 91620, Note_on_c, 0, 60, 23
3, 91665, Note_off_c, 0, 60, 64
3, 91680, Note_on_c, 0, 58, 28
3, 91725, Note_off_c, 0, 58, 64
3, 91740, Note_on_c, 0, 60, 21
3, 91785, Note_off_c, 0, 60, 64
3, 91800, Note_on_c, 0, 58, 26
3, 91845, Note_off_c, 0, 58, 64
3, 91860, Note_on_c, 0, 56, 19
3, 91905, Note_off_c, 0, 56, 64
3, 91920, Note_on_c, 0, 54, 28
3, 91965, Note_off_c, 0, 54, 64
3, 91980, Note_on_c, 0, 56, 26
3, 92025, Note_off_c, 0, 56, 64
3, 92040, Note_on_c, 0, 54, 21
3, 92085, Note_off_c, 0, 54, 64
3, 92100, Note_on_c, 0, 53, 25
3, 92145, Note_off_c, 0, 53, 64
3, 92160, Note_on_c, 0, 52, 31
3, 92205, Note_off_c, 0, 52, 64
3, 92220, Note_on_c, 0, 53, 32
3, 92265, Note_off_c, 0, 53, 64
3, 92280, Note_on_c, 0, 55, 26
3, 92325, Note_off_c, 0, 55, 64
3, 92340, Note_on_c, 0, 52, 30
3, 92385, Note_off_c, 0, 52, 64
3, 92400, Note_on_c, 0, 53, 32
3, 92445, Note_off_c, 0, 53, 64
3, 92460, Note_on_c, 0, 55, 33
3, 92505, Note_off_c, 0, 55, 64
3, 92520, Note_on_c, 0, 56, 37
3, 92565, Note_off_c, 0, 56, 64
3, 92580, Note_on_c, 0, 53, 33
3, 92625, Note_off_c, 0, 53, 64
3, 92640, Note_on_c, 0, 55, 47
3, 92685, Note_off_c, 0, 55, 64
3, 92700, Note_on_c, 0, 56, 54
3, 92745, Note_off_c, 0, 56, 64
3, 92760, Note_on_c, 0, 58, 50
3, 92805, Note_off_c, 0, 58, 64
3, 92820, Note_on_c, 0, 55, 44
3, 92865, Note_off_c, 0, 55, 64
3, 92880, Note_on_c, 0, 52, 52
3, 92925, Note_off_c, 0, 52, 64
3, 92940, Note_on_c, 0, 53, 48
3, 92985, Note_off_c, 0, 53, 64
3, 93000, Note_on_c, 0, 55, 47
3, 93045, Note_off_c, 0, 55, 64
3, 93060, Note_on_c, 0, 52, 52
3, 93105, Note_off_c, 0, 52, 64
3, 93120, Note_on_c, 0, 53, 30
3, 93300, Note_off_c, 0, 53, 64
3, 93480, Note_on_c, 0, 64, 39
3, 93540, Note_off_c, 0, 64, 64
3, 93600, Note_on_c, 0, 65, 47
3, 93660, Note_off_c, 0, 65, 64
3, 93720, Note_on_c, 0, 67, 50
3, 93780, Note_off_c, 0, 67, 64
3, 93840, Note_on_c, 0, 68, 58
3, 93900, Note_off_c, 0, 68, 64
3, 93960, Note_on_c, 0, 65, 41
3, 94020, Note_off_c, 0, 65, 64
3, 94440, Note_on_c, 0, 76, 56
3, 94440, Note_on_c, 0, 64, 39
3, 94500, Note_off_c, 0, 64, 64
3, 94500, Note_off_c, 0, 76, 64
3, 94560, Note_on_c, 0, 77, 59
3, 94560, Note_on_c, 0, 65, 41
3, 94620, Note_off_c, 0, 65, 64
3, 94620, Note_off_c, 0, 77, 64
3, 94680, Note_on_c, 0, 79, 59
3, 94680, Note_on_c, 0, 67, 47
3, 94740, Note_off_c, 0, 67, 64
3, 94740, Note_off_c, 0, 79, 64
3, 94800, Note_on_c, 0, 80, 58
3, 94800, Note_on_c, 0, 68, 44
3, 94860, Note_off_c, 0, 68, 64
3, 94860, Note_off_c, 0, 80, 64
3, 94920, Note_on_c, 0, 77, 44
3, 94920, Note_on_c, 0, 65, 26
3, 94980, Note_off_c, 0, 65, 64
3, 94980, Note_off_c, 0, 77, 64
3, 95400, Note_on_c, 0, 77, 50
3, 95400, Note_on_c, 0, 65, 36
3, 95460, Note_off_c, 0, 65, 64
3, 95460, Note_off_c, 0, 77, 64
3, 95520, Note_on_c, 0, 78, 63
3, 95520, Note_on_c, 0, 66, 40
3, 95580, Note_off_c, 0, 66, 64
3, 95580, Note_off_c, 0, 78, 64
3, 95640, Note_on_c, 0, 82, 63
3, 95640, Note_on_c, 0, 70, 47
3, 95700, Note_off_c, 0, 70, 64
3, 95700, Note_off_c, 0, 82, 64
3, 95760, Note_on_c, 0, 85, 63
3, 95760, Note_on_c, 0, 73, 35
3, 95820, Note_off_c, 0, 73, 64
3, 95820, Note_off_c, 0, 85, 64
3, 95880, Note_on_c, 0, 85, 63
3, 95880, Note_on_c, 0, 73, 44
3, 95940, Note_off_c, 0, 73, 64
3, 95940, Note_off_c, 0, 85, 64
3, 96000, Note_on_c, 0, 85, 74
3, 96000, Note_on_c, 0, 73, 68
3, 96120, Note_off_c, 0, 73, 64
3, 96120, Note_off_c, 0, 85, 64
3, 96240, Note_on_c, 0, 84, 59
3, 96240, Note_on_c, 0, 72, 50
3, 96480, Note_off_c, 0, 72, 64
3, 96480, Note_off_c, 0, 84, 64
3, 96720, Note_on_c, 0, 76, 59
3, 96720, Note_on_c, 0, 64, 47
3, 96840, Note_off_c, 0, 64, 64
3, 96840, Note_off_c, 0, 76, 64
3, 96960, Note_on_c, 0, 77, 47
3, 96960, Note_on_c, 0, 65, 41
3, 97020, Note_off_c, 0, 65, 64
3, 97020, Note_off_c, 0, 77, 64
3, 97020, Note_on_c, 0, 60, 41
3, 97080, Note_off_c, 0, 60, 64
3, 97080, Note_on_c, 0, 65, 39
3, 97140, Note_off_c, 0, 65, 64
3, 97140, Note_on_c, 0, 68, 38
3, 97200, Note_off_c, 0, 68, 64
3, 97200, Note_on_c, 0, 72, 59
3, 97260, Note_off_c, 0, 72, 64
3, 97260, Note_on_c, 0, 60, 10
3, 97320, Note_off_c, 0, 60, 64
3, 97320, Note_on_c, 0, 65, 36
3, 97380, Note_off_c, 0, 65, 64
3, 97380, Note_on_c, 0, 68, 35
3, 97440, Note_off_c, 0, 68, 64
3, 97500, Note_on_c, 0, 60, 47
3, 97560, Note_off_c, 0, 60, 64
3, 97560, Note_on_c, 0, 65, 44
3, 97620, Note_off_c, 0, 65, 64
3, 97620, Note_on_c, 0, 68, 40
3, 97680, Note_off_c, 0, 68, 64
3, 97680, Note_on_c, 0, 72, 59
3, 97740, Note_off_c, 0, 72, 64
3, 97740, Note_on_c, 0, 60, 23
3, 97800, Note_off_c, 0, 60, 64
3, 97800, Note_on_c, 0, 65, 44
3, 97860, Note_off_c, 0, 65, 64
3, 97860, Note_on_c, 0, 68, 32
3, 97920, Note_off_c, 0, 68, 64
3, 97980, Note_on_c, 0, 59, 43
3, 98040, Note_off_c, 0, 59, 64
3, 98040, Note_on_c, 0, 62, 36
3, 98100, Note_off_c, 0, 62, 64
3, 98100, Note_on_c, 0, 68, 50
3, 98160, Note_off_c, 0, 68, 64
3, 98160, Note_on_c, 0, 71, 59
3, 98220, Note_off_c, 0, 71, 64
3, 98220, Note_on_c, 0, 59, 45
3, 98280, Note_off_c, 0, 59, 64
3, 98280, Note_on_c, 0, 62, 50
3, 98340, Note_off_c, 0, 62, 64
3, 98340, Note_on_c, 0, 68, 47
3, 98400, Note_off_c, 0, 68, 64
3, 98400, Note_on_c, 0, 71, 59
3, 98460, Note_off_c, 0, 71, 64
3, 98460, Note_on_c, 0, 59, 19
3, 98520, Note_off_c, 0, 59, 64
3, 98520, Note_on_c, 0, 64, 31
3, 98580, Note_off_c, 0, 64, 64
3, 98580, Note_on_c, 0, 67, 34
3, 98640, Note_off_c, 0, 67, 64
3, 98640, Note_on_c, 0, 72, 62
3, 98700, Note_off_c, 0, 72, 64
3, 98700, Note_on_c, 0, 60, 47
3, 98760, Note_off_c, 0, 60, 64
3, 98760, Note_on_c, 0, 64, 42
3, 98820, Note_off_c, 0, 64, 64
3, 98820, Note_on_c, 0, 67, 36
3, 98880, Note_off_c, 0, 67, 64
3, 98940, Note_on_c, 0, 60, 44
3, 99000, Note_off_c, 0, 60, 64
3, 99000, Note_on_c, 0, 64, 42
3, 99060, Note_off_c, 0, 64, 64
3, 99060, Note_on_c, 0, 67, 44
3, 99120, Note_off_c, 0, 67, 64
3, 99120, Note_on_c, 0, 72, 56
3, 99180, Note_off_c, 0, 72, 64
3, 99180, Note_on_c, 0, 60, 47
3, 99240, Note_off_c, 0, 60, 64
3, 99240, Note_on_c, 0, 64, 47
3, 99300, Note_off_c, 0, 64, 64
3, 99300, Note_on_c, 0, 67, 41
3, 99360, Note_off_c, 0, 67, 64
3, 99420, Note_on_c, 0, 60, 36
3, 99480, Note_off_c, 0, 60, 64
3, 99480, Note_on_c, 0, 64, 42
3, 99540, Note_off_c, 0, 64, 64
3, 99540, Note_on_c, 0, 67, 52
3, 99600, Note_off_c, 0, 67, 64
3, 99600, Note_on_c, 0, 72, 62
3, 99660, Note_off_c, 0, 72, 64
3, 99660, Note_on_c, 0, 60, 32
3, 99720, Note_off_c, 0, 60, 64
3, 99720, Note_on_c, 0, 64, 42
3, 99780, Note_off_c, 0, 64, 64
3, 99780, Note_on_c, 0, 67, 36
3, 99840, Note_off_c, 0, 67, 64
3, 99900, Note_on_c, 0, 60, 50
3, 99960, Note_off_c, 0, 60, 64
3, 99960, Note_on_c, 0, 64, 52
3, 100020, Note_off_c, 0, 64, 64
3, 100020, Note_on_c, 0, 67, 56
3, 100080, Note_off_c, 0, 67, 64
3, 100080, Note_on_c, 0, 72, 59
3, 100140, Note_off_c, 0, 72, 64
3, 100140, Note_on_c, 0, 60, 41
3, 100200, Note_off_c, 0, 60, 64
3, 100200, Note_on_c, 0, 64, 42
3, 100260, Note_off_c, 0, 64, 64
3, 100260, Note_on_c, 0, 67, 29
3, 100320, Note_off_c, 0, 67, 64
3, 100320, Note_on_c, 0, 72, 52
3, 100380, Note_off_c, 0, 72, 64
3, 100380, Note_on_c, 0, 60, 41
3, 100440, Note_off_c, 0, 60, 64
3, 100440, Note_on_c, 0, 64, 44
3, 100500, Note_off_c, 0, 64, 64
3, 100500, Note_on_c, 0, 67, 41
3, 100560, Note_off_c, 0, 67, 64
3, 100560, Note_on_c, 0, 72, 59
3, 100620, Note_off_c, 0, 72, 64
3, 100620, Note_on_c, 0, 60, 47
3, 100680, Note_off_c, 0, 60, 64
3, 100680, Note_on_c, 0, 65, 56
3, 100740, Note_off_c, 0, 65, 64
3, 100740, Note_on_c, 0, 68, 55
3, 100800, Note_off_c, 0, 68, 64
3, 100860, Note_on_c, 0, 65, 47
3, 100920, Note_off_c, 0, 65, 64
3, 100920, Note_on_c, 0, 69, 50
3, 100980, Note_off_c, 0, 69, 64
3, 100980, Note_on_c, 0, 72, 59
3, 101040, Note_off_c, 0, 72, 64
3, 101040, Note_on_c, 0, 77, 62
3, 101100, Note_off_c, 0, 77, 64
3, 101100, Note_on_c, 0, 65, 52
3, 101160, Note_off_c, 0, 65, 64
3, 101160, Note_on_c, 0, 69, 56
3, 101220, Note_off_c, 0, 69, 64
3, 101220, Note_on_c, 0, 72, 47
3, 101280, Note_off_c, 0, 72, 64
3, 101340, Note_on_c, 0, 65, 56
3, 101400, Note_off_c, 0, 65, 64
3, 101400, Note_on_c, 0, 69, 62
3, 101460, Note_off_c, 0, 69, 64
3, 101460, Note_on_c, 0, 72, 56
3, 101520, Note_off_c, 0, 72, 64
3, 101520, Note_on_c, 0, 77, 59
3, 101580, Note_off_c, 0, 77, 64
3, 101580, Note_on_c, 0, 65, 59
3, 101640, Note_off_c, 0, 65, 64
3, 101640, Note_on_c, 0, 69, 62
3, 101700, Note_off_c, 0, 69, 64
3, 101700, Note_on_c, 0, 72, 59
3, 101760, Note_off_c, 0, 72, 64
3, 101820, Note_on_c, 0, 65, 59
3, 101880, Note_off_c, 0, 65, 64
3, 101880, Note_on_c, 0, 69, 59
3, 101940, Note_off_c, 0, 69, 64
3, 101940, Note_on_c, 0, 72, 59
3, 102000, Note_off_c, 0, 72, 64
3, 102000, Note_on_c, 0, 77, 62
3, 102060, Note_off_c, 0, 77, 64
3, 102060, Note_on_c, 0, 65, 59
3, 102120, Note_off_c, 0, 65, 64
3, 102120, Note_on_c, 0, 69, 59
3, 102180, Note_off_c, 0, 69, 64
3, 102180, Note_on_c, 0, 72, 56
3, 102240, Note_off_c, 0, 72, 64
3, 102240, Note_on_c, 0, 65, 39
3, 102240, Note_on_c, 0, 69, 44
3, 102300, Note_off_c, 0, 69, 64
3, 102300, Note_off_c, 0, 65, 64
3, 102300, Note_on_c, 0, 77, 56
3, 102360, Note_off_c, 0, 77, 64
3, 102360, Note_on_c, 0, 65, 52
3, 102360, Note_on_c, 0, 70, 55
3, 102420, Note_off_c, 0, 70, 64
3, 102420, Note_off_c, 0, 65, 64
3, 102420, Note_on_c, 0, 77, 59
3, 102480, Note_off_c, 0, 77, 64
3, 102480, Note_on_c, 0, 72, 59
3, 102480, Note_on_c, 0, 65, 41
3, 102540, Note_off_c, 0, 65, 64
3, 102540, Note_off_c, 0, 72, 64
3, 102540, Note_on_c, 0, 77, 47
3, 102600, Note_off_c, 0, 77, 64
3, 102600, Note_on_c, 0, 65, 34
3, 102600, Note_on_c, 0, 73, 58
3, 102660, Note_off_c, 0, 73, 64
3, 102660, Note_off_c, 0, 65, 64
3, 102660, Note_on_c, 0, 77, 52
3, 102720, Note_off_c, 0, 77, 64
3, 102780, Note_on_c, 0, 60, 44
3, 102840, Note_off_c, 0, 60, 64
3, 102840, Note_on_c, 0, 65, 50
3, 102900, Note_off_c, 0, 65, 64
3, 102900, Note_on_c, 0, 68, 58
3, 102960, Note_off_c, 0, 68, 64
3, 102960, Note_on_c, 0, 72, 62
3, 103020, Note_off_c, 0, 72, 64
3, 103020, Note_on_c, 0, 60, 50
3, 103080, Note_off_c, 0, 60, 64
3, 103080, Note_on_c, 0, 65, 50
3, 103140, Note_off_c, 0, 65, 64
3, 103140, Note_on_c, 0, 68, 38
3, 103200, Note_off_c, 0, 68, 64
3, 103200, Note_on_c, 0, 72, 62
3, 103260, Note_off_c, 0, 72, 64
3, 103260, Note_on_c, 0, 60, 47
3, 103320, Note_off_c, 0, 60, 64
3, 103320, Note_on_c, 0, 67, 56
3, 103380, Note_off_c, 0, 67, 64
3, 103380, Note_on_c, 0, 70, 55
3, 103440, Note_off_c, 0, 70, 64
3, 103440, Note_on_c, 0, 72, 59
3, 103500, Note_off_c, 0, 72, 64
3, 103500, Note_on_c, 0, 60, 52
3, 103560, Note_off_c, 0, 60, 64
3, 103560, Note_on_c, 0, 64, 55
3, 103620, Note_off_c, 0, 64, 64
3, 103620, Note_on_c, 0, 67, 50
3, 103680, Note_off_c, 0, 67, 64
3, 103680, Note_on_c, 0, 72, 52
3, 103680, Note_on_c, 0, 68, 50
3, 103680, Note_on_c, 0, 60, 39
3, 103680, Note_on_c, 0, 65, 44
3, 103920, Note_off_c, 0, 65, 64
3, 103920, Note_off_c, 0, 60, 64
3, 103920, Note_off_c, 0, 68, 64
3, 103920, Note_off_c, 0, 72, 64
3, 104100, Note_on_c, 0, 80, 55
3, 104100, Note_on_c, 0, 77, 39
3, 104160, Note_off_c, 0, 77, 64
3, 104160, Note_off_c, 0, 80, 64
3, 104160, Note_on_c, 0, 77, 70
3, 104160, Note_on_c, 0, 80, 68
3, 104400, Note_off_c, 0, 80, 64
3, 104400, Note_off_c, 0, 77, 64
3, 104580, Note_on_c, 0, 80, 58
3, 104580, Note_on_c, 0, 77, 39
3, 104640, Note_off_c, 0, 77, 64
3, 104640, Note_off_c, 0, 80, 64
3, 104640, Note_on_c, 0, 77, 75
3, 104640, Note_on_c, 0, 80, 74
3, 105120, Note_off_c, 0, 80, 64
3, 105120, Note_off_c, 0, 77, 64
3, 105120, Note_on_c, 0, 79, 52
3, 105120, Note_on_c, 0, 76, 36
3, 105240, Note_off_c, 0, 76, 64
3, 105240, Note_off_c, 0, 79, 64
3, 106020, Note_on_c, 0, 79, 44
3, 106020, Note_on_c, 0, 82, 55
3, 106080, Note_off_c, 0, 82, 64
3, 106080, Note_off_c, 0, 79, 64
3, 106080, Note_on_c, 0, 79, 67
3, 106080, Note_on_c, 0, 82, 74
3, 106320, Note_off_c, 0, 82, 64
3, 106320, Note_off_c, 0, 79, 64
3, 106500, Note_on_c, 0, 79, 56
3, 106500, Note_on_c, 0, 82, 58
3, 106560, Note_off_c, 0, 82, 64
3, 106560, Note_off_c, 0, 79, 64
3, 106560, Note_on_c, 0, 79, 75
3, 106560, Note_on_c, 0, 82, 80
3, 107040, Note_off_c, 0, 82, 64
3, 107040, Note_off_c, 0, 79, 64
3, 107040, Note_on_c, 0, 80, 55
3, 107040, Note_on_c, 0, 77, 32
3, 107160, Note_off_c, 0, 77, 64
3, 107160, Note_off_c, 0, 80, 64
3, 107940, Note_on_c, 0, 87, 74
3, 107940, Note_on_c, 0, 84, 62
3, 108000, Note_off_c, 0, 84, 64
3, 108000, Note_off_c, 0, 87, 64
3, 108000, Note_on_c, 0, 84, 67
3, 108000, Note_on_c, 0, 87, 74
3, 108240, Note_off_c, 0, 87, 64
3, 108240, Note_off_c, 0, 84, 64
3, 108420, Note_on_c, 0, 84, 59
3, 108420, Note_on_c, 0, 87, 68
3, 108480, Note_off_c, 0, 87, 64
3, 108480, Note_off_c, 0, 84, 64
3, 108480, Note_on_c, 0, 87, 74
3, 108480, Note_on_c, 0, 84, 70
3, 109032, Note_off_c, 0, 84, 64
3, 109032, Note_off_c, 0, 87, 64
3, 109080, Note_on_c, 0, 82, 47
3, 109080, Note_on_c, 0, 85, 58
3, 109200, Note_off_c, 0, 85, 64
3, 109200, Note_off_c, 0, 82, 64
3, 109200, Note_on_c, 0, 84, 47
3, 109200, Note_on_c, 0, 80, 40
3, 109320, Note_off_c, 0, 80, 64
3, 109320, Note_off_c, 0, 84, 64
3, 109320, Note_on_c, 0, 82, 47
3, 109320, Note_on_c, 0, 79, 39
3, 109440, Note_off_c, 0, 79, 64
3, 109440, Note_off_c, 0, 82, 64
3, 109440, Note_on_c, 0, 80, 58
3, 109440, Note_on_c, 0, 77, 50
3, 109680, Note_off_c, 0, 77, 64
3, 109680, Note_off_c, 0, 80, 64
3, 109860, Note_on_c, 0, 77, 44
3, 109860, Note_on_c, 0, 89, 56
3, 109860, Note_on_c, 0, 80, 55
3, 109920, Note_off_c, 0, 80, 64
3, 109920, Note_off_c, 0, 89, 64
3, 109920, Note_off_c, 0, 77, 64
3, 109920, Note_on_c, 0, 82, 58
3, 109920, Note_on_c, 0, 79, 47
3, 109920, Note_on_c, 0, 91, 62
3, 110160, Note_off_c, 0, 91, 64
3, 110160, Note_off_c, 0, 79, 64
3, 110160, Note_off_c, 0, 82, 64
3, 110340, Note_on_c, 0, 79, 52
3, 110340, Note_on_c, 0, 88, 56
3, 110340, Note_on_c, 0, 76, 39
3, 110400, Note_off_c, 0, 76, 64
3, 110400, Note_off_c, 0, 88, 64
3, 110400, Note_off_c, 0, 79, 64
3, 110400, Note_on_c, 0, 53, 30
3, 110400, Note_on_c, 0, 53, 43
3, 110400, Note_on_c, 0, 89, 44
3, 110400, Note_on_c, 0, 80, 35
3, 110400, Note_on_c, 0, 77, 20
3, 110445, Note_off_c, 0, 77, 64
3, 110445, Note_off_c, 0, 80, 64
3, 110445, Note_off_c, 0, 89, 64
3, 110445, Note_off_c, 0, 53, 64
3, 110445, Note_off_c, 0, 53, 64
3, 110460, Note_on_c, 0, 72, 41
3, 110505, Note_off_c, 0, 72, 64
3, 110520, Note_on_c, 0, 77, 32
3, 110565, Note_off_c, 0, 77, 64
3, 110580, Note_on_c, 0, 80, 37
3, 110625, Note_off_c, 0, 80, 64
3, 110640, Note_on_c, 0, 84, 47
3, 110685, Note_off_c, 0, 84, 64
3, 110700, Note_on_c, 0, 85, 50
3, 110745, Note_off_c, 0, 85, 64
3, 110760, Note_on_c, 0, 84, 40
3, 110805, Note_off_c, 0, 84, 64
3, 110820, Note_on_c, 0, 82, 40
3, 110865, Note_off_c, 0, 82, 64
3, 110880, Note_on_c, 0, 80, 40
3, 110925, Note_off_c, 0, 80, 64
3, 110940, Note_on_c, 0, 82, 37
3, 110985, Note_off_c, 0, 82, 64
3, 111000, Note_on_c, 0, 80, 40
3, 111045, Note_off_c, 0, 80, 64
3, 111060, Note_on_c, 0, 79, 31
3, 111105, Note_off_c, 0, 79, 64
3, 111120, Note_on_c, 0, 77, 27
3, 111165, Note_off_c, 0, 77, 64
3, 111180, Note_on_c, 0, 79, 25
3, 111225, Note_off_c, 0, 79, 64
3, 111240, Note_on_c, 0, 80, 37
3, 111285, Note_off_c, 0, 80, 64
3, 111300, Note_on_c, 0, 77, 31
3, 111345, Note_off_c, 0, 77, 64
3, 111420, Note_on_c, 0, 72, 27
3, 111465, Note_off_c, 0, 72, 64
3, 111480, Note_on_c, 0, 77, 35
3, 111525, Note_off_c, 0, 77, 64
3, 111540, Note_on_c, 0, 80, 35
3, 111585, Note_off_c, 0, 80, 64
3, 111600, Note_on_c, 0, 84, 44
3, 111645, Note_off_c, 0, 84, 64
3, 111660, Note_on_c, 0, 85, 44
3, 111705, Note_off_c, 0, 85, 64
3, 111720, Note_on_c, 0, 84, 41
3, 111765, Note_off_c, 0, 84, 64
3, 111780, Note_on_c, 0, 82, 37
3, 111825, Note_off_c, 0, 82, 64
3, 111840, Note_on_c, 0, 80, 40
3, 111885, Note_off_c, 0, 80, 64
3, 111900, Note_on_c, 0, 82, 44
3, 111945, Note_off_c, 0, 82, 64
3, 111960, Note_on_c, 0, 80, 40
3, 112005, Note_off_c, 0, 80, 64
3, 112020, Note_on_c, 0, 79, 37
3, 112065, Note_off_c, 0, 79, 64
3, 112080, Note_on_c, 0, 77, 31
3, 112125, Note_off_c, 0, 77, 64
3, 112140, Note_on_c, 0, 79, 18
3, 112185, Note_off_c, 0, 79, 64
3, 112200, Note_on_c, 0, 80, 30
3, 112245, Note_off_c, 0, 80, 64
3, 112260, Note_on_c, 0, 77, 25
3, 112305, Note_off_c, 0, 77, 64
3, 112380, Note_on_c, 0, 78, 44
3, 112425, Note_off_c, 0, 78, 64
3, 112440, Note_on_c, 0, 84, 35
3, 112485, Note_off_c, 0, 84, 64
3, 112500, Note_on_c, 0, 87, 44
3, 112545, Note_off_c, 0, 87, 64
3, 112560, Note_on_c, 0, 90, 46
3, 112605, Note_off_c, 0, 90, 64
3, 112620, Note_on_c, 0, 92, 50
3, 112665, Note_off_c, 0, 92, 64
3, 112680, Note_on_c, 0, 90, 44
3, 112725, Note_off_c, 0, 90, 64
3, 112740, Note_on_c, 0, 89, 35
3, 112785, Note_off_c, 0, 89, 64
3, 112800, Note_on_c, 0, 87, 30
3, 112845, Note_off_c, 0, 87, 64
3, 112860, Note_on_c, 0, 89, 31
3, 112905, Note_off_c, 0, 89, 64
3, 112920, Note_on_c, 0, 87, 35
3, 112965, Note_off_c, 0, 87, 64
3, 112980, Note_on_c, 0, 85, 32
3, 113025, Note_off_c, 0, 85, 64
3, 113040, Note_on_c, 0, 84, 40
3, 113085, Note_off_c, 0, 84, 64
3, 113100, Note_on_c, 0, 85, 44
3, 113145, Note_off_c, 0, 85, 64
3, 113160, Note_on_c, 0, 87, 35
3, 113205, Note_off_c, 0, 87, 64
3, 113220, Note_on_c, 0, 84, 24
3, 113265, Note_off_c, 0, 84, 64
3, 113340, Note_on_c, 0, 78, 40
3, 113385, Note_off_c, 0, 78, 64
3, 113400, Note_on_c, 0, 84, 31
3, 113445, Note_off_c, 0, 84, 64
3, 113460, Note_on_c, 0, 87, 44
3, 113505, Note_off_c, 0, 87, 64
3, 113520, Note_on_c, 0, 90, 37
3, 113565, Note_off_c, 0, 90, 64
3, 113580, Note_on_c, 0, 92, 40
3, 113625, Note_off_c, 0, 92, 64
3, 113640, Note_on_c, 0, 90, 44
3, 113685, Note_off_c, 0, 90, 64
3, 113700, Note_on_c, 0, 89, 28
3, 113745, Note_off_c, 0, 89, 64
3, 113760, Note_on_c, 0, 87, 35
3, 113805, Note_off_c, 0, 87, 64
3, 113820, Note_on_c, 0, 89, 32
3, 113865, Note_off_c, 0, 89, 64
3, 113880, Note_on_c, 0, 87, 37
3, 113925, Note_off_c, 0, 87, 64
3, 113940, Note_on_c, 0, 85, 32
3, 113985, Note_off_c, 0, 85, 64
3, 114000, Note_on_c, 0, 84, 37
3, 114045, Note_off_c, 0, 84, 64
3, 114060, Note_on_c, 0, 82, 40
3, 114105, Note_off_c, 0, 82, 64
3, 114120, Note_on_c, 0, 80, 37
3, 114165, Note_off_c, 0, 80, 64
3, 114180, Note_on_c, 0, 78, 35
3, 114225, Note_off_c, 0, 78, 64
3, 114240, Note_on_c, 0, 77, 37
3, 114285, Note_off_c, 0, 77, 64
3, 114300, Note_on_c, 0, 80, 44
3, 114345, Note_off_c, 0, 80, 64
3, 114360, Note_on_c, 0, 85, 40
3, 114405, Note_off_c, 0, 85, 64
3, 114420, Note_on_c, 0, 89, 41
3, 114465, Note_off_c, 0, 89, 64
3, 114480, Note_on_c, 0, 92, 40
3, 114525, Note_off_c, 0, 92, 64
3, 114540, Note_on_c, 0, 94, 35
3, 114585, Note_off_c, 0, 94, 64
3, 114600, Note_on_c, 0, 92, 37
3, 114645, Note_off_c, 0, 92, 64
3, 114660, Note_on_c, 0, 90, 40
3, 114705, Note_off_c, 0, 90, 64
3, 114720, Note_on_c, 0, 89, 56
3, 114765, Note_off_c, 0, 89, 64
3, 114780, Note_on_c, 0, 90, 55
3, 114825, Note_off_c, 0, 90, 64
3, 114840, Note_on_c, 0, 89, 50
3, 114885, Note_off_c, 0, 89, 64
3, 114900, Note_on_c, 0, 87, 47
3, 114945, Note_off_c, 0, 87, 64
3, 114960, Note_on_c, 0, 85, 55
3, 115005, Note_off_c, 0, 85, 64
3, 115020, Note_on_c, 0, 87, 55
3, 115065, Note_off_c, 0, 87, 64
3, 115080, Note_on_c, 0, 89, 47
3, 115125, Note_off_c, 0, 89, 64
3, 115140, Note_on_c, 0, 85, 47
3, 115185, Note_off_c, 0, 85, 64
3, 115260, Note_on_c, 0, 80, 40
3, 115305, Note_off_c, 0, 80, 64
3, 115320, Note_on_c, 0, 85, 40
3, 115365, Note_off_c, 0, 85, 64
3, 115380, Note_on_c, 0, 89, 44
3, 115425, Note_off_c, 0, 89, 64
3, 115440, Note_on_c, 0, 92, 58
3, 115485, Note_off_c, 0, 92, 64
3, 115500, Note_on_c, 0, 94, 50
3, 115545, Note_off_c, 0, 94, 64
3, 115560, Note_on_c, 0, 92, 55
3, 115605, Note_off_c, 0, 92, 64
3, 115620, Note_on_c, 0, 90, 50
3, 115665, Note_off_c, 0, 90, 64
3, 115680, Note_on_c, 0, 89, 50
3, 115725, Note_off_c, 0, 89, 64
3, 115740, Note_on_c, 0, 90, 47
3, 115785, Note_off_c, 0, 90, 64
3, 115800, Note_on_c, 0, 92, 58
3, 115845, Note_off_c, 0, 92, 64
3, 115860, Note_on_c, 0, 90, 50
3, 115905, Note_off_c, 0, 90, 64
3, 115920, Note_on_c, 0, 89, 41
3, 115965, Note_off_c, 0, 89, 64
3, 115980, Note_on_c, 0, 90, 47
3, 116025, Note_off_c, 0, 90, 64
3, 116040, Note_on_c, 0, 92, 47
3, 116085, Note_off_c, 0, 92, 64
3, 116100, Note_on_c, 0, 89, 39
3, 116145, Note_off_c, 0, 89, 64
3, 116220, Note_on_c, 0, 90, 58
3, 116265, Note_off_c, 0, 90, 64
3, 116280, Note_on_c, 0, 92, 38
3, 116325, Note_off_c, 0, 92, 64
3, 116340, Note_on_c, 0, 90, 44
3, 116385, Note_off_c, 0, 90, 64
3, 116400, Note_on_c, 0, 92, 50
3, 116445, Note_off_c, 0, 92, 64
3, 116460, Note_on_c, 0, 90, 40
3, 116505, Note_off_c, 0, 90, 64
3, 116520, Note_on_c, 0, 89, 41
3, 116565, Note_off_c, 0, 89, 64
3, 116580, Note_on_c, 0, 90, 40
3, 116625, Note_off_c, 0, 90, 64
3, 116700, Note_on_c, 0, 88, 34
3, 116745, Note_off_c, 0, 88, 64
3, 116760, Note_on_c, 0, 89, 34
3, 116805, Note_off_c, 0, 89, 64
3, 116820, Note_on_c, 0, 88, 26
3, 116865, Note_off_c, 0, 88, 64
3, 116940, Note_on_c, 0, 89, 41
3, 116985, Note_off_c, 0, 89, 64
3, 117000, Note_on_c, 0, 91, 31
3, 117045, Note_off_c, 0, 91, 64
3, 117060, Note_on_c, 0, 89, 36
3, 117105, Note_off_c, 0, 89, 64
3, 117180, Note_on_c, 0, 90, 63
3, 117225, Note_off_c, 0, 90, 64
3, 117240, Note_on_c, 0, 92, 44
3, 117285, Note_off_c, 0, 92, 64
3, 117300, Note_on_c, 0, 90, 35
3, 117345, Note_off_c, 0, 90, 64
3, 117360, Note_on_c, 0, 92, 47
3, 117405, Note_off_c, 0, 92, 64
3, 117420, Note_on_c, 0, 90, 50
3, 117465, Note_off_c, 0, 90, 64
3, 117480, Note_on_c, 0, 89, 32
3, 117525, Note_off_c, 0, 89, 64
3, 117540, Note_on_c, 0, 90, 38
3, 117585, Note_off_c, 0, 90, 64
3, 117660, Note_on_c, 0, 88, 36
3, 117705, Note_off_c, 0, 88, 64
3, 117720, Note_on_c, 0, 89, 29
3, 117765, Note_off_c, 0, 89, 64
3, 117780, Note_on_c, 0, 88, 34
3, 117825, Note_off_c, 0, 88, 64
3, 117900, Note_on_c, 0, 89, 47
3, 117945, Note_off_c, 0, 89, 64
3, 117960, Note_on_c, 0, 91, 44
3, 118005, Note_off_c, 0, 91, 64
3, 118020, Note_on_c, 0, 89, 39
3, 118065, Note_off_c, 0, 89, 64
3, 118140, Note_on_c, 0, 90, 63
3, 118185, Note_off_c, 0, 90, 64
3, 118200, Note_on_c, 0, 92, 44
3, 118245, Note_off_c, 0, 92, 64
3, 118260, Note_on_c, 0, 90, 44
3, 118305, Note_off_c, 0, 90, 64
3, 118320, Note_on_c, 0, 92, 44
3, 118365, Note_off_c, 0, 92, 64
3, 118380, Note_on_c, 0, 90, 44
3, 118425, Note_off_c, 0, 90, 64
3, 118440, Note_on_c, 0, 89, 44
3, 118485, Note_off_c, 0, 89, 64
3, 118500, Note_on_c, 0, 91, 44
3, 118545, Note_off_c, 0, 91, 64
3, 118620, Note_on_c, 0, 88, 56
3, 118665, Note_off_c, 0, 88, 64
3, 118680, Note_on_c, 0, 89, 39
3, 118725, Note_off_c, 0, 89, 64
3, 118740, Note_on_c, 0, 88, 31
3, 118785, Note_off_c, 0, 88, 64
3, 118860, Note_on_c, 0, 85, 50
3, 118905, Note_off_c, 0, 85, 64
3, 118920, Note_on_c, 0, 87, 40
3, 118965, Note_off_c, 0, 87, 64
3, 118980, Note_on_c, 0, 85, 40
3, 119025, Note_off_c, 0, 85, 64
3, 119100, Note_on_c, 0, 84, 52
3, 119145, Note_off_c, 0, 84, 64
3, 119160, Note_on_c, 0, 85, 47
3, 119205, Note_off_c, 0, 85, 64
3, 119220, Note_on_c, 0, 84, 36
3, 119265, Note_off_c, 0, 84, 64
3, 119340, Note_on_c, 0, 83, 47
3, 119385, Note_off_c, 0, 83, 64
3, 119400, Note_on_c, 0, 84, 52
3, 119445, Note_off_c, 0, 84, 64
3, 119460, Note_on_c, 0, 83, 44
3, 119505, Note_off_c, 0, 83, 64
3, 119580, Note_on_c, 0, 82, 58
3, 119625, Note_off_c, 0, 82, 64
3, 119640, Note_on_c, 0, 84, 56
3, 119685, Note_off_c, 0, 84, 64
3, 119700, Note_on_c, 0, 82, 55
3, 119745, Note_off_c, 0, 82, 64
3, 119820, Note_on_c, 0, 80, 38
3, 119865, Note_off_c, 0, 80, 64
3, 119880, Note_on_c, 0, 82, 44
3, 119925, Note_off_c, 0, 82, 64
3, 119940, Note_on_c, 0, 80, 29
3, 119985, Note_off_c, 0, 80, 64
3, 120060, Note_on_c, 0, 80, 40
3, 120105, Note_off_c, 0, 80, 64
3, 120120, Note_on_c, 0, 82, 38
3, 120165, Note_off_c, 0, 82, 64
3, 120180, Note_on_c, 0, 80, 44
3, 120225, Note_off_c, 0, 80, 64
3, 120300, Note_on_c, 0, 79, 47
3, 120345, Note_off_c, 0, 79, 64
3, 120360, Note_on_c, 0, 80, 44
3, 120405, Note_off_c, 0, 80, 64
3, 120420, Note_on_c, 0, 79, 36
3, 120465, Note_off_c, 0, 79, 64
3, 120540, Note_on_c, 0, 77, 52
3, 120585, Note_off_c, 0, 77, 64
3, 120600, Note_on_c, 0, 79, 59
3, 120645, Note_off_c, 0, 79, 64
3, 120660, Note_on_c, 0, 77, 47
3, 120705, Note_off_c, 0, 77, 64
3, 120780, Note_on_c, 0, 76, 47
3, 120825, Note_off_c, 0, 76, 64
3, 120840, Note_on_c, 0, 77, 50
3, 120885, Note_off_c, 0, 77, 64
3, 120900, Note_on_c, 0, 76, 47
3, 120945, Note_off_c, 0, 76, 64
3, 121020, Note_on_c, 0, 61, 31
3, 121080, Note_off_c, 0, 61, 64
3, 121080, Note_on_c, 0, 73, 47
3, 121140, Note_off_c, 0, 73, 64
3, 121140, Note_on_c, 0, 61, 44
3, 121200, Note_off_c, 0, 61, 64
3, 121200, Note_on_c, 0, 73, 40
3, 121260, Note_off_c, 0, 73, 64
3, 121260, Note_on_c, 0, 61, 39
3, 121320, Note_off_c, 0, 61, 64
3, 121320, Note_on_c, 0, 73, 35
3, 121380, Note_off_c, 0, 73, 64
3, 121380, Note_on_c, 0, 61, 24
3, 121440, Note_off_c, 0, 61, 64
3, 121500, Note_on_c, 0, 61, 39
3, 121560, Note_off_c, 0, 61, 64
3, 121560, Note_on_c, 0, 73, 50
3, 121620, Note_off_c, 0, 73, 64
3, 121620, Note_on_c, 0, 72, 36
3, 121680, Note_off_c, 0, 72, 64
3, 121680, Note_on_c, 0, 70, 50
3, 121740, Note_off_c, 0, 70, 64
3, 121740, Note_on_c, 0, 68, 44
3, 121800, Note_off_c, 0, 68, 64
3, 121800, Note_on_c, 0, 67, 52
3, 121860, Note_off_c, 0, 67, 64
3, 121860, Note_on_c, 0, 65, 44
3, 121920, Note_off_c, 0, 65, 64
3, 121980, Note_on_c, 0, 73, 63
3, 122040, Note_off_c, 0, 73, 64
3, 122040, Note_on_c, 0, 85, 58
3, 122100, Note_off_c, 0, 85, 64
3, 122100, Note_on_c, 0, 73, 47
3, 122160, Note_off_c, 0, 73, 64
3, 122160, Note_on_c, 0, 85, 40
3, 122220, Note_off_c, 0, 85, 64
3, 122220, Note_on_c, 0, 73, 19
3, 122280, Note_off_c, 0, 73, 64
3, 122280, Note_on_c, 0, 85, 44
3, 122340, Note_off_c, 0, 85, 64
3, 122340, Note_on_c, 0, 73, 22
3, 122400, Note_off_c, 0, 73, 64
3, 122460, Note_on_c, 0, 73, 47
3, 122520, Note_off_c, 0, 73, 64
3, 122520, Note_on_c, 0, 85, 58
3, 122580, Note_off_c, 0, 85, 64
3, 122580, Note_on_c, 0, 84, 52
3, 122640, Note_off_c, 0, 84, 64
3, 122640, Note_on_c, 0, 82, 29
3, 122700, Note_off_c, 0, 82, 64
3, 122700, Note_on_c, 0, 80, 29
3, 122760, Note_off_c, 0, 80, 64
3, 122760, Note_on_c, 0, 79, 36
3, 122820, Note_off_c, 0, 79, 64
3, 122820, Note_on_c, 0, 77, 21
3, 122880, Note_off_c, 0, 77, 64
3, 122940, Note_on_c, 0, 61, 54
3, 123000, Note_off_c, 0, 61, 64
3, 123000, Note_on_c, 0, 73, 50
3, 123060, Note_off_c, 0, 73, 64
3, 123060, Note_on_c, 0, 61, 36
3, 123120, Note_off_c, 0, 61, 64
3, 123120, Note_on_c, 0, 73, 32
3, 123180, Note_off_c, 0, 73, 64
3, 123180, Note_on_c, 0, 61, 16
3, 123240, Note_off_c, 0, 61, 64
3, 123240, Note_on_c, 0, 73, 27
3, 123300, Note_off_c, 0, 73, 64
3, 123300, Note_on_c, 0, 61, 8
3, 123360, Note_off_c, 0, 61, 64
3, 123420, Note_on_c, 0, 73, 50
3, 123480, Note_off_c, 0, 73, 64
3, 123480, Note_on_c, 0, 61, 39
3, 123540, Note_off_c, 0, 61, 64
3, 123540, Note_on_c, 0, 73, 29
3, 123600, Note_off_c, 0, 73, 64
3, 123660, Note_on_c, 0, 85, 58
3, 123720, Note_off_c, 0, 85, 64
3, 123720, Note_on_c, 0, 73, 27
3, 123780, Note_off_c, 0, 73, 64
3, 123780, Note_on_c, 0, 85, 29
3, 123840, Note_off_c, 0, 85, 64
3, 123900, Note_on_c, 0, 84, 59
3, 123960, Note_off_c, 0, 84, 64
3, 123960, Note_on_c, 0, 72, 23
3, 124020, Note_off_c, 0, 72, 64
3, 124020, Note_on_c, 0, 84, 16
3, 124080, Note_off_c, 0, 84, 64
3, 124140, Note_on_c, 0, 83, 59
3, 124200, Note_off_c, 0, 83, 64
3, 124200, Note_on_c, 0, 71, 39
3, 124260, Note_off_c, 0, 71, 64
3, 124260, Note_on_c, 0, 83, 41
3, 124320, Note_off_c, 0, 83, 64
3, 124380, Note_on_c, 0, 82, 63
3, 124440, Note_off_c, 0, 82, 64
3, 124440, Note_on_c, 0, 70, 47
3, 124500, Note_off_c, 0, 70, 64
3, 124500, Note_on_c, 0, 82, 55
3, 124560, Note_off_c, 0, 82, 64
3, 124620, Note_on_c, 0, 80, 58
3, 124680, Note_off_c, 0, 80, 64
3, 124680, Note_on_c, 0, 68, 47
3, 124680, Note_on_c, 0, 72, 47
3, 124740, Note_off_c, 0, 72, 64
3, 124740, Note_off_c, 0, 68, 64
3, 124740, Note_on_c, 0, 80, 68
3, 124800, Note_off_c, 0, 80, 64
3, 124860, Note_on_c, 0, 80, 68
3, 124920, Note_off_c, 0, 80, 64
3, 124920, Note_on_c, 0, 68, 55
3, 124920, Note_on_c, 0, 74, 47
3, 124980, Note_off_c, 0, 74, 64
3, 124980, Note_off_c, 0, 68, 64
3, 124980, Note_on_c, 0, 80, 63
3, 125040, Note_off_c, 0, 80, 64
3, 125100, Note_on_c, 0, 79, 67
3, 125160, Note_off_c, 0, 79, 64
3, 125160, Note_on_c, 0, 74, 59
3, 125160, Note_on_c, 0, 67, 47
3, 125220, Note_off_c, 0, 67, 64
3, 125220, Note_off_c, 0, 74, 64
3, 125220, Note_on_c, 0, 79, 52
3, 125280, Note_off_c, 0, 79, 64
3, 125340, Note_on_c, 0, 77, 67
3, 125400, Note_off_c, 0, 77, 64
3, 125400, Note_on_c, 0, 68, 63
3, 125400, Note_on_c, 0, 65, 52
3, 125460, Note_off_c, 0, 65, 64
3, 125460, Note_off_c, 0, 68, 64
3, 125460, Note_on_c, 0, 77, 62
3, 125520, Note_off_c, 0, 77, 64
3, 125580, Note_on_c, 0, 76, 75
3, 125640, Note_off_c, 0, 76, 64
3, 125640, Note_on_c, 0, 67, 70
3, 125640, Note_on_c, 0, 64, 58
3, 125700, Note_off_c, 0, 64, 64
3, 125700, Note_off_c, 0, 67, 64
3, 125700, Note_on_c, 0, 76, 62
3, 125760, Note_off_c, 0, 76, 64
3, 125760, Note_on_c, 0, 77, 67
3, 125760, Note_on_c, 0, 68, 55
3, 125760, Note_on_c, 0, 65, 50
3, 125820, Note_off_c, 0, 65, 64
3, 125820, Note_off_c, 0, 68, 64
3, 125820, Note_off_c, 0, 77, 64
3, 125820, Note_on_c, 0, 60, 52
3, 125880, Note_off_c, 0, 60, 64
3, 125880, Note_on_c, 0, 65, 52
3, 125940, Note_off_c, 0, 65, 64
3, 125940, Note_on_c, 0, 68, 50
3, 126000, Note_off_c, 0, 68, 64
3, 126000, Note_on_c, 0, 72, 59
3, 126060, Note_off_c, 0, 72, 64
3, 126060, Note_on_c, 0, 73, 55
3, 126120, Note_off_c, 0, 73, 64
3, 126120, Note_on_c, 0, 72, 52
3, 126180, Note_off_c, 0, 72, 64
3, 126180, Note_on_c, 0, 70, 50
3, 126240, Note_off_c, 0, 70, 64
3, 126240, Note_on_c, 0, 68, 55
3, 126300, Note_off_c, 0, 68, 64
3, 126300, Note_on_c, 0, 70, 47
3, 126360, Note_off_c, 0, 70, 64
3, 126360, Note_on_c, 0, 68, 47
3, 126420, Note_off_c, 0, 68, 64
3, 126420, Note_on_c, 0, 67, 50
3, 126480, Note_off_c, 0, 67, 64
3, 126480, Note_on_c, 0, 65, 56
3, 126540, Note_off_c, 0, 65, 64
3, 126540, Note_on_c, 0, 63, 50
3, 126600, Note_off_c, 0, 63, 64
3, 126600, Note_on_c, 0, 61, 44
3, 126660, Note_off_c, 0, 61, 64
3, 126660, Note_on_c, 0, 60, 47
3, 126720, Note_off_c, 0, 60, 64
3, 126720, Note_on_c, 0, 58, 55
3, 126780, Note_off_c, 0, 58, 64
3, 126780, Note_on_c, 0, 56, 62
3, 126840, Note_off_c, 0, 56, 64
3, 126840, Note_on_c, 0, 55, 50
3, 126900, Note_off_c, 0, 55, 64
3, 126900, Note_on_c, 0, 53, 60
3, 126960, Note_off_c, 0, 53, 64
3, 126960, Note_on_c, 0, 52, 56
3, 127020, Note_off_c, 0, 52, 64
3, 127080, Note_on_c, 0, 58, 63
3, 127080, Note_on_c, 0, 48, 62
3, 127080, Note_on_c, 0, 60, 67
3, 127080, Note_on_c, 0, 52, 70
3, 127080, Note_on_c, 0, 55, 59
3, 127140, Note_off_c, 0, 55, 64
3, 127140, Note_off_c, 0, 52, 64
3, 127140, Note_off_c, 0, 60, 64
3, 127140, Note_off_c, 0, 48, 64
3, 127140, Note_off_c, 0, 58, 64
3, 127200, Note_on_c, 0, 58, 55
3, 127200, Note_on_c, 0, 60, 52
3, 127200, Note_on_c, 0, 48, 44
3, 127200, Note_on_c, 0, 52, 59
3, 127260, Note_off_c, 0, 52, 64
3, 127260, Note_off_c, 0, 48, 64
3, 127260, Note_off_c, 0, 60, 64
3, 127260, Note_off_c, 0, 58, 64
3, 127320, Note_on_c, 0, 58, 58
3, 127320, Note_on_c, 0, 60, 52
3, 127320, Note_on_c, 0, 48, 44
3, 127320, Note_on_c, 0, 52, 62
3, 127380, Note_off_c, 0, 52, 64
3, 127380, Note_off_c, 0, 48, 64
3, 127380, Note_off_c, 0, 60, 64
3, 127380, Note_off_c, 0, 58, 64
3, 127440, Note_on_c, 0, 58, 55
3, 127440, Note_on_c, 0, 48, 41
3, 127440, Note_on_c, 0, 60, 52
3, 127440, Note_on_c, 0, 52, 59
3, 127500, Note_off_c, 0, 52, 64
3, 127500, Note_off_c, 0, 60, 64
3, 127500, Note_off_c, 0, 48, 64
3, 127500, Note_off_c, 0, 58, 64
3, 127560, Note_on_c, 0, 58, 63
3, 127560, Note_on_c, 0, 52, 62
3, 127560, Note_on_c, 0, 48, 50
3, 127560, Note_on_c, 0, 60, 50
3, 127620, Note_off_c, 0, 60, 64
3, 127620, Note_off_c, 0, 48, 64
3, 127620, Note_off_c, 0, 52, 64
3, 127620, Note_off_c, 0, 58, 64
3, 127680, Note_on_c, 0, 60, 70
3, 127680, Note_on_c, 0, 53, 74
3, 127680, Note_on_c, 0, 48, 70
3, 127680, Note_on_c, 0, 56, 78
3, 127740, Note_off_c, 0, 56, 64
3, 127740, Note_off_c, 0, 48, 64
3, 127740, Note_off_c, 0, 53, 64
3, 127740, Note_off_c, 0, 60, 64
3, 127740, Note_on_c, 0, 72, 56
3, 127800, Note_off_c, 0, 72, 64
3, 127800, Note_on_c, 0, 77, 50
3, 127860, Note_off_c, 0, 77, 64
3, 127860, Note_on_c, 0, 80, 63
3, 127920, Note_off_c, 0, 80, 64
3, 127920, Note_on_c, 0, 84, 62
3, 127980, Note_off_c, 0, 84, 64
3, 127980, Note_on_c, 0, 85, 58
3, 128040, Note_off_c, 0, 85, 64
3, 128040, Note_on_c, 0, 84, 56
3, 128100, Note_off_c, 0, 84, 64
3, 128100, Note_on_c, 0, 82, 38
3, 128160, Note_off_c, 0, 82, 64
3, 128160, Note_on_c, 0, 80, 50
3, 128220, Note_off_c, 0, 80, 64
3, 128220, Note_on_c, 0, 82, 55
3, 128280, Note_off_c, 0, 82, 64
3, 128280, Note_on_c, 0, 80, 50
3, 128340, Note_off_c, 0, 80, 64
3, 128340, Note_on_c, 0, 79, 47
3, 128400, Note_off_c, 0, 79, 64
3, 128400, Note_on_c, 0, 77, 56
3, 128460, Note_off_c, 0, 77, 64
3, 128460, Note_on_c, 0, 75, 38
3, 128520, Note_off_c, 0, 75, 64
3, 128520, Note_on_c, 0, 73, 38
3, 128580, Note_off_c, 0, 73, 64
3, 128580, Note_on_c, 0, 72, 50
3, 128640, Note_off_c, 0, 72, 64
3, 128640, Note_on_c, 0, 70, 55
3, 128700, Note_off_c, 0, 70, 64
3, 128700, Note_on_c, 0, 68, 44
3, 128760, Note_off_c, 0, 68, 64
3, 128760, Note_on_c, 0, 67, 44
3, 128820, Note_off_c, 0, 67, 64
3, 128820, Note_on_c, 0, 65, 50
3, 128880, Note_off_c, 0, 65, 64
3, 128880, Note_on_c, 0, 64, 55
3, 128940, Note_off_c, 0, 64, 64
3, 129000, Note_on_c, 0, 72, 59
3, 129000, Note_on_c, 0, 60, 52
3, 129000, Note_on_c, 0, 64, 55
3, 129000, Note_on_c, 0, 67, 62
3, 129060, Note_off_c, 0, 67, 64
3, 129060, Note_off_c, 0, 64, 64
3, 129060, Note_off_c, 0, 60, 64
3, 129060, Note_off_c, 0, 72, 64
3, 129120, Note_on_c, 0, 60, 50
3, 129120, Note_on_c, 0, 70, 50
3, 129120, Note_on_c, 0, 72, 47
3, 129120, Note_on_c, 0, 64, 47
3, 129180, Note_off_c, 0, 64, 64
3, 129180, Note_off_c, 0, 72, 64
3, 129180, Note_off_c, 0, 70, 64
3, 129180, Note_off_c, 0, 60, 64
3, 129240, Note_on_c, 0, 72, 44
3, 129240, Note_on_c, 0, 60, 41
3, 129240, Note_on_c, 0, 64, 49
3, 129240, Note_on_c, 0, 70, 47
3, 129300, Note_off_c, 0, 70, 64
3, 129300, Note_off_c, 0, 64, 64
3, 129300, Note_off_c, 0, 60, 64
3, 129300, Note_off_c, 0, 72, 64
3, 129360, Note_on_c, 0, 70, 38
3, 129360, Note_on_c, 0, 60, 31
3, 129360, Note_on_c, 0, 64, 40
3, 129360, Note_on_c, 0, 72, 36
3, 129420, Note_off_c, 0, 72, 64
3, 129420, Note_off_c, 0, 64, 64
3, 129420, Note_off_c, 0, 60, 64
3, 129420, Note_off_c, 0, 70, 64
3, 129480, Note_on_c, 0, 60, 36
3, 129480, Note_on_c, 0, 72, 39
3, 129480, Note_on_c, 0, 64, 47
3, 129480, Note_on_c, 0, 70, 35
3, 129540, Note_off_c, 0, 70, 64
3, 129540, Note_off_c, 0, 64, 64
3, 129540, Note_off_c, 0, 72, 64
3, 129540, Note_off_c, 0, 60, 64
3, 129600, Note_on_c, 0, 72, 59
3, 129600, Note_on_c, 0, 60, 50
3, 129600, Note_on_c, 0, 65, 56
3, 129600, Note_on_c, 0, 68, 58
3, 129840, Note_off_c, 0, 68, 64
3, 129840, Note_off_c, 0, 65, 64
3, 129840, Note_off_c, 0, 60, 64
3, 129840, Note_off_c, 0, 72, 64
3, 129960, Note_on_c, 0, 72, 56
3, 129960, Note_on_c, 0, 84, 59
3, 129960, Note_on_c, 0, 80, 68
3, 129960, Note_on_c, 0, 77, 62
3, 130020, Note_off_c, 0, 77, 64
3, 130020, Note_off_c, 0, 80, 64
3, 130020, Note_off_c, 0, 84, 64
3, 130020, Note_off_c, 0, 72, 64
3, 130080, Note_on_c, 0, 72, 47
3, 130080, Note_on_c, 0, 82, 63
3, 130080, Note_on_c, 0, 84, 52
3, 130080, Note_on_c, 0, 76, 59
3, 130140, Note_off_c, 0, 76, 64
3, 130140, Note_off_c, 0, 84, 64
3, 130140, Note_off_c, 0, 82, 64
3, 130140, Note_off_c, 0, 72, 64
3, 130200, Note_on_c, 0, 72, 50
3, 130200, Note_on_c, 0, 82, 63
3, 130200, Note_on_c, 0, 84, 50
3, 130200, Note_on_c, 0, 76, 59
3, 130260, Note_off_c, 0, 76, 64
3, 130260, Note_off_c, 0, 84, 64
3, 130260, Note_off_c, 0, 82, 64
3, 130260, Note_off_c, 0, 72, 64
3, 130320, Note_on_c, 0, 72, 50
3, 130320, Note_on_c, 0, 84, 59
3, 130320, Note_on_c, 0, 82, 55
3, 130320, Note_on_c, 0, 76, 56
3, 130380, Note_off_c, 0, 76, 64
3, 130380, Note_off_c, 0, 82, 64
3, 130380, Note_off_c, 0, 84, 64
3, 130380, Note_off_c, 0, 72, 64
3, 130440, Note_on_c, 0, 72, 52
3, 130440, Note_on_c, 0, 82, 58
3, 130440, Note_on_c, 0, 84, 59
3, 130440, Note_on_c, 0, 76, 56
3, 130500, Note_off_c, 0, 76, 64
3, 130500, Note_off_c, 0, 84, 64
3, 130500, Note_off_c, 0, 82, 64
3, 130500, Note_off_c, 0, 72, 64
3, 130560, Note_on_c, 0, 72, 52
3, 130560, Note_on_c, 0, 84, 56
3, 130560, Note_on_c, 0, 77, 56
3, 130560, Note_on_c, 0, 80, 58
3, 130800, Note_off_c, 0, 80, 64
3, 130800, Note_off_c, 0, 77, 64
3, 130800, Note_off_c, 0, 84, 64
3, 130800, Note_off_c, 0, 72, 64
3, 130920, Note_on_c, 0, 72, 67
3, 130920, Note_on_c, 0, 60, 62
3, 130920, Note_on_c, 0, 65, 62
3, 130920, Note_on_c, 0, 68, 63
3, 131040, Note_off_c, 0, 68, 64
3, 131040, Note_off_c, 0, 65, 64
3, 131040, Note_off_c, 0, 60, 64
3, 131040, Note_off_c, 0, 72, 64
3, 131040, Note_on_c, 0, 70, 50
3, 131040, Note_on_c, 0, 72, 47
3, 131040, Note_on_c, 0, 60, 41
3, 131040, Note_on_c, 0, 64, 44
3, 131100, Note_off_c, 0, 64, 64
3, 131100, Note_off_c, 0, 60, 64
3, 131100, Note_off_c, 0, 72, 64
3, 131100, Note_off_c, 0, 70, 64
3, 131160, Note_on_c, 0, 60, 56
3, 131160, Note_on_c, 0, 70, 55
3, 131160, Note_on_c, 0, 64, 55
3, 131160, Note_on_c, 0, 72, 52
3, 131220, Note_off_c, 0, 72, 64
3, 131220, Note_off_c, 0, 64, 64
3, 131220, Note_off_c, 0, 70, 64
3, 131220, Note_off_c, 0, 60, 64
3, 131280, Note_on_c, 0, 64, 58
3, 131280, Note_on_c, 0, 60, 52
3, 131280, Note_on_c, 0, 72, 56
3, 131280, Note_on_c, 0, 70, 55
3, 131340, Note_off_c, 0, 70, 64
3, 131340, Note_off_c, 0, 72, 64
3, 131340, Note_off_c, 0, 60, 64
3, 131340, Note_off_c, 0, 64, 64
3, 131400, Note_on_c, 0, 64, 55
3, 131400, Note_on_c, 0, 70, 58
3, 131400, Note_on_c, 0, 60, 52
3, 131400, Note_on_c, 0, 72, 47
3, 131460, Note_off_c, 0, 72, 64
3, 131460, Note_off_c, 0, 60, 64
3, 131460, Note_off_c, 0, 70, 64
3, 131460, Note_off_c, 0, 64, 64
3, 131520, Note_on_c, 0, 72, 59
3, 131520, Note_on_c, 0, 60, 56
3, 131520, Note_on_c, 0, 65, 56
3, 131520, Note_on_c, 0, 68, 63
3, 131580, Note_off_c, 0, 68, 64
3, 131580, Note_off_c, 0, 65, 64
3, 131580, Note_off_c, 0, 60, 64
3, 131580, Note_off_c, 0, 72, 64
3, 131640, Note_on_c, 0, 72, 47
3, 131640, Note_on_c, 0, 80, 55
3, 131640, Note_on_c, 0, 84, 52
3, 131640, Note_on_c, 0, 77, 47
3, 131700, Note_off_c, 0, 77, 64
3, 131700, Note_off_c, 0, 84, 64
3, 131700, Note_off_c, 0, 80, 64
3, 131700, Note_off_c, 0, 72, 64
3, 131760, Note_on_c, 0, 72, 52
3, 131760, Note_on_c, 0, 80, 58
3, 131760, Note_on_c, 0, 84, 56
3, 131760, Note_on_c, 0, 77, 56
3, 131820, Note_off_c, 0, 77, 64
3, 131820, Note_off_c, 0, 84, 64
3, 131820, Note_off_c, 0, 80, 64
3, 131820, Note_off_c, 0, 72, 64
3, 131880, Note_on_c, 0, 84, 52
3, 131880, Note_on_c, 0, 80, 55
3, 131880, Note_on_c, 0, 72, 50
3, 131880, Note_on_c, 0, 77, 52
3, 131940, Note_off_c, 0, 77, 64
3, 131940, Note_off_c, 0, 72, 64
3, 131940, Note_off_c, 0, 80, 64
3, 131940, Note_off_c, 0, 84, 64
3, 132000, Note_on_c, 0, 72, 50
3, 132000, Note_on_c, 0, 76, 62
3, 132000, Note_on_c, 0, 84, 56
3, 132000, Note_on_c, 0, 82, 58
3, 132060, Note_off_c, 0, 82, 64
3, 132060, Note_off_c, 0, 84, 64
3, 132060, Note_off_c, 0, 76, 64
3, 132060, Note_off_c, 0, 72, 64
3, 132120, Note_on_c, 0, 82, 63
3, 132120, Note_on_c, 0, 76, 62
3, 132120, Note_on_c, 0, 72, 50
3, 132120, Note_on_c, 0, 84, 50
3, 132180, Note_off_c, 0, 84, 64
3, 132180, Note_off_c, 0, 72, 64
3, 132180, Note_off_c, 0, 76, 64
3, 132180, Note_off_c, 0, 82, 64
3, 132240, Note_on_c, 0, 72, 41
3, 132240, Note_on_c, 0, 82, 55
3, 132240, Note_on_c, 0, 76, 52
3, 132240, Note_on_c, 0, 84, 41
3, 132300, Note_off_c, 0, 84, 64
3, 132300, Note_off_c, 0, 76, 64
3, 132300, Note_off_c, 0, 82, 64
3, 132300, Note_off_c, 0, 72, 64
3, 132360, Note_on_c, 0, 76, 56
3, 132360, Note_on_c, 0, 72, 41
3, 132360, Note_on_c, 0, 82, 55
3, 132360, Note_on_c, 0, 84, 50
3, 132420, Note_off_c, 0, 84, 64
3, 132420, Note_off_c, 0, 82, 64
3, 132420, Note_off_c, 0, 72, 64
3, 132420, Note_off_c, 0, 76, 64
3, 132480, Note_on_c, 0, 84, 70
3, 132480, Note_on_c, 0, 72, 59
3, 132480, Note_on_c, 0, 75, 63
3, 132480, Note_on_c, 0, 81, 62
3, 132540, Note_off_c, 0, 81, 64
3, 132540, Note_off_c, 0, 75, 64
3, 132540, Note_off_c, 0, 72, 64
3, 132540, Note_off_c, 0, 84, 64
3, 132540, Note_on_c, 0, 57, 47
3, 132600, Note_off_c, 0, 57, 64
3, 132600, Note_on_c, 0, 60, 52
3, 132660, Note_off_c, 0, 60, 64
3, 132660, Note_on_c, 0, 63, 44
3, 132720, Note_off_c, 0, 63, 64
3, 132720, Note_on_c, 0, 66, 58
3, 132780, Note_off_c, 0, 66, 64
3, 132780, Note_on_c, 0, 69, 50
3, 132840, Note_off_c, 0, 69, 64
3, 132840, Note_on_c, 0, 72, 52
3, 132900, Note_off_c, 0, 72, 64
3, 132900, Note_on_c, 0, 75, 50
3, 132960, Note_off_c, 0, 75, 64
3, 132960, Note_on_c, 0, 78, 55
3, 133020, Note_off_c, 0, 78, 64
3, 133020, Note_on_c, 0, 81, 47
3, 133080, Note_off_c, 0, 81, 64
3, 133080, Note_on_c, 0, 84, 36
3, 133140, Note_off_c, 0, 84, 64
3, 133140, Note_on_c, 0, 87, 35
3, 133200, Note_off_c, 0, 87, 64
3, 133200, Note_on_c, 0, 90, 55
3, 133260, Note_off_c, 0, 90, 64
3, 133260, Note_on_c, 0, 87, 50
3, 133320, Note_off_c, 0, 87, 64
3, 133320, Note_on_c, 0, 84, 41
3, 133380, Note_off_c, 0, 84, 64
3, 133380, Note_on_c, 0, 81, 41
3, 133440, Note_off_c, 0, 81, 64
3, 133440, Note_on_c, 0, 78, 50
3, 133500, Note_off_c, 0, 78, 64
3, 133500, Note_on_c, 0, 75, 40
3, 133560, Note_off_c, 0, 75, 64
3, 133560, Note_on_c, 0, 72, 32
3, 133620, Note_off_c, 0, 72, 64
3, 133620, Note_on_c, 0, 69, 39
3, 133680, Note_off_c, 0, 69, 64
3, 133680, Note_on_c, 0, 66, 40
3, 133740, Note_off_c, 0, 66, 64
3, 133740, Note_on_c, 0, 63, 47
3, 133800, Note_off_c, 0, 63, 64
3, 133800, Note_on_c, 0, 60, 50
3, 133860, Note_off_c, 0, 60, 64
3, 133860, Note_on_c, 0, 57, 47
3, 133920, Note_off_c, 0, 57, 64
3, 133920, Note_on_c, 0, 54, 47
3, 133980, Note_off_c, 0, 54, 64
3, 133980, Note_on_c, 0, 51, 50
3, 134040, Note_off_c, 0, 51, 64
3, 134040, Note_on_c, 0, 48, 47
3, 134100, Note_off_c, 0, 48, 64
3, 134100, Note_on_c, 0, 45, 31
3, 134160, Note_off_c, 0, 45, 64
3, 134160, Note_on_c, 0, 42, 50
3, 134220, Note_off_c, 0, 42, 64
3, 134220, Note_on_c, 0, 39, 55
3, 134280, Note_off_c, 0, 39, 64
3, 134280, Note_on_c, 0, 36, 52
3, 134340, Note_off_c, 0, 36, 64
3, 134340, Note_on_c, 0, 33, 32
3, 134400, Note_off_c, 0, 33, 64
3, 134400, Note_on_c, 0, 30, 55
3, 134460, Note_off_c, 0, 30, 64
3, 134460, Note_on_c, 0, 39, 47
3, 134520, Note_off_c, 0, 39, 64
3, 134520, Note_on_c, 0, 36, 39
3, 134580, Note_off_c, 0, 36, 64
3, 134580, Note_on_c, 0, 33, 39
3, 134640, Note_off_c, 0, 33, 64
3, 134640, Note_on_c, 0, 30, 63
3, 134700, Note_off_c, 0, 30, 64
3, 134700, Note_on_c, 0, 39, 50
3, 134760, Note_off_c, 0, 39, 64
3, 134760, Note_on_c, 0, 36, 29
3, 134820, Note_off_c, 0, 36, 64
3, 134820, Note_on_c, 0, 33, 34
3, 134880, Note_off_c, 0, 33, 64
3, 134880, Note_on_c, 0, 30, 55
3, 134940, Note_off_c, 0, 30, 64
3, 134940, Note_on_c, 0, 39, 47
3, 135000, Note_off_c, 0, 39, 64
3, 135000, Note_on_c, 0, 36, 39
3, 135060, Note_off_c, 0, 36, 64
3, 135060, Note_on_c, 0, 33, 44
3, 135120, Note_off_c, 0, 33, 64
3, 135120, Note_on_c, 0, 30, 44
3, 135180, Note_off_c, 0, 30, 64
3, 135180, Note_on_c, 0, 39, 47
3, 135240, Note_off_c, 0, 39, 64
3, 135240, Note_on_c, 0, 36, 39
3, 135300, Note_off_c, 0, 36, 64
3, 135300, Note_on_c, 0, 33, 31
3, 135360, Note_off_c, 0, 33, 64
3, 135420, Note_on_c, 0, 57, 20
3, 135465, Note_off_c, 0, 57, 64
3, 135480, Note_on_c, 0, 60, 23
3, 135525, Note_off_c, 0, 60, 64
3, 135540, Note_on_c, 0, 63, 30
3, 135585, Note_off_c, 0, 63, 64
3, 135600, Note_on_c, 0, 66, 30
3, 135645, Note_off_c, 0, 66, 64
3, 135660, Note_on_c, 0, 68, 33
3, 135705, Note_off_c, 0, 68, 64
3, 135720, Note_on_c, 0, 66, 28
3, 135765, Note_off_c, 0, 66, 64
3, 135780, Note_on_c, 0, 65, 28
3, 135825, Note_off_c, 0, 65, 64
3, 135840, Note_on_c, 0, 63, 24
3, 135885, Note_off_c, 0, 63, 64
3, 135900, Note_on_c, 0, 65, 28
3, 135945, Note_off_c, 0, 65, 64
3, 135960, Note_on_c, 0, 63, 28
3, 136005, Note_off_c, 0, 63, 64
3, 136020, Note_on_c, 0, 61, 25
3, 136065, Note_off_c, 0, 61, 64
3, 136080, Note_on_c, 0, 60, 23
3, 136125, Note_off_c, 0, 60, 64
3, 136140, Note_on_c, 0, 61, 26
3, 136185, Note_off_c, 0, 61, 64
3, 136200, Note_on_c, 0, 63, 22
3, 136245, Note_off_c, 0, 63, 64
3, 136260, Note_on_c, 0, 60, 24
3, 136305, Note_off_c, 0, 60, 64
3, 136380, Note_on_c, 0, 57, 30
3, 136425, Note_off_c, 0, 57, 64
3, 136440, Note_on_c, 0, 60, 31
3, 136485, Note_off_c, 0, 60, 64
3, 136500, Note_on_c, 0, 63, 34
3, 136545, Note_off_c, 0, 63, 64
3, 136560, Note_on_c, 0, 66, 30
3, 136605, Note_off_c, 0, 66, 64
3, 136620, Note_on_c, 0, 68, 30
3, 136665, Note_off_c, 0, 68, 64
3, 136680, Note_on_c, 0, 66, 28
3, 136725, Note_off_c, 0, 66, 64
3, 136740, Note_on_c, 0, 65, 26
3, 136785, Note_off_c, 0, 65, 64
3, 136800, Note_on_c, 0, 63, 30
3, 136845, Note_off_c, 0, 63, 64
3, 136860, Note_on_c, 0, 65, 28
3, 136905, Note_off_c, 0, 65, 64
3, 136920, Note_on_c, 0, 63, 26
3, 136965, Note_off_c, 0, 63, 64
3, 136980, Note_on_c, 0, 61, 21
3, 137025, Note_off_c, 0, 61, 64
3, 137040, Note_on_c, 0, 60, 28
3, 137085, Note_off_c, 0, 60, 64
3, 137100, Note_on_c, 0, 61, 25
3, 137145, Note_off_c, 0, 61, 64
3, 137160, Note_on_c, 0, 63, 28
3, 137205, Note_off_c, 0, 63, 64
3, 137220, Note_on_c, 0, 60, 28
3, 137265, Note_off_c, 0, 60, 64
3, 137340, Note_on_c, 0, 57, 56
3, 137385, Note_off_c, 0, 57, 64
3, 137400, Note_on_c, 0, 60, 56
3, 137445, Note_off_c, 0, 60, 64
3, 137460, Note_on_c, 0, 63, 50
3, 137505, Note_off_c, 0, 63, 64
3, 137520, Note_on_c, 0, 66, 58
3, 137565, Note_off_c, 0, 66, 64
3, 137580, Note_on_c, 0, 68, 55
3, 137625, Note_off_c, 0, 68, 64
3, 137640, Note_on_c, 0, 66, 55
3, 137685, Note_off_c, 0, 66, 64
3, 137700, Note_on_c, 0, 65, 50
3, 137745, Note_off_c, 0, 65, 64
3, 137760, Note_on_c, 0, 63, 47
3, 137850, Note_off_c, 0, 63, 64
3, 137880, Note_on_c, 0, 63, 44
3, 137925, Note_off_c, 0, 63, 64
3, 137940, Note_on_c, 0, 65, 36
3, 137985, Note_off_c, 0, 65, 64
3, 138000, Note_on_c, 0, 66, 40
3, 138045, Note_off_c, 0, 66, 64
3, 138060, Note_on_c, 0, 68, 40
3, 138105, Note_off_c, 0, 68, 64
3, 138120, Note_on_c, 0, 66, 40
3, 138165, Note_off_c, 0, 66, 64
3, 138180, Note_on_c, 0, 65, 50
3, 138225, Note_off_c, 0, 65, 64
3, 138240, Note_on_c, 0, 63, 68
3, 138330, Note_off_c, 0, 63, 64
3, 138360, Note_on_c, 0, 63, 44
3, 138405, Note_off_c, 0, 63, 64
3, 138420, Note_on_c, 0, 65, 41
3, 138465, Note_off_c, 0, 65, 64
3, 138480, Note_on_c, 0, 66, 50
3, 138525, Note_off_c, 0, 66, 64
3, 138540, Note_on_c, 0, 68, 50
3, 138585, Note_off_c, 0, 68, 64
3, 138600, Note_on_c, 0, 66, 44
3, 138645, Note_off_c, 0, 66, 64
3, 138660, Note_on_c, 0, 65, 50
3, 138705, Note_off_c, 0, 65, 64
3, 138720, Note_on_c, 0, 63, 44
3, 138810, Note_off_c, 0, 63, 64
3, 138840, Note_on_c, 0, 78, 55
3, 138840, Note_on_c, 0, 66, 38
3, 138930, Note_off_c, 0, 66, 64
3, 138930, Note_off_c, 0, 78, 64
3, 138960, Note_on_c, 0, 77, 59
3, 138960, Note_on_c, 0, 65, 56
3, 139050, Note_off_c, 0, 65, 64
3, 139050, Note_off_c, 0, 77, 64
3, 139080, Note_on_c, 0, 81, 52
3, 139080, Note_on_c, 0, 69, 44
3, 139170, Note_off_c, 0, 69, 64
3, 139170, Note_off_c, 0, 81, 64
3, 139200, Note_on_c, 0, 82, 47
3, 139200, Note_on_c, 0, 70, 35
3, 139245, Note_off_c, 0, 70, 64
3, 139245, Note_off_c, 0, 82, 64
3, 139260, Note_on_c, 0, 65, 41
3, 139320, Note_off_c, 0, 65, 64
3, 139320, Note_on_c, 0, 70, 40
3, 139380, Note_off_c, 0, 70, 64
3, 139380, Note_on_c, 0, 73, 47
3, 139440, Note_off_c, 0, 73, 64
3, 139440, Note_on_c, 0, 77, 52
3, 139500, Note_off_c, 0, 77, 64
3, 139500, Note_on_c, 0, 78, 55
3, 139560, Note_off_c, 0, 78, 64
3, 139560, Note_on_c, 0, 77, 52
3, 139620, Note_off_c, 0, 77, 64
3, 139620, Note_on_c, 0, 75, 44
3, 139680, Note_off_c, 0, 75, 64
3, 139680, Note_on_c, 0, 73, 40
3, 139740, Note_off_c, 0, 73, 64
3, 139740, Note_on_c, 0, 75, 44
3, 139800, Note_off_c, 0, 75, 64
3, 139800, Note_on_c, 0, 73, 44
3, 139860, Note_off_c, 0, 73, 64
3, 139860, Note_on_c, 0, 72, 39
3, 139920, Note_off_c, 0, 72, 64
3, 139920, Note_on_c, 0, 70, 40
3, 139980, Note_off_c, 0, 70, 64
3, 139980, Note_on_c, 0, 72, 44
3, 140040, Note_off_c, 0, 72, 64
3, 140040, Note_on_c, 0, 73, 47
3, 140100, Note_off_c, 0, 73, 64
3, 140100, Note_on_c, 0, 70, 35
3, 140160, Note_off_c, 0, 70, 64
3, 140220, Note_on_c, 0, 65, 56
3, 140280, Note_off_c, 0, 65, 64
3, 140280, Note_on_c, 0, 70, 38
3, 140340, Note_off_c, 0, 70, 64
3, 140340, Note_on_c, 0, 73, 47
3, 140400, Note_off_c, 0, 73, 64
3, 140400, Note_on_c, 0, 77, 50
3, 140460, Note_off_c, 0, 77, 64
3, 140460, Note_on_c, 0, 78, 55
3, 140520, Note_off_c, 0, 78, 64
3, 140520, Note_on_c, 0, 77, 50
3, 140580, Note_off_c, 0, 77, 64
3, 140580, Note_on_c, 0, 75, 44
3, 140640, Note_off_c, 0, 75, 64
3, 140640, Note_on_c, 0, 73, 47
3, 140700, Note_off_c, 0, 73, 64
3, 140700, Note_on_c, 0, 75, 44
3, 140760, Note_off_c, 0, 75, 64
3, 140760, Note_on_c, 0, 73, 40
3, 140820, Note_off_c, 0, 73, 64
3, 140820, Note_on_c, 0, 72, 32
3, 140880, Note_off_c, 0, 72, 64
3, 140880, Note_on_c, 0, 70, 38
3, 140940, Note_off_c, 0, 70, 64
3, 140940, Note_on_c, 0, 72, 44
3, 141000, Note_off_c, 0, 72, 64
3, 141000, Note_on_c, 0, 73, 55
3, 141060, Note_off_c, 0, 73, 64
3, 141060, Note_on_c, 0, 70, 32
3, 141120, Note_off_c, 0, 70, 64
3, 141180, Note_on_c, 0, 66, 44
3, 141240, Note_off_c, 0, 66, 64
3, 141240, Note_on_c, 0, 71, 41
3, 141300, Note_off_c, 0, 71, 64
3, 141300, Note_on_c, 0, 75, 55
3, 141360, Note_off_c, 0, 75, 64
3, 141360, Note_on_c, 0, 78, 55
3, 141420, Note_off_c, 0, 78, 64
3, 141420, Note_on_c, 0, 80, 58
3, 141480, Note_off_c, 0, 80, 64
3, 141480, Note_on_c, 0, 78, 50
3, 141540, Note_off_c, 0, 78, 64
3, 141540, Note_on_c, 0, 77, 44
3, 141600, Note_off_c, 0, 77, 64
3, 141600, Note_on_c, 0, 75, 47
3, 141660, Note_off_c, 0, 75, 64
3, 141660, Note_on_c, 0, 77, 50
3, 141720, Note_off_c, 0, 77, 64
3, 141720, Note_on_c, 0, 75, 50
3, 141780, Note_off_c, 0, 75, 64
3, 141780, Note_on_c, 0, 73, 55
3, 141840, Note_off_c, 0, 73, 64
3, 141840, Note_on_c, 0, 71, 21
3, 141900, Note_off_c, 0, 71, 64
3, 141900, Note_on_c, 0, 73, 40
3, 141960, Note_off_c, 0, 73, 64
3, 141960, Note_on_c, 0, 75, 50
3, 142020, Note_off_c, 0, 75, 64
3, 142020, Note_on_c, 0, 71, 36
3, 142080, Note_off_c, 0, 71, 64
3, 142080, Note_on_c, 0, 70, 29
3, 142140, Note_off_c, 0, 70, 64
3, 142140, Note_on_c, 0, 72, 36
3, 142200, Note_off_c, 0, 72, 64
3, 142200, Note_on_c, 0, 70, 40
3, 142260, Note_off_c, 0, 70, 64
3, 142260, Note_on_c, 0, 69, 39
3, 142320, Note_off_c, 0, 69, 64
3, 142320, Note_on_c, 0, 70, 44
3, 142380, Note_off_c, 0, 70, 64
3, 142380, Note_on_c, 0, 72, 50
3, 142440, Note_off_c, 0, 72, 64
3, 142440, Note_on_c, 0, 73, 55
3, 142500, Note_off_c, 0, 73, 64
3, 142500, Note_on_c, 0, 70, 44
3, 142560, Note_off_c, 0, 70, 64
3, 142560, Note_on_c, 0, 69, 47
3, 142620, Note_off_c, 0, 69, 64
3, 142620, Note_on_c, 0, 70, 40
3, 142680, Note_off_c, 0, 70, 64
3, 142680, Note_on_c, 0, 69, 41
3, 142740, Note_off_c, 0, 69, 64
3, 142740, Note_on_c, 0, 67, 36
3, 142800, Note_off_c, 0, 67, 64
3, 142800, Note_on_c, 0, 69, 47
3, 142860, Note_off_c, 0, 69, 64
3, 142860, Note_on_c, 0, 70, 44
3, 142920, Note_off_c, 0, 70, 64
3, 142920, Note_on_c, 0, 72, 44
3, 142980, Note_off_c, 0, 72, 64
3, 142980, Note_on_c, 0, 69, 36
3, 143040, Note_off_c, 0, 69, 64
3, 143040, Note_on_c, 0, 70, 40
3, 143160, Note_off_c, 0, 70, 64
3, 143160, Note_on_c, 0, 70, 40
3, 143220, Note_off_c, 0, 70, 64
3, 143220, Note_on_c, 0, 73, 47
3, 143280, Note_off_c, 0, 73, 64
3, 143280, Note_on_c, 0, 77, 36
3, 143340, Note_off_c, 0, 77, 64
3, 143340, Note_on_c, 0, 78, 44
3, 143400, Note_off_c, 0, 78, 64
3, 143400, Note_on_c, 0, 77, 41
3, 143460, Note_off_c, 0, 77, 64
3, 143460, Note_on_c, 0, 75, 40
3, 143520, Note_off_c, 0, 75, 64
3, 143520, Note_on_c, 0, 73, 47
3, 143580, Note_off_c, 0, 73, 64
3, 143580, Note_on_c, 0, 75, 44
3, 143640, Note_off_c, 0, 75, 64
3, 143640, Note_on_c, 0, 73, 50
3, 143700, Note_off_c, 0, 73, 64
3, 143700, Note_on_c, 0, 72, 50
3, 143760, Note_off_c, 0, 72, 64
3, 143760, Note_on_c, 0, 82, 75
3, 143760, Note_on_c, 0, 70, 44
3, 143820, Note_off_c, 0, 70, 64
3, 143820, Note_on_c, 0, 72, 36
3, 143880, Note_off_c, 0, 72, 64
3, 143880, Note_on_c, 0, 73, 50
3, 143940, Note_off_c, 0, 73, 64
3, 143940, Note_on_c, 0, 70, 47
3, 144000, Note_off_c, 0, 70, 64
3, 144000, Note_off_c, 0, 82, 64
3, 144000, Note_on_c, 0, 81, 75
3, 144120, Note_on_c, 0, 70, 35
3, 144180, Note_off_c, 0, 70, 64
3, 144180, Note_on_c, 0, 73, 44
3, 144240, Note_off_c, 0, 73, 64
3, 144240, Note_off_c, 0, 81, 64
3, 144240, Note_on_c, 0, 82, 75
3, 144240, Note_on_c, 0, 77, 52
3, 144300, Note_off_c, 0, 77, 64
3, 144300, Note_on_c, 0, 78, 55
3, 144360, Note_off_c, 0, 78, 64
3, 144360, Note_on_c, 0, 77, 50
3, 144420, Note_off_c, 0, 77, 64
3, 144420, Note_on_c, 0, 75, 35
3, 144480, Note_off_c, 0, 75, 64
3, 144480, Note_off_c, 0, 82, 64
3, 144480, Note_on_c, 0, 73, 50
3, 144540, Note_off_c, 0, 73, 64
3, 144540, Note_on_c, 0, 75, 38
3, 144600, Note_off_c, 0, 75, 64
3, 144600, Note_on_c, 0, 73, 50
3, 144660, Note_off_c, 0, 73, 64
3, 144660, Note_on_c, 0, 72, 41
3, 144720, Note_off_c, 0, 72, 64
3, 144720, Note_on_c, 0, 82, 75
3, 144720, Note_on_c, 0, 70, 35
3, 144780, Note_off_c, 0, 70, 64
3, 144780, Note_on_c, 0, 72, 36
3, 144840, Note_off_c, 0, 72, 64
3, 144840, Note_on_c, 0, 73, 32
3, 144900, Note_off_c, 0, 73, 64
3, 144900, Note_on_c, 0, 70, 38
3, 144960, Note_off_c, 0, 70, 64
3, 144960, Note_off_c, 0, 82, 64
3, 144960, Note_on_c, 0, 83, 80
3, 144960, Note_on_c, 0, 71, 32
3, 145020, Note_off_c, 0, 71, 64
3, 145020, Note_off_c, 0, 83, 64
3, 145020, Note_on_c, 0, 78, 50
3, 145080, Note_off_c, 0, 78, 64
3, 145080, Note_on_c, 0, 83, 47
3, 145140, Note_off_c, 0, 83, 64
3, 145140, Note_on_c, 0, 87, 58
3, 145200, Note_off_c, 0, 87, 64
3, 145200, Note_on_c, 0, 90, 58
3, 145260, Note_off_c, 0, 90, 64
3, 145260, Note_on_c, 0, 92, 58
3, 145320, Note_off_c, 0, 92, 64
3, 145320, Note_on_c, 0, 90, 58
3, 145380, Note_off_c, 0, 90, 64
3, 145380, Note_on_c, 0, 89, 59
3, 145440, Note_off_c, 0, 89, 64
3, 145440, Note_on_c, 0, 87, 58
3, 145500, Note_off_c, 0, 87, 64
3, 145500, Note_on_c, 0, 89, 47
3, 145560, Note_off_c, 0, 89, 64
3, 145560, Note_on_c, 0, 87, 55
3, 145620, Note_off_c, 0, 87, 64
3, 145620, Note_on_c, 0, 85, 50
3, 145680, Note_off_c, 0, 85, 64
3, 145680, Note_on_c, 0, 83, 52
3, 145740, Note_off_c, 0, 83, 64
3, 145740, Note_on_c, 0, 85, 55
3, 145800, Note_off_c, 0, 85, 64
3, 145800, Note_on_c, 0, 83, 50
3, 145860, Note_off_c, 0, 83, 64
3, 145860, Note_on_c, 0, 82, 55
3, 145920, Note_off_c, 0, 82, 64
3, 145920, Note_on_c, 0, 81, 52
3, 145980, Note_off_c, 0, 81, 64
3, 145980, Note_on_c, 0, 84, 50
3, 146040, Note_off_c, 0, 84, 64
3, 146040, Note_on_c, 0, 87, 58
3, 146100, Note_off_c, 0, 87, 64
3, 146100, Note_on_c, 0, 85, 55
3, 146160, Note_off_c, 0, 85, 64
3, 146160, Note_on_c, 0, 84, 50
3, 146220, Note_off_c, 0, 84, 64
3, 146220, Note_on_c, 0, 85, 55
3, 146280, Note_off_c, 0, 85, 64
3, 146280, Note_on_c, 0, 84, 44
3, 146340, Note_off_c, 0, 84, 64
3, 146340, Note_on_c, 0, 82, 50
3, 146400, Note_off_c, 0, 82, 64
3, 146400, Note_on_c, 0, 81, 50
3, 146460, Note_off_c, 0, 81, 64
3, 146460, Note_on_c, 0, 82, 55
3, 146520, Note_off_c, 0, 82, 64
3, 146520, Note_on_c, 0, 81, 41
3, 146580, Note_off_c, 0, 81, 64
3, 146580, Note_on_c, 0, 78, 44
3, 146640, Note_off_c, 0, 78, 64
3, 146640, Note_on_c, 0, 77, 56
3, 146700, Note_off_c, 0, 77, 64
3, 146700, Note_on_c, 0, 75, 55
3, 146760, Note_off_c, 0, 75, 64
3, 146760, Note_on_c, 0, 73, 40
3, 146820, Note_off_c, 0, 73, 64
3, 146820, Note_on_c, 0, 72, 52
3, 146880, Note_off_c, 0, 72, 64
3, 146880, Note_on_c, 0, 70, 58
3, 146940, Note_off_c, 0, 70, 64
3, 147000, Note_on_c, 0, 77, 70
3, 147120, Note_off_c, 0, 77, 64
3, 147240, Note_on_c, 0, 77, 56
3, 147300, Note_off_c, 0, 77, 64
3, 147360, Note_on_c, 0, 77, 67
3, 147420, Note_off_c, 0, 77, 64
3, 147480, Note_on_c, 0, 78, 68
3, 147600, Note_off_c, 0, 78, 64
3, 147720, Note_on_c, 0, 78, 63
3, 147780, Note_off_c, 0, 78, 64
3, 147840, Note_on_c, 0, 78, 68
3, 147900, Note_off_c, 0, 78, 64
3, 147960, Note_on_c, 0, 77, 75
3, 148080, Note_off_c, 0, 77, 64
3, 148200, Note_on_c, 0, 77, 70
3, 148260, Note_off_c, 0, 77, 64
3, 148320, Note_on_c, 0, 77, 44
3, 148380, Note_off_c, 0, 77, 64
3, 148440, Note_on_c, 0, 72, 31
3, 148500, Note_off_c, 0, 72, 64
3, 148560, Note_on_c, 0, 73, 39
3, 148620, Note_off_c, 0, 73, 64
3, 148680, Note_on_c, 0, 75, 39
3, 148740, Note_off_c, 0, 75, 64
3, 148800, Note_on_c, 0, 73, 63
3, 148860, Note_off_c, 0, 73, 64
3, 148920, Note_on_c, 0, 89, 62
3, 148920, Note_on_c, 0, 77, 56
3, 149040, Note_off_c, 0, 77, 64
3, 149040, Note_off_c, 0, 89, 64
3, 149160, Note_on_c, 0, 89, 62
3, 149160, Note_on_c, 0, 77, 50
3, 149220, Note_off_c, 0, 77, 64
3, 149220, Note_off_c, 0, 89, 64
3, 149280, Note_on_c, 0, 89, 59
3, 149280, Note_on_c, 0, 77, 47
3, 149340, Note_off_c, 0, 77, 64
3, 149340, Note_off_c, 0, 89, 64
3, 149400, Note_on_c, 0, 90, 74
3, 149400, Note_on_c, 0, 78, 58
3, 149520, Note_off_c, 0, 78, 64
3, 149520, Note_off_c, 0, 90, 64
3, 149640, Note_on_c, 0, 90, 68
3, 149640, Note_on_c, 0, 78, 38
3, 149700, Note_off_c, 0, 78, 64
3, 149700, Note_off_c, 0, 90, 64
3, 149760, Note_on_c, 0, 90, 63
3, 149760, Note_on_c, 0, 78, 40
3, 149820, Note_off_c, 0, 78, 64
3, 149820, Note_off_c, 0, 90, 64
3, 149880, Note_on_c, 0, 89, 67
3, 149880, Note_on_c, 0, 77, 52
3, 150000, Note_off_c, 0, 77, 64
3, 150000, Note_off_c, 0, 89, 64
3, 150120, Note_on_c, 0, 89, 59
3, 150120, Note_on_c, 0, 77, 44
3, 150180, Note_off_c, 0, 77, 64
3, 150180, Note_off_c, 0, 89, 64
3, 150240, Note_on_c, 0, 89, 46
3, 150240, Note_on_c, 0, 77, 35
3, 150300, Note_off_c, 0, 77, 64
3, 150300, Note_off_c, 0, 89, 64
3, 150360, Note_on_c, 0, 84, 39
3, 150360, Note_on_c, 0, 72, 33
3, 150420, Note_off_c, 0, 72, 64
3, 150420, Note_off_c, 0, 84, 64
3, 150480, Note_on_c, 0, 85, 51
3, 150480, Note_on_c, 0, 73, 35
3, 150540, Note_off_c, 0, 73, 64
3, 150540, Note_off_c, 0, 85, 64
3, 150600, Note_on_c, 0, 87, 47
3, 150600, Note_on_c, 0, 75, 30
3, 150660, Note_off_c, 0, 75, 64
3, 150660, Note_off_c, 0, 87, 64
3, 150720, Note_on_c, 0, 85, 50
3, 150720, Note_on_c, 0, 73, 38
3, 150780, Note_off_c, 0, 73, 64
3, 150780, Note_off_c, 0, 85, 64
3, 150840, Note_on_c, 0, 72, 62
3, 150960, Note_off_c, 0, 72, 64
3, 151080, Note_on_c, 0, 72, 59
3, 151140, Note_off_c, 0, 72, 64
3, 151200, Note_on_c, 0, 72, 62
3, 151260, Note_off_c, 0, 72, 64
3, 151320, Note_on_c, 0, 71, 59
3, 151440, Note_off_c, 0, 71, 64
3, 151560, Note_on_c, 0, 71, 59
3, 151620, Note_off_c, 0, 71, 64
3, 151680, Note_on_c, 0, 71, 59
3, 151740, Note_off_c, 0, 71, 64
3, 151800, Note_on_c, 0, 72, 67
3, 151920, Note_off_c, 0, 72, 64
3, 152040, Note_on_c, 0, 72, 59
3, 152100, Note_off_c, 0, 72, 64
3, 152160, Note_on_c, 0, 72, 46
3, 152220, Note_off_c, 0, 72, 64
3, 152280, Note_on_c, 0, 67, 42
3, 152340, Note_off_c, 0, 67, 64
3, 152400, Note_on_c, 0, 68, 43
3, 152460, Note_off_c, 0, 68, 64
3, 152520, Note_on_c, 0, 70, 41
3, 152580, Note_off_c, 0, 70, 64
3, 152640, Note_on_c, 0, 68, 63
3, 152700, Note_off_c, 0, 68, 64
3, 152760, Note_on_c, 0, 84, 70
3, 152760, Note_on_c, 0, 72, 59
3, 152880, Note_off_c, 0, 72, 64
3, 152880, Note_off_c, 0, 84, 64
3, 153000, Note_on_c, 0, 84, 67
3, 153000, Note_on_c, 0, 72, 52
3, 153060, Note_off_c, 0, 72, 64
3, 153060, Note_off_c, 0, 84, 64
3, 153120, Note_on_c, 0, 84, 59
3, 153120, Note_on_c, 0, 72, 47
3, 153180, Note_off_c, 0, 72, 64
3, 153180, Note_off_c, 0, 84, 64
3, 153240, Note_on_c, 0, 83, 62
3, 153240, Note_on_c, 0, 71, 52
3, 153360, Note_off_c, 0, 71, 64
3, 153360, Note_off_c, 0, 83, 64
3, 153480, Note_on_c, 0, 83, 62
3, 153480, Note_on_c, 0, 71, 47
3, 153540, Note_off_c, 0, 71, 64
3, 153540, Note_off_c, 0, 83, 64
3, 153600, Note_on_c, 0, 83, 70
3, 153600, Note_on_c, 0, 71, 59
3, 153660, Note_off_c, 0, 71, 64
3, 153660, Note_off_c, 0, 83, 64
3, 153720, Note_on_c, 0, 84, 80
3, 153720, Note_on_c, 0, 72, 70
3, 153840, Note_off_c, 0, 72, 64
3, 153840, Note_off_c, 0, 84, 64
3, 153960, Note_on_c, 0, 84, 70
3, 153960, Note_on_c, 0, 72, 52
3, 154020, Note_off_c, 0, 72, 64
3, 154020, Note_off_c, 0, 84, 64
3, 154080, Note_on_c, 0, 84, 70
3, 154080, Note_on_c, 0, 72, 52
3, 154140, Note_off_c, 0, 72, 64
3, 154140, Note_off_c, 0, 84, 64
3, 154200, Note_on_c, 0, 79, 70
3, 154200, Note_on_c, 0, 67, 56
3, 154260, Note_off_c, 0, 67, 64
3, 154260, Note_off_c, 0, 79, 64
3, 154320, Note_on_c, 0, 80, 68
3, 154320, Note_on_c, 0, 68, 47
3, 154380, Note_off_c, 0, 68, 64
3, 154380, Note_off_c, 0, 80, 64
3, 154440, Note_on_c, 0, 82, 68
3, 154440, Note_on_c, 0, 70, 50
3, 154500, Note_off_c, 0, 70, 64
3, 154500, Note_off_c, 0, 82, 64
3, 154560, Note_on_c, 0, 80, 68
3, 154560, Note_on_c, 0, 68, 55
3, 154605, Note_off_c, 0, 68, 64
3, 154605, Note_off_c, 0, 80, 64
3, 154620, Note_on_c, 0, 60, 41
3, 154665, Note_off_c, 0, 60, 64
3, 154680, Note_on_c, 0, 65, 39
3, 154725, Note_off_c, 0, 65, 64
3, 154740, Note_on_c, 0, 68, 40
3, 154785, Note_off_c, 0, 68, 64
3, 154800, Note_on_c, 0, 72, 56
3, 154845, Note_off_c, 0, 72, 64
3, 154860, Note_on_c, 0, 73, 58
3, 154905, Note_off_c, 0, 73, 64
3, 154920, Note_on_c, 0, 72, 52
3, 154965, Note_off_c, 0, 72, 64
3, 154980, Note_on_c, 0, 70, 44
3, 155025, Note_off_c, 0, 70, 64
3, 155040, Note_on_c, 0, 68, 50
3, 155085, Note_off_c, 0, 68, 64
3, 155100, Note_on_c, 0, 70, 40
3, 155145, Note_off_c, 0, 70, 64
3, 155160, Note_on_c, 0, 68, 55
3, 155205, Note_off_c, 0, 68, 64
3, 155220, Note_on_c, 0, 67, 56
3, 155265, Note_off_c, 0, 67, 64
3, 155280, Note_on_c, 0, 65, 52
3, 155325, Note_off_c, 0, 65, 64
3, 155340, Note_on_c, 0, 67, 39
3, 155385, Note_off_c, 0, 67, 64
3, 155400, Note_on_c, 0, 68, 47
3, 155445, Note_off_c, 0, 68, 64
3, 155460, Note_on_c, 0, 65, 52
3, 155505, Note_off_c, 0, 65, 64
3, 155520, Note_on_c, 0, 66, 50
3, 155565, Note_off_c, 0, 66, 64
3, 155580, Note_on_c, 0, 61, 54
3, 155625, Note_off_c, 0, 61, 64
3, 155640, Note_on_c, 0, 66, 50
3, 155685, Note_off_c, 0, 66, 64
3, 155700, Note_on_c, 0, 70, 47
3, 155745, Note_off_c, 0, 70, 64
3, 155760, Note_on_c, 0, 73, 63
3, 155805, Note_off_c, 0, 73, 64
3, 155820, Note_on_c, 0, 75, 55
3, 155865, Note_off_c, 0, 75, 64
3, 155880, Note_on_c, 0, 73, 55
3, 155925, Note_off_c, 0, 73, 64
3, 155940, Note_on_c, 0, 72, 41
3, 155985, Note_off_c, 0, 72, 64
3, 156000, Note_on_c, 0, 70, 50
3, 156045, Note_off_c, 0, 70, 64
3, 156060, Note_on_c, 0, 72, 44
3, 156105, Note_off_c, 0, 72, 64
3, 156120, Note_on_c, 0, 70, 47
3, 156165, Note_off_c, 0, 70, 64
3, 156180, Note_on_c, 0, 68, 44
3, 156225, Note_off_c, 0, 68, 64
3, 156240, Note_on_c, 0, 66, 44
3, 156285, Note_off_c, 0, 66, 64
3, 156300, Note_on_c, 0, 68, 44
3, 156345, Note_off_c, 0, 68, 64
3, 156360, Note_on_c, 0, 70, 38
3, 156405, Note_off_c, 0, 70, 64
3, 156420, Note_on_c, 0, 66, 47
3, 156465, Note_off_c, 0, 66, 64
3, 156480, Note_on_c, 0, 69, 52
3, 156525, Note_off_c, 0, 69, 64
3, 156540, Note_on_c, 0, 63, 50
3, 156585, Note_off_c, 0, 63, 64
3, 156600, Note_on_c, 0, 69, 50
3, 156645, Note_off_c, 0, 69, 64
3, 156660, Note_on_c, 0, 72, 56
3, 156705, Note_off_c, 0, 72, 64
3, 156720, Note_on_c, 0, 75, 58
3, 156765, Note_off_c, 0, 75, 64
3, 156780, Note_on_c, 0, 77, 56
3, 156825, Note_off_c, 0, 77, 64
3, 156840, Note_on_c, 0, 75, 50
3, 156885, Note_off_c, 0, 75, 64
3, 156900, Note_on_c, 0, 73, 55
3, 156945, Note_off_c, 0, 73, 64
3, 156960, Note_on_c, 0, 72, 56
3, 157005, Note_off_c, 0, 72, 64
3, 157020, Note_on_c, 0, 73, 55
3, 157065, Note_off_c, 0, 73, 64
3, 157080, Note_on_c, 0, 72, 50
3, 157125, Note_off_c, 0, 72, 64
3, 157140, Note_on_c, 0, 70, 47
3, 157185, Note_off_c, 0, 70, 64
3, 157200, Note_on_c, 0, 69, 50
3, 157245, Note_off_c, 0, 69, 64
3, 157260, Note_on_c, 0, 70, 47
3, 157305, Note_off_c, 0, 70, 64
3, 157320, Note_on_c, 0, 72, 52
3, 157365, Note_off_c, 0, 72, 64
3, 157380, Note_on_c, 0, 69, 50
3, 157425, Note_off_c, 0, 69, 64
3, 157440, Note_on_c, 0, 70, 47
3, 157485, Note_off_c, 0, 70, 64
3, 157500, Note_on_c, 0, 65, 47
3, 157545, Note_off_c, 0, 65, 64
3, 157560, Note_on_c, 0, 70, 50
3, 157605, Note_off_c, 0, 70, 64
3, 157620, Note_on_c, 0, 73, 50
3, 157665, Note_off_c, 0, 73, 64
3, 157680, Note_on_c, 0, 77, 62
3, 157725, Note_off_c, 0, 77, 64
3, 157740, Note_on_c, 0, 78, 63
3, 157785, Note_off_c, 0, 78, 64
3, 157800, Note_on_c, 0, 77, 59
3, 157845, Note_off_c, 0, 77, 64
3, 157860, Note_on_c, 0, 75, 58
3, 157905, Note_off_c, 0, 75, 64
3, 157920, Note_on_c, 0, 73, 55
3, 157965, Note_off_c, 0, 73, 64
3, 157980, Note_on_c, 0, 72, 52
3, 158025, Note_off_c, 0, 72, 64
3, 158040, Note_on_c, 0, 70, 50
3, 158085, Note_off_c, 0, 70, 64
3, 158100, Note_on_c, 0, 68, 55
3, 158145, Note_off_c, 0, 68, 64
3, 158160, Note_on_c, 0, 66, 58
3, 158205, Note_off_c, 0, 66, 64
3, 158220, Note_on_c, 0, 65, 59
3, 158265, Note_off_c, 0, 65, 64
3, 158280, Note_on_c, 0, 63, 34
3, 158325, Note_off_c, 0, 63, 64
3, 158340, Note_on_c, 0, 61, 59
3, 158385, Note_off_c, 0, 61, 64
3, 158400, Note_on_c, 0, 60, 52
3, 158445, Note_off_c, 0, 60, 64
3, 158460, Note_on_c, 0, 58, 55
3, 158505, Note_off_c, 0, 58, 64
3, 158520, Note_on_c, 0, 56, 59
3, 158565, Note_off_c, 0, 56, 64
3, 158580, Note_on_c, 0, 54, 55
3, 158625, Note_off_c, 0, 54, 64
3, 158640, Note_on_c, 0, 53, 60
3, 158685, Note_off_c, 0, 53, 64
3, 158700, Note_on_c, 0, 51, 63
3, 158745, Note_off_c, 0, 51, 64
3, 158760, Note_on_c, 0, 49, 63
3, 158805, Note_off_c, 0, 49, 64
3, 158820, Note_on_c, 0, 48, 62
3, 158865, Note_off_c, 0, 48, 64
3, 158880, Note_on_c, 0, 46, 67
3, 158925, Note_off_c, 0, 46, 64
3, 158940, Note_on_c, 0, 48, 62
3, 158985, Note_off_c, 0, 48, 64
3, 159000, Note_on_c, 0, 49, 63
3, 159045, Note_off_c, 0, 49, 64
3, 159060, Note_on_c, 0, 48, 62
3, 159105, Note_off_c, 0, 48, 64
3, 159120, Note_on_c, 0, 46, 78
3, 159210, Note_off_c, 0, 46, 64
3, 159240, Note_on_c, 0, 56, 67
3, 159240, Note_on_c, 0, 50, 62
3, 159240, Note_on_c, 0, 47, 52
3, 159240, Note_on_c, 0, 53, 63
3, 159330, Note_off_c, 0, 53, 64
3, 159330, Note_off_c, 0, 47, 64
3, 159330, Note_off_c, 0, 50, 64
3, 159330, Note_off_c, 0, 56, 64
3, 159360, Note_on_c, 0, 55, 44
3, 159360, Note_on_c, 0, 52, 36
3, 159360, Note_on_c, 0, 48, 15
3, 159405, Note_off_c, 0, 48, 64
3, 159405, Note_off_c, 0, 52, 64
3, 159405, Note_off_c, 0, 55, 64
3, 159420, Note_on_c, 0, 48, 47
3, 159420, Note_on_c, 0, 60, 50
3, 159465, Note_off_c, 0, 60, 64
3, 159465, Note_off_c, 0, 48, 64
3, 159540, Note_on_c, 0, 60, 56
3, 159540, Note_on_c, 0, 48, 41
3, 159585, Note_off_c, 0, 48, 64
3, 159585, Note_off_c, 0, 60, 64
3, 159660, Note_on_c, 0, 60, 56
3, 159660, Note_on_c, 0, 48, 47
3, 159705, Note_off_c, 0, 48, 64
3, 159705, Note_off_c, 0, 60, 64
3, 159780, Note_on_c, 0, 60, 56
3, 159780, Note_on_c, 0, 48, 47
3, 159825, Note_off_c, 0, 48, 64
3, 159825, Note_off_c, 0, 60, 64
3, 159900, Note_on_c, 0, 60, 50
3, 159900, Note_on_c, 0, 48, 29
3, 159945, Note_off_c, 0, 48, 64
3, 159945, Note_off_c, 0, 60, 64
3, 160020, Note_on_c, 0, 60, 47
3, 160020, Note_on_c, 0, 48, 36
3, 160065, Note_off_c, 0, 48, 64
3, 160065, Note_off_c, 0, 60, 64
3, 160140, Note_on_c, 0, 60, 47
3, 160140, Note_on_c, 0, 48, 39
3, 160185, Note_off_c, 0, 48, 64
3, 160185, Note_off_c, 0, 60, 64
3, 160260, Note_on_c, 0, 60, 52
3, 160260, Note_on_c, 0, 48, 47
3, 160305, Note_off_c, 0, 48, 64
3, 160305, Note_off_c, 0, 60, 64
3, 160380, Note_on_c, 0, 72, 62
3, 160380, Note_on_c, 0, 60, 50
3, 160425, Note_off_c, 0, 60, 64
3, 160425, Note_off_c, 0, 72, 64
3, 160500, Note_on_c, 0, 72, 59
3, 160500, Note_on_c, 0, 60, 47
3, 160545, Note_off_c, 0, 60, 64
3, 160545, Note_off_c, 0, 72, 64
3, 160620, Note_on_c, 0, 72, 59
3, 160620, Note_on_c, 0, 60, 41
3, 160665, Note_off_c, 0, 60, 64
3, 160665, Note_off_c, 0, 72, 64
3, 160740, Note_on_c, 0, 72, 59
3, 160740, Note_on_c, 0, 60, 41
3, 160785, Note_off_c, 0, 60, 64
3, 160785, Note_off_c, 0, 72, 64
3, 160860, Note_on_c, 0, 72, 52
3, 160860, Note_on_c, 0, 60, 41
3, 160905, Note_off_c, 0, 60, 64
3, 160905, Note_off_c, 0, 72, 64
3, 160980, Note_on_c, 0, 72, 56
3, 160980, Note_on_c, 0, 60, 44
3, 161025, Note_off_c, 0, 60, 64
3, 161025, Note_off_c, 0, 72, 64
3, 161100, Note_on_c, 0, 72, 50
3, 161100, Note_on_c, 0, 60, 34
3, 161145, Note_off_c, 0, 60, 64
3, 161145, Note_off_c, 0, 72, 64
3, 161220, Note_on_c, 0, 72, 52
3, 161220, Note_on_c, 0, 60, 41
3, 161265, Note_off_c, 0, 60, 64
3, 161265, Note_off_c, 0, 72, 64
3, 161340, Note_on_c, 0, 84, 50
3, 161340, Note_on_c, 0, 72, 42
3, 161385, Note_off_c, 0, 72, 64
3, 161385, Note_off_c, 0, 84, 64
3, 161460, Note_on_c, 0, 84, 58
3, 161460, Note_on_c, 0, 72, 43
3, 161505, Note_off_c, 0, 72, 64
3, 161505, Note_off_c, 0, 84, 64
3, 161580, Note_on_c, 0, 84, 53
3, 161580, Note_on_c, 0, 72, 43
3, 161625, Note_off_c, 0, 72, 64
3, 161625, Note_off_c, 0, 84, 64
3, 161700, Note_on_c, 0, 84, 60
3, 161700, Note_on_c, 0, 72, 50
3, 161745, Note_off_c, 0, 72, 64
3, 161745, Note_off_c, 0, 84, 64
3, 161820, Note_on_c, 0, 84, 58
3, 161820, Note_on_c, 0, 72, 47
3, 161865, Note_off_c, 0, 72, 64
3, 161865, Note_off_c, 0, 84, 64
3, 161940, Note_on_c, 0, 84, 60
3, 161940, Note_on_c, 0, 72, 42
3, 161985, Note_off_c, 0, 72, 64
3, 161985, Note_off_c, 0, 84, 64
3, 162060, Note_on_c, 0, 84, 56
3, 162060, Note_on_c, 0, 72, 44
3, 162105, Note_off_c, 0, 72, 64
3, 162105, Note_off_c, 0, 84, 64
3, 162180, Note_on_c, 0, 72, 51
3, 162180, Note_on_c, 0, 84, 69
3, 162225, Note_off_c, 0, 84, 64
3, 162225, Note_off_c, 0, 72, 64
3, 162300, Note_on_c, 0, 96, 74
3, 162300, Note_on_c, 0, 84, 65
3, 162345, Note_off_c, 0, 84, 64
3, 162345, Note_off_c, 0, 96, 64
3, 162420, Note_on_c, 0, 96, 81
3, 162420, Note_on_c, 0, 84, 64
3, 162465, Note_off_c, 0, 84, 64
3, 162465, Note_off_c, 0, 96, 64
3, 162540, Note_on_c, 0, 96, 75
3, 162540, Note_on_c, 0, 84, 62
3, 162585, Note_off_c, 0, 84, 64
3, 162585, Note_off_c, 0, 96, 64
3, 162660, Note_on_c, 0, 96, 71
3, 162660, Note_on_c, 0, 84, 54
3, 162705, Note_off_c, 0, 84, 64
3, 162705, Note_off_c, 0, 96, 64
3, 162780, Note_on_c, 0, 84, 55
3, 162780, Note_on_c, 0, 96, 66
3, 162825, Note_off_c, 0, 96, 64
3, 162825, Note_off_c, 0, 84, 64
3, 162900, Note_on_c, 0, 96, 81
3, 162900, Note_on_c, 0, 84, 53
3, 162945, Note_off_c, 0, 84, 64
3, 162945, Note_off_c, 0, 96, 64
3, 163020, Note_on_c, 0, 96, 70
3, 163020, Note_on_c, 0, 84, 48
3, 163065, Note_off_c, 0, 84, 64
3, 163065, Note_off_c, 0, 96, 64
3, 163140, Note_on_c, 0, 96, 89
3, 163140, Note_on_c, 0, 84, 79
3, 163185, Note_off_c, 0, 84, 64
3, 163185, Note_off_c, 0, 96, 64
3, 163260, Note_on_c, 0, 49, 50
3, 163320, Note_off_c, 0, 49, 64
3, 163320, Note_on_c, 0, 54, 55
3, 163380, Note_off_c, 0, 54, 64
3, 163380, Note_on_c, 0, 58, 55
3, 163440, Note_off_c, 0, 58, 64
3, 163440, Note_on_c, 0, 61, 62
3, 163560, Note_off_c, 0, 61, 64
3, 163740, Note_on_c, 0, 61, 48
3, 163800, Note_off_c, 0, 61, 64
3, 163800, Note_on_c, 0, 66, 47
3, 163860, Note_off_c, 0, 66, 64
3, 163860, Note_on_c, 0, 70, 50
3, 163920, Note_off_c, 0, 70, 64
3, 163920, Note_on_c, 0, 73, 55
3, 164040, Note_off_c, 0, 73, 64
3, 164220, Note_on_c, 0, 73, 44
3, 164280, Note_off_c, 0, 73, 64
3, 164280, Note_on_c, 0, 78, 55
3, 164340, Note_off_c, 0, 78, 64
3, 164340, Note_on_c, 0, 82, 55
3, 164400, Note_off_c, 0, 82, 64
3, 164400, Note_on_c, 0, 85, 63
3, 164520, Note_off_c, 0, 85, 64
3, 165180, Note_on_c, 0, 52, 41
3, 165240, Note_off_c, 0, 52, 64
3, 165240, Note_on_c, 0, 55, 36
3, 165300, Note_off_c, 0, 55, 64
3, 165300, Note_on_c, 0, 58, 40
3, 165360, Note_off_c, 0, 58, 64
3, 165360, Note_on_c, 0, 64, 44
3, 165480, Note_off_c, 0, 64, 64
3, 165660, Note_on_c, 0, 64, 49
3, 165720, Note_off_c, 0, 64, 64
3, 165720, Note_on_c, 0, 67, 62
3, 165780, Note_off_c, 0, 67, 64
3, 165780, Note_on_c, 0, 70, 63
3, 165840, Note_off_c, 0, 70, 64
3, 165840, Note_on_c, 0, 76, 59
3, 165960, Note_off_c, 0, 76, 64
3, 166140, Note_on_c, 0, 76, 47
3, 166200, Note_off_c, 0, 76, 64
3, 166200, Note_on_c, 0, 79, 67
3, 166260, Note_off_c, 0, 79, 64
3, 166260, Note_on_c, 0, 82, 74
3, 166320, Note_off_c, 0, 82, 64
3, 166328, Note_on_c, 0, 88, 56
3, 166448, Note_off_c, 0, 88, 64
3, 167040, Note_on_c, 0, 37, 58
3, 167120, Note_off_c, 0, 37, 64
3, 167120, Note_on_c, 0, 49, 50
3, 167200, Note_off_c, 0, 49, 64
3, 167200, Note_on_c, 0, 52, 50
3, 167280, Note_off_c, 0, 52, 64
3, 167280, Note_on_c, 0, 55, 50
3, 167340, Note_off_c, 0, 55, 64
3, 167340, Note_on_c, 0, 58, 58
3, 167400, Note_off_c, 0, 58, 64
3, 167400, Note_on_c, 0, 61, 59
3, 167460, Note_off_c, 0, 61, 64
3, 167460, Note_on_c, 0, 64, 58
3, 167520, Note_off_c, 0, 64, 64
3, 167520, Note_on_c, 0, 67, 56
3, 167640, Note_off_c, 0, 67, 64
3, 168000, Note_on_c, 0, 40, 56
3, 168080, Note_off_c, 0, 40, 64
3, 168080, Note_on_c, 0, 52, 59
3, 168160, Note_off_c, 0, 52, 64
3, 168160, Note_on_c, 0, 55, 56
3, 168240, Note_off_c, 0, 55, 64
3, 168240, Note_on_c, 0, 58, 55
3, 168300, Note_off_c, 0, 58, 64
3, 168300, Note_on_c, 0, 61, 59
3, 168360, Note_off_c, 0, 61, 64
3, 168360, Note_on_c, 0, 64, 49
3, 168420, Note_off_c, 0, 64, 64
3, 168420, Note_on_c, 0, 67, 59
3, 168480, Note_off_c, 0, 67, 64
3, 168480, Note_on_c, 0, 70, 63
3, 168600, Note_off_c, 0, 70, 64
3, 168960, Note_on_c, 0, 43, 59
3, 169040, Note_off_c, 0, 43, 64
3, 169040, Note_on_c, 0, 55, 52
3, 169120, Note_off_c, 0, 55, 64
3, 169120, Note_on_c, 0, 58, 63
3, 169200, Note_off_c, 0, 58, 64
3, 169200, Note_on_c, 0, 61, 51
3, 169260, Note_off_c, 0, 61, 64
3, 169260, Note_on_c, 0, 64, 55
3, 169320, Note_off_c, 0, 64, 64
3, 169320, Note_on_c, 0, 67, 56
3, 169380, Note_off_c, 0, 67, 64
3, 169380, Note_on_c, 0, 70, 58
3, 169440, Note_off_c, 0, 70, 64
3, 169440, Note_on_c, 0, 73, 55
3, 169560, Note_off_c, 0, 73, 64
3, 169920, Note_on_c, 0, 46, 59
3, 170000, Note_off_c, 0, 46, 64
3, 170000, Note_on_c, 0, 58, 58
3, 170080, Note_off_c, 0, 58, 64
3, 170080, Note_on_c, 0, 61, 51
3, 170160, Note_off_c, 0, 61, 64
3, 170160, Note_on_c, 0, 64, 52
3, 170220, Note_off_c, 0, 64, 64
3, 170220, Note_on_c, 0, 67, 62
3, 170280, Note_off_c, 0, 67, 64
3, 170280, Note_on_c, 0, 70, 58
3, 170340, Note_off_c, 0, 70, 64
3, 170340, Note_on_c, 0, 73, 68
3, 170400, Note_off_c, 0, 73, 64
3, 170400, Note_on_c, 0, 76, 59
3, 170520, Note_off_c, 0, 76, 64
3, 170880, Note_on_c, 0, 49, 29
3, 171000, Note_off_c, 0, 49, 64
3, 171000, Note_on_c, 0, 52, 25
3, 171120, Note_off_c, 0, 52, 64
3, 171120, Note_on_c, 0, 55, 32
3, 171240, Note_off_c, 0, 55, 64
3, 171240, Note_on_c, 0, 58, 32
3, 171360, Note_off_c, 0, 58, 64
3, 171360, Note_on_c, 0, 61, 32
3, 171480, Note_off_c, 0, 61, 64
3, 171480, Note_on_c, 0, 64, 26
3, 171600, Note_off_c, 0, 64, 64
3, 171600, Note_on_c, 0, 67, 28
3, 171720, Note_off_c, 0, 67, 64
3, 171720, Note_on_c, 0, 70, 35
3, 171840, Note_off_c, 0, 70, 64
3, 171840, Note_on_c, 0, 73, 32
3, 171960, Note_off_c, 0, 73, 64
3, 171960, Note_on_c, 0, 76, 35
3, 172080, Note_off_c, 0, 76, 64
3, 172080, Note_on_c, 0, 79, 29
3, 172200, Note_off_c, 0, 79, 64
3, 172200, Note_on_c, 0, 82, 28
3, 172320, Note_off_c, 0, 82, 64
3, 172320, Note_on_c, 0, 85, 32
3, 172440, Note_off_c, 0, 85, 64
3, 172440, Note_on_c, 0, 88, 32
3, 172560, Note_off_c, 0, 88, 64
3, 172560, Note_on_c, 0, 91, 32
3, 172680, Note_off_c, 0, 91, 64
3, 172680, Note_on_c, 0, 94, 32
3, 172800, Note_off_c, 0, 94, 64
3, 172800, Note_on_c, 0, 91, 32
3, 172920, Note_off_c, 0, 91, 64
3, 172920, Note_on_c, 0, 88, 32
3, 173040, Note_off_c, 0, 88, 64
3, 173040, Note_on_c, 0, 85, 35
3, 173160, Note_off_c, 0, 85, 64
3, 173160, Note_on_c, 0, 82, 32
3, 173280, Note_off_c, 0, 82, 64
3, 173280, Note_on_c, 0, 79, 29
3, 173400, Note_off_c, 0, 79, 64
3, 173400, Note_on_c, 0, 76, 32
3, 173520, Note_off_c, 0, 76, 64
3, 173520, Note_on_c, 0, 73, 35
3, 173640, Note_off_c, 0, 73, 64
3, 173640, Note_on_c, 0, 70, 25
3, 173760, Note_off_c, 0, 70, 64
3, 173760, Note_on_c, 0, 67, 29
3, 173880, Note_off_c, 0, 67, 64
3, 173880, Note_on_c, 0, 64, 28
3, 174000, Note_off_c, 0, 64, 64
3, 174000, Note_on_c, 0, 61, 34
3, 174120, Note_off_c, 0, 61, 64
3, 174120, Note_on_c, 0, 58, 35
3, 174240, Note_off_c, 0, 58, 64
3, 174240, Note_on_c, 0, 55, 32
3, 174360, Note_off_c, 0, 55, 64
3, 174360, Note_on_c, 0, 52, 28
3, 174480, Note_off_c, 0, 52, 64
3, 174480, Note_on_c, 0, 49, 32
3, 174600, Note_off_c, 0, 49, 64
3, 174600, Note_on_c, 0, 46, 30
3, 174720, Note_off_c, 0, 46, 64
3, 174720, Note_on_c, 0, 43, 29
3, 175200, Note_off_c, 0, 43, 64
3, 177600, Note_on_c, 0, 52, 44
3, 177600, Note_on_c, 0, 43, 25
3, 177600, Note_on_c, 0, 46, 48
3, 177600, Note_on_c, 0, 48, 47
3, 177960, Note_off_c, 0, 48, 64
3, 177960, Note_off_c, 0, 46, 64
3, 177960, Note_off_c, 0, 43, 64
3, 177960, Note_off_c, 0, 52, 64
3, 178560, Note_on_c, 0, 64, 47
3, 178560, Note_on_c, 0, 60, 52
3, 178560, Note_on_c, 0, 58, 44
3, 178560, Note_on_c, 0, 55, 32
3, 178920, Note_off_c, 0, 55, 64
3, 178920, Note_off_c, 0, 58, 64
3, 178920, Note_off_c, 0, 60, 64
3, 178920, Note_off_c, 0, 64, 64
3, 179040, Note_on_c, 0, 76, 59
3, 179040, Note_on_c, 0, 72, 59
3, 179040, Note_on_c, 0, 67, 44
3, 179040, Note_on_c, 0, 70, 55
3, 179400, Note_off_c, 0, 70, 64
3, 179400, Note_off_c, 0, 67, 64
3, 179400, Note_off_c, 0, 72, 64
3, 179400, Note_off_c, 0, 76, 64
3, 179520, Note_on_c, 0, 88, 70
3, 179520, Note_on_c, 0, 79, 56
3, 179520, Note_on_c, 0, 82, 58
3, 179520, Note_on_c, 0, 84, 59
3, 179880, Note_off_c, 0, 84, 64
3, 179880, Note_off_c, 0, 82, 64
3, 179880, Note_off_c, 0, 79, 64
3, 179880, Note_off_c, 0, 88, 64
3, 180000, Note_on_c, 0, 52, 50
3, 180000, Note_on_c, 0, 46, 48
3, 180000, Note_on_c, 0, 43, 31
3, 180000, Note_on_c, 0, 48, 47
3, 180360, Note_off_c, 0, 48, 64
3, 180360, Note_off_c, 0, 43, 64
3, 180360, Note_off_c, 0, 46, 64
3, 180360, Note_off_c, 0, 52, 64
3, 180540, Note_on_c, 0, 48, 15
3, 180585, Note_off_c, 0, 48, 64
3, 180600, Note_on_c, 0, 53, 21
3, 180645, Note_off_c, 0, 53, 64
3, 180660, Note_on_c, 0, 56, 28
3, 180705, Note_off_c, 0, 56, 64
3, 180720, Note_on_c, 0, 60, 26
3, 180765, Note_off_c, 0, 60, 64
3, 180780, Note_on_c, 0, 61, 30
3, 180825, Note_off_c, 0, 61, 64
3, 180840, Note_on_c, 0, 60, 30
3, 180885, Note_off_c, 0, 60, 64
3, 180900, Note_on_c, 0, 58, 28
3, 180945, Note_off_c, 0, 58, 64
3, 180960, Note_on_c, 0, 56, 25
3, 181005, Note_off_c, 0, 56, 64
3, 181020, Note_on_c, 0, 58, 17
3, 181065, Note_off_c, 0, 58, 64
3, 181080, Note_on_c, 0, 56, 30
3, 181125, Note_off_c, 0, 56, 64
3, 181140, Note_on_c, 0, 55, 20
3, 181185, Note_off_c, 0, 55, 64
3, 181200, Note_on_c, 0, 53, 28
3, 181245, Note_off_c, 0, 53, 64
3, 181260, Note_on_c, 0, 55, 20
3, 181305, Note_off_c, 0, 55, 64
3, 181320, Note_on_c, 0, 56, 26
3, 181365, Note_off_c, 0, 56, 64
3, 181380, Note_on_c, 0, 53, 13
3, 181425, Note_off_c, 0, 53, 64
3, 181500, Note_on_c, 0, 48, 18
3, 181545, Note_off_c, 0, 48, 64
3, 181560, Note_on_c, 0, 53, 21
3, 181605, Note_off_c, 0, 53, 64
3, 181620, Note_on_c, 0, 56, 21
3, 181665, Note_off_c, 0, 56, 64
3, 181680, Note_on_c, 0, 60, 21
3, 181725, Note_off_c, 0, 60, 64
3, 181740, Note_on_c, 0, 61, 28
3, 181785, Note_off_c, 0, 61, 64
3, 181800, Note_on_c, 0, 60, 28
3, 181845, Note_off_c, 0, 60, 64
3, 181860, Note_on_c, 0, 58, 28
3, 181905, Note_off_c, 0, 58, 64
3, 181920, Note_on_c, 0, 56, 32
3, 181965, Note_off_c, 0, 56, 64
3, 181980, Note_on_c, 0, 58, 26
3, 182025, Note_off_c, 0, 58, 64
3, 182040, Note_on_c, 0, 56, 28
3, 182085, Note_off_c, 0, 56, 64
3, 182100, Note_on_c, 0, 55, 24
3, 182145, Note_off_c, 0, 55, 64
3, 182160, Note_on_c, 0, 53, 28
3, 182205, Note_off_c, 0, 53, 64
3, 182220, Note_on_c, 0, 55, 23
3, 182265, Note_off_c, 0, 55, 64
3, 182280, Note_on_c, 0, 56, 32
3, 182325, Note_off_c, 0, 56, 64
3, 182340, Note_on_c, 0, 53, 21
3, 182385, Note_off_c, 0, 53, 64
3, 182460, Note_on_c, 0, 49, 22
3, 182505, Note_off_c, 0, 49, 64
3, 182520, Note_on_c, 0, 54, 21
3, 182565, Note_off_c, 0, 54, 64
3, 182580, Note_on_c, 0, 58, 16
3, 182625, Note_off_c, 0, 58, 64
3, 182640, Note_on_c, 0, 61, 26
3, 182685, Note_off_c, 0, 61, 64
3, 182700, Note_on_c, 0, 63, 34
3, 182745, Note_off_c, 0, 63, 64
3, 182760, Note_on_c, 0, 61, 23
3, 182805, Note_off_c, 0, 61, 64
3, 182820, Note_on_c, 0, 60, 23
3, 182865, Note_off_c, 0, 60, 64
3, 182880, Note_on_c, 0, 58, 28
3, 182925, Note_off_c, 0, 58, 64
3, 182940, Note_on_c, 0, 60, 21
3, 182985, Note_off_c, 0, 60, 64
3, 183000, Note_on_c, 0, 58, 26
3, 183045, Note_off_c, 0, 58, 64
3, 183060, Note_on_c, 0, 56, 19
3, 183105, Note_off_c, 0, 56, 64
3, 183120, Note_on_c, 0, 54, 28
3, 183165, Note_off_c, 0, 54, 64
3, 183180, Note_on_c, 0, 56, 26
3, 183225, Note_off_c, 0, 56, 64
3, 183240, Note_on_c, 0, 54, 21
3, 183285, Note_off_c, 0, 54, 64
3, 183300, Note_on_c, 0, 53, 25
3, 183345, Note_off_c, 0, 53, 64
3, 183360, Note_on_c, 0, 52, 31
3, 183405, Note_off_c, 0, 52, 64
3, 183420, Note_on_c, 0, 53, 32
3, 183465, Note_off_c, 0, 53, 64
3, 183480, Note_on_c, 0, 55, 26
3, 183525, Note_off_c, 0, 55, 64
3, 183540, Note_on_c, 0, 52, 30
3, 183585, Note_off_c, 0, 52, 64
3, 183600, Note_on_c, 0, 53, 32
3, 183645, Note_off_c, 0, 53, 64
3, 183660, Note_on_c, 0, 55, 33
3, 183705, Note_off_c, 0, 55, 64
3, 183720, Note_on_c, 0, 56, 37
3, 183765, Note_off_c, 0, 56, 64
3, 183780, Note_on_c, 0, 53, 33
3, 183825, Note_off_c, 0, 53, 64
3, 183840, Note_on_c, 0, 55, 47
3, 183885, Note_off_c, 0, 55, 64
3, 183900, Note_on_c, 0, 56, 54
3, 183945, Note_off_c, 0, 56, 64
3, 183960, Note_on_c, 0, 58, 50
3, 184005, Note_off_c, 0, 58, 64
3, 184020, Note_on_c, 0, 55, 44
3, 184065, Note_off_c, 0, 55, 64
3, 184080, Note_on_c, 0, 52, 52
3, 184125, Note_off_c, 0, 52, 64
3, 184140, Note_on_c, 0, 53, 48
3, 184185, Note_off_c, 0, 53, 64
3, 184200, Note_on_c, 0, 55, 47
3, 184245, Note_off_c, 0, 55, 64
3, 184260, Note_on_c, 0, 52, 52
3, 184305, Note_off_c, 0, 52, 64
3, 184320, Note_on_c, 0, 53, 30
3, 184500, Note_off_c, 0, 53, 64
3, 184680, Note_on_c, 0, 64, 39
3, 184740, Note_off_c, 0, 64, 64
3, 184800, Note_on_c, 0, 65, 47
3, 184860, Note_off_c, 0, 65, 64
3, 184920, Note_on_c, 0, 67, 50
3, 184980, Note_off_c, 0, 67, 64
3, 185040, Note_on_c, 0, 68, 58
3, 185100, Note_off_c, 0, 68, 64
3, 185160, Note_on_c, 0, 65, 41
3, 185220, Note_off_c, 0, 65, 64
3, 185640, Note_on_c, 0, 76, 56
3, 185640, Note_on_c, 0, 64, 39
3, 185700, Note_off_c, 0, 64, 64
3, 185700, Note_off_c, 0, 76, 64
3, 185760, Note_on_c, 0, 77, 59
3, 185760, Note_on_c, 0, 65, 41
3, 185820, Note_off_c, 0, 65, 64
3, 185820, Note_off_c, 0, 77, 64
3, 185880, Note_on_c, 0, 79, 59
3, 185880, Note_on_c, 0, 67, 47
3, 185940, Note_off_c, 0, 67, 64
3, 185940, Note_off_c, 0, 79, 64
3, 186000, Note_on_c, 0, 80, 58
3, 186000, Note_on_c, 0, 68, 44
3, 186060, Note_off_c, 0, 68, 64
3, 186060, Note_off_c, 0, 80, 64
3, 186120, Note_on_c, 0, 77, 44
3, 186120, Note_on_c, 0, 65, 26
3, 186180, Note_off_c, 0, 65, 64
3, 186180, Note_off_c, 0, 77, 64
3, 186600, Note_on_c, 0, 77, 50
3, 186600, Note_on_c, 0, 65, 36
3, 186660, Note_off_c, 0, 65, 64
3, 186660, Note_off_c, 0, 77, 64
3, 186720, Note_on_c, 0, 78, 63
3, 186720, Note_on_c, 0, 66, 40
3, 186780, Note_off_c, 0, 66, 64
3, 186780, Note_off_c, 0, 78, 64
3, 186840, Note_on_c, 0, 82, 63
3, 186840, Note_on_c, 0, 70, 47
3, 186900, Note_off_c, 0, 70, 64
3, 186900, Note_off_c, 0, 82, 64
3, 186960, Note_on_c, 0, 85, 63
3, 186960, Note_on_c, 0, 73, 35
3, 187020, Note_off_c, 0, 73, 64
3, 187020, Note_off_c, 0, 85, 64
3, 187080, Note_on_c, 0, 85, 63
3, 187080, Note_on_c, 0, 73, 44
3, 187140, Note_off_c, 0, 73, 64
3, 187140, Note_off_c, 0, 85, 64
3, 187200, Note_on_c, 0, 85, 74
3, 187200, Note_on_c, 0, 73, 68
3, 187320, Note_off_c, 0, 73, 64
3, 187320, Note_off_c, 0, 85, 64
3, 187440, Note_on_c, 0, 84, 59
3, 187440, Note_on_c, 0, 72, 50
3, 187680, Note_off_c, 0, 72, 64
3, 187680, Note_off_c, 0, 84, 64
3, 187920, Note_on_c, 0, 76, 59
3, 187920, Note_on_c, 0, 64, 47
3, 188040, Note_off_c, 0, 64, 64
3, 188040, Note_off_c, 0, 76, 64
3, 188160, Note_on_c, 0, 77, 47
3, 188160, Note_on_c, 0, 65, 41
3, 188220, Note_off_c, 0, 65, 64
3, 188220, Note_off_c, 0, 77, 64
3, 188220, Note_on_c, 0, 60, 41
3, 188280, Note_off_c, 0, 60, 64
3, 188280, Note_on_c, 0, 65, 39
3, 188340, Note_off_c, 0, 65, 64
3, 188340, Note_on_c, 0, 68, 38
3, 188400, Note_off_c, 0, 68, 64
3, 188400, Note_on_c, 0, 72, 59
3, 188460, Note_off_c, 0, 72, 64
3, 188460, Note_on_c, 0, 60, 10
3, 188520, Note_off_c, 0, 60, 64
3, 188520, Note_on_c, 0, 65, 36
3, 188580, Note_off_c, 0, 65, 64
3, 188580, Note_on_c, 0, 68, 35
3, 188640, Note_off_c, 0, 68, 64
3, 188700, Note_on_c, 0, 60, 47
3, 188760, Note_off_c, 0, 60, 64
3, 188760, Note_on_c, 0, 65, 44
3, 188820, Note_off_c, 0, 65, 64
3, 188820, Note_on_c, 0, 68, 40
3, 188880, Note_off_c, 0, 68, 64
3, 188880, Note_on_c, 0, 72, 59
3, 188940, Note_off_c, 0, 72, 64
3, 188940, Note_on_c, 0, 60, 23
3, 189000, Note_off_c, 0, 60, 64
3, 189000, Note_on_c, 0, 65, 44
3, 189060, Note_off_c, 0, 65, 64
3, 189060, Note_on_c, 0, 68, 32
3, 189120, Note_off_c, 0, 68, 64
3, 189180, Note_on_c, 0, 59, 43
3, 189240, Note_off_c, 0, 59, 64
3, 189240, Note_on_c, 0, 62, 36
3, 189300, Note_off_c, 0, 62, 64
3, 189300, Note_on_c, 0, 68, 50
3, 189360, Note_off_c, 0, 68, 64
3, 189360, Note_on_c, 0, 71, 59
3, 189420, Note_off_c, 0, 71, 64
3, 189420, Note_on_c, 0, 59, 45
3, 189480, Note_off_c, 0, 59, 64
3, 189480, Note_on_c, 0, 62, 50
3, 189540, Note_off_c, 0, 62, 64
3, 189540, Note_on_c, 0, 68, 47
3, 189600, Note_off_c, 0, 68, 64
3, 189600, Note_on_c, 0, 71, 59
3, 189660, Note_off_c, 0, 71, 64
3, 189660, Note_on_c, 0, 59, 19
3, 189720, Note_off_c, 0, 59, 64
3, 189720, Note_on_c, 0, 64, 31
3, 189780, Note_off_c, 0, 64, 64
3, 189780, Note_on_c, 0, 67, 34
3, 189840, Note_off_c, 0, 67, 64
3, 189840, Note_on_c, 0, 72, 62
3, 189900, Note_off_c, 0, 72, 64
3, 189900, Note_on_c, 0, 60, 47
3, 189960, Note_off_c, 0, 60, 64
3, 189960, Note_on_c, 0, 64, 42
3, 190020, Note_off_c, 0, 64, 64
3, 190020, Note_on_c, 0, 67, 36
3, 190080, Note_off_c, 0, 67, 64
3, 190140, Note_on_c, 0, 60, 44
3, 190200, Note_off_c, 0, 60, 64
3, 190200, Note_on_c, 0, 64, 42
3, 190260, Note_off_c, 0, 64, 64
3, 190260, Note_on_c, 0, 67, 44
3, 190320, Note_off_c, 0, 67, 64
3, 190320, Note_on_c, 0, 72, 56
3, 190380, Note_off_c, 0, 72, 64
3, 190380, Note_on_c, 0, 60, 47
3, 190440, Note_off_c, 0, 60, 64
3, 190440, Note_on_c, 0, 64, 47
3, 190500, Note_off_c, 0, 64, 64
3, 190500, Note_on_c, 0, 67, 41
3, 190560, Note_off_c, 0, 67, 64
3, 190620, Note_on_c, 0, 60, 36
3, 190680, Note_off_c, 0, 60, 64
3, 190680, Note_on_c, 0, 64, 42
3, 190740, Note_off_c, 0, 64, 64
3, 190740, Note_on_c, 0, 67, 52
3, 190800, Note_off_c, 0, 67, 64
3, 190800, Note_on_c, 0, 72, 62
3, 190860, Note_off_c, 0, 72, 64
3, 190860, Note_on_c, 0, 60, 32
3, 190920, Note_off_c, 0, 60, 64
3, 190920, Note_on_c, 0, 64, 42
3, 190980, Note_off_c, 0, 64, 64
3, 190980, Note_on_c, 0, 67, 36
3, 191040, Note_off_c, 0, 67, 64
3, 191100, Note_on_c, 0, 60, 50
3, 191160, Note_off_c, 0, 60, 64
3, 191160, Note_on_c, 0, 64, 52
3, 191220, Note_off_c, 0, 64, 64
3, 191220, Note_on_c, 0, 67, 56
3, 191280, Note_off_c, 0, 67, 64
3, 191280, Note_on_c, 0, 72, 59
3, 191340, Note_off_c, 0, 72, 64
3, 191340, Note_on_c, 0, 60, 41
3, 191400, Note_off_c, 0, 60, 64
3, 191400, Note_on_c, 0, 64, 42
3, 191460, Note_off_c, 0, 64, 64
3, 191460, Note_on_c, 0, 67, 29
3, 191520, Note_off_c, 0, 67, 64
3, 191520, Note_on_c, 0, 72, 52
3, 191580, Note_off_c, 0, 72, 64
3, 191580, Note_on_c, 0, 60, 41
3, 191640, Note_off_c, 0, 60, 64
3, 191640, Note_on_c, 0, 64, 44
3, 191700, Note_off_c, 0, 64, 64
3, 191700, Note_on_c, 0, 67, 41
3, 191760, Note_off_c, 0, 67, 64
3, 191760, Note_on_c, 0, 72, 59
3, 191820, Note_off_c, 0, 72, 64
3, 191820, Note_on_c, 0, 60, 47
3, 191880, Note_off_c, 0, 60, 64
3, 191880, Note_on_c, 0, 65, 56
3, 191940, Note_off_c, 0, 65, 64
3, 191940, Note_on_c, 0, 68, 55
3, 192000, Note_off_c, 0, 68, 64
3, 192060, Note_on_c, 0, 65, 47
3, 192120, Note_off_c, 0, 65, 64
3, 192120, Note_on_c, 0, 69, 50
3, 192180, Note_off_c, 0, 69, 64
3, 192180, Note_on_c, 0, 72, 59
3, 192240, Note_off_c, 0, 72, 64
3, 192240, Note_on_c, 0, 77, 62
3, 192300, Note_off_c, 0, 77, 64
3, 192300, Note_on_c, 0, 65, 52
3, 192360, Note_off_c, 0, 65, 64
3, 192360, Note_on_c, 0, 69, 56
3, 192420, Note_off_c, 0, 69, 64
3, 192420, Note_on_c, 0, 72, 47
3, 192480, Note_off_c, 0, 72, 64
3, 192540, Note_on_c, 0, 65, 56
3, 192600, Note_off_c, 0, 65, 64
3, 192600, Note_on_c, 0, 69, 62
3, 192660, Note_off_c, 0, 69, 64
3, 192660, Note_on_c, 0, 72, 56
3, 192720, Note_off_c, 0, 72, 64
3, 192720, Note_on_c, 0, 77, 59
3, 192780, Note_off_c, 0, 77, 64
3, 192780, Note_on_c, 0, 65, 59
3, 192840, Note_off_c, 0, 65, 64
3, 192840, Note_on_c, 0, 69, 62
3, 192900, Note_off_c, 0, 69, 64
3, 192900, Note_on_c, 0, 72, 59
3, 192960, Note_off_c, 0, 72, 64
3, 193020, Note_on_c, 0, 65, 59
3, 193080, Note_off_c, 0, 65, 64
3, 193080, Note_on_c, 0, 69, 59
3, 193140, Note_off_c, 0, 69, 64
3, 193140, Note_on_c, 0, 72, 59
3, 193200, Note_off_c, 0, 72, 64
3, 193200, Note_on_c, 0, 77, 62
3, 193260, Note_off_c, 0, 77, 64
3, 193260, Note_on_c, 0, 65, 59
3, 193320, Note_off_c, 0, 65, 64
3, 193320, Note_on_c, 0, 69, 59
3, 193380, Note_off_c, 0, 69, 64
3, 193380, Note_on_c, 0, 72, 56
3, 193440, Note_off_c, 0, 72, 64
3, 193440, Note_on_c, 0, 65, 39
3, 193440, Note_on_c, 0, 69, 44
3, 193500, Note_off_c, 0, 69, 64
3, 193500, Note_off_c, 0, 65, 64
3, 193500, Note_on_c, 0, 77, 56
3, 193560, Note_off_c, 0, 77, 64
3, 193560, Note_on_c, 0, 65, 52
3, 193560, Note_on_c, 0, 70, 55
3, 193620, Note_off_c, 0, 70, 64
3, 193620, Note_off_c, 0, 65, 64
3, 193620, Note_on_c, 0, 77, 59
3, 193680, Note_off_c, 0, 77, 64
3, 193680, Note_on_c, 0, 72, 59
3, 193680, Note_on_c, 0, 65, 41
3, 193740, Note_off_c, 0, 65, 64
3, 193740, Note_off_c, 0, 72, 64
3, 193740, Note_on_c, 0, 77, 47
3, 193800, Note_off_c, 0, 77, 64
3, 193800, Note_on_c, 0, 65, 34
3, 193800, Note_on_c, 0, 73, 58
3, 193860, Note_off_c, 0, 73, 64
3, 193860, Note_off_c, 0, 65, 64
3, 193860, Note_on_c, 0, 77, 52
3, 193920, Note_off_c, 0, 77, 64
3, 193980, Note_on_c, 0, 60, 44
3, 194040, Note_off_c, 0, 60, 64
3, 194040, Note_on_c, 0, 65, 50
3, 194100, Note_off_c, 0, 65, 64
3, 194100, Note_on_c, 0, 68, 58
3, 194160, Note_off_c, 0, 68, 64
3, 194160, Note_on_c, 0, 72, 62
3, 194220, Note_off_c, 0, 72, 64
3, 194220, Note_on_c, 0, 60, 50
3, 194280, Note_off_c, 0, 60, 64
3, 194280, Note_on_c, 0, 65, 50
3, 194340, Note_off_c, 0, 65, 64
3, 194340, Note_on_c, 0, 68, 38
3, 194400, Note_off_c, 0, 68, 64
3, 194400, Note_on_c, 0, 72, 62
3, 194460, Note_off_c, 0, 72, 64
3, 194460, Note_on_c, 0, 60, 47
3, 194520, Note_off_c, 0, 60, 64
3, 194520, Note_on_c, 0, 67, 56
3, 194580, Note_off_c, 0, 67, 64
3, 194580, Note_on_c, 0, 70, 55
3, 194640, Note_off_c, 0, 70, 64
3, 194640, Note_on_c, 0, 72, 59
3, 194700, Note_off_c, 0, 72, 64
3, 194700, Note_on_c, 0, 60, 52
3, 194760, Note_off_c, 0, 60, 64
3, 194760, Note_on_c, 0, 64, 55
3, 194820, Note_off_c, 0, 64, 64
3, 194820, Note_on_c, 0, 67, 50
3, 194880, Note_off_c, 0, 67, 64
3, 194880, Note_on_c, 0, 72, 52
3, 194880, Note_on_c, 0, 68, 50
3, 194880, Note_on_c, 0, 60, 39
3, 194880, Note_on_c, 0, 65, 44
3, 195120, Note_off_c, 0, 65, 64
3, 195120, Note_off_c, 0, 60, 64
3, 195120, Note_off_c, 0, 68, 64
3, 195120, Note_off_c, 0, 72, 64
3, 195300, Note_on_c, 0, 80, 55
3, 195300, Note_on_c, 0, 77, 39
3, 195360, Note_off_c, 0, 77, 64
3, 195360, Note_off_c, 0, 80, 64
3, 195360, Note_on_c, 0, 77, 70
3, 195360, Note_on_c, 0, 80, 68
3, 195600, Note_off_c, 0, 80, 64
3, 195600, Note_off_c, 0, 77, 64
3, 195780, Note_on_c, 0, 80, 58
3, 195780, Note_on_c, 0, 77, 39
3, 195840, Note_off_c, 0, 77, 64
3, 195840, Note_off_c, 0, 80, 64
3, 195840, Note_on_c, 0, 77, 75
3, 195840, Note_on_c, 0, 80, 74
3, 196320, Note_off_c, 0, 80, 64
3, 196320, Note_off_c, 0, 77, 64
3, 196320, Note_on_c, 0, 79, 52
3, 196320, Note_on_c, 0, 76, 36
3, 196440, Note_off_c, 0, 76, 64
3, 196440, Note_off_c, 0, 79, 64
3, 197220, Note_on_c, 0, 79, 44
3, 197220, Note_on_c, 0, 82, 55
3, 197280, Note_off_c, 0, 82, 64
3, 197280, Note_off_c, 0, 79, 64
3, 197280, Note_on_c, 0, 79, 53
3, 197280, Note_on_c, 0, 82, 59
3, 197520, Note_off_c, 0, 82, 64
3, 197520, Note_off_c, 0, 79, 64
3, 197700, Note_on_c, 0, 79, 44
3, 197700, Note_on_c, 0, 82, 46
3, 197760, Note_off_c, 0, 82, 64
3, 197760, Note_off_c, 0, 79, 64
3, 197760, Note_on_c, 0, 79, 60
3, 197760, Note_on_c, 0, 82, 64
3, 198240, Note_off_c, 0, 82, 64
3, 198240, Note_off_c, 0, 79, 64
3, 198240, Note_on_c, 0, 80, 44
3, 198240, Note_on_c, 0, 77, 25
3, 198360, Note_off_c, 0, 77, 64
3, 198360, Note_off_c, 0, 80, 64
3, 199140, Note_on_c, 0, 87, 59
3, 199140, Note_on_c, 0, 84, 49
3, 199200, Note_off_c, 0, 84, 64
3, 199200, Note_off_c, 0, 87, 64
3, 199200, Note_on_c, 0, 84, 53
3, 199200, Note_on_c, 0, 87, 59
3, 199440, Note_off_c, 0, 87, 64
3, 199440, Note_off_c, 0, 84, 64
3, 199620, Note_on_c, 0, 84, 47
3, 199620, Note_on_c, 0, 87, 54
3, 199680, Note_off_c, 0, 87, 64
3, 199680, Note_off_c, 0, 84, 64
3, 199680, Note_on_c, 0, 87, 59
3, 199680, Note_on_c, 0, 84, 56
3, 200232, Note_off_c, 0, 84, 64
3, 200232, Note_off_c, 0, 87, 64
3, 200280, Note_on_c, 0, 82, 37
3, 200280, Note_on_c, 0, 85, 46
3, 200400, Note_off_c, 0, 85, 64
3, 200400, Note_off_c, 0, 82, 64
3, 200400, Note_on_c, 0, 84, 37
3, 200400, Note_on_c, 0, 80, 32
3, 200520, Note_off_c, 0, 80, 64
3, 200520, Note_off_c, 0, 84, 64
3, 200520, Note_on_c, 0, 82, 37
3, 200520, Note_on_c, 0, 79, 31
3, 200640, Note_off_c, 0, 79, 64
3, 200640, Note_off_c, 0, 82, 64
3, 200640, Note_on_c, 0, 80, 46
3, 200640, Note_on_c, 0, 77, 40
3, 200880, Note_off_c, 0, 77, 64
3, 200880, Note_off_c, 0, 80, 64
3, 201060, Note_on_c, 0, 77, 35
3, 201060, Note_on_c, 0, 89, 44
3, 201060, Note_on_c, 0, 80, 44
3, 201120, Note_off_c, 0, 80, 64
3, 201120, Note_off_c, 0, 89, 64
3, 201120, Note_off_c, 0, 77, 64
3, 201120, Note_on_c, 0, 82, 46
3, 201120, Note_on_c, 0, 79, 37
3, 201120, Note_on_c, 0, 91, 49
3, 201360, Note_off_c, 0, 91, 64
3, 201360, Note_off_c, 0, 79, 64
3, 201360, Note_off_c, 0, 82, 64
3, 201540, Note_on_c, 0, 79, 41
3, 201540, Note_on_c, 0, 88, 44
3, 201540, Note_on_c, 0, 76, 31
3, 201600, Note_off_c, 0, 76, 64
3, 201600, Note_off_c, 0, 88, 64
3, 201600, Note_off_c, 0, 79, 64
3, 201600, Note_on_c, 0, 53, 30
3, 201600, Note_on_c, 0, 53, 43
3, 201600, Note_on_c, 0, 89, 44
3, 201600, Note_on_c, 0, 80, 35
3, 201600, Note_on_c, 0, 77, 20
3, 201645, Note_off_c, 0, 77, 64
3, 201645, Note_off_c, 0, 80, 64
3, 201645, Note_off_c, 0, 89, 64
3, 201645, Note_off_c, 0, 53, 64
3, 201645, Note_off_c, 0, 53, 64
3, 201660, Note_on_c, 0, 72, 41
3, 201705, Note_off_c, 0, 72, 64
3, 201720, Note_on_c, 0, 77, 32
3, 201765, Note_off_c, 0, 77, 64
3, 201780, Note_on_c, 0, 80, 37
3, 201825, Note_off_c, 0, 80, 64
3, 201840, Note_on_c, 0, 84, 47
3, 201885, Note_off_c, 0, 84, 64
3, 201900, Note_on_c, 0, 85, 50
3, 201945, Note_off_c, 0, 85, 64
3, 201960, Note_on_c, 0, 84, 40
3, 202005, Note_off_c, 0, 84, 64
3, 202020, Note_on_c, 0, 82, 40
3, 202065, Note_off_c, 0, 82, 64
3, 202080, Note_on_c, 0, 80, 40
3, 202125, Note_off_c, 0, 80, 64
3, 202140, Note_on_c, 0, 82, 37
3, 202185, Note_off_c, 0, 82, 64
3, 202200, Note_on_c, 0, 80, 40
3, 202245, Note_off_c, 0, 80, 64
3, 202260, Note_on_c, 0, 79, 31
3, 202305, Note_off_c, 0, 79, 64
3, 202320, Note_on_c, 0, 77, 27
3, 202365, Note_off_c, 0, 77, 64
3, 202380, Note_on_c, 0, 79, 25
3, 202425, Note_off_c, 0, 79, 64
3, 202440, Note_on_c, 0, 80, 37
3, 202485, Note_off_c, 0, 80, 64
3, 202500, Note_on_c, 0, 77, 31
3, 202545, Note_off_c, 0, 77, 64
3, 202620, Note_on_c, 0, 72, 27
3, 202665, Note_off_c, 0, 72, 64
3, 202680, Note_on_c, 0, 77, 35
3, 202725, Note_off_c, 0, 77, 64
3, 202740, Note_on_c, 0, 80, 35
3, 202785, Note_off_c, 0, 80, 64
3, 202800, Note_on_c, 0, 84, 44
3, 202845, Note_off_c, 0, 84, 64
3, 202860, Note_on_c, 0, 85, 44
3, 202905, Note_off_c, 0, 85, 64
3, 202920, Note_on_c, 0, 84, 41
3, 202965, Note_off_c, 0, 84, 64
3, 202980, Note_on_c, 0, 82, 37
3, 203025, Note_off_c, 0, 82, 64
3, 203040, Note_on_c, 0, 80, 40
3, 203085, Note_off_c, 0, 80, 64
3, 203100, Note_on_c, 0, 82, 44
3, 203145, Note_off_c, 0, 82, 64
3, 203160, Note_on_c, 0, 80, 40
3, 203205, Note_off_c, 0, 80, 64
3, 203220, Note_on_c, 0, 79, 37
3, 203265, Note_off_c, 0, 79, 64
3, 203280, Note_on_c, 0, 77, 31
3, 203325, Note_off_c, 0, 77, 64
3, 203340, Note_on_c, 0, 79, 18
3, 203385, Note_off_c, 0, 79, 64
3, 203400, Note_on_c, 0, 80, 30
3, 203445, Note_off_c, 0, 80, 64
3, 203460, Note_on_c, 0, 77, 25
3, 203505, Note_off_c, 0, 77, 64
3, 203580, Note_on_c, 0, 78, 44
3, 203625, Note_off_c, 0, 78, 64
3, 203640, Note_on_c, 0, 84, 35
3, 203685, Note_off_c, 0, 84, 64
3, 203700, Note_on_c, 0, 87, 44
3, 203745, Note_off_c, 0, 87, 64
3, 203760, Note_on_c, 0, 90, 46
3, 203805, Note_off_c, 0, 90, 64
3, 203820, Note_on_c, 0, 92, 50
3, 203865, Note_off_c, 0, 92, 64
3, 203880, Note_on_c, 0, 90, 44
3, 203925, Note_off_c, 0, 90, 64
3, 203940, Note_on_c, 0, 89, 35
3, 203985, Note_off_c, 0, 89, 64
3, 204000, Note_on_c, 0, 87, 30
3, 204045, Note_off_c, 0, 87, 64
3, 204060, Note_on_c, 0, 89, 31
3, 204105, Note_off_c, 0, 89, 64
3, 204120, Note_on_c, 0, 87, 35
3, 204165, Note_off_c, 0, 87, 64
3, 204180, Note_on_c, 0, 85, 32
3, 204225, Note_off_c, 0, 85, 64
3, 204240, Note_on_c, 0, 84, 40
3, 204285, Note_off_c, 0, 84, 64
3, 204300, Note_on_c, 0, 85, 44
3, 204345, Note_off_c, 0, 85, 64
3, 204360, Note_on_c, 0, 87, 35
3, 204405, Note_off_c, 0, 87, 64
3, 204420, Note_on_c, 0, 84, 24
3, 204465, Note_off_c, 0, 84, 64
3, 204540, Note_on_c, 0, 78, 40
3, 204585, Note_off_c, 0, 78, 64
3, 204600, Note_on_c, 0, 84, 31
3, 204645, Note_off_c, 0, 84, 64
3, 204660, Note_on_c, 0, 87, 44
3, 204705, Note_off_c, 0, 87, 64
3, 204720, Note_on_c, 0, 90, 37
3, 204765, Note_off_c, 0, 90, 64
3, 204780, Note_on_c, 0, 92, 40
3, 204825, Note_off_c, 0, 92, 64
3, 204840, Note_on_c, 0, 90, 44
3, 204885, Note_off_c, 0, 90, 64
3, 204900, Note_on_c, 0, 89, 28
3, 204945, Note_off_c, 0, 89, 64
3, 204960, Note_on_c, 0, 87, 35
3, 205005, Note_off_c, 0, 87, 64
3, 205020, Note_on_c, 0, 89, 32
3, 205065, Note_off_c, 0, 89, 64
3, 205080, Note_on_c, 0, 87, 37
3, 205125, Note_off_c, 0, 87, 64
3, 205140, Note_on_c, 0, 85, 32
3, 205185, Note_off_c, 0, 85, 64
3, 205200, Note_on_c, 0, 84, 37
3, 205245, Note_off_c, 0, 84, 64
3, 205260, Note_on_c, 0, 82, 40
3, 205305, Note_off_c, 0, 82, 64
3, 205320, Note_on_c, 0, 80, 37
3, 205365, Note_off_c, 0, 80, 64
3, 205380, Note_on_c, 0, 78, 35
3, 205425, Note_off_c, 0, 78, 64
3, 205440, Note_on_c, 0, 77, 37
3, 205485, Note_off_c, 0, 77, 64
3, 205500, Note_on_c, 0, 80, 44
3, 205545, Note_off_c, 0, 80, 64
3, 205560, Note_on_c, 0, 85, 40
3, 205605, Note_off_c, 0, 85, 64
3, 205620, Note_on_c, 0, 89, 41
3, 205665, Note_off_c, 0, 89, 64
3, 205680, Note_on_c, 0, 92, 40
3, 205725, Note_off_c, 0, 92, 64
3, 205740, Note_on_c, 0, 94, 35
3, 205785, Note_off_c, 0, 94, 64
3, 205800, Note_on_c, 0, 92, 37
3, 205845, Note_off_c, 0, 92, 64
3, 205860, Note_on_c, 0, 90, 40
3, 205905, Note_off_c, 0, 90, 64
3, 205920, Note_on_c, 0, 89, 56
3, 205965, Note_off_c, 0, 89, 64
3, 205980, Note_on_c, 0, 90, 55
3, 206025, Note_off_c, 0, 90, 64
3, 206040, Note_on_c, 0, 89, 50
3, 206085, Note_off_c, 0, 89, 64
3, 206100, Note_on_c, 0, 87, 47
3, 206145, Note_off_c, 0, 87, 64
3, 206160, Note_on_c, 0, 85, 55
3, 206205, Note_off_c, 0, 85, 64
3, 206220, Note_on_c, 0, 87, 55
3, 206265, Note_off_c, 0, 87, 64
3, 206280, Note_on_c, 0, 89, 47
3, 206325, Note_off_c, 0, 89, 64
3, 206340, Note_on_c, 0, 85, 47
3, 206385, Note_off_c, 0, 85, 64
3, 206460, Note_on_c, 0, 80, 40
3, 206505, Note_off_c, 0, 80, 64
3, 206520, Note_on_c, 0, 85, 40
3, 206565, Note_off_c, 0, 85, 64
3, 206580, Note_on_c, 0, 89, 44
3, 206625, Note_off_c, 0, 89, 64
3, 206640, Note_on_c, 0, 92, 58
3, 206685, Note_off_c, 0, 92, 64
3, 206700, Note_on_c, 0, 94, 50
3, 206745, Note_off_c, 0, 94, 64
3, 206760, Note_on_c, 0, 92, 55
3, 206805, Note_off_c, 0, 92, 64
3, 206820, Note_on_c, 0, 90, 50
3, 206865, Note_off_c, 0, 90, 64
3, 206880, Note_on_c, 0, 89, 50
3, 206925, Note_off_c, 0, 89, 64
3, 206940, Note_on_c, 0, 90, 47
3, 206985, Note_off_c, 0, 90, 64
3, 207000, Note_on_c, 0, 92, 58
3, 207045, Note_off_c, 0, 92, 64
3, 207060, Note_on_c, 0, 90, 50
3, 207105, Note_off_c, 0, 90, 64
3, 207120, Note_on_c, 0, 89, 41
3, 207165, Note_off_c, 0, 89, 64
3, 207180, Note_on_c, 0, 90, 47
3, 207225, Note_off_c, 0, 90, 64
3, 207240, Note_on_c, 0, 92, 47
3, 207285, Note_off_c, 0, 92, 64
3, 207300, Note_on_c, 0, 89, 39
3, 207345, Note_off_c, 0, 89, 64
3, 207420, Note_on_c, 0, 90, 58
3, 207465, Note_off_c, 0, 90, 64
3, 207480, Note_on_c, 0, 92, 38
3, 207525, Note_off_c, 0, 92, 64
3, 207540, Note_on_c, 0, 90, 44
3, 207585, Note_off_c, 0, 90, 64
3, 207600, Note_on_c, 0, 92, 50
3, 207645, Note_off_c, 0, 92, 64
3, 207660, Note_on_c, 0, 90, 40
3, 207705, Note_off_c, 0, 90, 64
3, 207720, Note_on_c, 0, 89, 41
3, 207765, Note_off_c, 0, 89, 64
3, 207780, Note_on_c, 0, 90, 40
3, 207825, Note_off_c, 0, 90, 64
3, 207900, Note_on_c, 0, 88, 34
3, 207945, Note_off_c, 0, 88, 64
3, 207960, Note_on_c, 0, 89, 34
3, 208005, Note_off_c, 0, 89, 64
3, 208020, Note_on_c, 0, 88, 26
3, 208065, Note_off_c, 0, 88, 64
3, 208140, Note_on_c, 0, 89, 41
3, 208185, Note_off_c, 0, 89, 64
3, 208200, Note_on_c, 0, 91, 31
3, 208245, Note_off_c, 0, 91, 64
3, 208260, Note_on_c, 0, 89, 36
3, 208305, Note_off_c, 0, 89, 64
3, 208380, Note_on_c, 0, 90, 63
3, 208425, Note_off_c, 0, 90, 64
3, 208440, Note_on_c, 0, 92, 44
3, 208485, Note_off_c, 0, 92, 64
3, 208500, Note_on_c, 0, 90, 35
3, 208545, Note_off_c, 0, 90, 64
3, 208560, Note_on_c, 0, 92, 47
3, 208605, Note_off_c, 0, 92, 64
3, 208620, Note_on_c, 0, 90, 50
3, 208665, Note_off_c, 0, 90, 64
3, 208680, Note_on_c, 0, 89, 32
3, 208725, Note_off_c, 0, 89, 64
3, 208740, Note_on_c, 0, 90, 38
3, 208785, Note_off_c, 0, 90, 64
3, 208860, Note_on_c, 0, 88, 36
3, 208905, Note_off_c, 0, 88, 64
3, 208920, Note_on_c, 0, 89, 29
3, 208965, Note_off_c, 0, 89, 64
3, 208980, Note_on_c, 0, 88, 34
3, 209025, Note_off_c, 0, 88, 64
3, 209100, Note_on_c, 0, 89, 47
3, 209145, Note_off_c, 0, 89, 64
3, 209160, Note_on_c, 0, 91, 44
3, 209205, Note_off_c, 0, 91, 64
3, 209220, Note_on_c, 0, 89, 39
3, 209265, Note_off_c, 0, 89, 64
3, 209340, Note_on_c, 0, 90, 63
3, 209385, Note_off_c, 0, 90, 64
3, 209400, Note_on_c, 0, 92, 44
3, 209445, Note_off_c, 0, 92, 64
3, 209460, Note_on_c, 0, 90, 43
3, 209505, Note_off_c, 0, 90, 64
3, 209520, Note_on_c, 0, 92, 43
3, 209565, Note_off_c, 0, 92, 64
3, 209580, Note_on_c, 0, 90, 43
3, 209625, Note_off_c, 0, 90, 64
3, 209640, Note_on_c, 0, 89, 43
3, 209685, Note_off_c, 0, 89, 64
3, 209700, Note_on_c, 0, 91, 43
3, 209745, Note_off_c, 0, 91, 64
3, 209820, Note_on_c, 0, 88, 54
3, 209865, Note_off_c, 0, 88, 64
3, 209880, Note_on_c, 0, 89, 37
3, 209925, Note_off_c, 0, 89, 64
3, 209940, Note_on_c, 0, 88, 29
3, 209985, Note_off_c, 0, 88, 64
3, 210060, Note_on_c, 0, 85, 47
3, 210105, Note_off_c, 0, 85, 64
3, 210120, Note_on_c, 0, 87, 38
3, 210165, Note_off_c, 0, 87, 64
3, 210180, Note_on_c, 0, 85, 37
3, 210225, Note_off_c, 0, 85, 64
3, 210300, Note_on_c, 0, 84, 48
3, 210345, Note_off_c, 0, 84, 64
3, 210360, Note_on_c, 0, 85, 43
3, 210405, Note_off_c, 0, 85, 64
3, 210420, Note_on_c, 0, 84, 33
3, 210465, Note_off_c, 0, 84, 64
3, 210540, Note_on_c, 0, 83, 43
3, 210585, Note_off_c, 0, 83, 64
3, 210600, Note_on_c, 0, 84, 47
3, 210645, Note_off_c, 0, 84, 64
3, 210660, Note_on_c, 0, 83, 40
3, 210705, Note_off_c, 0, 83, 64
3, 210780, Note_on_c, 0, 82, 52
3, 210825, Note_off_c, 0, 82, 64
3, 210840, Note_on_c, 0, 84, 50
3, 210885, Note_off_c, 0, 84, 64
3, 210900, Note_on_c, 0, 82, 48
3, 210945, Note_off_c, 0, 82, 64
3, 211020, Note_on_c, 0, 80, 33
3, 211065, Note_off_c, 0, 80, 64
3, 211080, Note_on_c, 0, 82, 38
3, 211125, Note_off_c, 0, 82, 64
3, 211140, Note_on_c, 0, 80, 25
3, 211185, Note_off_c, 0, 80, 64
3, 211260, Note_on_c, 0, 80, 34
3, 211305, Note_off_c, 0, 80, 64
3, 211320, Note_on_c, 0, 82, 32
3, 211365, Note_off_c, 0, 82, 64
3, 211380, Note_on_c, 0, 80, 37
3, 211425, Note_off_c, 0, 80, 64
3, 211500, Note_on_c, 0, 79, 39
3, 211545, Note_off_c, 0, 79, 64
3, 211560, Note_on_c, 0, 80, 37
3, 211605, Note_off_c, 0, 80, 64
3, 211620, Note_on_c, 0, 79, 30
3, 211665, Note_off_c, 0, 79, 64
3, 211740, Note_on_c, 0, 77, 43
3, 211785, Note_off_c, 0, 77, 64
3, 211800, Note_on_c, 0, 79, 48
3, 211845, Note_off_c, 0, 79, 64
3, 211860, Note_on_c, 0, 77, 39
3, 211905, Note_off_c, 0, 77, 64
3, 211980, Note_on_c, 0, 76, 38
3, 212025, Note_off_c, 0, 76, 64
3, 212040, Note_on_c, 0, 77, 40
3, 212085, Note_off_c, 0, 77, 64
3, 212100, Note_on_c, 0, 76, 38
3, 212145, Note_off_c, 0, 76, 64
3, 212220, Note_on_c, 0, 61, 31
3, 212280, Note_off_c, 0, 61, 64
3, 212280, Note_on_c, 0, 73, 47
3, 212340, Note_off_c, 0, 73, 64
3, 212340, Note_on_c, 0, 61, 44
3, 212400, Note_off_c, 0, 61, 64
3, 212400, Note_on_c, 0, 73, 40
3, 212460, Note_off_c, 0, 73, 64
3, 212460, Note_on_c, 0, 61, 39
3, 212520, Note_off_c, 0, 61, 64
3, 212520, Note_on_c, 0, 73, 35
3, 212580, Note_off_c, 0, 73, 64
3, 212580, Note_on_c, 0, 61, 24
3, 212640, Note_off_c, 0, 61, 64
3, 212700, Note_on_c, 0, 61, 39
3, 212760, Note_off_c, 0, 61, 64
3, 212760, Note_on_c, 0, 73, 50
3, 212820, Note_off_c, 0, 73, 64
3, 212820, Note_on_c, 0, 72, 36
3, 212880, Note_off_c, 0, 72, 64
3, 212880, Note_on_c, 0, 70, 50
3, 212940, Note_off_c, 0, 70, 64
3, 212940, Note_on_c, 0, 68, 44
3, 213000, Note_off_c, 0, 68, 64
3, 213000, Note_on_c, 0, 67, 52
3, 213060, Note_off_c, 0, 67, 64
3, 213060, Note_on_c, 0, 65, 44
3, 213120, Note_off_c, 0, 65, 64
3, 213180, Note_on_c, 0, 73, 63
3, 213240, Note_off_c, 0, 73, 64
3, 213240, Note_on_c, 0, 85, 58
3, 213300, Note_off_c, 0, 85, 64
3, 213300, Note_on_c, 0, 73, 47
3, 213360, Note_off_c, 0, 73, 64
3, 213360, Note_on_c, 0, 85, 40
3, 213420, Note_off_c, 0, 85, 64
3, 213420, Note_on_c, 0, 73, 19
3, 213480, Note_off_c, 0, 73, 64
3, 213480, Note_on_c, 0, 85, 44
3, 213540, Note_off_c, 0, 85, 64
3, 213540, Note_on_c, 0, 73, 22
3, 213600, Note_off_c, 0, 73, 64
3, 213660, Note_on_c, 0, 73, 47
3, 213720, Note_off_c, 0, 73, 64
3, 213720, Note_on_c, 0, 85, 58
3, 213780, Note_off_c, 0, 85, 64
3, 213780, Note_on_c, 0, 84, 52
3, 213840, Note_off_c, 0, 84, 64
3, 213840, Note_on_c, 0, 82, 29
3, 213900, Note_off_c, 0, 82, 64
3, 213900, Note_on_c, 0, 80, 29
3, 213960, Note_off_c, 0, 80, 64
3, 213960, Note_on_c, 0, 79, 36
3, 214020, Note_off_c, 0, 79, 64
3, 214020, Note_on_c, 0, 77, 21
3, 214080, Note_off_c, 0, 77, 64
3, 214140, Note_on_c, 0, 61, 54
3, 214200, Note_off_c, 0, 61, 64
3, 214200, Note_on_c, 0, 73, 50
3, 214260, Note_off_c, 0, 73, 64
3, 214260, Note_on_c, 0, 61, 36
3, 214320, Note_off_c, 0, 61, 64
3, 214320, Note_on_c, 0, 73, 32
3, 214380, Note_off_c, 0, 73, 64
3, 214380, Note_on_c, 0, 61, 16
3, 214440, Note_off_c, 0, 61, 64
3, 214440, Note_on_c, 0, 73, 27
3, 214500, Note_off_c, 0, 73, 64
3, 214500, Note_on_c, 0, 61, 8
3, 214560, Note_off_c, 0, 61, 64
3, 214620, Note_on_c, 0, 73, 50
3, 214680, Note_off_c, 0, 73, 64
3, 214680, Note_on_c, 0, 61, 39
3, 214740, Note_off_c, 0, 61, 64
3, 214740, Note_on_c, 0, 73, 29
3, 214800, Note_off_c, 0, 73, 64
3, 214860, Note_on_c, 0, 85, 58
3, 214920, Note_off_c, 0, 85, 64
3, 214920, Note_on_c, 0, 73, 27
3, 214980, Note_off_c, 0, 73, 64
3, 214980, Note_on_c, 0, 85, 29
3, 215040, Note_off_c, 0, 85, 64
3, 215100, Note_on_c, 0, 84, 59
3, 215160, Note_off_c, 0, 84, 64
3, 215160, Note_on_c, 0, 72, 23
3, 215220, Note_off_c, 0, 72, 64
3, 215220, Note_on_c, 0, 84, 16
3, 215280, Note_off_c, 0, 84, 64
3, 215340, Note_on_c, 0, 83, 59
3, 215400, Note_off_c, 0, 83, 64
3, 215400, Note_on_c, 0, 71, 39
3, 215460, Note_off_c, 0, 71, 64
3, 215460, Note_on_c, 0, 83, 41
3, 215520, Note_off_c, 0, 83, 64
3, 215580, Note_on_c, 0, 82, 63
3, 215640, Note_off_c, 0, 82, 64
3, 215640, Note_on_c, 0, 70, 47
3, 215700, Note_off_c, 0, 70, 64
3, 215700, Note_on_c, 0, 82, 55
3, 215760, Note_off_c, 0, 82, 64
3, 215820, Note_on_c, 0, 80, 58
3, 215880, Note_off_c, 0, 80, 64
3, 215880, Note_on_c, 0, 68, 47
3, 215880, Note_on_c, 0, 72, 47
3, 215940, Note_off_c, 0, 72, 64
3, 215940, Note_off_c, 0, 68, 64
3, 215940, Note_on_c, 0, 80, 68
3, 216000, Note_off_c, 0, 80, 64
3, 216060, Note_on_c, 0, 80, 68
3, 216120, Note_off_c, 0, 80, 64
3, 216120, Note_on_c, 0, 68, 55
3, 216120, Note_on_c, 0, 74, 47
3, 216180, Note_off_c, 0, 74, 64
3, 216180, Note_off_c, 0, 68, 64
3, 216180, Note_on_c, 0, 80, 63
3, 216240, Note_off_c, 0, 80, 64
3, 216300, Note_on_c, 0, 79, 67
3, 216360, Note_off_c, 0, 79, 64
3, 216360, Note_on_c, 0, 74, 59
3, 216360, Note_on_c, 0, 67, 47
3, 216420, Note_off_c, 0, 67, 64
3, 216420, Note_off_c, 0, 74, 64
3, 216420, Note_on_c, 0, 79, 52
3, 216480, Note_off_c, 0, 79, 64
3, 216540, Note_on_c, 0, 77, 67
3, 216600, Note_off_c, 0, 77, 64
3, 216600, Note_on_c, 0, 68, 63
3, 216600, Note_on_c, 0, 65, 52
3, 216660, Note_off_c, 0, 65, 64
3, 216660, Note_off_c, 0, 68, 64
3, 216660, Note_on_c, 0, 77, 62
3, 216720, Note_off_c, 0, 77, 64
3, 216780, Note_on_c, 0, 76, 75
3, 216840, Note_off_c, 0, 76, 64
3, 216840, Note_on_c, 0, 67, 70
3, 216840, Note_on_c, 0, 64, 58
3, 216900, Note_off_c, 0, 64, 64
3, 216900, Note_off_c, 0, 67, 64
3, 216900, Note_on_c, 0, 76, 62
3, 216960, Note_off_c, 0, 76, 64
3, 216960, Note_on_c, 0, 77, 67
3, 216960, Note_on_c, 0, 68, 55
3, 216960, Note_on_c, 0, 65, 50
3, 217020, Note_off_c, 0, 65, 64
3, 217020, Note_off_c, 0, 68, 64
3, 217020, Note_off_c, 0, 77, 64
3, 217020, Note_on_c, 0, 60, 52
3, 217080, Note_off_c, 0, 60, 64
3, 217080, Note_on_c, 0, 65, 52
3, 217140, Note_off_c, 0, 65, 64
3, 217140, Note_on_c, 0, 68, 50
3, 217200, Note_off_c, 0, 68, 64
3, 217200, Note_on_c, 0, 72, 59
3, 217260, Note_off_c, 0, 72, 64
3, 217260, Note_on_c, 0, 73, 55
3, 217320, Note_off_c, 0, 73, 64
3, 217320, Note_on_c, 0, 72, 52
3, 217380, Note_off_c, 0, 72, 64
3, 217380, Note_on_c, 0, 70, 50
3, 217440, Note_off_c, 0, 70, 64
3, 217440, Note_on_c, 0, 68, 55
3, 217500, Note_off_c, 0, 68, 64
3, 217500, Note_on_c, 0, 70, 47
3, 217560, Note_off_c, 0, 70, 64
3, 217560, Note_on_c, 0, 68, 47
3, 217620, Note_off_c, 0, 68, 64
3, 217620, Note_on_c, 0, 67, 50
3, 217680, Note_off_c, 0, 67, 64
3, 217680, Note_on_c, 0, 65, 56
3, 217740, Note_off_c, 0, 65, 64
3, 217740, Note_on_c, 0, 63, 50
3, 217800, Note_off_c, 0, 63, 64
3, 217800, Note_on_c, 0, 61, 44
3, 217860, Note_off_c, 0, 61, 64
3, 217860, Note_on_c, 0, 60, 47
3, 217920, Note_off_c, 0, 60, 64
3, 217920, Note_on_c, 0, 58, 55
3, 217980, Note_off_c, 0, 58, 64
3, 217980, Note_on_c, 0, 56, 62
3, 218040, Note_off_c, 0, 56, 64
3, 218040, Note_on_c, 0, 55, 50
3, 218100, Note_off_c, 0, 55, 64
3, 218100, Note_on_c, 0, 53, 60
3, 218160, Note_off_c, 0, 53, 64
3, 218160, Note_on_c, 0, 52, 56
3, 218220, Note_off_c, 0, 52, 64
3, 218280, Note_on_c, 0, 58, 63
3, 218280, Note_on_c, 0, 48, 62
3, 218280, Note_on_c, 0, 60, 67
3, 218280, Note_on_c, 0, 52, 70
3, 218280, Note_on_c, 0, 55, 59
3, 218340, Note_off_c, 0, 55, 64
3, 218340, Note_off_c, 0, 52, 64
3, 218340, Note_off_c, 0, 60, 64
3, 218340, Note_off_c, 0, 48, 64
3, 218340, Note_off_c, 0, 58, 64
3, 218400, Note_on_c, 0, 58, 55
3, 218400, Note_on_c, 0, 60, 52
3, 218400, Note_on_c, 0, 48, 44
3, 218400, Note_on_c, 0, 52, 59
3, 218460, Note_off_c, 0, 52, 64
3, 218460, Note_off_c, 0, 48, 64
3, 218460, Note_off_c, 0, 60, 64
3, 218460, Note_off_c, 0, 58, 64
3, 218520, Note_on_c, 0, 58, 58
3, 218520, Note_on_c, 0, 60, 52
3, 218520, Note_on_c, 0, 48, 44
3, 218520, Note_on_c, 0, 52, 62
3, 218580, Note_off_c, 0, 52, 64
3, 218580, Note_off_c, 0, 48, 64
3, 218580, Note_off_c, 0, 60, 64
3, 218580, Note_off_c, 0, 58, 64
3, 218640, Note_on_c, 0, 58, 55
3, 218640, Note_on_c, 0, 48, 41
3, 218640, Note_on_c, 0, 60, 52
3, 218640, Note_on_c, 0, 52, 59
3, 218700, Note_off_c, 0, 52, 64
3, 218700, Note_off_c, 0, 60, 64
3, 218700, Note_off_c, 0, 48, 64
3, 218700, Note_off_c, 0, 58, 64
3, 218760, Note_on_c, 0, 58, 63
3, 218760, Note_on_c, 0, 52, 62
3, 218760, Note_on_c, 0, 48, 50
3, 218760, Note_on_c, 0, 60, 50
3, 218820, Note_off_c, 0, 60, 64
3, 218820, Note_off_c, 0, 48, 64
3, 218820, Note_off_c, 0, 52, 64
3, 218820, Note_off_c, 0, 58, 64
3, 218880, Note_on_c, 0, 60, 70
3, 218880, Note_on_c, 0, 53, 74
3, 218880, Note_on_c, 0, 48, 70
3, 218880, Note_on_c, 0, 56, 78
3, 218940, Note_off_c, 0, 56, 64
3, 218940, Note_off_c, 0, 48, 64
3, 218940, Note_off_c, 0, 53, 64
3, 218940, Note_off_c, 0, 60, 64
3, 218940, Note_on_c, 0, 72, 56
3, 219000, Note_off_c, 0, 72, 64
3, 219000, Note_on_c, 0, 77, 50
3, 219060, Note_off_c, 0, 77, 64
3, 219060, Note_on_c, 0, 80, 63
3, 219120, Note_off_c, 0, 80, 64
3, 219120, Note_on_c, 0, 84, 62
3, 219180, Note_off_c, 0, 84, 64
3, 219180, Note_on_c, 0, 85, 58
3, 219240, Note_off_c, 0, 85, 64
3, 219240, Note_on_c, 0, 84, 56
3, 219300, Note_off_c, 0, 84, 64
3, 219300, Note_on_c, 0, 82, 38
3, 219360, Note_off_c, 0, 82, 64
3, 219360, Note_on_c, 0, 80, 50
3, 219420, Note_off_c, 0, 80, 64
3, 219420, Note_on_c, 0, 82, 55
3, 219480, Note_off_c, 0, 82, 64
3, 219480, Note_on_c, 0, 80, 50
3, 219540, Note_off_c, 0, 80, 64
3, 219540, Note_on_c, 0, 79, 47
3, 219600, Note_off_c, 0, 79, 64
3, 219600, Note_on_c, 0, 77, 56
3, 219660, Note_off_c, 0, 77, 64
3, 219660, Note_on_c, 0, 75, 38
3, 219720, Note_off_c, 0, 75, 64
3, 219720, Note_on_c, 0, 73, 38
3, 219780, Note_off_c, 0, 73, 64
3, 219780, Note_on_c, 0, 72, 50
3, 219840, Note_off_c, 0, 72, 64
3, 219840, Note_on_c, 0, 70, 55
3, 219900, Note_off_c, 0, 70, 64
3, 219900, Note_on_c, 0, 68, 44
3, 219960, Note_off_c, 0, 68, 64
3, 219960, Note_on_c, 0, 67, 44
3, 220020, Note_off_c, 0, 67, 64
3, 220020, Note_on_c, 0, 65, 50
3, 220080, Note_off_c, 0, 65, 64
3, 220080, Note_on_c, 0, 64, 55
3, 220140, Note_off_c, 0, 64, 64
3, 220200, Note_on_c, 0, 72, 59
3, 220200, Note_on_c, 0, 60, 52
3, 220200, Note_on_c, 0, 64, 55
3, 220200, Note_on_c, 0, 67, 62
3, 220260, Note_off_c, 0, 67, 64
3, 220260, Note_off_c, 0, 64, 64
3, 220260, Note_off_c, 0, 60, 64
3, 220260, Note_off_c, 0, 72, 64
3, 220320, Note_on_c, 0, 60, 50
3, 220320, Note_on_c, 0, 70, 50
3, 220320, Note_on_c, 0, 72, 47
3, 220320, Note_on_c, 0, 64, 47
3, 220380, Note_off_c, 0, 64, 64
3, 220380, Note_off_c, 0, 72, 64
3, 220380, Note_off_c, 0, 70, 64
3, 220380, Note_off_c, 0, 60, 64
3, 220440, Note_on_c, 0, 72, 44
3, 220440, Note_on_c, 0, 60, 41
3, 220440, Note_on_c, 0, 64, 49
3, 220440, Note_on_c, 0, 70, 47
3, 220500, Note_off_c, 0, 70, 64
3, 220500, Note_off_c, 0, 64, 64
3, 220500, Note_off_c, 0, 60, 64
3, 220500, Note_off_c, 0, 72, 64
3, 220560, Note_on_c, 0, 70, 38
3, 220560, Note_on_c, 0, 60, 31
3, 220560, Note_on_c, 0, 64, 40
3, 220560, Note_on_c, 0, 72, 36
3, 220620, Note_off_c, 0, 72, 64
3, 220620, Note_off_c, 0, 64, 64
3, 220620, Note_off_c, 0, 60, 64
3, 220620, Note_off_c, 0, 70, 64
3, 220680, Note_on_c, 0, 60, 36
3, 220680, Note_on_c, 0, 72, 39
3, 220680, Note_on_c, 0, 64, 47
3, 220680, Note_on_c, 0, 70, 35
3, 220740, Note_off_c, 0, 70, 64
3, 220740, Note_off_c, 0, 64, 64
3, 220740, Note_off_c, 0, 72, 64
3, 220740, Note_off_c, 0, 60, 64
3, 220800, Note_on_c, 0, 72, 59
3, 220800, Note_on_c, 0, 60, 50
3, 220800, Note_on_c, 0, 65, 56
3, 220800, Note_on_c, 0, 68, 58
3, 221040, Note_off_c, 0, 68, 64
3, 221040, Note_off_c, 0, 65, 64
3, 221040, Note_off_c, 0, 60, 64
3, 221040, Note_off_c, 0, 72, 64
3, 221160, Note_on_c, 0, 72, 56
3, 221160, Note_on_c, 0, 84, 59
3, 221160, Note_on_c, 0, 80, 68
3, 221160, Note_on_c, 0, 77, 62
3, 221220, Note_off_c, 0, 77, 64
3, 221220, Note_off_c, 0, 80, 64
3, 221220, Note_off_c, 0, 84, 64
3, 221220, Note_off_c, 0, 72, 64
3, 221280, Note_on_c, 0, 72, 47
3, 221280, Note_on_c, 0, 82, 63
3, 221280, Note_on_c, 0, 84, 52
3, 221280, Note_on_c, 0, 76, 59
3, 221340, Note_off_c, 0, 76, 64
3, 221340, Note_off_c, 0, 84, 64
3, 221340, Note_off_c, 0, 82, 64
3, 221340, Note_off_c, 0, 72, 64
3, 221400, Note_on_c, 0, 72, 50
3, 221400, Note_on_c, 0, 82, 63
3, 221400, Note_on_c, 0, 84, 50
3, 221400, Note_on_c, 0, 76, 59
3, 221460, Note_off_c, 0, 76, 64
3, 221460, Note_off_c, 0, 84, 64
3, 221460, Note_off_c, 0, 82, 64
3, 221460, Note_off_c, 0, 72, 64
3, 221520, Note_on_c, 0, 72, 50
3, 221520, Note_on_c, 0, 84, 59
3, 221520, Note_on_c, 0, 82, 55
3, 221520, Note_on_c, 0, 76, 56
3, 221580, Note_off_c, 0, 76, 64
3, 221580, Note_off_c, 0, 82, 64
3, 221580, Note_off_c, 0, 84, 64
3, 221580, Note_off_c, 0, 72, 64
3, 221640, Note_on_c, 0, 72, 52
3, 221640, Note_on_c, 0, 82, 58
3, 221640, Note_on_c, 0, 84, 59
3, 221640, Note_on_c, 0, 76, 56
3, 221700, Note_off_c, 0, 76, 64
3, 221700, Note_off_c, 0, 84, 64
3, 221700, Note_off_c, 0, 82, 64
3, 221700, Note_off_c, 0, 72, 64
3, 221760, Note_on_c, 0, 72, 52
3, 221760, Note_on_c, 0, 84, 56
3, 221760, Note_on_c, 0, 77, 56
3, 221760, Note_on_c, 0, 80, 58
3, 222000, Note_off_c, 0, 80, 64
3, 222000, Note_off_c, 0, 77, 64
3, 222000, Note_off_c, 0, 84, 64
3, 222000, Note_off_c, 0, 72, 64
3, 222120, Note_on_c, 0, 72, 67
3, 222120, Note_on_c, 0, 60, 62
3, 222120, Note_on_c, 0, 65, 62
3, 222120, Note_on_c, 0, 68, 63
3, 222240, Note_off_c, 0, 68, 64
3, 222240, Note_off_c, 0, 65, 64
3, 222240, Note_off_c, 0, 60, 64
3, 222240, Note_off_c, 0, 72, 64
3, 222240, Note_on_c, 0, 70, 50
3, 222240, Note_on_c, 0, 72, 47
3, 222240, Note_on_c, 0, 60, 41
3, 222240, Note_on_c, 0, 64, 44
3, 222300, Note_off_c, 0, 64, 64
3, 222300, Note_off_c, 0, 60, 64
3, 222300, Note_off_c, 0, 72, 64
3, 222300, Note_off_c, 0, 70, 64
3, 222360, Note_on_c, 0, 60, 56
3, 222360, Note_on_c, 0, 70, 55
3, 222360, Note_on_c, 0, 64, 55
3, 222360, Note_on_c, 0, 72, 52
3, 222420, Note_off_c, 0, 72, 64
3, 222420, Note_off_c, 0, 64, 64
3, 222420, Note_off_c, 0, 70, 64
3, 222420, Note_off_c, 0, 60, 64
3, 222480, Note_on_c, 0, 64, 58
3, 222480, Note_on_c, 0, 60, 52
3, 222480, Note_on_c, 0, 72, 56
3, 222480, Note_on_c, 0, 70, 55
3, 222540, Note_off_c, 0, 70, 64
3, 222540, Note_off_c, 0, 72, 64
3, 222540, Note_off_c, 0, 60, 64
3, 222540, Note_off_c, 0, 64, 64
3, 222600, Note_on_c, 0, 64, 55
3, 222600, Note_on_c, 0, 70, 58
3, 222600, Note_on_c, 0, 60, 52
3, 222600, Note_on_c, 0, 72, 47
3, 222660, Note_off_c, 0, 72, 64
3, 222660, Note_off_c, 0, 60, 64
3, 222660, Note_off_c, 0, 70, 64
3, 222660, Note_off_c, 0, 64, 64
3, 222720, Note_on_c, 0, 72, 62
3, 222720, Note_on_c, 0, 65, 62
3, 222720, Note_on_c, 0, 60, 56
3, 222720, Note_on_c, 0, 68, 63
3, 222780, Note_off_c, 0, 68, 64
3, 222780, Note_off_c, 0, 60, 64
3, 222780, Note_off_c, 0, 65, 64
3, 222780, Note_off_c, 0, 72, 64
3, 222780, Note_on_c, 0, 67, 44
3, 222840, Note_off_c, 0, 67, 64
3, 222840, Note_on_c, 0, 68, 47
3, 222900, Note_off_c, 0, 68, 64
3, 222900, Note_on_c, 0, 70, 32
3, 222960, Note_off_c, 0, 70, 64
3, 222960, Note_on_c, 0, 72, 34
3, 223020, Note_off_c, 0, 72, 64
3, 223020, Note_on_c, 0, 74, 44
3, 223080, Note_off_c, 0, 74, 64
3, 223080, Note_on_c, 0, 76, 47
3, 223140, Note_off_c, 0, 76, 64
3, 223140, Note_on_c, 0, 77, 52
3, 223200, Note_off_c, 0, 77, 64
3, 223200, Note_on_c, 0, 79, 70
3, 223260, Note_off_c, 0, 79, 64
3, 223260, Note_on_c, 0, 77, 50
3, 223320, Note_off_c, 0, 77, 64
3, 223320, Note_on_c, 0, 76, 50
3, 223380, Note_off_c, 0, 76, 64
3, 223380, Note_on_c, 0, 73, 40
3, 223440, Note_off_c, 0, 73, 64
3, 223440, Note_on_c, 0, 72, 52
3, 223500, Note_off_c, 0, 72, 64
3, 223500, Note_on_c, 0, 70, 44
3, 223560, Note_off_c, 0, 70, 64
3, 223560, Note_on_c, 0, 68, 44
3, 223620, Note_off_c, 0, 68, 64
3, 223620, Note_on_c, 0, 67, 41
3, 223680, Note_off_c, 0, 67, 64
3, 223680, Note_on_c, 0, 65, 59
3, 223740, Note_off_c, 0, 65, 64
3, 223740, Note_on_c, 0, 67, 50
3, 223800, Note_off_c, 0, 67, 64
3, 223800, Note_on_c, 0, 68, 55
3, 223860, Note_off_c, 0, 68, 64
3, 223860, Note_on_c, 0, 70, 55
3, 223920, Note_off_c, 0, 70, 64
3, 223920, Note_on_c, 0, 72, 56
3, 223980, Note_off_c, 0, 72, 64
3, 223980, Note_on_c, 0, 74, 59
3, 224040, Note_off_c, 0, 74, 64
3, 224040, Note_on_c, 0, 76, 62
3, 224100, Note_off_c, 0, 76, 64
3, 224100, Note_on_c, 0, 77, 59
3, 224160, Note_off_c, 0, 77, 64
3, 224160, Note_on_c, 0, 79, 86
3, 224160, Note_on_c, 0, 77, 23
3, 224220, Note_off_c, 0, 77, 64
3, 224220, Note_off_c, 0, 79, 64
3, 224220, Note_on_c, 0, 77, 62
3, 224280, Note_off_c, 0, 77, 64
3, 224280, Note_on_c, 0, 76, 50
3, 224340, Note_off_c, 0, 76, 64
3, 224340, Note_on_c, 0, 73, 63
3, 224400, Note_off_c, 0, 73, 64
3, 224400, Note_on_c, 0, 72, 56
3, 224460, Note_off_c, 0, 72, 64
3, 224460, Note_on_c, 0, 70, 55
3, 224520, Note_off_c, 0, 70, 64
3, 224520, Note_on_c, 0, 68, 50
3, 224580, Note_off_c, 0, 68, 64
3, 224580, Note_on_c, 0, 67, 41
3, 224640, Note_off_c, 0, 67, 64
3, 224640, Note_on_c, 0, 65, 52
3, 224700, Note_off_c, 0, 65, 64
3, 224700, Note_on_c, 0, 67, 47
3, 224760, Note_off_c, 0, 67, 64
3, 224760, Note_on_c, 0, 68, 50
3, 224820, Note_off_c, 0, 68, 64
3, 224820, Note_on_c, 0, 70, 55
3, 224880, Note_off_c, 0, 70, 64
3, 224880, Note_on_c, 0, 72, 56
3, 224940, Note_off_c, 0, 72, 64
3, 224940, Note_on_c, 0, 74, 50
3, 225000, Note_off_c, 0, 74, 64
3, 225000, Note_on_c, 0, 76, 52
3, 225060, Note_off_c, 0, 76, 64
3, 225060, Note_on_c, 0, 77, 59
3, 225120, Note_off_c, 0, 77, 64
3, 225120, Note_on_c, 0, 79, 70
3, 225180, Note_off_c, 0, 79, 64
3, 225180, Note_on_c, 0, 78, 63
3, 225240, Note_off_c, 0, 78, 64
3, 225240, Note_on_c, 0, 79, 67
3, 225300, Note_off_c, 0, 79, 64
3, 225300, Note_on_c, 0, 78, 68
3, 225360, Note_off_c, 0, 78, 64
3, 225360, Note_on_c, 0, 79, 62
3, 225420, Note_off_c, 0, 79, 64
3, 225420, Note_on_c, 0, 78, 74
3, 225480, Note_off_c, 0, 78, 64
3, 225480, Note_on_c, 0, 79, 67
3, 225540, Note_off_c, 0, 79, 64
3, 225540, Note_on_c, 0, 78, 74
3, 225600, Note_off_c, 0, 78, 64
3, 225600, Note_on_c, 0, 79, 75
3, 225660, Note_off_c, 0, 79, 64
3, 225660, Note_on_c, 0, 78, 68
3, 225720, Note_off_c, 0, 78, 64
3, 225720, Note_on_c, 0, 79, 67
3, 225780, Note_off_c, 0, 79, 64
3, 225780, Note_on_c, 0, 78, 68
3, 225840, Note_off_c, 0, 78, 64
3, 225840, Note_on_c, 0, 79, 62
3, 225900, Note_off_c, 0, 79, 64
3, 225900, Note_on_c, 0, 78, 74
3, 225960, Note_off_c, 0, 78, 64
3, 225960, Note_on_c, 0, 79, 62
3, 226020, Note_off_c, 0, 79, 64
3, 226020, Note_on_c, 0, 78, 74
3, 226080, Note_off_c, 0, 78, 64
3, 226080, Note_on_c, 0, 79, 80
3, 226140, Note_off_c, 0, 79, 64
3, 226140, Note_on_c, 0, 77, 70
3, 226200, Note_off_c, 0, 77, 64
3, 226200, Note_on_c, 0, 76, 70
3, 226260, Note_off_c, 0, 76, 64
3, 226260, Note_on_c, 0, 73, 68
3, 226320, Note_off_c, 0, 73, 64
3, 226320, Note_on_c, 0, 72, 67
3, 226380, Note_off_c, 0, 72, 64
3, 226380, Note_on_c, 0, 70, 68
3, 226440, Note_off_c, 0, 70, 64
3, 226440, Note_on_c, 0, 68, 80
3, 226500, Note_off_c, 0, 68, 64
3, 226500, Note_on_c, 0, 67, 70
3, 226560, Note_off_c, 0, 67, 64
3, 226560, Note_on_c, 0, 56, 78
3, 226560, Note_on_c, 0, 65, 70
3, 226560, Note_on_c, 0, 60, 70
3, 227040, Note_off_c, 0, 60, 64
3, 227040, Note_off_c, 0, 65, 64
3, 227040, Note_off_c, 0, 56, 64
3, 227040, Note_on_c, 0, 68, 96
3, 227040, Note_on_c, 0, 60, 84
3, 227040, Note_on_c, 0, 56, 80
3, 227520, Note_off_c, 0, 56, 64
3, 227520, Note_off_c, 0, 60, 64
3, 227520, Note_off_c, 0, 68, 64
3, 227520, Note_on_c, 0, 55, 36
3, 227520, Note_on_c, 0, 58, 55
3, 227520, Note_on_c, 0, 67, 62
3, 227550, Note_off_c, 0, 67, 64
3, 227550, Note_off_c, 0, 58, 64
3, 227550, Note_off_c, 0, 55, 64
3, 227640, Note_on_c, 0, 55, 29
3, 227640, Note_on_c, 0, 64, 42
3, 227670, Note_off_c, 0, 64, 64
3, 227670, Note_off_c, 0, 55, 64
3, 227760, Note_on_c, 0, 55, 36
3, 227760, Note_on_c, 0, 58, 40
3, 227760, Note_on_c, 0, 60, 52
3, 227790, Note_off_c, 0, 60, 64
3, 227790, Note_off_c, 0, 58, 64
3, 227790, Note_off_c, 0, 55, 64
3, 227880, Note_on_c, 0, 55, 26
3, 227880, Note_on_c, 0, 58, 47
3, 227880, Note_on_c, 0, 64, 52
3, 227910, Note_off_c, 0, 64, 64
3, 227910, Note_off_c, 0, 58, 64
3, 227910, Note_off_c, 0, 55, 64
3, 228000, Note_on_c, 0, 60, 32
3, 228000, Note_on_c, 0, 56, 42
3, 228000, Note_on_c, 0, 65, 50
3, 228030, Note_off_c, 0, 65, 64
3, 228030, Note_off_c, 0, 56, 64
3, 228030, Note_off_c, 0, 60, 64
3, 228120, Note_on_c, 0, 60, 52
3, 228120, Note_on_c, 0, 56, 44
3, 228150, Note_off_c, 0, 56, 64
3, 228150, Note_off_c, 0, 60, 64
3, 228240, Note_on_c, 0, 56, 31
3, 228240, Note_on_c, 0, 65, 47
3, 228240, Note_on_c, 0, 60, 36
3, 228270, Note_off_c, 0, 60, 64
3, 228270, Note_off_c, 0, 65, 64
3, 228270, Note_off_c, 0, 56, 64
3, 228360, Note_on_c, 0, 56, 15
3, 228360, Note_on_c, 0, 60, 39
3, 228360, Note_on_c, 0, 68, 47
3, 228390, Note_off_c, 0, 68, 64
3, 228390, Note_off_c, 0, 60, 64
3, 228390, Note_off_c, 0, 56, 64
3, 228480, Note_on_c, 0, 58, 63
3, 228480, Note_on_c, 0, 55, 56
3, 228480, Note_on_c, 0, 67, 75
3, 228510, Note_off_c, 0, 67, 64
3, 228510, Note_off_c, 0, 55, 64
3, 228510, Note_off_c, 0, 58, 64
3, 228600, Note_on_c, 0, 55, 44
3, 228600, Note_on_c, 0, 64, 55
3, 228630, Note_off_c, 0, 64, 64
3, 228630, Note_off_c, 0, 55, 64
3, 228720, Note_on_c, 0, 55, 32
3, 228720, Note_on_c, 0, 60, 50
3, 228720, Note_on_c, 0, 58, 44
3, 228750, Note_off_c, 0, 58, 64
3, 228750, Note_off_c, 0, 60, 64
3, 228750, Note_off_c, 0, 55, 64
3, 228840, Note_on_c, 0, 58, 55
3, 228840, Note_on_c, 0, 55, 41
3, 228840, Note_on_c, 0, 64, 55
3, 228870, Note_off_c, 0, 64, 64
3, 228870, Note_off_c, 0, 55, 64
3, 228870, Note_off_c, 0, 58, 64
3, 228960, Note_on_c, 0, 56, 44
3, 228960, Note_on_c, 0, 60, 47
3, 228960, Note_on_c, 0, 65, 62
3, 228990, Note_off_c, 0, 65, 64
3, 228990, Note_off_c, 0, 60, 64
3, 228990, Note_off_c, 0, 56, 64
3, 229080, Note_on_c, 0, 56, 39
3, 229080, Note_on_c, 0, 60, 56
3, 229110, Note_off_c, 0, 60, 64
3, 229110, Note_off_c, 0, 56, 64
3, 229200, Note_on_c, 0, 60, 50
3, 229200, Note_on_c, 0, 65, 52
3, 229200, Note_on_c, 0, 56, 51
3, 229230, Note_off_c, 0, 56, 64
3, 229230, Note_off_c, 0, 65, 64
3, 229230, Note_off_c, 0, 60, 64
3, 229320, Note_on_c, 0, 60, 44
3, 229320, Note_on_c, 0, 56, 31
3, 229320, Note_on_c, 0, 68, 55
3, 229350, Note_off_c, 0, 68, 64
3, 229350, Note_off_c, 0, 56, 64
3, 229350, Note_off_c, 0, 60, 64
3, 229440, Note_on_c, 0, 60, 52
3, 229440, Note_on_c, 0, 55, 41
3, 229440, Note_on_c, 0, 67, 62
3, 229470, Note_off_c, 0, 67, 64
3, 229470, Note_off_c, 0, 55, 64
3, 229470, Note_off_c, 0, 60, 64
3, 229560, Note_on_c, 0, 55, 47
3, 229560, Note_on_c, 0, 63, 58
3, 229560, Note_on_c, 0, 60, 59
3, 229590, Note_off_c, 0, 60, 64
3, 229590, Note_off_c, 0, 63, 64
3, 229590, Note_off_c, 0, 55, 64
3, 229680, Note_on_c, 0, 55, 44
3, 229680, Note_on_c, 0, 62, 62
3, 229680, Note_on_c, 0, 59, 60
3, 229710, Note_off_c, 0, 59, 64
3, 229710, Note_off_c, 0, 62, 64
3, 229710, Note_off_c, 0, 55, 64
3, 229800, Note_on_c, 0, 55, 36
3, 229800, Note_on_c, 0, 59, 60
3, 229800, Note_on_c, 0, 67, 59
3, 229830, Note_off_c, 0, 67, 64
3, 229830, Note_off_c, 0, 59, 64
3, 229830, Note_off_c, 0, 55, 64
3, 229920, Note_on_c, 0, 60, 59
3, 230160, Note_off_c, 0, 60, 64
3, 230280, Note_on_c, 0, 60, 44
3, 230320, Note_off_c, 0, 60, 64
3, 230320, Note_on_c, 0, 62, 29
3, 230360, Note_off_c, 0, 62, 64
3, 230360, Note_on_c, 0, 64, 40
3, 230400, Note_off_c, 0, 64, 64
3, 230400, Note_on_c, 0, 56, 78
3, 230400, Note_on_c, 0, 65, 70
3, 230400, Note_on_c, 0, 60, 70
3, 230880, Note_off_c, 0, 60, 64
3, 230880, Note_off_c, 0, 65, 64
3, 230880, Note_off_c, 0, 56, 64
3, 230880, Note_on_c, 0, 68, 92
3, 230880, Note_on_c, 0, 60, 80
3, 230880, Note_on_c, 0, 56, 77
3, 231360, Note_off_c, 0, 56, 64
3, 231360, Note_off_c, 0, 60, 64
3, 231360, Note_off_c, 0, 68, 64
3, 231360, Note_on_c, 0, 55, 36
3, 231360, Note_on_c, 0, 58, 55
3, 231360, Note_on_c, 0, 67, 62
3, 231390, Note_off_c, 0, 67, 64
3, 231390, Note_off_c, 0, 58, 64
3, 231390, Note_off_c, 0, 55, 64
3, 231480, Note_on_c, 0, 55, 29
3, 231480, Note_on_c, 0, 64, 42
3, 231510, Note_off_c, 0, 64, 64
3, 231510, Note_off_c, 0, 55, 64
3, 231600, Note_on_c, 0, 55, 36
3, 231600, Note_on_c, 0, 58, 40
3, 231600, Note_on_c, 0, 60, 52
3, 231630, Note_off_c, 0, 60, 64
3, 231630, Note_off_c, 0, 58, 64
3, 231630, Note_off_c, 0, 55, 64
3, 231720, Note_on_c, 0, 55, 26
3, 231720, Note_on_c, 0, 58, 47
3, 231720, Note_on_c, 0, 64, 52
3, 231750, Note_off_c, 0, 64, 64
3, 231750, Note_off_c, 0, 58, 64
3, 231750, Note_off_c, 0, 55, 64
3, 231840, Note_on_c, 0, 60, 32
3, 231840, Note_on_c, 0, 56, 42
3, 231840, Note_on_c, 0, 65, 50
3, 231870, Note_off_c, 0, 65, 64
3, 231870, Note_off_c, 0, 56, 64
3, 231870, Note_off_c, 0, 60, 64
3, 231960, Note_on_c, 0, 60, 52
3, 231960, Note_on_c, 0, 56, 44
3, 231990, Note_off_c, 0, 56, 64
3, 231990, Note_off_c, 0, 60, 64
3, 232080, Note_on_c, 0, 56, 31
3, 232080, Note_on_c, 0, 65, 47
3, 232080, Note_on_c, 0, 60, 36
3, 232110, Note_off_c, 0, 60, 64
3, 232110, Note_off_c, 0, 65, 64
3, 232110, Note_off_c, 0, 56, 64
3, 232200, Note_on_c, 0, 56, 15
3, 232200, Note_on_c, 0, 60, 39
3, 232200, Note_on_c, 0, 68, 47
3, 232230, Note_off_c, 0, 68, 64
3, 232230, Note_off_c, 0, 60, 64
3, 232230, Note_off_c, 0, 56, 64
3, 232320, Note_on_c, 0, 58, 63
3, 232320, Note_on_c, 0, 55, 56
3, 232320, Note_on_c, 0, 67, 75
3, 232350, Note_off_c, 0, 67, 64
3, 232350, Note_off_c, 0, 55, 64
3, 232350, Note_off_c, 0, 58, 64
3, 232440, Note_on_c, 0, 55, 44
3, 232440, Note_on_c, 0, 64, 55
3, 232470, Note_off_c, 0, 64, 64
3, 232470, Note_off_c, 0, 55, 64
3, 232560, Note_on_c, 0, 55, 32
3, 232560, Note_on_c, 0, 60, 50
3, 232560, Note_on_c, 0, 58, 44
3, 232590, Note_off_c, 0, 58, 64
3, 232590, Note_off_c, 0, 60, 64
3, 232590, Note_off_c, 0, 55, 64
3, 232680, Note_on_c, 0, 58, 55
3, 232680, Note_on_c, 0, 55, 41
3, 232680, Note_on_c, 0, 64, 55
3, 232710, Note_off_c, 0, 64, 64
3, 232710, Note_off_c, 0, 55, 64
3, 232710, Note_off_c, 0, 58, 64
3, 232800, Note_on_c, 0, 56, 44
3, 232800, Note_on_c, 0, 60, 47
3, 232800, Note_on_c, 0, 65, 62
3, 232830, Note_off_c, 0, 65, 64
3, 232830, Note_off_c, 0, 60, 64
3, 232830, Note_off_c, 0, 56, 64
3, 232920, Note_on_c, 0, 56, 39
3, 232920, Note_on_c, 0, 60, 56
3, 232950, Note_off_c, 0, 60, 64
3, 232950, Note_off_c, 0, 56, 64
3, 233040, Note_on_c, 0, 60, 50
3, 233040, Note_on_c, 0, 65, 52
3, 233040, Note_on_c, 0, 56, 51
3, 233070, Note_off_c, 0, 56, 64
3, 233070, Note_off_c, 0, 65, 64
3, 233070, Note_off_c, 0, 60, 64
3, 233160, Note_on_c, 0, 60, 44
3, 233160, Note_on_c, 0, 56, 31
3, 233160, Note_on_c, 0, 68, 55
3, 233190, Note_off_c, 0, 68, 64
3, 233190, Note_off_c, 0, 56, 64
3, 233190, Note_off_c, 0, 60, 64
3, 233280, Note_on_c, 0, 60, 52
3, 233280, Note_on_c, 0, 55, 41
3, 233280, Note_on_c, 0, 67, 62
3, 233310, Note_off_c, 0, 67, 64
3, 233310, Note_off_c, 0, 55, 64
3, 233310, Note_off_c, 0, 60, 64
3, 233400, Note_on_c, 0, 55, 47
3, 233400, Note_on_c, 0, 63, 58
3, 233400, Note_on_c, 0, 60, 59
3, 233430, Note_off_c, 0, 60, 64
3, 233430, Note_off_c, 0, 63, 64
3, 233430, Note_off_c, 0, 55, 64
3, 233520, Note_on_c, 0, 55, 44
3, 233520, Note_on_c, 0, 62, 62
3, 233520, Note_on_c, 0, 59, 60
3, 233550, Note_off_c, 0, 59, 64
3, 233550, Note_off_c, 0, 62, 64
3, 233550, Note_off_c, 0, 55, 64
3, 233640, Note_on_c, 0, 55, 36
3, 233640, Note_on_c, 0, 59, 60
3, 233640, Note_on_c, 0, 67, 59
3, 233670, Note_off_c, 0, 67, 64
3, 233670, Note_off_c, 0, 59, 64
3, 233670, Note_off_c, 0, 55, 64
3, 233756, Note_on_c, 0, 60, 59
3, 233876, Note_off_c, 0, 60, 64
3, 234116, Note_on_c, 0, 63, 50
3, 234156, Note_off_c, 0, 63, 64
3, 234156, Note_on_c, 0, 65, 32
3, 234196, Note_off_c, 0, 65, 64
3, 234196, Note_on_c, 0, 67, 18
3, 234236, Note_off_c, 0, 67, 64
3, 234236, Note_on_c, 0, 68, 74
3, 234236, Note_on_c, 0, 60, 59
3, 234236, Note_on_c, 0, 63, 68
3, 234716, Note_off_c, 0, 63, 64
3, 234716, Note_off_c, 0, 60, 64
3, 234716, Note_off_c, 0, 68, 64
3, 234716, Note_on_c, 0, 72, 84
3, 234716, Note_on_c, 0, 60, 67
3, 234716, Note_on_c, 0, 63, 75
3, 235196, Note_off_c, 0, 63, 64
3, 235196, Note_off_c, 0, 60, 64
3, 235196, Note_off_c, 0, 72, 64
3, 235196, Note_on_c, 0, 70, 82
3, 235196, Note_on_c, 0, 58, 57
3, 235196, Note_on_c, 0, 61, 73
3, 235256, Note_off_c, 0, 61, 64
3, 235256, Note_off_c, 0, 58, 64
3, 235256, Note_off_c, 0, 70, 64
3, 235316, Note_on_c, 0, 67, 41
3, 235316, Note_on_c, 0, 58, 24
3, 235316, Note_on_c, 0, 61, 23
3, 235376, Note_off_c, 0, 61, 64
3, 235376, Note_off_c, 0, 58, 64
3, 235376, Note_off_c, 0, 67, 64
3, 235436, Note_on_c, 0, 58, 47
3, 235436, Note_on_c, 0, 63, 44
3, 235436, Note_on_c, 0, 61, 36
3, 235496, Note_off_c, 0, 61, 64
3, 235496, Note_off_c, 0, 63, 64
3, 235496, Note_off_c, 0, 58, 64
3, 235556, Note_on_c, 0, 67, 50
3, 235556, Note_on_c, 0, 58, 27
3, 235556, Note_on_c, 0, 61, 44
3, 235616, Note_off_c, 0, 61, 64
3, 235616, Note_off_c, 0, 58, 64
3, 235616, Note_off_c, 0, 67, 64
3, 235676, Note_on_c, 0, 68, 55
3, 235676, Note_on_c, 0, 63, 50
3, 235676, Note_on_c, 0, 60, 31
3, 235736, Note_off_c, 0, 60, 64
3, 235736, Note_off_c, 0, 63, 64
3, 235736, Note_off_c, 0, 68, 64
3, 235796, Note_on_c, 0, 63, 50
3, 235796, Note_on_c, 0, 60, 47
3, 235856, Note_off_c, 0, 60, 64
3, 235856, Note_off_c, 0, 63, 64
3, 235916, Note_on_c, 0, 68, 58
3, 235916, Note_on_c, 0, 63, 58
3, 235916, Note_on_c, 0, 60, 47
3, 235976, Note_off_c, 0, 60, 64
3, 235976, Note_off_c, 0, 63, 64
3, 235976, Note_off_c, 0, 68, 64
3, 236036, Note_on_c, 0, 72, 56
3, 236036, Note_on_c, 0, 63, 55
3, 236036, Note_on_c, 0, 60, 18
3, 236096, Note_off_c, 0, 60, 64
3, 236096, Note_off_c, 0, 63, 64
3, 236096, Note_off_c, 0, 72, 64
3, 236156, Note_on_c, 0, 70, 68
3, 236156, Note_on_c, 0, 58, 50
3, 236156, Note_on_c, 0, 61, 51
3, 236216, Note_off_c, 0, 61, 64
3, 236216, Note_off_c, 0, 58, 64
3, 236216, Note_off_c, 0, 70, 64
3, 236276, Note_on_c, 0, 67, 56
3, 236276, Note_on_c, 0, 58, 40
3, 236276, Note_on_c, 0, 61, 39
3, 236336, Note_off_c, 0, 61, 64
3, 236336, Note_off_c, 0, 58, 64
3, 236336, Note_off_c, 0, 67, 64
3, 236396, Note_on_c, 0, 58, 35
3, 236396, Note_on_c, 0, 63, 47
3, 236396, Note_on_c, 0, 61, 33
3, 236456, Note_off_c, 0, 61, 64
3, 236456, Note_off_c, 0, 63, 64
3, 236456, Note_off_c, 0, 58, 64
3, 236516, Note_on_c, 0, 67, 52
3, 236516, Note_on_c, 0, 61, 51
3, 236516, Note_on_c, 0, 58, 24
3, 236576, Note_off_c, 0, 58, 64
3, 236576, Note_off_c, 0, 61, 64
3, 236576, Note_off_c, 0, 67, 64
3, 236636, Note_on_c, 0, 68, 68
3, 236636, Note_on_c, 0, 60, 59
3, 236636, Note_on_c, 0, 63, 58
3, 236696, Note_off_c, 0, 63, 64
3, 236696, Note_off_c, 0, 60, 64
3, 236696, Note_off_c, 0, 68, 64
3, 236756, Note_on_c, 0, 63, 58
3, 236756, Note_on_c, 0, 60, 41
3, 236816, Note_off_c, 0, 60, 64
3, 236816, Note_off_c, 0, 63, 64
3, 236876, Note_on_c, 0, 60, 47
3, 236876, Note_on_c, 0, 68, 55
3, 236876, Note_on_c, 0, 63, 50
3, 236936, Note_off_c, 0, 63, 64
3, 236936, Note_off_c, 0, 68, 64
3, 236936, Note_off_c, 0, 60, 64
3, 236996, Note_on_c, 0, 72, 52
3, 236996, Note_on_c, 0, 63, 50
3, 236996, Note_on_c, 0, 60, 31
3, 237056, Note_off_c, 0, 60, 64
3, 237056, Note_off_c, 0, 63, 64
3, 237056, Note_off_c, 0, 72, 64
3, 237116, Note_on_c, 0, 69, 67
3, 237116, Note_on_c, 0, 60, 52
3, 237116, Note_on_c, 0, 63, 55
3, 237176, Note_off_c, 0, 63, 64
3, 237176, Note_off_c, 0, 60, 64
3, 237176, Note_off_c, 0, 69, 64
3, 237236, Note_on_c, 0, 60, 44
3, 237236, Note_on_c, 0, 63, 55
3, 237236, Note_on_c, 0, 65, 50
3, 237296, Note_off_c, 0, 65, 64
3, 237296, Note_off_c, 0, 63, 64
3, 237296, Note_off_c, 0, 60, 64
3, 237356, Note_on_c, 0, 69, 59
3, 237356, Note_on_c, 0, 63, 58
3, 237356, Note_on_c, 0, 60, 32
3, 237416, Note_off_c, 0, 60, 64
3, 237416, Note_off_c, 0, 63, 64
3, 237416, Note_off_c, 0, 69, 64
3, 237476, Note_on_c, 0, 72, 56
3, 237476, Note_on_c, 0, 63, 50
3, 237476, Note_on_c, 0, 60, 31
3, 237536, Note_off_c, 0, 60, 64
3, 237536, Note_off_c, 0, 63, 64
3, 237536, Note_off_c, 0, 72, 64
3, 237596, Note_on_c, 0, 70, 47
3, 237596, Note_on_c, 0, 65, 34
3, 237596, Note_on_c, 0, 61, 17
3, 237656, Note_off_c, 0, 61, 64
3, 237656, Note_off_c, 0, 65, 64
3, 237656, Note_off_c, 0, 70, 64
3, 237716, Note_on_c, 0, 61, 36
3, 237716, Note_on_c, 0, 65, 44
3, 237776, Note_off_c, 0, 65, 64
3, 237776, Note_off_c, 0, 61, 64
3, 237836, Note_on_c, 0, 70, 58
3, 237836, Note_on_c, 0, 65, 44
3, 237836, Note_on_c, 0, 61, 31
3, 237896, Note_off_c, 0, 61, 64
3, 237896, Note_off_c, 0, 65, 64
3, 237896, Note_off_c, 0, 70, 64
3, 237956, Note_on_c, 0, 73, 50
3, 237956, Note_on_c, 0, 61, 21
3, 237956, Note_on_c, 0, 65, 32
3, 238016, Note_off_c, 0, 65, 64
3, 238016, Note_off_c, 0, 61, 64
3, 238016, Note_off_c, 0, 73, 64
3, 238076, Note_on_c, 0, 72, 62
3, 238076, Note_on_c, 0, 60, 56
3, 238076, Note_on_c, 0, 65, 62
3, 238136, Note_off_c, 0, 65, 64
3, 238136, Note_off_c, 0, 60, 64
3, 238136, Note_off_c, 0, 72, 64
3, 238196, Note_on_c, 0, 60, 39
3, 238196, Note_on_c, 0, 68, 55
3, 238196, Note_on_c, 0, 65, 56
3, 238256, Note_off_c, 0, 65, 64
3, 238256, Note_off_c, 0, 68, 64
3, 238256, Note_off_c, 0, 60, 64
3, 238316, Note_on_c, 0, 67, 56
3, 238316, Note_on_c, 0, 60, 41
3, 238316, Note_on_c, 0, 64, 44
3, 238376, Note_off_c, 0, 64, 64
3, 238376, Note_off_c, 0, 60, 64
3, 238376, Note_off_c, 0, 67, 64
3, 238436, Note_on_c, 0, 72, 56
3, 238436, Note_on_c, 0, 60, 31
3, 238436, Note_on_c, 0, 64, 49
3, 238496, Note_off_c, 0, 64, 64
3, 238496, Note_off_c, 0, 60, 64
3, 238496, Note_off_c, 0, 72, 64
3, 238556, Note_on_c, 0, 65, 70
3, 238796, Note_off_c, 0, 65, 64
3, 238916, Note_on_c, 0, 63, 55
3, 238956, Note_off_c, 0, 63, 64
3, 238956, Note_on_c, 0, 65, 50
3, 238996, Note_off_c, 0, 65, 64
3, 238996, Note_on_c, 0, 67, 41
3, 239036, Note_off_c, 0, 67, 64
3, 239040, Note_on_c, 0, 68, 88
3, 239040, Note_on_c, 0, 60, 70
3, 239040, Note_on_c, 0, 63, 81
3, 239516, Note_off_c, 0, 63, 64
3, 239516, Note_off_c, 0, 60, 64
3, 239516, Note_off_c, 0, 68, 64
3, 239516, Note_on_c, 0, 72, 84
3, 239516, Note_on_c, 0, 60, 67
3, 239516, Note_on_c, 0, 63, 75
3, 239996, Note_off_c, 0, 63, 64
3, 239996, Note_off_c, 0, 60, 64
3, 239996, Note_off_c, 0, 72, 64
3, 239996, Note_on_c, 0, 70, 69
3, 239996, Note_on_c, 0, 58, 48
3, 239996, Note_on_c, 0, 61, 61
3, 240056, Note_off_c, 0, 61, 64
3, 240056, Note_off_c, 0, 58, 64
3, 240056, Note_off_c, 0, 70, 64
3, 240116, Note_on_c, 0, 67, 41
3, 240116, Note_on_c, 0, 58, 24
3, 240116, Note_on_c, 0, 61, 23
3, 240176, Note_off_c, 0, 61, 64
3, 240176, Note_off_c, 0, 58, 64
3, 240176, Note_off_c, 0, 67, 64
3, 240236, Note_on_c, 0, 58, 47
3, 240236, Note_on_c, 0, 63, 44
3, 240236, Note_on_c, 0, 61, 36
3, 240296, Note_off_c, 0, 61, 64
3, 240296, Note_off_c, 0, 63, 64
3, 240296, Note_off_c, 0, 58, 64
3, 240356, Note_on_c, 0, 67, 50
3, 240356, Note_on_c, 0, 58, 27
3, 240356, Note_on_c, 0, 61, 44
3, 240416, Note_off_c, 0, 61, 64
3, 240416, Note_off_c, 0, 58, 64
3, 240416, Note_off_c, 0, 67, 64
3, 240476, Note_on_c, 0, 68, 55
3, 240476, Note_on_c, 0, 63, 50
3, 240476, Note_on_c, 0, 60, 31
3, 240536, Note_off_c, 0, 60, 64
3, 240536, Note_off_c, 0, 63, 64
3, 240536, Note_off_c, 0, 68, 64
3, 240596, Note_on_c, 0, 63, 50
3, 240596, Note_on_c, 0, 60, 47
3, 240656, Note_off_c, 0, 60, 64
3, 240656, Note_off_c, 0, 63, 64
3, 240716, Note_on_c, 0, 68, 58
3, 240716, Note_on_c, 0, 63, 58
3, 240716, Note_on_c, 0, 60, 47
3, 240776, Note_off_c, 0, 60, 64
3, 240776, Note_off_c, 0, 63, 64
3, 240776, Note_off_c, 0, 68, 64
3, 240836, Note_on_c, 0, 72, 56
3, 240836, Note_on_c, 0, 63, 55
3, 240836, Note_on_c, 0, 60, 18
3, 240896, Note_off_c, 0, 60, 64
3, 240896, Note_off_c, 0, 63, 64
3, 240896, Note_off_c, 0, 72, 64
3, 240956, Note_on_c, 0, 70, 68
3, 240956, Note_on_c, 0, 58, 50
3, 240956, Note_on_c, 0, 61, 51
3, 241016, Note_off_c, 0, 61, 64
3, 241016, Note_off_c, 0, 58, 64
3, 241016, Note_off_c, 0, 70, 64
3, 241076, Note_on_c, 0, 67, 56
3, 241076, Note_on_c, 0, 58, 40
3, 241076, Note_on_c, 0, 61, 39
3, 241136, Note_off_c, 0, 61, 64
3, 241136, Note_off_c, 0, 58, 64
3, 241136, Note_off_c, 0, 67, 64
3, 241196, Note_on_c, 0, 58, 35
3, 241196, Note_on_c, 0, 63, 47
3, 241196, Note_on_c, 0, 61, 33
3, 241256, Note_off_c, 0, 61, 64
3, 241256, Note_off_c, 0, 63, 64
3, 241256, Note_off_c, 0, 58, 64
3, 241316, Note_on_c, 0, 67, 52
3, 241316, Note_on_c, 0, 61, 51
3, 241316, Note_on_c, 0, 58, 24
3, 241376, Note_off_c, 0, 58, 64
3, 241376, Note_off_c, 0, 61, 64
3, 241376, Note_off_c, 0, 67, 64
3, 241436, Note_on_c, 0, 68, 68
3, 241436, Note_on_c, 0, 60, 59
3, 241436, Note_on_c, 0, 63, 58
3, 241496, Note_off_c, 0, 63, 64
3, 241496, Note_off_c, 0, 60, 64
3, 241496, Note_off_c, 0, 68, 64
3, 241556, Note_on_c, 0, 63, 58
3, 241556, Note_on_c, 0, 60, 41
3, 241616, Note_off_c, 0, 60, 64
3, 241616, Note_off_c, 0, 63, 64
3, 241676, Note_on_c, 0, 60, 47
3, 241676, Note_on_c, 0, 68, 55
3, 241676, Note_on_c, 0, 63, 50
3, 241736, Note_off_c, 0, 63, 64
3, 241736, Note_off_c, 0, 68, 64
3, 241736, Note_off_c, 0, 60, 64
3, 241796, Note_on_c, 0, 72, 52
3, 241796, Note_on_c, 0, 63, 50
3, 241796, Note_on_c, 0, 60, 31
3, 241856, Note_off_c, 0, 60, 64
3, 241856, Note_off_c, 0, 63, 64
3, 241856, Note_off_c, 0, 72, 64
3, 241916, Note_on_c, 0, 69, 67
3, 241916, Note_on_c, 0, 60, 52
3, 241916, Note_on_c, 0, 63, 55
3, 241976, Note_off_c, 0, 63, 64
3, 241976, Note_off_c, 0, 60, 64
3, 241976, Note_off_c, 0, 69, 64
3, 242036, Note_on_c, 0, 60, 44
3, 242036, Note_on_c, 0, 63, 55
3, 242036, Note_on_c, 0, 65, 50
3, 242096, Note_off_c, 0, 65, 64
3, 242096, Note_off_c, 0, 63, 64
3, 242096, Note_off_c, 0, 60, 64
3, 242156, Note_on_c, 0, 69, 59
3, 242156, Note_on_c, 0, 63, 58
3, 242156, Note_on_c, 0, 60, 32
3, 242216, Note_off_c, 0, 60, 64
3, 242216, Note_off_c, 0, 63, 64
3, 242216, Note_off_c, 0, 69, 64
3, 242276, Note_on_c, 0, 72, 56
3, 242276, Note_on_c, 0, 63, 50
3, 242276, Note_on_c, 0, 60, 31
3, 242336, Note_off_c, 0, 60, 64
3, 242336, Note_off_c, 0, 63, 64
3, 242336, Note_off_c, 0, 72, 64
3, 242396, Note_on_c, 0, 70, 47
3, 242396, Note_on_c, 0, 65, 34
3, 242396, Note_on_c, 0, 61, 17
3, 242456, Note_off_c, 0, 61, 64
3, 242456, Note_off_c, 0, 65, 64
3, 242456, Note_off_c, 0, 70, 64
3, 242516, Note_on_c, 0, 61, 36
3, 242516, Note_on_c, 0, 65, 44
3, 242576, Note_off_c, 0, 65, 64
3, 242576, Note_off_c, 0, 61, 64
3, 242636, Note_on_c, 0, 70, 58
3, 242636, Note_on_c, 0, 65, 44
3, 242636, Note_on_c, 0, 61, 31
3, 242696, Note_off_c, 0, 61, 64
3, 242696, Note_off_c, 0, 65, 64
3, 242696, Note_off_c, 0, 70, 64
3, 242756, Note_on_c, 0, 73, 50
3, 242756, Note_on_c, 0, 61, 21
3, 242756, Note_on_c, 0, 65, 32
3, 242816, Note_off_c, 0, 65, 64
3, 242816, Note_off_c, 0, 61, 64
3, 242816, Note_off_c, 0, 73, 64
3, 242876, Note_on_c, 0, 72, 62
3, 242876, Note_on_c, 0, 60, 56
3, 242876, Note_on_c, 0, 65, 62
3, 242936, Note_off_c, 0, 65, 64
3, 242936, Note_off_c, 0, 60, 64
3, 242936, Note_off_c, 0, 72, 64
3, 242996, Note_on_c, 0, 60, 39
3, 242996, Note_on_c, 0, 68, 55
3, 242996, Note_on_c, 0, 65, 56
3, 243056, Note_off_c, 0, 65, 64
3, 243056, Note_off_c, 0, 68, 64
3, 243056, Note_off_c, 0, 60, 64
3, 243116, Note_on_c, 0, 67, 56
3, 243116, Note_on_c, 0, 60, 41
3, 243116, Note_on_c, 0, 64, 44
3, 243176, Note_off_c, 0, 64, 64
3, 243176, Note_off_c, 0, 60, 64
3, 243176, Note_off_c, 0, 67, 64
3, 243236, Note_on_c, 0, 72, 56
3, 243236, Note_on_c, 0, 60, 31
3, 243236, Note_on_c, 0, 64, 49
3, 243296, Note_off_c, 0, 64, 64
3, 243296, Note_off_c, 0, 60, 64
3, 243296, Note_off_c, 0, 72, 64
3, 243360, Note_on_c, 0, 65, 41
3, 243405, Note_off_c, 0, 65, 64
3, 243420, Note_on_c, 0, 60, 52
3, 243465, Note_off_c, 0, 60, 64
3, 243480, Note_on_c, 0, 65, 56
3, 243525, Note_off_c, 0, 65, 64
3, 243540, Note_on_c, 0, 68, 47
3, 243585, Note_off_c, 0, 68, 64
3, 243600, Note_on_c, 0, 72, 70
3, 243645, Note_off_c, 0, 72, 64
3, 243660, Note_on_c, 0, 73, 58
3, 243705, Note_off_c, 0, 73, 64
3, 243720, Note_on_c, 0, 72, 59
3, 243765, Note_off_c, 0, 72, 64
3, 243780, Note_on_c, 0, 70, 40
3, 243825, Note_off_c, 0, 70, 64
3, 243840, Note_on_c, 0, 68, 55
3, 243885, Note_off_c, 0, 68, 64
3, 243900, Note_on_c, 0, 70, 44
3, 243945, Note_off_c, 0, 70, 64
3, 243960, Note_on_c, 0, 68, 44
3, 244005, Note_off_c, 0, 68, 64
3, 244020, Note_on_c, 0, 67, 44
3, 244065, Note_off_c, 0, 67, 64
3, 244080, Note_on_c, 0, 65, 41
3, 244125, Note_off_c, 0, 65, 64
3, 244140, Note_on_c, 0, 67, 47
3, 244185, Note_off_c, 0, 67, 64
3, 244200, Note_on_c, 0, 68, 38
3, 244245, Note_off_c, 0, 68, 64
3, 244260, Note_on_c, 0, 65, 39
3, 244305, Note_off_c, 0, 65, 64
3, 244320, Note_on_c, 0, 68, 58
3, 244365, Note_off_c, 0, 68, 64
3, 244380, Note_on_c, 0, 60, 59
3, 244425, Note_off_c, 0, 60, 64
3, 244440, Note_on_c, 0, 65, 59
3, 244485, Note_off_c, 0, 65, 64
3, 244500, Note_on_c, 0, 68, 68
3, 244545, Note_off_c, 0, 68, 64
3, 244560, Note_on_c, 0, 72, 67
3, 244605, Note_off_c, 0, 72, 64
3, 244620, Note_on_c, 0, 73, 68
3, 244665, Note_off_c, 0, 73, 64
3, 244680, Note_on_c, 0, 72, 52
3, 244725, Note_off_c, 0, 72, 64
3, 244740, Note_on_c, 0, 70, 55
3, 244785, Note_off_c, 0, 70, 64
3, 244800, Note_on_c, 0, 68, 44
3, 244845, Note_off_c, 0, 68, 64
3, 244860, Note_on_c, 0, 70, 47
3, 244905, Note_off_c, 0, 70, 64
3, 244920, Note_on_c, 0, 68, 55
3, 244965, Note_off_c, 0, 68, 64
3, 244980, Note_on_c, 0, 67, 50
3, 245025, Note_off_c, 0, 67, 64
3, 245040, Note_on_c, 0, 65, 52
3, 245085, Note_off_c, 0, 65, 64
3, 245100, Note_on_c, 0, 67, 44
3, 245145, Note_off_c, 0, 67, 64
3, 245160, Note_on_c, 0, 68, 47
3, 245205, Note_off_c, 0, 68, 64
3, 245220, Note_on_c, 0, 65, 50
3, 245265, Note_off_c, 0, 65, 64
3, 245280, Note_on_c, 0, 66, 44
3, 245325, Note_off_c, 0, 66, 64
3, 245340, Note_on_c, 0, 61, 54
3, 245385, Note_off_c, 0, 61, 64
3, 245400, Note_on_c, 0, 66, 58
3, 245445, Note_off_c, 0, 66, 64
3, 245460, Note_on_c, 0, 70, 55
3, 245505, Note_off_c, 0, 70, 64
3, 245520, Note_on_c, 0, 73, 63
3, 245565, Note_off_c, 0, 73, 64
3, 245580, Note_on_c, 0, 75, 58
3, 245625, Note_off_c, 0, 75, 64
3, 245640, Note_on_c, 0, 73, 63
3, 245685, Note_off_c, 0, 73, 64
3, 245700, Note_on_c, 0, 72, 52
3, 245745, Note_off_c, 0, 72, 64
3, 245760, Note_on_c, 0, 70, 58
3, 245805, Note_off_c, 0, 70, 64
3, 245820, Note_on_c, 0, 72, 52
3, 245865, Note_off_c, 0, 72, 64
3, 245880, Note_on_c, 0, 70, 50
3, 245925, Note_off_c, 0, 70, 64
3, 245940, Note_on_c, 0, 68, 50
3, 245985, Note_off_c, 0, 68, 64
3, 246000, Note_on_c, 0, 66, 58
3, 246045, Note_off_c, 0, 66, 64
3, 246060, Note_on_c, 0, 68, 58
3, 246105, Note_off_c, 0, 68, 64
3, 246120, Note_on_c, 0, 66, 50
3, 246165, Note_off_c, 0, 66, 64
3, 246180, Note_on_c, 0, 65, 59
3, 246225, Note_off_c, 0, 65, 64
3, 246240, Note_on_c, 0, 64, 58
3, 246285, Note_off_c, 0, 64, 64
3, 246300, Note_on_c, 0, 65, 52
3, 246345, Note_off_c, 0, 65, 64
3, 246360, Note_on_c, 0, 67, 56
3, 246405, Note_off_c, 0, 67, 64
3, 246420, Note_on_c, 0, 68, 63
3, 246465, Note_off_c, 0, 68, 64
3, 246480, Note_on_c, 0, 70, 63
3, 246525, Note_off_c, 0, 70, 64
3, 246540, Note_on_c, 0, 68, 55
3, 246585, Note_off_c, 0, 68, 64
3, 246600, Note_on_c, 0, 67, 39
3, 246645, Note_off_c, 0, 67, 64
3, 246660, Note_on_c, 0, 65, 47
3, 246705, Note_off_c, 0, 65, 64
3, 246720, Note_on_c, 0, 64, 44
3, 246765, Note_off_c, 0, 64, 64
3, 246780, Note_on_c, 0, 65, 52
3, 246825, Note_off_c, 0, 65, 64
3, 246840, Note_on_c, 0, 67, 59
3, 246885, Note_off_c, 0, 67, 64
3, 246900, Note_on_c, 0, 68, 58
3, 246945, Note_off_c, 0, 68, 64
3, 246960, Note_on_c, 0, 70, 58
3, 247005, Note_off_c, 0, 70, 64
3, 247020, Note_on_c, 0, 72, 56
3, 247065, Note_off_c, 0, 72, 64
3, 247080, Note_on_c, 0, 74, 59
3, 247125, Note_off_c, 0, 74, 64
3, 247140, Note_on_c, 0, 76, 59
3, 247185, Note_off_c, 0, 76, 64
3, 247200, Note_on_c, 0, 77, 59
3, 247245, Note_off_c, 0, 77, 64
3, 247260, Note_on_c, 0, 72, 50
3, 247305, Note_off_c, 0, 72, 64
3, 247320, Note_on_c, 0, 77, 59
3, 247365, Note_off_c, 0, 77, 64
3, 247380, Note_on_c, 0, 80, 63
3, 247425, Note_off_c, 0, 80, 64
3, 247440, Note_on_c, 0, 84, 70
3, 247485, Note_off_c, 0, 84, 64
3, 247500, Note_on_c, 0, 85, 68
3, 247545, Note_off_c, 0, 85, 64
3, 247560, Note_on_c, 0, 84, 59
3, 247605, Note_off_c, 0, 84, 64
3, 247620, Note_on_c, 0, 82, 55
3, 247665, Note_off_c, 0, 82, 64
3, 247680, Note_on_c, 0, 80, 47
3, 247725, Note_off_c, 0, 80, 64
3, 247740, Note_on_c, 0, 82, 44
3, 247785, Note_off_c, 0, 82, 64
3, 247800, Note_on_c, 0, 80, 47
3, 247845, Note_off_c, 0, 80, 64
3, 247860, Note_on_c, 0, 79, 44
3, 247905, Note_off_c, 0, 79, 64
3, 247920, Note_on_c, 0, 77, 52
3, 247965, Note_off_c, 0, 77, 64
3, 247980, Note_on_c, 0, 79, 41
3, 248025, Note_off_c, 0, 79, 64
3, 248040, Note_on_c, 0, 80, 50
3, 248085, Note_off_c, 0, 80, 64
3, 248100, Note_on_c, 0, 77, 47
3, 248145, Note_off_c, 0, 77, 64
3, 248160, Note_on_c, 0, 80, 47
3, 248205, Note_off_c, 0, 80, 64
3, 248220, Note_on_c, 0, 72, 39
3, 248265, Note_off_c, 0, 72, 64
3, 248280, Note_on_c, 0, 77, 52
3, 248325, Note_off_c, 0, 77, 64
3, 248340, Note_on_c, 0, 80, 44
3, 248385, Note_off_c, 0, 80, 64
3, 248400, Note_on_c, 0, 84, 47
3, 248445, Note_off_c, 0, 84, 64
3, 248460, Note_on_c, 0, 85, 63
3, 248505, Note_off_c, 0, 85, 64
3, 248520, Note_on_c, 0, 84, 56
3, 248565, Note_off_c, 0, 84, 64
3, 248580, Note_on_c, 0, 82, 58
3, 248625, Note_off_c, 0, 82, 64
3, 248640, Note_on_c, 0, 80, 50
3, 248685, Note_off_c, 0, 80, 64
3, 248700, Note_on_c, 0, 82, 55
3, 248745, Note_off_c, 0, 82, 64
3, 248760, Note_on_c, 0, 80, 50
3, 248805, Note_off_c, 0, 80, 64
3, 248820, Note_on_c, 0, 79, 47
3, 248865, Note_off_c, 0, 79, 64
3, 248880, Note_on_c, 0, 77, 39
3, 248925, Note_off_c, 0, 77, 64
3, 248940, Note_on_c, 0, 79, 34
3, 248985, Note_off_c, 0, 79, 64
3, 249000, Note_on_c, 0, 80, 47
3, 249045, Note_off_c, 0, 80, 64
3, 249060, Note_on_c, 0, 77, 34
3, 249105, Note_off_c, 0, 77, 64
3, 249120, Note_on_c, 0, 78, 55
3, 249165, Note_off_c, 0, 78, 64
3, 249180, Note_on_c, 0, 73, 44
3, 249225, Note_off_c, 0, 73, 64
3, 249240, Note_on_c, 0, 78, 44
3, 249285, Note_off_c, 0, 78, 64
3, 249300, Note_on_c, 0, 82, 32
3, 249345, Note_off_c, 0, 82, 64
3, 249360, Note_on_c, 0, 85, 44
3, 249405, Note_off_c, 0, 85, 64
3, 249420, Note_on_c, 0, 87, 55
3, 249465, Note_off_c, 0, 87, 64
3, 249480, Note_on_c, 0, 85, 50
3, 249525, Note_off_c, 0, 85, 64
3, 249540, Note_on_c, 0, 84, 50
3, 249585, Note_off_c, 0, 84, 64
3, 249600, Note_on_c, 0, 82, 47
3, 249645, Note_off_c, 0, 82, 64
3, 249660, Note_on_c, 0, 84, 39
3, 249705, Note_off_c, 0, 84, 64
3, 249720, Note_on_c, 0, 82, 50
3, 249765, Note_off_c, 0, 82, 64
3, 249780, Note_on_c, 0, 80, 50
3, 249825, Note_off_c, 0, 80, 64
3, 249840, Note_on_c, 0, 78, 44
3, 249885, Note_off_c, 0, 78, 64
3, 249900, Note_on_c, 0, 80, 55
3, 249945, Note_off_c, 0, 80, 64
3, 249960, Note_on_c, 0, 78, 55
3, 250005, Note_off_c, 0, 78, 64
3, 250020, Note_on_c, 0, 77, 50
3, 250065, Note_off_c, 0, 77, 64
3, 250080, Note_on_c, 0, 76, 44
3, 250125, Note_off_c, 0, 76, 64
3, 250140, Note_on_c, 0, 77, 41
3, 250185, Note_off_c, 0, 77, 64
3, 250200, Note_on_c, 0, 79, 41
3, 250245, Note_off_c, 0, 79, 64
3, 250260, Note_on_c, 0, 80, 55
3, 250305, Note_off_c, 0, 80, 64
3, 250320, Note_on_c, 0, 82, 63
3, 250365, Note_off_c, 0, 82, 64
3, 250380, Note_on_c, 0, 80, 50
3, 250425, Note_off_c, 0, 80, 64
3, 250440, Note_on_c, 0, 79, 32
3, 250485, Note_off_c, 0, 79, 64
3, 250500, Note_on_c, 0, 77, 50
3, 250545, Note_off_c, 0, 77, 64
3, 250560, Note_on_c, 0, 76, 52
3, 250605, Note_off_c, 0, 76, 64
3, 250620, Note_on_c, 0, 77, 56
3, 250665, Note_off_c, 0, 77, 64
3, 250680, Note_on_c, 0, 79, 50
3, 250725, Note_off_c, 0, 79, 64
3, 250740, Note_on_c, 0, 80, 47
3, 250785, Note_off_c, 0, 80, 64
3, 250800, Note_on_c, 0, 82, 47
3, 250845, Note_off_c, 0, 82, 64
3, 250860, Note_on_c, 0, 84, 47
3, 250905, Note_off_c, 0, 84, 64
3, 250920, Note_on_c, 0, 86, 41
3, 250965, Note_off_c, 0, 86, 64
3, 250980, Note_on_c, 0, 88, 52
3, 251025, Note_off_c, 0, 88, 64
3, 251040, Note_on_c, 0, 89, 50
3, 251085, Note_off_c, 0, 89, 64
3, 251100, Note_on_c, 0, 80, 58
3, 251145, Note_off_c, 0, 80, 64
3, 251160, Note_on_c, 0, 84, 52
3, 251205, Note_off_c, 0, 84, 64
3, 251220, Note_on_c, 0, 89, 56
3, 251265, Note_off_c, 0, 89, 64
3, 251280, Note_on_c, 0, 92, 85
3, 251556, Note_off_c, 0, 92, 64
3, 251580, Note_on_c, 0, 84, 44
3, 251625, Note_off_c, 0, 84, 64
3, 251640, Note_on_c, 0, 89, 50
3, 251685, Note_off_c, 0, 89, 64
3, 251700, Note_on_c, 0, 92, 50
3, 251745, Note_off_c, 0, 92, 64
3, 251760, Note_on_c, 0, 96, 41
3, 251805, Note_off_c, 0, 96, 64
3, 251820, Note_on_c, 0, 92, 55
3, 251865, Note_off_c, 0, 92, 64
3, 251880, Note_on_c, 0, 91, 41
3, 251925, Note_off_c, 0, 91, 64
3, 251940, Note_on_c, 0, 88, 47
3, 251985, Note_off_c, 0, 88, 64
3, 252000, Note_on_c, 0, 89, 36
3, 252045, Note_off_c, 0, 89, 64
3, 252060, Note_on_c, 0, 80, 44
3, 252105, Note_off_c, 0, 80, 64
3, 252120, Note_on_c, 0, 84, 52
3, 252165, Note_off_c, 0, 84, 64
3, 252180, Note_on_c, 0, 89, 56
3, 252225, Note_off_c, 0, 89, 64
3, 252240, Note_on_c, 0, 92, 85
3, 252480, Note_off_c, 0, 92, 64
3, 252480, Note_on_c, 0, 92, 50
3, 252525, Note_off_c, 0, 92, 64
3, 252540, Note_on_c, 0, 84, 39
3, 252585, Note_off_c, 0, 84, 64
3, 252600, Note_on_c, 0, 89, 50
3, 252645, Note_off_c, 0, 89, 64
3, 252660, Note_on_c, 0, 92, 47
3, 252705, Note_off_c, 0, 92, 64
3, 252720, Note_on_c, 0, 96, 50
3, 252765, Note_off_c, 0, 96, 64
3, 252780, Note_on_c, 0, 92, 47
3, 252825, Note_off_c, 0, 92, 64
3, 252840, Note_on_c, 0, 91, 50
3, 252885, Note_off_c, 0, 91, 64
3, 252900, Note_on_c, 0, 88, 41
3, 252945, Note_off_c, 0, 88, 64
3, 252960, Note_on_c, 0, 89, 34
3, 253005, Note_off_c, 0, 89, 64
3, 253020, Note_on_c, 0, 80, 40
3, 253065, Note_off_c, 0, 80, 64
3, 253080, Note_on_c, 0, 84, 50
3, 253125, Note_off_c, 0, 84, 64
3, 253140, Note_on_c, 0, 89, 44
3, 253185, Note_off_c, 0, 89, 64
3, 253200, Note_on_c, 0, 92, 85
3, 253472, Note_off_c, 0, 92, 64
3, 253500, Note_on_c, 0, 84, 50
3, 253545, Note_off_c, 0, 84, 64
3, 253560, Note_on_c, 0, 89, 47
3, 253605, Note_off_c, 0, 89, 64
3, 253620, Note_on_c, 0, 92, 55
3, 253665, Note_off_c, 0, 92, 64
3, 253680, Note_on_c, 0, 96, 56
3, 253725, Note_off_c, 0, 96, 64
3, 253740, Note_on_c, 0, 92, 50
3, 253785, Note_off_c, 0, 92, 64
3, 253800, Note_on_c, 0, 91, 56
3, 253845, Note_off_c, 0, 91, 64
3, 253860, Note_on_c, 0, 88, 52
3, 253905, Note_off_c, 0, 88, 64
3, 253920, Note_on_c, 0, 89, 59
3, 253965, Note_off_c, 0, 89, 64
3, 253980, Note_on_c, 0, 80, 55
3, 254025, Note_off_c, 0, 80, 64
3, 254040, Note_on_c, 0, 84, 52
3, 254085, Note_off_c, 0, 84, 64
3, 254100, Note_on_c, 0, 89, 44
3, 254145, Note_off_c, 0, 89, 64
3, 254160, Note_on_c, 0, 92, 85
3, 254424, Note_off_c, 0, 92, 64
3, 254460, Note_on_c, 0, 84, 52
3, 254505, Note_off_c, 0, 84, 64
3, 254520, Note_on_c, 0, 89, 50
3, 254565, Note_off_c, 0, 89, 64
3, 254580, Note_on_c, 0, 92, 58
3, 254625, Note_off_c, 0, 92, 64
3, 254640, Note_on_c, 0, 96, 47
3, 254685, Note_off_c, 0, 96, 64
3, 254700, Note_on_c, 0, 92, 55
3, 254745, Note_off_c, 0, 92, 64
3, 254760, Note_on_c, 0, 91, 52
3, 254805, Note_off_c, 0, 91, 64
3, 254820, Note_on_c, 0, 88, 52
3, 254865, Note_off_c, 0, 88, 64
3, 254880, Note_on_c, 0, 89, 52
3, 254925, Note_off_c, 0, 89, 64
3, 254940, Note_on_c, 0, 84, 41
3, 254985, Note_off_c, 0, 84, 64
3, 255000, Note_on_c, 0, 89, 56
3, 255045, Note_off_c, 0, 89, 64
3, 255060, Note_on_c, 0, 92, 58
3, 255105, Note_off_c, 0, 92, 64
3, 255120, Note_on_c, 0, 96, 52
3, 255165, Note_off_c, 0, 96, 64
3, 255180, Note_on_c, 0, 92, 50
3, 255225, Note_off_c, 0, 92, 64
3, 255240, Note_on_c, 0, 91, 47
3, 255285, Note_off_c, 0, 91, 64
3, 255300, Note_on_c, 0, 88, 44
3, 255345, Note_off_c, 0, 88, 64
3, 255360, Note_on_c, 0, 89, 59
3, 255405, Note_off_c, 0, 89, 64
3, 255420, Note_on_c, 0, 84, 50
3, 255465, Note_off_c, 0, 84, 64
3, 255480, Note_on_c, 0, 89, 50
3, 255525, Note_off_c, 0, 89, 64
3, 255540, Note_on_c, 0, 92, 47
3, 255585, Note_off_c, 0, 92, 64
3, 255600, Note_on_c, 0, 96, 44
3, 255645, Note_off_c, 0, 96, 64
3, 255660, Note_on_c, 0, 92, 55
3, 255705, Note_off_c, 0, 92, 64
3, 255720, Note_on_c, 0, 91, 50
3, 255765, Note_off_c, 0, 91, 64
3, 255780, Note_on_c, 0, 88, 50
3, 255825, Note_off_c, 0, 88, 64
3, 255840, Note_on_c, 0, 89, 67
3, 255885, Note_off_c, 0, 89, 64
3, 255900, Note_on_c, 0, 84, 47
3, 255945, Note_off_c, 0, 84, 64
3, 255960, Note_on_c, 0, 89, 39
3, 256005, Note_off_c, 0, 89, 64
3, 256020, Note_on_c, 0, 92, 47
3, 256065, Note_off_c, 0, 92, 64
3, 256080, Note_on_c, 0, 96, 56
3, 256125, Note_off_c, 0, 96, 64
3, 256140, Note_on_c, 0, 92, 50
3, 256185, Note_off_c, 0, 92, 64
3, 256200, Note_on_c, 0, 91, 50
3, 256245, Note_off_c, 0, 91, 64
3, 256260, Note_on_c, 0, 88, 21
3, 256305, Note_off_c, 0, 88, 64
3, 256320, Note_on_c, 0, 96, 59
3, 256380, Note_off_c, 0, 96, 64
3, 256380, Note_on_c, 0, 92, 50
3, 256440, Note_off_c, 0, 92, 64
3, 256440, Note_on_c, 0, 91, 52
3, 256500, Note_off_c, 0, 91, 64
3, 256500, Note_on_c, 0, 88, 47
3, 256560, Note_off_c, 0, 88, 64
3, 256560, Note_on_c, 0, 96, 70
3, 256620, Note_off_c, 0, 96, 64
3, 256620, Note_on_c, 0, 92, 50
3, 256680, Note_off_c, 0, 92, 64
3, 256680, Note_on_c, 0, 91, 52
3, 256740, Note_off_c, 0, 91, 64
3, 256740, Note_on_c, 0, 88, 47
3, 256800, Note_off_c, 0, 88, 64
3, 256800, Note_on_c, 0, 96, 70
3, 256860, Note_off_c, 0, 96, 64
3, 256860, Note_on_c, 0, 92, 47
3, 256920, Note_off_c, 0, 92, 64
3, 256920, Note_on_c, 0, 89, 36
3, 256980, Note_off_c, 0, 89, 64
3, 256980, Note_on_c, 0, 84, 36
3, 257040, Note_off_c, 0, 84, 64
3, 257040, Note_on_c, 0, 92, 68
3, 257100, Note_off_c, 0, 92, 64
3, 257100, Note_on_c, 0, 89, 50
3, 257160, Note_off_c, 0, 89, 64
3, 257160, Note_on_c, 0, 84, 32
3, 257220, Note_off_c, 0, 84, 64
3, 257220, Note_on_c, 0, 80, 29
3, 257280, Note_off_c, 0, 80, 64
3, 257280, Note_on_c, 0, 89, 67
3, 257340, Note_off_c, 0, 89, 64
3, 257340, Note_on_c, 0, 84, 59
3, 257400, Note_off_c, 0, 84, 64
3, 257400, Note_on_c, 0, 80, 58
3, 257460, Note_off_c, 0, 80, 64
3, 257460, Note_on_c, 0, 77, 59
3, 257520, Note_off_c, 0, 77, 64
3, 257520, Note_on_c, 0, 84, 75
3, 257580, Note_off_c, 0, 84, 64
3, 257580, Note_on_c, 0, 80, 58
3, 257640, Note_off_c, 0, 80, 64
3, 257640, Note_on_c, 0, 77, 56
3, 257700, Note_off_c, 0, 77, 64
3, 257700, Note_on_c, 0, 72, 44
3, 257760, Note_off_c, 0, 72, 64
3, 257760, Note_on_c, 0, 80, 74
3, 257820, Note_off_c, 0, 80, 64
3, 257820, Note_on_c, 0, 77, 56
3, 257880, Note_off_c, 0, 77, 64
3, 257880, Note_on_c, 0, 72, 25
3, 257940, Note_off_c, 0, 72, 64
3, 257940, Note_on_c, 0, 68, 58
3, 258000, Note_off_c, 0, 68, 64
3, 258000, Note_on_c, 0, 77, 70
3, 258060, Note_off_c, 0, 77, 64
3, 258060, Note_on_c, 0, 72, 47
3, 258120, Note_off_c, 0, 72, 64
3, 258120, Note_on_c, 0, 68, 47
3, 258180, Note_off_c, 0, 68, 64
3, 258180, Note_on_c, 0, 65, 50
3, 258240, Note_off_c, 0, 65, 64
3, 258240, Note_on_c, 0, 72, 67
3, 258300, Note_off_c, 0, 72, 64
3, 258300, Note_on_c, 0, 68, 55
3, 258360, Note_off_c, 0, 68, 64
3, 258360, Note_on_c, 0, 65, 44
3, 258420, Note_off_c, 0, 65, 64
3, 258420, Note_on_c, 0, 60, 44
3, 258480, Note_off_c, 0, 60, 64
3, 258480, Note_on_c, 0, 68, 68
3, 258540, Note_off_c, 0, 68, 64
3, 258540, Note_on_c, 0, 65, 52
3, 258600, Note_off_c, 0, 65, 64
3, 258600, Note_on_c, 0, 60, 52
3, 258660, Note_off_c, 0, 60, 64
3, 258660, Note_on_c, 0, 56, 51
3, 258720, Note_off_c, 0, 56, 64
3, 258720, Note_on_c, 0, 65, 62
3, 258780, Note_off_c, 0, 65, 64
3, 258780, Note_on_c, 0, 60, 52
3, 258840, Note_off_c, 0, 60, 64
3, 258840, Note_on_c, 0, 56, 54
3, 258900, Note_off_c, 0, 56, 64
3, 258900, Note_on_c, 0, 53, 60
3, 258960, Note_off_c, 0, 53, 64
3, 258960, Note_on_c, 0, 60, 70
3, 259020, Note_off_c, 0, 60, 64
3, 259020, Note_on_c, 0, 56, 62
3, 259080, Note_off_c, 0, 56, 64
3, 259080, Note_on_c, 0, 53, 63
3, 259140, Note_off_c, 0, 53, 64
3, 259140, Note_on_c, 0, 48, 52
3, 259200, Note_off_c, 0, 48, 64
3, 259200, Note_on_c, 0, 56, 78
3, 259260, Note_off_c, 0, 56, 64
3, 259260, Note_on_c, 0, 53, 54
3, 259320, Note_off_c, 0, 53, 64
3, 259320, Note_on_c, 0, 48, 47
3, 259380, Note_off_c, 0, 48, 64
3, 259380, Note_on_c, 0, 44, 58
3, 259440, Note_off_c, 0, 44, 64
3, 259440, Note_on_c, 0, 53, 63
3, 259500, Note_off_c, 0, 53, 64
3, 259500, Note_on_c, 0, 48, 62
3, 259560, Note_off_c, 0, 48, 64
3, 259560, Note_on_c, 0, 44, 68
3, 259620, Note_off_c, 0, 44, 64
3, 259620, Note_on_c, 0, 48, 67
3, 259680, Note_off_c, 0, 48, 64
3, 259680, Note_on_c, 0, 44, 58
3, 259680, Note_on_c, 0, 48, 56
3, 259680, Note_on_c, 0, 53, 54
3, 259800, Note_off_c, 0, 53, 64
3, 259800, Note_off_c, 0, 48, 64
3, 259800, Note_off_c, 0, 44, 64
3, 260160, Note_on_c, 0, 77, 74
3, 260160, Note_on_c, 0, 68, 75
3, 260160, Note_on_c, 0, 65, 62
3, 260160, Note_on_c, 0, 72, 74
3, 260280, Note_off_c, 0, 72, 64
3, 260280, Note_off_c, 0, 65, 64
3, 260280, Note_off_c, 0, 68, 64
3, 260280, Note_off_c, 0, 77, 64
3, 260640, Note_on_c, 0, 65, 62
3, 260640, Note_on_c, 0, 53, 56
3, 260640, Note_on_c, 0, 56, 67
3, 260640, Note_on_c, 0, 60, 70
3, 260760, Note_off_c, 0, 60, 64
3, 260760, Note_off_c, 0, 56, 64
3, 260760, Note_off_c, 0, 53, 64
3, 260760, Note_off_c, 0, 65, 64
3, 260760, End_track
4, 0, Start_track
4, 0, Title_t, "Left"
4, 44160, Note_on_c, 0, 29, 85
4, 44400, Note_off_c, 0, 29, 64
4, 45060, Note_on_c, 0, 53, 56
4, 45120, Note_off_c, 0, 53, 64
4, 45120, Note_on_c, 0, 29, 85
4, 45360, Note_off_c, 0, 29, 64
4, 46020, Note_on_c, 0, 53, 54
4, 46080, Note_off_c, 0, 53, 64
4, 46080, Note_on_c, 0, 29, 85
4, 46320, Note_off_c, 0, 29, 64
4, 46440, Note_on_c, 0, 58, 44
4, 46500, Note_off_c, 0, 58, 64
4, 46500, Note_on_c, 0, 59, 43
4, 46560, Note_off_c, 0, 59, 64
4, 46560, Note_on_c, 0, 60, 34
4, 46620, Note_off_c, 0, 60, 64
4, 46620, Note_on_c, 0, 61, 39
4, 46680, Note_off_c, 0, 61, 64
4, 46680, Note_on_c, 0, 60, 32
4, 46740, Note_off_c, 0, 60, 64
4, 46740, Note_on_c, 0, 58, 32
4, 46800, Note_off_c, 0, 58, 64
4, 46800, Note_on_c, 0, 57, 50
4, 46920, Note_off_c, 0, 57, 64
4, 46920, Note_on_c, 0, 57, 50
4, 46980, Note_off_c, 0, 57, 64
4, 46980, Note_on_c, 0, 58, 55
4, 47040, Note_off_c, 0, 58, 64
4, 47040, Note_on_c, 0, 60, 59
4, 47100, Note_off_c, 0, 60, 64
4, 47100, Note_on_c, 0, 61, 54
4, 47160, Note_off_c, 0, 61, 64
4, 47160, Note_on_c, 0, 60, 52
4, 47220, Note_off_c, 0, 60, 64
4, 47220, Note_on_c, 0, 58, 50
4, 47280, Note_off_c, 0, 58, 64
4, 47280, Note_on_c, 0, 57, 47
4, 47400, Note_off_c, 0, 57, 64
4, 47400, Note_on_c, 0, 57, 44
4, 47460, Note_off_c, 0, 57, 64
4, 47460, Note_on_c, 0, 58, 47
4, 47520, Note_off_c, 0, 58, 64
4, 47520, Note_on_c, 0, 60, 56
4, 47580, Note_off_c, 0, 60, 64
4, 47580, Note_on_c, 0, 61, 51
4, 47640, Note_off_c, 0, 61, 64
4, 47640, Note_on_c, 0, 60, 52
4, 47700, Note_off_c, 0, 60, 64
4, 47700, Note_on_c, 0, 58, 50
4, 47760, Note_off_c, 0, 58, 64
4, 47760, Note_on_c, 0, 57, 32
4, 47820, Note_off_c, 0, 57, 64
4, 47820, Note_on_c, 0, 54, 47
4, 47880, Note_off_c, 0, 54, 64
4, 47880, Note_on_c, 0, 53, 51
4, 47940, Note_off_c, 0, 53, 64
4, 47940, Note_on_c, 0, 51, 40
4, 48000, Note_off_c, 0, 51, 64
4, 48000, Note_on_c, 0, 49, 47
4, 48045, Note_off_c, 0, 49, 64
4, 48060, Note_on_c, 0, 53, 29
4, 48105, Note_off_c, 0, 53, 64
4, 48120, Note_on_c, 0, 58, 44
4, 48165, Note_off_c, 0, 58, 64
4, 48180, Note_on_c, 0, 53, 40
4, 48225, Note_off_c, 0, 53, 64
4, 48240, Note_on_c, 0, 58, 50
4, 48285, Note_off_c, 0, 58, 64
4, 48300, Note_on_c, 0, 53, 43
4, 48345, Note_off_c, 0, 53, 64
4, 48360, Note_on_c, 0, 58, 44
4, 48405, Note_off_c, 0, 58, 64
4, 48420, Note_on_c, 0, 53, 40
4, 48465, Note_off_c, 0, 53, 64
4, 48480, Note_on_c, 0, 58, 58
4, 48525, Note_off_c, 0, 58, 64
4, 48540, Note_on_c, 0, 53, 36
4, 48585, Note_off_c, 0, 53, 64
4, 48600, Note_on_c, 0, 58, 44
4, 48645, Note_off_c, 0, 58, 64
4, 48660, Note_on_c, 0, 53, 30
4, 48705, Note_off_c, 0, 53, 64
4, 48720, Note_on_c, 0, 58, 55
4, 48765, Note_off_c, 0, 58, 64
4, 48780, Note_on_c, 0, 53, 40
4, 48825, Note_off_c, 0, 53, 64
4, 48840, Note_on_c, 0, 58, 50
4, 48885, Note_off_c, 0, 58, 64
4, 48900, Note_on_c, 0, 53, 48
4, 48945, Note_off_c, 0, 53, 64
4, 48960, Note_on_c, 0, 49, 47
4, 49005, Note_off_c, 0, 49, 64
4, 49020, Note_on_c, 0, 53, 45
4, 49065, Note_off_c, 0, 53, 64
4, 49080, Note_on_c, 0, 58, 50
4, 49125, Note_off_c, 0, 58, 64
4, 49140, Note_on_c, 0, 53, 40
4, 49185, Note_off_c, 0, 53, 64
4, 49200, Note_on_c, 0, 58, 50
4, 49245, Note_off_c, 0, 58, 64
4, 49260, Note_on_c, 0, 53, 45
4, 49305, Note_off_c, 0, 53, 64
4, 49320, Note_on_c, 0, 58, 50
4, 49365, Note_off_c, 0, 58, 64
4, 49380, Note_on_c, 0, 53, 38
4, 49425, Note_off_c, 0, 53, 64
4, 49440, Note_on_c, 0, 58, 47
4, 49485, Note_off_c, 0, 58, 64
4, 49500, Note_on_c, 0, 53, 45
4, 49545, Note_off_c, 0, 53, 64
4, 49560, Note_on_c, 0, 58, 50
4, 49605, Note_off_c, 0, 58, 64
4, 49620, Note_on_c, 0, 53, 43
4, 49665, Note_off_c, 0, 53, 64
4, 49680, Note_on_c, 0, 58, 50
4, 49725, Note_off_c, 0, 58, 64
4, 49740, Note_on_c, 0, 53, 40
4, 49785, Note_off_c, 0, 53, 64
4, 49800, Note_on_c, 0, 58, 47
4, 49845, Note_off_c, 0, 58, 64
4, 49860, Note_on_c, 0, 53, 43
4, 49905, Note_off_c, 0, 53, 64
4, 49920, Note_on_c, 0, 51, 44
4, 49965, Note_off_c, 0, 51, 64
4, 49980, Note_on_c, 0, 54, 47
4, 50025, Note_off_c, 0, 54, 64
4, 50040, Note_on_c, 0, 59, 56
4, 50085, Note_off_c, 0, 59, 64
4, 50100, Note_on_c, 0, 54, 55
4, 50145, Note_off_c, 0, 54, 64
4, 50160, Note_on_c, 0, 59, 54
4, 50205, Note_off_c, 0, 59, 64
4, 50220, Note_on_c, 0, 54, 50
4, 50265, Note_off_c, 0, 54, 64
4, 50280, Note_on_c, 0, 59, 48
4, 50325, Note_off_c, 0, 59, 64
4, 50340, Note_on_c, 0, 54, 40
4, 50385, Note_off_c, 0, 54, 64
4, 50400, Note_on_c, 0, 59, 51
4, 50445, Note_off_c, 0, 59, 64
4, 50460, Note_on_c, 0, 54, 50
4, 50505, Note_off_c, 0, 54, 64
4, 50520, Note_on_c, 0, 59, 51
4, 50565, Note_off_c, 0, 59, 64
4, 50580, Note_on_c, 0, 54, 44
4, 50625, Note_off_c, 0, 54, 64
4, 50640, Note_on_c, 0, 59, 43
4, 50685, Note_off_c, 0, 59, 64
4, 50700, Note_on_c, 0, 54, 47
4, 50745, Note_off_c, 0, 54, 64
4, 50760, Note_on_c, 0, 59, 43
4, 50805, Note_off_c, 0, 59, 64
4, 50820, Note_on_c, 0, 54, 44
4, 50865, Note_off_c, 0, 54, 64
4, 50880, Note_on_c, 0, 53, 48
4, 50925, Note_off_c, 0, 53, 64
4, 50940, Note_on_c, 0, 58, 47
4, 50985, Note_off_c, 0, 58, 64
4, 51000, Note_on_c, 0, 61, 51
4, 51045, Note_off_c, 0, 61, 64
4, 51060, Note_on_c, 0, 58, 40
4, 51105, Note_off_c, 0, 58, 64
4, 51120, Note_on_c, 0, 61, 48
4, 51165, Note_off_c, 0, 61, 64
4, 51180, Note_on_c, 0, 58, 47
4, 51225, Note_off_c, 0, 58, 64
4, 51240, Note_on_c, 0, 61, 51
4, 51285, Note_off_c, 0, 61, 64
4, 51300, Note_on_c, 0, 58, 40
4, 51345, Note_off_c, 0, 58, 64
4, 51360, Note_on_c, 0, 51, 47
4, 51405, Note_off_c, 0, 51, 64
4, 51420, Note_on_c, 0, 53, 60
4, 51465, Note_off_c, 0, 53, 64
4, 51480, Note_on_c, 0, 60, 47
4, 51525, Note_off_c, 0, 60, 64
4, 51540, Note_on_c, 0, 53, 30
4, 51585, Note_off_c, 0, 53, 64
4, 51600, Note_on_c, 0, 60, 39
4, 51645, Note_off_c, 0, 60, 64
4, 51660, Note_on_c, 0, 53, 38
4, 51705, Note_off_c, 0, 53, 64
4, 51720, Note_on_c, 0, 60, 50
4, 51765, Note_off_c, 0, 60, 64
4, 51780, Note_on_c, 0, 53, 51
4, 51825, Note_off_c, 0, 53, 64
4, 51840, Note_on_c, 0, 49, 47
4, 51885, Note_off_c, 0, 49, 64
4, 51900, Note_on_c, 0, 65, 47
4, 51945, Note_off_c, 0, 65, 64
4, 52080, Note_on_c, 0, 58, 70
4, 52140, Note_on_c, 0, 61, 48
4, 52185, Note_off_c, 0, 61, 64
4, 52200, Note_on_c, 0, 65, 47
4, 52245, Note_off_c, 0, 65, 64
4, 52260, Note_on_c, 0, 61, 39
4, 52305, Note_off_c, 0, 61, 64
4, 52320, Note_off_c, 0, 58, 64
4, 52320, Note_on_c, 0, 57, 85
4, 52380, Note_on_c, 0, 61, 39
4, 52425, Note_off_c, 0, 61, 64
4, 52440, Note_on_c, 0, 65, 32
4, 52485, Note_off_c, 0, 65, 64
4, 52500, Note_on_c, 0, 61, 36
4, 52545, Note_off_c, 0, 61, 64
4, 52560, Note_off_c, 0, 57, 64
4, 52560, Note_on_c, 0, 58, 70
4, 52620, Note_on_c, 0, 61, 54
4, 52665, Note_off_c, 0, 61, 64
4, 52680, Note_on_c, 0, 65, 52
4, 52725, Note_off_c, 0, 65, 64
4, 52740, Note_on_c, 0, 61, 54
4, 52785, Note_off_c, 0, 61, 64
4, 52800, Note_off_c, 0, 58, 64
4, 52800, Note_on_c, 0, 49, 55
4, 52845, Note_off_c, 0, 49, 64
4, 52860, Note_on_c, 0, 65, 47
4, 52905, Note_off_c, 0, 65, 64
4, 53040, Note_on_c, 0, 58, 70
4, 53100, Note_on_c, 0, 61, 44
4, 53145, Note_off_c, 0, 61, 64
4, 53160, Note_on_c, 0, 65, 36
4, 53205, Note_off_c, 0, 65, 64
4, 53220, Note_on_c, 0, 61, 36
4, 53265, Note_off_c, 0, 61, 64
4, 53280, Note_off_c, 0, 58, 64
4, 53280, Note_on_c, 0, 57, 85
4, 53340, Note_on_c, 0, 61, 48
4, 53385, Note_off_c, 0, 61, 64
4, 53400, Note_on_c, 0, 65, 44
4, 53445, Note_off_c, 0, 65, 64
4, 53460, Note_on_c, 0, 61, 42
4, 53505, Note_off_c, 0, 61, 64
4, 53520, Note_off_c, 0, 57, 64
4, 53520, Note_on_c, 0, 58, 70
4, 53580, Note_on_c, 0, 61, 48
4, 53625, Note_off_c, 0, 61, 64
4, 53640, Note_on_c, 0, 65, 44
4, 53685, Note_off_c, 0, 65, 64
4, 53700, Note_on_c, 0, 61, 42
4, 53745, Note_off_c, 0, 61, 64
4, 53760, Note_off_c, 0, 58, 64
4, 53760, Note_on_c, 0, 51, 63
4, 53805, Note_off_c, 0, 51, 64
4, 53820, Note_on_c, 0, 71, 39
4, 53820, Note_on_c, 0, 66, 44
4, 53865, Note_off_c, 0, 66, 64
4, 53865, Note_off_c, 0, 71, 64
4, 53880, Note_on_c, 0, 63, 50
4, 53925, Note_off_c, 0, 63, 64
4, 53940, Note_on_c, 0, 71, 32
4, 53940, Note_on_c, 0, 66, 47
4, 53985, Note_off_c, 0, 66, 64
4, 53985, Note_off_c, 0, 71, 64
4, 54000, Note_on_c, 0, 63, 55
4, 54045, Note_off_c, 0, 63, 64
4, 54060, Note_on_c, 0, 71, 36
4, 54060, Note_on_c, 0, 66, 40
4, 54105, Note_off_c, 0, 66, 64
4, 54105, Note_off_c, 0, 71, 64
4, 54120, Note_on_c, 0, 63, 47
4, 54165, Note_off_c, 0, 63, 64
4, 54180, Note_on_c, 0, 71, 26
4, 54180, Note_on_c, 0, 66, 27
4, 54225, Note_off_c, 0, 66, 64
4, 54225, Note_off_c, 0, 71, 64
4, 54240, Note_on_c, 0, 63, 55
4, 54285, Note_off_c, 0, 63, 64
4, 54300, Note_on_c, 0, 71, 41
4, 54300, Note_on_c, 0, 66, 24
4, 54345, Note_off_c, 0, 66, 64
4, 54345, Note_off_c, 0, 71, 64
4, 54360, Note_on_c, 0, 63, 44
4, 54405, Note_off_c, 0, 63, 64
4, 54420, Note_on_c, 0, 71, 23
4, 54420, Note_on_c, 0, 66, 38
4, 54465, Note_off_c, 0, 66, 64
4, 54465, Note_off_c, 0, 71, 64
4, 54480, Note_on_c, 0, 63, 55
4, 54525, Note_off_c, 0, 63, 64
4, 54540, Note_on_c, 0, 71, 36
4, 54540, Note_on_c, 0, 66, 32
4, 54585, Note_off_c, 0, 66, 64
4, 54585, Note_off_c, 0, 71, 64
4, 54600, Note_on_c, 0, 63, 50
4, 54645, Note_off_c, 0, 63, 64
4, 54660, Note_on_c, 0, 71, 34
4, 54660, Note_on_c, 0, 66, 27
4, 54705, Note_off_c, 0, 66, 64
4, 54705, Note_off_c, 0, 71, 64
4, 54720, Note_on_c, 0, 65, 59
4, 54765, Note_off_c, 0, 65, 64
4, 54780, Note_on_c, 0, 75, 58
4, 54780, Note_on_c, 0, 69, 41
4, 54825, Note_off_c, 0, 69, 64
4, 54825, Note_off_c, 0, 75, 64
4, 54840, Note_on_c, 0, 65, 50
4, 54885, Note_off_c, 0, 65, 64
4, 54900, Note_on_c, 0, 75, 47
4, 54900, Note_on_c, 0, 69, 39
4, 54945, Note_off_c, 0, 69, 64
4, 54945, Note_off_c, 0, 75, 64
4, 54960, Note_on_c, 0, 65, 52
4, 55005, Note_off_c, 0, 65, 64
4, 55020, Note_on_c, 0, 75, 44
4, 55020, Note_on_c, 0, 69, 41
4, 55065, Note_off_c, 0, 69, 64
4, 55065, Note_off_c, 0, 75, 64
4, 55080, Note_on_c, 0, 65, 56
4, 55125, Note_off_c, 0, 65, 64
4, 55140, Note_on_c, 0, 75, 50
4, 55140, Note_on_c, 0, 69, 44
4, 55185, Note_off_c, 0, 69, 64
4, 55185, Note_off_c, 0, 75, 64
4, 55200, Note_on_c, 0, 65, 41
4, 55245, Note_off_c, 0, 65, 64
4, 55260, Note_on_c, 0, 69, 39
4, 55305, Note_off_c, 0, 69, 64
4, 55320, Note_on_c, 0, 65, 44
4, 55365, Note_off_c, 0, 65, 64
4, 55380, Note_on_c, 0, 69, 44
4, 55425, Note_off_c, 0, 69, 64
4, 55440, Note_on_c, 0, 53, 51
4, 55485, Note_off_c, 0, 53, 64
4, 55500, Note_on_c, 0, 65, 44
4, 55545, Note_off_c, 0, 65, 64
4, 55560, Note_on_c, 0, 53, 51
4, 55605, Note_off_c, 0, 53, 64
4, 55620, Note_on_c, 0, 65, 50
4, 55665, Note_off_c, 0, 65, 64
4, 55680, Note_on_c, 0, 46, 33
4, 55770, Note_off_c, 0, 46, 64
4, 55800, Note_on_c, 0, 58, 70
4, 55800, Note_on_c, 0, 61, 70
4, 55845, Note_off_c, 0, 61, 64
4, 55845, Note_off_c, 0, 58, 64
4, 55860, Note_on_c, 0, 65, 39
4, 55905, Note_off_c, 0, 65, 64
4, 55920, Note_on_c, 0, 58, 44
4, 55920, Note_on_c, 0, 61, 28
4, 55965, Note_off_c, 0, 61, 64
4, 55965, Note_off_c, 0, 58, 64
4, 55980, Note_on_c, 0, 65, 36
4, 56025, Note_off_c, 0, 65, 64
4, 56040, Note_on_c, 0, 58, 44
4, 56040, Note_on_c, 0, 61, 23
4, 56085, Note_off_c, 0, 61, 64
4, 56085, Note_off_c, 0, 58, 64
4, 56100, Note_on_c, 0, 65, 31
4, 56145, Note_off_c, 0, 65, 64
4, 56160, Note_on_c, 0, 58, 38
4, 56160, Note_on_c, 0, 61, 31
4, 56205, Note_off_c, 0, 61, 64
4, 56205, Note_off_c, 0, 58, 64
4, 56220, Note_on_c, 0, 65, 47
4, 56265, Note_off_c, 0, 65, 64
4, 56280, Note_on_c, 0, 58, 70
4, 56280, Note_on_c, 0, 61, 70
4, 56325, Note_off_c, 0, 61, 64
4, 56325, Note_off_c, 0, 58, 64
4, 56340, Note_on_c, 0, 64, 47
4, 56385, Note_off_c, 0, 64, 64
4, 56400, Note_on_c, 0, 58, 47
4, 56400, Note_on_c, 0, 61, 18
4, 56445, Note_off_c, 0, 61, 64
4, 56445, Note_off_c, 0, 58, 64
4, 56460, Note_on_c, 0, 64, 42
4, 56505, Note_off_c, 0, 64, 64
4, 56520, Note_on_c, 0, 58, 47
4, 56520, Note_on_c, 0, 61, 42
4, 56565, Note_off_c, 0, 61, 64
4, 56565, Note_off_c, 0, 58, 64
4, 56580, Note_on_c, 0, 64, 42
4, 56625, Note_off_c, 0, 64, 64
4, 56640, Note_on_c, 0, 57, 47
4, 56640, Note_on_c, 0, 60, 47
4, 56685, Note_off_c, 0, 60, 64
4, 56685, Note_off_c, 0, 57, 64
4, 56700, Note_on_c, 0, 64, 42
4, 56745, Note_off_c, 0, 64, 64
4, 56760, Note_on_c, 0, 57, 70
4, 56760, Note_on_c, 0, 60, 70
4, 56805, Note_off_c, 0, 60, 64
4, 56805, Note_off_c, 0, 57, 64
4, 56820, Note_on_c, 0, 65, 47
4, 56865, Note_off_c, 0, 65, 64
4, 56880, Note_on_c, 0, 57, 44
4, 56880, Note_on_c, 0, 60, 39
4, 56925, Note_off_c, 0, 60, 64
4, 56925, Note_off_c, 0, 57, 64
4, 56940, Note_on_c, 0, 65, 47
4, 56985, Note_off_c, 0, 65, 64
4, 57000, Note_on_c, 0, 57, 47
4, 57000, Note_on_c, 0, 60, 47
4, 57045, Note_off_c, 0, 60, 64
4, 57045, Note_off_c, 0, 57, 64
4, 57060, Note_on_c, 0, 65, 50
4, 57105, Note_off_c, 0, 65, 64
4, 57120, Note_on_c, 0, 57, 35
4, 57120, Note_on_c, 0, 60, 29
4, 57165, Note_off_c, 0, 60, 64
4, 57165, Note_off_c, 0, 57, 64
4, 57180, Note_on_c, 0, 65, 31
4, 57225, Note_off_c, 0, 65, 64
4, 57240, Note_on_c, 0, 57, 27
4, 57240, Note_on_c, 0, 60, 22
4, 57285, Note_off_c, 0, 60, 64
4, 57285, Note_off_c, 0, 57, 64
4, 57300, Note_on_c, 0, 65, 33
4, 57345, Note_off_c, 0, 65, 64
4, 57360, Note_on_c, 0, 57, 31
4, 57360, Note_on_c, 0, 60, 20
4, 57405, Note_off_c, 0, 60, 64
4, 57405, Note_off_c, 0, 57, 64
4, 57420, Note_on_c, 0, 65, 29
4, 57465, Note_off_c, 0, 65, 64
4, 57480, Note_on_c, 0, 57, 27
4, 57480, Note_on_c, 0, 60, 24
4, 57525, Note_off_c, 0, 60, 64
4, 57525, Note_off_c, 0, 57, 64
4, 57540, Note_on_c, 0, 65, 29
4, 57585, Note_off_c, 0, 65, 64
4, 57600, Note_on_c, 0, 61, 51
4, 57600, Note_on_c, 0, 58, 44
4, 57645, Note_off_c, 0, 58, 64
4, 57645, Note_off_c, 0, 61, 64
4, 57660, Note_on_c, 0, 65, 47
4, 57705, Note_off_c, 0, 65, 64
4, 57720, Note_on_c, 0, 58, 70
4, 57720, Note_on_c, 0, 61, 70
4, 57765, Note_off_c, 0, 61, 64
4, 57765, Note_off_c, 0, 58, 64
4, 57780, Note_on_c, 0, 65, 47
4, 57825, Note_off_c, 0, 65, 64
4, 57840, Note_on_c, 0, 58, 47
4, 57840, Note_on_c, 0, 61, 42
4, 57885, Note_off_c, 0, 61, 64
4, 57885, Note_off_c, 0, 58, 64
4, 57900, Note_on_c, 0, 65, 34
4, 57945, Note_off_c, 0, 65, 64
4, 57960, Note_on_c, 0, 58, 63
4, 57960, Note_on_c, 0, 61, 13
4, 58005, Note_off_c, 0, 61, 64
4, 58005, Note_off_c, 0, 58, 64
4, 58020, Note_on_c, 0, 65, 50
4, 58065, Note_off_c, 0, 65, 64
4, 58080, Note_on_c, 0, 61, 51
4, 58080, Note_on_c, 0, 58, 50
4, 58125, Note_off_c, 0, 58, 64
4, 58125, Note_off_c, 0, 61, 64
4, 58140, Note_on_c, 0, 65, 44
4, 58185, Note_off_c, 0, 65, 64
4, 58200, Note_on_c, 0, 58, 70
4, 58200, Note_on_c, 0, 61, 70
4, 58245, Note_off_c, 0, 61, 64
4, 58245, Note_off_c, 0, 58, 64
4, 58260, Note_on_c, 0, 64, 49
4, 58305, Note_off_c, 0, 64, 64
4, 58320, Note_on_c, 0, 58, 40
4, 58320, Note_on_c, 0, 61, 39
4, 58365, Note_off_c, 0, 61, 64
4, 58365, Note_off_c, 0, 58, 64
4, 58380, Note_on_c, 0, 64, 40
4, 58425, Note_off_c, 0, 64, 64
4, 58440, Note_on_c, 0, 61, 42
4, 58440, Note_on_c, 0, 58, 44
4, 58485, Note_off_c, 0, 58, 64
4, 58485, Note_off_c, 0, 61, 64
4, 58500, Note_on_c, 0, 64, 42
4, 58545, Note_off_c, 0, 64, 64
4, 58560, Note_on_c, 0, 57, 41
4, 58560, Note_on_c, 0, 60, 52
4, 58605, Note_off_c, 0, 60, 64
4, 58605, Note_off_c, 0, 57, 64
4, 58620, Note_on_c, 0, 64, 40
4, 58665, Note_off_c, 0, 64, 64
4, 58680, Note_on_c, 0, 57, 70
4, 58680, Note_on_c, 0, 60, 70
4, 58725, Note_off_c, 0, 60, 64
4, 58725, Note_off_c, 0, 57, 64
4, 58740, Note_on_c, 0, 65, 44
4, 58785, Note_off_c, 0, 65, 64
4, 58800, Note_on_c, 0, 60, 50
4, 58800, Note_on_c, 0, 57, 39
4, 58845, Note_off_c, 0, 57, 64
4, 58845, Note_off_c, 0, 60, 64
4, 58860, Note_on_c, 0, 65, 34
4, 58905, Note_off_c, 0, 65, 64
4, 58920, Note_on_c, 0, 57, 44
4, 58920, Note_on_c, 0, 60, 32
4, 58965, Note_off_c, 0, 60, 64
4, 58965, Note_off_c, 0, 57, 64
4, 58980, Note_on_c, 0, 65, 47
4, 59025, Note_off_c, 0, 65, 64
4, 59040, Note_on_c, 0, 57, 28
4, 59040, Note_on_c, 0, 60, 28
4, 59085, Note_off_c, 0, 60, 64
4, 59085, Note_off_c, 0, 57, 64
4, 59100, Note_on_c, 0, 65, 29
4, 59145, Note_off_c, 0, 65, 64
4, 59160, Note_on_c, 0, 57, 26
4, 59160, Note_on_c, 0, 60, 28
4, 59205, Note_off_c, 0, 60, 64
4, 59205, Note_off_c, 0, 57, 64
4, 59220, Note_on_c, 0, 65, 29
4, 59265, Note_off_c, 0, 65, 64
4, 59280, Note_on_c, 0, 60, 28
4, 59280, Note_on_c, 0, 57, 28
4, 59325, Note_off_c, 0, 57, 64
4, 59325, Note_off_c, 0, 60, 64
4, 59340, Note_on_c, 0, 65, 29
4, 59385, Note_off_c, 0, 65, 64
4, 59400, Note_on_c, 0, 57, 24
4, 59400, Note_on_c, 0, 60, 24
4, 59445, Note_off_c, 0, 60, 64
4, 59445, Note_off_c, 0, 57, 64
4, 59460, Note_on_c, 0, 65, 29
4, 59505, Note_off_c, 0, 65, 64
4, 59520, Note_on_c, 0, 61, 51
4, 59520, Note_on_c, 0, 58, 47
4, 59565, Note_off_c, 0, 58, 64
4, 59565, Note_off_c, 0, 61, 64
4, 59580, Note_on_c, 0, 65, 52
4, 59625, Note_off_c, 0, 65, 64
4, 59640, Note_on_c, 0, 52, 70
4, 59640, Note_on_c, 0, 55, 70
4, 59685, Note_off_c, 0, 55, 64
4, 59685, Note_off_c, 0, 52, 64
4, 59700, Note_on_c, 0, 60, 52
4, 59745, Note_off_c, 0, 60, 64
4, 59760, Note_on_c, 0, 52, 44
4, 59760, Note_on_c, 0, 55, 36
4, 59805, Note_off_c, 0, 55, 64
4, 59805, Note_off_c, 0, 52, 64
4, 59820, Note_on_c, 0, 60, 44
4, 59865, Note_off_c, 0, 60, 64
4, 59880, Note_on_c, 0, 52, 52
4, 59880, Note_on_c, 0, 55, 44
4, 59925, Note_off_c, 0, 55, 64
4, 59925, Note_off_c, 0, 52, 64
4, 59940, Note_on_c, 0, 60, 50
4, 59985, Note_off_c, 0, 60, 64
4, 60000, Note_on_c, 0, 56, 62
4, 60000, Note_on_c, 0, 53, 54
4, 60045, Note_off_c, 0, 53, 64
4, 60045, Note_off_c, 0, 56, 64
4, 60060, Note_on_c, 0, 60, 36
4, 60105, Note_off_c, 0, 60, 64
4, 60120, Note_on_c, 0, 53, 70
4, 60120, Note_on_c, 0, 56, 70
4, 60165, Note_off_c, 0, 56, 64
4, 60165, Note_off_c, 0, 53, 64
4, 60180, Note_on_c, 0, 62, 47
4, 60225, Note_off_c, 0, 62, 64
4, 60240, Note_on_c, 0, 56, 51
4, 60240, Note_on_c, 0, 53, 38
4, 60285, Note_off_c, 0, 53, 64
4, 60285, Note_off_c, 0, 56, 64
4, 60300, Note_on_c, 0, 62, 36
4, 60345, Note_off_c, 0, 62, 64
4, 60360, Note_on_c, 0, 56, 59
4, 60360, Note_on_c, 0, 53, 45
4, 60405, Note_off_c, 0, 53, 64
4, 60405, Note_off_c, 0, 56, 64
4, 60420, Note_on_c, 0, 62, 47
4, 60465, Note_off_c, 0, 62, 64
4, 60480, Note_on_c, 0, 52, 62
4, 60480, Note_on_c, 0, 55, 52
4, 60525, Note_off_c, 0, 55, 64
4, 60525, Note_off_c, 0, 52, 64
4, 60540, Note_on_c, 0, 62, 47
4, 60585, Note_off_c, 0, 62, 64
4, 60600, Note_on_c, 0, 52, 50
4, 60600, Note_on_c, 0, 55, 70
4, 60645, Note_off_c, 0, 55, 64
4, 60645, Note_off_c, 0, 52, 64
4, 60660, Note_on_c, 0, 60, 50
4, 60705, Note_off_c, 0, 60, 64
4, 60720, Note_on_c, 0, 52, 52
4, 60720, Note_on_c, 0, 55, 52
4, 60765, Note_off_c, 0, 55, 64
4, 60765, Note_off_c, 0, 52, 64
4, 60780, Note_on_c, 0, 60, 50
4, 60825, Note_off_c, 0, 60, 64
4, 60840, Note_on_c, 0, 55, 52
4, 60840, Note_on_c, 0, 52, 50
4, 60885, Note_off_c, 0, 52, 64
4, 60885, Note_off_c, 0, 55, 64
4, 60900, Note_on_c, 0, 60, 47
4, 60945, Note_off_c, 0, 60, 64
4, 60960, Note_on_c, 0, 55, 27
4, 60960, Note_on_c, 0, 52, 30
4, 61005, Note_off_c, 0, 52, 64
4, 61005, Note_off_c, 0, 55, 64
4, 61020, Note_on_c, 0, 60, 39
4, 61065, Note_off_c, 0, 60, 64
4, 61080, Note_on_c, 0, 55, 35
4, 61080, Note_on_c, 0, 52, 35
4, 61125, Note_off_c, 0, 52, 64
4, 61125, Note_off_c, 0, 55, 64
4, 61140, Note_on_c, 0, 60, 35
4, 61185, Note_off_c, 0, 60, 64
4, 61200, Note_on_c, 0, 52, 33
4, 61200, Note_on_c, 0, 55, 24
4, 61245, Note_off_c, 0, 55, 64
4, 61245, Note_off_c, 0, 52, 64
4, 61260, Note_on_c, 0, 60, 37
4, 61305, Note_off_c, 0, 60, 64
4, 61320, Note_on_c, 0, 52, 30
4, 61320, Note_on_c, 0, 55, 25
4, 61365, Note_off_c, 0, 55, 64
4, 61365, Note_off_c, 0, 52, 64
4, 61380, Note_on_c, 0, 60, 35
4, 61425, Note_off_c, 0, 60, 64
4, 61440, Note_on_c, 0, 53, 45
4, 61440, Note_on_c, 0, 56, 48
4, 61485, Note_off_c, 0, 56, 64
4, 61485, Note_off_c, 0, 53, 64
4, 61500, Note_on_c, 0, 60, 50
4, 61545, Note_off_c, 0, 60, 64
4, 61560, Note_on_c, 0, 53, 70
4, 61560, Note_on_c, 0, 56, 70
4, 61605, Note_off_c, 0, 56, 64
4, 61605, Note_off_c, 0, 53, 64
4, 61620, Note_on_c, 0, 60, 52
4, 61665, Note_off_c, 0, 60, 64
4, 61680, Note_on_c, 0, 56, 54
4, 61680, Note_on_c, 0, 53, 38
4, 61725, Note_off_c, 0, 53, 64
4, 61725, Note_off_c, 0, 56, 64
4, 61740, Note_on_c, 0, 60, 56
4, 61785, Note_off_c, 0, 60, 64
4, 61800, Note_on_c, 0, 56, 51
4, 61800, Note_on_c, 0, 53, 48
4, 61845, Note_off_c, 0, 53, 64
4, 61845, Note_off_c, 0, 56, 64
4, 61860, Note_on_c, 0, 60, 50
4, 61905, Note_off_c, 0, 60, 64
4, 61920, Note_on_c, 0, 56, 54
4, 61920, Note_on_c, 0, 53, 40
4, 61965, Note_off_c, 0, 53, 64
4, 61965, Note_off_c, 0, 56, 64
4, 61980, Note_on_c, 0, 60, 41
4, 62025, Note_off_c, 0, 60, 64
4, 62040, Note_on_c, 0, 53, 70
4, 62040, Note_on_c, 0, 56, 70
4, 62085, Note_off_c, 0, 56, 64
4, 62085, Note_off_c, 0, 53, 64
4, 62100, Note_on_c, 0, 62, 41
4, 62145, Note_off_c, 0, 62, 64
4, 62160, Note_on_c, 0, 53, 48
4, 62160, Note_on_c, 0, 56, 36
4, 62205, Note_off_c, 0, 56, 64
4, 62205, Note_off_c, 0, 53, 64
4, 62220, Note_on_c, 0, 62, 47
4, 62265, Note_off_c, 0, 62, 64
4, 62280, Note_on_c, 0, 56, 54
4, 62280, Note_on_c, 0, 53, 29
4, 62325, Note_off_c, 0, 53, 64
4, 62325, Note_off_c, 0, 56, 64
4, 62340, Note_on_c, 0, 62, 41
4, 62385, Note_off_c, 0, 62, 64
4, 62400, Note_on_c, 0, 52, 56
4, 62400, Note_on_c, 0, 55, 56
4, 62445, Note_off_c, 0, 55, 64
4, 62445, Note_off_c, 0, 52, 64
4, 62460, Note_on_c, 0, 62, 47
4, 62505, Note_off_c, 0, 62, 64
4, 62520, Note_on_c, 0, 52, 70
4, 62520, Note_on_c, 0, 55, 70
4, 62565, Note_off_c, 0, 55, 64
4, 62565, Note_off_c, 0, 52, 64
4, 62580, Note_on_c, 0, 60, 50
4, 62625, Note_off_c, 0, 60, 64
4, 62640, Note_on_c, 0, 52, 47
4, 62640, Note_on_c, 0, 55, 44
4, 62685, Note_off_c, 0, 55, 64
4, 62685, Note_off_c, 0, 52, 64
4, 62700, Note_on_c, 0, 60, 41
4, 62745, Note_off_c, 0, 60, 64
4, 62760, Note_on_c, 0, 52, 41
4, 62760, Note_on_c, 0, 55, 39
4, 62805, Note_off_c, 0, 55, 64
4, 62805, Note_off_c, 0, 52, 64
4, 62820, Note_on_c, 0, 60, 41
4, 62865, Note_off_c, 0, 60, 64
4, 62880, Note_on_c, 0, 52, 47
4, 62880, Note_on_c, 0, 55, 41
4, 62925, Note_off_c, 0, 55, 64
4, 62925, Note_off_c, 0, 52, 64
4, 62940, Note_on_c, 0, 60, 47
4, 62985, Note_off_c, 0, 60, 64
4, 63000, Note_on_c, 0, 55, 47
4, 63000, Note_on_c, 0, 52, 50
4, 63045, Note_off_c, 0, 52, 64
4, 63045, Note_off_c, 0, 55, 64
4, 63060, Note_on_c, 0, 60, 44
4, 63105, Note_off_c, 0, 60, 64
4, 63120, Note_on_c, 0, 52, 41
4, 63120, Note_on_c, 0, 55, 44
4, 63165, Note_off_c, 0, 55, 64
4, 63165, Note_off_c, 0, 52, 64
4, 63180, Note_on_c, 0, 60, 41
4, 63225, Note_off_c, 0, 60, 64
4, 63240, Note_on_c, 0, 55, 41
4, 63240, Note_on_c, 0, 52, 44
4, 63285, Note_off_c, 0, 52, 64
4, 63285, Note_off_c, 0, 55, 64
4, 63300, Note_on_c, 0, 60, 44
4, 63345, Note_off_c, 0, 60, 64
4, 63360, Note_on_c, 0, 53, 71
4, 63360, Note_on_c, 0, 44, 58
4, 63360, Note_on_c, 0, 41, 54
4, 63360, Note_on_c, 0, 48, 62
4, 63540, Note_off_c, 0, 48, 64
4, 63540, Note_off_c, 0, 41, 64
4, 63540, Note_off_c, 0, 44, 64
4, 63540, Note_off_c, 0, 53, 64
4, 63660, Note_on_c, 0, 48, 50
4, 63705, Note_off_c, 0, 48, 64
4, 63720, Note_on_c, 0, 53, 56
4, 63765, Note_off_c, 0, 53, 64
4, 63780, Note_on_c, 0, 56, 62
4, 63825, Note_off_c, 0, 56, 64
4, 63840, Note_on_c, 0, 60, 59
4, 63885, Note_off_c, 0, 60, 64
4, 63900, Note_on_c, 0, 61, 54
4, 63945, Note_off_c, 0, 61, 64
4, 63960, Note_on_c, 0, 60, 50
4, 64005, Note_off_c, 0, 60, 64
4, 64020, Note_on_c, 0, 58, 50
4, 64065, Note_off_c, 0, 58, 64
4, 64080, Note_on_c, 0, 56, 62
4, 64125, Note_off_c, 0, 56, 64
4, 64140, Note_on_c, 0, 58, 50
4, 64185, Note_off_c, 0, 58, 64
4, 64200, Note_on_c, 0, 60, 44
4, 64245, Note_off_c, 0, 60, 64
4, 64260, Note_on_c, 0, 56, 51
4, 64305, Note_off_c, 0, 56, 64
4, 64320, Note_on_c, 0, 58, 50
4, 64365, Note_off_c, 0, 58, 64
4, 64380, Note_on_c, 0, 60, 41
4, 64425, Note_off_c, 0, 60, 64
4, 64440, Note_on_c, 0, 58, 50
4, 64485, Note_off_c, 0, 58, 64
4, 64500, Note_on_c, 0, 56, 54
4, 64545, Note_off_c, 0, 56, 64
4, 64560, Note_on_c, 0, 54, 47
4, 64605, Note_off_c, 0, 54, 64
4, 64620, Note_on_c, 0, 49, 50
4, 64665, Note_off_c, 0, 49, 64
4, 64680, Note_on_c, 0, 54, 58
4, 64725, Note_off_c, 0, 54, 64
4, 64740, Note_on_c, 0, 58, 50
4, 64785, Note_off_c, 0, 58, 64
4, 64800, Note_on_c, 0, 61, 62
4, 64845, Note_off_c, 0, 61, 64
4, 64860, Note_on_c, 0, 63, 58
4, 64905, Note_off_c, 0, 63, 64
4, 64920, Note_on_c, 0, 61, 54
4, 64965, Note_off_c, 0, 61, 64
4, 64980, Note_on_c, 0, 60, 52
4, 65025, Note_off_c, 0, 60, 64
4, 65040, Note_on_c, 0, 58, 50
4, 65085, Note_off_c, 0, 58, 64
4, 65100, Note_on_c, 0, 60, 47
4, 65145, Note_off_c, 0, 60, 64
4, 65160, Note_on_c, 0, 61, 59
4, 65205, Note_off_c, 0, 61, 64
4, 65220, Note_on_c, 0, 58, 50
4, 65265, Note_off_c, 0, 58, 64
4, 65280, Note_on_c, 0, 60, 59
4, 65325, Note_off_c, 0, 60, 64
4, 65340, Note_on_c, 0, 61, 59
4, 65385, Note_off_c, 0, 61, 64
4, 65400, Note_on_c, 0, 60, 56
4, 65445, Note_off_c, 0, 60, 64
4, 65460, Note_on_c, 0, 58, 47
4, 65505, Note_off_c, 0, 58, 64
4, 65520, Note_on_c, 0, 57, 62
4, 65565, Note_off_c, 0, 57, 64
4, 65580, Note_on_c, 0, 51, 58
4, 65625, Note_off_c, 0, 51, 64
4, 65640, Note_on_c, 0, 57, 56
4, 65685, Note_off_c, 0, 57, 64
4, 65700, Note_on_c, 0, 60, 52
4, 65745, Note_off_c, 0, 60, 64
4, 65760, Note_on_c, 0, 63, 58
4, 65805, Note_off_c, 0, 63, 64
4, 65820, Note_on_c, 0, 65, 59
4, 65865, Note_off_c, 0, 65, 64
4, 65880, Note_on_c, 0, 63, 58
4, 65925, Note_off_c, 0, 63, 64
4, 65940, Note_on_c, 0, 61, 59
4, 65985, Note_off_c, 0, 61, 64
4, 66000, Note_on_c, 0, 60, 56
4, 66045, Note_off_c, 0, 60, 64
4, 66060, Note_on_c, 0, 61, 59
4, 66105, Note_off_c, 0, 61, 64
4, 66120, Note_on_c, 0, 63, 55
4, 66165, Note_off_c, 0, 63, 64
4, 66180, Note_on_c, 0, 60, 50
4, 66225, Note_off_c, 0, 60, 64
4, 66240, Note_on_c, 0, 61, 62
4, 66285, Note_off_c, 0, 61, 64
4, 66300, Note_on_c, 0, 53, 56
4, 66345, Note_off_c, 0, 53, 64
4, 66360, Note_on_c, 0, 58, 47
4, 66405, Note_off_c, 0, 58, 64
4, 66420, Note_on_c, 0, 61, 51
4, 66465, Note_off_c, 0, 61, 64
4, 66480, Note_on_c, 0, 65, 50
4, 66525, Note_off_c, 0, 65, 64
4, 66540, Note_on_c, 0, 66, 55
4, 66585, Note_off_c, 0, 66, 64
4, 66600, Note_on_c, 0, 65, 47
4, 66645, Note_off_c, 0, 65, 64
4, 66660, Note_on_c, 0, 63, 50
4, 66705, Note_off_c, 0, 63, 64
4, 66720, Note_on_c, 0, 61, 59
4, 66765, Note_off_c, 0, 61, 64
4, 66780, Note_on_c, 0, 60, 39
4, 66825, Note_off_c, 0, 60, 64
4, 66840, Note_on_c, 0, 58, 55
4, 66885, Note_off_c, 0, 58, 64
4, 66900, Note_on_c, 0, 56, 62
4, 66945, Note_off_c, 0, 56, 64
4, 66960, Note_on_c, 0, 54, 63
4, 67005, Note_off_c, 0, 54, 64
4, 67020, Note_on_c, 0, 53, 60
4, 67065, Note_off_c, 0, 53, 64
4, 67080, Note_on_c, 0, 51, 58
4, 67125, Note_off_c, 0, 51, 64
4, 67140, Note_on_c, 0, 49, 58
4, 67185, Note_off_c, 0, 49, 64
4, 67200, Note_on_c, 0, 48, 52
4, 67245, Note_off_c, 0, 48, 64
4, 67260, Note_on_c, 0, 46, 54
4, 67305, Note_off_c, 0, 46, 64
4, 67320, Note_on_c, 0, 44, 50
4, 67365, Note_off_c, 0, 44, 64
4, 67380, Note_on_c, 0, 42, 55
4, 67425, Note_off_c, 0, 42, 64
4, 67440, Note_on_c, 0, 41, 56
4, 67485, Note_off_c, 0, 41, 64
4, 67500, Note_on_c, 0, 39, 63
4, 67545, Note_off_c, 0, 39, 64
4, 67560, Note_on_c, 0, 37, 55
4, 67605, Note_off_c, 0, 37, 64
4, 67620, Note_on_c, 0, 36, 59
4, 67665, Note_off_c, 0, 36, 64
4, 67680, Note_on_c, 0, 34, 51
4, 67725, Note_off_c, 0, 34, 64
4, 67740, Note_on_c, 0, 36, 44
4, 67785, Note_off_c, 0, 36, 64
4, 67800, Note_on_c, 0, 37, 50
4, 67845, Note_off_c, 0, 37, 64
4, 67860, Note_on_c, 0, 36, 52
4, 67905, Note_off_c, 0, 36, 64
4, 67920, Note_on_c, 0, 34, 59
4, 68010, Note_off_c, 0, 34, 64
4, 68040, Note_on_c, 0, 35, 62
4, 68130, Note_off_c, 0, 35, 64
4, 68160, Note_on_c, 0, 36, 52
4, 68220, Note_off_c, 0, 36, 64
4, 68280, Note_on_c, 0, 40, 74
4, 68340, Note_off_c, 0, 40, 64
4, 68400, Note_on_c, 0, 36, 44
4, 68460, Note_off_c, 0, 36, 64
4, 68520, Note_on_c, 0, 41, 72
4, 68580, Note_off_c, 0, 41, 64
4, 68640, Note_on_c, 0, 36, 50
4, 68700, Note_off_c, 0, 36, 64
4, 68760, Note_on_c, 0, 43, 80
4, 68820, Note_off_c, 0, 43, 64
4, 68880, Note_on_c, 0, 36, 44
4, 68940, Note_off_c, 0, 36, 64
4, 69000, Note_on_c, 0, 44, 60
4, 69060, Note_off_c, 0, 44, 64
4, 69120, Note_on_c, 0, 36, 56
4, 69180, Note_off_c, 0, 36, 64
4, 69240, Note_on_c, 0, 46, 80
4, 69300, Note_off_c, 0, 46, 64
4, 69360, Note_on_c, 0, 36, 62
4, 69420, Note_off_c, 0, 36, 64
4, 69480, Note_on_c, 0, 44, 66
4, 69540, Note_off_c, 0, 44, 64
4, 69600, Note_on_c, 0, 36, 56
4, 69660, Note_off_c, 0, 36, 64
4, 69720, Note_on_c, 0, 43, 62
4, 69780, Note_off_c, 0, 43, 64
4, 69840, Note_on_c, 0, 36, 39
4, 69900, Note_off_c, 0, 36, 64
4, 69960, Note_on_c, 0, 41, 67
4, 70020, Note_off_c, 0, 41, 64
4, 70080, Note_on_c, 0, 36, 44
4, 70140, Note_off_c, 0, 36, 64
4, 70200, Note_on_c, 0, 40, 57
4, 70260, Note_off_c, 0, 40, 64
4, 70320, Note_on_c, 0, 36, 48
4, 70380, Note_off_c, 0, 36, 64
4, 70440, Note_on_c, 0, 41, 58
4, 70500, Note_off_c, 0, 41, 64
4, 70560, Note_on_c, 0, 36, 51
4, 70620, Note_off_c, 0, 36, 64
4, 70680, Note_on_c, 0, 43, 67
4, 70740, Note_off_c, 0, 43, 64
4, 70800, Note_on_c, 0, 36, 50
4, 70860, Note_off_c, 0, 36, 64
4, 70920, Note_on_c, 0, 44, 66
4, 70980, Note_off_c, 0, 44, 64
4, 71040, Note_on_c, 0, 36, 52
4, 71100, Note_off_c, 0, 36, 64
4, 71160, Note_on_c, 0, 45, 72
4, 71220, Note_off_c, 0, 45, 64
4, 71280, Note_on_c, 0, 36, 62
4, 71340, Note_off_c, 0, 36, 64
4, 71400, Note_on_c, 0, 46, 80
4, 71460, Note_off_c, 0, 46, 64
4, 71520, Note_on_c, 0, 36, 60
4, 71580, Note_off_c, 0, 36, 64
4, 71640, Note_on_c, 0, 47, 84
4, 71700, Note_off_c, 0, 47, 64
4, 71760, Note_on_c, 0, 36, 76
4, 71820, Note_off_c, 0, 36, 64
4, 71880, Note_on_c, 0, 48, 100
4, 71940, Note_off_c, 0, 48, 64
4, 72000, Note_on_c, 0, 34, 80
4, 72000, Note_on_c, 0, 37, 85
4, 72000, Note_on_c, 0, 42, 85
4, 72000, Note_on_c, 0, 46, 85
4, 72120, Note_off_c, 0, 46, 64
4, 72120, Note_off_c, 0, 42, 64
4, 72120, Note_off_c, 0, 37, 64
4, 72120, Note_off_c, 0, 34, 64
4, 72300, Note_on_c, 0, 46, 59
4, 72360, Note_off_c, 0, 46, 64
4, 72360, Note_on_c, 0, 49, 58
4, 72420, Note_off_c, 0, 49, 64
4, 72420, Note_on_c, 0, 54, 55
4, 72480, Note_off_c, 0, 54, 64
4, 72480, Note_on_c, 0, 58, 58
4, 72600, Note_off_c, 0, 58, 64
4, 72780, Note_on_c, 0, 58, 68
4, 72840, Note_off_c, 0, 58, 64
4, 72840, Note_on_c, 0, 61, 59
4, 72900, Note_off_c, 0, 61, 64
4, 72900, Note_on_c, 0, 66, 58
4, 72960, Note_off_c, 0, 66, 64
4, 72960, Note_on_c, 0, 70, 63
4, 73080, Note_off_c, 0, 70, 64
4, 73920, Note_on_c, 0, 36, 85
4, 73920, Note_on_c, 0, 46, 85
4, 73920, Note_on_c, 0, 48, 85
4, 73920, Note_on_c, 0, 43, 85
4, 74040, Note_off_c, 0, 43, 64
4, 74040, Note_off_c, 0, 48, 64
4, 74040, Note_off_c, 0, 46, 64
4, 74040, Note_off_c, 0, 36, 64
4, 74220, Note_on_c, 0, 48, 59
4, 74280, Note_off_c, 0, 48, 64
4, 74280, Note_on_c, 0, 55, 59
4, 74340, Note_off_c, 0, 55, 64
4, 74340, Note_on_c, 0, 58, 58
4, 74400, Note_off_c, 0, 58, 64
4, 74400, Note_on_c, 0, 60, 67
4, 74520, Note_off_c, 0, 60, 64
4, 74700, Note_on_c, 0, 60, 59
4, 74760, Note_off_c, 0, 60, 64
4, 74760, Note_on_c, 0, 67, 62
4, 74820, Note_off_c, 0, 67, 64
4, 74820, Note_on_c, 0, 70, 55
4, 74880, Note_off_c, 0, 70, 64
4, 74880, Note_on_c, 0, 72, 62
4, 75000, Note_off_c, 0, 72, 64
4, 84000, Note_on_c, 0, 40, 56
4, 84480, Note_off_c, 0, 40, 64
4, 84480, Note_on_c, 0, 37, 68
4, 84960, Note_off_c, 0, 37, 64
4, 84960, Note_on_c, 0, 34, 62
4, 85440, Note_off_c, 0, 34, 64
4, 85440, Note_on_c, 0, 31, 47
4, 86400, Note_off_c, 0, 31, 64
4, 86400, Note_on_c, 0, 36, 52
4, 87360, Note_off_c, 0, 36, 64
4, 89040, Note_on_c, 0, 36, 59
4, 89220, Note_off_c, 0, 36, 64
4, 89220, Note_on_c, 0, 36, 62
4, 89280, Note_off_c, 0, 36, 64
4, 89280, Note_on_c, 0, 41, 74
4, 89280, Note_on_c, 0, 29, 74
4, 89520, Note_off_c, 0, 29, 64
4, 89520, Note_off_c, 0, 41, 64
4, 90240, Note_on_c, 0, 41, 71
4, 90240, Note_on_c, 0, 29, 71
4, 90480, Note_off_c, 0, 29, 64
4, 90480, Note_off_c, 0, 41, 64
4, 90660, Note_on_c, 0, 72, 52
4, 90660, Note_on_c, 0, 68, 55
4, 90720, Note_off_c, 0, 68, 64
4, 90720, Note_off_c, 0, 72, 64
4, 90720, Note_on_c, 0, 68, 75
4, 90720, Note_on_c, 0, 72, 75
4, 90960, Note_off_c, 0, 72, 64
4, 90960, Note_off_c, 0, 68, 64
4, 90960, Note_on_c, 0, 68, 47
4, 90960, Note_on_c, 0, 65, 39
4, 91080, Note_off_c, 0, 65, 64
4, 91080, Note_off_c, 0, 68, 64
4, 91200, Note_on_c, 0, 46, 70
4, 91200, Note_on_c, 0, 34, 59
4, 91440, Note_off_c, 0, 34, 64
4, 91440, Note_off_c, 0, 46, 64
4, 91620, Note_on_c, 0, 73, 63
4, 91620, Note_on_c, 0, 70, 58
4, 91680, Note_off_c, 0, 70, 64
4, 91680, Note_off_c, 0, 73, 64
4, 91680, Note_on_c, 0, 70, 80
4, 91680, Note_on_c, 0, 73, 80
4, 92160, Note_off_c, 0, 73, 64
4, 92160, Note_off_c, 0, 70, 64
4, 92160, Note_on_c, 0, 72, 56
4, 92160, Note_on_c, 0, 70, 47
4, 92220, Note_off_c, 0, 70, 64
4, 92220, Note_off_c, 0, 72, 64
4, 92280, Note_on_c, 0, 36, 56
4, 92280, Note_on_c, 0, 48, 47
4, 92340, Note_off_c, 0, 48, 64
4, 92340, Note_off_c, 0, 36, 64
4, 92520, Note_on_c, 0, 49, 55
4, 92520, Note_on_c, 0, 37, 55
4, 92580, Note_off_c, 0, 37, 64
4, 92580, Note_off_c, 0, 49, 64
4, 92760, Note_on_c, 0, 46, 55
4, 92760, Note_on_c, 0, 34, 59
4, 92820, Note_off_c, 0, 34, 64
4, 92820, Note_off_c, 0, 46, 64
4, 93000, Note_on_c, 0, 36, 59
4, 93000, Note_on_c, 0, 48, 50
4, 93060, Note_off_c, 0, 48, 64
4, 93060, Note_off_c, 0, 36, 64
4, 93120, Note_on_c, 0, 41, 36
4, 93120, Note_on_c, 0, 53, 32
4, 93180, Note_off_c, 0, 53, 64
4, 93180, Note_off_c, 0, 41, 64
4, 93180, Note_on_c, 0, 48, 28
4, 93240, Note_off_c, 0, 48, 64
4, 93240, Note_on_c, 0, 53, 28
4, 93300, Note_off_c, 0, 53, 64
4, 93300, Note_on_c, 0, 56, 35
4, 93360, Note_off_c, 0, 56, 64
4, 93360, Note_on_c, 0, 60, 35
4, 93420, Note_off_c, 0, 60, 64
4, 93420, Note_on_c, 0, 61, 32
4, 93480, Note_off_c, 0, 61, 64
4, 93480, Note_on_c, 0, 60, 26
4, 93540, Note_off_c, 0, 60, 64
4, 93540, Note_on_c, 0, 58, 26
4, 93600, Note_off_c, 0, 58, 64
4, 93600, Note_on_c, 0, 56, 37
4, 93660, Note_off_c, 0, 56, 64
4, 93660, Note_on_c, 0, 58, 30
4, 93720, Note_off_c, 0, 58, 64
4, 93720, Note_on_c, 0, 56, 30
4, 93780, Note_off_c, 0, 56, 64
4, 93780, Note_on_c, 0, 55, 31
4, 93840, Note_off_c, 0, 55, 64
4, 93840, Note_on_c, 0, 53, 33
4, 93900, Note_off_c, 0, 53, 64
4, 93900, Note_on_c, 0, 55, 33
4, 93960, Note_off_c, 0, 55, 64
4, 93960, Note_on_c, 0, 56, 37
4, 94020, Note_off_c, 0, 56, 64
4, 94020, Note_on_c, 0, 53, 27
4, 94080, Note_off_c, 0, 53, 64
4, 94080, Note_on_c, 0, 56, 37
4, 94140, Note_off_c, 0, 56, 64
4, 94140, Note_on_c, 0, 48, 33
4, 94200, Note_off_c, 0, 48, 64
4, 94200, Note_on_c, 0, 53, 33
4, 94260, Note_off_c, 0, 53, 64
4, 94260, Note_on_c, 0, 56, 30
4, 94320, Note_off_c, 0, 56, 64
4, 94320, Note_on_c, 0, 60, 31
4, 94380, Note_off_c, 0, 60, 64
4, 94380, Note_on_c, 0, 61, 30
4, 94440, Note_off_c, 0, 61, 64
4, 94440, Note_on_c, 0, 60, 30
4, 94500, Note_off_c, 0, 60, 64
4, 94500, Note_on_c, 0, 58, 28
4, 94560, Note_off_c, 0, 58, 64
4, 94560, Note_on_c, 0, 56, 35
4, 94620, Note_off_c, 0, 56, 64
4, 94620, Note_on_c, 0, 58, 33
4, 94680, Note_off_c, 0, 58, 64
4, 94680, Note_on_c, 0, 56, 35
4, 94740, Note_off_c, 0, 56, 64
4, 94740, Note_on_c, 0, 55, 37
4, 94800, Note_off_c, 0, 55, 64
4, 94800, Note_on_c, 0, 53, 39
4, 94860, Note_off_c, 0, 53, 64
4, 94860, Note_on_c, 0, 55, 37
4, 94920, Note_off_c, 0, 55, 64
4, 94920, Note_on_c, 0, 56, 43
4, 94980, Note_off_c, 0, 56, 64
4, 94980, Note_on_c, 0, 53, 37
4, 95040, Note_off_c, 0, 53, 64
4, 95040, Note_on_c, 0, 58, 37
4, 95100, Note_off_c, 0, 58, 64
4, 95100, Note_on_c, 0, 49, 40
4, 95160, Note_off_c, 0, 49, 64
4, 95160, Note_on_c, 0, 54, 37
4, 95220, Note_off_c, 0, 54, 64
4, 95220, Note_on_c, 0, 58, 33
4, 95280, Note_off_c, 0, 58, 64
4, 95280, Note_on_c, 0, 61, 37
4, 95340, Note_off_c, 0, 61, 64
4, 95340, Note_on_c, 0, 63, 30
4, 95400, Note_off_c, 0, 63, 64
4, 95400, Note_on_c, 0, 61, 32
4, 95460, Note_off_c, 0, 61, 64
4, 95460, Note_on_c, 0, 60, 28
4, 95520, Note_off_c, 0, 60, 64
4, 95520, Note_on_c, 0, 58, 40
4, 95580, Note_off_c, 0, 58, 64
4, 95580, Note_on_c, 0, 60, 30
4, 95640, Note_off_c, 0, 60, 64
4, 95640, Note_on_c, 0, 58, 28
4, 95700, Note_off_c, 0, 58, 64
4, 95700, Note_on_c, 0, 56, 30
4, 95760, Note_off_c, 0, 56, 64
4, 95760, Note_on_c, 0, 54, 37
4, 95820, Note_off_c, 0, 54, 64
4, 95820, Note_on_c, 0, 56, 35
4, 95880, Note_off_c, 0, 56, 64
4, 95880, Note_on_c, 0, 54, 33
4, 95940, Note_off_c, 0, 54, 64
4, 95940, Note_on_c, 0, 53, 33
4, 96000, Note_off_c, 0, 53, 64
4, 96000, Note_on_c, 0, 52, 40
4, 96060, Note_off_c, 0, 52, 64
4, 96060, Note_on_c, 0, 53, 33
4, 96120, Note_off_c, 0, 53, 64
4, 96120, Note_on_c, 0, 55, 33
4, 96180, Note_off_c, 0, 55, 64
4, 96180, Note_on_c, 0, 56, 37
4, 96240, Note_off_c, 0, 56, 64
4, 96240, Note_on_c, 0, 58, 40
4, 96300, Note_off_c, 0, 58, 64
4, 96300, Note_on_c, 0, 56, 37
4, 96360, Note_off_c, 0, 56, 64
4, 96360, Note_on_c, 0, 55, 33
4, 96420, Note_off_c, 0, 55, 64
4, 96420, Note_on_c, 0, 53, 30
4, 96480, Note_off_c, 0, 53, 64
4, 96480, Note_on_c, 0, 52, 30
4, 96540, Note_off_c, 0, 52, 64
4, 96540, Note_on_c, 0, 53, 32
4, 96600, Note_off_c, 0, 53, 64
4, 96600, Note_on_c, 0, 52, 33
4, 96660, Note_off_c, 0, 52, 64
4, 96660, Note_on_c, 0, 49, 30
4, 96720, Note_off_c, 0, 49, 64
4, 96720, Note_on_c, 0, 48, 28
4, 96780, Note_off_c, 0, 48, 64
4, 96780, Note_on_c, 0, 46, 32
4, 96840, Note_off_c, 0, 46, 64
4, 96840, Note_on_c, 0, 44, 34
4, 96900, Note_off_c, 0, 44, 64
4, 96900, Note_on_c, 0, 43, 35
4, 96960, Note_off_c, 0, 43, 64
4, 96960, Note_on_c, 0, 41, 71
4, 97200, Note_off_c, 0, 41, 64
4, 97380, Note_on_c, 0, 56, 62
4, 97380, Note_on_c, 0, 53, 56
4, 97440, Note_off_c, 0, 53, 64
4, 97440, Note_off_c, 0, 56, 64
4, 97440, Note_on_c, 0, 56, 72
4, 97440, Note_on_c, 0, 53, 71
4, 97680, Note_off_c, 0, 53, 64
4, 97680, Note_off_c, 0, 56, 64
4, 97860, Note_on_c, 0, 56, 62
4, 97860, Note_on_c, 0, 53, 56
4, 97920, Note_off_c, 0, 53, 64
4, 97920, Note_off_c, 0, 56, 64
4, 97920, Note_on_c, 0, 53, 85
4, 97920, Note_on_c, 0, 56, 85
4, 97920, Note_on_c, 0, 48, 80
4, 98400, Note_off_c, 0, 48, 64
4, 98400, Note_off_c, 0, 56, 64
4, 98400, Note_off_c, 0, 53, 64
4, 98400, Note_on_c, 0, 55, 56
4, 98400, Note_on_c, 0, 52, 52
4, 98400, Note_on_c, 0, 48, 41
4, 98520, Note_off_c, 0, 48, 64
4, 98520, Note_off_c, 0, 52, 64
4, 98520, Note_off_c, 0, 55, 64
4, 98880, Note_on_c, 0, 36, 67
4, 98880, Note_on_c, 0, 48, 62
4, 99120, Note_off_c, 0, 48, 64
4, 99120, Note_off_c, 0, 36, 64
4, 99300, Note_on_c, 0, 58, 63
4, 99300, Note_on_c, 0, 55, 67
4, 99360, Note_off_c, 0, 55, 64
4, 99360, Note_off_c, 0, 58, 64
4, 99360, Note_on_c, 0, 58, 63
4, 99360, Note_on_c, 0, 55, 67
4, 99600, Note_off_c, 0, 55, 64
4, 99600, Note_off_c, 0, 58, 64
4, 99780, Note_on_c, 0, 58, 44
4, 99780, Note_on_c, 0, 55, 56
4, 99840, Note_off_c, 0, 55, 64
4, 99840, Note_off_c, 0, 58, 64
4, 99840, Note_on_c, 0, 53, 80
4, 99840, Note_on_c, 0, 55, 80
4, 99840, Note_on_c, 0, 58, 85
4, 100320, Note_off_c, 0, 58, 64
4, 100320, Note_off_c, 0, 55, 64
4, 100320, Note_off_c, 0, 53, 64
4, 100320, Note_on_c, 0, 53, 56
4, 100320, Note_on_c, 0, 56, 39
4, 100440, Note_off_c, 0, 56, 64
4, 100440, Note_off_c, 0, 53, 64
4, 100800, Note_on_c, 0, 41, 60
4, 100800, Note_on_c, 0, 53, 60
4, 101040, Note_off_c, 0, 53, 64
4, 101040, Note_off_c, 0, 41, 64
4, 101220, Note_on_c, 0, 63, 68
4, 101220, Note_on_c, 0, 60, 59
4, 101280, Note_off_c, 0, 60, 64
4, 101280, Note_off_c, 0, 63, 64
4, 101280, Note_on_c, 0, 63, 74
4, 101280, Note_on_c, 0, 60, 67
4, 101520, Note_off_c, 0, 60, 64
4, 101520, Note_off_c, 0, 63, 64
4, 101700, Note_on_c, 0, 63, 55
4, 101700, Note_on_c, 0, 60, 52
4, 101760, Note_off_c, 0, 60, 64
4, 101760, Note_off_c, 0, 63, 64
4, 101760, Note_on_c, 0, 58, 85
4, 101760, Note_on_c, 0, 60, 85
4, 101760, Note_on_c, 0, 63, 85
4, 102308, Note_off_c, 0, 63, 64
4, 102308, Note_off_c, 0, 60, 64
4, 102312, Note_off_c, 0, 58, 64
4, 102360, Note_on_c, 0, 61, 47
4, 102360, Note_on_c, 0, 58, 38
4, 102480, Note_off_c, 0, 58, 64
4, 102480, Note_off_c, 0, 61, 64
4, 102480, Note_on_c, 0, 56, 54
4, 102480, Note_on_c, 0, 60, 39
4, 102600, Note_off_c, 0, 60, 64
4, 102600, Note_off_c, 0, 56, 64
4, 102600, Note_on_c, 0, 55, 47
4, 102600, Note_on_c, 0, 58, 47
4, 102720, Note_off_c, 0, 58, 64
4, 102720, Note_off_c, 0, 55, 64
4, 102720, Note_on_c, 0, 56, 67
4, 102720, Note_on_c, 0, 48, 56
4, 102720, Note_on_c, 0, 53, 60
4, 102960, Note_off_c, 0, 53, 64
4, 102960, Note_off_c, 0, 48, 64
4, 102960, Note_off_c, 0, 56, 64
4, 103140, Note_on_c, 0, 53, 56
4, 103140, Note_on_c, 0, 56, 54
4, 103200, Note_off_c, 0, 56, 64
4, 103200, Note_off_c, 0, 53, 64
4, 103200, Note_on_c, 0, 48, 62
4, 103200, Note_on_c, 0, 58, 58
4, 103200, Note_on_c, 0, 55, 62
4, 103440, Note_off_c, 0, 55, 64
4, 103440, Note_off_c, 0, 58, 64
4, 103440, Note_off_c, 0, 48, 64
4, 103620, Note_on_c, 0, 55, 50
4, 103620, Note_on_c, 0, 52, 59
4, 103680, Note_off_c, 0, 52, 64
4, 103680, Note_off_c, 0, 55, 64
4, 103680, Note_on_c, 0, 53, 24
4, 103740, Note_off_c, 0, 53, 64
4, 103740, Note_on_c, 0, 60, 32
4, 103800, Note_off_c, 0, 60, 64
4, 103800, Note_on_c, 0, 56, 48
4, 103860, Note_off_c, 0, 56, 64
4, 103860, Note_on_c, 0, 53, 45
4, 103920, Note_off_c, 0, 53, 64
4, 103920, Note_on_c, 0, 48, 52
4, 103980, Note_off_c, 0, 48, 64
4, 103980, Note_on_c, 0, 56, 44
4, 104040, Note_off_c, 0, 56, 64
4, 104040, Note_on_c, 0, 53, 54
4, 104100, Note_off_c, 0, 53, 64
4, 104100, Note_on_c, 0, 48, 39
4, 104160, Note_off_c, 0, 48, 64
4, 104160, Note_on_c, 0, 44, 55
4, 104220, Note_off_c, 0, 44, 64
4, 104220, Note_on_c, 0, 53, 54
4, 104280, Note_off_c, 0, 53, 64
4, 104280, Note_on_c, 0, 48, 44
4, 104340, Note_off_c, 0, 48, 64
4, 104340, Note_on_c, 0, 44, 50
4, 104400, Note_off_c, 0, 44, 64
4, 104400, Note_on_c, 0, 41, 60
4, 104460, Note_off_c, 0, 41, 64
4, 104460, Note_on_c, 0, 48, 44
4, 104520, Note_off_c, 0, 48, 64
4, 104520, Note_on_c, 0, 44, 55
4, 104580, Note_off_c, 0, 44, 64
4, 104580, Note_on_c, 0, 41, 43
4, 104640, Note_off_c, 0, 41, 64
4, 104640, Note_on_c, 0, 36, 47
4, 104700, Note_off_c, 0, 36, 64
4, 104700, Note_on_c, 0, 41, 63
4, 104760, Note_off_c, 0, 41, 64
4, 104760, Note_on_c, 0, 44, 55
4, 104820, Note_off_c, 0, 44, 64
4, 104820, Note_on_c, 0, 48, 44
4, 104880, Note_off_c, 0, 48, 64
4, 104880, Note_on_c, 0, 47, 50
4, 104940, Note_off_c, 0, 47, 64
4, 104940, Note_on_c, 0, 48, 41
4, 105000, Note_off_c, 0, 48, 64
4, 105000, Note_on_c, 0, 47, 41
4, 105060, Note_off_c, 0, 47, 64
4, 105060, Note_on_c, 0, 48, 41
4, 105120, Note_off_c, 0, 48, 64
4, 105120, Note_on_c, 0, 47, 56
4, 105180, Note_off_c, 0, 47, 64
4, 105180, Note_on_c, 0, 48, 44
4, 105240, Note_off_c, 0, 48, 64
4, 105240, Note_on_c, 0, 43, 59
4, 105300, Note_off_c, 0, 43, 64
4, 105300, Note_on_c, 0, 48, 32
4, 105360, Note_off_c, 0, 48, 64
4, 105360, Note_on_c, 0, 40, 41
4, 105420, Note_off_c, 0, 40, 64
4, 105420, Note_on_c, 0, 48, 32
4, 105480, Note_off_c, 0, 48, 64
4, 105480, Note_on_c, 0, 43, 52
4, 105540, Note_off_c, 0, 43, 64
4, 105540, Note_on_c, 0, 48, 47
4, 105600, Note_off_c, 0, 48, 64
4, 105600, Note_on_c, 0, 36, 52
4, 105660, Note_off_c, 0, 36, 64
4, 105660, Note_on_c, 0, 40, 56
4, 105720, Note_off_c, 0, 40, 64
4, 105720, Note_on_c, 0, 43, 52
4, 105780, Note_off_c, 0, 43, 64
4, 105780, Note_on_c, 0, 48, 44
4, 105840, Note_off_c, 0, 48, 64
4, 105840, Note_on_c, 0, 40, 56
4, 105900, Note_off_c, 0, 40, 64
4, 105900, Note_on_c, 0, 43, 47
4, 105960, Note_off_c, 0, 43, 64
4, 105960, Note_on_c, 0, 48, 56
4, 106020, Note_off_c, 0, 48, 64
4, 106020, Note_on_c, 0, 52, 52
4, 106080, Note_off_c, 0, 52, 64
4, 106080, Note_on_c, 0, 43, 59
4, 106140, Note_off_c, 0, 43, 64
4, 106140, Note_on_c, 0, 48, 44
4, 106200, Note_off_c, 0, 48, 64
4, 106200, Note_on_c, 0, 52, 50
4, 106260, Note_off_c, 0, 52, 64
4, 106260, Note_on_c, 0, 55, 50
4, 106320, Note_off_c, 0, 55, 64
4, 106320, Note_on_c, 0, 48, 52
4, 106380, Note_off_c, 0, 48, 64
4, 106380, Note_on_c, 0, 52, 52
4, 106440, Note_off_c, 0, 52, 64
4, 106440, Note_on_c, 0, 55, 47
4, 106500, Note_off_c, 0, 55, 64
4, 106500, Note_on_c, 0, 60, 44
4, 106560, Note_off_c, 0, 60, 64
4, 106560, Note_on_c, 0, 53, 56
4, 106620, Note_off_c, 0, 53, 64
4, 106620, Note_on_c, 0, 56, 51
4, 106680, Note_off_c, 0, 56, 64
4, 106680, Note_on_c, 0, 60, 39
4, 106740, Note_off_c, 0, 60, 64
4, 106740, Note_on_c, 0, 65, 47
4, 106800, Note_off_c, 0, 65, 64
4, 106800, Note_on_c, 0, 64, 47
4, 106860, Note_off_c, 0, 64, 64
4, 106860, Note_on_c, 0, 65, 34
4, 106920, Note_off_c, 0, 65, 64
4, 106920, Note_on_c, 0, 64, 52
4, 106980, Note_off_c, 0, 64, 64
4, 106980, Note_on_c, 0, 65, 34
4, 107040, Note_off_c, 0, 65, 64
4, 107040, Note_on_c, 0, 64, 49
4, 107100, Note_off_c, 0, 64, 64
4, 107100, Note_on_c, 0, 65, 50
4, 107160, Note_off_c, 0, 65, 64
4, 107160, Note_on_c, 0, 60, 47
4, 107220, Note_off_c, 0, 60, 64
4, 107220, Note_on_c, 0, 65, 44
4, 107280, Note_off_c, 0, 65, 64
4, 107280, Note_on_c, 0, 56, 54
4, 107340, Note_off_c, 0, 56, 64
4, 107340, Note_on_c, 0, 65, 47
4, 107400, Note_off_c, 0, 65, 64
4, 107400, Note_on_c, 0, 60, 50
4, 107460, Note_off_c, 0, 60, 64
4, 107460, Note_on_c, 0, 65, 47
4, 107520, Note_off_c, 0, 65, 64
4, 107520, Note_on_c, 0, 53, 60
4, 107580, Note_off_c, 0, 53, 64
4, 107580, Note_on_c, 0, 57, 39
4, 107640, Note_off_c, 0, 57, 64
4, 107640, Note_on_c, 0, 60, 47
4, 107700, Note_off_c, 0, 60, 64
4, 107700, Note_on_c, 0, 65, 47
4, 107760, Note_off_c, 0, 65, 64
4, 107760, Note_on_c, 0, 57, 52
4, 107820, Note_off_c, 0, 57, 64
4, 107820, Note_on_c, 0, 60, 52
4, 107880, Note_off_c, 0, 60, 64
4, 107880, Note_on_c, 0, 65, 50
4, 107940, Note_off_c, 0, 65, 64
4, 107940, Note_on_c, 0, 69, 47
4, 108000, Note_off_c, 0, 69, 64
4, 108000, Note_on_c, 0, 60, 52
4, 108060, Note_off_c, 0, 60, 64
4, 108060, Note_on_c, 0, 65, 50
4, 108120, Note_off_c, 0, 65, 64
4, 108120, Note_on_c, 0, 69, 50
4, 108180, Note_off_c, 0, 69, 64
4, 108180, Note_on_c, 0, 72, 59
4, 108240, Note_off_c, 0, 72, 64
4, 108240, Note_on_c, 0, 65, 59
4, 108300, Note_off_c, 0, 65, 64
4, 108300, Note_on_c, 0, 69, 56
4, 108360, Note_off_c, 0, 69, 64
4, 108360, Note_on_c, 0, 72, 59
4, 108420, Note_off_c, 0, 72, 64
4, 108420, Note_on_c, 0, 77, 62
4, 108480, Note_off_c, 0, 77, 64
4, 108480, Note_on_c, 0, 69, 59
4, 108540, Note_off_c, 0, 69, 64
4, 108540, Note_on_c, 0, 77, 50
4, 108600, Note_off_c, 0, 77, 64
4, 108600, Note_on_c, 0, 76, 44
4, 108660, Note_off_c, 0, 76, 64
4, 108660, Note_on_c, 0, 77, 56
4, 108720, Note_off_c, 0, 77, 64
4, 108720, Note_on_c, 0, 69, 52
4, 108780, Note_off_c, 0, 69, 64
4, 108780, Note_on_c, 0, 77, 52
4, 108840, Note_off_c, 0, 77, 64
4, 108840, Note_on_c, 0, 69, 56
4, 108900, Note_off_c, 0, 69, 64
4, 108900, Note_on_c, 0, 77, 52
4, 108960, Note_off_c, 0, 77, 64
4, 108960, Note_on_c, 0, 69, 62
4, 109020, Note_off_c, 0, 69, 64
4, 109020, Note_on_c, 0, 77, 56
4, 109080, Note_off_c, 0, 77, 64
4, 109080, Note_on_c, 0, 70, 55
4, 109140, Note_off_c, 0, 70, 64
4, 109140, Note_on_c, 0, 77, 44
4, 109200, Note_off_c, 0, 77, 64
4, 109200, Note_on_c, 0, 72, 59
4, 109260, Note_off_c, 0, 72, 64
4, 109260, Note_on_c, 0, 77, 52
4, 109320, Note_off_c, 0, 77, 64
4, 109320, Note_on_c, 0, 73, 63
4, 109380, Note_off_c, 0, 73, 64
4, 109380, Note_on_c, 0, 77, 56
4, 109440, Note_off_c, 0, 77, 64
4, 109440, Note_on_c, 0, 60, 50
4, 109500, Note_off_c, 0, 60, 64
4, 109500, Note_on_c, 0, 65, 47
4, 109560, Note_off_c, 0, 65, 64
4, 109560, Note_on_c, 0, 68, 50
4, 109620, Note_off_c, 0, 68, 64
4, 109620, Note_on_c, 0, 72, 56
4, 109680, Note_off_c, 0, 72, 64
4, 109680, Note_on_c, 0, 71, 50
4, 109740, Note_off_c, 0, 71, 64
4, 109740, Note_on_c, 0, 72, 56
4, 109800, Note_off_c, 0, 72, 64
4, 109800, Note_on_c, 0, 71, 47
4, 109860, Note_off_c, 0, 71, 64
4, 109860, Note_on_c, 0, 72, 56
4, 109920, Note_off_c, 0, 72, 64
4, 109920, Note_on_c, 0, 60, 56
4, 109980, Note_off_c, 0, 60, 64
4, 109980, Note_on_c, 0, 64, 49
4, 110040, Note_off_c, 0, 64, 64
4, 110040, Note_on_c, 0, 67, 52
4, 110100, Note_off_c, 0, 67, 64
4, 110100, Note_on_c, 0, 72, 52
4, 110160, Note_off_c, 0, 72, 64
4, 110160, Note_on_c, 0, 60, 52
4, 110220, Note_off_c, 0, 60, 64
4, 110220, Note_on_c, 0, 64, 40
4, 110280, Note_off_c, 0, 64, 64
4, 110280, Note_on_c, 0, 70, 47
4, 110340, Note_off_c, 0, 70, 64
4, 110340, Note_on_c, 0, 72, 50
4, 110400, Note_off_c, 0, 72, 64
4, 110400, Note_on_c, 0, 53, 32
4, 110445, Note_off_c, 0, 53, 64
4, 110460, Note_on_c, 0, 65, 27
4, 110460, Note_on_c, 0, 68, 35
4, 110505, Note_off_c, 0, 68, 64
4, 110505, Note_off_c, 0, 65, 64
4, 110520, Note_on_c, 0, 60, 32
4, 110520, Note_on_c, 0, 72, 31
4, 110565, Note_off_c, 0, 72, 64
4, 110565, Note_off_c, 0, 60, 64
4, 110580, Note_on_c, 0, 65, 31
4, 110580, Note_on_c, 0, 68, 25
4, 110625, Note_off_c, 0, 68, 64
4, 110625, Note_off_c, 0, 65, 64
4, 110640, Note_on_c, 0, 60, 44
4, 110640, Note_on_c, 0, 72, 40
4, 110685, Note_off_c, 0, 72, 64
4, 110685, Note_off_c, 0, 60, 64
4, 110700, Note_on_c, 0, 65, 31
4, 110700, Note_on_c, 0, 68, 28
4, 110745, Note_off_c, 0, 68, 64
4, 110745, Note_off_c, 0, 65, 64
4, 110760, Note_on_c, 0, 60, 40
4, 110760, Note_on_c, 0, 72, 35
4, 110805, Note_off_c, 0, 72, 64
4, 110805, Note_off_c, 0, 60, 64
4, 110820, Note_on_c, 0, 65, 31
4, 110820, Note_on_c, 0, 68, 28
4, 110865, Note_off_c, 0, 68, 64
4, 110865, Note_off_c, 0, 65, 64
4, 110880, Note_on_c, 0, 60, 35
4, 110880, Note_on_c, 0, 72, 35
4, 110925, Note_off_c, 0, 72, 64
4, 110925, Note_off_c, 0, 60, 64
4, 110940, Note_on_c, 0, 65, 31
4, 110940, Note_on_c, 0, 68, 28
4, 110985, Note_off_c, 0, 68, 64
4, 110985, Note_off_c, 0, 65, 64
4, 111000, Note_on_c, 0, 60, 35
4, 111000, Note_on_c, 0, 72, 28
4, 111045, Note_off_c, 0, 72, 64
4, 111045, Note_off_c, 0, 60, 64
4, 111060, Note_on_c, 0, 68, 30
4, 111060, Note_on_c, 0, 65, 31
4, 111105, Note_off_c, 0, 65, 64
4, 111105, Note_off_c, 0, 68, 64
4, 111120, Note_on_c, 0, 60, 47
4, 111120, Note_on_c, 0, 72, 44
4, 111165, Note_off_c, 0, 72, 64
4, 111165, Note_off_c, 0, 60, 64
4, 111180, Note_on_c, 0, 65, 28
4, 111180, Note_on_c, 0, 68, 12
4, 111225, Note_off_c, 0, 68, 64
4, 111225, Note_off_c, 0, 65, 64
4, 111240, Note_on_c, 0, 72, 28
4, 111240, Note_on_c, 0, 60, 32
4, 111285, Note_off_c, 0, 60, 64
4, 111285, Note_off_c, 0, 72, 64
4, 111300, Note_on_c, 0, 68, 28
4, 111300, Note_on_c, 0, 65, 23
4, 111345, Note_off_c, 0, 65, 64
4, 111345, Note_off_c, 0, 68, 64
4, 111360, Note_on_c, 0, 53, 34
4, 111405, Note_off_c, 0, 53, 64
4, 111420, Note_on_c, 0, 65, 40
4, 111420, Note_on_c, 0, 68, 28
4, 111465, Note_off_c, 0, 68, 64
4, 111465, Note_off_c, 0, 65, 64
4, 111480, Note_on_c, 0, 60, 35
4, 111480, Note_on_c, 0, 72, 37
4, 111525, Note_off_c, 0, 72, 64
4, 111525, Note_off_c, 0, 60, 64
4, 111540, Note_on_c, 0, 65, 35
4, 111540, Note_on_c, 0, 68, 35
4, 111585, Note_off_c, 0, 68, 64
4, 111585, Note_off_c, 0, 65, 64
4, 111600, Note_on_c, 0, 60, 40
4, 111600, Note_on_c, 0, 72, 35
4, 111645, Note_off_c, 0, 72, 64
4, 111645, Note_off_c, 0, 60, 64
4, 111660, Note_on_c, 0, 65, 28
4, 111660, Note_on_c, 0, 68, 21
4, 111705, Note_off_c, 0, 68, 64
4, 111705, Note_off_c, 0, 65, 64
4, 111720, Note_on_c, 0, 60, 40
4, 111720, Note_on_c, 0, 72, 32
4, 111765, Note_off_c, 0, 72, 64
4, 111765, Note_off_c, 0, 60, 64
4, 111780, Note_on_c, 0, 65, 31
4, 111780, Note_on_c, 0, 68, 8
4, 111825, Note_off_c, 0, 68, 64
4, 111825, Note_off_c, 0, 65, 64
4, 111840, Note_on_c, 0, 60, 44
4, 111840, Note_on_c, 0, 72, 41
4, 111885, Note_off_c, 0, 72, 64
4, 111885, Note_off_c, 0, 60, 64
4, 111900, Note_on_c, 0, 65, 32
4, 111900, Note_on_c, 0, 68, 21
4, 111945, Note_off_c, 0, 68, 64
4, 111945, Note_off_c, 0, 65, 64
4, 111960, Note_on_c, 0, 72, 32
4, 111960, Note_on_c, 0, 60, 31
4, 112005, Note_off_c, 0, 60, 64
4, 112005, Note_off_c, 0, 72, 64
4, 112020, Note_on_c, 0, 65, 28
4, 112020, Note_on_c, 0, 68, 13
4, 112065, Note_off_c, 0, 68, 64
4, 112065, Note_off_c, 0, 65, 64
4, 112080, Note_on_c, 0, 60, 37
4, 112080, Note_on_c, 0, 72, 28
4, 112125, Note_off_c, 0, 72, 64
4, 112125, Note_off_c, 0, 60, 64
4, 112140, Note_on_c, 0, 68, 23
4, 112140, Note_on_c, 0, 65, 35
4, 112185, Note_off_c, 0, 65, 64
4, 112185, Note_off_c, 0, 68, 64
4, 112200, Note_on_c, 0, 72, 35
4, 112200, Note_on_c, 0, 60, 37
4, 112245, Note_off_c, 0, 60, 64
4, 112245, Note_off_c, 0, 72, 64
4, 112260, Note_on_c, 0, 65, 27
4, 112260, Note_on_c, 0, 68, 19
4, 112305, Note_off_c, 0, 68, 64
4, 112305, Note_off_c, 0, 65, 64
4, 112320, Note_on_c, 0, 45, 27
4, 112365, Note_off_c, 0, 45, 64
4, 112380, Note_on_c, 0, 54, 35
4, 112380, Note_on_c, 0, 56, 26
4, 112425, Note_off_c, 0, 56, 64
4, 112425, Note_off_c, 0, 54, 64
4, 112440, Note_on_c, 0, 51, 46
4, 112440, Note_on_c, 0, 60, 31
4, 112485, Note_off_c, 0, 60, 64
4, 112485, Note_off_c, 0, 51, 64
4, 112500, Note_on_c, 0, 54, 32
4, 112500, Note_on_c, 0, 56, 24
4, 112545, Note_off_c, 0, 56, 64
4, 112545, Note_off_c, 0, 54, 64
4, 112560, Note_on_c, 0, 51, 46
4, 112560, Note_on_c, 0, 60, 40
4, 112605, Note_off_c, 0, 60, 64
4, 112605, Note_off_c, 0, 51, 64
4, 112620, Note_on_c, 0, 54, 32
4, 112620, Note_on_c, 0, 56, 33
4, 112665, Note_off_c, 0, 56, 64
4, 112665, Note_off_c, 0, 54, 64
4, 112680, Note_on_c, 0, 51, 44
4, 112680, Note_on_c, 0, 60, 28
4, 112725, Note_off_c, 0, 60, 64
4, 112725, Note_off_c, 0, 51, 64
4, 112740, Note_on_c, 0, 54, 23
4, 112740, Note_on_c, 0, 56, 20
4, 112785, Note_off_c, 0, 56, 64
4, 112785, Note_off_c, 0, 54, 64
4, 112800, Note_on_c, 0, 60, 24
4, 112800, Note_on_c, 0, 51, 30
4, 112845, Note_off_c, 0, 51, 64
4, 112845, Note_off_c, 0, 60, 64
4, 112860, Note_on_c, 0, 54, 23
4, 112860, Note_on_c, 0, 56, 22
4, 112905, Note_off_c, 0, 56, 64
4, 112905, Note_off_c, 0, 54, 64
4, 112920, Note_on_c, 0, 51, 37
4, 112920, Note_on_c, 0, 60, 32
4, 112965, Note_off_c, 0, 60, 64
4, 112965, Note_off_c, 0, 51, 64
4, 112980, Note_on_c, 0, 56, 22
4, 112980, Note_on_c, 0, 54, 23
4, 113025, Note_off_c, 0, 54, 64
4, 113025, Note_off_c, 0, 56, 64
4, 113040, Note_on_c, 0, 51, 37
4, 113040, Note_on_c, 0, 60, 28
4, 113085, Note_off_c, 0, 60, 64
4, 113085, Note_off_c, 0, 51, 64
4, 113100, Note_on_c, 0, 56, 26
4, 113100, Note_on_c, 0, 54, 23
4, 113145, Note_off_c, 0, 54, 64
4, 113145, Note_off_c, 0, 56, 64
4, 113160, Note_on_c, 0, 51, 37
4, 113160, Note_on_c, 0, 60, 25
4, 113205, Note_off_c, 0, 60, 64
4, 113205, Note_off_c, 0, 51, 64
4, 113220, Note_on_c, 0, 54, 30
4, 113220, Note_on_c, 0, 56, 24
4, 113265, Note_off_c, 0, 56, 64
4, 113265, Note_off_c, 0, 54, 64
4, 113280, Note_on_c, 0, 44, 40
4, 113325, Note_off_c, 0, 44, 64
4, 113340, Note_on_c, 0, 54, 32
4, 113340, Note_on_c, 0, 56, 24
4, 113385, Note_off_c, 0, 56, 64
4, 113385, Note_off_c, 0, 54, 64
4, 113400, Note_on_c, 0, 51, 37
4, 113400, Note_on_c, 0, 60, 27
4, 113445, Note_off_c, 0, 60, 64
4, 113445, Note_off_c, 0, 51, 64
4, 113460, Note_on_c, 0, 56, 35
4, 113460, Note_on_c, 0, 54, 30
4, 113505, Note_off_c, 0, 54, 64
4, 113505, Note_off_c, 0, 56, 64
4, 113520, Note_on_c, 0, 51, 40
4, 113520, Note_on_c, 0, 60, 28
4, 113565, Note_off_c, 0, 60, 64
4, 113565, Note_off_c, 0, 51, 64
4, 113580, Note_on_c, 0, 56, 33
4, 113580, Note_on_c, 0, 54, 30
4, 113625, Note_off_c, 0, 54, 64
4, 113625, Note_off_c, 0, 56, 64
4, 113640, Note_on_c, 0, 51, 35
4, 113640, Note_on_c, 0, 60, 23
4, 113685, Note_off_c, 0, 60, 64
4, 113685, Note_off_c, 0, 51, 64
4, 113700, Note_on_c, 0, 56, 33
4, 113700, Note_on_c, 0, 54, 32
4, 113745, Note_off_c, 0, 54, 64
4, 113745, Note_off_c, 0, 56, 64
4, 113760, Note_on_c, 0, 60, 31
4, 113760, Note_on_c, 0, 51, 37
4, 113805, Note_off_c, 0, 51, 64
4, 113805, Note_off_c, 0, 60, 64
4, 113820, Note_on_c, 0, 54, 23
4, 113820, Note_on_c, 0, 56, 20
4, 113865, Note_off_c, 0, 56, 64
4, 113865, Note_off_c, 0, 54, 64
4, 113880, Note_on_c, 0, 51, 37
4, 113880, Note_on_c, 0, 60, 25
4, 113925, Note_off_c, 0, 60, 64
4, 113925, Note_off_c, 0, 51, 64
4, 113940, Note_on_c, 0, 56, 35
4, 113940, Note_on_c, 0, 54, 16
4, 113985, Note_off_c, 0, 54, 64
4, 113985, Note_off_c, 0, 56, 64
4, 114000, Note_on_c, 0, 51, 40
4, 114000, Note_on_c, 0, 60, 25
4, 114045, Note_off_c, 0, 60, 64
4, 114045, Note_off_c, 0, 51, 64
4, 114060, Note_on_c, 0, 54, 44
4, 114060, Note_on_c, 0, 56, 16
4, 114105, Note_off_c, 0, 56, 64
4, 114105, Note_off_c, 0, 54, 64
4, 114120, Note_on_c, 0, 51, 32
4, 114120, Note_on_c, 0, 60, 20
4, 114165, Note_off_c, 0, 60, 64
4, 114165, Note_off_c, 0, 51, 64
4, 114180, Note_on_c, 0, 56, 22
4, 114180, Note_on_c, 0, 54, 21
4, 114225, Note_off_c, 0, 54, 64
4, 114225, Note_off_c, 0, 56, 64
4, 114240, Note_on_c, 0, 49, 35
4, 114285, Note_off_c, 0, 49, 64
4, 114300, Note_on_c, 0, 61, 31
4, 114300, Note_on_c, 0, 65, 28
4, 114345, Note_off_c, 0, 65, 64
4, 114345, Note_off_c, 0, 61, 64
4, 114360, Note_on_c, 0, 68, 35
4, 114360, Note_on_c, 0, 56, 35
4, 114405, Note_off_c, 0, 56, 64
4, 114405, Note_off_c, 0, 68, 64
4, 114420, Note_on_c, 0, 61, 28
4, 114420, Note_on_c, 0, 65, 20
4, 114465, Note_off_c, 0, 65, 64
4, 114465, Note_off_c, 0, 61, 64
4, 114480, Note_on_c, 0, 68, 44
4, 114480, Note_on_c, 0, 56, 47
4, 114525, Note_off_c, 0, 56, 64
4, 114525, Note_off_c, 0, 68, 64
4, 114540, Note_on_c, 0, 61, 35
4, 114540, Note_on_c, 0, 65, 8
4, 114585, Note_off_c, 0, 65, 64
4, 114585, Note_off_c, 0, 61, 64
4, 114600, Note_on_c, 0, 56, 35
4, 114600, Note_on_c, 0, 68, 21
4, 114645, Note_off_c, 0, 68, 64
4, 114645, Note_off_c, 0, 56, 64
4, 114660, Note_on_c, 0, 61, 38
4, 114660, Note_on_c, 0, 65, 27
4, 114705, Note_off_c, 0, 65, 64
4, 114705, Note_off_c, 0, 61, 64
4, 114720, Note_on_c, 0, 68, 50
4, 114720, Note_on_c, 0, 56, 59
4, 114765, Note_off_c, 0, 56, 64
4, 114765, Note_off_c, 0, 68, 64
4, 114780, Note_on_c, 0, 65, 41
4, 114780, Note_on_c, 0, 61, 31
4, 114825, Note_off_c, 0, 61, 64
4, 114825, Note_off_c, 0, 65, 64
4, 114840, Note_on_c, 0, 68, 47
4, 114840, Note_on_c, 0, 56, 48
4, 114885, Note_off_c, 0, 56, 64
4, 114885, Note_off_c, 0, 68, 64
4, 114900, Note_on_c, 0, 61, 44
4, 114900, Note_on_c, 0, 65, 26
4, 114945, Note_off_c, 0, 65, 64
4, 114945, Note_off_c, 0, 61, 64
4, 114960, Note_on_c, 0, 68, 55
4, 114960, Note_on_c, 0, 56, 59
4, 115005, Note_off_c, 0, 56, 64
4, 115005, Note_off_c, 0, 68, 64
4, 115020, Note_on_c, 0, 65, 31
4, 115020, Note_on_c, 0, 61, 36
4, 115065, Note_off_c, 0, 61, 64
4, 115065, Note_off_c, 0, 65, 64
4, 115080, Note_on_c, 0, 68, 55
4, 115080, Note_on_c, 0, 56, 48
4, 115125, Note_off_c, 0, 56, 64
4, 115125, Note_off_c, 0, 68, 64
4, 115140, Note_on_c, 0, 61, 44
4, 115140, Note_on_c, 0, 65, 34
4, 115185, Note_off_c, 0, 65, 64
4, 115185, Note_off_c, 0, 61, 64
4, 115200, Note_on_c, 0, 49, 40
4, 115245, Note_off_c, 0, 49, 64
4, 115260, Note_on_c, 0, 61, 51
4, 115260, Note_on_c, 0, 65, 34
4, 115305, Note_off_c, 0, 65, 64
4, 115305, Note_off_c, 0, 61, 64
4, 115320, Note_on_c, 0, 68, 40
4, 115320, Note_on_c, 0, 56, 42
4, 115365, Note_off_c, 0, 56, 64
4, 115365, Note_off_c, 0, 68, 64
4, 115380, Note_on_c, 0, 61, 33
4, 115380, Note_on_c, 0, 65, 15
4, 115425, Note_off_c, 0, 65, 64
4, 115425, Note_off_c, 0, 61, 64
4, 115440, Note_on_c, 0, 68, 50
4, 115500, Note_off_c, 0, 68, 64
4, 115560, Note_on_c, 0, 73, 47
4, 115620, Note_off_c, 0, 73, 64
4, 115680, Note_on_c, 0, 77, 50
4, 115740, Note_off_c, 0, 77, 64
4, 115800, Note_on_c, 0, 80, 47
4, 115860, Note_off_c, 0, 80, 64
4, 115920, Note_on_c, 0, 85, 44
4, 115980, Note_off_c, 0, 85, 64
4, 116040, Note_on_c, 0, 85, 38
4, 116100, Note_off_c, 0, 85, 64
4, 116160, Note_on_c, 0, 85, 63
4, 116160, Note_on_c, 0, 82, 58
4, 116520, Note_off_c, 0, 82, 64
4, 116520, Note_off_c, 0, 85, 64
4, 116520, Note_on_c, 0, 84, 52
4, 116520, Note_on_c, 0, 80, 44
4, 116640, Note_off_c, 0, 80, 64
4, 116640, Note_off_c, 0, 84, 64
4, 116640, Note_on_c, 0, 82, 55
4, 116640, Note_on_c, 0, 79, 39
4, 116880, Note_off_c, 0, 79, 64
4, 116880, Note_off_c, 0, 82, 64
4, 116880, Note_on_c, 0, 84, 59
4, 116880, Note_on_c, 0, 80, 55
4, 117120, Note_off_c, 0, 80, 64
4, 117120, Note_off_c, 0, 84, 64
4, 117120, Note_on_c, 0, 85, 74
4, 117120, Note_on_c, 0, 82, 68
4, 117480, Note_off_c, 0, 82, 64
4, 117480, Note_off_c, 0, 85, 64
4, 117480, Note_on_c, 0, 84, 59
4, 117480, Note_on_c, 0, 80, 47
4, 117600, Note_off_c, 0, 80, 64
4, 117600, Note_off_c, 0, 84, 64
4, 117600, Note_on_c, 0, 79, 52
4, 117600, Note_on_c, 0, 82, 63
4, 117840, Note_off_c, 0, 82, 64
4, 117840, Note_off_c, 0, 79, 64
4, 117840, Note_on_c, 0, 84, 52
4, 117840, Note_on_c, 0, 80, 50
4, 118080, Note_off_c, 0, 80, 64
4, 118080, Note_off_c, 0, 84, 64
4, 118080, Note_on_c, 0, 85, 74
4, 118080, Note_on_c, 0, 82, 68
4, 118440, Note_off_c, 0, 82, 64
4, 118440, Note_off_c, 0, 85, 64
4, 118440, Note_on_c, 0, 80, 55
4, 118440, Note_on_c, 0, 84, 56
4, 118560, Note_off_c, 0, 84, 64
4, 118560, Note_off_c, 0, 80, 64
4, 118560, Note_on_c, 0, 82, 68
4, 118560, Note_on_c, 0, 79, 56
4, 118800, Note_off_c, 0, 79, 64
4, 118800, Note_off_c, 0, 82, 64
4, 118800, Note_on_c, 0, 77, 50
4, 118800, Note_on_c, 0, 80, 68
4, 119040, Note_off_c, 0, 80, 64
4, 119040, Note_off_c, 0, 77, 64
4, 119040, Note_on_c, 0, 79, 47
4, 119040, Note_on_c, 0, 76, 41
4, 119280, Note_off_c, 0, 76, 64
4, 119280, Note_off_c, 0, 79, 64
4, 119280, Note_on_c, 0, 77, 39
4, 119280, Note_on_c, 0, 74, 36
4, 119520, Note_off_c, 0, 74, 64
4, 119520, Note_off_c, 0, 77, 64
4, 119520, Note_on_c, 0, 77, 47
4, 119520, Note_on_c, 0, 73, 55
4, 119760, Note_off_c, 0, 73, 64
4, 119760, Note_off_c, 0, 77, 64
4, 119760, Note_on_c, 0, 72, 36
4, 119760, Note_on_c, 0, 77, 39
4, 120000, Note_off_c, 0, 77, 64
4, 120000, Note_off_c, 0, 72, 64
4, 120000, Note_on_c, 0, 71, 47
4, 120240, Note_on_c, 0, 74, 52
4, 120480, Note_off_c, 0, 74, 64
4, 120480, Note_off_c, 0, 71, 64
4, 120480, Note_on_c, 0, 60, 55
4, 120480, Note_on_c, 0, 72, 56
4, 120480, Note_on_c, 0, 60, 44
4, 120720, Note_off_c, 0, 60, 64
4, 120720, Note_on_c, 0, 67, 39
4, 120960, Note_off_c, 0, 67, 64
4, 120960, Note_off_c, 0, 72, 64
4, 120960, Note_off_c, 0, 60, 64
4, 120960, Note_on_c, 0, 54, 74
4, 120960, Note_on_c, 0, 49, 74
4, 120960, Note_on_c, 0, 46, 54
4, 121320, Note_off_c, 0, 46, 64
4, 121320, Note_off_c, 0, 49, 64
4, 121320, Note_off_c, 0, 54, 64
4, 121320, Note_on_c, 0, 53, 54
4, 121320, Note_on_c, 0, 48, 56
4, 121320, Note_on_c, 0, 44, 40
4, 121440, Note_off_c, 0, 44, 64
4, 121440, Note_off_c, 0, 48, 64
4, 121440, Note_off_c, 0, 53, 64
4, 121440, Note_on_c, 0, 52, 56
4, 121440, Note_on_c, 0, 46, 62
4, 121440, Note_on_c, 0, 43, 56
4, 121680, Note_off_c, 0, 43, 64
4, 121680, Note_off_c, 0, 46, 64
4, 121680, Note_off_c, 0, 52, 64
4, 121680, Note_on_c, 0, 53, 56
4, 121680, Note_on_c, 0, 48, 59
4, 121680, Note_on_c, 0, 44, 50
4, 121920, Note_off_c, 0, 44, 64
4, 121920, Note_off_c, 0, 48, 64
4, 121920, Note_off_c, 0, 53, 64
4, 121920, Note_on_c, 0, 54, 80
4, 121920, Note_on_c, 0, 49, 80
4, 121920, Note_on_c, 0, 46, 72
4, 122280, Note_off_c, 0, 46, 64
4, 122280, Note_off_c, 0, 49, 64
4, 122280, Note_off_c, 0, 54, 64
4, 122280, Note_on_c, 0, 53, 56
4, 122280, Note_on_c, 0, 48, 44
4, 122280, Note_on_c, 0, 44, 44
4, 122400, Note_off_c, 0, 44, 64
4, 122400, Note_off_c, 0, 48, 64
4, 122400, Note_off_c, 0, 53, 64
4, 122400, Note_on_c, 0, 52, 62
4, 122400, Note_on_c, 0, 46, 59
4, 122400, Note_on_c, 0, 43, 56
4, 122640, Note_off_c, 0, 43, 64
4, 122640, Note_off_c, 0, 46, 64
4, 122640, Note_off_c, 0, 52, 64
4, 122640, Note_on_c, 0, 53, 60
4, 122640, Note_on_c, 0, 44, 55
4, 122640, Note_on_c, 0, 48, 52
4, 122880, Note_off_c, 0, 48, 64
4, 122880, Note_off_c, 0, 44, 64
4, 122880, Note_off_c, 0, 53, 64
4, 122880, Note_on_c, 0, 54, 80
4, 122880, Note_on_c, 0, 49, 86
4, 122880, Note_on_c, 0, 46, 72
4, 123240, Note_off_c, 0, 46, 64
4, 123240, Note_off_c, 0, 49, 64
4, 123240, Note_off_c, 0, 54, 64
4, 123240, Note_on_c, 0, 53, 51
4, 123240, Note_on_c, 0, 48, 39
4, 123240, Note_on_c, 0, 44, 47
4, 123360, Note_off_c, 0, 44, 64
4, 123360, Note_off_c, 0, 48, 64
4, 123360, Note_off_c, 0, 53, 64
4, 123360, Note_on_c, 0, 43, 62
4, 123360, Note_on_c, 0, 52, 56
4, 123360, Note_on_c, 0, 46, 54
4, 123600, Note_off_c, 0, 46, 64
4, 123600, Note_off_c, 0, 52, 64
4, 123600, Note_off_c, 0, 43, 64
4, 123600, Note_on_c, 0, 44, 68
4, 123600, Note_on_c, 0, 49, 68
4, 123600, Note_on_c, 0, 41, 63
4, 123840, Note_off_c, 0, 41, 64
4, 123840, Note_off_c, 0, 49, 64
4, 123840, Note_off_c, 0, 44, 64
4, 123840, Note_on_c, 0, 48, 56
4, 123840, Note_on_c, 0, 40, 67
4, 123840, Note_on_c, 0, 43, 67
4, 124080, Note_off_c, 0, 43, 64
4, 124080, Note_off_c, 0, 40, 64
4, 124080, Note_off_c, 0, 48, 64
4, 124080, Note_on_c, 0, 38, 52
4, 124080, Note_on_c, 0, 47, 50
4, 124080, Note_on_c, 0, 41, 51
4, 124080, Note_on_c, 0, 44, 50
4, 124320, Note_off_c, 0, 44, 64
4, 124320, Note_off_c, 0, 41, 64
4, 124320, Note_off_c, 0, 47, 64
4, 124320, Note_off_c, 0, 38, 64
4, 124320, Note_on_c, 0, 46, 59
4, 124320, Note_on_c, 0, 40, 56
4, 124320, Note_on_c, 0, 43, 56
4, 124560, Note_off_c, 0, 43, 64
4, 124560, Note_off_c, 0, 40, 64
4, 124560, Note_off_c, 0, 46, 64
4, 124560, Note_on_c, 0, 44, 50
4, 124560, Note_on_c, 0, 41, 60
4, 124800, Note_off_c, 0, 41, 64
4, 124800, Note_off_c, 0, 44, 64
4, 124800, Note_on_c, 0, 35, 47
4, 124800, Note_on_c, 0, 44, 58
4, 125040, Note_off_c, 0, 44, 64
4, 125040, Note_on_c, 0, 43, 59
4, 125280, Note_off_c, 0, 43, 64
4, 125280, Note_off_c, 0, 35, 64
4, 125280, Note_on_c, 0, 36, 50
4, 125280, Note_on_c, 0, 41, 45
4, 125520, Note_off_c, 0, 41, 64
4, 125520, Note_on_c, 0, 40, 56
4, 125760, Note_off_c, 0, 40, 64
4, 125760, Note_off_c, 0, 36, 64
4, 125760, Note_on_c, 0, 53, 79
4, 125760, Note_on_c, 0, 44, 68
4, 125760, Note_on_c, 0, 41, 63
4, 125760, Note_on_c, 0, 48, 67
4, 125880, Note_off_c, 0, 48, 64
4, 125880, Note_off_c, 0, 41, 64
4, 125880, Note_off_c, 0, 44, 64
4, 125880, Note_off_c, 0, 53, 64
4, 126060, Note_on_c, 0, 48, 44
4, 126120, Note_off_c, 0, 48, 64
4, 126120, Note_on_c, 0, 53, 43
4, 126180, Note_off_c, 0, 53, 64
4, 126180, Note_on_c, 0, 56, 54
4, 126240, Note_off_c, 0, 56, 64
4, 126240, Note_on_c, 0, 60, 47
4, 126300, Note_off_c, 0, 60, 64
4, 126300, Note_on_c, 0, 61, 39
4, 126360, Note_off_c, 0, 61, 64
4, 126360, Note_on_c, 0, 60, 39
4, 126420, Note_off_c, 0, 60, 64
4, 126420, Note_on_c, 0, 58, 40
4, 126480, Note_off_c, 0, 58, 64
4, 126480, Note_on_c, 0, 56, 54
4, 126540, Note_off_c, 0, 56, 64
4, 126540, Note_on_c, 0, 55, 39
4, 126600, Note_off_c, 0, 55, 64
4, 126600, Note_on_c, 0, 53, 51
4, 126660, Note_off_c, 0, 53, 64
4, 126660, Note_on_c, 0, 51, 50
4, 126720, Note_off_c, 0, 51, 64
4, 126720, Note_on_c, 0, 49, 47
4, 126780, Note_off_c, 0, 49, 64
4, 126780, Note_on_c, 0, 48, 41
4, 126840, Note_off_c, 0, 48, 64
4, 126840, Note_on_c, 0, 46, 42
4, 126900, Note_off_c, 0, 46, 64
4, 126900, Note_on_c, 0, 44, 47
4, 126960, Note_off_c, 0, 44, 64
4, 126960, Note_on_c, 0, 43, 59
4, 127020, Note_off_c, 0, 43, 64
4, 127020, Note_on_c, 0, 44, 58
4, 127080, Note_off_c, 0, 44, 64
4, 127080, Note_on_c, 0, 46, 54
4, 127140, Note_off_c, 0, 46, 64
4, 127140, Note_on_c, 0, 44, 50
4, 127200, Note_off_c, 0, 44, 64
4, 127200, Note_on_c, 0, 43, 52
4, 127260, Note_off_c, 0, 43, 64
4, 127260, Note_on_c, 0, 41, 48
4, 127320, Note_off_c, 0, 41, 64
4, 127320, Note_on_c, 0, 40, 56
4, 127380, Note_off_c, 0, 40, 64
4, 127380, Note_on_c, 0, 38, 41
4, 127440, Note_off_c, 0, 38, 64
4, 127440, Note_on_c, 0, 36, 36
4, 127500, Note_off_c, 0, 36, 64
4, 127500, Note_on_c, 0, 34, 51
4, 127560, Note_off_c, 0, 34, 64
4, 127560, Note_on_c, 0, 32, 47
4, 127620, Note_off_c, 0, 32, 64
4, 127620, Note_on_c, 0, 31, 56
4, 127680, Note_off_c, 0, 31, 64
4, 127680, Note_on_c, 0, 36, 47
4, 127680, Note_on_c, 0, 41, 60
4, 127680, Note_on_c, 0, 32, 50
4, 127680, Note_on_c, 0, 29, 60
4, 127800, Note_off_c, 0, 29, 64
4, 127800, Note_off_c, 0, 32, 64
4, 127800, Note_off_c, 0, 41, 64
4, 127800, Note_off_c, 0, 36, 64
4, 127980, Note_on_c, 0, 60, 47
4, 128040, Note_off_c, 0, 60, 64
4, 128040, Note_on_c, 0, 65, 52
4, 128100, Note_off_c, 0, 65, 64
4, 128100, Note_on_c, 0, 68, 63
4, 128160, Note_off_c, 0, 68, 64
4, 128160, Note_on_c, 0, 72, 62
4, 128220, Note_off_c, 0, 72, 64
4, 128220, Note_on_c, 0, 73, 58
4, 128280, Note_off_c, 0, 73, 64
4, 128280, Note_on_c, 0, 72, 50
4, 128340, Note_off_c, 0, 72, 64
4, 128340, Note_on_c, 0, 70, 50
4, 128400, Note_off_c, 0, 70, 64
4, 128400, Note_on_c, 0, 68, 55
4, 128460, Note_off_c, 0, 68, 64
4, 128460, Note_on_c, 0, 67, 59
4, 128520, Note_off_c, 0, 67, 64
4, 128520, Note_on_c, 0, 65, 56
4, 128580, Note_off_c, 0, 65, 64
4, 128580, Note_on_c, 0, 63, 47
4, 128640, Note_off_c, 0, 63, 64
4, 128640, Note_on_c, 0, 61, 51
4, 128700, Note_off_c, 0, 61, 64
4, 128700, Note_on_c, 0, 60, 47
4, 128760, Note_off_c, 0, 60, 64
4, 128760, Note_on_c, 0, 58, 55
4, 128820, Note_off_c, 0, 58, 64
4, 128820, Note_on_c, 0, 56, 54
4, 128880, Note_off_c, 0, 56, 64
4, 128880, Note_on_c, 0, 55, 59
4, 128940, Note_off_c, 0, 55, 64
4, 128940, Note_on_c, 0, 56, 54
4, 129000, Note_off_c, 0, 56, 64
4, 129000, Note_on_c, 0, 58, 47
4, 129060, Note_off_c, 0, 58, 64
4, 129060, Note_on_c, 0, 56, 59
4, 129120, Note_off_c, 0, 56, 64
4, 129120, Note_on_c, 0, 55, 47
4, 129180, Note_off_c, 0, 55, 64
4, 129180, Note_on_c, 0, 53, 48
4, 129240, Note_off_c, 0, 53, 64
4, 129240, Note_on_c, 0, 52, 50
4, 129300, Note_off_c, 0, 52, 64
4, 129300, Note_on_c, 0, 50, 47
4, 129360, Note_off_c, 0, 50, 64
4, 129360, Note_on_c, 0, 48, 52
4, 129420, Note_off_c, 0, 48, 64
4, 129420, Note_on_c, 0, 46, 51
4, 129480, Note_off_c, 0, 46, 64
4, 129480, Note_on_c, 0, 44, 38
4, 129540, Note_off_c, 0, 44, 64
4, 129540, Note_on_c, 0, 43, 56
4, 129600, Note_off_c, 0, 43, 64
4, 129600, Note_on_c, 0, 41, 56
4, 129660, Note_off_c, 0, 41, 64
4, 129660, Note_on_c, 0, 43, 56
4, 129720, Note_off_c, 0, 43, 64
4, 129720, Note_on_c, 0, 44, 50
4, 129780, Note_off_c, 0, 44, 64
4, 129780, Note_on_c, 0, 46, 62
4, 129840, Note_off_c, 0, 46, 64
4, 129840, Note_on_c, 0, 48, 56
4, 129900, Note_off_c, 0, 48, 64
4, 129900, Note_on_c, 0, 50, 50
4, 129960, Note_off_c, 0, 50, 64
4, 129960, Note_on_c, 0, 52, 36
4, 130020, Note_off_c, 0, 52, 64
4, 130020, Note_on_c, 0, 53, 40
4, 130080, Note_off_c, 0, 53, 64
4, 130080, Note_on_c, 0, 55, 62
4, 130140, Note_off_c, 0, 55, 64
4, 130140, Note_on_c, 0, 53, 63
4, 130200, Note_off_c, 0, 53, 64
4, 130200, Note_on_c, 0, 52, 52
4, 130260, Note_off_c, 0, 52, 64
4, 130260, Note_on_c, 0, 50, 52
4, 130320, Note_off_c, 0, 50, 64
4, 130320, Note_on_c, 0, 48, 47
4, 130380, Note_off_c, 0, 48, 64
4, 130380, Note_on_c, 0, 46, 42
4, 130440, Note_off_c, 0, 46, 64
4, 130440, Note_on_c, 0, 44, 47
4, 130500, Note_off_c, 0, 44, 64
4, 130500, Note_on_c, 0, 43, 41
4, 130560, Note_off_c, 0, 43, 64
4, 130560, Note_on_c, 0, 41, 63
4, 130620, Note_off_c, 0, 41, 64
4, 130620, Note_on_c, 0, 43, 52
4, 130680, Note_off_c, 0, 43, 64
4, 130680, Note_on_c, 0, 44, 44
4, 130740, Note_off_c, 0, 44, 64
4, 130740, Note_on_c, 0, 46, 48
4, 130800, Note_off_c, 0, 46, 64
4, 130800, Note_on_c, 0, 48, 56
4, 130860, Note_off_c, 0, 48, 64
4, 130860, Note_on_c, 0, 50, 44
4, 130920, Note_off_c, 0, 50, 64
4, 130920, Note_on_c, 0, 52, 50
4, 130980, Note_off_c, 0, 52, 64
4, 130980, Note_on_c, 0, 53, 51
4, 131040, Note_off_c, 0, 53, 64
4, 131040, Note_on_c, 0, 55, 62
4, 131100, Note_off_c, 0, 55, 64
4, 131100, Note_on_c, 0, 53, 54
4, 131160, Note_off_c, 0, 53, 64
4, 131160, Note_on_c, 0, 52, 56
4, 131220, Note_off_c, 0, 52, 64
4, 131220, Note_on_c, 0, 50, 41
4, 131280, Note_off_c, 0, 50, 64
4, 131280, Note_on_c, 0, 48, 50
4, 131340, Note_off_c, 0, 48, 64
4, 131340, Note_on_c, 0, 46, 54
4, 131400, Note_off_c, 0, 46, 64
4, 131400, Note_on_c, 0, 44, 47
4, 131460, Note_off_c, 0, 44, 64
4, 131460, Note_on_c, 0, 43, 59
4, 131520, Note_off_c, 0, 43, 64
4, 131520, Note_on_c, 0, 41, 60
4, 131580, Note_off_c, 0, 41, 64
4, 131580, Note_on_c, 0, 40, 59
4, 131640, Note_off_c, 0, 40, 64
4, 131640, Note_on_c, 0, 38, 52
4, 131700, Note_off_c, 0, 38, 64
4, 131700, Note_on_c, 0, 36, 56
4, 131760, Note_off_c, 0, 36, 64
4, 131760, Note_on_c, 0, 34, 59
4, 131820, Note_off_c, 0, 34, 64
4, 131820, Note_on_c, 0, 32, 55
4, 131880, Note_off_c, 0, 32, 64
4, 131880, Note_on_c, 0, 31, 52
4, 131940, Note_off_c, 0, 31, 64
4, 131940, Note_on_c, 0, 29, 48
4, 132000, Note_off_c, 0, 29, 64
4, 132000, Note_on_c, 0, 31, 50
4, 132060, Note_off_c, 0, 31, 64
4, 132060, Note_on_c, 0, 32, 50
4, 132120, Note_off_c, 0, 32, 64
4, 132120, Note_on_c, 0, 34, 44
4, 132180, Note_off_c, 0, 34, 64
4, 132180, Note_on_c, 0, 36, 52
4, 132240, Note_off_c, 0, 36, 64
4, 132240, Note_on_c, 0, 38, 47
4, 132300, Note_off_c, 0, 38, 64
4, 132300, Note_on_c, 0, 40, 52
4, 132360, Note_off_c, 0, 40, 64
4, 132360, Note_on_c, 0, 41, 54
4, 132420, Note_off_c, 0, 41, 64
4, 132420, Note_on_c, 0, 43, 50
4, 132480, Note_off_c, 0, 43, 64
4, 132480, Note_on_c, 0, 42, 55
4, 132480, Note_on_c, 0, 30, 58
4, 132600, Note_off_c, 0, 30, 64
4, 132600, Note_off_c, 0, 42, 64
4, 135360, Note_on_c, 0, 29, 85
4, 135600, Note_off_c, 0, 29, 64
4, 136260, Note_on_c, 0, 53, 56
4, 136320, Note_off_c, 0, 53, 64
4, 136320, Note_on_c, 0, 29, 85
4, 136560, Note_off_c, 0, 29, 64
4, 137220, Note_on_c, 0, 53, 54
4, 137280, Note_off_c, 0, 53, 64
4, 137280, Note_on_c, 0, 29, 85
4, 137520, Note_off_c, 0, 29, 64
4, 137640, Note_on_c, 0, 58, 44
4, 137700, Note_off_c, 0, 58, 64
4, 137700, Note_on_c, 0, 59, 43
4, 137760, Note_off_c, 0, 59, 64
4, 137760, Note_on_c, 0, 60, 34
4, 137820, Note_off_c, 0, 60, 64
4, 137820, Note_on_c, 0, 61, 39
4, 137880, Note_off_c, 0, 61, 64
4, 137880, Note_on_c, 0, 60, 32
4, 137940, Note_off_c, 0, 60, 64
4, 137940, Note_on_c, 0, 58, 32
4, 138000, Note_off_c, 0, 58, 64
4, 138000, Note_on_c, 0, 57, 50
4, 138120, Note_off_c, 0, 57, 64
4, 138120, Note_on_c, 0, 57, 50
4, 138180, Note_off_c, 0, 57, 64
4, 138180, Note_on_c, 0, 58, 55
4, 138240, Note_off_c, 0, 58, 64
4, 138240, Note_on_c, 0, 60, 59
4, 138300, Note_off_c, 0, 60, 64
4, 138300, Note_on_c, 0, 61, 54
4, 138360, Note_off_c, 0, 61, 64
4, 138360, Note_on_c, 0, 60, 52
4, 138420, Note_off_c, 0, 60, 64
4, 138420, Note_on_c, 0, 58, 50
4, 138480, Note_off_c, 0, 58, 64
4, 138480, Note_on_c, 0, 57, 47
4, 138600, Note_off_c, 0, 57, 64
4, 138600, Note_on_c, 0, 57, 44
4, 138660, Note_off_c, 0, 57, 64
4, 138660, Note_on_c, 0, 58, 47
4, 138720, Note_off_c, 0, 58, 64
4, 138720, Note_on_c, 0, 60, 56
4, 138780, Note_off_c, 0, 60, 64
4, 138780, Note_on_c, 0, 61, 51
4, 138840, Note_off_c, 0, 61, 64
4, 138840, Note_on_c, 0, 60, 52
4, 138900, Note_off_c, 0, 60, 64
4, 138900, Note_on_c, 0, 58, 50
4, 138960, Note_off_c, 0, 58, 64
4, 138960, Note_on_c, 0, 57, 32
4, 139020, Note_off_c, 0, 57, 64
4, 139020, Note_on_c, 0, 54, 47
4, 139080, Note_off_c, 0, 54, 64
4, 139080, Note_on_c, 0, 53, 51
4, 139140, Note_off_c, 0, 53, 64
4, 139140, Note_on_c, 0, 51, 40
4, 139200, Note_off_c, 0, 51, 64
4, 139200, Note_on_c, 0, 49, 47
4, 139245, Note_off_c, 0, 49, 64
4, 139260, Note_on_c, 0, 53, 29
4, 139305, Note_off_c, 0, 53, 64
4, 139320, Note_on_c, 0, 58, 44
4, 139365, Note_off_c, 0, 58, 64
4, 139380, Note_on_c, 0, 53, 40
4, 139425, Note_off_c, 0, 53, 64
4, 139440, Note_on_c, 0, 58, 50
4, 139485, Note_off_c, 0, 58, 64
4, 139500, Note_on_c, 0, 53, 43
4, 139545, Note_off_c, 0, 53, 64
4, 139560, Note_on_c, 0, 58, 44
4, 139605, Note_off_c, 0, 58, 64
4, 139620, Note_on_c, 0, 53, 40
4, 139665, Note_off_c, 0, 53, 64
4, 139680, Note_on_c, 0, 58, 58
4, 139725, Note_off_c, 0, 58, 64
4, 139740, Note_on_c, 0, 53, 36
4, 139785, Note_off_c, 0, 53, 64
4, 139800, Note_on_c, 0, 58, 44
4, 139845, Note_off_c, 0, 58, 64
4, 139860, Note_on_c, 0, 53, 30
4, 139905, Note_off_c, 0, 53, 64
4, 139920, Note_on_c, 0, 58, 55
4, 139965, Note_off_c, 0, 58, 64
4, 139980, Note_on_c, 0, 53, 40
4, 140025, Note_off_c, 0, 53, 64
4, 140040, Note_on_c, 0, 58, 50
4, 140085, Note_off_c, 0, 58, 64
4, 140100, Note_on_c, 0, 53, 48
4, 140145, Note_off_c, 0, 53, 64
4, 140160, Note_on_c, 0, 49, 47
4, 140205, Note_off_c, 0, 49, 64
4, 140220, Note_on_c, 0, 53, 45
4, 140265, Note_off_c, 0, 53, 64
4, 140280, Note_on_c, 0, 58, 50
4, 140325, Note_off_c, 0, 58, 64
4, 140340, Note_on_c, 0, 53, 40
4, 140385, Note_off_c, 0, 53, 64
4, 140400, Note_on_c, 0, 58, 50
4, 140445, Note_off_c, 0, 58, 64
4, 140460, Note_on_c, 0, 53, 45
4, 140505, Note_off_c, 0, 53, 64
4, 140520, Note_on_c, 0, 58, 50
4, 140565, Note_off_c, 0, 58, 64
4, 140580, Note_on_c, 0, 53, 38
4, 140625, Note_off_c, 0, 53, 64
4, 140640, Note_on_c, 0, 58, 47
4, 140685, Note_off_c, 0, 58, 64
4, 140700, Note_on_c, 0, 53, 45
4, 140745, Note_off_c, 0, 53, 64
4, 140760, Note_on_c, 0, 58, 50
4, 140805, Note_off_c, 0, 58, 64
4, 140820, Note_on_c, 0, 53, 43
4, 140865, Note_off_c, 0, 53, 64
4, 140880, Note_on_c, 0, 58, 50
4, 140925, Note_off_c, 0, 58, 64
4, 140940, Note_on_c, 0, 53, 40
4, 140985, Note_off_c, 0, 53, 64
4, 141000, Note_on_c, 0, 58, 47
4, 141045, Note_off_c, 0, 58, 64
4, 141060, Note_on_c, 0, 53, 43
4, 141105, Note_off_c, 0, 53, 64
4, 141120, Note_on_c, 0, 51, 44
4, 141165, Note_off_c, 0, 51, 64
4, 141180, Note_on_c, 0, 54, 47
4, 141225, Note_off_c, 0, 54, 64
4, 141240, Note_on_c, 0, 59, 56
4, 141285, Note_off_c, 0, 59, 64
4, 141300, Note_on_c, 0, 54, 55
4, 141345, Note_off_c, 0, 54, 64
4, 141360, Note_on_c, 0, 59, 54
4, 141405, Note_off_c, 0, 59, 64
4, 141420, Note_on_c, 0, 54, 50
4, 141465, Note_off_c, 0, 54, 64
4, 141480, Note_on_c, 0, 59, 48
4, 141525, Note_off_c, 0, 59, 64
4, 141540, Note_on_c, 0, 54, 40
4, 141585, Note_off_c, 0, 54, 64
4, 141600, Note_on_c, 0, 59, 51
4, 141645, Note_off_c, 0, 59, 64
4, 141660, Note_on_c, 0, 54, 50
4, 141705, Note_off_c, 0, 54, 64
4, 141720, Note_on_c, 0, 59, 51
4, 141765, Note_off_c, 0, 59, 64
4, 141780, Note_on_c, 0, 54, 44
4, 141825, Note_off_c, 0, 54, 64
4, 141840, Note_on_c, 0, 59, 43
4, 141885, Note_off_c, 0, 59, 64
4, 141900, Note_on_c, 0, 54, 47
4, 141945, Note_off_c, 0, 54, 64
4, 141960, Note_on_c, 0, 59, 43
4, 142005, Note_off_c, 0, 59, 64
4, 142020, Note_on_c, 0, 54, 44
4, 142065, Note_off_c, 0, 54, 64
4, 142080, Note_on_c, 0, 53, 48
4, 142125, Note_off_c, 0, 53, 64
4, 142140, Note_on_c, 0, 58, 47
4, 142185, Note_off_c, 0, 58, 64
4, 142200, Note_on_c, 0, 61, 51
4, 142245, Note_off_c, 0, 61, 64
4, 142260, Note_on_c, 0, 58, 40
4, 142305, Note_off_c, 0, 58, 64
4, 142320, Note_on_c, 0, 61, 48
4, 142365, Note_off_c, 0, 61, 64
4, 142380, Note_on_c, 0, 58, 47
4, 142425, Note_off_c, 0, 58, 64
4, 142440, Note_on_c, 0, 61, 51
4, 142485, Note_off_c, 0, 61, 64
4, 142500, Note_on_c, 0, 58, 40
4, 142545, Note_off_c, 0, 58, 64
4, 142560, Note_on_c, 0, 51, 47
4, 142605, Note_off_c, 0, 51, 64
4, 142620, Note_on_c, 0, 53, 60
4, 142665, Note_off_c, 0, 53, 64
4, 142680, Note_on_c, 0, 60, 47
4, 142725, Note_off_c, 0, 60, 64
4, 142740, Note_on_c, 0, 53, 30
4, 142785, Note_off_c, 0, 53, 64
4, 142800, Note_on_c, 0, 60, 39
4, 142845, Note_off_c, 0, 60, 64
4, 142860, Note_on_c, 0, 53, 38
4, 142905, Note_off_c, 0, 53, 64
4, 142920, Note_on_c, 0, 60, 50
4, 142965, Note_off_c, 0, 60, 64
4, 142980, Note_on_c, 0, 53, 51
4, 143025, Note_off_c, 0, 53, 64
4, 143040, Note_on_c, 0, 49, 47
4, 143085, Note_off_c, 0, 49, 64
4, 143100, Note_on_c, 0, 65, 47
4, 143145, Note_off_c, 0, 65, 64
4, 143280, Note_on_c, 0, 58, 70
4, 143340, Note_on_c, 0, 61, 48
4, 143385, Note_off_c, 0, 61, 64
4, 143400, Note_on_c, 0, 65, 47
4, 143445, Note_off_c, 0, 65, 64
4, 143460, Note_on_c, 0, 61, 39
4, 143505, Note_off_c, 0, 61, 64
4, 143520, Note_off_c, 0, 58, 64
4, 143520, Note_on_c, 0, 57, 85
4, 143580, Note_on_c, 0, 61, 39
4, 143625, Note_off_c, 0, 61, 64
4, 143640, Note_on_c, 0, 65, 32
4, 143685, Note_off_c, 0, 65, 64
4, 143700, Note_on_c, 0, 61, 36
4, 143745, Note_off_c, 0, 61, 64
4, 143760, Note_off_c, 0, 57, 64
4, 143760, Note_on_c, 0, 58, 70
4, 143820, Note_on_c, 0, 61, 54
4, 143865, Note_off_c, 0, 61, 64
4, 143880, Note_on_c, 0, 65, 52
4, 143925, Note_off_c, 0, 65, 64
4, 143940, Note_on_c, 0, 61, 54
4, 143985, Note_off_c, 0, 61, 64
4, 144000, Note_off_c, 0, 58, 64
4, 144000, Note_on_c, 0, 49, 55
4, 144045, Note_off_c, 0, 49, 64
4, 144060, Note_on_c, 0, 65, 47
4, 144105, Note_off_c, 0, 65, 64
4, 144240, Note_on_c, 0, 58, 70
4, 144300, Note_on_c, 0, 61, 44
4, 144345, Note_off_c, 0, 61, 64
4, 144360, Note_on_c, 0, 65, 36
4, 144405, Note_off_c, 0, 65, 64
4, 144420, Note_on_c, 0, 61, 36
4, 144465, Note_off_c, 0, 61, 64
4, 144480, Note_off_c, 0, 58, 64
4, 144480, Note_on_c, 0, 57, 85
4, 144540, Note_on_c, 0, 61, 48
4, 144585, Note_off_c, 0, 61, 64
4, 144600, Note_on_c, 0, 65, 44
4, 144645, Note_off_c, 0, 65, 64
4, 144660, Note_on_c, 0, 61, 42
4, 144705, Note_off_c, 0, 61, 64
4, 144720, Note_off_c, 0, 57, 64
4, 144720, Note_on_c, 0, 58, 70
4, 144780, Note_on_c, 0, 61, 48
4, 144825, Note_off_c, 0, 61, 64
4, 144840, Note_on_c, 0, 65, 44
4, 144885, Note_off_c, 0, 65, 64
4, 144900, Note_on_c, 0, 61, 42
4, 144945, Note_off_c, 0, 61, 64
4, 144960, Note_off_c, 0, 58, 64
4, 144960, Note_on_c, 0, 51, 63
4, 145005, Note_off_c, 0, 51, 64
4, 145020, Note_on_c, 0, 71, 39
4, 145020, Note_on_c, 0, 66, 44
4, 145065, Note_off_c, 0, 66, 64
4, 145065, Note_off_c, 0, 71, 64
4, 145080, Note_on_c, 0, 63, 50
4, 145125, Note_off_c, 0, 63, 64
4, 145140, Note_on_c, 0, 71, 32
4, 145140, Note_on_c, 0, 66, 47
4, 145185, Note_off_c, 0, 66, 64
4, 145185, Note_off_c, 0, 71, 64
4, 145200, Note_on_c, 0, 63, 55
4, 145245, Note_off_c, 0, 63, 64
4, 145260, Note_on_c, 0, 71, 36
4, 145260, Note_on_c, 0, 66, 40
4, 145305, Note_off_c, 0, 66, 64
4, 145305, Note_off_c, 0, 71, 64
4, 145320, Note_on_c, 0, 63, 47
4, 145365, Note_off_c, 0, 63, 64
4, 145380, Note_on_c, 0, 71, 26
4, 145380, Note_on_c, 0, 66, 27
4, 145425, Note_off_c, 0, 66, 64
4, 145425, Note_off_c, 0, 71, 64
4, 145440, Note_on_c, 0, 63, 55
4, 145485, Note_off_c, 0, 63, 64
4, 145500, Note_on_c, 0, 71, 41
4, 145500, Note_on_c, 0, 66, 24
4, 145545, Note_off_c, 0, 66, 64
4, 145545, Note_off_c, 0, 71, 64
4, 145560, Note_on_c, 0, 63, 44
4, 145605, Note_off_c, 0, 63, 64
4, 145620, Note_on_c, 0, 71, 23
4, 145620, Note_on_c, 0, 66, 38
4, 145665, Note_off_c, 0, 66, 64
4, 145665, Note_off_c, 0, 71, 64
4, 145680, Note_on_c, 0, 63, 55
4, 145725, Note_off_c, 0, 63, 64
4, 145740, Note_on_c, 0, 71, 36
4, 145740, Note_on_c, 0, 66, 32
4, 145785, Note_off_c, 0, 66, 64
4, 145785, Note_off_c, 0, 71, 64
4, 145800, Note_on_c, 0, 63, 50
4, 145845, Note_off_c, 0, 63, 64
4, 145860, Note_on_c, 0, 71, 34
4, 145860, Note_on_c, 0, 66, 27
4, 145905, Note_off_c, 0, 66, 64
4, 145905, Note_off_c, 0, 71, 64
4, 145920, Note_on_c, 0, 65, 59
4, 145965, Note_off_c, 0, 65, 64
4, 145980, Note_on_c, 0, 75, 58
4, 145980, Note_on_c, 0, 69, 41
4, 146025, Note_off_c, 0, 69, 64
4, 146025, Note_off_c, 0, 75, 64
4, 146040, Note_on_c, 0, 65, 50
4, 146085, Note_off_c, 0, 65, 64
4, 146100, Note_on_c, 0, 75, 47
4, 146100, Note_on_c, 0, 69, 39
4, 146145, Note_off_c, 0, 69, 64
4, 146145, Note_off_c, 0, 75, 64
4, 146160, Note_on_c, 0, 65, 52
4, 146205, Note_off_c, 0, 65, 64
4, 146220, Note_on_c, 0, 75, 44
4, 146220, Note_on_c, 0, 69, 41
4, 146265, Note_off_c, 0, 69, 64
4, 146265, Note_off_c, 0, 75, 64
4, 146280, Note_on_c, 0, 65, 56
4, 146325, Note_off_c, 0, 65, 64
4, 146340, Note_on_c, 0, 75, 50
4, 146340, Note_on_c, 0, 69, 44
4, 146385, Note_off_c, 0, 69, 64
4, 146385, Note_off_c, 0, 75, 64
4, 146400, Note_on_c, 0, 65, 41
4, 146445, Note_off_c, 0, 65, 64
4, 146460, Note_on_c, 0, 69, 39
4, 146505, Note_off_c, 0, 69, 64
4, 146520, Note_on_c, 0, 65, 44
4, 146565, Note_off_c, 0, 65, 64
4, 146580, Note_on_c, 0, 69, 44
4, 146625, Note_off_c, 0, 69, 64
4, 146640, Note_on_c, 0, 53, 51
4, 146685, Note_off_c, 0, 53, 64
4, 146700, Note_on_c, 0, 65, 44
4, 146745, Note_off_c, 0, 65, 64
4, 146760, Note_on_c, 0, 53, 51
4, 146805, Note_off_c, 0, 53, 64
4, 146820, Note_on_c, 0, 65, 50
4, 146865, Note_off_c, 0, 65, 64
4, 146880, Note_on_c, 0, 46, 33
4, 146970, Note_off_c, 0, 46, 64
4, 147000, Note_on_c, 0, 58, 70
4, 147000, Note_on_c, 0, 61, 70
4, 147045, Note_off_c, 0, 61, 64
4, 147045, Note_off_c, 0, 58, 64
4, 147060, Note_on_c, 0, 65, 39
4, 147105, Note_off_c, 0, 65, 64
4, 147120, Note_on_c, 0, 58, 44
4, 147120, Note_on_c, 0, 61, 28
4, 147165, Note_off_c, 0, 61, 64
4, 147165, Note_off_c, 0, 58, 64
4, 147180, Note_on_c, 0, 65, 36
4, 147225, Note_off_c, 0, 65, 64
4, 147240, Note_on_c, 0, 58, 44
4, 147240, Note_on_c, 0, 61, 23
4, 147285, Note_off_c, 0, 61, 64
4, 147285, Note_off_c, 0, 58, 64
4, 147300, Note_on_c, 0, 65, 31
4, 147345, Note_off_c, 0, 65, 64
4, 147360, Note_on_c, 0, 58, 38
4, 147360, Note_on_c, 0, 61, 31
4, 147405, Note_off_c, 0, 61, 64
4, 147405, Note_off_c, 0, 58, 64
4, 147420, Note_on_c, 0, 65, 47
4, 147465, Note_off_c, 0, 65, 64
4, 147480, Note_on_c, 0, 58, 70
4, 147480, Note_on_c, 0, 61, 70
4, 147525, Note_off_c, 0, 61, 64
4, 147525, Note_off_c, 0, 58, 64
4, 147540, Note_on_c, 0, 64, 47
4, 147585, Note_off_c, 0, 64, 64
4, 147600, Note_on_c, 0, 58, 47
4, 147600, Note_on_c, 0, 61, 18
4, 147645, Note_off_c, 0, 61, 64
4, 147645, Note_off_c, 0, 58, 64
4, 147660, Note_on_c, 0, 64, 42
4, 147705, Note_off_c, 0, 64, 64
4, 147720, Note_on_c, 0, 58, 47
4, 147720, Note_on_c, 0, 61, 42
4, 147765, Note_off_c, 0, 61, 64
4, 147765, Note_off_c, 0, 58, 64
4, 147780, Note_on_c, 0, 64, 42
4, 147825, Note_off_c, 0, 64, 64
4, 147840, Note_on_c, 0, 57, 47
4, 147840, Note_on_c, 0, 60, 47
4, 147885, Note_off_c, 0, 60, 64
4, 147885, Note_off_c, 0, 57, 64
4, 147900, Note_on_c, 0, 64, 42
4, 147945, Note_off_c, 0, 64, 64
4, 147960, Note_on_c, 0, 57, 70
4, 147960, Note_on_c, 0, 60, 70
4, 148005, Note_off_c, 0, 60, 64
4, 148005, Note_off_c, 0, 57, 64
4, 148020, Note_on_c, 0, 65, 47
4, 148065, Note_off_c, 0, 65, 64
4, 148080, Note_on_c, 0, 57, 44
4, 148080, Note_on_c, 0, 60, 39
4, 148125, Note_off_c, 0, 60, 64
4, 148125, Note_off_c, 0, 57, 64
4, 148140, Note_on_c, 0, 65, 47
4, 148185, Note_off_c, 0, 65, 64
4, 148200, Note_on_c, 0, 57, 47
4, 148200, Note_on_c, 0, 60, 47
4, 148245, Note_off_c, 0, 60, 64
4, 148245, Note_off_c, 0, 57, 64
4, 148260, Note_on_c, 0, 65, 50
4, 148305, Note_off_c, 0, 65, 64
4, 148320, Note_on_c, 0, 57, 35
4, 148320, Note_on_c, 0, 60, 29
4, 148365, Note_off_c, 0, 60, 64
4, 148365, Note_off_c, 0, 57, 64
4, 148380, Note_on_c, 0, 65, 31
4, 148425, Note_off_c, 0, 65, 64
4, 148440, Note_on_c, 0, 57, 27
4, 148440, Note_on_c, 0, 60, 22
4, 148485, Note_off_c, 0, 60, 64
4, 148485, Note_off_c, 0, 57, 64
4, 148500, Note_on_c, 0, 65, 33
4, 148545, Note_off_c, 0, 65, 64
4, 148560, Note_on_c, 0, 57, 31
4, 148560, Note_on_c, 0, 60, 20
4, 148605, Note_off_c, 0, 60, 64
4, 148605, Note_off_c, 0, 57, 64
4, 148620, Note_on_c, 0, 65, 29
4, 148665, Note_off_c, 0, 65, 64
4, 148680, Note_on_c, 0, 57, 27
4, 148680, Note_on_c, 0, 60, 24
4, 148725, Note_off_c, 0, 60, 64
4, 148725, Note_off_c, 0, 57, 64
4, 148740, Note_on_c, 0, 65, 29
4, 148785, Note_off_c, 0, 65, 64
4, 148800, Note_on_c, 0, 61, 51
4, 148800, Note_on_c, 0, 58, 44
4, 148845, Note_off_c, 0, 58, 64
4, 148845, Note_off_c, 0, 61, 64
4, 148860, Note_on_c, 0, 65, 47
4, 148905, Note_off_c, 0, 65, 64
4, 148920, Note_on_c, 0, 58, 70
4, 148920, Note_on_c, 0, 61, 70
4, 148965, Note_off_c, 0, 61, 64
4, 148965, Note_off_c, 0, 58, 64
4, 148980, Note_on_c, 0, 65, 47
4, 149025, Note_off_c, 0, 65, 64
4, 149040, Note_on_c, 0, 58, 47
4, 149040, Note_on_c, 0, 61, 42
4, 149085, Note_off_c, 0, 61, 64
4, 149085, Note_off_c, 0, 58, 64
4, 149100, Note_on_c, 0, 65, 34
4, 149145, Note_off_c, 0, 65, 64
4, 149160, Note_on_c, 0, 58, 63
4, 149160, Note_on_c, 0, 61, 13
4, 149205, Note_off_c, 0, 61, 64
4, 149205, Note_off_c, 0, 58, 64
4, 149220, Note_on_c, 0, 65, 50
4, 149265, Note_off_c, 0, 65, 64
4, 149280, Note_on_c, 0, 61, 51
4, 149280, Note_on_c, 0, 58, 50
4, 149325, Note_off_c, 0, 58, 64
4, 149325, Note_off_c, 0, 61, 64
4, 149340, Note_on_c, 0, 65, 44
4, 149385, Note_off_c, 0, 65, 64
4, 149400, Note_on_c, 0, 58, 70
4, 149400, Note_on_c, 0, 61, 70
4, 149445, Note_off_c, 0, 61, 64
4, 149445, Note_off_c, 0, 58, 64
4, 149460, Note_on_c, 0, 64, 49
4, 149505, Note_off_c, 0, 64, 64
4, 149520, Note_on_c, 0, 58, 40
4, 149520, Note_on_c, 0, 61, 39
4, 149565, Note_off_c, 0, 61, 64
4, 149565, Note_off_c, 0, 58, 64
4, 149580, Note_on_c, 0, 64, 40
4, 149625, Note_off_c, 0, 64, 64
4, 149640, Note_on_c, 0, 61, 42
4, 149640, Note_on_c, 0, 58, 44
4, 149685, Note_off_c, 0, 58, 64
4, 149685, Note_off_c, 0, 61, 64
4, 149700, Note_on_c, 0, 64, 42
4, 149745, Note_off_c, 0, 64, 64
4, 149760, Note_on_c, 0, 57, 41
4, 149760, Note_on_c, 0, 60, 52
4, 149805, Note_off_c, 0, 60, 64
4, 149805, Note_off_c, 0, 57, 64
4, 149820, Note_on_c, 0, 64, 40
4, 149865, Note_off_c, 0, 64, 64
4, 149880, Note_on_c, 0, 57, 70
4, 149880, Note_on_c, 0, 60, 70
4, 149925, Note_off_c, 0, 60, 64
4, 149925, Note_off_c, 0, 57, 64
4, 149940, Note_on_c, 0, 65, 44
4, 149985, Note_off_c, 0, 65, 64
4, 150000, Note_on_c, 0, 60, 50
4, 150000, Note_on_c, 0, 57, 39
4, 150045, Note_off_c, 0, 57, 64
4, 150045, Note_off_c, 0, 60, 64
4, 150060, Note_on_c, 0, 65, 34
4, 150105, Note_off_c, 0, 65, 64
4, 150120, Note_on_c, 0, 57, 44
4, 150120, Note_on_c, 0, 60, 32
4, 150165, Note_off_c, 0, 60, 64
4, 150165, Note_off_c, 0, 57, 64
4, 150180, Note_on_c, 0, 65, 47
4, 150225, Note_off_c, 0, 65, 64
4, 150240, Note_on_c, 0, 57, 35
4, 150240, Note_on_c, 0, 60, 35
4, 150285, Note_off_c, 0, 60, 64
4, 150285, Note_off_c, 0, 57, 64
4, 150300, Note_on_c, 0, 65, 37
4, 150345, Note_off_c, 0, 65, 64
4, 150360, Note_on_c, 0, 57, 33
4, 150360, Note_on_c, 0, 60, 35
4, 150405, Note_off_c, 0, 60, 64
4, 150405, Note_off_c, 0, 57, 64
4, 150420, Note_on_c, 0, 65, 37
4, 150465, Note_off_c, 0, 65, 64
4, 150480, Note_on_c, 0, 60, 35
4, 150480, Note_on_c, 0, 57, 35
4, 150525, Note_off_c, 0, 57, 64
4, 150525, Note_off_c, 0, 60, 64
4, 150540, Note_on_c, 0, 65, 37
4, 150585, Note_off_c, 0, 65, 64
4, 150600, Note_on_c, 0, 57, 30
4, 150600, Note_on_c, 0, 60, 30
4, 150645, Note_off_c, 0, 60, 64
4, 150645, Note_off_c, 0, 57, 64
4, 150660, Note_on_c, 0, 65, 37
4, 150705, Note_off_c, 0, 65, 64
4, 150720, Note_on_c, 0, 61, 51
4, 150720, Note_on_c, 0, 58, 47
4, 150765, Note_off_c, 0, 58, 64
4, 150765, Note_off_c, 0, 61, 64
4, 150780, Note_on_c, 0, 65, 52
4, 150825, Note_off_c, 0, 65, 64
4, 150840, Note_on_c, 0, 52, 70
4, 150840, Note_on_c, 0, 55, 70
4, 150885, Note_off_c, 0, 55, 64
4, 150885, Note_off_c, 0, 52, 64
4, 150900, Note_on_c, 0, 60, 52
4, 150945, Note_off_c, 0, 60, 64
4, 150960, Note_on_c, 0, 52, 44
4, 150960, Note_on_c, 0, 55, 36
4, 151005, Note_off_c, 0, 55, 64
4, 151005, Note_off_c, 0, 52, 64
4, 151020, Note_on_c, 0, 60, 44
4, 151065, Note_off_c, 0, 60, 64
4, 151080, Note_on_c, 0, 52, 52
4, 151080, Note_on_c, 0, 55, 44
4, 151125, Note_off_c, 0, 55, 64
4, 151125, Note_off_c, 0, 52, 64
4, 151140, Note_on_c, 0, 60, 50
4, 151185, Note_off_c, 0, 60, 64
4, 151200, Note_on_c, 0, 56, 62
4, 151200, Note_on_c, 0, 53, 54
4, 151245, Note_off_c, 0, 53, 64
4, 151245, Note_off_c, 0, 56, 64
4, 151260, Note_on_c, 0, 60, 36
4, 151305, Note_off_c, 0, 60, 64
4, 151320, Note_on_c, 0, 53, 70
4, 151320, Note_on_c, 0, 56, 70
4, 151365, Note_off_c, 0, 56, 64
4, 151365, Note_off_c, 0, 53, 64
4, 151380, Note_on_c, 0, 62, 47
4, 151425, Note_off_c, 0, 62, 64
4, 151440, Note_on_c, 0, 56, 51
4, 151440, Note_on_c, 0, 53, 38
4, 151485, Note_off_c, 0, 53, 64
4, 151485, Note_off_c, 0, 56, 64
4, 151500, Note_on_c, 0, 62, 36
4, 151545, Note_off_c, 0, 62, 64
4, 151560, Note_on_c, 0, 56, 59
4, 151560, Note_on_c, 0, 53, 45
4, 151605, Note_off_c, 0, 53, 64
4, 151605, Note_off_c, 0, 56, 64
4, 151620, Note_on_c, 0, 62, 47
4, 151665, Note_off_c, 0, 62, 64
4, 151680, Note_on_c, 0, 52, 62
4, 151680, Note_on_c, 0, 55, 52
4, 151725, Note_off_c, 0, 55, 64
4, 151725, Note_off_c, 0, 52, 64
4, 151740, Note_on_c, 0, 62, 47
4, 151785, Note_off_c, 0, 62, 64
4, 151800, Note_on_c, 0, 52, 50
4, 151800, Note_on_c, 0, 55, 70
4, 151845, Note_off_c, 0, 55, 64
4, 151845, Note_off_c, 0, 52, 64
4, 151860, Note_on_c, 0, 60, 50
4, 151905, Note_off_c, 0, 60, 64
4, 151920, Note_on_c, 0, 52, 52
4, 151920, Note_on_c, 0, 55, 52
4, 151965, Note_off_c, 0, 55, 64
4, 151965, Note_off_c, 0, 52, 64
4, 151980, Note_on_c, 0, 60, 50
4, 152025, Note_off_c, 0, 60, 64
4, 152040, Note_on_c, 0, 55, 52
4, 152040, Note_on_c, 0, 52, 50
4, 152085, Note_off_c, 0, 52, 64
4, 152085, Note_off_c, 0, 55, 64
4, 152100, Note_on_c, 0, 60, 47
4, 152145, Note_off_c, 0, 60, 64
4, 152160, Note_on_c, 0, 55, 27
4, 152160, Note_on_c, 0, 52, 30
4, 152205, Note_off_c, 0, 52, 64
4, 152205, Note_off_c, 0, 55, 64
4, 152220, Note_on_c, 0, 60, 39
4, 152265, Note_off_c, 0, 60, 64
4, 152280, Note_on_c, 0, 55, 35
4, 152280, Note_on_c, 0, 52, 35
4, 152325, Note_off_c, 0, 52, 64
4, 152325, Note_off_c, 0, 55, 64
4, 152340, Note_on_c, 0, 60, 35
4, 152385, Note_off_c, 0, 60, 64
4, 152400, Note_on_c, 0, 52, 33
4, 152400, Note_on_c, 0, 55, 24
4, 152445, Note_off_c, 0, 55, 64
4, 152445, Note_off_c, 0, 52, 64
4, 152460, Note_on_c, 0, 60, 37
4, 152505, Note_off_c, 0, 60, 64
4, 152520, Note_on_c, 0, 52, 30
4, 152520, Note_on_c, 0, 55, 25
4, 152565, Note_off_c, 0, 55, 64
4, 152565, Note_off_c, 0, 52, 64
4, 152580, Note_on_c, 0, 60, 35
4, 152625, Note_off_c, 0, 60, 64
4, 152640, Note_on_c, 0, 53, 45
4, 152640, Note_on_c, 0, 56, 48
4, 152685, Note_off_c, 0, 56, 64
4, 152685, Note_off_c, 0, 53, 64
4, 152700, Note_on_c, 0, 60, 50
4, 152745, Note_off_c, 0, 60, 64
4, 152760, Note_on_c, 0, 53, 70
4, 152760, Note_on_c, 0, 56, 70
4, 152805, Note_off_c, 0, 56, 64
4, 152805, Note_off_c, 0, 53, 64
4, 152820, Note_on_c, 0, 60, 52
4, 152865, Note_off_c, 0, 60, 64
4, 152880, Note_on_c, 0, 56, 54
4, 152880, Note_on_c, 0, 53, 38
4, 152925, Note_off_c, 0, 53, 64
4, 152925, Note_off_c, 0, 56, 64
4, 152940, Note_on_c, 0, 60, 56
4, 152985, Note_off_c, 0, 60, 64
4, 153000, Note_on_c, 0, 56, 51
4, 153000, Note_on_c, 0, 53, 48
4, 153045, Note_off_c, 0, 53, 64
4, 153045, Note_off_c, 0, 56, 64
4, 153060, Note_on_c, 0, 60, 50
4, 153105, Note_off_c, 0, 60, 64
4, 153120, Note_on_c, 0, 56, 54
4, 153120, Note_on_c, 0, 53, 40
4, 153165, Note_off_c, 0, 53, 64
4, 153165, Note_off_c, 0, 56, 64
4, 153180, Note_on_c, 0, 60, 41
4, 153225, Note_off_c, 0, 60, 64
4, 153240, Note_on_c, 0, 53, 70
4, 153240, Note_on_c, 0, 56, 70
4, 153285, Note_off_c, 0, 56, 64
4, 153285, Note_off_c, 0, 53, 64
4, 153300, Note_on_c, 0, 62, 41
4, 153345, Note_off_c, 0, 62, 64
4, 153360, Note_on_c, 0, 53, 48
4, 153360, Note_on_c, 0, 56, 36
4, 153405, Note_off_c, 0, 56, 64
4, 153405, Note_off_c, 0, 53, 64
4, 153420, Note_on_c, 0, 62, 47
4, 153465, Note_off_c, 0, 62, 64
4, 153480, Note_on_c, 0, 56, 54
4, 153480, Note_on_c, 0, 53, 29
4, 153525, Note_off_c, 0, 53, 64
4, 153525, Note_off_c, 0, 56, 64
4, 153540, Note_on_c, 0, 62, 41
4, 153585, Note_off_c, 0, 62, 64
4, 153600, Note_on_c, 0, 52, 56
4, 153600, Note_on_c, 0, 55, 56
4, 153645, Note_off_c, 0, 55, 64
4, 153645, Note_off_c, 0, 52, 64
4, 153660, Note_on_c, 0, 62, 47
4, 153705, Note_off_c, 0, 62, 64
4, 153720, Note_on_c, 0, 52, 70
4, 153720, Note_on_c, 0, 55, 70
4, 153765, Note_off_c, 0, 55, 64
4, 153765, Note_off_c, 0, 52, 64
4, 153780, Note_on_c, 0, 60, 50
4, 153825, Note_off_c, 0, 60, 64
4, 153840, Note_on_c, 0, 52, 47
4, 153840, Note_on_c, 0, 55, 44
4, 153885, Note_off_c, 0, 55, 64
4, 153885, Note_off_c, 0, 52, 64
4, 153900, Note_on_c, 0, 60, 41
4, 153945, Note_off_c, 0, 60, 64
4, 153960, Note_on_c, 0, 52, 41
4, 153960, Note_on_c, 0, 55, 39
4, 154005, Note_off_c, 0, 55, 64
4, 154005, Note_off_c, 0, 52, 64
4, 154020, Note_on_c, 0, 60, 41
4, 154065, Note_off_c, 0, 60, 64
4, 154080, Note_on_c, 0, 52, 47
4, 154080, Note_on_c, 0, 55, 41
4, 154125, Note_off_c, 0, 55, 64
4, 154125, Note_off_c, 0, 52, 64
4, 154140, Note_on_c, 0, 60, 47
4, 154185, Note_off_c, 0, 60, 64
4, 154200, Note_on_c, 0, 55, 47
4, 154200, Note_on_c, 0, 52, 50
4, 154245, Note_off_c, 0, 52, 64
4, 154245, Note_off_c, 0, 55, 64
4, 154260, Note_on_c, 0, 60, 44
4, 154305, Note_off_c, 0, 60, 64
4, 154320, Note_on_c, 0, 52, 41
4, 154320, Note_on_c, 0, 55, 44
4, 154365, Note_off_c, 0, 55, 64
4, 154365, Note_off_c, 0, 52, 64
4, 154380, Note_on_c, 0, 60, 41
4, 154425, Note_off_c, 0, 60, 64
4, 154440, Note_on_c, 0, 55, 41
4, 154440, Note_on_c, 0, 52, 44
4, 154485, Note_off_c, 0, 52, 64
4, 154485, Note_off_c, 0, 55, 64
4, 154500, Note_on_c, 0, 60, 44
4, 154545, Note_off_c, 0, 60, 64
4, 154560, Note_on_c, 0, 53, 71
4, 154560, Note_on_c, 0, 44, 58
4, 154560, Note_on_c, 0, 41, 54
4, 154560, Note_on_c, 0, 48, 62
4, 154740, Note_off_c, 0, 48, 64
4, 154740, Note_off_c, 0, 41, 64
4, 154740, Note_off_c, 0, 44, 64
4, 154740, Note_off_c, 0, 53, 64
4, 154860, Note_on_c, 0, 48, 50
4, 154905, Note_off_c, 0, 48, 64
4, 154920, Note_on_c, 0, 53, 56
4, 154965, Note_off_c, 0, 53, 64
4, 154980, Note_on_c, 0, 56, 62
4, 155025, Note_off_c, 0, 56, 64
4, 155040, Note_on_c, 0, 60, 59
4, 155085, Note_off_c, 0, 60, 64
4, 155100, Note_on_c, 0, 61, 54
4, 155145, Note_off_c, 0, 61, 64
4, 155160, Note_on_c, 0, 60, 50
4, 155205, Note_off_c, 0, 60, 64
4, 155220, Note_on_c, 0, 58, 50
4, 155265, Note_off_c, 0, 58, 64
4, 155280, Note_on_c, 0, 56, 62
4, 155325, Note_off_c, 0, 56, 64
4, 155340, Note_on_c, 0, 58, 50
4, 155385, Note_off_c, 0, 58, 64
4, 155400, Note_on_c, 0, 60, 44
4, 155445, Note_off_c, 0, 60, 64
4, 155460, Note_on_c, 0, 56, 51
4, 155505, Note_off_c, 0, 56, 64
4, 155520, Note_on_c, 0, 58, 50
4, 155565, Note_off_c, 0, 58, 64
4, 155580, Note_on_c, 0, 60, 41
4, 155625, Note_off_c, 0, 60, 64
4, 155640, Note_on_c, 0, 58, 50
4, 155685, Note_off_c, 0, 58, 64
4, 155700, Note_on_c, 0, 56, 54
4, 155745, Note_off_c, 0, 56, 64
4, 155760, Note_on_c, 0, 54, 47
4, 155805, Note_off_c, 0, 54, 64
4, 155820, Note_on_c, 0, 49, 50
4, 155865, Note_off_c, 0, 49, 64
4, 155880, Note_on_c, 0, 54, 58
4, 155925, Note_off_c, 0, 54, 64
4, 155940, Note_on_c, 0, 58, 50
4, 155985, Note_off_c, 0, 58, 64
4, 156000, Note_on_c, 0, 61, 62
4, 156045, Note_off_c, 0, 61, 64
4, 156060, Note_on_c, 0, 63, 58
4, 156105, Note_off_c, 0, 63, 64
4, 156120, Note_on_c, 0, 61, 54
4, 156165, Note_off_c, 0, 61, 64
4, 156180, Note_on_c, 0, 60, 52
4, 156225, Note_off_c, 0, 60, 64
4, 156240, Note_on_c, 0, 58, 50
4, 156285, Note_off_c, 0, 58, 64
4, 156300, Note_on_c, 0, 60, 47
4, 156345, Note_off_c, 0, 60, 64
4, 156360, Note_on_c, 0, 61, 59
4, 156405, Note_off_c, 0, 61, 64
4, 156420, Note_on_c, 0, 58, 50
4, 156465, Note_off_c, 0, 58, 64
4, 156480, Note_on_c, 0, 60, 59
4, 156525, Note_off_c, 0, 60, 64
4, 156540, Note_on_c, 0, 61, 59
4, 156585, Note_off_c, 0, 61, 64
4, 156600, Note_on_c, 0, 60, 56
4, 156645, Note_off_c, 0, 60, 64
4, 156660, Note_on_c, 0, 58, 47
4, 156705, Note_off_c, 0, 58, 64
4, 156720, Note_on_c, 0, 57, 62
4, 156765, Note_off_c, 0, 57, 64
4, 156780, Note_on_c, 0, 51, 58
4, 156825, Note_off_c, 0, 51, 64
4, 156840, Note_on_c, 0, 57, 56
4, 156885, Note_off_c, 0, 57, 64
4, 156900, Note_on_c, 0, 60, 52
4, 156945, Note_off_c, 0, 60, 64
4, 156960, Note_on_c, 0, 63, 58
4, 157005, Note_off_c, 0, 63, 64
4, 157020, Note_on_c, 0, 65, 59
4, 157065, Note_off_c, 0, 65, 64
4, 157080, Note_on_c, 0, 63, 58
4, 157125, Note_off_c, 0, 63, 64
4, 157140, Note_on_c, 0, 61, 59
4, 157185, Note_off_c, 0, 61, 64
4, 157200, Note_on_c, 0, 60, 56
4, 157245, Note_off_c, 0, 60, 64
4, 157260, Note_on_c, 0, 61, 59
4, 157305, Note_off_c, 0, 61, 64
4, 157320, Note_on_c, 0, 63, 55
4, 157365, Note_off_c, 0, 63, 64
4, 157380, Note_on_c, 0, 60, 50
4, 157425, Note_off_c, 0, 60, 64
4, 157440, Note_on_c, 0, 61, 62
4, 157485, Note_off_c, 0, 61, 64
4, 157500, Note_on_c, 0, 53, 56
4, 157545, Note_off_c, 0, 53, 64
4, 157560, Note_on_c, 0, 58, 47
4, 157605, Note_off_c, 0, 58, 64
4, 157620, Note_on_c, 0, 61, 51
4, 157665, Note_off_c, 0, 61, 64
4, 157680, Note_on_c, 0, 65, 50
4, 157725, Note_off_c, 0, 65, 64
4, 157740, Note_on_c, 0, 66, 55
4, 157785, Note_off_c, 0, 66, 64
4, 157800, Note_on_c, 0, 65, 47
4, 157845, Note_off_c, 0, 65, 64
4, 157860, Note_on_c, 0, 63, 50
4, 157905, Note_off_c, 0, 63, 64
4, 157920, Note_on_c, 0, 61, 59
4, 157965, Note_off_c, 0, 61, 64
4, 157980, Note_on_c, 0, 60, 39
4, 158025, Note_off_c, 0, 60, 64
4, 158040, Note_on_c, 0, 58, 55
4, 158085, Note_off_c, 0, 58, 64
4, 158100, Note_on_c, 0, 56, 62
4, 158145, Note_off_c, 0, 56, 64
4, 158160, Note_on_c, 0, 54, 63
4, 158205, Note_off_c, 0, 54, 64
4, 158220, Note_on_c, 0, 53, 60
4, 158265, Note_off_c, 0, 53, 64
4, 158280, Note_on_c, 0, 51, 58
4, 158325, Note_off_c, 0, 51, 64
4, 158340, Note_on_c, 0, 49, 58
4, 158385, Note_off_c, 0, 49, 64
4, 158400, Note_on_c, 0, 48, 52
4, 158445, Note_off_c, 0, 48, 64
4, 158460, Note_on_c, 0, 46, 54
4, 158505, Note_off_c, 0, 46, 64
4, 158520, Note_on_c, 0, 44, 50
4, 158565, Note_off_c, 0, 44, 64
4, 158580, Note_on_c, 0, 42, 55
4, 158625, Note_off_c, 0, 42, 64
4, 158640, Note_on_c, 0, 41, 56
4, 158685, Note_off_c, 0, 41, 64
4, 158700, Note_on_c, 0, 39, 63
4, 158745, Note_off_c, 0, 39, 64
4, 158760, Note_on_c, 0, 37, 55
4, 158805, Note_off_c, 0, 37, 64
4, 158820, Note_on_c, 0, 36, 59
4, 158865, Note_off_c, 0, 36, 64
4, 158880, Note_on_c, 0, 34, 51
4, 158925, Note_off_c, 0, 34, 64
4, 158940, Note_on_c, 0, 36, 44
4, 158985, Note_off_c, 0, 36, 64
4, 159000, Note_on_c, 0, 37, 50
4, 159045, Note_off_c, 0, 37, 64
4, 159060, Note_on_c, 0, 36, 52
4, 159105, Note_off_c, 0, 36, 64
4, 159120, Note_on_c, 0, 34, 59
4, 159210, Note_off_c, 0, 34, 64
4, 159240, Note_on_c, 0, 35, 62
4, 159330, Note_off_c, 0, 35, 64
4, 159360, Note_on_c, 0, 36, 52
4, 159420, Note_off_c, 0, 36, 64
4, 159480, Note_on_c, 0, 40, 74
4, 159540, Note_off_c, 0, 40, 64
4, 159600, Note_on_c, 0, 36, 44
4, 159660, Note_off_c, 0, 36, 64
4, 159720, Note_on_c, 0, 41, 72
4, 159780, Note_off_c, 0, 41, 64
4, 159840, Note_on_c, 0, 36, 50
4, 159900, Note_off_c, 0, 36, 64
4, 159960, Note_on_c, 0, 43, 80
4, 160020, Note_off_c, 0, 43, 64
4, 160080, Note_on_c, 0, 36, 44
4, 160140, Note_off_c, 0, 36, 64
4, 160200, Note_on_c, 0, 44, 60
4, 160260, Note_off_c, 0, 44, 64
4, 160320, Note_on_c, 0, 36, 56
4, 160380, Note_off_c, 0, 36, 64
4, 160440, Note_on_c, 0, 46, 80
4, 160500, Note_off_c, 0, 46, 64
4, 160560, Note_on_c, 0, 36, 62
4, 160620, Note_off_c, 0, 36, 64
4, 160680, Note_on_c, 0, 44, 66
4, 160740, Note_off_c, 0, 44, 64
4, 160800, Note_on_c, 0, 36, 56
4, 160860, Note_off_c, 0, 36, 64
4, 160920, Note_on_c, 0, 43, 62
4, 160980, Note_off_c, 0, 43, 64
4, 161040, Note_on_c, 0, 36, 39
4, 161100, Note_off_c, 0, 36, 64
4, 161160, Note_on_c, 0, 41, 67
4, 161220, Note_off_c, 0, 41, 64
4, 161280, Note_on_c, 0, 36, 44
4, 161340, Note_off_c, 0, 36, 64
4, 161400, Note_on_c, 0, 40, 57
4, 161460, Note_off_c, 0, 40, 64
4, 161520, Note_on_c, 0, 36, 48
4, 161580, Note_off_c, 0, 36, 64
4, 161640, Note_on_c, 0, 41, 58
4, 161700, Note_off_c, 0, 41, 64
4, 161760, Note_on_c, 0, 36, 51
4, 161820, Note_off_c, 0, 36, 64
4, 161880, Note_on_c, 0, 43, 67
4, 161940, Note_off_c, 0, 43, 64
4, 162000, Note_on_c, 0, 36, 50
4, 162060, Note_off_c, 0, 36, 64
4, 162120, Note_on_c, 0, 44, 66
4, 162180, Note_off_c, 0, 44, 64
4, 162240, Note_on_c, 0, 36, 52
4, 162300, Note_off_c, 0, 36, 64
4, 162360, Note_on_c, 0, 45, 72
4, 162420, Note_off_c, 0, 45, 64
4, 162480, Note_on_c, 0, 36, 62
4, 162540, Note_off_c, 0, 36, 64
4, 162600, Note_on_c, 0, 46, 80
4, 162660, Note_off_c, 0, 46, 64
4, 162720, Note_on_c, 0, 36, 60
4, 162780, Note_off_c, 0, 36, 64
4, 162840, Note_on_c, 0, 47, 84
4, 162900, Note_off_c, 0, 47, 64
4, 162960, Note_on_c, 0, 36, 76
4, 163020, Note_off_c, 0, 36, 64
4, 163080, Note_on_c, 0, 48, 100
4, 163140, Note_off_c, 0, 48, 64
4, 163200, Note_on_c, 0, 34, 80
4, 163200, Note_on_c, 0, 37, 85
4, 163200, Note_on_c, 0, 42, 85
4, 163200, Note_on_c, 0, 46, 85
4, 163320, Note_off_c, 0, 46, 64
4, 163320, Note_off_c, 0, 42, 64
4, 163320, Note_off_c, 0, 37, 64
4, 163320, Note_off_c, 0, 34, 64
4, 163500, Note_on_c, 0, 46, 59
4, 163560, Note_off_c, 0, 46, 64
4, 163560, Note_on_c, 0, 49, 58
4, 163620, Note_off_c, 0, 49, 64
4, 163620, Note_on_c, 0, 54, 55
4, 163680, Note_off_c, 0, 54, 64
4, 163680, Note_on_c, 0, 58, 58
4, 163800, Note_off_c, 0, 58, 64
4, 163980, Note_on_c, 0, 58, 68
4, 164040, Note_off_c, 0, 58, 64
4, 164040, Note_on_c, 0, 61, 59
4, 164100, Note_off_c, 0, 61, 64
4, 164100, Note_on_c, 0, 66, 58
4, 164160, Note_off_c, 0, 66, 64
4, 164160, Note_on_c, 0, 70, 63
4, 164280, Note_off_c, 0, 70, 64
4, 165120, Note_on_c, 0, 36, 85
4, 165120, Note_on_c, 0, 46, 85
4, 165120, Note_on_c, 0, 48, 85
4, 165120, Note_on_c, 0, 43, 85
4, 165240, Note_off_c, 0, 43, 64
4, 165240, Note_off_c, 0, 48, 64
4, 165240, Note_off_c, 0, 46, 64
4, 165240, Note_off_c, 0, 36, 64
4, 165420, Note_on_c, 0, 48, 59
4, 165480, Note_off_c, 0, 48, 64
4, 165480, Note_on_c, 0, 55, 59
4, 165540, Note_off_c, 0, 55, 64
4, 165540, Note_on_c, 0, 58, 58
4, 165600, Note_off_c, 0, 58, 64
4, 165600, Note_on_c, 0, 60, 67
4, 165720, Note_off_c, 0, 60, 64
4, 165900, Note_on_c, 0, 60, 59
4, 165960, Note_off_c, 0, 60, 64
4, 165960, Note_on_c, 0, 67, 62
4, 166020, Note_off_c, 0, 67, 64
4, 166020, Note_on_c, 0, 70, 55
4, 166080, Note_off_c, 0, 70, 64
4, 166080, Note_on_c, 0, 72, 62
4, 166200, Note_off_c, 0, 72, 64
4, 175200, Note_on_c, 0, 40, 56
4, 175680, Note_off_c, 0, 40, 64
4, 175680, Note_on_c, 0, 37, 68
4, 176160, Note_off_c, 0, 37, 64
4, 176160, Note_on_c, 0, 34, 62
4, 176640, Note_off_c, 0, 34, 64
4, 176640, Note_on_c, 0, 31, 47
4, 177600, Note_off_c, 0, 31, 64
4, 177600, Note_on_c, 0, 36, 52
4, 178560, Note_off_c, 0, 36, 64
4, 180240, Note_on_c, 0, 36, 59
4, 180420, Note_off_c, 0, 36, 64
4, 180420, Note_on_c, 0, 36, 62
4, 180480, Note_off_c, 0, 36, 64
4, 180480, Note_on_c, 0, 41, 74
4, 180480, Note_on_c, 0, 29, 74
4, 180720, Note_off_c, 0, 29, 64
4, 180720, Note_off_c, 0, 41, 64
4, 181440, Note_on_c, 0, 41, 71
4, 181440, Note_on_c, 0, 29, 71
4, 181680, Note_off_c, 0, 29, 64
4, 181680, Note_off_c, 0, 41, 64
4, 181860, Note_on_c, 0, 72, 52
4, 181860, Note_on_c, 0, 68, 55
4, 181920, Note_off_c, 0, 68, 64
4, 181920, Note_off_c, 0, 72, 64
4, 181920, Note_on_c, 0, 68, 75
4, 181920, Note_on_c, 0, 72, 75
4, 182160, Note_off_c, 0, 72, 64
4, 182160, Note_off_c, 0, 68, 64
4, 182160, Note_on_c, 0, 68, 47
4, 182160, Note_on_c, 0, 65, 39
4, 182280, Note_off_c, 0, 65, 64
4, 182280, Note_off_c, 0, 68, 64
4, 182400, Note_on_c, 0, 46, 70
4, 182400, Note_on_c, 0, 34, 59
4, 182640, Note_off_c, 0, 34, 64
4, 182640, Note_off_c, 0, 46, 64
4, 182820, Note_on_c, 0, 73, 63
4, 182820, Note_on_c, 0, 70, 58
4, 182880, Note_off_c, 0, 70, 64
4, 182880, Note_off_c, 0, 73, 64
4, 182880, Note_on_c, 0, 70, 80
4, 182880, Note_on_c, 0, 73, 80
4, 183360, Note_off_c, 0, 73, 64
4, 183360, Note_off_c, 0, 70, 64
4, 183360, Note_on_c, 0, 72, 56
4, 183360, Note_on_c, 0, 70, 47
4, 183420, Note_off_c, 0, 70, 64
4, 183420, Note_off_c, 0, 72, 64
4, 183480, Note_on_c, 0, 36, 56
4, 183480, Note_on_c, 0, 48, 47
4, 183540, Note_off_c, 0, 48, 64
4, 183540, Note_off_c, 0, 36, 64
4, 183720, Note_on_c, 0, 49, 55
4, 183720, Note_on_c, 0, 37, 55
4, 183780, Note_off_c, 0, 37, 64
4, 183780, Note_off_c, 0, 49, 64
4, 183960, Note_on_c, 0, 46, 55
4, 183960, Note_on_c, 0, 34, 59
4, 184020, Note_off_c, 0, 34, 64
4, 184020, Note_off_c, 0, 46, 64
4, 184200, Note_on_c, 0, 36, 59
4, 184200, Note_on_c, 0, 48, 50
4, 184260, Note_off_c, 0, 48, 64
4, 184260, Note_off_c, 0, 36, 64
4, 184320, Note_on_c, 0, 41, 36
4, 184320, Note_on_c, 0, 53, 32
4, 184380, Note_off_c, 0, 53, 64
4, 184380, Note_off_c, 0, 41, 64
4, 184380, Note_on_c, 0, 48, 28
4, 184440, Note_off_c, 0, 48, 64
4, 184440, Note_on_c, 0, 53, 28
4, 184500, Note_off_c, 0, 53, 64
4, 184500, Note_on_c, 0, 56, 35
4, 184560, Note_off_c, 0, 56, 64
4, 184560, Note_on_c, 0, 60, 35
4, 184620, Note_off_c, 0, 60, 64
4, 184620, Note_on_c, 0, 61, 32
4, 184680, Note_off_c, 0, 61, 64
4, 184680, Note_on_c, 0, 60, 26
4, 184740, Note_off_c, 0, 60, 64
4, 184740, Note_on_c, 0, 58, 26
4, 184800, Note_off_c, 0, 58, 64
4, 184800, Note_on_c, 0, 56, 37
4, 184860, Note_off_c, 0, 56, 64
4, 184860, Note_on_c, 0, 58, 30
4, 184920, Note_off_c, 0, 58, 64
4, 184920, Note_on_c, 0, 56, 30
4, 184980, Note_off_c, 0, 56, 64
4, 184980, Note_on_c, 0, 55, 31
4, 185040, Note_off_c, 0, 55, 64
4, 185040, Note_on_c, 0, 53, 33
4, 185100, Note_off_c, 0, 53, 64
4, 185100, Note_on_c, 0, 55, 33
4, 185160, Note_off_c, 0, 55, 64
4, 185160, Note_on_c, 0, 56, 37
4, 185220, Note_off_c, 0, 56, 64
4, 185220, Note_on_c, 0, 53, 27
4, 185280, Note_off_c, 0, 53, 64
4, 185280, Note_on_c, 0, 56, 37
4, 185340, Note_off_c, 0, 56, 64
4, 185340, Note_on_c, 0, 48, 33
4, 185400, Note_off_c, 0, 48, 64
4, 185400, Note_on_c, 0, 53, 33
4, 185460, Note_off_c, 0, 53, 64
4, 185460, Note_on_c, 0, 56, 30
4, 185520, Note_off_c, 0, 56, 64
4, 185520, Note_on_c, 0, 60, 31
4, 185580, Note_off_c, 0, 60, 64
4, 185580, Note_on_c, 0, 61, 30
4, 185640, Note_off_c, 0, 61, 64
4, 185640, Note_on_c, 0, 60, 30
4, 185700, Note_off_c, 0, 60, 64
4, 185700, Note_on_c, 0, 58, 28
4, 185760, Note_off_c, 0, 58, 64
4, 185760, Note_on_c, 0, 56, 35
4, 185820, Note_off_c, 0, 56, 64
4, 185820, Note_on_c, 0, 58, 33
4, 185880, Note_off_c, 0, 58, 64
4, 185880, Note_on_c, 0, 56, 35
4, 185940, Note_off_c, 0, 56, 64
4, 185940, Note_on_c, 0, 55, 37
4, 186000, Note_off_c, 0, 55, 64
4, 186000, Note_on_c, 0, 53, 39
4, 186060, Note_off_c, 0, 53, 64
4, 186060, Note_on_c, 0, 55, 37
4, 186120, Note_off_c, 0, 55, 64
4, 186120, Note_on_c, 0, 56, 43
4, 186180, Note_off_c, 0, 56, 64
4, 186180, Note_on_c, 0, 53, 37
4, 186240, Note_off_c, 0, 53, 64
4, 186240, Note_on_c, 0, 58, 37
4, 186300, Note_off_c, 0, 58, 64
4, 186300, Note_on_c, 0, 49, 40
4, 186360, Note_off_c, 0, 49, 64
4, 186360, Note_on_c, 0, 54, 37
4, 186420, Note_off_c, 0, 54, 64
4, 186420, Note_on_c, 0, 58, 33
4, 186480, Note_off_c, 0, 58, 64
4, 186480, Note_on_c, 0, 61, 37
4, 186540, Note_off_c, 0, 61, 64
4, 186540, Note_on_c, 0, 63, 30
4, 186600, Note_off_c, 0, 63, 64
4, 186600, Note_on_c, 0, 61, 32
4, 186660, Note_off_c, 0, 61, 64
4, 186660, Note_on_c, 0, 60, 28
4, 186720, Note_off_c, 0, 60, 64
4, 186720, Note_on_c, 0, 58, 40
4, 186780, Note_off_c, 0, 58, 64
4, 186780, Note_on_c, 0, 60, 30
4, 186840, Note_off_c, 0, 60, 64
4, 186840, Note_on_c, 0, 58, 28
4, 186900, Note_off_c, 0, 58, 64
4, 186900, Note_on_c, 0, 56, 30
4, 186960, Note_off_c, 0, 56, 64
4, 186960, Note_on_c, 0, 54, 37
4, 187020, Note_off_c, 0, 54, 64
4, 187020, Note_on_c, 0, 56, 35
4, 187080, Note_off_c, 0, 56, 64
4, 187080, Note_on_c, 0, 54, 33
4, 187140, Note_off_c, 0, 54, 64
4, 187140, Note_on_c, 0, 53, 33
4, 187200, Note_off_c, 0, 53, 64
4, 187200, Note_on_c, 0, 52, 40
4, 187260, Note_off_c, 0, 52, 64
4, 187260, Note_on_c, 0, 53, 33
4, 187320, Note_off_c, 0, 53, 64
4, 187320, Note_on_c, 0, 55, 33
4, 187380, Note_off_c, 0, 55, 64
4, 187380, Note_on_c, 0, 56, 37
4, 187440, Note_off_c, 0, 56, 64
4, 187440, Note_on_c, 0, 58, 40
4, 187500, Note_off_c, 0, 58, 64
4, 187500, Note_on_c, 0, 56, 37
4, 187560, Note_off_c, 0, 56, 64
4, 187560, Note_on_c, 0, 55, 33
4, 187620, Note_off_c, 0, 55, 64
4, 187620, Note_on_c, 0, 53, 30
4, 187680, Note_off_c, 0, 53, 64
4, 187680, Note_on_c, 0, 52, 30
4, 187740, Note_off_c, 0, 52, 64
4, 187740, Note_on_c, 0, 53, 32
4, 187800, Note_off_c, 0, 53, 64
4, 187800, Note_on_c, 0, 52, 33
4, 187860, Note_off_c, 0, 52, 64
4, 187860, Note_on_c, 0, 49, 30
4, 187920, Note_off_c, 0, 49, 64
4, 187920, Note_on_c, 0, 48, 28
4, 187980, Note_off_c, 0, 48, 64
4, 187980, Note_on_c, 0, 46, 32
4, 188040, Note_off_c, 0, 46, 64
4, 188040, Note_on_c, 0, 44, 34
4, 188100, Note_off_c, 0, 44, 64
4, 188100, Note_on_c, 0, 43, 35
4, 188160, Note_off_c, 0, 43, 64
4, 188160, Note_on_c, 0, 41, 71
4, 188400, Note_off_c, 0, 41, 64
4, 188580, Note_on_c, 0, 56, 62
4, 188580, Note_on_c, 0, 53, 56
4, 188640, Note_off_c, 0, 53, 64
4, 188640, Note_off_c, 0, 56, 64
4, 188640, Note_on_c, 0, 56, 72
4, 188640, Note_on_c, 0, 53, 71
4, 188880, Note_off_c, 0, 53, 64
4, 188880, Note_off_c, 0, 56, 64
4, 189060, Note_on_c, 0, 56, 62
4, 189060, Note_on_c, 0, 53, 56
4, 189120, Note_off_c, 0, 53, 64
4, 189120, Note_off_c, 0, 56, 64
4, 189120, Note_on_c, 0, 53, 85
4, 189120, Note_on_c, 0, 56, 85
4, 189120, Note_on_c, 0, 48, 80
4, 189600, Note_off_c, 0, 48, 64
4, 189600, Note_off_c, 0, 56, 64
4, 189600, Note_off_c, 0, 53, 64
4, 189600, Note_on_c, 0, 55, 56
4, 189600, Note_on_c, 0, 52, 52
4, 189600, Note_on_c, 0, 48, 41
4, 189720, Note_off_c, 0, 48, 64
4, 189720, Note_off_c, 0, 52, 64
4, 189720, Note_off_c, 0, 55, 64
4, 190080, Note_on_c, 0, 36, 67
4, 190080, Note_on_c, 0, 48, 62
4, 190320, Note_off_c, 0, 48, 64
4, 190320, Note_off_c, 0, 36, 64
4, 190500, Note_on_c, 0, 58, 63
4, 190500, Note_on_c, 0, 55, 67
4, 190560, Note_off_c, 0, 55, 64
4, 190560, Note_off_c, 0, 58, 64
4, 190560, Note_on_c, 0, 58, 63
4, 190560, Note_on_c, 0, 55, 67
4, 190800, Note_off_c, 0, 55, 64
4, 190800, Note_off_c, 0, 58, 64
4, 190980, Note_on_c, 0, 58, 44
4, 190980, Note_on_c, 0, 55, 56
4, 191040, Note_off_c, 0, 55, 64
4, 191040, Note_off_c, 0, 58, 64
4, 191040, Note_on_c, 0, 53, 80
4, 191040, Note_on_c, 0, 55, 80
4, 191040, Note_on_c, 0, 58, 85
4, 191520, Note_off_c, 0, 58, 64
4, 191520, Note_off_c, 0, 55, 64
4, 191520, Note_off_c, 0, 53, 64
4, 191520, Note_on_c, 0, 53, 56
4, 191520, Note_on_c, 0, 56, 39
4, 191640, Note_off_c, 0, 56, 64
4, 191640, Note_off_c, 0, 53, 64
4, 192000, Note_on_c, 0, 41, 60
4, 192000, Note_on_c, 0, 53, 60
4, 192240, Note_off_c, 0, 53, 64
4, 192240, Note_off_c, 0, 41, 64
4, 192420, Note_on_c, 0, 63, 68
4, 192420, Note_on_c, 0, 60, 59
4, 192480, Note_off_c, 0, 60, 64
4, 192480, Note_off_c, 0, 63, 64
4, 192480, Note_on_c, 0, 63, 74
4, 192480, Note_on_c, 0, 60, 67
4, 192720, Note_off_c, 0, 60, 64
4, 192720, Note_off_c, 0, 63, 64
4, 192900, Note_on_c, 0, 63, 55
4, 192900, Note_on_c, 0, 60, 52
4, 192960, Note_off_c, 0, 60, 64
4, 192960, Note_off_c, 0, 63, 64
4, 192960, Note_on_c, 0, 58, 85
4, 192960, Note_on_c, 0, 60, 85
4, 192960, Note_on_c, 0, 63, 85
4, 193508, Note_off_c, 0, 63, 64
4, 193508, Note_off_c, 0, 60, 64
4, 193512, Note_off_c, 0, 58, 64
4, 193560, Note_on_c, 0, 61, 47
4, 193560, Note_on_c, 0, 58, 38
4, 193680, Note_off_c, 0, 58, 64
4, 193680, Note_off_c, 0, 61, 64
4, 193680, Note_on_c, 0, 56, 54
4, 193680, Note_on_c, 0, 60, 39
4, 193800, Note_off_c, 0, 60, 64
4, 193800, Note_off_c, 0, 56, 64
4, 193800, Note_on_c, 0, 55, 47
4, 193800, Note_on_c, 0, 58, 47
4, 193920, Note_off_c, 0, 58, 64
4, 193920, Note_off_c, 0, 55, 64
4, 193920, Note_on_c, 0, 56, 67
4, 193920, Note_on_c, 0, 48, 56
4, 193920, Note_on_c, 0, 53, 60
4, 194160, Note_off_c, 0, 53, 64
4, 194160, Note_off_c, 0, 48, 64
4, 194160, Note_off_c, 0, 56, 64
4, 194340, Note_on_c, 0, 53, 56
4, 194340, Note_on_c, 0, 56, 54
4, 194400, Note_off_c, 0, 56, 64
4, 194400, Note_off_c, 0, 53, 64
4, 194400, Note_on_c, 0, 48, 62
4, 194400, Note_on_c, 0, 58, 58
4, 194400, Note_on_c, 0, 55, 62
4, 194640, Note_off_c, 0, 55, 64
4, 194640, Note_off_c, 0, 58, 64
4, 194640, Note_off_c, 0, 48, 64
4, 194820, Note_on_c, 0, 55, 50
4, 194820, Note_on_c, 0, 52, 59
4, 194880, Note_off_c, 0, 52, 64
4, 194880, Note_off_c, 0, 55, 64
4, 194880, Note_on_c, 0, 53, 24
4, 194940, Note_off_c, 0, 53, 64
4, 194940, Note_on_c, 0, 60, 32
4, 195000, Note_off_c, 0, 60, 64
4, 195000, Note_on_c, 0, 56, 48
4, 195060, Note_off_c, 0, 56, 64
4, 195060, Note_on_c, 0, 53, 45
4, 195120, Note_off_c, 0, 53, 64
4, 195120, Note_on_c, 0, 48, 52
4, 195180, Note_off_c, 0, 48, 64
4, 195180, Note_on_c, 0, 56, 44
4, 195240, Note_off_c, 0, 56, 64
4, 195240, Note_on_c, 0, 53, 54
4, 195300, Note_off_c, 0, 53, 64
4, 195300, Note_on_c, 0, 48, 39
4, 195360, Note_off_c, 0, 48, 64
4, 195360, Note_on_c, 0, 44, 55
4, 195420, Note_off_c, 0, 44, 64
4, 195420, Note_on_c, 0, 53, 54
4, 195480, Note_off_c, 0, 53, 64
4, 195480, Note_on_c, 0, 48, 44
4, 195540, Note_off_c, 0, 48, 64
4, 195540, Note_on_c, 0, 44, 50
4, 195600, Note_off_c, 0, 44, 64
4, 195600, Note_on_c, 0, 41, 60
4, 195660, Note_off_c, 0, 41, 64
4, 195660, Note_on_c, 0, 48, 44
4, 195720, Note_off_c, 0, 48, 64
4, 195720, Note_on_c, 0, 44, 55
4, 195780, Note_off_c, 0, 44, 64
4, 195780, Note_on_c, 0, 41, 43
4, 195840, Note_off_c, 0, 41, 64
4, 195840, Note_on_c, 0, 36, 47
4, 195900, Note_off_c, 0, 36, 64
4, 195900, Note_on_c, 0, 41, 63
4, 195960, Note_off_c, 0, 41, 64
4, 195960, Note_on_c, 0, 44, 55
4, 196020, Note_off_c, 0, 44, 64
4, 196020, Note_on_c, 0, 48, 44
4, 196080, Note_off_c, 0, 48, 64
4, 196080, Note_on_c, 0, 47, 50
4, 196140, Note_off_c, 0, 47, 64
4, 196140, Note_on_c, 0, 48, 41
4, 196200, Note_off_c, 0, 48, 64
4, 196200, Note_on_c, 0, 47, 41
4, 196260, Note_off_c, 0, 47, 64
4, 196260, Note_on_c, 0, 48, 41
4, 196320, Note_off_c, 0, 48, 64
4, 196320, Note_on_c, 0, 47, 56
4, 196380, Note_off_c, 0, 47, 64
4, 196380, Note_on_c, 0, 48, 44
4, 196440, Note_off_c, 0, 48, 64
4, 196440, Note_on_c, 0, 43, 59
4, 196500, Note_off_c, 0, 43, 64
4, 196500, Note_on_c, 0, 48, 32
4, 196560, Note_off_c, 0, 48, 64
4, 196560, Note_on_c, 0, 40, 41
4, 196620, Note_off_c, 0, 40, 64
4, 196620, Note_on_c, 0, 48, 32
4, 196680, Note_off_c, 0, 48, 64
4, 196680, Note_on_c, 0, 43, 52
4, 196740, Note_off_c, 0, 43, 64
4, 196740, Note_on_c, 0, 48, 47
4, 196800, Note_off_c, 0, 48, 64
4, 196800, Note_on_c, 0, 36, 52
4, 196860, Note_off_c, 0, 36, 64
4, 196860, Note_on_c, 0, 40, 56
4, 196920, Note_off_c, 0, 40, 64
4, 196920, Note_on_c, 0, 43, 52
4, 196980, Note_off_c, 0, 43, 64
4, 196980, Note_on_c, 0, 48, 44
4, 197040, Note_off_c, 0, 48, 64
4, 197040, Note_on_c, 0, 40, 56
4, 197100, Note_off_c, 0, 40, 64
4, 197100, Note_on_c, 0, 43, 47
4, 197160, Note_off_c, 0, 43, 64
4, 197160, Note_on_c, 0, 48, 56
4, 197220, Note_off_c, 0, 48, 64
4, 197220, Note_on_c, 0, 52, 52
4, 197280, Note_off_c, 0, 52, 64
4, 197280, Note_on_c, 0, 43, 47
4, 197340, Note_off_c, 0, 43, 64
4, 197340, Note_on_c, 0, 48, 35
4, 197400, Note_off_c, 0, 48, 64
4, 197400, Note_on_c, 0, 52, 40
4, 197460, Note_off_c, 0, 52, 64
4, 197460, Note_on_c, 0, 55, 40
4, 197520, Note_off_c, 0, 55, 64
4, 197520, Note_on_c, 0, 48, 41
4, 197580, Note_off_c, 0, 48, 64
4, 197580, Note_on_c, 0, 52, 41
4, 197640, Note_off_c, 0, 52, 64
4, 197640, Note_on_c, 0, 55, 37
4, 197700, Note_off_c, 0, 55, 64
4, 197700, Note_on_c, 0, 60, 35
4, 197760, Note_off_c, 0, 60, 64
4, 197760, Note_on_c, 0, 53, 44
4, 197820, Note_off_c, 0, 53, 64
4, 197820, Note_on_c, 0, 56, 40
4, 197880, Note_off_c, 0, 56, 64
4, 197880, Note_on_c, 0, 60, 31
4, 197940, Note_off_c, 0, 60, 64
4, 197940, Note_on_c, 0, 65, 37
4, 198000, Note_off_c, 0, 65, 64
4, 198000, Note_on_c, 0, 64, 37
4, 198060, Note_off_c, 0, 64, 64
4, 198060, Note_on_c, 0, 65, 27
4, 198120, Note_off_c, 0, 65, 64
4, 198120, Note_on_c, 0, 64, 41
4, 198180, Note_off_c, 0, 64, 64
4, 198180, Note_on_c, 0, 65, 27
4, 198240, Note_off_c, 0, 65, 64
4, 198240, Note_on_c, 0, 64, 39
4, 198300, Note_off_c, 0, 64, 64
4, 198300, Note_on_c, 0, 65, 40
4, 198360, Note_off_c, 0, 65, 64
4, 198360, Note_on_c, 0, 60, 37
4, 198420, Note_off_c, 0, 60, 64
4, 198420, Note_on_c, 0, 65, 35
4, 198480, Note_off_c, 0, 65, 64
4, 198480, Note_on_c, 0, 56, 43
4, 198540, Note_off_c, 0, 56, 64
4, 198540, Note_on_c, 0, 65, 37
4, 198600, Note_off_c, 0, 65, 64
4, 198600, Note_on_c, 0, 60, 40
4, 198660, Note_off_c, 0, 60, 64
4, 198660, Note_on_c, 0, 65, 37
4, 198720, Note_off_c, 0, 65, 64
4, 198720, Note_on_c, 0, 53, 48
4, 198780, Note_off_c, 0, 53, 64
4, 198780, Note_on_c, 0, 57, 31
4, 198840, Note_off_c, 0, 57, 64
4, 198840, Note_on_c, 0, 60, 37
4, 198900, Note_off_c, 0, 60, 64
4, 198900, Note_on_c, 0, 65, 37
4, 198960, Note_off_c, 0, 65, 64
4, 198960, Note_on_c, 0, 57, 41
4, 199020, Note_off_c, 0, 57, 64
4, 199020, Note_on_c, 0, 60, 41
4, 199080, Note_off_c, 0, 60, 64
4, 199080, Note_on_c, 0, 65, 40
4, 199140, Note_off_c, 0, 65, 64
4, 199140, Note_on_c, 0, 69, 37
4, 199200, Note_off_c, 0, 69, 64
4, 199200, Note_on_c, 0, 60, 41
4, 199260, Note_off_c, 0, 60, 64
4, 199260, Note_on_c, 0, 65, 40
4, 199320, Note_off_c, 0, 65, 64
4, 199320, Note_on_c, 0, 69, 40
4, 199380, Note_off_c, 0, 69, 64
4, 199380, Note_on_c, 0, 72, 47
4, 199440, Note_off_c, 0, 72, 64
4, 199440, Note_on_c, 0, 65, 47
4, 199500, Note_off_c, 0, 65, 64
4, 199500, Note_on_c, 0, 69, 44
4, 199560, Note_off_c, 0, 69, 64
4, 199560, Note_on_c, 0, 72, 47
4, 199620, Note_off_c, 0, 72, 64
4, 199620, Note_on_c, 0, 77, 49
4, 199680, Note_off_c, 0, 77, 64
4, 199680, Note_on_c, 0, 69, 47
4, 199740, Note_off_c, 0, 69, 64
4, 199740, Note_on_c, 0, 77, 40
4, 199800, Note_off_c, 0, 77, 64
4, 199800, Note_on_c, 0, 76, 35
4, 199860, Note_off_c, 0, 76, 64
4, 199860, Note_on_c, 0, 77, 44
4, 199920, Note_off_c, 0, 77, 64
4, 199920, Note_on_c, 0, 69, 41
4, 199980, Note_off_c, 0, 69, 64
4, 199980, Note_on_c, 0, 77, 41
4, 200040, Note_off_c, 0, 77, 64
4, 200040, Note_on_c, 0, 69, 44
4, 200100, Note_off_c, 0, 69, 64
4, 200100, Note_on_c, 0, 77, 41
4, 200160, Note_off_c, 0, 77, 64
4, 200160, Note_on_c, 0, 69, 49
4, 200220, Note_off_c, 0, 69, 64
4, 200220, Note_on_c, 0, 77, 44
4, 200280, Note_off_c, 0, 77, 64
4, 200280, Note_on_c, 0, 70, 44
4, 200340, Note_off_c, 0, 70, 64
4, 200340, Note_on_c, 0, 77, 35
4, 200400, Note_off_c, 0, 77, 64
4, 200400, Note_on_c, 0, 72, 47
4, 200460, Note_off_c, 0, 72, 64
4, 200460, Note_on_c, 0, 77, 41
4, 200520, Note_off_c, 0, 77, 64
4, 200520, Note_on_c, 0, 73, 50
4, 200580, Note_off_c, 0, 73, 64
4, 200580, Note_on_c, 0, 77, 44
4, 200640, Note_off_c, 0, 77, 64
4, 200640, Note_on_c, 0, 60, 40
4, 200700, Note_off_c, 0, 60, 64
4, 200700, Note_on_c, 0, 65, 37
4, 200760, Note_off_c, 0, 65, 64
4, 200760, Note_on_c, 0, 68, 40
4, 200820, Note_off_c, 0, 68, 64
4, 200820, Note_on_c, 0, 72, 44
4, 200880, Note_off_c, 0, 72, 64
4, 200880, Note_on_c, 0, 71, 40
4, 200940, Note_off_c, 0, 71, 64
4, 200940, Note_on_c, 0, 72, 44
4, 201000, Note_off_c, 0, 72, 64
4, 201000, Note_on_c, 0, 71, 37
4, 201060, Note_off_c, 0, 71, 64
4, 201060, Note_on_c, 0, 72, 44
4, 201120, Note_off_c, 0, 72, 64
4, 201120, Note_on_c, 0, 60, 44
4, 201180, Note_off_c, 0, 60, 64
4, 201180, Note_on_c, 0, 64, 39
4, 201240, Note_off_c, 0, 64, 64
4, 201240, Note_on_c, 0, 67, 41
4, 201300, Note_off_c, 0, 67, 64
4, 201300, Note_on_c, 0, 72, 41
4, 201360, Note_off_c, 0, 72, 64
4, 201360, Note_on_c, 0, 60, 41
4, 201420, Note_off_c, 0, 60, 64
4, 201420, Note_on_c, 0, 64, 32
4, 201480, Note_off_c, 0, 64, 64
4, 201480, Note_on_c, 0, 70, 37
4, 201540, Note_off_c, 0, 70, 64
4, 201540, Note_on_c, 0, 72, 40
4, 201600, Note_off_c, 0, 72, 64
4, 201600, Note_on_c, 0, 53, 32
4, 201645, Note_off_c, 0, 53, 64
4, 201660, Note_on_c, 0, 65, 27
4, 201660, Note_on_c, 0, 68, 35
4, 201705, Note_off_c, 0, 68, 64
4, 201705, Note_off_c, 0, 65, 64
4, 201720, Note_on_c, 0, 60, 32
4, 201720, Note_on_c, 0, 72, 31
4, 201765, Note_off_c, 0, 72, 64
4, 201765, Note_off_c, 0, 60, 64
4, 201780, Note_on_c, 0, 65, 31
4, 201780, Note_on_c, 0, 68, 25
4, 201825, Note_off_c, 0, 68, 64
4, 201825, Note_off_c, 0, 65, 64
4, 201840, Note_on_c, 0, 60, 44
4, 201840, Note_on_c, 0, 72, 40
4, 201885, Note_off_c, 0, 72, 64
4, 201885, Note_off_c, 0, 60, 64
4, 201900, Note_on_c, 0, 65, 31
4, 201900, Note_on_c, 0, 68, 28
4, 201945, Note_off_c, 0, 68, 64
4, 201945, Note_off_c, 0, 65, 64
4, 201960, Note_on_c, 0, 60, 40
4, 201960, Note_on_c, 0, 72, 35
4, 202005, Note_off_c, 0, 72, 64
4, 202005, Note_off_c, 0, 60, 64
4, 202020, Note_on_c, 0, 65, 31
4, 202020, Note_on_c, 0, 68, 28
4, 202065, Note_off_c, 0, 68, 64
4, 202065, Note_off_c, 0, 65, 64
4, 202080, Note_on_c, 0, 60, 35
4, 202080, Note_on_c, 0, 72, 35
4, 202125, Note_off_c, 0, 72, 64
4, 202125, Note_off_c, 0, 60, 64
4, 202140, Note_on_c, 0, 65, 31
4, 202140, Note_on_c, 0, 68, 28
4, 202185, Note_off_c, 0, 68, 64
4, 202185, Note_off_c, 0, 65, 64
4, 202200, Note_on_c, 0, 60, 35
4, 202200, Note_on_c, 0, 72, 28
4, 202245, Note_off_c, 0, 72, 64
4, 202245, Note_off_c, 0, 60, 64
4, 202260, Note_on_c, 0, 68, 30
4, 202260, Note_on_c, 0, 65, 31
4, 202305, Note_off_c, 0, 65, 64
4, 202305, Note_off_c, 0, 68, 64
4, 202320, Note_on_c, 0, 60, 47
4, 202320, Note_on_c, 0, 72, 44
4, 202365, Note_off_c, 0, 72, 64
4, 202365, Note_off_c, 0, 60, 64
4, 202380, Note_on_c, 0, 65, 28
4, 202380, Note_on_c, 0, 68, 12
4, 202425, Note_off_c, 0, 68, 64
4, 202425, Note_off_c, 0, 65, 64
4, 202440, Note_on_c, 0, 72, 28
4, 202440, Note_on_c, 0, 60, 32
4, 202485, Note_off_c, 0, 60, 64
4, 202485, Note_off_c, 0, 72, 64
4, 202500, Note_on_c, 0, 68, 28
4, 202500, Note_on_c, 0, 65, 23
4, 202545, Note_off_c, 0, 65, 64
4, 202545, Note_off_c, 0, 68, 64
4, 202560, Note_on_c, 0, 53, 34
4, 202605, Note_off_c, 0, 53, 64
4, 202620, Note_on_c, 0, 65, 40
4, 202620, Note_on_c, 0, 68, 28
4, 202665, Note_off_c, 0, 68, 64
4, 202665, Note_off_c, 0, 65, 64
4, 202680, Note_on_c, 0, 60, 35
4, 202680, Note_on_c, 0, 72, 37
4, 202725, Note_off_c, 0, 72, 64
4, 202725, Note_off_c, 0, 60, 64
4, 202740, Note_on_c, 0, 65, 35
4, 202740, Note_on_c, 0, 68, 35
4, 202785, Note_off_c, 0, 68, 64
4, 202785, Note_off_c, 0, 65, 64
4, 202800, Note_on_c, 0, 60, 40
4, 202800, Note_on_c, 0, 72, 35
4, 202845, Note_off_c, 0, 72, 64
4, 202845, Note_off_c, 0, 60, 64
4, 202860, Note_on_c, 0, 65, 28
4, 202860, Note_on_c, 0, 68, 21
4, 202905, Note_off_c, 0, 68, 64
4, 202905, Note_off_c, 0, 65, 64
4, 202920, Note_on_c, 0, 60, 40
4, 202920, Note_on_c, 0, 72, 32
4, 202965, Note_off_c, 0, 72, 64
4, 202965, Note_off_c, 0, 60, 64
4, 202980, Note_on_c, 0, 65, 31
4, 202980, Note_on_c, 0, 68, 8
4, 203025, Note_off_c, 0, 68, 64
4, 203025, Note_off_c, 0, 65, 64
4, 203040, Note_on_c, 0, 60, 44
4, 203040, Note_on_c, 0, 72, 41
4, 203085, Note_off_c, 0, 72, 64
4, 203085, Note_off_c, 0, 60, 64
4, 203100, Note_on_c, 0, 65, 32
4, 203100, Note_on_c, 0, 68, 21
4, 203145, Note_off_c, 0, 68, 64
4, 203145, Note_off_c, 0, 65, 64
4, 203160, Note_on_c, 0, 72, 32
4, 203160, Note_on_c, 0, 60, 31
4, 203205, Note_off_c, 0, 60, 64
4, 203205, Note_off_c, 0, 72, 64
4, 203220, Note_on_c, 0, 65, 28
4, 203220, Note_on_c, 0, 68, 13
4, 203265, Note_off_c, 0, 68, 64
4, 203265, Note_off_c, 0, 65, 64
4, 203280, Note_on_c, 0, 60, 37
4, 203280, Note_on_c, 0, 72, 28
4, 203325, Note_off_c, 0, 72, 64
4, 203325, Note_off_c, 0, 60, 64
4, 203340, Note_on_c, 0, 68, 23
4, 203340, Note_on_c, 0, 65, 35
4, 203385, Note_off_c, 0, 65, 64
4, 203385, Note_off_c, 0, 68, 64
4, 203400, Note_on_c, 0, 72, 35
4, 203400, Note_on_c, 0, 60, 37
4, 203445, Note_off_c, 0, 60, 64
4, 203445, Note_off_c, 0, 72, 64
4, 203460, Note_on_c, 0, 65, 27
4, 203460, Note_on_c, 0, 68, 19
4, 203505, Note_off_c, 0, 68, 64
4, 203505, Note_off_c, 0, 65, 64
4, 203520, Note_on_c, 0, 45, 27
4, 203565, Note_off_c, 0, 45, 64
4, 203580, Note_on_c, 0, 54, 35
4, 203580, Note_on_c, 0, 56, 26
4, 203625, Note_off_c, 0, 56, 64
4, 203625, Note_off_c, 0, 54, 64
4, 203640, Note_on_c, 0, 51, 46
4, 203640, Note_on_c, 0, 60, 31
4, 203685, Note_off_c, 0, 60, 64
4, 203685, Note_off_c, 0, 51, 64
4, 203700, Note_on_c, 0, 54, 32
4, 203700, Note_on_c, 0, 56, 24
4, 203745, Note_off_c, 0, 56, 64
4, 203745, Note_off_c, 0, 54, 64
4, 203760, Note_on_c, 0, 51, 46
4, 203760, Note_on_c, 0, 60, 40
4, 203805, Note_off_c, 0, 60, 64
4, 203805, Note_off_c, 0, 51, 64
4, 203820, Note_on_c, 0, 54, 32
4, 203820, Note_on_c, 0, 56, 33
4, 203865, Note_off_c, 0, 56, 64
4, 203865, Note_off_c, 0, 54, 64
4, 203880, Note_on_c, 0, 51, 44
4, 203880, Note_on_c, 0, 60, 28
4, 203925, Note_off_c, 0, 60, 64
4, 203925, Note_off_c, 0, 51, 64
4, 203940, Note_on_c, 0, 54, 23
4, 203940, Note_on_c, 0, 56, 20
4, 203985, Note_off_c, 0, 56, 64
4, 203985, Note_off_c, 0, 54, 64
4, 204000, Note_on_c, 0, 60, 24
4, 204000, Note_on_c, 0, 51, 30
4, 204045, Note_off_c, 0, 51, 64
4, 204045, Note_off_c, 0, 60, 64
4, 204060, Note_on_c, 0, 54, 23
4, 204060, Note_on_c, 0, 56, 22
4, 204105, Note_off_c, 0, 56, 64
4, 204105, Note_off_c, 0, 54, 64
4, 204120, Note_on_c, 0, 51, 37
4, 204120, Note_on_c, 0, 60, 32
4, 204165, Note_off_c, 0, 60, 64
4, 204165, Note_off_c, 0, 51, 64
4, 204180, Note_on_c, 0, 56, 22
4, 204180, Note_on_c, 0, 54, 23
4, 204225, Note_off_c, 0, 54, 64
4, 204225, Note_off_c, 0, 56, 64
4, 204240, Note_on_c, 0, 51, 37
4, 204240, Note_on_c, 0, 60, 28
4, 204285, Note_off_c, 0, 60, 64
4, 204285, Note_off_c, 0, 51, 64
4, 204300, Note_on_c, 0, 56, 26
4, 204300, Note_on_c, 0, 54, 23
4, 204345, Note_off_c, 0, 54, 64
4, 204345, Note_off_c, 0, 56, 64
4, 204360, Note_on_c, 0, 51, 37
4, 204360, Note_on_c, 0, 60, 25
4, 204405, Note_off_c, 0, 60, 64
4, 204405, Note_off_c, 0, 51, 64
4, 204420, Note_on_c, 0, 54, 30
4, 204420, Note_on_c, 0, 56, 24
4, 204465, Note_off_c, 0, 56, 64
4, 204465, Note_off_c, 0, 54, 64
4, 204480, Note_on_c, 0, 44, 40
4, 204525, Note_off_c, 0, 44, 64
4, 204540, Note_on_c, 0, 54, 32
4, 204540, Note_on_c, 0, 56, 24
4, 204585, Note_off_c, 0, 56, 64
4, 204585, Note_off_c, 0, 54, 64
4, 204600, Note_on_c, 0, 51, 37
4, 204600, Note_on_c, 0, 60, 27
4, 204645, Note_off_c, 0, 60, 64
4, 204645, Note_off_c, 0, 51, 64
4, 204660, Note_on_c, 0, 56, 35
4, 204660, Note_on_c, 0, 54, 30
4, 204705, Note_off_c, 0, 54, 64
4, 204705, Note_off_c, 0, 56, 64
4, 204720, Note_on_c, 0, 51, 40
4, 204720, Note_on_c, 0, 60, 28
4, 204765, Note_off_c, 0, 60, 64
4, 204765, Note_off_c, 0, 51, 64
4, 204780, Note_on_c, 0, 56, 33
4, 204780, Note_on_c, 0, 54, 30
4, 204825, Note_off_c, 0, 54, 64
4, 204825, Note_off_c, 0, 56, 64
4, 204840, Note_on_c, 0, 51, 35
4, 204840, Note_on_c, 0, 60, 23
4, 204885, Note_off_c, 0, 60, 64
4, 204885, Note_off_c, 0, 51, 64
4, 204900, Note_on_c, 0, 56, 33
4, 204900, Note_on_c, 0, 54, 32
4, 204945, Note_off_c, 0, 54, 64
4, 204945, Note_off_c, 0, 56, 64
4, 204960, Note_on_c, 0, 60, 31
4, 204960, Note_on_c, 0, 51, 37
4, 205005, Note_off_c, 0, 51, 64
4, 205005, Note_off_c, 0, 60, 64
4, 205020, Note_on_c, 0, 54, 23
4, 205020, Note_on_c, 0, 56, 20
4, 205065, Note_off_c, 0, 56, 64
4, 205065, Note_off_c, 0, 54, 64
4, 205080, Note_on_c, 0, 51, 37
4, 205080, Note_on_c, 0, 60, 25
4, 205125, Note_off_c, 0, 60, 64
4, 205125, Note_off_c, 0, 51, 64
4, 205140, Note_on_c, 0, 56, 35
4, 205140, Note_on_c, 0, 54, 16
4, 205185, Note_off_c, 0, 54, 64
4, 205185, Note_off_c, 0, 56, 64
4, 205200, Note_on_c, 0, 51, 40
4, 205200, Note_on_c, 0, 60, 25
4, 205245, Note_off_c, 0, 60, 64
4, 205245, Note_off_c, 0, 51, 64
4, 205260, Note_on_c, 0, 54, 44
4, 205260, Note_on_c, 0, 56, 16
4, 205305, Note_off_c, 0, 56, 64
4, 205305, Note_off_c, 0, 54, 64
4, 205320, Note_on_c, 0, 51, 32
4, 205320, Note_on_c, 0, 60, 20
4, 205365, Note_off_c, 0, 60, 64
4, 205365, Note_off_c, 0, 51, 64
4, 205380, Note_on_c, 0, 56, 22
4, 205380, Note_on_c, 0, 54, 21
4, 205425, Note_off_c, 0, 54, 64
4, 205425, Note_off_c, 0, 56, 64
4, 205440, Note_on_c, 0, 49, 35
4, 205485, Note_off_c, 0, 49, 64
4, 205500, Note_on_c, 0, 61, 31
4, 205500, Note_on_c, 0, 65, 28
4, 205545, Note_off_c, 0, 65, 64
4, 205545, Note_off_c, 0, 61, 64
4, 205560, Note_on_c, 0, 68, 35
4, 205560, Note_on_c, 0, 56, 35
4, 205605, Note_off_c, 0, 56, 64
4, 205605, Note_off_c, 0, 68, 64
4, 205620, Note_on_c, 0, 61, 28
4, 205620, Note_on_c, 0, 65, 20
4, 205665, Note_off_c, 0, 65, 64
4, 205665, Note_off_c, 0, 61, 64
4, 205680, Note_on_c, 0, 68, 44
4, 205680, Note_on_c, 0, 56, 47
4, 205725, Note_off_c, 0, 56, 64
4, 205725, Note_off_c, 0, 68, 64
4, 205740, Note_on_c, 0, 61, 35
4, 205740, Note_on_c, 0, 65, 8
4, 205785, Note_off_c, 0, 65, 64
4, 205785, Note_off_c, 0, 61, 64
4, 205800, Note_on_c, 0, 56, 35
4, 205800, Note_on_c, 0, 68, 21
4, 205845, Note_off_c, 0, 68, 64
4, 205845, Note_off_c, 0, 56, 64
4, 205860, Note_on_c, 0, 61, 38
4, 205860, Note_on_c, 0, 65, 27
4, 205905, Note_off_c, 0, 65, 64
4, 205905, Note_off_c, 0, 61, 64
4, 205920, Note_on_c, 0, 68, 50
4, 205920, Note_on_c, 0, 56, 59
4, 205965, Note_off_c, 0, 56, 64
4, 205965, Note_off_c, 0, 68, 64
4, 205980, Note_on_c, 0, 65, 41
4, 205980, Note_on_c, 0, 61, 31
4, 206025, Note_off_c, 0, 61, 64
4, 206025, Note_off_c, 0, 65, 64
4, 206040, Note_on_c, 0, 68, 47
4, 206040, Note_on_c, 0, 56, 48
4, 206085, Note_off_c, 0, 56, 64
4, 206085, Note_off_c, 0, 68, 64
4, 206100, Note_on_c, 0, 61, 44
4, 206100, Note_on_c, 0, 65, 26
4, 206145, Note_off_c, 0, 65, 64
4, 206145, Note_off_c, 0, 61, 64
4, 206160, Note_on_c, 0, 68, 55
4, 206160, Note_on_c, 0, 56, 59
4, 206205, Note_off_c, 0, 56, 64
4, 206205, Note_off_c, 0, 68, 64
4, 206220, Note_on_c, 0, 65, 31
4, 206220, Note_on_c, 0, 61, 36
4, 206265, Note_off_c, 0, 61, 64
4, 206265, Note_off_c, 0, 65, 64
4, 206280, Note_on_c, 0, 68, 55
4, 206280, Note_on_c, 0, 56, 48
4, 206325, Note_off_c, 0, 56, 64
4, 206325, Note_off_c, 0, 68, 64
4, 206340, Note_on_c, 0, 61, 44
4, 206340, Note_on_c, 0, 65, 34
4, 206385, Note_off_c, 0, 65, 64
4, 206385, Note_off_c, 0, 61, 64
4, 206400, Note_on_c, 0, 49, 40
4, 206445, Note_off_c, 0, 49, 64
4, 206460, Note_on_c, 0, 61, 51
4, 206460, Note_on_c, 0, 65, 34
4, 206505, Note_off_c, 0, 65, 64
4, 206505, Note_off_c, 0, 61, 64
4, 206520, Note_on_c, 0, 68, 40
4, 206520, Note_on_c, 0, 56, 42
4, 206565, Note_off_c, 0, 56, 64
4, 206565, Note_off_c, 0, 68, 64
4, 206580, Note_on_c, 0, 61, 33
4, 206580, Note_on_c, 0, 65, 15
4, 206625, Note_off_c, 0, 65, 64
4, 206625, Note_off_c, 0, 61, 64
4, 206640, Note_on_c, 0, 68, 50
4, 206700, Note_off_c, 0, 68, 64
4, 206760, Note_on_c, 0, 73, 47
4, 206820, Note_off_c, 0, 73, 64
4, 206880, Note_on_c, 0, 77, 50
4, 206940, Note_off_c, 0, 77, 64
4, 207000, Note_on_c, 0, 80, 47
4, 207060, Note_off_c, 0, 80, 64
4, 207120, Note_on_c, 0, 85, 44
4, 207180, Note_off_c, 0, 85, 64
4, 207240, Note_on_c, 0, 85, 38
4, 207300, Note_off_c, 0, 85, 64
4, 207360, Note_on_c, 0, 85, 63
4, 207360, Note_on_c, 0, 82, 58
4, 207720, Note_off_c, 0, 82, 64
4, 207720, Note_off_c, 0, 85, 64
4, 207720, Note_on_c, 0, 84, 52
4, 207720, Note_on_c, 0, 80, 44
4, 207840, Note_off_c, 0, 80, 64
4, 207840, Note_off_c, 0, 84, 64
4, 207840, Note_on_c, 0, 82, 55
4, 207840, Note_on_c, 0, 79, 39
4, 208080, Note_off_c, 0, 79, 64
4, 208080, Note_off_c, 0, 82, 64
4, 208080, Note_on_c, 0, 84, 59
4, 208080, Note_on_c, 0, 80, 55
4, 208320, Note_off_c, 0, 80, 64
4, 208320, Note_off_c, 0, 84, 64
4, 208320, Note_on_c, 0, 85, 74
4, 208320, Note_on_c, 0, 82, 68
4, 208680, Note_off_c, 0, 82, 64
4, 208680, Note_off_c, 0, 85, 64
4, 208680, Note_on_c, 0, 84, 59
4, 208680, Note_on_c, 0, 80, 47
4, 208800, Note_off_c, 0, 80, 64
4, 208800, Note_off_c, 0, 84, 64
4, 208800, Note_on_c, 0, 79, 52
4, 208800, Note_on_c, 0, 82, 63
4, 209040, Note_off_c, 0, 82, 64
4, 209040, Note_off_c, 0, 79, 64
4, 209040, Note_on_c, 0, 84, 52
4, 209040, Note_on_c, 0, 80, 50
4, 209280, Note_off_c, 0, 80, 64
4, 209280, Note_off_c, 0, 84, 64
4, 209280, Note_on_c, 0, 85, 74
4, 209280, Note_on_c, 0, 82, 68
4, 209640, Note_off_c, 0, 82, 64
4, 209640, Note_off_c, 0, 85, 64
4, 209640, Note_on_c, 0, 80, 53
4, 209640, Note_on_c, 0, 84, 54
4, 209760, Note_off_c, 0, 84, 64
4, 209760, Note_off_c, 0, 80, 64
4, 209760, Note_on_c, 0, 82, 65
4, 209760, Note_on_c, 0, 79, 54
4, 210000, Note_off_c, 0, 79, 64
4, 210000, Note_off_c, 0, 82, 64
4, 210000, Note_on_c, 0, 77, 47
4, 210000, Note_on_c, 0, 80, 64
4, 210240, Note_off_c, 0, 80, 64
4, 210240, Note_off_c, 0, 77, 64
4, 210240, Note_on_c, 0, 79, 44
4, 210240, Note_on_c, 0, 76, 38
4, 210480, Note_off_c, 0, 76, 64
4, 210480, Note_off_c, 0, 79, 64
4, 210480, Note_on_c, 0, 77, 35
4, 210480, Note_on_c, 0, 74, 33
4, 210720, Note_off_c, 0, 74, 64
4, 210720, Note_off_c, 0, 77, 64
4, 210720, Note_on_c, 0, 77, 42
4, 210720, Note_on_c, 0, 73, 49
4, 210960, Note_off_c, 0, 73, 64
4, 210960, Note_off_c, 0, 77, 64
4, 210960, Note_on_c, 0, 72, 32
4, 210960, Note_on_c, 0, 77, 34
4, 211200, Note_off_c, 0, 77, 64
4, 211200, Note_off_c, 0, 72, 64
4, 211200, Note_on_c, 0, 71, 40
4, 211440, Note_on_c, 0, 74, 44
4, 211680, Note_off_c, 0, 74, 64
4, 211680, Note_off_c, 0, 71, 64
4, 211680, Note_on_c, 0, 60, 46
4, 211680, Note_on_c, 0, 72, 47
4, 211680, Note_on_c, 0, 60, 36
4, 211920, Note_off_c, 0, 60, 64
4, 211920, Note_on_c, 0, 67, 31
4, 212160, Note_off_c, 0, 67, 64
4, 212160, Note_off_c, 0, 72, 64
4, 212160, Note_off_c, 0, 60, 64
4, 212160, Note_on_c, 0, 54, 74
4, 212160, Note_on_c, 0, 49, 74
4, 212160, Note_on_c, 0, 46, 54
4, 212520, Note_off_c, 0, 46, 64
4, 212520, Note_off_c, 0, 49, 64
4, 212520, Note_off_c, 0, 54, 64
4, 212520, Note_on_c, 0, 53, 54
4, 212520, Note_on_c, 0, 48, 56
4, 212520, Note_on_c, 0, 44, 40
4, 212640, Note_off_c, 0, 44, 64
4, 212640, Note_off_c, 0, 48, 64
4, 212640, Note_off_c, 0, 53, 64
4, 212640, Note_on_c, 0, 52, 56
4, 212640, Note_on_c, 0, 46, 62
4, 212640, Note_on_c, 0, 43, 56
4, 212880, Note_off_c, 0, 43, 64
4, 212880, Note_off_c, 0, 46, 64
4, 212880, Note_off_c, 0, 52, 64
4, 212880, Note_on_c, 0, 53, 56
4, 212880, Note_on_c, 0, 48, 59
4, 212880, Note_on_c, 0, 44, 50
4, 213120, Note_off_c, 0, 44, 64
4, 213120, Note_off_c, 0, 48, 64
4, 213120, Note_off_c, 0, 53, 64
4, 213120, Note_on_c, 0, 54, 80
4, 213120, Note_on_c, 0, 49, 80
4, 213120, Note_on_c, 0, 46, 72
4, 213480, Note_off_c, 0, 46, 64
4, 213480, Note_off_c, 0, 49, 64
4, 213480, Note_off_c, 0, 54, 64
4, 213480, Note_on_c, 0, 53, 56
4, 213480, Note_on_c, 0, 48, 44
4, 213480, Note_on_c, 0, 44, 44
4, 213600, Note_off_c, 0, 44, 64
4, 213600, Note_off_c, 0, 48, 64
4, 213600, Note_off_c, 0, 53, 64
4, 213600, Note_on_c, 0, 52, 62
4, 213600, Note_on_c, 0, 46, 59
4, 213600, Note_on_c, 0, 43, 56
4, 213840, Note_off_c, 0, 43, 64
4, 213840, Note_off_c, 0, 46, 64
4, 213840, Note_off_c, 0, 52, 64
4, 213840, Note_on_c, 0, 53, 60
4, 213840, Note_on_c, 0, 44, 55
4, 213840, Note_on_c, 0, 48, 52
4, 214080, Note_off_c, 0, 48, 64
4, 214080, Note_off_c, 0, 44, 64
4, 214080, Note_off_c, 0, 53, 64
4, 214080, Note_on_c, 0, 54, 80
4, 214080, Note_on_c, 0, 49, 86
4, 214080, Note_on_c, 0, 46, 72
4, 214440, Note_off_c, 0, 46, 64
4, 214440, Note_off_c, 0, 49, 64
4, 214440, Note_off_c, 0, 54, 64
4, 214440, Note_on_c, 0, 53, 51
4, 214440, Note_on_c, 0, 48, 39
4, 214440, Note_on_c, 0, 44, 47
4, 214560, Note_off_c, 0, 44, 64
4, 214560, Note_off_c, 0, 48, 64
4, 214560, Note_off_c, 0, 53, 64
4, 214560, Note_on_c, 0, 43, 62
4, 214560, Note_on_c, 0, 52, 56
4, 214560, Note_on_c, 0, 46, 54
4, 214800, Note_off_c, 0, 46, 64
4, 214800, Note_off_c, 0, 52, 64
4, 214800, Note_off_c, 0, 43, 64
4, 214800, Note_on_c, 0, 44, 68
4, 214800, Note_on_c, 0, 49, 68
4, 214800, Note_on_c, 0, 41, 63
4, 215040, Note_off_c, 0, 41, 64
4, 215040, Note_off_c, 0, 49, 64
4, 215040, Note_off_c, 0, 44, 64
4, 215040, Note_on_c, 0, 48, 56
4, 215040, Note_on_c, 0, 40, 67
4, 215040, Note_on_c, 0, 43, 67
4, 215280, Note_off_c, 0, 43, 64
4, 215280, Note_off_c, 0, 40, 64
4, 215280, Note_off_c, 0, 48, 64
4, 215280, Note_on_c, 0, 38, 52
4, 215280, Note_on_c, 0, 47, 50
4, 215280, Note_on_c, 0, 41, 51
4, 215280, Note_on_c, 0, 44, 50
4, 215520, Note_off_c, 0, 44, 64
4, 215520, Note_off_c, 0, 41, 64
4, 215520, Note_off_c, 0, 47, 64
4, 215520, Note_off_c, 0, 38, 64
4, 215520, Note_on_c, 0, 46, 59
4, 215520, Note_on_c, 0, 40, 56
4, 215520, Note_on_c, 0, 43, 56
4, 215760, Note_off_c, 0, 43, 64
4, 215760, Note_off_c, 0, 40, 64
4, 215760, Note_off_c, 0, 46, 64
4, 215760, Note_on_c, 0, 44, 50
4, 215760, Note_on_c, 0, 41, 60
4, 216000, Note_off_c, 0, 41, 64
4, 216000, Note_off_c, 0, 44, 64
4, 216000, Note_on_c, 0, 35, 47
4, 216000, Note_on_c, 0, 44, 58
4, 216240, Note_off_c, 0, 44, 64
4, 216240, Note_on_c, 0, 43, 59
4, 216480, Note_off_c, 0, 43, 64
4, 216480, Note_off_c, 0, 35, 64
4, 216480, Note_on_c, 0, 36, 50
4, 216480, Note_on_c, 0, 41, 45
4, 216720, Note_off_c, 0, 41, 64
4, 216720, Note_on_c, 0, 40, 56
4, 216960, Note_off_c, 0, 40, 64
4, 216960, Note_off_c, 0, 36, 64
4, 216960, Note_on_c, 0, 53, 79
4, 216960, Note_on_c, 0, 44, 68
4, 216960, Note_on_c, 0, 41, 63
4, 216960, Note_on_c, 0, 48, 67
4, 217080, Note_off_c, 0, 48, 64
4, 217080, Note_off_c, 0, 41, 64
4, 217080, Note_off_c, 0, 44, 64
4, 217080, Note_off_c, 0, 53, 64
4, 217260, Note_on_c, 0, 48, 44
4, 217320, Note_off_c, 0, 48, 64
4, 217320, Note_on_c, 0, 53, 43
4, 217380, Note_off_c, 0, 53, 64
4, 217380, Note_on_c, 0, 56, 54
4, 217440, Note_off_c, 0, 56, 64
4, 217440, Note_on_c, 0, 60, 47
4, 217500, Note_off_c, 0, 60, 64
4, 217500, Note_on_c, 0, 61, 39
4, 217560, Note_off_c, 0, 61, 64
4, 217560, Note_on_c, 0, 60, 39
4, 217620, Note_off_c, 0, 60, 64
4, 217620, Note_on_c, 0, 58, 40
4, 217680, Note_off_c, 0, 58, 64
4, 217680, Note_on_c, 0, 56, 54
4, 217740, Note_off_c, 0, 56, 64
4, 217740, Note_on_c, 0, 55, 39
4, 217800, Note_off_c, 0, 55, 64
4, 217800, Note_on_c, 0, 53, 51
4, 217860, Note_off_c, 0, 53, 64
4, 217860, Note_on_c, 0, 51, 50
4, 217920, Note_off_c, 0, 51, 64
4, 217920, Note_on_c, 0, 49, 47
4, 217980, Note_off_c, 0, 49, 64
4, 217980, Note_on_c, 0, 48, 41
4, 218040, Note_off_c, 0, 48, 64
4, 218040, Note_on_c, 0, 46, 42
4, 218100, Note_off_c, 0, 46, 64
4, 218100, Note_on_c, 0, 44, 47
4, 218160, Note_off_c, 0, 44, 64
4, 218160, Note_on_c, 0, 43, 59
4, 218220, Note_off_c, 0, 43, 64
4, 218220, Note_on_c, 0, 44, 58
4, 218280, Note_off_c, 0, 44, 64
4, 218280, Note_on_c, 0, 46, 54
4, 218340, Note_off_c, 0, 46, 64
4, 218340, Note_on_c, 0, 44, 50
4, 218400, Note_off_c, 0, 44, 64
4, 218400, Note_on_c, 0, 43, 52
4, 218460, Note_off_c, 0, 43, 64
4, 218460, Note_on_c, 0, 41, 48
4, 218520, Note_off_c, 0, 41, 64
4, 218520, Note_on_c, 0, 40, 56
4, 218580, Note_off_c, 0, 40, 64
4, 218580, Note_on_c, 0, 38, 41
4, 218640, Note_off_c, 0, 38, 64
4, 218640, Note_on_c, 0, 36, 36
4, 218700, Note_off_c, 0, 36, 64
4, 218700, Note_on_c, 0, 34, 51
4, 218760, Note_off_c, 0, 34, 64
4, 218760, Note_on_c, 0, 32, 47
4, 218820, Note_off_c, 0, 32, 64
4, 218820, Note_on_c, 0, 31, 56
4, 218880, Note_off_c, 0, 31, 64
4, 218880, Note_on_c, 0, 36, 47
4, 218880, Note_on_c, 0, 41, 60
4, 218880, Note_on_c, 0, 32, 50
4, 218880, Note_on_c, 0, 29, 60
4, 219000, Note_off_c, 0, 29, 64
4, 219000, Note_off_c, 0, 32, 64
4, 219000, Note_off_c, 0, 41, 64
4, 219000, Note_off_c, 0, 36, 64
4, 219180, Note_on_c, 0, 60, 47
4, 219240, Note_off_c, 0, 60, 64
4, 219240, Note_on_c, 0, 65, 52
4, 219300, Note_off_c, 0, 65, 64
4, 219300, Note_on_c, 0, 68, 63
4, 219360, Note_off_c, 0, 68, 64
4, 219360, Note_on_c, 0, 72, 62
4, 219420, Note_off_c, 0, 72, 64
4, 219420, Note_on_c, 0, 73, 58
4, 219480, Note_off_c, 0, 73, 64
4, 219480, Note_on_c, 0, 72, 50
4, 219540, Note_off_c, 0, 72, 64
4, 219540, Note_on_c, 0, 70, 50
4, 219600, Note_off_c, 0, 70, 64
4, 219600, Note_on_c, 0, 68, 55
4, 219660, Note_off_c, 0, 68, 64
4, 219660, Note_on_c, 0, 67, 59
4, 219720, Note_off_c, 0, 67, 64
4, 219720, Note_on_c, 0, 65, 56
4, 219780, Note_off_c, 0, 65, 64
4, 219780, Note_on_c, 0, 63, 47
4, 219840, Note_off_c, 0, 63, 64
4, 219840, Note_on_c, 0, 61, 51
4, 219900, Note_off_c, 0, 61, 64
4, 219900, Note_on_c, 0, 60, 47
4, 219960, Note_off_c, 0, 60, 64
4, 219960, Note_on_c, 0, 58, 55
4, 220020, Note_off_c, 0, 58, 64
4, 220020, Note_on_c, 0, 56, 54
4, 220080, Note_off_c, 0, 56, 64
4, 220080, Note_on_c, 0, 55, 59
4, 220140, Note_off_c, 0, 55, 64
4, 220140, Note_on_c, 0, 56, 54
4, 220200, Note_off_c, 0, 56, 64
4, 220200, Note_on_c, 0, 58, 47
4, 220260, Note_off_c, 0, 58, 64
4, 220260, Note_on_c, 0, 56, 59
4, 220320, Note_off_c, 0, 56, 64
4, 220320, Note_on_c, 0, 55, 47
4, 220380, Note_off_c, 0, 55, 64
4, 220380, Note_on_c, 0, 53, 48
4, 220440, Note_off_c, 0, 53, 64
4, 220440, Note_on_c, 0, 52, 50
4, 220500, Note_off_c, 0, 52, 64
4, 220500, Note_on_c, 0, 50, 47
4, 220560, Note_off_c, 0, 50, 64
4, 220560, Note_on_c, 0, 48, 52
4, 220620, Note_off_c, 0, 48, 64
4, 220620, Note_on_c, 0, 46, 51
4, 220680, Note_off_c, 0, 46, 64
4, 220680, Note_on_c, 0, 44, 38
4, 220740, Note_off_c, 0, 44, 64
4, 220740, Note_on_c, 0, 43, 56
4, 220800, Note_off_c, 0, 43, 64
4, 220800, Note_on_c, 0, 41, 56
4, 220860, Note_off_c, 0, 41, 64
4, 220860, Note_on_c, 0, 43, 56
4, 220920, Note_off_c, 0, 43, 64
4, 220920, Note_on_c, 0, 44, 50
4, 220980, Note_off_c, 0, 44, 64
4, 220980, Note_on_c, 0, 46, 62
4, 221040, Note_off_c, 0, 46, 64
4, 221040, Note_on_c, 0, 48, 56
4, 221100, Note_off_c, 0, 48, 64
4, 221100, Note_on_c, 0, 50, 50
4, 221160, Note_off_c, 0, 50, 64
4, 221160, Note_on_c, 0, 52, 36
4, 221220, Note_off_c, 0, 52, 64
4, 221220, Note_on_c, 0, 53, 40
4, 221280, Note_off_c, 0, 53, 64
4, 221280, Note_on_c, 0, 55, 62
4, 221340, Note_off_c, 0, 55, 64
4, 221340, Note_on_c, 0, 53, 63
4, 221400, Note_off_c, 0, 53, 64
4, 221400, Note_on_c, 0, 52, 52
4, 221460, Note_off_c, 0, 52, 64
4, 221460, Note_on_c, 0, 50, 52
4, 221520, Note_off_c, 0, 50, 64
4, 221520, Note_on_c, 0, 48, 47
4, 221580, Note_off_c, 0, 48, 64
4, 221580, Note_on_c, 0, 46, 42
4, 221640, Note_off_c, 0, 46, 64
4, 221640, Note_on_c, 0, 44, 47
4, 221700, Note_off_c, 0, 44, 64
4, 221700, Note_on_c, 0, 43, 41
4, 221760, Note_off_c, 0, 43, 64
4, 221760, Note_on_c, 0, 41, 63
4, 221820, Note_off_c, 0, 41, 64
4, 221820, Note_on_c, 0, 43, 52
4, 221880, Note_off_c, 0, 43, 64
4, 221880, Note_on_c, 0, 44, 44
4, 221940, Note_off_c, 0, 44, 64
4, 221940, Note_on_c, 0, 46, 48
4, 222000, Note_off_c, 0, 46, 64
4, 222000, Note_on_c, 0, 48, 56
4, 222060, Note_off_c, 0, 48, 64
4, 222060, Note_on_c, 0, 50, 44
4, 222120, Note_off_c, 0, 50, 64
4, 222120, Note_on_c, 0, 52, 50
4, 222180, Note_off_c, 0, 52, 64
4, 222180, Note_on_c, 0, 53, 51
4, 222240, Note_off_c, 0, 53, 64
4, 222240, Note_on_c, 0, 55, 62
4, 222300, Note_off_c, 0, 55, 64
4, 222300, Note_on_c, 0, 53, 54
4, 222360, Note_off_c, 0, 53, 64
4, 222360, Note_on_c, 0, 52, 56
4, 222420, Note_off_c, 0, 52, 64
4, 222420, Note_on_c, 0, 50, 41
4, 222480, Note_off_c, 0, 50, 64
4, 222480, Note_on_c, 0, 48, 50
4, 222540, Note_off_c, 0, 48, 64
4, 222540, Note_on_c, 0, 46, 54
4, 222600, Note_off_c, 0, 46, 64
4, 222600, Note_on_c, 0, 44, 47
4, 222660, Note_off_c, 0, 44, 64
4, 222660, Note_on_c, 0, 43, 59
4, 222720, Note_off_c, 0, 43, 64
4, 222720, Note_on_c, 0, 41, 63
4, 222960, Note_off_c, 0, 41, 64
4, 223080, Note_on_c, 0, 48, 52
4, 223080, Note_on_c, 0, 36, 62
4, 223080, Note_on_c, 0, 41, 63
4, 223080, Note_on_c, 0, 44, 50
4, 223140, Note_off_c, 0, 44, 64
4, 223140, Note_off_c, 0, 41, 64
4, 223140, Note_off_c, 0, 36, 64
4, 223140, Note_off_c, 0, 48, 64
4, 223200, Note_on_c, 0, 46, 62
4, 223200, Note_on_c, 0, 36, 62
4, 223200, Note_on_c, 0, 48, 52
4, 223200, Note_on_c, 0, 40, 67
4, 223200, Note_on_c, 0, 43, 32
4, 223260, Note_off_c, 0, 43, 64
4, 223260, Note_off_c, 0, 40, 64
4, 223260, Note_off_c, 0, 48, 64
4, 223260, Note_off_c, 0, 36, 64
4, 223260, Note_off_c, 0, 46, 64
4, 223320, Note_on_c, 0, 36, 59
4, 223320, Note_on_c, 0, 46, 51
4, 223320, Note_on_c, 0, 40, 56
4, 223320, Note_on_c, 0, 43, 41
4, 223320, Note_on_c, 0, 48, 50
4, 223380, Note_off_c, 0, 48, 64
4, 223380, Note_off_c, 0, 43, 64
4, 223380, Note_off_c, 0, 40, 64
4, 223380, Note_off_c, 0, 46, 64
4, 223380, Note_off_c, 0, 36, 64
4, 223440, Note_on_c, 0, 46, 48
4, 223440, Note_on_c, 0, 48, 50
4, 223440, Note_on_c, 0, 43, 47
4, 223440, Note_on_c, 0, 36, 56
4, 223440, Note_on_c, 0, 40, 56
4, 223500, Note_off_c, 0, 40, 64
4, 223500, Note_off_c, 0, 36, 64
4, 223500, Note_off_c, 0, 43, 64
4, 223500, Note_off_c, 0, 48, 64
4, 223500, Note_off_c, 0, 46, 64
4, 223560, Note_on_c, 0, 46, 48
4, 223560, Note_on_c, 0, 48, 47
4, 223560, Note_on_c, 0, 43, 50
4, 223560, Note_on_c, 0, 40, 56
4, 223560, Note_on_c, 0, 36, 47
4, 223620, Note_off_c, 0, 36, 64
4, 223620, Note_off_c, 0, 40, 64
4, 223620, Note_off_c, 0, 43, 64
4, 223620, Note_off_c, 0, 48, 64
4, 223620, Note_off_c, 0, 46, 64
4, 223680, Note_on_c, 0, 48, 62
4, 223680, Note_on_c, 0, 36, 67
4, 223680, Note_on_c, 0, 44, 63
4, 223680, Note_on_c, 0, 41, 63
4, 223920, Note_off_c, 0, 41, 64
4, 223920, Note_off_c, 0, 44, 64
4, 223920, Note_off_c, 0, 36, 64
4, 223920, Note_off_c, 0, 48, 64
4, 224040, Note_on_c, 0, 48, 50
4, 224040, Note_on_c, 0, 53, 56
4, 224040, Note_on_c, 0, 60, 47
4, 224040, Note_on_c, 0, 56, 51
4, 224100, Note_off_c, 0, 56, 64
4, 224100, Note_off_c, 0, 60, 64
4, 224100, Note_off_c, 0, 53, 64
4, 224100, Note_off_c, 0, 48, 64
4, 224160, Note_on_c, 0, 58, 63
4, 224160, Note_on_c, 0, 52, 67
4, 224160, Note_on_c, 0, 48, 59
4, 224160, Note_on_c, 0, 60, 59
4, 224160, Note_on_c, 0, 55, 47
4, 224220, Note_off_c, 0, 55, 64
4, 224220, Note_off_c, 0, 60, 64
4, 224220, Note_off_c, 0, 48, 64
4, 224220, Note_off_c, 0, 52, 64
4, 224220, Note_off_c, 0, 58, 64
4, 224280, Note_on_c, 0, 58, 55
4, 224280, Note_on_c, 0, 60, 52
4, 224280, Note_on_c, 0, 55, 44
4, 224280, Note_on_c, 0, 52, 52
4, 224280, Note_on_c, 0, 48, 56
4, 224340, Note_off_c, 0, 48, 64
4, 224340, Note_off_c, 0, 52, 64
4, 224340, Note_off_c, 0, 55, 64
4, 224340, Note_off_c, 0, 60, 64
4, 224340, Note_off_c, 0, 58, 64
4, 224400, Note_on_c, 0, 58, 58
4, 224400, Note_on_c, 0, 60, 52
4, 224400, Note_on_c, 0, 52, 56
4, 224400, Note_on_c, 0, 48, 52
4, 224400, Note_on_c, 0, 55, 47
4, 224460, Note_off_c, 0, 55, 64
4, 224460, Note_off_c, 0, 48, 64
4, 224460, Note_off_c, 0, 52, 64
4, 224460, Note_off_c, 0, 60, 64
4, 224460, Note_off_c, 0, 58, 64
4, 224520, Note_on_c, 0, 60, 56
4, 224520, Note_on_c, 0, 58, 58
4, 224520, Note_on_c, 0, 55, 44
4, 224520, Note_on_c, 0, 52, 56
4, 224520, Note_on_c, 0, 48, 47
4, 224580, Note_off_c, 0, 48, 64
4, 224580, Note_off_c, 0, 52, 64
4, 224580, Note_off_c, 0, 55, 64
4, 224580, Note_off_c, 0, 58, 64
4, 224580, Note_off_c, 0, 60, 64
4, 224640, Note_on_c, 0, 48, 62
4, 224640, Note_on_c, 0, 60, 62
4, 224640, Note_on_c, 0, 53, 63
4, 224640, Note_on_c, 0, 56, 62
4, 224880, Note_off_c, 0, 56, 64
4, 224880, Note_off_c, 0, 53, 64
4, 224880, Note_off_c, 0, 60, 64
4, 224880, Note_off_c, 0, 48, 64
4, 225000, Note_on_c, 0, 36, 70
4, 225000, Note_on_c, 0, 48, 70
4, 225000, Note_on_c, 0, 41, 66
4, 225000, Note_on_c, 0, 44, 58
4, 225060, Note_off_c, 0, 44, 64
4, 225060, Note_off_c, 0, 41, 64
4, 225060, Note_off_c, 0, 48, 64
4, 225060, Note_off_c, 0, 36, 64
4, 225120, Note_on_c, 0, 46, 67
4, 225120, Note_on_c, 0, 43, 59
4, 225120, Note_on_c, 0, 48, 62
4, 225120, Note_on_c, 0, 40, 67
4, 225120, Note_on_c, 0, 36, 67
4, 225180, Note_off_c, 0, 36, 64
4, 225180, Note_off_c, 0, 40, 64
4, 225180, Note_off_c, 0, 48, 64
4, 225180, Note_off_c, 0, 43, 64
4, 225180, Note_off_c, 0, 46, 64
4, 225240, Note_on_c, 0, 36, 67
4, 225240, Note_on_c, 0, 46, 67
4, 225240, Note_on_c, 0, 40, 67
4, 225240, Note_on_c, 0, 43, 56
4, 225240, Note_on_c, 0, 48, 56
4, 225300, Note_off_c, 0, 48, 64
4, 225300, Note_off_c, 0, 43, 64
4, 225300, Note_off_c, 0, 40, 64
4, 225300, Note_off_c, 0, 46, 64
4, 225300, Note_off_c, 0, 36, 64
4, 225360, Note_on_c, 0, 46, 67
4, 225360, Note_on_c, 0, 48, 59
4, 225360, Note_on_c, 0, 36, 67
4, 225360, Note_on_c, 0, 43, 52
4, 225360, Note_on_c, 0, 40, 70
4, 225420, Note_off_c, 0, 40, 64
4, 225420, Note_off_c, 0, 43, 64
4, 225420, Note_off_c, 0, 36, 64
4, 225420, Note_off_c, 0, 48, 64
4, 225420, Note_off_c, 0, 46, 64
4, 225480, Note_on_c, 0, 40, 59
4, 225480, Note_on_c, 0, 36, 67
4, 225480, Note_on_c, 0, 48, 59
4, 225480, Note_on_c, 0, 46, 67
4, 225480, Note_on_c, 0, 43, 52
4, 225540, Note_off_c, 0, 43, 64
4, 225540, Note_off_c, 0, 46, 64
4, 225540, Note_off_c, 0, 48, 64
4, 225540, Note_off_c, 0, 36, 64
4, 225540, Note_off_c, 0, 40, 64
4, 225600, Note_on_c, 0, 40, 70
4, 225600, Note_on_c, 0, 43, 67
4, 225600, Note_on_c, 0, 48, 67
4, 225600, Note_on_c, 0, 46, 72
4, 225600, Note_on_c, 0, 36, 62
4, 225660, Note_off_c, 0, 36, 64
4, 225660, Note_off_c, 0, 46, 64
4, 225660, Note_off_c, 0, 48, 64
4, 225660, Note_off_c, 0, 43, 64
4, 225660, Note_off_c, 0, 40, 64
4, 225720, Note_on_c, 0, 40, 67
4, 225720, Note_on_c, 0, 46, 67
4, 225720, Note_on_c, 0, 48, 67
4, 225720, Note_on_c, 0, 36, 62
4, 225720, Note_on_c, 0, 43, 62
4, 225780, Note_off_c, 0, 43, 64
4, 225780, Note_off_c, 0, 36, 64
4, 225780, Note_off_c, 0, 48, 64
4, 225780, Note_off_c, 0, 46, 64
4, 225780, Note_off_c, 0, 40, 64
4, 225840, Note_on_c, 0, 46, 67
4, 225840, Note_on_c, 0, 36, 67
4, 225840, Note_on_c, 0, 40, 62
4, 225840, Note_on_c, 0, 48, 59
4, 225840, Note_on_c, 0, 43, 56
4, 225900, Note_off_c, 0, 43, 64
4, 225900, Note_off_c, 0, 48, 64
4, 225900, Note_off_c, 0, 40, 64
4, 225900, Note_off_c, 0, 36, 64
4, 225900, Note_off_c, 0, 46, 64
4, 225960, Note_on_c, 0, 46, 67
4, 225960, Note_on_c, 0, 43, 59
4, 225960, Note_on_c, 0, 48, 56
4, 225960, Note_on_c, 0, 40, 62
4, 225960, Note_on_c, 0, 36, 67
4, 226020, Note_off_c, 0, 36, 64
4, 226020, Note_off_c, 0, 40, 64
4, 226020, Note_off_c, 0, 48, 64
4, 226020, Note_off_c, 0, 43, 64
4, 226020, Note_off_c, 0, 46, 64
4, 226080, Note_on_c, 0, 40, 62
4, 226080, Note_on_c, 0, 46, 67
4, 226080, Note_on_c, 0, 43, 59
4, 226080, Note_on_c, 0, 36, 59
4, 226080, Note_on_c, 0, 48, 59
4, 226140, Note_off_c, 0, 48, 64
4, 226140, Note_off_c, 0, 36, 64
4, 226140, Note_off_c, 0, 43, 64
4, 226140, Note_off_c, 0, 46, 64
4, 226140, Note_off_c, 0, 40, 64
4, 226200, Note_on_c, 0, 40, 62
4, 226200, Note_on_c, 0, 36, 59
4, 226200, Note_on_c, 0, 48, 59
4, 226200, Note_on_c, 0, 46, 67
4, 226200, Note_on_c, 0, 43, 52
4, 226260, Note_off_c, 0, 43, 64
4, 226260, Note_off_c, 0, 46, 64
4, 226260, Note_off_c, 0, 48, 64
4, 226260, Note_off_c, 0, 36, 64
4, 226260, Note_off_c, 0, 40, 64
4, 226320, Note_on_c, 0, 40, 59
4, 226320, Note_on_c, 0, 48, 52
4, 226320, Note_on_c, 0, 46, 67
4, 226320, Note_on_c, 0, 36, 59
4, 226320, Note_on_c, 0, 43, 50
4, 226380, Note_off_c, 0, 43, 64
4, 226380, Note_off_c, 0, 36, 64
4, 226380, Note_off_c, 0, 46, 64
4, 226380, Note_off_c, 0, 48, 64
4, 226380, Note_off_c, 0, 40, 64
4, 226440, Note_on_c, 0, 40, 62
4, 226440, Note_on_c, 0, 46, 62
4, 226440, Note_on_c, 0, 36, 67
4, 226440, Note_on_c, 0, 48, 59
4, 226440, Note_on_c, 0, 43, 50
4, 226500, Note_off_c, 0, 43, 64
4, 226500, Note_off_c, 0, 48, 64
4, 226500, Note_off_c, 0, 36, 64
4, 226500, Note_off_c, 0, 46, 64
4, 226500, Note_off_c, 0, 40, 64
4, 226560, Note_on_c, 0, 36, 75
4, 226560, Note_on_c, 0, 29, 74
4, 226560, Note_on_c, 0, 32, 80
4, 226560, Note_on_c, 0, 41, 84
4, 227040, Note_off_c, 0, 41, 64
4, 227040, Note_off_c, 0, 32, 64
4, 227040, Note_off_c, 0, 29, 64
4, 227040, Note_off_c, 0, 36, 64
4, 227040, Note_on_c, 0, 36, 84
4, 227040, Note_on_c, 0, 29, 85
4, 227040, Note_on_c, 0, 32, 81
4, 227040, Note_on_c, 0, 41, 88
4, 227520, Note_off_c, 0, 41, 64
4, 227520, Note_off_c, 0, 32, 64
4, 227520, Note_off_c, 0, 29, 64
4, 227520, Note_off_c, 0, 36, 64
4, 227520, Note_on_c, 0, 48, 62
4, 227520, Note_on_c, 0, 36, 62
4, 227580, Note_off_c, 0, 36, 64
4, 227580, Note_off_c, 0, 48, 64
4, 227640, Note_on_c, 0, 36, 44
4, 227700, Note_off_c, 0, 36, 64
4, 227760, Note_on_c, 0, 36, 50
4, 227820, Note_off_c, 0, 36, 64
4, 227880, Note_on_c, 0, 36, 50
4, 227940, Note_off_c, 0, 36, 64
4, 228000, Note_on_c, 0, 29, 63
4, 228000, Note_on_c, 0, 41, 60
4, 228060, Note_off_c, 0, 41, 64
4, 228060, Note_off_c, 0, 29, 64
4, 228120, Note_on_c, 0, 29, 63
4, 228180, Note_off_c, 0, 29, 64
4, 228240, Note_on_c, 0, 29, 60
4, 228300, Note_off_c, 0, 29, 64
4, 228360, Note_on_c, 0, 29, 51
4, 228420, Note_off_c, 0, 29, 64
4, 228480, Note_on_c, 0, 48, 59
4, 228480, Note_on_c, 0, 36, 62
4, 228540, Note_off_c, 0, 36, 64
4, 228540, Note_off_c, 0, 48, 64
4, 228600, Note_on_c, 0, 36, 56
4, 228660, Note_off_c, 0, 36, 64
4, 228720, Note_on_c, 0, 36, 47
4, 228780, Note_off_c, 0, 36, 64
4, 228840, Note_on_c, 0, 36, 44
4, 228900, Note_off_c, 0, 36, 64
4, 228960, Note_on_c, 0, 41, 66
4, 228960, Note_on_c, 0, 29, 66
4, 229020, Note_off_c, 0, 29, 64
4, 229020, Note_off_c, 0, 41, 64
4, 229080, Note_on_c, 0, 41, 56
4, 229140, Note_off_c, 0, 41, 64
4, 229200, Note_on_c, 0, 41, 56
4, 229260, Note_off_c, 0, 41, 64
4, 229320, Note_on_c, 0, 41, 51
4, 229380, Note_off_c, 0, 41, 64
4, 229440, Note_on_c, 0, 31, 52
4, 229500, Note_off_c, 0, 31, 64
4, 229560, Note_on_c, 0, 43, 52
4, 229620, Note_off_c, 0, 43, 64
4, 229680, Note_on_c, 0, 31, 52
4, 229740, Note_off_c, 0, 31, 64
4, 229800, Note_on_c, 0, 31, 59
4, 229860, Note_off_c, 0, 31, 64
4, 229920, Note_on_c, 0, 36, 62
4, 230160, Note_off_c, 0, 36, 64
4, 230280, Note_on_c, 0, 36, 62
4, 230310, Note_off_c, 0, 36, 64
4, 230310, Note_on_c, 0, 34, 54
4, 230340, Note_off_c, 0, 34, 64
4, 230340, Note_on_c, 0, 32, 50
4, 230370, Note_off_c, 0, 32, 64
4, 230370, Note_on_c, 0, 31, 50
4, 230400, Note_off_c, 0, 31, 64
4, 230400, Note_on_c, 0, 36, 75
4, 230400, Note_on_c, 0, 29, 74
4, 230400, Note_on_c, 0, 32, 80
4, 230400, Note_on_c, 0, 41, 84
4, 230880, Note_off_c, 0, 41, 64
4, 230880, Note_off_c, 0, 32, 64
4, 230880, Note_off_c, 0, 29, 64
4, 230880, Note_off_c, 0, 36, 64
4, 230880, Note_on_c, 0, 36, 80
4, 230880, Note_on_c, 0, 29, 81
4, 230880, Note_on_c, 0, 32, 78
4, 230880, Note_on_c, 0, 41, 85
4, 231360, Note_off_c, 0, 41, 64
4, 231360, Note_off_c, 0, 32, 64
4, 231360, Note_off_c, 0, 29, 64
4, 231360, Note_off_c, 0, 36, 64
4, 231360, Note_on_c, 0, 48, 62
4, 231360, Note_on_c, 0, 36, 62
4, 231420, Note_off_c, 0, 36, 64
4, 231420, Note_off_c, 0, 48, 64
4, 231480, Note_on_c, 0, 36, 44
4, 231540, Note_off_c, 0, 36, 64
4, 231600, Note_on_c, 0, 36, 50
4, 231660, Note_off_c, 0, 36, 64
4, 231720, Note_on_c, 0, 36, 50
4, 231780, Note_off_c, 0, 36, 64
4, 231840, Note_on_c, 0, 29, 63
4, 231840, Note_on_c, 0, 41, 60
4, 231900, Note_off_c, 0, 41, 64
4, 231900, Note_off_c, 0, 29, 64
4, 231960, Note_on_c, 0, 29, 63
4, 232020, Note_off_c, 0, 29, 64
4, 232080, Note_on_c, 0, 29, 60
4, 232140, Note_off_c, 0, 29, 64
4, 232200, Note_on_c, 0, 29, 51
4, 232260, Note_off_c, 0, 29, 64
4, 232320, Note_on_c, 0, 48, 59
4, 232320, Note_on_c, 0, 36, 62
4, 232380, Note_off_c, 0, 36, 64
4, 232380, Note_off_c, 0, 48, 64
4, 232440, Note_on_c, 0, 36, 56
4, 232500, Note_off_c, 0, 36, 64
4, 232560, Note_on_c, 0, 36, 47
4, 232620, Note_off_c, 0, 36, 64
4, 232680, Note_on_c, 0, 36, 44
4, 232740, Note_off_c, 0, 36, 64
4, 232800, Note_on_c, 0, 41, 66
4, 232800, Note_on_c, 0, 29, 66
4, 232860, Note_off_c, 0, 29, 64
4, 232860, Note_off_c, 0, 41, 64
4, 232920, Note_on_c, 0, 41, 56
4, 232980, Note_off_c, 0, 41, 64
4, 233040, Note_on_c, 0, 41, 56
4, 233100, Note_off_c, 0, 41, 64
4, 233160, Note_on_c, 0, 41, 51
4, 233220, Note_off_c, 0, 41, 64
4, 233280, Note_on_c, 0, 31, 52
4, 233340, Note_off_c, 0, 31, 64
4, 233400, Note_on_c, 0, 43, 52
4, 233460, Note_off_c, 0, 43, 64
4, 233520, Note_on_c, 0, 31, 52
4, 233580, Note_off_c, 0, 31, 64
4, 233640, Note_on_c, 0, 31, 59
4, 233700, Note_off_c, 0, 31, 64
4, 233760, Note_on_c, 0, 36, 56
4, 234000, Note_off_c, 0, 36, 64
4, 234120, Note_on_c, 0, 39, 58
4, 234160, Note_off_c, 0, 39, 64
4, 234160, Note_on_c, 0, 41, 56
4, 234200, Note_off_c, 0, 41, 64
4, 234200, Note_on_c, 0, 43, 47
4, 234240, Note_off_c, 0, 43, 64
4, 234240, Note_on_c, 0, 36, 60
4, 234240, Note_on_c, 0, 39, 75
4, 234240, Note_on_c, 0, 44, 93
4, 234240, Note_on_c, 0, 32, 75
4, 234720, Note_off_c, 0, 32, 64
4, 234720, Note_off_c, 0, 44, 64
4, 234720, Note_off_c, 0, 39, 64
4, 234720, Note_off_c, 0, 36, 64
4, 234720, Note_on_c, 0, 36, 72
4, 234720, Note_on_c, 0, 39, 90
4, 234720, Note_on_c, 0, 44, 111
4, 234720, Note_on_c, 0, 32, 97
4, 235200, Note_off_c, 0, 32, 64
4, 235200, Note_off_c, 0, 44, 64
4, 235200, Note_off_c, 0, 39, 64
4, 235200, Note_off_c, 0, 36, 64
4, 235200, Note_on_c, 0, 39, 58
4, 235200, Note_on_c, 0, 51, 47
4, 235260, Note_off_c, 0, 51, 64
4, 235260, Note_off_c, 0, 39, 64
4, 235320, Note_on_c, 0, 39, 58
4, 235380, Note_off_c, 0, 39, 64
4, 235440, Note_on_c, 0, 39, 50
4, 235500, Note_off_c, 0, 39, 64
4, 235560, Note_on_c, 0, 39, 50
4, 235620, Note_off_c, 0, 39, 64
4, 235680, Note_on_c, 0, 44, 67
4, 235680, Note_on_c, 0, 32, 63
4, 235740, Note_off_c, 0, 32, 64
4, 235740, Note_off_c, 0, 44, 64
4, 235800, Note_on_c, 0, 44, 44
4, 235860, Note_off_c, 0, 44, 64
4, 235920, Note_on_c, 0, 44, 36
4, 235980, Note_off_c, 0, 44, 64
4, 236040, Note_on_c, 0, 44, 44
4, 236100, Note_off_c, 0, 44, 64
4, 236160, Note_on_c, 0, 51, 63
4, 236160, Note_on_c, 0, 39, 68
4, 236220, Note_off_c, 0, 39, 64
4, 236220, Note_off_c, 0, 51, 64
4, 236280, Note_on_c, 0, 39, 44
4, 236340, Note_off_c, 0, 39, 64
4, 236400, Note_on_c, 0, 39, 47
4, 236460, Note_off_c, 0, 39, 64
4, 236520, Note_on_c, 0, 39, 50
4, 236580, Note_off_c, 0, 39, 64
4, 236640, Note_on_c, 0, 44, 67
4, 236640, Note_on_c, 0, 32, 63
4, 236700, Note_off_c, 0, 32, 64
4, 236700, Note_off_c, 0, 44, 64
4, 236760, Note_on_c, 0, 44, 42
4, 236820, Note_off_c, 0, 44, 64
4, 236880, Note_on_c, 0, 44, 51
4, 236940, Note_off_c, 0, 44, 64
4, 237000, Note_on_c, 0, 44, 33
4, 237060, Note_off_c, 0, 44, 64
4, 237120, Note_on_c, 0, 41, 54
4, 237120, Note_on_c, 0, 29, 71
4, 237180, Note_off_c, 0, 29, 64
4, 237180, Note_off_c, 0, 41, 64
4, 237240, Note_on_c, 0, 29, 63
4, 237300, Note_off_c, 0, 29, 64
4, 237360, Note_on_c, 0, 29, 63
4, 237420, Note_off_c, 0, 29, 64
4, 237480, Note_on_c, 0, 29, 51
4, 237540, Note_off_c, 0, 29, 64
4, 237600, Note_on_c, 0, 46, 55
4, 237600, Note_on_c, 0, 34, 67
4, 237660, Note_off_c, 0, 34, 64
4, 237660, Note_off_c, 0, 46, 64
4, 237720, Note_on_c, 0, 46, 58
4, 237780, Note_off_c, 0, 46, 64
4, 237840, Note_on_c, 0, 46, 55
4, 237900, Note_off_c, 0, 46, 64
4, 237960, Note_on_c, 0, 46, 44
4, 238020, Note_off_c, 0, 46, 64
4, 238080, Note_on_c, 0, 36, 52
4, 238140, Note_off_c, 0, 36, 64
4, 238200, Note_on_c, 0, 48, 39
4, 238260, Note_off_c, 0, 48, 64
4, 238320, Note_on_c, 0, 36, 50
4, 238380, Note_off_c, 0, 36, 64
4, 238440, Note_on_c, 0, 36, 62
4, 238500, Note_off_c, 0, 36, 64
4, 238560, Note_on_c, 0, 29, 60
4, 238560, Note_on_c, 0, 41, 51
4, 238800, Note_off_c, 0, 41, 64
4, 238800, Note_off_c, 0, 29, 64
4, 238920, Note_on_c, 0, 39, 55
4, 238960, Note_off_c, 0, 39, 64
4, 238960, Note_on_c, 0, 41, 56
4, 239000, Note_off_c, 0, 41, 64
4, 239000, Note_on_c, 0, 43, 39
4, 239040, Note_off_c, 0, 43, 64
4, 239040, Note_on_c, 0, 36, 60
4, 239040, Note_on_c, 0, 39, 75
4, 239040, Note_on_c, 0, 44, 93
4, 239040, Note_on_c, 0, 32, 75
4, 239520, Note_off_c, 0, 32, 64
4, 239520, Note_off_c, 0, 44, 64
4, 239520, Note_off_c, 0, 39, 64
4, 239520, Note_off_c, 0, 36, 64
4, 239520, Note_on_c, 0, 36, 60
4, 239520, Note_on_c, 0, 39, 75
4, 239520, Note_on_c, 0, 44, 93
4, 239520, Note_on_c, 0, 32, 81
4, 240000, Note_off_c, 0, 32, 64
4, 240000, Note_off_c, 0, 44, 64
4, 240000, Note_off_c, 0, 39, 64
4, 240000, Note_off_c, 0, 36, 64
4, 240000, Note_on_c, 0, 39, 58
4, 240000, Note_on_c, 0, 51, 47
4, 240060, Note_off_c, 0, 51, 64
4, 240060, Note_off_c, 0, 39, 64
4, 240120, Note_on_c, 0, 39, 58
4, 240180, Note_off_c, 0, 39, 64
4, 240240, Note_on_c, 0, 39, 50
4, 240300, Note_off_c, 0, 39, 64
4, 240360, Note_on_c, 0, 39, 50
4, 240420, Note_off_c, 0, 39, 64
4, 240480, Note_on_c, 0, 44, 67
4, 240480, Note_on_c, 0, 32, 63
4, 240540, Note_off_c, 0, 32, 64
4, 240540, Note_off_c, 0, 44, 64
4, 240600, Note_on_c, 0, 44, 44
4, 240660, Note_off_c, 0, 44, 64
4, 240720, Note_on_c, 0, 44, 36
4, 240780, Note_off_c, 0, 44, 64
4, 240840, Note_on_c, 0, 44, 44
4, 240900, Note_off_c, 0, 44, 64
4, 240960, Note_on_c, 0, 51, 63
4, 240960, Note_on_c, 0, 39, 68
4, 241020, Note_off_c, 0, 39, 64
4, 241020, Note_off_c, 0, 51, 64
4, 241080, Note_on_c, 0, 39, 44
4, 241140, Note_off_c, 0, 39, 64
4, 241200, Note_on_c, 0, 39, 47
4, 241260, Note_off_c, 0, 39, 64
4, 241320, Note_on_c, 0, 39, 50
4, 241380, Note_off_c, 0, 39, 64
4, 241440, Note_on_c, 0, 44, 67
4, 241440, Note_on_c, 0, 32, 63
4, 241500, Note_off_c, 0, 32, 64
4, 241500, Note_off_c, 0, 44, 64
4, 241560, Note_on_c, 0, 44, 42
4, 241620, Note_off_c, 0, 44, 64
4, 241680, Note_on_c, 0, 44, 51
4, 241740, Note_off_c, 0, 44, 64
4, 241800, Note_on_c, 0, 44, 33
4, 241860, Note_off_c, 0, 44, 64
4, 241920, Note_on_c, 0, 41, 54
4, 241920, Note_on_c, 0, 29, 71
4, 241980, Note_off_c, 0, 29, 64
4, 241980, Note_off_c, 0, 41, 64
4, 242040, Note_on_c, 0, 29, 63
4, 242100, Note_off_c, 0, 29, 64
4, 242160, Note_on_c, 0, 29, 63
4, 242220, Note_off_c, 0, 29, 64
4, 242280, Note_on_c, 0, 29, 51
4, 242340, Note_off_c, 0, 29, 64
4, 242400, Note_on_c, 0, 46, 55
4, 242400, Note_on_c, 0, 34, 67
4, 242460, Note_off_c, 0, 34, 64
4, 242460, Note_off_c, 0, 46, 64
4, 242520, Note_on_c, 0, 46, 58
4, 242580, Note_off_c, 0, 46, 64
4, 242640, Note_on_c, 0, 46, 55
4, 242700, Note_off_c, 0, 46, 64
4, 242760, Note_on_c, 0, 46, 44
4, 242820, Note_off_c, 0, 46, 64
4, 242880, Note_on_c, 0, 36, 52
4, 242940, Note_off_c, 0, 36, 64
4, 243000, Note_on_c, 0, 48, 39
4, 243060, Note_off_c, 0, 48, 64
4, 243120, Note_on_c, 0, 36, 50
4, 243180, Note_off_c, 0, 36, 64
4, 243240, Note_on_c, 0, 36, 62
4, 243300, Note_off_c, 0, 36, 64
4, 243360, Note_on_c, 0, 41, 63
4, 243360, Note_on_c, 0, 29, 75
4, 243420, Note_off_c, 0, 29, 64
4, 243420, Note_off_c, 0, 41, 64
4, 243420, Note_on_c, 0, 41, 59
4, 243480, Note_on_c, 0, 44, 56
4, 243540, Note_on_c, 0, 48, 53
4, 243600, Note_on_c, 0, 53, 54
4, 243868, Note_off_c, 0, 44, 64
4, 243872, Note_off_c, 0, 41, 64
4, 243876, Note_off_c, 0, 48, 64
4, 243892, Note_off_c, 0, 53, 64
4, 243900, Note_on_c, 0, 41, 54
4, 243960, Note_on_c, 0, 44, 52
4, 244020, Note_on_c, 0, 48, 55
4, 244080, Note_on_c, 0, 53, 71
4, 244348, Note_off_c, 0, 41, 64
4, 244352, Note_off_c, 0, 44, 64
4, 244356, Note_off_c, 0, 48, 64
4, 244376, Note_off_c, 0, 53, 64
4, 244380, Note_on_c, 0, 41, 59
4, 244440, Note_on_c, 0, 44, 56
4, 244500, Note_on_c, 0, 48, 60
4, 244560, Note_on_c, 0, 53, 71
4, 244828, Note_off_c, 0, 41, 64
4, 244832, Note_off_c, 0, 44, 64
4, 244840, Note_off_c, 0, 48, 64
4, 244844, Note_off_c, 0, 53, 64
4, 244860, Note_on_c, 0, 41, 59
4, 244920, Note_on_c, 0, 44, 56
4, 244980, Note_on_c, 0, 48, 60
4, 245040, Note_on_c, 0, 53, 71
4, 245272, Note_off_c, 0, 48, 64
4, 245276, Note_off_c, 0, 44, 64
4, 245276, Note_off_c, 0, 41, 64
4, 245280, Note_off_c, 0, 53, 64
4, 245340, Note_on_c, 0, 46, 55
4, 245400, Note_on_c, 0, 49, 52
4, 245460, Note_on_c, 0, 54, 56
4, 245520, Note_on_c, 0, 58, 66
4, 245784, Note_off_c, 0, 49, 64
4, 245792, Note_off_c, 0, 54, 64
4, 245792, Note_off_c, 0, 46, 64
4, 245796, Note_off_c, 0, 58, 64
4, 245820, Note_on_c, 0, 46, 53
4, 245880, Note_on_c, 0, 49, 52
4, 245940, Note_on_c, 0, 54, 56
4, 246000, Note_on_c, 0, 58, 66
4, 246236, Note_off_c, 0, 46, 64
4, 246256, Note_off_c, 0, 54, 64
4, 246256, Note_off_c, 0, 49, 64
4, 246260, Note_off_c, 0, 58, 64
4, 246300, Note_on_c, 0, 48, 55
4, 246360, Note_on_c, 0, 55, 46
4, 246420, Note_on_c, 0, 58, 56
4, 246480, Note_on_c, 0, 60, 63
4, 246732, Note_off_c, 0, 55, 64
4, 246736, Note_off_c, 0, 60, 64
4, 246740, Note_off_c, 0, 58, 64
4, 246748, Note_off_c, 0, 48, 64
4, 246780, Note_on_c, 0, 48, 53
4, 246840, Note_on_c, 0, 55, 60
4, 246900, Note_on_c, 0, 58, 56
4, 246960, Note_on_c, 0, 60, 67
4, 247196, Note_off_c, 0, 55, 64
4, 247196, Note_off_c, 0, 48, 64
4, 247200, Note_off_c, 0, 60, 64
4, 247204, Note_off_c, 0, 58, 64
4, 247260, Note_on_c, 0, 53, 54
4, 247320, Note_on_c, 0, 56, 53
4, 247380, Note_on_c, 0, 60, 53
4, 247440, Note_on_c, 0, 65, 77
4, 247704, Note_off_c, 0, 65, 64
4, 247712, Note_off_c, 0, 60, 64
4, 247716, Note_off_c, 0, 53, 64
4, 247720, Note_off_c, 0, 56, 64
4, 247740, Note_on_c, 0, 53, 56
4, 247800, Note_on_c, 0, 56, 60
4, 247860, Note_on_c, 0, 60, 53
4, 247920, Note_on_c, 0, 65, 72
4, 248180, Note_off_c, 0, 60, 64
4, 248184, Note_off_c, 0, 56, 64
4, 248184, Note_off_c, 0, 53, 64
4, 248200, Note_off_c, 0, 65, 64
4, 248220, Note_on_c, 0, 53, 59
4, 248280, Note_on_c, 0, 56, 60
4, 248340, Note_on_c, 0, 60, 53
4, 248400, Note_on_c, 0, 65, 72
4, 248668, Note_off_c, 0, 56, 64
4, 248672, Note_off_c, 0, 60, 64
4, 248676, Note_off_c, 0, 53, 64
4, 248680, Note_off_c, 0, 65, 64
4, 248700, Note_on_c, 0, 53, 59
4, 248760, Note_on_c, 0, 56, 60
4, 248820, Note_on_c, 0, 60, 53
4, 248880, Note_on_c, 0, 65, 72
4, 249112, Note_off_c, 0, 60, 64
4, 249112, Note_off_c, 0, 53, 64
4, 249116, Note_off_c, 0, 56, 64
4, 249120, Note_off_c, 0, 65, 64
4, 249180, Note_on_c, 0, 58, 56
4, 249240, Note_on_c, 0, 61, 60
4, 249300, Note_on_c, 0, 66, 49
4, 249360, Note_on_c, 0, 70, 61
4, 249592, Note_off_c, 0, 61, 64
4, 249592, Note_off_c, 0, 58, 64
4, 249596, Note_off_c, 0, 66, 64
4, 249600, Note_off_c, 0, 70, 64
4, 249660, Note_on_c, 0, 58, 61
4, 249720, Note_on_c, 0, 61, 48
4, 249780, Note_on_c, 0, 66, 52
4, 249840, Note_on_c, 0, 70, 72
4, 250072, Note_off_c, 0, 58, 64
4, 250076, Note_off_c, 0, 66, 64
4, 250076, Note_off_c, 0, 61, 64
4, 250080, Note_off_c, 0, 70, 64
4, 250140, Note_on_c, 0, 60, 50
4, 250200, Note_on_c, 0, 64, 54
4, 250260, Note_on_c, 0, 67, 60
4, 250320, Note_on_c, 0, 72, 72
4, 250552, Note_off_c, 0, 67, 64
4, 250552, Note_off_c, 0, 64, 64
4, 250556, Note_off_c, 0, 60, 64
4, 250560, Note_off_c, 0, 72, 64
4, 250620, Note_on_c, 0, 48, 53
4, 250680, Note_on_c, 0, 52, 46
4, 250740, Note_on_c, 0, 55, 50
4, 250800, Note_on_c, 0, 60, 67
4, 251032, Note_off_c, 0, 55, 64
4, 251032, Note_off_c, 0, 52, 64
4, 251032, Note_off_c, 0, 48, 64
4, 251040, Note_off_c, 0, 60, 64
4, 251040, Note_on_c, 0, 53, 43
4, 251040, Note_on_c, 0, 41, 50
4, 251160, Note_off_c, 0, 41, 64
4, 251160, Note_off_c, 0, 53, 64
4, 251400, Note_on_c, 0, 72, 50
4, 251460, Note_on_c, 0, 77, 39
4, 251520, Note_on_c, 0, 80, 63
4, 251872, Note_off_c, 0, 72, 64
4, 251876, Note_off_c, 0, 77, 64
4, 251880, Note_off_c, 0, 80, 64
4, 251880, Note_on_c, 0, 60, 70
4, 251940, Note_off_c, 0, 60, 64
4, 252000, Note_on_c, 0, 65, 75
4, 252060, Note_off_c, 0, 65, 64
4, 252360, Note_on_c, 0, 72, 56
4, 252420, Note_on_c, 0, 77, 56
4, 252480, Note_on_c, 0, 80, 58
4, 252824, Note_off_c, 0, 72, 64
4, 252832, Note_off_c, 0, 77, 64
4, 252840, Note_off_c, 0, 80, 64
4, 252840, Note_on_c, 0, 60, 62
4, 252900, Note_off_c, 0, 60, 64
4, 252960, Note_on_c, 0, 65, 70
4, 253020, Note_off_c, 0, 65, 64
4, 253320, Note_on_c, 0, 72, 59
4, 253380, Note_on_c, 0, 77, 62
4, 253440, Note_on_c, 0, 80, 58
4, 253784, Note_off_c, 0, 72, 64
4, 253792, Note_off_c, 0, 77, 64
4, 253800, Note_off_c, 0, 80, 64
4, 253800, Note_on_c, 0, 60, 75
4, 253860, Note_off_c, 0, 60, 64
4, 253920, Note_on_c, 0, 65, 80
4, 253980, Note_off_c, 0, 65, 64
4, 254280, Note_on_c, 0, 72, 56
4, 254340, Note_on_c, 0, 77, 52
4, 254400, Note_on_c, 0, 80, 74
4, 254752, Note_off_c, 0, 77, 64
4, 254752, Note_off_c, 0, 72, 64
4, 254760, Note_off_c, 0, 80, 64
4, 254760, Note_on_c, 0, 60, 70
4, 254820, Note_off_c, 0, 60, 64
4, 254880, Note_on_c, 0, 65, 80
4, 255000, Note_off_c, 0, 65, 64
4, 255240, Note_on_c, 0, 60, 75
4, 255300, Note_off_c, 0, 60, 64
4, 255360, Note_on_c, 0, 53, 79
4, 255600, Note_off_c, 0, 53, 64
4, 255720, Note_on_c, 0, 48, 62
4, 255780, Note_off_c, 0, 48, 64
4, 255840, Note_on_c, 0, 41, 79
4, 256080, Note_off_c, 0, 41, 64
4, 256200, Note_on_c, 0, 36, 67
4, 256260, Note_off_c, 0, 36, 64
4, 256320, Note_on_c, 0, 29, 79
4, 256380, Note_off_c, 0, 29, 64
4, 256440, Note_on_c, 0, 36, 62
4, 256500, Note_off_c, 0, 36, 64
4, 256560, Note_on_c, 0, 29, 74
4, 256620, Note_off_c, 0, 29, 64
4, 256680, Note_on_c, 0, 36, 70
4, 256740, Note_off_c, 0, 36, 64
4, 256800, Note_on_c, 0, 41, 71
4, 256845, Note_off_c, 0, 41, 64
4, 256860, Note_on_c, 0, 44, 38
4, 256905, Note_off_c, 0, 44, 64
4, 256920, Note_on_c, 0, 48, 50
4, 256965, Note_off_c, 0, 48, 64
4, 256980, Note_on_c, 0, 53, 48
4, 257025, Note_off_c, 0, 53, 64
4, 257040, Note_on_c, 0, 41, 71
4, 257085, Note_off_c, 0, 41, 64
4, 257100, Note_on_c, 0, 44, 58
4, 257145, Note_off_c, 0, 44, 64
4, 257160, Note_on_c, 0, 48, 56
4, 257205, Note_off_c, 0, 48, 64
4, 257220, Note_on_c, 0, 53, 51
4, 257265, Note_off_c, 0, 53, 64
4, 257280, Note_on_c, 0, 41, 71
4, 257325, Note_off_c, 0, 41, 64
4, 257340, Note_on_c, 0, 44, 55
4, 257385, Note_off_c, 0, 44, 64
4, 257400, Note_on_c, 0, 48, 59
4, 257445, Note_off_c, 0, 48, 64
4, 257460, Note_on_c, 0, 53, 54
4, 257505, Note_off_c, 0, 53, 64
4, 257520, Note_on_c, 0, 41, 71
4, 257565, Note_off_c, 0, 41, 64
4, 257580, Note_on_c, 0, 44, 55
4, 257625, Note_off_c, 0, 44, 64
4, 257640, Note_on_c, 0, 48, 59
4, 257685, Note_off_c, 0, 48, 64
4, 257700, Note_on_c, 0, 53, 51
4, 257745, Note_off_c, 0, 53, 64
4, 257760, Note_on_c, 0, 41, 71
4, 257805, Note_off_c, 0, 41, 64
4, 257820, Note_on_c, 0, 44, 50
4, 257865, Note_off_c, 0, 44, 64
4, 257880, Note_on_c, 0, 48, 56
4, 257925, Note_off_c, 0, 48, 64
4, 257940, Note_on_c, 0, 53, 54
4, 257985, Note_off_c, 0, 53, 64
4, 258000, Note_on_c, 0, 41, 71
4, 258045, Note_off_c, 0, 41, 64
4, 258060, Note_on_c, 0, 44, 63
4, 258105, Note_off_c, 0, 44, 64
4, 258120, Note_on_c, 0, 48, 56
4, 258165, Note_off_c, 0, 48, 64
4, 258180, Note_on_c, 0, 53, 54
4, 258225, Note_off_c, 0, 53, 64
4, 258240, Note_on_c, 0, 41, 74
4, 258285, Note_off_c, 0, 41, 64
4, 258300, Note_on_c, 0, 44, 50
4, 258345, Note_off_c, 0, 44, 64
4, 258360, Note_on_c, 0, 48, 52
4, 258405, Note_off_c, 0, 48, 64
4, 258420, Note_on_c, 0, 53, 54
4, 258465, Note_off_c, 0, 53, 64
4, 258480, Note_on_c, 0, 41, 71
4, 258525, Note_off_c, 0, 41, 64
4, 258540, Note_on_c, 0, 44, 63
4, 258585, Note_off_c, 0, 44, 64
4, 258600, Note_on_c, 0, 48, 56
4, 258645, Note_off_c, 0, 48, 64
4, 258660, Note_on_c, 0, 53, 56
4, 258705, Note_off_c, 0, 53, 64
4, 258720, Note_on_c, 0, 41, 74
4, 258765, Note_off_c, 0, 41, 64
4, 258780, Note_on_c, 0, 44, 58
4, 258825, Note_off_c, 0, 44, 64
4, 258840, Note_on_c, 0, 48, 52
4, 258885, Note_off_c, 0, 48, 64
4, 258900, Note_on_c, 0, 53, 60
4, 258945, Note_off_c, 0, 53, 64
4, 258960, Note_on_c, 0, 41, 71
4, 259005, Note_off_c, 0, 41, 64
4, 259020, Note_on_c, 0, 44, 55
4, 259065, Note_off_c, 0, 44, 64
4, 259080, Note_on_c, 0, 48, 56
4, 259125, Note_off_c, 0, 48, 64
4, 259140, Note_on_c, 0, 53, 56
4, 259185, Note_off_c, 0, 53, 64
4, 259200, Note_on_c, 0, 41, 74
4, 259245, Note_off_c, 0, 41, 64
4, 259260, Note_on_c, 0, 44, 63
4, 259305, Note_off_c, 0, 44, 64
4, 259320, Note_on_c, 0, 48, 52
4, 259365, Note_off_c, 0, 48, 64
4, 259380, Note_on_c, 0, 53, 45
4, 259425, Note_off_c, 0, 53, 64
4, 259440, Note_on_c, 0, 41, 66
4, 259485, Note_off_c, 0, 41, 64
4, 259500, Note_on_c, 0, 44, 55
4, 259545, Note_off_c, 0, 44, 64
4, 259560, Note_on_c, 0, 48, 59
4, 259605, Note_off_c, 0, 48, 64
4, 259620, Note_on_c, 0, 53, 56
4, 259665, Note_off_c, 0, 53, 64
4, 259680, Note_on_c, 0, 36, 67
4, 259680, Note_on_c, 0, 29, 66
4, 259680, Note_on_c, 0, 32, 74
4, 259680, Note_on_c, 0, 41, 74
4, 259770, Note_off_c, 0, 41, 64
4, 259770, Note_off_c, 0, 32, 64
4, 259770, Note_off_c, 0, 29, 64
4, 259770, Note_off_c, 0, 36, 64
4, 260160, Note_on_c, 0, 36, 80
4, 260160, Note_on_c, 0, 32, 86
4, 260160, Note_on_c, 0, 41, 84
4, 260160, Note_on_c, 0, 29, 84
4, 260280, Note_off_c, 0, 29, 64
4, 260280, Note_off_c, 0, 41, 64
4, 260280, Note_off_c, 0, 32, 64
4, 260280, Note_off_c, 0, 36, 64
4, 260640, Note_on_c, 0, 32, 80
4, 260640, Note_on_c, 0, 36, 80
4, 260640, Note_on_c, 0, 29, 84
4, 260640, Note_on_c, 0, 41, 90
4, 260760, Note_off_c, 0, 41, 64
4, 260760, Note_off_c, 0, 29, 64
4, 260760, Note_off_c, 0, 36, 64
4, 260760, Note_off_c, 0, 32, 64
4, 260760, End_track
5, 0, Start_track
5, 0, Title_t, "Sustain Pedal"
5, 53491, Control_c, 0, 64, 64
5, 53730, Control_c, 0, 64, 96
5, 53883, Control_c, 0, 64, 64
5, 53965, Control_c, 0, 64, 0
5, 55847, Control_c, 0, 64, 64
5, 56101, Control_c, 0, 64, 0
5, 56325, Control_c, 0, 64, 64
5, 56341, Control_c, 0, 64, 96
5, 56376, Control_c, 0, 64, 127
5, 56432, Control_c, 0, 64, 96
5, 56573, Control_c, 0, 64, 64
5, 56611, Control_c, 0, 64, 0
5, 56860, Control_c, 0, 64, 64
5, 56946, Control_c, 0, 64, 0
5, 59667, Control_c, 0, 64, 64
5, 59886, Control_c, 0, 64, 0
5, 60163, Control_c, 0, 64, 64
5, 60397, Control_c, 0, 64, 0
5, 60650, Control_c, 0, 64, 64
5, 60666, Control_c, 0, 64, 96
5, 60840, Control_c, 0, 64, 64
5, 60872, Control_c, 0, 64, 0
5, 61589, Control_c, 0, 64, 64
5, 61843, Control_c, 0, 64, 0
5, 62079, Control_c, 0, 64, 64
5, 62338, Control_c, 0, 64, 0
5, 62558, Control_c, 0, 64, 64
5, 62571, Control_c, 0, 64, 96
5, 62674, Control_c, 0, 64, 64
5, 62903, Control_c, 0, 64, 0
5, 63345, Control_c, 0, 64, 64
5, 63395, Control_c, 0, 64, 0
5, 65645, Control_c, 0, 64, 64
5, 65790, Control_c, 0, 64, 96
5, 65962, Control_c, 0, 64, 64
5, 66092, Control_c, 0, 64, 0
5, 66290, Control_c, 0, 64, 64
5, 66351, Control_c, 0, 64, 96
5, 66712, Control_c, 0, 64, 64
5, 66750, Control_c, 0, 64, 0
5, 68197, Control_c, 0, 64, 64
5, 68210, Control_c, 0, 64, 96
5, 68243, Control_c, 0, 64, 64
5, 68257, Control_c, 0, 64, 0
5, 68404, Control_c, 0, 64, 64
5, 68418, Control_c, 0, 64, 96
5, 68460, Control_c, 0, 64, 64
5, 68520, Control_c, 0, 64, 0
5, 68702, Control_c, 0, 64, 64
5, 68722, Control_c, 0, 64, 96
5, 68758, Control_c, 0, 64, 64
5, 68840, Control_c, 0, 64, 0
5, 68975, Control_c, 0, 64, 64
5, 68987, Control_c, 0, 64, 96
5, 69027, Control_c, 0, 64, 64
5, 69065, Control_c, 0, 64, 0
5, 69236, Control_c, 0, 64, 64
5, 69253, Control_c, 0, 64, 96
5, 69299, Control_c, 0, 64, 64
5, 69340, Control_c, 0, 64, 0
5, 69471, Control_c, 0, 64, 64
5, 69487, Control_c, 0, 64, 96
5, 69526, Control_c, 0, 64, 64
5, 69548, Control_c, 0, 64, 0
5, 69777, Control_c, 0, 64, 64
5, 69822, Control_c, 0, 64, 0
5, 69979, Control_c, 0, 64, 64
5, 69993, Control_c, 0, 64, 96
5, 70014, Control_c, 0, 64, 64
5, 70027, Control_c, 0, 64, 0
5, 70172, Control_c, 0, 64, 64
5, 70265, Control_c, 0, 64, 96
5, 70489, Control_c, 0, 64, 64
5, 70543, Control_c, 0, 64, 96
5, 70681, Control_c, 0, 64, 64
5, 70770, Control_c, 0, 64, 96
5, 70843, Control_c, 0, 64, 64
5, 70975, Control_c, 0, 64, 96
5, 71010, Control_c, 0, 64, 64
5, 71023, Control_c, 0, 64, 0
5, 71089, Control_c, 0, 64, 64
5, 71122, Control_c, 0, 64, 0
5, 71184, Control_c, 0, 64, 64
5, 71198, Control_c, 0, 64, 96
5, 71271, Control_c, 0, 64, 127
5, 71366, Control_c, 0, 64, 96
5, 71387, Control_c, 0, 64, 64
5, 71441, Control_c, 0, 64, 0
5, 71479, Control_c, 0, 64, 64
5, 71492, Control_c, 0, 64, 96
5, 71520, Control_c, 0, 64, 64
5, 71534, Control_c, 0, 64, 0
5, 71654, Control_c, 0, 64, 64
5, 71674, Control_c, 0, 64, 96
5, 71783, Control_c, 0, 64, 64
5, 71795, Control_c, 0, 64, 0
5, 71922, Control_c, 0, 64, 64
5, 71936, Control_c, 0, 64, 127
5, 73560, Control_c, 0, 64, 96
5, 73572, Control_c, 0, 64, 64
5, 73586, Control_c, 0, 64, 0
5, 73655, Control_c, 0, 64, 64
5, 73667, Control_c, 0, 64, 127
5, 75618, Control_c, 0, 64, 96
5, 75631, Control_c, 0, 64, 64
5, 75642, Control_c, 0, 64, 0
5, 75808, Control_c, 0, 64, 64
5, 75820, Control_c, 0, 64, 96
5, 75840, Control_c, 0, 64, 127
5, 76571, Control_c, 0, 64, 96
5, 76583, Control_c, 0, 64, 64
5, 76595, Control_c, 0, 64, 0
5, 76656, Control_c, 0, 64, 64
5, 76668, Control_c, 0, 64, 96
5, 76679, Control_c, 0, 64, 127
5, 77599, Control_c, 0, 64, 96
5, 77610, Control_c, 0, 64, 64
5, 77622, Control_c, 0, 64, 0
5, 77675, Control_c, 0, 64, 64
5, 77687, Control_c, 0, 64, 96
5, 77700, Control_c, 0, 64, 127
5, 78566, Control_c, 0, 64, 96
5, 78578, Control_c, 0, 64, 64
5, 78591, Control_c, 0, 64, 0
5, 78647, Control_c, 0, 64, 64
5, 78660, Control_c, 0, 64, 96
5, 78672, Control_c, 0, 64, 127
5, 79554, Control_c, 0, 64, 96
5, 79566, Control_c, 0, 64, 64
5, 79578, Control_c, 0, 64, 0
5, 79635, Control_c, 0, 64, 64
5, 79648, Control_c, 0, 64, 96
5, 79659, Control_c, 0, 64, 127
5, 85978, Control_c, 0, 64, 96
5, 86007, Control_c, 0, 64, 64
5, 86044, Control_c, 0, 64, 0
5, 86302, Control_c, 0, 64, 64
5, 86329, Control_c, 0, 64, 96
5, 86373, Control_c, 0, 64, 127
5, 88966, Control_c, 0, 64, 96
5, 88986, Control_c, 0, 64, 64
5, 88998, Control_c, 0, 64, 0
5, 91724, Control_c, 0, 64, 64
5, 91746, Control_c, 0, 64, 96
5, 92192, Control_c, 0, 64, 0
5, 93395, Control_c, 0, 64, 64
5, 93557, Control_c, 0, 64, 96
5, 93600, Control_c, 0, 64, 64
5, 93654, Control_c, 0, 64, 0
5, 93776, Control_c, 0, 64, 64
5, 93820, Control_c, 0, 64, 96
5, 93867, Control_c, 0, 64, 127
5, 93988, Control_c, 0, 64, 96
5, 94001, Control_c, 0, 64, 64
5, 94023, Control_c, 0, 64, 0
5, 94409, Control_c, 0, 64, 64
5, 94430, Control_c, 0, 64, 96
5, 94688, Control_c, 0, 64, 127
5, 94834, Control_c, 0, 64, 64
5, 94855, Control_c, 0, 64, 0
5, 95346, Control_c, 0, 64, 64
5, 95550, Control_c, 0, 64, 96
5, 95620, Control_c, 0, 64, 64
5, 95697, Control_c, 0, 64, 96
5, 95847, Control_c, 0, 64, 64
5, 95860, Control_c, 0, 64, 0
5, 95989, Control_c, 0, 64, 64
5, 96002, Control_c, 0, 64, 96
5, 96029, Control_c, 0, 64, 127
5, 96224, Control_c, 0, 64, 96
5, 96275, Control_c, 0, 64, 64
5, 96295, Control_c, 0, 64, 0
5, 96478, Control_c, 0, 64, 64
5, 96520, Control_c, 0, 64, 96
5, 96701, Control_c, 0, 64, 64
5, 96751, Control_c, 0, 64, 0
5, 96951, Control_c, 0, 64, 64
5, 96965, Control_c, 0, 64, 96
5, 96987, Control_c, 0, 64, 127
5, 97189, Control_c, 0, 64, 96
5, 97212, Control_c, 0, 64, 64
5, 97230, Control_c, 0, 64, 0
5, 97927, Control_c, 0, 64, 64
5, 97948, Control_c, 0, 64, 96
5, 98141, Control_c, 0, 64, 64
5, 98341, Control_c, 0, 64, 0
5, 99330, Control_c, 0, 64, 64
5, 99364, Control_c, 0, 64, 96
5, 99451, Control_c, 0, 64, 64
5, 99480, Control_c, 0, 64, 0
5, 99809, Control_c, 0, 64, 96
5, 99905, Control_c, 0, 64, 64
5, 99967, Control_c, 0, 64, 96
5, 100337, Control_c, 0, 64, 64
5, 100358, Control_c, 0, 64, 0
5, 101259, Control_c, 0, 64, 64
5, 101491, Control_c, 0, 64, 96
5, 101610, Control_c, 0, 64, 64
5, 101671, Control_c, 0, 64, 0
5, 101798, Control_c, 0, 64, 64
5, 101812, Control_c, 0, 64, 96
5, 102390, Control_c, 0, 64, 64
5, 102404, Control_c, 0, 64, 0
5, 103745, Control_c, 0, 64, 64
5, 103820, Control_c, 0, 64, 96
5, 104610, Control_c, 0, 64, 0
5, 104691, Control_c, 0, 64, 64
5, 104705, Control_c, 0, 64, 96
5, 104729, Control_c, 0, 64, 64
5, 104962, Control_c, 0, 64, 96
5, 105075, Control_c, 0, 64, 64
5, 105088, Control_c, 0, 64, 0
5, 105659, Control_c, 0, 64, 64
5, 105693, Control_c, 0, 64, 0
5, 106048, Control_c, 0, 64, 64
5, 106062, Control_c, 0, 64, 96
5, 106437, Control_c, 0, 64, 64
5, 106462, Control_c, 0, 64, 0
5, 106539, Control_c, 0, 64, 64
5, 106553, Control_c, 0, 64, 96
5, 107073, Control_c, 0, 64, 64
5, 107085, Control_c, 0, 64, 0
5, 107755, Control_c, 0, 64, 64
5, 107911, Control_c, 0, 64, 0
5, 107989, Control_c, 0, 64, 64
5, 108019, Control_c, 0, 64, 96
5, 108452, Control_c, 0, 64, 64
5, 108466, Control_c, 0, 64, 0
5, 108537, Control_c, 0, 64, 64
5, 108557, Control_c, 0, 64, 96
5, 108888, Control_c, 0, 64, 127
5, 109134, Control_c, 0, 64, 96
5, 109159, Control_c, 0, 64, 64
5, 109313, Control_c, 0, 64, 96
5, 109418, Control_c, 0, 64, 64
5, 109437, Control_c, 0, 64, 0
5, 109517, Control_c, 0, 64, 64
5, 109530, Control_c, 0, 64, 96
5, 109707, Control_c, 0, 64, 127
5, 109895, Control_c, 0, 64, 64
5, 109907, Control_c, 0, 64, 0
5, 109981, Control_c, 0, 64, 64
5, 109999, Control_c, 0, 64, 96
5, 110151, Control_c, 0, 64, 127
5, 110299, Control_c, 0, 64, 96
5, 110329, Control_c, 0, 64, 64
5, 110349, Control_c, 0, 64, 0
5, 115517, Control_c, 0, 64, 64
5, 115639, Control_c, 0, 64, 96
5, 116147, Control_c, 0, 64, 64
5, 116176, Control_c, 0, 64, 0
5, 116225, Control_c, 0, 64, 64
5, 116241, Control_c, 0, 64, 96
5, 116637, Control_c, 0, 64, 64
5, 116666, Control_c, 0, 64, 0
5, 117148, Control_c, 0, 64, 64
5, 117161, Control_c, 0, 64, 96
5, 117480, Control_c, 0, 64, 64
5, 117527, Control_c, 0, 64, 0
5, 117907, Control_c, 0, 64, 64
5, 118084, Control_c, 0, 64, 96
5, 118416, Control_c, 0, 64, 64
5, 118766, Control_c, 0, 64, 96
5, 118923, Control_c, 0, 64, 64
5, 119045, Control_c, 0, 64, 96
5, 119078, Control_c, 0, 64, 64
5, 119204, Control_c, 0, 64, 96
5, 119735, Control_c, 0, 64, 64
5, 119819, Control_c, 0, 64, 96
5, 119973, Control_c, 0, 64, 64
5, 120004, Control_c, 0, 64, 0
5, 120049, Control_c, 0, 64, 64
5, 120083, Control_c, 0, 64, 96
5, 120240, Control_c, 0, 64, 64
5, 120322, Control_c, 0, 64, 96
5, 120442, Control_c, 0, 64, 64
5, 120581, Control_c, 0, 64, 96
5, 120745, Control_c, 0, 64, 64
5, 120795, Control_c, 0, 64, 96
5, 120879, Control_c, 0, 64, 64
5, 120914, Control_c, 0, 64, 0
5, 121001, Control_c, 0, 64, 64
5, 121014, Control_c, 0, 64, 96
5, 121358, Control_c, 0, 64, 64
5, 121370, Control_c, 0, 64, 0
5, 121964, Control_c, 0, 64, 64
5, 121987, Control_c, 0, 64, 96
5, 122371, Control_c, 0, 64, 64
5, 122391, Control_c, 0, 64, 0
5, 122911, Control_c, 0, 64, 64
5, 122924, Control_c, 0, 64, 96
5, 123343, Control_c, 0, 64, 64
5, 123380, Control_c, 0, 64, 0
5, 123414, Control_c, 0, 64, 64
5, 123525, Control_c, 0, 64, 0
5, 123637, Control_c, 0, 64, 64
5, 123747, Control_c, 0, 64, 96
5, 123832, Control_c, 0, 64, 64
5, 123874, Control_c, 0, 64, 0
5, 123894, Control_c, 0, 64, 64
5, 123917, Control_c, 0, 64, 96
5, 124041, Control_c, 0, 64, 64
5, 124061, Control_c, 0, 64, 0
5, 124117, Control_c, 0, 64, 64
5, 124130, Control_c, 0, 64, 96
5, 124266, Control_c, 0, 64, 64
5, 124292, Control_c, 0, 64, 0
5, 124351, Control_c, 0, 64, 64
5, 124362, Control_c, 0, 64, 96
5, 124382, Control_c, 0, 64, 64
5, 124468, Control_c, 0, 64, 0
5, 125017, Control_c, 0, 64, 64
5, 125249, Control_c, 0, 64, 0
5, 125281, Control_c, 0, 64, 64
5, 125609, Control_c, 0, 64, 0
5, 125761, Control_c, 0, 64, 64
5, 125802, Control_c, 0, 64, 96
5, 125812, Control_c, 0, 64, 127
5, 126080, Control_c, 0, 64, 96
5, 126101, Control_c, 0, 64, 64
5, 126123, Control_c, 0, 64, 0
5, 127006, Control_c, 0, 64, 64
5, 127075, Control_c, 0, 64, 0
5, 127646, Control_c, 0, 64, 64
5, 127658, Control_c, 0, 64, 96
5, 127669, Control_c, 0, 64, 127
5, 127877, Control_c, 0, 64, 96
5, 127918, Control_c, 0, 64, 64
5, 127934, Control_c, 0, 64, 0
5, 132559, Control_c, 0, 64, 64
5, 132572, Control_c, 0, 64, 96
5, 132584, Control_c, 0, 64, 127
5, 134726, Control_c, 0, 64, 96
5, 134746, Control_c, 0, 64, 64
5, 134778, Control_c, 0, 64, 0
5, 138746, Control_c, 0, 64, 64
5, 138988, Control_c, 0, 64, 96
5, 139166, Control_c, 0, 64, 127
5, 139297, Control_c, 0, 64, 96
5, 139344, Control_c, 0, 64, 64
5, 139357, Control_c, 0, 64, 0
5, 141498, Control_c, 0, 64, 64
5, 141845, Control_c, 0, 64, 0
5, 143258, Control_c, 0, 64, 64
5, 143316, Control_c, 0, 64, 96
5, 143553, Control_c, 0, 64, 127
5, 143677, Control_c, 0, 64, 96
5, 143698, Control_c, 0, 64, 64
5, 143723, Control_c, 0, 64, 0
5, 143803, Control_c, 0, 64, 64
5, 143853, Control_c, 0, 64, 96
5, 144109, Control_c, 0, 64, 64
5, 144133, Control_c, 0, 64, 0
5, 144366, Control_c, 0, 64, 64
5, 144397, Control_c, 0, 64, 96
5, 144812, Control_c, 0, 64, 64
5, 144870, Control_c, 0, 64, 0
5, 145002, Control_c, 0, 64, 64
5, 145025, Control_c, 0, 64, 96
5, 145228, Control_c, 0, 64, 64
5, 145248, Control_c, 0, 64, 0
5, 147064, Control_c, 0, 64, 64
5, 147143, Control_c, 0, 64, 96
5, 147282, Control_c, 0, 64, 64
5, 147337, Control_c, 0, 64, 0
5, 147513, Control_c, 0, 64, 64
5, 147527, Control_c, 0, 64, 96
5, 147606, Control_c, 0, 64, 127
5, 147697, Control_c, 0, 64, 96
5, 147748, Control_c, 0, 64, 64
5, 147789, Control_c, 0, 64, 0
5, 148018, Control_c, 0, 64, 64
5, 148034, Control_c, 0, 64, 96
5, 148236, Control_c, 0, 64, 64
5, 148260, Control_c, 0, 64, 0
5, 148886, Control_c, 0, 64, 64
5, 148960, Control_c, 0, 64, 96
5, 148983, Control_c, 0, 64, 127
5, 149137, Control_c, 0, 64, 96
5, 149192, Control_c, 0, 64, 64
5, 149213, Control_c, 0, 64, 0
5, 149387, Control_c, 0, 64, 64
5, 149418, Control_c, 0, 64, 96
5, 149480, Control_c, 0, 64, 127
5, 149624, Control_c, 0, 64, 96
5, 149666, Control_c, 0, 64, 64
5, 149707, Control_c, 0, 64, 0
5, 149909, Control_c, 0, 64, 64
5, 149921, Control_c, 0, 64, 96
5, 149973, Control_c, 0, 64, 127
5, 150126, Control_c, 0, 64, 96
5, 150152, Control_c, 0, 64, 64
5, 150181, Control_c, 0, 64, 0
5, 150795, Control_c, 0, 64, 64
5, 150869, Control_c, 0, 64, 96
5, 151047, Control_c, 0, 64, 64
5, 151079, Control_c, 0, 64, 0
5, 151310, Control_c, 0, 64, 64
5, 151342, Control_c, 0, 64, 96
5, 151371, Control_c, 0, 64, 127
5, 151631, Control_c, 0, 64, 96
5, 151656, Control_c, 0, 64, 64
5, 151687, Control_c, 0, 64, 0
5, 151835, Control_c, 0, 64, 64
5, 151858, Control_c, 0, 64, 96
5, 151941, Control_c, 0, 64, 127
5, 152044, Control_c, 0, 64, 96
5, 152094, Control_c, 0, 64, 64
5, 152130, Control_c, 0, 64, 0
5, 152781, Control_c, 0, 64, 64
5, 152796, Control_c, 0, 64, 96
5, 152999, Control_c, 0, 64, 64
5, 153036, Control_c, 0, 64, 0
5, 153202, Control_c, 0, 64, 64
5, 153215, Control_c, 0, 64, 96
5, 153531, Control_c, 0, 64, 64
5, 153569, Control_c, 0, 64, 0
5, 153750, Control_c, 0, 64, 64
5, 153763, Control_c, 0, 64, 96
5, 154040, Control_c, 0, 64, 64
5, 154108, Control_c, 0, 64, 0
5, 154627, Control_c, 0, 64, 64
5, 154643, Control_c, 0, 64, 96
5, 154703, Control_c, 0, 64, 127
5, 154772, Control_c, 0, 64, 96
5, 154784, Control_c, 0, 64, 64
5, 154808, Control_c, 0, 64, 0
5, 157763, Control_c, 0, 64, 64
5, 157834, Control_c, 0, 64, 96
5, 157951, Control_c, 0, 64, 64
5, 158027, Control_c, 0, 64, 96
5, 158126, Control_c, 0, 64, 127
5, 158330, Control_c, 0, 64, 96
5, 158360, Control_c, 0, 64, 64
5, 158390, Control_c, 0, 64, 0
5, 159392, Control_c, 0, 64, 64
5, 159501, Control_c, 0, 64, 0
5, 159606, Control_c, 0, 64, 64
5, 159621, Control_c, 0, 64, 96
5, 159734, Control_c, 0, 64, 64
5, 159805, Control_c, 0, 64, 0
5, 159860, Control_c, 0, 64, 64
5, 159881, Control_c, 0, 64, 96
5, 159925, Control_c, 0, 64, 64
5, 159938, Control_c, 0, 64, 0
5, 160140, Control_c, 0, 64, 64
5, 160168, Control_c, 0, 64, 96
5, 160226, Control_c, 0, 64, 64
5, 160284, Control_c, 0, 64, 0
5, 160413, Control_c, 0, 64, 64
5, 160425, Control_c, 0, 64, 96
5, 160448, Control_c, 0, 64, 127
5, 160505, Control_c, 0, 64, 96
5, 160529, Control_c, 0, 64, 64
5, 160569, Control_c, 0, 64, 0
5, 160649, Control_c, 0, 64, 96
5, 160713, Control_c, 0, 64, 64
5, 160743, Control_c, 0, 64, 0
5, 160887, Control_c, 0, 64, 64
5, 160909, Control_c, 0, 64, 96
5, 160977, Control_c, 0, 64, 64
5, 161010, Control_c, 0, 64, 0
5, 161133, Control_c, 0, 64, 64
5, 161159, Control_c, 0, 64, 96
5, 161224, Control_c, 0, 64, 64
5, 161256, Control_c, 0, 64, 0
5, 161371, Control_c, 0, 64, 64
5, 161405, Control_c, 0, 64, 96
5, 162278, Control_c, 0, 64, 64
5, 162291, Control_c, 0, 64, 0
5, 162377, Control_c, 0, 64, 64
5, 162513, Control_c, 0, 64, 96
5, 163024, Control_c, 0, 64, 64
5, 163085, Control_c, 0, 64, 0
5, 163179, Control_c, 0, 64, 64
5, 163192, Control_c, 0, 64, 127
5, 164934, Control_c, 0, 64, 96
5, 164946, Control_c, 0, 64, 64
5, 164959, Control_c, 0, 64, 0
5, 165052, Control_c, 0, 64, 64
5, 165072, Control_c, 0, 64, 96
5, 165126, Control_c, 0, 64, 127
5, 166916, Control_c, 0, 64, 96
5, 166928, Control_c, 0, 64, 64
5, 166940, Control_c, 0, 64, 0
5, 167029, Control_c, 0, 64, 64
5, 167052, Control_c, 0, 64, 96
5, 167120, Control_c, 0, 64, 127
5, 167885, Control_c, 0, 64, 96
5, 167898, Control_c, 0, 64, 64
5, 167910, Control_c, 0, 64, 0
5, 167988, Control_c, 0, 64, 64
5, 168000, Control_c, 0, 64, 96
5, 168050, Control_c, 0, 64, 127
5, 168869, Control_c, 0, 64, 96
5, 168881, Control_c, 0, 64, 64
5, 168893, Control_c, 0, 64, 0
5, 168980, Control_c, 0, 64, 64
5, 168993, Control_c, 0, 64, 96
5, 169013, Control_c, 0, 64, 127
5, 169968, Control_c, 0, 64, 96
5, 169980, Control_c, 0, 64, 64
5, 169992, Control_c, 0, 64, 0
5, 170061, Control_c, 0, 64, 64
5, 170073, Control_c, 0, 64, 96
5, 170111, Control_c, 0, 64, 127
5, 170835, Control_c, 0, 64, 96
5, 170848, Control_c, 0, 64, 64
5, 170869, Control_c, 0, 64, 0
5, 170964, Control_c, 0, 64, 64
5, 170977, Control_c, 0, 64, 96
5, 171449, Control_c, 0, 64, 127
5, 177075, Control_c, 0, 64, 96
5, 177102, Control_c, 0, 64, 64
5, 177139, Control_c, 0, 64, 0
5, 177582, Control_c, 0, 64, 64
5, 177616, Control_c, 0, 64, 96
5, 177709, Control_c, 0, 64, 127
5, 180487, Control_c, 0, 64, 96
5, 180506, Control_c, 0, 64, 64
5, 180526, Control_c, 0, 64, 0
5, 181544, Control_c, 0, 64, 64
5, 181651, Control_c, 0, 64, 0
5, 182905, Control_c, 0, 64, 64
5, 182992, Control_c, 0, 64, 96
5, 183220, Control_c, 0, 64, 127
5, 183478, Control_c, 0, 64, 96
5, 183498, Control_c, 0, 64, 64
5, 183511, Control_c, 0, 64, 0
5, 184504, Control_c, 0, 64, 64
5, 184656, Control_c, 0, 64, 96
5, 184773, Control_c, 0, 64, 127
5, 184886, Control_c, 0, 64, 96
5, 184916, Control_c, 0, 64, 64
5, 185001, Control_c, 0, 64, 0
5, 185418, Control_c, 0, 64, 64
5, 185604, Control_c, 0, 64, 96
5, 185699, Control_c, 0, 64, 127
5, 186048, Control_c, 0, 64, 96
5, 186069, Control_c, 0, 64, 64
5, 186087, Control_c, 0, 64, 0
5, 186628, Control_c, 0, 64, 64
5, 186883, Control_c, 0, 64, 96
5, 187061, Control_c, 0, 64, 64
5, 187082, Control_c, 0, 64, 0
5, 187188, Control_c, 0, 64, 64
5, 187200, Control_c, 0, 64, 96
5, 187236, Control_c, 0, 64, 127
5, 187560, Control_c, 0, 64, 96
5, 187697, Control_c, 0, 64, 64
5, 187919, Control_c, 0, 64, 96
5, 187999, Control_c, 0, 64, 64
5, 188091, Control_c, 0, 64, 0
5, 188209, Control_c, 0, 64, 64
5, 188243, Control_c, 0, 64, 0
5, 188396, Control_c, 0, 64, 64
5, 188455, Control_c, 0, 64, 96
5, 188557, Control_c, 0, 64, 64
5, 188586, Control_c, 0, 64, 0
5, 189288, Control_c, 0, 64, 64
5, 189387, Control_c, 0, 64, 96
5, 189569, Control_c, 0, 64, 64
5, 189589, Control_c, 0, 64, 0
5, 190536, Control_c, 0, 64, 64
5, 190777, Control_c, 0, 64, 0
5, 190966, Control_c, 0, 64, 64
5, 191189, Control_c, 0, 64, 96
5, 191437, Control_c, 0, 64, 64
5, 191481, Control_c, 0, 64, 0
5, 192409, Control_c, 0, 64, 64
5, 192487, Control_c, 0, 64, 96
5, 192900, Control_c, 0, 64, 64
5, 192932, Control_c, 0, 64, 0
5, 192998, Control_c, 0, 64, 96
5, 193019, Control_c, 0, 64, 127
5, 193060, Control_c, 0, 64, 96
5, 193116, Control_c, 0, 64, 64
5, 193196, Control_c, 0, 64, 96
5, 193496, Control_c, 0, 64, 127
5, 193599, Control_c, 0, 64, 96
5, 193611, Control_c, 0, 64, 64
5, 193623, Control_c, 0, 64, 0
5, 194927, Control_c, 0, 64, 64
5, 195203, Control_c, 0, 64, 96
5, 195504, Control_c, 0, 64, 127
5, 195834, Control_c, 0, 64, 96
5, 195866, Control_c, 0, 64, 64
5, 195880, Control_c, 0, 64, 0
5, 197309, Control_c, 0, 64, 64
5, 197344, Control_c, 0, 64, 96
5, 197654, Control_c, 0, 64, 127
5, 197853, Control_c, 0, 64, 96
5, 197873, Control_c, 0, 64, 64
5, 197903, Control_c, 0, 64, 96
5, 197924, Control_c, 0, 64, 127
5, 198203, Control_c, 0, 64, 96
5, 198231, Control_c, 0, 64, 64
5, 198244, Control_c, 0, 64, 0
5, 199166, Control_c, 0, 64, 64
5, 199179, Control_c, 0, 64, 96
5, 199556, Control_c, 0, 64, 127
5, 199649, Control_c, 0, 64, 96
5, 199663, Control_c, 0, 64, 0
5, 199719, Control_c, 0, 64, 64
5, 199733, Control_c, 0, 64, 96
5, 199760, Control_c, 0, 64, 127
5, 200265, Control_c, 0, 64, 96
5, 200277, Control_c, 0, 64, 64
5, 200318, Control_c, 0, 64, 0
5, 200639, Control_c, 0, 64, 64
5, 200666, Control_c, 0, 64, 96
5, 200691, Control_c, 0, 64, 127
5, 201101, Control_c, 0, 64, 0
5, 201168, Control_c, 0, 64, 64
5, 201180, Control_c, 0, 64, 96
5, 201207, Control_c, 0, 64, 127
5, 201483, Control_c, 0, 64, 96
5, 201509, Control_c, 0, 64, 64
5, 201521, Control_c, 0, 64, 0
5, 201589, Control_c, 0, 64, 64
5, 201603, Control_c, 0, 64, 96
5, 201645, Control_c, 0, 64, 127
5, 201690, Control_c, 0, 64, 96
5, 201703, Control_c, 0, 64, 64
5, 201728, Control_c, 0, 64, 0
5, 206907, Control_c, 0, 64, 64
5, 207020, Control_c, 0, 64, 96
5, 207109, Control_c, 0, 64, 127
5, 207420, Control_c, 0, 64, 96
5, 207438, Control_c, 0, 64, 64
5, 207450, Control_c, 0, 64, 0
5, 207497, Control_c, 0, 64, 64
5, 207573, Control_c, 0, 64, 96
5, 207829, Control_c, 0, 64, 64
5, 207844, Control_c, 0, 64, 0
5, 208120, Control_c, 0, 64, 64
5, 208220, Control_c, 0, 64, 0
5, 208353, Control_c, 0, 64, 64
5, 208364, Control_c, 0, 64, 96
5, 208400, Control_c, 0, 64, 127
5, 208779, Control_c, 0, 64, 96
5, 208802, Control_c, 0, 64, 64
5, 208842, Control_c, 0, 64, 0
5, 209273, Control_c, 0, 64, 64
5, 209307, Control_c, 0, 64, 96
5, 209319, Control_c, 0, 64, 127
5, 209837, Control_c, 0, 64, 96
5, 209865, Control_c, 0, 64, 64
5, 210059, Control_c, 0, 64, 0
5, 210228, Control_c, 0, 64, 64
5, 210439, Control_c, 0, 64, 96
5, 210609, Control_c, 0, 64, 127
5, 210757, Control_c, 0, 64, 96
5, 210808, Control_c, 0, 64, 64
5, 210863, Control_c, 0, 64, 0
5, 210921, Control_c, 0, 64, 64
5, 210990, Control_c, 0, 64, 96
5, 211094, Control_c, 0, 64, 64
5, 211123, Control_c, 0, 64, 0
5, 211199, Control_c, 0, 64, 64
5, 211267, Control_c, 0, 64, 96
5, 211654, Control_c, 0, 64, 64
5, 211675, Control_c, 0, 64, 0
5, 211730, Control_c, 0, 64, 64
5, 211756, Control_c, 0, 64, 96
5, 212032, Control_c, 0, 64, 64
5, 212068, Control_c, 0, 64, 0
5, 212204, Control_c, 0, 64, 64
5, 212217, Control_c, 0, 64, 96
5, 212268, Control_c, 0, 64, 127
5, 212556, Control_c, 0, 64, 64
5, 212576, Control_c, 0, 64, 0
5, 213152, Control_c, 0, 64, 64
5, 213164, Control_c, 0, 64, 96
5, 213185, Control_c, 0, 64, 127
5, 213599, Control_c, 0, 64, 96
5, 213623, Control_c, 0, 64, 64
5, 213637, Control_c, 0, 64, 0
5, 214007, Control_c, 0, 64, 64
5, 214042, Control_c, 0, 64, 96
5, 214070, Control_c, 0, 64, 127
5, 214520, Control_c, 0, 64, 96
5, 214532, Control_c, 0, 64, 64
5, 214544, Control_c, 0, 64, 0
5, 215640, Control_c, 0, 64, 64
5, 215961, Control_c, 0, 64, 0
5, 216217, Control_c, 0, 64, 64
5, 216822, Control_c, 0, 64, 0
5, 217002, Control_c, 0, 64, 127
5, 217205, Control_c, 0, 64, 96
5, 217223, Control_c, 0, 64, 64
5, 217245, Control_c, 0, 64, 0
5, 218920, Control_c, 0, 64, 127
5, 219109, Control_c, 0, 64, 96
5, 219136, Control_c, 0, 64, 64
5, 219148, Control_c, 0, 64, 0
5, 220771, Control_c, 0, 64, 64
5, 220904, Control_c, 0, 64, 0
5, 223314, Control_c, 0, 64, 64
5, 223355, Control_c, 0, 64, 96
5, 223539, Control_c, 0, 64, 64
5, 223593, Control_c, 0, 64, 0
5, 224149, Control_c, 0, 64, 64
5, 224160, Control_c, 0, 64, 96
5, 224198, Control_c, 0, 64, 127
5, 224320, Control_c, 0, 64, 96
5, 224341, Control_c, 0, 64, 64
5, 224471, Control_c, 0, 64, 0
5, 225690, Control_c, 0, 64, 64
5, 225870, Control_c, 0, 64, 96
5, 226045, Control_c, 0, 64, 64
5, 226058, Control_c, 0, 64, 0
5, 251463, Control_c, 0, 64, 64
5, 251563, Control_c, 0, 64, 96
5, 251814, Control_c, 0, 64, 127
5, 251980, Control_c, 0, 64, 96
5, 252000, Control_c, 0, 64, 0
5, 252083, Control_c, 0, 64, 64
5, 252100, Control_c, 0, 64, 127
5, 252933, Control_c, 0, 64, 64
5, 252950, Control_c, 0, 64, 0
5, 253005, Control_c, 0, 64, 64
5, 253025, Control_c, 0, 64, 127
5, 253889, Control_c, 0, 64, 96
5, 253905, Control_c, 0, 64, 64
5, 253926, Control_c, 0, 64, 0
5, 253963, Control_c, 0, 64, 64
5, 253981, Control_c, 0, 64, 127
5, 254828, Control_c, 0, 64, 96
5, 254850, Control_c, 0, 64, 0
5, 254893, Control_c, 0, 64, 64
5, 254919, Control_c, 0, 64, 127
5, 255304, Control_c, 0, 64, 96
5, 255328, Control_c, 0, 64, 0
5, 255381, Control_c, 0, 64, 64
5, 255400, Control_c, 0, 64, 127
5, 255755, Control_c, 0, 64, 64
5, 255771, Control_c, 0, 64, 0
5, 255830, Control_c, 0, 64, 64
5, 255848, Control_c, 0, 64, 127
5, 256236, Control_c, 0, 64, 96
5, 256252, Control_c, 0, 64, 0
5, 256316, Control_c, 0, 64, 64
5, 256344, Control_c, 0, 64, 127
5, 262588, Control_c, 0, 64, 96
5, 262744, Control_c, 0, 64, 64
5, 262784, Control_c, 0, 64, 0
5, 262784, End_track
6, 0, Start_track
6, 0, Title_t, "3rd Mvmt of Beethoven's"
6, 0, End_track
7, 0, Start_track
7, 0, Title_t, "Piano Sonata #23"
7, 0, End_track
8, 0, Start_track
8, 0, Title_t, "Created by Jeff Segor"
8, 0, End_track
9, 0, Start_track
9, 0, Title_t, "sloweater@aol.com"
9, 0, End_track
10, 0, Start_track
10, 0, Title_t, "CompuServe 73020,461"
10, 0, End_track
11, 0, Start_track
11, 0, Title_t, "Performed on Technics PX66"
11, 0, End_track
0, 0, End_of_file