0, 0, Header, 1, 19, 120
1, 0, Start_track
1, 0, Title_t, "Symphony n\260 1 in C major"
1, 0, Title_t, "I - Adagio molto - Allegro con brio"
1, 0, Copyright_t, "Copyright \251 2001 by J.F. Lucarelli - j-f.lucarelli@infonie.be  --  http://perso.infonie.fr/espace-midi"
1, 0, Text_t, "L. Van Beethoven (1770-1827)"
1, 0, Text_t, "Partition compl\350te - dur\351e : 00:08:51\012"
1, 0, Text_t, "D\351but du travail : 9 septembre 2000\012"
1, 0, Text_t, "Fin de la version 0 : 24 octobre 2000\012"
1, 0, Text_t, "Version 1.0 : 31 janvier 2001\012"
1, 0, Text_t, "Version 1.01 : 2 juin 2001 : r\351vision avant publication\012"
1, 0, Text_t, "Version 1.02 : 4 juin 2001 : balance des bois\012"
1, 0, Text_t, "Dur\351e d'\351dition et d'audition : 25 h\012"
1, 0, Text_t, "-----\012"
1, 0, Text_t, "Full score - length : 00:08:51\012"
1, 0, Text_t, "Beginning of writing : 9 september 2000\012"
1, 0, Text_t, "End of version 0 : 24 october 2000\012"
1, 0, Text_t, "Version 1.0 : 31 january 2001\012"
1, 0, Text_t, "Version 1.01 : 2 juni 2001 : revision before publication\012"
1, 0, Text_t, "Version 1.02 : 4 juni 2001 : balance of woodwinds\012"
1, 0, Text_t, "Editing and audition time : 25 h\012"
1, 0, Time_signature, 4, 2, 24, 8
1, 0, Key_signature, 0, "major"
1, 0, Tempo, 500000
1, 0, Marker_t, "L. Van Beethoven : Symphony n\260 1 in C"
1, 480, Tempo, 1500000
1, 480, Marker_t, "I : Adagio molto - Allegro con brio"
1, 2100, Tempo, 1714286
1, 2280, Tempo, 1600000
1, 2400, Tempo, 1481481
1, 2490, Tempo, 1666667
1, 2520, Tempo, 1481481
1, 2850, Tempo, 1739130
1, 2880, Tempo, 1463415
1, 3330, Tempo, 1714286
1, 3360, Tempo, 1411765
1, 3720, Tempo, 1445783
1, 3780, Tempo, 1518987
1, 3810, Tempo, 1690141
1, 3840, Tempo, 1739130
1, 3960, Tempo, 1578947
1, 4080, Tempo, 1739130
1, 4200, Tempo, 1578947
1, 4305, Tempo, 1904762
1, 4320, Tempo, 1481481
1, 4770, Tempo, 1739130
1, 4800, Tempo, 1846154
1, 4920, Tempo, 1643836
1, 5040, Tempo, 1818182
1, 5160, Tempo, 1621622
1, 5265, Tempo, 2033898
1, 5280, Tempo, 1518987
1, 5520, Tempo, 1538462
1, 5640, Tempo, 1643836
1, 5760, Tempo, 1411765
1, 5940, Tempo, 1600000
1, 5965, Tempo, 1875000
1, 6000, Tempo, 1318681
1, 6120, Tempo, 1643836
1, 6180, Tempo, 750000
1, 6225, Tempo, 1538462
1, 6240, Tempo, 402685
1, 6240, Marker_t, "Allegro con brio"
1, 6360, Tempo, 330579
1, 6480, Tempo, 291971
1, 6720, Tempo, 303030
1, 6960, Tempo, 281690
1, 7200, Tempo, 303030
1, 7440, Tempo, 281690
1, 7680, Tempo, 303030
1, 7920, Tempo, 281690
1, 8160, Tempo, 303030
1, 8400, Tempo, 281690
1, 8640, Tempo, 303030
1, 8880, Tempo, 281690
1, 9120, Tempo, 303030
1, 9360, Tempo, 281690
1, 9600, Tempo, 303030
1, 9840, Tempo, 281690
1, 10080, Tempo, 303030
1, 10320, Tempo, 281690
1, 10560, Tempo, 303030
1, 10800, Tempo, 281690
1, 11040, Tempo, 303030
1, 11280, Tempo, 281690
1, 11520, Tempo, 303030
1, 11760, Tempo, 281690
1, 12000, Tempo, 303030
1, 12240, Tempo, 281690
1, 12480, Tempo, 303030
1, 12720, Tempo, 281690
1, 12960, Tempo, 303030
1, 13200, Tempo, 281690
1, 13440, Tempo, 303030
1, 13680, Tempo, 281690
1, 13920, Tempo, 303030
1, 14160, Tempo, 281690
1, 14400, Tempo, 303030
1, 14640, Tempo, 281690
1, 14880, Tempo, 303030
1, 15120, Tempo, 281690
1, 15360, Tempo, 303030
1, 15600, Tempo, 281690
1, 15780, Tempo, 326975
1, 15840, Tempo, 303030
1, 16080, Tempo, 281690
1, 16320, Tempo, 303030
1, 16560, Tempo, 281690
1, 16800, Tempo, 303030
1, 17040, Tempo, 281690
1, 17280, Tempo, 303030
1, 17520, Tempo, 281690
1, 17760, Tempo, 303030
1, 18000, Tempo, 281690
1, 18240, Tempo, 303030
1, 18480, Tempo, 281690
1, 18720, Tempo, 303030
1, 18960, Tempo, 281690
1, 19200, Tempo, 303030
1, 19440, Tempo, 281690
1, 19680, Tempo, 303030
1, 19920, Tempo, 281690
1, 21600, Tempo, 303030
1, 21840, Tempo, 281690
1, 22080, Tempo, 303030
1, 22320, Tempo, 281690
1, 22560, Tempo, 303030
1, 22800, Tempo, 281690
1, 23040, Tempo, 303030
1, 23280, Tempo, 281690
1, 23520, Tempo, 303030
1, 23760, Tempo, 281690
1, 24000, Tempo, 303030
1, 24240, Tempo, 281690
1, 24480, Tempo, 303030
1, 24720, Tempo, 281690
1, 24960, Tempo, 303030
1, 25200, Tempo, 352941
1, 25440, Tempo, 319149
1, 25680, Tempo, 302267
1, 25920, Tempo, 310881
1, 26160, Tempo, 295567
1, 26400, Tempo, 310881
1, 26640, Tempo, 295567
1, 26880, Tempo, 310881
1, 27120, Tempo, 295567
1, 27360, Tempo, 310881
1, 27600, Tempo, 295567
1, 27840, Tempo, 310881
1, 28080, Tempo, 295567
1, 28320, Tempo, 310881
1, 28560, Tempo, 295567
1, 28800, Tempo, 310881
1, 28920, Tempo, 316623
1, 29040, Tempo, 303797
1, 29280, Tempo, 310881
1, 29520, Tempo, 295567
1, 29760, Tempo, 310881
1, 30000, Tempo, 295567
1, 30240, Tempo, 310881
1, 30480, Tempo, 295567
1, 30720, Tempo, 310881
1, 30960, Tempo, 295567
1, 31200, Tempo, 307692
1, 31440, Tempo, 292683
1, 31680, Tempo, 306122
1, 31920, Tempo, 291971
1, 32160, Tempo, 303030
1, 32400, Tempo, 289157
1, 32640, Tempo, 300000
1, 32880, Tempo, 285714
1, 33120, Tempo, 303030
1, 33360, Tempo, 281690
1, 33600, Tempo, 303030
1, 33840, Tempo, 281690
1, 34080, Tempo, 303030
1, 34320, Tempo, 281690
1, 34560, Tempo, 303030
1, 34800, Tempo, 281690
1, 35040, Tempo, 303030
1, 35280, Tempo, 281690
1, 35520, Tempo, 303030
1, 35760, Tempo, 281690
1, 36480, Tempo, 303030
1, 36720, Tempo, 291971
1, 36900, Tempo, 375000
1, 36960, Tempo, 321716
1, 37200, Tempo, 306122
1, 37440, Tempo, 310881
1, 37680, Tempo, 295567
1, 37920, Tempo, 310881
1, 38160, Tempo, 295567
1, 38400, Tempo, 310881
1, 38640, Tempo, 295567
1, 38880, Tempo, 310881
1, 39120, Tempo, 300752
1, 39300, Tempo, 352941
1, 39360, Tempo, 314961
1, 39600, Tempo, 301508
1, 39840, Tempo, 315789
1, 40080, Tempo, 301508
1, 40320, Tempo, 315789
1, 40560, Tempo, 300000
1, 40740, Tempo, 347826
1, 40800, Tempo, 310881
1, 41040, Tempo, 292683
1, 41280, Tempo, 305344
1, 41520, Tempo, 289855
1, 41760, Tempo, 302267
1, 42000, Tempo, 285714
1, 42180, Tempo, 338028
1, 42240, Tempo, 303030
1, 42480, Tempo, 281690
1, 42720, Tempo, 303030
1, 42960, Tempo, 281690
1, 43200, Tempo, 303030
1, 43440, Tempo, 281690
1, 43680, Tempo, 303030
1, 43920, Tempo, 281690
1, 44160, Tempo, 303030
1, 44400, Tempo, 281690
1, 44640, Tempo, 303030
1, 44880, Tempo, 281690
1, 45120, Tempo, 303030
1, 45360, Tempo, 281690
1, 45600, Tempo, 303030
1, 45840, Tempo, 281690
1, 46080, Tempo, 303030
1, 46320, Tempo, 281690
1, 46560, Tempo, 303030
1, 46800, Tempo, 281690
1, 47040, Tempo, 303030
1, 47280, Tempo, 281690
1, 47520, Tempo, 303030
1, 47760, Tempo, 281690
1, 48000, Tempo, 303030
1, 48240, Tempo, 291262
1, 48480, Tempo, 303030
1, 48720, Tempo, 292683
1, 48960, Tempo, 303030
1, 49200, Tempo, 292683
1, 49440, Tempo, 303030
1, 49680, Tempo, 292683
1, 49920, Tempo, 301508
1, 50160, Tempo, 291971
1, 50400, Tempo, 301508
1, 50640, Tempo, 291971
1, 50880, Tempo, 301508
1, 51120, Tempo, 316623
1, 51360, Tempo, 324324
1, 51840, Tempo, 331492
1, 52320, Tempo, 318302
1, 52680, Tempo, 355030
1, 52800, Tempo, 402685
1, 52920, Tempo, 330579
1, 53040, Tempo, 291971
1, 53280, Tempo, 303030
1, 53520, Tempo, 281690
1, 53760, Tempo, 303030
1, 54000, Tempo, 281690
1, 54240, Tempo, 303030
1, 54480, Tempo, 281690
1, 54720, Tempo, 303030
1, 54960, Tempo, 281690
1, 55200, Tempo, 303030
1, 55440, Tempo, 281690
1, 55680, Tempo, 303030
1, 55920, Tempo, 281690
1, 56160, Tempo, 303030
1, 56400, Tempo, 281690
1, 56640, Tempo, 303030
1, 56880, Tempo, 281690
1, 57120, Tempo, 303030
1, 57360, Tempo, 281690
1, 57600, Tempo, 303030
1, 57840, Tempo, 281690
1, 58080, Tempo, 303030
1, 58320, Tempo, 281690
1, 58560, Tempo, 303030
1, 58800, Tempo, 281690
1, 59040, Tempo, 303030
1, 59280, Tempo, 281690
1, 59520, Tempo, 303030
1, 59760, Tempo, 281690
1, 60000, Tempo, 303030
1, 60240, Tempo, 281690
1, 60480, Tempo, 303030
1, 60720, Tempo, 281690
1, 60960, Tempo, 303030
1, 61200, Tempo, 281690
1, 61440, Tempo, 303030
1, 61680, Tempo, 281690
1, 61920, Tempo, 303030
1, 62160, Tempo, 281690
1, 62340, Tempo, 326975
1, 62400, Tempo, 303030
1, 62640, Tempo, 281690
1, 62880, Tempo, 303030
1, 63120, Tempo, 281690
1, 63360, Tempo, 303030
1, 63600, Tempo, 281690
1, 63840, Tempo, 303030
1, 64080, Tempo, 281690
1, 64320, Tempo, 303030
1, 64560, Tempo, 281690
1, 64800, Tempo, 303030
1, 65040, Tempo, 281690
1, 65280, Tempo, 303030
1, 65520, Tempo, 281690
1, 65760, Tempo, 303030
1, 66000, Tempo, 281690
1, 66240, Tempo, 303030
1, 66480, Tempo, 281690
1, 68160, Tempo, 303030
1, 68400, Tempo, 281690
1, 68640, Tempo, 303030
1, 68880, Tempo, 281690
1, 69120, Tempo, 303030
1, 69360, Tempo, 281690
1, 69600, Tempo, 303030
1, 69840, Tempo, 281690
1, 70080, Tempo, 303030
1, 70320, Tempo, 281690
1, 70560, Tempo, 303030
1, 70800, Tempo, 281690
1, 71040, Tempo, 303030
1, 71280, Tempo, 281690
1, 71520, Tempo, 303030
1, 71760, Tempo, 352941
1, 72000, Tempo, 319149
1, 72240, Tempo, 302267
1, 72480, Tempo, 310881
1, 72720, Tempo, 295567
1, 72960, Tempo, 310881
1, 73200, Tempo, 295567
1, 73440, Tempo, 310881
1, 73680, Tempo, 295567
1, 73920, Tempo, 310881
1, 74160, Tempo, 295567
1, 74400, Tempo, 310881
1, 74640, Tempo, 295567
1, 74880, Tempo, 310881
1, 75120, Tempo, 295567
1, 75360, Tempo, 310881
1, 75480, Tempo, 316623
1, 75600, Tempo, 303797
1, 75840, Tempo, 310881
1, 76080, Tempo, 295567
1, 76320, Tempo, 310881
1, 76560, Tempo, 295567
1, 76800, Tempo, 310881
1, 77040, Tempo, 295567
1, 77280, Tempo, 310881
1, 77520, Tempo, 295567
1, 77760, Tempo, 307692
1, 78000, Tempo, 292683
1, 78240, Tempo, 306122
1, 78480, Tempo, 291971
1, 78720, Tempo, 303030
1, 78960, Tempo, 289157
1, 79200, Tempo, 300000
1, 79440, Tempo, 285714
1, 79680, Tempo, 303030
1, 79920, Tempo, 281690
1, 80160, Tempo, 303030
1, 80400, Tempo, 281690
1, 80640, Tempo, 303030
1, 80880, Tempo, 281690
1, 81120, Tempo, 303030
1, 81360, Tempo, 281690
1, 81600, Tempo, 303030
1, 81840, Tempo, 281690
1, 82080, Tempo, 303030
1, 82320, Tempo, 281690
1, 83040, Tempo, 303030
1, 83280, Tempo, 291971
1, 83460, Tempo, 375000
1, 83520, Tempo, 321716
1, 83760, Tempo, 306122
1, 84240, Tempo, 295567
1, 84480, Tempo, 310881
1, 84720, Tempo, 295567
1, 84960, Tempo, 310881
1, 85200, Tempo, 295567
1, 85440, Tempo, 310881
1, 85680, Tempo, 300752
1, 85860, Tempo, 352941
1, 85920, Tempo, 314961
1, 86160, Tempo, 301508
1, 86400, Tempo, 315789
1, 86640, Tempo, 301508
1, 86880, Tempo, 315789
1, 87120, Tempo, 300000
1, 87300, Tempo, 347826
1, 87360, Tempo, 310881
1, 87600, Tempo, 292683
1, 87840, Tempo, 305344
1, 88080, Tempo, 289855
1, 88320, Tempo, 302267
1, 88560, Tempo, 285714
1, 88740, Tempo, 338028
1, 88800, Tempo, 303030
1, 89040, Tempo, 281690
1, 89280, Tempo, 303030
1, 89520, Tempo, 281690
1, 89760, Tempo, 303030
1, 90000, Tempo, 281690
1, 90240, Tempo, 303030
1, 90480, Tempo, 281690
1, 90720, Tempo, 303030
1, 90960, Tempo, 281690
1, 91200, Tempo, 303030
1, 91440, Tempo, 281690
1, 91680, Tempo, 303030
1, 91920, Tempo, 281690
1, 92160, Tempo, 303030
1, 92400, Tempo, 281690
1, 92640, Tempo, 303030
1, 92880, Tempo, 281690
1, 93120, Tempo, 303030
1, 93360, Tempo, 281690
1, 93600, Tempo, 303030
1, 93840, Tempo, 281690
1, 94080, Tempo, 303030
1, 94320, Tempo, 281690
1, 94560, Tempo, 303030
1, 94800, Tempo, 291262
1, 95040, Tempo, 303030
1, 95280, Tempo, 292683
1, 95520, Tempo, 303030
1, 95760, Tempo, 292683
1, 96000, Tempo, 303030
1, 96240, Tempo, 292683
1, 96480, Tempo, 301508
1, 96720, Tempo, 291971
1, 96960, Tempo, 301508
1, 97200, Tempo, 291971
1, 97440, Tempo, 301508
1, 97680, Tempo, 309278
1, 97920, Tempo, 314136
1, 98160, Tempo, 316623
1, 98400, Tempo, 319149
1, 98640, Tempo, 321716
1, 98880, Tempo, 318302
1, 99240, Tempo, 355030
1, 99345, Tempo, 400000
1, 99360, Tempo, 303030
1, 99600, Tempo, 281690
1, 99720, Tempo, 333333
1, 99840, Tempo, 303030
1, 100080, Tempo, 281690
1, 100320, Tempo, 306122
1, 100560, Tempo, 292683
1, 100800, Tempo, 306122
1, 101040, Tempo, 292683
1, 101250, Tempo, 352941
1, 101280, Tempo, 303030
1, 101520, Tempo, 281690
1, 101640, Tempo, 315789
1, 101760, Tempo, 303030
1, 102000, Tempo, 281690
1, 102240, Tempo, 306122
1, 102480, Tempo, 292683
1, 102720, Tempo, 306122
1, 102960, Tempo, 292683
1, 103170, Tempo, 352941
1, 103200, Tempo, 303030
1, 103440, Tempo, 281690
1, 103560, Tempo, 314961
1, 103680, Tempo, 303030
1, 103920, Tempo, 281690
1, 104160, Tempo, 306122
1, 104400, Tempo, 292683
1, 104640, Tempo, 306122
1, 104880, Tempo, 292683
1, 105120, Tempo, 303030
1, 105360, Tempo, 281690
1, 105600, Tempo, 303030
1, 105840, Tempo, 281690
1, 106080, Tempo, 303030
1, 106320, Tempo, 281690
1, 106560, Tempo, 303030
1, 106800, Tempo, 281690
1, 107040, Tempo, 303030
1, 107280, Tempo, 281690
1, 107520, Tempo, 303030
1, 107760, Tempo, 281690
1, 108000, Tempo, 303030
1, 108240, Tempo, 281690
1, 108480, Tempo, 303030
1, 108720, Tempo, 281690
1, 108960, Tempo, 303030
1, 109200, Tempo, 281690
1, 109440, Tempo, 303030
1, 109680, Tempo, 281690
1, 109920, Tempo, 303030
1, 110160, Tempo, 281690
1, 110400, Tempo, 303030
1, 110640, Tempo, 281690
1, 110880, Tempo, 303030
1, 111120, Tempo, 281690
1, 111360, Tempo, 303030
1, 111600, Tempo, 281690
1, 111840, Tempo, 303030
1, 112080, Tempo, 285714
1, 112320, Tempo, 303030
1, 112560, Tempo, 285714
1, 112800, Tempo, 303030
1, 113040, Tempo, 285714
1, 113280, Tempo, 303030
1, 113520, Tempo, 285714
1, 113760, Tempo, 303030
1, 114000, Tempo, 285714
1, 114240, Tempo, 303030
1, 114480, Tempo, 285714
1, 114720, Tempo, 320000
1, 114840, Tempo, 305344
1, 114960, Tempo, 289855
1, 115200, Tempo, 306905
1, 115440, Tempo, 289855
1, 115680, Tempo, 306905
1, 115920, Tempo, 289855
1, 116160, Tempo, 306905
1, 116400, Tempo, 289855
1, 116640, Tempo, 306905
1, 116880, Tempo, 289855
1, 117120, Tempo, 306905
1, 117360, Tempo, 289855
1, 117600, Tempo, 306905
1, 117840, Tempo, 289855
1, 118080, Tempo, 306905
1, 118320, Tempo, 289855
1, 118560, Tempo, 306905
1, 118800, Tempo, 289855
1, 119040, Tempo, 306905
1, 119280, Tempo, 289855
1, 119520, Tempo, 306905
1, 119760, Tempo, 289855
1, 120000, Tempo, 306905
1, 120240, Tempo, 289855
1, 120480, Tempo, 321716
1, 120720, Tempo, 289855
1, 120960, Tempo, 306905
1, 121200, Tempo, 289855
1, 121440, Tempo, 306905
1, 121680, Tempo, 289855
1, 121920, Tempo, 306905
1, 122160, Tempo, 289855
1, 122400, Tempo, 306905
1, 122640, Tempo, 289855
1, 122880, Tempo, 306905
1, 123120, Tempo, 289855
1, 123330, Tempo, 376176
1, 123360, Tempo, 303030
1, 123600, Tempo, 281690
1, 123840, Tempo, 303030
1, 124080, Tempo, 281690
1, 124260, Tempo, 333333
1, 124320, Tempo, 303030
1, 124560, Tempo, 281690
1, 124800, Tempo, 303030
1, 125040, Tempo, 281690
1, 125220, Tempo, 333333
1, 125280, Tempo, 303030
1, 125520, Tempo, 281690
1, 125760, Tempo, 303030
1, 126000, Tempo, 281690
1, 126180, Tempo, 333333
1, 126240, Tempo, 303030
1, 126480, Tempo, 281690
1, 126720, Tempo, 303030
1, 126960, Tempo, 281690
1, 127140, Tempo, 333333
1, 127200, Tempo, 303030
1, 127440, Tempo, 281690
1, 127620, Tempo, 333333
1, 127680, Tempo, 303030
1, 127920, Tempo, 281690
1, 128100, Tempo, 333333
1, 128160, Tempo, 303030
1, 129120, Tempo, 326087
1, 130080, Tempo, 336134
1, 130560, Tempo, 307692
1, 131040, Tempo, 310881
1, 131520, Tempo, 313316
1, 131940, Tempo, 352941
1, 132000, Tempo, 323450
1, 132240, Tempo, 291971
1, 132480, Tempo, 303030
1, 132720, Tempo, 281690
1, 132960, Tempo, 303030
1, 133200, Tempo, 281690
1, 133440, Tempo, 303030
1, 133680, Tempo, 281690
1, 133920, Tempo, 303030
1, 134160, Tempo, 281690
1, 134400, Tempo, 303030
1, 134640, Tempo, 281690
1, 134880, Tempo, 303030
1, 135120, Tempo, 281690
1, 135360, Tempo, 303030
1, 135600, Tempo, 281690
1, 135840, Tempo, 303030
1, 136080, Tempo, 281690
1, 136320, Tempo, 303030
1, 136560, Tempo, 281690
1, 136800, Tempo, 303030
1, 137040, Tempo, 281690
1, 137280, Tempo, 303030
1, 137520, Tempo, 281690
1, 137760, Tempo, 303030
1, 138000, Tempo, 281690
1, 138240, Tempo, 303030
1, 138480, Tempo, 281690
1, 138720, Tempo, 303030
1, 138960, Tempo, 281690
1, 139200, Tempo, 303030
1, 139440, Tempo, 281690
1, 139680, Tempo, 303030
1, 139920, Tempo, 281690
1, 140160, Tempo, 303030
1, 140400, Tempo, 281690
1, 140640, Tempo, 303030
1, 140880, Tempo, 281690
1, 141120, Tempo, 303030
1, 141360, Tempo, 281690
1, 141600, Tempo, 302267
1, 141840, Tempo, 281690
1, 142080, Tempo, 303030
1, 142320, Tempo, 281690
1, 142560, Tempo, 303030
1, 142800, Tempo, 281690
1, 143040, Tempo, 303030
1, 143280, Tempo, 281690
1, 143520, Tempo, 303030
1, 143760, Tempo, 281690
1, 144000, Tempo, 303030
1, 144240, Tempo, 281690
1, 144480, Tempo, 303030
1, 144720, Tempo, 281690
1, 144960, Tempo, 303030
1, 145200, Tempo, 352941
1, 145440, Tempo, 319149
1, 145680, Tempo, 302267
1, 145920, Tempo, 310881
1, 146160, Tempo, 295567
1, 146400, Tempo, 310881
1, 146640, Tempo, 295567
1, 146880, Tempo, 310881
1, 147120, Tempo, 295567
1, 147360, Tempo, 310881
1, 147600, Tempo, 295567
1, 147840, Tempo, 310881
1, 148080, Tempo, 295567
1, 148320, Tempo, 310881
1, 148560, Tempo, 295567
1, 148800, Tempo, 310881
1, 148920, Tempo, 316623
1, 149040, Tempo, 303797
1, 149280, Tempo, 310881
1, 149520, Tempo, 295567
1, 149760, Tempo, 310881
1, 150000, Tempo, 295567
1, 150240, Tempo, 310881
1, 150480, Tempo, 295567
1, 150720, Tempo, 310881
1, 150960, Tempo, 295567
1, 151200, Tempo, 307692
1, 151440, Tempo, 292683
1, 151680, Tempo, 306122
1, 151920, Tempo, 291971
1, 152160, Tempo, 303030
1, 152400, Tempo, 289157
1, 152640, Tempo, 300000
1, 152880, Tempo, 285714
1, 153060, Tempo, 352941
1, 153120, Tempo, 303030
1, 153360, Tempo, 281690
1, 153600, Tempo, 303030
1, 153840, Tempo, 281690
1, 154080, Tempo, 303030
1, 154320, Tempo, 281690
1, 154560, Tempo, 303030
1, 154800, Tempo, 281690
1, 155040, Tempo, 303030
1, 155280, Tempo, 281690
1, 155520, Tempo, 303030
1, 155760, Tempo, 281690
1, 156480, Tempo, 303030
1, 156720, Tempo, 291971
1, 156900, Tempo, 347826
1, 156960, Tempo, 310881
1, 157200, Tempo, 295567
1, 157440, Tempo, 310881
1, 157680, Tempo, 295567
1, 157920, Tempo, 310881
1, 158160, Tempo, 295567
1, 158400, Tempo, 310881
1, 158640, Tempo, 295567
1, 158880, Tempo, 310881
1, 159120, Tempo, 300752
1, 159300, Tempo, 352941
1, 159360, Tempo, 314961
1, 159600, Tempo, 301508
1, 159840, Tempo, 315789
1, 160080, Tempo, 301508
1, 160320, Tempo, 315789
1, 160560, Tempo, 300000
1, 160740, Tempo, 347826
1, 160800, Tempo, 310881
1, 161040, Tempo, 292683
1, 161280, Tempo, 305344
1, 161520, Tempo, 289855
1, 161760, Tempo, 302267
1, 162000, Tempo, 285714
1, 162180, Tempo, 338028
1, 162240, Tempo, 303030
1, 162480, Tempo, 281690
1, 162720, Tempo, 303030
1, 162960, Tempo, 281690
1, 163200, Tempo, 303030
1, 163440, Tempo, 281690
1, 163680, Tempo, 303030
1, 163920, Tempo, 281690
1, 164160, Tempo, 303030
1, 164400, Tempo, 281690
1, 164640, Tempo, 303030
1, 164880, Tempo, 281690
1, 165120, Tempo, 303030
1, 165360, Tempo, 281690
1, 165600, Tempo, 303030
1, 165840, Tempo, 281690
1, 166080, Tempo, 303030
1, 166320, Tempo, 281690
1, 166560, Tempo, 303030
1, 166800, Tempo, 281690
1, 167040, Tempo, 303030
1, 167280, Tempo, 281690
1, 167520, Tempo, 303030
1, 167760, Tempo, 281690
1, 167940, Tempo, 342857
1, 168000, Tempo, 303030
1, 168240, Tempo, 291262
1, 168480, Tempo, 303030
1, 168720, Tempo, 292683
1, 168960, Tempo, 303030
1, 169200, Tempo, 292683
1, 169440, Tempo, 303030
1, 169680, Tempo, 292683
1, 169920, Tempo, 301508
1, 170160, Tempo, 291971
1, 170400, Tempo, 301508
1, 170640, Tempo, 291971
1, 170880, Tempo, 301508
1, 171120, Tempo, 309278
1, 171360, Tempo, 314136
1, 171600, Tempo, 317460
1, 171840, Tempo, 320000
1, 172080, Tempo, 303797
1, 172320, Tempo, 320000
1, 172560, Tempo, 303030
1, 172800, Tempo, 320000
1, 173040, Tempo, 302267
1, 173280, Tempo, 320000
1, 173520, Tempo, 297767
1, 173760, Tempo, 312500
1, 174000, Tempo, 297030
1, 174240, Tempo, 310881
1, 174480, Tempo, 297030
1, 174720, Tempo, 310078
1, 174960, Tempo, 297030
1, 175200, Tempo, 310881
1, 175430, Tempo, 294118
1, 175680, Tempo, 306905
1, 175920, Tempo, 290557
1, 176160, Tempo, 302267
1, 176400, Tempo, 287081
1, 176640, Tempo, 297767
1, 176880, Tempo, 285714
1, 177120, Tempo, 297767
1, 177360, Tempo, 285714
1, 177600, Tempo, 297767
1, 177840, Tempo, 285714
1, 178080, Tempo, 297767
1, 178320, Tempo, 285714
1, 178560, Tempo, 297767
1, 178800, Tempo, 285714
1, 179040, Tempo, 297767
1, 179280, Tempo, 285714
1, 179520, Tempo, 303030
1, 179760, Tempo, 281690
1, 180000, Tempo, 303030
1, 180240, Tempo, 281690
1, 180480, Tempo, 303030
1, 180720, Tempo, 281690
1, 180960, Tempo, 303030
1, 181200, Tempo, 281690
1, 181440, Tempo, 303030
1, 181680, Tempo, 281690
1, 181920, Tempo, 303030
1, 182160, Tempo, 281690
1, 182400, Tempo, 303030
1, 182640, Tempo, 281690
1, 182880, Tempo, 303030
1, 183120, Tempo, 281690
1, 183360, Tempo, 303030
1, 183600, Tempo, 281690
1, 183840, Tempo, 303030
1, 184080, Tempo, 281690
1, 184320, Tempo, 303030
1, 184560, Tempo, 281690
1, 184800, Tempo, 303030
1, 185040, Tempo, 281690
1, 185280, Tempo, 303030
1, 185520, Tempo, 281690
1, 185760, Tempo, 303030
1, 186000, Tempo, 281690
1, 186240, Tempo, 303030
1, 186480, Tempo, 281690
1, 186720, Tempo, 303030
1, 186960, Tempo, 287770
1, 187200, Tempo, 294840
1, 188640, Tempo, 303797
1, 189000, Tempo, 335196
1, 189120, Tempo, 375000
1, 189360, Tempo, 600000
1, 189360, End_track
2, 0, Start_track
2, 0, MIDI_port, 0
2, 0, Title_t, "2 Flauti"
2, 0, Program_c, 0, 73
2, 0, Control_c, 0, 10, 52
2, 1, Control_c, 0, 121, 0
2, 6, Program_c, 0, 73
2, 11, Pitch_bend_c, 0, 8192
2, 16, Control_c, 0, 11, 72
2, 21, Control_c, 0, 7, 127
2, 26, Control_c, 0, 91, 54
2, 31, Control_c, 0, 93, 0
2, 36, Control_c, 0, 10, 52
2, 481, Note_on_c, 0, 88, 55
2, 481, Note_on_c, 0, 82, 55
2, 481, Control_c, 0, 11, 57
2, 485, Control_c, 0, 11, 60
2, 495, Control_c, 0, 11, 63
2, 505, Control_c, 0, 11, 66
2, 520, Control_c, 0, 11, 68
2, 535, Control_c, 0, 11, 66
2, 551, Control_c, 0, 11, 64
2, 567, Control_c, 0, 11, 62
2, 582, Control_c, 0, 11, 61
2, 594, Control_c, 0, 11, 58
2, 606, Control_c, 0, 11, 55
2, 617, Control_c, 0, 11, 52
2, 629, Control_c, 0, 11, 49
2, 711, Note_on_c, 0, 82, 0
2, 711, Note_on_c, 0, 88, 0
2, 721, Note_on_c, 0, 89, 43
2, 721, Note_on_c, 0, 81, 43
2, 761, Control_c, 0, 11, 47
2, 764, Control_c, 0, 11, 44
2, 767, Control_c, 0, 11, 41
2, 770, Control_c, 0, 11, 38
2, 773, Control_c, 0, 11, 35
2, 776, Control_c, 0, 11, 32
2, 779, Control_c, 0, 11, 29
2, 781, Note_on_c, 0, 81, 0
2, 781, Note_on_c, 0, 89, 0
2, 961, Note_on_c, 0, 83, 55
2, 961, Note_on_c, 0, 77, 55
2, 961, Control_c, 0, 11, 57
2, 965, Control_c, 0, 11, 60
2, 975, Control_c, 0, 11, 63
2, 985, Control_c, 0, 11, 66
2, 1000, Control_c, 0, 11, 68
2, 1015, Control_c, 0, 11, 66
2, 1031, Control_c, 0, 11, 64
2, 1047, Control_c, 0, 11, 62
2, 1062, Control_c, 0, 11, 61
2, 1074, Control_c, 0, 11, 58
2, 1086, Control_c, 0, 11, 55
2, 1097, Control_c, 0, 11, 52
2, 1109, Control_c, 0, 11, 49
2, 1191, Note_on_c, 0, 77, 0
2, 1191, Note_on_c, 0, 83, 0
2, 1201, Note_on_c, 0, 76, 43
2, 1201, Note_on_c, 0, 84, 43
2, 1241, Control_c, 0, 11, 47
2, 1244, Control_c, 0, 11, 44
2, 1247, Control_c, 0, 11, 41
2, 1250, Control_c, 0, 11, 38
2, 1253, Control_c, 0, 11, 35
2, 1256, Control_c, 0, 11, 32
2, 1259, Control_c, 0, 11, 29
2, 1261, Note_on_c, 0, 84, 0
2, 1261, Note_on_c, 0, 76, 0
2, 1441, Control_c, 0, 11, 47
2, 1441, Note_on_c, 0, 84, 58
2, 1441, Note_on_c, 0, 90, 58
2, 1464, Control_c, 0, 11, 49
2, 1488, Control_c, 0, 11, 51
2, 1512, Control_c, 0, 11, 53
2, 1536, Control_c, 0, 11, 55
2, 1560, Control_c, 0, 11, 57
2, 1584, Control_c, 0, 11, 59
2, 1608, Control_c, 0, 11, 61
2, 1632, Control_c, 0, 11, 62
2, 1656, Control_c, 0, 11, 62
2, 1671, Note_on_c, 0, 90, 0
2, 1671, Note_on_c, 0, 84, 0
2, 1680, Control_c, 0, 11, 64
2, 1681, Note_on_c, 0, 84, 58
2, 1681, Note_on_c, 0, 90, 58
2, 1704, Control_c, 0, 11, 64
2, 1728, Control_c, 0, 11, 65
2, 1752, Control_c, 0, 11, 66
2, 1776, Control_c, 0, 11, 67
2, 1780, Note_on_c, 0, 90, 0
2, 1780, Note_on_c, 0, 84, 0
2, 1800, Control_c, 0, 11, 68
2, 1801, Note_on_c, 0, 90, 58
2, 1801, Note_on_c, 0, 84, 58
2, 1824, Control_c, 0, 11, 68
2, 1848, Control_c, 0, 11, 69
2, 1872, Control_c, 0, 11, 70
2, 1896, Control_c, 0, 11, 71
2, 1900, Note_on_c, 0, 84, 0
2, 1900, Note_on_c, 0, 90, 0
2, 1920, Control_c, 0, 11, 72
2, 1921, Note_on_c, 0, 91, 78
2, 1921, Note_on_c, 0, 83, 78
2, 2041, Note_on_c, 0, 83, 0
2, 2041, Note_on_c, 0, 91, 0
2, 2521, Control_c, 0, 11, 47
2, 2521, Note_on_c, 0, 77, 98
2, 2641, Note_on_c, 0, 77, 0
2, 2641, Note_on_c, 0, 74, 98
2, 2761, Note_on_c, 0, 74, 0
2, 2761, Note_on_c, 0, 71, 98
2, 2881, Note_on_c, 0, 71, 0
2, 3001, Note_on_c, 0, 79, 98
2, 3121, Note_on_c, 0, 79, 0
2, 3121, Note_on_c, 0, 76, 98
2, 3241, Note_on_c, 0, 76, 0
2, 3241, Note_on_c, 0, 72, 98
2, 3361, Note_on_c, 0, 72, 0
2, 3361, Control_c, 0, 11, 47
2, 3361, Note_on_c, 0, 74, 98
2, 3385, Control_c, 0, 11, 49
2, 3409, Control_c, 0, 11, 51
2, 3433, Control_c, 0, 11, 53
2, 3457, Control_c, 0, 11, 55
2, 3481, Control_c, 0, 11, 57
2, 3505, Control_c, 0, 11, 59
2, 3529, Control_c, 0, 11, 61
2, 3553, Control_c, 0, 11, 62
2, 3577, Control_c, 0, 11, 62
2, 3601, Control_c, 0, 11, 64
2, 3625, Control_c, 0, 11, 64
2, 3631, Note_on_c, 0, 74, 0
2, 3631, Note_on_c, 0, 73, 98
2, 3649, Control_c, 0, 11, 65
2, 3661, Note_on_c, 0, 73, 0
2, 3661, Note_on_c, 0, 74, 98
2, 3673, Control_c, 0, 11, 66
2, 3691, Note_on_c, 0, 74, 0
2, 3691, Note_on_c, 0, 76, 98
2, 3697, Control_c, 0, 11, 67
2, 3721, Note_on_c, 0, 76, 0
2, 3721, Control_c, 0, 11, 68
2, 3721, Note_on_c, 0, 74, 98
2, 3721, Note_on_c, 0, 77, 98
2, 3745, Control_c, 0, 11, 68
2, 3751, Note_on_c, 0, 77, 0
2, 3751, Note_on_c, 0, 74, 0
2, 3751, Note_on_c, 0, 76, 98
2, 3751, Note_on_c, 0, 79, 98
2, 3769, Control_c, 0, 11, 69
2, 3781, Note_on_c, 0, 79, 0
2, 3781, Note_on_c, 0, 76, 0
2, 3781, Note_on_c, 0, 77, 98
2, 3781, Note_on_c, 0, 81, 98
2, 3793, Control_c, 0, 11, 70
2, 3811, Note_on_c, 0, 81, 0
2, 3811, Note_on_c, 0, 77, 0
2, 3811, Note_on_c, 0, 74, 98
2, 3811, Note_on_c, 0, 77, 98
2, 3817, Control_c, 0, 11, 71
2, 3836, Note_on_c, 0, 77, 0
2, 3836, Note_on_c, 0, 74, 0
2, 3841, Control_c, 0, 11, 72
2, 3841, Note_on_c, 0, 76, 98
2, 3841, Note_on_c, 0, 72, 98
2, 3853, Control_c, 0, 11, 75
2, 3868, Control_c, 0, 11, 78
2, 3948, Note_on_c, 0, 72, 0
2, 3948, Note_on_c, 0, 76, 0
2, 3961, Note_on_c, 0, 91, 93
2, 3961, Note_on_c, 0, 88, 93
2, 4061, Control_c, 0, 11, 72
2, 4064, Control_c, 0, 11, 69
2, 4068, Control_c, 0, 11, 66
2, 4073, Control_c, 0, 11, 62
2, 4075, Note_on_c, 0, 88, 0
2, 4075, Note_on_c, 0, 91, 0
2, 4201, Control_c, 0, 11, 72
2, 4201, Note_on_c, 0, 86, 93
2, 4201, Note_on_c, 0, 89, 93
2, 4301, Control_c, 0, 11, 72
2, 4304, Control_c, 0, 11, 69
2, 4308, Control_c, 0, 11, 66
2, 4313, Control_c, 0, 11, 62
2, 4315, Note_on_c, 0, 89, 0
2, 4315, Note_on_c, 0, 86, 0
2, 4321, Control_c, 0, 11, 32
2, 4321, Note_on_c, 0, 84, 98
2, 4321, Note_on_c, 0, 88, 98
2, 4327, Control_c, 0, 11, 35
2, 4333, Control_c, 0, 11, 38
2, 4339, Control_c, 0, 11, 41
2, 4345, Control_c, 0, 11, 44
2, 4351, Control_c, 0, 11, 47
2, 4501, Note_on_c, 0, 88, 0
2, 4501, Note_on_c, 0, 84, 0
2, 4501, Note_on_c, 0, 91, 98
2, 4501, Note_on_c, 0, 88, 98
2, 4556, Note_on_c, 0, 88, 0
2, 4556, Note_on_c, 0, 91, 0
2, 4561, Note_on_c, 0, 88, 98
2, 4561, Note_on_c, 0, 91, 98
2, 4561, Control_c, 0, 11, 47
2, 4579, Control_c, 0, 11, 50
2, 4597, Control_c, 0, 11, 53
2, 4615, Control_c, 0, 11, 56
2, 4621, Note_on_c, 0, 91, 0
2, 4621, Note_on_c, 0, 88, 0
2, 4621, Note_on_c, 0, 86, 98
2, 4621, Note_on_c, 0, 89, 98
2, 4633, Control_c, 0, 11, 59
2, 4651, Control_c, 0, 11, 62
2, 4669, Control_c, 0, 11, 62
2, 4681, Note_on_c, 0, 89, 0
2, 4681, Note_on_c, 0, 86, 0
2, 4681, Note_on_c, 0, 84, 98
2, 4681, Note_on_c, 0, 88, 98
2, 4687, Control_c, 0, 11, 64
2, 4705, Control_c, 0, 11, 65
2, 4723, Control_c, 0, 11, 66
2, 4741, Note_on_c, 0, 88, 0
2, 4741, Note_on_c, 0, 84, 0
2, 4741, Note_on_c, 0, 83, 98
2, 4741, Note_on_c, 0, 86, 98
2, 4741, Control_c, 0, 11, 68
2, 4759, Control_c, 0, 11, 69
2, 4777, Control_c, 0, 11, 70
2, 4795, Control_c, 0, 11, 71
2, 4796, Note_on_c, 0, 86, 0
2, 4796, Note_on_c, 0, 83, 0
2, 4801, Note_on_c, 0, 84, 98
2, 4810, Control_c, 0, 11, 74
2, 4822, Control_c, 0, 11, 77
2, 4908, Note_on_c, 0, 84, 0
2, 4921, Note_on_c, 0, 84, 93
2, 4921, Note_on_c, 0, 88, 93
2, 5016, Control_c, 0, 11, 72
2, 5019, Control_c, 0, 11, 69
2, 5023, Control_c, 0, 11, 66
2, 5028, Control_c, 0, 11, 62
2, 5035, Note_on_c, 0, 88, 0
2, 5035, Note_on_c, 0, 84, 0
2, 5161, Note_on_c, 0, 89, 93
2, 5161, Note_on_c, 0, 86, 93
2, 5161, Control_c, 0, 11, 72
2, 5256, Control_c, 0, 11, 72
2, 5259, Control_c, 0, 11, 69
2, 5263, Control_c, 0, 11, 66
2, 5268, Control_c, 0, 11, 62
2, 5275, Note_on_c, 0, 86, 0
2, 5275, Note_on_c, 0, 89, 0
2, 5281, Control_c, 0, 11, 72
2, 5281, Note_on_c, 0, 88, 74
2, 5281, Note_on_c, 0, 84, 74
2, 5341, Control_c, 0, 11, 72
2, 5359, Control_c, 0, 11, 70
2, 5377, Control_c, 0, 11, 68
2, 5395, Control_c, 0, 11, 67
2, 5413, Control_c, 0, 11, 65
2, 5431, Control_c, 0, 11, 64
2, 5449, Control_c, 0, 11, 62
2, 5467, Control_c, 0, 11, 59
2, 5480, Control_c, 0, 11, 56
2, 5494, Control_c, 0, 11, 53
2, 5507, Control_c, 0, 11, 50
2, 5516, Note_on_c, 0, 84, 0
2, 5516, Note_on_c, 0, 88, 0
2, 5521, Note_on_c, 0, 88, 62
2, 5521, Note_on_c, 0, 84, 62
2, 5521, Control_c, 0, 11, 47
2, 5544, Control_c, 0, 11, 46
2, 5568, Control_c, 0, 11, 45
2, 5592, Control_c, 0, 11, 44
2, 5616, Control_c, 0, 11, 43
2, 5631, Note_on_c, 0, 84, 0
2, 5631, Note_on_c, 0, 88, 0
2, 5640, Control_c, 0, 11, 42
2, 5641, Note_on_c, 0, 88, 74
2, 5641, Note_on_c, 0, 84, 74
2, 5664, Control_c, 0, 11, 41
2, 5688, Control_c, 0, 11, 40
2, 5712, Control_c, 0, 11, 39
2, 5736, Control_c, 0, 11, 38
2, 5751, Note_on_c, 0, 84, 0
2, 5751, Note_on_c, 0, 88, 0
2, 5760, Control_c, 0, 11, 37
2, 5761, Note_on_c, 0, 83, 93
2, 5761, Note_on_c, 0, 89, 93
2, 5779, Control_c, 0, 11, 40
2, 5797, Control_c, 0, 11, 43
2, 5815, Control_c, 0, 11, 46
2, 6001, Note_on_c, 0, 89, 0
2, 6001, Note_on_c, 0, 83, 0
2, 6001, Note_on_c, 0, 77, 98
2, 6001, Note_on_c, 0, 83, 98
2, 6236, Note_on_c, 0, 83, 0
2, 6236, Note_on_c, 0, 77, 0
2, 6241, Note_on_c, 0, 84, 88
2, 6241, Note_on_c, 0, 76, 88
2, 6301, Control_c, 0, 11, 47
2, 6308, Control_c, 0, 11, 44
2, 6315, Control_c, 0, 11, 41
2, 6322, Control_c, 0, 11, 38
2, 6329, Control_c, 0, 11, 35
2, 6336, Control_c, 0, 11, 32
2, 6343, Control_c, 0, 11, 29
2, 6350, Control_c, 0, 11, 26
2, 6357, Control_c, 0, 11, 23
2, 6361, Note_on_c, 0, 76, 0
2, 6361, Note_on_c, 0, 84, 0
2, 8161, Note_on_c, 0, 84, 78
2, 8161, Note_on_c, 0, 76, 78
2, 8161, Control_c, 0, 11, 32
2, 8172, Control_c, 0, 11, 35
2, 8183, Control_c, 0, 11, 38
2, 8194, Control_c, 0, 11, 41
2, 8206, Control_c, 0, 11, 44
2, 8217, Control_c, 0, 11, 47
2, 8257, Control_c, 0, 11, 50
2, 8289, Control_c, 0, 11, 51
2, 8321, Control_c, 0, 11, 52
2, 8353, Control_c, 0, 11, 53
2, 8385, Control_c, 0, 11, 54
2, 8417, Control_c, 0, 11, 55
2, 8449, Control_c, 0, 11, 56
2, 8481, Control_c, 0, 11, 57
2, 8513, Control_c, 0, 11, 58
2, 8545, Control_c, 0, 11, 59
2, 8577, Control_c, 0, 11, 60
2, 8609, Control_c, 0, 11, 61
2, 8641, Note_on_c, 0, 84, 0
2, 8641, Control_c, 0, 11, 62
2, 8641, Note_on_c, 0, 85, 78
2, 8673, Control_c, 0, 11, 62
2, 8705, Control_c, 0, 11, 62
2, 8737, Control_c, 0, 11, 62
2, 8769, Control_c, 0, 11, 64
2, 8801, Control_c, 0, 11, 64
2, 8833, Control_c, 0, 11, 64
2, 8865, Control_c, 0, 11, 66
2, 8897, Control_c, 0, 11, 66
2, 8929, Control_c, 0, 11, 67
2, 8961, Control_c, 0, 11, 68
2, 8993, Control_c, 0, 11, 68
2, 9025, Control_c, 0, 11, 69
2, 9057, Control_c, 0, 11, 71
2, 9081, Control_c, 0, 11, 71
2, 9091, Control_c, 0, 11, 68
2, 9105, Control_c, 0, 11, 64
2, 9121, Note_on_c, 0, 85, 0
2, 9121, Note_on_c, 0, 76, 0
2, 9121, Control_c, 0, 11, 62
2, 9121, Note_on_c, 0, 77, 62
2, 9121, Note_on_c, 0, 86, 62
2, 9241, Note_on_c, 0, 86, 0
2, 9241, Note_on_c, 0, 77, 0
2, 11041, Control_c, 0, 11, 32
2, 11041, Note_on_c, 0, 86, 78
2, 11041, Note_on_c, 0, 77, 78
2, 11060, Control_c, 0, 11, 35
2, 11079, Control_c, 0, 11, 38
2, 11098, Control_c, 0, 11, 41
2, 11125, Control_c, 0, 11, 43
2, 11146, Control_c, 0, 11, 44
2, 11167, Control_c, 0, 11, 45
2, 11188, Control_c, 0, 11, 46
2, 11209, Control_c, 0, 11, 47
2, 11229, Control_c, 0, 11, 48
2, 11250, Control_c, 0, 11, 49
2, 11271, Control_c, 0, 11, 50
2, 11292, Control_c, 0, 11, 51
2, 11313, Control_c, 0, 11, 52
2, 11333, Control_c, 0, 11, 53
2, 11354, Control_c, 0, 11, 54
2, 11375, Control_c, 0, 11, 55
2, 11396, Control_c, 0, 11, 56
2, 11417, Control_c, 0, 11, 57
2, 11437, Control_c, 0, 11, 58
2, 11458, Control_c, 0, 11, 59
2, 11479, Control_c, 0, 11, 60
2, 11500, Control_c, 0, 11, 61
2, 11521, Control_c, 0, 11, 62
2, 11553, Control_c, 0, 11, 62
2, 11585, Control_c, 0, 11, 62
2, 11617, Control_c, 0, 11, 62
2, 11649, Control_c, 0, 11, 64
2, 11681, Control_c, 0, 11, 64
2, 11713, Control_c, 0, 11, 64
2, 11745, Control_c, 0, 11, 66
2, 11777, Control_c, 0, 11, 66
2, 11809, Control_c, 0, 11, 67
2, 11841, Control_c, 0, 11, 68
2, 11873, Control_c, 0, 11, 68
2, 11905, Control_c, 0, 11, 69
2, 11937, Control_c, 0, 11, 71
2, 11969, Control_c, 0, 11, 71
2, 12001, Note_on_c, 0, 77, 0
2, 12001, Note_on_c, 0, 86, 0
2, 12001, Note_on_c, 0, 86, 98
2, 12001, Note_on_c, 0, 77, 98
2, 12001, Control_c, 0, 11, 78
2, 12019, Control_c, 0, 11, 76
2, 12037, Control_c, 0, 11, 73
2, 12055, Control_c, 0, 11, 71
2, 12073, Control_c, 0, 11, 71
2, 12085, Control_c, 0, 11, 68
2, 12103, Control_c, 0, 11, 66
2, 12121, Control_c, 0, 11, 64
2, 12142, Control_c, 0, 11, 62
2, 12164, Control_c, 0, 11, 61
2, 12185, Control_c, 0, 11, 58
2, 12207, Control_c, 0, 11, 55
2, 12228, Control_c, 0, 11, 52
2, 12250, Control_c, 0, 11, 49
2, 12271, Control_c, 0, 11, 46
2, 12293, Control_c, 0, 11, 43
2, 12314, Control_c, 0, 11, 40
2, 12336, Note_on_c, 0, 77, 0
2, 12336, Note_on_c, 0, 86, 0
2, 12336, Control_c, 0, 11, 37
2, 12961, Control_c, 0, 11, 85
2, 12961, Note_on_c, 0, 83, 98
2, 12979, Control_c, 0, 11, 82
2, 12997, Control_c, 0, 11, 80
2, 13015, Control_c, 0, 11, 80
2, 13027, Control_c, 0, 11, 77
2, 13045, Control_c, 0, 11, 75
2, 13063, Control_c, 0, 11, 73
2, 13081, Control_c, 0, 11, 71
2, 13097, Control_c, 0, 11, 69
2, 13113, Control_c, 0, 11, 67
2, 13129, Control_c, 0, 11, 64
2, 13145, Control_c, 0, 11, 62
2, 13161, Control_c, 0, 11, 62
2, 13177, Control_c, 0, 11, 59
2, 13193, Control_c, 0, 11, 56
2, 13210, Control_c, 0, 11, 53
2, 13226, Control_c, 0, 11, 50
2, 13242, Control_c, 0, 11, 47
2, 13258, Control_c, 0, 11, 44
2, 13274, Control_c, 0, 11, 41
2, 13290, Control_c, 0, 11, 38
2, 13296, Note_on_c, 0, 83, 0
2, 13921, Note_on_c, 0, 86, 88
2, 13921, Control_c, 0, 11, 85
2, 13921, Note_on_c, 0, 83, 88
2, 13939, Control_c, 0, 11, 82
2, 13957, Control_c, 0, 11, 80
2, 13975, Control_c, 0, 11, 80
2, 13987, Control_c, 0, 11, 77
2, 14005, Control_c, 0, 11, 75
2, 14023, Control_c, 0, 11, 73
2, 14041, Control_c, 0, 11, 71
2, 14401, Control_c, 0, 11, 71
2, 14420, Control_c, 0, 11, 71
2, 14439, Control_c, 0, 11, 73
2, 14458, Control_c, 0, 11, 73
2, 14477, Control_c, 0, 11, 73
2, 14496, Control_c, 0, 11, 75
2, 14511, Note_on_c, 0, 83, 0
2, 14511, Note_on_c, 0, 86, 0
2, 14515, Control_c, 0, 11, 75
2, 14521, Note_on_c, 0, 86, 79
2, 14521, Note_on_c, 0, 83, 79
2, 14535, Control_c, 0, 11, 76
2, 14554, Control_c, 0, 11, 77
2, 14573, Control_c, 0, 11, 77
2, 14592, Control_c, 0, 11, 78
2, 14611, Control_c, 0, 11, 80
2, 14630, Control_c, 0, 11, 80
2, 14631, Note_on_c, 0, 83, 0
2, 14631, Note_on_c, 0, 86, 0
2, 14641, Note_on_c, 0, 83, 79
2, 14641, Note_on_c, 0, 86, 79
2, 14650, Control_c, 0, 11, 80
2, 14669, Control_c, 0, 11, 80
2, 14688, Control_c, 0, 11, 82
2, 14707, Control_c, 0, 11, 82
2, 14726, Control_c, 0, 11, 82
2, 14745, Control_c, 0, 11, 84
2, 14751, Note_on_c, 0, 86, 0
2, 14751, Note_on_c, 0, 83, 0
2, 14761, Note_on_c, 0, 86, 79
2, 14761, Note_on_c, 0, 83, 79
2, 14765, Control_c, 0, 11, 84
2, 14784, Control_c, 0, 11, 85
2, 14803, Control_c, 0, 11, 86
2, 14822, Control_c, 0, 11, 86
2, 14841, Control_c, 0, 11, 87
2, 14860, Control_c, 0, 11, 89
2, 14871, Note_on_c, 0, 83, 0
2, 14871, Note_on_c, 0, 86, 0
2, 14880, Control_c, 0, 11, 89
2, 14881, Note_on_c, 0, 84, 88
2, 14881, Note_on_c, 0, 88, 88
2, 14941, Note_on_c, 0, 88, 0
2, 14941, Note_on_c, 0, 84, 0
2, 15121, Note_on_c, 0, 89, 88
2, 15121, Note_on_c, 0, 81, 88
2, 15181, Note_on_c, 0, 81, 0
2, 15181, Note_on_c, 0, 89, 0
2, 15361, Note_on_c, 0, 79, 88
2, 15361, Note_on_c, 0, 88, 88
2, 15421, Note_on_c, 0, 88, 0
2, 15421, Note_on_c, 0, 79, 0
2, 15601, Note_on_c, 0, 83, 88
2, 15601, Note_on_c, 0, 77, 88
2, 15661, Note_on_c, 0, 77, 0
2, 15661, Note_on_c, 0, 83, 0
2, 15841, Note_on_c, 0, 84, 88
2, 15841, Note_on_c, 0, 76, 88
2, 15901, Note_on_c, 0, 76, 0
2, 15901, Note_on_c, 0, 84, 0
2, 16441, Note_on_c, 0, 84, 113
2, 16551, Note_on_c, 0, 84, 0
2, 16561, Note_on_c, 0, 84, 113
2, 16671, Note_on_c, 0, 84, 0
2, 16681, Note_on_c, 0, 84, 113
2, 16791, Note_on_c, 0, 84, 0
2, 16801, Note_on_c, 0, 83, 118
2, 17161, Note_on_c, 0, 83, 0
2, 17161, Note_on_c, 0, 86, 125
2, 17271, Note_on_c, 0, 86, 0
2, 17281, Note_on_c, 0, 89, 125
2, 17631, Note_on_c, 0, 89, 0
2, 17641, Note_on_c, 0, 88, 125
2, 17671, Note_on_c, 0, 88, 0
2, 17671, Note_on_c, 0, 86, 125
2, 17701, Note_on_c, 0, 86, 0
2, 17701, Note_on_c, 0, 84, 125
2, 17731, Note_on_c, 0, 84, 0
2, 17731, Note_on_c, 0, 83, 125
2, 17751, Note_on_c, 0, 83, 0
2, 17761, Control_c, 0, 11, 89
2, 17761, Note_on_c, 0, 84, 112
2, 17881, Note_on_c, 0, 84, 0
2, 18361, Note_on_c, 0, 84, 113
2, 18471, Note_on_c, 0, 84, 0
2, 18481, Note_on_c, 0, 84, 113
2, 18591, Note_on_c, 0, 84, 0
2, 18601, Note_on_c, 0, 84, 113
2, 18711, Note_on_c, 0, 84, 0
2, 18721, Note_on_c, 0, 83, 125
2, 18781, Note_on_c, 0, 83, 0
2, 18781, Note_on_c, 0, 81, 125
2, 18841, Note_on_c, 0, 81, 0
2, 18841, Note_on_c, 0, 79, 125
2, 18901, Note_on_c, 0, 79, 0
2, 18901, Note_on_c, 0, 81, 125
2, 18961, Note_on_c, 0, 81, 0
2, 18961, Note_on_c, 0, 83, 125
2, 19021, Note_on_c, 0, 83, 0
2, 19021, Note_on_c, 0, 84, 125
2, 19081, Note_on_c, 0, 84, 0
2, 19081, Note_on_c, 0, 86, 125
2, 19141, Note_on_c, 0, 86, 0
2, 19141, Note_on_c, 0, 88, 125
2, 19191, Note_on_c, 0, 88, 0
2, 19201, Note_on_c, 0, 89, 125
2, 19261, Note_on_c, 0, 89, 0
2, 19261, Note_on_c, 0, 88, 125
2, 19321, Note_on_c, 0, 88, 0
2, 19321, Note_on_c, 0, 89, 125
2, 19381, Note_on_c, 0, 89, 0
2, 19381, Note_on_c, 0, 88, 125
2, 19441, Note_on_c, 0, 88, 0
2, 19441, Note_on_c, 0, 89, 125
2, 19501, Note_on_c, 0, 89, 0
2, 19501, Note_on_c, 0, 86, 125
2, 19561, Note_on_c, 0, 86, 0
2, 19561, Note_on_c, 0, 84, 125
2, 19621, Note_on_c, 0, 84, 0
2, 19621, Note_on_c, 0, 83, 125
2, 19671, Note_on_c, 0, 83, 0
2, 19681, Note_on_c, 0, 84, 112
2, 19801, Note_on_c, 0, 84, 0
2, 20041, Control_c, 0, 11, 78
2, 20041, Note_on_c, 0, 81, 98
2, 20071, Note_on_c, 0, 81, 0
2, 20101, Note_on_c, 0, 85, 98
2, 20131, Note_on_c, 0, 85, 0
2, 20161, Note_on_c, 0, 86, 98
2, 20281, Note_on_c, 0, 86, 0
2, 20521, Note_on_c, 0, 83, 98
2, 20521, Control_c, 0, 11, 78
2, 20551, Note_on_c, 0, 83, 0
2, 20581, Note_on_c, 0, 87, 98
2, 20593, Control_c, 0, 11, 80
2, 20611, Note_on_c, 0, 87, 0
2, 20641, Note_on_c, 0, 88, 98
2, 20665, Control_c, 0, 11, 80
2, 20691, Note_on_c, 0, 88, 0
2, 20701, Note_on_c, 0, 76, 98
2, 20737, Control_c, 0, 11, 80
2, 20751, Note_on_c, 0, 76, 0
2, 20761, Note_on_c, 0, 72, 98
2, 20809, Control_c, 0, 11, 80
2, 20811, Note_on_c, 0, 72, 0
2, 20821, Note_on_c, 0, 76, 98
2, 20871, Note_on_c, 0, 76, 0
2, 20881, Control_c, 0, 11, 82
2, 20881, Note_on_c, 0, 77, 98
2, 20931, Note_on_c, 0, 77, 0
2, 20941, Note_on_c, 0, 74, 98
2, 20953, Control_c, 0, 11, 82
2, 20991, Note_on_c, 0, 74, 0
2, 21001, Note_on_c, 0, 79, 98
2, 21025, Control_c, 0, 11, 82
2, 21051, Note_on_c, 0, 79, 0
2, 21061, Note_on_c, 0, 76, 98
2, 21097, Control_c, 0, 11, 84
2, 21111, Note_on_c, 0, 76, 0
2, 21121, Note_on_c, 0, 81, 98
2, 21169, Control_c, 0, 11, 84
2, 21171, Note_on_c, 0, 81, 0
2, 21181, Note_on_c, 0, 77, 98
2, 21231, Note_on_c, 0, 77, 0
2, 21241, Note_on_c, 0, 83, 98
2, 21241, Control_c, 0, 11, 85
2, 21291, Note_on_c, 0, 83, 0
2, 21301, Note_on_c, 0, 79, 98
2, 21313, Control_c, 0, 11, 86
2, 21351, Note_on_c, 0, 79, 0
2, 21361, Note_on_c, 0, 84, 98
2, 21385, Control_c, 0, 11, 86
2, 21411, Note_on_c, 0, 84, 0
2, 21421, Note_on_c, 0, 81, 98
2, 21457, Control_c, 0, 11, 87
2, 21471, Note_on_c, 0, 81, 0
2, 21481, Note_on_c, 0, 76, 98
2, 21529, Control_c, 0, 11, 89
2, 21531, Note_on_c, 0, 76, 0
2, 21541, Note_on_c, 0, 78, 98
2, 21591, Note_on_c, 0, 78, 0
2, 21601, Control_c, 0, 11, 89
2, 21601, Note_on_c, 0, 79, 98
2, 21661, Note_on_c, 0, 79, 0
2, 21721, Note_on_c, 0, 86, 98
2, 21721, Note_on_c, 0, 83, 98
2, 21781, Note_on_c, 0, 83, 0
2, 21781, Note_on_c, 0, 86, 0
2, 21841, Note_on_c, 0, 88, 98
2, 21841, Note_on_c, 0, 84, 98
2, 21901, Note_on_c, 0, 84, 0
2, 21901, Note_on_c, 0, 88, 0
2, 21961, Note_on_c, 0, 84, 98
2, 21961, Note_on_c, 0, 88, 98
2, 22021, Note_on_c, 0, 88, 0
2, 22021, Note_on_c, 0, 84, 0
2, 22081, Note_on_c, 0, 86, 98
2, 22081, Note_on_c, 0, 83, 98
2, 22111, Note_on_c, 0, 86, 0
2, 22141, Note_on_c, 0, 83, 0
2, 22141, Note_on_c, 0, 91, 98
2, 22171, Note_on_c, 0, 91, 0
2, 22201, Note_on_c, 0, 91, 98
2, 22231, Note_on_c, 0, 91, 0
2, 22261, Note_on_c, 0, 91, 98
2, 22291, Note_on_c, 0, 91, 0
2, 22321, Note_on_c, 0, 89, 98
2, 22381, Note_on_c, 0, 89, 0
2, 22381, Note_on_c, 0, 88, 98
2, 22431, Note_on_c, 0, 88, 0
2, 22441, Note_on_c, 0, 86, 98
2, 22471, Note_on_c, 0, 86, 0
2, 22501, Note_on_c, 0, 84, 98
2, 22531, Note_on_c, 0, 84, 0
2, 22561, Note_on_c, 0, 79, 98
2, 22621, Note_on_c, 0, 79, 0
2, 22681, Note_on_c, 0, 86, 98
2, 22681, Note_on_c, 0, 83, 98
2, 22741, Note_on_c, 0, 83, 0
2, 22741, Note_on_c, 0, 86, 0
2, 22801, Note_on_c, 0, 88, 98
2, 22801, Note_on_c, 0, 84, 98
2, 22861, Note_on_c, 0, 84, 0
2, 22861, Note_on_c, 0, 88, 0
2, 22921, Note_on_c, 0, 84, 98
2, 22921, Note_on_c, 0, 88, 98
2, 22981, Note_on_c, 0, 88, 0
2, 22981, Note_on_c, 0, 84, 0
2, 23041, Note_on_c, 0, 83, 98
2, 23041, Note_on_c, 0, 86, 98
2, 23071, Note_on_c, 0, 86, 0
2, 23101, Note_on_c, 0, 83, 0
2, 23101, Note_on_c, 0, 91, 98
2, 23131, Note_on_c, 0, 91, 0
2, 23161, Note_on_c, 0, 91, 98
2, 23191, Note_on_c, 0, 91, 0
2, 23221, Note_on_c, 0, 91, 98
2, 23251, Note_on_c, 0, 91, 0
2, 23281, Note_on_c, 0, 89, 98
2, 23341, Note_on_c, 0, 89, 0
2, 23341, Note_on_c, 0, 88, 98
2, 23391, Note_on_c, 0, 88, 0
2, 23401, Note_on_c, 0, 86, 98
2, 23431, Note_on_c, 0, 86, 0
2, 23461, Note_on_c, 0, 84, 98
2, 23491, Note_on_c, 0, 84, 0
2, 23521, Note_on_c, 0, 79, 98
2, 23641, Note_on_c, 0, 79, 0
2, 23641, Note_on_c, 0, 86, 98
2, 23641, Note_on_c, 0, 83, 98
2, 23761, Note_on_c, 0, 83, 0
2, 23761, Note_on_c, 0, 86, 0
2, 23881, Note_on_c, 0, 88, 98
2, 23881, Note_on_c, 0, 84, 98
2, 24001, Note_on_c, 0, 84, 0
2, 24001, Note_on_c, 0, 88, 0
2, 24121, Note_on_c, 0, 86, 98
2, 24121, Note_on_c, 0, 83, 98
2, 24241, Note_on_c, 0, 83, 0
2, 24241, Note_on_c, 0, 86, 0
2, 24361, Note_on_c, 0, 88, 98
2, 24361, Note_on_c, 0, 84, 98
2, 24481, Note_on_c, 0, 84, 0
2, 24481, Note_on_c, 0, 88, 0
2, 24481, Note_on_c, 0, 86, 98
2, 24481, Note_on_c, 0, 83, 98
2, 24601, Note_on_c, 0, 83, 0
2, 24601, Note_on_c, 0, 86, 0
2, 24721, Note_on_c, 0, 79, 98
2, 24841, Note_on_c, 0, 79, 0
2, 24961, Note_on_c, 0, 79, 98
2, 25081, Note_on_c, 0, 79, 0
2, 25921, Control_c, 0, 11, 52
2, 25921, Note_on_c, 0, 84, 98
2, 26221, Note_on_c, 0, 84, 0
2, 26221, Note_on_c, 0, 83, 98
2, 26281, Note_on_c, 0, 83, 0
2, 26281, Note_on_c, 0, 81, 98
2, 26341, Note_on_c, 0, 81, 0
2, 26341, Note_on_c, 0, 79, 98
2, 26391, Note_on_c, 0, 79, 0
2, 26401, Note_on_c, 0, 78, 98
2, 26521, Note_on_c, 0, 78, 0
2, 26881, Note_on_c, 0, 86, 98
2, 27181, Note_on_c, 0, 86, 0
2, 27181, Note_on_c, 0, 83, 98
2, 27241, Note_on_c, 0, 83, 0
2, 27241, Note_on_c, 0, 81, 98
2, 27301, Note_on_c, 0, 81, 0
2, 27301, Note_on_c, 0, 79, 98
2, 27351, Note_on_c, 0, 79, 0
2, 27361, Control_c, 0, 11, 52
2, 27361, Note_on_c, 0, 81, 88
2, 27481, Note_on_c, 0, 81, 0
2, 27481, Control_c, 0, 11, 71
2, 27481, Note_on_c, 0, 84, 62
2, 27500, Control_c, 0, 11, 71
2, 27519, Control_c, 0, 11, 68
2, 27538, Control_c, 0, 11, 67
2, 27557, Control_c, 0, 11, 66
2, 27577, Control_c, 0, 11, 64
2, 27596, Control_c, 0, 11, 62
2, 27615, Control_c, 0, 11, 62
2, 27634, Control_c, 0, 11, 61
2, 27653, Control_c, 0, 11, 59
2, 27673, Control_c, 0, 11, 57
2, 27692, Control_c, 0, 11, 55
2, 27711, Control_c, 0, 11, 53
2, 27721, Note_on_c, 0, 84, 0
2, 27721, Note_on_c, 0, 83, 62
2, 27831, Note_on_c, 0, 83, 0
2, 27841, Note_on_c, 0, 81, 62
2, 27961, Note_on_c, 0, 81, 0
2, 27961, Control_c, 0, 11, 71
2, 27961, Note_on_c, 0, 84, 62
2, 27980, Control_c, 0, 11, 71
2, 27999, Control_c, 0, 11, 68
2, 28018, Control_c, 0, 11, 67
2, 28037, Control_c, 0, 11, 66
2, 28057, Control_c, 0, 11, 64
2, 28076, Control_c, 0, 11, 62
2, 28095, Control_c, 0, 11, 62
2, 28114, Control_c, 0, 11, 61
2, 28133, Control_c, 0, 11, 59
2, 28153, Control_c, 0, 11, 57
2, 28172, Control_c, 0, 11, 55
2, 28191, Control_c, 0, 11, 53
2, 28201, Note_on_c, 0, 84, 0
2, 28201, Note_on_c, 0, 83, 62
2, 28311, Note_on_c, 0, 83, 0
2, 28321, Note_on_c, 0, 81, 70
2, 28441, Note_on_c, 0, 81, 0
2, 28441, Note_on_c, 0, 86, 98
2, 28561, Note_on_c, 0, 86, 0
2, 28561, Note_on_c, 0, 85, 98
2, 28681, Note_on_c, 0, 85, 0
2, 28681, Note_on_c, 0, 88, 98
2, 28791, Note_on_c, 0, 88, 0
2, 28801, Note_on_c, 0, 86, 98
2, 28921, Note_on_c, 0, 86, 0
2, 29761, Note_on_c, 0, 84, 98
2, 30061, Note_on_c, 0, 84, 0
2, 30061, Note_on_c, 0, 83, 98
2, 30121, Note_on_c, 0, 83, 0
2, 30121, Note_on_c, 0, 81, 98
2, 30181, Note_on_c, 0, 81, 0
2, 30181, Note_on_c, 0, 79, 98
2, 30231, Note_on_c, 0, 79, 0
2, 30241, Note_on_c, 0, 78, 98
2, 30361, Note_on_c, 0, 78, 0
2, 30721, Note_on_c, 0, 89, 88
2, 31021, Note_on_c, 0, 89, 0
2, 31021, Note_on_c, 0, 86, 88
2, 31081, Note_on_c, 0, 86, 0
2, 31081, Note_on_c, 0, 83, 88
2, 31141, Note_on_c, 0, 83, 0
2, 31141, Note_on_c, 0, 77, 88
2, 31191, Note_on_c, 0, 77, 0
2, 31201, Note_on_c, 0, 79, 88
2, 31261, Note_on_c, 0, 79, 0
2, 31321, Note_on_c, 0, 88, 79
2, 31321, Note_on_c, 0, 84, 79
2, 31441, Note_on_c, 0, 84, 0
2, 31441, Note_on_c, 0, 88, 0
2, 31441, Note_on_c, 0, 89, 79
2, 31441, Note_on_c, 0, 86, 79
2, 31441, Control_c, 0, 11, 71
2, 31460, Control_c, 0, 11, 71
2, 31479, Control_c, 0, 11, 68
2, 31498, Control_c, 0, 11, 67
2, 31517, Control_c, 0, 11, 66
2, 31537, Control_c, 0, 11, 64
2, 31556, Control_c, 0, 11, 62
2, 31575, Control_c, 0, 11, 62
2, 31594, Control_c, 0, 11, 61
2, 31613, Control_c, 0, 11, 59
2, 31633, Control_c, 0, 11, 57
2, 31652, Control_c, 0, 11, 55
2, 31671, Control_c, 0, 11, 53
2, 31791, Note_on_c, 0, 86, 0
2, 31791, Note_on_c, 0, 89, 0
2, 31801, Note_on_c, 0, 88, 79
2, 31801, Note_on_c, 0, 84, 79
2, 31921, Note_on_c, 0, 84, 0
2, 31921, Note_on_c, 0, 88, 0
2, 31921, Control_c, 0, 11, 71
2, 31921, Note_on_c, 0, 86, 79
2, 31921, Note_on_c, 0, 89, 79
2, 31940, Control_c, 0, 11, 71
2, 31959, Control_c, 0, 11, 68
2, 31978, Control_c, 0, 11, 67
2, 31997, Control_c, 0, 11, 66
2, 32017, Control_c, 0, 11, 64
2, 32036, Control_c, 0, 11, 62
2, 32055, Control_c, 0, 11, 62
2, 32074, Control_c, 0, 11, 61
2, 32093, Control_c, 0, 11, 59
2, 32113, Control_c, 0, 11, 57
2, 32132, Control_c, 0, 11, 55
2, 32151, Control_c, 0, 11, 53
2, 32271, Note_on_c, 0, 89, 0
2, 32271, Note_on_c, 0, 86, 0
2, 32281, Note_on_c, 0, 84, 88
2, 32281, Note_on_c, 0, 88, 88
2, 32401, Note_on_c, 0, 88, 0
2, 32401, Note_on_c, 0, 84, 0
2, 32401, Note_on_c, 0, 83, 88
2, 32401, Note_on_c, 0, 86, 88
2, 32521, Note_on_c, 0, 86, 0
2, 32521, Note_on_c, 0, 83, 0
2, 32521, Note_on_c, 0, 84, 88
2, 32521, Note_on_c, 0, 81, 88
2, 32631, Note_on_c, 0, 81, 0
2, 32631, Note_on_c, 0, 84, 0
2, 32641, Note_on_c, 0, 83, 88
2, 32641, Note_on_c, 0, 79, 88
2, 32881, Note_on_c, 0, 79, 0
2, 32881, Note_on_c, 0, 83, 0
2, 32881, Note_on_c, 0, 78, 98
2, 32881, Note_on_c, 0, 81, 98
2, 33101, Note_on_c, 0, 81, 0
2, 33101, Note_on_c, 0, 78, 0
2, 33121, Note_on_c, 0, 86, 98
2, 33121, Note_on_c, 0, 79, 98
2, 33121, Control_c, 0, 11, 78
2, 33241, Note_on_c, 0, 79, 0
2, 33241, Note_on_c, 0, 86, 0
2, 33361, Note_on_c, 0, 78, 98
2, 33361, Note_on_c, 0, 84, 98
2, 33481, Note_on_c, 0, 84, 0
2, 33481, Note_on_c, 0, 78, 0
2, 33601, Note_on_c, 0, 79, 98
2, 33601, Note_on_c, 0, 83, 98
2, 33721, Note_on_c, 0, 83, 0
2, 33721, Note_on_c, 0, 79, 0
2, 33841, Note_on_c, 0, 81, 98
2, 33901, Note_on_c, 0, 81, 0
2, 33901, Note_on_c, 0, 83, 98
2, 33961, Note_on_c, 0, 83, 0
2, 33961, Note_on_c, 0, 84, 98
2, 34021, Note_on_c, 0, 84, 0
2, 34021, Note_on_c, 0, 85, 98
2, 34071, Note_on_c, 0, 85, 0
2, 34081, Control_c, 0, 11, 91
2, 34081, Note_on_c, 0, 86, 98
2, 34105, Control_c, 0, 11, 91
2, 34129, Control_c, 0, 11, 89
2, 34153, Control_c, 0, 11, 89
2, 34177, Control_c, 0, 11, 86
2, 34201, Control_c, 0, 11, 85
2, 34225, Control_c, 0, 11, 84
2, 34249, Control_c, 0, 11, 82
2, 34273, Control_c, 0, 11, 80
2, 34297, Control_c, 0, 11, 80
2, 34311, Note_on_c, 0, 86, 0
2, 34321, Note_on_c, 0, 90, 98
2, 34321, Note_on_c, 0, 84, 98
2, 34321, Control_c, 0, 11, 91
2, 34345, Control_c, 0, 11, 91
2, 34369, Control_c, 0, 11, 89
2, 34393, Control_c, 0, 11, 89
2, 34417, Control_c, 0, 11, 86
2, 34441, Control_c, 0, 11, 85
2, 34465, Control_c, 0, 11, 84
2, 34489, Control_c, 0, 11, 82
2, 34513, Control_c, 0, 11, 80
2, 34537, Control_c, 0, 11, 80
2, 34551, Note_on_c, 0, 84, 0
2, 34551, Note_on_c, 0, 90, 0
2, 34561, Note_on_c, 0, 91, 98
2, 34561, Note_on_c, 0, 83, 98
2, 34561, Control_c, 0, 11, 91
2, 34579, Control_c, 0, 11, 89
2, 34597, Control_c, 0, 11, 89
2, 34609, Control_c, 0, 11, 86
2, 34627, Control_c, 0, 11, 84
2, 34645, Control_c, 0, 11, 82
2, 34663, Control_c, 0, 11, 80
2, 34681, Note_on_c, 0, 83, 0
2, 34681, Note_on_c, 0, 91, 0
2, 34681, Control_c, 0, 11, 78
2, 34801, Note_on_c, 0, 81, 98
2, 34861, Note_on_c, 0, 81, 0
2, 34861, Note_on_c, 0, 83, 98
2, 34921, Note_on_c, 0, 83, 0
2, 34921, Note_on_c, 0, 84, 98
2, 34981, Note_on_c, 0, 84, 0
2, 34981, Note_on_c, 0, 85, 98
2, 35031, Note_on_c, 0, 85, 0
2, 35041, Control_c, 0, 11, 91
2, 35041, Note_on_c, 0, 86, 98
2, 35059, Control_c, 0, 11, 91
2, 35077, Control_c, 0, 11, 89
2, 35095, Control_c, 0, 11, 89
2, 35113, Control_c, 0, 11, 86
2, 35131, Control_c, 0, 11, 85
2, 35149, Control_c, 0, 11, 84
2, 35167, Control_c, 0, 11, 82
2, 35185, Control_c, 0, 11, 80
2, 35203, Control_c, 0, 11, 80
2, 35211, Note_on_c, 0, 86, 0
2, 35221, Control_c, 0, 11, 78
2, 35221, Note_on_c, 0, 84, 98
2, 35271, Note_on_c, 0, 84, 0
2, 35281, Note_on_c, 0, 83, 98
2, 35331, Note_on_c, 0, 83, 0
2, 35341, Note_on_c, 0, 81, 98
2, 35391, Note_on_c, 0, 81, 0
2, 35401, Note_on_c, 0, 79, 98
2, 35451, Note_on_c, 0, 79, 0
2, 35461, Note_on_c, 0, 77, 98
2, 35511, Note_on_c, 0, 77, 0
2, 35521, Control_c, 0, 11, 91
2, 35521, Note_on_c, 0, 76, 98
2, 35539, Control_c, 0, 11, 89
2, 35557, Control_c, 0, 11, 89
2, 35569, Control_c, 0, 11, 86
2, 35587, Control_c, 0, 11, 84
2, 35605, Control_c, 0, 11, 82
2, 35623, Control_c, 0, 11, 80
2, 35631, Note_on_c, 0, 76, 0
2, 35641, Control_c, 0, 11, 78
2, 35641, Note_on_c, 0, 88, 98
2, 35691, Note_on_c, 0, 88, 0
2, 35701, Note_on_c, 0, 86, 98
2, 35751, Note_on_c, 0, 86, 0
2, 35761, Note_on_c, 0, 84, 98
2, 35811, Note_on_c, 0, 84, 0
2, 35821, Note_on_c, 0, 83, 98
2, 35871, Note_on_c, 0, 83, 0
2, 35881, Note_on_c, 0, 81, 98
2, 35931, Note_on_c, 0, 81, 0
2, 35941, Note_on_c, 0, 79, 98
2, 35991, Note_on_c, 0, 79, 0
2, 36001, Control_c, 0, 11, 78
2, 36001, Note_on_c, 0, 78, 98
2, 36033, Control_c, 0, 11, 80
2, 36051, Note_on_c, 0, 78, 0
2, 36061, Note_on_c, 0, 79, 98
2, 36065, Control_c, 0, 11, 80
2, 36097, Control_c, 0, 11, 80
2, 36111, Note_on_c, 0, 79, 0
2, 36121, Note_on_c, 0, 69, 98
2, 36121, Note_on_c, 0, 81, 98
2, 36129, Control_c, 0, 11, 80
2, 36161, Control_c, 0, 11, 82
2, 36171, Note_on_c, 0, 81, 0
2, 36171, Note_on_c, 0, 69, 0
2, 36181, Note_on_c, 0, 83, 98
2, 36181, Note_on_c, 0, 71, 98
2, 36193, Control_c, 0, 11, 82
2, 36225, Control_c, 0, 11, 82
2, 36231, Note_on_c, 0, 71, 0
2, 36231, Note_on_c, 0, 83, 0
2, 36241, Note_on_c, 0, 72, 98
2, 36241, Note_on_c, 0, 84, 98
2, 36257, Control_c, 0, 11, 84
2, 36289, Control_c, 0, 11, 84
2, 36291, Note_on_c, 0, 84, 0
2, 36291, Note_on_c, 0, 72, 0
2, 36301, Note_on_c, 0, 74, 98
2, 36301, Note_on_c, 0, 86, 98
2, 36321, Control_c, 0, 11, 85
2, 36351, Note_on_c, 0, 86, 0
2, 36351, Note_on_c, 0, 74, 0
2, 36353, Control_c, 0, 11, 86
2, 36361, Note_on_c, 0, 88, 98
2, 36361, Note_on_c, 0, 76, 98
2, 36385, Control_c, 0, 11, 86
2, 36411, Note_on_c, 0, 76, 0
2, 36411, Note_on_c, 0, 88, 0
2, 36417, Control_c, 0, 11, 87
2, 36421, Note_on_c, 0, 78, 98
2, 36421, Note_on_c, 0, 90, 98
2, 36449, Control_c, 0, 11, 89
2, 36471, Note_on_c, 0, 90, 0
2, 36471, Note_on_c, 0, 78, 0
2, 36481, Control_c, 0, 11, 89
2, 36481, Note_on_c, 0, 91, 98
2, 36481, Note_on_c, 0, 79, 98
2, 36541, Note_on_c, 0, 79, 0
2, 36541, Note_on_c, 0, 91, 0
2, 36601, Note_on_c, 0, 88, 88
2, 36661, Note_on_c, 0, 88, 0
2, 36721, Note_on_c, 0, 86, 88
2, 36781, Note_on_c, 0, 86, 0
2, 36841, Note_on_c, 0, 78, 88
2, 36901, Note_on_c, 0, 78, 0
2, 36961, Control_c, 0, 11, 78
2, 36961, Note_on_c, 0, 79, 70
2, 36991, Control_c, 0, 11, 78
2, 37008, Control_c, 0, 11, 75
2, 37026, Control_c, 0, 11, 73
2, 37044, Control_c, 0, 11, 71
2, 37053, Control_c, 0, 11, 68
2, 37071, Control_c, 0, 11, 66
2, 37081, Note_on_c, 0, 79, 0
2, 40801, Control_c, 0, 11, 42
2, 40801, Note_on_c, 0, 78, 98
2, 40801, Note_on_c, 0, 84, 98
2, 40833, Control_c, 0, 11, 43
2, 40865, Control_c, 0, 11, 44
2, 40897, Control_c, 0, 11, 45
2, 40929, Control_c, 0, 11, 46
2, 40961, Control_c, 0, 11, 47
2, 40993, Control_c, 0, 11, 48
2, 41025, Control_c, 0, 11, 49
2, 41057, Control_c, 0, 11, 50
2, 41089, Control_c, 0, 11, 51
2, 41121, Control_c, 0, 11, 52
2, 41153, Control_c, 0, 11, 53
2, 41185, Control_c, 0, 11, 54
2, 41217, Control_c, 0, 11, 55
2, 41249, Control_c, 0, 11, 56
2, 41281, Note_on_c, 0, 84, 0
2, 41281, Note_on_c, 0, 78, 0
2, 41281, Note_on_c, 0, 83, 98
2, 41281, Control_c, 0, 11, 57
2, 41281, Note_on_c, 0, 79, 98
2, 41313, Control_c, 0, 11, 58
2, 41345, Control_c, 0, 11, 59
2, 41377, Control_c, 0, 11, 60
2, 41409, Control_c, 0, 11, 61
2, 41441, Control_c, 0, 11, 62
2, 41473, Control_c, 0, 11, 62
2, 41505, Control_c, 0, 11, 62
2, 41537, Control_c, 0, 11, 62
2, 41569, Control_c, 0, 11, 64
2, 41601, Control_c, 0, 11, 64
2, 41633, Control_c, 0, 11, 64
2, 41665, Control_c, 0, 11, 66
2, 41697, Control_c, 0, 11, 66
2, 41729, Control_c, 0, 11, 67
2, 41761, Note_on_c, 0, 83, 0
2, 41761, Note_on_c, 0, 81, 98
2, 41761, Control_c, 0, 11, 68
2, 41793, Control_c, 0, 11, 68
2, 41825, Control_c, 0, 11, 69
2, 41857, Control_c, 0, 11, 71
2, 41889, Control_c, 0, 11, 71
2, 41921, Control_c, 0, 11, 71
2, 41953, Control_c, 0, 11, 71
2, 41985, Control_c, 0, 11, 73
2, 42001, Note_on_c, 0, 79, 0
2, 42001, Note_on_c, 0, 78, 98
2, 42017, Control_c, 0, 11, 73
2, 42049, Control_c, 0, 11, 73
2, 42081, Control_c, 0, 11, 75
2, 42113, Control_c, 0, 11, 75
2, 42145, Control_c, 0, 11, 76
2, 42177, Control_c, 0, 11, 77
2, 42209, Control_c, 0, 11, 77
2, 42231, Note_on_c, 0, 78, 0
2, 42241, Note_on_c, 0, 81, 0
2, 42241, Control_c, 0, 11, 100
2, 42241, Note_on_c, 0, 79, 98
2, 42265, Control_c, 0, 11, 98
2, 42289, Control_c, 0, 11, 96
2, 42313, Control_c, 0, 11, 94
2, 42337, Control_c, 0, 11, 91
2, 42361, Control_c, 0, 11, 89
2, 42591, Note_on_c, 0, 79, 0
2, 42601, Note_on_c, 0, 74, 98
2, 42691, Note_on_c, 0, 74, 0
2, 42691, Note_on_c, 0, 78, 98
2, 42711, Note_on_c, 0, 78, 0
2, 42721, Control_c, 0, 11, 91
2, 42721, Note_on_c, 0, 79, 98
2, 42745, Control_c, 0, 11, 91
2, 42769, Control_c, 0, 11, 89
2, 42793, Control_c, 0, 11, 89
2, 42817, Control_c, 0, 11, 86
2, 42841, Control_c, 0, 11, 85
2, 42865, Control_c, 0, 11, 84
2, 42889, Control_c, 0, 11, 82
2, 42913, Control_c, 0, 11, 80
2, 42937, Control_c, 0, 11, 80
2, 42961, Control_c, 0, 11, 78
2, 43071, Note_on_c, 0, 79, 0
2, 43081, Note_on_c, 0, 74, 98
2, 43171, Note_on_c, 0, 74, 0
2, 43171, Note_on_c, 0, 78, 98
2, 43191, Note_on_c, 0, 78, 0
2, 43201, Control_c, 0, 11, 91
2, 43201, Note_on_c, 0, 79, 98
2, 43219, Control_c, 0, 11, 89
2, 43237, Control_c, 0, 11, 89
2, 43249, Control_c, 0, 11, 86
2, 43261, Note_on_c, 0, 79, 0
2, 43267, Control_c, 0, 11, 84
2, 43285, Control_c, 0, 11, 82
2, 43303, Control_c, 0, 11, 80
2, 43321, Control_c, 0, 11, 78
2, 43441, Note_on_c, 0, 81, 98
2, 43441, Control_c, 0, 11, 91
2, 43458, Control_c, 0, 11, 89
2, 43476, Control_c, 0, 11, 89
2, 43488, Control_c, 0, 11, 86
2, 43501, Note_on_c, 0, 81, 0
2, 43506, Control_c, 0, 11, 84
2, 43524, Control_c, 0, 11, 82
2, 43542, Control_c, 0, 11, 80
2, 43560, Control_c, 0, 11, 78
2, 43681, Note_on_c, 0, 83, 98
2, 43681, Control_c, 0, 11, 91
2, 43698, Control_c, 0, 11, 89
2, 43716, Control_c, 0, 11, 89
2, 43728, Control_c, 0, 11, 86
2, 43741, Note_on_c, 0, 83, 0
2, 43746, Control_c, 0, 11, 84
2, 43764, Control_c, 0, 11, 82
2, 43782, Control_c, 0, 11, 80
2, 43800, Control_c, 0, 11, 78
2, 43921, Control_c, 0, 11, 91
2, 43921, Note_on_c, 0, 84, 98
2, 43938, Control_c, 0, 11, 89
2, 43956, Control_c, 0, 11, 89
2, 43968, Control_c, 0, 11, 86
2, 43981, Note_on_c, 0, 84, 0
2, 43986, Control_c, 0, 11, 84
2, 44004, Control_c, 0, 11, 82
2, 44022, Control_c, 0, 11, 80
2, 44040, Control_c, 0, 11, 78
2, 44161, Control_c, 0, 11, 78
2, 44161, Note_on_c, 0, 86, 88
2, 44631, Note_on_c, 0, 86, 0
2, 44641, Note_on_c, 0, 87, 88
2, 44641, Note_on_c, 0, 78, 88
2, 45111, Note_on_c, 0, 78, 0
2, 45111, Note_on_c, 0, 87, 0
2, 45121, Note_on_c, 0, 83, 88
2, 45121, Note_on_c, 0, 88, 88
2, 45121, Control_c, 0, 11, 89
2, 45591, Note_on_c, 0, 88, 0
2, 45591, Note_on_c, 0, 83, 0
2, 45601, Note_on_c, 0, 89, 88
2, 45601, Note_on_c, 0, 77, 88
2, 45721, Note_on_c, 0, 77, 0
2, 45721, Note_on_c, 0, 89, 0
2, 45721, Note_on_c, 0, 86, 88
2, 45841, Note_on_c, 0, 86, 0
2, 45841, Note_on_c, 0, 83, 88
2, 45961, Note_on_c, 0, 83, 0
2, 45961, Note_on_c, 0, 80, 88
2, 46071, Note_on_c, 0, 80, 0
2, 46081, Note_on_c, 0, 81, 88
2, 46081, Note_on_c, 0, 76, 88
2, 46561, Note_on_c, 0, 76, 0
2, 46561, Note_on_c, 0, 81, 0
2, 46561, Note_on_c, 0, 82, 88
2, 46681, Note_on_c, 0, 82, 0
2, 46681, Note_on_c, 0, 79, 88
2, 46801, Note_on_c, 0, 79, 0
2, 46801, Note_on_c, 0, 76, 88
2, 46801, Note_on_c, 0, 88, 88
2, 46921, Note_on_c, 0, 88, 0
2, 46921, Note_on_c, 0, 76, 0
2, 46921, Note_on_c, 0, 73, 88
2, 46921, Note_on_c, 0, 85, 88
2, 47031, Note_on_c, 0, 85, 0
2, 47031, Note_on_c, 0, 73, 0
2, 47041, Note_on_c, 0, 86, 88
2, 47041, Control_c, 0, 11, 102
2, 47041, Note_on_c, 0, 74, 88
2, 47058, Control_c, 0, 11, 100
2, 47076, Control_c, 0, 11, 98
2, 47094, Control_c, 0, 11, 96
2, 47112, Control_c, 0, 11, 94
2, 47130, Control_c, 0, 11, 91
2, 47148, Control_c, 0, 11, 89
2, 47271, Note_on_c, 0, 74, 0
2, 47271, Note_on_c, 0, 86, 0
2, 47281, Control_c, 0, 11, 102
2, 47281, Note_on_c, 0, 88, 88
2, 47281, Note_on_c, 0, 76, 88
2, 47298, Control_c, 0, 11, 100
2, 47316, Control_c, 0, 11, 98
2, 47334, Control_c, 0, 11, 96
2, 47352, Control_c, 0, 11, 94
2, 47370, Control_c, 0, 11, 91
2, 47388, Control_c, 0, 11, 89
2, 47511, Note_on_c, 0, 76, 0
2, 47511, Note_on_c, 0, 88, 0
2, 47521, Control_c, 0, 11, 102
2, 47521, Note_on_c, 0, 72, 88
2, 47521, Note_on_c, 0, 84, 88
2, 47538, Control_c, 0, 11, 100
2, 47556, Control_c, 0, 11, 98
2, 47574, Control_c, 0, 11, 96
2, 47592, Control_c, 0, 11, 94
2, 47610, Control_c, 0, 11, 91
2, 47628, Control_c, 0, 11, 89
2, 47751, Note_on_c, 0, 84, 0
2, 47751, Note_on_c, 0, 72, 0
2, 47761, Control_c, 0, 11, 102
2, 47761, Note_on_c, 0, 74, 88
2, 47761, Note_on_c, 0, 86, 88
2, 47778, Control_c, 0, 11, 100
2, 47796, Control_c, 0, 11, 98
2, 47814, Control_c, 0, 11, 96
2, 47832, Control_c, 0, 11, 94
2, 47850, Control_c, 0, 11, 91
2, 47868, Control_c, 0, 11, 89
2, 47941, Control_c, 0, 11, 78
2, 47959, Control_c, 0, 11, 75
2, 47977, Control_c, 0, 11, 73
2, 47991, Note_on_c, 0, 86, 0
2, 47991, Note_on_c, 0, 74, 0
2, 47995, Control_c, 0, 11, 71
2, 48001, Note_on_c, 0, 79, 88
2, 48001, Note_on_c, 0, 67, 88
2, 48004, Control_c, 0, 11, 68
2, 48022, Control_c, 0, 11, 66
2, 48040, Control_c, 0, 11, 62
2, 48058, Control_c, 0, 11, 61
2, 48071, Control_c, 0, 11, 58
2, 48085, Control_c, 0, 11, 55
2, 48098, Control_c, 0, 11, 52
2, 48112, Control_c, 0, 11, 49
2, 48121, Note_on_c, 0, 67, 0
2, 48121, Note_on_c, 0, 79, 0
2, 48841, Control_c, 0, 11, 85
2, 48841, Note_on_c, 0, 90, 98
2, 48841, Note_on_c, 0, 78, 98
2, 48848, Control_c, 0, 11, 82
2, 48864, Control_c, 0, 11, 78
2, 48874, Control_c, 0, 11, 75
2, 48886, Control_c, 0, 11, 71
2, 48898, Control_c, 0, 11, 68
2, 48910, Control_c, 0, 11, 64
2, 48926, Control_c, 0, 11, 61
2, 48933, Control_c, 0, 11, 58
2, 48940, Control_c, 0, 11, 55
2, 48948, Control_c, 0, 11, 52
2, 48955, Control_c, 0, 11, 49
2, 48961, Note_on_c, 0, 78, 0
2, 48961, Note_on_c, 0, 90, 0
2, 48961, Note_on_c, 0, 79, 98
2, 48961, Note_on_c, 0, 91, 98
2, 49081, Note_on_c, 0, 91, 0
2, 49081, Note_on_c, 0, 79, 0
2, 49801, Control_c, 0, 11, 85
2, 49801, Note_on_c, 0, 78, 98
2, 49801, Note_on_c, 0, 90, 98
2, 49808, Control_c, 0, 11, 82
2, 49824, Control_c, 0, 11, 78
2, 49834, Control_c, 0, 11, 75
2, 49846, Control_c, 0, 11, 71
2, 49858, Control_c, 0, 11, 68
2, 49870, Control_c, 0, 11, 64
2, 49886, Control_c, 0, 11, 61
2, 49893, Control_c, 0, 11, 58
2, 49900, Control_c, 0, 11, 55
2, 49908, Control_c, 0, 11, 52
2, 49915, Control_c, 0, 11, 49
2, 49921, Note_on_c, 0, 90, 0
2, 49921, Note_on_c, 0, 78, 0
2, 49921, Note_on_c, 0, 79, 98
2, 49921, Note_on_c, 0, 91, 98
2, 50041, Note_on_c, 0, 79, 0
2, 50101, Note_on_c, 0, 91, 0
2, 50101, Note_on_c, 0, 90, 98
2, 50131, Note_on_c, 0, 90, 0
2, 50131, Note_on_c, 0, 88, 98
2, 50151, Note_on_c, 0, 88, 0
2, 50161, Note_on_c, 0, 86, 98
2, 50221, Note_on_c, 0, 86, 0
2, 50281, Control_c, 0, 11, 85
2, 50281, Note_on_c, 0, 84, 98
2, 50281, Note_on_c, 0, 90, 98
2, 50288, Control_c, 0, 11, 82
2, 50304, Control_c, 0, 11, 78
2, 50314, Control_c, 0, 11, 75
2, 50326, Control_c, 0, 11, 71
2, 50338, Control_c, 0, 11, 68
2, 50350, Control_c, 0, 11, 64
2, 50366, Control_c, 0, 11, 61
2, 50373, Control_c, 0, 11, 58
2, 50380, Control_c, 0, 11, 55
2, 50388, Control_c, 0, 11, 52
2, 50395, Control_c, 0, 11, 49
2, 50401, Note_on_c, 0, 90, 0
2, 50401, Note_on_c, 0, 84, 0
2, 50401, Note_on_c, 0, 91, 98
2, 50401, Note_on_c, 0, 83, 98
2, 50521, Note_on_c, 0, 83, 0
2, 50581, Note_on_c, 0, 91, 0
2, 50581, Note_on_c, 0, 90, 98
2, 50611, Note_on_c, 0, 90, 0
2, 50611, Note_on_c, 0, 88, 98
2, 50641, Note_on_c, 0, 88, 0
2, 50641, Note_on_c, 0, 86, 98
2, 50701, Note_on_c, 0, 86, 0
2, 50761, Note_on_c, 0, 90, 98
2, 50761, Note_on_c, 0, 84, 98
2, 50761, Control_c, 0, 11, 89
2, 50881, Note_on_c, 0, 84, 0
2, 50881, Note_on_c, 0, 90, 0
2, 50881, Note_on_c, 0, 83, 98
2, 50881, Note_on_c, 0, 91, 98
2, 51001, Note_on_c, 0, 83, 0
2, 51001, Control_c, 0, 11, 89
2, 51016, Control_c, 0, 11, 89
2, 51032, Control_c, 0, 11, 87
2, 51048, Control_c, 0, 11, 86
2, 51064, Control_c, 0, 11, 86
2, 51080, Control_c, 0, 11, 85
2, 51096, Control_c, 0, 11, 84
2, 51112, Control_c, 0, 11, 84
2, 51128, Control_c, 0, 11, 82
2, 51144, Control_c, 0, 11, 82
2, 51160, Control_c, 0, 11, 82
2, 51176, Control_c, 0, 11, 80
2, 51192, Control_c, 0, 11, 80
2, 51208, Control_c, 0, 11, 80
2, 51224, Control_c, 0, 11, 80
2, 51240, Control_c, 0, 11, 78
2, 51258, Control_c, 0, 11, 77
2, 51275, Control_c, 0, 11, 77
2, 51292, Control_c, 0, 11, 76
2, 51309, Control_c, 0, 11, 75
2, 51326, Control_c, 0, 11, 75
2, 51343, Control_c, 0, 11, 73
2, 51360, Control_c, 0, 11, 73
2, 51361, Note_on_c, 0, 91, 0
2, 51361, Note_on_c, 0, 89, 88
2, 51377, Control_c, 0, 11, 73
2, 51395, Control_c, 0, 11, 71
2, 51412, Control_c, 0, 11, 71
2, 51429, Control_c, 0, 11, 71
2, 51446, Control_c, 0, 11, 71
2, 51463, Control_c, 0, 11, 69
2, 51480, Control_c, 0, 11, 68
2, 51497, Control_c, 0, 11, 68
2, 51514, Control_c, 0, 11, 67
2, 51531, Control_c, 0, 11, 66
2, 51549, Control_c, 0, 11, 66
2, 51566, Control_c, 0, 11, 64
2, 51583, Control_c, 0, 11, 64
2, 51600, Control_c, 0, 11, 64
2, 51601, Note_on_c, 0, 89, 0
2, 51601, Note_on_c, 0, 86, 88
2, 51617, Control_c, 0, 11, 62
2, 51634, Control_c, 0, 11, 62
2, 51651, Control_c, 0, 11, 62
2, 51668, Control_c, 0, 11, 62
2, 51685, Control_c, 0, 11, 61
2, 51703, Control_c, 0, 11, 60
2, 51720, Control_c, 0, 11, 59
2, 51737, Control_c, 0, 11, 58
2, 51754, Control_c, 0, 11, 57
2, 51771, Control_c, 0, 11, 56
2, 51788, Control_c, 0, 11, 55
2, 51805, Control_c, 0, 11, 54
2, 51822, Control_c, 0, 11, 53
2, 51840, Control_c, 0, 11, 52
2, 51841, Note_on_c, 0, 86, 0
2, 51841, Note_on_c, 0, 83, 88
2, 51904, Control_c, 0, 11, 51
2, 51968, Control_c, 0, 11, 50
2, 52032, Control_c, 0, 11, 49
2, 52081, Note_on_c, 0, 83, 0
2, 52081, Note_on_c, 0, 79, 88
2, 52096, Control_c, 0, 11, 48
2, 52160, Control_c, 0, 11, 47
2, 52224, Control_c, 0, 11, 46
2, 52288, Control_c, 0, 11, 45
2, 52321, Note_on_c, 0, 79, 0
2, 52321, Note_on_c, 0, 77, 88
2, 52352, Control_c, 0, 11, 44
2, 52416, Control_c, 0, 11, 43
2, 52480, Control_c, 0, 11, 42
2, 52544, Control_c, 0, 11, 41
2, 52561, Note_on_c, 0, 77, 0
2, 52561, Note_on_c, 0, 74, 88
2, 52608, Control_c, 0, 11, 40
2, 52672, Control_c, 0, 11, 39
2, 52736, Control_c, 0, 11, 38
2, 52800, Control_c, 0, 11, 37
2, 52801, Note_on_c, 0, 74, 0
2, 52801, Note_on_c, 0, 84, 74
2, 52801, Note_on_c, 0, 76, 74
2, 52861, Control_c, 0, 11, 47
2, 52868, Control_c, 0, 11, 44
2, 52875, Control_c, 0, 11, 41
2, 52882, Control_c, 0, 11, 38
2, 52889, Control_c, 0, 11, 35
2, 52896, Control_c, 0, 11, 32
2, 52903, Control_c, 0, 11, 29
2, 52910, Control_c, 0, 11, 26
2, 52917, Control_c, 0, 11, 23
2, 52921, Note_on_c, 0, 76, 0
2, 52921, Note_on_c, 0, 84, 0
2, 54721, Note_on_c, 0, 84, 78
2, 54721, Note_on_c, 0, 76, 78
2, 54721, Control_c, 0, 11, 32
2, 54732, Control_c, 0, 11, 35
2, 54743, Control_c, 0, 11, 38
2, 54754, Control_c, 0, 11, 41
2, 54766, Control_c, 0, 11, 44
2, 54777, Control_c, 0, 11, 47
2, 54817, Control_c, 0, 11, 50
2, 54849, Control_c, 0, 11, 51
2, 54881, Control_c, 0, 11, 52
2, 54913, Control_c, 0, 11, 53
2, 54945, Control_c, 0, 11, 54
2, 54977, Control_c, 0, 11, 55
2, 55009, Control_c, 0, 11, 56
2, 55041, Control_c, 0, 11, 57
2, 55073, Control_c, 0, 11, 58
2, 55105, Control_c, 0, 11, 59
2, 55137, Control_c, 0, 11, 60
2, 55169, Control_c, 0, 11, 61
2, 55201, Note_on_c, 0, 84, 0
2, 55201, Control_c, 0, 11, 62
2, 55201, Note_on_c, 0, 85, 78
2, 55233, Control_c, 0, 11, 62
2, 55265, Control_c, 0, 11, 62
2, 55297, Control_c, 0, 11, 62
2, 55329, Control_c, 0, 11, 64
2, 55361, Control_c, 0, 11, 64
2, 55393, Control_c, 0, 11, 64
2, 55425, Control_c, 0, 11, 66
2, 55457, Control_c, 0, 11, 66
2, 55489, Control_c, 0, 11, 67
2, 55521, Control_c, 0, 11, 68
2, 55553, Control_c, 0, 11, 68
2, 55585, Control_c, 0, 11, 69
2, 55617, Control_c, 0, 11, 71
2, 55641, Control_c, 0, 11, 71
2, 55651, Control_c, 0, 11, 68
2, 55665, Control_c, 0, 11, 64
2, 55681, Note_on_c, 0, 85, 0
2, 55681, Note_on_c, 0, 76, 0
2, 55681, Note_on_c, 0, 77, 62
2, 55681, Note_on_c, 0, 86, 62
2, 55681, Control_c, 0, 11, 62
2, 55801, Note_on_c, 0, 86, 0
2, 55801, Note_on_c, 0, 77, 0
2, 57601, Note_on_c, 0, 86, 78
2, 57601, Note_on_c, 0, 77, 78
2, 57601, Control_c, 0, 11, 32
2, 57620, Control_c, 0, 11, 35
2, 57639, Control_c, 0, 11, 38
2, 57658, Control_c, 0, 11, 41
2, 57685, Control_c, 0, 11, 43
2, 57706, Control_c, 0, 11, 44
2, 57727, Control_c, 0, 11, 45
2, 57748, Control_c, 0, 11, 46
2, 57769, Control_c, 0, 11, 47
2, 57789, Control_c, 0, 11, 48
2, 57810, Control_c, 0, 11, 49
2, 57831, Control_c, 0, 11, 50
2, 57852, Control_c, 0, 11, 51
2, 57873, Control_c, 0, 11, 52
2, 57893, Control_c, 0, 11, 53
2, 57914, Control_c, 0, 11, 54
2, 57935, Control_c, 0, 11, 55
2, 57956, Control_c, 0, 11, 56
2, 57977, Control_c, 0, 11, 57
2, 57997, Control_c, 0, 11, 58
2, 58018, Control_c, 0, 11, 59
2, 58039, Control_c, 0, 11, 60
2, 58060, Control_c, 0, 11, 61
2, 58081, Control_c, 0, 11, 62
2, 58113, Control_c, 0, 11, 62
2, 58145, Control_c, 0, 11, 62
2, 58177, Control_c, 0, 11, 62
2, 58209, Control_c, 0, 11, 64
2, 58241, Control_c, 0, 11, 64
2, 58273, Control_c, 0, 11, 64
2, 58305, Control_c, 0, 11, 66
2, 58337, Control_c, 0, 11, 66
2, 58369, Control_c, 0, 11, 67
2, 58401, Control_c, 0, 11, 68
2, 58433, Control_c, 0, 11, 68
2, 58465, Control_c, 0, 11, 69
2, 58497, Control_c, 0, 11, 71
2, 58529, Control_c, 0, 11, 71
2, 58561, Note_on_c, 0, 77, 0
2, 58561, Note_on_c, 0, 86, 0
2, 58561, Note_on_c, 0, 86, 98
2, 58561, Note_on_c, 0, 77, 98
2, 58561, Control_c, 0, 11, 78
2, 58579, Control_c, 0, 11, 76
2, 58597, Control_c, 0, 11, 73
2, 58615, Control_c, 0, 11, 71
2, 58633, Control_c, 0, 11, 71
2, 58645, Control_c, 0, 11, 68
2, 58663, Control_c, 0, 11, 66
2, 58681, Control_c, 0, 11, 64
2, 58702, Control_c, 0, 11, 62
2, 58724, Control_c, 0, 11, 61
2, 58745, Control_c, 0, 11, 58
2, 58767, Control_c, 0, 11, 55
2, 58788, Control_c, 0, 11, 52
2, 58810, Control_c, 0, 11, 49
2, 58831, Control_c, 0, 11, 46
2, 58853, Control_c, 0, 11, 43
2, 58874, Control_c, 0, 11, 40
2, 58896, Note_on_c, 0, 77, 0
2, 58896, Note_on_c, 0, 86, 0
2, 58896, Control_c, 0, 11, 37
2, 59521, Control_c, 0, 11, 85
2, 59521, Note_on_c, 0, 83, 98
2, 59539, Control_c, 0, 11, 82
2, 59557, Control_c, 0, 11, 80
2, 59575, Control_c, 0, 11, 80
2, 59587, Control_c, 0, 11, 77
2, 59605, Control_c, 0, 11, 75
2, 59623, Control_c, 0, 11, 73
2, 59641, Control_c, 0, 11, 71
2, 59657, Control_c, 0, 11, 69
2, 59673, Control_c, 0, 11, 67
2, 59689, Control_c, 0, 11, 64
2, 59705, Control_c, 0, 11, 62
2, 59721, Control_c, 0, 11, 62
2, 59737, Control_c, 0, 11, 59
2, 59753, Control_c, 0, 11, 56
2, 59770, Control_c, 0, 11, 53
2, 59786, Control_c, 0, 11, 50
2, 59802, Control_c, 0, 11, 47
2, 59818, Control_c, 0, 11, 44
2, 59834, Control_c, 0, 11, 41
2, 59850, Control_c, 0, 11, 38
2, 59856, Note_on_c, 0, 83, 0
2, 60481, Note_on_c, 0, 83, 88
2, 60481, Control_c, 0, 11, 85
2, 60481, Note_on_c, 0, 86, 88
2, 60499, Control_c, 0, 11, 82
2, 60517, Control_c, 0, 11, 80
2, 60535, Control_c, 0, 11, 80
2, 60547, Control_c, 0, 11, 77
2, 60565, Control_c, 0, 11, 75
2, 60583, Control_c, 0, 11, 73
2, 60601, Control_c, 0, 11, 71
2, 60961, Control_c, 0, 11, 71
2, 60980, Control_c, 0, 11, 71
2, 60999, Control_c, 0, 11, 73
2, 61018, Control_c, 0, 11, 73
2, 61037, Control_c, 0, 11, 73
2, 61056, Control_c, 0, 11, 75
2, 61071, Note_on_c, 0, 86, 0
2, 61071, Note_on_c, 0, 83, 0
2, 61075, Control_c, 0, 11, 75
2, 61081, Note_on_c, 0, 86, 79
2, 61081, Note_on_c, 0, 83, 79
2, 61095, Control_c, 0, 11, 76
2, 61114, Control_c, 0, 11, 77
2, 61133, Control_c, 0, 11, 77
2, 61152, Control_c, 0, 11, 78
2, 61171, Control_c, 0, 11, 80
2, 61190, Control_c, 0, 11, 80
2, 61191, Note_on_c, 0, 83, 0
2, 61191, Note_on_c, 0, 86, 0
2, 61201, Note_on_c, 0, 86, 79
2, 61201, Note_on_c, 0, 83, 79
2, 61210, Control_c, 0, 11, 80
2, 61229, Control_c, 0, 11, 80
2, 61248, Control_c, 0, 11, 82
2, 61267, Control_c, 0, 11, 82
2, 61286, Control_c, 0, 11, 82
2, 61305, Control_c, 0, 11, 84
2, 61311, Note_on_c, 0, 83, 0
2, 61311, Note_on_c, 0, 86, 0
2, 61321, Note_on_c, 0, 83, 79
2, 61321, Note_on_c, 0, 86, 79
2, 61325, Control_c, 0, 11, 84
2, 61344, Control_c, 0, 11, 85
2, 61363, Control_c, 0, 11, 86
2, 61382, Control_c, 0, 11, 86
2, 61401, Control_c, 0, 11, 87
2, 61420, Control_c, 0, 11, 89
2, 61431, Note_on_c, 0, 86, 0
2, 61431, Note_on_c, 0, 83, 0
2, 61440, Control_c, 0, 11, 89
2, 61441, Note_on_c, 0, 84, 88
2, 61441, Note_on_c, 0, 88, 88
2, 61501, Note_on_c, 0, 88, 0
2, 61501, Note_on_c, 0, 84, 0
2, 61681, Note_on_c, 0, 89, 88
2, 61681, Note_on_c, 0, 81, 88
2, 61741, Note_on_c, 0, 81, 0
2, 61741, Note_on_c, 0, 89, 0
2, 61921, Note_on_c, 0, 88, 88
2, 61921, Note_on_c, 0, 79, 88
2, 61981, Note_on_c, 0, 79, 0
2, 61981, Note_on_c, 0, 88, 0
2, 62161, Note_on_c, 0, 77, 88
2, 62161, Note_on_c, 0, 83, 88
2, 62221, Note_on_c, 0, 83, 0
2, 62221, Note_on_c, 0, 77, 0
2, 62401, Note_on_c, 0, 84, 88
2, 62401, Note_on_c, 0, 76, 88
2, 62461, Note_on_c, 0, 76, 0
2, 62461, Note_on_c, 0, 84, 0
2, 63001, Note_on_c, 0, 84, 113
2, 63111, Note_on_c, 0, 84, 0
2, 63121, Note_on_c, 0, 84, 113
2, 63231, Note_on_c, 0, 84, 0
2, 63241, Note_on_c, 0, 84, 113
2, 63351, Note_on_c, 0, 84, 0
2, 63361, Note_on_c, 0, 83, 124
2, 63721, Note_on_c, 0, 83, 0
2, 63721, Note_on_c, 0, 86, 125
2, 63831, Note_on_c, 0, 86, 0
2, 63841, Note_on_c, 0, 89, 125
2, 64191, Note_on_c, 0, 89, 0
2, 64201, Note_on_c, 0, 88, 124
2, 64231, Note_on_c, 0, 88, 0
2, 64231, Note_on_c, 0, 86, 125
2, 64261, Note_on_c, 0, 86, 0
2, 64261, Note_on_c, 0, 84, 125
2, 64291, Note_on_c, 0, 84, 0
2, 64291, Note_on_c, 0, 83, 125
2, 64311, Note_on_c, 0, 83, 0
2, 64321, Control_c, 0, 11, 89
2, 64321, Note_on_c, 0, 84, 112
2, 64441, Note_on_c, 0, 84, 0
2, 64921, Note_on_c, 0, 84, 113
2, 65031, Note_on_c, 0, 84, 0
2, 65041, Note_on_c, 0, 84, 113
2, 65151, Note_on_c, 0, 84, 0
2, 65161, Note_on_c, 0, 84, 113
2, 65271, Note_on_c, 0, 84, 0
2, 65281, Note_on_c, 0, 83, 125
2, 65341, Note_on_c, 0, 83, 0
2, 65341, Note_on_c, 0, 81, 125
2, 65401, Note_on_c, 0, 81, 0
2, 65401, Note_on_c, 0, 79, 125
2, 65461, Note_on_c, 0, 79, 0
2, 65461, Note_on_c, 0, 81, 125
2, 65521, Note_on_c, 0, 81, 0
2, 65521, Note_on_c, 0, 83, 125
2, 65581, Note_on_c, 0, 83, 0
2, 65581, Note_on_c, 0, 84, 125
2, 65641, Note_on_c, 0, 84, 0
2, 65641, Note_on_c, 0, 86, 125
2, 65701, Note_on_c, 0, 86, 0
2, 65701, Note_on_c, 0, 88, 125
2, 65751, Note_on_c, 0, 88, 0
2, 65761, Note_on_c, 0, 89, 125
2, 65821, Note_on_c, 0, 89, 0
2, 65821, Note_on_c, 0, 88, 125
2, 65881, Note_on_c, 0, 88, 0
2, 65881, Note_on_c, 0, 89, 125
2, 65941, Note_on_c, 0, 89, 0
2, 65941, Note_on_c, 0, 88, 125
2, 66001, Note_on_c, 0, 88, 0
2, 66001, Note_on_c, 0, 89, 125
2, 66061, Note_on_c, 0, 89, 0
2, 66061, Note_on_c, 0, 86, 125
2, 66121, Note_on_c, 0, 86, 0
2, 66121, Note_on_c, 0, 84, 125
2, 66181, Note_on_c, 0, 84, 0
2, 66181, Note_on_c, 0, 83, 125
2, 66231, Note_on_c, 0, 83, 0
2, 66241, Note_on_c, 0, 84, 101
2, 66361, Note_on_c, 0, 84, 0
2, 66601, Control_c, 0, 11, 78
2, 66601, Note_on_c, 0, 81, 98
2, 66631, Note_on_c, 0, 81, 0
2, 66661, Note_on_c, 0, 85, 98
2, 66691, Note_on_c, 0, 85, 0
2, 66721, Note_on_c, 0, 86, 98
2, 66841, Note_on_c, 0, 86, 0
2, 67081, Note_on_c, 0, 83, 98
2, 67081, Control_c, 0, 11, 78
2, 67111, Note_on_c, 0, 83, 0
2, 67141, Note_on_c, 0, 87, 98
2, 67153, Control_c, 0, 11, 80
2, 67171, Note_on_c, 0, 87, 0
2, 67201, Note_on_c, 0, 88, 98
2, 67225, Control_c, 0, 11, 80
2, 67251, Note_on_c, 0, 88, 0
2, 67261, Note_on_c, 0, 76, 98
2, 67297, Control_c, 0, 11, 80
2, 67311, Note_on_c, 0, 76, 0
2, 67321, Note_on_c, 0, 72, 98
2, 67369, Control_c, 0, 11, 80
2, 67371, Note_on_c, 0, 72, 0
2, 67381, Note_on_c, 0, 76, 98
2, 67431, Note_on_c, 0, 76, 0
2, 67441, Control_c, 0, 11, 82
2, 67441, Note_on_c, 0, 77, 98
2, 67491, Note_on_c, 0, 77, 0
2, 67501, Note_on_c, 0, 74, 98
2, 67513, Control_c, 0, 11, 82
2, 67551, Note_on_c, 0, 74, 0
2, 67561, Note_on_c, 0, 79, 98
2, 67585, Control_c, 0, 11, 82
2, 67611, Note_on_c, 0, 79, 0
2, 67621, Note_on_c, 0, 76, 98
2, 67657, Control_c, 0, 11, 84
2, 67671, Note_on_c, 0, 76, 0
2, 67681, Note_on_c, 0, 81, 98
2, 67729, Control_c, 0, 11, 84
2, 67731, Note_on_c, 0, 81, 0
2, 67741, Note_on_c, 0, 77, 98
2, 67791, Note_on_c, 0, 77, 0
2, 67801, Control_c, 0, 11, 85
2, 67801, Note_on_c, 0, 83, 98
2, 67851, Note_on_c, 0, 83, 0
2, 67861, Note_on_c, 0, 79, 98
2, 67873, Control_c, 0, 11, 86
2, 67911, Note_on_c, 0, 79, 0
2, 67921, Note_on_c, 0, 84, 98
2, 67945, Control_c, 0, 11, 86
2, 67971, Note_on_c, 0, 84, 0
2, 67981, Note_on_c, 0, 81, 98
2, 68017, Control_c, 0, 11, 87
2, 68031, Note_on_c, 0, 81, 0
2, 68041, Note_on_c, 0, 76, 98
2, 68089, Control_c, 0, 11, 89
2, 68091, Note_on_c, 0, 76, 0
2, 68101, Note_on_c, 0, 78, 98
2, 68151, Note_on_c, 0, 78, 0
2, 68161, Control_c, 0, 11, 89
2, 68161, Note_on_c, 0, 79, 98
2, 68221, Note_on_c, 0, 79, 0
2, 68281, Note_on_c, 0, 83, 98
2, 68281, Note_on_c, 0, 86, 98
2, 68341, Note_on_c, 0, 86, 0
2, 68341, Note_on_c, 0, 83, 0
2, 68401, Note_on_c, 0, 84, 98
2, 68401, Note_on_c, 0, 88, 98
2, 68461, Note_on_c, 0, 88, 0
2, 68461, Note_on_c, 0, 84, 0
2, 68521, Note_on_c, 0, 84, 98
2, 68521, Note_on_c, 0, 88, 98
2, 68581, Note_on_c, 0, 88, 0
2, 68581, Note_on_c, 0, 84, 0
2, 68641, Note_on_c, 0, 86, 98
2, 68641, Note_on_c, 0, 83, 98
2, 68671, Note_on_c, 0, 86, 0
2, 68701, Note_on_c, 0, 83, 0
2, 68701, Note_on_c, 0, 91, 98
2, 68731, Note_on_c, 0, 91, 0
2, 68761, Note_on_c, 0, 91, 98
2, 68791, Note_on_c, 0, 91, 0
2, 68821, Note_on_c, 0, 91, 98
2, 68851, Note_on_c, 0, 91, 0
2, 68881, Note_on_c, 0, 89, 98
2, 68941, Note_on_c, 0, 89, 0
2, 68941, Note_on_c, 0, 88, 98
2, 68991, Note_on_c, 0, 88, 0
2, 69001, Note_on_c, 0, 86, 98
2, 69031, Note_on_c, 0, 86, 0
2, 69061, Note_on_c, 0, 84, 98
2, 69091, Note_on_c, 0, 84, 0
2, 69121, Note_on_c, 0, 79, 98
2, 69181, Note_on_c, 0, 79, 0
2, 69241, Note_on_c, 0, 86, 98
2, 69241, Note_on_c, 0, 83, 98
2, 69301, Note_on_c, 0, 83, 0
2, 69301, Note_on_c, 0, 86, 0
2, 69361, Note_on_c, 0, 88, 98
2, 69361, Note_on_c, 0, 84, 98
2, 69421, Note_on_c, 0, 84, 0
2, 69421, Note_on_c, 0, 88, 0
2, 69481, Note_on_c, 0, 84, 98
2, 69481, Note_on_c, 0, 88, 98
2, 69541, Note_on_c, 0, 88, 0
2, 69541, Note_on_c, 0, 84, 0
2, 69601, Note_on_c, 0, 86, 98
2, 69601, Note_on_c, 0, 83, 98
2, 69631, Note_on_c, 0, 86, 0
2, 69661, Note_on_c, 0, 83, 0
2, 69661, Note_on_c, 0, 91, 98
2, 69691, Note_on_c, 0, 91, 0
2, 69721, Note_on_c, 0, 91, 98
2, 69751, Note_on_c, 0, 91, 0
2, 69781, Note_on_c, 0, 91, 98
2, 69811, Note_on_c, 0, 91, 0
2, 69841, Note_on_c, 0, 89, 98
2, 69901, Note_on_c, 0, 89, 0
2, 69901, Note_on_c, 0, 88, 98
2, 69951, Note_on_c, 0, 88, 0
2, 69961, Note_on_c, 0, 86, 98
2, 69991, Note_on_c, 0, 86, 0
2, 70021, Note_on_c, 0, 84, 98
2, 70051, Note_on_c, 0, 84, 0
2, 70081, Note_on_c, 0, 79, 98
2, 70201, Note_on_c, 0, 79, 0
2, 70201, Note_on_c, 0, 86, 98
2, 70201, Note_on_c, 0, 83, 98
2, 70321, Note_on_c, 0, 83, 0
2, 70321, Note_on_c, 0, 86, 0
2, 70441, Note_on_c, 0, 88, 98
2, 70441, Note_on_c, 0, 84, 98
2, 70561, Note_on_c, 0, 84, 0
2, 70561, Note_on_c, 0, 88, 0
2, 70681, Note_on_c, 0, 86, 98
2, 70681, Note_on_c, 0, 83, 98
2, 70801, Note_on_c, 0, 83, 0
2, 70801, Note_on_c, 0, 86, 0
2, 70921, Note_on_c, 0, 88, 98
2, 70921, Note_on_c, 0, 84, 98
2, 71041, Note_on_c, 0, 84, 0
2, 71041, Note_on_c, 0, 88, 0
2, 71041, Note_on_c, 0, 86, 98
2, 71041, Note_on_c, 0, 83, 98
2, 71161, Note_on_c, 0, 83, 0
2, 71161, Note_on_c, 0, 86, 0
2, 71281, Note_on_c, 0, 79, 98
2, 71401, Note_on_c, 0, 79, 0
2, 71521, Note_on_c, 0, 79, 98
2, 71641, Note_on_c, 0, 79, 0
2, 72481, Control_c, 0, 11, 52
2, 72481, Note_on_c, 0, 84, 98
2, 72781, Note_on_c, 0, 84, 0
2, 72781, Note_on_c, 0, 83, 98
2, 72841, Note_on_c, 0, 83, 0
2, 72841, Note_on_c, 0, 81, 98
2, 72901, Note_on_c, 0, 81, 0
2, 72901, Note_on_c, 0, 79, 98
2, 72951, Note_on_c, 0, 79, 0
2, 72961, Note_on_c, 0, 78, 98
2, 73081, Note_on_c, 0, 78, 0
2, 73441, Note_on_c, 0, 86, 98
2, 73741, Note_on_c, 0, 86, 0
2, 73741, Note_on_c, 0, 83, 98
2, 73801, Note_on_c, 0, 83, 0
2, 73801, Note_on_c, 0, 81, 98
2, 73861, Note_on_c, 0, 81, 0
2, 73861, Note_on_c, 0, 79, 98
2, 73911, Note_on_c, 0, 79, 0
2, 73921, Control_c, 0, 11, 52
2, 73921, Note_on_c, 0, 81, 88
2, 74041, Note_on_c, 0, 81, 0
2, 74041, Note_on_c, 0, 84, 62
2, 74041, Control_c, 0, 11, 71
2, 74060, Control_c, 0, 11, 71
2, 74079, Control_c, 0, 11, 68
2, 74098, Control_c, 0, 11, 67
2, 74117, Control_c, 0, 11, 66
2, 74137, Control_c, 0, 11, 64
2, 74156, Control_c, 0, 11, 62
2, 74175, Control_c, 0, 11, 62
2, 74194, Control_c, 0, 11, 61
2, 74213, Control_c, 0, 11, 59
2, 74233, Control_c, 0, 11, 57
2, 74252, Control_c, 0, 11, 55
2, 74271, Control_c, 0, 11, 53
2, 74281, Note_on_c, 0, 84, 0
2, 74281, Note_on_c, 0, 83, 62
2, 74391, Note_on_c, 0, 83, 0
2, 74401, Note_on_c, 0, 81, 62
2, 74521, Note_on_c, 0, 81, 0
2, 74521, Control_c, 0, 11, 71
2, 74521, Note_on_c, 0, 84, 62
2, 74540, Control_c, 0, 11, 71
2, 74559, Control_c, 0, 11, 68
2, 74578, Control_c, 0, 11, 67
2, 74597, Control_c, 0, 11, 66
2, 74617, Control_c, 0, 11, 64
2, 74636, Control_c, 0, 11, 62
2, 74655, Control_c, 0, 11, 62
2, 74674, Control_c, 0, 11, 61
2, 74693, Control_c, 0, 11, 59
2, 74713, Control_c, 0, 11, 57
2, 74732, Control_c, 0, 11, 55
2, 74751, Control_c, 0, 11, 53
2, 74761, Note_on_c, 0, 84, 0
2, 74761, Note_on_c, 0, 83, 62
2, 74871, Note_on_c, 0, 83, 0
2, 74881, Note_on_c, 0, 81, 70
2, 75001, Note_on_c, 0, 81, 0
2, 75001, Note_on_c, 0, 86, 98
2, 75121, Note_on_c, 0, 86, 0
2, 75121, Note_on_c, 0, 85, 98
2, 75241, Note_on_c, 0, 85, 0
2, 75241, Note_on_c, 0, 88, 98
2, 75351, Note_on_c, 0, 88, 0
2, 75361, Note_on_c, 0, 86, 98
2, 75481, Note_on_c, 0, 86, 0
2, 76321, Note_on_c, 0, 84, 98
2, 76621, Note_on_c, 0, 84, 0
2, 76621, Note_on_c, 0, 83, 98
2, 76681, Note_on_c, 0, 83, 0
2, 76681, Note_on_c, 0, 81, 98
2, 76741, Note_on_c, 0, 81, 0
2, 76741, Note_on_c, 0, 79, 98
2, 76791, Note_on_c, 0, 79, 0
2, 76801, Note_on_c, 0, 78, 98
2, 76921, Note_on_c, 0, 78, 0
2, 77281, Note_on_c, 0, 89, 88
2, 77581, Note_on_c, 0, 89, 0
2, 77581, Note_on_c, 0, 86, 88
2, 77641, Note_on_c, 0, 86, 0
2, 77641, Note_on_c, 0, 83, 88
2, 77701, Note_on_c, 0, 83, 0
2, 77701, Note_on_c, 0, 77, 88
2, 77751, Note_on_c, 0, 77, 0
2, 77761, Note_on_c, 0, 79, 88
2, 77821, Note_on_c, 0, 79, 0
2, 77881, Note_on_c, 0, 88, 79
2, 77881, Note_on_c, 0, 84, 79
2, 78001, Note_on_c, 0, 84, 0
2, 78001, Note_on_c, 0, 88, 0
2, 78001, Note_on_c, 0, 89, 79
2, 78001, Note_on_c, 0, 86, 79
2, 78001, Control_c, 0, 11, 71
2, 78020, Control_c, 0, 11, 71
2, 78039, Control_c, 0, 11, 68
2, 78058, Control_c, 0, 11, 67
2, 78077, Control_c, 0, 11, 66
2, 78097, Control_c, 0, 11, 64
2, 78116, Control_c, 0, 11, 62
2, 78135, Control_c, 0, 11, 62
2, 78154, Control_c, 0, 11, 61
2, 78173, Control_c, 0, 11, 59
2, 78193, Control_c, 0, 11, 57
2, 78212, Control_c, 0, 11, 55
2, 78231, Control_c, 0, 11, 53
2, 78351, Note_on_c, 0, 86, 0
2, 78351, Note_on_c, 0, 89, 0
2, 78361, Note_on_c, 0, 84, 79
2, 78361, Note_on_c, 0, 88, 79
2, 78481, Note_on_c, 0, 88, 0
2, 78481, Note_on_c, 0, 84, 0
2, 78481, Note_on_c, 0, 89, 79
2, 78481, Note_on_c, 0, 86, 79
2, 78481, Control_c, 0, 11, 71
2, 78500, Control_c, 0, 11, 71
2, 78519, Control_c, 0, 11, 68
2, 78538, Control_c, 0, 11, 67
2, 78557, Control_c, 0, 11, 66
2, 78577, Control_c, 0, 11, 64
2, 78596, Control_c, 0, 11, 62
2, 78615, Control_c, 0, 11, 62
2, 78634, Control_c, 0, 11, 61
2, 78653, Control_c, 0, 11, 59
2, 78673, Control_c, 0, 11, 57
2, 78692, Control_c, 0, 11, 55
2, 78711, Control_c, 0, 11, 53
2, 78831, Note_on_c, 0, 86, 0
2, 78831, Note_on_c, 0, 89, 0
2, 78841, Note_on_c, 0, 84, 88
2, 78841, Note_on_c, 0, 88, 88
2, 78961, Note_on_c, 0, 88, 0
2, 78961, Note_on_c, 0, 84, 0
2, 78961, Note_on_c, 0, 83, 88
2, 78961, Note_on_c, 0, 86, 88
2, 79081, Note_on_c, 0, 86, 0
2, 79081, Note_on_c, 0, 83, 0
2, 79081, Note_on_c, 0, 84, 88
2, 79081, Note_on_c, 0, 81, 88
2, 79191, Note_on_c, 0, 81, 0
2, 79191, Note_on_c, 0, 84, 0
2, 79201, Note_on_c, 0, 83, 88
2, 79201, Note_on_c, 0, 79, 88
2, 79441, Note_on_c, 0, 79, 0
2, 79441, Note_on_c, 0, 83, 0
2, 79441, Note_on_c, 0, 78, 98
2, 79441, Note_on_c, 0, 81, 98
2, 79661, Note_on_c, 0, 81, 0
2, 79661, Note_on_c, 0, 78, 0
2, 79681, Note_on_c, 0, 86, 98
2, 79681, Note_on_c, 0, 79, 98
2, 79681, Control_c, 0, 11, 78
2, 79801, Note_on_c, 0, 79, 0
2, 79801, Note_on_c, 0, 86, 0
2, 79921, Note_on_c, 0, 78, 98
2, 79921, Note_on_c, 0, 84, 98
2, 80041, Note_on_c, 0, 84, 0
2, 80041, Note_on_c, 0, 78, 0
2, 80161, Note_on_c, 0, 79, 98
2, 80161, Note_on_c, 0, 83, 98
2, 80281, Note_on_c, 0, 83, 0
2, 80281, Note_on_c, 0, 79, 0
2, 80401, Note_on_c, 0, 81, 98
2, 80461, Note_on_c, 0, 81, 0
2, 80461, Note_on_c, 0, 83, 98
2, 80521, Note_on_c, 0, 83, 0
2, 80521, Note_on_c, 0, 84, 98
2, 80581, Note_on_c, 0, 84, 0
2, 80581, Note_on_c, 0, 85, 98
2, 80631, Note_on_c, 0, 85, 0
2, 80641, Control_c, 0, 11, 91
2, 80641, Note_on_c, 0, 86, 98
2, 80665, Control_c, 0, 11, 91
2, 80689, Control_c, 0, 11, 89
2, 80713, Control_c, 0, 11, 89
2, 80737, Control_c, 0, 11, 86
2, 80761, Control_c, 0, 11, 85
2, 80785, Control_c, 0, 11, 84
2, 80809, Control_c, 0, 11, 82
2, 80833, Control_c, 0, 11, 80
2, 80857, Control_c, 0, 11, 80
2, 80871, Note_on_c, 0, 86, 0
2, 80881, Note_on_c, 0, 90, 98
2, 80881, Note_on_c, 0, 84, 98
2, 80881, Control_c, 0, 11, 91
2, 80905, Control_c, 0, 11, 91
2, 80929, Control_c, 0, 11, 89
2, 80953, Control_c, 0, 11, 89
2, 80977, Control_c, 0, 11, 86
2, 81001, Control_c, 0, 11, 85
2, 81025, Control_c, 0, 11, 84
2, 81049, Control_c, 0, 11, 82
2, 81073, Control_c, 0, 11, 80
2, 81097, Control_c, 0, 11, 80
2, 81111, Note_on_c, 0, 84, 0
2, 81111, Note_on_c, 0, 90, 0
2, 81121, Control_c, 0, 11, 91
2, 81121, Note_on_c, 0, 83, 98
2, 81121, Note_on_c, 0, 91, 98
2, 81139, Control_c, 0, 11, 89
2, 81157, Control_c, 0, 11, 89
2, 81169, Control_c, 0, 11, 86
2, 81187, Control_c, 0, 11, 84
2, 81205, Control_c, 0, 11, 82
2, 81223, Control_c, 0, 11, 80
2, 81241, Note_on_c, 0, 91, 0
2, 81241, Note_on_c, 0, 83, 0
2, 81241, Control_c, 0, 11, 78
2, 81361, Note_on_c, 0, 81, 98
2, 81421, Note_on_c, 0, 81, 0
2, 81421, Note_on_c, 0, 83, 98
2, 81481, Note_on_c, 0, 83, 0
2, 81481, Note_on_c, 0, 84, 98
2, 81541, Note_on_c, 0, 84, 0
2, 81541, Note_on_c, 0, 85, 98
2, 81591, Note_on_c, 0, 85, 0
2, 81601, Control_c, 0, 11, 91
2, 81601, Note_on_c, 0, 86, 98
2, 81619, Control_c, 0, 11, 91
2, 81637, Control_c, 0, 11, 89
2, 81655, Control_c, 0, 11, 89
2, 81673, Control_c, 0, 11, 86
2, 81691, Control_c, 0, 11, 85
2, 81709, Control_c, 0, 11, 84
2, 81727, Control_c, 0, 11, 82
2, 81745, Control_c, 0, 11, 80
2, 81763, Control_c, 0, 11, 80
2, 81771, Note_on_c, 0, 86, 0
2, 81781, Note_on_c, 0, 84, 98
2, 81781, Control_c, 0, 11, 78
2, 81831, Note_on_c, 0, 84, 0
2, 81841, Note_on_c, 0, 83, 98
2, 81891, Note_on_c, 0, 83, 0
2, 81901, Note_on_c, 0, 81, 98
2, 81951, Note_on_c, 0, 81, 0
2, 81961, Note_on_c, 0, 79, 98
2, 82011, Note_on_c, 0, 79, 0
2, 82021, Note_on_c, 0, 77, 98
2, 82071, Note_on_c, 0, 77, 0
2, 82081, Control_c, 0, 11, 91
2, 82081, Note_on_c, 0, 76, 98
2, 82099, Control_c, 0, 11, 89
2, 82117, Control_c, 0, 11, 89
2, 82129, Control_c, 0, 11, 86
2, 82147, Control_c, 0, 11, 84
2, 82165, Control_c, 0, 11, 82
2, 82183, Control_c, 0, 11, 80
2, 82191, Note_on_c, 0, 76, 0
2, 82201, Control_c, 0, 11, 78
2, 82201, Note_on_c, 0, 88, 98
2, 82251, Note_on_c, 0, 88, 0
2, 82261, Note_on_c, 0, 86, 98
2, 82311, Note_on_c, 0, 86, 0
2, 82321, Note_on_c, 0, 84, 98
2, 82371, Note_on_c, 0, 84, 0
2, 82381, Note_on_c, 0, 83, 98
2, 82431, Note_on_c, 0, 83, 0
2, 82441, Note_on_c, 0, 81, 98
2, 82491, Note_on_c, 0, 81, 0
2, 82501, Note_on_c, 0, 79, 98
2, 82551, Note_on_c, 0, 79, 0
2, 82561, Note_on_c, 0, 78, 98
2, 82561, Control_c, 0, 11, 78
2, 82593, Control_c, 0, 11, 80
2, 82611, Note_on_c, 0, 78, 0
2, 82621, Note_on_c, 0, 79, 98
2, 82625, Control_c, 0, 11, 80
2, 82657, Control_c, 0, 11, 80
2, 82671, Note_on_c, 0, 79, 0
2, 82681, Note_on_c, 0, 69, 98
2, 82681, Note_on_c, 0, 81, 98
2, 82689, Control_c, 0, 11, 80
2, 82721, Control_c, 0, 11, 82
2, 82731, Note_on_c, 0, 81, 0
2, 82731, Note_on_c, 0, 69, 0
2, 82741, Note_on_c, 0, 83, 98
2, 82741, Note_on_c, 0, 71, 98
2, 82753, Control_c, 0, 11, 82
2, 82785, Control_c, 0, 11, 82
2, 82791, Note_on_c, 0, 71, 0
2, 82791, Note_on_c, 0, 83, 0
2, 82801, Note_on_c, 0, 72, 98
2, 82801, Note_on_c, 0, 84, 98
2, 82817, Control_c, 0, 11, 84
2, 82849, Control_c, 0, 11, 84
2, 82851, Note_on_c, 0, 84, 0
2, 82851, Note_on_c, 0, 72, 0
2, 82861, Note_on_c, 0, 74, 98
2, 82861, Note_on_c, 0, 86, 98
2, 82881, Control_c, 0, 11, 85
2, 82911, Note_on_c, 0, 86, 0
2, 82911, Note_on_c, 0, 74, 0
2, 82913, Control_c, 0, 11, 86
2, 82921, Note_on_c, 0, 76, 98
2, 82921, Note_on_c, 0, 88, 98
2, 82945, Control_c, 0, 11, 86
2, 82971, Note_on_c, 0, 88, 0
2, 82971, Note_on_c, 0, 76, 0
2, 82977, Control_c, 0, 11, 87
2, 82981, Note_on_c, 0, 78, 98
2, 82981, Note_on_c, 0, 90, 98
2, 83009, Control_c, 0, 11, 89
2, 83031, Note_on_c, 0, 90, 0
2, 83031, Note_on_c, 0, 78, 0
2, 83041, Control_c, 0, 11, 89
2, 83041, Note_on_c, 0, 91, 98
2, 83041, Note_on_c, 0, 79, 98
2, 83101, Note_on_c, 0, 79, 0
2, 83101, Note_on_c, 0, 91, 0
2, 83161, Note_on_c, 0, 88, 88
2, 83221, Note_on_c, 0, 88, 0
2, 83281, Note_on_c, 0, 86, 88
2, 83341, Note_on_c, 0, 86, 0
2, 83401, Note_on_c, 0, 78, 88
2, 83461, Note_on_c, 0, 78, 0
2, 83521, Note_on_c, 0, 79, 70
2, 83521, Control_c, 0, 11, 78
2, 83551, Control_c, 0, 11, 78
2, 83568, Control_c, 0, 11, 75
2, 83586, Control_c, 0, 11, 73
2, 83604, Control_c, 0, 11, 71
2, 83613, Control_c, 0, 11, 68
2, 83631, Control_c, 0, 11, 66
2, 83641, Note_on_c, 0, 79, 0
2, 87361, Note_on_c, 0, 78, 98
2, 87361, Note_on_c, 0, 84, 98
2, 87361, Control_c, 0, 11, 42
2, 87393, Control_c, 0, 11, 43
2, 87425, Control_c, 0, 11, 44
2, 87457, Control_c, 0, 11, 45
2, 87489, Control_c, 0, 11, 46
2, 87521, Control_c, 0, 11, 47
2, 87553, Control_c, 0, 11, 48
2, 87585, Control_c, 0, 11, 49
2, 87617, Control_c, 0, 11, 50
2, 87649, Control_c, 0, 11, 51
2, 87681, Control_c, 0, 11, 52
2, 87713, Control_c, 0, 11, 53
2, 87745, Control_c, 0, 11, 54
2, 87777, Control_c, 0, 11, 55
2, 87809, Control_c, 0, 11, 56
2, 87841, Note_on_c, 0, 84, 0
2, 87841, Note_on_c, 0, 78, 0
2, 87841, Note_on_c, 0, 83, 98
2, 87841, Control_c, 0, 11, 57
2, 87841, Note_on_c, 0, 79, 98
2, 87873, Control_c, 0, 11, 58
2, 87905, Control_c, 0, 11, 59
2, 87937, Control_c, 0, 11, 60
2, 87969, Control_c, 0, 11, 61
2, 88001, Control_c, 0, 11, 62
2, 88033, Control_c, 0, 11, 62
2, 88065, Control_c, 0, 11, 62
2, 88097, Control_c, 0, 11, 62
2, 88129, Control_c, 0, 11, 64
2, 88161, Control_c, 0, 11, 64
2, 88193, Control_c, 0, 11, 64
2, 88225, Control_c, 0, 11, 66
2, 88257, Control_c, 0, 11, 66
2, 88289, Control_c, 0, 11, 67
2, 88321, Note_on_c, 0, 83, 0
2, 88321, Note_on_c, 0, 81, 98
2, 88321, Control_c, 0, 11, 68
2, 88353, Control_c, 0, 11, 68
2, 88385, Control_c, 0, 11, 69
2, 88417, Control_c, 0, 11, 71
2, 88449, Control_c, 0, 11, 71
2, 88481, Control_c, 0, 11, 71
2, 88513, Control_c, 0, 11, 71
2, 88545, Control_c, 0, 11, 73
2, 88561, Note_on_c, 0, 79, 0
2, 88561, Note_on_c, 0, 78, 98
2, 88577, Control_c, 0, 11, 73
2, 88609, Control_c, 0, 11, 73
2, 88641, Control_c, 0, 11, 75
2, 88673, Control_c, 0, 11, 75
2, 88705, Control_c, 0, 11, 76
2, 88737, Control_c, 0, 11, 77
2, 88769, Control_c, 0, 11, 77
2, 88791, Note_on_c, 0, 78, 0
2, 88801, Note_on_c, 0, 81, 0
2, 88801, Control_c, 0, 11, 100
2, 88801, Note_on_c, 0, 79, 98
2, 88825, Control_c, 0, 11, 98
2, 88849, Control_c, 0, 11, 96
2, 88873, Control_c, 0, 11, 94
2, 88897, Control_c, 0, 11, 91
2, 88921, Control_c, 0, 11, 89
2, 89151, Note_on_c, 0, 79, 0
2, 89161, Note_on_c, 0, 74, 98
2, 89251, Note_on_c, 0, 74, 0
2, 89251, Note_on_c, 0, 78, 98
2, 89271, Note_on_c, 0, 78, 0
2, 89281, Control_c, 0, 11, 91
2, 89281, Note_on_c, 0, 79, 98
2, 89305, Control_c, 0, 11, 91
2, 89329, Control_c, 0, 11, 89
2, 89353, Control_c, 0, 11, 89
2, 89377, Control_c, 0, 11, 86
2, 89401, Control_c, 0, 11, 85
2, 89425, Control_c, 0, 11, 84
2, 89449, Control_c, 0, 11, 82
2, 89473, Control_c, 0, 11, 80
2, 89497, Control_c, 0, 11, 80
2, 89521, Control_c, 0, 11, 78
2, 89631, Note_on_c, 0, 79, 0
2, 89641, Note_on_c, 0, 74, 98
2, 89731, Note_on_c, 0, 74, 0
2, 89731, Note_on_c, 0, 78, 98
2, 89751, Note_on_c, 0, 78, 0
2, 89761, Control_c, 0, 11, 91
2, 89761, Note_on_c, 0, 79, 98
2, 89779, Control_c, 0, 11, 89
2, 89797, Control_c, 0, 11, 89
2, 89809, Control_c, 0, 11, 86
2, 89821, Note_on_c, 0, 79, 0
2, 89827, Control_c, 0, 11, 84
2, 89845, Control_c, 0, 11, 82
2, 89863, Control_c, 0, 11, 80
2, 89881, Control_c, 0, 11, 78
2, 90001, Note_on_c, 0, 81, 98
2, 90001, Control_c, 0, 11, 91
2, 90018, Control_c, 0, 11, 89
2, 90036, Control_c, 0, 11, 89
2, 90048, Control_c, 0, 11, 86
2, 90061, Note_on_c, 0, 81, 0
2, 90066, Control_c, 0, 11, 84
2, 90084, Control_c, 0, 11, 82
2, 90102, Control_c, 0, 11, 80
2, 90120, Control_c, 0, 11, 78
2, 90241, Note_on_c, 0, 83, 98
2, 90241, Control_c, 0, 11, 91
2, 90258, Control_c, 0, 11, 89
2, 90276, Control_c, 0, 11, 89
2, 90288, Control_c, 0, 11, 86
2, 90301, Note_on_c, 0, 83, 0
2, 90306, Control_c, 0, 11, 84
2, 90324, Control_c, 0, 11, 82
2, 90342, Control_c, 0, 11, 80
2, 90360, Control_c, 0, 11, 78
2, 90481, Control_c, 0, 11, 91
2, 90481, Note_on_c, 0, 84, 98
2, 90498, Control_c, 0, 11, 89
2, 90516, Control_c, 0, 11, 89
2, 90528, Control_c, 0, 11, 86
2, 90541, Note_on_c, 0, 84, 0
2, 90546, Control_c, 0, 11, 84
2, 90564, Control_c, 0, 11, 82
2, 90582, Control_c, 0, 11, 80
2, 90600, Control_c, 0, 11, 78
2, 90721, Control_c, 0, 11, 78
2, 90721, Note_on_c, 0, 86, 88
2, 91191, Note_on_c, 0, 86, 0
2, 91201, Note_on_c, 0, 87, 88
2, 91201, Note_on_c, 0, 78, 88
2, 91671, Note_on_c, 0, 78, 0
2, 91671, Note_on_c, 0, 87, 0
2, 91681, Note_on_c, 0, 83, 88
2, 91681, Control_c, 0, 11, 89
2, 91681, Note_on_c, 0, 88, 88
2, 92151, Note_on_c, 0, 88, 0
2, 92151, Note_on_c, 0, 83, 0
2, 92161, Note_on_c, 0, 77, 88
2, 92161, Note_on_c, 0, 89, 88
2, 92281, Note_on_c, 0, 89, 0
2, 92281, Note_on_c, 0, 77, 0
2, 92281, Note_on_c, 0, 86, 88
2, 92401, Note_on_c, 0, 86, 0
2, 92401, Note_on_c, 0, 83, 88
2, 92521, Note_on_c, 0, 83, 0
2, 92521, Note_on_c, 0, 80, 88
2, 92631, Note_on_c, 0, 80, 0
2, 92641, Note_on_c, 0, 76, 88
2, 92641, Note_on_c, 0, 81, 88
2, 93121, Note_on_c, 0, 81, 0
2, 93121, Note_on_c, 0, 76, 0
2, 93121, Note_on_c, 0, 82, 88
2, 93241, Note_on_c, 0, 82, 0
2, 93241, Note_on_c, 0, 79, 88
2, 93361, Note_on_c, 0, 79, 0
2, 93361, Note_on_c, 0, 88, 88
2, 93361, Note_on_c, 0, 76, 88
2, 93481, Note_on_c, 0, 76, 0
2, 93481, Note_on_c, 0, 88, 0
2, 93481, Note_on_c, 0, 85, 88
2, 93481, Note_on_c, 0, 73, 88
2, 93591, Note_on_c, 0, 73, 0
2, 93591, Note_on_c, 0, 85, 0
2, 93601, Note_on_c, 0, 74, 88
2, 93601, Control_c, 0, 11, 102
2, 93601, Note_on_c, 0, 86, 88
2, 93618, Control_c, 0, 11, 100
2, 93636, Control_c, 0, 11, 98
2, 93654, Control_c, 0, 11, 96
2, 93672, Control_c, 0, 11, 94
2, 93690, Control_c, 0, 11, 91
2, 93708, Control_c, 0, 11, 89
2, 93831, Note_on_c, 0, 86, 0
2, 93831, Note_on_c, 0, 74, 0
2, 93841, Note_on_c, 0, 88, 88
2, 93841, Note_on_c, 0, 76, 88
2, 93841, Control_c, 0, 11, 102
2, 93858, Control_c, 0, 11, 100
2, 93876, Control_c, 0, 11, 98
2, 93894, Control_c, 0, 11, 96
2, 93912, Control_c, 0, 11, 94
2, 93930, Control_c, 0, 11, 91
2, 93948, Control_c, 0, 11, 89
2, 94071, Note_on_c, 0, 76, 0
2, 94071, Note_on_c, 0, 88, 0
2, 94081, Control_c, 0, 11, 102
2, 94081, Note_on_c, 0, 72, 88
2, 94081, Note_on_c, 0, 84, 88
2, 94098, Control_c, 0, 11, 100
2, 94116, Control_c, 0, 11, 98
2, 94134, Control_c, 0, 11, 96
2, 94152, Control_c, 0, 11, 94
2, 94170, Control_c, 0, 11, 91
2, 94188, Control_c, 0, 11, 89
2, 94311, Note_on_c, 0, 84, 0
2, 94311, Note_on_c, 0, 72, 0
2, 94321, Note_on_c, 0, 74, 88
2, 94321, Note_on_c, 0, 86, 88
2, 94321, Control_c, 0, 11, 102
2, 94338, Control_c, 0, 11, 100
2, 94356, Control_c, 0, 11, 98
2, 94374, Control_c, 0, 11, 96
2, 94392, Control_c, 0, 11, 94
2, 94410, Control_c, 0, 11, 91
2, 94428, Control_c, 0, 11, 89
2, 94501, Control_c, 0, 11, 78
2, 94519, Control_c, 0, 11, 75
2, 94537, Control_c, 0, 11, 73
2, 94551, Note_on_c, 0, 86, 0
2, 94551, Note_on_c, 0, 74, 0
2, 94555, Control_c, 0, 11, 71
2, 94561, Note_on_c, 0, 67, 88
2, 94561, Note_on_c, 0, 79, 88
2, 94564, Control_c, 0, 11, 68
2, 94582, Control_c, 0, 11, 66
2, 94600, Control_c, 0, 11, 62
2, 94618, Control_c, 0, 11, 61
2, 94631, Control_c, 0, 11, 58
2, 94645, Control_c, 0, 11, 55
2, 94658, Control_c, 0, 11, 52
2, 94672, Control_c, 0, 11, 49
2, 94681, Note_on_c, 0, 79, 0
2, 94681, Note_on_c, 0, 67, 0
2, 95401, Control_c, 0, 11, 85
2, 95401, Note_on_c, 0, 90, 98
2, 95401, Note_on_c, 0, 78, 98
2, 95408, Control_c, 0, 11, 82
2, 95424, Control_c, 0, 11, 78
2, 95434, Control_c, 0, 11, 75
2, 95446, Control_c, 0, 11, 71
2, 95458, Control_c, 0, 11, 68
2, 95470, Control_c, 0, 11, 64
2, 95486, Control_c, 0, 11, 61
2, 95493, Control_c, 0, 11, 58
2, 95500, Control_c, 0, 11, 55
2, 95508, Control_c, 0, 11, 52
2, 95515, Control_c, 0, 11, 49
2, 95521, Note_on_c, 0, 78, 0
2, 95521, Note_on_c, 0, 90, 0
2, 95521, Note_on_c, 0, 79, 98
2, 95521, Note_on_c, 0, 91, 98
2, 95641, Note_on_c, 0, 91, 0
2, 95641, Note_on_c, 0, 79, 0
2, 96361, Control_c, 0, 11, 85
2, 96361, Note_on_c, 0, 90, 98
2, 96361, Note_on_c, 0, 78, 98
2, 96368, Control_c, 0, 11, 82
2, 96384, Control_c, 0, 11, 78
2, 96394, Control_c, 0, 11, 75
2, 96406, Control_c, 0, 11, 71
2, 96418, Control_c, 0, 11, 68
2, 96430, Control_c, 0, 11, 64
2, 96446, Control_c, 0, 11, 61
2, 96453, Control_c, 0, 11, 58
2, 96460, Control_c, 0, 11, 55
2, 96468, Control_c, 0, 11, 52
2, 96475, Control_c, 0, 11, 49
2, 96481, Note_on_c, 0, 78, 0
2, 96481, Note_on_c, 0, 90, 0
2, 96481, Note_on_c, 0, 91, 98
2, 96481, Note_on_c, 0, 79, 98
2, 96601, Note_on_c, 0, 79, 0
2, 96661, Note_on_c, 0, 91, 0
2, 96661, Note_on_c, 0, 90, 98
2, 96691, Note_on_c, 0, 90, 0
2, 96691, Note_on_c, 0, 88, 98
2, 96711, Note_on_c, 0, 88, 0
2, 96721, Note_on_c, 0, 86, 98
2, 96781, Note_on_c, 0, 86, 0
2, 96841, Note_on_c, 0, 90, 98
2, 96841, Note_on_c, 0, 84, 98
2, 96841, Control_c, 0, 11, 85
2, 96848, Control_c, 0, 11, 82
2, 96864, Control_c, 0, 11, 78
2, 96874, Control_c, 0, 11, 75
2, 96886, Control_c, 0, 11, 71
2, 96898, Control_c, 0, 11, 68
2, 96910, Control_c, 0, 11, 64
2, 96926, Control_c, 0, 11, 61
2, 96933, Control_c, 0, 11, 58
2, 96940, Control_c, 0, 11, 55
2, 96948, Control_c, 0, 11, 52
2, 96955, Control_c, 0, 11, 49
2, 96961, Note_on_c, 0, 84, 0
2, 96961, Note_on_c, 0, 90, 0
2, 96961, Note_on_c, 0, 91, 98
2, 96961, Note_on_c, 0, 83, 98
2, 97081, Note_on_c, 0, 83, 0
2, 97141, Note_on_c, 0, 91, 0
2, 97141, Note_on_c, 0, 90, 98
2, 97171, Note_on_c, 0, 90, 0
2, 97171, Note_on_c, 0, 88, 98
2, 97201, Note_on_c, 0, 88, 0
2, 97201, Note_on_c, 0, 86, 98
2, 97261, Note_on_c, 0, 86, 0
2, 97321, Note_on_c, 0, 90, 98
2, 97321, Note_on_c, 0, 84, 98
2, 97321, Control_c, 0, 11, 89
2, 97441, Note_on_c, 0, 84, 0
2, 97441, Note_on_c, 0, 90, 0
2, 97441, Note_on_c, 0, 83, 98
2, 97441, Note_on_c, 0, 91, 98
2, 97561, Note_on_c, 0, 83, 0
2, 97561, Control_c, 0, 11, 89
2, 97576, Control_c, 0, 11, 89
2, 97592, Control_c, 0, 11, 87
2, 97608, Control_c, 0, 11, 86
2, 97624, Control_c, 0, 11, 86
2, 97640, Control_c, 0, 11, 85
2, 97656, Control_c, 0, 11, 84
2, 97672, Control_c, 0, 11, 84
2, 97688, Control_c, 0, 11, 82
2, 97704, Control_c, 0, 11, 82
2, 97720, Control_c, 0, 11, 82
2, 97736, Control_c, 0, 11, 80
2, 97752, Control_c, 0, 11, 80
2, 97768, Control_c, 0, 11, 80
2, 97784, Control_c, 0, 11, 80
2, 97800, Control_c, 0, 11, 78
2, 97818, Control_c, 0, 11, 77
2, 97835, Control_c, 0, 11, 77
2, 97852, Control_c, 0, 11, 76
2, 97869, Control_c, 0, 11, 75
2, 97886, Control_c, 0, 11, 75
2, 97903, Control_c, 0, 11, 73
2, 97920, Control_c, 0, 11, 73
2, 97921, Note_on_c, 0, 91, 0
2, 97921, Note_on_c, 0, 89, 88
2, 97937, Control_c, 0, 11, 73
2, 97955, Control_c, 0, 11, 71
2, 97972, Control_c, 0, 11, 71
2, 97989, Control_c, 0, 11, 71
2, 98006, Control_c, 0, 11, 71
2, 98023, Control_c, 0, 11, 69
2, 98040, Control_c, 0, 11, 68
2, 98057, Control_c, 0, 11, 68
2, 98074, Control_c, 0, 11, 67
2, 98091, Control_c, 0, 11, 66
2, 98109, Control_c, 0, 11, 66
2, 98126, Control_c, 0, 11, 64
2, 98143, Control_c, 0, 11, 64
2, 98160, Control_c, 0, 11, 64
2, 98161, Note_on_c, 0, 89, 0
2, 98161, Note_on_c, 0, 86, 88
2, 98177, Control_c, 0, 11, 62
2, 98194, Control_c, 0, 11, 62
2, 98211, Control_c, 0, 11, 62
2, 98228, Control_c, 0, 11, 62
2, 98245, Control_c, 0, 11, 61
2, 98263, Control_c, 0, 11, 60
2, 98280, Control_c, 0, 11, 59
2, 98297, Control_c, 0, 11, 58
2, 98314, Control_c, 0, 11, 57
2, 98331, Control_c, 0, 11, 56
2, 98348, Control_c, 0, 11, 55
2, 98365, Control_c, 0, 11, 54
2, 98382, Control_c, 0, 11, 53
2, 98400, Control_c, 0, 11, 52
2, 98401, Note_on_c, 0, 86, 0
2, 98401, Note_on_c, 0, 83, 88
2, 98464, Control_c, 0, 11, 51
2, 98528, Control_c, 0, 11, 50
2, 98592, Control_c, 0, 11, 49
2, 98641, Note_on_c, 0, 83, 0
2, 98641, Note_on_c, 0, 79, 88
2, 98656, Control_c, 0, 11, 48
2, 98720, Control_c, 0, 11, 47
2, 98784, Control_c, 0, 11, 46
2, 98848, Control_c, 0, 11, 45
2, 98881, Note_on_c, 0, 79, 0
2, 98881, Note_on_c, 0, 77, 88
2, 98912, Control_c, 0, 11, 44
2, 98976, Control_c, 0, 11, 43
2, 99040, Control_c, 0, 11, 42
2, 99104, Control_c, 0, 11, 41
2, 99121, Note_on_c, 0, 77, 0
2, 99121, Note_on_c, 0, 74, 88
2, 99168, Control_c, 0, 11, 40
2, 99232, Control_c, 0, 11, 39
2, 99296, Control_c, 0, 11, 38
2, 99360, Control_c, 0, 11, 37
2, 99361, Note_on_c, 0, 74, 0
2, 99361, Note_on_c, 0, 76, 88
2, 99361, Note_on_c, 0, 81, 88
2, 99361, Control_c, 0, 11, 89
2, 99721, Note_on_c, 0, 81, 0
2, 99721, Note_on_c, 0, 76, 0
2, 100321, Control_c, 0, 11, 47
2, 100321, Note_on_c, 0, 81, 88
2, 100381, Note_on_c, 0, 81, 0
2, 100441, Note_on_c, 0, 82, 88
2, 100641, Note_on_c, 0, 82, 0
2, 100681, Note_on_c, 0, 81, 88
2, 100881, Note_on_c, 0, 81, 0
2, 100921, Note_on_c, 0, 82, 88
2, 101121, Note_on_c, 0, 82, 0
2, 101161, Note_on_c, 0, 81, 88
2, 101221, Note_on_c, 0, 81, 0
2, 101281, Control_c, 0, 11, 79
2, 101281, Note_on_c, 0, 86, 88
2, 101281, Note_on_c, 0, 81, 88
2, 101641, Note_on_c, 0, 81, 0
2, 101641, Note_on_c, 0, 86, 0
2, 102241, Note_on_c, 0, 86, 88
2, 102241, Control_c, 0, 11, 47
2, 102301, Note_on_c, 0, 86, 0
2, 102361, Note_on_c, 0, 87, 88
2, 102561, Note_on_c, 0, 87, 0
2, 102601, Note_on_c, 0, 86, 88
2, 102801, Note_on_c, 0, 86, 0
2, 102841, Note_on_c, 0, 87, 88
2, 103041, Note_on_c, 0, 87, 0
2, 103081, Note_on_c, 0, 86, 88
2, 103141, Note_on_c, 0, 86, 0
2, 103201, Control_c, 0, 11, 79
2, 103201, Note_on_c, 0, 91, 88
2, 103201, Note_on_c, 0, 86, 88
2, 103561, Note_on_c, 0, 86, 0
2, 103561, Note_on_c, 0, 91, 0
2, 104161, Note_on_c, 0, 79, 88
2, 104161, Control_c, 0, 11, 47
2, 104221, Note_on_c, 0, 79, 0
2, 104281, Note_on_c, 0, 80, 88
2, 104481, Note_on_c, 0, 80, 0
2, 104521, Note_on_c, 0, 79, 88
2, 104721, Note_on_c, 0, 79, 0
2, 104761, Note_on_c, 0, 80, 88
2, 104961, Note_on_c, 0, 80, 0
2, 105001, Note_on_c, 0, 77, 88
2, 105061, Note_on_c, 0, 77, 0
2, 105121, Control_c, 0, 11, 79
2, 105121, Note_on_c, 0, 75, 88
2, 105241, Note_on_c, 0, 75, 0
2, 105601, Control_c, 0, 11, 47
2, 105601, Note_on_c, 0, 72, 125
2, 105661, Note_on_c, 0, 72, 0
2, 105721, Note_on_c, 0, 75, 125
2, 105781, Note_on_c, 0, 75, 0
2, 105841, Note_on_c, 0, 79, 125
2, 105901, Note_on_c, 0, 79, 0
2, 105961, Note_on_c, 0, 83, 125
2, 106021, Note_on_c, 0, 83, 0
2, 106081, Note_on_c, 0, 84, 98
2, 106921, Note_on_c, 0, 84, 0
2, 106921, Note_on_c, 0, 82, 98
2, 107041, Note_on_c, 0, 82, 0
2, 107041, Note_on_c, 0, 80, 98
2, 107041, Control_c, 0, 11, 79
2, 107161, Note_on_c, 0, 80, 0
2, 107521, Control_c, 0, 11, 47
2, 107521, Note_on_c, 0, 77, 125
2, 107581, Note_on_c, 0, 77, 0
2, 107641, Note_on_c, 0, 80, 125
2, 107701, Note_on_c, 0, 80, 0
2, 107761, Note_on_c, 0, 84, 125
2, 107821, Note_on_c, 0, 84, 0
2, 107881, Note_on_c, 0, 88, 125
2, 107941, Note_on_c, 0, 88, 0
2, 108001, Note_on_c, 0, 89, 98
2, 108841, Note_on_c, 0, 89, 0
2, 108841, Note_on_c, 0, 87, 98
2, 108961, Note_on_c, 0, 87, 0
2, 108961, Note_on_c, 0, 86, 98
2, 109081, Note_on_c, 0, 86, 0
2, 109441, Control_c, 0, 11, 37
2, 109441, Note_on_c, 0, 74, 113
2, 109463, Control_c, 0, 11, 38
2, 109485, Control_c, 0, 11, 39
2, 109501, Note_on_c, 0, 74, 0
2, 109507, Control_c, 0, 11, 40
2, 109529, Control_c, 0, 11, 41
2, 109551, Control_c, 0, 11, 42
2, 109561, Note_on_c, 0, 77, 113
2, 109573, Control_c, 0, 11, 43
2, 109596, Control_c, 0, 11, 44
2, 109618, Control_c, 0, 11, 45
2, 109621, Note_on_c, 0, 77, 0
2, 109640, Control_c, 0, 11, 46
2, 109662, Control_c, 0, 11, 47
2, 109681, Note_on_c, 0, 82, 113
2, 109684, Control_c, 0, 11, 48
2, 109706, Control_c, 0, 11, 49
2, 109729, Control_c, 0, 11, 50
2, 109741, Note_on_c, 0, 82, 0
2, 109751, Control_c, 0, 11, 51
2, 109773, Control_c, 0, 11, 52
2, 109795, Control_c, 0, 11, 53
2, 109801, Note_on_c, 0, 86, 113
2, 109817, Control_c, 0, 11, 54
2, 109839, Control_c, 0, 11, 55
2, 109861, Note_on_c, 0, 86, 0
2, 109861, Control_c, 0, 11, 56
2, 109884, Control_c, 0, 11, 57
2, 109906, Control_c, 0, 11, 58
2, 109921, Note_on_c, 0, 87, 113
2, 109928, Control_c, 0, 11, 59
2, 109950, Control_c, 0, 11, 60
2, 109972, Control_c, 0, 11, 61
2, 109994, Control_c, 0, 11, 62
2, 110017, Control_c, 0, 11, 62
2, 110039, Control_c, 0, 11, 63
2, 110041, Note_on_c, 0, 87, 0
2, 110061, Control_c, 0, 11, 64
2, 110083, Control_c, 0, 11, 64
2, 110105, Control_c, 0, 11, 65
2, 110127, Control_c, 0, 11, 66
2, 110149, Control_c, 0, 11, 66
2, 110172, Control_c, 0, 11, 67
2, 110194, Control_c, 0, 11, 68
2, 110216, Control_c, 0, 11, 68
2, 110238, Control_c, 0, 11, 69
2, 110260, Control_c, 0, 11, 70
2, 110282, Control_c, 0, 11, 71
2, 110305, Control_c, 0, 11, 71
2, 110327, Control_c, 0, 11, 72
2, 110349, Control_c, 0, 11, 73
2, 110371, Control_c, 0, 11, 73
2, 110393, Control_c, 0, 11, 74
2, 110401, Note_on_c, 0, 75, 113
2, 110415, Control_c, 0, 11, 75
2, 110437, Control_c, 0, 11, 75
2, 110460, Control_c, 0, 11, 76
2, 110461, Note_on_c, 0, 75, 0
2, 110482, Control_c, 0, 11, 77
2, 110504, Control_c, 0, 11, 77
2, 110521, Note_on_c, 0, 79, 113
2, 110526, Control_c, 0, 11, 78
2, 110548, Control_c, 0, 11, 79
2, 110570, Control_c, 0, 11, 80
2, 110581, Note_on_c, 0, 79, 0
2, 110593, Control_c, 0, 11, 80
2, 110615, Control_c, 0, 11, 81
2, 110637, Control_c, 0, 11, 82
2, 110641, Note_on_c, 0, 82, 113
2, 110659, Control_c, 0, 11, 82
2, 110681, Control_c, 0, 11, 83
2, 110701, Note_on_c, 0, 82, 0
2, 110703, Control_c, 0, 11, 84
2, 110725, Control_c, 0, 11, 84
2, 110748, Control_c, 0, 11, 85
2, 110761, Note_on_c, 0, 87, 113
2, 110770, Control_c, 0, 11, 86
2, 110792, Control_c, 0, 11, 86
2, 110814, Control_c, 0, 11, 87
2, 110836, Control_c, 0, 11, 88
2, 110858, Control_c, 0, 11, 89
2, 110881, Note_on_c, 0, 87, 0
2, 110881, Control_c, 0, 11, 89
2, 110881, Note_on_c, 0, 90, 98
2, 111481, Note_on_c, 0, 90, 0
2, 111481, Note_on_c, 0, 81, 98
2, 111601, Note_on_c, 0, 81, 0
2, 111601, Note_on_c, 0, 81, 98
2, 111721, Note_on_c, 0, 81, 0
2, 111721, Note_on_c, 0, 81, 98
2, 111811, Control_c, 0, 11, 89
2, 111816, Control_c, 0, 11, 86
2, 111823, Control_c, 0, 11, 83
2, 111831, Control_c, 0, 11, 80
2, 111836, Control_c, 0, 11, 77
2, 111841, Note_on_c, 0, 81, 0
2, 111841, Note_on_c, 0, 82, 83
2, 111843, Control_c, 0, 11, 74
2, 111851, Control_c, 0, 11, 71
2, 111856, Control_c, 0, 11, 68
2, 111863, Control_c, 0, 11, 65
2, 111868, Control_c, 0, 11, 62
2, 111876, Control_c, 0, 11, 58
2, 111881, Control_c, 0, 11, 55
2, 111886, Control_c, 0, 11, 52
2, 111961, Note_on_c, 0, 82, 0
2, 113761, Control_c, 0, 11, 62
2, 113761, Note_on_c, 0, 82, 88
2, 113780, Control_c, 0, 11, 64
2, 113799, Control_c, 0, 11, 67
2, 113818, Control_c, 0, 11, 70
2, 113833, Control_c, 0, 11, 72
2, 113852, Control_c, 0, 11, 75
2, 113869, Note_on_c, 0, 82, 0
2, 113871, Control_c, 0, 11, 77
2, 113881, Note_on_c, 0, 89, 88
2, 113881, Note_on_c, 0, 86, 88
2, 113989, Note_on_c, 0, 86, 0
2, 113989, Note_on_c, 0, 89, 0
2, 114001, Note_on_c, 0, 87, 88
2, 114001, Note_on_c, 0, 91, 88
2, 114109, Note_on_c, 0, 91, 0
2, 114109, Note_on_c, 0, 87, 0
2, 114121, Note_on_c, 0, 87, 88
2, 114121, Note_on_c, 0, 91, 88
2, 114229, Note_on_c, 0, 91, 0
2, 114229, Note_on_c, 0, 87, 0
2, 114241, Note_on_c, 0, 86, 88
2, 114241, Note_on_c, 0, 89, 88
2, 114349, Note_on_c, 0, 89, 0
2, 114349, Note_on_c, 0, 86, 0
2, 114361, Note_on_c, 0, 89, 88
2, 114361, Note_on_c, 0, 86, 88
2, 114469, Note_on_c, 0, 86, 0
2, 114469, Note_on_c, 0, 89, 0
2, 114481, Note_on_c, 0, 87, 88
2, 114481, Note_on_c, 0, 91, 88
2, 114589, Note_on_c, 0, 91, 0
2, 114589, Note_on_c, 0, 87, 0
2, 114601, Note_on_c, 0, 91, 88
2, 114601, Note_on_c, 0, 87, 88
2, 114709, Note_on_c, 0, 87, 0
2, 114709, Note_on_c, 0, 91, 0
2, 114721, Note_on_c, 0, 86, 88
2, 114721, Note_on_c, 0, 89, 88
2, 114841, Note_on_c, 0, 89, 0
2, 114841, Note_on_c, 0, 86, 0
2, 116521, Note_on_c, 0, 82, 119
2, 116521, Control_c, 0, 11, 52
2, 116611, Note_on_c, 0, 82, 0
2, 116611, Note_on_c, 0, 86, 119
2, 116636, Note_on_c, 0, 86, 0
2, 116641, Note_on_c, 0, 87, 108
2, 116701, Note_on_c, 0, 87, 0
2, 116761, Note_on_c, 0, 82, 98
2, 117001, Note_on_c, 0, 82, 0
2, 117001, Note_on_c, 0, 80, 98
2, 117121, Note_on_c, 0, 80, 0
2, 117121, Note_on_c, 0, 79, 98
2, 117241, Note_on_c, 0, 79, 0
2, 117241, Note_on_c, 0, 83, 98
2, 117361, Note_on_c, 0, 83, 0
2, 117361, Note_on_c, 0, 84, 98
2, 117481, Note_on_c, 0, 84, 0
2, 117481, Note_on_c, 0, 82, 98
2, 117596, Note_on_c, 0, 82, 0
2, 117601, Note_on_c, 0, 80, 98
2, 117721, Note_on_c, 0, 80, 0
2, 118681, Control_c, 0, 11, 57
2, 118681, Note_on_c, 0, 84, 119
2, 118771, Note_on_c, 0, 84, 0
2, 118771, Note_on_c, 0, 88, 119
2, 118796, Note_on_c, 0, 88, 0
2, 118801, Note_on_c, 0, 89, 108
2, 118861, Note_on_c, 0, 89, 0
2, 119161, Note_on_c, 0, 87, 88
2, 119281, Note_on_c, 0, 87, 0
2, 119281, Note_on_c, 0, 86, 88
2, 119401, Note_on_c, 0, 86, 0
2, 119401, Note_on_c, 0, 84, 88
2, 119516, Note_on_c, 0, 84, 0
2, 119521, Note_on_c, 0, 82, 88
2, 119641, Note_on_c, 0, 82, 0
2, 120601, Note_on_c, 0, 86, 119
2, 120691, Note_on_c, 0, 86, 0
2, 120691, Note_on_c, 0, 90, 119
2, 120716, Note_on_c, 0, 90, 0
2, 120721, Note_on_c, 0, 91, 108
2, 120781, Note_on_c, 0, 91, 0
2, 121561, Control_c, 0, 11, 47
2, 121561, Note_on_c, 0, 82, 98
2, 121681, Note_on_c, 0, 82, 0
2, 121681, Note_on_c, 0, 81, 98
2, 121801, Note_on_c, 0, 81, 0
2, 121801, Note_on_c, 0, 79, 98
2, 121916, Note_on_c, 0, 79, 0
2, 121921, Note_on_c, 0, 77, 98
2, 122041, Note_on_c, 0, 77, 0
2, 122521, Control_c, 0, 11, 57
2, 122521, Note_on_c, 0, 80, 98
2, 122545, Control_c, 0, 11, 58
2, 122569, Control_c, 0, 11, 59
2, 122593, Control_c, 0, 11, 60
2, 122617, Control_c, 0, 11, 61
2, 122641, Note_on_c, 0, 80, 0
2, 122641, Note_on_c, 0, 81, 98
2, 122641, Control_c, 0, 11, 62
2, 122665, Control_c, 0, 11, 62
2, 122689, Control_c, 0, 11, 63
2, 122713, Control_c, 0, 11, 64
2, 122737, Control_c, 0, 11, 64
2, 122761, Note_on_c, 0, 81, 0
2, 122761, Note_on_c, 0, 83, 98
2, 122761, Control_c, 0, 11, 65
2, 122785, Control_c, 0, 11, 66
2, 122809, Control_c, 0, 11, 66
2, 122833, Control_c, 0, 11, 67
2, 122857, Control_c, 0, 11, 68
2, 122881, Note_on_c, 0, 83, 0
2, 122881, Control_c, 0, 11, 68
2, 122881, Note_on_c, 0, 84, 98
2, 122913, Control_c, 0, 11, 69
2, 122945, Control_c, 0, 11, 70
2, 122977, Control_c, 0, 11, 71
2, 122996, Note_on_c, 0, 84, 0
2, 123001, Note_on_c, 0, 84, 98
2, 123009, Control_c, 0, 11, 71
2, 123041, Control_c, 0, 11, 72
2, 123073, Control_c, 0, 11, 73
2, 123105, Control_c, 0, 11, 73
2, 123121, Note_on_c, 0, 84, 0
2, 123121, Note_on_c, 0, 83, 98
2, 123137, Control_c, 0, 11, 74
2, 123169, Control_c, 0, 11, 75
2, 123201, Control_c, 0, 11, 75
2, 123233, Control_c, 0, 11, 76
2, 123241, Note_on_c, 0, 83, 0
2, 123241, Note_on_c, 0, 81, 98
2, 123265, Control_c, 0, 11, 77
2, 123297, Control_c, 0, 11, 77
2, 123329, Control_c, 0, 11, 78
2, 123356, Note_on_c, 0, 81, 0
2, 123361, Note_on_c, 0, 80, 98
2, 123361, Control_c, 0, 11, 79
2, 123481, Note_on_c, 0, 80, 0
2, 124321, Control_c, 0, 11, 89
2, 124321, Note_on_c, 0, 81, 88
2, 124321, Note_on_c, 0, 84, 88
2, 124681, Note_on_c, 0, 84, 0
2, 124681, Note_on_c, 0, 81, 0
2, 124681, Note_on_c, 0, 86, 88
2, 124681, Note_on_c, 0, 83, 88
2, 124801, Note_on_c, 0, 83, 0
2, 124801, Note_on_c, 0, 86, 0
2, 124801, Note_on_c, 0, 86, 88
2, 124801, Note_on_c, 0, 89, 88
2, 124921, Note_on_c, 0, 89, 0
2, 124921, Note_on_c, 0, 86, 0
2, 124921, Note_on_c, 0, 88, 88
2, 124921, Note_on_c, 0, 84, 88
2, 125041, Note_on_c, 0, 84, 0
2, 125041, Note_on_c, 0, 88, 0
2, 125041, Note_on_c, 0, 83, 88
2, 125041, Note_on_c, 0, 86, 88
2, 125161, Note_on_c, 0, 86, 0
2, 125161, Note_on_c, 0, 83, 0
2, 125161, Note_on_c, 0, 84, 88
2, 125161, Note_on_c, 0, 81, 88
2, 125281, Note_on_c, 0, 81, 0
2, 125281, Note_on_c, 0, 84, 0
2, 125281, Note_on_c, 0, 80, 88
2, 125281, Note_on_c, 0, 83, 88
2, 125401, Note_on_c, 0, 83, 0
2, 125401, Note_on_c, 0, 80, 0
2, 126241, Note_on_c, 0, 81, 88
2, 126241, Note_on_c, 0, 84, 88
2, 126601, Note_on_c, 0, 84, 0
2, 126601, Note_on_c, 0, 81, 0
2, 126601, Note_on_c, 0, 86, 88
2, 126601, Note_on_c, 0, 83, 88
2, 126721, Note_on_c, 0, 83, 0
2, 126721, Note_on_c, 0, 86, 0
2, 126721, Note_on_c, 0, 86, 88
2, 126721, Note_on_c, 0, 89, 88
2, 126841, Note_on_c, 0, 89, 0
2, 126841, Note_on_c, 0, 86, 0
2, 126841, Note_on_c, 0, 84, 88
2, 126841, Note_on_c, 0, 88, 88
2, 126961, Note_on_c, 0, 88, 0
2, 126961, Note_on_c, 0, 84, 0
2, 126961, Note_on_c, 0, 83, 88
2, 126961, Note_on_c, 0, 86, 88
2, 127081, Note_on_c, 0, 86, 0
2, 127081, Note_on_c, 0, 83, 0
2, 127081, Note_on_c, 0, 81, 88
2, 127081, Note_on_c, 0, 84, 88
2, 127196, Note_on_c, 0, 84, 0
2, 127196, Note_on_c, 0, 81, 0
2, 127201, Note_on_c, 0, 80, 88
2, 127201, Note_on_c, 0, 83, 88
2, 127261, Note_on_c, 0, 83, 0
2, 127261, Note_on_c, 0, 80, 0
2, 127321, Note_on_c, 0, 84, 88
2, 127321, Note_on_c, 0, 88, 88
2, 127321, Control_c, 0, 11, 103
2, 127339, Control_c, 0, 11, 101
2, 127357, Control_c, 0, 11, 99
2, 127375, Control_c, 0, 11, 97
2, 127393, Control_c, 0, 11, 95
2, 127411, Control_c, 0, 11, 93
2, 127429, Control_c, 0, 11, 91
2, 127441, Note_on_c, 0, 88, 0
2, 127441, Note_on_c, 0, 84, 0
2, 127441, Note_on_c, 0, 83, 88
2, 127441, Note_on_c, 0, 86, 88
2, 127561, Note_on_c, 0, 86, 0
2, 127561, Note_on_c, 0, 83, 0
2, 127561, Note_on_c, 0, 84, 88
2, 127561, Note_on_c, 0, 81, 88
2, 127676, Note_on_c, 0, 81, 0
2, 127676, Note_on_c, 0, 84, 0
2, 127681, Note_on_c, 0, 83, 88
2, 127681, Note_on_c, 0, 80, 88
2, 127741, Note_on_c, 0, 80, 0
2, 127741, Note_on_c, 0, 83, 0
2, 127801, Control_c, 0, 11, 103
2, 127801, Note_on_c, 0, 84, 88
2, 127801, Note_on_c, 0, 88, 88
2, 127819, Control_c, 0, 11, 101
2, 127837, Control_c, 0, 11, 99
2, 127855, Control_c, 0, 11, 97
2, 127873, Control_c, 0, 11, 95
2, 127891, Control_c, 0, 11, 93
2, 127909, Control_c, 0, 11, 91
2, 127921, Note_on_c, 0, 88, 0
2, 127921, Note_on_c, 0, 84, 0
2, 127921, Note_on_c, 0, 86, 88
2, 127921, Note_on_c, 0, 83, 88
2, 128041, Note_on_c, 0, 83, 0
2, 128041, Note_on_c, 0, 86, 0
2, 128041, Note_on_c, 0, 84, 88
2, 128041, Note_on_c, 0, 81, 88
2, 128156, Note_on_c, 0, 81, 0
2, 128156, Note_on_c, 0, 84, 0
2, 128161, Note_on_c, 0, 80, 88
2, 128161, Note_on_c, 0, 83, 88
2, 128281, Note_on_c, 0, 83, 0
2, 128281, Note_on_c, 0, 80, 0
2, 128641, Note_on_c, 0, 76, 98
2, 128641, Note_on_c, 0, 88, 98
2, 128713, Note_on_c, 0, 88, 0
2, 128713, Note_on_c, 0, 76, 0
2, 128881, Note_on_c, 0, 76, 98
2, 128881, Note_on_c, 0, 88, 98
2, 128953, Note_on_c, 0, 88, 0
2, 128953, Note_on_c, 0, 76, 0
2, 129121, Note_on_c, 0, 88, 98
2, 129121, Note_on_c, 0, 76, 98
2, 129121, Control_c, 0, 11, 103
2, 129131, Control_c, 0, 11, 100
2, 129145, Control_c, 0, 11, 97
2, 129155, Control_c, 0, 11, 94
2, 129166, Control_c, 0, 11, 91
2, 129179, Control_c, 0, 11, 88
2, 129190, Control_c, 0, 11, 85
2, 129201, Control_c, 0, 11, 82
2, 129214, Control_c, 0, 11, 79
2, 129225, Control_c, 0, 11, 76
2, 129235, Control_c, 0, 11, 73
2, 129252, Control_c, 0, 11, 71
2, 129275, Control_c, 0, 11, 70
2, 129298, Control_c, 0, 11, 68
2, 129321, Control_c, 0, 11, 67
2, 129344, Control_c, 0, 11, 66
2, 129367, Control_c, 0, 11, 64
2, 129390, Control_c, 0, 11, 63
2, 129413, Control_c, 0, 11, 62
2, 129436, Control_c, 0, 11, 60
2, 129459, Control_c, 0, 11, 58
2, 129501, Control_c, 0, 11, 56
2, 129531, Control_c, 0, 11, 55
2, 129562, Control_c, 0, 11, 54
2, 129592, Control_c, 0, 11, 53
2, 129623, Control_c, 0, 11, 52
2, 129653, Control_c, 0, 11, 51
2, 129684, Control_c, 0, 11, 50
2, 129714, Control_c, 0, 11, 49
2, 129745, Control_c, 0, 11, 48
2, 129775, Control_c, 0, 11, 47
2, 129805, Control_c, 0, 11, 46
2, 129836, Control_c, 0, 11, 45
2, 129866, Control_c, 0, 11, 44
2, 129897, Control_c, 0, 11, 43
2, 129927, Control_c, 0, 11, 42
2, 129958, Control_c, 0, 11, 41
2, 129988, Control_c, 0, 11, 40
2, 130019, Control_c, 0, 11, 39
2, 130049, Control_c, 0, 11, 38
2, 130076, Note_on_c, 0, 76, 0
2, 130076, Note_on_c, 0, 88, 0
2, 130080, Control_c, 0, 11, 37
2, 130081, Note_on_c, 0, 77, 98
2, 130081, Note_on_c, 0, 89, 98
2, 130561, Note_on_c, 0, 89, 0
2, 130561, Note_on_c, 0, 77, 0
2, 130561, Control_c, 0, 11, 37
2, 130561, Note_on_c, 0, 74, 98
2, 130561, Note_on_c, 0, 86, 98
2, 130581, Control_c, 0, 11, 38
2, 130601, Control_c, 0, 11, 39
2, 130621, Control_c, 0, 11, 40
2, 130641, Control_c, 0, 11, 41
2, 130661, Control_c, 0, 11, 42
2, 130681, Control_c, 0, 11, 43
2, 130701, Control_c, 0, 11, 44
2, 130721, Control_c, 0, 11, 45
2, 130741, Control_c, 0, 11, 46
2, 130761, Control_c, 0, 11, 47
2, 130781, Control_c, 0, 11, 48
2, 130801, Control_c, 0, 11, 49
2, 130821, Control_c, 0, 11, 50
2, 130841, Control_c, 0, 11, 51
2, 130861, Control_c, 0, 11, 52
2, 130881, Control_c, 0, 11, 53
2, 130901, Control_c, 0, 11, 54
2, 130921, Control_c, 0, 11, 55
2, 130941, Control_c, 0, 11, 56
2, 130961, Control_c, 0, 11, 57
2, 130981, Control_c, 0, 11, 58
2, 131001, Control_c, 0, 11, 59
2, 131021, Control_c, 0, 11, 60
2, 131041, Note_on_c, 0, 86, 0
2, 131041, Note_on_c, 0, 74, 0
2, 131041, Note_on_c, 0, 71, 98
2, 131041, Note_on_c, 0, 83, 98
2, 131041, Control_c, 0, 11, 61
2, 131061, Control_c, 0, 11, 62
2, 131081, Control_c, 0, 11, 62
2, 131101, Control_c, 0, 11, 63
2, 131121, Control_c, 0, 11, 64
2, 131141, Control_c, 0, 11, 64
2, 131161, Control_c, 0, 11, 65
2, 131181, Control_c, 0, 11, 66
2, 131201, Control_c, 0, 11, 66
2, 131221, Control_c, 0, 11, 67
2, 131241, Control_c, 0, 11, 68
2, 131261, Control_c, 0, 11, 68
2, 131281, Control_c, 0, 11, 69
2, 131301, Control_c, 0, 11, 70
2, 131321, Control_c, 0, 11, 71
2, 131341, Control_c, 0, 11, 71
2, 131361, Control_c, 0, 11, 72
2, 131381, Control_c, 0, 11, 73
2, 131401, Control_c, 0, 11, 73
2, 131421, Control_c, 0, 11, 74
2, 131441, Control_c, 0, 11, 75
2, 131461, Control_c, 0, 11, 75
2, 131481, Control_c, 0, 11, 76
2, 131501, Control_c, 0, 11, 77
2, 131521, Note_on_c, 0, 83, 0
2, 131521, Note_on_c, 0, 71, 0
2, 131521, Control_c, 0, 11, 77
2, 131521, Note_on_c, 0, 67, 98
2, 131521, Note_on_c, 0, 79, 98
2, 131540, Control_c, 0, 11, 78
2, 131569, Control_c, 0, 11, 79
2, 131597, Control_c, 0, 11, 80
2, 131626, Control_c, 0, 11, 80
2, 131655, Control_c, 0, 11, 81
2, 131684, Control_c, 0, 11, 82
2, 131713, Control_c, 0, 11, 82
2, 131741, Control_c, 0, 11, 83
2, 131770, Control_c, 0, 11, 84
2, 131799, Control_c, 0, 11, 84
2, 131828, Control_c, 0, 11, 85
2, 131857, Control_c, 0, 11, 86
2, 131885, Control_c, 0, 11, 86
2, 131914, Control_c, 0, 11, 87
2, 131943, Control_c, 0, 11, 88
2, 131972, Control_c, 0, 11, 89
2, 132001, Note_on_c, 0, 79, 0
2, 132001, Note_on_c, 0, 67, 0
2, 132001, Note_on_c, 0, 84, 98
2, 132001, Control_c, 0, 11, 89
2, 132309, Note_on_c, 0, 84, 0
2, 132361, Note_on_c, 0, 79, 98
2, 132451, Note_on_c, 0, 79, 0
2, 132451, Note_on_c, 0, 83, 98
2, 132471, Note_on_c, 0, 83, 0
2, 132481, Note_on_c, 0, 84, 98
2, 132789, Note_on_c, 0, 84, 0
2, 132841, Note_on_c, 0, 79, 98
2, 132931, Note_on_c, 0, 79, 0
2, 132931, Note_on_c, 0, 83, 98
2, 132951, Note_on_c, 0, 83, 0
2, 132961, Note_on_c, 0, 84, 98
2, 132991, Note_on_c, 0, 84, 0
2, 133021, Note_on_c, 0, 84, 98
2, 133051, Note_on_c, 0, 84, 0
2, 133081, Note_on_c, 0, 79, 98
2, 133111, Note_on_c, 0, 79, 0
2, 133141, Note_on_c, 0, 83, 98
2, 133171, Note_on_c, 0, 83, 0
2, 133201, Note_on_c, 0, 84, 98
2, 133231, Note_on_c, 0, 84, 0
2, 133261, Note_on_c, 0, 84, 98
2, 133291, Note_on_c, 0, 84, 0
2, 133321, Note_on_c, 0, 79, 98
2, 133351, Note_on_c, 0, 79, 0
2, 133381, Note_on_c, 0, 83, 98
2, 133411, Note_on_c, 0, 83, 0
2, 133441, Note_on_c, 0, 84, 98
2, 133501, Note_on_c, 0, 84, 0
2, 133561, Note_on_c, 0, 76, 98
2, 133561, Note_on_c, 0, 88, 98
2, 133621, Note_on_c, 0, 88, 0
2, 133621, Note_on_c, 0, 76, 0
2, 133681, Note_on_c, 0, 79, 98
2, 133681, Note_on_c, 0, 91, 98
2, 133741, Note_on_c, 0, 91, 0
2, 133741, Note_on_c, 0, 79, 0
2, 133801, Note_on_c, 0, 67, 98
2, 133801, Note_on_c, 0, 83, 98
2, 133861, Note_on_c, 0, 83, 0
2, 133861, Note_on_c, 0, 67, 0
2, 133921, Control_c, 0, 11, 47
2, 133921, Note_on_c, 0, 84, 88
2, 133921, Note_on_c, 0, 72, 98
2, 133940, Control_c, 0, 11, 48
2, 133959, Control_c, 0, 11, 49
2, 133978, Control_c, 0, 11, 50
2, 133997, Control_c, 0, 11, 51
2, 134016, Control_c, 0, 11, 52
2, 134035, Control_c, 0, 11, 53
2, 134041, Note_on_c, 0, 72, 0
2, 134055, Control_c, 0, 11, 54
2, 134074, Control_c, 0, 11, 55
2, 134093, Control_c, 0, 11, 56
2, 134112, Control_c, 0, 11, 57
2, 134131, Control_c, 0, 11, 58
2, 134150, Control_c, 0, 11, 59
2, 134170, Control_c, 0, 11, 60
2, 134189, Control_c, 0, 11, 61
2, 134208, Control_c, 0, 11, 62
2, 134227, Control_c, 0, 11, 62
2, 134246, Control_c, 0, 11, 63
2, 134265, Control_c, 0, 11, 64
2, 134285, Control_c, 0, 11, 64
2, 134304, Control_c, 0, 11, 65
2, 134323, Control_c, 0, 11, 66
2, 134342, Control_c, 0, 11, 66
2, 134361, Control_c, 0, 11, 67
2, 134380, Control_c, 0, 11, 68
2, 134400, Control_c, 0, 11, 68
2, 134401, Note_on_c, 0, 84, 0
2, 134401, Note_on_c, 0, 85, 88
2, 134417, Control_c, 0, 11, 69
2, 134433, Control_c, 0, 11, 70
2, 134449, Control_c, 0, 11, 71
2, 134465, Control_c, 0, 11, 71
2, 134481, Control_c, 0, 11, 72
2, 134497, Control_c, 0, 11, 73
2, 134513, Control_c, 0, 11, 73
2, 134529, Control_c, 0, 11, 74
2, 134545, Control_c, 0, 11, 75
2, 134561, Control_c, 0, 11, 75
2, 134577, Control_c, 0, 11, 76
2, 134593, Control_c, 0, 11, 77
2, 134609, Control_c, 0, 11, 77
2, 134625, Control_c, 0, 11, 78
2, 134641, Control_c, 0, 11, 79
2, 134657, Control_c, 0, 11, 80
2, 134673, Control_c, 0, 11, 80
2, 134689, Control_c, 0, 11, 81
2, 134705, Control_c, 0, 11, 82
2, 134721, Control_c, 0, 11, 82
2, 134737, Control_c, 0, 11, 83
2, 134753, Control_c, 0, 11, 84
2, 134769, Control_c, 0, 11, 84
2, 134785, Control_c, 0, 11, 85
2, 134801, Control_c, 0, 11, 86
2, 134817, Control_c, 0, 11, 86
2, 134833, Control_c, 0, 11, 87
2, 134849, Control_c, 0, 11, 88
2, 134865, Control_c, 0, 11, 89
2, 134881, Note_on_c, 0, 85, 0
2, 134881, Control_c, 0, 11, 89
2, 134881, Note_on_c, 0, 86, 98
2, 135189, Note_on_c, 0, 86, 0
2, 135241, Note_on_c, 0, 81, 98
2, 135331, Note_on_c, 0, 81, 0
2, 135331, Note_on_c, 0, 85, 98
2, 135351, Note_on_c, 0, 85, 0
2, 135361, Note_on_c, 0, 86, 98
2, 135669, Note_on_c, 0, 86, 0
2, 135721, Note_on_c, 0, 81, 98
2, 135811, Note_on_c, 0, 81, 0
2, 135811, Note_on_c, 0, 85, 98
2, 135831, Note_on_c, 0, 85, 0
2, 135841, Note_on_c, 0, 86, 98
2, 135871, Note_on_c, 0, 86, 0
2, 135901, Note_on_c, 0, 86, 98
2, 135931, Note_on_c, 0, 86, 0
2, 135961, Note_on_c, 0, 81, 98
2, 135991, Note_on_c, 0, 81, 0
2, 136021, Note_on_c, 0, 85, 98
2, 136051, Note_on_c, 0, 85, 0
2, 136081, Note_on_c, 0, 86, 98
2, 136111, Note_on_c, 0, 86, 0
2, 136141, Note_on_c, 0, 86, 98
2, 136171, Note_on_c, 0, 86, 0
2, 136201, Note_on_c, 0, 81, 98
2, 136231, Note_on_c, 0, 81, 0
2, 136261, Note_on_c, 0, 85, 98
2, 136291, Note_on_c, 0, 85, 0
2, 136321, Note_on_c, 0, 86, 98
2, 136381, Note_on_c, 0, 86, 0
2, 136441, Note_on_c, 0, 77, 98
2, 136501, Note_on_c, 0, 77, 0
2, 136561, Note_on_c, 0, 81, 98
2, 136621, Note_on_c, 0, 81, 0
2, 136681, Note_on_c, 0, 73, 98
2, 136741, Note_on_c, 0, 73, 0
2, 138241, Control_c, 0, 11, 47
2, 138289, Control_c, 0, 11, 48
2, 138337, Control_c, 0, 11, 49
2, 138385, Control_c, 0, 11, 50
2, 138433, Control_c, 0, 11, 51
2, 138481, Control_c, 0, 11, 52
2, 138529, Control_c, 0, 11, 53
2, 138577, Control_c, 0, 11, 54
2, 138625, Control_c, 0, 11, 55
2, 138673, Control_c, 0, 11, 56
2, 138721, Control_c, 0, 11, 57
2, 138769, Control_c, 0, 11, 58
2, 138817, Control_c, 0, 11, 59
2, 138865, Control_c, 0, 11, 60
2, 138913, Control_c, 0, 11, 61
2, 138961, Control_c, 0, 11, 62
2, 139009, Control_c, 0, 11, 62
2, 139057, Control_c, 0, 11, 63
2, 139105, Control_c, 0, 11, 64
2, 139153, Control_c, 0, 11, 64
2, 139201, Control_c, 0, 11, 65
2, 139249, Control_c, 0, 11, 66
2, 139297, Control_c, 0, 11, 66
2, 139345, Control_c, 0, 11, 67
2, 139393, Control_c, 0, 11, 68
2, 139441, Control_c, 0, 11, 68
2, 139441, Note_on_c, 0, 81, 88
2, 139489, Control_c, 0, 11, 69
2, 139537, Control_c, 0, 11, 70
2, 139585, Control_c, 0, 11, 71
2, 139633, Control_c, 0, 11, 71
2, 139681, Note_on_c, 0, 81, 0
2, 139681, Note_on_c, 0, 82, 88
2, 139681, Control_c, 0, 11, 72
2, 139729, Control_c, 0, 11, 73
2, 139777, Control_c, 0, 11, 73
2, 139825, Control_c, 0, 11, 74
2, 139873, Control_c, 0, 11, 75
2, 139921, Note_on_c, 0, 82, 0
2, 139921, Control_c, 0, 11, 75
2, 139921, Note_on_c, 0, 83, 88
2, 139969, Control_c, 0, 11, 76
2, 140017, Control_c, 0, 11, 77
2, 140065, Control_c, 0, 11, 77
2, 140113, Control_c, 0, 11, 78
2, 140161, Note_on_c, 0, 83, 0
2, 140161, Note_on_c, 0, 84, 88
2, 140161, Control_c, 0, 11, 79
2, 140209, Control_c, 0, 11, 80
2, 140257, Control_c, 0, 11, 80
2, 140305, Control_c, 0, 11, 81
2, 140353, Control_c, 0, 11, 82
2, 140401, Note_on_c, 0, 84, 0
2, 140401, Control_c, 0, 11, 82
2, 140401, Note_on_c, 0, 85, 88
2, 140401, Note_on_c, 0, 79, 88
2, 140449, Control_c, 0, 11, 83
2, 140497, Control_c, 0, 11, 84
2, 140545, Control_c, 0, 11, 84
2, 140593, Control_c, 0, 11, 85
2, 140641, Note_on_c, 0, 79, 0
2, 140641, Note_on_c, 0, 85, 0
2, 140641, Note_on_c, 0, 77, 88
2, 140641, Note_on_c, 0, 86, 88
2, 140641, Control_c, 0, 11, 86
2, 140689, Control_c, 0, 11, 86
2, 140737, Control_c, 0, 11, 87
2, 140785, Control_c, 0, 11, 88
2, 140833, Control_c, 0, 11, 89
2, 140881, Note_on_c, 0, 86, 0
2, 140881, Note_on_c, 0, 77, 0
2, 140881, Control_c, 0, 11, 89
2, 140881, Note_on_c, 0, 88, 88
2, 140881, Note_on_c, 0, 82, 88
2, 141121, Note_on_c, 0, 82, 0
2, 141121, Note_on_c, 0, 88, 0
2, 141121, Note_on_c, 0, 81, 88
2, 141121, Note_on_c, 0, 89, 88
2, 141361, Note_on_c, 0, 89, 0
2, 141361, Note_on_c, 0, 81, 0
2, 141361, Note_on_c, 0, 90, 88
2, 141361, Note_on_c, 0, 84, 88
2, 141601, Note_on_c, 0, 84, 0
2, 141601, Note_on_c, 0, 90, 0
2, 141601, Note_on_c, 0, 83, 88
2, 141601, Note_on_c, 0, 91, 88
2, 141953, Note_on_c, 0, 91, 0
2, 141961, Note_on_c, 0, 89, 98
2, 142073, Note_on_c, 0, 89, 0
2, 142073, Note_on_c, 0, 83, 0
2, 142081, Note_on_c, 0, 84, 98
2, 142081, Note_on_c, 0, 88, 98
2, 142193, Note_on_c, 0, 88, 0
2, 142193, Note_on_c, 0, 84, 0
2, 142201, Note_on_c, 0, 84, 98
2, 142201, Note_on_c, 0, 76, 98
2, 142313, Note_on_c, 0, 76, 0
2, 142313, Note_on_c, 0, 84, 0
2, 142321, Note_on_c, 0, 81, 98
2, 142321, Note_on_c, 0, 72, 98
2, 142433, Note_on_c, 0, 72, 0
2, 142433, Note_on_c, 0, 81, 0
2, 142441, Note_on_c, 0, 78, 98
2, 142441, Note_on_c, 0, 72, 98
2, 142553, Note_on_c, 0, 72, 0
2, 142553, Note_on_c, 0, 78, 0
2, 142561, Note_on_c, 0, 79, 98
2, 142561, Note_on_c, 0, 71, 98
2, 142673, Note_on_c, 0, 71, 0
2, 142673, Note_on_c, 0, 79, 0
2, 142681, Note_on_c, 0, 91, 98
2, 142681, Note_on_c, 0, 83, 98
2, 142681, Control_c, 0, 11, 103
2, 142699, Control_c, 0, 11, 101
2, 142717, Control_c, 0, 11, 99
2, 142735, Control_c, 0, 11, 97
2, 142753, Control_c, 0, 11, 95
2, 142771, Control_c, 0, 11, 93
2, 142789, Control_c, 0, 11, 91
2, 142913, Note_on_c, 0, 83, 0
2, 142913, Note_on_c, 0, 91, 0
2, 142921, Note_on_c, 0, 86, 98
2, 142921, Note_on_c, 0, 89, 98
2, 143033, Note_on_c, 0, 89, 0
2, 143033, Note_on_c, 0, 86, 0
2, 143041, Note_on_c, 0, 88, 98
2, 143041, Note_on_c, 0, 84, 98
2, 143153, Note_on_c, 0, 84, 0
2, 143153, Note_on_c, 0, 88, 0
2, 143161, Note_on_c, 0, 84, 98
2, 143273, Note_on_c, 0, 84, 0
2, 143281, Note_on_c, 0, 81, 98
2, 143393, Note_on_c, 0, 81, 0
2, 143401, Note_on_c, 0, 78, 98
2, 143513, Note_on_c, 0, 78, 0
2, 143521, Note_on_c, 0, 79, 98
2, 143551, Note_on_c, 0, 79, 0
2, 143581, Note_on_c, 0, 81, 98
2, 143611, Note_on_c, 0, 81, 0
2, 143641, Note_on_c, 0, 83, 98
2, 143671, Note_on_c, 0, 83, 0
2, 143701, Note_on_c, 0, 84, 98
2, 143731, Note_on_c, 0, 84, 0
2, 143761, Control_c, 0, 11, 103
2, 143761, Note_on_c, 0, 86, 98
2, 143779, Control_c, 0, 11, 101
2, 143791, Note_on_c, 0, 86, 0
2, 143797, Control_c, 0, 11, 99
2, 143815, Control_c, 0, 11, 97
2, 143821, Note_on_c, 0, 84, 98
2, 143833, Control_c, 0, 11, 95
2, 143851, Note_on_c, 0, 84, 0
2, 143851, Control_c, 0, 11, 93
2, 143869, Control_c, 0, 11, 91
2, 143881, Note_on_c, 0, 83, 98
2, 143911, Note_on_c, 0, 83, 0
2, 143941, Note_on_c, 0, 81, 98
2, 143971, Note_on_c, 0, 81, 0
2, 144001, Note_on_c, 0, 79, 98
2, 144031, Note_on_c, 0, 79, 0
2, 144061, Note_on_c, 0, 81, 98
2, 144091, Note_on_c, 0, 81, 0
2, 144121, Note_on_c, 0, 83, 98
2, 144151, Note_on_c, 0, 83, 0
2, 144181, Note_on_c, 0, 84, 98
2, 144211, Note_on_c, 0, 84, 0
2, 144241, Control_c, 0, 11, 103
2, 144241, Note_on_c, 0, 86, 98
2, 144259, Control_c, 0, 11, 101
2, 144271, Note_on_c, 0, 86, 0
2, 144277, Control_c, 0, 11, 99
2, 144295, Control_c, 0, 11, 97
2, 144301, Note_on_c, 0, 84, 98
2, 144313, Control_c, 0, 11, 95
2, 144331, Note_on_c, 0, 84, 0
2, 144331, Control_c, 0, 11, 93
2, 144349, Control_c, 0, 11, 91
2, 144361, Note_on_c, 0, 83, 98
2, 144391, Note_on_c, 0, 83, 0
2, 144421, Note_on_c, 0, 81, 98
2, 144451, Note_on_c, 0, 81, 0
2, 144481, Note_on_c, 0, 79, 98
2, 144601, Note_on_c, 0, 79, 0
2, 145321, Control_c, 0, 11, 52
2, 145321, Note_on_c, 0, 79, 98
2, 145431, Note_on_c, 0, 79, 0
2, 145441, Note_on_c, 0, 84, 98
2, 145741, Note_on_c, 0, 84, 0
2, 145741, Note_on_c, 0, 83, 98
2, 145801, Note_on_c, 0, 83, 0
2, 145801, Note_on_c, 0, 81, 98
2, 145861, Note_on_c, 0, 81, 0
2, 145861, Note_on_c, 0, 79, 98
2, 145911, Note_on_c, 0, 79, 0
2, 145921, Note_on_c, 0, 77, 98
2, 146041, Note_on_c, 0, 77, 0
2, 146401, Note_on_c, 0, 86, 98
2, 146701, Note_on_c, 0, 86, 0
2, 146701, Note_on_c, 0, 83, 98
2, 146761, Note_on_c, 0, 83, 0
2, 146761, Note_on_c, 0, 79, 98
2, 146821, Note_on_c, 0, 79, 0
2, 146821, Note_on_c, 0, 77, 98
2, 146871, Note_on_c, 0, 77, 0
2, 146881, Note_on_c, 0, 76, 98
2, 147001, Note_on_c, 0, 76, 0
2, 147601, Note_on_c, 0, 83, 98
2, 147601, Control_c, 0, 11, 72
2, 147620, Control_c, 0, 11, 69
2, 147639, Control_c, 0, 11, 66
2, 147658, Control_c, 0, 11, 64
2, 147673, Control_c, 0, 11, 62
2, 147687, Control_c, 0, 11, 59
2, 147701, Control_c, 0, 11, 56
2, 147716, Control_c, 0, 11, 53
2, 147721, Note_on_c, 0, 83, 0
2, 147721, Note_on_c, 0, 84, 98
2, 147831, Note_on_c, 0, 84, 0
2, 148081, Note_on_c, 0, 83, 98
2, 148081, Control_c, 0, 11, 72
2, 148100, Control_c, 0, 11, 69
2, 148119, Control_c, 0, 11, 66
2, 148138, Control_c, 0, 11, 64
2, 148153, Control_c, 0, 11, 62
2, 148167, Control_c, 0, 11, 59
2, 148181, Control_c, 0, 11, 56
2, 148196, Control_c, 0, 11, 53
2, 148201, Note_on_c, 0, 83, 0
2, 148201, Note_on_c, 0, 84, 98
2, 148311, Note_on_c, 0, 84, 0
2, 148321, Note_on_c, 0, 83, 98
2, 148441, Note_on_c, 0, 83, 0
2, 148441, Control_c, 0, 11, 72
2, 148441, Note_on_c, 0, 86, 98
2, 148460, Control_c, 0, 11, 71
2, 148479, Control_c, 0, 11, 69
2, 148498, Control_c, 0, 11, 68
2, 148517, Control_c, 0, 11, 66
2, 148537, Control_c, 0, 11, 65
2, 148556, Control_c, 0, 11, 64
2, 148575, Control_c, 0, 11, 62
2, 148594, Control_c, 0, 11, 61
2, 148613, Control_c, 0, 11, 59
2, 148633, Control_c, 0, 11, 57
2, 148652, Control_c, 0, 11, 55
2, 148671, Control_c, 0, 11, 53
2, 148681, Note_on_c, 0, 86, 0
2, 148681, Note_on_c, 0, 78, 98
2, 148791, Note_on_c, 0, 78, 0
2, 148801, Note_on_c, 0, 79, 98
2, 148921, Note_on_c, 0, 79, 0
2, 149161, Control_c, 0, 11, 52
2, 149161, Note_on_c, 0, 79, 113
2, 149271, Note_on_c, 0, 79, 0
2, 149281, Note_on_c, 0, 84, 113
2, 149581, Note_on_c, 0, 84, 0
2, 149581, Note_on_c, 0, 83, 113
2, 149641, Note_on_c, 0, 83, 0
2, 149641, Note_on_c, 0, 81, 113
2, 149701, Note_on_c, 0, 81, 0
2, 149701, Note_on_c, 0, 79, 113
2, 149751, Note_on_c, 0, 79, 0
2, 149761, Note_on_c, 0, 77, 98
2, 149881, Note_on_c, 0, 77, 0
2, 150241, Note_on_c, 0, 86, 113
2, 150541, Note_on_c, 0, 86, 0
2, 150541, Note_on_c, 0, 83, 113
2, 150601, Note_on_c, 0, 83, 0
2, 150601, Note_on_c, 0, 79, 113
2, 150661, Note_on_c, 0, 79, 0
2, 150661, Note_on_c, 0, 77, 113
2, 150711, Note_on_c, 0, 77, 0
2, 150721, Note_on_c, 0, 76, 98
2, 150841, Note_on_c, 0, 76, 0
2, 151321, Note_on_c, 0, 84, 88
2, 151551, Note_on_c, 0, 84, 0
2, 151561, Note_on_c, 0, 85, 88
2, 151561, Control_c, 0, 11, 72
2, 151580, Control_c, 0, 11, 69
2, 151599, Control_c, 0, 11, 66
2, 151618, Control_c, 0, 11, 64
2, 151633, Control_c, 0, 11, 62
2, 151647, Control_c, 0, 11, 59
2, 151661, Control_c, 0, 11, 56
2, 151676, Control_c, 0, 11, 53
2, 151681, Note_on_c, 0, 85, 0
2, 151681, Note_on_c, 0, 84, 88
2, 151791, Note_on_c, 0, 84, 0
2, 151801, Note_on_c, 0, 84, 88
2, 152031, Note_on_c, 0, 84, 0
2, 152041, Control_c, 0, 11, 72
2, 152041, Note_on_c, 0, 85, 88
2, 152060, Control_c, 0, 11, 69
2, 152079, Control_c, 0, 11, 66
2, 152098, Control_c, 0, 11, 64
2, 152113, Control_c, 0, 11, 62
2, 152127, Control_c, 0, 11, 59
2, 152141, Control_c, 0, 11, 56
2, 152156, Control_c, 0, 11, 53
2, 152271, Note_on_c, 0, 85, 0
2, 152281, Note_on_c, 0, 86, 88
2, 152401, Note_on_c, 0, 86, 0
2, 152401, Note_on_c, 0, 88, 88
2, 152521, Note_on_c, 0, 88, 0
2, 152521, Note_on_c, 0, 89, 88
2, 152631, Note_on_c, 0, 89, 0
2, 152641, Note_on_c, 0, 84, 88
2, 152881, Note_on_c, 0, 84, 0
2, 152881, Note_on_c, 0, 83, 98
2, 153101, Note_on_c, 0, 83, 0
2, 153121, Note_on_c, 0, 79, 98
2, 153121, Control_c, 0, 11, 79
2, 153241, Note_on_c, 0, 79, 0
2, 153361, Note_on_c, 0, 83, 98
2, 153361, Note_on_c, 0, 89, 98
2, 153481, Note_on_c, 0, 89, 0
2, 153481, Note_on_c, 0, 83, 0
2, 153601, Note_on_c, 0, 88, 98
2, 153601, Note_on_c, 0, 84, 98
2, 153721, Note_on_c, 0, 84, 0
2, 153721, Note_on_c, 0, 88, 0
2, 154081, Control_c, 0, 11, 93
2, 154081, Note_on_c, 0, 91, 88
2, 154081, Note_on_c, 0, 79, 88
2, 154098, Control_c, 0, 11, 91
2, 154116, Control_c, 0, 11, 89
2, 154134, Control_c, 0, 11, 86
2, 154152, Control_c, 0, 11, 84
2, 154170, Control_c, 0, 11, 82
2, 154188, Control_c, 0, 11, 80
2, 154311, Note_on_c, 0, 79, 0
2, 154311, Note_on_c, 0, 91, 0
2, 154321, Control_c, 0, 11, 93
2, 154321, Note_on_c, 0, 83, 88
2, 154321, Note_on_c, 0, 89, 88
2, 154338, Control_c, 0, 11, 91
2, 154356, Control_c, 0, 11, 89
2, 154374, Control_c, 0, 11, 86
2, 154392, Control_c, 0, 11, 84
2, 154410, Control_c, 0, 11, 82
2, 154428, Control_c, 0, 11, 80
2, 154551, Note_on_c, 0, 89, 0
2, 154551, Note_on_c, 0, 83, 0
2, 154561, Note_on_c, 0, 88, 88
2, 154561, Note_on_c, 0, 84, 88
2, 154561, Control_c, 0, 11, 93
2, 154578, Control_c, 0, 11, 91
2, 154596, Control_c, 0, 11, 89
2, 154614, Control_c, 0, 11, 86
2, 154632, Control_c, 0, 11, 84
2, 154650, Control_c, 0, 11, 82
2, 154668, Control_c, 0, 11, 80
2, 154681, Note_on_c, 0, 84, 0
2, 154681, Note_on_c, 0, 88, 0
2, 155041, Note_on_c, 0, 91, 88
2, 155041, Note_on_c, 0, 79, 88
2, 155041, Control_c, 0, 11, 93
2, 155058, Control_c, 0, 11, 91
2, 155076, Control_c, 0, 11, 89
2, 155094, Control_c, 0, 11, 86
2, 155112, Control_c, 0, 11, 84
2, 155130, Control_c, 0, 11, 82
2, 155148, Control_c, 0, 11, 80
2, 155211, Note_on_c, 0, 79, 0
2, 155211, Note_on_c, 0, 91, 0
2, 155221, Note_on_c, 0, 77, 88
2, 155221, Note_on_c, 0, 89, 88
2, 155271, Note_on_c, 0, 89, 0
2, 155271, Note_on_c, 0, 77, 0
2, 155281, Note_on_c, 0, 88, 88
2, 155281, Note_on_c, 0, 76, 88
2, 155331, Note_on_c, 0, 76, 0
2, 155331, Note_on_c, 0, 88, 0
2, 155341, Note_on_c, 0, 86, 88
2, 155341, Note_on_c, 0, 74, 88
2, 155391, Note_on_c, 0, 74, 0
2, 155391, Note_on_c, 0, 86, 0
2, 155401, Note_on_c, 0, 72, 88
2, 155401, Note_on_c, 0, 84, 88
2, 155451, Note_on_c, 0, 84, 0
2, 155451, Note_on_c, 0, 72, 0
2, 155461, Note_on_c, 0, 71, 88
2, 155461, Note_on_c, 0, 83, 88
2, 155511, Note_on_c, 0, 83, 0
2, 155511, Note_on_c, 0, 71, 0
2, 155521, Note_on_c, 0, 69, 88
2, 155521, Note_on_c, 0, 81, 88
2, 155571, Note_on_c, 0, 69, 0
2, 155581, Note_on_c, 0, 81, 88
2, 155581, Control_c, 0, 11, 93
2, 155599, Control_c, 0, 11, 91
2, 155617, Control_c, 0, 11, 89
2, 155635, Control_c, 0, 11, 86
2, 155653, Control_c, 0, 11, 84
2, 155671, Control_c, 0, 11, 82
2, 155689, Control_c, 0, 11, 80
2, 155691, Note_on_c, 0, 81, 0
2, 155691, Note_on_c, 0, 81, 0
2, 155701, Note_on_c, 0, 79, 88
2, 155751, Note_on_c, 0, 79, 0
2, 155761, Note_on_c, 0, 77, 88
2, 155811, Note_on_c, 0, 77, 0
2, 155821, Note_on_c, 0, 76, 88
2, 155871, Note_on_c, 0, 76, 0
2, 155881, Note_on_c, 0, 74, 88
2, 155931, Note_on_c, 0, 74, 0
2, 155941, Note_on_c, 0, 72, 88
2, 155991, Note_on_c, 0, 72, 0
2, 156001, Note_on_c, 0, 71, 88
2, 156001, Control_c, 0, 11, 79
2, 156033, Control_c, 0, 11, 80
2, 156051, Note_on_c, 0, 71, 0
2, 156061, Note_on_c, 0, 72, 88
2, 156065, Control_c, 0, 11, 80
2, 156097, Control_c, 0, 11, 81
2, 156111, Note_on_c, 0, 72, 0
2, 156121, Note_on_c, 0, 74, 88
2, 156129, Control_c, 0, 11, 82
2, 156161, Control_c, 0, 11, 82
2, 156171, Note_on_c, 0, 74, 0
2, 156181, Note_on_c, 0, 76, 88
2, 156193, Control_c, 0, 11, 83
2, 156225, Control_c, 0, 11, 84
2, 156231, Note_on_c, 0, 76, 0
2, 156241, Note_on_c, 0, 77, 88
2, 156257, Control_c, 0, 11, 84
2, 156289, Control_c, 0, 11, 85
2, 156291, Note_on_c, 0, 77, 0
2, 156301, Note_on_c, 0, 79, 88
2, 156321, Control_c, 0, 11, 86
2, 156351, Note_on_c, 0, 79, 0
2, 156353, Control_c, 0, 11, 86
2, 156361, Note_on_c, 0, 81, 88
2, 156385, Control_c, 0, 11, 87
2, 156411, Note_on_c, 0, 81, 0
2, 156417, Control_c, 0, 11, 88
2, 156421, Note_on_c, 0, 83, 88
2, 156449, Control_c, 0, 11, 89
2, 156471, Note_on_c, 0, 83, 0
2, 156481, Control_c, 0, 11, 89
2, 156481, Note_on_c, 0, 84, 88
2, 156541, Note_on_c, 0, 84, 0
2, 156601, Note_on_c, 0, 81, 88
2, 156601, Note_on_c, 0, 77, 88
2, 156661, Note_on_c, 0, 77, 0
2, 156661, Note_on_c, 0, 81, 0
2, 156721, Note_on_c, 0, 76, 88
2, 156721, Note_on_c, 0, 79, 88
2, 156781, Note_on_c, 0, 79, 0
2, 156781, Note_on_c, 0, 76, 0
2, 156841, Note_on_c, 0, 83, 88
2, 156841, Note_on_c, 0, 77, 88
2, 156901, Note_on_c, 0, 77, 0
2, 156901, Note_on_c, 0, 83, 0
2, 156961, Note_on_c, 0, 76, 70
2, 156961, Note_on_c, 0, 84, 70
2, 156991, Control_c, 0, 11, 79
2, 157001, Control_c, 0, 11, 76
2, 157011, Control_c, 0, 11, 73
2, 157024, Control_c, 0, 11, 70
2, 157034, Control_c, 0, 11, 67
2, 157045, Control_c, 0, 11, 64
2, 157057, Control_c, 0, 11, 61
2, 157065, Control_c, 0, 11, 58
2, 157073, Control_c, 0, 11, 55
2, 157081, Note_on_c, 0, 84, 0
2, 157081, Note_on_c, 0, 76, 0
2, 157081, Control_c, 0, 11, 52
2, 160801, Note_on_c, 0, 83, 98
2, 160801, Control_c, 0, 11, 42
2, 160816, Control_c, 0, 11, 45
2, 160831, Control_c, 0, 11, 48
2, 160846, Control_c, 0, 11, 51
2, 160861, Control_c, 0, 11, 54
2, 160883, Control_c, 0, 11, 54
2, 160924, Control_c, 0, 11, 55
2, 160965, Control_c, 0, 11, 56
2, 161006, Control_c, 0, 11, 57
2, 161047, Control_c, 0, 11, 58
2, 161089, Control_c, 0, 11, 59
2, 161130, Control_c, 0, 11, 60
2, 161171, Control_c, 0, 11, 61
2, 161212, Control_c, 0, 11, 62
2, 161253, Control_c, 0, 11, 62
2, 161281, Note_on_c, 0, 83, 0
2, 161281, Note_on_c, 0, 84, 98
2, 161294, Control_c, 0, 11, 63
2, 161335, Control_c, 0, 11, 64
2, 161377, Control_c, 0, 11, 64
2, 161418, Control_c, 0, 11, 65
2, 161459, Control_c, 0, 11, 66
2, 161500, Control_c, 0, 11, 66
2, 161541, Control_c, 0, 11, 67
2, 161582, Control_c, 0, 11, 68
2, 161623, Control_c, 0, 11, 68
2, 161665, Control_c, 0, 11, 69
2, 161706, Control_c, 0, 11, 70
2, 161747, Control_c, 0, 11, 71
2, 161788, Control_c, 0, 11, 71
2, 161829, Control_c, 0, 11, 72
2, 161870, Control_c, 0, 11, 73
2, 161911, Control_c, 0, 11, 73
2, 161953, Control_c, 0, 11, 74
2, 161994, Control_c, 0, 11, 75
2, 162001, Note_on_c, 0, 84, 0
2, 162001, Note_on_c, 0, 83, 98
2, 162035, Control_c, 0, 11, 75
2, 162076, Control_c, 0, 11, 76
2, 162117, Control_c, 0, 11, 77
2, 162158, Control_c, 0, 11, 77
2, 162199, Control_c, 0, 11, 78
2, 162231, Note_on_c, 0, 83, 0
2, 162241, Note_on_c, 0, 84, 98
2, 162241, Control_c, 0, 11, 79
2, 162241, Note_on_c, 0, 76, 98
2, 162591, Note_on_c, 0, 76, 0
2, 162591, Note_on_c, 0, 84, 0
2, 162601, Note_on_c, 0, 79, 98
2, 162691, Note_on_c, 0, 79, 0
2, 162691, Note_on_c, 0, 83, 98
2, 162711, Note_on_c, 0, 83, 0
2, 162721, Note_on_c, 0, 76, 98
2, 162721, Note_on_c, 0, 84, 98
2, 162721, Control_c, 0, 11, 93
2, 162744, Control_c, 0, 11, 91
2, 162768, Control_c, 0, 11, 90
2, 162792, Control_c, 0, 11, 89
2, 162816, Control_c, 0, 11, 87
2, 162840, Control_c, 0, 11, 86
2, 162864, Control_c, 0, 11, 84
2, 162888, Control_c, 0, 11, 83
2, 162912, Control_c, 0, 11, 82
2, 162936, Control_c, 0, 11, 80
2, 162960, Control_c, 0, 11, 79
2, 163071, Note_on_c, 0, 84, 0
2, 163071, Note_on_c, 0, 76, 0
2, 163081, Note_on_c, 0, 79, 98
2, 163171, Note_on_c, 0, 79, 0
2, 163171, Note_on_c, 0, 83, 98
2, 163191, Note_on_c, 0, 83, 0
2, 163201, Control_c, 0, 11, 93
2, 163201, Note_on_c, 0, 84, 98
2, 163218, Control_c, 0, 11, 91
2, 163236, Control_c, 0, 11, 89
2, 163254, Control_c, 0, 11, 86
2, 163261, Note_on_c, 0, 84, 0
2, 163272, Control_c, 0, 11, 84
2, 163290, Control_c, 0, 11, 82
2, 163308, Control_c, 0, 11, 80
2, 163441, Note_on_c, 0, 83, 98
2, 163441, Note_on_c, 0, 86, 98
2, 163441, Control_c, 0, 11, 93
2, 163458, Control_c, 0, 11, 91
2, 163476, Control_c, 0, 11, 89
2, 163494, Control_c, 0, 11, 86
2, 163501, Note_on_c, 0, 86, 0
2, 163501, Note_on_c, 0, 83, 0
2, 163512, Control_c, 0, 11, 84
2, 163530, Control_c, 0, 11, 82
2, 163548, Control_c, 0, 11, 80
2, 163681, Note_on_c, 0, 88, 98
2, 163681, Control_c, 0, 11, 93
2, 163681, Note_on_c, 0, 84, 98
2, 163698, Control_c, 0, 11, 91
2, 163716, Control_c, 0, 11, 89
2, 163734, Control_c, 0, 11, 86
2, 163741, Note_on_c, 0, 84, 0
2, 163741, Note_on_c, 0, 88, 0
2, 163752, Control_c, 0, 11, 84
2, 163770, Control_c, 0, 11, 82
2, 163788, Control_c, 0, 11, 80
2, 163921, Control_c, 0, 11, 93
2, 163921, Note_on_c, 0, 84, 98
2, 163921, Note_on_c, 0, 89, 98
2, 163938, Control_c, 0, 11, 91
2, 163956, Control_c, 0, 11, 89
2, 163974, Control_c, 0, 11, 86
2, 163981, Note_on_c, 0, 89, 0
2, 163981, Note_on_c, 0, 84, 0
2, 163992, Control_c, 0, 11, 84
2, 164010, Control_c, 0, 11, 82
2, 164028, Control_c, 0, 11, 80
2, 164161, Control_c, 0, 11, 86
2, 164161, Note_on_c, 0, 91, 98
2, 164184, Control_c, 0, 11, 85
2, 164208, Control_c, 0, 11, 84
2, 164232, Control_c, 0, 11, 84
2, 164256, Control_c, 0, 11, 83
2, 164280, Control_c, 0, 11, 82
2, 164304, Control_c, 0, 11, 82
2, 164328, Control_c, 0, 11, 81
2, 164352, Control_c, 0, 11, 80
2, 164376, Control_c, 0, 11, 80
2, 164400, Control_c, 0, 11, 79
2, 164631, Note_on_c, 0, 91, 0
2, 164641, Control_c, 0, 11, 86
2, 164641, Note_on_c, 0, 89, 98
2, 164664, Control_c, 0, 11, 85
2, 164688, Control_c, 0, 11, 84
2, 164712, Control_c, 0, 11, 84
2, 164736, Control_c, 0, 11, 83
2, 164760, Control_c, 0, 11, 82
2, 164784, Control_c, 0, 11, 82
2, 164808, Control_c, 0, 11, 81
2, 164832, Control_c, 0, 11, 80
2, 164856, Control_c, 0, 11, 80
2, 164880, Control_c, 0, 11, 79
2, 165111, Note_on_c, 0, 89, 0
2, 165121, Control_c, 0, 11, 89
2, 165121, Note_on_c, 0, 88, 98
2, 165121, Note_on_c, 0, 81, 98
2, 165601, Note_on_c, 0, 81, 0
2, 165601, Note_on_c, 0, 82, 98
2, 165721, Note_on_c, 0, 82, 0
2, 165721, Note_on_c, 0, 88, 0
2, 165721, Note_on_c, 0, 91, 98
2, 165721, Note_on_c, 0, 79, 98
2, 165841, Note_on_c, 0, 79, 0
2, 165841, Note_on_c, 0, 91, 0
2, 165841, Note_on_c, 0, 76, 98
2, 165841, Note_on_c, 0, 88, 98
2, 165961, Note_on_c, 0, 88, 0
2, 165961, Note_on_c, 0, 76, 0
2, 165961, Note_on_c, 0, 85, 98
2, 165961, Note_on_c, 0, 73, 98
2, 166071, Note_on_c, 0, 73, 0
2, 166071, Note_on_c, 0, 85, 0
2, 166081, Note_on_c, 0, 86, 98
2, 166081, Note_on_c, 0, 74, 98
2, 166551, Note_on_c, 0, 74, 0
2, 166551, Note_on_c, 0, 86, 0
2, 166561, Note_on_c, 0, 87, 98
2, 166561, Note_on_c, 0, 75, 98
2, 166681, Note_on_c, 0, 75, 0
2, 166681, Note_on_c, 0, 87, 0
2, 166681, Note_on_c, 0, 84, 98
2, 166801, Note_on_c, 0, 84, 0
2, 166801, Note_on_c, 0, 81, 98
2, 166921, Note_on_c, 0, 81, 0
2, 166921, Note_on_c, 0, 78, 98
2, 167031, Note_on_c, 0, 78, 0
2, 167041, Control_c, 0, 11, 103
2, 167041, Note_on_c, 0, 79, 98
2, 167064, Control_c, 0, 11, 102
2, 167088, Control_c, 0, 11, 100
2, 167112, Control_c, 0, 11, 99
2, 167136, Control_c, 0, 11, 98
2, 167160, Control_c, 0, 11, 96
2, 167184, Control_c, 0, 11, 95
2, 167208, Control_c, 0, 11, 93
2, 167232, Control_c, 0, 11, 92
2, 167256, Control_c, 0, 11, 91
2, 167271, Note_on_c, 0, 79, 0
2, 167280, Control_c, 0, 11, 89
2, 167281, Note_on_c, 0, 81, 98
2, 167281, Control_c, 0, 11, 103
2, 167304, Control_c, 0, 11, 102
2, 167328, Control_c, 0, 11, 100
2, 167352, Control_c, 0, 11, 99
2, 167376, Control_c, 0, 11, 98
2, 167400, Control_c, 0, 11, 96
2, 167424, Control_c, 0, 11, 95
2, 167448, Control_c, 0, 11, 93
2, 167472, Control_c, 0, 11, 92
2, 167496, Control_c, 0, 11, 91
2, 167511, Note_on_c, 0, 81, 0
2, 167520, Control_c, 0, 11, 89
2, 167521, Note_on_c, 0, 77, 98
2, 167521, Control_c, 0, 11, 103
2, 167544, Control_c, 0, 11, 102
2, 167568, Control_c, 0, 11, 100
2, 167592, Control_c, 0, 11, 99
2, 167616, Control_c, 0, 11, 98
2, 167640, Control_c, 0, 11, 96
2, 167664, Control_c, 0, 11, 95
2, 167688, Control_c, 0, 11, 93
2, 167712, Control_c, 0, 11, 92
2, 167736, Control_c, 0, 11, 91
2, 167751, Note_on_c, 0, 77, 0
2, 167760, Control_c, 0, 11, 89
2, 167761, Note_on_c, 0, 79, 98
2, 167761, Control_c, 0, 11, 103
2, 167781, Control_c, 0, 11, 101
2, 167801, Control_c, 0, 11, 99
2, 167822, Control_c, 0, 11, 97
2, 167842, Control_c, 0, 11, 95
2, 167863, Control_c, 0, 11, 93
2, 167883, Control_c, 0, 11, 91
2, 167904, Control_c, 0, 11, 89
2, 167924, Control_c, 0, 11, 86
2, 167945, Control_c, 0, 11, 84
2, 167965, Control_c, 0, 11, 82
2, 167986, Control_c, 0, 11, 80
2, 167991, Note_on_c, 0, 79, 0
2, 168001, Note_on_c, 0, 72, 98
2, 168121, Note_on_c, 0, 72, 0
2, 168841, Note_on_c, 0, 83, 98
2, 168841, Control_c, 0, 11, 79
2, 168961, Note_on_c, 0, 83, 0
2, 168961, Note_on_c, 0, 84, 88
2, 169021, Note_on_c, 0, 84, 0
2, 169801, Control_c, 0, 11, 75
2, 169801, Note_on_c, 0, 83, 98
2, 169816, Control_c, 0, 11, 73
2, 169832, Control_c, 0, 11, 70
2, 169848, Control_c, 0, 11, 67
2, 169864, Control_c, 0, 11, 64
2, 169880, Control_c, 0, 11, 62
2, 169892, Control_c, 0, 11, 59
2, 169904, Control_c, 0, 11, 56
2, 169916, Control_c, 0, 11, 53
2, 169921, Note_on_c, 0, 83, 0
2, 169921, Note_on_c, 0, 84, 98
2, 170041, Note_on_c, 0, 81, 98
2, 170101, Note_on_c, 0, 84, 0
2, 170101, Note_on_c, 0, 83, 98
2, 170131, Note_on_c, 0, 83, 0
2, 170131, Note_on_c, 0, 81, 98
2, 170161, Note_on_c, 0, 81, 0
2, 170161, Note_on_c, 0, 81, 0
2, 170161, Note_on_c, 0, 79, 98
2, 170281, Note_on_c, 0, 79, 0
2, 170281, Control_c, 0, 11, 75
2, 170281, Note_on_c, 0, 83, 98
2, 170281, Note_on_c, 0, 77, 98
2, 170296, Control_c, 0, 11, 73
2, 170312, Control_c, 0, 11, 70
2, 170328, Control_c, 0, 11, 67
2, 170344, Control_c, 0, 11, 64
2, 170360, Control_c, 0, 11, 62
2, 170372, Control_c, 0, 11, 59
2, 170384, Control_c, 0, 11, 56
2, 170396, Control_c, 0, 11, 53
2, 170401, Note_on_c, 0, 77, 0
2, 170401, Note_on_c, 0, 83, 0
2, 170401, Note_on_c, 0, 84, 98
2, 170521, Note_on_c, 0, 81, 98
2, 170581, Note_on_c, 0, 84, 0
2, 170581, Note_on_c, 0, 83, 98
2, 170611, Note_on_c, 0, 83, 0
2, 170611, Note_on_c, 0, 81, 98
2, 170641, Note_on_c, 0, 81, 0
2, 170641, Note_on_c, 0, 81, 0
2, 170641, Note_on_c, 0, 79, 98
2, 170761, Note_on_c, 0, 79, 0
2, 170761, Note_on_c, 0, 77, 98
2, 170761, Note_on_c, 0, 83, 98
2, 170761, Control_c, 0, 11, 89
2, 170821, Note_on_c, 0, 83, 0
2, 170881, Note_on_c, 0, 77, 0
2, 170881, Note_on_c, 0, 76, 98
2, 170881, Note_on_c, 0, 84, 98
2, 170941, Note_on_c, 0, 84, 0
2, 171001, Note_on_c, 0, 76, 0
2, 171601, Note_on_c, 0, 91, 88
2, 171601, Note_on_c, 0, 79, 88
2, 171601, Control_c, 0, 11, 47
2, 171841, Note_on_c, 0, 79, 0
2, 171841, Note_on_c, 0, 91, 0
2, 171841, Note_on_c, 0, 88, 88
2, 171841, Note_on_c, 0, 76, 88
2, 172081, Note_on_c, 0, 76, 0
2, 172081, Note_on_c, 0, 88, 0
2, 172081, Note_on_c, 0, 84, 88
2, 172321, Note_on_c, 0, 84, 0
2, 172321, Note_on_c, 0, 82, 88
2, 172561, Note_on_c, 0, 82, 0
2, 172561, Note_on_c, 0, 79, 88
2, 172801, Note_on_c, 0, 79, 0
2, 172801, Note_on_c, 0, 77, 88
2, 172921, Note_on_c, 0, 77, 0
2, 173521, Note_on_c, 0, 88, 88
2, 173761, Note_on_c, 0, 88, 0
2, 173761, Note_on_c, 0, 85, 88
2, 174001, Note_on_c, 0, 85, 0
2, 174001, Note_on_c, 0, 81, 88
2, 174241, Note_on_c, 0, 81, 0
2, 174241, Note_on_c, 0, 79, 88
2, 174481, Note_on_c, 0, 79, 0
2, 174481, Note_on_c, 0, 76, 88
2, 174721, Note_on_c, 0, 76, 0
2, 174721, Note_on_c, 0, 74, 88
2, 174841, Note_on_c, 0, 74, 0
2, 174961, Control_c, 0, 11, 47
2, 174991, Control_c, 0, 11, 48
2, 175022, Control_c, 0, 11, 49
2, 175052, Control_c, 0, 11, 50
2, 175083, Control_c, 0, 11, 51
2, 175113, Control_c, 0, 11, 52
2, 175144, Control_c, 0, 11, 53
2, 175174, Control_c, 0, 11, 54
2, 175201, Note_on_c, 0, 89, 88
2, 175205, Control_c, 0, 11, 55
2, 175235, Control_c, 0, 11, 56
2, 175266, Control_c, 0, 11, 57
2, 175297, Control_c, 0, 11, 58
2, 175327, Control_c, 0, 11, 59
2, 175358, Control_c, 0, 11, 60
2, 175388, Control_c, 0, 11, 61
2, 175419, Control_c, 0, 11, 62
2, 175441, Note_on_c, 0, 89, 0
2, 175441, Note_on_c, 0, 86, 88
2, 175449, Control_c, 0, 11, 62
2, 175480, Control_c, 0, 11, 63
2, 175510, Control_c, 0, 11, 64
2, 175541, Control_c, 0, 11, 64
2, 175571, Control_c, 0, 11, 65
2, 175602, Control_c, 0, 11, 66
2, 175633, Control_c, 0, 11, 66
2, 175663, Control_c, 0, 11, 67
2, 175681, Note_on_c, 0, 86, 0
2, 175681, Note_on_c, 0, 83, 88
2, 175694, Control_c, 0, 11, 68
2, 175724, Control_c, 0, 11, 68
2, 175755, Control_c, 0, 11, 69
2, 175785, Control_c, 0, 11, 70
2, 175816, Control_c, 0, 11, 71
2, 175846, Control_c, 0, 11, 71
2, 175877, Control_c, 0, 11, 72
2, 175907, Control_c, 0, 11, 73
2, 175921, Note_on_c, 0, 83, 0
2, 175921, Note_on_c, 0, 79, 88
2, 175938, Control_c, 0, 11, 73
2, 175969, Control_c, 0, 11, 74
2, 175999, Control_c, 0, 11, 75
2, 176030, Control_c, 0, 11, 75
2, 176060, Control_c, 0, 11, 76
2, 176091, Control_c, 0, 11, 77
2, 176121, Control_c, 0, 11, 77
2, 176152, Control_c, 0, 11, 78
2, 176161, Note_on_c, 0, 79, 0
2, 176161, Note_on_c, 0, 77, 88
2, 176182, Control_c, 0, 11, 79
2, 176213, Control_c, 0, 11, 80
2, 176243, Control_c, 0, 11, 80
2, 176274, Control_c, 0, 11, 81
2, 176305, Control_c, 0, 11, 82
2, 176335, Control_c, 0, 11, 82
2, 176366, Control_c, 0, 11, 83
2, 176396, Control_c, 0, 11, 84
2, 176401, Note_on_c, 0, 77, 0
2, 176401, Note_on_c, 0, 74, 88
2, 176427, Control_c, 0, 11, 84
2, 176457, Control_c, 0, 11, 85
2, 176488, Control_c, 0, 11, 86
2, 176518, Control_c, 0, 11, 86
2, 176549, Control_c, 0, 11, 87
2, 176579, Control_c, 0, 11, 88
2, 176610, Control_c, 0, 11, 89
2, 176641, Note_on_c, 0, 74, 0
2, 176641, Note_on_c, 0, 72, 98
2, 176641, Control_c, 0, 11, 89
2, 176641, Note_on_c, 0, 76, 98
2, 176701, Note_on_c, 0, 76, 0
2, 176701, Note_on_c, 0, 72, 0
2, 176881, Note_on_c, 0, 77, 98
2, 176881, Note_on_c, 0, 81, 98
2, 176941, Note_on_c, 0, 81, 0
2, 176941, Note_on_c, 0, 77, 0
2, 177121, Note_on_c, 0, 76, 98
2, 177121, Note_on_c, 0, 79, 98
2, 177181, Note_on_c, 0, 79, 0
2, 177181, Note_on_c, 0, 76, 0
2, 177361, Note_on_c, 0, 77, 98
2, 177361, Note_on_c, 0, 83, 98
2, 177421, Note_on_c, 0, 83, 0
2, 177421, Note_on_c, 0, 77, 0
2, 177601, Note_on_c, 0, 84, 98
2, 177601, Note_on_c, 0, 76, 98
2, 177661, Note_on_c, 0, 76, 0
2, 177661, Note_on_c, 0, 84, 0
2, 177841, Note_on_c, 0, 77, 98
2, 177841, Note_on_c, 0, 81, 98
2, 177901, Note_on_c, 0, 81, 0
2, 177901, Note_on_c, 0, 77, 0
2, 178081, Note_on_c, 0, 76, 98
2, 178081, Note_on_c, 0, 79, 98
2, 178141, Note_on_c, 0, 79, 0
2, 178141, Note_on_c, 0, 76, 0
2, 178321, Note_on_c, 0, 77, 98
2, 178321, Note_on_c, 0, 83, 98
2, 178381, Note_on_c, 0, 83, 0
2, 178381, Note_on_c, 0, 77, 0
2, 178561, Note_on_c, 0, 84, 98
2, 178561, Note_on_c, 0, 76, 98
2, 178621, Note_on_c, 0, 76, 0
2, 178621, Note_on_c, 0, 84, 0
2, 178801, Note_on_c, 0, 89, 98
2, 178801, Note_on_c, 0, 81, 98
2, 178861, Note_on_c, 0, 81, 0
2, 178861, Note_on_c, 0, 89, 0
2, 179041, Note_on_c, 0, 88, 98
2, 179041, Note_on_c, 0, 84, 98
2, 179101, Note_on_c, 0, 84, 0
2, 179101, Note_on_c, 0, 88, 0
2, 179281, Note_on_c, 0, 77, 98
2, 179281, Note_on_c, 0, 83, 98
2, 179341, Note_on_c, 0, 83, 0
2, 179341, Note_on_c, 0, 77, 0
2, 179521, Note_on_c, 0, 84, 88
2, 179521, Note_on_c, 0, 76, 88
2, 179521, Control_c, 0, 11, 89
2, 181081, Note_on_c, 0, 76, 0
2, 181081, Note_on_c, 0, 84, 0
2, 181081, Note_on_c, 0, 76, 98
2, 181081, Note_on_c, 0, 72, 98
2, 181141, Note_on_c, 0, 72, 0
2, 181141, Note_on_c, 0, 76, 0
2, 181201, Note_on_c, 0, 76, 98
2, 181201, Note_on_c, 0, 79, 98
2, 181261, Note_on_c, 0, 79, 0
2, 181261, Note_on_c, 0, 76, 0
2, 181321, Note_on_c, 0, 84, 98
2, 181321, Note_on_c, 0, 79, 98
2, 181381, Note_on_c, 0, 79, 0
2, 181381, Note_on_c, 0, 84, 0
2, 181441, Note_on_c, 0, 88, 88
2, 181441, Note_on_c, 0, 84, 88
2, 181441, Control_c, 0, 7, 122
2, 181452, Control_c, 0, 7, 121
2, 181464, Control_c, 0, 7, 120
2, 181476, Control_c, 0, 7, 119
2, 181488, Control_c, 0, 7, 118
2, 181500, Control_c, 0, 7, 117
2, 181512, Control_c, 0, 7, 116
2, 181524, Control_c, 0, 7, 115
2, 181536, Control_c, 0, 7, 114
2, 181548, Control_c, 0, 7, 113
2, 181560, Control_c, 0, 7, 112
2, 181572, Control_c, 0, 7, 111
2, 181584, Control_c, 0, 7, 110
2, 181596, Control_c, 0, 7, 109
2, 181608, Control_c, 0, 7, 108
2, 181620, Control_c, 0, 7, 107
2, 181632, Control_c, 0, 7, 106
2, 181644, Control_c, 0, 7, 105
2, 181656, Control_c, 0, 7, 104
2, 181668, Control_c, 0, 7, 103
2, 181680, Control_c, 0, 7, 102
2, 182521, Control_c, 0, 11, 79
2, 182539, Control_c, 0, 11, 80
2, 182557, Control_c, 0, 11, 80
2, 182575, Control_c, 0, 11, 81
2, 182593, Control_c, 0, 11, 82
2, 182611, Control_c, 0, 11, 82
2, 182629, Control_c, 0, 11, 83
2, 182647, Control_c, 0, 11, 84
2, 182665, Control_c, 0, 11, 84
2, 182683, Control_c, 0, 11, 85
2, 182701, Control_c, 0, 11, 86
2, 182719, Control_c, 0, 11, 86
2, 182737, Control_c, 0, 11, 87
2, 182755, Control_c, 0, 11, 88
2, 182773, Control_c, 0, 11, 89
2, 182791, Control_c, 0, 11, 89
2, 182809, Control_c, 0, 11, 90
2, 182827, Control_c, 0, 11, 91
2, 182845, Control_c, 0, 11, 91
2, 182863, Control_c, 0, 11, 92
2, 182881, Control_c, 0, 11, 93
2, 183001, Note_on_c, 0, 84, 0
2, 183001, Note_on_c, 0, 88, 0
2, 183001, Note_on_c, 0, 76, 98
2, 183001, Note_on_c, 0, 79, 98
2, 183061, Note_on_c, 0, 79, 0
2, 183061, Note_on_c, 0, 76, 0
2, 183121, Note_on_c, 0, 79, 98
2, 183121, Note_on_c, 0, 84, 98
2, 183181, Note_on_c, 0, 84, 0
2, 183181, Note_on_c, 0, 79, 0
2, 183241, Note_on_c, 0, 84, 98
2, 183241, Note_on_c, 0, 88, 98
2, 183301, Note_on_c, 0, 88, 0
2, 183301, Note_on_c, 0, 84, 0
2, 183361, Control_c, 0, 7, 122
2, 183361, Note_on_c, 0, 88, 88
2, 183361, Note_on_c, 0, 91, 88
2, 183372, Control_c, 0, 7, 121
2, 183384, Control_c, 0, 7, 120
2, 183396, Control_c, 0, 7, 119
2, 183408, Control_c, 0, 7, 118
2, 183420, Control_c, 0, 7, 117
2, 183432, Control_c, 0, 7, 116
2, 183444, Control_c, 0, 7, 115
2, 183456, Control_c, 0, 7, 114
2, 183468, Control_c, 0, 7, 113
2, 183480, Control_c, 0, 7, 112
2, 183492, Control_c, 0, 7, 111
2, 183504, Control_c, 0, 7, 110
2, 183516, Control_c, 0, 7, 109
2, 183528, Control_c, 0, 7, 108
2, 183540, Control_c, 0, 7, 107
2, 183552, Control_c, 0, 7, 106
2, 183564, Control_c, 0, 7, 105
2, 183576, Control_c, 0, 7, 104
2, 183588, Control_c, 0, 7, 103
2, 183600, Control_c, 0, 7, 102
2, 184441, Control_c, 0, 11, 79
2, 184459, Control_c, 0, 11, 80
2, 184477, Control_c, 0, 11, 80
2, 184495, Control_c, 0, 11, 81
2, 184513, Control_c, 0, 11, 82
2, 184531, Control_c, 0, 11, 82
2, 184549, Control_c, 0, 11, 83
2, 184567, Control_c, 0, 11, 84
2, 184585, Control_c, 0, 11, 84
2, 184603, Control_c, 0, 11, 85
2, 184621, Control_c, 0, 11, 86
2, 184639, Control_c, 0, 11, 86
2, 184657, Control_c, 0, 11, 87
2, 184675, Control_c, 0, 11, 88
2, 184693, Control_c, 0, 11, 89
2, 184711, Control_c, 0, 11, 89
2, 184729, Control_c, 0, 11, 90
2, 184747, Control_c, 0, 11, 91
2, 184765, Control_c, 0, 11, 91
2, 184783, Control_c, 0, 11, 92
2, 184801, Control_c, 0, 11, 93
2, 184921, Note_on_c, 0, 91, 0
2, 184921, Note_on_c, 0, 88, 0
2, 184921, Note_on_c, 0, 79, 98
2, 184981, Note_on_c, 0, 79, 0
2, 185041, Note_on_c, 0, 84, 98
2, 185101, Note_on_c, 0, 84, 0
2, 185161, Note_on_c, 0, 88, 98
2, 185221, Note_on_c, 0, 88, 0
2, 185281, Note_on_c, 0, 91, 98
2, 185341, Note_on_c, 0, 91, 0
2, 185401, Note_on_c, 0, 88, 98
2, 185461, Note_on_c, 0, 88, 0
2, 185521, Note_on_c, 0, 84, 98
2, 185581, Note_on_c, 0, 84, 0
2, 185641, Note_on_c, 0, 79, 98
2, 185701, Note_on_c, 0, 79, 0
2, 185761, Note_on_c, 0, 88, 98
2, 185821, Note_on_c, 0, 88, 0
2, 185881, Note_on_c, 0, 84, 98
2, 185941, Note_on_c, 0, 84, 0
2, 186001, Note_on_c, 0, 79, 98
2, 186061, Note_on_c, 0, 79, 0
2, 186121, Note_on_c, 0, 76, 98
2, 186181, Note_on_c, 0, 76, 0
2, 186241, Note_on_c, 0, 84, 98
2, 186301, Note_on_c, 0, 84, 0
2, 186361, Note_on_c, 0, 79, 98
2, 186421, Note_on_c, 0, 79, 0
2, 186481, Note_on_c, 0, 88, 98
2, 186541, Note_on_c, 0, 88, 0
2, 186601, Note_on_c, 0, 84, 98
2, 186661, Note_on_c, 0, 84, 0
2, 186721, Note_on_c, 0, 79, 98
2, 186781, Note_on_c, 0, 79, 0
2, 186841, Note_on_c, 0, 84, 98
2, 186901, Note_on_c, 0, 84, 0
2, 186961, Note_on_c, 0, 79, 98
2, 187021, Note_on_c, 0, 79, 0
2, 187081, Note_on_c, 0, 76, 98
2, 187141, Note_on_c, 0, 76, 0
2, 187201, Note_on_c, 0, 72, 113
2, 187321, Note_on_c, 0, 72, 0
2, 187681, Note_on_c, 0, 84, 98
2, 187801, Note_on_c, 0, 84, 0
2, 188161, Note_on_c, 0, 84, 98
2, 188281, Note_on_c, 0, 84, 0
2, 188641, Note_on_c, 0, 84, 98
2, 188761, Note_on_c, 0, 84, 0
2, 188881, Note_on_c, 0, 84, 98
2, 189001, Note_on_c, 0, 84, 0
2, 189121, Note_on_c, 0, 84, 98
2, 189241, Note_on_c, 0, 84, 0
2, 189601, Control_c, 0, 121, 0
2, 189601, End_track
3, 0, Start_track
3, 0, MIDI_port, 0
3, 0, Title_t, "2 Oboi"
3, 0, Program_c, 1, 68
3, 0, Control_c, 1, 10, 72
3, 2, Control_c, 1, 121, 0
3, 7, Program_c, 1, 68
3, 12, Pitch_bend_c, 1, 8192
3, 17, Control_c, 1, 11, 72
3, 22, Control_c, 1, 7, 127
3, 27, Control_c, 1, 91, 54
3, 32, Control_c, 1, 93, 0
3, 37, Control_c, 1, 10, 72
3, 482, Note_on_c, 1, 76, 70
3, 482, Note_on_c, 1, 70, 70
3, 482, Control_c, 1, 11, 57
3, 486, Control_c, 1, 11, 60
3, 496, Control_c, 1, 11, 63
3, 506, Control_c, 1, 11, 66
3, 521, Control_c, 1, 11, 68
3, 536, Control_c, 1, 11, 66
3, 552, Control_c, 1, 11, 64
3, 568, Control_c, 1, 11, 62
3, 583, Control_c, 1, 11, 61
3, 595, Control_c, 1, 11, 58
3, 607, Control_c, 1, 11, 55
3, 618, Control_c, 1, 11, 52
3, 630, Control_c, 1, 11, 49
3, 712, Note_on_c, 1, 70, 0
3, 712, Note_on_c, 1, 76, 0
3, 722, Note_on_c, 1, 69, 55
3, 722, Note_on_c, 1, 77, 55
3, 762, Control_c, 1, 11, 47
3, 765, Control_c, 1, 11, 44
3, 768, Control_c, 1, 11, 41
3, 771, Control_c, 1, 11, 38
3, 774, Control_c, 1, 11, 35
3, 777, Control_c, 1, 11, 32
3, 780, Control_c, 1, 11, 29
3, 782, Note_on_c, 1, 77, 0
3, 782, Note_on_c, 1, 69, 0
3, 962, Note_on_c, 1, 71, 70
3, 962, Note_on_c, 1, 77, 70
3, 962, Control_c, 1, 11, 57
3, 966, Control_c, 1, 11, 60
3, 976, Control_c, 1, 11, 63
3, 986, Control_c, 1, 11, 66
3, 1001, Control_c, 1, 11, 68
3, 1016, Control_c, 1, 11, 66
3, 1032, Control_c, 1, 11, 64
3, 1048, Control_c, 1, 11, 62
3, 1063, Control_c, 1, 11, 61
3, 1075, Control_c, 1, 11, 58
3, 1087, Control_c, 1, 11, 55
3, 1098, Control_c, 1, 11, 52
3, 1110, Control_c, 1, 11, 49
3, 1192, Note_on_c, 1, 77, 0
3, 1192, Note_on_c, 1, 71, 0
3, 1202, Note_on_c, 1, 76, 55
3, 1202, Note_on_c, 1, 72, 55
3, 1242, Control_c, 1, 11, 47
3, 1245, Control_c, 1, 11, 44
3, 1248, Control_c, 1, 11, 41
3, 1251, Control_c, 1, 11, 38
3, 1254, Control_c, 1, 11, 35
3, 1257, Control_c, 1, 11, 32
3, 1260, Control_c, 1, 11, 29
3, 1262, Note_on_c, 1, 72, 0
3, 1262, Note_on_c, 1, 76, 0
3, 1442, Control_c, 1, 11, 47
3, 1442, Note_on_c, 1, 72, 74
3, 1442, Note_on_c, 1, 78, 74
3, 1465, Control_c, 1, 11, 49
3, 1489, Control_c, 1, 11, 51
3, 1513, Control_c, 1, 11, 53
3, 1537, Control_c, 1, 11, 55
3, 1561, Control_c, 1, 11, 57
3, 1585, Control_c, 1, 11, 59
3, 1609, Control_c, 1, 11, 61
3, 1633, Control_c, 1, 11, 62
3, 1657, Control_c, 1, 11, 62
3, 1672, Note_on_c, 1, 78, 0
3, 1672, Note_on_c, 1, 72, 0
3, 1681, Control_c, 1, 11, 64
3, 1682, Note_on_c, 1, 72, 74
3, 1682, Note_on_c, 1, 78, 74
3, 1705, Control_c, 1, 11, 64
3, 1729, Control_c, 1, 11, 65
3, 1753, Control_c, 1, 11, 66
3, 1777, Control_c, 1, 11, 67
3, 1781, Note_on_c, 1, 78, 0
3, 1781, Note_on_c, 1, 72, 0
3, 1801, Control_c, 1, 11, 68
3, 1802, Note_on_c, 1, 72, 74
3, 1802, Note_on_c, 1, 78, 74
3, 1825, Control_c, 1, 11, 68
3, 1849, Control_c, 1, 11, 69
3, 1873, Control_c, 1, 11, 70
3, 1897, Control_c, 1, 11, 71
3, 1901, Note_on_c, 1, 78, 0
3, 1901, Note_on_c, 1, 72, 0
3, 1921, Control_c, 1, 11, 72
3, 1922, Note_on_c, 1, 79, 98
3, 1922, Note_on_c, 1, 71, 98
3, 2042, Note_on_c, 1, 71, 0
3, 2042, Note_on_c, 1, 79, 0
3, 2402, Control_c, 1, 11, 32
3, 2402, Note_on_c, 1, 79, 98
3, 2406, Control_c, 1, 11, 35
3, 2410, Control_c, 1, 11, 38
3, 2414, Control_c, 1, 11, 41
3, 2418, Control_c, 1, 11, 44
3, 2422, Control_c, 1, 11, 47
3, 3032, Note_on_c, 1, 79, 0
3, 3032, Note_on_c, 1, 78, 98
3, 3062, Note_on_c, 1, 78, 0
3, 3062, Note_on_c, 1, 79, 98
3, 3092, Note_on_c, 1, 79, 0
3, 3092, Note_on_c, 1, 78, 98
3, 3117, Note_on_c, 1, 78, 0
3, 3122, Note_on_c, 1, 79, 98
3, 3172, Note_on_c, 1, 79, 0
3, 3182, Note_on_c, 1, 79, 98
3, 3232, Note_on_c, 1, 79, 0
3, 3242, Note_on_c, 1, 79, 98
3, 3292, Note_on_c, 1, 79, 0
3, 3302, Note_on_c, 1, 79, 98
3, 3352, Note_on_c, 1, 79, 0
3, 3362, Control_c, 1, 11, 47
3, 3362, Note_on_c, 1, 79, 98
3, 3386, Control_c, 1, 11, 49
3, 3410, Control_c, 1, 11, 51
3, 3434, Control_c, 1, 11, 53
3, 3458, Control_c, 1, 11, 55
3, 3482, Control_c, 1, 11, 57
3, 3506, Control_c, 1, 11, 59
3, 3530, Control_c, 1, 11, 61
3, 3554, Control_c, 1, 11, 62
3, 3578, Control_c, 1, 11, 62
3, 3602, Control_c, 1, 11, 64
3, 3626, Control_c, 1, 11, 64
3, 3650, Control_c, 1, 11, 65
3, 3674, Control_c, 1, 11, 66
3, 3698, Control_c, 1, 11, 67
3, 3722, Note_on_c, 1, 79, 0
3, 3722, Control_c, 1, 11, 68
3, 3722, Note_on_c, 1, 77, 98
3, 3722, Note_on_c, 1, 74, 98
3, 3746, Control_c, 1, 11, 68
3, 3752, Note_on_c, 1, 74, 0
3, 3752, Note_on_c, 1, 77, 0
3, 3752, Note_on_c, 1, 76, 98
3, 3752, Note_on_c, 1, 79, 98
3, 3770, Control_c, 1, 11, 69
3, 3782, Note_on_c, 1, 79, 0
3, 3782, Note_on_c, 1, 76, 0
3, 3782, Note_on_c, 1, 77, 98
3, 3782, Note_on_c, 1, 81, 98
3, 3794, Control_c, 1, 11, 70
3, 3812, Note_on_c, 1, 81, 0
3, 3812, Note_on_c, 1, 77, 0
3, 3812, Note_on_c, 1, 77, 98
3, 3812, Note_on_c, 1, 74, 98
3, 3818, Control_c, 1, 11, 71
3, 3837, Note_on_c, 1, 74, 0
3, 3837, Note_on_c, 1, 77, 0
3, 3842, Control_c, 1, 11, 72
3, 3842, Note_on_c, 1, 72, 98
3, 3842, Note_on_c, 1, 76, 98
3, 3854, Control_c, 1, 11, 75
3, 3869, Control_c, 1, 11, 78
3, 3949, Note_on_c, 1, 76, 0
3, 3949, Note_on_c, 1, 72, 0
3, 3962, Note_on_c, 1, 76, 93
3, 3962, Note_on_c, 1, 79, 93
3, 4062, Control_c, 1, 11, 72
3, 4065, Control_c, 1, 11, 69
3, 4069, Control_c, 1, 11, 66
3, 4074, Control_c, 1, 11, 62
3, 4076, Note_on_c, 1, 79, 0
3, 4076, Note_on_c, 1, 76, 0
3, 4202, Note_on_c, 1, 74, 93
3, 4202, Note_on_c, 1, 77, 93
3, 4202, Control_c, 1, 11, 72
3, 4302, Control_c, 1, 11, 72
3, 4305, Control_c, 1, 11, 69
3, 4309, Control_c, 1, 11, 66
3, 4314, Control_c, 1, 11, 62
3, 4316, Note_on_c, 1, 77, 0
3, 4316, Note_on_c, 1, 74, 0
3, 4322, Note_on_c, 1, 76, 98
3, 4322, Note_on_c, 1, 72, 98
3, 4322, Control_c, 1, 11, 32
3, 4328, Control_c, 1, 11, 35
3, 4334, Control_c, 1, 11, 38
3, 4340, Control_c, 1, 11, 41
3, 4346, Control_c, 1, 11, 44
3, 4352, Control_c, 1, 11, 47
3, 4502, Note_on_c, 1, 72, 0
3, 4502, Note_on_c, 1, 76, 0
3, 4502, Note_on_c, 1, 76, 98
3, 4502, Note_on_c, 1, 79, 98
3, 4557, Note_on_c, 1, 79, 0
3, 4557, Note_on_c, 1, 76, 0
3, 4562, Control_c, 1, 11, 47
3, 4562, Note_on_c, 1, 79, 98
3, 4562, Note_on_c, 1, 76, 98
3, 4580, Control_c, 1, 11, 50
3, 4598, Control_c, 1, 11, 53
3, 4616, Control_c, 1, 11, 56
3, 4622, Note_on_c, 1, 76, 0
3, 4622, Note_on_c, 1, 79, 0
3, 4622, Note_on_c, 1, 74, 98
3, 4622, Note_on_c, 1, 77, 98
3, 4634, Control_c, 1, 11, 59
3, 4652, Control_c, 1, 11, 62
3, 4670, Control_c, 1, 11, 62
3, 4682, Note_on_c, 1, 77, 0
3, 4682, Note_on_c, 1, 74, 0
3, 4682, Note_on_c, 1, 76, 98
3, 4682, Note_on_c, 1, 72, 98
3, 4688, Control_c, 1, 11, 64
3, 4706, Control_c, 1, 11, 65
3, 4724, Control_c, 1, 11, 66
3, 4742, Note_on_c, 1, 72, 0
3, 4742, Note_on_c, 1, 76, 0
3, 4742, Control_c, 1, 11, 68
3, 4742, Note_on_c, 1, 71, 98
3, 4742, Note_on_c, 1, 74, 98
3, 4760, Control_c, 1, 11, 69
3, 4778, Control_c, 1, 11, 70
3, 4796, Control_c, 1, 11, 71
3, 4797, Note_on_c, 1, 74, 0
3, 4797, Note_on_c, 1, 71, 0
3, 4802, Note_on_c, 1, 72, 98
3, 4811, Control_c, 1, 11, 74
3, 4823, Control_c, 1, 11, 77
3, 4909, Note_on_c, 1, 72, 0
3, 4922, Note_on_c, 1, 76, 93
3, 4922, Note_on_c, 1, 72, 93
3, 5017, Control_c, 1, 11, 72
3, 5020, Control_c, 1, 11, 69
3, 5024, Control_c, 1, 11, 66
3, 5029, Control_c, 1, 11, 62
3, 5036, Note_on_c, 1, 72, 0
3, 5036, Note_on_c, 1, 76, 0
3, 5162, Control_c, 1, 11, 72
3, 5162, Note_on_c, 1, 77, 93
3, 5162, Note_on_c, 1, 74, 93
3, 5257, Control_c, 1, 11, 72
3, 5260, Control_c, 1, 11, 69
3, 5264, Control_c, 1, 11, 66
3, 5269, Control_c, 1, 11, 62
3, 5276, Note_on_c, 1, 74, 0
3, 5276, Note_on_c, 1, 77, 0
3, 5282, Control_c, 1, 11, 72
3, 5282, Note_on_c, 1, 76, 98
3, 5282, Note_on_c, 1, 72, 98
3, 5342, Control_c, 1, 11, 72
3, 5360, Control_c, 1, 11, 70
3, 5378, Control_c, 1, 11, 68
3, 5396, Control_c, 1, 11, 67
3, 5414, Control_c, 1, 11, 65
3, 5432, Control_c, 1, 11, 64
3, 5450, Control_c, 1, 11, 62
3, 5468, Control_c, 1, 11, 59
3, 5481, Control_c, 1, 11, 56
3, 5495, Control_c, 1, 11, 53
3, 5508, Control_c, 1, 11, 50
3, 5517, Note_on_c, 1, 72, 0
3, 5517, Note_on_c, 1, 76, 0
3, 5522, Control_c, 1, 11, 47
3, 5522, Note_on_c, 1, 76, 83
3, 5522, Note_on_c, 1, 72, 83
3, 5545, Control_c, 1, 11, 46
3, 5569, Control_c, 1, 11, 45
3, 5593, Control_c, 1, 11, 44
3, 5617, Control_c, 1, 11, 43
3, 5632, Note_on_c, 1, 72, 0
3, 5632, Note_on_c, 1, 76, 0
3, 5641, Control_c, 1, 11, 42
3, 5642, Note_on_c, 1, 76, 98
3, 5642, Note_on_c, 1, 72, 98
3, 5665, Control_c, 1, 11, 41
3, 5689, Control_c, 1, 11, 40
3, 5713, Control_c, 1, 11, 39
3, 5737, Control_c, 1, 11, 38
3, 5752, Note_on_c, 1, 72, 0
3, 5752, Note_on_c, 1, 76, 0
3, 5761, Control_c, 1, 11, 37
3, 5762, Note_on_c, 1, 77, 98
3, 5762, Note_on_c, 1, 71, 98
3, 5780, Control_c, 1, 11, 40
3, 5798, Control_c, 1, 11, 43
3, 5816, Control_c, 1, 11, 46
3, 6002, Note_on_c, 1, 71, 0
3, 6002, Note_on_c, 1, 77, 0
3, 6002, Note_on_c, 1, 71, 98
3, 6002, Note_on_c, 1, 65, 98
3, 6237, Note_on_c, 1, 65, 0
3, 6237, Note_on_c, 1, 71, 0
3, 6242, Note_on_c, 1, 64, 88
3, 6242, Note_on_c, 1, 72, 88
3, 6302, Control_c, 1, 11, 47
3, 6309, Control_c, 1, 11, 44
3, 6316, Control_c, 1, 11, 41
3, 6323, Control_c, 1, 11, 38
3, 6330, Control_c, 1, 11, 35
3, 6337, Control_c, 1, 11, 32
3, 6344, Control_c, 1, 11, 29
3, 6351, Control_c, 1, 11, 26
3, 6358, Control_c, 1, 11, 23
3, 6362, Note_on_c, 1, 72, 0
3, 6362, Note_on_c, 1, 64, 0
3, 8162, Note_on_c, 1, 76, 78
3, 8162, Control_c, 1, 11, 32
3, 8173, Control_c, 1, 11, 35
3, 8184, Control_c, 1, 11, 38
3, 8195, Control_c, 1, 11, 41
3, 8207, Control_c, 1, 11, 44
3, 8218, Control_c, 1, 11, 47
3, 8258, Control_c, 1, 11, 50
3, 8290, Control_c, 1, 11, 51
3, 8322, Control_c, 1, 11, 52
3, 8354, Control_c, 1, 11, 53
3, 8386, Control_c, 1, 11, 54
3, 8418, Control_c, 1, 11, 55
3, 8450, Control_c, 1, 11, 56
3, 8482, Control_c, 1, 11, 57
3, 8514, Control_c, 1, 11, 58
3, 8546, Control_c, 1, 11, 59
3, 8578, Control_c, 1, 11, 60
3, 8610, Control_c, 1, 11, 61
3, 8642, Note_on_c, 1, 76, 0
3, 8642, Note_on_c, 1, 76, 78
3, 8642, Control_c, 1, 11, 62
3, 8642, Note_on_c, 1, 79, 78
3, 8674, Control_c, 1, 11, 62
3, 8706, Control_c, 1, 11, 62
3, 8738, Control_c, 1, 11, 62
3, 8770, Control_c, 1, 11, 64
3, 8802, Control_c, 1, 11, 64
3, 8834, Control_c, 1, 11, 64
3, 8866, Control_c, 1, 11, 66
3, 8898, Control_c, 1, 11, 66
3, 8930, Control_c, 1, 11, 67
3, 8962, Control_c, 1, 11, 68
3, 8994, Control_c, 1, 11, 68
3, 9002, Note_on_c, 1, 76, 0
3, 9002, Note_on_c, 1, 69, 78
3, 9026, Control_c, 1, 11, 69
3, 9058, Control_c, 1, 11, 71
3, 9082, Control_c, 1, 11, 71
3, 9092, Control_c, 1, 11, 68
3, 9106, Control_c, 1, 11, 64
3, 9122, Note_on_c, 1, 69, 0
3, 9122, Note_on_c, 1, 79, 0
3, 9122, Control_c, 1, 11, 62
3, 9122, Note_on_c, 1, 69, 62
3, 9122, Note_on_c, 1, 77, 62
3, 9242, Note_on_c, 1, 77, 0
3, 9242, Note_on_c, 1, 69, 0
3, 11042, Note_on_c, 1, 81, 78
3, 11042, Note_on_c, 1, 77, 78
3, 11042, Control_c, 1, 11, 32
3, 11061, Control_c, 1, 11, 35
3, 11080, Control_c, 1, 11, 38
3, 11099, Control_c, 1, 11, 41
3, 11126, Control_c, 1, 11, 43
3, 11147, Control_c, 1, 11, 44
3, 11168, Control_c, 1, 11, 45
3, 11189, Control_c, 1, 11, 46
3, 11210, Control_c, 1, 11, 47
3, 11230, Control_c, 1, 11, 48
3, 11251, Control_c, 1, 11, 49
3, 11272, Control_c, 1, 11, 50
3, 11293, Control_c, 1, 11, 51
3, 11314, Control_c, 1, 11, 52
3, 11334, Control_c, 1, 11, 53
3, 11355, Control_c, 1, 11, 54
3, 11376, Control_c, 1, 11, 55
3, 11397, Control_c, 1, 11, 56
3, 11418, Control_c, 1, 11, 57
3, 11438, Control_c, 1, 11, 58
3, 11459, Control_c, 1, 11, 59
3, 11480, Control_c, 1, 11, 60
3, 11501, Control_c, 1, 11, 61
3, 11522, Note_on_c, 1, 81, 0
3, 11522, Note_on_c, 1, 80, 78
3, 11522, Control_c, 1, 11, 62
3, 11554, Control_c, 1, 11, 62
3, 11586, Control_c, 1, 11, 62
3, 11618, Control_c, 1, 11, 62
3, 11650, Control_c, 1, 11, 64
3, 11682, Control_c, 1, 11, 64
3, 11714, Control_c, 1, 11, 64
3, 11746, Control_c, 1, 11, 66
3, 11778, Control_c, 1, 11, 66
3, 11810, Control_c, 1, 11, 67
3, 11842, Control_c, 1, 11, 68
3, 11874, Control_c, 1, 11, 68
3, 11906, Control_c, 1, 11, 69
3, 11938, Control_c, 1, 11, 71
3, 11970, Control_c, 1, 11, 71
3, 12002, Note_on_c, 1, 80, 0
3, 12002, Note_on_c, 1, 77, 0
3, 12002, Control_c, 1, 11, 78
3, 12002, Note_on_c, 1, 77, 98
3, 12002, Note_on_c, 1, 79, 98
3, 12020, Control_c, 1, 11, 76
3, 12038, Control_c, 1, 11, 73
3, 12056, Control_c, 1, 11, 71
3, 12074, Control_c, 1, 11, 71
3, 12086, Control_c, 1, 11, 68
3, 12104, Control_c, 1, 11, 66
3, 12122, Control_c, 1, 11, 64
3, 12143, Control_c, 1, 11, 62
3, 12165, Control_c, 1, 11, 61
3, 12186, Control_c, 1, 11, 58
3, 12208, Control_c, 1, 11, 55
3, 12229, Control_c, 1, 11, 52
3, 12251, Control_c, 1, 11, 49
3, 12272, Control_c, 1, 11, 46
3, 12294, Control_c, 1, 11, 43
3, 12315, Control_c, 1, 11, 40
3, 12337, Note_on_c, 1, 79, 0
3, 12337, Note_on_c, 1, 77, 0
3, 12337, Control_c, 1, 11, 37
3, 12962, Control_c, 1, 11, 85
3, 12962, Note_on_c, 1, 79, 98
3, 12962, Note_on_c, 1, 77, 98
3, 12980, Control_c, 1, 11, 82
3, 12998, Control_c, 1, 11, 80
3, 13016, Control_c, 1, 11, 80
3, 13028, Control_c, 1, 11, 77
3, 13046, Control_c, 1, 11, 75
3, 13064, Control_c, 1, 11, 73
3, 13082, Control_c, 1, 11, 71
3, 13098, Control_c, 1, 11, 69
3, 13114, Control_c, 1, 11, 67
3, 13130, Control_c, 1, 11, 64
3, 13146, Control_c, 1, 11, 62
3, 13162, Control_c, 1, 11, 62
3, 13178, Control_c, 1, 11, 59
3, 13194, Control_c, 1, 11, 56
3, 13211, Control_c, 1, 11, 53
3, 13227, Control_c, 1, 11, 50
3, 13243, Control_c, 1, 11, 47
3, 13259, Control_c, 1, 11, 44
3, 13275, Control_c, 1, 11, 41
3, 13291, Control_c, 1, 11, 38
3, 13297, Note_on_c, 1, 77, 0
3, 13297, Note_on_c, 1, 79, 0
3, 13922, Note_on_c, 1, 83, 88
3, 13922, Control_c, 1, 11, 85
3, 13922, Note_on_c, 1, 79, 88
3, 13940, Control_c, 1, 11, 82
3, 13958, Control_c, 1, 11, 80
3, 13976, Control_c, 1, 11, 80
3, 13988, Control_c, 1, 11, 77
3, 14006, Control_c, 1, 11, 75
3, 14024, Control_c, 1, 11, 73
3, 14042, Control_c, 1, 11, 71
3, 14402, Control_c, 1, 11, 71
3, 14421, Control_c, 1, 11, 71
3, 14440, Control_c, 1, 11, 73
3, 14459, Control_c, 1, 11, 73
3, 14478, Control_c, 1, 11, 73
3, 14497, Control_c, 1, 11, 75
3, 14512, Note_on_c, 1, 79, 0
3, 14512, Note_on_c, 1, 83, 0
3, 14516, Control_c, 1, 11, 75
3, 14522, Note_on_c, 1, 83, 79
3, 14522, Note_on_c, 1, 79, 79
3, 14536, Control_c, 1, 11, 76
3, 14555, Control_c, 1, 11, 77
3, 14574, Control_c, 1, 11, 77
3, 14593, Control_c, 1, 11, 78
3, 14612, Control_c, 1, 11, 80
3, 14631, Control_c, 1, 11, 80
3, 14632, Note_on_c, 1, 79, 0
3, 14632, Note_on_c, 1, 83, 0
3, 14642, Note_on_c, 1, 83, 79
3, 14642, Note_on_c, 1, 79, 79
3, 14651, Control_c, 1, 11, 80
3, 14670, Control_c, 1, 11, 80
3, 14689, Control_c, 1, 11, 82
3, 14708, Control_c, 1, 11, 82
3, 14727, Control_c, 1, 11, 82
3, 14746, Control_c, 1, 11, 84
3, 14752, Note_on_c, 1, 79, 0
3, 14752, Note_on_c, 1, 83, 0
3, 14762, Note_on_c, 1, 79, 79
3, 14762, Note_on_c, 1, 83, 79
3, 14766, Control_c, 1, 11, 84
3, 14785, Control_c, 1, 11, 85
3, 14804, Control_c, 1, 11, 86
3, 14823, Control_c, 1, 11, 86
3, 14842, Control_c, 1, 11, 87
3, 14861, Control_c, 1, 11, 89
3, 14872, Note_on_c, 1, 83, 0
3, 14872, Note_on_c, 1, 79, 0
3, 14881, Control_c, 1, 11, 89
3, 14882, Note_on_c, 1, 84, 88
3, 14882, Note_on_c, 1, 79, 88
3, 14942, Note_on_c, 1, 79, 0
3, 14942, Note_on_c, 1, 84, 0
3, 15122, Note_on_c, 1, 81, 88
3, 15122, Note_on_c, 1, 72, 88
3, 15182, Note_on_c, 1, 72, 0
3, 15182, Note_on_c, 1, 81, 0
3, 15362, Note_on_c, 1, 76, 88
3, 15362, Note_on_c, 1, 72, 88
3, 15422, Note_on_c, 1, 72, 0
3, 15422, Note_on_c, 1, 76, 0
3, 15602, Note_on_c, 1, 74, 88
3, 15602, Note_on_c, 1, 71, 88
3, 15662, Note_on_c, 1, 71, 0
3, 15662, Note_on_c, 1, 74, 0
3, 15842, Note_on_c, 1, 64, 88
3, 15842, Note_on_c, 1, 72, 88
3, 15902, Note_on_c, 1, 72, 0
3, 15902, Note_on_c, 1, 64, 0
3, 16442, Note_on_c, 1, 76, 113
3, 16442, Note_on_c, 1, 72, 113
3, 16552, Note_on_c, 1, 72, 0
3, 16552, Note_on_c, 1, 76, 0
3, 16562, Note_on_c, 1, 72, 113
3, 16562, Note_on_c, 1, 76, 113
3, 16672, Note_on_c, 1, 76, 0
3, 16672, Note_on_c, 1, 72, 0
3, 16682, Note_on_c, 1, 72, 113
3, 16682, Note_on_c, 1, 76, 113
3, 16792, Note_on_c, 1, 76, 0
3, 16792, Note_on_c, 1, 72, 0
3, 16802, Note_on_c, 1, 77, 113
3, 16802, Note_on_c, 1, 71, 113
3, 17402, Note_on_c, 1, 71, 0
3, 17402, Note_on_c, 1, 77, 0
3, 17402, Note_on_c, 1, 65, 113
3, 17402, Note_on_c, 1, 71, 113
3, 17512, Note_on_c, 1, 71, 0
3, 17512, Note_on_c, 1, 65, 0
3, 17522, Note_on_c, 1, 71, 113
3, 17522, Note_on_c, 1, 65, 113
3, 17632, Note_on_c, 1, 65, 0
3, 17632, Note_on_c, 1, 71, 0
3, 17642, Note_on_c, 1, 65, 113
3, 17642, Note_on_c, 1, 71, 113
3, 17752, Note_on_c, 1, 71, 0
3, 17752, Note_on_c, 1, 65, 0
3, 17762, Note_on_c, 1, 64, 101
3, 17762, Note_on_c, 1, 72, 101
3, 17762, Control_c, 1, 11, 89
3, 17882, Note_on_c, 1, 72, 0
3, 17882, Note_on_c, 1, 64, 0
3, 18362, Note_on_c, 1, 72, 113
3, 18362, Note_on_c, 1, 76, 113
3, 18472, Note_on_c, 1, 76, 0
3, 18472, Note_on_c, 1, 72, 0
3, 18482, Note_on_c, 1, 76, 113
3, 18482, Note_on_c, 1, 72, 113
3, 18592, Note_on_c, 1, 72, 0
3, 18592, Note_on_c, 1, 76, 0
3, 18602, Note_on_c, 1, 72, 113
3, 18602, Note_on_c, 1, 76, 113
3, 18712, Note_on_c, 1, 76, 0
3, 18712, Note_on_c, 1, 72, 0
3, 18722, Note_on_c, 1, 77, 113
3, 18722, Note_on_c, 1, 71, 113
3, 19322, Note_on_c, 1, 71, 0
3, 19322, Note_on_c, 1, 77, 0
3, 19322, Note_on_c, 1, 65, 113
3, 19322, Note_on_c, 1, 71, 113
3, 19432, Note_on_c, 1, 71, 0
3, 19432, Note_on_c, 1, 65, 0
3, 19442, Note_on_c, 1, 65, 113
3, 19442, Note_on_c, 1, 71, 113
3, 19552, Note_on_c, 1, 71, 0
3, 19552, Note_on_c, 1, 65, 0
3, 19562, Note_on_c, 1, 65, 113
3, 19562, Note_on_c, 1, 71, 113
3, 19672, Note_on_c, 1, 71, 0
3, 19672, Note_on_c, 1, 65, 0
3, 19682, Note_on_c, 1, 72, 101
3, 19682, Note_on_c, 1, 64, 101
3, 19802, Note_on_c, 1, 64, 0
3, 19802, Note_on_c, 1, 72, 0
3, 20042, Control_c, 1, 11, 78
3, 20042, Note_on_c, 1, 69, 98
3, 20072, Note_on_c, 1, 69, 0
3, 20102, Note_on_c, 1, 73, 98
3, 20132, Note_on_c, 1, 73, 0
3, 20162, Note_on_c, 1, 74, 98
3, 20282, Note_on_c, 1, 74, 0
3, 20522, Control_c, 1, 11, 78
3, 20522, Note_on_c, 1, 71, 98
3, 20552, Note_on_c, 1, 71, 0
3, 20582, Note_on_c, 1, 75, 98
3, 20594, Control_c, 1, 11, 80
3, 20612, Note_on_c, 1, 75, 0
3, 20642, Note_on_c, 1, 76, 98
3, 20666, Control_c, 1, 11, 80
3, 20692, Note_on_c, 1, 76, 0
3, 20702, Note_on_c, 1, 76, 98
3, 20738, Control_c, 1, 11, 80
3, 20752, Note_on_c, 1, 76, 0
3, 20762, Note_on_c, 1, 72, 98
3, 20810, Control_c, 1, 11, 80
3, 20812, Note_on_c, 1, 72, 0
3, 20822, Note_on_c, 1, 76, 98
3, 20872, Note_on_c, 1, 76, 0
3, 20882, Note_on_c, 1, 77, 98
3, 20882, Control_c, 1, 11, 82
3, 20932, Note_on_c, 1, 77, 0
3, 20942, Note_on_c, 1, 74, 98
3, 20954, Control_c, 1, 11, 82
3, 20992, Note_on_c, 1, 74, 0
3, 21002, Note_on_c, 1, 79, 98
3, 21026, Control_c, 1, 11, 82
3, 21052, Note_on_c, 1, 79, 0
3, 21062, Note_on_c, 1, 76, 98
3, 21098, Control_c, 1, 11, 84
3, 21112, Note_on_c, 1, 76, 0
3, 21122, Note_on_c, 1, 81, 98
3, 21170, Control_c, 1, 11, 84
3, 21172, Note_on_c, 1, 81, 0
3, 21182, Note_on_c, 1, 77, 98
3, 21232, Note_on_c, 1, 77, 0
3, 21242, Note_on_c, 1, 83, 98
3, 21242, Control_c, 1, 11, 85
3, 21292, Note_on_c, 1, 83, 0
3, 21302, Note_on_c, 1, 79, 98
3, 21314, Control_c, 1, 11, 86
3, 21352, Note_on_c, 1, 79, 0
3, 21362, Note_on_c, 1, 84, 98
3, 21386, Control_c, 1, 11, 86
3, 21412, Note_on_c, 1, 84, 0
3, 21422, Note_on_c, 1, 81, 98
3, 21458, Control_c, 1, 11, 87
3, 21472, Note_on_c, 1, 81, 0
3, 21482, Note_on_c, 1, 76, 98
3, 21530, Control_c, 1, 11, 89
3, 21532, Note_on_c, 1, 76, 0
3, 21542, Note_on_c, 1, 78, 98
3, 21592, Note_on_c, 1, 78, 0
3, 21602, Control_c, 1, 11, 89
3, 21602, Note_on_c, 1, 79, 98
3, 21722, Note_on_c, 1, 79, 0
3, 22142, Note_on_c, 1, 79, 98
3, 22172, Note_on_c, 1, 79, 0
3, 22202, Note_on_c, 1, 79, 98
3, 22232, Note_on_c, 1, 79, 0
3, 22262, Note_on_c, 1, 79, 98
3, 22292, Note_on_c, 1, 79, 0
3, 22322, Note_on_c, 1, 77, 98
3, 22382, Note_on_c, 1, 77, 0
3, 22382, Note_on_c, 1, 76, 98
3, 22432, Note_on_c, 1, 76, 0
3, 22442, Note_on_c, 1, 74, 98
3, 22472, Note_on_c, 1, 74, 0
3, 22502, Note_on_c, 1, 72, 98
3, 22532, Note_on_c, 1, 72, 0
3, 22562, Note_on_c, 1, 67, 98
3, 22682, Note_on_c, 1, 67, 0
3, 23102, Note_on_c, 1, 79, 98
3, 23132, Note_on_c, 1, 79, 0
3, 23162, Note_on_c, 1, 79, 98
3, 23192, Note_on_c, 1, 79, 0
3, 23222, Note_on_c, 1, 79, 98
3, 23252, Note_on_c, 1, 79, 0
3, 23282, Note_on_c, 1, 77, 98
3, 23342, Note_on_c, 1, 77, 0
3, 23342, Note_on_c, 1, 76, 98
3, 23392, Note_on_c, 1, 76, 0
3, 23402, Note_on_c, 1, 74, 98
3, 23432, Note_on_c, 1, 74, 0
3, 23462, Note_on_c, 1, 72, 98
3, 23492, Note_on_c, 1, 72, 0
3, 23522, Note_on_c, 1, 67, 98
3, 23642, Note_on_c, 1, 67, 0
3, 23642, Note_on_c, 1, 79, 98
3, 23642, Note_on_c, 1, 74, 98
3, 23762, Note_on_c, 1, 74, 0
3, 23762, Note_on_c, 1, 79, 0
3, 23882, Note_on_c, 1, 79, 98
3, 23882, Note_on_c, 1, 76, 98
3, 24002, Note_on_c, 1, 76, 0
3, 24002, Note_on_c, 1, 79, 0
3, 24122, Note_on_c, 1, 74, 98
3, 24122, Note_on_c, 1, 79, 98
3, 24242, Note_on_c, 1, 79, 0
3, 24242, Note_on_c, 1, 74, 0
3, 24362, Note_on_c, 1, 79, 98
3, 24362, Note_on_c, 1, 76, 98
3, 24482, Note_on_c, 1, 76, 0
3, 24482, Note_on_c, 1, 79, 0
3, 24482, Note_on_c, 1, 74, 98
3, 24482, Note_on_c, 1, 79, 98
3, 24602, Note_on_c, 1, 79, 0
3, 24602, Note_on_c, 1, 74, 0
3, 24722, Note_on_c, 1, 79, 98
3, 24842, Note_on_c, 1, 79, 0
3, 24962, Note_on_c, 1, 67, 98
3, 25082, Note_on_c, 1, 67, 0
3, 25322, Note_on_c, 1, 74, 98
3, 25322, Control_c, 1, 11, 42
3, 25346, Control_c, 1, 11, 44
3, 25370, Control_c, 1, 11, 46
3, 25394, Control_c, 1, 11, 48
3, 25418, Control_c, 1, 11, 50
3, 25432, Note_on_c, 1, 74, 0
3, 25442, Control_c, 1, 11, 52
3, 25442, Note_on_c, 1, 79, 98
3, 25742, Note_on_c, 1, 79, 0
3, 25742, Note_on_c, 1, 78, 98
3, 25802, Note_on_c, 1, 78, 0
3, 25802, Note_on_c, 1, 76, 98
3, 25862, Note_on_c, 1, 76, 0
3, 25862, Note_on_c, 1, 74, 98
3, 25912, Note_on_c, 1, 74, 0
3, 25922, Note_on_c, 1, 72, 98
3, 26042, Note_on_c, 1, 72, 0
3, 26402, Note_on_c, 1, 81, 98
3, 26702, Note_on_c, 1, 81, 0
3, 26702, Note_on_c, 1, 78, 98
3, 26762, Note_on_c, 1, 78, 0
3, 26762, Note_on_c, 1, 74, 98
3, 26822, Note_on_c, 1, 74, 0
3, 26822, Note_on_c, 1, 72, 98
3, 26872, Note_on_c, 1, 72, 0
3, 26882, Note_on_c, 1, 71, 98
3, 27002, Note_on_c, 1, 71, 0
3, 27362, Control_c, 1, 11, 52
3, 27362, Note_on_c, 1, 78, 88
3, 27482, Note_on_c, 1, 78, 0
3, 27482, Note_on_c, 1, 81, 62
3, 27482, Control_c, 1, 11, 71
3, 27501, Control_c, 1, 11, 71
3, 27520, Control_c, 1, 11, 68
3, 27539, Control_c, 1, 11, 67
3, 27558, Control_c, 1, 11, 66
3, 27578, Control_c, 1, 11, 64
3, 27597, Control_c, 1, 11, 62
3, 27616, Control_c, 1, 11, 62
3, 27635, Control_c, 1, 11, 61
3, 27654, Control_c, 1, 11, 59
3, 27674, Control_c, 1, 11, 57
3, 27693, Control_c, 1, 11, 55
3, 27712, Control_c, 1, 11, 53
3, 27722, Note_on_c, 1, 81, 0
3, 27722, Note_on_c, 1, 79, 62
3, 27832, Note_on_c, 1, 79, 0
3, 27842, Note_on_c, 1, 78, 62
3, 27962, Note_on_c, 1, 78, 0
3, 27962, Control_c, 1, 11, 71
3, 27962, Note_on_c, 1, 81, 62
3, 27981, Control_c, 1, 11, 71
3, 28000, Control_c, 1, 11, 68
3, 28019, Control_c, 1, 11, 67
3, 28038, Control_c, 1, 11, 66
3, 28058, Control_c, 1, 11, 64
3, 28077, Control_c, 1, 11, 62
3, 28096, Control_c, 1, 11, 62
3, 28115, Control_c, 1, 11, 61
3, 28134, Control_c, 1, 11, 59
3, 28154, Control_c, 1, 11, 57
3, 28173, Control_c, 1, 11, 55
3, 28192, Control_c, 1, 11, 53
3, 28202, Note_on_c, 1, 81, 0
3, 28202, Note_on_c, 1, 79, 62
3, 28312, Note_on_c, 1, 79, 0
3, 28322, Note_on_c, 1, 78, 70
3, 28432, Note_on_c, 1, 78, 0
3, 28442, Note_on_c, 1, 78, 98
3, 28562, Note_on_c, 1, 78, 0
3, 28562, Note_on_c, 1, 79, 98
3, 28682, Note_on_c, 1, 79, 0
3, 28682, Note_on_c, 1, 73, 98
3, 28792, Note_on_c, 1, 73, 0
3, 28802, Note_on_c, 1, 74, 98
3, 28922, Note_on_c, 1, 74, 0
3, 29762, Note_on_c, 1, 72, 98
3, 30062, Note_on_c, 1, 72, 0
3, 30062, Note_on_c, 1, 71, 98
3, 30122, Note_on_c, 1, 71, 0
3, 30122, Note_on_c, 1, 69, 98
3, 30182, Note_on_c, 1, 69, 0
3, 30182, Note_on_c, 1, 67, 98
3, 30232, Note_on_c, 1, 67, 0
3, 30242, Note_on_c, 1, 66, 98
3, 30362, Note_on_c, 1, 66, 0
3, 31322, Note_on_c, 1, 76, 79
3, 31322, Note_on_c, 1, 72, 79
3, 31442, Note_on_c, 1, 72, 0
3, 31442, Note_on_c, 1, 76, 0
3, 31442, Note_on_c, 1, 77, 79
3, 31442, Note_on_c, 1, 74, 79
3, 31442, Control_c, 1, 11, 71
3, 31461, Control_c, 1, 11, 71
3, 31480, Control_c, 1, 11, 68
3, 31499, Control_c, 1, 11, 67
3, 31518, Control_c, 1, 11, 66
3, 31538, Control_c, 1, 11, 64
3, 31557, Control_c, 1, 11, 62
3, 31576, Control_c, 1, 11, 62
3, 31595, Control_c, 1, 11, 61
3, 31614, Control_c, 1, 11, 59
3, 31634, Control_c, 1, 11, 57
3, 31653, Control_c, 1, 11, 55
3, 31672, Control_c, 1, 11, 53
3, 31792, Note_on_c, 1, 74, 0
3, 31792, Note_on_c, 1, 77, 0
3, 31802, Note_on_c, 1, 72, 79
3, 31802, Note_on_c, 1, 76, 79
3, 31922, Note_on_c, 1, 76, 0
3, 31922, Note_on_c, 1, 72, 0
3, 31922, Note_on_c, 1, 77, 79
3, 31922, Note_on_c, 1, 74, 79
3, 31922, Control_c, 1, 11, 71
3, 31941, Control_c, 1, 11, 71
3, 31960, Control_c, 1, 11, 68
3, 31979, Control_c, 1, 11, 67
3, 31998, Control_c, 1, 11, 66
3, 32018, Control_c, 1, 11, 64
3, 32037, Control_c, 1, 11, 62
3, 32056, Control_c, 1, 11, 62
3, 32075, Control_c, 1, 11, 61
3, 32094, Control_c, 1, 11, 59
3, 32114, Control_c, 1, 11, 57
3, 32133, Control_c, 1, 11, 55
3, 32152, Control_c, 1, 11, 53
3, 32272, Note_on_c, 1, 74, 0
3, 32272, Note_on_c, 1, 77, 0
3, 32282, Note_on_c, 1, 76, 88
3, 32282, Note_on_c, 1, 72, 88
3, 32402, Note_on_c, 1, 72, 0
3, 32402, Note_on_c, 1, 76, 0
3, 32402, Note_on_c, 1, 71, 88
3, 32402, Note_on_c, 1, 74, 88
3, 32522, Note_on_c, 1, 74, 0
3, 32522, Note_on_c, 1, 71, 0
3, 32522, Note_on_c, 1, 69, 88
3, 32522, Note_on_c, 1, 72, 88
3, 32632, Note_on_c, 1, 72, 0
3, 32632, Note_on_c, 1, 69, 0
3, 32642, Note_on_c, 1, 67, 88
3, 32642, Note_on_c, 1, 71, 88
3, 32882, Note_on_c, 1, 71, 0
3, 32882, Note_on_c, 1, 67, 0
3, 32882, Note_on_c, 1, 66, 98
3, 32882, Note_on_c, 1, 69, 98
3, 33102, Note_on_c, 1, 69, 0
3, 33102, Note_on_c, 1, 66, 0
3, 33122, Note_on_c, 1, 74, 98
3, 33122, Note_on_c, 1, 62, 98
3, 33122, Control_c, 1, 11, 78
3, 33242, Note_on_c, 1, 62, 0
3, 33242, Note_on_c, 1, 74, 0
3, 33362, Note_on_c, 1, 78, 98
3, 33362, Note_on_c, 1, 72, 98
3, 33482, Note_on_c, 1, 72, 0
3, 33482, Note_on_c, 1, 78, 0
3, 33602, Note_on_c, 1, 71, 98
3, 33602, Note_on_c, 1, 79, 98
3, 33722, Note_on_c, 1, 79, 0
3, 33722, Note_on_c, 1, 71, 0
3, 33842, Note_on_c, 1, 69, 98
3, 33902, Note_on_c, 1, 69, 0
3, 33902, Note_on_c, 1, 71, 98
3, 33962, Note_on_c, 1, 71, 0
3, 33962, Note_on_c, 1, 72, 98
3, 34022, Note_on_c, 1, 72, 0
3, 34022, Note_on_c, 1, 73, 98
3, 34072, Note_on_c, 1, 73, 0
3, 34082, Note_on_c, 1, 74, 98
3, 34082, Control_c, 1, 11, 91
3, 34106, Control_c, 1, 11, 91
3, 34130, Control_c, 1, 11, 89
3, 34154, Control_c, 1, 11, 89
3, 34178, Control_c, 1, 11, 86
3, 34202, Control_c, 1, 11, 85
3, 34226, Control_c, 1, 11, 84
3, 34250, Control_c, 1, 11, 82
3, 34274, Control_c, 1, 11, 80
3, 34298, Control_c, 1, 11, 80
3, 34312, Note_on_c, 1, 74, 0
3, 34322, Note_on_c, 1, 78, 98
3, 34322, Note_on_c, 1, 72, 98
3, 34322, Control_c, 1, 11, 91
3, 34346, Control_c, 1, 11, 91
3, 34370, Control_c, 1, 11, 89
3, 34394, Control_c, 1, 11, 89
3, 34418, Control_c, 1, 11, 86
3, 34442, Control_c, 1, 11, 85
3, 34466, Control_c, 1, 11, 84
3, 34490, Control_c, 1, 11, 82
3, 34514, Control_c, 1, 11, 80
3, 34538, Control_c, 1, 11, 80
3, 34552, Note_on_c, 1, 72, 0
3, 34552, Note_on_c, 1, 78, 0
3, 34562, Control_c, 1, 11, 91
3, 34562, Note_on_c, 1, 79, 98
3, 34562, Note_on_c, 1, 71, 98
3, 34580, Control_c, 1, 11, 89
3, 34598, Control_c, 1, 11, 89
3, 34610, Control_c, 1, 11, 86
3, 34628, Control_c, 1, 11, 84
3, 34646, Control_c, 1, 11, 82
3, 34664, Control_c, 1, 11, 80
3, 34682, Note_on_c, 1, 71, 0
3, 34682, Note_on_c, 1, 79, 0
3, 34682, Control_c, 1, 11, 78
3, 34802, Note_on_c, 1, 69, 98
3, 34862, Note_on_c, 1, 69, 0
3, 34862, Note_on_c, 1, 71, 98
3, 34922, Note_on_c, 1, 71, 0
3, 34922, Note_on_c, 1, 72, 98
3, 34982, Note_on_c, 1, 72, 0
3, 34982, Note_on_c, 1, 73, 98
3, 35032, Note_on_c, 1, 73, 0
3, 35042, Control_c, 1, 11, 91
3, 35042, Note_on_c, 1, 74, 98
3, 35060, Control_c, 1, 11, 91
3, 35078, Control_c, 1, 11, 89
3, 35096, Control_c, 1, 11, 89
3, 35114, Control_c, 1, 11, 86
3, 35132, Control_c, 1, 11, 85
3, 35150, Control_c, 1, 11, 84
3, 35168, Control_c, 1, 11, 82
3, 35186, Control_c, 1, 11, 80
3, 35204, Control_c, 1, 11, 80
3, 35212, Note_on_c, 1, 74, 0
3, 35222, Control_c, 1, 11, 78
3, 35222, Note_on_c, 1, 72, 98
3, 35272, Note_on_c, 1, 72, 0
3, 35282, Note_on_c, 1, 71, 98
3, 35332, Note_on_c, 1, 71, 0
3, 35342, Note_on_c, 1, 69, 98
3, 35392, Note_on_c, 1, 69, 0
3, 35402, Note_on_c, 1, 67, 98
3, 35452, Note_on_c, 1, 67, 0
3, 35462, Note_on_c, 1, 65, 98
3, 35512, Note_on_c, 1, 65, 0
3, 35522, Note_on_c, 1, 64, 98
3, 35572, Note_on_c, 1, 64, 0
3, 35582, Control_c, 1, 11, 91
3, 35582, Note_on_c, 1, 76, 98
3, 35600, Control_c, 1, 11, 89
3, 35618, Control_c, 1, 11, 89
3, 35630, Control_c, 1, 11, 86
3, 35648, Control_c, 1, 11, 84
3, 35666, Control_c, 1, 11, 82
3, 35684, Control_c, 1, 11, 80
3, 35692, Note_on_c, 1, 76, 0
3, 35702, Control_c, 1, 11, 78
3, 35702, Note_on_c, 1, 74, 98
3, 35752, Note_on_c, 1, 74, 0
3, 35762, Note_on_c, 1, 72, 98
3, 35812, Note_on_c, 1, 72, 0
3, 35822, Note_on_c, 1, 71, 98
3, 35872, Note_on_c, 1, 71, 0
3, 35882, Note_on_c, 1, 69, 98
3, 35932, Note_on_c, 1, 69, 0
3, 35942, Note_on_c, 1, 67, 98
3, 35992, Note_on_c, 1, 67, 0
3, 36002, Note_on_c, 1, 66, 98
3, 36002, Control_c, 1, 11, 78
3, 36034, Control_c, 1, 11, 80
3, 36052, Note_on_c, 1, 66, 0
3, 36062, Note_on_c, 1, 67, 98
3, 36066, Control_c, 1, 11, 80
3, 36098, Control_c, 1, 11, 80
3, 36112, Note_on_c, 1, 67, 0
3, 36122, Note_on_c, 1, 69, 98
3, 36130, Control_c, 1, 11, 80
3, 36162, Control_c, 1, 11, 82
3, 36172, Note_on_c, 1, 69, 0
3, 36182, Note_on_c, 1, 71, 98
3, 36194, Control_c, 1, 11, 82
3, 36226, Control_c, 1, 11, 82
3, 36232, Note_on_c, 1, 71, 0
3, 36242, Note_on_c, 1, 72, 98
3, 36258, Control_c, 1, 11, 84
3, 36290, Control_c, 1, 11, 84
3, 36292, Note_on_c, 1, 72, 0
3, 36302, Note_on_c, 1, 74, 98
3, 36322, Control_c, 1, 11, 85
3, 36352, Note_on_c, 1, 74, 0
3, 36354, Control_c, 1, 11, 86
3, 36362, Note_on_c, 1, 76, 98
3, 36386, Control_c, 1, 11, 86
3, 36412, Note_on_c, 1, 76, 0
3, 36418, Control_c, 1, 11, 87
3, 36422, Note_on_c, 1, 78, 98
3, 36450, Control_c, 1, 11, 89
3, 36472, Note_on_c, 1, 78, 0
3, 36482, Control_c, 1, 11, 89
3, 36482, Note_on_c, 1, 79, 98
3, 36542, Note_on_c, 1, 79, 0
3, 36602, Note_on_c, 1, 67, 88
3, 36602, Note_on_c, 1, 76, 88
3, 36662, Note_on_c, 1, 76, 0
3, 36662, Note_on_c, 1, 67, 0
3, 36722, Note_on_c, 1, 74, 88
3, 36722, Note_on_c, 1, 71, 88
3, 36782, Note_on_c, 1, 71, 0
3, 36782, Note_on_c, 1, 74, 0
3, 36842, Note_on_c, 1, 78, 88
3, 36842, Note_on_c, 1, 72, 88
3, 36902, Note_on_c, 1, 72, 0
3, 36902, Note_on_c, 1, 78, 0
3, 36962, Note_on_c, 1, 79, 70
3, 36962, Note_on_c, 1, 71, 70
3, 36962, Control_c, 1, 11, 78
3, 36992, Control_c, 1, 11, 78
3, 37009, Control_c, 1, 11, 75
3, 37027, Control_c, 1, 11, 73
3, 37045, Control_c, 1, 11, 71
3, 37054, Control_c, 1, 11, 68
3, 37072, Control_c, 1, 11, 66
3, 37082, Note_on_c, 1, 71, 0
3, 37082, Note_on_c, 1, 79, 0
3, 37922, Control_c, 1, 11, 27
3, 37922, Note_on_c, 1, 77, 108
3, 37932, Control_c, 1, 11, 30
3, 37943, Control_c, 1, 11, 33
3, 37953, Control_c, 1, 11, 36
3, 37964, Control_c, 1, 11, 39
3, 37974, Control_c, 1, 11, 42
3, 38004, Control_c, 1, 11, 45
3, 38031, Control_c, 1, 11, 46
3, 38059, Control_c, 1, 11, 47
3, 38086, Control_c, 1, 11, 48
3, 38114, Control_c, 1, 11, 49
3, 38141, Control_c, 1, 11, 51
3, 38168, Control_c, 1, 11, 52
3, 38196, Control_c, 1, 11, 53
3, 38223, Control_c, 1, 11, 55
3, 38251, Control_c, 1, 11, 56
3, 38278, Control_c, 1, 11, 57
3, 38306, Control_c, 1, 11, 59
3, 38333, Control_c, 1, 11, 60
3, 38360, Control_c, 1, 11, 61
3, 38388, Control_c, 1, 11, 62
3, 38415, Control_c, 1, 11, 63
3, 38443, Control_c, 1, 11, 64
3, 38470, Control_c, 1, 11, 65
3, 38498, Control_c, 1, 11, 65
3, 38525, Control_c, 1, 11, 66
3, 38552, Control_c, 1, 11, 66
3, 38580, Control_c, 1, 11, 68
3, 38607, Control_c, 1, 11, 68
3, 38635, Control_c, 1, 11, 68
3, 38662, Control_c, 1, 11, 71
3, 38690, Control_c, 1, 11, 71
3, 38717, Control_c, 1, 11, 72
3, 38744, Control_c, 1, 11, 73
3, 38762, Note_on_c, 1, 77, 0
3, 38762, Note_on_c, 1, 75, 108
3, 38772, Control_c, 1, 11, 73
3, 38799, Control_c, 1, 11, 75
3, 38822, Note_on_c, 1, 75, 0
3, 38822, Note_on_c, 1, 74, 108
3, 38827, Control_c, 1, 11, 77
3, 38854, Control_c, 1, 11, 77
3, 38872, Note_on_c, 1, 74, 0
3, 38882, Control_c, 1, 11, 77
3, 38882, Note_on_c, 1, 74, 108
3, 38898, Control_c, 1, 11, 77
3, 38914, Control_c, 1, 11, 77
3, 38927, Note_on_c, 1, 74, 0
3, 38927, Note_on_c, 1, 72, 108
3, 38930, Control_c, 1, 11, 75
3, 38946, Control_c, 1, 11, 73
3, 38962, Control_c, 1, 11, 73
3, 38972, Note_on_c, 1, 72, 0
3, 38978, Control_c, 1, 11, 72
3, 38994, Control_c, 1, 11, 71
3, 39002, Note_on_c, 1, 72, 108
3, 39010, Control_c, 1, 11, 71
3, 39026, Control_c, 1, 11, 68
3, 39042, Control_c, 1, 11, 68
3, 39058, Control_c, 1, 11, 68
3, 39074, Control_c, 1, 11, 66
3, 39090, Control_c, 1, 11, 66
3, 39092, Note_on_c, 1, 72, 0
3, 39106, Control_c, 1, 11, 65
3, 39122, Control_c, 1, 11, 65
3, 39122, Note_on_c, 1, 72, 108
3, 39138, Control_c, 1, 11, 64
3, 39154, Control_c, 1, 11, 63
3, 39170, Control_c, 1, 11, 62
3, 39186, Control_c, 1, 11, 61
3, 39202, Control_c, 1, 11, 60
3, 39212, Note_on_c, 1, 72, 0
3, 39218, Control_c, 1, 11, 59
3, 39234, Control_c, 1, 11, 57
3, 39242, Note_on_c, 1, 72, 108
3, 39250, Control_c, 1, 11, 56
3, 39266, Control_c, 1, 11, 55
3, 39282, Control_c, 1, 11, 53
3, 39298, Control_c, 1, 11, 52
3, 39314, Control_c, 1, 11, 51
3, 39330, Control_c, 1, 11, 49
3, 39332, Note_on_c, 1, 72, 0
3, 39346, Control_c, 1, 11, 48
3, 39362, Control_c, 1, 11, 27
3, 39362, Note_on_c, 1, 74, 98
3, 39371, Control_c, 1, 11, 30
3, 39381, Control_c, 1, 11, 33
3, 39390, Control_c, 1, 11, 36
3, 39400, Control_c, 1, 11, 39
3, 39409, Control_c, 1, 11, 42
3, 39444, Control_c, 1, 11, 45
3, 39471, Control_c, 1, 11, 46
3, 39499, Control_c, 1, 11, 47
3, 39526, Control_c, 1, 11, 48
3, 39554, Control_c, 1, 11, 49
3, 39581, Control_c, 1, 11, 51
3, 39608, Control_c, 1, 11, 52
3, 39636, Control_c, 1, 11, 53
3, 39663, Control_c, 1, 11, 55
3, 39691, Control_c, 1, 11, 56
3, 39718, Control_c, 1, 11, 57
3, 39746, Control_c, 1, 11, 59
3, 39773, Control_c, 1, 11, 60
3, 39800, Control_c, 1, 11, 61
3, 39828, Control_c, 1, 11, 62
3, 39855, Control_c, 1, 11, 63
3, 39883, Control_c, 1, 11, 64
3, 39910, Control_c, 1, 11, 65
3, 39938, Control_c, 1, 11, 65
3, 39965, Control_c, 1, 11, 66
3, 39992, Control_c, 1, 11, 66
3, 40020, Control_c, 1, 11, 68
3, 40047, Control_c, 1, 11, 68
3, 40075, Control_c, 1, 11, 68
3, 40102, Control_c, 1, 11, 71
3, 40130, Control_c, 1, 11, 71
3, 40157, Control_c, 1, 11, 72
3, 40184, Control_c, 1, 11, 73
3, 40202, Note_on_c, 1, 74, 0
3, 40202, Note_on_c, 1, 72, 98
3, 40212, Control_c, 1, 11, 73
3, 40239, Control_c, 1, 11, 75
3, 40262, Note_on_c, 1, 72, 0
3, 40262, Note_on_c, 1, 70, 98
3, 40267, Control_c, 1, 11, 77
3, 40294, Control_c, 1, 11, 77
3, 40312, Note_on_c, 1, 70, 0
3, 40322, Control_c, 1, 11, 77
3, 40322, Note_on_c, 1, 70, 98
3, 40337, Control_c, 1, 11, 77
3, 40353, Control_c, 1, 11, 77
3, 40367, Note_on_c, 1, 70, 0
3, 40367, Note_on_c, 1, 69, 98
3, 40369, Control_c, 1, 11, 75
3, 40385, Control_c, 1, 11, 73
3, 40401, Control_c, 1, 11, 73
3, 40412, Note_on_c, 1, 69, 0
3, 40417, Control_c, 1, 11, 72
3, 40433, Control_c, 1, 11, 71
3, 40442, Note_on_c, 1, 69, 98
3, 40449, Control_c, 1, 11, 71
3, 40465, Control_c, 1, 11, 68
3, 40481, Control_c, 1, 11, 68
3, 40497, Control_c, 1, 11, 68
3, 40513, Control_c, 1, 11, 66
3, 40529, Control_c, 1, 11, 66
3, 40532, Note_on_c, 1, 69, 0
3, 40545, Control_c, 1, 11, 65
3, 40561, Control_c, 1, 11, 65
3, 40562, Note_on_c, 1, 69, 98
3, 40577, Control_c, 1, 11, 64
3, 40593, Control_c, 1, 11, 63
3, 40609, Control_c, 1, 11, 62
3, 40625, Control_c, 1, 11, 61
3, 40641, Control_c, 1, 11, 60
3, 40652, Note_on_c, 1, 69, 0
3, 40657, Control_c, 1, 11, 59
3, 40673, Control_c, 1, 11, 57
3, 40682, Note_on_c, 1, 69, 98
3, 40689, Control_c, 1, 11, 56
3, 40705, Control_c, 1, 11, 55
3, 40721, Control_c, 1, 11, 53
3, 40737, Control_c, 1, 11, 52
3, 40753, Control_c, 1, 11, 51
3, 40769, Control_c, 1, 11, 49
3, 40772, Note_on_c, 1, 69, 0
3, 40785, Control_c, 1, 11, 48
3, 40801, Control_c, 1, 11, 47
3, 40802, Note_on_c, 1, 78, 98
3, 40802, Control_c, 1, 11, 42
3, 40802, Note_on_c, 1, 72, 98
3, 40834, Control_c, 1, 11, 43
3, 40866, Control_c, 1, 11, 44
3, 40898, Control_c, 1, 11, 45
3, 40930, Control_c, 1, 11, 46
3, 40962, Control_c, 1, 11, 47
3, 40994, Control_c, 1, 11, 48
3, 41026, Control_c, 1, 11, 49
3, 41058, Control_c, 1, 11, 50
3, 41090, Control_c, 1, 11, 51
3, 41122, Control_c, 1, 11, 52
3, 41154, Control_c, 1, 11, 53
3, 41186, Control_c, 1, 11, 54
3, 41218, Control_c, 1, 11, 55
3, 41250, Control_c, 1, 11, 56
3, 41282, Note_on_c, 1, 72, 0
3, 41282, Note_on_c, 1, 78, 0
3, 41282, Control_c, 1, 11, 57
3, 41282, Note_on_c, 1, 71, 98
3, 41282, Note_on_c, 1, 79, 98
3, 41314, Control_c, 1, 11, 58
3, 41346, Control_c, 1, 11, 59
3, 41378, Control_c, 1, 11, 60
3, 41410, Control_c, 1, 11, 61
3, 41442, Control_c, 1, 11, 62
3, 41474, Control_c, 1, 11, 62
3, 41506, Control_c, 1, 11, 62
3, 41538, Control_c, 1, 11, 62
3, 41570, Control_c, 1, 11, 64
3, 41602, Control_c, 1, 11, 64
3, 41634, Control_c, 1, 11, 64
3, 41666, Control_c, 1, 11, 66
3, 41698, Control_c, 1, 11, 66
3, 41730, Control_c, 1, 11, 67
3, 41762, Note_on_c, 1, 71, 0
3, 41762, Control_c, 1, 11, 68
3, 41762, Note_on_c, 1, 69, 98
3, 41794, Control_c, 1, 11, 68
3, 41826, Control_c, 1, 11, 69
3, 41858, Control_c, 1, 11, 71
3, 41890, Control_c, 1, 11, 71
3, 41922, Control_c, 1, 11, 71
3, 41954, Control_c, 1, 11, 71
3, 41986, Control_c, 1, 11, 73
3, 42002, Note_on_c, 1, 79, 0
3, 42002, Note_on_c, 1, 78, 98
3, 42018, Control_c, 1, 11, 73
3, 42050, Control_c, 1, 11, 73
3, 42082, Control_c, 1, 11, 75
3, 42114, Control_c, 1, 11, 75
3, 42146, Control_c, 1, 11, 76
3, 42178, Control_c, 1, 11, 77
3, 42210, Control_c, 1, 11, 77
3, 42232, Note_on_c, 1, 78, 0
3, 42242, Note_on_c, 1, 69, 0
3, 42242, Control_c, 1, 11, 100
3, 42242, Note_on_c, 1, 67, 98
3, 42242, Note_on_c, 1, 79, 98
3, 42266, Control_c, 1, 11, 98
3, 42290, Control_c, 1, 11, 96
3, 42314, Control_c, 1, 11, 94
3, 42338, Control_c, 1, 11, 91
3, 42362, Control_c, 1, 11, 89
3, 42592, Note_on_c, 1, 79, 0
3, 42592, Note_on_c, 1, 67, 0
3, 42602, Note_on_c, 1, 62, 98
3, 42602, Note_on_c, 1, 74, 98
3, 42692, Note_on_c, 1, 74, 0
3, 42692, Note_on_c, 1, 62, 0
3, 42692, Note_on_c, 1, 66, 98
3, 42692, Note_on_c, 1, 78, 98
3, 42712, Note_on_c, 1, 78, 0
3, 42712, Note_on_c, 1, 66, 0
3, 42722, Control_c, 1, 11, 91
3, 42722, Note_on_c, 1, 79, 98
3, 42722, Note_on_c, 1, 67, 98
3, 42746, Control_c, 1, 11, 91
3, 42770, Control_c, 1, 11, 89
3, 42794, Control_c, 1, 11, 89
3, 42818, Control_c, 1, 11, 86
3, 42842, Control_c, 1, 11, 85
3, 42866, Control_c, 1, 11, 84
3, 42890, Control_c, 1, 11, 82
3, 42914, Control_c, 1, 11, 80
3, 42938, Control_c, 1, 11, 80
3, 42962, Control_c, 1, 11, 78
3, 43072, Note_on_c, 1, 67, 0
3, 43072, Note_on_c, 1, 79, 0
3, 43082, Note_on_c, 1, 74, 98
3, 43082, Note_on_c, 1, 62, 98
3, 43172, Note_on_c, 1, 62, 0
3, 43172, Note_on_c, 1, 74, 0
3, 43172, Note_on_c, 1, 66, 98
3, 43172, Note_on_c, 1, 78, 98
3, 43192, Note_on_c, 1, 78, 0
3, 43192, Note_on_c, 1, 66, 0
3, 43202, Note_on_c, 1, 67, 98
3, 43202, Note_on_c, 1, 79, 98
3, 43202, Control_c, 1, 11, 91
3, 43220, Control_c, 1, 11, 89
3, 43238, Control_c, 1, 11, 89
3, 43250, Control_c, 1, 11, 86
3, 43262, Note_on_c, 1, 79, 0
3, 43262, Note_on_c, 1, 67, 0
3, 43268, Control_c, 1, 11, 84
3, 43286, Control_c, 1, 11, 82
3, 43304, Control_c, 1, 11, 80
3, 43322, Control_c, 1, 11, 78
3, 43442, Note_on_c, 1, 69, 98
3, 43442, Note_on_c, 1, 78, 98
3, 43442, Control_c, 1, 11, 91
3, 43459, Control_c, 1, 11, 89
3, 43477, Control_c, 1, 11, 89
3, 43489, Control_c, 1, 11, 86
3, 43502, Note_on_c, 1, 78, 0
3, 43502, Note_on_c, 1, 69, 0
3, 43507, Control_c, 1, 11, 84
3, 43525, Control_c, 1, 11, 82
3, 43543, Control_c, 1, 11, 80
3, 43561, Control_c, 1, 11, 78
3, 43682, Note_on_c, 1, 71, 98
3, 43682, Control_c, 1, 11, 91
3, 43682, Note_on_c, 1, 79, 98
3, 43699, Control_c, 1, 11, 89
3, 43717, Control_c, 1, 11, 89
3, 43729, Control_c, 1, 11, 86
3, 43742, Note_on_c, 1, 79, 0
3, 43742, Note_on_c, 1, 71, 0
3, 43747, Control_c, 1, 11, 84
3, 43765, Control_c, 1, 11, 82
3, 43783, Control_c, 1, 11, 80
3, 43801, Control_c, 1, 11, 78
3, 43922, Note_on_c, 1, 78, 98
3, 43922, Note_on_c, 1, 72, 98
3, 43922, Control_c, 1, 11, 91
3, 43939, Control_c, 1, 11, 89
3, 43957, Control_c, 1, 11, 89
3, 43969, Control_c, 1, 11, 86
3, 43982, Note_on_c, 1, 72, 0
3, 43982, Note_on_c, 1, 78, 0
3, 43987, Control_c, 1, 11, 84
3, 44005, Control_c, 1, 11, 82
3, 44023, Control_c, 1, 11, 80
3, 44041, Control_c, 1, 11, 78
3, 44162, Note_on_c, 1, 79, 88
3, 44162, Note_on_c, 1, 74, 88
3, 44162, Control_c, 1, 11, 78
3, 44632, Note_on_c, 1, 74, 0
3, 44632, Note_on_c, 1, 79, 0
3, 44642, Note_on_c, 1, 75, 88
3, 44642, Note_on_c, 1, 78, 88
3, 45112, Note_on_c, 1, 78, 0
3, 45112, Note_on_c, 1, 75, 0
3, 45122, Note_on_c, 1, 76, 88
3, 45122, Control_c, 1, 11, 89
3, 45122, Note_on_c, 1, 71, 88
3, 45592, Note_on_c, 1, 71, 0
3, 45592, Note_on_c, 1, 76, 0
3, 45602, Note_on_c, 1, 77, 88
3, 45722, Note_on_c, 1, 77, 0
3, 45722, Note_on_c, 1, 74, 88
3, 45842, Note_on_c, 1, 74, 0
3, 45842, Note_on_c, 1, 71, 88
3, 45962, Note_on_c, 1, 71, 0
3, 45962, Note_on_c, 1, 68, 88
3, 46072, Note_on_c, 1, 68, 0
3, 46082, Note_on_c, 1, 69, 88
3, 46082, Note_on_c, 1, 76, 88
3, 46562, Note_on_c, 1, 76, 0
3, 46562, Note_on_c, 1, 69, 0
3, 46562, Note_on_c, 1, 82, 88
3, 46682, Note_on_c, 1, 82, 0
3, 46682, Note_on_c, 1, 79, 88
3, 46802, Note_on_c, 1, 79, 0
3, 46802, Note_on_c, 1, 76, 88
3, 46922, Note_on_c, 1, 76, 0
3, 46922, Note_on_c, 1, 73, 88
3, 47032, Note_on_c, 1, 73, 0
3, 47042, Control_c, 1, 11, 102
3, 47042, Note_on_c, 1, 74, 88
3, 47059, Control_c, 1, 11, 100
3, 47077, Control_c, 1, 11, 98
3, 47095, Control_c, 1, 11, 96
3, 47113, Control_c, 1, 11, 94
3, 47131, Control_c, 1, 11, 91
3, 47149, Control_c, 1, 11, 89
3, 47272, Note_on_c, 1, 74, 0
3, 47282, Control_c, 1, 11, 102
3, 47282, Note_on_c, 1, 76, 88
3, 47299, Control_c, 1, 11, 100
3, 47317, Control_c, 1, 11, 98
3, 47335, Control_c, 1, 11, 96
3, 47353, Control_c, 1, 11, 94
3, 47371, Control_c, 1, 11, 91
3, 47389, Control_c, 1, 11, 89
3, 47512, Note_on_c, 1, 76, 0
3, 47522, Note_on_c, 1, 72, 88
3, 47522, Control_c, 1, 11, 102
3, 47539, Control_c, 1, 11, 100
3, 47557, Control_c, 1, 11, 98
3, 47575, Control_c, 1, 11, 96
3, 47593, Control_c, 1, 11, 94
3, 47611, Control_c, 1, 11, 91
3, 47629, Control_c, 1, 11, 89
3, 47752, Note_on_c, 1, 72, 0
3, 47762, Note_on_c, 1, 74, 88
3, 47762, Control_c, 1, 11, 102
3, 47779, Control_c, 1, 11, 100
3, 47797, Control_c, 1, 11, 98
3, 47815, Control_c, 1, 11, 96
3, 47833, Control_c, 1, 11, 94
3, 47851, Control_c, 1, 11, 91
3, 47869, Control_c, 1, 11, 89
3, 47942, Control_c, 1, 11, 78
3, 47960, Control_c, 1, 11, 75
3, 47978, Control_c, 1, 11, 73
3, 47992, Note_on_c, 1, 74, 0
3, 47996, Control_c, 1, 11, 71
3, 48002, Note_on_c, 1, 67, 88
3, 48005, Control_c, 1, 11, 68
3, 48023, Control_c, 1, 11, 66
3, 48041, Control_c, 1, 11, 62
3, 48059, Control_c, 1, 11, 61
3, 48072, Control_c, 1, 11, 58
3, 48086, Control_c, 1, 11, 55
3, 48099, Control_c, 1, 11, 52
3, 48112, Note_on_c, 1, 67, 0
3, 48113, Control_c, 1, 11, 49
3, 48122, Note_on_c, 1, 76, 98
3, 48122, Note_on_c, 1, 72, 98
3, 48242, Note_on_c, 1, 72, 0
3, 48242, Note_on_c, 1, 76, 0
3, 48242, Note_on_c, 1, 74, 98
3, 48242, Note_on_c, 1, 71, 98
3, 48362, Note_on_c, 1, 71, 0
3, 48362, Note_on_c, 1, 74, 0
3, 48362, Note_on_c, 1, 72, 98
3, 48362, Note_on_c, 1, 69, 98
3, 48482, Note_on_c, 1, 69, 0
3, 48482, Note_on_c, 1, 72, 0
3, 48482, Note_on_c, 1, 67, 98
3, 48482, Note_on_c, 1, 71, 98
3, 48602, Note_on_c, 1, 71, 0
3, 48602, Note_on_c, 1, 67, 0
3, 48602, Note_on_c, 1, 72, 98
3, 48602, Note_on_c, 1, 69, 98
3, 48722, Note_on_c, 1, 69, 0
3, 48722, Note_on_c, 1, 72, 0
3, 48722, Note_on_c, 1, 71, 98
3, 48722, Note_on_c, 1, 74, 98
3, 48832, Note_on_c, 1, 74, 0
3, 48832, Note_on_c, 1, 71, 0
3, 48842, Control_c, 1, 11, 85
3, 48842, Note_on_c, 1, 78, 98
3, 48842, Note_on_c, 1, 72, 98
3, 48849, Control_c, 1, 11, 82
3, 48865, Control_c, 1, 11, 78
3, 48875, Control_c, 1, 11, 75
3, 48887, Control_c, 1, 11, 71
3, 48899, Control_c, 1, 11, 68
3, 48911, Control_c, 1, 11, 64
3, 48927, Control_c, 1, 11, 61
3, 48934, Control_c, 1, 11, 58
3, 48941, Control_c, 1, 11, 55
3, 48949, Control_c, 1, 11, 52
3, 48956, Control_c, 1, 11, 49
3, 48962, Note_on_c, 1, 72, 0
3, 48962, Note_on_c, 1, 78, 0
3, 48962, Note_on_c, 1, 67, 98
3, 48962, Note_on_c, 1, 79, 98
3, 49082, Note_on_c, 1, 79, 0
3, 49082, Note_on_c, 1, 67, 0
3, 49082, Note_on_c, 1, 76, 98
3, 49082, Note_on_c, 1, 72, 98
3, 49202, Note_on_c, 1, 72, 0
3, 49202, Note_on_c, 1, 76, 0
3, 49202, Note_on_c, 1, 74, 98
3, 49202, Note_on_c, 1, 71, 98
3, 49322, Note_on_c, 1, 71, 0
3, 49322, Note_on_c, 1, 74, 0
3, 49322, Note_on_c, 1, 72, 98
3, 49322, Note_on_c, 1, 69, 98
3, 49442, Note_on_c, 1, 69, 0
3, 49442, Note_on_c, 1, 72, 0
3, 49442, Note_on_c, 1, 71, 98
3, 49442, Note_on_c, 1, 67, 98
3, 49562, Note_on_c, 1, 67, 0
3, 49562, Note_on_c, 1, 71, 0
3, 49562, Note_on_c, 1, 72, 98
3, 49562, Note_on_c, 1, 69, 98
3, 49682, Note_on_c, 1, 69, 0
3, 49682, Note_on_c, 1, 72, 0
3, 49682, Note_on_c, 1, 71, 98
3, 49682, Note_on_c, 1, 74, 98
3, 49792, Note_on_c, 1, 74, 0
3, 49792, Note_on_c, 1, 71, 0
3, 49802, Note_on_c, 1, 72, 98
3, 49802, Control_c, 1, 11, 85
3, 49802, Note_on_c, 1, 69, 98
3, 49809, Control_c, 1, 11, 82
3, 49825, Control_c, 1, 11, 78
3, 49835, Control_c, 1, 11, 75
3, 49847, Control_c, 1, 11, 71
3, 49859, Control_c, 1, 11, 68
3, 49871, Control_c, 1, 11, 64
3, 49887, Control_c, 1, 11, 61
3, 49894, Control_c, 1, 11, 58
3, 49901, Control_c, 1, 11, 55
3, 49909, Control_c, 1, 11, 52
3, 49916, Control_c, 1, 11, 49
3, 49922, Note_on_c, 1, 69, 0
3, 49922, Note_on_c, 1, 72, 0
3, 49922, Note_on_c, 1, 71, 98
3, 49922, Note_on_c, 1, 67, 98
3, 49982, Note_on_c, 1, 67, 0
3, 49982, Note_on_c, 1, 71, 0
3, 50042, Note_on_c, 1, 76, 98
3, 50042, Note_on_c, 1, 72, 98
3, 50162, Note_on_c, 1, 72, 0
3, 50162, Note_on_c, 1, 76, 0
3, 50162, Note_on_c, 1, 74, 98
3, 50162, Note_on_c, 1, 71, 98
3, 50282, Note_on_c, 1, 71, 0
3, 50282, Note_on_c, 1, 74, 0
3, 50282, Control_c, 1, 11, 85
3, 50282, Note_on_c, 1, 72, 98
3, 50282, Note_on_c, 1, 69, 98
3, 50289, Control_c, 1, 11, 82
3, 50305, Control_c, 1, 11, 78
3, 50315, Control_c, 1, 11, 75
3, 50327, Control_c, 1, 11, 71
3, 50339, Control_c, 1, 11, 68
3, 50351, Control_c, 1, 11, 64
3, 50367, Control_c, 1, 11, 61
3, 50374, Control_c, 1, 11, 58
3, 50381, Control_c, 1, 11, 55
3, 50389, Control_c, 1, 11, 52
3, 50396, Control_c, 1, 11, 49
3, 50402, Note_on_c, 1, 69, 0
3, 50402, Note_on_c, 1, 72, 0
3, 50402, Note_on_c, 1, 67, 98
3, 50402, Note_on_c, 1, 71, 98
3, 50462, Note_on_c, 1, 71, 0
3, 50462, Note_on_c, 1, 67, 0
3, 50522, Note_on_c, 1, 76, 98
3, 50522, Note_on_c, 1, 72, 98
3, 50642, Note_on_c, 1, 72, 0
3, 50642, Note_on_c, 1, 76, 0
3, 50642, Note_on_c, 1, 71, 98
3, 50642, Note_on_c, 1, 74, 98
3, 50762, Note_on_c, 1, 74, 0
3, 50762, Note_on_c, 1, 71, 0
3, 50762, Control_c, 1, 11, 89
3, 50762, Note_on_c, 1, 69, 98
3, 50762, Note_on_c, 1, 72, 98
3, 50882, Note_on_c, 1, 72, 0
3, 50882, Note_on_c, 1, 69, 0
3, 50882, Note_on_c, 1, 71, 98
3, 50882, Note_on_c, 1, 67, 98
3, 51002, Note_on_c, 1, 67, 0
3, 51002, Note_on_c, 1, 71, 0
3, 51002, Control_c, 1, 11, 89
3, 51017, Control_c, 1, 11, 89
3, 51033, Control_c, 1, 11, 87
3, 51049, Control_c, 1, 11, 86
3, 51065, Control_c, 1, 11, 86
3, 51081, Control_c, 1, 11, 85
3, 51097, Control_c, 1, 11, 84
3, 51113, Control_c, 1, 11, 84
3, 51122, Note_on_c, 1, 79, 88
3, 51129, Control_c, 1, 11, 82
3, 51145, Control_c, 1, 11, 82
3, 51161, Control_c, 1, 11, 82
3, 51177, Control_c, 1, 11, 80
3, 51193, Control_c, 1, 11, 80
3, 51209, Control_c, 1, 11, 80
3, 51225, Control_c, 1, 11, 80
3, 51241, Control_c, 1, 11, 78
3, 51259, Control_c, 1, 11, 77
3, 51276, Control_c, 1, 11, 77
3, 51293, Control_c, 1, 11, 76
3, 51310, Control_c, 1, 11, 75
3, 51327, Control_c, 1, 11, 75
3, 51344, Control_c, 1, 11, 73
3, 51361, Control_c, 1, 11, 73
3, 51362, Note_on_c, 1, 79, 0
3, 51362, Note_on_c, 1, 77, 88
3, 51378, Control_c, 1, 11, 73
3, 51396, Control_c, 1, 11, 71
3, 51413, Control_c, 1, 11, 71
3, 51430, Control_c, 1, 11, 71
3, 51447, Control_c, 1, 11, 71
3, 51464, Control_c, 1, 11, 69
3, 51481, Control_c, 1, 11, 68
3, 51498, Control_c, 1, 11, 68
3, 51515, Control_c, 1, 11, 67
3, 51532, Control_c, 1, 11, 66
3, 51550, Control_c, 1, 11, 66
3, 51567, Control_c, 1, 11, 64
3, 51584, Control_c, 1, 11, 64
3, 51601, Control_c, 1, 11, 64
3, 51602, Note_on_c, 1, 77, 0
3, 51602, Note_on_c, 1, 74, 88
3, 51618, Control_c, 1, 11, 62
3, 51635, Control_c, 1, 11, 62
3, 51652, Control_c, 1, 11, 62
3, 51669, Control_c, 1, 11, 62
3, 51686, Control_c, 1, 11, 61
3, 51704, Control_c, 1, 11, 60
3, 51721, Control_c, 1, 11, 59
3, 51738, Control_c, 1, 11, 58
3, 51755, Control_c, 1, 11, 57
3, 51772, Control_c, 1, 11, 56
3, 51789, Control_c, 1, 11, 55
3, 51806, Control_c, 1, 11, 54
3, 51823, Control_c, 1, 11, 53
3, 51841, Control_c, 1, 11, 52
3, 51842, Note_on_c, 1, 74, 0
3, 51842, Note_on_c, 1, 71, 88
3, 51905, Control_c, 1, 11, 51
3, 51969, Control_c, 1, 11, 50
3, 52033, Control_c, 1, 11, 49
3, 52082, Note_on_c, 1, 71, 0
3, 52082, Note_on_c, 1, 67, 88
3, 52082, Note_on_c, 1, 79, 88
3, 52097, Control_c, 1, 11, 48
3, 52161, Control_c, 1, 11, 47
3, 52225, Control_c, 1, 11, 46
3, 52289, Control_c, 1, 11, 45
3, 52322, Note_on_c, 1, 79, 0
3, 52322, Note_on_c, 1, 67, 0
3, 52322, Note_on_c, 1, 77, 88
3, 52322, Note_on_c, 1, 65, 88
3, 52353, Control_c, 1, 11, 44
3, 52417, Control_c, 1, 11, 43
3, 52481, Control_c, 1, 11, 42
3, 52545, Control_c, 1, 11, 41
3, 52562, Note_on_c, 1, 65, 0
3, 52562, Note_on_c, 1, 77, 0
3, 52562, Note_on_c, 1, 74, 88
3, 52562, Note_on_c, 1, 62, 88
3, 52609, Control_c, 1, 11, 40
3, 52673, Control_c, 1, 11, 39
3, 52737, Control_c, 1, 11, 38
3, 52801, Control_c, 1, 11, 37
3, 52802, Note_on_c, 1, 62, 0
3, 52802, Note_on_c, 1, 74, 0
3, 52802, Note_on_c, 1, 64, 74
3, 52802, Note_on_c, 1, 72, 74
3, 52862, Control_c, 1, 11, 47
3, 52869, Control_c, 1, 11, 44
3, 52876, Control_c, 1, 11, 41
3, 52883, Control_c, 1, 11, 38
3, 52890, Control_c, 1, 11, 35
3, 52897, Control_c, 1, 11, 32
3, 52904, Control_c, 1, 11, 29
3, 52911, Control_c, 1, 11, 26
3, 52918, Control_c, 1, 11, 23
3, 52922, Note_on_c, 1, 72, 0
3, 52922, Note_on_c, 1, 64, 0
3, 54722, Note_on_c, 1, 76, 78
3, 54722, Control_c, 1, 11, 32
3, 54733, Control_c, 1, 11, 35
3, 54744, Control_c, 1, 11, 38
3, 54755, Control_c, 1, 11, 41
3, 54767, Control_c, 1, 11, 44
3, 54778, Control_c, 1, 11, 47
3, 54818, Control_c, 1, 11, 50
3, 54850, Control_c, 1, 11, 51
3, 54882, Control_c, 1, 11, 52
3, 54914, Control_c, 1, 11, 53
3, 54946, Control_c, 1, 11, 54
3, 54978, Control_c, 1, 11, 55
3, 55010, Control_c, 1, 11, 56
3, 55042, Control_c, 1, 11, 57
3, 55074, Control_c, 1, 11, 58
3, 55106, Control_c, 1, 11, 59
3, 55138, Control_c, 1, 11, 60
3, 55170, Control_c, 1, 11, 61
3, 55202, Note_on_c, 1, 76, 0
3, 55202, Note_on_c, 1, 79, 78
3, 55202, Control_c, 1, 11, 62
3, 55202, Note_on_c, 1, 76, 78
3, 55234, Control_c, 1, 11, 62
3, 55266, Control_c, 1, 11, 62
3, 55298, Control_c, 1, 11, 62
3, 55330, Control_c, 1, 11, 64
3, 55362, Control_c, 1, 11, 64
3, 55394, Control_c, 1, 11, 64
3, 55426, Control_c, 1, 11, 66
3, 55458, Control_c, 1, 11, 66
3, 55490, Control_c, 1, 11, 67
3, 55522, Control_c, 1, 11, 68
3, 55554, Control_c, 1, 11, 68
3, 55562, Note_on_c, 1, 76, 0
3, 55562, Note_on_c, 1, 69, 78
3, 55586, Control_c, 1, 11, 69
3, 55618, Control_c, 1, 11, 71
3, 55642, Control_c, 1, 11, 71
3, 55652, Control_c, 1, 11, 68
3, 55666, Control_c, 1, 11, 64
3, 55682, Note_on_c, 1, 69, 0
3, 55682, Note_on_c, 1, 79, 0
3, 55682, Note_on_c, 1, 69, 62
3, 55682, Control_c, 1, 11, 62
3, 55682, Note_on_c, 1, 77, 62
3, 55802, Note_on_c, 1, 77, 0
3, 55802, Note_on_c, 1, 69, 0
3, 57602, Control_c, 1, 11, 32
3, 57602, Note_on_c, 1, 77, 78
3, 57602, Note_on_c, 1, 81, 78
3, 57621, Control_c, 1, 11, 35
3, 57640, Control_c, 1, 11, 38
3, 57659, Control_c, 1, 11, 41
3, 57686, Control_c, 1, 11, 43
3, 57707, Control_c, 1, 11, 44
3, 57728, Control_c, 1, 11, 45
3, 57749, Control_c, 1, 11, 46
3, 57770, Control_c, 1, 11, 47
3, 57790, Control_c, 1, 11, 48
3, 57811, Control_c, 1, 11, 49
3, 57832, Control_c, 1, 11, 50
3, 57853, Control_c, 1, 11, 51
3, 57874, Control_c, 1, 11, 52
3, 57894, Control_c, 1, 11, 53
3, 57915, Control_c, 1, 11, 54
3, 57936, Control_c, 1, 11, 55
3, 57957, Control_c, 1, 11, 56
3, 57978, Control_c, 1, 11, 57
3, 57998, Control_c, 1, 11, 58
3, 58019, Control_c, 1, 11, 59
3, 58040, Control_c, 1, 11, 60
3, 58061, Control_c, 1, 11, 61
3, 58082, Note_on_c, 1, 81, 0
3, 58082, Control_c, 1, 11, 62
3, 58082, Note_on_c, 1, 80, 78
3, 58114, Control_c, 1, 11, 62
3, 58146, Control_c, 1, 11, 62
3, 58178, Control_c, 1, 11, 62
3, 58210, Control_c, 1, 11, 64
3, 58242, Control_c, 1, 11, 64
3, 58274, Control_c, 1, 11, 64
3, 58306, Control_c, 1, 11, 66
3, 58338, Control_c, 1, 11, 66
3, 58370, Control_c, 1, 11, 67
3, 58402, Control_c, 1, 11, 68
3, 58434, Control_c, 1, 11, 68
3, 58466, Control_c, 1, 11, 69
3, 58498, Control_c, 1, 11, 71
3, 58530, Control_c, 1, 11, 71
3, 58562, Note_on_c, 1, 80, 0
3, 58562, Note_on_c, 1, 77, 0
3, 58562, Note_on_c, 1, 79, 98
3, 58562, Note_on_c, 1, 77, 98
3, 58562, Control_c, 1, 11, 78
3, 58580, Control_c, 1, 11, 76
3, 58598, Control_c, 1, 11, 73
3, 58616, Control_c, 1, 11, 71
3, 58634, Control_c, 1, 11, 71
3, 58646, Control_c, 1, 11, 68
3, 58664, Control_c, 1, 11, 66
3, 58682, Control_c, 1, 11, 64
3, 58703, Control_c, 1, 11, 62
3, 58725, Control_c, 1, 11, 61
3, 58746, Control_c, 1, 11, 58
3, 58768, Control_c, 1, 11, 55
3, 58789, Control_c, 1, 11, 52
3, 58811, Control_c, 1, 11, 49
3, 58832, Control_c, 1, 11, 46
3, 58854, Control_c, 1, 11, 43
3, 58875, Control_c, 1, 11, 40
3, 58897, Note_on_c, 1, 77, 0
3, 58897, Note_on_c, 1, 79, 0
3, 58897, Control_c, 1, 11, 37
3, 59522, Control_c, 1, 11, 85
3, 59522, Note_on_c, 1, 77, 98
3, 59522, Note_on_c, 1, 79, 98
3, 59540, Control_c, 1, 11, 82
3, 59558, Control_c, 1, 11, 80
3, 59576, Control_c, 1, 11, 80
3, 59588, Control_c, 1, 11, 77
3, 59606, Control_c, 1, 11, 75
3, 59624, Control_c, 1, 11, 73
3, 59642, Control_c, 1, 11, 71
3, 59658, Control_c, 1, 11, 69
3, 59674, Control_c, 1, 11, 67
3, 59690, Control_c, 1, 11, 64
3, 59706, Control_c, 1, 11, 62
3, 59722, Control_c, 1, 11, 62
3, 59738, Control_c, 1, 11, 59
3, 59754, Control_c, 1, 11, 56
3, 59771, Control_c, 1, 11, 53
3, 59787, Control_c, 1, 11, 50
3, 59803, Control_c, 1, 11, 47
3, 59819, Control_c, 1, 11, 44
3, 59835, Control_c, 1, 11, 41
3, 59851, Control_c, 1, 11, 38
3, 59857, Note_on_c, 1, 79, 0
3, 59857, Note_on_c, 1, 77, 0
3, 60482, Note_on_c, 1, 83, 88
3, 60482, Control_c, 1, 11, 85
3, 60482, Note_on_c, 1, 79, 88
3, 60500, Control_c, 1, 11, 82
3, 60518, Control_c, 1, 11, 80
3, 60536, Control_c, 1, 11, 80
3, 60548, Control_c, 1, 11, 77
3, 60566, Control_c, 1, 11, 75
3, 60584, Control_c, 1, 11, 73
3, 60602, Control_c, 1, 11, 71
3, 60962, Control_c, 1, 11, 71
3, 60981, Control_c, 1, 11, 71
3, 61000, Control_c, 1, 11, 73
3, 61019, Control_c, 1, 11, 73
3, 61038, Control_c, 1, 11, 73
3, 61057, Control_c, 1, 11, 75
3, 61072, Note_on_c, 1, 79, 0
3, 61072, Note_on_c, 1, 83, 0
3, 61076, Control_c, 1, 11, 75
3, 61082, Note_on_c, 1, 79, 79
3, 61082, Note_on_c, 1, 83, 79
3, 61096, Control_c, 1, 11, 76
3, 61115, Control_c, 1, 11, 77
3, 61134, Control_c, 1, 11, 77
3, 61153, Control_c, 1, 11, 78
3, 61172, Control_c, 1, 11, 80
3, 61191, Control_c, 1, 11, 80
3, 61192, Note_on_c, 1, 83, 0
3, 61192, Note_on_c, 1, 79, 0
3, 61202, Note_on_c, 1, 83, 79
3, 61202, Note_on_c, 1, 79, 79
3, 61211, Control_c, 1, 11, 80
3, 61230, Control_c, 1, 11, 80
3, 61249, Control_c, 1, 11, 82
3, 61268, Control_c, 1, 11, 82
3, 61287, Control_c, 1, 11, 82
3, 61306, Control_c, 1, 11, 84
3, 61312, Note_on_c, 1, 79, 0
3, 61312, Note_on_c, 1, 83, 0
3, 61322, Note_on_c, 1, 79, 79
3, 61322, Note_on_c, 1, 83, 79
3, 61326, Control_c, 1, 11, 84
3, 61345, Control_c, 1, 11, 85
3, 61364, Control_c, 1, 11, 86
3, 61383, Control_c, 1, 11, 86
3, 61402, Control_c, 1, 11, 87
3, 61421, Control_c, 1, 11, 89
3, 61432, Note_on_c, 1, 83, 0
3, 61432, Note_on_c, 1, 79, 0
3, 61441, Control_c, 1, 11, 89
3, 61442, Note_on_c, 1, 84, 88
3, 61442, Note_on_c, 1, 79, 88
3, 61502, Note_on_c, 1, 79, 0
3, 61502, Note_on_c, 1, 84, 0
3, 61682, Note_on_c, 1, 72, 88
3, 61682, Note_on_c, 1, 81, 88
3, 61742, Note_on_c, 1, 81, 0
3, 61742, Note_on_c, 1, 72, 0
3, 61922, Note_on_c, 1, 76, 88
3, 61922, Note_on_c, 1, 72, 88
3, 61982, Note_on_c, 1, 72, 0
3, 61982, Note_on_c, 1, 76, 0
3, 62162, Note_on_c, 1, 74, 88
3, 62162, Note_on_c, 1, 71, 88
3, 62222, Note_on_c, 1, 71, 0
3, 62222, Note_on_c, 1, 74, 0
3, 62402, Note_on_c, 1, 64, 88
3, 62402, Note_on_c, 1, 72, 88
3, 62462, Note_on_c, 1, 72, 0
3, 62462, Note_on_c, 1, 64, 0
3, 63002, Note_on_c, 1, 72, 113
3, 63002, Note_on_c, 1, 76, 113
3, 63112, Note_on_c, 1, 76, 0
3, 63112, Note_on_c, 1, 72, 0
3, 63122, Note_on_c, 1, 76, 113
3, 63122, Note_on_c, 1, 72, 113
3, 63232, Note_on_c, 1, 72, 0
3, 63232, Note_on_c, 1, 76, 0
3, 63242, Note_on_c, 1, 76, 113
3, 63242, Note_on_c, 1, 72, 113
3, 63352, Note_on_c, 1, 72, 0
3, 63352, Note_on_c, 1, 76, 0
3, 63362, Note_on_c, 1, 77, 113
3, 63362, Note_on_c, 1, 71, 113
3, 63962, Note_on_c, 1, 71, 0
3, 63962, Note_on_c, 1, 77, 0
3, 63962, Note_on_c, 1, 65, 113
3, 63962, Note_on_c, 1, 71, 113
3, 64072, Note_on_c, 1, 71, 0
3, 64072, Note_on_c, 1, 65, 0
3, 64082, Note_on_c, 1, 71, 113
3, 64082, Note_on_c, 1, 65, 113
3, 64192, Note_on_c, 1, 65, 0
3, 64192, Note_on_c, 1, 71, 0
3, 64202, Note_on_c, 1, 65, 113
3, 64202, Note_on_c, 1, 71, 113
3, 64312, Note_on_c, 1, 71, 0
3, 64312, Note_on_c, 1, 65, 0
3, 64322, Note_on_c, 1, 64, 101
3, 64322, Note_on_c, 1, 72, 101
3, 64322, Control_c, 1, 11, 89
3, 64442, Note_on_c, 1, 72, 0
3, 64442, Note_on_c, 1, 64, 0
3, 64922, Note_on_c, 1, 72, 113
3, 64922, Note_on_c, 1, 76, 113
3, 65032, Note_on_c, 1, 76, 0
3, 65032, Note_on_c, 1, 72, 0
3, 65042, Note_on_c, 1, 76, 113
3, 65042, Note_on_c, 1, 72, 113
3, 65152, Note_on_c, 1, 72, 0
3, 65152, Note_on_c, 1, 76, 0
3, 65162, Note_on_c, 1, 76, 113
3, 65162, Note_on_c, 1, 72, 113
3, 65272, Note_on_c, 1, 72, 0
3, 65272, Note_on_c, 1, 76, 0
3, 65282, Note_on_c, 1, 77, 113
3, 65282, Note_on_c, 1, 71, 113
3, 65882, Note_on_c, 1, 71, 0
3, 65882, Note_on_c, 1, 77, 0
3, 65882, Note_on_c, 1, 71, 113
3, 65882, Note_on_c, 1, 65, 113
3, 65992, Note_on_c, 1, 65, 0
3, 65992, Note_on_c, 1, 71, 0
3, 66002, Note_on_c, 1, 71, 113
3, 66002, Note_on_c, 1, 65, 113
3, 66112, Note_on_c, 1, 65, 0
3, 66112, Note_on_c, 1, 71, 0
3, 66122, Note_on_c, 1, 65, 113
3, 66122, Note_on_c, 1, 71, 113
3, 66232, Note_on_c, 1, 71, 0
3, 66232, Note_on_c, 1, 65, 0
3, 66242, Note_on_c, 1, 72, 101
3, 66242, Note_on_c, 1, 64, 101
3, 66362, Note_on_c, 1, 64, 0
3, 66362, Note_on_c, 1, 72, 0
3, 66602, Note_on_c, 1, 69, 98
3, 66602, Control_c, 1, 11, 78
3, 66632, Note_on_c, 1, 69, 0
3, 66662, Note_on_c, 1, 73, 98
3, 66692, Note_on_c, 1, 73, 0
3, 66722, Note_on_c, 1, 74, 98
3, 66842, Note_on_c, 1, 74, 0
3, 67082, Control_c, 1, 11, 78
3, 67082, Note_on_c, 1, 71, 98
3, 67112, Note_on_c, 1, 71, 0
3, 67142, Note_on_c, 1, 75, 98
3, 67154, Control_c, 1, 11, 80
3, 67172, Note_on_c, 1, 75, 0
3, 67202, Note_on_c, 1, 76, 98
3, 67226, Control_c, 1, 11, 80
3, 67252, Note_on_c, 1, 76, 0
3, 67262, Note_on_c, 1, 76, 98
3, 67298, Control_c, 1, 11, 80
3, 67312, Note_on_c, 1, 76, 0
3, 67322, Note_on_c, 1, 72, 98
3, 67370, Control_c, 1, 11, 80
3, 67372, Note_on_c, 1, 72, 0
3, 67382, Note_on_c, 1, 76, 98
3, 67432, Note_on_c, 1, 76, 0
3, 67442, Note_on_c, 1, 77, 98
3, 67442, Control_c, 1, 11, 82
3, 67492, Note_on_c, 1, 77, 0
3, 67502, Note_on_c, 1, 74, 98
3, 67514, Control_c, 1, 11, 82
3, 67552, Note_on_c, 1, 74, 0
3, 67562, Note_on_c, 1, 79, 98
3, 67586, Control_c, 1, 11, 82
3, 67612, Note_on_c, 1, 79, 0
3, 67622, Note_on_c, 1, 76, 98
3, 67658, Control_c, 1, 11, 84
3, 67672, Note_on_c, 1, 76, 0
3, 67682, Note_on_c, 1, 81, 98
3, 67730, Control_c, 1, 11, 84
3, 67732, Note_on_c, 1, 81, 0
3, 67742, Note_on_c, 1, 77, 98
3, 67792, Note_on_c, 1, 77, 0
3, 67802, Note_on_c, 1, 83, 98
3, 67802, Control_c, 1, 11, 85
3, 67852, Note_on_c, 1, 83, 0
3, 67862, Note_on_c, 1, 79, 98
3, 67874, Control_c, 1, 11, 86
3, 67912, Note_on_c, 1, 79, 0
3, 67922, Note_on_c, 1, 84, 98
3, 67946, Control_c, 1, 11, 86
3, 67972, Note_on_c, 1, 84, 0
3, 67982, Note_on_c, 1, 81, 98
3, 68018, Control_c, 1, 11, 87
3, 68032, Note_on_c, 1, 81, 0
3, 68042, Note_on_c, 1, 76, 98
3, 68090, Control_c, 1, 11, 89
3, 68092, Note_on_c, 1, 76, 0
3, 68102, Note_on_c, 1, 78, 98
3, 68152, Note_on_c, 1, 78, 0
3, 68162, Control_c, 1, 11, 89
3, 68162, Note_on_c, 1, 79, 98
3, 68282, Note_on_c, 1, 79, 0
3, 68702, Note_on_c, 1, 79, 98
3, 68732, Note_on_c, 1, 79, 0
3, 68762, Note_on_c, 1, 79, 98
3, 68792, Note_on_c, 1, 79, 0
3, 68822, Note_on_c, 1, 79, 98
3, 68852, Note_on_c, 1, 79, 0
3, 68882, Note_on_c, 1, 77, 98
3, 68942, Note_on_c, 1, 77, 0
3, 68942, Note_on_c, 1, 76, 98
3, 68992, Note_on_c, 1, 76, 0
3, 69002, Note_on_c, 1, 74, 98
3, 69032, Note_on_c, 1, 74, 0
3, 69062, Note_on_c, 1, 72, 98
3, 69092, Note_on_c, 1, 72, 0
3, 69122, Note_on_c, 1, 67, 98
3, 69242, Note_on_c, 1, 67, 0
3, 69662, Note_on_c, 1, 79, 98
3, 69692, Note_on_c, 1, 79, 0
3, 69722, Note_on_c, 1, 79, 98
3, 69752, Note_on_c, 1, 79, 0
3, 69782, Note_on_c, 1, 79, 98
3, 69812, Note_on_c, 1, 79, 0
3, 69842, Note_on_c, 1, 77, 98
3, 69902, Note_on_c, 1, 77, 0
3, 69902, Note_on_c, 1, 76, 98
3, 69952, Note_on_c, 1, 76, 0
3, 69962, Note_on_c, 1, 74, 98
3, 69992, Note_on_c, 1, 74, 0
3, 70022, Note_on_c, 1, 72, 98
3, 70052, Note_on_c, 1, 72, 0
3, 70082, Note_on_c, 1, 67, 98
3, 70202, Note_on_c, 1, 67, 0
3, 70202, Note_on_c, 1, 79, 98
3, 70202, Note_on_c, 1, 74, 98
3, 70322, Note_on_c, 1, 74, 0
3, 70322, Note_on_c, 1, 79, 0
3, 70442, Note_on_c, 1, 79, 98
3, 70442, Note_on_c, 1, 76, 98
3, 70562, Note_on_c, 1, 76, 0
3, 70562, Note_on_c, 1, 79, 0
3, 70682, Note_on_c, 1, 79, 98
3, 70682, Note_on_c, 1, 74, 98
3, 70802, Note_on_c, 1, 74, 0
3, 70802, Note_on_c, 1, 79, 0
3, 70922, Note_on_c, 1, 76, 98
3, 70922, Note_on_c, 1, 79, 98
3, 71042, Note_on_c, 1, 79, 0
3, 71042, Note_on_c, 1, 76, 0
3, 71042, Note_on_c, 1, 79, 98
3, 71042, Note_on_c, 1, 74, 98
3, 71162, Note_on_c, 1, 74, 0
3, 71162, Note_on_c, 1, 79, 0
3, 71282, Note_on_c, 1, 79, 98
3, 71402, Note_on_c, 1, 79, 0
3, 71522, Note_on_c, 1, 67, 98
3, 71642, Note_on_c, 1, 67, 0
3, 71882, Control_c, 1, 11, 42
3, 71882, Note_on_c, 1, 74, 98
3, 71906, Control_c, 1, 11, 44
3, 71930, Control_c, 1, 11, 46
3, 71954, Control_c, 1, 11, 48
3, 71978, Control_c, 1, 11, 50
3, 71992, Note_on_c, 1, 74, 0
3, 72002, Note_on_c, 1, 79, 98
3, 72002, Control_c, 1, 11, 52
3, 72302, Note_on_c, 1, 79, 0
3, 72302, Note_on_c, 1, 78, 98
3, 72362, Note_on_c, 1, 78, 0
3, 72362, Note_on_c, 1, 76, 98
3, 72422, Note_on_c, 1, 76, 0
3, 72422, Note_on_c, 1, 74, 98
3, 72472, Note_on_c, 1, 74, 0
3, 72482, Note_on_c, 1, 72, 98
3, 72602, Note_on_c, 1, 72, 0
3, 72962, Note_on_c, 1, 81, 98
3, 73262, Note_on_c, 1, 81, 0
3, 73262, Note_on_c, 1, 78, 98
3, 73322, Note_on_c, 1, 78, 0
3, 73322, Note_on_c, 1, 74, 98
3, 73382, Note_on_c, 1, 74, 0
3, 73382, Note_on_c, 1, 72, 98
3, 73432, Note_on_c, 1, 72, 0
3, 73442, Note_on_c, 1, 71, 98
3, 73562, Note_on_c, 1, 71, 0
3, 73922, Control_c, 1, 11, 52
3, 73922, Note_on_c, 1, 78, 88
3, 74042, Note_on_c, 1, 78, 0
3, 74042, Control_c, 1, 11, 71
3, 74042, Note_on_c, 1, 81, 62
3, 74061, Control_c, 1, 11, 71
3, 74080, Control_c, 1, 11, 68
3, 74099, Control_c, 1, 11, 67
3, 74118, Control_c, 1, 11, 66
3, 74138, Control_c, 1, 11, 64
3, 74157, Control_c, 1, 11, 62
3, 74176, Control_c, 1, 11, 62
3, 74195, Control_c, 1, 11, 61
3, 74214, Control_c, 1, 11, 59
3, 74234, Control_c, 1, 11, 57
3, 74253, Control_c, 1, 11, 55
3, 74272, Control_c, 1, 11, 53
3, 74282, Note_on_c, 1, 81, 0
3, 74282, Note_on_c, 1, 79, 62
3, 74392, Note_on_c, 1, 79, 0
3, 74402, Note_on_c, 1, 78, 62
3, 74522, Note_on_c, 1, 78, 0
3, 74522, Note_on_c, 1, 81, 62
3, 74522, Control_c, 1, 11, 71
3, 74541, Control_c, 1, 11, 71
3, 74560, Control_c, 1, 11, 68
3, 74579, Control_c, 1, 11, 67
3, 74598, Control_c, 1, 11, 66
3, 74618, Control_c, 1, 11, 64
3, 74637, Control_c, 1, 11, 62
3, 74656, Control_c, 1, 11, 62
3, 74675, Control_c, 1, 11, 61
3, 74694, Control_c, 1, 11, 59
3, 74714, Control_c, 1, 11, 57
3, 74733, Control_c, 1, 11, 55
3, 74752, Control_c, 1, 11, 53
3, 74762, Note_on_c, 1, 81, 0
3, 74762, Note_on_c, 1, 79, 62
3, 74872, Note_on_c, 1, 79, 0
3, 74882, Note_on_c, 1, 78, 70
3, 74992, Note_on_c, 1, 78, 0
3, 75002, Note_on_c, 1, 78, 98
3, 75122, Note_on_c, 1, 78, 0
3, 75122, Note_on_c, 1, 79, 98
3, 75242, Note_on_c, 1, 79, 0
3, 75242, Note_on_c, 1, 73, 98
3, 75352, Note_on_c, 1, 73, 0
3, 75362, Note_on_c, 1, 74, 98
3, 75482, Note_on_c, 1, 74, 0
3, 76322, Note_on_c, 1, 72, 98
3, 76622, Note_on_c, 1, 72, 0
3, 76622, Note_on_c, 1, 71, 98
3, 76682, Note_on_c, 1, 71, 0
3, 76682, Note_on_c, 1, 69, 98
3, 76742, Note_on_c, 1, 69, 0
3, 76742, Note_on_c, 1, 67, 98
3, 76792, Note_on_c, 1, 67, 0
3, 76802, Note_on_c, 1, 66, 98
3, 76922, Note_on_c, 1, 66, 0
3, 77882, Note_on_c, 1, 72, 79
3, 77882, Note_on_c, 1, 76, 79
3, 78002, Note_on_c, 1, 76, 0
3, 78002, Note_on_c, 1, 72, 0
3, 78002, Control_c, 1, 11, 71
3, 78002, Note_on_c, 1, 74, 79
3, 78002, Note_on_c, 1, 77, 79
3, 78021, Control_c, 1, 11, 71
3, 78040, Control_c, 1, 11, 68
3, 78059, Control_c, 1, 11, 67
3, 78078, Control_c, 1, 11, 66
3, 78098, Control_c, 1, 11, 64
3, 78117, Control_c, 1, 11, 62
3, 78136, Control_c, 1, 11, 62
3, 78155, Control_c, 1, 11, 61
3, 78174, Control_c, 1, 11, 59
3, 78194, Control_c, 1, 11, 57
3, 78213, Control_c, 1, 11, 55
3, 78232, Control_c, 1, 11, 53
3, 78352, Note_on_c, 1, 77, 0
3, 78352, Note_on_c, 1, 74, 0
3, 78362, Note_on_c, 1, 76, 79
3, 78362, Note_on_c, 1, 72, 79
3, 78482, Note_on_c, 1, 72, 0
3, 78482, Note_on_c, 1, 76, 0
3, 78482, Control_c, 1, 11, 71
3, 78482, Note_on_c, 1, 74, 79
3, 78482, Note_on_c, 1, 77, 79
3, 78501, Control_c, 1, 11, 71
3, 78520, Control_c, 1, 11, 68
3, 78539, Control_c, 1, 11, 67
3, 78558, Control_c, 1, 11, 66
3, 78578, Control_c, 1, 11, 64
3, 78597, Control_c, 1, 11, 62
3, 78616, Control_c, 1, 11, 62
3, 78635, Control_c, 1, 11, 61
3, 78654, Control_c, 1, 11, 59
3, 78674, Control_c, 1, 11, 57
3, 78693, Control_c, 1, 11, 55
3, 78712, Control_c, 1, 11, 53
3, 78832, Note_on_c, 1, 77, 0
3, 78832, Note_on_c, 1, 74, 0
3, 78842, Note_on_c, 1, 72, 88
3, 78842, Note_on_c, 1, 76, 88
3, 78962, Note_on_c, 1, 76, 0
3, 78962, Note_on_c, 1, 72, 0
3, 78962, Note_on_c, 1, 74, 88
3, 78962, Note_on_c, 1, 71, 88
3, 79082, Note_on_c, 1, 71, 0
3, 79082, Note_on_c, 1, 74, 0
3, 79082, Note_on_c, 1, 69, 88
3, 79082, Note_on_c, 1, 72, 88
3, 79192, Note_on_c, 1, 72, 0
3, 79192, Note_on_c, 1, 69, 0
3, 79202, Note_on_c, 1, 71, 88
3, 79202, Note_on_c, 1, 67, 88
3, 79442, Note_on_c, 1, 67, 0
3, 79442, Note_on_c, 1, 71, 0
3, 79442, Note_on_c, 1, 69, 98
3, 79442, Note_on_c, 1, 66, 98
3, 79662, Note_on_c, 1, 66, 0
3, 79662, Note_on_c, 1, 69, 0
3, 79682, Note_on_c, 1, 74, 98
3, 79682, Note_on_c, 1, 62, 98
3, 79682, Control_c, 1, 11, 78
3, 79802, Note_on_c, 1, 62, 0
3, 79802, Note_on_c, 1, 74, 0
3, 79922, Note_on_c, 1, 78, 98
3, 79922, Note_on_c, 1, 72, 98
3, 80042, Note_on_c, 1, 72, 0
3, 80042, Note_on_c, 1, 78, 0
3, 80162, Note_on_c, 1, 71, 98
3, 80162, Note_on_c, 1, 79, 98
3, 80282, Note_on_c, 1, 79, 0
3, 80282, Note_on_c, 1, 71, 0
3, 80402, Note_on_c, 1, 69, 98
3, 80462, Note_on_c, 1, 69, 0
3, 80462, Note_on_c, 1, 71, 98
3, 80522, Note_on_c, 1, 71, 0
3, 80522, Note_on_c, 1, 72, 98
3, 80582, Note_on_c, 1, 72, 0
3, 80582, Note_on_c, 1, 73, 98
3, 80632, Note_on_c, 1, 73, 0
3, 80642, Note_on_c, 1, 74, 98
3, 80642, Control_c, 1, 11, 91
3, 80666, Control_c, 1, 11, 91
3, 80690, Control_c, 1, 11, 89
3, 80714, Control_c, 1, 11, 89
3, 80738, Control_c, 1, 11, 86
3, 80762, Control_c, 1, 11, 85
3, 80786, Control_c, 1, 11, 84
3, 80810, Control_c, 1, 11, 82
3, 80834, Control_c, 1, 11, 80
3, 80858, Control_c, 1, 11, 80
3, 80872, Note_on_c, 1, 74, 0
3, 80882, Control_c, 1, 11, 91
3, 80882, Note_on_c, 1, 78, 98
3, 80882, Note_on_c, 1, 72, 98
3, 80906, Control_c, 1, 11, 91
3, 80930, Control_c, 1, 11, 89
3, 80954, Control_c, 1, 11, 89
3, 80978, Control_c, 1, 11, 86
3, 81002, Control_c, 1, 11, 85
3, 81026, Control_c, 1, 11, 84
3, 81050, Control_c, 1, 11, 82
3, 81074, Control_c, 1, 11, 80
3, 81098, Control_c, 1, 11, 80
3, 81112, Note_on_c, 1, 72, 0
3, 81112, Note_on_c, 1, 78, 0
3, 81122, Control_c, 1, 11, 91
3, 81122, Note_on_c, 1, 71, 98
3, 81122, Note_on_c, 1, 79, 98
3, 81140, Control_c, 1, 11, 89
3, 81158, Control_c, 1, 11, 89
3, 81170, Control_c, 1, 11, 86
3, 81188, Control_c, 1, 11, 84
3, 81206, Control_c, 1, 11, 82
3, 81224, Control_c, 1, 11, 80
3, 81242, Note_on_c, 1, 79, 0
3, 81242, Note_on_c, 1, 71, 0
3, 81242, Control_c, 1, 11, 78
3, 81362, Note_on_c, 1, 69, 98
3, 81422, Note_on_c, 1, 69, 0
3, 81422, Note_on_c, 1, 71, 98
3, 81482, Note_on_c, 1, 71, 0
3, 81482, Note_on_c, 1, 72, 98
3, 81542, Note_on_c, 1, 72, 0
3, 81542, Note_on_c, 1, 73, 98
3, 81592, Note_on_c, 1, 73, 0
3, 81602, Note_on_c, 1, 74, 98
3, 81602, Control_c, 1, 11, 91
3, 81620, Control_c, 1, 11, 91
3, 81638, Control_c, 1, 11, 89
3, 81656, Control_c, 1, 11, 89
3, 81674, Control_c, 1, 11, 86
3, 81692, Control_c, 1, 11, 85
3, 81710, Control_c, 1, 11, 84
3, 81728, Control_c, 1, 11, 82
3, 81746, Control_c, 1, 11, 80
3, 81764, Control_c, 1, 11, 80
3, 81772, Note_on_c, 1, 74, 0
3, 81782, Control_c, 1, 11, 78
3, 81782, Note_on_c, 1, 72, 98
3, 81832, Note_on_c, 1, 72, 0
3, 81842, Note_on_c, 1, 71, 98
3, 81892, Note_on_c, 1, 71, 0
3, 81902, Note_on_c, 1, 69, 98
3, 81952, Note_on_c, 1, 69, 0
3, 81962, Note_on_c, 1, 67, 98
3, 82012, Note_on_c, 1, 67, 0
3, 82022, Note_on_c, 1, 65, 98
3, 82072, Note_on_c, 1, 65, 0
3, 82082, Note_on_c, 1, 64, 98
3, 82132, Note_on_c, 1, 64, 0
3, 82142, Control_c, 1, 11, 91
3, 82142, Note_on_c, 1, 76, 98
3, 82160, Control_c, 1, 11, 89
3, 82178, Control_c, 1, 11, 89
3, 82190, Control_c, 1, 11, 86
3, 82208, Control_c, 1, 11, 84
3, 82226, Control_c, 1, 11, 82
3, 82244, Control_c, 1, 11, 80
3, 82252, Note_on_c, 1, 76, 0
3, 82262, Note_on_c, 1, 74, 98
3, 82262, Control_c, 1, 11, 78
3, 82312, Note_on_c, 1, 74, 0
3, 82322, Note_on_c, 1, 72, 98
3, 82372, Note_on_c, 1, 72, 0
3, 82382, Note_on_c, 1, 71, 98
3, 82432, Note_on_c, 1, 71, 0
3, 82442, Note_on_c, 1, 69, 98
3, 82492, Note_on_c, 1, 69, 0
3, 82502, Note_on_c, 1, 67, 98
3, 82552, Note_on_c, 1, 67, 0
3, 82562, Control_c, 1, 11, 78
3, 82562, Note_on_c, 1, 66, 98
3, 82594, Control_c, 1, 11, 80
3, 82612, Note_on_c, 1, 66, 0
3, 82622, Note_on_c, 1, 67, 98
3, 82626, Control_c, 1, 11, 80
3, 82658, Control_c, 1, 11, 80
3, 82672, Note_on_c, 1, 67, 0
3, 82682, Note_on_c, 1, 69, 98
3, 82690, Control_c, 1, 11, 80
3, 82722, Control_c, 1, 11, 82
3, 82732, Note_on_c, 1, 69, 0
3, 82742, Note_on_c, 1, 71, 98
3, 82754, Control_c, 1, 11, 82
3, 82786, Control_c, 1, 11, 82
3, 82792, Note_on_c, 1, 71, 0
3, 82802, Note_on_c, 1, 72, 98
3, 82818, Control_c, 1, 11, 84
3, 82850, Control_c, 1, 11, 84
3, 82852, Note_on_c, 1, 72, 0
3, 82862, Note_on_c, 1, 74, 98
3, 82882, Control_c, 1, 11, 85
3, 82912, Note_on_c, 1, 74, 0
3, 82914, Control_c, 1, 11, 86
3, 82922, Note_on_c, 1, 76, 98
3, 82946, Control_c, 1, 11, 86
3, 82972, Note_on_c, 1, 76, 0
3, 82978, Control_c, 1, 11, 87
3, 82982, Note_on_c, 1, 78, 98
3, 83010, Control_c, 1, 11, 89
3, 83032, Note_on_c, 1, 78, 0
3, 83042, Note_on_c, 1, 79, 98
3, 83042, Control_c, 1, 11, 89
3, 83102, Note_on_c, 1, 79, 0
3, 83162, Note_on_c, 1, 76, 88
3, 83162, Note_on_c, 1, 67, 88
3, 83222, Note_on_c, 1, 67, 0
3, 83222, Note_on_c, 1, 76, 0
3, 83282, Note_on_c, 1, 74, 88
3, 83282, Note_on_c, 1, 71, 88
3, 83342, Note_on_c, 1, 71, 0
3, 83342, Note_on_c, 1, 74, 0
3, 83402, Note_on_c, 1, 72, 88
3, 83402, Note_on_c, 1, 78, 88
3, 83462, Note_on_c, 1, 78, 0
3, 83462, Note_on_c, 1, 72, 0
3, 83522, Note_on_c, 1, 71, 70
3, 83522, Control_c, 1, 11, 78
3, 83522, Note_on_c, 1, 79, 70
3, 83552, Control_c, 1, 11, 78
3, 83569, Control_c, 1, 11, 75
3, 83587, Control_c, 1, 11, 73
3, 83605, Control_c, 1, 11, 71
3, 83614, Control_c, 1, 11, 68
3, 83632, Control_c, 1, 11, 66
3, 83642, Note_on_c, 1, 79, 0
3, 83642, Note_on_c, 1, 71, 0
3, 84482, Control_c, 1, 11, 27
3, 84482, Note_on_c, 1, 77, 113
3, 84492, Control_c, 1, 11, 30
3, 84503, Control_c, 1, 11, 33
3, 84513, Control_c, 1, 11, 36
3, 84524, Control_c, 1, 11, 39
3, 84534, Control_c, 1, 11, 42
3, 84564, Control_c, 1, 11, 45
3, 84591, Control_c, 1, 11, 46
3, 84619, Control_c, 1, 11, 47
3, 84646, Control_c, 1, 11, 48
3, 84674, Control_c, 1, 11, 49
3, 84701, Control_c, 1, 11, 51
3, 84728, Control_c, 1, 11, 52
3, 84756, Control_c, 1, 11, 53
3, 84783, Control_c, 1, 11, 55
3, 84811, Control_c, 1, 11, 56
3, 84838, Control_c, 1, 11, 57
3, 84866, Control_c, 1, 11, 59
3, 84893, Control_c, 1, 11, 60
3, 84920, Control_c, 1, 11, 61
3, 84948, Control_c, 1, 11, 62
3, 84975, Control_c, 1, 11, 63
3, 85003, Control_c, 1, 11, 64
3, 85030, Control_c, 1, 11, 65
3, 85058, Control_c, 1, 11, 65
3, 85085, Control_c, 1, 11, 66
3, 85112, Control_c, 1, 11, 66
3, 85140, Control_c, 1, 11, 68
3, 85167, Control_c, 1, 11, 68
3, 85195, Control_c, 1, 11, 68
3, 85222, Control_c, 1, 11, 71
3, 85250, Control_c, 1, 11, 71
3, 85277, Control_c, 1, 11, 72
3, 85304, Control_c, 1, 11, 73
3, 85322, Note_on_c, 1, 77, 0
3, 85322, Note_on_c, 1, 75, 113
3, 85332, Control_c, 1, 11, 73
3, 85359, Control_c, 1, 11, 75
3, 85382, Note_on_c, 1, 75, 0
3, 85382, Note_on_c, 1, 74, 113
3, 85387, Control_c, 1, 11, 77
3, 85414, Control_c, 1, 11, 77
3, 85432, Note_on_c, 1, 74, 0
3, 85442, Note_on_c, 1, 74, 113
3, 85442, Control_c, 1, 11, 77
3, 85458, Control_c, 1, 11, 77
3, 85474, Control_c, 1, 11, 77
3, 85487, Note_on_c, 1, 74, 0
3, 85487, Note_on_c, 1, 72, 113
3, 85490, Control_c, 1, 11, 75
3, 85506, Control_c, 1, 11, 73
3, 85522, Control_c, 1, 11, 73
3, 85532, Note_on_c, 1, 72, 0
3, 85538, Control_c, 1, 11, 72
3, 85554, Control_c, 1, 11, 71
3, 85562, Note_on_c, 1, 72, 113
3, 85570, Control_c, 1, 11, 71
3, 85586, Control_c, 1, 11, 68
3, 85602, Control_c, 1, 11, 68
3, 85618, Control_c, 1, 11, 68
3, 85634, Control_c, 1, 11, 66
3, 85650, Control_c, 1, 11, 66
3, 85652, Note_on_c, 1, 72, 0
3, 85666, Control_c, 1, 11, 65
3, 85682, Control_c, 1, 11, 65
3, 85682, Note_on_c, 1, 72, 113
3, 85698, Control_c, 1, 11, 64
3, 85714, Control_c, 1, 11, 63
3, 85730, Control_c, 1, 11, 62
3, 85746, Control_c, 1, 11, 61
3, 85762, Control_c, 1, 11, 60
3, 85772, Note_on_c, 1, 72, 0
3, 85778, Control_c, 1, 11, 59
3, 85794, Control_c, 1, 11, 57
3, 85802, Note_on_c, 1, 72, 113
3, 85810, Control_c, 1, 11, 56
3, 85826, Control_c, 1, 11, 55
3, 85842, Control_c, 1, 11, 53
3, 85858, Control_c, 1, 11, 52
3, 85874, Control_c, 1, 11, 51
3, 85890, Control_c, 1, 11, 49
3, 85892, Note_on_c, 1, 72, 0
3, 85906, Control_c, 1, 11, 48
3, 85922, Control_c, 1, 11, 27
3, 85922, Note_on_c, 1, 74, 98
3, 85931, Control_c, 1, 11, 30
3, 85941, Control_c, 1, 11, 33
3, 85950, Control_c, 1, 11, 36
3, 85960, Control_c, 1, 11, 39
3, 85969, Control_c, 1, 11, 42
3, 86004, Control_c, 1, 11, 45
3, 86031, Control_c, 1, 11, 46
3, 86059, Control_c, 1, 11, 47
3, 86086, Control_c, 1, 11, 48
3, 86114, Control_c, 1, 11, 49
3, 86141, Control_c, 1, 11, 51
3, 86168, Control_c, 1, 11, 52
3, 86196, Control_c, 1, 11, 53
3, 86223, Control_c, 1, 11, 55
3, 86251, Control_c, 1, 11, 56
3, 86278, Control_c, 1, 11, 57
3, 86306, Control_c, 1, 11, 59
3, 86333, Control_c, 1, 11, 60
3, 86360, Control_c, 1, 11, 61
3, 86388, Control_c, 1, 11, 62
3, 86415, Control_c, 1, 11, 63
3, 86443, Control_c, 1, 11, 64
3, 86470, Control_c, 1, 11, 65
3, 86498, Control_c, 1, 11, 65
3, 86525, Control_c, 1, 11, 66
3, 86552, Control_c, 1, 11, 66
3, 86580, Control_c, 1, 11, 68
3, 86607, Control_c, 1, 11, 68
3, 86635, Control_c, 1, 11, 68
3, 86662, Control_c, 1, 11, 71
3, 86690, Control_c, 1, 11, 71
3, 86717, Control_c, 1, 11, 72
3, 86744, Control_c, 1, 11, 73
3, 86762, Note_on_c, 1, 74, 0
3, 86762, Note_on_c, 1, 72, 98
3, 86772, Control_c, 1, 11, 73
3, 86799, Control_c, 1, 11, 75
3, 86822, Note_on_c, 1, 72, 0
3, 86822, Note_on_c, 1, 70, 98
3, 86827, Control_c, 1, 11, 77
3, 86854, Control_c, 1, 11, 77
3, 86872, Note_on_c, 1, 70, 0
3, 86882, Note_on_c, 1, 70, 98
3, 86882, Control_c, 1, 11, 77
3, 86897, Control_c, 1, 11, 77
3, 86913, Control_c, 1, 11, 77
3, 86927, Note_on_c, 1, 70, 0
3, 86927, Note_on_c, 1, 69, 98
3, 86929, Control_c, 1, 11, 75
3, 86945, Control_c, 1, 11, 73
3, 86961, Control_c, 1, 11, 73
3, 86972, Note_on_c, 1, 69, 0
3, 86977, Control_c, 1, 11, 72
3, 86993, Control_c, 1, 11, 71
3, 87002, Note_on_c, 1, 69, 98
3, 87009, Control_c, 1, 11, 71
3, 87025, Control_c, 1, 11, 68
3, 87041, Control_c, 1, 11, 68
3, 87057, Control_c, 1, 11, 68
3, 87073, Control_c, 1, 11, 66
3, 87089, Control_c, 1, 11, 66
3, 87092, Note_on_c, 1, 69, 0
3, 87105, Control_c, 1, 11, 65
3, 87121, Control_c, 1, 11, 65
3, 87122, Note_on_c, 1, 69, 98
3, 87137, Control_c, 1, 11, 64
3, 87153, Control_c, 1, 11, 63
3, 87169, Control_c, 1, 11, 62
3, 87185, Control_c, 1, 11, 61
3, 87201, Control_c, 1, 11, 60
3, 87212, Note_on_c, 1, 69, 0
3, 87217, Control_c, 1, 11, 59
3, 87233, Control_c, 1, 11, 57
3, 87242, Note_on_c, 1, 69, 98
3, 87249, Control_c, 1, 11, 56
3, 87265, Control_c, 1, 11, 55
3, 87281, Control_c, 1, 11, 53
3, 87297, Control_c, 1, 11, 52
3, 87313, Control_c, 1, 11, 51
3, 87329, Control_c, 1, 11, 49
3, 87332, Note_on_c, 1, 69, 0
3, 87345, Control_c, 1, 11, 48
3, 87361, Control_c, 1, 11, 47
3, 87362, Note_on_c, 1, 72, 98
3, 87362, Note_on_c, 1, 78, 98
3, 87362, Control_c, 1, 11, 42
3, 87394, Control_c, 1, 11, 43
3, 87426, Control_c, 1, 11, 44
3, 87458, Control_c, 1, 11, 45
3, 87490, Control_c, 1, 11, 46
3, 87522, Control_c, 1, 11, 47
3, 87554, Control_c, 1, 11, 48
3, 87586, Control_c, 1, 11, 49
3, 87618, Control_c, 1, 11, 50
3, 87650, Control_c, 1, 11, 51
3, 87682, Control_c, 1, 11, 52
3, 87714, Control_c, 1, 11, 53
3, 87746, Control_c, 1, 11, 54
3, 87778, Control_c, 1, 11, 55
3, 87810, Control_c, 1, 11, 56
3, 87842, Note_on_c, 1, 78, 0
3, 87842, Note_on_c, 1, 72, 0
3, 87842, Control_c, 1, 11, 57
3, 87842, Note_on_c, 1, 79, 98
3, 87842, Note_on_c, 1, 71, 98
3, 87874, Control_c, 1, 11, 58
3, 87906, Control_c, 1, 11, 59
3, 87938, Control_c, 1, 11, 60
3, 87970, Control_c, 1, 11, 61
3, 88002, Control_c, 1, 11, 62
3, 88034, Control_c, 1, 11, 62
3, 88066, Control_c, 1, 11, 62
3, 88098, Control_c, 1, 11, 62
3, 88130, Control_c, 1, 11, 64
3, 88162, Control_c, 1, 11, 64
3, 88194, Control_c, 1, 11, 64
3, 88226, Control_c, 1, 11, 66
3, 88258, Control_c, 1, 11, 66
3, 88290, Control_c, 1, 11, 67
3, 88322, Note_on_c, 1, 71, 0
3, 88322, Control_c, 1, 11, 68
3, 88322, Note_on_c, 1, 69, 98
3, 88354, Control_c, 1, 11, 68
3, 88386, Control_c, 1, 11, 69
3, 88418, Control_c, 1, 11, 71
3, 88450, Control_c, 1, 11, 71
3, 88482, Control_c, 1, 11, 71
3, 88514, Control_c, 1, 11, 71
3, 88546, Control_c, 1, 11, 73
3, 88562, Note_on_c, 1, 79, 0
3, 88562, Note_on_c, 1, 78, 98
3, 88578, Control_c, 1, 11, 73
3, 88610, Control_c, 1, 11, 73
3, 88642, Control_c, 1, 11, 75
3, 88674, Control_c, 1, 11, 75
3, 88706, Control_c, 1, 11, 76
3, 88738, Control_c, 1, 11, 77
3, 88770, Control_c, 1, 11, 77
3, 88792, Note_on_c, 1, 78, 0
3, 88802, Note_on_c, 1, 69, 0
3, 88802, Control_c, 1, 11, 100
3, 88802, Note_on_c, 1, 67, 98
3, 88802, Note_on_c, 1, 79, 98
3, 88826, Control_c, 1, 11, 98
3, 88850, Control_c, 1, 11, 96
3, 88874, Control_c, 1, 11, 94
3, 88898, Control_c, 1, 11, 91
3, 88922, Control_c, 1, 11, 89
3, 89152, Note_on_c, 1, 79, 0
3, 89152, Note_on_c, 1, 67, 0
3, 89162, Note_on_c, 1, 62, 98
3, 89162, Note_on_c, 1, 74, 98
3, 89252, Note_on_c, 1, 74, 0
3, 89252, Note_on_c, 1, 62, 0
3, 89252, Note_on_c, 1, 78, 98
3, 89252, Note_on_c, 1, 66, 98
3, 89272, Note_on_c, 1, 66, 0
3, 89272, Note_on_c, 1, 78, 0
3, 89282, Note_on_c, 1, 79, 98
3, 89282, Control_c, 1, 11, 91
3, 89282, Note_on_c, 1, 67, 98
3, 89306, Control_c, 1, 11, 91
3, 89330, Control_c, 1, 11, 89
3, 89354, Control_c, 1, 11, 89
3, 89378, Control_c, 1, 11, 86
3, 89402, Control_c, 1, 11, 85
3, 89426, Control_c, 1, 11, 84
3, 89450, Control_c, 1, 11, 82
3, 89474, Control_c, 1, 11, 80
3, 89498, Control_c, 1, 11, 80
3, 89522, Control_c, 1, 11, 78
3, 89632, Note_on_c, 1, 67, 0
3, 89632, Note_on_c, 1, 79, 0
3, 89642, Note_on_c, 1, 62, 98
3, 89642, Note_on_c, 1, 74, 98
3, 89732, Note_on_c, 1, 74, 0
3, 89732, Note_on_c, 1, 62, 0
3, 89732, Note_on_c, 1, 78, 98
3, 89732, Note_on_c, 1, 66, 98
3, 89752, Note_on_c, 1, 66, 0
3, 89752, Note_on_c, 1, 78, 0
3, 89762, Control_c, 1, 11, 91
3, 89762, Note_on_c, 1, 67, 98
3, 89762, Note_on_c, 1, 79, 98
3, 89780, Control_c, 1, 11, 89
3, 89798, Control_c, 1, 11, 89
3, 89810, Control_c, 1, 11, 86
3, 89822, Note_on_c, 1, 79, 0
3, 89822, Note_on_c, 1, 67, 0
3, 89828, Control_c, 1, 11, 84
3, 89846, Control_c, 1, 11, 82
3, 89864, Control_c, 1, 11, 80
3, 89882, Control_c, 1, 11, 78
3, 90002, Control_c, 1, 11, 91
3, 90002, Note_on_c, 1, 78, 98
3, 90002, Note_on_c, 1, 69, 98
3, 90019, Control_c, 1, 11, 89
3, 90037, Control_c, 1, 11, 89
3, 90049, Control_c, 1, 11, 86
3, 90062, Note_on_c, 1, 69, 0
3, 90062, Note_on_c, 1, 78, 0
3, 90067, Control_c, 1, 11, 84
3, 90085, Control_c, 1, 11, 82
3, 90103, Control_c, 1, 11, 80
3, 90121, Control_c, 1, 11, 78
3, 90242, Control_c, 1, 11, 91
3, 90242, Note_on_c, 1, 79, 98
3, 90242, Note_on_c, 1, 71, 98
3, 90259, Control_c, 1, 11, 89
3, 90277, Control_c, 1, 11, 89
3, 90289, Control_c, 1, 11, 86
3, 90302, Note_on_c, 1, 71, 0
3, 90302, Note_on_c, 1, 79, 0
3, 90307, Control_c, 1, 11, 84
3, 90325, Control_c, 1, 11, 82
3, 90343, Control_c, 1, 11, 80
3, 90361, Control_c, 1, 11, 78
3, 90482, Control_c, 1, 11, 91
3, 90482, Note_on_c, 1, 78, 98
3, 90482, Note_on_c, 1, 72, 98
3, 90499, Control_c, 1, 11, 89
3, 90517, Control_c, 1, 11, 89
3, 90529, Control_c, 1, 11, 86
3, 90542, Note_on_c, 1, 72, 0
3, 90542, Note_on_c, 1, 78, 0
3, 90547, Control_c, 1, 11, 84
3, 90565, Control_c, 1, 11, 82
3, 90583, Control_c, 1, 11, 80
3, 90601, Control_c, 1, 11, 78
3, 90722, Control_c, 1, 11, 78
3, 90722, Note_on_c, 1, 79, 88
3, 90722, Note_on_c, 1, 74, 88
3, 91192, Note_on_c, 1, 74, 0
3, 91192, Note_on_c, 1, 79, 0
3, 91202, Note_on_c, 1, 75, 88
3, 91202, Note_on_c, 1, 78, 88
3, 91672, Note_on_c, 1, 78, 0
3, 91672, Note_on_c, 1, 75, 0
3, 91682, Note_on_c, 1, 76, 88
3, 91682, Control_c, 1, 11, 89
3, 91682, Note_on_c, 1, 71, 88
3, 92152, Note_on_c, 1, 71, 0
3, 92152, Note_on_c, 1, 76, 0
3, 92162, Note_on_c, 1, 77, 88
3, 92282, Note_on_c, 1, 77, 0
3, 92282, Note_on_c, 1, 74, 88
3, 92402, Note_on_c, 1, 74, 0
3, 92402, Note_on_c, 1, 71, 88
3, 92522, Note_on_c, 1, 71, 0
3, 92522, Note_on_c, 1, 68, 88
3, 92632, Note_on_c, 1, 68, 0
3, 92642, Note_on_c, 1, 69, 88
3, 92642, Note_on_c, 1, 76, 88
3, 93122, Note_on_c, 1, 76, 0
3, 93122, Note_on_c, 1, 69, 0
3, 93122, Note_on_c, 1, 82, 88
3, 93242, Note_on_c, 1, 82, 0
3, 93242, Note_on_c, 1, 79, 88
3, 93362, Note_on_c, 1, 79, 0
3, 93362, Note_on_c, 1, 76, 88
3, 93482, Note_on_c, 1, 76, 0
3, 93482, Note_on_c, 1, 73, 88
3, 93592, Note_on_c, 1, 73, 0
3, 93602, Note_on_c, 1, 74, 88
3, 93602, Control_c, 1, 11, 102
3, 93619, Control_c, 1, 11, 100
3, 93637, Control_c, 1, 11, 98
3, 93655, Control_c, 1, 11, 96
3, 93673, Control_c, 1, 11, 94
3, 93691, Control_c, 1, 11, 91
3, 93709, Control_c, 1, 11, 89
3, 93832, Note_on_c, 1, 74, 0
3, 93842, Note_on_c, 1, 76, 88
3, 93842, Control_c, 1, 11, 102
3, 93859, Control_c, 1, 11, 100
3, 93877, Control_c, 1, 11, 98
3, 93895, Control_c, 1, 11, 96
3, 93913, Control_c, 1, 11, 94
3, 93931, Control_c, 1, 11, 91
3, 93949, Control_c, 1, 11, 89
3, 94072, Note_on_c, 1, 76, 0
3, 94082, Control_c, 1, 11, 102
3, 94082, Note_on_c, 1, 72, 88
3, 94099, Control_c, 1, 11, 100
3, 94117, Control_c, 1, 11, 98
3, 94135, Control_c, 1, 11, 96
3, 94153, Control_c, 1, 11, 94
3, 94171, Control_c, 1, 11, 91
3, 94189, Control_c, 1, 11, 89
3, 94312, Note_on_c, 1, 72, 0
3, 94322, Note_on_c, 1, 74, 88
3, 94322, Control_c, 1, 11, 102
3, 94339, Control_c, 1, 11, 100
3, 94357, Control_c, 1, 11, 98
3, 94375, Control_c, 1, 11, 96
3, 94393, Control_c, 1, 11, 94
3, 94411, Control_c, 1, 11, 91
3, 94429, Control_c, 1, 11, 89
3, 94502, Control_c, 1, 11, 78
3, 94520, Control_c, 1, 11, 75
3, 94538, Control_c, 1, 11, 73
3, 94552, Note_on_c, 1, 74, 0
3, 94556, Control_c, 1, 11, 71
3, 94562, Note_on_c, 1, 67, 88
3, 94565, Control_c, 1, 11, 68
3, 94583, Control_c, 1, 11, 66
3, 94601, Control_c, 1, 11, 62
3, 94619, Control_c, 1, 11, 61
3, 94632, Control_c, 1, 11, 58
3, 94646, Control_c, 1, 11, 55
3, 94659, Control_c, 1, 11, 52
3, 94672, Note_on_c, 1, 67, 0
3, 94673, Control_c, 1, 11, 49
3, 94682, Note_on_c, 1, 76, 98
3, 94682, Note_on_c, 1, 72, 98
3, 94802, Note_on_c, 1, 72, 0
3, 94802, Note_on_c, 1, 76, 0
3, 94802, Note_on_c, 1, 74, 98
3, 94802, Note_on_c, 1, 71, 98
3, 94922, Note_on_c, 1, 71, 0
3, 94922, Note_on_c, 1, 74, 0
3, 94922, Note_on_c, 1, 69, 98
3, 94922, Note_on_c, 1, 72, 98
3, 95042, Note_on_c, 1, 72, 0
3, 95042, Note_on_c, 1, 69, 0
3, 95042, Note_on_c, 1, 67, 98
3, 95042, Note_on_c, 1, 71, 98
3, 95162, Note_on_c, 1, 71, 0
3, 95162, Note_on_c, 1, 67, 0
3, 95162, Note_on_c, 1, 72, 98
3, 95162, Note_on_c, 1, 69, 98
3, 95282, Note_on_c, 1, 69, 0
3, 95282, Note_on_c, 1, 72, 0
3, 95282, Note_on_c, 1, 74, 98
3, 95282, Note_on_c, 1, 71, 98
3, 95392, Note_on_c, 1, 71, 0
3, 95392, Note_on_c, 1, 74, 0
3, 95402, Control_c, 1, 11, 85
3, 95402, Note_on_c, 1, 72, 98
3, 95402, Note_on_c, 1, 78, 98
3, 95409, Control_c, 1, 11, 82
3, 95425, Control_c, 1, 11, 78
3, 95435, Control_c, 1, 11, 75
3, 95447, Control_c, 1, 11, 71
3, 95459, Control_c, 1, 11, 68
3, 95471, Control_c, 1, 11, 64
3, 95487, Control_c, 1, 11, 61
3, 95494, Control_c, 1, 11, 58
3, 95501, Control_c, 1, 11, 55
3, 95509, Control_c, 1, 11, 52
3, 95516, Control_c, 1, 11, 49
3, 95522, Note_on_c, 1, 78, 0
3, 95522, Note_on_c, 1, 72, 0
3, 95522, Note_on_c, 1, 67, 98
3, 95522, Note_on_c, 1, 79, 98
3, 95642, Note_on_c, 1, 79, 0
3, 95642, Note_on_c, 1, 67, 0
3, 95642, Note_on_c, 1, 76, 98
3, 95642, Note_on_c, 1, 72, 98
3, 95762, Note_on_c, 1, 72, 0
3, 95762, Note_on_c, 1, 76, 0
3, 95762, Note_on_c, 1, 74, 98
3, 95762, Note_on_c, 1, 71, 98
3, 95882, Note_on_c, 1, 71, 0
3, 95882, Note_on_c, 1, 74, 0
3, 95882, Note_on_c, 1, 72, 98
3, 95882, Note_on_c, 1, 69, 98
3, 96002, Note_on_c, 1, 69, 0
3, 96002, Note_on_c, 1, 72, 0
3, 96002, Note_on_c, 1, 67, 98
3, 96002, Note_on_c, 1, 71, 98
3, 96122, Note_on_c, 1, 71, 0
3, 96122, Note_on_c, 1, 67, 0
3, 96122, Note_on_c, 1, 72, 98
3, 96122, Note_on_c, 1, 69, 98
3, 96242, Note_on_c, 1, 69, 0
3, 96242, Note_on_c, 1, 72, 0
3, 96242, Note_on_c, 1, 74, 98
3, 96242, Note_on_c, 1, 71, 98
3, 96352, Note_on_c, 1, 71, 0
3, 96352, Note_on_c, 1, 74, 0
3, 96362, Note_on_c, 1, 69, 98
3, 96362, Control_c, 1, 11, 85
3, 96362, Note_on_c, 1, 72, 98
3, 96369, Control_c, 1, 11, 82
3, 96385, Control_c, 1, 11, 78
3, 96395, Control_c, 1, 11, 75
3, 96407, Control_c, 1, 11, 71
3, 96419, Control_c, 1, 11, 68
3, 96431, Control_c, 1, 11, 64
3, 96447, Control_c, 1, 11, 61
3, 96454, Control_c, 1, 11, 58
3, 96461, Control_c, 1, 11, 55
3, 96469, Control_c, 1, 11, 52
3, 96476, Control_c, 1, 11, 49
3, 96482, Note_on_c, 1, 72, 0
3, 96482, Note_on_c, 1, 69, 0
3, 96482, Note_on_c, 1, 67, 98
3, 96482, Note_on_c, 1, 71, 98
3, 96542, Note_on_c, 1, 71, 0
3, 96542, Note_on_c, 1, 67, 0
3, 96602, Note_on_c, 1, 76, 98
3, 96602, Note_on_c, 1, 72, 98
3, 96722, Note_on_c, 1, 72, 0
3, 96722, Note_on_c, 1, 76, 0
3, 96722, Note_on_c, 1, 74, 98
3, 96722, Note_on_c, 1, 71, 98
3, 96842, Note_on_c, 1, 71, 0
3, 96842, Note_on_c, 1, 74, 0
3, 96842, Control_c, 1, 11, 85
3, 96842, Note_on_c, 1, 69, 98
3, 96842, Note_on_c, 1, 72, 98
3, 96849, Control_c, 1, 11, 82
3, 96865, Control_c, 1, 11, 78
3, 96875, Control_c, 1, 11, 75
3, 96887, Control_c, 1, 11, 71
3, 96899, Control_c, 1, 11, 68
3, 96911, Control_c, 1, 11, 64
3, 96927, Control_c, 1, 11, 61
3, 96934, Control_c, 1, 11, 58
3, 96941, Control_c, 1, 11, 55
3, 96949, Control_c, 1, 11, 52
3, 96956, Control_c, 1, 11, 49
3, 96962, Note_on_c, 1, 72, 0
3, 96962, Note_on_c, 1, 69, 0
3, 96962, Note_on_c, 1, 67, 98
3, 96962, Note_on_c, 1, 71, 98
3, 97022, Note_on_c, 1, 71, 0
3, 97022, Note_on_c, 1, 67, 0
3, 97082, Note_on_c, 1, 76, 98
3, 97082, Note_on_c, 1, 72, 98
3, 97202, Note_on_c, 1, 72, 0
3, 97202, Note_on_c, 1, 76, 0
3, 97202, Note_on_c, 1, 74, 98
3, 97202, Note_on_c, 1, 71, 98
3, 97322, Note_on_c, 1, 71, 0
3, 97322, Note_on_c, 1, 74, 0
3, 97322, Note_on_c, 1, 69, 98
3, 97322, Control_c, 1, 11, 89
3, 97322, Note_on_c, 1, 72, 98
3, 97442, Note_on_c, 1, 72, 0
3, 97442, Note_on_c, 1, 69, 0
3, 97442, Note_on_c, 1, 71, 98
3, 97442, Note_on_c, 1, 67, 98
3, 97562, Note_on_c, 1, 67, 0
3, 97562, Note_on_c, 1, 71, 0
3, 97562, Control_c, 1, 11, 89
3, 97577, Control_c, 1, 11, 89
3, 97593, Control_c, 1, 11, 87
3, 97609, Control_c, 1, 11, 86
3, 97625, Control_c, 1, 11, 86
3, 97641, Control_c, 1, 11, 85
3, 97657, Control_c, 1, 11, 84
3, 97673, Control_c, 1, 11, 84
3, 97682, Note_on_c, 1, 79, 88
3, 97689, Control_c, 1, 11, 82
3, 97705, Control_c, 1, 11, 82
3, 97721, Control_c, 1, 11, 82
3, 97737, Control_c, 1, 11, 80
3, 97753, Control_c, 1, 11, 80
3, 97769, Control_c, 1, 11, 80
3, 97785, Control_c, 1, 11, 80
3, 97801, Control_c, 1, 11, 78
3, 97819, Control_c, 1, 11, 77
3, 97836, Control_c, 1, 11, 77
3, 97853, Control_c, 1, 11, 76
3, 97870, Control_c, 1, 11, 75
3, 97887, Control_c, 1, 11, 75
3, 97904, Control_c, 1, 11, 73
3, 97921, Control_c, 1, 11, 73
3, 97922, Note_on_c, 1, 79, 0
3, 97922, Note_on_c, 1, 77, 88
3, 97938, Control_c, 1, 11, 73
3, 97956, Control_c, 1, 11, 71
3, 97973, Control_c, 1, 11, 71
3, 97990, Control_c, 1, 11, 71
3, 98007, Control_c, 1, 11, 71
3, 98024, Control_c, 1, 11, 69
3, 98041, Control_c, 1, 11, 68
3, 98058, Control_c, 1, 11, 68
3, 98075, Control_c, 1, 11, 67
3, 98092, Control_c, 1, 11, 66
3, 98110, Control_c, 1, 11, 66
3, 98127, Control_c, 1, 11, 64
3, 98144, Control_c, 1, 11, 64
3, 98161, Control_c, 1, 11, 64
3, 98162, Note_on_c, 1, 77, 0
3, 98162, Note_on_c, 1, 74, 88
3, 98178, Control_c, 1, 11, 62
3, 98195, Control_c, 1, 11, 62
3, 98212, Control_c, 1, 11, 62
3, 98229, Control_c, 1, 11, 62
3, 98246, Control_c, 1, 11, 61
3, 98264, Control_c, 1, 11, 60
3, 98281, Control_c, 1, 11, 59
3, 98298, Control_c, 1, 11, 58
3, 98315, Control_c, 1, 11, 57
3, 98332, Control_c, 1, 11, 56
3, 98349, Control_c, 1, 11, 55
3, 98366, Control_c, 1, 11, 54
3, 98383, Control_c, 1, 11, 53
3, 98401, Control_c, 1, 11, 52
3, 98402, Note_on_c, 1, 74, 0
3, 98402, Note_on_c, 1, 71, 88
3, 98465, Control_c, 1, 11, 51
3, 98529, Control_c, 1, 11, 50
3, 98593, Control_c, 1, 11, 49
3, 98642, Note_on_c, 1, 71, 0
3, 98642, Note_on_c, 1, 79, 88
3, 98642, Note_on_c, 1, 67, 88
3, 98657, Control_c, 1, 11, 48
3, 98721, Control_c, 1, 11, 47
3, 98785, Control_c, 1, 11, 46
3, 98849, Control_c, 1, 11, 45
3, 98882, Note_on_c, 1, 67, 0
3, 98882, Note_on_c, 1, 79, 0
3, 98882, Note_on_c, 1, 77, 88
3, 98882, Note_on_c, 1, 65, 88
3, 98913, Control_c, 1, 11, 44
3, 98977, Control_c, 1, 11, 43
3, 99041, Control_c, 1, 11, 42
3, 99105, Control_c, 1, 11, 41
3, 99122, Note_on_c, 1, 65, 0
3, 99122, Note_on_c, 1, 77, 0
3, 99122, Note_on_c, 1, 74, 88
3, 99122, Note_on_c, 1, 62, 88
3, 99169, Control_c, 1, 11, 40
3, 99233, Control_c, 1, 11, 39
3, 99297, Control_c, 1, 11, 38
3, 99361, Control_c, 1, 11, 37
3, 99362, Note_on_c, 1, 62, 0
3, 99362, Note_on_c, 1, 74, 0
3, 99362, Control_c, 1, 11, 89
3, 99362, Note_on_c, 1, 64, 88
3, 99362, Note_on_c, 1, 69, 88
3, 99722, Note_on_c, 1, 69, 0
3, 99722, Note_on_c, 1, 64, 0
3, 100322, Note_on_c, 1, 73, 88
3, 100322, Control_c, 1, 11, 47
3, 100322, Note_on_c, 1, 76, 88
3, 100382, Note_on_c, 1, 76, 0
3, 100382, Note_on_c, 1, 73, 0
3, 100442, Note_on_c, 1, 76, 88
3, 100442, Note_on_c, 1, 73, 88
3, 100642, Note_on_c, 1, 73, 0
3, 100642, Note_on_c, 1, 76, 0
3, 100682, Note_on_c, 1, 73, 88
3, 100682, Note_on_c, 1, 76, 88
3, 100882, Note_on_c, 1, 76, 0
3, 100882, Note_on_c, 1, 73, 0
3, 100922, Note_on_c, 1, 73, 88
3, 100922, Note_on_c, 1, 76, 88
3, 101122, Note_on_c, 1, 76, 0
3, 101122, Note_on_c, 1, 73, 0
3, 101162, Note_on_c, 1, 76, 88
3, 101162, Note_on_c, 1, 73, 88
3, 101222, Note_on_c, 1, 73, 0
3, 101222, Note_on_c, 1, 76, 0
3, 101282, Note_on_c, 1, 69, 88
3, 101282, Note_on_c, 1, 74, 88
3, 101282, Control_c, 1, 11, 79
3, 101642, Note_on_c, 1, 74, 0
3, 101642, Note_on_c, 1, 69, 0
3, 102242, Note_on_c, 1, 78, 88
3, 102242, Note_on_c, 1, 81, 88
3, 102242, Control_c, 1, 11, 47
3, 102302, Note_on_c, 1, 81, 0
3, 102302, Note_on_c, 1, 78, 0
3, 102362, Note_on_c, 1, 78, 88
3, 102362, Note_on_c, 1, 81, 88
3, 102562, Note_on_c, 1, 81, 0
3, 102562, Note_on_c, 1, 78, 0
3, 102602, Note_on_c, 1, 78, 88
3, 102602, Note_on_c, 1, 81, 88
3, 102802, Note_on_c, 1, 81, 0
3, 102802, Note_on_c, 1, 78, 0
3, 102842, Note_on_c, 1, 81, 88
3, 102842, Note_on_c, 1, 78, 88
3, 103042, Note_on_c, 1, 78, 0
3, 103042, Note_on_c, 1, 81, 0
3, 103082, Note_on_c, 1, 78, 88
3, 103082, Note_on_c, 1, 81, 88
3, 103142, Note_on_c, 1, 81, 0
3, 103142, Note_on_c, 1, 78, 0
3, 103202, Note_on_c, 1, 74, 88
3, 103202, Note_on_c, 1, 79, 88
3, 103202, Control_c, 1, 11, 79
3, 103562, Note_on_c, 1, 79, 0
3, 103562, Note_on_c, 1, 74, 0
3, 104162, Control_c, 1, 11, 47
3, 104162, Note_on_c, 1, 74, 88
3, 104162, Note_on_c, 1, 71, 88
3, 104222, Note_on_c, 1, 71, 0
3, 104222, Note_on_c, 1, 74, 0
3, 104282, Note_on_c, 1, 74, 88
3, 104282, Note_on_c, 1, 71, 88
3, 104482, Note_on_c, 1, 71, 0
3, 104482, Note_on_c, 1, 74, 0
3, 104522, Note_on_c, 1, 71, 88
3, 104522, Note_on_c, 1, 74, 88
3, 104722, Note_on_c, 1, 74, 0
3, 104722, Note_on_c, 1, 71, 0
3, 104762, Note_on_c, 1, 71, 88
3, 104762, Note_on_c, 1, 74, 88
3, 104962, Note_on_c, 1, 74, 0
3, 104962, Note_on_c, 1, 71, 0
3, 105002, Note_on_c, 1, 74, 88
3, 105002, Note_on_c, 1, 71, 88
3, 105062, Note_on_c, 1, 71, 0
3, 105062, Note_on_c, 1, 74, 0
3, 105122, Control_c, 1, 11, 79
3, 105122, Note_on_c, 1, 72, 88
3, 105122, Note_on_c, 1, 75, 88
3, 105242, Note_on_c, 1, 75, 0
3, 105242, Note_on_c, 1, 72, 0
3, 105602, Note_on_c, 1, 60, 125
3, 105602, Control_c, 1, 11, 47
3, 105662, Note_on_c, 1, 60, 0
3, 105722, Note_on_c, 1, 63, 125
3, 105782, Note_on_c, 1, 63, 0
3, 105842, Note_on_c, 1, 67, 125
3, 105902, Note_on_c, 1, 67, 0
3, 105962, Note_on_c, 1, 71, 125
3, 106022, Note_on_c, 1, 71, 0
3, 106082, Note_on_c, 1, 72, 98
3, 107042, Control_c, 1, 11, 79
3, 107162, Note_on_c, 1, 72, 0
3, 107522, Note_on_c, 1, 65, 125
3, 107522, Control_c, 1, 11, 47
3, 107582, Note_on_c, 1, 65, 0
3, 107642, Note_on_c, 1, 68, 125
3, 107702, Note_on_c, 1, 68, 0
3, 107762, Note_on_c, 1, 72, 125
3, 107822, Note_on_c, 1, 72, 0
3, 107882, Note_on_c, 1, 76, 125
3, 107942, Note_on_c, 1, 76, 0
3, 108002, Note_on_c, 1, 77, 98
3, 108842, Note_on_c, 1, 77, 0
3, 108842, Note_on_c, 1, 75, 98
3, 108962, Note_on_c, 1, 75, 0
3, 108962, Note_on_c, 1, 74, 98
3, 109082, Note_on_c, 1, 74, 0
3, 109922, Note_on_c, 1, 75, 98
3, 109922, Note_on_c, 1, 79, 98
3, 109922, Control_c, 1, 11, 37
3, 109941, Control_c, 1, 11, 40
3, 109961, Control_c, 1, 11, 43
3, 109981, Control_c, 1, 11, 46
3, 110001, Control_c, 1, 11, 49
3, 110021, Control_c, 1, 11, 52
3, 110041, Control_c, 1, 11, 55
3, 110061, Control_c, 1, 11, 58
3, 110081, Control_c, 1, 11, 61
3, 110101, Control_c, 1, 11, 63
3, 110121, Control_c, 1, 11, 65
3, 110150, Control_c, 1, 11, 66
3, 110173, Control_c, 1, 11, 67
3, 110195, Control_c, 1, 11, 68
3, 110217, Control_c, 1, 11, 68
3, 110239, Control_c, 1, 11, 69
3, 110261, Control_c, 1, 11, 70
3, 110283, Control_c, 1, 11, 71
3, 110306, Control_c, 1, 11, 71
3, 110328, Control_c, 1, 11, 72
3, 110350, Control_c, 1, 11, 73
3, 110372, Control_c, 1, 11, 73
3, 110394, Control_c, 1, 11, 74
3, 110416, Control_c, 1, 11, 75
3, 110438, Control_c, 1, 11, 75
3, 110461, Control_c, 1, 11, 76
3, 110483, Control_c, 1, 11, 77
3, 110505, Control_c, 1, 11, 77
3, 110522, Note_on_c, 1, 79, 0
3, 110522, Note_on_c, 1, 75, 0
3, 110527, Control_c, 1, 11, 78
3, 110549, Control_c, 1, 11, 79
3, 110571, Control_c, 1, 11, 80
3, 110594, Control_c, 1, 11, 80
3, 110616, Control_c, 1, 11, 81
3, 110638, Control_c, 1, 11, 82
3, 110660, Control_c, 1, 11, 82
3, 110682, Control_c, 1, 11, 83
3, 110704, Control_c, 1, 11, 84
3, 110726, Control_c, 1, 11, 84
3, 110749, Control_c, 1, 11, 85
3, 110771, Control_c, 1, 11, 86
3, 110793, Control_c, 1, 11, 86
3, 110815, Control_c, 1, 11, 87
3, 110837, Control_c, 1, 11, 88
3, 110859, Control_c, 1, 11, 89
3, 110882, Control_c, 1, 11, 89
3, 110882, Note_on_c, 1, 78, 98
3, 110882, Note_on_c, 1, 75, 98
3, 111812, Control_c, 1, 11, 89
3, 111817, Control_c, 1, 11, 86
3, 111824, Control_c, 1, 11, 83
3, 111832, Control_c, 1, 11, 80
3, 111837, Control_c, 1, 11, 77
3, 111842, Note_on_c, 1, 75, 0
3, 111842, Note_on_c, 1, 78, 0
3, 111842, Note_on_c, 1, 77, 83
3, 111842, Note_on_c, 1, 74, 83
3, 111844, Control_c, 1, 11, 74
3, 111852, Control_c, 1, 11, 71
3, 111857, Control_c, 1, 11, 68
3, 111864, Control_c, 1, 11, 65
3, 111869, Control_c, 1, 11, 62
3, 111877, Control_c, 1, 11, 58
3, 111882, Control_c, 1, 11, 55
3, 111887, Control_c, 1, 11, 52
3, 111962, Note_on_c, 1, 74, 0
3, 111962, Note_on_c, 1, 77, 0
3, 113762, Note_on_c, 1, 77, 88
3, 113762, Note_on_c, 1, 82, 88
3, 113762, Control_c, 1, 11, 62
3, 113781, Control_c, 1, 11, 64
3, 113800, Control_c, 1, 11, 67
3, 113819, Control_c, 1, 11, 70
3, 113834, Control_c, 1, 11, 72
3, 113853, Control_c, 1, 11, 75
3, 113870, Note_on_c, 1, 82, 0
3, 113870, Note_on_c, 1, 77, 0
3, 113872, Control_c, 1, 11, 77
3, 113882, Note_on_c, 1, 77, 88
3, 113882, Note_on_c, 1, 82, 88
3, 113990, Note_on_c, 1, 82, 0
3, 113990, Note_on_c, 1, 77, 0
3, 114002, Note_on_c, 1, 79, 88
3, 114002, Note_on_c, 1, 82, 88
3, 114110, Note_on_c, 1, 82, 0
3, 114110, Note_on_c, 1, 79, 0
3, 114122, Note_on_c, 1, 82, 88
3, 114122, Note_on_c, 1, 79, 88
3, 114230, Note_on_c, 1, 79, 0
3, 114230, Note_on_c, 1, 82, 0
3, 114242, Note_on_c, 1, 82, 88
3, 114242, Note_on_c, 1, 77, 88
3, 114350, Note_on_c, 1, 77, 0
3, 114350, Note_on_c, 1, 82, 0
3, 114362, Note_on_c, 1, 77, 88
3, 114362, Note_on_c, 1, 82, 88
3, 114470, Note_on_c, 1, 82, 0
3, 114470, Note_on_c, 1, 77, 0
3, 114482, Note_on_c, 1, 82, 88
3, 114482, Note_on_c, 1, 79, 88
3, 114590, Note_on_c, 1, 79, 0
3, 114590, Note_on_c, 1, 82, 0
3, 114602, Note_on_c, 1, 79, 88
3, 114602, Note_on_c, 1, 82, 88
3, 114710, Note_on_c, 1, 82, 0
3, 114710, Note_on_c, 1, 79, 0
3, 114722, Note_on_c, 1, 82, 88
3, 114722, Note_on_c, 1, 77, 88
3, 114842, Note_on_c, 1, 77, 0
3, 114842, Note_on_c, 1, 82, 0
3, 116282, Control_c, 1, 11, 52
3, 116282, Note_on_c, 1, 70, 119
3, 116372, Note_on_c, 1, 70, 0
3, 116372, Note_on_c, 1, 74, 119
3, 116397, Note_on_c, 1, 74, 0
3, 116402, Note_on_c, 1, 75, 108
3, 116462, Note_on_c, 1, 75, 0
3, 116762, Note_on_c, 1, 79, 98
3, 117002, Note_on_c, 1, 79, 0
3, 117002, Note_on_c, 1, 77, 98
3, 117122, Note_on_c, 1, 77, 0
3, 117122, Note_on_c, 1, 75, 98
3, 117242, Note_on_c, 1, 75, 0
3, 117242, Note_on_c, 1, 77, 98
3, 117362, Note_on_c, 1, 77, 0
3, 117362, Note_on_c, 1, 76, 98
3, 117482, Note_on_c, 1, 76, 0
3, 117482, Note_on_c, 1, 79, 98
3, 117597, Note_on_c, 1, 79, 0
3, 117602, Note_on_c, 1, 72, 98
3, 117722, Note_on_c, 1, 72, 0
3, 118442, Note_on_c, 1, 72, 119
3, 118442, Control_c, 1, 11, 57
3, 118532, Note_on_c, 1, 72, 0
3, 118532, Note_on_c, 1, 76, 119
3, 118557, Note_on_c, 1, 76, 0
3, 118562, Note_on_c, 1, 77, 108
3, 118622, Note_on_c, 1, 77, 0
3, 119162, Note_on_c, 1, 82, 88
3, 119282, Note_on_c, 1, 82, 0
3, 119282, Note_on_c, 1, 81, 88
3, 119402, Note_on_c, 1, 81, 0
3, 119402, Note_on_c, 1, 78, 88
3, 119517, Note_on_c, 1, 78, 0
3, 119522, Note_on_c, 1, 74, 88
3, 119642, Note_on_c, 1, 74, 0
3, 120362, Note_on_c, 1, 74, 119
3, 120452, Note_on_c, 1, 74, 0
3, 120452, Note_on_c, 1, 78, 119
3, 120477, Note_on_c, 1, 78, 0
3, 120482, Note_on_c, 1, 79, 108
3, 120542, Note_on_c, 1, 79, 0
3, 121082, Note_on_c, 1, 82, 98
3, 121082, Control_c, 1, 11, 47
3, 121202, Note_on_c, 1, 82, 0
3, 121202, Note_on_c, 1, 81, 98
3, 121322, Note_on_c, 1, 81, 0
3, 121322, Note_on_c, 1, 79, 98
3, 121437, Note_on_c, 1, 79, 0
3, 121442, Note_on_c, 1, 77, 98
3, 121562, Note_on_c, 1, 77, 0
3, 121562, Note_on_c, 1, 73, 98
3, 121682, Note_on_c, 1, 73, 0
3, 121682, Note_on_c, 1, 74, 98
3, 121802, Note_on_c, 1, 74, 0
3, 121802, Note_on_c, 1, 76, 98
3, 121917, Note_on_c, 1, 76, 0
3, 121922, Note_on_c, 1, 74, 98
3, 122037, Note_on_c, 1, 74, 0
3, 122042, Note_on_c, 1, 77, 98
3, 122042, Control_c, 1, 11, 52
3, 122162, Note_on_c, 1, 77, 0
3, 122162, Note_on_c, 1, 76, 98
3, 122282, Note_on_c, 1, 76, 0
3, 122282, Note_on_c, 1, 74, 98
3, 122402, Note_on_c, 1, 74, 0
3, 122402, Note_on_c, 1, 72, 98
3, 122517, Note_on_c, 1, 72, 0
3, 122522, Control_c, 1, 11, 57
3, 122522, Note_on_c, 1, 77, 98
3, 122546, Control_c, 1, 11, 58
3, 122570, Control_c, 1, 11, 59
3, 122594, Control_c, 1, 11, 60
3, 122618, Control_c, 1, 11, 61
3, 122642, Note_on_c, 1, 77, 0
3, 122642, Note_on_c, 1, 76, 98
3, 122642, Control_c, 1, 11, 62
3, 122666, Control_c, 1, 11, 62
3, 122690, Control_c, 1, 11, 63
3, 122714, Control_c, 1, 11, 64
3, 122738, Control_c, 1, 11, 64
3, 122762, Note_on_c, 1, 76, 0
3, 122762, Note_on_c, 1, 74, 98
3, 122762, Control_c, 1, 11, 65
3, 122786, Control_c, 1, 11, 66
3, 122810, Control_c, 1, 11, 66
3, 122834, Control_c, 1, 11, 67
3, 122858, Control_c, 1, 11, 68
3, 122882, Note_on_c, 1, 74, 0
3, 122882, Control_c, 1, 11, 68
3, 122882, Note_on_c, 1, 72, 98
3, 122914, Control_c, 1, 11, 69
3, 122946, Control_c, 1, 11, 70
3, 122978, Control_c, 1, 11, 71
3, 122997, Note_on_c, 1, 72, 0
3, 123002, Note_on_c, 1, 76, 98
3, 123002, Note_on_c, 1, 72, 98
3, 123010, Control_c, 1, 11, 71
3, 123042, Control_c, 1, 11, 72
3, 123074, Control_c, 1, 11, 73
3, 123106, Control_c, 1, 11, 73
3, 123122, Note_on_c, 1, 72, 0
3, 123122, Note_on_c, 1, 71, 98
3, 123138, Control_c, 1, 11, 74
3, 123170, Control_c, 1, 11, 75
3, 123202, Control_c, 1, 11, 75
3, 123234, Control_c, 1, 11, 76
3, 123242, Note_on_c, 1, 71, 0
3, 123242, Note_on_c, 1, 76, 0
3, 123242, Note_on_c, 1, 69, 98
3, 123242, Note_on_c, 1, 75, 98
3, 123266, Control_c, 1, 11, 77
3, 123298, Control_c, 1, 11, 77
3, 123330, Control_c, 1, 11, 78
3, 123357, Note_on_c, 1, 75, 0
3, 123357, Note_on_c, 1, 69, 0
3, 123362, Note_on_c, 1, 76, 98
3, 123362, Note_on_c, 1, 68, 98
3, 123362, Control_c, 1, 11, 79
3, 123482, Note_on_c, 1, 68, 0
3, 123482, Note_on_c, 1, 76, 0
3, 124322, Control_c, 1, 11, 89
3, 124322, Note_on_c, 1, 69, 88
3, 124322, Note_on_c, 1, 72, 88
3, 124682, Note_on_c, 1, 72, 0
3, 124682, Note_on_c, 1, 69, 0
3, 124682, Note_on_c, 1, 71, 88
3, 124682, Note_on_c, 1, 74, 88
3, 124802, Note_on_c, 1, 74, 0
3, 124802, Note_on_c, 1, 71, 0
3, 124802, Note_on_c, 1, 77, 88
3, 124802, Note_on_c, 1, 74, 88
3, 124922, Note_on_c, 1, 74, 0
3, 124922, Note_on_c, 1, 77, 0
3, 124922, Note_on_c, 1, 72, 88
3, 124922, Note_on_c, 1, 76, 88
3, 125042, Note_on_c, 1, 76, 0
3, 125042, Note_on_c, 1, 72, 0
3, 125042, Note_on_c, 1, 71, 88
3, 125042, Note_on_c, 1, 74, 88
3, 125162, Note_on_c, 1, 74, 0
3, 125162, Note_on_c, 1, 71, 0
3, 125162, Note_on_c, 1, 72, 88
3, 125162, Note_on_c, 1, 69, 88
3, 125282, Note_on_c, 1, 69, 0
3, 125282, Note_on_c, 1, 72, 0
3, 125282, Note_on_c, 1, 71, 88
3, 125282, Note_on_c, 1, 68, 88
3, 125402, Note_on_c, 1, 68, 0
3, 125402, Note_on_c, 1, 71, 0
3, 126242, Note_on_c, 1, 69, 88
3, 126242, Note_on_c, 1, 72, 88
3, 126602, Note_on_c, 1, 72, 0
3, 126602, Note_on_c, 1, 69, 0
3, 126602, Note_on_c, 1, 74, 88
3, 126602, Note_on_c, 1, 71, 88
3, 126722, Note_on_c, 1, 71, 0
3, 126722, Note_on_c, 1, 74, 0
3, 126722, Note_on_c, 1, 74, 88
3, 126722, Note_on_c, 1, 77, 88
3, 126842, Note_on_c, 1, 77, 0
3, 126842, Note_on_c, 1, 74, 0
3, 126842, Note_on_c, 1, 72, 88
3, 126842, Note_on_c, 1, 76, 88
3, 126962, Note_on_c, 1, 76, 0
3, 126962, Note_on_c, 1, 72, 0
3, 126962, Note_on_c, 1, 74, 88
3, 126962, Note_on_c, 1, 71, 88
3, 127082, Note_on_c, 1, 71, 0
3, 127082, Note_on_c, 1, 74, 0
3, 127082, Note_on_c, 1, 72, 88
3, 127082, Note_on_c, 1, 69, 88
3, 127197, Note_on_c, 1, 69, 0
3, 127197, Note_on_c, 1, 72, 0
3, 127202, Note_on_c, 1, 71, 88
3, 127202, Note_on_c, 1, 68, 88
3, 127262, Note_on_c, 1, 68, 0
3, 127262, Note_on_c, 1, 71, 0
3, 127322, Note_on_c, 1, 72, 88
3, 127322, Note_on_c, 1, 76, 88
3, 127322, Control_c, 1, 11, 103
3, 127340, Control_c, 1, 11, 101
3, 127358, Control_c, 1, 11, 99
3, 127376, Control_c, 1, 11, 97
3, 127394, Control_c, 1, 11, 95
3, 127412, Control_c, 1, 11, 93
3, 127430, Control_c, 1, 11, 91
3, 127442, Note_on_c, 1, 76, 0
3, 127442, Note_on_c, 1, 72, 0
3, 127442, Note_on_c, 1, 74, 88
3, 127442, Note_on_c, 1, 71, 88
3, 127562, Note_on_c, 1, 71, 0
3, 127562, Note_on_c, 1, 74, 0
3, 127562, Note_on_c, 1, 72, 88
3, 127562, Note_on_c, 1, 69, 88
3, 127677, Note_on_c, 1, 69, 0
3, 127677, Note_on_c, 1, 72, 0
3, 127682, Note_on_c, 1, 68, 88
3, 127682, Note_on_c, 1, 71, 88
3, 127742, Note_on_c, 1, 71, 0
3, 127742, Note_on_c, 1, 68, 0
3, 127802, Note_on_c, 1, 72, 88
3, 127802, Control_c, 1, 11, 103
3, 127802, Note_on_c, 1, 76, 88
3, 127820, Control_c, 1, 11, 101
3, 127838, Control_c, 1, 11, 99
3, 127856, Control_c, 1, 11, 97
3, 127874, Control_c, 1, 11, 95
3, 127892, Control_c, 1, 11, 93
3, 127910, Control_c, 1, 11, 91
3, 127922, Note_on_c, 1, 76, 0
3, 127922, Note_on_c, 1, 72, 0
3, 127922, Note_on_c, 1, 74, 88
3, 127922, Note_on_c, 1, 71, 88
3, 128042, Note_on_c, 1, 71, 0
3, 128042, Note_on_c, 1, 74, 0
3, 128042, Note_on_c, 1, 72, 88
3, 128042, Note_on_c, 1, 69, 88
3, 128157, Note_on_c, 1, 69, 0
3, 128157, Note_on_c, 1, 72, 0
3, 128162, Note_on_c, 1, 71, 88
3, 128162, Note_on_c, 1, 68, 88
3, 128282, Note_on_c, 1, 68, 0
3, 128282, Note_on_c, 1, 71, 0
3, 128642, Note_on_c, 1, 64, 98
3, 128642, Note_on_c, 1, 76, 98
3, 128714, Note_on_c, 1, 76, 0
3, 128714, Note_on_c, 1, 64, 0
3, 128882, Note_on_c, 1, 64, 98
3, 128882, Note_on_c, 1, 76, 98
3, 128954, Note_on_c, 1, 76, 0
3, 128954, Note_on_c, 1, 64, 0
3, 129122, Control_c, 1, 11, 103
3, 129122, Note_on_c, 1, 76, 98
3, 129132, Control_c, 1, 11, 100
3, 129146, Control_c, 1, 11, 97
3, 129156, Control_c, 1, 11, 94
3, 129167, Control_c, 1, 11, 91
3, 129180, Control_c, 1, 11, 88
3, 129191, Control_c, 1, 11, 85
3, 129202, Control_c, 1, 11, 82
3, 129215, Control_c, 1, 11, 79
3, 129226, Control_c, 1, 11, 76
3, 129236, Control_c, 1, 11, 73
3, 129253, Control_c, 1, 11, 71
3, 129276, Control_c, 1, 11, 70
3, 129299, Control_c, 1, 11, 68
3, 129322, Control_c, 1, 11, 67
3, 129345, Control_c, 1, 11, 66
3, 129368, Control_c, 1, 11, 64
3, 129391, Control_c, 1, 11, 63
3, 129414, Control_c, 1, 11, 62
3, 129437, Control_c, 1, 11, 60
3, 129460, Control_c, 1, 11, 58
3, 129502, Control_c, 1, 11, 56
3, 129532, Control_c, 1, 11, 55
3, 129563, Control_c, 1, 11, 54
3, 129593, Control_c, 1, 11, 53
3, 129624, Control_c, 1, 11, 52
3, 129654, Control_c, 1, 11, 51
3, 129685, Control_c, 1, 11, 50
3, 129715, Control_c, 1, 11, 49
3, 129746, Control_c, 1, 11, 48
3, 129776, Control_c, 1, 11, 47
3, 129806, Control_c, 1, 11, 46
3, 129837, Control_c, 1, 11, 45
3, 129867, Control_c, 1, 11, 44
3, 129898, Control_c, 1, 11, 43
3, 129928, Control_c, 1, 11, 42
3, 129959, Control_c, 1, 11, 41
3, 129989, Control_c, 1, 11, 40
3, 130020, Control_c, 1, 11, 39
3, 130050, Control_c, 1, 11, 38
3, 130077, Note_on_c, 1, 76, 0
3, 130081, Control_c, 1, 11, 37
3, 130082, Note_on_c, 1, 77, 98
3, 130562, Note_on_c, 1, 77, 0
3, 130562, Note_on_c, 1, 74, 98
3, 130562, Control_c, 1, 11, 37
3, 130582, Control_c, 1, 11, 38
3, 130602, Control_c, 1, 11, 39
3, 130622, Control_c, 1, 11, 40
3, 130642, Control_c, 1, 11, 41
3, 130662, Control_c, 1, 11, 42
3, 130682, Control_c, 1, 11, 43
3, 130702, Control_c, 1, 11, 44
3, 130722, Control_c, 1, 11, 45
3, 130742, Control_c, 1, 11, 46
3, 130762, Control_c, 1, 11, 47
3, 130782, Control_c, 1, 11, 48
3, 130802, Control_c, 1, 11, 49
3, 130822, Control_c, 1, 11, 50
3, 130842, Control_c, 1, 11, 51
3, 130862, Control_c, 1, 11, 52
3, 130882, Control_c, 1, 11, 53
3, 130902, Control_c, 1, 11, 54
3, 130922, Control_c, 1, 11, 55
3, 130942, Control_c, 1, 11, 56
3, 130962, Control_c, 1, 11, 57
3, 130982, Control_c, 1, 11, 58
3, 131002, Control_c, 1, 11, 59
3, 131022, Control_c, 1, 11, 60
3, 131042, Note_on_c, 1, 74, 0
3, 131042, Note_on_c, 1, 71, 98
3, 131042, Control_c, 1, 11, 61
3, 131062, Control_c, 1, 11, 62
3, 131082, Control_c, 1, 11, 62
3, 131102, Control_c, 1, 11, 63
3, 131122, Control_c, 1, 11, 64
3, 131142, Control_c, 1, 11, 64
3, 131162, Control_c, 1, 11, 65
3, 131182, Control_c, 1, 11, 66
3, 131202, Control_c, 1, 11, 66
3, 131222, Control_c, 1, 11, 67
3, 131242, Control_c, 1, 11, 68
3, 131262, Control_c, 1, 11, 68
3, 131282, Control_c, 1, 11, 69
3, 131302, Control_c, 1, 11, 70
3, 131322, Control_c, 1, 11, 71
3, 131342, Control_c, 1, 11, 71
3, 131362, Control_c, 1, 11, 72
3, 131382, Control_c, 1, 11, 73
3, 131402, Control_c, 1, 11, 73
3, 131422, Control_c, 1, 11, 74
3, 131442, Control_c, 1, 11, 75
3, 131462, Control_c, 1, 11, 75
3, 131482, Control_c, 1, 11, 76
3, 131502, Control_c, 1, 11, 77
3, 131522, Note_on_c, 1, 71, 0
3, 131522, Note_on_c, 1, 67, 98
3, 131522, Control_c, 1, 11, 77
3, 131541, Control_c, 1, 11, 78
3, 131570, Control_c, 1, 11, 79
3, 131598, Control_c, 1, 11, 80
3, 131627, Control_c, 1, 11, 80
3, 131656, Control_c, 1, 11, 81
3, 131685, Control_c, 1, 11, 82
3, 131714, Control_c, 1, 11, 82
3, 131742, Control_c, 1, 11, 83
3, 131771, Control_c, 1, 11, 84
3, 131800, Control_c, 1, 11, 84
3, 131829, Control_c, 1, 11, 85
3, 131858, Control_c, 1, 11, 86
3, 131886, Control_c, 1, 11, 86
3, 131915, Control_c, 1, 11, 87
3, 131944, Control_c, 1, 11, 88
3, 131973, Control_c, 1, 11, 89
3, 132002, Note_on_c, 1, 67, 0
3, 132002, Control_c, 1, 11, 89
3, 132002, Note_on_c, 1, 72, 98
3, 132310, Note_on_c, 1, 72, 0
3, 132362, Note_on_c, 1, 67, 98
3, 132452, Note_on_c, 1, 67, 0
3, 132452, Note_on_c, 1, 71, 98
3, 132472, Note_on_c, 1, 71, 0
3, 132482, Note_on_c, 1, 72, 98
3, 132790, Note_on_c, 1, 72, 0
3, 132842, Note_on_c, 1, 67, 98
3, 132932, Note_on_c, 1, 67, 0
3, 132932, Note_on_c, 1, 71, 98
3, 132952, Note_on_c, 1, 71, 0
3, 132962, Note_on_c, 1, 72, 98
3, 132992, Note_on_c, 1, 72, 0
3, 133022, Note_on_c, 1, 72, 98
3, 133052, Note_on_c, 1, 72, 0
3, 133082, Note_on_c, 1, 67, 98
3, 133112, Note_on_c, 1, 67, 0
3, 133142, Note_on_c, 1, 71, 98
3, 133172, Note_on_c, 1, 71, 0
3, 133202, Note_on_c, 1, 72, 98
3, 133232, Note_on_c, 1, 72, 0
3, 133262, Note_on_c, 1, 72, 98
3, 133292, Note_on_c, 1, 72, 0
3, 133322, Note_on_c, 1, 67, 98
3, 133352, Note_on_c, 1, 67, 0
3, 133382, Note_on_c, 1, 71, 98
3, 133412, Note_on_c, 1, 71, 0
3, 133442, Note_on_c, 1, 72, 98
3, 133502, Note_on_c, 1, 72, 0
3, 133562, Note_on_c, 1, 76, 98
3, 133622, Note_on_c, 1, 76, 0
3, 133682, Note_on_c, 1, 79, 98
3, 133742, Note_on_c, 1, 79, 0
3, 133802, Note_on_c, 1, 71, 98
3, 133862, Note_on_c, 1, 71, 0
3, 133922, Note_on_c, 1, 76, 88
3, 133922, Control_c, 1, 11, 47
3, 133922, Note_on_c, 1, 72, 88
3, 133941, Control_c, 1, 11, 48
3, 133960, Control_c, 1, 11, 49
3, 133979, Control_c, 1, 11, 50
3, 133998, Control_c, 1, 11, 51
3, 134017, Control_c, 1, 11, 52
3, 134036, Control_c, 1, 11, 53
3, 134056, Control_c, 1, 11, 54
3, 134075, Control_c, 1, 11, 55
3, 134094, Control_c, 1, 11, 56
3, 134113, Control_c, 1, 11, 57
3, 134132, Control_c, 1, 11, 58
3, 134151, Control_c, 1, 11, 59
3, 134171, Control_c, 1, 11, 60
3, 134190, Control_c, 1, 11, 61
3, 134209, Control_c, 1, 11, 62
3, 134228, Control_c, 1, 11, 62
3, 134247, Control_c, 1, 11, 63
3, 134266, Control_c, 1, 11, 64
3, 134286, Control_c, 1, 11, 64
3, 134305, Control_c, 1, 11, 65
3, 134324, Control_c, 1, 11, 66
3, 134343, Control_c, 1, 11, 66
3, 134362, Control_c, 1, 11, 67
3, 134381, Control_c, 1, 11, 68
3, 134401, Control_c, 1, 11, 68
3, 134402, Note_on_c, 1, 72, 0
3, 134402, Note_on_c, 1, 76, 0
3, 134402, Note_on_c, 1, 79, 88
3, 134402, Note_on_c, 1, 73, 88
3, 134418, Control_c, 1, 11, 69
3, 134434, Control_c, 1, 11, 70
3, 134450, Control_c, 1, 11, 71
3, 134466, Control_c, 1, 11, 71
3, 134482, Control_c, 1, 11, 72
3, 134498, Control_c, 1, 11, 73
3, 134514, Control_c, 1, 11, 73
3, 134530, Control_c, 1, 11, 74
3, 134546, Control_c, 1, 11, 75
3, 134562, Control_c, 1, 11, 75
3, 134578, Control_c, 1, 11, 76
3, 134594, Control_c, 1, 11, 77
3, 134610, Control_c, 1, 11, 77
3, 134626, Control_c, 1, 11, 78
3, 134642, Control_c, 1, 11, 79
3, 134658, Control_c, 1, 11, 80
3, 134674, Control_c, 1, 11, 80
3, 134690, Control_c, 1, 11, 81
3, 134706, Control_c, 1, 11, 82
3, 134722, Control_c, 1, 11, 82
3, 134738, Control_c, 1, 11, 83
3, 134754, Control_c, 1, 11, 84
3, 134770, Control_c, 1, 11, 84
3, 134786, Control_c, 1, 11, 85
3, 134802, Control_c, 1, 11, 86
3, 134818, Control_c, 1, 11, 86
3, 134834, Control_c, 1, 11, 87
3, 134850, Control_c, 1, 11, 88
3, 134866, Control_c, 1, 11, 89
3, 134882, Note_on_c, 1, 73, 0
3, 134882, Note_on_c, 1, 79, 0
3, 134882, Control_c, 1, 11, 89
3, 134882, Note_on_c, 1, 77, 98
3, 134882, Note_on_c, 1, 74, 98
3, 135190, Note_on_c, 1, 74, 0
3, 135190, Note_on_c, 1, 77, 0
3, 135242, Note_on_c, 1, 69, 98
3, 135332, Note_on_c, 1, 69, 0
3, 135332, Note_on_c, 1, 73, 98
3, 135352, Note_on_c, 1, 73, 0
3, 135362, Note_on_c, 1, 74, 98
3, 135670, Note_on_c, 1, 74, 0
3, 135722, Note_on_c, 1, 69, 98
3, 135812, Note_on_c, 1, 69, 0
3, 135812, Note_on_c, 1, 73, 98
3, 135832, Note_on_c, 1, 73, 0
3, 135842, Note_on_c, 1, 74, 98
3, 135872, Note_on_c, 1, 74, 0
3, 135902, Note_on_c, 1, 74, 98
3, 135932, Note_on_c, 1, 74, 0
3, 135962, Note_on_c, 1, 69, 98
3, 135992, Note_on_c, 1, 69, 0
3, 136022, Note_on_c, 1, 73, 98
3, 136052, Note_on_c, 1, 73, 0
3, 136082, Note_on_c, 1, 74, 98
3, 136112, Note_on_c, 1, 74, 0
3, 136142, Note_on_c, 1, 74, 98
3, 136172, Note_on_c, 1, 74, 0
3, 136202, Note_on_c, 1, 69, 98
3, 136232, Note_on_c, 1, 69, 0
3, 136262, Note_on_c, 1, 73, 98
3, 136292, Note_on_c, 1, 73, 0
3, 136322, Note_on_c, 1, 74, 98
3, 136382, Note_on_c, 1, 74, 0
3, 136442, Note_on_c, 1, 77, 98
3, 136502, Note_on_c, 1, 77, 0
3, 136562, Note_on_c, 1, 81, 98
3, 136622, Note_on_c, 1, 81, 0
3, 136682, Note_on_c, 1, 73, 98
3, 136742, Note_on_c, 1, 73, 0
3, 136802, Control_c, 1, 11, 47
3, 136802, Note_on_c, 1, 74, 88
3, 137282, Note_on_c, 1, 74, 0
3, 137282, Note_on_c, 1, 76, 88
3, 137762, Note_on_c, 1, 76, 0
3, 137762, Note_on_c, 1, 77, 88
3, 137762, Note_on_c, 1, 69, 88
3, 138242, Note_on_c, 1, 69, 0
3, 138242, Note_on_c, 1, 77, 0
3, 138242, Note_on_c, 1, 72, 88
3, 138242, Note_on_c, 1, 78, 88
3, 138242, Control_c, 1, 11, 47
3, 138290, Control_c, 1, 11, 48
3, 138338, Control_c, 1, 11, 49
3, 138386, Control_c, 1, 11, 50
3, 138434, Control_c, 1, 11, 51
3, 138482, Control_c, 1, 11, 52
3, 138530, Control_c, 1, 11, 53
3, 138578, Control_c, 1, 11, 54
3, 138626, Control_c, 1, 11, 55
3, 138674, Control_c, 1, 11, 56
3, 138722, Note_on_c, 1, 78, 0
3, 138722, Note_on_c, 1, 72, 0
3, 138722, Note_on_c, 1, 71, 88
3, 138722, Note_on_c, 1, 79, 88
3, 138722, Control_c, 1, 11, 57
3, 138770, Control_c, 1, 11, 58
3, 138818, Control_c, 1, 11, 59
3, 138866, Control_c, 1, 11, 60
3, 138914, Control_c, 1, 11, 61
3, 138962, Note_on_c, 1, 79, 0
3, 138962, Note_on_c, 1, 71, 0
3, 138962, Note_on_c, 1, 71, 88
3, 138962, Note_on_c, 1, 80, 88
3, 138962, Control_c, 1, 11, 62
3, 139010, Control_c, 1, 11, 62
3, 139058, Control_c, 1, 11, 63
3, 139106, Control_c, 1, 11, 64
3, 139154, Control_c, 1, 11, 64
3, 139202, Note_on_c, 1, 80, 0
3, 139202, Note_on_c, 1, 71, 0
3, 139202, Note_on_c, 1, 72, 88
3, 139202, Note_on_c, 1, 81, 88
3, 139202, Control_c, 1, 11, 65
3, 139250, Control_c, 1, 11, 66
3, 139298, Control_c, 1, 11, 66
3, 139346, Control_c, 1, 11, 67
3, 139394, Control_c, 1, 11, 68
3, 139442, Note_on_c, 1, 81, 0
3, 139442, Note_on_c, 1, 72, 0
3, 139442, Control_c, 1, 11, 68
3, 139442, Note_on_c, 1, 81, 88
3, 139442, Note_on_c, 1, 75, 88
3, 139490, Control_c, 1, 11, 69
3, 139538, Control_c, 1, 11, 70
3, 139586, Control_c, 1, 11, 71
3, 139634, Control_c, 1, 11, 71
3, 139682, Note_on_c, 1, 75, 0
3, 139682, Note_on_c, 1, 81, 0
3, 139682, Note_on_c, 1, 82, 88
3, 139682, Note_on_c, 1, 74, 88
3, 139682, Control_c, 1, 11, 72
3, 139730, Control_c, 1, 11, 73
3, 139778, Control_c, 1, 11, 73
3, 139826, Control_c, 1, 11, 74
3, 139874, Control_c, 1, 11, 75
3, 139922, Note_on_c, 1, 82, 0
3, 139922, Control_c, 1, 11, 75
3, 139922, Note_on_c, 1, 77, 88
3, 139970, Control_c, 1, 11, 76
3, 140018, Control_c, 1, 11, 77
3, 140042, Note_on_c, 1, 74, 0
3, 140042, Note_on_c, 1, 71, 88
3, 140066, Control_c, 1, 11, 77
3, 140114, Control_c, 1, 11, 78
3, 140162, Note_on_c, 1, 71, 0
3, 140162, Note_on_c, 1, 77, 0
3, 140162, Control_c, 1, 11, 79
3, 140162, Note_on_c, 1, 76, 88
3, 140162, Note_on_c, 1, 72, 88
3, 140210, Control_c, 1, 11, 80
3, 140258, Control_c, 1, 11, 80
3, 140306, Control_c, 1, 11, 81
3, 140354, Control_c, 1, 11, 82
3, 140402, Note_on_c, 1, 72, 0
3, 140402, Note_on_c, 1, 76, 0
3, 140402, Note_on_c, 1, 73, 88
3, 140402, Note_on_c, 1, 76, 88
3, 140402, Control_c, 1, 11, 82
3, 140450, Control_c, 1, 11, 83
3, 140498, Control_c, 1, 11, 84
3, 140546, Control_c, 1, 11, 84
3, 140594, Control_c, 1, 11, 85
3, 140642, Note_on_c, 1, 76, 0
3, 140642, Note_on_c, 1, 73, 0
3, 140642, Note_on_c, 1, 77, 88
3, 140642, Control_c, 1, 11, 86
3, 140642, Note_on_c, 1, 74, 88
3, 140690, Control_c, 1, 11, 86
3, 140738, Control_c, 1, 11, 87
3, 140786, Control_c, 1, 11, 88
3, 140834, Control_c, 1, 11, 89
3, 140882, Note_on_c, 1, 74, 0
3, 140882, Note_on_c, 1, 77, 0
3, 140882, Note_on_c, 1, 76, 88
3, 140882, Note_on_c, 1, 70, 88
3, 140882, Control_c, 1, 11, 89
3, 141122, Note_on_c, 1, 70, 0
3, 141122, Note_on_c, 1, 76, 0
3, 141122, Note_on_c, 1, 77, 88
3, 141122, Note_on_c, 1, 69, 88
3, 141362, Note_on_c, 1, 69, 0
3, 141362, Note_on_c, 1, 77, 0
3, 141362, Note_on_c, 1, 72, 88
3, 141362, Note_on_c, 1, 78, 88
3, 141602, Note_on_c, 1, 78, 0
3, 141602, Note_on_c, 1, 72, 0
3, 141602, Note_on_c, 1, 79, 88
3, 141602, Note_on_c, 1, 71, 88
3, 141954, Note_on_c, 1, 71, 0
3, 141954, Note_on_c, 1, 79, 0
3, 141962, Note_on_c, 1, 77, 98
3, 141962, Note_on_c, 1, 71, 98
3, 142074, Note_on_c, 1, 71, 0
3, 142074, Note_on_c, 1, 77, 0
3, 142082, Note_on_c, 1, 76, 98
3, 142082, Note_on_c, 1, 72, 98
3, 142194, Note_on_c, 1, 72, 0
3, 142194, Note_on_c, 1, 76, 0
3, 142202, Note_on_c, 1, 76, 98
3, 142202, Note_on_c, 1, 72, 98
3, 142314, Note_on_c, 1, 72, 0
3, 142314, Note_on_c, 1, 76, 0
3, 142322, Note_on_c, 1, 69, 98
3, 142322, Note_on_c, 1, 72, 98
3, 142434, Note_on_c, 1, 72, 0
3, 142434, Note_on_c, 1, 69, 0
3, 142442, Note_on_c, 1, 72, 98
3, 142442, Note_on_c, 1, 69, 98
3, 142554, Note_on_c, 1, 69, 0
3, 142554, Note_on_c, 1, 72, 0
3, 142562, Note_on_c, 1, 71, 98
3, 142674, Note_on_c, 1, 71, 0
3, 142682, Control_c, 1, 11, 103
3, 142682, Note_on_c, 1, 79, 98
3, 142682, Note_on_c, 1, 71, 98
3, 142700, Control_c, 1, 11, 101
3, 142718, Control_c, 1, 11, 99
3, 142736, Control_c, 1, 11, 97
3, 142754, Control_c, 1, 11, 95
3, 142772, Control_c, 1, 11, 93
3, 142790, Control_c, 1, 11, 91
3, 142794, Note_on_c, 1, 71, 0
3, 142802, Note_on_c, 1, 74, 98
3, 142914, Note_on_c, 1, 74, 0
3, 142914, Note_on_c, 1, 79, 0
3, 142922, Note_on_c, 1, 74, 98
3, 142922, Note_on_c, 1, 77, 98
3, 143034, Note_on_c, 1, 77, 0
3, 143034, Note_on_c, 1, 74, 0
3, 143042, Note_on_c, 1, 76, 98
3, 143042, Note_on_c, 1, 67, 98
3, 143154, Note_on_c, 1, 67, 0
3, 143154, Note_on_c, 1, 76, 0
3, 143162, Note_on_c, 1, 76, 98
3, 143162, Note_on_c, 1, 67, 98
3, 143274, Note_on_c, 1, 67, 0
3, 143274, Note_on_c, 1, 76, 0
3, 143282, Note_on_c, 1, 69, 98
3, 143282, Note_on_c, 1, 72, 98
3, 143394, Note_on_c, 1, 72, 0
3, 143394, Note_on_c, 1, 69, 0
3, 143402, Note_on_c, 1, 72, 98
3, 143402, Note_on_c, 1, 78, 98
3, 143514, Note_on_c, 1, 78, 0
3, 143514, Note_on_c, 1, 72, 0
3, 143522, Note_on_c, 1, 79, 98
3, 143522, Note_on_c, 1, 71, 98
3, 143642, Note_on_c, 1, 71, 0
3, 143642, Note_on_c, 1, 79, 0
3, 143762, Note_on_c, 1, 74, 98
3, 143762, Control_c, 1, 11, 103
3, 143780, Control_c, 1, 11, 101
3, 143792, Note_on_c, 1, 74, 0
3, 143798, Control_c, 1, 11, 99
3, 143816, Control_c, 1, 11, 97
3, 143822, Note_on_c, 1, 72, 98
3, 143834, Control_c, 1, 11, 95
3, 143852, Note_on_c, 1, 72, 0
3, 143852, Control_c, 1, 11, 93
3, 143870, Control_c, 1, 11, 91
3, 143882, Note_on_c, 1, 71, 98
3, 143912, Note_on_c, 1, 71, 0
3, 143942, Note_on_c, 1, 69, 98
3, 143972, Note_on_c, 1, 69, 0
3, 144002, Note_on_c, 1, 67, 98
3, 144032, Note_on_c, 1, 67, 0
3, 144062, Note_on_c, 1, 69, 98
3, 144092, Note_on_c, 1, 69, 0
3, 144122, Note_on_c, 1, 71, 98
3, 144152, Note_on_c, 1, 71, 0
3, 144182, Note_on_c, 1, 72, 98
3, 144212, Note_on_c, 1, 72, 0
3, 144242, Note_on_c, 1, 74, 98
3, 144242, Control_c, 1, 11, 103
3, 144260, Control_c, 1, 11, 101
3, 144272, Note_on_c, 1, 74, 0
3, 144278, Control_c, 1, 11, 99
3, 144296, Control_c, 1, 11, 97
3, 144302, Note_on_c, 1, 72, 98
3, 144314, Control_c, 1, 11, 95
3, 144332, Note_on_c, 1, 72, 0
3, 144332, Control_c, 1, 11, 93
3, 144350, Control_c, 1, 11, 91
3, 144362, Note_on_c, 1, 71, 98
3, 144392, Note_on_c, 1, 71, 0
3, 144422, Note_on_c, 1, 69, 98
3, 144452, Note_on_c, 1, 69, 0
3, 144482, Note_on_c, 1, 67, 98
3, 144602, Note_on_c, 1, 67, 0
3, 145922, Note_on_c, 1, 77, 98
3, 145922, Control_c, 1, 11, 52
3, 146222, Note_on_c, 1, 77, 0
3, 146222, Note_on_c, 1, 76, 98
3, 146282, Note_on_c, 1, 76, 0
3, 146282, Note_on_c, 1, 74, 98
3, 146342, Note_on_c, 1, 74, 0
3, 146342, Note_on_c, 1, 72, 98
3, 146392, Note_on_c, 1, 72, 0
3, 146402, Note_on_c, 1, 71, 98
3, 146522, Note_on_c, 1, 71, 0
3, 146882, Note_on_c, 1, 79, 98
3, 147182, Note_on_c, 1, 79, 0
3, 147182, Note_on_c, 1, 76, 98
3, 147242, Note_on_c, 1, 76, 0
3, 147242, Note_on_c, 1, 74, 98
3, 147302, Note_on_c, 1, 74, 0
3, 147302, Note_on_c, 1, 72, 98
3, 147352, Note_on_c, 1, 72, 0
3, 147362, Note_on_c, 1, 71, 98
3, 147482, Note_on_c, 1, 71, 0
3, 147482, Note_on_c, 1, 77, 98
3, 147482, Control_c, 1, 11, 72
3, 147501, Control_c, 1, 11, 71
3, 147520, Control_c, 1, 11, 69
3, 147539, Control_c, 1, 11, 68
3, 147558, Control_c, 1, 11, 66
3, 147578, Control_c, 1, 11, 65
3, 147597, Control_c, 1, 11, 64
3, 147616, Control_c, 1, 11, 62
3, 147635, Control_c, 1, 11, 61
3, 147654, Control_c, 1, 11, 59
3, 147674, Control_c, 1, 11, 57
3, 147693, Control_c, 1, 11, 55
3, 147712, Control_c, 1, 11, 53
3, 147722, Note_on_c, 1, 77, 0
3, 147722, Note_on_c, 1, 76, 98
3, 147832, Note_on_c, 1, 76, 0
3, 147842, Note_on_c, 1, 74, 98
3, 147962, Note_on_c, 1, 74, 0
3, 147962, Note_on_c, 1, 77, 98
3, 147962, Control_c, 1, 11, 72
3, 147981, Control_c, 1, 11, 71
3, 148000, Control_c, 1, 11, 69
3, 148019, Control_c, 1, 11, 68
3, 148038, Control_c, 1, 11, 66
3, 148058, Control_c, 1, 11, 65
3, 148077, Control_c, 1, 11, 64
3, 148096, Control_c, 1, 11, 62
3, 148115, Control_c, 1, 11, 61
3, 148134, Control_c, 1, 11, 59
3, 148154, Control_c, 1, 11, 57
3, 148173, Control_c, 1, 11, 55
3, 148192, Control_c, 1, 11, 53
3, 148202, Note_on_c, 1, 77, 0
3, 148202, Note_on_c, 1, 76, 98
3, 148312, Note_on_c, 1, 76, 0
3, 148322, Note_on_c, 1, 74, 98
3, 148442, Note_on_c, 1, 74, 0
3, 148442, Note_on_c, 1, 79, 98
3, 148562, Note_on_c, 1, 79, 0
3, 148562, Note_on_c, 1, 78, 98
3, 148682, Note_on_c, 1, 78, 0
3, 148682, Note_on_c, 1, 81, 98
3, 148792, Note_on_c, 1, 81, 0
3, 148802, Note_on_c, 1, 79, 98
3, 148922, Note_on_c, 1, 79, 0
3, 149762, Control_c, 1, 11, 52
3, 149762, Note_on_c, 1, 77, 113
3, 150062, Note_on_c, 1, 77, 0
3, 150062, Note_on_c, 1, 76, 113
3, 150122, Note_on_c, 1, 76, 0
3, 150122, Note_on_c, 1, 74, 113
3, 150182, Note_on_c, 1, 74, 0
3, 150182, Note_on_c, 1, 72, 113
3, 150232, Note_on_c, 1, 72, 0
3, 150242, Note_on_c, 1, 71, 98
3, 150362, Note_on_c, 1, 71, 0
3, 150722, Note_on_c, 1, 82, 101
3, 151022, Note_on_c, 1, 82, 0
3, 151022, Note_on_c, 1, 79, 101
3, 151082, Note_on_c, 1, 79, 0
3, 151082, Note_on_c, 1, 76, 101
3, 151142, Note_on_c, 1, 76, 0
3, 151142, Note_on_c, 1, 70, 101
3, 151192, Note_on_c, 1, 70, 0
3, 151202, Note_on_c, 1, 69, 98
3, 151322, Note_on_c, 1, 69, 0
3, 151322, Note_on_c, 1, 81, 88
3, 151322, Note_on_c, 1, 77, 88
3, 151442, Note_on_c, 1, 77, 0
3, 151442, Note_on_c, 1, 81, 0
3, 151442, Control_c, 1, 11, 72
3, 151442, Note_on_c, 1, 79, 88
3, 151442, Note_on_c, 1, 82, 88
3, 151461, Control_c, 1, 11, 71
3, 151480, Control_c, 1, 11, 69
3, 151499, Control_c, 1, 11, 68
3, 151518, Control_c, 1, 11, 66
3, 151538, Control_c, 1, 11, 65
3, 151557, Control_c, 1, 11, 64
3, 151576, Control_c, 1, 11, 62
3, 151595, Control_c, 1, 11, 61
3, 151614, Control_c, 1, 11, 59
3, 151634, Control_c, 1, 11, 57
3, 151653, Control_c, 1, 11, 55
3, 151672, Control_c, 1, 11, 53
3, 151792, Note_on_c, 1, 82, 0
3, 151792, Note_on_c, 1, 79, 0
3, 151802, Note_on_c, 1, 77, 88
3, 151802, Note_on_c, 1, 81, 88
3, 151922, Note_on_c, 1, 81, 0
3, 151922, Note_on_c, 1, 77, 0
3, 151922, Note_on_c, 1, 82, 88
3, 151922, Note_on_c, 1, 79, 88
3, 151922, Control_c, 1, 11, 72
3, 151941, Control_c, 1, 11, 71
3, 151960, Control_c, 1, 11, 69
3, 151979, Control_c, 1, 11, 68
3, 151998, Control_c, 1, 11, 66
3, 152018, Control_c, 1, 11, 65
3, 152037, Control_c, 1, 11, 64
3, 152056, Control_c, 1, 11, 62
3, 152075, Control_c, 1, 11, 61
3, 152094, Control_c, 1, 11, 59
3, 152114, Control_c, 1, 11, 57
3, 152133, Control_c, 1, 11, 55
3, 152152, Control_c, 1, 11, 53
3, 152272, Note_on_c, 1, 79, 0
3, 152272, Note_on_c, 1, 82, 0
3, 152282, Note_on_c, 1, 77, 88
3, 152282, Note_on_c, 1, 81, 88
3, 152402, Note_on_c, 1, 81, 0
3, 152402, Note_on_c, 1, 77, 0
3, 152402, Note_on_c, 1, 76, 88
3, 152402, Note_on_c, 1, 79, 88
3, 152522, Note_on_c, 1, 79, 0
3, 152522, Note_on_c, 1, 76, 0
3, 152522, Note_on_c, 1, 77, 88
3, 152522, Note_on_c, 1, 74, 88
3, 152632, Note_on_c, 1, 74, 0
3, 152632, Note_on_c, 1, 77, 0
3, 152642, Note_on_c, 1, 76, 88
3, 152642, Note_on_c, 1, 72, 88
3, 152882, Note_on_c, 1, 72, 0
3, 152882, Note_on_c, 1, 76, 0
3, 152882, Note_on_c, 1, 74, 98
3, 152882, Note_on_c, 1, 71, 98
3, 153102, Note_on_c, 1, 71, 0
3, 153102, Note_on_c, 1, 74, 0
3, 153122, Note_on_c, 1, 79, 98
3, 153122, Note_on_c, 1, 67, 98
3, 153122, Control_c, 1, 11, 79
3, 153242, Note_on_c, 1, 67, 0
3, 153242, Note_on_c, 1, 79, 0
3, 153362, Note_on_c, 1, 65, 98
3, 153362, Note_on_c, 1, 77, 98
3, 153482, Note_on_c, 1, 77, 0
3, 153482, Note_on_c, 1, 65, 0
3, 153602, Note_on_c, 1, 64, 98
3, 153602, Note_on_c, 1, 76, 98
3, 153722, Note_on_c, 1, 76, 0
3, 153722, Note_on_c, 1, 64, 0
3, 154082, Control_c, 1, 11, 93
3, 154082, Note_on_c, 1, 79, 88
3, 154082, Note_on_c, 1, 67, 88
3, 154099, Control_c, 1, 11, 91
3, 154117, Control_c, 1, 11, 89
3, 154135, Control_c, 1, 11, 86
3, 154153, Control_c, 1, 11, 84
3, 154171, Control_c, 1, 11, 82
3, 154189, Control_c, 1, 11, 80
3, 154312, Note_on_c, 1, 67, 0
3, 154312, Note_on_c, 1, 79, 0
3, 154322, Note_on_c, 1, 77, 88
3, 154322, Note_on_c, 1, 71, 88
3, 154322, Control_c, 1, 11, 93
3, 154339, Control_c, 1, 11, 91
3, 154357, Control_c, 1, 11, 89
3, 154375, Control_c, 1, 11, 86
3, 154393, Control_c, 1, 11, 84
3, 154411, Control_c, 1, 11, 82
3, 154429, Control_c, 1, 11, 80
3, 154552, Note_on_c, 1, 71, 0
3, 154552, Note_on_c, 1, 77, 0
3, 154562, Control_c, 1, 11, 93
3, 154562, Note_on_c, 1, 72, 88
3, 154562, Note_on_c, 1, 76, 88
3, 154579, Control_c, 1, 11, 91
3, 154597, Control_c, 1, 11, 89
3, 154615, Control_c, 1, 11, 86
3, 154633, Control_c, 1, 11, 84
3, 154651, Control_c, 1, 11, 82
3, 154669, Control_c, 1, 11, 80
3, 154682, Note_on_c, 1, 76, 0
3, 154682, Note_on_c, 1, 72, 0
3, 155042, Note_on_c, 1, 79, 88
3, 155042, Control_c, 1, 11, 93
3, 155059, Control_c, 1, 11, 91
3, 155077, Control_c, 1, 11, 89
3, 155095, Control_c, 1, 11, 86
3, 155113, Control_c, 1, 11, 84
3, 155131, Control_c, 1, 11, 82
3, 155149, Control_c, 1, 11, 80
3, 155212, Note_on_c, 1, 79, 0
3, 155222, Note_on_c, 1, 77, 88
3, 155272, Note_on_c, 1, 77, 0
3, 155282, Note_on_c, 1, 76, 88
3, 155332, Note_on_c, 1, 76, 0
3, 155342, Note_on_c, 1, 74, 88
3, 155392, Note_on_c, 1, 74, 0
3, 155402, Note_on_c, 1, 72, 88
3, 155452, Note_on_c, 1, 72, 0
3, 155462, Note_on_c, 1, 71, 88
3, 155512, Note_on_c, 1, 71, 0
3, 155522, Note_on_c, 1, 69, 88
3, 155572, Note_on_c, 1, 69, 0
3, 155582, Control_c, 1, 11, 93
3, 155582, Note_on_c, 1, 81, 88
3, 155600, Control_c, 1, 11, 91
3, 155618, Control_c, 1, 11, 89
3, 155636, Control_c, 1, 11, 86
3, 155654, Control_c, 1, 11, 84
3, 155672, Control_c, 1, 11, 82
3, 155690, Control_c, 1, 11, 80
3, 155692, Note_on_c, 1, 81, 0
3, 155702, Note_on_c, 1, 79, 88
3, 155752, Note_on_c, 1, 79, 0
3, 155762, Note_on_c, 1, 77, 88
3, 155812, Note_on_c, 1, 77, 0
3, 155822, Note_on_c, 1, 76, 88
3, 155872, Note_on_c, 1, 76, 0
3, 155882, Note_on_c, 1, 74, 88
3, 155932, Note_on_c, 1, 74, 0
3, 155942, Note_on_c, 1, 72, 88
3, 155992, Note_on_c, 1, 72, 0
3, 156002, Control_c, 1, 11, 79
3, 156002, Note_on_c, 1, 71, 88
3, 156034, Control_c, 1, 11, 80
3, 156052, Note_on_c, 1, 71, 0
3, 156062, Note_on_c, 1, 72, 88
3, 156066, Control_c, 1, 11, 80
3, 156098, Control_c, 1, 11, 81
3, 156112, Note_on_c, 1, 72, 0
3, 156122, Note_on_c, 1, 74, 88
3, 156122, Note_on_c, 1, 62, 88
3, 156130, Control_c, 1, 11, 82
3, 156162, Control_c, 1, 11, 82
3, 156172, Note_on_c, 1, 62, 0
3, 156172, Note_on_c, 1, 74, 0
3, 156182, Note_on_c, 1, 76, 88
3, 156182, Note_on_c, 1, 64, 88
3, 156194, Control_c, 1, 11, 83
3, 156226, Control_c, 1, 11, 84
3, 156232, Note_on_c, 1, 64, 0
3, 156232, Note_on_c, 1, 76, 0
3, 156242, Note_on_c, 1, 65, 88
3, 156242, Note_on_c, 1, 77, 88
3, 156258, Control_c, 1, 11, 84
3, 156290, Control_c, 1, 11, 85
3, 156292, Note_on_c, 1, 77, 0
3, 156292, Note_on_c, 1, 65, 0
3, 156302, Note_on_c, 1, 67, 88
3, 156302, Note_on_c, 1, 79, 88
3, 156322, Control_c, 1, 11, 86
3, 156352, Note_on_c, 1, 79, 0
3, 156352, Note_on_c, 1, 67, 0
3, 156354, Control_c, 1, 11, 86
3, 156362, Note_on_c, 1, 81, 88
3, 156362, Note_on_c, 1, 69, 88
3, 156386, Control_c, 1, 11, 87
3, 156412, Note_on_c, 1, 69, 0
3, 156412, Note_on_c, 1, 81, 0
3, 156418, Control_c, 1, 11, 88
3, 156422, Note_on_c, 1, 83, 88
3, 156422, Note_on_c, 1, 71, 88
3, 156450, Control_c, 1, 11, 89
3, 156472, Note_on_c, 1, 71, 0
3, 156472, Note_on_c, 1, 83, 0
3, 156482, Control_c, 1, 11, 89
3, 156482, Note_on_c, 1, 72, 88
3, 156482, Note_on_c, 1, 84, 88
3, 156542, Note_on_c, 1, 84, 0
3, 156542, Note_on_c, 1, 72, 0
3, 156602, Note_on_c, 1, 81, 88
3, 156602, Note_on_c, 1, 72, 88
3, 156662, Note_on_c, 1, 72, 0
3, 156662, Note_on_c, 1, 81, 0
3, 156722, Note_on_c, 1, 79, 88
3, 156722, Note_on_c, 1, 76, 88
3, 156782, Note_on_c, 1, 76, 0
3, 156782, Note_on_c, 1, 79, 0
3, 156842, Note_on_c, 1, 71, 88
3, 156842, Note_on_c, 1, 65, 88
3, 156902, Note_on_c, 1, 65, 0
3, 156902, Note_on_c, 1, 71, 0
3, 156962, Note_on_c, 1, 72, 70
3, 156962, Note_on_c, 1, 64, 70
3, 156992, Control_c, 1, 11, 79
3, 157002, Control_c, 1, 11, 76
3, 157012, Control_c, 1, 11, 73
3, 157025, Control_c, 1, 11, 70
3, 157035, Control_c, 1, 11, 67
3, 157046, Control_c, 1, 11, 64
3, 157058, Control_c, 1, 11, 61
3, 157066, Control_c, 1, 11, 58
3, 157074, Control_c, 1, 11, 55
3, 157082, Note_on_c, 1, 64, 0
3, 157082, Note_on_c, 1, 72, 0
3, 157082, Control_c, 1, 11, 52
3, 157922, Note_on_c, 1, 82, 113
3, 157922, Control_c, 1, 11, 27
3, 157940, Control_c, 1, 11, 30
3, 157958, Control_c, 1, 11, 33
3, 157976, Control_c, 1, 11, 36
3, 157994, Control_c, 1, 11, 39
3, 158012, Control_c, 1, 11, 42
3, 158030, Control_c, 1, 11, 45
3, 158084, Control_c, 1, 11, 48
3, 158126, Control_c, 1, 11, 49
3, 158168, Control_c, 1, 11, 50
3, 158210, Control_c, 1, 11, 51
3, 158252, Control_c, 1, 11, 52
3, 158294, Control_c, 1, 11, 53
3, 158336, Control_c, 1, 11, 54
3, 158378, Control_c, 1, 11, 55
3, 158420, Control_c, 1, 11, 56
3, 158462, Control_c, 1, 11, 57
3, 158504, Control_c, 1, 11, 58
3, 158546, Control_c, 1, 11, 59
3, 158588, Control_c, 1, 11, 60
3, 158630, Control_c, 1, 11, 61
3, 158672, Control_c, 1, 11, 62
3, 158714, Control_c, 1, 11, 62
3, 158756, Control_c, 1, 11, 63
3, 158762, Note_on_c, 1, 82, 0
3, 158762, Note_on_c, 1, 80, 113
3, 158798, Control_c, 1, 11, 64
3, 158822, Note_on_c, 1, 80, 0
3, 158822, Note_on_c, 1, 79, 113
3, 158840, Control_c, 1, 11, 64
3, 158872, Note_on_c, 1, 79, 0
3, 158882, Note_on_c, 1, 79, 113
3, 158882, Control_c, 1, 11, 65
3, 158906, Control_c, 1, 11, 64
3, 158927, Note_on_c, 1, 79, 0
3, 158927, Note_on_c, 1, 77, 113
3, 158930, Control_c, 1, 11, 64
3, 158954, Control_c, 1, 11, 63
3, 158972, Note_on_c, 1, 77, 0
3, 158978, Control_c, 1, 11, 62
3, 159002, Control_c, 1, 11, 62
3, 159002, Note_on_c, 1, 77, 113
3, 159026, Control_c, 1, 11, 61
3, 159050, Control_c, 1, 11, 60
3, 159074, Control_c, 1, 11, 59
3, 159092, Note_on_c, 1, 77, 0
3, 159098, Control_c, 1, 11, 58
3, 159122, Control_c, 1, 11, 57
3, 159122, Note_on_c, 1, 77, 113
3, 159146, Control_c, 1, 11, 56
3, 159170, Control_c, 1, 11, 55
3, 159194, Control_c, 1, 11, 54
3, 159212, Note_on_c, 1, 77, 0
3, 159218, Control_c, 1, 11, 53
3, 159242, Control_c, 1, 11, 52
3, 159242, Note_on_c, 1, 77, 113
3, 159266, Control_c, 1, 11, 51
3, 159290, Control_c, 1, 11, 50
3, 159314, Control_c, 1, 11, 49
3, 159332, Note_on_c, 1, 77, 0
3, 159338, Control_c, 1, 11, 48
3, 159362, Note_on_c, 1, 77, 113
3, 159362, Control_c, 1, 11, 47
3, 159482, Note_on_c, 1, 77, 0
3, 160802, Control_c, 1, 11, 52
3, 160843, Control_c, 1, 11, 53
3, 160884, Control_c, 1, 11, 54
3, 160925, Control_c, 1, 11, 55
3, 160966, Control_c, 1, 11, 56
3, 161007, Control_c, 1, 11, 57
3, 161048, Control_c, 1, 11, 58
3, 161090, Control_c, 1, 11, 59
3, 161131, Control_c, 1, 11, 60
3, 161172, Control_c, 1, 11, 61
3, 161213, Control_c, 1, 11, 62
3, 161254, Control_c, 1, 11, 62
3, 161282, Note_on_c, 1, 76, 98
3, 161295, Control_c, 1, 11, 63
3, 161336, Control_c, 1, 11, 64
3, 161378, Control_c, 1, 11, 64
3, 161419, Control_c, 1, 11, 65
3, 161460, Control_c, 1, 11, 66
3, 161501, Control_c, 1, 11, 66
3, 161542, Control_c, 1, 11, 67
3, 161583, Control_c, 1, 11, 68
3, 161624, Control_c, 1, 11, 68
3, 161666, Control_c, 1, 11, 69
3, 161707, Control_c, 1, 11, 70
3, 161748, Control_c, 1, 11, 71
3, 161762, Note_on_c, 1, 76, 0
3, 161762, Note_on_c, 1, 81, 98
3, 161789, Control_c, 1, 11, 71
3, 161830, Control_c, 1, 11, 72
3, 161871, Control_c, 1, 11, 73
3, 161912, Control_c, 1, 11, 73
3, 161954, Control_c, 1, 11, 74
3, 161995, Control_c, 1, 11, 75
3, 162002, Note_on_c, 1, 81, 0
3, 162002, Note_on_c, 1, 77, 98
3, 162036, Control_c, 1, 11, 75
3, 162077, Control_c, 1, 11, 76
3, 162118, Control_c, 1, 11, 77
3, 162159, Control_c, 1, 11, 77
3, 162200, Control_c, 1, 11, 78
3, 162232, Note_on_c, 1, 77, 0
3, 162242, Note_on_c, 1, 76, 98
3, 162242, Control_c, 1, 11, 79
3, 162242, Note_on_c, 1, 72, 98
3, 162592, Note_on_c, 1, 72, 0
3, 162592, Note_on_c, 1, 76, 0
3, 162602, Note_on_c, 1, 67, 98
3, 162692, Note_on_c, 1, 67, 0
3, 162692, Note_on_c, 1, 71, 98
3, 162712, Note_on_c, 1, 71, 0
3, 162722, Note_on_c, 1, 76, 98
3, 162722, Note_on_c, 1, 72, 98
3, 162722, Control_c, 1, 11, 93
3, 162745, Control_c, 1, 11, 91
3, 162769, Control_c, 1, 11, 90
3, 162793, Control_c, 1, 11, 89
3, 162817, Control_c, 1, 11, 87
3, 162841, Control_c, 1, 11, 86
3, 162865, Control_c, 1, 11, 84
3, 162889, Control_c, 1, 11, 83
3, 162913, Control_c, 1, 11, 82
3, 162937, Control_c, 1, 11, 80
3, 162961, Control_c, 1, 11, 79
3, 163072, Note_on_c, 1, 72, 0
3, 163072, Note_on_c, 1, 76, 0
3, 163082, Note_on_c, 1, 67, 98
3, 163172, Note_on_c, 1, 67, 0
3, 163172, Note_on_c, 1, 71, 98
3, 163192, Note_on_c, 1, 71, 0
3, 163202, Control_c, 1, 11, 93
3, 163202, Note_on_c, 1, 72, 98
3, 163219, Control_c, 1, 11, 91
3, 163237, Control_c, 1, 11, 89
3, 163255, Control_c, 1, 11, 86
3, 163262, Note_on_c, 1, 72, 0
3, 163273, Control_c, 1, 11, 84
3, 163291, Control_c, 1, 11, 82
3, 163309, Control_c, 1, 11, 80
3, 163442, Control_c, 1, 11, 93
3, 163442, Note_on_c, 1, 74, 98
3, 163442, Note_on_c, 1, 71, 98
3, 163459, Control_c, 1, 11, 91
3, 163477, Control_c, 1, 11, 89
3, 163495, Control_c, 1, 11, 86
3, 163502, Note_on_c, 1, 71, 0
3, 163502, Note_on_c, 1, 74, 0
3, 163513, Control_c, 1, 11, 84
3, 163531, Control_c, 1, 11, 82
3, 163549, Control_c, 1, 11, 80
3, 163682, Note_on_c, 1, 72, 98
3, 163682, Note_on_c, 1, 76, 98
3, 163682, Control_c, 1, 11, 93
3, 163699, Control_c, 1, 11, 91
3, 163717, Control_c, 1, 11, 89
3, 163735, Control_c, 1, 11, 86
3, 163742, Note_on_c, 1, 76, 0
3, 163742, Note_on_c, 1, 72, 0
3, 163753, Control_c, 1, 11, 84
3, 163771, Control_c, 1, 11, 82
3, 163789, Control_c, 1, 11, 80
3, 163922, Note_on_c, 1, 77, 98
3, 163922, Control_c, 1, 11, 93
3, 163922, Note_on_c, 1, 72, 98
3, 163939, Control_c, 1, 11, 91
3, 163957, Control_c, 1, 11, 89
3, 163975, Control_c, 1, 11, 86
3, 163982, Note_on_c, 1, 72, 0
3, 163982, Note_on_c, 1, 77, 0
3, 163993, Control_c, 1, 11, 84
3, 164011, Control_c, 1, 11, 82
3, 164029, Control_c, 1, 11, 80
3, 164162, Note_on_c, 1, 72, 98
3, 164162, Control_c, 1, 11, 86
3, 164162, Note_on_c, 1, 79, 98
3, 164185, Control_c, 1, 11, 85
3, 164209, Control_c, 1, 11, 84
3, 164233, Control_c, 1, 11, 84
3, 164257, Control_c, 1, 11, 83
3, 164281, Control_c, 1, 11, 82
3, 164305, Control_c, 1, 11, 82
3, 164329, Control_c, 1, 11, 81
3, 164353, Control_c, 1, 11, 80
3, 164377, Control_c, 1, 11, 80
3, 164401, Control_c, 1, 11, 79
3, 164632, Note_on_c, 1, 79, 0
3, 164632, Note_on_c, 1, 72, 0
3, 164642, Control_c, 1, 11, 86
3, 164642, Note_on_c, 1, 80, 98
3, 164642, Note_on_c, 1, 71, 98
3, 164665, Control_c, 1, 11, 85
3, 164689, Control_c, 1, 11, 84
3, 164713, Control_c, 1, 11, 84
3, 164737, Control_c, 1, 11, 83
3, 164761, Control_c, 1, 11, 82
3, 164785, Control_c, 1, 11, 82
3, 164809, Control_c, 1, 11, 81
3, 164833, Control_c, 1, 11, 80
3, 164857, Control_c, 1, 11, 80
3, 164881, Control_c, 1, 11, 79
3, 165112, Note_on_c, 1, 71, 0
3, 165112, Note_on_c, 1, 80, 0
3, 165122, Note_on_c, 1, 76, 98
3, 165122, Control_c, 1, 11, 89
3, 165122, Note_on_c, 1, 81, 98
3, 165592, Note_on_c, 1, 81, 0
3, 165592, Note_on_c, 1, 76, 0
3, 165602, Note_on_c, 1, 70, 98
3, 165602, Note_on_c, 1, 82, 98
3, 165722, Note_on_c, 1, 82, 0
3, 165722, Note_on_c, 1, 70, 0
3, 165722, Note_on_c, 1, 79, 98
3, 165722, Note_on_c, 1, 67, 98
3, 165842, Note_on_c, 1, 67, 0
3, 165842, Note_on_c, 1, 79, 0
3, 165842, Note_on_c, 1, 76, 98
3, 165842, Note_on_c, 1, 64, 98
3, 165962, Note_on_c, 1, 64, 0
3, 165962, Note_on_c, 1, 76, 0
3, 165962, Note_on_c, 1, 73, 98
3, 165962, Note_on_c, 1, 61, 98
3, 166072, Note_on_c, 1, 61, 0
3, 166072, Note_on_c, 1, 73, 0
3, 166082, Note_on_c, 1, 74, 98
3, 166082, Note_on_c, 1, 62, 98
3, 166552, Note_on_c, 1, 62, 0
3, 166552, Note_on_c, 1, 74, 0
3, 166562, Note_on_c, 1, 75, 98
3, 166682, Note_on_c, 1, 75, 0
3, 166682, Note_on_c, 1, 72, 98
3, 166802, Note_on_c, 1, 72, 0
3, 166802, Note_on_c, 1, 69, 98
3, 166922, Note_on_c, 1, 69, 0
3, 166922, Note_on_c, 1, 66, 98
3, 167032, Note_on_c, 1, 66, 0
3, 167042, Control_c, 1, 11, 103
3, 167042, Note_on_c, 1, 67, 98
3, 167065, Control_c, 1, 11, 102
3, 167089, Control_c, 1, 11, 100
3, 167113, Control_c, 1, 11, 99
3, 167137, Control_c, 1, 11, 98
3, 167161, Control_c, 1, 11, 96
3, 167185, Control_c, 1, 11, 95
3, 167209, Control_c, 1, 11, 93
3, 167233, Control_c, 1, 11, 92
3, 167257, Control_c, 1, 11, 91
3, 167272, Note_on_c, 1, 67, 0
3, 167281, Control_c, 1, 11, 89
3, 167282, Note_on_c, 1, 69, 98
3, 167282, Control_c, 1, 11, 103
3, 167305, Control_c, 1, 11, 102
3, 167329, Control_c, 1, 11, 100
3, 167353, Control_c, 1, 11, 99
3, 167377, Control_c, 1, 11, 98
3, 167401, Control_c, 1, 11, 96
3, 167425, Control_c, 1, 11, 95
3, 167449, Control_c, 1, 11, 93
3, 167473, Control_c, 1, 11, 92
3, 167497, Control_c, 1, 11, 91
3, 167512, Note_on_c, 1, 69, 0
3, 167521, Control_c, 1, 11, 89
3, 167522, Control_c, 1, 11, 103
3, 167522, Note_on_c, 1, 65, 98
3, 167545, Control_c, 1, 11, 102
3, 167569, Control_c, 1, 11, 100
3, 167593, Control_c, 1, 11, 99
3, 167617, Control_c, 1, 11, 98
3, 167641, Control_c, 1, 11, 96
3, 167665, Control_c, 1, 11, 95
3, 167689, Control_c, 1, 11, 93
3, 167713, Control_c, 1, 11, 92
3, 167737, Control_c, 1, 11, 91
3, 167752, Note_on_c, 1, 65, 0
3, 167761, Control_c, 1, 11, 89
3, 167762, Note_on_c, 1, 67, 98
3, 167762, Control_c, 1, 11, 103
3, 167782, Control_c, 1, 11, 101
3, 167802, Control_c, 1, 11, 99
3, 167823, Control_c, 1, 11, 97
3, 167843, Control_c, 1, 11, 95
3, 167864, Control_c, 1, 11, 93
3, 167884, Control_c, 1, 11, 91
3, 167905, Control_c, 1, 11, 89
3, 167925, Control_c, 1, 11, 86
3, 167946, Control_c, 1, 11, 84
3, 167966, Control_c, 1, 11, 82
3, 167987, Control_c, 1, 11, 80
3, 167992, Note_on_c, 1, 67, 0
3, 168002, Control_c, 1, 11, 72
3, 168002, Note_on_c, 1, 60, 98
3, 168020, Control_c, 1, 11, 70
3, 168038, Control_c, 1, 11, 68
3, 168056, Control_c, 1, 11, 66
3, 168074, Control_c, 1, 11, 64
3, 168092, Control_c, 1, 11, 62
3, 168110, Control_c, 1, 11, 59
3, 168122, Note_on_c, 1, 60, 0
3, 168122, Control_c, 1, 11, 52
3, 168122, Note_on_c, 1, 77, 88
3, 168122, Note_on_c, 1, 81, 88
3, 168242, Note_on_c, 1, 81, 0
3, 168242, Note_on_c, 1, 77, 0
3, 168242, Note_on_c, 1, 76, 88
3, 168242, Note_on_c, 1, 79, 88
3, 168362, Note_on_c, 1, 79, 0
3, 168362, Note_on_c, 1, 76, 0
3, 168362, Note_on_c, 1, 77, 88
3, 168362, Note_on_c, 1, 74, 88
3, 168482, Note_on_c, 1, 74, 0
3, 168482, Note_on_c, 1, 77, 0
3, 168482, Note_on_c, 1, 76, 88
3, 168482, Note_on_c, 1, 72, 88
3, 168602, Note_on_c, 1, 72, 0
3, 168602, Note_on_c, 1, 76, 0
3, 168602, Note_on_c, 1, 77, 88
3, 168602, Note_on_c, 1, 74, 88
3, 168722, Note_on_c, 1, 74, 0
3, 168722, Note_on_c, 1, 77, 0
3, 168722, Note_on_c, 1, 79, 88
3, 168722, Note_on_c, 1, 76, 88
3, 168842, Note_on_c, 1, 76, 0
3, 168842, Note_on_c, 1, 79, 0
3, 168842, Note_on_c, 1, 77, 88
3, 168842, Control_c, 1, 11, 79
3, 168842, Note_on_c, 1, 74, 88
3, 168962, Note_on_c, 1, 74, 0
3, 168962, Note_on_c, 1, 77, 0
3, 168962, Note_on_c, 1, 76, 88
3, 168962, Note_on_c, 1, 72, 88
3, 169022, Note_on_c, 1, 72, 0
3, 169022, Note_on_c, 1, 76, 0
3, 169802, Control_c, 1, 11, 75
3, 169802, Note_on_c, 1, 74, 98
3, 169802, Note_on_c, 1, 77, 98
3, 169817, Control_c, 1, 11, 73
3, 169833, Control_c, 1, 11, 70
3, 169849, Control_c, 1, 11, 67
3, 169865, Control_c, 1, 11, 64
3, 169881, Control_c, 1, 11, 62
3, 169893, Control_c, 1, 11, 59
3, 169905, Control_c, 1, 11, 56
3, 169917, Control_c, 1, 11, 53
3, 169922, Note_on_c, 1, 77, 0
3, 169922, Note_on_c, 1, 74, 0
3, 169922, Note_on_c, 1, 72, 98
3, 169922, Note_on_c, 1, 76, 98
3, 169982, Note_on_c, 1, 76, 0
3, 169982, Note_on_c, 1, 72, 0
3, 170042, Note_on_c, 1, 77, 98
3, 170042, Note_on_c, 1, 81, 98
3, 170162, Note_on_c, 1, 81, 0
3, 170162, Note_on_c, 1, 77, 0
3, 170162, Note_on_c, 1, 79, 98
3, 170162, Note_on_c, 1, 76, 98
3, 170282, Note_on_c, 1, 76, 0
3, 170282, Note_on_c, 1, 79, 0
3, 170282, Note_on_c, 1, 77, 98
3, 170282, Control_c, 1, 11, 75
3, 170282, Note_on_c, 1, 74, 98
3, 170297, Control_c, 1, 11, 73
3, 170313, Control_c, 1, 11, 70
3, 170329, Control_c, 1, 11, 67
3, 170345, Control_c, 1, 11, 64
3, 170361, Control_c, 1, 11, 62
3, 170373, Control_c, 1, 11, 59
3, 170385, Control_c, 1, 11, 56
3, 170397, Control_c, 1, 11, 53
3, 170402, Note_on_c, 1, 74, 0
3, 170402, Note_on_c, 1, 77, 0
3, 170402, Note_on_c, 1, 76, 98
3, 170402, Note_on_c, 1, 72, 98
3, 170462, Note_on_c, 1, 72, 0
3, 170462, Note_on_c, 1, 76, 0
3, 170522, Note_on_c, 1, 77, 98
3, 170522, Note_on_c, 1, 81, 98
3, 170642, Note_on_c, 1, 81, 0
3, 170642, Note_on_c, 1, 77, 0
3, 170642, Note_on_c, 1, 76, 98
3, 170642, Note_on_c, 1, 79, 98
3, 170762, Note_on_c, 1, 79, 0
3, 170762, Note_on_c, 1, 76, 0
3, 170762, Control_c, 1, 11, 89
3, 170762, Note_on_c, 1, 77, 98
3, 170762, Note_on_c, 1, 74, 98
3, 170882, Note_on_c, 1, 74, 0
3, 170882, Note_on_c, 1, 77, 0
3, 170882, Note_on_c, 1, 76, 98
3, 170882, Note_on_c, 1, 72, 98
3, 170882, Control_c, 1, 11, 79
3, 170900, Control_c, 1, 11, 77
3, 170918, Control_c, 1, 11, 75
3, 170936, Control_c, 1, 11, 73
3, 170954, Control_c, 1, 11, 71
3, 170972, Control_c, 1, 11, 68
3, 170990, Control_c, 1, 11, 66
3, 171008, Control_c, 1, 11, 64
3, 171026, Control_c, 1, 11, 62
3, 171044, Control_c, 1, 11, 60
3, 171062, Control_c, 1, 11, 57
3, 171080, Control_c, 1, 11, 54
3, 171098, Control_c, 1, 11, 51
3, 171116, Control_c, 1, 11, 48
3, 171122, Note_on_c, 1, 72, 0
3, 171122, Note_on_c, 1, 76, 0
3, 171122, Note_on_c, 1, 84, 88
3, 171122, Note_on_c, 1, 72, 88
3, 171362, Note_on_c, 1, 72, 0
3, 171362, Note_on_c, 1, 84, 0
3, 171362, Note_on_c, 1, 82, 88
3, 171362, Note_on_c, 1, 70, 88
3, 171602, Note_on_c, 1, 70, 0
3, 171602, Note_on_c, 1, 82, 0
3, 171602, Note_on_c, 1, 79, 88
3, 171842, Note_on_c, 1, 79, 0
3, 171842, Note_on_c, 1, 76, 88
3, 172082, Note_on_c, 1, 76, 0
3, 172082, Note_on_c, 1, 72, 88
3, 172322, Note_on_c, 1, 72, 0
3, 172322, Note_on_c, 1, 70, 88
3, 172562, Note_on_c, 1, 70, 0
3, 172562, Note_on_c, 1, 67, 88
3, 172802, Note_on_c, 1, 67, 0
3, 172802, Note_on_c, 1, 65, 88
3, 172922, Note_on_c, 1, 65, 0
3, 173042, Note_on_c, 1, 81, 88
3, 173042, Note_on_c, 1, 69, 88
3, 173282, Note_on_c, 1, 69, 0
3, 173282, Note_on_c, 1, 81, 0
3, 173282, Note_on_c, 1, 67, 88
3, 173282, Note_on_c, 1, 79, 88
3, 173522, Note_on_c, 1, 79, 0
3, 173522, Note_on_c, 1, 67, 0
3, 173522, Note_on_c, 1, 76, 88
3, 173762, Note_on_c, 1, 76, 0
3, 173762, Note_on_c, 1, 73, 88
3, 174002, Note_on_c, 1, 73, 0
3, 174002, Note_on_c, 1, 69, 88
3, 174242, Note_on_c, 1, 69, 0
3, 174242, Note_on_c, 1, 67, 88
3, 174482, Note_on_c, 1, 67, 0
3, 174482, Note_on_c, 1, 64, 88
3, 174722, Note_on_c, 1, 64, 0
3, 174722, Note_on_c, 1, 62, 88
3, 174842, Note_on_c, 1, 62, 0
3, 174962, Note_on_c, 1, 74, 88
3, 174962, Control_c, 1, 11, 47
3, 174992, Control_c, 1, 11, 48
3, 175023, Control_c, 1, 11, 49
3, 175053, Control_c, 1, 11, 50
3, 175084, Control_c, 1, 11, 51
3, 175114, Control_c, 1, 11, 52
3, 175145, Control_c, 1, 11, 53
3, 175175, Control_c, 1, 11, 54
3, 175202, Note_on_c, 1, 74, 0
3, 175202, Note_on_c, 1, 77, 88
3, 175206, Control_c, 1, 11, 55
3, 175236, Control_c, 1, 11, 56
3, 175267, Control_c, 1, 11, 57
3, 175298, Control_c, 1, 11, 58
3, 175328, Control_c, 1, 11, 59
3, 175359, Control_c, 1, 11, 60
3, 175389, Control_c, 1, 11, 61
3, 175420, Control_c, 1, 11, 62
3, 175442, Note_on_c, 1, 77, 0
3, 175442, Note_on_c, 1, 74, 88
3, 175450, Control_c, 1, 11, 62
3, 175481, Control_c, 1, 11, 63
3, 175511, Control_c, 1, 11, 64
3, 175542, Control_c, 1, 11, 64
3, 175572, Control_c, 1, 11, 65
3, 175603, Control_c, 1, 11, 66
3, 175634, Control_c, 1, 11, 66
3, 175664, Control_c, 1, 11, 67
3, 175682, Note_on_c, 1, 74, 0
3, 175682, Note_on_c, 1, 71, 88
3, 175695, Control_c, 1, 11, 68
3, 175725, Control_c, 1, 11, 68
3, 175756, Control_c, 1, 11, 69
3, 175786, Control_c, 1, 11, 70
3, 175817, Control_c, 1, 11, 71
3, 175847, Control_c, 1, 11, 71
3, 175878, Control_c, 1, 11, 72
3, 175908, Control_c, 1, 11, 73
3, 175922, Note_on_c, 1, 71, 0
3, 175922, Note_on_c, 1, 67, 88
3, 175939, Control_c, 1, 11, 73
3, 175970, Control_c, 1, 11, 74
3, 176000, Control_c, 1, 11, 75
3, 176031, Control_c, 1, 11, 75
3, 176061, Control_c, 1, 11, 76
3, 176092, Control_c, 1, 11, 77
3, 176122, Control_c, 1, 11, 77
3, 176153, Control_c, 1, 11, 78
3, 176162, Note_on_c, 1, 67, 0
3, 176162, Note_on_c, 1, 65, 88
3, 176183, Control_c, 1, 11, 79
3, 176214, Control_c, 1, 11, 80
3, 176244, Control_c, 1, 11, 80
3, 176275, Control_c, 1, 11, 81
3, 176306, Control_c, 1, 11, 82
3, 176336, Control_c, 1, 11, 82
3, 176367, Control_c, 1, 11, 83
3, 176397, Control_c, 1, 11, 84
3, 176402, Note_on_c, 1, 65, 0
3, 176402, Note_on_c, 1, 62, 88
3, 176428, Control_c, 1, 11, 84
3, 176458, Control_c, 1, 11, 85
3, 176489, Control_c, 1, 11, 86
3, 176519, Control_c, 1, 11, 86
3, 176550, Control_c, 1, 11, 87
3, 176580, Control_c, 1, 11, 88
3, 176611, Control_c, 1, 11, 89
3, 176642, Note_on_c, 1, 62, 0
3, 176642, Control_c, 1, 11, 89
3, 176642, Note_on_c, 1, 64, 98
3, 176642, Note_on_c, 1, 60, 98
3, 176702, Note_on_c, 1, 60, 0
3, 176702, Note_on_c, 1, 64, 0
3, 176882, Note_on_c, 1, 72, 98
3, 176882, Note_on_c, 1, 77, 98
3, 176942, Note_on_c, 1, 77, 0
3, 176942, Note_on_c, 1, 72, 0
3, 177122, Note_on_c, 1, 76, 98
3, 177122, Note_on_c, 1, 72, 98
3, 177182, Note_on_c, 1, 72, 0
3, 177182, Note_on_c, 1, 76, 0
3, 177362, Note_on_c, 1, 77, 98
3, 177362, Note_on_c, 1, 74, 98
3, 177422, Note_on_c, 1, 74, 0
3, 177422, Note_on_c, 1, 77, 0
3, 177602, Note_on_c, 1, 76, 98
3, 177602, Note_on_c, 1, 72, 98
3, 177662, Note_on_c, 1, 72, 0
3, 177662, Note_on_c, 1, 76, 0
3, 177842, Note_on_c, 1, 77, 98
3, 177842, Note_on_c, 1, 72, 98
3, 177902, Note_on_c, 1, 72, 0
3, 177902, Note_on_c, 1, 77, 0
3, 178082, Note_on_c, 1, 72, 98
3, 178082, Note_on_c, 1, 76, 98
3, 178142, Note_on_c, 1, 76, 0
3, 178142, Note_on_c, 1, 72, 0
3, 178322, Note_on_c, 1, 77, 98
3, 178322, Note_on_c, 1, 74, 98
3, 178382, Note_on_c, 1, 74, 0
3, 178382, Note_on_c, 1, 77, 0
3, 178562, Note_on_c, 1, 76, 98
3, 178562, Note_on_c, 1, 72, 98
3, 178622, Note_on_c, 1, 72, 0
3, 178622, Note_on_c, 1, 76, 0
3, 178802, Note_on_c, 1, 72, 98
3, 178802, Note_on_c, 1, 81, 98
3, 178862, Note_on_c, 1, 81, 0
3, 178862, Note_on_c, 1, 72, 0
3, 179042, Note_on_c, 1, 72, 98
3, 179042, Note_on_c, 1, 76, 98
3, 179102, Note_on_c, 1, 76, 0
3, 179102, Note_on_c, 1, 72, 0
3, 179282, Note_on_c, 1, 74, 98
3, 179282, Note_on_c, 1, 71, 98
3, 179342, Note_on_c, 1, 71, 0
3, 179342, Note_on_c, 1, 74, 0
3, 179522, Control_c, 1, 11, 89
3, 179522, Note_on_c, 1, 64, 88
3, 179522, Note_on_c, 1, 72, 88
3, 181082, Note_on_c, 1, 72, 0
3, 181082, Note_on_c, 1, 64, 0
3, 181082, Note_on_c, 1, 60, 98
3, 181082, Note_on_c, 1, 64, 98
3, 181142, Note_on_c, 1, 64, 0
3, 181142, Note_on_c, 1, 60, 0
3, 181202, Note_on_c, 1, 64, 98
3, 181202, Note_on_c, 1, 67, 98
3, 181262, Note_on_c, 1, 67, 0
3, 181262, Note_on_c, 1, 64, 0
3, 181322, Note_on_c, 1, 67, 98
3, 181322, Note_on_c, 1, 72, 98
3, 181382, Note_on_c, 1, 72, 0
3, 181382, Note_on_c, 1, 67, 0
3, 181442, Control_c, 1, 7, 122
3, 181442, Note_on_c, 1, 72, 88
3, 181442, Note_on_c, 1, 76, 88
3, 181453, Control_c, 1, 7, 121
3, 181465, Control_c, 1, 7, 120
3, 181477, Control_c, 1, 7, 119
3, 181489, Control_c, 1, 7, 118
3, 181501, Control_c, 1, 7, 117
3, 181513, Control_c, 1, 7, 116
3, 181525, Control_c, 1, 7, 115
3, 181537, Control_c, 1, 7, 114
3, 181549, Control_c, 1, 7, 113
3, 181561, Control_c, 1, 7, 112
3, 181573, Control_c, 1, 7, 111
3, 181585, Control_c, 1, 7, 110
3, 181597, Control_c, 1, 7, 109
3, 181609, Control_c, 1, 7, 108
3, 181621, Control_c, 1, 7, 107
3, 181633, Control_c, 1, 7, 106
3, 181645, Control_c, 1, 7, 105
3, 181657, Control_c, 1, 7, 104
3, 181669, Control_c, 1, 7, 103
3, 181681, Control_c, 1, 7, 102
3, 182522, Control_c, 1, 11, 79
3, 182540, Control_c, 1, 11, 80
3, 182558, Control_c, 1, 11, 80
3, 182576, Control_c, 1, 11, 81
3, 182594, Control_c, 1, 11, 82
3, 182612, Control_c, 1, 11, 82
3, 182630, Control_c, 1, 11, 83
3, 182648, Control_c, 1, 11, 84
3, 182666, Control_c, 1, 11, 84
3, 182684, Control_c, 1, 11, 85
3, 182702, Control_c, 1, 11, 86
3, 182720, Control_c, 1, 11, 86
3, 182738, Control_c, 1, 11, 87
3, 182756, Control_c, 1, 11, 88
3, 182774, Control_c, 1, 11, 89
3, 182792, Control_c, 1, 11, 89
3, 182810, Control_c, 1, 11, 90
3, 182828, Control_c, 1, 11, 91
3, 182846, Control_c, 1, 11, 91
3, 182864, Control_c, 1, 11, 92
3, 182882, Control_c, 1, 11, 93
3, 183002, Note_on_c, 1, 76, 0
3, 183002, Note_on_c, 1, 72, 0
3, 183002, Note_on_c, 1, 67, 98
3, 183002, Note_on_c, 1, 64, 98
3, 183062, Note_on_c, 1, 64, 0
3, 183062, Note_on_c, 1, 67, 0
3, 183122, Note_on_c, 1, 72, 98
3, 183122, Note_on_c, 1, 67, 98
3, 183182, Note_on_c, 1, 67, 0
3, 183182, Note_on_c, 1, 72, 0
3, 183242, Note_on_c, 1, 72, 98
3, 183242, Note_on_c, 1, 76, 98
3, 183302, Note_on_c, 1, 76, 0
3, 183302, Note_on_c, 1, 72, 0
3, 183362, Control_c, 1, 7, 122
3, 183362, Note_on_c, 1, 79, 88
3, 183362, Note_on_c, 1, 76, 88
3, 183373, Control_c, 1, 7, 121
3, 183385, Control_c, 1, 7, 120
3, 183397, Control_c, 1, 7, 119
3, 183409, Control_c, 1, 7, 118
3, 183421, Control_c, 1, 7, 117
3, 183433, Control_c, 1, 7, 116
3, 183445, Control_c, 1, 7, 115
3, 183457, Control_c, 1, 7, 114
3, 183469, Control_c, 1, 7, 113
3, 183481, Control_c, 1, 7, 112
3, 183493, Control_c, 1, 7, 111
3, 183505, Control_c, 1, 7, 110
3, 183517, Control_c, 1, 7, 109
3, 183529, Control_c, 1, 7, 108
3, 183541, Control_c, 1, 7, 107
3, 183553, Control_c, 1, 7, 106
3, 183565, Control_c, 1, 7, 105
3, 183577, Control_c, 1, 7, 104
3, 183589, Control_c, 1, 7, 103
3, 183601, Control_c, 1, 7, 102
3, 184442, Control_c, 1, 11, 79
3, 184460, Control_c, 1, 11, 80
3, 184478, Control_c, 1, 11, 80
3, 184496, Control_c, 1, 11, 81
3, 184514, Control_c, 1, 11, 82
3, 184532, Control_c, 1, 11, 82
3, 184550, Control_c, 1, 11, 83
3, 184568, Control_c, 1, 11, 84
3, 184586, Control_c, 1, 11, 84
3, 184604, Control_c, 1, 11, 85
3, 184622, Control_c, 1, 11, 86
3, 184640, Control_c, 1, 11, 86
3, 184658, Control_c, 1, 11, 87
3, 184676, Control_c, 1, 11, 88
3, 184694, Control_c, 1, 11, 89
3, 184712, Control_c, 1, 11, 89
3, 184730, Control_c, 1, 11, 90
3, 184748, Control_c, 1, 11, 91
3, 184766, Control_c, 1, 11, 91
3, 184784, Control_c, 1, 11, 92
3, 184802, Control_c, 1, 11, 93
3, 184922, Note_on_c, 1, 76, 0
3, 184922, Note_on_c, 1, 79, 0
3, 184922, Note_on_c, 1, 67, 98
3, 184982, Note_on_c, 1, 67, 0
3, 185042, Note_on_c, 1, 72, 98
3, 185102, Note_on_c, 1, 72, 0
3, 185162, Note_on_c, 1, 76, 98
3, 185222, Note_on_c, 1, 76, 0
3, 185282, Note_on_c, 1, 79, 98
3, 185342, Note_on_c, 1, 79, 0
3, 185402, Note_on_c, 1, 76, 98
3, 185462, Note_on_c, 1, 76, 0
3, 185522, Note_on_c, 1, 72, 98
3, 185582, Note_on_c, 1, 72, 0
3, 185642, Note_on_c, 1, 67, 98
3, 185702, Note_on_c, 1, 67, 0
3, 185762, Note_on_c, 1, 76, 98
3, 185822, Note_on_c, 1, 76, 0
3, 185882, Note_on_c, 1, 72, 98
3, 185942, Note_on_c, 1, 72, 0
3, 186002, Note_on_c, 1, 67, 98
3, 186062, Note_on_c, 1, 67, 0
3, 186122, Note_on_c, 1, 64, 98
3, 186182, Note_on_c, 1, 64, 0
3, 186242, Note_on_c, 1, 72, 98
3, 186302, Note_on_c, 1, 72, 0
3, 186362, Note_on_c, 1, 79, 98
3, 186422, Note_on_c, 1, 79, 0
3, 186482, Note_on_c, 1, 76, 98
3, 186542, Note_on_c, 1, 76, 0
3, 186602, Note_on_c, 1, 72, 98
3, 186662, Note_on_c, 1, 72, 0
3, 186722, Note_on_c, 1, 67, 98
3, 186782, Note_on_c, 1, 67, 0
3, 186842, Note_on_c, 1, 84, 98
3, 186842, Note_on_c, 1, 72, 98
3, 186902, Note_on_c, 1, 72, 0
3, 186902, Note_on_c, 1, 84, 0
3, 186962, Note_on_c, 1, 79, 98
3, 186962, Note_on_c, 1, 67, 98
3, 187022, Note_on_c, 1, 67, 0
3, 187022, Note_on_c, 1, 79, 0
3, 187082, Note_on_c, 1, 76, 98
3, 187082, Note_on_c, 1, 64, 98
3, 187142, Note_on_c, 1, 64, 0
3, 187142, Note_on_c, 1, 76, 0
3, 187202, Note_on_c, 1, 60, 113
3, 187202, Note_on_c, 1, 72, 113
3, 187322, Note_on_c, 1, 72, 0
3, 187322, Note_on_c, 1, 60, 0
3, 187682, Note_on_c, 1, 76, 98
3, 187682, Note_on_c, 1, 72, 98
3, 187802, Note_on_c, 1, 72, 0
3, 187802, Note_on_c, 1, 76, 0
3, 188162, Note_on_c, 1, 76, 98
3, 188162, Note_on_c, 1, 72, 98
3, 188282, Note_on_c, 1, 72, 0
3, 188282, Note_on_c, 1, 76, 0
3, 188642, Note_on_c, 1, 76, 98
3, 188642, Note_on_c, 1, 72, 98
3, 188762, Note_on_c, 1, 72, 0
3, 188762, Note_on_c, 1, 76, 0
3, 188882, Note_on_c, 1, 72, 98
3, 188882, Note_on_c, 1, 76, 98
3, 189002, Note_on_c, 1, 76, 0
3, 189002, Note_on_c, 1, 72, 0
3, 189122, Note_on_c, 1, 76, 98
3, 189122, Note_on_c, 1, 72, 98
3, 189242, Note_on_c, 1, 72, 0
3, 189242, Note_on_c, 1, 76, 0
3, 189602, Control_c, 1, 121, 0
3, 189602, End_track
4, 0, Start_track
4, 0, MIDI_port, 0
4, 0, Title_t, "2 Clarinetti in C"
4, 0, Program_c, 2, 71
4, 0, Control_c, 2, 10, 65
4, 3, Control_c, 2, 121, 0
4, 8, Program_c, 2, 71
4, 13, Pitch_bend_c, 2, 8192
4, 18, Control_c, 2, 11, 72
4, 23, Control_c, 2, 7, 127
4, 28, Control_c, 2, 91, 54
4, 33, Control_c, 2, 93, 0
4, 38, Control_c, 2, 10, 65
4, 483, Control_c, 2, 11, 57
4, 483, Note_on_c, 2, 67, 70
4, 483, Note_on_c, 2, 70, 70
4, 487, Control_c, 2, 11, 60
4, 497, Control_c, 2, 11, 63
4, 507, Control_c, 2, 11, 66
4, 522, Control_c, 2, 11, 68
4, 537, Control_c, 2, 11, 66
4, 553, Control_c, 2, 11, 64
4, 569, Control_c, 2, 11, 62
4, 584, Control_c, 2, 11, 61
4, 596, Control_c, 2, 11, 58
4, 608, Control_c, 2, 11, 55
4, 619, Control_c, 2, 11, 52
4, 631, Control_c, 2, 11, 49
4, 713, Note_on_c, 2, 70, 0
4, 713, Note_on_c, 2, 67, 0
4, 723, Note_on_c, 2, 65, 55
4, 723, Note_on_c, 2, 69, 55
4, 763, Control_c, 2, 11, 47
4, 766, Control_c, 2, 11, 44
4, 769, Control_c, 2, 11, 41
4, 772, Control_c, 2, 11, 38
4, 775, Control_c, 2, 11, 35
4, 778, Control_c, 2, 11, 32
4, 781, Control_c, 2, 11, 29
4, 783, Note_on_c, 2, 69, 0
4, 783, Note_on_c, 2, 65, 0
4, 963, Control_c, 2, 11, 57
4, 963, Note_on_c, 2, 65, 70
4, 963, Note_on_c, 2, 62, 70
4, 967, Control_c, 2, 11, 60
4, 977, Control_c, 2, 11, 63
4, 987, Control_c, 2, 11, 66
4, 1002, Control_c, 2, 11, 68
4, 1017, Control_c, 2, 11, 66
4, 1033, Control_c, 2, 11, 64
4, 1049, Control_c, 2, 11, 62
4, 1064, Control_c, 2, 11, 61
4, 1076, Control_c, 2, 11, 58
4, 1088, Control_c, 2, 11, 55
4, 1099, Control_c, 2, 11, 52
4, 1111, Control_c, 2, 11, 49
4, 1193, Note_on_c, 2, 62, 0
4, 1193, Note_on_c, 2, 65, 0
4, 1203, Note_on_c, 2, 64, 55
4, 1203, Note_on_c, 2, 60, 55
4, 1243, Control_c, 2, 11, 47
4, 1246, Control_c, 2, 11, 44
4, 1249, Control_c, 2, 11, 41
4, 1252, Control_c, 2, 11, 38
4, 1255, Control_c, 2, 11, 35
4, 1258, Control_c, 2, 11, 32
4, 1261, Control_c, 2, 11, 29
4, 1263, Note_on_c, 2, 60, 0
4, 1263, Note_on_c, 2, 64, 0
4, 1443, Note_on_c, 2, 72, 74
4, 1443, Note_on_c, 2, 69, 74
4, 1443, Control_c, 2, 11, 47
4, 1466, Control_c, 2, 11, 49
4, 1490, Control_c, 2, 11, 51
4, 1514, Control_c, 2, 11, 53
4, 1538, Control_c, 2, 11, 55
4, 1562, Control_c, 2, 11, 57
4, 1586, Control_c, 2, 11, 59
4, 1610, Control_c, 2, 11, 61
4, 1634, Control_c, 2, 11, 62
4, 1658, Control_c, 2, 11, 62
4, 1673, Note_on_c, 2, 69, 0
4, 1673, Note_on_c, 2, 72, 0
4, 1682, Control_c, 2, 11, 64
4, 1683, Note_on_c, 2, 72, 74
4, 1683, Note_on_c, 2, 69, 74
4, 1706, Control_c, 2, 11, 64
4, 1730, Control_c, 2, 11, 65
4, 1754, Control_c, 2, 11, 66
4, 1778, Control_c, 2, 11, 67
4, 1782, Note_on_c, 2, 69, 0
4, 1782, Note_on_c, 2, 72, 0
4, 1802, Control_c, 2, 11, 68
4, 1803, Note_on_c, 2, 72, 74
4, 1803, Note_on_c, 2, 69, 74
4, 1826, Control_c, 2, 11, 68
4, 1850, Control_c, 2, 11, 69
4, 1874, Control_c, 2, 11, 70
4, 1898, Control_c, 2, 11, 71
4, 1902, Note_on_c, 2, 69, 0
4, 1902, Note_on_c, 2, 72, 0
4, 1922, Control_c, 2, 11, 72
4, 1923, Note_on_c, 2, 71, 98
4, 1923, Note_on_c, 2, 67, 98
4, 2043, Note_on_c, 2, 67, 0
4, 2043, Note_on_c, 2, 71, 0
4, 2403, Note_on_c, 2, 67, 98
4, 2403, Control_c, 2, 11, 32
4, 2407, Control_c, 2, 11, 35
4, 2411, Control_c, 2, 11, 38
4, 2415, Control_c, 2, 11, 41
4, 2419, Control_c, 2, 11, 44
4, 2423, Control_c, 2, 11, 47
4, 3033, Note_on_c, 2, 67, 0
4, 3033, Note_on_c, 2, 66, 98
4, 3063, Note_on_c, 2, 66, 0
4, 3063, Note_on_c, 2, 67, 98
4, 3093, Note_on_c, 2, 67, 0
4, 3093, Note_on_c, 2, 66, 98
4, 3118, Note_on_c, 2, 66, 0
4, 3123, Note_on_c, 2, 67, 98
4, 3173, Note_on_c, 2, 67, 0
4, 3183, Note_on_c, 2, 67, 98
4, 3233, Note_on_c, 2, 67, 0
4, 3243, Note_on_c, 2, 67, 98
4, 3293, Note_on_c, 2, 67, 0
4, 3303, Note_on_c, 2, 67, 98
4, 3353, Note_on_c, 2, 67, 0
4, 3363, Note_on_c, 2, 67, 98
4, 3363, Control_c, 2, 11, 47
4, 3387, Control_c, 2, 11, 49
4, 3411, Control_c, 2, 11, 51
4, 3435, Control_c, 2, 11, 53
4, 3459, Control_c, 2, 11, 55
4, 3483, Control_c, 2, 11, 57
4, 3507, Control_c, 2, 11, 59
4, 3531, Control_c, 2, 11, 61
4, 3555, Control_c, 2, 11, 62
4, 3579, Control_c, 2, 11, 62
4, 3603, Control_c, 2, 11, 64
4, 3627, Control_c, 2, 11, 64
4, 3651, Control_c, 2, 11, 65
4, 3675, Control_c, 2, 11, 66
4, 3699, Control_c, 2, 11, 67
4, 3723, Note_on_c, 2, 67, 0
4, 3723, Note_on_c, 2, 62, 98
4, 3723, Control_c, 2, 11, 68
4, 3723, Note_on_c, 2, 65, 98
4, 3747, Control_c, 2, 11, 68
4, 3753, Note_on_c, 2, 65, 0
4, 3753, Note_on_c, 2, 62, 0
4, 3753, Note_on_c, 2, 64, 98
4, 3753, Note_on_c, 2, 67, 98
4, 3771, Control_c, 2, 11, 69
4, 3783, Note_on_c, 2, 67, 0
4, 3783, Note_on_c, 2, 64, 0
4, 3783, Note_on_c, 2, 65, 98
4, 3783, Note_on_c, 2, 69, 98
4, 3795, Control_c, 2, 11, 70
4, 3813, Note_on_c, 2, 69, 0
4, 3813, Note_on_c, 2, 65, 0
4, 3813, Note_on_c, 2, 65, 98
4, 3813, Note_on_c, 2, 62, 98
4, 3819, Control_c, 2, 11, 71
4, 3838, Note_on_c, 2, 62, 0
4, 3838, Note_on_c, 2, 65, 0
4, 3843, Control_c, 2, 11, 72
4, 3843, Note_on_c, 2, 64, 98
4, 3843, Note_on_c, 2, 60, 98
4, 3855, Control_c, 2, 11, 75
4, 3870, Control_c, 2, 11, 78
4, 3950, Note_on_c, 2, 60, 0
4, 3950, Note_on_c, 2, 64, 0
4, 3963, Note_on_c, 2, 67, 93
4, 3963, Note_on_c, 2, 76, 93
4, 4063, Control_c, 2, 11, 72
4, 4066, Control_c, 2, 11, 69
4, 4070, Control_c, 2, 11, 66
4, 4075, Control_c, 2, 11, 62
4, 4077, Note_on_c, 2, 76, 0
4, 4077, Note_on_c, 2, 67, 0
4, 4203, Control_c, 2, 11, 72
4, 4203, Note_on_c, 2, 65, 93
4, 4203, Note_on_c, 2, 69, 93
4, 4303, Control_c, 2, 11, 72
4, 4306, Control_c, 2, 11, 69
4, 4310, Control_c, 2, 11, 66
4, 4315, Control_c, 2, 11, 62
4, 4317, Note_on_c, 2, 69, 0
4, 4317, Note_on_c, 2, 65, 0
4, 4323, Note_on_c, 2, 60, 98
4, 4323, Control_c, 2, 11, 32
4, 4323, Note_on_c, 2, 64, 98
4, 4329, Control_c, 2, 11, 35
4, 4335, Control_c, 2, 11, 38
4, 4341, Control_c, 2, 11, 41
4, 4347, Control_c, 2, 11, 44
4, 4353, Control_c, 2, 11, 47
4, 4503, Note_on_c, 2, 64, 0
4, 4503, Note_on_c, 2, 60, 0
4, 4503, Note_on_c, 2, 64, 98
4, 4503, Note_on_c, 2, 67, 98
4, 4558, Note_on_c, 2, 67, 0
4, 4558, Note_on_c, 2, 64, 0
4, 4563, Note_on_c, 2, 64, 98
4, 4563, Note_on_c, 2, 67, 98
4, 4563, Control_c, 2, 11, 47
4, 4581, Control_c, 2, 11, 50
4, 4599, Control_c, 2, 11, 53
4, 4617, Control_c, 2, 11, 56
4, 4623, Note_on_c, 2, 67, 0
4, 4623, Note_on_c, 2, 64, 0
4, 4623, Note_on_c, 2, 65, 98
4, 4623, Note_on_c, 2, 62, 98
4, 4635, Control_c, 2, 11, 59
4, 4653, Control_c, 2, 11, 62
4, 4671, Control_c, 2, 11, 62
4, 4683, Note_on_c, 2, 62, 0
4, 4683, Note_on_c, 2, 65, 0
4, 4683, Note_on_c, 2, 64, 98
4, 4683, Note_on_c, 2, 60, 98
4, 4689, Control_c, 2, 11, 64
4, 4707, Control_c, 2, 11, 65
4, 4725, Control_c, 2, 11, 66
4, 4743, Note_on_c, 2, 60, 0
4, 4743, Note_on_c, 2, 64, 0
4, 4743, Note_on_c, 2, 65, 98
4, 4743, Control_c, 2, 11, 68
4, 4761, Control_c, 2, 11, 69
4, 4779, Control_c, 2, 11, 70
4, 4797, Control_c, 2, 11, 71
4, 4798, Note_on_c, 2, 65, 0
4, 4803, Note_on_c, 2, 64, 98
4, 4812, Control_c, 2, 11, 74
4, 4824, Control_c, 2, 11, 77
4, 4910, Note_on_c, 2, 64, 0
4, 4923, Note_on_c, 2, 64, 93
4, 4923, Note_on_c, 2, 60, 93
4, 5018, Control_c, 2, 11, 72
4, 5021, Control_c, 2, 11, 69
4, 5025, Control_c, 2, 11, 66
4, 5030, Control_c, 2, 11, 62
4, 5037, Note_on_c, 2, 60, 0
4, 5037, Note_on_c, 2, 64, 0
4, 5163, Control_c, 2, 11, 72
4, 5163, Note_on_c, 2, 65, 93
4, 5163, Note_on_c, 2, 69, 93
4, 5258, Control_c, 2, 11, 72
4, 5261, Control_c, 2, 11, 69
4, 5265, Control_c, 2, 11, 66
4, 5270, Control_c, 2, 11, 62
4, 5277, Note_on_c, 2, 69, 0
4, 5277, Note_on_c, 2, 65, 0
4, 5283, Note_on_c, 2, 60, 98
4, 5283, Note_on_c, 2, 64, 98
4, 5283, Control_c, 2, 11, 72
4, 5343, Control_c, 2, 11, 72
4, 5361, Control_c, 2, 11, 70
4, 5379, Control_c, 2, 11, 68
4, 5397, Control_c, 2, 11, 67
4, 5415, Control_c, 2, 11, 65
4, 5433, Control_c, 2, 11, 64
4, 5451, Control_c, 2, 11, 62
4, 5469, Control_c, 2, 11, 59
4, 5482, Control_c, 2, 11, 56
4, 5496, Control_c, 2, 11, 53
4, 5509, Control_c, 2, 11, 50
4, 5518, Note_on_c, 2, 64, 0
4, 5518, Note_on_c, 2, 60, 0
4, 5523, Control_c, 2, 11, 47
4, 5523, Note_on_c, 2, 64, 83
4, 5523, Note_on_c, 2, 72, 83
4, 5546, Control_c, 2, 11, 46
4, 5570, Control_c, 2, 11, 45
4, 5594, Control_c, 2, 11, 44
4, 5618, Control_c, 2, 11, 43
4, 5633, Note_on_c, 2, 72, 0
4, 5633, Note_on_c, 2, 64, 0
4, 5642, Control_c, 2, 11, 42
4, 5643, Note_on_c, 2, 64, 98
4, 5643, Note_on_c, 2, 72, 98
4, 5666, Control_c, 2, 11, 41
4, 5690, Control_c, 2, 11, 40
4, 5714, Control_c, 2, 11, 39
4, 5738, Control_c, 2, 11, 38
4, 5753, Note_on_c, 2, 72, 0
4, 5753, Note_on_c, 2, 64, 0
4, 5762, Control_c, 2, 11, 37
4, 5763, Note_on_c, 2, 71, 98
4, 5763, Note_on_c, 2, 62, 98
4, 5781, Control_c, 2, 11, 40
4, 5799, Control_c, 2, 11, 43
4, 5817, Control_c, 2, 11, 46
4, 6003, Note_on_c, 2, 62, 0
4, 6003, Note_on_c, 2, 71, 0
4, 6003, Note_on_c, 2, 71, 98
4, 6003, Note_on_c, 2, 65, 98
4, 6238, Note_on_c, 2, 65, 0
4, 6238, Note_on_c, 2, 71, 0
4, 6243, Note_on_c, 2, 72, 88
4, 6243, Note_on_c, 2, 64, 88
4, 6303, Control_c, 2, 11, 47
4, 6310, Control_c, 2, 11, 44
4, 6317, Control_c, 2, 11, 41
4, 6324, Control_c, 2, 11, 38
4, 6331, Control_c, 2, 11, 35
4, 6338, Control_c, 2, 11, 32
4, 6345, Control_c, 2, 11, 29
4, 6352, Control_c, 2, 11, 26
4, 6359, Control_c, 2, 11, 23
4, 6363, Note_on_c, 2, 64, 0
4, 6363, Note_on_c, 2, 72, 0
4, 8643, Note_on_c, 2, 73, 78
4, 8643, Note_on_c, 2, 76, 78
4, 8643, Control_c, 2, 11, 62
4, 8675, Control_c, 2, 11, 62
4, 8707, Control_c, 2, 11, 62
4, 8739, Control_c, 2, 11, 62
4, 8771, Control_c, 2, 11, 64
4, 8803, Control_c, 2, 11, 64
4, 8835, Control_c, 2, 11, 64
4, 8867, Control_c, 2, 11, 66
4, 8899, Control_c, 2, 11, 66
4, 8931, Control_c, 2, 11, 67
4, 8963, Control_c, 2, 11, 68
4, 8995, Control_c, 2, 11, 68
4, 9027, Control_c, 2, 11, 69
4, 9059, Control_c, 2, 11, 71
4, 9083, Control_c, 2, 11, 71
4, 9093, Control_c, 2, 11, 68
4, 9107, Control_c, 2, 11, 64
4, 9123, Note_on_c, 2, 76, 0
4, 9123, Note_on_c, 2, 73, 0
4, 9123, Note_on_c, 2, 74, 62
4, 9123, Control_c, 2, 11, 62
4, 9123, Note_on_c, 2, 77, 62
4, 9243, Note_on_c, 2, 77, 0
4, 9243, Note_on_c, 2, 74, 0
4, 11043, Note_on_c, 2, 69, 78
4, 11043, Control_c, 2, 11, 32
4, 11043, Note_on_c, 2, 65, 78
4, 11062, Control_c, 2, 11, 35
4, 11081, Control_c, 2, 11, 38
4, 11100, Control_c, 2, 11, 41
4, 11127, Control_c, 2, 11, 43
4, 11148, Control_c, 2, 11, 44
4, 11169, Control_c, 2, 11, 45
4, 11190, Control_c, 2, 11, 46
4, 11211, Control_c, 2, 11, 47
4, 11231, Control_c, 2, 11, 48
4, 11252, Control_c, 2, 11, 49
4, 11273, Control_c, 2, 11, 50
4, 11294, Control_c, 2, 11, 51
4, 11315, Control_c, 2, 11, 52
4, 11335, Control_c, 2, 11, 53
4, 11356, Control_c, 2, 11, 54
4, 11377, Control_c, 2, 11, 55
4, 11398, Control_c, 2, 11, 56
4, 11419, Control_c, 2, 11, 57
4, 11439, Control_c, 2, 11, 58
4, 11460, Control_c, 2, 11, 59
4, 11481, Control_c, 2, 11, 60
4, 11502, Control_c, 2, 11, 61
4, 11523, Note_on_c, 2, 69, 0
4, 11523, Note_on_c, 2, 68, 78
4, 11523, Control_c, 2, 11, 62
4, 11555, Control_c, 2, 11, 62
4, 11587, Control_c, 2, 11, 62
4, 11619, Control_c, 2, 11, 62
4, 11651, Control_c, 2, 11, 64
4, 11683, Control_c, 2, 11, 64
4, 11715, Control_c, 2, 11, 64
4, 11747, Control_c, 2, 11, 66
4, 11779, Control_c, 2, 11, 66
4, 11811, Control_c, 2, 11, 67
4, 11843, Control_c, 2, 11, 68
4, 11875, Control_c, 2, 11, 68
4, 11907, Control_c, 2, 11, 69
4, 11939, Control_c, 2, 11, 71
4, 11971, Control_c, 2, 11, 71
4, 12003, Note_on_c, 2, 68, 0
4, 12003, Note_on_c, 2, 65, 0
4, 12003, Note_on_c, 2, 67, 98
4, 12003, Note_on_c, 2, 65, 98
4, 12003, Control_c, 2, 11, 78
4, 12021, Control_c, 2, 11, 76
4, 12039, Control_c, 2, 11, 73
4, 12057, Control_c, 2, 11, 71
4, 12075, Control_c, 2, 11, 71
4, 12087, Control_c, 2, 11, 68
4, 12105, Control_c, 2, 11, 66
4, 12123, Control_c, 2, 11, 64
4, 12144, Control_c, 2, 11, 62
4, 12166, Control_c, 2, 11, 61
4, 12187, Control_c, 2, 11, 58
4, 12209, Control_c, 2, 11, 55
4, 12230, Control_c, 2, 11, 52
4, 12252, Control_c, 2, 11, 49
4, 12273, Control_c, 2, 11, 46
4, 12295, Control_c, 2, 11, 43
4, 12316, Control_c, 2, 11, 40
4, 12338, Note_on_c, 2, 65, 0
4, 12338, Note_on_c, 2, 67, 0
4, 12338, Control_c, 2, 11, 37
4, 12963, Control_c, 2, 11, 85
4, 12963, Note_on_c, 2, 65, 98
4, 12963, Note_on_c, 2, 71, 98
4, 12981, Control_c, 2, 11, 82
4, 12999, Control_c, 2, 11, 80
4, 13017, Control_c, 2, 11, 80
4, 13029, Control_c, 2, 11, 77
4, 13047, Control_c, 2, 11, 75
4, 13065, Control_c, 2, 11, 73
4, 13083, Control_c, 2, 11, 71
4, 13099, Control_c, 2, 11, 69
4, 13115, Control_c, 2, 11, 67
4, 13131, Control_c, 2, 11, 64
4, 13147, Control_c, 2, 11, 62
4, 13163, Control_c, 2, 11, 62
4, 13179, Control_c, 2, 11, 59
4, 13195, Control_c, 2, 11, 56
4, 13212, Control_c, 2, 11, 53
4, 13228, Control_c, 2, 11, 50
4, 13244, Control_c, 2, 11, 47
4, 13260, Control_c, 2, 11, 44
4, 13276, Control_c, 2, 11, 41
4, 13292, Control_c, 2, 11, 38
4, 13298, Note_on_c, 2, 71, 0
4, 13298, Note_on_c, 2, 65, 0
4, 13923, Note_on_c, 2, 74, 88
4, 13923, Control_c, 2, 11, 85
4, 13923, Note_on_c, 2, 71, 88
4, 13941, Control_c, 2, 11, 82
4, 13959, Control_c, 2, 11, 80
4, 13977, Control_c, 2, 11, 80
4, 13989, Control_c, 2, 11, 77
4, 14007, Control_c, 2, 11, 75
4, 14025, Control_c, 2, 11, 73
4, 14043, Control_c, 2, 11, 71
4, 14403, Control_c, 2, 11, 71
4, 14422, Control_c, 2, 11, 71
4, 14441, Control_c, 2, 11, 73
4, 14460, Control_c, 2, 11, 73
4, 14479, Control_c, 2, 11, 73
4, 14498, Control_c, 2, 11, 75
4, 14513, Note_on_c, 2, 71, 0
4, 14513, Note_on_c, 2, 74, 0
4, 14517, Control_c, 2, 11, 75
4, 14523, Note_on_c, 2, 71, 79
4, 14523, Note_on_c, 2, 74, 79
4, 14537, Control_c, 2, 11, 76
4, 14556, Control_c, 2, 11, 77
4, 14575, Control_c, 2, 11, 77
4, 14594, Control_c, 2, 11, 78
4, 14613, Control_c, 2, 11, 80
4, 14632, Control_c, 2, 11, 80
4, 14633, Note_on_c, 2, 74, 0
4, 14633, Note_on_c, 2, 71, 0
4, 14643, Note_on_c, 2, 74, 79
4, 14643, Note_on_c, 2, 71, 79
4, 14652, Control_c, 2, 11, 80
4, 14671, Control_c, 2, 11, 80
4, 14690, Control_c, 2, 11, 82
4, 14709, Control_c, 2, 11, 82
4, 14728, Control_c, 2, 11, 82
4, 14747, Control_c, 2, 11, 84
4, 14753, Note_on_c, 2, 71, 0
4, 14753, Note_on_c, 2, 74, 0
4, 14763, Note_on_c, 2, 74, 79
4, 14763, Note_on_c, 2, 71, 79
4, 14767, Control_c, 2, 11, 84
4, 14786, Control_c, 2, 11, 85
4, 14805, Control_c, 2, 11, 86
4, 14824, Control_c, 2, 11, 86
4, 14843, Control_c, 2, 11, 87
4, 14862, Control_c, 2, 11, 89
4, 14873, Note_on_c, 2, 71, 0
4, 14873, Note_on_c, 2, 74, 0
4, 14882, Control_c, 2, 11, 89
4, 14883, Note_on_c, 2, 72, 88
4, 14883, Note_on_c, 2, 76, 88
4, 14943, Note_on_c, 2, 76, 0
4, 14943, Note_on_c, 2, 72, 0
4, 15123, Note_on_c, 2, 69, 88
4, 15123, Note_on_c, 2, 77, 88
4, 15183, Note_on_c, 2, 77, 0
4, 15183, Note_on_c, 2, 69, 0
4, 15363, Note_on_c, 2, 76, 88
4, 15363, Note_on_c, 2, 67, 88
4, 15423, Note_on_c, 2, 67, 0
4, 15423, Note_on_c, 2, 76, 0
4, 15603, Note_on_c, 2, 71, 88
4, 15603, Note_on_c, 2, 65, 88
4, 15663, Note_on_c, 2, 65, 0
4, 15663, Note_on_c, 2, 71, 0
4, 15843, Note_on_c, 2, 72, 88
4, 15843, Note_on_c, 2, 64, 88
4, 15903, Note_on_c, 2, 64, 0
4, 15903, Note_on_c, 2, 72, 0
4, 16803, Note_on_c, 2, 71, 118
4, 17163, Note_on_c, 2, 71, 0
4, 17163, Note_on_c, 2, 74, 125
4, 17273, Note_on_c, 2, 74, 0
4, 17283, Note_on_c, 2, 77, 125
4, 17633, Note_on_c, 2, 77, 0
4, 17643, Note_on_c, 2, 76, 125
4, 17673, Note_on_c, 2, 76, 0
4, 17673, Note_on_c, 2, 74, 125
4, 17703, Note_on_c, 2, 74, 0
4, 17703, Note_on_c, 2, 72, 125
4, 17733, Note_on_c, 2, 72, 0
4, 17733, Note_on_c, 2, 71, 125
4, 17753, Note_on_c, 2, 71, 0
4, 17763, Note_on_c, 2, 72, 112
4, 17763, Control_c, 2, 11, 89
4, 17883, Note_on_c, 2, 72, 0
4, 18363, Note_on_c, 2, 72, 113
4, 18363, Note_on_c, 2, 64, 113
4, 18473, Note_on_c, 2, 64, 0
4, 18473, Note_on_c, 2, 72, 0
4, 18483, Note_on_c, 2, 72, 113
4, 18483, Note_on_c, 2, 64, 113
4, 18593, Note_on_c, 2, 64, 0
4, 18593, Note_on_c, 2, 72, 0
4, 18603, Note_on_c, 2, 64, 113
4, 18603, Note_on_c, 2, 72, 113
4, 18713, Note_on_c, 2, 72, 0
4, 18713, Note_on_c, 2, 64, 0
4, 18723, Note_on_c, 2, 71, 125
4, 18783, Note_on_c, 2, 71, 0
4, 18783, Note_on_c, 2, 69, 125
4, 18843, Note_on_c, 2, 69, 0
4, 18843, Note_on_c, 2, 67, 125
4, 18903, Note_on_c, 2, 67, 0
4, 18903, Note_on_c, 2, 69, 125
4, 18963, Note_on_c, 2, 69, 0
4, 18963, Note_on_c, 2, 71, 125
4, 19023, Note_on_c, 2, 71, 0
4, 19023, Note_on_c, 2, 72, 125
4, 19083, Note_on_c, 2, 72, 0
4, 19083, Note_on_c, 2, 74, 125
4, 19143, Note_on_c, 2, 74, 0
4, 19143, Note_on_c, 2, 76, 125
4, 19193, Note_on_c, 2, 76, 0
4, 19203, Note_on_c, 2, 77, 125
4, 19263, Note_on_c, 2, 77, 0
4, 19263, Note_on_c, 2, 76, 125
4, 19323, Note_on_c, 2, 76, 0
4, 19323, Note_on_c, 2, 77, 125
4, 19383, Note_on_c, 2, 77, 0
4, 19383, Note_on_c, 2, 76, 125
4, 19443, Note_on_c, 2, 76, 0
4, 19443, Note_on_c, 2, 77, 125
4, 19503, Note_on_c, 2, 77, 0
4, 19503, Note_on_c, 2, 74, 125
4, 19563, Note_on_c, 2, 74, 0
4, 19563, Note_on_c, 2, 72, 125
4, 19623, Note_on_c, 2, 72, 0
4, 19623, Note_on_c, 2, 71, 125
4, 19673, Note_on_c, 2, 71, 0
4, 19683, Note_on_c, 2, 72, 112
4, 19803, Note_on_c, 2, 72, 0
4, 20043, Note_on_c, 2, 69, 98
4, 20043, Control_c, 2, 11, 78
4, 20073, Note_on_c, 2, 69, 0
4, 20103, Note_on_c, 2, 73, 98
4, 20133, Note_on_c, 2, 73, 0
4, 20163, Note_on_c, 2, 74, 98
4, 20283, Note_on_c, 2, 74, 0
4, 20523, Control_c, 2, 11, 78
4, 20523, Note_on_c, 2, 71, 98
4, 20553, Note_on_c, 2, 71, 0
4, 20583, Note_on_c, 2, 75, 98
4, 20595, Control_c, 2, 11, 80
4, 20613, Note_on_c, 2, 75, 0
4, 20643, Note_on_c, 2, 76, 98
4, 20667, Control_c, 2, 11, 80
4, 20693, Note_on_c, 2, 76, 0
4, 20703, Note_on_c, 2, 64, 98
4, 20739, Control_c, 2, 11, 80
4, 20753, Note_on_c, 2, 64, 0
4, 20763, Note_on_c, 2, 60, 98
4, 20811, Control_c, 2, 11, 80
4, 20813, Note_on_c, 2, 60, 0
4, 20823, Note_on_c, 2, 64, 98
4, 20873, Note_on_c, 2, 64, 0
4, 20883, Note_on_c, 2, 65, 98
4, 20883, Control_c, 2, 11, 82
4, 20933, Note_on_c, 2, 65, 0
4, 20943, Note_on_c, 2, 62, 98
4, 20955, Control_c, 2, 11, 82
4, 20993, Note_on_c, 2, 62, 0
4, 21003, Note_on_c, 2, 67, 98
4, 21027, Control_c, 2, 11, 82
4, 21053, Note_on_c, 2, 67, 0
4, 21063, Note_on_c, 2, 64, 98
4, 21099, Control_c, 2, 11, 84
4, 21113, Note_on_c, 2, 64, 0
4, 21123, Note_on_c, 2, 69, 98
4, 21171, Control_c, 2, 11, 84
4, 21173, Note_on_c, 2, 69, 0
4, 21183, Note_on_c, 2, 65, 98
4, 21233, Note_on_c, 2, 65, 0
4, 21243, Note_on_c, 2, 71, 98
4, 21243, Control_c, 2, 11, 85
4, 21293, Note_on_c, 2, 71, 0
4, 21303, Note_on_c, 2, 67, 98
4, 21315, Control_c, 2, 11, 86
4, 21353, Note_on_c, 2, 67, 0
4, 21363, Note_on_c, 2, 72, 98
4, 21387, Control_c, 2, 11, 86
4, 21413, Note_on_c, 2, 72, 0
4, 21423, Note_on_c, 2, 69, 98
4, 21459, Control_c, 2, 11, 87
4, 21473, Note_on_c, 2, 69, 0
4, 21483, Note_on_c, 2, 64, 98
4, 21531, Control_c, 2, 11, 89
4, 21533, Note_on_c, 2, 64, 0
4, 21543, Note_on_c, 2, 66, 98
4, 21593, Note_on_c, 2, 66, 0
4, 21603, Note_on_c, 2, 67, 98
4, 21603, Control_c, 2, 11, 89
4, 21663, Note_on_c, 2, 67, 0
4, 21723, Note_on_c, 2, 74, 98
4, 21723, Note_on_c, 2, 71, 98
4, 21783, Note_on_c, 2, 71, 0
4, 21783, Note_on_c, 2, 74, 0
4, 21843, Note_on_c, 2, 72, 98
4, 21843, Note_on_c, 2, 76, 98
4, 21903, Note_on_c, 2, 76, 0
4, 21903, Note_on_c, 2, 72, 0
4, 21963, Note_on_c, 2, 76, 98
4, 21963, Note_on_c, 2, 72, 98
4, 22023, Note_on_c, 2, 72, 0
4, 22023, Note_on_c, 2, 76, 0
4, 22083, Note_on_c, 2, 71, 98
4, 22083, Note_on_c, 2, 74, 98
4, 22203, Note_on_c, 2, 74, 0
4, 22203, Note_on_c, 2, 71, 0
4, 22683, Note_on_c, 2, 71, 98
4, 22683, Note_on_c, 2, 74, 98
4, 22743, Note_on_c, 2, 74, 0
4, 22743, Note_on_c, 2, 71, 0
4, 22803, Note_on_c, 2, 72, 98
4, 22803, Note_on_c, 2, 76, 98
4, 22863, Note_on_c, 2, 76, 0
4, 22863, Note_on_c, 2, 72, 0
4, 22923, Note_on_c, 2, 72, 98
4, 22923, Note_on_c, 2, 76, 98
4, 22983, Note_on_c, 2, 76, 0
4, 22983, Note_on_c, 2, 72, 0
4, 23043, Note_on_c, 2, 71, 98
4, 23043, Note_on_c, 2, 74, 98
4, 23163, Note_on_c, 2, 74, 0
4, 23163, Note_on_c, 2, 71, 0
4, 23523, Note_on_c, 2, 67, 98
4, 23643, Note_on_c, 2, 67, 0
4, 23643, Note_on_c, 2, 74, 98
4, 23643, Note_on_c, 2, 71, 98
4, 23763, Note_on_c, 2, 71, 0
4, 23763, Note_on_c, 2, 74, 0
4, 23883, Note_on_c, 2, 72, 98
4, 23883, Note_on_c, 2, 76, 98
4, 24003, Note_on_c, 2, 76, 0
4, 24003, Note_on_c, 2, 72, 0
4, 24123, Note_on_c, 2, 71, 98
4, 24123, Note_on_c, 2, 74, 98
4, 24243, Note_on_c, 2, 74, 0
4, 24243, Note_on_c, 2, 71, 0
4, 24363, Note_on_c, 2, 76, 98
4, 24363, Note_on_c, 2, 72, 98
4, 24483, Note_on_c, 2, 72, 0
4, 24483, Note_on_c, 2, 76, 0
4, 24483, Note_on_c, 2, 74, 98
4, 24483, Note_on_c, 2, 71, 98
4, 24603, Note_on_c, 2, 71, 0
4, 24603, Note_on_c, 2, 74, 0
4, 24723, Note_on_c, 2, 79, 98
4, 24843, Note_on_c, 2, 79, 0
4, 24963, Note_on_c, 2, 67, 98
4, 25083, Note_on_c, 2, 67, 0
4, 27363, Note_on_c, 2, 66, 88
4, 27363, Note_on_c, 2, 69, 88
4, 27363, Control_c, 2, 11, 52
4, 27483, Note_on_c, 2, 69, 0
4, 27483, Note_on_c, 2, 66, 0
4, 27483, Note_on_c, 2, 72, 88
4, 27483, Control_c, 2, 11, 71
4, 27483, Note_on_c, 2, 69, 88
4, 27502, Control_c, 2, 11, 71
4, 27521, Control_c, 2, 11, 68
4, 27540, Control_c, 2, 11, 67
4, 27559, Control_c, 2, 11, 66
4, 27579, Control_c, 2, 11, 64
4, 27598, Control_c, 2, 11, 62
4, 27617, Control_c, 2, 11, 62
4, 27636, Control_c, 2, 11, 61
4, 27655, Control_c, 2, 11, 59
4, 27675, Control_c, 2, 11, 57
4, 27694, Control_c, 2, 11, 55
4, 27713, Control_c, 2, 11, 53
4, 27723, Note_on_c, 2, 69, 0
4, 27723, Note_on_c, 2, 72, 0
4, 27723, Note_on_c, 2, 71, 88
4, 27723, Note_on_c, 2, 67, 88
4, 27833, Note_on_c, 2, 67, 0
4, 27833, Note_on_c, 2, 71, 0
4, 27843, Note_on_c, 2, 66, 88
4, 27843, Note_on_c, 2, 69, 88
4, 27963, Note_on_c, 2, 69, 0
4, 27963, Note_on_c, 2, 66, 0
4, 27963, Note_on_c, 2, 72, 88
4, 27963, Control_c, 2, 11, 71
4, 27963, Note_on_c, 2, 69, 88
4, 27982, Control_c, 2, 11, 71
4, 28001, Control_c, 2, 11, 68
4, 28020, Control_c, 2, 11, 67
4, 28039, Control_c, 2, 11, 66
4, 28059, Control_c, 2, 11, 64
4, 28078, Control_c, 2, 11, 62
4, 28097, Control_c, 2, 11, 62
4, 28116, Control_c, 2, 11, 61
4, 28135, Control_c, 2, 11, 59
4, 28155, Control_c, 2, 11, 57
4, 28174, Control_c, 2, 11, 55
4, 28193, Control_c, 2, 11, 53
4, 28203, Note_on_c, 2, 69, 0
4, 28203, Note_on_c, 2, 72, 0
4, 28203, Note_on_c, 2, 67, 88
4, 28203, Note_on_c, 2, 71, 88
4, 28313, Note_on_c, 2, 71, 0
4, 28313, Note_on_c, 2, 67, 0
4, 28323, Note_on_c, 2, 69, 98
4, 28323, Note_on_c, 2, 66, 98
4, 28443, Note_on_c, 2, 66, 0
4, 28443, Note_on_c, 2, 69, 0
4, 29763, Note_on_c, 2, 60, 98
4, 29883, Note_on_c, 2, 60, 0
4, 29883, Note_on_c, 2, 64, 98
4, 30003, Note_on_c, 2, 64, 0
4, 30003, Note_on_c, 2, 69, 98
4, 30123, Note_on_c, 2, 69, 0
4, 30123, Note_on_c, 2, 72, 98
4, 30233, Note_on_c, 2, 72, 0
4, 30243, Note_on_c, 2, 60, 98
4, 30363, Note_on_c, 2, 60, 0
4, 30723, Note_on_c, 2, 59, 88
4, 30723, Note_on_c, 2, 62, 88
4, 30843, Note_on_c, 2, 62, 0
4, 30843, Note_on_c, 2, 59, 0
4, 30843, Note_on_c, 2, 62, 88
4, 30843, Note_on_c, 2, 65, 88
4, 30963, Note_on_c, 2, 65, 0
4, 30963, Note_on_c, 2, 62, 0
4, 30963, Note_on_c, 2, 65, 88
4, 30963, Note_on_c, 2, 71, 88
4, 31083, Note_on_c, 2, 71, 0
4, 31083, Note_on_c, 2, 65, 0
4, 31083, Note_on_c, 2, 71, 88
4, 31083, Note_on_c, 2, 74, 88
4, 31193, Note_on_c, 2, 74, 0
4, 31193, Note_on_c, 2, 71, 0
4, 31203, Note_on_c, 2, 72, 88
4, 31203, Note_on_c, 2, 76, 88
4, 31323, Note_on_c, 2, 76, 0
4, 31323, Note_on_c, 2, 72, 0
4, 32643, Note_on_c, 2, 62, 88
4, 32643, Note_on_c, 2, 74, 88
4, 32883, Note_on_c, 2, 74, 0
4, 32883, Note_on_c, 2, 62, 0
4, 32883, Note_on_c, 2, 62, 98
4, 32883, Note_on_c, 2, 74, 98
4, 33103, Note_on_c, 2, 74, 0
4, 33103, Note_on_c, 2, 62, 0
4, 33123, Control_c, 2, 11, 78
4, 33123, Note_on_c, 2, 62, 98
4, 33123, Note_on_c, 2, 74, 98
4, 33243, Note_on_c, 2, 74, 0
4, 33243, Note_on_c, 2, 62, 0
4, 33363, Note_on_c, 2, 66, 98
4, 33363, Note_on_c, 2, 72, 98
4, 33483, Note_on_c, 2, 72, 0
4, 33483, Note_on_c, 2, 66, 0
4, 33603, Note_on_c, 2, 71, 98
4, 33603, Note_on_c, 2, 67, 98
4, 33723, Note_on_c, 2, 67, 0
4, 33723, Note_on_c, 2, 71, 0
4, 35043, Control_c, 2, 11, 91
4, 35043, Note_on_c, 2, 74, 98
4, 35061, Control_c, 2, 11, 91
4, 35079, Control_c, 2, 11, 89
4, 35097, Control_c, 2, 11, 89
4, 35115, Control_c, 2, 11, 86
4, 35133, Control_c, 2, 11, 85
4, 35151, Control_c, 2, 11, 84
4, 35169, Control_c, 2, 11, 82
4, 35187, Control_c, 2, 11, 80
4, 35205, Control_c, 2, 11, 80
4, 35213, Note_on_c, 2, 74, 0
4, 35223, Control_c, 2, 11, 78
4, 35223, Note_on_c, 2, 72, 98
4, 35273, Note_on_c, 2, 72, 0
4, 35283, Note_on_c, 2, 71, 98
4, 35333, Note_on_c, 2, 71, 0
4, 35343, Note_on_c, 2, 69, 98
4, 35393, Note_on_c, 2, 69, 0
4, 35403, Note_on_c, 2, 67, 98
4, 35453, Note_on_c, 2, 67, 0
4, 35463, Note_on_c, 2, 65, 98
4, 35513, Note_on_c, 2, 65, 0
4, 35523, Note_on_c, 2, 64, 98
4, 35573, Note_on_c, 2, 64, 0
4, 35583, Note_on_c, 2, 76, 98
4, 35583, Control_c, 2, 11, 91
4, 35601, Control_c, 2, 11, 89
4, 35619, Control_c, 2, 11, 89
4, 35631, Control_c, 2, 11, 86
4, 35649, Control_c, 2, 11, 84
4, 35667, Control_c, 2, 11, 82
4, 35685, Control_c, 2, 11, 80
4, 35693, Note_on_c, 2, 76, 0
4, 35703, Control_c, 2, 11, 78
4, 35703, Note_on_c, 2, 74, 98
4, 35753, Note_on_c, 2, 74, 0
4, 35763, Note_on_c, 2, 72, 98
4, 35813, Note_on_c, 2, 72, 0
4, 35823, Note_on_c, 2, 71, 98
4, 35873, Note_on_c, 2, 71, 0
4, 35883, Note_on_c, 2, 69, 98
4, 35933, Note_on_c, 2, 69, 0
4, 35943, Note_on_c, 2, 67, 98
4, 35993, Note_on_c, 2, 67, 0
4, 36003, Control_c, 2, 11, 78
4, 36003, Note_on_c, 2, 66, 98
4, 36035, Control_c, 2, 11, 80
4, 36053, Note_on_c, 2, 66, 0
4, 36063, Note_on_c, 2, 67, 98
4, 36067, Control_c, 2, 11, 80
4, 36099, Control_c, 2, 11, 80
4, 36113, Note_on_c, 2, 67, 0
4, 36123, Note_on_c, 2, 69, 98
4, 36131, Control_c, 2, 11, 80
4, 36163, Control_c, 2, 11, 82
4, 36173, Note_on_c, 2, 69, 0
4, 36183, Note_on_c, 2, 71, 98
4, 36195, Control_c, 2, 11, 82
4, 36227, Control_c, 2, 11, 82
4, 36233, Note_on_c, 2, 71, 0
4, 36243, Note_on_c, 2, 72, 98
4, 36259, Control_c, 2, 11, 84
4, 36291, Control_c, 2, 11, 84
4, 36293, Note_on_c, 2, 72, 0
4, 36303, Note_on_c, 2, 74, 98
4, 36323, Control_c, 2, 11, 85
4, 36353, Note_on_c, 2, 74, 0
4, 36355, Control_c, 2, 11, 86
4, 36363, Note_on_c, 2, 76, 98
4, 36387, Control_c, 2, 11, 86
4, 36413, Note_on_c, 2, 76, 0
4, 36419, Control_c, 2, 11, 87
4, 36423, Note_on_c, 2, 78, 98
4, 36451, Control_c, 2, 11, 89
4, 36473, Note_on_c, 2, 78, 0
4, 36483, Note_on_c, 2, 79, 98
4, 36483, Control_c, 2, 11, 89
4, 36543, Note_on_c, 2, 79, 0
4, 36603, Note_on_c, 2, 76, 88
4, 36603, Note_on_c, 2, 67, 88
4, 36663, Note_on_c, 2, 67, 0
4, 36663, Note_on_c, 2, 76, 0
4, 36723, Note_on_c, 2, 74, 88
4, 36723, Note_on_c, 2, 71, 88
4, 36783, Note_on_c, 2, 71, 0
4, 36783, Note_on_c, 2, 74, 0
4, 36843, Note_on_c, 2, 66, 88
4, 36843, Note_on_c, 2, 72, 88
4, 36903, Note_on_c, 2, 72, 0
4, 36903, Note_on_c, 2, 66, 0
4, 36963, Control_c, 2, 11, 78
4, 36963, Note_on_c, 2, 71, 70
4, 36963, Note_on_c, 2, 67, 70
4, 36993, Control_c, 2, 11, 78
4, 37010, Control_c, 2, 11, 75
4, 37028, Control_c, 2, 11, 73
4, 37046, Control_c, 2, 11, 71
4, 37055, Control_c, 2, 11, 68
4, 37073, Control_c, 2, 11, 66
4, 37083, Note_on_c, 2, 67, 0
4, 37083, Note_on_c, 2, 71, 0
4, 40803, Control_c, 2, 11, 42
4, 40803, Note_on_c, 2, 69, 98
4, 40803, Note_on_c, 2, 72, 98
4, 40835, Control_c, 2, 11, 43
4, 40867, Control_c, 2, 11, 44
4, 40899, Control_c, 2, 11, 45
4, 40931, Control_c, 2, 11, 46
4, 40963, Control_c, 2, 11, 47
4, 40995, Control_c, 2, 11, 48
4, 41027, Control_c, 2, 11, 49
4, 41059, Control_c, 2, 11, 50
4, 41091, Control_c, 2, 11, 51
4, 41123, Control_c, 2, 11, 52
4, 41155, Control_c, 2, 11, 53
4, 41187, Control_c, 2, 11, 54
4, 41219, Control_c, 2, 11, 55
4, 41251, Control_c, 2, 11, 56
4, 41283, Note_on_c, 2, 72, 0
4, 41283, Note_on_c, 2, 69, 0
4, 41283, Control_c, 2, 11, 57
4, 41283, Note_on_c, 2, 67, 98
4, 41283, Note_on_c, 2, 71, 98
4, 41315, Control_c, 2, 11, 58
4, 41347, Control_c, 2, 11, 59
4, 41379, Control_c, 2, 11, 60
4, 41411, Control_c, 2, 11, 61
4, 41443, Control_c, 2, 11, 62
4, 41475, Control_c, 2, 11, 62
4, 41507, Control_c, 2, 11, 62
4, 41539, Control_c, 2, 11, 62
4, 41571, Control_c, 2, 11, 64
4, 41603, Control_c, 2, 11, 64
4, 41635, Control_c, 2, 11, 64
4, 41667, Control_c, 2, 11, 66
4, 41699, Control_c, 2, 11, 66
4, 41731, Control_c, 2, 11, 67
4, 41763, Note_on_c, 2, 71, 0
4, 41763, Control_c, 2, 11, 68
4, 41763, Note_on_c, 2, 76, 98
4, 41795, Control_c, 2, 11, 68
4, 41827, Control_c, 2, 11, 69
4, 41859, Control_c, 2, 11, 71
4, 41891, Control_c, 2, 11, 71
4, 41923, Control_c, 2, 11, 71
4, 41955, Control_c, 2, 11, 71
4, 41987, Control_c, 2, 11, 73
4, 42003, Note_on_c, 2, 76, 0
4, 42003, Note_on_c, 2, 67, 0
4, 42003, Note_on_c, 2, 66, 98
4, 42003, Note_on_c, 2, 72, 98
4, 42019, Control_c, 2, 11, 73
4, 42051, Control_c, 2, 11, 73
4, 42083, Control_c, 2, 11, 75
4, 42115, Control_c, 2, 11, 75
4, 42147, Control_c, 2, 11, 76
4, 42179, Control_c, 2, 11, 77
4, 42211, Control_c, 2, 11, 77
4, 42233, Note_on_c, 2, 72, 0
4, 42233, Note_on_c, 2, 66, 0
4, 42243, Note_on_c, 2, 67, 98
4, 42243, Note_on_c, 2, 71, 98
4, 42243, Control_c, 2, 11, 100
4, 42267, Control_c, 2, 11, 98
4, 42291, Control_c, 2, 11, 96
4, 42315, Control_c, 2, 11, 94
4, 42339, Control_c, 2, 11, 91
4, 42363, Note_on_c, 2, 71, 0
4, 42363, Note_on_c, 2, 67, 0
4, 42363, Control_c, 2, 11, 89
4, 43443, Note_on_c, 2, 69, 98
4, 43443, Control_c, 2, 11, 91
4, 43443, Note_on_c, 2, 66, 98
4, 43460, Control_c, 2, 11, 89
4, 43478, Control_c, 2, 11, 89
4, 43490, Control_c, 2, 11, 86
4, 43508, Control_c, 2, 11, 84
4, 43526, Control_c, 2, 11, 82
4, 43544, Control_c, 2, 11, 80
4, 43562, Control_c, 2, 11, 78
4, 43563, Note_on_c, 2, 66, 0
4, 43563, Note_on_c, 2, 69, 0
4, 43683, Note_on_c, 2, 71, 98
4, 43683, Note_on_c, 2, 67, 98
4, 43683, Control_c, 2, 11, 91
4, 43700, Control_c, 2, 11, 89
4, 43718, Control_c, 2, 11, 89
4, 43730, Control_c, 2, 11, 86
4, 43748, Control_c, 2, 11, 84
4, 43766, Control_c, 2, 11, 82
4, 43784, Control_c, 2, 11, 80
4, 43802, Control_c, 2, 11, 78
4, 43803, Note_on_c, 2, 67, 0
4, 43803, Note_on_c, 2, 71, 0
4, 43923, Control_c, 2, 11, 91
4, 43923, Note_on_c, 2, 72, 98
4, 43923, Note_on_c, 2, 66, 98
4, 43940, Control_c, 2, 11, 89
4, 43958, Control_c, 2, 11, 89
4, 43970, Control_c, 2, 11, 86
4, 43988, Control_c, 2, 11, 84
4, 44006, Control_c, 2, 11, 82
4, 44024, Control_c, 2, 11, 80
4, 44042, Control_c, 2, 11, 78
4, 44043, Note_on_c, 2, 66, 0
4, 44043, Note_on_c, 2, 72, 0
4, 44163, Note_on_c, 2, 67, 98
4, 44163, Note_on_c, 2, 71, 98
4, 44283, Note_on_c, 2, 71, 0
4, 44283, Note_on_c, 2, 67, 0
4, 47043, Note_on_c, 2, 62, 98
4, 47043, Control_c, 2, 11, 102
4, 47043, Note_on_c, 2, 74, 98
4, 47060, Control_c, 2, 11, 100
4, 47078, Control_c, 2, 11, 98
4, 47096, Control_c, 2, 11, 96
4, 47114, Control_c, 2, 11, 94
4, 47132, Control_c, 2, 11, 91
4, 47150, Control_c, 2, 11, 89
4, 47273, Note_on_c, 2, 74, 0
4, 47273, Note_on_c, 2, 62, 0
4, 47283, Control_c, 2, 11, 102
4, 47283, Note_on_c, 2, 76, 98
4, 47283, Note_on_c, 2, 64, 98
4, 47300, Control_c, 2, 11, 100
4, 47318, Control_c, 2, 11, 98
4, 47336, Control_c, 2, 11, 96
4, 47354, Control_c, 2, 11, 94
4, 47372, Control_c, 2, 11, 91
4, 47390, Control_c, 2, 11, 89
4, 47513, Note_on_c, 2, 64, 0
4, 47513, Note_on_c, 2, 76, 0
4, 47523, Note_on_c, 2, 72, 98
4, 47523, Note_on_c, 2, 60, 98
4, 47523, Control_c, 2, 11, 102
4, 47540, Control_c, 2, 11, 100
4, 47558, Control_c, 2, 11, 98
4, 47576, Control_c, 2, 11, 96
4, 47594, Control_c, 2, 11, 94
4, 47612, Control_c, 2, 11, 91
4, 47630, Control_c, 2, 11, 89
4, 47753, Note_on_c, 2, 60, 0
4, 47753, Note_on_c, 2, 72, 0
4, 47763, Control_c, 2, 11, 102
4, 47763, Note_on_c, 2, 74, 98
4, 47763, Note_on_c, 2, 62, 98
4, 47780, Control_c, 2, 11, 100
4, 47798, Control_c, 2, 11, 98
4, 47816, Control_c, 2, 11, 96
4, 47834, Control_c, 2, 11, 94
4, 47852, Control_c, 2, 11, 91
4, 47870, Control_c, 2, 11, 89
4, 47943, Control_c, 2, 11, 78
4, 47961, Control_c, 2, 11, 75
4, 47979, Control_c, 2, 11, 73
4, 47993, Note_on_c, 2, 62, 0
4, 47993, Note_on_c, 2, 74, 0
4, 47997, Control_c, 2, 11, 71
4, 48003, Note_on_c, 2, 67, 98
4, 48003, Note_on_c, 2, 55, 98
4, 48006, Control_c, 2, 11, 68
4, 48024, Control_c, 2, 11, 66
4, 48042, Control_c, 2, 11, 62
4, 48060, Control_c, 2, 11, 61
4, 48073, Control_c, 2, 11, 58
4, 48087, Control_c, 2, 11, 55
4, 48100, Control_c, 2, 11, 52
4, 48114, Control_c, 2, 11, 49
4, 48123, Note_on_c, 2, 55, 0
4, 48123, Note_on_c, 2, 67, 0
4, 48843, Note_on_c, 2, 66, 98
4, 48843, Control_c, 2, 11, 85
4, 48843, Note_on_c, 2, 78, 98
4, 48850, Control_c, 2, 11, 82
4, 48866, Control_c, 2, 11, 78
4, 48876, Control_c, 2, 11, 75
4, 48888, Control_c, 2, 11, 71
4, 48900, Control_c, 2, 11, 68
4, 48912, Control_c, 2, 11, 64
4, 48928, Control_c, 2, 11, 61
4, 48935, Control_c, 2, 11, 58
4, 48942, Control_c, 2, 11, 55
4, 48950, Control_c, 2, 11, 52
4, 48957, Control_c, 2, 11, 49
4, 48963, Note_on_c, 2, 78, 0
4, 48963, Note_on_c, 2, 66, 0
4, 48963, Note_on_c, 2, 67, 98
4, 48963, Note_on_c, 2, 79, 98
4, 49083, Note_on_c, 2, 79, 0
4, 49083, Note_on_c, 2, 67, 0
4, 49803, Note_on_c, 2, 66, 98
4, 49803, Control_c, 2, 11, 85
4, 49803, Note_on_c, 2, 78, 98
4, 49810, Control_c, 2, 11, 82
4, 49826, Control_c, 2, 11, 78
4, 49836, Control_c, 2, 11, 75
4, 49848, Control_c, 2, 11, 71
4, 49860, Control_c, 2, 11, 68
4, 49872, Control_c, 2, 11, 64
4, 49888, Control_c, 2, 11, 61
4, 49895, Control_c, 2, 11, 58
4, 49902, Control_c, 2, 11, 55
4, 49910, Control_c, 2, 11, 52
4, 49917, Control_c, 2, 11, 49
4, 49923, Note_on_c, 2, 78, 0
4, 49923, Note_on_c, 2, 66, 0
4, 49923, Note_on_c, 2, 79, 98
4, 49923, Note_on_c, 2, 67, 98
4, 50103, Note_on_c, 2, 67, 0
4, 50103, Note_on_c, 2, 79, 0
4, 50103, Note_on_c, 2, 78, 98
4, 50103, Note_on_c, 2, 66, 98
4, 50133, Note_on_c, 2, 66, 0
4, 50133, Note_on_c, 2, 78, 0
4, 50133, Note_on_c, 2, 64, 98
4, 50133, Note_on_c, 2, 76, 98
4, 50153, Note_on_c, 2, 76, 0
4, 50153, Note_on_c, 2, 64, 0
4, 50163, Note_on_c, 2, 74, 98
4, 50163, Note_on_c, 2, 62, 98
4, 50223, Note_on_c, 2, 62, 0
4, 50223, Note_on_c, 2, 74, 0
4, 50283, Control_c, 2, 11, 85
4, 50283, Note_on_c, 2, 66, 98
4, 50283, Note_on_c, 2, 78, 98
4, 50290, Control_c, 2, 11, 82
4, 50306, Control_c, 2, 11, 78
4, 50316, Control_c, 2, 11, 75
4, 50328, Control_c, 2, 11, 71
4, 50340, Control_c, 2, 11, 68
4, 50352, Control_c, 2, 11, 64
4, 50368, Control_c, 2, 11, 61
4, 50375, Control_c, 2, 11, 58
4, 50382, Control_c, 2, 11, 55
4, 50390, Control_c, 2, 11, 52
4, 50397, Control_c, 2, 11, 49
4, 50403, Note_on_c, 2, 78, 0
4, 50403, Note_on_c, 2, 66, 0
4, 50403, Note_on_c, 2, 79, 98
4, 50403, Note_on_c, 2, 67, 98
4, 50583, Note_on_c, 2, 67, 0
4, 50583, Note_on_c, 2, 79, 0
4, 50583, Note_on_c, 2, 66, 98
4, 50583, Note_on_c, 2, 78, 98
4, 50613, Note_on_c, 2, 78, 0
4, 50613, Note_on_c, 2, 66, 0
4, 50613, Note_on_c, 2, 64, 98
4, 50613, Note_on_c, 2, 76, 98
4, 50643, Note_on_c, 2, 76, 0
4, 50643, Note_on_c, 2, 64, 0
4, 50643, Note_on_c, 2, 62, 98
4, 50643, Note_on_c, 2, 74, 98
4, 50703, Note_on_c, 2, 74, 0
4, 50703, Note_on_c, 2, 62, 0
4, 50763, Note_on_c, 2, 66, 98
4, 50763, Control_c, 2, 11, 89
4, 50763, Note_on_c, 2, 78, 98
4, 50823, Note_on_c, 2, 78, 0
4, 50823, Note_on_c, 2, 66, 0
4, 50883, Note_on_c, 2, 67, 98
4, 50883, Note_on_c, 2, 79, 98
4, 51003, Control_c, 2, 11, 89
4, 51018, Control_c, 2, 11, 89
4, 51034, Control_c, 2, 11, 87
4, 51050, Control_c, 2, 11, 86
4, 51066, Control_c, 2, 11, 86
4, 51082, Control_c, 2, 11, 85
4, 51098, Control_c, 2, 11, 84
4, 51114, Control_c, 2, 11, 84
4, 51130, Control_c, 2, 11, 82
4, 51146, Control_c, 2, 11, 82
4, 51162, Control_c, 2, 11, 82
4, 51178, Control_c, 2, 11, 80
4, 51194, Control_c, 2, 11, 80
4, 51210, Control_c, 2, 11, 80
4, 51226, Control_c, 2, 11, 80
4, 51242, Control_c, 2, 11, 78
4, 51260, Control_c, 2, 11, 77
4, 51277, Control_c, 2, 11, 77
4, 51294, Control_c, 2, 11, 76
4, 51311, Control_c, 2, 11, 75
4, 51328, Control_c, 2, 11, 75
4, 51345, Control_c, 2, 11, 73
4, 51362, Control_c, 2, 11, 73
4, 51363, Note_on_c, 2, 79, 0
4, 51363, Note_on_c, 2, 67, 0
4, 51363, Note_on_c, 2, 77, 88
4, 51363, Note_on_c, 2, 65, 88
4, 51379, Control_c, 2, 11, 73
4, 51397, Control_c, 2, 11, 71
4, 51414, Control_c, 2, 11, 71
4, 51431, Control_c, 2, 11, 71
4, 51448, Control_c, 2, 11, 71
4, 51465, Control_c, 2, 11, 69
4, 51482, Control_c, 2, 11, 68
4, 51499, Control_c, 2, 11, 68
4, 51516, Control_c, 2, 11, 67
4, 51533, Control_c, 2, 11, 66
4, 51551, Control_c, 2, 11, 66
4, 51568, Control_c, 2, 11, 64
4, 51585, Control_c, 2, 11, 64
4, 51602, Control_c, 2, 11, 64
4, 51603, Note_on_c, 2, 65, 0
4, 51603, Note_on_c, 2, 77, 0
4, 51603, Note_on_c, 2, 74, 88
4, 51603, Note_on_c, 2, 62, 88
4, 51619, Control_c, 2, 11, 62
4, 51636, Control_c, 2, 11, 62
4, 51653, Control_c, 2, 11, 62
4, 51670, Control_c, 2, 11, 62
4, 51687, Control_c, 2, 11, 61
4, 51705, Control_c, 2, 11, 60
4, 51722, Control_c, 2, 11, 59
4, 51739, Control_c, 2, 11, 58
4, 51756, Control_c, 2, 11, 57
4, 51773, Control_c, 2, 11, 56
4, 51790, Control_c, 2, 11, 55
4, 51807, Control_c, 2, 11, 54
4, 51824, Control_c, 2, 11, 53
4, 51842, Control_c, 2, 11, 52
4, 51843, Note_on_c, 2, 62, 0
4, 51843, Note_on_c, 2, 74, 0
4, 51843, Note_on_c, 2, 71, 88
4, 51843, Note_on_c, 2, 59, 88
4, 51906, Control_c, 2, 11, 51
4, 51970, Control_c, 2, 11, 50
4, 52034, Control_c, 2, 11, 49
4, 52083, Note_on_c, 2, 59, 0
4, 52083, Note_on_c, 2, 71, 0
4, 52083, Note_on_c, 2, 67, 88
4, 52098, Control_c, 2, 11, 48
4, 52162, Control_c, 2, 11, 47
4, 52226, Control_c, 2, 11, 46
4, 52290, Control_c, 2, 11, 45
4, 52323, Note_on_c, 2, 67, 0
4, 52323, Note_on_c, 2, 65, 88
4, 52354, Control_c, 2, 11, 44
4, 52418, Control_c, 2, 11, 43
4, 52482, Control_c, 2, 11, 42
4, 52546, Control_c, 2, 11, 41
4, 52563, Note_on_c, 2, 65, 0
4, 52563, Note_on_c, 2, 62, 88
4, 52610, Control_c, 2, 11, 40
4, 52674, Control_c, 2, 11, 39
4, 52738, Control_c, 2, 11, 38
4, 52802, Control_c, 2, 11, 37
4, 52803, Note_on_c, 2, 62, 0
4, 52803, Note_on_c, 2, 72, 74
4, 52803, Note_on_c, 2, 64, 74
4, 52863, Control_c, 2, 11, 47
4, 52870, Control_c, 2, 11, 44
4, 52877, Control_c, 2, 11, 41
4, 52884, Control_c, 2, 11, 38
4, 52891, Control_c, 2, 11, 35
4, 52898, Control_c, 2, 11, 32
4, 52905, Control_c, 2, 11, 29
4, 52912, Control_c, 2, 11, 26
4, 52919, Control_c, 2, 11, 23
4, 52923, Note_on_c, 2, 64, 0
4, 52923, Note_on_c, 2, 72, 0
4, 55203, Note_on_c, 2, 73, 78
4, 55203, Note_on_c, 2, 76, 78
4, 55203, Control_c, 2, 11, 62
4, 55235, Control_c, 2, 11, 62
4, 55267, Control_c, 2, 11, 62
4, 55299, Control_c, 2, 11, 62
4, 55331, Control_c, 2, 11, 64
4, 55363, Control_c, 2, 11, 64
4, 55395, Control_c, 2, 11, 64
4, 55427, Control_c, 2, 11, 66
4, 55459, Control_c, 2, 11, 66
4, 55491, Control_c, 2, 11, 67
4, 55523, Control_c, 2, 11, 68
4, 55555, Control_c, 2, 11, 68
4, 55587, Control_c, 2, 11, 69
4, 55619, Control_c, 2, 11, 71
4, 55643, Control_c, 2, 11, 71
4, 55653, Control_c, 2, 11, 68
4, 55667, Control_c, 2, 11, 64
4, 55683, Note_on_c, 2, 76, 0
4, 55683, Note_on_c, 2, 73, 0
4, 55683, Note_on_c, 2, 77, 62
4, 55683, Note_on_c, 2, 74, 62
4, 55683, Control_c, 2, 11, 62
4, 55803, Note_on_c, 2, 74, 0
4, 55803, Note_on_c, 2, 77, 0
4, 57603, Note_on_c, 2, 65, 78
4, 57603, Note_on_c, 2, 69, 78
4, 57603, Control_c, 2, 11, 32
4, 57622, Control_c, 2, 11, 35
4, 57641, Control_c, 2, 11, 38
4, 57660, Control_c, 2, 11, 41
4, 57687, Control_c, 2, 11, 43
4, 57708, Control_c, 2, 11, 44
4, 57729, Control_c, 2, 11, 45
4, 57750, Control_c, 2, 11, 46
4, 57771, Control_c, 2, 11, 47
4, 57791, Control_c, 2, 11, 48
4, 57812, Control_c, 2, 11, 49
4, 57833, Control_c, 2, 11, 50
4, 57854, Control_c, 2, 11, 51
4, 57875, Control_c, 2, 11, 52
4, 57895, Control_c, 2, 11, 53
4, 57916, Control_c, 2, 11, 54
4, 57937, Control_c, 2, 11, 55
4, 57958, Control_c, 2, 11, 56
4, 57979, Control_c, 2, 11, 57
4, 57999, Control_c, 2, 11, 58
4, 58020, Control_c, 2, 11, 59
4, 58041, Control_c, 2, 11, 60
4, 58062, Control_c, 2, 11, 61
4, 58083, Note_on_c, 2, 69, 0
4, 58083, Control_c, 2, 11, 62
4, 58083, Note_on_c, 2, 68, 78
4, 58115, Control_c, 2, 11, 62
4, 58147, Control_c, 2, 11, 62
4, 58179, Control_c, 2, 11, 62
4, 58211, Control_c, 2, 11, 64
4, 58243, Control_c, 2, 11, 64
4, 58275, Control_c, 2, 11, 64
4, 58307, Control_c, 2, 11, 66
4, 58339, Control_c, 2, 11, 66
4, 58371, Control_c, 2, 11, 67
4, 58403, Control_c, 2, 11, 68
4, 58435, Control_c, 2, 11, 68
4, 58467, Control_c, 2, 11, 69
4, 58499, Control_c, 2, 11, 71
4, 58531, Control_c, 2, 11, 71
4, 58563, Note_on_c, 2, 68, 0
4, 58563, Note_on_c, 2, 65, 0
4, 58563, Note_on_c, 2, 65, 98
4, 58563, Note_on_c, 2, 67, 98
4, 58563, Control_c, 2, 11, 78
4, 58581, Control_c, 2, 11, 76
4, 58599, Control_c, 2, 11, 73
4, 58617, Control_c, 2, 11, 71
4, 58635, Control_c, 2, 11, 71
4, 58647, Control_c, 2, 11, 68
4, 58665, Control_c, 2, 11, 66
4, 58683, Control_c, 2, 11, 64
4, 58704, Control_c, 2, 11, 62
4, 58726, Control_c, 2, 11, 61
4, 58747, Control_c, 2, 11, 58
4, 58769, Control_c, 2, 11, 55
4, 58790, Control_c, 2, 11, 52
4, 58812, Control_c, 2, 11, 49
4, 58833, Control_c, 2, 11, 46
4, 58855, Control_c, 2, 11, 43
4, 58876, Control_c, 2, 11, 40
4, 58898, Note_on_c, 2, 67, 0
4, 58898, Note_on_c, 2, 65, 0
4, 58898, Control_c, 2, 11, 37
4, 59523, Note_on_c, 2, 65, 98
4, 59523, Note_on_c, 2, 71, 98
4, 59523, Control_c, 2, 11, 85
4, 59541, Control_c, 2, 11, 82
4, 59559, Control_c, 2, 11, 80
4, 59577, Control_c, 2, 11, 80
4, 59589, Control_c, 2, 11, 77
4, 59607, Control_c, 2, 11, 75
4, 59625, Control_c, 2, 11, 73
4, 59643, Control_c, 2, 11, 71
4, 59659, Control_c, 2, 11, 69
4, 59675, Control_c, 2, 11, 67
4, 59691, Control_c, 2, 11, 64
4, 59707, Control_c, 2, 11, 62
4, 59723, Control_c, 2, 11, 62
4, 59739, Control_c, 2, 11, 59
4, 59755, Control_c, 2, 11, 56
4, 59772, Control_c, 2, 11, 53
4, 59788, Control_c, 2, 11, 50
4, 59804, Control_c, 2, 11, 47
4, 59820, Control_c, 2, 11, 44
4, 59836, Control_c, 2, 11, 41
4, 59852, Control_c, 2, 11, 38
4, 59858, Note_on_c, 2, 71, 0
4, 59858, Note_on_c, 2, 65, 0
4, 60483, Control_c, 2, 11, 85
4, 60483, Note_on_c, 2, 74, 88
4, 60483, Note_on_c, 2, 71, 88
4, 60501, Control_c, 2, 11, 82
4, 60519, Control_c, 2, 11, 80
4, 60537, Control_c, 2, 11, 80
4, 60549, Control_c, 2, 11, 77
4, 60567, Control_c, 2, 11, 75
4, 60585, Control_c, 2, 11, 73
4, 60603, Control_c, 2, 11, 71
4, 60963, Control_c, 2, 11, 71
4, 60982, Control_c, 2, 11, 71
4, 61001, Control_c, 2, 11, 73
4, 61020, Control_c, 2, 11, 73
4, 61039, Control_c, 2, 11, 73
4, 61058, Control_c, 2, 11, 75
4, 61073, Note_on_c, 2, 71, 0
4, 61073, Note_on_c, 2, 74, 0
4, 61077, Control_c, 2, 11, 75
4, 61083, Note_on_c, 2, 74, 79
4, 61083, Note_on_c, 2, 71, 79
4, 61097, Control_c, 2, 11, 76
4, 61116, Control_c, 2, 11, 77
4, 61135, Control_c, 2, 11, 77
4, 61154, Control_c, 2, 11, 78
4, 61173, Control_c, 2, 11, 80
4, 61192, Control_c, 2, 11, 80
4, 61193, Note_on_c, 2, 71, 0
4, 61193, Note_on_c, 2, 74, 0
4, 61203, Note_on_c, 2, 71, 79
4, 61203, Note_on_c, 2, 74, 79
4, 61212, Control_c, 2, 11, 80
4, 61231, Control_c, 2, 11, 80
4, 61250, Control_c, 2, 11, 82
4, 61269, Control_c, 2, 11, 82
4, 61288, Control_c, 2, 11, 82
4, 61307, Control_c, 2, 11, 84
4, 61313, Note_on_c, 2, 74, 0
4, 61313, Note_on_c, 2, 71, 0
4, 61323, Note_on_c, 2, 74, 79
4, 61323, Note_on_c, 2, 71, 79
4, 61327, Control_c, 2, 11, 84
4, 61346, Control_c, 2, 11, 85
4, 61365, Control_c, 2, 11, 86
4, 61384, Control_c, 2, 11, 86
4, 61403, Control_c, 2, 11, 87
4, 61422, Control_c, 2, 11, 89
4, 61433, Note_on_c, 2, 71, 0
4, 61433, Note_on_c, 2, 74, 0
4, 61442, Control_c, 2, 11, 89
4, 61443, Note_on_c, 2, 76, 88
4, 61443, Note_on_c, 2, 72, 88
4, 61503, Note_on_c, 2, 72, 0
4, 61503, Note_on_c, 2, 76, 0
4, 61683, Note_on_c, 2, 77, 88
4, 61683, Note_on_c, 2, 69, 88
4, 61743, Note_on_c, 2, 69, 0
4, 61743, Note_on_c, 2, 77, 0
4, 61923, Note_on_c, 2, 67, 88
4, 61923, Note_on_c, 2, 76, 88
4, 61983, Note_on_c, 2, 76, 0
4, 61983, Note_on_c, 2, 67, 0
4, 62163, Note_on_c, 2, 65, 88
4, 62163, Note_on_c, 2, 71, 88
4, 62223, Note_on_c, 2, 71, 0
4, 62223, Note_on_c, 2, 65, 0
4, 62403, Note_on_c, 2, 64, 88
4, 62403, Note_on_c, 2, 72, 88
4, 62463, Note_on_c, 2, 72, 0
4, 62463, Note_on_c, 2, 64, 0
4, 63363, Note_on_c, 2, 71, 124
4, 63723, Note_on_c, 2, 71, 0
4, 63723, Note_on_c, 2, 74, 125
4, 63833, Note_on_c, 2, 74, 0
4, 63843, Note_on_c, 2, 77, 125
4, 64193, Note_on_c, 2, 77, 0
4, 64203, Note_on_c, 2, 76, 124
4, 64233, Note_on_c, 2, 76, 0
4, 64233, Note_on_c, 2, 74, 125
4, 64263, Note_on_c, 2, 74, 0
4, 64263, Note_on_c, 2, 72, 125
4, 64293, Note_on_c, 2, 72, 0
4, 64293, Note_on_c, 2, 71, 125
4, 64313, Note_on_c, 2, 71, 0
4, 64323, Control_c, 2, 11, 89
4, 64323, Note_on_c, 2, 72, 112
4, 64443, Note_on_c, 2, 72, 0
4, 64923, Note_on_c, 2, 72, 113
4, 64923, Note_on_c, 2, 64, 113
4, 65033, Note_on_c, 2, 64, 0
4, 65033, Note_on_c, 2, 72, 0
4, 65043, Note_on_c, 2, 64, 113
4, 65043, Note_on_c, 2, 72, 113
4, 65153, Note_on_c, 2, 72, 0
4, 65153, Note_on_c, 2, 64, 0
4, 65163, Note_on_c, 2, 72, 113
4, 65163, Note_on_c, 2, 64, 113
4, 65273, Note_on_c, 2, 64, 0
4, 65273, Note_on_c, 2, 72, 0
4, 65283, Note_on_c, 2, 71, 125
4, 65343, Note_on_c, 2, 71, 0
4, 65343, Note_on_c, 2, 69, 125
4, 65403, Note_on_c, 2, 69, 0
4, 65403, Note_on_c, 2, 67, 125
4, 65463, Note_on_c, 2, 67, 0
4, 65463, Note_on_c, 2, 69, 125
4, 65523, Note_on_c, 2, 69, 0
4, 65523, Note_on_c, 2, 71, 125
4, 65583, Note_on_c, 2, 71, 0
4, 65583, Note_on_c, 2, 72, 125
4, 65643, Note_on_c, 2, 72, 0
4, 65643, Note_on_c, 2, 74, 125
4, 65703, Note_on_c, 2, 74, 0
4, 65703, Note_on_c, 2, 76, 125
4, 65753, Note_on_c, 2, 76, 0
4, 65763, Note_on_c, 2, 77, 125
4, 65823, Note_on_c, 2, 77, 0
4, 65823, Note_on_c, 2, 76, 125
4, 65883, Note_on_c, 2, 76, 0
4, 65883, Note_on_c, 2, 77, 125
4, 65943, Note_on_c, 2, 77, 0
4, 65943, Note_on_c, 2, 76, 125
4, 66003, Note_on_c, 2, 76, 0
4, 66003, Note_on_c, 2, 77, 125
4, 66063, Note_on_c, 2, 77, 0
4, 66063, Note_on_c, 2, 74, 125
4, 66123, Note_on_c, 2, 74, 0
4, 66123, Note_on_c, 2, 72, 125
4, 66183, Note_on_c, 2, 72, 0
4, 66183, Note_on_c, 2, 71, 125
4, 66233, Note_on_c, 2, 71, 0
4, 66243, Note_on_c, 2, 72, 101
4, 66363, Note_on_c, 2, 72, 0
4, 66603, Control_c, 2, 11, 78
4, 66603, Note_on_c, 2, 69, 98
4, 66633, Note_on_c, 2, 69, 0
4, 66663, Note_on_c, 2, 73, 98
4, 66693, Note_on_c, 2, 73, 0
4, 66723, Note_on_c, 2, 74, 98
4, 66843, Note_on_c, 2, 74, 0
4, 67083, Note_on_c, 2, 71, 98
4, 67083, Control_c, 2, 11, 78
4, 67113, Note_on_c, 2, 71, 0
4, 67143, Note_on_c, 2, 75, 98
4, 67155, Control_c, 2, 11, 80
4, 67173, Note_on_c, 2, 75, 0
4, 67203, Note_on_c, 2, 76, 98
4, 67227, Control_c, 2, 11, 80
4, 67253, Note_on_c, 2, 76, 0
4, 67263, Note_on_c, 2, 64, 98
4, 67299, Control_c, 2, 11, 80
4, 67313, Note_on_c, 2, 64, 0
4, 67323, Note_on_c, 2, 60, 98
4, 67371, Control_c, 2, 11, 80
4, 67373, Note_on_c, 2, 60, 0
4, 67383, Note_on_c, 2, 64, 98
4, 67433, Note_on_c, 2, 64, 0
4, 67443, Control_c, 2, 11, 82
4, 67443, Note_on_c, 2, 65, 98
4, 67493, Note_on_c, 2, 65, 0
4, 67503, Note_on_c, 2, 62, 98
4, 67515, Control_c, 2, 11, 82
4, 67553, Note_on_c, 2, 62, 0
4, 67563, Note_on_c, 2, 67, 98
4, 67587, Control_c, 2, 11, 82
4, 67613, Note_on_c, 2, 67, 0
4, 67623, Note_on_c, 2, 64, 98
4, 67659, Control_c, 2, 11, 84
4, 67673, Note_on_c, 2, 64, 0
4, 67683, Note_on_c, 2, 69, 98
4, 67731, Control_c, 2, 11, 84
4, 67733, Note_on_c, 2, 69, 0
4, 67743, Note_on_c, 2, 65, 98
4, 67793, Note_on_c, 2, 65, 0
4, 67803, Control_c, 2, 11, 85
4, 67803, Note_on_c, 2, 71, 98
4, 67853, Note_on_c, 2, 71, 0
4, 67863, Note_on_c, 2, 67, 98
4, 67875, Control_c, 2, 11, 86
4, 67913, Note_on_c, 2, 67, 0
4, 67923, Note_on_c, 2, 72, 98
4, 67947, Control_c, 2, 11, 86
4, 67973, Note_on_c, 2, 72, 0
4, 67983, Note_on_c, 2, 69, 98
4, 68019, Control_c, 2, 11, 87
4, 68033, Note_on_c, 2, 69, 0
4, 68043, Note_on_c, 2, 64, 98
4, 68091, Control_c, 2, 11, 89
4, 68093, Note_on_c, 2, 64, 0
4, 68103, Note_on_c, 2, 66, 98
4, 68153, Note_on_c, 2, 66, 0
4, 68163, Control_c, 2, 11, 89
4, 68163, Note_on_c, 2, 67, 98
4, 68223, Note_on_c, 2, 67, 0
4, 68283, Note_on_c, 2, 71, 98
4, 68283, Note_on_c, 2, 74, 98
4, 68343, Note_on_c, 2, 74, 0
4, 68343, Note_on_c, 2, 71, 0
4, 68403, Note_on_c, 2, 72, 98
4, 68403, Note_on_c, 2, 76, 98
4, 68463, Note_on_c, 2, 76, 0
4, 68463, Note_on_c, 2, 72, 0
4, 68523, Note_on_c, 2, 76, 98
4, 68523, Note_on_c, 2, 72, 98
4, 68583, Note_on_c, 2, 72, 0
4, 68583, Note_on_c, 2, 76, 0
4, 68643, Note_on_c, 2, 71, 98
4, 68643, Note_on_c, 2, 74, 98
4, 68763, Note_on_c, 2, 74, 0
4, 68763, Note_on_c, 2, 71, 0
4, 69243, Note_on_c, 2, 74, 98
4, 69243, Note_on_c, 2, 71, 98
4, 69303, Note_on_c, 2, 71, 0
4, 69303, Note_on_c, 2, 74, 0
4, 69363, Note_on_c, 2, 72, 98
4, 69363, Note_on_c, 2, 76, 98
4, 69423, Note_on_c, 2, 76, 0
4, 69423, Note_on_c, 2, 72, 0
4, 69483, Note_on_c, 2, 76, 98
4, 69483, Note_on_c, 2, 72, 98
4, 69543, Note_on_c, 2, 72, 0
4, 69543, Note_on_c, 2, 76, 0
4, 69603, Note_on_c, 2, 71, 98
4, 69603, Note_on_c, 2, 74, 98
4, 69723, Note_on_c, 2, 74, 0
4, 69723, Note_on_c, 2, 71, 0
4, 70083, Note_on_c, 2, 67, 98
4, 70203, Note_on_c, 2, 67, 0
4, 70203, Note_on_c, 2, 74, 98
4, 70203, Note_on_c, 2, 71, 98
4, 70323, Note_on_c, 2, 71, 0
4, 70323, Note_on_c, 2, 74, 0
4, 70443, Note_on_c, 2, 76, 98
4, 70443, Note_on_c, 2, 72, 98
4, 70563, Note_on_c, 2, 72, 0
4, 70563, Note_on_c, 2, 76, 0
4, 70683, Note_on_c, 2, 74, 98
4, 70683, Note_on_c, 2, 71, 98
4, 70803, Note_on_c, 2, 71, 0
4, 70803, Note_on_c, 2, 74, 0
4, 70923, Note_on_c, 2, 76, 98
4, 70923, Note_on_c, 2, 72, 98
4, 71043, Note_on_c, 2, 72, 0
4, 71043, Note_on_c, 2, 76, 0
4, 71043, Note_on_c, 2, 74, 98
4, 71043, Note_on_c, 2, 71, 98
4, 71163, Note_on_c, 2, 71, 0
4, 71163, Note_on_c, 2, 74, 0
4, 71283, Note_on_c, 2, 79, 98
4, 71403, Note_on_c, 2, 79, 0
4, 71523, Note_on_c, 2, 67, 98
4, 71643, Note_on_c, 2, 67, 0
4, 73923, Control_c, 2, 11, 52
4, 73923, Note_on_c, 2, 69, 88
4, 73923, Note_on_c, 2, 66, 88
4, 74043, Note_on_c, 2, 66, 0
4, 74043, Note_on_c, 2, 69, 0
4, 74043, Note_on_c, 2, 72, 88
4, 74043, Note_on_c, 2, 69, 88
4, 74043, Control_c, 2, 11, 71
4, 74062, Control_c, 2, 11, 71
4, 74081, Control_c, 2, 11, 68
4, 74100, Control_c, 2, 11, 67
4, 74119, Control_c, 2, 11, 66
4, 74139, Control_c, 2, 11, 64
4, 74158, Control_c, 2, 11, 62
4, 74177, Control_c, 2, 11, 62
4, 74196, Control_c, 2, 11, 61
4, 74215, Control_c, 2, 11, 59
4, 74235, Control_c, 2, 11, 57
4, 74254, Control_c, 2, 11, 55
4, 74273, Control_c, 2, 11, 53
4, 74283, Note_on_c, 2, 69, 0
4, 74283, Note_on_c, 2, 72, 0
4, 74283, Note_on_c, 2, 71, 88
4, 74283, Note_on_c, 2, 67, 88
4, 74393, Note_on_c, 2, 67, 0
4, 74393, Note_on_c, 2, 71, 0
4, 74403, Note_on_c, 2, 66, 88
4, 74403, Note_on_c, 2, 69, 88
4, 74523, Note_on_c, 2, 69, 0
4, 74523, Note_on_c, 2, 66, 0
4, 74523, Control_c, 2, 11, 71
4, 74523, Note_on_c, 2, 72, 88
4, 74523, Note_on_c, 2, 69, 88
4, 74542, Control_c, 2, 11, 71
4, 74561, Control_c, 2, 11, 68
4, 74580, Control_c, 2, 11, 67
4, 74599, Control_c, 2, 11, 66
4, 74619, Control_c, 2, 11, 64
4, 74638, Control_c, 2, 11, 62
4, 74657, Control_c, 2, 11, 62
4, 74676, Control_c, 2, 11, 61
4, 74695, Control_c, 2, 11, 59
4, 74715, Control_c, 2, 11, 57
4, 74734, Control_c, 2, 11, 55
4, 74753, Control_c, 2, 11, 53
4, 74763, Note_on_c, 2, 69, 0
4, 74763, Note_on_c, 2, 72, 0
4, 74763, Note_on_c, 2, 67, 88
4, 74763, Note_on_c, 2, 71, 88
4, 74873, Note_on_c, 2, 71, 0
4, 74873, Note_on_c, 2, 67, 0
4, 74883, Note_on_c, 2, 66, 98
4, 74883, Note_on_c, 2, 69, 98
4, 75003, Note_on_c, 2, 69, 0
4, 75003, Note_on_c, 2, 66, 0
4, 76323, Note_on_c, 2, 60, 98
4, 76443, Note_on_c, 2, 60, 0
4, 76443, Note_on_c, 2, 64, 98
4, 76563, Note_on_c, 2, 64, 0
4, 76563, Note_on_c, 2, 69, 98
4, 76683, Note_on_c, 2, 69, 0
4, 76683, Note_on_c, 2, 72, 98
4, 76793, Note_on_c, 2, 72, 0
4, 76803, Note_on_c, 2, 60, 98
4, 76923, Note_on_c, 2, 60, 0
4, 77283, Note_on_c, 2, 59, 88
4, 77283, Note_on_c, 2, 62, 88
4, 77403, Note_on_c, 2, 62, 0
4, 77403, Note_on_c, 2, 59, 0
4, 77403, Note_on_c, 2, 65, 88
4, 77403, Note_on_c, 2, 62, 88
4, 77523, Note_on_c, 2, 62, 0
4, 77523, Note_on_c, 2, 65, 0
4, 77523, Note_on_c, 2, 71, 88
4, 77523, Note_on_c, 2, 65, 88
4, 77643, Note_on_c, 2, 65, 0
4, 77643, Note_on_c, 2, 71, 0
4, 77643, Note_on_c, 2, 71, 88
4, 77643, Note_on_c, 2, 74, 88
4, 77753, Note_on_c, 2, 74, 0
4, 77753, Note_on_c, 2, 71, 0
4, 77763, Note_on_c, 2, 72, 88
4, 77763, Note_on_c, 2, 76, 88
4, 77883, Note_on_c, 2, 76, 0
4, 77883, Note_on_c, 2, 72, 0
4, 79203, Note_on_c, 2, 74, 88
4, 79203, Note_on_c, 2, 62, 88
4, 79443, Note_on_c, 2, 62, 0
4, 79443, Note_on_c, 2, 74, 0
4, 79443, Note_on_c, 2, 62, 98
4, 79443, Note_on_c, 2, 74, 98
4, 79663, Note_on_c, 2, 74, 0
4, 79663, Note_on_c, 2, 62, 0
4, 79683, Note_on_c, 2, 62, 98
4, 79683, Control_c, 2, 11, 78
4, 79683, Note_on_c, 2, 74, 98
4, 79803, Note_on_c, 2, 74, 0
4, 79803, Note_on_c, 2, 62, 0
4, 79923, Note_on_c, 2, 72, 98
4, 79923, Note_on_c, 2, 66, 98
4, 80043, Note_on_c, 2, 66, 0
4, 80043, Note_on_c, 2, 72, 0
4, 80163, Note_on_c, 2, 67, 98
4, 80163, Note_on_c, 2, 71, 98
4, 80283, Note_on_c, 2, 71, 0
4, 80283, Note_on_c, 2, 67, 0
4, 81603, Control_c, 2, 11, 91
4, 81603, Note_on_c, 2, 74, 98
4, 81621, Control_c, 2, 11, 91
4, 81639, Control_c, 2, 11, 89
4, 81657, Control_c, 2, 11, 89
4, 81675, Control_c, 2, 11, 86
4, 81693, Control_c, 2, 11, 85
4, 81711, Control_c, 2, 11, 84
4, 81729, Control_c, 2, 11, 82
4, 81747, Control_c, 2, 11, 80
4, 81765, Control_c, 2, 11, 80
4, 81773, Note_on_c, 2, 74, 0
4, 81783, Note_on_c, 2, 72, 98
4, 81783, Control_c, 2, 11, 78
4, 81833, Note_on_c, 2, 72, 0
4, 81843, Note_on_c, 2, 71, 98
4, 81893, Note_on_c, 2, 71, 0
4, 81903, Note_on_c, 2, 69, 98
4, 81953, Note_on_c, 2, 69, 0
4, 81963, Note_on_c, 2, 67, 98
4, 82013, Note_on_c, 2, 67, 0
4, 82023, Note_on_c, 2, 65, 98
4, 82073, Note_on_c, 2, 65, 0
4, 82083, Note_on_c, 2, 64, 98
4, 82133, Note_on_c, 2, 64, 0
4, 82143, Control_c, 2, 11, 91
4, 82143, Note_on_c, 2, 76, 98
4, 82161, Control_c, 2, 11, 89
4, 82179, Control_c, 2, 11, 89
4, 82191, Control_c, 2, 11, 86
4, 82209, Control_c, 2, 11, 84
4, 82227, Control_c, 2, 11, 82
4, 82245, Control_c, 2, 11, 80
4, 82253, Note_on_c, 2, 76, 0
4, 82263, Control_c, 2, 11, 78
4, 82263, Note_on_c, 2, 74, 98
4, 82313, Note_on_c, 2, 74, 0
4, 82323, Note_on_c, 2, 72, 98
4, 82373, Note_on_c, 2, 72, 0
4, 82383, Note_on_c, 2, 71, 98
4, 82433, Note_on_c, 2, 71, 0
4, 82443, Note_on_c, 2, 69, 98
4, 82493, Note_on_c, 2, 69, 0
4, 82503, Note_on_c, 2, 67, 98
4, 82553, Note_on_c, 2, 67, 0
4, 82563, Control_c, 2, 11, 78
4, 82563, Note_on_c, 2, 66, 98
4, 82595, Control_c, 2, 11, 80
4, 82613, Note_on_c, 2, 66, 0
4, 82623, Note_on_c, 2, 67, 98
4, 82627, Control_c, 2, 11, 80
4, 82659, Control_c, 2, 11, 80
4, 82673, Note_on_c, 2, 67, 0
4, 82683, Note_on_c, 2, 69, 98
4, 82691, Control_c, 2, 11, 80
4, 82723, Control_c, 2, 11, 82
4, 82733, Note_on_c, 2, 69, 0
4, 82743, Note_on_c, 2, 71, 98
4, 82755, Control_c, 2, 11, 82
4, 82787, Control_c, 2, 11, 82
4, 82793, Note_on_c, 2, 71, 0
4, 82803, Note_on_c, 2, 72, 98
4, 82819, Control_c, 2, 11, 84
4, 82851, Control_c, 2, 11, 84
4, 82853, Note_on_c, 2, 72, 0
4, 82863, Note_on_c, 2, 74, 98
4, 82883, Control_c, 2, 11, 85
4, 82913, Note_on_c, 2, 74, 0
4, 82915, Control_c, 2, 11, 86
4, 82923, Note_on_c, 2, 76, 98
4, 82947, Control_c, 2, 11, 86
4, 82973, Note_on_c, 2, 76, 0
4, 82979, Control_c, 2, 11, 87
4, 82983, Note_on_c, 2, 78, 98
4, 83011, Control_c, 2, 11, 89
4, 83033, Note_on_c, 2, 78, 0
4, 83043, Note_on_c, 2, 79, 98
4, 83043, Control_c, 2, 11, 89
4, 83103, Note_on_c, 2, 79, 0
4, 83163, Note_on_c, 2, 76, 88
4, 83163, Note_on_c, 2, 67, 88
4, 83223, Note_on_c, 2, 67, 0
4, 83223, Note_on_c, 2, 76, 0
4, 83283, Note_on_c, 2, 71, 88
4, 83283, Note_on_c, 2, 74, 88
4, 83343, Note_on_c, 2, 74, 0
4, 83343, Note_on_c, 2, 71, 0
4, 83403, Note_on_c, 2, 66, 88
4, 83403, Note_on_c, 2, 72, 88
4, 83463, Note_on_c, 2, 72, 0
4, 83463, Note_on_c, 2, 66, 0
4, 83523, Note_on_c, 2, 71, 70
4, 83523, Note_on_c, 2, 67, 70
4, 83523, Control_c, 2, 11, 78
4, 83553, Control_c, 2, 11, 78
4, 83570, Control_c, 2, 11, 75
4, 83588, Control_c, 2, 11, 73
4, 83606, Control_c, 2, 11, 71
4, 83615, Control_c, 2, 11, 68
4, 83633, Control_c, 2, 11, 66
4, 83643, Note_on_c, 2, 67, 0
4, 83643, Note_on_c, 2, 71, 0
4, 87363, Note_on_c, 2, 69, 98
4, 87363, Control_c, 2, 11, 42
4, 87363, Note_on_c, 2, 72, 98
4, 87395, Control_c, 2, 11, 43
4, 87427, Control_c, 2, 11, 44
4, 87459, Control_c, 2, 11, 45
4, 87491, Control_c, 2, 11, 46
4, 87523, Control_c, 2, 11, 47
4, 87555, Control_c, 2, 11, 48
4, 87587, Control_c, 2, 11, 49
4, 87619, Control_c, 2, 11, 50
4, 87651, Control_c, 2, 11, 51
4, 87683, Control_c, 2, 11, 52
4, 87715, Control_c, 2, 11, 53
4, 87747, Control_c, 2, 11, 54
4, 87779, Control_c, 2, 11, 55
4, 87811, Control_c, 2, 11, 56
4, 87843, Note_on_c, 2, 72, 0
4, 87843, Note_on_c, 2, 69, 0
4, 87843, Note_on_c, 2, 67, 98
4, 87843, Control_c, 2, 11, 57
4, 87843, Note_on_c, 2, 71, 98
4, 87875, Control_c, 2, 11, 58
4, 87907, Control_c, 2, 11, 59
4, 87939, Control_c, 2, 11, 60
4, 87971, Control_c, 2, 11, 61
4, 88003, Control_c, 2, 11, 62
4, 88035, Control_c, 2, 11, 62
4, 88067, Control_c, 2, 11, 62
4, 88099, Control_c, 2, 11, 62
4, 88131, Control_c, 2, 11, 64
4, 88163, Control_c, 2, 11, 64
4, 88195, Control_c, 2, 11, 64
4, 88227, Control_c, 2, 11, 66
4, 88259, Control_c, 2, 11, 66
4, 88291, Control_c, 2, 11, 67
4, 88323, Note_on_c, 2, 71, 0
4, 88323, Control_c, 2, 11, 68
4, 88323, Note_on_c, 2, 76, 98
4, 88355, Control_c, 2, 11, 68
4, 88387, Control_c, 2, 11, 69
4, 88419, Control_c, 2, 11, 71
4, 88451, Control_c, 2, 11, 71
4, 88483, Control_c, 2, 11, 71
4, 88515, Control_c, 2, 11, 71
4, 88547, Control_c, 2, 11, 73
4, 88563, Note_on_c, 2, 76, 0
4, 88563, Note_on_c, 2, 67, 0
4, 88563, Note_on_c, 2, 72, 98
4, 88563, Note_on_c, 2, 66, 98
4, 88579, Control_c, 2, 11, 73
4, 88611, Control_c, 2, 11, 73
4, 88643, Control_c, 2, 11, 75
4, 88675, Control_c, 2, 11, 75
4, 88707, Control_c, 2, 11, 76
4, 88739, Control_c, 2, 11, 77
4, 88771, Control_c, 2, 11, 77
4, 88793, Note_on_c, 2, 66, 0
4, 88793, Note_on_c, 2, 72, 0
4, 88803, Note_on_c, 2, 71, 98
4, 88803, Control_c, 2, 11, 100
4, 88803, Note_on_c, 2, 67, 98
4, 88827, Control_c, 2, 11, 98
4, 88851, Control_c, 2, 11, 96
4, 88875, Control_c, 2, 11, 94
4, 88899, Control_c, 2, 11, 91
4, 88923, Note_on_c, 2, 67, 0
4, 88923, Note_on_c, 2, 71, 0
4, 88923, Control_c, 2, 11, 89
4, 90003, Note_on_c, 2, 69, 98
4, 90003, Control_c, 2, 11, 91
4, 90003, Note_on_c, 2, 66, 98
4, 90020, Control_c, 2, 11, 89
4, 90038, Control_c, 2, 11, 89
4, 90050, Control_c, 2, 11, 86
4, 90068, Control_c, 2, 11, 84
4, 90086, Control_c, 2, 11, 82
4, 90104, Control_c, 2, 11, 80
4, 90122, Control_c, 2, 11, 78
4, 90123, Note_on_c, 2, 66, 0
4, 90123, Note_on_c, 2, 69, 0
4, 90243, Control_c, 2, 11, 91
4, 90243, Note_on_c, 2, 71, 98
4, 90243, Note_on_c, 2, 67, 98
4, 90260, Control_c, 2, 11, 89
4, 90278, Control_c, 2, 11, 89
4, 90290, Control_c, 2, 11, 86
4, 90308, Control_c, 2, 11, 84
4, 90326, Control_c, 2, 11, 82
4, 90344, Control_c, 2, 11, 80
4, 90362, Control_c, 2, 11, 78
4, 90363, Note_on_c, 2, 67, 0
4, 90363, Note_on_c, 2, 71, 0
4, 90483, Control_c, 2, 11, 91
4, 90483, Note_on_c, 2, 72, 98
4, 90483, Note_on_c, 2, 66, 98
4, 90500, Control_c, 2, 11, 89
4, 90518, Control_c, 2, 11, 89
4, 90530, Control_c, 2, 11, 86
4, 90548, Control_c, 2, 11, 84
4, 90566, Control_c, 2, 11, 82
4, 90584, Control_c, 2, 11, 80
4, 90602, Control_c, 2, 11, 78
4, 90603, Note_on_c, 2, 66, 0
4, 90603, Note_on_c, 2, 72, 0
4, 90723, Note_on_c, 2, 67, 98
4, 90723, Note_on_c, 2, 71, 98
4, 90843, Note_on_c, 2, 71, 0
4, 90843, Note_on_c, 2, 67, 0
4, 93603, Note_on_c, 2, 62, 98
4, 93603, Control_c, 2, 11, 102
4, 93603, Note_on_c, 2, 74, 98
4, 93620, Control_c, 2, 11, 100
4, 93638, Control_c, 2, 11, 98
4, 93656, Control_c, 2, 11, 96
4, 93674, Control_c, 2, 11, 94
4, 93692, Control_c, 2, 11, 91
4, 93710, Control_c, 2, 11, 89
4, 93833, Note_on_c, 2, 74, 0
4, 93833, Note_on_c, 2, 62, 0
4, 93843, Note_on_c, 2, 64, 98
4, 93843, Control_c, 2, 11, 102
4, 93843, Note_on_c, 2, 76, 98
4, 93860, Control_c, 2, 11, 100
4, 93878, Control_c, 2, 11, 98
4, 93896, Control_c, 2, 11, 96
4, 93914, Control_c, 2, 11, 94
4, 93932, Control_c, 2, 11, 91
4, 93950, Control_c, 2, 11, 89
4, 94073, Note_on_c, 2, 76, 0
4, 94073, Note_on_c, 2, 64, 0
4, 94083, Note_on_c, 2, 72, 98
4, 94083, Note_on_c, 2, 60, 98
4, 94083, Control_c, 2, 11, 102
4, 94100, Control_c, 2, 11, 100
4, 94118, Control_c, 2, 11, 98
4, 94136, Control_c, 2, 11, 96
4, 94154, Control_c, 2, 11, 94
4, 94172, Control_c, 2, 11, 91
4, 94190, Control_c, 2, 11, 89
4, 94313, Note_on_c, 2, 60, 0
4, 94313, Note_on_c, 2, 72, 0
4, 94323, Note_on_c, 2, 62, 98
4, 94323, Control_c, 2, 11, 102
4, 94323, Note_on_c, 2, 74, 98
4, 94340, Control_c, 2, 11, 100
4, 94358, Control_c, 2, 11, 98
4, 94376, Control_c, 2, 11, 96
4, 94394, Control_c, 2, 11, 94
4, 94412, Control_c, 2, 11, 91
4, 94430, Control_c, 2, 11, 89
4, 94503, Control_c, 2, 11, 78
4, 94521, Control_c, 2, 11, 75
4, 94539, Control_c, 2, 11, 73
4, 94553, Note_on_c, 2, 74, 0
4, 94553, Note_on_c, 2, 62, 0
4, 94557, Control_c, 2, 11, 71
4, 94563, Note_on_c, 2, 67, 98
4, 94563, Note_on_c, 2, 55, 98
4, 94566, Control_c, 2, 11, 68
4, 94584, Control_c, 2, 11, 66
4, 94602, Control_c, 2, 11, 62
4, 94620, Control_c, 2, 11, 61
4, 94633, Control_c, 2, 11, 58
4, 94647, Control_c, 2, 11, 55
4, 94660, Control_c, 2, 11, 52
4, 94674, Control_c, 2, 11, 49
4, 94683, Note_on_c, 2, 55, 0
4, 94683, Note_on_c, 2, 67, 0
4, 95403, Control_c, 2, 11, 85
4, 95403, Note_on_c, 2, 66, 98
4, 95403, Note_on_c, 2, 78, 98
4, 95410, Control_c, 2, 11, 82
4, 95426, Control_c, 2, 11, 78
4, 95436, Control_c, 2, 11, 75
4, 95448, Control_c, 2, 11, 71
4, 95460, Control_c, 2, 11, 68
4, 95472, Control_c, 2, 11, 64
4, 95488, Control_c, 2, 11, 61
4, 95495, Control_c, 2, 11, 58
4, 95502, Control_c, 2, 11, 55
4, 95510, Control_c, 2, 11, 52
4, 95517, Control_c, 2, 11, 49
4, 95523, Note_on_c, 2, 78, 0
4, 95523, Note_on_c, 2, 66, 0
4, 95523, Note_on_c, 2, 67, 98
4, 95523, Note_on_c, 2, 79, 98
4, 95643, Note_on_c, 2, 79, 0
4, 95643, Note_on_c, 2, 67, 0
4, 96363, Note_on_c, 2, 66, 98
4, 96363, Control_c, 2, 11, 85
4, 96363, Note_on_c, 2, 78, 98
4, 96370, Control_c, 2, 11, 82
4, 96386, Control_c, 2, 11, 78
4, 96396, Control_c, 2, 11, 75
4, 96408, Control_c, 2, 11, 71
4, 96420, Control_c, 2, 11, 68
4, 96432, Control_c, 2, 11, 64
4, 96448, Control_c, 2, 11, 61
4, 96455, Control_c, 2, 11, 58
4, 96462, Control_c, 2, 11, 55
4, 96470, Control_c, 2, 11, 52
4, 96477, Control_c, 2, 11, 49
4, 96483, Note_on_c, 2, 78, 0
4, 96483, Note_on_c, 2, 66, 0
4, 96483, Note_on_c, 2, 79, 98
4, 96483, Note_on_c, 2, 67, 98
4, 96663, Note_on_c, 2, 67, 0
4, 96663, Note_on_c, 2, 79, 0
4, 96663, Note_on_c, 2, 66, 98
4, 96663, Note_on_c, 2, 78, 98
4, 96693, Note_on_c, 2, 78, 0
4, 96693, Note_on_c, 2, 66, 0
4, 96693, Note_on_c, 2, 64, 98
4, 96693, Note_on_c, 2, 76, 98
4, 96713, Note_on_c, 2, 76, 0
4, 96713, Note_on_c, 2, 64, 0
4, 96723, Note_on_c, 2, 74, 98
4, 96723, Note_on_c, 2, 62, 98
4, 96783, Note_on_c, 2, 62, 0
4, 96783, Note_on_c, 2, 74, 0
4, 96843, Control_c, 2, 11, 85
4, 96843, Note_on_c, 2, 66, 98
4, 96843, Note_on_c, 2, 78, 98
4, 96850, Control_c, 2, 11, 82
4, 96866, Control_c, 2, 11, 78
4, 96876, Control_c, 2, 11, 75
4, 96888, Control_c, 2, 11, 71
4, 96900, Control_c, 2, 11, 68
4, 96912, Control_c, 2, 11, 64
4, 96928, Control_c, 2, 11, 61
4, 96935, Control_c, 2, 11, 58
4, 96942, Control_c, 2, 11, 55
4, 96950, Control_c, 2, 11, 52
4, 96957, Control_c, 2, 11, 49
4, 96963, Note_on_c, 2, 78, 0
4, 96963, Note_on_c, 2, 66, 0
4, 96963, Note_on_c, 2, 67, 98
4, 96963, Note_on_c, 2, 79, 98
4, 97143, Note_on_c, 2, 79, 0
4, 97143, Note_on_c, 2, 67, 0
4, 97143, Note_on_c, 2, 78, 98
4, 97143, Note_on_c, 2, 66, 98
4, 97173, Note_on_c, 2, 66, 0
4, 97173, Note_on_c, 2, 78, 0
4, 97173, Note_on_c, 2, 64, 98
4, 97173, Note_on_c, 2, 76, 98
4, 97203, Note_on_c, 2, 76, 0
4, 97203, Note_on_c, 2, 64, 0
4, 97203, Note_on_c, 2, 74, 98
4, 97203, Note_on_c, 2, 62, 98
4, 97263, Note_on_c, 2, 62, 0
4, 97263, Note_on_c, 2, 74, 0
4, 97323, Note_on_c, 2, 66, 98
4, 97323, Control_c, 2, 11, 89
4, 97323, Note_on_c, 2, 78, 98
4, 97383, Note_on_c, 2, 78, 0
4, 97383, Note_on_c, 2, 66, 0
4, 97443, Note_on_c, 2, 67, 98
4, 97443, Note_on_c, 2, 79, 98
4, 97563, Control_c, 2, 11, 89
4, 97578, Control_c, 2, 11, 89
4, 97594, Control_c, 2, 11, 87
4, 97610, Control_c, 2, 11, 86
4, 97626, Control_c, 2, 11, 86
4, 97642, Control_c, 2, 11, 85
4, 97658, Control_c, 2, 11, 84
4, 97674, Control_c, 2, 11, 84
4, 97690, Control_c, 2, 11, 82
4, 97706, Control_c, 2, 11, 82
4, 97722, Control_c, 2, 11, 82
4, 97738, Control_c, 2, 11, 80
4, 97754, Control_c, 2, 11, 80
4, 97770, Control_c, 2, 11, 80
4, 97786, Control_c, 2, 11, 80
4, 97802, Control_c, 2, 11, 78
4, 97820, Control_c, 2, 11, 77
4, 97837, Control_c, 2, 11, 77
4, 97854, Control_c, 2, 11, 76
4, 97871, Control_c, 2, 11, 75
4, 97888, Control_c, 2, 11, 75
4, 97905, Control_c, 2, 11, 73
4, 97922, Control_c, 2, 11, 73
4, 97923, Note_on_c, 2, 79, 0
4, 97923, Note_on_c, 2, 67, 0
4, 97923, Note_on_c, 2, 77, 88
4, 97923, Note_on_c, 2, 65, 88
4, 97939, Control_c, 2, 11, 73
4, 97957, Control_c, 2, 11, 71
4, 97974, Control_c, 2, 11, 71
4, 97991, Control_c, 2, 11, 71
4, 98008, Control_c, 2, 11, 71
4, 98025, Control_c, 2, 11, 69
4, 98042, Control_c, 2, 11, 68
4, 98059, Control_c, 2, 11, 68
4, 98076, Control_c, 2, 11, 67
4, 98093, Control_c, 2, 11, 66
4, 98111, Control_c, 2, 11, 66
4, 98128, Control_c, 2, 11, 64
4, 98145, Control_c, 2, 11, 64
4, 98162, Control_c, 2, 11, 64
4, 98163, Note_on_c, 2, 65, 0
4, 98163, Note_on_c, 2, 77, 0
4, 98163, Note_on_c, 2, 62, 88
4, 98163, Note_on_c, 2, 74, 88
4, 98179, Control_c, 2, 11, 62
4, 98196, Control_c, 2, 11, 62
4, 98213, Control_c, 2, 11, 62
4, 98230, Control_c, 2, 11, 62
4, 98247, Control_c, 2, 11, 61
4, 98265, Control_c, 2, 11, 60
4, 98282, Control_c, 2, 11, 59
4, 98299, Control_c, 2, 11, 58
4, 98316, Control_c, 2, 11, 57
4, 98333, Control_c, 2, 11, 56
4, 98350, Control_c, 2, 11, 55
4, 98367, Control_c, 2, 11, 54
4, 98384, Control_c, 2, 11, 53
4, 98402, Control_c, 2, 11, 52
4, 98403, Note_on_c, 2, 74, 0
4, 98403, Note_on_c, 2, 62, 0
4, 98403, Note_on_c, 2, 71, 88
4, 98403, Note_on_c, 2, 59, 88
4, 98466, Control_c, 2, 11, 51
4, 98530, Control_c, 2, 11, 50
4, 98594, Control_c, 2, 11, 49
4, 98643, Note_on_c, 2, 59, 0
4, 98643, Note_on_c, 2, 71, 0
4, 98643, Note_on_c, 2, 67, 88
4, 98658, Control_c, 2, 11, 48
4, 98722, Control_c, 2, 11, 47
4, 98786, Control_c, 2, 11, 46
4, 98850, Control_c, 2, 11, 45
4, 98883, Note_on_c, 2, 67, 0
4, 98883, Note_on_c, 2, 65, 88
4, 98914, Control_c, 2, 11, 44
4, 98978, Control_c, 2, 11, 43
4, 99042, Control_c, 2, 11, 42
4, 99106, Control_c, 2, 11, 41
4, 99123, Note_on_c, 2, 65, 0
4, 99123, Note_on_c, 2, 62, 88
4, 99170, Control_c, 2, 11, 40
4, 99234, Control_c, 2, 11, 39
4, 99298, Control_c, 2, 11, 38
4, 99362, Control_c, 2, 11, 37
4, 99363, Note_on_c, 2, 62, 0
4, 99363, Control_c, 2, 11, 89
4, 99363, Note_on_c, 2, 64, 88
4, 99363, Note_on_c, 2, 69, 88
4, 99723, Note_on_c, 2, 69, 0
4, 99723, Note_on_c, 2, 64, 0
4, 101283, Note_on_c, 2, 74, 88
4, 101283, Control_c, 2, 11, 79
4, 101283, Note_on_c, 2, 69, 88
4, 101643, Note_on_c, 2, 69, 0
4, 101643, Note_on_c, 2, 74, 0
4, 103203, Note_on_c, 2, 67, 88
4, 103203, Control_c, 2, 11, 79
4, 103203, Note_on_c, 2, 74, 88
4, 103563, Note_on_c, 2, 74, 0
4, 103563, Note_on_c, 2, 67, 0
4, 106083, Note_on_c, 2, 60, 98
4, 106083, Control_c, 2, 11, 47
4, 106083, Note_on_c, 2, 72, 98
4, 107043, Control_c, 2, 11, 79
4, 107163, Note_on_c, 2, 72, 0
4, 107163, Note_on_c, 2, 60, 0
4, 108003, Note_on_c, 2, 77, 98
4, 108003, Note_on_c, 2, 65, 98
4, 108003, Control_c, 2, 11, 47
4, 109083, Note_on_c, 2, 65, 0
4, 109083, Note_on_c, 2, 77, 0
4, 111363, Note_on_c, 2, 60, 98
4, 111363, Note_on_c, 2, 72, 98
4, 111813, Control_c, 2, 11, 89
4, 111818, Control_c, 2, 11, 86
4, 111825, Control_c, 2, 11, 83
4, 111833, Control_c, 2, 11, 80
4, 111838, Control_c, 2, 11, 77
4, 111843, Note_on_c, 2, 72, 0
4, 111843, Note_on_c, 2, 60, 0
4, 111843, Note_on_c, 2, 74, 83
4, 111843, Note_on_c, 2, 62, 83
4, 111845, Control_c, 2, 11, 74
4, 111853, Control_c, 2, 11, 71
4, 111858, Control_c, 2, 11, 68
4, 111865, Control_c, 2, 11, 65
4, 111870, Control_c, 2, 11, 62
4, 111878, Control_c, 2, 11, 58
4, 111883, Control_c, 2, 11, 55
4, 111888, Control_c, 2, 11, 52
4, 111963, Note_on_c, 2, 62, 0
4, 111963, Note_on_c, 2, 74, 0
4, 124323, Note_on_c, 2, 76, 88
4, 124323, Note_on_c, 2, 64, 88
4, 124323, Control_c, 2, 11, 89
4, 125403, Note_on_c, 2, 64, 0
4, 125403, Note_on_c, 2, 76, 0
4, 126243, Note_on_c, 2, 64, 88
4, 126243, Note_on_c, 2, 76, 88
4, 127323, Note_on_c, 2, 76, 0
4, 127323, Note_on_c, 2, 64, 0
4, 127563, Note_on_c, 2, 76, 88
4, 127563, Note_on_c, 2, 64, 88
4, 127798, Note_on_c, 2, 64, 0
4, 127798, Note_on_c, 2, 76, 0
4, 128043, Note_on_c, 2, 64, 88
4, 128043, Note_on_c, 2, 76, 88
4, 128278, Note_on_c, 2, 76, 0
4, 128278, Note_on_c, 2, 64, 0
4, 128643, Note_on_c, 2, 76, 98
4, 128643, Note_on_c, 2, 64, 98
4, 128715, Note_on_c, 2, 64, 0
4, 128715, Note_on_c, 2, 76, 0
4, 128883, Note_on_c, 2, 76, 98
4, 128883, Note_on_c, 2, 64, 98
4, 128955, Note_on_c, 2, 64, 0
4, 128955, Note_on_c, 2, 76, 0
4, 129123, Note_on_c, 2, 76, 98
4, 129123, Control_c, 2, 11, 103
4, 129123, Note_on_c, 2, 64, 98
4, 129133, Control_c, 2, 11, 100
4, 129147, Control_c, 2, 11, 97
4, 129157, Control_c, 2, 11, 94
4, 129168, Control_c, 2, 11, 91
4, 129181, Control_c, 2, 11, 88
4, 129192, Control_c, 2, 11, 85
4, 129203, Control_c, 2, 11, 82
4, 129216, Control_c, 2, 11, 79
4, 129227, Control_c, 2, 11, 76
4, 129237, Control_c, 2, 11, 73
4, 129254, Control_c, 2, 11, 71
4, 129277, Control_c, 2, 11, 70
4, 129300, Control_c, 2, 11, 68
4, 129323, Control_c, 2, 11, 67
4, 129346, Control_c, 2, 11, 66
4, 129369, Control_c, 2, 11, 64
4, 129392, Control_c, 2, 11, 63
4, 129415, Control_c, 2, 11, 62
4, 129438, Control_c, 2, 11, 60
4, 129461, Control_c, 2, 11, 58
4, 129503, Control_c, 2, 11, 56
4, 129533, Control_c, 2, 11, 55
4, 129564, Control_c, 2, 11, 54
4, 129594, Control_c, 2, 11, 53
4, 129625, Control_c, 2, 11, 52
4, 129655, Control_c, 2, 11, 51
4, 129686, Control_c, 2, 11, 50
4, 129716, Control_c, 2, 11, 49
4, 129747, Control_c, 2, 11, 48
4, 129777, Control_c, 2, 11, 47
4, 129807, Control_c, 2, 11, 46
4, 129838, Control_c, 2, 11, 45
4, 129868, Control_c, 2, 11, 44
4, 129899, Control_c, 2, 11, 43
4, 129929, Control_c, 2, 11, 42
4, 129960, Control_c, 2, 11, 41
4, 129990, Control_c, 2, 11, 40
4, 130021, Control_c, 2, 11, 39
4, 130051, Control_c, 2, 11, 38
4, 130078, Note_on_c, 2, 64, 0
4, 130078, Note_on_c, 2, 76, 0
4, 130082, Control_c, 2, 11, 37
4, 130563, Control_c, 2, 11, 37
4, 130583, Control_c, 2, 11, 38
4, 130603, Control_c, 2, 11, 39
4, 130623, Control_c, 2, 11, 40
4, 130643, Control_c, 2, 11, 41
4, 130663, Control_c, 2, 11, 42
4, 130683, Control_c, 2, 11, 43
4, 130703, Control_c, 2, 11, 44
4, 130723, Control_c, 2, 11, 45
4, 130743, Control_c, 2, 11, 46
4, 130763, Control_c, 2, 11, 47
4, 130783, Control_c, 2, 11, 48
4, 130803, Control_c, 2, 11, 49
4, 130823, Control_c, 2, 11, 50
4, 130843, Control_c, 2, 11, 51
4, 130863, Control_c, 2, 11, 52
4, 130883, Control_c, 2, 11, 53
4, 130903, Control_c, 2, 11, 54
4, 130923, Control_c, 2, 11, 55
4, 130943, Control_c, 2, 11, 56
4, 130963, Control_c, 2, 11, 57
4, 130983, Control_c, 2, 11, 58
4, 131003, Control_c, 2, 11, 59
4, 131023, Control_c, 2, 11, 60
4, 131043, Control_c, 2, 11, 61
4, 131063, Control_c, 2, 11, 62
4, 131083, Control_c, 2, 11, 62
4, 131103, Control_c, 2, 11, 63
4, 131123, Control_c, 2, 11, 64
4, 131143, Control_c, 2, 11, 64
4, 131163, Control_c, 2, 11, 65
4, 131183, Control_c, 2, 11, 66
4, 131203, Control_c, 2, 11, 66
4, 131223, Control_c, 2, 11, 67
4, 131243, Control_c, 2, 11, 68
4, 131263, Control_c, 2, 11, 68
4, 131283, Control_c, 2, 11, 69
4, 131303, Control_c, 2, 11, 70
4, 131323, Control_c, 2, 11, 71
4, 131343, Control_c, 2, 11, 71
4, 131363, Control_c, 2, 11, 72
4, 131383, Control_c, 2, 11, 73
4, 131403, Control_c, 2, 11, 73
4, 131423, Control_c, 2, 11, 74
4, 131443, Control_c, 2, 11, 75
4, 131463, Control_c, 2, 11, 75
4, 131483, Control_c, 2, 11, 76
4, 131503, Control_c, 2, 11, 77
4, 131523, Control_c, 2, 11, 77
4, 132003, Control_c, 2, 11, 89
4, 132003, Note_on_c, 2, 72, 98
4, 132311, Note_on_c, 2, 72, 0
4, 132363, Note_on_c, 2, 67, 98
4, 132453, Note_on_c, 2, 67, 0
4, 132453, Note_on_c, 2, 71, 98
4, 132473, Note_on_c, 2, 71, 0
4, 132483, Note_on_c, 2, 72, 98
4, 132791, Note_on_c, 2, 72, 0
4, 132843, Note_on_c, 2, 67, 98
4, 132933, Note_on_c, 2, 67, 0
4, 132933, Note_on_c, 2, 71, 98
4, 132953, Note_on_c, 2, 71, 0
4, 132963, Note_on_c, 2, 72, 98
4, 132993, Note_on_c, 2, 72, 0
4, 133023, Note_on_c, 2, 72, 98
4, 133053, Note_on_c, 2, 72, 0
4, 133083, Note_on_c, 2, 67, 98
4, 133113, Note_on_c, 2, 67, 0
4, 133143, Note_on_c, 2, 71, 98
4, 133173, Note_on_c, 2, 71, 0
4, 133203, Note_on_c, 2, 72, 98
4, 133233, Note_on_c, 2, 72, 0
4, 133263, Note_on_c, 2, 72, 98
4, 133293, Note_on_c, 2, 72, 0
4, 133323, Note_on_c, 2, 67, 98
4, 133353, Note_on_c, 2, 67, 0
4, 133383, Note_on_c, 2, 71, 98
4, 133413, Note_on_c, 2, 71, 0
4, 133443, Note_on_c, 2, 72, 98
4, 133503, Note_on_c, 2, 72, 0
4, 133563, Note_on_c, 2, 76, 98
4, 133623, Note_on_c, 2, 76, 0
4, 133683, Note_on_c, 2, 79, 98
4, 133743, Note_on_c, 2, 79, 0
4, 133803, Note_on_c, 2, 71, 98
4, 133863, Note_on_c, 2, 71, 0
4, 133923, Note_on_c, 2, 72, 98
4, 134043, Note_on_c, 2, 72, 0
4, 134403, Note_on_c, 2, 67, 88
4, 134403, Control_c, 2, 11, 68
4, 134403, Note_on_c, 2, 64, 88
4, 134419, Control_c, 2, 11, 69
4, 134435, Control_c, 2, 11, 70
4, 134451, Control_c, 2, 11, 71
4, 134467, Control_c, 2, 11, 71
4, 134483, Control_c, 2, 11, 72
4, 134499, Control_c, 2, 11, 73
4, 134515, Control_c, 2, 11, 73
4, 134531, Control_c, 2, 11, 74
4, 134547, Control_c, 2, 11, 75
4, 134563, Control_c, 2, 11, 75
4, 134579, Control_c, 2, 11, 76
4, 134595, Control_c, 2, 11, 77
4, 134611, Control_c, 2, 11, 77
4, 134627, Control_c, 2, 11, 78
4, 134643, Control_c, 2, 11, 79
4, 134659, Control_c, 2, 11, 80
4, 134675, Control_c, 2, 11, 80
4, 134691, Control_c, 2, 11, 81
4, 134707, Control_c, 2, 11, 82
4, 134723, Control_c, 2, 11, 82
4, 134739, Control_c, 2, 11, 83
4, 134755, Control_c, 2, 11, 84
4, 134771, Control_c, 2, 11, 84
4, 134787, Control_c, 2, 11, 85
4, 134803, Control_c, 2, 11, 86
4, 134819, Control_c, 2, 11, 86
4, 134835, Control_c, 2, 11, 87
4, 134851, Control_c, 2, 11, 88
4, 134867, Control_c, 2, 11, 89
4, 134883, Note_on_c, 2, 64, 0
4, 134883, Note_on_c, 2, 67, 0
4, 134883, Note_on_c, 2, 65, 98
4, 134883, Control_c, 2, 11, 89
4, 135191, Note_on_c, 2, 65, 0
4, 135243, Note_on_c, 2, 69, 98
4, 135333, Note_on_c, 2, 69, 0
4, 135333, Note_on_c, 2, 73, 98
4, 135353, Note_on_c, 2, 73, 0
4, 135363, Note_on_c, 2, 74, 98
4, 135671, Note_on_c, 2, 74, 0
4, 135723, Note_on_c, 2, 69, 98
4, 135813, Note_on_c, 2, 69, 0
4, 135813, Note_on_c, 2, 73, 98
4, 135833, Note_on_c, 2, 73, 0
4, 135843, Note_on_c, 2, 74, 98
4, 135873, Note_on_c, 2, 74, 0
4, 135903, Note_on_c, 2, 74, 98
4, 135933, Note_on_c, 2, 74, 0
4, 135963, Note_on_c, 2, 69, 98
4, 135993, Note_on_c, 2, 69, 0
4, 136023, Note_on_c, 2, 73, 98
4, 136053, Note_on_c, 2, 73, 0
4, 136083, Note_on_c, 2, 74, 98
4, 136113, Note_on_c, 2, 74, 0
4, 136143, Note_on_c, 2, 74, 98
4, 136173, Note_on_c, 2, 74, 0
4, 136203, Note_on_c, 2, 69, 98
4, 136233, Note_on_c, 2, 69, 0
4, 136263, Note_on_c, 2, 73, 98
4, 136293, Note_on_c, 2, 73, 0
4, 136323, Note_on_c, 2, 74, 98
4, 136383, Note_on_c, 2, 74, 0
4, 136443, Note_on_c, 2, 77, 98
4, 136503, Note_on_c, 2, 77, 0
4, 136563, Note_on_c, 2, 81, 98
4, 136623, Note_on_c, 2, 81, 0
4, 136683, Note_on_c, 2, 73, 98
4, 136743, Note_on_c, 2, 73, 0
4, 136803, Note_on_c, 2, 69, 88
4, 136803, Control_c, 2, 11, 47
4, 136803, Note_on_c, 2, 65, 88
4, 137283, Note_on_c, 2, 65, 0
4, 137283, Note_on_c, 2, 69, 0
4, 137283, Note_on_c, 2, 70, 88
4, 137283, Note_on_c, 2, 67, 88
4, 137763, Note_on_c, 2, 67, 0
4, 137763, Note_on_c, 2, 70, 0
4, 137763, Note_on_c, 2, 69, 88
4, 137763, Note_on_c, 2, 65, 88
4, 138243, Note_on_c, 2, 65, 0
4, 138243, Note_on_c, 2, 69, 0
4, 138243, Note_on_c, 2, 72, 88
4, 138243, Note_on_c, 2, 66, 88
4, 138243, Control_c, 2, 11, 47
4, 138291, Control_c, 2, 11, 48
4, 138339, Control_c, 2, 11, 49
4, 138387, Control_c, 2, 11, 50
4, 138435, Control_c, 2, 11, 51
4, 138483, Control_c, 2, 11, 52
4, 138531, Control_c, 2, 11, 53
4, 138579, Control_c, 2, 11, 54
4, 138627, Control_c, 2, 11, 55
4, 138675, Control_c, 2, 11, 56
4, 138723, Note_on_c, 2, 66, 0
4, 138723, Note_on_c, 2, 72, 0
4, 138723, Note_on_c, 2, 71, 88
4, 138723, Note_on_c, 2, 67, 88
4, 138723, Control_c, 2, 11, 57
4, 138771, Control_c, 2, 11, 58
4, 138819, Control_c, 2, 11, 59
4, 138867, Control_c, 2, 11, 60
4, 138915, Control_c, 2, 11, 61
4, 138963, Note_on_c, 2, 67, 0
4, 138963, Note_on_c, 2, 71, 0
4, 138963, Control_c, 2, 11, 62
4, 138963, Note_on_c, 2, 68, 88
4, 138963, Note_on_c, 2, 74, 88
4, 139011, Control_c, 2, 11, 62
4, 139059, Control_c, 2, 11, 63
4, 139107, Control_c, 2, 11, 64
4, 139155, Control_c, 2, 11, 64
4, 139203, Note_on_c, 2, 74, 0
4, 139203, Note_on_c, 2, 68, 0
4, 139203, Control_c, 2, 11, 65
4, 139203, Note_on_c, 2, 69, 88
4, 139203, Note_on_c, 2, 72, 88
4, 139251, Control_c, 2, 11, 66
4, 139299, Control_c, 2, 11, 66
4, 139347, Control_c, 2, 11, 67
4, 139395, Control_c, 2, 11, 68
4, 139443, Note_on_c, 2, 72, 0
4, 139443, Note_on_c, 2, 69, 0
4, 139443, Control_c, 2, 11, 68
4, 139443, Note_on_c, 2, 72, 88
4, 139443, Note_on_c, 2, 69, 88
4, 139491, Control_c, 2, 11, 69
4, 139539, Control_c, 2, 11, 70
4, 139587, Control_c, 2, 11, 71
4, 139635, Control_c, 2, 11, 71
4, 139683, Note_on_c, 2, 69, 0
4, 139683, Note_on_c, 2, 72, 0
4, 139683, Control_c, 2, 11, 72
4, 139683, Note_on_c, 2, 74, 88
4, 139683, Note_on_c, 2, 70, 88
4, 139731, Control_c, 2, 11, 73
4, 139779, Control_c, 2, 11, 73
4, 139827, Control_c, 2, 11, 74
4, 139875, Control_c, 2, 11, 75
4, 139923, Note_on_c, 2, 70, 0
4, 139923, Note_on_c, 2, 74, 0
4, 139923, Note_on_c, 2, 77, 88
4, 139923, Control_c, 2, 11, 75
4, 139923, Note_on_c, 2, 71, 88
4, 139971, Control_c, 2, 11, 76
4, 140019, Control_c, 2, 11, 77
4, 140067, Control_c, 2, 11, 77
4, 140115, Control_c, 2, 11, 78
4, 140163, Note_on_c, 2, 71, 0
4, 140163, Note_on_c, 2, 77, 0
4, 140163, Note_on_c, 2, 72, 88
4, 140163, Control_c, 2, 11, 79
4, 140163, Note_on_c, 2, 76, 88
4, 140211, Control_c, 2, 11, 80
4, 140259, Control_c, 2, 11, 80
4, 140307, Control_c, 2, 11, 81
4, 140355, Control_c, 2, 11, 82
4, 140403, Note_on_c, 2, 76, 0
4, 140403, Note_on_c, 2, 72, 0
4, 140403, Control_c, 2, 11, 82
4, 140451, Control_c, 2, 11, 83
4, 140499, Control_c, 2, 11, 84
4, 140547, Control_c, 2, 11, 84
4, 140595, Control_c, 2, 11, 85
4, 140643, Control_c, 2, 11, 86
4, 140691, Control_c, 2, 11, 86
4, 140739, Control_c, 2, 11, 87
4, 140787, Control_c, 2, 11, 88
4, 140835, Control_c, 2, 11, 89
4, 140883, Note_on_c, 2, 67, 88
4, 140883, Control_c, 2, 11, 89
4, 140883, Note_on_c, 2, 70, 88
4, 141123, Note_on_c, 2, 70, 0
4, 141123, Note_on_c, 2, 67, 0
4, 141123, Note_on_c, 2, 69, 88
4, 141123, Note_on_c, 2, 65, 88
4, 141363, Note_on_c, 2, 65, 0
4, 141363, Note_on_c, 2, 69, 0
4, 141363, Note_on_c, 2, 69, 88
4, 141363, Note_on_c, 2, 72, 88
4, 141603, Note_on_c, 2, 72, 0
4, 141603, Note_on_c, 2, 69, 0
4, 141603, Note_on_c, 2, 71, 88
4, 141603, Note_on_c, 2, 67, 88
4, 141955, Note_on_c, 2, 67, 0
4, 141955, Note_on_c, 2, 71, 0
4, 141963, Note_on_c, 2, 77, 98
4, 141963, Note_on_c, 2, 71, 98
4, 142075, Note_on_c, 2, 71, 0
4, 142075, Note_on_c, 2, 77, 0
4, 142083, Note_on_c, 2, 76, 98
4, 142083, Note_on_c, 2, 72, 98
4, 142195, Note_on_c, 2, 72, 0
4, 142195, Note_on_c, 2, 76, 0
4, 142203, Note_on_c, 2, 72, 98
4, 142203, Note_on_c, 2, 76, 98
4, 142315, Note_on_c, 2, 76, 0
4, 142315, Note_on_c, 2, 72, 0
4, 142323, Note_on_c, 2, 69, 98
4, 142323, Note_on_c, 2, 72, 98
4, 142435, Note_on_c, 2, 72, 0
4, 142435, Note_on_c, 2, 69, 0
4, 142443, Note_on_c, 2, 72, 98
4, 142443, Note_on_c, 2, 69, 98
4, 142555, Note_on_c, 2, 69, 0
4, 142555, Note_on_c, 2, 72, 0
4, 142563, Note_on_c, 2, 71, 98
4, 142675, Note_on_c, 2, 71, 0
4, 142683, Note_on_c, 2, 71, 98
4, 142683, Note_on_c, 2, 79, 98
4, 142683, Control_c, 2, 11, 103
4, 142701, Control_c, 2, 11, 101
4, 142719, Control_c, 2, 11, 99
4, 142737, Control_c, 2, 11, 97
4, 142755, Control_c, 2, 11, 95
4, 142773, Control_c, 2, 11, 93
4, 142791, Control_c, 2, 11, 91
4, 142795, Note_on_c, 2, 71, 0
4, 142803, Note_on_c, 2, 74, 98
4, 142915, Note_on_c, 2, 74, 0
4, 142915, Note_on_c, 2, 79, 0
4, 142923, Note_on_c, 2, 77, 98
4, 142923, Note_on_c, 2, 74, 98
4, 143035, Note_on_c, 2, 74, 0
4, 143035, Note_on_c, 2, 77, 0
4, 143043, Note_on_c, 2, 76, 98
4, 143043, Note_on_c, 2, 67, 98
4, 143155, Note_on_c, 2, 67, 0
4, 143155, Note_on_c, 2, 76, 0
4, 143163, Note_on_c, 2, 76, 98
4, 143163, Note_on_c, 2, 67, 98
4, 143275, Note_on_c, 2, 67, 0
4, 143275, Note_on_c, 2, 76, 0
4, 143283, Note_on_c, 2, 69, 98
4, 143283, Note_on_c, 2, 72, 98
4, 143395, Note_on_c, 2, 72, 0
4, 143395, Note_on_c, 2, 69, 0
4, 143403, Note_on_c, 2, 78, 98
4, 143403, Note_on_c, 2, 72, 98
4, 143515, Note_on_c, 2, 72, 0
4, 143515, Note_on_c, 2, 78, 0
4, 143523, Note_on_c, 2, 79, 98
4, 143523, Note_on_c, 2, 67, 98
4, 143553, Note_on_c, 2, 67, 0
4, 143553, Note_on_c, 2, 79, 0
4, 143583, Note_on_c, 2, 69, 98
4, 143613, Note_on_c, 2, 69, 0
4, 143643, Note_on_c, 2, 71, 98
4, 143673, Note_on_c, 2, 71, 0
4, 143703, Note_on_c, 2, 72, 98
4, 143733, Note_on_c, 2, 72, 0
4, 143763, Control_c, 2, 11, 103
4, 143763, Note_on_c, 2, 74, 98
4, 143781, Control_c, 2, 11, 101
4, 143793, Note_on_c, 2, 74, 0
4, 143799, Control_c, 2, 11, 99
4, 143817, Control_c, 2, 11, 97
4, 143823, Note_on_c, 2, 72, 98
4, 143835, Control_c, 2, 11, 95
4, 143853, Note_on_c, 2, 72, 0
4, 143853, Control_c, 2, 11, 93
4, 143871, Control_c, 2, 11, 91
4, 143883, Note_on_c, 2, 71, 98
4, 143913, Note_on_c, 2, 71, 0
4, 143943, Note_on_c, 2, 69, 98
4, 143973, Note_on_c, 2, 69, 0
4, 144003, Note_on_c, 2, 67, 98
4, 144033, Note_on_c, 2, 67, 0
4, 144063, Note_on_c, 2, 69, 98
4, 144093, Note_on_c, 2, 69, 0
4, 144123, Note_on_c, 2, 71, 98
4, 144153, Note_on_c, 2, 71, 0
4, 144183, Note_on_c, 2, 72, 98
4, 144213, Note_on_c, 2, 72, 0
4, 144243, Control_c, 2, 11, 103
4, 144243, Note_on_c, 2, 74, 98
4, 144261, Control_c, 2, 11, 101
4, 144273, Note_on_c, 2, 74, 0
4, 144279, Control_c, 2, 11, 99
4, 144297, Control_c, 2, 11, 97
4, 144303, Note_on_c, 2, 72, 98
4, 144315, Control_c, 2, 11, 95
4, 144333, Note_on_c, 2, 72, 0
4, 144333, Control_c, 2, 11, 93
4, 144351, Control_c, 2, 11, 91
4, 144363, Note_on_c, 2, 71, 98
4, 144393, Note_on_c, 2, 71, 0
4, 144423, Note_on_c, 2, 69, 98
4, 144453, Note_on_c, 2, 69, 0
4, 144483, Note_on_c, 2, 67, 98
4, 144603, Note_on_c, 2, 67, 0
4, 145323, Control_c, 2, 11, 52
4, 145323, Note_on_c, 2, 67, 98
4, 145433, Note_on_c, 2, 67, 0
4, 145443, Note_on_c, 2, 72, 98
4, 145743, Note_on_c, 2, 72, 0
4, 145743, Note_on_c, 2, 71, 98
4, 145803, Note_on_c, 2, 71, 0
4, 145803, Note_on_c, 2, 69, 98
4, 145863, Note_on_c, 2, 69, 0
4, 145863, Note_on_c, 2, 67, 98
4, 145913, Note_on_c, 2, 67, 0
4, 145923, Note_on_c, 2, 65, 98
4, 146043, Note_on_c, 2, 65, 0
4, 147603, Note_on_c, 2, 65, 98
4, 147603, Control_c, 2, 11, 72
4, 147603, Note_on_c, 2, 71, 98
4, 147622, Control_c, 2, 11, 69
4, 147641, Control_c, 2, 11, 66
4, 147660, Control_c, 2, 11, 64
4, 147675, Control_c, 2, 11, 62
4, 147689, Control_c, 2, 11, 59
4, 147703, Control_c, 2, 11, 56
4, 147718, Control_c, 2, 11, 53
4, 147723, Note_on_c, 2, 71, 0
4, 147723, Note_on_c, 2, 65, 0
4, 147723, Note_on_c, 2, 64, 98
4, 147723, Note_on_c, 2, 72, 98
4, 147833, Note_on_c, 2, 72, 0
4, 147833, Note_on_c, 2, 64, 0
4, 148083, Note_on_c, 2, 65, 98
4, 148083, Note_on_c, 2, 71, 98
4, 148083, Control_c, 2, 11, 72
4, 148102, Control_c, 2, 11, 69
4, 148121, Control_c, 2, 11, 66
4, 148140, Control_c, 2, 11, 64
4, 148155, Control_c, 2, 11, 62
4, 148169, Control_c, 2, 11, 59
4, 148183, Control_c, 2, 11, 56
4, 148198, Control_c, 2, 11, 53
4, 148203, Note_on_c, 2, 71, 0
4, 148203, Note_on_c, 2, 65, 0
4, 148203, Note_on_c, 2, 64, 98
4, 148203, Note_on_c, 2, 72, 98
4, 148313, Note_on_c, 2, 72, 0
4, 148313, Note_on_c, 2, 64, 0
4, 148443, Note_on_c, 2, 67, 98
4, 148563, Note_on_c, 2, 67, 0
4, 148563, Note_on_c, 2, 66, 98
4, 148683, Note_on_c, 2, 66, 0
4, 148683, Note_on_c, 2, 69, 98
4, 148793, Note_on_c, 2, 69, 0
4, 148803, Note_on_c, 2, 67, 98
4, 148923, Note_on_c, 2, 67, 0
4, 150243, Note_on_c, 2, 59, 98
4, 150243, Control_c, 2, 11, 52
4, 150243, Note_on_c, 2, 62, 98
4, 150303, Note_on_c, 2, 62, 0
4, 150303, Note_on_c, 2, 59, 0
4, 150363, Note_on_c, 2, 62, 98
4, 150363, Note_on_c, 2, 65, 98
4, 150423, Note_on_c, 2, 65, 0
4, 150423, Note_on_c, 2, 62, 0
4, 150483, Note_on_c, 2, 71, 98
4, 150483, Note_on_c, 2, 65, 98
4, 150543, Note_on_c, 2, 65, 0
4, 150543, Note_on_c, 2, 71, 0
4, 150603, Note_on_c, 2, 74, 98
4, 150603, Note_on_c, 2, 71, 98
4, 150663, Note_on_c, 2, 71, 0
4, 150663, Note_on_c, 2, 74, 0
4, 150723, Note_on_c, 2, 72, 98
4, 150723, Note_on_c, 2, 76, 98
4, 150843, Note_on_c, 2, 76, 0
4, 150843, Note_on_c, 2, 72, 0
4, 151323, Note_on_c, 2, 65, 88
4, 151323, Note_on_c, 2, 69, 88
4, 151443, Note_on_c, 2, 69, 0
4, 151443, Note_on_c, 2, 65, 0
4, 151443, Note_on_c, 2, 70, 88
4, 151443, Control_c, 2, 11, 72
4, 151443, Note_on_c, 2, 67, 88
4, 151462, Control_c, 2, 11, 71
4, 151481, Control_c, 2, 11, 69
4, 151500, Control_c, 2, 11, 68
4, 151519, Control_c, 2, 11, 66
4, 151539, Control_c, 2, 11, 65
4, 151558, Control_c, 2, 11, 64
4, 151577, Control_c, 2, 11, 62
4, 151596, Control_c, 2, 11, 61
4, 151615, Control_c, 2, 11, 59
4, 151635, Control_c, 2, 11, 57
4, 151654, Control_c, 2, 11, 55
4, 151673, Control_c, 2, 11, 53
4, 151793, Note_on_c, 2, 67, 0
4, 151793, Note_on_c, 2, 70, 0
4, 151803, Note_on_c, 2, 69, 88
4, 151803, Note_on_c, 2, 65, 88
4, 151923, Note_on_c, 2, 65, 0
4, 151923, Note_on_c, 2, 69, 0
4, 151923, Note_on_c, 2, 70, 88
4, 151923, Note_on_c, 2, 67, 88
4, 151923, Control_c, 2, 11, 72
4, 151942, Control_c, 2, 11, 71
4, 151961, Control_c, 2, 11, 69
4, 151980, Control_c, 2, 11, 68
4, 151999, Control_c, 2, 11, 66
4, 152019, Control_c, 2, 11, 65
4, 152038, Control_c, 2, 11, 64
4, 152057, Control_c, 2, 11, 62
4, 152076, Control_c, 2, 11, 61
4, 152095, Control_c, 2, 11, 59
4, 152115, Control_c, 2, 11, 57
4, 152134, Control_c, 2, 11, 55
4, 152153, Control_c, 2, 11, 53
4, 152273, Note_on_c, 2, 67, 0
4, 152273, Note_on_c, 2, 70, 0
4, 152283, Note_on_c, 2, 65, 88
4, 152283, Note_on_c, 2, 69, 88
4, 152403, Note_on_c, 2, 69, 0
4, 152403, Note_on_c, 2, 65, 0
4, 152403, Note_on_c, 2, 67, 88
4, 152403, Note_on_c, 2, 64, 88
4, 152523, Note_on_c, 2, 64, 0
4, 152523, Note_on_c, 2, 67, 0
4, 152523, Note_on_c, 2, 62, 88
4, 152523, Note_on_c, 2, 65, 88
4, 152633, Note_on_c, 2, 65, 0
4, 152633, Note_on_c, 2, 62, 0
4, 152643, Note_on_c, 2, 60, 88
4, 152643, Note_on_c, 2, 64, 88
4, 152883, Note_on_c, 2, 64, 0
4, 152883, Note_on_c, 2, 60, 0
4, 152883, Note_on_c, 2, 62, 98
4, 152883, Note_on_c, 2, 59, 98
4, 153103, Note_on_c, 2, 59, 0
4, 153103, Note_on_c, 2, 62, 0
4, 153123, Note_on_c, 2, 67, 98
4, 153123, Note_on_c, 2, 60, 98
4, 153123, Control_c, 2, 11, 79
4, 153243, Note_on_c, 2, 60, 0
4, 153243, Note_on_c, 2, 67, 0
4, 153363, Note_on_c, 2, 65, 98
4, 153363, Note_on_c, 2, 71, 98
4, 153483, Note_on_c, 2, 71, 0
4, 153483, Note_on_c, 2, 65, 0
4, 153603, Note_on_c, 2, 72, 98
4, 153603, Note_on_c, 2, 64, 98
4, 153723, Note_on_c, 2, 64, 0
4, 153723, Note_on_c, 2, 72, 0
4, 154083, Control_c, 2, 11, 93
4, 154083, Note_on_c, 2, 67, 88
4, 154100, Control_c, 2, 11, 91
4, 154118, Control_c, 2, 11, 89
4, 154136, Control_c, 2, 11, 86
4, 154154, Control_c, 2, 11, 84
4, 154172, Control_c, 2, 11, 82
4, 154190, Control_c, 2, 11, 80
4, 154313, Note_on_c, 2, 67, 0
4, 154323, Note_on_c, 2, 71, 88
4, 154323, Note_on_c, 2, 65, 88
4, 154323, Control_c, 2, 11, 93
4, 154340, Control_c, 2, 11, 91
4, 154358, Control_c, 2, 11, 89
4, 154376, Control_c, 2, 11, 86
4, 154394, Control_c, 2, 11, 84
4, 154412, Control_c, 2, 11, 82
4, 154430, Control_c, 2, 11, 80
4, 154553, Note_on_c, 2, 65, 0
4, 154553, Note_on_c, 2, 71, 0
4, 154563, Note_on_c, 2, 72, 88
4, 154563, Control_c, 2, 11, 93
4, 154563, Note_on_c, 2, 64, 88
4, 154580, Control_c, 2, 11, 91
4, 154598, Control_c, 2, 11, 89
4, 154616, Control_c, 2, 11, 86
4, 154634, Control_c, 2, 11, 84
4, 154652, Control_c, 2, 11, 82
4, 154670, Control_c, 2, 11, 80
4, 154683, Note_on_c, 2, 64, 0
4, 154683, Note_on_c, 2, 72, 0
4, 155043, Note_on_c, 2, 79, 88
4, 155043, Control_c, 2, 11, 93
4, 155060, Control_c, 2, 11, 91
4, 155078, Control_c, 2, 11, 89
4, 155096, Control_c, 2, 11, 86
4, 155114, Control_c, 2, 11, 84
4, 155132, Control_c, 2, 11, 82
4, 155150, Control_c, 2, 11, 80
4, 155213, Note_on_c, 2, 79, 0
4, 155223, Note_on_c, 2, 77, 88
4, 155273, Note_on_c, 2, 77, 0
4, 155283, Note_on_c, 2, 76, 88
4, 155333, Note_on_c, 2, 76, 0
4, 155343, Note_on_c, 2, 74, 88
4, 155393, Note_on_c, 2, 74, 0
4, 155403, Note_on_c, 2, 72, 88
4, 155453, Note_on_c, 2, 72, 0
4, 155463, Note_on_c, 2, 71, 88
4, 155513, Note_on_c, 2, 71, 0
4, 155523, Note_on_c, 2, 69, 88
4, 155523, Control_c, 2, 11, 93
4, 155541, Control_c, 2, 11, 91
4, 155559, Control_c, 2, 11, 89
4, 155577, Control_c, 2, 11, 86
4, 155595, Control_c, 2, 11, 84
4, 155613, Control_c, 2, 11, 82
4, 155631, Control_c, 2, 11, 80
4, 155693, Note_on_c, 2, 69, 0
4, 155703, Note_on_c, 2, 67, 88
4, 155753, Note_on_c, 2, 67, 0
4, 155763, Note_on_c, 2, 65, 88
4, 155813, Note_on_c, 2, 65, 0
4, 155823, Note_on_c, 2, 64, 88
4, 155873, Note_on_c, 2, 64, 0
4, 155883, Note_on_c, 2, 62, 88
4, 155933, Note_on_c, 2, 62, 0
4, 155943, Note_on_c, 2, 60, 88
4, 155993, Note_on_c, 2, 60, 0
4, 156003, Note_on_c, 2, 59, 88
4, 156003, Control_c, 2, 11, 79
4, 156035, Control_c, 2, 11, 80
4, 156053, Note_on_c, 2, 59, 0
4, 156063, Note_on_c, 2, 60, 88
4, 156067, Control_c, 2, 11, 80
4, 156099, Control_c, 2, 11, 81
4, 156113, Note_on_c, 2, 60, 0
4, 156123, Note_on_c, 2, 62, 88
4, 156131, Control_c, 2, 11, 82
4, 156163, Control_c, 2, 11, 82
4, 156173, Note_on_c, 2, 62, 0
4, 156183, Note_on_c, 2, 64, 88
4, 156195, Control_c, 2, 11, 83
4, 156227, Control_c, 2, 11, 84
4, 156233, Note_on_c, 2, 64, 0
4, 156243, Note_on_c, 2, 65, 88
4, 156259, Control_c, 2, 11, 84
4, 156291, Control_c, 2, 11, 85
4, 156293, Note_on_c, 2, 65, 0
4, 156303, Note_on_c, 2, 67, 88
4, 156323, Control_c, 2, 11, 86
4, 156353, Note_on_c, 2, 67, 0
4, 156355, Control_c, 2, 11, 86
4, 156363, Note_on_c, 2, 69, 88
4, 156387, Control_c, 2, 11, 87
4, 156413, Note_on_c, 2, 69, 0
4, 156419, Control_c, 2, 11, 88
4, 156423, Note_on_c, 2, 71, 88
4, 156451, Control_c, 2, 11, 89
4, 156473, Note_on_c, 2, 71, 0
4, 156483, Control_c, 2, 11, 89
4, 156483, Note_on_c, 2, 72, 88
4, 156543, Note_on_c, 2, 72, 0
4, 156603, Note_on_c, 2, 65, 88
4, 156603, Note_on_c, 2, 69, 88
4, 156663, Note_on_c, 2, 69, 0
4, 156663, Note_on_c, 2, 65, 0
4, 156723, Note_on_c, 2, 64, 88
4, 156723, Note_on_c, 2, 67, 88
4, 156783, Note_on_c, 2, 67, 0
4, 156783, Note_on_c, 2, 64, 0
4, 156843, Note_on_c, 2, 65, 88
4, 156843, Note_on_c, 2, 71, 88
4, 156903, Note_on_c, 2, 71, 0
4, 156903, Note_on_c, 2, 65, 0
4, 156963, Note_on_c, 2, 72, 70
4, 156963, Note_on_c, 2, 64, 70
4, 156993, Control_c, 2, 11, 79
4, 157003, Control_c, 2, 11, 76
4, 157013, Control_c, 2, 11, 73
4, 157026, Control_c, 2, 11, 70
4, 157036, Control_c, 2, 11, 67
4, 157047, Control_c, 2, 11, 64
4, 157059, Control_c, 2, 11, 61
4, 157067, Control_c, 2, 11, 58
4, 157075, Control_c, 2, 11, 55
4, 157083, Note_on_c, 2, 64, 0
4, 157083, Note_on_c, 2, 72, 0
4, 157083, Control_c, 2, 11, 52
4, 159363, Note_on_c, 2, 79, 98
4, 159363, Control_c, 2, 11, 27
4, 159381, Control_c, 2, 11, 30
4, 159399, Control_c, 2, 11, 33
4, 159417, Control_c, 2, 11, 36
4, 159435, Control_c, 2, 11, 39
4, 159453, Control_c, 2, 11, 42
4, 159471, Control_c, 2, 11, 45
4, 159525, Control_c, 2, 11, 48
4, 159567, Control_c, 2, 11, 49
4, 159609, Control_c, 2, 11, 50
4, 159651, Control_c, 2, 11, 51
4, 159693, Control_c, 2, 11, 52
4, 159735, Control_c, 2, 11, 53
4, 159777, Control_c, 2, 11, 54
4, 159819, Control_c, 2, 11, 55
4, 159861, Control_c, 2, 11, 56
4, 159903, Control_c, 2, 11, 57
4, 159945, Control_c, 2, 11, 58
4, 159987, Control_c, 2, 11, 59
4, 160029, Control_c, 2, 11, 60
4, 160071, Control_c, 2, 11, 61
4, 160113, Control_c, 2, 11, 62
4, 160155, Control_c, 2, 11, 62
4, 160197, Control_c, 2, 11, 63
4, 160203, Note_on_c, 2, 79, 0
4, 160203, Note_on_c, 2, 77, 98
4, 160239, Control_c, 2, 11, 64
4, 160263, Note_on_c, 2, 77, 0
4, 160263, Note_on_c, 2, 75, 98
4, 160281, Control_c, 2, 11, 64
4, 160313, Note_on_c, 2, 75, 0
4, 160323, Control_c, 2, 11, 65
4, 160323, Note_on_c, 2, 75, 98
4, 160347, Control_c, 2, 11, 64
4, 160368, Note_on_c, 2, 75, 0
4, 160368, Note_on_c, 2, 74, 98
4, 160371, Control_c, 2, 11, 64
4, 160395, Control_c, 2, 11, 63
4, 160413, Note_on_c, 2, 74, 0
4, 160419, Control_c, 2, 11, 62
4, 160443, Control_c, 2, 11, 62
4, 160443, Note_on_c, 2, 74, 98
4, 160467, Control_c, 2, 11, 61
4, 160491, Control_c, 2, 11, 60
4, 160515, Control_c, 2, 11, 59
4, 160533, Note_on_c, 2, 74, 0
4, 160539, Control_c, 2, 11, 58
4, 160563, Control_c, 2, 11, 57
4, 160563, Note_on_c, 2, 74, 98
4, 160587, Control_c, 2, 11, 56
4, 160611, Control_c, 2, 11, 55
4, 160635, Control_c, 2, 11, 54
4, 160653, Note_on_c, 2, 74, 0
4, 160659, Control_c, 2, 11, 53
4, 160683, Control_c, 2, 11, 52
4, 160683, Note_on_c, 2, 74, 98
4, 160707, Control_c, 2, 11, 51
4, 160731, Control_c, 2, 11, 50
4, 160755, Control_c, 2, 11, 49
4, 160773, Note_on_c, 2, 74, 0
4, 160779, Control_c, 2, 11, 48
4, 160803, Control_c, 2, 11, 42
4, 160803, Note_on_c, 2, 74, 98
4, 160803, Note_on_c, 2, 77, 98
4, 160818, Control_c, 2, 11, 45
4, 160833, Control_c, 2, 11, 48
4, 160848, Control_c, 2, 11, 51
4, 160863, Control_c, 2, 11, 54
4, 160885, Control_c, 2, 11, 54
4, 160926, Control_c, 2, 11, 55
4, 160967, Control_c, 2, 11, 56
4, 161008, Control_c, 2, 11, 57
4, 161049, Control_c, 2, 11, 58
4, 161091, Control_c, 2, 11, 59
4, 161132, Control_c, 2, 11, 60
4, 161173, Control_c, 2, 11, 61
4, 161214, Control_c, 2, 11, 62
4, 161255, Control_c, 2, 11, 62
4, 161283, Note_on_c, 2, 77, 0
4, 161283, Note_on_c, 2, 74, 0
4, 161283, Note_on_c, 2, 76, 98
4, 161283, Note_on_c, 2, 72, 98
4, 161296, Control_c, 2, 11, 63
4, 161337, Control_c, 2, 11, 64
4, 161379, Control_c, 2, 11, 64
4, 161420, Control_c, 2, 11, 65
4, 161461, Control_c, 2, 11, 66
4, 161502, Control_c, 2, 11, 66
4, 161543, Control_c, 2, 11, 67
4, 161584, Control_c, 2, 11, 68
4, 161625, Control_c, 2, 11, 68
4, 161667, Control_c, 2, 11, 69
4, 161708, Control_c, 2, 11, 70
4, 161749, Control_c, 2, 11, 71
4, 161763, Note_on_c, 2, 76, 0
4, 161763, Note_on_c, 2, 74, 98
4, 161790, Control_c, 2, 11, 71
4, 161831, Control_c, 2, 11, 72
4, 161872, Control_c, 2, 11, 73
4, 161913, Control_c, 2, 11, 73
4, 161955, Control_c, 2, 11, 74
4, 161996, Control_c, 2, 11, 75
4, 162003, Note_on_c, 2, 72, 0
4, 162003, Note_on_c, 2, 71, 98
4, 162037, Control_c, 2, 11, 75
4, 162078, Control_c, 2, 11, 76
4, 162119, Control_c, 2, 11, 77
4, 162160, Control_c, 2, 11, 77
4, 162201, Control_c, 2, 11, 78
4, 162233, Note_on_c, 2, 71, 0
4, 162243, Note_on_c, 2, 74, 0
4, 162243, Control_c, 2, 11, 79
4, 162243, Note_on_c, 2, 72, 98
4, 162593, Note_on_c, 2, 72, 0
4, 162603, Note_on_c, 2, 67, 98
4, 162693, Note_on_c, 2, 67, 0
4, 162693, Note_on_c, 2, 71, 98
4, 162713, Note_on_c, 2, 71, 0
4, 162723, Note_on_c, 2, 72, 98
4, 162723, Control_c, 2, 11, 93
4, 162746, Control_c, 2, 11, 91
4, 162770, Control_c, 2, 11, 90
4, 162794, Control_c, 2, 11, 89
4, 162818, Control_c, 2, 11, 87
4, 162842, Control_c, 2, 11, 86
4, 162866, Control_c, 2, 11, 84
4, 162890, Control_c, 2, 11, 83
4, 162914, Control_c, 2, 11, 82
4, 162938, Control_c, 2, 11, 80
4, 162962, Control_c, 2, 11, 79
4, 163073, Note_on_c, 2, 72, 0
4, 163083, Note_on_c, 2, 67, 98
4, 163173, Note_on_c, 2, 67, 0
4, 163173, Note_on_c, 2, 71, 98
4, 163193, Note_on_c, 2, 71, 0
4, 163203, Note_on_c, 2, 60, 98
4, 163203, Note_on_c, 2, 72, 98
4, 163203, Control_c, 2, 11, 93
4, 163220, Control_c, 2, 11, 91
4, 163238, Control_c, 2, 11, 89
4, 163256, Control_c, 2, 11, 86
4, 163274, Control_c, 2, 11, 84
4, 163292, Control_c, 2, 11, 82
4, 163310, Control_c, 2, 11, 80
4, 163323, Note_on_c, 2, 72, 0
4, 163323, Note_on_c, 2, 60, 0
4, 163443, Control_c, 2, 11, 93
4, 163443, Note_on_c, 2, 71, 98
4, 163443, Note_on_c, 2, 62, 98
4, 163460, Control_c, 2, 11, 91
4, 163478, Control_c, 2, 11, 89
4, 163496, Control_c, 2, 11, 86
4, 163514, Control_c, 2, 11, 84
4, 163532, Control_c, 2, 11, 82
4, 163550, Control_c, 2, 11, 80
4, 163563, Note_on_c, 2, 62, 0
4, 163563, Note_on_c, 2, 71, 0
4, 163683, Note_on_c, 2, 72, 98
4, 163683, Control_c, 2, 11, 93
4, 163683, Note_on_c, 2, 64, 98
4, 163700, Control_c, 2, 11, 91
4, 163718, Control_c, 2, 11, 89
4, 163736, Control_c, 2, 11, 86
4, 163754, Control_c, 2, 11, 84
4, 163772, Control_c, 2, 11, 82
4, 163790, Control_c, 2, 11, 80
4, 163803, Note_on_c, 2, 64, 0
4, 163803, Note_on_c, 2, 72, 0
4, 163923, Note_on_c, 2, 72, 98
4, 163923, Control_c, 2, 11, 93
4, 163923, Note_on_c, 2, 65, 98
4, 163940, Control_c, 2, 11, 91
4, 163958, Control_c, 2, 11, 89
4, 163976, Control_c, 2, 11, 86
4, 163994, Control_c, 2, 11, 84
4, 164012, Control_c, 2, 11, 82
4, 164030, Control_c, 2, 11, 80
4, 164043, Note_on_c, 2, 65, 0
4, 164043, Note_on_c, 2, 72, 0
4, 164163, Control_c, 2, 11, 86
4, 164186, Control_c, 2, 11, 85
4, 164210, Control_c, 2, 11, 84
4, 164234, Control_c, 2, 11, 84
4, 164258, Control_c, 2, 11, 83
4, 164282, Control_c, 2, 11, 82
4, 164306, Control_c, 2, 11, 82
4, 164330, Control_c, 2, 11, 81
4, 164354, Control_c, 2, 11, 80
4, 164378, Control_c, 2, 11, 80
4, 164402, Control_c, 2, 11, 79
4, 164643, Control_c, 2, 11, 86
4, 164666, Control_c, 2, 11, 85
4, 164690, Control_c, 2, 11, 84
4, 164714, Control_c, 2, 11, 84
4, 164738, Control_c, 2, 11, 83
4, 164762, Control_c, 2, 11, 82
4, 164786, Control_c, 2, 11, 82
4, 164810, Control_c, 2, 11, 81
4, 164834, Control_c, 2, 11, 80
4, 164858, Control_c, 2, 11, 80
4, 164882, Control_c, 2, 11, 79
4, 166083, Note_on_c, 2, 65, 98
4, 166083, Control_c, 2, 11, 89
4, 166083, Note_on_c, 2, 69, 98
4, 166553, Note_on_c, 2, 65, 0
4, 166563, Note_on_c, 2, 66, 98
4, 166673, Note_on_c, 2, 69, 0
4, 166683, Note_on_c, 2, 66, 0
4, 166683, Note_on_c, 2, 72, 98
4, 166803, Note_on_c, 2, 72, 0
4, 166803, Note_on_c, 2, 69, 98
4, 166923, Note_on_c, 2, 69, 0
4, 166923, Note_on_c, 2, 66, 98
4, 167033, Note_on_c, 2, 66, 0
4, 167043, Control_c, 2, 11, 103
4, 167043, Note_on_c, 2, 67, 98
4, 167066, Control_c, 2, 11, 102
4, 167090, Control_c, 2, 11, 100
4, 167114, Control_c, 2, 11, 99
4, 167138, Control_c, 2, 11, 98
4, 167162, Control_c, 2, 11, 96
4, 167186, Control_c, 2, 11, 95
4, 167210, Control_c, 2, 11, 93
4, 167234, Control_c, 2, 11, 92
4, 167258, Control_c, 2, 11, 91
4, 167273, Note_on_c, 2, 67, 0
4, 167282, Control_c, 2, 11, 89
4, 167283, Control_c, 2, 11, 103
4, 167283, Note_on_c, 2, 69, 98
4, 167306, Control_c, 2, 11, 102
4, 167330, Control_c, 2, 11, 100
4, 167354, Control_c, 2, 11, 99
4, 167378, Control_c, 2, 11, 98
4, 167402, Control_c, 2, 11, 96
4, 167426, Control_c, 2, 11, 95
4, 167450, Control_c, 2, 11, 93
4, 167474, Control_c, 2, 11, 92
4, 167498, Control_c, 2, 11, 91
4, 167513, Note_on_c, 2, 69, 0
4, 167522, Control_c, 2, 11, 89
4, 167523, Note_on_c, 2, 65, 98
4, 167523, Control_c, 2, 11, 103
4, 167546, Control_c, 2, 11, 102
4, 167570, Control_c, 2, 11, 100
4, 167594, Control_c, 2, 11, 99
4, 167618, Control_c, 2, 11, 98
4, 167642, Control_c, 2, 11, 96
4, 167666, Control_c, 2, 11, 95
4, 167690, Control_c, 2, 11, 93
4, 167714, Control_c, 2, 11, 92
4, 167738, Control_c, 2, 11, 91
4, 167753, Note_on_c, 2, 65, 0
4, 167762, Control_c, 2, 11, 89
4, 167763, Note_on_c, 2, 67, 98
4, 167763, Control_c, 2, 11, 103
4, 167783, Control_c, 2, 11, 101
4, 167803, Control_c, 2, 11, 99
4, 167824, Control_c, 2, 11, 97
4, 167844, Control_c, 2, 11, 95
4, 167865, Control_c, 2, 11, 93
4, 167885, Control_c, 2, 11, 91
4, 167906, Control_c, 2, 11, 89
4, 167926, Control_c, 2, 11, 86
4, 167947, Control_c, 2, 11, 84
4, 167967, Control_c, 2, 11, 82
4, 167988, Control_c, 2, 11, 80
4, 167993, Note_on_c, 2, 67, 0
4, 168003, Note_on_c, 2, 60, 98
4, 168003, Control_c, 2, 11, 72
4, 168021, Control_c, 2, 11, 70
4, 168039, Control_c, 2, 11, 68
4, 168057, Control_c, 2, 11, 66
4, 168075, Control_c, 2, 11, 64
4, 168093, Control_c, 2, 11, 62
4, 168111, Control_c, 2, 11, 59
4, 168123, Note_on_c, 2, 60, 0
4, 168123, Control_c, 2, 11, 52
4, 168123, Note_on_c, 2, 69, 88
4, 168123, Note_on_c, 2, 65, 88
4, 168243, Note_on_c, 2, 65, 0
4, 168243, Note_on_c, 2, 69, 0
4, 168243, Note_on_c, 2, 64, 88
4, 168243, Note_on_c, 2, 67, 88
4, 168363, Note_on_c, 2, 67, 0
4, 168363, Note_on_c, 2, 64, 0
4, 168363, Note_on_c, 2, 65, 88
4, 168363, Note_on_c, 2, 62, 88
4, 168483, Note_on_c, 2, 62, 0
4, 168483, Note_on_c, 2, 65, 0
4, 168483, Note_on_c, 2, 64, 88
4, 168483, Note_on_c, 2, 60, 88
4, 168603, Note_on_c, 2, 60, 0
4, 168603, Note_on_c, 2, 64, 0
4, 168603, Note_on_c, 2, 62, 88
4, 168603, Note_on_c, 2, 65, 88
4, 168723, Note_on_c, 2, 65, 0
4, 168723, Note_on_c, 2, 62, 0
4, 168723, Note_on_c, 2, 64, 88
4, 168723, Note_on_c, 2, 67, 88
4, 168843, Note_on_c, 2, 67, 0
4, 168843, Note_on_c, 2, 64, 0
4, 168843, Control_c, 2, 11, 75
4, 168843, Note_on_c, 2, 65, 88
4, 168843, Note_on_c, 2, 62, 88
4, 168859, Control_c, 2, 11, 73
4, 168875, Control_c, 2, 11, 70
4, 168891, Control_c, 2, 11, 67
4, 168907, Control_c, 2, 11, 64
4, 168923, Control_c, 2, 11, 62
4, 168935, Control_c, 2, 11, 59
4, 168947, Control_c, 2, 11, 56
4, 168959, Control_c, 2, 11, 53
4, 168963, Note_on_c, 2, 62, 0
4, 168963, Note_on_c, 2, 65, 0
4, 168963, Note_on_c, 2, 64, 88
4, 168963, Note_on_c, 2, 60, 88
4, 169023, Note_on_c, 2, 60, 0
4, 169023, Note_on_c, 2, 64, 0
4, 169083, Note_on_c, 2, 65, 98
4, 169083, Note_on_c, 2, 69, 98
4, 169203, Note_on_c, 2, 69, 0
4, 169203, Note_on_c, 2, 65, 0
4, 169203, Note_on_c, 2, 67, 98
4, 169203, Note_on_c, 2, 64, 98
4, 169323, Note_on_c, 2, 64, 0
4, 169323, Note_on_c, 2, 67, 0
4, 169323, Note_on_c, 2, 65, 98
4, 169323, Note_on_c, 2, 62, 98
4, 169443, Note_on_c, 2, 62, 0
4, 169443, Note_on_c, 2, 65, 0
4, 169443, Note_on_c, 2, 64, 98
4, 169443, Note_on_c, 2, 60, 98
4, 169563, Note_on_c, 2, 60, 0
4, 169563, Note_on_c, 2, 64, 0
4, 169563, Note_on_c, 2, 62, 98
4, 169563, Note_on_c, 2, 65, 98
4, 169683, Note_on_c, 2, 65, 0
4, 169683, Note_on_c, 2, 62, 0
4, 169683, Note_on_c, 2, 64, 98
4, 169683, Note_on_c, 2, 67, 98
4, 169803, Note_on_c, 2, 67, 0
4, 169803, Note_on_c, 2, 64, 0
4, 169803, Control_c, 2, 11, 75
4, 169803, Note_on_c, 2, 65, 98
4, 169803, Note_on_c, 2, 62, 98
4, 169818, Control_c, 2, 11, 73
4, 169834, Control_c, 2, 11, 70
4, 169850, Control_c, 2, 11, 67
4, 169866, Control_c, 2, 11, 64
4, 169882, Control_c, 2, 11, 62
4, 169894, Control_c, 2, 11, 59
4, 169906, Control_c, 2, 11, 56
4, 169918, Control_c, 2, 11, 53
4, 169923, Note_on_c, 2, 62, 0
4, 169923, Note_on_c, 2, 65, 0
4, 169923, Note_on_c, 2, 64, 98
4, 169923, Note_on_c, 2, 60, 98
4, 169983, Note_on_c, 2, 60, 0
4, 169983, Note_on_c, 2, 64, 0
4, 170043, Note_on_c, 2, 65, 98
4, 170043, Note_on_c, 2, 69, 98
4, 170163, Note_on_c, 2, 69, 0
4, 170163, Note_on_c, 2, 65, 0
4, 170163, Note_on_c, 2, 67, 98
4, 170163, Note_on_c, 2, 64, 98
4, 170283, Note_on_c, 2, 64, 0
4, 170283, Note_on_c, 2, 67, 0
4, 170283, Note_on_c, 2, 65, 98
4, 170283, Control_c, 2, 11, 75
4, 170283, Note_on_c, 2, 62, 98
4, 170298, Control_c, 2, 11, 73
4, 170314, Control_c, 2, 11, 70
4, 170330, Control_c, 2, 11, 67
4, 170346, Control_c, 2, 11, 64
4, 170362, Control_c, 2, 11, 62
4, 170374, Control_c, 2, 11, 59
4, 170386, Control_c, 2, 11, 56
4, 170398, Control_c, 2, 11, 53
4, 170403, Note_on_c, 2, 62, 0
4, 170403, Note_on_c, 2, 65, 0
4, 170403, Note_on_c, 2, 60, 98
4, 170403, Note_on_c, 2, 64, 98
4, 170463, Note_on_c, 2, 64, 0
4, 170463, Note_on_c, 2, 60, 0
4, 170523, Note_on_c, 2, 65, 98
4, 170523, Note_on_c, 2, 69, 98
4, 170643, Note_on_c, 2, 69, 0
4, 170643, Note_on_c, 2, 65, 0
4, 170643, Note_on_c, 2, 67, 98
4, 170643, Note_on_c, 2, 64, 98
4, 170763, Note_on_c, 2, 64, 0
4, 170763, Note_on_c, 2, 67, 0
4, 170763, Note_on_c, 2, 65, 98
4, 170763, Note_on_c, 2, 62, 98
4, 170763, Control_c, 2, 11, 89
4, 170883, Note_on_c, 2, 62, 0
4, 170883, Note_on_c, 2, 65, 0
4, 170883, Note_on_c, 2, 64, 98
4, 170883, Note_on_c, 2, 60, 98
4, 171003, Note_on_c, 2, 60, 0
4, 171003, Note_on_c, 2, 64, 0
4, 172083, Note_on_c, 2, 72, 88
4, 172083, Control_c, 2, 11, 47
4, 172323, Note_on_c, 2, 72, 0
4, 172323, Note_on_c, 2, 70, 88
4, 172563, Note_on_c, 2, 70, 0
4, 172563, Note_on_c, 2, 67, 88
4, 172803, Note_on_c, 2, 67, 0
4, 172803, Note_on_c, 2, 65, 88
4, 172923, Note_on_c, 2, 65, 0
4, 174003, Note_on_c, 2, 69, 88
4, 174243, Note_on_c, 2, 69, 0
4, 174243, Note_on_c, 2, 67, 88
4, 174483, Note_on_c, 2, 67, 0
4, 174483, Note_on_c, 2, 64, 88
4, 174723, Note_on_c, 2, 64, 0
4, 174723, Note_on_c, 2, 62, 88
4, 174843, Note_on_c, 2, 62, 0
4, 174963, Control_c, 2, 11, 47
4, 174993, Control_c, 2, 11, 48
4, 175024, Control_c, 2, 11, 49
4, 175054, Control_c, 2, 11, 50
4, 175085, Control_c, 2, 11, 51
4, 175115, Control_c, 2, 11, 52
4, 175146, Control_c, 2, 11, 53
4, 175176, Control_c, 2, 11, 54
4, 175207, Control_c, 2, 11, 55
4, 175237, Control_c, 2, 11, 56
4, 175268, Control_c, 2, 11, 57
4, 175299, Control_c, 2, 11, 58
4, 175329, Control_c, 2, 11, 59
4, 175360, Control_c, 2, 11, 60
4, 175390, Control_c, 2, 11, 61
4, 175421, Control_c, 2, 11, 62
4, 175451, Control_c, 2, 11, 62
4, 175482, Control_c, 2, 11, 63
4, 175512, Control_c, 2, 11, 64
4, 175543, Control_c, 2, 11, 64
4, 175573, Control_c, 2, 11, 65
4, 175604, Control_c, 2, 11, 66
4, 175635, Control_c, 2, 11, 66
4, 175665, Control_c, 2, 11, 67
4, 175696, Control_c, 2, 11, 68
4, 175726, Control_c, 2, 11, 68
4, 175757, Control_c, 2, 11, 69
4, 175787, Control_c, 2, 11, 70
4, 175818, Control_c, 2, 11, 71
4, 175848, Control_c, 2, 11, 71
4, 175879, Control_c, 2, 11, 72
4, 175909, Control_c, 2, 11, 73
4, 175923, Note_on_c, 2, 67, 88
4, 175940, Control_c, 2, 11, 73
4, 175971, Control_c, 2, 11, 74
4, 176001, Control_c, 2, 11, 75
4, 176032, Control_c, 2, 11, 75
4, 176062, Control_c, 2, 11, 76
4, 176093, Control_c, 2, 11, 77
4, 176123, Control_c, 2, 11, 77
4, 176154, Control_c, 2, 11, 78
4, 176163, Note_on_c, 2, 67, 0
4, 176163, Note_on_c, 2, 65, 88
4, 176184, Control_c, 2, 11, 79
4, 176215, Control_c, 2, 11, 80
4, 176245, Control_c, 2, 11, 80
4, 176276, Control_c, 2, 11, 81
4, 176307, Control_c, 2, 11, 82
4, 176337, Control_c, 2, 11, 82
4, 176368, Control_c, 2, 11, 83
4, 176398, Control_c, 2, 11, 84
4, 176403, Note_on_c, 2, 65, 0
4, 176403, Note_on_c, 2, 62, 88
4, 176429, Control_c, 2, 11, 84
4, 176459, Control_c, 2, 11, 85
4, 176490, Control_c, 2, 11, 86
4, 176520, Control_c, 2, 11, 86
4, 176551, Control_c, 2, 11, 87
4, 176581, Control_c, 2, 11, 88
4, 176612, Control_c, 2, 11, 89
4, 176643, Note_on_c, 2, 62, 0
4, 176643, Control_c, 2, 11, 89
4, 176643, Note_on_c, 2, 60, 98
4, 176643, Note_on_c, 2, 64, 98
4, 176703, Note_on_c, 2, 64, 0
4, 176703, Note_on_c, 2, 60, 0
4, 176883, Note_on_c, 2, 65, 98
4, 176883, Note_on_c, 2, 69, 98
4, 176943, Note_on_c, 2, 69, 0
4, 176943, Note_on_c, 2, 65, 0
4, 177123, Note_on_c, 2, 67, 98
4, 177123, Note_on_c, 2, 64, 98
4, 177183, Note_on_c, 2, 64, 0
4, 177183, Note_on_c, 2, 67, 0
4, 177363, Note_on_c, 2, 71, 98
4, 177363, Note_on_c, 2, 65, 98
4, 177423, Note_on_c, 2, 65, 0
4, 177423, Note_on_c, 2, 71, 0
4, 177603, Note_on_c, 2, 64, 98
4, 177603, Note_on_c, 2, 72, 98
4, 177663, Note_on_c, 2, 72, 0
4, 177663, Note_on_c, 2, 64, 0
4, 177843, Note_on_c, 2, 69, 98
4, 177843, Note_on_c, 2, 72, 98
4, 177903, Note_on_c, 2, 72, 0
4, 177903, Note_on_c, 2, 69, 0
4, 178083, Note_on_c, 2, 67, 98
4, 178083, Note_on_c, 2, 64, 98
4, 178143, Note_on_c, 2, 64, 0
4, 178143, Note_on_c, 2, 67, 0
4, 178323, Note_on_c, 2, 65, 98
4, 178323, Note_on_c, 2, 71, 98
4, 178383, Note_on_c, 2, 71, 0
4, 178383, Note_on_c, 2, 65, 0
4, 178563, Note_on_c, 2, 64, 98
4, 178563, Note_on_c, 2, 72, 98
4, 178623, Note_on_c, 2, 72, 0
4, 178623, Note_on_c, 2, 64, 0
4, 178803, Note_on_c, 2, 69, 98
4, 178803, Note_on_c, 2, 72, 98
4, 178863, Note_on_c, 2, 72, 0
4, 178863, Note_on_c, 2, 69, 0
4, 179043, Note_on_c, 2, 72, 98
4, 179043, Note_on_c, 2, 64, 98
4, 179103, Note_on_c, 2, 64, 0
4, 179103, Note_on_c, 2, 72, 0
4, 179283, Note_on_c, 2, 71, 98
4, 179283, Note_on_c, 2, 65, 98
4, 179343, Note_on_c, 2, 65, 0
4, 179343, Note_on_c, 2, 71, 0
4, 179523, Note_on_c, 2, 64, 88
4, 179523, Control_c, 2, 11, 89
4, 179523, Note_on_c, 2, 72, 88
4, 181083, Note_on_c, 2, 72, 0
4, 181083, Note_on_c, 2, 64, 0
4, 181083, Note_on_c, 2, 60, 98
4, 181083, Note_on_c, 2, 64, 98
4, 181143, Note_on_c, 2, 64, 0
4, 181143, Note_on_c, 2, 60, 0
4, 181203, Note_on_c, 2, 67, 98
4, 181203, Note_on_c, 2, 64, 98
4, 181263, Note_on_c, 2, 64, 0
4, 181263, Note_on_c, 2, 67, 0
4, 181323, Note_on_c, 2, 72, 98
4, 181323, Note_on_c, 2, 67, 98
4, 181383, Note_on_c, 2, 67, 0
4, 181383, Note_on_c, 2, 72, 0
4, 181443, Note_on_c, 2, 76, 88
4, 181443, Control_c, 2, 7, 122
4, 181443, Note_on_c, 2, 72, 88
4, 181454, Control_c, 2, 7, 121
4, 181466, Control_c, 2, 7, 120
4, 181478, Control_c, 2, 7, 119
4, 181490, Control_c, 2, 7, 118
4, 181502, Control_c, 2, 7, 117
4, 181514, Control_c, 2, 7, 116
4, 181526, Control_c, 2, 7, 115
4, 181538, Control_c, 2, 7, 114
4, 181550, Control_c, 2, 7, 113
4, 181562, Control_c, 2, 7, 112
4, 181574, Control_c, 2, 7, 111
4, 181586, Control_c, 2, 7, 110
4, 181598, Control_c, 2, 7, 109
4, 181610, Control_c, 2, 7, 108
4, 181622, Control_c, 2, 7, 107
4, 181634, Control_c, 2, 7, 106
4, 181646, Control_c, 2, 7, 105
4, 181658, Control_c, 2, 7, 104
4, 181670, Control_c, 2, 7, 103
4, 181682, Control_c, 2, 7, 102
4, 182523, Control_c, 2, 11, 79
4, 182541, Control_c, 2, 11, 80
4, 182559, Control_c, 2, 11, 80
4, 182577, Control_c, 2, 11, 81
4, 182595, Control_c, 2, 11, 82
4, 182613, Control_c, 2, 11, 82
4, 182631, Control_c, 2, 11, 83
4, 182649, Control_c, 2, 11, 84
4, 182667, Control_c, 2, 11, 84
4, 182685, Control_c, 2, 11, 85
4, 182703, Control_c, 2, 11, 86
4, 182721, Control_c, 2, 11, 86
4, 182739, Control_c, 2, 11, 87
4, 182757, Control_c, 2, 11, 88
4, 182775, Control_c, 2, 11, 89
4, 182793, Control_c, 2, 11, 89
4, 182811, Control_c, 2, 11, 90
4, 182829, Control_c, 2, 11, 91
4, 182847, Control_c, 2, 11, 91
4, 182865, Control_c, 2, 11, 92
4, 182883, Control_c, 2, 11, 93
4, 183003, Note_on_c, 2, 72, 0
4, 183003, Note_on_c, 2, 76, 0
4, 183003, Note_on_c, 2, 67, 98
4, 183003, Note_on_c, 2, 64, 98
4, 183063, Note_on_c, 2, 64, 0
4, 183063, Note_on_c, 2, 67, 0
4, 183123, Note_on_c, 2, 72, 98
4, 183123, Note_on_c, 2, 67, 98
4, 183183, Note_on_c, 2, 67, 0
4, 183183, Note_on_c, 2, 72, 0
4, 183243, Note_on_c, 2, 76, 98
4, 183243, Note_on_c, 2, 72, 98
4, 183303, Note_on_c, 2, 72, 0
4, 183303, Note_on_c, 2, 76, 0
4, 183363, Note_on_c, 2, 79, 88
4, 183363, Control_c, 2, 7, 122
4, 183363, Note_on_c, 2, 76, 88
4, 183374, Control_c, 2, 7, 121
4, 183386, Control_c, 2, 7, 120
4, 183398, Control_c, 2, 7, 119
4, 183410, Control_c, 2, 7, 118
4, 183422, Control_c, 2, 7, 117
4, 183434, Control_c, 2, 7, 116
4, 183446, Control_c, 2, 7, 115
4, 183458, Control_c, 2, 7, 114
4, 183470, Control_c, 2, 7, 113
4, 183482, Control_c, 2, 7, 112
4, 183494, Control_c, 2, 7, 111
4, 183506, Control_c, 2, 7, 110
4, 183518, Control_c, 2, 7, 109
4, 183530, Control_c, 2, 7, 108
4, 183542, Control_c, 2, 7, 107
4, 183554, Control_c, 2, 7, 106
4, 183566, Control_c, 2, 7, 105
4, 183578, Control_c, 2, 7, 104
4, 183590, Control_c, 2, 7, 103
4, 183602, Control_c, 2, 7, 102
4, 184443, Control_c, 2, 11, 79
4, 184461, Control_c, 2, 11, 80
4, 184479, Control_c, 2, 11, 80
4, 184497, Control_c, 2, 11, 81
4, 184515, Control_c, 2, 11, 82
4, 184533, Control_c, 2, 11, 82
4, 184551, Control_c, 2, 11, 83
4, 184569, Control_c, 2, 11, 84
4, 184587, Control_c, 2, 11, 84
4, 184605, Control_c, 2, 11, 85
4, 184623, Control_c, 2, 11, 86
4, 184641, Control_c, 2, 11, 86
4, 184659, Control_c, 2, 11, 87
4, 184677, Control_c, 2, 11, 88
4, 184695, Control_c, 2, 11, 89
4, 184713, Control_c, 2, 11, 89
4, 184731, Control_c, 2, 11, 90
4, 184749, Control_c, 2, 11, 91
4, 184767, Control_c, 2, 11, 91
4, 184785, Control_c, 2, 11, 92
4, 184803, Control_c, 2, 11, 93
4, 184923, Note_on_c, 2, 76, 0
4, 184923, Note_on_c, 2, 79, 0
4, 184923, Note_on_c, 2, 67, 98
4, 184983, Note_on_c, 2, 67, 0
4, 185043, Note_on_c, 2, 72, 98
4, 185103, Note_on_c, 2, 72, 0
4, 185163, Note_on_c, 2, 76, 98
4, 185223, Note_on_c, 2, 76, 0
4, 185283, Note_on_c, 2, 79, 98
4, 185343, Note_on_c, 2, 79, 0
4, 185403, Note_on_c, 2, 76, 98
4, 185463, Note_on_c, 2, 76, 0
4, 185523, Note_on_c, 2, 72, 98
4, 185583, Note_on_c, 2, 72, 0
4, 185643, Note_on_c, 2, 67, 98
4, 185703, Note_on_c, 2, 67, 0
4, 185763, Note_on_c, 2, 76, 98
4, 185823, Note_on_c, 2, 76, 0
4, 185883, Note_on_c, 2, 72, 98
4, 185943, Note_on_c, 2, 72, 0
4, 186003, Note_on_c, 2, 67, 98
4, 186063, Note_on_c, 2, 67, 0
4, 186123, Note_on_c, 2, 64, 98
4, 186183, Note_on_c, 2, 64, 0
4, 186243, Note_on_c, 2, 60, 98
4, 186303, Note_on_c, 2, 60, 0
4, 186363, Note_on_c, 2, 79, 98
4, 186423, Note_on_c, 2, 79, 0
4, 186483, Note_on_c, 2, 76, 98
4, 186543, Note_on_c, 2, 76, 0
4, 186603, Note_on_c, 2, 72, 98
4, 186663, Note_on_c, 2, 72, 0
4, 186723, Note_on_c, 2, 67, 98
4, 186783, Note_on_c, 2, 67, 0
4, 186843, Note_on_c, 2, 72, 98
4, 186903, Note_on_c, 2, 72, 0
4, 186963, Note_on_c, 2, 67, 98
4, 187023, Note_on_c, 2, 67, 0
4, 187083, Note_on_c, 2, 64, 98
4, 187143, Note_on_c, 2, 64, 0
4, 187203, Note_on_c, 2, 60, 113
4, 187323, Note_on_c, 2, 60, 0
4, 187683, Note_on_c, 2, 64, 98
4, 187683, Note_on_c, 2, 72, 98
4, 187803, Note_on_c, 2, 72, 0
4, 187803, Note_on_c, 2, 64, 0
4, 188163, Note_on_c, 2, 72, 98
4, 188163, Note_on_c, 2, 64, 98
4, 188283, Note_on_c, 2, 64, 0
4, 188283, Note_on_c, 2, 72, 0
4, 188643, Note_on_c, 2, 64, 98
4, 188643, Note_on_c, 2, 72, 98
4, 188763, Note_on_c, 2, 72, 0
4, 188763, Note_on_c, 2, 64, 0
4, 188883, Note_on_c, 2, 64, 98
4, 188883, Note_on_c, 2, 72, 98
4, 189003, Note_on_c, 2, 72, 0
4, 189003, Note_on_c, 2, 64, 0
4, 189123, Note_on_c, 2, 72, 98
4, 189123, Note_on_c, 2, 64, 98
4, 189243, Note_on_c, 2, 64, 0
4, 189243, Note_on_c, 2, 72, 0
4, 189603, Control_c, 2, 121, 0
4, 189603, End_track
5, 0, Start_track
5, 0, MIDI_port, 0
5, 0, Title_t, "2 Fagotti"
5, 0, Program_c, 3, 70
5, 0, Control_c, 3, 10, 80
5, 8, Control_c, 3, 121, 0
5, 13, Program_c, 3, 70
5, 18, Pitch_bend_c, 3, 8192
5, 23, Control_c, 3, 11, 87
5, 28, Control_c, 3, 7, 127
5, 33, Control_c, 3, 91, 67
5, 38, Control_c, 3, 93, 0
5, 43, Control_c, 3, 10, 80
5, 488, Control_c, 3, 11, 57
5, 488, Note_on_c, 3, 60, 80
5, 488, Note_on_c, 3, 48, 80
5, 492, Control_c, 3, 11, 60
5, 497, Control_c, 3, 11, 63
5, 502, Control_c, 3, 11, 66
5, 507, Control_c, 3, 11, 69
5, 512, Control_c, 3, 11, 72
5, 517, Control_c, 3, 11, 75
5, 522, Control_c, 3, 11, 78
5, 534, Control_c, 3, 11, 75
5, 546, Control_c, 3, 11, 72
5, 558, Control_c, 3, 11, 69
5, 569, Control_c, 3, 11, 66
5, 581, Control_c, 3, 11, 63
5, 593, Control_c, 3, 11, 60
5, 605, Control_c, 3, 11, 57
5, 616, Control_c, 3, 11, 54
5, 628, Control_c, 3, 11, 51
5, 640, Control_c, 3, 11, 48
5, 718, Note_on_c, 3, 48, 0
5, 718, Note_on_c, 3, 60, 0
5, 728, Note_on_c, 3, 41, 64
5, 728, Note_on_c, 3, 53, 64
5, 768, Control_c, 3, 11, 47
5, 771, Control_c, 3, 11, 44
5, 774, Control_c, 3, 11, 41
5, 777, Control_c, 3, 11, 38
5, 780, Control_c, 3, 11, 35
5, 783, Control_c, 3, 11, 32
5, 786, Control_c, 3, 11, 29
5, 788, Note_on_c, 3, 53, 0
5, 788, Note_on_c, 3, 41, 0
5, 968, Control_c, 3, 11, 57
5, 968, Note_on_c, 3, 55, 80
5, 968, Note_on_c, 3, 43, 80
5, 972, Control_c, 3, 11, 60
5, 977, Control_c, 3, 11, 63
5, 982, Control_c, 3, 11, 66
5, 987, Control_c, 3, 11, 69
5, 992, Control_c, 3, 11, 72
5, 997, Control_c, 3, 11, 75
5, 1002, Control_c, 3, 11, 78
5, 1014, Control_c, 3, 11, 75
5, 1026, Control_c, 3, 11, 72
5, 1038, Control_c, 3, 11, 69
5, 1049, Control_c, 3, 11, 66
5, 1061, Control_c, 3, 11, 63
5, 1073, Control_c, 3, 11, 60
5, 1085, Control_c, 3, 11, 57
5, 1096, Control_c, 3, 11, 54
5, 1108, Control_c, 3, 11, 51
5, 1120, Control_c, 3, 11, 48
5, 1198, Note_on_c, 3, 43, 0
5, 1198, Note_on_c, 3, 55, 0
5, 1208, Note_on_c, 3, 45, 64
5, 1208, Note_on_c, 3, 57, 64
5, 1248, Control_c, 3, 11, 47
5, 1251, Control_c, 3, 11, 44
5, 1254, Control_c, 3, 11, 41
5, 1257, Control_c, 3, 11, 38
5, 1260, Control_c, 3, 11, 35
5, 1263, Control_c, 3, 11, 32
5, 1266, Control_c, 3, 11, 29
5, 1268, Note_on_c, 3, 57, 0
5, 1268, Note_on_c, 3, 45, 0
5, 1448, Control_c, 3, 11, 47
5, 1448, Note_on_c, 3, 50, 80
5, 1448, Note_on_c, 3, 62, 80
5, 1471, Control_c, 3, 11, 49
5, 1495, Control_c, 3, 11, 51
5, 1519, Control_c, 3, 11, 53
5, 1543, Control_c, 3, 11, 55
5, 1567, Control_c, 3, 11, 57
5, 1591, Control_c, 3, 11, 59
5, 1615, Control_c, 3, 11, 61
5, 1639, Control_c, 3, 11, 63
5, 1663, Control_c, 3, 11, 65
5, 1678, Note_on_c, 3, 62, 0
5, 1678, Note_on_c, 3, 50, 0
5, 1687, Control_c, 3, 11, 67
5, 1688, Note_on_c, 3, 62, 80
5, 1688, Note_on_c, 3, 50, 80
5, 1711, Control_c, 3, 11, 69
5, 1735, Control_c, 3, 11, 71
5, 1759, Control_c, 3, 11, 73
5, 1783, Control_c, 3, 11, 75
5, 1787, Note_on_c, 3, 50, 0
5, 1787, Note_on_c, 3, 62, 0
5, 1807, Control_c, 3, 11, 77
5, 1808, Note_on_c, 3, 62, 80
5, 1808, Note_on_c, 3, 50, 80
5, 1831, Control_c, 3, 11, 79
5, 1855, Control_c, 3, 11, 81
5, 1879, Control_c, 3, 11, 83
5, 1903, Control_c, 3, 11, 85
5, 1907, Note_on_c, 3, 50, 0
5, 1907, Note_on_c, 3, 62, 0
5, 1927, Control_c, 3, 11, 87
5, 1928, Note_on_c, 3, 55, 100
5, 1928, Note_on_c, 3, 43, 100
5, 2048, Note_on_c, 3, 43, 0
5, 2048, Note_on_c, 3, 55, 0
5, 2408, Control_c, 3, 11, 32
5, 2408, Note_on_c, 3, 43, 100
5, 2412, Control_c, 3, 11, 35
5, 2416, Control_c, 3, 11, 38
5, 2420, Control_c, 3, 11, 41
5, 2424, Control_c, 3, 11, 44
5, 2428, Control_c, 3, 11, 47
5, 2463, Note_on_c, 3, 43, 0
5, 2468, Note_on_c, 3, 55, 100
5, 2523, Note_on_c, 3, 55, 0
5, 2528, Note_on_c, 3, 55, 100
5, 2528, Note_on_c, 3, 65, 100
5, 2583, Note_on_c, 3, 55, 0
5, 2588, Note_on_c, 3, 55, 100
5, 2643, Note_on_c, 3, 55, 0
5, 2648, Note_on_c, 3, 65, 0
5, 2648, Note_on_c, 3, 53, 100
5, 2648, Note_on_c, 3, 62, 100
5, 2703, Note_on_c, 3, 53, 0
5, 2708, Note_on_c, 3, 53, 100
5, 2763, Note_on_c, 3, 53, 0
5, 2768, Note_on_c, 3, 62, 0
5, 2768, Note_on_c, 3, 59, 100
5, 2768, Note_on_c, 3, 53, 100
5, 2823, Note_on_c, 3, 53, 0
5, 2828, Note_on_c, 3, 53, 100
5, 2883, Note_on_c, 3, 53, 0
5, 2888, Note_on_c, 3, 59, 0
5, 2888, Note_on_c, 3, 52, 100
5, 2943, Note_on_c, 3, 52, 0
5, 2948, Note_on_c, 3, 52, 100
5, 3003, Note_on_c, 3, 52, 0
5, 3008, Note_on_c, 3, 52, 100
5, 3008, Note_on_c, 3, 67, 100
5, 3063, Note_on_c, 3, 52, 0
5, 3068, Note_on_c, 3, 52, 100
5, 3123, Note_on_c, 3, 52, 0
5, 3128, Note_on_c, 3, 67, 0
5, 3128, Note_on_c, 3, 52, 100
5, 3128, Note_on_c, 3, 64, 100
5, 3183, Note_on_c, 3, 52, 0
5, 3188, Note_on_c, 3, 52, 100
5, 3243, Note_on_c, 3, 52, 0
5, 3248, Note_on_c, 3, 64, 0
5, 3248, Note_on_c, 3, 52, 100
5, 3248, Note_on_c, 3, 60, 100
5, 3303, Note_on_c, 3, 52, 0
5, 3308, Note_on_c, 3, 52, 100
5, 3363, Note_on_c, 3, 52, 0
5, 3368, Note_on_c, 3, 60, 0
5, 3368, Note_on_c, 3, 65, 100
5, 3368, Note_on_c, 3, 47, 100
5, 3368, Control_c, 3, 11, 47
5, 3392, Control_c, 3, 11, 49
5, 3416, Control_c, 3, 11, 51
5, 3423, Note_on_c, 3, 47, 0
5, 3428, Note_on_c, 3, 59, 100
5, 3440, Control_c, 3, 11, 53
5, 3464, Control_c, 3, 11, 55
5, 3483, Note_on_c, 3, 59, 0
5, 3488, Control_c, 3, 11, 57
5, 3488, Note_on_c, 3, 59, 100
5, 3512, Control_c, 3, 11, 59
5, 3536, Control_c, 3, 11, 61
5, 3543, Note_on_c, 3, 59, 0
5, 3548, Note_on_c, 3, 59, 100
5, 3560, Control_c, 3, 11, 63
5, 3584, Control_c, 3, 11, 65
5, 3603, Note_on_c, 3, 59, 0
5, 3608, Control_c, 3, 11, 67
5, 3608, Note_on_c, 3, 59, 100
5, 3632, Control_c, 3, 11, 69
5, 3638, Note_on_c, 3, 65, 0
5, 3638, Note_on_c, 3, 64, 100
5, 3656, Control_c, 3, 11, 71
5, 3668, Note_on_c, 3, 64, 0
5, 3668, Note_on_c, 3, 65, 100
5, 3680, Control_c, 3, 11, 73
5, 3698, Note_on_c, 3, 65, 0
5, 3698, Note_on_c, 3, 61, 100
5, 3704, Control_c, 3, 11, 75
5, 3728, Note_on_c, 3, 61, 0
5, 3728, Note_on_c, 3, 62, 100
5, 3728, Control_c, 3, 11, 77
5, 3752, Control_c, 3, 11, 79
5, 3758, Note_on_c, 3, 62, 0
5, 3758, Note_on_c, 3, 64, 100
5, 3776, Control_c, 3, 11, 81
5, 3788, Note_on_c, 3, 64, 0
5, 3788, Note_on_c, 3, 65, 100
5, 3800, Control_c, 3, 11, 83
5, 3818, Note_on_c, 3, 65, 0
5, 3818, Note_on_c, 3, 62, 100
5, 3824, Control_c, 3, 11, 85
5, 3843, Note_on_c, 3, 62, 0
5, 3848, Note_on_c, 3, 59, 0
5, 3848, Control_c, 3, 11, 77
5, 3848, Note_on_c, 3, 60, 100
5, 3857, Control_c, 3, 11, 80
5, 3866, Control_c, 3, 11, 83
5, 3875, Control_c, 3, 11, 86
5, 3955, Note_on_c, 3, 60, 0
5, 3968, Note_on_c, 3, 48, 100
5, 3968, Note_on_c, 3, 60, 100
5, 4068, Control_c, 3, 11, 87
5, 4070, Control_c, 3, 11, 83
5, 4072, Control_c, 3, 11, 79
5, 4074, Control_c, 3, 11, 76
5, 4076, Control_c, 3, 11, 72
5, 4078, Control_c, 3, 11, 69
5, 4080, Control_c, 3, 11, 65
5, 4082, Note_on_c, 3, 60, 0
5, 4082, Note_on_c, 3, 48, 0
5, 4082, Control_c, 3, 11, 62
5, 4208, Control_c, 3, 11, 87
5, 4208, Note_on_c, 3, 53, 100
5, 4208, Note_on_c, 3, 65, 100
5, 4308, Control_c, 3, 11, 87
5, 4310, Control_c, 3, 11, 83
5, 4312, Control_c, 3, 11, 79
5, 4314, Control_c, 3, 11, 76
5, 4316, Control_c, 3, 11, 72
5, 4318, Control_c, 3, 11, 69
5, 4320, Control_c, 3, 11, 65
5, 4322, Note_on_c, 3, 65, 0
5, 4322, Note_on_c, 3, 53, 0
5, 4322, Control_c, 3, 11, 62
5, 4328, Control_c, 3, 11, 32
5, 4328, Note_on_c, 3, 67, 100
5, 4328, Note_on_c, 3, 55, 100
5, 4334, Control_c, 3, 11, 35
5, 4340, Control_c, 3, 11, 38
5, 4346, Control_c, 3, 11, 41
5, 4352, Control_c, 3, 11, 44
5, 4358, Control_c, 3, 11, 47
5, 4563, Note_on_c, 3, 55, 0
5, 4563, Note_on_c, 3, 67, 0
5, 4568, Control_c, 3, 11, 47
5, 4568, Note_on_c, 3, 43, 100
5, 4568, Note_on_c, 3, 55, 100
5, 4586, Control_c, 3, 11, 50
5, 4604, Control_c, 3, 11, 53
5, 4622, Control_c, 3, 11, 56
5, 4628, Note_on_c, 3, 55, 0
5, 4628, Note_on_c, 3, 43, 0
5, 4628, Note_on_c, 3, 55, 100
5, 4640, Control_c, 3, 11, 59
5, 4658, Control_c, 3, 11, 62
5, 4676, Control_c, 3, 11, 65
5, 4688, Note_on_c, 3, 55, 0
5, 4688, Note_on_c, 3, 55, 100
5, 4694, Control_c, 3, 11, 68
5, 4712, Control_c, 3, 11, 71
5, 4730, Control_c, 3, 11, 74
5, 4748, Note_on_c, 3, 55, 0
5, 4748, Control_c, 3, 11, 77
5, 4748, Note_on_c, 3, 56, 100
5, 4748, Note_on_c, 3, 59, 100
5, 4766, Control_c, 3, 11, 80
5, 4784, Control_c, 3, 11, 83
5, 4802, Control_c, 3, 11, 86
5, 4803, Note_on_c, 3, 59, 0
5, 4803, Note_on_c, 3, 56, 0
5, 4808, Note_on_c, 3, 60, 100
5, 4808, Note_on_c, 3, 57, 100
5, 4808, Control_c, 3, 11, 77
5, 4817, Control_c, 3, 11, 80
5, 4826, Control_c, 3, 11, 83
5, 4835, Control_c, 3, 11, 86
5, 4915, Note_on_c, 3, 57, 0
5, 4915, Note_on_c, 3, 60, 0
5, 4928, Note_on_c, 3, 57, 100
5, 4928, Note_on_c, 3, 45, 100
5, 5023, Control_c, 3, 11, 87
5, 5025, Control_c, 3, 11, 83
5, 5027, Control_c, 3, 11, 79
5, 5029, Control_c, 3, 11, 76
5, 5031, Control_c, 3, 11, 72
5, 5033, Control_c, 3, 11, 69
5, 5035, Control_c, 3, 11, 65
5, 5037, Control_c, 3, 11, 62
5, 5042, Note_on_c, 3, 45, 0
5, 5042, Note_on_c, 3, 57, 0
5, 5168, Control_c, 3, 11, 87
5, 5168, Note_on_c, 3, 53, 100
5, 5168, Note_on_c, 3, 41, 100
5, 5263, Control_c, 3, 11, 87
5, 5265, Control_c, 3, 11, 83
5, 5267, Control_c, 3, 11, 79
5, 5269, Control_c, 3, 11, 76
5, 5271, Control_c, 3, 11, 72
5, 5273, Control_c, 3, 11, 69
5, 5275, Control_c, 3, 11, 65
5, 5277, Control_c, 3, 11, 62
5, 5282, Note_on_c, 3, 41, 0
5, 5282, Note_on_c, 3, 53, 0
5, 5288, Note_on_c, 3, 55, 100
5, 5288, Note_on_c, 3, 43, 100
5, 5288, Control_c, 3, 11, 87
5, 5348, Control_c, 3, 11, 87
5, 5361, Control_c, 3, 11, 84
5, 5375, Control_c, 3, 11, 81
5, 5388, Control_c, 3, 11, 78
5, 5402, Control_c, 3, 11, 75
5, 5415, Control_c, 3, 11, 72
5, 5429, Control_c, 3, 11, 69
5, 5442, Control_c, 3, 11, 66
5, 5456, Control_c, 3, 11, 63
5, 5469, Control_c, 3, 11, 60
5, 5483, Control_c, 3, 11, 57
5, 5496, Control_c, 3, 11, 54
5, 5510, Control_c, 3, 11, 51
5, 5523, Note_on_c, 3, 43, 0
5, 5523, Note_on_c, 3, 55, 0
5, 5523, Control_c, 3, 11, 48
5, 5528, Note_on_c, 3, 55, 85
5, 5528, Note_on_c, 3, 43, 85
5, 5551, Control_c, 3, 11, 46
5, 5575, Control_c, 3, 11, 45
5, 5599, Control_c, 3, 11, 44
5, 5623, Control_c, 3, 11, 43
5, 5638, Note_on_c, 3, 43, 0
5, 5638, Note_on_c, 3, 55, 0
5, 5647, Control_c, 3, 11, 42
5, 5648, Note_on_c, 3, 55, 100
5, 5648, Note_on_c, 3, 43, 100
5, 5671, Control_c, 3, 11, 41
5, 5695, Control_c, 3, 11, 40
5, 5719, Control_c, 3, 11, 39
5, 5743, Control_c, 3, 11, 38
5, 5758, Note_on_c, 3, 43, 0
5, 5758, Note_on_c, 3, 55, 0
5, 5767, Control_c, 3, 11, 37
5, 5768, Note_on_c, 3, 55, 100
5, 5768, Note_on_c, 3, 43, 100
5, 5786, Control_c, 3, 11, 40
5, 5804, Control_c, 3, 11, 43
5, 5822, Control_c, 3, 11, 46
5, 6008, Note_on_c, 3, 43, 0
5, 6008, Note_on_c, 3, 55, 0
5, 6008, Note_on_c, 3, 43, 100
5, 6008, Note_on_c, 3, 55, 100
5, 6243, Note_on_c, 3, 55, 0
5, 6243, Note_on_c, 3, 43, 0
5, 6248, Note_on_c, 3, 60, 100
5, 6248, Note_on_c, 3, 48, 100
5, 6308, Control_c, 3, 11, 47
5, 6315, Control_c, 3, 11, 44
5, 6322, Control_c, 3, 11, 41
5, 6329, Control_c, 3, 11, 38
5, 6336, Control_c, 3, 11, 35
5, 6343, Control_c, 3, 11, 32
5, 6350, Control_c, 3, 11, 29
5, 6357, Control_c, 3, 11, 26
5, 6364, Control_c, 3, 11, 23
5, 6368, Note_on_c, 3, 48, 0
5, 6368, Note_on_c, 3, 60, 0
5, 8168, Note_on_c, 3, 67, 80
5, 8168, Note_on_c, 3, 60, 80
5, 8168, Control_c, 3, 11, 32
5, 8179, Control_c, 3, 11, 35
5, 8190, Control_c, 3, 11, 38
5, 8201, Control_c, 3, 11, 41
5, 8213, Control_c, 3, 11, 44
5, 8224, Control_c, 3, 11, 47
5, 8264, Control_c, 3, 11, 50
5, 8296, Control_c, 3, 11, 51
5, 8328, Control_c, 3, 11, 52
5, 8360, Control_c, 3, 11, 53
5, 8392, Control_c, 3, 11, 54
5, 8424, Control_c, 3, 11, 55
5, 8456, Control_c, 3, 11, 56
5, 8488, Control_c, 3, 11, 57
5, 8520, Control_c, 3, 11, 58
5, 8552, Control_c, 3, 11, 59
5, 8584, Control_c, 3, 11, 60
5, 8616, Control_c, 3, 11, 61
5, 8648, Note_on_c, 3, 60, 0
5, 8648, Control_c, 3, 11, 62
5, 8648, Note_on_c, 3, 57, 80
5, 8680, Control_c, 3, 11, 63
5, 8712, Control_c, 3, 11, 64
5, 8744, Control_c, 3, 11, 65
5, 8776, Control_c, 3, 11, 66
5, 8808, Control_c, 3, 11, 67
5, 8840, Control_c, 3, 11, 68
5, 8872, Control_c, 3, 11, 69
5, 8904, Control_c, 3, 11, 70
5, 8936, Control_c, 3, 11, 71
5, 8968, Control_c, 3, 11, 72
5, 9000, Control_c, 3, 11, 73
5, 9032, Control_c, 3, 11, 74
5, 9064, Control_c, 3, 11, 75
5, 9088, Control_c, 3, 11, 77
5, 9096, Control_c, 3, 11, 74
5, 9104, Control_c, 3, 11, 71
5, 9112, Control_c, 3, 11, 68
5, 9120, Control_c, 3, 11, 65
5, 9128, Note_on_c, 3, 57, 0
5, 9128, Note_on_c, 3, 67, 0
5, 9128, Note_on_c, 3, 65, 64
5, 9128, Note_on_c, 3, 50, 64
5, 9128, Control_c, 3, 11, 62
5, 9248, Note_on_c, 3, 50, 0
5, 9248, Note_on_c, 3, 65, 0
5, 11048, Control_c, 3, 11, 32
5, 11048, Note_on_c, 3, 50, 80
5, 11048, Note_on_c, 3, 62, 80
5, 11067, Control_c, 3, 11, 35
5, 11086, Control_c, 3, 11, 38
5, 11105, Control_c, 3, 11, 41
5, 11132, Control_c, 3, 11, 43
5, 11153, Control_c, 3, 11, 44
5, 11174, Control_c, 3, 11, 45
5, 11195, Control_c, 3, 11, 46
5, 11216, Control_c, 3, 11, 47
5, 11236, Control_c, 3, 11, 48
5, 11257, Control_c, 3, 11, 49
5, 11278, Control_c, 3, 11, 50
5, 11299, Control_c, 3, 11, 51
5, 11320, Control_c, 3, 11, 52
5, 11340, Control_c, 3, 11, 53
5, 11361, Control_c, 3, 11, 54
5, 11382, Control_c, 3, 11, 55
5, 11403, Control_c, 3, 11, 56
5, 11424, Control_c, 3, 11, 57
5, 11444, Control_c, 3, 11, 58
5, 11465, Control_c, 3, 11, 59
5, 11486, Control_c, 3, 11, 60
5, 11507, Control_c, 3, 11, 61
5, 11528, Note_on_c, 3, 62, 0
5, 11528, Note_on_c, 3, 50, 0
5, 11528, Note_on_c, 3, 60, 80
5, 11528, Note_on_c, 3, 48, 80
5, 11528, Control_c, 3, 11, 62
5, 11560, Control_c, 3, 11, 63
5, 11592, Control_c, 3, 11, 64
5, 11624, Control_c, 3, 11, 65
5, 11656, Control_c, 3, 11, 66
5, 11688, Control_c, 3, 11, 67
5, 11720, Control_c, 3, 11, 68
5, 11752, Control_c, 3, 11, 69
5, 11784, Control_c, 3, 11, 70
5, 11816, Control_c, 3, 11, 71
5, 11848, Control_c, 3, 11, 72
5, 11880, Control_c, 3, 11, 73
5, 11912, Control_c, 3, 11, 74
5, 11944, Control_c, 3, 11, 75
5, 11976, Control_c, 3, 11, 76
5, 12008, Note_on_c, 3, 48, 0
5, 12008, Note_on_c, 3, 60, 0
5, 12008, Note_on_c, 3, 59, 100
5, 12008, Note_on_c, 3, 47, 100
5, 12008, Control_c, 3, 11, 87
5, 12026, Control_c, 3, 11, 84
5, 12044, Control_c, 3, 11, 81
5, 12062, Control_c, 3, 11, 78
5, 12080, Control_c, 3, 11, 75
5, 12098, Control_c, 3, 11, 72
5, 12116, Control_c, 3, 11, 69
5, 12135, Control_c, 3, 11, 66
5, 12156, Control_c, 3, 11, 63
5, 12171, Control_c, 3, 11, 61
5, 12192, Control_c, 3, 11, 58
5, 12214, Control_c, 3, 11, 55
5, 12235, Control_c, 3, 11, 52
5, 12257, Control_c, 3, 11, 49
5, 12278, Control_c, 3, 11, 46
5, 12300, Control_c, 3, 11, 43
5, 12321, Control_c, 3, 11, 40
5, 12343, Note_on_c, 3, 47, 0
5, 12343, Note_on_c, 3, 59, 0
5, 12343, Control_c, 3, 11, 37
5, 12848, Control_c, 3, 11, 77
5, 12848, Note_on_c, 3, 43, 100
5, 12848, Note_on_c, 3, 55, 100
5, 12938, Note_on_c, 3, 55, 0
5, 12938, Note_on_c, 3, 43, 0
5, 12938, Note_on_c, 3, 59, 100
5, 12938, Note_on_c, 3, 47, 100
5, 12968, Note_on_c, 3, 47, 0
5, 12968, Note_on_c, 3, 59, 0
5, 12968, Note_on_c, 3, 62, 100
5, 12968, Note_on_c, 3, 50, 100
5, 12968, Control_c, 3, 11, 97
5, 12986, Control_c, 3, 11, 94
5, 13004, Control_c, 3, 11, 91
5, 13022, Control_c, 3, 11, 88
5, 13040, Control_c, 3, 11, 85
5, 13058, Control_c, 3, 11, 82
5, 13076, Control_c, 3, 11, 79
5, 13093, Control_c, 3, 11, 76
5, 13109, Control_c, 3, 11, 73
5, 13125, Control_c, 3, 11, 70
5, 13141, Control_c, 3, 11, 67
5, 13157, Control_c, 3, 11, 64
5, 13174, Control_c, 3, 11, 61
5, 13190, Control_c, 3, 11, 58
5, 13206, Control_c, 3, 11, 55
5, 13222, Control_c, 3, 11, 52
5, 13238, Control_c, 3, 11, 49
5, 13254, Control_c, 3, 11, 46
5, 13270, Control_c, 3, 11, 43
5, 13286, Control_c, 3, 11, 40
5, 13303, Note_on_c, 3, 50, 0
5, 13303, Note_on_c, 3, 62, 0
5, 13303, Control_c, 3, 11, 37
5, 13808, Control_c, 3, 11, 77
5, 13808, Note_on_c, 3, 59, 100
5, 13808, Note_on_c, 3, 47, 100
5, 13898, Note_on_c, 3, 47, 0
5, 13898, Note_on_c, 3, 59, 0
5, 13898, Note_on_c, 3, 50, 100
5, 13898, Note_on_c, 3, 62, 100
5, 13928, Note_on_c, 3, 62, 0
5, 13928, Note_on_c, 3, 50, 0
5, 13928, Note_on_c, 3, 62, 90
5, 13928, Control_c, 3, 11, 97
5, 13928, Note_on_c, 3, 50, 90
5, 13946, Control_c, 3, 11, 94
5, 13964, Control_c, 3, 11, 91
5, 13982, Control_c, 3, 11, 88
5, 14000, Control_c, 3, 11, 85
5, 14018, Control_c, 3, 11, 82
5, 14036, Control_c, 3, 11, 79
5, 14408, Control_c, 3, 11, 77
5, 14427, Control_c, 3, 11, 78
5, 14446, Control_c, 3, 11, 79
5, 14465, Control_c, 3, 11, 80
5, 14484, Control_c, 3, 11, 81
5, 14503, Control_c, 3, 11, 82
5, 14518, Note_on_c, 3, 50, 0
5, 14518, Note_on_c, 3, 62, 0
5, 14522, Control_c, 3, 11, 83
5, 14528, Note_on_c, 3, 62, 90
5, 14528, Note_on_c, 3, 50, 90
5, 14542, Control_c, 3, 11, 84
5, 14561, Control_c, 3, 11, 85
5, 14580, Control_c, 3, 11, 86
5, 14599, Control_c, 3, 11, 87
5, 14618, Control_c, 3, 11, 88
5, 14637, Control_c, 3, 11, 89
5, 14638, Note_on_c, 3, 50, 0
5, 14638, Note_on_c, 3, 62, 0
5, 14648, Note_on_c, 3, 62, 90
5, 14648, Note_on_c, 3, 50, 90
5, 14657, Control_c, 3, 11, 90
5, 14676, Control_c, 3, 11, 91
5, 14695, Control_c, 3, 11, 92
5, 14714, Control_c, 3, 11, 93
5, 14733, Control_c, 3, 11, 94
5, 14752, Control_c, 3, 11, 95
5, 14758, Note_on_c, 3, 50, 0
5, 14758, Note_on_c, 3, 62, 0
5, 14768, Note_on_c, 3, 62, 90
5, 14768, Note_on_c, 3, 50, 90
5, 14772, Control_c, 3, 11, 96
5, 14791, Control_c, 3, 11, 97
5, 14810, Control_c, 3, 11, 98
5, 14829, Control_c, 3, 11, 99
5, 14848, Control_c, 3, 11, 100
5, 14867, Control_c, 3, 11, 101
5, 14878, Note_on_c, 3, 50, 0
5, 14878, Note_on_c, 3, 62, 0
5, 14887, Control_c, 3, 11, 102
5, 14888, Note_on_c, 3, 48, 100
5, 14888, Note_on_c, 3, 60, 100
5, 14948, Note_on_c, 3, 60, 0
5, 14948, Note_on_c, 3, 48, 0
5, 15128, Note_on_c, 3, 53, 100
5, 15188, Note_on_c, 3, 53, 0
5, 15368, Note_on_c, 3, 55, 100
5, 15428, Note_on_c, 3, 55, 0
5, 15608, Note_on_c, 3, 43, 100
5, 15668, Note_on_c, 3, 43, 0
5, 15848, Note_on_c, 3, 48, 100
5, 15898, Note_on_c, 3, 48, 0
5, 15908, Note_on_c, 3, 48, 100
5, 15958, Note_on_c, 3, 48, 0
5, 15968, Note_on_c, 3, 48, 100
5, 16018, Note_on_c, 3, 48, 0
5, 16028, Note_on_c, 3, 48, 100
5, 16078, Note_on_c, 3, 48, 0
5, 16088, Note_on_c, 3, 48, 100
5, 16138, Note_on_c, 3, 48, 0
5, 16148, Note_on_c, 3, 48, 100
5, 16198, Note_on_c, 3, 48, 0
5, 16208, Note_on_c, 3, 48, 100
5, 16258, Note_on_c, 3, 48, 0
5, 16268, Note_on_c, 3, 48, 100
5, 16318, Note_on_c, 3, 48, 0
5, 16328, Note_on_c, 3, 48, 100
5, 16378, Note_on_c, 3, 48, 0
5, 16388, Note_on_c, 3, 48, 100
5, 16438, Note_on_c, 3, 48, 0
5, 16448, Note_on_c, 3, 48, 100
5, 16498, Note_on_c, 3, 48, 0
5, 16508, Note_on_c, 3, 48, 100
5, 16558, Note_on_c, 3, 48, 0
5, 16568, Note_on_c, 3, 48, 100
5, 16618, Note_on_c, 3, 48, 0
5, 16628, Note_on_c, 3, 48, 100
5, 16678, Note_on_c, 3, 48, 0
5, 16688, Note_on_c, 3, 48, 100
5, 16738, Note_on_c, 3, 48, 0
5, 16748, Note_on_c, 3, 48, 100
5, 16798, Note_on_c, 3, 48, 0
5, 16808, Note_on_c, 3, 59, 105
5, 16808, Note_on_c, 3, 48, 100
5, 16858, Note_on_c, 3, 48, 0
5, 16868, Note_on_c, 3, 48, 100
5, 16918, Note_on_c, 3, 48, 0
5, 16928, Note_on_c, 3, 48, 100
5, 16978, Note_on_c, 3, 48, 0
5, 16988, Note_on_c, 3, 48, 100
5, 17038, Note_on_c, 3, 48, 0
5, 17048, Note_on_c, 3, 48, 100
5, 17098, Note_on_c, 3, 48, 0
5, 17108, Note_on_c, 3, 48, 100
5, 17158, Note_on_c, 3, 48, 0
5, 17168, Note_on_c, 3, 59, 0
5, 17168, Note_on_c, 3, 62, 114
5, 17168, Note_on_c, 3, 48, 100
5, 17218, Note_on_c, 3, 48, 0
5, 17228, Note_on_c, 3, 48, 100
5, 17278, Note_on_c, 3, 48, 0
5, 17288, Note_on_c, 3, 62, 0
5, 17288, Note_on_c, 3, 48, 100
5, 17288, Note_on_c, 3, 65, 117
5, 17338, Note_on_c, 3, 48, 0
5, 17348, Note_on_c, 3, 48, 100
5, 17398, Note_on_c, 3, 48, 0
5, 17408, Note_on_c, 3, 48, 100
5, 17458, Note_on_c, 3, 48, 0
5, 17468, Note_on_c, 3, 48, 100
5, 17518, Note_on_c, 3, 48, 0
5, 17528, Note_on_c, 3, 48, 100
5, 17578, Note_on_c, 3, 48, 0
5, 17588, Note_on_c, 3, 48, 100
5, 17638, Note_on_c, 3, 48, 0
5, 17638, Note_on_c, 3, 65, 0
5, 17648, Note_on_c, 3, 48, 100
5, 17648, Note_on_c, 3, 64, 117
5, 17678, Note_on_c, 3, 64, 0
5, 17678, Note_on_c, 3, 62, 117
5, 17698, Note_on_c, 3, 48, 0
5, 17708, Note_on_c, 3, 62, 0
5, 17708, Note_on_c, 3, 60, 117
5, 17708, Note_on_c, 3, 48, 100
5, 17738, Note_on_c, 3, 60, 0
5, 17738, Note_on_c, 3, 59, 117
5, 17758, Note_on_c, 3, 59, 0
5, 17758, Note_on_c, 3, 48, 0
5, 17768, Note_on_c, 3, 60, 117
5, 17768, Note_on_c, 3, 48, 100
5, 17818, Note_on_c, 3, 48, 0
5, 17828, Note_on_c, 3, 48, 100
5, 17878, Note_on_c, 3, 48, 0
5, 17888, Note_on_c, 3, 60, 0
5, 17888, Note_on_c, 3, 48, 100
5, 17938, Note_on_c, 3, 48, 0
5, 17948, Note_on_c, 3, 48, 100
5, 17998, Note_on_c, 3, 48, 0
5, 18008, Note_on_c, 3, 48, 100
5, 18058, Note_on_c, 3, 48, 0
5, 18068, Note_on_c, 3, 48, 100
5, 18118, Note_on_c, 3, 48, 0
5, 18128, Note_on_c, 3, 48, 100
5, 18178, Note_on_c, 3, 48, 0
5, 18188, Note_on_c, 3, 48, 100
5, 18238, Note_on_c, 3, 48, 0
5, 18248, Note_on_c, 3, 48, 100
5, 18298, Note_on_c, 3, 48, 0
5, 18308, Note_on_c, 3, 48, 100
5, 18358, Note_on_c, 3, 48, 0
5, 18368, Note_on_c, 3, 60, 100
5, 18368, Note_on_c, 3, 48, 100
5, 18418, Note_on_c, 3, 48, 0
5, 18428, Note_on_c, 3, 48, 100
5, 18478, Note_on_c, 3, 48, 0
5, 18478, Note_on_c, 3, 60, 0
5, 18488, Note_on_c, 3, 60, 100
5, 18488, Note_on_c, 3, 48, 100
5, 18538, Note_on_c, 3, 48, 0
5, 18548, Note_on_c, 3, 48, 100
5, 18598, Note_on_c, 3, 48, 0
5, 18598, Note_on_c, 3, 60, 0
5, 18608, Note_on_c, 3, 60, 100
5, 18608, Note_on_c, 3, 48, 100
5, 18658, Note_on_c, 3, 48, 0
5, 18668, Note_on_c, 3, 48, 100
5, 18718, Note_on_c, 3, 48, 0
5, 18718, Note_on_c, 3, 60, 0
5, 18728, Note_on_c, 3, 59, 115
5, 18728, Note_on_c, 3, 48, 100
5, 18778, Note_on_c, 3, 48, 0
5, 18788, Note_on_c, 3, 59, 0
5, 18788, Note_on_c, 3, 48, 100
5, 18788, Note_on_c, 3, 57, 115
5, 18838, Note_on_c, 3, 48, 0
5, 18848, Note_on_c, 3, 57, 0
5, 18848, Note_on_c, 3, 48, 100
5, 18848, Note_on_c, 3, 55, 115
5, 18898, Note_on_c, 3, 48, 0
5, 18908, Note_on_c, 3, 55, 0
5, 18908, Note_on_c, 3, 57, 115
5, 18908, Note_on_c, 3, 48, 100
5, 18958, Note_on_c, 3, 48, 0
5, 18968, Note_on_c, 3, 57, 0
5, 18968, Note_on_c, 3, 59, 115
5, 18968, Note_on_c, 3, 48, 100
5, 19018, Note_on_c, 3, 48, 0
5, 19028, Note_on_c, 3, 59, 0
5, 19028, Note_on_c, 3, 48, 100
5, 19028, Note_on_c, 3, 60, 115
5, 19078, Note_on_c, 3, 48, 0
5, 19088, Note_on_c, 3, 60, 0
5, 19088, Note_on_c, 3, 62, 115
5, 19088, Note_on_c, 3, 48, 100
5, 19138, Note_on_c, 3, 48, 0
5, 19148, Note_on_c, 3, 62, 0
5, 19148, Note_on_c, 3, 48, 100
5, 19148, Note_on_c, 3, 64, 115
5, 19198, Note_on_c, 3, 64, 0
5, 19198, Note_on_c, 3, 48, 0
5, 19208, Note_on_c, 3, 65, 115
5, 19208, Note_on_c, 3, 48, 100
5, 19258, Note_on_c, 3, 48, 0
5, 19268, Note_on_c, 3, 65, 0
5, 19268, Note_on_c, 3, 48, 100
5, 19268, Note_on_c, 3, 64, 115
5, 19318, Note_on_c, 3, 48, 0
5, 19328, Note_on_c, 3, 64, 0
5, 19328, Note_on_c, 3, 65, 115
5, 19328, Note_on_c, 3, 48, 100
5, 19378, Note_on_c, 3, 48, 0
5, 19388, Note_on_c, 3, 65, 0
5, 19388, Note_on_c, 3, 64, 115
5, 19388, Note_on_c, 3, 48, 100
5, 19438, Note_on_c, 3, 48, 0
5, 19448, Note_on_c, 3, 64, 0
5, 19448, Note_on_c, 3, 48, 100
5, 19448, Note_on_c, 3, 65, 115
5, 19498, Note_on_c, 3, 48, 0
5, 19508, Note_on_c, 3, 65, 0
5, 19508, Note_on_c, 3, 62, 115
5, 19508, Note_on_c, 3, 48, 100
5, 19558, Note_on_c, 3, 48, 0
5, 19568, Note_on_c, 3, 62, 0
5, 19568, Note_on_c, 3, 48, 100
5, 19568, Note_on_c, 3, 60, 115
5, 19618, Note_on_c, 3, 48, 0
5, 19628, Note_on_c, 3, 60, 0
5, 19628, Note_on_c, 3, 59, 115
5, 19628, Note_on_c, 3, 48, 100
5, 19678, Note_on_c, 3, 48, 0
5, 19678, Note_on_c, 3, 59, 0
5, 19688, Note_on_c, 3, 60, 115
5, 19688, Note_on_c, 3, 48, 100
5, 19808, Note_on_c, 3, 48, 0
5, 19808, Note_on_c, 3, 60, 0
5, 20048, Control_c, 3, 11, 87
5, 20048, Note_on_c, 3, 45, 100
5, 20078, Note_on_c, 3, 45, 0
5, 20108, Note_on_c, 3, 49, 100
5, 20138, Note_on_c, 3, 49, 0
5, 20168, Note_on_c, 3, 50, 100
5, 20288, Note_on_c, 3, 50, 0
5, 20528, Control_c, 3, 11, 87
5, 20528, Note_on_c, 3, 47, 100
5, 20558, Note_on_c, 3, 47, 0
5, 20588, Note_on_c, 3, 51, 100
5, 20600, Control_c, 3, 11, 88
5, 20618, Note_on_c, 3, 51, 0
5, 20648, Note_on_c, 3, 52, 100
5, 20672, Control_c, 3, 11, 89
5, 20698, Note_on_c, 3, 52, 0
5, 20708, Note_on_c, 3, 52, 100
5, 20744, Control_c, 3, 11, 90
5, 20758, Note_on_c, 3, 52, 0
5, 20768, Note_on_c, 3, 48, 100
5, 20816, Control_c, 3, 11, 91
5, 20818, Note_on_c, 3, 48, 0
5, 20828, Note_on_c, 3, 52, 100
5, 20878, Note_on_c, 3, 52, 0
5, 20888, Control_c, 3, 11, 92
5, 20888, Note_on_c, 3, 53, 100
5, 20938, Note_on_c, 3, 53, 0
5, 20948, Note_on_c, 3, 50, 100
5, 20960, Control_c, 3, 11, 93
5, 20998, Note_on_c, 3, 50, 0
5, 21008, Note_on_c, 3, 55, 100
5, 21032, Control_c, 3, 11, 94
5, 21058, Note_on_c, 3, 55, 0
5, 21068, Note_on_c, 3, 52, 100
5, 21104, Control_c, 3, 11, 95
5, 21118, Note_on_c, 3, 52, 0
5, 21128, Note_on_c, 3, 57, 100
5, 21176, Control_c, 3, 11, 96
5, 21178, Note_on_c, 3, 57, 0
5, 21188, Note_on_c, 3, 53, 100
5, 21238, Note_on_c, 3, 53, 0
5, 21248, Note_on_c, 3, 59, 100
5, 21248, Control_c, 3, 11, 97
5, 21298, Note_on_c, 3, 59, 0
5, 21308, Note_on_c, 3, 55, 100
5, 21320, Control_c, 3, 11, 98
5, 21358, Note_on_c, 3, 55, 0
5, 21368, Note_on_c, 3, 60, 100
5, 21392, Control_c, 3, 11, 99
5, 21418, Note_on_c, 3, 60, 0
5, 21428, Note_on_c, 3, 57, 100
5, 21464, Control_c, 3, 11, 100
5, 21478, Note_on_c, 3, 57, 0
5, 21488, Note_on_c, 3, 52, 100
5, 21536, Control_c, 3, 11, 101
5, 21538, Note_on_c, 3, 52, 0
5, 21548, Note_on_c, 3, 54, 100
5, 21598, Note_on_c, 3, 54, 0
5, 21608, Control_c, 3, 11, 102
5, 21608, Note_on_c, 3, 55, 100
5, 21728, Note_on_c, 3, 55, 0
5, 22148, Note_on_c, 3, 67, 100
5, 22178, Note_on_c, 3, 67, 0
5, 22208, Note_on_c, 3, 67, 100
5, 22238, Note_on_c, 3, 67, 0
5, 22268, Note_on_c, 3, 67, 100
5, 22298, Note_on_c, 3, 67, 0
5, 22328, Note_on_c, 3, 65, 100
5, 22388, Note_on_c, 3, 65, 0
5, 22388, Note_on_c, 3, 64, 100
5, 22438, Note_on_c, 3, 64, 0
5, 22448, Note_on_c, 3, 62, 100
5, 22478, Note_on_c, 3, 62, 0
5, 22508, Note_on_c, 3, 60, 100
5, 22538, Note_on_c, 3, 60, 0
5, 22568, Note_on_c, 3, 55, 100
5, 22688, Note_on_c, 3, 55, 0
5, 23108, Note_on_c, 3, 67, 100
5, 23138, Note_on_c, 3, 67, 0
5, 23168, Note_on_c, 3, 67, 100
5, 23198, Note_on_c, 3, 67, 0
5, 23228, Note_on_c, 3, 67, 100
5, 23258, Note_on_c, 3, 67, 0
5, 23288, Note_on_c, 3, 65, 100
5, 23348, Note_on_c, 3, 65, 0
5, 23348, Note_on_c, 3, 64, 100
5, 23398, Note_on_c, 3, 64, 0
5, 23408, Note_on_c, 3, 62, 100
5, 23438, Note_on_c, 3, 62, 0
5, 23468, Note_on_c, 3, 60, 100
5, 23498, Note_on_c, 3, 60, 0
5, 23528, Note_on_c, 3, 43, 100
5, 23528, Note_on_c, 3, 55, 100
5, 23648, Note_on_c, 3, 55, 0
5, 23648, Note_on_c, 3, 43, 0
5, 23648, Note_on_c, 3, 55, 100
5, 23648, Note_on_c, 3, 67, 100
5, 23768, Note_on_c, 3, 67, 0
5, 23768, Note_on_c, 3, 55, 0
5, 23888, Note_on_c, 3, 60, 100
5, 23888, Note_on_c, 3, 48, 100
5, 24008, Note_on_c, 3, 48, 0
5, 24008, Note_on_c, 3, 60, 0
5, 24128, Note_on_c, 3, 67, 100
5, 24128, Note_on_c, 3, 55, 100
5, 24248, Note_on_c, 3, 55, 0
5, 24248, Note_on_c, 3, 67, 0
5, 24368, Note_on_c, 3, 48, 100
5, 24368, Note_on_c, 3, 60, 100
5, 24488, Note_on_c, 3, 60, 0
5, 24488, Note_on_c, 3, 48, 0
5, 24488, Note_on_c, 3, 55, 100
5, 24488, Note_on_c, 3, 67, 100
5, 24608, Note_on_c, 3, 67, 0
5, 24608, Note_on_c, 3, 55, 0
5, 24728, Note_on_c, 3, 55, 100
5, 24848, Note_on_c, 3, 55, 0
5, 24968, Note_on_c, 3, 43, 100
5, 25088, Note_on_c, 3, 43, 0
5, 27608, Note_on_c, 3, 62, 100
5, 27608, Control_c, 3, 11, 77
5, 27622, Control_c, 3, 11, 74
5, 27636, Control_c, 3, 11, 71
5, 27651, Control_c, 3, 11, 68
5, 27665, Control_c, 3, 11, 65
5, 27668, Note_on_c, 3, 62, 0
5, 27668, Note_on_c, 3, 61, 100
5, 27680, Control_c, 3, 11, 62
5, 27694, Control_c, 3, 11, 59
5, 27708, Control_c, 3, 11, 56
5, 27723, Control_c, 3, 11, 53
5, 27728, Note_on_c, 3, 61, 0
5, 27728, Note_on_c, 3, 62, 100
5, 27788, Note_on_c, 3, 62, 0
5, 27788, Note_on_c, 3, 61, 100
5, 27838, Note_on_c, 3, 61, 0
5, 27848, Note_on_c, 3, 62, 100
5, 27968, Note_on_c, 3, 62, 0
5, 28088, Note_on_c, 3, 62, 100
5, 28088, Control_c, 3, 11, 77
5, 28102, Control_c, 3, 11, 74
5, 28116, Control_c, 3, 11, 71
5, 28131, Control_c, 3, 11, 68
5, 28145, Control_c, 3, 11, 65
5, 28148, Note_on_c, 3, 62, 0
5, 28148, Note_on_c, 3, 61, 100
5, 28160, Control_c, 3, 11, 62
5, 28174, Control_c, 3, 11, 59
5, 28188, Control_c, 3, 11, 56
5, 28203, Control_c, 3, 11, 53
5, 28208, Note_on_c, 3, 61, 0
5, 28208, Note_on_c, 3, 62, 100
5, 28268, Note_on_c, 3, 62, 0
5, 28268, Note_on_c, 3, 61, 100
5, 28318, Note_on_c, 3, 61, 0
5, 28328, Note_on_c, 3, 62, 100
5, 28448, Note_on_c, 3, 62, 0
5, 28448, Note_on_c, 3, 62, 100
5, 28568, Note_on_c, 3, 62, 0
5, 28568, Note_on_c, 3, 64, 100
5, 28688, Note_on_c, 3, 64, 0
5, 28688, Note_on_c, 3, 67, 100
5, 28798, Note_on_c, 3, 67, 0
5, 28808, Note_on_c, 3, 66, 100
5, 28928, Note_on_c, 3, 66, 0
5, 29288, Note_on_c, 3, 47, 100
5, 29348, Note_on_c, 3, 47, 0
5, 29408, Note_on_c, 3, 50, 100
5, 29468, Note_on_c, 3, 50, 0
5, 29528, Note_on_c, 3, 55, 100
5, 29588, Note_on_c, 3, 55, 0
5, 29648, Note_on_c, 3, 59, 100
5, 29708, Note_on_c, 3, 59, 0
5, 29768, Note_on_c, 3, 60, 100
5, 29888, Note_on_c, 3, 60, 0
5, 30248, Note_on_c, 3, 50, 100
5, 30308, Note_on_c, 3, 50, 0
5, 30368, Note_on_c, 3, 54, 100
5, 30428, Note_on_c, 3, 54, 0
5, 30488, Note_on_c, 3, 57, 100
5, 30548, Note_on_c, 3, 57, 0
5, 30608, Note_on_c, 3, 62, 100
5, 30668, Note_on_c, 3, 62, 0
5, 30728, Note_on_c, 3, 55, 100
5, 30848, Note_on_c, 3, 55, 0
5, 31208, Note_on_c, 3, 64, 100
5, 31208, Note_on_c, 3, 60, 100
5, 31328, Note_on_c, 3, 60, 0
5, 31328, Note_on_c, 3, 64, 0
5, 31328, Note_on_c, 3, 64, 100
5, 31328, Note_on_c, 3, 60, 100
5, 31448, Note_on_c, 3, 60, 0
5, 31448, Note_on_c, 3, 64, 0
5, 31448, Note_on_c, 3, 65, 100
5, 31448, Note_on_c, 3, 62, 100
5, 31448, Control_c, 3, 11, 77
5, 31467, Control_c, 3, 11, 75
5, 31486, Control_c, 3, 11, 73
5, 31505, Control_c, 3, 11, 71
5, 31524, Control_c, 3, 11, 69
5, 31544, Control_c, 3, 11, 67
5, 31563, Control_c, 3, 11, 65
5, 31582, Control_c, 3, 11, 63
5, 31601, Control_c, 3, 11, 61
5, 31620, Control_c, 3, 11, 59
5, 31640, Control_c, 3, 11, 57
5, 31659, Control_c, 3, 11, 55
5, 31678, Control_c, 3, 11, 53
5, 31798, Note_on_c, 3, 62, 0
5, 31798, Note_on_c, 3, 65, 0
5, 31808, Note_on_c, 3, 64, 100
5, 31808, Note_on_c, 3, 60, 100
5, 31928, Note_on_c, 3, 60, 0
5, 31928, Note_on_c, 3, 64, 0
5, 31928, Control_c, 3, 11, 77
5, 31928, Note_on_c, 3, 65, 100
5, 31928, Note_on_c, 3, 62, 100
5, 31947, Control_c, 3, 11, 75
5, 31966, Control_c, 3, 11, 73
5, 31985, Control_c, 3, 11, 71
5, 32004, Control_c, 3, 11, 69
5, 32024, Control_c, 3, 11, 67
5, 32043, Control_c, 3, 11, 65
5, 32062, Control_c, 3, 11, 63
5, 32081, Control_c, 3, 11, 61
5, 32100, Control_c, 3, 11, 59
5, 32120, Control_c, 3, 11, 57
5, 32139, Control_c, 3, 11, 55
5, 32158, Control_c, 3, 11, 53
5, 32278, Note_on_c, 3, 62, 0
5, 32278, Note_on_c, 3, 65, 0
5, 32288, Note_on_c, 3, 64, 100
5, 32288, Note_on_c, 3, 60, 100
5, 32408, Note_on_c, 3, 60, 0
5, 32408, Note_on_c, 3, 64, 0
5, 32408, Note_on_c, 3, 59, 100
5, 32408, Note_on_c, 3, 62, 100
5, 32528, Note_on_c, 3, 62, 0
5, 32528, Note_on_c, 3, 59, 0
5, 32528, Note_on_c, 3, 57, 100
5, 32528, Note_on_c, 3, 60, 100
5, 32638, Note_on_c, 3, 60, 0
5, 32638, Note_on_c, 3, 57, 0
5, 32648, Note_on_c, 3, 55, 100
5, 32648, Note_on_c, 3, 59, 100
5, 32888, Note_on_c, 3, 59, 0
5, 32888, Note_on_c, 3, 55, 0
5, 32888, Note_on_c, 3, 54, 100
5, 32888, Note_on_c, 3, 57, 100
5, 33108, Note_on_c, 3, 57, 0
5, 33108, Note_on_c, 3, 54, 0
5, 33128, Note_on_c, 3, 47, 100
5, 33128, Note_on_c, 3, 59, 100
5, 33128, Control_c, 3, 11, 87
5, 33248, Note_on_c, 3, 59, 0
5, 33248, Note_on_c, 3, 47, 0
5, 33368, Note_on_c, 3, 57, 100
5, 33368, Note_on_c, 3, 45, 100
5, 33488, Note_on_c, 3, 45, 0
5, 33488, Note_on_c, 3, 57, 0
5, 33608, Note_on_c, 3, 43, 100
5, 33608, Note_on_c, 3, 55, 100
5, 33728, Note_on_c, 3, 55, 0
5, 33728, Note_on_c, 3, 43, 0
5, 34088, Note_on_c, 3, 62, 100
5, 34088, Control_c, 3, 11, 107
5, 34112, Control_c, 3, 11, 105
5, 34136, Control_c, 3, 11, 103
5, 34160, Control_c, 3, 11, 101
5, 34184, Control_c, 3, 11, 99
5, 34208, Control_c, 3, 11, 97
5, 34232, Control_c, 3, 11, 95
5, 34256, Control_c, 3, 11, 93
5, 34280, Control_c, 3, 11, 91
5, 34304, Control_c, 3, 11, 89
5, 34318, Note_on_c, 3, 62, 0
5, 34328, Note_on_c, 3, 60, 100
5, 34328, Note_on_c, 3, 66, 100
5, 34328, Control_c, 3, 11, 107
5, 34352, Control_c, 3, 11, 105
5, 34376, Control_c, 3, 11, 103
5, 34400, Control_c, 3, 11, 101
5, 34424, Control_c, 3, 11, 99
5, 34448, Control_c, 3, 11, 97
5, 34472, Control_c, 3, 11, 95
5, 34496, Control_c, 3, 11, 93
5, 34520, Control_c, 3, 11, 91
5, 34544, Control_c, 3, 11, 89
5, 34558, Note_on_c, 3, 66, 0
5, 34558, Note_on_c, 3, 60, 0
5, 34568, Control_c, 3, 11, 107
5, 34568, Note_on_c, 3, 67, 100
5, 34568, Note_on_c, 3, 59, 100
5, 34586, Control_c, 3, 11, 104
5, 34604, Control_c, 3, 11, 101
5, 34622, Control_c, 3, 11, 98
5, 34640, Control_c, 3, 11, 95
5, 34658, Control_c, 3, 11, 92
5, 34676, Control_c, 3, 11, 89
5, 34688, Note_on_c, 3, 59, 0
5, 34688, Note_on_c, 3, 67, 0
5, 35048, Note_on_c, 3, 59, 100
5, 35048, Control_c, 3, 11, 107
5, 35066, Control_c, 3, 11, 105
5, 35084, Control_c, 3, 11, 103
5, 35102, Control_c, 3, 11, 101
5, 35120, Control_c, 3, 11, 99
5, 35138, Control_c, 3, 11, 97
5, 35156, Control_c, 3, 11, 95
5, 35174, Control_c, 3, 11, 93
5, 35192, Control_c, 3, 11, 91
5, 35210, Control_c, 3, 11, 89
5, 35218, Note_on_c, 3, 59, 0
5, 35228, Control_c, 3, 11, 87
5, 35228, Note_on_c, 3, 57, 100
5, 35278, Note_on_c, 3, 57, 0
5, 35288, Note_on_c, 3, 55, 100
5, 35338, Note_on_c, 3, 55, 0
5, 35348, Note_on_c, 3, 57, 100
5, 35398, Note_on_c, 3, 57, 0
5, 35408, Note_on_c, 3, 58, 100
5, 35458, Note_on_c, 3, 58, 0
5, 35468, Note_on_c, 3, 59, 100
5, 35518, Note_on_c, 3, 59, 0
5, 35528, Control_c, 3, 11, 107
5, 35528, Note_on_c, 3, 60, 100
5, 35546, Control_c, 3, 11, 105
5, 35564, Control_c, 3, 11, 103
5, 35582, Control_c, 3, 11, 101
5, 35600, Control_c, 3, 11, 99
5, 35618, Control_c, 3, 11, 97
5, 35636, Control_c, 3, 11, 95
5, 35654, Control_c, 3, 11, 93
5, 35672, Control_c, 3, 11, 91
5, 35690, Control_c, 3, 11, 89
5, 35698, Note_on_c, 3, 60, 0
5, 35708, Control_c, 3, 11, 87
5, 35708, Note_on_c, 3, 59, 100
5, 35758, Note_on_c, 3, 59, 0
5, 35768, Note_on_c, 3, 64, 100
5, 35818, Note_on_c, 3, 64, 0
5, 35828, Note_on_c, 3, 62, 100
5, 35878, Note_on_c, 3, 62, 0
5, 35888, Note_on_c, 3, 60, 100
5, 35938, Note_on_c, 3, 60, 0
5, 35948, Note_on_c, 3, 61, 100
5, 35998, Note_on_c, 3, 61, 0
5, 36008, Control_c, 3, 11, 87
5, 36008, Note_on_c, 3, 62, 100
5, 36040, Control_c, 3, 11, 88
5, 36058, Note_on_c, 3, 62, 0
5, 36068, Note_on_c, 3, 59, 100
5, 36072, Control_c, 3, 11, 89
5, 36104, Control_c, 3, 11, 90
5, 36118, Note_on_c, 3, 59, 0
5, 36128, Note_on_c, 3, 57, 100
5, 36136, Control_c, 3, 11, 91
5, 36168, Control_c, 3, 11, 92
5, 36178, Note_on_c, 3, 57, 0
5, 36188, Note_on_c, 3, 55, 100
5, 36200, Control_c, 3, 11, 93
5, 36232, Control_c, 3, 11, 94
5, 36238, Note_on_c, 3, 55, 0
5, 36248, Note_on_c, 3, 54, 100
5, 36264, Control_c, 3, 11, 95
5, 36296, Control_c, 3, 11, 96
5, 36298, Note_on_c, 3, 54, 0
5, 36308, Note_on_c, 3, 52, 100
5, 36328, Control_c, 3, 11, 97
5, 36358, Note_on_c, 3, 52, 0
5, 36360, Control_c, 3, 11, 98
5, 36368, Note_on_c, 3, 50, 100
5, 36392, Control_c, 3, 11, 99
5, 36418, Note_on_c, 3, 50, 0
5, 36424, Control_c, 3, 11, 100
5, 36428, Note_on_c, 3, 48, 100
5, 36456, Control_c, 3, 11, 101
5, 36478, Note_on_c, 3, 48, 0
5, 36488, Control_c, 3, 11, 102
5, 36488, Note_on_c, 3, 47, 100
5, 36548, Note_on_c, 3, 47, 0
5, 36608, Note_on_c, 3, 48, 100
5, 36668, Note_on_c, 3, 48, 0
5, 36728, Note_on_c, 3, 50, 100
5, 36788, Note_on_c, 3, 50, 0
5, 36848, Control_c, 3, 11, 87
5, 36848, Note_on_c, 3, 50, 100
5, 36866, Control_c, 3, 11, 84
5, 36884, Control_c, 3, 11, 81
5, 36902, Control_c, 3, 11, 78
5, 36908, Note_on_c, 3, 50, 0
5, 36920, Control_c, 3, 11, 75
5, 36938, Control_c, 3, 11, 72
5, 36956, Control_c, 3, 11, 69
5, 36968, Note_on_c, 3, 55, 100
5, 36978, Control_c, 3, 11, 66
5, 36998, Control_c, 3, 11, 64
5, 37018, Control_c, 3, 11, 62
5, 37038, Control_c, 3, 11, 60
5, 37058, Control_c, 3, 11, 58
5, 37078, Control_c, 3, 11, 56
5, 37098, Control_c, 3, 11, 54
5, 37118, Control_c, 3, 11, 52
5, 37138, Control_c, 3, 11, 50
5, 37158, Control_c, 3, 11, 48
5, 37178, Control_c, 3, 11, 46
5, 37198, Control_c, 3, 11, 44
5, 37218, Control_c, 3, 11, 42
5, 37238, Control_c, 3, 11, 40
5, 37258, Control_c, 3, 11, 38
5, 37268, Note_on_c, 3, 55, 0
5, 37268, Note_on_c, 3, 53, 100
5, 37328, Note_on_c, 3, 53, 0
5, 37328, Note_on_c, 3, 51, 100
5, 37388, Note_on_c, 3, 51, 0
5, 37388, Note_on_c, 3, 50, 100
5, 37438, Note_on_c, 3, 50, 0
5, 37448, Note_on_c, 3, 48, 100
5, 37568, Note_on_c, 3, 48, 0
5, 39368, Note_on_c, 3, 62, 100
5, 39368, Control_c, 3, 11, 27
5, 39377, Control_c, 3, 11, 30
5, 39387, Control_c, 3, 11, 33
5, 39396, Control_c, 3, 11, 36
5, 39406, Control_c, 3, 11, 39
5, 39415, Control_c, 3, 11, 42
5, 39450, Control_c, 3, 11, 45
5, 39477, Control_c, 3, 11, 46
5, 39505, Control_c, 3, 11, 47
5, 39532, Control_c, 3, 11, 48
5, 39560, Control_c, 3, 11, 49
5, 39587, Control_c, 3, 11, 51
5, 39614, Control_c, 3, 11, 52
5, 39642, Control_c, 3, 11, 53
5, 39669, Control_c, 3, 11, 55
5, 39697, Control_c, 3, 11, 56
5, 39724, Control_c, 3, 11, 57
5, 39752, Control_c, 3, 11, 59
5, 39779, Control_c, 3, 11, 60
5, 39806, Control_c, 3, 11, 61
5, 39834, Control_c, 3, 11, 63
5, 39861, Control_c, 3, 11, 64
5, 39889, Control_c, 3, 11, 65
5, 39916, Control_c, 3, 11, 67
5, 39944, Control_c, 3, 11, 68
5, 39971, Control_c, 3, 11, 69
5, 39998, Control_c, 3, 11, 71
5, 40026, Control_c, 3, 11, 72
5, 40053, Control_c, 3, 11, 73
5, 40081, Control_c, 3, 11, 75
5, 40108, Control_c, 3, 11, 76
5, 40136, Control_c, 3, 11, 77
5, 40163, Control_c, 3, 11, 79
5, 40190, Control_c, 3, 11, 80
5, 40208, Note_on_c, 3, 62, 0
5, 40208, Note_on_c, 3, 60, 100
5, 40218, Control_c, 3, 11, 81
5, 40245, Control_c, 3, 11, 83
5, 40268, Note_on_c, 3, 60, 0
5, 40268, Note_on_c, 3, 58, 100
5, 40273, Control_c, 3, 11, 84
5, 40300, Control_c, 3, 11, 85
5, 40318, Note_on_c, 3, 58, 0
5, 40328, Control_c, 3, 11, 87
5, 40328, Note_on_c, 3, 58, 100
5, 40343, Control_c, 3, 11, 85
5, 40359, Control_c, 3, 11, 84
5, 40373, Note_on_c, 3, 58, 0
5, 40373, Note_on_c, 3, 57, 100
5, 40375, Control_c, 3, 11, 83
5, 40391, Control_c, 3, 11, 81
5, 40407, Control_c, 3, 11, 80
5, 40418, Note_on_c, 3, 57, 0
5, 40423, Control_c, 3, 11, 79
5, 40439, Control_c, 3, 11, 77
5, 40448, Note_on_c, 3, 57, 100
5, 40455, Control_c, 3, 11, 76
5, 40471, Control_c, 3, 11, 75
5, 40487, Control_c, 3, 11, 73
5, 40503, Control_c, 3, 11, 72
5, 40519, Control_c, 3, 11, 71
5, 40535, Control_c, 3, 11, 69
5, 40538, Note_on_c, 3, 57, 0
5, 40551, Control_c, 3, 11, 68
5, 40567, Control_c, 3, 11, 67
5, 40568, Note_on_c, 3, 57, 100
5, 40583, Control_c, 3, 11, 65
5, 40599, Control_c, 3, 11, 64
5, 40615, Control_c, 3, 11, 63
5, 40631, Control_c, 3, 11, 61
5, 40647, Control_c, 3, 11, 60
5, 40658, Note_on_c, 3, 57, 0
5, 40663, Control_c, 3, 11, 59
5, 40679, Control_c, 3, 11, 57
5, 40688, Note_on_c, 3, 57, 100
5, 40695, Control_c, 3, 11, 56
5, 40711, Control_c, 3, 11, 55
5, 40727, Control_c, 3, 11, 53
5, 40743, Control_c, 3, 11, 52
5, 40759, Control_c, 3, 11, 51
5, 40775, Control_c, 3, 11, 49
5, 40778, Note_on_c, 3, 57, 0
5, 40791, Control_c, 3, 11, 48
5, 40807, Control_c, 3, 11, 47
5, 40808, Control_c, 3, 11, 42
5, 40808, Note_on_c, 3, 66, 100
5, 40808, Note_on_c, 3, 60, 100
5, 40840, Control_c, 3, 11, 43
5, 40872, Control_c, 3, 11, 44
5, 40904, Control_c, 3, 11, 45
5, 40936, Control_c, 3, 11, 46
5, 40968, Control_c, 3, 11, 47
5, 41000, Control_c, 3, 11, 48
5, 41032, Control_c, 3, 11, 49
5, 41064, Control_c, 3, 11, 50
5, 41096, Control_c, 3, 11, 51
5, 41128, Control_c, 3, 11, 52
5, 41160, Control_c, 3, 11, 53
5, 41192, Control_c, 3, 11, 54
5, 41224, Control_c, 3, 11, 55
5, 41256, Control_c, 3, 11, 56
5, 41288, Note_on_c, 3, 60, 0
5, 41288, Note_on_c, 3, 66, 0
5, 41288, Note_on_c, 3, 67, 100
5, 41288, Note_on_c, 3, 59, 100
5, 41288, Control_c, 3, 11, 57
5, 41320, Control_c, 3, 11, 58
5, 41352, Control_c, 3, 11, 59
5, 41384, Control_c, 3, 11, 60
5, 41416, Control_c, 3, 11, 61
5, 41448, Control_c, 3, 11, 62
5, 41480, Control_c, 3, 11, 63
5, 41512, Control_c, 3, 11, 64
5, 41544, Control_c, 3, 11, 65
5, 41576, Control_c, 3, 11, 66
5, 41608, Control_c, 3, 11, 67
5, 41640, Control_c, 3, 11, 68
5, 41672, Control_c, 3, 11, 69
5, 41704, Control_c, 3, 11, 70
5, 41736, Control_c, 3, 11, 71
5, 41768, Note_on_c, 3, 59, 0
5, 41768, Note_on_c, 3, 67, 0
5, 41768, Note_on_c, 3, 67, 100
5, 41768, Note_on_c, 3, 64, 100
5, 41768, Control_c, 3, 11, 72
5, 41800, Control_c, 3, 11, 73
5, 41832, Control_c, 3, 11, 74
5, 41864, Control_c, 3, 11, 75
5, 41896, Control_c, 3, 11, 76
5, 41928, Control_c, 3, 11, 77
5, 41960, Control_c, 3, 11, 78
5, 41992, Control_c, 3, 11, 79
5, 42008, Note_on_c, 3, 64, 0
5, 42008, Note_on_c, 3, 67, 0
5, 42008, Note_on_c, 3, 60, 100
5, 42008, Note_on_c, 3, 66, 100
5, 42024, Control_c, 3, 11, 80
5, 42056, Control_c, 3, 11, 81
5, 42088, Control_c, 3, 11, 82
5, 42120, Control_c, 3, 11, 83
5, 42152, Control_c, 3, 11, 84
5, 42184, Control_c, 3, 11, 85
5, 42216, Control_c, 3, 11, 86
5, 42238, Note_on_c, 3, 66, 0
5, 42238, Note_on_c, 3, 60, 0
5, 42248, Note_on_c, 3, 67, 100
5, 42248, Note_on_c, 3, 55, 100
5, 42248, Control_c, 3, 11, 97
5, 42272, Control_c, 3, 11, 95
5, 42296, Control_c, 3, 11, 93
5, 42320, Control_c, 3, 11, 91
5, 42344, Control_c, 3, 11, 89
5, 42368, Control_c, 3, 11, 87
5, 42598, Note_on_c, 3, 55, 0
5, 42598, Note_on_c, 3, 67, 0
5, 42608, Note_on_c, 3, 50, 100
5, 42608, Note_on_c, 3, 62, 100
5, 42698, Note_on_c, 3, 62, 0
5, 42698, Note_on_c, 3, 50, 0
5, 42698, Note_on_c, 3, 66, 100
5, 42698, Note_on_c, 3, 54, 100
5, 42718, Note_on_c, 3, 54, 0
5, 42718, Note_on_c, 3, 66, 0
5, 42728, Control_c, 3, 11, 107
5, 42728, Note_on_c, 3, 67, 100
5, 42728, Note_on_c, 3, 55, 100
5, 42752, Control_c, 3, 11, 105
5, 42776, Control_c, 3, 11, 103
5, 42800, Control_c, 3, 11, 101
5, 42824, Control_c, 3, 11, 99
5, 42848, Control_c, 3, 11, 97
5, 42872, Control_c, 3, 11, 95
5, 42896, Control_c, 3, 11, 93
5, 42920, Control_c, 3, 11, 91
5, 42944, Control_c, 3, 11, 89
5, 42968, Control_c, 3, 11, 87
5, 43078, Note_on_c, 3, 55, 0
5, 43078, Note_on_c, 3, 67, 0
5, 43088, Note_on_c, 3, 50, 100
5, 43088, Note_on_c, 3, 62, 100
5, 43178, Note_on_c, 3, 62, 0
5, 43178, Note_on_c, 3, 50, 0
5, 43178, Note_on_c, 3, 54, 100
5, 43178, Note_on_c, 3, 66, 100
5, 43198, Note_on_c, 3, 66, 0
5, 43198, Note_on_c, 3, 54, 0
5, 43208, Note_on_c, 3, 55, 100
5, 43208, Note_on_c, 3, 67, 100
5, 43208, Control_c, 3, 11, 107
5, 43226, Control_c, 3, 11, 104
5, 43244, Control_c, 3, 11, 101
5, 43262, Control_c, 3, 11, 98
5, 43280, Control_c, 3, 11, 95
5, 43298, Control_c, 3, 11, 92
5, 43316, Control_c, 3, 11, 89
5, 43328, Note_on_c, 3, 67, 0
5, 43328, Note_on_c, 3, 55, 0
5, 43448, Control_c, 3, 11, 107
5, 43448, Note_on_c, 3, 50, 100
5, 43465, Control_c, 3, 11, 104
5, 43483, Control_c, 3, 11, 101
5, 43501, Control_c, 3, 11, 98
5, 43519, Control_c, 3, 11, 95
5, 43537, Control_c, 3, 11, 92
5, 43555, Control_c, 3, 11, 89
5, 43568, Note_on_c, 3, 50, 0
5, 43688, Note_on_c, 3, 55, 100
5, 43688, Control_c, 3, 11, 107
5, 43705, Control_c, 3, 11, 104
5, 43723, Control_c, 3, 11, 101
5, 43741, Control_c, 3, 11, 98
5, 43759, Control_c, 3, 11, 95
5, 43777, Control_c, 3, 11, 92
5, 43795, Control_c, 3, 11, 89
5, 43808, Note_on_c, 3, 55, 0
5, 43928, Note_on_c, 3, 57, 100
5, 43928, Control_c, 3, 11, 107
5, 43945, Control_c, 3, 11, 104
5, 43963, Control_c, 3, 11, 101
5, 43981, Control_c, 3, 11, 98
5, 43999, Control_c, 3, 11, 95
5, 44017, Control_c, 3, 11, 92
5, 44035, Control_c, 3, 11, 89
5, 44048, Note_on_c, 3, 57, 0
5, 44168, Note_on_c, 3, 62, 100
5, 44168, Note_on_c, 3, 59, 100
5, 44168, Control_c, 3, 11, 87
5, 44638, Note_on_c, 3, 59, 0
5, 44638, Note_on_c, 3, 62, 0
5, 44648, Note_on_c, 3, 60, 100
5, 44648, Note_on_c, 3, 57, 100
5, 45118, Note_on_c, 3, 57, 0
5, 45118, Note_on_c, 3, 60, 0
5, 45128, Control_c, 3, 11, 102
5, 45128, Note_on_c, 3, 59, 100
5, 45128, Note_on_c, 3, 56, 100
5, 45598, Note_on_c, 3, 56, 0
5, 45598, Note_on_c, 3, 59, 0
5, 45608, Note_on_c, 3, 65, 100
5, 45608, Note_on_c, 3, 50, 100
5, 45728, Note_on_c, 3, 65, 0
5, 45728, Note_on_c, 3, 62, 100
5, 45848, Note_on_c, 3, 62, 0
5, 45848, Note_on_c, 3, 59, 100
5, 45968, Note_on_c, 3, 59, 0
5, 45968, Note_on_c, 3, 56, 100
5, 46078, Note_on_c, 3, 56, 0
5, 46088, Note_on_c, 3, 50, 0
5, 46088, Note_on_c, 3, 48, 100
5, 46088, Note_on_c, 3, 57, 100
5, 46198, Note_on_c, 3, 57, 0
5, 46198, Note_on_c, 3, 48, 0
5, 46208, Note_on_c, 3, 64, 100
5, 46208, Note_on_c, 3, 60, 100
5, 46318, Note_on_c, 3, 60, 0
5, 46318, Note_on_c, 3, 64, 0
5, 46328, Note_on_c, 3, 60, 100
5, 46328, Note_on_c, 3, 64, 100
5, 46438, Note_on_c, 3, 64, 0
5, 46438, Note_on_c, 3, 60, 0
5, 46448, Note_on_c, 3, 64, 100
5, 46448, Note_on_c, 3, 60, 100
5, 46558, Note_on_c, 3, 60, 0
5, 46558, Note_on_c, 3, 64, 0
5, 46568, Note_on_c, 3, 64, 100
5, 46568, Note_on_c, 3, 61, 100
5, 46688, Note_on_c, 3, 61, 0
5, 46688, Note_on_c, 3, 64, 0
5, 46688, Note_on_c, 3, 55, 100
5, 46688, Note_on_c, 3, 67, 100
5, 46808, Note_on_c, 3, 67, 0
5, 46808, Note_on_c, 3, 55, 0
5, 46808, Note_on_c, 3, 64, 100
5, 46808, Note_on_c, 3, 52, 100
5, 46928, Note_on_c, 3, 52, 0
5, 46928, Note_on_c, 3, 64, 0
5, 46928, Note_on_c, 3, 61, 100
5, 46928, Note_on_c, 3, 49, 100
5, 47038, Note_on_c, 3, 49, 0
5, 47038, Note_on_c, 3, 61, 0
5, 47048, Note_on_c, 3, 50, 100
5, 47048, Note_on_c, 3, 62, 100
5, 47048, Control_c, 3, 11, 122
5, 47065, Control_c, 3, 11, 119
5, 47083, Control_c, 3, 11, 116
5, 47101, Control_c, 3, 11, 113
5, 47119, Control_c, 3, 11, 110
5, 47137, Control_c, 3, 11, 107
5, 47155, Control_c, 3, 11, 104
5, 47278, Note_on_c, 3, 62, 0
5, 47278, Note_on_c, 3, 50, 0
5, 47288, Control_c, 3, 11, 122
5, 47288, Note_on_c, 3, 64, 100
5, 47288, Note_on_c, 3, 52, 100
5, 47305, Control_c, 3, 11, 119
5, 47323, Control_c, 3, 11, 116
5, 47341, Control_c, 3, 11, 113
5, 47359, Control_c, 3, 11, 110
5, 47377, Control_c, 3, 11, 107
5, 47395, Control_c, 3, 11, 104
5, 47518, Note_on_c, 3, 52, 0
5, 47518, Note_on_c, 3, 64, 0
5, 47528, Note_on_c, 3, 48, 100
5, 47528, Note_on_c, 3, 60, 100
5, 47528, Control_c, 3, 11, 122
5, 47545, Control_c, 3, 11, 119
5, 47563, Control_c, 3, 11, 116
5, 47581, Control_c, 3, 11, 113
5, 47599, Control_c, 3, 11, 110
5, 47617, Control_c, 3, 11, 107
5, 47635, Control_c, 3, 11, 104
5, 47758, Note_on_c, 3, 60, 0
5, 47758, Note_on_c, 3, 48, 0
5, 47768, Control_c, 3, 11, 122
5, 47768, Note_on_c, 3, 62, 100
5, 47768, Note_on_c, 3, 50, 100
5, 47785, Control_c, 3, 11, 119
5, 47803, Control_c, 3, 11, 116
5, 47821, Control_c, 3, 11, 113
5, 47839, Control_c, 3, 11, 110
5, 47857, Control_c, 3, 11, 107
5, 47875, Control_c, 3, 11, 104
5, 47948, Control_c, 3, 11, 87
5, 47961, Control_c, 3, 11, 84
5, 47975, Control_c, 3, 11, 81
5, 47988, Control_c, 3, 11, 78
5, 47998, Note_on_c, 3, 50, 0
5, 47998, Note_on_c, 3, 62, 0
5, 48002, Control_c, 3, 11, 75
5, 48008, Note_on_c, 3, 43, 100
5, 48008, Note_on_c, 3, 55, 100
5, 48015, Control_c, 3, 11, 72
5, 48029, Control_c, 3, 11, 69
5, 48042, Control_c, 3, 11, 66
5, 48056, Control_c, 3, 11, 63
5, 48069, Control_c, 3, 11, 60
5, 48083, Control_c, 3, 11, 57
5, 48096, Control_c, 3, 11, 54
5, 48110, Control_c, 3, 11, 51
5, 48118, Note_on_c, 3, 55, 0
5, 48118, Note_on_c, 3, 43, 0
5, 48123, Control_c, 3, 11, 48
5, 48128, Note_on_c, 3, 60, 100
5, 48128, Note_on_c, 3, 64, 100
5, 48248, Note_on_c, 3, 64, 0
5, 48248, Note_on_c, 3, 60, 0
5, 48248, Note_on_c, 3, 59, 100
5, 48248, Note_on_c, 3, 62, 100
5, 48368, Note_on_c, 3, 62, 0
5, 48368, Note_on_c, 3, 59, 0
5, 48368, Note_on_c, 3, 57, 100
5, 48368, Note_on_c, 3, 60, 100
5, 48488, Note_on_c, 3, 60, 0
5, 48488, Note_on_c, 3, 57, 0
5, 48488, Note_on_c, 3, 59, 100
5, 48488, Note_on_c, 3, 55, 100
5, 48608, Note_on_c, 3, 55, 0
5, 48608, Note_on_c, 3, 59, 0
5, 48608, Note_on_c, 3, 60, 100
5, 48608, Note_on_c, 3, 57, 100
5, 48728, Note_on_c, 3, 57, 0
5, 48728, Note_on_c, 3, 60, 0
5, 48728, Note_on_c, 3, 59, 100
5, 48728, Note_on_c, 3, 62, 100
5, 48838, Note_on_c, 3, 62, 0
5, 48838, Note_on_c, 3, 59, 0
5, 48848, Control_c, 3, 11, 97
5, 48848, Note_on_c, 3, 60, 100
5, 48848, Note_on_c, 3, 57, 100
5, 48855, Control_c, 3, 11, 94
5, 48862, Control_c, 3, 11, 91
5, 48869, Control_c, 3, 11, 88
5, 48876, Control_c, 3, 11, 85
5, 48883, Control_c, 3, 11, 82
5, 48890, Control_c, 3, 11, 79
5, 48897, Control_c, 3, 11, 76
5, 48905, Control_c, 3, 11, 73
5, 48912, Control_c, 3, 11, 70
5, 48919, Control_c, 3, 11, 67
5, 48926, Control_c, 3, 11, 64
5, 48933, Control_c, 3, 11, 61
5, 48940, Control_c, 3, 11, 58
5, 48947, Control_c, 3, 11, 55
5, 48955, Control_c, 3, 11, 52
5, 48962, Control_c, 3, 11, 49
5, 48968, Note_on_c, 3, 57, 0
5, 48968, Note_on_c, 3, 60, 0
5, 48968, Note_on_c, 3, 55, 100
5, 48968, Note_on_c, 3, 59, 100
5, 49088, Note_on_c, 3, 59, 0
5, 49088, Note_on_c, 3, 55, 0
5, 49088, Note_on_c, 3, 64, 100
5, 49088, Note_on_c, 3, 60, 100
5, 49208, Note_on_c, 3, 60, 0
5, 49208, Note_on_c, 3, 64, 0
5, 49208, Note_on_c, 3, 62, 100
5, 49208, Note_on_c, 3, 59, 100
5, 49328, Note_on_c, 3, 59, 0
5, 49328, Note_on_c, 3, 62, 0
5, 49328, Note_on_c, 3, 57, 100
5, 49328, Note_on_c, 3, 60, 100
5, 49448, Note_on_c, 3, 60, 0
5, 49448, Note_on_c, 3, 57, 0
5, 49448, Note_on_c, 3, 59, 100
5, 49448, Note_on_c, 3, 55, 100
5, 49568, Note_on_c, 3, 55, 0
5, 49568, Note_on_c, 3, 59, 0
5, 49568, Note_on_c, 3, 57, 100
5, 49568, Note_on_c, 3, 60, 100
5, 49688, Note_on_c, 3, 60, 0
5, 49688, Note_on_c, 3, 57, 0
5, 49688, Note_on_c, 3, 62, 100
5, 49688, Note_on_c, 3, 59, 100
5, 49798, Note_on_c, 3, 59, 0
5, 49798, Note_on_c, 3, 62, 0
5, 49808, Control_c, 3, 11, 97
5, 49808, Note_on_c, 3, 60, 100
5, 49808, Note_on_c, 3, 57, 100
5, 49815, Control_c, 3, 11, 94
5, 49822, Control_c, 3, 11, 91
5, 49829, Control_c, 3, 11, 88
5, 49836, Control_c, 3, 11, 85
5, 49843, Control_c, 3, 11, 82
5, 49850, Control_c, 3, 11, 79
5, 49857, Control_c, 3, 11, 76
5, 49865, Control_c, 3, 11, 73
5, 49872, Control_c, 3, 11, 70
5, 49879, Control_c, 3, 11, 67
5, 49886, Control_c, 3, 11, 64
5, 49893, Control_c, 3, 11, 61
5, 49900, Control_c, 3, 11, 58
5, 49907, Control_c, 3, 11, 55
5, 49915, Control_c, 3, 11, 52
5, 49922, Control_c, 3, 11, 49
5, 49928, Note_on_c, 3, 57, 0
5, 49928, Note_on_c, 3, 60, 0
5, 49928, Note_on_c, 3, 55, 100
5, 49928, Note_on_c, 3, 59, 100
5, 49988, Note_on_c, 3, 59, 0
5, 49988, Note_on_c, 3, 55, 0
5, 50048, Note_on_c, 3, 64, 100
5, 50048, Note_on_c, 3, 60, 100
5, 50168, Note_on_c, 3, 60, 0
5, 50168, Note_on_c, 3, 64, 0
5, 50168, Note_on_c, 3, 62, 100
5, 50168, Note_on_c, 3, 59, 100
5, 50288, Note_on_c, 3, 59, 0
5, 50288, Note_on_c, 3, 62, 0
5, 50288, Control_c, 3, 11, 97
5, 50288, Note_on_c, 3, 57, 100
5, 50288, Note_on_c, 3, 60, 100
5, 50295, Control_c, 3, 11, 94
5, 50302, Control_c, 3, 11, 91
5, 50309, Control_c, 3, 11, 88
5, 50316, Control_c, 3, 11, 85
5, 50323, Control_c, 3, 11, 82
5, 50330, Control_c, 3, 11, 79
5, 50337, Control_c, 3, 11, 76
5, 50345, Control_c, 3, 11, 73
5, 50352, Control_c, 3, 11, 70
5, 50359, Control_c, 3, 11, 67
5, 50366, Control_c, 3, 11, 64
5, 50373, Control_c, 3, 11, 61
5, 50380, Control_c, 3, 11, 58
5, 50387, Control_c, 3, 11, 55
5, 50395, Control_c, 3, 11, 52
5, 50402, Control_c, 3, 11, 49
5, 50408, Note_on_c, 3, 60, 0
5, 50408, Note_on_c, 3, 57, 0
5, 50408, Note_on_c, 3, 55, 100
5, 50408, Note_on_c, 3, 59, 100
5, 50468, Note_on_c, 3, 59, 0
5, 50468, Note_on_c, 3, 55, 0
5, 50528, Note_on_c, 3, 60, 100
5, 50528, Note_on_c, 3, 64, 100
5, 50648, Note_on_c, 3, 64, 0
5, 50648, Note_on_c, 3, 60, 0
5, 50648, Note_on_c, 3, 59, 100
5, 50648, Note_on_c, 3, 62, 100
5, 50768, Note_on_c, 3, 62, 0
5, 50768, Note_on_c, 3, 59, 0
5, 50768, Note_on_c, 3, 57, 100
5, 50768, Note_on_c, 3, 60, 100
5, 50768, Control_c, 3, 11, 102
5, 50888, Note_on_c, 3, 60, 0
5, 50888, Note_on_c, 3, 57, 0
5, 50888, Note_on_c, 3, 59, 100
5, 50888, Note_on_c, 3, 55, 100
5, 51008, Control_c, 3, 11, 102
5, 51023, Control_c, 3, 11, 101
5, 51039, Control_c, 3, 11, 100
5, 51055, Control_c, 3, 11, 99
5, 51071, Control_c, 3, 11, 98
5, 51087, Control_c, 3, 11, 97
5, 51103, Control_c, 3, 11, 96
5, 51119, Control_c, 3, 11, 95
5, 51128, Note_on_c, 3, 55, 0
5, 51128, Note_on_c, 3, 59, 0
5, 51128, Note_on_c, 3, 55, 100
5, 51128, Note_on_c, 3, 67, 100
5, 51135, Control_c, 3, 11, 94
5, 51151, Control_c, 3, 11, 93
5, 51167, Control_c, 3, 11, 92
5, 51183, Control_c, 3, 11, 91
5, 51199, Control_c, 3, 11, 90
5, 51215, Control_c, 3, 11, 89
5, 51231, Control_c, 3, 11, 88
5, 51247, Control_c, 3, 11, 87
5, 51265, Control_c, 3, 11, 86
5, 51282, Control_c, 3, 11, 85
5, 51299, Control_c, 3, 11, 84
5, 51316, Control_c, 3, 11, 83
5, 51333, Control_c, 3, 11, 82
5, 51350, Control_c, 3, 11, 81
5, 51367, Control_c, 3, 11, 80
5, 51368, Note_on_c, 3, 67, 0
5, 51368, Note_on_c, 3, 55, 0
5, 51368, Note_on_c, 3, 53, 100
5, 51368, Note_on_c, 3, 65, 100
5, 51384, Control_c, 3, 11, 79
5, 51402, Control_c, 3, 11, 78
5, 51419, Control_c, 3, 11, 77
5, 51436, Control_c, 3, 11, 76
5, 51453, Control_c, 3, 11, 75
5, 51470, Control_c, 3, 11, 74
5, 51487, Control_c, 3, 11, 73
5, 51504, Control_c, 3, 11, 72
5, 51521, Control_c, 3, 11, 71
5, 51538, Control_c, 3, 11, 70
5, 51556, Control_c, 3, 11, 69
5, 51573, Control_c, 3, 11, 68
5, 51590, Control_c, 3, 11, 67
5, 51607, Control_c, 3, 11, 66
5, 51608, Note_on_c, 3, 65, 0
5, 51608, Note_on_c, 3, 53, 0
5, 51608, Note_on_c, 3, 50, 100
5, 51608, Note_on_c, 3, 62, 100
5, 51624, Control_c, 3, 11, 65
5, 51641, Control_c, 3, 11, 64
5, 51658, Control_c, 3, 11, 63
5, 51675, Control_c, 3, 11, 62
5, 51692, Control_c, 3, 11, 61
5, 51710, Control_c, 3, 11, 60
5, 51727, Control_c, 3, 11, 59
5, 51744, Control_c, 3, 11, 58
5, 51761, Control_c, 3, 11, 57
5, 51778, Control_c, 3, 11, 56
5, 51795, Control_c, 3, 11, 55
5, 51812, Control_c, 3, 11, 54
5, 51829, Control_c, 3, 11, 53
5, 51847, Control_c, 3, 11, 52
5, 51848, Note_on_c, 3, 62, 0
5, 51848, Note_on_c, 3, 50, 0
5, 51848, Note_on_c, 3, 59, 100
5, 51848, Note_on_c, 3, 47, 100
5, 51911, Control_c, 3, 11, 51
5, 51975, Control_c, 3, 11, 50
5, 52039, Control_c, 3, 11, 49
5, 52088, Note_on_c, 3, 47, 0
5, 52088, Note_on_c, 3, 59, 0
5, 52088, Note_on_c, 3, 55, 100
5, 52088, Note_on_c, 3, 43, 100
5, 52103, Control_c, 3, 11, 48
5, 52167, Control_c, 3, 11, 47
5, 52231, Control_c, 3, 11, 46
5, 52295, Control_c, 3, 11, 45
5, 52328, Note_on_c, 3, 43, 0
5, 52328, Note_on_c, 3, 55, 0
5, 52328, Note_on_c, 3, 53, 100
5, 52328, Note_on_c, 3, 41, 100
5, 52359, Control_c, 3, 11, 44
5, 52423, Control_c, 3, 11, 43
5, 52487, Control_c, 3, 11, 42
5, 52551, Control_c, 3, 11, 41
5, 52568, Note_on_c, 3, 41, 0
5, 52568, Note_on_c, 3, 53, 0
5, 52568, Note_on_c, 3, 38, 100
5, 52568, Note_on_c, 3, 50, 100
5, 52615, Control_c, 3, 11, 40
5, 52679, Control_c, 3, 11, 39
5, 52743, Control_c, 3, 11, 38
5, 52807, Control_c, 3, 11, 37
5, 52808, Note_on_c, 3, 50, 0
5, 52808, Note_on_c, 3, 38, 0
5, 52808, Note_on_c, 3, 60, 100
5, 52808, Note_on_c, 3, 48, 100
5, 52868, Control_c, 3, 11, 47
5, 52875, Control_c, 3, 11, 44
5, 52882, Control_c, 3, 11, 41
5, 52889, Control_c, 3, 11, 38
5, 52896, Control_c, 3, 11, 35
5, 52903, Control_c, 3, 11, 32
5, 52910, Control_c, 3, 11, 29
5, 52917, Control_c, 3, 11, 26
5, 52924, Control_c, 3, 11, 23
5, 52928, Note_on_c, 3, 48, 0
5, 52928, Note_on_c, 3, 60, 0
5, 54728, Control_c, 3, 11, 32
5, 54728, Note_on_c, 3, 67, 80
5, 54728, Note_on_c, 3, 60, 80
5, 54739, Control_c, 3, 11, 35
5, 54750, Control_c, 3, 11, 38
5, 54761, Control_c, 3, 11, 41
5, 54773, Control_c, 3, 11, 44
5, 54784, Control_c, 3, 11, 47
5, 54824, Control_c, 3, 11, 50
5, 54856, Control_c, 3, 11, 51
5, 54888, Control_c, 3, 11, 52
5, 54920, Control_c, 3, 11, 53
5, 54952, Control_c, 3, 11, 54
5, 54984, Control_c, 3, 11, 55
5, 55016, Control_c, 3, 11, 56
5, 55048, Control_c, 3, 11, 57
5, 55080, Control_c, 3, 11, 58
5, 55112, Control_c, 3, 11, 59
5, 55144, Control_c, 3, 11, 60
5, 55176, Control_c, 3, 11, 61
5, 55208, Note_on_c, 3, 60, 0
5, 55208, Control_c, 3, 11, 62
5, 55208, Note_on_c, 3, 57, 80
5, 55240, Control_c, 3, 11, 63
5, 55272, Control_c, 3, 11, 64
5, 55304, Control_c, 3, 11, 65
5, 55336, Control_c, 3, 11, 66
5, 55368, Control_c, 3, 11, 67
5, 55400, Control_c, 3, 11, 68
5, 55432, Control_c, 3, 11, 69
5, 55464, Control_c, 3, 11, 70
5, 55496, Control_c, 3, 11, 71
5, 55528, Control_c, 3, 11, 72
5, 55560, Control_c, 3, 11, 73
5, 55592, Control_c, 3, 11, 74
5, 55624, Control_c, 3, 11, 75
5, 55648, Control_c, 3, 11, 77
5, 55656, Control_c, 3, 11, 74
5, 55664, Control_c, 3, 11, 71
5, 55672, Control_c, 3, 11, 68
5, 55680, Control_c, 3, 11, 65
5, 55688, Note_on_c, 3, 57, 0
5, 55688, Note_on_c, 3, 67, 0
5, 55688, Control_c, 3, 11, 62
5, 55688, Note_on_c, 3, 50, 64
5, 55688, Note_on_c, 3, 65, 64
5, 55808, Note_on_c, 3, 65, 0
5, 55808, Note_on_c, 3, 50, 0
5, 57608, Control_c, 3, 11, 32
5, 57608, Note_on_c, 3, 50, 80
5, 57608, Note_on_c, 3, 62, 80
5, 57627, Control_c, 3, 11, 35
5, 57646, Control_c, 3, 11, 38
5, 57665, Control_c, 3, 11, 41
5, 57692, Control_c, 3, 11, 43
5, 57713, Control_c, 3, 11, 44
5, 57734, Control_c, 3, 11, 45
5, 57755, Control_c, 3, 11, 46
5, 57776, Control_c, 3, 11, 47
5, 57796, Control_c, 3, 11, 48
5, 57817, Control_c, 3, 11, 49
5, 57838, Control_c, 3, 11, 50
5, 57859, Control_c, 3, 11, 51
5, 57880, Control_c, 3, 11, 52
5, 57900, Control_c, 3, 11, 53
5, 57921, Control_c, 3, 11, 54
5, 57942, Control_c, 3, 11, 55
5, 57963, Control_c, 3, 11, 56
5, 57984, Control_c, 3, 11, 57
5, 58004, Control_c, 3, 11, 58
5, 58025, Control_c, 3, 11, 59
5, 58046, Control_c, 3, 11, 60
5, 58067, Control_c, 3, 11, 61
5, 58088, Note_on_c, 3, 62, 0
5, 58088, Note_on_c, 3, 50, 0
5, 58088, Control_c, 3, 11, 62
5, 58088, Note_on_c, 3, 48, 80
5, 58088, Note_on_c, 3, 60, 80
5, 58120, Control_c, 3, 11, 63
5, 58152, Control_c, 3, 11, 64
5, 58184, Control_c, 3, 11, 65
5, 58216, Control_c, 3, 11, 66
5, 58248, Control_c, 3, 11, 67
5, 58280, Control_c, 3, 11, 68
5, 58312, Control_c, 3, 11, 69
5, 58344, Control_c, 3, 11, 70
5, 58376, Control_c, 3, 11, 71
5, 58408, Control_c, 3, 11, 72
5, 58440, Control_c, 3, 11, 73
5, 58472, Control_c, 3, 11, 74
5, 58504, Control_c, 3, 11, 75
5, 58536, Control_c, 3, 11, 76
5, 58568, Note_on_c, 3, 60, 0
5, 58568, Note_on_c, 3, 48, 0
5, 58568, Note_on_c, 3, 59, 100
5, 58568, Note_on_c, 3, 47, 100
5, 58568, Control_c, 3, 11, 87
5, 58586, Control_c, 3, 11, 84
5, 58604, Control_c, 3, 11, 81
5, 58622, Control_c, 3, 11, 78
5, 58640, Control_c, 3, 11, 75
5, 58658, Control_c, 3, 11, 72
5, 58676, Control_c, 3, 11, 69
5, 58695, Control_c, 3, 11, 66
5, 58716, Control_c, 3, 11, 63
5, 58731, Control_c, 3, 11, 61
5, 58752, Control_c, 3, 11, 58
5, 58774, Control_c, 3, 11, 55
5, 58795, Control_c, 3, 11, 52
5, 58817, Control_c, 3, 11, 49
5, 58838, Control_c, 3, 11, 46
5, 58860, Control_c, 3, 11, 43
5, 58881, Control_c, 3, 11, 40
5, 58903, Note_on_c, 3, 47, 0
5, 58903, Note_on_c, 3, 59, 0
5, 58903, Control_c, 3, 11, 37
5, 59408, Note_on_c, 3, 43, 100
5, 59408, Note_on_c, 3, 55, 100
5, 59408, Control_c, 3, 11, 77
5, 59498, Note_on_c, 3, 55, 0
5, 59498, Note_on_c, 3, 43, 0
5, 59498, Note_on_c, 3, 59, 100
5, 59498, Note_on_c, 3, 47, 100
5, 59528, Note_on_c, 3, 47, 0
5, 59528, Note_on_c, 3, 59, 0
5, 59528, Control_c, 3, 11, 97
5, 59528, Note_on_c, 3, 50, 100
5, 59528, Note_on_c, 3, 62, 100
5, 59546, Control_c, 3, 11, 94
5, 59564, Control_c, 3, 11, 91
5, 59582, Control_c, 3, 11, 88
5, 59600, Control_c, 3, 11, 85
5, 59618, Control_c, 3, 11, 82
5, 59636, Control_c, 3, 11, 79
5, 59653, Control_c, 3, 11, 76
5, 59669, Control_c, 3, 11, 73
5, 59685, Control_c, 3, 11, 70
5, 59701, Control_c, 3, 11, 67
5, 59717, Control_c, 3, 11, 64
5, 59734, Control_c, 3, 11, 61
5, 59750, Control_c, 3, 11, 58
5, 59766, Control_c, 3, 11, 55
5, 59782, Control_c, 3, 11, 52
5, 59798, Control_c, 3, 11, 49
5, 59814, Control_c, 3, 11, 46
5, 59830, Control_c, 3, 11, 43
5, 59846, Control_c, 3, 11, 40
5, 59863, Note_on_c, 3, 62, 0
5, 59863, Note_on_c, 3, 50, 0
5, 59863, Control_c, 3, 11, 37
5, 60368, Note_on_c, 3, 59, 100
5, 60368, Note_on_c, 3, 47, 100
5, 60368, Control_c, 3, 11, 77
5, 60458, Note_on_c, 3, 47, 0
5, 60458, Note_on_c, 3, 59, 0
5, 60458, Note_on_c, 3, 62, 100
5, 60458, Note_on_c, 3, 50, 100
5, 60488, Note_on_c, 3, 50, 0
5, 60488, Note_on_c, 3, 62, 0
5, 60488, Control_c, 3, 11, 97
5, 60488, Note_on_c, 3, 62, 90
5, 60488, Note_on_c, 3, 50, 90
5, 60506, Control_c, 3, 11, 94
5, 60524, Control_c, 3, 11, 91
5, 60542, Control_c, 3, 11, 88
5, 60560, Control_c, 3, 11, 85
5, 60578, Control_c, 3, 11, 82
5, 60596, Control_c, 3, 11, 79
5, 60968, Control_c, 3, 11, 77
5, 60987, Control_c, 3, 11, 78
5, 61006, Control_c, 3, 11, 79
5, 61025, Control_c, 3, 11, 80
5, 61044, Control_c, 3, 11, 81
5, 61063, Control_c, 3, 11, 82
5, 61078, Note_on_c, 3, 50, 0
5, 61078, Note_on_c, 3, 62, 0
5, 61082, Control_c, 3, 11, 83
5, 61088, Note_on_c, 3, 50, 90
5, 61088, Note_on_c, 3, 62, 90
5, 61102, Control_c, 3, 11, 84
5, 61121, Control_c, 3, 11, 85
5, 61140, Control_c, 3, 11, 86
5, 61159, Control_c, 3, 11, 87
5, 61178, Control_c, 3, 11, 88
5, 61197, Control_c, 3, 11, 89
5, 61198, Note_on_c, 3, 62, 0
5, 61198, Note_on_c, 3, 50, 0
5, 61208, Note_on_c, 3, 50, 90
5, 61208, Note_on_c, 3, 62, 90
5, 61217, Control_c, 3, 11, 90
5, 61236, Control_c, 3, 11, 91
5, 61255, Control_c, 3, 11, 92
5, 61274, Control_c, 3, 11, 93
5, 61293, Control_c, 3, 11, 94
5, 61312, Control_c, 3, 11, 95
5, 61318, Note_on_c, 3, 62, 0
5, 61318, Note_on_c, 3, 50, 0
5, 61328, Note_on_c, 3, 62, 90
5, 61328, Note_on_c, 3, 50, 90
5, 61332, Control_c, 3, 11, 96
5, 61351, Control_c, 3, 11, 97
5, 61370, Control_c, 3, 11, 98
5, 61389, Control_c, 3, 11, 99
5, 61408, Control_c, 3, 11, 100
5, 61427, Control_c, 3, 11, 101
5, 61438, Note_on_c, 3, 50, 0
5, 61438, Note_on_c, 3, 62, 0
5, 61447, Control_c, 3, 11, 102
5, 61448, Note_on_c, 3, 60, 100
5, 61448, Note_on_c, 3, 48, 100
5, 61508, Note_on_c, 3, 48, 0
5, 61508, Note_on_c, 3, 60, 0
5, 61688, Note_on_c, 3, 53, 100
5, 61748, Note_on_c, 3, 53, 0
5, 61928, Note_on_c, 3, 55, 100
5, 61988, Note_on_c, 3, 55, 0
5, 62168, Note_on_c, 3, 43, 100
5, 62228, Note_on_c, 3, 43, 0
5, 62408, Note_on_c, 3, 48, 100
5, 62458, Note_on_c, 3, 48, 0
5, 62468, Note_on_c, 3, 48, 100
5, 62518, Note_on_c, 3, 48, 0
5, 62528, Note_on_c, 3, 48, 100
5, 62578, Note_on_c, 3, 48, 0
5, 62588, Note_on_c, 3, 48, 100
5, 62638, Note_on_c, 3, 48, 0
5, 62648, Note_on_c, 3, 48, 100
5, 62698, Note_on_c, 3, 48, 0
5, 62708, Note_on_c, 3, 48, 100
5, 62758, Note_on_c, 3, 48, 0
5, 62768, Note_on_c, 3, 48, 100
5, 62818, Note_on_c, 3, 48, 0
5, 62828, Note_on_c, 3, 48, 100
5, 62878, Note_on_c, 3, 48, 0
5, 62888, Note_on_c, 3, 48, 100
5, 62938, Note_on_c, 3, 48, 0
5, 62948, Note_on_c, 3, 48, 100
5, 62998, Note_on_c, 3, 48, 0
5, 63008, Note_on_c, 3, 48, 100
5, 63058, Note_on_c, 3, 48, 0
5, 63068, Note_on_c, 3, 48, 100
5, 63118, Note_on_c, 3, 48, 0
5, 63128, Note_on_c, 3, 48, 100
5, 63178, Note_on_c, 3, 48, 0
5, 63188, Note_on_c, 3, 48, 100
5, 63238, Note_on_c, 3, 48, 0
5, 63248, Note_on_c, 3, 48, 100
5, 63298, Note_on_c, 3, 48, 0
5, 63308, Note_on_c, 3, 48, 100
5, 63358, Note_on_c, 3, 48, 0
5, 63368, Note_on_c, 3, 48, 100
5, 63368, Note_on_c, 3, 59, 110
5, 63418, Note_on_c, 3, 48, 0
5, 63428, Note_on_c, 3, 48, 100
5, 63478, Note_on_c, 3, 48, 0
5, 63488, Note_on_c, 3, 48, 100
5, 63538, Note_on_c, 3, 48, 0
5, 63548, Note_on_c, 3, 48, 100
5, 63598, Note_on_c, 3, 48, 0
5, 63608, Note_on_c, 3, 48, 100
5, 63658, Note_on_c, 3, 48, 0
5, 63668, Note_on_c, 3, 48, 100
5, 63718, Note_on_c, 3, 48, 0
5, 63728, Note_on_c, 3, 59, 0
5, 63728, Note_on_c, 3, 62, 115
5, 63728, Note_on_c, 3, 48, 100
5, 63778, Note_on_c, 3, 48, 0
5, 63788, Note_on_c, 3, 48, 100
5, 63838, Note_on_c, 3, 48, 0
5, 63848, Note_on_c, 3, 62, 0
5, 63848, Note_on_c, 3, 48, 100
5, 63848, Note_on_c, 3, 65, 117
5, 63898, Note_on_c, 3, 48, 0
5, 63908, Note_on_c, 3, 48, 100
5, 63958, Note_on_c, 3, 48, 0
5, 63968, Note_on_c, 3, 48, 100
5, 64018, Note_on_c, 3, 48, 0
5, 64028, Note_on_c, 3, 48, 100
5, 64078, Note_on_c, 3, 48, 0
5, 64088, Note_on_c, 3, 48, 100
5, 64138, Note_on_c, 3, 48, 0
5, 64148, Note_on_c, 3, 48, 100
5, 64198, Note_on_c, 3, 48, 0
5, 64198, Note_on_c, 3, 65, 0
5, 64208, Note_on_c, 3, 64, 110
5, 64208, Note_on_c, 3, 48, 100
5, 64238, Note_on_c, 3, 64, 0
5, 64238, Note_on_c, 3, 62, 111
5, 64258, Note_on_c, 3, 48, 0
5, 64268, Note_on_c, 3, 62, 0
5, 64268, Note_on_c, 3, 48, 100
5, 64268, Note_on_c, 3, 60, 113
5, 64298, Note_on_c, 3, 60, 0
5, 64298, Note_on_c, 3, 59, 115
5, 64318, Note_on_c, 3, 59, 0
5, 64318, Note_on_c, 3, 48, 0
5, 64328, Note_on_c, 3, 48, 100
5, 64328, Note_on_c, 3, 60, 117
5, 64378, Note_on_c, 3, 48, 0
5, 64388, Note_on_c, 3, 48, 100
5, 64438, Note_on_c, 3, 48, 0
5, 64448, Note_on_c, 3, 60, 0
5, 64448, Note_on_c, 3, 48, 100
5, 64498, Note_on_c, 3, 48, 0
5, 64508, Note_on_c, 3, 48, 100
5, 64558, Note_on_c, 3, 48, 0
5, 64568, Note_on_c, 3, 48, 100
5, 64618, Note_on_c, 3, 48, 0
5, 64628, Note_on_c, 3, 48, 100
5, 64678, Note_on_c, 3, 48, 0
5, 64688, Note_on_c, 3, 48, 100
5, 64738, Note_on_c, 3, 48, 0
5, 64748, Note_on_c, 3, 48, 100
5, 64798, Note_on_c, 3, 48, 0
5, 64808, Note_on_c, 3, 48, 100
5, 64858, Note_on_c, 3, 48, 0
5, 64868, Note_on_c, 3, 48, 100
5, 64918, Note_on_c, 3, 48, 0
5, 64928, Note_on_c, 3, 60, 100
5, 64928, Note_on_c, 3, 48, 100
5, 64978, Note_on_c, 3, 48, 0
5, 64988, Note_on_c, 3, 48, 100
5, 65038, Note_on_c, 3, 48, 0
5, 65038, Note_on_c, 3, 60, 0
5, 65048, Note_on_c, 3, 48, 100
5, 65048, Note_on_c, 3, 60, 100
5, 65098, Note_on_c, 3, 48, 0
5, 65108, Note_on_c, 3, 48, 100
5, 65158, Note_on_c, 3, 48, 0
5, 65158, Note_on_c, 3, 60, 0
5, 65168, Note_on_c, 3, 48, 100
5, 65168, Note_on_c, 3, 60, 100
5, 65218, Note_on_c, 3, 48, 0
5, 65228, Note_on_c, 3, 48, 100
5, 65278, Note_on_c, 3, 48, 0
5, 65278, Note_on_c, 3, 60, 0
5, 65288, Note_on_c, 3, 48, 100
5, 65288, Note_on_c, 3, 59, 117
5, 65338, Note_on_c, 3, 48, 0
5, 65348, Note_on_c, 3, 59, 0
5, 65348, Note_on_c, 3, 57, 117
5, 65348, Note_on_c, 3, 48, 100
5, 65398, Note_on_c, 3, 48, 0
5, 65408, Note_on_c, 3, 57, 0
5, 65408, Note_on_c, 3, 55, 117
5, 65408, Note_on_c, 3, 48, 100
5, 65458, Note_on_c, 3, 48, 0
5, 65468, Note_on_c, 3, 55, 0
5, 65468, Note_on_c, 3, 57, 117
5, 65468, Note_on_c, 3, 48, 100
5, 65518, Note_on_c, 3, 48, 0
5, 65528, Note_on_c, 3, 57, 0
5, 65528, Note_on_c, 3, 59, 117
5, 65528, Note_on_c, 3, 48, 100
5, 65578, Note_on_c, 3, 48, 0
5, 65588, Note_on_c, 3, 59, 0
5, 65588, Note_on_c, 3, 60, 117
5, 65588, Note_on_c, 3, 48, 100
5, 65638, Note_on_c, 3, 48, 0
5, 65648, Note_on_c, 3, 60, 0
5, 65648, Note_on_c, 3, 62, 117
5, 65648, Note_on_c, 3, 48, 100
5, 65698, Note_on_c, 3, 48, 0
5, 65708, Note_on_c, 3, 62, 0
5, 65708, Note_on_c, 3, 64, 117
5, 65708, Note_on_c, 3, 48, 100
5, 65758, Note_on_c, 3, 48, 0
5, 65758, Note_on_c, 3, 64, 0
5, 65768, Note_on_c, 3, 65, 117
5, 65768, Note_on_c, 3, 48, 100
5, 65818, Note_on_c, 3, 48, 0
5, 65828, Note_on_c, 3, 65, 0
5, 65828, Note_on_c, 3, 64, 117
5, 65828, Note_on_c, 3, 48, 100
5, 65878, Note_on_c, 3, 48, 0
5, 65888, Note_on_c, 3, 64, 0
5, 65888, Note_on_c, 3, 48, 100
5, 65888, Note_on_c, 3, 65, 117
5, 65938, Note_on_c, 3, 48, 0
5, 65948, Note_on_c, 3, 65, 0
5, 65948, Note_on_c, 3, 48, 100
5, 65948, Note_on_c, 3, 64, 117
5, 65998, Note_on_c, 3, 48, 0
5, 66008, Note_on_c, 3, 64, 0
5, 66008, Note_on_c, 3, 48, 100
5, 66008, Note_on_c, 3, 65, 117
5, 66058, Note_on_c, 3, 48, 0
5, 66068, Note_on_c, 3, 65, 0
5, 66068, Note_on_c, 3, 62, 117
5, 66068, Note_on_c, 3, 48, 100
5, 66118, Note_on_c, 3, 48, 0
5, 66128, Note_on_c, 3, 62, 0
5, 66128, Note_on_c, 3, 60, 117
5, 66128, Note_on_c, 3, 48, 100
5, 66178, Note_on_c, 3, 48, 0
5, 66188, Note_on_c, 3, 60, 0
5, 66188, Note_on_c, 3, 48, 100
5, 66188, Note_on_c, 3, 59, 117
5, 66238, Note_on_c, 3, 59, 0
5, 66238, Note_on_c, 3, 48, 0
5, 66248, Note_on_c, 3, 48, 100
5, 66248, Note_on_c, 3, 60, 100
5, 66368, Note_on_c, 3, 60, 0
5, 66368, Note_on_c, 3, 48, 0
5, 66608, Control_c, 3, 11, 87
5, 66608, Note_on_c, 3, 45, 100
5, 66638, Note_on_c, 3, 45, 0
5, 66668, Note_on_c, 3, 49, 100
5, 66698, Note_on_c, 3, 49, 0
5, 66728, Note_on_c, 3, 50, 100
5, 66848, Note_on_c, 3, 50, 0
5, 67088, Control_c, 3, 11, 87
5, 67088, Note_on_c, 3, 47, 100
5, 67118, Note_on_c, 3, 47, 0
5, 67148, Note_on_c, 3, 51, 100
5, 67160, Control_c, 3, 11, 88
5, 67178, Note_on_c, 3, 51, 0
5, 67208, Note_on_c, 3, 52, 100
5, 67232, Control_c, 3, 11, 89
5, 67258, Note_on_c, 3, 52, 0
5, 67268, Note_on_c, 3, 52, 100
5, 67304, Control_c, 3, 11, 90
5, 67318, Note_on_c, 3, 52, 0
5, 67328, Note_on_c, 3, 48, 100
5, 67376, Control_c, 3, 11, 91
5, 67378, Note_on_c, 3, 48, 0
5, 67388, Note_on_c, 3, 52, 100
5, 67438, Note_on_c, 3, 52, 0
5, 67448, Control_c, 3, 11, 92
5, 67448, Note_on_c, 3, 53, 100
5, 67498, Note_on_c, 3, 53, 0
5, 67508, Note_on_c, 3, 50, 100
5, 67520, Control_c, 3, 11, 93
5, 67558, Note_on_c, 3, 50, 0
5, 67568, Note_on_c, 3, 55, 100
5, 67592, Control_c, 3, 11, 94
5, 67618, Note_on_c, 3, 55, 0
5, 67628, Note_on_c, 3, 52, 100
5, 67664, Control_c, 3, 11, 95
5, 67678, Note_on_c, 3, 52, 0
5, 67688, Note_on_c, 3, 57, 100
5, 67736, Control_c, 3, 11, 96
5, 67738, Note_on_c, 3, 57, 0
5, 67748, Note_on_c, 3, 53, 100
5, 67798, Note_on_c, 3, 53, 0
5, 67808, Note_on_c, 3, 59, 100
5, 67808, Control_c, 3, 11, 97
5, 67858, Note_on_c, 3, 59, 0
5, 67868, Note_on_c, 3, 55, 100
5, 67880, Control_c, 3, 11, 98
5, 67918, Note_on_c, 3, 55, 0
5, 67928, Note_on_c, 3, 60, 100
5, 67952, Control_c, 3, 11, 99
5, 67978, Note_on_c, 3, 60, 0
5, 67988, Note_on_c, 3, 57, 100
5, 68024, Control_c, 3, 11, 100
5, 68038, Note_on_c, 3, 57, 0
5, 68048, Note_on_c, 3, 52, 100
5, 68096, Control_c, 3, 11, 101
5, 68098, Note_on_c, 3, 52, 0
5, 68108, Note_on_c, 3, 54, 100
5, 68158, Note_on_c, 3, 54, 0
5, 68168, Note_on_c, 3, 55, 100
5, 68168, Control_c, 3, 11, 102
5, 68288, Note_on_c, 3, 55, 0
5, 68708, Note_on_c, 3, 67, 100
5, 68738, Note_on_c, 3, 67, 0
5, 68768, Note_on_c, 3, 67, 100
5, 68798, Note_on_c, 3, 67, 0
5, 68828, Note_on_c, 3, 67, 100
5, 68858, Note_on_c, 3, 67, 0
5, 68888, Note_on_c, 3, 65, 100
5, 68948, Note_on_c, 3, 65, 0
5, 68948, Note_on_c, 3, 64, 100
5, 68998, Note_on_c, 3, 64, 0
5, 69008, Note_on_c, 3, 62, 100
5, 69038, Note_on_c, 3, 62, 0
5, 69068, Note_on_c, 3, 60, 100
5, 69098, Note_on_c, 3, 60, 0
5, 69128, Note_on_c, 3, 55, 100
5, 69248, Note_on_c, 3, 55, 0
5, 69668, Note_on_c, 3, 67, 100
5, 69698, Note_on_c, 3, 67, 0
5, 69728, Note_on_c, 3, 67, 100
5, 69758, Note_on_c, 3, 67, 0
5, 69788, Note_on_c, 3, 67, 100
5, 69818, Note_on_c, 3, 67, 0
5, 69848, Note_on_c, 3, 65, 100
5, 69908, Note_on_c, 3, 65, 0
5, 69908, Note_on_c, 3, 64, 100
5, 69958, Note_on_c, 3, 64, 0
5, 69968, Note_on_c, 3, 62, 100
5, 69998, Note_on_c, 3, 62, 0
5, 70028, Note_on_c, 3, 60, 100
5, 70058, Note_on_c, 3, 60, 0
5, 70088, Note_on_c, 3, 55, 100
5, 70088, Note_on_c, 3, 43, 100
5, 70208, Note_on_c, 3, 43, 0
5, 70208, Note_on_c, 3, 55, 0
5, 70208, Note_on_c, 3, 55, 100
5, 70208, Note_on_c, 3, 67, 100
5, 70328, Note_on_c, 3, 67, 0
5, 70328, Note_on_c, 3, 55, 0
5, 70448, Note_on_c, 3, 48, 100
5, 70448, Note_on_c, 3, 60, 100
5, 70568, Note_on_c, 3, 60, 0
5, 70568, Note_on_c, 3, 48, 0
5, 70688, Note_on_c, 3, 55, 100
5, 70688, Note_on_c, 3, 67, 100
5, 70808, Note_on_c, 3, 67, 0
5, 70808, Note_on_c, 3, 55, 0
5, 70928, Note_on_c, 3, 48, 100
5, 70928, Note_on_c, 3, 60, 100
5, 71048, Note_on_c, 3, 60, 0
5, 71048, Note_on_c, 3, 48, 0
5, 71048, Note_on_c, 3, 55, 100
5, 71048, Note_on_c, 3, 67, 100
5, 71168, Note_on_c, 3, 67, 0
5, 71168, Note_on_c, 3, 55, 0
5, 71288, Note_on_c, 3, 55, 100
5, 71408, Note_on_c, 3, 55, 0
5, 71528, Note_on_c, 3, 43, 100
5, 71648, Note_on_c, 3, 43, 0
5, 74168, Note_on_c, 3, 62, 100
5, 74168, Control_c, 3, 11, 77
5, 74182, Control_c, 3, 11, 74
5, 74196, Control_c, 3, 11, 71
5, 74211, Control_c, 3, 11, 68
5, 74225, Control_c, 3, 11, 65
5, 74228, Note_on_c, 3, 62, 0
5, 74228, Note_on_c, 3, 61, 100
5, 74240, Control_c, 3, 11, 62
5, 74254, Control_c, 3, 11, 59
5, 74268, Control_c, 3, 11, 56
5, 74283, Control_c, 3, 11, 53
5, 74288, Note_on_c, 3, 61, 0
5, 74288, Note_on_c, 3, 62, 100
5, 74348, Note_on_c, 3, 62, 0
5, 74348, Note_on_c, 3, 61, 100
5, 74398, Note_on_c, 3, 61, 0
5, 74408, Note_on_c, 3, 62, 100
5, 74528, Note_on_c, 3, 62, 0
5, 74648, Note_on_c, 3, 62, 100
5, 74648, Control_c, 3, 11, 77
5, 74662, Control_c, 3, 11, 74
5, 74676, Control_c, 3, 11, 71
5, 74691, Control_c, 3, 11, 68
5, 74705, Control_c, 3, 11, 65
5, 74708, Note_on_c, 3, 62, 0
5, 74708, Note_on_c, 3, 61, 100
5, 74720, Control_c, 3, 11, 62
5, 74734, Control_c, 3, 11, 59
5, 74748, Control_c, 3, 11, 56
5, 74763, Control_c, 3, 11, 53
5, 74768, Note_on_c, 3, 61, 0
5, 74768, Note_on_c, 3, 62, 100
5, 74828, Note_on_c, 3, 62, 0
5, 74828, Note_on_c, 3, 61, 100
5, 74878, Note_on_c, 3, 61, 0
5, 74888, Note_on_c, 3, 62, 100
5, 75008, Note_on_c, 3, 62, 0
5, 75008, Note_on_c, 3, 62, 100
5, 75128, Note_on_c, 3, 62, 0
5, 75128, Note_on_c, 3, 64, 100
5, 75248, Note_on_c, 3, 64, 0
5, 75248, Note_on_c, 3, 67, 100
5, 75358, Note_on_c, 3, 67, 0
5, 75368, Note_on_c, 3, 66, 100
5, 75488, Note_on_c, 3, 66, 0
5, 75848, Note_on_c, 3, 47, 100
5, 75908, Note_on_c, 3, 47, 0
5, 75968, Note_on_c, 3, 50, 100
5, 76028, Note_on_c, 3, 50, 0
5, 76088, Note_on_c, 3, 55, 100
5, 76148, Note_on_c, 3, 55, 0
5, 76208, Note_on_c, 3, 59, 100
5, 76268, Note_on_c, 3, 59, 0
5, 76328, Note_on_c, 3, 60, 100
5, 76448, Note_on_c, 3, 60, 0
5, 76808, Note_on_c, 3, 50, 100
5, 76868, Note_on_c, 3, 50, 0
5, 76928, Note_on_c, 3, 54, 100
5, 76988, Note_on_c, 3, 54, 0
5, 77048, Note_on_c, 3, 57, 100
5, 77108, Note_on_c, 3, 57, 0
5, 77168, Note_on_c, 3, 62, 100
5, 77228, Note_on_c, 3, 62, 0
5, 77288, Note_on_c, 3, 55, 100
5, 77408, Note_on_c, 3, 55, 0
5, 77768, Note_on_c, 3, 64, 100
5, 77768, Note_on_c, 3, 60, 100
5, 77888, Note_on_c, 3, 60, 0
5, 77888, Note_on_c, 3, 64, 0
5, 77888, Note_on_c, 3, 60, 100
5, 77888, Note_on_c, 3, 64, 100
5, 78008, Note_on_c, 3, 64, 0
5, 78008, Note_on_c, 3, 60, 0
5, 78008, Control_c, 3, 11, 77
5, 78008, Note_on_c, 3, 65, 100
5, 78008, Note_on_c, 3, 62, 100
5, 78027, Control_c, 3, 11, 75
5, 78046, Control_c, 3, 11, 73
5, 78065, Control_c, 3, 11, 71
5, 78084, Control_c, 3, 11, 69
5, 78104, Control_c, 3, 11, 67
5, 78123, Control_c, 3, 11, 65
5, 78142, Control_c, 3, 11, 63
5, 78161, Control_c, 3, 11, 61
5, 78180, Control_c, 3, 11, 59
5, 78200, Control_c, 3, 11, 57
5, 78219, Control_c, 3, 11, 55
5, 78238, Control_c, 3, 11, 53
5, 78358, Note_on_c, 3, 62, 0
5, 78358, Note_on_c, 3, 65, 0
5, 78368, Note_on_c, 3, 60, 100
5, 78368, Note_on_c, 3, 64, 100
5, 78488, Note_on_c, 3, 64, 0
5, 78488, Note_on_c, 3, 60, 0
5, 78488, Control_c, 3, 11, 77
5, 78488, Note_on_c, 3, 62, 100
5, 78488, Note_on_c, 3, 65, 100
5, 78507, Control_c, 3, 11, 75
5, 78526, Control_c, 3, 11, 73
5, 78545, Control_c, 3, 11, 71
5, 78564, Control_c, 3, 11, 69
5, 78584, Control_c, 3, 11, 67
5, 78603, Control_c, 3, 11, 65
5, 78622, Control_c, 3, 11, 63
5, 78641, Control_c, 3, 11, 61
5, 78660, Control_c, 3, 11, 59
5, 78680, Control_c, 3, 11, 57
5, 78699, Control_c, 3, 11, 55
5, 78718, Control_c, 3, 11, 53
5, 78838, Note_on_c, 3, 65, 0
5, 78838, Note_on_c, 3, 62, 0
5, 78848, Note_on_c, 3, 60, 100
5, 78848, Note_on_c, 3, 64, 100
5, 78968, Note_on_c, 3, 64, 0
5, 78968, Note_on_c, 3, 60, 0
5, 78968, Note_on_c, 3, 62, 100
5, 78968, Note_on_c, 3, 59, 100
5, 79088, Note_on_c, 3, 59, 0
5, 79088, Note_on_c, 3, 62, 0
5, 79088, Note_on_c, 3, 60, 100
5, 79088, Note_on_c, 3, 57, 100
5, 79198, Note_on_c, 3, 57, 0
5, 79198, Note_on_c, 3, 60, 0
5, 79208, Note_on_c, 3, 59, 100
5, 79208, Note_on_c, 3, 55, 100
5, 79448, Note_on_c, 3, 55, 0
5, 79448, Note_on_c, 3, 59, 0
5, 79448, Note_on_c, 3, 57, 100
5, 79448, Note_on_c, 3, 54, 100
5, 79668, Note_on_c, 3, 54, 0
5, 79668, Note_on_c, 3, 57, 0
5, 79688, Note_on_c, 3, 47, 100
5, 79688, Note_on_c, 3, 59, 100
5, 79688, Control_c, 3, 11, 87
5, 79808, Note_on_c, 3, 59, 0
5, 79808, Note_on_c, 3, 47, 0
5, 79928, Note_on_c, 3, 45, 100
5, 79928, Note_on_c, 3, 57, 100
5, 80048, Note_on_c, 3, 57, 0
5, 80048, Note_on_c, 3, 45, 0
5, 80168, Note_on_c, 3, 43, 100
5, 80168, Note_on_c, 3, 55, 100
5, 80288, Note_on_c, 3, 55, 0
5, 80288, Note_on_c, 3, 43, 0
5, 80648, Note_on_c, 3, 62, 100
5, 80648, Control_c, 3, 11, 107
5, 80672, Control_c, 3, 11, 105
5, 80696, Control_c, 3, 11, 103
5, 80720, Control_c, 3, 11, 101
5, 80744, Control_c, 3, 11, 99
5, 80768, Control_c, 3, 11, 97
5, 80792, Control_c, 3, 11, 95
5, 80816, Control_c, 3, 11, 93
5, 80840, Control_c, 3, 11, 91
5, 80864, Control_c, 3, 11, 89
5, 80878, Note_on_c, 3, 62, 0
5, 80888, Note_on_c, 3, 60, 100
5, 80888, Note_on_c, 3, 66, 100
5, 80888, Control_c, 3, 11, 107
5, 80912, Control_c, 3, 11, 105
5, 80936, Control_c, 3, 11, 103
5, 80960, Control_c, 3, 11, 101
5, 80984, Control_c, 3, 11, 99
5, 81008, Control_c, 3, 11, 97
5, 81032, Control_c, 3, 11, 95
5, 81056, Control_c, 3, 11, 93
5, 81080, Control_c, 3, 11, 91
5, 81104, Control_c, 3, 11, 89
5, 81118, Note_on_c, 3, 66, 0
5, 81118, Note_on_c, 3, 60, 0
5, 81128, Control_c, 3, 11, 107
5, 81128, Note_on_c, 3, 59, 100
5, 81128, Note_on_c, 3, 67, 100
5, 81146, Control_c, 3, 11, 104
5, 81164, Control_c, 3, 11, 101
5, 81182, Control_c, 3, 11, 98
5, 81200, Control_c, 3, 11, 95
5, 81218, Control_c, 3, 11, 92
5, 81236, Control_c, 3, 11, 89
5, 81248, Note_on_c, 3, 67, 0
5, 81248, Note_on_c, 3, 59, 0
5, 81608, Note_on_c, 3, 59, 100
5, 81608, Control_c, 3, 11, 107
5, 81626, Control_c, 3, 11, 105
5, 81644, Control_c, 3, 11, 103
5, 81662, Control_c, 3, 11, 101
5, 81680, Control_c, 3, 11, 99
5, 81698, Control_c, 3, 11, 97
5, 81716, Control_c, 3, 11, 95
5, 81734, Control_c, 3, 11, 93
5, 81752, Control_c, 3, 11, 91
5, 81770, Control_c, 3, 11, 89
5, 81778, Note_on_c, 3, 59, 0
5, 81788, Note_on_c, 3, 57, 100
5, 81788, Control_c, 3, 11, 87
5, 81838, Note_on_c, 3, 57, 0
5, 81848, Note_on_c, 3, 55, 100
5, 81898, Note_on_c, 3, 55, 0
5, 81908, Note_on_c, 3, 57, 100
5, 81958, Note_on_c, 3, 57, 0
5, 81968, Note_on_c, 3, 58, 100
5, 82018, Note_on_c, 3, 58, 0
5, 82028, Note_on_c, 3, 59, 100
5, 82078, Note_on_c, 3, 59, 0
5, 82088, Note_on_c, 3, 60, 100
5, 82088, Control_c, 3, 11, 107
5, 82106, Control_c, 3, 11, 105
5, 82124, Control_c, 3, 11, 103
5, 82142, Control_c, 3, 11, 101
5, 82160, Control_c, 3, 11, 99
5, 82178, Control_c, 3, 11, 97
5, 82196, Control_c, 3, 11, 95
5, 82214, Control_c, 3, 11, 93
5, 82232, Control_c, 3, 11, 91
5, 82250, Control_c, 3, 11, 89
5, 82258, Note_on_c, 3, 60, 0
5, 82268, Note_on_c, 3, 59, 100
5, 82268, Control_c, 3, 11, 87
5, 82318, Note_on_c, 3, 59, 0
5, 82328, Note_on_c, 3, 64, 100
5, 82378, Note_on_c, 3, 64, 0
5, 82388, Note_on_c, 3, 62, 100
5, 82438, Note_on_c, 3, 62, 0
5, 82448, Note_on_c, 3, 60, 100
5, 82498, Note_on_c, 3, 60, 0
5, 82508, Note_on_c, 3, 61, 100
5, 82558, Note_on_c, 3, 61, 0
5, 82568, Control_c, 3, 11, 87
5, 82568, Note_on_c, 3, 62, 100
5, 82600, Control_c, 3, 11, 88
5, 82618, Note_on_c, 3, 62, 0
5, 82628, Note_on_c, 3, 59, 100
5, 82632, Control_c, 3, 11, 89
5, 82664, Control_c, 3, 11, 90
5, 82678, Note_on_c, 3, 59, 0
5, 82688, Note_on_c, 3, 57, 100
5, 82696, Control_c, 3, 11, 91
5, 82728, Control_c, 3, 11, 92
5, 82738, Note_on_c, 3, 57, 0
5, 82748, Note_on_c, 3, 55, 100
5, 82760, Control_c, 3, 11, 93
5, 82792, Control_c, 3, 11, 94
5, 82798, Note_on_c, 3, 55, 0
5, 82808, Note_on_c, 3, 54, 100
5, 82824, Control_c, 3, 11, 95
5, 82856, Control_c, 3, 11, 96
5, 82858, Note_on_c, 3, 54, 0
5, 82868, Note_on_c, 3, 52, 100
5, 82888, Control_c, 3, 11, 97
5, 82918, Note_on_c, 3, 52, 0
5, 82920, Control_c, 3, 11, 98
5, 82928, Note_on_c, 3, 50, 100
5, 82952, Control_c, 3, 11, 99
5, 82978, Note_on_c, 3, 50, 0
5, 82984, Control_c, 3, 11, 100
5, 82988, Note_on_c, 3, 48, 100
5, 83016, Control_c, 3, 11, 101
5, 83038, Note_on_c, 3, 48, 0
5, 83048, Note_on_c, 3, 47, 100
5, 83048, Control_c, 3, 11, 102
5, 83108, Note_on_c, 3, 47, 0
5, 83168, Note_on_c, 3, 48, 100
5, 83228, Note_on_c, 3, 48, 0
5, 83288, Note_on_c, 3, 50, 100
5, 83348, Note_on_c, 3, 50, 0
5, 83408, Control_c, 3, 11, 87
5, 83408, Note_on_c, 3, 50, 100
5, 83426, Control_c, 3, 11, 84
5, 83444, Control_c, 3, 11, 81
5, 83462, Control_c, 3, 11, 78
5, 83468, Note_on_c, 3, 50, 0
5, 83480, Control_c, 3, 11, 75
5, 83498, Control_c, 3, 11, 72
5, 83516, Control_c, 3, 11, 69
5, 83528, Note_on_c, 3, 55, 100
5, 83538, Control_c, 3, 11, 66
5, 83558, Control_c, 3, 11, 64
5, 83578, Control_c, 3, 11, 62
5, 83598, Control_c, 3, 11, 60
5, 83618, Control_c, 3, 11, 58
5, 83638, Control_c, 3, 11, 56
5, 83658, Control_c, 3, 11, 54
5, 83678, Control_c, 3, 11, 52
5, 83698, Control_c, 3, 11, 50
5, 83718, Control_c, 3, 11, 48
5, 83738, Control_c, 3, 11, 46
5, 83758, Control_c, 3, 11, 44
5, 83778, Control_c, 3, 11, 42
5, 83798, Control_c, 3, 11, 40
5, 83818, Control_c, 3, 11, 38
5, 83828, Note_on_c, 3, 55, 0
5, 83828, Note_on_c, 3, 53, 100
5, 83888, Note_on_c, 3, 53, 0
5, 83888, Note_on_c, 3, 51, 100
5, 83948, Note_on_c, 3, 51, 0
5, 83948, Note_on_c, 3, 50, 100
5, 83998, Note_on_c, 3, 50, 0
5, 84008, Note_on_c, 3, 48, 100
5, 84128, Note_on_c, 3, 48, 0
5, 85928, Control_c, 3, 11, 27
5, 85928, Note_on_c, 3, 62, 100
5, 85937, Control_c, 3, 11, 30
5, 85947, Control_c, 3, 11, 33
5, 85956, Control_c, 3, 11, 36
5, 85966, Control_c, 3, 11, 39
5, 85975, Control_c, 3, 11, 42
5, 86010, Control_c, 3, 11, 45
5, 86037, Control_c, 3, 11, 46
5, 86065, Control_c, 3, 11, 47
5, 86092, Control_c, 3, 11, 48
5, 86120, Control_c, 3, 11, 49
5, 86147, Control_c, 3, 11, 51
5, 86174, Control_c, 3, 11, 52
5, 86202, Control_c, 3, 11, 53
5, 86229, Control_c, 3, 11, 55
5, 86257, Control_c, 3, 11, 56
5, 86284, Control_c, 3, 11, 57
5, 86312, Control_c, 3, 11, 59
5, 86339, Control_c, 3, 11, 60
5, 86366, Control_c, 3, 11, 61
5, 86394, Control_c, 3, 11, 63
5, 86421, Control_c, 3, 11, 64
5, 86449, Control_c, 3, 11, 65
5, 86476, Control_c, 3, 11, 67
5, 86504, Control_c, 3, 11, 68
5, 86531, Control_c, 3, 11, 69
5, 86558, Control_c, 3, 11, 71
5, 86586, Control_c, 3, 11, 72
5, 86613, Control_c, 3, 11, 73
5, 86641, Control_c, 3, 11, 75
5, 86668, Control_c, 3, 11, 76
5, 86696, Control_c, 3, 11, 77
5, 86723, Control_c, 3, 11, 79
5, 86750, Control_c, 3, 11, 80
5, 86768, Note_on_c, 3, 62, 0
5, 86768, Note_on_c, 3, 60, 100
5, 86778, Control_c, 3, 11, 81
5, 86805, Control_c, 3, 11, 83
5, 86828, Note_on_c, 3, 60, 0
5, 86828, Note_on_c, 3, 58, 100
5, 86833, Control_c, 3, 11, 84
5, 86860, Control_c, 3, 11, 85
5, 86878, Note_on_c, 3, 58, 0
5, 86888, Note_on_c, 3, 58, 100
5, 86888, Control_c, 3, 11, 87
5, 86903, Control_c, 3, 11, 85
5, 86919, Control_c, 3, 11, 84
5, 86933, Note_on_c, 3, 58, 0
5, 86933, Note_on_c, 3, 57, 100
5, 86935, Control_c, 3, 11, 83
5, 86951, Control_c, 3, 11, 81
5, 86967, Control_c, 3, 11, 80
5, 86978, Note_on_c, 3, 57, 0
5, 86983, Control_c, 3, 11, 79
5, 86999, Control_c, 3, 11, 77
5, 87008, Note_on_c, 3, 57, 100
5, 87015, Control_c, 3, 11, 76
5, 87031, Control_c, 3, 11, 75
5, 87047, Control_c, 3, 11, 73
5, 87063, Control_c, 3, 11, 72
5, 87079, Control_c, 3, 11, 71
5, 87095, Control_c, 3, 11, 69
5, 87098, Note_on_c, 3, 57, 0
5, 87111, Control_c, 3, 11, 68
5, 87127, Control_c, 3, 11, 67
5, 87128, Note_on_c, 3, 57, 100
5, 87143, Control_c, 3, 11, 65
5, 87159, Control_c, 3, 11, 64
5, 87175, Control_c, 3, 11, 63
5, 87191, Control_c, 3, 11, 61
5, 87207, Control_c, 3, 11, 60
5, 87218, Note_on_c, 3, 57, 0
5, 87223, Control_c, 3, 11, 59
5, 87239, Control_c, 3, 11, 57
5, 87248, Note_on_c, 3, 57, 100
5, 87255, Control_c, 3, 11, 56
5, 87271, Control_c, 3, 11, 55
5, 87287, Control_c, 3, 11, 53
5, 87303, Control_c, 3, 11, 52
5, 87319, Control_c, 3, 11, 51
5, 87335, Control_c, 3, 11, 49
5, 87338, Note_on_c, 3, 57, 0
5, 87351, Control_c, 3, 11, 48
5, 87367, Control_c, 3, 11, 47
5, 87368, Note_on_c, 3, 60, 100
5, 87368, Note_on_c, 3, 66, 100
5, 87368, Control_c, 3, 11, 42
5, 87400, Control_c, 3, 11, 43
5, 87432, Control_c, 3, 11, 44
5, 87464, Control_c, 3, 11, 45
5, 87496, Control_c, 3, 11, 46
5, 87528, Control_c, 3, 11, 47
5, 87560, Control_c, 3, 11, 48
5, 87592, Control_c, 3, 11, 49
5, 87624, Control_c, 3, 11, 50
5, 87656, Control_c, 3, 11, 51
5, 87688, Control_c, 3, 11, 52
5, 87720, Control_c, 3, 11, 53
5, 87752, Control_c, 3, 11, 54
5, 87784, Control_c, 3, 11, 55
5, 87816, Control_c, 3, 11, 56
5, 87848, Note_on_c, 3, 66, 0
5, 87848, Note_on_c, 3, 60, 0
5, 87848, Note_on_c, 3, 67, 100
5, 87848, Note_on_c, 3, 59, 100
5, 87848, Control_c, 3, 11, 57
5, 87880, Control_c, 3, 11, 58
5, 87912, Control_c, 3, 11, 59
5, 87944, Control_c, 3, 11, 60
5, 87976, Control_c, 3, 11, 61
5, 88008, Control_c, 3, 11, 62
5, 88040, Control_c, 3, 11, 63
5, 88072, Control_c, 3, 11, 64
5, 88104, Control_c, 3, 11, 65
5, 88136, Control_c, 3, 11, 66
5, 88168, Control_c, 3, 11, 67
5, 88200, Control_c, 3, 11, 68
5, 88232, Control_c, 3, 11, 69
5, 88264, Control_c, 3, 11, 70
5, 88296, Control_c, 3, 11, 71
5, 88328, Note_on_c, 3, 59, 0
5, 88328, Note_on_c, 3, 67, 0
5, 88328, Note_on_c, 3, 67, 100
5, 88328, Note_on_c, 3, 64, 100
5, 88328, Control_c, 3, 11, 72
5, 88360, Control_c, 3, 11, 73
5, 88392, Control_c, 3, 11, 74
5, 88424, Control_c, 3, 11, 75
5, 88456, Control_c, 3, 11, 76
5, 88488, Control_c, 3, 11, 77
5, 88520, Control_c, 3, 11, 78
5, 88552, Control_c, 3, 11, 79
5, 88568, Note_on_c, 3, 64, 0
5, 88568, Note_on_c, 3, 67, 0
5, 88568, Note_on_c, 3, 60, 100
5, 88568, Note_on_c, 3, 66, 100
5, 88584, Control_c, 3, 11, 80
5, 88616, Control_c, 3, 11, 81
5, 88648, Control_c, 3, 11, 82
5, 88680, Control_c, 3, 11, 83
5, 88712, Control_c, 3, 11, 84
5, 88744, Control_c, 3, 11, 85
5, 88776, Control_c, 3, 11, 86
5, 88798, Note_on_c, 3, 66, 0
5, 88798, Note_on_c, 3, 60, 0
5, 88808, Control_c, 3, 11, 97
5, 88808, Note_on_c, 3, 67, 100
5, 88808, Note_on_c, 3, 55, 100
5, 88832, Control_c, 3, 11, 95
5, 88856, Control_c, 3, 11, 93
5, 88880, Control_c, 3, 11, 91
5, 88904, Control_c, 3, 11, 89
5, 88928, Control_c, 3, 11, 87
5, 89158, Note_on_c, 3, 55, 0
5, 89158, Note_on_c, 3, 67, 0
5, 89168, Note_on_c, 3, 62, 100
5, 89168, Note_on_c, 3, 50, 100
5, 89258, Note_on_c, 3, 50, 0
5, 89258, Note_on_c, 3, 62, 0
5, 89258, Note_on_c, 3, 54, 100
5, 89258, Note_on_c, 3, 66, 100
5, 89278, Note_on_c, 3, 66, 0
5, 89278, Note_on_c, 3, 54, 0
5, 89288, Note_on_c, 3, 67, 100
5, 89288, Note_on_c, 3, 55, 100
5, 89288, Control_c, 3, 11, 107
5, 89312, Control_c, 3, 11, 105
5, 89336, Control_c, 3, 11, 103
5, 89360, Control_c, 3, 11, 101
5, 89384, Control_c, 3, 11, 99
5, 89408, Control_c, 3, 11, 97
5, 89432, Control_c, 3, 11, 95
5, 89456, Control_c, 3, 11, 93
5, 89480, Control_c, 3, 11, 91
5, 89504, Control_c, 3, 11, 89
5, 89528, Control_c, 3, 11, 87
5, 89638, Note_on_c, 3, 55, 0
5, 89638, Note_on_c, 3, 67, 0
5, 89648, Note_on_c, 3, 50, 100
5, 89648, Note_on_c, 3, 62, 100
5, 89738, Note_on_c, 3, 62, 0
5, 89738, Note_on_c, 3, 50, 0
5, 89738, Note_on_c, 3, 66, 100
5, 89738, Note_on_c, 3, 54, 100
5, 89758, Note_on_c, 3, 54, 0
5, 89758, Note_on_c, 3, 66, 0
5, 89768, Control_c, 3, 11, 107
5, 89768, Note_on_c, 3, 67, 100
5, 89768, Note_on_c, 3, 55, 100
5, 89786, Control_c, 3, 11, 104
5, 89804, Control_c, 3, 11, 101
5, 89822, Control_c, 3, 11, 98
5, 89840, Control_c, 3, 11, 95
5, 89858, Control_c, 3, 11, 92
5, 89876, Control_c, 3, 11, 89
5, 89888, Note_on_c, 3, 55, 0
5, 89888, Note_on_c, 3, 67, 0
5, 90008, Note_on_c, 3, 50, 100
5, 90008, Control_c, 3, 11, 107
5, 90025, Control_c, 3, 11, 104
5, 90043, Control_c, 3, 11, 101
5, 90061, Control_c, 3, 11, 98
5, 90079, Control_c, 3, 11, 95
5, 90097, Control_c, 3, 11, 92
5, 90115, Control_c, 3, 11, 89
5, 90128, Note_on_c, 3, 50, 0
5, 90248, Note_on_c, 3, 55, 100
5, 90248, Control_c, 3, 11, 107
5, 90265, Control_c, 3, 11, 104
5, 90283, Control_c, 3, 11, 101
5, 90301, Control_c, 3, 11, 98
5, 90319, Control_c, 3, 11, 95
5, 90337, Control_c, 3, 11, 92
5, 90355, Control_c, 3, 11, 89
5, 90368, Note_on_c, 3, 55, 0
5, 90488, Control_c, 3, 11, 107
5, 90488, Note_on_c, 3, 57, 100
5, 90505, Control_c, 3, 11, 104
5, 90523, Control_c, 3, 11, 101
5, 90541, Control_c, 3, 11, 98
5, 90559, Control_c, 3, 11, 95
5, 90577, Control_c, 3, 11, 92
5, 90595, Control_c, 3, 11, 89
5, 90608, Note_on_c, 3, 57, 0
5, 90728, Control_c, 3, 11, 87
5, 90728, Note_on_c, 3, 59, 100
5, 90728, Note_on_c, 3, 62, 100
5, 91198, Note_on_c, 3, 62, 0
5, 91198, Note_on_c, 3, 59, 0
5, 91208, Note_on_c, 3, 60, 100
5, 91208, Note_on_c, 3, 57, 100
5, 91678, Note_on_c, 3, 57, 0
5, 91678, Note_on_c, 3, 60, 0
5, 91688, Note_on_c, 3, 59, 100
5, 91688, Control_c, 3, 11, 102
5, 91688, Note_on_c, 3, 56, 100
5, 92158, Note_on_c, 3, 56, 0
5, 92158, Note_on_c, 3, 59, 0
5, 92168, Note_on_c, 3, 65, 100
5, 92168, Note_on_c, 3, 50, 100
5, 92288, Note_on_c, 3, 65, 0
5, 92288, Note_on_c, 3, 62, 100
5, 92408, Note_on_c, 3, 62, 0
5, 92408, Note_on_c, 3, 59, 100
5, 92528, Note_on_c, 3, 59, 0
5, 92528, Note_on_c, 3, 56, 100
5, 92638, Note_on_c, 3, 56, 0
5, 92648, Note_on_c, 3, 50, 0
5, 92648, Note_on_c, 3, 57, 100
5, 92648, Note_on_c, 3, 48, 100
5, 92758, Note_on_c, 3, 48, 0
5, 92758, Note_on_c, 3, 57, 0
5, 92768, Note_on_c, 3, 60, 100
5, 92768, Note_on_c, 3, 64, 100
5, 92878, Note_on_c, 3, 64, 0
5, 92878, Note_on_c, 3, 60, 0
5, 92888, Note_on_c, 3, 64, 100
5, 92888, Note_on_c, 3, 60, 100
5, 92998, Note_on_c, 3, 60, 0
5, 92998, Note_on_c, 3, 64, 0
5, 93008, Note_on_c, 3, 60, 100
5, 93008, Note_on_c, 3, 64, 100
5, 93118, Note_on_c, 3, 64, 0
5, 93118, Note_on_c, 3, 60, 0
5, 93128, Note_on_c, 3, 64, 100
5, 93128, Note_on_c, 3, 61, 100
5, 93248, Note_on_c, 3, 61, 0
5, 93248, Note_on_c, 3, 64, 0
5, 93248, Note_on_c, 3, 67, 100
5, 93248, Note_on_c, 3, 55, 100
5, 93368, Note_on_c, 3, 55, 0
5, 93368, Note_on_c, 3, 67, 0
5, 93368, Note_on_c, 3, 52, 100
5, 93368, Note_on_c, 3, 64, 100
5, 93488, Note_on_c, 3, 64, 0
5, 93488, Note_on_c, 3, 52, 0
5, 93488, Note_on_c, 3, 61, 100
5, 93488, Note_on_c, 3, 49, 100
5, 93598, Note_on_c, 3, 49, 0
5, 93598, Note_on_c, 3, 61, 0
5, 93608, Control_c, 3, 11, 122
5, 93608, Note_on_c, 3, 50, 100
5, 93608, Note_on_c, 3, 62, 100
5, 93625, Control_c, 3, 11, 119
5, 93643, Control_c, 3, 11, 116
5, 93661, Control_c, 3, 11, 113
5, 93679, Control_c, 3, 11, 110
5, 93697, Control_c, 3, 11, 107
5, 93715, Control_c, 3, 11, 104
5, 93838, Note_on_c, 3, 62, 0
5, 93838, Note_on_c, 3, 50, 0
5, 93848, Note_on_c, 3, 64, 100
5, 93848, Note_on_c, 3, 52, 100
5, 93848, Control_c, 3, 11, 122
5, 93865, Control_c, 3, 11, 119
5, 93883, Control_c, 3, 11, 116
5, 93901, Control_c, 3, 11, 113
5, 93919, Control_c, 3, 11, 110
5, 93937, Control_c, 3, 11, 107
5, 93955, Control_c, 3, 11, 104
5, 94078, Note_on_c, 3, 52, 0
5, 94078, Note_on_c, 3, 64, 0
5, 94088, Note_on_c, 3, 48, 100
5, 94088, Control_c, 3, 11, 122
5, 94088, Note_on_c, 3, 60, 100
5, 94105, Control_c, 3, 11, 119
5, 94123, Control_c, 3, 11, 116
5, 94141, Control_c, 3, 11, 113
5, 94159, Control_c, 3, 11, 110
5, 94177, Control_c, 3, 11, 107
5, 94195, Control_c, 3, 11, 104
5, 94318, Note_on_c, 3, 60, 0
5, 94318, Note_on_c, 3, 48, 0
5, 94328, Control_c, 3, 11, 122
5, 94328, Note_on_c, 3, 62, 100
5, 94328, Note_on_c, 3, 50, 100
5, 94345, Control_c, 3, 11, 119
5, 94363, Control_c, 3, 11, 116
5, 94381, Control_c, 3, 11, 113
5, 94399, Control_c, 3, 11, 110
5, 94417, Control_c, 3, 11, 107
5, 94435, Control_c, 3, 11, 104
5, 94508, Control_c, 3, 11, 87
5, 94521, Control_c, 3, 11, 84
5, 94535, Control_c, 3, 11, 81
5, 94548, Control_c, 3, 11, 78
5, 94558, Note_on_c, 3, 50, 0
5, 94558, Note_on_c, 3, 62, 0
5, 94562, Control_c, 3, 11, 75
5, 94568, Note_on_c, 3, 43, 100
5, 94568, Note_on_c, 3, 55, 100
5, 94575, Control_c, 3, 11, 72
5, 94589, Control_c, 3, 11, 69
5, 94602, Control_c, 3, 11, 66
5, 94616, Control_c, 3, 11, 63
5, 94629, Control_c, 3, 11, 60
5, 94643, Control_c, 3, 11, 57
5, 94656, Control_c, 3, 11, 54
5, 94670, Control_c, 3, 11, 51
5, 94678, Note_on_c, 3, 55, 0
5, 94678, Note_on_c, 3, 43, 0
5, 94683, Control_c, 3, 11, 48
5, 94688, Note_on_c, 3, 60, 100
5, 94688, Note_on_c, 3, 64, 100
5, 94808, Note_on_c, 3, 64, 0
5, 94808, Note_on_c, 3, 60, 0
5, 94808, Note_on_c, 3, 62, 100
5, 94808, Note_on_c, 3, 59, 100
5, 94928, Note_on_c, 3, 59, 0
5, 94928, Note_on_c, 3, 62, 0
5, 94928, Note_on_c, 3, 60, 100
5, 94928, Note_on_c, 3, 57, 100
5, 95048, Note_on_c, 3, 57, 0
5, 95048, Note_on_c, 3, 60, 0
5, 95048, Note_on_c, 3, 55, 100
5, 95048, Note_on_c, 3, 59, 100
5, 95168, Note_on_c, 3, 59, 0
5, 95168, Note_on_c, 3, 55, 0
5, 95168, Note_on_c, 3, 60, 100
5, 95168, Note_on_c, 3, 57, 100
5, 95288, Note_on_c, 3, 57, 0
5, 95288, Note_on_c, 3, 60, 0
5, 95288, Note_on_c, 3, 59, 100
5, 95288, Note_on_c, 3, 62, 100
5, 95398, Note_on_c, 3, 62, 0
5, 95398, Note_on_c, 3, 59, 0
5, 95408, Note_on_c, 3, 60, 100
5, 95408, Control_c, 3, 11, 97
5, 95408, Note_on_c, 3, 57, 100
5, 95415, Control_c, 3, 11, 94
5, 95422, Control_c, 3, 11, 91
5, 95429, Control_c, 3, 11, 88
5, 95436, Control_c, 3, 11, 85
5, 95443, Control_c, 3, 11, 82
5, 95450, Control_c, 3, 11, 79
5, 95457, Control_c, 3, 11, 76
5, 95465, Control_c, 3, 11, 73
5, 95472, Control_c, 3, 11, 70
5, 95479, Control_c, 3, 11, 67
5, 95486, Control_c, 3, 11, 64
5, 95493, Control_c, 3, 11, 61
5, 95500, Control_c, 3, 11, 58
5, 95507, Control_c, 3, 11, 55
5, 95515, Control_c, 3, 11, 52
5, 95522, Control_c, 3, 11, 49
5, 95528, Note_on_c, 3, 57, 0
5, 95528, Note_on_c, 3, 60, 0
5, 95528, Note_on_c, 3, 59, 100
5, 95528, Note_on_c, 3, 55, 100
5, 95648, Note_on_c, 3, 55, 0
5, 95648, Note_on_c, 3, 59, 0
5, 95648, Note_on_c, 3, 60, 100
5, 95648, Note_on_c, 3, 64, 100
5, 95768, Note_on_c, 3, 64, 0
5, 95768, Note_on_c, 3, 60, 0
5, 95768, Note_on_c, 3, 59, 100
5, 95768, Note_on_c, 3, 62, 100
5, 95888, Note_on_c, 3, 62, 0
5, 95888, Note_on_c, 3, 59, 0
5, 95888, Note_on_c, 3, 57, 100
5, 95888, Note_on_c, 3, 60, 100
5, 96008, Note_on_c, 3, 60, 0
5, 96008, Note_on_c, 3, 57, 0
5, 96008, Note_on_c, 3, 55, 100
5, 96008, Note_on_c, 3, 59, 100
5, 96128, Note_on_c, 3, 59, 0
5, 96128, Note_on_c, 3, 55, 0
5, 96128, Note_on_c, 3, 60, 100
5, 96128, Note_on_c, 3, 57, 100
5, 96248, Note_on_c, 3, 57, 0
5, 96248, Note_on_c, 3, 60, 0
5, 96248, Note_on_c, 3, 62, 100
5, 96248, Note_on_c, 3, 59, 100
5, 96358, Note_on_c, 3, 59, 0
5, 96358, Note_on_c, 3, 62, 0
5, 96368, Note_on_c, 3, 57, 100
5, 96368, Note_on_c, 3, 60, 100
5, 96368, Control_c, 3, 11, 97
5, 96375, Control_c, 3, 11, 94
5, 96382, Control_c, 3, 11, 91
5, 96389, Control_c, 3, 11, 88
5, 96396, Control_c, 3, 11, 85
5, 96403, Control_c, 3, 11, 82
5, 96410, Control_c, 3, 11, 79
5, 96417, Control_c, 3, 11, 76
5, 96425, Control_c, 3, 11, 73
5, 96432, Control_c, 3, 11, 70
5, 96439, Control_c, 3, 11, 67
5, 96446, Control_c, 3, 11, 64
5, 96453, Control_c, 3, 11, 61
5, 96460, Control_c, 3, 11, 58
5, 96467, Control_c, 3, 11, 55
5, 96475, Control_c, 3, 11, 52
5, 96482, Control_c, 3, 11, 49
5, 96488, Note_on_c, 3, 60, 0
5, 96488, Note_on_c, 3, 57, 0
5, 96488, Note_on_c, 3, 59, 100
5, 96488, Note_on_c, 3, 55, 100
5, 96548, Note_on_c, 3, 55, 0
5, 96548, Note_on_c, 3, 59, 0
5, 96608, Note_on_c, 3, 64, 100
5, 96608, Note_on_c, 3, 60, 100
5, 96728, Note_on_c, 3, 60, 0
5, 96728, Note_on_c, 3, 64, 0
5, 96728, Note_on_c, 3, 59, 100
5, 96728, Note_on_c, 3, 62, 100
5, 96848, Note_on_c, 3, 62, 0
5, 96848, Note_on_c, 3, 59, 0
5, 96848, Control_c, 3, 11, 97
5, 96848, Note_on_c, 3, 60, 100
5, 96848, Note_on_c, 3, 57, 100
5, 96855, Control_c, 3, 11, 94
5, 96862, Control_c, 3, 11, 91
5, 96869, Control_c, 3, 11, 88
5, 96876, Control_c, 3, 11, 85
5, 96883, Control_c, 3, 11, 82
5, 96890, Control_c, 3, 11, 79
5, 96897, Control_c, 3, 11, 76
5, 96905, Control_c, 3, 11, 73
5, 96912, Control_c, 3, 11, 70
5, 96919, Control_c, 3, 11, 67
5, 96926, Control_c, 3, 11, 64
5, 96933, Control_c, 3, 11, 61
5, 96940, Control_c, 3, 11, 58
5, 96947, Control_c, 3, 11, 55
5, 96955, Control_c, 3, 11, 52
5, 96962, Control_c, 3, 11, 49
5, 96968, Note_on_c, 3, 57, 0
5, 96968, Note_on_c, 3, 60, 0
5, 96968, Note_on_c, 3, 55, 100
5, 96968, Note_on_c, 3, 59, 100
5, 97028, Note_on_c, 3, 59, 0
5, 97028, Note_on_c, 3, 55, 0
5, 97088, Note_on_c, 3, 60, 100
5, 97088, Note_on_c, 3, 64, 100
5, 97208, Note_on_c, 3, 64, 0
5, 97208, Note_on_c, 3, 60, 0
5, 97208, Note_on_c, 3, 62, 100
5, 97208, Note_on_c, 3, 59, 100
5, 97328, Note_on_c, 3, 59, 0
5, 97328, Note_on_c, 3, 62, 0
5, 97328, Note_on_c, 3, 57, 100
5, 97328, Note_on_c, 3, 60, 100
5, 97328, Control_c, 3, 11, 102
5, 97448, Note_on_c, 3, 60, 0
5, 97448, Note_on_c, 3, 57, 0
5, 97448, Note_on_c, 3, 59, 100
5, 97448, Note_on_c, 3, 55, 100
5, 97568, Control_c, 3, 11, 102
5, 97583, Control_c, 3, 11, 101
5, 97599, Control_c, 3, 11, 100
5, 97615, Control_c, 3, 11, 99
5, 97631, Control_c, 3, 11, 98
5, 97647, Control_c, 3, 11, 97
5, 97663, Control_c, 3, 11, 96
5, 97679, Control_c, 3, 11, 95
5, 97688, Note_on_c, 3, 55, 0
5, 97688, Note_on_c, 3, 59, 0
5, 97688, Note_on_c, 3, 67, 100
5, 97688, Note_on_c, 3, 55, 100
5, 97695, Control_c, 3, 11, 94
5, 97711, Control_c, 3, 11, 93
5, 97727, Control_c, 3, 11, 92
5, 97743, Control_c, 3, 11, 91
5, 97759, Control_c, 3, 11, 90
5, 97775, Control_c, 3, 11, 89
5, 97791, Control_c, 3, 11, 88
5, 97807, Control_c, 3, 11, 87
5, 97825, Control_c, 3, 11, 86
5, 97842, Control_c, 3, 11, 85
5, 97859, Control_c, 3, 11, 84
5, 97876, Control_c, 3, 11, 83
5, 97893, Control_c, 3, 11, 82
5, 97910, Control_c, 3, 11, 81
5, 97927, Control_c, 3, 11, 80
5, 97928, Note_on_c, 3, 55, 0
5, 97928, Note_on_c, 3, 67, 0
5, 97928, Note_on_c, 3, 65, 100
5, 97928, Note_on_c, 3, 53, 100
5, 97944, Control_c, 3, 11, 79
5, 97962, Control_c, 3, 11, 78
5, 97979, Control_c, 3, 11, 77
5, 97996, Control_c, 3, 11, 76
5, 98013, Control_c, 3, 11, 75
5, 98030, Control_c, 3, 11, 74
5, 98047, Control_c, 3, 11, 73
5, 98064, Control_c, 3, 11, 72
5, 98081, Control_c, 3, 11, 71
5, 98098, Control_c, 3, 11, 70
5, 98116, Control_c, 3, 11, 69
5, 98133, Control_c, 3, 11, 68
5, 98150, Control_c, 3, 11, 67
5, 98167, Control_c, 3, 11, 66
5, 98168, Note_on_c, 3, 53, 0
5, 98168, Note_on_c, 3, 65, 0
5, 98168, Note_on_c, 3, 62, 100
5, 98168, Note_on_c, 3, 50, 100
5, 98184, Control_c, 3, 11, 65
5, 98201, Control_c, 3, 11, 64
5, 98218, Control_c, 3, 11, 63
5, 98235, Control_c, 3, 11, 62
5, 98252, Control_c, 3, 11, 61
5, 98270, Control_c, 3, 11, 60
5, 98287, Control_c, 3, 11, 59
5, 98304, Control_c, 3, 11, 58
5, 98321, Control_c, 3, 11, 57
5, 98338, Control_c, 3, 11, 56
5, 98355, Control_c, 3, 11, 55
5, 98372, Control_c, 3, 11, 54
5, 98389, Control_c, 3, 11, 53
5, 98407, Control_c, 3, 11, 52
5, 98408, Note_on_c, 3, 50, 0
5, 98408, Note_on_c, 3, 62, 0
5, 98408, Note_on_c, 3, 59, 100
5, 98408, Note_on_c, 3, 47, 100
5, 98471, Control_c, 3, 11, 51
5, 98535, Control_c, 3, 11, 50
5, 98599, Control_c, 3, 11, 49
5, 98648, Note_on_c, 3, 47, 0
5, 98648, Note_on_c, 3, 59, 0
5, 98648, Note_on_c, 3, 43, 100
5, 98648, Note_on_c, 3, 55, 100
5, 98663, Control_c, 3, 11, 48
5, 98727, Control_c, 3, 11, 47
5, 98791, Control_c, 3, 11, 46
5, 98855, Control_c, 3, 11, 45
5, 98888, Note_on_c, 3, 55, 0
5, 98888, Note_on_c, 3, 43, 0
5, 98888, Note_on_c, 3, 41, 100
5, 98888, Note_on_c, 3, 53, 100
5, 98919, Control_c, 3, 11, 44
5, 98983, Control_c, 3, 11, 43
5, 99047, Control_c, 3, 11, 42
5, 99111, Control_c, 3, 11, 41
5, 99128, Note_on_c, 3, 53, 0
5, 99128, Note_on_c, 3, 41, 0
5, 99128, Note_on_c, 3, 38, 100
5, 99128, Note_on_c, 3, 50, 100
5, 99175, Control_c, 3, 11, 40
5, 99239, Control_c, 3, 11, 39
5, 99303, Control_c, 3, 11, 38
5, 99367, Control_c, 3, 11, 37
5, 99368, Note_on_c, 3, 50, 0
5, 99368, Note_on_c, 3, 38, 0
5, 99368, Control_c, 3, 11, 87
5, 99368, Note_on_c, 3, 49, 100
5, 99728, Note_on_c, 3, 49, 0
5, 100328, Note_on_c, 3, 55, 100
5, 100328, Control_c, 3, 11, 47
5, 100448, Note_on_c, 3, 55, 0
5, 100568, Note_on_c, 3, 52, 100
5, 100688, Note_on_c, 3, 52, 0
5, 100808, Note_on_c, 3, 61, 100
5, 100808, Note_on_c, 3, 49, 100
5, 100928, Note_on_c, 3, 49, 0
5, 101048, Note_on_c, 3, 43, 100
5, 101168, Note_on_c, 3, 43, 0
5, 101288, Note_on_c, 3, 61, 0
5, 101288, Note_on_c, 3, 62, 100
5, 101288, Control_c, 3, 11, 87
5, 101288, Note_on_c, 3, 54, 100
5, 101648, Note_on_c, 3, 54, 0
5, 101648, Note_on_c, 3, 62, 0
5, 102248, Note_on_c, 3, 60, 100
5, 102248, Control_c, 3, 11, 47
5, 102368, Note_on_c, 3, 60, 0
5, 102488, Note_on_c, 3, 57, 100
5, 102608, Note_on_c, 3, 57, 0
5, 102728, Note_on_c, 3, 54, 100
5, 102728, Note_on_c, 3, 66, 100
5, 102848, Note_on_c, 3, 54, 0
5, 102968, Note_on_c, 3, 48, 100
5, 103088, Note_on_c, 3, 48, 0
5, 103208, Note_on_c, 3, 66, 0
5, 103208, Control_c, 3, 11, 87
5, 103208, Note_on_c, 3, 59, 100
5, 103208, Note_on_c, 3, 67, 100
5, 103568, Note_on_c, 3, 67, 0
5, 103568, Note_on_c, 3, 59, 0
5, 104168, Control_c, 3, 11, 47
5, 104168, Note_on_c, 3, 53, 100
5, 104288, Note_on_c, 3, 53, 0
5, 104408, Note_on_c, 3, 50, 100
5, 104528, Note_on_c, 3, 50, 0
5, 104648, Note_on_c, 3, 47, 100
5, 104648, Note_on_c, 3, 65, 100
5, 104768, Note_on_c, 3, 47, 0
5, 104888, Note_on_c, 3, 43, 100
5, 105008, Note_on_c, 3, 43, 0
5, 105128, Note_on_c, 3, 65, 0
5, 105128, Control_c, 3, 11, 87
5, 105128, Note_on_c, 3, 48, 100
5, 105128, Note_on_c, 3, 63, 100
5, 105248, Note_on_c, 3, 63, 0
5, 105248, Note_on_c, 3, 48, 0
5, 106088, Note_on_c, 3, 48, 100
5, 106088, Control_c, 3, 11, 47
5, 106148, Note_on_c, 3, 48, 0
5, 106208, Note_on_c, 3, 51, 100
5, 106268, Note_on_c, 3, 51, 0
5, 106328, Note_on_c, 3, 55, 100
5, 106388, Note_on_c, 3, 55, 0
5, 106448, Note_on_c, 3, 59, 100
5, 106568, Note_on_c, 3, 59, 0
5, 106568, Note_on_c, 3, 60, 100
5, 106688, Note_on_c, 3, 60, 0
5, 106688, Note_on_c, 3, 62, 100
5, 106808, Note_on_c, 3, 62, 0
5, 106808, Note_on_c, 3, 63, 100
5, 106928, Note_on_c, 3, 63, 0
5, 106928, Note_on_c, 3, 64, 100
5, 107048, Note_on_c, 3, 64, 0
5, 107048, Control_c, 3, 11, 87
5, 107048, Note_on_c, 3, 65, 80
5, 107168, Note_on_c, 3, 65, 0
5, 108008, Note_on_c, 3, 53, 100
5, 108008, Control_c, 3, 11, 47
5, 108068, Note_on_c, 3, 53, 0
5, 108128, Note_on_c, 3, 56, 100
5, 108188, Note_on_c, 3, 56, 0
5, 108248, Note_on_c, 3, 60, 100
5, 108308, Note_on_c, 3, 60, 0
5, 108368, Note_on_c, 3, 64, 100
5, 108428, Note_on_c, 3, 64, 0
5, 108488, Note_on_c, 3, 65, 100
5, 108848, Note_on_c, 3, 65, 0
5, 108848, Note_on_c, 3, 63, 100
5, 108968, Note_on_c, 3, 63, 0
5, 108968, Note_on_c, 3, 62, 100
5, 109088, Note_on_c, 3, 62, 0
5, 109448, Note_on_c, 3, 56, 100
5, 109448, Note_on_c, 3, 53, 100
5, 109448, Control_c, 3, 11, 37
5, 109470, Control_c, 3, 11, 38
5, 109492, Control_c, 3, 11, 39
5, 109514, Control_c, 3, 11, 40
5, 109536, Control_c, 3, 11, 41
5, 109558, Control_c, 3, 11, 42
5, 109580, Control_c, 3, 11, 43
5, 109603, Control_c, 3, 11, 44
5, 109625, Control_c, 3, 11, 45
5, 109647, Control_c, 3, 11, 46
5, 109669, Control_c, 3, 11, 47
5, 109691, Control_c, 3, 11, 48
5, 109713, Control_c, 3, 11, 49
5, 109736, Control_c, 3, 11, 50
5, 109758, Control_c, 3, 11, 51
5, 109780, Control_c, 3, 11, 52
5, 109802, Control_c, 3, 11, 53
5, 109824, Control_c, 3, 11, 54
5, 109846, Control_c, 3, 11, 55
5, 109868, Control_c, 3, 11, 56
5, 109891, Control_c, 3, 11, 57
5, 109913, Control_c, 3, 11, 58
5, 109928, Note_on_c, 3, 53, 0
5, 109928, Note_on_c, 3, 56, 0
5, 109928, Note_on_c, 3, 55, 100
5, 109928, Note_on_c, 3, 51, 100
5, 109935, Control_c, 3, 11, 59
5, 109957, Control_c, 3, 11, 60
5, 109979, Control_c, 3, 11, 61
5, 110001, Control_c, 3, 11, 62
5, 110024, Control_c, 3, 11, 63
5, 110046, Control_c, 3, 11, 64
5, 110048, Note_on_c, 3, 51, 0
5, 110048, Note_on_c, 3, 55, 0
5, 110068, Control_c, 3, 11, 65
5, 110090, Control_c, 3, 11, 66
5, 110112, Control_c, 3, 11, 67
5, 110134, Control_c, 3, 11, 68
5, 110156, Control_c, 3, 11, 69
5, 110179, Control_c, 3, 11, 70
5, 110201, Control_c, 3, 11, 71
5, 110223, Control_c, 3, 11, 72
5, 110245, Control_c, 3, 11, 73
5, 110267, Control_c, 3, 11, 74
5, 110289, Control_c, 3, 11, 75
5, 110312, Control_c, 3, 11, 76
5, 110334, Control_c, 3, 11, 77
5, 110356, Control_c, 3, 11, 78
5, 110378, Control_c, 3, 11, 79
5, 110400, Control_c, 3, 11, 80
5, 110408, Note_on_c, 3, 55, 100
5, 110408, Note_on_c, 3, 51, 100
5, 110422, Control_c, 3, 11, 81
5, 110444, Control_c, 3, 11, 82
5, 110467, Control_c, 3, 11, 83
5, 110489, Control_c, 3, 11, 84
5, 110511, Control_c, 3, 11, 85
5, 110533, Control_c, 3, 11, 86
5, 110555, Control_c, 3, 11, 87
5, 110577, Control_c, 3, 11, 88
5, 110600, Control_c, 3, 11, 89
5, 110622, Control_c, 3, 11, 90
5, 110644, Control_c, 3, 11, 91
5, 110666, Control_c, 3, 11, 92
5, 110688, Control_c, 3, 11, 93
5, 110710, Control_c, 3, 11, 94
5, 110732, Control_c, 3, 11, 95
5, 110755, Control_c, 3, 11, 96
5, 110777, Control_c, 3, 11, 97
5, 110799, Control_c, 3, 11, 98
5, 110821, Control_c, 3, 11, 99
5, 110843, Control_c, 3, 11, 100
5, 110865, Control_c, 3, 11, 101
5, 110888, Note_on_c, 3, 55, 0
5, 110888, Control_c, 3, 11, 102
5, 110888, Note_on_c, 3, 57, 100
5, 111008, Note_on_c, 3, 57, 0
5, 111008, Note_on_c, 3, 51, 0
5, 111368, Note_on_c, 3, 63, 100
5, 111368, Note_on_c, 3, 66, 100
5, 111818, Control_c, 3, 11, 102
5, 111823, Control_c, 3, 11, 98
5, 111828, Control_c, 3, 11, 95
5, 111833, Control_c, 3, 11, 92
5, 111838, Control_c, 3, 11, 88
5, 111843, Control_c, 3, 11, 85
5, 111848, Note_on_c, 3, 66, 0
5, 111848, Note_on_c, 3, 63, 0
5, 111848, Control_c, 3, 11, 82
5, 111848, Note_on_c, 3, 65, 85
5, 111848, Note_on_c, 3, 62, 85
5, 111853, Control_c, 3, 11, 78
5, 111858, Control_c, 3, 11, 75
5, 111863, Control_c, 3, 11, 72
5, 111868, Control_c, 3, 11, 68
5, 111873, Control_c, 3, 11, 65
5, 111878, Control_c, 3, 11, 62
5, 111883, Control_c, 3, 11, 58
5, 111888, Control_c, 3, 11, 55
5, 111893, Control_c, 3, 11, 52
5, 111968, Note_on_c, 3, 62, 0
5, 111968, Note_on_c, 3, 65, 0
5, 113768, Note_on_c, 3, 65, 100
5, 113768, Note_on_c, 3, 62, 100
5, 113768, Control_c, 3, 11, 62
5, 113782, Control_c, 3, 11, 65
5, 113796, Control_c, 3, 11, 68
5, 113811, Control_c, 3, 11, 71
5, 113825, Control_c, 3, 11, 74
5, 113840, Control_c, 3, 11, 77
5, 113854, Control_c, 3, 11, 80
5, 113868, Control_c, 3, 11, 83
5, 113876, Note_on_c, 3, 62, 0
5, 113876, Note_on_c, 3, 65, 0
5, 113883, Control_c, 3, 11, 86
5, 113888, Note_on_c, 3, 62, 100
5, 113888, Note_on_c, 3, 65, 100
5, 113996, Note_on_c, 3, 65, 0
5, 113996, Note_on_c, 3, 62, 0
5, 114008, Note_on_c, 3, 67, 100
5, 114008, Note_on_c, 3, 63, 100
5, 114116, Note_on_c, 3, 63, 0
5, 114116, Note_on_c, 3, 67, 0
5, 114128, Note_on_c, 3, 67, 100
5, 114128, Note_on_c, 3, 63, 100
5, 114236, Note_on_c, 3, 63, 0
5, 114236, Note_on_c, 3, 67, 0
5, 114248, Note_on_c, 3, 62, 100
5, 114248, Note_on_c, 3, 65, 100
5, 114356, Note_on_c, 3, 65, 0
5, 114356, Note_on_c, 3, 62, 0
5, 114368, Note_on_c, 3, 62, 100
5, 114368, Note_on_c, 3, 65, 100
5, 114476, Note_on_c, 3, 65, 0
5, 114476, Note_on_c, 3, 62, 0
5, 114488, Note_on_c, 3, 67, 100
5, 114488, Note_on_c, 3, 63, 100
5, 114596, Note_on_c, 3, 63, 0
5, 114596, Note_on_c, 3, 67, 0
5, 114608, Note_on_c, 3, 63, 100
5, 114608, Note_on_c, 3, 67, 100
5, 114716, Note_on_c, 3, 67, 0
5, 114716, Note_on_c, 3, 63, 0
5, 114728, Note_on_c, 3, 62, 100
5, 114728, Note_on_c, 3, 65, 100
5, 114848, Note_on_c, 3, 65, 0
5, 114848, Note_on_c, 3, 62, 0
5, 115688, Control_c, 3, 11, 37
5, 115688, Note_on_c, 3, 63, 110
5, 115710, Control_c, 3, 11, 40
5, 115725, Control_c, 3, 11, 42
5, 115740, Control_c, 3, 11, 44
5, 115755, Control_c, 3, 11, 46
5, 115770, Control_c, 3, 11, 48
5, 115785, Control_c, 3, 11, 50
5, 115800, Control_c, 3, 11, 52
5, 116043, Note_on_c, 3, 63, 0
5, 116048, Note_on_c, 3, 58, 121
5, 116138, Note_on_c, 3, 58, 0
5, 116138, Note_on_c, 3, 62, 121
5, 116163, Note_on_c, 3, 62, 0
5, 116168, Note_on_c, 3, 63, 110
5, 116228, Note_on_c, 3, 63, 0
5, 117248, Note_on_c, 3, 61, 100
5, 117368, Note_on_c, 3, 61, 0
5, 117368, Note_on_c, 3, 60, 100
5, 117488, Note_on_c, 3, 60, 0
5, 117488, Note_on_c, 3, 64, 100
5, 117603, Note_on_c, 3, 64, 0
5, 117608, Note_on_c, 3, 65, 100
5, 117728, Note_on_c, 3, 65, 0
5, 118208, Control_c, 3, 11, 57
5, 118208, Note_on_c, 3, 60, 121
5, 118298, Note_on_c, 3, 60, 0
5, 118298, Note_on_c, 3, 64, 121
5, 118323, Note_on_c, 3, 64, 0
5, 118328, Note_on_c, 3, 65, 110
5, 118388, Note_on_c, 3, 65, 0
5, 119168, Note_on_c, 3, 67, 100
5, 119288, Note_on_c, 3, 67, 0
5, 119288, Note_on_c, 3, 66, 100
5, 119408, Note_on_c, 3, 66, 0
5, 119408, Note_on_c, 3, 62, 100
5, 119523, Note_on_c, 3, 62, 0
5, 119528, Note_on_c, 3, 67, 100
5, 119648, Note_on_c, 3, 67, 0
5, 120128, Note_on_c, 3, 62, 121
5, 120218, Note_on_c, 3, 62, 0
5, 120218, Note_on_c, 3, 66, 121
5, 120243, Note_on_c, 3, 66, 0
5, 120248, Note_on_c, 3, 67, 110
5, 120308, Note_on_c, 3, 67, 0
5, 121088, Control_c, 3, 11, 47
5, 121088, Note_on_c, 3, 67, 100
5, 121208, Note_on_c, 3, 67, 0
5, 121208, Note_on_c, 3, 65, 100
5, 121328, Note_on_c, 3, 65, 0
5, 121328, Note_on_c, 3, 64, 100
5, 121443, Note_on_c, 3, 64, 0
5, 121448, Note_on_c, 3, 62, 100
5, 121568, Note_on_c, 3, 62, 0
5, 121568, Note_on_c, 3, 67, 100
5, 121688, Note_on_c, 3, 67, 0
5, 121688, Note_on_c, 3, 65, 100
5, 121808, Note_on_c, 3, 65, 0
5, 121808, Note_on_c, 3, 61, 100
5, 121923, Note_on_c, 3, 61, 0
5, 121928, Note_on_c, 3, 62, 100
5, 122043, Note_on_c, 3, 62, 0
5, 122048, Note_on_c, 3, 62, 100
5, 122048, Control_c, 3, 11, 52
5, 122168, Note_on_c, 3, 62, 0
5, 122168, Note_on_c, 3, 60, 100
5, 122288, Note_on_c, 3, 60, 0
5, 122288, Note_on_c, 3, 59, 100
5, 122408, Note_on_c, 3, 59, 0
5, 122408, Note_on_c, 3, 57, 100
5, 122523, Note_on_c, 3, 57, 0
5, 122528, Note_on_c, 3, 62, 100
5, 122528, Control_c, 3, 11, 57
5, 122552, Control_c, 3, 11, 58
5, 122576, Control_c, 3, 11, 59
5, 122600, Control_c, 3, 11, 60
5, 122624, Control_c, 3, 11, 61
5, 122648, Note_on_c, 3, 62, 0
5, 122648, Note_on_c, 3, 60, 100
5, 122648, Control_c, 3, 11, 62
5, 122672, Control_c, 3, 11, 63
5, 122696, Control_c, 3, 11, 64
5, 122720, Control_c, 3, 11, 65
5, 122744, Control_c, 3, 11, 66
5, 122768, Note_on_c, 3, 60, 0
5, 122768, Note_on_c, 3, 59, 100
5, 122768, Control_c, 3, 11, 67
5, 122792, Control_c, 3, 11, 68
5, 122816, Control_c, 3, 11, 69
5, 122840, Control_c, 3, 11, 70
5, 122864, Control_c, 3, 11, 71
5, 122888, Note_on_c, 3, 59, 0
5, 122888, Note_on_c, 3, 57, 100
5, 122888, Control_c, 3, 11, 72
5, 122920, Control_c, 3, 11, 73
5, 122952, Control_c, 3, 11, 74
5, 122984, Control_c, 3, 11, 75
5, 123003, Note_on_c, 3, 57, 0
5, 123008, Note_on_c, 3, 57, 100
5, 123008, Note_on_c, 3, 60, 100
5, 123016, Control_c, 3, 11, 76
5, 123048, Control_c, 3, 11, 77
5, 123080, Control_c, 3, 11, 78
5, 123112, Control_c, 3, 11, 79
5, 123128, Note_on_c, 3, 60, 0
5, 123128, Note_on_c, 3, 57, 0
5, 123128, Note_on_c, 3, 59, 100
5, 123128, Note_on_c, 3, 55, 100
5, 123144, Control_c, 3, 11, 80
5, 123176, Control_c, 3, 11, 81
5, 123208, Control_c, 3, 11, 82
5, 123240, Control_c, 3, 11, 83
5, 123248, Note_on_c, 3, 55, 0
5, 123248, Note_on_c, 3, 59, 0
5, 123248, Note_on_c, 3, 57, 100
5, 123248, Note_on_c, 3, 53, 100
5, 123272, Control_c, 3, 11, 84
5, 123304, Control_c, 3, 11, 85
5, 123336, Control_c, 3, 11, 86
5, 123363, Note_on_c, 3, 53, 0
5, 123363, Note_on_c, 3, 57, 0
5, 123368, Control_c, 3, 11, 87
5, 123368, Note_on_c, 3, 56, 100
5, 123368, Note_on_c, 3, 52, 100
5, 123488, Note_on_c, 3, 52, 0
5, 123488, Note_on_c, 3, 56, 0
5, 124328, Control_c, 3, 11, 102
5, 124328, Note_on_c, 3, 57, 90
5, 124328, Note_on_c, 3, 60, 90
5, 124688, Note_on_c, 3, 60, 0
5, 124688, Note_on_c, 3, 57, 0
5, 124688, Note_on_c, 3, 59, 90
5, 124688, Note_on_c, 3, 62, 90
5, 124808, Note_on_c, 3, 62, 0
5, 124808, Note_on_c, 3, 59, 0
5, 124808, Note_on_c, 3, 65, 90
5, 124808, Note_on_c, 3, 62, 90
5, 124928, Note_on_c, 3, 62, 0
5, 124928, Note_on_c, 3, 65, 0
5, 124928, Note_on_c, 3, 64, 90
5, 124928, Note_on_c, 3, 60, 90
5, 125048, Note_on_c, 3, 60, 0
5, 125048, Note_on_c, 3, 64, 0
5, 125048, Note_on_c, 3, 62, 90
5, 125048, Note_on_c, 3, 59, 90
5, 125168, Note_on_c, 3, 59, 0
5, 125168, Note_on_c, 3, 62, 0
5, 125168, Note_on_c, 3, 60, 90
5, 125168, Note_on_c, 3, 57, 90
5, 125288, Note_on_c, 3, 57, 0
5, 125288, Note_on_c, 3, 60, 0
5, 125288, Note_on_c, 3, 56, 90
5, 125288, Note_on_c, 3, 59, 90
5, 125408, Note_on_c, 3, 59, 0
5, 125408, Note_on_c, 3, 56, 0
5, 126248, Note_on_c, 3, 60, 90
5, 126248, Note_on_c, 3, 57, 90
5, 126608, Note_on_c, 3, 57, 0
5, 126608, Note_on_c, 3, 60, 0
5, 126608, Note_on_c, 3, 59, 90
5, 126608, Note_on_c, 3, 62, 90
5, 126728, Note_on_c, 3, 62, 0
5, 126728, Note_on_c, 3, 59, 0
5, 126728, Note_on_c, 3, 62, 90
5, 126728, Note_on_c, 3, 65, 90
5, 126848, Note_on_c, 3, 65, 0
5, 126848, Note_on_c, 3, 62, 0
5, 126848, Note_on_c, 3, 60, 90
5, 126848, Note_on_c, 3, 64, 90
5, 126968, Note_on_c, 3, 64, 0
5, 126968, Note_on_c, 3, 60, 0
5, 126968, Note_on_c, 3, 62, 90
5, 126968, Note_on_c, 3, 59, 90
5, 127088, Note_on_c, 3, 59, 0
5, 127088, Note_on_c, 3, 62, 0
5, 127088, Note_on_c, 3, 57, 90
5, 127088, Note_on_c, 3, 60, 90
5, 127203, Note_on_c, 3, 60, 0
5, 127203, Note_on_c, 3, 57, 0
5, 127208, Note_on_c, 3, 59, 90
5, 127208, Note_on_c, 3, 56, 90
5, 127268, Note_on_c, 3, 56, 0
5, 127268, Note_on_c, 3, 59, 0
5, 127328, Control_c, 3, 11, 122
5, 127328, Note_on_c, 3, 60, 90
5, 127328, Note_on_c, 3, 64, 90
5, 127346, Control_c, 3, 11, 119
5, 127364, Control_c, 3, 11, 116
5, 127382, Control_c, 3, 11, 113
5, 127400, Control_c, 3, 11, 110
5, 127418, Control_c, 3, 11, 107
5, 127436, Control_c, 3, 11, 104
5, 127448, Note_on_c, 3, 64, 0
5, 127448, Note_on_c, 3, 60, 0
5, 127448, Note_on_c, 3, 59, 90
5, 127448, Note_on_c, 3, 62, 90
5, 127568, Note_on_c, 3, 62, 0
5, 127568, Note_on_c, 3, 59, 0
5, 127568, Note_on_c, 3, 60, 90
5, 127568, Note_on_c, 3, 57, 90
5, 127683, Note_on_c, 3, 57, 0
5, 127683, Note_on_c, 3, 60, 0
5, 127688, Note_on_c, 3, 56, 90
5, 127688, Note_on_c, 3, 59, 90
5, 127748, Note_on_c, 3, 59, 0
5, 127748, Note_on_c, 3, 56, 0
5, 127808, Control_c, 3, 11, 122
5, 127808, Note_on_c, 3, 64, 90
5, 127808, Note_on_c, 3, 60, 90
5, 127826, Control_c, 3, 11, 119
5, 127844, Control_c, 3, 11, 116
5, 127862, Control_c, 3, 11, 113
5, 127880, Control_c, 3, 11, 110
5, 127898, Control_c, 3, 11, 107
5, 127916, Control_c, 3, 11, 104
5, 127928, Note_on_c, 3, 60, 0
5, 127928, Note_on_c, 3, 64, 0
5, 127928, Note_on_c, 3, 59, 90
5, 127928, Note_on_c, 3, 62, 90
5, 128048, Note_on_c, 3, 62, 0
5, 128048, Note_on_c, 3, 59, 0
5, 128048, Note_on_c, 3, 57, 90
5, 128048, Note_on_c, 3, 60, 90
5, 128163, Note_on_c, 3, 60, 0
5, 128163, Note_on_c, 3, 57, 0
5, 128168, Note_on_c, 3, 59, 90
5, 128168, Note_on_c, 3, 56, 90
5, 128288, Note_on_c, 3, 56, 0
5, 128288, Note_on_c, 3, 59, 0
5, 128648, Note_on_c, 3, 64, 90
5, 128648, Note_on_c, 3, 52, 90
5, 128720, Note_on_c, 3, 52, 0
5, 128720, Note_on_c, 3, 64, 0
5, 128888, Note_on_c, 3, 52, 90
5, 128888, Note_on_c, 3, 64, 90
5, 128960, Note_on_c, 3, 64, 0
5, 128960, Note_on_c, 3, 52, 0
5, 129128, Control_c, 3, 11, 122
5, 129128, Note_on_c, 3, 52, 90
5, 129128, Note_on_c, 3, 64, 90
5, 129136, Control_c, 3, 11, 119
5, 129144, Control_c, 3, 11, 116
5, 129152, Control_c, 3, 11, 113
5, 129160, Control_c, 3, 11, 110
5, 129168, Control_c, 3, 11, 107
5, 129176, Control_c, 3, 11, 104
5, 129184, Control_c, 3, 11, 101
5, 129192, Control_c, 3, 11, 98
5, 129200, Control_c, 3, 11, 95
5, 129208, Control_c, 3, 11, 92
5, 129216, Control_c, 3, 11, 89
5, 129224, Control_c, 3, 11, 86
5, 129232, Control_c, 3, 11, 83
5, 129240, Control_c, 3, 11, 80
5, 129248, Control_c, 3, 11, 77
5, 129271, Control_c, 3, 11, 75
5, 129294, Control_c, 3, 11, 73
5, 129317, Control_c, 3, 11, 71
5, 129340, Control_c, 3, 11, 69
5, 129363, Control_c, 3, 11, 67
5, 129386, Control_c, 3, 11, 65
5, 129409, Control_c, 3, 11, 63
5, 129432, Control_c, 3, 11, 61
5, 129455, Control_c, 3, 11, 59
5, 129478, Control_c, 3, 11, 57
5, 129508, Control_c, 3, 11, 56
5, 129538, Control_c, 3, 11, 55
5, 129569, Control_c, 3, 11, 54
5, 129599, Control_c, 3, 11, 53
5, 129630, Control_c, 3, 11, 52
5, 129660, Control_c, 3, 11, 51
5, 129691, Control_c, 3, 11, 50
5, 129721, Control_c, 3, 11, 49
5, 129752, Control_c, 3, 11, 48
5, 129782, Control_c, 3, 11, 47
5, 129812, Control_c, 3, 11, 46
5, 129843, Control_c, 3, 11, 45
5, 129873, Control_c, 3, 11, 44
5, 129904, Control_c, 3, 11, 43
5, 129934, Control_c, 3, 11, 42
5, 129965, Control_c, 3, 11, 41
5, 129995, Control_c, 3, 11, 40
5, 130026, Control_c, 3, 11, 39
5, 130056, Control_c, 3, 11, 38
5, 130083, Note_on_c, 3, 64, 0
5, 130083, Note_on_c, 3, 52, 0
5, 130087, Control_c, 3, 11, 37
5, 130088, Note_on_c, 3, 53, 100
5, 130088, Note_on_c, 3, 65, 100
5, 130568, Note_on_c, 3, 65, 0
5, 130568, Note_on_c, 3, 53, 0
5, 130568, Note_on_c, 3, 50, 100
5, 130568, Control_c, 3, 11, 37
5, 130568, Note_on_c, 3, 62, 100
5, 130588, Control_c, 3, 11, 38
5, 130608, Control_c, 3, 11, 39
5, 130628, Control_c, 3, 11, 40
5, 130648, Control_c, 3, 11, 41
5, 130668, Control_c, 3, 11, 42
5, 130688, Control_c, 3, 11, 43
5, 130708, Control_c, 3, 11, 44
5, 130728, Control_c, 3, 11, 45
5, 130748, Control_c, 3, 11, 46
5, 130768, Control_c, 3, 11, 47
5, 130788, Control_c, 3, 11, 48
5, 130808, Control_c, 3, 11, 49
5, 130828, Control_c, 3, 11, 50
5, 130848, Control_c, 3, 11, 51
5, 130868, Control_c, 3, 11, 52
5, 130888, Control_c, 3, 11, 53
5, 130908, Control_c, 3, 11, 54
5, 130928, Control_c, 3, 11, 55
5, 130948, Control_c, 3, 11, 56
5, 130968, Control_c, 3, 11, 57
5, 130988, Control_c, 3, 11, 58
5, 131008, Control_c, 3, 11, 59
5, 131028, Control_c, 3, 11, 60
5, 131048, Note_on_c, 3, 62, 0
5, 131048, Note_on_c, 3, 50, 0
5, 131048, Note_on_c, 3, 47, 100
5, 131048, Control_c, 3, 11, 61
5, 131048, Note_on_c, 3, 59, 100
5, 131068, Control_c, 3, 11, 62
5, 131088, Control_c, 3, 11, 63
5, 131108, Control_c, 3, 11, 64
5, 131128, Control_c, 3, 11, 65
5, 131148, Control_c, 3, 11, 66
5, 131168, Control_c, 3, 11, 67
5, 131188, Control_c, 3, 11, 68
5, 131208, Control_c, 3, 11, 69
5, 131228, Control_c, 3, 11, 70
5, 131248, Control_c, 3, 11, 71
5, 131268, Control_c, 3, 11, 72
5, 131288, Control_c, 3, 11, 73
5, 131308, Control_c, 3, 11, 74
5, 131328, Control_c, 3, 11, 75
5, 131348, Control_c, 3, 11, 76
5, 131368, Control_c, 3, 11, 77
5, 131388, Control_c, 3, 11, 78
5, 131408, Control_c, 3, 11, 79
5, 131428, Control_c, 3, 11, 80
5, 131448, Control_c, 3, 11, 81
5, 131468, Control_c, 3, 11, 82
5, 131488, Control_c, 3, 11, 83
5, 131508, Control_c, 3, 11, 84
5, 131528, Note_on_c, 3, 59, 0
5, 131528, Note_on_c, 3, 47, 0
5, 131528, Note_on_c, 3, 43, 100
5, 131528, Control_c, 3, 11, 85
5, 131528, Note_on_c, 3, 55, 100
5, 131547, Control_c, 3, 11, 86
5, 131576, Control_c, 3, 11, 87
5, 131604, Control_c, 3, 11, 88
5, 131633, Control_c, 3, 11, 89
5, 131662, Control_c, 3, 11, 90
5, 131691, Control_c, 3, 11, 91
5, 131720, Control_c, 3, 11, 92
5, 131748, Control_c, 3, 11, 93
5, 131777, Control_c, 3, 11, 94
5, 131806, Control_c, 3, 11, 95
5, 131835, Control_c, 3, 11, 96
5, 131864, Control_c, 3, 11, 97
5, 131892, Control_c, 3, 11, 98
5, 131921, Control_c, 3, 11, 99
5, 131950, Control_c, 3, 11, 100
5, 131979, Control_c, 3, 11, 101
5, 132008, Note_on_c, 3, 55, 0
5, 132008, Note_on_c, 3, 43, 0
5, 132008, Control_c, 3, 11, 102
5, 132008, Note_on_c, 3, 48, 100
5, 132316, Note_on_c, 3, 48, 0
5, 132368, Note_on_c, 3, 43, 100
5, 132458, Note_on_c, 3, 43, 0
5, 132458, Note_on_c, 3, 47, 100
5, 132478, Note_on_c, 3, 47, 0
5, 132488, Note_on_c, 3, 48, 100
5, 132796, Note_on_c, 3, 48, 0
5, 132848, Note_on_c, 3, 43, 100
5, 132938, Note_on_c, 3, 43, 0
5, 132938, Note_on_c, 3, 47, 100
5, 132958, Note_on_c, 3, 47, 0
5, 132968, Note_on_c, 3, 48, 100
5, 132998, Note_on_c, 3, 48, 0
5, 133028, Note_on_c, 3, 48, 100
5, 133058, Note_on_c, 3, 48, 0
5, 133088, Note_on_c, 3, 43, 100
5, 133118, Note_on_c, 3, 43, 0
5, 133148, Note_on_c, 3, 47, 100
5, 133178, Note_on_c, 3, 47, 0
5, 133208, Note_on_c, 3, 48, 100
5, 133238, Note_on_c, 3, 48, 0
5, 133268, Note_on_c, 3, 48, 100
5, 133298, Note_on_c, 3, 48, 0
5, 133328, Note_on_c, 3, 43, 100
5, 133358, Note_on_c, 3, 43, 0
5, 133388, Note_on_c, 3, 47, 100
5, 133418, Note_on_c, 3, 47, 0
5, 133448, Note_on_c, 3, 48, 100
5, 133508, Note_on_c, 3, 48, 0
5, 133568, Note_on_c, 3, 52, 100
5, 133628, Note_on_c, 3, 52, 0
5, 133688, Note_on_c, 3, 55, 100
5, 133748, Note_on_c, 3, 55, 0
5, 133808, Note_on_c, 3, 59, 100
5, 133868, Note_on_c, 3, 59, 0
5, 133928, Control_c, 3, 11, 47
5, 133928, Note_on_c, 3, 60, 90
5, 133928, Note_on_c, 3, 64, 90
5, 133947, Control_c, 3, 11, 48
5, 133966, Control_c, 3, 11, 49
5, 133985, Control_c, 3, 11, 50
5, 134004, Control_c, 3, 11, 51
5, 134023, Control_c, 3, 11, 52
5, 134042, Control_c, 3, 11, 53
5, 134062, Control_c, 3, 11, 54
5, 134081, Control_c, 3, 11, 55
5, 134100, Control_c, 3, 11, 56
5, 134119, Control_c, 3, 11, 57
5, 134138, Control_c, 3, 11, 58
5, 134157, Control_c, 3, 11, 59
5, 134177, Control_c, 3, 11, 60
5, 134196, Control_c, 3, 11, 61
5, 134215, Control_c, 3, 11, 62
5, 134234, Control_c, 3, 11, 63
5, 134253, Control_c, 3, 11, 64
5, 134272, Control_c, 3, 11, 65
5, 134292, Control_c, 3, 11, 66
5, 134311, Control_c, 3, 11, 67
5, 134330, Control_c, 3, 11, 68
5, 134349, Control_c, 3, 11, 69
5, 134368, Control_c, 3, 11, 70
5, 134387, Control_c, 3, 11, 71
5, 134407, Control_c, 3, 11, 72
5, 134408, Note_on_c, 3, 60, 0
5, 134408, Note_on_c, 3, 57, 90
5, 134424, Control_c, 3, 11, 73
5, 134440, Control_c, 3, 11, 74
5, 134456, Control_c, 3, 11, 75
5, 134472, Control_c, 3, 11, 76
5, 134488, Control_c, 3, 11, 77
5, 134504, Control_c, 3, 11, 78
5, 134520, Control_c, 3, 11, 79
5, 134536, Control_c, 3, 11, 80
5, 134552, Control_c, 3, 11, 81
5, 134568, Control_c, 3, 11, 82
5, 134584, Control_c, 3, 11, 83
5, 134600, Control_c, 3, 11, 84
5, 134616, Control_c, 3, 11, 85
5, 134632, Control_c, 3, 11, 86
5, 134648, Control_c, 3, 11, 87
5, 134664, Control_c, 3, 11, 88
5, 134680, Control_c, 3, 11, 89
5, 134696, Control_c, 3, 11, 90
5, 134712, Control_c, 3, 11, 91
5, 134728, Control_c, 3, 11, 92
5, 134744, Control_c, 3, 11, 93
5, 134760, Control_c, 3, 11, 94
5, 134776, Control_c, 3, 11, 95
5, 134792, Control_c, 3, 11, 96
5, 134808, Control_c, 3, 11, 97
5, 134824, Control_c, 3, 11, 98
5, 134840, Control_c, 3, 11, 99
5, 134856, Control_c, 3, 11, 100
5, 134872, Control_c, 3, 11, 101
5, 134888, Note_on_c, 3, 57, 0
5, 134888, Note_on_c, 3, 64, 0
5, 134888, Note_on_c, 3, 62, 100
5, 134888, Control_c, 3, 11, 102
5, 134888, Note_on_c, 3, 50, 100
5, 135196, Note_on_c, 3, 50, 0
5, 135196, Note_on_c, 3, 62, 0
5, 135248, Note_on_c, 3, 45, 100
5, 135248, Note_on_c, 3, 57, 100
5, 135338, Note_on_c, 3, 57, 0
5, 135338, Note_on_c, 3, 45, 0
5, 135338, Note_on_c, 3, 49, 100
5, 135338, Note_on_c, 3, 61, 100
5, 135358, Note_on_c, 3, 61, 0
5, 135358, Note_on_c, 3, 49, 0
5, 135368, Note_on_c, 3, 50, 100
5, 135368, Note_on_c, 3, 62, 100
5, 135676, Note_on_c, 3, 62, 0
5, 135676, Note_on_c, 3, 50, 0
5, 135728, Note_on_c, 3, 57, 100
5, 135728, Note_on_c, 3, 45, 100
5, 135818, Note_on_c, 3, 45, 0
5, 135818, Note_on_c, 3, 57, 0
5, 135818, Note_on_c, 3, 61, 100
5, 135818, Note_on_c, 3, 49, 100
5, 135838, Note_on_c, 3, 49, 0
5, 135838, Note_on_c, 3, 61, 0
5, 135848, Note_on_c, 3, 62, 100
5, 135848, Note_on_c, 3, 50, 100
5, 135878, Note_on_c, 3, 50, 0
5, 135878, Note_on_c, 3, 62, 0
5, 135908, Note_on_c, 3, 62, 100
5, 135908, Note_on_c, 3, 50, 100
5, 135938, Note_on_c, 3, 50, 0
5, 135938, Note_on_c, 3, 62, 0
5, 135968, Note_on_c, 3, 45, 100
5, 135968, Note_on_c, 3, 57, 100
5, 135998, Note_on_c, 3, 57, 0
5, 135998, Note_on_c, 3, 45, 0
5, 136028, Note_on_c, 3, 49, 100
5, 136028, Note_on_c, 3, 61, 100
5, 136058, Note_on_c, 3, 61, 0
5, 136058, Note_on_c, 3, 49, 0
5, 136088, Note_on_c, 3, 62, 100
5, 136088, Note_on_c, 3, 50, 100
5, 136118, Note_on_c, 3, 50, 0
5, 136118, Note_on_c, 3, 62, 0
5, 136148, Note_on_c, 3, 62, 100
5, 136148, Note_on_c, 3, 50, 100
5, 136178, Note_on_c, 3, 50, 0
5, 136178, Note_on_c, 3, 62, 0
5, 136208, Note_on_c, 3, 57, 100
5, 136208, Note_on_c, 3, 45, 100
5, 136238, Note_on_c, 3, 45, 0
5, 136238, Note_on_c, 3, 57, 0
5, 136268, Note_on_c, 3, 49, 100
5, 136268, Note_on_c, 3, 61, 100
5, 136298, Note_on_c, 3, 61, 0
5, 136298, Note_on_c, 3, 49, 0
5, 136328, Note_on_c, 3, 50, 100
5, 136328, Note_on_c, 3, 62, 100
5, 136388, Note_on_c, 3, 62, 0
5, 136388, Note_on_c, 3, 50, 0
5, 136448, Note_on_c, 3, 53, 100
5, 136508, Note_on_c, 3, 53, 0
5, 136568, Note_on_c, 3, 57, 100
5, 136628, Note_on_c, 3, 57, 0
5, 136688, Note_on_c, 3, 61, 100
5, 136748, Note_on_c, 3, 61, 0
5, 136808, Note_on_c, 3, 62, 90
5, 136808, Control_c, 3, 11, 47
5, 137288, Note_on_c, 3, 62, 0
5, 137288, Note_on_c, 3, 60, 90
5, 137288, Note_on_c, 3, 48, 90
5, 137768, Note_on_c, 3, 48, 0
5, 137768, Note_on_c, 3, 53, 90
5, 138248, Note_on_c, 3, 53, 0
5, 138248, Note_on_c, 3, 60, 0
5, 138248, Note_on_c, 3, 50, 90
5, 138248, Control_c, 3, 11, 47
5, 138248, Note_on_c, 3, 62, 90
5, 138296, Control_c, 3, 11, 48
5, 138344, Control_c, 3, 11, 49
5, 138392, Control_c, 3, 11, 50
5, 138440, Control_c, 3, 11, 51
5, 138488, Control_c, 3, 11, 52
5, 138536, Control_c, 3, 11, 53
5, 138584, Control_c, 3, 11, 54
5, 138632, Control_c, 3, 11, 55
5, 138680, Control_c, 3, 11, 56
5, 138728, Note_on_c, 3, 50, 0
5, 138728, Note_on_c, 3, 55, 90
5, 138728, Control_c, 3, 11, 57
5, 138776, Control_c, 3, 11, 58
5, 138824, Control_c, 3, 11, 59
5, 138872, Control_c, 3, 11, 60
5, 138920, Control_c, 3, 11, 61
5, 138968, Note_on_c, 3, 55, 0
5, 138968, Note_on_c, 3, 62, 0
5, 138968, Note_on_c, 3, 52, 90
5, 138968, Control_c, 3, 11, 62
5, 138968, Note_on_c, 3, 64, 90
5, 139016, Control_c, 3, 11, 63
5, 139064, Control_c, 3, 11, 64
5, 139112, Control_c, 3, 11, 65
5, 139160, Control_c, 3, 11, 66
5, 139208, Note_on_c, 3, 52, 0
5, 139208, Note_on_c, 3, 57, 90
5, 139208, Control_c, 3, 11, 67
5, 139256, Control_c, 3, 11, 68
5, 139304, Control_c, 3, 11, 69
5, 139352, Control_c, 3, 11, 70
5, 139400, Control_c, 3, 11, 71
5, 139448, Note_on_c, 3, 57, 0
5, 139448, Note_on_c, 3, 64, 0
5, 139448, Control_c, 3, 11, 72
5, 139448, Note_on_c, 3, 53, 90
5, 139448, Note_on_c, 3, 65, 90
5, 139496, Control_c, 3, 11, 73
5, 139544, Control_c, 3, 11, 74
5, 139592, Control_c, 3, 11, 75
5, 139640, Control_c, 3, 11, 76
5, 139688, Note_on_c, 3, 53, 0
5, 139688, Control_c, 3, 11, 77
5, 139688, Note_on_c, 3, 58, 90
5, 139736, Control_c, 3, 11, 78
5, 139784, Control_c, 3, 11, 79
5, 139832, Control_c, 3, 11, 80
5, 139880, Control_c, 3, 11, 81
5, 139928, Note_on_c, 3, 58, 0
5, 139928, Note_on_c, 3, 65, 0
5, 139928, Control_c, 3, 11, 82
5, 139928, Note_on_c, 3, 67, 90
5, 139928, Note_on_c, 3, 55, 90
5, 139976, Control_c, 3, 11, 83
5, 140024, Control_c, 3, 11, 84
5, 140072, Control_c, 3, 11, 85
5, 140120, Control_c, 3, 11, 86
5, 140168, Note_on_c, 3, 55, 0
5, 140168, Note_on_c, 3, 60, 90
5, 140168, Control_c, 3, 11, 87
5, 140216, Control_c, 3, 11, 88
5, 140264, Control_c, 3, 11, 89
5, 140312, Control_c, 3, 11, 90
5, 140360, Control_c, 3, 11, 91
5, 140408, Note_on_c, 3, 60, 0
5, 140408, Note_on_c, 3, 67, 0
5, 140408, Note_on_c, 3, 57, 90
5, 140408, Control_c, 3, 11, 92
5, 140408, Note_on_c, 3, 67, 90
5, 140456, Control_c, 3, 11, 93
5, 140504, Control_c, 3, 11, 94
5, 140552, Control_c, 3, 11, 95
5, 140600, Control_c, 3, 11, 96
5, 140648, Note_on_c, 3, 67, 0
5, 140648, Note_on_c, 3, 57, 0
5, 140648, Note_on_c, 3, 62, 90
5, 140648, Note_on_c, 3, 65, 90
5, 140648, Control_c, 3, 11, 97
5, 140696, Control_c, 3, 11, 98
5, 140744, Control_c, 3, 11, 99
5, 140792, Control_c, 3, 11, 100
5, 140840, Control_c, 3, 11, 101
5, 140888, Note_on_c, 3, 65, 0
5, 140888, Note_on_c, 3, 62, 0
5, 140888, Note_on_c, 3, 60, 90
5, 140888, Control_c, 3, 11, 102
5, 140888, Note_on_c, 3, 67, 90
5, 141128, Note_on_c, 3, 67, 0
5, 141128, Note_on_c, 3, 60, 0
5, 141128, Note_on_c, 3, 65, 90
5, 141128, Note_on_c, 3, 53, 90
5, 141368, Note_on_c, 3, 53, 0
5, 141368, Note_on_c, 3, 65, 0
5, 141368, Note_on_c, 3, 62, 90
5, 141368, Note_on_c, 3, 50, 90
5, 141608, Note_on_c, 3, 50, 0
5, 141608, Note_on_c, 3, 62, 0
5, 141608, Note_on_c, 3, 55, 90
5, 141608, Note_on_c, 3, 43, 90
5, 141960, Note_on_c, 3, 43, 0
5, 141960, Note_on_c, 3, 55, 0
5, 141968, Note_on_c, 3, 59, 100
5, 141968, Note_on_c, 3, 62, 100
5, 142080, Note_on_c, 3, 62, 0
5, 142080, Note_on_c, 3, 59, 0
5, 142088, Note_on_c, 3, 64, 100
5, 142088, Note_on_c, 3, 60, 100
5, 142200, Note_on_c, 3, 60, 0
5, 142200, Note_on_c, 3, 64, 0
5, 142208, Note_on_c, 3, 64, 100
5, 142208, Note_on_c, 3, 60, 100
5, 142320, Note_on_c, 3, 60, 0
5, 142320, Note_on_c, 3, 64, 0
5, 142328, Note_on_c, 3, 60, 100
5, 142328, Note_on_c, 3, 57, 100
5, 142440, Note_on_c, 3, 57, 0
5, 142440, Note_on_c, 3, 60, 0
5, 142448, Note_on_c, 3, 60, 100
5, 142448, Note_on_c, 3, 57, 100
5, 142560, Note_on_c, 3, 57, 0
5, 142560, Note_on_c, 3, 60, 0
5, 142568, Note_on_c, 3, 59, 100
5, 142568, Note_on_c, 3, 55, 100
5, 142680, Note_on_c, 3, 55, 0
5, 142680, Note_on_c, 3, 59, 0
5, 142688, Note_on_c, 3, 55, 100
5, 142688, Note_on_c, 3, 59, 100
5, 142688, Control_c, 3, 11, 122
5, 142706, Control_c, 3, 11, 119
5, 142724, Control_c, 3, 11, 116
5, 142742, Control_c, 3, 11, 113
5, 142760, Control_c, 3, 11, 110
5, 142778, Control_c, 3, 11, 107
5, 142796, Control_c, 3, 11, 104
5, 142800, Note_on_c, 3, 59, 0
5, 142800, Note_on_c, 3, 55, 0
5, 142808, Note_on_c, 3, 62, 100
5, 142808, Note_on_c, 3, 59, 100
5, 142920, Note_on_c, 3, 59, 0
5, 142920, Note_on_c, 3, 62, 0
5, 142928, Note_on_c, 3, 62, 100
5, 142928, Note_on_c, 3, 59, 100
5, 143040, Note_on_c, 3, 59, 0
5, 143040, Note_on_c, 3, 62, 0
5, 143048, Note_on_c, 3, 64, 100
5, 143048, Note_on_c, 3, 60, 100
5, 143160, Note_on_c, 3, 60, 0
5, 143160, Note_on_c, 3, 64, 0
5, 143168, Note_on_c, 3, 60, 100
5, 143168, Note_on_c, 3, 64, 100
5, 143280, Note_on_c, 3, 64, 0
5, 143280, Note_on_c, 3, 60, 0
5, 143288, Note_on_c, 3, 60, 100
5, 143288, Note_on_c, 3, 57, 100
5, 143400, Note_on_c, 3, 57, 0
5, 143400, Note_on_c, 3, 60, 0
5, 143408, Note_on_c, 3, 60, 100
5, 143408, Note_on_c, 3, 57, 100
5, 143520, Note_on_c, 3, 57, 0
5, 143520, Note_on_c, 3, 60, 0
5, 143528, Note_on_c, 3, 55, 100
5, 143558, Note_on_c, 3, 55, 0
5, 143588, Note_on_c, 3, 57, 100
5, 143618, Note_on_c, 3, 57, 0
5, 143648, Note_on_c, 3, 59, 100
5, 143678, Note_on_c, 3, 59, 0
5, 143708, Note_on_c, 3, 60, 100
5, 143738, Note_on_c, 3, 60, 0
5, 143768, Note_on_c, 3, 62, 100
5, 143768, Control_c, 3, 11, 122
5, 143786, Control_c, 3, 11, 119
5, 143798, Note_on_c, 3, 62, 0
5, 143804, Control_c, 3, 11, 116
5, 143822, Control_c, 3, 11, 113
5, 143828, Note_on_c, 3, 60, 100
5, 143840, Control_c, 3, 11, 110
5, 143858, Note_on_c, 3, 60, 0
5, 143858, Control_c, 3, 11, 107
5, 143876, Control_c, 3, 11, 104
5, 143888, Note_on_c, 3, 59, 100
5, 143918, Note_on_c, 3, 59, 0
5, 143948, Note_on_c, 3, 57, 100
5, 143978, Note_on_c, 3, 57, 0
5, 144008, Note_on_c, 3, 55, 100
5, 144038, Note_on_c, 3, 55, 0
5, 144068, Note_on_c, 3, 57, 100
5, 144098, Note_on_c, 3, 57, 0
5, 144128, Note_on_c, 3, 59, 100
5, 144158, Note_on_c, 3, 59, 0
5, 144188, Note_on_c, 3, 60, 100
5, 144218, Note_on_c, 3, 60, 0
5, 144248, Control_c, 3, 11, 122
5, 144248, Note_on_c, 3, 62, 100
5, 144266, Control_c, 3, 11, 119
5, 144278, Note_on_c, 3, 62, 0
5, 144284, Control_c, 3, 11, 116
5, 144302, Control_c, 3, 11, 113
5, 144308, Note_on_c, 3, 60, 100
5, 144320, Control_c, 3, 11, 110
5, 144338, Note_on_c, 3, 60, 0
5, 144338, Control_c, 3, 11, 107
5, 144356, Control_c, 3, 11, 104
5, 144368, Note_on_c, 3, 59, 100
5, 144398, Note_on_c, 3, 59, 0
5, 144428, Note_on_c, 3, 57, 100
5, 144458, Note_on_c, 3, 57, 0
5, 144488, Note_on_c, 3, 55, 100
5, 144608, Note_on_c, 3, 55, 0
5, 145928, Control_c, 3, 11, 52
5, 145928, Note_on_c, 3, 65, 100
5, 146228, Note_on_c, 3, 65, 0
5, 146228, Note_on_c, 3, 64, 100
5, 146288, Note_on_c, 3, 64, 0
5, 146288, Note_on_c, 3, 62, 100
5, 146348, Note_on_c, 3, 62, 0
5, 146348, Note_on_c, 3, 60, 100
5, 146398, Note_on_c, 3, 60, 0
5, 146408, Note_on_c, 3, 59, 100
5, 146528, Note_on_c, 3, 59, 0
5, 146888, Note_on_c, 3, 67, 100
5, 147188, Note_on_c, 3, 67, 0
5, 147188, Note_on_c, 3, 64, 100
5, 147248, Note_on_c, 3, 64, 0
5, 147248, Note_on_c, 3, 62, 100
5, 147308, Note_on_c, 3, 62, 0
5, 147308, Note_on_c, 3, 60, 100
5, 147358, Note_on_c, 3, 60, 0
5, 147368, Note_on_c, 3, 59, 100
5, 147488, Note_on_c, 3, 59, 0
5, 147488, Note_on_c, 3, 65, 100
5, 147488, Control_c, 3, 11, 87
5, 147512, Control_c, 3, 11, 85
5, 147536, Control_c, 3, 11, 83
5, 147560, Control_c, 3, 11, 81
5, 147584, Control_c, 3, 11, 79
5, 147608, Control_c, 3, 11, 77
5, 147728, Note_on_c, 3, 65, 0
5, 147728, Note_on_c, 3, 64, 100
5, 147838, Note_on_c, 3, 64, 0
5, 147848, Note_on_c, 3, 59, 100
5, 147968, Note_on_c, 3, 59, 0
5, 147968, Control_c, 3, 11, 77
5, 147968, Note_on_c, 3, 62, 100
5, 147987, Control_c, 3, 11, 75
5, 148006, Control_c, 3, 11, 73
5, 148025, Control_c, 3, 11, 71
5, 148044, Control_c, 3, 11, 69
5, 148064, Control_c, 3, 11, 67
5, 148083, Control_c, 3, 11, 65
5, 148102, Control_c, 3, 11, 63
5, 148121, Control_c, 3, 11, 61
5, 148140, Control_c, 3, 11, 59
5, 148160, Control_c, 3, 11, 57
5, 148179, Control_c, 3, 11, 55
5, 148198, Control_c, 3, 11, 53
5, 148208, Note_on_c, 3, 62, 0
5, 148208, Note_on_c, 3, 60, 100
5, 148318, Note_on_c, 3, 60, 0
5, 148328, Note_on_c, 3, 59, 100
5, 148568, Note_on_c, 3, 59, 0
5, 148568, Note_on_c, 3, 60, 100
5, 148798, Note_on_c, 3, 60, 0
5, 148808, Note_on_c, 3, 59, 100
5, 148928, Note_on_c, 3, 59, 0
5, 149288, Note_on_c, 3, 52, 100
5, 149288, Note_on_c, 3, 48, 100
5, 149288, Control_c, 3, 11, 52
5, 149348, Note_on_c, 3, 48, 0
5, 149348, Note_on_c, 3, 52, 0
5, 149408, Note_on_c, 3, 55, 100
5, 149408, Note_on_c, 3, 52, 100
5, 149468, Note_on_c, 3, 52, 0
5, 149468, Note_on_c, 3, 55, 0
5, 149528, Note_on_c, 3, 55, 100
5, 149528, Note_on_c, 3, 60, 100
5, 149588, Note_on_c, 3, 60, 0
5, 149588, Note_on_c, 3, 55, 0
5, 149648, Note_on_c, 3, 64, 100
5, 149648, Note_on_c, 3, 60, 100
5, 149708, Note_on_c, 3, 60, 0
5, 149708, Note_on_c, 3, 64, 0
5, 149768, Note_on_c, 3, 65, 115
5, 150068, Note_on_c, 3, 65, 0
5, 150068, Note_on_c, 3, 64, 115
5, 150128, Note_on_c, 3, 64, 0
5, 150128, Note_on_c, 3, 62, 115
5, 150188, Note_on_c, 3, 62, 0
5, 150188, Note_on_c, 3, 60, 115
5, 150238, Note_on_c, 3, 60, 0
5, 150248, Note_on_c, 3, 59, 100
5, 150368, Note_on_c, 3, 59, 0
5, 150728, Note_on_c, 3, 52, 100
5, 150728, Note_on_c, 3, 48, 100
5, 150788, Note_on_c, 3, 48, 0
5, 150788, Note_on_c, 3, 52, 0
5, 150848, Note_on_c, 3, 55, 100
5, 150848, Note_on_c, 3, 52, 100
5, 150908, Note_on_c, 3, 52, 0
5, 150908, Note_on_c, 3, 55, 0
5, 150968, Note_on_c, 3, 55, 100
5, 150968, Note_on_c, 3, 60, 100
5, 151028, Note_on_c, 3, 60, 0
5, 151028, Note_on_c, 3, 55, 0
5, 151088, Note_on_c, 3, 64, 100
5, 151088, Note_on_c, 3, 60, 100
5, 151148, Note_on_c, 3, 60, 0
5, 151148, Note_on_c, 3, 64, 0
5, 151208, Note_on_c, 3, 60, 100
5, 151208, Note_on_c, 3, 65, 100
5, 151318, Note_on_c, 3, 65, 0
5, 151318, Note_on_c, 3, 60, 0
5, 151328, Note_on_c, 3, 60, 100
5, 151558, Note_on_c, 3, 60, 0
5, 151568, Note_on_c, 3, 61, 100
5, 151568, Note_on_c, 3, 52, 100
5, 151568, Control_c, 3, 11, 77
5, 151582, Control_c, 3, 11, 74
5, 151596, Control_c, 3, 11, 71
5, 151611, Control_c, 3, 11, 68
5, 151625, Control_c, 3, 11, 65
5, 151640, Control_c, 3, 11, 62
5, 151654, Control_c, 3, 11, 59
5, 151668, Control_c, 3, 11, 56
5, 151683, Control_c, 3, 11, 53
5, 151688, Note_on_c, 3, 52, 0
5, 151688, Note_on_c, 3, 61, 0
5, 151688, Note_on_c, 3, 53, 100
5, 151688, Note_on_c, 3, 60, 100
5, 151798, Note_on_c, 3, 60, 0
5, 151798, Note_on_c, 3, 53, 0
5, 151808, Note_on_c, 3, 60, 100
5, 152038, Note_on_c, 3, 60, 0
5, 152048, Control_c, 3, 11, 77
5, 152048, Note_on_c, 3, 52, 100
5, 152048, Note_on_c, 3, 61, 100
5, 152062, Control_c, 3, 11, 74
5, 152076, Control_c, 3, 11, 71
5, 152091, Control_c, 3, 11, 68
5, 152105, Control_c, 3, 11, 65
5, 152120, Control_c, 3, 11, 62
5, 152134, Control_c, 3, 11, 59
5, 152148, Control_c, 3, 11, 56
5, 152163, Control_c, 3, 11, 53
5, 152168, Note_on_c, 3, 52, 0
5, 152168, Note_on_c, 3, 53, 100
5, 152278, Note_on_c, 3, 53, 0
5, 152278, Note_on_c, 3, 61, 0
5, 152288, Note_on_c, 3, 53, 100
5, 152288, Note_on_c, 3, 62, 100
5, 152408, Note_on_c, 3, 62, 0
5, 152408, Note_on_c, 3, 53, 0
5, 152408, Note_on_c, 3, 61, 100
5, 152408, Note_on_c, 3, 64, 100
5, 152528, Note_on_c, 3, 64, 0
5, 152528, Note_on_c, 3, 61, 0
5, 152528, Note_on_c, 3, 62, 100
5, 152528, Note_on_c, 3, 65, 100
5, 152638, Note_on_c, 3, 65, 0
5, 152638, Note_on_c, 3, 62, 0
5, 152648, Note_on_c, 3, 60, 100
5, 152648, Note_on_c, 3, 55, 100
5, 152888, Note_on_c, 3, 55, 0
5, 152888, Note_on_c, 3, 60, 0
5, 152888, Note_on_c, 3, 59, 100
5, 152888, Note_on_c, 3, 53, 100
5, 153108, Note_on_c, 3, 53, 0
5, 153108, Note_on_c, 3, 59, 0
5, 153128, Note_on_c, 3, 52, 100
5, 153128, Control_c, 3, 11, 87
5, 153128, Note_on_c, 3, 64, 100
5, 153248, Note_on_c, 3, 64, 0
5, 153248, Note_on_c, 3, 52, 0
5, 153368, Note_on_c, 3, 50, 100
5, 153368, Note_on_c, 3, 62, 100
5, 153488, Note_on_c, 3, 62, 0
5, 153488, Note_on_c, 3, 50, 0
5, 153608, Note_on_c, 3, 60, 100
5, 153608, Note_on_c, 3, 48, 100
5, 153728, Note_on_c, 3, 48, 0
5, 153728, Note_on_c, 3, 60, 0
5, 154088, Note_on_c, 3, 55, 100
5, 154088, Control_c, 3, 11, 107
5, 154105, Control_c, 3, 11, 104
5, 154123, Control_c, 3, 11, 101
5, 154141, Control_c, 3, 11, 98
5, 154159, Control_c, 3, 11, 95
5, 154177, Control_c, 3, 11, 92
5, 154195, Control_c, 3, 11, 89
5, 154318, Note_on_c, 3, 55, 0
5, 154328, Note_on_c, 3, 53, 100
5, 154328, Control_c, 3, 11, 107
5, 154328, Note_on_c, 3, 59, 100
5, 154345, Control_c, 3, 11, 104
5, 154363, Control_c, 3, 11, 101
5, 154381, Control_c, 3, 11, 98
5, 154399, Control_c, 3, 11, 95
5, 154417, Control_c, 3, 11, 92
5, 154435, Control_c, 3, 11, 89
5, 154558, Note_on_c, 3, 59, 0
5, 154558, Note_on_c, 3, 53, 0
5, 154568, Control_c, 3, 11, 107
5, 154568, Note_on_c, 3, 52, 100
5, 154568, Note_on_c, 3, 60, 100
5, 154585, Control_c, 3, 11, 104
5, 154603, Control_c, 3, 11, 101
5, 154621, Control_c, 3, 11, 98
5, 154639, Control_c, 3, 11, 95
5, 154657, Control_c, 3, 11, 92
5, 154675, Control_c, 3, 11, 89
5, 154688, Note_on_c, 3, 60, 0
5, 154688, Note_on_c, 3, 52, 0
5, 155048, Control_c, 3, 11, 107
5, 155048, Note_on_c, 3, 52, 100
5, 155065, Control_c, 3, 11, 104
5, 155083, Control_c, 3, 11, 101
5, 155101, Control_c, 3, 11, 98
5, 155119, Control_c, 3, 11, 95
5, 155137, Control_c, 3, 11, 92
5, 155155, Control_c, 3, 11, 89
5, 155218, Note_on_c, 3, 52, 0
5, 155228, Note_on_c, 3, 50, 100
5, 155278, Note_on_c, 3, 50, 0
5, 155288, Note_on_c, 3, 48, 100
5, 155338, Note_on_c, 3, 48, 0
5, 155348, Note_on_c, 3, 50, 100
5, 155398, Note_on_c, 3, 50, 0
5, 155408, Note_on_c, 3, 51, 100
5, 155458, Note_on_c, 3, 51, 0
5, 155468, Note_on_c, 3, 52, 100
5, 155518, Note_on_c, 3, 52, 0
5, 155528, Note_on_c, 3, 53, 100
5, 155528, Control_c, 3, 11, 107
5, 155546, Control_c, 3, 11, 104
5, 155564, Control_c, 3, 11, 101
5, 155582, Control_c, 3, 11, 98
5, 155600, Control_c, 3, 11, 95
5, 155618, Control_c, 3, 11, 92
5, 155636, Control_c, 3, 11, 89
5, 155698, Note_on_c, 3, 53, 0
5, 155708, Note_on_c, 3, 52, 100
5, 155758, Note_on_c, 3, 52, 0
5, 155768, Note_on_c, 3, 50, 100
5, 155818, Note_on_c, 3, 50, 0
5, 155828, Note_on_c, 3, 52, 100
5, 155878, Note_on_c, 3, 52, 0
5, 155888, Note_on_c, 3, 53, 100
5, 155938, Note_on_c, 3, 53, 0
5, 155948, Note_on_c, 3, 54, 100
5, 155998, Note_on_c, 3, 54, 0
5, 156008, Note_on_c, 3, 55, 100
5, 156008, Control_c, 3, 11, 87
5, 156040, Control_c, 3, 11, 88
5, 156058, Note_on_c, 3, 55, 0
5, 156068, Note_on_c, 3, 64, 100
5, 156072, Control_c, 3, 11, 89
5, 156104, Control_c, 3, 11, 90
5, 156118, Note_on_c, 3, 64, 0
5, 156128, Note_on_c, 3, 62, 100
5, 156136, Control_c, 3, 11, 91
5, 156168, Control_c, 3, 11, 92
5, 156178, Note_on_c, 3, 62, 0
5, 156188, Note_on_c, 3, 60, 100
5, 156200, Control_c, 3, 11, 93
5, 156232, Control_c, 3, 11, 94
5, 156238, Note_on_c, 3, 60, 0
5, 156248, Note_on_c, 3, 59, 100
5, 156264, Control_c, 3, 11, 95
5, 156296, Control_c, 3, 11, 96
5, 156298, Note_on_c, 3, 59, 0
5, 156308, Note_on_c, 3, 57, 100
5, 156328, Control_c, 3, 11, 97
5, 156358, Note_on_c, 3, 57, 0
5, 156360, Control_c, 3, 11, 98
5, 156368, Note_on_c, 3, 55, 100
5, 156392, Control_c, 3, 11, 99
5, 156418, Note_on_c, 3, 55, 0
5, 156424, Control_c, 3, 11, 100
5, 156428, Note_on_c, 3, 54, 100
5, 156456, Control_c, 3, 11, 101
5, 156478, Note_on_c, 3, 54, 0
5, 156488, Control_c, 3, 11, 102
5, 156488, Note_on_c, 3, 52, 100
5, 156548, Note_on_c, 3, 52, 0
5, 156608, Note_on_c, 3, 53, 100
5, 156668, Note_on_c, 3, 53, 0
5, 156728, Note_on_c, 3, 55, 100
5, 156788, Note_on_c, 3, 55, 0
5, 156848, Note_on_c, 3, 43, 100
5, 156908, Note_on_c, 3, 43, 0
5, 156968, Note_on_c, 3, 48, 80
5, 157088, Note_on_c, 3, 48, 0
5, 159368, Control_c, 3, 11, 27
5, 159368, Note_on_c, 3, 67, 100
5, 159386, Control_c, 3, 11, 30
5, 159404, Control_c, 3, 11, 33
5, 159422, Control_c, 3, 11, 36
5, 159440, Control_c, 3, 11, 39
5, 159458, Control_c, 3, 11, 42
5, 159476, Control_c, 3, 11, 45
5, 159530, Control_c, 3, 11, 48
5, 159572, Control_c, 3, 11, 49
5, 159614, Control_c, 3, 11, 50
5, 159656, Control_c, 3, 11, 51
5, 159698, Control_c, 3, 11, 52
5, 159740, Control_c, 3, 11, 53
5, 159782, Control_c, 3, 11, 54
5, 159824, Control_c, 3, 11, 55
5, 159866, Control_c, 3, 11, 56
5, 159908, Control_c, 3, 11, 57
5, 159950, Control_c, 3, 11, 58
5, 159992, Control_c, 3, 11, 59
5, 160034, Control_c, 3, 11, 60
5, 160076, Control_c, 3, 11, 61
5, 160118, Control_c, 3, 11, 62
5, 160160, Control_c, 3, 11, 63
5, 160202, Control_c, 3, 11, 64
5, 160208, Note_on_c, 3, 67, 0
5, 160208, Note_on_c, 3, 65, 100
5, 160244, Control_c, 3, 11, 65
5, 160268, Note_on_c, 3, 65, 0
5, 160268, Note_on_c, 3, 63, 100
5, 160286, Control_c, 3, 11, 66
5, 160318, Note_on_c, 3, 63, 0
5, 160328, Control_c, 3, 11, 67
5, 160328, Note_on_c, 3, 63, 100
5, 160352, Control_c, 3, 11, 66
5, 160373, Note_on_c, 3, 63, 0
5, 160373, Note_on_c, 3, 62, 100
5, 160376, Control_c, 3, 11, 65
5, 160400, Control_c, 3, 11, 64
5, 160418, Note_on_c, 3, 62, 0
5, 160424, Control_c, 3, 11, 63
5, 160448, Note_on_c, 3, 62, 100
5, 160448, Control_c, 3, 11, 62
5, 160472, Control_c, 3, 11, 61
5, 160496, Control_c, 3, 11, 60
5, 160520, Control_c, 3, 11, 59
5, 160538, Note_on_c, 3, 62, 0
5, 160544, Control_c, 3, 11, 58
5, 160568, Control_c, 3, 11, 57
5, 160568, Note_on_c, 3, 62, 100
5, 160592, Control_c, 3, 11, 56
5, 160616, Control_c, 3, 11, 55
5, 160640, Control_c, 3, 11, 54
5, 160658, Note_on_c, 3, 62, 0
5, 160664, Control_c, 3, 11, 53
5, 160688, Note_on_c, 3, 62, 100
5, 160688, Control_c, 3, 11, 52
5, 160712, Control_c, 3, 11, 51
5, 160736, Control_c, 3, 11, 50
5, 160760, Control_c, 3, 11, 49
5, 160778, Note_on_c, 3, 62, 0
5, 160784, Control_c, 3, 11, 48
5, 160808, Control_c, 3, 11, 42
5, 160808, Note_on_c, 3, 62, 100
5, 160808, Note_on_c, 3, 65, 100
5, 160823, Control_c, 3, 11, 45
5, 160838, Control_c, 3, 11, 48
5, 160853, Control_c, 3, 11, 51
5, 160868, Control_c, 3, 11, 54
5, 160890, Control_c, 3, 11, 54
5, 160931, Control_c, 3, 11, 55
5, 160972, Control_c, 3, 11, 56
5, 161013, Control_c, 3, 11, 57
5, 161054, Control_c, 3, 11, 58
5, 161096, Control_c, 3, 11, 59
5, 161137, Control_c, 3, 11, 60
5, 161178, Control_c, 3, 11, 61
5, 161219, Control_c, 3, 11, 62
5, 161260, Control_c, 3, 11, 63
5, 161288, Note_on_c, 3, 65, 0
5, 161288, Note_on_c, 3, 62, 0
5, 161288, Note_on_c, 3, 64, 100
5, 161288, Note_on_c, 3, 60, 100
5, 161301, Control_c, 3, 11, 64
5, 161342, Control_c, 3, 11, 65
5, 161384, Control_c, 3, 11, 66
5, 161425, Control_c, 3, 11, 67
5, 161466, Control_c, 3, 11, 68
5, 161507, Control_c, 3, 11, 69
5, 161548, Control_c, 3, 11, 70
5, 161589, Control_c, 3, 11, 71
5, 161630, Control_c, 3, 11, 72
5, 161672, Control_c, 3, 11, 73
5, 161713, Control_c, 3, 11, 74
5, 161754, Control_c, 3, 11, 75
5, 161768, Note_on_c, 3, 64, 0
5, 161768, Note_on_c, 3, 62, 100
5, 161795, Control_c, 3, 11, 76
5, 161836, Control_c, 3, 11, 77
5, 161877, Control_c, 3, 11, 78
5, 161918, Control_c, 3, 11, 79
5, 161960, Control_c, 3, 11, 80
5, 162001, Control_c, 3, 11, 81
5, 162008, Note_on_c, 3, 60, 0
5, 162008, Note_on_c, 3, 59, 100
5, 162042, Control_c, 3, 11, 82
5, 162083, Control_c, 3, 11, 83
5, 162124, Control_c, 3, 11, 84
5, 162165, Control_c, 3, 11, 85
5, 162206, Control_c, 3, 11, 86
5, 162238, Note_on_c, 3, 59, 0
5, 162248, Note_on_c, 3, 62, 0
5, 162248, Note_on_c, 3, 60, 100
5, 162248, Note_on_c, 3, 48, 100
5, 162248, Control_c, 3, 11, 87
5, 162598, Note_on_c, 3, 48, 0
5, 162598, Note_on_c, 3, 60, 0
5, 162608, Note_on_c, 3, 43, 100
5, 162608, Note_on_c, 3, 55, 100
5, 162698, Note_on_c, 3, 55, 0
5, 162698, Note_on_c, 3, 43, 0
5, 162698, Note_on_c, 3, 59, 100
5, 162698, Note_on_c, 3, 47, 100
5, 162718, Note_on_c, 3, 47, 0
5, 162718, Note_on_c, 3, 59, 0
5, 162728, Note_on_c, 3, 48, 100
5, 162728, Note_on_c, 3, 60, 100
5, 162728, Control_c, 3, 11, 107
5, 162751, Control_c, 3, 11, 105
5, 162775, Control_c, 3, 11, 103
5, 162799, Control_c, 3, 11, 101
5, 162823, Control_c, 3, 11, 99
5, 162847, Control_c, 3, 11, 97
5, 162871, Control_c, 3, 11, 95
5, 162895, Control_c, 3, 11, 93
5, 162919, Control_c, 3, 11, 91
5, 162943, Control_c, 3, 11, 89
5, 162967, Control_c, 3, 11, 87
5, 163078, Note_on_c, 3, 60, 0
5, 163078, Note_on_c, 3, 48, 0
5, 163088, Note_on_c, 3, 55, 100
5, 163088, Note_on_c, 3, 43, 100
5, 163178, Note_on_c, 3, 43, 0
5, 163178, Note_on_c, 3, 55, 0
5, 163178, Note_on_c, 3, 59, 100
5, 163178, Note_on_c, 3, 47, 100
5, 163198, Note_on_c, 3, 47, 0
5, 163198, Note_on_c, 3, 59, 0
5, 163208, Note_on_c, 3, 48, 100
5, 163208, Note_on_c, 3, 60, 100
5, 163208, Control_c, 3, 11, 107
5, 163225, Control_c, 3, 11, 104
5, 163243, Control_c, 3, 11, 101
5, 163261, Control_c, 3, 11, 98
5, 163279, Control_c, 3, 11, 95
5, 163297, Control_c, 3, 11, 92
5, 163315, Control_c, 3, 11, 89
5, 163328, Note_on_c, 3, 60, 0
5, 163328, Note_on_c, 3, 48, 0
5, 163448, Control_c, 3, 11, 107
5, 163448, Note_on_c, 3, 55, 100
5, 163465, Control_c, 3, 11, 104
5, 163483, Control_c, 3, 11, 101
5, 163501, Control_c, 3, 11, 98
5, 163519, Control_c, 3, 11, 95
5, 163537, Control_c, 3, 11, 92
5, 163555, Control_c, 3, 11, 89
5, 163568, Note_on_c, 3, 55, 0
5, 163688, Note_on_c, 3, 60, 100
5, 163688, Control_c, 3, 11, 107
5, 163705, Control_c, 3, 11, 104
5, 163723, Control_c, 3, 11, 101
5, 163741, Control_c, 3, 11, 98
5, 163759, Control_c, 3, 11, 95
5, 163777, Control_c, 3, 11, 92
5, 163795, Control_c, 3, 11, 89
5, 163808, Note_on_c, 3, 60, 0
5, 163928, Control_c, 3, 11, 107
5, 163928, Note_on_c, 3, 62, 100
5, 163945, Control_c, 3, 11, 104
5, 163963, Control_c, 3, 11, 101
5, 163981, Control_c, 3, 11, 98
5, 163999, Control_c, 3, 11, 95
5, 164017, Control_c, 3, 11, 92
5, 164035, Control_c, 3, 11, 89
5, 164048, Note_on_c, 3, 62, 0
5, 164168, Control_c, 3, 11, 97
5, 164168, Note_on_c, 3, 67, 100
5, 164168, Note_on_c, 3, 64, 100
5, 164191, Control_c, 3, 11, 96
5, 164215, Control_c, 3, 11, 95
5, 164239, Control_c, 3, 11, 94
5, 164263, Control_c, 3, 11, 93
5, 164287, Control_c, 3, 11, 92
5, 164311, Control_c, 3, 11, 91
5, 164335, Control_c, 3, 11, 90
5, 164359, Control_c, 3, 11, 89
5, 164383, Control_c, 3, 11, 88
5, 164407, Control_c, 3, 11, 87
5, 164638, Note_on_c, 3, 64, 0
5, 164638, Note_on_c, 3, 67, 0
5, 164648, Note_on_c, 3, 65, 100
5, 164648, Note_on_c, 3, 62, 100
5, 164648, Control_c, 3, 11, 97
5, 164671, Control_c, 3, 11, 96
5, 164695, Control_c, 3, 11, 95
5, 164719, Control_c, 3, 11, 94
5, 164743, Control_c, 3, 11, 93
5, 164767, Control_c, 3, 11, 92
5, 164791, Control_c, 3, 11, 91
5, 164815, Control_c, 3, 11, 90
5, 164839, Control_c, 3, 11, 89
5, 164863, Control_c, 3, 11, 88
5, 164887, Control_c, 3, 11, 87
5, 165118, Note_on_c, 3, 62, 0
5, 165118, Note_on_c, 3, 65, 0
5, 165128, Note_on_c, 3, 64, 100
5, 165128, Note_on_c, 3, 61, 100
5, 165128, Control_c, 3, 11, 102
5, 165718, Note_on_c, 3, 61, 0
5, 165718, Note_on_c, 3, 64, 0
5, 165728, Note_on_c, 3, 61, 100
5, 165728, Note_on_c, 3, 58, 100
5, 165838, Note_on_c, 3, 58, 0
5, 165838, Note_on_c, 3, 61, 0
5, 165848, Note_on_c, 3, 61, 100
5, 165848, Note_on_c, 3, 58, 100
5, 165958, Note_on_c, 3, 58, 0
5, 165958, Note_on_c, 3, 61, 0
5, 165968, Note_on_c, 3, 58, 100
5, 165968, Note_on_c, 3, 61, 100
5, 166078, Note_on_c, 3, 61, 0
5, 166078, Note_on_c, 3, 58, 0
5, 166088, Note_on_c, 3, 57, 100
5, 166088, Note_on_c, 3, 53, 100
5, 166558, Note_on_c, 3, 53, 0
5, 166558, Note_on_c, 3, 57, 0
5, 166568, Note_on_c, 3, 54, 100
5, 166688, Note_on_c, 3, 54, 0
5, 166688, Note_on_c, 3, 60, 100
5, 166808, Note_on_c, 3, 60, 0
5, 166808, Note_on_c, 3, 57, 100
5, 166928, Note_on_c, 3, 57, 0
5, 166928, Note_on_c, 3, 54, 100
5, 167038, Note_on_c, 3, 54, 0
5, 167048, Control_c, 3, 11, 122
5, 167048, Note_on_c, 3, 55, 100
5, 167071, Control_c, 3, 11, 120
5, 167095, Control_c, 3, 11, 118
5, 167119, Control_c, 3, 11, 116
5, 167143, Control_c, 3, 11, 114
5, 167167, Control_c, 3, 11, 112
5, 167191, Control_c, 3, 11, 110
5, 167215, Control_c, 3, 11, 108
5, 167239, Control_c, 3, 11, 106
5, 167263, Control_c, 3, 11, 104
5, 167278, Note_on_c, 3, 55, 0
5, 167287, Control_c, 3, 11, 102
5, 167288, Note_on_c, 3, 57, 100
5, 167288, Control_c, 3, 11, 122
5, 167311, Control_c, 3, 11, 120
5, 167335, Control_c, 3, 11, 118
5, 167359, Control_c, 3, 11, 116
5, 167383, Control_c, 3, 11, 114
5, 167407, Control_c, 3, 11, 112
5, 167431, Control_c, 3, 11, 110
5, 167455, Control_c, 3, 11, 108
5, 167479, Control_c, 3, 11, 106
5, 167503, Control_c, 3, 11, 104
5, 167518, Note_on_c, 3, 57, 0
5, 167527, Control_c, 3, 11, 102
5, 167528, Control_c, 3, 11, 122
5, 167528, Note_on_c, 3, 53, 100
5, 167551, Control_c, 3, 11, 120
5, 167575, Control_c, 3, 11, 118
5, 167599, Control_c, 3, 11, 116
5, 167623, Control_c, 3, 11, 114
5, 167647, Control_c, 3, 11, 112
5, 167671, Control_c, 3, 11, 110
5, 167695, Control_c, 3, 11, 108
5, 167719, Control_c, 3, 11, 106
5, 167743, Control_c, 3, 11, 104
5, 167758, Note_on_c, 3, 53, 0
5, 167767, Control_c, 3, 11, 102
5, 167768, Control_c, 3, 11, 122
5, 167768, Note_on_c, 3, 55, 100
5, 167788, Control_c, 3, 11, 119
5, 167808, Control_c, 3, 11, 116
5, 167829, Control_c, 3, 11, 113
5, 167849, Control_c, 3, 11, 110
5, 167870, Control_c, 3, 11, 107
5, 167890, Control_c, 3, 11, 104
5, 167911, Control_c, 3, 11, 101
5, 167931, Control_c, 3, 11, 98
5, 167952, Control_c, 3, 11, 95
5, 167972, Control_c, 3, 11, 92
5, 167993, Control_c, 3, 11, 89
5, 167998, Note_on_c, 3, 55, 0
5, 168008, Control_c, 3, 11, 77
5, 168008, Note_on_c, 3, 48, 100
5, 168026, Control_c, 3, 11, 74
5, 168044, Control_c, 3, 11, 71
5, 168062, Control_c, 3, 11, 68
5, 168080, Control_c, 3, 11, 65
5, 168098, Control_c, 3, 11, 62
5, 168116, Control_c, 3, 11, 59
5, 168128, Note_on_c, 3, 48, 0
5, 168848, Control_c, 3, 11, 82
5, 168848, Note_on_c, 3, 53, 100
5, 168848, Note_on_c, 3, 50, 100
5, 168860, Control_c, 3, 11, 79
5, 168872, Control_c, 3, 11, 76
5, 168884, Control_c, 3, 11, 73
5, 168896, Control_c, 3, 11, 70
5, 168908, Control_c, 3, 11, 67
5, 168920, Control_c, 3, 11, 64
5, 168932, Control_c, 3, 11, 61
5, 168944, Control_c, 3, 11, 58
5, 168956, Control_c, 3, 11, 55
5, 168968, Note_on_c, 3, 50, 0
5, 168968, Note_on_c, 3, 53, 0
5, 168968, Control_c, 3, 11, 52
5, 168968, Note_on_c, 3, 48, 90
5, 168968, Note_on_c, 3, 52, 90
5, 169028, Note_on_c, 3, 52, 0
5, 169028, Note_on_c, 3, 48, 0
5, 169088, Note_on_c, 3, 53, 100
5, 169088, Note_on_c, 3, 57, 100
5, 169208, Note_on_c, 3, 57, 0
5, 169208, Note_on_c, 3, 53, 0
5, 169208, Note_on_c, 3, 52, 100
5, 169208, Note_on_c, 3, 55, 100
5, 169328, Note_on_c, 3, 55, 0
5, 169328, Note_on_c, 3, 52, 0
5, 169328, Note_on_c, 3, 50, 100
5, 169328, Note_on_c, 3, 53, 100
5, 169448, Note_on_c, 3, 53, 0
5, 169448, Note_on_c, 3, 50, 0
5, 169448, Note_on_c, 3, 48, 100
5, 169448, Note_on_c, 3, 52, 100
5, 169568, Note_on_c, 3, 52, 0
5, 169568, Note_on_c, 3, 48, 0
5, 169568, Note_on_c, 3, 53, 100
5, 169568, Note_on_c, 3, 50, 100
5, 169688, Note_on_c, 3, 50, 0
5, 169688, Note_on_c, 3, 53, 0
5, 169688, Note_on_c, 3, 55, 100
5, 169688, Note_on_c, 3, 52, 100
5, 169808, Note_on_c, 3, 52, 0
5, 169808, Note_on_c, 3, 55, 0
5, 169808, Control_c, 3, 11, 82
5, 169808, Note_on_c, 3, 50, 100
5, 169808, Note_on_c, 3, 53, 100
5, 169819, Control_c, 3, 11, 79
5, 169831, Control_c, 3, 11, 76
5, 169843, Control_c, 3, 11, 73
5, 169855, Control_c, 3, 11, 70
5, 169867, Control_c, 3, 11, 67
5, 169879, Control_c, 3, 11, 64
5, 169891, Control_c, 3, 11, 61
5, 169903, Control_c, 3, 11, 58
5, 169915, Control_c, 3, 11, 55
5, 169927, Control_c, 3, 11, 52
5, 169928, Note_on_c, 3, 53, 0
5, 169928, Note_on_c, 3, 50, 0
5, 169928, Note_on_c, 3, 48, 100
5, 169928, Note_on_c, 3, 52, 100
5, 169988, Note_on_c, 3, 52, 0
5, 169988, Note_on_c, 3, 48, 0
5, 170528, Note_on_c, 3, 53, 100
5, 170528, Note_on_c, 3, 57, 100
5, 170648, Note_on_c, 3, 57, 0
5, 170648, Note_on_c, 3, 53, 0
5, 170648, Note_on_c, 3, 55, 100
5, 170648, Note_on_c, 3, 52, 100
5, 170768, Note_on_c, 3, 52, 0
5, 170768, Note_on_c, 3, 55, 0
5, 170768, Control_c, 3, 11, 102
5, 170768, Note_on_c, 3, 50, 100
5, 170768, Note_on_c, 3, 53, 100
5, 170888, Note_on_c, 3, 53, 0
5, 170888, Note_on_c, 3, 50, 0
5, 170888, Note_on_c, 3, 52, 100
5, 170888, Note_on_c, 3, 48, 100
5, 171008, Note_on_c, 3, 48, 0
5, 171008, Note_on_c, 3, 52, 0
5, 171128, Note_on_c, 3, 60, 100
5, 171128, Control_c, 3, 11, 47
5, 171368, Note_on_c, 3, 60, 0
5, 171368, Note_on_c, 3, 58, 100
5, 171608, Note_on_c, 3, 58, 0
5, 171608, Note_on_c, 3, 55, 100
5, 171608, Note_on_c, 3, 67, 100
5, 171848, Note_on_c, 3, 67, 0
5, 171848, Note_on_c, 3, 55, 0
5, 171848, Note_on_c, 3, 52, 100
5, 171848, Note_on_c, 3, 64, 100
5, 172088, Note_on_c, 3, 64, 0
5, 172088, Note_on_c, 3, 52, 0
5, 172088, Note_on_c, 3, 48, 100
5, 172088, Note_on_c, 3, 60, 100
5, 172328, Note_on_c, 3, 60, 0
5, 172328, Note_on_c, 3, 48, 0
5, 172328, Note_on_c, 3, 46, 100
5, 172328, Note_on_c, 3, 58, 100
5, 172568, Note_on_c, 3, 58, 0
5, 172568, Note_on_c, 3, 46, 0
5, 172568, Note_on_c, 3, 43, 100
5, 172568, Note_on_c, 3, 55, 100
5, 172808, Note_on_c, 3, 55, 0
5, 172808, Note_on_c, 3, 43, 0
5, 172808, Note_on_c, 3, 41, 100
5, 172808, Note_on_c, 3, 53, 100
5, 172928, Note_on_c, 3, 53, 0
5, 172928, Note_on_c, 3, 41, 0
5, 173048, Note_on_c, 3, 57, 100
5, 173288, Note_on_c, 3, 57, 0
5, 173288, Note_on_c, 3, 67, 100
5, 173528, Note_on_c, 3, 67, 0
5, 173528, Note_on_c, 3, 64, 100
5, 173768, Note_on_c, 3, 64, 0
5, 173768, Note_on_c, 3, 61, 100
5, 174008, Note_on_c, 3, 61, 0
5, 174008, Note_on_c, 3, 57, 100
5, 174248, Note_on_c, 3, 57, 0
5, 174248, Note_on_c, 3, 55, 100
5, 174488, Note_on_c, 3, 55, 0
5, 174488, Note_on_c, 3, 52, 100
5, 174728, Note_on_c, 3, 52, 0
5, 174728, Note_on_c, 3, 50, 100
5, 174848, Note_on_c, 3, 50, 0
5, 174968, Note_on_c, 3, 50, 100
5, 174968, Note_on_c, 3, 62, 100
5, 174968, Control_c, 3, 11, 47
5, 174998, Control_c, 3, 11, 48
5, 175029, Control_c, 3, 11, 49
5, 175059, Control_c, 3, 11, 50
5, 175090, Control_c, 3, 11, 51
5, 175120, Control_c, 3, 11, 52
5, 175151, Control_c, 3, 11, 53
5, 175181, Control_c, 3, 11, 54
5, 175208, Note_on_c, 3, 62, 0
5, 175208, Note_on_c, 3, 50, 0
5, 175208, Note_on_c, 3, 53, 100
5, 175208, Note_on_c, 3, 65, 100
5, 175212, Control_c, 3, 11, 55
5, 175242, Control_c, 3, 11, 56
5, 175273, Control_c, 3, 11, 57
5, 175304, Control_c, 3, 11, 58
5, 175334, Control_c, 3, 11, 59
5, 175365, Control_c, 3, 11, 60
5, 175395, Control_c, 3, 11, 61
5, 175426, Control_c, 3, 11, 62
5, 175448, Note_on_c, 3, 65, 0
5, 175448, Note_on_c, 3, 53, 0
5, 175448, Note_on_c, 3, 50, 100
5, 175448, Note_on_c, 3, 62, 100
5, 175456, Control_c, 3, 11, 63
5, 175487, Control_c, 3, 11, 64
5, 175517, Control_c, 3, 11, 65
5, 175548, Control_c, 3, 11, 66
5, 175578, Control_c, 3, 11, 67
5, 175609, Control_c, 3, 11, 68
5, 175640, Control_c, 3, 11, 69
5, 175670, Control_c, 3, 11, 70
5, 175688, Note_on_c, 3, 62, 0
5, 175688, Note_on_c, 3, 50, 0
5, 175688, Note_on_c, 3, 59, 100
5, 175688, Note_on_c, 3, 47, 100
5, 175701, Control_c, 3, 11, 71
5, 175731, Control_c, 3, 11, 72
5, 175762, Control_c, 3, 11, 73
5, 175792, Control_c, 3, 11, 74
5, 175823, Control_c, 3, 11, 75
5, 175853, Control_c, 3, 11, 76
5, 175884, Control_c, 3, 11, 77
5, 175914, Control_c, 3, 11, 78
5, 175928, Note_on_c, 3, 47, 0
5, 175928, Note_on_c, 3, 59, 0
5, 175928, Note_on_c, 3, 55, 100
5, 175928, Note_on_c, 3, 43, 100
5, 175945, Control_c, 3, 11, 79
5, 175976, Control_c, 3, 11, 80
5, 176006, Control_c, 3, 11, 81
5, 176037, Control_c, 3, 11, 82
5, 176067, Control_c, 3, 11, 83
5, 176098, Control_c, 3, 11, 84
5, 176128, Control_c, 3, 11, 85
5, 176159, Control_c, 3, 11, 86
5, 176168, Note_on_c, 3, 43, 0
5, 176168, Note_on_c, 3, 55, 0
5, 176168, Note_on_c, 3, 53, 100
5, 176168, Note_on_c, 3, 41, 100
5, 176189, Control_c, 3, 11, 87
5, 176220, Control_c, 3, 11, 88
5, 176250, Control_c, 3, 11, 89
5, 176281, Control_c, 3, 11, 90
5, 176312, Control_c, 3, 11, 91
5, 176342, Control_c, 3, 11, 92
5, 176373, Control_c, 3, 11, 93
5, 176403, Control_c, 3, 11, 94
5, 176408, Note_on_c, 3, 41, 0
5, 176408, Note_on_c, 3, 53, 0
5, 176408, Note_on_c, 3, 50, 100
5, 176408, Note_on_c, 3, 38, 100
5, 176434, Control_c, 3, 11, 95
5, 176464, Control_c, 3, 11, 96
5, 176495, Control_c, 3, 11, 97
5, 176525, Control_c, 3, 11, 98
5, 176556, Control_c, 3, 11, 99
5, 176586, Control_c, 3, 11, 100
5, 176617, Control_c, 3, 11, 101
5, 176648, Note_on_c, 3, 38, 0
5, 176648, Note_on_c, 3, 50, 0
5, 176648, Note_on_c, 3, 48, 100
5, 176648, Control_c, 3, 11, 102
5, 176648, Note_on_c, 3, 36, 100
5, 176708, Note_on_c, 3, 36, 0
5, 176708, Note_on_c, 3, 48, 0
5, 176888, Note_on_c, 3, 53, 100
5, 176888, Note_on_c, 3, 41, 100
5, 176948, Note_on_c, 3, 41, 0
5, 176948, Note_on_c, 3, 53, 0
5, 177128, Note_on_c, 3, 43, 100
5, 177128, Note_on_c, 3, 55, 100
5, 177188, Note_on_c, 3, 55, 0
5, 177188, Note_on_c, 3, 43, 0
5, 177368, Note_on_c, 3, 56, 100
5, 177368, Note_on_c, 3, 44, 100
5, 177428, Note_on_c, 3, 44, 0
5, 177428, Note_on_c, 3, 56, 0
5, 177608, Note_on_c, 3, 57, 100
5, 177608, Note_on_c, 3, 45, 100
5, 177668, Note_on_c, 3, 45, 0
5, 177668, Note_on_c, 3, 57, 0
5, 177848, Note_on_c, 3, 53, 100
5, 177848, Note_on_c, 3, 41, 100
5, 177908, Note_on_c, 3, 41, 0
5, 177908, Note_on_c, 3, 53, 0
5, 178088, Note_on_c, 3, 43, 100
5, 178088, Note_on_c, 3, 55, 100
5, 178148, Note_on_c, 3, 55, 0
5, 178148, Note_on_c, 3, 43, 0
5, 178328, Note_on_c, 3, 56, 100
5, 178328, Note_on_c, 3, 44, 100
5, 178388, Note_on_c, 3, 44, 0
5, 178388, Note_on_c, 3, 56, 0
5, 178568, Note_on_c, 3, 57, 100
5, 178568, Note_on_c, 3, 45, 100
5, 178628, Note_on_c, 3, 45, 0
5, 178628, Note_on_c, 3, 57, 0
5, 178808, Note_on_c, 3, 41, 100
5, 178808, Note_on_c, 3, 53, 100
5, 178868, Note_on_c, 3, 53, 0
5, 178868, Note_on_c, 3, 41, 0
5, 179048, Note_on_c, 3, 55, 100
5, 179048, Note_on_c, 3, 43, 100
5, 179108, Note_on_c, 3, 43, 0
5, 179108, Note_on_c, 3, 55, 0
5, 179288, Note_on_c, 3, 55, 100
5, 179288, Note_on_c, 3, 43, 100
5, 179348, Note_on_c, 3, 43, 0
5, 179348, Note_on_c, 3, 55, 0
5, 179528, Note_on_c, 3, 48, 100
5, 179528, Control_c, 3, 11, 102
5, 179888, Note_on_c, 3, 48, 0
5, 179888, Note_on_c, 3, 43, 115
5, 179978, Note_on_c, 3, 43, 0
5, 179978, Note_on_c, 3, 47, 115
5, 179998, Note_on_c, 3, 47, 0
5, 180008, Note_on_c, 3, 48, 115
5, 180038, Note_on_c, 3, 48, 0
5, 180068, Note_on_c, 3, 48, 115
5, 180098, Note_on_c, 3, 48, 0
5, 180128, Note_on_c, 3, 43, 115
5, 180158, Note_on_c, 3, 43, 0
5, 180188, Note_on_c, 3, 47, 115
5, 180218, Note_on_c, 3, 47, 0
5, 180248, Note_on_c, 3, 48, 115
5, 180278, Note_on_c, 3, 48, 0
5, 180308, Note_on_c, 3, 48, 115
5, 180338, Note_on_c, 3, 48, 0
5, 180368, Note_on_c, 3, 43, 115
5, 180398, Note_on_c, 3, 43, 0
5, 180428, Note_on_c, 3, 47, 115
5, 180458, Note_on_c, 3, 47, 0
5, 180488, Note_on_c, 3, 48, 115
5, 180608, Note_on_c, 3, 48, 0
5, 181088, Note_on_c, 3, 52, 100
5, 181088, Note_on_c, 3, 48, 100
5, 181148, Note_on_c, 3, 48, 0
5, 181148, Note_on_c, 3, 52, 0
5, 181208, Note_on_c, 3, 52, 100
5, 181208, Note_on_c, 3, 55, 100
5, 181268, Note_on_c, 3, 55, 0
5, 181268, Note_on_c, 3, 52, 0
5, 181328, Note_on_c, 3, 55, 100
5, 181328, Note_on_c, 3, 60, 100
5, 181388, Note_on_c, 3, 60, 0
5, 181388, Note_on_c, 3, 55, 0
5, 181448, Control_c, 3, 7, 122
5, 181448, Note_on_c, 3, 48, 100
5, 181459, Control_c, 3, 7, 121
5, 181471, Control_c, 3, 7, 120
5, 181483, Control_c, 3, 7, 119
5, 181495, Control_c, 3, 7, 118
5, 181507, Control_c, 3, 7, 117
5, 181519, Control_c, 3, 7, 116
5, 181531, Control_c, 3, 7, 115
5, 181543, Control_c, 3, 7, 114
5, 181555, Control_c, 3, 7, 113
5, 181567, Control_c, 3, 7, 112
5, 181579, Control_c, 3, 7, 111
5, 181591, Control_c, 3, 7, 110
5, 181603, Control_c, 3, 7, 109
5, 181615, Control_c, 3, 7, 108
5, 181627, Control_c, 3, 7, 107
5, 181639, Control_c, 3, 7, 106
5, 181651, Control_c, 3, 7, 105
5, 181663, Control_c, 3, 7, 104
5, 181675, Control_c, 3, 7, 103
5, 181687, Control_c, 3, 7, 102
5, 181808, Note_on_c, 3, 48, 0
5, 181808, Note_on_c, 3, 43, 115
5, 181898, Note_on_c, 3, 43, 0
5, 181898, Note_on_c, 3, 47, 115
5, 181918, Note_on_c, 3, 47, 0
5, 181928, Note_on_c, 3, 48, 115
5, 181958, Note_on_c, 3, 48, 0
5, 181988, Note_on_c, 3, 48, 115
5, 182018, Note_on_c, 3, 48, 0
5, 182048, Note_on_c, 3, 43, 115
5, 182078, Note_on_c, 3, 43, 0
5, 182108, Note_on_c, 3, 47, 115
5, 182138, Note_on_c, 3, 47, 0
5, 182168, Note_on_c, 3, 48, 115
5, 182198, Note_on_c, 3, 48, 0
5, 182228, Note_on_c, 3, 48, 115
5, 182258, Note_on_c, 3, 48, 0
5, 182288, Note_on_c, 3, 43, 115
5, 182318, Note_on_c, 3, 43, 0
5, 182348, Note_on_c, 3, 47, 115
5, 182378, Note_on_c, 3, 47, 0
5, 182408, Note_on_c, 3, 48, 115
5, 182528, Note_on_c, 3, 48, 0
5, 183008, Note_on_c, 3, 55, 100
5, 183008, Note_on_c, 3, 52, 100
5, 183068, Note_on_c, 3, 52, 0
5, 183068, Note_on_c, 3, 55, 0
5, 183128, Note_on_c, 3, 60, 100
5, 183128, Note_on_c, 3, 55, 100
5, 183188, Note_on_c, 3, 55, 0
5, 183188, Note_on_c, 3, 60, 0
5, 183248, Note_on_c, 3, 64, 100
5, 183248, Note_on_c, 3, 60, 100
5, 183308, Note_on_c, 3, 60, 0
5, 183308, Note_on_c, 3, 64, 0
5, 183368, Control_c, 3, 7, 122
5, 183368, Note_on_c, 3, 67, 90
5, 183368, Note_on_c, 3, 64, 90
5, 183379, Control_c, 3, 7, 121
5, 183391, Control_c, 3, 7, 120
5, 183403, Control_c, 3, 7, 119
5, 183415, Control_c, 3, 7, 118
5, 183427, Control_c, 3, 7, 117
5, 183439, Control_c, 3, 7, 116
5, 183451, Control_c, 3, 7, 115
5, 183463, Control_c, 3, 7, 114
5, 183475, Control_c, 3, 7, 113
5, 183487, Control_c, 3, 7, 112
5, 183499, Control_c, 3, 7, 111
5, 183511, Control_c, 3, 7, 110
5, 183523, Control_c, 3, 7, 109
5, 183535, Control_c, 3, 7, 108
5, 183547, Control_c, 3, 7, 107
5, 183559, Control_c, 3, 7, 106
5, 183571, Control_c, 3, 7, 105
5, 183583, Control_c, 3, 7, 104
5, 183595, Control_c, 3, 7, 103
5, 183607, Control_c, 3, 7, 102
5, 184448, Control_c, 3, 11, 87
5, 184466, Control_c, 3, 11, 88
5, 184484, Control_c, 3, 11, 89
5, 184502, Control_c, 3, 11, 90
5, 184520, Control_c, 3, 11, 91
5, 184538, Control_c, 3, 11, 92
5, 184556, Control_c, 3, 11, 93
5, 184574, Control_c, 3, 11, 94
5, 184592, Control_c, 3, 11, 95
5, 184610, Control_c, 3, 11, 96
5, 184628, Control_c, 3, 11, 97
5, 184646, Control_c, 3, 11, 98
5, 184664, Control_c, 3, 11, 99
5, 184682, Control_c, 3, 11, 100
5, 184700, Control_c, 3, 11, 101
5, 184718, Control_c, 3, 11, 102
5, 184736, Control_c, 3, 11, 103
5, 184754, Control_c, 3, 11, 104
5, 184772, Control_c, 3, 11, 105
5, 184790, Control_c, 3, 11, 106
5, 184808, Control_c, 3, 11, 107
5, 184928, Note_on_c, 3, 64, 0
5, 184928, Note_on_c, 3, 67, 0
5, 184928, Note_on_c, 3, 55, 100
5, 184988, Note_on_c, 3, 55, 0
5, 185048, Note_on_c, 3, 60, 100
5, 185108, Note_on_c, 3, 60, 0
5, 185168, Note_on_c, 3, 64, 100
5, 185228, Note_on_c, 3, 64, 0
5, 185288, Note_on_c, 3, 67, 100
5, 185348, Note_on_c, 3, 67, 0
5, 185408, Note_on_c, 3, 64, 100
5, 185468, Note_on_c, 3, 64, 0
5, 185528, Note_on_c, 3, 60, 100
5, 185588, Note_on_c, 3, 60, 0
5, 185648, Note_on_c, 3, 55, 100
5, 185708, Note_on_c, 3, 55, 0
5, 185768, Note_on_c, 3, 64, 100
5, 185828, Note_on_c, 3, 64, 0
5, 185888, Note_on_c, 3, 60, 100
5, 185948, Note_on_c, 3, 60, 0
5, 186008, Note_on_c, 3, 55, 100
5, 186068, Note_on_c, 3, 55, 0
5, 186128, Note_on_c, 3, 52, 100
5, 186188, Note_on_c, 3, 52, 0
5, 186248, Note_on_c, 3, 60, 100
5, 186308, Note_on_c, 3, 60, 0
5, 186368, Note_on_c, 3, 55, 100
5, 186428, Note_on_c, 3, 55, 0
5, 186488, Note_on_c, 3, 52, 100
5, 186548, Note_on_c, 3, 52, 0
5, 186608, Note_on_c, 3, 48, 100
5, 186668, Note_on_c, 3, 48, 0
5, 186728, Note_on_c, 3, 43, 100
5, 186788, Note_on_c, 3, 43, 0
5, 186848, Note_on_c, 3, 48, 100
5, 186908, Note_on_c, 3, 48, 0
5, 186968, Note_on_c, 3, 43, 100
5, 187028, Note_on_c, 3, 43, 0
5, 187088, Note_on_c, 3, 40, 100
5, 187148, Note_on_c, 3, 40, 0
5, 187208, Note_on_c, 3, 36, 115
5, 187328, Note_on_c, 3, 36, 0
5, 187688, Note_on_c, 3, 48, 100
5, 187808, Note_on_c, 3, 48, 0
5, 188168, Note_on_c, 3, 48, 100
5, 188288, Note_on_c, 3, 48, 0
5, 188648, Note_on_c, 3, 48, 100
5, 188768, Note_on_c, 3, 48, 0
5, 188888, Note_on_c, 3, 48, 100
5, 189008, Note_on_c, 3, 48, 0
5, 189128, Note_on_c, 3, 48, 100
5, 189248, Note_on_c, 3, 48, 0
5, 189608, Control_c, 3, 121, 0
5, 189608, End_track
6, 0, Start_track
6, 0, MIDI_port, 0
6, 0, Title_t, "Corno I in C"
6, 0, Program_c, 4, 60
6, 0, Control_c, 4, 10, 24
6, 2, Control_c, 4, 121, 0
6, 7, Program_c, 4, 60
6, 12, Pitch_bend_c, 4, 8292
6, 17, Control_c, 4, 11, 87
6, 22, Control_c, 4, 7, 127
6, 27, Control_c, 4, 91, 80
6, 32, Control_c, 4, 93, 0
6, 37, Control_c, 4, 10, 24
6, 482, Note_on_c, 4, 60, 82
6, 482, Control_c, 4, 11, 57
6, 486, Control_c, 4, 11, 60
6, 491, Control_c, 4, 11, 63
6, 496, Control_c, 4, 11, 66
6, 501, Control_c, 4, 11, 69
6, 506, Control_c, 4, 11, 72
6, 511, Control_c, 4, 11, 75
6, 516, Control_c, 4, 11, 78
6, 528, Control_c, 4, 11, 75
6, 540, Control_c, 4, 11, 72
6, 552, Control_c, 4, 11, 69
6, 563, Control_c, 4, 11, 66
6, 575, Control_c, 4, 11, 63
6, 587, Control_c, 4, 11, 60
6, 599, Control_c, 4, 11, 57
6, 610, Control_c, 4, 11, 54
6, 622, Control_c, 4, 11, 51
6, 634, Control_c, 4, 11, 48
6, 762, Control_c, 4, 11, 47
6, 765, Control_c, 4, 11, 44
6, 768, Control_c, 4, 11, 41
6, 771, Control_c, 4, 11, 38
6, 774, Control_c, 4, 11, 35
6, 777, Control_c, 4, 11, 32
6, 780, Control_c, 4, 11, 29
6, 782, Note_on_c, 4, 60, 0
6, 962, Note_on_c, 4, 62, 82
6, 962, Control_c, 4, 11, 57
6, 966, Control_c, 4, 11, 60
6, 971, Control_c, 4, 11, 63
6, 976, Control_c, 4, 11, 66
6, 981, Control_c, 4, 11, 69
6, 986, Control_c, 4, 11, 72
6, 991, Control_c, 4, 11, 75
6, 996, Control_c, 4, 11, 78
6, 1008, Control_c, 4, 11, 75
6, 1020, Control_c, 4, 11, 72
6, 1032, Control_c, 4, 11, 69
6, 1043, Control_c, 4, 11, 66
6, 1055, Control_c, 4, 11, 63
6, 1067, Control_c, 4, 11, 60
6, 1079, Control_c, 4, 11, 57
6, 1090, Control_c, 4, 11, 54
6, 1102, Control_c, 4, 11, 51
6, 1114, Control_c, 4, 11, 48
6, 1192, Note_on_c, 4, 62, 0
6, 1202, Note_on_c, 4, 60, 66
6, 1242, Control_c, 4, 11, 47
6, 1245, Control_c, 4, 11, 44
6, 1248, Control_c, 4, 11, 41
6, 1251, Control_c, 4, 11, 38
6, 1254, Control_c, 4, 11, 35
6, 1257, Control_c, 4, 11, 32
6, 1260, Control_c, 4, 11, 29
6, 1262, Note_on_c, 4, 60, 0
6, 1442, Note_on_c, 4, 62, 82
6, 1442, Control_c, 4, 11, 47
6, 1465, Control_c, 4, 11, 49
6, 1489, Control_c, 4, 11, 51
6, 1513, Control_c, 4, 11, 53
6, 1537, Control_c, 4, 11, 55
6, 1561, Control_c, 4, 11, 57
6, 1585, Control_c, 4, 11, 59
6, 1609, Control_c, 4, 11, 61
6, 1633, Control_c, 4, 11, 63
6, 1657, Control_c, 4, 11, 65
6, 1672, Note_on_c, 4, 62, 0
6, 1681, Control_c, 4, 11, 67
6, 1682, Note_on_c, 4, 62, 82
6, 1705, Control_c, 4, 11, 69
6, 1729, Control_c, 4, 11, 71
6, 1753, Control_c, 4, 11, 73
6, 1777, Control_c, 4, 11, 75
6, 1781, Note_on_c, 4, 62, 0
6, 1801, Control_c, 4, 11, 77
6, 1802, Note_on_c, 4, 62, 82
6, 1825, Control_c, 4, 11, 79
6, 1849, Control_c, 4, 11, 81
6, 1873, Control_c, 4, 11, 83
6, 1897, Control_c, 4, 11, 85
6, 1901, Note_on_c, 4, 62, 0
6, 1921, Control_c, 4, 11, 87
6, 1922, Note_on_c, 4, 62, 102
6, 2042, Note_on_c, 4, 62, 0
6, 2402, Note_on_c, 4, 67, 102
6, 2402, Control_c, 4, 11, 32
6, 2406, Control_c, 4, 11, 35
6, 2410, Control_c, 4, 11, 38
6, 2414, Control_c, 4, 11, 41
6, 2418, Control_c, 4, 11, 44
6, 2422, Control_c, 4, 11, 47
6, 3002, Note_on_c, 4, 67, 0
6, 3002, Note_on_c, 4, 67, 102
6, 3122, Note_on_c, 4, 67, 0
6, 3122, Note_on_c, 4, 64, 102
6, 3242, Note_on_c, 4, 64, 0
6, 3242, Note_on_c, 4, 60, 102
6, 3362, Note_on_c, 4, 60, 0
6, 3362, Note_on_c, 4, 55, 102
6, 3362, Control_c, 4, 11, 47
6, 3386, Control_c, 4, 11, 49
6, 3410, Control_c, 4, 11, 51
6, 3434, Control_c, 4, 11, 53
6, 3458, Control_c, 4, 11, 55
6, 3482, Control_c, 4, 11, 57
6, 3506, Control_c, 4, 11, 59
6, 3530, Control_c, 4, 11, 61
6, 3554, Control_c, 4, 11, 63
6, 3578, Control_c, 4, 11, 65
6, 3602, Control_c, 4, 11, 67
6, 3626, Control_c, 4, 11, 69
6, 3650, Control_c, 4, 11, 71
6, 3662, Note_on_c, 4, 55, 0
6, 3662, Note_on_c, 4, 55, 102
6, 3674, Control_c, 4, 11, 73
6, 3698, Control_c, 4, 11, 75
6, 3717, Note_on_c, 4, 55, 0
6, 3722, Control_c, 4, 11, 77
6, 3722, Note_on_c, 4, 55, 102
6, 3746, Control_c, 4, 11, 79
6, 3770, Control_c, 4, 11, 81
6, 3777, Note_on_c, 4, 55, 0
6, 3782, Note_on_c, 4, 55, 102
6, 3794, Control_c, 4, 11, 83
6, 3818, Control_c, 4, 11, 85
6, 3837, Note_on_c, 4, 55, 0
6, 3842, Control_c, 4, 11, 77
6, 3842, Note_on_c, 4, 60, 102
6, 3851, Control_c, 4, 11, 80
6, 3860, Control_c, 4, 11, 83
6, 3869, Control_c, 4, 11, 86
6, 3949, Note_on_c, 4, 60, 0
6, 3962, Note_on_c, 4, 67, 102
6, 4062, Control_c, 4, 11, 87
6, 4064, Control_c, 4, 11, 83
6, 4066, Control_c, 4, 11, 79
6, 4068, Control_c, 4, 11, 76
6, 4070, Control_c, 4, 11, 72
6, 4072, Control_c, 4, 11, 69
6, 4074, Control_c, 4, 11, 65
6, 4076, Note_on_c, 4, 67, 0
6, 4076, Control_c, 4, 11, 62
6, 4202, Note_on_c, 4, 65, 102
6, 4202, Control_c, 4, 11, 87
6, 4302, Control_c, 4, 11, 87
6, 4304, Control_c, 4, 11, 83
6, 4306, Control_c, 4, 11, 79
6, 4308, Control_c, 4, 11, 76
6, 4310, Control_c, 4, 11, 72
6, 4312, Control_c, 4, 11, 69
6, 4314, Control_c, 4, 11, 65
6, 4316, Note_on_c, 4, 65, 0
6, 4316, Control_c, 4, 11, 62
6, 4322, Note_on_c, 4, 64, 102
6, 4322, Control_c, 4, 11, 32
6, 4328, Control_c, 4, 11, 35
6, 4334, Control_c, 4, 11, 38
6, 4340, Control_c, 4, 11, 41
6, 4346, Control_c, 4, 11, 44
6, 4352, Control_c, 4, 11, 47
6, 4502, Note_on_c, 4, 64, 0
6, 4502, Note_on_c, 4, 67, 102
6, 4557, Note_on_c, 4, 67, 0
6, 4562, Note_on_c, 4, 67, 102
6, 4562, Control_c, 4, 11, 47
6, 4580, Control_c, 4, 11, 50
6, 4598, Control_c, 4, 11, 53
6, 4616, Control_c, 4, 11, 56
6, 4622, Note_on_c, 4, 67, 0
6, 4622, Note_on_c, 4, 65, 102
6, 4634, Control_c, 4, 11, 59
6, 4652, Control_c, 4, 11, 62
6, 4670, Control_c, 4, 11, 65
6, 4682, Note_on_c, 4, 65, 0
6, 4682, Note_on_c, 4, 64, 102
6, 4688, Control_c, 4, 11, 68
6, 4706, Control_c, 4, 11, 71
6, 4724, Control_c, 4, 11, 74
6, 4742, Note_on_c, 4, 64, 0
6, 4742, Note_on_c, 4, 65, 102
6, 4742, Control_c, 4, 11, 77
6, 4760, Control_c, 4, 11, 80
6, 4778, Control_c, 4, 11, 83
6, 4796, Control_c, 4, 11, 86
6, 4797, Note_on_c, 4, 65, 0
6, 4802, Note_on_c, 4, 64, 102
6, 4802, Control_c, 4, 11, 77
6, 4811, Control_c, 4, 11, 80
6, 4820, Control_c, 4, 11, 83
6, 4829, Control_c, 4, 11, 86
6, 4909, Note_on_c, 4, 64, 0
6, 4922, Note_on_c, 4, 60, 102
6, 5017, Control_c, 4, 11, 87
6, 5019, Control_c, 4, 11, 83
6, 5021, Control_c, 4, 11, 79
6, 5023, Control_c, 4, 11, 76
6, 5025, Control_c, 4, 11, 72
6, 5027, Control_c, 4, 11, 69
6, 5029, Control_c, 4, 11, 65
6, 5031, Control_c, 4, 11, 62
6, 5036, Note_on_c, 4, 60, 0
6, 5162, Control_c, 4, 11, 87
6, 5162, Note_on_c, 4, 60, 102
6, 5257, Control_c, 4, 11, 87
6, 5259, Control_c, 4, 11, 83
6, 5261, Control_c, 4, 11, 79
6, 5263, Control_c, 4, 11, 76
6, 5265, Control_c, 4, 11, 72
6, 5267, Control_c, 4, 11, 69
6, 5269, Control_c, 4, 11, 65
6, 5271, Control_c, 4, 11, 62
6, 5276, Note_on_c, 4, 60, 0
6, 5282, Control_c, 4, 11, 87
6, 5282, Note_on_c, 4, 60, 102
6, 5342, Control_c, 4, 11, 87
6, 5355, Control_c, 4, 11, 84
6, 5369, Control_c, 4, 11, 81
6, 5382, Control_c, 4, 11, 78
6, 5396, Control_c, 4, 11, 75
6, 5409, Control_c, 4, 11, 72
6, 5423, Control_c, 4, 11, 69
6, 5436, Control_c, 4, 11, 66
6, 5450, Control_c, 4, 11, 63
6, 5463, Control_c, 4, 11, 60
6, 5477, Control_c, 4, 11, 57
6, 5490, Control_c, 4, 11, 54
6, 5504, Control_c, 4, 11, 51
6, 5517, Control_c, 4, 11, 48
6, 5545, Control_c, 4, 11, 46
6, 5569, Control_c, 4, 11, 45
6, 5582, Note_on_c, 4, 60, 0
6, 5582, Control_c, 4, 91, 110
6, 5582, Note_on_c, 4, 67, 122
6, 5593, Control_c, 4, 11, 44
6, 5617, Control_c, 4, 11, 43
6, 5641, Control_c, 4, 11, 42
6, 5642, Note_on_c, 4, 67, 0
6, 5642, Note_on_c, 4, 64, 122
6, 5665, Control_c, 4, 11, 41
6, 5689, Control_c, 4, 11, 40
6, 5702, Note_on_c, 4, 64, 0
6, 5702, Note_on_c, 4, 60, 122
6, 5713, Control_c, 4, 11, 39
6, 5737, Control_c, 4, 11, 38
6, 5761, Control_c, 4, 11, 37
6, 5762, Note_on_c, 4, 60, 0
6, 5762, Note_on_c, 4, 55, 102
6, 5762, Control_c, 4, 91, 80
6, 5780, Control_c, 4, 11, 40
6, 5798, Control_c, 4, 11, 43
6, 5816, Control_c, 4, 11, 46
6, 6002, Note_on_c, 4, 55, 0
6, 6002, Note_on_c, 4, 62, 102
6, 6237, Note_on_c, 4, 62, 0
6, 6242, Note_on_c, 4, 60, 102
6, 6302, Control_c, 4, 11, 47
6, 6309, Control_c, 4, 11, 44
6, 6316, Control_c, 4, 11, 41
6, 6323, Control_c, 4, 11, 38
6, 6330, Control_c, 4, 11, 35
6, 6337, Control_c, 4, 11, 32
6, 6344, Control_c, 4, 11, 29
6, 6351, Control_c, 4, 11, 26
6, 6358, Control_c, 4, 11, 23
6, 6362, Note_on_c, 4, 60, 0
6, 11042, Control_c, 4, 11, 32
6, 11042, Note_on_c, 4, 62, 82
6, 11061, Control_c, 4, 11, 35
6, 11080, Control_c, 4, 11, 38
6, 11099, Control_c, 4, 11, 41
6, 11126, Control_c, 4, 11, 43
6, 11147, Control_c, 4, 11, 44
6, 11168, Control_c, 4, 11, 45
6, 11189, Control_c, 4, 11, 46
6, 11210, Control_c, 4, 11, 47
6, 11230, Control_c, 4, 11, 48
6, 11251, Control_c, 4, 11, 49
6, 11272, Control_c, 4, 11, 50
6, 11293, Control_c, 4, 11, 51
6, 11314, Control_c, 4, 11, 52
6, 11334, Control_c, 4, 11, 53
6, 11355, Control_c, 4, 11, 54
6, 11376, Control_c, 4, 11, 55
6, 11397, Control_c, 4, 11, 56
6, 11418, Control_c, 4, 11, 57
6, 11438, Control_c, 4, 11, 58
6, 11459, Control_c, 4, 11, 59
6, 11480, Control_c, 4, 11, 60
6, 11501, Control_c, 4, 11, 61
6, 11522, Control_c, 4, 11, 62
6, 11554, Control_c, 4, 11, 63
6, 11586, Control_c, 4, 11, 64
6, 11618, Control_c, 4, 11, 65
6, 11650, Control_c, 4, 11, 66
6, 11682, Control_c, 4, 11, 67
6, 11714, Control_c, 4, 11, 68
6, 11746, Control_c, 4, 11, 69
6, 11778, Control_c, 4, 11, 70
6, 11810, Control_c, 4, 11, 71
6, 11842, Control_c, 4, 11, 72
6, 11874, Control_c, 4, 11, 73
6, 11906, Control_c, 4, 11, 74
6, 11938, Control_c, 4, 11, 75
6, 11970, Control_c, 4, 11, 76
6, 12002, Note_on_c, 4, 62, 0
6, 12002, Note_on_c, 4, 62, 102
6, 12002, Control_c, 4, 11, 87
6, 12020, Control_c, 4, 11, 84
6, 12038, Control_c, 4, 11, 81
6, 12056, Control_c, 4, 11, 78
6, 12074, Control_c, 4, 11, 75
6, 12092, Control_c, 4, 11, 72
6, 12110, Control_c, 4, 11, 69
6, 12129, Control_c, 4, 11, 66
6, 12150, Control_c, 4, 11, 63
6, 12165, Control_c, 4, 11, 61
6, 12186, Control_c, 4, 11, 58
6, 12208, Control_c, 4, 11, 55
6, 12229, Control_c, 4, 11, 52
6, 12251, Control_c, 4, 11, 49
6, 12272, Control_c, 4, 11, 46
6, 12294, Control_c, 4, 11, 43
6, 12315, Control_c, 4, 11, 40
6, 12337, Note_on_c, 4, 62, 0
6, 12337, Control_c, 4, 11, 37
6, 12962, Note_on_c, 4, 67, 102
6, 12962, Control_c, 4, 11, 97
6, 12980, Control_c, 4, 11, 94
6, 12998, Control_c, 4, 11, 91
6, 13016, Control_c, 4, 11, 88
6, 13034, Control_c, 4, 11, 85
6, 13052, Control_c, 4, 11, 82
6, 13070, Control_c, 4, 11, 79
6, 13087, Control_c, 4, 11, 76
6, 13103, Control_c, 4, 11, 73
6, 13119, Control_c, 4, 11, 70
6, 13135, Control_c, 4, 11, 67
6, 13151, Control_c, 4, 11, 64
6, 13168, Control_c, 4, 11, 61
6, 13184, Control_c, 4, 11, 58
6, 13200, Control_c, 4, 11, 55
6, 13216, Control_c, 4, 11, 52
6, 13232, Control_c, 4, 11, 49
6, 13248, Control_c, 4, 11, 46
6, 13264, Control_c, 4, 11, 43
6, 13280, Control_c, 4, 11, 40
6, 13297, Note_on_c, 4, 67, 0
6, 13297, Control_c, 4, 11, 37
6, 13922, Note_on_c, 4, 67, 92
6, 13922, Control_c, 4, 11, 97
6, 13940, Control_c, 4, 11, 94
6, 13958, Control_c, 4, 11, 91
6, 13976, Control_c, 4, 11, 88
6, 13994, Control_c, 4, 11, 85
6, 14012, Control_c, 4, 11, 82
6, 14030, Control_c, 4, 11, 79
6, 14402, Control_c, 4, 11, 77
6, 14421, Control_c, 4, 11, 78
6, 14440, Control_c, 4, 11, 79
6, 14459, Control_c, 4, 11, 80
6, 14478, Control_c, 4, 11, 81
6, 14497, Control_c, 4, 11, 82
6, 14512, Note_on_c, 4, 67, 0
6, 14516, Control_c, 4, 11, 83
6, 14522, Note_on_c, 4, 67, 92
6, 14536, Control_c, 4, 11, 84
6, 14555, Control_c, 4, 11, 85
6, 14574, Control_c, 4, 11, 86
6, 14593, Control_c, 4, 11, 87
6, 14612, Control_c, 4, 11, 88
6, 14631, Control_c, 4, 11, 89
6, 14632, Note_on_c, 4, 67, 0
6, 14642, Note_on_c, 4, 67, 92
6, 14651, Control_c, 4, 11, 90
6, 14670, Control_c, 4, 11, 91
6, 14689, Control_c, 4, 11, 92
6, 14708, Control_c, 4, 11, 93
6, 14727, Control_c, 4, 11, 94
6, 14746, Control_c, 4, 11, 95
6, 14752, Note_on_c, 4, 67, 0
6, 14762, Note_on_c, 4, 67, 92
6, 14766, Control_c, 4, 11, 96
6, 14785, Control_c, 4, 11, 97
6, 14804, Control_c, 4, 11, 98
6, 14823, Control_c, 4, 11, 99
6, 14842, Control_c, 4, 11, 100
6, 14861, Control_c, 4, 11, 101
6, 14872, Note_on_c, 4, 67, 0
6, 14881, Control_c, 4, 11, 102
6, 14882, Note_on_c, 4, 67, 102
6, 14942, Note_on_c, 4, 67, 0
6, 15122, Note_on_c, 4, 60, 92
6, 15182, Note_on_c, 4, 60, 0
6, 15362, Note_on_c, 4, 60, 92
6, 15422, Note_on_c, 4, 60, 0
6, 15602, Note_on_c, 4, 62, 92
6, 15662, Note_on_c, 4, 62, 0
6, 15842, Note_on_c, 4, 60, 92
6, 15902, Note_on_c, 4, 60, 0
6, 16442, Note_on_c, 4, 60, 87
6, 16562, Note_on_c, 4, 60, 0
6, 16562, Note_on_c, 4, 60, 87
6, 16682, Note_on_c, 4, 60, 0
6, 16682, Note_on_c, 4, 60, 87
6, 16802, Note_on_c, 4, 60, 0
6, 16802, Note_on_c, 4, 62, 87
6, 17402, Note_on_c, 4, 62, 0
6, 17402, Note_on_c, 4, 62, 87
6, 17522, Note_on_c, 4, 62, 0
6, 17522, Note_on_c, 4, 62, 87
6, 17642, Note_on_c, 4, 62, 0
6, 17642, Note_on_c, 4, 62, 87
6, 17762, Note_on_c, 4, 62, 0
6, 17762, Note_on_c, 4, 60, 87
6, 17882, Note_on_c, 4, 60, 0
6, 18362, Note_on_c, 4, 60, 87
6, 18482, Note_on_c, 4, 60, 0
6, 18482, Note_on_c, 4, 60, 87
6, 18602, Note_on_c, 4, 60, 0
6, 18602, Note_on_c, 4, 60, 87
6, 18722, Note_on_c, 4, 60, 0
6, 18722, Note_on_c, 4, 62, 87
6, 19322, Note_on_c, 4, 62, 0
6, 19322, Note_on_c, 4, 62, 87
6, 19442, Note_on_c, 4, 62, 0
6, 19442, Note_on_c, 4, 62, 87
6, 19562, Note_on_c, 4, 62, 0
6, 19562, Note_on_c, 4, 62, 87
6, 19682, Note_on_c, 4, 62, 0
6, 19682, Note_on_c, 4, 60, 87
6, 19802, Note_on_c, 4, 60, 0
6, 21602, Note_on_c, 4, 67, 102
6, 21722, Note_on_c, 4, 67, 0
6, 21722, Note_on_c, 4, 62, 102
6, 21842, Note_on_c, 4, 62, 0
6, 21842, Note_on_c, 4, 64, 102
6, 21962, Note_on_c, 4, 64, 0
6, 21962, Note_on_c, 4, 64, 102
6, 22082, Note_on_c, 4, 64, 0
6, 22082, Note_on_c, 4, 62, 102
6, 22202, Note_on_c, 4, 62, 0
6, 22682, Note_on_c, 4, 62, 102
6, 22802, Note_on_c, 4, 62, 0
6, 22802, Note_on_c, 4, 64, 102
6, 22922, Note_on_c, 4, 64, 0
6, 22922, Note_on_c, 4, 64, 102
6, 23042, Note_on_c, 4, 64, 0
6, 23042, Note_on_c, 4, 62, 102
6, 23162, Note_on_c, 4, 62, 0
6, 23642, Note_on_c, 4, 62, 102
6, 23762, Note_on_c, 4, 62, 0
6, 23882, Note_on_c, 4, 64, 102
6, 24002, Note_on_c, 4, 64, 0
6, 24122, Note_on_c, 4, 62, 102
6, 24242, Note_on_c, 4, 62, 0
6, 24362, Note_on_c, 4, 64, 102
6, 24482, Note_on_c, 4, 64, 0
6, 24482, Note_on_c, 4, 62, 102
6, 24602, Note_on_c, 4, 62, 0
6, 24722, Note_on_c, 4, 62, 102
6, 24842, Note_on_c, 4, 62, 0
6, 24962, Note_on_c, 4, 55, 102
6, 25082, Note_on_c, 4, 55, 0
6, 33122, Note_on_c, 4, 62, 102
6, 33122, Control_c, 4, 11, 87
6, 33242, Note_on_c, 4, 62, 0
6, 33362, Note_on_c, 4, 62, 102
6, 33482, Note_on_c, 4, 62, 0
6, 33602, Note_on_c, 4, 62, 102
6, 33722, Note_on_c, 4, 62, 0
6, 34082, Control_c, 4, 11, 107
6, 34082, Note_on_c, 4, 62, 102
6, 34099, Control_c, 4, 11, 104
6, 34117, Control_c, 4, 11, 101
6, 34135, Control_c, 4, 11, 98
6, 34153, Control_c, 4, 11, 95
6, 34171, Control_c, 4, 11, 92
6, 34189, Control_c, 4, 11, 89
6, 34322, Note_on_c, 4, 62, 0
6, 34322, Note_on_c, 4, 62, 102
6, 34322, Control_c, 4, 11, 107
6, 34339, Control_c, 4, 11, 104
6, 34357, Control_c, 4, 11, 101
6, 34375, Control_c, 4, 11, 98
6, 34393, Control_c, 4, 11, 95
6, 34411, Control_c, 4, 11, 92
6, 34429, Control_c, 4, 11, 89
6, 34562, Note_on_c, 4, 62, 0
6, 34562, Control_c, 4, 11, 107
6, 34562, Note_on_c, 4, 62, 102
6, 34579, Control_c, 4, 11, 104
6, 34597, Control_c, 4, 11, 101
6, 34615, Control_c, 4, 11, 98
6, 34633, Control_c, 4, 11, 95
6, 34651, Control_c, 4, 11, 92
6, 34669, Control_c, 4, 11, 89
6, 34802, Note_on_c, 4, 62, 0
6, 35042, Note_on_c, 4, 62, 102
6, 35282, Note_on_c, 4, 62, 0
6, 36602, Note_on_c, 4, 67, 102
6, 36602, Control_c, 4, 11, 102
6, 36722, Note_on_c, 4, 67, 0
6, 36722, Note_on_c, 4, 62, 102
6, 36842, Note_on_c, 4, 62, 0
6, 36842, Note_on_c, 4, 62, 102
6, 36962, Note_on_c, 4, 62, 0
6, 36962, Note_on_c, 4, 62, 47
6, 36962, Control_c, 4, 11, 86
6, 36992, Control_c, 4, 11, 87
6, 37004, Control_c, 4, 11, 84
6, 37018, Control_c, 4, 11, 81
6, 37031, Control_c, 4, 11, 78
6, 37045, Control_c, 4, 11, 75
6, 37058, Control_c, 4, 11, 72
6, 37072, Control_c, 4, 11, 69
6, 37082, Note_on_c, 4, 62, 0
6, 42482, Note_on_c, 4, 67, 102
6, 42482, Control_c, 4, 11, 107
6, 42500, Control_c, 4, 11, 104
6, 42518, Control_c, 4, 11, 101
6, 42536, Control_c, 4, 11, 98
6, 42554, Control_c, 4, 11, 95
6, 42572, Control_c, 4, 11, 92
6, 42590, Control_c, 4, 11, 89
6, 42842, Note_on_c, 4, 67, 0
6, 42962, Control_c, 4, 11, 107
6, 42962, Note_on_c, 4, 67, 102
6, 42980, Control_c, 4, 11, 104
6, 42998, Control_c, 4, 11, 101
6, 43016, Control_c, 4, 11, 98
6, 43034, Control_c, 4, 11, 95
6, 43052, Control_c, 4, 11, 92
6, 43070, Control_c, 4, 11, 89
6, 43322, Note_on_c, 4, 67, 0
6, 47282, Note_on_c, 4, 64, 102
6, 47282, Control_c, 4, 11, 122
6, 47300, Control_c, 4, 11, 119
6, 47318, Control_c, 4, 11, 116
6, 47336, Control_c, 4, 11, 113
6, 47354, Control_c, 4, 11, 110
6, 47372, Control_c, 4, 11, 107
6, 47390, Control_c, 4, 11, 104
6, 47522, Note_on_c, 4, 64, 0
6, 47522, Control_c, 4, 11, 122
6, 47522, Note_on_c, 4, 60, 102
6, 47540, Control_c, 4, 11, 119
6, 47558, Control_c, 4, 11, 116
6, 47576, Control_c, 4, 11, 113
6, 47594, Control_c, 4, 11, 110
6, 47612, Control_c, 4, 11, 107
6, 47630, Control_c, 4, 11, 104
6, 47762, Note_on_c, 4, 60, 0
6, 47762, Note_on_c, 4, 62, 102
6, 47762, Control_c, 4, 11, 122
6, 47780, Control_c, 4, 11, 119
6, 47798, Control_c, 4, 11, 116
6, 47816, Control_c, 4, 11, 113
6, 47834, Control_c, 4, 11, 110
6, 47852, Control_c, 4, 11, 107
6, 47870, Control_c, 4, 11, 104
6, 48002, Note_on_c, 4, 62, 0
6, 48002, Control_c, 4, 11, 87
6, 48002, Note_on_c, 4, 55, 102
6, 48020, Control_c, 4, 11, 84
6, 48038, Control_c, 4, 11, 81
6, 48056, Control_c, 4, 11, 78
6, 48074, Control_c, 4, 11, 75
6, 48092, Control_c, 4, 11, 72
6, 48110, Control_c, 4, 11, 69
6, 48134, Control_c, 4, 11, 66
6, 48158, Control_c, 4, 11, 64
6, 48182, Control_c, 4, 11, 62
6, 48206, Control_c, 4, 11, 60
6, 48230, Control_c, 4, 11, 58
6, 48254, Control_c, 4, 11, 56
6, 48278, Control_c, 4, 11, 54
6, 48302, Control_c, 4, 11, 52
6, 48326, Control_c, 4, 11, 50
6, 48350, Control_c, 4, 11, 48
6, 48842, Note_on_c, 4, 55, 0
6, 48842, Note_on_c, 4, 62, 102
6, 48842, Control_c, 4, 11, 87
6, 48962, Note_on_c, 4, 62, 0
6, 48962, Note_on_c, 4, 55, 102
6, 48962, Control_c, 4, 11, 47
6, 49802, Note_on_c, 4, 55, 0
6, 49802, Note_on_c, 4, 62, 102
6, 49802, Control_c, 4, 11, 87
6, 49922, Note_on_c, 4, 62, 0
6, 49922, Note_on_c, 4, 55, 102
6, 49922, Control_c, 4, 11, 47
6, 50282, Note_on_c, 4, 55, 0
6, 50282, Note_on_c, 4, 62, 102
6, 50282, Control_c, 4, 11, 87
6, 50402, Note_on_c, 4, 62, 0
6, 50402, Control_c, 4, 11, 47
6, 50402, Note_on_c, 4, 55, 102
6, 50762, Note_on_c, 4, 55, 0
6, 50762, Control_c, 4, 11, 102
6, 50762, Note_on_c, 4, 62, 102
6, 50882, Note_on_c, 4, 62, 0
6, 50882, Note_on_c, 4, 62, 102
6, 50882, Control_c, 4, 11, 102
6, 50906, Control_c, 4, 11, 100
6, 50930, Control_c, 4, 11, 98
6, 50954, Control_c, 4, 11, 96
6, 50978, Control_c, 4, 11, 94
6, 51002, Control_c, 4, 11, 92
6, 51026, Control_c, 4, 11, 90
6, 51050, Control_c, 4, 11, 88
6, 51074, Control_c, 4, 11, 86
6, 51098, Control_c, 4, 11, 84
6, 51122, Note_on_c, 4, 62, 0
6, 51122, Note_on_c, 4, 67, 102
6, 51122, Control_c, 4, 11, 82
6, 51169, Control_c, 4, 11, 81
6, 51217, Control_c, 4, 11, 80
6, 51265, Control_c, 4, 11, 79
6, 51313, Control_c, 4, 11, 78
6, 51361, Control_c, 4, 11, 77
6, 51362, Note_on_c, 4, 67, 0
6, 51362, Note_on_c, 4, 67, 102
6, 51409, Control_c, 4, 11, 76
6, 51457, Control_c, 4, 11, 75
6, 51505, Control_c, 4, 11, 74
6, 51553, Control_c, 4, 11, 73
6, 51601, Control_c, 4, 11, 72
6, 51602, Note_on_c, 4, 67, 0
6, 51602, Note_on_c, 4, 67, 102
6, 51649, Control_c, 4, 11, 71
6, 51697, Control_c, 4, 11, 70
6, 51745, Control_c, 4, 11, 69
6, 51793, Control_c, 4, 11, 68
6, 51841, Control_c, 4, 11, 67
6, 51842, Note_on_c, 4, 67, 0
6, 51842, Note_on_c, 4, 67, 102
6, 51889, Control_c, 4, 11, 66
6, 51937, Control_c, 4, 11, 65
6, 51985, Control_c, 4, 11, 64
6, 52033, Control_c, 4, 11, 63
6, 52081, Control_c, 4, 11, 62
6, 52129, Control_c, 4, 11, 61
6, 52177, Control_c, 4, 11, 60
6, 52225, Control_c, 4, 11, 59
6, 52273, Control_c, 4, 11, 58
6, 52321, Control_c, 4, 11, 57
6, 52369, Control_c, 4, 11, 56
6, 52417, Control_c, 4, 11, 55
6, 52465, Control_c, 4, 11, 54
6, 52513, Control_c, 4, 11, 53
6, 52561, Control_c, 4, 11, 52
6, 52609, Control_c, 4, 11, 51
6, 52657, Control_c, 4, 11, 50
6, 52705, Control_c, 4, 11, 49
6, 52753, Control_c, 4, 11, 48
6, 52801, Control_c, 4, 11, 47
6, 52802, Note_on_c, 4, 67, 0
6, 52802, Note_on_c, 4, 60, 87
6, 52862, Control_c, 4, 11, 47
6, 52869, Control_c, 4, 11, 44
6, 52876, Control_c, 4, 11, 41
6, 52883, Control_c, 4, 11, 38
6, 52890, Control_c, 4, 11, 35
6, 52897, Control_c, 4, 11, 32
6, 52904, Control_c, 4, 11, 29
6, 52911, Control_c, 4, 11, 26
6, 52918, Control_c, 4, 11, 23
6, 52922, Note_on_c, 4, 60, 0
6, 57602, Note_on_c, 4, 62, 82
6, 57602, Control_c, 4, 11, 32
6, 57621, Control_c, 4, 11, 35
6, 57640, Control_c, 4, 11, 38
6, 57659, Control_c, 4, 11, 41
6, 57686, Control_c, 4, 11, 43
6, 57707, Control_c, 4, 11, 44
6, 57728, Control_c, 4, 11, 45
6, 57749, Control_c, 4, 11, 46
6, 57770, Control_c, 4, 11, 47
6, 57790, Control_c, 4, 11, 48
6, 57811, Control_c, 4, 11, 49
6, 57832, Control_c, 4, 11, 50
6, 57853, Control_c, 4, 11, 51
6, 57874, Control_c, 4, 11, 52
6, 57894, Control_c, 4, 11, 53
6, 57915, Control_c, 4, 11, 54
6, 57936, Control_c, 4, 11, 55
6, 57957, Control_c, 4, 11, 56
6, 57978, Control_c, 4, 11, 57
6, 57998, Control_c, 4, 11, 58
6, 58019, Control_c, 4, 11, 59
6, 58040, Control_c, 4, 11, 60
6, 58061, Control_c, 4, 11, 61
6, 58082, Control_c, 4, 11, 62
6, 58114, Control_c, 4, 11, 63
6, 58146, Control_c, 4, 11, 64
6, 58178, Control_c, 4, 11, 65
6, 58210, Control_c, 4, 11, 66
6, 58242, Control_c, 4, 11, 67
6, 58274, Control_c, 4, 11, 68
6, 58306, Control_c, 4, 11, 69
6, 58338, Control_c, 4, 11, 70
6, 58370, Control_c, 4, 11, 71
6, 58402, Control_c, 4, 11, 72
6, 58434, Control_c, 4, 11, 73
6, 58466, Control_c, 4, 11, 74
6, 58498, Control_c, 4, 11, 75
6, 58530, Control_c, 4, 11, 76
6, 58562, Note_on_c, 4, 62, 0
6, 58562, Note_on_c, 4, 62, 102
6, 58562, Control_c, 4, 11, 87
6, 58580, Control_c, 4, 11, 84
6, 58598, Control_c, 4, 11, 81
6, 58616, Control_c, 4, 11, 78
6, 58634, Control_c, 4, 11, 75
6, 58652, Control_c, 4, 11, 72
6, 58670, Control_c, 4, 11, 69
6, 58689, Control_c, 4, 11, 66
6, 58710, Control_c, 4, 11, 63
6, 58725, Control_c, 4, 11, 61
6, 58746, Control_c, 4, 11, 58
6, 58768, Control_c, 4, 11, 55
6, 58789, Control_c, 4, 11, 52
6, 58811, Control_c, 4, 11, 49
6, 58832, Control_c, 4, 11, 46
6, 58854, Control_c, 4, 11, 43
6, 58875, Control_c, 4, 11, 40
6, 58897, Note_on_c, 4, 62, 0
6, 58897, Control_c, 4, 11, 37
6, 59522, Control_c, 4, 11, 97
6, 59522, Note_on_c, 4, 67, 102
6, 59540, Control_c, 4, 11, 94
6, 59558, Control_c, 4, 11, 91
6, 59576, Control_c, 4, 11, 88
6, 59594, Control_c, 4, 11, 85
6, 59612, Control_c, 4, 11, 82
6, 59630, Control_c, 4, 11, 79
6, 59647, Control_c, 4, 11, 76
6, 59663, Control_c, 4, 11, 73
6, 59679, Control_c, 4, 11, 70
6, 59695, Control_c, 4, 11, 67
6, 59711, Control_c, 4, 11, 64
6, 59728, Control_c, 4, 11, 61
6, 59744, Control_c, 4, 11, 58
6, 59760, Control_c, 4, 11, 55
6, 59776, Control_c, 4, 11, 52
6, 59792, Control_c, 4, 11, 49
6, 59808, Control_c, 4, 11, 46
6, 59824, Control_c, 4, 11, 43
6, 59840, Control_c, 4, 11, 40
6, 59857, Note_on_c, 4, 67, 0
6, 59857, Control_c, 4, 11, 37
6, 60482, Note_on_c, 4, 67, 92
6, 60482, Control_c, 4, 11, 97
6, 60500, Control_c, 4, 11, 94
6, 60518, Control_c, 4, 11, 91
6, 60536, Control_c, 4, 11, 88
6, 60554, Control_c, 4, 11, 85
6, 60572, Control_c, 4, 11, 82
6, 60590, Control_c, 4, 11, 79
6, 60962, Control_c, 4, 11, 77
6, 60981, Control_c, 4, 11, 78
6, 61000, Control_c, 4, 11, 79
6, 61019, Control_c, 4, 11, 80
6, 61038, Control_c, 4, 11, 81
6, 61057, Control_c, 4, 11, 82
6, 61072, Note_on_c, 4, 67, 0
6, 61076, Control_c, 4, 11, 83
6, 61082, Note_on_c, 4, 67, 92
6, 61096, Control_c, 4, 11, 84
6, 61115, Control_c, 4, 11, 85
6, 61134, Control_c, 4, 11, 86
6, 61153, Control_c, 4, 11, 87
6, 61172, Control_c, 4, 11, 88
6, 61191, Control_c, 4, 11, 89
6, 61192, Note_on_c, 4, 67, 0
6, 61202, Note_on_c, 4, 67, 92
6, 61211, Control_c, 4, 11, 90
6, 61230, Control_c, 4, 11, 91
6, 61249, Control_c, 4, 11, 92
6, 61268, Control_c, 4, 11, 93
6, 61287, Control_c, 4, 11, 94
6, 61306, Control_c, 4, 11, 95
6, 61312, Note_on_c, 4, 67, 0
6, 61322, Note_on_c, 4, 67, 92
6, 61326, Control_c, 4, 11, 96
6, 61345, Control_c, 4, 11, 97
6, 61364, Control_c, 4, 11, 98
6, 61383, Control_c, 4, 11, 99
6, 61402, Control_c, 4, 11, 100
6, 61421, Control_c, 4, 11, 101
6, 61432, Note_on_c, 4, 67, 0
6, 61441, Control_c, 4, 11, 102
6, 61442, Note_on_c, 4, 67, 102
6, 61502, Note_on_c, 4, 67, 0
6, 61682, Note_on_c, 4, 60, 92
6, 61742, Note_on_c, 4, 60, 0
6, 61922, Note_on_c, 4, 60, 92
6, 61982, Note_on_c, 4, 60, 0
6, 62162, Note_on_c, 4, 62, 92
6, 62222, Note_on_c, 4, 62, 0
6, 62402, Note_on_c, 4, 60, 92
6, 62462, Note_on_c, 4, 60, 0
6, 63002, Note_on_c, 4, 60, 87
6, 63122, Note_on_c, 4, 60, 0
6, 63122, Note_on_c, 4, 60, 87
6, 63242, Note_on_c, 4, 60, 0
6, 63242, Note_on_c, 4, 60, 87
6, 63362, Note_on_c, 4, 60, 0
6, 63362, Note_on_c, 4, 62, 87
6, 63962, Note_on_c, 4, 62, 0
6, 63962, Note_on_c, 4, 62, 87
6, 64082, Note_on_c, 4, 62, 0
6, 64082, Note_on_c, 4, 62, 87
6, 64202, Note_on_c, 4, 62, 0
6, 64202, Note_on_c, 4, 62, 87
6, 64322, Note_on_c, 4, 62, 0
6, 64322, Note_on_c, 4, 60, 87
6, 64442, Note_on_c, 4, 60, 0
6, 64922, Note_on_c, 4, 60, 87
6, 65042, Note_on_c, 4, 60, 0
6, 65042, Note_on_c, 4, 60, 87
6, 65162, Note_on_c, 4, 60, 0
6, 65162, Note_on_c, 4, 60, 87
6, 65282, Note_on_c, 4, 60, 0
6, 65282, Note_on_c, 4, 62, 87
6, 65882, Note_on_c, 4, 62, 0
6, 65882, Note_on_c, 4, 62, 87
6, 66002, Note_on_c, 4, 62, 0
6, 66002, Note_on_c, 4, 62, 87
6, 66122, Note_on_c, 4, 62, 0
6, 66122, Note_on_c, 4, 62, 87
6, 66242, Note_on_c, 4, 62, 0
6, 66242, Note_on_c, 4, 60, 87
6, 66362, Note_on_c, 4, 60, 0
6, 68162, Note_on_c, 4, 67, 102
6, 68282, Note_on_c, 4, 67, 0
6, 68282, Note_on_c, 4, 62, 102
6, 68402, Note_on_c, 4, 62, 0
6, 68402, Note_on_c, 4, 64, 102
6, 68522, Note_on_c, 4, 64, 0
6, 68522, Note_on_c, 4, 64, 102
6, 68642, Note_on_c, 4, 64, 0
6, 68642, Note_on_c, 4, 62, 102
6, 68762, Note_on_c, 4, 62, 0
6, 69242, Note_on_c, 4, 62, 102
6, 69362, Note_on_c, 4, 62, 0
6, 69362, Note_on_c, 4, 64, 102
6, 69482, Note_on_c, 4, 64, 0
6, 69482, Note_on_c, 4, 64, 102
6, 69602, Note_on_c, 4, 64, 0
6, 69602, Note_on_c, 4, 62, 102
6, 69722, Note_on_c, 4, 62, 0
6, 70202, Note_on_c, 4, 62, 102
6, 70322, Note_on_c, 4, 62, 0
6, 70442, Note_on_c, 4, 64, 102
6, 70562, Note_on_c, 4, 64, 0
6, 70682, Note_on_c, 4, 62, 102
6, 70802, Note_on_c, 4, 62, 0
6, 70922, Note_on_c, 4, 64, 102
6, 71042, Note_on_c, 4, 64, 0
6, 71042, Note_on_c, 4, 62, 102
6, 71162, Note_on_c, 4, 62, 0
6, 71282, Note_on_c, 4, 62, 102
6, 71402, Note_on_c, 4, 62, 0
6, 71522, Note_on_c, 4, 55, 102
6, 71642, Note_on_c, 4, 55, 0
6, 79682, Note_on_c, 4, 62, 102
6, 79682, Control_c, 4, 11, 87
6, 79802, Note_on_c, 4, 62, 0
6, 79922, Note_on_c, 4, 62, 102
6, 80042, Note_on_c, 4, 62, 0
6, 80162, Note_on_c, 4, 62, 102
6, 80282, Note_on_c, 4, 62, 0
6, 80642, Control_c, 4, 11, 107
6, 80642, Note_on_c, 4, 62, 102
6, 80659, Control_c, 4, 11, 104
6, 80677, Control_c, 4, 11, 101
6, 80695, Control_c, 4, 11, 98
6, 80713, Control_c, 4, 11, 95
6, 80731, Control_c, 4, 11, 92
6, 80749, Control_c, 4, 11, 89
6, 80882, Note_on_c, 4, 62, 0
6, 80882, Note_on_c, 4, 62, 102
6, 80882, Control_c, 4, 11, 107
6, 80899, Control_c, 4, 11, 104
6, 80917, Control_c, 4, 11, 101
6, 80935, Control_c, 4, 11, 98
6, 80953, Control_c, 4, 11, 95
6, 80971, Control_c, 4, 11, 92
6, 80989, Control_c, 4, 11, 89
6, 81122, Note_on_c, 4, 62, 0
6, 81122, Note_on_c, 4, 62, 102
6, 81122, Control_c, 4, 11, 107
6, 81139, Control_c, 4, 11, 104
6, 81157, Control_c, 4, 11, 101
6, 81175, Control_c, 4, 11, 98
6, 81193, Control_c, 4, 11, 95
6, 81211, Control_c, 4, 11, 92
6, 81229, Control_c, 4, 11, 89
6, 81362, Note_on_c, 4, 62, 0
6, 81602, Note_on_c, 4, 62, 102
6, 81842, Note_on_c, 4, 62, 0
6, 83162, Control_c, 4, 11, 102
6, 83162, Note_on_c, 4, 67, 102
6, 83282, Note_on_c, 4, 67, 0
6, 83282, Note_on_c, 4, 62, 102
6, 83402, Note_on_c, 4, 62, 0
6, 83402, Note_on_c, 4, 62, 102
6, 83522, Note_on_c, 4, 62, 0
6, 83522, Control_c, 4, 11, 86
6, 83522, Note_on_c, 4, 62, 47
6, 83552, Control_c, 4, 11, 87
6, 83564, Control_c, 4, 11, 84
6, 83578, Control_c, 4, 11, 81
6, 83591, Control_c, 4, 11, 78
6, 83605, Control_c, 4, 11, 75
6, 83618, Control_c, 4, 11, 72
6, 83632, Control_c, 4, 11, 69
6, 83642, Note_on_c, 4, 62, 0
6, 89042, Note_on_c, 4, 67, 102
6, 89042, Control_c, 4, 11, 107
6, 89060, Control_c, 4, 11, 104
6, 89078, Control_c, 4, 11, 101
6, 89096, Control_c, 4, 11, 98
6, 89114, Control_c, 4, 11, 95
6, 89132, Control_c, 4, 11, 92
6, 89150, Control_c, 4, 11, 89
6, 89402, Note_on_c, 4, 67, 0
6, 89522, Note_on_c, 4, 67, 102
6, 89522, Control_c, 4, 11, 107
6, 89540, Control_c, 4, 11, 104
6, 89558, Control_c, 4, 11, 101
6, 89576, Control_c, 4, 11, 98
6, 89594, Control_c, 4, 11, 95
6, 89612, Control_c, 4, 11, 92
6, 89630, Control_c, 4, 11, 89
6, 89882, Note_on_c, 4, 67, 0
6, 93842, Control_c, 4, 11, 122
6, 93842, Note_on_c, 4, 64, 102
6, 93860, Control_c, 4, 11, 119
6, 93878, Control_c, 4, 11, 116
6, 93896, Control_c, 4, 11, 113
6, 93914, Control_c, 4, 11, 110
6, 93932, Control_c, 4, 11, 107
6, 93950, Control_c, 4, 11, 104
6, 94082, Note_on_c, 4, 64, 0
6, 94082, Control_c, 4, 11, 122
6, 94082, Note_on_c, 4, 60, 102
6, 94100, Control_c, 4, 11, 119
6, 94118, Control_c, 4, 11, 116
6, 94136, Control_c, 4, 11, 113
6, 94154, Control_c, 4, 11, 110
6, 94172, Control_c, 4, 11, 107
6, 94190, Control_c, 4, 11, 104
6, 94322, Note_on_c, 4, 60, 0
6, 94322, Note_on_c, 4, 62, 102
6, 94322, Control_c, 4, 11, 122
6, 94340, Control_c, 4, 11, 119
6, 94358, Control_c, 4, 11, 116
6, 94376, Control_c, 4, 11, 113
6, 94394, Control_c, 4, 11, 110
6, 94412, Control_c, 4, 11, 107
6, 94430, Control_c, 4, 11, 104
6, 94562, Note_on_c, 4, 62, 0
6, 94562, Note_on_c, 4, 55, 102
6, 94562, Control_c, 4, 11, 87
6, 94580, Control_c, 4, 11, 84
6, 94598, Control_c, 4, 11, 81
6, 94616, Control_c, 4, 11, 78
6, 94634, Control_c, 4, 11, 75
6, 94652, Control_c, 4, 11, 72
6, 94670, Control_c, 4, 11, 69
6, 94694, Control_c, 4, 11, 66
6, 94718, Control_c, 4, 11, 64
6, 94742, Control_c, 4, 11, 62
6, 94766, Control_c, 4, 11, 60
6, 94790, Control_c, 4, 11, 58
6, 94814, Control_c, 4, 11, 56
6, 94838, Control_c, 4, 11, 54
6, 94862, Control_c, 4, 11, 52
6, 94886, Control_c, 4, 11, 50
6, 94910, Control_c, 4, 11, 48
6, 95402, Note_on_c, 4, 55, 0
6, 95402, Note_on_c, 4, 62, 102
6, 95402, Control_c, 4, 11, 87
6, 95522, Note_on_c, 4, 62, 0
6, 95522, Control_c, 4, 11, 47
6, 95522, Note_on_c, 4, 55, 102
6, 96362, Note_on_c, 4, 55, 0
6, 96362, Control_c, 4, 11, 87
6, 96362, Note_on_c, 4, 62, 102
6, 96482, Note_on_c, 4, 62, 0
6, 96482, Control_c, 4, 11, 47
6, 96482, Note_on_c, 4, 55, 102
6, 96842, Note_on_c, 4, 55, 0
6, 96842, Control_c, 4, 11, 87
6, 96842, Note_on_c, 4, 62, 102
6, 96962, Note_on_c, 4, 62, 0
6, 96962, Control_c, 4, 11, 47
6, 96962, Note_on_c, 4, 55, 102
6, 97322, Note_on_c, 4, 55, 0
6, 97322, Note_on_c, 4, 62, 102
6, 97322, Control_c, 4, 11, 102
6, 97442, Note_on_c, 4, 62, 0
6, 97442, Note_on_c, 4, 62, 102
6, 97442, Control_c, 4, 11, 102
6, 97466, Control_c, 4, 11, 100
6, 97490, Control_c, 4, 11, 98
6, 97514, Control_c, 4, 11, 96
6, 97538, Control_c, 4, 11, 94
6, 97562, Control_c, 4, 11, 92
6, 97586, Control_c, 4, 11, 90
6, 97610, Control_c, 4, 11, 88
6, 97634, Control_c, 4, 11, 86
6, 97658, Control_c, 4, 11, 84
6, 97682, Note_on_c, 4, 62, 0
6, 97682, Control_c, 4, 11, 82
6, 97682, Note_on_c, 4, 67, 102
6, 97729, Control_c, 4, 11, 81
6, 97777, Control_c, 4, 11, 80
6, 97825, Control_c, 4, 11, 79
6, 97873, Control_c, 4, 11, 78
6, 97921, Control_c, 4, 11, 77
6, 97922, Note_on_c, 4, 67, 0
6, 97922, Note_on_c, 4, 67, 102
6, 97969, Control_c, 4, 11, 76
6, 98017, Control_c, 4, 11, 75
6, 98065, Control_c, 4, 11, 74
6, 98113, Control_c, 4, 11, 73
6, 98161, Control_c, 4, 11, 72
6, 98162, Note_on_c, 4, 67, 0
6, 98162, Note_on_c, 4, 67, 102
6, 98209, Control_c, 4, 11, 71
6, 98257, Control_c, 4, 11, 70
6, 98305, Control_c, 4, 11, 69
6, 98353, Control_c, 4, 11, 68
6, 98401, Control_c, 4, 11, 67
6, 98402, Note_on_c, 4, 67, 0
6, 98402, Note_on_c, 4, 67, 102
6, 98449, Control_c, 4, 11, 66
6, 98497, Control_c, 4, 11, 65
6, 98545, Control_c, 4, 11, 64
6, 98593, Control_c, 4, 11, 63
6, 98641, Control_c, 4, 11, 62
6, 98689, Control_c, 4, 11, 61
6, 98737, Control_c, 4, 11, 60
6, 98785, Control_c, 4, 11, 59
6, 98833, Control_c, 4, 11, 58
6, 98881, Control_c, 4, 11, 57
6, 98929, Control_c, 4, 11, 56
6, 98977, Control_c, 4, 11, 55
6, 99025, Control_c, 4, 11, 54
6, 99073, Control_c, 4, 11, 53
6, 99121, Control_c, 4, 11, 52
6, 99169, Control_c, 4, 11, 51
6, 99217, Control_c, 4, 11, 50
6, 99265, Control_c, 4, 11, 49
6, 99313, Control_c, 4, 11, 48
6, 99361, Control_c, 4, 11, 47
6, 99362, Note_on_c, 4, 67, 0
6, 99362, Control_c, 4, 11, 87
6, 99362, Note_on_c, 4, 64, 102
6, 99722, Note_on_c, 4, 64, 0
6, 101282, Note_on_c, 4, 62, 102
6, 101642, Note_on_c, 4, 62, 0
6, 103202, Note_on_c, 4, 62, 102
6, 103562, Note_on_c, 4, 62, 0
6, 104642, Control_c, 4, 11, 42
6, 104642, Note_on_c, 4, 62, 102
6, 104678, Control_c, 4, 11, 43
6, 104714, Control_c, 4, 11, 44
6, 104750, Control_c, 4, 11, 45
6, 104786, Control_c, 4, 11, 46
6, 104822, Control_c, 4, 11, 47
6, 104858, Control_c, 4, 11, 48
6, 104894, Control_c, 4, 11, 49
6, 104930, Control_c, 4, 11, 50
6, 104966, Control_c, 4, 11, 51
6, 105002, Control_c, 4, 11, 52
6, 105122, Note_on_c, 4, 62, 0
6, 105122, Note_on_c, 4, 60, 102
6, 105122, Control_c, 4, 11, 87
6, 105242, Note_on_c, 4, 60, 0
6, 106082, Control_c, 4, 11, 47
6, 106082, Note_on_c, 4, 60, 102
6, 106682, Note_on_c, 4, 60, 0
6, 106682, Note_on_c, 4, 60, 102
6, 106802, Note_on_c, 4, 60, 0
6, 106802, Note_on_c, 4, 60, 102
6, 106922, Note_on_c, 4, 60, 0
6, 106922, Note_on_c, 4, 60, 102
6, 107042, Note_on_c, 4, 60, 0
6, 107042, Control_c, 4, 11, 87
6, 107042, Note_on_c, 4, 60, 82
6, 107162, Note_on_c, 4, 60, 0
6, 108002, Note_on_c, 4, 65, 102
6, 108002, Control_c, 4, 11, 47
6, 108602, Note_on_c, 4, 65, 0
6, 108602, Note_on_c, 4, 65, 102
6, 108722, Note_on_c, 4, 65, 0
6, 108722, Note_on_c, 4, 65, 102
6, 108842, Note_on_c, 4, 65, 0
6, 108842, Note_on_c, 4, 65, 102
6, 108962, Note_on_c, 4, 65, 0
6, 108962, Note_on_c, 4, 65, 102
6, 109082, Note_on_c, 4, 65, 0
6, 123362, Note_on_c, 4, 64, 102
6, 123362, Control_c, 4, 11, 102
6, 124307, Note_on_c, 4, 64, 0
6, 124322, Control_c, 4, 11, 122
6, 124322, Note_on_c, 4, 64, 102
6, 124340, Control_c, 4, 11, 119
6, 124358, Control_c, 4, 11, 116
6, 124376, Control_c, 4, 11, 113
6, 124394, Control_c, 4, 11, 110
6, 124412, Control_c, 4, 11, 107
6, 124430, Control_c, 4, 11, 104
6, 125267, Note_on_c, 4, 64, 0
6, 125282, Control_c, 4, 11, 122
6, 125282, Note_on_c, 4, 64, 102
6, 125300, Control_c, 4, 11, 119
6, 125318, Control_c, 4, 11, 116
6, 125336, Control_c, 4, 11, 113
6, 125354, Control_c, 4, 11, 110
6, 125372, Control_c, 4, 11, 107
6, 125390, Control_c, 4, 11, 104
6, 126227, Note_on_c, 4, 64, 0
6, 126242, Note_on_c, 4, 64, 102
6, 126242, Control_c, 4, 11, 122
6, 126260, Control_c, 4, 11, 119
6, 126278, Control_c, 4, 11, 116
6, 126296, Control_c, 4, 11, 113
6, 126314, Control_c, 4, 11, 110
6, 126332, Control_c, 4, 11, 107
6, 126350, Control_c, 4, 11, 104
6, 127187, Note_on_c, 4, 64, 0
6, 127202, Note_on_c, 4, 64, 102
6, 127547, Note_on_c, 4, 64, 0
6, 127562, Note_on_c, 4, 64, 102
6, 127562, Control_c, 4, 11, 122
6, 127580, Control_c, 4, 11, 119
6, 127598, Control_c, 4, 11, 116
6, 127616, Control_c, 4, 11, 113
6, 127634, Control_c, 4, 11, 110
6, 127652, Control_c, 4, 11, 107
6, 127667, Note_on_c, 4, 64, 0
6, 127670, Control_c, 4, 11, 104
6, 127682, Note_on_c, 4, 64, 102
6, 128027, Note_on_c, 4, 64, 0
6, 128042, Note_on_c, 4, 64, 102
6, 128042, Control_c, 4, 11, 122
6, 128060, Control_c, 4, 11, 119
6, 128078, Control_c, 4, 11, 116
6, 128096, Control_c, 4, 11, 113
6, 128114, Control_c, 4, 11, 110
6, 128132, Control_c, 4, 11, 107
6, 128147, Note_on_c, 4, 64, 0
6, 128150, Control_c, 4, 11, 104
6, 128162, Note_on_c, 4, 64, 102
6, 128282, Note_on_c, 4, 64, 0
6, 128642, Note_on_c, 4, 64, 92
6, 128714, Note_on_c, 4, 64, 0
6, 128882, Note_on_c, 4, 64, 92
6, 128954, Note_on_c, 4, 64, 0
6, 129122, Note_on_c, 4, 64, 92
6, 129194, Note_on_c, 4, 64, 0
6, 132002, Control_c, 4, 11, 102
6, 132002, Note_on_c, 4, 60, 94
6, 132362, Note_on_c, 4, 60, 0
6, 132482, Note_on_c, 4, 60, 94
6, 132482, Control_c, 4, 11, 122
6, 132500, Control_c, 4, 11, 119
6, 132518, Control_c, 4, 11, 116
6, 132536, Control_c, 4, 11, 113
6, 132554, Control_c, 4, 11, 110
6, 132572, Control_c, 4, 11, 107
6, 132590, Control_c, 4, 11, 104
6, 132842, Note_on_c, 4, 60, 0
6, 132962, Note_on_c, 4, 60, 94
6, 133082, Note_on_c, 4, 60, 0
6, 133202, Note_on_c, 4, 60, 94
6, 133322, Note_on_c, 4, 60, 0
6, 133442, Note_on_c, 4, 60, 94
6, 133562, Note_on_c, 4, 60, 0
6, 134882, Note_on_c, 4, 62, 94
6, 135242, Note_on_c, 4, 62, 0
6, 135362, Control_c, 4, 11, 122
6, 135362, Note_on_c, 4, 62, 94
6, 135380, Control_c, 4, 11, 119
6, 135398, Control_c, 4, 11, 116
6, 135416, Control_c, 4, 11, 113
6, 135434, Control_c, 4, 11, 110
6, 135452, Control_c, 4, 11, 107
6, 135470, Control_c, 4, 11, 104
6, 135722, Note_on_c, 4, 62, 0
6, 135842, Note_on_c, 4, 62, 94
6, 135962, Note_on_c, 4, 62, 0
6, 136082, Note_on_c, 4, 62, 94
6, 136202, Note_on_c, 4, 62, 0
6, 136322, Note_on_c, 4, 62, 94
6, 136442, Note_on_c, 4, 62, 0
6, 137282, Note_on_c, 4, 60, 84
6, 137282, Control_c, 4, 11, 47
6, 137882, Note_on_c, 4, 60, 0
6, 138242, Control_c, 4, 11, 47
6, 138242, Note_on_c, 4, 62, 94
6, 138298, Control_c, 4, 11, 48
6, 138355, Control_c, 4, 11, 49
6, 138412, Control_c, 4, 11, 50
6, 138468, Control_c, 4, 11, 51
6, 138525, Control_c, 4, 11, 52
6, 138582, Control_c, 4, 11, 53
6, 138639, Control_c, 4, 11, 54
6, 138695, Control_c, 4, 11, 55
6, 138752, Control_c, 4, 11, 56
6, 138809, Control_c, 4, 11, 57
6, 138866, Control_c, 4, 11, 58
6, 138922, Control_c, 4, 11, 59
6, 138962, Note_on_c, 4, 62, 0
6, 138962, Note_on_c, 4, 64, 94
6, 138979, Control_c, 4, 11, 60
6, 139036, Control_c, 4, 11, 61
6, 139092, Control_c, 4, 11, 62
6, 139149, Control_c, 4, 11, 63
6, 139206, Control_c, 4, 11, 64
6, 139263, Control_c, 4, 11, 65
6, 139319, Control_c, 4, 11, 66
6, 139376, Control_c, 4, 11, 67
6, 139433, Control_c, 4, 11, 68
6, 139442, Note_on_c, 4, 64, 0
6, 139490, Control_c, 4, 11, 69
6, 139546, Control_c, 4, 11, 70
6, 139603, Control_c, 4, 11, 71
6, 139660, Control_c, 4, 11, 72
6, 139716, Control_c, 4, 11, 73
6, 139773, Control_c, 4, 11, 74
6, 139830, Control_c, 4, 11, 75
6, 139887, Control_c, 4, 11, 76
6, 139922, Note_on_c, 4, 67, 94
6, 139943, Control_c, 4, 11, 77
6, 140000, Control_c, 4, 11, 78
6, 140057, Control_c, 4, 11, 79
6, 140114, Control_c, 4, 11, 80
6, 140162, Note_on_c, 4, 67, 0
6, 140162, Note_on_c, 4, 60, 94
6, 140170, Control_c, 4, 11, 81
6, 140227, Control_c, 4, 11, 82
6, 140284, Control_c, 4, 11, 83
6, 140340, Control_c, 4, 11, 84
6, 140397, Control_c, 4, 11, 85
6, 140402, Note_on_c, 4, 60, 0
6, 140454, Control_c, 4, 11, 86
6, 140511, Control_c, 4, 11, 87
6, 140567, Control_c, 4, 11, 88
6, 140624, Control_c, 4, 11, 89
6, 140681, Control_c, 4, 11, 90
6, 140738, Control_c, 4, 11, 91
6, 140794, Control_c, 4, 11, 92
6, 140851, Control_c, 4, 11, 93
6, 140908, Control_c, 4, 11, 94
6, 140964, Control_c, 4, 11, 95
6, 141021, Control_c, 4, 11, 96
6, 141078, Control_c, 4, 11, 97
6, 141135, Control_c, 4, 11, 98
6, 141191, Control_c, 4, 11, 99
6, 141248, Control_c, 4, 11, 100
6, 141305, Control_c, 4, 11, 101
6, 141362, Control_c, 4, 11, 102
6, 141362, Note_on_c, 4, 62, 94
6, 141602, Note_on_c, 4, 62, 0
6, 141602, Note_on_c, 4, 62, 94
6, 142082, Note_on_c, 4, 62, 0
6, 142082, Note_on_c, 4, 64, 94
6, 142202, Note_on_c, 4, 64, 0
6, 142202, Note_on_c, 4, 67, 94
6, 142322, Note_on_c, 4, 67, 0
6, 142322, Note_on_c, 4, 67, 94
6, 142442, Note_on_c, 4, 67, 0
6, 142442, Note_on_c, 4, 67, 94
6, 142562, Note_on_c, 4, 67, 0
6, 142562, Note_on_c, 4, 67, 94
6, 142922, Note_on_c, 4, 67, 0
6, 142922, Note_on_c, 4, 62, 94
6, 143042, Note_on_c, 4, 62, 0
6, 143042, Note_on_c, 4, 64, 94
6, 143162, Note_on_c, 4, 64, 0
6, 143162, Note_on_c, 4, 67, 94
6, 143282, Note_on_c, 4, 67, 0
6, 143282, Note_on_c, 4, 67, 94
6, 143402, Note_on_c, 4, 67, 0
6, 143402, Note_on_c, 4, 67, 94
6, 143522, Note_on_c, 4, 67, 0
6, 143522, Note_on_c, 4, 67, 94
6, 143642, Note_on_c, 4, 67, 0
6, 144002, Note_on_c, 4, 67, 94
6, 144122, Note_on_c, 4, 67, 0
6, 144482, Note_on_c, 4, 67, 94
6, 144602, Note_on_c, 4, 67, 0
6, 147602, Note_on_c, 4, 62, 94
6, 147602, Control_c, 4, 11, 77
6, 147614, Control_c, 4, 11, 74
6, 147626, Control_c, 4, 11, 71
6, 147638, Control_c, 4, 11, 68
6, 147650, Control_c, 4, 11, 65
6, 147662, Control_c, 4, 11, 62
6, 147674, Control_c, 4, 11, 59
6, 147686, Control_c, 4, 11, 56
6, 147698, Control_c, 4, 11, 53
6, 147710, Control_c, 4, 11, 50
6, 147722, Note_on_c, 4, 62, 0
6, 147722, Note_on_c, 4, 64, 94
6, 147722, Control_c, 4, 11, 47
6, 147842, Note_on_c, 4, 64, 0
6, 148082, Control_c, 4, 11, 77
6, 148082, Note_on_c, 4, 62, 94
6, 148094, Control_c, 4, 11, 74
6, 148106, Control_c, 4, 11, 71
6, 148118, Control_c, 4, 11, 68
6, 148130, Control_c, 4, 11, 65
6, 148142, Control_c, 4, 11, 62
6, 148154, Control_c, 4, 11, 59
6, 148166, Control_c, 4, 11, 56
6, 148178, Control_c, 4, 11, 53
6, 148190, Control_c, 4, 11, 50
6, 148202, Note_on_c, 4, 62, 0
6, 148202, Note_on_c, 4, 64, 94
6, 148202, Control_c, 4, 11, 47
6, 148322, Note_on_c, 4, 64, 0
6, 148322, Note_on_c, 4, 62, 94
6, 148442, Note_on_c, 4, 62, 0
6, 148562, Note_on_c, 4, 62, 94
6, 148682, Note_on_c, 4, 62, 0
6, 148802, Note_on_c, 4, 62, 94
6, 148922, Note_on_c, 4, 62, 0
6, 150722, Note_on_c, 4, 60, 94
6, 150722, Control_c, 4, 11, 47
6, 151322, Note_on_c, 4, 60, 0
6, 152642, Note_on_c, 4, 64, 94
6, 152882, Note_on_c, 4, 64, 0
6, 152882, Note_on_c, 4, 62, 94
6, 153102, Note_on_c, 4, 62, 0
6, 153122, Note_on_c, 4, 67, 94
6, 153122, Control_c, 4, 11, 87
6, 153242, Note_on_c, 4, 67, 0
6, 153362, Note_on_c, 4, 67, 94
6, 153482, Note_on_c, 4, 67, 0
6, 153602, Note_on_c, 4, 67, 94
6, 153722, Note_on_c, 4, 67, 0
6, 154082, Note_on_c, 4, 67, 94
6, 154082, Control_c, 4, 11, 107
6, 154100, Control_c, 4, 11, 105
6, 154118, Control_c, 4, 11, 103
6, 154136, Control_c, 4, 11, 101
6, 154154, Control_c, 4, 11, 99
6, 154172, Control_c, 4, 11, 97
6, 154190, Control_c, 4, 11, 95
6, 154208, Control_c, 4, 11, 93
6, 154226, Control_c, 4, 11, 91
6, 154244, Control_c, 4, 11, 89
6, 154262, Control_c, 4, 11, 87
6, 154322, Note_on_c, 4, 67, 0
6, 154322, Note_on_c, 4, 67, 94
6, 154322, Control_c, 4, 11, 107
6, 154340, Control_c, 4, 11, 105
6, 154358, Control_c, 4, 11, 103
6, 154376, Control_c, 4, 11, 101
6, 154394, Control_c, 4, 11, 99
6, 154412, Control_c, 4, 11, 97
6, 154430, Control_c, 4, 11, 95
6, 154448, Control_c, 4, 11, 93
6, 154466, Control_c, 4, 11, 91
6, 154484, Control_c, 4, 11, 89
6, 154502, Control_c, 4, 11, 87
6, 154562, Note_on_c, 4, 67, 0
6, 154562, Control_c, 4, 11, 107
6, 154562, Note_on_c, 4, 67, 94
6, 154580, Control_c, 4, 11, 104
6, 154598, Control_c, 4, 11, 101
6, 154616, Control_c, 4, 11, 98
6, 154634, Control_c, 4, 11, 95
6, 154652, Control_c, 4, 11, 92
6, 154670, Control_c, 4, 11, 89
6, 154682, Note_on_c, 4, 67, 0
6, 156122, Note_on_c, 4, 67, 94
6, 156122, Control_c, 4, 11, 82
6, 156140, Control_c, 4, 11, 83
6, 156158, Control_c, 4, 11, 84
6, 156176, Control_c, 4, 11, 85
6, 156194, Control_c, 4, 11, 86
6, 156212, Control_c, 4, 11, 87
6, 156230, Control_c, 4, 11, 88
6, 156242, Note_on_c, 4, 67, 0
6, 156242, Note_on_c, 4, 67, 94
6, 156248, Control_c, 4, 11, 89
6, 156266, Control_c, 4, 11, 90
6, 156284, Control_c, 4, 11, 91
6, 156302, Control_c, 4, 11, 92
6, 156320, Control_c, 4, 11, 93
6, 156338, Control_c, 4, 11, 94
6, 156356, Control_c, 4, 11, 95
6, 156362, Note_on_c, 4, 67, 0
6, 156362, Note_on_c, 4, 67, 94
6, 156374, Control_c, 4, 11, 96
6, 156392, Control_c, 4, 11, 97
6, 156410, Control_c, 4, 11, 98
6, 156428, Control_c, 4, 11, 99
6, 156446, Control_c, 4, 11, 100
6, 156464, Control_c, 4, 11, 101
6, 156482, Note_on_c, 4, 67, 0
6, 156482, Control_c, 4, 11, 102
6, 156482, Note_on_c, 4, 67, 94
6, 156602, Note_on_c, 4, 67, 0
6, 156602, Note_on_c, 4, 60, 94
6, 156722, Note_on_c, 4, 60, 0
6, 156722, Note_on_c, 4, 60, 94
6, 156842, Note_on_c, 4, 60, 0
6, 156842, Note_on_c, 4, 62, 94
6, 156962, Note_on_c, 4, 62, 0
6, 156962, Note_on_c, 4, 60, 60
6, 156992, Control_c, 4, 11, 87
6, 156999, Control_c, 4, 11, 84
6, 157007, Control_c, 4, 11, 81
6, 157015, Control_c, 4, 11, 78
6, 157022, Control_c, 4, 11, 75
6, 157030, Control_c, 4, 11, 72
6, 157038, Control_c, 4, 11, 69
6, 157046, Control_c, 4, 11, 66
6, 157053, Control_c, 4, 11, 63
6, 157061, Control_c, 4, 11, 60
6, 157069, Control_c, 4, 11, 57
6, 157076, Control_c, 4, 11, 54
6, 157082, Note_on_c, 4, 60, 0
6, 161282, Control_c, 4, 11, 47
6, 161282, Note_on_c, 4, 64, 94
6, 161306, Control_c, 4, 11, 48
6, 161330, Control_c, 4, 11, 49
6, 161354, Control_c, 4, 11, 50
6, 161378, Control_c, 4, 11, 51
6, 161402, Control_c, 4, 11, 52
6, 161426, Control_c, 4, 11, 53
6, 161450, Control_c, 4, 11, 54
6, 161474, Control_c, 4, 11, 55
6, 161498, Control_c, 4, 11, 56
6, 161522, Control_c, 4, 11, 57
6, 161546, Control_c, 4, 11, 58
6, 161570, Control_c, 4, 11, 59
6, 161594, Control_c, 4, 11, 60
6, 161618, Control_c, 4, 11, 61
6, 161642, Control_c, 4, 11, 62
6, 161666, Control_c, 4, 11, 63
6, 161690, Control_c, 4, 11, 64
6, 161714, Control_c, 4, 11, 65
6, 161738, Control_c, 4, 11, 66
6, 161762, Note_on_c, 4, 64, 0
6, 161762, Control_c, 4, 11, 67
6, 161762, Note_on_c, 4, 62, 94
6, 161786, Control_c, 4, 11, 68
6, 161810, Control_c, 4, 11, 69
6, 161834, Control_c, 4, 11, 70
6, 161858, Control_c, 4, 11, 71
6, 161882, Control_c, 4, 11, 72
6, 161906, Control_c, 4, 11, 73
6, 161930, Control_c, 4, 11, 74
6, 161954, Control_c, 4, 11, 75
6, 161978, Control_c, 4, 11, 76
6, 162002, Control_c, 4, 11, 77
6, 162026, Control_c, 4, 11, 78
6, 162050, Control_c, 4, 11, 79
6, 162074, Control_c, 4, 11, 80
6, 162098, Control_c, 4, 11, 81
6, 162122, Control_c, 4, 11, 82
6, 162146, Control_c, 4, 11, 83
6, 162170, Control_c, 4, 11, 84
6, 162194, Control_c, 4, 11, 85
6, 162218, Control_c, 4, 11, 86
6, 162242, Note_on_c, 4, 62, 0
6, 162242, Note_on_c, 4, 60, 94
6, 162242, Control_c, 4, 11, 87
6, 162482, Note_on_c, 4, 60, 0
6, 162482, Note_on_c, 4, 60, 94
6, 162482, Control_c, 4, 11, 107
6, 162500, Control_c, 4, 11, 104
6, 162518, Control_c, 4, 11, 101
6, 162536, Control_c, 4, 11, 98
6, 162554, Control_c, 4, 11, 95
6, 162572, Control_c, 4, 11, 92
6, 162590, Control_c, 4, 11, 89
6, 162842, Note_on_c, 4, 60, 0
6, 162962, Note_on_c, 4, 60, 94
6, 162962, Control_c, 4, 11, 107
6, 162980, Control_c, 4, 11, 104
6, 162998, Control_c, 4, 11, 101
6, 163016, Control_c, 4, 11, 98
6, 163034, Control_c, 4, 11, 95
6, 163052, Control_c, 4, 11, 92
6, 163070, Control_c, 4, 11, 89
6, 163322, Note_on_c, 4, 60, 0
6, 163442, Control_c, 4, 11, 107
6, 163442, Note_on_c, 4, 62, 94
6, 163460, Control_c, 4, 11, 104
6, 163478, Control_c, 4, 11, 101
6, 163496, Control_c, 4, 11, 98
6, 163514, Control_c, 4, 11, 95
6, 163532, Control_c, 4, 11, 92
6, 163550, Control_c, 4, 11, 89
6, 163562, Note_on_c, 4, 62, 0
6, 163682, Control_c, 4, 11, 107
6, 163682, Note_on_c, 4, 67, 94
6, 163700, Control_c, 4, 11, 104
6, 163718, Control_c, 4, 11, 101
6, 163736, Control_c, 4, 11, 98
6, 163754, Control_c, 4, 11, 95
6, 163772, Control_c, 4, 11, 92
6, 163790, Control_c, 4, 11, 89
6, 163802, Note_on_c, 4, 67, 0
6, 163922, Control_c, 4, 11, 107
6, 163922, Note_on_c, 4, 60, 94
6, 163940, Control_c, 4, 11, 104
6, 163958, Control_c, 4, 11, 101
6, 163976, Control_c, 4, 11, 98
6, 163994, Control_c, 4, 11, 95
6, 164012, Control_c, 4, 11, 92
6, 164030, Control_c, 4, 11, 89
6, 164042, Note_on_c, 4, 60, 0
6, 164162, Note_on_c, 4, 60, 94
6, 164282, Note_on_c, 4, 60, 0
6, 166682, Control_c, 4, 11, 102
6, 166682, Note_on_c, 4, 60, 94
6, 166802, Note_on_c, 4, 60, 0
6, 166802, Note_on_c, 4, 60, 94
6, 166922, Note_on_c, 4, 60, 0
6, 166922, Note_on_c, 4, 60, 94
6, 167042, Note_on_c, 4, 60, 0
6, 167042, Note_on_c, 4, 60, 94
6, 167282, Note_on_c, 4, 60, 0
6, 167762, Note_on_c, 4, 67, 94
6, 167762, Control_c, 4, 11, 122
6, 167780, Control_c, 4, 11, 119
6, 167798, Control_c, 4, 11, 116
6, 167816, Control_c, 4, 11, 113
6, 167834, Control_c, 4, 11, 110
6, 167852, Control_c, 4, 11, 107
6, 167870, Control_c, 4, 11, 104
6, 168002, Note_on_c, 4, 67, 0
6, 168002, Note_on_c, 4, 60, 94
6, 168002, Control_c, 4, 11, 87
6, 168020, Control_c, 4, 11, 84
6, 168038, Control_c, 4, 11, 81
6, 168056, Control_c, 4, 11, 78
6, 168074, Control_c, 4, 11, 75
6, 168092, Control_c, 4, 11, 72
6, 168110, Control_c, 4, 11, 69
6, 168128, Control_c, 4, 11, 66
6, 168146, Control_c, 4, 11, 63
6, 168164, Control_c, 4, 11, 60
6, 168182, Control_c, 4, 11, 57
6, 168200, Control_c, 4, 11, 54
6, 168218, Control_c, 4, 11, 51
6, 168236, Control_c, 4, 11, 48
6, 168842, Note_on_c, 4, 60, 0
6, 168842, Control_c, 4, 11, 87
6, 168842, Note_on_c, 4, 62, 94
6, 168851, Control_c, 4, 11, 84
6, 168860, Control_c, 4, 11, 81
6, 168869, Control_c, 4, 11, 78
6, 168878, Control_c, 4, 11, 75
6, 168887, Control_c, 4, 11, 72
6, 168896, Control_c, 4, 11, 69
6, 168905, Control_c, 4, 11, 66
6, 168914, Control_c, 4, 11, 63
6, 168923, Control_c, 4, 11, 60
6, 168932, Control_c, 4, 11, 57
6, 168941, Control_c, 4, 11, 54
6, 168950, Control_c, 4, 11, 51
6, 168959, Control_c, 4, 11, 48
6, 168962, Note_on_c, 4, 62, 0
6, 168962, Note_on_c, 4, 60, 94
6, 169802, Note_on_c, 4, 60, 0
6, 169802, Note_on_c, 4, 62, 94
6, 169802, Control_c, 4, 11, 87
6, 169811, Control_c, 4, 11, 84
6, 169820, Control_c, 4, 11, 81
6, 169829, Control_c, 4, 11, 78
6, 169838, Control_c, 4, 11, 75
6, 169847, Control_c, 4, 11, 72
6, 169856, Control_c, 4, 11, 69
6, 169865, Control_c, 4, 11, 66
6, 169874, Control_c, 4, 11, 63
6, 169883, Control_c, 4, 11, 60
6, 169892, Control_c, 4, 11, 57
6, 169901, Control_c, 4, 11, 54
6, 169910, Control_c, 4, 11, 51
6, 169919, Control_c, 4, 11, 48
6, 169922, Note_on_c, 4, 62, 0
6, 169922, Note_on_c, 4, 60, 94
6, 170282, Note_on_c, 4, 60, 0
6, 170282, Control_c, 4, 11, 87
6, 170282, Note_on_c, 4, 62, 94
6, 170291, Control_c, 4, 11, 84
6, 170300, Control_c, 4, 11, 81
6, 170309, Control_c, 4, 11, 78
6, 170318, Control_c, 4, 11, 75
6, 170327, Control_c, 4, 11, 72
6, 170336, Control_c, 4, 11, 69
6, 170345, Control_c, 4, 11, 66
6, 170354, Control_c, 4, 11, 63
6, 170363, Control_c, 4, 11, 60
6, 170372, Control_c, 4, 11, 57
6, 170381, Control_c, 4, 11, 54
6, 170390, Control_c, 4, 11, 51
6, 170399, Control_c, 4, 11, 48
6, 170402, Note_on_c, 4, 62, 0
6, 170402, Note_on_c, 4, 60, 94
6, 170762, Note_on_c, 4, 60, 0
6, 170762, Note_on_c, 4, 62, 94
6, 170762, Control_c, 4, 11, 102
6, 170882, Note_on_c, 4, 62, 0
6, 170882, Note_on_c, 4, 60, 94
6, 171002, Note_on_c, 4, 60, 0
6, 171842, Control_c, 4, 11, 47
6, 171842, Note_on_c, 4, 60, 94
6, 172562, Note_on_c, 4, 60, 0
6, 172562, Note_on_c, 4, 60, 94
6, 172802, Note_on_c, 4, 60, 0
6, 172802, Note_on_c, 4, 60, 94
6, 172922, Note_on_c, 4, 60, 0
6, 176162, Control_c, 4, 11, 47
6, 176162, Note_on_c, 4, 67, 94
6, 176179, Control_c, 4, 11, 49
6, 176196, Control_c, 4, 11, 51
6, 176214, Control_c, 4, 11, 53
6, 176231, Control_c, 4, 11, 55
6, 176249, Control_c, 4, 11, 57
6, 176266, Control_c, 4, 11, 59
6, 176284, Control_c, 4, 11, 61
6, 176301, Control_c, 4, 11, 63
6, 176319, Control_c, 4, 11, 65
6, 176336, Control_c, 4, 11, 67
6, 176354, Control_c, 4, 11, 69
6, 176371, Control_c, 4, 11, 71
6, 176388, Control_c, 4, 11, 73
6, 176406, Control_c, 4, 11, 75
6, 176423, Control_c, 4, 11, 77
6, 176441, Control_c, 4, 11, 79
6, 176458, Control_c, 4, 11, 81
6, 176476, Control_c, 4, 11, 83
6, 176493, Control_c, 4, 11, 85
6, 176511, Control_c, 4, 11, 87
6, 176528, Control_c, 4, 11, 89
6, 176546, Control_c, 4, 11, 91
6, 176563, Control_c, 4, 11, 93
6, 176580, Control_c, 4, 11, 95
6, 176598, Control_c, 4, 11, 97
6, 176615, Control_c, 4, 11, 99
6, 176633, Control_c, 4, 11, 101
6, 176762, Note_on_c, 4, 67, 0
6, 176882, Note_on_c, 4, 60, 94
6, 176942, Note_on_c, 4, 60, 0
6, 177122, Note_on_c, 4, 60, 94
6, 177182, Note_on_c, 4, 60, 0
6, 177362, Note_on_c, 4, 65, 94
6, 177422, Note_on_c, 4, 65, 0
6, 177602, Note_on_c, 4, 64, 94
6, 177662, Note_on_c, 4, 64, 0
6, 177842, Note_on_c, 4, 60, 94
6, 177902, Note_on_c, 4, 60, 0
6, 178082, Note_on_c, 4, 60, 94
6, 178142, Note_on_c, 4, 60, 0
6, 178322, Note_on_c, 4, 65, 94
6, 178382, Note_on_c, 4, 65, 0
6, 178562, Note_on_c, 4, 64, 94
6, 178622, Note_on_c, 4, 64, 0
6, 178802, Note_on_c, 4, 60, 94
6, 178862, Note_on_c, 4, 60, 0
6, 179042, Note_on_c, 4, 60, 94
6, 179102, Note_on_c, 4, 60, 0
6, 179282, Note_on_c, 4, 62, 94
6, 179342, Note_on_c, 4, 62, 0
6, 179522, Note_on_c, 4, 60, 84
6, 180602, Note_on_c, 4, 60, 0
6, 180602, Control_c, 4, 91, 115
6, 180602, Note_on_c, 4, 60, 121
6, 180662, Note_on_c, 4, 60, 0
6, 180722, Note_on_c, 4, 64, 121
6, 180782, Note_on_c, 4, 64, 0
6, 180842, Note_on_c, 4, 67, 121
6, 180902, Note_on_c, 4, 67, 0
6, 180962, Note_on_c, 4, 72, 121
6, 181082, Note_on_c, 4, 72, 0
6, 181442, Note_on_c, 4, 60, 84
6, 181442, Control_c, 4, 11, 122
6, 181460, Control_c, 4, 11, 119
6, 181478, Control_c, 4, 11, 116
6, 181496, Control_c, 4, 11, 113
6, 181514, Control_c, 4, 11, 110
6, 181532, Control_c, 4, 11, 107
6, 181550, Control_c, 4, 11, 104
6, 182522, Note_on_c, 4, 60, 0
6, 182522, Control_c, 4, 11, 87
6, 182522, Note_on_c, 4, 52, 121
6, 182540, Control_c, 4, 11, 88
6, 182558, Control_c, 4, 11, 89
6, 182576, Control_c, 4, 11, 90
6, 182582, Note_on_c, 4, 52, 0
6, 182594, Control_c, 4, 11, 91
6, 182612, Control_c, 4, 11, 92
6, 182630, Control_c, 4, 11, 93
6, 182642, Note_on_c, 4, 55, 121
6, 182648, Control_c, 4, 11, 94
6, 182666, Control_c, 4, 11, 95
6, 182684, Control_c, 4, 11, 96
6, 182702, Note_on_c, 4, 55, 0
6, 182702, Control_c, 4, 11, 97
6, 182720, Control_c, 4, 11, 98
6, 182738, Control_c, 4, 11, 99
6, 182756, Control_c, 4, 11, 100
6, 182762, Note_on_c, 4, 60, 121
6, 182774, Control_c, 4, 11, 101
6, 182792, Control_c, 4, 11, 102
6, 182810, Control_c, 4, 11, 103
6, 182822, Note_on_c, 4, 60, 0
6, 182828, Control_c, 4, 11, 104
6, 182846, Control_c, 4, 11, 105
6, 182864, Control_c, 4, 11, 106
6, 182882, Control_c, 4, 11, 107
6, 182882, Note_on_c, 4, 64, 121
6, 183002, Note_on_c, 4, 64, 0
6, 183362, Note_on_c, 4, 60, 84
6, 183362, Control_c, 4, 11, 122
6, 183380, Control_c, 4, 11, 119
6, 183398, Control_c, 4, 11, 116
6, 183416, Control_c, 4, 11, 113
6, 183434, Control_c, 4, 11, 110
6, 183452, Control_c, 4, 11, 107
6, 183470, Control_c, 4, 11, 104
6, 184922, Note_on_c, 4, 60, 0
6, 184922, Control_c, 4, 11, 87
6, 184922, Note_on_c, 4, 55, 107
6, 184940, Control_c, 4, 11, 88
6, 184958, Control_c, 4, 11, 89
6, 184976, Control_c, 4, 11, 90
6, 184982, Note_on_c, 4, 55, 0
6, 184994, Control_c, 4, 11, 91
6, 185012, Control_c, 4, 11, 92
6, 185030, Control_c, 4, 11, 93
6, 185042, Note_on_c, 4, 60, 107
6, 185048, Control_c, 4, 11, 94
6, 185066, Control_c, 4, 11, 95
6, 185084, Control_c, 4, 11, 96
6, 185102, Note_on_c, 4, 60, 0
6, 185102, Control_c, 4, 11, 97
6, 185120, Control_c, 4, 11, 98
6, 185138, Control_c, 4, 11, 99
6, 185156, Control_c, 4, 11, 100
6, 185162, Note_on_c, 4, 64, 107
6, 185174, Control_c, 4, 11, 101
6, 185192, Control_c, 4, 11, 102
6, 185210, Control_c, 4, 11, 103
6, 185222, Note_on_c, 4, 64, 0
6, 185228, Control_c, 4, 11, 104
6, 185246, Control_c, 4, 11, 105
6, 185264, Control_c, 4, 11, 106
6, 185282, Control_c, 4, 11, 107
6, 185282, Note_on_c, 4, 67, 107
6, 185762, Note_on_c, 4, 67, 0
6, 185762, Note_on_c, 4, 64, 94
6, 186242, Note_on_c, 4, 64, 0
6, 186242, Note_on_c, 4, 60, 94
6, 186602, Note_on_c, 4, 60, 0
6, 186602, Note_on_c, 4, 72, 112
6, 186602, Control_c, 4, 91, 80
6, 186662, Note_on_c, 4, 72, 0
6, 186722, Note_on_c, 4, 67, 112
6, 186782, Note_on_c, 4, 67, 0
6, 186842, Note_on_c, 4, 72, 112
6, 186902, Note_on_c, 4, 72, 0
6, 186962, Note_on_c, 4, 67, 112
6, 187022, Note_on_c, 4, 67, 0
6, 187082, Note_on_c, 4, 64, 112
6, 187142, Note_on_c, 4, 64, 0
6, 187202, Note_on_c, 4, 60, 127
6, 187322, Note_on_c, 4, 60, 0
6, 187682, Note_on_c, 4, 67, 94
6, 187802, Note_on_c, 4, 67, 0
6, 188162, Note_on_c, 4, 60, 94
6, 188282, Note_on_c, 4, 60, 0
6, 188642, Note_on_c, 4, 60, 94
6, 188762, Note_on_c, 4, 60, 0
6, 188882, Note_on_c, 4, 60, 94
6, 189002, Note_on_c, 4, 60, 0
6, 189122, Note_on_c, 4, 60, 94
6, 189242, Note_on_c, 4, 60, 0
6, 189602, Control_c, 4, 121, 0
6, 189602, End_track
7, 0, Start_track
7, 0, MIDI_port, 0
7, 0, Title_t, "Corno II in C"
7, 0, Program_c, 5, 60
7, 0, Control_c, 5, 10, 28
7, 4, Control_c, 5, 121, 0
7, 9, Program_c, 5, 60
7, 14, Pitch_bend_c, 5, 8092
7, 19, Control_c, 5, 11, 87
7, 24, Control_c, 5, 7, 127
7, 29, Control_c, 5, 91, 80
7, 34, Control_c, 5, 93, 0
7, 39, Control_c, 5, 10, 28
7, 484, Note_on_c, 5, 48, 82
7, 484, Control_c, 5, 11, 57
7, 488, Control_c, 5, 11, 60
7, 493, Control_c, 5, 11, 63
7, 498, Control_c, 5, 11, 66
7, 503, Control_c, 5, 11, 69
7, 508, Control_c, 5, 11, 72
7, 513, Control_c, 5, 11, 75
7, 518, Control_c, 5, 11, 78
7, 530, Control_c, 5, 11, 75
7, 542, Control_c, 5, 11, 72
7, 554, Control_c, 5, 11, 69
7, 565, Control_c, 5, 11, 66
7, 577, Control_c, 5, 11, 63
7, 589, Control_c, 5, 11, 60
7, 601, Control_c, 5, 11, 57
7, 612, Control_c, 5, 11, 54
7, 624, Control_c, 5, 11, 51
7, 636, Control_c, 5, 11, 48
7, 764, Control_c, 5, 11, 47
7, 767, Control_c, 5, 11, 44
7, 770, Control_c, 5, 11, 41
7, 773, Control_c, 5, 11, 38
7, 776, Control_c, 5, 11, 35
7, 779, Control_c, 5, 11, 32
7, 782, Control_c, 5, 11, 29
7, 784, Note_on_c, 5, 48, 0
7, 964, Note_on_c, 5, 55, 82
7, 964, Control_c, 5, 11, 57
7, 968, Control_c, 5, 11, 60
7, 973, Control_c, 5, 11, 63
7, 978, Control_c, 5, 11, 66
7, 983, Control_c, 5, 11, 69
7, 988, Control_c, 5, 11, 72
7, 993, Control_c, 5, 11, 75
7, 998, Control_c, 5, 11, 78
7, 1010, Control_c, 5, 11, 75
7, 1022, Control_c, 5, 11, 72
7, 1034, Control_c, 5, 11, 69
7, 1045, Control_c, 5, 11, 66
7, 1057, Control_c, 5, 11, 63
7, 1069, Control_c, 5, 11, 60
7, 1081, Control_c, 5, 11, 57
7, 1092, Control_c, 5, 11, 54
7, 1104, Control_c, 5, 11, 51
7, 1116, Control_c, 5, 11, 48
7, 1194, Note_on_c, 5, 55, 0
7, 1204, Note_on_c, 5, 48, 66
7, 1244, Control_c, 5, 11, 47
7, 1247, Control_c, 5, 11, 44
7, 1250, Control_c, 5, 11, 41
7, 1253, Control_c, 5, 11, 38
7, 1256, Control_c, 5, 11, 35
7, 1259, Control_c, 5, 11, 32
7, 1262, Control_c, 5, 11, 29
7, 1264, Note_on_c, 5, 48, 0
7, 1444, Note_on_c, 5, 62, 82
7, 1444, Control_c, 5, 11, 47
7, 1467, Control_c, 5, 11, 49
7, 1491, Control_c, 5, 11, 51
7, 1515, Control_c, 5, 11, 53
7, 1539, Control_c, 5, 11, 55
7, 1563, Control_c, 5, 11, 57
7, 1587, Control_c, 5, 11, 59
7, 1611, Control_c, 5, 11, 61
7, 1635, Control_c, 5, 11, 63
7, 1659, Control_c, 5, 11, 65
7, 1674, Note_on_c, 5, 62, 0
7, 1683, Control_c, 5, 11, 67
7, 1684, Note_on_c, 5, 62, 82
7, 1707, Control_c, 5, 11, 69
7, 1731, Control_c, 5, 11, 71
7, 1755, Control_c, 5, 11, 73
7, 1779, Control_c, 5, 11, 75
7, 1783, Note_on_c, 5, 62, 0
7, 1803, Control_c, 5, 11, 77
7, 1804, Note_on_c, 5, 62, 82
7, 1827, Control_c, 5, 11, 79
7, 1851, Control_c, 5, 11, 81
7, 1875, Control_c, 5, 11, 83
7, 1899, Control_c, 5, 11, 85
7, 1903, Note_on_c, 5, 62, 0
7, 1923, Control_c, 5, 11, 87
7, 1924, Note_on_c, 5, 55, 102
7, 2044, Note_on_c, 5, 55, 0
7, 2404, Note_on_c, 5, 55, 102
7, 2404, Control_c, 5, 11, 32
7, 2408, Control_c, 5, 11, 35
7, 2412, Control_c, 5, 11, 38
7, 2416, Control_c, 5, 11, 41
7, 2420, Control_c, 5, 11, 44
7, 2424, Control_c, 5, 11, 47
7, 3004, Note_on_c, 5, 55, 0
7, 3004, Note_on_c, 5, 55, 102
7, 3124, Note_on_c, 5, 55, 0
7, 3124, Note_on_c, 5, 52, 102
7, 3244, Note_on_c, 5, 52, 0
7, 3244, Note_on_c, 5, 48, 102
7, 3364, Note_on_c, 5, 48, 0
7, 3364, Note_on_c, 5, 43, 102
7, 3364, Control_c, 5, 11, 47
7, 3388, Control_c, 5, 11, 49
7, 3412, Control_c, 5, 11, 51
7, 3436, Control_c, 5, 11, 53
7, 3460, Control_c, 5, 11, 55
7, 3484, Control_c, 5, 11, 57
7, 3508, Control_c, 5, 11, 59
7, 3532, Control_c, 5, 11, 61
7, 3556, Control_c, 5, 11, 63
7, 3580, Control_c, 5, 11, 65
7, 3604, Control_c, 5, 11, 67
7, 3628, Control_c, 5, 11, 69
7, 3652, Control_c, 5, 11, 71
7, 3664, Note_on_c, 5, 43, 0
7, 3664, Note_on_c, 5, 43, 102
7, 3676, Control_c, 5, 11, 73
7, 3700, Control_c, 5, 11, 75
7, 3719, Note_on_c, 5, 43, 0
7, 3724, Control_c, 5, 11, 77
7, 3724, Note_on_c, 5, 43, 102
7, 3748, Control_c, 5, 11, 79
7, 3772, Control_c, 5, 11, 81
7, 3779, Note_on_c, 5, 43, 0
7, 3784, Note_on_c, 5, 43, 102
7, 3796, Control_c, 5, 11, 83
7, 3820, Control_c, 5, 11, 85
7, 3839, Note_on_c, 5, 43, 0
7, 3844, Control_c, 5, 11, 77
7, 3844, Note_on_c, 5, 48, 102
7, 3853, Control_c, 5, 11, 80
7, 3862, Control_c, 5, 11, 83
7, 3871, Control_c, 5, 11, 86
7, 3951, Note_on_c, 5, 48, 0
7, 3964, Note_on_c, 5, 64, 102
7, 4064, Control_c, 5, 11, 87
7, 4066, Control_c, 5, 11, 83
7, 4068, Control_c, 5, 11, 79
7, 4070, Control_c, 5, 11, 76
7, 4072, Control_c, 5, 11, 72
7, 4074, Control_c, 5, 11, 69
7, 4076, Control_c, 5, 11, 65
7, 4078, Note_on_c, 5, 64, 0
7, 4078, Control_c, 5, 11, 62
7, 4204, Note_on_c, 5, 62, 102
7, 4204, Control_c, 5, 11, 87
7, 4304, Control_c, 5, 11, 87
7, 4306, Control_c, 5, 11, 83
7, 4308, Control_c, 5, 11, 79
7, 4310, Control_c, 5, 11, 76
7, 4312, Control_c, 5, 11, 72
7, 4314, Control_c, 5, 11, 69
7, 4316, Control_c, 5, 11, 65
7, 4318, Note_on_c, 5, 62, 0
7, 4318, Control_c, 5, 11, 62
7, 4324, Note_on_c, 5, 60, 102
7, 4324, Control_c, 5, 11, 32
7, 4330, Control_c, 5, 11, 35
7, 4336, Control_c, 5, 11, 38
7, 4342, Control_c, 5, 11, 41
7, 4348, Control_c, 5, 11, 44
7, 4354, Control_c, 5, 11, 47
7, 4504, Note_on_c, 5, 60, 0
7, 4504, Note_on_c, 5, 64, 102
7, 4559, Note_on_c, 5, 64, 0
7, 4564, Note_on_c, 5, 64, 102
7, 4564, Control_c, 5, 11, 47
7, 4582, Control_c, 5, 11, 50
7, 4600, Control_c, 5, 11, 53
7, 4618, Control_c, 5, 11, 56
7, 4624, Note_on_c, 5, 64, 0
7, 4624, Note_on_c, 5, 62, 102
7, 4636, Control_c, 5, 11, 59
7, 4654, Control_c, 5, 11, 62
7, 4672, Control_c, 5, 11, 65
7, 4684, Note_on_c, 5, 62, 0
7, 4684, Note_on_c, 5, 60, 102
7, 4690, Control_c, 5, 11, 68
7, 4708, Control_c, 5, 11, 71
7, 4726, Control_c, 5, 11, 74
7, 4744, Note_on_c, 5, 60, 0
7, 4744, Note_on_c, 5, 62, 102
7, 4744, Control_c, 5, 11, 77
7, 4762, Control_c, 5, 11, 80
7, 4780, Control_c, 5, 11, 83
7, 4798, Control_c, 5, 11, 86
7, 4799, Note_on_c, 5, 62, 0
7, 4804, Note_on_c, 5, 60, 102
7, 4804, Control_c, 5, 11, 77
7, 4813, Control_c, 5, 11, 80
7, 4822, Control_c, 5, 11, 83
7, 4831, Control_c, 5, 11, 86
7, 4911, Note_on_c, 5, 60, 0
7, 4924, Note_on_c, 5, 48, 102
7, 5019, Control_c, 5, 11, 87
7, 5021, Control_c, 5, 11, 83
7, 5023, Control_c, 5, 11, 79
7, 5025, Control_c, 5, 11, 76
7, 5027, Control_c, 5, 11, 72
7, 5029, Control_c, 5, 11, 69
7, 5031, Control_c, 5, 11, 65
7, 5033, Control_c, 5, 11, 62
7, 5038, Note_on_c, 5, 48, 0
7, 5164, Control_c, 5, 11, 87
7, 5164, Note_on_c, 5, 48, 102
7, 5259, Control_c, 5, 11, 87
7, 5261, Control_c, 5, 11, 83
7, 5263, Control_c, 5, 11, 79
7, 5265, Control_c, 5, 11, 76
7, 5267, Control_c, 5, 11, 72
7, 5269, Control_c, 5, 11, 69
7, 5271, Control_c, 5, 11, 65
7, 5273, Control_c, 5, 11, 62
7, 5278, Note_on_c, 5, 48, 0
7, 5284, Control_c, 5, 11, 87
7, 5284, Note_on_c, 5, 48, 102
7, 5344, Control_c, 5, 11, 87
7, 5357, Control_c, 5, 11, 84
7, 5371, Control_c, 5, 11, 81
7, 5384, Control_c, 5, 11, 78
7, 5398, Control_c, 5, 11, 75
7, 5411, Control_c, 5, 11, 72
7, 5425, Control_c, 5, 11, 69
7, 5438, Control_c, 5, 11, 66
7, 5452, Control_c, 5, 11, 63
7, 5465, Control_c, 5, 11, 60
7, 5479, Control_c, 5, 11, 57
7, 5492, Control_c, 5, 11, 54
7, 5506, Control_c, 5, 11, 51
7, 5519, Control_c, 5, 11, 48
7, 5547, Control_c, 5, 11, 46
7, 5571, Control_c, 5, 11, 45
7, 5584, Note_on_c, 5, 48, 0
7, 5584, Control_c, 5, 91, 110
7, 5584, Note_on_c, 5, 55, 122
7, 5595, Control_c, 5, 11, 44
7, 5619, Control_c, 5, 11, 43
7, 5643, Control_c, 5, 11, 42
7, 5644, Note_on_c, 5, 55, 0
7, 5644, Note_on_c, 5, 52, 122
7, 5667, Control_c, 5, 11, 41
7, 5691, Control_c, 5, 11, 40
7, 5704, Note_on_c, 5, 52, 0
7, 5704, Note_on_c, 5, 48, 122
7, 5715, Control_c, 5, 11, 39
7, 5739, Control_c, 5, 11, 38
7, 5763, Control_c, 5, 11, 37
7, 5764, Note_on_c, 5, 48, 0
7, 5764, Note_on_c, 5, 43, 102
7, 5764, Control_c, 5, 91, 80
7, 5782, Control_c, 5, 11, 40
7, 5800, Control_c, 5, 11, 43
7, 5818, Control_c, 5, 11, 46
7, 6004, Note_on_c, 5, 43, 0
7, 6004, Note_on_c, 5, 55, 102
7, 6239, Note_on_c, 5, 55, 0
7, 6244, Note_on_c, 5, 52, 102
7, 6304, Control_c, 5, 11, 47
7, 6311, Control_c, 5, 11, 44
7, 6318, Control_c, 5, 11, 41
7, 6325, Control_c, 5, 11, 38
7, 6332, Control_c, 5, 11, 35
7, 6339, Control_c, 5, 11, 32
7, 6346, Control_c, 5, 11, 29
7, 6353, Control_c, 5, 11, 26
7, 6360, Control_c, 5, 11, 23
7, 6364, Note_on_c, 5, 52, 0
7, 11044, Control_c, 5, 11, 32
7, 11044, Note_on_c, 5, 62, 82
7, 11063, Control_c, 5, 11, 35
7, 11082, Control_c, 5, 11, 38
7, 11101, Control_c, 5, 11, 41
7, 11128, Control_c, 5, 11, 43
7, 11149, Control_c, 5, 11, 44
7, 11170, Control_c, 5, 11, 45
7, 11191, Control_c, 5, 11, 46
7, 11212, Control_c, 5, 11, 47
7, 11232, Control_c, 5, 11, 48
7, 11253, Control_c, 5, 11, 49
7, 11274, Control_c, 5, 11, 50
7, 11295, Control_c, 5, 11, 51
7, 11316, Control_c, 5, 11, 52
7, 11336, Control_c, 5, 11, 53
7, 11357, Control_c, 5, 11, 54
7, 11378, Control_c, 5, 11, 55
7, 11399, Control_c, 5, 11, 56
7, 11420, Control_c, 5, 11, 57
7, 11440, Control_c, 5, 11, 58
7, 11461, Control_c, 5, 11, 59
7, 11482, Control_c, 5, 11, 60
7, 11503, Control_c, 5, 11, 61
7, 11524, Control_c, 5, 11, 62
7, 11556, Control_c, 5, 11, 63
7, 11588, Control_c, 5, 11, 64
7, 11620, Control_c, 5, 11, 65
7, 11652, Control_c, 5, 11, 66
7, 11684, Control_c, 5, 11, 67
7, 11716, Control_c, 5, 11, 68
7, 11748, Control_c, 5, 11, 69
7, 11780, Control_c, 5, 11, 70
7, 11812, Control_c, 5, 11, 71
7, 11844, Control_c, 5, 11, 72
7, 11876, Control_c, 5, 11, 73
7, 11908, Control_c, 5, 11, 74
7, 11940, Control_c, 5, 11, 75
7, 11972, Control_c, 5, 11, 76
7, 12004, Note_on_c, 5, 62, 0
7, 12004, Note_on_c, 5, 55, 102
7, 12004, Control_c, 5, 11, 87
7, 12022, Control_c, 5, 11, 84
7, 12040, Control_c, 5, 11, 81
7, 12058, Control_c, 5, 11, 78
7, 12076, Control_c, 5, 11, 75
7, 12094, Control_c, 5, 11, 72
7, 12112, Control_c, 5, 11, 69
7, 12131, Control_c, 5, 11, 66
7, 12152, Control_c, 5, 11, 63
7, 12167, Control_c, 5, 11, 61
7, 12188, Control_c, 5, 11, 58
7, 12210, Control_c, 5, 11, 55
7, 12231, Control_c, 5, 11, 52
7, 12253, Control_c, 5, 11, 49
7, 12274, Control_c, 5, 11, 46
7, 12296, Control_c, 5, 11, 43
7, 12317, Control_c, 5, 11, 40
7, 12339, Note_on_c, 5, 55, 0
7, 12339, Control_c, 5, 11, 37
7, 12964, Note_on_c, 5, 55, 102
7, 12964, Control_c, 5, 11, 97
7, 12982, Control_c, 5, 11, 94
7, 13000, Control_c, 5, 11, 91
7, 13018, Control_c, 5, 11, 88
7, 13036, Control_c, 5, 11, 85
7, 13054, Control_c, 5, 11, 82
7, 13072, Control_c, 5, 11, 79
7, 13089, Control_c, 5, 11, 76
7, 13105, Control_c, 5, 11, 73
7, 13121, Control_c, 5, 11, 70
7, 13137, Control_c, 5, 11, 67
7, 13153, Control_c, 5, 11, 64
7, 13170, Control_c, 5, 11, 61
7, 13186, Control_c, 5, 11, 58
7, 13202, Control_c, 5, 11, 55
7, 13218, Control_c, 5, 11, 52
7, 13234, Control_c, 5, 11, 49
7, 13250, Control_c, 5, 11, 46
7, 13266, Control_c, 5, 11, 43
7, 13282, Control_c, 5, 11, 40
7, 13299, Note_on_c, 5, 55, 0
7, 13299, Control_c, 5, 11, 37
7, 13924, Note_on_c, 5, 55, 92
7, 13924, Control_c, 5, 11, 97
7, 13942, Control_c, 5, 11, 94
7, 13960, Control_c, 5, 11, 91
7, 13978, Control_c, 5, 11, 88
7, 13996, Control_c, 5, 11, 85
7, 14014, Control_c, 5, 11, 82
7, 14032, Control_c, 5, 11, 79
7, 14404, Control_c, 5, 11, 77
7, 14423, Control_c, 5, 11, 78
7, 14442, Control_c, 5, 11, 79
7, 14461, Control_c, 5, 11, 80
7, 14480, Control_c, 5, 11, 81
7, 14499, Control_c, 5, 11, 82
7, 14514, Note_on_c, 5, 55, 0
7, 14518, Control_c, 5, 11, 83
7, 14524, Note_on_c, 5, 55, 92
7, 14538, Control_c, 5, 11, 84
7, 14557, Control_c, 5, 11, 85
7, 14576, Control_c, 5, 11, 86
7, 14595, Control_c, 5, 11, 87
7, 14614, Control_c, 5, 11, 88
7, 14633, Control_c, 5, 11, 89
7, 14634, Note_on_c, 5, 55, 0
7, 14644, Note_on_c, 5, 55, 92
7, 14653, Control_c, 5, 11, 90
7, 14672, Control_c, 5, 11, 91
7, 14691, Control_c, 5, 11, 92
7, 14710, Control_c, 5, 11, 93
7, 14729, Control_c, 5, 11, 94
7, 14748, Control_c, 5, 11, 95
7, 14754, Note_on_c, 5, 55, 0
7, 14764, Note_on_c, 5, 55, 92
7, 14768, Control_c, 5, 11, 96
7, 14787, Control_c, 5, 11, 97
7, 14806, Control_c, 5, 11, 98
7, 14825, Control_c, 5, 11, 99
7, 14844, Control_c, 5, 11, 100
7, 14863, Control_c, 5, 11, 101
7, 14874, Note_on_c, 5, 55, 0
7, 14883, Control_c, 5, 11, 102
7, 14884, Note_on_c, 5, 55, 102
7, 14944, Note_on_c, 5, 55, 0
7, 15124, Note_on_c, 5, 48, 92
7, 15184, Note_on_c, 5, 48, 0
7, 15364, Note_on_c, 5, 48, 92
7, 15424, Note_on_c, 5, 48, 0
7, 15604, Note_on_c, 5, 55, 92
7, 15664, Note_on_c, 5, 55, 0
7, 15844, Note_on_c, 5, 52, 92
7, 15904, Note_on_c, 5, 52, 0
7, 16444, Note_on_c, 5, 52, 87
7, 16564, Note_on_c, 5, 52, 0
7, 16564, Note_on_c, 5, 52, 87
7, 16684, Note_on_c, 5, 52, 0
7, 16684, Note_on_c, 5, 52, 87
7, 16804, Note_on_c, 5, 52, 0
7, 16804, Note_on_c, 5, 55, 87
7, 17404, Note_on_c, 5, 55, 0
7, 17404, Note_on_c, 5, 55, 87
7, 17524, Note_on_c, 5, 55, 0
7, 17524, Note_on_c, 5, 55, 87
7, 17644, Note_on_c, 5, 55, 0
7, 17644, Note_on_c, 5, 55, 87
7, 17764, Note_on_c, 5, 55, 0
7, 17764, Note_on_c, 5, 52, 87
7, 17884, Note_on_c, 5, 52, 0
7, 18364, Note_on_c, 5, 52, 87
7, 18484, Note_on_c, 5, 52, 0
7, 18484, Note_on_c, 5, 52, 87
7, 18604, Note_on_c, 5, 52, 0
7, 18604, Note_on_c, 5, 52, 87
7, 18724, Note_on_c, 5, 52, 0
7, 18724, Note_on_c, 5, 55, 87
7, 19324, Note_on_c, 5, 55, 0
7, 19324, Note_on_c, 5, 55, 87
7, 19444, Note_on_c, 5, 55, 0
7, 19444, Note_on_c, 5, 55, 87
7, 19564, Note_on_c, 5, 55, 0
7, 19564, Note_on_c, 5, 55, 87
7, 19684, Note_on_c, 5, 55, 0
7, 19684, Note_on_c, 5, 52, 87
7, 19804, Note_on_c, 5, 52, 0
7, 21604, Note_on_c, 5, 55, 102
7, 21724, Note_on_c, 5, 55, 0
7, 21724, Note_on_c, 5, 55, 102
7, 21844, Note_on_c, 5, 55, 0
7, 21844, Note_on_c, 5, 60, 102
7, 21964, Note_on_c, 5, 60, 0
7, 21964, Note_on_c, 5, 60, 102
7, 22084, Note_on_c, 5, 60, 0
7, 22084, Note_on_c, 5, 55, 102
7, 22204, Note_on_c, 5, 55, 0
7, 22684, Note_on_c, 5, 55, 102
7, 22804, Note_on_c, 5, 55, 0
7, 22804, Note_on_c, 5, 60, 102
7, 22924, Note_on_c, 5, 60, 0
7, 22924, Note_on_c, 5, 60, 102
7, 23044, Note_on_c, 5, 60, 0
7, 23044, Note_on_c, 5, 55, 102
7, 23164, Note_on_c, 5, 55, 0
7, 23644, Note_on_c, 5, 55, 102
7, 23764, Note_on_c, 5, 55, 0
7, 23884, Note_on_c, 5, 60, 102
7, 24004, Note_on_c, 5, 60, 0
7, 24124, Note_on_c, 5, 55, 102
7, 24244, Note_on_c, 5, 55, 0
7, 24364, Note_on_c, 5, 60, 102
7, 24484, Note_on_c, 5, 60, 0
7, 24484, Note_on_c, 5, 55, 102
7, 24604, Note_on_c, 5, 55, 0
7, 24724, Note_on_c, 5, 55, 102
7, 24844, Note_on_c, 5, 55, 0
7, 24964, Note_on_c, 5, 43, 102
7, 25084, Note_on_c, 5, 43, 0
7, 33124, Note_on_c, 5, 62, 102
7, 33124, Control_c, 5, 11, 87
7, 33244, Note_on_c, 5, 62, 0
7, 33364, Note_on_c, 5, 62, 102
7, 33484, Note_on_c, 5, 62, 0
7, 33604, Note_on_c, 5, 62, 102
7, 33724, Note_on_c, 5, 62, 0
7, 34084, Control_c, 5, 11, 107
7, 34084, Note_on_c, 5, 62, 102
7, 34101, Control_c, 5, 11, 104
7, 34119, Control_c, 5, 11, 101
7, 34137, Control_c, 5, 11, 98
7, 34155, Control_c, 5, 11, 95
7, 34173, Control_c, 5, 11, 92
7, 34191, Control_c, 5, 11, 89
7, 34324, Note_on_c, 5, 62, 0
7, 34324, Note_on_c, 5, 62, 102
7, 34324, Control_c, 5, 11, 107
7, 34341, Control_c, 5, 11, 104
7, 34359, Control_c, 5, 11, 101
7, 34377, Control_c, 5, 11, 98
7, 34395, Control_c, 5, 11, 95
7, 34413, Control_c, 5, 11, 92
7, 34431, Control_c, 5, 11, 89
7, 34564, Note_on_c, 5, 62, 0
7, 34564, Control_c, 5, 11, 107
7, 34564, Note_on_c, 5, 62, 102
7, 34581, Control_c, 5, 11, 104
7, 34599, Control_c, 5, 11, 101
7, 34617, Control_c, 5, 11, 98
7, 34635, Control_c, 5, 11, 95
7, 34653, Control_c, 5, 11, 92
7, 34671, Control_c, 5, 11, 89
7, 34804, Note_on_c, 5, 62, 0
7, 35044, Note_on_c, 5, 62, 102
7, 35284, Note_on_c, 5, 62, 0
7, 36604, Note_on_c, 5, 55, 102
7, 36604, Control_c, 5, 11, 102
7, 36724, Note_on_c, 5, 55, 0
7, 36724, Note_on_c, 5, 62, 102
7, 36844, Note_on_c, 5, 62, 0
7, 36844, Note_on_c, 5, 62, 102
7, 36964, Note_on_c, 5, 62, 0
7, 36964, Note_on_c, 5, 55, 47
7, 36964, Control_c, 5, 11, 86
7, 36994, Control_c, 5, 11, 87
7, 37006, Control_c, 5, 11, 84
7, 37020, Control_c, 5, 11, 81
7, 37033, Control_c, 5, 11, 78
7, 37047, Control_c, 5, 11, 75
7, 37060, Control_c, 5, 11, 72
7, 37074, Control_c, 5, 11, 69
7, 37084, Note_on_c, 5, 55, 0
7, 42484, Note_on_c, 5, 55, 102
7, 42484, Control_c, 5, 11, 107
7, 42502, Control_c, 5, 11, 104
7, 42520, Control_c, 5, 11, 101
7, 42538, Control_c, 5, 11, 98
7, 42556, Control_c, 5, 11, 95
7, 42574, Control_c, 5, 11, 92
7, 42592, Control_c, 5, 11, 89
7, 42844, Note_on_c, 5, 55, 0
7, 42964, Control_c, 5, 11, 107
7, 42964, Note_on_c, 5, 55, 102
7, 42982, Control_c, 5, 11, 104
7, 43000, Control_c, 5, 11, 101
7, 43018, Control_c, 5, 11, 98
7, 43036, Control_c, 5, 11, 95
7, 43054, Control_c, 5, 11, 92
7, 43072, Control_c, 5, 11, 89
7, 43324, Note_on_c, 5, 55, 0
7, 47284, Note_on_c, 5, 52, 102
7, 47284, Control_c, 5, 11, 122
7, 47302, Control_c, 5, 11, 119
7, 47320, Control_c, 5, 11, 116
7, 47338, Control_c, 5, 11, 113
7, 47356, Control_c, 5, 11, 110
7, 47374, Control_c, 5, 11, 107
7, 47392, Control_c, 5, 11, 104
7, 47524, Note_on_c, 5, 52, 0
7, 47524, Control_c, 5, 11, 122
7, 47524, Note_on_c, 5, 48, 102
7, 47542, Control_c, 5, 11, 119
7, 47560, Control_c, 5, 11, 116
7, 47578, Control_c, 5, 11, 113
7, 47596, Control_c, 5, 11, 110
7, 47614, Control_c, 5, 11, 107
7, 47632, Control_c, 5, 11, 104
7, 47764, Note_on_c, 5, 48, 0
7, 47764, Note_on_c, 5, 62, 102
7, 47764, Control_c, 5, 11, 122
7, 47782, Control_c, 5, 11, 119
7, 47800, Control_c, 5, 11, 116
7, 47818, Control_c, 5, 11, 113
7, 47836, Control_c, 5, 11, 110
7, 47854, Control_c, 5, 11, 107
7, 47872, Control_c, 5, 11, 104
7, 48004, Note_on_c, 5, 62, 0
7, 48004, Control_c, 5, 11, 87
7, 48004, Note_on_c, 5, 43, 102
7, 48022, Control_c, 5, 11, 84
7, 48040, Control_c, 5, 11, 81
7, 48058, Control_c, 5, 11, 78
7, 48076, Control_c, 5, 11, 75
7, 48094, Control_c, 5, 11, 72
7, 48112, Control_c, 5, 11, 69
7, 48136, Control_c, 5, 11, 66
7, 48160, Control_c, 5, 11, 64
7, 48184, Control_c, 5, 11, 62
7, 48208, Control_c, 5, 11, 60
7, 48232, Control_c, 5, 11, 58
7, 48256, Control_c, 5, 11, 56
7, 48280, Control_c, 5, 11, 54
7, 48304, Control_c, 5, 11, 52
7, 48328, Control_c, 5, 11, 50
7, 48352, Control_c, 5, 11, 48
7, 48844, Note_on_c, 5, 43, 0
7, 48844, Note_on_c, 5, 62, 102
7, 48844, Control_c, 5, 11, 87
7, 48964, Note_on_c, 5, 62, 0
7, 48964, Note_on_c, 5, 43, 102
7, 48964, Control_c, 5, 11, 47
7, 49804, Note_on_c, 5, 43, 0
7, 49804, Note_on_c, 5, 62, 102
7, 49804, Control_c, 5, 11, 87
7, 49924, Note_on_c, 5, 62, 0
7, 49924, Note_on_c, 5, 43, 102
7, 49924, Control_c, 5, 11, 47
7, 50284, Note_on_c, 5, 43, 0
7, 50284, Note_on_c, 5, 62, 102
7, 50284, Control_c, 5, 11, 87
7, 50404, Note_on_c, 5, 62, 0
7, 50404, Control_c, 5, 11, 47
7, 50404, Note_on_c, 5, 43, 102
7, 50764, Note_on_c, 5, 43, 0
7, 50764, Control_c, 5, 11, 102
7, 50764, Note_on_c, 5, 62, 102
7, 50884, Note_on_c, 5, 62, 0
7, 50884, Note_on_c, 5, 55, 102
7, 50884, Control_c, 5, 11, 102
7, 50908, Control_c, 5, 11, 100
7, 50932, Control_c, 5, 11, 98
7, 50956, Control_c, 5, 11, 96
7, 50980, Control_c, 5, 11, 94
7, 51004, Control_c, 5, 11, 92
7, 51028, Control_c, 5, 11, 90
7, 51052, Control_c, 5, 11, 88
7, 51076, Control_c, 5, 11, 86
7, 51100, Control_c, 5, 11, 84
7, 51124, Note_on_c, 5, 55, 0
7, 51124, Note_on_c, 5, 55, 102
7, 51124, Control_c, 5, 11, 82
7, 51171, Control_c, 5, 11, 81
7, 51219, Control_c, 5, 11, 80
7, 51267, Control_c, 5, 11, 79
7, 51315, Control_c, 5, 11, 78
7, 51363, Control_c, 5, 11, 77
7, 51364, Note_on_c, 5, 55, 0
7, 51364, Note_on_c, 5, 55, 102
7, 51411, Control_c, 5, 11, 76
7, 51459, Control_c, 5, 11, 75
7, 51507, Control_c, 5, 11, 74
7, 51555, Control_c, 5, 11, 73
7, 51603, Control_c, 5, 11, 72
7, 51604, Note_on_c, 5, 55, 0
7, 51604, Note_on_c, 5, 55, 102
7, 51651, Control_c, 5, 11, 71
7, 51699, Control_c, 5, 11, 70
7, 51747, Control_c, 5, 11, 69
7, 51795, Control_c, 5, 11, 68
7, 51843, Control_c, 5, 11, 67
7, 51844, Note_on_c, 5, 55, 0
7, 51844, Note_on_c, 5, 55, 102
7, 51891, Control_c, 5, 11, 66
7, 51939, Control_c, 5, 11, 65
7, 51987, Control_c, 5, 11, 64
7, 52035, Control_c, 5, 11, 63
7, 52083, Control_c, 5, 11, 62
7, 52131, Control_c, 5, 11, 61
7, 52179, Control_c, 5, 11, 60
7, 52227, Control_c, 5, 11, 59
7, 52275, Control_c, 5, 11, 58
7, 52323, Control_c, 5, 11, 57
7, 52371, Control_c, 5, 11, 56
7, 52419, Control_c, 5, 11, 55
7, 52467, Control_c, 5, 11, 54
7, 52515, Control_c, 5, 11, 53
7, 52563, Control_c, 5, 11, 52
7, 52611, Control_c, 5, 11, 51
7, 52659, Control_c, 5, 11, 50
7, 52707, Control_c, 5, 11, 49
7, 52755, Control_c, 5, 11, 48
7, 52803, Control_c, 5, 11, 47
7, 52804, Note_on_c, 5, 55, 0
7, 52804, Note_on_c, 5, 52, 87
7, 52864, Control_c, 5, 11, 47
7, 52871, Control_c, 5, 11, 44
7, 52878, Control_c, 5, 11, 41
7, 52885, Control_c, 5, 11, 38
7, 52892, Control_c, 5, 11, 35
7, 52899, Control_c, 5, 11, 32
7, 52906, Control_c, 5, 11, 29
7, 52913, Control_c, 5, 11, 26
7, 52920, Control_c, 5, 11, 23
7, 52924, Note_on_c, 5, 52, 0
7, 57604, Note_on_c, 5, 62, 82
7, 57604, Control_c, 5, 11, 32
7, 57623, Control_c, 5, 11, 35
7, 57642, Control_c, 5, 11, 38
7, 57661, Control_c, 5, 11, 41
7, 57688, Control_c, 5, 11, 43
7, 57709, Control_c, 5, 11, 44
7, 57730, Control_c, 5, 11, 45
7, 57751, Control_c, 5, 11, 46
7, 57772, Control_c, 5, 11, 47
7, 57792, Control_c, 5, 11, 48
7, 57813, Control_c, 5, 11, 49
7, 57834, Control_c, 5, 11, 50
7, 57855, Control_c, 5, 11, 51
7, 57876, Control_c, 5, 11, 52
7, 57896, Control_c, 5, 11, 53
7, 57917, Control_c, 5, 11, 54
7, 57938, Control_c, 5, 11, 55
7, 57959, Control_c, 5, 11, 56
7, 57980, Control_c, 5, 11, 57
7, 58000, Control_c, 5, 11, 58
7, 58021, Control_c, 5, 11, 59
7, 58042, Control_c, 5, 11, 60
7, 58063, Control_c, 5, 11, 61
7, 58084, Control_c, 5, 11, 62
7, 58116, Control_c, 5, 11, 63
7, 58148, Control_c, 5, 11, 64
7, 58180, Control_c, 5, 11, 65
7, 58212, Control_c, 5, 11, 66
7, 58244, Control_c, 5, 11, 67
7, 58276, Control_c, 5, 11, 68
7, 58308, Control_c, 5, 11, 69
7, 58340, Control_c, 5, 11, 70
7, 58372, Control_c, 5, 11, 71
7, 58404, Control_c, 5, 11, 72
7, 58436, Control_c, 5, 11, 73
7, 58468, Control_c, 5, 11, 74
7, 58500, Control_c, 5, 11, 75
7, 58532, Control_c, 5, 11, 76
7, 58564, Note_on_c, 5, 62, 0
7, 58564, Note_on_c, 5, 55, 102
7, 58564, Control_c, 5, 11, 87
7, 58582, Control_c, 5, 11, 84
7, 58600, Control_c, 5, 11, 81
7, 58618, Control_c, 5, 11, 78
7, 58636, Control_c, 5, 11, 75
7, 58654, Control_c, 5, 11, 72
7, 58672, Control_c, 5, 11, 69
7, 58691, Control_c, 5, 11, 66
7, 58712, Control_c, 5, 11, 63
7, 58727, Control_c, 5, 11, 61
7, 58748, Control_c, 5, 11, 58
7, 58770, Control_c, 5, 11, 55
7, 58791, Control_c, 5, 11, 52
7, 58813, Control_c, 5, 11, 49
7, 58834, Control_c, 5, 11, 46
7, 58856, Control_c, 5, 11, 43
7, 58877, Control_c, 5, 11, 40
7, 58899, Note_on_c, 5, 55, 0
7, 58899, Control_c, 5, 11, 37
7, 59524, Control_c, 5, 11, 97
7, 59524, Note_on_c, 5, 55, 102
7, 59542, Control_c, 5, 11, 94
7, 59560, Control_c, 5, 11, 91
7, 59578, Control_c, 5, 11, 88
7, 59596, Control_c, 5, 11, 85
7, 59614, Control_c, 5, 11, 82
7, 59632, Control_c, 5, 11, 79
7, 59649, Control_c, 5, 11, 76
7, 59665, Control_c, 5, 11, 73
7, 59681, Control_c, 5, 11, 70
7, 59697, Control_c, 5, 11, 67
7, 59713, Control_c, 5, 11, 64
7, 59730, Control_c, 5, 11, 61
7, 59746, Control_c, 5, 11, 58
7, 59762, Control_c, 5, 11, 55
7, 59778, Control_c, 5, 11, 52
7, 59794, Control_c, 5, 11, 49
7, 59810, Control_c, 5, 11, 46
7, 59826, Control_c, 5, 11, 43
7, 59842, Control_c, 5, 11, 40
7, 59859, Note_on_c, 5, 55, 0
7, 59859, Control_c, 5, 11, 37
7, 60484, Note_on_c, 5, 55, 92
7, 60484, Control_c, 5, 11, 97
7, 60502, Control_c, 5, 11, 94
7, 60520, Control_c, 5, 11, 91
7, 60538, Control_c, 5, 11, 88
7, 60556, Control_c, 5, 11, 85
7, 60574, Control_c, 5, 11, 82
7, 60592, Control_c, 5, 11, 79
7, 60964, Control_c, 5, 11, 77
7, 60983, Control_c, 5, 11, 78
7, 61002, Control_c, 5, 11, 79
7, 61021, Control_c, 5, 11, 80
7, 61040, Control_c, 5, 11, 81
7, 61059, Control_c, 5, 11, 82
7, 61074, Note_on_c, 5, 55, 0
7, 61078, Control_c, 5, 11, 83
7, 61084, Note_on_c, 5, 55, 92
7, 61098, Control_c, 5, 11, 84
7, 61117, Control_c, 5, 11, 85
7, 61136, Control_c, 5, 11, 86
7, 61155, Control_c, 5, 11, 87
7, 61174, Control_c, 5, 11, 88
7, 61193, Control_c, 5, 11, 89
7, 61194, Note_on_c, 5, 55, 0
7, 61204, Note_on_c, 5, 55, 92
7, 61213, Control_c, 5, 11, 90
7, 61232, Control_c, 5, 11, 91
7, 61251, Control_c, 5, 11, 92
7, 61270, Control_c, 5, 11, 93
7, 61289, Control_c, 5, 11, 94
7, 61308, Control_c, 5, 11, 95
7, 61314, Note_on_c, 5, 55, 0
7, 61324, Note_on_c, 5, 55, 92
7, 61328, Control_c, 5, 11, 96
7, 61347, Control_c, 5, 11, 97
7, 61366, Control_c, 5, 11, 98
7, 61385, Control_c, 5, 11, 99
7, 61404, Control_c, 5, 11, 100
7, 61423, Control_c, 5, 11, 101
7, 61434, Note_on_c, 5, 55, 0
7, 61443, Control_c, 5, 11, 102
7, 61444, Note_on_c, 5, 55, 102
7, 61504, Note_on_c, 5, 55, 0
7, 61684, Note_on_c, 5, 48, 92
7, 61744, Note_on_c, 5, 48, 0
7, 61924, Note_on_c, 5, 48, 92
7, 61984, Note_on_c, 5, 48, 0
7, 62164, Note_on_c, 5, 55, 92
7, 62224, Note_on_c, 5, 55, 0
7, 62404, Note_on_c, 5, 52, 92
7, 62464, Note_on_c, 5, 52, 0
7, 63004, Note_on_c, 5, 52, 87
7, 63124, Note_on_c, 5, 52, 0
7, 63124, Note_on_c, 5, 52, 87
7, 63244, Note_on_c, 5, 52, 0
7, 63244, Note_on_c, 5, 52, 87
7, 63364, Note_on_c, 5, 52, 0
7, 63364, Note_on_c, 5, 55, 87
7, 63964, Note_on_c, 5, 55, 0
7, 63964, Note_on_c, 5, 55, 87
7, 64084, Note_on_c, 5, 55, 0
7, 64084, Note_on_c, 5, 55, 87
7, 64204, Note_on_c, 5, 55, 0
7, 64204, Note_on_c, 5, 55, 87
7, 64324, Note_on_c, 5, 55, 0
7, 64324, Note_on_c, 5, 52, 87
7, 64444, Note_on_c, 5, 52, 0
7, 64924, Note_on_c, 5, 52, 87
7, 65044, Note_on_c, 5, 52, 0
7, 65044, Note_on_c, 5, 52, 87
7, 65164, Note_on_c, 5, 52, 0
7, 65164, Note_on_c, 5, 52, 87
7, 65284, Note_on_c, 5, 52, 0
7, 65284, Note_on_c, 5, 55, 87
7, 65884, Note_on_c, 5, 55, 0
7, 65884, Note_on_c, 5, 55, 87
7, 66004, Note_on_c, 5, 55, 0
7, 66004, Note_on_c, 5, 55, 87
7, 66124, Note_on_c, 5, 55, 0
7, 66124, Note_on_c, 5, 55, 87
7, 66244, Note_on_c, 5, 55, 0
7, 66244, Note_on_c, 5, 52, 87
7, 66364, Note_on_c, 5, 52, 0
7, 68164, Note_on_c, 5, 55, 102
7, 68284, Note_on_c, 5, 55, 0
7, 68284, Note_on_c, 5, 55, 102
7, 68404, Note_on_c, 5, 55, 0
7, 68404, Note_on_c, 5, 60, 102
7, 68524, Note_on_c, 5, 60, 0
7, 68524, Note_on_c, 5, 60, 102
7, 68644, Note_on_c, 5, 60, 0
7, 68644, Note_on_c, 5, 55, 102
7, 68764, Note_on_c, 5, 55, 0
7, 69244, Note_on_c, 5, 55, 102
7, 69364, Note_on_c, 5, 55, 0
7, 69364, Note_on_c, 5, 60, 102
7, 69484, Note_on_c, 5, 60, 0
7, 69484, Note_on_c, 5, 60, 102
7, 69604, Note_on_c, 5, 60, 0
7, 69604, Note_on_c, 5, 55, 102
7, 69724, Note_on_c, 5, 55, 0
7, 70204, Note_on_c, 5, 55, 102
7, 70324, Note_on_c, 5, 55, 0
7, 70444, Note_on_c, 5, 60, 102
7, 70564, Note_on_c, 5, 60, 0
7, 70684, Note_on_c, 5, 55, 102
7, 70804, Note_on_c, 5, 55, 0
7, 70924, Note_on_c, 5, 60, 102
7, 71044, Note_on_c, 5, 60, 0
7, 71044, Note_on_c, 5, 55, 102
7, 71164, Note_on_c, 5, 55, 0
7, 71284, Note_on_c, 5, 55, 102
7, 71404, Note_on_c, 5, 55, 0
7, 71524, Note_on_c, 5, 43, 102
7, 71644, Note_on_c, 5, 43, 0
7, 79684, Note_on_c, 5, 62, 102
7, 79684, Control_c, 5, 11, 87
7, 79804, Note_on_c, 5, 62, 0
7, 79924, Note_on_c, 5, 62, 102
7, 80044, Note_on_c, 5, 62, 0
7, 80164, Note_on_c, 5, 62, 102
7, 80284, Note_on_c, 5, 62, 0
7, 80644, Control_c, 5, 11, 107
7, 80644, Note_on_c, 5, 62, 102
7, 80661, Control_c, 5, 11, 104
7, 80679, Control_c, 5, 11, 101
7, 80697, Control_c, 5, 11, 98
7, 80715, Control_c, 5, 11, 95
7, 80733, Control_c, 5, 11, 92
7, 80751, Control_c, 5, 11, 89
7, 80884, Note_on_c, 5, 62, 0
7, 80884, Note_on_c, 5, 62, 102
7, 80884, Control_c, 5, 11, 107
7, 80901, Control_c, 5, 11, 104
7, 80919, Control_c, 5, 11, 101
7, 80937, Control_c, 5, 11, 98
7, 80955, Control_c, 5, 11, 95
7, 80973, Control_c, 5, 11, 92
7, 80991, Control_c, 5, 11, 89
7, 81124, Note_on_c, 5, 62, 0
7, 81124, Note_on_c, 5, 62, 102
7, 81124, Control_c, 5, 11, 107
7, 81141, Control_c, 5, 11, 104
7, 81159, Control_c, 5, 11, 101
7, 81177, Control_c, 5, 11, 98
7, 81195, Control_c, 5, 11, 95
7, 81213, Control_c, 5, 11, 92
7, 81231, Control_c, 5, 11, 89
7, 81364, Note_on_c, 5, 62, 0
7, 81604, Note_on_c, 5, 62, 102
7, 81844, Note_on_c, 5, 62, 0
7, 83164, Control_c, 5, 11, 102
7, 83164, Note_on_c, 5, 55, 102
7, 83284, Note_on_c, 5, 55, 0
7, 83284, Note_on_c, 5, 62, 102
7, 83404, Note_on_c, 5, 62, 0
7, 83404, Note_on_c, 5, 62, 102
7, 83524, Note_on_c, 5, 62, 0
7, 83524, Control_c, 5, 11, 86
7, 83524, Note_on_c, 5, 55, 47
7, 83554, Control_c, 5, 11, 87
7, 83566, Control_c, 5, 11, 84
7, 83580, Control_c, 5, 11, 81
7, 83593, Control_c, 5, 11, 78
7, 83607, Control_c, 5, 11, 75
7, 83620, Control_c, 5, 11, 72
7, 83634, Control_c, 5, 11, 69
7, 83644, Note_on_c, 5, 55, 0
7, 89044, Note_on_c, 5, 55, 102
7, 89044, Control_c, 5, 11, 107
7, 89062, Control_c, 5, 11, 104
7, 89080, Control_c, 5, 11, 101
7, 89098, Control_c, 5, 11, 98
7, 89116, Control_c, 5, 11, 95
7, 89134, Control_c, 5, 11, 92
7, 89152, Control_c, 5, 11, 89
7, 89404, Note_on_c, 5, 55, 0
7, 89524, Note_on_c, 5, 55, 102
7, 89524, Control_c, 5, 11, 107
7, 89542, Control_c, 5, 11, 104
7, 89560, Control_c, 5, 11, 101
7, 89578, Control_c, 5, 11, 98
7, 89596, Control_c, 5, 11, 95
7, 89614, Control_c, 5, 11, 92
7, 89632, Control_c, 5, 11, 89
7, 89884, Note_on_c, 5, 55, 0
7, 93844, Control_c, 5, 11, 122
7, 93844, Note_on_c, 5, 52, 102
7, 93862, Control_c, 5, 11, 119
7, 93880, Control_c, 5, 11, 116
7, 93898, Control_c, 5, 11, 113
7, 93916, Control_c, 5, 11, 110
7, 93934, Control_c, 5, 11, 107
7, 93952, Control_c, 5, 11, 104
7, 94084, Note_on_c, 5, 52, 0
7, 94084, Control_c, 5, 11, 122
7, 94084, Note_on_c, 5, 48, 102
7, 94102, Control_c, 5, 11, 119
7, 94120, Control_c, 5, 11, 116
7, 94138, Control_c, 5, 11, 113
7, 94156, Control_c, 5, 11, 110
7, 94174, Control_c, 5, 11, 107
7, 94192, Control_c, 5, 11, 104
7, 94324, Note_on_c, 5, 48, 0
7, 94324, Note_on_c, 5, 62, 102
7, 94324, Control_c, 5, 11, 122
7, 94342, Control_c, 5, 11, 119
7, 94360, Control_c, 5, 11, 116
7, 94378, Control_c, 5, 11, 113
7, 94396, Control_c, 5, 11, 110
7, 94414, Control_c, 5, 11, 107
7, 94432, Control_c, 5, 11, 104
7, 94564, Note_on_c, 5, 62, 0
7, 94564, Note_on_c, 5, 43, 102
7, 94564, Control_c, 5, 11, 87
7, 94582, Control_c, 5, 11, 84
7, 94600, Control_c, 5, 11, 81
7, 94618, Control_c, 5, 11, 78
7, 94636, Control_c, 5, 11, 75
7, 94654, Control_c, 5, 11, 72
7, 94672, Control_c, 5, 11, 69
7, 94696, Control_c, 5, 11, 66
7, 94720, Control_c, 5, 11, 64
7, 94744, Control_c, 5, 11, 62
7, 94768, Control_c, 5, 11, 60
7, 94792, Control_c, 5, 11, 58
7, 94816, Control_c, 5, 11, 56
7, 94840, Control_c, 5, 11, 54
7, 94864, Control_c, 5, 11, 52
7, 94888, Control_c, 5, 11, 50
7, 94912, Control_c, 5, 11, 48
7, 95404, Note_on_c, 5, 43, 0
7, 95404, Note_on_c, 5, 62, 102
7, 95404, Control_c, 5, 11, 87
7, 95524, Note_on_c, 5, 62, 0
7, 95524, Control_c, 5, 11, 47
7, 95524, Note_on_c, 5, 43, 102
7, 96364, Note_on_c, 5, 43, 0
7, 96364, Control_c, 5, 11, 87
7, 96364, Note_on_c, 5, 62, 102
7, 96484, Note_on_c, 5, 62, 0
7, 96484, Control_c, 5, 11, 47
7, 96484, Note_on_c, 5, 43, 102
7, 96844, Note_on_c, 5, 43, 0
7, 96844, Control_c, 5, 11, 87
7, 96844, Note_on_c, 5, 62, 102
7, 96964, Note_on_c, 5, 62, 0
7, 96964, Control_c, 5, 11, 47
7, 96964, Note_on_c, 5, 43, 102
7, 97324, Note_on_c, 5, 43, 0
7, 97324, Note_on_c, 5, 62, 102
7, 97324, Control_c, 5, 11, 102
7, 97444, Note_on_c, 5, 62, 0
7, 97444, Note_on_c, 5, 55, 102
7, 97444, Control_c, 5, 11, 102
7, 97468, Control_c, 5, 11, 100
7, 97492, Control_c, 5, 11, 98
7, 97516, Control_c, 5, 11, 96
7, 97540, Control_c, 5, 11, 94
7, 97564, Control_c, 5, 11, 92
7, 97588, Control_c, 5, 11, 90
7, 97612, Control_c, 5, 11, 88
7, 97636, Control_c, 5, 11, 86
7, 97660, Control_c, 5, 11, 84
7, 97684, Note_on_c, 5, 55, 0
7, 97684, Control_c, 5, 11, 82
7, 97684, Note_on_c, 5, 55, 102
7, 97731, Control_c, 5, 11, 81
7, 97779, Control_c, 5, 11, 80
7, 97827, Control_c, 5, 11, 79
7, 97875, Control_c, 5, 11, 78
7, 97923, Control_c, 5, 11, 77
7, 97924, Note_on_c, 5, 55, 0
7, 97924, Note_on_c, 5, 55, 102
7, 97971, Control_c, 5, 11, 76
7, 98019, Control_c, 5, 11, 75
7, 98067, Control_c, 5, 11, 74
7, 98115, Control_c, 5, 11, 73
7, 98163, Control_c, 5, 11, 72
7, 98164, Note_on_c, 5, 55, 0
7, 98164, Note_on_c, 5, 55, 102
7, 98211, Control_c, 5, 11, 71
7, 98259, Control_c, 5, 11, 70
7, 98307, Control_c, 5, 11, 69
7, 98355, Control_c, 5, 11, 68
7, 98403, Control_c, 5, 11, 67
7, 98404, Note_on_c, 5, 55, 0
7, 98404, Note_on_c, 5, 55, 102
7, 98451, Control_c, 5, 11, 66
7, 98499, Control_c, 5, 11, 65
7, 98547, Control_c, 5, 11, 64
7, 98595, Control_c, 5, 11, 63
7, 98643, Control_c, 5, 11, 62
7, 98691, Control_c, 5, 11, 61
7, 98739, Control_c, 5, 11, 60
7, 98787, Control_c, 5, 11, 59
7, 98835, Control_c, 5, 11, 58
7, 98883, Control_c, 5, 11, 57
7, 98931, Control_c, 5, 11, 56
7, 98979, Control_c, 5, 11, 55
7, 99027, Control_c, 5, 11, 54
7, 99075, Control_c, 5, 11, 53
7, 99123, Control_c, 5, 11, 52
7, 99171, Control_c, 5, 11, 51
7, 99219, Control_c, 5, 11, 50
7, 99267, Control_c, 5, 11, 49
7, 99315, Control_c, 5, 11, 48
7, 99363, Control_c, 5, 11, 47
7, 99364, Note_on_c, 5, 55, 0
7, 99364, Control_c, 5, 11, 87
7, 99364, Note_on_c, 5, 52, 102
7, 99724, Note_on_c, 5, 52, 0
7, 101284, Note_on_c, 5, 62, 102
7, 101644, Note_on_c, 5, 62, 0
7, 103204, Note_on_c, 5, 55, 102
7, 103564, Note_on_c, 5, 55, 0
7, 104644, Control_c, 5, 11, 42
7, 104644, Note_on_c, 5, 55, 102
7, 104680, Control_c, 5, 11, 43
7, 104716, Control_c, 5, 11, 44
7, 104752, Control_c, 5, 11, 45
7, 104788, Control_c, 5, 11, 46
7, 104824, Control_c, 5, 11, 47
7, 104860, Control_c, 5, 11, 48
7, 104896, Control_c, 5, 11, 49
7, 104932, Control_c, 5, 11, 50
7, 104968, Control_c, 5, 11, 51
7, 105004, Control_c, 5, 11, 52
7, 105124, Note_on_c, 5, 55, 0
7, 105124, Note_on_c, 5, 48, 102
7, 105124, Control_c, 5, 11, 87
7, 105244, Note_on_c, 5, 48, 0
7, 106084, Control_c, 5, 11, 47
7, 106084, Note_on_c, 5, 48, 102
7, 106684, Note_on_c, 5, 48, 0
7, 106684, Note_on_c, 5, 48, 102
7, 106804, Note_on_c, 5, 48, 0
7, 106804, Note_on_c, 5, 48, 102
7, 106924, Note_on_c, 5, 48, 0
7, 106924, Note_on_c, 5, 48, 102
7, 107044, Note_on_c, 5, 48, 0
7, 107044, Control_c, 5, 11, 87
7, 107044, Note_on_c, 5, 48, 82
7, 107164, Note_on_c, 5, 48, 0
7, 108004, Note_on_c, 5, 65, 102
7, 108004, Control_c, 5, 11, 47
7, 108604, Note_on_c, 5, 65, 0
7, 108604, Note_on_c, 5, 65, 102
7, 108724, Note_on_c, 5, 65, 0
7, 108724, Note_on_c, 5, 65, 102
7, 108844, Note_on_c, 5, 65, 0
7, 108844, Note_on_c, 5, 65, 102
7, 108964, Note_on_c, 5, 65, 0
7, 108964, Note_on_c, 5, 65, 102
7, 109084, Note_on_c, 5, 65, 0
7, 123364, Note_on_c, 5, 52, 102
7, 123364, Control_c, 5, 11, 102
7, 124309, Note_on_c, 5, 52, 0
7, 124324, Control_c, 5, 11, 122
7, 124324, Note_on_c, 5, 52, 102
7, 124342, Control_c, 5, 11, 119
7, 124360, Control_c, 5, 11, 116
7, 124378, Control_c, 5, 11, 113
7, 124396, Control_c, 5, 11, 110
7, 124414, Control_c, 5, 11, 107
7, 124432, Control_c, 5, 11, 104
7, 125269, Note_on_c, 5, 52, 0
7, 125284, Control_c, 5, 11, 122
7, 125284, Note_on_c, 5, 52, 102
7, 125302, Control_c, 5, 11, 119
7, 125320, Control_c, 5, 11, 116
7, 125338, Control_c, 5, 11, 113
7, 125356, Control_c, 5, 11, 110
7, 125374, Control_c, 5, 11, 107
7, 125392, Control_c, 5, 11, 104
7, 126229, Note_on_c, 5, 52, 0
7, 126244, Note_on_c, 5, 52, 102
7, 126244, Control_c, 5, 11, 122
7, 126262, Control_c, 5, 11, 119
7, 126280, Control_c, 5, 11, 116
7, 126298, Control_c, 5, 11, 113
7, 126316, Control_c, 5, 11, 110
7, 126334, Control_c, 5, 11, 107
7, 126352, Control_c, 5, 11, 104
7, 127189, Note_on_c, 5, 52, 0
7, 127204, Note_on_c, 5, 52, 102
7, 127549, Note_on_c, 5, 52, 0
7, 127564, Note_on_c, 5, 52, 102
7, 127564, Control_c, 5, 11, 122
7, 127582, Control_c, 5, 11, 119
7, 127600, Control_c, 5, 11, 116
7, 127618, Control_c, 5, 11, 113
7, 127636, Control_c, 5, 11, 110
7, 127654, Control_c, 5, 11, 107
7, 127669, Note_on_c, 5, 52, 0
7, 127672, Control_c, 5, 11, 104
7, 127684, Note_on_c, 5, 52, 102
7, 128029, Note_on_c, 5, 52, 0
7, 128044, Note_on_c, 5, 52, 102
7, 128044, Control_c, 5, 11, 122
7, 128062, Control_c, 5, 11, 119
7, 128080, Control_c, 5, 11, 116
7, 128098, Control_c, 5, 11, 113
7, 128116, Control_c, 5, 11, 110
7, 128134, Control_c, 5, 11, 107
7, 128149, Note_on_c, 5, 52, 0
7, 128152, Control_c, 5, 11, 104
7, 128164, Note_on_c, 5, 52, 102
7, 128284, Note_on_c, 5, 52, 0
7, 128644, Note_on_c, 5, 52, 102
7, 128716, Note_on_c, 5, 52, 0
7, 128884, Note_on_c, 5, 52, 102
7, 128956, Note_on_c, 5, 52, 0
7, 129124, Note_on_c, 5, 52, 102
7, 129196, Note_on_c, 5, 52, 0
7, 132004, Control_c, 5, 11, 102
7, 132004, Note_on_c, 5, 48, 94
7, 132364, Note_on_c, 5, 48, 0
7, 132484, Note_on_c, 5, 48, 94
7, 132484, Control_c, 5, 11, 122
7, 132502, Control_c, 5, 11, 119
7, 132520, Control_c, 5, 11, 116
7, 132538, Control_c, 5, 11, 113
7, 132556, Control_c, 5, 11, 110
7, 132574, Control_c, 5, 11, 107
7, 132592, Control_c, 5, 11, 104
7, 132844, Note_on_c, 5, 48, 0
7, 132964, Note_on_c, 5, 48, 94
7, 133084, Note_on_c, 5, 48, 0
7, 133204, Note_on_c, 5, 48, 94
7, 133324, Note_on_c, 5, 48, 0
7, 133444, Note_on_c, 5, 48, 94
7, 133564, Note_on_c, 5, 48, 0
7, 134884, Note_on_c, 5, 62, 94
7, 135244, Note_on_c, 5, 62, 0
7, 135364, Control_c, 5, 11, 122
7, 135364, Note_on_c, 5, 62, 94
7, 135382, Control_c, 5, 11, 119
7, 135400, Control_c, 5, 11, 116
7, 135418, Control_c, 5, 11, 113
7, 135436, Control_c, 5, 11, 110
7, 135454, Control_c, 5, 11, 107
7, 135472, Control_c, 5, 11, 104
7, 135724, Note_on_c, 5, 62, 0
7, 135844, Note_on_c, 5, 62, 94
7, 135964, Note_on_c, 5, 62, 0
7, 136084, Note_on_c, 5, 62, 94
7, 136204, Note_on_c, 5, 62, 0
7, 136324, Note_on_c, 5, 62, 94
7, 136444, Note_on_c, 5, 62, 0
7, 137284, Note_on_c, 5, 48, 84
7, 137284, Control_c, 5, 11, 47
7, 137884, Note_on_c, 5, 48, 0
7, 138244, Control_c, 5, 11, 47
7, 138244, Note_on_c, 5, 62, 94
7, 138300, Control_c, 5, 11, 48
7, 138357, Control_c, 5, 11, 49
7, 138414, Control_c, 5, 11, 50
7, 138470, Control_c, 5, 11, 51
7, 138527, Control_c, 5, 11, 52
7, 138584, Control_c, 5, 11, 53
7, 138641, Control_c, 5, 11, 54
7, 138697, Control_c, 5, 11, 55
7, 138754, Control_c, 5, 11, 56
7, 138811, Control_c, 5, 11, 57
7, 138868, Control_c, 5, 11, 58
7, 138924, Control_c, 5, 11, 59
7, 138964, Note_on_c, 5, 62, 0
7, 138964, Note_on_c, 5, 52, 94
7, 138981, Control_c, 5, 11, 60
7, 139038, Control_c, 5, 11, 61
7, 139094, Control_c, 5, 11, 62
7, 139151, Control_c, 5, 11, 63
7, 139208, Control_c, 5, 11, 64
7, 139265, Control_c, 5, 11, 65
7, 139321, Control_c, 5, 11, 66
7, 139378, Control_c, 5, 11, 67
7, 139435, Control_c, 5, 11, 68
7, 139444, Note_on_c, 5, 52, 0
7, 139492, Control_c, 5, 11, 69
7, 139548, Control_c, 5, 11, 70
7, 139605, Control_c, 5, 11, 71
7, 139662, Control_c, 5, 11, 72
7, 139718, Control_c, 5, 11, 73
7, 139775, Control_c, 5, 11, 74
7, 139832, Control_c, 5, 11, 75
7, 139889, Control_c, 5, 11, 76
7, 139924, Note_on_c, 5, 55, 94
7, 139945, Control_c, 5, 11, 77
7, 140002, Control_c, 5, 11, 78
7, 140059, Control_c, 5, 11, 79
7, 140116, Control_c, 5, 11, 80
7, 140164, Note_on_c, 5, 55, 0
7, 140164, Note_on_c, 5, 48, 94
7, 140172, Control_c, 5, 11, 81
7, 140229, Control_c, 5, 11, 82
7, 140286, Control_c, 5, 11, 83
7, 140342, Control_c, 5, 11, 84
7, 140399, Control_c, 5, 11, 85
7, 140404, Note_on_c, 5, 48, 0
7, 140456, Control_c, 5, 11, 86
7, 140513, Control_c, 5, 11, 87
7, 140569, Control_c, 5, 11, 88
7, 140626, Control_c, 5, 11, 89
7, 140683, Control_c, 5, 11, 90
7, 140740, Control_c, 5, 11, 91
7, 140796, Control_c, 5, 11, 92
7, 140853, Control_c, 5, 11, 93
7, 140910, Control_c, 5, 11, 94
7, 140966, Control_c, 5, 11, 95
7, 141023, Control_c, 5, 11, 96
7, 141080, Control_c, 5, 11, 97
7, 141137, Control_c, 5, 11, 98
7, 141193, Control_c, 5, 11, 99
7, 141250, Control_c, 5, 11, 100
7, 141307, Control_c, 5, 11, 101
7, 141364, Control_c, 5, 11, 102
7, 141364, Note_on_c, 5, 62, 94
7, 141604, Note_on_c, 5, 62, 0
7, 141604, Note_on_c, 5, 55, 94
7, 142084, Note_on_c, 5, 55, 0
7, 142084, Note_on_c, 5, 60, 94
7, 142204, Note_on_c, 5, 60, 0
7, 142204, Note_on_c, 5, 55, 94
7, 142324, Note_on_c, 5, 55, 0
7, 142324, Note_on_c, 5, 55, 94
7, 142444, Note_on_c, 5, 55, 0
7, 142444, Note_on_c, 5, 55, 94
7, 142564, Note_on_c, 5, 55, 0
7, 142564, Note_on_c, 5, 55, 94
7, 142924, Note_on_c, 5, 55, 0
7, 142924, Note_on_c, 5, 55, 94
7, 143044, Note_on_c, 5, 55, 0
7, 143044, Note_on_c, 5, 60, 94
7, 143164, Note_on_c, 5, 60, 0
7, 143164, Note_on_c, 5, 55, 94
7, 143284, Note_on_c, 5, 55, 0
7, 143284, Note_on_c, 5, 55, 94
7, 143404, Note_on_c, 5, 55, 0
7, 143404, Note_on_c, 5, 55, 94
7, 143524, Note_on_c, 5, 55, 0
7, 143524, Note_on_c, 5, 55, 94
7, 143644, Note_on_c, 5, 55, 0
7, 144004, Note_on_c, 5, 55, 94
7, 144124, Note_on_c, 5, 55, 0
7, 144484, Note_on_c, 5, 55, 94
7, 144604, Note_on_c, 5, 55, 0
7, 147604, Note_on_c, 5, 55, 94
7, 147604, Control_c, 5, 11, 77
7, 147616, Control_c, 5, 11, 74
7, 147628, Control_c, 5, 11, 71
7, 147640, Control_c, 5, 11, 68
7, 147652, Control_c, 5, 11, 65
7, 147664, Control_c, 5, 11, 62
7, 147676, Control_c, 5, 11, 59
7, 147688, Control_c, 5, 11, 56
7, 147700, Control_c, 5, 11, 53
7, 147712, Control_c, 5, 11, 50
7, 147724, Note_on_c, 5, 55, 0
7, 147724, Note_on_c, 5, 60, 94
7, 147724, Control_c, 5, 11, 47
7, 147844, Note_on_c, 5, 60, 0
7, 148084, Control_c, 5, 11, 77
7, 148084, Note_on_c, 5, 55, 94
7, 148096, Control_c, 5, 11, 74
7, 148108, Control_c, 5, 11, 71
7, 148120, Control_c, 5, 11, 68
7, 148132, Control_c, 5, 11, 65
7, 148144, Control_c, 5, 11, 62
7, 148156, Control_c, 5, 11, 59
7, 148168, Control_c, 5, 11, 56
7, 148180, Control_c, 5, 11, 53
7, 148192, Control_c, 5, 11, 50
7, 148204, Note_on_c, 5, 55, 0
7, 148204, Note_on_c, 5, 60, 94
7, 148204, Control_c, 5, 11, 47
7, 148324, Note_on_c, 5, 60, 0
7, 148324, Note_on_c, 5, 62, 94
7, 148444, Note_on_c, 5, 62, 0
7, 148564, Note_on_c, 5, 62, 94
7, 148684, Note_on_c, 5, 62, 0
7, 148804, Note_on_c, 5, 55, 94
7, 148924, Note_on_c, 5, 55, 0
7, 150724, Note_on_c, 5, 48, 94
7, 150724, Control_c, 5, 11, 47
7, 151324, Note_on_c, 5, 48, 0
7, 152644, Note_on_c, 5, 60, 94
7, 152884, Note_on_c, 5, 60, 0
7, 152884, Note_on_c, 5, 55, 94
7, 153104, Note_on_c, 5, 55, 0
7, 153124, Note_on_c, 5, 55, 94
7, 153124, Control_c, 5, 11, 87
7, 153244, Note_on_c, 5, 55, 0
7, 153364, Note_on_c, 5, 55, 94
7, 153484, Note_on_c, 5, 55, 0
7, 153604, Note_on_c, 5, 55, 94
7, 153724, Note_on_c, 5, 55, 0
7, 154084, Note_on_c, 5, 55, 94
7, 154084, Control_c, 5, 11, 107
7, 154102, Control_c, 5, 11, 105
7, 154120, Control_c, 5, 11, 103
7, 154138, Control_c, 5, 11, 101
7, 154156, Control_c, 5, 11, 99
7, 154174, Control_c, 5, 11, 97
7, 154192, Control_c, 5, 11, 95
7, 154210, Control_c, 5, 11, 93
7, 154228, Control_c, 5, 11, 91
7, 154246, Control_c, 5, 11, 89
7, 154264, Control_c, 5, 11, 87
7, 154324, Note_on_c, 5, 55, 0
7, 154324, Note_on_c, 5, 55, 94
7, 154324, Control_c, 5, 11, 107
7, 154342, Control_c, 5, 11, 105
7, 154360, Control_c, 5, 11, 103
7, 154378, Control_c, 5, 11, 101
7, 154396, Control_c, 5, 11, 99
7, 154414, Control_c, 5, 11, 97
7, 154432, Control_c, 5, 11, 95
7, 154450, Control_c, 5, 11, 93
7, 154468, Control_c, 5, 11, 91
7, 154486, Control_c, 5, 11, 89
7, 154504, Control_c, 5, 11, 87
7, 154564, Note_on_c, 5, 55, 0
7, 154564, Control_c, 5, 11, 107
7, 154564, Note_on_c, 5, 55, 94
7, 154582, Control_c, 5, 11, 104
7, 154600, Control_c, 5, 11, 101
7, 154618, Control_c, 5, 11, 98
7, 154636, Control_c, 5, 11, 95
7, 154654, Control_c, 5, 11, 92
7, 154672, Control_c, 5, 11, 89
7, 154684, Note_on_c, 5, 55, 0
7, 156124, Note_on_c, 5, 55, 94
7, 156124, Control_c, 5, 11, 82
7, 156142, Control_c, 5, 11, 83
7, 156160, Control_c, 5, 11, 84
7, 156178, Control_c, 5, 11, 85
7, 156196, Control_c, 5, 11, 86
7, 156214, Control_c, 5, 11, 87
7, 156232, Control_c, 5, 11, 88
7, 156244, Note_on_c, 5, 55, 0
7, 156244, Note_on_c, 5, 55, 94
7, 156250, Control_c, 5, 11, 89
7, 156268, Control_c, 5, 11, 90
7, 156286, Control_c, 5, 11, 91
7, 156304, Control_c, 5, 11, 92
7, 156322, Control_c, 5, 11, 93
7, 156340, Control_c, 5, 11, 94
7, 156358, Control_c, 5, 11, 95
7, 156364, Note_on_c, 5, 55, 0
7, 156364, Note_on_c, 5, 55, 94
7, 156376, Control_c, 5, 11, 96
7, 156394, Control_c, 5, 11, 97
7, 156412, Control_c, 5, 11, 98
7, 156430, Control_c, 5, 11, 99
7, 156448, Control_c, 5, 11, 100
7, 156466, Control_c, 5, 11, 101
7, 156484, Note_on_c, 5, 55, 0
7, 156484, Control_c, 5, 11, 102
7, 156484, Note_on_c, 5, 55, 94
7, 156604, Note_on_c, 5, 55, 0
7, 156604, Note_on_c, 5, 48, 94
7, 156724, Note_on_c, 5, 48, 0
7, 156724, Note_on_c, 5, 48, 94
7, 156844, Note_on_c, 5, 48, 0
7, 156844, Note_on_c, 5, 55, 94
7, 156964, Note_on_c, 5, 55, 0
7, 156964, Note_on_c, 5, 48, 60
7, 156994, Control_c, 5, 11, 87
7, 157001, Control_c, 5, 11, 84
7, 157009, Control_c, 5, 11, 81
7, 157017, Control_c, 5, 11, 78
7, 157024, Control_c, 5, 11, 75
7, 157032, Control_c, 5, 11, 72
7, 157040, Control_c, 5, 11, 69
7, 157048, Control_c, 5, 11, 66
7, 157055, Control_c, 5, 11, 63
7, 157063, Control_c, 5, 11, 60
7, 157071, Control_c, 5, 11, 57
7, 157078, Control_c, 5, 11, 54
7, 157084, Note_on_c, 5, 48, 0
7, 161284, Control_c, 5, 11, 47
7, 161284, Note_on_c, 5, 60, 94
7, 161308, Control_c, 5, 11, 48
7, 161332, Control_c, 5, 11, 49
7, 161356, Control_c, 5, 11, 50
7, 161380, Control_c, 5, 11, 51
7, 161404, Control_c, 5, 11, 52
7, 161428, Control_c, 5, 11, 53
7, 161452, Control_c, 5, 11, 54
7, 161476, Control_c, 5, 11, 55
7, 161500, Control_c, 5, 11, 56
7, 161524, Control_c, 5, 11, 57
7, 161548, Control_c, 5, 11, 58
7, 161572, Control_c, 5, 11, 59
7, 161596, Control_c, 5, 11, 60
7, 161620, Control_c, 5, 11, 61
7, 161644, Control_c, 5, 11, 62
7, 161668, Control_c, 5, 11, 63
7, 161692, Control_c, 5, 11, 64
7, 161716, Control_c, 5, 11, 65
7, 161740, Control_c, 5, 11, 66
7, 161764, Control_c, 5, 11, 67
7, 161788, Control_c, 5, 11, 68
7, 161812, Control_c, 5, 11, 69
7, 161836, Control_c, 5, 11, 70
7, 161860, Control_c, 5, 11, 71
7, 161884, Control_c, 5, 11, 72
7, 161908, Control_c, 5, 11, 73
7, 161932, Control_c, 5, 11, 74
7, 161956, Control_c, 5, 11, 75
7, 161980, Control_c, 5, 11, 76
7, 162004, Note_on_c, 5, 60, 0
7, 162004, Control_c, 5, 11, 77
7, 162004, Note_on_c, 5, 55, 94
7, 162028, Control_c, 5, 11, 78
7, 162052, Control_c, 5, 11, 79
7, 162076, Control_c, 5, 11, 80
7, 162100, Control_c, 5, 11, 81
7, 162124, Control_c, 5, 11, 82
7, 162148, Control_c, 5, 11, 83
7, 162172, Control_c, 5, 11, 84
7, 162196, Control_c, 5, 11, 85
7, 162220, Control_c, 5, 11, 86
7, 162244, Note_on_c, 5, 55, 0
7, 162244, Note_on_c, 5, 52, 94
7, 162244, Control_c, 5, 11, 87
7, 162484, Note_on_c, 5, 52, 0
7, 162484, Note_on_c, 5, 48, 94
7, 162484, Control_c, 5, 11, 107
7, 162502, Control_c, 5, 11, 104
7, 162520, Control_c, 5, 11, 101
7, 162538, Control_c, 5, 11, 98
7, 162556, Control_c, 5, 11, 95
7, 162574, Control_c, 5, 11, 92
7, 162592, Control_c, 5, 11, 89
7, 162844, Note_on_c, 5, 48, 0
7, 162964, Note_on_c, 5, 48, 94
7, 162964, Control_c, 5, 11, 107
7, 162982, Control_c, 5, 11, 104
7, 163000, Control_c, 5, 11, 101
7, 163018, Control_c, 5, 11, 98
7, 163036, Control_c, 5, 11, 95
7, 163054, Control_c, 5, 11, 92
7, 163072, Control_c, 5, 11, 89
7, 163324, Note_on_c, 5, 48, 0
7, 163444, Control_c, 5, 11, 107
7, 163444, Note_on_c, 5, 55, 94
7, 163462, Control_c, 5, 11, 104
7, 163480, Control_c, 5, 11, 101
7, 163498, Control_c, 5, 11, 98
7, 163516, Control_c, 5, 11, 95
7, 163534, Control_c, 5, 11, 92
7, 163552, Control_c, 5, 11, 89
7, 163564, Note_on_c, 5, 55, 0
7, 163684, Control_c, 5, 11, 107
7, 163684, Note_on_c, 5, 55, 94
7, 163702, Control_c, 5, 11, 104
7, 163720, Control_c, 5, 11, 101
7, 163738, Control_c, 5, 11, 98
7, 163756, Control_c, 5, 11, 95
7, 163774, Control_c, 5, 11, 92
7, 163792, Control_c, 5, 11, 89
7, 163804, Note_on_c, 5, 55, 0
7, 163924, Control_c, 5, 11, 107
7, 163924, Note_on_c, 5, 48, 94
7, 163942, Control_c, 5, 11, 104
7, 163960, Control_c, 5, 11, 101
7, 163978, Control_c, 5, 11, 98
7, 163996, Control_c, 5, 11, 95
7, 164014, Control_c, 5, 11, 92
7, 164032, Control_c, 5, 11, 89
7, 164044, Note_on_c, 5, 48, 0
7, 164164, Note_on_c, 5, 48, 94
7, 164284, Note_on_c, 5, 48, 0
7, 166684, Control_c, 5, 11, 102
7, 166684, Note_on_c, 5, 48, 94
7, 166804, Note_on_c, 5, 48, 0
7, 166804, Note_on_c, 5, 48, 94
7, 166924, Note_on_c, 5, 48, 0
7, 166924, Note_on_c, 5, 48, 94
7, 167044, Note_on_c, 5, 48, 0
7, 167044, Note_on_c, 5, 48, 94
7, 167284, Note_on_c, 5, 48, 0
7, 167764, Note_on_c, 5, 55, 94
7, 167764, Control_c, 5, 11, 122
7, 167782, Control_c, 5, 11, 119
7, 167800, Control_c, 5, 11, 116
7, 167818, Control_c, 5, 11, 113
7, 167836, Control_c, 5, 11, 110
7, 167854, Control_c, 5, 11, 107
7, 167872, Control_c, 5, 11, 104
7, 168004, Note_on_c, 5, 55, 0
7, 168004, Note_on_c, 5, 48, 94
7, 168004, Control_c, 5, 11, 87
7, 168022, Control_c, 5, 11, 84
7, 168040, Control_c, 5, 11, 81
7, 168058, Control_c, 5, 11, 78
7, 168076, Control_c, 5, 11, 75
7, 168094, Control_c, 5, 11, 72
7, 168112, Control_c, 5, 11, 69
7, 168130, Control_c, 5, 11, 66
7, 168148, Control_c, 5, 11, 63
7, 168166, Control_c, 5, 11, 60
7, 168184, Control_c, 5, 11, 57
7, 168202, Control_c, 5, 11, 54
7, 168220, Control_c, 5, 11, 51
7, 168238, Control_c, 5, 11, 48
7, 168844, Note_on_c, 5, 48, 0
7, 168844, Control_c, 5, 11, 87
7, 168844, Note_on_c, 5, 55, 94
7, 168853, Control_c, 5, 11, 84
7, 168862, Control_c, 5, 11, 81
7, 168871, Control_c, 5, 11, 78
7, 168880, Control_c, 5, 11, 75
7, 168889, Control_c, 5, 11, 72
7, 168898, Control_c, 5, 11, 69
7, 168907, Control_c, 5, 11, 66
7, 168916, Control_c, 5, 11, 63
7, 168925, Control_c, 5, 11, 60
7, 168934, Control_c, 5, 11, 57
7, 168943, Control_c, 5, 11, 54
7, 168952, Control_c, 5, 11, 51
7, 168961, Control_c, 5, 11, 48
7, 168964, Note_on_c, 5, 55, 0
7, 168964, Note_on_c, 5, 48, 94
7, 169804, Note_on_c, 5, 48, 0
7, 169804, Note_on_c, 5, 55, 94
7, 169804, Control_c, 5, 11, 87
7, 169813, Control_c, 5, 11, 84
7, 169822, Control_c, 5, 11, 81
7, 169831, Control_c, 5, 11, 78
7, 169840, Control_c, 5, 11, 75
7, 169849, Control_c, 5, 11, 72
7, 169858, Control_c, 5, 11, 69
7, 169867, Control_c, 5, 11, 66
7, 169876, Control_c, 5, 11, 63
7, 169885, Control_c, 5, 11, 60
7, 169894, Control_c, 5, 11, 57
7, 169903, Control_c, 5, 11, 54
7, 169912, Control_c, 5, 11, 51
7, 169921, Control_c, 5, 11, 48
7, 169924, Note_on_c, 5, 55, 0
7, 169924, Note_on_c, 5, 48, 94
7, 170284, Note_on_c, 5, 48, 0
7, 170284, Control_c, 5, 11, 87
7, 170284, Note_on_c, 5, 55, 94
7, 170293, Control_c, 5, 11, 84
7, 170302, Control_c, 5, 11, 81
7, 170311, Control_c, 5, 11, 78
7, 170320, Control_c, 5, 11, 75
7, 170329, Control_c, 5, 11, 72
7, 170338, Control_c, 5, 11, 69
7, 170347, Control_c, 5, 11, 66
7, 170356, Control_c, 5, 11, 63
7, 170365, Control_c, 5, 11, 60
7, 170374, Control_c, 5, 11, 57
7, 170383, Control_c, 5, 11, 54
7, 170392, Control_c, 5, 11, 51
7, 170401, Control_c, 5, 11, 48
7, 170404, Note_on_c, 5, 55, 0
7, 170404, Note_on_c, 5, 48, 94
7, 170764, Note_on_c, 5, 48, 0
7, 170764, Note_on_c, 5, 55, 94
7, 170764, Control_c, 5, 11, 102
7, 170884, Note_on_c, 5, 55, 0
7, 170884, Note_on_c, 5, 48, 94
7, 171004, Note_on_c, 5, 48, 0
7, 171844, Control_c, 5, 11, 47
7, 171844, Note_on_c, 5, 48, 94
7, 172564, Note_on_c, 5, 48, 0
7, 172564, Note_on_c, 5, 48, 94
7, 172804, Note_on_c, 5, 48, 0
7, 172804, Note_on_c, 5, 48, 94
7, 172924, Note_on_c, 5, 48, 0
7, 176164, Control_c, 5, 11, 47
7, 176164, Note_on_c, 5, 55, 94
7, 176181, Control_c, 5, 11, 49
7, 176198, Control_c, 5, 11, 51
7, 176216, Control_c, 5, 11, 53
7, 176233, Control_c, 5, 11, 55
7, 176251, Control_c, 5, 11, 57
7, 176268, Control_c, 5, 11, 59
7, 176286, Control_c, 5, 11, 61
7, 176303, Control_c, 5, 11, 63
7, 176321, Control_c, 5, 11, 65
7, 176338, Control_c, 5, 11, 67
7, 176356, Control_c, 5, 11, 69
7, 176373, Control_c, 5, 11, 71
7, 176390, Control_c, 5, 11, 73
7, 176408, Control_c, 5, 11, 75
7, 176425, Control_c, 5, 11, 77
7, 176443, Control_c, 5, 11, 79
7, 176460, Control_c, 5, 11, 81
7, 176478, Control_c, 5, 11, 83
7, 176495, Control_c, 5, 11, 85
7, 176513, Control_c, 5, 11, 87
7, 176530, Control_c, 5, 11, 89
7, 176548, Control_c, 5, 11, 91
7, 176565, Control_c, 5, 11, 93
7, 176582, Control_c, 5, 11, 95
7, 176600, Control_c, 5, 11, 97
7, 176617, Control_c, 5, 11, 99
7, 176635, Control_c, 5, 11, 101
7, 176764, Note_on_c, 5, 55, 0
7, 176884, Note_on_c, 5, 48, 94
7, 176944, Note_on_c, 5, 48, 0
7, 177124, Note_on_c, 5, 48, 94
7, 177184, Note_on_c, 5, 48, 0
7, 177364, Note_on_c, 5, 62, 94
7, 177424, Note_on_c, 5, 62, 0
7, 177604, Note_on_c, 5, 60, 94
7, 177664, Note_on_c, 5, 60, 0
7, 177844, Note_on_c, 5, 48, 94
7, 177904, Note_on_c, 5, 48, 0
7, 178084, Note_on_c, 5, 48, 94
7, 178144, Note_on_c, 5, 48, 0
7, 178324, Note_on_c, 5, 62, 94
7, 178384, Note_on_c, 5, 62, 0
7, 178564, Note_on_c, 5, 60, 94
7, 178624, Note_on_c, 5, 60, 0
7, 178804, Note_on_c, 5, 48, 94
7, 178864, Note_on_c, 5, 48, 0
7, 179044, Note_on_c, 5, 48, 94
7, 179104, Note_on_c, 5, 48, 0
7, 179284, Note_on_c, 5, 55, 94
7, 179344, Note_on_c, 5, 55, 0
7, 179524, Note_on_c, 5, 52, 84
7, 180604, Note_on_c, 5, 52, 0
7, 180604, Control_c, 5, 91, 115
7, 180604, Note_on_c, 5, 48, 121
7, 180664, Note_on_c, 5, 48, 0
7, 180724, Note_on_c, 5, 52, 121
7, 180784, Note_on_c, 5, 52, 0
7, 180844, Note_on_c, 5, 55, 121
7, 180904, Note_on_c, 5, 55, 0
7, 180964, Note_on_c, 5, 60, 121
7, 181084, Note_on_c, 5, 60, 0
7, 181444, Note_on_c, 5, 52, 84
7, 181444, Control_c, 5, 11, 122
7, 181462, Control_c, 5, 11, 119
7, 181480, Control_c, 5, 11, 116
7, 181498, Control_c, 5, 11, 113
7, 181516, Control_c, 5, 11, 110
7, 181534, Control_c, 5, 11, 107
7, 181552, Control_c, 5, 11, 104
7, 182524, Note_on_c, 5, 52, 0
7, 182524, Control_c, 5, 11, 87
7, 182524, Note_on_c, 5, 48, 121
7, 182542, Control_c, 5, 11, 88
7, 182560, Control_c, 5, 11, 89
7, 182578, Control_c, 5, 11, 90
7, 182584, Note_on_c, 5, 48, 0
7, 182596, Control_c, 5, 11, 91
7, 182614, Control_c, 5, 11, 92
7, 182632, Control_c, 5, 11, 93
7, 182644, Note_on_c, 5, 52, 121
7, 182650, Control_c, 5, 11, 94
7, 182668, Control_c, 5, 11, 95
7, 182686, Control_c, 5, 11, 96
7, 182704, Note_on_c, 5, 52, 0
7, 182704, Control_c, 5, 11, 97
7, 182722, Control_c, 5, 11, 98
7, 182740, Control_c, 5, 11, 99
7, 182758, Control_c, 5, 11, 100
7, 182764, Note_on_c, 5, 55, 121
7, 182776, Control_c, 5, 11, 101
7, 182794, Control_c, 5, 11, 102
7, 182812, Control_c, 5, 11, 103
7, 182824, Note_on_c, 5, 55, 0
7, 182830, Control_c, 5, 11, 104
7, 182848, Control_c, 5, 11, 105
7, 182866, Control_c, 5, 11, 106
7, 182884, Control_c, 5, 11, 107
7, 182884, Note_on_c, 5, 60, 121
7, 183004, Note_on_c, 5, 60, 0
7, 183364, Note_on_c, 5, 52, 84
7, 183364, Control_c, 5, 11, 122
7, 183382, Control_c, 5, 11, 119
7, 183400, Control_c, 5, 11, 116
7, 183418, Control_c, 5, 11, 113
7, 183436, Control_c, 5, 11, 110
7, 183454, Control_c, 5, 11, 107
7, 183472, Control_c, 5, 11, 104
7, 184924, Note_on_c, 5, 52, 0
7, 184924, Control_c, 5, 11, 87
7, 184924, Note_on_c, 5, 43, 107
7, 184942, Control_c, 5, 11, 88
7, 184960, Control_c, 5, 11, 89
7, 184978, Control_c, 5, 11, 90
7, 184984, Note_on_c, 5, 43, 0
7, 184996, Control_c, 5, 11, 91
7, 185014, Control_c, 5, 11, 92
7, 185032, Control_c, 5, 11, 93
7, 185044, Note_on_c, 5, 48, 107
7, 185050, Control_c, 5, 11, 94
7, 185068, Control_c, 5, 11, 95
7, 185086, Control_c, 5, 11, 96
7, 185104, Note_on_c, 5, 48, 0
7, 185104, Control_c, 5, 11, 97
7, 185122, Control_c, 5, 11, 98
7, 185140, Control_c, 5, 11, 99
7, 185158, Control_c, 5, 11, 100
7, 185164, Note_on_c, 5, 52, 107
7, 185176, Control_c, 5, 11, 101
7, 185194, Control_c, 5, 11, 102
7, 185212, Control_c, 5, 11, 103
7, 185224, Note_on_c, 5, 52, 0
7, 185230, Control_c, 5, 11, 104
7, 185248, Control_c, 5, 11, 105
7, 185266, Control_c, 5, 11, 106
7, 185284, Control_c, 5, 11, 107
7, 185284, Note_on_c, 5, 55, 107
7, 185764, Note_on_c, 5, 55, 0
7, 185764, Note_on_c, 5, 52, 94
7, 186244, Note_on_c, 5, 52, 0
7, 186244, Note_on_c, 5, 48, 94
7, 186604, Note_on_c, 5, 48, 0
7, 186604, Note_on_c, 5, 60, 112
7, 186604, Control_c, 5, 91, 80
7, 186664, Note_on_c, 5, 60, 0
7, 186724, Note_on_c, 5, 55, 112
7, 186784, Note_on_c, 5, 55, 0
7, 186844, Note_on_c, 5, 60, 112
7, 186904, Note_on_c, 5, 60, 0
7, 186964, Note_on_c, 5, 55, 112
7, 187024, Note_on_c, 5, 55, 0
7, 187084, Note_on_c, 5, 52, 112
7, 187144, Note_on_c, 5, 52, 0
7, 187204, Note_on_c, 5, 48, 127
7, 187324, Note_on_c, 5, 48, 0
7, 187684, Note_on_c, 5, 60, 94
7, 187804, Note_on_c, 5, 60, 0
7, 188164, Note_on_c, 5, 48, 94
7, 188284, Note_on_c, 5, 48, 0
7, 188644, Note_on_c, 5, 52, 94
7, 188764, Note_on_c, 5, 52, 0
7, 188884, Note_on_c, 5, 52, 94
7, 189004, Note_on_c, 5, 52, 0
7, 189124, Note_on_c, 5, 52, 94
7, 189244, Note_on_c, 5, 52, 0
7, 189604, Control_c, 5, 121, 0
7, 189604, End_track
8, 0, Start_track
8, 0, MIDI_port, 0
8, 0, Title_t, "2 Trombe in C"
8, 0, Program_c, 6, 56
8, 0, Control_c, 6, 10, 77
8, 2, Control_c, 6, 121, 0
8, 7, Program_c, 6, 56
8, 12, Pitch_bend_c, 6, 8192
8, 17, Control_c, 6, 11, 87
8, 22, Control_c, 6, 7, 127
8, 27, Control_c, 6, 91, 80
8, 32, Control_c, 6, 93, 0
8, 37, Control_c, 6, 10, 77
8, 1922, Note_on_c, 6, 55, 104
8, 1922, Note_on_c, 6, 67, 104
8, 2042, Note_on_c, 6, 67, 0
8, 2042, Note_on_c, 6, 55, 0
8, 3842, Control_c, 6, 11, 77
8, 3851, Control_c, 6, 11, 80
8, 3860, Control_c, 6, 11, 83
8, 3869, Control_c, 6, 11, 86
8, 3962, Control_c, 6, 11, 87
8, 3962, Note_on_c, 6, 60, 104
8, 3962, Note_on_c, 6, 72, 104
8, 4062, Control_c, 6, 11, 87
8, 4064, Control_c, 6, 11, 83
8, 4066, Control_c, 6, 11, 79
8, 4068, Control_c, 6, 11, 76
8, 4070, Control_c, 6, 11, 72
8, 4072, Control_c, 6, 11, 69
8, 4074, Control_c, 6, 11, 65
8, 4076, Note_on_c, 6, 72, 0
8, 4076, Note_on_c, 6, 60, 0
8, 4076, Control_c, 6, 11, 62
8, 4202, Control_c, 6, 11, 87
8, 4202, Note_on_c, 6, 72, 104
8, 4202, Note_on_c, 6, 60, 104
8, 4302, Control_c, 6, 11, 87
8, 4304, Control_c, 6, 11, 83
8, 4306, Control_c, 6, 11, 79
8, 4308, Control_c, 6, 11, 76
8, 4310, Control_c, 6, 11, 72
8, 4312, Control_c, 6, 11, 69
8, 4314, Control_c, 6, 11, 65
8, 4316, Note_on_c, 6, 60, 0
8, 4316, Note_on_c, 6, 72, 0
8, 4316, Control_c, 6, 11, 62
8, 4322, Control_c, 6, 11, 32
8, 4322, Note_on_c, 6, 55, 104
8, 4322, Note_on_c, 6, 67, 104
8, 4328, Control_c, 6, 11, 35
8, 4334, Control_c, 6, 11, 38
8, 4340, Control_c, 6, 11, 41
8, 4346, Control_c, 6, 11, 44
8, 4352, Control_c, 6, 11, 47
8, 4562, Note_on_c, 6, 67, 0
8, 4562, Note_on_c, 6, 55, 0
8, 4802, Control_c, 6, 11, 77
8, 4811, Control_c, 6, 11, 80
8, 4820, Control_c, 6, 11, 83
8, 4829, Control_c, 6, 11, 86
8, 4922, Control_c, 6, 11, 87
8, 4922, Note_on_c, 6, 72, 104
8, 4922, Note_on_c, 6, 60, 104
8, 5017, Control_c, 6, 11, 87
8, 5019, Control_c, 6, 11, 83
8, 5021, Control_c, 6, 11, 79
8, 5023, Control_c, 6, 11, 76
8, 5025, Control_c, 6, 11, 72
8, 5027, Control_c, 6, 11, 69
8, 5029, Control_c, 6, 11, 65
8, 5031, Control_c, 6, 11, 62
8, 5036, Note_on_c, 6, 60, 0
8, 5036, Note_on_c, 6, 72, 0
8, 5162, Note_on_c, 6, 60, 104
8, 5162, Note_on_c, 6, 72, 104
8, 5162, Control_c, 6, 11, 87
8, 5257, Control_c, 6, 11, 87
8, 5259, Control_c, 6, 11, 83
8, 5261, Control_c, 6, 11, 79
8, 5263, Control_c, 6, 11, 76
8, 5265, Control_c, 6, 11, 72
8, 5267, Control_c, 6, 11, 69
8, 5269, Control_c, 6, 11, 65
8, 5271, Control_c, 6, 11, 62
8, 5276, Note_on_c, 6, 72, 0
8, 5276, Note_on_c, 6, 60, 0
8, 5282, Control_c, 6, 11, 87
8, 5282, Note_on_c, 6, 55, 104
8, 5282, Note_on_c, 6, 67, 104
8, 5342, Control_c, 6, 11, 87
8, 5355, Control_c, 6, 11, 84
8, 5369, Control_c, 6, 11, 81
8, 5382, Control_c, 6, 11, 78
8, 5396, Control_c, 6, 11, 75
8, 5409, Control_c, 6, 11, 72
8, 5423, Control_c, 6, 11, 69
8, 5436, Control_c, 6, 11, 66
8, 5450, Control_c, 6, 11, 63
8, 5463, Control_c, 6, 11, 60
8, 5477, Control_c, 6, 11, 57
8, 5490, Control_c, 6, 11, 54
8, 5504, Control_c, 6, 11, 51
8, 5517, Control_c, 6, 11, 48
8, 5522, Note_on_c, 6, 67, 0
8, 5522, Note_on_c, 6, 55, 0
8, 13922, Note_on_c, 6, 74, 94
8, 13922, Note_on_c, 6, 67, 94
8, 13922, Control_c, 6, 11, 97
8, 13940, Control_c, 6, 11, 94
8, 13958, Control_c, 6, 11, 91
8, 13976, Control_c, 6, 11, 88
8, 13994, Control_c, 6, 11, 85
8, 14012, Control_c, 6, 11, 82
8, 14030, Control_c, 6, 11, 79
8, 14402, Control_c, 6, 11, 77
8, 14421, Control_c, 6, 11, 78
8, 14440, Control_c, 6, 11, 79
8, 14459, Control_c, 6, 11, 80
8, 14478, Control_c, 6, 11, 81
8, 14497, Control_c, 6, 11, 82
8, 14512, Note_on_c, 6, 67, 0
8, 14512, Note_on_c, 6, 74, 0
8, 14516, Control_c, 6, 11, 83
8, 14522, Note_on_c, 6, 74, 94
8, 14522, Note_on_c, 6, 67, 94
8, 14536, Control_c, 6, 11, 84
8, 14555, Control_c, 6, 11, 85
8, 14574, Control_c, 6, 11, 86
8, 14593, Control_c, 6, 11, 87
8, 14612, Control_c, 6, 11, 88
8, 14631, Control_c, 6, 11, 89
8, 14632, Note_on_c, 6, 67, 0
8, 14632, Note_on_c, 6, 74, 0
8, 14642, Note_on_c, 6, 67, 94
8, 14642, Note_on_c, 6, 74, 94
8, 14651, Control_c, 6, 11, 90
8, 14670, Control_c, 6, 11, 91
8, 14689, Control_c, 6, 11, 92
8, 14708, Control_c, 6, 11, 93
8, 14727, Control_c, 6, 11, 94
8, 14746, Control_c, 6, 11, 95
8, 14752, Note_on_c, 6, 74, 0
8, 14752, Note_on_c, 6, 67, 0
8, 14762, Note_on_c, 6, 67, 94
8, 14762, Note_on_c, 6, 74, 94
8, 14766, Control_c, 6, 11, 96
8, 14785, Control_c, 6, 11, 97
8, 14804, Control_c, 6, 11, 98
8, 14823, Control_c, 6, 11, 99
8, 14842, Control_c, 6, 11, 100
8, 14861, Control_c, 6, 11, 101
8, 14872, Note_on_c, 6, 74, 0
8, 14872, Note_on_c, 6, 67, 0
8, 14881, Control_c, 6, 11, 102
8, 14882, Note_on_c, 6, 72, 104
8, 14882, Note_on_c, 6, 76, 104
8, 14942, Note_on_c, 6, 76, 0
8, 14942, Note_on_c, 6, 72, 0
8, 15122, Note_on_c, 6, 60, 94
8, 15122, Note_on_c, 6, 72, 94
8, 15182, Note_on_c, 6, 72, 0
8, 15182, Note_on_c, 6, 60, 0
8, 15362, Note_on_c, 6, 72, 94
8, 15362, Note_on_c, 6, 60, 94
8, 15422, Note_on_c, 6, 60, 0
8, 15422, Note_on_c, 6, 72, 0
8, 15602, Note_on_c, 6, 55, 94
8, 15602, Note_on_c, 6, 67, 94
8, 15662, Note_on_c, 6, 67, 0
8, 15662, Note_on_c, 6, 55, 0
8, 15842, Note_on_c, 6, 60, 94
8, 15842, Note_on_c, 6, 72, 94
8, 15902, Note_on_c, 6, 72, 0
8, 15902, Note_on_c, 6, 60, 0
8, 17402, Note_on_c, 6, 74, 89
8, 17402, Note_on_c, 6, 67, 89
8, 17522, Note_on_c, 6, 67, 0
8, 17522, Note_on_c, 6, 74, 0
8, 17522, Note_on_c, 6, 67, 89
8, 17522, Note_on_c, 6, 74, 89
8, 17642, Note_on_c, 6, 74, 0
8, 17642, Note_on_c, 6, 67, 0
8, 17642, Note_on_c, 6, 74, 89
8, 17642, Note_on_c, 6, 67, 89
8, 17762, Note_on_c, 6, 67, 0
8, 17762, Note_on_c, 6, 74, 0
8, 17762, Note_on_c, 6, 64, 89
8, 17762, Note_on_c, 6, 72, 89
8, 17882, Note_on_c, 6, 72, 0
8, 17882, Note_on_c, 6, 64, 0
8, 19322, Note_on_c, 6, 67, 89
8, 19322, Note_on_c, 6, 74, 89
8, 19442, Note_on_c, 6, 74, 0
8, 19442, Note_on_c, 6, 67, 0
8, 19442, Note_on_c, 6, 74, 89
8, 19442, Note_on_c, 6, 67, 89
8, 19562, Note_on_c, 6, 67, 0
8, 19562, Note_on_c, 6, 74, 0
8, 19562, Note_on_c, 6, 74, 89
8, 19562, Note_on_c, 6, 67, 89
8, 19682, Note_on_c, 6, 67, 0
8, 19682, Note_on_c, 6, 74, 0
8, 19682, Note_on_c, 6, 72, 89
8, 19682, Note_on_c, 6, 64, 89
8, 19802, Note_on_c, 6, 64, 0
8, 19802, Note_on_c, 6, 72, 0
8, 22082, Note_on_c, 6, 55, 104
8, 22082, Note_on_c, 6, 67, 104
8, 22202, Note_on_c, 6, 67, 0
8, 22202, Note_on_c, 6, 55, 0
8, 22322, Note_on_c, 6, 67, 104
8, 22322, Note_on_c, 6, 55, 104
8, 22442, Note_on_c, 6, 55, 0
8, 22442, Note_on_c, 6, 67, 0
8, 22562, Note_on_c, 6, 55, 104
8, 22562, Note_on_c, 6, 67, 104
8, 22682, Note_on_c, 6, 67, 0
8, 22682, Note_on_c, 6, 55, 0
8, 23042, Note_on_c, 6, 67, 104
8, 23042, Note_on_c, 6, 55, 104
8, 23162, Note_on_c, 6, 55, 0
8, 23162, Note_on_c, 6, 67, 0
8, 23522, Note_on_c, 6, 67, 104
8, 23522, Note_on_c, 6, 55, 104
8, 23642, Note_on_c, 6, 55, 0
8, 23642, Note_on_c, 6, 67, 0
8, 23642, Note_on_c, 6, 67, 104
8, 23642, Note_on_c, 6, 74, 104
8, 23762, Note_on_c, 6, 74, 0
8, 23762, Note_on_c, 6, 67, 0
8, 23882, Note_on_c, 6, 76, 104
8, 23882, Note_on_c, 6, 72, 104
8, 24002, Note_on_c, 6, 72, 0
8, 24002, Note_on_c, 6, 76, 0
8, 24122, Note_on_c, 6, 67, 104
8, 24122, Note_on_c, 6, 74, 104
8, 24242, Note_on_c, 6, 74, 0
8, 24242, Note_on_c, 6, 67, 0
8, 24362, Note_on_c, 6, 72, 104
8, 24362, Note_on_c, 6, 76, 104
8, 24482, Note_on_c, 6, 76, 0
8, 24482, Note_on_c, 6, 72, 0
8, 24482, Note_on_c, 6, 67, 104
8, 24482, Note_on_c, 6, 74, 104
8, 24602, Note_on_c, 6, 74, 0
8, 24602, Note_on_c, 6, 67, 0
8, 24722, Note_on_c, 6, 67, 104
8, 24722, Note_on_c, 6, 55, 104
8, 24842, Note_on_c, 6, 55, 0
8, 24842, Note_on_c, 6, 67, 0
8, 24962, Note_on_c, 6, 55, 104
8, 24962, Note_on_c, 6, 67, 104
8, 25082, Note_on_c, 6, 67, 0
8, 25082, Note_on_c, 6, 55, 0
8, 33122, Note_on_c, 6, 74, 104
8, 33122, Control_c, 6, 11, 87
8, 33242, Note_on_c, 6, 74, 0
8, 33362, Note_on_c, 6, 74, 104
8, 33482, Note_on_c, 6, 74, 0
8, 33602, Note_on_c, 6, 74, 104
8, 33722, Note_on_c, 6, 74, 0
8, 34082, Control_c, 6, 11, 107
8, 34082, Note_on_c, 6, 74, 104
8, 34099, Control_c, 6, 11, 104
8, 34117, Control_c, 6, 11, 101
8, 34135, Control_c, 6, 11, 98
8, 34153, Control_c, 6, 11, 95
8, 34171, Control_c, 6, 11, 92
8, 34189, Control_c, 6, 11, 89
8, 34322, Note_on_c, 6, 74, 0
8, 34322, Note_on_c, 6, 74, 104
8, 34322, Control_c, 6, 11, 107
8, 34339, Control_c, 6, 11, 104
8, 34357, Control_c, 6, 11, 101
8, 34375, Control_c, 6, 11, 98
8, 34393, Control_c, 6, 11, 95
8, 34411, Control_c, 6, 11, 92
8, 34429, Control_c, 6, 11, 89
8, 34562, Note_on_c, 6, 74, 0
8, 34562, Control_c, 6, 11, 107
8, 34562, Note_on_c, 6, 74, 104
8, 34579, Control_c, 6, 11, 104
8, 34597, Control_c, 6, 11, 101
8, 34615, Control_c, 6, 11, 98
8, 34633, Control_c, 6, 11, 95
8, 34651, Control_c, 6, 11, 92
8, 34669, Control_c, 6, 11, 89
8, 34802, Note_on_c, 6, 74, 0
8, 35042, Note_on_c, 6, 74, 104
8, 35282, Note_on_c, 6, 74, 0
8, 36602, Note_on_c, 6, 67, 104
8, 36602, Control_c, 6, 11, 102
8, 36722, Note_on_c, 6, 67, 0
8, 36722, Note_on_c, 6, 74, 104
8, 36842, Note_on_c, 6, 74, 0
8, 36842, Note_on_c, 6, 74, 104
8, 36962, Note_on_c, 6, 74, 0
8, 36962, Control_c, 6, 11, 86
8, 36962, Note_on_c, 6, 67, 49
8, 36992, Control_c, 6, 11, 87
8, 37004, Control_c, 6, 11, 84
8, 37018, Control_c, 6, 11, 81
8, 37031, Control_c, 6, 11, 78
8, 37045, Control_c, 6, 11, 75
8, 37058, Control_c, 6, 11, 72
8, 37072, Control_c, 6, 11, 69
8, 37082, Note_on_c, 6, 67, 0
8, 42482, Control_c, 6, 11, 107
8, 42482, Note_on_c, 6, 67, 104
8, 42482, Note_on_c, 6, 55, 104
8, 42500, Control_c, 6, 11, 104
8, 42518, Control_c, 6, 11, 101
8, 42536, Control_c, 6, 11, 98
8, 42554, Control_c, 6, 11, 95
8, 42572, Control_c, 6, 11, 92
8, 42590, Control_c, 6, 11, 89
8, 42842, Note_on_c, 6, 55, 0
8, 42842, Note_on_c, 6, 67, 0
8, 42962, Note_on_c, 6, 55, 104
8, 42962, Note_on_c, 6, 67, 104
8, 42962, Control_c, 6, 11, 107
8, 42980, Control_c, 6, 11, 104
8, 42998, Control_c, 6, 11, 101
8, 43016, Control_c, 6, 11, 98
8, 43034, Control_c, 6, 11, 95
8, 43052, Control_c, 6, 11, 92
8, 43070, Control_c, 6, 11, 89
8, 43322, Note_on_c, 6, 67, 0
8, 43322, Note_on_c, 6, 55, 0
8, 47282, Note_on_c, 6, 76, 104
8, 47282, Note_on_c, 6, 64, 104
8, 47282, Control_c, 6, 11, 122
8, 47300, Control_c, 6, 11, 119
8, 47318, Control_c, 6, 11, 116
8, 47336, Control_c, 6, 11, 113
8, 47354, Control_c, 6, 11, 110
8, 47372, Control_c, 6, 11, 107
8, 47390, Control_c, 6, 11, 104
8, 47522, Note_on_c, 6, 64, 0
8, 47522, Note_on_c, 6, 76, 0
8, 47522, Control_c, 6, 11, 122
8, 47522, Note_on_c, 6, 60, 104
8, 47522, Note_on_c, 6, 72, 104
8, 47540, Control_c, 6, 11, 119
8, 47558, Control_c, 6, 11, 116
8, 47576, Control_c, 6, 11, 113
8, 47594, Control_c, 6, 11, 110
8, 47612, Control_c, 6, 11, 107
8, 47630, Control_c, 6, 11, 104
8, 47762, Note_on_c, 6, 72, 0
8, 47762, Note_on_c, 6, 60, 0
8, 47762, Note_on_c, 6, 74, 104
8, 47762, Control_c, 6, 11, 122
8, 47780, Control_c, 6, 11, 119
8, 47798, Control_c, 6, 11, 116
8, 47816, Control_c, 6, 11, 113
8, 47834, Control_c, 6, 11, 110
8, 47852, Control_c, 6, 11, 107
8, 47870, Control_c, 6, 11, 104
8, 48002, Note_on_c, 6, 74, 0
8, 48002, Control_c, 6, 11, 87
8, 48002, Note_on_c, 6, 67, 104
8, 48020, Control_c, 6, 11, 84
8, 48038, Control_c, 6, 11, 81
8, 48056, Control_c, 6, 11, 78
8, 48074, Control_c, 6, 11, 75
8, 48092, Control_c, 6, 11, 72
8, 48110, Control_c, 6, 11, 69
8, 48122, Note_on_c, 6, 67, 0
8, 49802, Control_c, 6, 11, 87
8, 49802, Note_on_c, 6, 74, 104
8, 49922, Note_on_c, 6, 74, 0
8, 49922, Note_on_c, 6, 67, 104
8, 49922, Control_c, 6, 11, 47
8, 50042, Note_on_c, 6, 67, 0
8, 50282, Control_c, 6, 11, 87
8, 50282, Note_on_c, 6, 74, 104
8, 50402, Note_on_c, 6, 74, 0
8, 50402, Note_on_c, 6, 67, 104
8, 50402, Control_c, 6, 11, 47
8, 50522, Note_on_c, 6, 67, 0
8, 50762, Control_c, 6, 11, 102
8, 50762, Note_on_c, 6, 74, 104
8, 50882, Note_on_c, 6, 74, 0
8, 50882, Note_on_c, 6, 67, 104
8, 51002, Note_on_c, 6, 67, 0
8, 60482, Note_on_c, 6, 74, 94
8, 60482, Note_on_c, 6, 67, 94
8, 60482, Control_c, 6, 11, 97
8, 60500, Control_c, 6, 11, 94
8, 60518, Control_c, 6, 11, 91
8, 60536, Control_c, 6, 11, 88
8, 60554, Control_c, 6, 11, 85
8, 60572, Control_c, 6, 11, 82
8, 60590, Control_c, 6, 11, 79
8, 60962, Control_c, 6, 11, 77
8, 60981, Control_c, 6, 11, 78
8, 61000, Control_c, 6, 11, 79
8, 61019, Control_c, 6, 11, 80
8, 61038, Control_c, 6, 11, 81
8, 61057, Control_c, 6, 11, 82
8, 61072, Note_on_c, 6, 67, 0
8, 61072, Note_on_c, 6, 74, 0
8, 61076, Control_c, 6, 11, 83
8, 61082, Note_on_c, 6, 74, 94
8, 61082, Note_on_c, 6, 67, 94
8, 61096, Control_c, 6, 11, 84
8, 61115, Control_c, 6, 11, 85
8, 61134, Control_c, 6, 11, 86
8, 61153, Control_c, 6, 11, 87
8, 61172, Control_c, 6, 11, 88
8, 61191, Control_c, 6, 11, 89
8, 61192, Note_on_c, 6, 67, 0
8, 61192, Note_on_c, 6, 74, 0
8, 61202, Note_on_c, 6, 74, 94
8, 61202, Note_on_c, 6, 67, 94
8, 61211, Control_c, 6, 11, 90
8, 61230, Control_c, 6, 11, 91
8, 61249, Control_c, 6, 11, 92
8, 61268, Control_c, 6, 11, 93
8, 61287, Control_c, 6, 11, 94
8, 61306, Control_c, 6, 11, 95
8, 61312, Note_on_c, 6, 67, 0
8, 61312, Note_on_c, 6, 74, 0
8, 61322, Note_on_c, 6, 74, 94
8, 61322, Note_on_c, 6, 67, 94
8, 61326, Control_c, 6, 11, 96
8, 61345, Control_c, 6, 11, 97
8, 61364, Control_c, 6, 11, 98
8, 61383, Control_c, 6, 11, 99
8, 61402, Control_c, 6, 11, 100
8, 61421, Control_c, 6, 11, 101
8, 61432, Note_on_c, 6, 67, 0
8, 61432, Note_on_c, 6, 74, 0
8, 61441, Control_c, 6, 11, 102
8, 61442, Note_on_c, 6, 76, 104
8, 61442, Note_on_c, 6, 72, 104
8, 61502, Note_on_c, 6, 72, 0
8, 61502, Note_on_c, 6, 76, 0
8, 61682, Note_on_c, 6, 72, 94
8, 61682, Note_on_c, 6, 60, 94
8, 61742, Note_on_c, 6, 60, 0
8, 61742, Note_on_c, 6, 72, 0
8, 61922, Note_on_c, 6, 72, 94
8, 61922, Note_on_c, 6, 60, 94
8, 61982, Note_on_c, 6, 60, 0
8, 61982, Note_on_c, 6, 72, 0
8, 62162, Note_on_c, 6, 55, 94
8, 62162, Note_on_c, 6, 67, 94
8, 62222, Note_on_c, 6, 67, 0
8, 62222, Note_on_c, 6, 55, 0
8, 62402, Note_on_c, 6, 60, 94
8, 62402, Note_on_c, 6, 72, 94
8, 62462, Note_on_c, 6, 72, 0
8, 62462, Note_on_c, 6, 60, 0
8, 63962, Note_on_c, 6, 74, 89
8, 63962, Note_on_c, 6, 67, 89
8, 64082, Note_on_c, 6, 67, 0
8, 64082, Note_on_c, 6, 74, 0
8, 64082, Note_on_c, 6, 67, 89
8, 64082, Note_on_c, 6, 74, 89
8, 64202, Note_on_c, 6, 74, 0
8, 64202, Note_on_c, 6, 67, 0
8, 64202, Note_on_c, 6, 67, 89
8, 64202, Note_on_c, 6, 74, 89
8, 64322, Note_on_c, 6, 74, 0
8, 64322, Note_on_c, 6, 67, 0
8, 64322, Note_on_c, 6, 72, 89
8, 64322, Note_on_c, 6, 64, 89
8, 64442, Note_on_c, 6, 64, 0
8, 64442, Note_on_c, 6, 72, 0
8, 65882, Note_on_c, 6, 74, 89
8, 65882, Note_on_c, 6, 67, 89
8, 66002, Note_on_c, 6, 67, 0
8, 66002, Note_on_c, 6, 74, 0
8, 66002, Note_on_c, 6, 74, 89
8, 66002, Note_on_c, 6, 67, 89
8, 66122, Note_on_c, 6, 67, 0
8, 66122, Note_on_c, 6, 74, 0
8, 66122, Note_on_c, 6, 67, 89
8, 66122, Note_on_c, 6, 74, 89
8, 66242, Note_on_c, 6, 74, 0
8, 66242, Note_on_c, 6, 67, 0
8, 66242, Note_on_c, 6, 64, 89
8, 66242, Note_on_c, 6, 72, 89
8, 66362, Note_on_c, 6, 72, 0
8, 66362, Note_on_c, 6, 64, 0
8, 68642, Note_on_c, 6, 55, 104
8, 68642, Note_on_c, 6, 67, 104
8, 68762, Note_on_c, 6, 67, 0
8, 68762, Note_on_c, 6, 55, 0
8, 68882, Note_on_c, 6, 55, 104
8, 68882, Note_on_c, 6, 67, 104
8, 69002, Note_on_c, 6, 67, 0
8, 69002, Note_on_c, 6, 55, 0
8, 69122, Note_on_c, 6, 67, 104
8, 69122, Note_on_c, 6, 55, 104
8, 69242, Note_on_c, 6, 55, 0
8, 69242, Note_on_c, 6, 67, 0
8, 69602, Note_on_c, 6, 67, 104
8, 69602, Note_on_c, 6, 55, 104
8, 69722, Note_on_c, 6, 55, 0
8, 69722, Note_on_c, 6, 67, 0
8, 70082, Note_on_c, 6, 67, 104
8, 70082, Note_on_c, 6, 55, 104
8, 70202, Note_on_c, 6, 55, 0
8, 70202, Note_on_c, 6, 67, 0
8, 70202, Note_on_c, 6, 67, 104
8, 70202, Note_on_c, 6, 74, 104
8, 70322, Note_on_c, 6, 74, 0
8, 70322, Note_on_c, 6, 67, 0
8, 70442, Note_on_c, 6, 76, 104
8, 70442, Note_on_c, 6, 72, 104
8, 70562, Note_on_c, 6, 72, 0
8, 70562, Note_on_c, 6, 76, 0
8, 70682, Note_on_c, 6, 74, 104
8, 70682, Note_on_c, 6, 67, 104
8, 70802, Note_on_c, 6, 67, 0
8, 70802, Note_on_c, 6, 74, 0
8, 70922, Note_on_c, 6, 72, 104
8, 70922, Note_on_c, 6, 76, 104
8, 71042, Note_on_c, 6, 76, 0
8, 71042, Note_on_c, 6, 72, 0
8, 71042, Note_on_c, 6, 67, 104
8, 71042, Note_on_c, 6, 74, 104
8, 71162, Note_on_c, 6, 74, 0
8, 71162, Note_on_c, 6, 67, 0
8, 71282, Note_on_c, 6, 55, 104
8, 71282, Note_on_c, 6, 67, 104
8, 71402, Note_on_c, 6, 67, 0
8, 71402, Note_on_c, 6, 55, 0
8, 71522, Note_on_c, 6, 55, 104
8, 71522, Note_on_c, 6, 67, 104
8, 71642, Note_on_c, 6, 67, 0
8, 71642, Note_on_c, 6, 55, 0
8, 79682, Note_on_c, 6, 74, 104
8, 79682, Control_c, 6, 11, 87
8, 79802, Note_on_c, 6, 74, 0
8, 79922, Note_on_c, 6, 74, 104
8, 80042, Note_on_c, 6, 74, 0
8, 80162, Note_on_c, 6, 74, 104
8, 80282, Note_on_c, 6, 74, 0
8, 80642, Note_on_c, 6, 74, 104
8, 80642, Control_c, 6, 11, 107
8, 80659, Control_c, 6, 11, 104
8, 80677, Control_c, 6, 11, 101
8, 80695, Control_c, 6, 11, 98
8, 80713, Control_c, 6, 11, 95
8, 80731, Control_c, 6, 11, 92
8, 80749, Control_c, 6, 11, 89
8, 80882, Note_on_c, 6, 74, 0
8, 80882, Note_on_c, 6, 74, 104
8, 80882, Control_c, 6, 11, 107
8, 80899, Control_c, 6, 11, 104
8, 80917, Control_c, 6, 11, 101
8, 80935, Control_c, 6, 11, 98
8, 80953, Control_c, 6, 11, 95
8, 80971, Control_c, 6, 11, 92
8, 80989, Control_c, 6, 11, 89
8, 81122, Note_on_c, 6, 74, 0
8, 81122, Control_c, 6, 11, 107
8, 81122, Note_on_c, 6, 74, 104
8, 81139, Control_c, 6, 11, 104
8, 81157, Control_c, 6, 11, 101
8, 81175, Control_c, 6, 11, 98
8, 81193, Control_c, 6, 11, 95
8, 81211, Control_c, 6, 11, 92
8, 81229, Control_c, 6, 11, 89
8, 81362, Note_on_c, 6, 74, 0
8, 81602, Note_on_c, 6, 74, 104
8, 81842, Note_on_c, 6, 74, 0
8, 83162, Control_c, 6, 11, 102
8, 83162, Note_on_c, 6, 67, 104
8, 83282, Note_on_c, 6, 67, 0
8, 83282, Note_on_c, 6, 74, 104
8, 83402, Note_on_c, 6, 74, 0
8, 83402, Note_on_c, 6, 74, 104
8, 83522, Note_on_c, 6, 74, 0
8, 83522, Note_on_c, 6, 67, 49
8, 83522, Control_c, 6, 11, 86
8, 83552, Control_c, 6, 11, 87
8, 83564, Control_c, 6, 11, 84
8, 83578, Control_c, 6, 11, 81
8, 83591, Control_c, 6, 11, 78
8, 83605, Control_c, 6, 11, 75
8, 83618, Control_c, 6, 11, 72
8, 83632, Control_c, 6, 11, 69
8, 83642, Note_on_c, 6, 67, 0
8, 89042, Note_on_c, 6, 67, 104
8, 89042, Control_c, 6, 11, 107
8, 89042, Note_on_c, 6, 55, 104
8, 89060, Control_c, 6, 11, 104
8, 89078, Control_c, 6, 11, 101
8, 89096, Control_c, 6, 11, 98
8, 89114, Control_c, 6, 11, 95
8, 89132, Control_c, 6, 11, 92
8, 89150, Control_c, 6, 11, 89
8, 89402, Note_on_c, 6, 55, 0
8, 89402, Note_on_c, 6, 67, 0
8, 89522, Control_c, 6, 11, 107
8, 89522, Note_on_c, 6, 67, 104
8, 89522, Note_on_c, 6, 55, 104
8, 89540, Control_c, 6, 11, 104
8, 89558, Control_c, 6, 11, 101
8, 89576, Control_c, 6, 11, 98
8, 89594, Control_c, 6, 11, 95
8, 89612, Control_c, 6, 11, 92
8, 89630, Control_c, 6, 11, 89
8, 89882, Note_on_c, 6, 55, 0
8, 89882, Note_on_c, 6, 67, 0
8, 93842, Note_on_c, 6, 76, 104
8, 93842, Control_c, 6, 11, 122
8, 93842, Note_on_c, 6, 64, 104
8, 93860, Control_c, 6, 11, 119
8, 93878, Control_c, 6, 11, 116
8, 93896, Control_c, 6, 11, 113
8, 93914, Control_c, 6, 11, 110
8, 93932, Control_c, 6, 11, 107
8, 93950, Control_c, 6, 11, 104
8, 94082, Note_on_c, 6, 64, 0
8, 94082, Note_on_c, 6, 76, 0
8, 94082, Note_on_c, 6, 60, 104
8, 94082, Note_on_c, 6, 72, 104
8, 94082, Control_c, 6, 11, 122
8, 94100, Control_c, 6, 11, 119
8, 94118, Control_c, 6, 11, 116
8, 94136, Control_c, 6, 11, 113
8, 94154, Control_c, 6, 11, 110
8, 94172, Control_c, 6, 11, 107
8, 94190, Control_c, 6, 11, 104
8, 94322, Note_on_c, 6, 72, 0
8, 94322, Note_on_c, 6, 60, 0
8, 94322, Note_on_c, 6, 74, 104
8, 94322, Control_c, 6, 11, 122
8, 94340, Control_c, 6, 11, 119
8, 94358, Control_c, 6, 11, 116
8, 94376, Control_c, 6, 11, 113
8, 94394, Control_c, 6, 11, 110
8, 94412, Control_c, 6, 11, 107
8, 94430, Control_c, 6, 11, 104
8, 94562, Note_on_c, 6, 74, 0
8, 94562, Note_on_c, 6, 67, 104
8, 94562, Control_c, 6, 11, 87
8, 94580, Control_c, 6, 11, 84
8, 94598, Control_c, 6, 11, 81
8, 94616, Control_c, 6, 11, 78
8, 94634, Control_c, 6, 11, 75
8, 94652, Control_c, 6, 11, 72
8, 94670, Control_c, 6, 11, 69
8, 94682, Note_on_c, 6, 67, 0
8, 96362, Control_c, 6, 11, 87
8, 96362, Note_on_c, 6, 74, 104
8, 96482, Note_on_c, 6, 74, 0
8, 96482, Note_on_c, 6, 67, 104
8, 96482, Control_c, 6, 11, 47
8, 96602, Note_on_c, 6, 67, 0
8, 96842, Note_on_c, 6, 74, 104
8, 96842, Control_c, 6, 11, 87
8, 96962, Note_on_c, 6, 74, 0
8, 96962, Note_on_c, 6, 67, 104
8, 96962, Control_c, 6, 11, 47
8, 97082, Note_on_c, 6, 67, 0
8, 97322, Note_on_c, 6, 74, 104
8, 97322, Control_c, 6, 11, 102
8, 97442, Note_on_c, 6, 74, 0
8, 97442, Note_on_c, 6, 67, 104
8, 97562, Note_on_c, 6, 67, 0
8, 99362, Control_c, 6, 11, 87
8, 99362, Note_on_c, 6, 64, 104
8, 99362, Note_on_c, 6, 76, 104
8, 99722, Note_on_c, 6, 76, 0
8, 99722, Note_on_c, 6, 64, 0
8, 101282, Note_on_c, 6, 74, 104
8, 101642, Note_on_c, 6, 74, 0
8, 103202, Note_on_c, 6, 74, 104
8, 103202, Note_on_c, 6, 67, 104
8, 103562, Note_on_c, 6, 67, 0
8, 103562, Note_on_c, 6, 74, 0
8, 105122, Control_c, 6, 11, 87
8, 105122, Note_on_c, 6, 72, 104
8, 105122, Note_on_c, 6, 60, 104
8, 105242, Note_on_c, 6, 60, 0
8, 105242, Note_on_c, 6, 72, 0
8, 123362, Control_c, 6, 11, 102
8, 123362, Note_on_c, 6, 64, 104
8, 123362, Note_on_c, 6, 76, 104
8, 124307, Note_on_c, 6, 76, 0
8, 124307, Note_on_c, 6, 64, 0
8, 124322, Control_c, 6, 91, 115
8, 124322, Control_c, 6, 11, 122
8, 124322, Note_on_c, 6, 64, 94
8, 124322, Note_on_c, 6, 76, 94
8, 124340, Control_c, 6, 11, 119
8, 124358, Control_c, 6, 11, 116
8, 124376, Control_c, 6, 11, 113
8, 124394, Control_c, 6, 11, 110
8, 124412, Control_c, 6, 11, 107
8, 124430, Control_c, 6, 11, 104
8, 125267, Note_on_c, 6, 76, 0
8, 125267, Note_on_c, 6, 64, 0
8, 125282, Note_on_c, 6, 64, 94
8, 125282, Note_on_c, 6, 76, 94
8, 125282, Control_c, 6, 11, 122
8, 125300, Control_c, 6, 11, 119
8, 125318, Control_c, 6, 11, 116
8, 125336, Control_c, 6, 11, 113
8, 125354, Control_c, 6, 11, 110
8, 125372, Control_c, 6, 11, 107
8, 125390, Control_c, 6, 11, 104
8, 126227, Note_on_c, 6, 76, 0
8, 126227, Note_on_c, 6, 64, 0
8, 126242, Note_on_c, 6, 64, 94
8, 126242, Note_on_c, 6, 76, 94
8, 126242, Control_c, 6, 11, 122
8, 126260, Control_c, 6, 11, 119
8, 126278, Control_c, 6, 11, 116
8, 126296, Control_c, 6, 11, 113
8, 126314, Control_c, 6, 11, 110
8, 126332, Control_c, 6, 11, 107
8, 126350, Control_c, 6, 11, 104
8, 127187, Note_on_c, 6, 76, 0
8, 127187, Note_on_c, 6, 64, 0
8, 127202, Note_on_c, 6, 76, 94
8, 127202, Note_on_c, 6, 64, 94
8, 127547, Note_on_c, 6, 64, 0
8, 127547, Note_on_c, 6, 76, 0
8, 127562, Control_c, 6, 11, 122
8, 127562, Note_on_c, 6, 64, 94
8, 127562, Note_on_c, 6, 76, 94
8, 127580, Control_c, 6, 11, 119
8, 127598, Control_c, 6, 11, 116
8, 127616, Control_c, 6, 11, 113
8, 127634, Control_c, 6, 11, 110
8, 127652, Control_c, 6, 11, 107
8, 127667, Note_on_c, 6, 76, 0
8, 127667, Note_on_c, 6, 64, 0
8, 127670, Control_c, 6, 11, 104
8, 127682, Note_on_c, 6, 76, 94
8, 127682, Note_on_c, 6, 64, 94
8, 128027, Note_on_c, 6, 64, 0
8, 128027, Note_on_c, 6, 76, 0
8, 128042, Control_c, 6, 11, 122
8, 128042, Note_on_c, 6, 64, 94
8, 128042, Note_on_c, 6, 76, 94
8, 128060, Control_c, 6, 11, 119
8, 128078, Control_c, 6, 11, 116
8, 128096, Control_c, 6, 11, 113
8, 128114, Control_c, 6, 11, 110
8, 128132, Control_c, 6, 11, 107
8, 128147, Note_on_c, 6, 76, 0
8, 128147, Note_on_c, 6, 64, 0
8, 128150, Control_c, 6, 11, 104
8, 128162, Note_on_c, 6, 76, 94
8, 128162, Note_on_c, 6, 64, 94
8, 128282, Note_on_c, 6, 64, 0
8, 128282, Note_on_c, 6, 76, 0
8, 128642, Control_c, 6, 91, 80
8, 128642, Note_on_c, 6, 76, 104
8, 128642, Note_on_c, 6, 64, 104
8, 128714, Note_on_c, 6, 64, 0
8, 128714, Note_on_c, 6, 76, 0
8, 128882, Note_on_c, 6, 76, 104
8, 128882, Note_on_c, 6, 64, 104
8, 128954, Note_on_c, 6, 64, 0
8, 128954, Note_on_c, 6, 76, 0
8, 129122, Note_on_c, 6, 76, 104
8, 129122, Note_on_c, 6, 64, 104
8, 129194, Note_on_c, 6, 64, 0
8, 129194, Note_on_c, 6, 76, 0
8, 132002, Control_c, 6, 11, 102
8, 132002, Note_on_c, 6, 60, 96
8, 132002, Note_on_c, 6, 72, 96
8, 132362, Note_on_c, 6, 72, 0
8, 132362, Note_on_c, 6, 60, 0
8, 132482, Control_c, 6, 11, 122
8, 132482, Note_on_c, 6, 72, 96
8, 132482, Note_on_c, 6, 60, 96
8, 132500, Control_c, 6, 11, 119
8, 132518, Control_c, 6, 11, 116
8, 132536, Control_c, 6, 11, 113
8, 132554, Control_c, 6, 11, 110
8, 132572, Control_c, 6, 11, 107
8, 132590, Control_c, 6, 11, 104
8, 132842, Note_on_c, 6, 60, 0
8, 132842, Note_on_c, 6, 72, 0
8, 132962, Note_on_c, 6, 60, 96
8, 132962, Note_on_c, 6, 72, 96
8, 133082, Note_on_c, 6, 72, 0
8, 133082, Note_on_c, 6, 60, 0
8, 133202, Note_on_c, 6, 60, 96
8, 133202, Note_on_c, 6, 72, 96
8, 133322, Note_on_c, 6, 72, 0
8, 133322, Note_on_c, 6, 60, 0
8, 133442, Note_on_c, 6, 72, 96
8, 133442, Note_on_c, 6, 60, 96
8, 133562, Note_on_c, 6, 60, 0
8, 133562, Note_on_c, 6, 72, 0
8, 135362, Note_on_c, 6, 74, 96
8, 135362, Control_c, 6, 11, 122
8, 135380, Control_c, 6, 11, 119
8, 135398, Control_c, 6, 11, 116
8, 135416, Control_c, 6, 11, 113
8, 135434, Control_c, 6, 11, 110
8, 135452, Control_c, 6, 11, 107
8, 135470, Control_c, 6, 11, 104
8, 135722, Note_on_c, 6, 74, 0
8, 135842, Note_on_c, 6, 74, 96
8, 135962, Note_on_c, 6, 74, 0
8, 136082, Note_on_c, 6, 74, 96
8, 136202, Note_on_c, 6, 74, 0
8, 136322, Note_on_c, 6, 74, 96
8, 136442, Note_on_c, 6, 74, 0
8, 137282, Control_c, 6, 11, 47
8, 137282, Note_on_c, 6, 60, 86
8, 137882, Note_on_c, 6, 60, 0
8, 141362, Note_on_c, 6, 74, 96
8, 141362, Control_c, 6, 11, 102
8, 141602, Note_on_c, 6, 74, 0
8, 141602, Note_on_c, 6, 67, 96
8, 141722, Note_on_c, 6, 67, 0
8, 142202, Note_on_c, 6, 60, 96
8, 142202, Note_on_c, 6, 72, 96
8, 142322, Note_on_c, 6, 72, 0
8, 142322, Note_on_c, 6, 60, 0
8, 142322, Note_on_c, 6, 60, 96
8, 142322, Note_on_c, 6, 72, 96
8, 142442, Note_on_c, 6, 72, 0
8, 142442, Note_on_c, 6, 60, 0
8, 142442, Note_on_c, 6, 60, 96
8, 142442, Note_on_c, 6, 72, 96
8, 142562, Note_on_c, 6, 72, 0
8, 142562, Note_on_c, 6, 60, 0
8, 142562, Note_on_c, 6, 55, 96
8, 142562, Note_on_c, 6, 67, 96
8, 142682, Note_on_c, 6, 67, 0
8, 142682, Note_on_c, 6, 55, 0
8, 143162, Note_on_c, 6, 72, 96
8, 143162, Note_on_c, 6, 60, 96
8, 143282, Note_on_c, 6, 60, 0
8, 143282, Note_on_c, 6, 72, 0
8, 143282, Note_on_c, 6, 60, 96
8, 143282, Note_on_c, 6, 72, 96
8, 143402, Note_on_c, 6, 72, 0
8, 143402, Note_on_c, 6, 60, 0
8, 143402, Note_on_c, 6, 60, 96
8, 143402, Note_on_c, 6, 72, 96
8, 143522, Note_on_c, 6, 72, 0
8, 143522, Note_on_c, 6, 60, 0
8, 143522, Note_on_c, 6, 55, 96
8, 143522, Note_on_c, 6, 67, 96
8, 143642, Note_on_c, 6, 67, 0
8, 143642, Note_on_c, 6, 55, 0
8, 144002, Note_on_c, 6, 67, 96
8, 144002, Note_on_c, 6, 55, 96
8, 144122, Note_on_c, 6, 55, 0
8, 144122, Note_on_c, 6, 67, 0
8, 144482, Note_on_c, 6, 67, 96
8, 144482, Note_on_c, 6, 55, 96
8, 144602, Note_on_c, 6, 55, 0
8, 144602, Note_on_c, 6, 67, 0
8, 154082, Control_c, 6, 11, 107
8, 154082, Note_on_c, 6, 67, 96
8, 154100, Control_c, 6, 11, 105
8, 154118, Control_c, 6, 11, 103
8, 154136, Control_c, 6, 11, 101
8, 154154, Control_c, 6, 11, 99
8, 154172, Control_c, 6, 11, 97
8, 154190, Control_c, 6, 11, 95
8, 154208, Control_c, 6, 11, 93
8, 154226, Control_c, 6, 11, 91
8, 154244, Control_c, 6, 11, 89
8, 154262, Control_c, 6, 11, 87
8, 154322, Note_on_c, 6, 67, 0
8, 154322, Note_on_c, 6, 67, 96
8, 154322, Control_c, 6, 11, 107
8, 154340, Control_c, 6, 11, 105
8, 154358, Control_c, 6, 11, 103
8, 154376, Control_c, 6, 11, 101
8, 154394, Control_c, 6, 11, 99
8, 154412, Control_c, 6, 11, 97
8, 154430, Control_c, 6, 11, 95
8, 154448, Control_c, 6, 11, 93
8, 154466, Control_c, 6, 11, 91
8, 154484, Control_c, 6, 11, 89
8, 154502, Control_c, 6, 11, 87
8, 154562, Note_on_c, 6, 67, 0
8, 154562, Note_on_c, 6, 67, 96
8, 154562, Control_c, 6, 11, 107
8, 154580, Control_c, 6, 11, 104
8, 154598, Control_c, 6, 11, 101
8, 154616, Control_c, 6, 11, 98
8, 154634, Control_c, 6, 11, 95
8, 154652, Control_c, 6, 11, 92
8, 154670, Control_c, 6, 11, 89
8, 154682, Note_on_c, 6, 67, 0
8, 156122, Control_c, 6, 11, 82
8, 156122, Note_on_c, 6, 74, 96
8, 156122, Note_on_c, 6, 67, 96
8, 156140, Control_c, 6, 11, 83
8, 156158, Control_c, 6, 11, 84
8, 156176, Control_c, 6, 11, 85
8, 156194, Control_c, 6, 11, 86
8, 156212, Control_c, 6, 11, 87
8, 156230, Control_c, 6, 11, 88
8, 156242, Note_on_c, 6, 67, 0
8, 156242, Note_on_c, 6, 74, 0
8, 156242, Note_on_c, 6, 67, 96
8, 156242, Note_on_c, 6, 74, 96
8, 156248, Control_c, 6, 11, 89
8, 156266, Control_c, 6, 11, 90
8, 156284, Control_c, 6, 11, 91
8, 156302, Control_c, 6, 11, 92
8, 156320, Control_c, 6, 11, 93
8, 156338, Control_c, 6, 11, 94
8, 156356, Control_c, 6, 11, 95
8, 156362, Note_on_c, 6, 74, 0
8, 156362, Note_on_c, 6, 67, 0
8, 156362, Note_on_c, 6, 67, 96
8, 156362, Note_on_c, 6, 74, 96
8, 156374, Control_c, 6, 11, 96
8, 156392, Control_c, 6, 11, 97
8, 156410, Control_c, 6, 11, 98
8, 156428, Control_c, 6, 11, 99
8, 156446, Control_c, 6, 11, 100
8, 156464, Control_c, 6, 11, 101
8, 156482, Note_on_c, 6, 74, 0
8, 156482, Note_on_c, 6, 67, 0
8, 156482, Note_on_c, 6, 72, 96
8, 156482, Note_on_c, 6, 76, 96
8, 156482, Control_c, 6, 11, 102
8, 156602, Note_on_c, 6, 76, 0
8, 156602, Note_on_c, 6, 72, 0
8, 156602, Note_on_c, 6, 60, 96
8, 156602, Note_on_c, 6, 72, 96
8, 156722, Note_on_c, 6, 72, 0
8, 156722, Note_on_c, 6, 60, 0
8, 156722, Note_on_c, 6, 60, 96
8, 156722, Note_on_c, 6, 72, 96
8, 156842, Note_on_c, 6, 72, 0
8, 156842, Note_on_c, 6, 60, 0
8, 156842, Note_on_c, 6, 67, 96
8, 156842, Note_on_c, 6, 55, 96
8, 156962, Note_on_c, 6, 55, 0
8, 156962, Note_on_c, 6, 67, 0
8, 156962, Note_on_c, 6, 72, 50
8, 156962, Note_on_c, 6, 60, 50
8, 156992, Control_c, 6, 11, 87
8, 156999, Control_c, 6, 11, 84
8, 157007, Control_c, 6, 11, 81
8, 157015, Control_c, 6, 11, 78
8, 157022, Control_c, 6, 11, 75
8, 157030, Control_c, 6, 11, 72
8, 157038, Control_c, 6, 11, 69
8, 157046, Control_c, 6, 11, 66
8, 157053, Control_c, 6, 11, 63
8, 157061, Control_c, 6, 11, 60
8, 157069, Control_c, 6, 11, 57
8, 157076, Control_c, 6, 11, 54
8, 157082, Note_on_c, 6, 60, 0
8, 157082, Note_on_c, 6, 72, 0
8, 162482, Note_on_c, 6, 72, 96
8, 162482, Control_c, 6, 11, 87
8, 162482, Note_on_c, 6, 60, 96
8, 162842, Note_on_c, 6, 60, 0
8, 162842, Note_on_c, 6, 72, 0
8, 162962, Control_c, 6, 11, 107
8, 162962, Note_on_c, 6, 60, 96
8, 162962, Note_on_c, 6, 72, 96
8, 162980, Control_c, 6, 11, 104
8, 162998, Control_c, 6, 11, 101
8, 163016, Control_c, 6, 11, 98
8, 163034, Control_c, 6, 11, 95
8, 163052, Control_c, 6, 11, 92
8, 163070, Control_c, 6, 11, 89
8, 163322, Note_on_c, 6, 72, 0
8, 163322, Note_on_c, 6, 60, 0
8, 163442, Control_c, 6, 11, 107
8, 163442, Note_on_c, 6, 67, 96
8, 163442, Note_on_c, 6, 55, 96
8, 163460, Control_c, 6, 11, 104
8, 163478, Control_c, 6, 11, 101
8, 163496, Control_c, 6, 11, 98
8, 163514, Control_c, 6, 11, 95
8, 163532, Control_c, 6, 11, 92
8, 163550, Control_c, 6, 11, 89
8, 163562, Note_on_c, 6, 55, 0
8, 163562, Note_on_c, 6, 67, 0
8, 163682, Note_on_c, 6, 72, 96
8, 163682, Control_c, 6, 11, 107
8, 163682, Note_on_c, 6, 60, 96
8, 163700, Control_c, 6, 11, 104
8, 163718, Control_c, 6, 11, 101
8, 163736, Control_c, 6, 11, 98
8, 163754, Control_c, 6, 11, 95
8, 163772, Control_c, 6, 11, 92
8, 163790, Control_c, 6, 11, 89
8, 163802, Note_on_c, 6, 60, 0
8, 163802, Note_on_c, 6, 72, 0
8, 163922, Note_on_c, 6, 72, 96
8, 163922, Control_c, 6, 11, 107
8, 163922, Note_on_c, 6, 60, 96
8, 163940, Control_c, 6, 11, 104
8, 163958, Control_c, 6, 11, 101
8, 163976, Control_c, 6, 11, 98
8, 163994, Control_c, 6, 11, 95
8, 164012, Control_c, 6, 11, 92
8, 164030, Control_c, 6, 11, 89
8, 164042, Note_on_c, 6, 60, 0
8, 164042, Note_on_c, 6, 72, 0
8, 164162, Note_on_c, 6, 72, 96
8, 164162, Note_on_c, 6, 60, 96
8, 164282, Note_on_c, 6, 60, 0
8, 164282, Note_on_c, 6, 72, 0
8, 166682, Note_on_c, 6, 60, 96
8, 166682, Control_c, 6, 11, 102
8, 166682, Note_on_c, 6, 72, 96
8, 166802, Note_on_c, 6, 72, 0
8, 166802, Note_on_c, 6, 60, 0
8, 166802, Note_on_c, 6, 72, 96
8, 166802, Note_on_c, 6, 60, 96
8, 166922, Note_on_c, 6, 60, 0
8, 166922, Note_on_c, 6, 72, 0
8, 166922, Note_on_c, 6, 72, 96
8, 166922, Note_on_c, 6, 60, 96
8, 167042, Note_on_c, 6, 60, 0
8, 167042, Note_on_c, 6, 72, 0
8, 167042, Note_on_c, 6, 55, 96
8, 167042, Note_on_c, 6, 67, 96
8, 167282, Note_on_c, 6, 67, 0
8, 167282, Note_on_c, 6, 55, 0
8, 167762, Control_c, 6, 11, 122
8, 167762, Note_on_c, 6, 67, 96
8, 167762, Note_on_c, 6, 79, 96
8, 167780, Control_c, 6, 11, 119
8, 167798, Control_c, 6, 11, 116
8, 167816, Control_c, 6, 11, 113
8, 167834, Control_c, 6, 11, 110
8, 167852, Control_c, 6, 11, 107
8, 167870, Control_c, 6, 11, 104
8, 168002, Note_on_c, 6, 79, 0
8, 168002, Note_on_c, 6, 67, 0
8, 168002, Note_on_c, 6, 60, 96
8, 168002, Note_on_c, 6, 72, 96
8, 168122, Note_on_c, 6, 72, 0
8, 168122, Note_on_c, 6, 60, 0
8, 170282, Note_on_c, 6, 55, 96
8, 170282, Note_on_c, 6, 67, 96
8, 170282, Control_c, 6, 11, 87
8, 170291, Control_c, 6, 11, 84
8, 170300, Control_c, 6, 11, 81
8, 170309, Control_c, 6, 11, 78
8, 170318, Control_c, 6, 11, 75
8, 170327, Control_c, 6, 11, 72
8, 170336, Control_c, 6, 11, 69
8, 170345, Control_c, 6, 11, 66
8, 170354, Control_c, 6, 11, 63
8, 170363, Control_c, 6, 11, 60
8, 170372, Control_c, 6, 11, 57
8, 170381, Control_c, 6, 11, 54
8, 170390, Control_c, 6, 11, 51
8, 170399, Control_c, 6, 11, 48
8, 170402, Note_on_c, 6, 67, 0
8, 170402, Note_on_c, 6, 55, 0
8, 170402, Note_on_c, 6, 60, 96
8, 170402, Note_on_c, 6, 72, 96
8, 170522, Note_on_c, 6, 72, 0
8, 170522, Note_on_c, 6, 60, 0
8, 170762, Note_on_c, 6, 55, 96
8, 170762, Note_on_c, 6, 67, 96
8, 170762, Control_c, 6, 11, 102
8, 170882, Note_on_c, 6, 67, 0
8, 170882, Note_on_c, 6, 55, 0
8, 170882, Note_on_c, 6, 72, 96
8, 170882, Note_on_c, 6, 60, 96
8, 171002, Note_on_c, 6, 60, 0
8, 171002, Note_on_c, 6, 72, 0
8, 171842, Control_c, 6, 11, 47
8, 171842, Note_on_c, 6, 72, 96
8, 171842, Note_on_c, 6, 60, 96
8, 172562, Note_on_c, 6, 60, 0
8, 172562, Note_on_c, 6, 72, 0
8, 172562, Note_on_c, 6, 72, 96
8, 172562, Note_on_c, 6, 60, 96
8, 172802, Note_on_c, 6, 60, 0
8, 172802, Note_on_c, 6, 72, 0
8, 172802, Note_on_c, 6, 72, 96
8, 172802, Note_on_c, 6, 60, 96
8, 172922, Note_on_c, 6, 60, 0
8, 172922, Note_on_c, 6, 72, 0
8, 175682, Note_on_c, 6, 74, 96
8, 175682, Note_on_c, 6, 67, 96
8, 175682, Control_c, 6, 11, 47
8, 175699, Control_c, 6, 11, 48
8, 175716, Control_c, 6, 11, 49
8, 175734, Control_c, 6, 11, 50
8, 175751, Control_c, 6, 11, 51
8, 175769, Control_c, 6, 11, 52
8, 175786, Control_c, 6, 11, 53
8, 175804, Control_c, 6, 11, 54
8, 175821, Control_c, 6, 11, 55
8, 175839, Control_c, 6, 11, 56
8, 175856, Control_c, 6, 11, 57
8, 175874, Control_c, 6, 11, 58
8, 175891, Control_c, 6, 11, 59
8, 175908, Control_c, 6, 11, 60
8, 175926, Control_c, 6, 11, 61
8, 175943, Control_c, 6, 11, 62
8, 175961, Control_c, 6, 11, 63
8, 175978, Control_c, 6, 11, 64
8, 175996, Control_c, 6, 11, 65
8, 176013, Control_c, 6, 11, 66
8, 176031, Control_c, 6, 11, 67
8, 176048, Control_c, 6, 11, 68
8, 176066, Control_c, 6, 11, 69
8, 176083, Control_c, 6, 11, 70
8, 176100, Control_c, 6, 11, 71
8, 176118, Control_c, 6, 11, 72
8, 176135, Control_c, 6, 11, 73
8, 176153, Control_c, 6, 11, 74
8, 176170, Control_c, 6, 11, 75
8, 176188, Control_c, 6, 11, 76
8, 176205, Control_c, 6, 11, 77
8, 176223, Control_c, 6, 11, 78
8, 176240, Control_c, 6, 11, 79
8, 176258, Control_c, 6, 11, 80
8, 176275, Control_c, 6, 11, 81
8, 176282, Note_on_c, 6, 67, 0
8, 176282, Note_on_c, 6, 74, 0
8, 176282, Note_on_c, 6, 67, 96
8, 176282, Note_on_c, 6, 55, 96
8, 176292, Control_c, 6, 11, 82
8, 176310, Control_c, 6, 11, 83
8, 176327, Control_c, 6, 11, 84
8, 176345, Control_c, 6, 11, 85
8, 176362, Control_c, 6, 11, 86
8, 176380, Control_c, 6, 11, 87
8, 176397, Control_c, 6, 11, 88
8, 176402, Note_on_c, 6, 55, 0
8, 176402, Note_on_c, 6, 67, 0
8, 176402, Note_on_c, 6, 55, 96
8, 176402, Note_on_c, 6, 67, 96
8, 176415, Control_c, 6, 11, 89
8, 176432, Control_c, 6, 11, 90
8, 176450, Control_c, 6, 11, 91
8, 176467, Control_c, 6, 11, 92
8, 176484, Control_c, 6, 11, 93
8, 176502, Control_c, 6, 11, 94
8, 176519, Control_c, 6, 11, 95
8, 176522, Note_on_c, 6, 67, 0
8, 176522, Note_on_c, 6, 55, 0
8, 176522, Note_on_c, 6, 55, 96
8, 176522, Note_on_c, 6, 67, 96
8, 176537, Control_c, 6, 11, 96
8, 176554, Control_c, 6, 11, 97
8, 176572, Control_c, 6, 11, 98
8, 176589, Control_c, 6, 11, 99
8, 176607, Control_c, 6, 11, 100
8, 176624, Control_c, 6, 11, 101
8, 176642, Note_on_c, 6, 67, 0
8, 176642, Note_on_c, 6, 55, 0
8, 176642, Note_on_c, 6, 60, 96
8, 176642, Note_on_c, 6, 72, 96
8, 176642, Control_c, 6, 11, 102
8, 176702, Note_on_c, 6, 72, 0
8, 176702, Note_on_c, 6, 60, 0
8, 176882, Note_on_c, 6, 72, 96
8, 176882, Note_on_c, 6, 60, 96
8, 176942, Note_on_c, 6, 60, 0
8, 176942, Note_on_c, 6, 72, 0
8, 177122, Note_on_c, 6, 72, 96
8, 177122, Note_on_c, 6, 60, 96
8, 177182, Note_on_c, 6, 60, 0
8, 177182, Note_on_c, 6, 72, 0
8, 177602, Note_on_c, 6, 72, 96
8, 177602, Note_on_c, 6, 60, 96
8, 177662, Note_on_c, 6, 60, 0
8, 177662, Note_on_c, 6, 72, 0
8, 177842, Note_on_c, 6, 60, 96
8, 177842, Note_on_c, 6, 72, 96
8, 177902, Note_on_c, 6, 72, 0
8, 177902, Note_on_c, 6, 60, 0
8, 178082, Note_on_c, 6, 60, 96
8, 178082, Note_on_c, 6, 72, 96
8, 178142, Note_on_c, 6, 72, 0
8, 178142, Note_on_c, 6, 60, 0
8, 178562, Note_on_c, 6, 60, 96
8, 178562, Note_on_c, 6, 72, 96
8, 178622, Note_on_c, 6, 72, 0
8, 178622, Note_on_c, 6, 60, 0
8, 178802, Note_on_c, 6, 60, 96
8, 178802, Note_on_c, 6, 72, 96
8, 178862, Note_on_c, 6, 72, 0
8, 178862, Note_on_c, 6, 60, 0
8, 179042, Note_on_c, 6, 60, 96
8, 179042, Note_on_c, 6, 72, 96
8, 179102, Note_on_c, 6, 72, 0
8, 179102, Note_on_c, 6, 60, 0
8, 179282, Note_on_c, 6, 67, 96
8, 179282, Note_on_c, 6, 74, 96
8, 179342, Note_on_c, 6, 74, 0
8, 179342, Note_on_c, 6, 67, 0
8, 179522, Note_on_c, 6, 64, 96
8, 179522, Note_on_c, 6, 72, 96
8, 179582, Note_on_c, 6, 72, 0
8, 179582, Note_on_c, 6, 64, 0
8, 180602, Control_c, 6, 91, 115
8, 180602, Note_on_c, 6, 60, 123
8, 180722, Note_on_c, 6, 60, 0
8, 180722, Note_on_c, 6, 64, 123
8, 180842, Note_on_c, 6, 64, 0
8, 180842, Note_on_c, 6, 67, 123
8, 180962, Note_on_c, 6, 67, 0
8, 180962, Note_on_c, 6, 72, 123
8, 181082, Note_on_c, 6, 72, 0
8, 182522, Control_c, 6, 11, 87
8, 182522, Note_on_c, 6, 64, 123
8, 182522, Note_on_c, 6, 60, 123
8, 182540, Control_c, 6, 11, 88
8, 182558, Control_c, 6, 11, 89
8, 182576, Control_c, 6, 11, 90
8, 182582, Note_on_c, 6, 60, 0
8, 182582, Note_on_c, 6, 64, 0
8, 182594, Control_c, 6, 11, 91
8, 182612, Control_c, 6, 11, 92
8, 182630, Control_c, 6, 11, 93
8, 182642, Note_on_c, 6, 67, 123
8, 182642, Note_on_c, 6, 64, 123
8, 182648, Control_c, 6, 11, 94
8, 182666, Control_c, 6, 11, 95
8, 182684, Control_c, 6, 11, 96
8, 182702, Note_on_c, 6, 64, 0
8, 182702, Note_on_c, 6, 67, 0
8, 182702, Control_c, 6, 11, 97
8, 182720, Control_c, 6, 11, 98
8, 182738, Control_c, 6, 11, 99
8, 182756, Control_c, 6, 11, 100
8, 182762, Note_on_c, 6, 67, 123
8, 182762, Note_on_c, 6, 72, 123
8, 182774, Control_c, 6, 11, 101
8, 182792, Control_c, 6, 11, 102
8, 182810, Control_c, 6, 11, 103
8, 182822, Note_on_c, 6, 72, 0
8, 182822, Note_on_c, 6, 67, 0
8, 182828, Control_c, 6, 11, 104
8, 182846, Control_c, 6, 11, 105
8, 182864, Control_c, 6, 11, 106
8, 182882, Note_on_c, 6, 76, 123
8, 182882, Note_on_c, 6, 72, 123
8, 182882, Control_c, 6, 11, 107
8, 183002, Note_on_c, 6, 72, 0
8, 183002, Note_on_c, 6, 76, 0
8, 184442, Note_on_c, 6, 55, 127
8, 184442, Control_c, 6, 11, 87
8, 184442, Note_on_c, 6, 67, 127
8, 184460, Control_c, 6, 11, 88
8, 184478, Control_c, 6, 11, 89
8, 184496, Control_c, 6, 11, 90
8, 184502, Note_on_c, 6, 67, 0
8, 184502, Note_on_c, 6, 55, 0
8, 184514, Control_c, 6, 11, 91
8, 184532, Control_c, 6, 11, 92
8, 184550, Control_c, 6, 11, 93
8, 184562, Note_on_c, 6, 60, 127
8, 184562, Note_on_c, 6, 72, 127
8, 184568, Control_c, 6, 11, 94
8, 184586, Control_c, 6, 11, 95
8, 184604, Control_c, 6, 11, 96
8, 184622, Note_on_c, 6, 72, 0
8, 184622, Note_on_c, 6, 60, 0
8, 184622, Control_c, 6, 11, 97
8, 184640, Control_c, 6, 11, 98
8, 184658, Control_c, 6, 11, 99
8, 184676, Control_c, 6, 11, 100
8, 184682, Note_on_c, 6, 76, 127
8, 184682, Note_on_c, 6, 64, 127
8, 184694, Control_c, 6, 11, 101
8, 184712, Control_c, 6, 11, 102
8, 184730, Control_c, 6, 11, 103
8, 184742, Note_on_c, 6, 64, 0
8, 184742, Note_on_c, 6, 76, 0
8, 184748, Control_c, 6, 11, 104
8, 184766, Control_c, 6, 11, 105
8, 184784, Control_c, 6, 11, 106
8, 184802, Note_on_c, 6, 67, 127
8, 184802, Note_on_c, 6, 79, 127
8, 184802, Control_c, 6, 11, 107
8, 185762, Note_on_c, 6, 79, 0
8, 185762, Note_on_c, 6, 67, 0
8, 185762, Note_on_c, 6, 64, 96
8, 185762, Note_on_c, 6, 76, 96
8, 186242, Note_on_c, 6, 76, 0
8, 186242, Note_on_c, 6, 64, 0
8, 186242, Note_on_c, 6, 72, 96
8, 186242, Note_on_c, 6, 60, 96
8, 186602, Note_on_c, 6, 60, 0
8, 186602, Note_on_c, 6, 72, 0
8, 186602, Control_c, 6, 91, 80
8, 186602, Note_on_c, 6, 72, 114
8, 186662, Note_on_c, 6, 72, 0
8, 186722, Note_on_c, 6, 67, 114
8, 186782, Note_on_c, 6, 67, 0
8, 186842, Note_on_c, 6, 72, 114
8, 186902, Note_on_c, 6, 72, 0
8, 186962, Note_on_c, 6, 67, 114
8, 187022, Note_on_c, 6, 67, 0
8, 187082, Note_on_c, 6, 64, 114
8, 187142, Note_on_c, 6, 64, 0
8, 187202, Note_on_c, 6, 60, 127
8, 187322, Note_on_c, 6, 60, 0
8, 187682, Note_on_c, 6, 60, 96
8, 187682, Note_on_c, 6, 72, 96
8, 187802, Note_on_c, 6, 72, 0
8, 187802, Note_on_c, 6, 60, 0
8, 188162, Note_on_c, 6, 72, 96
8, 188162, Note_on_c, 6, 64, 96
8, 188282, Note_on_c, 6, 64, 0
8, 188282, Note_on_c, 6, 72, 0
8, 188642, Note_on_c, 6, 60, 96
8, 188762, Note_on_c, 6, 60, 0
8, 188882, Note_on_c, 6, 60, 96
8, 189002, Note_on_c, 6, 60, 0
8, 189122, Note_on_c, 6, 60, 96
8, 189242, Note_on_c, 6, 60, 0
8, 189602, Control_c, 6, 121, 0
8, 189602, End_track
9, 0, Start_track
9, 0, MIDI_port, 0
9, 0, Title_t, "Timpani"
9, 0, Program_c, 15, 47
9, 0, Control_c, 15, 10, 97
9, 10, Control_c, 15, 121, 0
9, 15, Program_c, 15, 47
9, 20, Pitch_bend_c, 15, 8192
9, 25, Control_c, 15, 11, 127
9, 30, Control_c, 15, 7, 127
9, 35, Control_c, 15, 91, 89
9, 40, Control_c, 15, 93, 0
9, 45, Control_c, 15, 10, 97
9, 50, Control_c, 15, 1, 100
9, 1927, Note_on_c, 15, 43, 112
9, 2047, Note_on_c, 15, 43, 0
9, 3965, Note_on_c, 15, 48, 73
9, 4079, Note_on_c, 15, 48, 0
9, 4205, Note_on_c, 15, 48, 73
9, 4319, Note_on_c, 15, 48, 0
9, 4325, Note_on_c, 15, 43, 32
9, 4565, Note_on_c, 15, 43, 0
9, 4925, Note_on_c, 15, 48, 73
9, 5051, Note_on_c, 15, 48, 0
9, 5165, Note_on_c, 15, 48, 73
9, 5279, Note_on_c, 15, 48, 0
9, 5285, Note_on_c, 15, 43, 73
9, 5525, Note_on_c, 15, 43, 0
9, 13930, Note_on_c, 15, 43, 104
9, 14170, Note_on_c, 15, 43, 0
9, 14530, Note_on_c, 15, 43, 104
9, 14650, Note_on_c, 15, 43, 0
9, 14650, Note_on_c, 15, 43, 104
9, 14770, Note_on_c, 15, 43, 0
9, 14770, Note_on_c, 15, 43, 104
9, 14890, Note_on_c, 15, 43, 0
9, 14890, Note_on_c, 15, 48, 102
9, 14950, Note_on_c, 15, 48, 0
9, 15130, Note_on_c, 15, 48, 102
9, 15190, Note_on_c, 15, 48, 0
9, 15370, Note_on_c, 15, 48, 102
9, 15430, Note_on_c, 15, 48, 0
9, 15610, Note_on_c, 15, 43, 102
9, 15670, Note_on_c, 15, 43, 0
9, 15850, Note_on_c, 15, 48, 102
9, 15910, Note_on_c, 15, 48, 0
9, 17410, Note_on_c, 15, 48, 90
9, 17530, Note_on_c, 15, 48, 0
9, 17530, Note_on_c, 15, 48, 90
9, 17650, Note_on_c, 15, 48, 0
9, 17650, Note_on_c, 15, 48, 90
9, 17770, Note_on_c, 15, 48, 0
9, 17770, Note_on_c, 15, 48, 90
9, 17890, Note_on_c, 15, 48, 0
9, 19330, Note_on_c, 15, 48, 90
9, 19450, Note_on_c, 15, 48, 0
9, 19450, Note_on_c, 15, 48, 90
9, 19570, Note_on_c, 15, 48, 0
9, 19570, Note_on_c, 15, 48, 90
9, 19690, Note_on_c, 15, 48, 0
9, 19690, Note_on_c, 15, 48, 90
9, 19810, Note_on_c, 15, 48, 0
9, 22090, Note_on_c, 15, 43, 77
9, 22210, Note_on_c, 15, 43, 0
9, 22330, Note_on_c, 15, 43, 77
9, 22450, Note_on_c, 15, 43, 0
9, 22570, Note_on_c, 15, 43, 77
9, 22690, Note_on_c, 15, 43, 0
9, 23050, Note_on_c, 15, 43, 77
9, 23170, Note_on_c, 15, 43, 0
9, 23530, Note_on_c, 15, 43, 77
9, 23650, Note_on_c, 15, 43, 0
9, 23770, Note_on_c, 15, 48, 77
9, 23890, Note_on_c, 15, 48, 0
9, 24010, Note_on_c, 15, 43, 77
9, 24130, Note_on_c, 15, 43, 0
9, 24250, Note_on_c, 15, 48, 77
9, 24370, Note_on_c, 15, 48, 0
9, 24490, Note_on_c, 15, 43, 77
9, 24610, Note_on_c, 15, 43, 0
9, 24730, Note_on_c, 15, 43, 77
9, 24850, Note_on_c, 15, 43, 0
9, 24970, Note_on_c, 15, 43, 77
9, 25090, Note_on_c, 15, 43, 0
9, 42490, Note_on_c, 15, 43, 79
9, 42610, Note_on_c, 15, 43, 0
9, 42970, Note_on_c, 15, 43, 79
9, 43090, Note_on_c, 15, 43, 0
9, 43210, Note_on_c, 15, 43, 79
9, 43330, Note_on_c, 15, 43, 0
9, 48010, Note_on_c, 15, 43, 79
9, 48130, Note_on_c, 15, 43, 0
9, 48970, Note_on_c, 15, 43, 52
9, 49090, Note_on_c, 15, 43, 0
9, 49930, Note_on_c, 15, 43, 52
9, 50050, Note_on_c, 15, 43, 0
9, 50410, Note_on_c, 15, 43, 52
9, 50530, Note_on_c, 15, 43, 0
9, 50890, Note_on_c, 15, 43, 112
9, 51010, Note_on_c, 15, 43, 0
9, 60490, Note_on_c, 15, 43, 104
9, 60730, Note_on_c, 15, 43, 0
9, 61090, Note_on_c, 15, 43, 104
9, 61210, Note_on_c, 15, 43, 0
9, 61210, Note_on_c, 15, 43, 104
9, 61330, Note_on_c, 15, 43, 0
9, 61330, Note_on_c, 15, 43, 104
9, 61450, Note_on_c, 15, 43, 0
9, 61450, Note_on_c, 15, 48, 102
9, 61510, Note_on_c, 15, 48, 0
9, 61690, Note_on_c, 15, 48, 102
9, 61750, Note_on_c, 15, 48, 0
9, 61930, Note_on_c, 15, 48, 102
9, 61990, Note_on_c, 15, 48, 0
9, 62170, Note_on_c, 15, 43, 102
9, 62230, Note_on_c, 15, 43, 0
9, 62410, Note_on_c, 15, 48, 102
9, 62470, Note_on_c, 15, 48, 0
9, 63970, Note_on_c, 15, 48, 90
9, 64090, Note_on_c, 15, 48, 0
9, 64090, Note_on_c, 15, 48, 90
9, 64210, Note_on_c, 15, 48, 0
9, 64210, Note_on_c, 15, 48, 90
9, 64330, Note_on_c, 15, 48, 0
9, 64330, Note_on_c, 15, 48, 90
9, 64450, Note_on_c, 15, 48, 0
9, 65890, Note_on_c, 15, 48, 90
9, 66010, Note_on_c, 15, 48, 0
9, 66010, Note_on_c, 15, 48, 90
9, 66130, Note_on_c, 15, 48, 0
9, 66130, Note_on_c, 15, 48, 90
9, 66250, Note_on_c, 15, 48, 0
9, 66250, Note_on_c, 15, 48, 90
9, 66370, Note_on_c, 15, 48, 0
9, 68650, Note_on_c, 15, 43, 77
9, 68770, Note_on_c, 15, 43, 0
9, 68890, Note_on_c, 15, 43, 77
9, 69010, Note_on_c, 15, 43, 0
9, 69130, Note_on_c, 15, 43, 77
9, 69250, Note_on_c, 15, 43, 0
9, 69610, Note_on_c, 15, 43, 77
9, 69730, Note_on_c, 15, 43, 0
9, 70090, Note_on_c, 15, 43, 77
9, 70210, Note_on_c, 15, 43, 0
9, 70330, Note_on_c, 15, 48, 77
9, 70450, Note_on_c, 15, 48, 0
9, 70570, Note_on_c, 15, 43, 77
9, 70690, Note_on_c, 15, 43, 0
9, 70810, Note_on_c, 15, 48, 77
9, 70930, Note_on_c, 15, 48, 0
9, 71050, Note_on_c, 15, 43, 77
9, 71170, Note_on_c, 15, 43, 0
9, 71290, Note_on_c, 15, 43, 77
9, 71410, Note_on_c, 15, 43, 0
9, 71530, Note_on_c, 15, 43, 77
9, 71650, Note_on_c, 15, 43, 0
9, 89050, Note_on_c, 15, 43, 79
9, 89170, Note_on_c, 15, 43, 0
9, 89530, Note_on_c, 15, 43, 79
9, 89650, Note_on_c, 15, 43, 0
9, 89770, Note_on_c, 15, 43, 79
9, 89890, Note_on_c, 15, 43, 0
9, 94570, Note_on_c, 15, 43, 79
9, 94690, Note_on_c, 15, 43, 0
9, 95530, Note_on_c, 15, 43, 52
9, 95650, Note_on_c, 15, 43, 0
9, 96490, Note_on_c, 15, 43, 52
9, 96610, Note_on_c, 15, 43, 0
9, 96970, Note_on_c, 15, 43, 52
9, 97090, Note_on_c, 15, 43, 0
9, 97450, Note_on_c, 15, 43, 89
9, 97570, Note_on_c, 15, 43, 0
9, 132010, Note_on_c, 15, 48, 77
9, 132370, Note_on_c, 15, 48, 0
9, 132490, Note_on_c, 15, 48, 81
9, 132850, Note_on_c, 15, 48, 0
9, 132970, Note_on_c, 15, 48, 77
9, 133090, Note_on_c, 15, 48, 0
9, 133210, Note_on_c, 15, 48, 77
9, 133330, Note_on_c, 15, 48, 0
9, 133450, Note_on_c, 15, 48, 77
9, 133570, Note_on_c, 15, 48, 0
9, 141610, Note_on_c, 15, 43, 97
9, 141730, Note_on_c, 15, 43, 0
9, 142210, Note_on_c, 15, 43, 97
9, 142330, Note_on_c, 15, 43, 0
9, 142330, Note_on_c, 15, 43, 97
9, 142450, Note_on_c, 15, 43, 0
9, 142450, Note_on_c, 15, 43, 97
9, 142570, Note_on_c, 15, 43, 0
9, 142570, Note_on_c, 15, 43, 97
9, 142690, Note_on_c, 15, 43, 0
9, 143170, Note_on_c, 15, 43, 97
9, 143290, Note_on_c, 15, 43, 0
9, 143290, Note_on_c, 15, 43, 97
9, 143410, Note_on_c, 15, 43, 0
9, 143410, Note_on_c, 15, 43, 97
9, 143530, Note_on_c, 15, 43, 0
9, 143530, Note_on_c, 15, 43, 97
9, 143650, Note_on_c, 15, 43, 0
9, 144010, Note_on_c, 15, 43, 97
9, 144130, Note_on_c, 15, 43, 0
9, 144490, Note_on_c, 15, 43, 97
9, 144610, Note_on_c, 15, 43, 0
9, 154090, Note_on_c, 15, 43, 83
9, 154210, Note_on_c, 15, 43, 0
9, 154330, Note_on_c, 15, 43, 83
9, 154450, Note_on_c, 15, 43, 0
9, 154570, Note_on_c, 15, 43, 83
9, 154690, Note_on_c, 15, 43, 0
9, 156130, Note_on_c, 15, 43, 60
9, 156250, Note_on_c, 15, 43, 0
9, 156250, Note_on_c, 15, 43, 68
9, 156370, Note_on_c, 15, 43, 0
9, 156370, Note_on_c, 15, 43, 75
9, 156490, Note_on_c, 15, 43, 0
9, 156490, Note_on_c, 15, 48, 83
9, 156610, Note_on_c, 15, 48, 0
9, 156610, Note_on_c, 15, 48, 83
9, 156730, Note_on_c, 15, 48, 0
9, 156730, Note_on_c, 15, 48, 83
9, 156850, Note_on_c, 15, 48, 0
9, 156850, Note_on_c, 15, 43, 83
9, 156970, Note_on_c, 15, 43, 0
9, 156970, Note_on_c, 15, 48, 34
9, 157090, Note_on_c, 15, 48, 0
9, 162490, Note_on_c, 15, 48, 75
9, 162610, Note_on_c, 15, 48, 0
9, 162970, Note_on_c, 15, 48, 81
9, 163090, Note_on_c, 15, 48, 0
9, 163210, Note_on_c, 15, 48, 81
9, 163330, Note_on_c, 15, 48, 0
9, 163450, Note_on_c, 15, 43, 81
9, 163570, Note_on_c, 15, 43, 0
9, 163690, Note_on_c, 15, 48, 81
9, 163810, Note_on_c, 15, 48, 0
9, 163930, Note_on_c, 15, 48, 81
9, 164050, Note_on_c, 15, 48, 0
9, 164170, Note_on_c, 15, 48, 75
9, 164290, Note_on_c, 15, 48, 0
9, 166690, Note_on_c, 15, 48, 94
9, 166810, Note_on_c, 15, 48, 0
9, 166810, Note_on_c, 15, 48, 94
9, 166930, Note_on_c, 15, 48, 0
9, 166930, Note_on_c, 15, 48, 94
9, 167050, Note_on_c, 15, 48, 0
9, 167050, Note_on_c, 15, 43, 94
9, 167290, Note_on_c, 15, 43, 0
9, 167770, Note_on_c, 15, 43, 79
9, 167800, Note_on_c, 15, 43, 0
9, 167800, Note_on_c, 15, 43, 79
9, 167830, Note_on_c, 15, 43, 0
9, 167830, Note_on_c, 15, 43, 79
9, 167860, Note_on_c, 15, 43, 0
9, 167860, Note_on_c, 15, 43, 79
9, 167890, Note_on_c, 15, 43, 0
9, 167890, Note_on_c, 15, 43, 79
9, 167920, Note_on_c, 15, 43, 0
9, 167920, Note_on_c, 15, 43, 79
9, 167950, Note_on_c, 15, 43, 0
9, 167950, Note_on_c, 15, 43, 79
9, 167980, Note_on_c, 15, 43, 0
9, 167980, Note_on_c, 15, 43, 79
9, 168010, Note_on_c, 15, 43, 0
9, 168010, Note_on_c, 15, 48, 77
9, 168130, Note_on_c, 15, 48, 0
9, 170290, Note_on_c, 15, 43, 76
9, 170410, Note_on_c, 15, 43, 0
9, 170410, Note_on_c, 15, 48, 58
9, 170530, Note_on_c, 15, 48, 0
9, 170770, Note_on_c, 15, 43, 104
9, 170830, Note_on_c, 15, 43, 0
9, 170890, Note_on_c, 15, 48, 104
9, 171010, Note_on_c, 15, 48, 0
9, 171850, Note_on_c, 15, 48, 40
9, 171970, Note_on_c, 15, 48, 0
9, 172570, Note_on_c, 15, 48, 40
9, 172690, Note_on_c, 15, 48, 0
9, 175687, Note_on_c, 15, 43, 35
9, 175721, Note_on_c, 15, 43, 0
9, 175730, Note_on_c, 15, 43, 37
9, 175764, Note_on_c, 15, 43, 0
9, 175771, Note_on_c, 15, 43, 36
9, 175805, Note_on_c, 15, 43, 0
9, 175809, Note_on_c, 15, 43, 40
9, 175843, Note_on_c, 15, 43, 0
9, 175853, Note_on_c, 15, 43, 41
9, 175887, Note_on_c, 15, 43, 0
9, 175888, Note_on_c, 15, 43, 44
9, 175922, Note_on_c, 15, 43, 0
9, 175932, Note_on_c, 15, 43, 45
9, 175966, Note_on_c, 15, 43, 0
9, 175970, Note_on_c, 15, 43, 44
9, 176004, Note_on_c, 15, 43, 0
9, 176009, Note_on_c, 15, 43, 49
9, 176043, Note_on_c, 15, 43, 0
9, 176049, Note_on_c, 15, 43, 50
9, 176083, Note_on_c, 15, 43, 0
9, 176091, Note_on_c, 15, 43, 52
9, 176125, Note_on_c, 15, 43, 0
9, 176127, Note_on_c, 15, 43, 54
9, 176161, Note_on_c, 15, 43, 0
9, 176168, Note_on_c, 15, 43, 57
9, 176202, Note_on_c, 15, 43, 0
9, 176209, Note_on_c, 15, 43, 60
9, 176243, Note_on_c, 15, 43, 0
9, 176250, Note_on_c, 15, 43, 63
9, 176284, Note_on_c, 15, 43, 0
9, 176290, Note_on_c, 15, 43, 65
9, 176324, Note_on_c, 15, 43, 0
9, 176332, Note_on_c, 15, 43, 68
9, 176366, Note_on_c, 15, 43, 0
9, 176367, Note_on_c, 15, 43, 74
9, 176401, Note_on_c, 15, 43, 0
9, 176411, Note_on_c, 15, 43, 79
9, 176445, Note_on_c, 15, 43, 0
9, 176451, Note_on_c, 15, 43, 81
9, 176485, Note_on_c, 15, 43, 0
9, 176492, Note_on_c, 15, 43, 87
9, 176526, Note_on_c, 15, 43, 0
9, 176533, Note_on_c, 15, 43, 93
9, 176567, Note_on_c, 15, 43, 0
9, 176572, Note_on_c, 15, 43, 93
9, 176606, Note_on_c, 15, 43, 0
9, 176611, Note_on_c, 15, 43, 97
9, 176645, Note_on_c, 15, 43, 0
9, 176650, Note_on_c, 15, 48, 117
9, 176710, Note_on_c, 15, 48, 0
9, 176890, Note_on_c, 15, 48, 99
9, 176950, Note_on_c, 15, 48, 0
9, 177130, Note_on_c, 15, 48, 99
9, 177190, Note_on_c, 15, 48, 0
9, 177610, Note_on_c, 15, 48, 99
9, 177670, Note_on_c, 15, 48, 0
9, 177850, Note_on_c, 15, 48, 99
9, 177910, Note_on_c, 15, 48, 0
9, 178090, Note_on_c, 15, 48, 99
9, 178150, Note_on_c, 15, 48, 0
9, 178570, Note_on_c, 15, 48, 99
9, 178630, Note_on_c, 15, 48, 0
9, 178810, Note_on_c, 15, 48, 99
9, 178870, Note_on_c, 15, 48, 0
9, 179050, Note_on_c, 15, 48, 99
9, 179110, Note_on_c, 15, 48, 0
9, 179290, Note_on_c, 15, 43, 99
9, 179350, Note_on_c, 15, 43, 0
9, 179530, Note_on_c, 15, 48, 99
9, 179590, Note_on_c, 15, 48, 0
9, 180610, Note_on_c, 15, 48, 93
9, 180730, Note_on_c, 15, 48, 0
9, 180730, Note_on_c, 15, 48, 93
9, 180850, Note_on_c, 15, 48, 0
9, 180850, Note_on_c, 15, 48, 93
9, 180970, Note_on_c, 15, 48, 0
9, 180970, Note_on_c, 15, 48, 93
9, 181090, Note_on_c, 15, 48, 0
9, 182530, Note_on_c, 15, 48, 83
9, 182650, Note_on_c, 15, 48, 0
9, 182650, Note_on_c, 15, 48, 88
9, 182770, Note_on_c, 15, 48, 0
9, 182770, Note_on_c, 15, 48, 93
9, 182890, Note_on_c, 15, 48, 0
9, 182890, Note_on_c, 15, 48, 99
9, 183010, Note_on_c, 15, 48, 0
9, 183370, Note_on_c, 15, 48, 117
9, 183490, Note_on_c, 15, 48, 0
9, 184450, Note_on_c, 15, 48, 78
9, 184570, Note_on_c, 15, 48, 0
9, 184570, Note_on_c, 15, 48, 83
9, 184690, Note_on_c, 15, 48, 0
9, 184690, Note_on_c, 15, 48, 88
9, 184810, Note_on_c, 15, 48, 0
9, 184810, Note_on_c, 15, 48, 93
9, 184930, Note_on_c, 15, 48, 0
9, 185410, Note_on_c, 15, 48, 96
9, 185434, Note_on_c, 15, 48, 0
9, 185442, Note_on_c, 15, 48, 99
9, 185466, Note_on_c, 15, 48, 0
9, 185471, Note_on_c, 15, 48, 99
9, 185495, Note_on_c, 15, 48, 0
9, 185503, Note_on_c, 15, 48, 96
9, 185527, Note_on_c, 15, 48, 0
9, 185530, Note_on_c, 15, 48, 96
9, 185554, Note_on_c, 15, 48, 0
9, 185562, Note_on_c, 15, 48, 90
9, 185586, Note_on_c, 15, 48, 0
9, 185589, Note_on_c, 15, 48, 86
9, 185613, Note_on_c, 15, 48, 0
9, 185624, Note_on_c, 15, 48, 82
9, 185648, Note_on_c, 15, 48, 0
9, 185650, Note_on_c, 15, 48, 82
9, 185674, Note_on_c, 15, 48, 0
9, 185681, Note_on_c, 15, 48, 74
9, 185705, Note_on_c, 15, 48, 0
9, 185709, Note_on_c, 15, 48, 72
9, 185733, Note_on_c, 15, 48, 0
9, 185745, Note_on_c, 15, 48, 68
9, 185769, Note_on_c, 15, 48, 0
9, 185772, Note_on_c, 15, 48, 62
9, 185796, Note_on_c, 15, 48, 0
9, 185802, Note_on_c, 15, 48, 63
9, 185826, Note_on_c, 15, 48, 0
9, 185829, Note_on_c, 15, 48, 65
9, 185853, Note_on_c, 15, 48, 0
9, 185859, Note_on_c, 15, 48, 61
9, 185883, Note_on_c, 15, 48, 0
9, 185888, Note_on_c, 15, 48, 62
9, 185912, Note_on_c, 15, 48, 0
9, 185921, Note_on_c, 15, 48, 64
9, 185945, Note_on_c, 15, 48, 0
9, 185948, Note_on_c, 15, 48, 62
9, 185972, Note_on_c, 15, 48, 0
9, 185976, Note_on_c, 15, 48, 62
9, 186000, Note_on_c, 15, 48, 0
9, 186013, Note_on_c, 15, 48, 65
9, 186037, Note_on_c, 15, 48, 0
9, 186040, Note_on_c, 15, 48, 65
9, 186064, Note_on_c, 15, 48, 0
9, 186069, Note_on_c, 15, 48, 62
9, 186093, Note_on_c, 15, 48, 0
9, 186096, Note_on_c, 15, 48, 64
9, 186120, Note_on_c, 15, 48, 0
9, 186128, Note_on_c, 15, 48, 61
9, 186152, Note_on_c, 15, 48, 0
9, 186161, Note_on_c, 15, 48, 63
9, 186185, Note_on_c, 15, 48, 0
9, 186189, Note_on_c, 15, 48, 65
9, 186213, Note_on_c, 15, 48, 0
9, 186219, Note_on_c, 15, 48, 65
9, 186243, Note_on_c, 15, 48, 0
9, 186252, Note_on_c, 15, 48, 62
9, 186276, Note_on_c, 15, 48, 0
9, 186281, Note_on_c, 15, 48, 61
9, 186305, Note_on_c, 15, 48, 0
9, 186310, Note_on_c, 15, 48, 64
9, 186334, Note_on_c, 15, 48, 0
9, 186339, Note_on_c, 15, 48, 65
9, 186363, Note_on_c, 15, 48, 0
9, 186372, Note_on_c, 15, 48, 63
9, 186396, Note_on_c, 15, 48, 0
9, 186398, Note_on_c, 15, 48, 61
9, 186422, Note_on_c, 15, 48, 0
9, 186430, Note_on_c, 15, 48, 63
9, 186454, Note_on_c, 15, 48, 0
9, 186459, Note_on_c, 15, 48, 63
9, 186483, Note_on_c, 15, 48, 0
9, 186493, Note_on_c, 15, 48, 63
9, 186517, Note_on_c, 15, 48, 0
9, 186521, Note_on_c, 15, 48, 63
9, 186545, Note_on_c, 15, 48, 0
9, 186552, Note_on_c, 15, 48, 64
9, 186576, Note_on_c, 15, 48, 0
9, 186580, Note_on_c, 15, 48, 63
9, 186604, Note_on_c, 15, 48, 0
9, 186611, Note_on_c, 15, 48, 62
9, 186635, Note_on_c, 15, 48, 0
9, 186644, Note_on_c, 15, 48, 61
9, 186668, Note_on_c, 15, 48, 0
9, 186673, Note_on_c, 15, 48, 64
9, 186697, Note_on_c, 15, 48, 0
9, 186703, Note_on_c, 15, 48, 61
9, 186727, Note_on_c, 15, 48, 0
9, 186733, Note_on_c, 15, 48, 65
9, 186757, Note_on_c, 15, 48, 0
9, 186758, Note_on_c, 15, 48, 62
9, 186782, Note_on_c, 15, 48, 0
9, 186790, Note_on_c, 15, 48, 62
9, 186814, Note_on_c, 15, 48, 0
9, 186821, Note_on_c, 15, 48, 62
9, 186845, Note_on_c, 15, 48, 0
9, 186853, Note_on_c, 15, 48, 62
9, 186877, Note_on_c, 15, 48, 0
9, 186881, Note_on_c, 15, 48, 62
9, 186905, Note_on_c, 15, 48, 0
9, 186913, Note_on_c, 15, 48, 63
9, 186937, Note_on_c, 15, 48, 0
9, 186941, Note_on_c, 15, 48, 64
9, 186965, Note_on_c, 15, 48, 0
9, 186975, Note_on_c, 15, 48, 70
9, 186999, Note_on_c, 15, 48, 0
9, 187003, Note_on_c, 15, 48, 76
9, 187027, Note_on_c, 15, 48, 0
9, 187029, Note_on_c, 15, 48, 79
9, 187053, Note_on_c, 15, 48, 0
9, 187060, Note_on_c, 15, 48, 78
9, 187084, Note_on_c, 15, 48, 0
9, 187089, Note_on_c, 15, 48, 81
9, 187113, Note_on_c, 15, 48, 0
9, 187121, Note_on_c, 15, 48, 87
9, 187145, Note_on_c, 15, 48, 0
9, 187154, Note_on_c, 15, 48, 87
9, 187178, Note_on_c, 15, 48, 0
9, 187180, Note_on_c, 15, 48, 90
9, 187204, Note_on_c, 15, 48, 0
9, 187210, Note_on_c, 15, 48, 109
9, 187330, Note_on_c, 15, 48, 0
9, 187690, Note_on_c, 15, 48, 102
9, 187810, Note_on_c, 15, 48, 0
9, 188170, Note_on_c, 15, 48, 102
9, 188290, Note_on_c, 15, 48, 0
9, 188650, Note_on_c, 15, 48, 102
9, 188770, Note_on_c, 15, 48, 0
9, 188890, Note_on_c, 15, 48, 102
9, 189010, Note_on_c, 15, 48, 0
9, 189130, Note_on_c, 15, 48, 102
9, 189250, Note_on_c, 15, 48, 0
9, 189610, Control_c, 15, 121, 0
9, 189610, End_track
10, 0, Start_track
10, 0, MIDI_port, 0
10, 0, Title_t, "Violine I"
10, 0, Program_c, 10, 48
10, 0, Control_c, 10, 10, 12
10, 0, Control_c, 10, 121, 0
10, 5, Program_c, 10, 45
10, 10, Pitch_bend_c, 10, 8342
10, 15, Control_c, 10, 11, 100
10, 20, Control_c, 10, 7, 127
10, 25, Control_c, 10, 91, 32
10, 30, Control_c, 10, 93, 0
10, 35, Control_c, 10, 10, 12
10, 40, Control_c, 10, 1, 36
10, 482, Note_on_c, 10, 70, 42
10, 484, Note_on_c, 10, 76, 42
10, 485, Note_on_c, 10, 67, 50
10, 602, Note_on_c, 10, 70, 0
10, 604, Note_on_c, 10, 76, 0
10, 605, Note_on_c, 10, 67, 0
10, 720, Note_on_c, 10, 65, 28
10, 722, Note_on_c, 10, 69, 24
10, 724, Note_on_c, 10, 77, 24
10, 840, Note_on_c, 10, 65, 0
10, 842, Note_on_c, 10, 69, 0
10, 844, Note_on_c, 10, 77, 0
10, 960, Note_on_c, 10, 55, 50
10, 962, Note_on_c, 10, 65, 50
10, 964, Note_on_c, 10, 71, 50
10, 1080, Note_on_c, 10, 55, 0
10, 1082, Note_on_c, 10, 65, 0
10, 1084, Note_on_c, 10, 71, 0
10, 1200, Note_on_c, 10, 57, 28
10, 1202, Note_on_c, 10, 64, 28
10, 1204, Note_on_c, 10, 72, 28
10, 1320, Note_on_c, 10, 57, 0
10, 1322, Note_on_c, 10, 64, 0
10, 1324, Note_on_c, 10, 72, 0
10, 1440, Note_on_c, 10, 62, 37
10, 1442, Note_on_c, 10, 72, 31
10, 1444, Note_on_c, 10, 78, 31
10, 1560, Note_on_c, 10, 62, 0
10, 1562, Note_on_c, 10, 72, 0
10, 1564, Note_on_c, 10, 78, 0
10, 1680, Note_on_c, 10, 62, 50
10, 1682, Note_on_c, 10, 72, 41
10, 1684, Note_on_c, 10, 78, 41
10, 1800, Note_on_c, 10, 62, 0
10, 1800, Note_on_c, 10, 62, 68
10, 1802, Note_on_c, 10, 72, 0
10, 1802, Note_on_c, 10, 72, 57
10, 1804, Note_on_c, 10, 78, 0
10, 1804, Note_on_c, 10, 78, 56
10, 1919, Program_c, 10, 48
10, 1920, Note_on_c, 10, 62, 0
10, 1920, Control_c, 10, 11, 57
10, 1920, Note_on_c, 10, 71, 110
10, 1920, Note_on_c, 10, 79, 110
10, 1920, Note_on_c, 10, 62, 110
10, 1920, Note_on_c, 10, 55, 110
10, 1922, Note_on_c, 10, 72, 0
10, 1922, Control_c, 10, 11, 61
10, 1924, Note_on_c, 10, 78, 0
10, 1924, Control_c, 10, 11, 65
10, 1926, Control_c, 10, 11, 69
10, 1928, Control_c, 10, 11, 73
10, 1930, Control_c, 10, 11, 77
10, 1932, Control_c, 10, 11, 81
10, 1934, Control_c, 10, 11, 85
10, 2040, Note_on_c, 10, 62, 0
10, 2040, Note_on_c, 10, 71, 0
10, 2040, Note_on_c, 10, 55, 0
10, 2060, Control_c, 10, 11, 87
10, 2064, Control_c, 10, 11, 84
10, 2069, Control_c, 10, 11, 81
10, 2074, Control_c, 10, 11, 78
10, 2078, Control_c, 10, 11, 75
10, 2083, Control_c, 10, 11, 72
10, 2088, Control_c, 10, 11, 69
10, 2092, Control_c, 10, 11, 66
10, 2095, Note_on_c, 10, 79, 0
10, 2097, Control_c, 10, 11, 63
10, 2100, Note_on_c, 10, 80, 110
10, 2100, Control_c, 10, 11, 32
10, 2112, Control_c, 10, 11, 35
10, 2124, Control_c, 10, 11, 38
10, 2136, Control_c, 10, 11, 41
10, 2148, Control_c, 10, 11, 44
10, 2160, Note_on_c, 10, 80, 0
10, 2160, Note_on_c, 10, 81, 110
10, 2160, Control_c, 10, 11, 47
10, 2220, Note_on_c, 10, 81, 0
10, 2220, Note_on_c, 10, 77, 110
10, 2280, Note_on_c, 10, 77, 0
10, 2280, Note_on_c, 10, 74, 110
10, 2340, Note_on_c, 10, 74, 0
10, 2340, Note_on_c, 10, 72, 110
10, 2395, Note_on_c, 10, 72, 0
10, 2400, Control_c, 10, 11, 37
10, 2400, Note_on_c, 10, 71, 110
10, 2406, Control_c, 10, 11, 40
10, 2412, Control_c, 10, 11, 43
10, 2418, Control_c, 10, 11, 46
10, 2424, Control_c, 10, 11, 49
10, 2430, Control_c, 10, 11, 52
10, 2447, Control_c, 10, 11, 53
10, 2471, Control_c, 10, 11, 51
10, 2490, Note_on_c, 10, 71, 0
10, 2490, Note_on_c, 10, 74, 110
10, 2495, Control_c, 10, 11, 49
10, 2505, Note_on_c, 10, 74, 0
10, 2505, Note_on_c, 10, 72, 110
10, 2510, Note_on_c, 10, 72, 0
10, 2519, Control_c, 10, 11, 47
10, 2520, Note_on_c, 10, 71, 110
10, 2640, Control_c, 10, 11, 47
10, 2655, Control_c, 10, 11, 49
10, 2665, Note_on_c, 10, 71, 0
10, 2670, Note_on_c, 10, 72, 110
10, 2671, Control_c, 10, 11, 51
10, 2687, Control_c, 10, 11, 53
10, 2700, Note_on_c, 10, 72, 0
10, 2700, Note_on_c, 10, 74, 110
10, 2703, Control_c, 10, 11, 55
10, 2719, Control_c, 10, 11, 57
10, 2730, Note_on_c, 10, 74, 0
10, 2730, Note_on_c, 10, 76, 110
10, 2735, Control_c, 10, 11, 59
10, 2751, Control_c, 10, 11, 61
10, 2760, Note_on_c, 10, 76, 0
10, 2760, Note_on_c, 10, 77, 110
10, 2767, Control_c, 10, 11, 61
10, 2783, Control_c, 10, 11, 59
10, 2790, Note_on_c, 10, 77, 0
10, 2790, Note_on_c, 10, 74, 110
10, 2799, Control_c, 10, 11, 57
10, 2815, Control_c, 10, 11, 55
10, 2820, Note_on_c, 10, 74, 0
10, 2820, Note_on_c, 10, 72, 110
10, 2831, Control_c, 10, 11, 53
10, 2847, Control_c, 10, 11, 51
10, 2850, Note_on_c, 10, 72, 0
10, 2850, Note_on_c, 10, 71, 110
10, 2863, Control_c, 10, 11, 49
10, 2875, Note_on_c, 10, 71, 0
10, 2879, Control_c, 10, 11, 47
10, 2880, Control_c, 10, 11, 37
10, 2880, Note_on_c, 10, 74, 110
10, 2888, Control_c, 10, 11, 40
10, 2897, Control_c, 10, 11, 43
10, 2906, Control_c, 10, 11, 46
10, 2915, Control_c, 10, 11, 49
10, 2924, Control_c, 10, 11, 52
10, 2939, Control_c, 10, 11, 52
10, 2963, Control_c, 10, 11, 50
10, 2970, Note_on_c, 10, 74, 0
10, 2970, Note_on_c, 10, 72, 110
10, 2987, Control_c, 10, 11, 48
10, 2995, Note_on_c, 10, 72, 0
10, 3000, Note_on_c, 10, 72, 110
10, 3145, Note_on_c, 10, 72, 0
10, 3150, Note_on_c, 10, 71, 110
10, 3180, Note_on_c, 10, 71, 0
10, 3180, Note_on_c, 10, 72, 110
10, 3210, Note_on_c, 10, 72, 0
10, 3210, Note_on_c, 10, 71, 110
10, 3240, Note_on_c, 10, 71, 0
10, 3240, Note_on_c, 10, 72, 110
10, 3270, Note_on_c, 10, 72, 0
10, 3270, Note_on_c, 10, 71, 110
10, 3300, Note_on_c, 10, 71, 0
10, 3300, Note_on_c, 10, 72, 110
10, 3330, Note_on_c, 10, 72, 0
10, 3330, Note_on_c, 10, 73, 110
10, 3355, Note_on_c, 10, 73, 0
10, 3360, Note_on_c, 10, 74, 110
10, 3360, Control_c, 10, 11, 47
10, 3384, Control_c, 10, 11, 49
10, 3408, Control_c, 10, 11, 51
10, 3432, Control_c, 10, 11, 53
10, 3450, Note_on_c, 10, 74, 0
10, 3450, Note_on_c, 10, 77, 110
10, 3456, Control_c, 10, 11, 55
10, 3465, Note_on_c, 10, 77, 0
10, 3465, Note_on_c, 10, 76, 110
10, 3477, Note_on_c, 10, 76, 0
10, 3480, Note_on_c, 10, 74, 110
10, 3480, Control_c, 10, 11, 57
10, 3504, Control_c, 10, 11, 59
10, 3528, Control_c, 10, 11, 61
10, 3552, Control_c, 10, 11, 63
10, 3576, Control_c, 10, 11, 65
10, 3600, Control_c, 10, 11, 67
10, 3624, Control_c, 10, 11, 69
10, 3627, Note_on_c, 10, 74, 0
10, 3630, Note_on_c, 10, 73, 110
10, 3648, Control_c, 10, 11, 71
10, 3660, Note_on_c, 10, 73, 0
10, 3660, Note_on_c, 10, 74, 110
10, 3672, Control_c, 10, 11, 73
10, 3690, Note_on_c, 10, 74, 0
10, 3690, Note_on_c, 10, 76, 110
10, 3696, Control_c, 10, 11, 75
10, 3720, Note_on_c, 10, 76, 0
10, 3720, Note_on_c, 10, 77, 110
10, 3720, Control_c, 10, 11, 77
10, 3744, Control_c, 10, 11, 79
10, 3750, Note_on_c, 10, 77, 0
10, 3750, Note_on_c, 10, 79, 110
10, 3768, Control_c, 10, 11, 81
10, 3780, Note_on_c, 10, 79, 0
10, 3780, Note_on_c, 10, 81, 110
10, 3792, Control_c, 10, 11, 83
10, 3810, Note_on_c, 10, 81, 0
10, 3810, Note_on_c, 10, 77, 110
10, 3816, Control_c, 10, 11, 85
10, 3837, Note_on_c, 10, 77, 0
10, 3840, Control_c, 10, 11, 77
10, 3840, Note_on_c, 10, 76, 110
10, 3849, Control_c, 10, 11, 80
10, 3858, Control_c, 10, 11, 83
10, 3867, Control_c, 10, 11, 86
10, 3930, Control_c, 10, 11, 87
10, 3932, Control_c, 10, 11, 83
10, 3934, Control_c, 10, 11, 79
10, 3936, Control_c, 10, 11, 76
10, 3938, Control_c, 10, 11, 72
10, 3940, Control_c, 10, 11, 69
10, 3942, Control_c, 10, 11, 65
10, 3944, Note_on_c, 10, 76, 0
10, 3944, Control_c, 10, 11, 62
10, 4080, Note_on_c, 10, 57, 100
10, 4080, Control_c, 10, 11, 67
10, 4080, Note_on_c, 10, 74, 100
10, 4080, Note_on_c, 10, 65, 100
10, 4084, Control_c, 10, 11, 70
10, 4089, Control_c, 10, 11, 73
10, 4093, Control_c, 10, 11, 76
10, 4098, Control_c, 10, 11, 79
10, 4102, Control_c, 10, 11, 82
10, 4107, Control_c, 10, 11, 85
10, 4180, Control_c, 10, 11, 87
10, 4182, Control_c, 10, 11, 83
10, 4184, Control_c, 10, 11, 79
10, 4186, Control_c, 10, 11, 76
10, 4188, Control_c, 10, 11, 72
10, 4190, Control_c, 10, 11, 69
10, 4192, Control_c, 10, 11, 65
10, 4194, Note_on_c, 10, 65, 0
10, 4194, Note_on_c, 10, 74, 0
10, 4194, Note_on_c, 10, 57, 0
10, 4194, Control_c, 10, 11, 62
10, 4320, Note_on_c, 10, 72, 100
10, 4320, Note_on_c, 10, 64, 100
10, 4320, Note_on_c, 10, 55, 100
10, 4320, Control_c, 10, 11, 27
10, 4326, Control_c, 10, 11, 30
10, 4332, Control_c, 10, 11, 33
10, 4338, Control_c, 10, 11, 36
10, 4344, Control_c, 10, 11, 39
10, 4350, Control_c, 10, 11, 42
10, 4497, Note_on_c, 10, 55, 0
10, 4497, Note_on_c, 10, 64, 0
10, 4497, Note_on_c, 10, 72, 0
10, 4500, Note_on_c, 10, 76, 110
10, 4557, Note_on_c, 10, 76, 0
10, 4560, Note_on_c, 10, 76, 110
10, 4560, Control_c, 10, 11, 42
10, 4573, Control_c, 10, 11, 45
10, 4586, Control_c, 10, 11, 48
10, 4599, Control_c, 10, 11, 51
10, 4612, Control_c, 10, 11, 54
10, 4620, Note_on_c, 10, 76, 0
10, 4620, Note_on_c, 10, 74, 110
10, 4625, Control_c, 10, 11, 57
10, 4638, Control_c, 10, 11, 60
10, 4651, Control_c, 10, 11, 63
10, 4664, Control_c, 10, 11, 66
10, 4677, Control_c, 10, 11, 69
10, 4680, Note_on_c, 10, 74, 0
10, 4680, Note_on_c, 10, 72, 110
10, 4690, Control_c, 10, 11, 72
10, 4704, Control_c, 10, 11, 75
10, 4717, Control_c, 10, 11, 78
10, 4730, Control_c, 10, 11, 81
10, 4740, Note_on_c, 10, 72, 0
10, 4740, Note_on_c, 10, 71, 110
10, 4743, Control_c, 10, 11, 84
10, 4756, Control_c, 10, 11, 87
10, 4769, Control_c, 10, 11, 90
10, 4782, Control_c, 10, 11, 93
10, 4795, Control_c, 10, 11, 96
10, 4797, Note_on_c, 10, 71, 0
10, 4800, Note_on_c, 10, 72, 109
10, 4800, Note_on_c, 10, 57, 109
10, 4800, Note_on_c, 10, 64, 109
10, 4800, Control_c, 10, 11, 77
10, 4809, Control_c, 10, 11, 80
10, 4818, Control_c, 10, 11, 83
10, 4827, Control_c, 10, 11, 86
10, 4890, Control_c, 10, 11, 97
10, 4891, Control_c, 10, 11, 94
10, 4893, Control_c, 10, 11, 89
10, 4895, Control_c, 10, 11, 84
10, 4897, Control_c, 10, 11, 79
10, 4899, Control_c, 10, 11, 74
10, 4901, Control_c, 10, 11, 69
10, 4903, Control_c, 10, 11, 64
10, 4904, Note_on_c, 10, 64, 0
10, 4904, Note_on_c, 10, 57, 0
10, 4904, Note_on_c, 10, 72, 0
10, 5040, Control_c, 10, 11, 67
10, 5040, Note_on_c, 10, 72, 100
10, 5040, Note_on_c, 10, 81, 100
10, 5040, Note_on_c, 10, 65, 100
10, 5044, Control_c, 10, 11, 70
10, 5049, Control_c, 10, 11, 73
10, 5053, Control_c, 10, 11, 76
10, 5058, Control_c, 10, 11, 79
10, 5062, Control_c, 10, 11, 82
10, 5067, Control_c, 10, 11, 85
10, 5140, Control_c, 10, 11, 87
10, 5142, Control_c, 10, 11, 83
10, 5144, Control_c, 10, 11, 79
10, 5146, Control_c, 10, 11, 76
10, 5148, Control_c, 10, 11, 72
10, 5150, Control_c, 10, 11, 69
10, 5152, Control_c, 10, 11, 65
10, 5154, Note_on_c, 10, 65, 0
10, 5154, Note_on_c, 10, 81, 0
10, 5154, Note_on_c, 10, 72, 0
10, 5154, Control_c, 10, 11, 62
10, 5280, Control_c, 10, 11, 67
10, 5280, Note_on_c, 10, 64, 100
10, 5280, Note_on_c, 10, 55, 100
10, 5280, Note_on_c, 10, 72, 100
10, 5284, Control_c, 10, 11, 70
10, 5289, Control_c, 10, 11, 73
10, 5293, Control_c, 10, 11, 76
10, 5298, Control_c, 10, 11, 79
10, 5302, Control_c, 10, 11, 82
10, 5307, Control_c, 10, 11, 85
10, 5370, Control_c, 10, 11, 87
10, 5372, Control_c, 10, 11, 84
10, 5375, Control_c, 10, 11, 80
10, 5378, Control_c, 10, 11, 77
10, 5380, Control_c, 10, 11, 74
10, 5383, Control_c, 10, 11, 71
10, 5385, Control_c, 10, 11, 68
10, 5388, Control_c, 10, 11, 65
10, 5390, Control_c, 10, 11, 62
10, 5393, Control_c, 10, 11, 59
10, 5395, Control_c, 10, 11, 56
10, 5398, Control_c, 10, 11, 53
10, 5400, Note_on_c, 10, 72, 0
10, 5400, Note_on_c, 10, 55, 0
10, 5400, Note_on_c, 10, 64, 0
10, 5760, Control_c, 10, 11, 32
10, 5760, Note_on_c, 10, 55, 110
10, 5776, Control_c, 10, 11, 34
10, 5792, Control_c, 10, 11, 36
10, 5808, Control_c, 10, 11, 38
10, 5820, Note_on_c, 10, 55, 0
10, 5820, Note_on_c, 10, 57, 95
10, 5824, Control_c, 10, 11, 40
10, 5840, Control_c, 10, 11, 42
10, 5850, Note_on_c, 10, 57, 0
10, 5850, Note_on_c, 10, 59, 97
10, 5856, Control_c, 10, 11, 44
10, 5872, Control_c, 10, 11, 46
10, 5880, Note_on_c, 10, 59, 0
10, 5880, Note_on_c, 10, 60, 100
10, 5910, Note_on_c, 10, 60, 0
10, 5910, Note_on_c, 10, 62, 102
10, 5940, Note_on_c, 10, 62, 0
10, 5940, Note_on_c, 10, 64, 105
10, 5970, Note_on_c, 10, 64, 0
10, 5970, Note_on_c, 10, 66, 107
10, 5995, Note_on_c, 10, 66, 0
10, 6000, Note_on_c, 10, 67, 110
10, 6175, Note_on_c, 10, 67, 0
10, 6180, Note_on_c, 10, 67, 95
10, 6195, Note_on_c, 10, 67, 0
10, 6195, Note_on_c, 10, 65, 95
10, 6210, Note_on_c, 10, 65, 0
10, 6210, Note_on_c, 10, 64, 95
10, 6225, Note_on_c, 10, 64, 0
10, 6225, Note_on_c, 10, 62, 95
10, 6240, Note_on_c, 10, 62, 0
10, 6240, Note_on_c, 10, 60, 110
10, 6510, Control_c, 10, 11, 47
10, 6518, Control_c, 10, 11, 44
10, 6526, Control_c, 10, 11, 41
10, 6534, Control_c, 10, 11, 38
10, 6542, Control_c, 10, 11, 35
10, 6548, Note_on_c, 10, 60, 0
10, 6550, Control_c, 10, 11, 32
10, 6600, Note_on_c, 10, 55, 110
10, 6600, Control_c, 10, 11, 47
10, 6690, Note_on_c, 10, 55, 0
10, 6690, Note_on_c, 10, 59, 110
10, 6710, Note_on_c, 10, 59, 0
10, 6720, Note_on_c, 10, 60, 110
10, 6990, Control_c, 10, 11, 47
10, 6998, Control_c, 10, 11, 44
10, 7006, Control_c, 10, 11, 41
10, 7014, Control_c, 10, 11, 38
10, 7022, Control_c, 10, 11, 35
10, 7028, Note_on_c, 10, 60, 0
10, 7030, Control_c, 10, 11, 32
10, 7080, Note_on_c, 10, 55, 110
10, 7080, Control_c, 10, 11, 47
10, 7170, Note_on_c, 10, 55, 0
10, 7170, Note_on_c, 10, 59, 110
10, 7190, Note_on_c, 10, 59, 0
10, 7200, Note_on_c, 10, 60, 110
10, 7230, Note_on_c, 10, 60, 0
10, 7260, Note_on_c, 10, 60, 110
10, 7290, Note_on_c, 10, 60, 0
10, 7320, Note_on_c, 10, 55, 110
10, 7350, Note_on_c, 10, 55, 0
10, 7380, Note_on_c, 10, 59, 110
10, 7410, Note_on_c, 10, 59, 0
10, 7440, Note_on_c, 10, 60, 110
10, 7470, Note_on_c, 10, 60, 0
10, 7500, Note_on_c, 10, 60, 110
10, 7530, Note_on_c, 10, 60, 0
10, 7560, Note_on_c, 10, 55, 110
10, 7590, Note_on_c, 10, 55, 0
10, 7620, Note_on_c, 10, 59, 110
10, 7650, Note_on_c, 10, 59, 0
10, 7680, Note_on_c, 10, 60, 110
10, 7740, Note_on_c, 10, 60, 0
10, 7800, Note_on_c, 10, 64, 110
10, 7860, Note_on_c, 10, 64, 0
10, 7920, Note_on_c, 10, 67, 110
10, 7980, Note_on_c, 10, 67, 0
10, 8040, Note_on_c, 10, 71, 110
10, 8100, Note_on_c, 10, 71, 0
10, 8160, Note_on_c, 10, 72, 110
10, 8280, Note_on_c, 10, 72, 0
10, 9000, Note_on_c, 10, 69, 110
10, 9030, Note_on_c, 10, 69, 0
10, 9030, Note_on_c, 10, 67, 110
10, 9060, Note_on_c, 10, 67, 0
10, 9060, Note_on_c, 10, 65, 110
10, 9090, Note_on_c, 10, 65, 0
10, 9090, Note_on_c, 10, 64, 110
10, 9120, Note_on_c, 10, 64, 0
10, 9120, Note_on_c, 10, 62, 110
10, 9390, Control_c, 10, 11, 47
10, 9398, Control_c, 10, 11, 44
10, 9406, Control_c, 10, 11, 41
10, 9414, Control_c, 10, 11, 38
10, 9422, Control_c, 10, 11, 35
10, 9428, Note_on_c, 10, 62, 0
10, 9430, Control_c, 10, 11, 32
10, 9480, Note_on_c, 10, 57, 110
10, 9480, Control_c, 10, 11, 47
10, 9570, Note_on_c, 10, 57, 0
10, 9570, Note_on_c, 10, 61, 110
10, 9600, Note_on_c, 10, 61, 0
10, 9600, Note_on_c, 10, 62, 110
10, 9870, Control_c, 10, 11, 47
10, 9878, Control_c, 10, 11, 44
10, 9886, Control_c, 10, 11, 41
10, 9894, Control_c, 10, 11, 38
10, 9902, Control_c, 10, 11, 35
10, 9908, Note_on_c, 10, 62, 0
10, 9910, Control_c, 10, 11, 32
10, 9960, Note_on_c, 10, 57, 110
10, 9960, Control_c, 10, 11, 47
10, 10050, Note_on_c, 10, 57, 0
10, 10050, Note_on_c, 10, 61, 110
10, 10080, Note_on_c, 10, 61, 0
10, 10080, Note_on_c, 10, 62, 110
10, 10110, Note_on_c, 10, 62, 0
10, 10140, Note_on_c, 10, 62, 110
10, 10170, Note_on_c, 10, 62, 0
10, 10200, Note_on_c, 10, 57, 110
10, 10230, Note_on_c, 10, 57, 0
10, 10260, Note_on_c, 10, 61, 110
10, 10290, Note_on_c, 10, 61, 0
10, 10320, Note_on_c, 10, 62, 110
10, 10350, Note_on_c, 10, 62, 0
10, 10380, Note_on_c, 10, 62, 110
10, 10410, Note_on_c, 10, 62, 0
10, 10440, Note_on_c, 10, 57, 110
10, 10470, Note_on_c, 10, 57, 0
10, 10500, Note_on_c, 10, 61, 110
10, 10530, Note_on_c, 10, 61, 0
10, 10560, Note_on_c, 10, 62, 110
10, 10620, Note_on_c, 10, 62, 0
10, 10680, Note_on_c, 10, 65, 110
10, 10740, Note_on_c, 10, 65, 0
10, 10800, Note_on_c, 10, 69, 110
10, 10860, Note_on_c, 10, 69, 0
10, 10920, Note_on_c, 10, 73, 110
10, 10980, Note_on_c, 10, 73, 0
10, 11040, Note_on_c, 10, 74, 110
10, 11040, Control_c, 10, 11, 32
10, 11051, Control_c, 10, 11, 35
10, 11062, Control_c, 10, 11, 38
10, 11073, Control_c, 10, 11, 41
10, 11085, Control_c, 10, 11, 44
10, 11096, Control_c, 10, 11, 47
10, 11136, Control_c, 10, 11, 50
10, 11160, Note_on_c, 10, 74, 0
10, 11520, Control_c, 10, 11, 62
10, 11520, Note_on_c, 10, 62, 110
10, 11540, Note_on_c, 10, 62, 0
10, 11540, Note_on_c, 10, 60, 110
10, 11552, Control_c, 10, 11, 63
10, 11560, Note_on_c, 10, 60, 0
10, 11560, Note_on_c, 10, 62, 110
10, 11580, Note_on_c, 10, 62, 0
10, 11580, Note_on_c, 10, 60, 110
10, 11584, Control_c, 10, 11, 64
10, 11600, Note_on_c, 10, 60, 0
10, 11600, Note_on_c, 10, 62, 110
10, 11616, Control_c, 10, 11, 65
10, 11620, Note_on_c, 10, 62, 0
10, 11620, Note_on_c, 10, 60, 110
10, 11640, Note_on_c, 10, 60, 0
10, 11640, Note_on_c, 10, 62, 110
10, 11648, Control_c, 10, 11, 66
10, 11660, Note_on_c, 10, 62, 0
10, 11660, Note_on_c, 10, 60, 110
10, 11680, Note_on_c, 10, 60, 0
10, 11680, Control_c, 10, 11, 67
10, 11680, Note_on_c, 10, 62, 110
10, 11700, Note_on_c, 10, 62, 0
10, 11700, Note_on_c, 10, 60, 110
10, 11712, Control_c, 10, 11, 68
10, 11720, Note_on_c, 10, 60, 0
10, 11720, Note_on_c, 10, 62, 110
10, 11740, Note_on_c, 10, 62, 0
10, 11740, Note_on_c, 10, 60, 110
10, 11744, Control_c, 10, 11, 69
10, 11760, Note_on_c, 10, 60, 0
10, 11760, Note_on_c, 10, 62, 110
10, 11776, Control_c, 10, 11, 70
10, 11780, Note_on_c, 10, 62, 0
10, 11780, Note_on_c, 10, 60, 110
10, 11800, Note_on_c, 10, 60, 0
10, 11800, Note_on_c, 10, 62, 110
10, 11808, Control_c, 10, 11, 71
10, 11820, Note_on_c, 10, 62, 0
10, 11820, Note_on_c, 10, 60, 110
10, 11840, Note_on_c, 10, 60, 0
10, 11840, Control_c, 10, 11, 72
10, 11840, Note_on_c, 10, 62, 110
10, 11860, Note_on_c, 10, 62, 0
10, 11860, Note_on_c, 10, 60, 110
10, 11872, Control_c, 10, 11, 73
10, 11880, Note_on_c, 10, 60, 0
10, 11880, Note_on_c, 10, 62, 110
10, 11900, Note_on_c, 10, 62, 0
10, 11900, Note_on_c, 10, 60, 110
10, 11904, Control_c, 10, 11, 74
10, 11920, Note_on_c, 10, 60, 0
10, 11920, Note_on_c, 10, 62, 110
10, 11936, Control_c, 10, 11, 75
10, 11940, Note_on_c, 10, 62, 0
10, 11940, Note_on_c, 10, 59, 110
10, 11968, Control_c, 10, 11, 76
10, 11970, Note_on_c, 10, 59, 0
10, 11970, Note_on_c, 10, 60, 110
10, 12000, Note_on_c, 10, 60, 0
10, 12000, Control_c, 10, 11, 84
10, 12000, Note_on_c, 10, 59, 110
10, 12005, Control_c, 10, 11, 87
10, 12010, Control_c, 10, 11, 90
10, 12015, Control_c, 10, 11, 93
10, 12035, Control_c, 10, 11, 91
10, 12053, Control_c, 10, 11, 88
10, 12071, Control_c, 10, 11, 85
10, 12089, Control_c, 10, 11, 82
10, 12107, Control_c, 10, 11, 79
10, 12120, Control_c, 10, 11, 67
10, 12270, Control_c, 10, 11, 67
10, 12276, Control_c, 10, 11, 64
10, 12282, Control_c, 10, 11, 61
10, 12288, Control_c, 10, 11, 58
10, 12294, Control_c, 10, 11, 55
10, 12300, Control_c, 10, 11, 52
10, 12306, Control_c, 10, 11, 49
10, 12308, Note_on_c, 10, 59, 0
10, 12360, Control_c, 10, 11, 67
10, 12360, Note_on_c, 10, 55, 110
10, 12450, Note_on_c, 10, 55, 0
10, 12450, Note_on_c, 10, 59, 110
10, 12480, Note_on_c, 10, 59, 0
10, 12480, Note_on_c, 10, 62, 110
10, 12510, Note_on_c, 10, 62, 0
10, 12540, Note_on_c, 10, 62, 110
10, 12570, Note_on_c, 10, 62, 0
10, 12600, Note_on_c, 10, 55, 110
10, 12630, Note_on_c, 10, 55, 0
10, 12660, Note_on_c, 10, 59, 110
10, 12690, Note_on_c, 10, 59, 0
10, 12720, Note_on_c, 10, 62, 110
10, 12750, Note_on_c, 10, 62, 0
10, 12780, Note_on_c, 10, 62, 110
10, 12810, Note_on_c, 10, 62, 0
10, 12840, Note_on_c, 10, 55, 110
10, 12840, Control_c, 10, 11, 67
10, 12930, Note_on_c, 10, 55, 0
10, 12930, Note_on_c, 10, 59, 110
10, 12960, Note_on_c, 10, 59, 0
10, 12960, Control_c, 10, 11, 84
10, 12960, Note_on_c, 10, 62, 110
10, 12965, Control_c, 10, 11, 87
10, 12970, Control_c, 10, 11, 90
10, 12976, Control_c, 10, 11, 93
10, 12996, Control_c, 10, 11, 91
10, 13014, Control_c, 10, 11, 88
10, 13032, Control_c, 10, 11, 85
10, 13050, Control_c, 10, 11, 82
10, 13068, Control_c, 10, 11, 79
10, 13230, Control_c, 10, 11, 67
10, 13236, Control_c, 10, 11, 64
10, 13242, Control_c, 10, 11, 61
10, 13248, Control_c, 10, 11, 58
10, 13254, Control_c, 10, 11, 55
10, 13260, Control_c, 10, 11, 52
10, 13266, Control_c, 10, 11, 49
10, 13268, Note_on_c, 10, 62, 0
10, 13320, Note_on_c, 10, 55, 110
10, 13320, Control_c, 10, 11, 67
10, 13410, Note_on_c, 10, 55, 0
10, 13410, Note_on_c, 10, 59, 110
10, 13440, Note_on_c, 10, 59, 0
10, 13440, Note_on_c, 10, 62, 110
10, 13470, Note_on_c, 10, 62, 0
10, 13500, Note_on_c, 10, 62, 110
10, 13530, Note_on_c, 10, 62, 0
10, 13560, Note_on_c, 10, 55, 110
10, 13590, Note_on_c, 10, 55, 0
10, 13620, Note_on_c, 10, 59, 110
10, 13650, Note_on_c, 10, 59, 0
10, 13680, Note_on_c, 10, 62, 110
10, 13710, Note_on_c, 10, 62, 0
10, 13740, Note_on_c, 10, 62, 110
10, 13770, Note_on_c, 10, 62, 0
10, 13800, Control_c, 10, 11, 67
10, 13800, Note_on_c, 10, 59, 110
10, 13890, Note_on_c, 10, 59, 0
10, 13890, Note_on_c, 10, 62, 110
10, 13920, Note_on_c, 10, 62, 0
10, 13920, Note_on_c, 10, 65, 110
10, 13920, Control_c, 10, 11, 84
10, 13925, Control_c, 10, 11, 87
10, 13930, Control_c, 10, 11, 90
10, 13936, Control_c, 10, 11, 93
10, 13956, Control_c, 10, 11, 91
10, 13974, Control_c, 10, 11, 88
10, 13992, Control_c, 10, 11, 85
10, 14010, Control_c, 10, 11, 82
10, 14028, Control_c, 10, 11, 79
10, 14190, Control_c, 10, 11, 67
10, 14196, Control_c, 10, 11, 64
10, 14202, Control_c, 10, 11, 61
10, 14208, Control_c, 10, 11, 58
10, 14214, Control_c, 10, 11, 55
10, 14220, Control_c, 10, 11, 52
10, 14226, Control_c, 10, 11, 49
10, 14228, Note_on_c, 10, 65, 0
10, 14280, Note_on_c, 10, 71, 100
10, 14280, Control_c, 10, 11, 67
10, 14370, Note_on_c, 10, 71, 0
10, 14370, Note_on_c, 10, 74, 100
10, 14400, Note_on_c, 10, 74, 0
10, 14400, Control_c, 10, 11, 77
10, 14400, Note_on_c, 10, 77, 100
10, 14419, Control_c, 10, 11, 78
10, 14430, Note_on_c, 10, 77, 0
10, 14438, Control_c, 10, 11, 79
10, 14457, Control_c, 10, 11, 80
10, 14460, Note_on_c, 10, 74, 100
10, 14476, Control_c, 10, 11, 81
10, 14490, Note_on_c, 10, 74, 0
10, 14495, Control_c, 10, 11, 82
10, 14514, Control_c, 10, 11, 83
10, 14520, Note_on_c, 10, 71, 100
10, 14534, Control_c, 10, 11, 84
10, 14550, Note_on_c, 10, 71, 0
10, 14553, Control_c, 10, 11, 85
10, 14572, Control_c, 10, 11, 86
10, 14580, Note_on_c, 10, 67, 100
10, 14591, Control_c, 10, 11, 87
10, 14610, Note_on_c, 10, 67, 0
10, 14610, Control_c, 10, 11, 88
10, 14629, Control_c, 10, 11, 89
10, 14640, Note_on_c, 10, 65, 100
10, 14649, Control_c, 10, 11, 90
10, 14668, Control_c, 10, 11, 91
10, 14670, Note_on_c, 10, 65, 0
10, 14687, Control_c, 10, 11, 92
10, 14700, Note_on_c, 10, 62, 100
10, 14706, Control_c, 10, 11, 93
10, 14725, Control_c, 10, 11, 94
10, 14730, Note_on_c, 10, 62, 0
10, 14744, Control_c, 10, 11, 95
10, 14760, Note_on_c, 10, 59, 100
10, 14764, Control_c, 10, 11, 96
10, 14783, Control_c, 10, 11, 97
10, 14790, Note_on_c, 10, 59, 0
10, 14802, Control_c, 10, 11, 98
10, 14820, Note_on_c, 10, 55, 100
10, 14821, Control_c, 10, 11, 99
10, 14840, Control_c, 10, 11, 100
10, 14850, Note_on_c, 10, 55, 0
10, 14859, Control_c, 10, 11, 101
10, 14879, Control_c, 10, 11, 102
10, 14880, Note_on_c, 10, 60, 100
10, 14940, Note_on_c, 10, 60, 0
10, 15120, Note_on_c, 10, 65, 100
10, 15130, Note_on_c, 10, 72, 100
10, 15130, Note_on_c, 10, 81, 100
10, 15180, Note_on_c, 10, 65, 0
10, 15190, Note_on_c, 10, 81, 0
10, 15190, Note_on_c, 10, 72, 0
10, 15360, Note_on_c, 10, 64, 100
10, 15370, Note_on_c, 10, 79, 100
10, 15370, Note_on_c, 10, 72, 100
10, 15420, Note_on_c, 10, 64, 0
10, 15430, Note_on_c, 10, 72, 0
10, 15430, Note_on_c, 10, 79, 0
10, 15600, Note_on_c, 10, 55, 100
10, 15610, Note_on_c, 10, 71, 100
10, 15610, Note_on_c, 10, 62, 100
10, 15660, Note_on_c, 10, 55, 0
10, 15670, Note_on_c, 10, 62, 0
10, 15670, Note_on_c, 10, 71, 0
10, 15840, Note_on_c, 10, 55, 100
10, 15850, Note_on_c, 10, 72, 100
10, 15850, Note_on_c, 10, 64, 100
10, 16190, Note_on_c, 10, 55, 0
10, 16200, Note_on_c, 10, 64, 0
10, 16200, Note_on_c, 10, 76, 100
10, 16210, Note_on_c, 10, 72, 0
10, 16310, Note_on_c, 10, 76, 0
10, 16320, Note_on_c, 10, 79, 100
10, 16320, Control_c, 10, 11, 122
10, 16338, Control_c, 10, 11, 119
10, 16356, Control_c, 10, 11, 116
10, 16374, Control_c, 10, 11, 113
10, 16392, Control_c, 10, 11, 110
10, 16410, Control_c, 10, 11, 107
10, 16428, Control_c, 10, 11, 104
10, 16670, Note_on_c, 10, 79, 0
10, 16680, Note_on_c, 10, 77, 100
10, 16710, Note_on_c, 10, 77, 0
10, 16710, Note_on_c, 10, 76, 100
10, 16740, Note_on_c, 10, 76, 0
10, 16740, Note_on_c, 10, 74, 100
10, 16770, Note_on_c, 10, 74, 0
10, 16770, Note_on_c, 10, 72, 100
10, 16790, Note_on_c, 10, 72, 0
10, 16800, Note_on_c, 10, 71, 67
10, 16800, Note_on_c, 10, 62, 67
10, 16850, Note_on_c, 10, 62, 0
10, 16850, Note_on_c, 10, 71, 0
10, 16860, Note_on_c, 10, 62, 67
10, 16860, Note_on_c, 10, 71, 67
10, 16910, Note_on_c, 10, 71, 0
10, 16910, Note_on_c, 10, 62, 0
10, 16920, Note_on_c, 10, 62, 67
10, 16920, Note_on_c, 10, 71, 67
10, 16970, Note_on_c, 10, 71, 0
10, 16970, Note_on_c, 10, 62, 0
10, 16980, Note_on_c, 10, 62, 67
10, 16980, Note_on_c, 10, 71, 67
10, 17030, Note_on_c, 10, 71, 0
10, 17030, Note_on_c, 10, 62, 0
10, 17040, Note_on_c, 10, 62, 67
10, 17040, Note_on_c, 10, 71, 67
10, 17090, Note_on_c, 10, 71, 0
10, 17090, Note_on_c, 10, 62, 0
10, 17100, Note_on_c, 10, 71, 67
10, 17100, Note_on_c, 10, 62, 67
10, 17150, Note_on_c, 10, 62, 0
10, 17150, Note_on_c, 10, 71, 0
10, 17160, Note_on_c, 10, 62, 67
10, 17160, Note_on_c, 10, 71, 67
10, 17210, Note_on_c, 10, 71, 0
10, 17210, Note_on_c, 10, 62, 0
10, 17220, Note_on_c, 10, 62, 67
10, 17220, Note_on_c, 10, 71, 67
10, 17270, Note_on_c, 10, 71, 0
10, 17270, Note_on_c, 10, 62, 0
10, 17280, Note_on_c, 10, 62, 67
10, 17280, Note_on_c, 10, 71, 67
10, 17330, Note_on_c, 10, 71, 0
10, 17330, Note_on_c, 10, 62, 0
10, 17340, Note_on_c, 10, 62, 67
10, 17340, Note_on_c, 10, 71, 67
10, 17390, Note_on_c, 10, 71, 0
10, 17390, Note_on_c, 10, 62, 0
10, 17400, Note_on_c, 10, 71, 67
10, 17400, Note_on_c, 10, 62, 67
10, 17450, Note_on_c, 10, 62, 0
10, 17450, Note_on_c, 10, 71, 0
10, 17460, Note_on_c, 10, 62, 67
10, 17460, Note_on_c, 10, 71, 67
10, 17510, Note_on_c, 10, 71, 0
10, 17510, Note_on_c, 10, 62, 0
10, 17520, Note_on_c, 10, 62, 67
10, 17520, Note_on_c, 10, 71, 67
10, 17570, Note_on_c, 10, 71, 0
10, 17570, Note_on_c, 10, 62, 0
10, 17580, Note_on_c, 10, 62, 67
10, 17580, Note_on_c, 10, 71, 67
10, 17630, Note_on_c, 10, 71, 0
10, 17630, Note_on_c, 10, 62, 0
10, 17640, Note_on_c, 10, 62, 67
10, 17640, Note_on_c, 10, 71, 67
10, 17690, Note_on_c, 10, 71, 0
10, 17690, Note_on_c, 10, 62, 0
10, 17700, Note_on_c, 10, 71, 67
10, 17700, Note_on_c, 10, 62, 67
10, 17750, Note_on_c, 10, 62, 0
10, 17750, Note_on_c, 10, 71, 0
10, 17760, Note_on_c, 10, 72, 100
10, 17820, Note_on_c, 10, 72, 0
10, 17820, Note_on_c, 10, 71, 100
10, 17870, Note_on_c, 10, 71, 0
10, 17880, Note_on_c, 10, 72, 100
10, 17910, Note_on_c, 10, 72, 0
10, 17940, Note_on_c, 10, 74, 100
10, 17970, Note_on_c, 10, 74, 0
10, 18000, Note_on_c, 10, 76, 100
10, 18060, Note_on_c, 10, 76, 0
10, 18060, Note_on_c, 10, 74, 100
10, 18110, Note_on_c, 10, 74, 0
10, 18120, Note_on_c, 10, 76, 100
10, 18150, Note_on_c, 10, 76, 0
10, 18180, Note_on_c, 10, 77, 100
10, 18210, Note_on_c, 10, 77, 0
10, 18240, Note_on_c, 10, 79, 100
10, 18240, Control_c, 10, 11, 122
10, 18258, Control_c, 10, 11, 119
10, 18276, Control_c, 10, 11, 116
10, 18294, Control_c, 10, 11, 113
10, 18300, Note_on_c, 10, 79, 0
10, 18300, Note_on_c, 10, 78, 100
10, 18312, Control_c, 10, 11, 110
10, 18330, Control_c, 10, 11, 107
10, 18348, Control_c, 10, 11, 104
10, 18350, Note_on_c, 10, 78, 0
10, 18360, Note_on_c, 10, 79, 100
10, 18390, Note_on_c, 10, 79, 0
10, 18420, Note_on_c, 10, 78, 100
10, 18450, Note_on_c, 10, 78, 0
10, 18480, Note_on_c, 10, 79, 100
10, 18540, Note_on_c, 10, 79, 0
10, 18540, Note_on_c, 10, 76, 100
10, 18590, Note_on_c, 10, 76, 0
10, 18600, Note_on_c, 10, 74, 100
10, 18630, Note_on_c, 10, 74, 0
10, 18660, Note_on_c, 10, 72, 100
10, 18690, Note_on_c, 10, 72, 0
10, 18720, Note_on_c, 10, 71, 67
10, 18720, Note_on_c, 10, 62, 67
10, 18770, Note_on_c, 10, 62, 0
10, 18770, Note_on_c, 10, 71, 0
10, 18780, Note_on_c, 10, 62, 67
10, 18780, Note_on_c, 10, 71, 67
10, 18830, Note_on_c, 10, 71, 0
10, 18830, Note_on_c, 10, 62, 0
10, 18840, Note_on_c, 10, 62, 67
10, 18840, Note_on_c, 10, 71, 67
10, 18890, Note_on_c, 10, 71, 0
10, 18890, Note_on_c, 10, 62, 0
10, 18900, Note_on_c, 10, 62, 67
10, 18900, Note_on_c, 10, 71, 67
10, 18950, Note_on_c, 10, 71, 0
10, 18950, Note_on_c, 10, 62, 0
10, 18960, Note_on_c, 10, 62, 67
10, 18960, Note_on_c, 10, 71, 67
10, 19010, Note_on_c, 10, 71, 0
10, 19010, Note_on_c, 10, 62, 0
10, 19020, Note_on_c, 10, 71, 67
10, 19020, Note_on_c, 10, 62, 67
10, 19070, Note_on_c, 10, 62, 0
10, 19070, Note_on_c, 10, 71, 0
10, 19080, Note_on_c, 10, 62, 67
10, 19080, Note_on_c, 10, 71, 67
10, 19130, Note_on_c, 10, 71, 0
10, 19130, Note_on_c, 10, 62, 0
10, 19140, Note_on_c, 10, 62, 67
10, 19140, Note_on_c, 10, 71, 67
10, 19190, Note_on_c, 10, 71, 0
10, 19190, Note_on_c, 10, 62, 0
10, 19200, Note_on_c, 10, 62, 67
10, 19200, Note_on_c, 10, 71, 67
10, 19250, Note_on_c, 10, 71, 0
10, 19250, Note_on_c, 10, 62, 0
10, 19260, Note_on_c, 10, 62, 67
10, 19260, Note_on_c, 10, 71, 67
10, 19310, Note_on_c, 10, 71, 0
10, 19310, Note_on_c, 10, 62, 0
10, 19320, Note_on_c, 10, 71, 67
10, 19320, Note_on_c, 10, 62, 67
10, 19370, Note_on_c, 10, 62, 0
10, 19370, Note_on_c, 10, 71, 0
10, 19380, Note_on_c, 10, 62, 67
10, 19380, Note_on_c, 10, 71, 67
10, 19430, Note_on_c, 10, 71, 0
10, 19430, Note_on_c, 10, 62, 0
10, 19440, Note_on_c, 10, 62, 67
10, 19440, Note_on_c, 10, 71, 67
10, 19490, Note_on_c, 10, 71, 0
10, 19490, Note_on_c, 10, 62, 0
10, 19500, Note_on_c, 10, 62, 67
10, 19500, Note_on_c, 10, 71, 67
10, 19550, Note_on_c, 10, 71, 0
10, 19550, Note_on_c, 10, 62, 0
10, 19560, Note_on_c, 10, 62, 67
10, 19560, Note_on_c, 10, 71, 67
10, 19610, Note_on_c, 10, 71, 0
10, 19610, Note_on_c, 10, 62, 0
10, 19620, Note_on_c, 10, 71, 67
10, 19620, Note_on_c, 10, 62, 67
10, 19670, Note_on_c, 10, 62, 0
10, 19670, Note_on_c, 10, 71, 0
10, 19680, Note_on_c, 10, 72, 100
10, 19680, Control_c, 10, 11, 102
10, 19696, Control_c, 10, 11, 100
10, 19710, Note_on_c, 10, 72, 0
10, 19712, Control_c, 10, 11, 98
10, 19728, Control_c, 10, 11, 96
10, 19740, Note_on_c, 10, 72, 100
10, 19744, Control_c, 10, 11, 94
10, 19760, Control_c, 10, 11, 92
10, 19770, Note_on_c, 10, 72, 0
10, 19776, Control_c, 10, 11, 90
10, 19792, Control_c, 10, 11, 88
10, 19800, Note_on_c, 10, 67, 100
10, 19830, Note_on_c, 10, 67, 0
10, 19860, Note_on_c, 10, 71, 100
10, 19890, Note_on_c, 10, 71, 0
10, 19920, Note_on_c, 10, 72, 100
10, 19950, Note_on_c, 10, 72, 0
10, 19980, Note_on_c, 10, 72, 100
10, 20010, Note_on_c, 10, 72, 0
10, 20040, Note_on_c, 10, 69, 100
10, 20070, Note_on_c, 10, 69, 0
10, 20100, Note_on_c, 10, 73, 100
10, 20130, Note_on_c, 10, 73, 0
10, 20160, Note_on_c, 10, 74, 100
10, 20160, Control_c, 10, 11, 87
10, 20190, Note_on_c, 10, 74, 0
10, 20217, Control_c, 10, 11, 88
10, 20220, Note_on_c, 10, 74, 100
10, 20250, Note_on_c, 10, 74, 0
10, 20275, Control_c, 10, 11, 89
10, 20280, Note_on_c, 10, 69, 100
10, 20310, Note_on_c, 10, 69, 0
10, 20332, Control_c, 10, 11, 90
10, 20340, Note_on_c, 10, 73, 100
10, 20370, Note_on_c, 10, 73, 0
10, 20390, Control_c, 10, 11, 91
10, 20400, Note_on_c, 10, 74, 100
10, 20430, Note_on_c, 10, 74, 0
10, 20448, Control_c, 10, 11, 92
10, 20460, Note_on_c, 10, 74, 100
10, 20490, Note_on_c, 10, 74, 0
10, 20505, Control_c, 10, 11, 93
10, 20520, Note_on_c, 10, 71, 100
10, 20550, Note_on_c, 10, 71, 0
10, 20563, Control_c, 10, 11, 94
10, 20580, Note_on_c, 10, 75, 100
10, 20610, Note_on_c, 10, 75, 0
10, 20620, Control_c, 10, 11, 95
10, 20640, Note_on_c, 10, 76, 100
10, 20670, Note_on_c, 10, 76, 0
10, 20678, Control_c, 10, 11, 96
10, 20700, Note_on_c, 10, 76, 100
10, 20730, Note_on_c, 10, 76, 0
10, 20736, Control_c, 10, 11, 97
10, 20760, Note_on_c, 10, 72, 100
10, 20790, Note_on_c, 10, 72, 0
10, 20793, Control_c, 10, 11, 98
10, 20820, Note_on_c, 10, 76, 100
10, 20850, Note_on_c, 10, 76, 0
10, 20851, Control_c, 10, 11, 99
10, 20880, Note_on_c, 10, 77, 100
10, 20908, Control_c, 10, 11, 100
10, 20910, Note_on_c, 10, 77, 0
10, 20940, Note_on_c, 10, 74, 100
10, 20966, Control_c, 10, 11, 101
10, 20970, Note_on_c, 10, 74, 0
10, 21000, Note_on_c, 10, 79, 100
10, 21024, Control_c, 10, 11, 102
10, 21030, Note_on_c, 10, 79, 0
10, 21060, Note_on_c, 10, 76, 100
10, 21081, Control_c, 10, 11, 103
10, 21090, Note_on_c, 10, 76, 0
10, 21120, Note_on_c, 10, 81, 100
10, 21139, Control_c, 10, 11, 104
10, 21150, Note_on_c, 10, 81, 0
10, 21180, Note_on_c, 10, 77, 100
10, 21196, Control_c, 10, 11, 105
10, 21210, Note_on_c, 10, 77, 0
10, 21240, Note_on_c, 10, 83, 100
10, 21254, Control_c, 10, 11, 106
10, 21270, Note_on_c, 10, 83, 0
10, 21300, Note_on_c, 10, 79, 100
10, 21312, Control_c, 10, 11, 107
10, 21330, Note_on_c, 10, 79, 0
10, 21360, Note_on_c, 10, 84, 100
10, 21369, Control_c, 10, 11, 108
10, 21390, Note_on_c, 10, 84, 0
10, 21420, Note_on_c, 10, 81, 100
10, 21427, Control_c, 10, 11, 109
10, 21450, Note_on_c, 10, 81, 0
10, 21480, Note_on_c, 10, 76, 100
10, 21484, Control_c, 10, 11, 110
10, 21510, Note_on_c, 10, 76, 0
10, 21540, Note_on_c, 10, 78, 100
10, 21542, Control_c, 10, 11, 111
10, 21570, Note_on_c, 10, 78, 0
10, 21600, Control_c, 10, 11, 112
10, 21600, Note_on_c, 10, 79, 100
10, 21675, Control_c, 10, 11, 112
10, 21678, Control_c, 10, 11, 109
10, 21681, Control_c, 10, 11, 106
10, 21685, Control_c, 10, 11, 103
10, 21688, Control_c, 10, 11, 100
10, 21691, Control_c, 10, 11, 97
10, 21695, Control_c, 10, 11, 94
10, 21698, Control_c, 10, 11, 91
10, 21702, Control_c, 10, 11, 88
10, 21705, Control_c, 10, 11, 85
10, 21708, Control_c, 10, 11, 82
10, 21712, Control_c, 10, 11, 79
10, 21715, Control_c, 10, 11, 76
10, 21718, Control_c, 10, 11, 73
10, 21720, Note_on_c, 10, 79, 0
10, 22080, Control_c, 10, 11, 102
10, 22080, Note_on_c, 10, 67, 71
10, 22090, Note_on_c, 10, 74, 71
10, 22090, Note_on_c, 10, 83, 78
10, 22185, Note_on_c, 10, 67, 0
10, 22195, Note_on_c, 10, 83, 0
10, 22195, Note_on_c, 10, 74, 0
10, 22320, Note_on_c, 10, 67, 71
10, 22330, Note_on_c, 10, 84, 78
10, 22330, Note_on_c, 10, 76, 71
10, 22425, Note_on_c, 10, 67, 0
10, 22435, Note_on_c, 10, 76, 0
10, 22435, Note_on_c, 10, 84, 0
10, 22560, Note_on_c, 10, 67, 71
10, 22570, Note_on_c, 10, 74, 71
10, 22570, Note_on_c, 10, 83, 78
10, 22665, Note_on_c, 10, 67, 0
10, 22675, Note_on_c, 10, 83, 0
10, 22675, Note_on_c, 10, 74, 0
10, 23040, Note_on_c, 10, 67, 71
10, 23050, Note_on_c, 10, 83, 78
10, 23050, Note_on_c, 10, 74, 71
10, 23145, Note_on_c, 10, 67, 0
10, 23155, Note_on_c, 10, 74, 0
10, 23155, Note_on_c, 10, 83, 0
10, 23280, Note_on_c, 10, 67, 71
10, 23290, Note_on_c, 10, 76, 71
10, 23290, Note_on_c, 10, 84, 78
10, 23385, Note_on_c, 10, 67, 0
10, 23395, Note_on_c, 10, 84, 0
10, 23395, Note_on_c, 10, 76, 0
10, 23520, Note_on_c, 10, 67, 71
10, 23530, Note_on_c, 10, 74, 71
10, 23530, Note_on_c, 10, 83, 78
10, 23625, Note_on_c, 10, 67, 0
10, 23635, Note_on_c, 10, 83, 0
10, 23635, Note_on_c, 10, 74, 0
10, 23760, Note_on_c, 10, 67, 71
10, 23770, Note_on_c, 10, 84, 78
10, 23770, Note_on_c, 10, 76, 71
10, 23865, Note_on_c, 10, 67, 0
10, 23875, Note_on_c, 10, 76, 0
10, 23875, Note_on_c, 10, 84, 0
10, 24000, Note_on_c, 10, 67, 71
10, 24010, Note_on_c, 10, 74, 71
10, 24010, Note_on_c, 10, 83, 78
10, 24105, Note_on_c, 10, 67, 0
10, 24115, Note_on_c, 10, 83, 0
10, 24115, Note_on_c, 10, 74, 0
10, 24240, Note_on_c, 10, 67, 71
10, 24250, Note_on_c, 10, 84, 78
10, 24250, Note_on_c, 10, 76, 71
10, 24345, Note_on_c, 10, 67, 0
10, 24355, Note_on_c, 10, 76, 0
10, 24355, Note_on_c, 10, 84, 0
10, 24480, Note_on_c, 10, 67, 71
10, 24490, Note_on_c, 10, 74, 71
10, 24490, Note_on_c, 10, 83, 78
10, 24585, Note_on_c, 10, 67, 0
10, 24595, Note_on_c, 10, 83, 0
10, 24595, Note_on_c, 10, 74, 0
10, 24720, Note_on_c, 10, 62, 71
10, 24730, Note_on_c, 10, 79, 78
10, 24730, Note_on_c, 10, 71, 71
10, 24825, Note_on_c, 10, 62, 0
10, 24835, Note_on_c, 10, 71, 0
10, 24835, Note_on_c, 10, 79, 0
10, 24960, Note_on_c, 10, 55, 100
10, 25080, Note_on_c, 10, 55, 0
10, 26040, Control_c, 10, 11, 47
10, 26040, Note_on_c, 10, 72, 86
10, 26100, Note_on_c, 10, 72, 0
10, 26160, Note_on_c, 10, 69, 86
10, 26220, Note_on_c, 10, 69, 0
10, 26280, Note_on_c, 10, 66, 86
10, 26340, Note_on_c, 10, 66, 0
10, 26400, Note_on_c, 10, 60, 86
10, 26460, Note_on_c, 10, 60, 0
10, 26880, Note_on_c, 10, 59, 86
10, 26940, Note_on_c, 10, 59, 0
10, 27000, Note_on_c, 10, 62, 86
10, 27060, Note_on_c, 10, 62, 0
10, 27120, Note_on_c, 10, 67, 86
10, 27180, Note_on_c, 10, 67, 0
10, 27240, Note_on_c, 10, 71, 86
10, 27300, Note_on_c, 10, 71, 0
10, 27360, Note_on_c, 10, 69, 86
10, 27420, Note_on_c, 10, 69, 0
10, 27600, Control_c, 10, 11, 58
10, 27600, Note_on_c, 10, 81, 100
10, 27604, Control_c, 10, 11, 61
10, 27609, Control_c, 10, 11, 64
10, 27614, Control_c, 10, 11, 67
10, 27619, Control_c, 10, 11, 70
10, 27624, Control_c, 10, 11, 73
10, 27635, Control_c, 10, 11, 70
10, 27646, Control_c, 10, 11, 67
10, 27657, Control_c, 10, 11, 64
10, 27668, Control_c, 10, 11, 61
10, 27679, Control_c, 10, 11, 58
10, 27690, Control_c, 10, 11, 55
10, 27701, Control_c, 10, 11, 52
10, 27712, Control_c, 10, 11, 49
10, 27720, Note_on_c, 10, 81, 0
10, 27720, Note_on_c, 10, 79, 100
10, 27830, Note_on_c, 10, 79, 0
10, 27840, Note_on_c, 10, 78, 86
10, 27900, Note_on_c, 10, 78, 0
10, 28080, Control_c, 10, 11, 58
10, 28080, Note_on_c, 10, 81, 100
10, 28084, Control_c, 10, 11, 61
10, 28089, Control_c, 10, 11, 64
10, 28094, Control_c, 10, 11, 67
10, 28099, Control_c, 10, 11, 70
10, 28104, Control_c, 10, 11, 73
10, 28115, Control_c, 10, 11, 70
10, 28126, Control_c, 10, 11, 67
10, 28137, Control_c, 10, 11, 64
10, 28148, Control_c, 10, 11, 61
10, 28159, Control_c, 10, 11, 58
10, 28170, Control_c, 10, 11, 55
10, 28181, Control_c, 10, 11, 52
10, 28192, Control_c, 10, 11, 49
10, 28200, Note_on_c, 10, 81, 0
10, 28200, Note_on_c, 10, 79, 100
10, 28310, Note_on_c, 10, 79, 0
10, 28320, Note_on_c, 10, 78, 86
10, 28380, Note_on_c, 10, 78, 0
10, 28440, Note_on_c, 10, 74, 100
10, 28500, Note_on_c, 10, 74, 0
10, 28680, Note_on_c, 10, 73, 100
10, 28740, Note_on_c, 10, 73, 0
10, 28800, Note_on_c, 10, 74, 100
10, 28920, Note_on_c, 10, 74, 0
10, 29160, Note_on_c, 10, 74, 86
10, 29270, Note_on_c, 10, 74, 0
10, 29280, Note_on_c, 10, 79, 86
10, 29580, Note_on_c, 10, 79, 0
10, 29580, Note_on_c, 10, 78, 86
10, 29640, Note_on_c, 10, 78, 0
10, 29640, Note_on_c, 10, 76, 86
10, 29700, Note_on_c, 10, 76, 0
10, 29700, Note_on_c, 10, 74, 86
10, 29750, Note_on_c, 10, 74, 0
10, 29760, Note_on_c, 10, 72, 86
10, 29880, Note_on_c, 10, 72, 0
10, 30240, Note_on_c, 10, 81, 86
10, 30540, Note_on_c, 10, 81, 0
10, 30540, Note_on_c, 10, 78, 86
10, 30600, Note_on_c, 10, 78, 0
10, 30600, Note_on_c, 10, 74, 86
10, 30660, Note_on_c, 10, 74, 0
10, 30660, Note_on_c, 10, 72, 86
10, 30710, Note_on_c, 10, 72, 0
10, 30720, Note_on_c, 10, 71, 86
10, 30840, Note_on_c, 10, 71, 0
10, 31200, Note_on_c, 10, 76, 100
10, 31260, Note_on_c, 10, 76, 0
10, 31320, Note_on_c, 10, 79, 100
10, 31550, Note_on_c, 10, 79, 0
10, 31560, Control_c, 10, 11, 58
10, 31560, Note_on_c, 10, 80, 100
10, 31565, Control_c, 10, 11, 61
10, 31571, Control_c, 10, 11, 64
10, 31576, Control_c, 10, 11, 67
10, 31582, Control_c, 10, 11, 70
10, 31588, Control_c, 10, 11, 73
10, 31598, Control_c, 10, 11, 70
10, 31609, Control_c, 10, 11, 67
10, 31619, Control_c, 10, 11, 64
10, 31630, Control_c, 10, 11, 61
10, 31641, Control_c, 10, 11, 58
10, 31651, Control_c, 10, 11, 55
10, 31662, Control_c, 10, 11, 52
10, 31672, Control_c, 10, 11, 49
10, 31680, Note_on_c, 10, 80, 0
10, 31680, Note_on_c, 10, 79, 100
10, 31740, Note_on_c, 10, 79, 0
10, 31800, Note_on_c, 10, 79, 100
10, 32030, Note_on_c, 10, 79, 0
10, 32040, Control_c, 10, 11, 58
10, 32040, Note_on_c, 10, 80, 100
10, 32045, Control_c, 10, 11, 61
10, 32051, Control_c, 10, 11, 64
10, 32056, Control_c, 10, 11, 67
10, 32062, Control_c, 10, 11, 70
10, 32068, Control_c, 10, 11, 73
10, 32078, Control_c, 10, 11, 70
10, 32089, Control_c, 10, 11, 67
10, 32099, Control_c, 10, 11, 64
10, 32110, Control_c, 10, 11, 61
10, 32121, Control_c, 10, 11, 58
10, 32131, Control_c, 10, 11, 55
10, 32142, Control_c, 10, 11, 52
10, 32152, Control_c, 10, 11, 49
10, 32160, Note_on_c, 10, 80, 0
10, 32160, Note_on_c, 10, 81, 100
10, 32270, Note_on_c, 10, 81, 0
10, 32280, Note_on_c, 10, 76, 100
10, 32400, Note_on_c, 10, 76, 0
10, 32400, Note_on_c, 10, 74, 100
10, 32520, Note_on_c, 10, 74, 0
10, 32520, Note_on_c, 10, 72, 100
10, 32630, Note_on_c, 10, 72, 0
10, 32640, Note_on_c, 10, 71, 100
10, 32880, Note_on_c, 10, 71, 0
10, 32880, Note_on_c, 10, 69, 100
10, 33095, Note_on_c, 10, 69, 0
10, 33115, Control_c, 10, 11, 47
10, 33116, Control_c, 10, 11, 55
10, 33117, Control_c, 10, 11, 63
10, 33118, Control_c, 10, 11, 71
10, 33119, Control_c, 10, 11, 79
10, 33120, Note_on_c, 10, 74, 110
10, 33120, Note_on_c, 10, 86, 110
10, 33120, Control_c, 10, 11, 87
10, 33140, Note_on_c, 10, 86, 0
10, 33140, Note_on_c, 10, 74, 0
10, 33150, Note_on_c, 10, 74, 110
10, 33150, Note_on_c, 10, 86, 110
10, 33170, Note_on_c, 10, 86, 0
10, 33170, Note_on_c, 10, 74, 0
10, 33180, Note_on_c, 10, 86, 110
10, 33180, Note_on_c, 10, 74, 110
10, 33200, Note_on_c, 10, 74, 0
10, 33200, Note_on_c, 10, 86, 0
10, 33210, Note_on_c, 10, 74, 110
10, 33210, Note_on_c, 10, 86, 110
10, 33230, Note_on_c, 10, 86, 0
10, 33230, Note_on_c, 10, 74, 0
10, 33240, Note_on_c, 10, 86, 110
10, 33240, Note_on_c, 10, 74, 110
10, 33300, Note_on_c, 10, 74, 0
10, 33300, Note_on_c, 10, 86, 0
10, 33360, Note_on_c, 10, 84, 110
10, 33360, Note_on_c, 10, 74, 110
10, 33380, Note_on_c, 10, 74, 0
10, 33380, Note_on_c, 10, 84, 0
10, 33390, Note_on_c, 10, 84, 110
10, 33390, Note_on_c, 10, 74, 110
10, 33410, Note_on_c, 10, 74, 0
10, 33410, Note_on_c, 10, 84, 0
10, 33420, Note_on_c, 10, 84, 110
10, 33420, Note_on_c, 10, 74, 110
10, 33440, Note_on_c, 10, 74, 0
10, 33440, Note_on_c, 10, 84, 0
10, 33450, Note_on_c, 10, 84, 110
10, 33450, Note_on_c, 10, 74, 110
10, 33470, Note_on_c, 10, 74, 0
10, 33470, Note_on_c, 10, 84, 0
10, 33480, Note_on_c, 10, 84, 110
10, 33480, Note_on_c, 10, 74, 110
10, 33540, Note_on_c, 10, 74, 0
10, 33540, Note_on_c, 10, 84, 0
10, 33600, Note_on_c, 10, 83, 110
10, 33600, Note_on_c, 10, 74, 110
10, 33620, Note_on_c, 10, 74, 0
10, 33620, Note_on_c, 10, 83, 0
10, 33630, Note_on_c, 10, 83, 110
10, 33630, Note_on_c, 10, 74, 110
10, 33650, Note_on_c, 10, 74, 0
10, 33650, Note_on_c, 10, 83, 0
10, 33660, Note_on_c, 10, 83, 110
10, 33660, Note_on_c, 10, 74, 110
10, 33680, Note_on_c, 10, 74, 0
10, 33680, Note_on_c, 10, 83, 0
10, 33690, Note_on_c, 10, 74, 110
10, 33690, Note_on_c, 10, 83, 110
10, 33710, Note_on_c, 10, 83, 0
10, 33710, Note_on_c, 10, 74, 0
10, 33720, Note_on_c, 10, 74, 110
10, 33720, Note_on_c, 10, 83, 110
10, 33780, Note_on_c, 10, 83, 0
10, 33780, Note_on_c, 10, 74, 0
10, 33840, Note_on_c, 10, 81, 110
10, 33870, Note_on_c, 10, 81, 0
10, 33900, Note_on_c, 10, 83, 110
10, 33930, Note_on_c, 10, 83, 0
10, 33960, Note_on_c, 10, 84, 110
10, 33990, Note_on_c, 10, 84, 0
10, 34020, Note_on_c, 10, 85, 110
10, 34050, Note_on_c, 10, 85, 0
10, 34080, Note_on_c, 10, 86, 110
10, 34080, Note_on_c, 10, 74, 110
10, 34100, Note_on_c, 10, 74, 0
10, 34100, Note_on_c, 10, 86, 0
10, 34110, Note_on_c, 10, 86, 110
10, 34110, Note_on_c, 10, 74, 110
10, 34130, Note_on_c, 10, 74, 0
10, 34130, Note_on_c, 10, 86, 0
10, 34140, Note_on_c, 10, 74, 110
10, 34140, Note_on_c, 10, 86, 110
10, 34160, Note_on_c, 10, 86, 0
10, 34160, Note_on_c, 10, 74, 0
10, 34170, Note_on_c, 10, 86, 110
10, 34170, Note_on_c, 10, 74, 110
10, 34190, Note_on_c, 10, 74, 0
10, 34190, Note_on_c, 10, 86, 0
10, 34200, Note_on_c, 10, 86, 110
10, 34200, Note_on_c, 10, 74, 110
10, 34260, Note_on_c, 10, 74, 0
10, 34260, Note_on_c, 10, 86, 0
10, 34320, Note_on_c, 10, 84, 110
10, 34320, Note_on_c, 10, 74, 110
10, 34340, Note_on_c, 10, 74, 0
10, 34340, Note_on_c, 10, 84, 0
10, 34350, Note_on_c, 10, 84, 110
10, 34350, Note_on_c, 10, 74, 110
10, 34370, Note_on_c, 10, 74, 0
10, 34370, Note_on_c, 10, 84, 0
10, 34380, Note_on_c, 10, 84, 110
10, 34380, Note_on_c, 10, 74, 110
10, 34400, Note_on_c, 10, 74, 0
10, 34400, Note_on_c, 10, 84, 0
10, 34410, Note_on_c, 10, 84, 110
10, 34410, Note_on_c, 10, 74, 110
10, 34430, Note_on_c, 10, 74, 0
10, 34430, Note_on_c, 10, 84, 0
10, 34440, Note_on_c, 10, 84, 110
10, 34440, Note_on_c, 10, 74, 110
10, 34500, Note_on_c, 10, 74, 0
10, 34500, Note_on_c, 10, 84, 0
10, 34560, Note_on_c, 10, 83, 110
10, 34560, Note_on_c, 10, 74, 110
10, 34580, Note_on_c, 10, 74, 0
10, 34580, Note_on_c, 10, 83, 0
10, 34590, Note_on_c, 10, 83, 110
10, 34590, Note_on_c, 10, 74, 110
10, 34610, Note_on_c, 10, 74, 0
10, 34610, Note_on_c, 10, 83, 0
10, 34620, Note_on_c, 10, 83, 110
10, 34620, Note_on_c, 10, 74, 110
10, 34640, Note_on_c, 10, 74, 0
10, 34640, Note_on_c, 10, 83, 0
10, 34650, Note_on_c, 10, 74, 110
10, 34650, Note_on_c, 10, 83, 110
10, 34670, Note_on_c, 10, 83, 0
10, 34670, Note_on_c, 10, 74, 0
10, 34680, Note_on_c, 10, 74, 110
10, 34680, Note_on_c, 10, 83, 110
10, 34740, Note_on_c, 10, 83, 0
10, 34740, Note_on_c, 10, 74, 0
10, 34800, Note_on_c, 10, 81, 110
10, 34830, Note_on_c, 10, 81, 0
10, 34860, Note_on_c, 10, 83, 110
10, 34890, Note_on_c, 10, 83, 0
10, 34920, Note_on_c, 10, 84, 110
10, 34950, Note_on_c, 10, 84, 0
10, 34980, Note_on_c, 10, 85, 110
10, 35010, Note_on_c, 10, 85, 0
10, 35040, Note_on_c, 10, 86, 110
10, 35040, Control_c, 10, 11, 107
10, 35058, Control_c, 10, 11, 104
10, 35060, Note_on_c, 10, 86, 0
10, 35070, Note_on_c, 10, 86, 110
10, 35076, Control_c, 10, 11, 101
10, 35090, Note_on_c, 10, 86, 0
10, 35094, Control_c, 10, 11, 98
10, 35100, Note_on_c, 10, 86, 110
10, 35112, Control_c, 10, 11, 95
10, 35120, Note_on_c, 10, 86, 0
10, 35130, Note_on_c, 10, 86, 110
10, 35130, Control_c, 10, 11, 92
10, 35148, Control_c, 10, 11, 89
10, 35150, Note_on_c, 10, 86, 0
10, 35160, Note_on_c, 10, 86, 110
10, 35180, Note_on_c, 10, 86, 0
10, 35190, Note_on_c, 10, 86, 110
10, 35210, Note_on_c, 10, 86, 0
10, 35220, Note_on_c, 10, 84, 110
10, 35240, Note_on_c, 10, 84, 0
10, 35250, Note_on_c, 10, 84, 110
10, 35270, Note_on_c, 10, 84, 0
10, 35280, Note_on_c, 10, 83, 110
10, 35300, Note_on_c, 10, 83, 0
10, 35310, Note_on_c, 10, 83, 110
10, 35330, Note_on_c, 10, 83, 0
10, 35340, Note_on_c, 10, 81, 110
10, 35360, Note_on_c, 10, 81, 0
10, 35370, Note_on_c, 10, 81, 110
10, 35390, Note_on_c, 10, 81, 0
10, 35400, Note_on_c, 10, 79, 110
10, 35420, Note_on_c, 10, 79, 0
10, 35430, Note_on_c, 10, 79, 110
10, 35450, Note_on_c, 10, 79, 0
10, 35460, Note_on_c, 10, 77, 110
10, 35480, Note_on_c, 10, 77, 0
10, 35490, Note_on_c, 10, 77, 110
10, 35510, Note_on_c, 10, 77, 0
10, 35520, Control_c, 10, 11, 107
10, 35520, Note_on_c, 10, 76, 110
10, 35538, Control_c, 10, 11, 104
10, 35540, Note_on_c, 10, 76, 0
10, 35550, Note_on_c, 10, 76, 110
10, 35556, Control_c, 10, 11, 101
10, 35570, Note_on_c, 10, 76, 0
10, 35574, Control_c, 10, 11, 98
10, 35580, Note_on_c, 10, 76, 110
10, 35592, Control_c, 10, 11, 95
10, 35600, Note_on_c, 10, 76, 0
10, 35610, Control_c, 10, 11, 92
10, 35610, Note_on_c, 10, 76, 110
10, 35628, Control_c, 10, 11, 89
10, 35630, Note_on_c, 10, 76, 0
10, 35640, Note_on_c, 10, 76, 110
10, 35660, Note_on_c, 10, 76, 0
10, 35670, Note_on_c, 10, 76, 110
10, 35690, Note_on_c, 10, 76, 0
10, 35700, Note_on_c, 10, 74, 110
10, 35720, Note_on_c, 10, 74, 0
10, 35730, Note_on_c, 10, 74, 110
10, 35750, Note_on_c, 10, 74, 0
10, 35760, Note_on_c, 10, 72, 110
10, 35780, Note_on_c, 10, 72, 0
10, 35790, Note_on_c, 10, 72, 110
10, 35810, Note_on_c, 10, 72, 0
10, 35820, Note_on_c, 10, 71, 110
10, 35840, Note_on_c, 10, 71, 0
10, 35850, Note_on_c, 10, 71, 110
10, 35870, Note_on_c, 10, 71, 0
10, 35880, Note_on_c, 10, 69, 110
10, 35900, Note_on_c, 10, 69, 0
10, 35910, Note_on_c, 10, 69, 110
10, 35930, Note_on_c, 10, 69, 0
10, 35940, Note_on_c, 10, 67, 110
10, 35960, Note_on_c, 10, 67, 0
10, 35970, Note_on_c, 10, 67, 110
10, 35990, Note_on_c, 10, 67, 0
10, 36000, Note_on_c, 10, 66, 110
10, 36000, Control_c, 10, 11, 87
10, 36020, Note_on_c, 10, 66, 0
10, 36030, Note_on_c, 10, 66, 110
10, 36032, Control_c, 10, 11, 88
10, 36050, Note_on_c, 10, 66, 0
10, 36060, Note_on_c, 10, 67, 110
10, 36064, Control_c, 10, 11, 89
10, 36080, Note_on_c, 10, 67, 0
10, 36090, Note_on_c, 10, 67, 110
10, 36096, Control_c, 10, 11, 90
10, 36110, Note_on_c, 10, 67, 0
10, 36120, Note_on_c, 10, 69, 110
10, 36128, Control_c, 10, 11, 91
10, 36140, Note_on_c, 10, 69, 0
10, 36150, Note_on_c, 10, 69, 110
10, 36160, Control_c, 10, 11, 92
10, 36170, Note_on_c, 10, 69, 0
10, 36180, Note_on_c, 10, 71, 110
10, 36192, Control_c, 10, 11, 93
10, 36200, Note_on_c, 10, 71, 0
10, 36210, Note_on_c, 10, 71, 110
10, 36224, Control_c, 10, 11, 94
10, 36230, Note_on_c, 10, 71, 0
10, 36240, Note_on_c, 10, 72, 110
10, 36256, Control_c, 10, 11, 95
10, 36260, Note_on_c, 10, 72, 0
10, 36270, Note_on_c, 10, 72, 110
10, 36288, Control_c, 10, 11, 96
10, 36290, Note_on_c, 10, 72, 0
10, 36300, Note_on_c, 10, 74, 110
10, 36320, Note_on_c, 10, 74, 0
10, 36320, Control_c, 10, 11, 97
10, 36330, Note_on_c, 10, 74, 110
10, 36350, Note_on_c, 10, 74, 0
10, 36352, Control_c, 10, 11, 98
10, 36360, Note_on_c, 10, 76, 110
10, 36380, Note_on_c, 10, 76, 0
10, 36384, Control_c, 10, 11, 99
10, 36390, Note_on_c, 10, 76, 110
10, 36410, Note_on_c, 10, 76, 0
10, 36416, Control_c, 10, 11, 100
10, 36420, Note_on_c, 10, 78, 110
10, 36440, Note_on_c, 10, 78, 0
10, 36448, Control_c, 10, 11, 101
10, 36450, Note_on_c, 10, 78, 110
10, 36470, Note_on_c, 10, 78, 0
10, 36480, Note_on_c, 10, 79, 110
10, 36480, Control_c, 10, 11, 102
10, 36540, Note_on_c, 10, 79, 0
10, 36600, Note_on_c, 10, 76, 110
10, 36660, Note_on_c, 10, 76, 0
10, 36720, Note_on_c, 10, 74, 110
10, 36780, Note_on_c, 10, 74, 0
10, 36840, Note_on_c, 10, 66, 110
10, 36900, Note_on_c, 10, 66, 0
10, 36960, Control_c, 10, 11, 72
10, 36960, Note_on_c, 10, 67, 110
10, 36990, Control_c, 10, 11, 72
10, 37005, Control_c, 10, 11, 69
10, 37020, Control_c, 10, 11, 66
10, 37036, Control_c, 10, 11, 63
10, 37051, Control_c, 10, 11, 60
10, 37067, Control_c, 10, 11, 57
10, 37070, Note_on_c, 10, 67, 0
10, 37080, Note_on_c, 10, 62, 100
10, 37082, Control_c, 10, 11, 54
10, 37098, Control_c, 10, 11, 51
10, 37113, Control_c, 10, 11, 48
10, 37128, Control_c, 10, 11, 45
10, 37144, Control_c, 10, 11, 42
10, 37159, Control_c, 10, 11, 39
10, 37166, Note_on_c, 10, 62, 0
10, 37200, Note_on_c, 10, 62, 100
10, 37286, Note_on_c, 10, 62, 0
10, 37320, Note_on_c, 10, 62, 100
10, 37406, Note_on_c, 10, 62, 0
10, 37440, Note_on_c, 10, 63, 100
10, 37526, Note_on_c, 10, 63, 0
10, 37560, Note_on_c, 10, 63, 100
10, 37646, Note_on_c, 10, 63, 0
10, 37680, Note_on_c, 10, 63, 100
10, 37766, Note_on_c, 10, 63, 0
10, 37800, Note_on_c, 10, 63, 100
10, 37886, Note_on_c, 10, 63, 0
10, 37920, Note_on_c, 10, 63, 100
10, 38006, Note_on_c, 10, 63, 0
10, 38040, Note_on_c, 10, 63, 100
10, 38126, Note_on_c, 10, 63, 0
10, 38160, Note_on_c, 10, 63, 100
10, 38246, Note_on_c, 10, 63, 0
10, 38280, Note_on_c, 10, 63, 100
10, 38366, Note_on_c, 10, 63, 0
10, 38400, Note_on_c, 10, 62, 100
10, 38486, Note_on_c, 10, 62, 0
10, 38520, Note_on_c, 10, 62, 100
10, 38606, Note_on_c, 10, 62, 0
10, 38640, Note_on_c, 10, 62, 100
10, 38726, Note_on_c, 10, 62, 0
10, 38760, Note_on_c, 10, 62, 100
10, 38846, Note_on_c, 10, 62, 0
10, 38880, Note_on_c, 10, 60, 100
10, 38966, Note_on_c, 10, 60, 0
10, 39000, Note_on_c, 10, 60, 100
10, 39086, Note_on_c, 10, 60, 0
10, 39120, Note_on_c, 10, 60, 100
10, 39206, Note_on_c, 10, 60, 0
10, 39240, Note_on_c, 10, 60, 100
10, 39326, Note_on_c, 10, 60, 0
10, 39360, Note_on_c, 10, 60, 100
10, 39446, Note_on_c, 10, 60, 0
10, 39480, Note_on_c, 10, 72, 100
10, 39566, Note_on_c, 10, 72, 0
10, 39600, Note_on_c, 10, 72, 100
10, 39686, Note_on_c, 10, 72, 0
10, 39720, Note_on_c, 10, 72, 101
10, 39806, Note_on_c, 10, 72, 0
10, 39840, Note_on_c, 10, 70, 102
10, 39926, Note_on_c, 10, 70, 0
10, 39960, Note_on_c, 10, 70, 103
10, 40046, Note_on_c, 10, 70, 0
10, 40080, Note_on_c, 10, 70, 104
10, 40166, Note_on_c, 10, 70, 0
10, 40200, Note_on_c, 10, 70, 105
10, 40286, Note_on_c, 10, 70, 0
10, 40320, Note_on_c, 10, 69, 106
10, 40406, Note_on_c, 10, 69, 0
10, 40440, Note_on_c, 10, 69, 107
10, 40526, Note_on_c, 10, 69, 0
10, 40560, Note_on_c, 10, 69, 108
10, 40646, Note_on_c, 10, 69, 0
10, 40680, Note_on_c, 10, 69, 109
10, 40766, Note_on_c, 10, 69, 0
10, 40800, Note_on_c, 10, 69, 110
10, 40886, Note_on_c, 10, 69, 0
10, 40920, Control_c, 10, 11, 37
10, 40920, Note_on_c, 10, 78, 110
10, 40952, Control_c, 10, 11, 38
10, 40985, Control_c, 10, 11, 39
10, 41006, Note_on_c, 10, 78, 0
10, 41018, Control_c, 10, 11, 40
10, 41040, Note_on_c, 10, 78, 110
10, 41051, Control_c, 10, 11, 41
10, 41084, Control_c, 10, 11, 42
10, 41117, Control_c, 10, 11, 43
10, 41126, Note_on_c, 10, 78, 0
10, 41150, Control_c, 10, 11, 44
10, 41160, Note_on_c, 10, 78, 110
10, 41183, Control_c, 10, 11, 45
10, 41216, Control_c, 10, 11, 46
10, 41246, Note_on_c, 10, 78, 0
10, 41249, Control_c, 10, 11, 47
10, 41280, Note_on_c, 10, 79, 110
10, 41282, Control_c, 10, 11, 48
10, 41315, Control_c, 10, 11, 49
10, 41348, Control_c, 10, 11, 50
10, 41366, Note_on_c, 10, 79, 0
10, 41381, Control_c, 10, 11, 51
10, 41400, Note_on_c, 10, 79, 110
10, 41414, Control_c, 10, 11, 52
10, 41447, Control_c, 10, 11, 53
10, 41480, Control_c, 10, 11, 54
10, 41486, Note_on_c, 10, 79, 0
10, 41513, Control_c, 10, 11, 55
10, 41520, Note_on_c, 10, 79, 110
10, 41546, Control_c, 10, 11, 56
10, 41579, Control_c, 10, 11, 57
10, 41606, Note_on_c, 10, 79, 0
10, 41612, Control_c, 10, 11, 58
10, 41640, Note_on_c, 10, 79, 110
10, 41645, Control_c, 10, 11, 59
10, 41678, Control_c, 10, 11, 60
10, 41711, Control_c, 10, 11, 61
10, 41726, Note_on_c, 10, 79, 0
10, 41744, Control_c, 10, 11, 62
10, 41760, Note_on_c, 10, 79, 110
10, 41777, Control_c, 10, 11, 63
10, 41810, Control_c, 10, 11, 64
10, 41843, Control_c, 10, 11, 65
10, 41846, Note_on_c, 10, 79, 0
10, 41876, Control_c, 10, 11, 66
10, 41880, Note_on_c, 10, 79, 110
10, 41909, Control_c, 10, 11, 67
10, 41942, Control_c, 10, 11, 68
10, 41966, Note_on_c, 10, 79, 0
10, 41975, Control_c, 10, 11, 69
10, 42000, Note_on_c, 10, 78, 110
10, 42008, Control_c, 10, 11, 70
10, 42041, Control_c, 10, 11, 71
10, 42074, Control_c, 10, 11, 72
10, 42086, Note_on_c, 10, 78, 0
10, 42107, Control_c, 10, 11, 73
10, 42120, Note_on_c, 10, 78, 110
10, 42140, Control_c, 10, 11, 74
10, 42173, Control_c, 10, 11, 75
10, 42206, Note_on_c, 10, 78, 0
10, 42206, Control_c, 10, 11, 76
10, 42239, Control_c, 10, 11, 77
10, 42240, Control_c, 10, 11, 97
10, 42240, Note_on_c, 10, 79, 110
10, 42264, Control_c, 10, 11, 95
10, 42288, Control_c, 10, 11, 93
10, 42312, Control_c, 10, 11, 91
10, 42336, Control_c, 10, 11, 89
10, 42360, Control_c, 10, 11, 87
10, 42590, Note_on_c, 10, 79, 0
10, 42600, Note_on_c, 10, 74, 110
10, 42690, Note_on_c, 10, 74, 0
10, 42690, Note_on_c, 10, 78, 110
10, 42710, Note_on_c, 10, 78, 0
10, 42720, Note_on_c, 10, 79, 110
10, 42720, Control_c, 10, 11, 107
10, 42738, Control_c, 10, 11, 104
10, 42756, Control_c, 10, 11, 101
10, 42774, Control_c, 10, 11, 98
10, 42792, Control_c, 10, 11, 95
10, 42810, Control_c, 10, 11, 92
10, 42828, Control_c, 10, 11, 89
10, 43070, Note_on_c, 10, 79, 0
10, 43080, Note_on_c, 10, 74, 110
10, 43170, Note_on_c, 10, 74, 0
10, 43170, Note_on_c, 10, 78, 110
10, 43190, Note_on_c, 10, 78, 0
10, 43200, Note_on_c, 10, 79, 110
10, 43200, Control_c, 10, 11, 107
10, 43218, Control_c, 10, 11, 104
10, 43230, Note_on_c, 10, 79, 0
10, 43236, Control_c, 10, 11, 101
10, 43254, Control_c, 10, 11, 98
10, 43260, Note_on_c, 10, 79, 110
10, 43272, Control_c, 10, 11, 95
10, 43290, Control_c, 10, 11, 92
10, 43308, Control_c, 10, 11, 89
10, 43320, Note_on_c, 10, 79, 0
10, 43320, Note_on_c, 10, 78, 110
10, 43380, Note_on_c, 10, 78, 0
10, 43380, Note_on_c, 10, 79, 110
10, 43430, Note_on_c, 10, 79, 0
10, 43440, Note_on_c, 10, 81, 110
10, 43470, Note_on_c, 10, 81, 0
10, 43500, Note_on_c, 10, 81, 110
10, 43560, Note_on_c, 10, 81, 0
10, 43560, Note_on_c, 10, 79, 110
10, 43620, Note_on_c, 10, 79, 0
10, 43620, Note_on_c, 10, 81, 110
10, 43670, Note_on_c, 10, 81, 0
10, 43680, Note_on_c, 10, 83, 110
10, 43680, Control_c, 10, 11, 107
10, 43697, Control_c, 10, 11, 104
10, 43710, Note_on_c, 10, 83, 0
10, 43715, Control_c, 10, 11, 101
10, 43733, Control_c, 10, 11, 98
10, 43740, Note_on_c, 10, 83, 110
10, 43751, Control_c, 10, 11, 95
10, 43769, Control_c, 10, 11, 92
10, 43787, Control_c, 10, 11, 89
10, 43800, Note_on_c, 10, 83, 0
10, 43800, Note_on_c, 10, 81, 110
10, 43860, Note_on_c, 10, 81, 0
10, 43860, Note_on_c, 10, 83, 110
10, 43910, Note_on_c, 10, 83, 0
10, 43920, Control_c, 10, 11, 107
10, 43920, Note_on_c, 10, 84, 110
10, 43937, Control_c, 10, 11, 104
10, 43950, Note_on_c, 10, 84, 0
10, 43955, Control_c, 10, 11, 101
10, 43973, Control_c, 10, 11, 98
10, 43980, Note_on_c, 10, 84, 110
10, 43991, Control_c, 10, 11, 95
10, 44009, Control_c, 10, 11, 92
10, 44027, Control_c, 10, 11, 89
10, 44040, Note_on_c, 10, 84, 0
10, 44040, Note_on_c, 10, 83, 110
10, 44100, Note_on_c, 10, 83, 0
10, 44100, Note_on_c, 10, 84, 110
10, 44150, Note_on_c, 10, 84, 0
10, 44160, Note_on_c, 10, 86, 110
10, 44180, Note_on_c, 10, 86, 0
10, 44190, Note_on_c, 10, 86, 110
10, 44210, Note_on_c, 10, 86, 0
10, 44220, Note_on_c, 10, 86, 110
10, 44240, Note_on_c, 10, 86, 0
10, 44250, Note_on_c, 10, 86, 110
10, 44270, Note_on_c, 10, 86, 0
10, 44280, Note_on_c, 10, 86, 110
10, 44300, Note_on_c, 10, 86, 0
10, 44310, Note_on_c, 10, 86, 110
10, 44330, Note_on_c, 10, 86, 0
10, 44340, Note_on_c, 10, 86, 110
10, 44360, Note_on_c, 10, 86, 0
10, 44370, Note_on_c, 10, 86, 110
10, 44390, Note_on_c, 10, 86, 0
10, 44400, Note_on_c, 10, 86, 110
10, 44420, Note_on_c, 10, 86, 0
10, 44430, Note_on_c, 10, 86, 110
10, 44450, Note_on_c, 10, 86, 0
10, 44460, Note_on_c, 10, 86, 110
10, 44480, Note_on_c, 10, 86, 0
10, 44490, Note_on_c, 10, 86, 110
10, 44510, Note_on_c, 10, 86, 0
10, 44520, Note_on_c, 10, 86, 110
10, 44540, Note_on_c, 10, 86, 0
10, 44550, Note_on_c, 10, 86, 110
10, 44570, Note_on_c, 10, 86, 0
10, 44580, Note_on_c, 10, 86, 110
10, 44600, Note_on_c, 10, 86, 0
10, 44610, Note_on_c, 10, 86, 110
10, 44630, Note_on_c, 10, 86, 0
10, 44640, Note_on_c, 10, 87, 110
10, 44660, Note_on_c, 10, 87, 0
10, 44670, Note_on_c, 10, 87, 110
10, 44690, Note_on_c, 10, 87, 0
10, 44700, Note_on_c, 10, 87, 110
10, 44720, Note_on_c, 10, 87, 0
10, 44730, Note_on_c, 10, 87, 110
10, 44750, Note_on_c, 10, 87, 0
10, 44760, Note_on_c, 10, 87, 110
10, 44780, Note_on_c, 10, 87, 0
10, 44790, Note_on_c, 10, 87, 110
10, 44810, Note_on_c, 10, 87, 0
10, 44820, Note_on_c, 10, 87, 110
10, 44840, Note_on_c, 10, 87, 0
10, 44850, Note_on_c, 10, 87, 110
10, 44870, Note_on_c, 10, 87, 0
10, 44880, Note_on_c, 10, 87, 110
10, 44900, Note_on_c, 10, 87, 0
10, 44910, Note_on_c, 10, 87, 110
10, 44930, Note_on_c, 10, 87, 0
10, 44940, Note_on_c, 10, 87, 110
10, 44960, Note_on_c, 10, 87, 0
10, 44970, Note_on_c, 10, 87, 110
10, 44990, Note_on_c, 10, 87, 0
10, 45000, Note_on_c, 10, 87, 110
10, 45020, Note_on_c, 10, 87, 0
10, 45030, Note_on_c, 10, 87, 110
10, 45050, Note_on_c, 10, 87, 0
10, 45060, Note_on_c, 10, 87, 110
10, 45080, Note_on_c, 10, 87, 0
10, 45090, Note_on_c, 10, 87, 110
10, 45110, Note_on_c, 10, 87, 0
10, 45120, Note_on_c, 10, 88, 110
10, 45120, Control_c, 10, 11, 102
10, 45140, Note_on_c, 10, 88, 0
10, 45150, Note_on_c, 10, 88, 110
10, 45170, Note_on_c, 10, 88, 0
10, 45180, Note_on_c, 10, 88, 110
10, 45200, Note_on_c, 10, 88, 0
10, 45210, Note_on_c, 10, 88, 110
10, 45230, Note_on_c, 10, 88, 0
10, 45240, Note_on_c, 10, 88, 110
10, 45260, Note_on_c, 10, 88, 0
10, 45270, Note_on_c, 10, 88, 110
10, 45290, Note_on_c, 10, 88, 0
10, 45300, Note_on_c, 10, 88, 110
10, 45320, Note_on_c, 10, 88, 0
10, 45330, Note_on_c, 10, 88, 110
10, 45350, Note_on_c, 10, 88, 0
10, 45360, Note_on_c, 10, 88, 110
10, 45380, Note_on_c, 10, 88, 0
10, 45390, Note_on_c, 10, 88, 110
10, 45410, Note_on_c, 10, 88, 0
10, 45420, Note_on_c, 10, 88, 110
10, 45440, Note_on_c, 10, 88, 0
10, 45450, Note_on_c, 10, 88, 110
10, 45470, Note_on_c, 10, 88, 0
10, 45480, Note_on_c, 10, 88, 110
10, 45500, Note_on_c, 10, 88, 0
10, 45510, Note_on_c, 10, 88, 110
10, 45530, Note_on_c, 10, 88, 0
10, 45540, Note_on_c, 10, 88, 110
10, 45560, Note_on_c, 10, 88, 0
10, 45570, Note_on_c, 10, 88, 110
10, 45590, Note_on_c, 10, 88, 0
10, 45600, Note_on_c, 10, 89, 110
10, 45620, Note_on_c, 10, 89, 0
10, 45630, Note_on_c, 10, 89, 110
10, 45650, Note_on_c, 10, 89, 0
10, 45660, Note_on_c, 10, 89, 110
10, 45680, Note_on_c, 10, 89, 0
10, 45690, Note_on_c, 10, 89, 110
10, 45710, Note_on_c, 10, 89, 0
10, 45720, Note_on_c, 10, 86, 110
10, 45740, Note_on_c, 10, 86, 0
10, 45750, Note_on_c, 10, 86, 110
10, 45770, Note_on_c, 10, 86, 0
10, 45780, Note_on_c, 10, 86, 110
10, 45800, Note_on_c, 10, 86, 0
10, 45810, Note_on_c, 10, 86, 110
10, 45830, Note_on_c, 10, 86, 0
10, 45840, Note_on_c, 10, 83, 110
10, 45860, Note_on_c, 10, 83, 0
10, 45870, Note_on_c, 10, 83, 110
10, 45890, Note_on_c, 10, 83, 0
10, 45900, Note_on_c, 10, 83, 110
10, 45920, Note_on_c, 10, 83, 0
10, 45930, Note_on_c, 10, 83, 110
10, 45950, Note_on_c, 10, 83, 0
10, 45960, Note_on_c, 10, 80, 110
10, 45980, Note_on_c, 10, 80, 0
10, 45990, Note_on_c, 10, 80, 110
10, 46010, Note_on_c, 10, 80, 0
10, 46020, Note_on_c, 10, 80, 110
10, 46040, Note_on_c, 10, 80, 0
10, 46050, Note_on_c, 10, 80, 110
10, 46070, Note_on_c, 10, 80, 0
10, 46080, Note_on_c, 10, 81, 110
10, 46100, Note_on_c, 10, 81, 0
10, 46110, Note_on_c, 10, 81, 110
10, 46130, Note_on_c, 10, 81, 0
10, 46140, Note_on_c, 10, 81, 110
10, 46160, Note_on_c, 10, 81, 0
10, 46170, Note_on_c, 10, 81, 110
10, 46190, Note_on_c, 10, 81, 0
10, 46200, Note_on_c, 10, 81, 110
10, 46220, Note_on_c, 10, 81, 0
10, 46230, Note_on_c, 10, 81, 110
10, 46250, Note_on_c, 10, 81, 0
10, 46260, Note_on_c, 10, 81, 110
10, 46280, Note_on_c, 10, 81, 0
10, 46290, Note_on_c, 10, 81, 110
10, 46310, Note_on_c, 10, 81, 0
10, 46320, Note_on_c, 10, 81, 110
10, 46340, Note_on_c, 10, 81, 0
10, 46350, Note_on_c, 10, 81, 110
10, 46370, Note_on_c, 10, 81, 0
10, 46380, Note_on_c, 10, 81, 110
10, 46400, Note_on_c, 10, 81, 0
10, 46410, Note_on_c, 10, 81, 110
10, 46430, Note_on_c, 10, 81, 0
10, 46440, Note_on_c, 10, 81, 110
10, 46460, Note_on_c, 10, 81, 0
10, 46470, Note_on_c, 10, 81, 110
10, 46490, Note_on_c, 10, 81, 0
10, 46500, Note_on_c, 10, 81, 110
10, 46520, Note_on_c, 10, 81, 0
10, 46530, Note_on_c, 10, 81, 110
10, 46550, Note_on_c, 10, 81, 0
10, 46560, Note_on_c, 10, 82, 110
10, 46580, Note_on_c, 10, 82, 0
10, 46590, Note_on_c, 10, 82, 110
10, 46610, Note_on_c, 10, 82, 0
10, 46620, Note_on_c, 10, 82, 110
10, 46640, Note_on_c, 10, 82, 0
10, 46650, Note_on_c, 10, 82, 110
10, 46670, Note_on_c, 10, 82, 0
10, 46680, Note_on_c, 10, 79, 110
10, 46700, Note_on_c, 10, 79, 0
10, 46710, Note_on_c, 10, 79, 110
10, 46730, Note_on_c, 10, 79, 0
10, 46740, Note_on_c, 10, 79, 110
10, 46760, Note_on_c, 10, 79, 0
10, 46770, Note_on_c, 10, 79, 110
10, 46790, Note_on_c, 10, 79, 0
10, 46800, Note_on_c, 10, 76, 110
10, 46820, Note_on_c, 10, 76, 0
10, 46830, Note_on_c, 10, 76, 110
10, 46850, Note_on_c, 10, 76, 0
10, 46860, Note_on_c, 10, 76, 110
10, 46880, Note_on_c, 10, 76, 0
10, 46890, Note_on_c, 10, 76, 110
10, 46910, Note_on_c, 10, 76, 0
10, 46920, Note_on_c, 10, 73, 110
10, 46940, Note_on_c, 10, 73, 0
10, 46950, Note_on_c, 10, 73, 110
10, 46970, Note_on_c, 10, 73, 0
10, 46980, Note_on_c, 10, 73, 110
10, 47000, Note_on_c, 10, 73, 0
10, 47010, Note_on_c, 10, 73, 110
10, 47030, Note_on_c, 10, 73, 0
10, 47040, Control_c, 10, 11, 122
10, 47040, Note_on_c, 10, 74, 110
10, 47057, Control_c, 10, 11, 119
10, 47060, Note_on_c, 10, 74, 0
10, 47070, Note_on_c, 10, 74, 110
10, 47075, Control_c, 10, 11, 116
10, 47090, Note_on_c, 10, 74, 0
10, 47093, Control_c, 10, 11, 113
10, 47100, Note_on_c, 10, 74, 110
10, 47111, Control_c, 10, 11, 110
10, 47120, Note_on_c, 10, 74, 0
10, 47129, Control_c, 10, 11, 107
10, 47130, Note_on_c, 10, 74, 110
10, 47147, Control_c, 10, 11, 104
10, 47150, Note_on_c, 10, 74, 0
10, 47160, Note_on_c, 10, 74, 110
10, 47180, Note_on_c, 10, 74, 0
10, 47190, Note_on_c, 10, 74, 110
10, 47210, Note_on_c, 10, 74, 0
10, 47220, Note_on_c, 10, 74, 110
10, 47240, Note_on_c, 10, 74, 0
10, 47250, Note_on_c, 10, 74, 110
10, 47270, Note_on_c, 10, 74, 0
10, 47280, Control_c, 10, 11, 122
10, 47280, Note_on_c, 10, 76, 110
10, 47297, Control_c, 10, 11, 119
10, 47300, Note_on_c, 10, 76, 0
10, 47310, Note_on_c, 10, 76, 110
10, 47315, Control_c, 10, 11, 116
10, 47330, Note_on_c, 10, 76, 0
10, 47333, Control_c, 10, 11, 113
10, 47340, Note_on_c, 10, 76, 110
10, 47351, Control_c, 10, 11, 110
10, 47360, Note_on_c, 10, 76, 0
10, 47369, Control_c, 10, 11, 107
10, 47370, Note_on_c, 10, 76, 110
10, 47387, Control_c, 10, 11, 104
10, 47390, Note_on_c, 10, 76, 0
10, 47400, Note_on_c, 10, 76, 110
10, 47420, Note_on_c, 10, 76, 0
10, 47430, Note_on_c, 10, 76, 110
10, 47450, Note_on_c, 10, 76, 0
10, 47460, Note_on_c, 10, 76, 110
10, 47480, Note_on_c, 10, 76, 0
10, 47490, Note_on_c, 10, 76, 110
10, 47510, Note_on_c, 10, 76, 0
10, 47520, Note_on_c, 10, 72, 110
10, 47520, Control_c, 10, 11, 122
10, 47537, Control_c, 10, 11, 119
10, 47540, Note_on_c, 10, 72, 0
10, 47550, Note_on_c, 10, 72, 110
10, 47555, Control_c, 10, 11, 116
10, 47570, Note_on_c, 10, 72, 0
10, 47573, Control_c, 10, 11, 113
10, 47580, Note_on_c, 10, 72, 110
10, 47591, Control_c, 10, 11, 110
10, 47600, Note_on_c, 10, 72, 0
10, 47609, Control_c, 10, 11, 107
10, 47610, Note_on_c, 10, 72, 110
10, 47627, Control_c, 10, 11, 104
10, 47630, Note_on_c, 10, 72, 0
10, 47640, Note_on_c, 10, 72, 110
10, 47660, Note_on_c, 10, 72, 0
10, 47670, Note_on_c, 10, 72, 110
10, 47690, Note_on_c, 10, 72, 0
10, 47700, Note_on_c, 10, 72, 110
10, 47720, Note_on_c, 10, 72, 0
10, 47730, Note_on_c, 10, 72, 110
10, 47750, Note_on_c, 10, 72, 0
10, 47760, Control_c, 10, 11, 122
10, 47760, Note_on_c, 10, 74, 110
10, 47777, Control_c, 10, 11, 119
10, 47780, Note_on_c, 10, 74, 0
10, 47790, Note_on_c, 10, 74, 110
10, 47795, Control_c, 10, 11, 116
10, 47810, Note_on_c, 10, 74, 0
10, 47813, Control_c, 10, 11, 113
10, 47820, Note_on_c, 10, 74, 110
10, 47831, Control_c, 10, 11, 110
10, 47840, Note_on_c, 10, 74, 0
10, 47849, Control_c, 10, 11, 107
10, 47850, Note_on_c, 10, 74, 110
10, 47867, Control_c, 10, 11, 104
10, 47870, Note_on_c, 10, 74, 0
10, 47880, Note_on_c, 10, 74, 110
10, 47900, Note_on_c, 10, 74, 0
10, 47910, Note_on_c, 10, 74, 110
10, 47930, Note_on_c, 10, 74, 0
10, 47940, Note_on_c, 10, 74, 110
10, 47960, Note_on_c, 10, 74, 0
10, 47970, Note_on_c, 10, 74, 110
10, 47990, Note_on_c, 10, 74, 0
10, 48000, Note_on_c, 10, 67, 100
10, 48060, Control_c, 10, 11, 102
10, 48064, Control_c, 10, 11, 99
10, 48068, Control_c, 10, 11, 96
10, 48073, Control_c, 10, 11, 93
10, 48077, Control_c, 10, 11, 90
10, 48082, Control_c, 10, 11, 87
10, 48086, Control_c, 10, 11, 84
10, 48090, Control_c, 10, 11, 81
10, 48095, Control_c, 10, 11, 78
10, 48099, Control_c, 10, 11, 75
10, 48104, Control_c, 10, 11, 72
10, 48108, Control_c, 10, 11, 69
10, 48113, Control_c, 10, 11, 66
10, 48117, Control_c, 10, 11, 63
10, 48120, Note_on_c, 10, 67, 0
10, 48360, Control_c, 10, 11, 47
10, 48360, Note_on_c, 10, 78, 110
10, 48480, Note_on_c, 10, 78, 0
10, 48480, Note_on_c, 10, 79, 125
10, 48660, Note_on_c, 10, 79, 0
10, 48660, Note_on_c, 10, 78, 110
10, 48690, Note_on_c, 10, 78, 0
10, 48690, Note_on_c, 10, 76, 110
10, 48710, Note_on_c, 10, 76, 0
10, 48720, Note_on_c, 10, 74, 110
10, 48780, Note_on_c, 10, 74, 0
10, 48840, Control_c, 10, 11, 63
10, 48840, Note_on_c, 10, 72, 110
10, 48846, Control_c, 10, 11, 66
10, 48853, Control_c, 10, 11, 69
10, 48861, Control_c, 10, 11, 72
10, 48876, Control_c, 10, 11, 71
10, 48894, Control_c, 10, 11, 68
10, 48912, Control_c, 10, 11, 65
10, 48930, Control_c, 10, 11, 62
10, 48948, Control_c, 10, 11, 59
10, 48960, Note_on_c, 10, 72, 0
10, 48960, Note_on_c, 10, 71, 110
10, 48960, Control_c, 10, 11, 47
10, 48966, Control_c, 10, 11, 56
10, 48984, Control_c, 10, 11, 53
10, 49002, Control_c, 10, 11, 50
10, 49080, Note_on_c, 10, 71, 0
10, 49320, Note_on_c, 10, 78, 110
10, 49440, Note_on_c, 10, 78, 0
10, 49440, Note_on_c, 10, 79, 125
10, 49620, Note_on_c, 10, 79, 0
10, 49620, Note_on_c, 10, 78, 110
10, 49650, Note_on_c, 10, 78, 0
10, 49650, Note_on_c, 10, 76, 110
10, 49670, Note_on_c, 10, 76, 0
10, 49680, Note_on_c, 10, 74, 110
10, 49740, Note_on_c, 10, 74, 0
10, 49800, Control_c, 10, 11, 63
10, 49800, Note_on_c, 10, 78, 110
10, 49806, Control_c, 10, 11, 66
10, 49813, Control_c, 10, 11, 69
10, 49821, Control_c, 10, 11, 72
10, 49836, Control_c, 10, 11, 71
10, 49854, Control_c, 10, 11, 68
10, 49872, Control_c, 10, 11, 65
10, 49890, Control_c, 10, 11, 62
10, 49908, Control_c, 10, 11, 59
10, 49920, Note_on_c, 10, 78, 0
10, 49920, Note_on_c, 10, 79, 125
10, 49920, Control_c, 10, 11, 47
10, 49926, Control_c, 10, 11, 56
10, 49944, Control_c, 10, 11, 53
10, 49962, Control_c, 10, 11, 50
10, 50100, Note_on_c, 10, 79, 0
10, 50100, Note_on_c, 10, 78, 110
10, 50130, Note_on_c, 10, 78, 0
10, 50130, Note_on_c, 10, 76, 110
10, 50150, Note_on_c, 10, 76, 0
10, 50160, Note_on_c, 10, 74, 110
10, 50220, Note_on_c, 10, 74, 0
10, 50280, Control_c, 10, 11, 63
10, 50280, Note_on_c, 10, 78, 110
10, 50286, Control_c, 10, 11, 66
10, 50293, Control_c, 10, 11, 69
10, 50301, Control_c, 10, 11, 72
10, 50316, Control_c, 10, 11, 71
10, 50334, Control_c, 10, 11, 68
10, 50352, Control_c, 10, 11, 65
10, 50370, Control_c, 10, 11, 62
10, 50388, Control_c, 10, 11, 59
10, 50400, Note_on_c, 10, 78, 0
10, 50400, Note_on_c, 10, 79, 125
10, 50400, Control_c, 10, 11, 47
10, 50406, Control_c, 10, 11, 56
10, 50424, Control_c, 10, 11, 53
10, 50442, Control_c, 10, 11, 50
10, 50580, Note_on_c, 10, 79, 0
10, 50580, Note_on_c, 10, 78, 110
10, 50610, Note_on_c, 10, 78, 0
10, 50610, Note_on_c, 10, 76, 110
10, 50630, Note_on_c, 10, 76, 0
10, 50640, Note_on_c, 10, 74, 110
10, 50700, Note_on_c, 10, 74, 0
10, 50755, Control_c, 10, 11, 67
10, 50756, Control_c, 10, 11, 74
10, 50757, Control_c, 10, 11, 81
10, 50758, Control_c, 10, 11, 88
10, 50759, Control_c, 10, 11, 95
10, 50760, Control_c, 10, 11, 102
10, 50760, Note_on_c, 10, 62, 95
10, 50770, Note_on_c, 10, 69, 95
10, 50770, Note_on_c, 10, 78, 95
10, 50820, Note_on_c, 10, 62, 0
10, 50830, Note_on_c, 10, 78, 0
10, 50830, Note_on_c, 10, 69, 0
10, 50880, Note_on_c, 10, 55, 95
10, 50880, Note_on_c, 10, 62, 95
10, 50890, Note_on_c, 10, 71, 95
10, 50890, Note_on_c, 10, 79, 95
10, 50940, Note_on_c, 10, 62, 0
10, 50940, Note_on_c, 10, 55, 0
10, 50950, Note_on_c, 10, 71, 0
10, 50950, Note_on_c, 10, 79, 0
10, 51840, Note_on_c, 10, 62, 86
10, 51840, Note_on_c, 10, 55, 86
10, 51850, Note_on_c, 10, 71, 86
10, 51960, Note_on_c, 10, 55, 0
10, 51960, Note_on_c, 10, 62, 0
10, 51970, Note_on_c, 10, 71, 0
10, 52680, Note_on_c, 10, 55, 100
10, 52680, Control_c, 10, 11, 47
10, 52770, Note_on_c, 10, 55, 0
10, 52770, Note_on_c, 10, 59, 100
10, 52790, Note_on_c, 10, 59, 0
10, 52800, Note_on_c, 10, 60, 110
10, 53070, Control_c, 10, 11, 47
10, 53078, Control_c, 10, 11, 44
10, 53086, Control_c, 10, 11, 41
10, 53094, Control_c, 10, 11, 38
10, 53102, Control_c, 10, 11, 35
10, 53108, Note_on_c, 10, 60, 0
10, 53110, Control_c, 10, 11, 32
10, 53160, Note_on_c, 10, 55, 110
10, 53160, Control_c, 10, 11, 47
10, 53250, Note_on_c, 10, 55, 0
10, 53250, Note_on_c, 10, 59, 110
10, 53270, Note_on_c, 10, 59, 0
10, 53280, Note_on_c, 10, 60, 110
10, 53550, Control_c, 10, 11, 47
10, 53558, Control_c, 10, 11, 44
10, 53566, Control_c, 10, 11, 41
10, 53574, Control_c, 10, 11, 38
10, 53582, Control_c, 10, 11, 35
10, 53588, Note_on_c, 10, 60, 0
10, 53590, Control_c, 10, 11, 32
10, 53640, Note_on_c, 10, 55, 110
10, 53640, Control_c, 10, 11, 47
10, 53730, Note_on_c, 10, 55, 0
10, 53730, Note_on_c, 10, 59, 110
10, 53750, Note_on_c, 10, 59, 0
10, 53760, Note_on_c, 10, 60, 110
10, 53790, Note_on_c, 10, 60, 0
10, 53820, Note_on_c, 10, 60, 110
10, 53850, Note_on_c, 10, 60, 0
10, 53880, Note_on_c, 10, 55, 110
10, 53910, Note_on_c, 10, 55, 0
10, 53940, Note_on_c, 10, 59, 110
10, 53970, Note_on_c, 10, 59, 0
10, 54000, Note_on_c, 10, 60, 110
10, 54030, Note_on_c, 10, 60, 0
10, 54060, Note_on_c, 10, 60, 110
10, 54090, Note_on_c, 10, 60, 0
10, 54120, Note_on_c, 10, 55, 110
10, 54150, Note_on_c, 10, 55, 0
10, 54180, Note_on_c, 10, 59, 110
10, 54210, Note_on_c, 10, 59, 0
10, 54240, Note_on_c, 10, 60, 110
10, 54300, Note_on_c, 10, 60, 0
10, 54360, Note_on_c, 10, 64, 110
10, 54420, Note_on_c, 10, 64, 0
10, 54480, Note_on_c, 10, 67, 110
10, 54540, Note_on_c, 10, 67, 0
10, 54600, Note_on_c, 10, 71, 110
10, 54660, Note_on_c, 10, 71, 0
10, 54720, Note_on_c, 10, 72, 110
10, 54840, Note_on_c, 10, 72, 0
10, 55560, Note_on_c, 10, 69, 110
10, 55590, Note_on_c, 10, 69, 0
10, 55590, Note_on_c, 10, 67, 110
10, 55620, Note_on_c, 10, 67, 0
10, 55620, Note_on_c, 10, 65, 110
10, 55650, Note_on_c, 10, 65, 0
10, 55650, Note_on_c, 10, 64, 110
10, 55680, Note_on_c, 10, 64, 0
10, 55680, Note_on_c, 10, 62, 110
10, 55950, Control_c, 10, 11, 47
10, 55958, Control_c, 10, 11, 44
10, 55966, Control_c, 10, 11, 41
10, 55974, Control_c, 10, 11, 38
10, 55982, Control_c, 10, 11, 35
10, 55988, Note_on_c, 10, 62, 0
10, 55990, Control_c, 10, 11, 32
10, 56040, Control_c, 10, 11, 47
10, 56040, Note_on_c, 10, 57, 110
10, 56130, Note_on_c, 10, 57, 0
10, 56130, Note_on_c, 10, 61, 110
10, 56160, Note_on_c, 10, 61, 0
10, 56160, Note_on_c, 10, 62, 110
10, 56430, Control_c, 10, 11, 47
10, 56438, Control_c, 10, 11, 44
10, 56446, Control_c, 10, 11, 41
10, 56454, Control_c, 10, 11, 38
10, 56462, Control_c, 10, 11, 35
10, 56468, Note_on_c, 10, 62, 0
10, 56470, Control_c, 10, 11, 32
10, 56520, Control_c, 10, 11, 47
10, 56520, Note_on_c, 10, 57, 110
10, 56610, Note_on_c, 10, 57, 0
10, 56610, Note_on_c, 10, 61, 110
10, 56640, Note_on_c, 10, 61, 0
10, 56640, Note_on_c, 10, 62, 110
10, 56670, Note_on_c, 10, 62, 0
10, 56700, Note_on_c, 10, 62, 110
10, 56730, Note_on_c, 10, 62, 0
10, 56760, Note_on_c, 10, 57, 110
10, 56790, Note_on_c, 10, 57, 0
10, 56820, Note_on_c, 10, 61, 110
10, 56850, Note_on_c, 10, 61, 0
10, 56880, Note_on_c, 10, 62, 110
10, 56910, Note_on_c, 10, 62, 0
10, 56940, Note_on_c, 10, 62, 110
10, 56970, Note_on_c, 10, 62, 0
10, 57000, Note_on_c, 10, 57, 110
10, 57030, Note_on_c, 10, 57, 0
10, 57060, Note_on_c, 10, 61, 110
10, 57090, Note_on_c, 10, 61, 0
10, 57120, Note_on_c, 10, 62, 110
10, 57180, Note_on_c, 10, 62, 0
10, 57240, Note_on_c, 10, 65, 110
10, 57300, Note_on_c, 10, 65, 0
10, 57360, Note_on_c, 10, 69, 110
10, 57420, Note_on_c, 10, 69, 0
10, 57480, Note_on_c, 10, 73, 110
10, 57540, Note_on_c, 10, 73, 0
10, 57600, Control_c, 10, 11, 32
10, 57600, Note_on_c, 10, 74, 110
10, 57611, Control_c, 10, 11, 35
10, 57622, Control_c, 10, 11, 38
10, 57633, Control_c, 10, 11, 41
10, 57645, Control_c, 10, 11, 44
10, 57656, Control_c, 10, 11, 47
10, 57696, Control_c, 10, 11, 50
10, 57720, Note_on_c, 10, 74, 0
10, 58080, Control_c, 10, 11, 62
10, 58080, Note_on_c, 10, 62, 110
10, 58100, Note_on_c, 10, 62, 0
10, 58100, Note_on_c, 10, 60, 110
10, 58112, Control_c, 10, 11, 63
10, 58120, Note_on_c, 10, 60, 0
10, 58120, Note_on_c, 10, 62, 110
10, 58140, Note_on_c, 10, 62, 0
10, 58140, Note_on_c, 10, 60, 110
10, 58144, Control_c, 10, 11, 64
10, 58160, Note_on_c, 10, 60, 0
10, 58160, Note_on_c, 10, 62, 110
10, 58176, Control_c, 10, 11, 65
10, 58180, Note_on_c, 10, 62, 0
10, 58180, Note_on_c, 10, 60, 110
10, 58200, Note_on_c, 10, 60, 0
10, 58200, Note_on_c, 10, 62, 110
10, 58208, Control_c, 10, 11, 66
10, 58220, Note_on_c, 10, 62, 0
10, 58220, Note_on_c, 10, 60, 110
10, 58240, Note_on_c, 10, 60, 0
10, 58240, Note_on_c, 10, 62, 110
10, 58240, Control_c, 10, 11, 67
10, 58260, Note_on_c, 10, 62, 0
10, 58260, Note_on_c, 10, 60, 110
10, 58272, Control_c, 10, 11, 68
10, 58280, Note_on_c, 10, 60, 0
10, 58280, Note_on_c, 10, 62, 110
10, 58300, Note_on_c, 10, 62, 0
10, 58300, Note_on_c, 10, 60, 110
10, 58304, Control_c, 10, 11, 69
10, 58320, Note_on_c, 10, 60, 0
10, 58320, Note_on_c, 10, 62, 110
10, 58336, Control_c, 10, 11, 70
10, 58340, Note_on_c, 10, 62, 0
10, 58340, Note_on_c, 10, 60, 110
10, 58360, Note_on_c, 10, 60, 0
10, 58360, Note_on_c, 10, 62, 110
10, 58368, Control_c, 10, 11, 71
10, 58380, Note_on_c, 10, 62, 0
10, 58380, Note_on_c, 10, 60, 110
10, 58400, Note_on_c, 10, 60, 0
10, 58400, Control_c, 10, 11, 72
10, 58400, Note_on_c, 10, 62, 110
10, 58420, Note_on_c, 10, 62, 0
10, 58420, Note_on_c, 10, 60, 110
10, 58432, Control_c, 10, 11, 73
10, 58440, Note_on_c, 10, 60, 0
10, 58440, Note_on_c, 10, 62, 110
10, 58460, Note_on_c, 10, 62, 0
10, 58460, Note_on_c, 10, 60, 110
10, 58464, Control_c, 10, 11, 74
10, 58480, Note_on_c, 10, 60, 0
10, 58480, Note_on_c, 10, 62, 110
10, 58496, Control_c, 10, 11, 75
10, 58500, Note_on_c, 10, 62, 0
10, 58500, Note_on_c, 10, 59, 110
10, 58528, Control_c, 10, 11, 76
10, 58530, Note_on_c, 10, 59, 0
10, 58530, Note_on_c, 10, 60, 110
10, 58560, Note_on_c, 10, 60, 0
10, 58560, Note_on_c, 10, 59, 110
10, 58560, Control_c, 10, 11, 84
10, 58565, Control_c, 10, 11, 87
10, 58570, Control_c, 10, 11, 90
10, 58575, Control_c, 10, 11, 93
10, 58595, Control_c, 10, 11, 91
10, 58613, Control_c, 10, 11, 88
10, 58631, Control_c, 10, 11, 85
10, 58649, Control_c, 10, 11, 82
10, 58667, Control_c, 10, 11, 79
10, 58680, Control_c, 10, 11, 67
10, 58830, Control_c, 10, 11, 67
10, 58836, Control_c, 10, 11, 64
10, 58842, Control_c, 10, 11, 61
10, 58848, Control_c, 10, 11, 58
10, 58854, Control_c, 10, 11, 55
10, 58860, Control_c, 10, 11, 52
10, 58866, Control_c, 10, 11, 49
10, 58868, Note_on_c, 10, 59, 0
10, 58920, Note_on_c, 10, 55, 110
10, 58920, Control_c, 10, 11, 67
10, 59010, Note_on_c, 10, 55, 0
10, 59010, Note_on_c, 10, 59, 110
10, 59040, Note_on_c, 10, 59, 0
10, 59040, Note_on_c, 10, 62, 110
10, 59070, Note_on_c, 10, 62, 0
10, 59100, Note_on_c, 10, 62, 110
10, 59130, Note_on_c, 10, 62, 0
10, 59160, Note_on_c, 10, 55, 110
10, 59190, Note_on_c, 10, 55, 0
10, 59220, Note_on_c, 10, 59, 110
10, 59250, Note_on_c, 10, 59, 0
10, 59280, Note_on_c, 10, 62, 110
10, 59310, Note_on_c, 10, 62, 0
10, 59340, Note_on_c, 10, 62, 110
10, 59370, Note_on_c, 10, 62, 0
10, 59400, Control_c, 10, 11, 67
10, 59400, Note_on_c, 10, 55, 110
10, 59490, Note_on_c, 10, 55, 0
10, 59490, Note_on_c, 10, 59, 110
10, 59520, Note_on_c, 10, 59, 0
10, 59520, Control_c, 10, 11, 84
10, 59520, Note_on_c, 10, 62, 110
10, 59525, Control_c, 10, 11, 87
10, 59530, Control_c, 10, 11, 90
10, 59536, Control_c, 10, 11, 93
10, 59556, Control_c, 10, 11, 91
10, 59574, Control_c, 10, 11, 88
10, 59592, Control_c, 10, 11, 85
10, 59610, Control_c, 10, 11, 82
10, 59628, Control_c, 10, 11, 79
10, 59790, Control_c, 10, 11, 67
10, 59796, Control_c, 10, 11, 64
10, 59802, Control_c, 10, 11, 61
10, 59808, Control_c, 10, 11, 58
10, 59814, Control_c, 10, 11, 55
10, 59820, Control_c, 10, 11, 52
10, 59826, Control_c, 10, 11, 49
10, 59828, Note_on_c, 10, 62, 0
10, 59880, Note_on_c, 10, 55, 110
10, 59880, Control_c, 10, 11, 67
10, 59970, Note_on_c, 10, 55, 0
10, 59970, Note_on_c, 10, 59, 110
10, 60000, Note_on_c, 10, 59, 0
10, 60000, Note_on_c, 10, 62, 110
10, 60030, Note_on_c, 10, 62, 0
10, 60060, Note_on_c, 10, 62, 110
10, 60090, Note_on_c, 10, 62, 0
10, 60120, Note_on_c, 10, 55, 110
10, 60150, Note_on_c, 10, 55, 0
10, 60180, Note_on_c, 10, 59, 110
10, 60210, Note_on_c, 10, 59, 0
10, 60240, Note_on_c, 10, 62, 110
10, 60270, Note_on_c, 10, 62, 0
10, 60300, Note_on_c, 10, 62, 110
10, 60330, Note_on_c, 10, 62, 0
10, 60360, Control_c, 10, 11, 67
10, 60360, Note_on_c, 10, 59, 110
10, 60450, Note_on_c, 10, 59, 0
10, 60450, Note_on_c, 10, 62, 110
10, 60480, Note_on_c, 10, 62, 0
10, 60480, Note_on_c, 10, 65, 110
10, 60480, Control_c, 10, 11, 84
10, 60485, Control_c, 10, 11, 87
10, 60490, Control_c, 10, 11, 90
10, 60496, Control_c, 10, 11, 93
10, 60516, Control_c, 10, 11, 91
10, 60534, Control_c, 10, 11, 88
10, 60552, Control_c, 10, 11, 85
10, 60570, Control_c, 10, 11, 82
10, 60588, Control_c, 10, 11, 79
10, 60750, Control_c, 10, 11, 67
10, 60756, Control_c, 10, 11, 64
10, 60762, Control_c, 10, 11, 61
10, 60768, Control_c, 10, 11, 58
10, 60774, Control_c, 10, 11, 55
10, 60780, Control_c, 10, 11, 52
10, 60786, Control_c, 10, 11, 49
10, 60788, Note_on_c, 10, 65, 0
10, 60840, Note_on_c, 10, 71, 100
10, 60840, Control_c, 10, 11, 67
10, 60930, Note_on_c, 10, 71, 0
10, 60930, Note_on_c, 10, 74, 100
10, 60960, Note_on_c, 10, 74, 0
10, 60960, Control_c, 10, 11, 77
10, 60960, Note_on_c, 10, 77, 100
10, 60979, Control_c, 10, 11, 78
10, 60990, Note_on_c, 10, 77, 0
10, 60998, Control_c, 10, 11, 79
10, 61017, Control_c, 10, 11, 80
10, 61020, Note_on_c, 10, 74, 100
10, 61036, Control_c, 10, 11, 81
10, 61050, Note_on_c, 10, 74, 0
10, 61055, Control_c, 10, 11, 82
10, 61074, Control_c, 10, 11, 83
10, 61080, Note_on_c, 10, 71, 100
10, 61094, Control_c, 10, 11, 84
10, 61110, Note_on_c, 10, 71, 0
10, 61113, Control_c, 10, 11, 85
10, 61132, Control_c, 10, 11, 86
10, 61140, Note_on_c, 10, 67, 100
10, 61151, Control_c, 10, 11, 87
10, 61170, Note_on_c, 10, 67, 0
10, 61170, Control_c, 10, 11, 88
10, 61189, Control_c, 10, 11, 89
10, 61200, Note_on_c, 10, 65, 100
10, 61209, Control_c, 10, 11, 90
10, 61228, Control_c, 10, 11, 91
10, 61230, Note_on_c, 10, 65, 0
10, 61247, Control_c, 10, 11, 92
10, 61260, Note_on_c, 10, 62, 100
10, 61266, Control_c, 10, 11, 93
10, 61285, Control_c, 10, 11, 94
10, 61290, Note_on_c, 10, 62, 0
10, 61304, Control_c, 10, 11, 95
10, 61320, Note_on_c, 10, 59, 100
10, 61324, Control_c, 10, 11, 96
10, 61343, Control_c, 10, 11, 97
10, 61350, Note_on_c, 10, 59, 0
10, 61362, Control_c, 10, 11, 98
10, 61380, Note_on_c, 10, 55, 100
10, 61381, Control_c, 10, 11, 99
10, 61400, Control_c, 10, 11, 100
10, 61410, Note_on_c, 10, 55, 0
10, 61419, Control_c, 10, 11, 101
10, 61439, Control_c, 10, 11, 102
10, 61440, Note_on_c, 10, 60, 100
10, 61500, Note_on_c, 10, 60, 0
10, 61680, Note_on_c, 10, 65, 100
10, 61690, Note_on_c, 10, 72, 100
10, 61690, Note_on_c, 10, 81, 100
10, 61740, Note_on_c, 10, 65, 0
10, 61750, Note_on_c, 10, 81, 0
10, 61750, Note_on_c, 10, 72, 0
10, 61920, Note_on_c, 10, 64, 100
10, 61930, Note_on_c, 10, 79, 100
10, 61930, Note_on_c, 10, 72, 100
10, 61980, Note_on_c, 10, 64, 0
10, 61990, Note_on_c, 10, 72, 0
10, 61990, Note_on_c, 10, 79, 0
10, 62160, Note_on_c, 10, 55, 100
10, 62170, Note_on_c, 10, 71, 100
10, 62170, Note_on_c, 10, 62, 100
10, 62220, Note_on_c, 10, 55, 0
10, 62230, Note_on_c, 10, 62, 0
10, 62230, Note_on_c, 10, 71, 0
10, 62400, Note_on_c, 10, 55, 100
10, 62410, Note_on_c, 10, 72, 100
10, 62410, Note_on_c, 10, 64, 100
10, 62750, Note_on_c, 10, 55, 0
10, 62760, Note_on_c, 10, 64, 0
10, 62760, Note_on_c, 10, 76, 100
10, 62770, Note_on_c, 10, 72, 0
10, 62870, Note_on_c, 10, 76, 0
10, 62880, Note_on_c, 10, 79, 100
10, 62880, Control_c, 10, 11, 122
10, 62898, Control_c, 10, 11, 119
10, 62916, Control_c, 10, 11, 116
10, 62934, Control_c, 10, 11, 113
10, 62952, Control_c, 10, 11, 110
10, 62970, Control_c, 10, 11, 107
10, 62988, Control_c, 10, 11, 104
10, 63230, Note_on_c, 10, 79, 0
10, 63240, Note_on_c, 10, 77, 100
10, 63270, Note_on_c, 10, 77, 0
10, 63270, Note_on_c, 10, 76, 100
10, 63300, Note_on_c, 10, 76, 0
10, 63300, Note_on_c, 10, 74, 100
10, 63330, Note_on_c, 10, 74, 0
10, 63330, Note_on_c, 10, 72, 100
10, 63350, Note_on_c, 10, 72, 0
10, 63360, Note_on_c, 10, 71, 67
10, 63360, Note_on_c, 10, 62, 67
10, 63410, Note_on_c, 10, 62, 0
10, 63410, Note_on_c, 10, 71, 0
10, 63420, Note_on_c, 10, 71, 67
10, 63420, Note_on_c, 10, 62, 67
10, 63470, Note_on_c, 10, 62, 0
10, 63470, Note_on_c, 10, 71, 0
10, 63480, Note_on_c, 10, 62, 67
10, 63480, Note_on_c, 10, 71, 67
10, 63530, Note_on_c, 10, 71, 0
10, 63530, Note_on_c, 10, 62, 0
10, 63540, Note_on_c, 10, 71, 67
10, 63540, Note_on_c, 10, 62, 67
10, 63590, Note_on_c, 10, 62, 0
10, 63590, Note_on_c, 10, 71, 0
10, 63600, Note_on_c, 10, 62, 67
10, 63600, Note_on_c, 10, 71, 67
10, 63650, Note_on_c, 10, 71, 0
10, 63650, Note_on_c, 10, 62, 0
10, 63660, Note_on_c, 10, 62, 67
10, 63660, Note_on_c, 10, 71, 67
10, 63710, Note_on_c, 10, 71, 0
10, 63710, Note_on_c, 10, 62, 0
10, 63720, Note_on_c, 10, 62, 67
10, 63720, Note_on_c, 10, 71, 67
10, 63770, Note_on_c, 10, 71, 0
10, 63770, Note_on_c, 10, 62, 0
10, 63780, Note_on_c, 10, 62, 67
10, 63780, Note_on_c, 10, 71, 67
10, 63830, Note_on_c, 10, 71, 0
10, 63830, Note_on_c, 10, 62, 0
10, 63840, Note_on_c, 10, 71, 67
10, 63840, Note_on_c, 10, 62, 67
10, 63890, Note_on_c, 10, 62, 0
10, 63890, Note_on_c, 10, 71, 0
10, 63900, Note_on_c, 10, 62, 67
10, 63900, Note_on_c, 10, 71, 67
10, 63950, Note_on_c, 10, 71, 0
10, 63950, Note_on_c, 10, 62, 0
10, 63960, Note_on_c, 10, 71, 67
10, 63960, Note_on_c, 10, 62, 67
10, 64010, Note_on_c, 10, 62, 0
10, 64010, Note_on_c, 10, 71, 0
10, 64020, Note_on_c, 10, 71, 67
10, 64020, Note_on_c, 10, 62, 67
10, 64070, Note_on_c, 10, 62, 0
10, 64070, Note_on_c, 10, 71, 0
10, 64080, Note_on_c, 10, 71, 67
10, 64080, Note_on_c, 10, 62, 67
10, 64130, Note_on_c, 10, 62, 0
10, 64130, Note_on_c, 10, 71, 0
10, 64140, Note_on_c, 10, 62, 67
10, 64140, Note_on_c, 10, 71, 67
10, 64190, Note_on_c, 10, 71, 0
10, 64190, Note_on_c, 10, 62, 0
10, 64200, Note_on_c, 10, 62, 67
10, 64200, Note_on_c, 10, 71, 67
10, 64250, Note_on_c, 10, 71, 0
10, 64250, Note_on_c, 10, 62, 0
10, 64260, Note_on_c, 10, 62, 67
10, 64260, Note_on_c, 10, 71, 67
10, 64310, Note_on_c, 10, 71, 0
10, 64310, Note_on_c, 10, 62, 0
10, 64320, Note_on_c, 10, 72, 100
10, 64380, Note_on_c, 10, 72, 0
10, 64380, Note_on_c, 10, 71, 100
10, 64430, Note_on_c, 10, 71, 0
10, 64440, Note_on_c, 10, 72, 100
10, 64470, Note_on_c, 10, 72, 0
10, 64500, Note_on_c, 10, 74, 100
10, 64530, Note_on_c, 10, 74, 0
10, 64560, Note_on_c, 10, 76, 100
10, 64620, Note_on_c, 10, 76, 0
10, 64620, Note_on_c, 10, 74, 100
10, 64670, Note_on_c, 10, 74, 0
10, 64680, Note_on_c, 10, 76, 100
10, 64710, Note_on_c, 10, 76, 0
10, 64740, Note_on_c, 10, 77, 100
10, 64770, Note_on_c, 10, 77, 0
10, 64800, Note_on_c, 10, 79, 100
10, 64800, Control_c, 10, 11, 122
10, 64818, Control_c, 10, 11, 119
10, 64836, Control_c, 10, 11, 116
10, 64854, Control_c, 10, 11, 113
10, 64860, Note_on_c, 10, 79, 0
10, 64860, Note_on_c, 10, 78, 100
10, 64872, Control_c, 10, 11, 110
10, 64890, Control_c, 10, 11, 107
10, 64908, Control_c, 10, 11, 104
10, 64910, Note_on_c, 10, 78, 0
10, 64920, Note_on_c, 10, 79, 100
10, 64950, Note_on_c, 10, 79, 0
10, 64980, Note_on_c, 10, 78, 100
10, 65010, Note_on_c, 10, 78, 0
10, 65040, Note_on_c, 10, 79, 100
10, 65100, Note_on_c, 10, 79, 0
10, 65100, Note_on_c, 10, 76, 100
10, 65150, Note_on_c, 10, 76, 0
10, 65160, Note_on_c, 10, 74, 100
10, 65190, Note_on_c, 10, 74, 0
10, 65220, Note_on_c, 10, 72, 100
10, 65250, Note_on_c, 10, 72, 0
10, 65280, Note_on_c, 10, 62, 67
10, 65280, Note_on_c, 10, 71, 67
10, 65330, Note_on_c, 10, 71, 0
10, 65330, Note_on_c, 10, 62, 0
10, 65340, Note_on_c, 10, 62, 67
10, 65340, Note_on_c, 10, 71, 67
10, 65390, Note_on_c, 10, 71, 0
10, 65390, Note_on_c, 10, 62, 0
10, 65400, Note_on_c, 10, 62, 67
10, 65400, Note_on_c, 10, 71, 67
10, 65450, Note_on_c, 10, 71, 0
10, 65450, Note_on_c, 10, 62, 0
10, 65460, Note_on_c, 10, 71, 67
10, 65460, Note_on_c, 10, 62, 67
10, 65510, Note_on_c, 10, 62, 0
10, 65510, Note_on_c, 10, 71, 0
10, 65520, Note_on_c, 10, 71, 67
10, 65520, Note_on_c, 10, 62, 67
10, 65570, Note_on_c, 10, 62, 0
10, 65570, Note_on_c, 10, 71, 0
10, 65580, Note_on_c, 10, 71, 67
10, 65580, Note_on_c, 10, 62, 67
10, 65630, Note_on_c, 10, 62, 0
10, 65630, Note_on_c, 10, 71, 0
10, 65640, Note_on_c, 10, 71, 67
10, 65640, Note_on_c, 10, 62, 67
10, 65690, Note_on_c, 10, 62, 0
10, 65690, Note_on_c, 10, 71, 0
10, 65700, Note_on_c, 10, 71, 67
10, 65700, Note_on_c, 10, 62, 67
10, 65750, Note_on_c, 10, 62, 0
10, 65750, Note_on_c, 10, 71, 0
10, 65760, Note_on_c, 10, 62, 67
10, 65760, Note_on_c, 10, 71, 67
10, 65810, Note_on_c, 10, 71, 0
10, 65810, Note_on_c, 10, 62, 0
10, 65820, Note_on_c, 10, 71, 67
10, 65820, Note_on_c, 10, 62, 67
10, 65870, Note_on_c, 10, 62, 0
10, 65870, Note_on_c, 10, 71, 0
10, 65880, Note_on_c, 10, 62, 67
10, 65880, Note_on_c, 10, 71, 67
10, 65930, Note_on_c, 10, 71, 0
10, 65930, Note_on_c, 10, 62, 0
10, 65940, Note_on_c, 10, 62, 67
10, 65940, Note_on_c, 10, 71, 67
10, 65990, Note_on_c, 10, 71, 0
10, 65990, Note_on_c, 10, 62, 0
10, 66000, Note_on_c, 10, 71, 67
10, 66000, Note_on_c, 10, 62, 67
10, 66050, Note_on_c, 10, 62, 0
10, 66050, Note_on_c, 10, 71, 0
10, 66060, Note_on_c, 10, 71, 67
10, 66060, Note_on_c, 10, 62, 67
10, 66110, Note_on_c, 10, 62, 0
10, 66110, Note_on_c, 10, 71, 0
10, 66120, Note_on_c, 10, 62, 67
10, 66120, Note_on_c, 10, 71, 67
10, 66170, Note_on_c, 10, 71, 0
10, 66170, Note_on_c, 10, 62, 0
10, 66180, Note_on_c, 10, 62, 67
10, 66180, Note_on_c, 10, 71, 67
10, 66230, Note_on_c, 10, 71, 0
10, 66230, Note_on_c, 10, 62, 0
10, 66240, Control_c, 10, 11, 102
10, 66240, Note_on_c, 10, 72, 100
10, 66256, Control_c, 10, 11, 100
10, 66270, Note_on_c, 10, 72, 0
10, 66272, Control_c, 10, 11, 98
10, 66288, Control_c, 10, 11, 96
10, 66300, Note_on_c, 10, 72, 100
10, 66304, Control_c, 10, 11, 94
10, 66320, Control_c, 10, 11, 92
10, 66330, Note_on_c, 10, 72, 0
10, 66336, Control_c, 10, 11, 90
10, 66352, Control_c, 10, 11, 88
10, 66360, Note_on_c, 10, 67, 100
10, 66390, Note_on_c, 10, 67, 0
10, 66420, Note_on_c, 10, 71, 100
10, 66450, Note_on_c, 10, 71, 0
10, 66480, Note_on_c, 10, 72, 100
10, 66510, Note_on_c, 10, 72, 0
10, 66540, Note_on_c, 10, 72, 100
10, 66570, Note_on_c, 10, 72, 0
10, 66600, Note_on_c, 10, 69, 100
10, 66630, Note_on_c, 10, 69, 0
10, 66660, Note_on_c, 10, 73, 100
10, 66690, Note_on_c, 10, 73, 0
10, 66720, Control_c, 10, 11, 87
10, 66720, Note_on_c, 10, 74, 100
10, 66750, Note_on_c, 10, 74, 0
10, 66777, Control_c, 10, 11, 88
10, 66780, Note_on_c, 10, 74, 100
10, 66810, Note_on_c, 10, 74, 0
10, 66835, Control_c, 10, 11, 89
10, 66840, Note_on_c, 10, 69, 100
10, 66870, Note_on_c, 10, 69, 0
10, 66892, Control_c, 10, 11, 90
10, 66900, Note_on_c, 10, 73, 100
10, 66930, Note_on_c, 10, 73, 0
10, 66950, Control_c, 10, 11, 91
10, 66960, Note_on_c, 10, 74, 100
10, 66990, Note_on_c, 10, 74, 0
10, 67008, Control_c, 10, 11, 92
10, 67020, Note_on_c, 10, 74, 100
10, 67050, Note_on_c, 10, 74, 0
10, 67065, Control_c, 10, 11, 93
10, 67080, Note_on_c, 10, 71, 100
10, 67110, Note_on_c, 10, 71, 0
10, 67123, Control_c, 10, 11, 94
10, 67140, Note_on_c, 10, 75, 100
10, 67170, Note_on_c, 10, 75, 0
10, 67180, Control_c, 10, 11, 95
10, 67200, Note_on_c, 10, 76, 100
10, 67230, Note_on_c, 10, 76, 0
10, 67238, Control_c, 10, 11, 96
10, 67260, Note_on_c, 10, 76, 100
10, 67290, Note_on_c, 10, 76, 0
10, 67296, Control_c, 10, 11, 97
10, 67320, Note_on_c, 10, 72, 100
10, 67350, Note_on_c, 10, 72, 0
10, 67353, Control_c, 10, 11, 98
10, 67380, Note_on_c, 10, 76, 100
10, 67410, Note_on_c, 10, 76, 0
10, 67411, Control_c, 10, 11, 99
10, 67440, Note_on_c, 10, 77, 100
10, 67468, Control_c, 10, 11, 100
10, 67470, Note_on_c, 10, 77, 0
10, 67500, Note_on_c, 10, 74, 100
10, 67526, Control_c, 10, 11, 101
10, 67530, Note_on_c, 10, 74, 0
10, 67560, Note_on_c, 10, 79, 100
10, 67584, Control_c, 10, 11, 102
10, 67590, Note_on_c, 10, 79, 0
10, 67620, Note_on_c, 10, 76, 100
10, 67641, Control_c, 10, 11, 103
10, 67650, Note_on_c, 10, 76, 0
10, 67680, Note_on_c, 10, 81, 100
10, 67699, Control_c, 10, 11, 104
10, 67710, Note_on_c, 10, 81, 0
10, 67740, Note_on_c, 10, 77, 100
10, 67756, Control_c, 10, 11, 105
10, 67770, Note_on_c, 10, 77, 0
10, 67800, Note_on_c, 10, 83, 100
10, 67814, Control_c, 10, 11, 106
10, 67830, Note_on_c, 10, 83, 0
10, 67860, Note_on_c, 10, 79, 100
10, 67872, Control_c, 10, 11, 107
10, 67890, Note_on_c, 10, 79, 0
10, 67920, Note_on_c, 10, 84, 100
10, 67929, Control_c, 10, 11, 108
10, 67950, Note_on_c, 10, 84, 0
10, 67980, Note_on_c, 10, 81, 100
10, 67987, Control_c, 10, 11, 109
10, 68010, Note_on_c, 10, 81, 0
10, 68040, Note_on_c, 10, 76, 100
10, 68044, Control_c, 10, 11, 110
10, 68070, Note_on_c, 10, 76, 0
10, 68100, Note_on_c, 10, 78, 100
10, 68102, Control_c, 10, 11, 111
10, 68130, Note_on_c, 10, 78, 0
10, 68160, Control_c, 10, 11, 112
10, 68160, Note_on_c, 10, 79, 100
10, 68235, Control_c, 10, 11, 112
10, 68238, Control_c, 10, 11, 109
10, 68241, Control_c, 10, 11, 106
10, 68245, Control_c, 10, 11, 103
10, 68248, Control_c, 10, 11, 100
10, 68251, Control_c, 10, 11, 97
10, 68255, Control_c, 10, 11, 94
10, 68258, Control_c, 10, 11, 91
10, 68262, Control_c, 10, 11, 88
10, 68265, Control_c, 10, 11, 85
10, 68268, Control_c, 10, 11, 82
10, 68272, Control_c, 10, 11, 79
10, 68275, Control_c, 10, 11, 76
10, 68278, Control_c, 10, 11, 73
10, 68280, Note_on_c, 10, 79, 0
10, 68640, Control_c, 10, 11, 102
10, 68640, Note_on_c, 10, 67, 71
10, 68650, Note_on_c, 10, 83, 78
10, 68650, Note_on_c, 10, 74, 71
10, 68745, Note_on_c, 10, 67, 0
10, 68755, Note_on_c, 10, 74, 0
10, 68755, Note_on_c, 10, 83, 0
10, 68880, Note_on_c, 10, 67, 71
10, 68890, Note_on_c, 10, 76, 71
10, 68890, Note_on_c, 10, 84, 78
10, 68985, Note_on_c, 10, 67, 0
10, 68995, Note_on_c, 10, 84, 0
10, 68995, Note_on_c, 10, 76, 0
10, 69120, Note_on_c, 10, 67, 71
10, 69130, Note_on_c, 10, 83, 78
10, 69130, Note_on_c, 10, 74, 71
10, 69225, Note_on_c, 10, 67, 0
10, 69235, Note_on_c, 10, 74, 0
10, 69235, Note_on_c, 10, 83, 0
10, 69600, Note_on_c, 10, 67, 71
10, 69610, Note_on_c, 10, 74, 71
10, 69610, Note_on_c, 10, 83, 78
10, 69705, Note_on_c, 10, 67, 0
10, 69715, Note_on_c, 10, 83, 0
10, 69715, Note_on_c, 10, 74, 0
10, 69840, Note_on_c, 10, 67, 71
10, 69850, Note_on_c, 10, 76, 71
10, 69850, Note_on_c, 10, 84, 78
10, 69945, Note_on_c, 10, 67, 0
10, 69955, Note_on_c, 10, 84, 0
10, 69955, Note_on_c, 10, 76, 0
10, 70080, Note_on_c, 10, 67, 71
10, 70090, Note_on_c, 10, 74, 71
10, 70090, Note_on_c, 10, 83, 78
10, 70185, Note_on_c, 10, 67, 0
10, 70195, Note_on_c, 10, 83, 0
10, 70195, Note_on_c, 10, 74, 0
10, 70320, Note_on_c, 10, 67, 71
10, 70330, Note_on_c, 10, 84, 78
10, 70330, Note_on_c, 10, 76, 71
10, 70425, Note_on_c, 10, 67, 0
10, 70435, Note_on_c, 10, 76, 0
10, 70435, Note_on_c, 10, 84, 0
10, 70560, Note_on_c, 10, 67, 71
10, 70570, Note_on_c, 10, 74, 71
10, 70570, Note_on_c, 10, 83, 78
10, 70665, Note_on_c, 10, 67, 0
10, 70675, Note_on_c, 10, 83, 0
10, 70675, Note_on_c, 10, 74, 0
10, 70800, Note_on_c, 10, 67, 71
10, 70810, Note_on_c, 10, 84, 78
10, 70810, Note_on_c, 10, 76, 71
10, 70905, Note_on_c, 10, 67, 0
10, 70915, Note_on_c, 10, 76, 0
10, 70915, Note_on_c, 10, 84, 0
10, 71040, Note_on_c, 10, 67, 71
10, 71050, Note_on_c, 10, 74, 71
10, 71050, Note_on_c, 10, 83, 78
10, 71145, Note_on_c, 10, 67, 0
10, 71155, Note_on_c, 10, 83, 0
10, 71155, Note_on_c, 10, 74, 0
10, 71280, Note_on_c, 10, 62, 71
10, 71290, Note_on_c, 10, 71, 71
10, 71290, Note_on_c, 10, 79, 78
10, 71385, Note_on_c, 10, 62, 0
10, 71395, Note_on_c, 10, 79, 0
10, 71395, Note_on_c, 10, 71, 0
10, 71520, Note_on_c, 10, 55, 100
10, 71640, Note_on_c, 10, 55, 0
10, 72600, Note_on_c, 10, 72, 86
10, 72600, Control_c, 10, 11, 47
10, 72660, Note_on_c, 10, 72, 0
10, 72720, Note_on_c, 10, 69, 86
10, 72780, Note_on_c, 10, 69, 0
10, 72840, Note_on_c, 10, 66, 86
10, 72900, Note_on_c, 10, 66, 0
10, 72960, Note_on_c, 10, 60, 86
10, 73020, Note_on_c, 10, 60, 0
10, 73440, Note_on_c, 10, 59, 86
10, 73500, Note_on_c, 10, 59, 0
10, 73560, Note_on_c, 10, 62, 86
10, 73620, Note_on_c, 10, 62, 0
10, 73680, Note_on_c, 10, 67, 86
10, 73740, Note_on_c, 10, 67, 0
10, 73800, Note_on_c, 10, 71, 86
10, 73860, Note_on_c, 10, 71, 0
10, 73920, Note_on_c, 10, 69, 86
10, 73980, Note_on_c, 10, 69, 0
10, 74160, Control_c, 10, 11, 58
10, 74160, Note_on_c, 10, 81, 100
10, 74164, Control_c, 10, 11, 61
10, 74169, Control_c, 10, 11, 64
10, 74174, Control_c, 10, 11, 67
10, 74179, Control_c, 10, 11, 70
10, 74184, Control_c, 10, 11, 73
10, 74195, Control_c, 10, 11, 70
10, 74206, Control_c, 10, 11, 67
10, 74217, Control_c, 10, 11, 64
10, 74228, Control_c, 10, 11, 61
10, 74239, Control_c, 10, 11, 58
10, 74250, Control_c, 10, 11, 55
10, 74261, Control_c, 10, 11, 52
10, 74272, Control_c, 10, 11, 49
10, 74280, Note_on_c, 10, 81, 0
10, 74280, Note_on_c, 10, 79, 100
10, 74390, Note_on_c, 10, 79, 0
10, 74400, Note_on_c, 10, 78, 86
10, 74460, Note_on_c, 10, 78, 0
10, 74640, Note_on_c, 10, 81, 100
10, 74640, Control_c, 10, 11, 58
10, 74644, Control_c, 10, 11, 61
10, 74649, Control_c, 10, 11, 64
10, 74654, Control_c, 10, 11, 67
10, 74659, Control_c, 10, 11, 70
10, 74664, Control_c, 10, 11, 73
10, 74675, Control_c, 10, 11, 70
10, 74686, Control_c, 10, 11, 67
10, 74697, Control_c, 10, 11, 64
10, 74708, Control_c, 10, 11, 61
10, 74719, Control_c, 10, 11, 58
10, 74730, Control_c, 10, 11, 55
10, 74741, Control_c, 10, 11, 52
10, 74752, Control_c, 10, 11, 49
10, 74760, Note_on_c, 10, 81, 0
10, 74760, Note_on_c, 10, 79, 100
10, 74870, Note_on_c, 10, 79, 0
10, 74880, Note_on_c, 10, 78, 86
10, 74940, Note_on_c, 10, 78, 0
10, 75000, Note_on_c, 10, 74, 100
10, 75060, Note_on_c, 10, 74, 0
10, 75240, Note_on_c, 10, 73, 100
10, 75300, Note_on_c, 10, 73, 0
10, 75360, Note_on_c, 10, 74, 100
10, 75480, Note_on_c, 10, 74, 0
10, 75720, Note_on_c, 10, 74, 86
10, 75830, Note_on_c, 10, 74, 0
10, 75840, Note_on_c, 10, 79, 86
10, 76140, Note_on_c, 10, 79, 0
10, 76140, Note_on_c, 10, 78, 86
10, 76200, Note_on_c, 10, 78, 0
10, 76200, Note_on_c, 10, 76, 86
10, 76260, Note_on_c, 10, 76, 0
10, 76260, Note_on_c, 10, 74, 86
10, 76310, Note_on_c, 10, 74, 0
10, 76320, Note_on_c, 10, 72, 86
10, 76440, Note_on_c, 10, 72, 0
10, 76800, Note_on_c, 10, 81, 86
10, 77100, Note_on_c, 10, 81, 0
10, 77100, Note_on_c, 10, 78, 86
10, 77160, Note_on_c, 10, 78, 0
10, 77160, Note_on_c, 10, 74, 86
10, 77220, Note_on_c, 10, 74, 0
10, 77220, Note_on_c, 10, 72, 86
10, 77270, Note_on_c, 10, 72, 0
10, 77280, Note_on_c, 10, 71, 86
10, 77400, Note_on_c, 10, 71, 0
10, 77760, Note_on_c, 10, 76, 100
10, 77820, Note_on_c, 10, 76, 0
10, 77880, Note_on_c, 10, 79, 100
10, 78110, Note_on_c, 10, 79, 0
10, 78120, Control_c, 10, 11, 58
10, 78120, Note_on_c, 10, 80, 100
10, 78125, Control_c, 10, 11, 61
10, 78131, Control_c, 10, 11, 64
10, 78136, Control_c, 10, 11, 67
10, 78142, Control_c, 10, 11, 70
10, 78148, Control_c, 10, 11, 73
10, 78158, Control_c, 10, 11, 70
10, 78169, Control_c, 10, 11, 67
10, 78179, Control_c, 10, 11, 64
10, 78190, Control_c, 10, 11, 61
10, 78201, Control_c, 10, 11, 58
10, 78211, Control_c, 10, 11, 55
10, 78222, Control_c, 10, 11, 52
10, 78232, Control_c, 10, 11, 49
10, 78240, Note_on_c, 10, 80, 0
10, 78240, Note_on_c, 10, 79, 100
10, 78300, Note_on_c, 10, 79, 0
10, 78360, Note_on_c, 10, 79, 100
10, 78590, Note_on_c, 10, 79, 0
10, 78600, Control_c, 10, 11, 58
10, 78600, Note_on_c, 10, 80, 100
10, 78605, Control_c, 10, 11, 61
10, 78611, Control_c, 10, 11, 64
10, 78616, Control_c, 10, 11, 67
10, 78622, Control_c, 10, 11, 70
10, 78628, Control_c, 10, 11, 73
10, 78638, Control_c, 10, 11, 70
10, 78649, Control_c, 10, 11, 67
10, 78659, Control_c, 10, 11, 64
10, 78670, Control_c, 10, 11, 61
10, 78681, Control_c, 10, 11, 58
10, 78691, Control_c, 10, 11, 55
10, 78702, Control_c, 10, 11, 52
10, 78712, Control_c, 10, 11, 49
10, 78720, Note_on_c, 10, 80, 0
10, 78720, Note_on_c, 10, 81, 100
10, 78830, Note_on_c, 10, 81, 0
10, 78840, Note_on_c, 10, 76, 100
10, 78960, Note_on_c, 10, 76, 0
10, 78960, Note_on_c, 10, 74, 100
10, 79080, Note_on_c, 10, 74, 0
10, 79080, Note_on_c, 10, 72, 100
10, 79190, Note_on_c, 10, 72, 0
10, 79200, Note_on_c, 10, 71, 100
10, 79440, Note_on_c, 10, 71, 0
10, 79440, Note_on_c, 10, 69, 100
10, 79655, Note_on_c, 10, 69, 0
10, 79675, Control_c, 10, 11, 47
10, 79676, Control_c, 10, 11, 55
10, 79677, Control_c, 10, 11, 63
10, 79678, Control_c, 10, 11, 71
10, 79679, Control_c, 10, 11, 79
10, 79680, Note_on_c, 10, 74, 110
10, 79680, Control_c, 10, 11, 87
10, 79680, Note_on_c, 10, 86, 110
10, 79700, Note_on_c, 10, 86, 0
10, 79700, Note_on_c, 10, 74, 0
10, 79710, Note_on_c, 10, 74, 110
10, 79710, Note_on_c, 10, 86, 110
10, 79730, Note_on_c, 10, 86, 0
10, 79730, Note_on_c, 10, 74, 0
10, 79740, Note_on_c, 10, 74, 110
10, 79740, Note_on_c, 10, 86, 110
10, 79760, Note_on_c, 10, 86, 0
10, 79760, Note_on_c, 10, 74, 0
10, 79770, Note_on_c, 10, 86, 110
10, 79770, Note_on_c, 10, 74, 110
10, 79790, Note_on_c, 10, 74, 0
10, 79790, Note_on_c, 10, 86, 0
10, 79800, Note_on_c, 10, 74, 110
10, 79800, Note_on_c, 10, 86, 110
10, 79860, Note_on_c, 10, 86, 0
10, 79860, Note_on_c, 10, 74, 0
10, 79920, Note_on_c, 10, 84, 110
10, 79920, Note_on_c, 10, 74, 110
10, 79940, Note_on_c, 10, 74, 0
10, 79940, Note_on_c, 10, 84, 0
10, 79950, Note_on_c, 10, 74, 110
10, 79950, Note_on_c, 10, 84, 110
10, 79970, Note_on_c, 10, 84, 0
10, 79970, Note_on_c, 10, 74, 0
10, 79980, Note_on_c, 10, 74, 110
10, 79980, Note_on_c, 10, 84, 110
10, 80000, Note_on_c, 10, 84, 0
10, 80000, Note_on_c, 10, 74, 0
10, 80010, Note_on_c, 10, 84, 110
10, 80010, Note_on_c, 10, 74, 110
10, 80030, Note_on_c, 10, 74, 0
10, 80030, Note_on_c, 10, 84, 0
10, 80040, Note_on_c, 10, 74, 110
10, 80040, Note_on_c, 10, 84, 110
10, 80100, Note_on_c, 10, 84, 0
10, 80100, Note_on_c, 10, 74, 0
10, 80160, Note_on_c, 10, 74, 110
10, 80160, Note_on_c, 10, 83, 110
10, 80180, Note_on_c, 10, 83, 0
10, 80180, Note_on_c, 10, 74, 0
10, 80190, Note_on_c, 10, 83, 110
10, 80190, Note_on_c, 10, 74, 110
10, 80210, Note_on_c, 10, 74, 0
10, 80210, Note_on_c, 10, 83, 0
10, 80220, Note_on_c, 10, 83, 110
10, 80220, Note_on_c, 10, 74, 110
10, 80240, Note_on_c, 10, 74, 0
10, 80240, Note_on_c, 10, 83, 0
10, 80250, Note_on_c, 10, 83, 110
10, 80250, Note_on_c, 10, 74, 110
10, 80270, Note_on_c, 10, 74, 0
10, 80270, Note_on_c, 10, 83, 0
10, 80280, Note_on_c, 10, 83, 110
10, 80280, Note_on_c, 10, 74, 110
10, 80340, Note_on_c, 10, 74, 0
10, 80340, Note_on_c, 10, 83, 0
10, 80400, Note_on_c, 10, 81, 110
10, 80430, Note_on_c, 10, 81, 0
10, 80460, Note_on_c, 10, 83, 110
10, 80490, Note_on_c, 10, 83, 0
10, 80520, Note_on_c, 10, 84, 110
10, 80550, Note_on_c, 10, 84, 0
10, 80580, Note_on_c, 10, 85, 110
10, 80610, Note_on_c, 10, 85, 0
10, 80640, Note_on_c, 10, 74, 110
10, 80640, Note_on_c, 10, 86, 110
10, 80660, Note_on_c, 10, 86, 0
10, 80660, Note_on_c, 10, 74, 0
10, 80670, Note_on_c, 10, 86, 110
10, 80670, Note_on_c, 10, 74, 110
10, 80690, Note_on_c, 10, 74, 0
10, 80690, Note_on_c, 10, 86, 0
10, 80700, Note_on_c, 10, 86, 110
10, 80700, Note_on_c, 10, 74, 110
10, 80720, Note_on_c, 10, 74, 0
10, 80720, Note_on_c, 10, 86, 0
10, 80730, Note_on_c, 10, 74, 110
10, 80730, Note_on_c, 10, 86, 110
10, 80750, Note_on_c, 10, 86, 0
10, 80750, Note_on_c, 10, 74, 0
10, 80760, Note_on_c, 10, 74, 110
10, 80760, Note_on_c, 10, 86, 110
10, 80820, Note_on_c, 10, 86, 0
10, 80820, Note_on_c, 10, 74, 0
10, 80880, Note_on_c, 10, 84, 110
10, 80880, Note_on_c, 10, 74, 110
10, 80900, Note_on_c, 10, 74, 0
10, 80900, Note_on_c, 10, 84, 0
10, 80910, Note_on_c, 10, 74, 110
10, 80910, Note_on_c, 10, 84, 110
10, 80930, Note_on_c, 10, 84, 0
10, 80930, Note_on_c, 10, 74, 0
10, 80940, Note_on_c, 10, 74, 110
10, 80940, Note_on_c, 10, 84, 110
10, 80960, Note_on_c, 10, 84, 0
10, 80960, Note_on_c, 10, 74, 0
10, 80970, Note_on_c, 10, 84, 110
10, 80970, Note_on_c, 10, 74, 110
10, 80990, Note_on_c, 10, 74, 0
10, 80990, Note_on_c, 10, 84, 0
10, 81000, Note_on_c, 10, 74, 110
10, 81000, Note_on_c, 10, 84, 110
10, 81060, Note_on_c, 10, 84, 0
10, 81060, Note_on_c, 10, 74, 0
10, 81120, Note_on_c, 10, 74, 110
10, 81120, Note_on_c, 10, 83, 110
10, 81140, Note_on_c, 10, 83, 0
10, 81140, Note_on_c, 10, 74, 0
10, 81150, Note_on_c, 10, 83, 110
10, 81150, Note_on_c, 10, 74, 110
10, 81170, Note_on_c, 10, 74, 0
10, 81170, Note_on_c, 10, 83, 0
10, 81180, Note_on_c, 10, 74, 110
10, 81180, Note_on_c, 10, 83, 110
10, 81200, Note_on_c, 10, 83, 0
10, 81200, Note_on_c, 10, 74, 0
10, 81210, Note_on_c, 10, 83, 110
10, 81210, Note_on_c, 10, 74, 110
10, 81230, Note_on_c, 10, 74, 0
10, 81230, Note_on_c, 10, 83, 0
10, 81240, Note_on_c, 10, 74, 110
10, 81240, Note_on_c, 10, 83, 110
10, 81300, Note_on_c, 10, 83, 0
10, 81300, Note_on_c, 10, 74, 0
10, 81360, Note_on_c, 10, 81, 110
10, 81390, Note_on_c, 10, 81, 0
10, 81420, Note_on_c, 10, 83, 110
10, 81450, Note_on_c, 10, 83, 0
10, 81480, Note_on_c, 10, 84, 110
10, 81510, Note_on_c, 10, 84, 0
10, 81540, Note_on_c, 10, 85, 110
10, 81570, Note_on_c, 10, 85, 0
10, 81600, Note_on_c, 10, 86, 110
10, 81600, Control_c, 10, 11, 107
10, 81618, Control_c, 10, 11, 104
10, 81620, Note_on_c, 10, 86, 0
10, 81630, Note_on_c, 10, 86, 110
10, 81636, Control_c, 10, 11, 101
10, 81650, Note_on_c, 10, 86, 0
10, 81654, Control_c, 10, 11, 98
10, 81660, Note_on_c, 10, 86, 110
10, 81672, Control_c, 10, 11, 95
10, 81680, Note_on_c, 10, 86, 0
10, 81690, Note_on_c, 10, 86, 110
10, 81690, Control_c, 10, 11, 92
10, 81708, Control_c, 10, 11, 89
10, 81710, Note_on_c, 10, 86, 0
10, 81720, Note_on_c, 10, 86, 110
10, 81740, Note_on_c, 10, 86, 0
10, 81750, Note_on_c, 10, 86, 110
10, 81770, Note_on_c, 10, 86, 0
10, 81780, Note_on_c, 10, 84, 110
10, 81800, Note_on_c, 10, 84, 0
10, 81810, Note_on_c, 10, 84, 110
10, 81830, Note_on_c, 10, 84, 0
10, 81840, Note_on_c, 10, 83, 110
10, 81860, Note_on_c, 10, 83, 0
10, 81870, Note_on_c, 10, 83, 110
10, 81890, Note_on_c, 10, 83, 0
10, 81900, Note_on_c, 10, 81, 110
10, 81920, Note_on_c, 10, 81, 0
10, 81930, Note_on_c, 10, 81, 110
10, 81950, Note_on_c, 10, 81, 0
10, 81960, Note_on_c, 10, 79, 110
10, 81980, Note_on_c, 10, 79, 0
10, 81990, Note_on_c, 10, 79, 110
10, 82010, Note_on_c, 10, 79, 0
10, 82020, Note_on_c, 10, 77, 110
10, 82040, Note_on_c, 10, 77, 0
10, 82050, Note_on_c, 10, 77, 110
10, 82070, Note_on_c, 10, 77, 0
10, 82080, Control_c, 10, 11, 107
10, 82080, Note_on_c, 10, 76, 110
10, 82098, Control_c, 10, 11, 104
10, 82100, Note_on_c, 10, 76, 0
10, 82110, Note_on_c, 10, 76, 110
10, 82116, Control_c, 10, 11, 101
10, 82130, Note_on_c, 10, 76, 0
10, 82134, Control_c, 10, 11, 98
10, 82140, Note_on_c, 10, 76, 110
10, 82152, Control_c, 10, 11, 95
10, 82160, Note_on_c, 10, 76, 0
10, 82170, Note_on_c, 10, 76, 110
10, 82170, Control_c, 10, 11, 92
10, 82188, Control_c, 10, 11, 89
10, 82190, Note_on_c, 10, 76, 0
10, 82200, Note_on_c, 10, 76, 110
10, 82220, Note_on_c, 10, 76, 0
10, 82230, Note_on_c, 10, 76, 110
10, 82250, Note_on_c, 10, 76, 0
10, 82260, Note_on_c, 10, 74, 110
10, 82280, Note_on_c, 10, 74, 0
10, 82290, Note_on_c, 10, 74, 110
10, 82310, Note_on_c, 10, 74, 0
10, 82320, Note_on_c, 10, 72, 110
10, 82340, Note_on_c, 10, 72, 0
10, 82350, Note_on_c, 10, 72, 110
10, 82370, Note_on_c, 10, 72, 0
10, 82380, Note_on_c, 10, 71, 110
10, 82400, Note_on_c, 10, 71, 0
10, 82410, Note_on_c, 10, 71, 110
10, 82430, Note_on_c, 10, 71, 0
10, 82440, Note_on_c, 10, 69, 110
10, 82460, Note_on_c, 10, 69, 0
10, 82470, Note_on_c, 10, 69, 110
10, 82490, Note_on_c, 10, 69, 0
10, 82500, Note_on_c, 10, 67, 110
10, 82520, Note_on_c, 10, 67, 0
10, 82530, Note_on_c, 10, 67, 110
10, 82550, Note_on_c, 10, 67, 0
10, 82560, Note_on_c, 10, 66, 110
10, 82560, Control_c, 10, 11, 87
10, 82580, Note_on_c, 10, 66, 0
10, 82590, Note_on_c, 10, 66, 110
10, 82592, Control_c, 10, 11, 88
10, 82610, Note_on_c, 10, 66, 0
10, 82620, Note_on_c, 10, 67, 110
10, 82624, Control_c, 10, 11, 89
10, 82640, Note_on_c, 10, 67, 0
10, 82650, Note_on_c, 10, 67, 110
10, 82656, Control_c, 10, 11, 90
10, 82670, Note_on_c, 10, 67, 0
10, 82680, Note_on_c, 10, 69, 110
10, 82688, Control_c, 10, 11, 91
10, 82700, Note_on_c, 10, 69, 0
10, 82710, Note_on_c, 10, 69, 110
10, 82720, Control_c, 10, 11, 92
10, 82730, Note_on_c, 10, 69, 0
10, 82740, Note_on_c, 10, 71, 110
10, 82752, Control_c, 10, 11, 93
10, 82760, Note_on_c, 10, 71, 0
10, 82770, Note_on_c, 10, 71, 110
10, 82784, Control_c, 10, 11, 94
10, 82790, Note_on_c, 10, 71, 0
10, 82800, Note_on_c, 10, 72, 110
10, 82816, Control_c, 10, 11, 95
10, 82820, Note_on_c, 10, 72, 0
10, 82830, Note_on_c, 10, 72, 110
10, 82848, Control_c, 10, 11, 96
10, 82850, Note_on_c, 10, 72, 0
10, 82860, Note_on_c, 10, 74, 110
10, 82880, Note_on_c, 10, 74, 0
10, 82880, Control_c, 10, 11, 97
10, 82890, Note_on_c, 10, 74, 110
10, 82910, Note_on_c, 10, 74, 0
10, 82912, Control_c, 10, 11, 98
10, 82920, Note_on_c, 10, 76, 110
10, 82940, Note_on_c, 10, 76, 0
10, 82944, Control_c, 10, 11, 99
10, 82950, Note_on_c, 10, 76, 110
10, 82970, Note_on_c, 10, 76, 0
10, 82976, Control_c, 10, 11, 100
10, 82980, Note_on_c, 10, 78, 110
10, 83000, Note_on_c, 10, 78, 0
10, 83008, Control_c, 10, 11, 101
10, 83010, Note_on_c, 10, 78, 110
10, 83030, Note_on_c, 10, 78, 0
10, 83040, Note_on_c, 10, 79, 110
10, 83040, Control_c, 10, 11, 102
10, 83100, Note_on_c, 10, 79, 0
10, 83160, Note_on_c, 10, 76, 110
10, 83220, Note_on_c, 10, 76, 0
10, 83280, Note_on_c, 10, 74, 110
10, 83340, Note_on_c, 10, 74, 0
10, 83400, Note_on_c, 10, 66, 110
10, 83460, Note_on_c, 10, 66, 0
10, 83520, Note_on_c, 10, 67, 110
10, 83520, Control_c, 10, 11, 72
10, 83550, Control_c, 10, 11, 72
10, 83565, Control_c, 10, 11, 69
10, 83580, Control_c, 10, 11, 66
10, 83596, Control_c, 10, 11, 63
10, 83611, Control_c, 10, 11, 60
10, 83627, Control_c, 10, 11, 57
10, 83630, Note_on_c, 10, 67, 0
10, 83640, Note_on_c, 10, 62, 100
10, 83642, Control_c, 10, 11, 54
10, 83658, Control_c, 10, 11, 51
10, 83673, Control_c, 10, 11, 48
10, 83688, Control_c, 10, 11, 45
10, 83704, Control_c, 10, 11, 42
10, 83719, Control_c, 10, 11, 39
10, 83726, Note_on_c, 10, 62, 0
10, 83760, Note_on_c, 10, 62, 100
10, 83846, Note_on_c, 10, 62, 0
10, 83880, Note_on_c, 10, 62, 100
10, 83966, Note_on_c, 10, 62, 0
10, 84000, Note_on_c, 10, 63, 100
10, 84086, Note_on_c, 10, 63, 0
10, 84120, Note_on_c, 10, 63, 100
10, 84206, Note_on_c, 10, 63, 0
10, 84240, Note_on_c, 10, 63, 100
10, 84326, Note_on_c, 10, 63, 0
10, 84360, Note_on_c, 10, 63, 100
10, 84446, Note_on_c, 10, 63, 0
10, 84480, Note_on_c, 10, 63, 100
10, 84566, Note_on_c, 10, 63, 0
10, 84600, Note_on_c, 10, 63, 100
10, 84686, Note_on_c, 10, 63, 0
10, 84720, Note_on_c, 10, 63, 100
10, 84806, Note_on_c, 10, 63, 0
10, 84840, Note_on_c, 10, 63, 100
10, 84926, Note_on_c, 10, 63, 0
10, 84960, Note_on_c, 10, 62, 100
10, 85046, Note_on_c, 10, 62, 0
10, 85080, Note_on_c, 10, 62, 100
10, 85166, Note_on_c, 10, 62, 0
10, 85200, Note_on_c, 10, 62, 100
10, 85286, Note_on_c, 10, 62, 0
10, 85320, Note_on_c, 10, 62, 100
10, 85406, Note_on_c, 10, 62, 0
10, 85440, Note_on_c, 10, 60, 100
10, 85526, Note_on_c, 10, 60, 0
10, 85560, Note_on_c, 10, 60, 100
10, 85646, Note_on_c, 10, 60, 0
10, 85680, Note_on_c, 10, 60, 100
10, 85766, Note_on_c, 10, 60, 0
10, 85800, Note_on_c, 10, 60, 100
10, 85886, Note_on_c, 10, 60, 0
10, 85920, Note_on_c, 10, 60, 100
10, 86006, Note_on_c, 10, 60, 0
10, 86040, Note_on_c, 10, 72, 100
10, 86126, Note_on_c, 10, 72, 0
10, 86160, Note_on_c, 10, 72, 100
10, 86246, Note_on_c, 10, 72, 0
10, 86280, Note_on_c, 10, 72, 101
10, 86366, Note_on_c, 10, 72, 0
10, 86400, Note_on_c, 10, 70, 102
10, 86486, Note_on_c, 10, 70, 0
10, 86520, Note_on_c, 10, 70, 103
10, 86606, Note_on_c, 10, 70, 0
10, 86640, Note_on_c, 10, 70, 104
10, 86726, Note_on_c, 10, 70, 0
10, 86760, Note_on_c, 10, 70, 105
10, 86846, Note_on_c, 10, 70, 0
10, 86880, Note_on_c, 10, 69, 106
10, 86966, Note_on_c, 10, 69, 0
10, 87000, Note_on_c, 10, 69, 107
10, 87086, Note_on_c, 10, 69, 0
10, 87120, Note_on_c, 10, 69, 108
10, 87206, Note_on_c, 10, 69, 0
10, 87240, Note_on_c, 10, 69, 109
10, 87326, Note_on_c, 10, 69, 0
10, 87360, Note_on_c, 10, 69, 110
10, 87446, Note_on_c, 10, 69, 0
10, 87480, Control_c, 10, 11, 37
10, 87480, Note_on_c, 10, 78, 110
10, 87512, Control_c, 10, 11, 38
10, 87545, Control_c, 10, 11, 39
10, 87566, Note_on_c, 10, 78, 0
10, 87578, Control_c, 10, 11, 40
10, 87600, Note_on_c, 10, 78, 110
10, 87611, Control_c, 10, 11, 41
10, 87644, Control_c, 10, 11, 42
10, 87677, Control_c, 10, 11, 43
10, 87686, Note_on_c, 10, 78, 0
10, 87710, Control_c, 10, 11, 44
10, 87720, Note_on_c, 10, 78, 110
10, 87743, Control_c, 10, 11, 45
10, 87776, Control_c, 10, 11, 46
10, 87806, Note_on_c, 10, 78, 0
10, 87809, Control_c, 10, 11, 47
10, 87840, Note_on_c, 10, 79, 110
10, 87842, Control_c, 10, 11, 48
10, 87875, Control_c, 10, 11, 49
10, 87908, Control_c, 10, 11, 50
10, 87926, Note_on_c, 10, 79, 0
10, 87941, Control_c, 10, 11, 51
10, 87960, Note_on_c, 10, 79, 110
10, 87974, Control_c, 10, 11, 52
10, 88007, Control_c, 10, 11, 53
10, 88040, Control_c, 10, 11, 54
10, 88046, Note_on_c, 10, 79, 0
10, 88073, Control_c, 10, 11, 55
10, 88080, Note_on_c, 10, 79, 110
10, 88106, Control_c, 10, 11, 56
10, 88139, Control_c, 10, 11, 57
10, 88166, Note_on_c, 10, 79, 0
10, 88172, Control_c, 10, 11, 58
10, 88200, Note_on_c, 10, 79, 110
10, 88205, Control_c, 10, 11, 59
10, 88238, Control_c, 10, 11, 60
10, 88271, Control_c, 10, 11, 61
10, 88286, Note_on_c, 10, 79, 0
10, 88304, Control_c, 10, 11, 62
10, 88320, Note_on_c, 10, 79, 110
10, 88337, Control_c, 10, 11, 63
10, 88370, Control_c, 10, 11, 64
10, 88403, Control_c, 10, 11, 65
10, 88406, Note_on_c, 10, 79, 0
10, 88436, Control_c, 10, 11, 66
10, 88440, Note_on_c, 10, 79, 110
10, 88469, Control_c, 10, 11, 67
10, 88502, Control_c, 10, 11, 68
10, 88526, Note_on_c, 10, 79, 0
10, 88535, Control_c, 10, 11, 69
10, 88560, Note_on_c, 10, 78, 110
10, 88568, Control_c, 10, 11, 70
10, 88601, Control_c, 10, 11, 71
10, 88634, Control_c, 10, 11, 72
10, 88646, Note_on_c, 10, 78, 0
10, 88667, Control_c, 10, 11, 73
10, 88680, Note_on_c, 10, 78, 110
10, 88700, Control_c, 10, 11, 74
10, 88733, Control_c, 10, 11, 75
10, 88766, Note_on_c, 10, 78, 0
10, 88766, Control_c, 10, 11, 76
10, 88799, Control_c, 10, 11, 77
10, 88800, Note_on_c, 10, 79, 110
10, 88800, Control_c, 10, 11, 97
10, 88824, Control_c, 10, 11, 95
10, 88848, Control_c, 10, 11, 93
10, 88872, Control_c, 10, 11, 91
10, 88896, Control_c, 10, 11, 89
10, 88920, Control_c, 10, 11, 87
10, 89150, Note_on_c, 10, 79, 0
10, 89160, Note_on_c, 10, 74, 110
10, 89250, Note_on_c, 10, 74, 0
10, 89250, Note_on_c, 10, 78, 110
10, 89270, Note_on_c, 10, 78, 0
10, 89280, Control_c, 10, 11, 107
10, 89280, Note_on_c, 10, 79, 110
10, 89298, Control_c, 10, 11, 104
10, 89316, Control_c, 10, 11, 101
10, 89334, Control_c, 10, 11, 98
10, 89352, Control_c, 10, 11, 95
10, 89370, Control_c, 10, 11, 92
10, 89388, Control_c, 10, 11, 89
10, 89630, Note_on_c, 10, 79, 0
10, 89640, Note_on_c, 10, 74, 110
10, 89730, Note_on_c, 10, 74, 0
10, 89730, Note_on_c, 10, 78, 110
10, 89750, Note_on_c, 10, 78, 0
10, 89760, Control_c, 10, 11, 107
10, 89760, Note_on_c, 10, 79, 110
10, 89778, Control_c, 10, 11, 104
10, 89790, Note_on_c, 10, 79, 0
10, 89796, Control_c, 10, 11, 101
10, 89814, Control_c, 10, 11, 98
10, 89820, Note_on_c, 10, 79, 110
10, 89832, Control_c, 10, 11, 95
10, 89850, Control_c, 10, 11, 92
10, 89868, Control_c, 10, 11, 89
10, 89880, Note_on_c, 10, 79, 0
10, 89880, Note_on_c, 10, 78, 110
10, 89940, Note_on_c, 10, 78, 0
10, 89940, Note_on_c, 10, 79, 110
10, 89990, Note_on_c, 10, 79, 0
10, 90000, Note_on_c, 10, 81, 110
10, 90030, Note_on_c, 10, 81, 0
10, 90060, Note_on_c, 10, 81, 110
10, 90120, Note_on_c, 10, 81, 0
10, 90120, Note_on_c, 10, 79, 110
10, 90180, Note_on_c, 10, 79, 0
10, 90180, Note_on_c, 10, 81, 110
10, 90230, Note_on_c, 10, 81, 0
10, 90240, Control_c, 10, 11, 107
10, 90240, Note_on_c, 10, 83, 110
10, 90257, Control_c, 10, 11, 104
10, 90270, Note_on_c, 10, 83, 0
10, 90275, Control_c, 10, 11, 101
10, 90293, Control_c, 10, 11, 98
10, 90300, Note_on_c, 10, 83, 110
10, 90311, Control_c, 10, 11, 95
10, 90329, Control_c, 10, 11, 92
10, 90347, Control_c, 10, 11, 89
10, 90360, Note_on_c, 10, 83, 0
10, 90360, Note_on_c, 10, 81, 110
10, 90420, Note_on_c, 10, 81, 0
10, 90420, Note_on_c, 10, 83, 110
10, 90470, Note_on_c, 10, 83, 0
10, 90480, Note_on_c, 10, 84, 110
10, 90480, Control_c, 10, 11, 107
10, 90497, Control_c, 10, 11, 104
10, 90510, Note_on_c, 10, 84, 0
10, 90515, Control_c, 10, 11, 101
10, 90533, Control_c, 10, 11, 98
10, 90540, Note_on_c, 10, 84, 110
10, 90551, Control_c, 10, 11, 95
10, 90569, Control_c, 10, 11, 92
10, 90587, Control_c, 10, 11, 89
10, 90600, Note_on_c, 10, 84, 0
10, 90600, Note_on_c, 10, 83, 110
10, 90660, Note_on_c, 10, 83, 0
10, 90660, Note_on_c, 10, 84, 110
10, 90710, Note_on_c, 10, 84, 0
10, 90720, Note_on_c, 10, 86, 110
10, 90740, Note_on_c, 10, 86, 0
10, 90750, Note_on_c, 10, 86, 110
10, 90770, Note_on_c, 10, 86, 0
10, 90780, Note_on_c, 10, 86, 110
10, 90800, Note_on_c, 10, 86, 0
10, 90810, Note_on_c, 10, 86, 110
10, 90830, Note_on_c, 10, 86, 0
10, 90840, Note_on_c, 10, 86, 110
10, 90860, Note_on_c, 10, 86, 0
10, 90870, Note_on_c, 10, 86, 110
10, 90890, Note_on_c, 10, 86, 0
10, 90900, Note_on_c, 10, 86, 110
10, 90920, Note_on_c, 10, 86, 0
10, 90930, Note_on_c, 10, 86, 110
10, 90950, Note_on_c, 10, 86, 0
10, 90960, Note_on_c, 10, 86, 110
10, 90980, Note_on_c, 10, 86, 0
10, 90990, Note_on_c, 10, 86, 110
10, 91010, Note_on_c, 10, 86, 0
10, 91020, Note_on_c, 10, 86, 110
10, 91040, Note_on_c, 10, 86, 0
10, 91050, Note_on_c, 10, 86, 110
10, 91070, Note_on_c, 10, 86, 0
10, 91080, Note_on_c, 10, 86, 110
10, 91100, Note_on_c, 10, 86, 0
10, 91110, Note_on_c, 10, 86, 110
10, 91130, Note_on_c, 10, 86, 0
10, 91140, Note_on_c, 10, 86, 110
10, 91160, Note_on_c, 10, 86, 0
10, 91170, Note_on_c, 10, 86, 110
10, 91190, Note_on_c, 10, 86, 0
10, 91200, Note_on_c, 10, 87, 110
10, 91220, Note_on_c, 10, 87, 0
10, 91230, Note_on_c, 10, 87, 110
10, 91250, Note_on_c, 10, 87, 0
10, 91260, Note_on_c, 10, 87, 110
10, 91280, Note_on_c, 10, 87, 0
10, 91290, Note_on_c, 10, 87, 110
10, 91310, Note_on_c, 10, 87, 0
10, 91320, Note_on_c, 10, 87, 110
10, 91340, Note_on_c, 10, 87, 0
10, 91350, Note_on_c, 10, 87, 110
10, 91370, Note_on_c, 10, 87, 0
10, 91380, Note_on_c, 10, 87, 110
10, 91400, Note_on_c, 10, 87, 0
10, 91410, Note_on_c, 10, 87, 110
10, 91430, Note_on_c, 10, 87, 0
10, 91440, Note_on_c, 10, 87, 110
10, 91460, Note_on_c, 10, 87, 0
10, 91470, Note_on_c, 10, 87, 110
10, 91490, Note_on_c, 10, 87, 0
10, 91500, Note_on_c, 10, 87, 110
10, 91520, Note_on_c, 10, 87, 0
10, 91530, Note_on_c, 10, 87, 110
10, 91550, Note_on_c, 10, 87, 0
10, 91560, Note_on_c, 10, 87, 110
10, 91580, Note_on_c, 10, 87, 0
10, 91590, Note_on_c, 10, 87, 110
10, 91610, Note_on_c, 10, 87, 0
10, 91620, Note_on_c, 10, 87, 110
10, 91640, Note_on_c, 10, 87, 0
10, 91650, Note_on_c, 10, 87, 110
10, 91670, Note_on_c, 10, 87, 0
10, 91680, Note_on_c, 10, 88, 110
10, 91680, Control_c, 10, 11, 102
10, 91700, Note_on_c, 10, 88, 0
10, 91710, Note_on_c, 10, 88, 110
10, 91730, Note_on_c, 10, 88, 0
10, 91740, Note_on_c, 10, 88, 110
10, 91760, Note_on_c, 10, 88, 0
10, 91770, Note_on_c, 10, 88, 110
10, 91790, Note_on_c, 10, 88, 0
10, 91800, Note_on_c, 10, 88, 110
10, 91820, Note_on_c, 10, 88, 0
10, 91830, Note_on_c, 10, 88, 110
10, 91850, Note_on_c, 10, 88, 0
10, 91860, Note_on_c, 10, 88, 110
10, 91880, Note_on_c, 10, 88, 0
10, 91890, Note_on_c, 10, 88, 110
10, 91910, Note_on_c, 10, 88, 0
10, 91920, Note_on_c, 10, 88, 110
10, 91940, Note_on_c, 10, 88, 0
10, 91950, Note_on_c, 10, 88, 110
10, 91970, Note_on_c, 10, 88, 0
10, 91980, Note_on_c, 10, 88, 110
10, 92000, Note_on_c, 10, 88, 0
10, 92010, Note_on_c, 10, 88, 110
10, 92030, Note_on_c, 10, 88, 0
10, 92040, Note_on_c, 10, 88, 110
10, 92060, Note_on_c, 10, 88, 0
10, 92070, Note_on_c, 10, 88, 110
10, 92090, Note_on_c, 10, 88, 0
10, 92100, Note_on_c, 10, 88, 110
10, 92120, Note_on_c, 10, 88, 0
10, 92130, Note_on_c, 10, 88, 110
10, 92150, Note_on_c, 10, 88, 0
10, 92160, Note_on_c, 10, 89, 110
10, 92180, Note_on_c, 10, 89, 0
10, 92190, Note_on_c, 10, 89, 110
10, 92210, Note_on_c, 10, 89, 0
10, 92220, Note_on_c, 10, 89, 110
10, 92240, Note_on_c, 10, 89, 0
10, 92250, Note_on_c, 10, 89, 110
10, 92270, Note_on_c, 10, 89, 0
10, 92280, Note_on_c, 10, 86, 110
10, 92300, Note_on_c, 10, 86, 0
10, 92310, Note_on_c, 10, 86, 110
10, 92330, Note_on_c, 10, 86, 0
10, 92340, Note_on_c, 10, 86, 110
10, 92360, Note_on_c, 10, 86, 0
10, 92370, Note_on_c, 10, 86, 110
10, 92390, Note_on_c, 10, 86, 0
10, 92400, Note_on_c, 10, 83, 110
10, 92420, Note_on_c, 10, 83, 0
10, 92430, Note_on_c, 10, 83, 110
10, 92450, Note_on_c, 10, 83, 0
10, 92460, Note_on_c, 10, 83, 110
10, 92480, Note_on_c, 10, 83, 0
10, 92490, Note_on_c, 10, 83, 110
10, 92510, Note_on_c, 10, 83, 0
10, 92520, Note_on_c, 10, 80, 110
10, 92540, Note_on_c, 10, 80, 0
10, 92550, Note_on_c, 10, 80, 110
10, 92570, Note_on_c, 10, 80, 0
10, 92580, Note_on_c, 10, 80, 110
10, 92600, Note_on_c, 10, 80, 0
10, 92610, Note_on_c, 10, 80, 110
10, 92630, Note_on_c, 10, 80, 0
10, 92640, Note_on_c, 10, 81, 110
10, 92660, Note_on_c, 10, 81, 0
10, 92670, Note_on_c, 10, 81, 110
10, 92690, Note_on_c, 10, 81, 0
10, 92700, Note_on_c, 10, 81, 110
10, 92720, Note_on_c, 10, 81, 0
10, 92730, Note_on_c, 10, 81, 110
10, 92750, Note_on_c, 10, 81, 0
10, 92760, Note_on_c, 10, 81, 110
10, 92780, Note_on_c, 10, 81, 0
10, 92790, Note_on_c, 10, 81, 110
10, 92810, Note_on_c, 10, 81, 0
10, 92820, Note_on_c, 10, 81, 110
10, 92840, Note_on_c, 10, 81, 0
10, 92850, Note_on_c, 10, 81, 110
10, 92870, Note_on_c, 10, 81, 0
10, 92880, Note_on_c, 10, 81, 110
10, 92900, Note_on_c, 10, 81, 0
10, 92910, Note_on_c, 10, 81, 110
10, 92930, Note_on_c, 10, 81, 0
10, 92940, Note_on_c, 10, 81, 110
10, 92960, Note_on_c, 10, 81, 0
10, 92970, Note_on_c, 10, 81, 110
10, 92990, Note_on_c, 10, 81, 0
10, 93000, Note_on_c, 10, 81, 110
10, 93020, Note_on_c, 10, 81, 0
10, 93030, Note_on_c, 10, 81, 110
10, 93050, Note_on_c, 10, 81, 0
10, 93060, Note_on_c, 10, 81, 110
10, 93080, Note_on_c, 10, 81, 0
10, 93090, Note_on_c, 10, 81, 110
10, 93110, Note_on_c, 10, 81, 0
10, 93120, Note_on_c, 10, 82, 110
10, 93140, Note_on_c, 10, 82, 0
10, 93150, Note_on_c, 10, 82, 110
10, 93170, Note_on_c, 10, 82, 0
10, 93180, Note_on_c, 10, 82, 110
10, 93200, Note_on_c, 10, 82, 0
10, 93210, Note_on_c, 10, 82, 110
10, 93230, Note_on_c, 10, 82, 0
10, 93240, Note_on_c, 10, 79, 110
10, 93260, Note_on_c, 10, 79, 0
10, 93270, Note_on_c, 10, 79, 110
10, 93290, Note_on_c, 10, 79, 0
10, 93300, Note_on_c, 10, 79, 110
10, 93320, Note_on_c, 10, 79, 0
10, 93330, Note_on_c, 10, 79, 110
10, 93350, Note_on_c, 10, 79, 0
10, 93360, Note_on_c, 10, 76, 110
10, 93380, Note_on_c, 10, 76, 0
10, 93390, Note_on_c, 10, 76, 110
10, 93410, Note_on_c, 10, 76, 0
10, 93420, Note_on_c, 10, 76, 110
10, 93440, Note_on_c, 10, 76, 0
10, 93450, Note_on_c, 10, 76, 110
10, 93470, Note_on_c, 10, 76, 0
10, 93480, Note_on_c, 10, 73, 110
10, 93500, Note_on_c, 10, 73, 0
10, 93510, Note_on_c, 10, 73, 110
10, 93530, Note_on_c, 10, 73, 0
10, 93540, Note_on_c, 10, 73, 110
10, 93560, Note_on_c, 10, 73, 0
10, 93570, Note_on_c, 10, 73, 110
10, 93590, Note_on_c, 10, 73, 0
10, 93600, Note_on_c, 10, 74, 110
10, 93600, Control_c, 10, 11, 122
10, 93617, Control_c, 10, 11, 119
10, 93620, Note_on_c, 10, 74, 0
10, 93630, Note_on_c, 10, 74, 110
10, 93635, Control_c, 10, 11, 116
10, 93650, Note_on_c, 10, 74, 0
10, 93653, Control_c, 10, 11, 113
10, 93660, Note_on_c, 10, 74, 110
10, 93671, Control_c, 10, 11, 110
10, 93680, Note_on_c, 10, 74, 0
10, 93689, Control_c, 10, 11, 107
10, 93690, Note_on_c, 10, 74, 110
10, 93707, Control_c, 10, 11, 104
10, 93710, Note_on_c, 10, 74, 0
10, 93720, Note_on_c, 10, 74, 110
10, 93740, Note_on_c, 10, 74, 0
10, 93750, Note_on_c, 10, 74, 110
10, 93770, Note_on_c, 10, 74, 0
10, 93780, Note_on_c, 10, 74, 110
10, 93800, Note_on_c, 10, 74, 0
10, 93810, Note_on_c, 10, 74, 110
10, 93830, Note_on_c, 10, 74, 0
10, 93840, Note_on_c, 10, 76, 110
10, 93840, Control_c, 10, 11, 122
10, 93857, Control_c, 10, 11, 119
10, 93860, Note_on_c, 10, 76, 0
10, 93870, Note_on_c, 10, 76, 110
10, 93875, Control_c, 10, 11, 116
10, 93890, Note_on_c, 10, 76, 0
10, 93893, Control_c, 10, 11, 113
10, 93900, Note_on_c, 10, 76, 110
10, 93911, Control_c, 10, 11, 110
10, 93920, Note_on_c, 10, 76, 0
10, 93929, Control_c, 10, 11, 107
10, 93930, Note_on_c, 10, 76, 110
10, 93947, Control_c, 10, 11, 104
10, 93950, Note_on_c, 10, 76, 0
10, 93960, Note_on_c, 10, 76, 110
10, 93980, Note_on_c, 10, 76, 0
10, 93990, Note_on_c, 10, 76, 110
10, 94010, Note_on_c, 10, 76, 0
10, 94020, Note_on_c, 10, 76, 110
10, 94040, Note_on_c, 10, 76, 0
10, 94050, Note_on_c, 10, 76, 110
10, 94070, Note_on_c, 10, 76, 0
10, 94080, Control_c, 10, 11, 122
10, 94080, Note_on_c, 10, 72, 110
10, 94097, Control_c, 10, 11, 119
10, 94100, Note_on_c, 10, 72, 0
10, 94110, Note_on_c, 10, 72, 110
10, 94115, Control_c, 10, 11, 116
10, 94130, Note_on_c, 10, 72, 0
10, 94133, Control_c, 10, 11, 113
10, 94140, Note_on_c, 10, 72, 110
10, 94151, Control_c, 10, 11, 110
10, 94160, Note_on_c, 10, 72, 0
10, 94169, Control_c, 10, 11, 107
10, 94170, Note_on_c, 10, 72, 110
10, 94187, Control_c, 10, 11, 104
10, 94190, Note_on_c, 10, 72, 0
10, 94200, Note_on_c, 10, 72, 110
10, 94220, Note_on_c, 10, 72, 0
10, 94230, Note_on_c, 10, 72, 110
10, 94250, Note_on_c, 10, 72, 0
10, 94260, Note_on_c, 10, 72, 110
10, 94280, Note_on_c, 10, 72, 0
10, 94290, Note_on_c, 10, 72, 110
10, 94310, Note_on_c, 10, 72, 0
10, 94320, Note_on_c, 10, 74, 110
10, 94320, Control_c, 10, 11, 122
10, 94337, Control_c, 10, 11, 119
10, 94340, Note_on_c, 10, 74, 0
10, 94350, Note_on_c, 10, 74, 110
10, 94355, Control_c, 10, 11, 116
10, 94370, Note_on_c, 10, 74, 0
10, 94373, Control_c, 10, 11, 113
10, 94380, Note_on_c, 10, 74, 110
10, 94391, Control_c, 10, 11, 110
10, 94400, Note_on_c, 10, 74, 0
10, 94409, Control_c, 10, 11, 107
10, 94410, Note_on_c, 10, 74, 110
10, 94427, Control_c, 10, 11, 104
10, 94430, Note_on_c, 10, 74, 0
10, 94440, Note_on_c, 10, 74, 110
10, 94460, Note_on_c, 10, 74, 0
10, 94470, Note_on_c, 10, 74, 110
10, 94490, Note_on_c, 10, 74, 0
10, 94500, Note_on_c, 10, 74, 110
10, 94520, Note_on_c, 10, 74, 0
10, 94530, Note_on_c, 10, 74, 110
10, 94550, Note_on_c, 10, 74, 0
10, 94560, Note_on_c, 10, 67, 100
10, 94620, Control_c, 10, 11, 102
10, 94624, Control_c, 10, 11, 99
10, 94628, Control_c, 10, 11, 96
10, 94633, Control_c, 10, 11, 93
10, 94637, Control_c, 10, 11, 90
10, 94642, Control_c, 10, 11, 87
10, 94646, Control_c, 10, 11, 84
10, 94650, Control_c, 10, 11, 81
10, 94655, Control_c, 10, 11, 78
10, 94659, Control_c, 10, 11, 75
10, 94664, Control_c, 10, 11, 72
10, 94668, Control_c, 10, 11, 69
10, 94673, Control_c, 10, 11, 66
10, 94677, Control_c, 10, 11, 63
10, 94680, Note_on_c, 10, 67, 0
10, 94920, Note_on_c, 10, 78, 110
10, 94920, Control_c, 10, 11, 47
10, 95040, Note_on_c, 10, 78, 0
10, 95040, Note_on_c, 10, 79, 125
10, 95220, Note_on_c, 10, 79, 0
10, 95220, Note_on_c, 10, 78, 110
10, 95250, Note_on_c, 10, 78, 0
10, 95250, Note_on_c, 10, 76, 110
10, 95270, Note_on_c, 10, 76, 0
10, 95280, Note_on_c, 10, 74, 110
10, 95340, Note_on_c, 10, 74, 0
10, 95400, Note_on_c, 10, 72, 110
10, 95400, Control_c, 10, 11, 63
10, 95406, Control_c, 10, 11, 66
10, 95413, Control_c, 10, 11, 69
10, 95421, Control_c, 10, 11, 72
10, 95436, Control_c, 10, 11, 71
10, 95454, Control_c, 10, 11, 68
10, 95472, Control_c, 10, 11, 65
10, 95490, Control_c, 10, 11, 62
10, 95508, Control_c, 10, 11, 59
10, 95520, Note_on_c, 10, 72, 0
10, 95520, Control_c, 10, 11, 47
10, 95520, Note_on_c, 10, 71, 110
10, 95526, Control_c, 10, 11, 56
10, 95544, Control_c, 10, 11, 53
10, 95562, Control_c, 10, 11, 50
10, 95640, Note_on_c, 10, 71, 0
10, 95880, Note_on_c, 10, 78, 110
10, 96000, Note_on_c, 10, 78, 0
10, 96000, Note_on_c, 10, 79, 125
10, 96180, Note_on_c, 10, 79, 0
10, 96180, Note_on_c, 10, 78, 110
10, 96210, Note_on_c, 10, 78, 0
10, 96210, Note_on_c, 10, 76, 110
10, 96230, Note_on_c, 10, 76, 0
10, 96240, Note_on_c, 10, 74, 110
10, 96300, Note_on_c, 10, 74, 0
10, 96360, Note_on_c, 10, 78, 110
10, 96360, Control_c, 10, 11, 63
10, 96366, Control_c, 10, 11, 66
10, 96373, Control_c, 10, 11, 69
10, 96381, Control_c, 10, 11, 72
10, 96396, Control_c, 10, 11, 71
10, 96414, Control_c, 10, 11, 68
10, 96432, Control_c, 10, 11, 65
10, 96450, Control_c, 10, 11, 62
10, 96468, Control_c, 10, 11, 59
10, 96480, Note_on_c, 10, 78, 0
10, 96480, Note_on_c, 10, 79, 125
10, 96480, Control_c, 10, 11, 47
10, 96486, Control_c, 10, 11, 56
10, 96504, Control_c, 10, 11, 53
10, 96522, Control_c, 10, 11, 50
10, 96660, Note_on_c, 10, 79, 0
10, 96660, Note_on_c, 10, 78, 110
10, 96690, Note_on_c, 10, 78, 0
10, 96690, Note_on_c, 10, 76, 110
10, 96710, Note_on_c, 10, 76, 0
10, 96720, Note_on_c, 10, 74, 110
10, 96780, Note_on_c, 10, 74, 0
10, 96840, Control_c, 10, 11, 63
10, 96840, Note_on_c, 10, 78, 110
10, 96846, Control_c, 10, 11, 66
10, 96853, Control_c, 10, 11, 69
10, 96861, Control_c, 10, 11, 72
10, 96876, Control_c, 10, 11, 71
10, 96894, Control_c, 10, 11, 68
10, 96912, Control_c, 10, 11, 65
10, 96930, Control_c, 10, 11, 62
10, 96948, Control_c, 10, 11, 59
10, 96960, Note_on_c, 10, 78, 0
10, 96960, Control_c, 10, 11, 47
10, 96960, Note_on_c, 10, 79, 125
10, 96966, Control_c, 10, 11, 56
10, 96984, Control_c, 10, 11, 53
10, 97002, Control_c, 10, 11, 50
10, 97140, Note_on_c, 10, 79, 0
10, 97140, Note_on_c, 10, 78, 110
10, 97170, Note_on_c, 10, 78, 0
10, 97170, Note_on_c, 10, 76, 110
10, 97190, Note_on_c, 10, 76, 0
10, 97200, Note_on_c, 10, 74, 110
10, 97260, Note_on_c, 10, 74, 0
10, 97315, Control_c, 10, 11, 67
10, 97316, Control_c, 10, 11, 74
10, 97317, Control_c, 10, 11, 81
10, 97318, Control_c, 10, 11, 88
10, 97319, Control_c, 10, 11, 95
10, 97320, Control_c, 10, 11, 102
10, 97320, Note_on_c, 10, 62, 95
10, 97330, Note_on_c, 10, 69, 95
10, 97330, Note_on_c, 10, 78, 95
10, 97380, Note_on_c, 10, 62, 0
10, 97390, Note_on_c, 10, 78, 0
10, 97390, Note_on_c, 10, 69, 0
10, 97440, Note_on_c, 10, 62, 95
10, 97440, Note_on_c, 10, 55, 95
10, 97450, Note_on_c, 10, 71, 95
10, 97450, Note_on_c, 10, 79, 95
10, 97500, Note_on_c, 10, 55, 0
10, 97500, Note_on_c, 10, 62, 0
10, 97510, Note_on_c, 10, 71, 0
10, 97510, Note_on_c, 10, 79, 0
10, 98400, Note_on_c, 10, 55, 86
10, 98410, Note_on_c, 10, 71, 86
10, 98410, Note_on_c, 10, 62, 86
10, 98520, Note_on_c, 10, 55, 0
10, 98530, Note_on_c, 10, 62, 0
10, 98530, Note_on_c, 10, 71, 0
10, 99240, Control_c, 10, 11, 47
10, 99360, Note_on_c, 10, 69, 110
10, 99360, Note_on_c, 10, 81, 110
10, 99360, Control_c, 10, 11, 87
10, 99630, Control_c, 10, 11, 87
10, 99637, Control_c, 10, 11, 84
10, 99645, Control_c, 10, 11, 81
10, 99653, Control_c, 10, 11, 78
10, 99661, Control_c, 10, 11, 75
10, 99669, Control_c, 10, 11, 72
10, 99676, Control_c, 10, 11, 69
10, 99684, Control_c, 10, 11, 66
10, 99692, Control_c, 10, 11, 63
10, 99695, Note_on_c, 10, 81, 0
10, 99695, Note_on_c, 10, 69, 0
10, 99720, Note_on_c, 10, 76, 110
10, 99720, Control_c, 10, 11, 47
10, 99810, Note_on_c, 10, 76, 0
10, 99810, Note_on_c, 10, 80, 110
10, 99830, Note_on_c, 10, 80, 0
10, 99840, Note_on_c, 10, 81, 110
10, 99870, Note_on_c, 10, 81, 0
10, 99900, Note_on_c, 10, 81, 110
10, 99930, Note_on_c, 10, 81, 0
10, 99960, Note_on_c, 10, 76, 110
10, 99990, Note_on_c, 10, 76, 0
10, 100020, Note_on_c, 10, 80, 110
10, 100050, Note_on_c, 10, 80, 0
10, 100080, Note_on_c, 10, 81, 110
10, 100110, Note_on_c, 10, 81, 0
10, 100140, Note_on_c, 10, 81, 110
10, 100170, Note_on_c, 10, 81, 0
10, 100200, Note_on_c, 10, 76, 110
10, 100230, Note_on_c, 10, 76, 0
10, 100260, Note_on_c, 10, 80, 110
10, 100290, Note_on_c, 10, 80, 0
10, 100320, Note_on_c, 10, 81, 110
10, 100440, Note_on_c, 10, 81, 0
10, 101280, Note_on_c, 10, 86, 110
10, 101280, Control_c, 10, 11, 87
10, 101280, Note_on_c, 10, 74, 110
10, 101550, Control_c, 10, 11, 87
10, 101557, Control_c, 10, 11, 84
10, 101565, Control_c, 10, 11, 81
10, 101573, Control_c, 10, 11, 78
10, 101581, Control_c, 10, 11, 75
10, 101589, Control_c, 10, 11, 72
10, 101596, Control_c, 10, 11, 69
10, 101604, Control_c, 10, 11, 66
10, 101612, Control_c, 10, 11, 63
10, 101615, Note_on_c, 10, 74, 0
10, 101615, Note_on_c, 10, 86, 0
10, 101640, Note_on_c, 10, 81, 110
10, 101640, Control_c, 10, 11, 47
10, 101730, Note_on_c, 10, 81, 0
10, 101730, Note_on_c, 10, 85, 110
10, 101750, Note_on_c, 10, 85, 0
10, 101760, Note_on_c, 10, 86, 110
10, 101790, Note_on_c, 10, 86, 0
10, 101820, Note_on_c, 10, 86, 110
10, 101850, Note_on_c, 10, 86, 0
10, 101880, Note_on_c, 10, 81, 110
10, 101910, Note_on_c, 10, 81, 0
10, 101940, Note_on_c, 10, 85, 110
10, 101970, Note_on_c, 10, 85, 0
10, 102000, Note_on_c, 10, 86, 110
10, 102030, Note_on_c, 10, 86, 0
10, 102060, Note_on_c, 10, 86, 110
10, 102090, Note_on_c, 10, 86, 0
10, 102120, Note_on_c, 10, 81, 110
10, 102150, Note_on_c, 10, 81, 0
10, 102180, Note_on_c, 10, 85, 110
10, 102210, Note_on_c, 10, 85, 0
10, 102240, Note_on_c, 10, 86, 110
10, 102360, Note_on_c, 10, 86, 0
10, 103200, Note_on_c, 10, 79, 110
10, 103200, Control_c, 10, 11, 87
10, 103470, Control_c, 10, 11, 87
10, 103477, Control_c, 10, 11, 84
10, 103485, Control_c, 10, 11, 81
10, 103493, Control_c, 10, 11, 78
10, 103501, Control_c, 10, 11, 75
10, 103509, Control_c, 10, 11, 72
10, 103516, Control_c, 10, 11, 69
10, 103524, Control_c, 10, 11, 66
10, 103532, Control_c, 10, 11, 63
10, 103535, Note_on_c, 10, 79, 0
10, 103560, Note_on_c, 10, 74, 110
10, 103560, Control_c, 10, 11, 47
10, 103650, Note_on_c, 10, 74, 0
10, 103650, Note_on_c, 10, 78, 110
10, 103670, Note_on_c, 10, 78, 0
10, 103680, Note_on_c, 10, 79, 110
10, 103710, Note_on_c, 10, 79, 0
10, 103740, Note_on_c, 10, 79, 110
10, 103770, Note_on_c, 10, 79, 0
10, 103800, Note_on_c, 10, 74, 110
10, 103830, Note_on_c, 10, 74, 0
10, 103860, Note_on_c, 10, 78, 110
10, 103890, Note_on_c, 10, 78, 0
10, 103920, Note_on_c, 10, 79, 110
10, 103950, Note_on_c, 10, 79, 0
10, 103980, Note_on_c, 10, 79, 110
10, 104010, Note_on_c, 10, 79, 0
10, 104040, Note_on_c, 10, 74, 110
10, 104070, Note_on_c, 10, 74, 0
10, 104100, Note_on_c, 10, 78, 110
10, 104130, Note_on_c, 10, 78, 0
10, 104160, Note_on_c, 10, 79, 110
10, 104280, Note_on_c, 10, 79, 0
10, 105120, Control_c, 10, 11, 62
10, 105120, Note_on_c, 10, 55, 100
10, 105123, Control_c, 10, 11, 65
10, 105127, Control_c, 10, 11, 68
10, 105130, Note_on_c, 10, 63, 100
10, 105130, Control_c, 10, 11, 71
10, 105130, Note_on_c, 10, 72, 100
10, 105134, Control_c, 10, 11, 74
10, 105138, Control_c, 10, 11, 77
10, 105141, Control_c, 10, 11, 80
10, 105145, Control_c, 10, 11, 83
10, 105148, Control_c, 10, 11, 86
10, 105210, Control_c, 10, 11, 87
10, 105213, Control_c, 10, 11, 84
10, 105216, Control_c, 10, 11, 81
10, 105220, Control_c, 10, 11, 78
10, 105223, Control_c, 10, 11, 75
10, 105227, Control_c, 10, 11, 72
10, 105230, Control_c, 10, 11, 69
10, 105234, Control_c, 10, 11, 66
10, 105237, Control_c, 10, 11, 63
10, 105240, Note_on_c, 10, 55, 0
10, 105250, Note_on_c, 10, 72, 0
10, 105250, Note_on_c, 10, 63, 0
10, 106080, Note_on_c, 10, 60, 110
10, 106080, Control_c, 10, 11, 47
10, 106140, Note_on_c, 10, 60, 0
10, 106200, Note_on_c, 10, 63, 110
10, 106260, Note_on_c, 10, 63, 0
10, 106320, Note_on_c, 10, 67, 110
10, 106380, Note_on_c, 10, 67, 0
10, 106440, Note_on_c, 10, 71, 110
10, 106500, Note_on_c, 10, 71, 0
10, 106560, Note_on_c, 10, 72, 110
10, 106620, Note_on_c, 10, 72, 0
10, 106680, Note_on_c, 10, 74, 110
10, 106740, Note_on_c, 10, 74, 0
10, 106800, Note_on_c, 10, 75, 110
10, 106860, Note_on_c, 10, 75, 0
10, 106920, Note_on_c, 10, 76, 110
10, 106980, Note_on_c, 10, 76, 0
10, 107040, Note_on_c, 10, 77, 100
10, 107040, Control_c, 10, 11, 62
10, 107043, Control_c, 10, 11, 65
10, 107047, Control_c, 10, 11, 68
10, 107050, Control_c, 10, 11, 71
10, 107054, Control_c, 10, 11, 74
10, 107058, Control_c, 10, 11, 77
10, 107061, Control_c, 10, 11, 80
10, 107065, Control_c, 10, 11, 83
10, 107068, Control_c, 10, 11, 86
10, 107130, Control_c, 10, 11, 87
10, 107133, Control_c, 10, 11, 84
10, 107136, Control_c, 10, 11, 81
10, 107140, Control_c, 10, 11, 78
10, 107143, Control_c, 10, 11, 75
10, 107147, Control_c, 10, 11, 72
10, 107150, Control_c, 10, 11, 69
10, 107154, Control_c, 10, 11, 66
10, 107157, Control_c, 10, 11, 63
10, 107160, Note_on_c, 10, 77, 0
10, 108000, Note_on_c, 10, 65, 110
10, 108000, Control_c, 10, 11, 47
10, 108060, Note_on_c, 10, 65, 0
10, 108120, Note_on_c, 10, 68, 110
10, 108180, Note_on_c, 10, 68, 0
10, 108240, Note_on_c, 10, 72, 110
10, 108300, Note_on_c, 10, 72, 0
10, 108360, Note_on_c, 10, 76, 110
10, 108420, Note_on_c, 10, 76, 0
10, 108480, Note_on_c, 10, 77, 110
10, 108540, Note_on_c, 10, 77, 0
10, 108600, Note_on_c, 10, 79, 110
10, 108660, Note_on_c, 10, 79, 0
10, 108720, Note_on_c, 10, 80, 110
10, 108780, Note_on_c, 10, 80, 0
10, 108840, Note_on_c, 10, 81, 110
10, 108900, Note_on_c, 10, 81, 0
10, 108960, Control_c, 10, 11, 47
10, 108960, Note_on_c, 10, 82, 110
10, 108984, Control_c, 10, 11, 45
10, 109008, Control_c, 10, 11, 43
10, 109032, Control_c, 10, 11, 41
10, 109056, Control_c, 10, 11, 39
10, 109080, Note_on_c, 10, 82, 0
10, 109080, Control_c, 10, 11, 37
10, 109440, Note_on_c, 10, 80, 110
10, 109500, Note_on_c, 10, 80, 0
10, 109560, Note_on_c, 10, 77, 110
10, 109620, Note_on_c, 10, 77, 0
10, 109680, Note_on_c, 10, 74, 110
10, 109740, Note_on_c, 10, 74, 0
10, 109800, Note_on_c, 10, 68, 110
10, 109860, Note_on_c, 10, 68, 0
10, 109920, Control_c, 10, 11, 37
10, 109920, Note_on_c, 10, 67, 110
10, 110040, Note_on_c, 10, 67, 0
10, 110400, Control_c, 10, 11, 69
10, 110400, Note_on_c, 10, 79, 110
10, 110422, Control_c, 10, 11, 71
10, 110451, Control_c, 10, 11, 73
10, 110460, Note_on_c, 10, 79, 0
10, 110466, Control_c, 10, 11, 74
10, 110481, Control_c, 10, 11, 75
10, 110496, Control_c, 10, 11, 76
10, 110520, Note_on_c, 10, 75, 110
10, 110525, Control_c, 10, 11, 78
10, 110540, Control_c, 10, 11, 79
10, 110555, Control_c, 10, 11, 80
10, 110580, Note_on_c, 10, 75, 0
10, 110584, Control_c, 10, 11, 82
10, 110599, Control_c, 10, 11, 83
10, 110614, Control_c, 10, 11, 84
10, 110640, Note_on_c, 10, 70, 110
10, 110643, Control_c, 10, 11, 86
10, 110658, Control_c, 10, 11, 87
10, 110673, Control_c, 10, 11, 88
10, 110688, Control_c, 10, 11, 89
10, 110700, Note_on_c, 10, 70, 0
10, 110717, Control_c, 10, 11, 91
10, 110732, Control_c, 10, 11, 92
10, 110747, Control_c, 10, 11, 93
10, 110760, Note_on_c, 10, 67, 110
10, 110776, Control_c, 10, 11, 95
10, 110791, Control_c, 10, 11, 96
10, 110806, Control_c, 10, 11, 97
10, 110820, Note_on_c, 10, 67, 0
10, 110835, Control_c, 10, 11, 99
10, 110850, Control_c, 10, 11, 100
10, 110865, Control_c, 10, 11, 101
10, 110880, Control_c, 10, 11, 102
10, 110880, Note_on_c, 10, 69, 110
10, 111000, Note_on_c, 10, 69, 0
10, 111120, Note_on_c, 10, 81, 82
10, 111140, Note_on_c, 10, 81, 0
10, 111150, Note_on_c, 10, 81, 83
10, 111170, Note_on_c, 10, 81, 0
10, 111180, Note_on_c, 10, 81, 85
10, 111200, Note_on_c, 10, 81, 0
10, 111210, Note_on_c, 10, 81, 87
10, 111230, Note_on_c, 10, 81, 0
10, 111240, Note_on_c, 10, 81, 90
10, 111260, Note_on_c, 10, 81, 0
10, 111270, Note_on_c, 10, 81, 92
10, 111290, Note_on_c, 10, 81, 0
10, 111300, Note_on_c, 10, 81, 94
10, 111320, Note_on_c, 10, 81, 0
10, 111330, Note_on_c, 10, 81, 97
10, 111350, Note_on_c, 10, 81, 0
10, 111360, Note_on_c, 10, 81, 100
10, 111380, Note_on_c, 10, 81, 0
10, 111390, Note_on_c, 10, 81, 100
10, 111410, Note_on_c, 10, 81, 0
10, 111420, Note_on_c, 10, 81, 101
10, 111440, Note_on_c, 10, 81, 0
10, 111450, Note_on_c, 10, 81, 101
10, 111470, Note_on_c, 10, 81, 0
10, 111480, Note_on_c, 10, 81, 102
10, 111500, Note_on_c, 10, 81, 0
10, 111510, Note_on_c, 10, 81, 103
10, 111530, Note_on_c, 10, 81, 0
10, 111540, Note_on_c, 10, 81, 103
10, 111560, Note_on_c, 10, 81, 0
10, 111570, Note_on_c, 10, 81, 104
10, 111590, Note_on_c, 10, 81, 0
10, 111600, Note_on_c, 10, 81, 105
10, 111620, Note_on_c, 10, 81, 0
10, 111630, Note_on_c, 10, 81, 105
10, 111650, Note_on_c, 10, 81, 0
10, 111660, Note_on_c, 10, 81, 106
10, 111680, Note_on_c, 10, 81, 0
10, 111690, Note_on_c, 10, 81, 106
10, 111710, Note_on_c, 10, 81, 0
10, 111720, Note_on_c, 10, 81, 107
10, 111740, Note_on_c, 10, 81, 0
10, 111750, Note_on_c, 10, 81, 108
10, 111770, Note_on_c, 10, 81, 0
10, 111780, Note_on_c, 10, 81, 108
10, 111800, Note_on_c, 10, 81, 0
10, 111810, Control_c, 10, 11, 92
10, 111810, Note_on_c, 10, 81, 109
10, 111815, Control_c, 10, 11, 89
10, 111820, Control_c, 10, 11, 86
10, 111825, Control_c, 10, 11, 83
10, 111830, Note_on_c, 10, 81, 0
10, 111830, Control_c, 10, 11, 80
10, 111835, Control_c, 10, 11, 77
10, 111840, Control_c, 10, 11, 74
10, 111840, Note_on_c, 10, 82, 110
10, 111845, Control_c, 10, 11, 71
10, 111850, Control_c, 10, 11, 68
10, 111855, Control_c, 10, 11, 65
10, 111860, Control_c, 10, 11, 62
10, 111865, Control_c, 10, 11, 59
10, 111870, Note_on_c, 10, 82, 0
10, 111870, Control_c, 10, 11, 56
10, 111875, Control_c, 10, 11, 53
10, 111880, Control_c, 10, 11, 50
10, 111885, Control_c, 10, 11, 47
10, 111900, Note_on_c, 10, 82, 110
10, 111930, Note_on_c, 10, 82, 0
10, 111960, Note_on_c, 10, 82, 110
10, 111990, Note_on_c, 10, 82, 0
10, 112020, Note_on_c, 10, 82, 110
10, 112050, Note_on_c, 10, 82, 0
10, 112080, Note_on_c, 10, 80, 110
10, 112140, Note_on_c, 10, 80, 0
10, 112140, Note_on_c, 10, 79, 110
10, 112190, Note_on_c, 10, 79, 0
10, 112200, Note_on_c, 10, 77, 110
10, 112230, Note_on_c, 10, 77, 0
10, 112260, Note_on_c, 10, 75, 110
10, 112290, Note_on_c, 10, 75, 0
10, 112320, Note_on_c, 10, 74, 110
10, 112440, Note_on_c, 10, 74, 0
10, 112500, Note_on_c, 10, 74, 110
10, 112530, Note_on_c, 10, 74, 0
10, 112560, Note_on_c, 10, 75, 110
10, 112590, Note_on_c, 10, 75, 0
10, 112620, Note_on_c, 10, 77, 110
10, 112650, Note_on_c, 10, 77, 0
10, 112680, Note_on_c, 10, 79, 110
10, 112710, Note_on_c, 10, 79, 0
10, 112740, Note_on_c, 10, 81, 110
10, 112770, Note_on_c, 10, 81, 0
10, 112800, Note_on_c, 10, 82, 110
10, 112830, Note_on_c, 10, 82, 0
10, 112860, Note_on_c, 10, 82, 110
10, 112890, Note_on_c, 10, 82, 0
10, 112920, Note_on_c, 10, 82, 110
10, 112950, Note_on_c, 10, 82, 0
10, 112980, Note_on_c, 10, 82, 110
10, 113010, Note_on_c, 10, 82, 0
10, 113040, Note_on_c, 10, 80, 110
10, 113100, Note_on_c, 10, 80, 0
10, 113100, Note_on_c, 10, 79, 110
10, 113150, Note_on_c, 10, 79, 0
10, 113160, Note_on_c, 10, 77, 110
10, 113190, Note_on_c, 10, 77, 0
10, 113220, Note_on_c, 10, 75, 110
10, 113250, Note_on_c, 10, 75, 0
10, 113280, Note_on_c, 10, 74, 110
10, 113400, Note_on_c, 10, 74, 0
10, 113460, Note_on_c, 10, 74, 110
10, 113490, Note_on_c, 10, 74, 0
10, 113520, Note_on_c, 10, 75, 110
10, 113550, Note_on_c, 10, 75, 0
10, 113580, Note_on_c, 10, 77, 110
10, 113610, Note_on_c, 10, 77, 0
10, 113640, Note_on_c, 10, 79, 110
10, 113670, Note_on_c, 10, 79, 0
10, 113700, Note_on_c, 10, 81, 110
10, 113700, Control_c, 10, 11, 47
10, 113709, Control_c, 10, 11, 50
10, 113718, Control_c, 10, 11, 53
10, 113727, Control_c, 10, 11, 56
10, 113730, Note_on_c, 10, 81, 0
10, 113736, Control_c, 10, 11, 59
10, 113745, Control_c, 10, 11, 62
10, 113754, Control_c, 10, 11, 65
10, 113760, Note_on_c, 10, 82, 110
10, 113763, Control_c, 10, 11, 68
10, 113772, Control_c, 10, 11, 71
10, 113781, Control_c, 10, 11, 74
10, 113790, Note_on_c, 10, 82, 0
10, 113790, Control_c, 10, 11, 77
10, 113799, Control_c, 10, 11, 80
10, 113808, Control_c, 10, 11, 83
10, 113817, Control_c, 10, 11, 86
10, 113820, Note_on_c, 10, 82, 110
10, 113850, Note_on_c, 10, 82, 0
10, 113880, Note_on_c, 10, 82, 110
10, 113910, Note_on_c, 10, 82, 0
10, 113940, Note_on_c, 10, 82, 110
10, 113970, Note_on_c, 10, 82, 0
10, 114000, Note_on_c, 10, 80, 110
10, 114060, Note_on_c, 10, 80, 0
10, 114060, Note_on_c, 10, 79, 110
10, 114110, Note_on_c, 10, 79, 0
10, 114120, Note_on_c, 10, 77, 110
10, 114150, Note_on_c, 10, 77, 0
10, 114180, Note_on_c, 10, 75, 110
10, 114210, Note_on_c, 10, 75, 0
10, 114240, Note_on_c, 10, 74, 110
10, 114270, Note_on_c, 10, 74, 0
10, 114300, Note_on_c, 10, 82, 110
10, 114330, Note_on_c, 10, 82, 0
10, 114360, Note_on_c, 10, 82, 110
10, 114390, Note_on_c, 10, 82, 0
10, 114420, Note_on_c, 10, 82, 110
10, 114450, Note_on_c, 10, 82, 0
10, 114480, Note_on_c, 10, 80, 110
10, 114540, Note_on_c, 10, 80, 0
10, 114540, Note_on_c, 10, 79, 110
10, 114590, Note_on_c, 10, 79, 0
10, 114600, Note_on_c, 10, 77, 110
10, 114630, Note_on_c, 10, 77, 0
10, 114660, Note_on_c, 10, 75, 110
10, 114690, Note_on_c, 10, 75, 0
10, 114720, Note_on_c, 10, 74, 110
10, 114750, Note_on_c, 10, 74, 0
10, 114780, Note_on_c, 10, 75, 110
10, 114810, Note_on_c, 10, 75, 0
10, 114840, Note_on_c, 10, 77, 110
10, 114870, Note_on_c, 10, 77, 0
10, 114900, Note_on_c, 10, 79, 110
10, 114930, Note_on_c, 10, 79, 0
10, 114960, Note_on_c, 10, 80, 110
10, 114960, Control_c, 10, 11, 107
10, 114969, Control_c, 10, 11, 104
10, 114978, Control_c, 10, 11, 101
10, 114987, Control_c, 10, 11, 98
10, 114996, Control_c, 10, 11, 95
10, 115005, Control_c, 10, 11, 92
10, 115014, Control_c, 10, 11, 89
10, 115020, Note_on_c, 10, 80, 0
10, 115020, Note_on_c, 10, 79, 110
10, 115070, Note_on_c, 10, 79, 0
10, 115080, Note_on_c, 10, 77, 110
10, 115110, Note_on_c, 10, 77, 0
10, 115140, Note_on_c, 10, 75, 110
10, 115170, Note_on_c, 10, 75, 0
10, 115200, Note_on_c, 10, 74, 110
10, 115200, Control_c, 10, 11, 87
10, 115224, Control_c, 10, 11, 85
10, 115230, Note_on_c, 10, 74, 0
10, 115248, Control_c, 10, 11, 83
10, 115260, Note_on_c, 10, 75, 110
10, 115272, Control_c, 10, 11, 81
10, 115290, Note_on_c, 10, 75, 0
10, 115296, Control_c, 10, 11, 79
10, 115320, Note_on_c, 10, 74, 110
10, 115320, Control_c, 10, 11, 77
10, 115344, Control_c, 10, 11, 75
10, 115350, Note_on_c, 10, 74, 0
10, 115368, Control_c, 10, 11, 73
10, 115380, Note_on_c, 10, 72, 110
10, 115392, Control_c, 10, 11, 71
10, 115410, Note_on_c, 10, 72, 0
10, 115416, Control_c, 10, 11, 69
10, 115440, Control_c, 10, 11, 67
10, 115440, Note_on_c, 10, 70, 110
10, 115464, Control_c, 10, 11, 65
10, 115470, Note_on_c, 10, 70, 0
10, 115488, Control_c, 10, 11, 63
10, 115500, Note_on_c, 10, 68, 110
10, 115512, Control_c, 10, 11, 61
10, 115530, Note_on_c, 10, 68, 0
10, 115536, Control_c, 10, 11, 59
10, 115560, Control_c, 10, 11, 57
10, 115560, Note_on_c, 10, 67, 110
10, 115584, Control_c, 10, 11, 55
10, 115590, Note_on_c, 10, 67, 0
10, 115608, Control_c, 10, 11, 53
10, 115620, Note_on_c, 10, 65, 110
10, 115632, Control_c, 10, 11, 51
10, 115650, Note_on_c, 10, 65, 0
10, 115656, Control_c, 10, 11, 49
10, 115680, Note_on_c, 10, 63, 95
10, 115680, Control_c, 10, 11, 47
10, 115710, Note_on_c, 10, 63, 0
10, 115740, Note_on_c, 10, 70, 95
10, 115770, Note_on_c, 10, 70, 0
10, 115800, Note_on_c, 10, 70, 95
10, 115830, Note_on_c, 10, 70, 0
10, 115860, Note_on_c, 10, 70, 95
10, 115890, Note_on_c, 10, 70, 0
10, 115920, Note_on_c, 10, 70, 95
10, 115950, Note_on_c, 10, 70, 0
10, 115980, Note_on_c, 10, 70, 95
10, 116010, Note_on_c, 10, 70, 0
10, 116040, Note_on_c, 10, 70, 95
10, 116070, Note_on_c, 10, 70, 0
10, 116100, Note_on_c, 10, 68, 95
10, 116130, Note_on_c, 10, 68, 0
10, 116160, Note_on_c, 10, 67, 95
10, 116190, Note_on_c, 10, 67, 0
10, 116220, Note_on_c, 10, 70, 95
10, 116250, Note_on_c, 10, 70, 0
10, 116280, Note_on_c, 10, 70, 95
10, 116310, Note_on_c, 10, 70, 0
10, 116340, Note_on_c, 10, 68, 95
10, 116370, Note_on_c, 10, 68, 0
10, 116400, Note_on_c, 10, 67, 95
10, 116430, Note_on_c, 10, 67, 0
10, 116460, Note_on_c, 10, 70, 95
10, 116490, Note_on_c, 10, 70, 0
10, 116520, Note_on_c, 10, 70, 95
10, 116550, Note_on_c, 10, 70, 0
10, 116580, Note_on_c, 10, 68, 95
10, 116610, Note_on_c, 10, 68, 0
10, 116640, Note_on_c, 10, 67, 95
10, 116760, Note_on_c, 10, 67, 0
10, 117000, Note_on_c, 10, 58, 120
10, 117090, Note_on_c, 10, 58, 0
10, 117090, Note_on_c, 10, 62, 120
10, 117110, Note_on_c, 10, 62, 0
10, 117120, Note_on_c, 10, 63, 120
10, 117240, Note_on_c, 10, 63, 0
10, 117600, Note_on_c, 10, 68, 95
10, 117630, Note_on_c, 10, 68, 0
10, 117660, Note_on_c, 10, 72, 95
10, 117690, Note_on_c, 10, 72, 0
10, 117720, Note_on_c, 10, 72, 95
10, 117750, Note_on_c, 10, 72, 0
10, 117780, Note_on_c, 10, 72, 95
10, 117810, Note_on_c, 10, 72, 0
10, 117840, Note_on_c, 10, 72, 95
10, 117870, Note_on_c, 10, 72, 0
10, 117900, Note_on_c, 10, 72, 95
10, 117930, Note_on_c, 10, 72, 0
10, 117960, Note_on_c, 10, 72, 95
10, 117990, Note_on_c, 10, 72, 0
10, 118020, Note_on_c, 10, 70, 95
10, 118050, Note_on_c, 10, 70, 0
10, 118080, Note_on_c, 10, 68, 95
10, 118110, Note_on_c, 10, 68, 0
10, 118140, Note_on_c, 10, 72, 95
10, 118170, Note_on_c, 10, 72, 0
10, 118200, Note_on_c, 10, 72, 95
10, 118230, Note_on_c, 10, 72, 0
10, 118260, Note_on_c, 10, 70, 95
10, 118290, Note_on_c, 10, 70, 0
10, 118320, Note_on_c, 10, 68, 95
10, 118350, Note_on_c, 10, 68, 0
10, 118380, Note_on_c, 10, 72, 95
10, 118410, Note_on_c, 10, 72, 0
10, 118440, Note_on_c, 10, 72, 95
10, 118470, Note_on_c, 10, 72, 0
10, 118500, Note_on_c, 10, 70, 95
10, 118530, Note_on_c, 10, 70, 0
10, 118560, Note_on_c, 10, 68, 95
10, 118680, Note_on_c, 10, 68, 0
10, 118920, Note_on_c, 10, 72, 120
10, 119010, Note_on_c, 10, 72, 0
10, 119010, Note_on_c, 10, 76, 120
10, 119030, Note_on_c, 10, 76, 0
10, 119040, Note_on_c, 10, 77, 120
10, 119160, Note_on_c, 10, 77, 0
10, 119520, Note_on_c, 10, 70, 95
10, 119550, Note_on_c, 10, 70, 0
10, 119580, Note_on_c, 10, 74, 95
10, 119610, Note_on_c, 10, 74, 0
10, 119640, Note_on_c, 10, 74, 95
10, 119670, Note_on_c, 10, 74, 0
10, 119700, Note_on_c, 10, 74, 95
10, 119730, Note_on_c, 10, 74, 0
10, 119760, Note_on_c, 10, 74, 95
10, 119790, Note_on_c, 10, 74, 0
10, 119820, Note_on_c, 10, 74, 95
10, 119850, Note_on_c, 10, 74, 0
10, 119880, Note_on_c, 10, 74, 95
10, 119910, Note_on_c, 10, 74, 0
10, 119940, Note_on_c, 10, 72, 95
10, 119970, Note_on_c, 10, 72, 0
10, 120000, Note_on_c, 10, 70, 95
10, 120030, Note_on_c, 10, 70, 0
10, 120060, Note_on_c, 10, 74, 95
10, 120090, Note_on_c, 10, 74, 0
10, 120120, Note_on_c, 10, 74, 95
10, 120150, Note_on_c, 10, 74, 0
10, 120180, Note_on_c, 10, 72, 95
10, 120210, Note_on_c, 10, 72, 0
10, 120240, Note_on_c, 10, 70, 95
10, 120270, Note_on_c, 10, 70, 0
10, 120300, Note_on_c, 10, 74, 95
10, 120330, Note_on_c, 10, 74, 0
10, 120360, Note_on_c, 10, 74, 95
10, 120390, Note_on_c, 10, 74, 0
10, 120420, Note_on_c, 10, 72, 95
10, 120450, Note_on_c, 10, 72, 0
10, 120480, Note_on_c, 10, 70, 95
10, 120600, Note_on_c, 10, 70, 0
10, 120840, Note_on_c, 10, 74, 103
10, 120930, Note_on_c, 10, 74, 0
10, 120930, Note_on_c, 10, 78, 103
10, 120950, Note_on_c, 10, 78, 0
10, 120960, Note_on_c, 10, 79, 103
10, 121080, Note_on_c, 10, 79, 0
10, 121800, Note_on_c, 10, 69, 103
10, 121890, Note_on_c, 10, 69, 0
10, 121890, Note_on_c, 10, 73, 103
10, 121910, Note_on_c, 10, 73, 0
10, 121920, Note_on_c, 10, 74, 103
10, 122040, Note_on_c, 10, 74, 0
10, 122760, Note_on_c, 10, 76, 103
10, 122850, Note_on_c, 10, 76, 0
10, 122850, Note_on_c, 10, 80, 103
10, 122870, Note_on_c, 10, 80, 0
10, 122880, Note_on_c, 10, 81, 103
10, 123000, Note_on_c, 10, 81, 0
10, 123240, Note_on_c, 10, 65, 110
10, 123240, Control_c, 10, 11, 67
10, 123250, Control_c, 10, 11, 70
10, 123260, Control_c, 10, 11, 73
10, 123270, Control_c, 10, 11, 76
10, 123281, Control_c, 10, 11, 79
10, 123291, Control_c, 10, 11, 82
10, 123301, Control_c, 10, 11, 85
10, 123310, Note_on_c, 10, 65, 0
10, 123312, Control_c, 10, 11, 88
10, 123322, Control_c, 10, 11, 91
10, 123330, Note_on_c, 10, 65, 110
10, 123332, Control_c, 10, 11, 94
10, 123342, Control_c, 10, 11, 97
10, 123350, Note_on_c, 10, 65, 0
10, 123353, Control_c, 10, 11, 100
10, 123360, Note_on_c, 10, 64, 110
10, 123710, Note_on_c, 10, 64, 0
10, 123720, Note_on_c, 10, 59, 110
10, 123810, Note_on_c, 10, 59, 0
10, 123810, Note_on_c, 10, 63, 110
10, 123830, Note_on_c, 10, 63, 0
10, 123840, Note_on_c, 10, 64, 110
10, 123870, Note_on_c, 10, 64, 0
10, 123900, Note_on_c, 10, 66, 110
10, 123930, Note_on_c, 10, 66, 0
10, 123960, Note_on_c, 10, 68, 110
10, 123990, Note_on_c, 10, 68, 0
10, 124020, Note_on_c, 10, 69, 110
10, 124050, Note_on_c, 10, 69, 0
10, 124080, Note_on_c, 10, 71, 110
10, 124110, Note_on_c, 10, 71, 0
10, 124140, Note_on_c, 10, 72, 110
10, 124170, Note_on_c, 10, 72, 0
10, 124200, Note_on_c, 10, 74, 110
10, 124230, Note_on_c, 10, 74, 0
10, 124260, Note_on_c, 10, 71, 110
10, 124290, Note_on_c, 10, 71, 0
10, 124320, Note_on_c, 10, 69, 110
10, 124440, Note_on_c, 10, 69, 0
10, 125160, Note_on_c, 10, 57, 110
10, 125190, Note_on_c, 10, 57, 0
10, 125190, Note_on_c, 10, 59, 110
10, 125220, Note_on_c, 10, 59, 0
10, 125220, Note_on_c, 10, 60, 110
10, 125250, Note_on_c, 10, 60, 0
10, 125250, Note_on_c, 10, 62, 110
10, 125270, Note_on_c, 10, 62, 0
10, 125280, Note_on_c, 10, 64, 110
10, 125630, Note_on_c, 10, 64, 0
10, 125640, Note_on_c, 10, 59, 110
10, 125730, Note_on_c, 10, 59, 0
10, 125730, Note_on_c, 10, 63, 110
10, 125750, Note_on_c, 10, 63, 0
10, 125760, Note_on_c, 10, 64, 110
10, 125790, Note_on_c, 10, 64, 0
10, 125820, Note_on_c, 10, 66, 110
10, 125850, Note_on_c, 10, 66, 0
10, 125880, Note_on_c, 10, 68, 110
10, 125910, Note_on_c, 10, 68, 0
10, 125940, Note_on_c, 10, 69, 110
10, 125970, Note_on_c, 10, 69, 0
10, 126000, Note_on_c, 10, 71, 110
10, 126030, Note_on_c, 10, 71, 0
10, 126060, Note_on_c, 10, 72, 110
10, 126090, Note_on_c, 10, 72, 0
10, 126120, Note_on_c, 10, 74, 110
10, 126150, Note_on_c, 10, 74, 0
10, 126180, Note_on_c, 10, 71, 110
10, 126210, Note_on_c, 10, 71, 0
10, 126240, Note_on_c, 10, 69, 110
10, 126360, Note_on_c, 10, 69, 0
10, 127080, Note_on_c, 10, 57, 110
10, 127110, Note_on_c, 10, 57, 0
10, 127110, Note_on_c, 10, 59, 110
10, 127140, Note_on_c, 10, 59, 0
10, 127140, Note_on_c, 10, 60, 110
10, 127170, Note_on_c, 10, 60, 0
10, 127170, Note_on_c, 10, 62, 110
10, 127190, Note_on_c, 10, 62, 0
10, 127200, Control_c, 10, 11, 122
10, 127200, Note_on_c, 10, 64, 110
10, 127217, Control_c, 10, 11, 119
10, 127235, Control_c, 10, 11, 116
10, 127253, Control_c, 10, 11, 113
10, 127271, Control_c, 10, 11, 110
10, 127289, Control_c, 10, 11, 107
10, 127307, Control_c, 10, 11, 104
10, 127320, Note_on_c, 10, 64, 0
10, 127560, Note_on_c, 10, 57, 110
10, 127590, Note_on_c, 10, 57, 0
10, 127590, Note_on_c, 10, 59, 110
10, 127620, Note_on_c, 10, 59, 0
10, 127620, Note_on_c, 10, 60, 110
10, 127650, Note_on_c, 10, 60, 0
10, 127650, Note_on_c, 10, 62, 110
10, 127670, Note_on_c, 10, 62, 0
10, 127680, Control_c, 10, 11, 122
10, 127680, Note_on_c, 10, 64, 110
10, 127697, Control_c, 10, 11, 119
10, 127715, Control_c, 10, 11, 116
10, 127733, Control_c, 10, 11, 113
10, 127751, Control_c, 10, 11, 110
10, 127769, Control_c, 10, 11, 107
10, 127787, Control_c, 10, 11, 104
10, 127800, Note_on_c, 10, 64, 0
10, 128040, Note_on_c, 10, 57, 110
10, 128070, Note_on_c, 10, 57, 0
10, 128070, Note_on_c, 10, 59, 110
10, 128100, Note_on_c, 10, 59, 0
10, 128100, Note_on_c, 10, 60, 110
10, 128130, Note_on_c, 10, 60, 0
10, 128130, Note_on_c, 10, 62, 110
10, 128150, Note_on_c, 10, 62, 0
10, 128160, Note_on_c, 10, 64, 110
10, 128160, Control_c, 10, 11, 122
10, 128177, Control_c, 10, 11, 119
10, 128195, Control_c, 10, 11, 116
10, 128213, Control_c, 10, 11, 113
10, 128231, Control_c, 10, 11, 110
10, 128249, Control_c, 10, 11, 107
10, 128267, Control_c, 10, 11, 104
10, 128280, Note_on_c, 10, 64, 0
10, 128640, Note_on_c, 10, 76, 110
10, 128640, Note_on_c, 10, 64, 110
10, 128712, Note_on_c, 10, 64, 0
10, 128712, Note_on_c, 10, 76, 0
10, 128880, Note_on_c, 10, 64, 110
10, 128880, Note_on_c, 10, 76, 110
10, 128952, Note_on_c, 10, 76, 0
10, 128952, Note_on_c, 10, 64, 0
10, 129120, Note_on_c, 10, 76, 110
10, 129120, Note_on_c, 10, 64, 110
10, 129192, Note_on_c, 10, 64, 0
10, 129192, Note_on_c, 10, 76, 0
10, 131880, Note_on_c, 10, 67, 110
10, 131880, Control_c, 10, 11, 70
10, 131891, Control_c, 10, 11, 73
10, 131902, Control_c, 10, 11, 76
10, 131910, Note_on_c, 10, 67, 0
10, 131910, Note_on_c, 10, 65, 110
10, 131913, Control_c, 10, 11, 79
10, 131925, Control_c, 10, 11, 82
10, 131936, Control_c, 10, 11, 85
10, 131940, Note_on_c, 10, 65, 0
10, 131940, Note_on_c, 10, 64, 110
10, 131947, Control_c, 10, 11, 88
10, 131958, Control_c, 10, 11, 91
10, 131970, Note_on_c, 10, 64, 0
10, 131970, Note_on_c, 10, 62, 110
10, 131970, Control_c, 10, 11, 94
10, 131981, Control_c, 10, 11, 97
10, 131987, Note_on_c, 10, 62, 0
10, 131992, Control_c, 10, 11, 100
10, 132000, Note_on_c, 10, 60, 110
10, 132308, Note_on_c, 10, 60, 0
10, 132360, Note_on_c, 10, 55, 110
10, 132450, Note_on_c, 10, 55, 0
10, 132450, Note_on_c, 10, 59, 110
10, 132470, Note_on_c, 10, 59, 0
10, 132480, Control_c, 10, 11, 122
10, 132480, Note_on_c, 10, 60, 110
10, 132497, Control_c, 10, 11, 119
10, 132515, Control_c, 10, 11, 116
10, 132533, Control_c, 10, 11, 113
10, 132551, Control_c, 10, 11, 110
10, 132569, Control_c, 10, 11, 107
10, 132587, Control_c, 10, 11, 104
10, 132788, Note_on_c, 10, 60, 0
10, 132840, Note_on_c, 10, 55, 110
10, 132930, Note_on_c, 10, 55, 0
10, 132930, Note_on_c, 10, 59, 110
10, 132950, Note_on_c, 10, 59, 0
10, 132960, Note_on_c, 10, 60, 110
10, 132990, Note_on_c, 10, 60, 0
10, 133020, Note_on_c, 10, 60, 110
10, 133050, Note_on_c, 10, 60, 0
10, 133080, Note_on_c, 10, 55, 110
10, 133110, Note_on_c, 10, 55, 0
10, 133140, Note_on_c, 10, 59, 110
10, 133170, Note_on_c, 10, 59, 0
10, 133200, Note_on_c, 10, 60, 110
10, 133230, Note_on_c, 10, 60, 0
10, 133260, Note_on_c, 10, 60, 110
10, 133290, Note_on_c, 10, 60, 0
10, 133320, Note_on_c, 10, 55, 110
10, 133350, Note_on_c, 10, 55, 0
10, 133380, Note_on_c, 10, 59, 110
10, 133410, Note_on_c, 10, 59, 0
10, 133440, Note_on_c, 10, 60, 110
10, 133500, Note_on_c, 10, 60, 0
10, 133560, Note_on_c, 10, 64, 110
10, 133620, Note_on_c, 10, 64, 0
10, 133680, Note_on_c, 10, 67, 110
10, 133740, Note_on_c, 10, 67, 0
10, 133800, Note_on_c, 10, 71, 110
10, 133860, Note_on_c, 10, 71, 0
10, 133920, Note_on_c, 10, 72, 90
10, 134040, Note_on_c, 10, 72, 0
10, 134760, Note_on_c, 10, 69, 110
10, 134760, Control_c, 10, 11, 72
10, 134772, Control_c, 10, 11, 75
10, 134784, Control_c, 10, 11, 78
10, 134790, Note_on_c, 10, 69, 0
10, 134790, Note_on_c, 10, 67, 110
10, 134796, Control_c, 10, 11, 81
10, 134808, Control_c, 10, 11, 84
10, 134820, Note_on_c, 10, 67, 0
10, 134820, Note_on_c, 10, 65, 110
10, 134820, Control_c, 10, 11, 87
10, 134832, Control_c, 10, 11, 90
10, 134844, Control_c, 10, 11, 93
10, 134850, Note_on_c, 10, 65, 0
10, 134850, Note_on_c, 10, 64, 110
10, 134856, Control_c, 10, 11, 96
10, 134868, Control_c, 10, 11, 99
10, 134870, Note_on_c, 10, 64, 0
10, 134880, Control_c, 10, 11, 102
10, 134880, Note_on_c, 10, 62, 110
10, 135188, Note_on_c, 10, 62, 0
10, 135240, Note_on_c, 10, 57, 110
10, 135330, Note_on_c, 10, 57, 0
10, 135330, Note_on_c, 10, 61, 110
10, 135350, Note_on_c, 10, 61, 0
10, 135360, Control_c, 10, 11, 122
10, 135360, Note_on_c, 10, 62, 110
10, 135377, Control_c, 10, 11, 119
10, 135395, Control_c, 10, 11, 116
10, 135413, Control_c, 10, 11, 113
10, 135431, Control_c, 10, 11, 110
10, 135449, Control_c, 10, 11, 107
10, 135467, Control_c, 10, 11, 104
10, 135668, Note_on_c, 10, 62, 0
10, 135720, Note_on_c, 10, 57, 110
10, 135810, Note_on_c, 10, 57, 0
10, 135810, Note_on_c, 10, 61, 110
10, 135830, Note_on_c, 10, 61, 0
10, 135840, Note_on_c, 10, 62, 110
10, 135870, Note_on_c, 10, 62, 0
10, 135900, Note_on_c, 10, 62, 110
10, 135930, Note_on_c, 10, 62, 0
10, 135960, Note_on_c, 10, 57, 110
10, 135990, Note_on_c, 10, 57, 0
10, 136020, Note_on_c, 10, 61, 110
10, 136050, Note_on_c, 10, 61, 0
10, 136080, Note_on_c, 10, 62, 110
10, 136110, Note_on_c, 10, 62, 0
10, 136140, Note_on_c, 10, 62, 110
10, 136170, Note_on_c, 10, 62, 0
10, 136200, Note_on_c, 10, 57, 110
10, 136230, Note_on_c, 10, 57, 0
10, 136260, Note_on_c, 10, 61, 110
10, 136290, Note_on_c, 10, 61, 0
10, 136320, Note_on_c, 10, 62, 110
10, 136380, Note_on_c, 10, 62, 0
10, 136440, Note_on_c, 10, 65, 110
10, 136500, Note_on_c, 10, 65, 0
10, 136560, Note_on_c, 10, 69, 110
10, 136620, Note_on_c, 10, 69, 0
10, 136680, Note_on_c, 10, 73, 110
10, 136740, Note_on_c, 10, 73, 0
10, 136800, Note_on_c, 10, 74, 64
10, 136920, Note_on_c, 10, 74, 0
10, 138600, Note_on_c, 10, 74, 110
10, 138600, Control_c, 10, 11, 47
10, 138630, Note_on_c, 10, 74, 0
10, 138630, Note_on_c, 10, 72, 110
10, 138643, Control_c, 10, 11, 48
10, 138660, Note_on_c, 10, 72, 0
10, 138660, Note_on_c, 10, 71, 110
10, 138687, Control_c, 10, 11, 49
10, 138690, Note_on_c, 10, 71, 0
10, 138690, Note_on_c, 10, 69, 110
10, 138710, Note_on_c, 10, 69, 0
10, 138720, Note_on_c, 10, 67, 110
10, 138730, Control_c, 10, 11, 50
10, 138774, Control_c, 10, 11, 51
10, 138818, Control_c, 10, 11, 52
10, 138840, Note_on_c, 10, 67, 0
10, 138861, Control_c, 10, 11, 53
10, 138905, Control_c, 10, 11, 54
10, 138949, Control_c, 10, 11, 55
10, 138992, Control_c, 10, 11, 56
10, 139036, Control_c, 10, 11, 57
10, 139080, Control_c, 10, 11, 58
10, 139123, Control_c, 10, 11, 59
10, 139167, Control_c, 10, 11, 60
10, 139210, Control_c, 10, 11, 61
10, 139254, Control_c, 10, 11, 62
10, 139298, Control_c, 10, 11, 63
10, 139341, Control_c, 10, 11, 64
10, 139385, Control_c, 10, 11, 65
10, 139429, Control_c, 10, 11, 66
10, 139472, Control_c, 10, 11, 67
10, 139516, Control_c, 10, 11, 68
10, 139560, Note_on_c, 10, 77, 110
10, 139560, Control_c, 10, 11, 69
10, 139590, Note_on_c, 10, 77, 0
10, 139590, Note_on_c, 10, 75, 110
10, 139603, Control_c, 10, 11, 70
10, 139620, Note_on_c, 10, 75, 0
10, 139620, Note_on_c, 10, 74, 110
10, 139647, Control_c, 10, 11, 71
10, 139650, Note_on_c, 10, 74, 0
10, 139650, Note_on_c, 10, 72, 110
10, 139670, Note_on_c, 10, 72, 0
10, 139680, Note_on_c, 10, 70, 110
10, 139690, Control_c, 10, 11, 72
10, 139734, Control_c, 10, 11, 73
10, 139778, Control_c, 10, 11, 74
10, 139800, Note_on_c, 10, 70, 0
10, 139821, Control_c, 10, 11, 75
10, 139865, Control_c, 10, 11, 76
10, 139909, Control_c, 10, 11, 77
10, 139952, Control_c, 10, 11, 78
10, 139996, Control_c, 10, 11, 79
10, 140040, Control_c, 10, 11, 80
10, 140083, Control_c, 10, 11, 81
10, 140127, Control_c, 10, 11, 82
10, 140170, Control_c, 10, 11, 83
10, 140214, Control_c, 10, 11, 84
10, 140258, Control_c, 10, 11, 85
10, 140301, Control_c, 10, 11, 86
10, 140345, Control_c, 10, 11, 87
10, 140389, Control_c, 10, 11, 88
10, 140432, Control_c, 10, 11, 89
10, 140476, Control_c, 10, 11, 90
10, 140520, Control_c, 10, 11, 91
10, 140520, Note_on_c, 10, 81, 110
10, 140550, Note_on_c, 10, 81, 0
10, 140550, Note_on_c, 10, 79, 110
10, 140563, Control_c, 10, 11, 92
10, 140580, Note_on_c, 10, 79, 0
10, 140580, Note_on_c, 10, 77, 110
10, 140607, Control_c, 10, 11, 93
10, 140610, Note_on_c, 10, 77, 0
10, 140610, Note_on_c, 10, 76, 110
10, 140630, Note_on_c, 10, 76, 0
10, 140640, Note_on_c, 10, 74, 110
10, 140650, Control_c, 10, 11, 94
10, 140694, Control_c, 10, 11, 95
10, 140738, Control_c, 10, 11, 96
10, 140760, Note_on_c, 10, 74, 0
10, 140781, Control_c, 10, 11, 97
10, 140825, Control_c, 10, 11, 98
10, 140869, Control_c, 10, 11, 99
10, 140912, Control_c, 10, 11, 100
10, 140956, Control_c, 10, 11, 101
10, 141000, Control_c, 10, 11, 102
10, 141240, Note_on_c, 10, 81, 110
10, 141270, Note_on_c, 10, 81, 0
10, 141270, Note_on_c, 10, 79, 110
10, 141300, Note_on_c, 10, 79, 0
10, 141300, Note_on_c, 10, 77, 110
10, 141330, Note_on_c, 10, 77, 0
10, 141330, Note_on_c, 10, 76, 110
10, 141350, Note_on_c, 10, 76, 0
10, 141360, Note_on_c, 10, 74, 110
10, 141420, Note_on_c, 10, 74, 0
10, 141480, Note_on_c, 10, 74, 110
10, 141510, Note_on_c, 10, 74, 0
10, 141510, Note_on_c, 10, 72, 110
10, 141540, Note_on_c, 10, 72, 0
10, 141540, Note_on_c, 10, 71, 110
10, 141570, Note_on_c, 10, 71, 0
10, 141570, Note_on_c, 10, 69, 110
10, 141590, Note_on_c, 10, 69, 0
10, 141600, Note_on_c, 10, 67, 110
10, 141660, Note_on_c, 10, 67, 0
10, 141720, Note_on_c, 10, 79, 110
10, 141720, Control_c, 10, 11, 122
10, 141738, Control_c, 10, 11, 119
10, 141756, Control_c, 10, 11, 116
10, 141774, Control_c, 10, 11, 113
10, 141792, Control_c, 10, 11, 110
10, 141810, Control_c, 10, 11, 107
10, 141828, Control_c, 10, 11, 104
10, 141950, Note_on_c, 10, 79, 0
10, 141960, Note_on_c, 10, 79, 110
10, 141990, Note_on_c, 10, 79, 0
10, 141990, Note_on_c, 10, 77, 110
10, 142020, Note_on_c, 10, 77, 0
10, 142020, Note_on_c, 10, 76, 110
10, 142050, Note_on_c, 10, 76, 0
10, 142050, Note_on_c, 10, 74, 110
10, 142070, Note_on_c, 10, 74, 0
10, 142080, Note_on_c, 10, 76, 110
10, 142140, Note_on_c, 10, 76, 0
10, 142200, Note_on_c, 10, 76, 110
10, 142230, Note_on_c, 10, 76, 0
10, 142230, Note_on_c, 10, 74, 110
10, 142260, Note_on_c, 10, 74, 0
10, 142260, Note_on_c, 10, 72, 110
10, 142290, Note_on_c, 10, 72, 0
10, 142290, Note_on_c, 10, 71, 110
10, 142310, Note_on_c, 10, 71, 0
10, 142320, Note_on_c, 10, 72, 110
10, 142380, Note_on_c, 10, 72, 0
10, 142440, Note_on_c, 10, 72, 110
10, 142470, Note_on_c, 10, 72, 0
10, 142470, Note_on_c, 10, 69, 110
10, 142500, Note_on_c, 10, 69, 0
10, 142500, Note_on_c, 10, 67, 110
10, 142530, Note_on_c, 10, 67, 0
10, 142530, Note_on_c, 10, 66, 110
10, 142550, Note_on_c, 10, 66, 0
10, 142560, Note_on_c, 10, 67, 110
10, 142620, Note_on_c, 10, 67, 0
10, 142680, Note_on_c, 10, 79, 110
10, 142680, Control_c, 10, 11, 122
10, 142698, Control_c, 10, 11, 119
10, 142716, Control_c, 10, 11, 116
10, 142734, Control_c, 10, 11, 113
10, 142752, Control_c, 10, 11, 110
10, 142770, Control_c, 10, 11, 107
10, 142788, Control_c, 10, 11, 104
10, 142910, Note_on_c, 10, 79, 0
10, 142920, Note_on_c, 10, 79, 110
10, 142950, Note_on_c, 10, 79, 0
10, 142950, Note_on_c, 10, 77, 110
10, 142980, Note_on_c, 10, 77, 0
10, 142980, Note_on_c, 10, 76, 110
10, 143010, Note_on_c, 10, 76, 0
10, 143010, Note_on_c, 10, 74, 110
10, 143030, Note_on_c, 10, 74, 0
10, 143040, Note_on_c, 10, 76, 110
10, 143100, Note_on_c, 10, 76, 0
10, 143160, Note_on_c, 10, 76, 110
10, 143190, Note_on_c, 10, 76, 0
10, 143190, Note_on_c, 10, 74, 110
10, 143220, Note_on_c, 10, 74, 0
10, 143220, Note_on_c, 10, 72, 110
10, 143250, Note_on_c, 10, 72, 0
10, 143250, Note_on_c, 10, 71, 110
10, 143270, Note_on_c, 10, 71, 0
10, 143280, Note_on_c, 10, 72, 110
10, 143340, Note_on_c, 10, 72, 0
10, 143400, Note_on_c, 10, 72, 110
10, 143430, Note_on_c, 10, 72, 0
10, 143430, Note_on_c, 10, 69, 110
10, 143460, Note_on_c, 10, 69, 0
10, 143460, Note_on_c, 10, 67, 110
10, 143490, Note_on_c, 10, 67, 0
10, 143490, Note_on_c, 10, 66, 110
10, 143510, Note_on_c, 10, 66, 0
10, 143520, Note_on_c, 10, 67, 110
10, 143550, Note_on_c, 10, 67, 0
10, 143580, Note_on_c, 10, 69, 110
10, 143610, Note_on_c, 10, 69, 0
10, 143640, Note_on_c, 10, 71, 110
10, 143670, Note_on_c, 10, 71, 0
10, 143700, Note_on_c, 10, 72, 110
10, 143730, Note_on_c, 10, 72, 0
10, 143760, Note_on_c, 10, 74, 110
10, 143760, Control_c, 10, 11, 122
10, 143778, Control_c, 10, 11, 119
10, 143790, Note_on_c, 10, 74, 0
10, 143796, Control_c, 10, 11, 116
10, 143814, Control_c, 10, 11, 113
10, 143820, Note_on_c, 10, 72, 110
10, 143832, Control_c, 10, 11, 110
10, 143850, Note_on_c, 10, 72, 0
10, 143850, Control_c, 10, 11, 107
10, 143868, Control_c, 10, 11, 104
10, 143880, Note_on_c, 10, 71, 110
10, 143910, Note_on_c, 10, 71, 0
10, 143940, Note_on_c, 10, 69, 110
10, 143970, Note_on_c, 10, 69, 0
10, 144000, Note_on_c, 10, 67, 110
10, 144030, Note_on_c, 10, 67, 0
10, 144060, Note_on_c, 10, 69, 110
10, 144090, Note_on_c, 10, 69, 0
10, 144120, Note_on_c, 10, 71, 110
10, 144150, Note_on_c, 10, 71, 0
10, 144180, Note_on_c, 10, 72, 110
10, 144210, Note_on_c, 10, 72, 0
10, 144240, Note_on_c, 10, 74, 110
10, 144240, Control_c, 10, 11, 122
10, 144258, Control_c, 10, 11, 119
10, 144270, Note_on_c, 10, 74, 0
10, 144276, Control_c, 10, 11, 116
10, 144294, Control_c, 10, 11, 113
10, 144300, Note_on_c, 10, 72, 110
10, 144312, Control_c, 10, 11, 110
10, 144330, Note_on_c, 10, 72, 0
10, 144330, Control_c, 10, 11, 107
10, 144348, Control_c, 10, 11, 104
10, 144360, Note_on_c, 10, 71, 110
10, 144390, Note_on_c, 10, 71, 0
10, 144420, Note_on_c, 10, 69, 110
10, 144450, Note_on_c, 10, 69, 0
10, 144480, Note_on_c, 10, 67, 110
10, 144540, Note_on_c, 10, 67, 0
10, 144540, Note_on_c, 10, 66, 110
10, 144600, Note_on_c, 10, 66, 0
10, 144600, Note_on_c, 10, 67, 110
10, 144660, Note_on_c, 10, 67, 0
10, 144660, Note_on_c, 10, 66, 110
10, 144720, Note_on_c, 10, 66, 0
10, 144720, Note_on_c, 10, 67, 110
10, 144780, Note_on_c, 10, 67, 0
10, 144780, Note_on_c, 10, 66, 110
10, 144840, Note_on_c, 10, 66, 0
10, 144840, Note_on_c, 10, 67, 110
10, 144900, Note_on_c, 10, 67, 0
10, 144900, Note_on_c, 10, 66, 110
10, 144950, Note_on_c, 10, 66, 0
10, 144960, Note_on_c, 10, 67, 110
10, 145020, Note_on_c, 10, 67, 0
10, 145020, Note_on_c, 10, 66, 110
10, 145080, Note_on_c, 10, 66, 0
10, 145080, Note_on_c, 10, 67, 110
10, 145140, Note_on_c, 10, 67, 0
10, 145140, Note_on_c, 10, 66, 110
10, 145200, Note_on_c, 10, 66, 0
10, 145200, Control_c, 10, 11, 102
10, 145200, Note_on_c, 10, 67, 110
10, 145213, Control_c, 10, 11, 99
10, 145226, Control_c, 10, 11, 96
10, 145239, Control_c, 10, 11, 93
10, 145252, Control_c, 10, 11, 90
10, 145260, Note_on_c, 10, 67, 0
10, 145260, Note_on_c, 10, 65, 110
10, 145265, Control_c, 10, 11, 87
10, 145278, Control_c, 10, 11, 84
10, 145291, Control_c, 10, 11, 81
10, 145304, Control_c, 10, 11, 78
10, 145317, Control_c, 10, 11, 75
10, 145320, Note_on_c, 10, 65, 0
10, 145320, Note_on_c, 10, 64, 110
10, 145330, Control_c, 10, 11, 72
10, 145344, Control_c, 10, 11, 69
10, 145357, Control_c, 10, 11, 66
10, 145370, Control_c, 10, 11, 63
10, 145380, Note_on_c, 10, 64, 0
10, 145380, Note_on_c, 10, 62, 110
10, 145383, Control_c, 10, 11, 60
10, 145396, Control_c, 10, 11, 57
10, 145409, Control_c, 10, 11, 54
10, 145422, Control_c, 10, 11, 51
10, 145430, Note_on_c, 10, 62, 0
10, 145435, Control_c, 10, 11, 48
10, 145440, Note_on_c, 10, 60, 110
10, 145560, Note_on_c, 10, 60, 0
10, 145920, Note_on_c, 10, 65, 95
10, 145980, Note_on_c, 10, 65, 0
10, 146040, Note_on_c, 10, 69, 95
10, 146100, Note_on_c, 10, 69, 0
10, 146160, Note_on_c, 10, 74, 95
10, 146220, Note_on_c, 10, 74, 0
10, 146280, Note_on_c, 10, 77, 95
10, 146340, Note_on_c, 10, 77, 0
10, 146400, Note_on_c, 10, 71, 95
10, 146520, Note_on_c, 10, 71, 0
10, 146880, Note_on_c, 10, 76, 95
10, 146940, Note_on_c, 10, 76, 0
10, 147000, Note_on_c, 10, 72, 95
10, 147060, Note_on_c, 10, 72, 0
10, 147120, Note_on_c, 10, 67, 95
10, 147180, Note_on_c, 10, 67, 0
10, 147240, Note_on_c, 10, 64, 95
10, 147300, Note_on_c, 10, 64, 0
10, 147360, Note_on_c, 10, 62, 95
10, 147420, Note_on_c, 10, 62, 0
10, 147600, Control_c, 10, 11, 67
10, 147600, Note_on_c, 10, 77, 110
10, 147617, Control_c, 10, 11, 70
10, 147635, Control_c, 10, 11, 73
10, 147653, Control_c, 10, 11, 76
10, 147671, Control_c, 10, 11, 75
10, 147689, Control_c, 10, 11, 72
10, 147707, Control_c, 10, 11, 69
10, 147720, Note_on_c, 10, 77, 0
10, 147720, Note_on_c, 10, 76, 110
10, 147725, Control_c, 10, 11, 66
10, 147743, Control_c, 10, 11, 63
10, 147761, Control_c, 10, 11, 60
10, 147779, Control_c, 10, 11, 57
10, 147797, Control_c, 10, 11, 54
10, 147815, Control_c, 10, 11, 51
10, 147833, Control_c, 10, 11, 48
10, 147840, Note_on_c, 10, 76, 0
10, 148080, Control_c, 10, 11, 67
10, 148080, Note_on_c, 10, 77, 110
10, 148097, Control_c, 10, 11, 70
10, 148115, Control_c, 10, 11, 73
10, 148133, Control_c, 10, 11, 76
10, 148151, Control_c, 10, 11, 75
10, 148169, Control_c, 10, 11, 72
10, 148187, Control_c, 10, 11, 69
10, 148200, Note_on_c, 10, 77, 0
10, 148200, Note_on_c, 10, 76, 110
10, 148205, Control_c, 10, 11, 66
10, 148223, Control_c, 10, 11, 63
10, 148241, Control_c, 10, 11, 60
10, 148259, Control_c, 10, 11, 57
10, 148277, Control_c, 10, 11, 54
10, 148295, Control_c, 10, 11, 51
10, 148310, Note_on_c, 10, 76, 0
10, 148313, Control_c, 10, 11, 48
10, 148320, Note_on_c, 10, 74, 110
10, 148380, Note_on_c, 10, 74, 0
10, 148440, Note_on_c, 10, 79, 110
10, 148500, Note_on_c, 10, 79, 0
10, 148680, Note_on_c, 10, 78, 110
10, 148740, Note_on_c, 10, 78, 0
10, 148800, Note_on_c, 10, 79, 110
10, 148920, Note_on_c, 10, 79, 0
10, 149160, Note_on_c, 10, 67, 110
10, 149270, Note_on_c, 10, 67, 0
10, 149280, Note_on_c, 10, 72, 110
10, 149580, Note_on_c, 10, 72, 0
10, 149580, Note_on_c, 10, 71, 110
10, 149640, Note_on_c, 10, 71, 0
10, 149640, Note_on_c, 10, 69, 110
10, 149700, Note_on_c, 10, 69, 0
10, 149700, Note_on_c, 10, 67, 110
10, 149750, Note_on_c, 10, 67, 0
10, 149760, Note_on_c, 10, 65, 110
10, 149880, Note_on_c, 10, 65, 0
10, 150240, Note_on_c, 10, 74, 110
10, 150540, Note_on_c, 10, 74, 0
10, 150540, Note_on_c, 10, 71, 110
10, 150600, Note_on_c, 10, 71, 0
10, 150600, Note_on_c, 10, 67, 110
10, 150660, Note_on_c, 10, 67, 0
10, 150660, Note_on_c, 10, 65, 110
10, 150710, Note_on_c, 10, 65, 0
10, 150720, Note_on_c, 10, 64, 110
10, 150840, Note_on_c, 10, 64, 0
10, 151320, Note_on_c, 10, 72, 110
10, 151550, Note_on_c, 10, 72, 0
10, 151560, Control_c, 10, 11, 67
10, 151560, Note_on_c, 10, 73, 110
10, 151569, Control_c, 10, 11, 70
10, 151578, Control_c, 10, 11, 73
10, 151587, Control_c, 10, 11, 76
10, 151602, Control_c, 10, 11, 73
10, 151611, Control_c, 10, 11, 70
10, 151620, Control_c, 10, 11, 67
10, 151629, Control_c, 10, 11, 64
10, 151638, Control_c, 10, 11, 61
10, 151647, Control_c, 10, 11, 58
10, 151656, Control_c, 10, 11, 55
10, 151665, Control_c, 10, 11, 52
10, 151674, Control_c, 10, 11, 49
10, 151680, Note_on_c, 10, 73, 0
10, 151680, Note_on_c, 10, 72, 110
10, 151740, Note_on_c, 10, 72, 0
10, 151800, Note_on_c, 10, 72, 110
10, 152030, Note_on_c, 10, 72, 0
10, 152040, Control_c, 10, 11, 67
10, 152040, Note_on_c, 10, 73, 110
10, 152049, Control_c, 10, 11, 70
10, 152058, Control_c, 10, 11, 73
10, 152067, Control_c, 10, 11, 76
10, 152082, Control_c, 10, 11, 73
10, 152091, Control_c, 10, 11, 70
10, 152100, Control_c, 10, 11, 67
10, 152109, Control_c, 10, 11, 64
10, 152118, Control_c, 10, 11, 61
10, 152127, Control_c, 10, 11, 58
10, 152136, Control_c, 10, 11, 55
10, 152145, Control_c, 10, 11, 52
10, 152154, Control_c, 10, 11, 49
10, 152220, Note_on_c, 10, 73, 0
10, 152280, Note_on_c, 10, 74, 110
10, 152400, Note_on_c, 10, 74, 0
10, 152400, Note_on_c, 10, 76, 110
10, 152520, Note_on_c, 10, 76, 0
10, 152520, Note_on_c, 10, 77, 110
10, 152630, Note_on_c, 10, 77, 0
10, 152640, Note_on_c, 10, 72, 110
10, 152880, Note_on_c, 10, 72, 0
10, 152880, Note_on_c, 10, 71, 110
10, 153090, Control_c, 10, 11, 47
10, 153092, Control_c, 10, 11, 50
10, 153094, Control_c, 10, 11, 53
10, 153097, Control_c, 10, 11, 57
10, 153100, Note_on_c, 10, 71, 0
10, 153100, Control_c, 10, 11, 61
10, 153103, Control_c, 10, 11, 65
10, 153106, Control_c, 10, 11, 69
10, 153109, Control_c, 10, 11, 73
10, 153112, Control_c, 10, 11, 77
10, 153115, Control_c, 10, 11, 81
10, 153118, Control_c, 10, 11, 85
10, 153120, Note_on_c, 10, 79, 110
10, 153140, Note_on_c, 10, 79, 0
10, 153150, Note_on_c, 10, 79, 110
10, 153170, Note_on_c, 10, 79, 0
10, 153180, Note_on_c, 10, 79, 110
10, 153200, Note_on_c, 10, 79, 0
10, 153210, Note_on_c, 10, 79, 110
10, 153230, Note_on_c, 10, 79, 0
10, 153240, Note_on_c, 10, 79, 110
10, 153300, Note_on_c, 10, 79, 0
10, 153360, Note_on_c, 10, 77, 110
10, 153380, Note_on_c, 10, 77, 0
10, 153390, Note_on_c, 10, 77, 110
10, 153410, Note_on_c, 10, 77, 0
10, 153420, Note_on_c, 10, 77, 110
10, 153440, Note_on_c, 10, 77, 0
10, 153450, Note_on_c, 10, 77, 110
10, 153470, Note_on_c, 10, 77, 0
10, 153480, Note_on_c, 10, 77, 110
10, 153540, Note_on_c, 10, 77, 0
10, 153600, Note_on_c, 10, 76, 110
10, 153620, Note_on_c, 10, 76, 0
10, 153630, Note_on_c, 10, 76, 110
10, 153650, Note_on_c, 10, 76, 0
10, 153660, Note_on_c, 10, 76, 110
10, 153680, Note_on_c, 10, 76, 0
10, 153690, Note_on_c, 10, 76, 110
10, 153710, Note_on_c, 10, 76, 0
10, 153720, Note_on_c, 10, 76, 110
10, 153780, Note_on_c, 10, 76, 0
10, 153840, Note_on_c, 10, 74, 110
10, 153870, Note_on_c, 10, 74, 0
10, 153900, Note_on_c, 10, 76, 110
10, 153930, Note_on_c, 10, 76, 0
10, 153960, Note_on_c, 10, 77, 110
10, 153990, Note_on_c, 10, 77, 0
10, 154020, Note_on_c, 10, 78, 110
10, 154050, Note_on_c, 10, 78, 0
10, 154080, Note_on_c, 10, 79, 110
10, 154100, Note_on_c, 10, 79, 0
10, 154110, Note_on_c, 10, 79, 110
10, 154130, Note_on_c, 10, 79, 0
10, 154140, Note_on_c, 10, 79, 110
10, 154160, Note_on_c, 10, 79, 0
10, 154170, Note_on_c, 10, 79, 110
10, 154190, Note_on_c, 10, 79, 0
10, 154200, Note_on_c, 10, 79, 110
10, 154260, Note_on_c, 10, 79, 0
10, 154320, Note_on_c, 10, 77, 110
10, 154340, Note_on_c, 10, 77, 0
10, 154350, Note_on_c, 10, 77, 110
10, 154370, Note_on_c, 10, 77, 0
10, 154380, Note_on_c, 10, 77, 110
10, 154400, Note_on_c, 10, 77, 0
10, 154410, Note_on_c, 10, 77, 110
10, 154430, Note_on_c, 10, 77, 0
10, 154440, Note_on_c, 10, 77, 110
10, 154500, Note_on_c, 10, 77, 0
10, 154560, Note_on_c, 10, 76, 110
10, 154580, Note_on_c, 10, 76, 0
10, 154590, Note_on_c, 10, 76, 110
10, 154610, Note_on_c, 10, 76, 0
10, 154620, Note_on_c, 10, 76, 110
10, 154640, Note_on_c, 10, 76, 0
10, 154650, Note_on_c, 10, 76, 110
10, 154670, Note_on_c, 10, 76, 0
10, 154680, Note_on_c, 10, 76, 110
10, 154740, Note_on_c, 10, 76, 0
10, 154800, Note_on_c, 10, 74, 110
10, 154830, Note_on_c, 10, 74, 0
10, 154860, Note_on_c, 10, 76, 110
10, 154890, Note_on_c, 10, 76, 0
10, 154920, Note_on_c, 10, 77, 110
10, 154950, Note_on_c, 10, 77, 0
10, 154980, Note_on_c, 10, 78, 110
10, 155010, Note_on_c, 10, 78, 0
10, 155040, Control_c, 10, 11, 107
10, 155040, Note_on_c, 10, 79, 110
10, 155058, Control_c, 10, 11, 104
10, 155060, Note_on_c, 10, 79, 0
10, 155070, Note_on_c, 10, 79, 110
10, 155076, Control_c, 10, 11, 101
10, 155090, Note_on_c, 10, 79, 0
10, 155094, Control_c, 10, 11, 98
10, 155100, Note_on_c, 10, 79, 110
10, 155112, Control_c, 10, 11, 95
10, 155120, Note_on_c, 10, 79, 0
10, 155130, Note_on_c, 10, 79, 110
10, 155130, Control_c, 10, 11, 92
10, 155148, Control_c, 10, 11, 89
10, 155150, Note_on_c, 10, 79, 0
10, 155160, Note_on_c, 10, 79, 110
10, 155180, Note_on_c, 10, 79, 0
10, 155190, Note_on_c, 10, 79, 110
10, 155210, Note_on_c, 10, 79, 0
10, 155220, Note_on_c, 10, 77, 110
10, 155240, Note_on_c, 10, 77, 0
10, 155250, Note_on_c, 10, 77, 110
10, 155270, Note_on_c, 10, 77, 0
10, 155280, Note_on_c, 10, 76, 110
10, 155300, Note_on_c, 10, 76, 0
10, 155310, Note_on_c, 10, 76, 110
10, 155330, Note_on_c, 10, 76, 0
10, 155340, Note_on_c, 10, 74, 110
10, 155360, Note_on_c, 10, 74, 0
10, 155370, Note_on_c, 10, 74, 110
10, 155390, Note_on_c, 10, 74, 0
10, 155400, Note_on_c, 10, 72, 110
10, 155420, Note_on_c, 10, 72, 0
10, 155430, Note_on_c, 10, 72, 110
10, 155450, Note_on_c, 10, 72, 0
10, 155460, Note_on_c, 10, 71, 110
10, 155480, Note_on_c, 10, 71, 0
10, 155490, Note_on_c, 10, 71, 110
10, 155510, Note_on_c, 10, 71, 0
10, 155520, Note_on_c, 10, 69, 110
10, 155520, Control_c, 10, 11, 107
10, 155538, Control_c, 10, 11, 104
10, 155540, Note_on_c, 10, 69, 0
10, 155550, Note_on_c, 10, 81, 110
10, 155556, Control_c, 10, 11, 101
10, 155570, Note_on_c, 10, 81, 0
10, 155574, Control_c, 10, 11, 98
10, 155580, Note_on_c, 10, 81, 110
10, 155592, Control_c, 10, 11, 95
10, 155600, Note_on_c, 10, 81, 0
10, 155610, Note_on_c, 10, 81, 110
10, 155610, Control_c, 10, 11, 92
10, 155628, Control_c, 10, 11, 89
10, 155630, Note_on_c, 10, 81, 0
10, 155640, Note_on_c, 10, 81, 110
10, 155660, Note_on_c, 10, 81, 0
10, 155670, Note_on_c, 10, 81, 110
10, 155690, Note_on_c, 10, 81, 0
10, 155700, Note_on_c, 10, 79, 110
10, 155720, Note_on_c, 10, 79, 0
10, 155730, Note_on_c, 10, 79, 110
10, 155750, Note_on_c, 10, 79, 0
10, 155760, Note_on_c, 10, 77, 110
10, 155780, Note_on_c, 10, 77, 0
10, 155790, Note_on_c, 10, 77, 110
10, 155810, Note_on_c, 10, 77, 0
10, 155820, Note_on_c, 10, 76, 110
10, 155840, Note_on_c, 10, 76, 0
10, 155850, Note_on_c, 10, 76, 110
10, 155870, Note_on_c, 10, 76, 0
10, 155880, Note_on_c, 10, 74, 110
10, 155900, Note_on_c, 10, 74, 0
10, 155910, Note_on_c, 10, 74, 110
10, 155930, Note_on_c, 10, 74, 0
10, 155940, Note_on_c, 10, 72, 110
10, 155960, Note_on_c, 10, 72, 0
10, 155970, Note_on_c, 10, 72, 110
10, 155990, Note_on_c, 10, 72, 0
10, 156000, Control_c, 10, 11, 77
10, 156000, Note_on_c, 10, 71, 110
10, 156019, Control_c, 10, 11, 78
10, 156020, Note_on_c, 10, 71, 0
10, 156030, Note_on_c, 10, 71, 110
10, 156038, Control_c, 10, 11, 79
10, 156050, Note_on_c, 10, 71, 0
10, 156057, Control_c, 10, 11, 80
10, 156060, Note_on_c, 10, 72, 110
10, 156076, Control_c, 10, 11, 81
10, 156080, Note_on_c, 10, 72, 0
10, 156090, Note_on_c, 10, 72, 110
10, 156096, Control_c, 10, 11, 82
10, 156110, Note_on_c, 10, 72, 0
10, 156115, Control_c, 10, 11, 83
10, 156120, Note_on_c, 10, 74, 110
10, 156134, Control_c, 10, 11, 84
10, 156140, Note_on_c, 10, 74, 0
10, 156150, Note_on_c, 10, 74, 110
10, 156153, Control_c, 10, 11, 85
10, 156170, Note_on_c, 10, 74, 0
10, 156172, Control_c, 10, 11, 86
10, 156180, Note_on_c, 10, 76, 110
10, 156192, Control_c, 10, 11, 87
10, 156200, Note_on_c, 10, 76, 0
10, 156210, Note_on_c, 10, 76, 110
10, 156211, Control_c, 10, 11, 88
10, 156230, Note_on_c, 10, 76, 0
10, 156230, Control_c, 10, 11, 89
10, 156240, Note_on_c, 10, 77, 110
10, 156249, Control_c, 10, 11, 90
10, 156260, Note_on_c, 10, 77, 0
10, 156268, Control_c, 10, 11, 91
10, 156270, Note_on_c, 10, 77, 110
10, 156288, Control_c, 10, 11, 92
10, 156290, Note_on_c, 10, 77, 0
10, 156300, Note_on_c, 10, 79, 110
10, 156307, Control_c, 10, 11, 93
10, 156320, Note_on_c, 10, 79, 0
10, 156326, Control_c, 10, 11, 94
10, 156330, Note_on_c, 10, 79, 110
10, 156345, Control_c, 10, 11, 95
10, 156350, Note_on_c, 10, 79, 0
10, 156360, Note_on_c, 10, 81, 110
10, 156364, Control_c, 10, 11, 96
10, 156380, Note_on_c, 10, 81, 0
10, 156384, Control_c, 10, 11, 97
10, 156390, Note_on_c, 10, 81, 110
10, 156403, Control_c, 10, 11, 98
10, 156410, Note_on_c, 10, 81, 0
10, 156420, Note_on_c, 10, 83, 110
10, 156422, Control_c, 10, 11, 99
10, 156440, Note_on_c, 10, 83, 0
10, 156441, Control_c, 10, 11, 100
10, 156450, Note_on_c, 10, 83, 110
10, 156460, Control_c, 10, 11, 101
10, 156470, Note_on_c, 10, 83, 0
10, 156480, Note_on_c, 10, 84, 110
10, 156480, Control_c, 10, 11, 102
10, 156540, Note_on_c, 10, 84, 0
10, 156600, Note_on_c, 10, 81, 110
10, 156660, Note_on_c, 10, 81, 0
10, 156720, Note_on_c, 10, 79, 110
10, 156780, Note_on_c, 10, 79, 0
10, 156840, Note_on_c, 10, 71, 110
10, 156900, Note_on_c, 10, 71, 0
10, 156960, Note_on_c, 10, 72, 64
10, 157020, Control_c, 10, 11, 87
10, 157027, Control_c, 10, 11, 84
10, 157034, Control_c, 10, 11, 81
10, 157041, Note_on_c, 10, 72, 0
10, 157041, Control_c, 10, 11, 78
10, 157048, Control_c, 10, 11, 75
10, 157056, Control_c, 10, 11, 72
10, 157063, Control_c, 10, 11, 69
10, 157070, Control_c, 10, 11, 66
10, 157077, Control_c, 10, 11, 63
10, 157080, Note_on_c, 10, 67, 86
10, 157084, Control_c, 10, 11, 60
10, 157092, Control_c, 10, 11, 57
10, 157099, Control_c, 10, 11, 54
10, 157106, Control_c, 10, 11, 51
10, 157113, Control_c, 10, 11, 48
10, 157120, Control_c, 10, 11, 45
10, 157128, Control_c, 10, 11, 42
10, 157135, Control_c, 10, 11, 39
10, 157161, Note_on_c, 10, 67, 0
10, 157200, Note_on_c, 10, 67, 86
10, 157281, Note_on_c, 10, 67, 0
10, 157320, Note_on_c, 10, 67, 86
10, 157401, Note_on_c, 10, 67, 0
10, 157440, Note_on_c, 10, 68, 86
10, 157521, Note_on_c, 10, 68, 0
10, 157560, Note_on_c, 10, 68, 86
10, 157641, Note_on_c, 10, 68, 0
10, 157680, Note_on_c, 10, 68, 86
10, 157761, Note_on_c, 10, 68, 0
10, 157800, Note_on_c, 10, 68, 86
10, 157881, Note_on_c, 10, 68, 0
10, 157920, Note_on_c, 10, 68, 86
10, 158001, Note_on_c, 10, 68, 0
10, 158040, Note_on_c, 10, 68, 86
10, 158121, Note_on_c, 10, 68, 0
10, 158160, Note_on_c, 10, 68, 86
10, 158241, Note_on_c, 10, 68, 0
10, 158280, Note_on_c, 10, 68, 86
10, 158361, Note_on_c, 10, 68, 0
10, 158400, Note_on_c, 10, 67, 86
10, 158481, Note_on_c, 10, 67, 0
10, 158520, Note_on_c, 10, 67, 86
10, 158601, Note_on_c, 10, 67, 0
10, 158640, Note_on_c, 10, 67, 86
10, 158721, Note_on_c, 10, 67, 0
10, 158760, Note_on_c, 10, 67, 86
10, 158841, Note_on_c, 10, 67, 0
10, 158880, Note_on_c, 10, 65, 86
10, 158961, Note_on_c, 10, 65, 0
10, 159000, Note_on_c, 10, 65, 86
10, 159081, Note_on_c, 10, 65, 0
10, 159120, Note_on_c, 10, 65, 86
10, 159201, Note_on_c, 10, 65, 0
10, 159240, Note_on_c, 10, 65, 86
10, 159321, Note_on_c, 10, 65, 0
10, 159360, Note_on_c, 10, 65, 86
10, 159441, Note_on_c, 10, 65, 0
10, 159480, Note_on_c, 10, 74, 86
10, 159561, Note_on_c, 10, 74, 0
10, 159600, Note_on_c, 10, 74, 86
10, 159681, Note_on_c, 10, 74, 0
10, 159720, Note_on_c, 10, 74, 87
10, 159801, Note_on_c, 10, 74, 0
10, 159840, Note_on_c, 10, 72, 88
10, 159921, Note_on_c, 10, 72, 0
10, 159960, Note_on_c, 10, 72, 89
10, 160041, Note_on_c, 10, 72, 0
10, 160080, Note_on_c, 10, 72, 89
10, 160161, Note_on_c, 10, 72, 0
10, 160200, Note_on_c, 10, 72, 90
10, 160281, Note_on_c, 10, 72, 0
10, 160320, Note_on_c, 10, 72, 91
10, 160401, Note_on_c, 10, 72, 0
10, 160440, Note_on_c, 10, 72, 92
10, 160521, Note_on_c, 10, 72, 0
10, 160560, Note_on_c, 10, 72, 93
10, 160641, Note_on_c, 10, 72, 0
10, 160680, Note_on_c, 10, 72, 94
10, 160761, Note_on_c, 10, 72, 0
10, 160800, Note_on_c, 10, 71, 95
10, 160881, Note_on_c, 10, 71, 0
10, 160920, Control_c, 10, 11, 37
10, 160920, Note_on_c, 10, 77, 95
10, 160946, Control_c, 10, 11, 38
10, 160972, Control_c, 10, 11, 39
10, 160999, Control_c, 10, 11, 40
10, 161001, Note_on_c, 10, 77, 0
10, 161025, Control_c, 10, 11, 41
10, 161040, Note_on_c, 10, 77, 95
10, 161052, Control_c, 10, 11, 42
10, 161078, Control_c, 10, 11, 43
10, 161104, Control_c, 10, 11, 44
10, 161121, Note_on_c, 10, 77, 0
10, 161131, Control_c, 10, 11, 45
10, 161157, Control_c, 10, 11, 46
10, 161160, Note_on_c, 10, 77, 95
10, 161184, Control_c, 10, 11, 47
10, 161210, Control_c, 10, 11, 48
10, 161236, Control_c, 10, 11, 49
10, 161241, Note_on_c, 10, 77, 0
10, 161263, Control_c, 10, 11, 50
10, 161280, Note_on_c, 10, 76, 95
10, 161289, Control_c, 10, 11, 51
10, 161316, Control_c, 10, 11, 52
10, 161342, Control_c, 10, 11, 53
10, 161361, Note_on_c, 10, 76, 0
10, 161368, Control_c, 10, 11, 54
10, 161395, Control_c, 10, 11, 55
10, 161400, Note_on_c, 10, 76, 95
10, 161421, Control_c, 10, 11, 56
10, 161448, Control_c, 10, 11, 57
10, 161474, Control_c, 10, 11, 58
10, 161481, Note_on_c, 10, 76, 0
10, 161500, Control_c, 10, 11, 59
10, 161520, Note_on_c, 10, 76, 95
10, 161527, Control_c, 10, 11, 60
10, 161553, Control_c, 10, 11, 61
10, 161580, Control_c, 10, 11, 62
10, 161601, Note_on_c, 10, 76, 0
10, 161606, Control_c, 10, 11, 63
10, 161632, Control_c, 10, 11, 64
10, 161640, Note_on_c, 10, 76, 95
10, 161659, Control_c, 10, 11, 65
10, 161685, Control_c, 10, 11, 66
10, 161712, Control_c, 10, 11, 67
10, 161721, Note_on_c, 10, 76, 0
10, 161738, Control_c, 10, 11, 68
10, 161760, Note_on_c, 10, 74, 95
10, 161764, Control_c, 10, 11, 69
10, 161791, Control_c, 10, 11, 70
10, 161817, Control_c, 10, 11, 71
10, 161841, Note_on_c, 10, 74, 0
10, 161844, Control_c, 10, 11, 72
10, 161870, Control_c, 10, 11, 73
10, 161880, Note_on_c, 10, 74, 98
10, 161896, Control_c, 10, 11, 74
10, 161923, Control_c, 10, 11, 75
10, 161949, Control_c, 10, 11, 76
10, 161961, Note_on_c, 10, 74, 0
10, 161976, Control_c, 10, 11, 77
10, 162000, Note_on_c, 10, 74, 102
10, 162002, Control_c, 10, 11, 78
10, 162028, Control_c, 10, 11, 79
10, 162055, Control_c, 10, 11, 80
10, 162081, Note_on_c, 10, 74, 0
10, 162081, Control_c, 10, 11, 81
10, 162108, Control_c, 10, 11, 82
10, 162120, Note_on_c, 10, 74, 106
10, 162134, Control_c, 10, 11, 83
10, 162160, Control_c, 10, 11, 84
10, 162187, Control_c, 10, 11, 85
10, 162201, Note_on_c, 10, 74, 0
10, 162213, Control_c, 10, 11, 86
10, 162240, Note_on_c, 10, 72, 110
10, 162240, Control_c, 10, 11, 87
10, 162590, Note_on_c, 10, 72, 0
10, 162600, Note_on_c, 10, 67, 110
10, 162690, Note_on_c, 10, 67, 0
10, 162690, Note_on_c, 10, 71, 110
10, 162710, Note_on_c, 10, 71, 0
10, 162720, Control_c, 10, 11, 107
10, 162720, Note_on_c, 10, 72, 110
10, 162738, Control_c, 10, 11, 104
10, 162756, Control_c, 10, 11, 101
10, 162774, Control_c, 10, 11, 98
10, 162792, Control_c, 10, 11, 95
10, 162810, Control_c, 10, 11, 92
10, 162828, Control_c, 10, 11, 89
10, 163070, Note_on_c, 10, 72, 0
10, 163080, Note_on_c, 10, 67, 110
10, 163170, Note_on_c, 10, 67, 0
10, 163170, Note_on_c, 10, 71, 110
10, 163190, Note_on_c, 10, 71, 0
10, 163200, Note_on_c, 10, 72, 110
10, 163200, Control_c, 10, 11, 107
10, 163218, Control_c, 10, 11, 104
10, 163230, Note_on_c, 10, 72, 0
10, 163236, Control_c, 10, 11, 101
10, 163254, Control_c, 10, 11, 98
10, 163260, Note_on_c, 10, 72, 110
10, 163272, Control_c, 10, 11, 95
10, 163290, Control_c, 10, 11, 92
10, 163308, Control_c, 10, 11, 89
10, 163320, Note_on_c, 10, 72, 0
10, 163320, Note_on_c, 10, 71, 110
10, 163380, Note_on_c, 10, 71, 0
10, 163380, Note_on_c, 10, 72, 110
10, 163430, Note_on_c, 10, 72, 0
10, 163440, Control_c, 10, 11, 107
10, 163440, Note_on_c, 10, 74, 110
10, 163458, Control_c, 10, 11, 104
10, 163470, Note_on_c, 10, 74, 0
10, 163476, Control_c, 10, 11, 101
10, 163494, Control_c, 10, 11, 98
10, 163500, Note_on_c, 10, 74, 110
10, 163512, Control_c, 10, 11, 95
10, 163530, Control_c, 10, 11, 92
10, 163548, Control_c, 10, 11, 89
10, 163560, Note_on_c, 10, 74, 0
10, 163560, Note_on_c, 10, 73, 110
10, 163620, Note_on_c, 10, 73, 0
10, 163620, Note_on_c, 10, 74, 110
10, 163670, Note_on_c, 10, 74, 0
10, 163680, Control_c, 10, 11, 107
10, 163680, Note_on_c, 10, 76, 110
10, 163698, Control_c, 10, 11, 104
10, 163710, Note_on_c, 10, 76, 0
10, 163716, Control_c, 10, 11, 101
10, 163734, Control_c, 10, 11, 98
10, 163740, Note_on_c, 10, 76, 110
10, 163752, Control_c, 10, 11, 95
10, 163770, Control_c, 10, 11, 92
10, 163788, Control_c, 10, 11, 89
10, 163800, Note_on_c, 10, 76, 0
10, 163800, Note_on_c, 10, 74, 110
10, 163860, Note_on_c, 10, 74, 0
10, 163860, Note_on_c, 10, 76, 110
10, 163910, Note_on_c, 10, 76, 0
10, 163920, Control_c, 10, 11, 107
10, 163920, Note_on_c, 10, 77, 110
10, 163938, Control_c, 10, 11, 104
10, 163950, Note_on_c, 10, 77, 0
10, 163956, Control_c, 10, 11, 101
10, 163974, Control_c, 10, 11, 98
10, 163980, Note_on_c, 10, 77, 110
10, 163992, Control_c, 10, 11, 95
10, 164010, Control_c, 10, 11, 92
10, 164028, Control_c, 10, 11, 89
10, 164040, Note_on_c, 10, 77, 0
10, 164040, Note_on_c, 10, 76, 110
10, 164100, Note_on_c, 10, 76, 0
10, 164100, Note_on_c, 10, 77, 110
10, 164150, Note_on_c, 10, 77, 0
10, 164160, Note_on_c, 10, 79, 110
10, 164180, Note_on_c, 10, 79, 0
10, 164190, Note_on_c, 10, 79, 110
10, 164210, Note_on_c, 10, 79, 0
10, 164220, Note_on_c, 10, 79, 110
10, 164240, Note_on_c, 10, 79, 0
10, 164250, Note_on_c, 10, 79, 110
10, 164270, Note_on_c, 10, 79, 0
10, 164280, Note_on_c, 10, 79, 110
10, 164300, Note_on_c, 10, 79, 0
10, 164310, Note_on_c, 10, 79, 110
10, 164330, Note_on_c, 10, 79, 0
10, 164340, Note_on_c, 10, 79, 110
10, 164360, Note_on_c, 10, 79, 0
10, 164370, Note_on_c, 10, 79, 110
10, 164390, Note_on_c, 10, 79, 0
10, 164400, Note_on_c, 10, 79, 110
10, 164420, Note_on_c, 10, 79, 0
10, 164430, Note_on_c, 10, 79, 110
10, 164450, Note_on_c, 10, 79, 0
10, 164460, Note_on_c, 10, 79, 110
10, 164480, Note_on_c, 10, 79, 0
10, 164490, Note_on_c, 10, 79, 110
10, 164510, Note_on_c, 10, 79, 0
10, 164520, Note_on_c, 10, 79, 110
10, 164540, Note_on_c, 10, 79, 0
10, 164550, Note_on_c, 10, 79, 110
10, 164570, Note_on_c, 10, 79, 0
10, 164580, Note_on_c, 10, 79, 110
10, 164600, Note_on_c, 10, 79, 0
10, 164610, Note_on_c, 10, 79, 110
10, 164630, Note_on_c, 10, 79, 0
10, 164640, Note_on_c, 10, 80, 110
10, 164660, Note_on_c, 10, 80, 0
10, 164670, Note_on_c, 10, 80, 110
10, 164690, Note_on_c, 10, 80, 0
10, 164700, Note_on_c, 10, 80, 110
10, 164720, Note_on_c, 10, 80, 0
10, 164730, Note_on_c, 10, 80, 110
10, 164750, Note_on_c, 10, 80, 0
10, 164760, Note_on_c, 10, 80, 110
10, 164780, Note_on_c, 10, 80, 0
10, 164790, Note_on_c, 10, 80, 110
10, 164810, Note_on_c, 10, 80, 0
10, 164820, Note_on_c, 10, 80, 110
10, 164840, Note_on_c, 10, 80, 0
10, 164850, Note_on_c, 10, 80, 110
10, 164870, Note_on_c, 10, 80, 0
10, 164880, Note_on_c, 10, 80, 110
10, 164900, Note_on_c, 10, 80, 0
10, 164910, Note_on_c, 10, 80, 110
10, 164930, Note_on_c, 10, 80, 0
10, 164940, Note_on_c, 10, 80, 110
10, 164960, Note_on_c, 10, 80, 0
10, 164970, Note_on_c, 10, 80, 110
10, 164990, Note_on_c, 10, 80, 0
10, 165000, Note_on_c, 10, 80, 110
10, 165020, Note_on_c, 10, 80, 0
10, 165030, Note_on_c, 10, 80, 110
10, 165050, Note_on_c, 10, 80, 0
10, 165060, Note_on_c, 10, 80, 110
10, 165080, Note_on_c, 10, 80, 0
10, 165090, Note_on_c, 10, 80, 110
10, 165110, Note_on_c, 10, 80, 0
10, 165120, Note_on_c, 10, 81, 110
10, 165120, Control_c, 10, 11, 102
10, 165140, Note_on_c, 10, 81, 0
10, 165150, Note_on_c, 10, 81, 110
10, 165170, Note_on_c, 10, 81, 0
10, 165180, Note_on_c, 10, 81, 110
10, 165200, Note_on_c, 10, 81, 0
10, 165210, Note_on_c, 10, 81, 110
10, 165230, Note_on_c, 10, 81, 0
10, 165240, Note_on_c, 10, 81, 110
10, 165260, Note_on_c, 10, 81, 0
10, 165270, Note_on_c, 10, 81, 110
10, 165290, Note_on_c, 10, 81, 0
10, 165300, Note_on_c, 10, 81, 110
10, 165320, Note_on_c, 10, 81, 0
10, 165330, Note_on_c, 10, 81, 110
10, 165350, Note_on_c, 10, 81, 0
10, 165360, Note_on_c, 10, 81, 110
10, 165380, Note_on_c, 10, 81, 0
10, 165390, Note_on_c, 10, 81, 110
10, 165410, Note_on_c, 10, 81, 0
10, 165420, Note_on_c, 10, 81, 110
10, 165440, Note_on_c, 10, 81, 0
10, 165450, Note_on_c, 10, 81, 110
10, 165470, Note_on_c, 10, 81, 0
10, 165480, Note_on_c, 10, 81, 110
10, 165500, Note_on_c, 10, 81, 0
10, 165510, Note_on_c, 10, 81, 110
10, 165530, Note_on_c, 10, 81, 0
10, 165540, Note_on_c, 10, 81, 110
10, 165560, Note_on_c, 10, 81, 0
10, 165570, Note_on_c, 10, 81, 110
10, 165590, Note_on_c, 10, 81, 0
10, 165600, Note_on_c, 10, 82, 110
10, 165620, Note_on_c, 10, 82, 0
10, 165630, Note_on_c, 10, 82, 110
10, 165650, Note_on_c, 10, 82, 0
10, 165660, Note_on_c, 10, 82, 110
10, 165680, Note_on_c, 10, 82, 0
10, 165690, Note_on_c, 10, 82, 110
10, 165710, Note_on_c, 10, 82, 0
10, 165720, Note_on_c, 10, 79, 110
10, 165740, Note_on_c, 10, 79, 0
10, 165750, Note_on_c, 10, 79, 110
10, 165770, Note_on_c, 10, 79, 0
10, 165780, Note_on_c, 10, 79, 110
10, 165800, Note_on_c, 10, 79, 0
10, 165810, Note_on_c, 10, 79, 110
10, 165830, Note_on_c, 10, 79, 0
10, 165840, Note_on_c, 10, 76, 110
10, 165860, Note_on_c, 10, 76, 0
10, 165870, Note_on_c, 10, 76, 110
10, 165890, Note_on_c, 10, 76, 0
10, 165900, Note_on_c, 10, 76, 110
10, 165920, Note_on_c, 10, 76, 0
10, 165930, Note_on_c, 10, 76, 110
10, 165950, Note_on_c, 10, 76, 0
10, 165960, Note_on_c, 10, 73, 110
10, 165980, Note_on_c, 10, 73, 0
10, 165990, Note_on_c, 10, 73, 110
10, 166010, Note_on_c, 10, 73, 0
10, 166020, Note_on_c, 10, 73, 110
10, 166040, Note_on_c, 10, 73, 0
10, 166050, Note_on_c, 10, 73, 110
10, 166070, Note_on_c, 10, 73, 0
10, 166080, Note_on_c, 10, 74, 110
10, 166100, Note_on_c, 10, 74, 0
10, 166110, Note_on_c, 10, 86, 110
10, 166130, Note_on_c, 10, 86, 0
10, 166140, Note_on_c, 10, 86, 110
10, 166160, Note_on_c, 10, 86, 0
10, 166170, Note_on_c, 10, 86, 110
10, 166190, Note_on_c, 10, 86, 0
10, 166200, Note_on_c, 10, 86, 110
10, 166220, Note_on_c, 10, 86, 0
10, 166230, Note_on_c, 10, 86, 110
10, 166250, Note_on_c, 10, 86, 0
10, 166260, Note_on_c, 10, 86, 110
10, 166280, Note_on_c, 10, 86, 0
10, 166290, Note_on_c, 10, 86, 110
10, 166310, Note_on_c, 10, 86, 0
10, 166320, Note_on_c, 10, 86, 110
10, 166340, Note_on_c, 10, 86, 0
10, 166350, Note_on_c, 10, 86, 110
10, 166370, Note_on_c, 10, 86, 0
10, 166380, Note_on_c, 10, 86, 110
10, 166400, Note_on_c, 10, 86, 0
10, 166410, Note_on_c, 10, 86, 110
10, 166430, Note_on_c, 10, 86, 0
10, 166440, Note_on_c, 10, 86, 110
10, 166460, Note_on_c, 10, 86, 0
10, 166470, Note_on_c, 10, 86, 110
10, 166490, Note_on_c, 10, 86, 0
10, 166500, Note_on_c, 10, 86, 110
10, 166520, Note_on_c, 10, 86, 0
10, 166530, Note_on_c, 10, 86, 110
10, 166550, Note_on_c, 10, 86, 0
10, 166560, Note_on_c, 10, 87, 110
10, 166580, Note_on_c, 10, 87, 0
10, 166590, Note_on_c, 10, 87, 110
10, 166610, Note_on_c, 10, 87, 0
10, 166620, Note_on_c, 10, 87, 110
10, 166640, Note_on_c, 10, 87, 0
10, 166650, Note_on_c, 10, 87, 110
10, 166670, Note_on_c, 10, 87, 0
10, 166680, Note_on_c, 10, 84, 110
10, 166700, Note_on_c, 10, 84, 0
10, 166710, Note_on_c, 10, 84, 110
10, 166730, Note_on_c, 10, 84, 0
10, 166740, Note_on_c, 10, 84, 110
10, 166760, Note_on_c, 10, 84, 0
10, 166770, Note_on_c, 10, 84, 110
10, 166790, Note_on_c, 10, 84, 0
10, 166800, Note_on_c, 10, 81, 110
10, 166820, Note_on_c, 10, 81, 0
10, 166830, Note_on_c, 10, 81, 110
10, 166850, Note_on_c, 10, 81, 0
10, 166860, Note_on_c, 10, 81, 110
10, 166880, Note_on_c, 10, 81, 0
10, 166890, Note_on_c, 10, 81, 110
10, 166910, Note_on_c, 10, 81, 0
10, 166920, Note_on_c, 10, 78, 110
10, 166940, Note_on_c, 10, 78, 0
10, 166950, Note_on_c, 10, 78, 110
10, 166970, Note_on_c, 10, 78, 0
10, 166980, Note_on_c, 10, 78, 110
10, 167000, Note_on_c, 10, 78, 0
10, 167010, Note_on_c, 10, 78, 110
10, 167030, Note_on_c, 10, 78, 0
10, 167040, Control_c, 10, 11, 122
10, 167040, Note_on_c, 10, 79, 110
10, 167057, Control_c, 10, 11, 119
10, 167060, Note_on_c, 10, 79, 0
10, 167070, Note_on_c, 10, 79, 110
10, 167075, Control_c, 10, 11, 116
10, 167090, Note_on_c, 10, 79, 0
10, 167093, Control_c, 10, 11, 113
10, 167100, Note_on_c, 10, 79, 110
10, 167111, Control_c, 10, 11, 110
10, 167120, Note_on_c, 10, 79, 0
10, 167129, Control_c, 10, 11, 107
10, 167130, Note_on_c, 10, 79, 110
10, 167147, Control_c, 10, 11, 104
10, 167150, Note_on_c, 10, 79, 0
10, 167160, Note_on_c, 10, 79, 110
10, 167180, Note_on_c, 10, 79, 0
10, 167190, Note_on_c, 10, 79, 110
10, 167210, Note_on_c, 10, 79, 0
10, 167220, Note_on_c, 10, 79, 110
10, 167240, Note_on_c, 10, 79, 0
10, 167250, Note_on_c, 10, 79, 110
10, 167270, Note_on_c, 10, 79, 0
10, 167280, Note_on_c, 10, 81, 110
10, 167280, Control_c, 10, 11, 122
10, 167297, Control_c, 10, 11, 119
10, 167300, Note_on_c, 10, 81, 0
10, 167310, Note_on_c, 10, 81, 110
10, 167315, Control_c, 10, 11, 116
10, 167330, Note_on_c, 10, 81, 0
10, 167333, Control_c, 10, 11, 113
10, 167340, Note_on_c, 10, 81, 110
10, 167351, Control_c, 10, 11, 110
10, 167360, Note_on_c, 10, 81, 0
10, 167369, Control_c, 10, 11, 107
10, 167370, Note_on_c, 10, 81, 110
10, 167387, Control_c, 10, 11, 104
10, 167390, Note_on_c, 10, 81, 0
10, 167400, Note_on_c, 10, 81, 110
10, 167420, Note_on_c, 10, 81, 0
10, 167430, Note_on_c, 10, 81, 110
10, 167450, Note_on_c, 10, 81, 0
10, 167460, Note_on_c, 10, 81, 110
10, 167480, Note_on_c, 10, 81, 0
10, 167490, Note_on_c, 10, 81, 110
10, 167510, Note_on_c, 10, 81, 0
10, 167520, Control_c, 10, 11, 122
10, 167520, Note_on_c, 10, 77, 110
10, 167537, Control_c, 10, 11, 119
10, 167540, Note_on_c, 10, 77, 0
10, 167550, Note_on_c, 10, 77, 110
10, 167555, Control_c, 10, 11, 116
10, 167570, Note_on_c, 10, 77, 0
10, 167573, Control_c, 10, 11, 113
10, 167580, Note_on_c, 10, 77, 110
10, 167591, Control_c, 10, 11, 110
10, 167600, Note_on_c, 10, 77, 0
10, 167609, Control_c, 10, 11, 107
10, 167610, Note_on_c, 10, 77, 110
10, 167627, Control_c, 10, 11, 104
10, 167630, Note_on_c, 10, 77, 0
10, 167640, Note_on_c, 10, 77, 110
10, 167660, Note_on_c, 10, 77, 0
10, 167670, Note_on_c, 10, 77, 110
10, 167690, Note_on_c, 10, 77, 0
10, 167700, Note_on_c, 10, 77, 110
10, 167720, Note_on_c, 10, 77, 0
10, 167730, Note_on_c, 10, 77, 110
10, 167750, Note_on_c, 10, 77, 0
10, 167760, Note_on_c, 10, 79, 110
10, 167760, Control_c, 10, 11, 122
10, 167777, Control_c, 10, 11, 119
10, 167780, Note_on_c, 10, 79, 0
10, 167790, Note_on_c, 10, 79, 110
10, 167795, Control_c, 10, 11, 116
10, 167810, Note_on_c, 10, 79, 0
10, 167813, Control_c, 10, 11, 113
10, 167820, Note_on_c, 10, 79, 110
10, 167831, Control_c, 10, 11, 110
10, 167840, Note_on_c, 10, 79, 0
10, 167849, Control_c, 10, 11, 107
10, 167850, Note_on_c, 10, 79, 110
10, 167867, Control_c, 10, 11, 104
10, 167870, Note_on_c, 10, 79, 0
10, 167880, Note_on_c, 10, 79, 110
10, 167900, Note_on_c, 10, 79, 0
10, 167910, Note_on_c, 10, 79, 110
10, 167930, Note_on_c, 10, 79, 0
10, 167940, Note_on_c, 10, 79, 110
10, 167960, Note_on_c, 10, 79, 0
10, 167970, Note_on_c, 10, 79, 110
10, 167990, Note_on_c, 10, 79, 0
10, 168000, Note_on_c, 10, 72, 110
10, 168120, Note_on_c, 10, 72, 0
10, 168360, Control_c, 10, 11, 47
10, 168360, Note_on_c, 10, 83, 110
10, 168480, Note_on_c, 10, 83, 0
10, 168480, Note_on_c, 10, 84, 125
10, 168660, Note_on_c, 10, 84, 0
10, 168660, Note_on_c, 10, 83, 110
10, 168690, Note_on_c, 10, 83, 0
10, 168690, Note_on_c, 10, 81, 110
10, 168710, Note_on_c, 10, 81, 0
10, 168720, Note_on_c, 10, 79, 110
10, 168780, Note_on_c, 10, 79, 0
10, 168840, Control_c, 10, 11, 70
10, 168840, Note_on_c, 10, 77, 110
10, 168846, Control_c, 10, 11, 73
10, 168852, Control_c, 10, 11, 76
10, 168858, Control_c, 10, 11, 79
10, 168872, Control_c, 10, 11, 76
10, 168881, Control_c, 10, 11, 73
10, 168890, Control_c, 10, 11, 70
10, 168899, Control_c, 10, 11, 67
10, 168908, Control_c, 10, 11, 64
10, 168917, Control_c, 10, 11, 61
10, 168926, Control_c, 10, 11, 58
10, 168935, Control_c, 10, 11, 55
10, 168944, Control_c, 10, 11, 52
10, 168953, Control_c, 10, 11, 49
10, 168960, Note_on_c, 10, 77, 0
10, 168960, Note_on_c, 10, 76, 95
10, 169080, Note_on_c, 10, 76, 0
10, 169320, Note_on_c, 10, 83, 110
10, 169440, Note_on_c, 10, 83, 0
10, 169440, Note_on_c, 10, 84, 125
10, 169620, Note_on_c, 10, 84, 0
10, 169620, Note_on_c, 10, 83, 110
10, 169650, Note_on_c, 10, 83, 0
10, 169650, Note_on_c, 10, 81, 110
10, 169670, Note_on_c, 10, 81, 0
10, 169680, Note_on_c, 10, 79, 110
10, 169740, Note_on_c, 10, 79, 0
10, 169800, Note_on_c, 10, 83, 110
10, 169800, Control_c, 10, 11, 70
10, 169806, Control_c, 10, 11, 73
10, 169812, Control_c, 10, 11, 76
10, 169818, Control_c, 10, 11, 79
10, 169832, Control_c, 10, 11, 76
10, 169841, Control_c, 10, 11, 73
10, 169850, Control_c, 10, 11, 70
10, 169859, Control_c, 10, 11, 67
10, 169868, Control_c, 10, 11, 64
10, 169877, Control_c, 10, 11, 61
10, 169886, Control_c, 10, 11, 58
10, 169895, Control_c, 10, 11, 55
10, 169904, Control_c, 10, 11, 52
10, 169913, Control_c, 10, 11, 49
10, 169920, Note_on_c, 10, 83, 0
10, 169920, Note_on_c, 10, 84, 125
10, 170100, Note_on_c, 10, 84, 0
10, 170100, Note_on_c, 10, 83, 110
10, 170130, Note_on_c, 10, 83, 0
10, 170130, Note_on_c, 10, 81, 110
10, 170150, Note_on_c, 10, 81, 0
10, 170160, Note_on_c, 10, 79, 110
10, 170220, Note_on_c, 10, 79, 0
10, 170280, Control_c, 10, 11, 70
10, 170280, Note_on_c, 10, 83, 110
10, 170288, Control_c, 10, 11, 73
10, 170297, Control_c, 10, 11, 76
10, 170306, Control_c, 10, 11, 79
10, 170312, Control_c, 10, 11, 76
10, 170321, Control_c, 10, 11, 73
10, 170330, Control_c, 10, 11, 70
10, 170339, Control_c, 10, 11, 67
10, 170348, Control_c, 10, 11, 64
10, 170357, Control_c, 10, 11, 61
10, 170366, Control_c, 10, 11, 58
10, 170375, Control_c, 10, 11, 55
10, 170384, Control_c, 10, 11, 52
10, 170393, Control_c, 10, 11, 49
10, 170400, Note_on_c, 10, 83, 0
10, 170400, Note_on_c, 10, 84, 125
10, 170580, Note_on_c, 10, 84, 0
10, 170580, Note_on_c, 10, 83, 110
10, 170610, Note_on_c, 10, 83, 0
10, 170610, Note_on_c, 10, 81, 110
10, 170630, Note_on_c, 10, 81, 0
10, 170640, Note_on_c, 10, 79, 110
10, 170700, Note_on_c, 10, 79, 0
10, 170760, Control_c, 10, 11, 122
10, 170760, Note_on_c, 10, 67, 110
10, 170770, Note_on_c, 10, 74, 110
10, 170770, Note_on_c, 10, 83, 110
10, 170820, Note_on_c, 10, 67, 0
10, 170830, Note_on_c, 10, 83, 0
10, 170830, Note_on_c, 10, 74, 0
10, 170880, Note_on_c, 10, 67, 90
10, 170890, Note_on_c, 10, 76, 90
10, 170890, Note_on_c, 10, 84, 90
10, 171000, Note_on_c, 10, 67, 0
10, 171010, Note_on_c, 10, 84, 0
10, 171010, Note_on_c, 10, 76, 0
10, 171720, Note_on_c, 10, 67, 95
10, 171720, Control_c, 10, 11, 47
10, 171810, Note_on_c, 10, 67, 0
10, 171810, Note_on_c, 10, 71, 95
10, 171830, Note_on_c, 10, 71, 0
10, 171840, Note_on_c, 10, 72, 95
10, 171870, Note_on_c, 10, 72, 0
10, 171900, Note_on_c, 10, 72, 95
10, 171930, Note_on_c, 10, 72, 0
10, 171960, Note_on_c, 10, 67, 95
10, 171990, Note_on_c, 10, 67, 0
10, 172020, Note_on_c, 10, 71, 95
10, 172050, Note_on_c, 10, 71, 0
10, 172080, Note_on_c, 10, 72, 95
10, 172110, Note_on_c, 10, 72, 0
10, 172140, Note_on_c, 10, 72, 95
10, 172170, Note_on_c, 10, 72, 0
10, 172200, Note_on_c, 10, 67, 95
10, 172230, Note_on_c, 10, 67, 0
10, 172260, Note_on_c, 10, 71, 95
10, 172290, Note_on_c, 10, 71, 0
10, 172320, Note_on_c, 10, 72, 95
10, 172350, Note_on_c, 10, 72, 0
10, 172380, Note_on_c, 10, 72, 95
10, 172410, Note_on_c, 10, 72, 0
10, 172440, Note_on_c, 10, 67, 95
10, 172470, Note_on_c, 10, 67, 0
10, 172500, Note_on_c, 10, 71, 95
10, 172530, Note_on_c, 10, 71, 0
10, 172560, Note_on_c, 10, 72, 95
10, 172590, Note_on_c, 10, 72, 0
10, 172620, Note_on_c, 10, 72, 95
10, 172680, Note_on_c, 10, 72, 0
10, 172680, Note_on_c, 10, 74, 95
10, 172740, Note_on_c, 10, 74, 0
10, 172740, Note_on_c, 10, 76, 95
10, 172790, Note_on_c, 10, 76, 0
10, 172800, Note_on_c, 10, 77, 95
10, 172920, Note_on_c, 10, 77, 0
10, 173640, Note_on_c, 10, 76, 95
10, 173730, Note_on_c, 10, 76, 0
10, 173730, Note_on_c, 10, 80, 95
10, 173750, Note_on_c, 10, 80, 0
10, 173760, Note_on_c, 10, 81, 95
10, 173790, Note_on_c, 10, 81, 0
10, 173820, Note_on_c, 10, 81, 95
10, 173850, Note_on_c, 10, 81, 0
10, 173880, Note_on_c, 10, 76, 95
10, 173910, Note_on_c, 10, 76, 0
10, 173940, Note_on_c, 10, 80, 95
10, 173970, Note_on_c, 10, 80, 0
10, 174000, Note_on_c, 10, 81, 95
10, 174030, Note_on_c, 10, 81, 0
10, 174060, Note_on_c, 10, 81, 95
10, 174090, Note_on_c, 10, 81, 0
10, 174120, Note_on_c, 10, 76, 95
10, 174150, Note_on_c, 10, 76, 0
10, 174180, Note_on_c, 10, 80, 95
10, 174210, Note_on_c, 10, 80, 0
10, 174240, Note_on_c, 10, 81, 95
10, 174270, Note_on_c, 10, 81, 0
10, 174300, Note_on_c, 10, 81, 95
10, 174330, Note_on_c, 10, 81, 0
10, 174360, Note_on_c, 10, 76, 95
10, 174390, Note_on_c, 10, 76, 0
10, 174420, Note_on_c, 10, 80, 95
10, 174450, Note_on_c, 10, 80, 0
10, 174480, Note_on_c, 10, 81, 95
10, 174510, Note_on_c, 10, 81, 0
10, 174540, Note_on_c, 10, 81, 95
10, 174600, Note_on_c, 10, 81, 0
10, 174600, Note_on_c, 10, 83, 95
10, 174660, Note_on_c, 10, 83, 0
10, 174660, Note_on_c, 10, 85, 95
10, 174710, Note_on_c, 10, 85, 0
10, 174720, Note_on_c, 10, 86, 95
10, 174840, Note_on_c, 10, 86, 0
10, 175560, Note_on_c, 10, 74, 110
10, 175560, Control_c, 10, 11, 47
10, 175584, Control_c, 10, 11, 48
10, 175608, Control_c, 10, 11, 49
10, 175632, Control_c, 10, 11, 50
10, 175650, Note_on_c, 10, 74, 0
10, 175650, Note_on_c, 10, 78, 110
10, 175656, Control_c, 10, 11, 51
10, 175670, Note_on_c, 10, 78, 0
10, 175680, Note_on_c, 10, 79, 110
10, 175680, Control_c, 10, 11, 52
10, 175704, Control_c, 10, 11, 53
10, 175710, Note_on_c, 10, 79, 0
10, 175728, Control_c, 10, 11, 54
10, 175740, Note_on_c, 10, 79, 110
10, 175752, Control_c, 10, 11, 55
10, 175770, Note_on_c, 10, 79, 0
10, 175776, Control_c, 10, 11, 56
10, 175800, Note_on_c, 10, 74, 110
10, 175800, Control_c, 10, 11, 57
10, 175824, Control_c, 10, 11, 58
10, 175830, Note_on_c, 10, 74, 0
10, 175848, Control_c, 10, 11, 59
10, 175860, Note_on_c, 10, 78, 110
10, 175872, Control_c, 10, 11, 60
10, 175890, Note_on_c, 10, 78, 0
10, 175896, Control_c, 10, 11, 61
10, 175920, Note_on_c, 10, 79, 110
10, 175920, Control_c, 10, 11, 62
10, 175944, Control_c, 10, 11, 63
10, 175950, Note_on_c, 10, 79, 0
10, 175968, Control_c, 10, 11, 64
10, 175980, Note_on_c, 10, 79, 110
10, 175992, Control_c, 10, 11, 65
10, 176010, Note_on_c, 10, 79, 0
10, 176016, Control_c, 10, 11, 66
10, 176040, Control_c, 10, 11, 67
10, 176040, Note_on_c, 10, 74, 110
10, 176064, Control_c, 10, 11, 68
10, 176070, Note_on_c, 10, 74, 0
10, 176088, Control_c, 10, 11, 69
10, 176100, Note_on_c, 10, 78, 110
10, 176112, Control_c, 10, 11, 70
10, 176130, Note_on_c, 10, 78, 0
10, 176136, Control_c, 10, 11, 71
10, 176160, Control_c, 10, 11, 72
10, 176160, Note_on_c, 10, 79, 110
10, 176176, Control_c, 10, 11, 73
10, 176190, Note_on_c, 10, 79, 0
10, 176192, Control_c, 10, 11, 74
10, 176208, Control_c, 10, 11, 75
10, 176220, Note_on_c, 10, 79, 110
10, 176224, Control_c, 10, 11, 76
10, 176240, Control_c, 10, 11, 77
10, 176250, Note_on_c, 10, 79, 0
10, 176256, Control_c, 10, 11, 78
10, 176272, Control_c, 10, 11, 79
10, 176280, Note_on_c, 10, 74, 110
10, 176288, Control_c, 10, 11, 80
10, 176304, Control_c, 10, 11, 81
10, 176310, Note_on_c, 10, 74, 0
10, 176320, Control_c, 10, 11, 82
10, 176336, Control_c, 10, 11, 83
10, 176340, Note_on_c, 10, 78, 110
10, 176352, Control_c, 10, 11, 84
10, 176368, Control_c, 10, 11, 85
10, 176370, Note_on_c, 10, 78, 0
10, 176384, Control_c, 10, 11, 86
10, 176400, Control_c, 10, 11, 87
10, 176400, Note_on_c, 10, 79, 110
10, 176416, Control_c, 10, 11, 88
10, 176430, Note_on_c, 10, 79, 0
10, 176432, Control_c, 10, 11, 89
10, 176448, Control_c, 10, 11, 90
10, 176460, Note_on_c, 10, 79, 110
10, 176464, Control_c, 10, 11, 91
10, 176480, Control_c, 10, 11, 92
10, 176496, Control_c, 10, 11, 93
10, 176512, Control_c, 10, 11, 94
10, 176520, Note_on_c, 10, 79, 0
10, 176520, Note_on_c, 10, 81, 110
10, 176528, Control_c, 10, 11, 95
10, 176544, Control_c, 10, 11, 96
10, 176560, Control_c, 10, 11, 97
10, 176576, Control_c, 10, 11, 98
10, 176580, Note_on_c, 10, 81, 0
10, 176580, Note_on_c, 10, 83, 110
10, 176592, Control_c, 10, 11, 99
10, 176608, Control_c, 10, 11, 100
10, 176624, Control_c, 10, 11, 101
10, 176630, Note_on_c, 10, 83, 0
10, 176640, Control_c, 10, 11, 102
10, 176640, Note_on_c, 10, 84, 110
10, 176700, Note_on_c, 10, 84, 0
10, 176880, Note_on_c, 10, 65, 110
10, 176890, Note_on_c, 10, 81, 110
10, 176890, Note_on_c, 10, 72, 110
10, 176940, Note_on_c, 10, 65, 0
10, 176950, Note_on_c, 10, 72, 0
10, 176950, Note_on_c, 10, 81, 0
10, 177120, Note_on_c, 10, 64, 110
10, 177130, Note_on_c, 10, 79, 110
10, 177130, Note_on_c, 10, 72, 110
10, 177180, Note_on_c, 10, 64, 0
10, 177190, Note_on_c, 10, 72, 0
10, 177190, Note_on_c, 10, 79, 0
10, 177360, Note_on_c, 10, 62, 110
10, 177370, Note_on_c, 10, 71, 110
10, 177370, Note_on_c, 10, 77, 110
10, 177420, Note_on_c, 10, 62, 0
10, 177430, Note_on_c, 10, 77, 0
10, 177430, Note_on_c, 10, 71, 0
10, 177600, Note_on_c, 10, 72, 110
10, 177600, Note_on_c, 10, 76, 110
10, 177660, Note_on_c, 10, 76, 0
10, 177660, Note_on_c, 10, 72, 0
10, 177840, Note_on_c, 10, 65, 110
10, 177850, Note_on_c, 10, 72, 110
10, 177850, Note_on_c, 10, 81, 110
10, 177900, Note_on_c, 10, 65, 0
10, 177910, Note_on_c, 10, 81, 0
10, 177910, Note_on_c, 10, 72, 0
10, 178080, Note_on_c, 10, 64, 110
10, 178090, Note_on_c, 10, 72, 110
10, 178090, Note_on_c, 10, 79, 110
10, 178140, Note_on_c, 10, 64, 0
10, 178150, Note_on_c, 10, 79, 0
10, 178150, Note_on_c, 10, 72, 0
10, 178320, Note_on_c, 10, 62, 110
10, 178330, Note_on_c, 10, 77, 110
10, 178330, Note_on_c, 10, 71, 110
10, 178380, Note_on_c, 10, 62, 0
10, 178390, Note_on_c, 10, 71, 0
10, 178390, Note_on_c, 10, 77, 0
10, 178560, Note_on_c, 10, 76, 110
10, 178560, Note_on_c, 10, 72, 110
10, 178620, Note_on_c, 10, 72, 0
10, 178620, Note_on_c, 10, 76, 0
10, 178800, Note_on_c, 10, 65, 110
10, 178810, Note_on_c, 10, 72, 110
10, 178810, Note_on_c, 10, 81, 110
10, 178860, Note_on_c, 10, 65, 0
10, 178870, Note_on_c, 10, 81, 0
10, 178870, Note_on_c, 10, 72, 0
10, 179040, Note_on_c, 10, 64, 110
10, 179050, Note_on_c, 10, 72, 110
10, 179050, Note_on_c, 10, 79, 110
10, 179100, Note_on_c, 10, 64, 0
10, 179110, Note_on_c, 10, 79, 0
10, 179110, Note_on_c, 10, 72, 0
10, 179280, Note_on_c, 10, 67, 110
10, 179290, Note_on_c, 10, 83, 110
10, 179290, Note_on_c, 10, 74, 110
10, 179340, Note_on_c, 10, 67, 0
10, 179350, Note_on_c, 10, 74, 0
10, 179350, Note_on_c, 10, 83, 0
10, 179520, Note_on_c, 10, 67, 110
10, 179530, Note_on_c, 10, 76, 110
10, 179530, Note_on_c, 10, 84, 110
10, 179580, Note_on_c, 10, 67, 0
10, 179590, Note_on_c, 10, 84, 0
10, 179590, Note_on_c, 10, 76, 0
10, 179880, Note_on_c, 10, 55, 125
10, 179970, Note_on_c, 10, 55, 0
10, 179970, Note_on_c, 10, 59, 125
10, 179990, Note_on_c, 10, 59, 0
10, 180000, Note_on_c, 10, 60, 125
10, 180030, Note_on_c, 10, 60, 0
10, 180060, Note_on_c, 10, 60, 125
10, 180090, Note_on_c, 10, 60, 0
10, 180120, Note_on_c, 10, 55, 125
10, 180150, Note_on_c, 10, 55, 0
10, 180180, Note_on_c, 10, 59, 125
10, 180210, Note_on_c, 10, 59, 0
10, 180240, Note_on_c, 10, 60, 125
10, 180270, Note_on_c, 10, 60, 0
10, 180300, Note_on_c, 10, 60, 125
10, 180330, Note_on_c, 10, 60, 0
10, 180360, Note_on_c, 10, 55, 125
10, 180390, Note_on_c, 10, 55, 0
10, 180420, Note_on_c, 10, 59, 125
10, 180450, Note_on_c, 10, 59, 0
10, 180480, Note_on_c, 10, 60, 125
10, 180600, Note_on_c, 10, 60, 0
10, 180960, Note_on_c, 10, 72, 110
10, 181020, Note_on_c, 10, 72, 0
10, 181080, Note_on_c, 10, 72, 110
10, 181140, Note_on_c, 10, 72, 0
10, 181200, Note_on_c, 10, 76, 110
10, 181260, Note_on_c, 10, 76, 0
10, 181320, Note_on_c, 10, 79, 110
10, 181380, Note_on_c, 10, 79, 0
10, 181440, Note_on_c, 10, 84, 110
10, 181440, Control_c, 10, 11, 122
10, 181458, Control_c, 10, 11, 119
10, 181476, Control_c, 10, 11, 116
10, 181494, Control_c, 10, 11, 113
10, 181512, Control_c, 10, 11, 110
10, 181530, Control_c, 10, 11, 107
10, 181548, Control_c, 10, 11, 104
10, 181560, Note_on_c, 10, 84, 0
10, 181800, Note_on_c, 10, 55, 125
10, 181890, Note_on_c, 10, 55, 0
10, 181890, Note_on_c, 10, 59, 125
10, 181910, Note_on_c, 10, 59, 0
10, 181920, Note_on_c, 10, 60, 125
10, 181950, Note_on_c, 10, 60, 0
10, 181980, Note_on_c, 10, 60, 125
10, 182010, Note_on_c, 10, 60, 0
10, 182040, Note_on_c, 10, 55, 125
10, 182070, Note_on_c, 10, 55, 0
10, 182100, Note_on_c, 10, 59, 125
10, 182130, Note_on_c, 10, 59, 0
10, 182160, Note_on_c, 10, 60, 125
10, 182190, Note_on_c, 10, 60, 0
10, 182220, Note_on_c, 10, 60, 125
10, 182250, Note_on_c, 10, 60, 0
10, 182280, Note_on_c, 10, 55, 125
10, 182310, Note_on_c, 10, 55, 0
10, 182340, Note_on_c, 10, 59, 125
10, 182370, Note_on_c, 10, 59, 0
10, 182400, Note_on_c, 10, 60, 125
10, 182520, Note_on_c, 10, 60, 0
10, 182880, Note_on_c, 10, 76, 110
10, 182940, Note_on_c, 10, 76, 0
10, 183000, Note_on_c, 10, 76, 110
10, 183060, Note_on_c, 10, 76, 0
10, 183120, Note_on_c, 10, 79, 110
10, 183180, Note_on_c, 10, 79, 0
10, 183240, Note_on_c, 10, 84, 110
10, 183300, Note_on_c, 10, 84, 0
10, 183360, Note_on_c, 10, 88, 110
10, 183360, Control_c, 10, 11, 122
10, 183378, Control_c, 10, 11, 119
10, 183396, Control_c, 10, 11, 116
10, 183414, Control_c, 10, 11, 113
10, 183432, Control_c, 10, 11, 110
10, 183450, Control_c, 10, 11, 107
10, 183468, Control_c, 10, 11, 104
10, 183480, Note_on_c, 10, 88, 0
10, 183720, Note_on_c, 10, 55, 125
10, 183810, Note_on_c, 10, 55, 0
10, 183810, Note_on_c, 10, 59, 125
10, 183830, Note_on_c, 10, 59, 0
10, 183840, Note_on_c, 10, 60, 125
10, 183870, Note_on_c, 10, 60, 0
10, 183900, Note_on_c, 10, 60, 125
10, 183930, Note_on_c, 10, 60, 0
10, 183960, Note_on_c, 10, 55, 125
10, 183990, Note_on_c, 10, 55, 0
10, 184020, Note_on_c, 10, 59, 125
10, 184050, Note_on_c, 10, 59, 0
10, 184080, Note_on_c, 10, 60, 125
10, 184110, Note_on_c, 10, 60, 0
10, 184140, Note_on_c, 10, 60, 125
10, 184170, Note_on_c, 10, 60, 0
10, 184200, Note_on_c, 10, 55, 125
10, 184230, Note_on_c, 10, 55, 0
10, 184260, Note_on_c, 10, 59, 125
10, 184290, Note_on_c, 10, 59, 0
10, 184320, Note_on_c, 10, 60, 125
10, 184440, Note_on_c, 10, 60, 0
10, 184800, Note_on_c, 10, 76, 110
10, 184860, Note_on_c, 10, 76, 0
10, 184920, Note_on_c, 10, 79, 110
10, 184980, Note_on_c, 10, 79, 0
10, 185040, Note_on_c, 10, 84, 110
10, 185100, Note_on_c, 10, 84, 0
10, 185160, Note_on_c, 10, 88, 110
10, 185220, Note_on_c, 10, 88, 0
10, 185280, Note_on_c, 10, 91, 110
10, 185300, Note_on_c, 10, 91, 0
10, 185310, Note_on_c, 10, 91, 110
10, 185330, Note_on_c, 10, 91, 0
10, 185340, Note_on_c, 10, 91, 110
10, 185360, Note_on_c, 10, 91, 0
10, 185370, Note_on_c, 10, 91, 110
10, 185390, Note_on_c, 10, 91, 0
10, 185400, Note_on_c, 10, 88, 110
10, 185420, Note_on_c, 10, 88, 0
10, 185430, Note_on_c, 10, 88, 110
10, 185450, Note_on_c, 10, 88, 0
10, 185460, Note_on_c, 10, 88, 110
10, 185480, Note_on_c, 10, 88, 0
10, 185490, Note_on_c, 10, 88, 110
10, 185510, Note_on_c, 10, 88, 0
10, 185520, Note_on_c, 10, 84, 110
10, 185540, Note_on_c, 10, 84, 0
10, 185550, Note_on_c, 10, 84, 110
10, 185570, Note_on_c, 10, 84, 0
10, 185580, Note_on_c, 10, 84, 110
10, 185600, Note_on_c, 10, 84, 0
10, 185610, Note_on_c, 10, 84, 110
10, 185630, Note_on_c, 10, 84, 0
10, 185640, Note_on_c, 10, 79, 110
10, 185660, Note_on_c, 10, 79, 0
10, 185670, Note_on_c, 10, 79, 110
10, 185690, Note_on_c, 10, 79, 0
10, 185700, Note_on_c, 10, 79, 110
10, 185720, Note_on_c, 10, 79, 0
10, 185730, Note_on_c, 10, 79, 110
10, 185750, Note_on_c, 10, 79, 0
10, 185760, Note_on_c, 10, 88, 110
10, 185780, Note_on_c, 10, 88, 0
10, 185790, Note_on_c, 10, 88, 110
10, 185810, Note_on_c, 10, 88, 0
10, 185820, Note_on_c, 10, 88, 110
10, 185840, Note_on_c, 10, 88, 0
10, 185850, Note_on_c, 10, 88, 110
10, 185870, Note_on_c, 10, 88, 0
10, 185880, Note_on_c, 10, 84, 110
10, 185900, Note_on_c, 10, 84, 0
10, 185910, Note_on_c, 10, 84, 110
10, 185930, Note_on_c, 10, 84, 0
10, 185940, Note_on_c, 10, 84, 110
10, 185960, Note_on_c, 10, 84, 0
10, 185970, Note_on_c, 10, 84, 110
10, 185990, Note_on_c, 10, 84, 0
10, 186000, Note_on_c, 10, 79, 110
10, 186020, Note_on_c, 10, 79, 0
10, 186030, Note_on_c, 10, 79, 110
10, 186050, Note_on_c, 10, 79, 0
10, 186060, Note_on_c, 10, 79, 110
10, 186080, Note_on_c, 10, 79, 0
10, 186090, Note_on_c, 10, 79, 110
10, 186110, Note_on_c, 10, 79, 0
10, 186120, Note_on_c, 10, 76, 110
10, 186140, Note_on_c, 10, 76, 0
10, 186150, Note_on_c, 10, 76, 110
10, 186170, Note_on_c, 10, 76, 0
10, 186180, Note_on_c, 10, 76, 110
10, 186200, Note_on_c, 10, 76, 0
10, 186210, Note_on_c, 10, 76, 110
10, 186230, Note_on_c, 10, 76, 0
10, 186240, Note_on_c, 10, 84, 110
10, 186260, Note_on_c, 10, 84, 0
10, 186270, Note_on_c, 10, 84, 110
10, 186290, Note_on_c, 10, 84, 0
10, 186300, Note_on_c, 10, 84, 110
10, 186320, Note_on_c, 10, 84, 0
10, 186330, Note_on_c, 10, 84, 110
10, 186350, Note_on_c, 10, 84, 0
10, 186360, Note_on_c, 10, 79, 110
10, 186380, Note_on_c, 10, 79, 0
10, 186390, Note_on_c, 10, 79, 110
10, 186410, Note_on_c, 10, 79, 0
10, 186420, Note_on_c, 10, 79, 110
10, 186440, Note_on_c, 10, 79, 0
10, 186450, Note_on_c, 10, 79, 110
10, 186470, Note_on_c, 10, 79, 0
10, 186480, Note_on_c, 10, 76, 110
10, 186500, Note_on_c, 10, 76, 0
10, 186510, Note_on_c, 10, 76, 110
10, 186530, Note_on_c, 10, 76, 0
10, 186540, Note_on_c, 10, 76, 110
10, 186560, Note_on_c, 10, 76, 0
10, 186570, Note_on_c, 10, 76, 110
10, 186590, Note_on_c, 10, 76, 0
10, 186600, Note_on_c, 10, 72, 110
10, 186620, Note_on_c, 10, 72, 0
10, 186630, Note_on_c, 10, 72, 110
10, 186650, Note_on_c, 10, 72, 0
10, 186660, Note_on_c, 10, 72, 110
10, 186680, Note_on_c, 10, 72, 0
10, 186690, Note_on_c, 10, 72, 110
10, 186710, Note_on_c, 10, 72, 0
10, 186720, Note_on_c, 10, 67, 110
10, 186740, Note_on_c, 10, 67, 0
10, 186750, Note_on_c, 10, 67, 110
10, 186770, Note_on_c, 10, 67, 0
10, 186780, Note_on_c, 10, 67, 110
10, 186800, Note_on_c, 10, 67, 0
10, 186810, Note_on_c, 10, 67, 110
10, 186830, Note_on_c, 10, 67, 0
10, 186840, Note_on_c, 10, 72, 110
10, 186860, Note_on_c, 10, 72, 0
10, 186870, Note_on_c, 10, 72, 110
10, 186890, Note_on_c, 10, 72, 0
10, 186900, Note_on_c, 10, 72, 110
10, 186920, Note_on_c, 10, 72, 0
10, 186930, Note_on_c, 10, 72, 110
10, 186950, Note_on_c, 10, 72, 0
10, 186960, Note_on_c, 10, 67, 110
10, 186980, Note_on_c, 10, 67, 0
10, 186990, Note_on_c, 10, 67, 110
10, 187010, Note_on_c, 10, 67, 0
10, 187020, Note_on_c, 10, 67, 110
10, 187040, Note_on_c, 10, 67, 0
10, 187050, Note_on_c, 10, 67, 110
10, 187070, Note_on_c, 10, 67, 0
10, 187080, Note_on_c, 10, 64, 110
10, 187100, Note_on_c, 10, 64, 0
10, 187110, Note_on_c, 10, 64, 110
10, 187130, Note_on_c, 10, 64, 0
10, 187140, Note_on_c, 10, 64, 110
10, 187160, Note_on_c, 10, 64, 0
10, 187170, Note_on_c, 10, 64, 110
10, 187190, Note_on_c, 10, 64, 0
10, 187200, Note_on_c, 10, 60, 125
10, 187320, Note_on_c, 10, 60, 0
10, 187680, Note_on_c, 10, 67, 110
10, 187690, Note_on_c, 10, 76, 110
10, 187690, Note_on_c, 10, 84, 110
10, 187800, Note_on_c, 10, 67, 0
10, 187810, Note_on_c, 10, 84, 0
10, 187810, Note_on_c, 10, 76, 0
10, 188160, Note_on_c, 10, 55, 110
10, 188170, Note_on_c, 10, 72, 110
10, 188170, Note_on_c, 10, 64, 110
10, 188280, Note_on_c, 10, 55, 0
10, 188290, Note_on_c, 10, 64, 0
10, 188290, Note_on_c, 10, 72, 0
10, 188640, Note_on_c, 10, 55, 110
10, 188640, Control_c, 10, 11, 112
10, 188650, Note_on_c, 10, 72, 110
10, 188650, Note_on_c, 10, 64, 110
10, 188652, Control_c, 10, 11, 109
10, 188664, Control_c, 10, 11, 106
10, 188676, Control_c, 10, 11, 103
10, 188760, Note_on_c, 10, 55, 0
10, 188770, Note_on_c, 10, 64, 0
10, 188770, Note_on_c, 10, 72, 0
10, 188880, Control_c, 10, 11, 112
10, 188880, Note_on_c, 10, 55, 110
10, 188890, Note_on_c, 10, 72, 110
10, 188890, Note_on_c, 10, 64, 110
10, 188892, Control_c, 10, 11, 109
10, 188904, Control_c, 10, 11, 106
10, 188916, Control_c, 10, 11, 103
10, 189000, Note_on_c, 10, 55, 0
10, 189010, Note_on_c, 10, 64, 0
10, 189010, Note_on_c, 10, 72, 0
10, 189120, Note_on_c, 10, 55, 110
10, 189120, Control_c, 10, 11, 112
10, 189130, Note_on_c, 10, 64, 110
10, 189130, Note_on_c, 10, 72, 110
10, 189132, Control_c, 10, 11, 109
10, 189144, Control_c, 10, 11, 106
10, 189156, Control_c, 10, 11, 103
10, 189220, Control_c, 10, 11, 102
10, 189222, Control_c, 10, 11, 98
10, 189224, Control_c, 10, 11, 94
10, 189226, Control_c, 10, 11, 90
10, 189228, Control_c, 10, 11, 87
10, 189230, Control_c, 10, 11, 83
10, 189232, Control_c, 10, 11, 79
10, 189234, Control_c, 10, 11, 76
10, 189236, Control_c, 10, 11, 72
10, 189238, Control_c, 10, 11, 68
10, 189240, Note_on_c, 10, 55, 0
10, 189250, Note_on_c, 10, 72, 0
10, 189250, Note_on_c, 10, 64, 0
10, 189600, Control_c, 10, 121, 0
10, 189600, End_track
11, 0, Start_track
11, 0, MIDI_port, 0
11, 0, Title_t, "Violine II"
11, 0, Program_c, 11, 48
11, 0, Control_c, 11, 10, 90
11, 3, Control_c, 11, 121, 0
11, 8, Program_c, 11, 45
11, 13, Pitch_bend_c, 11, 7942
11, 18, Control_c, 11, 11, 100
11, 23, Control_c, 11, 7, 127
11, 28, Control_c, 11, 91, 32
11, 33, Control_c, 11, 93, 0
11, 38, Control_c, 11, 10, 90
11, 43, Control_c, 11, 1, 36
11, 487, Note_on_c, 11, 64, 50
11, 488, Note_on_c, 11, 55, 50
11, 607, Note_on_c, 11, 64, 0
11, 608, Note_on_c, 11, 55, 0
11, 723, Note_on_c, 11, 57, 28
11, 727, Note_on_c, 11, 65, 28
11, 843, Note_on_c, 11, 57, 0
11, 847, Note_on_c, 11, 65, 0
11, 963, Note_on_c, 11, 55, 50
11, 965, Note_on_c, 11, 65, 50
11, 967, Note_on_c, 11, 71, 50
11, 1083, Note_on_c, 11, 55, 0
11, 1085, Note_on_c, 11, 65, 0
11, 1087, Note_on_c, 11, 71, 0
11, 1203, Note_on_c, 11, 57, 28
11, 1205, Note_on_c, 11, 64, 28
11, 1207, Note_on_c, 11, 72, 28
11, 1323, Note_on_c, 11, 57, 0
11, 1325, Note_on_c, 11, 64, 0
11, 1327, Note_on_c, 11, 72, 0
11, 1443, Note_on_c, 11, 62, 37
11, 1445, Note_on_c, 11, 72, 37
11, 1563, Note_on_c, 11, 62, 0
11, 1565, Note_on_c, 11, 72, 0
11, 1683, Note_on_c, 11, 62, 50
11, 1685, Note_on_c, 11, 72, 50
11, 1803, Note_on_c, 11, 62, 0
11, 1803, Note_on_c, 11, 62, 68
11, 1805, Note_on_c, 11, 72, 0
11, 1805, Note_on_c, 11, 72, 68
11, 1922, Program_c, 11, 48
11, 1923, Note_on_c, 11, 62, 0
11, 1923, Note_on_c, 11, 71, 110
11, 1923, Control_c, 11, 11, 57
11, 1923, Note_on_c, 11, 62, 110
11, 1923, Note_on_c, 11, 55, 110
11, 1925, Note_on_c, 11, 72, 0
11, 1925, Control_c, 11, 11, 61
11, 1927, Control_c, 11, 11, 65
11, 1929, Control_c, 11, 11, 69
11, 1931, Control_c, 11, 11, 73
11, 1933, Control_c, 11, 11, 77
11, 1935, Control_c, 11, 11, 81
11, 1937, Control_c, 11, 11, 85
11, 2043, Note_on_c, 11, 71, 0
11, 2043, Note_on_c, 11, 62, 0
11, 2043, Note_on_c, 11, 55, 0
11, 2103, Note_on_c, 11, 68, 110
11, 2103, Control_c, 11, 11, 32
11, 2115, Control_c, 11, 11, 35
11, 2127, Control_c, 11, 11, 38
11, 2139, Control_c, 11, 11, 41
11, 2151, Control_c, 11, 11, 44
11, 2163, Note_on_c, 11, 68, 0
11, 2163, Control_c, 11, 11, 47
11, 2163, Note_on_c, 11, 69, 110
11, 2223, Note_on_c, 11, 69, 0
11, 2223, Note_on_c, 11, 65, 110
11, 2283, Note_on_c, 11, 65, 0
11, 2283, Note_on_c, 11, 62, 110
11, 2343, Note_on_c, 11, 62, 0
11, 2343, Note_on_c, 11, 60, 110
11, 2398, Note_on_c, 11, 60, 0
11, 2403, Note_on_c, 11, 59, 110
11, 2403, Control_c, 11, 11, 37
11, 2409, Control_c, 11, 11, 40
11, 2415, Control_c, 11, 11, 43
11, 2421, Control_c, 11, 11, 46
11, 2427, Control_c, 11, 11, 49
11, 2433, Control_c, 11, 11, 52
11, 2450, Control_c, 11, 11, 53
11, 2474, Control_c, 11, 11, 51
11, 2493, Note_on_c, 11, 59, 0
11, 2493, Note_on_c, 11, 62, 110
11, 2498, Control_c, 11, 11, 49
11, 2508, Note_on_c, 11, 62, 0
11, 2508, Note_on_c, 11, 60, 110
11, 2513, Note_on_c, 11, 60, 0
11, 2522, Control_c, 11, 11, 47
11, 2523, Note_on_c, 11, 59, 110
11, 2643, Control_c, 11, 11, 47
11, 2658, Control_c, 11, 11, 49
11, 2668, Note_on_c, 11, 59, 0
11, 2673, Note_on_c, 11, 60, 110
11, 2674, Control_c, 11, 11, 51
11, 2690, Control_c, 11, 11, 53
11, 2703, Note_on_c, 11, 60, 0
11, 2703, Note_on_c, 11, 62, 110
11, 2706, Control_c, 11, 11, 55
11, 2722, Control_c, 11, 11, 57
11, 2733, Note_on_c, 11, 62, 0
11, 2733, Note_on_c, 11, 64, 110
11, 2738, Control_c, 11, 11, 59
11, 2754, Control_c, 11, 11, 61
11, 2763, Note_on_c, 11, 64, 0
11, 2763, Note_on_c, 11, 65, 110
11, 2770, Control_c, 11, 11, 61
11, 2786, Control_c, 11, 11, 59
11, 2793, Note_on_c, 11, 65, 0
11, 2793, Note_on_c, 11, 62, 110
11, 2802, Control_c, 11, 11, 57
11, 2818, Control_c, 11, 11, 55
11, 2823, Note_on_c, 11, 62, 0
11, 2823, Note_on_c, 11, 60, 110
11, 2834, Control_c, 11, 11, 53
11, 2850, Control_c, 11, 11, 51
11, 2853, Note_on_c, 11, 60, 0
11, 2853, Note_on_c, 11, 59, 110
11, 2866, Control_c, 11, 11, 49
11, 2878, Note_on_c, 11, 59, 0
11, 2882, Control_c, 11, 11, 47
11, 2883, Note_on_c, 11, 62, 110
11, 2883, Control_c, 11, 11, 37
11, 2891, Control_c, 11, 11, 40
11, 2900, Control_c, 11, 11, 43
11, 2909, Control_c, 11, 11, 46
11, 2918, Control_c, 11, 11, 49
11, 2927, Control_c, 11, 11, 52
11, 2942, Control_c, 11, 11, 52
11, 2966, Control_c, 11, 11, 50
11, 2973, Note_on_c, 11, 62, 0
11, 2973, Note_on_c, 11, 60, 110
11, 2990, Control_c, 11, 11, 48
11, 2998, Note_on_c, 11, 60, 0
11, 3003, Note_on_c, 11, 60, 110
11, 3148, Note_on_c, 11, 60, 0
11, 3153, Note_on_c, 11, 59, 110
11, 3183, Note_on_c, 11, 59, 0
11, 3183, Note_on_c, 11, 60, 110
11, 3213, Note_on_c, 11, 60, 0
11, 3213, Note_on_c, 11, 59, 110
11, 3243, Note_on_c, 11, 59, 0
11, 3243, Note_on_c, 11, 60, 110
11, 3273, Note_on_c, 11, 60, 0
11, 3273, Note_on_c, 11, 59, 110
11, 3303, Note_on_c, 11, 59, 0
11, 3303, Note_on_c, 11, 60, 110
11, 3333, Note_on_c, 11, 60, 0
11, 3333, Note_on_c, 11, 61, 110
11, 3358, Note_on_c, 11, 61, 0
11, 3363, Control_c, 11, 11, 47
11, 3363, Note_on_c, 11, 62, 110
11, 3387, Control_c, 11, 11, 49
11, 3411, Control_c, 11, 11, 51
11, 3435, Control_c, 11, 11, 53
11, 3453, Note_on_c, 11, 62, 0
11, 3453, Note_on_c, 11, 65, 110
11, 3459, Control_c, 11, 11, 55
11, 3468, Note_on_c, 11, 65, 0
11, 3468, Note_on_c, 11, 64, 110
11, 3480, Note_on_c, 11, 64, 0
11, 3483, Note_on_c, 11, 62, 110
11, 3483, Control_c, 11, 11, 57
11, 3507, Control_c, 11, 11, 59
11, 3531, Control_c, 11, 11, 61
11, 3555, Control_c, 11, 11, 63
11, 3579, Control_c, 11, 11, 65
11, 3603, Control_c, 11, 11, 67
11, 3627, Control_c, 11, 11, 69
11, 3630, Note_on_c, 11, 62, 0
11, 3633, Note_on_c, 11, 61, 110
11, 3651, Control_c, 11, 11, 71
11, 3663, Note_on_c, 11, 61, 0
11, 3663, Note_on_c, 11, 62, 110
11, 3675, Control_c, 11, 11, 73
11, 3693, Note_on_c, 11, 62, 0
11, 3693, Note_on_c, 11, 64, 110
11, 3699, Control_c, 11, 11, 75
11, 3723, Note_on_c, 11, 64, 0
11, 3723, Note_on_c, 11, 65, 110
11, 3723, Control_c, 11, 11, 77
11, 3747, Control_c, 11, 11, 79
11, 3753, Note_on_c, 11, 65, 0
11, 3753, Note_on_c, 11, 67, 110
11, 3771, Control_c, 11, 11, 81
11, 3783, Note_on_c, 11, 67, 0
11, 3783, Note_on_c, 11, 69, 110
11, 3795, Control_c, 11, 11, 83
11, 3813, Note_on_c, 11, 69, 0
11, 3813, Note_on_c, 11, 65, 110
11, 3819, Control_c, 11, 11, 85
11, 3840, Note_on_c, 11, 65, 0
11, 3843, Note_on_c, 11, 55, 110
11, 3843, Control_c, 11, 11, 77
11, 3843, Note_on_c, 11, 64, 110
11, 3852, Control_c, 11, 11, 80
11, 3861, Control_c, 11, 11, 83
11, 3870, Control_c, 11, 11, 86
11, 3933, Control_c, 11, 11, 87
11, 3935, Control_c, 11, 11, 83
11, 3937, Control_c, 11, 11, 79
11, 3939, Control_c, 11, 11, 76
11, 3941, Control_c, 11, 11, 72
11, 3943, Control_c, 11, 11, 69
11, 3945, Control_c, 11, 11, 65
11, 3947, Note_on_c, 11, 64, 0
11, 3947, Note_on_c, 11, 55, 0
11, 3947, Control_c, 11, 11, 62
11, 4083, Control_c, 11, 11, 67
11, 4083, Note_on_c, 11, 57, 100
11, 4083, Note_on_c, 11, 65, 100
11, 4083, Note_on_c, 11, 74, 100
11, 4087, Control_c, 11, 11, 70
11, 4092, Control_c, 11, 11, 73
11, 4096, Control_c, 11, 11, 76
11, 4101, Control_c, 11, 11, 79
11, 4105, Control_c, 11, 11, 82
11, 4110, Control_c, 11, 11, 85
11, 4183, Control_c, 11, 11, 87
11, 4185, Control_c, 11, 11, 83
11, 4187, Control_c, 11, 11, 79
11, 4189, Control_c, 11, 11, 76
11, 4191, Control_c, 11, 11, 72
11, 4193, Control_c, 11, 11, 69
11, 4195, Control_c, 11, 11, 65
11, 4197, Note_on_c, 11, 74, 0
11, 4197, Note_on_c, 11, 65, 0
11, 4197, Note_on_c, 11, 57, 0
11, 4197, Control_c, 11, 11, 62
11, 4323, Control_c, 11, 11, 27
11, 4323, Note_on_c, 11, 64, 100
11, 4323, Note_on_c, 11, 55, 100
11, 4329, Control_c, 11, 11, 30
11, 4335, Control_c, 11, 11, 33
11, 4341, Control_c, 11, 11, 36
11, 4347, Control_c, 11, 11, 39
11, 4353, Control_c, 11, 11, 42
11, 4500, Note_on_c, 11, 55, 0
11, 4500, Note_on_c, 11, 64, 0
11, 4503, Note_on_c, 11, 67, 110
11, 4560, Note_on_c, 11, 67, 0
11, 4563, Control_c, 11, 11, 42
11, 4563, Note_on_c, 11, 67, 110
11, 4576, Control_c, 11, 11, 45
11, 4589, Control_c, 11, 11, 48
11, 4602, Control_c, 11, 11, 51
11, 4615, Control_c, 11, 11, 54
11, 4623, Note_on_c, 11, 67, 0
11, 4623, Note_on_c, 11, 65, 110
11, 4628, Control_c, 11, 11, 57
11, 4641, Control_c, 11, 11, 60
11, 4654, Control_c, 11, 11, 63
11, 4667, Control_c, 11, 11, 66
11, 4680, Control_c, 11, 11, 69
11, 4683, Note_on_c, 11, 65, 0
11, 4683, Note_on_c, 11, 64, 110
11, 4693, Control_c, 11, 11, 72
11, 4707, Control_c, 11, 11, 75
11, 4720, Control_c, 11, 11, 78
11, 4733, Control_c, 11, 11, 81
11, 4743, Note_on_c, 11, 64, 0
11, 4743, Note_on_c, 11, 62, 110
11, 4746, Control_c, 11, 11, 84
11, 4759, Control_c, 11, 11, 87
11, 4772, Control_c, 11, 11, 90
11, 4785, Control_c, 11, 11, 93
11, 4798, Control_c, 11, 11, 96
11, 4800, Note_on_c, 11, 62, 0
11, 4803, Control_c, 11, 11, 77
11, 4803, Note_on_c, 11, 64, 109
11, 4803, Note_on_c, 11, 72, 109
11, 4803, Note_on_c, 11, 60, 109
11, 4812, Control_c, 11, 11, 80
11, 4821, Control_c, 11, 11, 83
11, 4830, Control_c, 11, 11, 86
11, 4893, Control_c, 11, 11, 97
11, 4894, Control_c, 11, 11, 94
11, 4896, Control_c, 11, 11, 89
11, 4898, Control_c, 11, 11, 84
11, 4900, Control_c, 11, 11, 79
11, 4902, Control_c, 11, 11, 74
11, 4904, Control_c, 11, 11, 69
11, 4906, Control_c, 11, 11, 64
11, 4907, Note_on_c, 11, 60, 0
11, 4907, Note_on_c, 11, 72, 0
11, 4907, Note_on_c, 11, 64, 0
11, 5043, Control_c, 11, 11, 67
11, 5043, Note_on_c, 11, 72, 100
11, 5043, Note_on_c, 11, 81, 100
11, 5043, Note_on_c, 11, 65, 100
11, 5047, Control_c, 11, 11, 70
11, 5052, Control_c, 11, 11, 73
11, 5056, Control_c, 11, 11, 76
11, 5061, Control_c, 11, 11, 79
11, 5065, Control_c, 11, 11, 82
11, 5070, Control_c, 11, 11, 85
11, 5143, Control_c, 11, 11, 87
11, 5145, Control_c, 11, 11, 83
11, 5147, Control_c, 11, 11, 79
11, 5149, Control_c, 11, 11, 76
11, 5151, Control_c, 11, 11, 72
11, 5153, Control_c, 11, 11, 69
11, 5155, Control_c, 11, 11, 65
11, 5157, Note_on_c, 11, 65, 0
11, 5157, Note_on_c, 11, 81, 0
11, 5157, Note_on_c, 11, 72, 0
11, 5157, Control_c, 11, 11, 62
11, 5283, Note_on_c, 11, 55, 100
11, 5283, Control_c, 11, 11, 67
11, 5283, Note_on_c, 11, 72, 100
11, 5283, Note_on_c, 11, 64, 100
11, 5287, Control_c, 11, 11, 70
11, 5292, Control_c, 11, 11, 73
11, 5296, Control_c, 11, 11, 76
11, 5301, Control_c, 11, 11, 79
11, 5305, Control_c, 11, 11, 82
11, 5310, Control_c, 11, 11, 85
11, 5373, Control_c, 11, 11, 87
11, 5375, Control_c, 11, 11, 84
11, 5378, Control_c, 11, 11, 80
11, 5381, Control_c, 11, 11, 77
11, 5383, Control_c, 11, 11, 74
11, 5386, Control_c, 11, 11, 71
11, 5388, Control_c, 11, 11, 68
11, 5391, Control_c, 11, 11, 65
11, 5393, Control_c, 11, 11, 62
11, 5396, Control_c, 11, 11, 59
11, 5398, Control_c, 11, 11, 56
11, 5401, Control_c, 11, 11, 53
11, 5403, Note_on_c, 11, 64, 0
11, 5403, Note_on_c, 11, 72, 0
11, 5403, Note_on_c, 11, 55, 0
11, 5763, Control_c, 11, 11, 32
11, 5763, Note_on_c, 11, 55, 110
11, 5779, Control_c, 11, 11, 34
11, 5795, Control_c, 11, 11, 36
11, 5811, Control_c, 11, 11, 38
11, 5823, Note_on_c, 11, 55, 0
11, 5823, Note_on_c, 11, 57, 95
11, 5827, Control_c, 11, 11, 40
11, 5843, Control_c, 11, 11, 42
11, 5853, Note_on_c, 11, 57, 0
11, 5853, Note_on_c, 11, 59, 97
11, 5859, Control_c, 11, 11, 44
11, 5875, Control_c, 11, 11, 46
11, 5883, Note_on_c, 11, 59, 0
11, 5883, Note_on_c, 11, 60, 100
11, 5913, Note_on_c, 11, 60, 0
11, 5913, Note_on_c, 11, 62, 102
11, 5943, Note_on_c, 11, 62, 0
11, 5943, Note_on_c, 11, 64, 105
11, 5973, Note_on_c, 11, 64, 0
11, 5973, Note_on_c, 11, 66, 107
11, 5998, Note_on_c, 11, 66, 0
11, 6003, Note_on_c, 11, 67, 110
11, 6178, Note_on_c, 11, 67, 0
11, 6183, Note_on_c, 11, 67, 95
11, 6198, Note_on_c, 11, 67, 0
11, 6198, Note_on_c, 11, 65, 95
11, 6213, Note_on_c, 11, 65, 0
11, 6213, Note_on_c, 11, 64, 95
11, 6228, Note_on_c, 11, 64, 0
11, 6228, Note_on_c, 11, 62, 95
11, 6243, Note_on_c, 11, 62, 0
11, 6243, Note_on_c, 11, 60, 90
11, 6363, Note_on_c, 11, 60, 0
11, 6723, Note_on_c, 11, 55, 67
11, 6843, Note_on_c, 11, 55, 0
11, 7203, Note_on_c, 11, 55, 67
11, 7323, Note_on_c, 11, 55, 0
11, 7443, Note_on_c, 11, 55, 67
11, 7563, Note_on_c, 11, 55, 0
11, 7683, Note_on_c, 11, 55, 67
11, 7803, Note_on_c, 11, 55, 0
11, 9003, Note_on_c, 11, 69, 110
11, 9033, Note_on_c, 11, 69, 0
11, 9033, Note_on_c, 11, 67, 110
11, 9063, Note_on_c, 11, 67, 0
11, 9063, Note_on_c, 11, 65, 110
11, 9093, Note_on_c, 11, 65, 0
11, 9093, Note_on_c, 11, 64, 110
11, 9123, Note_on_c, 11, 64, 0
11, 9123, Note_on_c, 11, 62, 110
11, 9243, Note_on_c, 11, 62, 0
11, 9603, Note_on_c, 11, 57, 78
11, 9723, Note_on_c, 11, 57, 0
11, 10083, Note_on_c, 11, 57, 78
11, 10203, Note_on_c, 11, 57, 0
11, 10323, Note_on_c, 11, 57, 78
11, 10443, Note_on_c, 11, 57, 0
11, 10563, Note_on_c, 11, 57, 78
11, 10683, Note_on_c, 11, 57, 0
11, 11043, Control_c, 11, 11, 32
11, 11043, Note_on_c, 11, 62, 110
11, 11054, Control_c, 11, 11, 35
11, 11065, Control_c, 11, 11, 38
11, 11076, Control_c, 11, 11, 41
11, 11088, Control_c, 11, 11, 44
11, 11099, Control_c, 11, 11, 47
11, 11139, Control_c, 11, 11, 50
11, 11171, Control_c, 11, 11, 51
11, 11203, Control_c, 11, 11, 52
11, 11235, Control_c, 11, 11, 53
11, 11267, Control_c, 11, 11, 54
11, 11299, Control_c, 11, 11, 55
11, 11331, Control_c, 11, 11, 56
11, 11363, Control_c, 11, 11, 57
11, 11395, Control_c, 11, 11, 58
11, 11427, Control_c, 11, 11, 59
11, 11459, Control_c, 11, 11, 60
11, 11491, Control_c, 11, 11, 61
11, 11523, Note_on_c, 11, 62, 0
11, 11523, Control_c, 11, 11, 62
11, 11523, Note_on_c, 11, 62, 110
11, 11538, Note_on_c, 11, 62, 0
11, 11538, Note_on_c, 11, 60, 110
11, 11553, Note_on_c, 11, 60, 0
11, 11553, Note_on_c, 11, 62, 110
11, 11555, Control_c, 11, 11, 63
11, 11568, Note_on_c, 11, 62, 0
11, 11568, Note_on_c, 11, 60, 110
11, 11583, Note_on_c, 11, 60, 0
11, 11583, Note_on_c, 11, 62, 110
11, 11587, Control_c, 11, 11, 64
11, 11598, Note_on_c, 11, 62, 0
11, 11598, Note_on_c, 11, 60, 110
11, 11613, Note_on_c, 11, 60, 0
11, 11613, Note_on_c, 11, 62, 110
11, 11619, Control_c, 11, 11, 65
11, 11628, Note_on_c, 11, 62, 0
11, 11628, Note_on_c, 11, 60, 110
11, 11643, Note_on_c, 11, 60, 0
11, 11643, Note_on_c, 11, 62, 110
11, 11651, Control_c, 11, 11, 66
11, 11658, Note_on_c, 11, 62, 0
11, 11658, Note_on_c, 11, 60, 110
11, 11673, Note_on_c, 11, 60, 0
11, 11673, Note_on_c, 11, 62, 110
11, 11683, Control_c, 11, 11, 67
11, 11688, Note_on_c, 11, 62, 0
11, 11688, Note_on_c, 11, 60, 110
11, 11703, Note_on_c, 11, 60, 0
11, 11703, Note_on_c, 11, 62, 110
11, 11715, Control_c, 11, 11, 68
11, 11718, Note_on_c, 11, 62, 0
11, 11718, Note_on_c, 11, 60, 110
11, 11733, Note_on_c, 11, 60, 0
11, 11733, Note_on_c, 11, 62, 110
11, 11747, Control_c, 11, 11, 69
11, 11748, Note_on_c, 11, 62, 0
11, 11748, Note_on_c, 11, 60, 110
11, 11763, Note_on_c, 11, 60, 0
11, 11763, Note_on_c, 11, 62, 110
11, 11778, Note_on_c, 11, 62, 0
11, 11778, Note_on_c, 11, 60, 110
11, 11779, Control_c, 11, 11, 70
11, 11793, Note_on_c, 11, 60, 0
11, 11793, Note_on_c, 11, 62, 110
11, 11808, Note_on_c, 11, 62, 0
11, 11808, Note_on_c, 11, 60, 110
11, 11811, Control_c, 11, 11, 71
11, 11823, Note_on_c, 11, 60, 0
11, 11823, Note_on_c, 11, 62, 110
11, 11838, Note_on_c, 11, 62, 0
11, 11838, Note_on_c, 11, 60, 110
11, 11843, Control_c, 11, 11, 72
11, 11853, Note_on_c, 11, 60, 0
11, 11853, Note_on_c, 11, 62, 110
11, 11868, Note_on_c, 11, 62, 0
11, 11868, Note_on_c, 11, 60, 110
11, 11875, Control_c, 11, 11, 73
11, 11883, Note_on_c, 11, 60, 0
11, 11883, Note_on_c, 11, 62, 110
11, 11898, Note_on_c, 11, 62, 0
11, 11898, Note_on_c, 11, 60, 110
11, 11907, Control_c, 11, 11, 74
11, 11913, Note_on_c, 11, 60, 0
11, 11913, Note_on_c, 11, 62, 110
11, 11928, Note_on_c, 11, 62, 0
11, 11928, Note_on_c, 11, 60, 110
11, 11939, Control_c, 11, 11, 75
11, 11943, Note_on_c, 11, 60, 0
11, 11943, Note_on_c, 11, 59, 110
11, 11971, Control_c, 11, 11, 76
11, 11973, Note_on_c, 11, 59, 0
11, 11973, Note_on_c, 11, 60, 110
11, 12003, Note_on_c, 11, 60, 0
11, 12003, Control_c, 11, 11, 84
11, 12003, Note_on_c, 11, 59, 110
11, 12008, Control_c, 11, 11, 87
11, 12013, Control_c, 11, 11, 90
11, 12018, Control_c, 11, 11, 93
11, 12038, Control_c, 11, 11, 91
11, 12056, Control_c, 11, 11, 88
11, 12074, Control_c, 11, 11, 85
11, 12092, Control_c, 11, 11, 82
11, 12110, Control_c, 11, 11, 79
11, 12123, Control_c, 11, 11, 67
11, 12273, Control_c, 11, 11, 67
11, 12279, Control_c, 11, 11, 64
11, 12285, Control_c, 11, 11, 61
11, 12291, Control_c, 11, 11, 58
11, 12297, Control_c, 11, 11, 55
11, 12303, Control_c, 11, 11, 52
11, 12309, Control_c, 11, 11, 49
11, 12311, Note_on_c, 11, 59, 0
11, 12843, Control_c, 11, 11, 67
11, 12843, Note_on_c, 11, 55, 110
11, 12933, Note_on_c, 11, 55, 0
11, 12933, Note_on_c, 11, 59, 110
11, 12963, Note_on_c, 11, 59, 0
11, 12963, Note_on_c, 11, 62, 110
11, 12963, Control_c, 11, 11, 97
11, 12981, Control_c, 11, 11, 94
11, 12999, Control_c, 11, 11, 91
11, 13017, Control_c, 11, 11, 88
11, 13035, Control_c, 11, 11, 85
11, 13053, Control_c, 11, 11, 82
11, 13071, Control_c, 11, 11, 79
11, 13233, Control_c, 11, 11, 67
11, 13239, Control_c, 11, 11, 64
11, 13245, Control_c, 11, 11, 61
11, 13251, Control_c, 11, 11, 58
11, 13257, Control_c, 11, 11, 55
11, 13263, Control_c, 11, 11, 52
11, 13269, Control_c, 11, 11, 49
11, 13271, Note_on_c, 11, 62, 0
11, 13803, Note_on_c, 11, 59, 110
11, 13803, Control_c, 11, 11, 67
11, 13893, Note_on_c, 11, 59, 0
11, 13893, Note_on_c, 11, 62, 110
11, 13923, Note_on_c, 11, 62, 0
11, 13923, Note_on_c, 11, 65, 110
11, 13923, Control_c, 11, 11, 97
11, 13941, Control_c, 11, 11, 94
11, 13959, Control_c, 11, 11, 91
11, 13977, Control_c, 11, 11, 88
11, 13995, Control_c, 11, 11, 85
11, 14013, Control_c, 11, 11, 82
11, 14031, Control_c, 11, 11, 79
11, 14193, Control_c, 11, 11, 67
11, 14199, Control_c, 11, 11, 64
11, 14205, Control_c, 11, 11, 61
11, 14211, Control_c, 11, 11, 58
11, 14217, Control_c, 11, 11, 55
11, 14223, Control_c, 11, 11, 52
11, 14229, Control_c, 11, 11, 49
11, 14231, Note_on_c, 11, 65, 0
11, 14283, Note_on_c, 11, 71, 100
11, 14283, Control_c, 11, 11, 67
11, 14373, Note_on_c, 11, 71, 0
11, 14373, Note_on_c, 11, 74, 100
11, 14403, Note_on_c, 11, 74, 0
11, 14403, Note_on_c, 11, 77, 100
11, 14403, Control_c, 11, 11, 77
11, 14422, Control_c, 11, 11, 78
11, 14433, Note_on_c, 11, 77, 0
11, 14441, Control_c, 11, 11, 79
11, 14460, Control_c, 11, 11, 80
11, 14463, Note_on_c, 11, 74, 100
11, 14479, Control_c, 11, 11, 81
11, 14493, Note_on_c, 11, 74, 0
11, 14498, Control_c, 11, 11, 82
11, 14517, Control_c, 11, 11, 83
11, 14523, Note_on_c, 11, 71, 100
11, 14537, Control_c, 11, 11, 84
11, 14553, Note_on_c, 11, 71, 0
11, 14556, Control_c, 11, 11, 85
11, 14575, Control_c, 11, 11, 86
11, 14583, Note_on_c, 11, 67, 100
11, 14594, Control_c, 11, 11, 87
11, 14613, Note_on_c, 11, 67, 0
11, 14613, Control_c, 11, 11, 88
11, 14632, Control_c, 11, 11, 89
11, 14643, Note_on_c, 11, 65, 100
11, 14652, Control_c, 11, 11, 90
11, 14671, Control_c, 11, 11, 91
11, 14673, Note_on_c, 11, 65, 0
11, 14690, Control_c, 11, 11, 92
11, 14703, Note_on_c, 11, 62, 100
11, 14709, Control_c, 11, 11, 93
11, 14728, Control_c, 11, 11, 94
11, 14733, Note_on_c, 11, 62, 0
11, 14747, Control_c, 11, 11, 95
11, 14763, Note_on_c, 11, 59, 100
11, 14767, Control_c, 11, 11, 96
11, 14786, Control_c, 11, 11, 97
11, 14793, Note_on_c, 11, 59, 0
11, 14805, Control_c, 11, 11, 98
11, 14823, Note_on_c, 11, 55, 100
11, 14824, Control_c, 11, 11, 99
11, 14843, Control_c, 11, 11, 100
11, 14853, Note_on_c, 11, 55, 0
11, 14862, Control_c, 11, 11, 101
11, 14882, Control_c, 11, 11, 102
11, 14883, Note_on_c, 11, 60, 100
11, 14943, Note_on_c, 11, 60, 0
11, 15123, Note_on_c, 11, 65, 100
11, 15133, Note_on_c, 11, 81, 100
11, 15133, Note_on_c, 11, 72, 100
11, 15183, Note_on_c, 11, 65, 0
11, 15193, Note_on_c, 11, 72, 0
11, 15193, Note_on_c, 11, 81, 0
11, 15363, Note_on_c, 11, 64, 100
11, 15373, Note_on_c, 11, 72, 100
11, 15373, Note_on_c, 11, 79, 100
11, 15423, Note_on_c, 11, 64, 0
11, 15433, Note_on_c, 11, 79, 0
11, 15433, Note_on_c, 11, 72, 0
11, 15603, Note_on_c, 11, 55, 100
11, 15613, Note_on_c, 11, 62, 100
11, 15613, Note_on_c, 11, 71, 100
11, 15663, Note_on_c, 11, 55, 0
11, 15673, Note_on_c, 11, 71, 0
11, 15673, Note_on_c, 11, 62, 0
11, 15843, Note_on_c, 11, 55, 100
11, 15853, Note_on_c, 11, 64, 100
11, 15853, Note_on_c, 11, 72, 100
11, 16193, Note_on_c, 11, 55, 0
11, 16203, Note_on_c, 11, 64, 0
11, 16203, Note_on_c, 11, 64, 100
11, 16213, Note_on_c, 11, 72, 0
11, 16313, Note_on_c, 11, 64, 0
11, 16323, Control_c, 11, 11, 122
11, 16323, Note_on_c, 11, 67, 100
11, 16341, Control_c, 11, 11, 119
11, 16359, Control_c, 11, 11, 116
11, 16377, Control_c, 11, 11, 113
11, 16395, Control_c, 11, 11, 110
11, 16413, Control_c, 11, 11, 107
11, 16431, Control_c, 11, 11, 104
11, 16673, Note_on_c, 11, 67, 0
11, 16683, Note_on_c, 11, 65, 100
11, 16713, Note_on_c, 11, 65, 0
11, 16713, Note_on_c, 11, 64, 100
11, 16743, Note_on_c, 11, 64, 0
11, 16743, Note_on_c, 11, 62, 100
11, 16773, Note_on_c, 11, 62, 0
11, 16773, Note_on_c, 11, 60, 100
11, 16793, Note_on_c, 11, 60, 0
11, 16803, Note_on_c, 11, 59, 78
11, 16853, Note_on_c, 11, 59, 0
11, 16863, Note_on_c, 11, 62, 78
11, 16863, Note_on_c, 11, 59, 78
11, 16913, Note_on_c, 11, 59, 0
11, 16913, Note_on_c, 11, 62, 0
11, 16923, Note_on_c, 11, 62, 78
11, 16923, Note_on_c, 11, 59, 78
11, 16973, Note_on_c, 11, 59, 0
11, 16973, Note_on_c, 11, 62, 0
11, 16983, Note_on_c, 11, 59, 78
11, 16983, Note_on_c, 11, 62, 78
11, 17033, Note_on_c, 11, 62, 0
11, 17033, Note_on_c, 11, 59, 0
11, 17043, Note_on_c, 11, 59, 78
11, 17043, Note_on_c, 11, 62, 78
11, 17093, Note_on_c, 11, 62, 0
11, 17093, Note_on_c, 11, 59, 0
11, 17103, Note_on_c, 11, 59, 78
11, 17103, Note_on_c, 11, 62, 78
11, 17153, Note_on_c, 11, 62, 0
11, 17153, Note_on_c, 11, 59, 0
11, 17163, Note_on_c, 11, 59, 78
11, 17163, Note_on_c, 11, 62, 78
11, 17213, Note_on_c, 11, 62, 0
11, 17213, Note_on_c, 11, 59, 0
11, 17223, Note_on_c, 11, 59, 78
11, 17223, Note_on_c, 11, 62, 78
11, 17273, Note_on_c, 11, 62, 0
11, 17273, Note_on_c, 11, 59, 0
11, 17283, Note_on_c, 11, 59, 78
11, 17283, Note_on_c, 11, 62, 78
11, 17333, Note_on_c, 11, 62, 0
11, 17333, Note_on_c, 11, 59, 0
11, 17343, Note_on_c, 11, 59, 78
11, 17343, Note_on_c, 11, 62, 78
11, 17393, Note_on_c, 11, 62, 0
11, 17393, Note_on_c, 11, 59, 0
11, 17403, Note_on_c, 11, 59, 78
11, 17403, Note_on_c, 11, 62, 78
11, 17453, Note_on_c, 11, 62, 0
11, 17453, Note_on_c, 11, 59, 0
11, 17463, Note_on_c, 11, 59, 78
11, 17463, Note_on_c, 11, 62, 78
11, 17513, Note_on_c, 11, 62, 0
11, 17513, Note_on_c, 11, 59, 0
11, 17523, Note_on_c, 11, 62, 78
11, 17523, Note_on_c, 11, 59, 78
11, 17573, Note_on_c, 11, 59, 0
11, 17573, Note_on_c, 11, 62, 0
11, 17583, Note_on_c, 11, 62, 78
11, 17583, Note_on_c, 11, 59, 78
11, 17633, Note_on_c, 11, 59, 0
11, 17633, Note_on_c, 11, 62, 0
11, 17643, Note_on_c, 11, 62, 78
11, 17643, Note_on_c, 11, 59, 78
11, 17693, Note_on_c, 11, 59, 0
11, 17693, Note_on_c, 11, 62, 0
11, 17703, Note_on_c, 11, 62, 78
11, 17703, Note_on_c, 11, 59, 78
11, 17753, Note_on_c, 11, 59, 0
11, 17753, Note_on_c, 11, 62, 0
11, 17763, Note_on_c, 11, 60, 100
11, 17823, Note_on_c, 11, 60, 0
11, 17823, Note_on_c, 11, 59, 100
11, 17873, Note_on_c, 11, 59, 0
11, 17883, Note_on_c, 11, 60, 100
11, 17913, Note_on_c, 11, 60, 0
11, 17943, Note_on_c, 11, 62, 100
11, 17973, Note_on_c, 11, 62, 0
11, 18003, Note_on_c, 11, 64, 100
11, 18063, Note_on_c, 11, 64, 0
11, 18063, Note_on_c, 11, 62, 100
11, 18113, Note_on_c, 11, 62, 0
11, 18123, Note_on_c, 11, 64, 100
11, 18153, Note_on_c, 11, 64, 0
11, 18183, Note_on_c, 11, 65, 100
11, 18213, Note_on_c, 11, 65, 0
11, 18243, Control_c, 11, 11, 122
11, 18243, Note_on_c, 11, 67, 100
11, 18261, Control_c, 11, 11, 119
11, 18279, Control_c, 11, 11, 116
11, 18297, Control_c, 11, 11, 113
11, 18303, Note_on_c, 11, 67, 0
11, 18303, Note_on_c, 11, 66, 100
11, 18315, Control_c, 11, 11, 110
11, 18333, Control_c, 11, 11, 107
11, 18351, Control_c, 11, 11, 104
11, 18353, Note_on_c, 11, 66, 0
11, 18363, Note_on_c, 11, 67, 100
11, 18393, Note_on_c, 11, 67, 0
11, 18423, Note_on_c, 11, 66, 100
11, 18453, Note_on_c, 11, 66, 0
11, 18483, Note_on_c, 11, 67, 100
11, 18543, Note_on_c, 11, 67, 0
11, 18543, Note_on_c, 11, 64, 100
11, 18593, Note_on_c, 11, 64, 0
11, 18603, Note_on_c, 11, 62, 100
11, 18633, Note_on_c, 11, 62, 0
11, 18663, Note_on_c, 11, 60, 100
11, 18693, Note_on_c, 11, 60, 0
11, 18723, Note_on_c, 11, 59, 78
11, 18773, Note_on_c, 11, 59, 0
11, 18783, Note_on_c, 11, 59, 78
11, 18783, Note_on_c, 11, 62, 78
11, 18833, Note_on_c, 11, 62, 0
11, 18833, Note_on_c, 11, 59, 0
11, 18843, Note_on_c, 11, 59, 78
11, 18843, Note_on_c, 11, 62, 78
11, 18893, Note_on_c, 11, 62, 0
11, 18893, Note_on_c, 11, 59, 0
11, 18903, Note_on_c, 11, 59, 78
11, 18903, Note_on_c, 11, 62, 78
11, 18953, Note_on_c, 11, 62, 0
11, 18953, Note_on_c, 11, 59, 0
11, 18963, Note_on_c, 11, 62, 78
11, 18963, Note_on_c, 11, 59, 78
11, 19013, Note_on_c, 11, 59, 0
11, 19013, Note_on_c, 11, 62, 0
11, 19023, Note_on_c, 11, 62, 78
11, 19023, Note_on_c, 11, 59, 78
11, 19073, Note_on_c, 11, 59, 0
11, 19073, Note_on_c, 11, 62, 0
11, 19083, Note_on_c, 11, 62, 78
11, 19083, Note_on_c, 11, 59, 78
11, 19133, Note_on_c, 11, 59, 0
11, 19133, Note_on_c, 11, 62, 0
11, 19143, Note_on_c, 11, 62, 78
11, 19143, Note_on_c, 11, 59, 78
11, 19193, Note_on_c, 11, 59, 0
11, 19193, Note_on_c, 11, 62, 0
11, 19203, Note_on_c, 11, 59, 78
11, 19203, Note_on_c, 11, 62, 78
11, 19253, Note_on_c, 11, 62, 0
11, 19253, Note_on_c, 11, 59, 0
11, 19263, Note_on_c, 11, 59, 78
11, 19263, Note_on_c, 11, 62, 78
11, 19313, Note_on_c, 11, 62, 0
11, 19313, Note_on_c, 11, 59, 0
11, 19323, Note_on_c, 11, 59, 78
11, 19323, Note_on_c, 11, 62, 78
11, 19373, Note_on_c, 11, 62, 0
11, 19373, Note_on_c, 11, 59, 0
11, 19383, Note_on_c, 11, 59, 78
11, 19383, Note_on_c, 11, 62, 78
11, 19433, Note_on_c, 11, 62, 0
11, 19433, Note_on_c, 11, 59, 0
11, 19443, Note_on_c, 11, 59, 78
11, 19443, Note_on_c, 11, 62, 78
11, 19493, Note_on_c, 11, 62, 0
11, 19493, Note_on_c, 11, 59, 0
11, 19503, Note_on_c, 11, 62, 78
11, 19503, Note_on_c, 11, 59, 78
11, 19553, Note_on_c, 11, 59, 0
11, 19553, Note_on_c, 11, 62, 0
11, 19563, Note_on_c, 11, 62, 78
11, 19563, Note_on_c, 11, 59, 78
11, 19613, Note_on_c, 11, 59, 0
11, 19613, Note_on_c, 11, 62, 0
11, 19623, Note_on_c, 11, 62, 78
11, 19623, Note_on_c, 11, 59, 78
11, 19673, Note_on_c, 11, 59, 0
11, 19673, Note_on_c, 11, 62, 0
11, 19683, Control_c, 11, 11, 102
11, 19683, Note_on_c, 11, 60, 100
11, 19699, Control_c, 11, 11, 100
11, 19713, Note_on_c, 11, 60, 0
11, 19715, Control_c, 11, 11, 98
11, 19731, Control_c, 11, 11, 96
11, 19743, Note_on_c, 11, 60, 100
11, 19747, Control_c, 11, 11, 94
11, 19763, Control_c, 11, 11, 92
11, 19773, Note_on_c, 11, 60, 0
11, 19779, Control_c, 11, 11, 90
11, 19795, Control_c, 11, 11, 88
11, 19803, Note_on_c, 11, 55, 100
11, 19833, Note_on_c, 11, 55, 0
11, 19863, Note_on_c, 11, 59, 100
11, 19893, Note_on_c, 11, 59, 0
11, 19923, Note_on_c, 11, 60, 100
11, 19953, Note_on_c, 11, 60, 0
11, 19983, Note_on_c, 11, 60, 100
11, 20013, Note_on_c, 11, 60, 0
11, 20043, Note_on_c, 11, 57, 100
11, 20073, Note_on_c, 11, 57, 0
11, 20103, Note_on_c, 11, 61, 100
11, 20133, Note_on_c, 11, 61, 0
11, 20163, Control_c, 11, 11, 87
11, 20163, Note_on_c, 11, 62, 100
11, 20193, Note_on_c, 11, 62, 0
11, 20220, Control_c, 11, 11, 88
11, 20223, Note_on_c, 11, 62, 100
11, 20253, Note_on_c, 11, 62, 0
11, 20278, Control_c, 11, 11, 89
11, 20283, Note_on_c, 11, 57, 100
11, 20313, Note_on_c, 11, 57, 0
11, 20335, Control_c, 11, 11, 90
11, 20343, Note_on_c, 11, 61, 100
11, 20373, Note_on_c, 11, 61, 0
11, 20393, Control_c, 11, 11, 91
11, 20403, Note_on_c, 11, 62, 100
11, 20433, Note_on_c, 11, 62, 0
11, 20451, Control_c, 11, 11, 92
11, 20463, Note_on_c, 11, 62, 100
11, 20493, Note_on_c, 11, 62, 0
11, 20508, Control_c, 11, 11, 93
11, 20523, Note_on_c, 11, 59, 100
11, 20553, Note_on_c, 11, 59, 0
11, 20566, Control_c, 11, 11, 94
11, 20583, Note_on_c, 11, 63, 100
11, 20613, Note_on_c, 11, 63, 0
11, 20623, Control_c, 11, 11, 95
11, 20643, Note_on_c, 11, 64, 100
11, 20673, Note_on_c, 11, 64, 0
11, 20681, Control_c, 11, 11, 96
11, 20703, Note_on_c, 11, 64, 100
11, 20733, Note_on_c, 11, 64, 0
11, 20739, Control_c, 11, 11, 97
11, 20763, Note_on_c, 11, 60, 100
11, 20793, Note_on_c, 11, 60, 0
11, 20796, Control_c, 11, 11, 98
11, 20823, Note_on_c, 11, 64, 100
11, 20853, Note_on_c, 11, 64, 0
11, 20854, Control_c, 11, 11, 99
11, 20883, Note_on_c, 11, 65, 100
11, 20911, Control_c, 11, 11, 100
11, 20913, Note_on_c, 11, 65, 0
11, 20943, Note_on_c, 11, 62, 100
11, 20969, Control_c, 11, 11, 101
11, 20973, Note_on_c, 11, 62, 0
11, 21003, Note_on_c, 11, 67, 100
11, 21027, Control_c, 11, 11, 102
11, 21033, Note_on_c, 11, 67, 0
11, 21063, Note_on_c, 11, 64, 100
11, 21084, Control_c, 11, 11, 103
11, 21093, Note_on_c, 11, 64, 0
11, 21123, Note_on_c, 11, 69, 100
11, 21142, Control_c, 11, 11, 104
11, 21153, Note_on_c, 11, 69, 0
11, 21183, Note_on_c, 11, 65, 100
11, 21199, Control_c, 11, 11, 105
11, 21213, Note_on_c, 11, 65, 0
11, 21243, Note_on_c, 11, 71, 100
11, 21257, Control_c, 11, 11, 106
11, 21273, Note_on_c, 11, 71, 0
11, 21303, Note_on_c, 11, 67, 100
11, 21315, Control_c, 11, 11, 107
11, 21333, Note_on_c, 11, 67, 0
11, 21363, Note_on_c, 11, 72, 100
11, 21372, Control_c, 11, 11, 108
11, 21393, Note_on_c, 11, 72, 0
11, 21423, Note_on_c, 11, 69, 100
11, 21430, Control_c, 11, 11, 109
11, 21453, Note_on_c, 11, 69, 0
11, 21483, Note_on_c, 11, 64, 100
11, 21487, Control_c, 11, 11, 110
11, 21513, Note_on_c, 11, 64, 0
11, 21543, Note_on_c, 11, 66, 100
11, 21545, Control_c, 11, 11, 111
11, 21573, Note_on_c, 11, 66, 0
11, 21603, Control_c, 11, 11, 112
11, 21603, Note_on_c, 11, 67, 100
11, 21678, Control_c, 11, 11, 112
11, 21681, Control_c, 11, 11, 109
11, 21684, Control_c, 11, 11, 106
11, 21688, Control_c, 11, 11, 103
11, 21691, Control_c, 11, 11, 100
11, 21694, Control_c, 11, 11, 97
11, 21698, Control_c, 11, 11, 94
11, 21701, Control_c, 11, 11, 91
11, 21705, Control_c, 11, 11, 88
11, 21708, Control_c, 11, 11, 85
11, 21711, Control_c, 11, 11, 82
11, 21715, Control_c, 11, 11, 79
11, 21718, Control_c, 11, 11, 76
11, 21721, Control_c, 11, 11, 73
11, 21723, Note_on_c, 11, 67, 0
11, 22083, Control_c, 11, 11, 102
11, 22083, Note_on_c, 11, 62, 71
11, 22093, Note_on_c, 11, 71, 71
11, 22093, Note_on_c, 11, 79, 61
11, 22188, Note_on_c, 11, 62, 0
11, 22198, Note_on_c, 11, 79, 0
11, 22198, Note_on_c, 11, 71, 0
11, 22323, Note_on_c, 11, 64, 71
11, 22333, Note_on_c, 11, 72, 71
11, 22333, Note_on_c, 11, 79, 61
11, 22428, Note_on_c, 11, 64, 0
11, 22438, Note_on_c, 11, 79, 0
11, 22438, Note_on_c, 11, 72, 0
11, 22563, Note_on_c, 11, 62, 71
11, 22573, Note_on_c, 11, 79, 61
11, 22573, Note_on_c, 11, 71, 71
11, 22668, Note_on_c, 11, 62, 0
11, 22678, Note_on_c, 11, 71, 0
11, 22678, Note_on_c, 11, 79, 0
11, 23043, Note_on_c, 11, 62, 71
11, 23053, Note_on_c, 11, 71, 71
11, 23053, Note_on_c, 11, 79, 61
11, 23148, Note_on_c, 11, 62, 0
11, 23158, Note_on_c, 11, 79, 0
11, 23158, Note_on_c, 11, 71, 0
11, 23283, Note_on_c, 11, 64, 71
11, 23293, Note_on_c, 11, 72, 71
11, 23293, Note_on_c, 11, 79, 61
11, 23388, Note_on_c, 11, 64, 0
11, 23398, Note_on_c, 11, 79, 0
11, 23398, Note_on_c, 11, 72, 0
11, 23523, Note_on_c, 11, 62, 71
11, 23533, Note_on_c, 11, 79, 61
11, 23533, Note_on_c, 11, 71, 71
11, 23628, Note_on_c, 11, 62, 0
11, 23638, Note_on_c, 11, 71, 0
11, 23638, Note_on_c, 11, 79, 0
11, 23763, Note_on_c, 11, 64, 71
11, 23773, Note_on_c, 11, 72, 71
11, 23773, Note_on_c, 11, 79, 61
11, 23868, Note_on_c, 11, 64, 0
11, 23878, Note_on_c, 11, 79, 0
11, 23878, Note_on_c, 11, 72, 0
11, 24003, Note_on_c, 11, 62, 71
11, 24013, Note_on_c, 11, 71, 71
11, 24013, Note_on_c, 11, 79, 61
11, 24108, Note_on_c, 11, 62, 0
11, 24118, Note_on_c, 11, 79, 0
11, 24118, Note_on_c, 11, 71, 0
11, 24243, Note_on_c, 11, 64, 71
11, 24253, Note_on_c, 11, 79, 61
11, 24253, Note_on_c, 11, 72, 71
11, 24348, Note_on_c, 11, 64, 0
11, 24358, Note_on_c, 11, 72, 0
11, 24358, Note_on_c, 11, 79, 0
11, 24483, Note_on_c, 11, 62, 71
11, 24493, Note_on_c, 11, 71, 71
11, 24493, Note_on_c, 11, 79, 61
11, 24588, Note_on_c, 11, 62, 0
11, 24598, Note_on_c, 11, 79, 0
11, 24598, Note_on_c, 11, 71, 0
11, 24723, Note_on_c, 11, 62, 71
11, 24733, Note_on_c, 11, 79, 61
11, 24733, Note_on_c, 11, 71, 71
11, 24828, Note_on_c, 11, 62, 0
11, 24838, Note_on_c, 11, 71, 0
11, 24838, Note_on_c, 11, 79, 0
11, 24963, Note_on_c, 11, 55, 100
11, 25083, Note_on_c, 11, 55, 0
11, 25443, Control_c, 11, 11, 47
11, 25443, Note_on_c, 11, 59, 86
11, 25503, Note_on_c, 11, 59, 0
11, 25563, Note_on_c, 11, 62, 86
11, 25623, Note_on_c, 11, 62, 0
11, 25683, Note_on_c, 11, 67, 86
11, 25743, Note_on_c, 11, 67, 0
11, 25803, Note_on_c, 11, 71, 86
11, 25863, Note_on_c, 11, 71, 0
11, 25923, Note_on_c, 11, 72, 86
11, 26043, Note_on_c, 11, 72, 0
11, 26403, Note_on_c, 11, 60, 86
11, 26463, Note_on_c, 11, 60, 0
11, 26523, Note_on_c, 11, 62, 86
11, 26583, Note_on_c, 11, 62, 0
11, 26643, Note_on_c, 11, 66, 86
11, 26703, Note_on_c, 11, 66, 0
11, 26763, Note_on_c, 11, 69, 86
11, 26823, Note_on_c, 11, 69, 0
11, 26883, Note_on_c, 11, 67, 86
11, 27003, Note_on_c, 11, 67, 0
11, 27363, Note_on_c, 11, 66, 86
11, 27483, Note_on_c, 11, 66, 0
11, 27603, Note_on_c, 11, 72, 100
11, 27603, Control_c, 11, 11, 58
11, 27607, Control_c, 11, 11, 61
11, 27612, Control_c, 11, 11, 64
11, 27617, Control_c, 11, 11, 67
11, 27622, Control_c, 11, 11, 70
11, 27627, Control_c, 11, 11, 73
11, 27638, Control_c, 11, 11, 70
11, 27649, Control_c, 11, 11, 67
11, 27660, Control_c, 11, 11, 64
11, 27671, Control_c, 11, 11, 61
11, 27682, Control_c, 11, 11, 58
11, 27693, Control_c, 11, 11, 55
11, 27704, Control_c, 11, 11, 52
11, 27715, Control_c, 11, 11, 49
11, 27723, Note_on_c, 11, 72, 0
11, 27723, Note_on_c, 11, 71, 100
11, 27833, Note_on_c, 11, 71, 0
11, 27843, Note_on_c, 11, 69, 86
11, 27903, Note_on_c, 11, 69, 0
11, 28083, Note_on_c, 11, 72, 100
11, 28083, Control_c, 11, 11, 58
11, 28087, Control_c, 11, 11, 61
11, 28092, Control_c, 11, 11, 64
11, 28097, Control_c, 11, 11, 67
11, 28102, Control_c, 11, 11, 70
11, 28107, Control_c, 11, 11, 73
11, 28118, Control_c, 11, 11, 70
11, 28129, Control_c, 11, 11, 67
11, 28140, Control_c, 11, 11, 64
11, 28151, Control_c, 11, 11, 61
11, 28162, Control_c, 11, 11, 58
11, 28173, Control_c, 11, 11, 55
11, 28184, Control_c, 11, 11, 52
11, 28195, Control_c, 11, 11, 49
11, 28203, Note_on_c, 11, 72, 0
11, 28203, Note_on_c, 11, 71, 100
11, 28313, Note_on_c, 11, 71, 0
11, 28323, Note_on_c, 11, 62, 86
11, 28383, Note_on_c, 11, 62, 0
11, 28443, Note_on_c, 11, 66, 100
11, 28503, Note_on_c, 11, 66, 0
11, 28683, Note_on_c, 11, 67, 100
11, 28743, Note_on_c, 11, 67, 0
11, 28803, Note_on_c, 11, 57, 100
11, 28803, Note_on_c, 11, 66, 100
11, 28923, Note_on_c, 11, 66, 0
11, 28923, Note_on_c, 11, 57, 0
11, 29163, Note_on_c, 11, 62, 86
11, 29273, Note_on_c, 11, 62, 0
11, 29283, Note_on_c, 11, 67, 86
11, 29583, Note_on_c, 11, 67, 0
11, 29583, Note_on_c, 11, 66, 86
11, 29643, Note_on_c, 11, 66, 0
11, 29643, Note_on_c, 11, 64, 86
11, 29703, Note_on_c, 11, 64, 0
11, 29703, Note_on_c, 11, 62, 86
11, 29753, Note_on_c, 11, 62, 0
11, 29763, Note_on_c, 11, 60, 86
11, 29883, Note_on_c, 11, 60, 0
11, 30243, Note_on_c, 11, 69, 86
11, 30543, Note_on_c, 11, 69, 0
11, 30543, Note_on_c, 11, 66, 86
11, 30603, Note_on_c, 11, 66, 0
11, 30603, Note_on_c, 11, 62, 86
11, 30663, Note_on_c, 11, 62, 0
11, 30663, Note_on_c, 11, 60, 86
11, 30713, Note_on_c, 11, 60, 0
11, 30723, Note_on_c, 11, 59, 86
11, 30843, Note_on_c, 11, 59, 0
11, 31203, Note_on_c, 11, 64, 100
11, 31263, Note_on_c, 11, 64, 0
11, 31323, Note_on_c, 11, 67, 100
11, 31553, Note_on_c, 11, 67, 0
11, 31563, Control_c, 11, 11, 58
11, 31563, Note_on_c, 11, 68, 100
11, 31568, Control_c, 11, 11, 61
11, 31574, Control_c, 11, 11, 64
11, 31579, Control_c, 11, 11, 67
11, 31585, Control_c, 11, 11, 70
11, 31591, Control_c, 11, 11, 73
11, 31601, Control_c, 11, 11, 70
11, 31612, Control_c, 11, 11, 67
11, 31622, Control_c, 11, 11, 64
11, 31633, Control_c, 11, 11, 61
11, 31644, Control_c, 11, 11, 58
11, 31654, Control_c, 11, 11, 55
11, 31665, Control_c, 11, 11, 52
11, 31675, Control_c, 11, 11, 49
11, 31683, Note_on_c, 11, 68, 0
11, 31683, Note_on_c, 11, 67, 100
11, 31743, Note_on_c, 11, 67, 0
11, 31803, Note_on_c, 11, 67, 100
11, 32033, Note_on_c, 11, 67, 0
11, 32043, Control_c, 11, 11, 58
11, 32043, Note_on_c, 11, 68, 100
11, 32048, Control_c, 11, 11, 61
11, 32054, Control_c, 11, 11, 64
11, 32059, Control_c, 11, 11, 67
11, 32065, Control_c, 11, 11, 70
11, 32071, Control_c, 11, 11, 73
11, 32081, Control_c, 11, 11, 70
11, 32092, Control_c, 11, 11, 67
11, 32102, Control_c, 11, 11, 64
11, 32113, Control_c, 11, 11, 61
11, 32124, Control_c, 11, 11, 58
11, 32134, Control_c, 11, 11, 55
11, 32145, Control_c, 11, 11, 52
11, 32155, Control_c, 11, 11, 49
11, 32163, Note_on_c, 11, 68, 0
11, 32163, Note_on_c, 11, 69, 100
11, 32273, Note_on_c, 11, 69, 0
11, 32283, Note_on_c, 11, 72, 100
11, 32403, Note_on_c, 11, 72, 0
11, 32403, Note_on_c, 11, 71, 100
11, 32523, Note_on_c, 11, 71, 0
11, 32523, Note_on_c, 11, 69, 100
11, 32633, Note_on_c, 11, 69, 0
11, 32643, Note_on_c, 11, 67, 100
11, 32883, Note_on_c, 11, 67, 0
11, 32883, Note_on_c, 11, 66, 100
11, 33098, Note_on_c, 11, 66, 0
11, 33118, Control_c, 11, 11, 47
11, 33119, Control_c, 11, 11, 55
11, 33120, Control_c, 11, 11, 63
11, 33121, Control_c, 11, 11, 71
11, 33122, Control_c, 11, 11, 79
11, 33123, Control_c, 11, 11, 87
11, 33123, Note_on_c, 11, 62, 110
11, 33123, Note_on_c, 11, 74, 110
11, 33143, Note_on_c, 11, 74, 0
11, 33143, Note_on_c, 11, 62, 0
11, 33153, Note_on_c, 11, 74, 110
11, 33153, Note_on_c, 11, 62, 110
11, 33173, Note_on_c, 11, 62, 0
11, 33173, Note_on_c, 11, 74, 0
11, 33183, Note_on_c, 11, 62, 110
11, 33183, Note_on_c, 11, 74, 110
11, 33203, Note_on_c, 11, 74, 0
11, 33203, Note_on_c, 11, 62, 0
11, 33213, Note_on_c, 11, 74, 110
11, 33213, Note_on_c, 11, 62, 110
11, 33233, Note_on_c, 11, 62, 0
11, 33233, Note_on_c, 11, 74, 0
11, 33243, Note_on_c, 11, 74, 110
11, 33243, Note_on_c, 11, 62, 110
11, 33303, Note_on_c, 11, 62, 0
11, 33303, Note_on_c, 11, 74, 0
11, 33363, Note_on_c, 11, 62, 110
11, 33363, Note_on_c, 11, 74, 110
11, 33383, Note_on_c, 11, 74, 0
11, 33383, Note_on_c, 11, 62, 0
11, 33393, Note_on_c, 11, 62, 110
11, 33393, Note_on_c, 11, 74, 110
11, 33413, Note_on_c, 11, 74, 0
11, 33413, Note_on_c, 11, 62, 0
11, 33423, Note_on_c, 11, 74, 110
11, 33423, Note_on_c, 11, 62, 110
11, 33443, Note_on_c, 11, 62, 0
11, 33443, Note_on_c, 11, 74, 0
11, 33453, Note_on_c, 11, 62, 110
11, 33453, Note_on_c, 11, 74, 110
11, 33473, Note_on_c, 11, 74, 0
11, 33473, Note_on_c, 11, 62, 0
11, 33483, Note_on_c, 11, 74, 110
11, 33483, Note_on_c, 11, 62, 110
11, 33543, Note_on_c, 11, 62, 0
11, 33543, Note_on_c, 11, 74, 0
11, 33603, Note_on_c, 11, 74, 110
11, 33603, Note_on_c, 11, 62, 110
11, 33623, Note_on_c, 11, 62, 0
11, 33623, Note_on_c, 11, 74, 0
11, 33633, Note_on_c, 11, 74, 110
11, 33633, Note_on_c, 11, 62, 110
11, 33653, Note_on_c, 11, 62, 0
11, 33653, Note_on_c, 11, 74, 0
11, 33663, Note_on_c, 11, 62, 110
11, 33663, Note_on_c, 11, 74, 110
11, 33683, Note_on_c, 11, 74, 0
11, 33683, Note_on_c, 11, 62, 0
11, 33693, Note_on_c, 11, 74, 110
11, 33693, Note_on_c, 11, 62, 110
11, 33713, Note_on_c, 11, 62, 0
11, 33713, Note_on_c, 11, 74, 0
11, 33723, Note_on_c, 11, 62, 110
11, 33723, Note_on_c, 11, 74, 110
11, 33783, Note_on_c, 11, 74, 0
11, 33783, Note_on_c, 11, 62, 0
11, 33843, Note_on_c, 11, 69, 110
11, 33873, Note_on_c, 11, 69, 0
11, 33903, Note_on_c, 11, 71, 110
11, 33933, Note_on_c, 11, 71, 0
11, 33963, Note_on_c, 11, 72, 110
11, 33993, Note_on_c, 11, 72, 0
11, 34023, Note_on_c, 11, 73, 110
11, 34053, Note_on_c, 11, 73, 0
11, 34083, Note_on_c, 11, 62, 110
11, 34083, Note_on_c, 11, 74, 110
11, 34103, Note_on_c, 11, 74, 0
11, 34103, Note_on_c, 11, 62, 0
11, 34113, Note_on_c, 11, 74, 110
11, 34113, Note_on_c, 11, 62, 110
11, 34133, Note_on_c, 11, 62, 0
11, 34133, Note_on_c, 11, 74, 0
11, 34143, Note_on_c, 11, 74, 110
11, 34143, Note_on_c, 11, 62, 110
11, 34163, Note_on_c, 11, 62, 0
11, 34163, Note_on_c, 11, 74, 0
11, 34173, Note_on_c, 11, 62, 110
11, 34173, Note_on_c, 11, 74, 110
11, 34193, Note_on_c, 11, 74, 0
11, 34193, Note_on_c, 11, 62, 0
11, 34203, Note_on_c, 11, 62, 110
11, 34203, Note_on_c, 11, 74, 110
11, 34263, Note_on_c, 11, 74, 0
11, 34263, Note_on_c, 11, 62, 0
11, 34323, Note_on_c, 11, 62, 110
11, 34323, Note_on_c, 11, 74, 110
11, 34343, Note_on_c, 11, 74, 0
11, 34343, Note_on_c, 11, 62, 0
11, 34353, Note_on_c, 11, 74, 110
11, 34353, Note_on_c, 11, 62, 110
11, 34373, Note_on_c, 11, 62, 0
11, 34373, Note_on_c, 11, 74, 0
11, 34383, Note_on_c, 11, 62, 110
11, 34383, Note_on_c, 11, 74, 110
11, 34403, Note_on_c, 11, 74, 0
11, 34403, Note_on_c, 11, 62, 0
11, 34413, Note_on_c, 11, 74, 110
11, 34413, Note_on_c, 11, 62, 110
11, 34433, Note_on_c, 11, 62, 0
11, 34433, Note_on_c, 11, 74, 0
11, 34443, Note_on_c, 11, 74, 110
11, 34443, Note_on_c, 11, 62, 110
11, 34503, Note_on_c, 11, 62, 0
11, 34503, Note_on_c, 11, 74, 0
11, 34563, Note_on_c, 11, 74, 110
11, 34563, Note_on_c, 11, 62, 110
11, 34583, Note_on_c, 11, 62, 0
11, 34583, Note_on_c, 11, 74, 0
11, 34593, Note_on_c, 11, 62, 110
11, 34593, Note_on_c, 11, 74, 110
11, 34613, Note_on_c, 11, 74, 0
11, 34613, Note_on_c, 11, 62, 0
11, 34623, Note_on_c, 11, 74, 110
11, 34623, Note_on_c, 11, 62, 110
11, 34643, Note_on_c, 11, 62, 0
11, 34643, Note_on_c, 11, 74, 0
11, 34653, Note_on_c, 11, 62, 110
11, 34653, Note_on_c, 11, 74, 110
11, 34673, Note_on_c, 11, 74, 0
11, 34673, Note_on_c, 11, 62, 0
11, 34683, Note_on_c, 11, 62, 110
11, 34683, Note_on_c, 11, 74, 110
11, 34743, Note_on_c, 11, 74, 0
11, 34743, Note_on_c, 11, 62, 0
11, 34803, Note_on_c, 11, 69, 110
11, 34833, Note_on_c, 11, 69, 0
11, 34863, Note_on_c, 11, 71, 110
11, 34893, Note_on_c, 11, 71, 0
11, 34923, Note_on_c, 11, 72, 110
11, 34953, Note_on_c, 11, 72, 0
11, 34983, Note_on_c, 11, 73, 110
11, 35013, Note_on_c, 11, 73, 0
11, 35043, Note_on_c, 11, 74, 110
11, 35043, Control_c, 11, 11, 107
11, 35061, Control_c, 11, 11, 104
11, 35063, Note_on_c, 11, 74, 0
11, 35073, Note_on_c, 11, 74, 110
11, 35079, Control_c, 11, 11, 101
11, 35093, Note_on_c, 11, 74, 0
11, 35097, Control_c, 11, 11, 98
11, 35103, Note_on_c, 11, 74, 110
11, 35115, Control_c, 11, 11, 95
11, 35123, Note_on_c, 11, 74, 0
11, 35133, Control_c, 11, 11, 92
11, 35133, Note_on_c, 11, 74, 110
11, 35151, Control_c, 11, 11, 89
11, 35153, Note_on_c, 11, 74, 0
11, 35163, Note_on_c, 11, 74, 110
11, 35183, Note_on_c, 11, 74, 0
11, 35193, Note_on_c, 11, 74, 110
11, 35213, Note_on_c, 11, 74, 0
11, 35223, Note_on_c, 11, 72, 110
11, 35243, Note_on_c, 11, 72, 0
11, 35253, Note_on_c, 11, 72, 110
11, 35273, Note_on_c, 11, 72, 0
11, 35283, Note_on_c, 11, 71, 110
11, 35303, Note_on_c, 11, 71, 0
11, 35313, Note_on_c, 11, 71, 110
11, 35333, Note_on_c, 11, 71, 0
11, 35343, Note_on_c, 11, 69, 110
11, 35363, Note_on_c, 11, 69, 0
11, 35373, Note_on_c, 11, 69, 110
11, 35393, Note_on_c, 11, 69, 0
11, 35403, Note_on_c, 11, 67, 110
11, 35423, Note_on_c, 11, 67, 0
11, 35433, Note_on_c, 11, 67, 110
11, 35453, Note_on_c, 11, 67, 0
11, 35463, Note_on_c, 11, 65, 110
11, 35483, Note_on_c, 11, 65, 0
11, 35493, Note_on_c, 11, 65, 110
11, 35513, Note_on_c, 11, 65, 0
11, 35523, Note_on_c, 11, 64, 110
11, 35523, Control_c, 11, 11, 107
11, 35541, Control_c, 11, 11, 104
11, 35543, Note_on_c, 11, 64, 0
11, 35553, Note_on_c, 11, 76, 110
11, 35559, Control_c, 11, 11, 101
11, 35573, Note_on_c, 11, 76, 0
11, 35577, Control_c, 11, 11, 98
11, 35583, Note_on_c, 11, 76, 110
11, 35595, Control_c, 11, 11, 95
11, 35603, Note_on_c, 11, 76, 0
11, 35613, Note_on_c, 11, 76, 110
11, 35613, Control_c, 11, 11, 92
11, 35631, Control_c, 11, 11, 89
11, 35633, Note_on_c, 11, 76, 0
11, 35643, Note_on_c, 11, 76, 110
11, 35663, Note_on_c, 11, 76, 0
11, 35673, Note_on_c, 11, 76, 110
11, 35693, Note_on_c, 11, 76, 0
11, 35703, Note_on_c, 11, 74, 110
11, 35723, Note_on_c, 11, 74, 0
11, 35733, Note_on_c, 11, 74, 110
11, 35753, Note_on_c, 11, 74, 0
11, 35763, Note_on_c, 11, 72, 110
11, 35783, Note_on_c, 11, 72, 0
11, 35793, Note_on_c, 11, 72, 110
11, 35813, Note_on_c, 11, 72, 0
11, 35823, Note_on_c, 11, 71, 110
11, 35843, Note_on_c, 11, 71, 0
11, 35853, Note_on_c, 11, 71, 110
11, 35873, Note_on_c, 11, 71, 0
11, 35883, Note_on_c, 11, 69, 110
11, 35903, Note_on_c, 11, 69, 0
11, 35913, Note_on_c, 11, 69, 110
11, 35933, Note_on_c, 11, 69, 0
11, 35943, Note_on_c, 11, 67, 110
11, 35963, Note_on_c, 11, 67, 0
11, 35973, Note_on_c, 11, 67, 110
11, 35993, Note_on_c, 11, 67, 0
11, 36003, Control_c, 11, 11, 87
11, 36003, Note_on_c, 11, 66, 110
11, 36023, Note_on_c, 11, 66, 0
11, 36033, Note_on_c, 11, 66, 110
11, 36035, Control_c, 11, 11, 88
11, 36053, Note_on_c, 11, 66, 0
11, 36063, Note_on_c, 11, 67, 110
11, 36067, Control_c, 11, 11, 89
11, 36083, Note_on_c, 11, 67, 0
11, 36093, Note_on_c, 11, 67, 110
11, 36099, Control_c, 11, 11, 90
11, 36113, Note_on_c, 11, 67, 0
11, 36123, Note_on_c, 11, 69, 110
11, 36131, Control_c, 11, 11, 91
11, 36143, Note_on_c, 11, 69, 0
11, 36153, Note_on_c, 11, 69, 110
11, 36163, Control_c, 11, 11, 92
11, 36173, Note_on_c, 11, 69, 0
11, 36183, Note_on_c, 11, 71, 110
11, 36195, Control_c, 11, 11, 93
11, 36203, Note_on_c, 11, 71, 0
11, 36213, Note_on_c, 11, 71, 110
11, 36227, Control_c, 11, 11, 94
11, 36233, Note_on_c, 11, 71, 0
11, 36243, Note_on_c, 11, 72, 110
11, 36259, Control_c, 11, 11, 95
11, 36263, Note_on_c, 11, 72, 0
11, 36273, Note_on_c, 11, 72, 110
11, 36291, Control_c, 11, 11, 96
11, 36293, Note_on_c, 11, 72, 0
11, 36303, Note_on_c, 11, 74, 110
11, 36323, Note_on_c, 11, 74, 0
11, 36323, Control_c, 11, 11, 97
11, 36333, Note_on_c, 11, 74, 110
11, 36353, Note_on_c, 11, 74, 0
11, 36355, Control_c, 11, 11, 98
11, 36363, Note_on_c, 11, 76, 110
11, 36383, Note_on_c, 11, 76, 0
11, 36387, Control_c, 11, 11, 99
11, 36393, Note_on_c, 11, 76, 110
11, 36413, Note_on_c, 11, 76, 0
11, 36419, Control_c, 11, 11, 100
11, 36423, Note_on_c, 11, 78, 110
11, 36443, Note_on_c, 11, 78, 0
11, 36451, Control_c, 11, 11, 101
11, 36453, Note_on_c, 11, 78, 110
11, 36473, Note_on_c, 11, 78, 0
11, 36483, Control_c, 11, 11, 102
11, 36483, Note_on_c, 11, 79, 110
11, 36543, Note_on_c, 11, 79, 0
11, 36603, Note_on_c, 11, 67, 110
11, 36663, Note_on_c, 11, 67, 0
11, 36723, Note_on_c, 11, 71, 110
11, 36783, Note_on_c, 11, 71, 0
11, 36843, Note_on_c, 11, 66, 110
11, 36843, Note_on_c, 11, 57, 110
11, 36903, Note_on_c, 11, 57, 0
11, 36903, Note_on_c, 11, 66, 0
11, 36963, Note_on_c, 11, 67, 110
11, 36963, Note_on_c, 11, 59, 110
11, 36963, Control_c, 11, 11, 72
11, 36993, Control_c, 11, 11, 72
11, 37008, Control_c, 11, 11, 69
11, 37023, Control_c, 11, 11, 66
11, 37039, Control_c, 11, 11, 63
11, 37054, Control_c, 11, 11, 60
11, 37070, Control_c, 11, 11, 57
11, 37073, Note_on_c, 11, 59, 0
11, 37073, Note_on_c, 11, 67, 0
11, 37083, Note_on_c, 11, 58, 100
11, 37085, Control_c, 11, 11, 54
11, 37101, Control_c, 11, 11, 51
11, 37116, Control_c, 11, 11, 48
11, 37131, Control_c, 11, 11, 45
11, 37147, Control_c, 11, 11, 42
11, 37162, Control_c, 11, 11, 39
11, 37169, Note_on_c, 11, 58, 0
11, 37203, Note_on_c, 11, 58, 100
11, 37289, Note_on_c, 11, 58, 0
11, 37323, Note_on_c, 11, 58, 100
11, 37409, Note_on_c, 11, 58, 0
11, 37443, Note_on_c, 11, 60, 100
11, 37529, Note_on_c, 11, 60, 0
11, 37563, Note_on_c, 11, 60, 100
11, 37649, Note_on_c, 11, 60, 0
11, 37683, Note_on_c, 11, 60, 100
11, 37769, Note_on_c, 11, 60, 0
11, 37803, Note_on_c, 11, 60, 100
11, 37889, Note_on_c, 11, 60, 0
11, 37923, Note_on_c, 11, 60, 100
11, 38009, Note_on_c, 11, 60, 0
11, 38043, Note_on_c, 11, 60, 100
11, 38129, Note_on_c, 11, 60, 0
11, 38163, Note_on_c, 11, 60, 100
11, 38249, Note_on_c, 11, 60, 0
11, 38283, Note_on_c, 11, 60, 100
11, 38369, Note_on_c, 11, 60, 0
11, 38403, Note_on_c, 11, 58, 100
11, 38489, Note_on_c, 11, 58, 0
11, 38523, Note_on_c, 11, 58, 100
11, 38609, Note_on_c, 11, 58, 0
11, 38643, Note_on_c, 11, 58, 100
11, 38729, Note_on_c, 11, 58, 0
11, 38763, Note_on_c, 11, 58, 100
11, 38849, Note_on_c, 11, 58, 0
11, 38883, Note_on_c, 11, 58, 100
11, 38969, Note_on_c, 11, 58, 0
11, 39003, Note_on_c, 11, 58, 100
11, 39089, Note_on_c, 11, 58, 0
11, 39123, Note_on_c, 11, 57, 100
11, 39209, Note_on_c, 11, 57, 0
11, 39243, Note_on_c, 11, 57, 100
11, 39329, Note_on_c, 11, 57, 0
11, 39363, Note_on_c, 11, 57, 100
11, 39449, Note_on_c, 11, 57, 0
11, 39483, Note_on_c, 11, 69, 100
11, 39569, Note_on_c, 11, 69, 0
11, 39603, Note_on_c, 11, 69, 100
11, 39689, Note_on_c, 11, 69, 0
11, 39723, Note_on_c, 11, 69, 101
11, 39809, Note_on_c, 11, 69, 0
11, 39843, Note_on_c, 11, 67, 102
11, 39929, Note_on_c, 11, 67, 0
11, 39963, Note_on_c, 11, 67, 103
11, 40049, Note_on_c, 11, 67, 0
11, 40083, Note_on_c, 11, 67, 104
11, 40169, Note_on_c, 11, 67, 0
11, 40203, Note_on_c, 11, 62, 105
11, 40289, Note_on_c, 11, 62, 0
11, 40323, Note_on_c, 11, 63, 106
11, 40409, Note_on_c, 11, 63, 0
11, 40443, Note_on_c, 11, 63, 107
11, 40529, Note_on_c, 11, 63, 0
11, 40563, Note_on_c, 11, 64, 108
11, 40649, Note_on_c, 11, 64, 0
11, 40683, Note_on_c, 11, 64, 109
11, 40769, Note_on_c, 11, 64, 0
11, 40803, Note_on_c, 11, 66, 110
11, 40889, Note_on_c, 11, 66, 0
11, 40923, Control_c, 11, 11, 37
11, 40923, Note_on_c, 11, 72, 110
11, 40955, Control_c, 11, 11, 38
11, 40988, Control_c, 11, 11, 39
11, 41009, Note_on_c, 11, 72, 0
11, 41021, Control_c, 11, 11, 40
11, 41043, Note_on_c, 11, 72, 110
11, 41054, Control_c, 11, 11, 41
11, 41087, Control_c, 11, 11, 42
11, 41120, Control_c, 11, 11, 43
11, 41129, Note_on_c, 11, 72, 0
11, 41153, Control_c, 11, 11, 44
11, 41163, Note_on_c, 11, 72, 110
11, 41186, Control_c, 11, 11, 45
11, 41219, Control_c, 11, 11, 46
11, 41249, Note_on_c, 11, 72, 0
11, 41252, Control_c, 11, 11, 47
11, 41283, Note_on_c, 11, 71, 110
11, 41285, Control_c, 11, 11, 48
11, 41318, Control_c, 11, 11, 49
11, 41351, Control_c, 11, 11, 50
11, 41369, Note_on_c, 11, 71, 0
11, 41384, Control_c, 11, 11, 51
11, 41403, Note_on_c, 11, 71, 110
11, 41417, Control_c, 11, 11, 52
11, 41450, Control_c, 11, 11, 53
11, 41483, Control_c, 11, 11, 54
11, 41489, Note_on_c, 11, 71, 0
11, 41516, Control_c, 11, 11, 55
11, 41523, Note_on_c, 11, 71, 110
11, 41549, Control_c, 11, 11, 56
11, 41582, Control_c, 11, 11, 57
11, 41609, Note_on_c, 11, 71, 0
11, 41615, Control_c, 11, 11, 58
11, 41643, Note_on_c, 11, 71, 110
11, 41648, Control_c, 11, 11, 59
11, 41681, Control_c, 11, 11, 60
11, 41714, Control_c, 11, 11, 61
11, 41729, Note_on_c, 11, 71, 0
11, 41747, Control_c, 11, 11, 62
11, 41763, Note_on_c, 11, 69, 110
11, 41780, Control_c, 11, 11, 63
11, 41813, Control_c, 11, 11, 64
11, 41846, Control_c, 11, 11, 65
11, 41849, Note_on_c, 11, 69, 0
11, 41879, Control_c, 11, 11, 66
11, 41883, Note_on_c, 11, 76, 110
11, 41912, Control_c, 11, 11, 67
11, 41945, Control_c, 11, 11, 68
11, 41969, Note_on_c, 11, 76, 0
11, 41978, Control_c, 11, 11, 69
11, 42003, Note_on_c, 11, 72, 110
11, 42011, Control_c, 11, 11, 70
11, 42044, Control_c, 11, 11, 71
11, 42077, Control_c, 11, 11, 72
11, 42089, Note_on_c, 11, 72, 0
11, 42110, Control_c, 11, 11, 73
11, 42123, Note_on_c, 11, 72, 110
11, 42143, Control_c, 11, 11, 74
11, 42176, Control_c, 11, 11, 75
11, 42209, Note_on_c, 11, 72, 0
11, 42209, Control_c, 11, 11, 76
11, 42242, Control_c, 11, 11, 77
11, 42243, Control_c, 11, 11, 97
11, 42243, Note_on_c, 11, 67, 110
11, 42267, Control_c, 11, 11, 95
11, 42291, Control_c, 11, 11, 93
11, 42315, Control_c, 11, 11, 91
11, 42339, Control_c, 11, 11, 89
11, 42363, Control_c, 11, 11, 87
11, 42593, Note_on_c, 11, 67, 0
11, 42603, Note_on_c, 11, 62, 110
11, 42693, Note_on_c, 11, 62, 0
11, 42693, Note_on_c, 11, 66, 110
11, 42713, Note_on_c, 11, 66, 0
11, 42723, Control_c, 11, 11, 107
11, 42723, Note_on_c, 11, 67, 110
11, 42741, Control_c, 11, 11, 104
11, 42759, Control_c, 11, 11, 101
11, 42777, Control_c, 11, 11, 98
11, 42795, Control_c, 11, 11, 95
11, 42813, Control_c, 11, 11, 92
11, 42831, Control_c, 11, 11, 89
11, 43073, Note_on_c, 11, 67, 0
11, 43083, Note_on_c, 11, 62, 110
11, 43173, Note_on_c, 11, 62, 0
11, 43173, Note_on_c, 11, 66, 110
11, 43193, Note_on_c, 11, 66, 0
11, 43203, Note_on_c, 11, 67, 110
11, 43203, Control_c, 11, 11, 107
11, 43221, Control_c, 11, 11, 104
11, 43233, Note_on_c, 11, 67, 0
11, 43239, Control_c, 11, 11, 101
11, 43257, Control_c, 11, 11, 98
11, 43263, Note_on_c, 11, 67, 110
11, 43275, Control_c, 11, 11, 95
11, 43293, Control_c, 11, 11, 92
11, 43311, Control_c, 11, 11, 89
11, 43323, Note_on_c, 11, 67, 0
11, 43323, Note_on_c, 11, 66, 110
11, 43383, Note_on_c, 11, 66, 0
11, 43383, Note_on_c, 11, 67, 110
11, 43433, Note_on_c, 11, 67, 0
11, 43443, Note_on_c, 11, 69, 110
11, 43473, Note_on_c, 11, 69, 0
11, 43503, Note_on_c, 11, 69, 110
11, 43563, Note_on_c, 11, 69, 0
11, 43563, Note_on_c, 11, 67, 110
11, 43623, Note_on_c, 11, 67, 0
11, 43623, Note_on_c, 11, 69, 110
11, 43673, Note_on_c, 11, 69, 0
11, 43683, Note_on_c, 11, 71, 110
11, 43683, Control_c, 11, 11, 107
11, 43700, Control_c, 11, 11, 104
11, 43713, Note_on_c, 11, 71, 0
11, 43718, Control_c, 11, 11, 101
11, 43736, Control_c, 11, 11, 98
11, 43743, Note_on_c, 11, 71, 110
11, 43754, Control_c, 11, 11, 95
11, 43772, Control_c, 11, 11, 92
11, 43790, Control_c, 11, 11, 89
11, 43803, Note_on_c, 11, 71, 0
11, 43803, Note_on_c, 11, 69, 110
11, 43863, Note_on_c, 11, 69, 0
11, 43863, Note_on_c, 11, 71, 110
11, 43913, Note_on_c, 11, 71, 0
11, 43923, Control_c, 11, 11, 107
11, 43923, Note_on_c, 11, 72, 110
11, 43940, Control_c, 11, 11, 104
11, 43953, Note_on_c, 11, 72, 0
11, 43958, Control_c, 11, 11, 101
11, 43976, Control_c, 11, 11, 98
11, 43983, Note_on_c, 11, 72, 110
11, 43994, Control_c, 11, 11, 95
11, 44012, Control_c, 11, 11, 92
11, 44030, Control_c, 11, 11, 89
11, 44043, Note_on_c, 11, 72, 0
11, 44043, Note_on_c, 11, 71, 110
11, 44103, Note_on_c, 11, 71, 0
11, 44103, Note_on_c, 11, 72, 110
11, 44153, Note_on_c, 11, 72, 0
11, 44163, Note_on_c, 11, 74, 110
11, 44183, Note_on_c, 11, 74, 0
11, 44193, Note_on_c, 11, 74, 110
11, 44213, Note_on_c, 11, 74, 0
11, 44223, Note_on_c, 11, 74, 110
11, 44243, Note_on_c, 11, 74, 0
11, 44253, Note_on_c, 11, 74, 110
11, 44273, Note_on_c, 11, 74, 0
11, 44283, Note_on_c, 11, 74, 110
11, 44303, Note_on_c, 11, 74, 0
11, 44313, Note_on_c, 11, 74, 110
11, 44333, Note_on_c, 11, 74, 0
11, 44343, Note_on_c, 11, 74, 110
11, 44363, Note_on_c, 11, 74, 0
11, 44373, Note_on_c, 11, 74, 110
11, 44393, Note_on_c, 11, 74, 0
11, 44403, Note_on_c, 11, 74, 110
11, 44423, Note_on_c, 11, 74, 0
11, 44433, Note_on_c, 11, 74, 110
11, 44453, Note_on_c, 11, 74, 0
11, 44463, Note_on_c, 11, 74, 110
11, 44483, Note_on_c, 11, 74, 0
11, 44493, Note_on_c, 11, 74, 110
11, 44513, Note_on_c, 11, 74, 0
11, 44523, Note_on_c, 11, 74, 110
11, 44543, Note_on_c, 11, 74, 0
11, 44553, Note_on_c, 11, 74, 110
11, 44573, Note_on_c, 11, 74, 0
11, 44583, Note_on_c, 11, 74, 110
11, 44603, Note_on_c, 11, 74, 0
11, 44613, Note_on_c, 11, 74, 110
11, 44633, Note_on_c, 11, 74, 0
11, 44643, Note_on_c, 11, 75, 110
11, 44663, Note_on_c, 11, 75, 0
11, 44673, Note_on_c, 11, 75, 110
11, 44693, Note_on_c, 11, 75, 0
11, 44703, Note_on_c, 11, 75, 110
11, 44723, Note_on_c, 11, 75, 0
11, 44733, Note_on_c, 11, 75, 110
11, 44753, Note_on_c, 11, 75, 0
11, 44763, Note_on_c, 11, 75, 110
11, 44783, Note_on_c, 11, 75, 0
11, 44793, Note_on_c, 11, 75, 110
11, 44813, Note_on_c, 11, 75, 0
11, 44823, Note_on_c, 11, 75, 110
11, 44843, Note_on_c, 11, 75, 0
11, 44853, Note_on_c, 11, 75, 110
11, 44873, Note_on_c, 11, 75, 0
11, 44883, Note_on_c, 11, 75, 110
11, 44903, Note_on_c, 11, 75, 0
11, 44913, Note_on_c, 11, 75, 110
11, 44933, Note_on_c, 11, 75, 0
11, 44943, Note_on_c, 11, 75, 110
11, 44963, Note_on_c, 11, 75, 0
11, 44973, Note_on_c, 11, 75, 110
11, 44993, Note_on_c, 11, 75, 0
11, 45003, Note_on_c, 11, 75, 110
11, 45023, Note_on_c, 11, 75, 0
11, 45033, Note_on_c, 11, 75, 110
11, 45053, Note_on_c, 11, 75, 0
11, 45063, Note_on_c, 11, 75, 110
11, 45083, Note_on_c, 11, 75, 0
11, 45093, Note_on_c, 11, 75, 110
11, 45113, Note_on_c, 11, 75, 0
11, 45123, Control_c, 11, 11, 102
11, 45123, Note_on_c, 11, 76, 110
11, 45143, Note_on_c, 11, 76, 0
11, 45153, Note_on_c, 11, 76, 110
11, 45173, Note_on_c, 11, 76, 0
11, 45183, Note_on_c, 11, 76, 110
11, 45203, Note_on_c, 11, 76, 0
11, 45213, Note_on_c, 11, 76, 110
11, 45233, Note_on_c, 11, 76, 0
11, 45243, Note_on_c, 11, 76, 110
11, 45263, Note_on_c, 11, 76, 0
11, 45273, Note_on_c, 11, 76, 110
11, 45293, Note_on_c, 11, 76, 0
11, 45303, Note_on_c, 11, 76, 110
11, 45323, Note_on_c, 11, 76, 0
11, 45333, Note_on_c, 11, 76, 110
11, 45353, Note_on_c, 11, 76, 0
11, 45363, Note_on_c, 11, 76, 110
11, 45383, Note_on_c, 11, 76, 0
11, 45393, Note_on_c, 11, 76, 110
11, 45413, Note_on_c, 11, 76, 0
11, 45423, Note_on_c, 11, 76, 110
11, 45443, Note_on_c, 11, 76, 0
11, 45453, Note_on_c, 11, 76, 110
11, 45473, Note_on_c, 11, 76, 0
11, 45483, Note_on_c, 11, 76, 110
11, 45503, Note_on_c, 11, 76, 0
11, 45513, Note_on_c, 11, 76, 110
11, 45533, Note_on_c, 11, 76, 0
11, 45543, Note_on_c, 11, 76, 110
11, 45563, Note_on_c, 11, 76, 0
11, 45573, Note_on_c, 11, 76, 110
11, 45593, Note_on_c, 11, 76, 0
11, 45603, Note_on_c, 11, 77, 110
11, 45623, Note_on_c, 11, 77, 0
11, 45633, Note_on_c, 11, 77, 110
11, 45653, Note_on_c, 11, 77, 0
11, 45663, Note_on_c, 11, 77, 110
11, 45683, Note_on_c, 11, 77, 0
11, 45693, Note_on_c, 11, 77, 110
11, 45713, Note_on_c, 11, 77, 0
11, 45723, Note_on_c, 11, 74, 110
11, 45743, Note_on_c, 11, 74, 0
11, 45753, Note_on_c, 11, 74, 110
11, 45773, Note_on_c, 11, 74, 0
11, 45783, Note_on_c, 11, 74, 110
11, 45803, Note_on_c, 11, 74, 0
11, 45813, Note_on_c, 11, 74, 110
11, 45833, Note_on_c, 11, 74, 0
11, 45843, Note_on_c, 11, 71, 110
11, 45863, Note_on_c, 11, 71, 0
11, 45873, Note_on_c, 11, 71, 110
11, 45893, Note_on_c, 11, 71, 0
11, 45903, Note_on_c, 11, 71, 110
11, 45923, Note_on_c, 11, 71, 0
11, 45933, Note_on_c, 11, 71, 110
11, 45953, Note_on_c, 11, 71, 0
11, 45963, Note_on_c, 11, 68, 110
11, 45983, Note_on_c, 11, 68, 0
11, 45993, Note_on_c, 11, 68, 110
11, 46013, Note_on_c, 11, 68, 0
11, 46023, Note_on_c, 11, 68, 110
11, 46043, Note_on_c, 11, 68, 0
11, 46053, Note_on_c, 11, 68, 110
11, 46073, Note_on_c, 11, 68, 0
11, 46083, Note_on_c, 11, 69, 110
11, 46103, Note_on_c, 11, 69, 0
11, 46113, Note_on_c, 11, 81, 110
11, 46133, Note_on_c, 11, 81, 0
11, 46143, Note_on_c, 11, 81, 110
11, 46163, Note_on_c, 11, 81, 0
11, 46173, Note_on_c, 11, 81, 110
11, 46193, Note_on_c, 11, 81, 0
11, 46203, Note_on_c, 11, 81, 110
11, 46223, Note_on_c, 11, 81, 0
11, 46233, Note_on_c, 11, 81, 110
11, 46253, Note_on_c, 11, 81, 0
11, 46263, Note_on_c, 11, 81, 110
11, 46283, Note_on_c, 11, 81, 0
11, 46293, Note_on_c, 11, 81, 110
11, 46313, Note_on_c, 11, 81, 0
11, 46323, Note_on_c, 11, 81, 110
11, 46343, Note_on_c, 11, 81, 0
11, 46353, Note_on_c, 11, 81, 110
11, 46373, Note_on_c, 11, 81, 0
11, 46383, Note_on_c, 11, 81, 110
11, 46403, Note_on_c, 11, 81, 0
11, 46413, Note_on_c, 11, 81, 110
11, 46433, Note_on_c, 11, 81, 0
11, 46443, Note_on_c, 11, 81, 110
11, 46463, Note_on_c, 11, 81, 0
11, 46473, Note_on_c, 11, 81, 110
11, 46493, Note_on_c, 11, 81, 0
11, 46503, Note_on_c, 11, 81, 110
11, 46523, Note_on_c, 11, 81, 0
11, 46533, Note_on_c, 11, 81, 110
11, 46553, Note_on_c, 11, 81, 0
11, 46563, Note_on_c, 11, 82, 110
11, 46583, Note_on_c, 11, 82, 0
11, 46593, Note_on_c, 11, 82, 110
11, 46613, Note_on_c, 11, 82, 0
11, 46623, Note_on_c, 11, 82, 110
11, 46643, Note_on_c, 11, 82, 0
11, 46653, Note_on_c, 11, 82, 110
11, 46673, Note_on_c, 11, 82, 0
11, 46683, Note_on_c, 11, 79, 110
11, 46703, Note_on_c, 11, 79, 0
11, 46713, Note_on_c, 11, 79, 110
11, 46733, Note_on_c, 11, 79, 0
11, 46743, Note_on_c, 11, 79, 110
11, 46763, Note_on_c, 11, 79, 0
11, 46773, Note_on_c, 11, 79, 110
11, 46793, Note_on_c, 11, 79, 0
11, 46803, Note_on_c, 11, 76, 110
11, 46823, Note_on_c, 11, 76, 0
11, 46833, Note_on_c, 11, 76, 110
11, 46853, Note_on_c, 11, 76, 0
11, 46863, Note_on_c, 11, 76, 110
11, 46883, Note_on_c, 11, 76, 0
11, 46893, Note_on_c, 11, 76, 110
11, 46913, Note_on_c, 11, 76, 0
11, 46923, Note_on_c, 11, 73, 110
11, 46943, Note_on_c, 11, 73, 0
11, 46953, Note_on_c, 11, 73, 110
11, 46973, Note_on_c, 11, 73, 0
11, 46983, Note_on_c, 11, 73, 110
11, 47003, Note_on_c, 11, 73, 0
11, 47013, Note_on_c, 11, 73, 110
11, 47033, Note_on_c, 11, 73, 0
11, 47043, Note_on_c, 11, 74, 110
11, 47043, Control_c, 11, 11, 122
11, 47060, Control_c, 11, 11, 119
11, 47063, Note_on_c, 11, 74, 0
11, 47073, Note_on_c, 11, 74, 110
11, 47078, Control_c, 11, 11, 116
11, 47093, Note_on_c, 11, 74, 0
11, 47096, Control_c, 11, 11, 113
11, 47103, Note_on_c, 11, 74, 110
11, 47114, Control_c, 11, 11, 110
11, 47123, Note_on_c, 11, 74, 0
11, 47132, Control_c, 11, 11, 107
11, 47133, Note_on_c, 11, 74, 110
11, 47150, Control_c, 11, 11, 104
11, 47153, Note_on_c, 11, 74, 0
11, 47163, Note_on_c, 11, 74, 110
11, 47183, Note_on_c, 11, 74, 0
11, 47193, Note_on_c, 11, 74, 110
11, 47213, Note_on_c, 11, 74, 0
11, 47223, Note_on_c, 11, 74, 110
11, 47243, Note_on_c, 11, 74, 0
11, 47253, Note_on_c, 11, 74, 110
11, 47273, Note_on_c, 11, 74, 0
11, 47283, Control_c, 11, 11, 122
11, 47283, Note_on_c, 11, 76, 110
11, 47300, Control_c, 11, 11, 119
11, 47303, Note_on_c, 11, 76, 0
11, 47313, Note_on_c, 11, 76, 110
11, 47318, Control_c, 11, 11, 116
11, 47333, Note_on_c, 11, 76, 0
11, 47336, Control_c, 11, 11, 113
11, 47343, Note_on_c, 11, 76, 110
11, 47354, Control_c, 11, 11, 110
11, 47363, Note_on_c, 11, 76, 0
11, 47372, Control_c, 11, 11, 107
11, 47373, Note_on_c, 11, 76, 110
11, 47390, Control_c, 11, 11, 104
11, 47393, Note_on_c, 11, 76, 0
11, 47403, Note_on_c, 11, 76, 110
11, 47423, Note_on_c, 11, 76, 0
11, 47433, Note_on_c, 11, 76, 110
11, 47453, Note_on_c, 11, 76, 0
11, 47463, Note_on_c, 11, 76, 110
11, 47483, Note_on_c, 11, 76, 0
11, 47493, Note_on_c, 11, 76, 110
11, 47513, Note_on_c, 11, 76, 0
11, 47523, Note_on_c, 11, 72, 110
11, 47523, Control_c, 11, 11, 122
11, 47540, Control_c, 11, 11, 119
11, 47543, Note_on_c, 11, 72, 0
11, 47553, Note_on_c, 11, 72, 110
11, 47558, Control_c, 11, 11, 116
11, 47573, Note_on_c, 11, 72, 0
11, 47576, Control_c, 11, 11, 113
11, 47583, Note_on_c, 11, 72, 110
11, 47594, Control_c, 11, 11, 110
11, 47603, Note_on_c, 11, 72, 0
11, 47612, Control_c, 11, 11, 107
11, 47613, Note_on_c, 11, 72, 110
11, 47630, Control_c, 11, 11, 104
11, 47633, Note_on_c, 11, 72, 0
11, 47643, Note_on_c, 11, 72, 110
11, 47663, Note_on_c, 11, 72, 0
11, 47673, Note_on_c, 11, 72, 110
11, 47693, Note_on_c, 11, 72, 0
11, 47703, Note_on_c, 11, 72, 110
11, 47723, Note_on_c, 11, 72, 0
11, 47733, Note_on_c, 11, 72, 110
11, 47753, Note_on_c, 11, 72, 0
11, 47763, Note_on_c, 11, 74, 110
11, 47763, Control_c, 11, 11, 122
11, 47780, Control_c, 11, 11, 119
11, 47783, Note_on_c, 11, 74, 0
11, 47793, Note_on_c, 11, 74, 110
11, 47798, Control_c, 11, 11, 116
11, 47813, Note_on_c, 11, 74, 0
11, 47816, Control_c, 11, 11, 113
11, 47823, Note_on_c, 11, 74, 110
11, 47834, Control_c, 11, 11, 110
11, 47843, Note_on_c, 11, 74, 0
11, 47852, Control_c, 11, 11, 107
11, 47853, Note_on_c, 11, 74, 110
11, 47870, Control_c, 11, 11, 104
11, 47873, Note_on_c, 11, 74, 0
11, 47883, Note_on_c, 11, 74, 110
11, 47903, Note_on_c, 11, 74, 0
11, 47913, Note_on_c, 11, 74, 110
11, 47933, Note_on_c, 11, 74, 0
11, 47943, Note_on_c, 11, 74, 110
11, 47963, Note_on_c, 11, 74, 0
11, 47973, Note_on_c, 11, 74, 110
11, 47993, Note_on_c, 11, 74, 0
11, 48003, Control_c, 11, 11, 87
11, 48003, Note_on_c, 11, 67, 110
11, 48012, Control_c, 11, 11, 84
11, 48021, Control_c, 11, 11, 81
11, 48030, Control_c, 11, 11, 78
11, 48039, Control_c, 11, 11, 75
11, 48048, Control_c, 11, 11, 72
11, 48057, Control_c, 11, 11, 69
11, 48063, Note_on_c, 11, 67, 0
11, 48063, Note_on_c, 11, 55, 110
11, 48066, Control_c, 11, 11, 66
11, 48075, Control_c, 11, 11, 63
11, 48084, Control_c, 11, 11, 60
11, 48093, Control_c, 11, 11, 57
11, 48102, Control_c, 11, 11, 54
11, 48111, Control_c, 11, 11, 51
11, 48120, Control_c, 11, 11, 48
11, 48123, Note_on_c, 11, 55, 0
11, 48123, Note_on_c, 11, 67, 110
11, 48183, Note_on_c, 11, 67, 0
11, 48183, Note_on_c, 11, 55, 110
11, 48233, Note_on_c, 11, 55, 0
11, 48243, Note_on_c, 11, 67, 110
11, 48303, Note_on_c, 11, 67, 0
11, 48303, Note_on_c, 11, 55, 110
11, 48363, Note_on_c, 11, 55, 0
11, 48363, Note_on_c, 11, 67, 110
11, 48423, Note_on_c, 11, 67, 0
11, 48423, Note_on_c, 11, 55, 110
11, 48473, Note_on_c, 11, 55, 0
11, 48483, Note_on_c, 11, 67, 110
11, 48543, Note_on_c, 11, 67, 0
11, 48543, Note_on_c, 11, 55, 110
11, 48603, Note_on_c, 11, 55, 0
11, 48603, Note_on_c, 11, 67, 110
11, 48663, Note_on_c, 11, 67, 0
11, 48663, Note_on_c, 11, 55, 110
11, 48713, Note_on_c, 11, 55, 0
11, 48723, Note_on_c, 11, 67, 110
11, 48783, Note_on_c, 11, 67, 0
11, 48783, Note_on_c, 11, 55, 110
11, 48843, Note_on_c, 11, 55, 0
11, 48843, Control_c, 11, 11, 63
11, 48843, Note_on_c, 11, 66, 110
11, 48849, Control_c, 11, 11, 66
11, 48856, Control_c, 11, 11, 69
11, 48864, Control_c, 11, 11, 72
11, 48879, Control_c, 11, 11, 71
11, 48897, Control_c, 11, 11, 68
11, 48903, Note_on_c, 11, 66, 0
11, 48903, Note_on_c, 11, 57, 110
11, 48915, Control_c, 11, 11, 65
11, 48933, Control_c, 11, 11, 62
11, 48951, Control_c, 11, 11, 59
11, 48953, Note_on_c, 11, 57, 0
11, 48963, Note_on_c, 11, 67, 110
11, 48963, Control_c, 11, 11, 47
11, 48969, Control_c, 11, 11, 56
11, 48987, Control_c, 11, 11, 53
11, 49005, Control_c, 11, 11, 50
11, 49023, Note_on_c, 11, 67, 0
11, 49023, Note_on_c, 11, 55, 110
11, 49083, Note_on_c, 11, 55, 0
11, 49083, Note_on_c, 11, 67, 110
11, 49143, Note_on_c, 11, 67, 0
11, 49143, Note_on_c, 11, 55, 110
11, 49193, Note_on_c, 11, 55, 0
11, 49203, Note_on_c, 11, 67, 110
11, 49263, Note_on_c, 11, 67, 0
11, 49263, Note_on_c, 11, 55, 110
11, 49323, Note_on_c, 11, 55, 0
11, 49323, Note_on_c, 11, 67, 110
11, 49383, Note_on_c, 11, 67, 0
11, 49383, Note_on_c, 11, 55, 110
11, 49433, Note_on_c, 11, 55, 0
11, 49443, Note_on_c, 11, 67, 110
11, 49503, Note_on_c, 11, 67, 0
11, 49503, Note_on_c, 11, 55, 110
11, 49563, Note_on_c, 11, 55, 0
11, 49563, Note_on_c, 11, 67, 110
11, 49623, Note_on_c, 11, 67, 0
11, 49623, Note_on_c, 11, 55, 110
11, 49673, Note_on_c, 11, 55, 0
11, 49683, Note_on_c, 11, 67, 110
11, 49743, Note_on_c, 11, 67, 0
11, 49743, Note_on_c, 11, 55, 110
11, 49803, Note_on_c, 11, 55, 0
11, 49803, Control_c, 11, 11, 63
11, 49803, Note_on_c, 11, 66, 110
11, 49809, Control_c, 11, 11, 66
11, 49816, Control_c, 11, 11, 69
11, 49824, Control_c, 11, 11, 72
11, 49839, Control_c, 11, 11, 71
11, 49857, Control_c, 11, 11, 68
11, 49863, Note_on_c, 11, 66, 0
11, 49863, Note_on_c, 11, 57, 110
11, 49875, Control_c, 11, 11, 65
11, 49893, Control_c, 11, 11, 62
11, 49911, Control_c, 11, 11, 59
11, 49913, Note_on_c, 11, 57, 0
11, 49923, Note_on_c, 11, 67, 110
11, 49923, Control_c, 11, 11, 47
11, 49929, Control_c, 11, 11, 56
11, 49947, Control_c, 11, 11, 53
11, 49965, Control_c, 11, 11, 50
11, 49983, Note_on_c, 11, 67, 0
11, 49983, Note_on_c, 11, 55, 110
11, 50043, Note_on_c, 11, 55, 0
11, 50043, Note_on_c, 11, 67, 110
11, 50103, Note_on_c, 11, 67, 0
11, 50103, Note_on_c, 11, 55, 110
11, 50153, Note_on_c, 11, 55, 0
11, 50163, Note_on_c, 11, 67, 110
11, 50223, Note_on_c, 11, 67, 0
11, 50223, Note_on_c, 11, 55, 110
11, 50283, Note_on_c, 11, 55, 0
11, 50283, Note_on_c, 11, 60, 110
11, 50283, Control_c, 11, 11, 63
11, 50289, Control_c, 11, 11, 66
11, 50296, Control_c, 11, 11, 69
11, 50304, Control_c, 11, 11, 72
11, 50319, Control_c, 11, 11, 71
11, 50337, Control_c, 11, 11, 68
11, 50343, Note_on_c, 11, 60, 0
11, 50343, Note_on_c, 11, 62, 110
11, 50355, Control_c, 11, 11, 65
11, 50373, Control_c, 11, 11, 62
11, 50391, Control_c, 11, 11, 59
11, 50393, Note_on_c, 11, 62, 0
11, 50403, Control_c, 11, 11, 47
11, 50403, Control_c, 11, 11, 57
11, 50403, Note_on_c, 11, 59, 110
11, 50421, Control_c, 11, 11, 54
11, 50439, Control_c, 11, 11, 51
11, 50457, Control_c, 11, 11, 48
11, 50463, Note_on_c, 11, 59, 0
11, 50463, Note_on_c, 11, 55, 110
11, 50523, Note_on_c, 11, 55, 0
11, 50523, Note_on_c, 11, 67, 110
11, 50583, Note_on_c, 11, 67, 0
11, 50583, Note_on_c, 11, 55, 110
11, 50643, Note_on_c, 11, 55, 0
11, 50643, Note_on_c, 11, 67, 110
11, 50703, Note_on_c, 11, 67, 0
11, 50703, Note_on_c, 11, 55, 110
11, 50753, Note_on_c, 11, 55, 0
11, 50758, Control_c, 11, 11, 67
11, 50759, Control_c, 11, 11, 74
11, 50760, Control_c, 11, 11, 81
11, 50761, Control_c, 11, 11, 88
11, 50762, Control_c, 11, 11, 95
11, 50763, Note_on_c, 11, 62, 110
11, 50763, Note_on_c, 11, 72, 110
11, 50763, Control_c, 11, 11, 102
11, 50823, Note_on_c, 11, 72, 0
11, 50823, Note_on_c, 11, 62, 0
11, 50883, Note_on_c, 11, 55, 95
11, 50883, Note_on_c, 11, 62, 95
11, 50893, Note_on_c, 11, 71, 95
11, 50943, Note_on_c, 11, 62, 0
11, 50943, Note_on_c, 11, 55, 0
11, 50953, Note_on_c, 11, 71, 0
11, 51843, Note_on_c, 11, 55, 86
11, 51843, Note_on_c, 11, 62, 86
11, 51853, Note_on_c, 11, 71, 86
11, 51963, Note_on_c, 11, 62, 0
11, 51963, Note_on_c, 11, 55, 0
11, 51973, Note_on_c, 11, 71, 0
11, 52683, Note_on_c, 11, 55, 100
11, 52683, Control_c, 11, 11, 47
11, 52773, Note_on_c, 11, 55, 0
11, 52773, Note_on_c, 11, 59, 100
11, 52793, Note_on_c, 11, 59, 0
11, 52803, Note_on_c, 11, 60, 90
11, 52923, Note_on_c, 11, 60, 0
11, 53283, Note_on_c, 11, 55, 67
11, 53403, Note_on_c, 11, 55, 0
11, 53763, Note_on_c, 11, 55, 67
11, 53883, Note_on_c, 11, 55, 0
11, 54003, Note_on_c, 11, 55, 67
11, 54123, Note_on_c, 11, 55, 0
11, 54243, Note_on_c, 11, 55, 67
11, 54363, Note_on_c, 11, 55, 0
11, 55563, Note_on_c, 11, 69, 110
11, 55593, Note_on_c, 11, 69, 0
11, 55593, Note_on_c, 11, 67, 110
11, 55623, Note_on_c, 11, 67, 0
11, 55623, Note_on_c, 11, 65, 110
11, 55653, Note_on_c, 11, 65, 0
11, 55653, Note_on_c, 11, 64, 110
11, 55683, Note_on_c, 11, 64, 0
11, 55683, Note_on_c, 11, 62, 110
11, 55803, Note_on_c, 11, 62, 0
11, 56163, Note_on_c, 11, 57, 78
11, 56283, Note_on_c, 11, 57, 0
11, 56643, Note_on_c, 11, 57, 78
11, 56763, Note_on_c, 11, 57, 0
11, 56883, Note_on_c, 11, 57, 78
11, 57003, Note_on_c, 11, 57, 0
11, 57123, Note_on_c, 11, 57, 78
11, 57243, Note_on_c, 11, 57, 0
11, 57603, Note_on_c, 11, 62, 110
11, 57603, Control_c, 11, 11, 32
11, 57614, Control_c, 11, 11, 35
11, 57625, Control_c, 11, 11, 38
11, 57636, Control_c, 11, 11, 41
11, 57648, Control_c, 11, 11, 44
11, 57659, Control_c, 11, 11, 47
11, 57699, Control_c, 11, 11, 50
11, 57731, Control_c, 11, 11, 51
11, 57763, Control_c, 11, 11, 52
11, 57795, Control_c, 11, 11, 53
11, 57827, Control_c, 11, 11, 54
11, 57859, Control_c, 11, 11, 55
11, 57891, Control_c, 11, 11, 56
11, 57923, Control_c, 11, 11, 57
11, 57955, Control_c, 11, 11, 58
11, 57987, Control_c, 11, 11, 59
11, 58019, Control_c, 11, 11, 60
11, 58051, Control_c, 11, 11, 61
11, 58083, Note_on_c, 11, 62, 0
11, 58083, Note_on_c, 11, 62, 110
11, 58083, Control_c, 11, 11, 62
11, 58098, Note_on_c, 11, 62, 0
11, 58098, Note_on_c, 11, 60, 110
11, 58113, Note_on_c, 11, 60, 0
11, 58113, Note_on_c, 11, 62, 110
11, 58115, Control_c, 11, 11, 63
11, 58128, Note_on_c, 11, 62, 0
11, 58128, Note_on_c, 11, 60, 110
11, 58143, Note_on_c, 11, 60, 0
11, 58143, Note_on_c, 11, 62, 110
11, 58147, Control_c, 11, 11, 64
11, 58158, Note_on_c, 11, 62, 0
11, 58158, Note_on_c, 11, 60, 110
11, 58173, Note_on_c, 11, 60, 0
11, 58173, Note_on_c, 11, 62, 110
11, 58179, Control_c, 11, 11, 65
11, 58188, Note_on_c, 11, 62, 0
11, 58188, Note_on_c, 11, 60, 110
11, 58203, Note_on_c, 11, 60, 0
11, 58203, Note_on_c, 11, 62, 110
11, 58211, Control_c, 11, 11, 66
11, 58218, Note_on_c, 11, 62, 0
11, 58218, Note_on_c, 11, 60, 110
11, 58233, Note_on_c, 11, 60, 0
11, 58233, Note_on_c, 11, 62, 110
11, 58243, Control_c, 11, 11, 67
11, 58248, Note_on_c, 11, 62, 0
11, 58248, Note_on_c, 11, 60, 110
11, 58263, Note_on_c, 11, 60, 0
11, 58263, Note_on_c, 11, 62, 110
11, 58275, Control_c, 11, 11, 68
11, 58278, Note_on_c, 11, 62, 0
11, 58278, Note_on_c, 11, 60, 110
11, 58293, Note_on_c, 11, 60, 0
11, 58293, Note_on_c, 11, 62, 110
11, 58307, Control_c, 11, 11, 69
11, 58308, Note_on_c, 11, 62, 0
11, 58308, Note_on_c, 11, 60, 110
11, 58323, Note_on_c, 11, 60, 0
11, 58323, Note_on_c, 11, 62, 110
11, 58338, Note_on_c, 11, 62, 0
11, 58338, Note_on_c, 11, 60, 110
11, 58339, Control_c, 11, 11, 70
11, 58353, Note_on_c, 11, 60, 0
11, 58353, Note_on_c, 11, 62, 110
11, 58368, Note_on_c, 11, 62, 0
11, 58368, Note_on_c, 11, 60, 110
11, 58371, Control_c, 11, 11, 71
11, 58383, Note_on_c, 11, 60, 0
11, 58383, Note_on_c, 11, 62, 110
11, 58398, Note_on_c, 11, 62, 0
11, 58398, Note_on_c, 11, 60, 110
11, 58403, Control_c, 11, 11, 72
11, 58413, Note_on_c, 11, 60, 0
11, 58413, Note_on_c, 11, 62, 110
11, 58428, Note_on_c, 11, 62, 0
11, 58428, Note_on_c, 11, 60, 110
11, 58435, Control_c, 11, 11, 73
11, 58443, Note_on_c, 11, 60, 0
11, 58443, Note_on_c, 11, 62, 110
11, 58458, Note_on_c, 11, 62, 0
11, 58458, Note_on_c, 11, 60, 110
11, 58467, Control_c, 11, 11, 74
11, 58473, Note_on_c, 11, 60, 0
11, 58473, Note_on_c, 11, 62, 110
11, 58488, Note_on_c, 11, 62, 0
11, 58488, Note_on_c, 11, 60, 110
11, 58499, Control_c, 11, 11, 75
11, 58503, Note_on_c, 11, 60, 0
11, 58503, Note_on_c, 11, 59, 110
11, 58531, Control_c, 11, 11, 76
11, 58533, Note_on_c, 11, 59, 0
11, 58533, Note_on_c, 11, 60, 110
11, 58563, Note_on_c, 11, 60, 0
11, 58563, Control_c, 11, 11, 84
11, 58563, Note_on_c, 11, 59, 110
11, 58568, Control_c, 11, 11, 87
11, 58573, Control_c, 11, 11, 90
11, 58578, Control_c, 11, 11, 93
11, 58598, Control_c, 11, 11, 91
11, 58616, Control_c, 11, 11, 88
11, 58634, Control_c, 11, 11, 85
11, 58652, Control_c, 11, 11, 82
11, 58670, Control_c, 11, 11, 79
11, 58683, Control_c, 11, 11, 67
11, 58833, Control_c, 11, 11, 67
11, 58839, Control_c, 11, 11, 64
11, 58845, Control_c, 11, 11, 61
11, 58851, Control_c, 11, 11, 58
11, 58857, Control_c, 11, 11, 55
11, 58863, Control_c, 11, 11, 52
11, 58869, Control_c, 11, 11, 49
11, 58871, Note_on_c, 11, 59, 0
11, 59403, Control_c, 11, 11, 67
11, 59403, Note_on_c, 11, 55, 110
11, 59493, Note_on_c, 11, 55, 0
11, 59493, Note_on_c, 11, 59, 110
11, 59523, Note_on_c, 11, 59, 0
11, 59523, Control_c, 11, 11, 97
11, 59523, Note_on_c, 11, 62, 110
11, 59541, Control_c, 11, 11, 94
11, 59559, Control_c, 11, 11, 91
11, 59577, Control_c, 11, 11, 88
11, 59595, Control_c, 11, 11, 85
11, 59613, Control_c, 11, 11, 82
11, 59631, Control_c, 11, 11, 79
11, 59793, Control_c, 11, 11, 67
11, 59799, Control_c, 11, 11, 64
11, 59805, Control_c, 11, 11, 61
11, 59811, Control_c, 11, 11, 58
11, 59817, Control_c, 11, 11, 55
11, 59823, Control_c, 11, 11, 52
11, 59829, Control_c, 11, 11, 49
11, 59831, Note_on_c, 11, 62, 0
11, 60363, Note_on_c, 11, 59, 110
11, 60363, Control_c, 11, 11, 67
11, 60453, Note_on_c, 11, 59, 0
11, 60453, Note_on_c, 11, 62, 110
11, 60483, Note_on_c, 11, 62, 0
11, 60483, Note_on_c, 11, 65, 110
11, 60483, Control_c, 11, 11, 97
11, 60501, Control_c, 11, 11, 94
11, 60519, Control_c, 11, 11, 91
11, 60537, Control_c, 11, 11, 88
11, 60555, Control_c, 11, 11, 85
11, 60573, Control_c, 11, 11, 82
11, 60591, Control_c, 11, 11, 79
11, 60753, Control_c, 11, 11, 67
11, 60759, Control_c, 11, 11, 64
11, 60765, Control_c, 11, 11, 61
11, 60771, Control_c, 11, 11, 58
11, 60777, Control_c, 11, 11, 55
11, 60783, Control_c, 11, 11, 52
11, 60789, Control_c, 11, 11, 49
11, 60791, Note_on_c, 11, 65, 0
11, 60843, Control_c, 11, 11, 67
11, 60843, Note_on_c, 11, 71, 100
11, 60933, Note_on_c, 11, 71, 0
11, 60933, Note_on_c, 11, 74, 100
11, 60963, Note_on_c, 11, 74, 0
11, 60963, Note_on_c, 11, 77, 100
11, 60963, Control_c, 11, 11, 77
11, 60982, Control_c, 11, 11, 78
11, 60993, Note_on_c, 11, 77, 0
11, 61001, Control_c, 11, 11, 79
11, 61020, Control_c, 11, 11, 80
11, 61023, Note_on_c, 11, 74, 100
11, 61039, Control_c, 11, 11, 81
11, 61053, Note_on_c, 11, 74, 0
11, 61058, Control_c, 11, 11, 82
11, 61077, Control_c, 11, 11, 83
11, 61083, Note_on_c, 11, 71, 100
11, 61097, Control_c, 11, 11, 84
11, 61113, Note_on_c, 11, 71, 0
11, 61116, Control_c, 11, 11, 85
11, 61135, Control_c, 11, 11, 86
11, 61143, Note_on_c, 11, 67, 100
11, 61154, Control_c, 11, 11, 87
11, 61173, Note_on_c, 11, 67, 0
11, 61173, Control_c, 11, 11, 88
11, 61192, Control_c, 11, 11, 89
11, 61203, Note_on_c, 11, 65, 100
11, 61212, Control_c, 11, 11, 90
11, 61231, Control_c, 11, 11, 91
11, 61233, Note_on_c, 11, 65, 0
11, 61250, Control_c, 11, 11, 92
11, 61263, Note_on_c, 11, 62, 100
11, 61269, Control_c, 11, 11, 93
11, 61288, Control_c, 11, 11, 94
11, 61293, Note_on_c, 11, 62, 0
11, 61307, Control_c, 11, 11, 95
11, 61323, Note_on_c, 11, 59, 100
11, 61327, Control_c, 11, 11, 96
11, 61346, Control_c, 11, 11, 97
11, 61353, Note_on_c, 11, 59, 0
11, 61365, Control_c, 11, 11, 98
11, 61383, Note_on_c, 11, 55, 100
11, 61384, Control_c, 11, 11, 99
11, 61403, Control_c, 11, 11, 100
11, 61413, Note_on_c, 11, 55, 0
11, 61422, Control_c, 11, 11, 101
11, 61442, Control_c, 11, 11, 102
11, 61443, Note_on_c, 11, 60, 100
11, 61503, Note_on_c, 11, 60, 0
11, 61683, Note_on_c, 11, 65, 100
11, 61693, Note_on_c, 11, 81, 100
11, 61693, Note_on_c, 11, 72, 100
11, 61743, Note_on_c, 11, 65, 0
11, 61753, Note_on_c, 11, 72, 0
11, 61753, Note_on_c, 11, 81, 0
11, 61923, Note_on_c, 11, 64, 100
11, 61933, Note_on_c, 11, 79, 100
11, 61933, Note_on_c, 11, 72, 100
11, 61983, Note_on_c, 11, 64, 0
11, 61993, Note_on_c, 11, 72, 0
11, 61993, Note_on_c, 11, 79, 0
11, 62163, Note_on_c, 11, 55, 100
11, 62173, Note_on_c, 11, 62, 100
11, 62173, Note_on_c, 11, 71, 100
11, 62223, Note_on_c, 11, 55, 0
11, 62233, Note_on_c, 11, 71, 0
11, 62233, Note_on_c, 11, 62, 0
11, 62403, Note_on_c, 11, 55, 100
11, 62413, Note_on_c, 11, 64, 100
11, 62413, Note_on_c, 11, 72, 100
11, 62753, Note_on_c, 11, 55, 0
11, 62763, Note_on_c, 11, 64, 0
11, 62763, Note_on_c, 11, 64, 100
11, 62773, Note_on_c, 11, 72, 0
11, 62873, Note_on_c, 11, 64, 0
11, 62883, Control_c, 11, 11, 122
11, 62883, Note_on_c, 11, 67, 100
11, 62901, Control_c, 11, 11, 119
11, 62919, Control_c, 11, 11, 116
11, 62937, Control_c, 11, 11, 113
11, 62955, Control_c, 11, 11, 110
11, 62973, Control_c, 11, 11, 107
11, 62991, Control_c, 11, 11, 104
11, 63233, Note_on_c, 11, 67, 0
11, 63243, Note_on_c, 11, 65, 100
11, 63273, Note_on_c, 11, 65, 0
11, 63273, Note_on_c, 11, 64, 100
11, 63303, Note_on_c, 11, 64, 0
11, 63303, Note_on_c, 11, 62, 100
11, 63333, Note_on_c, 11, 62, 0
11, 63333, Note_on_c, 11, 60, 100
11, 63353, Note_on_c, 11, 60, 0
11, 63363, Note_on_c, 11, 59, 78
11, 63413, Note_on_c, 11, 59, 0
11, 63423, Note_on_c, 11, 62, 78
11, 63423, Note_on_c, 11, 59, 78
11, 63473, Note_on_c, 11, 59, 0
11, 63473, Note_on_c, 11, 62, 0
11, 63483, Note_on_c, 11, 62, 78
11, 63483, Note_on_c, 11, 59, 78
11, 63533, Note_on_c, 11, 59, 0
11, 63533, Note_on_c, 11, 62, 0
11, 63543, Note_on_c, 11, 62, 78
11, 63543, Note_on_c, 11, 59, 78
11, 63593, Note_on_c, 11, 59, 0
11, 63593, Note_on_c, 11, 62, 0
11, 63603, Note_on_c, 11, 59, 78
11, 63603, Note_on_c, 11, 62, 78
11, 63653, Note_on_c, 11, 62, 0
11, 63653, Note_on_c, 11, 59, 0
11, 63663, Note_on_c, 11, 62, 78
11, 63663, Note_on_c, 11, 59, 78
11, 63713, Note_on_c, 11, 59, 0
11, 63713, Note_on_c, 11, 62, 0
11, 63723, Note_on_c, 11, 62, 78
11, 63723, Note_on_c, 11, 59, 78
11, 63773, Note_on_c, 11, 59, 0
11, 63773, Note_on_c, 11, 62, 0
11, 63783, Note_on_c, 11, 62, 78
11, 63783, Note_on_c, 11, 59, 78
11, 63833, Note_on_c, 11, 59, 0
11, 63833, Note_on_c, 11, 62, 0
11, 63843, Note_on_c, 11, 62, 78
11, 63843, Note_on_c, 11, 59, 78
11, 63893, Note_on_c, 11, 59, 0
11, 63893, Note_on_c, 11, 62, 0
11, 63903, Note_on_c, 11, 59, 78
11, 63903, Note_on_c, 11, 62, 78
11, 63953, Note_on_c, 11, 62, 0
11, 63953, Note_on_c, 11, 59, 0
11, 63963, Note_on_c, 11, 59, 78
11, 63963, Note_on_c, 11, 62, 78
11, 64013, Note_on_c, 11, 62, 0
11, 64013, Note_on_c, 11, 59, 0
11, 64023, Note_on_c, 11, 59, 78
11, 64023, Note_on_c, 11, 62, 78
11, 64073, Note_on_c, 11, 62, 0
11, 64073, Note_on_c, 11, 59, 0
11, 64083, Note_on_c, 11, 59, 78
11, 64083, Note_on_c, 11, 62, 78
11, 64133, Note_on_c, 11, 62, 0
11, 64133, Note_on_c, 11, 59, 0
11, 64143, Note_on_c, 11, 59, 78
11, 64143, Note_on_c, 11, 62, 78
11, 64193, Note_on_c, 11, 62, 0
11, 64193, Note_on_c, 11, 59, 0
11, 64203, Note_on_c, 11, 62, 78
11, 64203, Note_on_c, 11, 59, 78
11, 64253, Note_on_c, 11, 59, 0
11, 64253, Note_on_c, 11, 62, 0
11, 64263, Note_on_c, 11, 59, 78
11, 64263, Note_on_c, 11, 62, 78
11, 64313, Note_on_c, 11, 62, 0
11, 64313, Note_on_c, 11, 59, 0
11, 64323, Note_on_c, 11, 60, 100
11, 64383, Note_on_c, 11, 60, 0
11, 64383, Note_on_c, 11, 59, 100
11, 64433, Note_on_c, 11, 59, 0
11, 64443, Note_on_c, 11, 60, 100
11, 64473, Note_on_c, 11, 60, 0
11, 64503, Note_on_c, 11, 62, 100
11, 64533, Note_on_c, 11, 62, 0
11, 64563, Note_on_c, 11, 64, 100
11, 64623, Note_on_c, 11, 64, 0
11, 64623, Note_on_c, 11, 62, 100
11, 64673, Note_on_c, 11, 62, 0
11, 64683, Note_on_c, 11, 64, 100
11, 64713, Note_on_c, 11, 64, 0
11, 64743, Note_on_c, 11, 65, 100
11, 64773, Note_on_c, 11, 65, 0
11, 64803, Note_on_c, 11, 67, 100
11, 64803, Control_c, 11, 11, 122
11, 64821, Control_c, 11, 11, 119
11, 64839, Control_c, 11, 11, 116
11, 64857, Control_c, 11, 11, 113
11, 64863, Note_on_c, 11, 67, 0
11, 64863, Note_on_c, 11, 66, 100
11, 64875, Control_c, 11, 11, 110
11, 64893, Control_c, 11, 11, 107
11, 64911, Control_c, 11, 11, 104
11, 64913, Note_on_c, 11, 66, 0
11, 64923, Note_on_c, 11, 67, 100
11, 64953, Note_on_c, 11, 67, 0
11, 64983, Note_on_c, 11, 66, 100
11, 65013, Note_on_c, 11, 66, 0
11, 65043, Note_on_c, 11, 67, 100
11, 65103, Note_on_c, 11, 67, 0
11, 65103, Note_on_c, 11, 64, 100
11, 65153, Note_on_c, 11, 64, 0
11, 65163, Note_on_c, 11, 62, 100
11, 65193, Note_on_c, 11, 62, 0
11, 65223, Note_on_c, 11, 60, 100
11, 65253, Note_on_c, 11, 60, 0
11, 65283, Note_on_c, 11, 59, 78
11, 65333, Note_on_c, 11, 59, 0
11, 65343, Note_on_c, 11, 62, 78
11, 65343, Note_on_c, 11, 59, 78
11, 65393, Note_on_c, 11, 59, 0
11, 65393, Note_on_c, 11, 62, 0
11, 65403, Note_on_c, 11, 62, 78
11, 65403, Note_on_c, 11, 59, 78
11, 65453, Note_on_c, 11, 59, 0
11, 65453, Note_on_c, 11, 62, 0
11, 65463, Note_on_c, 11, 62, 78
11, 65463, Note_on_c, 11, 59, 78
11, 65513, Note_on_c, 11, 59, 0
11, 65513, Note_on_c, 11, 62, 0
11, 65523, Note_on_c, 11, 59, 78
11, 65523, Note_on_c, 11, 62, 78
11, 65573, Note_on_c, 11, 62, 0
11, 65573, Note_on_c, 11, 59, 0
11, 65583, Note_on_c, 11, 62, 78
11, 65583, Note_on_c, 11, 59, 78
11, 65633, Note_on_c, 11, 59, 0
11, 65633, Note_on_c, 11, 62, 0
11, 65643, Note_on_c, 11, 59, 78
11, 65643, Note_on_c, 11, 62, 78
11, 65693, Note_on_c, 11, 62, 0
11, 65693, Note_on_c, 11, 59, 0
11, 65703, Note_on_c, 11, 62, 78
11, 65703, Note_on_c, 11, 59, 78
11, 65753, Note_on_c, 11, 59, 0
11, 65753, Note_on_c, 11, 62, 0
11, 65763, Note_on_c, 11, 59, 78
11, 65763, Note_on_c, 11, 62, 78
11, 65813, Note_on_c, 11, 62, 0
11, 65813, Note_on_c, 11, 59, 0
11, 65823, Note_on_c, 11, 59, 78
11, 65823, Note_on_c, 11, 62, 78
11, 65873, Note_on_c, 11, 62, 0
11, 65873, Note_on_c, 11, 59, 0
11, 65883, Note_on_c, 11, 62, 78
11, 65883, Note_on_c, 11, 59, 78
11, 65933, Note_on_c, 11, 59, 0
11, 65933, Note_on_c, 11, 62, 0
11, 65943, Note_on_c, 11, 62, 78
11, 65943, Note_on_c, 11, 59, 78
11, 65993, Note_on_c, 11, 59, 0
11, 65993, Note_on_c, 11, 62, 0
11, 66003, Note_on_c, 11, 59, 78
11, 66003, Note_on_c, 11, 62, 78
11, 66053, Note_on_c, 11, 62, 0
11, 66053, Note_on_c, 11, 59, 0
11, 66063, Note_on_c, 11, 62, 78
11, 66063, Note_on_c, 11, 59, 78
11, 66113, Note_on_c, 11, 59, 0
11, 66113, Note_on_c, 11, 62, 0
11, 66123, Note_on_c, 11, 59, 78
11, 66123, Note_on_c, 11, 62, 78
11, 66173, Note_on_c, 11, 62, 0
11, 66173, Note_on_c, 11, 59, 0
11, 66183, Note_on_c, 11, 59, 78
11, 66183, Note_on_c, 11, 62, 78
11, 66233, Note_on_c, 11, 62, 0
11, 66233, Note_on_c, 11, 59, 0
11, 66243, Note_on_c, 11, 60, 100
11, 66243, Control_c, 11, 11, 102
11, 66259, Control_c, 11, 11, 100
11, 66273, Note_on_c, 11, 60, 0
11, 66275, Control_c, 11, 11, 98
11, 66291, Control_c, 11, 11, 96
11, 66303, Note_on_c, 11, 60, 100
11, 66307, Control_c, 11, 11, 94
11, 66323, Control_c, 11, 11, 92
11, 66333, Note_on_c, 11, 60, 0
11, 66339, Control_c, 11, 11, 90
11, 66355, Control_c, 11, 11, 88
11, 66363, Note_on_c, 11, 55, 100
11, 66393, Note_on_c, 11, 55, 0
11, 66423, Note_on_c, 11, 59, 100
11, 66453, Note_on_c, 11, 59, 0
11, 66483, Note_on_c, 11, 60, 100
11, 66513, Note_on_c, 11, 60, 0
11, 66543, Note_on_c, 11, 60, 100
11, 66573, Note_on_c, 11, 60, 0
11, 66603, Note_on_c, 11, 57, 100
11, 66633, Note_on_c, 11, 57, 0
11, 66663, Note_on_c, 11, 61, 100
11, 66693, Note_on_c, 11, 61, 0
11, 66723, Control_c, 11, 11, 87
11, 66723, Note_on_c, 11, 62, 100
11, 66753, Note_on_c, 11, 62, 0
11, 66780, Control_c, 11, 11, 88
11, 66783, Note_on_c, 11, 62, 100
11, 66813, Note_on_c, 11, 62, 0
11, 66838, Control_c, 11, 11, 89
11, 66843, Note_on_c, 11, 57, 100
11, 66873, Note_on_c, 11, 57, 0
11, 66895, Control_c, 11, 11, 90
11, 66903, Note_on_c, 11, 61, 100
11, 66933, Note_on_c, 11, 61, 0
11, 66953, Control_c, 11, 11, 91
11, 66963, Note_on_c, 11, 62, 100
11, 66993, Note_on_c, 11, 62, 0
11, 67011, Control_c, 11, 11, 92
11, 67023, Note_on_c, 11, 62, 100
11, 67053, Note_on_c, 11, 62, 0
11, 67068, Control_c, 11, 11, 93
11, 67083, Note_on_c, 11, 59, 100
11, 67113, Note_on_c, 11, 59, 0
11, 67126, Control_c, 11, 11, 94
11, 67143, Note_on_c, 11, 63, 100
11, 67173, Note_on_c, 11, 63, 0
11, 67183, Control_c, 11, 11, 95
11, 67203, Note_on_c, 11, 64, 100
11, 67233, Note_on_c, 11, 64, 0
11, 67241, Control_c, 11, 11, 96
11, 67263, Note_on_c, 11, 64, 100
11, 67293, Note_on_c, 11, 64, 0
11, 67299, Control_c, 11, 11, 97
11, 67323, Note_on_c, 11, 60, 100
11, 67353, Note_on_c, 11, 60, 0
11, 67356, Control_c, 11, 11, 98
11, 67383, Note_on_c, 11, 64, 100
11, 67413, Note_on_c, 11, 64, 0
11, 67414, Control_c, 11, 11, 99
11, 67443, Note_on_c, 11, 65, 100
11, 67471, Control_c, 11, 11, 100
11, 67473, Note_on_c, 11, 65, 0
11, 67503, Note_on_c, 11, 62, 100
11, 67529, Control_c, 11, 11, 101
11, 67533, Note_on_c, 11, 62, 0
11, 67563, Note_on_c, 11, 67, 100
11, 67587, Control_c, 11, 11, 102
11, 67593, Note_on_c, 11, 67, 0
11, 67623, Note_on_c, 11, 64, 100
11, 67644, Control_c, 11, 11, 103
11, 67653, Note_on_c, 11, 64, 0
11, 67683, Note_on_c, 11, 69, 100
11, 67702, Control_c, 11, 11, 104
11, 67713, Note_on_c, 11, 69, 0
11, 67743, Note_on_c, 11, 65, 100
11, 67759, Control_c, 11, 11, 105
11, 67773, Note_on_c, 11, 65, 0
11, 67803, Note_on_c, 11, 71, 100
11, 67817, Control_c, 11, 11, 106
11, 67833, Note_on_c, 11, 71, 0
11, 67863, Note_on_c, 11, 67, 100
11, 67875, Control_c, 11, 11, 107
11, 67893, Note_on_c, 11, 67, 0
11, 67923, Note_on_c, 11, 72, 100
11, 67932, Control_c, 11, 11, 108
11, 67953, Note_on_c, 11, 72, 0
11, 67983, Note_on_c, 11, 69, 100
11, 67990, Control_c, 11, 11, 109
11, 68013, Note_on_c, 11, 69, 0
11, 68043, Note_on_c, 11, 64, 100
11, 68047, Control_c, 11, 11, 110
11, 68073, Note_on_c, 11, 64, 0
11, 68103, Note_on_c, 11, 66, 100
11, 68105, Control_c, 11, 11, 111
11, 68133, Note_on_c, 11, 66, 0
11, 68163, Control_c, 11, 11, 112
11, 68163, Note_on_c, 11, 67, 100
11, 68238, Control_c, 11, 11, 112
11, 68241, Control_c, 11, 11, 109
11, 68244, Control_c, 11, 11, 106
11, 68248, Control_c, 11, 11, 103
11, 68251, Control_c, 11, 11, 100
11, 68254, Control_c, 11, 11, 97
11, 68258, Control_c, 11, 11, 94
11, 68261, Control_c, 11, 11, 91
11, 68265, Control_c, 11, 11, 88
11, 68268, Control_c, 11, 11, 85
11, 68271, Control_c, 11, 11, 82
11, 68275, Control_c, 11, 11, 79
11, 68278, Control_c, 11, 11, 76
11, 68281, Control_c, 11, 11, 73
11, 68283, Note_on_c, 11, 67, 0
11, 68643, Control_c, 11, 11, 102
11, 68643, Note_on_c, 11, 62, 71
11, 68653, Note_on_c, 11, 71, 71
11, 68653, Note_on_c, 11, 79, 61
11, 68748, Note_on_c, 11, 62, 0
11, 68758, Note_on_c, 11, 79, 0
11, 68758, Note_on_c, 11, 71, 0
11, 68883, Note_on_c, 11, 64, 71
11, 68893, Note_on_c, 11, 72, 71
11, 68893, Note_on_c, 11, 79, 61
11, 68988, Note_on_c, 11, 64, 0
11, 68998, Note_on_c, 11, 79, 0
11, 68998, Note_on_c, 11, 72, 0
11, 69123, Note_on_c, 11, 62, 71
11, 69133, Note_on_c, 11, 79, 61
11, 69133, Note_on_c, 11, 71, 71
11, 69228, Note_on_c, 11, 62, 0
11, 69238, Note_on_c, 11, 71, 0
11, 69238, Note_on_c, 11, 79, 0
11, 69603, Note_on_c, 11, 62, 71
11, 69613, Note_on_c, 11, 71, 71
11, 69613, Note_on_c, 11, 79, 61
11, 69708, Note_on_c, 11, 62, 0
11, 69718, Note_on_c, 11, 79, 0
11, 69718, Note_on_c, 11, 71, 0
11, 69843, Note_on_c, 11, 64, 71
11, 69853, Note_on_c, 11, 72, 71
11, 69853, Note_on_c, 11, 79, 61
11, 69948, Note_on_c, 11, 64, 0
11, 69958, Note_on_c, 11, 79, 0
11, 69958, Note_on_c, 11, 72, 0
11, 70083, Note_on_c, 11, 62, 71
11, 70093, Note_on_c, 11, 71, 71
11, 70093, Note_on_c, 11, 79, 61
11, 70188, Note_on_c, 11, 62, 0
11, 70198, Note_on_c, 11, 79, 0
11, 70198, Note_on_c, 11, 71, 0
11, 70323, Note_on_c, 11, 64, 71
11, 70333, Note_on_c, 11, 79, 61
11, 70333, Note_on_c, 11, 72, 71
11, 70428, Note_on_c, 11, 64, 0
11, 70438, Note_on_c, 11, 72, 0
11, 70438, Note_on_c, 11, 79, 0
11, 70563, Note_on_c, 11, 62, 71
11, 70573, Note_on_c, 11, 71, 71
11, 70573, Note_on_c, 11, 79, 61
11, 70668, Note_on_c, 11, 62, 0
11, 70678, Note_on_c, 11, 79, 0
11, 70678, Note_on_c, 11, 71, 0
11, 70803, Note_on_c, 11, 64, 71
11, 70813, Note_on_c, 11, 72, 71
11, 70813, Note_on_c, 11, 79, 61
11, 70908, Note_on_c, 11, 64, 0
11, 70918, Note_on_c, 11, 79, 0
11, 70918, Note_on_c, 11, 72, 0
11, 71043, Note_on_c, 11, 62, 71
11, 71053, Note_on_c, 11, 71, 71
11, 71053, Note_on_c, 11, 79, 61
11, 71148, Note_on_c, 11, 62, 0
11, 71158, Note_on_c, 11, 79, 0
11, 71158, Note_on_c, 11, 71, 0
11, 71283, Note_on_c, 11, 62, 71
11, 71293, Note_on_c, 11, 79, 61
11, 71293, Note_on_c, 11, 71, 71
11, 71388, Note_on_c, 11, 62, 0
11, 71398, Note_on_c, 11, 71, 0
11, 71398, Note_on_c, 11, 79, 0
11, 71523, Note_on_c, 11, 55, 100
11, 71643, Note_on_c, 11, 55, 0
11, 72003, Control_c, 11, 11, 47
11, 72003, Note_on_c, 11, 59, 86
11, 72063, Note_on_c, 11, 59, 0
11, 72123, Note_on_c, 11, 62, 86
11, 72183, Note_on_c, 11, 62, 0
11, 72243, Note_on_c, 11, 67, 86
11, 72303, Note_on_c, 11, 67, 0
11, 72363, Note_on_c, 11, 71, 86
11, 72423, Note_on_c, 11, 71, 0
11, 72483, Note_on_c, 11, 72, 86
11, 72603, Note_on_c, 11, 72, 0
11, 72963, Note_on_c, 11, 60, 86
11, 73023, Note_on_c, 11, 60, 0
11, 73083, Note_on_c, 11, 62, 86
11, 73143, Note_on_c, 11, 62, 0
11, 73203, Note_on_c, 11, 66, 86
11, 73263, Note_on_c, 11, 66, 0
11, 73323, Note_on_c, 11, 69, 86
11, 73383, Note_on_c, 11, 69, 0
11, 73443, Note_on_c, 11, 67, 86
11, 73563, Note_on_c, 11, 67, 0
11, 73923, Note_on_c, 11, 66, 86
11, 74043, Note_on_c, 11, 66, 0
11, 74163, Control_c, 11, 11, 58
11, 74163, Note_on_c, 11, 72, 100
11, 74167, Control_c, 11, 11, 61
11, 74172, Control_c, 11, 11, 64
11, 74177, Control_c, 11, 11, 67
11, 74182, Control_c, 11, 11, 70
11, 74187, Control_c, 11, 11, 73
11, 74198, Control_c, 11, 11, 70
11, 74209, Control_c, 11, 11, 67
11, 74220, Control_c, 11, 11, 64
11, 74231, Control_c, 11, 11, 61
11, 74242, Control_c, 11, 11, 58
11, 74253, Control_c, 11, 11, 55
11, 74264, Control_c, 11, 11, 52
11, 74275, Control_c, 11, 11, 49
11, 74283, Note_on_c, 11, 72, 0
11, 74283, Note_on_c, 11, 71, 100
11, 74393, Note_on_c, 11, 71, 0
11, 74403, Note_on_c, 11, 69, 86
11, 74463, Note_on_c, 11, 69, 0
11, 74643, Control_c, 11, 11, 58
11, 74643, Note_on_c, 11, 72, 100
11, 74647, Control_c, 11, 11, 61
11, 74652, Control_c, 11, 11, 64
11, 74657, Control_c, 11, 11, 67
11, 74662, Control_c, 11, 11, 70
11, 74667, Control_c, 11, 11, 73
11, 74678, Control_c, 11, 11, 70
11, 74689, Control_c, 11, 11, 67
11, 74700, Control_c, 11, 11, 64
11, 74711, Control_c, 11, 11, 61
11, 74722, Control_c, 11, 11, 58
11, 74733, Control_c, 11, 11, 55
11, 74744, Control_c, 11, 11, 52
11, 74755, Control_c, 11, 11, 49
11, 74763, Note_on_c, 11, 72, 0
11, 74763, Note_on_c, 11, 71, 100
11, 74873, Note_on_c, 11, 71, 0
11, 74883, Note_on_c, 11, 62, 86
11, 74943, Note_on_c, 11, 62, 0
11, 75003, Note_on_c, 11, 66, 100
11, 75063, Note_on_c, 11, 66, 0
11, 75243, Note_on_c, 11, 67, 100
11, 75303, Note_on_c, 11, 67, 0
11, 75363, Note_on_c, 11, 66, 100
11, 75363, Note_on_c, 11, 57, 100
11, 75483, Note_on_c, 11, 57, 0
11, 75483, Note_on_c, 11, 66, 0
11, 75723, Note_on_c, 11, 62, 86
11, 75833, Note_on_c, 11, 62, 0
11, 75843, Note_on_c, 11, 67, 86
11, 76143, Note_on_c, 11, 67, 0
11, 76143, Note_on_c, 11, 66, 86
11, 76203, Note_on_c, 11, 66, 0
11, 76203, Note_on_c, 11, 64, 86
11, 76263, Note_on_c, 11, 64, 0
11, 76263, Note_on_c, 11, 62, 86
11, 76313, Note_on_c, 11, 62, 0
11, 76323, Note_on_c, 11, 60, 86
11, 76443, Note_on_c, 11, 60, 0
11, 76803, Note_on_c, 11, 69, 86
11, 77103, Note_on_c, 11, 69, 0
11, 77103, Note_on_c, 11, 66, 86
11, 77163, Note_on_c, 11, 66, 0
11, 77163, Note_on_c, 11, 62, 86
11, 77223, Note_on_c, 11, 62, 0
11, 77223, Note_on_c, 11, 60, 86
11, 77273, Note_on_c, 11, 60, 0
11, 77283, Note_on_c, 11, 59, 86
11, 77403, Note_on_c, 11, 59, 0
11, 77763, Note_on_c, 11, 64, 100
11, 77823, Note_on_c, 11, 64, 0
11, 77883, Note_on_c, 11, 67, 100
11, 78113, Note_on_c, 11, 67, 0
11, 78123, Note_on_c, 11, 68, 100
11, 78123, Control_c, 11, 11, 58
11, 78128, Control_c, 11, 11, 61
11, 78134, Control_c, 11, 11, 64
11, 78139, Control_c, 11, 11, 67
11, 78145, Control_c, 11, 11, 70
11, 78151, Control_c, 11, 11, 73
11, 78161, Control_c, 11, 11, 70
11, 78172, Control_c, 11, 11, 67
11, 78182, Control_c, 11, 11, 64
11, 78193, Control_c, 11, 11, 61
11, 78204, Control_c, 11, 11, 58
11, 78214, Control_c, 11, 11, 55
11, 78225, Control_c, 11, 11, 52
11, 78235, Control_c, 11, 11, 49
11, 78243, Note_on_c, 11, 68, 0
11, 78243, Note_on_c, 11, 67, 100
11, 78303, Note_on_c, 11, 67, 0
11, 78363, Note_on_c, 11, 67, 100
11, 78593, Note_on_c, 11, 67, 0
11, 78603, Control_c, 11, 11, 58
11, 78603, Note_on_c, 11, 68, 100
11, 78608, Control_c, 11, 11, 61
11, 78614, Control_c, 11, 11, 64
11, 78619, Control_c, 11, 11, 67
11, 78625, Control_c, 11, 11, 70
11, 78631, Control_c, 11, 11, 73
11, 78641, Control_c, 11, 11, 70
11, 78652, Control_c, 11, 11, 67
11, 78662, Control_c, 11, 11, 64
11, 78673, Control_c, 11, 11, 61
11, 78684, Control_c, 11, 11, 58
11, 78694, Control_c, 11, 11, 55
11, 78705, Control_c, 11, 11, 52
11, 78715, Control_c, 11, 11, 49
11, 78723, Note_on_c, 11, 68, 0
11, 78723, Note_on_c, 11, 69, 100
11, 78833, Note_on_c, 11, 69, 0
11, 78843, Note_on_c, 11, 72, 100
11, 78963, Note_on_c, 11, 72, 0
11, 78963, Note_on_c, 11, 71, 100
11, 79083, Note_on_c, 11, 71, 0
11, 79083, Note_on_c, 11, 69, 100
11, 79193, Note_on_c, 11, 69, 0
11, 79203, Note_on_c, 11, 67, 100
11, 79443, Note_on_c, 11, 67, 0
11, 79443, Note_on_c, 11, 66, 100
11, 79658, Note_on_c, 11, 66, 0
11, 79678, Control_c, 11, 11, 47
11, 79679, Control_c, 11, 11, 55
11, 79680, Control_c, 11, 11, 63
11, 79681, Control_c, 11, 11, 71
11, 79682, Control_c, 11, 11, 79
11, 79683, Control_c, 11, 11, 87
11, 79683, Note_on_c, 11, 62, 110
11, 79683, Note_on_c, 11, 74, 110
11, 79703, Note_on_c, 11, 74, 0
11, 79703, Note_on_c, 11, 62, 0
11, 79713, Note_on_c, 11, 62, 110
11, 79713, Note_on_c, 11, 74, 110
11, 79733, Note_on_c, 11, 74, 0
11, 79733, Note_on_c, 11, 62, 0
11, 79743, Note_on_c, 11, 74, 110
11, 79743, Note_on_c, 11, 62, 110
11, 79763, Note_on_c, 11, 62, 0
11, 79763, Note_on_c, 11, 74, 0
11, 79773, Note_on_c, 11, 74, 110
11, 79773, Note_on_c, 11, 62, 110
11, 79793, Note_on_c, 11, 62, 0
11, 79793, Note_on_c, 11, 74, 0
11, 79803, Note_on_c, 11, 74, 110
11, 79803, Note_on_c, 11, 62, 110
11, 79863, Note_on_c, 11, 62, 0
11, 79863, Note_on_c, 11, 74, 0
11, 79923, Note_on_c, 11, 74, 110
11, 79923, Note_on_c, 11, 62, 110
11, 79943, Note_on_c, 11, 62, 0
11, 79943, Note_on_c, 11, 74, 0
11, 79953, Note_on_c, 11, 62, 110
11, 79953, Note_on_c, 11, 74, 110
11, 79973, Note_on_c, 11, 74, 0
11, 79973, Note_on_c, 11, 62, 0
11, 79983, Note_on_c, 11, 74, 110
11, 79983, Note_on_c, 11, 62, 110
11, 80003, Note_on_c, 11, 62, 0
11, 80003, Note_on_c, 11, 74, 0
11, 80013, Note_on_c, 11, 74, 110
11, 80013, Note_on_c, 11, 62, 110
11, 80033, Note_on_c, 11, 62, 0
11, 80033, Note_on_c, 11, 74, 0
11, 80043, Note_on_c, 11, 62, 110
11, 80043, Note_on_c, 11, 74, 110
11, 80103, Note_on_c, 11, 74, 0
11, 80103, Note_on_c, 11, 62, 0
11, 80163, Note_on_c, 11, 62, 110
11, 80163, Note_on_c, 11, 74, 110
11, 80183, Note_on_c, 11, 74, 0
11, 80183, Note_on_c, 11, 62, 0
11, 80193, Note_on_c, 11, 74, 110
11, 80193, Note_on_c, 11, 62, 110
11, 80213, Note_on_c, 11, 62, 0
11, 80213, Note_on_c, 11, 74, 0
11, 80223, Note_on_c, 11, 62, 110
11, 80223, Note_on_c, 11, 74, 110
11, 80243, Note_on_c, 11, 74, 0
11, 80243, Note_on_c, 11, 62, 0
11, 80253, Note_on_c, 11, 74, 110
11, 80253, Note_on_c, 11, 62, 110
11, 80273, Note_on_c, 11, 62, 0
11, 80273, Note_on_c, 11, 74, 0
11, 80283, Note_on_c, 11, 74, 110
11, 80283, Note_on_c, 11, 62, 110
11, 80343, Note_on_c, 11, 62, 0
11, 80343, Note_on_c, 11, 74, 0
11, 80403, Note_on_c, 11, 69, 110
11, 80433, Note_on_c, 11, 69, 0
11, 80463, Note_on_c, 11, 71, 110
11, 80493, Note_on_c, 11, 71, 0
11, 80523, Note_on_c, 11, 72, 110
11, 80553, Note_on_c, 11, 72, 0
11, 80583, Note_on_c, 11, 73, 110
11, 80613, Note_on_c, 11, 73, 0
11, 80643, Note_on_c, 11, 62, 110
11, 80643, Note_on_c, 11, 74, 110
11, 80663, Note_on_c, 11, 74, 0
11, 80663, Note_on_c, 11, 62, 0
11, 80673, Note_on_c, 11, 62, 110
11, 80673, Note_on_c, 11, 74, 110
11, 80693, Note_on_c, 11, 74, 0
11, 80693, Note_on_c, 11, 62, 0
11, 80703, Note_on_c, 11, 62, 110
11, 80703, Note_on_c, 11, 74, 110
11, 80723, Note_on_c, 11, 74, 0
11, 80723, Note_on_c, 11, 62, 0
11, 80733, Note_on_c, 11, 74, 110
11, 80733, Note_on_c, 11, 62, 110
11, 80753, Note_on_c, 11, 62, 0
11, 80753, Note_on_c, 11, 74, 0
11, 80763, Note_on_c, 11, 62, 110
11, 80763, Note_on_c, 11, 74, 110
11, 80823, Note_on_c, 11, 74, 0
11, 80823, Note_on_c, 11, 62, 0
11, 80883, Note_on_c, 11, 74, 110
11, 80883, Note_on_c, 11, 62, 110
11, 80903, Note_on_c, 11, 62, 0
11, 80903, Note_on_c, 11, 74, 0
11, 80913, Note_on_c, 11, 62, 110
11, 80913, Note_on_c, 11, 74, 110
11, 80933, Note_on_c, 11, 74, 0
11, 80933, Note_on_c, 11, 62, 0
11, 80943, Note_on_c, 11, 74, 110
11, 80943, Note_on_c, 11, 62, 110
11, 80963, Note_on_c, 11, 62, 0
11, 80963, Note_on_c, 11, 74, 0
11, 80973, Note_on_c, 11, 62, 110
11, 80973, Note_on_c, 11, 74, 110
11, 80993, Note_on_c, 11, 74, 0
11, 80993, Note_on_c, 11, 62, 0
11, 81003, Note_on_c, 11, 62, 110
11, 81003, Note_on_c, 11, 74, 110
11, 81063, Note_on_c, 11, 74, 0
11, 81063, Note_on_c, 11, 62, 0
11, 81123, Note_on_c, 11, 62, 110
11, 81123, Note_on_c, 11, 74, 110
11, 81143, Note_on_c, 11, 74, 0
11, 81143, Note_on_c, 11, 62, 0
11, 81153, Note_on_c, 11, 62, 110
11, 81153, Note_on_c, 11, 74, 110
11, 81173, Note_on_c, 11, 74, 0
11, 81173, Note_on_c, 11, 62, 0
11, 81183, Note_on_c, 11, 62, 110
11, 81183, Note_on_c, 11, 74, 110
11, 81203, Note_on_c, 11, 74, 0
11, 81203, Note_on_c, 11, 62, 0
11, 81213, Note_on_c, 11, 74, 110
11, 81213, Note_on_c, 11, 62, 110
11, 81233, Note_on_c, 11, 62, 0
11, 81233, Note_on_c, 11, 74, 0
11, 81243, Note_on_c, 11, 74, 110
11, 81243, Note_on_c, 11, 62, 110
11, 81303, Note_on_c, 11, 62, 0
11, 81303, Note_on_c, 11, 74, 0
11, 81363, Note_on_c, 11, 69, 110
11, 81393, Note_on_c, 11, 69, 0
11, 81423, Note_on_c, 11, 71, 110
11, 81453, Note_on_c, 11, 71, 0
11, 81483, Note_on_c, 11, 72, 110
11, 81513, Note_on_c, 11, 72, 0
11, 81543, Note_on_c, 11, 73, 110
11, 81573, Note_on_c, 11, 73, 0
11, 81603, Note_on_c, 11, 74, 110
11, 81603, Control_c, 11, 11, 107
11, 81621, Control_c, 11, 11, 104
11, 81623, Note_on_c, 11, 74, 0
11, 81633, Note_on_c, 11, 74, 110
11, 81639, Control_c, 11, 11, 101
11, 81653, Note_on_c, 11, 74, 0
11, 81657, Control_c, 11, 11, 98
11, 81663, Note_on_c, 11, 74, 110
11, 81675, Control_c, 11, 11, 95
11, 81683, Note_on_c, 11, 74, 0
11, 81693, Note_on_c, 11, 74, 110
11, 81693, Control_c, 11, 11, 92
11, 81711, Control_c, 11, 11, 89
11, 81713, Note_on_c, 11, 74, 0
11, 81723, Note_on_c, 11, 74, 110
11, 81743, Note_on_c, 11, 74, 0
11, 81753, Note_on_c, 11, 74, 110
11, 81773, Note_on_c, 11, 74, 0
11, 81783, Note_on_c, 11, 72, 110
11, 81803, Note_on_c, 11, 72, 0
11, 81813, Note_on_c, 11, 72, 110
11, 81833, Note_on_c, 11, 72, 0
11, 81843, Note_on_c, 11, 71, 110
11, 81863, Note_on_c, 11, 71, 0
11, 81873, Note_on_c, 11, 71, 110
11, 81893, Note_on_c, 11, 71, 0
11, 81903, Note_on_c, 11, 69, 110
11, 81923, Note_on_c, 11, 69, 0
11, 81933, Note_on_c, 11, 69, 110
11, 81953, Note_on_c, 11, 69, 0
11, 81963, Note_on_c, 11, 67, 110
11, 81983, Note_on_c, 11, 67, 0
11, 81993, Note_on_c, 11, 67, 110
11, 82013, Note_on_c, 11, 67, 0
11, 82023, Note_on_c, 11, 65, 110
11, 82043, Note_on_c, 11, 65, 0
11, 82053, Note_on_c, 11, 65, 110
11, 82073, Note_on_c, 11, 65, 0
11, 82083, Control_c, 11, 11, 107
11, 82083, Note_on_c, 11, 64, 110
11, 82101, Control_c, 11, 11, 104
11, 82103, Note_on_c, 11, 64, 0
11, 82113, Note_on_c, 11, 76, 110
11, 82119, Control_c, 11, 11, 101
11, 82133, Note_on_c, 11, 76, 0
11, 82137, Control_c, 11, 11, 98
11, 82143, Note_on_c, 11, 76, 110
11, 82155, Control_c, 11, 11, 95
11, 82163, Note_on_c, 11, 76, 0
11, 82173, Control_c, 11, 11, 92
11, 82173, Note_on_c, 11, 76, 110
11, 82191, Control_c, 11, 11, 89
11, 82193, Note_on_c, 11, 76, 0
11, 82203, Note_on_c, 11, 76, 110
11, 82223, Note_on_c, 11, 76, 0
11, 82233, Note_on_c, 11, 76, 110
11, 82253, Note_on_c, 11, 76, 0
11, 82263, Note_on_c, 11, 74, 110
11, 82283, Note_on_c, 11, 74, 0
11, 82293, Note_on_c, 11, 74, 110
11, 82313, Note_on_c, 11, 74, 0
11, 82323, Note_on_c, 11, 72, 110
11, 82343, Note_on_c, 11, 72, 0
11, 82353, Note_on_c, 11, 72, 110
11, 82373, Note_on_c, 11, 72, 0
11, 82383, Note_on_c, 11, 71, 110
11, 82403, Note_on_c, 11, 71, 0
11, 82413, Note_on_c, 11, 71, 110
11, 82433, Note_on_c, 11, 71, 0
11, 82443, Note_on_c, 11, 69, 110
11, 82463, Note_on_c, 11, 69, 0
11, 82473, Note_on_c, 11, 69, 110
11, 82493, Note_on_c, 11, 69, 0
11, 82503, Note_on_c, 11, 67, 110
11, 82523, Note_on_c, 11, 67, 0
11, 82533, Note_on_c, 11, 67, 110
11, 82553, Note_on_c, 11, 67, 0
11, 82563, Note_on_c, 11, 66, 110
11, 82563, Control_c, 11, 11, 87
11, 82583, Note_on_c, 11, 66, 0
11, 82593, Note_on_c, 11, 66, 110
11, 82595, Control_c, 11, 11, 88
11, 82613, Note_on_c, 11, 66, 0
11, 82623, Note_on_c, 11, 67, 110
11, 82627, Control_c, 11, 11, 89
11, 82643, Note_on_c, 11, 67, 0
11, 82653, Note_on_c, 11, 67, 110
11, 82659, Control_c, 11, 11, 90
11, 82673, Note_on_c, 11, 67, 0
11, 82683, Note_on_c, 11, 69, 110
11, 82691, Control_c, 11, 11, 91
11, 82703, Note_on_c, 11, 69, 0
11, 82713, Note_on_c, 11, 69, 110
11, 82723, Control_c, 11, 11, 92
11, 82733, Note_on_c, 11, 69, 0
11, 82743, Note_on_c, 11, 71, 110
11, 82755, Control_c, 11, 11, 93
11, 82763, Note_on_c, 11, 71, 0
11, 82773, Note_on_c, 11, 71, 110
11, 82787, Control_c, 11, 11, 94
11, 82793, Note_on_c, 11, 71, 0
11, 82803, Note_on_c, 11, 72, 110
11, 82819, Control_c, 11, 11, 95
11, 82823, Note_on_c, 11, 72, 0
11, 82833, Note_on_c, 11, 72, 110
11, 82851, Control_c, 11, 11, 96
11, 82853, Note_on_c, 11, 72, 0
11, 82863, Note_on_c, 11, 74, 110
11, 82883, Note_on_c, 11, 74, 0
11, 82883, Control_c, 11, 11, 97
11, 82893, Note_on_c, 11, 74, 110
11, 82913, Note_on_c, 11, 74, 0
11, 82915, Control_c, 11, 11, 98
11, 82923, Note_on_c, 11, 76, 110
11, 82943, Note_on_c, 11, 76, 0
11, 82947, Control_c, 11, 11, 99
11, 82953, Note_on_c, 11, 76, 110
11, 82973, Note_on_c, 11, 76, 0
11, 82979, Control_c, 11, 11, 100
11, 82983, Note_on_c, 11, 78, 110
11, 83003, Note_on_c, 11, 78, 0
11, 83011, Control_c, 11, 11, 101
11, 83013, Note_on_c, 11, 78, 110
11, 83033, Note_on_c, 11, 78, 0
11, 83043, Control_c, 11, 11, 102
11, 83043, Note_on_c, 11, 79, 110
11, 83103, Note_on_c, 11, 79, 0
11, 83163, Note_on_c, 11, 67, 110
11, 83223, Note_on_c, 11, 67, 0
11, 83283, Note_on_c, 11, 71, 110
11, 83343, Note_on_c, 11, 71, 0
11, 83403, Note_on_c, 11, 57, 110
11, 83403, Note_on_c, 11, 66, 110
11, 83463, Note_on_c, 11, 66, 0
11, 83463, Note_on_c, 11, 57, 0
11, 83523, Note_on_c, 11, 59, 110
11, 83523, Note_on_c, 11, 67, 110
11, 83523, Control_c, 11, 11, 72
11, 83553, Control_c, 11, 11, 72
11, 83568, Control_c, 11, 11, 69
11, 83583, Control_c, 11, 11, 66
11, 83599, Control_c, 11, 11, 63
11, 83614, Control_c, 11, 11, 60
11, 83630, Control_c, 11, 11, 57
11, 83633, Note_on_c, 11, 67, 0
11, 83633, Note_on_c, 11, 59, 0
11, 83643, Note_on_c, 11, 58, 100
11, 83645, Control_c, 11, 11, 54
11, 83661, Control_c, 11, 11, 51
11, 83676, Control_c, 11, 11, 48
11, 83691, Control_c, 11, 11, 45
11, 83707, Control_c, 11, 11, 42
11, 83722, Control_c, 11, 11, 39
11, 83729, Note_on_c, 11, 58, 0
11, 83763, Note_on_c, 11, 58, 100
11, 83849, Note_on_c, 11, 58, 0
11, 83883, Note_on_c, 11, 58, 100
11, 83969, Note_on_c, 11, 58, 0
11, 84003, Note_on_c, 11, 60, 100
11, 84089, Note_on_c, 11, 60, 0
11, 84123, Note_on_c, 11, 60, 100
11, 84209, Note_on_c, 11, 60, 0
11, 84243, Note_on_c, 11, 60, 100
11, 84329, Note_on_c, 11, 60, 0
11, 84363, Note_on_c, 11, 60, 100
11, 84449, Note_on_c, 11, 60, 0
11, 84483, Note_on_c, 11, 60, 100
11, 84569, Note_on_c, 11, 60, 0
11, 84603, Note_on_c, 11, 60, 100
11, 84689, Note_on_c, 11, 60, 0
11, 84723, Note_on_c, 11, 60, 100
11, 84809, Note_on_c, 11, 60, 0
11, 84843, Note_on_c, 11, 60, 100
11, 84929, Note_on_c, 11, 60, 0
11, 84963, Note_on_c, 11, 58, 100
11, 85049, Note_on_c, 11, 58, 0
11, 85083, Note_on_c, 11, 58, 100
11, 85169, Note_on_c, 11, 58, 0
11, 85203, Note_on_c, 11, 58, 100
11, 85289, Note_on_c, 11, 58, 0
11, 85323, Note_on_c, 11, 58, 100
11, 85409, Note_on_c, 11, 58, 0
11, 85443, Note_on_c, 11, 58, 100
11, 85529, Note_on_c, 11, 58, 0
11, 85563, Note_on_c, 11, 58, 100
11, 85649, Note_on_c, 11, 58, 0
11, 85683, Note_on_c, 11, 57, 100
11, 85769, Note_on_c, 11, 57, 0
11, 85803, Note_on_c, 11, 57, 100
11, 85889, Note_on_c, 11, 57, 0
11, 85923, Note_on_c, 11, 57, 100
11, 86009, Note_on_c, 11, 57, 0
11, 86043, Note_on_c, 11, 69, 100
11, 86129, Note_on_c, 11, 69, 0
11, 86163, Note_on_c, 11, 69, 100
11, 86249, Note_on_c, 11, 69, 0
11, 86283, Note_on_c, 11, 69, 101
11, 86369, Note_on_c, 11, 69, 0
11, 86403, Note_on_c, 11, 67, 102
11, 86489, Note_on_c, 11, 67, 0
11, 86523, Note_on_c, 11, 67, 103
11, 86609, Note_on_c, 11, 67, 0
11, 86643, Note_on_c, 11, 67, 104
11, 86729, Note_on_c, 11, 67, 0
11, 86763, Note_on_c, 11, 62, 105
11, 86849, Note_on_c, 11, 62, 0
11, 86883, Note_on_c, 11, 63, 106
11, 86969, Note_on_c, 11, 63, 0
11, 87003, Note_on_c, 11, 63, 107
11, 87089, Note_on_c, 11, 63, 0
11, 87123, Note_on_c, 11, 64, 108
11, 87209, Note_on_c, 11, 64, 0
11, 87243, Note_on_c, 11, 64, 109
11, 87329, Note_on_c, 11, 64, 0
11, 87363, Note_on_c, 11, 66, 110
11, 87449, Note_on_c, 11, 66, 0
11, 87483, Control_c, 11, 11, 37
11, 87483, Note_on_c, 11, 72, 110
11, 87515, Control_c, 11, 11, 38
11, 87548, Control_c, 11, 11, 39
11, 87569, Note_on_c, 11, 72, 0
11, 87581, Control_c, 11, 11, 40
11, 87603, Note_on_c, 11, 72, 110
11, 87614, Control_c, 11, 11, 41
11, 87647, Control_c, 11, 11, 42
11, 87680, Control_c, 11, 11, 43
11, 87689, Note_on_c, 11, 72, 0
11, 87713, Control_c, 11, 11, 44
11, 87723, Note_on_c, 11, 72, 110
11, 87746, Control_c, 11, 11, 45
11, 87779, Control_c, 11, 11, 46
11, 87809, Note_on_c, 11, 72, 0
11, 87812, Control_c, 11, 11, 47
11, 87843, Note_on_c, 11, 71, 110
11, 87845, Control_c, 11, 11, 48
11, 87878, Control_c, 11, 11, 49
11, 87911, Control_c, 11, 11, 50
11, 87929, Note_on_c, 11, 71, 0
11, 87944, Control_c, 11, 11, 51
11, 87963, Note_on_c, 11, 71, 110
11, 87977, Control_c, 11, 11, 52
11, 88010, Control_c, 11, 11, 53
11, 88043, Control_c, 11, 11, 54
11, 88049, Note_on_c, 11, 71, 0
11, 88076, Control_c, 11, 11, 55
11, 88083, Note_on_c, 11, 71, 110
11, 88109, Control_c, 11, 11, 56
11, 88142, Control_c, 11, 11, 57
11, 88169, Note_on_c, 11, 71, 0
11, 88175, Control_c, 11, 11, 58
11, 88203, Note_on_c, 11, 71, 110
11, 88208, Control_c, 11, 11, 59
11, 88241, Control_c, 11, 11, 60
11, 88274, Control_c, 11, 11, 61
11, 88289, Note_on_c, 11, 71, 0
11, 88307, Control_c, 11, 11, 62
11, 88323, Note_on_c, 11, 69, 110
11, 88340, Control_c, 11, 11, 63
11, 88373, Control_c, 11, 11, 64
11, 88406, Control_c, 11, 11, 65
11, 88409, Note_on_c, 11, 69, 0
11, 88439, Control_c, 11, 11, 66
11, 88443, Note_on_c, 11, 76, 110
11, 88472, Control_c, 11, 11, 67
11, 88505, Control_c, 11, 11, 68
11, 88529, Note_on_c, 11, 76, 0
11, 88538, Control_c, 11, 11, 69
11, 88563, Note_on_c, 11, 72, 110
11, 88571, Control_c, 11, 11, 70
11, 88604, Control_c, 11, 11, 71
11, 88637, Control_c, 11, 11, 72
11, 88649, Note_on_c, 11, 72, 0
11, 88670, Control_c, 11, 11, 73
11, 88683, Note_on_c, 11, 72, 110
11, 88703, Control_c, 11, 11, 74
11, 88736, Control_c, 11, 11, 75
11, 88769, Note_on_c, 11, 72, 0
11, 88769, Control_c, 11, 11, 76
11, 88802, Control_c, 11, 11, 77
11, 88803, Control_c, 11, 11, 97
11, 88803, Note_on_c, 11, 67, 110
11, 88827, Control_c, 11, 11, 95
11, 88851, Control_c, 11, 11, 93
11, 88875, Control_c, 11, 11, 91
11, 88899, Control_c, 11, 11, 89
11, 88923, Control_c, 11, 11, 87
11, 89153, Note_on_c, 11, 67, 0
11, 89163, Note_on_c, 11, 62, 110
11, 89253, Note_on_c, 11, 62, 0
11, 89253, Note_on_c, 11, 66, 110
11, 89273, Note_on_c, 11, 66, 0
11, 89283, Note_on_c, 11, 67, 110
11, 89283, Control_c, 11, 11, 107
11, 89301, Control_c, 11, 11, 104
11, 89319, Control_c, 11, 11, 101
11, 89337, Control_c, 11, 11, 98
11, 89355, Control_c, 11, 11, 95
11, 89373, Control_c, 11, 11, 92
11, 89391, Control_c, 11, 11, 89
11, 89633, Note_on_c, 11, 67, 0
11, 89643, Note_on_c, 11, 62, 110
11, 89733, Note_on_c, 11, 62, 0
11, 89733, Note_on_c, 11, 66, 110
11, 89753, Note_on_c, 11, 66, 0
11, 89763, Note_on_c, 11, 67, 110
11, 89763, Control_c, 11, 11, 107
11, 89781, Control_c, 11, 11, 104
11, 89793, Note_on_c, 11, 67, 0
11, 89799, Control_c, 11, 11, 101
11, 89817, Control_c, 11, 11, 98
11, 89823, Note_on_c, 11, 67, 110
11, 89835, Control_c, 11, 11, 95
11, 89853, Control_c, 11, 11, 92
11, 89871, Control_c, 11, 11, 89
11, 89883, Note_on_c, 11, 67, 0
11, 89883, Note_on_c, 11, 66, 110
11, 89943, Note_on_c, 11, 66, 0
11, 89943, Note_on_c, 11, 67, 110
11, 89993, Note_on_c, 11, 67, 0
11, 90003, Note_on_c, 11, 69, 110
11, 90033, Note_on_c, 11, 69, 0
11, 90063, Note_on_c, 11, 69, 110
11, 90123, Note_on_c, 11, 69, 0
11, 90123, Note_on_c, 11, 67, 110
11, 90183, Note_on_c, 11, 67, 0
11, 90183, Note_on_c, 11, 69, 110
11, 90233, Note_on_c, 11, 69, 0
11, 90243, Note_on_c, 11, 71, 110
11, 90243, Control_c, 11, 11, 107
11, 90260, Control_c, 11, 11, 104
11, 90273, Note_on_c, 11, 71, 0
11, 90278, Control_c, 11, 11, 101
11, 90296, Control_c, 11, 11, 98
11, 90303, Note_on_c, 11, 71, 110
11, 90314, Control_c, 11, 11, 95
11, 90332, Control_c, 11, 11, 92
11, 90350, Control_c, 11, 11, 89
11, 90363, Note_on_c, 11, 71, 0
11, 90363, Note_on_c, 11, 69, 110
11, 90423, Note_on_c, 11, 69, 0
11, 90423, Note_on_c, 11, 71, 110
11, 90473, Note_on_c, 11, 71, 0
11, 90483, Note_on_c, 11, 72, 110
11, 90483, Control_c, 11, 11, 107
11, 90500, Control_c, 11, 11, 104
11, 90513, Note_on_c, 11, 72, 0
11, 90518, Control_c, 11, 11, 101
11, 90536, Control_c, 11, 11, 98
11, 90543, Note_on_c, 11, 72, 110
11, 90554, Control_c, 11, 11, 95
11, 90572, Control_c, 11, 11, 92
11, 90590, Control_c, 11, 11, 89
11, 90603, Note_on_c, 11, 72, 0
11, 90603, Note_on_c, 11, 71, 110
11, 90663, Note_on_c, 11, 71, 0
11, 90663, Note_on_c, 11, 72, 110
11, 90713, Note_on_c, 11, 72, 0
11, 90723, Note_on_c, 11, 74, 110
11, 90743, Note_on_c, 11, 74, 0
11, 90753, Note_on_c, 11, 74, 110
11, 90773, Note_on_c, 11, 74, 0
11, 90783, Note_on_c, 11, 74, 110
11, 90803, Note_on_c, 11, 74, 0
11, 90813, Note_on_c, 11, 74, 110
11, 90833, Note_on_c, 11, 74, 0
11, 90843, Note_on_c, 11, 74, 110
11, 90863, Note_on_c, 11, 74, 0
11, 90873, Note_on_c, 11, 74, 110
11, 90893, Note_on_c, 11, 74, 0
11, 90903, Note_on_c, 11, 74, 110
11, 90923, Note_on_c, 11, 74, 0
11, 90933, Note_on_c, 11, 74, 110
11, 90953, Note_on_c, 11, 74, 0
11, 90963, Note_on_c, 11, 74, 110
11, 90983, Note_on_c, 11, 74, 0
11, 90993, Note_on_c, 11, 74, 110
11, 91013, Note_on_c, 11, 74, 0
11, 91023, Note_on_c, 11, 74, 110
11, 91043, Note_on_c, 11, 74, 0
11, 91053, Note_on_c, 11, 74, 110
11, 91073, Note_on_c, 11, 74, 0
11, 91083, Note_on_c, 11, 74, 110
11, 91103, Note_on_c, 11, 74, 0
11, 91113, Note_on_c, 11, 74, 110
11, 91133, Note_on_c, 11, 74, 0
11, 91143, Note_on_c, 11, 74, 110
11, 91163, Note_on_c, 11, 74, 0
11, 91173, Note_on_c, 11, 74, 110
11, 91193, Note_on_c, 11, 74, 0
11, 91203, Note_on_c, 11, 75, 110
11, 91223, Note_on_c, 11, 75, 0
11, 91233, Note_on_c, 11, 75, 110
11, 91253, Note_on_c, 11, 75, 0
11, 91263, Note_on_c, 11, 75, 110
11, 91283, Note_on_c, 11, 75, 0
11, 91293, Note_on_c, 11, 75, 110
11, 91313, Note_on_c, 11, 75, 0
11, 91323, Note_on_c, 11, 75, 110
11, 91343, Note_on_c, 11, 75, 0
11, 91353, Note_on_c, 11, 75, 110
11, 91373, Note_on_c, 11, 75, 0
11, 91383, Note_on_c, 11, 75, 110
11, 91403, Note_on_c, 11, 75, 0
11, 91413, Note_on_c, 11, 75, 110
11, 91433, Note_on_c, 11, 75, 0
11, 91443, Note_on_c, 11, 75, 110
11, 91463, Note_on_c, 11, 75, 0
11, 91473, Note_on_c, 11, 75, 110
11, 91493, Note_on_c, 11, 75, 0
11, 91503, Note_on_c, 11, 75, 110
11, 91523, Note_on_c, 11, 75, 0
11, 91533, Note_on_c, 11, 75, 110
11, 91553, Note_on_c, 11, 75, 0
11, 91563, Note_on_c, 11, 75, 110
11, 91583, Note_on_c, 11, 75, 0
11, 91593, Note_on_c, 11, 75, 110
11, 91613, Note_on_c, 11, 75, 0
11, 91623, Note_on_c, 11, 75, 110
11, 91643, Note_on_c, 11, 75, 0
11, 91653, Note_on_c, 11, 75, 110
11, 91673, Note_on_c, 11, 75, 0
11, 91683, Note_on_c, 11, 76, 110
11, 91683, Control_c, 11, 11, 102
11, 91703, Note_on_c, 11, 76, 0
11, 91713, Note_on_c, 11, 76, 110
11, 91733, Note_on_c, 11, 76, 0
11, 91743, Note_on_c, 11, 76, 110
11, 91763, Note_on_c, 11, 76, 0
11, 91773, Note_on_c, 11, 76, 110
11, 91793, Note_on_c, 11, 76, 0
11, 91803, Note_on_c, 11, 76, 110
11, 91823, Note_on_c, 11, 76, 0
11, 91833, Note_on_c, 11, 76, 110
11, 91853, Note_on_c, 11, 76, 0
11, 91863, Note_on_c, 11, 76, 110
11, 91883, Note_on_c, 11, 76, 0
11, 91893, Note_on_c, 11, 76, 110
11, 91913, Note_on_c, 11, 76, 0
11, 91923, Note_on_c, 11, 76, 110
11, 91943, Note_on_c, 11, 76, 0
11, 91953, Note_on_c, 11, 76, 110
11, 91973, Note_on_c, 11, 76, 0
11, 91983, Note_on_c, 11, 76, 110
11, 92003, Note_on_c, 11, 76, 0
11, 92013, Note_on_c, 11, 76, 110
11, 92033, Note_on_c, 11, 76, 0
11, 92043, Note_on_c, 11, 76, 110
11, 92063, Note_on_c, 11, 76, 0
11, 92073, Note_on_c, 11, 76, 110
11, 92093, Note_on_c, 11, 76, 0
11, 92103, Note_on_c, 11, 76, 110
11, 92123, Note_on_c, 11, 76, 0
11, 92133, Note_on_c, 11, 76, 110
11, 92153, Note_on_c, 11, 76, 0
11, 92163, Note_on_c, 11, 77, 110
11, 92183, Note_on_c, 11, 77, 0
11, 92193, Note_on_c, 11, 77, 110
11, 92213, Note_on_c, 11, 77, 0
11, 92223, Note_on_c, 11, 77, 110
11, 92243, Note_on_c, 11, 77, 0
11, 92253, Note_on_c, 11, 77, 110
11, 92273, Note_on_c, 11, 77, 0
11, 92283, Note_on_c, 11, 74, 110
11, 92303, Note_on_c, 11, 74, 0
11, 92313, Note_on_c, 11, 74, 110
11, 92333, Note_on_c, 11, 74, 0
11, 92343, Note_on_c, 11, 74, 110
11, 92363, Note_on_c, 11, 74, 0
11, 92373, Note_on_c, 11, 74, 110
11, 92393, Note_on_c, 11, 74, 0
11, 92403, Note_on_c, 11, 71, 110
11, 92423, Note_on_c, 11, 71, 0
11, 92433, Note_on_c, 11, 71, 110
11, 92453, Note_on_c, 11, 71, 0
11, 92463, Note_on_c, 11, 71, 110
11, 92483, Note_on_c, 11, 71, 0
11, 92493, Note_on_c, 11, 71, 110
11, 92513, Note_on_c, 11, 71, 0
11, 92523, Note_on_c, 11, 68, 110
11, 92543, Note_on_c, 11, 68, 0
11, 92553, Note_on_c, 11, 68, 110
11, 92573, Note_on_c, 11, 68, 0
11, 92583, Note_on_c, 11, 68, 110
11, 92603, Note_on_c, 11, 68, 0
11, 92613, Note_on_c, 11, 68, 110
11, 92633, Note_on_c, 11, 68, 0
11, 92643, Note_on_c, 11, 69, 110
11, 92663, Note_on_c, 11, 69, 0
11, 92673, Note_on_c, 11, 81, 110
11, 92693, Note_on_c, 11, 81, 0
11, 92703, Note_on_c, 11, 81, 110
11, 92723, Note_on_c, 11, 81, 0
11, 92733, Note_on_c, 11, 81, 110
11, 92753, Note_on_c, 11, 81, 0
11, 92763, Note_on_c, 11, 81, 110
11, 92783, Note_on_c, 11, 81, 0
11, 92793, Note_on_c, 11, 81, 110
11, 92813, Note_on_c, 11, 81, 0
11, 92823, Note_on_c, 11, 81, 110
11, 92843, Note_on_c, 11, 81, 0
11, 92853, Note_on_c, 11, 81, 110
11, 92873, Note_on_c, 11, 81, 0
11, 92883, Note_on_c, 11, 81, 110
11, 92903, Note_on_c, 11, 81, 0
11, 92913, Note_on_c, 11, 81, 110
11, 92933, Note_on_c, 11, 81, 0
11, 92943, Note_on_c, 11, 81, 110
11, 92963, Note_on_c, 11, 81, 0
11, 92973, Note_on_c, 11, 81, 110
11, 92993, Note_on_c, 11, 81, 0
11, 93003, Note_on_c, 11, 81, 110
11, 93023, Note_on_c, 11, 81, 0
11, 93033, Note_on_c, 11, 81, 110
11, 93053, Note_on_c, 11, 81, 0
11, 93063, Note_on_c, 11, 81, 110
11, 93083, Note_on_c, 11, 81, 0
11, 93093, Note_on_c, 11, 81, 110
11, 93113, Note_on_c, 11, 81, 0
11, 93123, Note_on_c, 11, 82, 110
11, 93143, Note_on_c, 11, 82, 0
11, 93153, Note_on_c, 11, 82, 110
11, 93173, Note_on_c, 11, 82, 0
11, 93183, Note_on_c, 11, 82, 110
11, 93203, Note_on_c, 11, 82, 0
11, 93213, Note_on_c, 11, 82, 110
11, 93233, Note_on_c, 11, 82, 0
11, 93243, Note_on_c, 11, 79, 110
11, 93263, Note_on_c, 11, 79, 0
11, 93273, Note_on_c, 11, 79, 110
11, 93293, Note_on_c, 11, 79, 0
11, 93303, Note_on_c, 11, 79, 110
11, 93323, Note_on_c, 11, 79, 0
11, 93333, Note_on_c, 11, 79, 110
11, 93353, Note_on_c, 11, 79, 0
11, 93363, Note_on_c, 11, 76, 110
11, 93383, Note_on_c, 11, 76, 0
11, 93393, Note_on_c, 11, 76, 110
11, 93413, Note_on_c, 11, 76, 0
11, 93423, Note_on_c, 11, 76, 110
11, 93443, Note_on_c, 11, 76, 0
11, 93453, Note_on_c, 11, 76, 110
11, 93473, Note_on_c, 11, 76, 0
11, 93483, Note_on_c, 11, 73, 110
11, 93503, Note_on_c, 11, 73, 0
11, 93513, Note_on_c, 11, 73, 110
11, 93533, Note_on_c, 11, 73, 0
11, 93543, Note_on_c, 11, 73, 110
11, 93563, Note_on_c, 11, 73, 0
11, 93573, Note_on_c, 11, 73, 110
11, 93593, Note_on_c, 11, 73, 0
11, 93603, Note_on_c, 11, 74, 110
11, 93603, Control_c, 11, 11, 122
11, 93620, Control_c, 11, 11, 119
11, 93623, Note_on_c, 11, 74, 0
11, 93633, Note_on_c, 11, 74, 110
11, 93638, Control_c, 11, 11, 116
11, 93653, Note_on_c, 11, 74, 0
11, 93656, Control_c, 11, 11, 113
11, 93663, Note_on_c, 11, 74, 110
11, 93674, Control_c, 11, 11, 110
11, 93683, Note_on_c, 11, 74, 0
11, 93692, Control_c, 11, 11, 107
11, 93693, Note_on_c, 11, 74, 110
11, 93710, Control_c, 11, 11, 104
11, 93713, Note_on_c, 11, 74, 0
11, 93723, Note_on_c, 11, 74, 110
11, 93743, Note_on_c, 11, 74, 0
11, 93753, Note_on_c, 11, 74, 110
11, 93773, Note_on_c, 11, 74, 0
11, 93783, Note_on_c, 11, 74, 110
11, 93803, Note_on_c, 11, 74, 0
11, 93813, Note_on_c, 11, 74, 110
11, 93833, Note_on_c, 11, 74, 0
11, 93843, Control_c, 11, 11, 122
11, 93843, Note_on_c, 11, 76, 110
11, 93860, Control_c, 11, 11, 119
11, 93863, Note_on_c, 11, 76, 0
11, 93873, Note_on_c, 11, 76, 110
11, 93878, Control_c, 11, 11, 116
11, 93893, Note_on_c, 11, 76, 0
11, 93896, Control_c, 11, 11, 113
11, 93903, Note_on_c, 11, 76, 110
11, 93914, Control_c, 11, 11, 110
11, 93923, Note_on_c, 11, 76, 0
11, 93932, Control_c, 11, 11, 107
11, 93933, Note_on_c, 11, 76, 110
11, 93950, Control_c, 11, 11, 104
11, 93953, Note_on_c, 11, 76, 0
11, 93963, Note_on_c, 11, 76, 110
11, 93983, Note_on_c, 11, 76, 0
11, 93993, Note_on_c, 11, 76, 110
11, 94013, Note_on_c, 11, 76, 0
11, 94023, Note_on_c, 11, 76, 110
11, 94043, Note_on_c, 11, 76, 0
11, 94053, Note_on_c, 11, 76, 110
11, 94073, Note_on_c, 11, 76, 0
11, 94083, Note_on_c, 11, 72, 110
11, 94083, Control_c, 11, 11, 122
11, 94100, Control_c, 11, 11, 119
11, 94103, Note_on_c, 11, 72, 0
11, 94113, Note_on_c, 11, 72, 110
11, 94118, Control_c, 11, 11, 116
11, 94133, Note_on_c, 11, 72, 0
11, 94136, Control_c, 11, 11, 113
11, 94143, Note_on_c, 11, 72, 110
11, 94154, Control_c, 11, 11, 110
11, 94163, Note_on_c, 11, 72, 0
11, 94172, Control_c, 11, 11, 107
11, 94173, Note_on_c, 11, 72, 110
11, 94190, Control_c, 11, 11, 104
11, 94193, Note_on_c, 11, 72, 0
11, 94203, Note_on_c, 11, 72, 110
11, 94223, Note_on_c, 11, 72, 0
11, 94233, Note_on_c, 11, 72, 110
11, 94253, Note_on_c, 11, 72, 0
11, 94263, Note_on_c, 11, 72, 110
11, 94283, Note_on_c, 11, 72, 0
11, 94293, Note_on_c, 11, 72, 110
11, 94313, Note_on_c, 11, 72, 0
11, 94323, Note_on_c, 11, 74, 110
11, 94323, Control_c, 11, 11, 122
11, 94340, Control_c, 11, 11, 119
11, 94343, Note_on_c, 11, 74, 0
11, 94353, Note_on_c, 11, 74, 110
11, 94358, Control_c, 11, 11, 116
11, 94373, Note_on_c, 11, 74, 0
11, 94376, Control_c, 11, 11, 113
11, 94383, Note_on_c, 11, 74, 110
11, 94394, Control_c, 11, 11, 110
11, 94403, Note_on_c, 11, 74, 0
11, 94412, Control_c, 11, 11, 107
11, 94413, Note_on_c, 11, 74, 110
11, 94430, Control_c, 11, 11, 104
11, 94433, Note_on_c, 11, 74, 0
11, 94443, Note_on_c, 11, 74, 110
11, 94463, Note_on_c, 11, 74, 0
11, 94473, Note_on_c, 11, 74, 110
11, 94493, Note_on_c, 11, 74, 0
11, 94503, Note_on_c, 11, 74, 110
11, 94523, Note_on_c, 11, 74, 0
11, 94533, Note_on_c, 11, 74, 110
11, 94553, Note_on_c, 11, 74, 0
11, 94563, Note_on_c, 11, 67, 110
11, 94563, Control_c, 11, 11, 87
11, 94572, Control_c, 11, 11, 84
11, 94581, Control_c, 11, 11, 81
11, 94590, Control_c, 11, 11, 78
11, 94599, Control_c, 11, 11, 75
11, 94608, Control_c, 11, 11, 72
11, 94617, Control_c, 11, 11, 69
11, 94623, Note_on_c, 11, 67, 0
11, 94623, Note_on_c, 11, 55, 110
11, 94626, Control_c, 11, 11, 66
11, 94635, Control_c, 11, 11, 63
11, 94644, Control_c, 11, 11, 60
11, 94653, Control_c, 11, 11, 57
11, 94662, Control_c, 11, 11, 54
11, 94671, Control_c, 11, 11, 51
11, 94680, Control_c, 11, 11, 48
11, 94683, Note_on_c, 11, 55, 0
11, 94683, Note_on_c, 11, 67, 110
11, 94743, Note_on_c, 11, 67, 0
11, 94743, Note_on_c, 11, 55, 110
11, 94793, Note_on_c, 11, 55, 0
11, 94803, Note_on_c, 11, 67, 110
11, 94863, Note_on_c, 11, 67, 0
11, 94863, Note_on_c, 11, 55, 110
11, 94923, Note_on_c, 11, 55, 0
11, 94923, Note_on_c, 11, 67, 110
11, 94983, Note_on_c, 11, 67, 0
11, 94983, Note_on_c, 11, 55, 110
11, 95033, Note_on_c, 11, 55, 0
11, 95043, Note_on_c, 11, 67, 110
11, 95103, Note_on_c, 11, 67, 0
11, 95103, Note_on_c, 11, 55, 110
11, 95163, Note_on_c, 11, 55, 0
11, 95163, Note_on_c, 11, 67, 110
11, 95223, Note_on_c, 11, 67, 0
11, 95223, Note_on_c, 11, 55, 110
11, 95273, Note_on_c, 11, 55, 0
11, 95283, Note_on_c, 11, 67, 110
11, 95343, Note_on_c, 11, 67, 0
11, 95343, Note_on_c, 11, 55, 110
11, 95403, Note_on_c, 11, 55, 0
11, 95403, Control_c, 11, 11, 63
11, 95403, Note_on_c, 11, 66, 110
11, 95409, Control_c, 11, 11, 66
11, 95416, Control_c, 11, 11, 69
11, 95424, Control_c, 11, 11, 72
11, 95439, Control_c, 11, 11, 71
11, 95457, Control_c, 11, 11, 68
11, 95463, Note_on_c, 11, 66, 0
11, 95463, Note_on_c, 11, 57, 110
11, 95475, Control_c, 11, 11, 65
11, 95493, Control_c, 11, 11, 62
11, 95511, Control_c, 11, 11, 59
11, 95513, Note_on_c, 11, 57, 0
11, 95523, Note_on_c, 11, 67, 110
11, 95523, Control_c, 11, 11, 47
11, 95529, Control_c, 11, 11, 56
11, 95547, Control_c, 11, 11, 53
11, 95565, Control_c, 11, 11, 50
11, 95583, Note_on_c, 11, 67, 0
11, 95583, Note_on_c, 11, 55, 110
11, 95643, Note_on_c, 11, 55, 0
11, 95643, Note_on_c, 11, 67, 110
11, 95703, Note_on_c, 11, 67, 0
11, 95703, Note_on_c, 11, 55, 110
11, 95753, Note_on_c, 11, 55, 0
11, 95763, Note_on_c, 11, 67, 110
11, 95823, Note_on_c, 11, 67, 0
11, 95823, Note_on_c, 11, 55, 110
11, 95883, Note_on_c, 11, 55, 0
11, 95883, Note_on_c, 11, 67, 110
11, 95943, Note_on_c, 11, 67, 0
11, 95943, Note_on_c, 11, 55, 110
11, 95993, Note_on_c, 11, 55, 0
11, 96003, Note_on_c, 11, 67, 110
11, 96063, Note_on_c, 11, 67, 0
11, 96063, Note_on_c, 11, 55, 110
11, 96123, Note_on_c, 11, 55, 0
11, 96123, Note_on_c, 11, 67, 110
11, 96183, Note_on_c, 11, 67, 0
11, 96183, Note_on_c, 11, 55, 110
11, 96233, Note_on_c, 11, 55, 0
11, 96243, Note_on_c, 11, 67, 110
11, 96303, Note_on_c, 11, 67, 0
11, 96303, Note_on_c, 11, 55, 110
11, 96363, Note_on_c, 11, 55, 0
11, 96363, Note_on_c, 11, 66, 110
11, 96363, Control_c, 11, 11, 63
11, 96369, Control_c, 11, 11, 66
11, 96376, Control_c, 11, 11, 69
11, 96384, Control_c, 11, 11, 72
11, 96399, Control_c, 11, 11, 71
11, 96417, Control_c, 11, 11, 68
11, 96423, Note_on_c, 11, 66, 0
11, 96423, Note_on_c, 11, 57, 110
11, 96435, Control_c, 11, 11, 65
11, 96453, Control_c, 11, 11, 62
11, 96471, Control_c, 11, 11, 59
11, 96473, Note_on_c, 11, 57, 0
11, 96483, Note_on_c, 11, 67, 110
11, 96483, Control_c, 11, 11, 47
11, 96501, Control_c, 11, 11, 54
11, 96519, Control_c, 11, 11, 51
11, 96537, Control_c, 11, 11, 48
11, 96543, Note_on_c, 11, 67, 0
11, 96543, Note_on_c, 11, 55, 110
11, 96603, Note_on_c, 11, 55, 0
11, 96603, Note_on_c, 11, 67, 110
11, 96663, Note_on_c, 11, 67, 0
11, 96663, Note_on_c, 11, 55, 110
11, 96713, Note_on_c, 11, 55, 0
11, 96723, Note_on_c, 11, 67, 110
11, 96783, Note_on_c, 11, 67, 0
11, 96783, Note_on_c, 11, 55, 110
11, 96843, Note_on_c, 11, 55, 0
11, 96843, Note_on_c, 11, 60, 110
11, 96843, Control_c, 11, 11, 63
11, 96849, Control_c, 11, 11, 66
11, 96856, Control_c, 11, 11, 69
11, 96864, Control_c, 11, 11, 72
11, 96879, Control_c, 11, 11, 71
11, 96897, Control_c, 11, 11, 68
11, 96903, Note_on_c, 11, 60, 0
11, 96903, Note_on_c, 11, 62, 110
11, 96915, Control_c, 11, 11, 65
11, 96933, Control_c, 11, 11, 62
11, 96951, Control_c, 11, 11, 59
11, 96953, Note_on_c, 11, 62, 0
11, 96963, Note_on_c, 11, 59, 110
11, 96963, Control_c, 11, 11, 47
11, 96981, Control_c, 11, 11, 54
11, 96999, Control_c, 11, 11, 51
11, 97017, Control_c, 11, 11, 48
11, 97023, Note_on_c, 11, 59, 0
11, 97023, Note_on_c, 11, 55, 110
11, 97083, Note_on_c, 11, 55, 0
11, 97083, Note_on_c, 11, 67, 110
11, 97143, Note_on_c, 11, 67, 0
11, 97143, Note_on_c, 11, 55, 110
11, 97203, Note_on_c, 11, 55, 0
11, 97203, Note_on_c, 11, 67, 110
11, 97263, Note_on_c, 11, 67, 0
11, 97263, Note_on_c, 11, 55, 110
11, 97313, Note_on_c, 11, 55, 0
11, 97318, Control_c, 11, 11, 67
11, 97319, Control_c, 11, 11, 74
11, 97320, Control_c, 11, 11, 81
11, 97321, Control_c, 11, 11, 88
11, 97322, Control_c, 11, 11, 95
11, 97323, Note_on_c, 11, 72, 110
11, 97323, Note_on_c, 11, 62, 110
11, 97323, Control_c, 11, 11, 102
11, 97383, Note_on_c, 11, 62, 0
11, 97383, Note_on_c, 11, 72, 0
11, 97443, Note_on_c, 11, 55, 95
11, 97453, Note_on_c, 11, 62, 95
11, 97453, Note_on_c, 11, 71, 95
11, 97503, Note_on_c, 11, 55, 0
11, 97513, Note_on_c, 11, 71, 0
11, 97513, Note_on_c, 11, 62, 0
11, 98403, Note_on_c, 11, 55, 86
11, 98413, Note_on_c, 11, 71, 86
11, 98413, Note_on_c, 11, 62, 86
11, 98523, Note_on_c, 11, 55, 0
11, 98533, Note_on_c, 11, 62, 0
11, 98533, Note_on_c, 11, 71, 0
11, 99243, Control_c, 11, 11, 47
11, 99363, Note_on_c, 11, 69, 110
11, 99363, Note_on_c, 11, 61, 110
11, 99363, Control_c, 11, 11, 87
11, 99363, Note_on_c, 11, 64, 110
11, 99633, Control_c, 11, 11, 87
11, 99640, Control_c, 11, 11, 84
11, 99648, Control_c, 11, 11, 81
11, 99656, Control_c, 11, 11, 78
11, 99664, Control_c, 11, 11, 75
11, 99672, Control_c, 11, 11, 72
11, 99679, Control_c, 11, 11, 69
11, 99687, Control_c, 11, 11, 66
11, 99695, Control_c, 11, 11, 63
11, 99698, Note_on_c, 11, 64, 0
11, 99698, Note_on_c, 11, 61, 0
11, 99698, Note_on_c, 11, 69, 0
11, 100323, Control_c, 11, 11, 47
11, 100323, Note_on_c, 11, 69, 110
11, 100383, Note_on_c, 11, 69, 0
11, 100443, Note_on_c, 11, 70, 110
11, 100639, Note_on_c, 11, 70, 0
11, 100683, Note_on_c, 11, 69, 110
11, 100879, Note_on_c, 11, 69, 0
11, 100923, Note_on_c, 11, 70, 110
11, 101119, Note_on_c, 11, 70, 0
11, 101163, Note_on_c, 11, 69, 110
11, 101223, Note_on_c, 11, 69, 0
11, 101283, Control_c, 11, 11, 87
11, 101283, Note_on_c, 11, 74, 110
11, 101283, Note_on_c, 11, 62, 110
11, 101553, Control_c, 11, 11, 87
11, 101560, Control_c, 11, 11, 84
11, 101568, Control_c, 11, 11, 81
11, 101576, Control_c, 11, 11, 78
11, 101584, Control_c, 11, 11, 75
11, 101592, Control_c, 11, 11, 72
11, 101599, Control_c, 11, 11, 69
11, 101607, Control_c, 11, 11, 66
11, 101615, Control_c, 11, 11, 63
11, 101618, Note_on_c, 11, 62, 0
11, 101618, Note_on_c, 11, 74, 0
11, 102243, Note_on_c, 11, 74, 110
11, 102243, Control_c, 11, 11, 47
11, 102303, Note_on_c, 11, 74, 0
11, 102363, Note_on_c, 11, 75, 110
11, 102559, Note_on_c, 11, 75, 0
11, 102603, Note_on_c, 11, 74, 110
11, 102799, Note_on_c, 11, 74, 0
11, 102843, Note_on_c, 11, 75, 110
11, 103039, Note_on_c, 11, 75, 0
11, 103083, Note_on_c, 11, 74, 110
11, 103143, Note_on_c, 11, 74, 0
11, 103203, Control_c, 11, 11, 87
11, 103203, Note_on_c, 11, 74, 110
11, 103203, Note_on_c, 11, 62, 110
11, 103473, Control_c, 11, 11, 87
11, 103480, Control_c, 11, 11, 84
11, 103488, Control_c, 11, 11, 81
11, 103496, Control_c, 11, 11, 78
11, 103504, Control_c, 11, 11, 75
11, 103512, Control_c, 11, 11, 72
11, 103519, Control_c, 11, 11, 69
11, 103527, Control_c, 11, 11, 66
11, 103535, Control_c, 11, 11, 63
11, 103538, Note_on_c, 11, 62, 0
11, 103538, Note_on_c, 11, 74, 0
11, 104163, Control_c, 11, 11, 47
11, 104163, Note_on_c, 11, 67, 110
11, 104223, Note_on_c, 11, 67, 0
11, 104283, Note_on_c, 11, 68, 110
11, 104479, Note_on_c, 11, 68, 0
11, 104523, Note_on_c, 11, 67, 110
11, 104719, Note_on_c, 11, 67, 0
11, 104763, Note_on_c, 11, 68, 110
11, 104959, Note_on_c, 11, 68, 0
11, 105003, Note_on_c, 11, 65, 110
11, 105063, Note_on_c, 11, 65, 0
11, 105123, Note_on_c, 11, 63, 95
11, 105123, Control_c, 11, 11, 67
11, 105123, Note_on_c, 11, 55, 95
11, 105132, Control_c, 11, 11, 70
11, 105141, Control_c, 11, 11, 73
11, 105143, Note_on_c, 11, 55, 0
11, 105143, Note_on_c, 11, 63, 0
11, 105150, Control_c, 11, 11, 76
11, 105153, Note_on_c, 11, 55, 95
11, 105153, Note_on_c, 11, 63, 95
11, 105165, Control_c, 11, 11, 73
11, 105173, Note_on_c, 11, 63, 0
11, 105173, Note_on_c, 11, 55, 0
11, 105174, Control_c, 11, 11, 70
11, 105183, Control_c, 11, 11, 67
11, 105183, Note_on_c, 11, 55, 95
11, 105183, Note_on_c, 11, 63, 95
11, 105192, Control_c, 11, 11, 64
11, 105201, Control_c, 11, 11, 61
11, 105203, Note_on_c, 11, 63, 0
11, 105203, Note_on_c, 11, 55, 0
11, 105210, Control_c, 11, 11, 58
11, 105213, Note_on_c, 11, 55, 95
11, 105213, Note_on_c, 11, 63, 95
11, 105219, Control_c, 11, 11, 55
11, 105228, Control_c, 11, 11, 52
11, 105233, Note_on_c, 11, 63, 0
11, 105233, Note_on_c, 11, 55, 0
11, 105237, Control_c, 11, 11, 49
11, 105243, Note_on_c, 11, 63, 95
11, 105243, Note_on_c, 11, 55, 95
11, 105263, Note_on_c, 11, 55, 0
11, 105263, Note_on_c, 11, 63, 0
11, 105273, Note_on_c, 11, 63, 95
11, 105273, Note_on_c, 11, 55, 95
11, 105293, Note_on_c, 11, 55, 0
11, 105293, Note_on_c, 11, 63, 0
11, 105303, Note_on_c, 11, 55, 95
11, 105303, Note_on_c, 11, 63, 95
11, 105323, Note_on_c, 11, 63, 0
11, 105323, Note_on_c, 11, 55, 0
11, 105333, Note_on_c, 11, 63, 95
11, 105333, Note_on_c, 11, 55, 95
11, 105353, Note_on_c, 11, 55, 0
11, 105353, Note_on_c, 11, 63, 0
11, 105363, Note_on_c, 11, 63, 95
11, 105363, Note_on_c, 11, 55, 95
11, 105383, Note_on_c, 11, 55, 0
11, 105383, Note_on_c, 11, 63, 0
11, 105393, Note_on_c, 11, 63, 95
11, 105393, Note_on_c, 11, 55, 95
11, 105413, Note_on_c, 11, 55, 0
11, 105413, Note_on_c, 11, 63, 0
11, 105423, Note_on_c, 11, 63, 95
11, 105423, Note_on_c, 11, 55, 95
11, 105443, Note_on_c, 11, 55, 0
11, 105443, Note_on_c, 11, 63, 0
11, 105453, Note_on_c, 11, 55, 95
11, 105453, Note_on_c, 11, 63, 95
11, 105473, Note_on_c, 11, 63, 0
11, 105473, Note_on_c, 11, 55, 0
11, 105483, Note_on_c, 11, 55, 95
11, 105483, Note_on_c, 11, 63, 95
11, 105503, Note_on_c, 11, 63, 0
11, 105503, Note_on_c, 11, 55, 0
11, 105513, Note_on_c, 11, 55, 95
11, 105513, Note_on_c, 11, 63, 95
11, 105533, Note_on_c, 11, 63, 0
11, 105533, Note_on_c, 11, 55, 0
11, 105543, Note_on_c, 11, 55, 95
11, 105543, Note_on_c, 11, 63, 95
11, 105563, Note_on_c, 11, 63, 0
11, 105563, Note_on_c, 11, 55, 0
11, 105573, Note_on_c, 11, 55, 95
11, 105573, Note_on_c, 11, 63, 95
11, 105593, Note_on_c, 11, 63, 0
11, 105593, Note_on_c, 11, 55, 0
11, 105603, Note_on_c, 11, 63, 95
11, 105603, Note_on_c, 11, 55, 95
11, 105623, Note_on_c, 11, 55, 0
11, 105623, Note_on_c, 11, 63, 0
11, 105633, Note_on_c, 11, 55, 95
11, 105633, Note_on_c, 11, 63, 95
11, 105653, Note_on_c, 11, 63, 0
11, 105653, Note_on_c, 11, 55, 0
11, 105663, Note_on_c, 11, 63, 95
11, 105663, Note_on_c, 11, 55, 95
11, 105683, Note_on_c, 11, 55, 0
11, 105683, Note_on_c, 11, 63, 0
11, 105693, Note_on_c, 11, 63, 95
11, 105693, Note_on_c, 11, 55, 95
11, 105713, Note_on_c, 11, 55, 0
11, 105713, Note_on_c, 11, 63, 0
11, 105723, Note_on_c, 11, 55, 95
11, 105723, Note_on_c, 11, 63, 95
11, 105743, Note_on_c, 11, 63, 0
11, 105743, Note_on_c, 11, 55, 0
11, 105753, Note_on_c, 11, 55, 95
11, 105753, Note_on_c, 11, 63, 95
11, 105773, Note_on_c, 11, 63, 0
11, 105773, Note_on_c, 11, 55, 0
11, 105783, Note_on_c, 11, 63, 95
11, 105783, Note_on_c, 11, 55, 95
11, 105803, Note_on_c, 11, 55, 0
11, 105803, Note_on_c, 11, 63, 0
11, 105813, Note_on_c, 11, 55, 95
11, 105813, Note_on_c, 11, 63, 95
11, 105833, Note_on_c, 11, 63, 0
11, 105833, Note_on_c, 11, 55, 0
11, 105843, Note_on_c, 11, 55, 95
11, 105843, Note_on_c, 11, 63, 95
11, 105863, Note_on_c, 11, 63, 0
11, 105863, Note_on_c, 11, 55, 0
11, 105873, Note_on_c, 11, 63, 95
11, 105873, Note_on_c, 11, 55, 95
11, 105893, Note_on_c, 11, 55, 0
11, 105893, Note_on_c, 11, 63, 0
11, 105903, Note_on_c, 11, 63, 95
11, 105903, Note_on_c, 11, 55, 95
11, 105923, Note_on_c, 11, 55, 0
11, 105923, Note_on_c, 11, 63, 0
11, 105933, Note_on_c, 11, 55, 95
11, 105933, Note_on_c, 11, 63, 95
11, 105953, Note_on_c, 11, 63, 0
11, 105953, Note_on_c, 11, 55, 0
11, 105963, Note_on_c, 11, 63, 95
11, 105963, Note_on_c, 11, 55, 95
11, 105983, Note_on_c, 11, 55, 0
11, 105983, Note_on_c, 11, 63, 0
11, 105993, Note_on_c, 11, 63, 95
11, 105993, Note_on_c, 11, 55, 95
11, 106013, Note_on_c, 11, 55, 0
11, 106013, Note_on_c, 11, 63, 0
11, 106023, Note_on_c, 11, 55, 95
11, 106023, Note_on_c, 11, 63, 95
11, 106043, Note_on_c, 11, 63, 0
11, 106043, Note_on_c, 11, 55, 0
11, 106053, Note_on_c, 11, 63, 95
11, 106053, Note_on_c, 11, 55, 95
11, 106073, Note_on_c, 11, 55, 0
11, 106073, Note_on_c, 11, 63, 0
11, 106083, Note_on_c, 11, 63, 95
11, 106083, Note_on_c, 11, 55, 95
11, 106103, Note_on_c, 11, 55, 0
11, 106103, Note_on_c, 11, 63, 0
11, 106113, Note_on_c, 11, 55, 95
11, 106113, Note_on_c, 11, 63, 95
11, 106133, Note_on_c, 11, 63, 0
11, 106133, Note_on_c, 11, 55, 0
11, 106143, Note_on_c, 11, 55, 95
11, 106143, Note_on_c, 11, 63, 95
11, 106163, Note_on_c, 11, 63, 0
11, 106163, Note_on_c, 11, 55, 0
11, 106173, Note_on_c, 11, 55, 95
11, 106173, Note_on_c, 11, 63, 95
11, 106193, Note_on_c, 11, 63, 0
11, 106193, Note_on_c, 11, 55, 0
11, 106203, Note_on_c, 11, 63, 95
11, 106203, Note_on_c, 11, 55, 95
11, 106223, Note_on_c, 11, 55, 0
11, 106223, Note_on_c, 11, 63, 0
11, 106233, Note_on_c, 11, 55, 95
11, 106233, Note_on_c, 11, 63, 95
11, 106253, Note_on_c, 11, 63, 0
11, 106253, Note_on_c, 11, 55, 0
11, 106263, Note_on_c, 11, 63, 95
11, 106263, Note_on_c, 11, 55, 95
11, 106283, Note_on_c, 11, 55, 0
11, 106283, Note_on_c, 11, 63, 0
11, 106293, Note_on_c, 11, 63, 95
11, 106293, Note_on_c, 11, 55, 95
11, 106313, Note_on_c, 11, 55, 0
11, 106313, Note_on_c, 11, 63, 0
11, 106323, Note_on_c, 11, 63, 95
11, 106323, Note_on_c, 11, 55, 95
11, 106343, Note_on_c, 11, 55, 0
11, 106343, Note_on_c, 11, 63, 0
11, 106353, Note_on_c, 11, 55, 95
11, 106353, Note_on_c, 11, 63, 95
11, 106373, Note_on_c, 11, 63, 0
11, 106373, Note_on_c, 11, 55, 0
11, 106383, Note_on_c, 11, 55, 95
11, 106383, Note_on_c, 11, 63, 95
11, 106403, Note_on_c, 11, 63, 0
11, 106403, Note_on_c, 11, 55, 0
11, 106413, Note_on_c, 11, 63, 95
11, 106413, Note_on_c, 11, 55, 95
11, 106433, Note_on_c, 11, 55, 0
11, 106433, Note_on_c, 11, 63, 0
11, 106443, Note_on_c, 11, 63, 95
11, 106443, Note_on_c, 11, 55, 95
11, 106463, Note_on_c, 11, 55, 0
11, 106463, Note_on_c, 11, 63, 0
11, 106473, Note_on_c, 11, 55, 95
11, 106473, Note_on_c, 11, 63, 95
11, 106493, Note_on_c, 11, 63, 0
11, 106493, Note_on_c, 11, 55, 0
11, 106503, Note_on_c, 11, 63, 95
11, 106503, Note_on_c, 11, 55, 95
11, 106523, Note_on_c, 11, 55, 0
11, 106523, Note_on_c, 11, 63, 0
11, 106533, Note_on_c, 11, 63, 95
11, 106533, Note_on_c, 11, 55, 95
11, 106553, Note_on_c, 11, 55, 0
11, 106553, Note_on_c, 11, 63, 0
11, 106563, Note_on_c, 11, 63, 95
11, 106583, Note_on_c, 11, 63, 0
11, 106593, Note_on_c, 11, 63, 95
11, 106613, Note_on_c, 11, 63, 0
11, 106623, Note_on_c, 11, 63, 95
11, 106643, Note_on_c, 11, 63, 0
11, 106653, Note_on_c, 11, 63, 95
11, 106673, Note_on_c, 11, 63, 0
11, 106683, Note_on_c, 11, 72, 95
11, 106703, Note_on_c, 11, 72, 0
11, 106713, Note_on_c, 11, 72, 95
11, 106733, Note_on_c, 11, 72, 0
11, 106743, Note_on_c, 11, 72, 95
11, 106763, Note_on_c, 11, 72, 0
11, 106773, Note_on_c, 11, 72, 95
11, 106793, Note_on_c, 11, 72, 0
11, 106803, Note_on_c, 11, 72, 95
11, 106823, Note_on_c, 11, 72, 0
11, 106833, Note_on_c, 11, 72, 95
11, 106853, Note_on_c, 11, 72, 0
11, 106863, Note_on_c, 11, 72, 95
11, 106883, Note_on_c, 11, 72, 0
11, 106893, Note_on_c, 11, 72, 95
11, 106913, Note_on_c, 11, 72, 0
11, 106923, Note_on_c, 11, 70, 95
11, 106943, Note_on_c, 11, 70, 0
11, 106953, Note_on_c, 11, 70, 95
11, 106973, Note_on_c, 11, 70, 0
11, 106983, Note_on_c, 11, 70, 95
11, 107003, Note_on_c, 11, 70, 0
11, 107013, Note_on_c, 11, 70, 95
11, 107033, Note_on_c, 11, 70, 0
11, 107043, Note_on_c, 11, 68, 95
11, 107043, Control_c, 11, 11, 67
11, 107043, Note_on_c, 11, 60, 95
11, 107052, Control_c, 11, 11, 70
11, 107061, Control_c, 11, 11, 73
11, 107063, Note_on_c, 11, 60, 0
11, 107063, Note_on_c, 11, 68, 0
11, 107070, Control_c, 11, 11, 76
11, 107073, Note_on_c, 11, 60, 95
11, 107073, Note_on_c, 11, 68, 95
11, 107085, Control_c, 11, 11, 73
11, 107093, Note_on_c, 11, 68, 0
11, 107093, Note_on_c, 11, 60, 0
11, 107094, Control_c, 11, 11, 70
11, 107103, Note_on_c, 11, 68, 95
11, 107103, Note_on_c, 11, 60, 95
11, 107103, Control_c, 11, 11, 67
11, 107112, Control_c, 11, 11, 64
11, 107121, Control_c, 11, 11, 61
11, 107123, Note_on_c, 11, 60, 0
11, 107123, Note_on_c, 11, 68, 0
11, 107130, Control_c, 11, 11, 58
11, 107133, Note_on_c, 11, 68, 95
11, 107133, Note_on_c, 11, 60, 95
11, 107139, Control_c, 11, 11, 55
11, 107148, Control_c, 11, 11, 52
11, 107153, Note_on_c, 11, 60, 0
11, 107153, Note_on_c, 11, 68, 0
11, 107157, Control_c, 11, 11, 49
11, 107163, Note_on_c, 11, 68, 95
11, 107163, Note_on_c, 11, 60, 95
11, 107183, Note_on_c, 11, 60, 0
11, 107183, Note_on_c, 11, 68, 0
11, 107193, Note_on_c, 11, 60, 95
11, 107193, Note_on_c, 11, 68, 95
11, 107213, Note_on_c, 11, 68, 0
11, 107213, Note_on_c, 11, 60, 0
11, 107223, Note_on_c, 11, 60, 95
11, 107223, Note_on_c, 11, 68, 95
11, 107243, Note_on_c, 11, 68, 0
11, 107243, Note_on_c, 11, 60, 0
11, 107253, Note_on_c, 11, 68, 95
11, 107253, Note_on_c, 11, 60, 95
11, 107273, Note_on_c, 11, 60, 0
11, 107273, Note_on_c, 11, 68, 0
11, 107283, Note_on_c, 11, 68, 95
11, 107283, Note_on_c, 11, 60, 95
11, 107303, Note_on_c, 11, 60, 0
11, 107303, Note_on_c, 11, 68, 0
11, 107313, Note_on_c, 11, 68, 95
11, 107313, Note_on_c, 11, 60, 95
11, 107333, Note_on_c, 11, 60, 0
11, 107333, Note_on_c, 11, 68, 0
11, 107343, Note_on_c, 11, 68, 95
11, 107343, Note_on_c, 11, 60, 95
11, 107363, Note_on_c, 11, 60, 0
11, 107363, Note_on_c, 11, 68, 0
11, 107373, Note_on_c, 11, 60, 95
11, 107373, Note_on_c, 11, 68, 95
11, 107393, Note_on_c, 11, 68, 0
11, 107393, Note_on_c, 11, 60, 0
11, 107403, Note_on_c, 11, 68, 95
11, 107403, Note_on_c, 11, 60, 95
11, 107423, Note_on_c, 11, 60, 0
11, 107423, Note_on_c, 11, 68, 0
11, 107433, Note_on_c, 11, 60, 95
11, 107433, Note_on_c, 11, 68, 95
11, 107453, Note_on_c, 11, 68, 0
11, 107453, Note_on_c, 11, 60, 0
11, 107463, Note_on_c, 11, 68, 95
11, 107463, Note_on_c, 11, 60, 95
11, 107483, Note_on_c, 11, 60, 0
11, 107483, Note_on_c, 11, 68, 0
11, 107493, Note_on_c, 11, 68, 95
11, 107493, Note_on_c, 11, 60, 95
11, 107513, Note_on_c, 11, 60, 0
11, 107513, Note_on_c, 11, 68, 0
11, 107523, Note_on_c, 11, 68, 95
11, 107523, Note_on_c, 11, 60, 95
11, 107543, Note_on_c, 11, 60, 0
11, 107543, Note_on_c, 11, 68, 0
11, 107553, Note_on_c, 11, 68, 95
11, 107553, Note_on_c, 11, 60, 95
11, 107573, Note_on_c, 11, 60, 0
11, 107573, Note_on_c, 11, 68, 0
11, 107583, Note_on_c, 11, 60, 95
11, 107583, Note_on_c, 11, 68, 95
11, 107603, Note_on_c, 11, 68, 0
11, 107603, Note_on_c, 11, 60, 0
11, 107613, Note_on_c, 11, 60, 95
11, 107613, Note_on_c, 11, 68, 95
11, 107633, Note_on_c, 11, 68, 0
11, 107633, Note_on_c, 11, 60, 0
11, 107643, Note_on_c, 11, 60, 95
11, 107643, Note_on_c, 11, 68, 95
11, 107663, Note_on_c, 11, 68, 0
11, 107663, Note_on_c, 11, 60, 0
11, 107673, Note_on_c, 11, 68, 95
11, 107673, Note_on_c, 11, 60, 95
11, 107693, Note_on_c, 11, 60, 0
11, 107693, Note_on_c, 11, 68, 0
11, 107703, Note_on_c, 11, 68, 95
11, 107703, Note_on_c, 11, 60, 95
11, 107723, Note_on_c, 11, 60, 0
11, 107723, Note_on_c, 11, 68, 0
11, 107733, Note_on_c, 11, 68, 95
11, 107733, Note_on_c, 11, 60, 95
11, 107753, Note_on_c, 11, 60, 0
11, 107753, Note_on_c, 11, 68, 0
11, 107763, Note_on_c, 11, 60, 95
11, 107763, Note_on_c, 11, 68, 95
11, 107783, Note_on_c, 11, 68, 0
11, 107783, Note_on_c, 11, 60, 0
11, 107793, Note_on_c, 11, 68, 95
11, 107793, Note_on_c, 11, 60, 95
11, 107813, Note_on_c, 11, 60, 0
11, 107813, Note_on_c, 11, 68, 0
11, 107823, Note_on_c, 11, 68, 95
11, 107823, Note_on_c, 11, 60, 95
11, 107843, Note_on_c, 11, 60, 0
11, 107843, Note_on_c, 11, 68, 0
11, 107853, Note_on_c, 11, 60, 95
11, 107853, Note_on_c, 11, 68, 95
11, 107873, Note_on_c, 11, 68, 0
11, 107873, Note_on_c, 11, 60, 0
11, 107883, Note_on_c, 11, 68, 95
11, 107883, Note_on_c, 11, 60, 95
11, 107903, Note_on_c, 11, 60, 0
11, 107903, Note_on_c, 11, 68, 0
11, 107913, Note_on_c, 11, 68, 95
11, 107913, Note_on_c, 11, 60, 95
11, 107933, Note_on_c, 11, 60, 0
11, 107933, Note_on_c, 11, 68, 0
11, 107943, Note_on_c, 11, 60, 95
11, 107943, Note_on_c, 11, 68, 95
11, 107963, Note_on_c, 11, 68, 0
11, 107963, Note_on_c, 11, 60, 0
11, 107973, Note_on_c, 11, 68, 95
11, 107973, Note_on_c, 11, 60, 95
11, 107993, Note_on_c, 11, 60, 0
11, 107993, Note_on_c, 11, 68, 0
11, 108003, Note_on_c, 11, 60, 95
11, 108003, Note_on_c, 11, 68, 95
11, 108023, Note_on_c, 11, 68, 0
11, 108023, Note_on_c, 11, 60, 0
11, 108033, Note_on_c, 11, 68, 95
11, 108033, Note_on_c, 11, 60, 95
11, 108053, Note_on_c, 11, 60, 0
11, 108053, Note_on_c, 11, 68, 0
11, 108063, Note_on_c, 11, 60, 95
11, 108063, Note_on_c, 11, 68, 95
11, 108083, Note_on_c, 11, 68, 0
11, 108083, Note_on_c, 11, 60, 0
11, 108093, Note_on_c, 11, 60, 95
11, 108093, Note_on_c, 11, 68, 95
11, 108113, Note_on_c, 11, 68, 0
11, 108113, Note_on_c, 11, 60, 0
11, 108123, Note_on_c, 11, 68, 95
11, 108123, Note_on_c, 11, 60, 95
11, 108143, Note_on_c, 11, 60, 0
11, 108143, Note_on_c, 11, 68, 0
11, 108153, Note_on_c, 11, 68, 95
11, 108153, Note_on_c, 11, 60, 95
11, 108173, Note_on_c, 11, 60, 0
11, 108173, Note_on_c, 11, 68, 0
11, 108183, Note_on_c, 11, 60, 95
11, 108183, Note_on_c, 11, 68, 95
11, 108203, Note_on_c, 11, 68, 0
11, 108203, Note_on_c, 11, 60, 0
11, 108213, Note_on_c, 11, 60, 95
11, 108213, Note_on_c, 11, 68, 95
11, 108233, Note_on_c, 11, 68, 0
11, 108233, Note_on_c, 11, 60, 0
11, 108243, Note_on_c, 11, 60, 95
11, 108243, Note_on_c, 11, 68, 95
11, 108263, Note_on_c, 11, 68, 0
11, 108263, Note_on_c, 11, 60, 0
11, 108273, Note_on_c, 11, 68, 95
11, 108273, Note_on_c, 11, 60, 95
11, 108293, Note_on_c, 11, 60, 0
11, 108293, Note_on_c, 11, 68, 0
11, 108303, Note_on_c, 11, 60, 95
11, 108303, Note_on_c, 11, 68, 95
11, 108323, Note_on_c, 11, 68, 0
11, 108323, Note_on_c, 11, 60, 0
11, 108333, Note_on_c, 11, 60, 95
11, 108333, Note_on_c, 11, 68, 95
11, 108353, Note_on_c, 11, 68, 0
11, 108353, Note_on_c, 11, 60, 0
11, 108363, Note_on_c, 11, 60, 95
11, 108363, Note_on_c, 11, 68, 95
11, 108383, Note_on_c, 11, 68, 0
11, 108383, Note_on_c, 11, 60, 0
11, 108393, Note_on_c, 11, 68, 95
11, 108393, Note_on_c, 11, 60, 95
11, 108413, Note_on_c, 11, 60, 0
11, 108413, Note_on_c, 11, 68, 0
11, 108423, Note_on_c, 11, 68, 95
11, 108423, Note_on_c, 11, 60, 95
11, 108443, Note_on_c, 11, 60, 0
11, 108443, Note_on_c, 11, 68, 0
11, 108453, Note_on_c, 11, 68, 95
11, 108453, Note_on_c, 11, 60, 95
11, 108473, Note_on_c, 11, 60, 0
11, 108473, Note_on_c, 11, 68, 0
11, 108483, Note_on_c, 11, 68, 95
11, 108503, Note_on_c, 11, 68, 0
11, 108513, Note_on_c, 11, 68, 95
11, 108533, Note_on_c, 11, 68, 0
11, 108543, Note_on_c, 11, 68, 95
11, 108563, Note_on_c, 11, 68, 0
11, 108573, Note_on_c, 11, 68, 95
11, 108593, Note_on_c, 11, 68, 0
11, 108603, Note_on_c, 11, 77, 95
11, 108623, Note_on_c, 11, 77, 0
11, 108633, Note_on_c, 11, 77, 95
11, 108653, Note_on_c, 11, 77, 0
11, 108663, Note_on_c, 11, 77, 95
11, 108683, Note_on_c, 11, 77, 0
11, 108693, Note_on_c, 11, 77, 95
11, 108713, Note_on_c, 11, 77, 0
11, 108723, Note_on_c, 11, 77, 95
11, 108743, Note_on_c, 11, 77, 0
11, 108753, Note_on_c, 11, 77, 95
11, 108773, Note_on_c, 11, 77, 0
11, 108783, Note_on_c, 11, 77, 95
11, 108803, Note_on_c, 11, 77, 0
11, 108813, Note_on_c, 11, 77, 95
11, 108833, Note_on_c, 11, 77, 0
11, 108843, Note_on_c, 11, 75, 95
11, 108863, Note_on_c, 11, 75, 0
11, 108873, Note_on_c, 11, 75, 95
11, 108893, Note_on_c, 11, 75, 0
11, 108903, Note_on_c, 11, 75, 95
11, 108923, Note_on_c, 11, 75, 0
11, 108933, Note_on_c, 11, 75, 95
11, 108953, Note_on_c, 11, 75, 0
11, 108963, Control_c, 11, 11, 47
11, 108963, Note_on_c, 11, 74, 95
11, 108983, Note_on_c, 11, 74, 0
11, 108987, Control_c, 11, 11, 45
11, 108993, Note_on_c, 11, 65, 95
11, 109011, Control_c, 11, 11, 43
11, 109013, Note_on_c, 11, 65, 0
11, 109023, Note_on_c, 11, 65, 95
11, 109035, Control_c, 11, 11, 41
11, 109043, Note_on_c, 11, 65, 0
11, 109053, Note_on_c, 11, 65, 95
11, 109059, Control_c, 11, 11, 39
11, 109073, Note_on_c, 11, 65, 0
11, 109083, Control_c, 11, 11, 37
11, 109083, Note_on_c, 11, 65, 95
11, 109103, Note_on_c, 11, 65, 0
11, 109113, Note_on_c, 11, 65, 95
11, 109133, Note_on_c, 11, 65, 0
11, 109143, Note_on_c, 11, 65, 95
11, 109163, Note_on_c, 11, 65, 0
11, 109173, Note_on_c, 11, 65, 95
11, 109193, Note_on_c, 11, 65, 0
11, 109203, Note_on_c, 11, 65, 95
11, 109223, Note_on_c, 11, 65, 0
11, 109233, Note_on_c, 11, 65, 95
11, 109253, Note_on_c, 11, 65, 0
11, 109263, Note_on_c, 11, 65, 95
11, 109283, Note_on_c, 11, 65, 0
11, 109293, Note_on_c, 11, 65, 95
11, 109313, Note_on_c, 11, 65, 0
11, 109323, Note_on_c, 11, 65, 95
11, 109343, Note_on_c, 11, 65, 0
11, 109353, Note_on_c, 11, 65, 95
11, 109373, Note_on_c, 11, 65, 0
11, 109383, Note_on_c, 11, 65, 95
11, 109403, Note_on_c, 11, 65, 0
11, 109413, Note_on_c, 11, 65, 95
11, 109433, Note_on_c, 11, 65, 0
11, 109443, Note_on_c, 11, 65, 95
11, 109463, Note_on_c, 11, 65, 0
11, 109473, Note_on_c, 11, 65, 95
11, 109493, Note_on_c, 11, 65, 0
11, 109503, Note_on_c, 11, 65, 95
11, 109523, Note_on_c, 11, 65, 0
11, 109533, Note_on_c, 11, 65, 95
11, 109553, Note_on_c, 11, 65, 0
11, 109563, Note_on_c, 11, 65, 95
11, 109583, Note_on_c, 11, 65, 0
11, 109593, Note_on_c, 11, 65, 95
11, 109613, Note_on_c, 11, 65, 0
11, 109623, Note_on_c, 11, 65, 95
11, 109643, Note_on_c, 11, 65, 0
11, 109653, Note_on_c, 11, 65, 95
11, 109673, Note_on_c, 11, 65, 0
11, 109683, Note_on_c, 11, 65, 95
11, 109703, Note_on_c, 11, 65, 0
11, 109713, Note_on_c, 11, 65, 95
11, 109733, Note_on_c, 11, 65, 0
11, 109743, Note_on_c, 11, 65, 95
11, 109763, Note_on_c, 11, 65, 0
11, 109773, Note_on_c, 11, 65, 95
11, 109793, Note_on_c, 11, 65, 0
11, 109803, Note_on_c, 11, 65, 95
11, 109823, Note_on_c, 11, 65, 0
11, 109833, Note_on_c, 11, 65, 95
11, 109853, Note_on_c, 11, 65, 0
11, 109863, Note_on_c, 11, 65, 95
11, 109883, Note_on_c, 11, 65, 0
11, 109893, Note_on_c, 11, 65, 95
11, 109913, Note_on_c, 11, 65, 0
11, 109923, Control_c, 11, 11, 37
11, 109923, Note_on_c, 11, 67, 95
11, 109943, Note_on_c, 11, 67, 0
11, 109952, Control_c, 11, 11, 39
11, 109953, Note_on_c, 11, 67, 95
11, 109967, Control_c, 11, 11, 40
11, 109973, Note_on_c, 11, 67, 0
11, 109982, Control_c, 11, 11, 41
11, 109983, Note_on_c, 11, 67, 95
11, 110003, Note_on_c, 11, 67, 0
11, 110011, Control_c, 11, 11, 43
11, 110013, Note_on_c, 11, 67, 95
11, 110026, Control_c, 11, 11, 44
11, 110033, Note_on_c, 11, 67, 0
11, 110041, Control_c, 11, 11, 45
11, 110043, Note_on_c, 11, 67, 95
11, 110063, Note_on_c, 11, 67, 0
11, 110070, Control_c, 11, 11, 47
11, 110073, Note_on_c, 11, 67, 95
11, 110085, Control_c, 11, 11, 48
11, 110093, Note_on_c, 11, 67, 0
11, 110100, Control_c, 11, 11, 49
11, 110103, Note_on_c, 11, 67, 95
11, 110115, Control_c, 11, 11, 50
11, 110123, Note_on_c, 11, 67, 0
11, 110133, Note_on_c, 11, 67, 95
11, 110144, Control_c, 11, 11, 52
11, 110153, Note_on_c, 11, 67, 0
11, 110159, Control_c, 11, 11, 53
11, 110163, Note_on_c, 11, 67, 95
11, 110174, Control_c, 11, 11, 54
11, 110183, Note_on_c, 11, 67, 0
11, 110193, Note_on_c, 11, 67, 95
11, 110203, Control_c, 11, 11, 56
11, 110213, Note_on_c, 11, 67, 0
11, 110218, Control_c, 11, 11, 57
11, 110223, Note_on_c, 11, 67, 95
11, 110233, Control_c, 11, 11, 58
11, 110243, Note_on_c, 11, 67, 0
11, 110253, Note_on_c, 11, 67, 95
11, 110262, Control_c, 11, 11, 60
11, 110273, Note_on_c, 11, 67, 0
11, 110277, Control_c, 11, 11, 61
11, 110283, Note_on_c, 11, 67, 95
11, 110292, Control_c, 11, 11, 62
11, 110303, Note_on_c, 11, 67, 0
11, 110307, Control_c, 11, 11, 63
11, 110313, Note_on_c, 11, 67, 95
11, 110333, Note_on_c, 11, 67, 0
11, 110336, Control_c, 11, 11, 65
11, 110343, Note_on_c, 11, 67, 95
11, 110351, Control_c, 11, 11, 66
11, 110363, Note_on_c, 11, 67, 0
11, 110366, Control_c, 11, 11, 67
11, 110373, Note_on_c, 11, 67, 95
11, 110393, Note_on_c, 11, 67, 0
11, 110395, Control_c, 11, 11, 69
11, 110403, Note_on_c, 11, 67, 95
11, 110410, Control_c, 11, 11, 70
11, 110423, Note_on_c, 11, 67, 0
11, 110425, Control_c, 11, 11, 71
11, 110433, Note_on_c, 11, 67, 95
11, 110453, Note_on_c, 11, 67, 0
11, 110454, Control_c, 11, 11, 73
11, 110463, Note_on_c, 11, 67, 95
11, 110469, Control_c, 11, 11, 74
11, 110483, Note_on_c, 11, 67, 0
11, 110484, Control_c, 11, 11, 75
11, 110493, Note_on_c, 11, 67, 95
11, 110499, Control_c, 11, 11, 76
11, 110513, Note_on_c, 11, 67, 0
11, 110523, Note_on_c, 11, 67, 95
11, 110528, Control_c, 11, 11, 78
11, 110543, Note_on_c, 11, 67, 0
11, 110543, Control_c, 11, 11, 79
11, 110553, Note_on_c, 11, 67, 95
11, 110558, Control_c, 11, 11, 80
11, 110573, Note_on_c, 11, 67, 0
11, 110583, Note_on_c, 11, 67, 95
11, 110587, Control_c, 11, 11, 82
11, 110602, Control_c, 11, 11, 83
11, 110603, Note_on_c, 11, 67, 0
11, 110613, Note_on_c, 11, 67, 95
11, 110617, Control_c, 11, 11, 84
11, 110633, Note_on_c, 11, 67, 0
11, 110643, Note_on_c, 11, 67, 95
11, 110646, Control_c, 11, 11, 86
11, 110661, Control_c, 11, 11, 87
11, 110663, Note_on_c, 11, 67, 0
11, 110673, Note_on_c, 11, 67, 95
11, 110676, Control_c, 11, 11, 88
11, 110691, Control_c, 11, 11, 89
11, 110693, Note_on_c, 11, 67, 0
11, 110703, Note_on_c, 11, 67, 95
11, 110720, Control_c, 11, 11, 91
11, 110723, Note_on_c, 11, 67, 0
11, 110733, Note_on_c, 11, 67, 95
11, 110735, Control_c, 11, 11, 92
11, 110750, Control_c, 11, 11, 93
11, 110753, Note_on_c, 11, 67, 0
11, 110763, Note_on_c, 11, 67, 95
11, 110779, Control_c, 11, 11, 95
11, 110783, Note_on_c, 11, 67, 0
11, 110793, Note_on_c, 11, 67, 95
11, 110794, Control_c, 11, 11, 96
11, 110809, Control_c, 11, 11, 97
11, 110813, Note_on_c, 11, 67, 0
11, 110823, Note_on_c, 11, 67, 95
11, 110838, Control_c, 11, 11, 99
11, 110843, Note_on_c, 11, 67, 0
11, 110853, Control_c, 11, 11, 100
11, 110853, Note_on_c, 11, 67, 95
11, 110868, Control_c, 11, 11, 101
11, 110873, Note_on_c, 11, 67, 0
11, 110883, Note_on_c, 11, 69, 95
11, 110883, Control_c, 11, 11, 102
11, 110883, Note_on_c, 11, 63, 95
11, 110903, Note_on_c, 11, 63, 0
11, 110903, Note_on_c, 11, 69, 0
11, 110913, Note_on_c, 11, 63, 95
11, 110913, Note_on_c, 11, 69, 95
11, 110933, Note_on_c, 11, 69, 0
11, 110933, Note_on_c, 11, 63, 0
11, 110943, Note_on_c, 11, 69, 95
11, 110943, Note_on_c, 11, 63, 95
11, 110963, Note_on_c, 11, 63, 0
11, 110963, Note_on_c, 11, 69, 0
11, 110973, Note_on_c, 11, 69, 95
11, 110973, Note_on_c, 11, 63, 95
11, 110993, Note_on_c, 11, 63, 0
11, 110993, Note_on_c, 11, 69, 0
11, 111003, Note_on_c, 11, 63, 95
11, 111003, Note_on_c, 11, 69, 95
11, 111023, Note_on_c, 11, 69, 0
11, 111023, Note_on_c, 11, 63, 0
11, 111033, Note_on_c, 11, 63, 95
11, 111033, Note_on_c, 11, 69, 95
11, 111053, Note_on_c, 11, 69, 0
11, 111053, Note_on_c, 11, 63, 0
11, 111063, Note_on_c, 11, 63, 95
11, 111063, Note_on_c, 11, 69, 95
11, 111083, Note_on_c, 11, 69, 0
11, 111083, Note_on_c, 11, 63, 0
11, 111093, Note_on_c, 11, 69, 95
11, 111093, Note_on_c, 11, 63, 95
11, 111113, Note_on_c, 11, 63, 0
11, 111113, Note_on_c, 11, 69, 0
11, 111123, Note_on_c, 11, 63, 95
11, 111123, Note_on_c, 11, 69, 95
11, 111143, Note_on_c, 11, 69, 0
11, 111143, Note_on_c, 11, 63, 0
11, 111153, Note_on_c, 11, 63, 95
11, 111153, Note_on_c, 11, 69, 95
11, 111173, Note_on_c, 11, 69, 0
11, 111173, Note_on_c, 11, 63, 0
11, 111183, Note_on_c, 11, 69, 96
11, 111183, Note_on_c, 11, 63, 96
11, 111203, Note_on_c, 11, 63, 0
11, 111203, Note_on_c, 11, 69, 0
11, 111213, Note_on_c, 11, 69, 96
11, 111213, Note_on_c, 11, 63, 96
11, 111233, Note_on_c, 11, 63, 0
11, 111233, Note_on_c, 11, 69, 0
11, 111243, Note_on_c, 11, 63, 97
11, 111243, Note_on_c, 11, 69, 97
11, 111263, Note_on_c, 11, 69, 0
11, 111263, Note_on_c, 11, 63, 0
11, 111273, Note_on_c, 11, 69, 98
11, 111273, Note_on_c, 11, 63, 98
11, 111293, Note_on_c, 11, 63, 0
11, 111293, Note_on_c, 11, 69, 0
11, 111303, Note_on_c, 11, 63, 98
11, 111303, Note_on_c, 11, 69, 98
11, 111323, Note_on_c, 11, 69, 0
11, 111323, Note_on_c, 11, 63, 0
11, 111333, Note_on_c, 11, 69, 99
11, 111333, Note_on_c, 11, 63, 99
11, 111353, Note_on_c, 11, 63, 0
11, 111353, Note_on_c, 11, 69, 0
11, 111363, Note_on_c, 11, 63, 100
11, 111363, Note_on_c, 11, 69, 100
11, 111383, Note_on_c, 11, 69, 0
11, 111383, Note_on_c, 11, 63, 0
11, 111393, Note_on_c, 11, 63, 100
11, 111393, Note_on_c, 11, 69, 100
11, 111413, Note_on_c, 11, 69, 0
11, 111413, Note_on_c, 11, 63, 0
11, 111423, Note_on_c, 11, 63, 101
11, 111423, Note_on_c, 11, 69, 101
11, 111443, Note_on_c, 11, 69, 0
11, 111443, Note_on_c, 11, 63, 0
11, 111453, Note_on_c, 11, 63, 101
11, 111453, Note_on_c, 11, 69, 101
11, 111473, Note_on_c, 11, 69, 0
11, 111473, Note_on_c, 11, 63, 0
11, 111483, Note_on_c, 11, 63, 102
11, 111483, Note_on_c, 11, 69, 102
11, 111503, Note_on_c, 11, 69, 0
11, 111503, Note_on_c, 11, 63, 0
11, 111513, Note_on_c, 11, 63, 103
11, 111513, Note_on_c, 11, 69, 103
11, 111533, Note_on_c, 11, 69, 0
11, 111533, Note_on_c, 11, 63, 0
11, 111543, Note_on_c, 11, 69, 103
11, 111543, Note_on_c, 11, 63, 103
11, 111563, Note_on_c, 11, 63, 0
11, 111563, Note_on_c, 11, 69, 0
11, 111573, Note_on_c, 11, 63, 104
11, 111573, Note_on_c, 11, 69, 104
11, 111593, Note_on_c, 11, 69, 0
11, 111593, Note_on_c, 11, 63, 0
11, 111603, Note_on_c, 11, 69, 105
11, 111603, Note_on_c, 11, 63, 105
11, 111623, Note_on_c, 11, 63, 0
11, 111623, Note_on_c, 11, 69, 0
11, 111633, Note_on_c, 11, 69, 105
11, 111633, Note_on_c, 11, 63, 105
11, 111653, Note_on_c, 11, 63, 0
11, 111653, Note_on_c, 11, 69, 0
11, 111663, Note_on_c, 11, 69, 106
11, 111663, Note_on_c, 11, 63, 106
11, 111683, Note_on_c, 11, 63, 0
11, 111683, Note_on_c, 11, 69, 0
11, 111693, Note_on_c, 11, 69, 106
11, 111693, Note_on_c, 11, 63, 106
11, 111713, Note_on_c, 11, 63, 0
11, 111713, Note_on_c, 11, 69, 0
11, 111723, Note_on_c, 11, 63, 107
11, 111723, Note_on_c, 11, 69, 107
11, 111743, Note_on_c, 11, 69, 0
11, 111743, Note_on_c, 11, 63, 0
11, 111753, Note_on_c, 11, 69, 108
11, 111753, Note_on_c, 11, 63, 108
11, 111773, Note_on_c, 11, 63, 0
11, 111773, Note_on_c, 11, 69, 0
11, 111783, Note_on_c, 11, 63, 108
11, 111783, Note_on_c, 11, 69, 108
11, 111803, Note_on_c, 11, 69, 0
11, 111803, Note_on_c, 11, 63, 0
11, 111813, Note_on_c, 11, 69, 109
11, 111813, Note_on_c, 11, 63, 109
11, 111813, Control_c, 11, 11, 92
11, 111818, Control_c, 11, 11, 89
11, 111823, Control_c, 11, 11, 86
11, 111828, Control_c, 11, 11, 83
11, 111833, Note_on_c, 11, 63, 0
11, 111833, Note_on_c, 11, 69, 0
11, 111833, Control_c, 11, 11, 80
11, 111838, Control_c, 11, 11, 77
11, 111843, Control_c, 11, 11, 74
11, 111843, Note_on_c, 11, 70, 100
11, 111843, Note_on_c, 11, 62, 100
11, 111848, Control_c, 11, 11, 71
11, 111853, Control_c, 11, 11, 68
11, 111858, Control_c, 11, 11, 65
11, 111863, Control_c, 11, 11, 62
11, 111868, Control_c, 11, 11, 59
11, 111873, Control_c, 11, 11, 56
11, 111878, Control_c, 11, 11, 53
11, 111883, Control_c, 11, 11, 50
11, 111888, Control_c, 11, 11, 47
11, 111963, Note_on_c, 11, 62, 0
11, 111963, Note_on_c, 11, 70, 0
11, 112323, Note_on_c, 11, 58, 110
11, 112353, Note_on_c, 11, 58, 0
11, 112383, Note_on_c, 11, 70, 110
11, 112413, Note_on_c, 11, 70, 0
11, 112443, Note_on_c, 11, 70, 110
11, 112473, Note_on_c, 11, 70, 0
11, 112503, Note_on_c, 11, 70, 110
11, 112533, Note_on_c, 11, 70, 0
11, 112563, Note_on_c, 11, 68, 110
11, 112623, Note_on_c, 11, 68, 0
11, 112623, Note_on_c, 11, 67, 110
11, 112673, Note_on_c, 11, 67, 0
11, 112683, Note_on_c, 11, 65, 110
11, 112713, Note_on_c, 11, 65, 0
11, 112743, Note_on_c, 11, 63, 110
11, 112773, Note_on_c, 11, 63, 0
11, 112803, Note_on_c, 11, 62, 110
11, 112923, Note_on_c, 11, 62, 0
11, 112983, Note_on_c, 11, 62, 110
11, 113013, Note_on_c, 11, 62, 0
11, 113043, Note_on_c, 11, 63, 110
11, 113073, Note_on_c, 11, 63, 0
11, 113103, Note_on_c, 11, 65, 110
11, 113133, Note_on_c, 11, 65, 0
11, 113163, Note_on_c, 11, 67, 110
11, 113193, Note_on_c, 11, 67, 0
11, 113223, Note_on_c, 11, 69, 110
11, 113253, Note_on_c, 11, 69, 0
11, 113283, Note_on_c, 11, 70, 110
11, 113313, Note_on_c, 11, 70, 0
11, 113343, Note_on_c, 11, 70, 110
11, 113373, Note_on_c, 11, 70, 0
11, 113403, Note_on_c, 11, 70, 110
11, 113433, Note_on_c, 11, 70, 0
11, 113463, Note_on_c, 11, 70, 110
11, 113493, Note_on_c, 11, 70, 0
11, 113523, Note_on_c, 11, 68, 110
11, 113583, Note_on_c, 11, 68, 0
11, 113583, Note_on_c, 11, 67, 110
11, 113633, Note_on_c, 11, 67, 0
11, 113643, Note_on_c, 11, 65, 110
11, 113673, Note_on_c, 11, 65, 0
11, 113703, Control_c, 11, 11, 47
11, 113703, Note_on_c, 11, 63, 110
11, 113712, Control_c, 11, 11, 50
11, 113721, Control_c, 11, 11, 53
11, 113730, Control_c, 11, 11, 56
11, 113733, Note_on_c, 11, 63, 0
11, 113739, Control_c, 11, 11, 59
11, 113748, Control_c, 11, 11, 62
11, 113757, Control_c, 11, 11, 65
11, 113763, Note_on_c, 11, 62, 110
11, 113766, Control_c, 11, 11, 68
11, 113775, Control_c, 11, 11, 71
11, 113784, Control_c, 11, 11, 74
11, 113793, Note_on_c, 11, 62, 0
11, 113793, Control_c, 11, 11, 77
11, 113802, Control_c, 11, 11, 80
11, 113811, Control_c, 11, 11, 83
11, 113820, Control_c, 11, 11, 86
11, 113823, Note_on_c, 11, 70, 110
11, 113853, Note_on_c, 11, 70, 0
11, 113883, Note_on_c, 11, 70, 110
11, 113913, Note_on_c, 11, 70, 0
11, 113943, Note_on_c, 11, 70, 110
11, 113973, Note_on_c, 11, 70, 0
11, 114003, Note_on_c, 11, 68, 110
11, 114063, Note_on_c, 11, 68, 0
11, 114063, Note_on_c, 11, 67, 110
11, 114113, Note_on_c, 11, 67, 0
11, 114123, Note_on_c, 11, 65, 110
11, 114153, Note_on_c, 11, 65, 0
11, 114183, Note_on_c, 11, 63, 110
11, 114213, Note_on_c, 11, 63, 0
11, 114243, Note_on_c, 11, 62, 110
11, 114273, Note_on_c, 11, 62, 0
11, 114303, Note_on_c, 11, 70, 110
11, 114333, Note_on_c, 11, 70, 0
11, 114363, Note_on_c, 11, 70, 110
11, 114393, Note_on_c, 11, 70, 0
11, 114423, Note_on_c, 11, 70, 110
11, 114453, Note_on_c, 11, 70, 0
11, 114483, Note_on_c, 11, 68, 110
11, 114543, Note_on_c, 11, 68, 0
11, 114543, Note_on_c, 11, 67, 110
11, 114593, Note_on_c, 11, 67, 0
11, 114603, Note_on_c, 11, 65, 110
11, 114633, Note_on_c, 11, 65, 0
11, 114663, Note_on_c, 11, 63, 110
11, 114693, Note_on_c, 11, 63, 0
11, 114723, Note_on_c, 11, 62, 110
11, 114843, Note_on_c, 11, 62, 0
11, 115683, Note_on_c, 11, 63, 95
11, 115683, Control_c, 11, 11, 47
11, 115713, Note_on_c, 11, 63, 0
11, 115743, Note_on_c, 11, 67, 95
11, 115773, Note_on_c, 11, 67, 0
11, 115803, Note_on_c, 11, 67, 95
11, 115833, Note_on_c, 11, 67, 0
11, 115863, Note_on_c, 11, 67, 95
11, 115893, Note_on_c, 11, 67, 0
11, 115923, Note_on_c, 11, 67, 95
11, 115953, Note_on_c, 11, 67, 0
11, 115983, Note_on_c, 11, 67, 95
11, 116013, Note_on_c, 11, 67, 0
11, 116043, Note_on_c, 11, 67, 95
11, 116073, Note_on_c, 11, 67, 0
11, 116103, Note_on_c, 11, 65, 95
11, 116133, Note_on_c, 11, 65, 0
11, 116163, Note_on_c, 11, 63, 95
11, 116193, Note_on_c, 11, 63, 0
11, 116223, Note_on_c, 11, 67, 95
11, 116253, Note_on_c, 11, 67, 0
11, 116283, Note_on_c, 11, 67, 95
11, 116313, Note_on_c, 11, 67, 0
11, 116343, Note_on_c, 11, 65, 95
11, 116373, Note_on_c, 11, 65, 0
11, 116403, Note_on_c, 11, 63, 95
11, 116433, Note_on_c, 11, 63, 0
11, 116463, Note_on_c, 11, 67, 95
11, 116493, Note_on_c, 11, 67, 0
11, 116523, Note_on_c, 11, 67, 95
11, 116553, Note_on_c, 11, 67, 0
11, 116583, Note_on_c, 11, 65, 95
11, 116613, Note_on_c, 11, 65, 0
11, 116643, Note_on_c, 11, 63, 95
11, 116763, Note_on_c, 11, 63, 0
11, 117603, Note_on_c, 11, 65, 95
11, 117633, Note_on_c, 11, 65, 0
11, 117663, Note_on_c, 11, 68, 95
11, 117693, Note_on_c, 11, 68, 0
11, 117723, Note_on_c, 11, 68, 95
11, 117753, Note_on_c, 11, 68, 0
11, 117783, Note_on_c, 11, 68, 95
11, 117813, Note_on_c, 11, 68, 0
11, 117843, Note_on_c, 11, 68, 95
11, 117873, Note_on_c, 11, 68, 0
11, 117903, Note_on_c, 11, 68, 95
11, 117933, Note_on_c, 11, 68, 0
11, 117963, Note_on_c, 11, 68, 95
11, 117993, Note_on_c, 11, 68, 0
11, 118023, Note_on_c, 11, 67, 95
11, 118053, Note_on_c, 11, 67, 0
11, 118083, Note_on_c, 11, 65, 95
11, 118113, Note_on_c, 11, 65, 0
11, 118143, Note_on_c, 11, 68, 95
11, 118173, Note_on_c, 11, 68, 0
11, 118203, Note_on_c, 11, 68, 95
11, 118233, Note_on_c, 11, 68, 0
11, 118263, Note_on_c, 11, 67, 95
11, 118293, Note_on_c, 11, 67, 0
11, 118323, Note_on_c, 11, 65, 95
11, 118353, Note_on_c, 11, 65, 0
11, 118383, Note_on_c, 11, 68, 95
11, 118413, Note_on_c, 11, 68, 0
11, 118443, Note_on_c, 11, 68, 95
11, 118473, Note_on_c, 11, 68, 0
11, 118503, Note_on_c, 11, 67, 95
11, 118533, Note_on_c, 11, 67, 0
11, 118563, Note_on_c, 11, 65, 95
11, 118673, Note_on_c, 11, 65, 0
11, 118683, Note_on_c, 11, 60, 110
11, 118913, Note_on_c, 11, 60, 0
11, 118923, Note_on_c, 11, 58, 110
11, 119033, Note_on_c, 11, 58, 0
11, 119043, Note_on_c, 11, 56, 110
11, 119163, Note_on_c, 11, 56, 0
11, 119523, Note_on_c, 11, 67, 95
11, 119553, Note_on_c, 11, 67, 0
11, 119583, Note_on_c, 11, 70, 95
11, 119613, Note_on_c, 11, 70, 0
11, 119643, Note_on_c, 11, 70, 95
11, 119673, Note_on_c, 11, 70, 0
11, 119703, Note_on_c, 11, 70, 95
11, 119733, Note_on_c, 11, 70, 0
11, 119763, Note_on_c, 11, 70, 95
11, 119793, Note_on_c, 11, 70, 0
11, 119823, Note_on_c, 11, 70, 95
11, 119853, Note_on_c, 11, 70, 0
11, 119883, Note_on_c, 11, 70, 95
11, 119913, Note_on_c, 11, 70, 0
11, 119943, Note_on_c, 11, 69, 95
11, 119973, Note_on_c, 11, 69, 0
11, 120003, Note_on_c, 11, 67, 95
11, 120033, Note_on_c, 11, 67, 0
11, 120063, Note_on_c, 11, 70, 95
11, 120093, Note_on_c, 11, 70, 0
11, 120123, Note_on_c, 11, 70, 95
11, 120153, Note_on_c, 11, 70, 0
11, 120183, Note_on_c, 11, 69, 95
11, 120213, Note_on_c, 11, 69, 0
11, 120243, Note_on_c, 11, 67, 95
11, 120273, Note_on_c, 11, 67, 0
11, 120303, Note_on_c, 11, 70, 95
11, 120333, Note_on_c, 11, 70, 0
11, 120363, Note_on_c, 11, 70, 95
11, 120393, Note_on_c, 11, 70, 0
11, 120423, Note_on_c, 11, 69, 95
11, 120453, Note_on_c, 11, 69, 0
11, 120483, Note_on_c, 11, 67, 95
11, 120593, Note_on_c, 11, 67, 0
11, 120603, Note_on_c, 11, 62, 110
11, 120833, Note_on_c, 11, 62, 0
11, 120843, Note_on_c, 11, 60, 110
11, 120953, Note_on_c, 11, 60, 0
11, 120963, Note_on_c, 11, 58, 110
11, 121083, Note_on_c, 11, 58, 0
11, 121803, Note_on_c, 11, 57, 120
11, 121893, Note_on_c, 11, 57, 0
11, 121893, Note_on_c, 11, 61, 120
11, 121913, Note_on_c, 11, 61, 0
11, 121923, Note_on_c, 11, 62, 120
11, 122043, Note_on_c, 11, 62, 0
11, 122763, Note_on_c, 11, 64, 120
11, 122853, Note_on_c, 11, 64, 0
11, 122853, Note_on_c, 11, 68, 120
11, 122873, Note_on_c, 11, 68, 0
11, 122883, Note_on_c, 11, 69, 120
11, 123003, Note_on_c, 11, 69, 0
11, 123243, Note_on_c, 11, 65, 110
11, 123243, Control_c, 11, 11, 67
11, 123253, Control_c, 11, 11, 70
11, 123263, Control_c, 11, 11, 73
11, 123273, Control_c, 11, 11, 76
11, 123284, Control_c, 11, 11, 79
11, 123294, Control_c, 11, 11, 82
11, 123304, Control_c, 11, 11, 85
11, 123313, Note_on_c, 11, 65, 0
11, 123315, Control_c, 11, 11, 88
11, 123325, Control_c, 11, 11, 91
11, 123333, Note_on_c, 11, 65, 110
11, 123335, Control_c, 11, 11, 94
11, 123345, Control_c, 11, 11, 97
11, 123353, Note_on_c, 11, 65, 0
11, 123356, Control_c, 11, 11, 100
11, 123363, Note_on_c, 11, 64, 110
11, 123713, Note_on_c, 11, 64, 0
11, 123723, Note_on_c, 11, 59, 110
11, 123813, Note_on_c, 11, 59, 0
11, 123813, Note_on_c, 11, 63, 110
11, 123833, Note_on_c, 11, 63, 0
11, 123843, Note_on_c, 11, 64, 110
11, 123873, Note_on_c, 11, 64, 0
11, 123903, Note_on_c, 11, 66, 110
11, 123933, Note_on_c, 11, 66, 0
11, 123963, Note_on_c, 11, 68, 110
11, 123993, Note_on_c, 11, 68, 0
11, 124023, Note_on_c, 11, 69, 110
11, 124053, Note_on_c, 11, 69, 0
11, 124083, Note_on_c, 11, 71, 110
11, 124113, Note_on_c, 11, 71, 0
11, 124143, Note_on_c, 11, 72, 110
11, 124173, Note_on_c, 11, 72, 0
11, 124203, Note_on_c, 11, 74, 110
11, 124233, Note_on_c, 11, 74, 0
11, 124263, Note_on_c, 11, 71, 110
11, 124293, Note_on_c, 11, 71, 0
11, 124323, Note_on_c, 11, 69, 110
11, 124443, Note_on_c, 11, 69, 0
11, 125163, Note_on_c, 11, 57, 110
11, 125193, Note_on_c, 11, 57, 0
11, 125193, Note_on_c, 11, 59, 110
11, 125223, Note_on_c, 11, 59, 0
11, 125223, Note_on_c, 11, 60, 110
11, 125253, Note_on_c, 11, 60, 0
11, 125253, Note_on_c, 11, 62, 110
11, 125273, Note_on_c, 11, 62, 0
11, 125283, Note_on_c, 11, 64, 110
11, 125633, Note_on_c, 11, 64, 0
11, 125643, Note_on_c, 11, 59, 110
11, 125733, Note_on_c, 11, 59, 0
11, 125733, Note_on_c, 11, 63, 110
11, 125753, Note_on_c, 11, 63, 0
11, 125763, Note_on_c, 11, 64, 110
11, 125793, Note_on_c, 11, 64, 0
11, 125823, Note_on_c, 11, 66, 110
11, 125853, Note_on_c, 11, 66, 0
11, 125883, Note_on_c, 11, 68, 110
11, 125913, Note_on_c, 11, 68, 0
11, 125943, Note_on_c, 11, 69, 110
11, 125973, Note_on_c, 11, 69, 0
11, 126003, Note_on_c, 11, 71, 110
11, 126033, Note_on_c, 11, 71, 0
11, 126063, Note_on_c, 11, 72, 110
11, 126093, Note_on_c, 11, 72, 0
11, 126123, Note_on_c, 11, 74, 110
11, 126153, Note_on_c, 11, 74, 0
11, 126183, Note_on_c, 11, 71, 110
11, 126213, Note_on_c, 11, 71, 0
11, 126243, Note_on_c, 11, 69, 110
11, 126363, Note_on_c, 11, 69, 0
11, 127083, Note_on_c, 11, 57, 110
11, 127113, Note_on_c, 11, 57, 0
11, 127113, Note_on_c, 11, 59, 110
11, 127143, Note_on_c, 11, 59, 0
11, 127143, Note_on_c, 11, 60, 110
11, 127173, Note_on_c, 11, 60, 0
11, 127173, Note_on_c, 11, 62, 110
11, 127193, Note_on_c, 11, 62, 0
11, 127203, Control_c, 11, 11, 122
11, 127203, Note_on_c, 11, 64, 110
11, 127220, Control_c, 11, 11, 119
11, 127238, Control_c, 11, 11, 116
11, 127256, Control_c, 11, 11, 113
11, 127274, Control_c, 11, 11, 110
11, 127292, Control_c, 11, 11, 107
11, 127310, Control_c, 11, 11, 104
11, 127323, Note_on_c, 11, 64, 0
11, 127563, Note_on_c, 11, 57, 110
11, 127593, Note_on_c, 11, 57, 0
11, 127593, Note_on_c, 11, 59, 110
11, 127623, Note_on_c, 11, 59, 0
11, 127623, Note_on_c, 11, 60, 110
11, 127653, Note_on_c, 11, 60, 0
11, 127653, Note_on_c, 11, 62, 110
11, 127673, Note_on_c, 11, 62, 0
11, 127683, Control_c, 11, 11, 122
11, 127683, Note_on_c, 11, 64, 110
11, 127700, Control_c, 11, 11, 119
11, 127718, Control_c, 11, 11, 116
11, 127736, Control_c, 11, 11, 113
11, 127754, Control_c, 11, 11, 110
11, 127772, Control_c, 11, 11, 107
11, 127790, Control_c, 11, 11, 104
11, 127803, Note_on_c, 11, 64, 0
11, 128043, Note_on_c, 11, 57, 110
11, 128073, Note_on_c, 11, 57, 0
11, 128073, Note_on_c, 11, 59, 110
11, 128103, Note_on_c, 11, 59, 0
11, 128103, Note_on_c, 11, 60, 110
11, 128133, Note_on_c, 11, 60, 0
11, 128133, Note_on_c, 11, 62, 110
11, 128153, Note_on_c, 11, 62, 0
11, 128163, Note_on_c, 11, 64, 110
11, 128163, Control_c, 11, 11, 122
11, 128180, Control_c, 11, 11, 119
11, 128198, Control_c, 11, 11, 116
11, 128216, Control_c, 11, 11, 113
11, 128234, Control_c, 11, 11, 110
11, 128252, Control_c, 11, 11, 107
11, 128270, Control_c, 11, 11, 104
11, 128283, Note_on_c, 11, 64, 0
11, 128643, Note_on_c, 11, 76, 110
11, 128643, Note_on_c, 11, 64, 110
11, 128715, Note_on_c, 11, 64, 0
11, 128715, Note_on_c, 11, 76, 0
11, 128883, Note_on_c, 11, 64, 110
11, 128883, Note_on_c, 11, 76, 110
11, 128955, Note_on_c, 11, 76, 0
11, 128955, Note_on_c, 11, 64, 0
11, 129123, Note_on_c, 11, 76, 110
11, 129123, Note_on_c, 11, 64, 110
11, 129195, Note_on_c, 11, 64, 0
11, 129195, Note_on_c, 11, 76, 0
11, 131883, Note_on_c, 11, 67, 110
11, 131883, Control_c, 11, 11, 70
11, 131894, Control_c, 11, 11, 73
11, 131905, Control_c, 11, 11, 76
11, 131913, Note_on_c, 11, 67, 0
11, 131913, Note_on_c, 11, 65, 110
11, 131916, Control_c, 11, 11, 79
11, 131928, Control_c, 11, 11, 82
11, 131939, Control_c, 11, 11, 85
11, 131943, Note_on_c, 11, 65, 0
11, 131943, Note_on_c, 11, 64, 110
11, 131950, Control_c, 11, 11, 88
11, 131961, Control_c, 11, 11, 91
11, 131973, Note_on_c, 11, 64, 0
11, 131973, Note_on_c, 11, 62, 110
11, 131973, Control_c, 11, 11, 94
11, 131984, Control_c, 11, 11, 97
11, 131990, Note_on_c, 11, 62, 0
11, 131995, Control_c, 11, 11, 100
11, 132003, Note_on_c, 11, 60, 110
11, 132311, Note_on_c, 11, 60, 0
11, 132363, Note_on_c, 11, 55, 110
11, 132453, Note_on_c, 11, 55, 0
11, 132453, Note_on_c, 11, 59, 110
11, 132473, Note_on_c, 11, 59, 0
11, 132483, Control_c, 11, 11, 122
11, 132483, Note_on_c, 11, 60, 110
11, 132500, Control_c, 11, 11, 119
11, 132518, Control_c, 11, 11, 116
11, 132536, Control_c, 11, 11, 113
11, 132554, Control_c, 11, 11, 110
11, 132572, Control_c, 11, 11, 107
11, 132590, Control_c, 11, 11, 104
11, 132791, Note_on_c, 11, 60, 0
11, 132843, Note_on_c, 11, 55, 110
11, 132933, Note_on_c, 11, 55, 0
11, 132933, Note_on_c, 11, 59, 110
11, 132953, Note_on_c, 11, 59, 0
11, 132963, Note_on_c, 11, 60, 110
11, 132993, Note_on_c, 11, 60, 0
11, 133023, Note_on_c, 11, 60, 110
11, 133053, Note_on_c, 11, 60, 0
11, 133083, Note_on_c, 11, 55, 110
11, 133113, Note_on_c, 11, 55, 0
11, 133143, Note_on_c, 11, 59, 110
11, 133173, Note_on_c, 11, 59, 0
11, 133203, Note_on_c, 11, 60, 110
11, 133233, Note_on_c, 11, 60, 0
11, 133263, Note_on_c, 11, 60, 110
11, 133293, Note_on_c, 11, 60, 0
11, 133323, Note_on_c, 11, 55, 110
11, 133353, Note_on_c, 11, 55, 0
11, 133383, Note_on_c, 11, 59, 110
11, 133413, Note_on_c, 11, 59, 0
11, 133443, Note_on_c, 11, 60, 110
11, 133503, Note_on_c, 11, 60, 0
11, 133563, Note_on_c, 11, 64, 110
11, 133623, Note_on_c, 11, 64, 0
11, 133683, Note_on_c, 11, 67, 110
11, 133743, Note_on_c, 11, 67, 0
11, 133803, Note_on_c, 11, 71, 110
11, 133863, Note_on_c, 11, 71, 0
11, 133923, Note_on_c, 11, 72, 90
11, 134043, Note_on_c, 11, 72, 0
11, 134763, Note_on_c, 11, 69, 110
11, 134763, Control_c, 11, 11, 72
11, 134775, Control_c, 11, 11, 75
11, 134787, Control_c, 11, 11, 78
11, 134793, Note_on_c, 11, 69, 0
11, 134793, Note_on_c, 11, 67, 110
11, 134799, Control_c, 11, 11, 81
11, 134811, Control_c, 11, 11, 84
11, 134823, Note_on_c, 11, 67, 0
11, 134823, Note_on_c, 11, 65, 110
11, 134823, Control_c, 11, 11, 87
11, 134835, Control_c, 11, 11, 90
11, 134847, Control_c, 11, 11, 93
11, 134853, Note_on_c, 11, 65, 0
11, 134853, Note_on_c, 11, 64, 110
11, 134859, Control_c, 11, 11, 96
11, 134871, Control_c, 11, 11, 99
11, 134873, Note_on_c, 11, 64, 0
11, 134883, Note_on_c, 11, 62, 110
11, 134883, Control_c, 11, 11, 102
11, 135191, Note_on_c, 11, 62, 0
11, 135243, Note_on_c, 11, 57, 110
11, 135333, Note_on_c, 11, 57, 0
11, 135333, Note_on_c, 11, 61, 110
11, 135353, Note_on_c, 11, 61, 0
11, 135363, Control_c, 11, 11, 122
11, 135363, Note_on_c, 11, 62, 110
11, 135380, Control_c, 11, 11, 119
11, 135398, Control_c, 11, 11, 116
11, 135416, Control_c, 11, 11, 113
11, 135434, Control_c, 11, 11, 110
11, 135452, Control_c, 11, 11, 107
11, 135470, Control_c, 11, 11, 104
11, 135671, Note_on_c, 11, 62, 0
11, 135723, Note_on_c, 11, 57, 110
11, 135813, Note_on_c, 11, 57, 0
11, 135813, Note_on_c, 11, 61, 110
11, 135833, Note_on_c, 11, 61, 0
11, 135843, Note_on_c, 11, 62, 110
11, 135873, Note_on_c, 11, 62, 0
11, 135903, Note_on_c, 11, 62, 110
11, 135933, Note_on_c, 11, 62, 0
11, 135963, Note_on_c, 11, 57, 110
11, 135993, Note_on_c, 11, 57, 0
11, 136023, Note_on_c, 11, 61, 110
11, 136053, Note_on_c, 11, 61, 0
11, 136083, Note_on_c, 11, 62, 110
11, 136113, Note_on_c, 11, 62, 0
11, 136143, Note_on_c, 11, 62, 110
11, 136173, Note_on_c, 11, 62, 0
11, 136203, Note_on_c, 11, 57, 110
11, 136233, Note_on_c, 11, 57, 0
11, 136263, Note_on_c, 11, 61, 110
11, 136293, Note_on_c, 11, 61, 0
11, 136323, Note_on_c, 11, 62, 110
11, 136383, Note_on_c, 11, 62, 0
11, 136443, Note_on_c, 11, 65, 110
11, 136503, Note_on_c, 11, 65, 0
11, 136563, Note_on_c, 11, 69, 110
11, 136623, Note_on_c, 11, 69, 0
11, 136683, Note_on_c, 11, 73, 110
11, 136743, Note_on_c, 11, 73, 0
11, 136803, Note_on_c, 11, 74, 64
11, 136923, Note_on_c, 11, 74, 0
11, 138603, Control_c, 11, 11, 47
11, 138603, Note_on_c, 11, 62, 110
11, 138633, Note_on_c, 11, 62, 0
11, 138633, Note_on_c, 11, 60, 110
11, 138646, Control_c, 11, 11, 48
11, 138663, Note_on_c, 11, 60, 0
11, 138663, Note_on_c, 11, 59, 110
11, 138690, Control_c, 11, 11, 49
11, 138693, Note_on_c, 11, 59, 0
11, 138693, Note_on_c, 11, 57, 110
11, 138713, Note_on_c, 11, 57, 0
11, 138723, Note_on_c, 11, 55, 110
11, 138733, Control_c, 11, 11, 50
11, 138777, Control_c, 11, 11, 51
11, 138821, Control_c, 11, 11, 52
11, 138843, Note_on_c, 11, 55, 0
11, 138864, Control_c, 11, 11, 53
11, 138908, Control_c, 11, 11, 54
11, 138952, Control_c, 11, 11, 55
11, 138995, Control_c, 11, 11, 56
11, 139039, Control_c, 11, 11, 57
11, 139083, Control_c, 11, 11, 58
11, 139126, Control_c, 11, 11, 59
11, 139170, Control_c, 11, 11, 60
11, 139213, Control_c, 11, 11, 61
11, 139257, Control_c, 11, 11, 62
11, 139301, Control_c, 11, 11, 63
11, 139344, Control_c, 11, 11, 64
11, 139388, Control_c, 11, 11, 65
11, 139432, Control_c, 11, 11, 66
11, 139475, Control_c, 11, 11, 67
11, 139519, Control_c, 11, 11, 68
11, 139563, Control_c, 11, 11, 69
11, 139563, Note_on_c, 11, 65, 110
11, 139593, Note_on_c, 11, 65, 0
11, 139593, Note_on_c, 11, 63, 110
11, 139606, Control_c, 11, 11, 70
11, 139623, Note_on_c, 11, 63, 0
11, 139623, Note_on_c, 11, 62, 110
11, 139650, Control_c, 11, 11, 71
11, 139653, Note_on_c, 11, 62, 0
11, 139653, Note_on_c, 11, 60, 110
11, 139673, Note_on_c, 11, 60, 0
11, 139683, Note_on_c, 11, 58, 110
11, 139693, Control_c, 11, 11, 72
11, 139737, Control_c, 11, 11, 73
11, 139781, Control_c, 11, 11, 74
11, 139803, Note_on_c, 11, 58, 0
11, 139824, Control_c, 11, 11, 75
11, 139868, Control_c, 11, 11, 76
11, 139912, Control_c, 11, 11, 77
11, 139955, Control_c, 11, 11, 78
11, 139999, Control_c, 11, 11, 79
11, 140043, Control_c, 11, 11, 80
11, 140086, Control_c, 11, 11, 81
11, 140130, Control_c, 11, 11, 82
11, 140173, Control_c, 11, 11, 83
11, 140217, Control_c, 11, 11, 84
11, 140261, Control_c, 11, 11, 85
11, 140304, Control_c, 11, 11, 86
11, 140348, Control_c, 11, 11, 87
11, 140392, Control_c, 11, 11, 88
11, 140435, Control_c, 11, 11, 89
11, 140479, Control_c, 11, 11, 90
11, 140523, Control_c, 11, 11, 91
11, 140523, Note_on_c, 11, 69, 110
11, 140553, Note_on_c, 11, 69, 0
11, 140553, Note_on_c, 11, 67, 110
11, 140566, Control_c, 11, 11, 92
11, 140583, Note_on_c, 11, 67, 0
11, 140583, Note_on_c, 11, 65, 110
11, 140610, Control_c, 11, 11, 93
11, 140613, Note_on_c, 11, 65, 0
11, 140613, Note_on_c, 11, 64, 110
11, 140633, Note_on_c, 11, 64, 0
11, 140643, Note_on_c, 11, 62, 110
11, 140653, Control_c, 11, 11, 94
11, 140697, Control_c, 11, 11, 95
11, 140741, Control_c, 11, 11, 96
11, 140763, Note_on_c, 11, 62, 0
11, 140784, Control_c, 11, 11, 97
11, 140828, Control_c, 11, 11, 98
11, 140872, Control_c, 11, 11, 99
11, 140915, Control_c, 11, 11, 100
11, 140959, Control_c, 11, 11, 101
11, 141003, Control_c, 11, 11, 102
11, 141243, Note_on_c, 11, 69, 110
11, 141273, Note_on_c, 11, 69, 0
11, 141273, Note_on_c, 11, 67, 110
11, 141303, Note_on_c, 11, 67, 0
11, 141303, Note_on_c, 11, 65, 110
11, 141333, Note_on_c, 11, 65, 0
11, 141333, Note_on_c, 11, 64, 110
11, 141353, Note_on_c, 11, 64, 0
11, 141363, Note_on_c, 11, 62, 110
11, 141423, Note_on_c, 11, 62, 0
11, 141483, Note_on_c, 11, 62, 110
11, 141513, Note_on_c, 11, 62, 0
11, 141513, Note_on_c, 11, 60, 110
11, 141543, Note_on_c, 11, 60, 0
11, 141543, Note_on_c, 11, 59, 110
11, 141573, Note_on_c, 11, 59, 0
11, 141573, Note_on_c, 11, 57, 110
11, 141593, Note_on_c, 11, 57, 0
11, 141603, Note_on_c, 11, 55, 110
11, 141663, Note_on_c, 11, 55, 0
11, 141723, Control_c, 11, 11, 122
11, 141723, Note_on_c, 11, 67, 110
11, 141741, Control_c, 11, 11, 119
11, 141759, Control_c, 11, 11, 116
11, 141777, Control_c, 11, 11, 113
11, 141795, Control_c, 11, 11, 110
11, 141813, Control_c, 11, 11, 107
11, 141831, Control_c, 11, 11, 104
11, 141953, Note_on_c, 11, 67, 0
11, 141963, Note_on_c, 11, 67, 110
11, 141993, Note_on_c, 11, 67, 0
11, 141993, Note_on_c, 11, 65, 110
11, 142023, Note_on_c, 11, 65, 0
11, 142023, Note_on_c, 11, 64, 110
11, 142053, Note_on_c, 11, 64, 0
11, 142053, Note_on_c, 11, 62, 110
11, 142073, Note_on_c, 11, 62, 0
11, 142083, Note_on_c, 11, 64, 110
11, 142143, Note_on_c, 11, 64, 0
11, 142203, Note_on_c, 11, 64, 110
11, 142233, Note_on_c, 11, 64, 0
11, 142233, Note_on_c, 11, 62, 110
11, 142263, Note_on_c, 11, 62, 0
11, 142263, Note_on_c, 11, 60, 110
11, 142293, Note_on_c, 11, 60, 0
11, 142293, Note_on_c, 11, 59, 110
11, 142313, Note_on_c, 11, 59, 0
11, 142323, Note_on_c, 11, 60, 110
11, 142383, Note_on_c, 11, 60, 0
11, 142443, Note_on_c, 11, 72, 110
11, 142473, Note_on_c, 11, 72, 0
11, 142473, Note_on_c, 11, 69, 110
11, 142503, Note_on_c, 11, 69, 0
11, 142503, Note_on_c, 11, 67, 110
11, 142533, Note_on_c, 11, 67, 0
11, 142533, Note_on_c, 11, 66, 110
11, 142553, Note_on_c, 11, 66, 0
11, 142563, Note_on_c, 11, 67, 110
11, 142623, Note_on_c, 11, 67, 0
11, 142683, Control_c, 11, 11, 122
11, 142683, Note_on_c, 11, 67, 110
11, 142701, Control_c, 11, 11, 119
11, 142719, Control_c, 11, 11, 116
11, 142737, Control_c, 11, 11, 113
11, 142755, Control_c, 11, 11, 110
11, 142773, Control_c, 11, 11, 107
11, 142791, Control_c, 11, 11, 104
11, 142913, Note_on_c, 11, 67, 0
11, 142923, Note_on_c, 11, 67, 110
11, 142953, Note_on_c, 11, 67, 0
11, 142953, Note_on_c, 11, 65, 110
11, 142983, Note_on_c, 11, 65, 0
11, 142983, Note_on_c, 11, 64, 110
11, 143013, Note_on_c, 11, 64, 0
11, 143013, Note_on_c, 11, 62, 110
11, 143033, Note_on_c, 11, 62, 0
11, 143043, Note_on_c, 11, 64, 110
11, 143103, Note_on_c, 11, 64, 0
11, 143163, Note_on_c, 11, 64, 110
11, 143193, Note_on_c, 11, 64, 0
11, 143193, Note_on_c, 11, 62, 110
11, 143223, Note_on_c, 11, 62, 0
11, 143223, Note_on_c, 11, 60, 110
11, 143253, Note_on_c, 11, 60, 0
11, 143253, Note_on_c, 11, 59, 110
11, 143273, Note_on_c, 11, 59, 0
11, 143283, Note_on_c, 11, 60, 110
11, 143343, Note_on_c, 11, 60, 0
11, 143403, Note_on_c, 11, 72, 110
11, 143433, Note_on_c, 11, 72, 0
11, 143433, Note_on_c, 11, 69, 110
11, 143463, Note_on_c, 11, 69, 0
11, 143463, Note_on_c, 11, 67, 110
11, 143493, Note_on_c, 11, 67, 0
11, 143493, Note_on_c, 11, 66, 110
11, 143513, Note_on_c, 11, 66, 0
11, 143523, Note_on_c, 11, 67, 110
11, 143553, Note_on_c, 11, 67, 0
11, 143583, Note_on_c, 11, 69, 110
11, 143613, Note_on_c, 11, 69, 0
11, 143643, Note_on_c, 11, 71, 110
11, 143673, Note_on_c, 11, 71, 0
11, 143703, Note_on_c, 11, 72, 110
11, 143733, Note_on_c, 11, 72, 0
11, 143763, Note_on_c, 11, 74, 110
11, 143763, Control_c, 11, 11, 122
11, 143781, Control_c, 11, 11, 119
11, 143793, Note_on_c, 11, 74, 0
11, 143799, Control_c, 11, 11, 116
11, 143817, Control_c, 11, 11, 113
11, 143823, Note_on_c, 11, 72, 110
11, 143835, Control_c, 11, 11, 110
11, 143853, Note_on_c, 11, 72, 0
11, 143853, Control_c, 11, 11, 107
11, 143871, Control_c, 11, 11, 104
11, 143883, Note_on_c, 11, 71, 110
11, 143913, Note_on_c, 11, 71, 0
11, 143943, Note_on_c, 11, 69, 110
11, 143973, Note_on_c, 11, 69, 0
11, 144003, Note_on_c, 11, 67, 110
11, 144033, Note_on_c, 11, 67, 0
11, 144063, Note_on_c, 11, 69, 110
11, 144093, Note_on_c, 11, 69, 0
11, 144123, Note_on_c, 11, 71, 110
11, 144153, Note_on_c, 11, 71, 0
11, 144183, Note_on_c, 11, 72, 110
11, 144213, Note_on_c, 11, 72, 0
11, 144243, Note_on_c, 11, 74, 110
11, 144243, Control_c, 11, 11, 122
11, 144261, Control_c, 11, 11, 119
11, 144273, Note_on_c, 11, 74, 0
11, 144279, Control_c, 11, 11, 116
11, 144297, Control_c, 11, 11, 113
11, 144303, Note_on_c, 11, 72, 110
11, 144315, Control_c, 11, 11, 110
11, 144333, Note_on_c, 11, 72, 0
11, 144333, Control_c, 11, 11, 107
11, 144351, Control_c, 11, 11, 104
11, 144363, Note_on_c, 11, 71, 110
11, 144393, Note_on_c, 11, 71, 0
11, 144423, Note_on_c, 11, 69, 110
11, 144453, Note_on_c, 11, 69, 0
11, 144483, Note_on_c, 11, 67, 110
11, 144543, Note_on_c, 11, 67, 0
11, 144543, Note_on_c, 11, 66, 110
11, 144603, Note_on_c, 11, 66, 0
11, 144603, Note_on_c, 11, 67, 110
11, 144663, Note_on_c, 11, 67, 0
11, 144663, Note_on_c, 11, 66, 110
11, 144723, Note_on_c, 11, 66, 0
11, 144723, Note_on_c, 11, 67, 110
11, 144783, Note_on_c, 11, 67, 0
11, 144783, Note_on_c, 11, 66, 110
11, 144843, Note_on_c, 11, 66, 0
11, 144843, Note_on_c, 11, 67, 110
11, 144903, Note_on_c, 11, 67, 0
11, 144903, Note_on_c, 11, 66, 110
11, 144953, Note_on_c, 11, 66, 0
11, 144963, Note_on_c, 11, 67, 110
11, 145023, Note_on_c, 11, 67, 0
11, 145023, Note_on_c, 11, 66, 110
11, 145083, Note_on_c, 11, 66, 0
11, 145083, Note_on_c, 11, 67, 110
11, 145143, Note_on_c, 11, 67, 0
11, 145143, Note_on_c, 11, 66, 110
11, 145203, Note_on_c, 11, 66, 0
11, 145203, Control_c, 11, 11, 102
11, 145203, Note_on_c, 11, 67, 110
11, 145216, Control_c, 11, 11, 99
11, 145229, Control_c, 11, 11, 96
11, 145242, Control_c, 11, 11, 93
11, 145255, Control_c, 11, 11, 90
11, 145263, Note_on_c, 11, 67, 0
11, 145263, Note_on_c, 11, 65, 110
11, 145268, Control_c, 11, 11, 87
11, 145281, Control_c, 11, 11, 84
11, 145294, Control_c, 11, 11, 81
11, 145307, Control_c, 11, 11, 78
11, 145320, Control_c, 11, 11, 75
11, 145323, Note_on_c, 11, 65, 0
11, 145323, Note_on_c, 11, 64, 110
11, 145333, Control_c, 11, 11, 72
11, 145347, Control_c, 11, 11, 69
11, 145360, Control_c, 11, 11, 66
11, 145373, Control_c, 11, 11, 63
11, 145383, Note_on_c, 11, 64, 0
11, 145383, Note_on_c, 11, 62, 110
11, 145386, Control_c, 11, 11, 60
11, 145399, Control_c, 11, 11, 57
11, 145412, Control_c, 11, 11, 54
11, 145425, Control_c, 11, 11, 51
11, 145433, Note_on_c, 11, 62, 0
11, 145438, Control_c, 11, 11, 48
11, 145443, Note_on_c, 11, 60, 110
11, 145563, Note_on_c, 11, 60, 0
11, 145923, Note_on_c, 11, 65, 95
11, 145983, Note_on_c, 11, 65, 0
11, 146043, Note_on_c, 11, 69, 95
11, 146103, Note_on_c, 11, 69, 0
11, 146163, Note_on_c, 11, 74, 95
11, 146223, Note_on_c, 11, 74, 0
11, 146283, Note_on_c, 11, 77, 95
11, 146343, Note_on_c, 11, 77, 0
11, 146403, Note_on_c, 11, 71, 95
11, 146523, Note_on_c, 11, 71, 0
11, 146883, Note_on_c, 11, 72, 95
11, 146943, Note_on_c, 11, 72, 0
11, 147003, Note_on_c, 11, 67, 95
11, 147063, Note_on_c, 11, 67, 0
11, 147123, Note_on_c, 11, 64, 95
11, 147183, Note_on_c, 11, 64, 0
11, 147243, Note_on_c, 11, 60, 95
11, 147303, Note_on_c, 11, 60, 0
11, 147363, Note_on_c, 11, 59, 95
11, 147423, Note_on_c, 11, 59, 0
11, 147603, Note_on_c, 11, 71, 110
11, 147603, Control_c, 11, 11, 67
11, 147620, Control_c, 11, 11, 70
11, 147638, Control_c, 11, 11, 73
11, 147656, Control_c, 11, 11, 76
11, 147674, Control_c, 11, 11, 75
11, 147692, Control_c, 11, 11, 72
11, 147710, Control_c, 11, 11, 69
11, 147723, Note_on_c, 11, 71, 0
11, 147723, Note_on_c, 11, 72, 110
11, 147728, Control_c, 11, 11, 66
11, 147746, Control_c, 11, 11, 63
11, 147764, Control_c, 11, 11, 60
11, 147782, Control_c, 11, 11, 57
11, 147800, Control_c, 11, 11, 54
11, 147818, Control_c, 11, 11, 51
11, 147836, Control_c, 11, 11, 48
11, 147843, Note_on_c, 11, 72, 0
11, 148083, Note_on_c, 11, 71, 110
11, 148083, Control_c, 11, 11, 67
11, 148100, Control_c, 11, 11, 70
11, 148118, Control_c, 11, 11, 73
11, 148136, Control_c, 11, 11, 76
11, 148154, Control_c, 11, 11, 75
11, 148172, Control_c, 11, 11, 72
11, 148190, Control_c, 11, 11, 69
11, 148203, Note_on_c, 11, 71, 0
11, 148203, Note_on_c, 11, 72, 110
11, 148208, Control_c, 11, 11, 66
11, 148226, Control_c, 11, 11, 63
11, 148244, Control_c, 11, 11, 60
11, 148262, Control_c, 11, 11, 57
11, 148280, Control_c, 11, 11, 54
11, 148298, Control_c, 11, 11, 51
11, 148313, Note_on_c, 11, 72, 0
11, 148316, Control_c, 11, 11, 48
11, 148323, Note_on_c, 11, 71, 110
11, 148383, Note_on_c, 11, 71, 0
11, 148443, Note_on_c, 11, 71, 110
11, 148503, Note_on_c, 11, 71, 0
11, 148683, Note_on_c, 11, 72, 110
11, 148743, Note_on_c, 11, 72, 0
11, 148803, Note_on_c, 11, 71, 110
11, 148923, Note_on_c, 11, 71, 0
11, 149763, Note_on_c, 11, 65, 110
11, 149823, Note_on_c, 11, 65, 0
11, 149883, Note_on_c, 11, 69, 110
11, 149943, Note_on_c, 11, 69, 0
11, 150003, Note_on_c, 11, 74, 110
11, 150063, Note_on_c, 11, 74, 0
11, 150123, Note_on_c, 11, 77, 110
11, 150183, Note_on_c, 11, 77, 0
11, 150243, Note_on_c, 11, 65, 110
11, 150363, Note_on_c, 11, 65, 0
11, 151323, Note_on_c, 11, 60, 110
11, 151553, Note_on_c, 11, 60, 0
11, 151563, Note_on_c, 11, 61, 110
11, 151563, Control_c, 11, 11, 67
11, 151572, Control_c, 11, 11, 70
11, 151581, Control_c, 11, 11, 73
11, 151590, Control_c, 11, 11, 76
11, 151605, Control_c, 11, 11, 73
11, 151614, Control_c, 11, 11, 70
11, 151623, Control_c, 11, 11, 67
11, 151632, Control_c, 11, 11, 64
11, 151641, Control_c, 11, 11, 61
11, 151650, Control_c, 11, 11, 58
11, 151659, Control_c, 11, 11, 55
11, 151668, Control_c, 11, 11, 52
11, 151677, Control_c, 11, 11, 49
11, 151683, Note_on_c, 11, 61, 0
11, 151683, Note_on_c, 11, 60, 110
11, 151743, Note_on_c, 11, 60, 0
11, 151803, Note_on_c, 11, 60, 110
11, 152033, Note_on_c, 11, 60, 0
11, 152043, Note_on_c, 11, 61, 110
11, 152043, Control_c, 11, 11, 67
11, 152052, Control_c, 11, 11, 70
11, 152061, Control_c, 11, 11, 73
11, 152070, Control_c, 11, 11, 76
11, 152085, Control_c, 11, 11, 73
11, 152094, Control_c, 11, 11, 70
11, 152103, Control_c, 11, 11, 67
11, 152112, Control_c, 11, 11, 64
11, 152121, Control_c, 11, 11, 61
11, 152130, Control_c, 11, 11, 58
11, 152139, Control_c, 11, 11, 55
11, 152148, Control_c, 11, 11, 52
11, 152157, Control_c, 11, 11, 49
11, 152223, Note_on_c, 11, 61, 0
11, 152283, Note_on_c, 11, 62, 110
11, 152403, Note_on_c, 11, 62, 0
11, 152403, Note_on_c, 11, 64, 110
11, 152523, Note_on_c, 11, 64, 0
11, 152523, Note_on_c, 11, 65, 110
11, 152633, Note_on_c, 11, 65, 0
11, 152643, Note_on_c, 11, 64, 110
11, 152883, Note_on_c, 11, 64, 0
11, 152883, Note_on_c, 11, 62, 110
11, 153093, Control_c, 11, 11, 47
11, 153095, Control_c, 11, 11, 50
11, 153097, Control_c, 11, 11, 53
11, 153100, Control_c, 11, 11, 57
11, 153103, Note_on_c, 11, 62, 0
11, 153103, Control_c, 11, 11, 61
11, 153106, Control_c, 11, 11, 65
11, 153109, Control_c, 11, 11, 69
11, 153112, Control_c, 11, 11, 73
11, 153115, Control_c, 11, 11, 77
11, 153118, Control_c, 11, 11, 81
11, 153121, Control_c, 11, 11, 85
11, 153123, Note_on_c, 11, 67, 110
11, 153123, Note_on_c, 11, 55, 110
11, 153143, Note_on_c, 11, 55, 0
11, 153143, Note_on_c, 11, 67, 0
11, 153153, Note_on_c, 11, 67, 110
11, 153153, Note_on_c, 11, 55, 110
11, 153173, Note_on_c, 11, 55, 0
11, 153173, Note_on_c, 11, 67, 0
11, 153183, Note_on_c, 11, 67, 110
11, 153183, Note_on_c, 11, 55, 110
11, 153203, Note_on_c, 11, 55, 0
11, 153203, Note_on_c, 11, 67, 0
11, 153213, Note_on_c, 11, 67, 110
11, 153213, Note_on_c, 11, 55, 110
11, 153233, Note_on_c, 11, 55, 0
11, 153233, Note_on_c, 11, 67, 0
11, 153243, Note_on_c, 11, 67, 110
11, 153243, Note_on_c, 11, 55, 110
11, 153303, Note_on_c, 11, 55, 0
11, 153303, Note_on_c, 11, 67, 0
11, 153363, Note_on_c, 11, 67, 110
11, 153363, Note_on_c, 11, 55, 110
11, 153383, Note_on_c, 11, 55, 0
11, 153383, Note_on_c, 11, 67, 0
11, 153393, Note_on_c, 11, 67, 110
11, 153393, Note_on_c, 11, 55, 110
11, 153413, Note_on_c, 11, 55, 0
11, 153413, Note_on_c, 11, 67, 0
11, 153423, Note_on_c, 11, 55, 110
11, 153423, Note_on_c, 11, 67, 110
11, 153443, Note_on_c, 11, 67, 0
11, 153443, Note_on_c, 11, 55, 0
11, 153453, Note_on_c, 11, 67, 110
11, 153453, Note_on_c, 11, 55, 110
11, 153473, Note_on_c, 11, 55, 0
11, 153473, Note_on_c, 11, 67, 0
11, 153483, Note_on_c, 11, 67, 110
11, 153483, Note_on_c, 11, 55, 110
11, 153543, Note_on_c, 11, 55, 0
11, 153543, Note_on_c, 11, 67, 0
11, 153603, Note_on_c, 11, 67, 110
11, 153603, Note_on_c, 11, 55, 110
11, 153623, Note_on_c, 11, 55, 0
11, 153623, Note_on_c, 11, 67, 0
11, 153633, Note_on_c, 11, 67, 110
11, 153633, Note_on_c, 11, 55, 110
11, 153653, Note_on_c, 11, 55, 0
11, 153653, Note_on_c, 11, 67, 0
11, 153663, Note_on_c, 11, 67, 110
11, 153663, Note_on_c, 11, 55, 110
11, 153683, Note_on_c, 11, 55, 0
11, 153683, Note_on_c, 11, 67, 0
11, 153693, Note_on_c, 11, 55, 110
11, 153693, Note_on_c, 11, 67, 110
11, 153713, Note_on_c, 11, 67, 0
11, 153713, Note_on_c, 11, 55, 0
11, 153723, Note_on_c, 11, 67, 110
11, 153723, Note_on_c, 11, 55, 110
11, 153783, Note_on_c, 11, 55, 0
11, 153783, Note_on_c, 11, 67, 0
11, 153843, Note_on_c, 11, 62, 110
11, 153873, Note_on_c, 11, 62, 0
11, 153903, Note_on_c, 11, 64, 110
11, 153933, Note_on_c, 11, 64, 0
11, 153963, Note_on_c, 11, 65, 110
11, 153993, Note_on_c, 11, 65, 0
11, 154023, Note_on_c, 11, 66, 110
11, 154053, Note_on_c, 11, 66, 0
11, 154083, Note_on_c, 11, 55, 110
11, 154083, Note_on_c, 11, 67, 110
11, 154103, Note_on_c, 11, 67, 0
11, 154103, Note_on_c, 11, 55, 0
11, 154113, Note_on_c, 11, 67, 110
11, 154113, Note_on_c, 11, 55, 110
11, 154133, Note_on_c, 11, 55, 0
11, 154133, Note_on_c, 11, 67, 0
11, 154143, Note_on_c, 11, 55, 110
11, 154143, Note_on_c, 11, 67, 110
11, 154163, Note_on_c, 11, 67, 0
11, 154163, Note_on_c, 11, 55, 0
11, 154173, Note_on_c, 11, 55, 110
11, 154173, Note_on_c, 11, 67, 110
11, 154193, Note_on_c, 11, 67, 0
11, 154193, Note_on_c, 11, 55, 0
11, 154203, Note_on_c, 11, 67, 110
11, 154203, Note_on_c, 11, 55, 110
11, 154263, Note_on_c, 11, 55, 0
11, 154263, Note_on_c, 11, 67, 0
11, 154323, Note_on_c, 11, 67, 110
11, 154323, Note_on_c, 11, 55, 110
11, 154343, Note_on_c, 11, 55, 0
11, 154343, Note_on_c, 11, 67, 0
11, 154353, Note_on_c, 11, 55, 110
11, 154353, Note_on_c, 11, 67, 110
11, 154373, Note_on_c, 11, 67, 0
11, 154373, Note_on_c, 11, 55, 0
11, 154383, Note_on_c, 11, 55, 110
11, 154383, Note_on_c, 11, 67, 110
11, 154403, Note_on_c, 11, 67, 0
11, 154403, Note_on_c, 11, 55, 0
11, 154413, Note_on_c, 11, 67, 110
11, 154413, Note_on_c, 11, 55, 110
11, 154433, Note_on_c, 11, 55, 0
11, 154433, Note_on_c, 11, 67, 0
11, 154443, Note_on_c, 11, 55, 110
11, 154443, Note_on_c, 11, 67, 110
11, 154503, Note_on_c, 11, 67, 0
11, 154503, Note_on_c, 11, 55, 0
11, 154563, Note_on_c, 11, 67, 110
11, 154563, Note_on_c, 11, 55, 110
11, 154583, Note_on_c, 11, 55, 0
11, 154583, Note_on_c, 11, 67, 0
11, 154593, Note_on_c, 11, 55, 110
11, 154593, Note_on_c, 11, 67, 110
11, 154613, Note_on_c, 11, 67, 0
11, 154613, Note_on_c, 11, 55, 0
11, 154623, Note_on_c, 11, 55, 110
11, 154623, Note_on_c, 11, 67, 110
11, 154643, Note_on_c, 11, 67, 0
11, 154643, Note_on_c, 11, 55, 0
11, 154653, Note_on_c, 11, 55, 110
11, 154653, Note_on_c, 11, 67, 110
11, 154673, Note_on_c, 11, 67, 0
11, 154673, Note_on_c, 11, 55, 0
11, 154683, Note_on_c, 11, 55, 110
11, 154683, Note_on_c, 11, 67, 110
11, 154743, Note_on_c, 11, 67, 0
11, 154743, Note_on_c, 11, 55, 0
11, 154803, Note_on_c, 11, 62, 110
11, 154833, Note_on_c, 11, 62, 0
11, 154863, Note_on_c, 11, 64, 110
11, 154893, Note_on_c, 11, 64, 0
11, 154923, Note_on_c, 11, 65, 110
11, 154953, Note_on_c, 11, 65, 0
11, 154983, Note_on_c, 11, 66, 110
11, 155013, Note_on_c, 11, 66, 0
11, 155043, Note_on_c, 11, 67, 110
11, 155043, Control_c, 11, 11, 107
11, 155061, Control_c, 11, 11, 104
11, 155063, Note_on_c, 11, 67, 0
11, 155073, Note_on_c, 11, 67, 110
11, 155079, Control_c, 11, 11, 101
11, 155093, Note_on_c, 11, 67, 0
11, 155097, Control_c, 11, 11, 98
11, 155103, Note_on_c, 11, 67, 110
11, 155115, Control_c, 11, 11, 95
11, 155123, Note_on_c, 11, 67, 0
11, 155133, Note_on_c, 11, 67, 110
11, 155133, Control_c, 11, 11, 92
11, 155151, Control_c, 11, 11, 89
11, 155153, Note_on_c, 11, 67, 0
11, 155163, Note_on_c, 11, 67, 110
11, 155183, Note_on_c, 11, 67, 0
11, 155193, Note_on_c, 11, 67, 110
11, 155213, Note_on_c, 11, 67, 0
11, 155223, Note_on_c, 11, 65, 110
11, 155243, Note_on_c, 11, 65, 0
11, 155253, Note_on_c, 11, 65, 110
11, 155273, Note_on_c, 11, 65, 0
11, 155283, Note_on_c, 11, 64, 110
11, 155303, Note_on_c, 11, 64, 0
11, 155313, Note_on_c, 11, 64, 110
11, 155333, Note_on_c, 11, 64, 0
11, 155343, Note_on_c, 11, 62, 110
11, 155363, Note_on_c, 11, 62, 0
11, 155373, Note_on_c, 11, 62, 110
11, 155393, Note_on_c, 11, 62, 0
11, 155403, Note_on_c, 11, 60, 110
11, 155423, Note_on_c, 11, 60, 0
11, 155433, Note_on_c, 11, 60, 110
11, 155453, Note_on_c, 11, 60, 0
11, 155463, Note_on_c, 11, 59, 110
11, 155483, Note_on_c, 11, 59, 0
11, 155493, Note_on_c, 11, 59, 110
11, 155513, Note_on_c, 11, 59, 0
11, 155523, Control_c, 11, 11, 107
11, 155523, Note_on_c, 11, 57, 110
11, 155541, Control_c, 11, 11, 104
11, 155543, Note_on_c, 11, 57, 0
11, 155553, Note_on_c, 11, 69, 110
11, 155559, Control_c, 11, 11, 101
11, 155573, Note_on_c, 11, 69, 0
11, 155577, Control_c, 11, 11, 98
11, 155583, Note_on_c, 11, 69, 110
11, 155595, Control_c, 11, 11, 95
11, 155603, Note_on_c, 11, 69, 0
11, 155613, Control_c, 11, 11, 92
11, 155613, Note_on_c, 11, 69, 110
11, 155631, Control_c, 11, 11, 89
11, 155633, Note_on_c, 11, 69, 0
11, 155643, Note_on_c, 11, 69, 110
11, 155663, Note_on_c, 11, 69, 0
11, 155673, Note_on_c, 11, 69, 110
11, 155693, Note_on_c, 11, 69, 0
11, 155703, Note_on_c, 11, 67, 110
11, 155723, Note_on_c, 11, 67, 0
11, 155733, Note_on_c, 11, 67, 110
11, 155753, Note_on_c, 11, 67, 0
11, 155763, Note_on_c, 11, 65, 110
11, 155783, Note_on_c, 11, 65, 0
11, 155793, Note_on_c, 11, 65, 110
11, 155813, Note_on_c, 11, 65, 0
11, 155823, Note_on_c, 11, 64, 110
11, 155843, Note_on_c, 11, 64, 0
11, 155853, Note_on_c, 11, 64, 110
11, 155873, Note_on_c, 11, 64, 0
11, 155883, Note_on_c, 11, 62, 110
11, 155903, Note_on_c, 11, 62, 0
11, 155913, Note_on_c, 11, 62, 110
11, 155933, Note_on_c, 11, 62, 0
11, 155943, Note_on_c, 11, 60, 110
11, 155963, Note_on_c, 11, 60, 0
11, 155973, Note_on_c, 11, 60, 110
11, 155993, Note_on_c, 11, 60, 0
11, 156003, Control_c, 11, 11, 77
11, 156003, Note_on_c, 11, 59, 110
11, 156022, Control_c, 11, 11, 78
11, 156023, Note_on_c, 11, 59, 0
11, 156033, Note_on_c, 11, 59, 110
11, 156041, Control_c, 11, 11, 79
11, 156053, Note_on_c, 11, 59, 0
11, 156060, Control_c, 11, 11, 80
11, 156063, Note_on_c, 11, 60, 110
11, 156079, Control_c, 11, 11, 81
11, 156083, Note_on_c, 11, 60, 0
11, 156093, Note_on_c, 11, 60, 110
11, 156099, Control_c, 11, 11, 82
11, 156113, Note_on_c, 11, 60, 0
11, 156118, Control_c, 11, 11, 83
11, 156123, Note_on_c, 11, 62, 110
11, 156137, Control_c, 11, 11, 84
11, 156143, Note_on_c, 11, 62, 0
11, 156153, Note_on_c, 11, 62, 110
11, 156156, Control_c, 11, 11, 85
11, 156173, Note_on_c, 11, 62, 0
11, 156175, Control_c, 11, 11, 86
11, 156183, Note_on_c, 11, 64, 110
11, 156195, Control_c, 11, 11, 87
11, 156203, Note_on_c, 11, 64, 0
11, 156213, Note_on_c, 11, 64, 110
11, 156214, Control_c, 11, 11, 88
11, 156233, Note_on_c, 11, 64, 0
11, 156233, Control_c, 11, 11, 89
11, 156243, Note_on_c, 11, 65, 110
11, 156252, Control_c, 11, 11, 90
11, 156263, Note_on_c, 11, 65, 0
11, 156271, Control_c, 11, 11, 91
11, 156273, Note_on_c, 11, 65, 110
11, 156291, Control_c, 11, 11, 92
11, 156293, Note_on_c, 11, 65, 0
11, 156303, Note_on_c, 11, 67, 110
11, 156310, Control_c, 11, 11, 93
11, 156323, Note_on_c, 11, 67, 0
11, 156329, Control_c, 11, 11, 94
11, 156333, Note_on_c, 11, 67, 110
11, 156348, Control_c, 11, 11, 95
11, 156353, Note_on_c, 11, 67, 0
11, 156363, Note_on_c, 11, 69, 110
11, 156367, Control_c, 11, 11, 96
11, 156383, Note_on_c, 11, 69, 0
11, 156387, Control_c, 11, 11, 97
11, 156393, Note_on_c, 11, 69, 110
11, 156406, Control_c, 11, 11, 98
11, 156413, Note_on_c, 11, 69, 0
11, 156423, Note_on_c, 11, 71, 110
11, 156425, Control_c, 11, 11, 99
11, 156443, Note_on_c, 11, 71, 0
11, 156444, Control_c, 11, 11, 100
11, 156453, Note_on_c, 11, 71, 110
11, 156463, Control_c, 11, 11, 101
11, 156473, Note_on_c, 11, 71, 0
11, 156483, Note_on_c, 11, 72, 110
11, 156483, Control_c, 11, 11, 102
11, 156543, Note_on_c, 11, 72, 0
11, 156603, Note_on_c, 11, 69, 110
11, 156663, Note_on_c, 11, 69, 0
11, 156723, Note_on_c, 11, 67, 110
11, 156783, Note_on_c, 11, 67, 0
11, 156843, Note_on_c, 11, 65, 110
11, 156843, Note_on_c, 11, 55, 110
11, 156903, Note_on_c, 11, 55, 0
11, 156903, Note_on_c, 11, 65, 0
11, 156963, Note_on_c, 11, 55, 64
11, 156963, Note_on_c, 11, 64, 64
11, 157023, Control_c, 11, 11, 87
11, 157030, Control_c, 11, 11, 84
11, 157037, Control_c, 11, 11, 81
11, 157044, Note_on_c, 11, 64, 0
11, 157044, Note_on_c, 11, 55, 0
11, 157044, Control_c, 11, 11, 78
11, 157051, Control_c, 11, 11, 75
11, 157059, Control_c, 11, 11, 72
11, 157066, Control_c, 11, 11, 69
11, 157073, Control_c, 11, 11, 66
11, 157080, Control_c, 11, 11, 63
11, 157083, Note_on_c, 11, 63, 86
11, 157087, Control_c, 11, 11, 60
11, 157095, Control_c, 11, 11, 57
11, 157102, Control_c, 11, 11, 54
11, 157109, Control_c, 11, 11, 51
11, 157116, Control_c, 11, 11, 48
11, 157123, Control_c, 11, 11, 45
11, 157131, Control_c, 11, 11, 42
11, 157138, Control_c, 11, 11, 39
11, 157164, Note_on_c, 11, 63, 0
11, 157203, Note_on_c, 11, 63, 86
11, 157284, Note_on_c, 11, 63, 0
11, 157323, Note_on_c, 11, 63, 86
11, 157404, Note_on_c, 11, 63, 0
11, 157443, Note_on_c, 11, 65, 86
11, 157524, Note_on_c, 11, 65, 0
11, 157563, Note_on_c, 11, 65, 86
11, 157644, Note_on_c, 11, 65, 0
11, 157683, Note_on_c, 11, 65, 86
11, 157764, Note_on_c, 11, 65, 0
11, 157803, Note_on_c, 11, 65, 86
11, 157884, Note_on_c, 11, 65, 0
11, 157923, Note_on_c, 11, 65, 86
11, 158004, Note_on_c, 11, 65, 0
11, 158043, Note_on_c, 11, 65, 86
11, 158124, Note_on_c, 11, 65, 0
11, 158163, Note_on_c, 11, 65, 86
11, 158244, Note_on_c, 11, 65, 0
11, 158283, Note_on_c, 11, 65, 86
11, 158364, Note_on_c, 11, 65, 0
11, 158403, Note_on_c, 11, 63, 86
11, 158484, Note_on_c, 11, 63, 0
11, 158523, Note_on_c, 11, 63, 86
11, 158604, Note_on_c, 11, 63, 0
11, 158643, Note_on_c, 11, 63, 86
11, 158724, Note_on_c, 11, 63, 0
11, 158763, Note_on_c, 11, 63, 86
11, 158844, Note_on_c, 11, 63, 0
11, 158883, Note_on_c, 11, 63, 86
11, 158964, Note_on_c, 11, 63, 0
11, 159003, Note_on_c, 11, 63, 86
11, 159084, Note_on_c, 11, 63, 0
11, 159123, Note_on_c, 11, 62, 86
11, 159204, Note_on_c, 11, 62, 0
11, 159243, Note_on_c, 11, 62, 86
11, 159324, Note_on_c, 11, 62, 0
11, 159363, Note_on_c, 11, 65, 86
11, 159444, Note_on_c, 11, 65, 0
11, 159483, Note_on_c, 11, 65, 86
11, 159564, Note_on_c, 11, 65, 0
11, 159603, Note_on_c, 11, 65, 86
11, 159684, Note_on_c, 11, 65, 0
11, 159723, Note_on_c, 11, 65, 87
11, 159804, Note_on_c, 11, 65, 0
11, 159843, Note_on_c, 11, 63, 88
11, 159924, Note_on_c, 11, 63, 0
11, 159963, Note_on_c, 11, 63, 89
11, 160044, Note_on_c, 11, 63, 0
11, 160083, Note_on_c, 11, 63, 89
11, 160164, Note_on_c, 11, 63, 0
11, 160203, Note_on_c, 11, 63, 90
11, 160284, Note_on_c, 11, 63, 0
11, 160323, Note_on_c, 11, 62, 91
11, 160404, Note_on_c, 11, 62, 0
11, 160443, Note_on_c, 11, 68, 92
11, 160524, Note_on_c, 11, 68, 0
11, 160563, Note_on_c, 11, 69, 93
11, 160644, Note_on_c, 11, 69, 0
11, 160683, Note_on_c, 11, 69, 94
11, 160764, Note_on_c, 11, 69, 0
11, 160803, Note_on_c, 11, 67, 95
11, 160884, Note_on_c, 11, 67, 0
11, 160923, Note_on_c, 11, 71, 95
11, 160923, Control_c, 11, 11, 37
11, 160949, Control_c, 11, 11, 38
11, 160975, Control_c, 11, 11, 39
11, 161002, Control_c, 11, 11, 40
11, 161004, Note_on_c, 11, 71, 0
11, 161028, Control_c, 11, 11, 41
11, 161043, Note_on_c, 11, 71, 95
11, 161055, Control_c, 11, 11, 42
11, 161081, Control_c, 11, 11, 43
11, 161107, Control_c, 11, 11, 44
11, 161124, Note_on_c, 11, 71, 0
11, 161134, Control_c, 11, 11, 45
11, 161160, Control_c, 11, 11, 46
11, 161163, Note_on_c, 11, 71, 95
11, 161187, Control_c, 11, 11, 47
11, 161213, Control_c, 11, 11, 48
11, 161239, Control_c, 11, 11, 49
11, 161244, Note_on_c, 11, 71, 0
11, 161266, Control_c, 11, 11, 50
11, 161283, Note_on_c, 11, 72, 95
11, 161292, Control_c, 11, 11, 51
11, 161319, Control_c, 11, 11, 52
11, 161345, Control_c, 11, 11, 53
11, 161364, Note_on_c, 11, 72, 0
11, 161371, Control_c, 11, 11, 54
11, 161398, Control_c, 11, 11, 55
11, 161403, Note_on_c, 11, 72, 95
11, 161424, Control_c, 11, 11, 56
11, 161451, Control_c, 11, 11, 57
11, 161477, Control_c, 11, 11, 58
11, 161484, Note_on_c, 11, 72, 0
11, 161503, Control_c, 11, 11, 59
11, 161523, Note_on_c, 11, 72, 95
11, 161530, Control_c, 11, 11, 60
11, 161556, Control_c, 11, 11, 61
11, 161583, Control_c, 11, 11, 62
11, 161604, Note_on_c, 11, 72, 0
11, 161609, Control_c, 11, 11, 63
11, 161635, Control_c, 11, 11, 64
11, 161643, Note_on_c, 11, 72, 95
11, 161662, Control_c, 11, 11, 65
11, 161688, Control_c, 11, 11, 66
11, 161715, Control_c, 11, 11, 67
11, 161724, Note_on_c, 11, 72, 0
11, 161741, Control_c, 11, 11, 68
11, 161763, Note_on_c, 11, 69, 95
11, 161767, Control_c, 11, 11, 69
11, 161794, Control_c, 11, 11, 70
11, 161820, Control_c, 11, 11, 71
11, 161844, Note_on_c, 11, 69, 0
11, 161847, Control_c, 11, 11, 72
11, 161873, Control_c, 11, 11, 73
11, 161883, Note_on_c, 11, 69, 98
11, 161899, Control_c, 11, 11, 74
11, 161926, Control_c, 11, 11, 75
11, 161952, Control_c, 11, 11, 76
11, 161964, Note_on_c, 11, 69, 0
11, 161979, Control_c, 11, 11, 77
11, 162003, Note_on_c, 11, 65, 102
11, 162005, Control_c, 11, 11, 78
11, 162031, Control_c, 11, 11, 79
11, 162058, Control_c, 11, 11, 80
11, 162084, Note_on_c, 11, 65, 0
11, 162084, Control_c, 11, 11, 81
11, 162111, Control_c, 11, 11, 82
11, 162123, Note_on_c, 11, 65, 106
11, 162137, Control_c, 11, 11, 83
11, 162163, Control_c, 11, 11, 84
11, 162190, Control_c, 11, 11, 85
11, 162204, Note_on_c, 11, 65, 0
11, 162216, Control_c, 11, 11, 86
11, 162243, Note_on_c, 11, 64, 110
11, 162243, Control_c, 11, 11, 87
11, 162243, Note_on_c, 11, 60, 110
11, 162593, Note_on_c, 11, 60, 0
11, 162593, Note_on_c, 11, 64, 0
11, 162603, Note_on_c, 11, 55, 110
11, 162693, Note_on_c, 11, 55, 0
11, 162693, Note_on_c, 11, 59, 110
11, 162713, Note_on_c, 11, 59, 0
11, 162723, Control_c, 11, 11, 107
11, 162723, Note_on_c, 11, 60, 110
11, 162741, Control_c, 11, 11, 104
11, 162759, Control_c, 11, 11, 101
11, 162777, Control_c, 11, 11, 98
11, 162795, Control_c, 11, 11, 95
11, 162813, Control_c, 11, 11, 92
11, 162831, Control_c, 11, 11, 89
11, 163073, Note_on_c, 11, 60, 0
11, 163083, Note_on_c, 11, 55, 110
11, 163173, Note_on_c, 11, 55, 0
11, 163173, Note_on_c, 11, 59, 110
11, 163193, Note_on_c, 11, 59, 0
11, 163203, Control_c, 11, 11, 107
11, 163203, Note_on_c, 11, 60, 110
11, 163221, Control_c, 11, 11, 104
11, 163233, Note_on_c, 11, 60, 0
11, 163239, Control_c, 11, 11, 101
11, 163257, Control_c, 11, 11, 98
11, 163263, Note_on_c, 11, 60, 110
11, 163275, Control_c, 11, 11, 95
11, 163293, Control_c, 11, 11, 92
11, 163311, Control_c, 11, 11, 89
11, 163323, Note_on_c, 11, 60, 0
11, 163323, Note_on_c, 11, 59, 110
11, 163383, Note_on_c, 11, 59, 0
11, 163383, Note_on_c, 11, 60, 110
11, 163433, Note_on_c, 11, 60, 0
11, 163443, Control_c, 11, 11, 107
11, 163443, Note_on_c, 11, 62, 110
11, 163461, Control_c, 11, 11, 104
11, 163473, Note_on_c, 11, 62, 0
11, 163479, Control_c, 11, 11, 101
11, 163497, Control_c, 11, 11, 98
11, 163503, Note_on_c, 11, 62, 110
11, 163515, Control_c, 11, 11, 95
11, 163533, Control_c, 11, 11, 92
11, 163551, Control_c, 11, 11, 89
11, 163563, Note_on_c, 11, 62, 0
11, 163563, Note_on_c, 11, 61, 110
11, 163623, Note_on_c, 11, 61, 0
11, 163623, Note_on_c, 11, 62, 110
11, 163673, Note_on_c, 11, 62, 0
11, 163683, Control_c, 11, 11, 107
11, 163683, Note_on_c, 11, 64, 110
11, 163701, Control_c, 11, 11, 104
11, 163713, Note_on_c, 11, 64, 0
11, 163719, Control_c, 11, 11, 101
11, 163737, Control_c, 11, 11, 98
11, 163743, Note_on_c, 11, 64, 110
11, 163755, Control_c, 11, 11, 95
11, 163773, Control_c, 11, 11, 92
11, 163791, Control_c, 11, 11, 89
11, 163803, Note_on_c, 11, 64, 0
11, 163803, Note_on_c, 11, 62, 110
11, 163863, Note_on_c, 11, 62, 0
11, 163863, Note_on_c, 11, 64, 110
11, 163913, Note_on_c, 11, 64, 0
11, 163923, Note_on_c, 11, 65, 110
11, 163923, Control_c, 11, 11, 107
11, 163941, Control_c, 11, 11, 104
11, 163953, Note_on_c, 11, 65, 0
11, 163959, Control_c, 11, 11, 101
11, 163977, Control_c, 11, 11, 98
11, 163983, Note_on_c, 11, 65, 110
11, 163995, Control_c, 11, 11, 95
11, 164013, Control_c, 11, 11, 92
11, 164031, Control_c, 11, 11, 89
11, 164043, Note_on_c, 11, 65, 0
11, 164043, Note_on_c, 11, 64, 110
11, 164103, Note_on_c, 11, 64, 0
11, 164103, Note_on_c, 11, 65, 110
11, 164153, Note_on_c, 11, 65, 0
11, 164163, Note_on_c, 11, 67, 110
11, 164183, Note_on_c, 11, 67, 0
11, 164193, Note_on_c, 11, 67, 110
11, 164213, Note_on_c, 11, 67, 0
11, 164223, Note_on_c, 11, 67, 110
11, 164243, Note_on_c, 11, 67, 0
11, 164253, Note_on_c, 11, 67, 110
11, 164273, Note_on_c, 11, 67, 0
11, 164283, Note_on_c, 11, 67, 110
11, 164303, Note_on_c, 11, 67, 0
11, 164313, Note_on_c, 11, 67, 110
11, 164333, Note_on_c, 11, 67, 0
11, 164343, Note_on_c, 11, 67, 110
11, 164363, Note_on_c, 11, 67, 0
11, 164373, Note_on_c, 11, 67, 110
11, 164393, Note_on_c, 11, 67, 0
11, 164403, Note_on_c, 11, 67, 110
11, 164423, Note_on_c, 11, 67, 0
11, 164433, Note_on_c, 11, 67, 110
11, 164453, Note_on_c, 11, 67, 0
11, 164463, Note_on_c, 11, 67, 110
11, 164483, Note_on_c, 11, 67, 0
11, 164493, Note_on_c, 11, 67, 110
11, 164513, Note_on_c, 11, 67, 0
11, 164523, Note_on_c, 11, 67, 110
11, 164543, Note_on_c, 11, 67, 0
11, 164553, Note_on_c, 11, 67, 110
11, 164573, Note_on_c, 11, 67, 0
11, 164583, Note_on_c, 11, 67, 110
11, 164603, Note_on_c, 11, 67, 0
11, 164613, Note_on_c, 11, 67, 110
11, 164633, Note_on_c, 11, 67, 0
11, 164643, Note_on_c, 11, 68, 110
11, 164663, Note_on_c, 11, 68, 0
11, 164673, Note_on_c, 11, 68, 110
11, 164693, Note_on_c, 11, 68, 0
11, 164703, Note_on_c, 11, 68, 110
11, 164723, Note_on_c, 11, 68, 0
11, 164733, Note_on_c, 11, 68, 110
11, 164753, Note_on_c, 11, 68, 0
11, 164763, Note_on_c, 11, 68, 110
11, 164783, Note_on_c, 11, 68, 0
11, 164793, Note_on_c, 11, 68, 110
11, 164813, Note_on_c, 11, 68, 0
11, 164823, Note_on_c, 11, 68, 110
11, 164843, Note_on_c, 11, 68, 0
11, 164853, Note_on_c, 11, 68, 110
11, 164873, Note_on_c, 11, 68, 0
11, 164883, Note_on_c, 11, 68, 110
11, 164903, Note_on_c, 11, 68, 0
11, 164913, Note_on_c, 11, 68, 110
11, 164933, Note_on_c, 11, 68, 0
11, 164943, Note_on_c, 11, 68, 110
11, 164963, Note_on_c, 11, 68, 0
11, 164973, Note_on_c, 11, 68, 110
11, 164993, Note_on_c, 11, 68, 0
11, 165003, Note_on_c, 11, 68, 110
11, 165023, Note_on_c, 11, 68, 0
11, 165033, Note_on_c, 11, 68, 110
11, 165053, Note_on_c, 11, 68, 0
11, 165063, Note_on_c, 11, 68, 110
11, 165083, Note_on_c, 11, 68, 0
11, 165093, Note_on_c, 11, 68, 110
11, 165113, Note_on_c, 11, 68, 0
11, 165123, Control_c, 11, 11, 102
11, 165123, Note_on_c, 11, 69, 110
11, 165143, Note_on_c, 11, 69, 0
11, 165153, Note_on_c, 11, 69, 110
11, 165173, Note_on_c, 11, 69, 0
11, 165183, Note_on_c, 11, 69, 110
11, 165203, Note_on_c, 11, 69, 0
11, 165213, Note_on_c, 11, 69, 110
11, 165233, Note_on_c, 11, 69, 0
11, 165243, Note_on_c, 11, 69, 110
11, 165263, Note_on_c, 11, 69, 0
11, 165273, Note_on_c, 11, 69, 110
11, 165293, Note_on_c, 11, 69, 0
11, 165303, Note_on_c, 11, 69, 110
11, 165323, Note_on_c, 11, 69, 0
11, 165333, Note_on_c, 11, 69, 110
11, 165353, Note_on_c, 11, 69, 0
11, 165363, Note_on_c, 11, 69, 110
11, 165383, Note_on_c, 11, 69, 0
11, 165393, Note_on_c, 11, 69, 110
11, 165413, Note_on_c, 11, 69, 0
11, 165423, Note_on_c, 11, 69, 110
11, 165443, Note_on_c, 11, 69, 0
11, 165453, Note_on_c, 11, 69, 110
11, 165473, Note_on_c, 11, 69, 0
11, 165483, Note_on_c, 11, 69, 110
11, 165503, Note_on_c, 11, 69, 0
11, 165513, Note_on_c, 11, 69, 110
11, 165533, Note_on_c, 11, 69, 0
11, 165543, Note_on_c, 11, 69, 110
11, 165563, Note_on_c, 11, 69, 0
11, 165573, Note_on_c, 11, 69, 110
11, 165593, Note_on_c, 11, 69, 0
11, 165603, Note_on_c, 11, 70, 110
11, 165623, Note_on_c, 11, 70, 0
11, 165633, Note_on_c, 11, 70, 110
11, 165653, Note_on_c, 11, 70, 0
11, 165663, Note_on_c, 11, 70, 110
11, 165683, Note_on_c, 11, 70, 0
11, 165693, Note_on_c, 11, 70, 110
11, 165713, Note_on_c, 11, 70, 0
11, 165723, Note_on_c, 11, 67, 110
11, 165743, Note_on_c, 11, 67, 0
11, 165753, Note_on_c, 11, 67, 110
11, 165773, Note_on_c, 11, 67, 0
11, 165783, Note_on_c, 11, 67, 110
11, 165803, Note_on_c, 11, 67, 0
11, 165813, Note_on_c, 11, 67, 110
11, 165833, Note_on_c, 11, 67, 0
11, 165843, Note_on_c, 11, 64, 110
11, 165863, Note_on_c, 11, 64, 0
11, 165873, Note_on_c, 11, 64, 110
11, 165893, Note_on_c, 11, 64, 0
11, 165903, Note_on_c, 11, 64, 110
11, 165923, Note_on_c, 11, 64, 0
11, 165933, Note_on_c, 11, 64, 110
11, 165953, Note_on_c, 11, 64, 0
11, 165963, Note_on_c, 11, 61, 110
11, 165983, Note_on_c, 11, 61, 0
11, 165993, Note_on_c, 11, 61, 110
11, 166013, Note_on_c, 11, 61, 0
11, 166023, Note_on_c, 11, 61, 110
11, 166043, Note_on_c, 11, 61, 0
11, 166053, Note_on_c, 11, 61, 110
11, 166073, Note_on_c, 11, 61, 0
11, 166083, Note_on_c, 11, 62, 110
11, 166103, Note_on_c, 11, 62, 0
11, 166113, Note_on_c, 11, 74, 110
11, 166133, Note_on_c, 11, 74, 0
11, 166143, Note_on_c, 11, 74, 110
11, 166163, Note_on_c, 11, 74, 0
11, 166173, Note_on_c, 11, 74, 110
11, 166193, Note_on_c, 11, 74, 0
11, 166203, Note_on_c, 11, 74, 110
11, 166223, Note_on_c, 11, 74, 0
11, 166233, Note_on_c, 11, 74, 110
11, 166253, Note_on_c, 11, 74, 0
11, 166263, Note_on_c, 11, 74, 110
11, 166283, Note_on_c, 11, 74, 0
11, 166293, Note_on_c, 11, 74, 110
11, 166313, Note_on_c, 11, 74, 0
11, 166323, Note_on_c, 11, 74, 110
11, 166343, Note_on_c, 11, 74, 0
11, 166353, Note_on_c, 11, 74, 110
11, 166373, Note_on_c, 11, 74, 0
11, 166383, Note_on_c, 11, 74, 110
11, 166403, Note_on_c, 11, 74, 0
11, 166413, Note_on_c, 11, 74, 110
11, 166433, Note_on_c, 11, 74, 0
11, 166443, Note_on_c, 11, 74, 110
11, 166463, Note_on_c, 11, 74, 0
11, 166473, Note_on_c, 11, 74, 110
11, 166493, Note_on_c, 11, 74, 0
11, 166503, Note_on_c, 11, 74, 110
11, 166523, Note_on_c, 11, 74, 0
11, 166533, Note_on_c, 11, 74, 110
11, 166553, Note_on_c, 11, 74, 0
11, 166563, Note_on_c, 11, 75, 110
11, 166583, Note_on_c, 11, 75, 0
11, 166593, Note_on_c, 11, 75, 110
11, 166613, Note_on_c, 11, 75, 0
11, 166623, Note_on_c, 11, 75, 110
11, 166643, Note_on_c, 11, 75, 0
11, 166653, Note_on_c, 11, 75, 110
11, 166673, Note_on_c, 11, 75, 0
11, 166683, Note_on_c, 11, 72, 110
11, 166703, Note_on_c, 11, 72, 0
11, 166713, Note_on_c, 11, 72, 110
11, 166733, Note_on_c, 11, 72, 0
11, 166743, Note_on_c, 11, 72, 110
11, 166763, Note_on_c, 11, 72, 0
11, 166773, Note_on_c, 11, 72, 110
11, 166793, Note_on_c, 11, 72, 0
11, 166803, Note_on_c, 11, 69, 110
11, 166823, Note_on_c, 11, 69, 0
11, 166833, Note_on_c, 11, 69, 110
11, 166853, Note_on_c, 11, 69, 0
11, 166863, Note_on_c, 11, 69, 110
11, 166883, Note_on_c, 11, 69, 0
11, 166893, Note_on_c, 11, 69, 110
11, 166913, Note_on_c, 11, 69, 0
11, 166923, Note_on_c, 11, 66, 110
11, 166943, Note_on_c, 11, 66, 0
11, 166953, Note_on_c, 11, 66, 110
11, 166973, Note_on_c, 11, 66, 0
11, 166983, Note_on_c, 11, 66, 110
11, 167003, Note_on_c, 11, 66, 0
11, 167013, Note_on_c, 11, 66, 110
11, 167033, Note_on_c, 11, 66, 0
11, 167043, Note_on_c, 11, 67, 110
11, 167043, Control_c, 11, 11, 122
11, 167060, Control_c, 11, 11, 119
11, 167063, Note_on_c, 11, 67, 0
11, 167073, Note_on_c, 11, 67, 110
11, 167078, Control_c, 11, 11, 116
11, 167093, Note_on_c, 11, 67, 0
11, 167096, Control_c, 11, 11, 113
11, 167103, Note_on_c, 11, 67, 110
11, 167114, Control_c, 11, 11, 110
11, 167123, Note_on_c, 11, 67, 0
11, 167132, Control_c, 11, 11, 107
11, 167133, Note_on_c, 11, 67, 110
11, 167150, Control_c, 11, 11, 104
11, 167153, Note_on_c, 11, 67, 0
11, 167163, Note_on_c, 11, 67, 110
11, 167183, Note_on_c, 11, 67, 0
11, 167193, Note_on_c, 11, 67, 110
11, 167213, Note_on_c, 11, 67, 0
11, 167223, Note_on_c, 11, 67, 110
11, 167243, Note_on_c, 11, 67, 0
11, 167253, Note_on_c, 11, 67, 110
11, 167273, Note_on_c, 11, 67, 0
11, 167283, Control_c, 11, 11, 122
11, 167283, Note_on_c, 11, 69, 110
11, 167300, Control_c, 11, 11, 119
11, 167303, Note_on_c, 11, 69, 0
11, 167313, Note_on_c, 11, 69, 110
11, 167318, Control_c, 11, 11, 116
11, 167333, Note_on_c, 11, 69, 0
11, 167336, Control_c, 11, 11, 113
11, 167343, Note_on_c, 11, 69, 110
11, 167354, Control_c, 11, 11, 110
11, 167363, Note_on_c, 11, 69, 0
11, 167372, Control_c, 11, 11, 107
11, 167373, Note_on_c, 11, 69, 110
11, 167390, Control_c, 11, 11, 104
11, 167393, Note_on_c, 11, 69, 0
11, 167403, Note_on_c, 11, 69, 110
11, 167423, Note_on_c, 11, 69, 0
11, 167433, Note_on_c, 11, 69, 110
11, 167453, Note_on_c, 11, 69, 0
11, 167463, Note_on_c, 11, 69, 110
11, 167483, Note_on_c, 11, 69, 0
11, 167493, Note_on_c, 11, 69, 110
11, 167513, Note_on_c, 11, 69, 0
11, 167523, Control_c, 11, 11, 122
11, 167523, Note_on_c, 11, 65, 110
11, 167540, Control_c, 11, 11, 119
11, 167543, Note_on_c, 11, 65, 0
11, 167553, Note_on_c, 11, 65, 110
11, 167558, Control_c, 11, 11, 116
11, 167573, Note_on_c, 11, 65, 0
11, 167576, Control_c, 11, 11, 113
11, 167583, Note_on_c, 11, 65, 110
11, 167594, Control_c, 11, 11, 110
11, 167603, Note_on_c, 11, 65, 0
11, 167612, Control_c, 11, 11, 107
11, 167613, Note_on_c, 11, 65, 110
11, 167630, Control_c, 11, 11, 104
11, 167633, Note_on_c, 11, 65, 0
11, 167643, Note_on_c, 11, 65, 110
11, 167663, Note_on_c, 11, 65, 0
11, 167673, Note_on_c, 11, 65, 110
11, 167693, Note_on_c, 11, 65, 0
11, 167703, Note_on_c, 11, 65, 110
11, 167723, Note_on_c, 11, 65, 0
11, 167733, Note_on_c, 11, 65, 110
11, 167753, Note_on_c, 11, 65, 0
11, 167763, Note_on_c, 11, 67, 110
11, 167763, Control_c, 11, 11, 122
11, 167780, Control_c, 11, 11, 119
11, 167783, Note_on_c, 11, 67, 0
11, 167793, Note_on_c, 11, 67, 110
11, 167798, Control_c, 11, 11, 116
11, 167813, Note_on_c, 11, 67, 0
11, 167816, Control_c, 11, 11, 113
11, 167823, Note_on_c, 11, 67, 110
11, 167834, Control_c, 11, 11, 110
11, 167843, Note_on_c, 11, 67, 0
11, 167852, Control_c, 11, 11, 107
11, 167853, Note_on_c, 11, 67, 110
11, 167870, Control_c, 11, 11, 104
11, 167873, Note_on_c, 11, 67, 0
11, 167883, Note_on_c, 11, 67, 110
11, 167903, Note_on_c, 11, 67, 0
11, 167913, Note_on_c, 11, 67, 110
11, 167933, Note_on_c, 11, 67, 0
11, 167943, Note_on_c, 11, 67, 110
11, 167963, Note_on_c, 11, 67, 0
11, 167973, Note_on_c, 11, 67, 110
11, 167993, Note_on_c, 11, 67, 0
11, 168003, Note_on_c, 11, 60, 110
11, 168123, Note_on_c, 11, 60, 0
11, 168363, Control_c, 11, 11, 47
11, 168363, Note_on_c, 11, 71, 110
11, 168483, Note_on_c, 11, 71, 0
11, 168483, Note_on_c, 11, 72, 125
11, 168663, Note_on_c, 11, 72, 0
11, 168663, Note_on_c, 11, 71, 110
11, 168693, Note_on_c, 11, 71, 0
11, 168693, Note_on_c, 11, 69, 110
11, 168713, Note_on_c, 11, 69, 0
11, 168723, Note_on_c, 11, 67, 110
11, 168783, Note_on_c, 11, 67, 0
11, 168843, Control_c, 11, 11, 70
11, 168843, Note_on_c, 11, 65, 110
11, 168849, Control_c, 11, 11, 73
11, 168855, Control_c, 11, 11, 76
11, 168861, Control_c, 11, 11, 79
11, 168875, Control_c, 11, 11, 76
11, 168884, Control_c, 11, 11, 73
11, 168893, Control_c, 11, 11, 70
11, 168902, Control_c, 11, 11, 67
11, 168911, Control_c, 11, 11, 64
11, 168920, Control_c, 11, 11, 61
11, 168929, Control_c, 11, 11, 58
11, 168938, Control_c, 11, 11, 55
11, 168947, Control_c, 11, 11, 52
11, 168956, Control_c, 11, 11, 49
11, 168963, Note_on_c, 11, 65, 0
11, 168963, Note_on_c, 11, 64, 95
11, 169083, Note_on_c, 11, 64, 0
11, 169323, Note_on_c, 11, 71, 110
11, 169443, Note_on_c, 11, 71, 0
11, 169443, Note_on_c, 11, 72, 125
11, 169623, Note_on_c, 11, 72, 0
11, 169623, Note_on_c, 11, 71, 110
11, 169653, Note_on_c, 11, 71, 0
11, 169653, Note_on_c, 11, 69, 110
11, 169673, Note_on_c, 11, 69, 0
11, 169683, Note_on_c, 11, 67, 110
11, 169743, Note_on_c, 11, 67, 0
11, 169803, Note_on_c, 11, 71, 110
11, 169803, Control_c, 11, 11, 70
11, 169809, Control_c, 11, 11, 73
11, 169815, Control_c, 11, 11, 76
11, 169821, Control_c, 11, 11, 79
11, 169835, Control_c, 11, 11, 76
11, 169844, Control_c, 11, 11, 73
11, 169853, Control_c, 11, 11, 70
11, 169862, Control_c, 11, 11, 67
11, 169871, Control_c, 11, 11, 64
11, 169880, Control_c, 11, 11, 61
11, 169889, Control_c, 11, 11, 58
11, 169898, Control_c, 11, 11, 55
11, 169907, Control_c, 11, 11, 52
11, 169916, Control_c, 11, 11, 49
11, 169923, Note_on_c, 11, 71, 0
11, 169923, Note_on_c, 11, 72, 125
11, 170103, Note_on_c, 11, 72, 0
11, 170103, Note_on_c, 11, 71, 110
11, 170133, Note_on_c, 11, 71, 0
11, 170133, Note_on_c, 11, 69, 110
11, 170153, Note_on_c, 11, 69, 0
11, 170163, Note_on_c, 11, 67, 110
11, 170223, Note_on_c, 11, 67, 0
11, 170283, Note_on_c, 11, 71, 110
11, 170283, Control_c, 11, 11, 70
11, 170291, Control_c, 11, 11, 73
11, 170300, Control_c, 11, 11, 76
11, 170309, Control_c, 11, 11, 79
11, 170315, Control_c, 11, 11, 76
11, 170324, Control_c, 11, 11, 73
11, 170333, Control_c, 11, 11, 70
11, 170342, Control_c, 11, 11, 67
11, 170351, Control_c, 11, 11, 64
11, 170360, Control_c, 11, 11, 61
11, 170369, Control_c, 11, 11, 58
11, 170378, Control_c, 11, 11, 55
11, 170387, Control_c, 11, 11, 52
11, 170396, Control_c, 11, 11, 49
11, 170403, Note_on_c, 11, 71, 0
11, 170403, Note_on_c, 11, 72, 125
11, 170583, Note_on_c, 11, 72, 0
11, 170583, Note_on_c, 11, 71, 110
11, 170613, Note_on_c, 11, 71, 0
11, 170613, Note_on_c, 11, 69, 110
11, 170633, Note_on_c, 11, 69, 0
11, 170643, Note_on_c, 11, 67, 110
11, 170703, Note_on_c, 11, 67, 0
11, 170763, Control_c, 11, 11, 122
11, 170763, Note_on_c, 11, 62, 110
11, 170763, Note_on_c, 11, 71, 110
11, 170823, Note_on_c, 11, 71, 0
11, 170823, Note_on_c, 11, 62, 0
11, 170883, Note_on_c, 11, 55, 90
11, 170883, Note_on_c, 11, 64, 90
11, 170893, Note_on_c, 11, 72, 90
11, 171003, Note_on_c, 11, 64, 0
11, 171003, Note_on_c, 11, 55, 0
11, 171013, Note_on_c, 11, 72, 0
11, 171723, Note_on_c, 11, 55, 95
11, 171723, Control_c, 11, 11, 47
11, 171813, Note_on_c, 11, 55, 0
11, 171813, Note_on_c, 11, 59, 95
11, 171833, Note_on_c, 11, 59, 0
11, 171843, Note_on_c, 11, 60, 95
11, 171873, Note_on_c, 11, 60, 0
11, 171903, Note_on_c, 11, 60, 95
11, 171933, Note_on_c, 11, 60, 0
11, 171963, Note_on_c, 11, 55, 95
11, 171993, Note_on_c, 11, 55, 0
11, 172023, Note_on_c, 11, 59, 95
11, 172053, Note_on_c, 11, 59, 0
11, 172083, Note_on_c, 11, 60, 95
11, 172113, Note_on_c, 11, 60, 0
11, 172143, Note_on_c, 11, 60, 95
11, 172173, Note_on_c, 11, 60, 0
11, 172203, Note_on_c, 11, 55, 95
11, 172233, Note_on_c, 11, 55, 0
11, 172263, Note_on_c, 11, 59, 95
11, 172293, Note_on_c, 11, 59, 0
11, 172323, Note_on_c, 11, 60, 95
11, 172353, Note_on_c, 11, 60, 0
11, 172383, Note_on_c, 11, 60, 95
11, 172413, Note_on_c, 11, 60, 0
11, 172443, Note_on_c, 11, 55, 95
11, 172473, Note_on_c, 11, 55, 0
11, 172503, Note_on_c, 11, 59, 95
11, 172533, Note_on_c, 11, 59, 0
11, 172563, Note_on_c, 11, 60, 95
11, 172593, Note_on_c, 11, 60, 0
11, 172623, Note_on_c, 11, 60, 95
11, 172683, Note_on_c, 11, 60, 0
11, 172683, Note_on_c, 11, 62, 95
11, 172743, Note_on_c, 11, 62, 0
11, 172743, Note_on_c, 11, 64, 95
11, 172793, Note_on_c, 11, 64, 0
11, 172803, Note_on_c, 11, 65, 95
11, 172923, Note_on_c, 11, 65, 0
11, 173643, Note_on_c, 11, 64, 95
11, 173733, Note_on_c, 11, 64, 0
11, 173733, Note_on_c, 11, 68, 95
11, 173753, Note_on_c, 11, 68, 0
11, 173763, Note_on_c, 11, 69, 95
11, 173793, Note_on_c, 11, 69, 0
11, 173823, Note_on_c, 11, 69, 95
11, 173853, Note_on_c, 11, 69, 0
11, 173883, Note_on_c, 11, 64, 95
11, 173913, Note_on_c, 11, 64, 0
11, 173943, Note_on_c, 11, 68, 95
11, 173973, Note_on_c, 11, 68, 0
11, 174003, Note_on_c, 11, 69, 95
11, 174033, Note_on_c, 11, 69, 0
11, 174063, Note_on_c, 11, 69, 95
11, 174093, Note_on_c, 11, 69, 0
11, 174123, Note_on_c, 11, 64, 95
11, 174153, Note_on_c, 11, 64, 0
11, 174183, Note_on_c, 11, 68, 95
11, 174213, Note_on_c, 11, 68, 0
11, 174243, Note_on_c, 11, 69, 95
11, 174273, Note_on_c, 11, 69, 0
11, 174303, Note_on_c, 11, 69, 95
11, 174333, Note_on_c, 11, 69, 0
11, 174363, Note_on_c, 11, 64, 95
11, 174393, Note_on_c, 11, 64, 0
11, 174423, Note_on_c, 11, 68, 95
11, 174453, Note_on_c, 11, 68, 0
11, 174483, Note_on_c, 11, 69, 95
11, 174513, Note_on_c, 11, 69, 0
11, 174543, Note_on_c, 11, 69, 95
11, 174603, Note_on_c, 11, 69, 0
11, 174603, Note_on_c, 11, 71, 95
11, 174663, Note_on_c, 11, 71, 0
11, 174663, Note_on_c, 11, 73, 95
11, 174713, Note_on_c, 11, 73, 0
11, 174723, Note_on_c, 11, 74, 95
11, 174843, Note_on_c, 11, 74, 0
11, 175563, Note_on_c, 11, 62, 110
11, 175563, Control_c, 11, 11, 47
11, 175587, Control_c, 11, 11, 48
11, 175611, Control_c, 11, 11, 49
11, 175635, Control_c, 11, 11, 50
11, 175653, Note_on_c, 11, 62, 0
11, 175653, Note_on_c, 11, 66, 110
11, 175659, Control_c, 11, 11, 51
11, 175673, Note_on_c, 11, 66, 0
11, 175683, Note_on_c, 11, 67, 110
11, 175683, Control_c, 11, 11, 52
11, 175707, Control_c, 11, 11, 53
11, 175713, Note_on_c, 11, 67, 0
11, 175731, Control_c, 11, 11, 54
11, 175743, Note_on_c, 11, 67, 110
11, 175755, Control_c, 11, 11, 55
11, 175773, Note_on_c, 11, 67, 0
11, 175779, Control_c, 11, 11, 56
11, 175803, Note_on_c, 11, 62, 110
11, 175803, Control_c, 11, 11, 57
11, 175827, Control_c, 11, 11, 58
11, 175833, Note_on_c, 11, 62, 0
11, 175851, Control_c, 11, 11, 59
11, 175863, Note_on_c, 11, 66, 110
11, 175875, Control_c, 11, 11, 60
11, 175893, Note_on_c, 11, 66, 0
11, 175899, Control_c, 11, 11, 61
11, 175923, Control_c, 11, 11, 62
11, 175923, Note_on_c, 11, 67, 110
11, 175947, Control_c, 11, 11, 63
11, 175953, Note_on_c, 11, 67, 0
11, 175971, Control_c, 11, 11, 64
11, 175983, Note_on_c, 11, 67, 110
11, 175995, Control_c, 11, 11, 65
11, 176013, Note_on_c, 11, 67, 0
11, 176019, Control_c, 11, 11, 66
11, 176043, Control_c, 11, 11, 67
11, 176043, Note_on_c, 11, 62, 110
11, 176067, Control_c, 11, 11, 68
11, 176073, Note_on_c, 11, 62, 0
11, 176091, Control_c, 11, 11, 69
11, 176103, Note_on_c, 11, 66, 110
11, 176115, Control_c, 11, 11, 70
11, 176133, Note_on_c, 11, 66, 0
11, 176139, Control_c, 11, 11, 71
11, 176163, Note_on_c, 11, 67, 110
11, 176163, Control_c, 11, 11, 72
11, 176179, Control_c, 11, 11, 73
11, 176193, Note_on_c, 11, 67, 0
11, 176195, Control_c, 11, 11, 74
11, 176211, Control_c, 11, 11, 75
11, 176223, Note_on_c, 11, 67, 110
11, 176227, Control_c, 11, 11, 76
11, 176243, Control_c, 11, 11, 77
11, 176253, Note_on_c, 11, 67, 0
11, 176259, Control_c, 11, 11, 78
11, 176275, Control_c, 11, 11, 79
11, 176283, Note_on_c, 11, 62, 110
11, 176291, Control_c, 11, 11, 80
11, 176307, Control_c, 11, 11, 81
11, 176313, Note_on_c, 11, 62, 0
11, 176323, Control_c, 11, 11, 82
11, 176339, Control_c, 11, 11, 83
11, 176343, Note_on_c, 11, 66, 110
11, 176355, Control_c, 11, 11, 84
11, 176371, Control_c, 11, 11, 85
11, 176373, Note_on_c, 11, 66, 0
11, 176387, Control_c, 11, 11, 86
11, 176403, Control_c, 11, 11, 87
11, 176403, Note_on_c, 11, 67, 110
11, 176419, Control_c, 11, 11, 88
11, 176433, Note_on_c, 11, 67, 0
11, 176435, Control_c, 11, 11, 89
11, 176451, Control_c, 11, 11, 90
11, 176463, Note_on_c, 11, 67, 110
11, 176467, Control_c, 11, 11, 91
11, 176483, Control_c, 11, 11, 92
11, 176499, Control_c, 11, 11, 93
11, 176515, Control_c, 11, 11, 94
11, 176523, Note_on_c, 11, 67, 0
11, 176523, Note_on_c, 11, 69, 110
11, 176531, Control_c, 11, 11, 95
11, 176547, Control_c, 11, 11, 96
11, 176563, Control_c, 11, 11, 97
11, 176579, Control_c, 11, 11, 98
11, 176583, Note_on_c, 11, 69, 0
11, 176583, Note_on_c, 11, 71, 110
11, 176595, Control_c, 11, 11, 99
11, 176611, Control_c, 11, 11, 100
11, 176627, Control_c, 11, 11, 101
11, 176633, Note_on_c, 11, 71, 0
11, 176643, Note_on_c, 11, 72, 110
11, 176643, Control_c, 11, 11, 102
11, 176703, Note_on_c, 11, 72, 0
11, 176883, Note_on_c, 11, 65, 110
11, 176893, Note_on_c, 11, 72, 110
11, 176893, Note_on_c, 11, 81, 110
11, 176943, Note_on_c, 11, 65, 0
11, 176953, Note_on_c, 11, 81, 0
11, 176953, Note_on_c, 11, 72, 0
11, 177123, Note_on_c, 11, 64, 110
11, 177133, Note_on_c, 11, 79, 110
11, 177133, Note_on_c, 11, 72, 110
11, 177183, Note_on_c, 11, 64, 0
11, 177193, Note_on_c, 11, 72, 0
11, 177193, Note_on_c, 11, 79, 0
11, 177363, Note_on_c, 11, 62, 110
11, 177373, Note_on_c, 11, 71, 110
11, 177373, Note_on_c, 11, 77, 110
11, 177423, Note_on_c, 11, 62, 0
11, 177433, Note_on_c, 11, 77, 0
11, 177433, Note_on_c, 11, 71, 0
11, 177603, Note_on_c, 11, 76, 110
11, 177603, Note_on_c, 11, 72, 110
11, 177663, Note_on_c, 11, 72, 0
11, 177663, Note_on_c, 11, 76, 0
11, 177843, Note_on_c, 11, 65, 110
11, 177853, Note_on_c, 11, 81, 110
11, 177853, Note_on_c, 11, 72, 110
11, 177903, Note_on_c, 11, 65, 0
11, 177913, Note_on_c, 11, 72, 0
11, 177913, Note_on_c, 11, 81, 0
11, 178083, Note_on_c, 11, 64, 110
11, 178093, Note_on_c, 11, 72, 110
11, 178093, Note_on_c, 11, 79, 110
11, 178143, Note_on_c, 11, 64, 0
11, 178153, Note_on_c, 11, 79, 0
11, 178153, Note_on_c, 11, 72, 0
11, 178323, Note_on_c, 11, 62, 110
11, 178333, Note_on_c, 11, 77, 110
11, 178333, Note_on_c, 11, 71, 110
11, 178383, Note_on_c, 11, 62, 0
11, 178393, Note_on_c, 11, 71, 0
11, 178393, Note_on_c, 11, 77, 0
11, 178563, Note_on_c, 11, 76, 110
11, 178563, Note_on_c, 11, 72, 110
11, 178623, Note_on_c, 11, 72, 0
11, 178623, Note_on_c, 11, 76, 0
11, 178803, Note_on_c, 11, 65, 110
11, 178813, Note_on_c, 11, 72, 110
11, 178813, Note_on_c, 11, 81, 110
11, 178863, Note_on_c, 11, 65, 0
11, 178873, Note_on_c, 11, 81, 0
11, 178873, Note_on_c, 11, 72, 0
11, 179043, Note_on_c, 11, 64, 110
11, 179053, Note_on_c, 11, 79, 110
11, 179053, Note_on_c, 11, 72, 110
11, 179103, Note_on_c, 11, 64, 0
11, 179113, Note_on_c, 11, 72, 0
11, 179113, Note_on_c, 11, 79, 0
11, 179283, Note_on_c, 11, 67, 110
11, 179293, Note_on_c, 11, 74, 110
11, 179293, Note_on_c, 11, 83, 110
11, 179343, Note_on_c, 11, 67, 0
11, 179353, Note_on_c, 11, 83, 0
11, 179353, Note_on_c, 11, 74, 0
11, 179523, Note_on_c, 11, 55, 100
11, 179523, Note_on_c, 11, 64, 100
11, 179543, Note_on_c, 11, 64, 0
11, 179543, Note_on_c, 11, 55, 0
11, 179553, Note_on_c, 11, 55, 100
11, 179553, Note_on_c, 11, 64, 100
11, 179573, Note_on_c, 11, 64, 0
11, 179573, Note_on_c, 11, 55, 0
11, 179583, Note_on_c, 11, 55, 100
11, 179583, Note_on_c, 11, 64, 100
11, 179603, Note_on_c, 11, 64, 0
11, 179603, Note_on_c, 11, 55, 0
11, 179613, Note_on_c, 11, 64, 100
11, 179613, Note_on_c, 11, 55, 100
11, 179633, Note_on_c, 11, 55, 0
11, 179633, Note_on_c, 11, 64, 0
11, 179643, Note_on_c, 11, 55, 100
11, 179643, Note_on_c, 11, 64, 100
11, 179663, Note_on_c, 11, 64, 0
11, 179663, Note_on_c, 11, 55, 0
11, 179673, Note_on_c, 11, 55, 100
11, 179673, Note_on_c, 11, 64, 100
11, 179693, Note_on_c, 11, 64, 0
11, 179693, Note_on_c, 11, 55, 0
11, 179703, Note_on_c, 11, 64, 100
11, 179703, Note_on_c, 11, 55, 100
11, 179723, Note_on_c, 11, 55, 0
11, 179723, Note_on_c, 11, 64, 0
11, 179733, Note_on_c, 11, 64, 100
11, 179733, Note_on_c, 11, 55, 100
11, 179753, Note_on_c, 11, 55, 0
11, 179753, Note_on_c, 11, 64, 0
11, 179763, Note_on_c, 11, 55, 100
11, 179763, Note_on_c, 11, 64, 100
11, 179783, Note_on_c, 11, 64, 0
11, 179783, Note_on_c, 11, 55, 0
11, 179793, Note_on_c, 11, 64, 100
11, 179793, Note_on_c, 11, 55, 100
11, 179813, Note_on_c, 11, 55, 0
11, 179813, Note_on_c, 11, 64, 0
11, 179823, Note_on_c, 11, 55, 100
11, 179823, Note_on_c, 11, 64, 100
11, 179843, Note_on_c, 11, 64, 0
11, 179843, Note_on_c, 11, 55, 0
11, 179853, Note_on_c, 11, 55, 100
11, 179853, Note_on_c, 11, 64, 100
11, 179873, Note_on_c, 11, 64, 0
11, 179873, Note_on_c, 11, 55, 0
11, 179883, Note_on_c, 11, 55, 100
11, 179883, Note_on_c, 11, 64, 100
11, 179903, Note_on_c, 11, 64, 0
11, 179903, Note_on_c, 11, 55, 0
11, 179913, Note_on_c, 11, 64, 100
11, 179913, Note_on_c, 11, 55, 100
11, 179933, Note_on_c, 11, 55, 0
11, 179933, Note_on_c, 11, 64, 0
11, 179943, Note_on_c, 11, 64, 100
11, 179943, Note_on_c, 11, 55, 100
11, 179963, Note_on_c, 11, 55, 0
11, 179963, Note_on_c, 11, 64, 0
11, 179973, Note_on_c, 11, 64, 100
11, 179973, Note_on_c, 11, 55, 100
11, 179993, Note_on_c, 11, 55, 0
11, 179993, Note_on_c, 11, 64, 0
11, 180003, Note_on_c, 11, 64, 100
11, 180003, Note_on_c, 11, 55, 100
11, 180023, Note_on_c, 11, 55, 0
11, 180023, Note_on_c, 11, 64, 0
11, 180033, Note_on_c, 11, 55, 100
11, 180033, Note_on_c, 11, 64, 100
11, 180053, Note_on_c, 11, 64, 0
11, 180053, Note_on_c, 11, 55, 0
11, 180063, Note_on_c, 11, 64, 100
11, 180063, Note_on_c, 11, 55, 100
11, 180083, Note_on_c, 11, 55, 0
11, 180083, Note_on_c, 11, 64, 0
11, 180093, Note_on_c, 11, 64, 100
11, 180093, Note_on_c, 11, 55, 100
11, 180113, Note_on_c, 11, 55, 0
11, 180113, Note_on_c, 11, 64, 0
11, 180123, Note_on_c, 11, 64, 100
11, 180123, Note_on_c, 11, 55, 100
11, 180143, Note_on_c, 11, 55, 0
11, 180143, Note_on_c, 11, 64, 0
11, 180153, Note_on_c, 11, 64, 100
11, 180153, Note_on_c, 11, 55, 100
11, 180173, Note_on_c, 11, 55, 0
11, 180173, Note_on_c, 11, 64, 0
11, 180183, Note_on_c, 11, 55, 100
11, 180183, Note_on_c, 11, 64, 100
11, 180203, Note_on_c, 11, 64, 0
11, 180203, Note_on_c, 11, 55, 0
11, 180213, Note_on_c, 11, 55, 100
11, 180213, Note_on_c, 11, 64, 100
11, 180233, Note_on_c, 11, 64, 0
11, 180233, Note_on_c, 11, 55, 0
11, 180243, Note_on_c, 11, 64, 100
11, 180243, Note_on_c, 11, 55, 100
11, 180263, Note_on_c, 11, 55, 0
11, 180263, Note_on_c, 11, 64, 0
11, 180273, Note_on_c, 11, 55, 100
11, 180273, Note_on_c, 11, 64, 100
11, 180293, Note_on_c, 11, 64, 0
11, 180293, Note_on_c, 11, 55, 0
11, 180303, Note_on_c, 11, 64, 100
11, 180303, Note_on_c, 11, 55, 100
11, 180323, Note_on_c, 11, 55, 0
11, 180323, Note_on_c, 11, 64, 0
11, 180333, Note_on_c, 11, 64, 100
11, 180333, Note_on_c, 11, 55, 100
11, 180353, Note_on_c, 11, 55, 0
11, 180353, Note_on_c, 11, 64, 0
11, 180363, Note_on_c, 11, 55, 100
11, 180363, Note_on_c, 11, 64, 100
11, 180383, Note_on_c, 11, 64, 0
11, 180383, Note_on_c, 11, 55, 0
11, 180393, Note_on_c, 11, 64, 100
11, 180393, Note_on_c, 11, 55, 100
11, 180413, Note_on_c, 11, 55, 0
11, 180413, Note_on_c, 11, 64, 0
11, 180423, Note_on_c, 11, 64, 100
11, 180423, Note_on_c, 11, 55, 100
11, 180443, Note_on_c, 11, 55, 0
11, 180443, Note_on_c, 11, 64, 0
11, 180453, Note_on_c, 11, 64, 100
11, 180453, Note_on_c, 11, 55, 100
11, 180473, Note_on_c, 11, 55, 0
11, 180473, Note_on_c, 11, 64, 0
11, 180483, Note_on_c, 11, 64, 100
11, 180483, Note_on_c, 11, 55, 100
11, 180503, Note_on_c, 11, 55, 0
11, 180503, Note_on_c, 11, 64, 0
11, 180513, Note_on_c, 11, 55, 100
11, 180513, Note_on_c, 11, 64, 100
11, 180533, Note_on_c, 11, 64, 0
11, 180533, Note_on_c, 11, 55, 0
11, 180543, Note_on_c, 11, 64, 100
11, 180543, Note_on_c, 11, 55, 100
11, 180563, Note_on_c, 11, 55, 0
11, 180563, Note_on_c, 11, 64, 0
11, 180573, Note_on_c, 11, 64, 100
11, 180573, Note_on_c, 11, 55, 100
11, 180593, Note_on_c, 11, 55, 0
11, 180593, Note_on_c, 11, 64, 0
11, 180603, Note_on_c, 11, 64, 100
11, 180603, Note_on_c, 11, 55, 100
11, 180623, Note_on_c, 11, 55, 0
11, 180623, Note_on_c, 11, 64, 0
11, 180633, Note_on_c, 11, 64, 100
11, 180633, Note_on_c, 11, 55, 100
11, 180653, Note_on_c, 11, 55, 0
11, 180653, Note_on_c, 11, 64, 0
11, 180663, Note_on_c, 11, 55, 100
11, 180663, Note_on_c, 11, 64, 100
11, 180683, Note_on_c, 11, 64, 0
11, 180683, Note_on_c, 11, 55, 0
11, 180693, Note_on_c, 11, 64, 100
11, 180693, Note_on_c, 11, 55, 100
11, 180713, Note_on_c, 11, 55, 0
11, 180713, Note_on_c, 11, 64, 0
11, 180723, Note_on_c, 11, 55, 100
11, 180723, Note_on_c, 11, 64, 100
11, 180743, Note_on_c, 11, 64, 0
11, 180743, Note_on_c, 11, 55, 0
11, 180753, Note_on_c, 11, 64, 100
11, 180753, Note_on_c, 11, 55, 100
11, 180773, Note_on_c, 11, 55, 0
11, 180773, Note_on_c, 11, 64, 0
11, 180783, Note_on_c, 11, 55, 100
11, 180783, Note_on_c, 11, 64, 100
11, 180803, Note_on_c, 11, 64, 0
11, 180803, Note_on_c, 11, 55, 0
11, 180813, Note_on_c, 11, 55, 100
11, 180813, Note_on_c, 11, 64, 100
11, 180833, Note_on_c, 11, 64, 0
11, 180833, Note_on_c, 11, 55, 0
11, 180843, Note_on_c, 11, 64, 100
11, 180843, Note_on_c, 11, 55, 100
11, 180863, Note_on_c, 11, 55, 0
11, 180863, Note_on_c, 11, 64, 0
11, 180873, Note_on_c, 11, 64, 100
11, 180873, Note_on_c, 11, 55, 100
11, 180893, Note_on_c, 11, 55, 0
11, 180893, Note_on_c, 11, 64, 0
11, 180903, Note_on_c, 11, 55, 100
11, 180903, Note_on_c, 11, 64, 100
11, 180923, Note_on_c, 11, 64, 0
11, 180923, Note_on_c, 11, 55, 0
11, 180933, Note_on_c, 11, 55, 100
11, 180933, Note_on_c, 11, 64, 100
11, 180953, Note_on_c, 11, 64, 0
11, 180953, Note_on_c, 11, 55, 0
11, 180963, Note_on_c, 11, 55, 100
11, 180963, Note_on_c, 11, 64, 100
11, 180983, Note_on_c, 11, 64, 0
11, 180983, Note_on_c, 11, 55, 0
11, 180993, Note_on_c, 11, 64, 100
11, 180993, Note_on_c, 11, 55, 100
11, 181013, Note_on_c, 11, 55, 0
11, 181013, Note_on_c, 11, 64, 0
11, 181023, Note_on_c, 11, 55, 100
11, 181023, Note_on_c, 11, 64, 100
11, 181043, Note_on_c, 11, 64, 0
11, 181043, Note_on_c, 11, 55, 0
11, 181053, Note_on_c, 11, 64, 100
11, 181053, Note_on_c, 11, 55, 100
11, 181073, Note_on_c, 11, 55, 0
11, 181073, Note_on_c, 11, 64, 0
11, 181083, Note_on_c, 11, 64, 100
11, 181083, Note_on_c, 11, 55, 100
11, 181103, Note_on_c, 11, 55, 0
11, 181103, Note_on_c, 11, 64, 0
11, 181113, Note_on_c, 11, 55, 100
11, 181113, Note_on_c, 11, 64, 100
11, 181133, Note_on_c, 11, 64, 0
11, 181133, Note_on_c, 11, 55, 0
11, 181143, Note_on_c, 11, 55, 100
11, 181143, Note_on_c, 11, 64, 100
11, 181163, Note_on_c, 11, 64, 0
11, 181163, Note_on_c, 11, 55, 0
11, 181173, Note_on_c, 11, 64, 100
11, 181173, Note_on_c, 11, 55, 100
11, 181193, Note_on_c, 11, 55, 0
11, 181193, Note_on_c, 11, 64, 0
11, 181203, Note_on_c, 11, 64, 100
11, 181203, Note_on_c, 11, 55, 100
11, 181223, Note_on_c, 11, 55, 0
11, 181223, Note_on_c, 11, 64, 0
11, 181233, Note_on_c, 11, 64, 100
11, 181233, Note_on_c, 11, 55, 100
11, 181253, Note_on_c, 11, 55, 0
11, 181253, Note_on_c, 11, 64, 0
11, 181263, Note_on_c, 11, 64, 100
11, 181263, Note_on_c, 11, 55, 100
11, 181283, Note_on_c, 11, 55, 0
11, 181283, Note_on_c, 11, 64, 0
11, 181293, Note_on_c, 11, 55, 100
11, 181293, Note_on_c, 11, 64, 100
11, 181313, Note_on_c, 11, 64, 0
11, 181313, Note_on_c, 11, 55, 0
11, 181323, Note_on_c, 11, 55, 100
11, 181323, Note_on_c, 11, 64, 100
11, 181343, Note_on_c, 11, 64, 0
11, 181343, Note_on_c, 11, 55, 0
11, 181353, Note_on_c, 11, 55, 100
11, 181353, Note_on_c, 11, 64, 100
11, 181373, Note_on_c, 11, 64, 0
11, 181373, Note_on_c, 11, 55, 0
11, 181383, Note_on_c, 11, 55, 100
11, 181383, Note_on_c, 11, 64, 100
11, 181403, Note_on_c, 11, 64, 0
11, 181403, Note_on_c, 11, 55, 0
11, 181413, Note_on_c, 11, 64, 100
11, 181413, Note_on_c, 11, 55, 100
11, 181433, Note_on_c, 11, 55, 0
11, 181433, Note_on_c, 11, 64, 0
11, 181443, Note_on_c, 11, 55, 100
11, 181443, Control_c, 11, 11, 122
11, 181443, Note_on_c, 11, 64, 100
11, 181461, Control_c, 11, 11, 119
11, 181463, Note_on_c, 11, 64, 0
11, 181463, Note_on_c, 11, 55, 0
11, 181473, Note_on_c, 11, 64, 100
11, 181473, Note_on_c, 11, 55, 100
11, 181479, Control_c, 11, 11, 116
11, 181493, Note_on_c, 11, 55, 0
11, 181493, Note_on_c, 11, 64, 0
11, 181497, Control_c, 11, 11, 113
11, 181503, Note_on_c, 11, 55, 100
11, 181503, Note_on_c, 11, 64, 100
11, 181515, Control_c, 11, 11, 110
11, 181523, Note_on_c, 11, 64, 0
11, 181523, Note_on_c, 11, 55, 0
11, 181533, Control_c, 11, 11, 107
11, 181533, Note_on_c, 11, 64, 100
11, 181533, Note_on_c, 11, 55, 100
11, 181551, Control_c, 11, 11, 104
11, 181553, Note_on_c, 11, 55, 0
11, 181553, Note_on_c, 11, 64, 0
11, 181563, Note_on_c, 11, 55, 100
11, 181563, Note_on_c, 11, 64, 100
11, 181583, Note_on_c, 11, 64, 0
11, 181583, Note_on_c, 11, 55, 0
11, 181593, Note_on_c, 11, 64, 100
11, 181593, Note_on_c, 11, 55, 100
11, 181613, Note_on_c, 11, 55, 0
11, 181613, Note_on_c, 11, 64, 0
11, 181623, Note_on_c, 11, 64, 100
11, 181623, Note_on_c, 11, 55, 100
11, 181643, Note_on_c, 11, 55, 0
11, 181643, Note_on_c, 11, 64, 0
11, 181653, Note_on_c, 11, 55, 100
11, 181653, Note_on_c, 11, 64, 100
11, 181673, Note_on_c, 11, 64, 0
11, 181673, Note_on_c, 11, 55, 0
11, 181683, Note_on_c, 11, 55, 100
11, 181683, Note_on_c, 11, 64, 100
11, 181703, Note_on_c, 11, 64, 0
11, 181703, Note_on_c, 11, 55, 0
11, 181713, Note_on_c, 11, 64, 100
11, 181713, Note_on_c, 11, 55, 100
11, 181733, Note_on_c, 11, 55, 0
11, 181733, Note_on_c, 11, 64, 0
11, 181743, Note_on_c, 11, 64, 100
11, 181743, Note_on_c, 11, 55, 100
11, 181763, Note_on_c, 11, 55, 0
11, 181763, Note_on_c, 11, 64, 0
11, 181773, Note_on_c, 11, 64, 100
11, 181773, Note_on_c, 11, 55, 100
11, 181793, Note_on_c, 11, 55, 0
11, 181793, Note_on_c, 11, 64, 0
11, 181803, Note_on_c, 11, 55, 100
11, 181803, Note_on_c, 11, 64, 100
11, 181823, Note_on_c, 11, 64, 0
11, 181823, Note_on_c, 11, 55, 0
11, 181833, Note_on_c, 11, 55, 100
11, 181833, Note_on_c, 11, 64, 100
11, 181853, Note_on_c, 11, 64, 0
11, 181853, Note_on_c, 11, 55, 0
11, 181863, Note_on_c, 11, 64, 100
11, 181863, Note_on_c, 11, 55, 100
11, 181883, Note_on_c, 11, 55, 0
11, 181883, Note_on_c, 11, 64, 0
11, 181893, Note_on_c, 11, 64, 100
11, 181893, Note_on_c, 11, 55, 100
11, 181913, Note_on_c, 11, 55, 0
11, 181913, Note_on_c, 11, 64, 0
11, 181923, Note_on_c, 11, 55, 100
11, 181923, Note_on_c, 11, 64, 100
11, 181943, Note_on_c, 11, 64, 0
11, 181943, Note_on_c, 11, 55, 0
11, 181953, Note_on_c, 11, 64, 100
11, 181953, Note_on_c, 11, 55, 100
11, 181973, Note_on_c, 11, 55, 0
11, 181973, Note_on_c, 11, 64, 0
11, 181983, Note_on_c, 11, 64, 100
11, 181983, Note_on_c, 11, 55, 100
11, 182003, Note_on_c, 11, 55, 0
11, 182003, Note_on_c, 11, 64, 0
11, 182013, Note_on_c, 11, 64, 100
11, 182013, Note_on_c, 11, 55, 100
11, 182033, Note_on_c, 11, 55, 0
11, 182033, Note_on_c, 11, 64, 0
11, 182043, Note_on_c, 11, 64, 100
11, 182043, Note_on_c, 11, 55, 100
11, 182063, Note_on_c, 11, 55, 0
11, 182063, Note_on_c, 11, 64, 0
11, 182073, Note_on_c, 11, 55, 100
11, 182073, Note_on_c, 11, 64, 100
11, 182093, Note_on_c, 11, 64, 0
11, 182093, Note_on_c, 11, 55, 0
11, 182103, Note_on_c, 11, 64, 100
11, 182103, Note_on_c, 11, 55, 100
11, 182123, Note_on_c, 11, 55, 0
11, 182123, Note_on_c, 11, 64, 0
11, 182133, Note_on_c, 11, 55, 100
11, 182133, Note_on_c, 11, 64, 100
11, 182153, Note_on_c, 11, 64, 0
11, 182153, Note_on_c, 11, 55, 0
11, 182163, Note_on_c, 11, 55, 100
11, 182163, Note_on_c, 11, 64, 100
11, 182183, Note_on_c, 11, 64, 0
11, 182183, Note_on_c, 11, 55, 0
11, 182193, Note_on_c, 11, 64, 100
11, 182193, Note_on_c, 11, 55, 100
11, 182213, Note_on_c, 11, 55, 0
11, 182213, Note_on_c, 11, 64, 0
11, 182223, Note_on_c, 11, 64, 100
11, 182223, Note_on_c, 11, 55, 100
11, 182243, Note_on_c, 11, 55, 0
11, 182243, Note_on_c, 11, 64, 0
11, 182253, Note_on_c, 11, 55, 100
11, 182253, Note_on_c, 11, 64, 100
11, 182273, Note_on_c, 11, 64, 0
11, 182273, Note_on_c, 11, 55, 0
11, 182283, Note_on_c, 11, 64, 100
11, 182283, Note_on_c, 11, 55, 100
11, 182303, Note_on_c, 11, 55, 0
11, 182303, Note_on_c, 11, 64, 0
11, 182313, Note_on_c, 11, 55, 100
11, 182313, Note_on_c, 11, 64, 100
11, 182333, Note_on_c, 11, 64, 0
11, 182333, Note_on_c, 11, 55, 0
11, 182343, Note_on_c, 11, 64, 100
11, 182343, Note_on_c, 11, 55, 100
11, 182363, Note_on_c, 11, 55, 0
11, 182363, Note_on_c, 11, 64, 0
11, 182373, Note_on_c, 11, 64, 100
11, 182373, Note_on_c, 11, 55, 100
11, 182393, Note_on_c, 11, 55, 0
11, 182393, Note_on_c, 11, 64, 0
11, 182403, Note_on_c, 11, 64, 100
11, 182403, Note_on_c, 11, 55, 100
11, 182423, Note_on_c, 11, 55, 0
11, 182423, Note_on_c, 11, 64, 0
11, 182433, Note_on_c, 11, 64, 100
11, 182433, Note_on_c, 11, 55, 100
11, 182453, Note_on_c, 11, 55, 0
11, 182453, Note_on_c, 11, 64, 0
11, 182463, Note_on_c, 11, 55, 100
11, 182463, Note_on_c, 11, 64, 100
11, 182483, Note_on_c, 11, 64, 0
11, 182483, Note_on_c, 11, 55, 0
11, 182493, Note_on_c, 11, 55, 100
11, 182493, Note_on_c, 11, 64, 100
11, 182513, Note_on_c, 11, 64, 0
11, 182513, Note_on_c, 11, 55, 0
11, 182523, Note_on_c, 11, 55, 100
11, 182523, Note_on_c, 11, 64, 100
11, 182543, Note_on_c, 11, 64, 0
11, 182543, Note_on_c, 11, 55, 0
11, 182553, Note_on_c, 11, 55, 100
11, 182553, Note_on_c, 11, 64, 100
11, 182573, Note_on_c, 11, 64, 0
11, 182573, Note_on_c, 11, 55, 0
11, 182583, Note_on_c, 11, 55, 100
11, 182583, Note_on_c, 11, 64, 100
11, 182603, Note_on_c, 11, 64, 0
11, 182603, Note_on_c, 11, 55, 0
11, 182613, Note_on_c, 11, 64, 100
11, 182613, Note_on_c, 11, 55, 100
11, 182633, Note_on_c, 11, 55, 0
11, 182633, Note_on_c, 11, 64, 0
11, 182643, Note_on_c, 11, 55, 100
11, 182643, Note_on_c, 11, 64, 100
11, 182663, Note_on_c, 11, 64, 0
11, 182663, Note_on_c, 11, 55, 0
11, 182673, Note_on_c, 11, 55, 100
11, 182673, Note_on_c, 11, 64, 100
11, 182693, Note_on_c, 11, 64, 0
11, 182693, Note_on_c, 11, 55, 0
11, 182703, Note_on_c, 11, 64, 100
11, 182703, Note_on_c, 11, 55, 100
11, 182723, Note_on_c, 11, 55, 0
11, 182723, Note_on_c, 11, 64, 0
11, 182733, Note_on_c, 11, 64, 100
11, 182733, Note_on_c, 11, 55, 100
11, 182753, Note_on_c, 11, 55, 0
11, 182753, Note_on_c, 11, 64, 0
11, 182763, Note_on_c, 11, 55, 100
11, 182763, Note_on_c, 11, 64, 100
11, 182783, Note_on_c, 11, 64, 0
11, 182783, Note_on_c, 11, 55, 0
11, 182793, Note_on_c, 11, 64, 100
11, 182793, Note_on_c, 11, 55, 100
11, 182813, Note_on_c, 11, 55, 0
11, 182813, Note_on_c, 11, 64, 0
11, 182823, Note_on_c, 11, 55, 100
11, 182823, Note_on_c, 11, 64, 100
11, 182843, Note_on_c, 11, 64, 0
11, 182843, Note_on_c, 11, 55, 0
11, 182853, Note_on_c, 11, 55, 100
11, 182853, Note_on_c, 11, 64, 100
11, 182873, Note_on_c, 11, 64, 0
11, 182873, Note_on_c, 11, 55, 0
11, 182883, Note_on_c, 11, 55, 100
11, 182883, Note_on_c, 11, 64, 100
11, 182903, Note_on_c, 11, 64, 0
11, 182903, Note_on_c, 11, 55, 0
11, 182913, Note_on_c, 11, 55, 100
11, 182913, Note_on_c, 11, 64, 100
11, 182933, Note_on_c, 11, 64, 0
11, 182933, Note_on_c, 11, 55, 0
11, 182943, Note_on_c, 11, 64, 100
11, 182943, Note_on_c, 11, 55, 100
11, 182963, Note_on_c, 11, 55, 0
11, 182963, Note_on_c, 11, 64, 0
11, 182973, Note_on_c, 11, 55, 100
11, 182973, Note_on_c, 11, 64, 100
11, 182993, Note_on_c, 11, 64, 0
11, 182993, Note_on_c, 11, 55, 0
11, 183003, Note_on_c, 11, 64, 100
11, 183003, Note_on_c, 11, 55, 100
11, 183023, Note_on_c, 11, 55, 0
11, 183023, Note_on_c, 11, 64, 0
11, 183033, Note_on_c, 11, 64, 100
11, 183033, Note_on_c, 11, 55, 100
11, 183053, Note_on_c, 11, 55, 0
11, 183053, Note_on_c, 11, 64, 0
11, 183063, Note_on_c, 11, 64, 100
11, 183063, Note_on_c, 11, 55, 100
11, 183083, Note_on_c, 11, 55, 0
11, 183083, Note_on_c, 11, 64, 0
11, 183093, Note_on_c, 11, 64, 100
11, 183093, Note_on_c, 11, 55, 100
11, 183113, Note_on_c, 11, 55, 0
11, 183113, Note_on_c, 11, 64, 0
11, 183123, Note_on_c, 11, 64, 100
11, 183123, Note_on_c, 11, 55, 100
11, 183143, Note_on_c, 11, 55, 0
11, 183143, Note_on_c, 11, 64, 0
11, 183153, Note_on_c, 11, 64, 100
11, 183153, Note_on_c, 11, 55, 100
11, 183173, Note_on_c, 11, 55, 0
11, 183173, Note_on_c, 11, 64, 0
11, 183183, Note_on_c, 11, 55, 100
11, 183183, Note_on_c, 11, 64, 100
11, 183203, Note_on_c, 11, 64, 0
11, 183203, Note_on_c, 11, 55, 0
11, 183213, Note_on_c, 11, 64, 100
11, 183213, Note_on_c, 11, 55, 100
11, 183233, Note_on_c, 11, 55, 0
11, 183233, Note_on_c, 11, 64, 0
11, 183243, Note_on_c, 11, 64, 100
11, 183243, Note_on_c, 11, 55, 100
11, 183263, Note_on_c, 11, 55, 0
11, 183263, Note_on_c, 11, 64, 0
11, 183273, Note_on_c, 11, 64, 100
11, 183273, Note_on_c, 11, 55, 100
11, 183293, Note_on_c, 11, 55, 0
11, 183293, Note_on_c, 11, 64, 0
11, 183303, Note_on_c, 11, 64, 100
11, 183303, Note_on_c, 11, 55, 100
11, 183323, Note_on_c, 11, 55, 0
11, 183323, Note_on_c, 11, 64, 0
11, 183333, Note_on_c, 11, 64, 100
11, 183333, Note_on_c, 11, 55, 100
11, 183353, Note_on_c, 11, 55, 0
11, 183353, Note_on_c, 11, 64, 0
11, 183363, Control_c, 11, 11, 122
11, 183363, Note_on_c, 11, 55, 100
11, 183363, Note_on_c, 11, 64, 100
11, 183381, Control_c, 11, 11, 119
11, 183383, Note_on_c, 11, 64, 0
11, 183383, Note_on_c, 11, 55, 0
11, 183393, Note_on_c, 11, 64, 100
11, 183393, Note_on_c, 11, 55, 100
11, 183399, Control_c, 11, 11, 116
11, 183413, Note_on_c, 11, 55, 0
11, 183413, Note_on_c, 11, 64, 0
11, 183417, Control_c, 11, 11, 113
11, 183423, Note_on_c, 11, 64, 100
11, 183423, Note_on_c, 11, 55, 100
11, 183435, Control_c, 11, 11, 110
11, 183443, Note_on_c, 11, 55, 0
11, 183443, Note_on_c, 11, 64, 0
11, 183453, Note_on_c, 11, 55, 100
11, 183453, Control_c, 11, 11, 107
11, 183453, Note_on_c, 11, 64, 100
11, 183471, Control_c, 11, 11, 104
11, 183473, Note_on_c, 11, 64, 0
11, 183473, Note_on_c, 11, 55, 0
11, 183483, Note_on_c, 11, 64, 100
11, 183483, Note_on_c, 11, 55, 100
11, 183503, Note_on_c, 11, 55, 0
11, 183503, Note_on_c, 11, 64, 0
11, 183513, Note_on_c, 11, 55, 100
11, 183513, Note_on_c, 11, 64, 100
11, 183533, Note_on_c, 11, 64, 0
11, 183533, Note_on_c, 11, 55, 0
11, 183543, Note_on_c, 11, 64, 100
11, 183543, Note_on_c, 11, 55, 100
11, 183563, Note_on_c, 11, 55, 0
11, 183563, Note_on_c, 11, 64, 0
11, 183573, Note_on_c, 11, 64, 100
11, 183573, Note_on_c, 11, 55, 100
11, 183593, Note_on_c, 11, 55, 0
11, 183593, Note_on_c, 11, 64, 0
11, 183603, Note_on_c, 11, 64, 100
11, 183603, Note_on_c, 11, 55, 100
11, 183623, Note_on_c, 11, 55, 0
11, 183623, Note_on_c, 11, 64, 0
11, 183633, Note_on_c, 11, 55, 100
11, 183633, Note_on_c, 11, 64, 100
11, 183653, Note_on_c, 11, 64, 0
11, 183653, Note_on_c, 11, 55, 0
11, 183663, Note_on_c, 11, 55, 100
11, 183663, Note_on_c, 11, 64, 100
11, 183683, Note_on_c, 11, 64, 0
11, 183683, Note_on_c, 11, 55, 0
11, 183693, Note_on_c, 11, 64, 100
11, 183693, Note_on_c, 11, 55, 100
11, 183713, Note_on_c, 11, 55, 0
11, 183713, Note_on_c, 11, 64, 0
11, 183723, Note_on_c, 11, 55, 100
11, 183723, Note_on_c, 11, 64, 100
11, 183743, Note_on_c, 11, 64, 0
11, 183743, Note_on_c, 11, 55, 0
11, 183753, Note_on_c, 11, 64, 100
11, 183753, Note_on_c, 11, 55, 100
11, 183773, Note_on_c, 11, 55, 0
11, 183773, Note_on_c, 11, 64, 0
11, 183783, Note_on_c, 11, 55, 100
11, 183783, Note_on_c, 11, 64, 100
11, 183803, Note_on_c, 11, 64, 0
11, 183803, Note_on_c, 11, 55, 0
11, 183813, Note_on_c, 11, 64, 100
11, 183813, Note_on_c, 11, 55, 100
11, 183833, Note_on_c, 11, 55, 0
11, 183833, Note_on_c, 11, 64, 0
11, 183843, Note_on_c, 11, 55, 100
11, 183843, Note_on_c, 11, 64, 100
11, 183863, Note_on_c, 11, 64, 0
11, 183863, Note_on_c, 11, 55, 0
11, 183873, Note_on_c, 11, 64, 100
11, 183873, Note_on_c, 11, 55, 100
11, 183893, Note_on_c, 11, 55, 0
11, 183893, Note_on_c, 11, 64, 0
11, 183903, Note_on_c, 11, 55, 100
11, 183903, Note_on_c, 11, 64, 100
11, 183923, Note_on_c, 11, 64, 0
11, 183923, Note_on_c, 11, 55, 0
11, 183933, Note_on_c, 11, 64, 100
11, 183933, Note_on_c, 11, 55, 100
11, 183953, Note_on_c, 11, 55, 0
11, 183953, Note_on_c, 11, 64, 0
11, 183963, Note_on_c, 11, 55, 100
11, 183963, Note_on_c, 11, 64, 100
11, 183983, Note_on_c, 11, 64, 0
11, 183983, Note_on_c, 11, 55, 0
11, 183993, Note_on_c, 11, 64, 100
11, 183993, Note_on_c, 11, 55, 100
11, 184013, Note_on_c, 11, 55, 0
11, 184013, Note_on_c, 11, 64, 0
11, 184023, Note_on_c, 11, 55, 100
11, 184023, Note_on_c, 11, 64, 100
11, 184043, Note_on_c, 11, 64, 0
11, 184043, Note_on_c, 11, 55, 0
11, 184053, Note_on_c, 11, 64, 100
11, 184053, Note_on_c, 11, 55, 100
11, 184073, Note_on_c, 11, 55, 0
11, 184073, Note_on_c, 11, 64, 0
11, 184083, Note_on_c, 11, 55, 100
11, 184083, Note_on_c, 11, 64, 100
11, 184103, Note_on_c, 11, 64, 0
11, 184103, Note_on_c, 11, 55, 0
11, 184113, Note_on_c, 11, 55, 100
11, 184113, Note_on_c, 11, 64, 100
11, 184133, Note_on_c, 11, 64, 0
11, 184133, Note_on_c, 11, 55, 0
11, 184143, Note_on_c, 11, 55, 100
11, 184143, Note_on_c, 11, 64, 100
11, 184163, Note_on_c, 11, 64, 0
11, 184163, Note_on_c, 11, 55, 0
11, 184173, Note_on_c, 11, 55, 100
11, 184173, Note_on_c, 11, 64, 100
11, 184193, Note_on_c, 11, 64, 0
11, 184193, Note_on_c, 11, 55, 0
11, 184203, Note_on_c, 11, 64, 100
11, 184203, Note_on_c, 11, 55, 100
11, 184223, Note_on_c, 11, 55, 0
11, 184223, Note_on_c, 11, 64, 0
11, 184233, Note_on_c, 11, 55, 100
11, 184233, Note_on_c, 11, 64, 100
11, 184253, Note_on_c, 11, 64, 0
11, 184253, Note_on_c, 11, 55, 0
11, 184263, Note_on_c, 11, 64, 100
11, 184263, Note_on_c, 11, 55, 100
11, 184283, Note_on_c, 11, 55, 0
11, 184283, Note_on_c, 11, 64, 0
11, 184293, Note_on_c, 11, 64, 100
11, 184293, Note_on_c, 11, 55, 100
11, 184313, Note_on_c, 11, 55, 0
11, 184313, Note_on_c, 11, 64, 0
11, 184323, Note_on_c, 11, 55, 100
11, 184323, Note_on_c, 11, 64, 100
11, 184343, Note_on_c, 11, 64, 0
11, 184343, Note_on_c, 11, 55, 0
11, 184353, Note_on_c, 11, 64, 100
11, 184353, Note_on_c, 11, 55, 100
11, 184373, Note_on_c, 11, 55, 0
11, 184373, Note_on_c, 11, 64, 0
11, 184383, Note_on_c, 11, 64, 100
11, 184383, Note_on_c, 11, 55, 100
11, 184403, Note_on_c, 11, 55, 0
11, 184403, Note_on_c, 11, 64, 0
11, 184413, Note_on_c, 11, 64, 100
11, 184413, Note_on_c, 11, 55, 100
11, 184433, Note_on_c, 11, 55, 0
11, 184433, Note_on_c, 11, 64, 0
11, 184443, Note_on_c, 11, 64, 100
11, 184443, Note_on_c, 11, 55, 100
11, 184463, Note_on_c, 11, 55, 0
11, 184463, Note_on_c, 11, 64, 0
11, 184473, Note_on_c, 11, 64, 100
11, 184473, Note_on_c, 11, 55, 100
11, 184493, Note_on_c, 11, 55, 0
11, 184493, Note_on_c, 11, 64, 0
11, 184503, Note_on_c, 11, 64, 100
11, 184503, Note_on_c, 11, 55, 100
11, 184523, Note_on_c, 11, 55, 0
11, 184523, Note_on_c, 11, 64, 0
11, 184533, Note_on_c, 11, 55, 100
11, 184533, Note_on_c, 11, 64, 100
11, 184553, Note_on_c, 11, 64, 0
11, 184553, Note_on_c, 11, 55, 0
11, 184563, Note_on_c, 11, 55, 100
11, 184563, Note_on_c, 11, 64, 100
11, 184583, Note_on_c, 11, 64, 0
11, 184583, Note_on_c, 11, 55, 0
11, 184593, Note_on_c, 11, 55, 100
11, 184593, Note_on_c, 11, 64, 100
11, 184613, Note_on_c, 11, 64, 0
11, 184613, Note_on_c, 11, 55, 0
11, 184623, Note_on_c, 11, 64, 100
11, 184623, Note_on_c, 11, 55, 100
11, 184643, Note_on_c, 11, 55, 0
11, 184643, Note_on_c, 11, 64, 0
11, 184653, Note_on_c, 11, 55, 100
11, 184653, Note_on_c, 11, 64, 100
11, 184673, Note_on_c, 11, 64, 0
11, 184673, Note_on_c, 11, 55, 0
11, 184683, Note_on_c, 11, 64, 100
11, 184683, Note_on_c, 11, 55, 100
11, 184703, Note_on_c, 11, 55, 0
11, 184703, Note_on_c, 11, 64, 0
11, 184713, Note_on_c, 11, 55, 100
11, 184713, Note_on_c, 11, 64, 100
11, 184733, Note_on_c, 11, 64, 0
11, 184733, Note_on_c, 11, 55, 0
11, 184743, Note_on_c, 11, 64, 100
11, 184743, Note_on_c, 11, 55, 100
11, 184763, Note_on_c, 11, 55, 0
11, 184763, Note_on_c, 11, 64, 0
11, 184773, Note_on_c, 11, 55, 100
11, 184773, Note_on_c, 11, 64, 100
11, 184793, Note_on_c, 11, 64, 0
11, 184793, Note_on_c, 11, 55, 0
11, 184803, Note_on_c, 11, 64, 110
11, 184823, Note_on_c, 11, 64, 0
11, 184833, Note_on_c, 11, 64, 110
11, 184853, Note_on_c, 11, 64, 0
11, 184863, Note_on_c, 11, 64, 110
11, 184883, Note_on_c, 11, 64, 0
11, 184893, Note_on_c, 11, 64, 110
11, 184913, Note_on_c, 11, 64, 0
11, 184923, Note_on_c, 11, 67, 110
11, 184943, Note_on_c, 11, 67, 0
11, 184953, Note_on_c, 11, 67, 110
11, 184973, Note_on_c, 11, 67, 0
11, 184983, Note_on_c, 11, 67, 110
11, 185003, Note_on_c, 11, 67, 0
11, 185013, Note_on_c, 11, 67, 110
11, 185033, Note_on_c, 11, 67, 0
11, 185043, Note_on_c, 11, 72, 110
11, 185063, Note_on_c, 11, 72, 0
11, 185073, Note_on_c, 11, 72, 110
11, 185093, Note_on_c, 11, 72, 0
11, 185103, Note_on_c, 11, 72, 110
11, 185123, Note_on_c, 11, 72, 0
11, 185133, Note_on_c, 11, 72, 110
11, 185153, Note_on_c, 11, 72, 0
11, 185163, Note_on_c, 11, 76, 110
11, 185183, Note_on_c, 11, 76, 0
11, 185193, Note_on_c, 11, 76, 110
11, 185213, Note_on_c, 11, 76, 0
11, 185223, Note_on_c, 11, 76, 110
11, 185243, Note_on_c, 11, 76, 0
11, 185253, Note_on_c, 11, 76, 110
11, 185273, Note_on_c, 11, 76, 0
11, 185283, Note_on_c, 11, 79, 110
11, 185303, Note_on_c, 11, 79, 0
11, 185313, Note_on_c, 11, 79, 110
11, 185333, Note_on_c, 11, 79, 0
11, 185343, Note_on_c, 11, 79, 110
11, 185363, Note_on_c, 11, 79, 0
11, 185373, Note_on_c, 11, 79, 110
11, 185393, Note_on_c, 11, 79, 0
11, 185403, Note_on_c, 11, 76, 110
11, 185423, Note_on_c, 11, 76, 0
11, 185433, Note_on_c, 11, 76, 110
11, 185453, Note_on_c, 11, 76, 0
11, 185463, Note_on_c, 11, 76, 110
11, 185483, Note_on_c, 11, 76, 0
11, 185493, Note_on_c, 11, 76, 110
11, 185513, Note_on_c, 11, 76, 0
11, 185523, Note_on_c, 11, 72, 110
11, 185543, Note_on_c, 11, 72, 0
11, 185553, Note_on_c, 11, 72, 110
11, 185573, Note_on_c, 11, 72, 0
11, 185583, Note_on_c, 11, 72, 110
11, 185603, Note_on_c, 11, 72, 0
11, 185613, Note_on_c, 11, 72, 110
11, 185633, Note_on_c, 11, 72, 0
11, 185643, Note_on_c, 11, 67, 110
11, 185663, Note_on_c, 11, 67, 0
11, 185673, Note_on_c, 11, 67, 110
11, 185693, Note_on_c, 11, 67, 0
11, 185703, Note_on_c, 11, 67, 110
11, 185723, Note_on_c, 11, 67, 0
11, 185733, Note_on_c, 11, 67, 110
11, 185753, Note_on_c, 11, 67, 0
11, 185763, Note_on_c, 11, 76, 110
11, 185783, Note_on_c, 11, 76, 0
11, 185793, Note_on_c, 11, 76, 110
11, 185813, Note_on_c, 11, 76, 0
11, 185823, Note_on_c, 11, 76, 110
11, 185843, Note_on_c, 11, 76, 0
11, 185853, Note_on_c, 11, 76, 110
11, 185873, Note_on_c, 11, 76, 0
11, 185883, Note_on_c, 11, 72, 110
11, 185903, Note_on_c, 11, 72, 0
11, 185913, Note_on_c, 11, 72, 110
11, 185933, Note_on_c, 11, 72, 0
11, 185943, Note_on_c, 11, 72, 110
11, 185963, Note_on_c, 11, 72, 0
11, 185973, Note_on_c, 11, 72, 110
11, 185993, Note_on_c, 11, 72, 0
11, 186003, Note_on_c, 11, 67, 110
11, 186023, Note_on_c, 11, 67, 0
11, 186033, Note_on_c, 11, 67, 110
11, 186053, Note_on_c, 11, 67, 0
11, 186063, Note_on_c, 11, 67, 110
11, 186083, Note_on_c, 11, 67, 0
11, 186093, Note_on_c, 11, 67, 110
11, 186113, Note_on_c, 11, 67, 0
11, 186123, Note_on_c, 11, 64, 110
11, 186143, Note_on_c, 11, 64, 0
11, 186153, Note_on_c, 11, 64, 110
11, 186173, Note_on_c, 11, 64, 0
11, 186183, Note_on_c, 11, 64, 110
11, 186203, Note_on_c, 11, 64, 0
11, 186213, Note_on_c, 11, 64, 110
11, 186233, Note_on_c, 11, 64, 0
11, 186243, Note_on_c, 11, 72, 110
11, 186263, Note_on_c, 11, 72, 0
11, 186273, Note_on_c, 11, 72, 110
11, 186293, Note_on_c, 11, 72, 0
11, 186303, Note_on_c, 11, 72, 110
11, 186323, Note_on_c, 11, 72, 0
11, 186333, Note_on_c, 11, 72, 110
11, 186353, Note_on_c, 11, 72, 0
11, 186363, Note_on_c, 11, 79, 110
11, 186383, Note_on_c, 11, 79, 0
11, 186393, Note_on_c, 11, 79, 110
11, 186413, Note_on_c, 11, 79, 0
11, 186423, Note_on_c, 11, 79, 110
11, 186443, Note_on_c, 11, 79, 0
11, 186453, Note_on_c, 11, 79, 110
11, 186473, Note_on_c, 11, 79, 0
11, 186483, Note_on_c, 11, 76, 110
11, 186503, Note_on_c, 11, 76, 0
11, 186513, Note_on_c, 11, 76, 110
11, 186533, Note_on_c, 11, 76, 0
11, 186543, Note_on_c, 11, 76, 110
11, 186563, Note_on_c, 11, 76, 0
11, 186573, Note_on_c, 11, 76, 110
11, 186593, Note_on_c, 11, 76, 0
11, 186603, Note_on_c, 11, 72, 110
11, 186623, Note_on_c, 11, 72, 0
11, 186633, Note_on_c, 11, 72, 110
11, 186653, Note_on_c, 11, 72, 0
11, 186663, Note_on_c, 11, 72, 110
11, 186683, Note_on_c, 11, 72, 0
11, 186693, Note_on_c, 11, 72, 110
11, 186713, Note_on_c, 11, 72, 0
11, 186723, Note_on_c, 11, 67, 110
11, 186743, Note_on_c, 11, 67, 0
11, 186753, Note_on_c, 11, 67, 110
11, 186773, Note_on_c, 11, 67, 0
11, 186783, Note_on_c, 11, 67, 110
11, 186803, Note_on_c, 11, 67, 0
11, 186813, Note_on_c, 11, 67, 110
11, 186833, Note_on_c, 11, 67, 0
11, 186843, Note_on_c, 11, 72, 110
11, 186863, Note_on_c, 11, 72, 0
11, 186873, Note_on_c, 11, 72, 110
11, 186893, Note_on_c, 11, 72, 0
11, 186903, Note_on_c, 11, 72, 110
11, 186923, Note_on_c, 11, 72, 0
11, 186933, Note_on_c, 11, 72, 110
11, 186953, Note_on_c, 11, 72, 0
11, 186963, Note_on_c, 11, 67, 110
11, 186983, Note_on_c, 11, 67, 0
11, 186993, Note_on_c, 11, 67, 110
11, 187013, Note_on_c, 11, 67, 0
11, 187023, Note_on_c, 11, 67, 110
11, 187043, Note_on_c, 11, 67, 0
11, 187053, Note_on_c, 11, 67, 110
11, 187073, Note_on_c, 11, 67, 0
11, 187083, Note_on_c, 11, 64, 110
11, 187103, Note_on_c, 11, 64, 0
11, 187113, Note_on_c, 11, 64, 110
11, 187133, Note_on_c, 11, 64, 0
11, 187143, Note_on_c, 11, 64, 110
11, 187163, Note_on_c, 11, 64, 0
11, 187173, Note_on_c, 11, 64, 110
11, 187193, Note_on_c, 11, 64, 0
11, 187203, Note_on_c, 11, 60, 125
11, 187323, Note_on_c, 11, 60, 0
11, 187683, Note_on_c, 11, 67, 110
11, 187693, Note_on_c, 11, 76, 110
11, 187693, Note_on_c, 11, 84, 110
11, 187803, Note_on_c, 11, 67, 0
11, 187813, Note_on_c, 11, 84, 0
11, 187813, Note_on_c, 11, 76, 0
11, 188163, Note_on_c, 11, 55, 110
11, 188173, Note_on_c, 11, 72, 110
11, 188173, Note_on_c, 11, 64, 110
11, 188283, Note_on_c, 11, 55, 0
11, 188293, Note_on_c, 11, 64, 0
11, 188293, Note_on_c, 11, 72, 0
11, 188643, Control_c, 11, 11, 112
11, 188643, Note_on_c, 11, 55, 110
11, 188653, Note_on_c, 11, 72, 110
11, 188653, Note_on_c, 11, 64, 110
11, 188655, Control_c, 11, 11, 109
11, 188667, Control_c, 11, 11, 106
11, 188679, Control_c, 11, 11, 103
11, 188763, Note_on_c, 11, 55, 0
11, 188773, Note_on_c, 11, 64, 0
11, 188773, Note_on_c, 11, 72, 0
11, 188883, Control_c, 11, 11, 112
11, 188883, Note_on_c, 11, 55, 110
11, 188893, Note_on_c, 11, 72, 110
11, 188893, Note_on_c, 11, 64, 110
11, 188895, Control_c, 11, 11, 109
11, 188907, Control_c, 11, 11, 106
11, 188919, Control_c, 11, 11, 103
11, 189003, Note_on_c, 11, 55, 0
11, 189013, Note_on_c, 11, 64, 0
11, 189013, Note_on_c, 11, 72, 0
11, 189123, Note_on_c, 11, 55, 110
11, 189123, Control_c, 11, 11, 112
11, 189133, Note_on_c, 11, 64, 110
11, 189133, Note_on_c, 11, 72, 110
11, 189135, Control_c, 11, 11, 109
11, 189147, Control_c, 11, 11, 106
11, 189159, Control_c, 11, 11, 103
11, 189223, Control_c, 11, 11, 102
11, 189225, Control_c, 11, 11, 98
11, 189227, Control_c, 11, 11, 94
11, 189229, Control_c, 11, 11, 90
11, 189231, Control_c, 11, 11, 87
11, 189233, Control_c, 11, 11, 83
11, 189235, Control_c, 11, 11, 79
11, 189237, Control_c, 11, 11, 76
11, 189239, Control_c, 11, 11, 72
11, 189241, Control_c, 11, 11, 68
11, 189243, Note_on_c, 11, 55, 0
11, 189253, Note_on_c, 11, 72, 0
11, 189253, Note_on_c, 11, 64, 0
11, 189603, Control_c, 11, 121, 0
11, 189603, End_track
12, 0, Start_track
12, 0, MIDI_port, 0
12, 0, Title_t, "Viola"
12, 0, Program_c, 12, 48
12, 0, Control_c, 12, 10, 40
12, 5, Control_c, 12, 121, 0
12, 10, Program_c, 12, 45
12, 15, Pitch_bend_c, 12, 8492
12, 20, Control_c, 12, 11, 100
12, 25, Control_c, 12, 7, 127
12, 30, Control_c, 12, 91, 25
12, 35, Control_c, 12, 93, 0
12, 40, Control_c, 12, 10, 40
12, 45, Control_c, 12, 1, 36
12, 485, Note_on_c, 12, 60, 50
12, 605, Note_on_c, 12, 60, 0
12, 725, Note_on_c, 12, 53, 28
12, 845, Note_on_c, 12, 53, 0
12, 965, Note_on_c, 12, 55, 50
12, 1085, Note_on_c, 12, 55, 0
12, 1205, Note_on_c, 12, 57, 28
12, 1325, Note_on_c, 12, 57, 0
12, 1445, Note_on_c, 12, 50, 37
12, 1565, Note_on_c, 12, 50, 0
12, 1685, Note_on_c, 12, 62, 50
12, 1805, Note_on_c, 12, 62, 0
12, 1805, Note_on_c, 12, 62, 68
12, 1924, Program_c, 12, 48
12, 1925, Note_on_c, 12, 62, 0
12, 1925, Control_c, 12, 11, 57
12, 1925, Note_on_c, 12, 55, 110
12, 1927, Control_c, 12, 11, 61
12, 1929, Control_c, 12, 11, 65
12, 1931, Control_c, 12, 11, 69
12, 1933, Control_c, 12, 11, 73
12, 1935, Control_c, 12, 11, 77
12, 1937, Control_c, 12, 11, 81
12, 1939, Control_c, 12, 11, 85
12, 2045, Note_on_c, 12, 55, 0
12, 2405, Note_on_c, 12, 65, 110
12, 2405, Control_c, 12, 11, 32
12, 2409, Control_c, 12, 11, 35
12, 2413, Control_c, 12, 11, 38
12, 2417, Control_c, 12, 11, 41
12, 2421, Control_c, 12, 11, 44
12, 2425, Control_c, 12, 11, 47
12, 2525, Note_on_c, 12, 65, 0
12, 2525, Note_on_c, 12, 62, 110
12, 2765, Note_on_c, 12, 62, 0
12, 2765, Note_on_c, 12, 55, 110
12, 2885, Note_on_c, 12, 55, 0
12, 2885, Note_on_c, 12, 67, 110
12, 3005, Note_on_c, 12, 67, 0
12, 3005, Note_on_c, 12, 64, 110
12, 3125, Note_on_c, 12, 64, 0
12, 3125, Note_on_c, 12, 60, 110
12, 3245, Note_on_c, 12, 60, 0
12, 3245, Note_on_c, 12, 55, 110
12, 3365, Note_on_c, 12, 55, 0
12, 3365, Note_on_c, 12, 55, 110
12, 3365, Control_c, 12, 11, 47
12, 3389, Control_c, 12, 11, 49
12, 3413, Control_c, 12, 11, 51
12, 3437, Control_c, 12, 11, 53
12, 3461, Control_c, 12, 11, 55
12, 3485, Note_on_c, 12, 55, 0
12, 3485, Control_c, 12, 11, 57
12, 3485, Note_on_c, 12, 65, 110
12, 3509, Control_c, 12, 11, 59
12, 3533, Control_c, 12, 11, 61
12, 3557, Control_c, 12, 11, 63
12, 3581, Control_c, 12, 11, 65
12, 3605, Control_c, 12, 11, 67
12, 3629, Control_c, 12, 11, 69
12, 3635, Note_on_c, 12, 65, 0
12, 3635, Note_on_c, 12, 64, 110
12, 3653, Control_c, 12, 11, 71
12, 3665, Note_on_c, 12, 64, 0
12, 3665, Note_on_c, 12, 65, 110
12, 3677, Control_c, 12, 11, 73
12, 3695, Note_on_c, 12, 65, 0
12, 3695, Note_on_c, 12, 61, 110
12, 3701, Control_c, 12, 11, 75
12, 3725, Note_on_c, 12, 61, 0
12, 3725, Control_c, 12, 11, 77
12, 3725, Note_on_c, 12, 62, 110
12, 3749, Control_c, 12, 11, 79
12, 3755, Note_on_c, 12, 62, 0
12, 3755, Note_on_c, 12, 64, 110
12, 3773, Control_c, 12, 11, 81
12, 3785, Note_on_c, 12, 64, 0
12, 3785, Note_on_c, 12, 65, 110
12, 3797, Control_c, 12, 11, 83
12, 3815, Note_on_c, 12, 65, 0
12, 3815, Note_on_c, 12, 62, 110
12, 3821, Control_c, 12, 11, 85
12, 3845, Note_on_c, 12, 62, 0
12, 3845, Note_on_c, 12, 60, 110
12, 3845, Control_c, 12, 11, 77
12, 3854, Control_c, 12, 11, 80
12, 3863, Control_c, 12, 11, 83
12, 3872, Control_c, 12, 11, 86
12, 3935, Control_c, 12, 11, 87
12, 3937, Control_c, 12, 11, 83
12, 3939, Control_c, 12, 11, 79
12, 3941, Control_c, 12, 11, 76
12, 3943, Control_c, 12, 11, 72
12, 3945, Control_c, 12, 11, 69
12, 3947, Control_c, 12, 11, 65
12, 3949, Note_on_c, 12, 60, 0
12, 3949, Control_c, 12, 11, 62
12, 4085, Control_c, 12, 11, 67
12, 4085, Note_on_c, 12, 65, 110
12, 4089, Control_c, 12, 11, 70
12, 4094, Control_c, 12, 11, 73
12, 4098, Control_c, 12, 11, 76
12, 4103, Control_c, 12, 11, 79
12, 4107, Control_c, 12, 11, 82
12, 4112, Control_c, 12, 11, 85
12, 4185, Control_c, 12, 11, 87
12, 4187, Control_c, 12, 11, 83
12, 4189, Control_c, 12, 11, 79
12, 4191, Control_c, 12, 11, 76
12, 4193, Control_c, 12, 11, 72
12, 4195, Control_c, 12, 11, 69
12, 4197, Control_c, 12, 11, 65
12, 4199, Note_on_c, 12, 65, 0
12, 4199, Control_c, 12, 11, 62
12, 4325, Note_on_c, 12, 55, 110
12, 4325, Control_c, 12, 11, 27
12, 4331, Control_c, 12, 11, 30
12, 4337, Control_c, 12, 11, 33
12, 4343, Control_c, 12, 11, 36
12, 4349, Control_c, 12, 11, 39
12, 4355, Control_c, 12, 11, 42
12, 4565, Control_c, 12, 11, 42
12, 4578, Control_c, 12, 11, 45
12, 4591, Control_c, 12, 11, 48
12, 4604, Control_c, 12, 11, 51
12, 4617, Control_c, 12, 11, 54
12, 4625, Note_on_c, 12, 55, 0
12, 4625, Note_on_c, 12, 55, 110
12, 4630, Control_c, 12, 11, 57
12, 4643, Control_c, 12, 11, 60
12, 4656, Control_c, 12, 11, 63
12, 4669, Control_c, 12, 11, 66
12, 4682, Control_c, 12, 11, 69
12, 4685, Note_on_c, 12, 55, 0
12, 4685, Note_on_c, 12, 55, 110
12, 4695, Control_c, 12, 11, 72
12, 4709, Control_c, 12, 11, 75
12, 4722, Control_c, 12, 11, 78
12, 4735, Control_c, 12, 11, 81
12, 4745, Note_on_c, 12, 55, 0
12, 4745, Note_on_c, 12, 56, 110
12, 4748, Control_c, 12, 11, 84
12, 4761, Control_c, 12, 11, 87
12, 4774, Control_c, 12, 11, 90
12, 4787, Control_c, 12, 11, 93
12, 4800, Control_c, 12, 11, 96
12, 4805, Note_on_c, 12, 56, 0
12, 4805, Note_on_c, 12, 57, 120
12, 4805, Control_c, 12, 11, 77
12, 4814, Control_c, 12, 11, 80
12, 4823, Control_c, 12, 11, 83
12, 4832, Control_c, 12, 11, 86
12, 4895, Control_c, 12, 11, 97
12, 4896, Control_c, 12, 11, 94
12, 4898, Control_c, 12, 11, 89
12, 4900, Control_c, 12, 11, 84
12, 4902, Control_c, 12, 11, 79
12, 4904, Control_c, 12, 11, 74
12, 4906, Control_c, 12, 11, 69
12, 4908, Control_c, 12, 11, 64
12, 4909, Note_on_c, 12, 57, 0
12, 5045, Control_c, 12, 11, 67
12, 5045, Note_on_c, 12, 53, 110
12, 5045, Note_on_c, 12, 60, 110
12, 5045, Note_on_c, 12, 65, 110
12, 5049, Control_c, 12, 11, 70
12, 5054, Control_c, 12, 11, 73
12, 5058, Control_c, 12, 11, 76
12, 5063, Control_c, 12, 11, 79
12, 5067, Control_c, 12, 11, 82
12, 5072, Control_c, 12, 11, 85
12, 5145, Control_c, 12, 11, 87
12, 5147, Control_c, 12, 11, 83
12, 5149, Control_c, 12, 11, 79
12, 5151, Control_c, 12, 11, 76
12, 5153, Control_c, 12, 11, 72
12, 5155, Control_c, 12, 11, 69
12, 5157, Control_c, 12, 11, 65
12, 5159, Note_on_c, 12, 65, 0
12, 5159, Note_on_c, 12, 60, 0
12, 5159, Note_on_c, 12, 53, 0
12, 5159, Control_c, 12, 11, 62
12, 5285, Control_c, 12, 11, 67
12, 5285, Note_on_c, 12, 55, 110
12, 5289, Control_c, 12, 11, 70
12, 5294, Control_c, 12, 11, 73
12, 5298, Control_c, 12, 11, 76
12, 5303, Control_c, 12, 11, 79
12, 5307, Control_c, 12, 11, 82
12, 5312, Control_c, 12, 11, 85
12, 5375, Control_c, 12, 11, 87
12, 5377, Control_c, 12, 11, 84
12, 5380, Control_c, 12, 11, 80
12, 5383, Control_c, 12, 11, 77
12, 5385, Control_c, 12, 11, 74
12, 5388, Control_c, 12, 11, 71
12, 5390, Control_c, 12, 11, 68
12, 5393, Control_c, 12, 11, 65
12, 5395, Control_c, 12, 11, 62
12, 5398, Control_c, 12, 11, 59
12, 5400, Control_c, 12, 11, 56
12, 5403, Control_c, 12, 11, 53
12, 5405, Note_on_c, 12, 55, 0
12, 5764, Program_c, 12, 50
12, 5765, Control_c, 12, 11, 32
12, 5765, Note_on_c, 12, 55, 110
12, 5781, Control_c, 12, 11, 34
12, 5797, Control_c, 12, 11, 36
12, 5813, Control_c, 12, 11, 38
12, 5825, Note_on_c, 12, 55, 0
12, 5825, Note_on_c, 12, 57, 95
12, 5829, Control_c, 12, 11, 40
12, 5845, Control_c, 12, 11, 42
12, 5855, Note_on_c, 12, 57, 0
12, 5855, Note_on_c, 12, 59, 97
12, 5861, Control_c, 12, 11, 44
12, 5877, Control_c, 12, 11, 46
12, 5885, Note_on_c, 12, 59, 0
12, 5885, Note_on_c, 12, 60, 100
12, 5915, Note_on_c, 12, 60, 0
12, 5915, Note_on_c, 12, 62, 102
12, 5945, Note_on_c, 12, 62, 0
12, 5945, Note_on_c, 12, 64, 105
12, 5975, Note_on_c, 12, 64, 0
12, 5975, Note_on_c, 12, 66, 107
12, 6000, Note_on_c, 12, 66, 0
12, 6005, Note_on_c, 12, 67, 110
12, 6180, Note_on_c, 12, 67, 0
12, 6185, Note_on_c, 12, 67, 95
12, 6200, Note_on_c, 12, 67, 0
12, 6200, Note_on_c, 12, 65, 95
12, 6215, Note_on_c, 12, 65, 0
12, 6215, Note_on_c, 12, 64, 95
12, 6230, Note_on_c, 12, 64, 0
12, 6230, Note_on_c, 12, 62, 95
12, 6245, Note_on_c, 12, 62, 0
12, 6245, Note_on_c, 12, 60, 90
12, 6365, Note_on_c, 12, 60, 0
12, 6724, Program_c, 12, 48
12, 6725, Note_on_c, 12, 52, 67
12, 6845, Note_on_c, 12, 52, 0
12, 7205, Note_on_c, 12, 52, 67
12, 7325, Note_on_c, 12, 52, 0
12, 7445, Note_on_c, 12, 52, 67
12, 7565, Note_on_c, 12, 52, 0
12, 7685, Note_on_c, 12, 52, 67
12, 7805, Note_on_c, 12, 52, 0
12, 9005, Note_on_c, 12, 57, 110
12, 9035, Note_on_c, 12, 57, 0
12, 9035, Note_on_c, 12, 55, 110
12, 9065, Note_on_c, 12, 55, 0
12, 9065, Note_on_c, 12, 53, 110
12, 9095, Note_on_c, 12, 53, 0
12, 9095, Note_on_c, 12, 52, 110
12, 9125, Note_on_c, 12, 52, 0
12, 9125, Note_on_c, 12, 50, 110
12, 9245, Note_on_c, 12, 50, 0
12, 9605, Note_on_c, 12, 53, 78
12, 9725, Note_on_c, 12, 53, 0
12, 10085, Note_on_c, 12, 53, 78
12, 10205, Note_on_c, 12, 53, 0
12, 10325, Note_on_c, 12, 53, 78
12, 10445, Note_on_c, 12, 53, 0
12, 10565, Note_on_c, 12, 53, 78
12, 10685, Note_on_c, 12, 53, 0
12, 11045, Note_on_c, 12, 62, 110
12, 11045, Control_c, 12, 11, 32
12, 11056, Control_c, 12, 11, 35
12, 11067, Control_c, 12, 11, 38
12, 11078, Control_c, 12, 11, 41
12, 11090, Control_c, 12, 11, 44
12, 11101, Control_c, 12, 11, 47
12, 11141, Control_c, 12, 11, 50
12, 11173, Control_c, 12, 11, 51
12, 11205, Control_c, 12, 11, 52
12, 11237, Control_c, 12, 11, 53
12, 11269, Control_c, 12, 11, 54
12, 11301, Control_c, 12, 11, 55
12, 11333, Control_c, 12, 11, 56
12, 11365, Control_c, 12, 11, 57
12, 11397, Control_c, 12, 11, 58
12, 11429, Control_c, 12, 11, 59
12, 11461, Control_c, 12, 11, 60
12, 11493, Control_c, 12, 11, 61
12, 11524, Program_c, 12, 50
12, 11525, Note_on_c, 12, 62, 0
12, 11525, Control_c, 12, 11, 62
12, 11525, Note_on_c, 12, 62, 110
12, 11525, Note_on_c, 12, 60, 110
12, 11545, Note_on_c, 12, 60, 0
12, 11545, Note_on_c, 12, 62, 0
12, 11557, Control_c, 12, 11, 63
12, 11565, Note_on_c, 12, 62, 110
12, 11585, Note_on_c, 12, 62, 0
12, 11585, Note_on_c, 12, 60, 110
12, 11589, Control_c, 12, 11, 64
12, 11605, Note_on_c, 12, 60, 0
12, 11605, Note_on_c, 12, 62, 110
12, 11621, Control_c, 12, 11, 65
12, 11625, Note_on_c, 12, 62, 0
12, 11625, Note_on_c, 12, 60, 110
12, 11645, Note_on_c, 12, 60, 0
12, 11645, Note_on_c, 12, 62, 110
12, 11653, Control_c, 12, 11, 66
12, 11665, Note_on_c, 12, 62, 0
12, 11665, Note_on_c, 12, 60, 110
12, 11685, Note_on_c, 12, 60, 0
12, 11685, Note_on_c, 12, 62, 110
12, 11685, Control_c, 12, 11, 67
12, 11705, Note_on_c, 12, 62, 0
12, 11705, Note_on_c, 12, 60, 110
12, 11717, Control_c, 12, 11, 68
12, 11725, Note_on_c, 12, 60, 0
12, 11725, Note_on_c, 12, 62, 110
12, 11745, Note_on_c, 12, 62, 0
12, 11745, Note_on_c, 12, 60, 110
12, 11749, Control_c, 12, 11, 69
12, 11765, Note_on_c, 12, 60, 0
12, 11765, Note_on_c, 12, 62, 110
12, 11781, Control_c, 12, 11, 70
12, 11785, Note_on_c, 12, 62, 0
12, 11785, Note_on_c, 12, 60, 110
12, 11805, Note_on_c, 12, 60, 0
12, 11805, Note_on_c, 12, 62, 110
12, 11813, Control_c, 12, 11, 71
12, 11825, Note_on_c, 12, 62, 0
12, 11825, Note_on_c, 12, 60, 110
12, 11845, Note_on_c, 12, 60, 0
12, 11845, Note_on_c, 12, 62, 110
12, 11845, Control_c, 12, 11, 72
12, 11865, Note_on_c, 12, 62, 0
12, 11865, Note_on_c, 12, 60, 110
12, 11877, Control_c, 12, 11, 73
12, 11885, Note_on_c, 12, 60, 0
12, 11885, Note_on_c, 12, 62, 110
12, 11905, Note_on_c, 12, 62, 0
12, 11905, Note_on_c, 12, 60, 110
12, 11909, Control_c, 12, 11, 74
12, 11925, Note_on_c, 12, 60, 0
12, 11925, Note_on_c, 12, 62, 110
12, 11941, Control_c, 12, 11, 75
12, 11945, Note_on_c, 12, 62, 0
12, 11945, Note_on_c, 12, 59, 110
12, 11973, Control_c, 12, 11, 76
12, 11975, Note_on_c, 12, 59, 0
12, 11975, Note_on_c, 12, 60, 110
12, 12005, Note_on_c, 12, 60, 0
12, 12005, Note_on_c, 12, 59, 110
12, 12005, Control_c, 12, 11, 84
12, 12010, Control_c, 12, 11, 87
12, 12015, Control_c, 12, 11, 90
12, 12020, Control_c, 12, 11, 93
12, 12040, Control_c, 12, 11, 91
12, 12058, Control_c, 12, 11, 88
12, 12076, Control_c, 12, 11, 85
12, 12094, Control_c, 12, 11, 82
12, 12112, Control_c, 12, 11, 79
12, 12125, Control_c, 12, 11, 67
12, 12275, Control_c, 12, 11, 67
12, 12281, Control_c, 12, 11, 64
12, 12287, Control_c, 12, 11, 61
12, 12293, Control_c, 12, 11, 58
12, 12299, Control_c, 12, 11, 55
12, 12305, Control_c, 12, 11, 52
12, 12311, Control_c, 12, 11, 49
12, 12313, Note_on_c, 12, 59, 0
12, 12845, Control_c, 12, 11, 67
12, 12845, Note_on_c, 12, 55, 110
12, 12935, Note_on_c, 12, 55, 0
12, 12935, Note_on_c, 12, 59, 110
12, 12965, Note_on_c, 12, 59, 0
12, 12965, Note_on_c, 12, 62, 110
12, 12965, Control_c, 12, 11, 97
12, 12983, Control_c, 12, 11, 94
12, 13001, Control_c, 12, 11, 91
12, 13019, Control_c, 12, 11, 88
12, 13037, Control_c, 12, 11, 85
12, 13055, Control_c, 12, 11, 82
12, 13073, Control_c, 12, 11, 79
12, 13235, Control_c, 12, 11, 67
12, 13241, Control_c, 12, 11, 64
12, 13247, Control_c, 12, 11, 61
12, 13253, Control_c, 12, 11, 58
12, 13259, Control_c, 12, 11, 55
12, 13265, Control_c, 12, 11, 52
12, 13271, Control_c, 12, 11, 49
12, 13273, Note_on_c, 12, 62, 0
12, 13805, Note_on_c, 12, 59, 110
12, 13805, Control_c, 12, 11, 67
12, 13895, Note_on_c, 12, 59, 0
12, 13895, Note_on_c, 12, 62, 110
12, 13925, Note_on_c, 12, 62, 0
12, 13925, Note_on_c, 12, 65, 110
12, 13925, Control_c, 12, 11, 97
12, 13943, Control_c, 12, 11, 94
12, 13961, Control_c, 12, 11, 91
12, 13979, Control_c, 12, 11, 88
12, 13997, Control_c, 12, 11, 85
12, 14015, Control_c, 12, 11, 82
12, 14033, Control_c, 12, 11, 79
12, 14195, Control_c, 12, 11, 67
12, 14201, Control_c, 12, 11, 64
12, 14207, Control_c, 12, 11, 61
12, 14213, Control_c, 12, 11, 58
12, 14219, Control_c, 12, 11, 55
12, 14225, Control_c, 12, 11, 52
12, 14231, Control_c, 12, 11, 49
12, 14233, Note_on_c, 12, 65, 0
12, 14405, Control_c, 12, 11, 77
12, 14424, Control_c, 12, 11, 78
12, 14443, Control_c, 12, 11, 79
12, 14462, Control_c, 12, 11, 80
12, 14481, Control_c, 12, 11, 81
12, 14500, Control_c, 12, 11, 82
12, 14519, Control_c, 12, 11, 83
12, 14539, Control_c, 12, 11, 84
12, 14558, Control_c, 12, 11, 85
12, 14577, Control_c, 12, 11, 86
12, 14596, Control_c, 12, 11, 87
12, 14615, Control_c, 12, 11, 88
12, 14634, Control_c, 12, 11, 89
12, 14645, Note_on_c, 12, 65, 100
12, 14654, Control_c, 12, 11, 90
12, 14673, Control_c, 12, 11, 91
12, 14675, Note_on_c, 12, 65, 0
12, 14692, Control_c, 12, 11, 92
12, 14705, Note_on_c, 12, 62, 100
12, 14711, Control_c, 12, 11, 93
12, 14730, Control_c, 12, 11, 94
12, 14735, Note_on_c, 12, 62, 0
12, 14749, Control_c, 12, 11, 95
12, 14765, Note_on_c, 12, 59, 100
12, 14769, Control_c, 12, 11, 96
12, 14788, Control_c, 12, 11, 97
12, 14795, Note_on_c, 12, 59, 0
12, 14807, Control_c, 12, 11, 98
12, 14825, Note_on_c, 12, 55, 100
12, 14826, Control_c, 12, 11, 99
12, 14845, Control_c, 12, 11, 100
12, 14855, Note_on_c, 12, 55, 0
12, 14864, Control_c, 12, 11, 101
12, 14884, Control_c, 12, 11, 102
12, 14885, Note_on_c, 12, 60, 100
12, 14945, Note_on_c, 12, 60, 0
12, 15124, Program_c, 12, 48
12, 15125, Note_on_c, 12, 65, 100
12, 15185, Note_on_c, 12, 65, 0
12, 15365, Note_on_c, 12, 67, 100
12, 15425, Note_on_c, 12, 67, 0
12, 15605, Note_on_c, 12, 55, 100
12, 15665, Note_on_c, 12, 55, 0
12, 15845, Note_on_c, 12, 60, 100
12, 15895, Note_on_c, 12, 60, 0
12, 15905, Note_on_c, 12, 55, 100
12, 15905, Note_on_c, 12, 52, 100
12, 15955, Note_on_c, 12, 52, 0
12, 15955, Note_on_c, 12, 55, 0
12, 15965, Note_on_c, 12, 52, 100
12, 15965, Note_on_c, 12, 55, 100
12, 16015, Note_on_c, 12, 55, 0
12, 16015, Note_on_c, 12, 52, 0
12, 16025, Note_on_c, 12, 55, 100
12, 16025, Note_on_c, 12, 52, 100
12, 16075, Note_on_c, 12, 52, 0
12, 16075, Note_on_c, 12, 55, 0
12, 16085, Note_on_c, 12, 52, 100
12, 16085, Note_on_c, 12, 55, 100
12, 16135, Note_on_c, 12, 55, 0
12, 16135, Note_on_c, 12, 52, 0
12, 16145, Note_on_c, 12, 52, 100
12, 16145, Note_on_c, 12, 55, 100
12, 16195, Note_on_c, 12, 55, 0
12, 16195, Note_on_c, 12, 52, 0
12, 16205, Note_on_c, 12, 55, 100
12, 16205, Note_on_c, 12, 52, 100
12, 16255, Note_on_c, 12, 52, 0
12, 16255, Note_on_c, 12, 55, 0
12, 16265, Note_on_c, 12, 52, 100
12, 16265, Note_on_c, 12, 55, 100
12, 16315, Note_on_c, 12, 55, 0
12, 16315, Note_on_c, 12, 52, 0
12, 16325, Note_on_c, 12, 52, 100
12, 16325, Note_on_c, 12, 55, 100
12, 16325, Control_c, 12, 11, 122
12, 16343, Control_c, 12, 11, 119
12, 16361, Control_c, 12, 11, 116
12, 16375, Note_on_c, 12, 55, 0
12, 16375, Note_on_c, 12, 52, 0
12, 16379, Control_c, 12, 11, 113
12, 16385, Note_on_c, 12, 52, 100
12, 16385, Note_on_c, 12, 55, 100
12, 16397, Control_c, 12, 11, 110
12, 16415, Control_c, 12, 11, 107
12, 16433, Control_c, 12, 11, 104
12, 16435, Note_on_c, 12, 55, 0
12, 16435, Note_on_c, 12, 52, 0
12, 16445, Note_on_c, 12, 55, 100
12, 16445, Note_on_c, 12, 52, 100
12, 16495, Note_on_c, 12, 52, 0
12, 16495, Note_on_c, 12, 55, 0
12, 16505, Note_on_c, 12, 52, 100
12, 16505, Note_on_c, 12, 55, 100
12, 16555, Note_on_c, 12, 55, 0
12, 16555, Note_on_c, 12, 52, 0
12, 16565, Note_on_c, 12, 52, 100
12, 16565, Note_on_c, 12, 55, 100
12, 16615, Note_on_c, 12, 55, 0
12, 16615, Note_on_c, 12, 52, 0
12, 16625, Note_on_c, 12, 55, 100
12, 16625, Note_on_c, 12, 52, 100
12, 16675, Note_on_c, 12, 52, 0
12, 16675, Note_on_c, 12, 55, 0
12, 16685, Note_on_c, 12, 52, 100
12, 16685, Note_on_c, 12, 55, 100
12, 16735, Note_on_c, 12, 55, 0
12, 16735, Note_on_c, 12, 52, 0
12, 16745, Note_on_c, 12, 55, 100
12, 16745, Note_on_c, 12, 52, 100
12, 16795, Note_on_c, 12, 52, 0
12, 16795, Note_on_c, 12, 55, 0
12, 16805, Note_on_c, 12, 55, 86
12, 16805, Note_on_c, 12, 53, 86
12, 16855, Note_on_c, 12, 53, 0
12, 16855, Note_on_c, 12, 55, 0
12, 16865, Note_on_c, 12, 53, 86
12, 16865, Note_on_c, 12, 55, 86
12, 16915, Note_on_c, 12, 55, 0
12, 16915, Note_on_c, 12, 53, 0
12, 16925, Note_on_c, 12, 55, 86
12, 16925, Note_on_c, 12, 53, 86
12, 16975, Note_on_c, 12, 53, 0
12, 16975, Note_on_c, 12, 55, 0
12, 16985, Note_on_c, 12, 55, 86
12, 16985, Note_on_c, 12, 53, 86
12, 17035, Note_on_c, 12, 53, 0
12, 17035, Note_on_c, 12, 55, 0
12, 17045, Note_on_c, 12, 53, 86
12, 17045, Note_on_c, 12, 55, 86
12, 17095, Note_on_c, 12, 55, 0
12, 17095, Note_on_c, 12, 53, 0
12, 17105, Note_on_c, 12, 53, 86
12, 17105, Note_on_c, 12, 55, 86
12, 17155, Note_on_c, 12, 55, 0
12, 17155, Note_on_c, 12, 53, 0
12, 17165, Note_on_c, 12, 55, 86
12, 17165, Note_on_c, 12, 53, 86
12, 17215, Note_on_c, 12, 53, 0
12, 17215, Note_on_c, 12, 55, 0
12, 17225, Note_on_c, 12, 55, 86
12, 17225, Note_on_c, 12, 53, 86
12, 17275, Note_on_c, 12, 53, 0
12, 17275, Note_on_c, 12, 55, 0
12, 17285, Note_on_c, 12, 53, 86
12, 17285, Note_on_c, 12, 55, 86
12, 17335, Note_on_c, 12, 55, 0
12, 17335, Note_on_c, 12, 53, 0
12, 17345, Note_on_c, 12, 55, 86
12, 17345, Note_on_c, 12, 53, 86
12, 17395, Note_on_c, 12, 53, 0
12, 17395, Note_on_c, 12, 55, 0
12, 17405, Note_on_c, 12, 53, 86
12, 17405, Note_on_c, 12, 55, 86
12, 17455, Note_on_c, 12, 55, 0
12, 17455, Note_on_c, 12, 53, 0
12, 17465, Note_on_c, 12, 55, 86
12, 17465, Note_on_c, 12, 53, 86
12, 17515, Note_on_c, 12, 53, 0
12, 17515, Note_on_c, 12, 55, 0
12, 17525, Note_on_c, 12, 53, 86
12, 17525, Note_on_c, 12, 55, 86
12, 17575, Note_on_c, 12, 55, 0
12, 17575, Note_on_c, 12, 53, 0
12, 17585, Note_on_c, 12, 55, 86
12, 17585, Note_on_c, 12, 53, 86
12, 17635, Note_on_c, 12, 53, 0
12, 17635, Note_on_c, 12, 55, 0
12, 17645, Note_on_c, 12, 55, 86
12, 17645, Note_on_c, 12, 53, 86
12, 17695, Note_on_c, 12, 53, 0
12, 17695, Note_on_c, 12, 55, 0
12, 17705, Note_on_c, 12, 53, 86
12, 17705, Note_on_c, 12, 55, 86
12, 17755, Note_on_c, 12, 55, 0
12, 17755, Note_on_c, 12, 53, 0
12, 17765, Note_on_c, 12, 52, 100
12, 17765, Note_on_c, 12, 55, 100
12, 17815, Note_on_c, 12, 55, 0
12, 17815, Note_on_c, 12, 52, 0
12, 17825, Note_on_c, 12, 55, 100
12, 17825, Note_on_c, 12, 64, 100
12, 17875, Note_on_c, 12, 64, 0
12, 17875, Note_on_c, 12, 55, 0
12, 17885, Note_on_c, 12, 64, 100
12, 17885, Note_on_c, 12, 55, 100
12, 17935, Note_on_c, 12, 55, 0
12, 17935, Note_on_c, 12, 64, 0
12, 17945, Note_on_c, 12, 55, 100
12, 17945, Note_on_c, 12, 64, 100
12, 17995, Note_on_c, 12, 64, 0
12, 17995, Note_on_c, 12, 55, 0
12, 18005, Note_on_c, 12, 64, 100
12, 18005, Note_on_c, 12, 55, 100
12, 18055, Note_on_c, 12, 55, 0
12, 18055, Note_on_c, 12, 64, 0
12, 18065, Note_on_c, 12, 64, 100
12, 18065, Note_on_c, 12, 55, 100
12, 18115, Note_on_c, 12, 55, 0
12, 18115, Note_on_c, 12, 64, 0
12, 18125, Note_on_c, 12, 55, 100
12, 18125, Note_on_c, 12, 64, 100
12, 18175, Note_on_c, 12, 64, 0
12, 18175, Note_on_c, 12, 55, 0
12, 18185, Note_on_c, 12, 64, 100
12, 18185, Note_on_c, 12, 55, 100
12, 18235, Note_on_c, 12, 55, 0
12, 18235, Note_on_c, 12, 64, 0
12, 18245, Note_on_c, 12, 64, 100
12, 18245, Note_on_c, 12, 55, 100
12, 18245, Control_c, 12, 11, 122
12, 18263, Control_c, 12, 11, 119
12, 18281, Control_c, 12, 11, 116
12, 18295, Note_on_c, 12, 55, 0
12, 18295, Note_on_c, 12, 64, 0
12, 18299, Control_c, 12, 11, 113
12, 18305, Note_on_c, 12, 64, 100
12, 18305, Note_on_c, 12, 55, 100
12, 18317, Control_c, 12, 11, 110
12, 18335, Control_c, 12, 11, 107
12, 18353, Control_c, 12, 11, 104
12, 18355, Note_on_c, 12, 55, 0
12, 18355, Note_on_c, 12, 64, 0
12, 18365, Note_on_c, 12, 55, 100
12, 18365, Note_on_c, 12, 64, 100
12, 18415, Note_on_c, 12, 64, 0
12, 18415, Note_on_c, 12, 55, 0
12, 18425, Note_on_c, 12, 64, 100
12, 18425, Note_on_c, 12, 55, 100
12, 18475, Note_on_c, 12, 55, 0
12, 18475, Note_on_c, 12, 64, 0
12, 18485, Note_on_c, 12, 64, 100
12, 18485, Note_on_c, 12, 55, 100
12, 18535, Note_on_c, 12, 55, 0
12, 18535, Note_on_c, 12, 64, 0
12, 18545, Note_on_c, 12, 55, 100
12, 18545, Note_on_c, 12, 64, 100
12, 18595, Note_on_c, 12, 64, 0
12, 18595, Note_on_c, 12, 55, 0
12, 18605, Note_on_c, 12, 55, 100
12, 18605, Note_on_c, 12, 64, 100
12, 18655, Note_on_c, 12, 64, 0
12, 18655, Note_on_c, 12, 55, 0
12, 18665, Note_on_c, 12, 55, 100
12, 18665, Note_on_c, 12, 64, 100
12, 18715, Note_on_c, 12, 64, 0
12, 18715, Note_on_c, 12, 55, 0
12, 18725, Note_on_c, 12, 55, 86
12, 18725, Note_on_c, 12, 65, 86
12, 18775, Note_on_c, 12, 65, 0
12, 18775, Note_on_c, 12, 55, 0
12, 18785, Note_on_c, 12, 55, 86
12, 18785, Note_on_c, 12, 65, 86
12, 18835, Note_on_c, 12, 65, 0
12, 18835, Note_on_c, 12, 55, 0
12, 18845, Note_on_c, 12, 65, 86
12, 18845, Note_on_c, 12, 55, 86
12, 18895, Note_on_c, 12, 55, 0
12, 18895, Note_on_c, 12, 65, 0
12, 18905, Note_on_c, 12, 55, 86
12, 18905, Note_on_c, 12, 65, 86
12, 18955, Note_on_c, 12, 65, 0
12, 18955, Note_on_c, 12, 55, 0
12, 18965, Note_on_c, 12, 65, 86
12, 18965, Note_on_c, 12, 55, 86
12, 19015, Note_on_c, 12, 55, 0
12, 19015, Note_on_c, 12, 65, 0
12, 19025, Note_on_c, 12, 55, 86
12, 19025, Note_on_c, 12, 65, 86
12, 19075, Note_on_c, 12, 65, 0
12, 19075, Note_on_c, 12, 55, 0
12, 19085, Note_on_c, 12, 65, 86
12, 19085, Note_on_c, 12, 55, 86
12, 19135, Note_on_c, 12, 55, 0
12, 19135, Note_on_c, 12, 65, 0
12, 19145, Note_on_c, 12, 55, 86
12, 19145, Note_on_c, 12, 65, 86
12, 19195, Note_on_c, 12, 65, 0
12, 19195, Note_on_c, 12, 55, 0
12, 19205, Note_on_c, 12, 55, 86
12, 19205, Note_on_c, 12, 65, 86
12, 19255, Note_on_c, 12, 65, 0
12, 19255, Note_on_c, 12, 55, 0
12, 19265, Note_on_c, 12, 65, 86
12, 19265, Note_on_c, 12, 55, 86
12, 19315, Note_on_c, 12, 55, 0
12, 19315, Note_on_c, 12, 65, 0
12, 19325, Note_on_c, 12, 55, 86
12, 19325, Note_on_c, 12, 65, 86
12, 19375, Note_on_c, 12, 65, 0
12, 19375, Note_on_c, 12, 55, 0
12, 19385, Note_on_c, 12, 65, 86
12, 19385, Note_on_c, 12, 55, 86
12, 19435, Note_on_c, 12, 55, 0
12, 19435, Note_on_c, 12, 65, 0
12, 19445, Note_on_c, 12, 55, 86
12, 19445, Note_on_c, 12, 65, 86
12, 19495, Note_on_c, 12, 65, 0
12, 19495, Note_on_c, 12, 55, 0
12, 19505, Note_on_c, 12, 65, 86
12, 19505, Note_on_c, 12, 55, 86
12, 19555, Note_on_c, 12, 55, 0
12, 19555, Note_on_c, 12, 65, 0
12, 19565, Note_on_c, 12, 55, 86
12, 19565, Note_on_c, 12, 65, 86
12, 19615, Note_on_c, 12, 65, 0
12, 19615, Note_on_c, 12, 55, 0
12, 19625, Note_on_c, 12, 55, 86
12, 19625, Note_on_c, 12, 65, 86
12, 19675, Note_on_c, 12, 65, 0
12, 19675, Note_on_c, 12, 55, 0
12, 19685, Note_on_c, 12, 55, 100
12, 19685, Note_on_c, 12, 64, 100
12, 19805, Note_on_c, 12, 64, 0
12, 19805, Note_on_c, 12, 55, 0
12, 20045, Control_c, 12, 11, 87
12, 20045, Note_on_c, 12, 57, 100
12, 20075, Note_on_c, 12, 57, 0
12, 20105, Note_on_c, 12, 61, 100
12, 20135, Note_on_c, 12, 61, 0
12, 20165, Control_c, 12, 11, 87
12, 20165, Note_on_c, 12, 62, 100
12, 20222, Control_c, 12, 11, 88
12, 20280, Control_c, 12, 11, 89
12, 20285, Note_on_c, 12, 62, 0
12, 20337, Control_c, 12, 11, 90
12, 20395, Control_c, 12, 11, 91
12, 20453, Control_c, 12, 11, 92
12, 20510, Control_c, 12, 11, 93
12, 20525, Note_on_c, 12, 59, 100
12, 20555, Note_on_c, 12, 59, 0
12, 20568, Control_c, 12, 11, 94
12, 20585, Note_on_c, 12, 63, 100
12, 20615, Note_on_c, 12, 63, 0
12, 20625, Control_c, 12, 11, 95
12, 20645, Note_on_c, 12, 64, 100
12, 20675, Note_on_c, 12, 64, 0
12, 20683, Control_c, 12, 11, 96
12, 20705, Note_on_c, 12, 64, 100
12, 20735, Note_on_c, 12, 64, 0
12, 20741, Control_c, 12, 11, 97
12, 20765, Note_on_c, 12, 60, 100
12, 20795, Note_on_c, 12, 60, 0
12, 20798, Control_c, 12, 11, 98
12, 20825, Note_on_c, 12, 64, 100
12, 20855, Note_on_c, 12, 64, 0
12, 20856, Control_c, 12, 11, 99
12, 20885, Note_on_c, 12, 65, 100
12, 20913, Control_c, 12, 11, 100
12, 20915, Note_on_c, 12, 65, 0
12, 20945, Note_on_c, 12, 62, 100
12, 20971, Control_c, 12, 11, 101
12, 20975, Note_on_c, 12, 62, 0
12, 21005, Note_on_c, 12, 67, 100
12, 21029, Control_c, 12, 11, 102
12, 21035, Note_on_c, 12, 67, 0
12, 21065, Note_on_c, 12, 64, 100
12, 21086, Control_c, 12, 11, 103
12, 21095, Note_on_c, 12, 64, 0
12, 21125, Note_on_c, 12, 69, 100
12, 21144, Control_c, 12, 11, 104
12, 21155, Note_on_c, 12, 69, 0
12, 21185, Note_on_c, 12, 65, 100
12, 21201, Control_c, 12, 11, 105
12, 21215, Note_on_c, 12, 65, 0
12, 21245, Note_on_c, 12, 71, 100
12, 21259, Control_c, 12, 11, 106
12, 21275, Note_on_c, 12, 71, 0
12, 21305, Note_on_c, 12, 67, 100
12, 21317, Control_c, 12, 11, 107
12, 21335, Note_on_c, 12, 67, 0
12, 21365, Note_on_c, 12, 72, 100
12, 21374, Control_c, 12, 11, 108
12, 21395, Note_on_c, 12, 72, 0
12, 21425, Note_on_c, 12, 69, 100
12, 21432, Control_c, 12, 11, 109
12, 21455, Note_on_c, 12, 69, 0
12, 21485, Note_on_c, 12, 64, 100
12, 21489, Control_c, 12, 11, 110
12, 21515, Note_on_c, 12, 64, 0
12, 21545, Note_on_c, 12, 66, 100
12, 21547, Control_c, 12, 11, 111
12, 21575, Note_on_c, 12, 66, 0
12, 21605, Control_c, 12, 11, 112
12, 21605, Note_on_c, 12, 55, 100
12, 21623, Control_c, 12, 11, 109
12, 21641, Control_c, 12, 11, 106
12, 21655, Note_on_c, 12, 55, 0
12, 21659, Control_c, 12, 11, 103
12, 21665, Note_on_c, 12, 67, 100
12, 21695, Note_on_c, 12, 67, 0
12, 21725, Note_on_c, 12, 67, 100
12, 21755, Note_on_c, 12, 67, 0
12, 21785, Note_on_c, 12, 67, 100
12, 21815, Note_on_c, 12, 67, 0
12, 21845, Note_on_c, 12, 65, 100
12, 21905, Note_on_c, 12, 65, 0
12, 21905, Note_on_c, 12, 64, 100
12, 21955, Note_on_c, 12, 64, 0
12, 21965, Note_on_c, 12, 62, 100
12, 21995, Note_on_c, 12, 62, 0
12, 22025, Note_on_c, 12, 60, 100
12, 22055, Note_on_c, 12, 60, 0
12, 22085, Note_on_c, 12, 55, 100
12, 22205, Note_on_c, 12, 55, 0
12, 22325, Note_on_c, 12, 67, 100
12, 22445, Note_on_c, 12, 67, 0
12, 22565, Note_on_c, 12, 55, 100
12, 22615, Note_on_c, 12, 55, 0
12, 22625, Note_on_c, 12, 67, 100
12, 22655, Note_on_c, 12, 67, 0
12, 22685, Note_on_c, 12, 67, 100
12, 22715, Note_on_c, 12, 67, 0
12, 22745, Note_on_c, 12, 67, 100
12, 22775, Note_on_c, 12, 67, 0
12, 22805, Note_on_c, 12, 65, 100
12, 22865, Note_on_c, 12, 65, 0
12, 22865, Note_on_c, 12, 64, 100
12, 22915, Note_on_c, 12, 64, 0
12, 22925, Note_on_c, 12, 62, 100
12, 22955, Note_on_c, 12, 62, 0
12, 22985, Note_on_c, 12, 60, 100
12, 23015, Note_on_c, 12, 60, 0
12, 23045, Note_on_c, 12, 55, 100
12, 23165, Note_on_c, 12, 55, 0
12, 23285, Note_on_c, 12, 67, 100
12, 23405, Note_on_c, 12, 67, 0
12, 23525, Note_on_c, 12, 55, 100
12, 23575, Note_on_c, 12, 55, 0
12, 23585, Note_on_c, 12, 67, 100
12, 23615, Note_on_c, 12, 67, 0
12, 23645, Note_on_c, 12, 67, 100
12, 23675, Note_on_c, 12, 67, 0
12, 23705, Note_on_c, 12, 67, 100
12, 23735, Note_on_c, 12, 67, 0
12, 23765, Note_on_c, 12, 65, 100
12, 23825, Note_on_c, 12, 65, 0
12, 23825, Note_on_c, 12, 64, 100
12, 23875, Note_on_c, 12, 64, 0
12, 23885, Note_on_c, 12, 62, 100
12, 23915, Note_on_c, 12, 62, 0
12, 23945, Note_on_c, 12, 60, 100
12, 23975, Note_on_c, 12, 60, 0
12, 24005, Note_on_c, 12, 55, 100
12, 24055, Note_on_c, 12, 55, 0
12, 24065, Note_on_c, 12, 67, 100
12, 24095, Note_on_c, 12, 67, 0
12, 24125, Note_on_c, 12, 67, 100
12, 24155, Note_on_c, 12, 67, 0
12, 24185, Note_on_c, 12, 67, 100
12, 24215, Note_on_c, 12, 67, 0
12, 24245, Note_on_c, 12, 65, 100
12, 24305, Note_on_c, 12, 65, 0
12, 24305, Note_on_c, 12, 64, 100
12, 24355, Note_on_c, 12, 64, 0
12, 24365, Note_on_c, 12, 62, 100
12, 24395, Note_on_c, 12, 62, 0
12, 24425, Note_on_c, 12, 60, 100
12, 24455, Note_on_c, 12, 60, 0
12, 24485, Note_on_c, 12, 55, 100
12, 24605, Note_on_c, 12, 55, 0
12, 24725, Note_on_c, 12, 67, 100
12, 24845, Note_on_c, 12, 67, 0
12, 24964, Program_c, 12, 50
12, 24965, Note_on_c, 12, 55, 100
12, 25085, Note_on_c, 12, 55, 0
12, 25444, Program_c, 12, 48
12, 25445, Note_on_c, 12, 55, 82
12, 25445, Control_c, 12, 11, 47
12, 25565, Note_on_c, 12, 55, 0
12, 25925, Note_on_c, 12, 57, 82
12, 26045, Note_on_c, 12, 57, 0
12, 26405, Note_on_c, 12, 50, 82
12, 26525, Note_on_c, 12, 50, 0
12, 26885, Note_on_c, 12, 55, 82
12, 27005, Note_on_c, 12, 55, 0
12, 27365, Note_on_c, 12, 62, 100
12, 27485, Note_on_c, 12, 62, 0
12, 27605, Control_c, 12, 11, 58
12, 27605, Note_on_c, 12, 62, 100
12, 27609, Control_c, 12, 11, 61
12, 27614, Control_c, 12, 11, 64
12, 27619, Control_c, 12, 11, 67
12, 27624, Control_c, 12, 11, 70
12, 27629, Control_c, 12, 11, 73
12, 27640, Control_c, 12, 11, 70
12, 27651, Control_c, 12, 11, 67
12, 27662, Control_c, 12, 11, 64
12, 27673, Control_c, 12, 11, 61
12, 27684, Control_c, 12, 11, 58
12, 27695, Control_c, 12, 11, 55
12, 27706, Control_c, 12, 11, 52
12, 27717, Control_c, 12, 11, 49
12, 27725, Note_on_c, 12, 62, 0
12, 27725, Note_on_c, 12, 74, 100
12, 27835, Note_on_c, 12, 74, 0
12, 27845, Note_on_c, 12, 62, 100
12, 27965, Note_on_c, 12, 62, 0
12, 28085, Note_on_c, 12, 62, 100
12, 28085, Control_c, 12, 11, 58
12, 28089, Control_c, 12, 11, 61
12, 28094, Control_c, 12, 11, 64
12, 28099, Control_c, 12, 11, 67
12, 28104, Control_c, 12, 11, 70
12, 28109, Control_c, 12, 11, 73
12, 28120, Control_c, 12, 11, 70
12, 28131, Control_c, 12, 11, 67
12, 28142, Control_c, 12, 11, 64
12, 28153, Control_c, 12, 11, 61
12, 28164, Control_c, 12, 11, 58
12, 28175, Control_c, 12, 11, 55
12, 28186, Control_c, 12, 11, 52
12, 28197, Control_c, 12, 11, 49
12, 28205, Note_on_c, 12, 62, 0
12, 28205, Note_on_c, 12, 74, 100
12, 28315, Note_on_c, 12, 74, 0
12, 28325, Note_on_c, 12, 69, 100
12, 28445, Note_on_c, 12, 69, 0
12, 28565, Note_on_c, 12, 57, 100
12, 28685, Note_on_c, 12, 57, 0
12, 28805, Note_on_c, 12, 50, 100
12, 28925, Note_on_c, 12, 50, 0
12, 28925, Note_on_c, 12, 60, 100
12, 28925, Control_c, 12, 11, 63
12, 28929, Control_c, 12, 11, 66
12, 28934, Control_c, 12, 11, 69
12, 28939, Control_c, 12, 11, 72
12, 28957, Control_c, 12, 11, 69
12, 28969, Control_c, 12, 11, 66
12, 28981, Control_c, 12, 11, 63
12, 28993, Control_c, 12, 11, 60
12, 29005, Control_c, 12, 11, 57
12, 29017, Control_c, 12, 11, 54
12, 29029, Control_c, 12, 11, 51
12, 29041, Control_c, 12, 11, 48
12, 29165, Note_on_c, 12, 60, 0
12, 29165, Note_on_c, 12, 57, 100
12, 29275, Note_on_c, 12, 57, 0
12, 29285, Note_on_c, 12, 55, 100
12, 29405, Note_on_c, 12, 55, 0
12, 29765, Note_on_c, 12, 57, 100
12, 29885, Note_on_c, 12, 57, 0
12, 30245, Note_on_c, 12, 50, 100
12, 30365, Note_on_c, 12, 50, 0
12, 30725, Note_on_c, 12, 55, 100
12, 30845, Note_on_c, 12, 55, 0
12, 31205, Note_on_c, 12, 60, 100
12, 31265, Note_on_c, 12, 60, 0
12, 31325, Note_on_c, 12, 60, 100
12, 31385, Note_on_c, 12, 60, 0
12, 31565, Control_c, 12, 11, 58
12, 31565, Note_on_c, 12, 59, 100
12, 31570, Control_c, 12, 11, 61
12, 31576, Control_c, 12, 11, 64
12, 31581, Control_c, 12, 11, 67
12, 31587, Control_c, 12, 11, 70
12, 31593, Control_c, 12, 11, 73
12, 31603, Control_c, 12, 11, 70
12, 31614, Control_c, 12, 11, 67
12, 31624, Control_c, 12, 11, 64
12, 31635, Control_c, 12, 11, 61
12, 31646, Control_c, 12, 11, 58
12, 31656, Control_c, 12, 11, 55
12, 31667, Control_c, 12, 11, 52
12, 31677, Control_c, 12, 11, 49
12, 31685, Note_on_c, 12, 59, 0
12, 31685, Note_on_c, 12, 60, 100
12, 31745, Note_on_c, 12, 60, 0
12, 31805, Note_on_c, 12, 60, 100
12, 31865, Note_on_c, 12, 60, 0
12, 32045, Control_c, 12, 11, 58
12, 32045, Note_on_c, 12, 59, 100
12, 32050, Control_c, 12, 11, 61
12, 32056, Control_c, 12, 11, 64
12, 32061, Control_c, 12, 11, 67
12, 32067, Control_c, 12, 11, 70
12, 32073, Control_c, 12, 11, 73
12, 32083, Control_c, 12, 11, 70
12, 32094, Control_c, 12, 11, 67
12, 32104, Control_c, 12, 11, 64
12, 32115, Control_c, 12, 11, 61
12, 32126, Control_c, 12, 11, 58
12, 32136, Control_c, 12, 11, 55
12, 32147, Control_c, 12, 11, 52
12, 32157, Control_c, 12, 11, 49
12, 32165, Note_on_c, 12, 59, 0
12, 32165, Note_on_c, 12, 60, 100
12, 32275, Note_on_c, 12, 60, 0
12, 32285, Note_on_c, 12, 64, 100
12, 32405, Note_on_c, 12, 64, 0
12, 32405, Note_on_c, 12, 68, 100
12, 32525, Note_on_c, 12, 68, 0
12, 32525, Note_on_c, 12, 69, 100
12, 32635, Note_on_c, 12, 69, 0
12, 32645, Note_on_c, 12, 62, 100
12, 32885, Note_on_c, 12, 62, 0
12, 32885, Note_on_c, 12, 62, 100
12, 33100, Note_on_c, 12, 62, 0
12, 33120, Control_c, 12, 11, 47
12, 33121, Control_c, 12, 11, 55
12, 33122, Control_c, 12, 11, 63
12, 33123, Control_c, 12, 11, 71
12, 33124, Control_c, 12, 11, 79
12, 33125, Control_c, 12, 11, 87
12, 33125, Note_on_c, 12, 67, 110
12, 33145, Note_on_c, 12, 67, 0
12, 33155, Note_on_c, 12, 67, 110
12, 33175, Note_on_c, 12, 67, 0
12, 33185, Note_on_c, 12, 67, 110
12, 33205, Note_on_c, 12, 67, 0
12, 33215, Note_on_c, 12, 67, 110
12, 33235, Note_on_c, 12, 67, 0
12, 33245, Note_on_c, 12, 67, 110
12, 33305, Note_on_c, 12, 67, 0
12, 33365, Note_on_c, 12, 66, 110
12, 33385, Note_on_c, 12, 66, 0
12, 33395, Note_on_c, 12, 66, 110
12, 33415, Note_on_c, 12, 66, 0
12, 33425, Note_on_c, 12, 66, 110
12, 33445, Note_on_c, 12, 66, 0
12, 33455, Note_on_c, 12, 66, 110
12, 33475, Note_on_c, 12, 66, 0
12, 33485, Note_on_c, 12, 66, 110
12, 33545, Note_on_c, 12, 66, 0
12, 33605, Note_on_c, 12, 67, 110
12, 33625, Note_on_c, 12, 67, 0
12, 33635, Note_on_c, 12, 67, 110
12, 33655, Note_on_c, 12, 67, 0
12, 33665, Note_on_c, 12, 67, 110
12, 33685, Note_on_c, 12, 67, 0
12, 33695, Note_on_c, 12, 67, 110
12, 33715, Note_on_c, 12, 67, 0
12, 33725, Note_on_c, 12, 67, 110
12, 33785, Note_on_c, 12, 67, 0
12, 33845, Note_on_c, 12, 74, 110
12, 33845, Note_on_c, 12, 62, 110
12, 33895, Note_on_c, 12, 62, 0
12, 33895, Note_on_c, 12, 74, 0
12, 33905, Note_on_c, 12, 62, 110
12, 33905, Note_on_c, 12, 74, 110
12, 33955, Note_on_c, 12, 74, 0
12, 33955, Note_on_c, 12, 62, 0
12, 33965, Note_on_c, 12, 74, 110
12, 33965, Note_on_c, 12, 62, 110
12, 34015, Note_on_c, 12, 62, 0
12, 34015, Note_on_c, 12, 74, 0
12, 34025, Note_on_c, 12, 62, 110
12, 34025, Note_on_c, 12, 74, 110
12, 34075, Note_on_c, 12, 74, 0
12, 34075, Note_on_c, 12, 62, 0
12, 34085, Note_on_c, 12, 67, 110
12, 34105, Note_on_c, 12, 67, 0
12, 34115, Note_on_c, 12, 67, 110
12, 34135, Note_on_c, 12, 67, 0
12, 34145, Note_on_c, 12, 67, 110
12, 34165, Note_on_c, 12, 67, 0
12, 34175, Note_on_c, 12, 67, 110
12, 34195, Note_on_c, 12, 67, 0
12, 34205, Note_on_c, 12, 67, 110
12, 34265, Note_on_c, 12, 67, 0
12, 34325, Note_on_c, 12, 66, 110
12, 34345, Note_on_c, 12, 66, 0
12, 34355, Note_on_c, 12, 66, 110
12, 34375, Note_on_c, 12, 66, 0
12, 34385, Note_on_c, 12, 66, 110
12, 34405, Note_on_c, 12, 66, 0
12, 34415, Note_on_c, 12, 66, 110
12, 34435, Note_on_c, 12, 66, 0
12, 34445, Note_on_c, 12, 66, 110
12, 34505, Note_on_c, 12, 66, 0
12, 34565, Note_on_c, 12, 67, 110
12, 34585, Note_on_c, 12, 67, 0
12, 34595, Note_on_c, 12, 67, 110
12, 34615, Note_on_c, 12, 67, 0
12, 34625, Note_on_c, 12, 67, 110
12, 34645, Note_on_c, 12, 67, 0
12, 34655, Note_on_c, 12, 67, 110
12, 34675, Note_on_c, 12, 67, 0
12, 34685, Note_on_c, 12, 67, 110
12, 34745, Note_on_c, 12, 67, 0
12, 34805, Note_on_c, 12, 62, 110
12, 34805, Note_on_c, 12, 74, 110
12, 34855, Note_on_c, 12, 74, 0
12, 34855, Note_on_c, 12, 62, 0
12, 34865, Note_on_c, 12, 74, 110
12, 34865, Note_on_c, 12, 62, 110
12, 34915, Note_on_c, 12, 62, 0
12, 34915, Note_on_c, 12, 74, 0
12, 34925, Note_on_c, 12, 62, 110
12, 34925, Note_on_c, 12, 74, 110
12, 34975, Note_on_c, 12, 74, 0
12, 34975, Note_on_c, 12, 62, 0
12, 34985, Note_on_c, 12, 74, 110
12, 34985, Note_on_c, 12, 62, 110
12, 35035, Note_on_c, 12, 62, 0
12, 35035, Note_on_c, 12, 74, 0
12, 35045, Note_on_c, 12, 59, 110
12, 35045, Control_c, 12, 11, 107
12, 35063, Control_c, 12, 11, 104
12, 35081, Control_c, 12, 11, 101
12, 35099, Control_c, 12, 11, 98
12, 35117, Control_c, 12, 11, 95
12, 35135, Control_c, 12, 11, 92
12, 35153, Control_c, 12, 11, 89
12, 35215, Note_on_c, 12, 59, 0
12, 35225, Note_on_c, 12, 57, 110
12, 35275, Note_on_c, 12, 57, 0
12, 35285, Note_on_c, 12, 55, 110
12, 35335, Note_on_c, 12, 55, 0
12, 35345, Note_on_c, 12, 57, 110
12, 35395, Note_on_c, 12, 57, 0
12, 35405, Note_on_c, 12, 58, 110
12, 35455, Note_on_c, 12, 58, 0
12, 35465, Note_on_c, 12, 59, 110
12, 35515, Note_on_c, 12, 59, 0
12, 35525, Control_c, 12, 11, 107
12, 35525, Note_on_c, 12, 60, 110
12, 35543, Control_c, 12, 11, 104
12, 35561, Control_c, 12, 11, 101
12, 35579, Control_c, 12, 11, 98
12, 35597, Control_c, 12, 11, 95
12, 35615, Control_c, 12, 11, 92
12, 35633, Control_c, 12, 11, 89
12, 35695, Note_on_c, 12, 60, 0
12, 35705, Note_on_c, 12, 59, 110
12, 35755, Note_on_c, 12, 59, 0
12, 35765, Note_on_c, 12, 64, 110
12, 35815, Note_on_c, 12, 64, 0
12, 35825, Note_on_c, 12, 62, 110
12, 35875, Note_on_c, 12, 62, 0
12, 35885, Note_on_c, 12, 60, 110
12, 35935, Note_on_c, 12, 60, 0
12, 35945, Note_on_c, 12, 61, 110
12, 35995, Note_on_c, 12, 61, 0
12, 36005, Control_c, 12, 11, 87
12, 36005, Note_on_c, 12, 62, 110
12, 36035, Note_on_c, 12, 62, 0
12, 36037, Control_c, 12, 11, 88
12, 36065, Note_on_c, 12, 71, 110
12, 36069, Control_c, 12, 11, 89
12, 36095, Note_on_c, 12, 71, 0
12, 36101, Control_c, 12, 11, 90
12, 36125, Note_on_c, 12, 69, 110
12, 36133, Control_c, 12, 11, 91
12, 36155, Note_on_c, 12, 69, 0
12, 36165, Control_c, 12, 11, 92
12, 36185, Note_on_c, 12, 67, 110
12, 36197, Control_c, 12, 11, 93
12, 36215, Note_on_c, 12, 67, 0
12, 36229, Control_c, 12, 11, 94
12, 36245, Note_on_c, 12, 66, 110
12, 36261, Control_c, 12, 11, 95
12, 36275, Note_on_c, 12, 66, 0
12, 36293, Control_c, 12, 11, 96
12, 36305, Note_on_c, 12, 64, 110
12, 36325, Control_c, 12, 11, 97
12, 36335, Note_on_c, 12, 64, 0
12, 36357, Control_c, 12, 11, 98
12, 36365, Note_on_c, 12, 62, 110
12, 36389, Control_c, 12, 11, 99
12, 36395, Note_on_c, 12, 62, 0
12, 36421, Control_c, 12, 11, 100
12, 36425, Note_on_c, 12, 60, 110
12, 36453, Control_c, 12, 11, 101
12, 36455, Note_on_c, 12, 60, 0
12, 36485, Note_on_c, 12, 59, 110
12, 36485, Control_c, 12, 11, 102
12, 36545, Note_on_c, 12, 59, 0
12, 36605, Note_on_c, 12, 67, 110
12, 36665, Note_on_c, 12, 67, 0
12, 36725, Note_on_c, 12, 67, 110
12, 36785, Note_on_c, 12, 67, 0
12, 36845, Note_on_c, 12, 60, 110
12, 36905, Note_on_c, 12, 60, 0
12, 36965, Control_c, 12, 11, 72
12, 36965, Note_on_c, 12, 59, 110
12, 36995, Control_c, 12, 11, 72
12, 37010, Control_c, 12, 11, 69
12, 37025, Control_c, 12, 11, 66
12, 37041, Control_c, 12, 11, 63
12, 37056, Control_c, 12, 11, 60
12, 37072, Control_c, 12, 11, 57
12, 37075, Note_on_c, 12, 59, 0
12, 37085, Note_on_c, 12, 55, 100
12, 37087, Control_c, 12, 11, 54
12, 37103, Control_c, 12, 11, 51
12, 37118, Control_c, 12, 11, 48
12, 37133, Control_c, 12, 11, 45
12, 37149, Control_c, 12, 11, 42
12, 37164, Control_c, 12, 11, 39
12, 37171, Note_on_c, 12, 55, 0
12, 37205, Note_on_c, 12, 55, 100
12, 37291, Note_on_c, 12, 55, 0
12, 37325, Note_on_c, 12, 55, 100
12, 37411, Note_on_c, 12, 55, 0
12, 37445, Note_on_c, 12, 55, 100
12, 37531, Note_on_c, 12, 55, 0
12, 37565, Note_on_c, 12, 55, 100
12, 37651, Note_on_c, 12, 55, 0
12, 37685, Note_on_c, 12, 55, 100
12, 37771, Note_on_c, 12, 55, 0
12, 37805, Note_on_c, 12, 55, 100
12, 37891, Note_on_c, 12, 55, 0
12, 37925, Note_on_c, 12, 57, 100
12, 38011, Note_on_c, 12, 57, 0
12, 38045, Note_on_c, 12, 53, 100
12, 38131, Note_on_c, 12, 53, 0
12, 38165, Note_on_c, 12, 53, 100
12, 38251, Note_on_c, 12, 53, 0
12, 38285, Note_on_c, 12, 53, 100
12, 38371, Note_on_c, 12, 53, 0
12, 38405, Note_on_c, 12, 53, 100
12, 38491, Note_on_c, 12, 53, 0
12, 38525, Note_on_c, 12, 53, 100
12, 38611, Note_on_c, 12, 53, 0
12, 38645, Note_on_c, 12, 53, 100
12, 38731, Note_on_c, 12, 53, 0
12, 38765, Note_on_c, 12, 53, 100
12, 38851, Note_on_c, 12, 53, 0
12, 38885, Note_on_c, 12, 55, 100
12, 38971, Note_on_c, 12, 55, 0
12, 39005, Note_on_c, 12, 55, 100
12, 39091, Note_on_c, 12, 55, 0
12, 39125, Note_on_c, 12, 53, 100
12, 39211, Note_on_c, 12, 53, 0
12, 39245, Note_on_c, 12, 57, 100
12, 39331, Note_on_c, 12, 57, 0
12, 39365, Note_on_c, 12, 57, 100
12, 39451, Note_on_c, 12, 57, 0
12, 39485, Note_on_c, 12, 62, 100
12, 39571, Note_on_c, 12, 62, 0
12, 39605, Note_on_c, 12, 62, 100
12, 39691, Note_on_c, 12, 62, 0
12, 39725, Note_on_c, 12, 62, 101
12, 39811, Note_on_c, 12, 62, 0
12, 39845, Note_on_c, 12, 62, 102
12, 39931, Note_on_c, 12, 62, 0
12, 39965, Note_on_c, 12, 62, 103
12, 40051, Note_on_c, 12, 62, 0
12, 40085, Note_on_c, 12, 62, 104
12, 40171, Note_on_c, 12, 62, 0
12, 40205, Note_on_c, 12, 67, 105
12, 40291, Note_on_c, 12, 67, 0
12, 40325, Note_on_c, 12, 67, 106
12, 40411, Note_on_c, 12, 67, 0
12, 40445, Note_on_c, 12, 67, 107
12, 40531, Note_on_c, 12, 67, 0
12, 40565, Note_on_c, 12, 67, 108
12, 40651, Note_on_c, 12, 67, 0
12, 40685, Note_on_c, 12, 67, 109
12, 40771, Note_on_c, 12, 67, 0
12, 40805, Note_on_c, 12, 66, 110
12, 40891, Note_on_c, 12, 66, 0
12, 40925, Note_on_c, 12, 69, 110
12, 40925, Control_c, 12, 11, 37
12, 40957, Control_c, 12, 11, 38
12, 40990, Control_c, 12, 11, 39
12, 41011, Note_on_c, 12, 69, 0
12, 41023, Control_c, 12, 11, 40
12, 41045, Note_on_c, 12, 69, 110
12, 41056, Control_c, 12, 11, 41
12, 41089, Control_c, 12, 11, 42
12, 41122, Control_c, 12, 11, 43
12, 41131, Note_on_c, 12, 69, 0
12, 41155, Control_c, 12, 11, 44
12, 41165, Note_on_c, 12, 69, 110
12, 41188, Control_c, 12, 11, 45
12, 41221, Control_c, 12, 11, 46
12, 41251, Note_on_c, 12, 69, 0
12, 41254, Control_c, 12, 11, 47
12, 41285, Note_on_c, 12, 67, 110
12, 41287, Control_c, 12, 11, 48
12, 41320, Control_c, 12, 11, 49
12, 41353, Control_c, 12, 11, 50
12, 41371, Note_on_c, 12, 67, 0
12, 41386, Control_c, 12, 11, 51
12, 41405, Note_on_c, 12, 67, 110
12, 41419, Control_c, 12, 11, 52
12, 41452, Control_c, 12, 11, 53
12, 41485, Control_c, 12, 11, 54
12, 41491, Note_on_c, 12, 67, 0
12, 41518, Control_c, 12, 11, 55
12, 41525, Note_on_c, 12, 67, 110
12, 41551, Control_c, 12, 11, 56
12, 41584, Control_c, 12, 11, 57
12, 41611, Note_on_c, 12, 67, 0
12, 41617, Control_c, 12, 11, 58
12, 41645, Note_on_c, 12, 67, 110
12, 41650, Control_c, 12, 11, 59
12, 41683, Control_c, 12, 11, 60
12, 41716, Control_c, 12, 11, 61
12, 41731, Note_on_c, 12, 67, 0
12, 41749, Control_c, 12, 11, 62
12, 41765, Note_on_c, 12, 64, 110
12, 41782, Control_c, 12, 11, 63
12, 41815, Control_c, 12, 11, 64
12, 41848, Control_c, 12, 11, 65
12, 41851, Note_on_c, 12, 64, 0
12, 41881, Control_c, 12, 11, 66
12, 41885, Note_on_c, 12, 69, 110
12, 41914, Control_c, 12, 11, 67
12, 41947, Control_c, 12, 11, 68
12, 41971, Note_on_c, 12, 69, 0
12, 41980, Control_c, 12, 11, 69
12, 42005, Note_on_c, 12, 69, 110
12, 42013, Control_c, 12, 11, 70
12, 42046, Control_c, 12, 11, 71
12, 42079, Control_c, 12, 11, 72
12, 42091, Note_on_c, 12, 69, 0
12, 42112, Control_c, 12, 11, 73
12, 42125, Note_on_c, 12, 69, 110
12, 42145, Control_c, 12, 11, 74
12, 42178, Control_c, 12, 11, 75
12, 42211, Note_on_c, 12, 69, 0
12, 42211, Control_c, 12, 11, 76
12, 42244, Control_c, 12, 11, 77
12, 42245, Control_c, 12, 11, 97
12, 42245, Note_on_c, 12, 55, 110
12, 42269, Control_c, 12, 11, 95
12, 42293, Control_c, 12, 11, 93
12, 42317, Control_c, 12, 11, 91
12, 42341, Control_c, 12, 11, 89
12, 42355, Note_on_c, 12, 55, 0
12, 42365, Note_on_c, 12, 50, 110
12, 42365, Control_c, 12, 11, 87
12, 42455, Note_on_c, 12, 50, 0
12, 42455, Note_on_c, 12, 54, 110
12, 42475, Note_on_c, 12, 54, 0
12, 42485, Note_on_c, 12, 55, 110
12, 42485, Control_c, 12, 11, 107
12, 42503, Control_c, 12, 11, 104
12, 42521, Control_c, 12, 11, 101
12, 42539, Control_c, 12, 11, 98
12, 42557, Control_c, 12, 11, 95
12, 42575, Control_c, 12, 11, 92
12, 42593, Control_c, 12, 11, 89
12, 42835, Note_on_c, 12, 55, 0
12, 42845, Note_on_c, 12, 50, 110
12, 42935, Note_on_c, 12, 50, 0
12, 42935, Note_on_c, 12, 54, 110
12, 42955, Note_on_c, 12, 54, 0
12, 42965, Note_on_c, 12, 55, 110
12, 42965, Control_c, 12, 11, 107
12, 42983, Control_c, 12, 11, 104
12, 43001, Control_c, 12, 11, 101
12, 43019, Control_c, 12, 11, 98
12, 43037, Control_c, 12, 11, 95
12, 43055, Control_c, 12, 11, 92
12, 43073, Control_c, 12, 11, 89
12, 43325, Note_on_c, 12, 55, 0
12, 43445, Note_on_c, 12, 66, 110
12, 43445, Control_c, 12, 11, 107
12, 43463, Control_c, 12, 11, 104
12, 43481, Control_c, 12, 11, 101
12, 43499, Control_c, 12, 11, 98
12, 43517, Control_c, 12, 11, 95
12, 43535, Control_c, 12, 11, 92
12, 43553, Control_c, 12, 11, 89
12, 43565, Note_on_c, 12, 66, 0
12, 43685, Control_c, 12, 11, 107
12, 43685, Note_on_c, 12, 67, 110
12, 43702, Control_c, 12, 11, 104
12, 43720, Control_c, 12, 11, 101
12, 43738, Control_c, 12, 11, 98
12, 43756, Control_c, 12, 11, 95
12, 43774, Control_c, 12, 11, 92
12, 43792, Control_c, 12, 11, 89
12, 43805, Note_on_c, 12, 67, 0
12, 43925, Note_on_c, 12, 62, 110
12, 43925, Control_c, 12, 11, 107
12, 43925, Note_on_c, 12, 74, 110
12, 43942, Control_c, 12, 11, 104
12, 43960, Control_c, 12, 11, 101
12, 43978, Control_c, 12, 11, 98
12, 43996, Control_c, 12, 11, 95
12, 44014, Control_c, 12, 11, 92
12, 44032, Control_c, 12, 11, 89
12, 44045, Note_on_c, 12, 74, 0
12, 44045, Note_on_c, 12, 62, 0
12, 44165, Note_on_c, 12, 59, 110
12, 44225, Note_on_c, 12, 59, 0
12, 44285, Note_on_c, 12, 62, 110
12, 44345, Note_on_c, 12, 62, 0
12, 44405, Note_on_c, 12, 67, 110
12, 44465, Note_on_c, 12, 67, 0
12, 44525, Note_on_c, 12, 71, 110
12, 44585, Note_on_c, 12, 71, 0
12, 44645, Note_on_c, 12, 57, 110
12, 44705, Note_on_c, 12, 57, 0
12, 44765, Note_on_c, 12, 60, 110
12, 44825, Note_on_c, 12, 60, 0
12, 44885, Note_on_c, 12, 66, 110
12, 44945, Note_on_c, 12, 66, 0
12, 45005, Note_on_c, 12, 69, 110
12, 45065, Note_on_c, 12, 69, 0
12, 45125, Control_c, 12, 11, 102
12, 45125, Note_on_c, 12, 56, 110
12, 45185, Note_on_c, 12, 56, 0
12, 45245, Note_on_c, 12, 59, 110
12, 45305, Note_on_c, 12, 59, 0
12, 45365, Note_on_c, 12, 64, 110
12, 45425, Note_on_c, 12, 64, 0
12, 45485, Note_on_c, 12, 68, 110
12, 45545, Note_on_c, 12, 68, 0
12, 45605, Note_on_c, 12, 62, 110
12, 45665, Note_on_c, 12, 62, 0
12, 45725, Note_on_c, 12, 74, 110
12, 45785, Note_on_c, 12, 74, 0
12, 45845, Note_on_c, 12, 74, 110
12, 45905, Note_on_c, 12, 74, 0
12, 45965, Note_on_c, 12, 74, 110
12, 46025, Note_on_c, 12, 74, 0
12, 46085, Note_on_c, 12, 60, 110
12, 46145, Note_on_c, 12, 60, 0
12, 46205, Note_on_c, 12, 72, 110
12, 46265, Note_on_c, 12, 72, 0
12, 46325, Note_on_c, 12, 72, 110
12, 46385, Note_on_c, 12, 72, 0
12, 46445, Note_on_c, 12, 72, 110
12, 46505, Note_on_c, 12, 72, 0
12, 46565, Note_on_c, 12, 61, 110
12, 46625, Note_on_c, 12, 61, 0
12, 46685, Note_on_c, 12, 67, 110
12, 46745, Note_on_c, 12, 67, 0
12, 46805, Note_on_c, 12, 64, 110
12, 46865, Note_on_c, 12, 64, 0
12, 46925, Note_on_c, 12, 61, 110
12, 46985, Note_on_c, 12, 61, 0
12, 47045, Control_c, 12, 11, 122
12, 47045, Note_on_c, 12, 62, 110
12, 47062, Control_c, 12, 11, 119
12, 47080, Control_c, 12, 11, 116
12, 47095, Note_on_c, 12, 62, 0
12, 47098, Control_c, 12, 11, 113
12, 47105, Note_on_c, 12, 62, 110
12, 47116, Control_c, 12, 11, 110
12, 47134, Control_c, 12, 11, 107
12, 47152, Control_c, 12, 11, 104
12, 47155, Note_on_c, 12, 62, 0
12, 47165, Note_on_c, 12, 62, 110
12, 47215, Note_on_c, 12, 62, 0
12, 47225, Note_on_c, 12, 62, 110
12, 47275, Note_on_c, 12, 62, 0
12, 47285, Note_on_c, 12, 64, 110
12, 47285, Control_c, 12, 11, 122
12, 47302, Control_c, 12, 11, 119
12, 47320, Control_c, 12, 11, 116
12, 47335, Note_on_c, 12, 64, 0
12, 47338, Control_c, 12, 11, 113
12, 47345, Note_on_c, 12, 64, 110
12, 47356, Control_c, 12, 11, 110
12, 47374, Control_c, 12, 11, 107
12, 47392, Control_c, 12, 11, 104
12, 47395, Note_on_c, 12, 64, 0
12, 47405, Note_on_c, 12, 64, 110
12, 47455, Note_on_c, 12, 64, 0
12, 47465, Note_on_c, 12, 64, 110
12, 47515, Note_on_c, 12, 64, 0
12, 47525, Control_c, 12, 11, 122
12, 47525, Note_on_c, 12, 60, 110
12, 47542, Control_c, 12, 11, 119
12, 47560, Control_c, 12, 11, 116
12, 47575, Note_on_c, 12, 60, 0
12, 47578, Control_c, 12, 11, 113
12, 47585, Note_on_c, 12, 60, 110
12, 47596, Control_c, 12, 11, 110
12, 47614, Control_c, 12, 11, 107
12, 47632, Control_c, 12, 11, 104
12, 47635, Note_on_c, 12, 60, 0
12, 47645, Note_on_c, 12, 60, 110
12, 47695, Note_on_c, 12, 60, 0
12, 47705, Note_on_c, 12, 60, 110
12, 47755, Note_on_c, 12, 60, 0
12, 47765, Control_c, 12, 11, 122
12, 47765, Note_on_c, 12, 62, 110
12, 47782, Control_c, 12, 11, 119
12, 47800, Control_c, 12, 11, 116
12, 47815, Note_on_c, 12, 62, 0
12, 47818, Control_c, 12, 11, 113
12, 47825, Note_on_c, 12, 62, 110
12, 47836, Control_c, 12, 11, 110
12, 47854, Control_c, 12, 11, 107
12, 47872, Control_c, 12, 11, 104
12, 47875, Note_on_c, 12, 62, 0
12, 47885, Note_on_c, 12, 62, 110
12, 47935, Note_on_c, 12, 62, 0
12, 47945, Note_on_c, 12, 62, 110
12, 47995, Note_on_c, 12, 62, 0
12, 48005, Control_c, 12, 11, 87
12, 48005, Note_on_c, 12, 55, 110
12, 48023, Control_c, 12, 11, 84
12, 48041, Control_c, 12, 11, 81
12, 48059, Control_c, 12, 11, 78
12, 48077, Control_c, 12, 11, 75
12, 48095, Control_c, 12, 11, 72
12, 48113, Control_c, 12, 11, 69
12, 48125, Note_on_c, 12, 55, 0
12, 48845, Note_on_c, 12, 62, 110
12, 48845, Control_c, 12, 11, 63
12, 48851, Control_c, 12, 11, 66
12, 48858, Control_c, 12, 11, 69
12, 48866, Control_c, 12, 11, 72
12, 48881, Control_c, 12, 11, 71
12, 48899, Control_c, 12, 11, 68
12, 48917, Control_c, 12, 11, 65
12, 48935, Control_c, 12, 11, 62
12, 48953, Control_c, 12, 11, 59
12, 48965, Note_on_c, 12, 62, 0
12, 48965, Note_on_c, 12, 67, 110
12, 48965, Control_c, 12, 11, 47
12, 48971, Control_c, 12, 11, 56
12, 48989, Control_c, 12, 11, 53
12, 49007, Control_c, 12, 11, 50
12, 49085, Note_on_c, 12, 67, 0
12, 49805, Note_on_c, 12, 62, 110
12, 49805, Control_c, 12, 11, 63
12, 49811, Control_c, 12, 11, 66
12, 49818, Control_c, 12, 11, 69
12, 49826, Control_c, 12, 11, 72
12, 49841, Control_c, 12, 11, 71
12, 49859, Control_c, 12, 11, 68
12, 49877, Control_c, 12, 11, 65
12, 49895, Control_c, 12, 11, 62
12, 49913, Control_c, 12, 11, 59
12, 49925, Note_on_c, 12, 62, 0
12, 49925, Note_on_c, 12, 67, 110
12, 49925, Control_c, 12, 11, 47
12, 49931, Control_c, 12, 11, 56
12, 49949, Control_c, 12, 11, 53
12, 49967, Control_c, 12, 11, 50
12, 50045, Note_on_c, 12, 67, 0
12, 50285, Note_on_c, 12, 62, 110
12, 50285, Control_c, 12, 11, 63
12, 50291, Control_c, 12, 11, 66
12, 50298, Control_c, 12, 11, 69
12, 50306, Control_c, 12, 11, 72
12, 50321, Control_c, 12, 11, 71
12, 50339, Control_c, 12, 11, 68
12, 50357, Control_c, 12, 11, 65
12, 50375, Control_c, 12, 11, 62
12, 50393, Control_c, 12, 11, 59
12, 50405, Note_on_c, 12, 62, 0
12, 50405, Note_on_c, 12, 67, 110
12, 50405, Control_c, 12, 11, 47
12, 50411, Control_c, 12, 11, 56
12, 50429, Control_c, 12, 11, 53
12, 50447, Control_c, 12, 11, 50
12, 50525, Note_on_c, 12, 67, 0
12, 50760, Control_c, 12, 11, 67
12, 50761, Control_c, 12, 11, 74
12, 50762, Control_c, 12, 11, 81
12, 50763, Control_c, 12, 11, 88
12, 50764, Control_c, 12, 11, 95
12, 50765, Control_c, 12, 11, 102
12, 50765, Note_on_c, 12, 62, 110
12, 50825, Note_on_c, 12, 62, 0
12, 50885, Note_on_c, 12, 67, 110
12, 50885, Note_on_c, 12, 55, 110
12, 50945, Note_on_c, 12, 55, 0
12, 50945, Note_on_c, 12, 67, 0
12, 51845, Note_on_c, 12, 65, 100
12, 51845, Note_on_c, 12, 55, 100
12, 51965, Note_on_c, 12, 55, 0
12, 51965, Note_on_c, 12, 65, 0
12, 52684, Program_c, 12, 50
12, 52685, Control_c, 12, 11, 47
12, 52685, Note_on_c, 12, 55, 100
12, 52775, Note_on_c, 12, 55, 0
12, 52775, Note_on_c, 12, 59, 100
12, 52795, Note_on_c, 12, 59, 0
12, 52805, Note_on_c, 12, 60, 90
12, 52925, Note_on_c, 12, 60, 0
12, 53284, Program_c, 12, 48
12, 53285, Note_on_c, 12, 52, 67
12, 53405, Note_on_c, 12, 52, 0
12, 53765, Note_on_c, 12, 52, 67
12, 53885, Note_on_c, 12, 52, 0
12, 54005, Note_on_c, 12, 52, 67
12, 54125, Note_on_c, 12, 52, 0
12, 54245, Note_on_c, 12, 52, 67
12, 54365, Note_on_c, 12, 52, 0
12, 55565, Note_on_c, 12, 57, 110
12, 55595, Note_on_c, 12, 57, 0
12, 55595, Note_on_c, 12, 55, 110
12, 55625, Note_on_c, 12, 55, 0
12, 55625, Note_on_c, 12, 53, 110
12, 55655, Note_on_c, 12, 53, 0
12, 55655, Note_on_c, 12, 52, 110
12, 55685, Note_on_c, 12, 52, 0
12, 55685, Note_on_c, 12, 50, 110
12, 55805, Note_on_c, 12, 50, 0
12, 56165, Note_on_c, 12, 53, 78
12, 56285, Note_on_c, 12, 53, 0
12, 56645, Note_on_c, 12, 53, 78
12, 56765, Note_on_c, 12, 53, 0
12, 56885, Note_on_c, 12, 53, 78
12, 57005, Note_on_c, 12, 53, 0
12, 57125, Note_on_c, 12, 53, 78
12, 57245, Note_on_c, 12, 53, 0
12, 57605, Note_on_c, 12, 62, 110
12, 57605, Control_c, 12, 11, 32
12, 57616, Control_c, 12, 11, 35
12, 57627, Control_c, 12, 11, 38
12, 57638, Control_c, 12, 11, 41
12, 57650, Control_c, 12, 11, 44
12, 57661, Control_c, 12, 11, 47
12, 57701, Control_c, 12, 11, 50
12, 57733, Control_c, 12, 11, 51
12, 57765, Control_c, 12, 11, 52
12, 57797, Control_c, 12, 11, 53
12, 57829, Control_c, 12, 11, 54
12, 57861, Control_c, 12, 11, 55
12, 57893, Control_c, 12, 11, 56
12, 57925, Control_c, 12, 11, 57
12, 57957, Control_c, 12, 11, 58
12, 57989, Control_c, 12, 11, 59
12, 58021, Control_c, 12, 11, 60
12, 58053, Control_c, 12, 11, 61
12, 58084, Program_c, 12, 50
12, 58085, Note_on_c, 12, 62, 0
12, 58085, Control_c, 12, 11, 62
12, 58085, Note_on_c, 12, 62, 110
12, 58105, Note_on_c, 12, 62, 0
12, 58105, Note_on_c, 12, 60, 110
12, 58117, Control_c, 12, 11, 63
12, 58125, Note_on_c, 12, 60, 0
12, 58125, Note_on_c, 12, 62, 110
12, 58145, Note_on_c, 12, 62, 0
12, 58145, Note_on_c, 12, 60, 110
12, 58149, Control_c, 12, 11, 64
12, 58165, Note_on_c, 12, 60, 0
12, 58165, Note_on_c, 12, 62, 110
12, 58181, Control_c, 12, 11, 65
12, 58185, Note_on_c, 12, 62, 0
12, 58185, Note_on_c, 12, 60, 110
12, 58205, Note_on_c, 12, 60, 0
12, 58205, Note_on_c, 12, 62, 110
12, 58213, Control_c, 12, 11, 66
12, 58225, Note_on_c, 12, 62, 0
12, 58225, Note_on_c, 12, 60, 110
12, 58245, Note_on_c, 12, 60, 0
12, 58245, Control_c, 12, 11, 67
12, 58245, Note_on_c, 12, 62, 110
12, 58265, Note_on_c, 12, 62, 0
12, 58265, Note_on_c, 12, 60, 110
12, 58277, Control_c, 12, 11, 68
12, 58285, Note_on_c, 12, 60, 0
12, 58285, Note_on_c, 12, 62, 110
12, 58305, Note_on_c, 12, 62, 0
12, 58305, Note_on_c, 12, 60, 110
12, 58309, Control_c, 12, 11, 69
12, 58325, Note_on_c, 12, 60, 0
12, 58325, Note_on_c, 12, 62, 110
12, 58341, Control_c, 12, 11, 70
12, 58345, Note_on_c, 12, 62, 0
12, 58345, Note_on_c, 12, 60, 110
12, 58365, Note_on_c, 12, 60, 0
12, 58365, Note_on_c, 12, 62, 110
12, 58373, Control_c, 12, 11, 71
12, 58385, Note_on_c, 12, 62, 0
12, 58385, Note_on_c, 12, 60, 110
12, 58405, Note_on_c, 12, 60, 0
12, 58405, Note_on_c, 12, 62, 110
12, 58405, Control_c, 12, 11, 72
12, 58425, Note_on_c, 12, 62, 0
12, 58425, Note_on_c, 12, 60, 110
12, 58437, Control_c, 12, 11, 73
12, 58445, Note_on_c, 12, 60, 0
12, 58445, Note_on_c, 12, 62, 110
12, 58465, Note_on_c, 12, 62, 0
12, 58465, Note_on_c, 12, 60, 110
12, 58469, Control_c, 12, 11, 74
12, 58485, Note_on_c, 12, 60, 0
12, 58485, Note_on_c, 12, 62, 110
12, 58501, Control_c, 12, 11, 75
12, 58505, Note_on_c, 12, 62, 0
12, 58505, Note_on_c, 12, 59, 110
12, 58533, Control_c, 12, 11, 76
12, 58535, Note_on_c, 12, 59, 0
12, 58535, Note_on_c, 12, 60, 110
12, 58565, Note_on_c, 12, 60, 0
12, 58565, Control_c, 12, 11, 84
12, 58565, Note_on_c, 12, 59, 110
12, 58570, Control_c, 12, 11, 87
12, 58575, Control_c, 12, 11, 90
12, 58580, Control_c, 12, 11, 93
12, 58600, Control_c, 12, 11, 91
12, 58618, Control_c, 12, 11, 88
12, 58636, Control_c, 12, 11, 85
12, 58654, Control_c, 12, 11, 82
12, 58672, Control_c, 12, 11, 79
12, 58685, Control_c, 12, 11, 67
12, 58835, Control_c, 12, 11, 67
12, 58841, Control_c, 12, 11, 64
12, 58847, Control_c, 12, 11, 61
12, 58853, Control_c, 12, 11, 58
12, 58859, Control_c, 12, 11, 55
12, 58865, Control_c, 12, 11, 52
12, 58871, Control_c, 12, 11, 49
12, 58873, Note_on_c, 12, 59, 0
12, 59405, Control_c, 12, 11, 67
12, 59405, Note_on_c, 12, 55, 110
12, 59495, Note_on_c, 12, 55, 0
12, 59495, Note_on_c, 12, 59, 110
12, 59525, Note_on_c, 12, 59, 0
12, 59525, Control_c, 12, 11, 97
12, 59525, Note_on_c, 12, 62, 110
12, 59543, Control_c, 12, 11, 94
12, 59561, Control_c, 12, 11, 91
12, 59579, Control_c, 12, 11, 88
12, 59597, Control_c, 12, 11, 85
12, 59615, Control_c, 12, 11, 82
12, 59633, Control_c, 12, 11, 79
12, 59795, Control_c, 12, 11, 67
12, 59801, Control_c, 12, 11, 64
12, 59807, Control_c, 12, 11, 61
12, 59813, Control_c, 12, 11, 58
12, 59819, Control_c, 12, 11, 55
12, 59825, Control_c, 12, 11, 52
12, 59831, Control_c, 12, 11, 49
12, 59833, Note_on_c, 12, 62, 0
12, 60365, Note_on_c, 12, 59, 110
12, 60365, Control_c, 12, 11, 67
12, 60455, Note_on_c, 12, 59, 0
12, 60455, Note_on_c, 12, 62, 110
12, 60485, Note_on_c, 12, 62, 0
12, 60485, Control_c, 12, 11, 97
12, 60485, Note_on_c, 12, 65, 110
12, 60503, Control_c, 12, 11, 94
12, 60521, Control_c, 12, 11, 91
12, 60539, Control_c, 12, 11, 88
12, 60557, Control_c, 12, 11, 85
12, 60575, Control_c, 12, 11, 82
12, 60593, Control_c, 12, 11, 79
12, 60755, Control_c, 12, 11, 67
12, 60761, Control_c, 12, 11, 64
12, 60767, Control_c, 12, 11, 61
12, 60773, Control_c, 12, 11, 58
12, 60779, Control_c, 12, 11, 55
12, 60785, Control_c, 12, 11, 52
12, 60791, Control_c, 12, 11, 49
12, 60793, Note_on_c, 12, 65, 0
12, 60965, Control_c, 12, 11, 77
12, 60984, Control_c, 12, 11, 78
12, 61003, Control_c, 12, 11, 79
12, 61022, Control_c, 12, 11, 80
12, 61041, Control_c, 12, 11, 81
12, 61060, Control_c, 12, 11, 82
12, 61079, Control_c, 12, 11, 83
12, 61099, Control_c, 12, 11, 84
12, 61118, Control_c, 12, 11, 85
12, 61137, Control_c, 12, 11, 86
12, 61156, Control_c, 12, 11, 87
12, 61175, Control_c, 12, 11, 88
12, 61194, Control_c, 12, 11, 89
12, 61205, Note_on_c, 12, 65, 100
12, 61214, Control_c, 12, 11, 90
12, 61233, Control_c, 12, 11, 91
12, 61235, Note_on_c, 12, 65, 0
12, 61252, Control_c, 12, 11, 92
12, 61265, Note_on_c, 12, 62, 100
12, 61271, Control_c, 12, 11, 93
12, 61290, Control_c, 12, 11, 94
12, 61295, Note_on_c, 12, 62, 0
12, 61309, Control_c, 12, 11, 95
12, 61325, Note_on_c, 12, 59, 100
12, 61329, Control_c, 12, 11, 96
12, 61348, Control_c, 12, 11, 97
12, 61355, Note_on_c, 12, 59, 0
12, 61367, Control_c, 12, 11, 98
12, 61385, Note_on_c, 12, 55, 100
12, 61386, Control_c, 12, 11, 99
12, 61405, Control_c, 12, 11, 100
12, 61415, Note_on_c, 12, 55, 0
12, 61424, Control_c, 12, 11, 101
12, 61444, Control_c, 12, 11, 102
12, 61445, Note_on_c, 12, 60, 100
12, 61505, Note_on_c, 12, 60, 0
12, 61684, Program_c, 12, 48
12, 61685, Note_on_c, 12, 65, 100
12, 61745, Note_on_c, 12, 65, 0
12, 61925, Note_on_c, 12, 67, 100
12, 61985, Note_on_c, 12, 67, 0
12, 62165, Note_on_c, 12, 55, 100
12, 62225, Note_on_c, 12, 55, 0
12, 62405, Note_on_c, 12, 60, 100
12, 62455, Note_on_c, 12, 60, 0
12, 62465, Note_on_c, 12, 55, 100
12, 62465, Note_on_c, 12, 52, 100
12, 62515, Note_on_c, 12, 52, 0
12, 62515, Note_on_c, 12, 55, 0
12, 62525, Note_on_c, 12, 52, 100
12, 62525, Note_on_c, 12, 55, 100
12, 62575, Note_on_c, 12, 55, 0
12, 62575, Note_on_c, 12, 52, 0
12, 62585, Note_on_c, 12, 52, 100
12, 62585, Note_on_c, 12, 55, 100
12, 62635, Note_on_c, 12, 55, 0
12, 62635, Note_on_c, 12, 52, 0
12, 62645, Note_on_c, 12, 55, 100
12, 62645, Note_on_c, 12, 52, 100
12, 62695, Note_on_c, 12, 52, 0
12, 62695, Note_on_c, 12, 55, 0
12, 62705, Note_on_c, 12, 55, 100
12, 62705, Note_on_c, 12, 52, 100
12, 62755, Note_on_c, 12, 52, 0
12, 62755, Note_on_c, 12, 55, 0
12, 62765, Note_on_c, 12, 52, 100
12, 62765, Note_on_c, 12, 55, 100
12, 62815, Note_on_c, 12, 55, 0
12, 62815, Note_on_c, 12, 52, 0
12, 62825, Note_on_c, 12, 55, 100
12, 62825, Note_on_c, 12, 52, 100
12, 62875, Note_on_c, 12, 52, 0
12, 62875, Note_on_c, 12, 55, 0
12, 62885, Control_c, 12, 11, 122
12, 62885, Note_on_c, 12, 52, 100
12, 62885, Note_on_c, 12, 55, 100
12, 62903, Control_c, 12, 11, 119
12, 62921, Control_c, 12, 11, 116
12, 62935, Note_on_c, 12, 55, 0
12, 62935, Note_on_c, 12, 52, 0
12, 62939, Control_c, 12, 11, 113
12, 62945, Note_on_c, 12, 55, 100
12, 62945, Note_on_c, 12, 52, 100
12, 62957, Control_c, 12, 11, 110
12, 62975, Control_c, 12, 11, 107
12, 62993, Control_c, 12, 11, 104
12, 62995, Note_on_c, 12, 52, 0
12, 62995, Note_on_c, 12, 55, 0
12, 63005, Note_on_c, 12, 55, 100
12, 63005, Note_on_c, 12, 52, 100
12, 63055, Note_on_c, 12, 52, 0
12, 63055, Note_on_c, 12, 55, 0
12, 63065, Note_on_c, 12, 52, 100
12, 63065, Note_on_c, 12, 55, 100
12, 63115, Note_on_c, 12, 55, 0
12, 63115, Note_on_c, 12, 52, 0
12, 63125, Note_on_c, 12, 52, 100
12, 63125, Note_on_c, 12, 55, 100
12, 63175, Note_on_c, 12, 55, 0
12, 63175, Note_on_c, 12, 52, 0
12, 63185, Note_on_c, 12, 52, 100
12, 63185, Note_on_c, 12, 55, 100
12, 63235, Note_on_c, 12, 55, 0
12, 63235, Note_on_c, 12, 52, 0
12, 63245, Note_on_c, 12, 55, 100
12, 63245, Note_on_c, 12, 52, 100
12, 63295, Note_on_c, 12, 52, 0
12, 63295, Note_on_c, 12, 55, 0
12, 63305, Note_on_c, 12, 55, 100
12, 63305, Note_on_c, 12, 52, 100
12, 63355, Note_on_c, 12, 52, 0
12, 63355, Note_on_c, 12, 55, 0
12, 63365, Note_on_c, 12, 53, 86
12, 63365, Note_on_c, 12, 55, 86
12, 63415, Note_on_c, 12, 55, 0
12, 63415, Note_on_c, 12, 53, 0
12, 63425, Note_on_c, 12, 53, 86
12, 63425, Note_on_c, 12, 55, 86
12, 63475, Note_on_c, 12, 55, 0
12, 63475, Note_on_c, 12, 53, 0
12, 63485, Note_on_c, 12, 55, 86
12, 63485, Note_on_c, 12, 53, 86
12, 63535, Note_on_c, 12, 53, 0
12, 63535, Note_on_c, 12, 55, 0
12, 63545, Note_on_c, 12, 55, 86
12, 63545, Note_on_c, 12, 53, 86
12, 63595, Note_on_c, 12, 53, 0
12, 63595, Note_on_c, 12, 55, 0
12, 63605, Note_on_c, 12, 53, 86
12, 63605, Note_on_c, 12, 55, 86
12, 63655, Note_on_c, 12, 55, 0
12, 63655, Note_on_c, 12, 53, 0
12, 63665, Note_on_c, 12, 53, 86
12, 63665, Note_on_c, 12, 55, 86
12, 63715, Note_on_c, 12, 55, 0
12, 63715, Note_on_c, 12, 53, 0
12, 63725, Note_on_c, 12, 53, 86
12, 63725, Note_on_c, 12, 55, 86
12, 63775, Note_on_c, 12, 55, 0
12, 63775, Note_on_c, 12, 53, 0
12, 63785, Note_on_c, 12, 53, 86
12, 63785, Note_on_c, 12, 55, 86
12, 63835, Note_on_c, 12, 55, 0
12, 63835, Note_on_c, 12, 53, 0
12, 63845, Note_on_c, 12, 55, 86
12, 63845, Note_on_c, 12, 53, 86
12, 63895, Note_on_c, 12, 53, 0
12, 63895, Note_on_c, 12, 55, 0
12, 63905, Note_on_c, 12, 55, 86
12, 63905, Note_on_c, 12, 53, 86
12, 63955, Note_on_c, 12, 53, 0
12, 63955, Note_on_c, 12, 55, 0
12, 63965, Note_on_c, 12, 53, 86
12, 63965, Note_on_c, 12, 55, 86
12, 64015, Note_on_c, 12, 55, 0
12, 64015, Note_on_c, 12, 53, 0
12, 64025, Note_on_c, 12, 53, 86
12, 64025, Note_on_c, 12, 55, 86
12, 64075, Note_on_c, 12, 55, 0
12, 64075, Note_on_c, 12, 53, 0
12, 64085, Note_on_c, 12, 55, 86
12, 64085, Note_on_c, 12, 53, 86
12, 64135, Note_on_c, 12, 53, 0
12, 64135, Note_on_c, 12, 55, 0
12, 64145, Note_on_c, 12, 53, 86
12, 64145, Note_on_c, 12, 55, 86
12, 64195, Note_on_c, 12, 55, 0
12, 64195, Note_on_c, 12, 53, 0
12, 64205, Note_on_c, 12, 55, 86
12, 64205, Note_on_c, 12, 53, 86
12, 64255, Note_on_c, 12, 53, 0
12, 64255, Note_on_c, 12, 55, 0
12, 64265, Note_on_c, 12, 53, 86
12, 64265, Note_on_c, 12, 55, 86
12, 64315, Note_on_c, 12, 55, 0
12, 64315, Note_on_c, 12, 53, 0
12, 64325, Note_on_c, 12, 55, 100
12, 64325, Note_on_c, 12, 52, 100
12, 64375, Note_on_c, 12, 52, 0
12, 64375, Note_on_c, 12, 55, 0
12, 64385, Note_on_c, 12, 64, 100
12, 64385, Note_on_c, 12, 55, 100
12, 64435, Note_on_c, 12, 55, 0
12, 64435, Note_on_c, 12, 64, 0
12, 64445, Note_on_c, 12, 64, 100
12, 64445, Note_on_c, 12, 55, 100
12, 64495, Note_on_c, 12, 55, 0
12, 64495, Note_on_c, 12, 64, 0
12, 64505, Note_on_c, 12, 64, 100
12, 64505, Note_on_c, 12, 55, 100
12, 64555, Note_on_c, 12, 55, 0
12, 64555, Note_on_c, 12, 64, 0
12, 64565, Note_on_c, 12, 55, 100
12, 64565, Note_on_c, 12, 64, 100
12, 64615, Note_on_c, 12, 64, 0
12, 64615, Note_on_c, 12, 55, 0
12, 64625, Note_on_c, 12, 55, 100
12, 64625, Note_on_c, 12, 64, 100
12, 64675, Note_on_c, 12, 64, 0
12, 64675, Note_on_c, 12, 55, 0
12, 64685, Note_on_c, 12, 64, 100
12, 64685, Note_on_c, 12, 55, 100
12, 64735, Note_on_c, 12, 55, 0
12, 64735, Note_on_c, 12, 64, 0
12, 64745, Note_on_c, 12, 55, 100
12, 64745, Note_on_c, 12, 64, 100
12, 64795, Note_on_c, 12, 64, 0
12, 64795, Note_on_c, 12, 55, 0
12, 64805, Note_on_c, 12, 55, 100
12, 64805, Note_on_c, 12, 64, 100
12, 64805, Control_c, 12, 11, 122
12, 64823, Control_c, 12, 11, 119
12, 64841, Control_c, 12, 11, 116
12, 64855, Note_on_c, 12, 64, 0
12, 64855, Note_on_c, 12, 55, 0
12, 64859, Control_c, 12, 11, 113
12, 64865, Note_on_c, 12, 55, 100
12, 64865, Note_on_c, 12, 64, 100
12, 64877, Control_c, 12, 11, 110
12, 64895, Control_c, 12, 11, 107
12, 64913, Control_c, 12, 11, 104
12, 64915, Note_on_c, 12, 64, 0
12, 64915, Note_on_c, 12, 55, 0
12, 64925, Note_on_c, 12, 64, 100
12, 64925, Note_on_c, 12, 55, 100
12, 64975, Note_on_c, 12, 55, 0
12, 64975, Note_on_c, 12, 64, 0
12, 64985, Note_on_c, 12, 55, 100
12, 64985, Note_on_c, 12, 64, 100
12, 65035, Note_on_c, 12, 64, 0
12, 65035, Note_on_c, 12, 55, 0
12, 65045, Note_on_c, 12, 64, 100
12, 65045, Note_on_c, 12, 55, 100
12, 65095, Note_on_c, 12, 55, 0
12, 65095, Note_on_c, 12, 64, 0
12, 65105, Note_on_c, 12, 64, 100
12, 65105, Note_on_c, 12, 55, 100
12, 65155, Note_on_c, 12, 55, 0
12, 65155, Note_on_c, 12, 64, 0
12, 65165, Note_on_c, 12, 64, 100
12, 65165, Note_on_c, 12, 55, 100
12, 65215, Note_on_c, 12, 55, 0
12, 65215, Note_on_c, 12, 64, 0
12, 65225, Note_on_c, 12, 64, 100
12, 65225, Note_on_c, 12, 55, 100
12, 65275, Note_on_c, 12, 55, 0
12, 65275, Note_on_c, 12, 64, 0
12, 65285, Note_on_c, 12, 55, 86
12, 65285, Note_on_c, 12, 65, 86
12, 65335, Note_on_c, 12, 65, 0
12, 65335, Note_on_c, 12, 55, 0
12, 65345, Note_on_c, 12, 55, 86
12, 65345, Note_on_c, 12, 65, 86
12, 65395, Note_on_c, 12, 65, 0
12, 65395, Note_on_c, 12, 55, 0
12, 65405, Note_on_c, 12, 65, 86
12, 65405, Note_on_c, 12, 55, 86
12, 65455, Note_on_c, 12, 55, 0
12, 65455, Note_on_c, 12, 65, 0
12, 65465, Note_on_c, 12, 65, 86
12, 65465, Note_on_c, 12, 55, 86
12, 65515, Note_on_c, 12, 55, 0
12, 65515, Note_on_c, 12, 65, 0
12, 65525, Note_on_c, 12, 65, 86
12, 65525, Note_on_c, 12, 55, 86
12, 65575, Note_on_c, 12, 55, 0
12, 65575, Note_on_c, 12, 65, 0
12, 65585, Note_on_c, 12, 65, 86
12, 65585, Note_on_c, 12, 55, 86
12, 65635, Note_on_c, 12, 55, 0
12, 65635, Note_on_c, 12, 65, 0
12, 65645, Note_on_c, 12, 55, 86
12, 65645, Note_on_c, 12, 65, 86
12, 65695, Note_on_c, 12, 65, 0
12, 65695, Note_on_c, 12, 55, 0
12, 65705, Note_on_c, 12, 55, 86
12, 65705, Note_on_c, 12, 65, 86
12, 65755, Note_on_c, 12, 65, 0
12, 65755, Note_on_c, 12, 55, 0
12, 65765, Note_on_c, 12, 65, 86
12, 65765, Note_on_c, 12, 55, 86
12, 65815, Note_on_c, 12, 55, 0
12, 65815, Note_on_c, 12, 65, 0
12, 65825, Note_on_c, 12, 65, 86
12, 65825, Note_on_c, 12, 55, 86
12, 65875, Note_on_c, 12, 55, 0
12, 65875, Note_on_c, 12, 65, 0
12, 65885, Note_on_c, 12, 65, 86
12, 65885, Note_on_c, 12, 55, 86
12, 65935, Note_on_c, 12, 55, 0
12, 65935, Note_on_c, 12, 65, 0
12, 65945, Note_on_c, 12, 55, 86
12, 65945, Note_on_c, 12, 65, 86
12, 65995, Note_on_c, 12, 65, 0
12, 65995, Note_on_c, 12, 55, 0
12, 66005, Note_on_c, 12, 65, 86
12, 66005, Note_on_c, 12, 55, 86
12, 66055, Note_on_c, 12, 55, 0
12, 66055, Note_on_c, 12, 65, 0
12, 66065, Note_on_c, 12, 65, 86
12, 66065, Note_on_c, 12, 55, 86
12, 66115, Note_on_c, 12, 55, 0
12, 66115, Note_on_c, 12, 65, 0
12, 66125, Note_on_c, 12, 65, 86
12, 66125, Note_on_c, 12, 55, 86
12, 66175, Note_on_c, 12, 55, 0
12, 66175, Note_on_c, 12, 65, 0
12, 66185, Note_on_c, 12, 65, 86
12, 66185, Note_on_c, 12, 55, 86
12, 66235, Note_on_c, 12, 55, 0
12, 66235, Note_on_c, 12, 65, 0
12, 66245, Note_on_c, 12, 64, 100
12, 66245, Note_on_c, 12, 55, 100
12, 66365, Note_on_c, 12, 55, 0
12, 66365, Note_on_c, 12, 64, 0
12, 66605, Note_on_c, 12, 57, 100
12, 66605, Control_c, 12, 11, 87
12, 66635, Note_on_c, 12, 57, 0
12, 66665, Note_on_c, 12, 61, 100
12, 66695, Note_on_c, 12, 61, 0
12, 66725, Control_c, 12, 11, 87
12, 66725, Note_on_c, 12, 62, 100
12, 66782, Control_c, 12, 11, 88
12, 66840, Control_c, 12, 11, 89
12, 66845, Note_on_c, 12, 62, 0
12, 66897, Control_c, 12, 11, 90
12, 66955, Control_c, 12, 11, 91
12, 67013, Control_c, 12, 11, 92
12, 67070, Control_c, 12, 11, 93
12, 67085, Note_on_c, 12, 59, 100
12, 67115, Note_on_c, 12, 59, 0
12, 67128, Control_c, 12, 11, 94
12, 67145, Note_on_c, 12, 63, 100
12, 67175, Note_on_c, 12, 63, 0
12, 67185, Control_c, 12, 11, 95
12, 67205, Note_on_c, 12, 64, 100
12, 67235, Note_on_c, 12, 64, 0
12, 67243, Control_c, 12, 11, 96
12, 67265, Note_on_c, 12, 64, 100
12, 67295, Note_on_c, 12, 64, 0
12, 67301, Control_c, 12, 11, 97
12, 67325, Note_on_c, 12, 60, 100
12, 67355, Note_on_c, 12, 60, 0
12, 67358, Control_c, 12, 11, 98
12, 67385, Note_on_c, 12, 64, 100
12, 67415, Note_on_c, 12, 64, 0
12, 67416, Control_c, 12, 11, 99
12, 67445, Note_on_c, 12, 65, 100
12, 67473, Control_c, 12, 11, 100
12, 67475, Note_on_c, 12, 65, 0
12, 67505, Note_on_c, 12, 62, 100
12, 67531, Control_c, 12, 11, 101
12, 67535, Note_on_c, 12, 62, 0
12, 67565, Note_on_c, 12, 67, 100
12, 67589, Control_c, 12, 11, 102
12, 67595, Note_on_c, 12, 67, 0
12, 67625, Note_on_c, 12, 64, 100
12, 67646, Control_c, 12, 11, 103
12, 67655, Note_on_c, 12, 64, 0
12, 67685, Note_on_c, 12, 69, 100
12, 67704, Control_c, 12, 11, 104
12, 67715, Note_on_c, 12, 69, 0
12, 67745, Note_on_c, 12, 65, 100
12, 67761, Control_c, 12, 11, 105
12, 67775, Note_on_c, 12, 65, 0
12, 67805, Note_on_c, 12, 71, 100
12, 67819, Control_c, 12, 11, 106
12, 67835, Note_on_c, 12, 71, 0
12, 67865, Note_on_c, 12, 67, 100
12, 67877, Control_c, 12, 11, 107
12, 67895, Note_on_c, 12, 67, 0
12, 67925, Note_on_c, 12, 72, 100
12, 67934, Control_c, 12, 11, 108
12, 67955, Note_on_c, 12, 72, 0
12, 67985, Note_on_c, 12, 69, 100
12, 67992, Control_c, 12, 11, 109
12, 68015, Note_on_c, 12, 69, 0
12, 68045, Note_on_c, 12, 64, 100
12, 68049, Control_c, 12, 11, 110
12, 68075, Note_on_c, 12, 64, 0
12, 68105, Note_on_c, 12, 66, 100
12, 68107, Control_c, 12, 11, 111
12, 68135, Note_on_c, 12, 66, 0
12, 68165, Note_on_c, 12, 55, 100
12, 68165, Control_c, 12, 11, 112
12, 68183, Control_c, 12, 11, 109
12, 68201, Control_c, 12, 11, 106
12, 68215, Note_on_c, 12, 55, 0
12, 68219, Control_c, 12, 11, 103
12, 68225, Note_on_c, 12, 67, 100
12, 68255, Note_on_c, 12, 67, 0
12, 68285, Note_on_c, 12, 67, 100
12, 68315, Note_on_c, 12, 67, 0
12, 68345, Note_on_c, 12, 67, 100
12, 68375, Note_on_c, 12, 67, 0
12, 68405, Note_on_c, 12, 65, 100
12, 68465, Note_on_c, 12, 65, 0
12, 68465, Note_on_c, 12, 64, 100
12, 68515, Note_on_c, 12, 64, 0
12, 68525, Note_on_c, 12, 62, 100
12, 68555, Note_on_c, 12, 62, 0
12, 68585, Note_on_c, 12, 60, 100
12, 68615, Note_on_c, 12, 60, 0
12, 68645, Note_on_c, 12, 55, 100
12, 68765, Note_on_c, 12, 55, 0
12, 68885, Note_on_c, 12, 67, 100
12, 69005, Note_on_c, 12, 67, 0
12, 69125, Note_on_c, 12, 55, 100
12, 69175, Note_on_c, 12, 55, 0
12, 69185, Note_on_c, 12, 67, 100
12, 69215, Note_on_c, 12, 67, 0
12, 69245, Note_on_c, 12, 67, 100
12, 69275, Note_on_c, 12, 67, 0
12, 69305, Note_on_c, 12, 67, 100
12, 69335, Note_on_c, 12, 67, 0
12, 69365, Note_on_c, 12, 65, 100
12, 69425, Note_on_c, 12, 65, 0
12, 69425, Note_on_c, 12, 64, 100
12, 69475, Note_on_c, 12, 64, 0
12, 69485, Note_on_c, 12, 62, 100
12, 69515, Note_on_c, 12, 62, 0
12, 69545, Note_on_c, 12, 60, 100
12, 69575, Note_on_c, 12, 60, 0
12, 69605, Note_on_c, 12, 55, 100
12, 69725, Note_on_c, 12, 55, 0
12, 69845, Note_on_c, 12, 67, 100
12, 69965, Note_on_c, 12, 67, 0
12, 70085, Note_on_c, 12, 55, 100
12, 70135, Note_on_c, 12, 55, 0
12, 70145, Note_on_c, 12, 67, 100
12, 70175, Note_on_c, 12, 67, 0
12, 70205, Note_on_c, 12, 67, 100
12, 70235, Note_on_c, 12, 67, 0
12, 70265, Note_on_c, 12, 67, 100
12, 70295, Note_on_c, 12, 67, 0
12, 70325, Note_on_c, 12, 65, 100
12, 70385, Note_on_c, 12, 65, 0
12, 70385, Note_on_c, 12, 64, 100
12, 70435, Note_on_c, 12, 64, 0
12, 70445, Note_on_c, 12, 62, 100
12, 70475, Note_on_c, 12, 62, 0
12, 70505, Note_on_c, 12, 60, 100
12, 70535, Note_on_c, 12, 60, 0
12, 70565, Note_on_c, 12, 55, 100
12, 70615, Note_on_c, 12, 55, 0
12, 70625, Note_on_c, 12, 67, 100
12, 70655, Note_on_c, 12, 67, 0
12, 70685, Note_on_c, 12, 67, 100
12, 70715, Note_on_c, 12, 67, 0
12, 70745, Note_on_c, 12, 67, 100
12, 70775, Note_on_c, 12, 67, 0
12, 70805, Note_on_c, 12, 65, 100
12, 70865, Note_on_c, 12, 65, 0
12, 70865, Note_on_c, 12, 64, 100
12, 70915, Note_on_c, 12, 64, 0
12, 70925, Note_on_c, 12, 62, 100
12, 70955, Note_on_c, 12, 62, 0
12, 70985, Note_on_c, 12, 60, 100
12, 71015, Note_on_c, 12, 60, 0
12, 71045, Note_on_c, 12, 55, 100
12, 71165, Note_on_c, 12, 55, 0
12, 71285, Note_on_c, 12, 67, 100
12, 71405, Note_on_c, 12, 67, 0
12, 71524, Program_c, 12, 50
12, 71525, Note_on_c, 12, 55, 100
12, 71645, Note_on_c, 12, 55, 0
12, 72004, Program_c, 12, 48
12, 72005, Control_c, 12, 11, 47
12, 72005, Note_on_c, 12, 55, 82
12, 72125, Note_on_c, 12, 55, 0
12, 72485, Note_on_c, 12, 57, 82
12, 72605, Note_on_c, 12, 57, 0
12, 72965, Note_on_c, 12, 50, 82
12, 73085, Note_on_c, 12, 50, 0
12, 73445, Note_on_c, 12, 55, 82
12, 73565, Note_on_c, 12, 55, 0
12, 73925, Note_on_c, 12, 62, 100
12, 74045, Note_on_c, 12, 62, 0
12, 74165, Control_c, 12, 11, 58
12, 74165, Note_on_c, 12, 62, 100
12, 74169, Control_c, 12, 11, 61
12, 74174, Control_c, 12, 11, 64
12, 74179, Control_c, 12, 11, 67
12, 74184, Control_c, 12, 11, 70
12, 74189, Control_c, 12, 11, 73
12, 74200, Control_c, 12, 11, 70
12, 74211, Control_c, 12, 11, 67
12, 74222, Control_c, 12, 11, 64
12, 74233, Control_c, 12, 11, 61
12, 74244, Control_c, 12, 11, 58
12, 74255, Control_c, 12, 11, 55
12, 74266, Control_c, 12, 11, 52
12, 74277, Control_c, 12, 11, 49
12, 74285, Note_on_c, 12, 62, 0
12, 74285, Note_on_c, 12, 74, 100
12, 74395, Note_on_c, 12, 74, 0
12, 74405, Note_on_c, 12, 62, 100
12, 74525, Note_on_c, 12, 62, 0
12, 74645, Control_c, 12, 11, 58
12, 74645, Note_on_c, 12, 62, 100
12, 74649, Control_c, 12, 11, 61
12, 74654, Control_c, 12, 11, 64
12, 74659, Control_c, 12, 11, 67
12, 74664, Control_c, 12, 11, 70
12, 74669, Control_c, 12, 11, 73
12, 74680, Control_c, 12, 11, 70
12, 74691, Control_c, 12, 11, 67
12, 74702, Control_c, 12, 11, 64
12, 74713, Control_c, 12, 11, 61
12, 74724, Control_c, 12, 11, 58
12, 74735, Control_c, 12, 11, 55
12, 74746, Control_c, 12, 11, 52
12, 74757, Control_c, 12, 11, 49
12, 74765, Note_on_c, 12, 62, 0
12, 74765, Note_on_c, 12, 74, 100
12, 74875, Note_on_c, 12, 74, 0
12, 74885, Note_on_c, 12, 69, 100
12, 75005, Note_on_c, 12, 69, 0
12, 75125, Note_on_c, 12, 57, 100
12, 75245, Note_on_c, 12, 57, 0
12, 75365, Note_on_c, 12, 50, 100
12, 75485, Note_on_c, 12, 50, 0
12, 75485, Control_c, 12, 11, 63
12, 75485, Note_on_c, 12, 60, 100
12, 75489, Control_c, 12, 11, 66
12, 75494, Control_c, 12, 11, 69
12, 75499, Control_c, 12, 11, 72
12, 75517, Control_c, 12, 11, 69
12, 75529, Control_c, 12, 11, 66
12, 75541, Control_c, 12, 11, 63
12, 75553, Control_c, 12, 11, 60
12, 75565, Control_c, 12, 11, 57
12, 75577, Control_c, 12, 11, 54
12, 75589, Control_c, 12, 11, 51
12, 75601, Control_c, 12, 11, 48
12, 75725, Note_on_c, 12, 60, 0
12, 75725, Note_on_c, 12, 57, 100
12, 75835, Note_on_c, 12, 57, 0
12, 75845, Note_on_c, 12, 55, 100
12, 75965, Note_on_c, 12, 55, 0
12, 76325, Note_on_c, 12, 57, 100
12, 76445, Note_on_c, 12, 57, 0
12, 76805, Note_on_c, 12, 50, 100
12, 76925, Note_on_c, 12, 50, 0
12, 77285, Note_on_c, 12, 55, 100
12, 77405, Note_on_c, 12, 55, 0
12, 77765, Note_on_c, 12, 60, 100
12, 77825, Note_on_c, 12, 60, 0
12, 77885, Note_on_c, 12, 60, 100
12, 77945, Note_on_c, 12, 60, 0
12, 78125, Note_on_c, 12, 59, 100
12, 78125, Control_c, 12, 11, 58
12, 78130, Control_c, 12, 11, 61
12, 78136, Control_c, 12, 11, 64
12, 78141, Control_c, 12, 11, 67
12, 78147, Control_c, 12, 11, 70
12, 78153, Control_c, 12, 11, 73
12, 78163, Control_c, 12, 11, 70
12, 78174, Control_c, 12, 11, 67
12, 78184, Control_c, 12, 11, 64
12, 78195, Control_c, 12, 11, 61
12, 78206, Control_c, 12, 11, 58
12, 78216, Control_c, 12, 11, 55
12, 78227, Control_c, 12, 11, 52
12, 78237, Control_c, 12, 11, 49
12, 78245, Note_on_c, 12, 59, 0
12, 78245, Note_on_c, 12, 60, 100
12, 78305, Note_on_c, 12, 60, 0
12, 78365, Note_on_c, 12, 60, 100
12, 78425, Note_on_c, 12, 60, 0
12, 78605, Note_on_c, 12, 59, 100
12, 78605, Control_c, 12, 11, 58
12, 78610, Control_c, 12, 11, 61
12, 78616, Control_c, 12, 11, 64
12, 78621, Control_c, 12, 11, 67
12, 78627, Control_c, 12, 11, 70
12, 78633, Control_c, 12, 11, 73
12, 78643, Control_c, 12, 11, 70
12, 78654, Control_c, 12, 11, 67
12, 78664, Control_c, 12, 11, 64
12, 78675, Control_c, 12, 11, 61
12, 78686, Control_c, 12, 11, 58
12, 78696, Control_c, 12, 11, 55
12, 78707, Control_c, 12, 11, 52
12, 78717, Control_c, 12, 11, 49
12, 78725, Note_on_c, 12, 59, 0
12, 78725, Note_on_c, 12, 60, 100
12, 78835, Note_on_c, 12, 60, 0
12, 78845, Note_on_c, 12, 64, 100
12, 78965, Note_on_c, 12, 64, 0
12, 78965, Note_on_c, 12, 68, 100
12, 79085, Note_on_c, 12, 68, 0
12, 79085, Note_on_c, 12, 69, 100
12, 79195, Note_on_c, 12, 69, 0
12, 79205, Note_on_c, 12, 62, 100
12, 79445, Note_on_c, 12, 62, 0
12, 79445, Note_on_c, 12, 62, 100
12, 79660, Note_on_c, 12, 62, 0
12, 79680, Control_c, 12, 11, 47
12, 79681, Control_c, 12, 11, 55
12, 79682, Control_c, 12, 11, 63
12, 79683, Control_c, 12, 11, 71
12, 79684, Control_c, 12, 11, 79
12, 79685, Control_c, 12, 11, 87
12, 79685, Note_on_c, 12, 67, 110
12, 79705, Note_on_c, 12, 67, 0
12, 79715, Note_on_c, 12, 67, 110
12, 79735, Note_on_c, 12, 67, 0
12, 79745, Note_on_c, 12, 67, 110
12, 79765, Note_on_c, 12, 67, 0
12, 79775, Note_on_c, 12, 67, 110
12, 79795, Note_on_c, 12, 67, 0
12, 79805, Note_on_c, 12, 67, 110
12, 79865, Note_on_c, 12, 67, 0
12, 79925, Note_on_c, 12, 66, 110
12, 79945, Note_on_c, 12, 66, 0
12, 79955, Note_on_c, 12, 66, 110
12, 79975, Note_on_c, 12, 66, 0
12, 79985, Note_on_c, 12, 66, 110
12, 80005, Note_on_c, 12, 66, 0
12, 80015, Note_on_c, 12, 66, 110
12, 80035, Note_on_c, 12, 66, 0
12, 80045, Note_on_c, 12, 66, 110
12, 80105, Note_on_c, 12, 66, 0
12, 80165, Note_on_c, 12, 67, 110
12, 80185, Note_on_c, 12, 67, 0
12, 80195, Note_on_c, 12, 67, 110
12, 80215, Note_on_c, 12, 67, 0
12, 80225, Note_on_c, 12, 67, 110
12, 80245, Note_on_c, 12, 67, 0
12, 80255, Note_on_c, 12, 67, 110
12, 80275, Note_on_c, 12, 67, 0
12, 80285, Note_on_c, 12, 67, 110
12, 80345, Note_on_c, 12, 67, 0
12, 80405, Note_on_c, 12, 62, 110
12, 80405, Note_on_c, 12, 74, 110
12, 80455, Note_on_c, 12, 74, 0
12, 80455, Note_on_c, 12, 62, 0
12, 80465, Note_on_c, 12, 62, 110
12, 80465, Note_on_c, 12, 74, 110
12, 80515, Note_on_c, 12, 74, 0
12, 80515, Note_on_c, 12, 62, 0
12, 80525, Note_on_c, 12, 62, 110
12, 80525, Note_on_c, 12, 74, 110
12, 80575, Note_on_c, 12, 74, 0
12, 80575, Note_on_c, 12, 62, 0
12, 80585, Note_on_c, 12, 62, 110
12, 80585, Note_on_c, 12, 74, 110
12, 80635, Note_on_c, 12, 74, 0
12, 80635, Note_on_c, 12, 62, 0
12, 80645, Note_on_c, 12, 67, 110
12, 80665, Note_on_c, 12, 67, 0
12, 80675, Note_on_c, 12, 67, 110
12, 80695, Note_on_c, 12, 67, 0
12, 80705, Note_on_c, 12, 67, 110
12, 80725, Note_on_c, 12, 67, 0
12, 80735, Note_on_c, 12, 67, 110
12, 80755, Note_on_c, 12, 67, 0
12, 80765, Note_on_c, 12, 67, 110
12, 80825, Note_on_c, 12, 67, 0
12, 80885, Note_on_c, 12, 66, 110
12, 80905, Note_on_c, 12, 66, 0
12, 80915, Note_on_c, 12, 66, 110
12, 80935, Note_on_c, 12, 66, 0
12, 80945, Note_on_c, 12, 66, 110
12, 80965, Note_on_c, 12, 66, 0
12, 80975, Note_on_c, 12, 66, 110
12, 80995, Note_on_c, 12, 66, 0
12, 81005, Note_on_c, 12, 66, 110
12, 81065, Note_on_c, 12, 66, 0
12, 81125, Note_on_c, 12, 67, 110
12, 81145, Note_on_c, 12, 67, 0
12, 81155, Note_on_c, 12, 67, 110
12, 81175, Note_on_c, 12, 67, 0
12, 81185, Note_on_c, 12, 67, 110
12, 81205, Note_on_c, 12, 67, 0
12, 81215, Note_on_c, 12, 67, 110
12, 81235, Note_on_c, 12, 67, 0
12, 81245, Note_on_c, 12, 67, 110
12, 81305, Note_on_c, 12, 67, 0
12, 81365, Note_on_c, 12, 74, 110
12, 81365, Note_on_c, 12, 62, 110
12, 81415, Note_on_c, 12, 62, 0
12, 81415, Note_on_c, 12, 74, 0
12, 81425, Note_on_c, 12, 62, 110
12, 81425, Note_on_c, 12, 74, 110
12, 81475, Note_on_c, 12, 74, 0
12, 81475, Note_on_c, 12, 62, 0
12, 81485, Note_on_c, 12, 74, 110
12, 81485, Note_on_c, 12, 62, 110
12, 81535, Note_on_c, 12, 62, 0
12, 81535, Note_on_c, 12, 74, 0
12, 81545, Note_on_c, 12, 74, 110
12, 81545, Note_on_c, 12, 62, 110
12, 81595, Note_on_c, 12, 62, 0
12, 81595, Note_on_c, 12, 74, 0
12, 81605, Control_c, 12, 11, 107
12, 81605, Note_on_c, 12, 59, 110
12, 81623, Control_c, 12, 11, 104
12, 81641, Control_c, 12, 11, 101
12, 81659, Control_c, 12, 11, 98
12, 81677, Control_c, 12, 11, 95
12, 81695, Control_c, 12, 11, 92
12, 81713, Control_c, 12, 11, 89
12, 81775, Note_on_c, 12, 59, 0
12, 81785, Note_on_c, 12, 57, 110
12, 81835, Note_on_c, 12, 57, 0
12, 81845, Note_on_c, 12, 55, 110
12, 81895, Note_on_c, 12, 55, 0
12, 81905, Note_on_c, 12, 57, 110
12, 81955, Note_on_c, 12, 57, 0
12, 81965, Note_on_c, 12, 58, 110
12, 82015, Note_on_c, 12, 58, 0
12, 82025, Note_on_c, 12, 59, 110
12, 82075, Note_on_c, 12, 59, 0
12, 82085, Control_c, 12, 11, 107
12, 82085, Note_on_c, 12, 60, 110
12, 82103, Control_c, 12, 11, 104
12, 82121, Control_c, 12, 11, 101
12, 82139, Control_c, 12, 11, 98
12, 82157, Control_c, 12, 11, 95
12, 82175, Control_c, 12, 11, 92
12, 82193, Control_c, 12, 11, 89
12, 82255, Note_on_c, 12, 60, 0
12, 82265, Note_on_c, 12, 59, 110
12, 82315, Note_on_c, 12, 59, 0
12, 82325, Note_on_c, 12, 64, 110
12, 82375, Note_on_c, 12, 64, 0
12, 82385, Note_on_c, 12, 62, 110
12, 82435, Note_on_c, 12, 62, 0
12, 82445, Note_on_c, 12, 60, 110
12, 82495, Note_on_c, 12, 60, 0
12, 82505, Note_on_c, 12, 61, 110
12, 82555, Note_on_c, 12, 61, 0
12, 82565, Control_c, 12, 11, 87
12, 82565, Note_on_c, 12, 62, 110
12, 82595, Note_on_c, 12, 62, 0
12, 82597, Control_c, 12, 11, 88
12, 82625, Note_on_c, 12, 71, 110
12, 82629, Control_c, 12, 11, 89
12, 82655, Note_on_c, 12, 71, 0
12, 82661, Control_c, 12, 11, 90
12, 82685, Note_on_c, 12, 69, 110
12, 82693, Control_c, 12, 11, 91
12, 82715, Note_on_c, 12, 69, 0
12, 82725, Control_c, 12, 11, 92
12, 82745, Note_on_c, 12, 67, 110
12, 82757, Control_c, 12, 11, 93
12, 82775, Note_on_c, 12, 67, 0
12, 82789, Control_c, 12, 11, 94
12, 82805, Note_on_c, 12, 66, 110
12, 82821, Control_c, 12, 11, 95
12, 82835, Note_on_c, 12, 66, 0
12, 82853, Control_c, 12, 11, 96
12, 82865, Note_on_c, 12, 64, 110
12, 82885, Control_c, 12, 11, 97
12, 82895, Note_on_c, 12, 64, 0
12, 82917, Control_c, 12, 11, 98
12, 82925, Note_on_c, 12, 62, 110
12, 82949, Control_c, 12, 11, 99
12, 82955, Note_on_c, 12, 62, 0
12, 82981, Control_c, 12, 11, 100
12, 82985, Note_on_c, 12, 60, 110
12, 83013, Control_c, 12, 11, 101
12, 83015, Note_on_c, 12, 60, 0
12, 83045, Control_c, 12, 11, 102
12, 83045, Note_on_c, 12, 59, 110
12, 83105, Note_on_c, 12, 59, 0
12, 83165, Note_on_c, 12, 67, 110
12, 83225, Note_on_c, 12, 67, 0
12, 83285, Note_on_c, 12, 67, 110
12, 83345, Note_on_c, 12, 67, 0
12, 83405, Note_on_c, 12, 60, 110
12, 83465, Note_on_c, 12, 60, 0
12, 83525, Note_on_c, 12, 59, 110
12, 83525, Control_c, 12, 11, 72
12, 83555, Control_c, 12, 11, 72
12, 83570, Control_c, 12, 11, 69
12, 83585, Control_c, 12, 11, 66
12, 83601, Control_c, 12, 11, 63
12, 83616, Control_c, 12, 11, 60
12, 83632, Control_c, 12, 11, 57
12, 83635, Note_on_c, 12, 59, 0
12, 83645, Note_on_c, 12, 55, 100
12, 83647, Control_c, 12, 11, 54
12, 83663, Control_c, 12, 11, 51
12, 83678, Control_c, 12, 11, 48
12, 83693, Control_c, 12, 11, 45
12, 83709, Control_c, 12, 11, 42
12, 83724, Control_c, 12, 11, 39
12, 83731, Note_on_c, 12, 55, 0
12, 83765, Note_on_c, 12, 55, 100
12, 83851, Note_on_c, 12, 55, 0
12, 83885, Note_on_c, 12, 55, 100
12, 83971, Note_on_c, 12, 55, 0
12, 84005, Note_on_c, 12, 55, 100
12, 84091, Note_on_c, 12, 55, 0
12, 84125, Note_on_c, 12, 55, 100
12, 84211, Note_on_c, 12, 55, 0
12, 84245, Note_on_c, 12, 55, 100
12, 84331, Note_on_c, 12, 55, 0
12, 84365, Note_on_c, 12, 55, 100
12, 84451, Note_on_c, 12, 55, 0
12, 84485, Note_on_c, 12, 57, 100
12, 84571, Note_on_c, 12, 57, 0
12, 84605, Note_on_c, 12, 53, 100
12, 84691, Note_on_c, 12, 53, 0
12, 84725, Note_on_c, 12, 53, 100
12, 84811, Note_on_c, 12, 53, 0
12, 84845, Note_on_c, 12, 53, 100
12, 84931, Note_on_c, 12, 53, 0
12, 84965, Note_on_c, 12, 53, 100
12, 85051, Note_on_c, 12, 53, 0
12, 85085, Note_on_c, 12, 53, 100
12, 85171, Note_on_c, 12, 53, 0
12, 85205, Note_on_c, 12, 53, 100
12, 85291, Note_on_c, 12, 53, 0
12, 85325, Note_on_c, 12, 53, 100
12, 85411, Note_on_c, 12, 53, 0
12, 85445, Note_on_c, 12, 55, 100
12, 85531, Note_on_c, 12, 55, 0
12, 85565, Note_on_c, 12, 55, 100
12, 85651, Note_on_c, 12, 55, 0
12, 85685, Note_on_c, 12, 53, 100
12, 85771, Note_on_c, 12, 53, 0
12, 85805, Note_on_c, 12, 57, 100
12, 85891, Note_on_c, 12, 57, 0
12, 85925, Note_on_c, 12, 57, 100
12, 86011, Note_on_c, 12, 57, 0
12, 86045, Note_on_c, 12, 62, 100
12, 86131, Note_on_c, 12, 62, 0
12, 86165, Note_on_c, 12, 62, 100
12, 86251, Note_on_c, 12, 62, 0
12, 86285, Note_on_c, 12, 62, 101
12, 86371, Note_on_c, 12, 62, 0
12, 86405, Note_on_c, 12, 62, 102
12, 86491, Note_on_c, 12, 62, 0
12, 86525, Note_on_c, 12, 62, 103
12, 86611, Note_on_c, 12, 62, 0
12, 86645, Note_on_c, 12, 62, 104
12, 86731, Note_on_c, 12, 62, 0
12, 86765, Note_on_c, 12, 67, 105
12, 86851, Note_on_c, 12, 67, 0
12, 86885, Note_on_c, 12, 67, 106
12, 86971, Note_on_c, 12, 67, 0
12, 87005, Note_on_c, 12, 67, 107
12, 87091, Note_on_c, 12, 67, 0
12, 87125, Note_on_c, 12, 67, 108
12, 87211, Note_on_c, 12, 67, 0
12, 87245, Note_on_c, 12, 67, 109
12, 87331, Note_on_c, 12, 67, 0
12, 87365, Note_on_c, 12, 66, 110
12, 87451, Note_on_c, 12, 66, 0
12, 87485, Note_on_c, 12, 69, 110
12, 87485, Control_c, 12, 11, 37
12, 87517, Control_c, 12, 11, 38
12, 87550, Control_c, 12, 11, 39
12, 87571, Note_on_c, 12, 69, 0
12, 87583, Control_c, 12, 11, 40
12, 87605, Note_on_c, 12, 69, 110
12, 87616, Control_c, 12, 11, 41
12, 87649, Control_c, 12, 11, 42
12, 87682, Control_c, 12, 11, 43
12, 87691, Note_on_c, 12, 69, 0
12, 87715, Control_c, 12, 11, 44
12, 87725, Note_on_c, 12, 69, 110
12, 87748, Control_c, 12, 11, 45
12, 87781, Control_c, 12, 11, 46
12, 87811, Note_on_c, 12, 69, 0
12, 87814, Control_c, 12, 11, 47
12, 87845, Note_on_c, 12, 67, 110
12, 87847, Control_c, 12, 11, 48
12, 87880, Control_c, 12, 11, 49
12, 87913, Control_c, 12, 11, 50
12, 87931, Note_on_c, 12, 67, 0
12, 87946, Control_c, 12, 11, 51
12, 87965, Note_on_c, 12, 67, 110
12, 87979, Control_c, 12, 11, 52
12, 88012, Control_c, 12, 11, 53
12, 88045, Control_c, 12, 11, 54
12, 88051, Note_on_c, 12, 67, 0
12, 88078, Control_c, 12, 11, 55
12, 88085, Note_on_c, 12, 67, 110
12, 88111, Control_c, 12, 11, 56
12, 88144, Control_c, 12, 11, 57
12, 88171, Note_on_c, 12, 67, 0
12, 88177, Control_c, 12, 11, 58
12, 88205, Note_on_c, 12, 67, 110
12, 88210, Control_c, 12, 11, 59
12, 88243, Control_c, 12, 11, 60
12, 88276, Control_c, 12, 11, 61
12, 88291, Note_on_c, 12, 67, 0
12, 88309, Control_c, 12, 11, 62
12, 88325, Note_on_c, 12, 64, 110
12, 88342, Control_c, 12, 11, 63
12, 88375, Control_c, 12, 11, 64
12, 88408, Control_c, 12, 11, 65
12, 88411, Note_on_c, 12, 64, 0
12, 88441, Control_c, 12, 11, 66
12, 88445, Note_on_c, 12, 69, 110
12, 88474, Control_c, 12, 11, 67
12, 88507, Control_c, 12, 11, 68
12, 88531, Note_on_c, 12, 69, 0
12, 88540, Control_c, 12, 11, 69
12, 88565, Note_on_c, 12, 69, 110
12, 88573, Control_c, 12, 11, 70
12, 88606, Control_c, 12, 11, 71
12, 88639, Control_c, 12, 11, 72
12, 88651, Note_on_c, 12, 69, 0
12, 88672, Control_c, 12, 11, 73
12, 88685, Note_on_c, 12, 69, 110
12, 88705, Control_c, 12, 11, 74
12, 88738, Control_c, 12, 11, 75
12, 88771, Note_on_c, 12, 69, 0
12, 88771, Control_c, 12, 11, 76
12, 88804, Control_c, 12, 11, 77
12, 88805, Control_c, 12, 11, 97
12, 88805, Note_on_c, 12, 55, 110
12, 88829, Control_c, 12, 11, 95
12, 88853, Control_c, 12, 11, 93
12, 88877, Control_c, 12, 11, 91
12, 88901, Control_c, 12, 11, 89
12, 88915, Note_on_c, 12, 55, 0
12, 88925, Note_on_c, 12, 50, 110
12, 88925, Control_c, 12, 11, 87
12, 89015, Note_on_c, 12, 50, 0
12, 89015, Note_on_c, 12, 54, 110
12, 89035, Note_on_c, 12, 54, 0
12, 89045, Note_on_c, 12, 55, 110
12, 89045, Control_c, 12, 11, 107
12, 89063, Control_c, 12, 11, 104
12, 89081, Control_c, 12, 11, 101
12, 89099, Control_c, 12, 11, 98
12, 89117, Control_c, 12, 11, 95
12, 89135, Control_c, 12, 11, 92
12, 89153, Control_c, 12, 11, 89
12, 89395, Note_on_c, 12, 55, 0
12, 89405, Note_on_c, 12, 50, 110
12, 89495, Note_on_c, 12, 50, 0
12, 89495, Note_on_c, 12, 54, 110
12, 89515, Note_on_c, 12, 54, 0
12, 89525, Note_on_c, 12, 55, 110
12, 89525, Control_c, 12, 11, 107
12, 89543, Control_c, 12, 11, 104
12, 89561, Control_c, 12, 11, 101
12, 89579, Control_c, 12, 11, 98
12, 89597, Control_c, 12, 11, 95
12, 89615, Control_c, 12, 11, 92
12, 89633, Control_c, 12, 11, 89
12, 89885, Note_on_c, 12, 55, 0
12, 90005, Note_on_c, 12, 66, 110
12, 90005, Control_c, 12, 11, 107
12, 90023, Control_c, 12, 11, 104
12, 90041, Control_c, 12, 11, 101
12, 90059, Control_c, 12, 11, 98
12, 90077, Control_c, 12, 11, 95
12, 90095, Control_c, 12, 11, 92
12, 90113, Control_c, 12, 11, 89
12, 90125, Note_on_c, 12, 66, 0
12, 90245, Control_c, 12, 11, 107
12, 90245, Note_on_c, 12, 67, 110
12, 90262, Control_c, 12, 11, 104
12, 90280, Control_c, 12, 11, 101
12, 90298, Control_c, 12, 11, 98
12, 90316, Control_c, 12, 11, 95
12, 90334, Control_c, 12, 11, 92
12, 90352, Control_c, 12, 11, 89
12, 90365, Note_on_c, 12, 67, 0
12, 90485, Note_on_c, 12, 74, 110
12, 90485, Control_c, 12, 11, 107
12, 90485, Note_on_c, 12, 62, 110
12, 90502, Control_c, 12, 11, 104
12, 90520, Control_c, 12, 11, 101
12, 90538, Control_c, 12, 11, 98
12, 90556, Control_c, 12, 11, 95
12, 90574, Control_c, 12, 11, 92
12, 90592, Control_c, 12, 11, 89
12, 90605, Note_on_c, 12, 62, 0
12, 90605, Note_on_c, 12, 74, 0
12, 90725, Note_on_c, 12, 59, 110
12, 90785, Note_on_c, 12, 59, 0
12, 90845, Note_on_c, 12, 62, 110
12, 90905, Note_on_c, 12, 62, 0
12, 90965, Note_on_c, 12, 67, 110
12, 91025, Note_on_c, 12, 67, 0
12, 91085, Note_on_c, 12, 71, 110
12, 91145, Note_on_c, 12, 71, 0
12, 91205, Note_on_c, 12, 57, 110
12, 91265, Note_on_c, 12, 57, 0
12, 91325, Note_on_c, 12, 60, 110
12, 91385, Note_on_c, 12, 60, 0
12, 91445, Note_on_c, 12, 66, 110
12, 91505, Note_on_c, 12, 66, 0
12, 91565, Note_on_c, 12, 69, 110
12, 91625, Note_on_c, 12, 69, 0
12, 91685, Control_c, 12, 11, 102
12, 91685, Note_on_c, 12, 56, 110
12, 91745, Note_on_c, 12, 56, 0
12, 91805, Note_on_c, 12, 59, 110
12, 91865, Note_on_c, 12, 59, 0
12, 91925, Note_on_c, 12, 64, 110
12, 91985, Note_on_c, 12, 64, 0
12, 92045, Note_on_c, 12, 68, 110
12, 92105, Note_on_c, 12, 68, 0
12, 92165, Note_on_c, 12, 62, 110
12, 92225, Note_on_c, 12, 62, 0
12, 92285, Note_on_c, 12, 74, 110
12, 92345, Note_on_c, 12, 74, 0
12, 92405, Note_on_c, 12, 74, 110
12, 92465, Note_on_c, 12, 74, 0
12, 92525, Note_on_c, 12, 74, 110
12, 92585, Note_on_c, 12, 74, 0
12, 92645, Note_on_c, 12, 60, 110
12, 92705, Note_on_c, 12, 60, 0
12, 92765, Note_on_c, 12, 72, 110
12, 92825, Note_on_c, 12, 72, 0
12, 92885, Note_on_c, 12, 72, 110
12, 92945, Note_on_c, 12, 72, 0
12, 93005, Note_on_c, 12, 72, 110
12, 93065, Note_on_c, 12, 72, 0
12, 93125, Note_on_c, 12, 61, 110
12, 93185, Note_on_c, 12, 61, 0
12, 93245, Note_on_c, 12, 67, 110
12, 93305, Note_on_c, 12, 67, 0
12, 93365, Note_on_c, 12, 64, 110
12, 93425, Note_on_c, 12, 64, 0
12, 93485, Note_on_c, 12, 61, 110
12, 93545, Note_on_c, 12, 61, 0
12, 93605, Note_on_c, 12, 62, 110
12, 93605, Control_c, 12, 11, 122
12, 93622, Control_c, 12, 11, 119
12, 93640, Control_c, 12, 11, 116
12, 93655, Note_on_c, 12, 62, 0
12, 93658, Control_c, 12, 11, 113
12, 93665, Note_on_c, 12, 62, 110
12, 93676, Control_c, 12, 11, 110
12, 93694, Control_c, 12, 11, 107
12, 93712, Control_c, 12, 11, 104
12, 93715, Note_on_c, 12, 62, 0
12, 93725, Note_on_c, 12, 62, 110
12, 93775, Note_on_c, 12, 62, 0
12, 93785, Note_on_c, 12, 62, 110
12, 93835, Note_on_c, 12, 62, 0
12, 93845, Note_on_c, 12, 64, 110
12, 93845, Control_c, 12, 11, 122
12, 93862, Control_c, 12, 11, 119
12, 93880, Control_c, 12, 11, 116
12, 93895, Note_on_c, 12, 64, 0
12, 93898, Control_c, 12, 11, 113
12, 93905, Note_on_c, 12, 64, 110
12, 93916, Control_c, 12, 11, 110
12, 93934, Control_c, 12, 11, 107
12, 93952, Control_c, 12, 11, 104
12, 93955, Note_on_c, 12, 64, 0
12, 93965, Note_on_c, 12, 64, 110
12, 94015, Note_on_c, 12, 64, 0
12, 94025, Note_on_c, 12, 64, 110
12, 94075, Note_on_c, 12, 64, 0
12, 94085, Control_c, 12, 11, 122
12, 94085, Note_on_c, 12, 60, 110
12, 94102, Control_c, 12, 11, 119
12, 94120, Control_c, 12, 11, 116
12, 94135, Note_on_c, 12, 60, 0
12, 94138, Control_c, 12, 11, 113
12, 94145, Note_on_c, 12, 60, 110
12, 94156, Control_c, 12, 11, 110
12, 94174, Control_c, 12, 11, 107
12, 94192, Control_c, 12, 11, 104
12, 94195, Note_on_c, 12, 60, 0
12, 94205, Note_on_c, 12, 60, 110
12, 94255, Note_on_c, 12, 60, 0
12, 94265, Note_on_c, 12, 60, 110
12, 94315, Note_on_c, 12, 60, 0
12, 94325, Note_on_c, 12, 62, 110
12, 94325, Control_c, 12, 11, 122
12, 94342, Control_c, 12, 11, 119
12, 94360, Control_c, 12, 11, 116
12, 94375, Note_on_c, 12, 62, 0
12, 94378, Control_c, 12, 11, 113
12, 94385, Note_on_c, 12, 62, 110
12, 94396, Control_c, 12, 11, 110
12, 94414, Control_c, 12, 11, 107
12, 94432, Control_c, 12, 11, 104
12, 94435, Note_on_c, 12, 62, 0
12, 94445, Note_on_c, 12, 62, 110
12, 94495, Note_on_c, 12, 62, 0
12, 94505, Note_on_c, 12, 62, 110
12, 94555, Note_on_c, 12, 62, 0
12, 94565, Control_c, 12, 11, 87
12, 94565, Note_on_c, 12, 55, 110
12, 94583, Control_c, 12, 11, 84
12, 94601, Control_c, 12, 11, 81
12, 94619, Control_c, 12, 11, 78
12, 94637, Control_c, 12, 11, 75
12, 94655, Control_c, 12, 11, 72
12, 94673, Control_c, 12, 11, 69
12, 94685, Note_on_c, 12, 55, 0
12, 95405, Control_c, 12, 11, 63
12, 95405, Note_on_c, 12, 62, 110
12, 95411, Control_c, 12, 11, 66
12, 95418, Control_c, 12, 11, 69
12, 95426, Control_c, 12, 11, 72
12, 95441, Control_c, 12, 11, 71
12, 95459, Control_c, 12, 11, 68
12, 95477, Control_c, 12, 11, 65
12, 95495, Control_c, 12, 11, 62
12, 95513, Control_c, 12, 11, 59
12, 95525, Note_on_c, 12, 62, 0
12, 95525, Note_on_c, 12, 67, 110
12, 95525, Control_c, 12, 11, 47
12, 95531, Control_c, 12, 11, 56
12, 95549, Control_c, 12, 11, 53
12, 95567, Control_c, 12, 11, 50
12, 95645, Note_on_c, 12, 67, 0
12, 96365, Note_on_c, 12, 62, 110
12, 96365, Control_c, 12, 11, 63
12, 96371, Control_c, 12, 11, 66
12, 96378, Control_c, 12, 11, 69
12, 96386, Control_c, 12, 11, 72
12, 96401, Control_c, 12, 11, 71
12, 96419, Control_c, 12, 11, 68
12, 96437, Control_c, 12, 11, 65
12, 96455, Control_c, 12, 11, 62
12, 96473, Control_c, 12, 11, 59
12, 96485, Note_on_c, 12, 62, 0
12, 96485, Control_c, 12, 11, 47
12, 96485, Note_on_c, 12, 67, 110
12, 96491, Control_c, 12, 11, 56
12, 96509, Control_c, 12, 11, 53
12, 96527, Control_c, 12, 11, 50
12, 96605, Note_on_c, 12, 67, 0
12, 96845, Control_c, 12, 11, 63
12, 96845, Note_on_c, 12, 62, 110
12, 96851, Control_c, 12, 11, 66
12, 96858, Control_c, 12, 11, 69
12, 96866, Control_c, 12, 11, 72
12, 96881, Control_c, 12, 11, 71
12, 96899, Control_c, 12, 11, 68
12, 96917, Control_c, 12, 11, 65
12, 96935, Control_c, 12, 11, 62
12, 96953, Control_c, 12, 11, 59
12, 96965, Note_on_c, 12, 62, 0
12, 96965, Control_c, 12, 11, 47
12, 96965, Note_on_c, 12, 67, 110
12, 96971, Control_c, 12, 11, 56
12, 96989, Control_c, 12, 11, 53
12, 97007, Control_c, 12, 11, 50
12, 97085, Note_on_c, 12, 67, 0
12, 97320, Control_c, 12, 11, 67
12, 97321, Control_c, 12, 11, 74
12, 97322, Control_c, 12, 11, 81
12, 97323, Control_c, 12, 11, 88
12, 97324, Control_c, 12, 11, 95
12, 97325, Control_c, 12, 11, 102
12, 97325, Note_on_c, 12, 62, 110
12, 97385, Note_on_c, 12, 62, 0
12, 97445, Note_on_c, 12, 55, 110
12, 97445, Note_on_c, 12, 67, 110
12, 97505, Note_on_c, 12, 67, 0
12, 97505, Note_on_c, 12, 55, 0
12, 98405, Note_on_c, 12, 55, 100
12, 98405, Note_on_c, 12, 65, 100
12, 98525, Note_on_c, 12, 65, 0
12, 98525, Note_on_c, 12, 55, 0
12, 99245, Control_c, 12, 11, 47
12, 99365, Control_c, 12, 11, 87
12, 99365, Note_on_c, 12, 61, 110
12, 99635, Control_c, 12, 11, 87
12, 99642, Control_c, 12, 11, 84
12, 99650, Control_c, 12, 11, 81
12, 99658, Control_c, 12, 11, 78
12, 99666, Control_c, 12, 11, 75
12, 99674, Control_c, 12, 11, 72
12, 99681, Control_c, 12, 11, 69
12, 99689, Control_c, 12, 11, 66
12, 99697, Control_c, 12, 11, 63
12, 99700, Note_on_c, 12, 61, 0
12, 100325, Control_c, 12, 11, 47
12, 100325, Note_on_c, 12, 61, 110
12, 100325, Note_on_c, 12, 64, 110
12, 100385, Note_on_c, 12, 64, 0
12, 100385, Note_on_c, 12, 61, 0
12, 100445, Note_on_c, 12, 61, 110
12, 100445, Note_on_c, 12, 64, 110
12, 100641, Note_on_c, 12, 64, 0
12, 100641, Note_on_c, 12, 61, 0
12, 100685, Note_on_c, 12, 64, 110
12, 100685, Note_on_c, 12, 61, 110
12, 100881, Note_on_c, 12, 61, 0
12, 100881, Note_on_c, 12, 64, 0
12, 100925, Note_on_c, 12, 61, 110
12, 100925, Note_on_c, 12, 64, 110
12, 101121, Note_on_c, 12, 64, 0
12, 101121, Note_on_c, 12, 61, 0
12, 101165, Note_on_c, 12, 61, 110
12, 101165, Note_on_c, 12, 64, 110
12, 101225, Note_on_c, 12, 64, 0
12, 101225, Note_on_c, 12, 61, 0
12, 101285, Control_c, 12, 11, 87
12, 101285, Note_on_c, 12, 54, 110
12, 101555, Control_c, 12, 11, 87
12, 101562, Control_c, 12, 11, 84
12, 101570, Control_c, 12, 11, 81
12, 101578, Control_c, 12, 11, 78
12, 101586, Control_c, 12, 11, 75
12, 101594, Control_c, 12, 11, 72
12, 101601, Control_c, 12, 11, 69
12, 101609, Control_c, 12, 11, 66
12, 101617, Control_c, 12, 11, 63
12, 101620, Note_on_c, 12, 54, 0
12, 102245, Control_c, 12, 11, 47
12, 102245, Note_on_c, 12, 66, 110
12, 102245, Note_on_c, 12, 69, 110
12, 102305, Note_on_c, 12, 69, 0
12, 102305, Note_on_c, 12, 66, 0
12, 102365, Note_on_c, 12, 66, 110
12, 102365, Note_on_c, 12, 69, 110
12, 102561, Note_on_c, 12, 69, 0
12, 102561, Note_on_c, 12, 66, 0
12, 102605, Note_on_c, 12, 66, 110
12, 102605, Note_on_c, 12, 69, 110
12, 102801, Note_on_c, 12, 69, 0
12, 102801, Note_on_c, 12, 66, 0
12, 102845, Note_on_c, 12, 69, 110
12, 102845, Note_on_c, 12, 66, 110
12, 103041, Note_on_c, 12, 66, 0
12, 103041, Note_on_c, 12, 69, 0
12, 103085, Note_on_c, 12, 69, 110
12, 103085, Note_on_c, 12, 66, 110
12, 103145, Note_on_c, 12, 66, 0
12, 103145, Note_on_c, 12, 69, 0
12, 103205, Note_on_c, 12, 59, 110
12, 103205, Control_c, 12, 11, 87
12, 103475, Control_c, 12, 11, 87
12, 103482, Control_c, 12, 11, 84
12, 103490, Control_c, 12, 11, 81
12, 103498, Control_c, 12, 11, 78
12, 103506, Control_c, 12, 11, 75
12, 103514, Control_c, 12, 11, 72
12, 103521, Control_c, 12, 11, 69
12, 103529, Control_c, 12, 11, 66
12, 103537, Control_c, 12, 11, 63
12, 103540, Note_on_c, 12, 59, 0
12, 104165, Control_c, 12, 11, 47
12, 104165, Note_on_c, 12, 59, 110
12, 104165, Note_on_c, 12, 62, 110
12, 104225, Note_on_c, 12, 62, 0
12, 104225, Note_on_c, 12, 59, 0
12, 104285, Note_on_c, 12, 62, 110
12, 104285, Note_on_c, 12, 59, 110
12, 104481, Note_on_c, 12, 59, 0
12, 104481, Note_on_c, 12, 62, 0
12, 104525, Note_on_c, 12, 59, 110
12, 104525, Note_on_c, 12, 62, 110
12, 104721, Note_on_c, 12, 62, 0
12, 104721, Note_on_c, 12, 59, 0
12, 104765, Note_on_c, 12, 62, 110
12, 104765, Note_on_c, 12, 59, 110
12, 104961, Note_on_c, 12, 59, 0
12, 104961, Note_on_c, 12, 62, 0
12, 105005, Note_on_c, 12, 59, 110
12, 105005, Note_on_c, 12, 62, 110
12, 105065, Note_on_c, 12, 62, 0
12, 105065, Note_on_c, 12, 59, 0
12, 105125, Note_on_c, 12, 60, 95
12, 105125, Control_c, 12, 11, 67
12, 105134, Control_c, 12, 11, 70
12, 105143, Control_c, 12, 11, 73
12, 105145, Note_on_c, 12, 60, 0
12, 105152, Control_c, 12, 11, 76
12, 105155, Note_on_c, 12, 60, 95
12, 105167, Control_c, 12, 11, 73
12, 105175, Note_on_c, 12, 60, 0
12, 105176, Control_c, 12, 11, 70
12, 105185, Note_on_c, 12, 60, 95
12, 105185, Control_c, 12, 11, 67
12, 105194, Control_c, 12, 11, 64
12, 105203, Control_c, 12, 11, 61
12, 105205, Note_on_c, 12, 60, 0
12, 105212, Control_c, 12, 11, 58
12, 105215, Note_on_c, 12, 60, 95
12, 105221, Control_c, 12, 11, 55
12, 105230, Control_c, 12, 11, 52
12, 105235, Note_on_c, 12, 60, 0
12, 105239, Control_c, 12, 11, 49
12, 105245, Note_on_c, 12, 60, 95
12, 105265, Note_on_c, 12, 60, 0
12, 105275, Note_on_c, 12, 60, 95
12, 105295, Note_on_c, 12, 60, 0
12, 105305, Note_on_c, 12, 60, 95
12, 105325, Note_on_c, 12, 60, 0
12, 105335, Note_on_c, 12, 60, 95
12, 105355, Note_on_c, 12, 60, 0
12, 105365, Note_on_c, 12, 60, 95
12, 105385, Note_on_c, 12, 60, 0
12, 105395, Note_on_c, 12, 60, 95
12, 105415, Note_on_c, 12, 60, 0
12, 105425, Note_on_c, 12, 60, 95
12, 105445, Note_on_c, 12, 60, 0
12, 105455, Note_on_c, 12, 60, 95
12, 105475, Note_on_c, 12, 60, 0
12, 105485, Note_on_c, 12, 60, 95
12, 105505, Note_on_c, 12, 60, 0
12, 105515, Note_on_c, 12, 60, 95
12, 105535, Note_on_c, 12, 60, 0
12, 105545, Note_on_c, 12, 60, 95
12, 105565, Note_on_c, 12, 60, 0
12, 105575, Note_on_c, 12, 60, 95
12, 105595, Note_on_c, 12, 60, 0
12, 105605, Note_on_c, 12, 60, 95
12, 105625, Note_on_c, 12, 60, 0
12, 105635, Note_on_c, 12, 60, 95
12, 105655, Note_on_c, 12, 60, 0
12, 105665, Note_on_c, 12, 60, 95
12, 105685, Note_on_c, 12, 60, 0
12, 105695, Note_on_c, 12, 60, 95
12, 105715, Note_on_c, 12, 60, 0
12, 105725, Note_on_c, 12, 60, 95
12, 105745, Note_on_c, 12, 60, 0
12, 105755, Note_on_c, 12, 60, 95
12, 105775, Note_on_c, 12, 60, 0
12, 105785, Note_on_c, 12, 60, 95
12, 105805, Note_on_c, 12, 60, 0
12, 105815, Note_on_c, 12, 60, 95
12, 105835, Note_on_c, 12, 60, 0
12, 105845, Note_on_c, 12, 60, 95
12, 105865, Note_on_c, 12, 60, 0
12, 105875, Note_on_c, 12, 60, 95
12, 105895, Note_on_c, 12, 60, 0
12, 105905, Note_on_c, 12, 60, 95
12, 105925, Note_on_c, 12, 60, 0
12, 105935, Note_on_c, 12, 60, 95
12, 105955, Note_on_c, 12, 60, 0
12, 105965, Note_on_c, 12, 60, 95
12, 105985, Note_on_c, 12, 60, 0
12, 105995, Note_on_c, 12, 60, 95
12, 106015, Note_on_c, 12, 60, 0
12, 106025, Note_on_c, 12, 60, 95
12, 106045, Note_on_c, 12, 60, 0
12, 106055, Note_on_c, 12, 60, 95
12, 106075, Note_on_c, 12, 60, 0
12, 106085, Note_on_c, 12, 60, 95
12, 106105, Note_on_c, 12, 60, 0
12, 106115, Note_on_c, 12, 60, 95
12, 106135, Note_on_c, 12, 60, 0
12, 106145, Note_on_c, 12, 60, 95
12, 106165, Note_on_c, 12, 60, 0
12, 106175, Note_on_c, 12, 60, 95
12, 106195, Note_on_c, 12, 60, 0
12, 106205, Note_on_c, 12, 60, 95
12, 106225, Note_on_c, 12, 60, 0
12, 106235, Note_on_c, 12, 60, 95
12, 106255, Note_on_c, 12, 60, 0
12, 106265, Note_on_c, 12, 60, 95
12, 106285, Note_on_c, 12, 60, 0
12, 106295, Note_on_c, 12, 60, 95
12, 106315, Note_on_c, 12, 60, 0
12, 106325, Note_on_c, 12, 60, 95
12, 106345, Note_on_c, 12, 60, 0
12, 106355, Note_on_c, 12, 60, 95
12, 106375, Note_on_c, 12, 60, 0
12, 106385, Note_on_c, 12, 60, 95
12, 106405, Note_on_c, 12, 60, 0
12, 106415, Note_on_c, 12, 60, 95
12, 106435, Note_on_c, 12, 60, 0
12, 106445, Note_on_c, 12, 60, 95
12, 106465, Note_on_c, 12, 60, 0
12, 106475, Note_on_c, 12, 60, 95
12, 106495, Note_on_c, 12, 60, 0
12, 106505, Note_on_c, 12, 60, 95
12, 106525, Note_on_c, 12, 60, 0
12, 106535, Note_on_c, 12, 60, 95
12, 106555, Note_on_c, 12, 60, 0
12, 106565, Note_on_c, 12, 60, 95
12, 106585, Note_on_c, 12, 60, 0
12, 106595, Note_on_c, 12, 60, 95
12, 106615, Note_on_c, 12, 60, 0
12, 106625, Note_on_c, 12, 60, 95
12, 106645, Note_on_c, 12, 60, 0
12, 106655, Note_on_c, 12, 60, 95
12, 106675, Note_on_c, 12, 60, 0
12, 106685, Note_on_c, 12, 60, 95
12, 106705, Note_on_c, 12, 60, 0
12, 106715, Note_on_c, 12, 60, 95
12, 106735, Note_on_c, 12, 60, 0
12, 106745, Note_on_c, 12, 60, 95
12, 106765, Note_on_c, 12, 60, 0
12, 106775, Note_on_c, 12, 60, 95
12, 106795, Note_on_c, 12, 60, 0
12, 106805, Note_on_c, 12, 60, 95
12, 106825, Note_on_c, 12, 60, 0
12, 106835, Note_on_c, 12, 60, 95
12, 106855, Note_on_c, 12, 60, 0
12, 106865, Note_on_c, 12, 60, 95
12, 106885, Note_on_c, 12, 60, 0
12, 106895, Note_on_c, 12, 60, 95
12, 106915, Note_on_c, 12, 60, 0
12, 106925, Note_on_c, 12, 60, 95
12, 106945, Note_on_c, 12, 60, 0
12, 106955, Note_on_c, 12, 60, 95
12, 106975, Note_on_c, 12, 60, 0
12, 106985, Note_on_c, 12, 60, 95
12, 107005, Note_on_c, 12, 60, 0
12, 107015, Note_on_c, 12, 60, 95
12, 107035, Note_on_c, 12, 60, 0
12, 107045, Control_c, 12, 11, 67
12, 107045, Note_on_c, 12, 60, 95
12, 107054, Control_c, 12, 11, 70
12, 107063, Control_c, 12, 11, 73
12, 107065, Note_on_c, 12, 60, 0
12, 107072, Control_c, 12, 11, 76
12, 107075, Note_on_c, 12, 65, 95
12, 107087, Control_c, 12, 11, 73
12, 107095, Note_on_c, 12, 65, 0
12, 107096, Control_c, 12, 11, 70
12, 107105, Note_on_c, 12, 65, 95
12, 107105, Control_c, 12, 11, 67
12, 107114, Control_c, 12, 11, 64
12, 107123, Control_c, 12, 11, 61
12, 107125, Note_on_c, 12, 65, 0
12, 107132, Control_c, 12, 11, 58
12, 107135, Note_on_c, 12, 65, 95
12, 107141, Control_c, 12, 11, 55
12, 107150, Control_c, 12, 11, 52
12, 107155, Note_on_c, 12, 65, 0
12, 107159, Control_c, 12, 11, 49
12, 107165, Note_on_c, 12, 65, 95
12, 107185, Note_on_c, 12, 65, 0
12, 107195, Note_on_c, 12, 65, 95
12, 107215, Note_on_c, 12, 65, 0
12, 107225, Note_on_c, 12, 65, 95
12, 107245, Note_on_c, 12, 65, 0
12, 107255, Note_on_c, 12, 65, 95
12, 107275, Note_on_c, 12, 65, 0
12, 107285, Note_on_c, 12, 65, 95
12, 107305, Note_on_c, 12, 65, 0
12, 107315, Note_on_c, 12, 65, 95
12, 107335, Note_on_c, 12, 65, 0
12, 107345, Note_on_c, 12, 65, 95
12, 107365, Note_on_c, 12, 65, 0
12, 107375, Note_on_c, 12, 65, 95
12, 107395, Note_on_c, 12, 65, 0
12, 107405, Note_on_c, 12, 65, 95
12, 107425, Note_on_c, 12, 65, 0
12, 107435, Note_on_c, 12, 65, 95
12, 107455, Note_on_c, 12, 65, 0
12, 107465, Note_on_c, 12, 65, 95
12, 107485, Note_on_c, 12, 65, 0
12, 107495, Note_on_c, 12, 65, 95
12, 107515, Note_on_c, 12, 65, 0
12, 107525, Note_on_c, 12, 65, 95
12, 107545, Note_on_c, 12, 65, 0
12, 107555, Note_on_c, 12, 65, 95
12, 107575, Note_on_c, 12, 65, 0
12, 107585, Note_on_c, 12, 65, 95
12, 107605, Note_on_c, 12, 65, 0
12, 107615, Note_on_c, 12, 65, 95
12, 107635, Note_on_c, 12, 65, 0
12, 107645, Note_on_c, 12, 65, 95
12, 107665, Note_on_c, 12, 65, 0
12, 107675, Note_on_c, 12, 65, 95
12, 107695, Note_on_c, 12, 65, 0
12, 107705, Note_on_c, 12, 65, 95
12, 107725, Note_on_c, 12, 65, 0
12, 107735, Note_on_c, 12, 65, 95
12, 107755, Note_on_c, 12, 65, 0
12, 107765, Note_on_c, 12, 65, 95
12, 107785, Note_on_c, 12, 65, 0
12, 107795, Note_on_c, 12, 65, 95
12, 107815, Note_on_c, 12, 65, 0
12, 107825, Note_on_c, 12, 65, 95
12, 107845, Note_on_c, 12, 65, 0
12, 107855, Note_on_c, 12, 65, 95
12, 107875, Note_on_c, 12, 65, 0
12, 107885, Note_on_c, 12, 65, 95
12, 107905, Note_on_c, 12, 65, 0
12, 107915, Note_on_c, 12, 65, 95
12, 107935, Note_on_c, 12, 65, 0
12, 107945, Note_on_c, 12, 65, 95
12, 107965, Note_on_c, 12, 65, 0
12, 107975, Note_on_c, 12, 65, 95
12, 107995, Note_on_c, 12, 65, 0
12, 108005, Note_on_c, 12, 65, 95
12, 108025, Note_on_c, 12, 65, 0
12, 108035, Note_on_c, 12, 65, 95
12, 108055, Note_on_c, 12, 65, 0
12, 108065, Note_on_c, 12, 65, 95
12, 108085, Note_on_c, 12, 65, 0
12, 108095, Note_on_c, 12, 65, 95
12, 108115, Note_on_c, 12, 65, 0
12, 108125, Note_on_c, 12, 65, 95
12, 108145, Note_on_c, 12, 65, 0
12, 108155, Note_on_c, 12, 65, 95
12, 108175, Note_on_c, 12, 65, 0
12, 108185, Note_on_c, 12, 65, 95
12, 108205, Note_on_c, 12, 65, 0
12, 108215, Note_on_c, 12, 65, 95
12, 108235, Note_on_c, 12, 65, 0
12, 108245, Note_on_c, 12, 65, 95
12, 108265, Note_on_c, 12, 65, 0
12, 108275, Note_on_c, 12, 65, 95
12, 108295, Note_on_c, 12, 65, 0
12, 108305, Note_on_c, 12, 65, 95
12, 108325, Note_on_c, 12, 65, 0
12, 108335, Note_on_c, 12, 65, 95
12, 108355, Note_on_c, 12, 65, 0
12, 108365, Note_on_c, 12, 65, 95
12, 108385, Note_on_c, 12, 65, 0
12, 108395, Note_on_c, 12, 65, 95
12, 108415, Note_on_c, 12, 65, 0
12, 108425, Note_on_c, 12, 65, 95
12, 108445, Note_on_c, 12, 65, 0
12, 108455, Note_on_c, 12, 65, 95
12, 108475, Note_on_c, 12, 65, 0
12, 108485, Note_on_c, 12, 65, 95
12, 108505, Note_on_c, 12, 65, 0
12, 108515, Note_on_c, 12, 65, 95
12, 108535, Note_on_c, 12, 65, 0
12, 108545, Note_on_c, 12, 65, 95
12, 108565, Note_on_c, 12, 65, 0
12, 108575, Note_on_c, 12, 65, 95
12, 108595, Note_on_c, 12, 65, 0
12, 108605, Note_on_c, 12, 65, 95
12, 108625, Note_on_c, 12, 65, 0
12, 108635, Note_on_c, 12, 65, 95
12, 108655, Note_on_c, 12, 65, 0
12, 108665, Note_on_c, 12, 65, 95
12, 108685, Note_on_c, 12, 65, 0
12, 108695, Note_on_c, 12, 65, 95
12, 108715, Note_on_c, 12, 65, 0
12, 108725, Note_on_c, 12, 65, 95
12, 108745, Note_on_c, 12, 65, 0
12, 108755, Note_on_c, 12, 65, 95
12, 108775, Note_on_c, 12, 65, 0
12, 108785, Note_on_c, 12, 65, 95
12, 108805, Note_on_c, 12, 65, 0
12, 108815, Note_on_c, 12, 65, 95
12, 108835, Note_on_c, 12, 65, 0
12, 108845, Note_on_c, 12, 65, 95
12, 108865, Note_on_c, 12, 65, 0
12, 108875, Note_on_c, 12, 65, 95
12, 108895, Note_on_c, 12, 65, 0
12, 108905, Note_on_c, 12, 65, 95
12, 108925, Note_on_c, 12, 65, 0
12, 108935, Note_on_c, 12, 65, 95
12, 108955, Note_on_c, 12, 65, 0
12, 108965, Note_on_c, 12, 65, 95
12, 108965, Control_c, 12, 11, 47
12, 108985, Note_on_c, 12, 65, 0
12, 108989, Control_c, 12, 11, 45
12, 108995, Note_on_c, 12, 62, 95
12, 109013, Control_c, 12, 11, 43
12, 109015, Note_on_c, 12, 62, 0
12, 109025, Note_on_c, 12, 62, 95
12, 109037, Control_c, 12, 11, 41
12, 109045, Note_on_c, 12, 62, 0
12, 109055, Note_on_c, 12, 62, 95
12, 109061, Control_c, 12, 11, 39
12, 109075, Note_on_c, 12, 62, 0
12, 109085, Note_on_c, 12, 62, 95
12, 109085, Control_c, 12, 11, 37
12, 109105, Note_on_c, 12, 62, 0
12, 109115, Note_on_c, 12, 62, 95
12, 109135, Note_on_c, 12, 62, 0
12, 109145, Note_on_c, 12, 62, 95
12, 109165, Note_on_c, 12, 62, 0
12, 109175, Note_on_c, 12, 62, 95
12, 109195, Note_on_c, 12, 62, 0
12, 109205, Note_on_c, 12, 62, 95
12, 109225, Note_on_c, 12, 62, 0
12, 109235, Note_on_c, 12, 62, 95
12, 109255, Note_on_c, 12, 62, 0
12, 109265, Note_on_c, 12, 62, 95
12, 109285, Note_on_c, 12, 62, 0
12, 109295, Note_on_c, 12, 62, 95
12, 109315, Note_on_c, 12, 62, 0
12, 109325, Note_on_c, 12, 62, 95
12, 109345, Note_on_c, 12, 62, 0
12, 109355, Note_on_c, 12, 62, 95
12, 109375, Note_on_c, 12, 62, 0
12, 109385, Note_on_c, 12, 62, 95
12, 109405, Note_on_c, 12, 62, 0
12, 109415, Note_on_c, 12, 62, 95
12, 109435, Note_on_c, 12, 62, 0
12, 109445, Note_on_c, 12, 62, 95
12, 109465, Note_on_c, 12, 62, 0
12, 109475, Note_on_c, 12, 62, 95
12, 109495, Note_on_c, 12, 62, 0
12, 109505, Note_on_c, 12, 62, 95
12, 109525, Note_on_c, 12, 62, 0
12, 109535, Note_on_c, 12, 62, 95
12, 109555, Note_on_c, 12, 62, 0
12, 109565, Note_on_c, 12, 62, 95
12, 109585, Note_on_c, 12, 62, 0
12, 109595, Note_on_c, 12, 62, 95
12, 109615, Note_on_c, 12, 62, 0
12, 109625, Note_on_c, 12, 62, 95
12, 109645, Note_on_c, 12, 62, 0
12, 109655, Note_on_c, 12, 62, 95
12, 109675, Note_on_c, 12, 62, 0
12, 109685, Note_on_c, 12, 62, 95
12, 109705, Note_on_c, 12, 62, 0
12, 109715, Note_on_c, 12, 62, 95
12, 109735, Note_on_c, 12, 62, 0
12, 109745, Note_on_c, 12, 62, 95
12, 109765, Note_on_c, 12, 62, 0
12, 109775, Note_on_c, 12, 62, 95
12, 109795, Note_on_c, 12, 62, 0
12, 109805, Note_on_c, 12, 62, 95
12, 109825, Note_on_c, 12, 62, 0
12, 109835, Note_on_c, 12, 62, 95
12, 109855, Note_on_c, 12, 62, 0
12, 109865, Note_on_c, 12, 62, 95
12, 109885, Note_on_c, 12, 62, 0
12, 109895, Note_on_c, 12, 62, 95
12, 109915, Note_on_c, 12, 62, 0
12, 109925, Control_c, 12, 11, 37
12, 109925, Note_on_c, 12, 63, 95
12, 109945, Note_on_c, 12, 63, 0
12, 109954, Control_c, 12, 11, 39
12, 109955, Note_on_c, 12, 63, 95
12, 109969, Control_c, 12, 11, 40
12, 109975, Note_on_c, 12, 63, 0
12, 109984, Control_c, 12, 11, 41
12, 109985, Note_on_c, 12, 63, 95
12, 110005, Note_on_c, 12, 63, 0
12, 110013, Control_c, 12, 11, 43
12, 110015, Note_on_c, 12, 63, 95
12, 110028, Control_c, 12, 11, 44
12, 110035, Note_on_c, 12, 63, 0
12, 110043, Control_c, 12, 11, 45
12, 110045, Note_on_c, 12, 63, 95
12, 110065, Note_on_c, 12, 63, 0
12, 110072, Control_c, 12, 11, 47
12, 110075, Note_on_c, 12, 63, 95
12, 110087, Control_c, 12, 11, 48
12, 110095, Note_on_c, 12, 63, 0
12, 110102, Control_c, 12, 11, 49
12, 110105, Note_on_c, 12, 63, 95
12, 110117, Control_c, 12, 11, 50
12, 110125, Note_on_c, 12, 63, 0
12, 110135, Note_on_c, 12, 63, 95
12, 110146, Control_c, 12, 11, 52
12, 110155, Note_on_c, 12, 63, 0
12, 110161, Control_c, 12, 11, 53
12, 110165, Note_on_c, 12, 63, 95
12, 110176, Control_c, 12, 11, 54
12, 110185, Note_on_c, 12, 63, 0
12, 110195, Note_on_c, 12, 63, 95
12, 110205, Control_c, 12, 11, 56
12, 110215, Note_on_c, 12, 63, 0
12, 110220, Control_c, 12, 11, 57
12, 110225, Note_on_c, 12, 63, 95
12, 110235, Control_c, 12, 11, 58
12, 110245, Note_on_c, 12, 63, 0
12, 110255, Note_on_c, 12, 63, 95
12, 110264, Control_c, 12, 11, 60
12, 110275, Note_on_c, 12, 63, 0
12, 110279, Control_c, 12, 11, 61
12, 110285, Note_on_c, 12, 63, 95
12, 110294, Control_c, 12, 11, 62
12, 110305, Note_on_c, 12, 63, 0
12, 110309, Control_c, 12, 11, 63
12, 110315, Note_on_c, 12, 63, 95
12, 110335, Note_on_c, 12, 63, 0
12, 110338, Control_c, 12, 11, 65
12, 110345, Note_on_c, 12, 63, 95
12, 110353, Control_c, 12, 11, 66
12, 110365, Note_on_c, 12, 63, 0
12, 110368, Control_c, 12, 11, 67
12, 110375, Note_on_c, 12, 63, 95
12, 110395, Note_on_c, 12, 63, 0
12, 110397, Control_c, 12, 11, 69
12, 110405, Note_on_c, 12, 63, 95
12, 110412, Control_c, 12, 11, 70
12, 110425, Note_on_c, 12, 63, 0
12, 110427, Control_c, 12, 11, 71
12, 110435, Note_on_c, 12, 63, 95
12, 110455, Note_on_c, 12, 63, 0
12, 110456, Control_c, 12, 11, 73
12, 110465, Note_on_c, 12, 63, 95
12, 110471, Control_c, 12, 11, 74
12, 110485, Note_on_c, 12, 63, 0
12, 110486, Control_c, 12, 11, 75
12, 110495, Note_on_c, 12, 63, 95
12, 110501, Control_c, 12, 11, 76
12, 110515, Note_on_c, 12, 63, 0
12, 110525, Note_on_c, 12, 63, 95
12, 110530, Control_c, 12, 11, 78
12, 110545, Note_on_c, 12, 63, 0
12, 110545, Control_c, 12, 11, 79
12, 110555, Note_on_c, 12, 63, 95
12, 110560, Control_c, 12, 11, 80
12, 110575, Note_on_c, 12, 63, 0
12, 110585, Note_on_c, 12, 63, 95
12, 110589, Control_c, 12, 11, 82
12, 110604, Control_c, 12, 11, 83
12, 110605, Note_on_c, 12, 63, 0
12, 110615, Note_on_c, 12, 63, 95
12, 110619, Control_c, 12, 11, 84
12, 110635, Note_on_c, 12, 63, 0
12, 110645, Note_on_c, 12, 63, 95
12, 110648, Control_c, 12, 11, 86
12, 110663, Control_c, 12, 11, 87
12, 110665, Note_on_c, 12, 63, 0
12, 110675, Note_on_c, 12, 63, 95
12, 110678, Control_c, 12, 11, 88
12, 110693, Control_c, 12, 11, 89
12, 110695, Note_on_c, 12, 63, 0
12, 110705, Note_on_c, 12, 63, 95
12, 110722, Control_c, 12, 11, 91
12, 110725, Note_on_c, 12, 63, 0
12, 110735, Note_on_c, 12, 63, 95
12, 110737, Control_c, 12, 11, 92
12, 110752, Control_c, 12, 11, 93
12, 110755, Note_on_c, 12, 63, 0
12, 110765, Note_on_c, 12, 63, 95
12, 110781, Control_c, 12, 11, 95
12, 110785, Note_on_c, 12, 63, 0
12, 110795, Note_on_c, 12, 63, 95
12, 110796, Control_c, 12, 11, 96
12, 110811, Control_c, 12, 11, 97
12, 110815, Note_on_c, 12, 63, 0
12, 110825, Note_on_c, 12, 63, 95
12, 110840, Control_c, 12, 11, 99
12, 110845, Note_on_c, 12, 63, 0
12, 110855, Control_c, 12, 11, 100
12, 110855, Note_on_c, 12, 63, 95
12, 110870, Control_c, 12, 11, 101
12, 110875, Note_on_c, 12, 63, 0
12, 110885, Control_c, 12, 11, 102
12, 110885, Note_on_c, 12, 66, 95
12, 110905, Note_on_c, 12, 66, 0
12, 110915, Note_on_c, 12, 66, 95
12, 110935, Note_on_c, 12, 66, 0
12, 110945, Note_on_c, 12, 66, 95
12, 110965, Note_on_c, 12, 66, 0
12, 110975, Note_on_c, 12, 66, 95
12, 110995, Note_on_c, 12, 66, 0
12, 111005, Note_on_c, 12, 66, 95
12, 111025, Note_on_c, 12, 66, 0
12, 111035, Note_on_c, 12, 66, 95
12, 111055, Note_on_c, 12, 66, 0
12, 111065, Note_on_c, 12, 66, 95
12, 111085, Note_on_c, 12, 66, 0
12, 111095, Note_on_c, 12, 66, 95
12, 111115, Note_on_c, 12, 66, 0
12, 111125, Note_on_c, 12, 66, 95
12, 111145, Note_on_c, 12, 66, 0
12, 111155, Note_on_c, 12, 66, 95
12, 111175, Note_on_c, 12, 66, 0
12, 111185, Note_on_c, 12, 66, 96
12, 111205, Note_on_c, 12, 66, 0
12, 111215, Note_on_c, 12, 66, 96
12, 111235, Note_on_c, 12, 66, 0
12, 111245, Note_on_c, 12, 66, 97
12, 111265, Note_on_c, 12, 66, 0
12, 111275, Note_on_c, 12, 66, 98
12, 111295, Note_on_c, 12, 66, 0
12, 111305, Note_on_c, 12, 66, 98
12, 111325, Note_on_c, 12, 66, 0
12, 111335, Note_on_c, 12, 66, 99
12, 111355, Note_on_c, 12, 66, 0
12, 111365, Note_on_c, 12, 66, 100
12, 111385, Note_on_c, 12, 66, 0
12, 111395, Note_on_c, 12, 66, 100
12, 111415, Note_on_c, 12, 66, 0
12, 111425, Note_on_c, 12, 66, 101
12, 111445, Note_on_c, 12, 66, 0
12, 111455, Note_on_c, 12, 66, 101
12, 111475, Note_on_c, 12, 66, 0
12, 111485, Note_on_c, 12, 66, 102
12, 111505, Note_on_c, 12, 66, 0
12, 111515, Note_on_c, 12, 66, 103
12, 111535, Note_on_c, 12, 66, 0
12, 111545, Note_on_c, 12, 66, 103
12, 111565, Note_on_c, 12, 66, 0
12, 111575, Note_on_c, 12, 66, 104
12, 111595, Note_on_c, 12, 66, 0
12, 111605, Note_on_c, 12, 66, 105
12, 111625, Note_on_c, 12, 66, 0
12, 111635, Note_on_c, 12, 66, 105
12, 111655, Note_on_c, 12, 66, 0
12, 111665, Note_on_c, 12, 66, 106
12, 111685, Note_on_c, 12, 66, 0
12, 111695, Note_on_c, 12, 66, 106
12, 111715, Note_on_c, 12, 66, 0
12, 111725, Note_on_c, 12, 66, 107
12, 111745, Note_on_c, 12, 66, 0
12, 111755, Note_on_c, 12, 66, 108
12, 111775, Note_on_c, 12, 66, 0
12, 111785, Note_on_c, 12, 66, 108
12, 111805, Note_on_c, 12, 66, 0
12, 111815, Control_c, 12, 11, 92
12, 111815, Note_on_c, 12, 66, 109
12, 111820, Control_c, 12, 11, 89
12, 111825, Control_c, 12, 11, 86
12, 111830, Control_c, 12, 11, 83
12, 111835, Note_on_c, 12, 66, 0
12, 111835, Control_c, 12, 11, 80
12, 111840, Control_c, 12, 11, 77
12, 111845, Control_c, 12, 11, 74
12, 111845, Note_on_c, 12, 65, 100
12, 111850, Control_c, 12, 11, 71
12, 111855, Control_c, 12, 11, 68
12, 111860, Control_c, 12, 11, 65
12, 111865, Control_c, 12, 11, 62
12, 111870, Control_c, 12, 11, 59
12, 111875, Control_c, 12, 11, 56
12, 111880, Control_c, 12, 11, 53
12, 111885, Control_c, 12, 11, 50
12, 111890, Control_c, 12, 11, 47
12, 111965, Note_on_c, 12, 65, 0
12, 112445, Note_on_c, 12, 70, 110
12, 112505, Note_on_c, 12, 70, 0
12, 112565, Note_on_c, 12, 70, 110
12, 112625, Note_on_c, 12, 70, 0
12, 112685, Note_on_c, 12, 70, 110
12, 112745, Note_on_c, 12, 70, 0
12, 112805, Note_on_c, 12, 58, 110
12, 112925, Note_on_c, 12, 58, 0
12, 113405, Note_on_c, 12, 70, 110
12, 113465, Note_on_c, 12, 70, 0
12, 113525, Note_on_c, 12, 70, 110
12, 113585, Note_on_c, 12, 70, 0
12, 113645, Note_on_c, 12, 70, 110
12, 113705, Note_on_c, 12, 70, 0
12, 113705, Control_c, 12, 11, 47
12, 113714, Control_c, 12, 11, 50
12, 113723, Control_c, 12, 11, 53
12, 113732, Control_c, 12, 11, 56
12, 113741, Control_c, 12, 11, 59
12, 113750, Control_c, 12, 11, 62
12, 113759, Control_c, 12, 11, 65
12, 113765, Note_on_c, 12, 58, 110
12, 113768, Control_c, 12, 11, 68
12, 113777, Control_c, 12, 11, 71
12, 113786, Control_c, 12, 11, 74
12, 113795, Note_on_c, 12, 58, 0
12, 113795, Control_c, 12, 11, 77
12, 113804, Control_c, 12, 11, 80
12, 113813, Control_c, 12, 11, 83
12, 113822, Control_c, 12, 11, 86
12, 113825, Note_on_c, 12, 70, 110
12, 113855, Note_on_c, 12, 70, 0
12, 113885, Note_on_c, 12, 70, 110
12, 113915, Note_on_c, 12, 70, 0
12, 113945, Note_on_c, 12, 70, 110
12, 113975, Note_on_c, 12, 70, 0
12, 114005, Note_on_c, 12, 68, 110
12, 114065, Note_on_c, 12, 68, 0
12, 114065, Note_on_c, 12, 67, 110
12, 114115, Note_on_c, 12, 67, 0
12, 114125, Note_on_c, 12, 65, 110
12, 114155, Note_on_c, 12, 65, 0
12, 114185, Note_on_c, 12, 63, 110
12, 114215, Note_on_c, 12, 63, 0
12, 114245, Note_on_c, 12, 58, 110
12, 114275, Note_on_c, 12, 58, 0
12, 114305, Note_on_c, 12, 70, 110
12, 114335, Note_on_c, 12, 70, 0
12, 114365, Note_on_c, 12, 70, 110
12, 114395, Note_on_c, 12, 70, 0
12, 114425, Note_on_c, 12, 70, 110
12, 114455, Note_on_c, 12, 70, 0
12, 114485, Note_on_c, 12, 68, 110
12, 114545, Note_on_c, 12, 68, 0
12, 114545, Note_on_c, 12, 67, 110
12, 114595, Note_on_c, 12, 67, 0
12, 114605, Note_on_c, 12, 65, 110
12, 114635, Note_on_c, 12, 65, 0
12, 114665, Note_on_c, 12, 63, 110
12, 114695, Note_on_c, 12, 63, 0
12, 114725, Note_on_c, 12, 58, 110
12, 114845, Note_on_c, 12, 58, 0
12, 118685, Note_on_c, 12, 56, 110
12, 118685, Control_c, 12, 11, 47
12, 118915, Note_on_c, 12, 56, 0
12, 118925, Note_on_c, 12, 55, 110
12, 119035, Note_on_c, 12, 55, 0
12, 119045, Note_on_c, 12, 53, 110
12, 119165, Note_on_c, 12, 53, 0
12, 120605, Note_on_c, 12, 58, 110
12, 120835, Note_on_c, 12, 58, 0
12, 120845, Note_on_c, 12, 57, 110
12, 120955, Note_on_c, 12, 57, 0
12, 120965, Note_on_c, 12, 55, 110
12, 121085, Note_on_c, 12, 55, 0
12, 121325, Note_on_c, 12, 57, 110
12, 121415, Note_on_c, 12, 57, 0
12, 121415, Note_on_c, 12, 61, 110
12, 121435, Note_on_c, 12, 61, 0
12, 121445, Note_on_c, 12, 62, 110
12, 121565, Note_on_c, 12, 62, 0
12, 121805, Note_on_c, 12, 69, 110
12, 121915, Note_on_c, 12, 69, 0
12, 121925, Note_on_c, 12, 62, 110
12, 122045, Note_on_c, 12, 62, 0
12, 122285, Note_on_c, 12, 52, 110
12, 122375, Note_on_c, 12, 52, 0
12, 122375, Note_on_c, 12, 56, 110
12, 122395, Note_on_c, 12, 56, 0
12, 122405, Note_on_c, 12, 57, 110
12, 122525, Note_on_c, 12, 57, 0
12, 122765, Note_on_c, 12, 64, 110
12, 122875, Note_on_c, 12, 64, 0
12, 122885, Note_on_c, 12, 57, 110
12, 123005, Note_on_c, 12, 57, 0
12, 123244, Program_c, 12, 50
12, 123245, Control_c, 12, 11, 67
12, 123245, Note_on_c, 12, 65, 110
12, 123255, Control_c, 12, 11, 70
12, 123265, Control_c, 12, 11, 73
12, 123275, Control_c, 12, 11, 76
12, 123286, Control_c, 12, 11, 79
12, 123296, Control_c, 12, 11, 82
12, 123306, Control_c, 12, 11, 85
12, 123315, Note_on_c, 12, 65, 0
12, 123317, Control_c, 12, 11, 88
12, 123327, Control_c, 12, 11, 91
12, 123335, Note_on_c, 12, 65, 110
12, 123337, Control_c, 12, 11, 94
12, 123347, Control_c, 12, 11, 97
12, 123355, Note_on_c, 12, 65, 0
12, 123358, Control_c, 12, 11, 100
12, 123365, Note_on_c, 12, 64, 110
12, 123715, Note_on_c, 12, 64, 0
12, 123725, Note_on_c, 12, 59, 110
12, 123815, Note_on_c, 12, 59, 0
12, 123815, Note_on_c, 12, 63, 110
12, 123835, Note_on_c, 12, 63, 0
12, 123845, Note_on_c, 12, 64, 110
12, 123875, Note_on_c, 12, 64, 0
12, 123905, Note_on_c, 12, 66, 110
12, 123935, Note_on_c, 12, 66, 0
12, 123965, Note_on_c, 12, 68, 110
12, 123995, Note_on_c, 12, 68, 0
12, 124025, Note_on_c, 12, 69, 110
12, 124055, Note_on_c, 12, 69, 0
12, 124085, Note_on_c, 12, 71, 110
12, 124115, Note_on_c, 12, 71, 0
12, 124145, Note_on_c, 12, 72, 110
12, 124175, Note_on_c, 12, 72, 0
12, 124205, Note_on_c, 12, 74, 110
12, 124235, Note_on_c, 12, 74, 0
12, 124265, Note_on_c, 12, 71, 110
12, 124295, Note_on_c, 12, 71, 0
12, 124325, Note_on_c, 12, 69, 110
12, 124445, Note_on_c, 12, 69, 0
12, 125165, Note_on_c, 12, 57, 110
12, 125195, Note_on_c, 12, 57, 0
12, 125195, Note_on_c, 12, 59, 110
12, 125225, Note_on_c, 12, 59, 0
12, 125225, Note_on_c, 12, 60, 110
12, 125255, Note_on_c, 12, 60, 0
12, 125255, Note_on_c, 12, 62, 110
12, 125275, Note_on_c, 12, 62, 0
12, 125285, Note_on_c, 12, 64, 110
12, 125635, Note_on_c, 12, 64, 0
12, 125645, Note_on_c, 12, 59, 110
12, 125735, Note_on_c, 12, 59, 0
12, 125735, Note_on_c, 12, 63, 110
12, 125755, Note_on_c, 12, 63, 0
12, 125765, Note_on_c, 12, 64, 110
12, 125795, Note_on_c, 12, 64, 0
12, 125825, Note_on_c, 12, 66, 110
12, 125855, Note_on_c, 12, 66, 0
12, 125885, Note_on_c, 12, 68, 110
12, 125915, Note_on_c, 12, 68, 0
12, 125945, Note_on_c, 12, 69, 110
12, 125975, Note_on_c, 12, 69, 0
12, 126005, Note_on_c, 12, 71, 110
12, 126035, Note_on_c, 12, 71, 0
12, 126065, Note_on_c, 12, 72, 110
12, 126095, Note_on_c, 12, 72, 0
12, 126125, Note_on_c, 12, 74, 110
12, 126155, Note_on_c, 12, 74, 0
12, 126185, Note_on_c, 12, 71, 110
12, 126215, Note_on_c, 12, 71, 0
12, 126245, Note_on_c, 12, 69, 110
12, 126365, Note_on_c, 12, 69, 0
12, 127085, Note_on_c, 12, 57, 110
12, 127115, Note_on_c, 12, 57, 0
12, 127115, Note_on_c, 12, 59, 110
12, 127145, Note_on_c, 12, 59, 0
12, 127145, Note_on_c, 12, 60, 110
12, 127175, Note_on_c, 12, 60, 0
12, 127175, Note_on_c, 12, 62, 110
12, 127195, Note_on_c, 12, 62, 0
12, 127205, Control_c, 12, 11, 122
12, 127205, Note_on_c, 12, 64, 110
12, 127222, Control_c, 12, 11, 119
12, 127240, Control_c, 12, 11, 116
12, 127258, Control_c, 12, 11, 113
12, 127276, Control_c, 12, 11, 110
12, 127294, Control_c, 12, 11, 107
12, 127312, Control_c, 12, 11, 104
12, 127325, Note_on_c, 12, 64, 0
12, 127565, Note_on_c, 12, 57, 110
12, 127595, Note_on_c, 12, 57, 0
12, 127595, Note_on_c, 12, 59, 110
12, 127625, Note_on_c, 12, 59, 0
12, 127625, Note_on_c, 12, 60, 110
12, 127655, Note_on_c, 12, 60, 0
12, 127655, Note_on_c, 12, 62, 110
12, 127675, Note_on_c, 12, 62, 0
12, 127685, Note_on_c, 12, 64, 110
12, 127685, Control_c, 12, 11, 122
12, 127702, Control_c, 12, 11, 119
12, 127720, Control_c, 12, 11, 116
12, 127738, Control_c, 12, 11, 113
12, 127756, Control_c, 12, 11, 110
12, 127774, Control_c, 12, 11, 107
12, 127792, Control_c, 12, 11, 104
12, 127805, Note_on_c, 12, 64, 0
12, 128045, Note_on_c, 12, 57, 110
12, 128075, Note_on_c, 12, 57, 0
12, 128075, Note_on_c, 12, 59, 110
12, 128105, Note_on_c, 12, 59, 0
12, 128105, Note_on_c, 12, 60, 110
12, 128135, Note_on_c, 12, 60, 0
12, 128135, Note_on_c, 12, 62, 110
12, 128155, Note_on_c, 12, 62, 0
12, 128165, Control_c, 12, 11, 122
12, 128165, Note_on_c, 12, 64, 110
12, 128182, Control_c, 12, 11, 119
12, 128200, Control_c, 12, 11, 116
12, 128218, Control_c, 12, 11, 113
12, 128236, Control_c, 12, 11, 110
12, 128254, Control_c, 12, 11, 107
12, 128272, Control_c, 12, 11, 104
12, 128285, Note_on_c, 12, 64, 0
12, 128645, Note_on_c, 12, 64, 110
12, 128717, Note_on_c, 12, 64, 0
12, 128885, Note_on_c, 12, 64, 110
12, 128957, Note_on_c, 12, 64, 0
12, 129125, Note_on_c, 12, 64, 110
12, 129197, Note_on_c, 12, 64, 0
12, 131885, Note_on_c, 12, 67, 110
12, 131885, Control_c, 12, 11, 70
12, 131896, Control_c, 12, 11, 73
12, 131907, Control_c, 12, 11, 76
12, 131915, Note_on_c, 12, 67, 0
12, 131915, Note_on_c, 12, 65, 110
12, 131918, Control_c, 12, 11, 79
12, 131930, Control_c, 12, 11, 82
12, 131941, Control_c, 12, 11, 85
12, 131945, Note_on_c, 12, 65, 0
12, 131945, Note_on_c, 12, 64, 110
12, 131952, Control_c, 12, 11, 88
12, 131963, Control_c, 12, 11, 91
12, 131975, Note_on_c, 12, 64, 0
12, 131975, Control_c, 12, 11, 94
12, 131975, Note_on_c, 12, 62, 110
12, 131986, Control_c, 12, 11, 97
12, 131992, Note_on_c, 12, 62, 0
12, 131997, Control_c, 12, 11, 100
12, 132005, Note_on_c, 12, 60, 110
12, 132313, Note_on_c, 12, 60, 0
12, 132365, Note_on_c, 12, 55, 110
12, 132455, Note_on_c, 12, 55, 0
12, 132455, Note_on_c, 12, 59, 110
12, 132475, Note_on_c, 12, 59, 0
12, 132485, Control_c, 12, 11, 122
12, 132485, Note_on_c, 12, 60, 110
12, 132502, Control_c, 12, 11, 119
12, 132520, Control_c, 12, 11, 116
12, 132538, Control_c, 12, 11, 113
12, 132556, Control_c, 12, 11, 110
12, 132574, Control_c, 12, 11, 107
12, 132592, Control_c, 12, 11, 104
12, 132793, Note_on_c, 12, 60, 0
12, 132845, Note_on_c, 12, 55, 110
12, 132935, Note_on_c, 12, 55, 0
12, 132935, Note_on_c, 12, 59, 110
12, 132955, Note_on_c, 12, 59, 0
12, 132965, Note_on_c, 12, 60, 110
12, 132995, Note_on_c, 12, 60, 0
12, 133025, Note_on_c, 12, 60, 110
12, 133055, Note_on_c, 12, 60, 0
12, 133085, Note_on_c, 12, 55, 110
12, 133115, Note_on_c, 12, 55, 0
12, 133145, Note_on_c, 12, 59, 110
12, 133175, Note_on_c, 12, 59, 0
12, 133205, Note_on_c, 12, 60, 110
12, 133235, Note_on_c, 12, 60, 0
12, 133265, Note_on_c, 12, 60, 110
12, 133295, Note_on_c, 12, 60, 0
12, 133325, Note_on_c, 12, 55, 110
12, 133355, Note_on_c, 12, 55, 0
12, 133385, Note_on_c, 12, 59, 110
12, 133415, Note_on_c, 12, 59, 0
12, 133445, Note_on_c, 12, 60, 110
12, 133505, Note_on_c, 12, 60, 0
12, 133565, Note_on_c, 12, 64, 110
12, 133625, Note_on_c, 12, 64, 0
12, 133685, Note_on_c, 12, 67, 110
12, 133745, Note_on_c, 12, 67, 0
12, 133804, Program_c, 12, 48
12, 133805, Note_on_c, 12, 59, 110
12, 133865, Note_on_c, 12, 59, 0
12, 133925, Note_on_c, 12, 60, 90
12, 134045, Note_on_c, 12, 60, 0
12, 134765, Note_on_c, 12, 57, 110
12, 134765, Control_c, 12, 11, 72
12, 134777, Control_c, 12, 11, 75
12, 134789, Control_c, 12, 11, 78
12, 134795, Note_on_c, 12, 57, 0
12, 134795, Note_on_c, 12, 55, 110
12, 134801, Control_c, 12, 11, 81
12, 134813, Control_c, 12, 11, 84
12, 134825, Note_on_c, 12, 55, 0
12, 134825, Control_c, 12, 11, 87
12, 134825, Note_on_c, 12, 53, 110
12, 134837, Control_c, 12, 11, 90
12, 134849, Control_c, 12, 11, 93
12, 134855, Note_on_c, 12, 53, 0
12, 134855, Note_on_c, 12, 52, 110
12, 134861, Control_c, 12, 11, 96
12, 134873, Control_c, 12, 11, 99
12, 134875, Note_on_c, 12, 52, 0
12, 134884, Program_c, 12, 50
12, 134885, Note_on_c, 12, 62, 110
12, 134885, Note_on_c, 12, 50, 110
12, 134885, Control_c, 12, 11, 102
12, 135193, Note_on_c, 12, 50, 0
12, 135193, Note_on_c, 12, 62, 0
12, 135245, Note_on_c, 12, 57, 110
12, 135335, Note_on_c, 12, 57, 0
12, 135335, Note_on_c, 12, 61, 110
12, 135355, Note_on_c, 12, 61, 0
12, 135365, Control_c, 12, 11, 122
12, 135365, Note_on_c, 12, 62, 110
12, 135382, Control_c, 12, 11, 119
12, 135400, Control_c, 12, 11, 116
12, 135418, Control_c, 12, 11, 113
12, 135436, Control_c, 12, 11, 110
12, 135454, Control_c, 12, 11, 107
12, 135472, Control_c, 12, 11, 104
12, 135673, Note_on_c, 12, 62, 0
12, 135725, Note_on_c, 12, 57, 110
12, 135815, Note_on_c, 12, 57, 0
12, 135815, Note_on_c, 12, 61, 110
12, 135835, Note_on_c, 12, 61, 0
12, 135845, Note_on_c, 12, 62, 110
12, 135875, Note_on_c, 12, 62, 0
12, 135905, Note_on_c, 12, 62, 110
12, 135935, Note_on_c, 12, 62, 0
12, 135965, Note_on_c, 12, 57, 110
12, 135995, Note_on_c, 12, 57, 0
12, 136025, Note_on_c, 12, 61, 110
12, 136055, Note_on_c, 12, 61, 0
12, 136085, Note_on_c, 12, 62, 110
12, 136115, Note_on_c, 12, 62, 0
12, 136145, Note_on_c, 12, 62, 110
12, 136175, Note_on_c, 12, 62, 0
12, 136205, Note_on_c, 12, 57, 110
12, 136235, Note_on_c, 12, 57, 0
12, 136265, Note_on_c, 12, 61, 110
12, 136295, Note_on_c, 12, 61, 0
12, 136325, Note_on_c, 12, 62, 110
12, 136385, Note_on_c, 12, 62, 0
12, 136445, Note_on_c, 12, 65, 110
12, 136505, Note_on_c, 12, 65, 0
12, 136565, Note_on_c, 12, 69, 110
12, 136625, Note_on_c, 12, 69, 0
12, 136684, Program_c, 12, 48
12, 136685, Note_on_c, 12, 61, 110
12, 136745, Note_on_c, 12, 61, 0
12, 136805, Note_on_c, 12, 62, 64
12, 136925, Note_on_c, 12, 62, 0
12, 137645, Control_c, 12, 11, 47
12, 137645, Note_on_c, 12, 60, 110
12, 137675, Note_on_c, 12, 60, 0
12, 137675, Note_on_c, 12, 58, 110
12, 137705, Note_on_c, 12, 58, 0
12, 137705, Note_on_c, 12, 57, 110
12, 137735, Note_on_c, 12, 57, 0
12, 137735, Note_on_c, 12, 55, 110
12, 137755, Note_on_c, 12, 55, 0
12, 137765, Note_on_c, 12, 53, 110
12, 137885, Note_on_c, 12, 53, 0
12, 138605, Control_c, 12, 11, 47
12, 138648, Control_c, 12, 11, 48
12, 138692, Control_c, 12, 11, 49
12, 138735, Control_c, 12, 11, 50
12, 138779, Control_c, 12, 11, 51
12, 138823, Control_c, 12, 11, 52
12, 138866, Control_c, 12, 11, 53
12, 138910, Control_c, 12, 11, 54
12, 138954, Control_c, 12, 11, 55
12, 138997, Control_c, 12, 11, 56
12, 139041, Control_c, 12, 11, 57
12, 139085, Note_on_c, 12, 64, 110
12, 139085, Control_c, 12, 11, 58
12, 139115, Note_on_c, 12, 64, 0
12, 139115, Note_on_c, 12, 62, 110
12, 139128, Control_c, 12, 11, 59
12, 139145, Note_on_c, 12, 62, 0
12, 139145, Note_on_c, 12, 60, 110
12, 139172, Control_c, 12, 11, 60
12, 139175, Note_on_c, 12, 60, 0
12, 139175, Note_on_c, 12, 59, 110
12, 139195, Note_on_c, 12, 59, 0
12, 139205, Note_on_c, 12, 57, 110
12, 139215, Control_c, 12, 11, 61
12, 139259, Control_c, 12, 11, 62
12, 139303, Control_c, 12, 11, 63
12, 139325, Note_on_c, 12, 57, 0
12, 139346, Control_c, 12, 11, 64
12, 139390, Control_c, 12, 11, 65
12, 139434, Control_c, 12, 11, 66
12, 139477, Control_c, 12, 11, 67
12, 139521, Control_c, 12, 11, 68
12, 139565, Control_c, 12, 11, 69
12, 139608, Control_c, 12, 11, 70
12, 139652, Control_c, 12, 11, 71
12, 139695, Control_c, 12, 11, 72
12, 139739, Control_c, 12, 11, 73
12, 139783, Control_c, 12, 11, 74
12, 139826, Control_c, 12, 11, 75
12, 139870, Control_c, 12, 11, 76
12, 139914, Control_c, 12, 11, 77
12, 139957, Control_c, 12, 11, 78
12, 140001, Control_c, 12, 11, 79
12, 140045, Note_on_c, 12, 67, 110
12, 140045, Control_c, 12, 11, 80
12, 140075, Note_on_c, 12, 67, 0
12, 140075, Note_on_c, 12, 65, 110
12, 140088, Control_c, 12, 11, 81
12, 140105, Note_on_c, 12, 65, 0
12, 140105, Note_on_c, 12, 64, 110
12, 140132, Control_c, 12, 11, 82
12, 140135, Note_on_c, 12, 64, 0
12, 140135, Note_on_c, 12, 62, 110
12, 140155, Note_on_c, 12, 62, 0
12, 140165, Note_on_c, 12, 60, 110
12, 140175, Control_c, 12, 11, 83
12, 140219, Control_c, 12, 11, 84
12, 140263, Control_c, 12, 11, 85
12, 140285, Note_on_c, 12, 60, 0
12, 140306, Control_c, 12, 11, 86
12, 140350, Control_c, 12, 11, 87
12, 140394, Control_c, 12, 11, 88
12, 140437, Control_c, 12, 11, 89
12, 140481, Control_c, 12, 11, 90
12, 140525, Control_c, 12, 11, 91
12, 140568, Control_c, 12, 11, 92
12, 140612, Control_c, 12, 11, 93
12, 140655, Control_c, 12, 11, 94
12, 140699, Control_c, 12, 11, 95
12, 140743, Control_c, 12, 11, 96
12, 140786, Control_c, 12, 11, 97
12, 140830, Control_c, 12, 11, 98
12, 140874, Control_c, 12, 11, 99
12, 140917, Control_c, 12, 11, 100
12, 140961, Control_c, 12, 11, 101
12, 141005, Control_c, 12, 11, 102
12, 141005, Note_on_c, 12, 72, 110
12, 141035, Note_on_c, 12, 72, 0
12, 141035, Note_on_c, 12, 70, 110
12, 141065, Note_on_c, 12, 70, 0
12, 141065, Note_on_c, 12, 69, 110
12, 141095, Note_on_c, 12, 69, 0
12, 141095, Note_on_c, 12, 67, 110
12, 141115, Note_on_c, 12, 67, 0
12, 141125, Note_on_c, 12, 65, 110
12, 141185, Note_on_c, 12, 65, 0
12, 141245, Note_on_c, 12, 69, 110
12, 141275, Note_on_c, 12, 69, 0
12, 141275, Note_on_c, 12, 67, 110
12, 141305, Note_on_c, 12, 67, 0
12, 141305, Note_on_c, 12, 65, 110
12, 141335, Note_on_c, 12, 65, 0
12, 141335, Note_on_c, 12, 64, 110
12, 141355, Note_on_c, 12, 64, 0
12, 141365, Note_on_c, 12, 62, 110
12, 141425, Note_on_c, 12, 62, 0
12, 141485, Note_on_c, 12, 62, 110
12, 141515, Note_on_c, 12, 62, 0
12, 141515, Note_on_c, 12, 60, 110
12, 141545, Note_on_c, 12, 60, 0
12, 141545, Note_on_c, 12, 59, 110
12, 141575, Note_on_c, 12, 59, 0
12, 141575, Note_on_c, 12, 57, 110
12, 141595, Note_on_c, 12, 57, 0
12, 141605, Note_on_c, 12, 55, 110
12, 141655, Note_on_c, 12, 55, 0
12, 141665, Note_on_c, 12, 62, 110
12, 141665, Note_on_c, 12, 59, 110
12, 141715, Note_on_c, 12, 59, 0
12, 141715, Note_on_c, 12, 62, 0
12, 141725, Control_c, 12, 11, 122
12, 141725, Note_on_c, 12, 62, 110
12, 141725, Note_on_c, 12, 59, 110
12, 141743, Control_c, 12, 11, 119
12, 141761, Control_c, 12, 11, 116
12, 141775, Note_on_c, 12, 59, 0
12, 141775, Note_on_c, 12, 62, 0
12, 141779, Control_c, 12, 11, 113
12, 141785, Note_on_c, 12, 62, 110
12, 141785, Note_on_c, 12, 59, 110
12, 141797, Control_c, 12, 11, 110
12, 141815, Control_c, 12, 11, 107
12, 141833, Control_c, 12, 11, 104
12, 141835, Note_on_c, 12, 59, 0
12, 141835, Note_on_c, 12, 62, 0
12, 141845, Note_on_c, 12, 59, 110
12, 141845, Note_on_c, 12, 62, 110
12, 141895, Note_on_c, 12, 62, 0
12, 141895, Note_on_c, 12, 59, 0
12, 141905, Note_on_c, 12, 59, 110
12, 141905, Note_on_c, 12, 62, 110
12, 141955, Note_on_c, 12, 62, 0
12, 141955, Note_on_c, 12, 59, 0
12, 141965, Note_on_c, 12, 62, 110
12, 141965, Note_on_c, 12, 59, 110
12, 142015, Note_on_c, 12, 59, 0
12, 142015, Note_on_c, 12, 62, 0
12, 142025, Note_on_c, 12, 59, 110
12, 142025, Note_on_c, 12, 62, 110
12, 142075, Note_on_c, 12, 62, 0
12, 142075, Note_on_c, 12, 59, 0
12, 142085, Note_on_c, 12, 64, 110
12, 142085, Note_on_c, 12, 60, 110
12, 142135, Note_on_c, 12, 60, 0
12, 142135, Note_on_c, 12, 64, 0
12, 142145, Note_on_c, 12, 64, 110
12, 142145, Note_on_c, 12, 60, 110
12, 142195, Note_on_c, 12, 60, 0
12, 142195, Note_on_c, 12, 64, 0
12, 142205, Note_on_c, 12, 64, 110
12, 142205, Note_on_c, 12, 60, 110
12, 142255, Note_on_c, 12, 60, 0
12, 142255, Note_on_c, 12, 64, 0
12, 142265, Note_on_c, 12, 64, 110
12, 142265, Note_on_c, 12, 60, 110
12, 142315, Note_on_c, 12, 60, 0
12, 142315, Note_on_c, 12, 64, 0
12, 142325, Note_on_c, 12, 60, 110
12, 142325, Note_on_c, 12, 69, 110
12, 142375, Note_on_c, 12, 69, 0
12, 142375, Note_on_c, 12, 60, 0
12, 142385, Note_on_c, 12, 69, 110
12, 142385, Note_on_c, 12, 60, 110
12, 142435, Note_on_c, 12, 60, 0
12, 142435, Note_on_c, 12, 69, 0
12, 142445, Note_on_c, 12, 60, 110
12, 142445, Note_on_c, 12, 69, 110
12, 142495, Note_on_c, 12, 69, 0
12, 142495, Note_on_c, 12, 60, 0
12, 142505, Note_on_c, 12, 69, 110
12, 142505, Note_on_c, 12, 60, 110
12, 142555, Note_on_c, 12, 60, 0
12, 142555, Note_on_c, 12, 69, 0
12, 142565, Note_on_c, 12, 67, 110
12, 142565, Note_on_c, 12, 59, 110
12, 142615, Note_on_c, 12, 59, 0
12, 142615, Note_on_c, 12, 67, 0
12, 142625, Note_on_c, 12, 62, 110
12, 142625, Note_on_c, 12, 59, 110
12, 142675, Note_on_c, 12, 59, 0
12, 142675, Note_on_c, 12, 62, 0
12, 142685, Note_on_c, 12, 62, 110
12, 142685, Note_on_c, 12, 59, 110
12, 142685, Control_c, 12, 11, 122
12, 142703, Control_c, 12, 11, 119
12, 142721, Control_c, 12, 11, 116
12, 142735, Note_on_c, 12, 59, 0
12, 142735, Note_on_c, 12, 62, 0
12, 142739, Control_c, 12, 11, 113
12, 142745, Note_on_c, 12, 59, 110
12, 142745, Note_on_c, 12, 62, 110
12, 142757, Control_c, 12, 11, 110
12, 142775, Control_c, 12, 11, 107
12, 142793, Control_c, 12, 11, 104
12, 142795, Note_on_c, 12, 62, 0
12, 142795, Note_on_c, 12, 59, 0
12, 142805, Note_on_c, 12, 62, 110
12, 142805, Note_on_c, 12, 59, 110
12, 142855, Note_on_c, 12, 59, 0
12, 142855, Note_on_c, 12, 62, 0
12, 142865, Note_on_c, 12, 62, 110
12, 142865, Note_on_c, 12, 59, 110
12, 142915, Note_on_c, 12, 59, 0
12, 142915, Note_on_c, 12, 62, 0
12, 142925, Note_on_c, 12, 59, 110
12, 142925, Note_on_c, 12, 62, 110
12, 142975, Note_on_c, 12, 62, 0
12, 142975, Note_on_c, 12, 59, 0
12, 142985, Note_on_c, 12, 59, 110
12, 142985, Note_on_c, 12, 62, 110
12, 143035, Note_on_c, 12, 62, 0
12, 143035, Note_on_c, 12, 59, 0
12, 143045, Note_on_c, 12, 64, 110
12, 143045, Note_on_c, 12, 60, 110
12, 143095, Note_on_c, 12, 60, 0
12, 143095, Note_on_c, 12, 64, 0
12, 143105, Note_on_c, 12, 64, 110
12, 143105, Note_on_c, 12, 60, 110
12, 143155, Note_on_c, 12, 60, 0
12, 143155, Note_on_c, 12, 64, 0
12, 143165, Note_on_c, 12, 64, 110
12, 143165, Note_on_c, 12, 60, 110
12, 143215, Note_on_c, 12, 60, 0
12, 143215, Note_on_c, 12, 64, 0
12, 143225, Note_on_c, 12, 60, 110
12, 143225, Note_on_c, 12, 64, 110
12, 143275, Note_on_c, 12, 64, 0
12, 143275, Note_on_c, 12, 60, 0
12, 143285, Note_on_c, 12, 69, 110
12, 143285, Note_on_c, 12, 60, 110
12, 143335, Note_on_c, 12, 60, 0
12, 143335, Note_on_c, 12, 69, 0
12, 143345, Note_on_c, 12, 60, 110
12, 143345, Note_on_c, 12, 69, 110
12, 143395, Note_on_c, 12, 69, 0
12, 143395, Note_on_c, 12, 60, 0
12, 143405, Note_on_c, 12, 60, 110
12, 143405, Note_on_c, 12, 69, 110
12, 143455, Note_on_c, 12, 69, 0
12, 143455, Note_on_c, 12, 60, 0
12, 143465, Note_on_c, 12, 69, 110
12, 143465, Note_on_c, 12, 60, 110
12, 143515, Note_on_c, 12, 60, 0
12, 143515, Note_on_c, 12, 69, 0
12, 143525, Note_on_c, 12, 59, 110
12, 143525, Note_on_c, 12, 67, 110
12, 143555, Note_on_c, 12, 67, 0
12, 143555, Note_on_c, 12, 59, 0
12, 143585, Note_on_c, 12, 57, 110
12, 143615, Note_on_c, 12, 57, 0
12, 143645, Note_on_c, 12, 59, 110
12, 143675, Note_on_c, 12, 59, 0
12, 143705, Note_on_c, 12, 60, 110
12, 143735, Note_on_c, 12, 60, 0
12, 143765, Control_c, 12, 11, 122
12, 143765, Note_on_c, 12, 62, 110
12, 143783, Control_c, 12, 11, 119
12, 143795, Note_on_c, 12, 62, 0
12, 143801, Control_c, 12, 11, 116
12, 143819, Control_c, 12, 11, 113
12, 143825, Note_on_c, 12, 60, 110
12, 143837, Control_c, 12, 11, 110
12, 143855, Note_on_c, 12, 60, 0
12, 143855, Control_c, 12, 11, 107
12, 143873, Control_c, 12, 11, 104
12, 143885, Note_on_c, 12, 59, 110
12, 143915, Note_on_c, 12, 59, 0
12, 143945, Note_on_c, 12, 57, 110
12, 143975, Note_on_c, 12, 57, 0
12, 144005, Note_on_c, 12, 55, 110
12, 144035, Note_on_c, 12, 55, 0
12, 144065, Note_on_c, 12, 57, 110
12, 144095, Note_on_c, 12, 57, 0
12, 144125, Note_on_c, 12, 59, 110
12, 144155, Note_on_c, 12, 59, 0
12, 144185, Note_on_c, 12, 60, 110
12, 144215, Note_on_c, 12, 60, 0
12, 144245, Note_on_c, 12, 62, 110
12, 144245, Control_c, 12, 11, 122
12, 144263, Control_c, 12, 11, 119
12, 144275, Note_on_c, 12, 62, 0
12, 144281, Control_c, 12, 11, 116
12, 144299, Control_c, 12, 11, 113
12, 144305, Note_on_c, 12, 60, 110
12, 144317, Control_c, 12, 11, 110
12, 144335, Note_on_c, 12, 60, 0
12, 144335, Control_c, 12, 11, 107
12, 144353, Control_c, 12, 11, 104
12, 144365, Note_on_c, 12, 59, 110
12, 144395, Note_on_c, 12, 59, 0
12, 144425, Note_on_c, 12, 57, 110
12, 144455, Note_on_c, 12, 57, 0
12, 144485, Note_on_c, 12, 55, 110
12, 144545, Note_on_c, 12, 55, 0
12, 144545, Note_on_c, 12, 54, 110
12, 144605, Note_on_c, 12, 54, 0
12, 144605, Note_on_c, 12, 55, 110
12, 144665, Note_on_c, 12, 55, 0
12, 144665, Note_on_c, 12, 54, 110
12, 144725, Note_on_c, 12, 54, 0
12, 144725, Note_on_c, 12, 55, 110
12, 144785, Note_on_c, 12, 55, 0
12, 144785, Note_on_c, 12, 54, 110
12, 144845, Note_on_c, 12, 54, 0
12, 144845, Note_on_c, 12, 55, 110
12, 144905, Note_on_c, 12, 55, 0
12, 144905, Note_on_c, 12, 54, 110
12, 144955, Note_on_c, 12, 54, 0
12, 144965, Note_on_c, 12, 55, 110
12, 145025, Note_on_c, 12, 55, 0
12, 145025, Note_on_c, 12, 54, 110
12, 145085, Note_on_c, 12, 54, 0
12, 145085, Note_on_c, 12, 55, 110
12, 145145, Note_on_c, 12, 55, 0
12, 145145, Note_on_c, 12, 54, 110
12, 145205, Note_on_c, 12, 54, 0
12, 145205, Note_on_c, 12, 55, 110
12, 145205, Control_c, 12, 11, 102
12, 145218, Control_c, 12, 11, 99
12, 145231, Control_c, 12, 11, 96
12, 145244, Control_c, 12, 11, 93
12, 145257, Control_c, 12, 11, 90
12, 145265, Note_on_c, 12, 55, 0
12, 145265, Note_on_c, 12, 53, 110
12, 145270, Control_c, 12, 11, 87
12, 145283, Control_c, 12, 11, 84
12, 145296, Control_c, 12, 11, 81
12, 145309, Control_c, 12, 11, 78
12, 145322, Control_c, 12, 11, 75
12, 145325, Note_on_c, 12, 53, 0
12, 145325, Note_on_c, 12, 52, 110
12, 145335, Control_c, 12, 11, 72
12, 145349, Control_c, 12, 11, 69
12, 145362, Control_c, 12, 11, 66
12, 145375, Control_c, 12, 11, 63
12, 145385, Note_on_c, 12, 52, 0
12, 145385, Note_on_c, 12, 50, 110
12, 145388, Control_c, 12, 11, 60
12, 145401, Control_c, 12, 11, 57
12, 145414, Control_c, 12, 11, 54
12, 145427, Control_c, 12, 11, 51
12, 145435, Note_on_c, 12, 50, 0
12, 145440, Control_c, 12, 11, 48
12, 145445, Note_on_c, 12, 52, 110
12, 145505, Note_on_c, 12, 52, 0
12, 145565, Note_on_c, 12, 55, 95
12, 145625, Note_on_c, 12, 55, 0
12, 145685, Note_on_c, 12, 60, 95
12, 145745, Note_on_c, 12, 60, 0
12, 145805, Note_on_c, 12, 64, 95
12, 145865, Note_on_c, 12, 64, 0
12, 145925, Note_on_c, 12, 57, 95
12, 146045, Note_on_c, 12, 57, 0
12, 146405, Note_on_c, 12, 59, 95
12, 146465, Note_on_c, 12, 59, 0
12, 146525, Note_on_c, 12, 62, 95
12, 146585, Note_on_c, 12, 62, 0
12, 146645, Note_on_c, 12, 65, 95
12, 146705, Note_on_c, 12, 65, 0
12, 146765, Note_on_c, 12, 71, 95
12, 146825, Note_on_c, 12, 71, 0
12, 146885, Note_on_c, 12, 72, 95
12, 147005, Note_on_c, 12, 72, 0
12, 147605, Control_c, 12, 11, 67
12, 147605, Note_on_c, 12, 62, 110
12, 147622, Control_c, 12, 11, 70
12, 147640, Control_c, 12, 11, 73
12, 147658, Control_c, 12, 11, 76
12, 147676, Control_c, 12, 11, 75
12, 147694, Control_c, 12, 11, 72
12, 147712, Control_c, 12, 11, 69
12, 147725, Note_on_c, 12, 62, 0
12, 147725, Note_on_c, 12, 60, 110
12, 147730, Control_c, 12, 11, 66
12, 147748, Control_c, 12, 11, 63
12, 147766, Control_c, 12, 11, 60
12, 147784, Control_c, 12, 11, 57
12, 147802, Control_c, 12, 11, 54
12, 147820, Control_c, 12, 11, 51
12, 147838, Control_c, 12, 11, 48
12, 147845, Note_on_c, 12, 60, 0
12, 148085, Note_on_c, 12, 62, 110
12, 148085, Control_c, 12, 11, 67
12, 148102, Control_c, 12, 11, 70
12, 148120, Control_c, 12, 11, 73
12, 148138, Control_c, 12, 11, 76
12, 148156, Control_c, 12, 11, 75
12, 148174, Control_c, 12, 11, 72
12, 148192, Control_c, 12, 11, 69
12, 148205, Note_on_c, 12, 62, 0
12, 148205, Note_on_c, 12, 60, 110
12, 148210, Control_c, 12, 11, 66
12, 148228, Control_c, 12, 11, 63
12, 148246, Control_c, 12, 11, 60
12, 148264, Control_c, 12, 11, 57
12, 148282, Control_c, 12, 11, 54
12, 148300, Control_c, 12, 11, 51
12, 148315, Note_on_c, 12, 60, 0
12, 148318, Control_c, 12, 11, 48
12, 148325, Note_on_c, 12, 67, 110
12, 148385, Note_on_c, 12, 67, 0
12, 148445, Note_on_c, 12, 62, 110
12, 148505, Note_on_c, 12, 62, 0
12, 148685, Note_on_c, 12, 62, 110
12, 148745, Note_on_c, 12, 62, 0
12, 148805, Note_on_c, 12, 55, 110
12, 148925, Note_on_c, 12, 55, 0
12, 148925, Control_c, 12, 11, 67
12, 148925, Note_on_c, 12, 65, 110
12, 148943, Control_c, 12, 11, 70
12, 148961, Control_c, 12, 11, 73
12, 148979, Control_c, 12, 11, 76
12, 148997, Control_c, 12, 11, 75
12, 149015, Control_c, 12, 11, 72
12, 149033, Control_c, 12, 11, 69
12, 149051, Control_c, 12, 11, 66
12, 149069, Control_c, 12, 11, 63
12, 149087, Control_c, 12, 11, 60
12, 149105, Control_c, 12, 11, 57
12, 149123, Control_c, 12, 11, 54
12, 149141, Control_c, 12, 11, 51
12, 149159, Control_c, 12, 11, 48
12, 149165, Note_on_c, 12, 65, 0
12, 149165, Note_on_c, 12, 62, 110
12, 149275, Note_on_c, 12, 62, 0
12, 149285, Note_on_c, 12, 60, 110
12, 149405, Note_on_c, 12, 60, 0
12, 149765, Note_on_c, 12, 62, 110
12, 149885, Note_on_c, 12, 62, 0
12, 150245, Note_on_c, 12, 55, 110
12, 150365, Note_on_c, 12, 55, 0
12, 150725, Note_on_c, 12, 60, 110
12, 150845, Note_on_c, 12, 60, 0
12, 151085, Note_on_c, 12, 60, 110
12, 151195, Note_on_c, 12, 60, 0
12, 151205, Note_on_c, 12, 65, 110
12, 151325, Note_on_c, 12, 65, 0
12, 151565, Note_on_c, 12, 64, 110
12, 151565, Control_c, 12, 11, 67
12, 151574, Control_c, 12, 11, 70
12, 151583, Control_c, 12, 11, 73
12, 151592, Control_c, 12, 11, 76
12, 151607, Control_c, 12, 11, 73
12, 151616, Control_c, 12, 11, 70
12, 151625, Control_c, 12, 11, 67
12, 151634, Control_c, 12, 11, 64
12, 151643, Control_c, 12, 11, 61
12, 151652, Control_c, 12, 11, 58
12, 151661, Control_c, 12, 11, 55
12, 151670, Control_c, 12, 11, 52
12, 151679, Control_c, 12, 11, 49
12, 151685, Note_on_c, 12, 64, 0
12, 151685, Note_on_c, 12, 65, 110
12, 151745, Note_on_c, 12, 65, 0
12, 152045, Control_c, 12, 11, 67
12, 152045, Note_on_c, 12, 70, 110
12, 152054, Control_c, 12, 11, 70
12, 152063, Control_c, 12, 11, 73
12, 152072, Control_c, 12, 11, 76
12, 152087, Control_c, 12, 11, 73
12, 152096, Control_c, 12, 11, 70
12, 152105, Control_c, 12, 11, 67
12, 152114, Control_c, 12, 11, 64
12, 152123, Control_c, 12, 11, 61
12, 152132, Control_c, 12, 11, 58
12, 152141, Control_c, 12, 11, 55
12, 152150, Control_c, 12, 11, 52
12, 152159, Control_c, 12, 11, 49
12, 152225, Note_on_c, 12, 70, 0
12, 152285, Note_on_c, 12, 69, 110
12, 152405, Note_on_c, 12, 69, 0
12, 152405, Note_on_c, 12, 67, 110
12, 152525, Note_on_c, 12, 67, 0
12, 152525, Note_on_c, 12, 65, 110
12, 152635, Note_on_c, 12, 65, 0
12, 152645, Note_on_c, 12, 55, 110
12, 152765, Note_on_c, 12, 55, 0
12, 152765, Note_on_c, 12, 67, 110
12, 152995, Note_on_c, 12, 67, 0
12, 153005, Note_on_c, 12, 67, 110
12, 153095, Control_c, 12, 11, 47
12, 153097, Control_c, 12, 11, 50
12, 153099, Control_c, 12, 11, 53
12, 153102, Control_c, 12, 11, 57
12, 153105, Control_c, 12, 11, 61
12, 153108, Control_c, 12, 11, 65
12, 153111, Control_c, 12, 11, 69
12, 153114, Control_c, 12, 11, 73
12, 153115, Note_on_c, 12, 67, 0
12, 153117, Control_c, 12, 11, 77
12, 153120, Control_c, 12, 11, 81
12, 153123, Control_c, 12, 11, 85
12, 153125, Note_on_c, 12, 72, 110
12, 153145, Note_on_c, 12, 72, 0
12, 153155, Note_on_c, 12, 60, 110
12, 153175, Note_on_c, 12, 60, 0
12, 153185, Note_on_c, 12, 60, 110
12, 153205, Note_on_c, 12, 60, 0
12, 153215, Note_on_c, 12, 60, 110
12, 153235, Note_on_c, 12, 60, 0
12, 153245, Note_on_c, 12, 60, 110
12, 153305, Note_on_c, 12, 60, 0
12, 153365, Note_on_c, 12, 59, 110
12, 153385, Note_on_c, 12, 59, 0
12, 153395, Note_on_c, 12, 59, 110
12, 153415, Note_on_c, 12, 59, 0
12, 153425, Note_on_c, 12, 59, 110
12, 153445, Note_on_c, 12, 59, 0
12, 153455, Note_on_c, 12, 59, 110
12, 153475, Note_on_c, 12, 59, 0
12, 153485, Note_on_c, 12, 59, 110
12, 153545, Note_on_c, 12, 59, 0
12, 153605, Note_on_c, 12, 60, 110
12, 153625, Note_on_c, 12, 60, 0
12, 153635, Note_on_c, 12, 60, 110
12, 153655, Note_on_c, 12, 60, 0
12, 153665, Note_on_c, 12, 60, 110
12, 153685, Note_on_c, 12, 60, 0
12, 153695, Note_on_c, 12, 60, 110
12, 153715, Note_on_c, 12, 60, 0
12, 153725, Note_on_c, 12, 60, 110
12, 153785, Note_on_c, 12, 60, 0
12, 153845, Note_on_c, 12, 55, 110
12, 153895, Note_on_c, 12, 55, 0
12, 153905, Note_on_c, 12, 55, 110
12, 153955, Note_on_c, 12, 55, 0
12, 153965, Note_on_c, 12, 55, 110
12, 154015, Note_on_c, 12, 55, 0
12, 154025, Note_on_c, 12, 55, 110
12, 154075, Note_on_c, 12, 55, 0
12, 154085, Note_on_c, 12, 60, 110
12, 154105, Note_on_c, 12, 60, 0
12, 154115, Note_on_c, 12, 60, 110
12, 154135, Note_on_c, 12, 60, 0
12, 154145, Note_on_c, 12, 60, 110
12, 154165, Note_on_c, 12, 60, 0
12, 154175, Note_on_c, 12, 60, 110
12, 154195, Note_on_c, 12, 60, 0
12, 154205, Note_on_c, 12, 60, 110
12, 154265, Note_on_c, 12, 60, 0
12, 154325, Note_on_c, 12, 59, 110
12, 154345, Note_on_c, 12, 59, 0
12, 154355, Note_on_c, 12, 59, 110
12, 154375, Note_on_c, 12, 59, 0
12, 154385, Note_on_c, 12, 59, 110
12, 154405, Note_on_c, 12, 59, 0
12, 154415, Note_on_c, 12, 59, 110
12, 154435, Note_on_c, 12, 59, 0
12, 154445, Note_on_c, 12, 59, 110
12, 154505, Note_on_c, 12, 59, 0
12, 154565, Note_on_c, 12, 60, 110
12, 154585, Note_on_c, 12, 60, 0
12, 154595, Note_on_c, 12, 60, 110
12, 154615, Note_on_c, 12, 60, 0
12, 154625, Note_on_c, 12, 60, 110
12, 154645, Note_on_c, 12, 60, 0
12, 154655, Note_on_c, 12, 60, 110
12, 154675, Note_on_c, 12, 60, 0
12, 154685, Note_on_c, 12, 60, 110
12, 154745, Note_on_c, 12, 60, 0
12, 154805, Note_on_c, 12, 55, 110
12, 154845, Note_on_c, 12, 55, 0
12, 154865, Note_on_c, 12, 55, 110
12, 154905, Note_on_c, 12, 55, 0
12, 154925, Note_on_c, 12, 55, 110
12, 154965, Note_on_c, 12, 55, 0
12, 154985, Note_on_c, 12, 55, 110
12, 155025, Note_on_c, 12, 55, 0
12, 155045, Note_on_c, 12, 55, 110
12, 155045, Control_c, 12, 11, 107
12, 155063, Control_c, 12, 11, 104
12, 155081, Control_c, 12, 11, 101
12, 155099, Control_c, 12, 11, 98
12, 155117, Control_c, 12, 11, 95
12, 155135, Control_c, 12, 11, 92
12, 155153, Control_c, 12, 11, 89
12, 155215, Note_on_c, 12, 55, 0
12, 155225, Note_on_c, 12, 59, 110
12, 155275, Note_on_c, 12, 59, 0
12, 155285, Note_on_c, 12, 60, 110
12, 155335, Note_on_c, 12, 60, 0
12, 155345, Note_on_c, 12, 53, 110
12, 155395, Note_on_c, 12, 53, 0
12, 155405, Note_on_c, 12, 55, 110
12, 155455, Note_on_c, 12, 55, 0
12, 155465, Note_on_c, 12, 55, 110
12, 155515, Note_on_c, 12, 55, 0
12, 155525, Control_c, 12, 11, 107
12, 155525, Note_on_c, 12, 65, 110
12, 155543, Control_c, 12, 11, 104
12, 155561, Control_c, 12, 11, 101
12, 155579, Control_c, 12, 11, 98
12, 155597, Control_c, 12, 11, 95
12, 155615, Control_c, 12, 11, 92
12, 155633, Control_c, 12, 11, 89
12, 155695, Note_on_c, 12, 65, 0
12, 155705, Note_on_c, 12, 64, 110
12, 155755, Note_on_c, 12, 64, 0
12, 155765, Note_on_c, 12, 62, 110
12, 155815, Note_on_c, 12, 62, 0
12, 155825, Note_on_c, 12, 64, 110
12, 155875, Note_on_c, 12, 64, 0
12, 155885, Note_on_c, 12, 65, 110
12, 155935, Note_on_c, 12, 65, 0
12, 155945, Note_on_c, 12, 66, 110
12, 155995, Note_on_c, 12, 66, 0
12, 156005, Control_c, 12, 11, 77
12, 156005, Note_on_c, 12, 67, 110
12, 156024, Control_c, 12, 11, 78
12, 156035, Note_on_c, 12, 67, 0
12, 156043, Control_c, 12, 11, 79
12, 156062, Control_c, 12, 11, 80
12, 156065, Note_on_c, 12, 76, 110
12, 156081, Control_c, 12, 11, 81
12, 156095, Note_on_c, 12, 76, 0
12, 156101, Control_c, 12, 11, 82
12, 156120, Control_c, 12, 11, 83
12, 156125, Note_on_c, 12, 74, 110
12, 156139, Control_c, 12, 11, 84
12, 156155, Note_on_c, 12, 74, 0
12, 156158, Control_c, 12, 11, 85
12, 156177, Control_c, 12, 11, 86
12, 156185, Note_on_c, 12, 72, 110
12, 156197, Control_c, 12, 11, 87
12, 156215, Note_on_c, 12, 72, 0
12, 156216, Control_c, 12, 11, 88
12, 156235, Control_c, 12, 11, 89
12, 156245, Note_on_c, 12, 71, 110
12, 156254, Control_c, 12, 11, 90
12, 156273, Control_c, 12, 11, 91
12, 156275, Note_on_c, 12, 71, 0
12, 156293, Control_c, 12, 11, 92
12, 156305, Note_on_c, 12, 69, 110
12, 156312, Control_c, 12, 11, 93
12, 156331, Control_c, 12, 11, 94
12, 156335, Note_on_c, 12, 69, 0
12, 156350, Control_c, 12, 11, 95
12, 156365, Note_on_c, 12, 67, 110
12, 156369, Control_c, 12, 11, 96
12, 156389, Control_c, 12, 11, 97
12, 156395, Note_on_c, 12, 67, 0
12, 156408, Control_c, 12, 11, 98
12, 156425, Note_on_c, 12, 65, 110
12, 156427, Control_c, 12, 11, 99
12, 156446, Control_c, 12, 11, 100
12, 156455, Note_on_c, 12, 65, 0
12, 156465, Control_c, 12, 11, 101
12, 156485, Note_on_c, 12, 64, 110
12, 156485, Control_c, 12, 11, 102
12, 156545, Note_on_c, 12, 64, 0
12, 156605, Note_on_c, 12, 65, 110
12, 156665, Note_on_c, 12, 65, 0
12, 156725, Note_on_c, 12, 67, 110
12, 156785, Note_on_c, 12, 67, 0
12, 156845, Note_on_c, 12, 55, 110
12, 156905, Note_on_c, 12, 55, 0
12, 156965, Note_on_c, 12, 60, 64
12, 157025, Control_c, 12, 11, 87
12, 157032, Control_c, 12, 11, 84
12, 157039, Control_c, 12, 11, 81
12, 157046, Note_on_c, 12, 60, 0
12, 157046, Control_c, 12, 11, 78
12, 157053, Control_c, 12, 11, 75
12, 157061, Control_c, 12, 11, 72
12, 157068, Control_c, 12, 11, 69
12, 157075, Control_c, 12, 11, 66
12, 157082, Control_c, 12, 11, 63
12, 157085, Note_on_c, 12, 60, 86
12, 157089, Control_c, 12, 11, 60
12, 157097, Control_c, 12, 11, 57
12, 157104, Control_c, 12, 11, 54
12, 157111, Control_c, 12, 11, 51
12, 157118, Control_c, 12, 11, 48
12, 157125, Control_c, 12, 11, 45
12, 157133, Control_c, 12, 11, 42
12, 157140, Control_c, 12, 11, 39
12, 157166, Note_on_c, 12, 60, 0
12, 157205, Note_on_c, 12, 60, 86
12, 157286, Note_on_c, 12, 60, 0
12, 157325, Note_on_c, 12, 60, 86
12, 157406, Note_on_c, 12, 60, 0
12, 157445, Note_on_c, 12, 60, 86
12, 157526, Note_on_c, 12, 60, 0
12, 157565, Note_on_c, 12, 60, 86
12, 157646, Note_on_c, 12, 60, 0
12, 157685, Note_on_c, 12, 60, 86
12, 157766, Note_on_c, 12, 60, 0
12, 157805, Note_on_c, 12, 60, 86
12, 157886, Note_on_c, 12, 60, 0
12, 157925, Note_on_c, 12, 62, 86
12, 158006, Note_on_c, 12, 62, 0
12, 158045, Note_on_c, 12, 58, 86
12, 158126, Note_on_c, 12, 58, 0
12, 158165, Note_on_c, 12, 58, 86
12, 158246, Note_on_c, 12, 58, 0
12, 158285, Note_on_c, 12, 58, 86
12, 158366, Note_on_c, 12, 58, 0
12, 158405, Note_on_c, 12, 58, 86
12, 158486, Note_on_c, 12, 58, 0
12, 158525, Note_on_c, 12, 58, 86
12, 158606, Note_on_c, 12, 58, 0
12, 158645, Note_on_c, 12, 58, 86
12, 158726, Note_on_c, 12, 58, 0
12, 158765, Note_on_c, 12, 58, 86
12, 158846, Note_on_c, 12, 58, 0
12, 158885, Note_on_c, 12, 60, 86
12, 158966, Note_on_c, 12, 60, 0
12, 159005, Note_on_c, 12, 60, 86
12, 159086, Note_on_c, 12, 60, 0
12, 159125, Note_on_c, 12, 58, 86
12, 159206, Note_on_c, 12, 58, 0
12, 159245, Note_on_c, 12, 58, 86
12, 159326, Note_on_c, 12, 58, 0
12, 159365, Note_on_c, 12, 62, 86
12, 159446, Note_on_c, 12, 62, 0
12, 159485, Note_on_c, 12, 67, 86
12, 159566, Note_on_c, 12, 67, 0
12, 159605, Note_on_c, 12, 67, 86
12, 159686, Note_on_c, 12, 67, 0
12, 159725, Note_on_c, 12, 67, 87
12, 159806, Note_on_c, 12, 67, 0
12, 159845, Note_on_c, 12, 67, 88
12, 159926, Note_on_c, 12, 67, 0
12, 159965, Note_on_c, 12, 67, 89
12, 160046, Note_on_c, 12, 67, 0
12, 160085, Note_on_c, 12, 67, 89
12, 160166, Note_on_c, 12, 67, 0
12, 160205, Note_on_c, 12, 67, 90
12, 160286, Note_on_c, 12, 67, 0
12, 160325, Note_on_c, 12, 68, 91
12, 160406, Note_on_c, 12, 68, 0
12, 160445, Note_on_c, 12, 62, 92
12, 160526, Note_on_c, 12, 62, 0
12, 160565, Note_on_c, 12, 63, 93
12, 160646, Note_on_c, 12, 63, 0
12, 160685, Note_on_c, 12, 63, 94
12, 160766, Note_on_c, 12, 63, 0
12, 160805, Note_on_c, 12, 62, 95
12, 160886, Note_on_c, 12, 62, 0
12, 160925, Control_c, 12, 11, 37
12, 160925, Note_on_c, 12, 62, 95
12, 160951, Control_c, 12, 11, 38
12, 160977, Control_c, 12, 11, 39
12, 161004, Control_c, 12, 11, 40
12, 161006, Note_on_c, 12, 62, 0
12, 161030, Control_c, 12, 11, 41
12, 161045, Note_on_c, 12, 62, 95
12, 161057, Control_c, 12, 11, 42
12, 161083, Control_c, 12, 11, 43
12, 161109, Control_c, 12, 11, 44
12, 161126, Note_on_c, 12, 62, 0
12, 161136, Control_c, 12, 11, 45
12, 161162, Control_c, 12, 11, 46
12, 161165, Note_on_c, 12, 62, 95
12, 161189, Control_c, 12, 11, 47
12, 161215, Control_c, 12, 11, 48
12, 161241, Control_c, 12, 11, 49
12, 161246, Note_on_c, 12, 62, 0
12, 161268, Control_c, 12, 11, 50
12, 161285, Note_on_c, 12, 60, 95
12, 161294, Control_c, 12, 11, 51
12, 161321, Control_c, 12, 11, 52
12, 161347, Control_c, 12, 11, 53
12, 161366, Note_on_c, 12, 60, 0
12, 161373, Control_c, 12, 11, 54
12, 161400, Control_c, 12, 11, 55
12, 161405, Note_on_c, 12, 60, 95
12, 161426, Control_c, 12, 11, 56
12, 161453, Control_c, 12, 11, 57
12, 161479, Control_c, 12, 11, 58
12, 161486, Note_on_c, 12, 60, 0
12, 161505, Control_c, 12, 11, 59
12, 161525, Note_on_c, 12, 60, 95
12, 161532, Control_c, 12, 11, 60
12, 161558, Control_c, 12, 11, 61
12, 161585, Control_c, 12, 11, 62
12, 161606, Note_on_c, 12, 60, 0
12, 161611, Control_c, 12, 11, 63
12, 161637, Control_c, 12, 11, 64
12, 161645, Note_on_c, 12, 60, 95
12, 161664, Control_c, 12, 11, 65
12, 161690, Control_c, 12, 11, 66
12, 161717, Control_c, 12, 11, 67
12, 161726, Note_on_c, 12, 60, 0
12, 161743, Control_c, 12, 11, 68
12, 161765, Note_on_c, 12, 60, 95
12, 161769, Control_c, 12, 11, 69
12, 161796, Control_c, 12, 11, 70
12, 161822, Control_c, 12, 11, 71
12, 161846, Note_on_c, 12, 60, 0
12, 161849, Control_c, 12, 11, 72
12, 161875, Control_c, 12, 11, 73
12, 161885, Note_on_c, 12, 60, 98
12, 161901, Control_c, 12, 11, 74
12, 161928, Control_c, 12, 11, 75
12, 161954, Control_c, 12, 11, 76
12, 161966, Note_on_c, 12, 60, 0
12, 161981, Control_c, 12, 11, 77
12, 162005, Note_on_c, 12, 59, 102
12, 162007, Control_c, 12, 11, 78
12, 162033, Control_c, 12, 11, 79
12, 162060, Control_c, 12, 11, 80
12, 162086, Note_on_c, 12, 59, 0
12, 162086, Control_c, 12, 11, 81
12, 162113, Control_c, 12, 11, 82
12, 162125, Note_on_c, 12, 59, 106
12, 162139, Control_c, 12, 11, 83
12, 162165, Control_c, 12, 11, 84
12, 162192, Control_c, 12, 11, 85
12, 162206, Note_on_c, 12, 59, 0
12, 162218, Control_c, 12, 11, 86
12, 162245, Note_on_c, 12, 60, 110
12, 162245, Control_c, 12, 11, 87
12, 162305, Note_on_c, 12, 60, 0
12, 162365, Note_on_c, 12, 55, 110
12, 162455, Note_on_c, 12, 55, 0
12, 162455, Note_on_c, 12, 59, 110
12, 162475, Note_on_c, 12, 59, 0
12, 162485, Note_on_c, 12, 60, 110
12, 162485, Control_c, 12, 11, 107
12, 162503, Control_c, 12, 11, 104
12, 162521, Control_c, 12, 11, 101
12, 162539, Control_c, 12, 11, 98
12, 162557, Control_c, 12, 11, 95
12, 162575, Control_c, 12, 11, 92
12, 162593, Control_c, 12, 11, 89
12, 162835, Note_on_c, 12, 60, 0
12, 162845, Note_on_c, 12, 55, 110
12, 162935, Note_on_c, 12, 55, 0
12, 162935, Note_on_c, 12, 59, 110
12, 162955, Note_on_c, 12, 59, 0
12, 162965, Note_on_c, 12, 60, 110
12, 162965, Control_c, 12, 11, 107
12, 162983, Control_c, 12, 11, 104
12, 163001, Control_c, 12, 11, 101
12, 163019, Control_c, 12, 11, 98
12, 163037, Control_c, 12, 11, 95
12, 163055, Control_c, 12, 11, 92
12, 163073, Control_c, 12, 11, 89
12, 163325, Note_on_c, 12, 60, 0
12, 163445, Note_on_c, 12, 71, 110
12, 163445, Control_c, 12, 11, 107
12, 163463, Control_c, 12, 11, 104
12, 163481, Control_c, 12, 11, 101
12, 163499, Control_c, 12, 11, 98
12, 163517, Control_c, 12, 11, 95
12, 163535, Control_c, 12, 11, 92
12, 163553, Control_c, 12, 11, 89
12, 163565, Note_on_c, 12, 71, 0
12, 163685, Note_on_c, 12, 72, 110
12, 163685, Control_c, 12, 11, 107
12, 163703, Control_c, 12, 11, 104
12, 163721, Control_c, 12, 11, 101
12, 163739, Control_c, 12, 11, 98
12, 163757, Control_c, 12, 11, 95
12, 163775, Control_c, 12, 11, 92
12, 163793, Control_c, 12, 11, 89
12, 163805, Note_on_c, 12, 72, 0
12, 163925, Control_c, 12, 11, 107
12, 163925, Note_on_c, 12, 74, 110
12, 163943, Control_c, 12, 11, 104
12, 163961, Control_c, 12, 11, 101
12, 163979, Control_c, 12, 11, 98
12, 163997, Control_c, 12, 11, 95
12, 164015, Control_c, 12, 11, 92
12, 164033, Control_c, 12, 11, 89
12, 164045, Note_on_c, 12, 74, 0
12, 164165, Note_on_c, 12, 64, 110
12, 164225, Note_on_c, 12, 64, 0
12, 164285, Note_on_c, 12, 67, 110
12, 164345, Note_on_c, 12, 67, 0
12, 164405, Note_on_c, 12, 72, 110
12, 164465, Note_on_c, 12, 72, 0
12, 164525, Note_on_c, 12, 76, 110
12, 164585, Note_on_c, 12, 76, 0
12, 164645, Note_on_c, 12, 62, 110
12, 164705, Note_on_c, 12, 62, 0
12, 164765, Note_on_c, 12, 65, 110
12, 164825, Note_on_c, 12, 65, 0
12, 164885, Note_on_c, 12, 71, 110
12, 164945, Note_on_c, 12, 71, 0
12, 165005, Note_on_c, 12, 74, 110
12, 165065, Note_on_c, 12, 74, 0
12, 165125, Control_c, 12, 11, 102
12, 165125, Note_on_c, 12, 61, 110
12, 165185, Note_on_c, 12, 61, 0
12, 165245, Note_on_c, 12, 64, 110
12, 165305, Note_on_c, 12, 64, 0
12, 165365, Note_on_c, 12, 69, 110
12, 165425, Note_on_c, 12, 69, 0
12, 165485, Note_on_c, 12, 73, 110
12, 165545, Note_on_c, 12, 73, 0
12, 165605, Note_on_c, 12, 67, 110
12, 165665, Note_on_c, 12, 67, 0
12, 165725, Note_on_c, 12, 67, 110
12, 165785, Note_on_c, 12, 67, 0
12, 165845, Note_on_c, 12, 67, 110
12, 165905, Note_on_c, 12, 67, 0
12, 165965, Note_on_c, 12, 67, 110
12, 166025, Note_on_c, 12, 67, 0
12, 166085, Note_on_c, 12, 65, 110
12, 166145, Note_on_c, 12, 65, 0
12, 166205, Note_on_c, 12, 74, 110
12, 166265, Note_on_c, 12, 74, 0
12, 166325, Note_on_c, 12, 69, 110
12, 166385, Note_on_c, 12, 69, 0
12, 166445, Note_on_c, 12, 65, 110
12, 166505, Note_on_c, 12, 65, 0
12, 166565, Note_on_c, 12, 66, 110
12, 166625, Note_on_c, 12, 66, 0
12, 166685, Note_on_c, 12, 72, 110
12, 166745, Note_on_c, 12, 72, 0
12, 166805, Note_on_c, 12, 69, 110
12, 166865, Note_on_c, 12, 69, 0
12, 166925, Note_on_c, 12, 66, 110
12, 166985, Note_on_c, 12, 66, 0
12, 167045, Control_c, 12, 11, 122
12, 167045, Note_on_c, 12, 67, 110
12, 167062, Control_c, 12, 11, 119
12, 167080, Control_c, 12, 11, 116
12, 167095, Note_on_c, 12, 67, 0
12, 167098, Control_c, 12, 11, 113
12, 167105, Note_on_c, 12, 67, 110
12, 167116, Control_c, 12, 11, 110
12, 167134, Control_c, 12, 11, 107
12, 167152, Control_c, 12, 11, 104
12, 167155, Note_on_c, 12, 67, 0
12, 167165, Note_on_c, 12, 67, 110
12, 167215, Note_on_c, 12, 67, 0
12, 167225, Note_on_c, 12, 67, 110
12, 167275, Note_on_c, 12, 67, 0
12, 167285, Control_c, 12, 11, 122
12, 167285, Note_on_c, 12, 69, 110
12, 167302, Control_c, 12, 11, 119
12, 167320, Control_c, 12, 11, 116
12, 167335, Note_on_c, 12, 69, 0
12, 167338, Control_c, 12, 11, 113
12, 167345, Note_on_c, 12, 69, 110
12, 167356, Control_c, 12, 11, 110
12, 167374, Control_c, 12, 11, 107
12, 167392, Control_c, 12, 11, 104
12, 167395, Note_on_c, 12, 69, 0
12, 167405, Note_on_c, 12, 69, 110
12, 167455, Note_on_c, 12, 69, 0
12, 167465, Note_on_c, 12, 69, 110
12, 167515, Note_on_c, 12, 69, 0
12, 167525, Note_on_c, 12, 65, 110
12, 167525, Control_c, 12, 11, 122
12, 167542, Control_c, 12, 11, 119
12, 167560, Control_c, 12, 11, 116
12, 167575, Note_on_c, 12, 65, 0
12, 167578, Control_c, 12, 11, 113
12, 167585, Note_on_c, 12, 65, 110
12, 167596, Control_c, 12, 11, 110
12, 167614, Control_c, 12, 11, 107
12, 167632, Control_c, 12, 11, 104
12, 167635, Note_on_c, 12, 65, 0
12, 167645, Note_on_c, 12, 65, 110
12, 167695, Note_on_c, 12, 65, 0
12, 167705, Note_on_c, 12, 65, 110
12, 167755, Note_on_c, 12, 65, 0
12, 167765, Control_c, 12, 11, 122
12, 167765, Note_on_c, 12, 67, 110
12, 167782, Control_c, 12, 11, 119
12, 167800, Control_c, 12, 11, 116
12, 167815, Note_on_c, 12, 67, 0
12, 167818, Control_c, 12, 11, 113
12, 167825, Note_on_c, 12, 67, 110
12, 167836, Control_c, 12, 11, 110
12, 167854, Control_c, 12, 11, 107
12, 167872, Control_c, 12, 11, 104
12, 167875, Note_on_c, 12, 67, 0
12, 167885, Note_on_c, 12, 67, 110
12, 167935, Note_on_c, 12, 67, 0
12, 167945, Note_on_c, 12, 67, 110
12, 167995, Note_on_c, 12, 67, 0
12, 168005, Control_c, 12, 11, 92
12, 168005, Note_on_c, 12, 60, 110
12, 168021, Control_c, 12, 11, 90
12, 168037, Control_c, 12, 11, 88
12, 168053, Control_c, 12, 11, 86
12, 168065, Note_on_c, 12, 60, 0
12, 168065, Note_on_c, 12, 48, 110
12, 168069, Control_c, 12, 11, 84
12, 168085, Control_c, 12, 11, 82
12, 168101, Control_c, 12, 11, 80
12, 168117, Control_c, 12, 11, 78
12, 168125, Note_on_c, 12, 48, 0
12, 168125, Note_on_c, 12, 60, 110
12, 168133, Control_c, 12, 11, 76
12, 168149, Control_c, 12, 11, 74
12, 168165, Control_c, 12, 11, 72
12, 168181, Control_c, 12, 11, 70
12, 168185, Note_on_c, 12, 60, 0
12, 168185, Note_on_c, 12, 48, 110
12, 168197, Control_c, 12, 11, 68
12, 168213, Control_c, 12, 11, 66
12, 168229, Control_c, 12, 11, 64
12, 168235, Note_on_c, 12, 48, 0
12, 168245, Control_c, 12, 11, 62
12, 168245, Note_on_c, 12, 60, 110
12, 168261, Control_c, 12, 11, 60
12, 168277, Control_c, 12, 11, 58
12, 168293, Control_c, 12, 11, 56
12, 168305, Note_on_c, 12, 60, 0
12, 168305, Note_on_c, 12, 48, 110
12, 168309, Control_c, 12, 11, 54
12, 168325, Control_c, 12, 11, 52
12, 168341, Control_c, 12, 11, 50
12, 168357, Control_c, 12, 11, 48
12, 168365, Note_on_c, 12, 48, 0
12, 168365, Note_on_c, 12, 60, 110
12, 168425, Note_on_c, 12, 60, 0
12, 168425, Note_on_c, 12, 48, 110
12, 168475, Note_on_c, 12, 48, 0
12, 168485, Note_on_c, 12, 60, 110
12, 168545, Note_on_c, 12, 60, 0
12, 168545, Note_on_c, 12, 48, 110
12, 168605, Note_on_c, 12, 48, 0
12, 168605, Note_on_c, 12, 60, 110
12, 168665, Note_on_c, 12, 60, 0
12, 168665, Note_on_c, 12, 48, 110
12, 168715, Note_on_c, 12, 48, 0
12, 168725, Note_on_c, 12, 60, 110
12, 168785, Note_on_c, 12, 60, 0
12, 168785, Note_on_c, 12, 48, 110
12, 168835, Note_on_c, 12, 48, 0
12, 168845, Control_c, 12, 11, 70
12, 168845, Note_on_c, 12, 62, 110
12, 168851, Control_c, 12, 11, 73
12, 168857, Control_c, 12, 11, 76
12, 168863, Control_c, 12, 11, 79
12, 168877, Control_c, 12, 11, 76
12, 168886, Control_c, 12, 11, 73
12, 168895, Control_c, 12, 11, 70
12, 168904, Control_c, 12, 11, 67
12, 168905, Note_on_c, 12, 62, 0
12, 168905, Note_on_c, 12, 55, 110
12, 168913, Control_c, 12, 11, 64
12, 168922, Control_c, 12, 11, 61
12, 168931, Control_c, 12, 11, 58
12, 168940, Control_c, 12, 11, 55
12, 168949, Control_c, 12, 11, 52
12, 168955, Note_on_c, 12, 55, 0
12, 168958, Control_c, 12, 11, 49
12, 168965, Note_on_c, 12, 60, 110
12, 169025, Note_on_c, 12, 60, 0
12, 169025, Note_on_c, 12, 48, 110
12, 169085, Note_on_c, 12, 48, 0
12, 169085, Note_on_c, 12, 60, 110
12, 169145, Note_on_c, 12, 60, 0
12, 169145, Note_on_c, 12, 48, 110
12, 169195, Note_on_c, 12, 48, 0
12, 169205, Note_on_c, 12, 60, 110
12, 169265, Note_on_c, 12, 60, 0
12, 169265, Note_on_c, 12, 48, 110
12, 169325, Note_on_c, 12, 48, 0
12, 169325, Note_on_c, 12, 60, 110
12, 169385, Note_on_c, 12, 60, 0
12, 169385, Note_on_c, 12, 48, 110
12, 169435, Note_on_c, 12, 48, 0
12, 169445, Note_on_c, 12, 60, 110
12, 169505, Note_on_c, 12, 60, 0
12, 169505, Note_on_c, 12, 48, 110
12, 169565, Note_on_c, 12, 48, 0
12, 169565, Note_on_c, 12, 60, 110
12, 169625, Note_on_c, 12, 60, 0
12, 169625, Note_on_c, 12, 48, 110
12, 169675, Note_on_c, 12, 48, 0
12, 169685, Note_on_c, 12, 60, 110
12, 169745, Note_on_c, 12, 60, 0
12, 169745, Note_on_c, 12, 48, 110
12, 169795, Note_on_c, 12, 48, 0
12, 169805, Note_on_c, 12, 62, 110
12, 169805, Control_c, 12, 11, 70
12, 169811, Control_c, 12, 11, 73
12, 169817, Control_c, 12, 11, 76
12, 169823, Control_c, 12, 11, 79
12, 169837, Control_c, 12, 11, 76
12, 169846, Control_c, 12, 11, 73
12, 169855, Control_c, 12, 11, 70
12, 169864, Control_c, 12, 11, 67
12, 169865, Note_on_c, 12, 62, 0
12, 169865, Note_on_c, 12, 55, 110
12, 169873, Control_c, 12, 11, 64
12, 169882, Control_c, 12, 11, 61
12, 169891, Control_c, 12, 11, 58
12, 169900, Control_c, 12, 11, 55
12, 169909, Control_c, 12, 11, 52
12, 169915, Note_on_c, 12, 55, 0
12, 169918, Control_c, 12, 11, 49
12, 169925, Note_on_c, 12, 60, 110
12, 169985, Note_on_c, 12, 60, 0
12, 169985, Note_on_c, 12, 48, 110
12, 170045, Note_on_c, 12, 48, 0
12, 170045, Note_on_c, 12, 60, 110
12, 170105, Note_on_c, 12, 60, 0
12, 170105, Note_on_c, 12, 48, 110
12, 170155, Note_on_c, 12, 48, 0
12, 170165, Note_on_c, 12, 60, 110
12, 170225, Note_on_c, 12, 60, 0
12, 170225, Note_on_c, 12, 48, 110
12, 170275, Note_on_c, 12, 48, 0
12, 170285, Note_on_c, 12, 62, 110
12, 170285, Control_c, 12, 11, 70
12, 170293, Control_c, 12, 11, 73
12, 170302, Control_c, 12, 11, 76
12, 170311, Control_c, 12, 11, 79
12, 170317, Control_c, 12, 11, 76
12, 170326, Control_c, 12, 11, 73
12, 170335, Control_c, 12, 11, 70
12, 170344, Control_c, 12, 11, 67
12, 170345, Note_on_c, 12, 62, 0
12, 170345, Note_on_c, 12, 55, 110
12, 170353, Control_c, 12, 11, 64
12, 170362, Control_c, 12, 11, 61
12, 170371, Control_c, 12, 11, 58
12, 170380, Control_c, 12, 11, 55
12, 170389, Control_c, 12, 11, 52
12, 170395, Note_on_c, 12, 55, 0
12, 170398, Control_c, 12, 11, 49
12, 170405, Note_on_c, 12, 60, 110
12, 170465, Note_on_c, 12, 60, 0
12, 170465, Note_on_c, 12, 48, 110
12, 170525, Note_on_c, 12, 48, 0
12, 170525, Note_on_c, 12, 60, 110
12, 170585, Note_on_c, 12, 60, 0
12, 170585, Note_on_c, 12, 48, 110
12, 170635, Note_on_c, 12, 48, 0
12, 170645, Note_on_c, 12, 60, 110
12, 170705, Note_on_c, 12, 60, 0
12, 170705, Note_on_c, 12, 48, 110
12, 170755, Note_on_c, 12, 48, 0
12, 170765, Note_on_c, 12, 62, 110
12, 170765, Control_c, 12, 11, 122
12, 170825, Note_on_c, 12, 62, 0
12, 170825, Note_on_c, 12, 55, 110
12, 170875, Note_on_c, 12, 55, 0
12, 170885, Note_on_c, 12, 48, 90
12, 170885, Note_on_c, 12, 55, 90
12, 170895, Note_on_c, 12, 64, 90
12, 171005, Note_on_c, 12, 55, 0
12, 171005, Note_on_c, 12, 48, 0
12, 171015, Note_on_c, 12, 64, 0
12, 171845, Control_c, 12, 11, 47
12, 171845, Note_on_c, 12, 60, 95
12, 171965, Note_on_c, 12, 60, 0
12, 172925, Note_on_c, 12, 60, 110
12, 173015, Note_on_c, 12, 60, 0
12, 173015, Note_on_c, 12, 64, 110
12, 173035, Note_on_c, 12, 64, 0
12, 173045, Note_on_c, 12, 65, 95
12, 173105, Note_on_c, 12, 65, 0
12, 174845, Note_on_c, 12, 57, 110
12, 174935, Note_on_c, 12, 57, 0
12, 174935, Note_on_c, 12, 61, 110
12, 174955, Note_on_c, 12, 61, 0
12, 174965, Note_on_c, 12, 62, 95
12, 175025, Note_on_c, 12, 62, 0
12, 175685, Note_on_c, 12, 55, 110
12, 175805, Note_on_c, 12, 55, 0
12, 176645, Control_c, 12, 11, 102
12, 176645, Note_on_c, 12, 60, 110
12, 176705, Note_on_c, 12, 60, 0
12, 176765, Note_on_c, 12, 60, 110
12, 176825, Note_on_c, 12, 60, 0
12, 177005, Note_on_c, 12, 65, 110
12, 177065, Note_on_c, 12, 65, 0
12, 177245, Note_on_c, 12, 67, 110
12, 177305, Note_on_c, 12, 67, 0
12, 177485, Note_on_c, 12, 68, 110
12, 177545, Note_on_c, 12, 68, 0
12, 177725, Note_on_c, 12, 69, 110
12, 177785, Note_on_c, 12, 69, 0
12, 177965, Note_on_c, 12, 65, 110
12, 178025, Note_on_c, 12, 65, 0
12, 178205, Note_on_c, 12, 67, 110
12, 178265, Note_on_c, 12, 67, 0
12, 178445, Note_on_c, 12, 68, 110
12, 178505, Note_on_c, 12, 68, 0
12, 178685, Note_on_c, 12, 69, 110
12, 178745, Note_on_c, 12, 69, 0
12, 178925, Note_on_c, 12, 65, 110
12, 178985, Note_on_c, 12, 65, 0
12, 179165, Note_on_c, 12, 67, 110
12, 179225, Note_on_c, 12, 67, 0
12, 179405, Note_on_c, 12, 55, 110
12, 179465, Note_on_c, 12, 55, 0
12, 179525, Note_on_c, 12, 60, 100
12, 179545, Note_on_c, 12, 60, 0
12, 179555, Note_on_c, 12, 60, 100
12, 179575, Note_on_c, 12, 60, 0
12, 179585, Note_on_c, 12, 60, 100
12, 179605, Note_on_c, 12, 60, 0
12, 179615, Note_on_c, 12, 60, 100
12, 179635, Note_on_c, 12, 60, 0
12, 179645, Note_on_c, 12, 60, 100
12, 179665, Note_on_c, 12, 60, 0
12, 179675, Note_on_c, 12, 60, 100
12, 179695, Note_on_c, 12, 60, 0
12, 179705, Note_on_c, 12, 60, 100
12, 179725, Note_on_c, 12, 60, 0
12, 179735, Note_on_c, 12, 60, 100
12, 179755, Note_on_c, 12, 60, 0
12, 179765, Note_on_c, 12, 60, 100
12, 179785, Note_on_c, 12, 60, 0
12, 179795, Note_on_c, 12, 60, 100
12, 179815, Note_on_c, 12, 60, 0
12, 179825, Note_on_c, 12, 60, 100
12, 179845, Note_on_c, 12, 60, 0
12, 179855, Note_on_c, 12, 60, 100
12, 179875, Note_on_c, 12, 60, 0
12, 179885, Note_on_c, 12, 60, 100
12, 179905, Note_on_c, 12, 60, 0
12, 179915, Note_on_c, 12, 60, 100
12, 179935, Note_on_c, 12, 60, 0
12, 179945, Note_on_c, 12, 60, 100
12, 179965, Note_on_c, 12, 60, 0
12, 179975, Note_on_c, 12, 60, 100
12, 179995, Note_on_c, 12, 60, 0
12, 180005, Note_on_c, 12, 60, 100
12, 180025, Note_on_c, 12, 60, 0
12, 180035, Note_on_c, 12, 60, 100
12, 180055, Note_on_c, 12, 60, 0
12, 180065, Note_on_c, 12, 60, 100
12, 180085, Note_on_c, 12, 60, 0
12, 180095, Note_on_c, 12, 60, 100
12, 180115, Note_on_c, 12, 60, 0
12, 180125, Note_on_c, 12, 60, 100
12, 180145, Note_on_c, 12, 60, 0
12, 180155, Note_on_c, 12, 60, 100
12, 180175, Note_on_c, 12, 60, 0
12, 180185, Note_on_c, 12, 60, 100
12, 180205, Note_on_c, 12, 60, 0
12, 180215, Note_on_c, 12, 60, 100
12, 180235, Note_on_c, 12, 60, 0
12, 180245, Note_on_c, 12, 60, 100
12, 180265, Note_on_c, 12, 60, 0
12, 180275, Note_on_c, 12, 60, 100
12, 180295, Note_on_c, 12, 60, 0
12, 180305, Note_on_c, 12, 60, 100
12, 180325, Note_on_c, 12, 60, 0
12, 180335, Note_on_c, 12, 60, 100
12, 180355, Note_on_c, 12, 60, 0
12, 180365, Note_on_c, 12, 60, 100
12, 180385, Note_on_c, 12, 60, 0
12, 180395, Note_on_c, 12, 60, 100
12, 180415, Note_on_c, 12, 60, 0
12, 180425, Note_on_c, 12, 60, 100
12, 180445, Note_on_c, 12, 60, 0
12, 180455, Note_on_c, 12, 60, 100
12, 180475, Note_on_c, 12, 60, 0
12, 180485, Note_on_c, 12, 60, 100
12, 180505, Note_on_c, 12, 60, 0
12, 180515, Note_on_c, 12, 60, 100
12, 180535, Note_on_c, 12, 60, 0
12, 180545, Note_on_c, 12, 60, 100
12, 180565, Note_on_c, 12, 60, 0
12, 180575, Note_on_c, 12, 60, 100
12, 180595, Note_on_c, 12, 60, 0
12, 180605, Note_on_c, 12, 60, 100
12, 180625, Note_on_c, 12, 60, 0
12, 180635, Note_on_c, 12, 60, 100
12, 180655, Note_on_c, 12, 60, 0
12, 180665, Note_on_c, 12, 60, 100
12, 180685, Note_on_c, 12, 60, 0
12, 180695, Note_on_c, 12, 60, 100
12, 180715, Note_on_c, 12, 60, 0
12, 180725, Note_on_c, 12, 60, 100
12, 180745, Note_on_c, 12, 60, 0
12, 180755, Note_on_c, 12, 60, 100
12, 180775, Note_on_c, 12, 60, 0
12, 180785, Note_on_c, 12, 60, 100
12, 180805, Note_on_c, 12, 60, 0
12, 180815, Note_on_c, 12, 60, 100
12, 180835, Note_on_c, 12, 60, 0
12, 180845, Note_on_c, 12, 60, 100
12, 180865, Note_on_c, 12, 60, 0
12, 180875, Note_on_c, 12, 60, 100
12, 180895, Note_on_c, 12, 60, 0
12, 180905, Note_on_c, 12, 60, 100
12, 180925, Note_on_c, 12, 60, 0
12, 180935, Note_on_c, 12, 60, 100
12, 180955, Note_on_c, 12, 60, 0
12, 180965, Note_on_c, 12, 60, 100
12, 180985, Note_on_c, 12, 60, 0
12, 180995, Note_on_c, 12, 60, 100
12, 181015, Note_on_c, 12, 60, 0
12, 181025, Note_on_c, 12, 60, 100
12, 181045, Note_on_c, 12, 60, 0
12, 181055, Note_on_c, 12, 60, 100
12, 181075, Note_on_c, 12, 60, 0
12, 181085, Note_on_c, 12, 60, 100
12, 181105, Note_on_c, 12, 60, 0
12, 181115, Note_on_c, 12, 60, 100
12, 181135, Note_on_c, 12, 60, 0
12, 181145, Note_on_c, 12, 60, 100
12, 181165, Note_on_c, 12, 60, 0
12, 181175, Note_on_c, 12, 60, 100
12, 181195, Note_on_c, 12, 60, 0
12, 181205, Note_on_c, 12, 60, 100
12, 181225, Note_on_c, 12, 60, 0
12, 181235, Note_on_c, 12, 60, 100
12, 181255, Note_on_c, 12, 60, 0
12, 181265, Note_on_c, 12, 60, 100
12, 181285, Note_on_c, 12, 60, 0
12, 181295, Note_on_c, 12, 60, 100
12, 181315, Note_on_c, 12, 60, 0
12, 181325, Note_on_c, 12, 60, 100
12, 181345, Note_on_c, 12, 60, 0
12, 181355, Note_on_c, 12, 60, 100
12, 181375, Note_on_c, 12, 60, 0
12, 181385, Note_on_c, 12, 60, 100
12, 181405, Note_on_c, 12, 60, 0
12, 181415, Note_on_c, 12, 60, 100
12, 181435, Note_on_c, 12, 60, 0
12, 181445, Control_c, 12, 11, 122
12, 181445, Note_on_c, 12, 60, 100
12, 181463, Control_c, 12, 11, 119
12, 181465, Note_on_c, 12, 60, 0
12, 181475, Note_on_c, 12, 60, 100
12, 181481, Control_c, 12, 11, 116
12, 181495, Note_on_c, 12, 60, 0
12, 181499, Control_c, 12, 11, 113
12, 181505, Note_on_c, 12, 60, 100
12, 181517, Control_c, 12, 11, 110
12, 181525, Note_on_c, 12, 60, 0
12, 181535, Note_on_c, 12, 60, 100
12, 181535, Control_c, 12, 11, 107
12, 181553, Control_c, 12, 11, 104
12, 181555, Note_on_c, 12, 60, 0
12, 181565, Note_on_c, 12, 60, 100
12, 181585, Note_on_c, 12, 60, 0
12, 181595, Note_on_c, 12, 60, 100
12, 181615, Note_on_c, 12, 60, 0
12, 181625, Note_on_c, 12, 60, 100
12, 181645, Note_on_c, 12, 60, 0
12, 181655, Note_on_c, 12, 60, 100
12, 181675, Note_on_c, 12, 60, 0
12, 181685, Note_on_c, 12, 60, 100
12, 181705, Note_on_c, 12, 60, 0
12, 181715, Note_on_c, 12, 60, 100
12, 181735, Note_on_c, 12, 60, 0
12, 181745, Note_on_c, 12, 60, 100
12, 181765, Note_on_c, 12, 60, 0
12, 181775, Note_on_c, 12, 60, 100
12, 181795, Note_on_c, 12, 60, 0
12, 181805, Note_on_c, 12, 60, 100
12, 181825, Note_on_c, 12, 60, 0
12, 181835, Note_on_c, 12, 60, 100
12, 181855, Note_on_c, 12, 60, 0
12, 181865, Note_on_c, 12, 60, 100
12, 181885, Note_on_c, 12, 60, 0
12, 181895, Note_on_c, 12, 60, 100
12, 181915, Note_on_c, 12, 60, 0
12, 181925, Note_on_c, 12, 60, 100
12, 181945, Note_on_c, 12, 60, 0
12, 181955, Note_on_c, 12, 60, 100
12, 181975, Note_on_c, 12, 60, 0
12, 181985, Note_on_c, 12, 60, 100
12, 182005, Note_on_c, 12, 60, 0
12, 182015, Note_on_c, 12, 60, 100
12, 182035, Note_on_c, 12, 60, 0
12, 182045, Note_on_c, 12, 60, 100
12, 182065, Note_on_c, 12, 60, 0
12, 182075, Note_on_c, 12, 60, 100
12, 182095, Note_on_c, 12, 60, 0
12, 182105, Note_on_c, 12, 60, 100
12, 182125, Note_on_c, 12, 60, 0
12, 182135, Note_on_c, 12, 60, 100
12, 182155, Note_on_c, 12, 60, 0
12, 182165, Note_on_c, 12, 60, 100
12, 182185, Note_on_c, 12, 60, 0
12, 182195, Note_on_c, 12, 60, 100
12, 182215, Note_on_c, 12, 60, 0
12, 182225, Note_on_c, 12, 60, 100
12, 182245, Note_on_c, 12, 60, 0
12, 182255, Note_on_c, 12, 60, 100
12, 182275, Note_on_c, 12, 60, 0
12, 182285, Note_on_c, 12, 60, 100
12, 182305, Note_on_c, 12, 60, 0
12, 182315, Note_on_c, 12, 60, 100
12, 182335, Note_on_c, 12, 60, 0
12, 182345, Note_on_c, 12, 60, 100
12, 182365, Note_on_c, 12, 60, 0
12, 182375, Note_on_c, 12, 60, 100
12, 182395, Note_on_c, 12, 60, 0
12, 182405, Note_on_c, 12, 60, 100
12, 182425, Note_on_c, 12, 60, 0
12, 182435, Note_on_c, 12, 60, 100
12, 182455, Note_on_c, 12, 60, 0
12, 182465, Note_on_c, 12, 60, 100
12, 182485, Note_on_c, 12, 60, 0
12, 182495, Note_on_c, 12, 60, 100
12, 182515, Note_on_c, 12, 60, 0
12, 182525, Note_on_c, 12, 60, 100
12, 182545, Note_on_c, 12, 60, 0
12, 182555, Note_on_c, 12, 60, 100
12, 182575, Note_on_c, 12, 60, 0
12, 182585, Note_on_c, 12, 60, 100
12, 182605, Note_on_c, 12, 60, 0
12, 182615, Note_on_c, 12, 60, 100
12, 182635, Note_on_c, 12, 60, 0
12, 182645, Note_on_c, 12, 60, 100
12, 182665, Note_on_c, 12, 60, 0
12, 182675, Note_on_c, 12, 60, 100
12, 182695, Note_on_c, 12, 60, 0
12, 182705, Note_on_c, 12, 60, 100
12, 182725, Note_on_c, 12, 60, 0
12, 182735, Note_on_c, 12, 60, 100
12, 182755, Note_on_c, 12, 60, 0
12, 182765, Note_on_c, 12, 60, 100
12, 182785, Note_on_c, 12, 60, 0
12, 182795, Note_on_c, 12, 60, 100
12, 182815, Note_on_c, 12, 60, 0
12, 182825, Note_on_c, 12, 60, 100
12, 182845, Note_on_c, 12, 60, 0
12, 182855, Note_on_c, 12, 60, 100
12, 182875, Note_on_c, 12, 60, 0
12, 182885, Note_on_c, 12, 60, 100
12, 182905, Note_on_c, 12, 60, 0
12, 182915, Note_on_c, 12, 60, 100
12, 182935, Note_on_c, 12, 60, 0
12, 182945, Note_on_c, 12, 60, 100
12, 182965, Note_on_c, 12, 60, 0
12, 182975, Note_on_c, 12, 60, 100
12, 182995, Note_on_c, 12, 60, 0
12, 183005, Note_on_c, 12, 60, 100
12, 183025, Note_on_c, 12, 60, 0
12, 183035, Note_on_c, 12, 60, 100
12, 183055, Note_on_c, 12, 60, 0
12, 183065, Note_on_c, 12, 60, 100
12, 183085, Note_on_c, 12, 60, 0
12, 183095, Note_on_c, 12, 60, 100
12, 183115, Note_on_c, 12, 60, 0
12, 183125, Note_on_c, 12, 60, 100
12, 183145, Note_on_c, 12, 60, 0
12, 183155, Note_on_c, 12, 60, 100
12, 183175, Note_on_c, 12, 60, 0
12, 183185, Note_on_c, 12, 60, 100
12, 183205, Note_on_c, 12, 60, 0
12, 183215, Note_on_c, 12, 60, 100
12, 183235, Note_on_c, 12, 60, 0
12, 183245, Note_on_c, 12, 60, 100
12, 183265, Note_on_c, 12, 60, 0
12, 183275, Note_on_c, 12, 60, 100
12, 183295, Note_on_c, 12, 60, 0
12, 183305, Note_on_c, 12, 60, 100
12, 183325, Note_on_c, 12, 60, 0
12, 183335, Note_on_c, 12, 60, 100
12, 183355, Note_on_c, 12, 60, 0
12, 183365, Note_on_c, 12, 60, 100
12, 183365, Control_c, 12, 11, 122
12, 183383, Control_c, 12, 11, 119
12, 183385, Note_on_c, 12, 60, 0
12, 183395, Note_on_c, 12, 60, 100
12, 183401, Control_c, 12, 11, 116
12, 183415, Note_on_c, 12, 60, 0
12, 183419, Control_c, 12, 11, 113
12, 183425, Note_on_c, 12, 60, 100
12, 183437, Control_c, 12, 11, 110
12, 183445, Note_on_c, 12, 60, 0
12, 183455, Note_on_c, 12, 60, 100
12, 183455, Control_c, 12, 11, 107
12, 183473, Control_c, 12, 11, 104
12, 183475, Note_on_c, 12, 60, 0
12, 183485, Note_on_c, 12, 60, 100
12, 183505, Note_on_c, 12, 60, 0
12, 183515, Note_on_c, 12, 60, 100
12, 183535, Note_on_c, 12, 60, 0
12, 183545, Note_on_c, 12, 60, 100
12, 183565, Note_on_c, 12, 60, 0
12, 183575, Note_on_c, 12, 60, 100
12, 183595, Note_on_c, 12, 60, 0
12, 183605, Note_on_c, 12, 60, 100
12, 183625, Note_on_c, 12, 60, 0
12, 183635, Note_on_c, 12, 60, 100
12, 183655, Note_on_c, 12, 60, 0
12, 183665, Note_on_c, 12, 60, 100
12, 183685, Note_on_c, 12, 60, 0
12, 183695, Note_on_c, 12, 60, 100
12, 183715, Note_on_c, 12, 60, 0
12, 183725, Note_on_c, 12, 60, 100
12, 183745, Note_on_c, 12, 60, 0
12, 183755, Note_on_c, 12, 60, 100
12, 183775, Note_on_c, 12, 60, 0
12, 183785, Note_on_c, 12, 60, 100
12, 183805, Note_on_c, 12, 60, 0
12, 183815, Note_on_c, 12, 60, 100
12, 183835, Note_on_c, 12, 60, 0
12, 183845, Note_on_c, 12, 60, 100
12, 183865, Note_on_c, 12, 60, 0
12, 183875, Note_on_c, 12, 60, 100
12, 183895, Note_on_c, 12, 60, 0
12, 183905, Note_on_c, 12, 60, 100
12, 183925, Note_on_c, 12, 60, 0
12, 183935, Note_on_c, 12, 60, 100
12, 183955, Note_on_c, 12, 60, 0
12, 183965, Note_on_c, 12, 60, 100
12, 183985, Note_on_c, 12, 60, 0
12, 183995, Note_on_c, 12, 60, 100
12, 184015, Note_on_c, 12, 60, 0
12, 184025, Note_on_c, 12, 60, 100
12, 184045, Note_on_c, 12, 60, 0
12, 184055, Note_on_c, 12, 60, 100
12, 184075, Note_on_c, 12, 60, 0
12, 184085, Note_on_c, 12, 60, 100
12, 184105, Note_on_c, 12, 60, 0
12, 184115, Note_on_c, 12, 60, 100
12, 184135, Note_on_c, 12, 60, 0
12, 184145, Note_on_c, 12, 60, 100
12, 184165, Note_on_c, 12, 60, 0
12, 184175, Note_on_c, 12, 60, 100
12, 184195, Note_on_c, 12, 60, 0
12, 184205, Note_on_c, 12, 60, 100
12, 184225, Note_on_c, 12, 60, 0
12, 184235, Note_on_c, 12, 60, 100
12, 184255, Note_on_c, 12, 60, 0
12, 184265, Note_on_c, 12, 60, 100
12, 184285, Note_on_c, 12, 60, 0
12, 184295, Note_on_c, 12, 60, 100
12, 184315, Note_on_c, 12, 60, 0
12, 184325, Note_on_c, 12, 60, 100
12, 184345, Note_on_c, 12, 60, 0
12, 184355, Note_on_c, 12, 60, 100
12, 184375, Note_on_c, 12, 60, 0
12, 184385, Note_on_c, 12, 60, 100
12, 184405, Note_on_c, 12, 60, 0
12, 184415, Note_on_c, 12, 60, 100
12, 184435, Note_on_c, 12, 60, 0
12, 184445, Note_on_c, 12, 60, 100
12, 184465, Note_on_c, 12, 60, 0
12, 184475, Note_on_c, 12, 60, 100
12, 184495, Note_on_c, 12, 60, 0
12, 184505, Note_on_c, 12, 60, 100
12, 184525, Note_on_c, 12, 60, 0
12, 184535, Note_on_c, 12, 60, 100
12, 184555, Note_on_c, 12, 60, 0
12, 184565, Note_on_c, 12, 60, 100
12, 184585, Note_on_c, 12, 60, 0
12, 184595, Note_on_c, 12, 60, 100
12, 184615, Note_on_c, 12, 60, 0
12, 184625, Note_on_c, 12, 60, 100
12, 184645, Note_on_c, 12, 60, 0
12, 184655, Note_on_c, 12, 60, 100
12, 184675, Note_on_c, 12, 60, 0
12, 184685, Note_on_c, 12, 60, 100
12, 184705, Note_on_c, 12, 60, 0
12, 184715, Note_on_c, 12, 60, 100
12, 184735, Note_on_c, 12, 60, 0
12, 184745, Note_on_c, 12, 60, 100
12, 184765, Note_on_c, 12, 60, 0
12, 184775, Note_on_c, 12, 60, 100
12, 184795, Note_on_c, 12, 60, 0
12, 184805, Note_on_c, 12, 60, 110
12, 184825, Note_on_c, 12, 60, 0
12, 184835, Note_on_c, 12, 60, 110
12, 184855, Note_on_c, 12, 60, 0
12, 184865, Note_on_c, 12, 60, 110
12, 184885, Note_on_c, 12, 60, 0
12, 184895, Note_on_c, 12, 60, 110
12, 184915, Note_on_c, 12, 60, 0
12, 184925, Note_on_c, 12, 55, 110
12, 184945, Note_on_c, 12, 55, 0
12, 184955, Note_on_c, 12, 55, 110
12, 184975, Note_on_c, 12, 55, 0
12, 184985, Note_on_c, 12, 55, 110
12, 185005, Note_on_c, 12, 55, 0
12, 185015, Note_on_c, 12, 55, 110
12, 185035, Note_on_c, 12, 55, 0
12, 185045, Note_on_c, 12, 60, 110
12, 185065, Note_on_c, 12, 60, 0
12, 185075, Note_on_c, 12, 60, 110
12, 185095, Note_on_c, 12, 60, 0
12, 185105, Note_on_c, 12, 60, 110
12, 185125, Note_on_c, 12, 60, 0
12, 185135, Note_on_c, 12, 60, 110
12, 185155, Note_on_c, 12, 60, 0
12, 185165, Note_on_c, 12, 64, 110
12, 185185, Note_on_c, 12, 64, 0
12, 185195, Note_on_c, 12, 64, 110
12, 185215, Note_on_c, 12, 64, 0
12, 185225, Note_on_c, 12, 64, 110
12, 185245, Note_on_c, 12, 64, 0
12, 185255, Note_on_c, 12, 64, 110
12, 185275, Note_on_c, 12, 64, 0
12, 185285, Note_on_c, 12, 67, 110
12, 185305, Note_on_c, 12, 67, 0
12, 185315, Note_on_c, 12, 67, 110
12, 185335, Note_on_c, 12, 67, 0
12, 185345, Note_on_c, 12, 67, 110
12, 185365, Note_on_c, 12, 67, 0
12, 185375, Note_on_c, 12, 67, 110
12, 185395, Note_on_c, 12, 67, 0
12, 185405, Note_on_c, 12, 64, 110
12, 185425, Note_on_c, 12, 64, 0
12, 185435, Note_on_c, 12, 64, 110
12, 185455, Note_on_c, 12, 64, 0
12, 185465, Note_on_c, 12, 64, 110
12, 185485, Note_on_c, 12, 64, 0
12, 185495, Note_on_c, 12, 64, 110
12, 185515, Note_on_c, 12, 64, 0
12, 185525, Note_on_c, 12, 60, 110
12, 185545, Note_on_c, 12, 60, 0
12, 185555, Note_on_c, 12, 60, 110
12, 185575, Note_on_c, 12, 60, 0
12, 185585, Note_on_c, 12, 60, 110
12, 185605, Note_on_c, 12, 60, 0
12, 185615, Note_on_c, 12, 60, 110
12, 185635, Note_on_c, 12, 60, 0
12, 185645, Note_on_c, 12, 55, 110
12, 185665, Note_on_c, 12, 55, 0
12, 185675, Note_on_c, 12, 55, 110
12, 185695, Note_on_c, 12, 55, 0
12, 185705, Note_on_c, 12, 55, 110
12, 185725, Note_on_c, 12, 55, 0
12, 185735, Note_on_c, 12, 55, 110
12, 185755, Note_on_c, 12, 55, 0
12, 185765, Note_on_c, 12, 64, 110
12, 185785, Note_on_c, 12, 64, 0
12, 185795, Note_on_c, 12, 64, 110
12, 185815, Note_on_c, 12, 64, 0
12, 185825, Note_on_c, 12, 64, 110
12, 185845, Note_on_c, 12, 64, 0
12, 185855, Note_on_c, 12, 64, 110
12, 185875, Note_on_c, 12, 64, 0
12, 185885, Note_on_c, 12, 60, 110
12, 185905, Note_on_c, 12, 60, 0
12, 185915, Note_on_c, 12, 60, 110
12, 185935, Note_on_c, 12, 60, 0
12, 185945, Note_on_c, 12, 60, 110
12, 185965, Note_on_c, 12, 60, 0
12, 185975, Note_on_c, 12, 60, 110
12, 185995, Note_on_c, 12, 60, 0
12, 186005, Note_on_c, 12, 55, 110
12, 186025, Note_on_c, 12, 55, 0
12, 186035, Note_on_c, 12, 55, 110
12, 186055, Note_on_c, 12, 55, 0
12, 186065, Note_on_c, 12, 55, 110
12, 186085, Note_on_c, 12, 55, 0
12, 186095, Note_on_c, 12, 55, 110
12, 186115, Note_on_c, 12, 55, 0
12, 186125, Note_on_c, 12, 52, 110
12, 186145, Note_on_c, 12, 52, 0
12, 186155, Note_on_c, 12, 52, 110
12, 186175, Note_on_c, 12, 52, 0
12, 186185, Note_on_c, 12, 52, 110
12, 186205, Note_on_c, 12, 52, 0
12, 186215, Note_on_c, 12, 52, 110
12, 186235, Note_on_c, 12, 52, 0
12, 186245, Note_on_c, 12, 72, 110
12, 186265, Note_on_c, 12, 72, 0
12, 186275, Note_on_c, 12, 72, 110
12, 186295, Note_on_c, 12, 72, 0
12, 186305, Note_on_c, 12, 72, 110
12, 186325, Note_on_c, 12, 72, 0
12, 186335, Note_on_c, 12, 72, 110
12, 186355, Note_on_c, 12, 72, 0
12, 186365, Note_on_c, 12, 67, 110
12, 186385, Note_on_c, 12, 67, 0
12, 186395, Note_on_c, 12, 67, 110
12, 186415, Note_on_c, 12, 67, 0
12, 186425, Note_on_c, 12, 67, 110
12, 186445, Note_on_c, 12, 67, 0
12, 186455, Note_on_c, 12, 67, 110
12, 186475, Note_on_c, 12, 67, 0
12, 186485, Note_on_c, 12, 64, 110
12, 186505, Note_on_c, 12, 64, 0
12, 186515, Note_on_c, 12, 64, 110
12, 186535, Note_on_c, 12, 64, 0
12, 186545, Note_on_c, 12, 64, 110
12, 186565, Note_on_c, 12, 64, 0
12, 186575, Note_on_c, 12, 64, 110
12, 186595, Note_on_c, 12, 64, 0
12, 186605, Note_on_c, 12, 60, 110
12, 186625, Note_on_c, 12, 60, 0
12, 186635, Note_on_c, 12, 60, 110
12, 186655, Note_on_c, 12, 60, 0
12, 186665, Note_on_c, 12, 60, 110
12, 186685, Note_on_c, 12, 60, 0
12, 186695, Note_on_c, 12, 60, 110
12, 186715, Note_on_c, 12, 60, 0
12, 186725, Note_on_c, 12, 55, 110
12, 186745, Note_on_c, 12, 55, 0
12, 186755, Note_on_c, 12, 55, 110
12, 186775, Note_on_c, 12, 55, 0
12, 186785, Note_on_c, 12, 55, 110
12, 186805, Note_on_c, 12, 55, 0
12, 186815, Note_on_c, 12, 55, 110
12, 186835, Note_on_c, 12, 55, 0
12, 186845, Note_on_c, 12, 60, 110
12, 186865, Note_on_c, 12, 60, 0
12, 186875, Note_on_c, 12, 60, 110
12, 186895, Note_on_c, 12, 60, 0
12, 186905, Note_on_c, 12, 60, 110
12, 186925, Note_on_c, 12, 60, 0
12, 186935, Note_on_c, 12, 60, 110
12, 186955, Note_on_c, 12, 60, 0
12, 186965, Note_on_c, 12, 55, 110
12, 186985, Note_on_c, 12, 55, 0
12, 186995, Note_on_c, 12, 55, 110
12, 187015, Note_on_c, 12, 55, 0
12, 187025, Note_on_c, 12, 55, 110
12, 187045, Note_on_c, 12, 55, 0
12, 187055, Note_on_c, 12, 55, 110
12, 187075, Note_on_c, 12, 55, 0
12, 187085, Note_on_c, 12, 52, 110
12, 187105, Note_on_c, 12, 52, 0
12, 187115, Note_on_c, 12, 52, 110
12, 187135, Note_on_c, 12, 52, 0
12, 187145, Note_on_c, 12, 52, 110
12, 187165, Note_on_c, 12, 52, 0
12, 187175, Note_on_c, 12, 52, 110
12, 187195, Note_on_c, 12, 52, 0
12, 187205, Note_on_c, 12, 48, 125
12, 187325, Note_on_c, 12, 48, 0
12, 187685, Note_on_c, 12, 55, 110
12, 187695, Note_on_c, 12, 72, 110
12, 187695, Note_on_c, 12, 64, 110
12, 187805, Note_on_c, 12, 55, 0
12, 187815, Note_on_c, 12, 64, 0
12, 187815, Note_on_c, 12, 72, 0
12, 188165, Note_on_c, 12, 48, 110
12, 188285, Note_on_c, 12, 48, 0
12, 188645, Control_c, 12, 11, 112
12, 188645, Note_on_c, 12, 48, 110
12, 188657, Control_c, 12, 11, 109
12, 188669, Control_c, 12, 11, 106
12, 188681, Control_c, 12, 11, 103
12, 188765, Note_on_c, 12, 48, 0
12, 188885, Note_on_c, 12, 48, 110
12, 188885, Control_c, 12, 11, 112
12, 188897, Control_c, 12, 11, 109
12, 188909, Control_c, 12, 11, 106
12, 188921, Control_c, 12, 11, 103
12, 189005, Note_on_c, 12, 48, 0
12, 189125, Control_c, 12, 11, 112
12, 189125, Note_on_c, 12, 48, 110
12, 189137, Control_c, 12, 11, 109
12, 189149, Control_c, 12, 11, 106
12, 189161, Control_c, 12, 11, 103
12, 189225, Control_c, 12, 11, 102
12, 189227, Control_c, 12, 11, 98
12, 189229, Control_c, 12, 11, 94
12, 189231, Control_c, 12, 11, 90
12, 189233, Control_c, 12, 11, 87
12, 189235, Control_c, 12, 11, 83
12, 189237, Control_c, 12, 11, 79
12, 189239, Control_c, 12, 11, 76
12, 189241, Control_c, 12, 11, 72
12, 189243, Control_c, 12, 11, 68
12, 189245, Note_on_c, 12, 48, 0
12, 189605, Control_c, 12, 121, 0
12, 189605, End_track
13, 0, Start_track
13, 0, MIDI_port, 0
13, 0, Title_t, "Violoncelle"
13, 0, Program_c, 13, 48
13, 0, Control_c, 13, 10, 100
13, 7, Control_c, 13, 121, 0
13, 12, Program_c, 13, 45
13, 17, Pitch_bend_c, 13, 7892
13, 22, Control_c, 13, 11, 100
13, 27, Control_c, 13, 7, 127
13, 32, Control_c, 13, 91, 35
13, 37, Control_c, 13, 93, 0
13, 42, Control_c, 13, 10, 100
13, 47, Control_c, 13, 1, 36
13, 487, Note_on_c, 13, 60, 48
13, 607, Note_on_c, 13, 60, 0
13, 727, Note_on_c, 13, 53, 26
13, 847, Note_on_c, 13, 53, 0
13, 967, Note_on_c, 13, 55, 48
13, 1087, Note_on_c, 13, 55, 0
13, 1207, Note_on_c, 13, 57, 26
13, 1327, Note_on_c, 13, 57, 0
13, 1447, Note_on_c, 13, 50, 35
13, 1567, Note_on_c, 13, 50, 0
13, 1687, Note_on_c, 13, 50, 48
13, 1807, Note_on_c, 13, 50, 0
13, 1807, Note_on_c, 13, 50, 66
13, 1926, Program_c, 13, 48
13, 1927, Note_on_c, 13, 50, 0
13, 1927, Note_on_c, 13, 43, 108
13, 1927, Control_c, 13, 11, 57
13, 1929, Control_c, 13, 11, 61
13, 1931, Control_c, 13, 11, 65
13, 1933, Control_c, 13, 11, 69
13, 1935, Control_c, 13, 11, 73
13, 1937, Control_c, 13, 11, 77
13, 1939, Control_c, 13, 11, 81
13, 1941, Control_c, 13, 11, 85
13, 2047, Note_on_c, 13, 43, 0
13, 2407, Note_on_c, 13, 43, 108
13, 2407, Control_c, 13, 11, 32
13, 2411, Control_c, 13, 11, 35
13, 2415, Control_c, 13, 11, 38
13, 2419, Control_c, 13, 11, 41
13, 2423, Control_c, 13, 11, 44
13, 2427, Control_c, 13, 11, 47
13, 2467, Note_on_c, 13, 43, 0
13, 2467, Note_on_c, 13, 55, 108
13, 2527, Note_on_c, 13, 55, 0
13, 2527, Note_on_c, 13, 55, 108
13, 2587, Note_on_c, 13, 55, 0
13, 2587, Note_on_c, 13, 55, 108
13, 2647, Note_on_c, 13, 55, 0
13, 2647, Note_on_c, 13, 53, 108
13, 2707, Note_on_c, 13, 53, 0
13, 2707, Note_on_c, 13, 53, 108
13, 2767, Note_on_c, 13, 53, 0
13, 2767, Note_on_c, 13, 53, 108
13, 2827, Note_on_c, 13, 53, 0
13, 2827, Note_on_c, 13, 53, 108
13, 2887, Note_on_c, 13, 53, 0
13, 2887, Note_on_c, 13, 52, 108
13, 2947, Note_on_c, 13, 52, 0
13, 2947, Note_on_c, 13, 52, 108
13, 3007, Note_on_c, 13, 52, 0
13, 3007, Note_on_c, 13, 52, 108
13, 3067, Note_on_c, 13, 52, 0
13, 3067, Note_on_c, 13, 52, 108
13, 3127, Note_on_c, 13, 52, 0
13, 3127, Note_on_c, 13, 52, 108
13, 3187, Note_on_c, 13, 52, 0
13, 3187, Note_on_c, 13, 52, 108
13, 3247, Note_on_c, 13, 52, 0
13, 3247, Note_on_c, 13, 52, 108
13, 3307, Note_on_c, 13, 52, 0
13, 3307, Note_on_c, 13, 52, 108
13, 3367, Note_on_c, 13, 52, 0
13, 3367, Control_c, 13, 11, 47
13, 3367, Note_on_c, 13, 47, 108
13, 3391, Control_c, 13, 11, 49
13, 3415, Control_c, 13, 11, 51
13, 3427, Note_on_c, 13, 47, 0
13, 3427, Note_on_c, 13, 59, 108
13, 3439, Control_c, 13, 11, 53
13, 3463, Control_c, 13, 11, 55
13, 3487, Note_on_c, 13, 59, 0
13, 3487, Note_on_c, 13, 59, 108
13, 3487, Control_c, 13, 11, 57
13, 3511, Control_c, 13, 11, 59
13, 3535, Control_c, 13, 11, 61
13, 3547, Note_on_c, 13, 59, 0
13, 3547, Note_on_c, 13, 59, 108
13, 3559, Control_c, 13, 11, 63
13, 3583, Control_c, 13, 11, 65
13, 3607, Note_on_c, 13, 59, 0
13, 3607, Note_on_c, 13, 59, 108
13, 3607, Control_c, 13, 11, 67
13, 3631, Control_c, 13, 11, 69
13, 3655, Control_c, 13, 11, 71
13, 3667, Note_on_c, 13, 59, 0
13, 3667, Note_on_c, 13, 59, 108
13, 3679, Control_c, 13, 11, 73
13, 3703, Control_c, 13, 11, 75
13, 3727, Note_on_c, 13, 59, 0
13, 3727, Control_c, 13, 11, 77
13, 3727, Note_on_c, 13, 55, 108
13, 3751, Control_c, 13, 11, 79
13, 3775, Control_c, 13, 11, 81
13, 3787, Note_on_c, 13, 55, 0
13, 3787, Note_on_c, 13, 55, 108
13, 3799, Control_c, 13, 11, 83
13, 3823, Control_c, 13, 11, 85
13, 3847, Note_on_c, 13, 55, 0
13, 3847, Note_on_c, 13, 48, 108
13, 3847, Control_c, 13, 11, 77
13, 3856, Control_c, 13, 11, 80
13, 3865, Control_c, 13, 11, 83
13, 3874, Control_c, 13, 11, 86
13, 3937, Control_c, 13, 11, 87
13, 3939, Control_c, 13, 11, 83
13, 3941, Control_c, 13, 11, 79
13, 3943, Control_c, 13, 11, 76
13, 3945, Control_c, 13, 11, 72
13, 3947, Control_c, 13, 11, 69
13, 3949, Control_c, 13, 11, 65
13, 3951, Note_on_c, 13, 48, 0
13, 3951, Control_c, 13, 11, 62
13, 4087, Note_on_c, 13, 53, 108
13, 4087, Control_c, 13, 11, 67
13, 4091, Control_c, 13, 11, 70
13, 4096, Control_c, 13, 11, 73
13, 4100, Control_c, 13, 11, 76
13, 4105, Control_c, 13, 11, 79
13, 4109, Control_c, 13, 11, 82
13, 4114, Control_c, 13, 11, 85
13, 4187, Control_c, 13, 11, 87
13, 4189, Control_c, 13, 11, 83
13, 4191, Control_c, 13, 11, 79
13, 4193, Control_c, 13, 11, 76
13, 4195, Control_c, 13, 11, 72
13, 4197, Control_c, 13, 11, 69
13, 4199, Control_c, 13, 11, 65
13, 4201, Note_on_c, 13, 53, 0
13, 4201, Control_c, 13, 11, 62
13, 4327, Note_on_c, 13, 55, 108
13, 4327, Control_c, 13, 11, 27
13, 4333, Control_c, 13, 11, 30
13, 4339, Control_c, 13, 11, 33
13, 4345, Control_c, 13, 11, 36
13, 4351, Control_c, 13, 11, 39
13, 4357, Control_c, 13, 11, 42
13, 4567, Control_c, 13, 11, 42
13, 4580, Control_c, 13, 11, 45
13, 4593, Control_c, 13, 11, 48
13, 4606, Control_c, 13, 11, 51
13, 4619, Control_c, 13, 11, 54
13, 4627, Note_on_c, 13, 55, 0
13, 4627, Note_on_c, 13, 55, 108
13, 4632, Control_c, 13, 11, 57
13, 4645, Control_c, 13, 11, 60
13, 4658, Control_c, 13, 11, 63
13, 4671, Control_c, 13, 11, 66
13, 4684, Control_c, 13, 11, 69
13, 4687, Note_on_c, 13, 55, 0
13, 4687, Note_on_c, 13, 55, 108
13, 4697, Control_c, 13, 11, 72
13, 4711, Control_c, 13, 11, 75
13, 4724, Control_c, 13, 11, 78
13, 4737, Control_c, 13, 11, 81
13, 4747, Note_on_c, 13, 55, 0
13, 4747, Note_on_c, 13, 56, 108
13, 4750, Control_c, 13, 11, 84
13, 4763, Control_c, 13, 11, 87
13, 4776, Control_c, 13, 11, 90
13, 4789, Control_c, 13, 11, 93
13, 4802, Control_c, 13, 11, 96
13, 4807, Note_on_c, 13, 56, 0
13, 4807, Control_c, 13, 11, 77
13, 4807, Note_on_c, 13, 57, 118
13, 4816, Control_c, 13, 11, 80
13, 4825, Control_c, 13, 11, 83
13, 4834, Control_c, 13, 11, 86
13, 4897, Control_c, 13, 11, 97
13, 4898, Control_c, 13, 11, 94
13, 4900, Control_c, 13, 11, 89
13, 4902, Control_c, 13, 11, 84
13, 4904, Control_c, 13, 11, 79
13, 4906, Control_c, 13, 11, 74
13, 4908, Control_c, 13, 11, 69
13, 4910, Control_c, 13, 11, 64
13, 4911, Note_on_c, 13, 57, 0
13, 5047, Note_on_c, 13, 53, 108
13, 5047, Control_c, 13, 11, 67
13, 5051, Control_c, 13, 11, 70
13, 5056, Control_c, 13, 11, 73
13, 5060, Control_c, 13, 11, 76
13, 5065, Control_c, 13, 11, 79
13, 5069, Control_c, 13, 11, 82
13, 5074, Control_c, 13, 11, 85
13, 5147, Control_c, 13, 11, 87
13, 5149, Control_c, 13, 11, 83
13, 5151, Control_c, 13, 11, 79
13, 5153, Control_c, 13, 11, 76
13, 5155, Control_c, 13, 11, 72
13, 5157, Control_c, 13, 11, 69
13, 5159, Control_c, 13, 11, 65
13, 5161, Note_on_c, 13, 53, 0
13, 5161, Control_c, 13, 11, 62
13, 5287, Note_on_c, 13, 55, 108
13, 5287, Control_c, 13, 11, 67
13, 5291, Control_c, 13, 11, 70
13, 5296, Control_c, 13, 11, 73
13, 5300, Control_c, 13, 11, 76
13, 5305, Control_c, 13, 11, 79
13, 5309, Control_c, 13, 11, 82
13, 5314, Control_c, 13, 11, 85
13, 5377, Control_c, 13, 11, 87
13, 5379, Control_c, 13, 11, 84
13, 5382, Control_c, 13, 11, 80
13, 5385, Control_c, 13, 11, 77
13, 5387, Control_c, 13, 11, 74
13, 5390, Control_c, 13, 11, 71
13, 5392, Control_c, 13, 11, 68
13, 5395, Control_c, 13, 11, 65
13, 5397, Control_c, 13, 11, 62
13, 5400, Control_c, 13, 11, 59
13, 5402, Control_c, 13, 11, 56
13, 5405, Control_c, 13, 11, 53
13, 5407, Note_on_c, 13, 55, 0
13, 5767, Note_on_c, 13, 43, 108
13, 5767, Control_c, 13, 11, 32
13, 5783, Control_c, 13, 11, 34
13, 5799, Control_c, 13, 11, 36
13, 5815, Control_c, 13, 11, 38
13, 5827, Note_on_c, 13, 43, 0
13, 5827, Note_on_c, 13, 45, 93
13, 5831, Control_c, 13, 11, 40
13, 5847, Control_c, 13, 11, 42
13, 5857, Note_on_c, 13, 45, 0
13, 5857, Note_on_c, 13, 47, 95
13, 5863, Control_c, 13, 11, 44
13, 5879, Control_c, 13, 11, 46
13, 5887, Note_on_c, 13, 47, 0
13, 5887, Note_on_c, 13, 48, 98
13, 5917, Note_on_c, 13, 48, 0
13, 5917, Note_on_c, 13, 50, 100
13, 5947, Note_on_c, 13, 50, 0
13, 5947, Note_on_c, 13, 52, 103
13, 5977, Note_on_c, 13, 52, 0
13, 5977, Note_on_c, 13, 54, 105
13, 6002, Note_on_c, 13, 54, 0
13, 6007, Note_on_c, 13, 55, 108
13, 6182, Note_on_c, 13, 55, 0
13, 6187, Note_on_c, 13, 55, 93
13, 6202, Note_on_c, 13, 55, 0
13, 6202, Note_on_c, 13, 53, 93
13, 6217, Note_on_c, 13, 53, 0
13, 6217, Note_on_c, 13, 52, 93
13, 6232, Note_on_c, 13, 52, 0
13, 6232, Note_on_c, 13, 50, 93
13, 6247, Note_on_c, 13, 50, 0
13, 6247, Note_on_c, 13, 48, 88
13, 6367, Note_on_c, 13, 48, 0
13, 6727, Note_on_c, 13, 48, 65
13, 6847, Note_on_c, 13, 48, 0
13, 7207, Note_on_c, 13, 48, 65
13, 7327, Note_on_c, 13, 48, 0
13, 7447, Note_on_c, 13, 48, 65
13, 7567, Note_on_c, 13, 48, 0
13, 7687, Note_on_c, 13, 48, 65
13, 7807, Note_on_c, 13, 48, 0
13, 9007, Note_on_c, 13, 57, 108
13, 9037, Note_on_c, 13, 57, 0
13, 9037, Note_on_c, 13, 55, 108
13, 9067, Note_on_c, 13, 55, 0
13, 9067, Note_on_c, 13, 53, 108
13, 9097, Note_on_c, 13, 53, 0
13, 9097, Note_on_c, 13, 52, 108
13, 9127, Note_on_c, 13, 52, 0
13, 9127, Note_on_c, 13, 50, 108
13, 9247, Note_on_c, 13, 50, 0
13, 9607, Note_on_c, 13, 50, 76
13, 9727, Note_on_c, 13, 50, 0
13, 10087, Note_on_c, 13, 50, 76
13, 10207, Note_on_c, 13, 50, 0
13, 10327, Note_on_c, 13, 50, 76
13, 10447, Note_on_c, 13, 50, 0
13, 10567, Note_on_c, 13, 50, 76
13, 10687, Note_on_c, 13, 50, 0
13, 11047, Note_on_c, 13, 50, 108
13, 11047, Control_c, 13, 11, 32
13, 11058, Control_c, 13, 11, 35
13, 11069, Control_c, 13, 11, 38
13, 11080, Control_c, 13, 11, 41
13, 11092, Control_c, 13, 11, 44
13, 11103, Control_c, 13, 11, 47
13, 11143, Control_c, 13, 11, 50
13, 11175, Control_c, 13, 11, 51
13, 11207, Control_c, 13, 11, 52
13, 11239, Control_c, 13, 11, 53
13, 11271, Control_c, 13, 11, 54
13, 11303, Control_c, 13, 11, 55
13, 11335, Control_c, 13, 11, 56
13, 11367, Control_c, 13, 11, 57
13, 11399, Control_c, 13, 11, 58
13, 11431, Control_c, 13, 11, 59
13, 11463, Control_c, 13, 11, 60
13, 11495, Control_c, 13, 11, 61
13, 11527, Note_on_c, 13, 50, 0
13, 11527, Control_c, 13, 11, 62
13, 11527, Note_on_c, 13, 50, 108
13, 11557, Note_on_c, 13, 50, 0
13, 11557, Note_on_c, 13, 48, 108
13, 11559, Control_c, 13, 11, 63
13, 11587, Note_on_c, 13, 48, 0
13, 11587, Note_on_c, 13, 50, 108
13, 11591, Control_c, 13, 11, 64
13, 11617, Note_on_c, 13, 50, 0
13, 11617, Note_on_c, 13, 48, 108
13, 11623, Control_c, 13, 11, 65
13, 11647, Note_on_c, 13, 48, 0
13, 11647, Note_on_c, 13, 50, 108
13, 11655, Control_c, 13, 11, 66
13, 11677, Note_on_c, 13, 50, 0
13, 11677, Note_on_c, 13, 48, 108
13, 11687, Control_c, 13, 11, 67
13, 11707, Note_on_c, 13, 48, 0
13, 11707, Note_on_c, 13, 50, 108
13, 11719, Control_c, 13, 11, 68
13, 11737, Note_on_c, 13, 50, 0
13, 11737, Note_on_c, 13, 48, 108
13, 11751, Control_c, 13, 11, 69
13, 11767, Note_on_c, 13, 48, 0
13, 11767, Note_on_c, 13, 50, 108
13, 11783, Control_c, 13, 11, 70
13, 11797, Note_on_c, 13, 50, 0
13, 11797, Note_on_c, 13, 48, 108
13, 11815, Control_c, 13, 11, 71
13, 11827, Note_on_c, 13, 48, 0
13, 11827, Note_on_c, 13, 50, 108
13, 11847, Control_c, 13, 11, 72
13, 11857, Note_on_c, 13, 50, 0
13, 11857, Note_on_c, 13, 48, 108
13, 11879, Control_c, 13, 11, 73
13, 11887, Note_on_c, 13, 48, 0
13, 11887, Note_on_c, 13, 50, 108
13, 11911, Control_c, 13, 11, 74
13, 11917, Note_on_c, 13, 50, 0
13, 11917, Note_on_c, 13, 48, 108
13, 11943, Control_c, 13, 11, 75
13, 11947, Note_on_c, 13, 48, 0
13, 11947, Note_on_c, 13, 47, 108
13, 11975, Control_c, 13, 11, 76
13, 11977, Note_on_c, 13, 47, 0
13, 11977, Note_on_c, 13, 48, 108
13, 12007, Note_on_c, 13, 48, 0
13, 12007, Note_on_c, 13, 47, 108
13, 12007, Control_c, 13, 11, 84
13, 12012, Control_c, 13, 11, 87
13, 12017, Control_c, 13, 11, 90
13, 12022, Control_c, 13, 11, 93
13, 12042, Control_c, 13, 11, 91
13, 12060, Control_c, 13, 11, 88
13, 12078, Control_c, 13, 11, 85
13, 12096, Control_c, 13, 11, 82
13, 12114, Control_c, 13, 11, 79
13, 12127, Control_c, 13, 11, 67
13, 12277, Control_c, 13, 11, 67
13, 12283, Control_c, 13, 11, 64
13, 12289, Control_c, 13, 11, 61
13, 12295, Control_c, 13, 11, 58
13, 12301, Control_c, 13, 11, 55
13, 12307, Control_c, 13, 11, 52
13, 12313, Control_c, 13, 11, 49
13, 12315, Note_on_c, 13, 47, 0
13, 12847, Control_c, 13, 11, 67
13, 12847, Note_on_c, 13, 43, 108
13, 12937, Note_on_c, 13, 43, 0
13, 12937, Note_on_c, 13, 47, 108
13, 12967, Note_on_c, 13, 47, 0
13, 12967, Note_on_c, 13, 50, 108
13, 12967, Control_c, 13, 11, 97
13, 12985, Control_c, 13, 11, 94
13, 13003, Control_c, 13, 11, 91
13, 13021, Control_c, 13, 11, 88
13, 13039, Control_c, 13, 11, 85
13, 13057, Control_c, 13, 11, 82
13, 13075, Control_c, 13, 11, 79
13, 13237, Control_c, 13, 11, 67
13, 13243, Control_c, 13, 11, 64
13, 13249, Control_c, 13, 11, 61
13, 13255, Control_c, 13, 11, 58
13, 13261, Control_c, 13, 11, 55
13, 13267, Control_c, 13, 11, 52
13, 13273, Control_c, 13, 11, 49
13, 13275, Note_on_c, 13, 50, 0
13, 13807, Note_on_c, 13, 47, 108
13, 13807, Control_c, 13, 11, 67
13, 13897, Note_on_c, 13, 47, 0
13, 13897, Note_on_c, 13, 50, 108
13, 13927, Note_on_c, 13, 50, 0
13, 13927, Note_on_c, 13, 53, 108
13, 13927, Control_c, 13, 11, 97
13, 13945, Control_c, 13, 11, 94
13, 13963, Control_c, 13, 11, 91
13, 13981, Control_c, 13, 11, 88
13, 13999, Control_c, 13, 11, 85
13, 14017, Control_c, 13, 11, 82
13, 14035, Control_c, 13, 11, 79
13, 14197, Control_c, 13, 11, 67
13, 14203, Control_c, 13, 11, 64
13, 14209, Control_c, 13, 11, 61
13, 14215, Control_c, 13, 11, 58
13, 14221, Control_c, 13, 11, 55
13, 14227, Control_c, 13, 11, 52
13, 14233, Control_c, 13, 11, 49
13, 14235, Note_on_c, 13, 53, 0
13, 14407, Control_c, 13, 11, 77
13, 14426, Control_c, 13, 11, 78
13, 14445, Control_c, 13, 11, 79
13, 14464, Control_c, 13, 11, 80
13, 14483, Control_c, 13, 11, 81
13, 14502, Control_c, 13, 11, 82
13, 14521, Control_c, 13, 11, 83
13, 14541, Control_c, 13, 11, 84
13, 14560, Control_c, 13, 11, 85
13, 14579, Control_c, 13, 11, 86
13, 14598, Control_c, 13, 11, 87
13, 14617, Control_c, 13, 11, 88
13, 14636, Control_c, 13, 11, 89
13, 14647, Note_on_c, 13, 53, 98
13, 14656, Control_c, 13, 11, 90
13, 14675, Control_c, 13, 11, 91
13, 14677, Note_on_c, 13, 53, 0
13, 14694, Control_c, 13, 11, 92
13, 14707, Note_on_c, 13, 50, 98
13, 14713, Control_c, 13, 11, 93
13, 14732, Control_c, 13, 11, 94
13, 14737, Note_on_c, 13, 50, 0
13, 14751, Control_c, 13, 11, 95
13, 14767, Note_on_c, 13, 47, 98
13, 14771, Control_c, 13, 11, 96
13, 14790, Control_c, 13, 11, 97
13, 14797, Note_on_c, 13, 47, 0
13, 14809, Control_c, 13, 11, 98
13, 14827, Note_on_c, 13, 43, 98
13, 14828, Control_c, 13, 11, 99
13, 14847, Control_c, 13, 11, 100
13, 14857, Note_on_c, 13, 43, 0
13, 14866, Control_c, 13, 11, 101
13, 14886, Control_c, 13, 11, 102
13, 14887, Note_on_c, 13, 48, 98
13, 14947, Note_on_c, 13, 48, 0
13, 15127, Note_on_c, 13, 53, 98
13, 15187, Note_on_c, 13, 53, 0
13, 15367, Note_on_c, 13, 55, 98
13, 15427, Note_on_c, 13, 55, 0
13, 15607, Note_on_c, 13, 43, 98
13, 15667, Note_on_c, 13, 43, 0
13, 15847, Note_on_c, 13, 48, 98
13, 15897, Note_on_c, 13, 48, 0
13, 15907, Note_on_c, 13, 48, 98
13, 15957, Note_on_c, 13, 48, 0
13, 15967, Note_on_c, 13, 48, 98
13, 16017, Note_on_c, 13, 48, 0
13, 16027, Note_on_c, 13, 48, 98
13, 16077, Note_on_c, 13, 48, 0
13, 16087, Note_on_c, 13, 48, 98
13, 16137, Note_on_c, 13, 48, 0
13, 16147, Note_on_c, 13, 48, 98
13, 16197, Note_on_c, 13, 48, 0
13, 16207, Note_on_c, 13, 48, 98
13, 16257, Note_on_c, 13, 48, 0
13, 16267, Note_on_c, 13, 48, 98
13, 16317, Note_on_c, 13, 48, 0
13, 16327, Note_on_c, 13, 48, 98
13, 16327, Control_c, 13, 11, 122
13, 16345, Control_c, 13, 11, 119
13, 16363, Control_c, 13, 11, 116
13, 16377, Note_on_c, 13, 48, 0
13, 16381, Control_c, 13, 11, 113
13, 16387, Note_on_c, 13, 48, 98
13, 16399, Control_c, 13, 11, 110
13, 16417, Control_c, 13, 11, 107
13, 16435, Control_c, 13, 11, 104
13, 16437, Note_on_c, 13, 48, 0
13, 16447, Note_on_c, 13, 48, 98
13, 16497, Note_on_c, 13, 48, 0
13, 16507, Note_on_c, 13, 48, 98
13, 16557, Note_on_c, 13, 48, 0
13, 16567, Note_on_c, 13, 48, 98
13, 16617, Note_on_c, 13, 48, 0
13, 16627, Note_on_c, 13, 48, 98
13, 16677, Note_on_c, 13, 48, 0
13, 16687, Note_on_c, 13, 48, 98
13, 16737, Note_on_c, 13, 48, 0
13, 16747, Note_on_c, 13, 48, 98
13, 16797, Note_on_c, 13, 48, 0
13, 16807, Note_on_c, 13, 48, 98
13, 16857, Note_on_c, 13, 48, 0
13, 16867, Note_on_c, 13, 48, 98
13, 16917, Note_on_c, 13, 48, 0
13, 16927, Note_on_c, 13, 48, 98
13, 16977, Note_on_c, 13, 48, 0
13, 16987, Note_on_c, 13, 48, 98
13, 17037, Note_on_c, 13, 48, 0
13, 17047, Note_on_c, 13, 48, 98
13, 17097, Note_on_c, 13, 48, 0
13, 17107, Note_on_c, 13, 48, 98
13, 17157, Note_on_c, 13, 48, 0
13, 17167, Note_on_c, 13, 48, 98
13, 17217, Note_on_c, 13, 48, 0
13, 17227, Note_on_c, 13, 48, 98
13, 17277, Note_on_c, 13, 48, 0
13, 17287, Note_on_c, 13, 48, 98
13, 17337, Note_on_c, 13, 48, 0
13, 17347, Note_on_c, 13, 48, 98
13, 17397, Note_on_c, 13, 48, 0
13, 17407, Note_on_c, 13, 48, 98
13, 17457, Note_on_c, 13, 48, 0
13, 17467, Note_on_c, 13, 48, 98
13, 17517, Note_on_c, 13, 48, 0
13, 17527, Note_on_c, 13, 48, 98
13, 17577, Note_on_c, 13, 48, 0
13, 17587, Note_on_c, 13, 48, 98
13, 17637, Note_on_c, 13, 48, 0
13, 17647, Note_on_c, 13, 48, 98
13, 17697, Note_on_c, 13, 48, 0
13, 17707, Note_on_c, 13, 48, 98
13, 17757, Note_on_c, 13, 48, 0
13, 17767, Note_on_c, 13, 48, 98
13, 17817, Note_on_c, 13, 48, 0
13, 17827, Note_on_c, 13, 48, 98
13, 17877, Note_on_c, 13, 48, 0
13, 17887, Note_on_c, 13, 48, 98
13, 17937, Note_on_c, 13, 48, 0
13, 17947, Note_on_c, 13, 48, 98
13, 17997, Note_on_c, 13, 48, 0
13, 18007, Note_on_c, 13, 48, 98
13, 18057, Note_on_c, 13, 48, 0
13, 18067, Note_on_c, 13, 48, 98
13, 18117, Note_on_c, 13, 48, 0
13, 18127, Note_on_c, 13, 48, 98
13, 18177, Note_on_c, 13, 48, 0
13, 18187, Note_on_c, 13, 48, 98
13, 18237, Note_on_c, 13, 48, 0
13, 18247, Control_c, 13, 11, 122
13, 18247, Note_on_c, 13, 48, 98
13, 18265, Control_c, 13, 11, 119
13, 18283, Control_c, 13, 11, 116
13, 18297, Note_on_c, 13, 48, 0
13, 18301, Control_c, 13, 11, 113
13, 18307, Note_on_c, 13, 48, 98
13, 18319, Control_c, 13, 11, 110
13, 18337, Control_c, 13, 11, 107
13, 18355, Control_c, 13, 11, 104
13, 18357, Note_on_c, 13, 48, 0
13, 18367, Note_on_c, 13, 48, 98
13, 18417, Note_on_c, 13, 48, 0
13, 18427, Note_on_c, 13, 48, 98
13, 18477, Note_on_c, 13, 48, 0
13, 18487, Note_on_c, 13, 48, 98
13, 18537, Note_on_c, 13, 48, 0
13, 18547, Note_on_c, 13, 48, 98
13, 18597, Note_on_c, 13, 48, 0
13, 18607, Note_on_c, 13, 48, 98
13, 18657, Note_on_c, 13, 48, 0
13, 18667, Note_on_c, 13, 48, 98
13, 18717, Note_on_c, 13, 48, 0
13, 18727, Note_on_c, 13, 48, 98
13, 18777, Note_on_c, 13, 48, 0
13, 18787, Note_on_c, 13, 48, 98
13, 18837, Note_on_c, 13, 48, 0
13, 18847, Note_on_c, 13, 48, 98
13, 18897, Note_on_c, 13, 48, 0
13, 18907, Note_on_c, 13, 48, 98
13, 18957, Note_on_c, 13, 48, 0
13, 18967, Note_on_c, 13, 48, 98
13, 19017, Note_on_c, 13, 48, 0
13, 19027, Note_on_c, 13, 48, 98
13, 19077, Note_on_c, 13, 48, 0
13, 19087, Note_on_c, 13, 48, 98
13, 19137, Note_on_c, 13, 48, 0
13, 19147, Note_on_c, 13, 48, 98
13, 19197, Note_on_c, 13, 48, 0
13, 19207, Note_on_c, 13, 48, 98
13, 19257, Note_on_c, 13, 48, 0
13, 19267, Note_on_c, 13, 48, 98
13, 19317, Note_on_c, 13, 48, 0
13, 19327, Note_on_c, 13, 48, 98
13, 19377, Note_on_c, 13, 48, 0
13, 19387, Note_on_c, 13, 48, 98
13, 19437, Note_on_c, 13, 48, 0
13, 19447, Note_on_c, 13, 48, 98
13, 19497, Note_on_c, 13, 48, 0
13, 19507, Note_on_c, 13, 48, 98
13, 19557, Note_on_c, 13, 48, 0
13, 19567, Note_on_c, 13, 48, 98
13, 19617, Note_on_c, 13, 48, 0
13, 19627, Note_on_c, 13, 48, 98
13, 19677, Note_on_c, 13, 48, 0
13, 19687, Note_on_c, 13, 48, 98
13, 19807, Note_on_c, 13, 48, 0
13, 20047, Note_on_c, 13, 45, 98
13, 20047, Control_c, 13, 11, 87
13, 20077, Note_on_c, 13, 45, 0
13, 20107, Note_on_c, 13, 49, 98
13, 20137, Note_on_c, 13, 49, 0
13, 20167, Note_on_c, 13, 50, 98
13, 20167, Control_c, 13, 11, 87
13, 20224, Control_c, 13, 11, 88
13, 20282, Control_c, 13, 11, 89
13, 20287, Note_on_c, 13, 50, 0
13, 20339, Control_c, 13, 11, 90
13, 20397, Control_c, 13, 11, 91
13, 20455, Control_c, 13, 11, 92
13, 20512, Control_c, 13, 11, 93
13, 20527, Note_on_c, 13, 47, 98
13, 20557, Note_on_c, 13, 47, 0
13, 20570, Control_c, 13, 11, 94
13, 20587, Note_on_c, 13, 51, 98
13, 20617, Note_on_c, 13, 51, 0
13, 20627, Control_c, 13, 11, 95
13, 20647, Note_on_c, 13, 52, 98
13, 20677, Note_on_c, 13, 52, 0
13, 20685, Control_c, 13, 11, 96
13, 20707, Note_on_c, 13, 52, 98
13, 20737, Note_on_c, 13, 52, 0
13, 20743, Control_c, 13, 11, 97
13, 20767, Note_on_c, 13, 48, 98
13, 20797, Note_on_c, 13, 48, 0
13, 20800, Control_c, 13, 11, 98
13, 20827, Note_on_c, 13, 52, 98
13, 20857, Note_on_c, 13, 52, 0
13, 20858, Control_c, 13, 11, 99
13, 20887, Note_on_c, 13, 53, 98
13, 20915, Control_c, 13, 11, 100
13, 20917, Note_on_c, 13, 53, 0
13, 20947, Note_on_c, 13, 50, 98
13, 20973, Control_c, 13, 11, 101
13, 20977, Note_on_c, 13, 50, 0
13, 21007, Note_on_c, 13, 55, 98
13, 21031, Control_c, 13, 11, 102
13, 21037, Note_on_c, 13, 55, 0
13, 21067, Note_on_c, 13, 52, 98
13, 21088, Control_c, 13, 11, 103
13, 21097, Note_on_c, 13, 52, 0
13, 21127, Note_on_c, 13, 57, 98
13, 21146, Control_c, 13, 11, 104
13, 21157, Note_on_c, 13, 57, 0
13, 21187, Note_on_c, 13, 53, 98
13, 21203, Control_c, 13, 11, 105
13, 21217, Note_on_c, 13, 53, 0
13, 21247, Note_on_c, 13, 59, 98
13, 21261, Control_c, 13, 11, 106
13, 21277, Note_on_c, 13, 59, 0
13, 21307, Note_on_c, 13, 55, 98
13, 21319, Control_c, 13, 11, 107
13, 21337, Note_on_c, 13, 55, 0
13, 21367, Note_on_c, 13, 60, 98
13, 21376, Control_c, 13, 11, 108
13, 21397, Note_on_c, 13, 60, 0
13, 21427, Note_on_c, 13, 57, 98
13, 21434, Control_c, 13, 11, 109
13, 21457, Note_on_c, 13, 57, 0
13, 21487, Note_on_c, 13, 52, 98
13, 21491, Control_c, 13, 11, 110
13, 21517, Note_on_c, 13, 52, 0
13, 21547, Note_on_c, 13, 54, 98
13, 21549, Control_c, 13, 11, 111
13, 21577, Note_on_c, 13, 54, 0
13, 21607, Note_on_c, 13, 43, 98
13, 21607, Control_c, 13, 11, 112
13, 21625, Control_c, 13, 11, 109
13, 21643, Control_c, 13, 11, 106
13, 21657, Note_on_c, 13, 43, 0
13, 21661, Control_c, 13, 11, 103
13, 21667, Note_on_c, 13, 55, 98
13, 21697, Note_on_c, 13, 55, 0
13, 21727, Note_on_c, 13, 55, 98
13, 21757, Note_on_c, 13, 55, 0
13, 21787, Note_on_c, 13, 55, 98
13, 21817, Note_on_c, 13, 55, 0
13, 21847, Note_on_c, 13, 53, 98
13, 21907, Note_on_c, 13, 53, 0
13, 21907, Note_on_c, 13, 52, 98
13, 21957, Note_on_c, 13, 52, 0
13, 21967, Note_on_c, 13, 50, 98
13, 21997, Note_on_c, 13, 50, 0
13, 22027, Note_on_c, 13, 48, 98
13, 22057, Note_on_c, 13, 48, 0
13, 22087, Note_on_c, 13, 43, 98
13, 22207, Note_on_c, 13, 43, 0
13, 22327, Note_on_c, 13, 55, 98
13, 22447, Note_on_c, 13, 55, 0
13, 22567, Note_on_c, 13, 43, 98
13, 22617, Note_on_c, 13, 43, 0
13, 22627, Note_on_c, 13, 55, 98
13, 22657, Note_on_c, 13, 55, 0
13, 22687, Note_on_c, 13, 55, 98
13, 22717, Note_on_c, 13, 55, 0
13, 22747, Note_on_c, 13, 55, 98
13, 22777, Note_on_c, 13, 55, 0
13, 22807, Note_on_c, 13, 53, 98
13, 22867, Note_on_c, 13, 53, 0
13, 22867, Note_on_c, 13, 52, 98
13, 22917, Note_on_c, 13, 52, 0
13, 22927, Note_on_c, 13, 50, 98
13, 22957, Note_on_c, 13, 50, 0
13, 22987, Note_on_c, 13, 48, 98
13, 23017, Note_on_c, 13, 48, 0
13, 23047, Note_on_c, 13, 43, 98
13, 23167, Note_on_c, 13, 43, 0
13, 23287, Note_on_c, 13, 55, 98
13, 23407, Note_on_c, 13, 55, 0
13, 23527, Note_on_c, 13, 43, 98
13, 23577, Note_on_c, 13, 43, 0
13, 23587, Note_on_c, 13, 55, 98
13, 23617, Note_on_c, 13, 55, 0
13, 23647, Note_on_c, 13, 55, 98
13, 23677, Note_on_c, 13, 55, 0
13, 23707, Note_on_c, 13, 55, 98
13, 23737, Note_on_c, 13, 55, 0
13, 23767, Note_on_c, 13, 53, 98
13, 23827, Note_on_c, 13, 53, 0
13, 23827, Note_on_c, 13, 52, 98
13, 23877, Note_on_c, 13, 52, 0
13, 23887, Note_on_c, 13, 50, 98
13, 23917, Note_on_c, 13, 50, 0
13, 23947, Note_on_c, 13, 48, 98
13, 23977, Note_on_c, 13, 48, 0
13, 24007, Note_on_c, 13, 43, 98
13, 24057, Note_on_c, 13, 43, 0
13, 24067, Note_on_c, 13, 55, 98
13, 24097, Note_on_c, 13, 55, 0
13, 24127, Note_on_c, 13, 55, 98
13, 24157, Note_on_c, 13, 55, 0
13, 24187, Note_on_c, 13, 55, 98
13, 24217, Note_on_c, 13, 55, 0
13, 24247, Note_on_c, 13, 53, 98
13, 24307, Note_on_c, 13, 53, 0
13, 24307, Note_on_c, 13, 52, 98
13, 24357, Note_on_c, 13, 52, 0
13, 24367, Note_on_c, 13, 50, 98
13, 24397, Note_on_c, 13, 50, 0
13, 24427, Note_on_c, 13, 48, 98
13, 24457, Note_on_c, 13, 48, 0
13, 24487, Note_on_c, 13, 43, 98
13, 24607, Note_on_c, 13, 43, 0
13, 24727, Note_on_c, 13, 55, 98
13, 24847, Note_on_c, 13, 55, 0
13, 24967, Note_on_c, 13, 43, 98
13, 25087, Note_on_c, 13, 43, 0
13, 25447, Note_on_c, 13, 55, 80
13, 25447, Control_c, 13, 11, 47
13, 25567, Note_on_c, 13, 55, 0
13, 25927, Note_on_c, 13, 57, 80
13, 26047, Note_on_c, 13, 57, 0
13, 26407, Note_on_c, 13, 50, 80
13, 26527, Note_on_c, 13, 50, 0
13, 26887, Note_on_c, 13, 55, 80
13, 27007, Note_on_c, 13, 55, 0
13, 27367, Note_on_c, 13, 50, 98
13, 27487, Note_on_c, 13, 50, 0
13, 27607, Note_on_c, 13, 54, 98
13, 27607, Control_c, 13, 11, 58
13, 27611, Control_c, 13, 11, 61
13, 27616, Control_c, 13, 11, 64
13, 27621, Control_c, 13, 11, 67
13, 27626, Control_c, 13, 11, 70
13, 27631, Control_c, 13, 11, 73
13, 27642, Control_c, 13, 11, 70
13, 27653, Control_c, 13, 11, 67
13, 27664, Control_c, 13, 11, 64
13, 27675, Control_c, 13, 11, 61
13, 27686, Control_c, 13, 11, 58
13, 27697, Control_c, 13, 11, 55
13, 27708, Control_c, 13, 11, 52
13, 27719, Control_c, 13, 11, 49
13, 27727, Note_on_c, 13, 54, 0
13, 27727, Note_on_c, 13, 55, 98
13, 27837, Note_on_c, 13, 55, 0
13, 27847, Note_on_c, 13, 50, 98
13, 27967, Note_on_c, 13, 50, 0
13, 28087, Note_on_c, 13, 54, 98
13, 28087, Control_c, 13, 11, 58
13, 28091, Control_c, 13, 11, 61
13, 28096, Control_c, 13, 11, 64
13, 28101, Control_c, 13, 11, 67
13, 28106, Control_c, 13, 11, 70
13, 28111, Control_c, 13, 11, 73
13, 28122, Control_c, 13, 11, 70
13, 28133, Control_c, 13, 11, 67
13, 28144, Control_c, 13, 11, 64
13, 28155, Control_c, 13, 11, 61
13, 28166, Control_c, 13, 11, 58
13, 28177, Control_c, 13, 11, 55
13, 28188, Control_c, 13, 11, 52
13, 28199, Control_c, 13, 11, 49
13, 28207, Note_on_c, 13, 54, 0
13, 28207, Note_on_c, 13, 55, 98
13, 28317, Note_on_c, 13, 55, 0
13, 28327, Note_on_c, 13, 57, 98
13, 28447, Note_on_c, 13, 57, 0
13, 28567, Note_on_c, 13, 45, 98
13, 28687, Note_on_c, 13, 45, 0
13, 28807, Note_on_c, 13, 50, 98
13, 28927, Note_on_c, 13, 50, 0
13, 28927, Note_on_c, 13, 60, 98
13, 28927, Control_c, 13, 11, 63
13, 28931, Control_c, 13, 11, 66
13, 28936, Control_c, 13, 11, 69
13, 28941, Control_c, 13, 11, 72
13, 28959, Control_c, 13, 11, 69
13, 28971, Control_c, 13, 11, 66
13, 28983, Control_c, 13, 11, 63
13, 28995, Control_c, 13, 11, 60
13, 29007, Control_c, 13, 11, 57
13, 29019, Control_c, 13, 11, 54
13, 29031, Control_c, 13, 11, 51
13, 29043, Control_c, 13, 11, 48
13, 29167, Note_on_c, 13, 60, 0
13, 29167, Note_on_c, 13, 57, 98
13, 29277, Note_on_c, 13, 57, 0
13, 29287, Note_on_c, 13, 55, 98
13, 29407, Note_on_c, 13, 55, 0
13, 29767, Note_on_c, 13, 57, 98
13, 29887, Note_on_c, 13, 57, 0
13, 30247, Note_on_c, 13, 50, 98
13, 30367, Note_on_c, 13, 50, 0
13, 30727, Note_on_c, 13, 55, 98
13, 30847, Note_on_c, 13, 55, 0
13, 31207, Note_on_c, 13, 60, 98
13, 31267, Note_on_c, 13, 60, 0
13, 31327, Note_on_c, 13, 60, 98
13, 31387, Note_on_c, 13, 60, 0
13, 31567, Control_c, 13, 11, 58
13, 31567, Note_on_c, 13, 59, 98
13, 31572, Control_c, 13, 11, 61
13, 31578, Control_c, 13, 11, 64
13, 31583, Control_c, 13, 11, 67
13, 31589, Control_c, 13, 11, 70
13, 31595, Control_c, 13, 11, 73
13, 31605, Control_c, 13, 11, 70
13, 31616, Control_c, 13, 11, 67
13, 31626, Control_c, 13, 11, 64
13, 31637, Control_c, 13, 11, 61
13, 31648, Control_c, 13, 11, 58
13, 31658, Control_c, 13, 11, 55
13, 31669, Control_c, 13, 11, 52
13, 31679, Control_c, 13, 11, 49
13, 31687, Note_on_c, 13, 59, 0
13, 31687, Note_on_c, 13, 60, 98
13, 31747, Note_on_c, 13, 60, 0
13, 31807, Note_on_c, 13, 60, 98
13, 31867, Note_on_c, 13, 60, 0
13, 32047, Control_c, 13, 11, 58
13, 32047, Note_on_c, 13, 59, 98
13, 32052, Control_c, 13, 11, 61
13, 32058, Control_c, 13, 11, 64
13, 32063, Control_c, 13, 11, 67
13, 32069, Control_c, 13, 11, 70
13, 32075, Control_c, 13, 11, 73
13, 32085, Control_c, 13, 11, 70
13, 32096, Control_c, 13, 11, 67
13, 32106, Control_c, 13, 11, 64
13, 32117, Control_c, 13, 11, 61
13, 32128, Control_c, 13, 11, 58
13, 32138, Control_c, 13, 11, 55
13, 32149, Control_c, 13, 11, 52
13, 32159, Control_c, 13, 11, 49
13, 32167, Note_on_c, 13, 59, 0
13, 32167, Note_on_c, 13, 60, 98
13, 32277, Note_on_c, 13, 60, 0
13, 32287, Note_on_c, 13, 57, 98
13, 32407, Note_on_c, 13, 57, 0
13, 32407, Note_on_c, 13, 59, 98
13, 32527, Note_on_c, 13, 59, 0
13, 32527, Note_on_c, 13, 60, 98
13, 32637, Note_on_c, 13, 60, 0
13, 32647, Note_on_c, 13, 62, 98
13, 32887, Note_on_c, 13, 62, 0
13, 32887, Note_on_c, 13, 60, 98
13, 33102, Note_on_c, 13, 60, 0
13, 33122, Control_c, 13, 11, 47
13, 33123, Control_c, 13, 11, 55
13, 33124, Control_c, 13, 11, 63
13, 33125, Control_c, 13, 11, 71
13, 33126, Control_c, 13, 11, 79
13, 33127, Note_on_c, 13, 59, 108
13, 33127, Control_c, 13, 11, 87
13, 33147, Note_on_c, 13, 59, 0
13, 33157, Note_on_c, 13, 59, 108
13, 33177, Note_on_c, 13, 59, 0
13, 33187, Note_on_c, 13, 59, 108
13, 33207, Note_on_c, 13, 59, 0
13, 33217, Note_on_c, 13, 59, 108
13, 33237, Note_on_c, 13, 59, 0
13, 33247, Note_on_c, 13, 59, 108
13, 33307, Note_on_c, 13, 59, 0
13, 33367, Note_on_c, 13, 57, 108
13, 33387, Note_on_c, 13, 57, 0
13, 33397, Note_on_c, 13, 57, 108
13, 33417, Note_on_c, 13, 57, 0
13, 33427, Note_on_c, 13, 57, 108
13, 33447, Note_on_c, 13, 57, 0
13, 33457, Note_on_c, 13, 57, 108
13, 33477, Note_on_c, 13, 57, 0
13, 33487, Note_on_c, 13, 57, 108
13, 33547, Note_on_c, 13, 57, 0
13, 33607, Note_on_c, 13, 55, 108
13, 33627, Note_on_c, 13, 55, 0
13, 33637, Note_on_c, 13, 55, 108
13, 33657, Note_on_c, 13, 55, 0
13, 33667, Note_on_c, 13, 55, 108
13, 33687, Note_on_c, 13, 55, 0
13, 33697, Note_on_c, 13, 55, 108
13, 33717, Note_on_c, 13, 55, 0
13, 33727, Note_on_c, 13, 55, 108
13, 33787, Note_on_c, 13, 55, 0
13, 33847, Note_on_c, 13, 60, 108
13, 33897, Note_on_c, 13, 60, 0
13, 33907, Note_on_c, 13, 60, 108
13, 33957, Note_on_c, 13, 60, 0
13, 33967, Note_on_c, 13, 60, 108
13, 34017, Note_on_c, 13, 60, 0
13, 34027, Note_on_c, 13, 60, 108
13, 34077, Note_on_c, 13, 60, 0
13, 34087, Note_on_c, 13, 59, 108
13, 34107, Note_on_c, 13, 59, 0
13, 34117, Note_on_c, 13, 59, 108
13, 34137, Note_on_c, 13, 59, 0
13, 34147, Note_on_c, 13, 59, 108
13, 34167, Note_on_c, 13, 59, 0
13, 34177, Note_on_c, 13, 59, 108
13, 34197, Note_on_c, 13, 59, 0
13, 34207, Note_on_c, 13, 59, 108
13, 34267, Note_on_c, 13, 59, 0
13, 34327, Note_on_c, 13, 57, 108
13, 34347, Note_on_c, 13, 57, 0
13, 34357, Note_on_c, 13, 57, 108
13, 34377, Note_on_c, 13, 57, 0
13, 34387, Note_on_c, 13, 57, 108
13, 34407, Note_on_c, 13, 57, 0
13, 34417, Note_on_c, 13, 57, 108
13, 34437, Note_on_c, 13, 57, 0
13, 34447, Note_on_c, 13, 57, 108
13, 34507, Note_on_c, 13, 57, 0
13, 34567, Note_on_c, 13, 55, 108
13, 34587, Note_on_c, 13, 55, 0
13, 34597, Note_on_c, 13, 55, 108
13, 34617, Note_on_c, 13, 55, 0
13, 34627, Note_on_c, 13, 55, 108
13, 34647, Note_on_c, 13, 55, 0
13, 34657, Note_on_c, 13, 55, 108
13, 34677, Note_on_c, 13, 55, 0
13, 34687, Note_on_c, 13, 55, 108
13, 34747, Note_on_c, 13, 55, 0
13, 34807, Note_on_c, 13, 60, 108
13, 34857, Note_on_c, 13, 60, 0
13, 34867, Note_on_c, 13, 60, 108
13, 34917, Note_on_c, 13, 60, 0
13, 34927, Note_on_c, 13, 60, 108
13, 34977, Note_on_c, 13, 60, 0
13, 34987, Note_on_c, 13, 60, 108
13, 35037, Note_on_c, 13, 60, 0
13, 35047, Note_on_c, 13, 59, 108
13, 35047, Control_c, 13, 11, 107
13, 35065, Control_c, 13, 11, 104
13, 35083, Control_c, 13, 11, 101
13, 35101, Control_c, 13, 11, 98
13, 35119, Control_c, 13, 11, 95
13, 35137, Control_c, 13, 11, 92
13, 35155, Control_c, 13, 11, 89
13, 35217, Note_on_c, 13, 59, 0
13, 35227, Note_on_c, 13, 57, 108
13, 35277, Note_on_c, 13, 57, 0
13, 35287, Note_on_c, 13, 55, 108
13, 35337, Note_on_c, 13, 55, 0
13, 35347, Note_on_c, 13, 57, 108
13, 35397, Note_on_c, 13, 57, 0
13, 35407, Note_on_c, 13, 58, 108
13, 35457, Note_on_c, 13, 58, 0
13, 35467, Note_on_c, 13, 59, 108
13, 35517, Note_on_c, 13, 59, 0
13, 35527, Control_c, 13, 11, 107
13, 35527, Note_on_c, 13, 60, 108
13, 35545, Control_c, 13, 11, 104
13, 35563, Control_c, 13, 11, 101
13, 35581, Control_c, 13, 11, 98
13, 35599, Control_c, 13, 11, 95
13, 35617, Control_c, 13, 11, 92
13, 35635, Control_c, 13, 11, 89
13, 35697, Note_on_c, 13, 60, 0
13, 35707, Note_on_c, 13, 59, 108
13, 35757, Note_on_c, 13, 59, 0
13, 35767, Note_on_c, 13, 64, 108
13, 35817, Note_on_c, 13, 64, 0
13, 35827, Note_on_c, 13, 62, 108
13, 35877, Note_on_c, 13, 62, 0
13, 35887, Note_on_c, 13, 60, 108
13, 35937, Note_on_c, 13, 60, 0
13, 35947, Note_on_c, 13, 61, 108
13, 35997, Note_on_c, 13, 61, 0
13, 36007, Note_on_c, 13, 62, 108
13, 36007, Control_c, 13, 11, 87
13, 36037, Note_on_c, 13, 62, 0
13, 36039, Control_c, 13, 11, 88
13, 36067, Note_on_c, 13, 59, 108
13, 36071, Control_c, 13, 11, 89
13, 36097, Note_on_c, 13, 59, 0
13, 36103, Control_c, 13, 11, 90
13, 36127, Note_on_c, 13, 57, 108
13, 36135, Control_c, 13, 11, 91
13, 36157, Note_on_c, 13, 57, 0
13, 36167, Control_c, 13, 11, 92
13, 36187, Note_on_c, 13, 55, 108
13, 36199, Control_c, 13, 11, 93
13, 36217, Note_on_c, 13, 55, 0
13, 36231, Control_c, 13, 11, 94
13, 36247, Note_on_c, 13, 54, 108
13, 36263, Control_c, 13, 11, 95
13, 36277, Note_on_c, 13, 54, 0
13, 36295, Control_c, 13, 11, 96
13, 36307, Note_on_c, 13, 52, 108
13, 36327, Control_c, 13, 11, 97
13, 36337, Note_on_c, 13, 52, 0
13, 36359, Control_c, 13, 11, 98
13, 36367, Note_on_c, 13, 50, 108
13, 36391, Control_c, 13, 11, 99
13, 36397, Note_on_c, 13, 50, 0
13, 36423, Control_c, 13, 11, 100
13, 36427, Note_on_c, 13, 48, 108
13, 36455, Control_c, 13, 11, 101
13, 36457, Note_on_c, 13, 48, 0
13, 36487, Note_on_c, 13, 47, 108
13, 36487, Control_c, 13, 11, 102
13, 36547, Note_on_c, 13, 47, 0
13, 36607, Note_on_c, 13, 48, 108
13, 36667, Note_on_c, 13, 48, 0
13, 36727, Note_on_c, 13, 50, 108
13, 36787, Note_on_c, 13, 50, 0
13, 36847, Note_on_c, 13, 50, 108
13, 36907, Note_on_c, 13, 50, 0
13, 36967, Note_on_c, 13, 55, 108
13, 36967, Control_c, 13, 11, 37
13, 37267, Note_on_c, 13, 55, 0
13, 37267, Note_on_c, 13, 53, 108
13, 37327, Note_on_c, 13, 53, 0
13, 37327, Note_on_c, 13, 51, 108
13, 37387, Note_on_c, 13, 51, 0
13, 37387, Note_on_c, 13, 50, 108
13, 37437, Note_on_c, 13, 50, 0
13, 37447, Note_on_c, 13, 48, 108
13, 37737, Note_on_c, 13, 48, 0
13, 37747, Note_on_c, 13, 46, 108
13, 37807, Note_on_c, 13, 46, 0
13, 37807, Note_on_c, 13, 45, 108
13, 37867, Note_on_c, 13, 45, 0
13, 37867, Note_on_c, 13, 43, 108
13, 37917, Note_on_c, 13, 43, 0
13, 37927, Note_on_c, 13, 41, 108
13, 38217, Note_on_c, 13, 41, 0
13, 38227, Note_on_c, 13, 43, 108
13, 38287, Note_on_c, 13, 43, 0
13, 38287, Note_on_c, 13, 44, 108
13, 38347, Note_on_c, 13, 44, 0
13, 38347, Note_on_c, 13, 45, 108
13, 38397, Note_on_c, 13, 45, 0
13, 38407, Note_on_c, 13, 46, 108
13, 38697, Note_on_c, 13, 46, 0
13, 38707, Note_on_c, 13, 48, 108
13, 38767, Note_on_c, 13, 48, 0
13, 38767, Note_on_c, 13, 49, 108
13, 38827, Note_on_c, 13, 49, 0
13, 38827, Note_on_c, 13, 50, 108
13, 38877, Note_on_c, 13, 50, 0
13, 38887, Note_on_c, 13, 51, 108
13, 38947, Note_on_c, 13, 51, 0
13, 38947, Note_on_c, 13, 50, 108
13, 38997, Note_on_c, 13, 50, 0
13, 39007, Note_on_c, 13, 51, 108
13, 39037, Note_on_c, 13, 51, 0
13, 39067, Note_on_c, 13, 52, 108
13, 39097, Note_on_c, 13, 52, 0
13, 39127, Note_on_c, 13, 53, 108
13, 39187, Note_on_c, 13, 53, 0
13, 39187, Note_on_c, 13, 52, 108
13, 39237, Note_on_c, 13, 52, 0
13, 39247, Note_on_c, 13, 53, 108
13, 39277, Note_on_c, 13, 53, 0
13, 39307, Note_on_c, 13, 53, 108
13, 39337, Note_on_c, 13, 53, 0
13, 39367, Note_on_c, 13, 54, 108
13, 39657, Note_on_c, 13, 54, 0
13, 39667, Note_on_c, 13, 50, 108
13, 39727, Note_on_c, 13, 50, 0
13, 39727, Note_on_c, 13, 52, 108
13, 39787, Note_on_c, 13, 52, 0
13, 39787, Note_on_c, 13, 54, 108
13, 39837, Note_on_c, 13, 54, 0
13, 39847, Note_on_c, 13, 55, 108
13, 40137, Note_on_c, 13, 55, 0
13, 40147, Note_on_c, 13, 55, 108
13, 40207, Note_on_c, 13, 55, 0
13, 40207, Note_on_c, 13, 57, 108
13, 40267, Note_on_c, 13, 57, 0
13, 40267, Note_on_c, 13, 58, 108
13, 40317, Note_on_c, 13, 58, 0
13, 40327, Note_on_c, 13, 60, 108
13, 40387, Note_on_c, 13, 60, 0
13, 40387, Note_on_c, 13, 59, 108
13, 40437, Note_on_c, 13, 59, 0
13, 40447, Note_on_c, 13, 60, 108
13, 40477, Note_on_c, 13, 60, 0
13, 40507, Note_on_c, 13, 60, 108
13, 40537, Note_on_c, 13, 60, 0
13, 40567, Note_on_c, 13, 61, 108
13, 40627, Note_on_c, 13, 61, 0
13, 40627, Note_on_c, 13, 60, 108
13, 40677, Note_on_c, 13, 60, 0
13, 40687, Note_on_c, 13, 61, 108
13, 40717, Note_on_c, 13, 61, 0
13, 40747, Note_on_c, 13, 61, 108
13, 40777, Note_on_c, 13, 61, 0
13, 40807, Note_on_c, 13, 62, 108
13, 40927, Control_c, 13, 11, 37
13, 40959, Control_c, 13, 11, 38
13, 40992, Control_c, 13, 11, 39
13, 41025, Control_c, 13, 11, 40
13, 41058, Control_c, 13, 11, 41
13, 41091, Control_c, 13, 11, 42
13, 41097, Note_on_c, 13, 62, 0
13, 41107, Note_on_c, 13, 61, 108
13, 41124, Control_c, 13, 11, 43
13, 41157, Control_c, 13, 11, 44
13, 41167, Note_on_c, 13, 61, 0
13, 41167, Note_on_c, 13, 62, 108
13, 41190, Control_c, 13, 11, 45
13, 41223, Control_c, 13, 11, 46
13, 41227, Note_on_c, 13, 62, 0
13, 41227, Note_on_c, 13, 63, 108
13, 41256, Control_c, 13, 11, 47
13, 41277, Note_on_c, 13, 63, 0
13, 41287, Note_on_c, 13, 64, 108
13, 41289, Control_c, 13, 11, 48
13, 41322, Control_c, 13, 11, 49
13, 41355, Control_c, 13, 11, 50
13, 41388, Control_c, 13, 11, 51
13, 41421, Control_c, 13, 11, 52
13, 41454, Control_c, 13, 11, 53
13, 41487, Control_c, 13, 11, 54
13, 41520, Control_c, 13, 11, 55
13, 41553, Control_c, 13, 11, 56
13, 41586, Control_c, 13, 11, 57
13, 41587, Note_on_c, 13, 64, 0
13, 41587, Note_on_c, 13, 62, 108
13, 41619, Control_c, 13, 11, 58
13, 41647, Note_on_c, 13, 62, 0
13, 41647, Note_on_c, 13, 60, 108
13, 41652, Control_c, 13, 11, 59
13, 41685, Control_c, 13, 11, 60
13, 41707, Note_on_c, 13, 60, 0
13, 41707, Note_on_c, 13, 59, 108
13, 41718, Control_c, 13, 11, 61
13, 41751, Control_c, 13, 11, 62
13, 41757, Note_on_c, 13, 59, 0
13, 41767, Note_on_c, 13, 60, 108
13, 41784, Control_c, 13, 11, 63
13, 41817, Control_c, 13, 11, 64
13, 41827, Note_on_c, 13, 60, 0
13, 41827, Note_on_c, 13, 59, 108
13, 41850, Control_c, 13, 11, 65
13, 41883, Control_c, 13, 11, 66
13, 41887, Note_on_c, 13, 59, 0
13, 41887, Note_on_c, 13, 60, 108
13, 41916, Control_c, 13, 11, 67
13, 41947, Note_on_c, 13, 60, 0
13, 41947, Note_on_c, 13, 61, 108
13, 41949, Control_c, 13, 11, 68
13, 41982, Control_c, 13, 11, 69
13, 41997, Note_on_c, 13, 61, 0
13, 42007, Note_on_c, 13, 62, 108
13, 42015, Control_c, 13, 11, 70
13, 42048, Control_c, 13, 11, 71
13, 42067, Note_on_c, 13, 62, 0
13, 42067, Note_on_c, 13, 60, 108
13, 42081, Control_c, 13, 11, 72
13, 42114, Control_c, 13, 11, 73
13, 42127, Note_on_c, 13, 60, 0
13, 42127, Note_on_c, 13, 62, 108
13, 42147, Control_c, 13, 11, 74
13, 42180, Control_c, 13, 11, 75
13, 42187, Note_on_c, 13, 62, 0
13, 42187, Note_on_c, 13, 50, 108
13, 42213, Control_c, 13, 11, 76
13, 42237, Note_on_c, 13, 50, 0
13, 42246, Control_c, 13, 11, 77
13, 42247, Note_on_c, 13, 55, 108
13, 42247, Control_c, 13, 11, 97
13, 42271, Control_c, 13, 11, 95
13, 42295, Control_c, 13, 11, 93
13, 42319, Control_c, 13, 11, 91
13, 42343, Control_c, 13, 11, 89
13, 42357, Note_on_c, 13, 55, 0
13, 42367, Note_on_c, 13, 50, 108
13, 42367, Control_c, 13, 11, 87
13, 42457, Note_on_c, 13, 50, 0
13, 42457, Note_on_c, 13, 54, 108
13, 42477, Note_on_c, 13, 54, 0
13, 42487, Note_on_c, 13, 55, 108
13, 42487, Control_c, 13, 11, 107
13, 42505, Control_c, 13, 11, 104
13, 42523, Control_c, 13, 11, 101
13, 42541, Control_c, 13, 11, 98
13, 42559, Control_c, 13, 11, 95
13, 42577, Control_c, 13, 11, 92
13, 42595, Control_c, 13, 11, 89
13, 42837, Note_on_c, 13, 55, 0
13, 42847, Note_on_c, 13, 50, 108
13, 42937, Note_on_c, 13, 50, 0
13, 42937, Note_on_c, 13, 54, 108
13, 42957, Note_on_c, 13, 54, 0
13, 42967, Note_on_c, 13, 55, 108
13, 42967, Control_c, 13, 11, 107
13, 42985, Control_c, 13, 11, 104
13, 43003, Control_c, 13, 11, 101
13, 43021, Control_c, 13, 11, 98
13, 43039, Control_c, 13, 11, 95
13, 43057, Control_c, 13, 11, 92
13, 43075, Control_c, 13, 11, 89
13, 43327, Note_on_c, 13, 55, 0
13, 43447, Control_c, 13, 11, 107
13, 43447, Note_on_c, 13, 50, 108
13, 43465, Control_c, 13, 11, 104
13, 43483, Control_c, 13, 11, 101
13, 43501, Control_c, 13, 11, 98
13, 43519, Control_c, 13, 11, 95
13, 43537, Control_c, 13, 11, 92
13, 43555, Control_c, 13, 11, 89
13, 43567, Note_on_c, 13, 50, 0
13, 43687, Note_on_c, 13, 55, 108
13, 43687, Control_c, 13, 11, 107
13, 43704, Control_c, 13, 11, 104
13, 43722, Control_c, 13, 11, 101
13, 43740, Control_c, 13, 11, 98
13, 43758, Control_c, 13, 11, 95
13, 43776, Control_c, 13, 11, 92
13, 43794, Control_c, 13, 11, 89
13, 43807, Note_on_c, 13, 55, 0
13, 43927, Note_on_c, 13, 57, 108
13, 43927, Control_c, 13, 11, 107
13, 43944, Control_c, 13, 11, 104
13, 43962, Control_c, 13, 11, 101
13, 43980, Control_c, 13, 11, 98
13, 43998, Control_c, 13, 11, 95
13, 44016, Control_c, 13, 11, 92
13, 44034, Control_c, 13, 11, 89
13, 44047, Note_on_c, 13, 57, 0
13, 44167, Note_on_c, 13, 47, 108
13, 44227, Note_on_c, 13, 47, 0
13, 44287, Note_on_c, 13, 50, 108
13, 44347, Note_on_c, 13, 50, 0
13, 44407, Note_on_c, 13, 55, 108
13, 44467, Note_on_c, 13, 55, 0
13, 44527, Note_on_c, 13, 59, 108
13, 44587, Note_on_c, 13, 59, 0
13, 44647, Note_on_c, 13, 45, 108
13, 44707, Note_on_c, 13, 45, 0
13, 44767, Note_on_c, 13, 48, 108
13, 44827, Note_on_c, 13, 48, 0
13, 44887, Note_on_c, 13, 54, 108
13, 44947, Note_on_c, 13, 54, 0
13, 45007, Note_on_c, 13, 57, 108
13, 45067, Note_on_c, 13, 57, 0
13, 45127, Note_on_c, 13, 44, 108
13, 45127, Control_c, 13, 11, 102
13, 45187, Note_on_c, 13, 44, 0
13, 45247, Note_on_c, 13, 47, 108
13, 45307, Note_on_c, 13, 47, 0
13, 45367, Note_on_c, 13, 52, 108
13, 45427, Note_on_c, 13, 52, 0
13, 45487, Note_on_c, 13, 56, 108
13, 45547, Note_on_c, 13, 56, 0
13, 45607, Note_on_c, 13, 50, 108
13, 45667, Note_on_c, 13, 50, 0
13, 45727, Note_on_c, 13, 62, 108
13, 45787, Note_on_c, 13, 62, 0
13, 45847, Note_on_c, 13, 62, 108
13, 45907, Note_on_c, 13, 62, 0
13, 45967, Note_on_c, 13, 62, 108
13, 46027, Note_on_c, 13, 62, 0
13, 46087, Note_on_c, 13, 48, 108
13, 46147, Note_on_c, 13, 48, 0
13, 46207, Note_on_c, 13, 60, 108
13, 46267, Note_on_c, 13, 60, 0
13, 46327, Note_on_c, 13, 60, 108
13, 46387, Note_on_c, 13, 60, 0
13, 46447, Note_on_c, 13, 60, 108
13, 46507, Note_on_c, 13, 60, 0
13, 46567, Note_on_c, 13, 49, 108
13, 46627, Note_on_c, 13, 49, 0
13, 46687, Note_on_c, 13, 55, 108
13, 46747, Note_on_c, 13, 55, 0
13, 46807, Note_on_c, 13, 52, 108
13, 46867, Note_on_c, 13, 52, 0
13, 46927, Note_on_c, 13, 49, 108
13, 46987, Note_on_c, 13, 49, 0
13, 47047, Note_on_c, 13, 50, 108
13, 47047, Control_c, 13, 11, 122
13, 47064, Control_c, 13, 11, 119
13, 47082, Control_c, 13, 11, 116
13, 47097, Note_on_c, 13, 50, 0
13, 47100, Control_c, 13, 11, 113
13, 47107, Note_on_c, 13, 50, 108
13, 47118, Control_c, 13, 11, 110
13, 47136, Control_c, 13, 11, 107
13, 47154, Control_c, 13, 11, 104
13, 47157, Note_on_c, 13, 50, 0
13, 47167, Note_on_c, 13, 50, 108
13, 47217, Note_on_c, 13, 50, 0
13, 47227, Note_on_c, 13, 50, 108
13, 47277, Note_on_c, 13, 50, 0
13, 47287, Note_on_c, 13, 52, 108
13, 47287, Control_c, 13, 11, 122
13, 47304, Control_c, 13, 11, 119
13, 47322, Control_c, 13, 11, 116
13, 47337, Note_on_c, 13, 52, 0
13, 47340, Control_c, 13, 11, 113
13, 47347, Note_on_c, 13, 52, 108
13, 47358, Control_c, 13, 11, 110
13, 47376, Control_c, 13, 11, 107
13, 47394, Control_c, 13, 11, 104
13, 47397, Note_on_c, 13, 52, 0
13, 47407, Note_on_c, 13, 52, 108
13, 47457, Note_on_c, 13, 52, 0
13, 47467, Note_on_c, 13, 52, 108
13, 47517, Note_on_c, 13, 52, 0
13, 47527, Note_on_c, 13, 48, 108
13, 47527, Control_c, 13, 11, 122
13, 47544, Control_c, 13, 11, 119
13, 47562, Control_c, 13, 11, 116
13, 47577, Note_on_c, 13, 48, 0
13, 47580, Control_c, 13, 11, 113
13, 47587, Note_on_c, 13, 48, 108
13, 47598, Control_c, 13, 11, 110
13, 47616, Control_c, 13, 11, 107
13, 47634, Control_c, 13, 11, 104
13, 47637, Note_on_c, 13, 48, 0
13, 47647, Note_on_c, 13, 48, 108
13, 47697, Note_on_c, 13, 48, 0
13, 47707, Note_on_c, 13, 48, 108
13, 47757, Note_on_c, 13, 48, 0
13, 47767, Note_on_c, 13, 50, 108
13, 47767, Control_c, 13, 11, 122
13, 47784, Control_c, 13, 11, 119
13, 47802, Control_c, 13, 11, 116
13, 47817, Note_on_c, 13, 50, 0
13, 47820, Control_c, 13, 11, 113
13, 47827, Note_on_c, 13, 50, 108
13, 47838, Control_c, 13, 11, 110
13, 47856, Control_c, 13, 11, 107
13, 47874, Control_c, 13, 11, 104
13, 47877, Note_on_c, 13, 50, 0
13, 47887, Note_on_c, 13, 50, 108
13, 47937, Note_on_c, 13, 50, 0
13, 47947, Note_on_c, 13, 50, 108
13, 47997, Note_on_c, 13, 50, 0
13, 48007, Control_c, 13, 11, 87
13, 48007, Note_on_c, 13, 43, 108
13, 48025, Control_c, 13, 11, 84
13, 48043, Control_c, 13, 11, 81
13, 48061, Control_c, 13, 11, 78
13, 48079, Control_c, 13, 11, 75
13, 48097, Control_c, 13, 11, 72
13, 48115, Control_c, 13, 11, 69
13, 48127, Note_on_c, 13, 43, 0
13, 48847, Control_c, 13, 11, 63
13, 48847, Note_on_c, 13, 50, 108
13, 48853, Control_c, 13, 11, 66
13, 48860, Control_c, 13, 11, 69
13, 48868, Control_c, 13, 11, 72
13, 48883, Control_c, 13, 11, 71
13, 48901, Control_c, 13, 11, 68
13, 48919, Control_c, 13, 11, 65
13, 48937, Control_c, 13, 11, 62
13, 48955, Control_c, 13, 11, 59
13, 48967, Note_on_c, 13, 50, 0
13, 48967, Note_on_c, 13, 55, 108
13, 48967, Control_c, 13, 11, 47
13, 48973, Control_c, 13, 11, 56
13, 48991, Control_c, 13, 11, 53
13, 49009, Control_c, 13, 11, 50
13, 49087, Note_on_c, 13, 55, 0
13, 49807, Note_on_c, 13, 50, 108
13, 49807, Control_c, 13, 11, 63
13, 49813, Control_c, 13, 11, 66
13, 49820, Control_c, 13, 11, 69
13, 49828, Control_c, 13, 11, 72
13, 49843, Control_c, 13, 11, 71
13, 49861, Control_c, 13, 11, 68
13, 49879, Control_c, 13, 11, 65
13, 49897, Control_c, 13, 11, 62
13, 49915, Control_c, 13, 11, 59
13, 49927, Note_on_c, 13, 50, 0
13, 49927, Control_c, 13, 11, 47
13, 49927, Control_c, 13, 11, 57
13, 49927, Note_on_c, 13, 55, 108
13, 49945, Control_c, 13, 11, 54
13, 49963, Control_c, 13, 11, 51
13, 49981, Control_c, 13, 11, 48
13, 50047, Note_on_c, 13, 55, 0
13, 50287, Note_on_c, 13, 50, 108
13, 50287, Control_c, 13, 11, 63
13, 50293, Control_c, 13, 11, 66
13, 50300, Control_c, 13, 11, 69
13, 50308, Control_c, 13, 11, 72
13, 50323, Control_c, 13, 11, 71
13, 50341, Control_c, 13, 11, 68
13, 50359, Control_c, 13, 11, 65
13, 50377, Control_c, 13, 11, 62
13, 50395, Control_c, 13, 11, 59
13, 50407, Note_on_c, 13, 50, 0
13, 50407, Note_on_c, 13, 55, 108
13, 50407, Control_c, 13, 11, 47
13, 50413, Control_c, 13, 11, 56
13, 50431, Control_c, 13, 11, 53
13, 50449, Control_c, 13, 11, 50
13, 50527, Note_on_c, 13, 55, 0
13, 50762, Control_c, 13, 11, 67
13, 50763, Control_c, 13, 11, 74
13, 50764, Control_c, 13, 11, 81
13, 50765, Control_c, 13, 11, 88
13, 50766, Control_c, 13, 11, 95
13, 50767, Control_c, 13, 11, 102
13, 50767, Note_on_c, 13, 50, 108
13, 50827, Note_on_c, 13, 50, 0
13, 50887, Note_on_c, 13, 55, 108
13, 50947, Note_on_c, 13, 55, 0
13, 51847, Note_on_c, 13, 43, 98
13, 51967, Note_on_c, 13, 43, 0
13, 52687, Note_on_c, 13, 43, 98
13, 52687, Control_c, 13, 11, 47
13, 52777, Note_on_c, 13, 43, 0
13, 52777, Note_on_c, 13, 47, 98
13, 52797, Note_on_c, 13, 47, 0
13, 52807, Note_on_c, 13, 48, 88
13, 52927, Note_on_c, 13, 48, 0
13, 53287, Note_on_c, 13, 48, 65
13, 53407, Note_on_c, 13, 48, 0
13, 53767, Note_on_c, 13, 48, 65
13, 53887, Note_on_c, 13, 48, 0
13, 54007, Note_on_c, 13, 48, 65
13, 54127, Note_on_c, 13, 48, 0
13, 54247, Note_on_c, 13, 48, 65
13, 54367, Note_on_c, 13, 48, 0
13, 55567, Note_on_c, 13, 57, 108
13, 55597, Note_on_c, 13, 57, 0
13, 55597, Note_on_c, 13, 55, 108
13, 55627, Note_on_c, 13, 55, 0
13, 55627, Note_on_c, 13, 53, 108
13, 55657, Note_on_c, 13, 53, 0
13, 55657, Note_on_c, 13, 52, 108
13, 55687, Note_on_c, 13, 52, 0
13, 55687, Note_on_c, 13, 50, 108
13, 55807, Note_on_c, 13, 50, 0
13, 56167, Note_on_c, 13, 50, 76
13, 56287, Note_on_c, 13, 50, 0
13, 56647, Note_on_c, 13, 50, 76
13, 56767, Note_on_c, 13, 50, 0
13, 56887, Note_on_c, 13, 50, 76
13, 57007, Note_on_c, 13, 50, 0
13, 57127, Note_on_c, 13, 50, 76
13, 57247, Note_on_c, 13, 50, 0
13, 57607, Control_c, 13, 11, 32
13, 57607, Note_on_c, 13, 50, 108
13, 57618, Control_c, 13, 11, 35
13, 57629, Control_c, 13, 11, 38
13, 57640, Control_c, 13, 11, 41
13, 57652, Control_c, 13, 11, 44
13, 57663, Control_c, 13, 11, 47
13, 57703, Control_c, 13, 11, 50
13, 57735, Control_c, 13, 11, 51
13, 57767, Control_c, 13, 11, 52
13, 57799, Control_c, 13, 11, 53
13, 57831, Control_c, 13, 11, 54
13, 57863, Control_c, 13, 11, 55
13, 57895, Control_c, 13, 11, 56
13, 57927, Control_c, 13, 11, 57
13, 57959, Control_c, 13, 11, 58
13, 57991, Control_c, 13, 11, 59
13, 58023, Control_c, 13, 11, 60
13, 58055, Control_c, 13, 11, 61
13, 58087, Note_on_c, 13, 50, 0
13, 58087, Note_on_c, 13, 50, 108
13, 58087, Control_c, 13, 11, 62
13, 58117, Note_on_c, 13, 50, 0
13, 58117, Note_on_c, 13, 48, 108
13, 58119, Control_c, 13, 11, 63
13, 58147, Note_on_c, 13, 48, 0
13, 58147, Note_on_c, 13, 50, 108
13, 58151, Control_c, 13, 11, 64
13, 58177, Note_on_c, 13, 50, 0
13, 58177, Note_on_c, 13, 48, 108
13, 58183, Control_c, 13, 11, 65
13, 58207, Note_on_c, 13, 48, 0
13, 58207, Note_on_c, 13, 50, 108
13, 58215, Control_c, 13, 11, 66
13, 58237, Note_on_c, 13, 50, 0
13, 58237, Note_on_c, 13, 48, 108
13, 58247, Control_c, 13, 11, 67
13, 58267, Note_on_c, 13, 48, 0
13, 58267, Note_on_c, 13, 50, 108
13, 58279, Control_c, 13, 11, 68
13, 58297, Note_on_c, 13, 50, 0
13, 58297, Note_on_c, 13, 48, 108
13, 58311, Control_c, 13, 11, 69
13, 58327, Note_on_c, 13, 48, 0
13, 58327, Note_on_c, 13, 50, 108
13, 58343, Control_c, 13, 11, 70
13, 58357, Note_on_c, 13, 50, 0
13, 58357, Note_on_c, 13, 48, 108
13, 58375, Control_c, 13, 11, 71
13, 58387, Note_on_c, 13, 48, 0
13, 58387, Note_on_c, 13, 50, 108
13, 58407, Control_c, 13, 11, 72
13, 58417, Note_on_c, 13, 50, 0
13, 58417, Note_on_c, 13, 48, 108
13, 58439, Control_c, 13, 11, 73
13, 58447, Note_on_c, 13, 48, 0
13, 58447, Note_on_c, 13, 50, 108
13, 58471, Control_c, 13, 11, 74
13, 58477, Note_on_c, 13, 50, 0
13, 58477, Note_on_c, 13, 48, 108
13, 58503, Control_c, 13, 11, 75
13, 58507, Note_on_c, 13, 48, 0
13, 58507, Note_on_c, 13, 47, 108
13, 58535, Control_c, 13, 11, 76
13, 58537, Note_on_c, 13, 47, 0
13, 58537, Note_on_c, 13, 48, 108
13, 58567, Note_on_c, 13, 48, 0
13, 58567, Control_c, 13, 11, 84
13, 58567, Note_on_c, 13, 47, 108
13, 58572, Control_c, 13, 11, 87
13, 58577, Control_c, 13, 11, 90
13, 58582, Control_c, 13, 11, 93
13, 58602, Control_c, 13, 11, 91
13, 58620, Control_c, 13, 11, 88
13, 58638, Control_c, 13, 11, 85
13, 58656, Control_c, 13, 11, 82
13, 58674, Control_c, 13, 11, 79
13, 58687, Control_c, 13, 11, 67
13, 58837, Control_c, 13, 11, 67
13, 58843, Control_c, 13, 11, 64
13, 58849, Control_c, 13, 11, 61
13, 58855, Control_c, 13, 11, 58
13, 58861, Control_c, 13, 11, 55
13, 58867, Control_c, 13, 11, 52
13, 58873, Control_c, 13, 11, 49
13, 58875, Note_on_c, 13, 47, 0
13, 59407, Control_c, 13, 11, 67
13, 59407, Note_on_c, 13, 43, 108
13, 59497, Note_on_c, 13, 43, 0
13, 59497, Note_on_c, 13, 47, 108
13, 59527, Note_on_c, 13, 47, 0
13, 59527, Control_c, 13, 11, 97
13, 59527, Note_on_c, 13, 50, 108
13, 59545, Control_c, 13, 11, 94
13, 59563, Control_c, 13, 11, 91
13, 59581, Control_c, 13, 11, 88
13, 59599, Control_c, 13, 11, 85
13, 59617, Control_c, 13, 11, 82
13, 59635, Control_c, 13, 11, 79
13, 59797, Control_c, 13, 11, 67
13, 59803, Control_c, 13, 11, 64
13, 59809, Control_c, 13, 11, 61
13, 59815, Control_c, 13, 11, 58
13, 59821, Control_c, 13, 11, 55
13, 59827, Control_c, 13, 11, 52
13, 59833, Control_c, 13, 11, 49
13, 59835, Note_on_c, 13, 50, 0
13, 60367, Note_on_c, 13, 47, 108
13, 60367, Control_c, 13, 11, 67
13, 60457, Note_on_c, 13, 47, 0
13, 60457, Note_on_c, 13, 50, 108
13, 60487, Note_on_c, 13, 50, 0
13, 60487, Control_c, 13, 11, 97
13, 60487, Note_on_c, 13, 53, 108
13, 60505, Control_c, 13, 11, 94
13, 60523, Control_c, 13, 11, 91
13, 60541, Control_c, 13, 11, 88
13, 60559, Control_c, 13, 11, 85
13, 60577, Control_c, 13, 11, 82
13, 60595, Control_c, 13, 11, 79
13, 60757, Control_c, 13, 11, 67
13, 60763, Control_c, 13, 11, 64
13, 60769, Control_c, 13, 11, 61
13, 60775, Control_c, 13, 11, 58
13, 60781, Control_c, 13, 11, 55
13, 60787, Control_c, 13, 11, 52
13, 60793, Control_c, 13, 11, 49
13, 60795, Note_on_c, 13, 53, 0
13, 60967, Control_c, 13, 11, 77
13, 60986, Control_c, 13, 11, 78
13, 61005, Control_c, 13, 11, 79
13, 61024, Control_c, 13, 11, 80
13, 61043, Control_c, 13, 11, 81
13, 61062, Control_c, 13, 11, 82
13, 61081, Control_c, 13, 11, 83
13, 61101, Control_c, 13, 11, 84
13, 61120, Control_c, 13, 11, 85
13, 61139, Control_c, 13, 11, 86
13, 61158, Control_c, 13, 11, 87
13, 61177, Control_c, 13, 11, 88
13, 61196, Control_c, 13, 11, 89
13, 61207, Note_on_c, 13, 53, 98
13, 61216, Control_c, 13, 11, 90
13, 61235, Control_c, 13, 11, 91
13, 61237, Note_on_c, 13, 53, 0
13, 61254, Control_c, 13, 11, 92
13, 61267, Note_on_c, 13, 50, 98
13, 61273, Control_c, 13, 11, 93
13, 61292, Control_c, 13, 11, 94
13, 61297, Note_on_c, 13, 50, 0
13, 61311, Control_c, 13, 11, 95
13, 61327, Note_on_c, 13, 47, 98
13, 61331, Control_c, 13, 11, 96
13, 61350, Control_c, 13, 11, 97
13, 61357, Note_on_c, 13, 47, 0
13, 61369, Control_c, 13, 11, 98
13, 61387, Note_on_c, 13, 43, 98
13, 61388, Control_c, 13, 11, 99
13, 61407, Control_c, 13, 11, 100
13, 61417, Note_on_c, 13, 43, 0
13, 61426, Control_c, 13, 11, 101
13, 61446, Control_c, 13, 11, 102
13, 61447, Note_on_c, 13, 48, 98
13, 61507, Note_on_c, 13, 48, 0
13, 61687, Note_on_c, 13, 53, 98
13, 61747, Note_on_c, 13, 53, 0
13, 61927, Note_on_c, 13, 55, 98
13, 61987, Note_on_c, 13, 55, 0
13, 62167, Note_on_c, 13, 43, 98
13, 62227, Note_on_c, 13, 43, 0
13, 62407, Note_on_c, 13, 48, 98
13, 62457, Note_on_c, 13, 48, 0
13, 62467, Note_on_c, 13, 48, 98
13, 62517, Note_on_c, 13, 48, 0
13, 62527, Note_on_c, 13, 48, 98
13, 62577, Note_on_c, 13, 48, 0
13, 62587, Note_on_c, 13, 48, 98
13, 62637, Note_on_c, 13, 48, 0
13, 62647, Note_on_c, 13, 48, 98
13, 62697, Note_on_c, 13, 48, 0
13, 62707, Note_on_c, 13, 48, 98
13, 62757, Note_on_c, 13, 48, 0
13, 62767, Note_on_c, 13, 48, 98
13, 62817, Note_on_c, 13, 48, 0
13, 62827, Note_on_c, 13, 48, 98
13, 62877, Note_on_c, 13, 48, 0
13, 62887, Control_c, 13, 11, 122
13, 62887, Note_on_c, 13, 48, 98
13, 62905, Control_c, 13, 11, 119
13, 62923, Control_c, 13, 11, 116
13, 62937, Note_on_c, 13, 48, 0
13, 62941, Control_c, 13, 11, 113
13, 62947, Note_on_c, 13, 48, 98
13, 62959, Control_c, 13, 11, 110
13, 62977, Control_c, 13, 11, 107
13, 62995, Control_c, 13, 11, 104
13, 62997, Note_on_c, 13, 48, 0
13, 63007, Note_on_c, 13, 48, 98
13, 63057, Note_on_c, 13, 48, 0
13, 63067, Note_on_c, 13, 48, 98
13, 63117, Note_on_c, 13, 48, 0
13, 63127, Note_on_c, 13, 48, 98
13, 63177, Note_on_c, 13, 48, 0
13, 63187, Note_on_c, 13, 48, 98
13, 63237, Note_on_c, 13, 48, 0
13, 63247, Note_on_c, 13, 48, 98
13, 63297, Note_on_c, 13, 48, 0
13, 63307, Note_on_c, 13, 48, 98
13, 63357, Note_on_c, 13, 48, 0
13, 63367, Note_on_c, 13, 48, 98
13, 63417, Note_on_c, 13, 48, 0
13, 63427, Note_on_c, 13, 48, 98
13, 63477, Note_on_c, 13, 48, 0
13, 63487, Note_on_c, 13, 48, 98
13, 63537, Note_on_c, 13, 48, 0
13, 63547, Note_on_c, 13, 48, 98
13, 63597, Note_on_c, 13, 48, 0
13, 63607, Note_on_c, 13, 48, 98
13, 63657, Note_on_c, 13, 48, 0
13, 63667, Note_on_c, 13, 48, 98
13, 63717, Note_on_c, 13, 48, 0
13, 63727, Note_on_c, 13, 48, 98
13, 63777, Note_on_c, 13, 48, 0
13, 63787, Note_on_c, 13, 48, 98
13, 63837, Note_on_c, 13, 48, 0
13, 63847, Note_on_c, 13, 48, 98
13, 63897, Note_on_c, 13, 48, 0
13, 63907, Note_on_c, 13, 48, 98
13, 63957, Note_on_c, 13, 48, 0
13, 63967, Note_on_c, 13, 48, 98
13, 64017, Note_on_c, 13, 48, 0
13, 64027, Note_on_c, 13, 48, 98
13, 64077, Note_on_c, 13, 48, 0
13, 64087, Note_on_c, 13, 48, 98
13, 64137, Note_on_c, 13, 48, 0
13, 64147, Note_on_c, 13, 48, 98
13, 64197, Note_on_c, 13, 48, 0
13, 64207, Note_on_c, 13, 48, 98
13, 64257, Note_on_c, 13, 48, 0
13, 64267, Note_on_c, 13, 48, 98
13, 64317, Note_on_c, 13, 48, 0
13, 64327, Note_on_c, 13, 48, 98
13, 64377, Note_on_c, 13, 48, 0
13, 64387, Note_on_c, 13, 48, 98
13, 64437, Note_on_c, 13, 48, 0
13, 64447, Note_on_c, 13, 48, 98
13, 64497, Note_on_c, 13, 48, 0
13, 64507, Note_on_c, 13, 48, 98
13, 64557, Note_on_c, 13, 48, 0
13, 64567, Note_on_c, 13, 48, 98
13, 64617, Note_on_c, 13, 48, 0
13, 64627, Note_on_c, 13, 48, 98
13, 64677, Note_on_c, 13, 48, 0
13, 64687, Note_on_c, 13, 48, 98
13, 64737, Note_on_c, 13, 48, 0
13, 64747, Note_on_c, 13, 48, 98
13, 64797, Note_on_c, 13, 48, 0
13, 64807, Note_on_c, 13, 48, 98
13, 64807, Control_c, 13, 11, 122
13, 64825, Control_c, 13, 11, 119
13, 64843, Control_c, 13, 11, 116
13, 64857, Note_on_c, 13, 48, 0
13, 64861, Control_c, 13, 11, 113
13, 64867, Note_on_c, 13, 48, 98
13, 64879, Control_c, 13, 11, 110
13, 64897, Control_c, 13, 11, 107
13, 64915, Control_c, 13, 11, 104
13, 64917, Note_on_c, 13, 48, 0
13, 64927, Note_on_c, 13, 48, 98
13, 64977, Note_on_c, 13, 48, 0
13, 64987, Note_on_c, 13, 48, 98
13, 65037, Note_on_c, 13, 48, 0
13, 65047, Note_on_c, 13, 48, 98
13, 65097, Note_on_c, 13, 48, 0
13, 65107, Note_on_c, 13, 48, 98
13, 65157, Note_on_c, 13, 48, 0
13, 65167, Note_on_c, 13, 48, 98
13, 65217, Note_on_c, 13, 48, 0
13, 65227, Note_on_c, 13, 48, 98
13, 65277, Note_on_c, 13, 48, 0
13, 65287, Note_on_c, 13, 48, 98
13, 65337, Note_on_c, 13, 48, 0
13, 65347, Note_on_c, 13, 48, 98
13, 65397, Note_on_c, 13, 48, 0
13, 65407, Note_on_c, 13, 48, 98
13, 65457, Note_on_c, 13, 48, 0
13, 65467, Note_on_c, 13, 48, 98
13, 65517, Note_on_c, 13, 48, 0
13, 65527, Note_on_c, 13, 48, 98
13, 65577, Note_on_c, 13, 48, 0
13, 65587, Note_on_c, 13, 48, 98
13, 65637, Note_on_c, 13, 48, 0
13, 65647, Note_on_c, 13, 48, 98
13, 65697, Note_on_c, 13, 48, 0
13, 65707, Note_on_c, 13, 48, 98
13, 65757, Note_on_c, 13, 48, 0
13, 65767, Note_on_c, 13, 48, 98
13, 65817, Note_on_c, 13, 48, 0
13, 65827, Note_on_c, 13, 48, 98
13, 65877, Note_on_c, 13, 48, 0
13, 65887, Note_on_c, 13, 48, 98
13, 65937, Note_on_c, 13, 48, 0
13, 65947, Note_on_c, 13, 48, 98
13, 65997, Note_on_c, 13, 48, 0
13, 66007, Note_on_c, 13, 48, 98
13, 66057, Note_on_c, 13, 48, 0
13, 66067, Note_on_c, 13, 48, 98
13, 66117, Note_on_c, 13, 48, 0
13, 66127, Note_on_c, 13, 48, 98
13, 66177, Note_on_c, 13, 48, 0
13, 66187, Note_on_c, 13, 48, 98
13, 66237, Note_on_c, 13, 48, 0
13, 66247, Note_on_c, 13, 48, 98
13, 66367, Note_on_c, 13, 48, 0
13, 66607, Control_c, 13, 11, 87
13, 66607, Note_on_c, 13, 45, 98
13, 66637, Note_on_c, 13, 45, 0
13, 66667, Note_on_c, 13, 49, 98
13, 66697, Note_on_c, 13, 49, 0
13, 66727, Control_c, 13, 11, 87
13, 66727, Note_on_c, 13, 50, 98
13, 66784, Control_c, 13, 11, 88
13, 66842, Control_c, 13, 11, 89
13, 66847, Note_on_c, 13, 50, 0
13, 66899, Control_c, 13, 11, 90
13, 66957, Control_c, 13, 11, 91
13, 67015, Control_c, 13, 11, 92
13, 67072, Control_c, 13, 11, 93
13, 67087, Note_on_c, 13, 47, 98
13, 67117, Note_on_c, 13, 47, 0
13, 67130, Control_c, 13, 11, 94
13, 67147, Note_on_c, 13, 51, 98
13, 67177, Note_on_c, 13, 51, 0
13, 67187, Control_c, 13, 11, 95
13, 67207, Note_on_c, 13, 52, 98
13, 67237, Note_on_c, 13, 52, 0
13, 67245, Control_c, 13, 11, 96
13, 67267, Note_on_c, 13, 52, 98
13, 67297, Note_on_c, 13, 52, 0
13, 67303, Control_c, 13, 11, 97
13, 67327, Note_on_c, 13, 48, 98
13, 67357, Note_on_c, 13, 48, 0
13, 67360, Control_c, 13, 11, 98
13, 67387, Note_on_c, 13, 52, 98
13, 67417, Note_on_c, 13, 52, 0
13, 67418, Control_c, 13, 11, 99
13, 67447, Note_on_c, 13, 53, 98
13, 67475, Control_c, 13, 11, 100
13, 67477, Note_on_c, 13, 53, 0
13, 67507, Note_on_c, 13, 50, 98
13, 67533, Control_c, 13, 11, 101
13, 67537, Note_on_c, 13, 50, 0
13, 67567, Note_on_c, 13, 55, 98
13, 67591, Control_c, 13, 11, 102
13, 67597, Note_on_c, 13, 55, 0
13, 67627, Note_on_c, 13, 52, 98
13, 67648, Control_c, 13, 11, 103
13, 67657, Note_on_c, 13, 52, 0
13, 67687, Note_on_c, 13, 57, 98
13, 67706, Control_c, 13, 11, 104
13, 67717, Note_on_c, 13, 57, 0
13, 67747, Note_on_c, 13, 53, 98
13, 67763, Control_c, 13, 11, 105
13, 67777, Note_on_c, 13, 53, 0
13, 67807, Note_on_c, 13, 59, 98
13, 67821, Control_c, 13, 11, 106
13, 67837, Note_on_c, 13, 59, 0
13, 67867, Note_on_c, 13, 55, 98
13, 67879, Control_c, 13, 11, 107
13, 67897, Note_on_c, 13, 55, 0
13, 67927, Note_on_c, 13, 60, 98
13, 67936, Control_c, 13, 11, 108
13, 67957, Note_on_c, 13, 60, 0
13, 67987, Note_on_c, 13, 57, 98
13, 67994, Control_c, 13, 11, 109
13, 68017, Note_on_c, 13, 57, 0
13, 68047, Note_on_c, 13, 52, 98
13, 68051, Control_c, 13, 11, 110
13, 68077, Note_on_c, 13, 52, 0
13, 68107, Note_on_c, 13, 54, 98
13, 68109, Control_c, 13, 11, 111
13, 68137, Note_on_c, 13, 54, 0
13, 68167, Note_on_c, 13, 43, 98
13, 68167, Control_c, 13, 11, 112
13, 68185, Control_c, 13, 11, 109
13, 68203, Control_c, 13, 11, 106
13, 68217, Note_on_c, 13, 43, 0
13, 68221, Control_c, 13, 11, 103
13, 68227, Note_on_c, 13, 55, 98
13, 68257, Note_on_c, 13, 55, 0
13, 68287, Note_on_c, 13, 55, 98
13, 68317, Note_on_c, 13, 55, 0
13, 68347, Note_on_c, 13, 55, 98
13, 68377, Note_on_c, 13, 55, 0
13, 68407, Note_on_c, 13, 53, 98
13, 68467, Note_on_c, 13, 53, 0
13, 68467, Note_on_c, 13, 52, 98
13, 68517, Note_on_c, 13, 52, 0
13, 68527, Note_on_c, 13, 50, 98
13, 68557, Note_on_c, 13, 50, 0
13, 68587, Note_on_c, 13, 48, 98
13, 68617, Note_on_c, 13, 48, 0
13, 68647, Note_on_c, 13, 43, 98
13, 68767, Note_on_c, 13, 43, 0
13, 68887, Note_on_c, 13, 55, 98
13, 69007, Note_on_c, 13, 55, 0
13, 69127, Note_on_c, 13, 43, 98
13, 69177, Note_on_c, 13, 43, 0
13, 69187, Note_on_c, 13, 55, 98
13, 69217, Note_on_c, 13, 55, 0
13, 69247, Note_on_c, 13, 55, 98
13, 69277, Note_on_c, 13, 55, 0
13, 69307, Note_on_c, 13, 55, 98
13, 69337, Note_on_c, 13, 55, 0
13, 69367, Note_on_c, 13, 53, 98
13, 69427, Note_on_c, 13, 53, 0
13, 69427, Note_on_c, 13, 52, 98
13, 69477, Note_on_c, 13, 52, 0
13, 69487, Note_on_c, 13, 50, 98
13, 69517, Note_on_c, 13, 50, 0
13, 69547, Note_on_c, 13, 48, 98
13, 69577, Note_on_c, 13, 48, 0
13, 69607, Note_on_c, 13, 43, 98
13, 69727, Note_on_c, 13, 43, 0
13, 69847, Note_on_c, 13, 55, 98
13, 69967, Note_on_c, 13, 55, 0
13, 70087, Note_on_c, 13, 43, 98
13, 70137, Note_on_c, 13, 43, 0
13, 70147, Note_on_c, 13, 55, 98
13, 70177, Note_on_c, 13, 55, 0
13, 70207, Note_on_c, 13, 55, 98
13, 70237, Note_on_c, 13, 55, 0
13, 70267, Note_on_c, 13, 55, 98
13, 70297, Note_on_c, 13, 55, 0
13, 70327, Note_on_c, 13, 53, 98
13, 70387, Note_on_c, 13, 53, 0
13, 70387, Note_on_c, 13, 52, 98
13, 70437, Note_on_c, 13, 52, 0
13, 70447, Note_on_c, 13, 50, 98
13, 70477, Note_on_c, 13, 50, 0
13, 70507, Note_on_c, 13, 48, 98
13, 70537, Note_on_c, 13, 48, 0
13, 70567, Note_on_c, 13, 43, 98
13, 70617, Note_on_c, 13, 43, 0
13, 70627, Note_on_c, 13, 55, 98
13, 70657, Note_on_c, 13, 55, 0
13, 70687, Note_on_c, 13, 55, 98
13, 70717, Note_on_c, 13, 55, 0
13, 70747, Note_on_c, 13, 55, 98
13, 70777, Note_on_c, 13, 55, 0
13, 70807, Note_on_c, 13, 53, 98
13, 70867, Note_on_c, 13, 53, 0
13, 70867, Note_on_c, 13, 52, 98
13, 70917, Note_on_c, 13, 52, 0
13, 70927, Note_on_c, 13, 50, 98
13, 70957, Note_on_c, 13, 50, 0
13, 70987, Note_on_c, 13, 48, 98
13, 71017, Note_on_c, 13, 48, 0
13, 71047, Note_on_c, 13, 43, 98
13, 71167, Note_on_c, 13, 43, 0
13, 71287, Note_on_c, 13, 55, 98
13, 71407, Note_on_c, 13, 55, 0
13, 71527, Note_on_c, 13, 43, 98
13, 71647, Note_on_c, 13, 43, 0
13, 72007, Note_on_c, 13, 55, 80
13, 72007, Control_c, 13, 11, 47
13, 72127, Note_on_c, 13, 55, 0
13, 72487, Note_on_c, 13, 57, 80
13, 72607, Note_on_c, 13, 57, 0
13, 72967, Note_on_c, 13, 50, 80
13, 73087, Note_on_c, 13, 50, 0
13, 73447, Note_on_c, 13, 55, 80
13, 73567, Note_on_c, 13, 55, 0
13, 73927, Note_on_c, 13, 50, 98
13, 74047, Note_on_c, 13, 50, 0
13, 74167, Note_on_c, 13, 54, 98
13, 74167, Control_c, 13, 11, 58
13, 74171, Control_c, 13, 11, 61
13, 74176, Control_c, 13, 11, 64
13, 74181, Control_c, 13, 11, 67
13, 74186, Control_c, 13, 11, 70
13, 74191, Control_c, 13, 11, 73
13, 74202, Control_c, 13, 11, 70
13, 74213, Control_c, 13, 11, 67
13, 74224, Control_c, 13, 11, 64
13, 74235, Control_c, 13, 11, 61
13, 74246, Control_c, 13, 11, 58
13, 74257, Control_c, 13, 11, 55
13, 74268, Control_c, 13, 11, 52
13, 74279, Control_c, 13, 11, 49
13, 74287, Note_on_c, 13, 54, 0
13, 74287, Note_on_c, 13, 55, 98
13, 74397, Note_on_c, 13, 55, 0
13, 74407, Note_on_c, 13, 50, 98
13, 74527, Note_on_c, 13, 50, 0
13, 74647, Note_on_c, 13, 54, 98
13, 74647, Control_c, 13, 11, 58
13, 74651, Control_c, 13, 11, 61
13, 74656, Control_c, 13, 11, 64
13, 74661, Control_c, 13, 11, 67
13, 74666, Control_c, 13, 11, 70
13, 74671, Control_c, 13, 11, 73
13, 74682, Control_c, 13, 11, 70
13, 74693, Control_c, 13, 11, 67
13, 74704, Control_c, 13, 11, 64
13, 74715, Control_c, 13, 11, 61
13, 74726, Control_c, 13, 11, 58
13, 74737, Control_c, 13, 11, 55
13, 74748, Control_c, 13, 11, 52
13, 74759, Control_c, 13, 11, 49
13, 74767, Note_on_c, 13, 54, 0
13, 74767, Note_on_c, 13, 55, 98
13, 74877, Note_on_c, 13, 55, 0
13, 74887, Note_on_c, 13, 57, 98
13, 75007, Note_on_c, 13, 57, 0
13, 75127, Note_on_c, 13, 45, 98
13, 75247, Note_on_c, 13, 45, 0
13, 75367, Note_on_c, 13, 50, 98
13, 75487, Note_on_c, 13, 50, 0
13, 75487, Note_on_c, 13, 60, 98
13, 75487, Control_c, 13, 11, 63
13, 75491, Control_c, 13, 11, 66
13, 75496, Control_c, 13, 11, 69
13, 75501, Control_c, 13, 11, 72
13, 75519, Control_c, 13, 11, 69
13, 75531, Control_c, 13, 11, 66
13, 75543, Control_c, 13, 11, 63
13, 75555, Control_c, 13, 11, 60
13, 75567, Control_c, 13, 11, 57
13, 75579, Control_c, 13, 11, 54
13, 75591, Control_c, 13, 11, 51
13, 75603, Control_c, 13, 11, 48
13, 75727, Note_on_c, 13, 60, 0
13, 75727, Note_on_c, 13, 57, 98
13, 75837, Note_on_c, 13, 57, 0
13, 75847, Note_on_c, 13, 55, 98
13, 75967, Note_on_c, 13, 55, 0
13, 76327, Note_on_c, 13, 57, 98
13, 76447, Note_on_c, 13, 57, 0
13, 76807, Note_on_c, 13, 50, 98
13, 76927, Note_on_c, 13, 50, 0
13, 77287, Note_on_c, 13, 55, 98
13, 77407, Note_on_c, 13, 55, 0
13, 77767, Note_on_c, 13, 60, 98
13, 77827, Note_on_c, 13, 60, 0
13, 77887, Note_on_c, 13, 60, 98
13, 77947, Note_on_c, 13, 60, 0
13, 78127, Note_on_c, 13, 59, 98
13, 78127, Control_c, 13, 11, 58
13, 78132, Control_c, 13, 11, 61
13, 78138, Control_c, 13, 11, 64
13, 78143, Control_c, 13, 11, 67
13, 78149, Control_c, 13, 11, 70
13, 78155, Control_c, 13, 11, 73
13, 78165, Control_c, 13, 11, 70
13, 78176, Control_c, 13, 11, 67
13, 78186, Control_c, 13, 11, 64
13, 78197, Control_c, 13, 11, 61
13, 78208, Control_c, 13, 11, 58
13, 78218, Control_c, 13, 11, 55
13, 78229, Control_c, 13, 11, 52
13, 78239, Control_c, 13, 11, 49
13, 78247, Note_on_c, 13, 59, 0
13, 78247, Note_on_c, 13, 60, 98
13, 78307, Note_on_c, 13, 60, 0
13, 78367, Note_on_c, 13, 60, 98
13, 78427, Note_on_c, 13, 60, 0
13, 78607, Control_c, 13, 11, 58
13, 78607, Note_on_c, 13, 59, 98
13, 78612, Control_c, 13, 11, 61
13, 78618, Control_c, 13, 11, 64
13, 78623, Control_c, 13, 11, 67
13, 78629, Control_c, 13, 11, 70
13, 78635, Control_c, 13, 11, 73
13, 78645, Control_c, 13, 11, 70
13, 78656, Control_c, 13, 11, 67
13, 78666, Control_c, 13, 11, 64
13, 78677, Control_c, 13, 11, 61
13, 78688, Control_c, 13, 11, 58
13, 78698, Control_c, 13, 11, 55
13, 78709, Control_c, 13, 11, 52
13, 78719, Control_c, 13, 11, 49
13, 78727, Note_on_c, 13, 59, 0
13, 78727, Note_on_c, 13, 60, 98
13, 78837, Note_on_c, 13, 60, 0
13, 78847, Note_on_c, 13, 57, 98
13, 78967, Note_on_c, 13, 57, 0
13, 78967, Note_on_c, 13, 59, 98
13, 79087, Note_on_c, 13, 59, 0
13, 79087, Note_on_c, 13, 60, 98
13, 79197, Note_on_c, 13, 60, 0
13, 79207, Note_on_c, 13, 62, 98
13, 79447, Note_on_c, 13, 62, 0
13, 79447, Note_on_c, 13, 60, 98
13, 79662, Note_on_c, 13, 60, 0
13, 79682, Control_c, 13, 11, 47
13, 79683, Control_c, 13, 11, 55
13, 79684, Control_c, 13, 11, 63
13, 79685, Control_c, 13, 11, 71
13, 79686, Control_c, 13, 11, 79
13, 79687, Note_on_c, 13, 59, 108
13, 79687, Control_c, 13, 11, 87
13, 79707, Note_on_c, 13, 59, 0
13, 79717, Note_on_c, 13, 59, 108
13, 79737, Note_on_c, 13, 59, 0
13, 79747, Note_on_c, 13, 59, 108
13, 79767, Note_on_c, 13, 59, 0
13, 79777, Note_on_c, 13, 59, 108
13, 79797, Note_on_c, 13, 59, 0
13, 79807, Note_on_c, 13, 59, 108
13, 79867, Note_on_c, 13, 59, 0
13, 79927, Note_on_c, 13, 57, 108
13, 79947, Note_on_c, 13, 57, 0
13, 79957, Note_on_c, 13, 57, 108
13, 79977, Note_on_c, 13, 57, 0
13, 79987, Note_on_c, 13, 57, 108
13, 80007, Note_on_c, 13, 57, 0
13, 80017, Note_on_c, 13, 57, 108
13, 80037, Note_on_c, 13, 57, 0
13, 80047, Note_on_c, 13, 57, 108
13, 80107, Note_on_c, 13, 57, 0
13, 80167, Note_on_c, 13, 55, 108
13, 80187, Note_on_c, 13, 55, 0
13, 80197, Note_on_c, 13, 55, 108
13, 80217, Note_on_c, 13, 55, 0
13, 80227, Note_on_c, 13, 55, 108
13, 80247, Note_on_c, 13, 55, 0
13, 80257, Note_on_c, 13, 55, 108
13, 80277, Note_on_c, 13, 55, 0
13, 80287, Note_on_c, 13, 55, 108
13, 80347, Note_on_c, 13, 55, 0
13, 80407, Note_on_c, 13, 60, 108
13, 80457, Note_on_c, 13, 60, 0
13, 80467, Note_on_c, 13, 60, 108
13, 80517, Note_on_c, 13, 60, 0
13, 80527, Note_on_c, 13, 60, 108
13, 80577, Note_on_c, 13, 60, 0
13, 80587, Note_on_c, 13, 60, 108
13, 80637, Note_on_c, 13, 60, 0
13, 80647, Note_on_c, 13, 59, 108
13, 80667, Note_on_c, 13, 59, 0
13, 80677, Note_on_c, 13, 59, 108
13, 80697, Note_on_c, 13, 59, 0
13, 80707, Note_on_c, 13, 59, 108
13, 80727, Note_on_c, 13, 59, 0
13, 80737, Note_on_c, 13, 59, 108
13, 80757, Note_on_c, 13, 59, 0
13, 80767, Note_on_c, 13, 59, 108
13, 80827, Note_on_c, 13, 59, 0
13, 80887, Note_on_c, 13, 57, 108
13, 80907, Note_on_c, 13, 57, 0
13, 80917, Note_on_c, 13, 57, 108
13, 80937, Note_on_c, 13, 57, 0
13, 80947, Note_on_c, 13, 57, 108
13, 80967, Note_on_c, 13, 57, 0
13, 80977, Note_on_c, 13, 57, 108
13, 80997, Note_on_c, 13, 57, 0
13, 81007, Note_on_c, 13, 57, 108
13, 81067, Note_on_c, 13, 57, 0
13, 81127, Note_on_c, 13, 55, 108
13, 81147, Note_on_c, 13, 55, 0
13, 81157, Note_on_c, 13, 55, 108
13, 81177, Note_on_c, 13, 55, 0
13, 81187, Note_on_c, 13, 55, 108
13, 81207, Note_on_c, 13, 55, 0
13, 81217, Note_on_c, 13, 55, 108
13, 81237, Note_on_c, 13, 55, 0
13, 81247, Note_on_c, 13, 55, 108
13, 81307, Note_on_c, 13, 55, 0
13, 81367, Note_on_c, 13, 60, 108
13, 81417, Note_on_c, 13, 60, 0
13, 81427, Note_on_c, 13, 60, 108
13, 81477, Note_on_c, 13, 60, 0
13, 81487, Note_on_c, 13, 60, 108
13, 81537, Note_on_c, 13, 60, 0
13, 81547, Note_on_c, 13, 60, 108
13, 81597, Note_on_c, 13, 60, 0
13, 81607, Control_c, 13, 11, 107
13, 81607, Note_on_c, 13, 59, 108
13, 81625, Control_c, 13, 11, 104
13, 81643, Control_c, 13, 11, 101
13, 81661, Control_c, 13, 11, 98
13, 81679, Control_c, 13, 11, 95
13, 81697, Control_c, 13, 11, 92
13, 81715, Control_c, 13, 11, 89
13, 81777, Note_on_c, 13, 59, 0
13, 81787, Note_on_c, 13, 57, 108
13, 81837, Note_on_c, 13, 57, 0
13, 81847, Note_on_c, 13, 55, 108
13, 81897, Note_on_c, 13, 55, 0
13, 81907, Note_on_c, 13, 57, 108
13, 81957, Note_on_c, 13, 57, 0
13, 81967, Note_on_c, 13, 58, 108
13, 82017, Note_on_c, 13, 58, 0
13, 82027, Note_on_c, 13, 59, 108
13, 82077, Note_on_c, 13, 59, 0
13, 82087, Note_on_c, 13, 60, 108
13, 82087, Control_c, 13, 11, 107
13, 82105, Control_c, 13, 11, 104
13, 82123, Control_c, 13, 11, 101
13, 82141, Control_c, 13, 11, 98
13, 82159, Control_c, 13, 11, 95
13, 82177, Control_c, 13, 11, 92
13, 82195, Control_c, 13, 11, 89
13, 82257, Note_on_c, 13, 60, 0
13, 82267, Note_on_c, 13, 59, 108
13, 82317, Note_on_c, 13, 59, 0
13, 82327, Note_on_c, 13, 64, 108
13, 82377, Note_on_c, 13, 64, 0
13, 82387, Note_on_c, 13, 62, 108
13, 82437, Note_on_c, 13, 62, 0
13, 82447, Note_on_c, 13, 60, 108
13, 82497, Note_on_c, 13, 60, 0
13, 82507, Note_on_c, 13, 61, 108
13, 82557, Note_on_c, 13, 61, 0
13, 82567, Note_on_c, 13, 62, 108
13, 82567, Control_c, 13, 11, 87
13, 82597, Note_on_c, 13, 62, 0
13, 82599, Control_c, 13, 11, 88
13, 82627, Note_on_c, 13, 59, 108
13, 82631, Control_c, 13, 11, 89
13, 82657, Note_on_c, 13, 59, 0
13, 82663, Control_c, 13, 11, 90
13, 82687, Note_on_c, 13, 57, 108
13, 82695, Control_c, 13, 11, 91
13, 82717, Note_on_c, 13, 57, 0
13, 82727, Control_c, 13, 11, 92
13, 82747, Note_on_c, 13, 55, 108
13, 82759, Control_c, 13, 11, 93
13, 82777, Note_on_c, 13, 55, 0
13, 82791, Control_c, 13, 11, 94
13, 82807, Note_on_c, 13, 54, 108
13, 82823, Control_c, 13, 11, 95
13, 82837, Note_on_c, 13, 54, 0
13, 82855, Control_c, 13, 11, 96
13, 82867, Note_on_c, 13, 52, 108
13, 82887, Control_c, 13, 11, 97
13, 82897, Note_on_c, 13, 52, 0
13, 82919, Control_c, 13, 11, 98
13, 82927, Note_on_c, 13, 50, 108
13, 82951, Control_c, 13, 11, 99
13, 82957, Note_on_c, 13, 50, 0
13, 82983, Control_c, 13, 11, 100
13, 82987, Note_on_c, 13, 48, 108
13, 83015, Control_c, 13, 11, 101
13, 83017, Note_on_c, 13, 48, 0
13, 83047, Control_c, 13, 11, 102
13, 83047, Note_on_c, 13, 47, 108
13, 83107, Note_on_c, 13, 47, 0
13, 83167, Note_on_c, 13, 48, 108
13, 83227, Note_on_c, 13, 48, 0
13, 83287, Note_on_c, 13, 50, 108
13, 83347, Note_on_c, 13, 50, 0
13, 83407, Note_on_c, 13, 50, 108
13, 83467, Note_on_c, 13, 50, 0
13, 83527, Note_on_c, 13, 55, 108
13, 83527, Control_c, 13, 11, 37
13, 83827, Note_on_c, 13, 55, 0
13, 83827, Note_on_c, 13, 53, 108
13, 83887, Note_on_c, 13, 53, 0
13, 83887, Note_on_c, 13, 51, 108
13, 83947, Note_on_c, 13, 51, 0
13, 83947, Note_on_c, 13, 50, 108
13, 83997, Note_on_c, 13, 50, 0
13, 84007, Note_on_c, 13, 48, 108
13, 84297, Note_on_c, 13, 48, 0
13, 84307, Note_on_c, 13, 46, 108
13, 84367, Note_on_c, 13, 46, 0
13, 84367, Note_on_c, 13, 45, 108
13, 84427, Note_on_c, 13, 45, 0
13, 84427, Note_on_c, 13, 43, 108
13, 84477, Note_on_c, 13, 43, 0
13, 84487, Note_on_c, 13, 41, 108
13, 84777, Note_on_c, 13, 41, 0
13, 84787, Note_on_c, 13, 43, 108
13, 84847, Note_on_c, 13, 43, 0
13, 84847, Note_on_c, 13, 44, 108
13, 84907, Note_on_c, 13, 44, 0
13, 84907, Note_on_c, 13, 45, 108
13, 84957, Note_on_c, 13, 45, 0
13, 84967, Note_on_c, 13, 46, 108
13, 85257, Note_on_c, 13, 46, 0
13, 85267, Note_on_c, 13, 48, 108
13, 85327, Note_on_c, 13, 48, 0
13, 85327, Note_on_c, 13, 49, 108
13, 85387, Note_on_c, 13, 49, 0
13, 85387, Note_on_c, 13, 50, 108
13, 85437, Note_on_c, 13, 50, 0
13, 85447, Note_on_c, 13, 51, 108
13, 85507, Note_on_c, 13, 51, 0
13, 85507, Note_on_c, 13, 50, 108
13, 85557, Note_on_c, 13, 50, 0
13, 85567, Note_on_c, 13, 51, 108
13, 85597, Note_on_c, 13, 51, 0
13, 85627, Note_on_c, 13, 52, 108
13, 85657, Note_on_c, 13, 52, 0
13, 85687, Note_on_c, 13, 53, 108
13, 85747, Note_on_c, 13, 53, 0
13, 85747, Note_on_c, 13, 52, 108
13, 85797, Note_on_c, 13, 52, 0
13, 85807, Note_on_c, 13, 53, 108
13, 85837, Note_on_c, 13, 53, 0
13, 85867, Note_on_c, 13, 53, 108
13, 85897, Note_on_c, 13, 53, 0
13, 85927, Note_on_c, 13, 54, 108
13, 86217, Note_on_c, 13, 54, 0
13, 86227, Note_on_c, 13, 50, 108
13, 86287, Note_on_c, 13, 50, 0
13, 86287, Note_on_c, 13, 52, 108
13, 86347, Note_on_c, 13, 52, 0
13, 86347, Note_on_c, 13, 54, 108
13, 86397, Note_on_c, 13, 54, 0
13, 86407, Note_on_c, 13, 55, 108
13, 86697, Note_on_c, 13, 55, 0
13, 86707, Note_on_c, 13, 55, 108
13, 86767, Note_on_c, 13, 55, 0
13, 86767, Note_on_c, 13, 57, 108
13, 86827, Note_on_c, 13, 57, 0
13, 86827, Note_on_c, 13, 58, 108
13, 86877, Note_on_c, 13, 58, 0
13, 86887, Note_on_c, 13, 60, 108
13, 86947, Note_on_c, 13, 60, 0
13, 86947, Note_on_c, 13, 59, 108
13, 86997, Note_on_c, 13, 59, 0
13, 87007, Note_on_c, 13, 60, 108
13, 87037, Note_on_c, 13, 60, 0
13, 87067, Note_on_c, 13, 60, 108
13, 87097, Note_on_c, 13, 60, 0
13, 87127, Note_on_c, 13, 61, 108
13, 87187, Note_on_c, 13, 61, 0
13, 87187, Note_on_c, 13, 60, 108
13, 87237, Note_on_c, 13, 60, 0
13, 87247, Note_on_c, 13, 61, 108
13, 87277, Note_on_c, 13, 61, 0
13, 87307, Note_on_c, 13, 61, 108
13, 87337, Note_on_c, 13, 61, 0
13, 87367, Note_on_c, 13, 62, 108
13, 87487, Control_c, 13, 11, 37
13, 87519, Control_c, 13, 11, 38
13, 87552, Control_c, 13, 11, 39
13, 87585, Control_c, 13, 11, 40
13, 87618, Control_c, 13, 11, 41
13, 87651, Control_c, 13, 11, 42
13, 87657, Note_on_c, 13, 62, 0
13, 87667, Note_on_c, 13, 61, 108
13, 87684, Control_c, 13, 11, 43
13, 87717, Control_c, 13, 11, 44
13, 87727, Note_on_c, 13, 61, 0
13, 87727, Note_on_c, 13, 62, 108
13, 87750, Control_c, 13, 11, 45
13, 87783, Control_c, 13, 11, 46
13, 87787, Note_on_c, 13, 62, 0
13, 87787, Note_on_c, 13, 63, 108
13, 87816, Control_c, 13, 11, 47
13, 87837, Note_on_c, 13, 63, 0
13, 87847, Note_on_c, 13, 64, 108
13, 87849, Control_c, 13, 11, 48
13, 87882, Control_c, 13, 11, 49
13, 87915, Control_c, 13, 11, 50
13, 87948, Control_c, 13, 11, 51
13, 87981, Control_c, 13, 11, 52
13, 88014, Control_c, 13, 11, 53
13, 88047, Control_c, 13, 11, 54
13, 88080, Control_c, 13, 11, 55
13, 88113, Control_c, 13, 11, 56
13, 88146, Control_c, 13, 11, 57
13, 88147, Note_on_c, 13, 64, 0
13, 88147, Note_on_c, 13, 62, 108
13, 88179, Control_c, 13, 11, 58
13, 88207, Note_on_c, 13, 62, 0
13, 88207, Note_on_c, 13, 60, 108
13, 88212, Control_c, 13, 11, 59
13, 88245, Control_c, 13, 11, 60
13, 88267, Note_on_c, 13, 60, 0
13, 88267, Note_on_c, 13, 59, 108
13, 88278, Control_c, 13, 11, 61
13, 88311, Control_c, 13, 11, 62
13, 88317, Note_on_c, 13, 59, 0
13, 88327, Note_on_c, 13, 60, 108
13, 88344, Control_c, 13, 11, 63
13, 88377, Control_c, 13, 11, 64
13, 88387, Note_on_c, 13, 60, 0
13, 88387, Note_on_c, 13, 59, 108
13, 88410, Control_c, 13, 11, 65
13, 88443, Control_c, 13, 11, 66
13, 88447, Note_on_c, 13, 59, 0
13, 88447, Note_on_c, 13, 60, 108
13, 88476, Control_c, 13, 11, 67
13, 88507, Note_on_c, 13, 60, 0
13, 88507, Note_on_c, 13, 61, 108
13, 88509, Control_c, 13, 11, 68
13, 88542, Control_c, 13, 11, 69
13, 88557, Note_on_c, 13, 61, 0
13, 88567, Note_on_c, 13, 62, 108
13, 88575, Control_c, 13, 11, 70
13, 88608, Control_c, 13, 11, 71
13, 88627, Note_on_c, 13, 62, 0
13, 88627, Note_on_c, 13, 60, 108
13, 88641, Control_c, 13, 11, 72
13, 88674, Control_c, 13, 11, 73
13, 88687, Note_on_c, 13, 60, 0
13, 88687, Note_on_c, 13, 62, 108
13, 88707, Control_c, 13, 11, 74
13, 88740, Control_c, 13, 11, 75
13, 88747, Note_on_c, 13, 62, 0
13, 88747, Note_on_c, 13, 50, 108
13, 88773, Control_c, 13, 11, 76
13, 88797, Note_on_c, 13, 50, 0
13, 88806, Control_c, 13, 11, 77
13, 88807, Control_c, 13, 11, 97
13, 88807, Note_on_c, 13, 55, 108
13, 88831, Control_c, 13, 11, 95
13, 88855, Control_c, 13, 11, 93
13, 88879, Control_c, 13, 11, 91
13, 88903, Control_c, 13, 11, 89
13, 88917, Note_on_c, 13, 55, 0
13, 88927, Control_c, 13, 11, 87
13, 88927, Note_on_c, 13, 50, 108
13, 89017, Note_on_c, 13, 50, 0
13, 89017, Note_on_c, 13, 54, 108
13, 89037, Note_on_c, 13, 54, 0
13, 89047, Note_on_c, 13, 55, 108
13, 89047, Control_c, 13, 11, 107
13, 89065, Control_c, 13, 11, 104
13, 89083, Control_c, 13, 11, 101
13, 89101, Control_c, 13, 11, 98
13, 89119, Control_c, 13, 11, 95
13, 89137, Control_c, 13, 11, 92
13, 89155, Control_c, 13, 11, 89
13, 89397, Note_on_c, 13, 55, 0
13, 89407, Note_on_c, 13, 50, 108
13, 89497, Note_on_c, 13, 50, 0
13, 89497, Note_on_c, 13, 54, 108
13, 89517, Note_on_c, 13, 54, 0
13, 89527, Note_on_c, 13, 55, 108
13, 89527, Control_c, 13, 11, 107
13, 89545, Control_c, 13, 11, 104
13, 89563, Control_c, 13, 11, 101
13, 89581, Control_c, 13, 11, 98
13, 89599, Control_c, 13, 11, 95
13, 89617, Control_c, 13, 11, 92
13, 89635, Control_c, 13, 11, 89
13, 89887, Note_on_c, 13, 55, 0
13, 90007, Control_c, 13, 11, 107
13, 90007, Note_on_c, 13, 50, 108
13, 90025, Control_c, 13, 11, 104
13, 90043, Control_c, 13, 11, 101
13, 90061, Control_c, 13, 11, 98
13, 90079, Control_c, 13, 11, 95
13, 90097, Control_c, 13, 11, 92
13, 90115, Control_c, 13, 11, 89
13, 90127, Note_on_c, 13, 50, 0
13, 90247, Control_c, 13, 11, 107
13, 90247, Note_on_c, 13, 55, 108
13, 90264, Control_c, 13, 11, 104
13, 90282, Control_c, 13, 11, 101
13, 90300, Control_c, 13, 11, 98
13, 90318, Control_c, 13, 11, 95
13, 90336, Control_c, 13, 11, 92
13, 90354, Control_c, 13, 11, 89
13, 90367, Note_on_c, 13, 55, 0
13, 90487, Control_c, 13, 11, 107
13, 90487, Note_on_c, 13, 57, 108
13, 90504, Control_c, 13, 11, 104
13, 90522, Control_c, 13, 11, 101
13, 90540, Control_c, 13, 11, 98
13, 90558, Control_c, 13, 11, 95
13, 90576, Control_c, 13, 11, 92
13, 90594, Control_c, 13, 11, 89
13, 90607, Note_on_c, 13, 57, 0
13, 90727, Note_on_c, 13, 47, 108
13, 90787, Note_on_c, 13, 47, 0
13, 90847, Note_on_c, 13, 50, 108
13, 90907, Note_on_c, 13, 50, 0
13, 90967, Note_on_c, 13, 55, 108
13, 91027, Note_on_c, 13, 55, 0
13, 91087, Note_on_c, 13, 59, 108
13, 91147, Note_on_c, 13, 59, 0
13, 91207, Note_on_c, 13, 45, 108
13, 91267, Note_on_c, 13, 45, 0
13, 91327, Note_on_c, 13, 48, 108
13, 91387, Note_on_c, 13, 48, 0
13, 91447, Note_on_c, 13, 54, 108
13, 91507, Note_on_c, 13, 54, 0
13, 91567, Note_on_c, 13, 57, 108
13, 91627, Note_on_c, 13, 57, 0
13, 91687, Note_on_c, 13, 44, 108
13, 91687, Control_c, 13, 11, 102
13, 91747, Note_on_c, 13, 44, 0
13, 91807, Note_on_c, 13, 47, 108
13, 91867, Note_on_c, 13, 47, 0
13, 91927, Note_on_c, 13, 52, 108
13, 91987, Note_on_c, 13, 52, 0
13, 92047, Note_on_c, 13, 56, 108
13, 92107, Note_on_c, 13, 56, 0
13, 92167, Note_on_c, 13, 50, 108
13, 92227, Note_on_c, 13, 50, 0
13, 92287, Note_on_c, 13, 62, 108
13, 92347, Note_on_c, 13, 62, 0
13, 92407, Note_on_c, 13, 62, 108
13, 92467, Note_on_c, 13, 62, 0
13, 92527, Note_on_c, 13, 62, 108
13, 92587, Note_on_c, 13, 62, 0
13, 92647, Note_on_c, 13, 48, 108
13, 92707, Note_on_c, 13, 48, 0
13, 92767, Note_on_c, 13, 60, 108
13, 92827, Note_on_c, 13, 60, 0
13, 92887, Note_on_c, 13, 60, 108
13, 92947, Note_on_c, 13, 60, 0
13, 93007, Note_on_c, 13, 60, 108
13, 93067, Note_on_c, 13, 60, 0
13, 93127, Note_on_c, 13, 49, 108
13, 93187, Note_on_c, 13, 49, 0
13, 93247, Note_on_c, 13, 55, 108
13, 93307, Note_on_c, 13, 55, 0
13, 93367, Note_on_c, 13, 52, 108
13, 93427, Note_on_c, 13, 52, 0
13, 93487, Note_on_c, 13, 49, 108
13, 93547, Note_on_c, 13, 49, 0
13, 93607, Control_c, 13, 11, 122
13, 93607, Note_on_c, 13, 50, 108
13, 93624, Control_c, 13, 11, 119
13, 93642, Control_c, 13, 11, 116
13, 93657, Note_on_c, 13, 50, 0
13, 93660, Control_c, 13, 11, 113
13, 93667, Note_on_c, 13, 50, 108
13, 93678, Control_c, 13, 11, 110
13, 93696, Control_c, 13, 11, 107
13, 93714, Control_c, 13, 11, 104
13, 93717, Note_on_c, 13, 50, 0
13, 93727, Note_on_c, 13, 50, 108
13, 93777, Note_on_c, 13, 50, 0
13, 93787, Note_on_c, 13, 50, 108
13, 93837, Note_on_c, 13, 50, 0
13, 93847, Control_c, 13, 11, 122
13, 93847, Note_on_c, 13, 52, 108
13, 93864, Control_c, 13, 11, 119
13, 93882, Control_c, 13, 11, 116
13, 93897, Note_on_c, 13, 52, 0
13, 93900, Control_c, 13, 11, 113
13, 93907, Note_on_c, 13, 52, 108
13, 93918, Control_c, 13, 11, 110
13, 93936, Control_c, 13, 11, 107
13, 93954, Control_c, 13, 11, 104
13, 93957, Note_on_c, 13, 52, 0
13, 93967, Note_on_c, 13, 52, 108
13, 94017, Note_on_c, 13, 52, 0
13, 94027, Note_on_c, 13, 52, 108
13, 94077, Note_on_c, 13, 52, 0
13, 94087, Note_on_c, 13, 48, 108
13, 94087, Control_c, 13, 11, 122
13, 94104, Control_c, 13, 11, 119
13, 94122, Control_c, 13, 11, 116
13, 94137, Note_on_c, 13, 48, 0
13, 94140, Control_c, 13, 11, 113
13, 94147, Note_on_c, 13, 48, 108
13, 94158, Control_c, 13, 11, 110
13, 94176, Control_c, 13, 11, 107
13, 94194, Control_c, 13, 11, 104
13, 94197, Note_on_c, 13, 48, 0
13, 94207, Note_on_c, 13, 48, 108
13, 94257, Note_on_c, 13, 48, 0
13, 94267, Note_on_c, 13, 48, 108
13, 94317, Note_on_c, 13, 48, 0
13, 94327, Note_on_c, 13, 50, 108
13, 94327, Control_c, 13, 11, 122
13, 94344, Control_c, 13, 11, 119
13, 94362, Control_c, 13, 11, 116
13, 94377, Note_on_c, 13, 50, 0
13, 94380, Control_c, 13, 11, 113
13, 94387, Note_on_c, 13, 50, 108
13, 94398, Control_c, 13, 11, 110
13, 94416, Control_c, 13, 11, 107
13, 94434, Control_c, 13, 11, 104
13, 94437, Note_on_c, 13, 50, 0
13, 94447, Note_on_c, 13, 50, 108
13, 94497, Note_on_c, 13, 50, 0
13, 94507, Note_on_c, 13, 50, 108
13, 94557, Note_on_c, 13, 50, 0
13, 94567, Control_c, 13, 11, 87
13, 94567, Note_on_c, 13, 43, 108
13, 94585, Control_c, 13, 11, 84
13, 94603, Control_c, 13, 11, 81
13, 94621, Control_c, 13, 11, 78
13, 94639, Control_c, 13, 11, 75
13, 94657, Control_c, 13, 11, 72
13, 94675, Control_c, 13, 11, 69
13, 94687, Note_on_c, 13, 43, 0
13, 95407, Control_c, 13, 11, 63
13, 95407, Note_on_c, 13, 50, 108
13, 95413, Control_c, 13, 11, 66
13, 95420, Control_c, 13, 11, 69
13, 95428, Control_c, 13, 11, 72
13, 95443, Control_c, 13, 11, 71
13, 95461, Control_c, 13, 11, 68
13, 95479, Control_c, 13, 11, 65
13, 95497, Control_c, 13, 11, 62
13, 95515, Control_c, 13, 11, 59
13, 95527, Note_on_c, 13, 50, 0
13, 95527, Note_on_c, 13, 55, 108
13, 95527, Control_c, 13, 11, 47
13, 95545, Control_c, 13, 11, 54
13, 95563, Control_c, 13, 11, 51
13, 95581, Control_c, 13, 11, 48
13, 95647, Note_on_c, 13, 55, 0
13, 96367, Control_c, 13, 11, 63
13, 96367, Note_on_c, 13, 50, 108
13, 96373, Control_c, 13, 11, 66
13, 96380, Control_c, 13, 11, 69
13, 96388, Control_c, 13, 11, 72
13, 96403, Control_c, 13, 11, 71
13, 96421, Control_c, 13, 11, 68
13, 96439, Control_c, 13, 11, 65
13, 96457, Control_c, 13, 11, 62
13, 96475, Control_c, 13, 11, 59
13, 96487, Note_on_c, 13, 50, 0
13, 96487, Control_c, 13, 11, 47
13, 96487, Control_c, 13, 11, 57
13, 96487, Note_on_c, 13, 55, 108
13, 96505, Control_c, 13, 11, 54
13, 96523, Control_c, 13, 11, 51
13, 96541, Control_c, 13, 11, 48
13, 96607, Note_on_c, 13, 55, 0
13, 96847, Control_c, 13, 11, 63
13, 96847, Note_on_c, 13, 50, 108
13, 96853, Control_c, 13, 11, 66
13, 96860, Control_c, 13, 11, 69
13, 96868, Control_c, 13, 11, 72
13, 96883, Control_c, 13, 11, 71
13, 96901, Control_c, 13, 11, 68
13, 96919, Control_c, 13, 11, 65
13, 96937, Control_c, 13, 11, 62
13, 96955, Control_c, 13, 11, 59
13, 96967, Note_on_c, 13, 50, 0
13, 96967, Control_c, 13, 11, 47
13, 96967, Note_on_c, 13, 55, 108
13, 96985, Control_c, 13, 11, 54
13, 97003, Control_c, 13, 11, 51
13, 97021, Control_c, 13, 11, 48
13, 97087, Note_on_c, 13, 55, 0
13, 97322, Control_c, 13, 11, 67
13, 97323, Control_c, 13, 11, 74
13, 97324, Control_c, 13, 11, 81
13, 97325, Control_c, 13, 11, 88
13, 97326, Control_c, 13, 11, 95
13, 97327, Note_on_c, 13, 50, 108
13, 97327, Control_c, 13, 11, 102
13, 97387, Note_on_c, 13, 50, 0
13, 97447, Note_on_c, 13, 55, 108
13, 97507, Note_on_c, 13, 55, 0
13, 98407, Note_on_c, 13, 43, 98
13, 98527, Note_on_c, 13, 43, 0
13, 99247, Control_c, 13, 11, 47
13, 99367, Control_c, 13, 11, 87
13, 99367, Note_on_c, 13, 49, 108
13, 99637, Control_c, 13, 11, 87
13, 99644, Control_c, 13, 11, 84
13, 99652, Control_c, 13, 11, 81
13, 99660, Control_c, 13, 11, 78
13, 99668, Control_c, 13, 11, 75
13, 99676, Control_c, 13, 11, 72
13, 99683, Control_c, 13, 11, 69
13, 99691, Control_c, 13, 11, 66
13, 99699, Control_c, 13, 11, 63
13, 99702, Note_on_c, 13, 49, 0
13, 100327, Note_on_c, 13, 55, 108
13, 100327, Control_c, 13, 11, 47
13, 100447, Note_on_c, 13, 55, 0
13, 100567, Note_on_c, 13, 52, 108
13, 100687, Note_on_c, 13, 52, 0
13, 100807, Note_on_c, 13, 49, 108
13, 100927, Note_on_c, 13, 49, 0
13, 101047, Note_on_c, 13, 43, 108
13, 101167, Note_on_c, 13, 43, 0
13, 101287, Note_on_c, 13, 42, 108
13, 101287, Control_c, 13, 11, 87
13, 101557, Control_c, 13, 11, 87
13, 101564, Control_c, 13, 11, 84
13, 101572, Control_c, 13, 11, 81
13, 101580, Control_c, 13, 11, 78
13, 101588, Control_c, 13, 11, 75
13, 101596, Control_c, 13, 11, 72
13, 101603, Control_c, 13, 11, 69
13, 101611, Control_c, 13, 11, 66
13, 101619, Control_c, 13, 11, 63
13, 101622, Note_on_c, 13, 42, 0
13, 102247, Note_on_c, 13, 60, 108
13, 102247, Control_c, 13, 11, 47
13, 102367, Note_on_c, 13, 60, 0
13, 102487, Note_on_c, 13, 57, 108
13, 102607, Note_on_c, 13, 57, 0
13, 102727, Note_on_c, 13, 54, 108
13, 102847, Note_on_c, 13, 54, 0
13, 102967, Note_on_c, 13, 48, 108
13, 103087, Note_on_c, 13, 48, 0
13, 103207, Control_c, 13, 11, 87
13, 103207, Note_on_c, 13, 47, 108
13, 103477, Control_c, 13, 11, 87
13, 103484, Control_c, 13, 11, 84
13, 103492, Control_c, 13, 11, 81
13, 103500, Control_c, 13, 11, 78
13, 103508, Control_c, 13, 11, 75
13, 103516, Control_c, 13, 11, 72
13, 103523, Control_c, 13, 11, 69
13, 103531, Control_c, 13, 11, 66
13, 103539, Control_c, 13, 11, 63
13, 103542, Note_on_c, 13, 47, 0
13, 104167, Control_c, 13, 11, 47
13, 104167, Note_on_c, 13, 53, 108
13, 104287, Note_on_c, 13, 53, 0
13, 104407, Note_on_c, 13, 50, 108
13, 104527, Note_on_c, 13, 50, 0
13, 104647, Note_on_c, 13, 47, 108
13, 104767, Note_on_c, 13, 47, 0
13, 104887, Note_on_c, 13, 43, 108
13, 105007, Note_on_c, 13, 43, 0
13, 105127, Note_on_c, 13, 48, 108
13, 105127, Control_c, 13, 11, 67
13, 105136, Control_c, 13, 11, 70
13, 105145, Control_c, 13, 11, 73
13, 105154, Control_c, 13, 11, 76
13, 105169, Control_c, 13, 11, 73
13, 105178, Control_c, 13, 11, 70
13, 105187, Note_on_c, 13, 48, 0
13, 105187, Control_c, 13, 11, 67
13, 105196, Control_c, 13, 11, 64
13, 105205, Control_c, 13, 11, 61
13, 105214, Control_c, 13, 11, 58
13, 105223, Control_c, 13, 11, 55
13, 105232, Control_c, 13, 11, 52
13, 105241, Control_c, 13, 11, 49
13, 105247, Note_on_c, 13, 51, 108
13, 105307, Note_on_c, 13, 51, 0
13, 105367, Note_on_c, 13, 55, 108
13, 105427, Note_on_c, 13, 55, 0
13, 105487, Note_on_c, 13, 59, 108
13, 105547, Note_on_c, 13, 59, 0
13, 105607, Note_on_c, 13, 60, 108
13, 105727, Note_on_c, 13, 60, 0
13, 106567, Note_on_c, 13, 60, 108
13, 106627, Note_on_c, 13, 60, 0
13, 106687, Note_on_c, 13, 58, 108
13, 106747, Note_on_c, 13, 58, 0
13, 106807, Note_on_c, 13, 56, 108
13, 106867, Note_on_c, 13, 56, 0
13, 106927, Note_on_c, 13, 55, 108
13, 106987, Note_on_c, 13, 55, 0
13, 107047, Note_on_c, 13, 53, 108
13, 107047, Control_c, 13, 11, 67
13, 107056, Control_c, 13, 11, 70
13, 107065, Control_c, 13, 11, 73
13, 107074, Control_c, 13, 11, 76
13, 107089, Control_c, 13, 11, 73
13, 107098, Control_c, 13, 11, 70
13, 107107, Note_on_c, 13, 53, 0
13, 107107, Control_c, 13, 11, 67
13, 107116, Control_c, 13, 11, 64
13, 107125, Control_c, 13, 11, 61
13, 107134, Control_c, 13, 11, 58
13, 107143, Control_c, 13, 11, 55
13, 107152, Control_c, 13, 11, 52
13, 107161, Control_c, 13, 11, 49
13, 107167, Note_on_c, 13, 56, 108
13, 107227, Note_on_c, 13, 56, 0
13, 107287, Note_on_c, 13, 60, 108
13, 107347, Note_on_c, 13, 60, 0
13, 107407, Note_on_c, 13, 64, 108
13, 107467, Note_on_c, 13, 64, 0
13, 107527, Note_on_c, 13, 65, 108
13, 107647, Note_on_c, 13, 65, 0
13, 108487, Note_on_c, 13, 53, 108
13, 108547, Note_on_c, 13, 53, 0
13, 108607, Note_on_c, 13, 51, 108
13, 108667, Note_on_c, 13, 51, 0
13, 108727, Note_on_c, 13, 50, 108
13, 108787, Note_on_c, 13, 50, 0
13, 108847, Note_on_c, 13, 48, 108
13, 108907, Note_on_c, 13, 48, 0
13, 108967, Note_on_c, 13, 46, 108
13, 108967, Control_c, 13, 11, 47
13, 108991, Control_c, 13, 11, 45
13, 109015, Control_c, 13, 11, 43
13, 109027, Note_on_c, 13, 46, 0
13, 109039, Control_c, 13, 11, 41
13, 109063, Control_c, 13, 11, 39
13, 109087, Note_on_c, 13, 50, 108
13, 109087, Control_c, 13, 11, 37
13, 109147, Note_on_c, 13, 50, 0
13, 109207, Note_on_c, 13, 53, 108
13, 109267, Note_on_c, 13, 53, 0
13, 109327, Note_on_c, 13, 57, 108
13, 109387, Note_on_c, 13, 57, 0
13, 109447, Note_on_c, 13, 58, 108
13, 109567, Note_on_c, 13, 58, 0
13, 109927, Control_c, 13, 11, 37
13, 109927, Note_on_c, 13, 46, 108
13, 109956, Control_c, 13, 11, 39
13, 109971, Control_c, 13, 11, 40
13, 109986, Control_c, 13, 11, 41
13, 109987, Note_on_c, 13, 46, 0
13, 110015, Control_c, 13, 11, 43
13, 110030, Control_c, 13, 11, 44
13, 110045, Control_c, 13, 11, 45
13, 110047, Note_on_c, 13, 46, 108
13, 110074, Control_c, 13, 11, 47
13, 110089, Control_c, 13, 11, 48
13, 110104, Control_c, 13, 11, 49
13, 110107, Note_on_c, 13, 46, 0
13, 110119, Control_c, 13, 11, 50
13, 110148, Control_c, 13, 11, 52
13, 110163, Control_c, 13, 11, 53
13, 110167, Note_on_c, 13, 51, 108
13, 110178, Control_c, 13, 11, 54
13, 110207, Control_c, 13, 11, 56
13, 110222, Control_c, 13, 11, 57
13, 110227, Note_on_c, 13, 51, 0
13, 110237, Control_c, 13, 11, 58
13, 110266, Control_c, 13, 11, 60
13, 110281, Control_c, 13, 11, 61
13, 110287, Note_on_c, 13, 55, 108
13, 110296, Control_c, 13, 11, 62
13, 110311, Control_c, 13, 11, 63
13, 110340, Control_c, 13, 11, 65
13, 110347, Note_on_c, 13, 55, 0
13, 110355, Control_c, 13, 11, 66
13, 110370, Control_c, 13, 11, 67
13, 110399, Control_c, 13, 11, 69
13, 110407, Note_on_c, 13, 58, 108
13, 110414, Control_c, 13, 11, 70
13, 110429, Control_c, 13, 11, 71
13, 110458, Control_c, 13, 11, 73
13, 110473, Control_c, 13, 11, 74
13, 110488, Control_c, 13, 11, 75
13, 110503, Control_c, 13, 11, 76
13, 110527, Note_on_c, 13, 58, 0
13, 110532, Control_c, 13, 11, 78
13, 110547, Control_c, 13, 11, 79
13, 110562, Control_c, 13, 11, 80
13, 110591, Control_c, 13, 11, 82
13, 110606, Control_c, 13, 11, 83
13, 110621, Control_c, 13, 11, 84
13, 110650, Control_c, 13, 11, 86
13, 110665, Control_c, 13, 11, 87
13, 110680, Control_c, 13, 11, 88
13, 110695, Control_c, 13, 11, 89
13, 110724, Control_c, 13, 11, 91
13, 110739, Control_c, 13, 11, 92
13, 110754, Control_c, 13, 11, 93
13, 110783, Control_c, 13, 11, 95
13, 110798, Control_c, 13, 11, 96
13, 110813, Control_c, 13, 11, 97
13, 110842, Control_c, 13, 11, 99
13, 110857, Control_c, 13, 11, 100
13, 110872, Control_c, 13, 11, 101
13, 110887, Control_c, 13, 11, 102
13, 110887, Note_on_c, 13, 46, 108
13, 110947, Note_on_c, 13, 46, 0
13, 111007, Note_on_c, 13, 51, 108
13, 111067, Note_on_c, 13, 51, 0
13, 111127, Note_on_c, 13, 54, 108
13, 111187, Note_on_c, 13, 54, 0
13, 111247, Note_on_c, 13, 57, 108
13, 111307, Note_on_c, 13, 57, 0
13, 111367, Note_on_c, 13, 60, 108
13, 111427, Note_on_c, 13, 60, 0
13, 111487, Note_on_c, 13, 57, 108
13, 111547, Note_on_c, 13, 57, 0
13, 111607, Note_on_c, 13, 54, 108
13, 111667, Note_on_c, 13, 54, 0
13, 111727, Note_on_c, 13, 51, 108
13, 111787, Note_on_c, 13, 51, 0
13, 111817, Control_c, 13, 11, 92
13, 111822, Control_c, 13, 11, 89
13, 111827, Control_c, 13, 11, 86
13, 111832, Control_c, 13, 11, 83
13, 111837, Control_c, 13, 11, 80
13, 111842, Control_c, 13, 11, 77
13, 111847, Control_c, 13, 11, 74
13, 111847, Note_on_c, 13, 46, 98
13, 111852, Control_c, 13, 11, 71
13, 111857, Control_c, 13, 11, 68
13, 111862, Control_c, 13, 11, 65
13, 111867, Control_c, 13, 11, 62
13, 111872, Control_c, 13, 11, 59
13, 111877, Control_c, 13, 11, 56
13, 111882, Control_c, 13, 11, 53
13, 111887, Control_c, 13, 11, 50
13, 111892, Control_c, 13, 11, 47
13, 111967, Note_on_c, 13, 46, 0
13, 112447, Note_on_c, 13, 58, 108
13, 112507, Note_on_c, 13, 58, 0
13, 112567, Note_on_c, 13, 58, 108
13, 112627, Note_on_c, 13, 58, 0
13, 112687, Note_on_c, 13, 58, 108
13, 112747, Note_on_c, 13, 58, 0
13, 112807, Note_on_c, 13, 46, 108
13, 112927, Note_on_c, 13, 46, 0
13, 113407, Note_on_c, 13, 58, 108
13, 113467, Note_on_c, 13, 58, 0
13, 113527, Note_on_c, 13, 58, 108
13, 113587, Note_on_c, 13, 58, 0
13, 113647, Note_on_c, 13, 58, 108
13, 113707, Note_on_c, 13, 58, 0
13, 113707, Control_c, 13, 11, 47
13, 113716, Control_c, 13, 11, 50
13, 113725, Control_c, 13, 11, 53
13, 113734, Control_c, 13, 11, 56
13, 113743, Control_c, 13, 11, 59
13, 113752, Control_c, 13, 11, 62
13, 113761, Control_c, 13, 11, 65
13, 113767, Note_on_c, 13, 46, 108
13, 113770, Control_c, 13, 11, 68
13, 113779, Control_c, 13, 11, 71
13, 113788, Control_c, 13, 11, 74
13, 113797, Note_on_c, 13, 46, 0
13, 113797, Control_c, 13, 11, 77
13, 113806, Control_c, 13, 11, 80
13, 113815, Control_c, 13, 11, 83
13, 113824, Control_c, 13, 11, 86
13, 113827, Note_on_c, 13, 58, 108
13, 113857, Note_on_c, 13, 58, 0
13, 113887, Note_on_c, 13, 58, 108
13, 113917, Note_on_c, 13, 58, 0
13, 113947, Note_on_c, 13, 58, 108
13, 113977, Note_on_c, 13, 58, 0
13, 114007, Note_on_c, 13, 56, 108
13, 114067, Note_on_c, 13, 56, 0
13, 114067, Note_on_c, 13, 55, 108
13, 114117, Note_on_c, 13, 55, 0
13, 114127, Note_on_c, 13, 53, 108
13, 114157, Note_on_c, 13, 53, 0
13, 114187, Note_on_c, 13, 51, 108
13, 114217, Note_on_c, 13, 51, 0
13, 114247, Note_on_c, 13, 46, 108
13, 114277, Note_on_c, 13, 46, 0
13, 114307, Note_on_c, 13, 58, 108
13, 114337, Note_on_c, 13, 58, 0
13, 114367, Note_on_c, 13, 58, 108
13, 114397, Note_on_c, 13, 58, 0
13, 114427, Note_on_c, 13, 58, 108
13, 114457, Note_on_c, 13, 58, 0
13, 114487, Note_on_c, 13, 56, 108
13, 114547, Note_on_c, 13, 56, 0
13, 114547, Note_on_c, 13, 55, 108
13, 114597, Note_on_c, 13, 55, 0
13, 114607, Note_on_c, 13, 53, 108
13, 114637, Note_on_c, 13, 53, 0
13, 114667, Note_on_c, 13, 51, 108
13, 114697, Note_on_c, 13, 51, 0
13, 114727, Note_on_c, 13, 46, 108
13, 114847, Note_on_c, 13, 46, 0
13, 116767, Note_on_c, 13, 46, 108
13, 116767, Control_c, 13, 11, 47
13, 116857, Note_on_c, 13, 46, 0
13, 116857, Note_on_c, 13, 50, 108
13, 116877, Note_on_c, 13, 50, 0
13, 116887, Note_on_c, 13, 51, 108
13, 117007, Note_on_c, 13, 51, 0
13, 117487, Note_on_c, 13, 48, 108
13, 117597, Note_on_c, 13, 48, 0
13, 117607, Note_on_c, 13, 53, 108
13, 117957, Note_on_c, 13, 53, 0
13, 117967, Note_on_c, 13, 48, 108
13, 118057, Note_on_c, 13, 48, 0
13, 118057, Note_on_c, 13, 52, 108
13, 118077, Note_on_c, 13, 52, 0
13, 118087, Note_on_c, 13, 53, 108
13, 118207, Note_on_c, 13, 53, 0
13, 119407, Note_on_c, 13, 50, 108
13, 119517, Note_on_c, 13, 50, 0
13, 119527, Note_on_c, 13, 55, 108
13, 119877, Note_on_c, 13, 55, 0
13, 119887, Note_on_c, 13, 50, 108
13, 119977, Note_on_c, 13, 50, 0
13, 119977, Note_on_c, 13, 54, 108
13, 119997, Note_on_c, 13, 54, 0
13, 120007, Note_on_c, 13, 55, 108
13, 120127, Note_on_c, 13, 55, 0
13, 121327, Note_on_c, 13, 45, 108
13, 121417, Note_on_c, 13, 45, 0
13, 121417, Note_on_c, 13, 49, 108
13, 121437, Note_on_c, 13, 49, 0
13, 121447, Note_on_c, 13, 53, 108
13, 121567, Note_on_c, 13, 53, 0
13, 121807, Note_on_c, 13, 57, 108
13, 121917, Note_on_c, 13, 57, 0
13, 121927, Note_on_c, 13, 50, 108
13, 122047, Note_on_c, 13, 50, 0
13, 122287, Note_on_c, 13, 52, 108
13, 122377, Note_on_c, 13, 52, 0
13, 122377, Note_on_c, 13, 56, 108
13, 122397, Note_on_c, 13, 56, 0
13, 122407, Note_on_c, 13, 57, 108
13, 122527, Note_on_c, 13, 57, 0
13, 122767, Note_on_c, 13, 52, 108
13, 122877, Note_on_c, 13, 52, 0
13, 122887, Note_on_c, 13, 45, 108
13, 123007, Note_on_c, 13, 45, 0
13, 123247, Note_on_c, 13, 53, 108
13, 123247, Control_c, 13, 11, 67
13, 123257, Control_c, 13, 11, 70
13, 123267, Control_c, 13, 11, 73
13, 123277, Control_c, 13, 11, 76
13, 123288, Control_c, 13, 11, 79
13, 123298, Control_c, 13, 11, 82
13, 123308, Control_c, 13, 11, 85
13, 123317, Note_on_c, 13, 53, 0
13, 123319, Control_c, 13, 11, 88
13, 123329, Control_c, 13, 11, 91
13, 123337, Note_on_c, 13, 53, 108
13, 123339, Control_c, 13, 11, 94
13, 123349, Control_c, 13, 11, 97
13, 123357, Note_on_c, 13, 53, 0
13, 123360, Control_c, 13, 11, 100
13, 123367, Note_on_c, 13, 52, 108
13, 123717, Note_on_c, 13, 52, 0
13, 123727, Note_on_c, 13, 47, 108
13, 123817, Note_on_c, 13, 47, 0
13, 123817, Note_on_c, 13, 51, 108
13, 123837, Note_on_c, 13, 51, 0
13, 123847, Note_on_c, 13, 52, 108
13, 123877, Note_on_c, 13, 52, 0
13, 123907, Note_on_c, 13, 54, 108
13, 123937, Note_on_c, 13, 54, 0
13, 123967, Note_on_c, 13, 56, 108
13, 123997, Note_on_c, 13, 56, 0
13, 124027, Note_on_c, 13, 57, 108
13, 124057, Note_on_c, 13, 57, 0
13, 124087, Note_on_c, 13, 59, 108
13, 124117, Note_on_c, 13, 59, 0
13, 124147, Note_on_c, 13, 60, 108
13, 124177, Note_on_c, 13, 60, 0
13, 124207, Note_on_c, 13, 62, 108
13, 124237, Note_on_c, 13, 62, 0
13, 124267, Note_on_c, 13, 59, 108
13, 124297, Note_on_c, 13, 59, 0
13, 124327, Note_on_c, 13, 57, 108
13, 124447, Note_on_c, 13, 57, 0
13, 125167, Note_on_c, 13, 45, 108
13, 125197, Note_on_c, 13, 45, 0
13, 125197, Note_on_c, 13, 47, 108
13, 125227, Note_on_c, 13, 47, 0
13, 125227, Note_on_c, 13, 48, 108
13, 125257, Note_on_c, 13, 48, 0
13, 125257, Note_on_c, 13, 50, 108
13, 125277, Note_on_c, 13, 50, 0
13, 125287, Note_on_c, 13, 52, 108
13, 125637, Note_on_c, 13, 52, 0
13, 125647, Note_on_c, 13, 47, 108
13, 125737, Note_on_c, 13, 47, 0
13, 125737, Note_on_c, 13, 51, 108
13, 125757, Note_on_c, 13, 51, 0
13, 125767, Note_on_c, 13, 52, 108
13, 125797, Note_on_c, 13, 52, 0
13, 125827, Note_on_c, 13, 54, 108
13, 125857, Note_on_c, 13, 54, 0
13, 125887, Note_on_c, 13, 56, 108
13, 125917, Note_on_c, 13, 56, 0
13, 125947, Note_on_c, 13, 57, 108
13, 125977, Note_on_c, 13, 57, 0
13, 126007, Note_on_c, 13, 59, 108
13, 126037, Note_on_c, 13, 59, 0
13, 126067, Note_on_c, 13, 60, 108
13, 126097, Note_on_c, 13, 60, 0
13, 126127, Note_on_c, 13, 62, 108
13, 126157, Note_on_c, 13, 62, 0
13, 126187, Note_on_c, 13, 59, 108
13, 126217, Note_on_c, 13, 59, 0
13, 126247, Note_on_c, 13, 57, 108
13, 126367, Note_on_c, 13, 57, 0
13, 127087, Note_on_c, 13, 45, 108
13, 127117, Note_on_c, 13, 45, 0
13, 127117, Note_on_c, 13, 47, 108
13, 127147, Note_on_c, 13, 47, 0
13, 127147, Note_on_c, 13, 48, 108
13, 127177, Note_on_c, 13, 48, 0
13, 127177, Note_on_c, 13, 50, 108
13, 127197, Note_on_c, 13, 50, 0
13, 127207, Note_on_c, 13, 52, 108
13, 127207, Control_c, 13, 11, 122
13, 127224, Control_c, 13, 11, 119
13, 127242, Control_c, 13, 11, 116
13, 127260, Control_c, 13, 11, 113
13, 127278, Control_c, 13, 11, 110
13, 127296, Control_c, 13, 11, 107
13, 127314, Control_c, 13, 11, 104
13, 127327, Note_on_c, 13, 52, 0
13, 127567, Note_on_c, 13, 45, 108
13, 127597, Note_on_c, 13, 45, 0
13, 127597, Note_on_c, 13, 47, 108
13, 127627, Note_on_c, 13, 47, 0
13, 127627, Note_on_c, 13, 48, 108
13, 127657, Note_on_c, 13, 48, 0
13, 127657, Note_on_c, 13, 50, 108
13, 127677, Note_on_c, 13, 50, 0
13, 127687, Control_c, 13, 11, 122
13, 127687, Note_on_c, 13, 52, 108
13, 127704, Control_c, 13, 11, 119
13, 127722, Control_c, 13, 11, 116
13, 127740, Control_c, 13, 11, 113
13, 127758, Control_c, 13, 11, 110
13, 127776, Control_c, 13, 11, 107
13, 127794, Control_c, 13, 11, 104
13, 127807, Note_on_c, 13, 52, 0
13, 128047, Note_on_c, 13, 45, 108
13, 128077, Note_on_c, 13, 45, 0
13, 128077, Note_on_c, 13, 47, 108
13, 128107, Note_on_c, 13, 47, 0
13, 128107, Note_on_c, 13, 48, 108
13, 128137, Note_on_c, 13, 48, 0
13, 128137, Note_on_c, 13, 50, 108
13, 128157, Note_on_c, 13, 50, 0
13, 128167, Control_c, 13, 11, 122
13, 128167, Note_on_c, 13, 52, 108
13, 128184, Control_c, 13, 11, 119
13, 128202, Control_c, 13, 11, 116
13, 128220, Control_c, 13, 11, 113
13, 128238, Control_c, 13, 11, 110
13, 128256, Control_c, 13, 11, 107
13, 128274, Control_c, 13, 11, 104
13, 128287, Note_on_c, 13, 52, 0
13, 128647, Note_on_c, 13, 52, 108
13, 128719, Note_on_c, 13, 52, 0
13, 128887, Note_on_c, 13, 52, 108
13, 128959, Note_on_c, 13, 52, 0
13, 129127, Note_on_c, 13, 52, 108
13, 129199, Note_on_c, 13, 52, 0
13, 131887, Note_on_c, 13, 55, 108
13, 131887, Control_c, 13, 11, 70
13, 131898, Control_c, 13, 11, 73
13, 131909, Control_c, 13, 11, 76
13, 131917, Note_on_c, 13, 55, 0
13, 131917, Note_on_c, 13, 53, 108
13, 131920, Control_c, 13, 11, 79
13, 131932, Control_c, 13, 11, 82
13, 131943, Control_c, 13, 11, 85
13, 131947, Note_on_c, 13, 53, 0
13, 131947, Note_on_c, 13, 52, 108
13, 131954, Control_c, 13, 11, 88
13, 131965, Control_c, 13, 11, 91
13, 131977, Note_on_c, 13, 52, 0
13, 131977, Note_on_c, 13, 50, 108
13, 131977, Control_c, 13, 11, 94
13, 131988, Control_c, 13, 11, 97
13, 131994, Note_on_c, 13, 50, 0
13, 131999, Control_c, 13, 11, 100
13, 132007, Note_on_c, 13, 48, 108
13, 132315, Note_on_c, 13, 48, 0
13, 132367, Note_on_c, 13, 43, 108
13, 132457, Note_on_c, 13, 43, 0
13, 132457, Note_on_c, 13, 47, 108
13, 132477, Note_on_c, 13, 47, 0
13, 132487, Control_c, 13, 11, 122
13, 132487, Note_on_c, 13, 48, 108
13, 132504, Control_c, 13, 11, 119
13, 132522, Control_c, 13, 11, 116
13, 132540, Control_c, 13, 11, 113
13, 132558, Control_c, 13, 11, 110
13, 132576, Control_c, 13, 11, 107
13, 132594, Control_c, 13, 11, 104
13, 132795, Note_on_c, 13, 48, 0
13, 132847, Note_on_c, 13, 43, 108
13, 132937, Note_on_c, 13, 43, 0
13, 132937, Note_on_c, 13, 47, 108
13, 132957, Note_on_c, 13, 47, 0
13, 132967, Note_on_c, 13, 48, 108
13, 132997, Note_on_c, 13, 48, 0
13, 133027, Note_on_c, 13, 48, 108
13, 133057, Note_on_c, 13, 48, 0
13, 133087, Note_on_c, 13, 43, 108
13, 133117, Note_on_c, 13, 43, 0
13, 133147, Note_on_c, 13, 47, 108
13, 133177, Note_on_c, 13, 47, 0
13, 133207, Note_on_c, 13, 48, 108
13, 133237, Note_on_c, 13, 48, 0
13, 133267, Note_on_c, 13, 48, 108
13, 133297, Note_on_c, 13, 48, 0
13, 133327, Note_on_c, 13, 43, 108
13, 133357, Note_on_c, 13, 43, 0
13, 133387, Note_on_c, 13, 47, 108
13, 133417, Note_on_c, 13, 47, 0
13, 133447, Note_on_c, 13, 48, 108
13, 133507, Note_on_c, 13, 48, 0
13, 133567, Note_on_c, 13, 52, 108
13, 133627, Note_on_c, 13, 52, 0
13, 133687, Note_on_c, 13, 55, 108
13, 133747, Note_on_c, 13, 55, 0
13, 133807, Note_on_c, 13, 59, 108
13, 133867, Note_on_c, 13, 59, 0
13, 133927, Note_on_c, 13, 60, 88
13, 134047, Note_on_c, 13, 60, 0
13, 134767, Note_on_c, 13, 57, 108
13, 134767, Control_c, 13, 11, 72
13, 134779, Control_c, 13, 11, 75
13, 134791, Control_c, 13, 11, 78
13, 134797, Note_on_c, 13, 57, 0
13, 134797, Note_on_c, 13, 55, 108
13, 134803, Control_c, 13, 11, 81
13, 134815, Control_c, 13, 11, 84
13, 134827, Note_on_c, 13, 55, 0
13, 134827, Control_c, 13, 11, 87
13, 134827, Note_on_c, 13, 53, 108
13, 134839, Control_c, 13, 11, 90
13, 134851, Control_c, 13, 11, 93
13, 134857, Note_on_c, 13, 53, 0
13, 134857, Note_on_c, 13, 52, 108
13, 134863, Control_c, 13, 11, 96
13, 134875, Control_c, 13, 11, 99
13, 134877, Note_on_c, 13, 52, 0
13, 134887, Note_on_c, 13, 50, 108
13, 134887, Control_c, 13, 11, 102
13, 135195, Note_on_c, 13, 50, 0
13, 135247, Note_on_c, 13, 45, 108
13, 135337, Note_on_c, 13, 45, 0
13, 135337, Note_on_c, 13, 49, 108
13, 135357, Note_on_c, 13, 49, 0
13, 135367, Note_on_c, 13, 50, 108
13, 135367, Control_c, 13, 11, 122
13, 135384, Control_c, 13, 11, 119
13, 135402, Control_c, 13, 11, 116
13, 135420, Control_c, 13, 11, 113
13, 135438, Control_c, 13, 11, 110
13, 135456, Control_c, 13, 11, 107
13, 135474, Control_c, 13, 11, 104
13, 135675, Note_on_c, 13, 50, 0
13, 135727, Note_on_c, 13, 45, 108
13, 135817, Note_on_c, 13, 45, 0
13, 135817, Note_on_c, 13, 49, 108
13, 135837, Note_on_c, 13, 49, 0
13, 135847, Note_on_c, 13, 50, 108
13, 135877, Note_on_c, 13, 50, 0
13, 135907, Note_on_c, 13, 50, 108
13, 135937, Note_on_c, 13, 50, 0
13, 135967, Note_on_c, 13, 45, 108
13, 135997, Note_on_c, 13, 45, 0
13, 136027, Note_on_c, 13, 49, 108
13, 136057, Note_on_c, 13, 49, 0
13, 136087, Note_on_c, 13, 50, 108
13, 136117, Note_on_c, 13, 50, 0
13, 136147, Note_on_c, 13, 50, 108
13, 136177, Note_on_c, 13, 50, 0
13, 136207, Note_on_c, 13, 45, 108
13, 136237, Note_on_c, 13, 45, 0
13, 136267, Note_on_c, 13, 49, 108
13, 136297, Note_on_c, 13, 49, 0
13, 136327, Note_on_c, 13, 50, 108
13, 136387, Note_on_c, 13, 50, 0
13, 136447, Note_on_c, 13, 53, 108
13, 136507, Note_on_c, 13, 53, 0
13, 136567, Note_on_c, 13, 57, 108
13, 136627, Note_on_c, 13, 57, 0
13, 136687, Note_on_c, 13, 61, 108
13, 136747, Note_on_c, 13, 61, 0
13, 136807, Note_on_c, 13, 62, 62
13, 136927, Note_on_c, 13, 62, 0
13, 137647, Note_on_c, 13, 60, 108
13, 137647, Control_c, 13, 11, 47
13, 137677, Note_on_c, 13, 60, 0
13, 137677, Note_on_c, 13, 58, 108
13, 137707, Note_on_c, 13, 58, 0
13, 137707, Note_on_c, 13, 57, 108
13, 137737, Note_on_c, 13, 57, 0
13, 137737, Note_on_c, 13, 55, 108
13, 137757, Note_on_c, 13, 55, 0
13, 137767, Note_on_c, 13, 53, 108
13, 137887, Note_on_c, 13, 53, 0
13, 138607, Control_c, 13, 11, 47
13, 138650, Control_c, 13, 11, 48
13, 138694, Control_c, 13, 11, 49
13, 138737, Control_c, 13, 11, 50
13, 138781, Control_c, 13, 11, 51
13, 138825, Control_c, 13, 11, 52
13, 138868, Control_c, 13, 11, 53
13, 138912, Control_c, 13, 11, 54
13, 138956, Control_c, 13, 11, 55
13, 138999, Control_c, 13, 11, 56
13, 139043, Control_c, 13, 11, 57
13, 139087, Note_on_c, 13, 52, 108
13, 139087, Control_c, 13, 11, 58
13, 139117, Note_on_c, 13, 52, 0
13, 139117, Note_on_c, 13, 50, 108
13, 139130, Control_c, 13, 11, 59
13, 139147, Note_on_c, 13, 50, 0
13, 139147, Note_on_c, 13, 48, 108
13, 139174, Control_c, 13, 11, 60
13, 139177, Note_on_c, 13, 48, 0
13, 139177, Note_on_c, 13, 47, 108
13, 139197, Note_on_c, 13, 47, 0
13, 139207, Note_on_c, 13, 45, 108
13, 139217, Control_c, 13, 11, 61
13, 139261, Control_c, 13, 11, 62
13, 139305, Control_c, 13, 11, 63
13, 139327, Note_on_c, 13, 45, 0
13, 139348, Control_c, 13, 11, 64
13, 139392, Control_c, 13, 11, 65
13, 139436, Control_c, 13, 11, 66
13, 139479, Control_c, 13, 11, 67
13, 139523, Control_c, 13, 11, 68
13, 139567, Control_c, 13, 11, 69
13, 139610, Control_c, 13, 11, 70
13, 139654, Control_c, 13, 11, 71
13, 139697, Control_c, 13, 11, 72
13, 139741, Control_c, 13, 11, 73
13, 139785, Control_c, 13, 11, 74
13, 139828, Control_c, 13, 11, 75
13, 139872, Control_c, 13, 11, 76
13, 139916, Control_c, 13, 11, 77
13, 139959, Control_c, 13, 11, 78
13, 140003, Control_c, 13, 11, 79
13, 140047, Control_c, 13, 11, 80
13, 140047, Note_on_c, 13, 55, 108
13, 140077, Note_on_c, 13, 55, 0
13, 140077, Note_on_c, 13, 53, 108
13, 140090, Control_c, 13, 11, 81
13, 140107, Note_on_c, 13, 53, 0
13, 140107, Note_on_c, 13, 52, 108
13, 140134, Control_c, 13, 11, 82
13, 140137, Note_on_c, 13, 52, 0
13, 140137, Note_on_c, 13, 50, 108
13, 140157, Note_on_c, 13, 50, 0
13, 140167, Note_on_c, 13, 48, 108
13, 140177, Control_c, 13, 11, 83
13, 140221, Control_c, 13, 11, 84
13, 140265, Control_c, 13, 11, 85
13, 140287, Note_on_c, 13, 48, 0
13, 140308, Control_c, 13, 11, 86
13, 140352, Control_c, 13, 11, 87
13, 140396, Control_c, 13, 11, 88
13, 140439, Control_c, 13, 11, 89
13, 140483, Control_c, 13, 11, 90
13, 140527, Control_c, 13, 11, 91
13, 140570, Control_c, 13, 11, 92
13, 140614, Control_c, 13, 11, 93
13, 140657, Control_c, 13, 11, 94
13, 140701, Control_c, 13, 11, 95
13, 140745, Control_c, 13, 11, 96
13, 140788, Control_c, 13, 11, 97
13, 140832, Control_c, 13, 11, 98
13, 140876, Control_c, 13, 11, 99
13, 140919, Control_c, 13, 11, 100
13, 140963, Control_c, 13, 11, 101
13, 141007, Note_on_c, 13, 60, 108
13, 141007, Control_c, 13, 11, 102
13, 141037, Note_on_c, 13, 60, 0
13, 141037, Note_on_c, 13, 58, 108
13, 141067, Note_on_c, 13, 58, 0
13, 141067, Note_on_c, 13, 57, 108
13, 141097, Note_on_c, 13, 57, 0
13, 141097, Note_on_c, 13, 55, 108
13, 141117, Note_on_c, 13, 55, 0
13, 141127, Note_on_c, 13, 53, 108
13, 141187, Note_on_c, 13, 53, 0
13, 141247, Note_on_c, 13, 57, 108
13, 141277, Note_on_c, 13, 57, 0
13, 141277, Note_on_c, 13, 55, 108
13, 141307, Note_on_c, 13, 55, 0
13, 141307, Note_on_c, 13, 53, 108
13, 141337, Note_on_c, 13, 53, 0
13, 141337, Note_on_c, 13, 52, 108
13, 141357, Note_on_c, 13, 52, 0
13, 141367, Note_on_c, 13, 50, 108
13, 141427, Note_on_c, 13, 50, 0
13, 141487, Note_on_c, 13, 50, 108
13, 141517, Note_on_c, 13, 50, 0
13, 141517, Note_on_c, 13, 48, 108
13, 141547, Note_on_c, 13, 48, 0
13, 141547, Note_on_c, 13, 47, 108
13, 141577, Note_on_c, 13, 47, 0
13, 141577, Note_on_c, 13, 45, 108
13, 141597, Note_on_c, 13, 45, 0
13, 141607, Note_on_c, 13, 43, 108
13, 141657, Note_on_c, 13, 43, 0
13, 141667, Note_on_c, 13, 55, 108
13, 141717, Note_on_c, 13, 55, 0
13, 141727, Note_on_c, 13, 55, 108
13, 141727, Control_c, 13, 11, 122
13, 141745, Control_c, 13, 11, 119
13, 141763, Control_c, 13, 11, 116
13, 141777, Note_on_c, 13, 55, 0
13, 141781, Control_c, 13, 11, 113
13, 141787, Note_on_c, 13, 55, 108
13, 141799, Control_c, 13, 11, 110
13, 141817, Control_c, 13, 11, 107
13, 141835, Control_c, 13, 11, 104
13, 141837, Note_on_c, 13, 55, 0
13, 141847, Note_on_c, 13, 55, 108
13, 141897, Note_on_c, 13, 55, 0
13, 141907, Note_on_c, 13, 55, 108
13, 141957, Note_on_c, 13, 55, 0
13, 141967, Note_on_c, 13, 55, 108
13, 142017, Note_on_c, 13, 55, 0
13, 142027, Note_on_c, 13, 55, 108
13, 142077, Note_on_c, 13, 55, 0
13, 142087, Note_on_c, 13, 55, 108
13, 142137, Note_on_c, 13, 55, 0
13, 142147, Note_on_c, 13, 55, 108
13, 142197, Note_on_c, 13, 55, 0
13, 142207, Note_on_c, 13, 55, 108
13, 142257, Note_on_c, 13, 55, 0
13, 142267, Note_on_c, 13, 55, 108
13, 142317, Note_on_c, 13, 55, 0
13, 142327, Note_on_c, 13, 55, 108
13, 142377, Note_on_c, 13, 55, 0
13, 142387, Note_on_c, 13, 55, 108
13, 142437, Note_on_c, 13, 55, 0
13, 142447, Note_on_c, 13, 55, 108
13, 142497, Note_on_c, 13, 55, 0
13, 142507, Note_on_c, 13, 55, 108
13, 142557, Note_on_c, 13, 55, 0
13, 142567, Note_on_c, 13, 43, 108
13, 142617, Note_on_c, 13, 43, 0
13, 142627, Note_on_c, 13, 55, 108
13, 142677, Note_on_c, 13, 55, 0
13, 142687, Control_c, 13, 11, 122
13, 142687, Note_on_c, 13, 55, 108
13, 142705, Control_c, 13, 11, 119
13, 142723, Control_c, 13, 11, 116
13, 142737, Note_on_c, 13, 55, 0
13, 142741, Control_c, 13, 11, 113
13, 142747, Note_on_c, 13, 55, 108
13, 142759, Control_c, 13, 11, 110
13, 142777, Control_c, 13, 11, 107
13, 142795, Control_c, 13, 11, 104
13, 142797, Note_on_c, 13, 55, 0
13, 142807, Note_on_c, 13, 55, 108
13, 142857, Note_on_c, 13, 55, 0
13, 142867, Note_on_c, 13, 55, 108
13, 142917, Note_on_c, 13, 55, 0
13, 142927, Note_on_c, 13, 55, 108
13, 142977, Note_on_c, 13, 55, 0
13, 142987, Note_on_c, 13, 55, 108
13, 143037, Note_on_c, 13, 55, 0
13, 143047, Note_on_c, 13, 55, 108
13, 143097, Note_on_c, 13, 55, 0
13, 143107, Note_on_c, 13, 55, 108
13, 143157, Note_on_c, 13, 55, 0
13, 143167, Note_on_c, 13, 55, 108
13, 143217, Note_on_c, 13, 55, 0
13, 143227, Note_on_c, 13, 55, 108
13, 143277, Note_on_c, 13, 55, 0
13, 143287, Note_on_c, 13, 55, 108
13, 143337, Note_on_c, 13, 55, 0
13, 143347, Note_on_c, 13, 55, 108
13, 143397, Note_on_c, 13, 55, 0
13, 143407, Note_on_c, 13, 55, 108
13, 143457, Note_on_c, 13, 55, 0
13, 143467, Note_on_c, 13, 55, 108
13, 143517, Note_on_c, 13, 55, 0
13, 143527, Note_on_c, 13, 55, 108
13, 143557, Note_on_c, 13, 55, 0
13, 143587, Note_on_c, 13, 57, 108
13, 143617, Note_on_c, 13, 57, 0
13, 143647, Note_on_c, 13, 59, 108
13, 143677, Note_on_c, 13, 59, 0
13, 143707, Note_on_c, 13, 60, 108
13, 143737, Note_on_c, 13, 60, 0
13, 143767, Note_on_c, 13, 62, 108
13, 143767, Control_c, 13, 11, 122
13, 143785, Control_c, 13, 11, 119
13, 143797, Note_on_c, 13, 62, 0
13, 143803, Control_c, 13, 11, 116
13, 143821, Control_c, 13, 11, 113
13, 143827, Note_on_c, 13, 60, 108
13, 143839, Control_c, 13, 11, 110
13, 143857, Note_on_c, 13, 60, 0
13, 143857, Control_c, 13, 11, 107
13, 143875, Control_c, 13, 11, 104
13, 143887, Note_on_c, 13, 59, 108
13, 143917, Note_on_c, 13, 59, 0
13, 143947, Note_on_c, 13, 57, 108
13, 143977, Note_on_c, 13, 57, 0
13, 144007, Note_on_c, 13, 55, 108
13, 144037, Note_on_c, 13, 55, 0
13, 144067, Note_on_c, 13, 57, 108
13, 144097, Note_on_c, 13, 57, 0
13, 144127, Note_on_c, 13, 59, 108
13, 144157, Note_on_c, 13, 59, 0
13, 144187, Note_on_c, 13, 60, 108
13, 144217, Note_on_c, 13, 60, 0
13, 144247, Control_c, 13, 11, 122
13, 144247, Note_on_c, 13, 62, 108
13, 144265, Control_c, 13, 11, 119
13, 144277, Note_on_c, 13, 62, 0
13, 144283, Control_c, 13, 11, 116
13, 144301, Control_c, 13, 11, 113
13, 144307, Note_on_c, 13, 60, 108
13, 144319, Control_c, 13, 11, 110
13, 144337, Note_on_c, 13, 60, 0
13, 144337, Control_c, 13, 11, 107
13, 144355, Control_c, 13, 11, 104
13, 144367, Note_on_c, 13, 59, 108
13, 144397, Note_on_c, 13, 59, 0
13, 144427, Note_on_c, 13, 57, 108
13, 144457, Note_on_c, 13, 57, 0
13, 144487, Note_on_c, 13, 55, 108
13, 144547, Note_on_c, 13, 55, 0
13, 144547, Note_on_c, 13, 54, 108
13, 144607, Note_on_c, 13, 54, 0
13, 144607, Note_on_c, 13, 55, 108
13, 144667, Note_on_c, 13, 55, 0
13, 144667, Note_on_c, 13, 54, 108
13, 144727, Note_on_c, 13, 54, 0
13, 144727, Note_on_c, 13, 55, 108
13, 144787, Note_on_c, 13, 55, 0
13, 144787, Note_on_c, 13, 54, 108
13, 144847, Note_on_c, 13, 54, 0
13, 144847, Note_on_c, 13, 55, 108
13, 144907, Note_on_c, 13, 55, 0
13, 144907, Note_on_c, 13, 54, 108
13, 144957, Note_on_c, 13, 54, 0
13, 144967, Note_on_c, 13, 55, 108
13, 145027, Note_on_c, 13, 55, 0
13, 145027, Note_on_c, 13, 54, 108
13, 145087, Note_on_c, 13, 54, 0
13, 145087, Note_on_c, 13, 55, 108
13, 145147, Note_on_c, 13, 55, 0
13, 145147, Note_on_c, 13, 54, 108
13, 145207, Note_on_c, 13, 54, 0
13, 145207, Control_c, 13, 11, 102
13, 145207, Note_on_c, 13, 55, 108
13, 145220, Control_c, 13, 11, 99
13, 145233, Control_c, 13, 11, 96
13, 145246, Control_c, 13, 11, 93
13, 145259, Control_c, 13, 11, 90
13, 145267, Note_on_c, 13, 55, 0
13, 145267, Note_on_c, 13, 53, 108
13, 145272, Control_c, 13, 11, 87
13, 145285, Control_c, 13, 11, 84
13, 145298, Control_c, 13, 11, 81
13, 145311, Control_c, 13, 11, 78
13, 145324, Control_c, 13, 11, 75
13, 145327, Note_on_c, 13, 53, 0
13, 145327, Note_on_c, 13, 52, 108
13, 145337, Control_c, 13, 11, 72
13, 145351, Control_c, 13, 11, 69
13, 145364, Control_c, 13, 11, 66
13, 145377, Control_c, 13, 11, 63
13, 145387, Note_on_c, 13, 52, 0
13, 145387, Note_on_c, 13, 50, 108
13, 145390, Control_c, 13, 11, 60
13, 145403, Control_c, 13, 11, 57
13, 145416, Control_c, 13, 11, 54
13, 145429, Control_c, 13, 11, 51
13, 145437, Note_on_c, 13, 50, 0
13, 145442, Control_c, 13, 11, 48
13, 145447, Note_on_c, 13, 48, 108
13, 145567, Note_on_c, 13, 48, 0
13, 145927, Note_on_c, 13, 50, 88
13, 146047, Note_on_c, 13, 50, 0
13, 146407, Note_on_c, 13, 55, 88
13, 146527, Note_on_c, 13, 55, 0
13, 146887, Note_on_c, 13, 48, 88
13, 147007, Note_on_c, 13, 48, 0
13, 147367, Note_on_c, 13, 55, 88
13, 147487, Note_on_c, 13, 55, 0
13, 147607, Note_on_c, 13, 55, 108
13, 147607, Control_c, 13, 11, 67
13, 147624, Control_c, 13, 11, 70
13, 147642, Control_c, 13, 11, 73
13, 147660, Control_c, 13, 11, 76
13, 147678, Control_c, 13, 11, 75
13, 147696, Control_c, 13, 11, 72
13, 147714, Control_c, 13, 11, 69
13, 147727, Note_on_c, 13, 55, 0
13, 147727, Note_on_c, 13, 60, 108
13, 147732, Control_c, 13, 11, 66
13, 147750, Control_c, 13, 11, 63
13, 147768, Control_c, 13, 11, 60
13, 147786, Control_c, 13, 11, 57
13, 147804, Control_c, 13, 11, 54
13, 147822, Control_c, 13, 11, 51
13, 147837, Note_on_c, 13, 60, 0
13, 147840, Control_c, 13, 11, 48
13, 147847, Note_on_c, 13, 55, 108
13, 147967, Note_on_c, 13, 55, 0
13, 148087, Control_c, 13, 11, 67
13, 148087, Note_on_c, 13, 55, 108
13, 148104, Control_c, 13, 11, 70
13, 148122, Control_c, 13, 11, 73
13, 148140, Control_c, 13, 11, 76
13, 148158, Control_c, 13, 11, 75
13, 148176, Control_c, 13, 11, 72
13, 148194, Control_c, 13, 11, 69
13, 148207, Note_on_c, 13, 55, 0
13, 148207, Note_on_c, 13, 60, 108
13, 148212, Control_c, 13, 11, 66
13, 148230, Control_c, 13, 11, 63
13, 148248, Control_c, 13, 11, 60
13, 148266, Control_c, 13, 11, 57
13, 148284, Control_c, 13, 11, 54
13, 148302, Control_c, 13, 11, 51
13, 148317, Note_on_c, 13, 60, 0
13, 148320, Control_c, 13, 11, 48
13, 148327, Note_on_c, 13, 62, 108
13, 148447, Note_on_c, 13, 62, 0
13, 148567, Note_on_c, 13, 50, 108
13, 148687, Note_on_c, 13, 50, 0
13, 148807, Note_on_c, 13, 55, 108
13, 148927, Note_on_c, 13, 55, 0
13, 148927, Note_on_c, 13, 65, 108
13, 148927, Control_c, 13, 11, 67
13, 148945, Control_c, 13, 11, 70
13, 148963, Control_c, 13, 11, 73
13, 148981, Control_c, 13, 11, 76
13, 148999, Control_c, 13, 11, 75
13, 149017, Control_c, 13, 11, 72
13, 149035, Control_c, 13, 11, 69
13, 149053, Control_c, 13, 11, 66
13, 149071, Control_c, 13, 11, 63
13, 149089, Control_c, 13, 11, 60
13, 149107, Control_c, 13, 11, 57
13, 149125, Control_c, 13, 11, 54
13, 149143, Control_c, 13, 11, 51
13, 149161, Control_c, 13, 11, 48
13, 149167, Note_on_c, 13, 65, 0
13, 149167, Note_on_c, 13, 62, 108
13, 149277, Note_on_c, 13, 62, 0
13, 149287, Note_on_c, 13, 60, 108
13, 149407, Note_on_c, 13, 60, 0
13, 149767, Note_on_c, 13, 50, 108
13, 149887, Note_on_c, 13, 50, 0
13, 150247, Note_on_c, 13, 43, 108
13, 150367, Note_on_c, 13, 43, 0
13, 150727, Note_on_c, 13, 48, 108
13, 150847, Note_on_c, 13, 48, 0
13, 151087, Note_on_c, 13, 48, 108
13, 151197, Note_on_c, 13, 48, 0
13, 151207, Note_on_c, 13, 53, 108
13, 151327, Note_on_c, 13, 53, 0
13, 151567, Note_on_c, 13, 52, 108
13, 151567, Control_c, 13, 11, 67
13, 151576, Control_c, 13, 11, 70
13, 151585, Control_c, 13, 11, 73
13, 151594, Control_c, 13, 11, 76
13, 151609, Control_c, 13, 11, 73
13, 151618, Control_c, 13, 11, 70
13, 151627, Control_c, 13, 11, 67
13, 151636, Control_c, 13, 11, 64
13, 151645, Control_c, 13, 11, 61
13, 151654, Control_c, 13, 11, 58
13, 151663, Control_c, 13, 11, 55
13, 151672, Control_c, 13, 11, 52
13, 151681, Control_c, 13, 11, 49
13, 151687, Note_on_c, 13, 52, 0
13, 151687, Note_on_c, 13, 53, 108
13, 151747, Note_on_c, 13, 53, 0
13, 152047, Note_on_c, 13, 52, 108
13, 152047, Control_c, 13, 11, 67
13, 152056, Control_c, 13, 11, 70
13, 152065, Control_c, 13, 11, 73
13, 152074, Control_c, 13, 11, 76
13, 152089, Control_c, 13, 11, 73
13, 152098, Control_c, 13, 11, 70
13, 152107, Control_c, 13, 11, 67
13, 152116, Control_c, 13, 11, 64
13, 152125, Control_c, 13, 11, 61
13, 152134, Control_c, 13, 11, 58
13, 152143, Control_c, 13, 11, 55
13, 152152, Control_c, 13, 11, 52
13, 152161, Control_c, 13, 11, 49
13, 152167, Note_on_c, 13, 52, 0
13, 152167, Note_on_c, 13, 53, 108
13, 152227, Note_on_c, 13, 53, 0
13, 152287, Note_on_c, 13, 53, 108
13, 152407, Note_on_c, 13, 53, 0
13, 152407, Note_on_c, 13, 52, 108
13, 152527, Note_on_c, 13, 52, 0
13, 152527, Note_on_c, 13, 50, 108
13, 152637, Note_on_c, 13, 50, 0
13, 152647, Note_on_c, 13, 55, 108
13, 152887, Note_on_c, 13, 55, 0
13, 152887, Note_on_c, 13, 53, 108
13, 153097, Control_c, 13, 11, 47
13, 153099, Control_c, 13, 11, 50
13, 153101, Control_c, 13, 11, 53
13, 153104, Control_c, 13, 11, 57
13, 153107, Note_on_c, 13, 53, 0
13, 153107, Control_c, 13, 11, 61
13, 153110, Control_c, 13, 11, 65
13, 153113, Control_c, 13, 11, 69
13, 153116, Control_c, 13, 11, 73
13, 153119, Control_c, 13, 11, 77
13, 153122, Control_c, 13, 11, 81
13, 153125, Control_c, 13, 11, 85
13, 153127, Note_on_c, 13, 52, 108
13, 153147, Note_on_c, 13, 52, 0
13, 153157, Note_on_c, 13, 52, 108
13, 153177, Note_on_c, 13, 52, 0
13, 153187, Note_on_c, 13, 52, 108
13, 153207, Note_on_c, 13, 52, 0
13, 153217, Note_on_c, 13, 52, 108
13, 153237, Note_on_c, 13, 52, 0
13, 153247, Note_on_c, 13, 52, 108
13, 153307, Note_on_c, 13, 52, 0
13, 153367, Note_on_c, 13, 50, 108
13, 153387, Note_on_c, 13, 50, 0
13, 153397, Note_on_c, 13, 50, 108
13, 153417, Note_on_c, 13, 50, 0
13, 153427, Note_on_c, 13, 50, 108
13, 153447, Note_on_c, 13, 50, 0
13, 153457, Note_on_c, 13, 50, 108
13, 153477, Note_on_c, 13, 50, 0
13, 153487, Note_on_c, 13, 50, 108
13, 153547, Note_on_c, 13, 50, 0
13, 153607, Note_on_c, 13, 48, 108
13, 153627, Note_on_c, 13, 48, 0
13, 153637, Note_on_c, 13, 48, 108
13, 153657, Note_on_c, 13, 48, 0
13, 153667, Note_on_c, 13, 48, 108
13, 153687, Note_on_c, 13, 48, 0
13, 153697, Note_on_c, 13, 48, 108
13, 153717, Note_on_c, 13, 48, 0
13, 153727, Note_on_c, 13, 48, 108
13, 153787, Note_on_c, 13, 48, 0
13, 153847, Note_on_c, 13, 53, 108
13, 153897, Note_on_c, 13, 53, 0
13, 153907, Note_on_c, 13, 53, 108
13, 153957, Note_on_c, 13, 53, 0
13, 153967, Note_on_c, 13, 53, 108
13, 154017, Note_on_c, 13, 53, 0
13, 154027, Note_on_c, 13, 53, 108
13, 154077, Note_on_c, 13, 53, 0
13, 154087, Note_on_c, 13, 52, 108
13, 154107, Note_on_c, 13, 52, 0
13, 154117, Note_on_c, 13, 52, 108
13, 154137, Note_on_c, 13, 52, 0
13, 154147, Note_on_c, 13, 52, 108
13, 154167, Note_on_c, 13, 52, 0
13, 154177, Note_on_c, 13, 52, 108
13, 154197, Note_on_c, 13, 52, 0
13, 154207, Note_on_c, 13, 52, 108
13, 154267, Note_on_c, 13, 52, 0
13, 154327, Note_on_c, 13, 50, 108
13, 154347, Note_on_c, 13, 50, 0
13, 154357, Note_on_c, 13, 50, 108
13, 154377, Note_on_c, 13, 50, 0
13, 154387, Note_on_c, 13, 50, 108
13, 154407, Note_on_c, 13, 50, 0
13, 154417, Note_on_c, 13, 50, 108
13, 154437, Note_on_c, 13, 50, 0
13, 154447, Note_on_c, 13, 50, 108
13, 154507, Note_on_c, 13, 50, 0
13, 154567, Note_on_c, 13, 48, 108
13, 154587, Note_on_c, 13, 48, 0
13, 154597, Note_on_c, 13, 48, 108
13, 154617, Note_on_c, 13, 48, 0
13, 154627, Note_on_c, 13, 48, 108
13, 154647, Note_on_c, 13, 48, 0
13, 154657, Note_on_c, 13, 48, 108
13, 154677, Note_on_c, 13, 48, 0
13, 154687, Note_on_c, 13, 48, 108
13, 154747, Note_on_c, 13, 48, 0
13, 154807, Note_on_c, 13, 53, 108
13, 154847, Note_on_c, 13, 53, 0
13, 154867, Note_on_c, 13, 53, 108
13, 154907, Note_on_c, 13, 53, 0
13, 154927, Note_on_c, 13, 53, 108
13, 154967, Note_on_c, 13, 53, 0
13, 154987, Note_on_c, 13, 53, 108
13, 155027, Note_on_c, 13, 53, 0
13, 155047, Control_c, 13, 11, 107
13, 155047, Note_on_c, 13, 52, 108
13, 155065, Control_c, 13, 11, 104
13, 155083, Control_c, 13, 11, 101
13, 155101, Control_c, 13, 11, 98
13, 155119, Control_c, 13, 11, 95
13, 155137, Control_c, 13, 11, 92
13, 155155, Control_c, 13, 11, 89
13, 155217, Note_on_c, 13, 52, 0
13, 155227, Note_on_c, 13, 50, 108
13, 155277, Note_on_c, 13, 50, 0
13, 155287, Note_on_c, 13, 48, 108
13, 155337, Note_on_c, 13, 48, 0
13, 155347, Note_on_c, 13, 50, 108
13, 155397, Note_on_c, 13, 50, 0
13, 155407, Note_on_c, 13, 51, 108
13, 155457, Note_on_c, 13, 51, 0
13, 155467, Note_on_c, 13, 52, 108
13, 155517, Note_on_c, 13, 52, 0
13, 155527, Note_on_c, 13, 53, 108
13, 155527, Control_c, 13, 11, 107
13, 155545, Control_c, 13, 11, 104
13, 155563, Control_c, 13, 11, 101
13, 155581, Control_c, 13, 11, 98
13, 155599, Control_c, 13, 11, 95
13, 155617, Control_c, 13, 11, 92
13, 155635, Control_c, 13, 11, 89
13, 155697, Note_on_c, 13, 53, 0
13, 155707, Note_on_c, 13, 52, 108
13, 155757, Note_on_c, 13, 52, 0
13, 155767, Note_on_c, 13, 50, 108
13, 155817, Note_on_c, 13, 50, 0
13, 155827, Note_on_c, 13, 52, 108
13, 155877, Note_on_c, 13, 52, 0
13, 155887, Note_on_c, 13, 53, 108
13, 155937, Note_on_c, 13, 53, 0
13, 155947, Note_on_c, 13, 54, 108
13, 155997, Note_on_c, 13, 54, 0
13, 156007, Note_on_c, 13, 55, 108
13, 156007, Control_c, 13, 11, 77
13, 156026, Control_c, 13, 11, 78
13, 156037, Note_on_c, 13, 55, 0
13, 156045, Control_c, 13, 11, 79
13, 156064, Control_c, 13, 11, 80
13, 156067, Note_on_c, 13, 64, 108
13, 156083, Control_c, 13, 11, 81
13, 156097, Note_on_c, 13, 64, 0
13, 156103, Control_c, 13, 11, 82
13, 156122, Control_c, 13, 11, 83
13, 156127, Note_on_c, 13, 62, 108
13, 156141, Control_c, 13, 11, 84
13, 156157, Note_on_c, 13, 62, 0
13, 156160, Control_c, 13, 11, 85
13, 156179, Control_c, 13, 11, 86
13, 156187, Note_on_c, 13, 60, 108
13, 156199, Control_c, 13, 11, 87
13, 156217, Note_on_c, 13, 60, 0
13, 156218, Control_c, 13, 11, 88
13, 156237, Control_c, 13, 11, 89
13, 156247, Note_on_c, 13, 59, 108
13, 156256, Control_c, 13, 11, 90
13, 156275, Control_c, 13, 11, 91
13, 156277, Note_on_c, 13, 59, 0
13, 156295, Control_c, 13, 11, 92
13, 156307, Note_on_c, 13, 57, 108
13, 156314, Control_c, 13, 11, 93
13, 156333, Control_c, 13, 11, 94
13, 156337, Note_on_c, 13, 57, 0
13, 156352, Control_c, 13, 11, 95
13, 156367, Note_on_c, 13, 55, 108
13, 156371, Control_c, 13, 11, 96
13, 156391, Control_c, 13, 11, 97
13, 156397, Note_on_c, 13, 55, 0
13, 156410, Control_c, 13, 11, 98
13, 156427, Note_on_c, 13, 53, 108
13, 156429, Control_c, 13, 11, 99
13, 156448, Control_c, 13, 11, 100
13, 156457, Note_on_c, 13, 53, 0
13, 156467, Control_c, 13, 11, 101
13, 156487, Control_c, 13, 11, 102
13, 156487, Note_on_c, 13, 52, 108
13, 156547, Note_on_c, 13, 52, 0
13, 156607, Note_on_c, 13, 53, 108
13, 156667, Note_on_c, 13, 53, 0
13, 156727, Note_on_c, 13, 55, 108
13, 156787, Note_on_c, 13, 55, 0
13, 156847, Note_on_c, 13, 43, 108
13, 156907, Note_on_c, 13, 43, 0
13, 156967, Note_on_c, 13, 60, 108
13, 156967, Control_c, 13, 11, 87
13, 156970, Control_c, 13, 11, 84
13, 156974, Control_c, 13, 11, 81
13, 156977, Control_c, 13, 11, 78
13, 156981, Control_c, 13, 11, 75
13, 156985, Control_c, 13, 11, 72
13, 156988, Control_c, 13, 11, 69
13, 156992, Control_c, 13, 11, 66
13, 156995, Control_c, 13, 11, 63
13, 156999, Control_c, 13, 11, 60
13, 157003, Control_c, 13, 11, 57
13, 157006, Control_c, 13, 11, 54
13, 157010, Control_c, 13, 11, 51
13, 157013, Control_c, 13, 11, 48
13, 157017, Control_c, 13, 11, 45
13, 157021, Control_c, 13, 11, 42
13, 157024, Control_c, 13, 11, 39
13, 157257, Note_on_c, 13, 60, 0
13, 157267, Note_on_c, 13, 58, 108
13, 157327, Note_on_c, 13, 58, 0
13, 157327, Note_on_c, 13, 56, 108
13, 157387, Note_on_c, 13, 56, 0
13, 157387, Note_on_c, 13, 55, 108
13, 157437, Note_on_c, 13, 55, 0
13, 157447, Note_on_c, 13, 53, 108
13, 157737, Note_on_c, 13, 53, 0
13, 157747, Note_on_c, 13, 51, 108
13, 157807, Note_on_c, 13, 51, 0
13, 157807, Note_on_c, 13, 50, 108
13, 157867, Note_on_c, 13, 50, 0
13, 157867, Note_on_c, 13, 48, 108
13, 157917, Note_on_c, 13, 48, 0
13, 157927, Note_on_c, 13, 46, 108
13, 158217, Note_on_c, 13, 46, 0
13, 158227, Note_on_c, 13, 48, 108
13, 158287, Note_on_c, 13, 48, 0
13, 158287, Note_on_c, 13, 49, 108
13, 158347, Note_on_c, 13, 49, 0
13, 158347, Note_on_c, 13, 50, 108
13, 158397, Note_on_c, 13, 50, 0
13, 158407, Note_on_c, 13, 51, 108
13, 158697, Note_on_c, 13, 51, 0
13, 158707, Note_on_c, 13, 53, 108
13, 158767, Note_on_c, 13, 53, 0
13, 158767, Note_on_c, 13, 54, 108
13, 158827, Note_on_c, 13, 54, 0
13, 158827, Note_on_c, 13, 55, 108
13, 158877, Note_on_c, 13, 55, 0
13, 158887, Note_on_c, 13, 56, 108
13, 158947, Note_on_c, 13, 56, 0
13, 158947, Note_on_c, 13, 55, 108
13, 158997, Note_on_c, 13, 55, 0
13, 159007, Note_on_c, 13, 56, 108
13, 159037, Note_on_c, 13, 56, 0
13, 159067, Note_on_c, 13, 57, 108
13, 159097, Note_on_c, 13, 57, 0
13, 159127, Note_on_c, 13, 58, 108
13, 159187, Note_on_c, 13, 58, 0
13, 159187, Note_on_c, 13, 57, 108
13, 159237, Note_on_c, 13, 57, 0
13, 159247, Note_on_c, 13, 58, 108
13, 159277, Note_on_c, 13, 58, 0
13, 159307, Note_on_c, 13, 58, 108
13, 159337, Note_on_c, 13, 58, 0
13, 159367, Note_on_c, 13, 59, 108
13, 159657, Note_on_c, 13, 59, 0
13, 159667, Note_on_c, 13, 55, 108
13, 159727, Note_on_c, 13, 55, 0
13, 159727, Note_on_c, 13, 57, 108
13, 159787, Note_on_c, 13, 57, 0
13, 159787, Note_on_c, 13, 59, 108
13, 159837, Note_on_c, 13, 59, 0
13, 159847, Note_on_c, 13, 60, 108
13, 160137, Note_on_c, 13, 60, 0
13, 160147, Note_on_c, 13, 48, 108
13, 160207, Note_on_c, 13, 48, 0
13, 160207, Note_on_c, 13, 50, 108
13, 160267, Note_on_c, 13, 50, 0
13, 160267, Note_on_c, 13, 51, 108
13, 160317, Note_on_c, 13, 51, 0
13, 160327, Note_on_c, 13, 53, 108
13, 160387, Note_on_c, 13, 53, 0
13, 160387, Note_on_c, 13, 52, 108
13, 160437, Note_on_c, 13, 52, 0
13, 160447, Note_on_c, 13, 53, 108
13, 160477, Note_on_c, 13, 53, 0
13, 160507, Note_on_c, 13, 53, 108
13, 160537, Note_on_c, 13, 53, 0
13, 160567, Note_on_c, 13, 54, 108
13, 160627, Note_on_c, 13, 54, 0
13, 160627, Note_on_c, 13, 53, 108
13, 160677, Note_on_c, 13, 53, 0
13, 160687, Note_on_c, 13, 54, 108
13, 160717, Note_on_c, 13, 54, 0
13, 160747, Note_on_c, 13, 54, 108
13, 160777, Note_on_c, 13, 54, 0
13, 160807, Note_on_c, 13, 55, 108
13, 160927, Control_c, 13, 11, 37
13, 160953, Control_c, 13, 11, 38
13, 160979, Control_c, 13, 11, 39
13, 161006, Control_c, 13, 11, 40
13, 161032, Control_c, 13, 11, 41
13, 161059, Control_c, 13, 11, 42
13, 161085, Control_c, 13, 11, 43
13, 161097, Note_on_c, 13, 55, 0
13, 161107, Note_on_c, 13, 54, 108
13, 161111, Control_c, 13, 11, 44
13, 161138, Control_c, 13, 11, 45
13, 161164, Control_c, 13, 11, 46
13, 161167, Note_on_c, 13, 54, 0
13, 161167, Note_on_c, 13, 55, 108
13, 161191, Control_c, 13, 11, 47
13, 161217, Control_c, 13, 11, 48
13, 161227, Note_on_c, 13, 55, 0
13, 161227, Note_on_c, 13, 56, 108
13, 161243, Control_c, 13, 11, 49
13, 161270, Control_c, 13, 11, 50
13, 161277, Note_on_c, 13, 56, 0
13, 161287, Note_on_c, 13, 57, 108
13, 161296, Control_c, 13, 11, 51
13, 161323, Control_c, 13, 11, 52
13, 161349, Control_c, 13, 11, 53
13, 161375, Control_c, 13, 11, 54
13, 161402, Control_c, 13, 11, 55
13, 161428, Control_c, 13, 11, 56
13, 161455, Control_c, 13, 11, 57
13, 161481, Control_c, 13, 11, 58
13, 161507, Control_c, 13, 11, 59
13, 161534, Control_c, 13, 11, 60
13, 161560, Control_c, 13, 11, 61
13, 161577, Note_on_c, 13, 57, 0
13, 161587, Control_c, 13, 11, 62
13, 161587, Note_on_c, 13, 55, 108
13, 161613, Control_c, 13, 11, 63
13, 161639, Control_c, 13, 11, 64
13, 161647, Note_on_c, 13, 55, 0
13, 161647, Note_on_c, 13, 53, 108
13, 161666, Control_c, 13, 11, 65
13, 161692, Control_c, 13, 11, 66
13, 161707, Note_on_c, 13, 53, 0
13, 161707, Note_on_c, 13, 52, 108
13, 161719, Control_c, 13, 11, 67
13, 161745, Control_c, 13, 11, 68
13, 161757, Note_on_c, 13, 52, 0
13, 161767, Note_on_c, 13, 53, 108
13, 161771, Control_c, 13, 11, 69
13, 161798, Control_c, 13, 11, 70
13, 161824, Control_c, 13, 11, 71
13, 161827, Note_on_c, 13, 53, 0
13, 161827, Note_on_c, 13, 52, 108
13, 161851, Control_c, 13, 11, 72
13, 161877, Control_c, 13, 11, 73
13, 161887, Note_on_c, 13, 52, 0
13, 161887, Note_on_c, 13, 53, 108
13, 161903, Control_c, 13, 11, 74
13, 161930, Control_c, 13, 11, 75
13, 161947, Note_on_c, 13, 53, 0
13, 161947, Note_on_c, 13, 54, 108
13, 161956, Control_c, 13, 11, 76
13, 161983, Control_c, 13, 11, 77
13, 161997, Note_on_c, 13, 54, 0
13, 162007, Note_on_c, 13, 55, 108
13, 162009, Control_c, 13, 11, 78
13, 162035, Control_c, 13, 11, 79
13, 162062, Control_c, 13, 11, 80
13, 162067, Note_on_c, 13, 55, 0
13, 162067, Note_on_c, 13, 54, 108
13, 162088, Control_c, 13, 11, 81
13, 162115, Control_c, 13, 11, 82
13, 162127, Note_on_c, 13, 54, 0
13, 162127, Note_on_c, 13, 55, 108
13, 162141, Control_c, 13, 11, 83
13, 162167, Control_c, 13, 11, 84
13, 162187, Note_on_c, 13, 55, 0
13, 162187, Note_on_c, 13, 43, 108
13, 162194, Control_c, 13, 11, 85
13, 162220, Control_c, 13, 11, 86
13, 162237, Note_on_c, 13, 43, 0
13, 162247, Note_on_c, 13, 48, 108
13, 162247, Control_c, 13, 11, 87
13, 162307, Note_on_c, 13, 48, 0
13, 162367, Note_on_c, 13, 43, 108
13, 162457, Note_on_c, 13, 43, 0
13, 162457, Note_on_c, 13, 47, 108
13, 162477, Note_on_c, 13, 47, 0
13, 162487, Note_on_c, 13, 48, 108
13, 162487, Control_c, 13, 11, 107
13, 162505, Control_c, 13, 11, 104
13, 162523, Control_c, 13, 11, 101
13, 162541, Control_c, 13, 11, 98
13, 162559, Control_c, 13, 11, 95
13, 162577, Control_c, 13, 11, 92
13, 162595, Control_c, 13, 11, 89
13, 162837, Note_on_c, 13, 48, 0
13, 162847, Note_on_c, 13, 43, 108
13, 162937, Note_on_c, 13, 43, 0
13, 162937, Note_on_c, 13, 47, 108
13, 162957, Note_on_c, 13, 47, 0
13, 162967, Note_on_c, 13, 48, 108
13, 162967, Control_c, 13, 11, 107
13, 162985, Control_c, 13, 11, 104
13, 163003, Control_c, 13, 11, 101
13, 163021, Control_c, 13, 11, 98
13, 163039, Control_c, 13, 11, 95
13, 163057, Control_c, 13, 11, 92
13, 163075, Control_c, 13, 11, 89
13, 163327, Note_on_c, 13, 48, 0
13, 163447, Note_on_c, 13, 55, 108
13, 163447, Control_c, 13, 11, 107
13, 163465, Control_c, 13, 11, 104
13, 163483, Control_c, 13, 11, 101
13, 163501, Control_c, 13, 11, 98
13, 163519, Control_c, 13, 11, 95
13, 163537, Control_c, 13, 11, 92
13, 163555, Control_c, 13, 11, 89
13, 163567, Note_on_c, 13, 55, 0
13, 163687, Control_c, 13, 11, 107
13, 163687, Note_on_c, 13, 60, 108
13, 163705, Control_c, 13, 11, 104
13, 163723, Control_c, 13, 11, 101
13, 163741, Control_c, 13, 11, 98
13, 163759, Control_c, 13, 11, 95
13, 163777, Control_c, 13, 11, 92
13, 163795, Control_c, 13, 11, 89
13, 163807, Note_on_c, 13, 60, 0
13, 163927, Note_on_c, 13, 62, 108
13, 163927, Control_c, 13, 11, 107
13, 163945, Control_c, 13, 11, 104
13, 163963, Control_c, 13, 11, 101
13, 163981, Control_c, 13, 11, 98
13, 163999, Control_c, 13, 11, 95
13, 164017, Control_c, 13, 11, 92
13, 164035, Control_c, 13, 11, 89
13, 164047, Note_on_c, 13, 62, 0
13, 164167, Note_on_c, 13, 52, 108
13, 164227, Note_on_c, 13, 52, 0
13, 164287, Note_on_c, 13, 55, 108
13, 164347, Note_on_c, 13, 55, 0
13, 164407, Note_on_c, 13, 60, 108
13, 164467, Note_on_c, 13, 60, 0
13, 164527, Note_on_c, 13, 64, 108
13, 164587, Note_on_c, 13, 64, 0
13, 164647, Note_on_c, 13, 50, 108
13, 164707, Note_on_c, 13, 50, 0
13, 164767, Note_on_c, 13, 53, 108
13, 164827, Note_on_c, 13, 53, 0
13, 164887, Note_on_c, 13, 59, 108
13, 164947, Note_on_c, 13, 59, 0
13, 165007, Note_on_c, 13, 62, 108
13, 165067, Note_on_c, 13, 62, 0
13, 165127, Note_on_c, 13, 49, 108
13, 165127, Control_c, 13, 11, 102
13, 165187, Note_on_c, 13, 49, 0
13, 165247, Note_on_c, 13, 52, 108
13, 165307, Note_on_c, 13, 52, 0
13, 165367, Note_on_c, 13, 57, 108
13, 165427, Note_on_c, 13, 57, 0
13, 165487, Note_on_c, 13, 61, 108
13, 165547, Note_on_c, 13, 61, 0
13, 165607, Note_on_c, 13, 55, 108
13, 165667, Note_on_c, 13, 55, 0
13, 165727, Note_on_c, 13, 67, 108
13, 165787, Note_on_c, 13, 67, 0
13, 165847, Note_on_c, 13, 67, 108
13, 165907, Note_on_c, 13, 67, 0
13, 165967, Note_on_c, 13, 67, 108
13, 166027, Note_on_c, 13, 67, 0
13, 166087, Note_on_c, 13, 53, 108
13, 166147, Note_on_c, 13, 53, 0
13, 166207, Note_on_c, 13, 57, 108
13, 166267, Note_on_c, 13, 57, 0
13, 166327, Note_on_c, 13, 62, 108
13, 166387, Note_on_c, 13, 62, 0
13, 166447, Note_on_c, 13, 65, 108
13, 166507, Note_on_c, 13, 65, 0
13, 166567, Note_on_c, 13, 54, 108
13, 166627, Note_on_c, 13, 54, 0
13, 166687, Note_on_c, 13, 60, 108
13, 166747, Note_on_c, 13, 60, 0
13, 166807, Note_on_c, 13, 57, 108
13, 166867, Note_on_c, 13, 57, 0
13, 166927, Note_on_c, 13, 54, 108
13, 166987, Note_on_c, 13, 54, 0
13, 167047, Control_c, 13, 11, 122
13, 167047, Note_on_c, 13, 55, 108
13, 167064, Control_c, 13, 11, 119
13, 167082, Control_c, 13, 11, 116
13, 167097, Note_on_c, 13, 55, 0
13, 167100, Control_c, 13, 11, 113
13, 167107, Note_on_c, 13, 55, 108
13, 167118, Control_c, 13, 11, 110
13, 167136, Control_c, 13, 11, 107
13, 167154, Control_c, 13, 11, 104
13, 167157, Note_on_c, 13, 55, 0
13, 167167, Note_on_c, 13, 55, 108
13, 167217, Note_on_c, 13, 55, 0
13, 167227, Note_on_c, 13, 55, 108
13, 167277, Note_on_c, 13, 55, 0
13, 167287, Control_c, 13, 11, 122
13, 167287, Note_on_c, 13, 57, 108
13, 167304, Control_c, 13, 11, 119
13, 167322, Control_c, 13, 11, 116
13, 167337, Note_on_c, 13, 57, 0
13, 167340, Control_c, 13, 11, 113
13, 167347, Note_on_c, 13, 57, 108
13, 167358, Control_c, 13, 11, 110
13, 167376, Control_c, 13, 11, 107
13, 167394, Control_c, 13, 11, 104
13, 167397, Note_on_c, 13, 57, 0
13, 167407, Note_on_c, 13, 57, 108
13, 167457, Note_on_c, 13, 57, 0
13, 167467, Note_on_c, 13, 57, 108
13, 167517, Note_on_c, 13, 57, 0
13, 167527, Control_c, 13, 11, 122
13, 167527, Note_on_c, 13, 53, 108
13, 167544, Control_c, 13, 11, 119
13, 167562, Control_c, 13, 11, 116
13, 167577, Note_on_c, 13, 53, 0
13, 167580, Control_c, 13, 11, 113
13, 167587, Note_on_c, 13, 53, 108
13, 167598, Control_c, 13, 11, 110
13, 167616, Control_c, 13, 11, 107
13, 167634, Control_c, 13, 11, 104
13, 167637, Note_on_c, 13, 53, 0
13, 167647, Note_on_c, 13, 53, 108
13, 167697, Note_on_c, 13, 53, 0
13, 167707, Note_on_c, 13, 53, 108
13, 167757, Note_on_c, 13, 53, 0
13, 167767, Note_on_c, 13, 55, 108
13, 167767, Control_c, 13, 11, 122
13, 167784, Control_c, 13, 11, 119
13, 167802, Control_c, 13, 11, 116
13, 167817, Note_on_c, 13, 55, 0
13, 167820, Control_c, 13, 11, 113
13, 167827, Note_on_c, 13, 55, 108
13, 167838, Control_c, 13, 11, 110
13, 167856, Control_c, 13, 11, 107
13, 167874, Control_c, 13, 11, 104
13, 167877, Note_on_c, 13, 55, 0
13, 167887, Note_on_c, 13, 55, 108
13, 167937, Note_on_c, 13, 55, 0
13, 167947, Note_on_c, 13, 55, 108
13, 167997, Note_on_c, 13, 55, 0
13, 168007, Note_on_c, 13, 48, 108
13, 168127, Note_on_c, 13, 48, 0
13, 168847, Control_c, 13, 11, 70
13, 168847, Note_on_c, 13, 43, 108
13, 168853, Control_c, 13, 11, 73
13, 168859, Control_c, 13, 11, 76
13, 168865, Control_c, 13, 11, 79
13, 168879, Control_c, 13, 11, 76
13, 168888, Control_c, 13, 11, 73
13, 168897, Control_c, 13, 11, 70
13, 168906, Control_c, 13, 11, 67
13, 168915, Control_c, 13, 11, 64
13, 168924, Control_c, 13, 11, 61
13, 168933, Control_c, 13, 11, 58
13, 168942, Control_c, 13, 11, 55
13, 168951, Control_c, 13, 11, 52
13, 168960, Control_c, 13, 11, 49
13, 168967, Note_on_c, 13, 43, 0
13, 168967, Note_on_c, 13, 48, 108
13, 169087, Note_on_c, 13, 48, 0
13, 169807, Control_c, 13, 11, 70
13, 169807, Note_on_c, 13, 43, 108
13, 169813, Control_c, 13, 11, 73
13, 169819, Control_c, 13, 11, 76
13, 169825, Control_c, 13, 11, 79
13, 169839, Control_c, 13, 11, 76
13, 169848, Control_c, 13, 11, 73
13, 169857, Control_c, 13, 11, 70
13, 169866, Control_c, 13, 11, 67
13, 169875, Control_c, 13, 11, 64
13, 169884, Control_c, 13, 11, 61
13, 169893, Control_c, 13, 11, 58
13, 169902, Control_c, 13, 11, 55
13, 169911, Control_c, 13, 11, 52
13, 169920, Control_c, 13, 11, 49
13, 169927, Note_on_c, 13, 43, 0
13, 169927, Note_on_c, 13, 48, 108
13, 170047, Note_on_c, 13, 48, 0
13, 170287, Control_c, 13, 11, 70
13, 170287, Note_on_c, 13, 43, 108
13, 170295, Control_c, 13, 11, 73
13, 170304, Control_c, 13, 11, 76
13, 170313, Control_c, 13, 11, 79
13, 170319, Control_c, 13, 11, 76
13, 170328, Control_c, 13, 11, 73
13, 170337, Control_c, 13, 11, 70
13, 170346, Control_c, 13, 11, 67
13, 170355, Control_c, 13, 11, 64
13, 170364, Control_c, 13, 11, 61
13, 170373, Control_c, 13, 11, 58
13, 170382, Control_c, 13, 11, 55
13, 170391, Control_c, 13, 11, 52
13, 170400, Control_c, 13, 11, 49
13, 170407, Note_on_c, 13, 43, 0
13, 170407, Note_on_c, 13, 48, 108
13, 170527, Note_on_c, 13, 48, 0
13, 170767, Note_on_c, 13, 43, 108
13, 170767, Control_c, 13, 11, 122
13, 170827, Note_on_c, 13, 43, 0
13, 170887, Note_on_c, 13, 48, 88
13, 170947, Note_on_c, 13, 48, 0
13, 171847, Control_c, 13, 11, 47
13, 171847, Note_on_c, 13, 60, 93
13, 171967, Note_on_c, 13, 60, 0
13, 172927, Note_on_c, 13, 48, 108
13, 173017, Note_on_c, 13, 48, 0
13, 173017, Note_on_c, 13, 52, 108
13, 173037, Note_on_c, 13, 52, 0
13, 173047, Note_on_c, 13, 53, 93
13, 173107, Note_on_c, 13, 53, 0
13, 173767, Note_on_c, 13, 45, 93
13, 173887, Note_on_c, 13, 45, 0
13, 174847, Note_on_c, 13, 45, 108
13, 174937, Note_on_c, 13, 45, 0
13, 174937, Note_on_c, 13, 49, 108
13, 174957, Note_on_c, 13, 49, 0
13, 174967, Note_on_c, 13, 50, 93
13, 175027, Note_on_c, 13, 50, 0
13, 175687, Note_on_c, 13, 43, 108
13, 175807, Note_on_c, 13, 43, 0
13, 176647, Control_c, 13, 11, 102
13, 176647, Note_on_c, 13, 48, 108
13, 176707, Note_on_c, 13, 48, 0
13, 176767, Note_on_c, 13, 48, 108
13, 176827, Note_on_c, 13, 48, 0
13, 177007, Note_on_c, 13, 53, 108
13, 177067, Note_on_c, 13, 53, 0
13, 177247, Note_on_c, 13, 55, 108
13, 177307, Note_on_c, 13, 55, 0
13, 177487, Note_on_c, 13, 56, 108
13, 177547, Note_on_c, 13, 56, 0
13, 177727, Note_on_c, 13, 57, 108
13, 177787, Note_on_c, 13, 57, 0
13, 177967, Note_on_c, 13, 53, 108
13, 178027, Note_on_c, 13, 53, 0
13, 178207, Note_on_c, 13, 55, 108
13, 178267, Note_on_c, 13, 55, 0
13, 178447, Note_on_c, 13, 56, 108
13, 178507, Note_on_c, 13, 56, 0
13, 178687, Note_on_c, 13, 57, 108
13, 178747, Note_on_c, 13, 57, 0
13, 178927, Note_on_c, 13, 53, 108
13, 178987, Note_on_c, 13, 53, 0
13, 179167, Note_on_c, 13, 55, 108
13, 179227, Note_on_c, 13, 55, 0
13, 179407, Note_on_c, 13, 43, 108
13, 179467, Note_on_c, 13, 43, 0
13, 179527, Note_on_c, 13, 48, 118
13, 179877, Note_on_c, 13, 48, 0
13, 179887, Note_on_c, 13, 43, 127
13, 179977, Note_on_c, 13, 43, 0
13, 179977, Note_on_c, 13, 47, 127
13, 179997, Note_on_c, 13, 47, 0
13, 180007, Note_on_c, 13, 48, 127
13, 180037, Note_on_c, 13, 48, 0
13, 180067, Note_on_c, 13, 48, 127
13, 180097, Note_on_c, 13, 48, 0
13, 180127, Note_on_c, 13, 43, 127
13, 180157, Note_on_c, 13, 43, 0
13, 180187, Note_on_c, 13, 47, 127
13, 180217, Note_on_c, 13, 47, 0
13, 180247, Note_on_c, 13, 48, 127
13, 180277, Note_on_c, 13, 48, 0
13, 180307, Note_on_c, 13, 48, 127
13, 180337, Note_on_c, 13, 48, 0
13, 180367, Note_on_c, 13, 43, 127
13, 180397, Note_on_c, 13, 43, 0
13, 180427, Note_on_c, 13, 47, 127
13, 180457, Note_on_c, 13, 47, 0
13, 180487, Note_on_c, 13, 48, 127
13, 180607, Note_on_c, 13, 48, 0
13, 181087, Note_on_c, 13, 60, 118
13, 181147, Note_on_c, 13, 60, 0
13, 181207, Note_on_c, 13, 55, 118
13, 181267, Note_on_c, 13, 55, 0
13, 181327, Note_on_c, 13, 52, 118
13, 181387, Note_on_c, 13, 52, 0
13, 181447, Control_c, 13, 11, 122
13, 181447, Note_on_c, 13, 48, 118
13, 181465, Control_c, 13, 11, 119
13, 181483, Control_c, 13, 11, 116
13, 181501, Control_c, 13, 11, 113
13, 181519, Control_c, 13, 11, 110
13, 181537, Control_c, 13, 11, 107
13, 181555, Control_c, 13, 11, 104
13, 181797, Note_on_c, 13, 48, 0
13, 181807, Note_on_c, 13, 43, 127
13, 181897, Note_on_c, 13, 43, 0
13, 181897, Note_on_c, 13, 47, 127
13, 181917, Note_on_c, 13, 47, 0
13, 181927, Note_on_c, 13, 48, 127
13, 181957, Note_on_c, 13, 48, 0
13, 181987, Note_on_c, 13, 48, 127
13, 182017, Note_on_c, 13, 48, 0
13, 182047, Note_on_c, 13, 43, 127
13, 182077, Note_on_c, 13, 43, 0
13, 182107, Note_on_c, 13, 47, 127
13, 182137, Note_on_c, 13, 47, 0
13, 182167, Note_on_c, 13, 48, 127
13, 182197, Note_on_c, 13, 48, 0
13, 182227, Note_on_c, 13, 48, 127
13, 182257, Note_on_c, 13, 48, 0
13, 182287, Note_on_c, 13, 43, 127
13, 182317, Note_on_c, 13, 43, 0
13, 182347, Note_on_c, 13, 47, 127
13, 182377, Note_on_c, 13, 47, 0
13, 182407, Note_on_c, 13, 48, 127
13, 182527, Note_on_c, 13, 48, 0
13, 183007, Note_on_c, 13, 60, 118
13, 183067, Note_on_c, 13, 60, 0
13, 183127, Note_on_c, 13, 55, 118
13, 183187, Note_on_c, 13, 55, 0
13, 183247, Note_on_c, 13, 52, 118
13, 183307, Note_on_c, 13, 52, 0
13, 183367, Note_on_c, 13, 48, 118
13, 183367, Control_c, 13, 11, 122
13, 183385, Control_c, 13, 11, 119
13, 183403, Control_c, 13, 11, 116
13, 183421, Control_c, 13, 11, 113
13, 183439, Control_c, 13, 11, 110
13, 183457, Control_c, 13, 11, 107
13, 183475, Control_c, 13, 11, 104
13, 183717, Note_on_c, 13, 48, 0
13, 183727, Note_on_c, 13, 43, 127
13, 183817, Note_on_c, 13, 43, 0
13, 183817, Note_on_c, 13, 47, 127
13, 183837, Note_on_c, 13, 47, 0
13, 183847, Note_on_c, 13, 48, 127
13, 183877, Note_on_c, 13, 48, 0
13, 183907, Note_on_c, 13, 48, 127
13, 183937, Note_on_c, 13, 48, 0
13, 183967, Note_on_c, 13, 43, 127
13, 183997, Note_on_c, 13, 43, 0
13, 184027, Note_on_c, 13, 47, 127
13, 184057, Note_on_c, 13, 47, 0
13, 184087, Note_on_c, 13, 48, 127
13, 184117, Note_on_c, 13, 48, 0
13, 184147, Note_on_c, 13, 48, 127
13, 184177, Note_on_c, 13, 48, 0
13, 184207, Note_on_c, 13, 43, 127
13, 184237, Note_on_c, 13, 43, 0
13, 184267, Note_on_c, 13, 47, 127
13, 184297, Note_on_c, 13, 47, 0
13, 184327, Note_on_c, 13, 48, 127
13, 184447, Note_on_c, 13, 48, 0
13, 184927, Note_on_c, 13, 55, 118
13, 184987, Note_on_c, 13, 55, 0
13, 185047, Note_on_c, 13, 60, 118
13, 185107, Note_on_c, 13, 60, 0
13, 185167, Note_on_c, 13, 64, 118
13, 185227, Note_on_c, 13, 64, 0
13, 185287, Note_on_c, 13, 67, 118
13, 185347, Note_on_c, 13, 67, 0
13, 185407, Note_on_c, 13, 64, 118
13, 185467, Note_on_c, 13, 64, 0
13, 185527, Note_on_c, 13, 60, 118
13, 185587, Note_on_c, 13, 60, 0
13, 185647, Note_on_c, 13, 55, 118
13, 185707, Note_on_c, 13, 55, 0
13, 185767, Note_on_c, 13, 64, 118
13, 185827, Note_on_c, 13, 64, 0
13, 185887, Note_on_c, 13, 60, 118
13, 185947, Note_on_c, 13, 60, 0
13, 186007, Note_on_c, 13, 55, 118
13, 186067, Note_on_c, 13, 55, 0
13, 186127, Note_on_c, 13, 52, 118
13, 186187, Note_on_c, 13, 52, 0
13, 186247, Note_on_c, 13, 60, 118
13, 186307, Note_on_c, 13, 60, 0
13, 186367, Note_on_c, 13, 55, 118
13, 186427, Note_on_c, 13, 55, 0
13, 186487, Note_on_c, 13, 52, 118
13, 186547, Note_on_c, 13, 52, 0
13, 186607, Note_on_c, 13, 48, 118
13, 186667, Note_on_c, 13, 48, 0
13, 186727, Note_on_c, 13, 43, 118
13, 186787, Note_on_c, 13, 43, 0
13, 186847, Note_on_c, 13, 48, 118
13, 186907, Note_on_c, 13, 48, 0
13, 186967, Note_on_c, 13, 43, 118
13, 187027, Note_on_c, 13, 43, 0
13, 187087, Note_on_c, 13, 40, 118
13, 187147, Note_on_c, 13, 40, 0
13, 187207, Note_on_c, 13, 36, 123
13, 187327, Note_on_c, 13, 36, 0
13, 187687, Note_on_c, 13, 48, 108
13, 187807, Note_on_c, 13, 48, 0
13, 188167, Note_on_c, 13, 48, 108
13, 188287, Note_on_c, 13, 48, 0
13, 188647, Control_c, 13, 11, 112
13, 188647, Note_on_c, 13, 36, 108
13, 188647, Note_on_c, 13, 48, 108
13, 188659, Control_c, 13, 11, 109
13, 188671, Control_c, 13, 11, 106
13, 188683, Control_c, 13, 11, 103
13, 188767, Note_on_c, 13, 48, 0
13, 188767, Note_on_c, 13, 36, 0
13, 188887, Note_on_c, 13, 36, 108
13, 188887, Note_on_c, 13, 48, 108
13, 188887, Control_c, 13, 11, 112
13, 188899, Control_c, 13, 11, 109
13, 188911, Control_c, 13, 11, 106
13, 188923, Control_c, 13, 11, 103
13, 189007, Note_on_c, 13, 48, 0
13, 189007, Note_on_c, 13, 36, 0
13, 189127, Control_c, 13, 11, 112
13, 189127, Note_on_c, 13, 48, 108
13, 189127, Note_on_c, 13, 36, 108
13, 189139, Control_c, 13, 11, 109
13, 189151, Control_c, 13, 11, 106
13, 189163, Control_c, 13, 11, 103
13, 189227, Control_c, 13, 11, 102
13, 189229, Control_c, 13, 11, 98
13, 189231, Control_c, 13, 11, 94
13, 189233, Control_c, 13, 11, 90
13, 189235, Control_c, 13, 11, 87
13, 189237, Control_c, 13, 11, 83
13, 189239, Control_c, 13, 11, 79
13, 189241, Control_c, 13, 11, 76
13, 189243, Control_c, 13, 11, 72
13, 189245, Control_c, 13, 11, 68
13, 189247, Note_on_c, 13, 36, 0
13, 189247, Note_on_c, 13, 48, 0
13, 189607, Control_c, 13, 121, 0
13, 189607, End_track
14, 0, Start_track
14, 0, MIDI_port, 0
14, 0, Title_t, "Contrabasse"
14, 0, Program_c, 14, 48
14, 0, Control_c, 14, 10, 127
14, 11, Control_c, 14, 121, 0
14, 16, Program_c, 14, 45
14, 21, Pitch_bend_c, 14, 8492
14, 26, Control_c, 14, 11, 100
14, 31, Control_c, 14, 7, 127
14, 36, Control_c, 14, 91, 75
14, 41, Control_c, 14, 93, 0
14, 46, Control_c, 14, 10, 127
14, 51, Control_c, 14, 1, 36
14, 491, Note_on_c, 14, 48, 46
14, 611, Note_on_c, 14, 48, 0
14, 731, Note_on_c, 14, 41, 24
14, 851, Note_on_c, 14, 41, 0
14, 971, Note_on_c, 14, 43, 46
14, 1091, Note_on_c, 14, 43, 0
14, 1211, Note_on_c, 14, 45, 24
14, 1331, Note_on_c, 14, 45, 0
14, 1451, Note_on_c, 14, 38, 33
14, 1571, Note_on_c, 14, 38, 0
14, 1691, Note_on_c, 14, 38, 46
14, 1811, Note_on_c, 14, 38, 0
14, 1811, Note_on_c, 14, 38, 64
14, 1930, Program_c, 14, 48
14, 1931, Note_on_c, 14, 38, 0
14, 1931, Note_on_c, 14, 31, 106
14, 1931, Control_c, 14, 11, 57
14, 1933, Control_c, 14, 11, 61
14, 1935, Control_c, 14, 11, 65
14, 1937, Control_c, 14, 11, 69
14, 1939, Control_c, 14, 11, 73
14, 1941, Control_c, 14, 11, 77
14, 1943, Control_c, 14, 11, 81
14, 1945, Control_c, 14, 11, 85
14, 2051, Note_on_c, 14, 31, 0
14, 2411, Note_on_c, 14, 31, 106
14, 2411, Control_c, 14, 11, 32
14, 2415, Control_c, 14, 11, 35
14, 2419, Control_c, 14, 11, 38
14, 2423, Control_c, 14, 11, 41
14, 2427, Control_c, 14, 11, 44
14, 2431, Control_c, 14, 11, 47
14, 2471, Note_on_c, 14, 31, 0
14, 2471, Note_on_c, 14, 43, 106
14, 2531, Note_on_c, 14, 43, 0
14, 2531, Note_on_c, 14, 43, 106
14, 2591, Note_on_c, 14, 43, 0
14, 2591, Note_on_c, 14, 43, 106
14, 2651, Note_on_c, 14, 43, 0
14, 2651, Note_on_c, 14, 41, 106
14, 2711, Note_on_c, 14, 41, 0
14, 2711, Note_on_c, 14, 41, 106
14, 2771, Note_on_c, 14, 41, 0
14, 2771, Note_on_c, 14, 41, 106
14, 2831, Note_on_c, 14, 41, 0
14, 2831, Note_on_c, 14, 41, 106
14, 2891, Note_on_c, 14, 41, 0
14, 2891, Note_on_c, 14, 40, 106
14, 2951, Note_on_c, 14, 40, 0
14, 2951, Note_on_c, 14, 40, 106
14, 3011, Note_on_c, 14, 40, 0
14, 3011, Note_on_c, 14, 40, 106
14, 3071, Note_on_c, 14, 40, 0
14, 3071, Note_on_c, 14, 40, 106
14, 3131, Note_on_c, 14, 40, 0
14, 3131, Note_on_c, 14, 40, 106
14, 3191, Note_on_c, 14, 40, 0
14, 3191, Note_on_c, 14, 40, 106
14, 3251, Note_on_c, 14, 40, 0
14, 3251, Note_on_c, 14, 40, 106
14, 3311, Note_on_c, 14, 40, 0
14, 3311, Note_on_c, 14, 40, 106
14, 3371, Note_on_c, 14, 40, 0
14, 3371, Control_c, 14, 11, 47
14, 3371, Note_on_c, 14, 35, 106
14, 3395, Control_c, 14, 11, 49
14, 3419, Control_c, 14, 11, 51
14, 3431, Note_on_c, 14, 35, 0
14, 3431, Note_on_c, 14, 47, 106
14, 3443, Control_c, 14, 11, 53
14, 3467, Control_c, 14, 11, 55
14, 3491, Note_on_c, 14, 47, 0
14, 3491, Note_on_c, 14, 47, 106
14, 3491, Control_c, 14, 11, 57
14, 3515, Control_c, 14, 11, 59
14, 3539, Control_c, 14, 11, 61
14, 3551, Note_on_c, 14, 47, 0
14, 3551, Note_on_c, 14, 47, 106
14, 3563, Control_c, 14, 11, 63
14, 3587, Control_c, 14, 11, 65
14, 3611, Note_on_c, 14, 47, 0
14, 3611, Note_on_c, 14, 47, 106
14, 3611, Control_c, 14, 11, 67
14, 3635, Control_c, 14, 11, 69
14, 3659, Control_c, 14, 11, 71
14, 3671, Note_on_c, 14, 47, 0
14, 3671, Note_on_c, 14, 47, 106
14, 3683, Control_c, 14, 11, 73
14, 3707, Control_c, 14, 11, 75
14, 3731, Note_on_c, 14, 47, 0
14, 3731, Control_c, 14, 11, 77
14, 3731, Note_on_c, 14, 43, 106
14, 3755, Control_c, 14, 11, 79
14, 3779, Control_c, 14, 11, 81
14, 3791, Note_on_c, 14, 43, 0
14, 3791, Note_on_c, 14, 43, 106
14, 3803, Control_c, 14, 11, 83
14, 3827, Control_c, 14, 11, 85
14, 3851, Note_on_c, 14, 43, 0
14, 3851, Note_on_c, 14, 36, 106
14, 3851, Control_c, 14, 11, 77
14, 3860, Control_c, 14, 11, 80
14, 3869, Control_c, 14, 11, 83
14, 3878, Control_c, 14, 11, 86
14, 3941, Control_c, 14, 11, 87
14, 3943, Control_c, 14, 11, 83
14, 3945, Control_c, 14, 11, 79
14, 3947, Control_c, 14, 11, 76
14, 3949, Control_c, 14, 11, 72
14, 3951, Control_c, 14, 11, 69
14, 3953, Control_c, 14, 11, 65
14, 3955, Note_on_c, 14, 36, 0
14, 3955, Control_c, 14, 11, 62
14, 4091, Note_on_c, 14, 41, 106
14, 4091, Control_c, 14, 11, 67
14, 4095, Control_c, 14, 11, 70
14, 4100, Control_c, 14, 11, 73
14, 4104, Control_c, 14, 11, 76
14, 4109, Control_c, 14, 11, 79
14, 4113, Control_c, 14, 11, 82
14, 4118, Control_c, 14, 11, 85
14, 4181, Control_c, 14, 11, 87
14, 4183, Control_c, 14, 11, 83
14, 4185, Control_c, 14, 11, 79
14, 4187, Control_c, 14, 11, 76
14, 4189, Control_c, 14, 11, 72
14, 4191, Control_c, 14, 11, 69
14, 4193, Control_c, 14, 11, 65
14, 4195, Control_c, 14, 11, 62
14, 4205, Note_on_c, 14, 41, 0
14, 4331, Note_on_c, 14, 43, 106
14, 4331, Control_c, 14, 11, 27
14, 4337, Control_c, 14, 11, 30
14, 4343, Control_c, 14, 11, 33
14, 4349, Control_c, 14, 11, 36
14, 4355, Control_c, 14, 11, 39
14, 4361, Control_c, 14, 11, 42
14, 4571, Control_c, 14, 11, 42
14, 4584, Control_c, 14, 11, 45
14, 4597, Control_c, 14, 11, 48
14, 4610, Control_c, 14, 11, 51
14, 4623, Control_c, 14, 11, 54
14, 4631, Note_on_c, 14, 43, 0
14, 4631, Note_on_c, 14, 43, 106
14, 4636, Control_c, 14, 11, 57
14, 4649, Control_c, 14, 11, 60
14, 4662, Control_c, 14, 11, 63
14, 4675, Control_c, 14, 11, 66
14, 4688, Control_c, 14, 11, 69
14, 4691, Note_on_c, 14, 43, 0
14, 4691, Note_on_c, 14, 43, 106
14, 4701, Control_c, 14, 11, 72
14, 4715, Control_c, 14, 11, 75
14, 4728, Control_c, 14, 11, 78
14, 4741, Control_c, 14, 11, 81
14, 4751, Note_on_c, 14, 43, 0
14, 4751, Note_on_c, 14, 44, 106
14, 4754, Control_c, 14, 11, 84
14, 4767, Control_c, 14, 11, 87
14, 4780, Control_c, 14, 11, 90
14, 4793, Control_c, 14, 11, 93
14, 4806, Control_c, 14, 11, 96
14, 4811, Note_on_c, 14, 44, 0
14, 4811, Control_c, 14, 11, 77
14, 4811, Note_on_c, 14, 45, 116
14, 4820, Control_c, 14, 11, 80
14, 4829, Control_c, 14, 11, 83
14, 4838, Control_c, 14, 11, 86
14, 4891, Control_c, 14, 11, 97
14, 4892, Control_c, 14, 11, 94
14, 4894, Control_c, 14, 11, 89
14, 4896, Control_c, 14, 11, 84
14, 4898, Control_c, 14, 11, 79
14, 4900, Control_c, 14, 11, 74
14, 4902, Control_c, 14, 11, 69
14, 4904, Control_c, 14, 11, 64
14, 4915, Note_on_c, 14, 45, 0
14, 5051, Note_on_c, 14, 41, 106
14, 5051, Control_c, 14, 11, 67
14, 5055, Control_c, 14, 11, 70
14, 5060, Control_c, 14, 11, 73
14, 5064, Control_c, 14, 11, 76
14, 5069, Control_c, 14, 11, 79
14, 5073, Control_c, 14, 11, 82
14, 5078, Control_c, 14, 11, 85
14, 5141, Control_c, 14, 11, 87
14, 5143, Control_c, 14, 11, 83
14, 5145, Control_c, 14, 11, 79
14, 5147, Control_c, 14, 11, 76
14, 5149, Control_c, 14, 11, 72
14, 5151, Control_c, 14, 11, 69
14, 5153, Control_c, 14, 11, 65
14, 5155, Control_c, 14, 11, 62
14, 5165, Note_on_c, 14, 41, 0
14, 5291, Note_on_c, 14, 43, 106
14, 5291, Control_c, 14, 11, 67
14, 5295, Control_c, 14, 11, 70
14, 5300, Control_c, 14, 11, 73
14, 5304, Control_c, 14, 11, 76
14, 5309, Control_c, 14, 11, 79
14, 5313, Control_c, 14, 11, 82
14, 5318, Control_c, 14, 11, 85
14, 5381, Control_c, 14, 11, 87
14, 5383, Control_c, 14, 11, 84
14, 5386, Control_c, 14, 11, 80
14, 5389, Control_c, 14, 11, 77
14, 5391, Control_c, 14, 11, 74
14, 5394, Control_c, 14, 11, 71
14, 5396, Control_c, 14, 11, 68
14, 5399, Control_c, 14, 11, 65
14, 5401, Control_c, 14, 11, 62
14, 5404, Control_c, 14, 11, 59
14, 5406, Control_c, 14, 11, 56
14, 5409, Control_c, 14, 11, 53
14, 5411, Note_on_c, 14, 43, 0
14, 5771, Note_on_c, 14, 31, 106
14, 5771, Control_c, 14, 11, 32
14, 5787, Control_c, 14, 11, 34
14, 5803, Control_c, 14, 11, 36
14, 5819, Control_c, 14, 11, 38
14, 5831, Note_on_c, 14, 31, 0
14, 5831, Note_on_c, 14, 33, 91
14, 5835, Control_c, 14, 11, 40
14, 5851, Control_c, 14, 11, 42
14, 5861, Note_on_c, 14, 33, 0
14, 5861, Note_on_c, 14, 35, 93
14, 5867, Control_c, 14, 11, 44
14, 5883, Control_c, 14, 11, 46
14, 5891, Note_on_c, 14, 35, 0
14, 5891, Note_on_c, 14, 36, 96
14, 5921, Note_on_c, 14, 36, 0
14, 5921, Note_on_c, 14, 38, 98
14, 5951, Note_on_c, 14, 38, 0
14, 5951, Note_on_c, 14, 40, 101
14, 5981, Note_on_c, 14, 40, 0
14, 5981, Note_on_c, 14, 42, 103
14, 6006, Note_on_c, 14, 42, 0
14, 6011, Note_on_c, 14, 43, 106
14, 6186, Note_on_c, 14, 43, 0
14, 6191, Note_on_c, 14, 43, 91
14, 6206, Note_on_c, 14, 43, 0
14, 6206, Note_on_c, 14, 41, 91
14, 6221, Note_on_c, 14, 41, 0
14, 6221, Note_on_c, 14, 40, 91
14, 6236, Note_on_c, 14, 40, 0
14, 6236, Note_on_c, 14, 38, 91
14, 6251, Note_on_c, 14, 38, 0
14, 6251, Note_on_c, 14, 36, 86
14, 6371, Note_on_c, 14, 36, 0
14, 6731, Note_on_c, 14, 36, 63
14, 6851, Note_on_c, 14, 36, 0
14, 7211, Note_on_c, 14, 36, 63
14, 7331, Note_on_c, 14, 36, 0
14, 7451, Note_on_c, 14, 36, 63
14, 7571, Note_on_c, 14, 36, 0
14, 7691, Note_on_c, 14, 36, 63
14, 7811, Note_on_c, 14, 36, 0
14, 9011, Note_on_c, 14, 45, 106
14, 9041, Note_on_c, 14, 45, 0
14, 9041, Note_on_c, 14, 43, 106
14, 9071, Note_on_c, 14, 43, 0
14, 9071, Note_on_c, 14, 41, 106
14, 9101, Note_on_c, 14, 41, 0
14, 9101, Note_on_c, 14, 40, 106
14, 9131, Note_on_c, 14, 40, 0
14, 9131, Note_on_c, 14, 38, 106
14, 9251, Note_on_c, 14, 38, 0
14, 9611, Note_on_c, 14, 38, 74
14, 9731, Note_on_c, 14, 38, 0
14, 10091, Note_on_c, 14, 38, 74
14, 10211, Note_on_c, 14, 38, 0
14, 10331, Note_on_c, 14, 38, 74
14, 10451, Note_on_c, 14, 38, 0
14, 10571, Note_on_c, 14, 38, 74
14, 10691, Note_on_c, 14, 38, 0
14, 11051, Note_on_c, 14, 38, 106
14, 11051, Control_c, 14, 11, 32
14, 11062, Control_c, 14, 11, 35
14, 11073, Control_c, 14, 11, 38
14, 11084, Control_c, 14, 11, 41
14, 11096, Control_c, 14, 11, 44
14, 11107, Control_c, 14, 11, 47
14, 11147, Control_c, 14, 11, 50
14, 11179, Control_c, 14, 11, 51
14, 11211, Control_c, 14, 11, 52
14, 11243, Control_c, 14, 11, 53
14, 11275, Control_c, 14, 11, 54
14, 11307, Control_c, 14, 11, 55
14, 11339, Control_c, 14, 11, 56
14, 11371, Control_c, 14, 11, 57
14, 11403, Control_c, 14, 11, 58
14, 11435, Control_c, 14, 11, 59
14, 11467, Control_c, 14, 11, 60
14, 11499, Control_c, 14, 11, 61
14, 11531, Note_on_c, 14, 38, 0
14, 11531, Control_c, 14, 11, 62
14, 11531, Note_on_c, 14, 38, 106
14, 11561, Note_on_c, 14, 38, 0
14, 11561, Note_on_c, 14, 36, 106
14, 11563, Control_c, 14, 11, 63
14, 11591, Note_on_c, 14, 36, 0
14, 11591, Note_on_c, 14, 38, 106
14, 11595, Control_c, 14, 11, 64
14, 11621, Note_on_c, 14, 38, 0
14, 11621, Note_on_c, 14, 36, 106
14, 11627, Control_c, 14, 11, 65
14, 11651, Note_on_c, 14, 36, 0
14, 11651, Note_on_c, 14, 38, 106
14, 11659, Control_c, 14, 11, 66
14, 11681, Note_on_c, 14, 38, 0
14, 11681, Note_on_c, 14, 36, 106
14, 11691, Control_c, 14, 11, 67
14, 11711, Note_on_c, 14, 36, 0
14, 11711, Note_on_c, 14, 38, 106
14, 11723, Control_c, 14, 11, 68
14, 11741, Note_on_c, 14, 38, 0
14, 11741, Note_on_c, 14, 36, 106
14, 11755, Control_c, 14, 11, 69
14, 11771, Note_on_c, 14, 36, 0
14, 11771, Note_on_c, 14, 38, 106
14, 11787, Control_c, 14, 11, 70
14, 11801, Note_on_c, 14, 38, 0
14, 11801, Note_on_c, 14, 36, 106
14, 11819, Control_c, 14, 11, 71
14, 11831, Note_on_c, 14, 36, 0
14, 11831, Note_on_c, 14, 38, 106
14, 11851, Control_c, 14, 11, 72
14, 11861, Note_on_c, 14, 38, 0
14, 11861, Note_on_c, 14, 36, 106
14, 11883, Control_c, 14, 11, 73
14, 11891, Note_on_c, 14, 36, 0
14, 11891, Note_on_c, 14, 38, 106
14, 11915, Control_c, 14, 11, 74
14, 11921, Note_on_c, 14, 38, 0
14, 11921, Note_on_c, 14, 36, 106
14, 11947, Control_c, 14, 11, 75
14, 11951, Note_on_c, 14, 36, 0
14, 11951, Note_on_c, 14, 35, 106
14, 11979, Control_c, 14, 11, 76
14, 11981, Note_on_c, 14, 35, 0
14, 11981, Note_on_c, 14, 36, 106
14, 12011, Note_on_c, 14, 36, 0
14, 12011, Note_on_c, 14, 35, 106
14, 12011, Control_c, 14, 11, 84
14, 12016, Control_c, 14, 11, 87
14, 12021, Control_c, 14, 11, 90
14, 12026, Control_c, 14, 11, 93
14, 12046, Control_c, 14, 11, 91
14, 12064, Control_c, 14, 11, 88
14, 12082, Control_c, 14, 11, 85
14, 12100, Control_c, 14, 11, 82
14, 12118, Control_c, 14, 11, 79
14, 12131, Control_c, 14, 11, 67
14, 12281, Control_c, 14, 11, 67
14, 12287, Control_c, 14, 11, 64
14, 12293, Control_c, 14, 11, 61
14, 12299, Control_c, 14, 11, 58
14, 12305, Control_c, 14, 11, 55
14, 12311, Control_c, 14, 11, 52
14, 12317, Control_c, 14, 11, 49
14, 12319, Note_on_c, 14, 35, 0
14, 12851, Control_c, 14, 11, 67
14, 12851, Note_on_c, 14, 31, 106
14, 12941, Note_on_c, 14, 31, 0
14, 12941, Note_on_c, 14, 35, 106
14, 12971, Note_on_c, 14, 35, 0
14, 12971, Note_on_c, 14, 38, 106
14, 12971, Control_c, 14, 11, 97
14, 12989, Control_c, 14, 11, 94
14, 13007, Control_c, 14, 11, 91
14, 13025, Control_c, 14, 11, 88
14, 13043, Control_c, 14, 11, 85
14, 13061, Control_c, 14, 11, 82
14, 13079, Control_c, 14, 11, 79
14, 13241, Control_c, 14, 11, 67
14, 13247, Control_c, 14, 11, 64
14, 13253, Control_c, 14, 11, 61
14, 13259, Control_c, 14, 11, 58
14, 13265, Control_c, 14, 11, 55
14, 13271, Control_c, 14, 11, 52
14, 13277, Control_c, 14, 11, 49
14, 13279, Note_on_c, 14, 38, 0
14, 13811, Note_on_c, 14, 35, 106
14, 13811, Control_c, 14, 11, 67
14, 13901, Note_on_c, 14, 35, 0
14, 13901, Note_on_c, 14, 38, 106
14, 13931, Note_on_c, 14, 38, 0
14, 13931, Note_on_c, 14, 41, 106
14, 13931, Control_c, 14, 11, 97
14, 13949, Control_c, 14, 11, 94
14, 13967, Control_c, 14, 11, 91
14, 13985, Control_c, 14, 11, 88
14, 14003, Control_c, 14, 11, 85
14, 14021, Control_c, 14, 11, 82
14, 14039, Control_c, 14, 11, 79
14, 14201, Control_c, 14, 11, 67
14, 14207, Control_c, 14, 11, 64
14, 14213, Control_c, 14, 11, 61
14, 14219, Control_c, 14, 11, 58
14, 14225, Control_c, 14, 11, 55
14, 14231, Control_c, 14, 11, 52
14, 14237, Control_c, 14, 11, 49
14, 14239, Note_on_c, 14, 41, 0
14, 14411, Control_c, 14, 11, 77
14, 14430, Control_c, 14, 11, 78
14, 14449, Control_c, 14, 11, 79
14, 14468, Control_c, 14, 11, 80
14, 14487, Control_c, 14, 11, 81
14, 14506, Control_c, 14, 11, 82
14, 14525, Control_c, 14, 11, 83
14, 14545, Control_c, 14, 11, 84
14, 14564, Control_c, 14, 11, 85
14, 14583, Control_c, 14, 11, 86
14, 14602, Control_c, 14, 11, 87
14, 14621, Control_c, 14, 11, 88
14, 14640, Control_c, 14, 11, 89
14, 14651, Note_on_c, 14, 41, 96
14, 14660, Control_c, 14, 11, 90
14, 14679, Control_c, 14, 11, 91
14, 14681, Note_on_c, 14, 41, 0
14, 14698, Control_c, 14, 11, 92
14, 14711, Note_on_c, 14, 38, 96
14, 14717, Control_c, 14, 11, 93
14, 14736, Control_c, 14, 11, 94
14, 14741, Note_on_c, 14, 38, 0
14, 14755, Control_c, 14, 11, 95
14, 14771, Note_on_c, 14, 35, 96
14, 14775, Control_c, 14, 11, 96
14, 14794, Control_c, 14, 11, 97
14, 14801, Note_on_c, 14, 35, 0
14, 14813, Control_c, 14, 11, 98
14, 14831, Note_on_c, 14, 31, 96
14, 14832, Control_c, 14, 11, 99
14, 14851, Control_c, 14, 11, 100
14, 14861, Note_on_c, 14, 31, 0
14, 14870, Control_c, 14, 11, 101
14, 14890, Control_c, 14, 11, 102
14, 14891, Note_on_c, 14, 36, 96
14, 14951, Note_on_c, 14, 36, 0
14, 15131, Note_on_c, 14, 41, 96
14, 15191, Note_on_c, 14, 41, 0
14, 15371, Note_on_c, 14, 43, 96
14, 15431, Note_on_c, 14, 43, 0
14, 15611, Note_on_c, 14, 31, 96
14, 15671, Note_on_c, 14, 31, 0
14, 15851, Note_on_c, 14, 36, 96
14, 15901, Note_on_c, 14, 36, 0
14, 15911, Note_on_c, 14, 36, 96
14, 15961, Note_on_c, 14, 36, 0
14, 15971, Note_on_c, 14, 36, 96
14, 16021, Note_on_c, 14, 36, 0
14, 16031, Note_on_c, 14, 36, 96
14, 16081, Note_on_c, 14, 36, 0
14, 16091, Note_on_c, 14, 36, 96
14, 16141, Note_on_c, 14, 36, 0
14, 16151, Note_on_c, 14, 36, 96
14, 16201, Note_on_c, 14, 36, 0
14, 16211, Note_on_c, 14, 36, 96
14, 16261, Note_on_c, 14, 36, 0
14, 16271, Note_on_c, 14, 36, 96
14, 16321, Note_on_c, 14, 36, 0
14, 16331, Note_on_c, 14, 36, 96
14, 16331, Control_c, 14, 11, 122
14, 16349, Control_c, 14, 11, 119
14, 16367, Control_c, 14, 11, 116
14, 16381, Note_on_c, 14, 36, 0
14, 16385, Control_c, 14, 11, 113
14, 16391, Note_on_c, 14, 36, 96
14, 16403, Control_c, 14, 11, 110
14, 16421, Control_c, 14, 11, 107
14, 16439, Control_c, 14, 11, 104
14, 16441, Note_on_c, 14, 36, 0
14, 16451, Note_on_c, 14, 36, 96
14, 16501, Note_on_c, 14, 36, 0
14, 16511, Note_on_c, 14, 36, 96
14, 16561, Note_on_c, 14, 36, 0
14, 16571, Note_on_c, 14, 36, 96
14, 16621, Note_on_c, 14, 36, 0
14, 16631, Note_on_c, 14, 36, 96
14, 16681, Note_on_c, 14, 36, 0
14, 16691, Note_on_c, 14, 36, 96
14, 16741, Note_on_c, 14, 36, 0
14, 16751, Note_on_c, 14, 36, 96
14, 16801, Note_on_c, 14, 36, 0
14, 16811, Note_on_c, 14, 36, 96
14, 16861, Note_on_c, 14, 36, 0
14, 16871, Note_on_c, 14, 36, 96
14, 16921, Note_on_c, 14, 36, 0
14, 16931, Note_on_c, 14, 36, 96
14, 16981, Note_on_c, 14, 36, 0
14, 16991, Note_on_c, 14, 36, 96
14, 17041, Note_on_c, 14, 36, 0
14, 17051, Note_on_c, 14, 36, 96
14, 17101, Note_on_c, 14, 36, 0
14, 17111, Note_on_c, 14, 36, 96
14, 17161, Note_on_c, 14, 36, 0
14, 17171, Note_on_c, 14, 36, 96
14, 17221, Note_on_c, 14, 36, 0
14, 17231, Note_on_c, 14, 36, 96
14, 17281, Note_on_c, 14, 36, 0
14, 17291, Note_on_c, 14, 36, 96
14, 17341, Note_on_c, 14, 36, 0
14, 17351, Note_on_c, 14, 36, 96
14, 17401, Note_on_c, 14, 36, 0
14, 17411, Note_on_c, 14, 36, 96
14, 17461, Note_on_c, 14, 36, 0
14, 17471, Note_on_c, 14, 36, 96
14, 17521, Note_on_c, 14, 36, 0
14, 17531, Note_on_c, 14, 36, 96
14, 17581, Note_on_c, 14, 36, 0
14, 17591, Note_on_c, 14, 36, 96
14, 17641, Note_on_c, 14, 36, 0
14, 17651, Note_on_c, 14, 36, 96
14, 17701, Note_on_c, 14, 36, 0
14, 17711, Note_on_c, 14, 36, 96
14, 17761, Note_on_c, 14, 36, 0
14, 17771, Note_on_c, 14, 36, 96
14, 17821, Note_on_c, 14, 36, 0
14, 17831, Note_on_c, 14, 36, 96
14, 17881, Note_on_c, 14, 36, 0
14, 17891, Note_on_c, 14, 36, 96
14, 17941, Note_on_c, 14, 36, 0
14, 17951, Note_on_c, 14, 36, 96
14, 18001, Note_on_c, 14, 36, 0
14, 18011, Note_on_c, 14, 36, 96
14, 18061, Note_on_c, 14, 36, 0
14, 18071, Note_on_c, 14, 36, 96
14, 18121, Note_on_c, 14, 36, 0
14, 18131, Note_on_c, 14, 36, 96
14, 18181, Note_on_c, 14, 36, 0
14, 18191, Note_on_c, 14, 36, 96
14, 18241, Note_on_c, 14, 36, 0
14, 18251, Control_c, 14, 11, 122
14, 18251, Note_on_c, 14, 36, 96
14, 18269, Control_c, 14, 11, 119
14, 18287, Control_c, 14, 11, 116
14, 18301, Note_on_c, 14, 36, 0
14, 18305, Control_c, 14, 11, 113
14, 18311, Note_on_c, 14, 36, 96
14, 18323, Control_c, 14, 11, 110
14, 18341, Control_c, 14, 11, 107
14, 18359, Control_c, 14, 11, 104
14, 18361, Note_on_c, 14, 36, 0
14, 18371, Note_on_c, 14, 36, 96
14, 18421, Note_on_c, 14, 36, 0
14, 18431, Note_on_c, 14, 36, 96
14, 18481, Note_on_c, 14, 36, 0
14, 18491, Note_on_c, 14, 36, 96
14, 18541, Note_on_c, 14, 36, 0
14, 18551, Note_on_c, 14, 36, 96
14, 18601, Note_on_c, 14, 36, 0
14, 18611, Note_on_c, 14, 36, 96
14, 18661, Note_on_c, 14, 36, 0
14, 18671, Note_on_c, 14, 36, 96
14, 18721, Note_on_c, 14, 36, 0
14, 18731, Note_on_c, 14, 36, 96
14, 18781, Note_on_c, 14, 36, 0
14, 18791, Note_on_c, 14, 36, 96
14, 18841, Note_on_c, 14, 36, 0
14, 18851, Note_on_c, 14, 36, 96
14, 18901, Note_on_c, 14, 36, 0
14, 18911, Note_on_c, 14, 36, 96
14, 18961, Note_on_c, 14, 36, 0
14, 18971, Note_on_c, 14, 36, 96
14, 19021, Note_on_c, 14, 36, 0
14, 19031, Note_on_c, 14, 36, 96
14, 19081, Note_on_c, 14, 36, 0
14, 19091, Note_on_c, 14, 36, 96
14, 19141, Note_on_c, 14, 36, 0
14, 19151, Note_on_c, 14, 36, 96
14, 19201, Note_on_c, 14, 36, 0
14, 19211, Note_on_c, 14, 36, 96
14, 19261, Note_on_c, 14, 36, 0
14, 19271, Note_on_c, 14, 36, 96
14, 19321, Note_on_c, 14, 36, 0
14, 19331, Note_on_c, 14, 36, 96
14, 19381, Note_on_c, 14, 36, 0
14, 19391, Note_on_c, 14, 36, 96
14, 19441, Note_on_c, 14, 36, 0
14, 19451, Note_on_c, 14, 36, 96
14, 19501, Note_on_c, 14, 36, 0
14, 19511, Note_on_c, 14, 36, 96
14, 19561, Note_on_c, 14, 36, 0
14, 19571, Note_on_c, 14, 36, 96
14, 19621, Note_on_c, 14, 36, 0
14, 19631, Note_on_c, 14, 36, 96
14, 19681, Note_on_c, 14, 36, 0
14, 19691, Note_on_c, 14, 36, 96
14, 19811, Note_on_c, 14, 36, 0
14, 20051, Note_on_c, 14, 33, 96
14, 20051, Control_c, 14, 11, 87
14, 20081, Note_on_c, 14, 33, 0
14, 20111, Note_on_c, 14, 37, 96
14, 20141, Note_on_c, 14, 37, 0
14, 20171, Note_on_c, 14, 38, 96
14, 20171, Control_c, 14, 11, 87
14, 20228, Control_c, 14, 11, 88
14, 20286, Control_c, 14, 11, 89
14, 20291, Note_on_c, 14, 38, 0
14, 20343, Control_c, 14, 11, 90
14, 20401, Control_c, 14, 11, 91
14, 20459, Control_c, 14, 11, 92
14, 20516, Control_c, 14, 11, 93
14, 20531, Note_on_c, 14, 35, 96
14, 20561, Note_on_c, 14, 35, 0
14, 20574, Control_c, 14, 11, 94
14, 20591, Note_on_c, 14, 39, 96
14, 20621, Note_on_c, 14, 39, 0
14, 20631, Control_c, 14, 11, 95
14, 20651, Note_on_c, 14, 40, 96
14, 20681, Note_on_c, 14, 40, 0
14, 20689, Control_c, 14, 11, 96
14, 20711, Note_on_c, 14, 40, 96
14, 20741, Note_on_c, 14, 40, 0
14, 20747, Control_c, 14, 11, 97
14, 20771, Note_on_c, 14, 36, 96
14, 20801, Note_on_c, 14, 36, 0
14, 20804, Control_c, 14, 11, 98
14, 20831, Note_on_c, 14, 40, 96
14, 20861, Note_on_c, 14, 40, 0
14, 20862, Control_c, 14, 11, 99
14, 20891, Note_on_c, 14, 41, 96
14, 20919, Control_c, 14, 11, 100
14, 20921, Note_on_c, 14, 41, 0
14, 20951, Note_on_c, 14, 38, 96
14, 20977, Control_c, 14, 11, 101
14, 20981, Note_on_c, 14, 38, 0
14, 21011, Note_on_c, 14, 43, 96
14, 21035, Control_c, 14, 11, 102
14, 21041, Note_on_c, 14, 43, 0
14, 21071, Note_on_c, 14, 40, 96
14, 21092, Control_c, 14, 11, 103
14, 21101, Note_on_c, 14, 40, 0
14, 21131, Note_on_c, 14, 45, 96
14, 21150, Control_c, 14, 11, 104
14, 21161, Note_on_c, 14, 45, 0
14, 21191, Note_on_c, 14, 41, 96
14, 21207, Control_c, 14, 11, 105
14, 21221, Note_on_c, 14, 41, 0
14, 21251, Note_on_c, 14, 47, 96
14, 21265, Control_c, 14, 11, 106
14, 21281, Note_on_c, 14, 47, 0
14, 21311, Note_on_c, 14, 43, 96
14, 21323, Control_c, 14, 11, 107
14, 21341, Note_on_c, 14, 43, 0
14, 21371, Note_on_c, 14, 48, 96
14, 21380, Control_c, 14, 11, 108
14, 21401, Note_on_c, 14, 48, 0
14, 21431, Note_on_c, 14, 45, 96
14, 21438, Control_c, 14, 11, 109
14, 21461, Note_on_c, 14, 45, 0
14, 21491, Note_on_c, 14, 40, 96
14, 21495, Control_c, 14, 11, 110
14, 21521, Note_on_c, 14, 40, 0
14, 21551, Note_on_c, 14, 42, 96
14, 21553, Control_c, 14, 11, 111
14, 21581, Note_on_c, 14, 42, 0
14, 21611, Note_on_c, 14, 31, 96
14, 21611, Control_c, 14, 11, 112
14, 21629, Control_c, 14, 11, 109
14, 21647, Control_c, 14, 11, 106
14, 21661, Note_on_c, 14, 31, 0
14, 21665, Control_c, 14, 11, 103
14, 21671, Note_on_c, 14, 43, 96
14, 21701, Note_on_c, 14, 43, 0
14, 21731, Note_on_c, 14, 43, 96
14, 21761, Note_on_c, 14, 43, 0
14, 21791, Note_on_c, 14, 43, 96
14, 21821, Note_on_c, 14, 43, 0
14, 21851, Note_on_c, 14, 41, 96
14, 21911, Note_on_c, 14, 41, 0
14, 21911, Note_on_c, 14, 40, 96
14, 21961, Note_on_c, 14, 40, 0
14, 21971, Note_on_c, 14, 38, 96
14, 22001, Note_on_c, 14, 38, 0
14, 22031, Note_on_c, 14, 36, 96
14, 22061, Note_on_c, 14, 36, 0
14, 22091, Note_on_c, 14, 31, 96
14, 22211, Note_on_c, 14, 31, 0
14, 22331, Note_on_c, 14, 43, 96
14, 22451, Note_on_c, 14, 43, 0
14, 22571, Note_on_c, 14, 31, 96
14, 22621, Note_on_c, 14, 31, 0
14, 22631, Note_on_c, 14, 43, 96
14, 22661, Note_on_c, 14, 43, 0
14, 22691, Note_on_c, 14, 43, 96
14, 22721, Note_on_c, 14, 43, 0
14, 22751, Note_on_c, 14, 43, 96
14, 22781, Note_on_c, 14, 43, 0
14, 22811, Note_on_c, 14, 41, 96
14, 22871, Note_on_c, 14, 41, 0
14, 22871, Note_on_c, 14, 40, 96
14, 22921, Note_on_c, 14, 40, 0
14, 22931, Note_on_c, 14, 38, 96
14, 22961, Note_on_c, 14, 38, 0
14, 22991, Note_on_c, 14, 36, 96
14, 23021, Note_on_c, 14, 36, 0
14, 23051, Note_on_c, 14, 31, 96
14, 23171, Note_on_c, 14, 31, 0
14, 23291, Note_on_c, 14, 43, 96
14, 23411, Note_on_c, 14, 43, 0
14, 23531, Note_on_c, 14, 31, 96
14, 23581, Note_on_c, 14, 31, 0
14, 23591, Note_on_c, 14, 43, 96
14, 23621, Note_on_c, 14, 43, 0
14, 23651, Note_on_c, 14, 43, 96
14, 23681, Note_on_c, 14, 43, 0
14, 23711, Note_on_c, 14, 43, 96
14, 23741, Note_on_c, 14, 43, 0
14, 23771, Note_on_c, 14, 41, 96
14, 23831, Note_on_c, 14, 41, 0
14, 23831, Note_on_c, 14, 40, 96
14, 23881, Note_on_c, 14, 40, 0
14, 23891, Note_on_c, 14, 38, 96
14, 23921, Note_on_c, 14, 38, 0
14, 23951, Note_on_c, 14, 36, 96
14, 23981, Note_on_c, 14, 36, 0
14, 24011, Note_on_c, 14, 31, 96
14, 24061, Note_on_c, 14, 31, 0
14, 24071, Note_on_c, 14, 43, 96
14, 24101, Note_on_c, 14, 43, 0
14, 24131, Note_on_c, 14, 43, 96
14, 24161, Note_on_c, 14, 43, 0
14, 24191, Note_on_c, 14, 43, 96
14, 24221, Note_on_c, 14, 43, 0
14, 24251, Note_on_c, 14, 41, 96
14, 24311, Note_on_c, 14, 41, 0
14, 24311, Note_on_c, 14, 40, 96
14, 24361, Note_on_c, 14, 40, 0
14, 24371, Note_on_c, 14, 38, 96
14, 24401, Note_on_c, 14, 38, 0
14, 24431, Note_on_c, 14, 36, 96
14, 24461, Note_on_c, 14, 36, 0
14, 24491, Note_on_c, 14, 31, 96
14, 24611, Note_on_c, 14, 31, 0
14, 24731, Note_on_c, 14, 43, 96
14, 24851, Note_on_c, 14, 43, 0
14, 24971, Note_on_c, 14, 31, 96
14, 25091, Note_on_c, 14, 31, 0
14, 25451, Note_on_c, 14, 43, 78
14, 25451, Control_c, 14, 11, 47
14, 25571, Note_on_c, 14, 43, 0
14, 25931, Note_on_c, 14, 45, 78
14, 26051, Note_on_c, 14, 45, 0
14, 26411, Note_on_c, 14, 38, 78
14, 26531, Note_on_c, 14, 38, 0
14, 26891, Note_on_c, 14, 43, 78
14, 27011, Note_on_c, 14, 43, 0
14, 27371, Note_on_c, 14, 38, 96
14, 27491, Note_on_c, 14, 38, 0
14, 27611, Note_on_c, 14, 42, 96
14, 27611, Control_c, 14, 11, 58
14, 27615, Control_c, 14, 11, 61
14, 27620, Control_c, 14, 11, 64
14, 27625, Control_c, 14, 11, 67
14, 27630, Control_c, 14, 11, 70
14, 27635, Control_c, 14, 11, 73
14, 27646, Control_c, 14, 11, 70
14, 27657, Control_c, 14, 11, 67
14, 27668, Control_c, 14, 11, 64
14, 27679, Control_c, 14, 11, 61
14, 27690, Control_c, 14, 11, 58
14, 27701, Control_c, 14, 11, 55
14, 27712, Control_c, 14, 11, 52
14, 27723, Control_c, 14, 11, 49
14, 27731, Note_on_c, 14, 42, 0
14, 27731, Note_on_c, 14, 43, 96
14, 27841, Note_on_c, 14, 43, 0
14, 27851, Note_on_c, 14, 38, 96
14, 27971, Note_on_c, 14, 38, 0
14, 28091, Note_on_c, 14, 42, 96
14, 28091, Control_c, 14, 11, 58
14, 28095, Control_c, 14, 11, 61
14, 28100, Control_c, 14, 11, 64
14, 28105, Control_c, 14, 11, 67
14, 28110, Control_c, 14, 11, 70
14, 28115, Control_c, 14, 11, 73
14, 28126, Control_c, 14, 11, 70
14, 28137, Control_c, 14, 11, 67
14, 28148, Control_c, 14, 11, 64
14, 28159, Control_c, 14, 11, 61
14, 28170, Control_c, 14, 11, 58
14, 28181, Control_c, 14, 11, 55
14, 28192, Control_c, 14, 11, 52
14, 28203, Control_c, 14, 11, 49
14, 28211, Note_on_c, 14, 42, 0
14, 28211, Note_on_c, 14, 43, 96
14, 28321, Note_on_c, 14, 43, 0
14, 28331, Note_on_c, 14, 45, 96
14, 28451, Note_on_c, 14, 45, 0
14, 28571, Note_on_c, 14, 33, 96
14, 28691, Note_on_c, 14, 33, 0
14, 28811, Note_on_c, 14, 38, 96
14, 28931, Note_on_c, 14, 38, 0
14, 28931, Note_on_c, 14, 48, 96
14, 28931, Control_c, 14, 11, 63
14, 28935, Control_c, 14, 11, 66
14, 28940, Control_c, 14, 11, 69
14, 28945, Control_c, 14, 11, 72
14, 28963, Control_c, 14, 11, 69
14, 28975, Control_c, 14, 11, 66
14, 28987, Control_c, 14, 11, 63
14, 28999, Control_c, 14, 11, 60
14, 29011, Control_c, 14, 11, 57
14, 29023, Control_c, 14, 11, 54
14, 29035, Control_c, 14, 11, 51
14, 29047, Control_c, 14, 11, 48
14, 29171, Note_on_c, 14, 48, 0
14, 29171, Note_on_c, 14, 45, 96
14, 29281, Note_on_c, 14, 45, 0
14, 29291, Note_on_c, 14, 43, 96
14, 29411, Note_on_c, 14, 43, 0
14, 29771, Note_on_c, 14, 45, 96
14, 29891, Note_on_c, 14, 45, 0
14, 30251, Note_on_c, 14, 38, 96
14, 30371, Note_on_c, 14, 38, 0
14, 30731, Note_on_c, 14, 43, 96
14, 30851, Note_on_c, 14, 43, 0
14, 31211, Note_on_c, 14, 48, 96
14, 31271, Note_on_c, 14, 48, 0
14, 31331, Note_on_c, 14, 48, 96
14, 31391, Note_on_c, 14, 48, 0
14, 31571, Control_c, 14, 11, 58
14, 31571, Note_on_c, 14, 47, 96
14, 31576, Control_c, 14, 11, 61
14, 31582, Control_c, 14, 11, 64
14, 31587, Control_c, 14, 11, 67
14, 31593, Control_c, 14, 11, 70
14, 31599, Control_c, 14, 11, 73
14, 31609, Control_c, 14, 11, 70
14, 31620, Control_c, 14, 11, 67
14, 31630, Control_c, 14, 11, 64
14, 31641, Control_c, 14, 11, 61
14, 31652, Control_c, 14, 11, 58
14, 31662, Control_c, 14, 11, 55
14, 31673, Control_c, 14, 11, 52
14, 31683, Control_c, 14, 11, 49
14, 31691, Note_on_c, 14, 47, 0
14, 31691, Note_on_c, 14, 48, 96
14, 31751, Note_on_c, 14, 48, 0
14, 31811, Note_on_c, 14, 48, 96
14, 31871, Note_on_c, 14, 48, 0
14, 32051, Control_c, 14, 11, 58
14, 32051, Note_on_c, 14, 47, 96
14, 32056, Control_c, 14, 11, 61
14, 32062, Control_c, 14, 11, 64
14, 32067, Control_c, 14, 11, 67
14, 32073, Control_c, 14, 11, 70
14, 32079, Control_c, 14, 11, 73
14, 32089, Control_c, 14, 11, 70
14, 32100, Control_c, 14, 11, 67
14, 32110, Control_c, 14, 11, 64
14, 32121, Control_c, 14, 11, 61
14, 32132, Control_c, 14, 11, 58
14, 32142, Control_c, 14, 11, 55
14, 32153, Control_c, 14, 11, 52
14, 32163, Control_c, 14, 11, 49
14, 32171, Note_on_c, 14, 47, 0
14, 32171, Note_on_c, 14, 48, 96
14, 32281, Note_on_c, 14, 48, 0
14, 32291, Note_on_c, 14, 45, 96
14, 32411, Note_on_c, 14, 45, 0
14, 32411, Note_on_c, 14, 47, 96
14, 32531, Note_on_c, 14, 47, 0
14, 32531, Note_on_c, 14, 48, 96
14, 32641, Note_on_c, 14, 48, 0
14, 32651, Note_on_c, 14, 50, 96
14, 32891, Note_on_c, 14, 50, 0
14, 32891, Note_on_c, 14, 48, 96
14, 33106, Note_on_c, 14, 48, 0
14, 33126, Control_c, 14, 11, 47
14, 33127, Control_c, 14, 11, 55
14, 33128, Control_c, 14, 11, 63
14, 33129, Control_c, 14, 11, 71
14, 33130, Control_c, 14, 11, 79
14, 33131, Note_on_c, 14, 47, 106
14, 33131, Control_c, 14, 11, 87
14, 33151, Note_on_c, 14, 47, 0
14, 33161, Note_on_c, 14, 47, 106
14, 33181, Note_on_c, 14, 47, 0
14, 33191, Note_on_c, 14, 47, 106
14, 33211, Note_on_c, 14, 47, 0
14, 33221, Note_on_c, 14, 47, 106
14, 33241, Note_on_c, 14, 47, 0
14, 33251, Note_on_c, 14, 47, 106
14, 33311, Note_on_c, 14, 47, 0
14, 33371, Note_on_c, 14, 45, 106
14, 33391, Note_on_c, 14, 45, 0
14, 33401, Note_on_c, 14, 45, 106
14, 33421, Note_on_c, 14, 45, 0
14, 33431, Note_on_c, 14, 45, 106
14, 33451, Note_on_c, 14, 45, 0
14, 33461, Note_on_c, 14, 45, 106
14, 33481, Note_on_c, 14, 45, 0
14, 33491, Note_on_c, 14, 45, 106
14, 33551, Note_on_c, 14, 45, 0
14, 33611, Note_on_c, 14, 43, 106
14, 33631, Note_on_c, 14, 43, 0
14, 33641, Note_on_c, 14, 43, 106
14, 33661, Note_on_c, 14, 43, 0
14, 33671, Note_on_c, 14, 43, 106
14, 33691, Note_on_c, 14, 43, 0
14, 33701, Note_on_c, 14, 43, 106
14, 33721, Note_on_c, 14, 43, 0
14, 33731, Note_on_c, 14, 43, 106
14, 33791, Note_on_c, 14, 43, 0
14, 33851, Note_on_c, 14, 48, 106
14, 33901, Note_on_c, 14, 48, 0
14, 33911, Note_on_c, 14, 48, 106
14, 33961, Note_on_c, 14, 48, 0
14, 33971, Note_on_c, 14, 48, 106
14, 34021, Note_on_c, 14, 48, 0
14, 34031, Note_on_c, 14, 48, 106
14, 34081, Note_on_c, 14, 48, 0
14, 34091, Note_on_c, 14, 47, 106
14, 34111, Note_on_c, 14, 47, 0
14, 34121, Note_on_c, 14, 47, 106
14, 34141, Note_on_c, 14, 47, 0
14, 34151, Note_on_c, 14, 47, 106
14, 34171, Note_on_c, 14, 47, 0
14, 34181, Note_on_c, 14, 47, 106
14, 34201, Note_on_c, 14, 47, 0
14, 34211, Note_on_c, 14, 47, 106
14, 34271, Note_on_c, 14, 47, 0
14, 34331, Note_on_c, 14, 45, 106
14, 34351, Note_on_c, 14, 45, 0
14, 34361, Note_on_c, 14, 45, 106
14, 34381, Note_on_c, 14, 45, 0
14, 34391, Note_on_c, 14, 45, 106
14, 34411, Note_on_c, 14, 45, 0
14, 34421, Note_on_c, 14, 45, 106
14, 34441, Note_on_c, 14, 45, 0
14, 34451, Note_on_c, 14, 45, 106
14, 34511, Note_on_c, 14, 45, 0
14, 34571, Note_on_c, 14, 43, 106
14, 34591, Note_on_c, 14, 43, 0
14, 34601, Note_on_c, 14, 43, 106
14, 34621, Note_on_c, 14, 43, 0
14, 34631, Note_on_c, 14, 43, 106
14, 34651, Note_on_c, 14, 43, 0
14, 34661, Note_on_c, 14, 43, 106
14, 34681, Note_on_c, 14, 43, 0
14, 34691, Note_on_c, 14, 43, 106
14, 34751, Note_on_c, 14, 43, 0
14, 34811, Note_on_c, 14, 48, 106
14, 34861, Note_on_c, 14, 48, 0
14, 34871, Note_on_c, 14, 48, 106
14, 34921, Note_on_c, 14, 48, 0
14, 34931, Note_on_c, 14, 48, 106
14, 34981, Note_on_c, 14, 48, 0
14, 34991, Note_on_c, 14, 48, 106
14, 35041, Note_on_c, 14, 48, 0
14, 35051, Note_on_c, 14, 47, 106
14, 35051, Control_c, 14, 11, 107
14, 35069, Control_c, 14, 11, 104
14, 35087, Control_c, 14, 11, 101
14, 35105, Control_c, 14, 11, 98
14, 35123, Control_c, 14, 11, 95
14, 35141, Control_c, 14, 11, 92
14, 35159, Control_c, 14, 11, 89
14, 35221, Note_on_c, 14, 47, 0
14, 35231, Note_on_c, 14, 45, 106
14, 35281, Note_on_c, 14, 45, 0
14, 35291, Note_on_c, 14, 43, 106
14, 35341, Note_on_c, 14, 43, 0
14, 35351, Note_on_c, 14, 45, 106
14, 35401, Note_on_c, 14, 45, 0
14, 35411, Note_on_c, 14, 46, 106
14, 35461, Note_on_c, 14, 46, 0
14, 35471, Note_on_c, 14, 47, 106
14, 35521, Note_on_c, 14, 47, 0
14, 35531, Control_c, 14, 11, 107
14, 35531, Note_on_c, 14, 48, 106
14, 35549, Control_c, 14, 11, 104
14, 35567, Control_c, 14, 11, 101
14, 35585, Control_c, 14, 11, 98
14, 35603, Control_c, 14, 11, 95
14, 35621, Control_c, 14, 11, 92
14, 35639, Control_c, 14, 11, 89
14, 35701, Note_on_c, 14, 48, 0
14, 35711, Note_on_c, 14, 47, 106
14, 35761, Note_on_c, 14, 47, 0
14, 35771, Note_on_c, 14, 52, 106
14, 35821, Note_on_c, 14, 52, 0
14, 35831, Note_on_c, 14, 50, 106
14, 35881, Note_on_c, 14, 50, 0
14, 35891, Note_on_c, 14, 48, 106
14, 35941, Note_on_c, 14, 48, 0
14, 35951, Note_on_c, 14, 49, 106
14, 36001, Note_on_c, 14, 49, 0
14, 36011, Note_on_c, 14, 50, 106
14, 36011, Control_c, 14, 11, 87
14, 36041, Note_on_c, 14, 50, 0
14, 36043, Control_c, 14, 11, 88
14, 36071, Note_on_c, 14, 47, 106
14, 36075, Control_c, 14, 11, 89
14, 36101, Note_on_c, 14, 47, 0
14, 36107, Control_c, 14, 11, 90
14, 36131, Note_on_c, 14, 45, 106
14, 36139, Control_c, 14, 11, 91
14, 36161, Note_on_c, 14, 45, 0
14, 36171, Control_c, 14, 11, 92
14, 36191, Note_on_c, 14, 43, 106
14, 36203, Control_c, 14, 11, 93
14, 36221, Note_on_c, 14, 43, 0
14, 36235, Control_c, 14, 11, 94
14, 36251, Note_on_c, 14, 42, 106
14, 36267, Control_c, 14, 11, 95
14, 36281, Note_on_c, 14, 42, 0
14, 36299, Control_c, 14, 11, 96
14, 36311, Note_on_c, 14, 40, 106
14, 36331, Control_c, 14, 11, 97
14, 36341, Note_on_c, 14, 40, 0
14, 36363, Control_c, 14, 11, 98
14, 36371, Note_on_c, 14, 38, 106
14, 36395, Control_c, 14, 11, 99
14, 36401, Note_on_c, 14, 38, 0
14, 36427, Control_c, 14, 11, 100
14, 36431, Note_on_c, 14, 36, 106
14, 36459, Control_c, 14, 11, 101
14, 36461, Note_on_c, 14, 36, 0
14, 36491, Note_on_c, 14, 35, 106
14, 36491, Control_c, 14, 11, 102
14, 36551, Note_on_c, 14, 35, 0
14, 36611, Note_on_c, 14, 36, 106
14, 36671, Note_on_c, 14, 36, 0
14, 36731, Note_on_c, 14, 38, 106
14, 36791, Note_on_c, 14, 38, 0
14, 36851, Note_on_c, 14, 38, 106
14, 36911, Note_on_c, 14, 38, 0
14, 36971, Note_on_c, 14, 43, 106
14, 36971, Control_c, 14, 11, 37
14, 37271, Note_on_c, 14, 43, 0
14, 37271, Note_on_c, 14, 41, 106
14, 37331, Note_on_c, 14, 41, 0
14, 37331, Note_on_c, 14, 39, 106
14, 37391, Note_on_c, 14, 39, 0
14, 37391, Note_on_c, 14, 38, 106
14, 37441, Note_on_c, 14, 38, 0
14, 37451, Note_on_c, 14, 36, 106
14, 37741, Note_on_c, 14, 36, 0
14, 37751, Note_on_c, 14, 34, 106
14, 37811, Note_on_c, 14, 34, 0
14, 37811, Note_on_c, 14, 33, 106
14, 37871, Note_on_c, 14, 33, 0
14, 37871, Note_on_c, 14, 31, 106
14, 37921, Note_on_c, 14, 31, 0
14, 37931, Note_on_c, 14, 29, 106
14, 38221, Note_on_c, 14, 29, 0
14, 38231, Note_on_c, 14, 31, 106
14, 38291, Note_on_c, 14, 31, 0
14, 38291, Note_on_c, 14, 32, 106
14, 38351, Note_on_c, 14, 32, 0
14, 38351, Note_on_c, 14, 33, 106
14, 38401, Note_on_c, 14, 33, 0
14, 38411, Note_on_c, 14, 34, 106
14, 38701, Note_on_c, 14, 34, 0
14, 38711, Note_on_c, 14, 36, 106
14, 38771, Note_on_c, 14, 36, 0
14, 38771, Note_on_c, 14, 37, 106
14, 38831, Note_on_c, 14, 37, 0
14, 38831, Note_on_c, 14, 38, 106
14, 38881, Note_on_c, 14, 38, 0
14, 38891, Note_on_c, 14, 39, 106
14, 38951, Note_on_c, 14, 39, 0
14, 38951, Note_on_c, 14, 38, 106
14, 39001, Note_on_c, 14, 38, 0
14, 39011, Note_on_c, 14, 39, 106
14, 39041, Note_on_c, 14, 39, 0
14, 39071, Note_on_c, 14, 40, 106
14, 39101, Note_on_c, 14, 40, 0
14, 39131, Note_on_c, 14, 41, 106
14, 39191, Note_on_c, 14, 41, 0
14, 39191, Note_on_c, 14, 40, 106
14, 39241, Note_on_c, 14, 40, 0
14, 39251, Note_on_c, 14, 41, 106
14, 39281, Note_on_c, 14, 41, 0
14, 39311, Note_on_c, 14, 41, 106
14, 39341, Note_on_c, 14, 41, 0
14, 39371, Note_on_c, 14, 42, 106
14, 39661, Note_on_c, 14, 42, 0
14, 39671, Note_on_c, 14, 38, 106
14, 39731, Note_on_c, 14, 38, 0
14, 39731, Note_on_c, 14, 40, 106
14, 39791, Note_on_c, 14, 40, 0
14, 39791, Note_on_c, 14, 42, 106
14, 39841, Note_on_c, 14, 42, 0
14, 39851, Note_on_c, 14, 43, 106
14, 40141, Note_on_c, 14, 43, 0
14, 40151, Note_on_c, 14, 43, 106
14, 40211, Note_on_c, 14, 43, 0
14, 40211, Note_on_c, 14, 45, 106
14, 40271, Note_on_c, 14, 45, 0
14, 40271, Note_on_c, 14, 46, 106
14, 40321, Note_on_c, 14, 46, 0
14, 40331, Note_on_c, 14, 48, 106
14, 40391, Note_on_c, 14, 48, 0
14, 40391, Note_on_c, 14, 47, 106
14, 40441, Note_on_c, 14, 47, 0
14, 40451, Note_on_c, 14, 48, 106
14, 40481, Note_on_c, 14, 48, 0
14, 40511, Note_on_c, 14, 48, 106
14, 40541, Note_on_c, 14, 48, 0
14, 40571, Note_on_c, 14, 49, 106
14, 40631, Note_on_c, 14, 49, 0
14, 40631, Note_on_c, 14, 48, 106
14, 40681, Note_on_c, 14, 48, 0
14, 40691, Note_on_c, 14, 49, 106
14, 40721, Note_on_c, 14, 49, 0
14, 40751, Note_on_c, 14, 49, 106
14, 40781, Note_on_c, 14, 49, 0
14, 40811, Note_on_c, 14, 50, 106
14, 40931, Control_c, 14, 11, 37
14, 40963, Control_c, 14, 11, 38
14, 40996, Control_c, 14, 11, 39
14, 41029, Control_c, 14, 11, 40
14, 41062, Control_c, 14, 11, 41
14, 41095, Control_c, 14, 11, 42
14, 41101, Note_on_c, 14, 50, 0
14, 41111, Note_on_c, 14, 49, 106
14, 41128, Control_c, 14, 11, 43
14, 41161, Control_c, 14, 11, 44
14, 41171, Note_on_c, 14, 49, 0
14, 41171, Note_on_c, 14, 50, 106
14, 41194, Control_c, 14, 11, 45
14, 41227, Control_c, 14, 11, 46
14, 41231, Note_on_c, 14, 50, 0
14, 41231, Note_on_c, 14, 51, 106
14, 41260, Control_c, 14, 11, 47
14, 41281, Note_on_c, 14, 51, 0
14, 41291, Note_on_c, 14, 52, 106
14, 41293, Control_c, 14, 11, 48
14, 41326, Control_c, 14, 11, 49
14, 41359, Control_c, 14, 11, 50
14, 41392, Control_c, 14, 11, 51
14, 41425, Control_c, 14, 11, 52
14, 41458, Control_c, 14, 11, 53
14, 41491, Control_c, 14, 11, 54
14, 41524, Control_c, 14, 11, 55
14, 41557, Control_c, 14, 11, 56
14, 41590, Control_c, 14, 11, 57
14, 41591, Note_on_c, 14, 52, 0
14, 41591, Note_on_c, 14, 50, 106
14, 41623, Control_c, 14, 11, 58
14, 41651, Note_on_c, 14, 50, 0
14, 41651, Note_on_c, 14, 48, 106
14, 41656, Control_c, 14, 11, 59
14, 41689, Control_c, 14, 11, 60
14, 41711, Note_on_c, 14, 48, 0
14, 41711, Note_on_c, 14, 47, 106
14, 41722, Control_c, 14, 11, 61
14, 41755, Control_c, 14, 11, 62
14, 41761, Note_on_c, 14, 47, 0
14, 41771, Note_on_c, 14, 48, 106
14, 41788, Control_c, 14, 11, 63
14, 41821, Control_c, 14, 11, 64
14, 41831, Note_on_c, 14, 48, 0
14, 41831, Note_on_c, 14, 47, 106
14, 41854, Control_c, 14, 11, 65
14, 41887, Control_c, 14, 11, 66
14, 41891, Note_on_c, 14, 47, 0
14, 41891, Note_on_c, 14, 48, 106
14, 41920, Control_c, 14, 11, 67
14, 41951, Note_on_c, 14, 48, 0
14, 41951, Note_on_c, 14, 49, 106
14, 41953, Control_c, 14, 11, 68
14, 41986, Control_c, 14, 11, 69
14, 42001, Note_on_c, 14, 49, 0
14, 42011, Note_on_c, 14, 50, 106
14, 42019, Control_c, 14, 11, 70
14, 42052, Control_c, 14, 11, 71
14, 42071, Note_on_c, 14, 50, 0
14, 42071, Note_on_c, 14, 48, 106
14, 42085, Control_c, 14, 11, 72
14, 42118, Control_c, 14, 11, 73
14, 42131, Note_on_c, 14, 48, 0
14, 42131, Note_on_c, 14, 50, 106
14, 42151, Control_c, 14, 11, 74
14, 42184, Control_c, 14, 11, 75
14, 42191, Note_on_c, 14, 50, 0
14, 42191, Note_on_c, 14, 38, 106
14, 42217, Control_c, 14, 11, 76
14, 42241, Note_on_c, 14, 38, 0
14, 42250, Control_c, 14, 11, 77
14, 42251, Note_on_c, 14, 43, 106
14, 42251, Control_c, 14, 11, 97
14, 42275, Control_c, 14, 11, 95
14, 42299, Control_c, 14, 11, 93
14, 42323, Control_c, 14, 11, 91
14, 42347, Control_c, 14, 11, 89
14, 42361, Note_on_c, 14, 43, 0
14, 42371, Note_on_c, 14, 38, 106
14, 42371, Control_c, 14, 11, 87
14, 42461, Note_on_c, 14, 38, 0
14, 42461, Note_on_c, 14, 42, 106
14, 42481, Note_on_c, 14, 42, 0
14, 42491, Note_on_c, 14, 43, 106
14, 42491, Control_c, 14, 11, 107
14, 42509, Control_c, 14, 11, 104
14, 42527, Control_c, 14, 11, 101
14, 42545, Control_c, 14, 11, 98
14, 42563, Control_c, 14, 11, 95
14, 42581, Control_c, 14, 11, 92
14, 42599, Control_c, 14, 11, 89
14, 42841, Note_on_c, 14, 43, 0
14, 42851, Note_on_c, 14, 38, 106
14, 42941, Note_on_c, 14, 38, 0
14, 42941, Note_on_c, 14, 42, 106
14, 42961, Note_on_c, 14, 42, 0
14, 42971, Note_on_c, 14, 43, 106
14, 42971, Control_c, 14, 11, 107
14, 42989, Control_c, 14, 11, 104
14, 43007, Control_c, 14, 11, 101
14, 43025, Control_c, 14, 11, 98
14, 43043, Control_c, 14, 11, 95
14, 43061, Control_c, 14, 11, 92
14, 43079, Control_c, 14, 11, 89
14, 43331, Note_on_c, 14, 43, 0
14, 43451, Control_c, 14, 11, 107
14, 43451, Note_on_c, 14, 38, 106
14, 43469, Control_c, 14, 11, 104
14, 43487, Control_c, 14, 11, 101
14, 43505, Control_c, 14, 11, 98
14, 43523, Control_c, 14, 11, 95
14, 43541, Control_c, 14, 11, 92
14, 43559, Control_c, 14, 11, 89
14, 43571, Note_on_c, 14, 38, 0
14, 43691, Note_on_c, 14, 43, 106
14, 43691, Control_c, 14, 11, 107
14, 43708, Control_c, 14, 11, 104
14, 43726, Control_c, 14, 11, 101
14, 43744, Control_c, 14, 11, 98
14, 43762, Control_c, 14, 11, 95
14, 43780, Control_c, 14, 11, 92
14, 43798, Control_c, 14, 11, 89
14, 43811, Note_on_c, 14, 43, 0
14, 43931, Note_on_c, 14, 45, 106
14, 43931, Control_c, 14, 11, 107
14, 43948, Control_c, 14, 11, 104
14, 43966, Control_c, 14, 11, 101
14, 43984, Control_c, 14, 11, 98
14, 44002, Control_c, 14, 11, 95
14, 44020, Control_c, 14, 11, 92
14, 44038, Control_c, 14, 11, 89
14, 44051, Note_on_c, 14, 45, 0
14, 44171, Note_on_c, 14, 35, 106
14, 44231, Note_on_c, 14, 35, 0
14, 44291, Note_on_c, 14, 38, 106
14, 44351, Note_on_c, 14, 38, 0
14, 44411, Note_on_c, 14, 43, 106
14, 44471, Note_on_c, 14, 43, 0
14, 44531, Note_on_c, 14, 47, 106
14, 44591, Note_on_c, 14, 47, 0
14, 44651, Note_on_c, 14, 33, 106
14, 44711, Note_on_c, 14, 33, 0
14, 44771, Note_on_c, 14, 36, 106
14, 44831, Note_on_c, 14, 36, 0
14, 44891, Note_on_c, 14, 42, 106
14, 44951, Note_on_c, 14, 42, 0
14, 45011, Note_on_c, 14, 45, 106
14, 45071, Note_on_c, 14, 45, 0
14, 45131, Note_on_c, 14, 32, 106
14, 45131, Control_c, 14, 11, 102
14, 45191, Note_on_c, 14, 32, 0
14, 45251, Note_on_c, 14, 35, 106
14, 45311, Note_on_c, 14, 35, 0
14, 45371, Note_on_c, 14, 40, 106
14, 45431, Note_on_c, 14, 40, 0
14, 45491, Note_on_c, 14, 44, 106
14, 45551, Note_on_c, 14, 44, 0
14, 45611, Note_on_c, 14, 38, 106
14, 45671, Note_on_c, 14, 38, 0
14, 45731, Note_on_c, 14, 50, 106
14, 45791, Note_on_c, 14, 50, 0
14, 45851, Note_on_c, 14, 50, 106
14, 45911, Note_on_c, 14, 50, 0
14, 45971, Note_on_c, 14, 50, 106
14, 46031, Note_on_c, 14, 50, 0
14, 46091, Note_on_c, 14, 36, 106
14, 46151, Note_on_c, 14, 36, 0
14, 46211, Note_on_c, 14, 48, 106
14, 46271, Note_on_c, 14, 48, 0
14, 46331, Note_on_c, 14, 48, 106
14, 46391, Note_on_c, 14, 48, 0
14, 46451, Note_on_c, 14, 48, 106
14, 46511, Note_on_c, 14, 48, 0
14, 46571, Note_on_c, 14, 37, 106
14, 46631, Note_on_c, 14, 37, 0
14, 46691, Note_on_c, 14, 43, 106
14, 46751, Note_on_c, 14, 43, 0
14, 46811, Note_on_c, 14, 40, 106
14, 46871, Note_on_c, 14, 40, 0
14, 46931, Note_on_c, 14, 37, 106
14, 46991, Note_on_c, 14, 37, 0
14, 47051, Note_on_c, 14, 38, 106
14, 47051, Control_c, 14, 11, 122
14, 47068, Control_c, 14, 11, 119
14, 47086, Control_c, 14, 11, 116
14, 47101, Note_on_c, 14, 38, 0
14, 47104, Control_c, 14, 11, 113
14, 47111, Note_on_c, 14, 38, 106
14, 47122, Control_c, 14, 11, 110
14, 47140, Control_c, 14, 11, 107
14, 47158, Control_c, 14, 11, 104
14, 47161, Note_on_c, 14, 38, 0
14, 47171, Note_on_c, 14, 38, 106
14, 47221, Note_on_c, 14, 38, 0
14, 47231, Note_on_c, 14, 38, 106
14, 47281, Note_on_c, 14, 38, 0
14, 47291, Note_on_c, 14, 40, 106
14, 47291, Control_c, 14, 11, 122
14, 47308, Control_c, 14, 11, 119
14, 47326, Control_c, 14, 11, 116
14, 47341, Note_on_c, 14, 40, 0
14, 47344, Control_c, 14, 11, 113
14, 47351, Note_on_c, 14, 40, 106
14, 47362, Control_c, 14, 11, 110
14, 47380, Control_c, 14, 11, 107
14, 47398, Control_c, 14, 11, 104
14, 47401, Note_on_c, 14, 40, 0
14, 47411, Note_on_c, 14, 40, 106
14, 47461, Note_on_c, 14, 40, 0
14, 47471, Note_on_c, 14, 40, 106
14, 47521, Note_on_c, 14, 40, 0
14, 47531, Note_on_c, 14, 36, 106
14, 47531, Control_c, 14, 11, 122
14, 47548, Control_c, 14, 11, 119
14, 47566, Control_c, 14, 11, 116
14, 47581, Note_on_c, 14, 36, 0
14, 47584, Control_c, 14, 11, 113
14, 47591, Note_on_c, 14, 36, 106
14, 47602, Control_c, 14, 11, 110
14, 47620, Control_c, 14, 11, 107
14, 47638, Control_c, 14, 11, 104
14, 47641, Note_on_c, 14, 36, 0
14, 47651, Note_on_c, 14, 36, 106
14, 47701, Note_on_c, 14, 36, 0
14, 47711, Note_on_c, 14, 36, 106
14, 47761, Note_on_c, 14, 36, 0
14, 47771, Note_on_c, 14, 38, 106
14, 47771, Control_c, 14, 11, 122
14, 47788, Control_c, 14, 11, 119
14, 47806, Control_c, 14, 11, 116
14, 47821, Note_on_c, 14, 38, 0
14, 47824, Control_c, 14, 11, 113
14, 47831, Note_on_c, 14, 38, 106
14, 47842, Control_c, 14, 11, 110
14, 47860, Control_c, 14, 11, 107
14, 47878, Control_c, 14, 11, 104
14, 47881, Note_on_c, 14, 38, 0
14, 47891, Note_on_c, 14, 38, 106
14, 47941, Note_on_c, 14, 38, 0
14, 47951, Note_on_c, 14, 38, 106
14, 48001, Note_on_c, 14, 38, 0
14, 48011, Control_c, 14, 11, 87
14, 48011, Note_on_c, 14, 31, 106
14, 48029, Control_c, 14, 11, 84
14, 48047, Control_c, 14, 11, 81
14, 48065, Control_c, 14, 11, 78
14, 48083, Control_c, 14, 11, 75
14, 48101, Control_c, 14, 11, 72
14, 48119, Control_c, 14, 11, 69
14, 48131, Note_on_c, 14, 31, 0
14, 48851, Control_c, 14, 11, 63
14, 48851, Note_on_c, 14, 38, 106
14, 48857, Control_c, 14, 11, 66
14, 48864, Control_c, 14, 11, 69
14, 48872, Control_c, 14, 11, 72
14, 48887, Control_c, 14, 11, 71
14, 48905, Control_c, 14, 11, 68
14, 48923, Control_c, 14, 11, 65
14, 48941, Control_c, 14, 11, 62
14, 48959, Control_c, 14, 11, 59
14, 48971, Note_on_c, 14, 38, 0
14, 48971, Note_on_c, 14, 43, 106
14, 48971, Control_c, 14, 11, 47
14, 48977, Control_c, 14, 11, 56
14, 48995, Control_c, 14, 11, 53
14, 49013, Control_c, 14, 11, 50
14, 49091, Note_on_c, 14, 43, 0
14, 49811, Note_on_c, 14, 38, 106
14, 49811, Control_c, 14, 11, 63
14, 49817, Control_c, 14, 11, 66
14, 49824, Control_c, 14, 11, 69
14, 49832, Control_c, 14, 11, 72
14, 49847, Control_c, 14, 11, 71
14, 49865, Control_c, 14, 11, 68
14, 49883, Control_c, 14, 11, 65
14, 49901, Control_c, 14, 11, 62
14, 49919, Control_c, 14, 11, 59
14, 49931, Note_on_c, 14, 38, 0
14, 49931, Control_c, 14, 11, 47
14, 49931, Control_c, 14, 11, 57
14, 49931, Note_on_c, 14, 43, 106
14, 49949, Control_c, 14, 11, 54
14, 49967, Control_c, 14, 11, 51
14, 49985, Control_c, 14, 11, 48
14, 50051, Note_on_c, 14, 43, 0
14, 50291, Note_on_c, 14, 38, 106
14, 50291, Control_c, 14, 11, 63
14, 50297, Control_c, 14, 11, 66
14, 50304, Control_c, 14, 11, 69
14, 50312, Control_c, 14, 11, 72
14, 50327, Control_c, 14, 11, 71
14, 50345, Control_c, 14, 11, 68
14, 50363, Control_c, 14, 11, 65
14, 50381, Control_c, 14, 11, 62
14, 50399, Control_c, 14, 11, 59
14, 50411, Note_on_c, 14, 38, 0
14, 50411, Note_on_c, 14, 43, 106
14, 50411, Control_c, 14, 11, 47
14, 50417, Control_c, 14, 11, 56
14, 50435, Control_c, 14, 11, 53
14, 50453, Control_c, 14, 11, 50
14, 50531, Note_on_c, 14, 43, 0
14, 50766, Control_c, 14, 11, 67
14, 50767, Control_c, 14, 11, 74
14, 50768, Control_c, 14, 11, 81
14, 50769, Control_c, 14, 11, 88
14, 50770, Control_c, 14, 11, 95
14, 50771, Control_c, 14, 11, 102
14, 50771, Note_on_c, 14, 38, 106
14, 50891, Note_on_c, 14, 38, 0
14, 50891, Note_on_c, 14, 43, 106
14, 50951, Note_on_c, 14, 43, 0
14, 51851, Note_on_c, 14, 31, 96
14, 51971, Note_on_c, 14, 31, 0
14, 52691, Note_on_c, 14, 31, 96
14, 52691, Control_c, 14, 11, 47
14, 52781, Note_on_c, 14, 31, 0
14, 52781, Note_on_c, 14, 35, 96
14, 52801, Note_on_c, 14, 35, 0
14, 52811, Note_on_c, 14, 36, 86
14, 52931, Note_on_c, 14, 36, 0
14, 53291, Note_on_c, 14, 36, 63
14, 53411, Note_on_c, 14, 36, 0
14, 53771, Note_on_c, 14, 36, 63
14, 53891, Note_on_c, 14, 36, 0
14, 54011, Note_on_c, 14, 36, 63
14, 54131, Note_on_c, 14, 36, 0
14, 54251, Note_on_c, 14, 36, 63
14, 54371, Note_on_c, 14, 36, 0
14, 55571, Note_on_c, 14, 45, 106
14, 55601, Note_on_c, 14, 45, 0
14, 55601, Note_on_c, 14, 43, 106
14, 55631, Note_on_c, 14, 43, 0
14, 55631, Note_on_c, 14, 41, 106
14, 55661, Note_on_c, 14, 41, 0
14, 55661, Note_on_c, 14, 40, 106
14, 55691, Note_on_c, 14, 40, 0
14, 55691, Note_on_c, 14, 38, 106
14, 55811, Note_on_c, 14, 38, 0
14, 56171, Note_on_c, 14, 38, 74
14, 56291, Note_on_c, 14, 38, 0
14, 56651, Note_on_c, 14, 38, 74
14, 56771, Note_on_c, 14, 38, 0
14, 56891, Note_on_c, 14, 38, 74
14, 57011, Note_on_c, 14, 38, 0
14, 57131, Note_on_c, 14, 38, 74
14, 57251, Note_on_c, 14, 38, 0
14, 57611, Control_c, 14, 11, 32
14, 57611, Note_on_c, 14, 38, 106
14, 57622, Control_c, 14, 11, 35
14, 57633, Control_c, 14, 11, 38
14, 57644, Control_c, 14, 11, 41
14, 57656, Control_c, 14, 11, 44
14, 57667, Control_c, 14, 11, 47
14, 57707, Control_c, 14, 11, 50
14, 57739, Control_c, 14, 11, 51
14, 57771, Control_c, 14, 11, 52
14, 57803, Control_c, 14, 11, 53
14, 57835, Control_c, 14, 11, 54
14, 57867, Control_c, 14, 11, 55
14, 57899, Control_c, 14, 11, 56
14, 57931, Control_c, 14, 11, 57
14, 57963, Control_c, 14, 11, 58
14, 57995, Control_c, 14, 11, 59
14, 58027, Control_c, 14, 11, 60
14, 58059, Control_c, 14, 11, 61
14, 58091, Note_on_c, 14, 38, 0
14, 58091, Note_on_c, 14, 38, 106
14, 58091, Control_c, 14, 11, 62
14, 58121, Note_on_c, 14, 38, 0
14, 58121, Note_on_c, 14, 36, 106
14, 58123, Control_c, 14, 11, 63
14, 58151, Note_on_c, 14, 36, 0
14, 58151, Note_on_c, 14, 38, 106
14, 58155, Control_c, 14, 11, 64
14, 58181, Note_on_c, 14, 38, 0
14, 58181, Note_on_c, 14, 36, 106
14, 58187, Control_c, 14, 11, 65
14, 58211, Note_on_c, 14, 36, 0
14, 58211, Note_on_c, 14, 38, 106
14, 58219, Control_c, 14, 11, 66
14, 58241, Note_on_c, 14, 38, 0
14, 58241, Note_on_c, 14, 36, 106
14, 58251, Control_c, 14, 11, 67
14, 58271, Note_on_c, 14, 36, 0
14, 58271, Note_on_c, 14, 38, 106
14, 58283, Control_c, 14, 11, 68
14, 58301, Note_on_c, 14, 38, 0
14, 58301, Note_on_c, 14, 36, 106
14, 58315, Control_c, 14, 11, 69
14, 58331, Note_on_c, 14, 36, 0
14, 58331, Note_on_c, 14, 38, 106
14, 58347, Control_c, 14, 11, 70
14, 58361, Note_on_c, 14, 38, 0
14, 58361, Note_on_c, 14, 36, 106
14, 58379, Control_c, 14, 11, 71
14, 58391, Note_on_c, 14, 36, 0
14, 58391, Note_on_c, 14, 38, 106
14, 58411, Control_c, 14, 11, 72
14, 58421, Note_on_c, 14, 38, 0
14, 58421, Note_on_c, 14, 36, 106
14, 58443, Control_c, 14, 11, 73
14, 58451, Note_on_c, 14, 36, 0
14, 58451, Note_on_c, 14, 38, 106
14, 58475, Control_c, 14, 11, 74
14, 58481, Note_on_c, 14, 38, 0
14, 58481, Note_on_c, 14, 36, 106
14, 58507, Control_c, 14, 11, 75
14, 58511, Note_on_c, 14, 36, 0
14, 58511, Note_on_c, 14, 35, 106
14, 58539, Control_c, 14, 11, 76
14, 58541, Note_on_c, 14, 35, 0
14, 58541, Note_on_c, 14, 36, 106
14, 58571, Note_on_c, 14, 36, 0
14, 58571, Control_c, 14, 11, 84
14, 58571, Note_on_c, 14, 35, 106
14, 58576, Control_c, 14, 11, 87
14, 58581, Control_c, 14, 11, 90
14, 58586, Control_c, 14, 11, 93
14, 58606, Control_c, 14, 11, 91
14, 58624, Control_c, 14, 11, 88
14, 58642, Control_c, 14, 11, 85
14, 58660, Control_c, 14, 11, 82
14, 58678, Control_c, 14, 11, 79
14, 58691, Control_c, 14, 11, 67
14, 58841, Control_c, 14, 11, 67
14, 58847, Control_c, 14, 11, 64
14, 58853, Control_c, 14, 11, 61
14, 58859, Control_c, 14, 11, 58
14, 58865, Control_c, 14, 11, 55
14, 58871, Control_c, 14, 11, 52
14, 58877, Control_c, 14, 11, 49
14, 58879, Note_on_c, 14, 35, 0
14, 59411, Control_c, 14, 11, 67
14, 59411, Note_on_c, 14, 31, 106
14, 59501, Note_on_c, 14, 31, 0
14, 59501, Note_on_c, 14, 35, 106
14, 59531, Note_on_c, 14, 35, 0
14, 59531, Control_c, 14, 11, 97
14, 59531, Note_on_c, 14, 38, 106
14, 59549, Control_c, 14, 11, 94
14, 59567, Control_c, 14, 11, 91
14, 59585, Control_c, 14, 11, 88
14, 59603, Control_c, 14, 11, 85
14, 59621, Control_c, 14, 11, 82
14, 59639, Control_c, 14, 11, 79
14, 59801, Control_c, 14, 11, 67
14, 59807, Control_c, 14, 11, 64
14, 59813, Control_c, 14, 11, 61
14, 59819, Control_c, 14, 11, 58
14, 59825, Control_c, 14, 11, 55
14, 59831, Control_c, 14, 11, 52
14, 59837, Control_c, 14, 11, 49
14, 59839, Note_on_c, 14, 38, 0
14, 60371, Note_on_c, 14, 35, 106
14, 60371, Control_c, 14, 11, 67
14, 60461, Note_on_c, 14, 35, 0
14, 60461, Note_on_c, 14, 38, 106
14, 60491, Note_on_c, 14, 38, 0
14, 60491, Control_c, 14, 11, 97
14, 60491, Note_on_c, 14, 41, 106
14, 60509, Control_c, 14, 11, 94
14, 60527, Control_c, 14, 11, 91
14, 60545, Control_c, 14, 11, 88
14, 60563, Control_c, 14, 11, 85
14, 60581, Control_c, 14, 11, 82
14, 60599, Control_c, 14, 11, 79
14, 60761, Control_c, 14, 11, 67
14, 60767, Control_c, 14, 11, 64
14, 60773, Control_c, 14, 11, 61
14, 60779, Control_c, 14, 11, 58
14, 60785, Control_c, 14, 11, 55
14, 60791, Control_c, 14, 11, 52
14, 60797, Control_c, 14, 11, 49
14, 60799, Note_on_c, 14, 41, 0
14, 60971, Control_c, 14, 11, 77
14, 60990, Control_c, 14, 11, 78
14, 61009, Control_c, 14, 11, 79
14, 61028, Control_c, 14, 11, 80
14, 61047, Control_c, 14, 11, 81
14, 61066, Control_c, 14, 11, 82
14, 61085, Control_c, 14, 11, 83
14, 61105, Control_c, 14, 11, 84
14, 61124, Control_c, 14, 11, 85
14, 61143, Control_c, 14, 11, 86
14, 61162, Control_c, 14, 11, 87
14, 61181, Control_c, 14, 11, 88
14, 61200, Control_c, 14, 11, 89
14, 61211, Note_on_c, 14, 41, 96
14, 61220, Control_c, 14, 11, 90
14, 61239, Control_c, 14, 11, 91
14, 61241, Note_on_c, 14, 41, 0
14, 61258, Control_c, 14, 11, 92
14, 61271, Note_on_c, 14, 38, 96
14, 61277, Control_c, 14, 11, 93
14, 61296, Control_c, 14, 11, 94
14, 61301, Note_on_c, 14, 38, 0
14, 61315, Control_c, 14, 11, 95
14, 61331, Note_on_c, 14, 35, 96
14, 61335, Control_c, 14, 11, 96
14, 61354, Control_c, 14, 11, 97
14, 61361, Note_on_c, 14, 35, 0
14, 61373, Control_c, 14, 11, 98
14, 61391, Note_on_c, 14, 31, 96
14, 61392, Control_c, 14, 11, 99
14, 61411, Control_c, 14, 11, 100
14, 61421, Note_on_c, 14, 31, 0
14, 61430, Control_c, 14, 11, 101
14, 61450, Control_c, 14, 11, 102
14, 61451, Note_on_c, 14, 36, 96
14, 61511, Note_on_c, 14, 36, 0
14, 61691, Note_on_c, 14, 41, 96
14, 61751, Note_on_c, 14, 41, 0
14, 61931, Note_on_c, 14, 43, 96
14, 61991, Note_on_c, 14, 43, 0
14, 62171, Note_on_c, 14, 31, 96
14, 62231, Note_on_c, 14, 31, 0
14, 62411, Note_on_c, 14, 36, 96
14, 62461, Note_on_c, 14, 36, 0
14, 62471, Note_on_c, 14, 36, 96
14, 62521, Note_on_c, 14, 36, 0
14, 62531, Note_on_c, 14, 36, 96
14, 62581, Note_on_c, 14, 36, 0
14, 62591, Note_on_c, 14, 36, 96
14, 62641, Note_on_c, 14, 36, 0
14, 62651, Note_on_c, 14, 36, 96
14, 62701, Note_on_c, 14, 36, 0
14, 62711, Note_on_c, 14, 36, 96
14, 62761, Note_on_c, 14, 36, 0
14, 62771, Note_on_c, 14, 36, 96
14, 62821, Note_on_c, 14, 36, 0
14, 62831, Note_on_c, 14, 36, 96
14, 62881, Note_on_c, 14, 36, 0
14, 62891, Control_c, 14, 11, 122
14, 62891, Note_on_c, 14, 36, 96
14, 62909, Control_c, 14, 11, 119
14, 62927, Control_c, 14, 11, 116
14, 62941, Note_on_c, 14, 36, 0
14, 62945, Control_c, 14, 11, 113
14, 62951, Note_on_c, 14, 36, 96
14, 62963, Control_c, 14, 11, 110
14, 62981, Control_c, 14, 11, 107
14, 62999, Control_c, 14, 11, 104
14, 63001, Note_on_c, 14, 36, 0
14, 63011, Note_on_c, 14, 36, 96
14, 63061, Note_on_c, 14, 36, 0
14, 63071, Note_on_c, 14, 36, 96
14, 63121, Note_on_c, 14, 36, 0
14, 63131, Note_on_c, 14, 36, 96
14, 63181, Note_on_c, 14, 36, 0
14, 63191, Note_on_c, 14, 36, 96
14, 63241, Note_on_c, 14, 36, 0
14, 63251, Note_on_c, 14, 36, 96
14, 63301, Note_on_c, 14, 36, 0
14, 63311, Note_on_c, 14, 36, 96
14, 63361, Note_on_c, 14, 36, 0
14, 63371, Note_on_c, 14, 36, 96
14, 63421, Note_on_c, 14, 36, 0
14, 63431, Note_on_c, 14, 36, 96
14, 63481, Note_on_c, 14, 36, 0
14, 63491, Note_on_c, 14, 36, 96
14, 63541, Note_on_c, 14, 36, 0
14, 63551, Note_on_c, 14, 36, 96
14, 63601, Note_on_c, 14, 36, 0
14, 63611, Note_on_c, 14, 36, 96
14, 63661, Note_on_c, 14, 36, 0
14, 63671, Note_on_c, 14, 36, 96
14, 63721, Note_on_c, 14, 36, 0
14, 63731, Note_on_c, 14, 36, 96
14, 63781, Note_on_c, 14, 36, 0
14, 63791, Note_on_c, 14, 36, 96
14, 63841, Note_on_c, 14, 36, 0
14, 63851, Note_on_c, 14, 36, 96
14, 63901, Note_on_c, 14, 36, 0
14, 63911, Note_on_c, 14, 36, 96
14, 63961, Note_on_c, 14, 36, 0
14, 63971, Note_on_c, 14, 36, 96
14, 64021, Note_on_c, 14, 36, 0
14, 64031, Note_on_c, 14, 36, 96
14, 64081, Note_on_c, 14, 36, 0
14, 64091, Note_on_c, 14, 36, 96
14, 64141, Note_on_c, 14, 36, 0
14, 64151, Note_on_c, 14, 36, 96
14, 64201, Note_on_c, 14, 36, 0
14, 64211, Note_on_c, 14, 36, 96
14, 64261, Note_on_c, 14, 36, 0
14, 64271, Note_on_c, 14, 36, 96
14, 64321, Note_on_c, 14, 36, 0
14, 64331, Note_on_c, 14, 36, 96
14, 64381, Note_on_c, 14, 36, 0
14, 64391, Note_on_c, 14, 36, 96
14, 64441, Note_on_c, 14, 36, 0
14, 64451, Note_on_c, 14, 36, 96
14, 64501, Note_on_c, 14, 36, 0
14, 64511, Note_on_c, 14, 36, 96
14, 64561, Note_on_c, 14, 36, 0
14, 64571, Note_on_c, 14, 36, 96
14, 64621, Note_on_c, 14, 36, 0
14, 64631, Note_on_c, 14, 36, 96
14, 64681, Note_on_c, 14, 36, 0
14, 64691, Note_on_c, 14, 36, 96
14, 64741, Note_on_c, 14, 36, 0
14, 64751, Note_on_c, 14, 36, 96
14, 64801, Note_on_c, 14, 36, 0
14, 64811, Note_on_c, 14, 36, 96
14, 64811, Control_c, 14, 11, 122
14, 64829, Control_c, 14, 11, 119
14, 64847, Control_c, 14, 11, 116
14, 64861, Note_on_c, 14, 36, 0
14, 64865, Control_c, 14, 11, 113
14, 64871, Note_on_c, 14, 36, 96
14, 64883, Control_c, 14, 11, 110
14, 64901, Control_c, 14, 11, 107
14, 64919, Control_c, 14, 11, 104
14, 64921, Note_on_c, 14, 36, 0
14, 64931, Note_on_c, 14, 36, 96
14, 64981, Note_on_c, 14, 36, 0
14, 64991, Note_on_c, 14, 36, 96
14, 65041, Note_on_c, 14, 36, 0
14, 65051, Note_on_c, 14, 36, 96
14, 65101, Note_on_c, 14, 36, 0
14, 65111, Note_on_c, 14, 36, 96
14, 65161, Note_on_c, 14, 36, 0
14, 65171, Note_on_c, 14, 36, 96
14, 65221, Note_on_c, 14, 36, 0
14, 65231, Note_on_c, 14, 36, 96
14, 65281, Note_on_c, 14, 36, 0
14, 65291, Note_on_c, 14, 36, 96
14, 65341, Note_on_c, 14, 36, 0
14, 65351, Note_on_c, 14, 36, 96
14, 65401, Note_on_c, 14, 36, 0
14, 65411, Note_on_c, 14, 36, 96
14, 65461, Note_on_c, 14, 36, 0
14, 65471, Note_on_c, 14, 36, 96
14, 65521, Note_on_c, 14, 36, 0
14, 65531, Note_on_c, 14, 36, 96
14, 65581, Note_on_c, 14, 36, 0
14, 65591, Note_on_c, 14, 36, 96
14, 65641, Note_on_c, 14, 36, 0
14, 65651, Note_on_c, 14, 36, 96
14, 65701, Note_on_c, 14, 36, 0
14, 65711, Note_on_c, 14, 36, 96
14, 65761, Note_on_c, 14, 36, 0
14, 65771, Note_on_c, 14, 36, 96
14, 65821, Note_on_c, 14, 36, 0
14, 65831, Note_on_c, 14, 36, 96
14, 65881, Note_on_c, 14, 36, 0
14, 65891, Note_on_c, 14, 36, 96
14, 65941, Note_on_c, 14, 36, 0
14, 65951, Note_on_c, 14, 36, 96
14, 66001, Note_on_c, 14, 36, 0
14, 66011, Note_on_c, 14, 36, 96
14, 66061, Note_on_c, 14, 36, 0
14, 66071, Note_on_c, 14, 36, 96
14, 66121, Note_on_c, 14, 36, 0
14, 66131, Note_on_c, 14, 36, 96
14, 66181, Note_on_c, 14, 36, 0
14, 66191, Note_on_c, 14, 36, 96
14, 66241, Note_on_c, 14, 36, 0
14, 66251, Note_on_c, 14, 36, 96
14, 66371, Note_on_c, 14, 36, 0
14, 66611, Control_c, 14, 11, 87
14, 66611, Note_on_c, 14, 33, 96
14, 66641, Note_on_c, 14, 33, 0
14, 66671, Note_on_c, 14, 37, 96
14, 66701, Note_on_c, 14, 37, 0
14, 66731, Control_c, 14, 11, 87
14, 66731, Note_on_c, 14, 38, 96
14, 66788, Control_c, 14, 11, 88
14, 66846, Control_c, 14, 11, 89
14, 66851, Note_on_c, 14, 38, 0
14, 66903, Control_c, 14, 11, 90
14, 66961, Control_c, 14, 11, 91
14, 67019, Control_c, 14, 11, 92
14, 67076, Control_c, 14, 11, 93
14, 67091, Note_on_c, 14, 35, 96
14, 67121, Note_on_c, 14, 35, 0
14, 67134, Control_c, 14, 11, 94
14, 67151, Note_on_c, 14, 39, 96
14, 67181, Note_on_c, 14, 39, 0
14, 67191, Control_c, 14, 11, 95
14, 67211, Note_on_c, 14, 40, 96
14, 67241, Note_on_c, 14, 40, 0
14, 67249, Control_c, 14, 11, 96
14, 67271, Note_on_c, 14, 40, 96
14, 67301, Note_on_c, 14, 40, 0
14, 67307, Control_c, 14, 11, 97
14, 67331, Note_on_c, 14, 36, 96
14, 67361, Note_on_c, 14, 36, 0
14, 67364, Control_c, 14, 11, 98
14, 67391, Note_on_c, 14, 40, 96
14, 67421, Note_on_c, 14, 40, 0
14, 67422, Control_c, 14, 11, 99
14, 67451, Note_on_c, 14, 41, 96
14, 67479, Control_c, 14, 11, 100
14, 67481, Note_on_c, 14, 41, 0
14, 67511, Note_on_c, 14, 38, 96
14, 67537, Control_c, 14, 11, 101
14, 67541, Note_on_c, 14, 38, 0
14, 67571, Note_on_c, 14, 43, 96
14, 67595, Control_c, 14, 11, 102
14, 67601, Note_on_c, 14, 43, 0
14, 67631, Note_on_c, 14, 40, 96
14, 67652, Control_c, 14, 11, 103
14, 67661, Note_on_c, 14, 40, 0
14, 67691, Note_on_c, 14, 45, 96
14, 67710, Control_c, 14, 11, 104
14, 67721, Note_on_c, 14, 45, 0
14, 67751, Note_on_c, 14, 41, 96
14, 67767, Control_c, 14, 11, 105
14, 67781, Note_on_c, 14, 41, 0
14, 67811, Note_on_c, 14, 47, 96
14, 67825, Control_c, 14, 11, 106
14, 67841, Note_on_c, 14, 47, 0
14, 67871, Note_on_c, 14, 43, 96
14, 67883, Control_c, 14, 11, 107
14, 67901, Note_on_c, 14, 43, 0
14, 67931, Note_on_c, 14, 48, 96
14, 67940, Control_c, 14, 11, 108
14, 67961, Note_on_c, 14, 48, 0
14, 67991, Note_on_c, 14, 45, 96
14, 67998, Control_c, 14, 11, 109
14, 68021, Note_on_c, 14, 45, 0
14, 68051, Note_on_c, 14, 40, 96
14, 68055, Control_c, 14, 11, 110
14, 68081, Note_on_c, 14, 40, 0
14, 68111, Note_on_c, 14, 42, 96
14, 68113, Control_c, 14, 11, 111
14, 68141, Note_on_c, 14, 42, 0
14, 68171, Note_on_c, 14, 31, 96
14, 68171, Control_c, 14, 11, 112
14, 68189, Control_c, 14, 11, 109
14, 68207, Control_c, 14, 11, 106
14, 68221, Note_on_c, 14, 31, 0
14, 68225, Control_c, 14, 11, 103
14, 68231, Note_on_c, 14, 43, 96
14, 68261, Note_on_c, 14, 43, 0
14, 68291, Note_on_c, 14, 43, 96
14, 68321, Note_on_c, 14, 43, 0
14, 68351, Note_on_c, 14, 43, 96
14, 68381, Note_on_c, 14, 43, 0
14, 68411, Note_on_c, 14, 41, 96
14, 68471, Note_on_c, 14, 41, 0
14, 68471, Note_on_c, 14, 40, 96
14, 68521, Note_on_c, 14, 40, 0
14, 68531, Note_on_c, 14, 38, 96
14, 68561, Note_on_c, 14, 38, 0
14, 68591, Note_on_c, 14, 36, 96
14, 68621, Note_on_c, 14, 36, 0
14, 68651, Note_on_c, 14, 31, 96
14, 68771, Note_on_c, 14, 31, 0
14, 68891, Note_on_c, 14, 43, 96
14, 69011, Note_on_c, 14, 43, 0
14, 69131, Note_on_c, 14, 31, 96
14, 69181, Note_on_c, 14, 31, 0
14, 69191, Note_on_c, 14, 43, 96
14, 69221, Note_on_c, 14, 43, 0
14, 69251, Note_on_c, 14, 43, 96
14, 69281, Note_on_c, 14, 43, 0
14, 69311, Note_on_c, 14, 43, 96
14, 69341, Note_on_c, 14, 43, 0
14, 69371, Note_on_c, 14, 41, 96
14, 69431, Note_on_c, 14, 41, 0
14, 69431, Note_on_c, 14, 40, 96
14, 69481, Note_on_c, 14, 40, 0
14, 69491, Note_on_c, 14, 38, 96
14, 69521, Note_on_c, 14, 38, 0
14, 69551, Note_on_c, 14, 36, 96
14, 69581, Note_on_c, 14, 36, 0
14, 69611, Note_on_c, 14, 31, 96
14, 69731, Note_on_c, 14, 31, 0
14, 69851, Note_on_c, 14, 43, 96
14, 69971, Note_on_c, 14, 43, 0
14, 70091, Note_on_c, 14, 31, 96
14, 70141, Note_on_c, 14, 31, 0
14, 70151, Note_on_c, 14, 43, 96
14, 70181, Note_on_c, 14, 43, 0
14, 70211, Note_on_c, 14, 43, 96
14, 70241, Note_on_c, 14, 43, 0
14, 70271, Note_on_c, 14, 43, 96
14, 70301, Note_on_c, 14, 43, 0
14, 70331, Note_on_c, 14, 41, 96
14, 70391, Note_on_c, 14, 41, 0
14, 70391, Note_on_c, 14, 40, 96
14, 70441, Note_on_c, 14, 40, 0
14, 70451, Note_on_c, 14, 38, 96
14, 70481, Note_on_c, 14, 38, 0
14, 70511, Note_on_c, 14, 36, 96
14, 70541, Note_on_c, 14, 36, 0
14, 70571, Note_on_c, 14, 31, 96
14, 70621, Note_on_c, 14, 31, 0
14, 70631, Note_on_c, 14, 43, 96
14, 70661, Note_on_c, 14, 43, 0
14, 70691, Note_on_c, 14, 43, 96
14, 70721, Note_on_c, 14, 43, 0
14, 70751, Note_on_c, 14, 43, 96
14, 70781, Note_on_c, 14, 43, 0
14, 70811, Note_on_c, 14, 41, 96
14, 70871, Note_on_c, 14, 41, 0
14, 70871, Note_on_c, 14, 40, 96
14, 70921, Note_on_c, 14, 40, 0
14, 70931, Note_on_c, 14, 38, 96
14, 70961, Note_on_c, 14, 38, 0
14, 70991, Note_on_c, 14, 36, 96
14, 71021, Note_on_c, 14, 36, 0
14, 71051, Note_on_c, 14, 31, 96
14, 71171, Note_on_c, 14, 31, 0
14, 71291, Note_on_c, 14, 43, 96
14, 71411, Note_on_c, 14, 43, 0
14, 71531, Note_on_c, 14, 31, 96
14, 71651, Note_on_c, 14, 31, 0
14, 72011, Note_on_c, 14, 43, 78
14, 72011, Control_c, 14, 11, 47
14, 72131, Note_on_c, 14, 43, 0
14, 72491, Note_on_c, 14, 45, 78
14, 72611, Note_on_c, 14, 45, 0
14, 72971, Note_on_c, 14, 38, 78
14, 73091, Note_on_c, 14, 38, 0
14, 73451, Note_on_c, 14, 43, 78
14, 73571, Note_on_c, 14, 43, 0
14, 73931, Note_on_c, 14, 38, 96
14, 74051, Note_on_c, 14, 38, 0
14, 74171, Note_on_c, 14, 42, 96
14, 74171, Control_c, 14, 11, 58
14, 74175, Control_c, 14, 11, 61
14, 74180, Control_c, 14, 11, 64
14, 74185, Control_c, 14, 11, 67
14, 74190, Control_c, 14, 11, 70
14, 74195, Control_c, 14, 11, 73
14, 74206, Control_c, 14, 11, 70
14, 74217, Control_c, 14, 11, 67
14, 74228, Control_c, 14, 11, 64
14, 74239, Control_c, 14, 11, 61
14, 74250, Control_c, 14, 11, 58
14, 74261, Control_c, 14, 11, 55
14, 74272, Control_c, 14, 11, 52
14, 74283, Control_c, 14, 11, 49
14, 74291, Note_on_c, 14, 42, 0
14, 74291, Note_on_c, 14, 43, 96
14, 74401, Note_on_c, 14, 43, 0
14, 74411, Note_on_c, 14, 38, 96
14, 74531, Note_on_c, 14, 38, 0
14, 74651, Note_on_c, 14, 42, 96
14, 74651, Control_c, 14, 11, 58
14, 74655, Control_c, 14, 11, 61
14, 74660, Control_c, 14, 11, 64
14, 74665, Control_c, 14, 11, 67
14, 74670, Control_c, 14, 11, 70
14, 74675, Control_c, 14, 11, 73
14, 74686, Control_c, 14, 11, 70
14, 74697, Control_c, 14, 11, 67
14, 74708, Control_c, 14, 11, 64
14, 74719, Control_c, 14, 11, 61
14, 74730, Control_c, 14, 11, 58
14, 74741, Control_c, 14, 11, 55
14, 74752, Control_c, 14, 11, 52
14, 74763, Control_c, 14, 11, 49
14, 74771, Note_on_c, 14, 42, 0
14, 74771, Note_on_c, 14, 43, 96
14, 74881, Note_on_c, 14, 43, 0
14, 74891, Note_on_c, 14, 45, 96
14, 75011, Note_on_c, 14, 45, 0
14, 75131, Note_on_c, 14, 33, 96
14, 75251, Note_on_c, 14, 33, 0
14, 75371, Note_on_c, 14, 38, 96
14, 75491, Note_on_c, 14, 38, 0
14, 75491, Note_on_c, 14, 48, 96
14, 75491, Control_c, 14, 11, 63
14, 75495, Control_c, 14, 11, 66
14, 75500, Control_c, 14, 11, 69
14, 75505, Control_c, 14, 11, 72
14, 75523, Control_c, 14, 11, 69
14, 75535, Control_c, 14, 11, 66
14, 75547, Control_c, 14, 11, 63
14, 75559, Control_c, 14, 11, 60
14, 75571, Control_c, 14, 11, 57
14, 75583, Control_c, 14, 11, 54
14, 75595, Control_c, 14, 11, 51
14, 75607, Control_c, 14, 11, 48
14, 75731, Note_on_c, 14, 48, 0
14, 75731, Note_on_c, 14, 45, 96
14, 75841, Note_on_c, 14, 45, 0
14, 75851, Note_on_c, 14, 43, 96
14, 75971, Note_on_c, 14, 43, 0
14, 76331, Note_on_c, 14, 45, 96
14, 76451, Note_on_c, 14, 45, 0
14, 76811, Note_on_c, 14, 38, 96
14, 76931, Note_on_c, 14, 38, 0
14, 77291, Note_on_c, 14, 43, 96
14, 77411, Note_on_c, 14, 43, 0
14, 77771, Note_on_c, 14, 48, 96
14, 77831, Note_on_c, 14, 48, 0
14, 77891, Note_on_c, 14, 48, 96
14, 77951, Note_on_c, 14, 48, 0
14, 78131, Note_on_c, 14, 47, 96
14, 78131, Control_c, 14, 11, 58
14, 78136, Control_c, 14, 11, 61
14, 78142, Control_c, 14, 11, 64
14, 78147, Control_c, 14, 11, 67
14, 78153, Control_c, 14, 11, 70
14, 78159, Control_c, 14, 11, 73
14, 78169, Control_c, 14, 11, 70
14, 78180, Control_c, 14, 11, 67
14, 78190, Control_c, 14, 11, 64
14, 78201, Control_c, 14, 11, 61
14, 78212, Control_c, 14, 11, 58
14, 78222, Control_c, 14, 11, 55
14, 78233, Control_c, 14, 11, 52
14, 78243, Control_c, 14, 11, 49
14, 78251, Note_on_c, 14, 47, 0
14, 78251, Note_on_c, 14, 48, 96
14, 78311, Note_on_c, 14, 48, 0
14, 78371, Note_on_c, 14, 48, 96
14, 78431, Note_on_c, 14, 48, 0
14, 78611, Control_c, 14, 11, 58
14, 78611, Note_on_c, 14, 47, 96
14, 78616, Control_c, 14, 11, 61
14, 78622, Control_c, 14, 11, 64
14, 78627, Control_c, 14, 11, 67
14, 78633, Control_c, 14, 11, 70
14, 78639, Control_c, 14, 11, 73
14, 78649, Control_c, 14, 11, 70
14, 78660, Control_c, 14, 11, 67
14, 78670, Control_c, 14, 11, 64
14, 78681, Control_c, 14, 11, 61
14, 78692, Control_c, 14, 11, 58
14, 78702, Control_c, 14, 11, 55
14, 78713, Control_c, 14, 11, 52
14, 78723, Control_c, 14, 11, 49
14, 78731, Note_on_c, 14, 47, 0
14, 78731, Note_on_c, 14, 48, 96
14, 78841, Note_on_c, 14, 48, 0
14, 78851, Note_on_c, 14, 45, 96
14, 78971, Note_on_c, 14, 45, 0
14, 78971, Note_on_c, 14, 47, 96
14, 79091, Note_on_c, 14, 47, 0
14, 79091, Note_on_c, 14, 48, 96
14, 79201, Note_on_c, 14, 48, 0
14, 79211, Note_on_c, 14, 50, 96
14, 79451, Note_on_c, 14, 50, 0
14, 79451, Note_on_c, 14, 48, 96
14, 79666, Note_on_c, 14, 48, 0
14, 79686, Control_c, 14, 11, 47
14, 79687, Control_c, 14, 11, 55
14, 79688, Control_c, 14, 11, 63
14, 79689, Control_c, 14, 11, 71
14, 79690, Control_c, 14, 11, 79
14, 79691, Note_on_c, 14, 47, 106
14, 79691, Control_c, 14, 11, 87
14, 79711, Note_on_c, 14, 47, 0
14, 79721, Note_on_c, 14, 47, 106
14, 79741, Note_on_c, 14, 47, 0
14, 79751, Note_on_c, 14, 47, 106
14, 79771, Note_on_c, 14, 47, 0
14, 79781, Note_on_c, 14, 47, 106
14, 79801, Note_on_c, 14, 47, 0
14, 79811, Note_on_c, 14, 47, 106
14, 79871, Note_on_c, 14, 47, 0
14, 79931, Note_on_c, 14, 45, 106
14, 79951, Note_on_c, 14, 45, 0
14, 79961, Note_on_c, 14, 45, 106
14, 79981, Note_on_c, 14, 45, 0
14, 79991, Note_on_c, 14, 45, 106
14, 80011, Note_on_c, 14, 45, 0
14, 80021, Note_on_c, 14, 45, 106
14, 80041, Note_on_c, 14, 45, 0
14, 80051, Note_on_c, 14, 45, 106
14, 80111, Note_on_c, 14, 45, 0
14, 80171, Note_on_c, 14, 43, 106
14, 80191, Note_on_c, 14, 43, 0
14, 80201, Note_on_c, 14, 43, 106
14, 80221, Note_on_c, 14, 43, 0
14, 80231, Note_on_c, 14, 43, 106
14, 80251, Note_on_c, 14, 43, 0
14, 80261, Note_on_c, 14, 43, 106
14, 80281, Note_on_c, 14, 43, 0
14, 80291, Note_on_c, 14, 43, 106
14, 80351, Note_on_c, 14, 43, 0
14, 80411, Note_on_c, 14, 48, 106
14, 80461, Note_on_c, 14, 48, 0
14, 80471, Note_on_c, 14, 48, 106
14, 80521, Note_on_c, 14, 48, 0
14, 80531, Note_on_c, 14, 48, 106
14, 80581, Note_on_c, 14, 48, 0
14, 80591, Note_on_c, 14, 48, 106
14, 80641, Note_on_c, 14, 48, 0
14, 80651, Note_on_c, 14, 47, 106
14, 80671, Note_on_c, 14, 47, 0
14, 80681, Note_on_c, 14, 47, 106
14, 80701, Note_on_c, 14, 47, 0
14, 80711, Note_on_c, 14, 47, 106
14, 80731, Note_on_c, 14, 47, 0
14, 80741, Note_on_c, 14, 47, 106
14, 80761, Note_on_c, 14, 47, 0
14, 80771, Note_on_c, 14, 47, 106
14, 80831, Note_on_c, 14, 47, 0
14, 80891, Note_on_c, 14, 45, 106
14, 80911, Note_on_c, 14, 45, 0
14, 80921, Note_on_c, 14, 45, 106
14, 80941, Note_on_c, 14, 45, 0
14, 80951, Note_on_c, 14, 45, 106
14, 80971, Note_on_c, 14, 45, 0
14, 80981, Note_on_c, 14, 45, 106
14, 81001, Note_on_c, 14, 45, 0
14, 81011, Note_on_c, 14, 45, 106
14, 81071, Note_on_c, 14, 45, 0
14, 81131, Note_on_c, 14, 43, 106
14, 81151, Note_on_c, 14, 43, 0
14, 81161, Note_on_c, 14, 43, 106
14, 81181, Note_on_c, 14, 43, 0
14, 81191, Note_on_c, 14, 43, 106
14, 81211, Note_on_c, 14, 43, 0
14, 81221, Note_on_c, 14, 43, 106
14, 81241, Note_on_c, 14, 43, 0
14, 81251, Note_on_c, 14, 43, 106
14, 81311, Note_on_c, 14, 43, 0
14, 81371, Note_on_c, 14, 48, 106
14, 81421, Note_on_c, 14, 48, 0
14, 81431, Note_on_c, 14, 48, 106
14, 81481, Note_on_c, 14, 48, 0
14, 81491, Note_on_c, 14, 48, 106
14, 81541, Note_on_c, 14, 48, 0
14, 81551, Note_on_c, 14, 48, 106
14, 81601, Note_on_c, 14, 48, 0
14, 81611, Control_c, 14, 11, 107
14, 81611, Note_on_c, 14, 47, 106
14, 81629, Control_c, 14, 11, 104
14, 81647, Control_c, 14, 11, 101
14, 81665, Control_c, 14, 11, 98
14, 81683, Control_c, 14, 11, 95
14, 81701, Control_c, 14, 11, 92
14, 81719, Control_c, 14, 11, 89
14, 81781, Note_on_c, 14, 47, 0
14, 81791, Note_on_c, 14, 45, 106
14, 81841, Note_on_c, 14, 45, 0
14, 81851, Note_on_c, 14, 43, 106
14, 81901, Note_on_c, 14, 43, 0
14, 81911, Note_on_c, 14, 45, 106
14, 81961, Note_on_c, 14, 45, 0
14, 81971, Note_on_c, 14, 46, 106
14, 82021, Note_on_c, 14, 46, 0
14, 82031, Note_on_c, 14, 47, 106
14, 82081, Note_on_c, 14, 47, 0
14, 82091, Note_on_c, 14, 48, 106
14, 82091, Control_c, 14, 11, 107
14, 82109, Control_c, 14, 11, 104
14, 82127, Control_c, 14, 11, 101
14, 82145, Control_c, 14, 11, 98
14, 82163, Control_c, 14, 11, 95
14, 82181, Control_c, 14, 11, 92
14, 82199, Control_c, 14, 11, 89
14, 82261, Note_on_c, 14, 48, 0
14, 82271, Note_on_c, 14, 47, 106
14, 82321, Note_on_c, 14, 47, 0
14, 82331, Note_on_c, 14, 52, 106
14, 82381, Note_on_c, 14, 52, 0
14, 82391, Note_on_c, 14, 50, 106
14, 82441, Note_on_c, 14, 50, 0
14, 82451, Note_on_c, 14, 48, 106
14, 82501, Note_on_c, 14, 48, 0
14, 82511, Note_on_c, 14, 49, 106
14, 82561, Note_on_c, 14, 49, 0
14, 82571, Note_on_c, 14, 50, 106
14, 82571, Control_c, 14, 11, 87
14, 82601, Note_on_c, 14, 50, 0
14, 82603, Control_c, 14, 11, 88
14, 82631, Note_on_c, 14, 47, 106
14, 82635, Control_c, 14, 11, 89
14, 82661, Note_on_c, 14, 47, 0
14, 82667, Control_c, 14, 11, 90
14, 82691, Note_on_c, 14, 45, 106
14, 82699, Control_c, 14, 11, 91
14, 82721, Note_on_c, 14, 45, 0
14, 82731, Control_c, 14, 11, 92
14, 82751, Note_on_c, 14, 43, 106
14, 82763, Control_c, 14, 11, 93
14, 82781, Note_on_c, 14, 43, 0
14, 82795, Control_c, 14, 11, 94
14, 82811, Note_on_c, 14, 42, 106
14, 82827, Control_c, 14, 11, 95
14, 82841, Note_on_c, 14, 42, 0
14, 82859, Control_c, 14, 11, 96
14, 82871, Note_on_c, 14, 40, 106
14, 82891, Control_c, 14, 11, 97
14, 82901, Note_on_c, 14, 40, 0
14, 82923, Control_c, 14, 11, 98
14, 82931, Note_on_c, 14, 38, 106
14, 82955, Control_c, 14, 11, 99
14, 82961, Note_on_c, 14, 38, 0
14, 82987, Control_c, 14, 11, 100
14, 82991, Note_on_c, 14, 36, 106
14, 83019, Control_c, 14, 11, 101
14, 83021, Note_on_c, 14, 36, 0
14, 83051, Control_c, 14, 11, 102
14, 83051, Note_on_c, 14, 35, 106
14, 83111, Note_on_c, 14, 35, 0
14, 83171, Note_on_c, 14, 36, 106
14, 83231, Note_on_c, 14, 36, 0
14, 83291, Note_on_c, 14, 38, 106
14, 83351, Note_on_c, 14, 38, 0
14, 83411, Note_on_c, 14, 38, 106
14, 83471, Note_on_c, 14, 38, 0
14, 83531, Note_on_c, 14, 43, 106
14, 83531, Control_c, 14, 11, 37
14, 83831, Note_on_c, 14, 43, 0
14, 83831, Note_on_c, 14, 41, 106
14, 83891, Note_on_c, 14, 41, 0
14, 83891, Note_on_c, 14, 39, 106
14, 83951, Note_on_c, 14, 39, 0
14, 83951, Note_on_c, 14, 38, 106
14, 84001, Note_on_c, 14, 38, 0
14, 84011, Note_on_c, 14, 36, 106
14, 84301, Note_on_c, 14, 36, 0
14, 84311, Note_on_c, 14, 34, 106
14, 84371, Note_on_c, 14, 34, 0
14, 84371, Note_on_c, 14, 33, 106
14, 84431, Note_on_c, 14, 33, 0
14, 84431, Note_on_c, 14, 31, 106
14, 84481, Note_on_c, 14, 31, 0
14, 84491, Note_on_c, 14, 29, 106
14, 84781, Note_on_c, 14, 29, 0
14, 84791, Note_on_c, 14, 31, 106
14, 84851, Note_on_c, 14, 31, 0
14, 84851, Note_on_c, 14, 32, 106
14, 84911, Note_on_c, 14, 32, 0
14, 84911, Note_on_c, 14, 33, 106
14, 84961, Note_on_c, 14, 33, 0
14, 84971, Note_on_c, 14, 34, 106
14, 85261, Note_on_c, 14, 34, 0
14, 85271, Note_on_c, 14, 36, 106
14, 85331, Note_on_c, 14, 36, 0
14, 85331, Note_on_c, 14, 37, 106
14, 85391, Note_on_c, 14, 37, 0
14, 85391, Note_on_c, 14, 38, 106
14, 85441, Note_on_c, 14, 38, 0
14, 85451, Note_on_c, 14, 39, 106
14, 85511, Note_on_c, 14, 39, 0
14, 85511, Note_on_c, 14, 38, 106
14, 85561, Note_on_c, 14, 38, 0
14, 85571, Note_on_c, 14, 39, 106
14, 85601, Note_on_c, 14, 39, 0
14, 85631, Note_on_c, 14, 40, 106
14, 85661, Note_on_c, 14, 40, 0
14, 85691, Note_on_c, 14, 41, 106
14, 85751, Note_on_c, 14, 41, 0
14, 85751, Note_on_c, 14, 40, 106
14, 85801, Note_on_c, 14, 40, 0
14, 85811, Note_on_c, 14, 41, 106
14, 85841, Note_on_c, 14, 41, 0
14, 85871, Note_on_c, 14, 41, 106
14, 85901, Note_on_c, 14, 41, 0
14, 85931, Note_on_c, 14, 42, 106
14, 86221, Note_on_c, 14, 42, 0
14, 86231, Note_on_c, 14, 38, 106
14, 86291, Note_on_c, 14, 38, 0
14, 86291, Note_on_c, 14, 40, 106
14, 86351, Note_on_c, 14, 40, 0
14, 86351, Note_on_c, 14, 42, 106
14, 86401, Note_on_c, 14, 42, 0
14, 86411, Note_on_c, 14, 43, 106
14, 86701, Note_on_c, 14, 43, 0
14, 86711, Note_on_c, 14, 43, 106
14, 86771, Note_on_c, 14, 43, 0
14, 86771, Note_on_c, 14, 45, 106
14, 86831, Note_on_c, 14, 45, 0
14, 86831, Note_on_c, 14, 46, 106
14, 86881, Note_on_c, 14, 46, 0
14, 86891, Note_on_c, 14, 48, 106
14, 86951, Note_on_c, 14, 48, 0
14, 86951, Note_on_c, 14, 47, 106
14, 87001, Note_on_c, 14, 47, 0
14, 87011, Note_on_c, 14, 48, 106
14, 87041, Note_on_c, 14, 48, 0
14, 87071, Note_on_c, 14, 48, 106
14, 87101, Note_on_c, 14, 48, 0
14, 87131, Note_on_c, 14, 49, 106
14, 87191, Note_on_c, 14, 49, 0
14, 87191, Note_on_c, 14, 48, 106
14, 87241, Note_on_c, 14, 48, 0
14, 87251, Note_on_c, 14, 49, 106
14, 87281, Note_on_c, 14, 49, 0
14, 87311, Note_on_c, 14, 49, 106
14, 87341, Note_on_c, 14, 49, 0
14, 87371, Note_on_c, 14, 50, 106
14, 87491, Control_c, 14, 11, 37
14, 87523, Control_c, 14, 11, 38
14, 87556, Control_c, 14, 11, 39
14, 87589, Control_c, 14, 11, 40
14, 87622, Control_c, 14, 11, 41
14, 87655, Control_c, 14, 11, 42
14, 87661, Note_on_c, 14, 50, 0
14, 87671, Note_on_c, 14, 49, 106
14, 87688, Control_c, 14, 11, 43
14, 87721, Control_c, 14, 11, 44
14, 87731, Note_on_c, 14, 49, 0
14, 87731, Note_on_c, 14, 50, 106
14, 87754, Control_c, 14, 11, 45
14, 87787, Control_c, 14, 11, 46
14, 87791, Note_on_c, 14, 50, 0
14, 87791, Note_on_c, 14, 51, 106
14, 87820, Control_c, 14, 11, 47
14, 87841, Note_on_c, 14, 51, 0
14, 87851, Note_on_c, 14, 52, 106
14, 87853, Control_c, 14, 11, 48
14, 87886, Control_c, 14, 11, 49
14, 87919, Control_c, 14, 11, 50
14, 87952, Control_c, 14, 11, 51
14, 87985, Control_c, 14, 11, 52
14, 88018, Control_c, 14, 11, 53
14, 88051, Control_c, 14, 11, 54
14, 88084, Control_c, 14, 11, 55
14, 88117, Control_c, 14, 11, 56
14, 88150, Control_c, 14, 11, 57
14, 88151, Note_on_c, 14, 52, 0
14, 88151, Note_on_c, 14, 50, 106
14, 88183, Control_c, 14, 11, 58
14, 88211, Note_on_c, 14, 50, 0
14, 88211, Note_on_c, 14, 48, 106
14, 88216, Control_c, 14, 11, 59
14, 88249, Control_c, 14, 11, 60
14, 88271, Note_on_c, 14, 48, 0
14, 88271, Note_on_c, 14, 47, 106
14, 88282, Control_c, 14, 11, 61
14, 88315, Control_c, 14, 11, 62
14, 88321, Note_on_c, 14, 47, 0
14, 88331, Note_on_c, 14, 48, 106
14, 88348, Control_c, 14, 11, 63
14, 88381, Control_c, 14, 11, 64
14, 88391, Note_on_c, 14, 48, 0
14, 88391, Note_on_c, 14, 47, 106
14, 88414, Control_c, 14, 11, 65
14, 88447, Control_c, 14, 11, 66
14, 88451, Note_on_c, 14, 47, 0
14, 88451, Note_on_c, 14, 48, 106
14, 88480, Control_c, 14, 11, 67
14, 88511, Note_on_c, 14, 48, 0
14, 88511, Note_on_c, 14, 49, 106
14, 88513, Control_c, 14, 11, 68
14, 88546, Control_c, 14, 11, 69
14, 88561, Note_on_c, 14, 49, 0
14, 88571, Note_on_c, 14, 50, 106
14, 88579, Control_c, 14, 11, 70
14, 88612, Control_c, 14, 11, 71
14, 88631, Note_on_c, 14, 50, 0
14, 88631, Note_on_c, 14, 48, 106
14, 88645, Control_c, 14, 11, 72
14, 88678, Control_c, 14, 11, 73
14, 88691, Note_on_c, 14, 48, 0
14, 88691, Note_on_c, 14, 50, 106
14, 88711, Control_c, 14, 11, 74
14, 88744, Control_c, 14, 11, 75
14, 88751, Note_on_c, 14, 50, 0
14, 88751, Note_on_c, 14, 38, 106
14, 88777, Control_c, 14, 11, 76
14, 88801, Note_on_c, 14, 38, 0
14, 88810, Control_c, 14, 11, 77
14, 88811, Control_c, 14, 11, 97
14, 88811, Note_on_c, 14, 43, 106
14, 88835, Control_c, 14, 11, 95
14, 88859, Control_c, 14, 11, 93
14, 88883, Control_c, 14, 11, 91
14, 88907, Control_c, 14, 11, 89
14, 88921, Note_on_c, 14, 43, 0
14, 88931, Control_c, 14, 11, 87
14, 88931, Note_on_c, 14, 38, 106
14, 89021, Note_on_c, 14, 38, 0
14, 89021, Note_on_c, 14, 42, 106
14, 89041, Note_on_c, 14, 42, 0
14, 89051, Note_on_c, 14, 43, 106
14, 89051, Control_c, 14, 11, 107
14, 89069, Control_c, 14, 11, 104
14, 89087, Control_c, 14, 11, 101
14, 89105, Control_c, 14, 11, 98
14, 89123, Control_c, 14, 11, 95
14, 89141, Control_c, 14, 11, 92
14, 89159, Control_c, 14, 11, 89
14, 89401, Note_on_c, 14, 43, 0
14, 89411, Note_on_c, 14, 38, 106
14, 89501, Note_on_c, 14, 38, 0
14, 89501, Note_on_c, 14, 42, 106
14, 89521, Note_on_c, 14, 42, 0
14, 89531, Note_on_c, 14, 43, 106
14, 89531, Control_c, 14, 11, 107
14, 89549, Control_c, 14, 11, 104
14, 89567, Control_c, 14, 11, 101
14, 89585, Control_c, 14, 11, 98
14, 89603, Control_c, 14, 11, 95
14, 89621, Control_c, 14, 11, 92
14, 89639, Control_c, 14, 11, 89
14, 89891, Note_on_c, 14, 43, 0
14, 90011, Control_c, 14, 11, 107
14, 90011, Note_on_c, 14, 38, 106
14, 90029, Control_c, 14, 11, 104
14, 90047, Control_c, 14, 11, 101
14, 90065, Control_c, 14, 11, 98
14, 90083, Control_c, 14, 11, 95
14, 90101, Control_c, 14, 11, 92
14, 90119, Control_c, 14, 11, 89
14, 90131, Note_on_c, 14, 38, 0
14, 90251, Control_c, 14, 11, 107
14, 90251, Note_on_c, 14, 43, 106
14, 90268, Control_c, 14, 11, 104
14, 90286, Control_c, 14, 11, 101
14, 90304, Control_c, 14, 11, 98
14, 90322, Control_c, 14, 11, 95
14, 90340, Control_c, 14, 11, 92
14, 90358, Control_c, 14, 11, 89
14, 90371, Note_on_c, 14, 43, 0
14, 90491, Control_c, 14, 11, 107
14, 90491, Note_on_c, 14, 45, 106
14, 90508, Control_c, 14, 11, 104
14, 90526, Control_c, 14, 11, 101
14, 90544, Control_c, 14, 11, 98
14, 90562, Control_c, 14, 11, 95
14, 90580, Control_c, 14, 11, 92
14, 90598, Control_c, 14, 11, 89
14, 90611, Note_on_c, 14, 45, 0
14, 90731, Note_on_c, 14, 35, 106
14, 90791, Note_on_c, 14, 35, 0
14, 90851, Note_on_c, 14, 38, 106
14, 90911, Note_on_c, 14, 38, 0
14, 90971, Note_on_c, 14, 43, 106
14, 91031, Note_on_c, 14, 43, 0
14, 91091, Note_on_c, 14, 47, 106
14, 91151, Note_on_c, 14, 47, 0
14, 91211, Note_on_c, 14, 33, 106
14, 91271, Note_on_c, 14, 33, 0
14, 91331, Note_on_c, 14, 36, 106
14, 91391, Note_on_c, 14, 36, 0
14, 91451, Note_on_c, 14, 42, 106
14, 91511, Note_on_c, 14, 42, 0
14, 91571, Note_on_c, 14, 45, 106
14, 91631, Note_on_c, 14, 45, 0
14, 91691, Note_on_c, 14, 32, 106
14, 91691, Control_c, 14, 11, 102
14, 91751, Note_on_c, 14, 32, 0
14, 91811, Note_on_c, 14, 35, 106
14, 91871, Note_on_c, 14, 35, 0
14, 91931, Note_on_c, 14, 40, 106
14, 91991, Note_on_c, 14, 40, 0
14, 92051, Note_on_c, 14, 44, 106
14, 92111, Note_on_c, 14, 44, 0
14, 92171, Note_on_c, 14, 38, 106
14, 92231, Note_on_c, 14, 38, 0
14, 92291, Note_on_c, 14, 50, 106
14, 92351, Note_on_c, 14, 50, 0
14, 92411, Note_on_c, 14, 50, 106
14, 92471, Note_on_c, 14, 50, 0
14, 92531, Note_on_c, 14, 50, 106
14, 92591, Note_on_c, 14, 50, 0
14, 92651, Note_on_c, 14, 36, 106
14, 92711, Note_on_c, 14, 36, 0
14, 92771, Note_on_c, 14, 48, 106
14, 92831, Note_on_c, 14, 48, 0
14, 92891, Note_on_c, 14, 48, 106
14, 92951, Note_on_c, 14, 48, 0
14, 93011, Note_on_c, 14, 48, 106
14, 93071, Note_on_c, 14, 48, 0
14, 93131, Note_on_c, 14, 37, 106
14, 93191, Note_on_c, 14, 37, 0
14, 93251, Note_on_c, 14, 43, 106
14, 93311, Note_on_c, 14, 43, 0
14, 93371, Note_on_c, 14, 40, 106
14, 93431, Note_on_c, 14, 40, 0
14, 93491, Note_on_c, 14, 37, 106
14, 93551, Note_on_c, 14, 37, 0
14, 93611, Control_c, 14, 11, 122
14, 93611, Note_on_c, 14, 38, 106
14, 93628, Control_c, 14, 11, 119
14, 93646, Control_c, 14, 11, 116
14, 93661, Note_on_c, 14, 38, 0
14, 93664, Control_c, 14, 11, 113
14, 93671, Note_on_c, 14, 38, 106
14, 93682, Control_c, 14, 11, 110
14, 93700, Control_c, 14, 11, 107
14, 93718, Control_c, 14, 11, 104
14, 93721, Note_on_c, 14, 38, 0
14, 93731, Note_on_c, 14, 38, 106
14, 93781, Note_on_c, 14, 38, 0
14, 93791, Note_on_c, 14, 38, 106
14, 93841, Note_on_c, 14, 38, 0
14, 93851, Control_c, 14, 11, 122
14, 93851, Note_on_c, 14, 40, 106
14, 93868, Control_c, 14, 11, 119
14, 93886, Control_c, 14, 11, 116
14, 93901, Note_on_c, 14, 40, 0
14, 93904, Control_c, 14, 11, 113
14, 93911, Note_on_c, 14, 40, 106
14, 93922, Control_c, 14, 11, 110
14, 93940, Control_c, 14, 11, 107
14, 93958, Control_c, 14, 11, 104
14, 93961, Note_on_c, 14, 40, 0
14, 93971, Note_on_c, 14, 40, 106
14, 94021, Note_on_c, 14, 40, 0
14, 94031, Note_on_c, 14, 40, 106
14, 94081, Note_on_c, 14, 40, 0
14, 94091, Note_on_c, 14, 36, 106
14, 94091, Control_c, 14, 11, 122
14, 94108, Control_c, 14, 11, 119
14, 94126, Control_c, 14, 11, 116
14, 94141, Note_on_c, 14, 36, 0
14, 94144, Control_c, 14, 11, 113
14, 94151, Note_on_c, 14, 36, 106
14, 94162, Control_c, 14, 11, 110
14, 94180, Control_c, 14, 11, 107
14, 94198, Control_c, 14, 11, 104
14, 94201, Note_on_c, 14, 36, 0
14, 94211, Note_on_c, 14, 36, 106
14, 94261, Note_on_c, 14, 36, 0
14, 94271, Note_on_c, 14, 36, 106
14, 94321, Note_on_c, 14, 36, 0
14, 94331, Note_on_c, 14, 38, 106
14, 94331, Control_c, 14, 11, 122
14, 94348, Control_c, 14, 11, 119
14, 94366, Control_c, 14, 11, 116
14, 94381, Note_on_c, 14, 38, 0
14, 94384, Control_c, 14, 11, 113
14, 94391, Note_on_c, 14, 38, 106
14, 94402, Control_c, 14, 11, 110
14, 94420, Control_c, 14, 11, 107
14, 94438, Control_c, 14, 11, 104
14, 94441, Note_on_c, 14, 38, 0
14, 94451, Note_on_c, 14, 38, 106
14, 94501, Note_on_c, 14, 38, 0
14, 94511, Note_on_c, 14, 38, 106
14, 94561, Note_on_c, 14, 38, 0
14, 94571, Control_c, 14, 11, 87
14, 94571, Note_on_c, 14, 31, 106
14, 94589, Control_c, 14, 11, 84
14, 94607, Control_c, 14, 11, 81
14, 94625, Control_c, 14, 11, 78
14, 94643, Control_c, 14, 11, 75
14, 94661, Control_c, 14, 11, 72
14, 94679, Control_c, 14, 11, 69
14, 94691, Note_on_c, 14, 31, 0
14, 95411, Control_c, 14, 11, 63
14, 95411, Note_on_c, 14, 38, 106
14, 95417, Control_c, 14, 11, 66
14, 95424, Control_c, 14, 11, 69
14, 95432, Control_c, 14, 11, 72
14, 95447, Control_c, 14, 11, 71
14, 95465, Control_c, 14, 11, 68
14, 95483, Control_c, 14, 11, 65
14, 95501, Control_c, 14, 11, 62
14, 95519, Control_c, 14, 11, 59
14, 95531, Note_on_c, 14, 38, 0
14, 95531, Note_on_c, 14, 43, 106
14, 95531, Control_c, 14, 11, 47
14, 95549, Control_c, 14, 11, 54
14, 95567, Control_c, 14, 11, 51
14, 95585, Control_c, 14, 11, 48
14, 95651, Note_on_c, 14, 43, 0
14, 96371, Control_c, 14, 11, 63
14, 96371, Note_on_c, 14, 38, 106
14, 96377, Control_c, 14, 11, 66
14, 96384, Control_c, 14, 11, 69
14, 96392, Control_c, 14, 11, 72
14, 96407, Control_c, 14, 11, 71
14, 96425, Control_c, 14, 11, 68
14, 96443, Control_c, 14, 11, 65
14, 96461, Control_c, 14, 11, 62
14, 96479, Control_c, 14, 11, 59
14, 96491, Note_on_c, 14, 38, 0
14, 96491, Control_c, 14, 11, 47
14, 96491, Control_c, 14, 11, 57
14, 96491, Note_on_c, 14, 43, 106
14, 96509, Control_c, 14, 11, 54
14, 96527, Control_c, 14, 11, 51
14, 96545, Control_c, 14, 11, 48
14, 96611, Note_on_c, 14, 43, 0
14, 96851, Control_c, 14, 11, 63
14, 96851, Note_on_c, 14, 38, 106
14, 96857, Control_c, 14, 11, 66
14, 96864, Control_c, 14, 11, 69
14, 96872, Control_c, 14, 11, 72
14, 96887, Control_c, 14, 11, 71
14, 96905, Control_c, 14, 11, 68
14, 96923, Control_c, 14, 11, 65
14, 96941, Control_c, 14, 11, 62
14, 96959, Control_c, 14, 11, 59
14, 96971, Note_on_c, 14, 38, 0
14, 96971, Control_c, 14, 11, 47
14, 96971, Note_on_c, 14, 43, 106
14, 96989, Control_c, 14, 11, 54
14, 97007, Control_c, 14, 11, 51
14, 97025, Control_c, 14, 11, 48
14, 97091, Note_on_c, 14, 43, 0
14, 97326, Control_c, 14, 11, 67
14, 97327, Control_c, 14, 11, 74
14, 97328, Control_c, 14, 11, 81
14, 97329, Control_c, 14, 11, 88
14, 97330, Control_c, 14, 11, 95
14, 97331, Note_on_c, 14, 38, 106
14, 97331, Control_c, 14, 11, 102
14, 97451, Note_on_c, 14, 38, 0
14, 97451, Note_on_c, 14, 43, 106
14, 97511, Note_on_c, 14, 43, 0
14, 98411, Note_on_c, 14, 31, 96
14, 98531, Note_on_c, 14, 31, 0
14, 99251, Control_c, 14, 11, 47
14, 99371, Control_c, 14, 11, 87
14, 99371, Note_on_c, 14, 37, 106
14, 99641, Control_c, 14, 11, 87
14, 99648, Control_c, 14, 11, 84
14, 99656, Control_c, 14, 11, 81
14, 99664, Control_c, 14, 11, 78
14, 99672, Control_c, 14, 11, 75
14, 99680, Control_c, 14, 11, 72
14, 99687, Control_c, 14, 11, 69
14, 99695, Control_c, 14, 11, 66
14, 99703, Control_c, 14, 11, 63
14, 99706, Note_on_c, 14, 37, 0
14, 100331, Note_on_c, 14, 43, 106
14, 100331, Control_c, 14, 11, 47
14, 100451, Note_on_c, 14, 43, 0
14, 100571, Note_on_c, 14, 40, 106
14, 100691, Note_on_c, 14, 40, 0
14, 100811, Note_on_c, 14, 37, 106
14, 100931, Note_on_c, 14, 37, 0
14, 101051, Note_on_c, 14, 31, 106
14, 101171, Note_on_c, 14, 31, 0
14, 101291, Note_on_c, 14, 30, 106
14, 101291, Control_c, 14, 11, 87
14, 101561, Control_c, 14, 11, 87
14, 101568, Control_c, 14, 11, 84
14, 101576, Control_c, 14, 11, 81
14, 101584, Control_c, 14, 11, 78
14, 101592, Control_c, 14, 11, 75
14, 101600, Control_c, 14, 11, 72
14, 101607, Control_c, 14, 11, 69
14, 101615, Control_c, 14, 11, 66
14, 101623, Control_c, 14, 11, 63
14, 101626, Note_on_c, 14, 30, 0
14, 102251, Note_on_c, 14, 48, 106
14, 102251, Control_c, 14, 11, 47
14, 102371, Note_on_c, 14, 48, 0
14, 102491, Note_on_c, 14, 45, 106
14, 102611, Note_on_c, 14, 45, 0
14, 102731, Note_on_c, 14, 42, 106
14, 102851, Note_on_c, 14, 42, 0
14, 102971, Note_on_c, 14, 36, 106
14, 103091, Note_on_c, 14, 36, 0
14, 103211, Control_c, 14, 11, 87
14, 103211, Note_on_c, 14, 35, 106
14, 103481, Control_c, 14, 11, 87
14, 103488, Control_c, 14, 11, 84
14, 103496, Control_c, 14, 11, 81
14, 103504, Control_c, 14, 11, 78
14, 103512, Control_c, 14, 11, 75
14, 103520, Control_c, 14, 11, 72
14, 103527, Control_c, 14, 11, 69
14, 103535, Control_c, 14, 11, 66
14, 103543, Control_c, 14, 11, 63
14, 103546, Note_on_c, 14, 35, 0
14, 104171, Control_c, 14, 11, 47
14, 104171, Note_on_c, 14, 41, 106
14, 104291, Note_on_c, 14, 41, 0
14, 104411, Note_on_c, 14, 38, 106
14, 104531, Note_on_c, 14, 38, 0
14, 104651, Note_on_c, 14, 35, 106
14, 104771, Note_on_c, 14, 35, 0
14, 104891, Note_on_c, 14, 31, 106
14, 105011, Note_on_c, 14, 31, 0
14, 105131, Note_on_c, 14, 36, 106
14, 105131, Control_c, 14, 11, 67
14, 105140, Control_c, 14, 11, 70
14, 105149, Control_c, 14, 11, 73
14, 105158, Control_c, 14, 11, 76
14, 105173, Control_c, 14, 11, 73
14, 105182, Control_c, 14, 11, 70
14, 105191, Note_on_c, 14, 36, 0
14, 105191, Control_c, 14, 11, 67
14, 105200, Control_c, 14, 11, 64
14, 105209, Control_c, 14, 11, 61
14, 105218, Control_c, 14, 11, 58
14, 105227, Control_c, 14, 11, 55
14, 105236, Control_c, 14, 11, 52
14, 105245, Control_c, 14, 11, 49
14, 105251, Note_on_c, 14, 39, 106
14, 105311, Note_on_c, 14, 39, 0
14, 105371, Note_on_c, 14, 43, 106
14, 105431, Note_on_c, 14, 43, 0
14, 105491, Note_on_c, 14, 47, 106
14, 105551, Note_on_c, 14, 47, 0
14, 105611, Note_on_c, 14, 48, 106
14, 105731, Note_on_c, 14, 48, 0
14, 106571, Note_on_c, 14, 48, 106
14, 106631, Note_on_c, 14, 48, 0
14, 106691, Note_on_c, 14, 46, 106
14, 106751, Note_on_c, 14, 46, 0
14, 106811, Note_on_c, 14, 44, 106
14, 106871, Note_on_c, 14, 44, 0
14, 106931, Note_on_c, 14, 43, 106
14, 106991, Note_on_c, 14, 43, 0
14, 107051, Note_on_c, 14, 41, 106
14, 107051, Control_c, 14, 11, 67
14, 107060, Control_c, 14, 11, 70
14, 107069, Control_c, 14, 11, 73
14, 107078, Control_c, 14, 11, 76
14, 107093, Control_c, 14, 11, 73
14, 107102, Control_c, 14, 11, 70
14, 107111, Note_on_c, 14, 41, 0
14, 107111, Control_c, 14, 11, 67
14, 107120, Control_c, 14, 11, 64
14, 107129, Control_c, 14, 11, 61
14, 107138, Control_c, 14, 11, 58
14, 107147, Control_c, 14, 11, 55
14, 107156, Control_c, 14, 11, 52
14, 107165, Control_c, 14, 11, 49
14, 107171, Note_on_c, 14, 44, 106
14, 107231, Note_on_c, 14, 44, 0
14, 107291, Note_on_c, 14, 48, 106
14, 107351, Note_on_c, 14, 48, 0
14, 107411, Note_on_c, 14, 52, 106
14, 107471, Note_on_c, 14, 52, 0
14, 107531, Note_on_c, 14, 53, 106
14, 107651, Note_on_c, 14, 53, 0
14, 108491, Note_on_c, 14, 41, 106
14, 108551, Note_on_c, 14, 41, 0
14, 108611, Note_on_c, 14, 39, 106
14, 108671, Note_on_c, 14, 39, 0
14, 108731, Note_on_c, 14, 38, 106
14, 108791, Note_on_c, 14, 38, 0
14, 108851, Note_on_c, 14, 36, 106
14, 108911, Note_on_c, 14, 36, 0
14, 108971, Note_on_c, 14, 34, 106
14, 108971, Control_c, 14, 11, 47
14, 108995, Control_c, 14, 11, 45
14, 109019, Control_c, 14, 11, 43
14, 109031, Note_on_c, 14, 34, 0
14, 109043, Control_c, 14, 11, 41
14, 109067, Control_c, 14, 11, 39
14, 109091, Note_on_c, 14, 38, 106
14, 109091, Control_c, 14, 11, 37
14, 109151, Note_on_c, 14, 38, 0
14, 109211, Note_on_c, 14, 41, 106
14, 109271, Note_on_c, 14, 41, 0
14, 109331, Note_on_c, 14, 45, 106
14, 109391, Note_on_c, 14, 45, 0
14, 109451, Note_on_c, 14, 46, 106
14, 109571, Note_on_c, 14, 46, 0
14, 109931, Control_c, 14, 11, 37
14, 109931, Note_on_c, 14, 34, 106
14, 109960, Control_c, 14, 11, 39
14, 109975, Control_c, 14, 11, 40
14, 109990, Control_c, 14, 11, 41
14, 109991, Note_on_c, 14, 34, 0
14, 110019, Control_c, 14, 11, 43
14, 110034, Control_c, 14, 11, 44
14, 110049, Control_c, 14, 11, 45
14, 110051, Note_on_c, 14, 34, 106
14, 110078, Control_c, 14, 11, 47
14, 110093, Control_c, 14, 11, 48
14, 110108, Control_c, 14, 11, 49
14, 110111, Note_on_c, 14, 34, 0
14, 110123, Control_c, 14, 11, 50
14, 110152, Control_c, 14, 11, 52
14, 110167, Control_c, 14, 11, 53
14, 110171, Note_on_c, 14, 39, 106
14, 110182, Control_c, 14, 11, 54
14, 110211, Control_c, 14, 11, 56
14, 110226, Control_c, 14, 11, 57
14, 110231, Note_on_c, 14, 39, 0
14, 110241, Control_c, 14, 11, 58
14, 110270, Control_c, 14, 11, 60
14, 110285, Control_c, 14, 11, 61
14, 110291, Note_on_c, 14, 43, 106
14, 110300, Control_c, 14, 11, 62
14, 110315, Control_c, 14, 11, 63
14, 110344, Control_c, 14, 11, 65
14, 110351, Note_on_c, 14, 43, 0
14, 110359, Control_c, 14, 11, 66
14, 110374, Control_c, 14, 11, 67
14, 110403, Control_c, 14, 11, 69
14, 110411, Note_on_c, 14, 46, 106
14, 110418, Control_c, 14, 11, 70
14, 110433, Control_c, 14, 11, 71
14, 110462, Control_c, 14, 11, 73
14, 110477, Control_c, 14, 11, 74
14, 110492, Control_c, 14, 11, 75
14, 110507, Control_c, 14, 11, 76
14, 110531, Note_on_c, 14, 46, 0
14, 110536, Control_c, 14, 11, 78
14, 110551, Control_c, 14, 11, 79
14, 110566, Control_c, 14, 11, 80
14, 110595, Control_c, 14, 11, 82
14, 110610, Control_c, 14, 11, 83
14, 110625, Control_c, 14, 11, 84
14, 110654, Control_c, 14, 11, 86
14, 110669, Control_c, 14, 11, 87
14, 110684, Control_c, 14, 11, 88
14, 110699, Control_c, 14, 11, 89
14, 110728, Control_c, 14, 11, 91
14, 110743, Control_c, 14, 11, 92
14, 110758, Control_c, 14, 11, 93
14, 110787, Control_c, 14, 11, 95
14, 110802, Control_c, 14, 11, 96
14, 110817, Control_c, 14, 11, 97
14, 110846, Control_c, 14, 11, 99
14, 110861, Control_c, 14, 11, 100
14, 110876, Control_c, 14, 11, 101
14, 110891, Control_c, 14, 11, 102
14, 110891, Note_on_c, 14, 34, 106
14, 110951, Note_on_c, 14, 34, 0
14, 111011, Note_on_c, 14, 39, 106
14, 111071, Note_on_c, 14, 39, 0
14, 111131, Note_on_c, 14, 42, 106
14, 111191, Note_on_c, 14, 42, 0
14, 111251, Note_on_c, 14, 45, 106
14, 111311, Note_on_c, 14, 45, 0
14, 111371, Note_on_c, 14, 48, 106
14, 111431, Note_on_c, 14, 48, 0
14, 111491, Note_on_c, 14, 45, 106
14, 111551, Note_on_c, 14, 45, 0
14, 111611, Note_on_c, 14, 42, 106
14, 111671, Note_on_c, 14, 42, 0
14, 111731, Note_on_c, 14, 39, 106
14, 111791, Note_on_c, 14, 39, 0
14, 111821, Control_c, 14, 11, 92
14, 111826, Control_c, 14, 11, 89
14, 111831, Control_c, 14, 11, 86
14, 111836, Control_c, 14, 11, 83
14, 111841, Control_c, 14, 11, 80
14, 111846, Control_c, 14, 11, 77
14, 111851, Control_c, 14, 11, 74
14, 111851, Note_on_c, 14, 34, 96
14, 111856, Control_c, 14, 11, 71
14, 111861, Control_c, 14, 11, 68
14, 111866, Control_c, 14, 11, 65
14, 111871, Control_c, 14, 11, 62
14, 111876, Control_c, 14, 11, 59
14, 111881, Control_c, 14, 11, 56
14, 111886, Control_c, 14, 11, 53
14, 111891, Control_c, 14, 11, 50
14, 111896, Control_c, 14, 11, 47
14, 111971, Note_on_c, 14, 34, 0
14, 112451, Note_on_c, 14, 46, 106
14, 112511, Note_on_c, 14, 46, 0
14, 112571, Note_on_c, 14, 46, 106
14, 112631, Note_on_c, 14, 46, 0
14, 112691, Note_on_c, 14, 46, 106
14, 112751, Note_on_c, 14, 46, 0
14, 112811, Note_on_c, 14, 34, 106
14, 112931, Note_on_c, 14, 34, 0
14, 113411, Note_on_c, 14, 46, 106
14, 113471, Note_on_c, 14, 46, 0
14, 113531, Note_on_c, 14, 46, 106
14, 113591, Note_on_c, 14, 46, 0
14, 113651, Note_on_c, 14, 46, 106
14, 113711, Note_on_c, 14, 46, 0
14, 113711, Control_c, 14, 11, 47
14, 113720, Control_c, 14, 11, 50
14, 113729, Control_c, 14, 11, 53
14, 113738, Control_c, 14, 11, 56
14, 113747, Control_c, 14, 11, 59
14, 113756, Control_c, 14, 11, 62
14, 113765, Control_c, 14, 11, 65
14, 113771, Note_on_c, 14, 34, 106
14, 113774, Control_c, 14, 11, 68
14, 113783, Control_c, 14, 11, 71
14, 113792, Control_c, 14, 11, 74
14, 113801, Note_on_c, 14, 34, 0
14, 113801, Control_c, 14, 11, 77
14, 113810, Control_c, 14, 11, 80
14, 113819, Control_c, 14, 11, 83
14, 113828, Control_c, 14, 11, 86
14, 113831, Note_on_c, 14, 46, 106
14, 113861, Note_on_c, 14, 46, 0
14, 113891, Note_on_c, 14, 46, 106
14, 113921, Note_on_c, 14, 46, 0
14, 113951, Note_on_c, 14, 46, 106
14, 113981, Note_on_c, 14, 46, 0
14, 114011, Note_on_c, 14, 44, 106
14, 114071, Note_on_c, 14, 44, 0
14, 114071, Note_on_c, 14, 43, 106
14, 114121, Note_on_c, 14, 43, 0
14, 114131, Note_on_c, 14, 41, 106
14, 114161, Note_on_c, 14, 41, 0
14, 114191, Note_on_c, 14, 39, 106
14, 114221, Note_on_c, 14, 39, 0
14, 114251, Note_on_c, 14, 34, 106
14, 114281, Note_on_c, 14, 34, 0
14, 114311, Note_on_c, 14, 46, 106
14, 114341, Note_on_c, 14, 46, 0
14, 114371, Note_on_c, 14, 46, 106
14, 114401, Note_on_c, 14, 46, 0
14, 114431, Note_on_c, 14, 46, 106
14, 114461, Note_on_c, 14, 46, 0
14, 114491, Note_on_c, 14, 44, 106
14, 114551, Note_on_c, 14, 44, 0
14, 114551, Note_on_c, 14, 43, 106
14, 114601, Note_on_c, 14, 43, 0
14, 114611, Note_on_c, 14, 41, 106
14, 114641, Note_on_c, 14, 41, 0
14, 114671, Note_on_c, 14, 39, 106
14, 114701, Note_on_c, 14, 39, 0
14, 114731, Note_on_c, 14, 34, 106
14, 114851, Note_on_c, 14, 34, 0
14, 116771, Note_on_c, 14, 34, 106
14, 116771, Control_c, 14, 11, 47
14, 116861, Note_on_c, 14, 34, 0
14, 116861, Note_on_c, 14, 38, 106
14, 116881, Note_on_c, 14, 38, 0
14, 116891, Note_on_c, 14, 39, 106
14, 117011, Note_on_c, 14, 39, 0
14, 117491, Note_on_c, 14, 36, 106
14, 117601, Note_on_c, 14, 36, 0
14, 117611, Note_on_c, 14, 41, 106
14, 117961, Note_on_c, 14, 41, 0
14, 117971, Note_on_c, 14, 36, 106
14, 118061, Note_on_c, 14, 36, 0
14, 118061, Note_on_c, 14, 40, 106
14, 118081, Note_on_c, 14, 40, 0
14, 118091, Note_on_c, 14, 41, 106
14, 118211, Note_on_c, 14, 41, 0
14, 119411, Note_on_c, 14, 38, 106
14, 119521, Note_on_c, 14, 38, 0
14, 119531, Note_on_c, 14, 43, 106
14, 119881, Note_on_c, 14, 43, 0
14, 119891, Note_on_c, 14, 38, 106
14, 119981, Note_on_c, 14, 38, 0
14, 119981, Note_on_c, 14, 42, 106
14, 120001, Note_on_c, 14, 42, 0
14, 120011, Note_on_c, 14, 43, 106
14, 120131, Note_on_c, 14, 43, 0
14, 121331, Note_on_c, 14, 33, 106
14, 121421, Note_on_c, 14, 33, 0
14, 121421, Note_on_c, 14, 37, 106
14, 121441, Note_on_c, 14, 37, 0
14, 121451, Note_on_c, 14, 41, 106
14, 121571, Note_on_c, 14, 41, 0
14, 121811, Note_on_c, 14, 45, 106
14, 121921, Note_on_c, 14, 45, 0
14, 121931, Note_on_c, 14, 38, 106
14, 122051, Note_on_c, 14, 38, 0
14, 122291, Note_on_c, 14, 40, 106
14, 122381, Note_on_c, 14, 40, 0
14, 122381, Note_on_c, 14, 44, 106
14, 122401, Note_on_c, 14, 44, 0
14, 122411, Note_on_c, 14, 45, 106
14, 122531, Note_on_c, 14, 45, 0
14, 122771, Note_on_c, 14, 40, 106
14, 122881, Note_on_c, 14, 40, 0
14, 122891, Note_on_c, 14, 33, 106
14, 123011, Note_on_c, 14, 33, 0
14, 123251, Note_on_c, 14, 41, 106
14, 123251, Control_c, 14, 11, 67
14, 123261, Control_c, 14, 11, 70
14, 123271, Control_c, 14, 11, 73
14, 123281, Control_c, 14, 11, 76
14, 123292, Control_c, 14, 11, 79
14, 123302, Control_c, 14, 11, 82
14, 123312, Control_c, 14, 11, 85
14, 123321, Note_on_c, 14, 41, 0
14, 123323, Control_c, 14, 11, 88
14, 123333, Control_c, 14, 11, 91
14, 123341, Note_on_c, 14, 41, 106
14, 123343, Control_c, 14, 11, 94
14, 123353, Control_c, 14, 11, 97
14, 123361, Note_on_c, 14, 41, 0
14, 123364, Control_c, 14, 11, 100
14, 123371, Note_on_c, 14, 40, 106
14, 123721, Note_on_c, 14, 40, 0
14, 123731, Note_on_c, 14, 35, 106
14, 123821, Note_on_c, 14, 35, 0
14, 123821, Note_on_c, 14, 39, 106
14, 123841, Note_on_c, 14, 39, 0
14, 123851, Note_on_c, 14, 40, 106
14, 123881, Note_on_c, 14, 40, 0
14, 123911, Note_on_c, 14, 42, 106
14, 123941, Note_on_c, 14, 42, 0
14, 123971, Note_on_c, 14, 44, 106
14, 124001, Note_on_c, 14, 44, 0
14, 124031, Note_on_c, 14, 45, 106
14, 124061, Note_on_c, 14, 45, 0
14, 124091, Note_on_c, 14, 47, 106
14, 124121, Note_on_c, 14, 47, 0
14, 124151, Note_on_c, 14, 48, 106
14, 124181, Note_on_c, 14, 48, 0
14, 124211, Note_on_c, 14, 50, 106
14, 124241, Note_on_c, 14, 50, 0
14, 124271, Note_on_c, 14, 47, 106
14, 124301, Note_on_c, 14, 47, 0
14, 124331, Note_on_c, 14, 45, 106
14, 124451, Note_on_c, 14, 45, 0
14, 125171, Note_on_c, 14, 33, 106
14, 125201, Note_on_c, 14, 33, 0
14, 125201, Note_on_c, 14, 35, 106
14, 125231, Note_on_c, 14, 35, 0
14, 125231, Note_on_c, 14, 36, 106
14, 125261, Note_on_c, 14, 36, 0
14, 125261, Note_on_c, 14, 38, 106
14, 125281, Note_on_c, 14, 38, 0
14, 125291, Note_on_c, 14, 40, 106
14, 125641, Note_on_c, 14, 40, 0
14, 125651, Note_on_c, 14, 35, 106
14, 125741, Note_on_c, 14, 35, 0
14, 125741, Note_on_c, 14, 39, 106
14, 125761, Note_on_c, 14, 39, 0
14, 125771, Note_on_c, 14, 40, 106
14, 125801, Note_on_c, 14, 40, 0
14, 125831, Note_on_c, 14, 42, 106
14, 125861, Note_on_c, 14, 42, 0
14, 125891, Note_on_c, 14, 44, 106
14, 125921, Note_on_c, 14, 44, 0
14, 125951, Note_on_c, 14, 45, 106
14, 125981, Note_on_c, 14, 45, 0
14, 126011, Note_on_c, 14, 47, 106
14, 126041, Note_on_c, 14, 47, 0
14, 126071, Note_on_c, 14, 48, 106
14, 126101, Note_on_c, 14, 48, 0
14, 126131, Note_on_c, 14, 50, 106
14, 126161, Note_on_c, 14, 50, 0
14, 126191, Note_on_c, 14, 47, 106
14, 126221, Note_on_c, 14, 47, 0
14, 126251, Note_on_c, 14, 45, 106
14, 126371, Note_on_c, 14, 45, 0
14, 127091, Note_on_c, 14, 33, 106
14, 127121, Note_on_c, 14, 33, 0
14, 127121, Note_on_c, 14, 35, 106
14, 127151, Note_on_c, 14, 35, 0
14, 127151, Note_on_c, 14, 36, 106
14, 127181, Note_on_c, 14, 36, 0
14, 127181, Note_on_c, 14, 38, 106
14, 127201, Note_on_c, 14, 38, 0
14, 127211, Note_on_c, 14, 40, 106
14, 127211, Control_c, 14, 11, 122
14, 127228, Control_c, 14, 11, 119
14, 127246, Control_c, 14, 11, 116
14, 127264, Control_c, 14, 11, 113
14, 127282, Control_c, 14, 11, 110
14, 127300, Control_c, 14, 11, 107
14, 127318, Control_c, 14, 11, 104
14, 127331, Note_on_c, 14, 40, 0
14, 127571, Note_on_c, 14, 33, 106
14, 127601, Note_on_c, 14, 33, 0
14, 127601, Note_on_c, 14, 35, 106
14, 127631, Note_on_c, 14, 35, 0
14, 127631, Note_on_c, 14, 36, 106
14, 127661, Note_on_c, 14, 36, 0
14, 127661, Note_on_c, 14, 38, 106
14, 127681, Note_on_c, 14, 38, 0
14, 127691, Control_c, 14, 11, 122
14, 127691, Note_on_c, 14, 40, 106
14, 127708, Control_c, 14, 11, 119
14, 127726, Control_c, 14, 11, 116
14, 127744, Control_c, 14, 11, 113
14, 127762, Control_c, 14, 11, 110
14, 127780, Control_c, 14, 11, 107
14, 127798, Control_c, 14, 11, 104
14, 127811, Note_on_c, 14, 40, 0
14, 128051, Note_on_c, 14, 33, 106
14, 128081, Note_on_c, 14, 33, 0
14, 128081, Note_on_c, 14, 35, 106
14, 128111, Note_on_c, 14, 35, 0
14, 128111, Note_on_c, 14, 36, 106
14, 128141, Note_on_c, 14, 36, 0
14, 128141, Note_on_c, 14, 38, 106
14, 128161, Note_on_c, 14, 38, 0
14, 128171, Control_c, 14, 11, 122
14, 128171, Note_on_c, 14, 40, 106
14, 128188, Control_c, 14, 11, 119
14, 128206, Control_c, 14, 11, 116
14, 128224, Control_c, 14, 11, 113
14, 128242, Control_c, 14, 11, 110
14, 128260, Control_c, 14, 11, 107
14, 128278, Control_c, 14, 11, 104
14, 128291, Note_on_c, 14, 40, 0
14, 128651, Note_on_c, 14, 40, 106
14, 128723, Note_on_c, 14, 40, 0
14, 128891, Note_on_c, 14, 40, 106
14, 128963, Note_on_c, 14, 40, 0
14, 129131, Note_on_c, 14, 40, 106
14, 129203, Note_on_c, 14, 40, 0
14, 131891, Note_on_c, 14, 43, 106
14, 131891, Control_c, 14, 11, 70
14, 131902, Control_c, 14, 11, 73
14, 131913, Control_c, 14, 11, 76
14, 131921, Note_on_c, 14, 43, 0
14, 131921, Note_on_c, 14, 41, 106
14, 131924, Control_c, 14, 11, 79
14, 131936, Control_c, 14, 11, 82
14, 131947, Control_c, 14, 11, 85
14, 131951, Note_on_c, 14, 41, 0
14, 131951, Note_on_c, 14, 40, 106
14, 131958, Control_c, 14, 11, 88
14, 131969, Control_c, 14, 11, 91
14, 131981, Note_on_c, 14, 40, 0
14, 131981, Note_on_c, 14, 38, 106
14, 131981, Control_c, 14, 11, 94
14, 131992, Control_c, 14, 11, 97
14, 131998, Note_on_c, 14, 38, 0
14, 132003, Control_c, 14, 11, 100
14, 132011, Note_on_c, 14, 36, 106
14, 132319, Note_on_c, 14, 36, 0
14, 132371, Note_on_c, 14, 31, 106
14, 132461, Note_on_c, 14, 31, 0
14, 132461, Note_on_c, 14, 35, 106
14, 132481, Note_on_c, 14, 35, 0
14, 132491, Control_c, 14, 11, 122
14, 132491, Note_on_c, 14, 36, 106
14, 132508, Control_c, 14, 11, 119
14, 132526, Control_c, 14, 11, 116
14, 132544, Control_c, 14, 11, 113
14, 132562, Control_c, 14, 11, 110
14, 132580, Control_c, 14, 11, 107
14, 132598, Control_c, 14, 11, 104
14, 132799, Note_on_c, 14, 36, 0
14, 132851, Note_on_c, 14, 31, 106
14, 132941, Note_on_c, 14, 31, 0
14, 132941, Note_on_c, 14, 35, 106
14, 132961, Note_on_c, 14, 35, 0
14, 132971, Note_on_c, 14, 36, 106
14, 133001, Note_on_c, 14, 36, 0
14, 133031, Note_on_c, 14, 36, 106
14, 133061, Note_on_c, 14, 36, 0
14, 133091, Note_on_c, 14, 31, 106
14, 133121, Note_on_c, 14, 31, 0
14, 133151, Note_on_c, 14, 35, 106
14, 133181, Note_on_c, 14, 35, 0
14, 133211, Note_on_c, 14, 36, 106
14, 133241, Note_on_c, 14, 36, 0
14, 133271, Note_on_c, 14, 36, 106
14, 133301, Note_on_c, 14, 36, 0
14, 133331, Note_on_c, 14, 31, 106
14, 133361, Note_on_c, 14, 31, 0
14, 133391, Note_on_c, 14, 35, 106
14, 133421, Note_on_c, 14, 35, 0
14, 133451, Note_on_c, 14, 36, 106
14, 133511, Note_on_c, 14, 36, 0
14, 133571, Note_on_c, 14, 40, 106
14, 133631, Note_on_c, 14, 40, 0
14, 133691, Note_on_c, 14, 43, 106
14, 133751, Note_on_c, 14, 43, 0
14, 133811, Note_on_c, 14, 47, 106
14, 133871, Note_on_c, 14, 47, 0
14, 133931, Note_on_c, 14, 48, 86
14, 134051, Note_on_c, 14, 48, 0
14, 134771, Note_on_c, 14, 45, 106
14, 134771, Control_c, 14, 11, 72
14, 134783, Control_c, 14, 11, 75
14, 134795, Control_c, 14, 11, 78
14, 134801, Note_on_c, 14, 45, 0
14, 134801, Note_on_c, 14, 43, 106
14, 134807, Control_c, 14, 11, 81
14, 134819, Control_c, 14, 11, 84
14, 134831, Note_on_c, 14, 43, 0
14, 134831, Control_c, 14, 11, 87
14, 134831, Note_on_c, 14, 41, 106
14, 134843, Control_c, 14, 11, 90
14, 134855, Control_c, 14, 11, 93
14, 134861, Note_on_c, 14, 41, 0
14, 134861, Note_on_c, 14, 40, 106
14, 134867, Control_c, 14, 11, 96
14, 134879, Control_c, 14, 11, 99
14, 134881, Note_on_c, 14, 40, 0
14, 134891, Note_on_c, 14, 38, 106
14, 134891, Control_c, 14, 11, 102
14, 135199, Note_on_c, 14, 38, 0
14, 135251, Note_on_c, 14, 33, 106
14, 135341, Note_on_c, 14, 33, 0
14, 135341, Note_on_c, 14, 37, 106
14, 135361, Note_on_c, 14, 37, 0
14, 135371, Note_on_c, 14, 38, 106
14, 135371, Control_c, 14, 11, 122
14, 135388, Control_c, 14, 11, 119
14, 135406, Control_c, 14, 11, 116
14, 135424, Control_c, 14, 11, 113
14, 135442, Control_c, 14, 11, 110
14, 135460, Control_c, 14, 11, 107
14, 135478, Control_c, 14, 11, 104
14, 135679, Note_on_c, 14, 38, 0
14, 135731, Note_on_c, 14, 33, 106
14, 135821, Note_on_c, 14, 33, 0
14, 135821, Note_on_c, 14, 37, 106
14, 135841, Note_on_c, 14, 37, 0
14, 135851, Note_on_c, 14, 38, 106
14, 135881, Note_on_c, 14, 38, 0
14, 135911, Note_on_c, 14, 38, 106
14, 135941, Note_on_c, 14, 38, 0
14, 135971, Note_on_c, 14, 33, 106
14, 136001, Note_on_c, 14, 33, 0
14, 136031, Note_on_c, 14, 37, 106
14, 136061, Note_on_c, 14, 37, 0
14, 136091, Note_on_c, 14, 38, 106
14, 136121, Note_on_c, 14, 38, 0
14, 136151, Note_on_c, 14, 38, 106
14, 136181, Note_on_c, 14, 38, 0
14, 136211, Note_on_c, 14, 33, 106
14, 136241, Note_on_c, 14, 33, 0
14, 136271, Note_on_c, 14, 37, 106
14, 136301, Note_on_c, 14, 37, 0
14, 136331, Note_on_c, 14, 38, 106
14, 136391, Note_on_c, 14, 38, 0
14, 136451, Note_on_c, 14, 41, 106
14, 136511, Note_on_c, 14, 41, 0
14, 136571, Note_on_c, 14, 45, 106
14, 136631, Note_on_c, 14, 45, 0
14, 136691, Note_on_c, 14, 49, 106
14, 136751, Note_on_c, 14, 49, 0
14, 136811, Note_on_c, 14, 50, 60
14, 136931, Note_on_c, 14, 50, 0
14, 137651, Note_on_c, 14, 48, 106
14, 137651, Control_c, 14, 11, 47
14, 137681, Note_on_c, 14, 48, 0
14, 137681, Note_on_c, 14, 46, 106
14, 137711, Note_on_c, 14, 46, 0
14, 137711, Note_on_c, 14, 45, 106
14, 137741, Note_on_c, 14, 45, 0
14, 137741, Note_on_c, 14, 43, 106
14, 137761, Note_on_c, 14, 43, 0
14, 137771, Note_on_c, 14, 41, 106
14, 137891, Note_on_c, 14, 41, 0
14, 138611, Control_c, 14, 11, 47
14, 138654, Control_c, 14, 11, 48
14, 138698, Control_c, 14, 11, 49
14, 138741, Control_c, 14, 11, 50
14, 138785, Control_c, 14, 11, 51
14, 138829, Control_c, 14, 11, 52
14, 138872, Control_c, 14, 11, 53
14, 138916, Control_c, 14, 11, 54
14, 138960, Control_c, 14, 11, 55
14, 139003, Control_c, 14, 11, 56
14, 139047, Control_c, 14, 11, 57
14, 139091, Note_on_c, 14, 40, 106
14, 139091, Control_c, 14, 11, 58
14, 139121, Note_on_c, 14, 40, 0
14, 139121, Note_on_c, 14, 38, 106
14, 139134, Control_c, 14, 11, 59
14, 139151, Note_on_c, 14, 38, 0
14, 139151, Note_on_c, 14, 36, 106
14, 139178, Control_c, 14, 11, 60
14, 139181, Note_on_c, 14, 36, 0
14, 139181, Note_on_c, 14, 35, 106
14, 139201, Note_on_c, 14, 35, 0
14, 139211, Note_on_c, 14, 33, 106
14, 139221, Control_c, 14, 11, 61
14, 139265, Control_c, 14, 11, 62
14, 139309, Control_c, 14, 11, 63
14, 139331, Note_on_c, 14, 33, 0
14, 139352, Control_c, 14, 11, 64
14, 139396, Control_c, 14, 11, 65
14, 139440, Control_c, 14, 11, 66
14, 139483, Control_c, 14, 11, 67
14, 139527, Control_c, 14, 11, 68
14, 139571, Control_c, 14, 11, 69
14, 139614, Control_c, 14, 11, 70
14, 139658, Control_c, 14, 11, 71
14, 139701, Control_c, 14, 11, 72
14, 139745, Control_c, 14, 11, 73
14, 139789, Control_c, 14, 11, 74
14, 139832, Control_c, 14, 11, 75
14, 139876, Control_c, 14, 11, 76
14, 139920, Control_c, 14, 11, 77
14, 139963, Control_c, 14, 11, 78
14, 140007, Control_c, 14, 11, 79
14, 140051, Control_c, 14, 11, 80
14, 140051, Note_on_c, 14, 43, 106
14, 140081, Note_on_c, 14, 43, 0
14, 140081, Note_on_c, 14, 41, 106
14, 140094, Control_c, 14, 11, 81
14, 140111, Note_on_c, 14, 41, 0
14, 140111, Note_on_c, 14, 40, 106
14, 140138, Control_c, 14, 11, 82
14, 140141, Note_on_c, 14, 40, 0
14, 140141, Note_on_c, 14, 38, 106
14, 140161, Note_on_c, 14, 38, 0
14, 140171, Note_on_c, 14, 36, 106
14, 140181, Control_c, 14, 11, 83
14, 140225, Control_c, 14, 11, 84
14, 140269, Control_c, 14, 11, 85
14, 140291, Note_on_c, 14, 36, 0
14, 140312, Control_c, 14, 11, 86
14, 140356, Control_c, 14, 11, 87
14, 140400, Control_c, 14, 11, 88
14, 140443, Control_c, 14, 11, 89
14, 140487, Control_c, 14, 11, 90
14, 140531, Control_c, 14, 11, 91
14, 140574, Control_c, 14, 11, 92
14, 140618, Control_c, 14, 11, 93
14, 140661, Control_c, 14, 11, 94
14, 140705, Control_c, 14, 11, 95
14, 140749, Control_c, 14, 11, 96
14, 140792, Control_c, 14, 11, 97
14, 140836, Control_c, 14, 11, 98
14, 140880, Control_c, 14, 11, 99
14, 140923, Control_c, 14, 11, 100
14, 140967, Control_c, 14, 11, 101
14, 141011, Note_on_c, 14, 48, 106
14, 141011, Control_c, 14, 11, 102
14, 141041, Note_on_c, 14, 48, 0
14, 141041, Note_on_c, 14, 46, 106
14, 141071, Note_on_c, 14, 46, 0
14, 141071, Note_on_c, 14, 45, 106
14, 141101, Note_on_c, 14, 45, 0
14, 141101, Note_on_c, 14, 43, 106
14, 141121, Note_on_c, 14, 43, 0
14, 141131, Note_on_c, 14, 41, 106
14, 141191, Note_on_c, 14, 41, 0
14, 141251, Note_on_c, 14, 45, 106
14, 141281, Note_on_c, 14, 45, 0
14, 141281, Note_on_c, 14, 43, 106
14, 141311, Note_on_c, 14, 43, 0
14, 141311, Note_on_c, 14, 41, 106
14, 141341, Note_on_c, 14, 41, 0
14, 141341, Note_on_c, 14, 40, 106
14, 141361, Note_on_c, 14, 40, 0
14, 141371, Note_on_c, 14, 38, 106
14, 141431, Note_on_c, 14, 38, 0
14, 141491, Note_on_c, 14, 38, 106
14, 141521, Note_on_c, 14, 38, 0
14, 141521, Note_on_c, 14, 36, 106
14, 141551, Note_on_c, 14, 36, 0
14, 141551, Note_on_c, 14, 35, 106
14, 141581, Note_on_c, 14, 35, 0
14, 141581, Note_on_c, 14, 33, 106
14, 141601, Note_on_c, 14, 33, 0
14, 141611, Note_on_c, 14, 31, 106
14, 141661, Note_on_c, 14, 31, 0
14, 141671, Note_on_c, 14, 43, 106
14, 141721, Note_on_c, 14, 43, 0
14, 141731, Note_on_c, 14, 43, 106
14, 141731, Control_c, 14, 11, 122
14, 141749, Control_c, 14, 11, 119
14, 141767, Control_c, 14, 11, 116
14, 141781, Note_on_c, 14, 43, 0
14, 141785, Control_c, 14, 11, 113
14, 141791, Note_on_c, 14, 43, 106
14, 141803, Control_c, 14, 11, 110
14, 141821, Control_c, 14, 11, 107
14, 141839, Control_c, 14, 11, 104
14, 141841, Note_on_c, 14, 43, 0
14, 141851, Note_on_c, 14, 43, 106
14, 141901, Note_on_c, 14, 43, 0
14, 141911, Note_on_c, 14, 43, 106
14, 141961, Note_on_c, 14, 43, 0
14, 141971, Note_on_c, 14, 43, 106
14, 142021, Note_on_c, 14, 43, 0
14, 142031, Note_on_c, 14, 43, 106
14, 142081, Note_on_c, 14, 43, 0
14, 142091, Note_on_c, 14, 43, 106
14, 142141, Note_on_c, 14, 43, 0
14, 142151, Note_on_c, 14, 43, 106
14, 142201, Note_on_c, 14, 43, 0
14, 142211, Note_on_c, 14, 43, 106
14, 142261, Note_on_c, 14, 43, 0
14, 142271, Note_on_c, 14, 43, 106
14, 142321, Note_on_c, 14, 43, 0
14, 142331, Note_on_c, 14, 43, 106
14, 142381, Note_on_c, 14, 43, 0
14, 142391, Note_on_c, 14, 43, 106
14, 142441, Note_on_c, 14, 43, 0
14, 142451, Note_on_c, 14, 43, 106
14, 142501, Note_on_c, 14, 43, 0
14, 142511, Note_on_c, 14, 43, 106
14, 142561, Note_on_c, 14, 43, 0
14, 142571, Note_on_c, 14, 31, 106
14, 142621, Note_on_c, 14, 31, 0
14, 142631, Note_on_c, 14, 43, 106
14, 142681, Note_on_c, 14, 43, 0
14, 142691, Control_c, 14, 11, 122
14, 142691, Note_on_c, 14, 43, 106
14, 142709, Control_c, 14, 11, 119
14, 142727, Control_c, 14, 11, 116
14, 142741, Note_on_c, 14, 43, 0
14, 142745, Control_c, 14, 11, 113
14, 142751, Note_on_c, 14, 43, 106
14, 142763, Control_c, 14, 11, 110
14, 142781, Control_c, 14, 11, 107
14, 142799, Control_c, 14, 11, 104
14, 142801, Note_on_c, 14, 43, 0
14, 142811, Note_on_c, 14, 43, 106
14, 142861, Note_on_c, 14, 43, 0
14, 142871, Note_on_c, 14, 43, 106
14, 142921, Note_on_c, 14, 43, 0
14, 142931, Note_on_c, 14, 43, 106
14, 142981, Note_on_c, 14, 43, 0
14, 142991, Note_on_c, 14, 43, 106
14, 143041, Note_on_c, 14, 43, 0
14, 143051, Note_on_c, 14, 43, 106
14, 143101, Note_on_c, 14, 43, 0
14, 143111, Note_on_c, 14, 43, 106
14, 143161, Note_on_c, 14, 43, 0
14, 143171, Note_on_c, 14, 43, 106
14, 143221, Note_on_c, 14, 43, 0
14, 143231, Note_on_c, 14, 43, 106
14, 143281, Note_on_c, 14, 43, 0
14, 143291, Note_on_c, 14, 43, 106
14, 143341, Note_on_c, 14, 43, 0
14, 143351, Note_on_c, 14, 43, 106
14, 143401, Note_on_c, 14, 43, 0
14, 143411, Note_on_c, 14, 43, 106
14, 143461, Note_on_c, 14, 43, 0
14, 143471, Note_on_c, 14, 43, 106
14, 143521, Note_on_c, 14, 43, 0
14, 143531, Note_on_c, 14, 43, 106
14, 143561, Note_on_c, 14, 43, 0
14, 143591, Note_on_c, 14, 45, 106
14, 143621, Note_on_c, 14, 45, 0
14, 143651, Note_on_c, 14, 47, 106
14, 143681, Note_on_c, 14, 47, 0
14, 143711, Note_on_c, 14, 48, 106
14, 143741, Note_on_c, 14, 48, 0
14, 143771, Note_on_c, 14, 50, 106
14, 143771, Control_c, 14, 11, 122
14, 143789, Control_c, 14, 11, 119
14, 143801, Note_on_c, 14, 50, 0
14, 143807, Control_c, 14, 11, 116
14, 143825, Control_c, 14, 11, 113
14, 143831, Note_on_c, 14, 48, 106
14, 143843, Control_c, 14, 11, 110
14, 143861, Note_on_c, 14, 48, 0
14, 143861, Control_c, 14, 11, 107
14, 143879, Control_c, 14, 11, 104
14, 143891, Note_on_c, 14, 47, 106
14, 143921, Note_on_c, 14, 47, 0
14, 143951, Note_on_c, 14, 45, 106
14, 143981, Note_on_c, 14, 45, 0
14, 144011, Note_on_c, 14, 43, 106
14, 144041, Note_on_c, 14, 43, 0
14, 144071, Note_on_c, 14, 45, 106
14, 144101, Note_on_c, 14, 45, 0
14, 144131, Note_on_c, 14, 47, 106
14, 144161, Note_on_c, 14, 47, 0
14, 144191, Note_on_c, 14, 48, 106
14, 144221, Note_on_c, 14, 48, 0
14, 144251, Control_c, 14, 11, 122
14, 144251, Note_on_c, 14, 50, 106
14, 144269, Control_c, 14, 11, 119
14, 144281, Note_on_c, 14, 50, 0
14, 144287, Control_c, 14, 11, 116
14, 144305, Control_c, 14, 11, 113
14, 144311, Note_on_c, 14, 48, 106
14, 144323, Control_c, 14, 11, 110
14, 144341, Note_on_c, 14, 48, 0
14, 144341, Control_c, 14, 11, 107
14, 144359, Control_c, 14, 11, 104
14, 144371, Note_on_c, 14, 47, 106
14, 144401, Note_on_c, 14, 47, 0
14, 144431, Note_on_c, 14, 45, 106
14, 144461, Note_on_c, 14, 45, 0
14, 144491, Note_on_c, 14, 43, 106
14, 144551, Note_on_c, 14, 43, 0
14, 144551, Note_on_c, 14, 42, 106
14, 144611, Note_on_c, 14, 42, 0
14, 144611, Note_on_c, 14, 43, 106
14, 144671, Note_on_c, 14, 43, 0
14, 144671, Note_on_c, 14, 42, 106
14, 144731, Note_on_c, 14, 42, 0
14, 144731, Note_on_c, 14, 43, 106
14, 144791, Note_on_c, 14, 43, 0
14, 144791, Note_on_c, 14, 42, 106
14, 144851, Note_on_c, 14, 42, 0
14, 144851, Note_on_c, 14, 43, 106
14, 144911, Note_on_c, 14, 43, 0
14, 144911, Note_on_c, 14, 42, 106
14, 144961, Note_on_c, 14, 42, 0
14, 144971, Note_on_c, 14, 43, 106
14, 145031, Note_on_c, 14, 43, 0
14, 145031, Note_on_c, 14, 42, 106
14, 145091, Note_on_c, 14, 42, 0
14, 145091, Note_on_c, 14, 43, 106
14, 145151, Note_on_c, 14, 43, 0
14, 145151, Note_on_c, 14, 42, 106
14, 145211, Note_on_c, 14, 42, 0
14, 145211, Control_c, 14, 11, 102
14, 145211, Note_on_c, 14, 43, 106
14, 145224, Control_c, 14, 11, 99
14, 145237, Control_c, 14, 11, 96
14, 145250, Control_c, 14, 11, 93
14, 145263, Control_c, 14, 11, 90
14, 145271, Note_on_c, 14, 43, 0
14, 145271, Note_on_c, 14, 41, 106
14, 145276, Control_c, 14, 11, 87
14, 145289, Control_c, 14, 11, 84
14, 145302, Control_c, 14, 11, 81
14, 145315, Control_c, 14, 11, 78
14, 145328, Control_c, 14, 11, 75
14, 145331, Note_on_c, 14, 41, 0
14, 145331, Note_on_c, 14, 40, 106
14, 145341, Control_c, 14, 11, 72
14, 145355, Control_c, 14, 11, 69
14, 145368, Control_c, 14, 11, 66
14, 145381, Control_c, 14, 11, 63
14, 145391, Note_on_c, 14, 40, 0
14, 145391, Note_on_c, 14, 38, 106
14, 145394, Control_c, 14, 11, 60
14, 145407, Control_c, 14, 11, 57
14, 145420, Control_c, 14, 11, 54
14, 145433, Control_c, 14, 11, 51
14, 145441, Note_on_c, 14, 38, 0
14, 145446, Control_c, 14, 11, 48
14, 145451, Note_on_c, 14, 36, 106
14, 145571, Note_on_c, 14, 36, 0
14, 145931, Note_on_c, 14, 38, 86
14, 146051, Note_on_c, 14, 38, 0
14, 146411, Note_on_c, 14, 43, 86
14, 146531, Note_on_c, 14, 43, 0
14, 146891, Note_on_c, 14, 36, 86
14, 147011, Note_on_c, 14, 36, 0
14, 147371, Note_on_c, 14, 43, 86
14, 147491, Note_on_c, 14, 43, 0
14, 147611, Note_on_c, 14, 43, 106
14, 147611, Control_c, 14, 11, 67
14, 147628, Control_c, 14, 11, 70
14, 147646, Control_c, 14, 11, 73
14, 147664, Control_c, 14, 11, 76
14, 147682, Control_c, 14, 11, 75
14, 147700, Control_c, 14, 11, 72
14, 147718, Control_c, 14, 11, 69
14, 147731, Note_on_c, 14, 43, 0
14, 147731, Note_on_c, 14, 48, 106
14, 147736, Control_c, 14, 11, 66
14, 147754, Control_c, 14, 11, 63
14, 147772, Control_c, 14, 11, 60
14, 147790, Control_c, 14, 11, 57
14, 147808, Control_c, 14, 11, 54
14, 147826, Control_c, 14, 11, 51
14, 147841, Note_on_c, 14, 48, 0
14, 147844, Control_c, 14, 11, 48
14, 147851, Note_on_c, 14, 43, 106
14, 147971, Note_on_c, 14, 43, 0
14, 148091, Control_c, 14, 11, 67
14, 148091, Note_on_c, 14, 43, 106
14, 148108, Control_c, 14, 11, 70
14, 148126, Control_c, 14, 11, 73
14, 148144, Control_c, 14, 11, 76
14, 148162, Control_c, 14, 11, 75
14, 148180, Control_c, 14, 11, 72
14, 148198, Control_c, 14, 11, 69
14, 148211, Note_on_c, 14, 43, 0
14, 148211, Note_on_c, 14, 48, 106
14, 148216, Control_c, 14, 11, 66
14, 148234, Control_c, 14, 11, 63
14, 148252, Control_c, 14, 11, 60
14, 148270, Control_c, 14, 11, 57
14, 148288, Control_c, 14, 11, 54
14, 148306, Control_c, 14, 11, 51
14, 148321, Note_on_c, 14, 48, 0
14, 148324, Control_c, 14, 11, 48
14, 148331, Note_on_c, 14, 50, 106
14, 148451, Note_on_c, 14, 50, 0
14, 148571, Note_on_c, 14, 38, 106
14, 148691, Note_on_c, 14, 38, 0
14, 148811, Note_on_c, 14, 43, 106
14, 148931, Note_on_c, 14, 43, 0
14, 148931, Note_on_c, 14, 53, 106
14, 148931, Control_c, 14, 11, 67
14, 148949, Control_c, 14, 11, 70
14, 148967, Control_c, 14, 11, 73
14, 148985, Control_c, 14, 11, 76
14, 149003, Control_c, 14, 11, 75
14, 149021, Control_c, 14, 11, 72
14, 149039, Control_c, 14, 11, 69
14, 149057, Control_c, 14, 11, 66
14, 149075, Control_c, 14, 11, 63
14, 149093, Control_c, 14, 11, 60
14, 149111, Control_c, 14, 11, 57
14, 149129, Control_c, 14, 11, 54
14, 149147, Control_c, 14, 11, 51
14, 149165, Control_c, 14, 11, 48
14, 149171, Note_on_c, 14, 53, 0
14, 149171, Note_on_c, 14, 50, 106
14, 149281, Note_on_c, 14, 50, 0
14, 149291, Note_on_c, 14, 48, 106
14, 149411, Note_on_c, 14, 48, 0
14, 149771, Note_on_c, 14, 38, 106
14, 149891, Note_on_c, 14, 38, 0
14, 150251, Note_on_c, 14, 31, 106
14, 150371, Note_on_c, 14, 31, 0
14, 150731, Note_on_c, 14, 36, 106
14, 150851, Note_on_c, 14, 36, 0
14, 151091, Note_on_c, 14, 36, 106
14, 151201, Note_on_c, 14, 36, 0
14, 151211, Note_on_c, 14, 41, 106
14, 151331, Note_on_c, 14, 41, 0
14, 151571, Note_on_c, 14, 40, 106
14, 151571, Control_c, 14, 11, 67
14, 151580, Control_c, 14, 11, 70
14, 151589, Control_c, 14, 11, 73
14, 151598, Control_c, 14, 11, 76
14, 151613, Control_c, 14, 11, 73
14, 151622, Control_c, 14, 11, 70
14, 151631, Control_c, 14, 11, 67
14, 151640, Control_c, 14, 11, 64
14, 151649, Control_c, 14, 11, 61
14, 151658, Control_c, 14, 11, 58
14, 151667, Control_c, 14, 11, 55
14, 151676, Control_c, 14, 11, 52
14, 151685, Control_c, 14, 11, 49
14, 151691, Note_on_c, 14, 40, 0
14, 151691, Note_on_c, 14, 41, 106
14, 151751, Note_on_c, 14, 41, 0
14, 152051, Note_on_c, 14, 40, 106
14, 152051, Control_c, 14, 11, 67
14, 152060, Control_c, 14, 11, 70
14, 152069, Control_c, 14, 11, 73
14, 152078, Control_c, 14, 11, 76
14, 152093, Control_c, 14, 11, 73
14, 152102, Control_c, 14, 11, 70
14, 152111, Control_c, 14, 11, 67
14, 152120, Control_c, 14, 11, 64
14, 152129, Control_c, 14, 11, 61
14, 152138, Control_c, 14, 11, 58
14, 152147, Control_c, 14, 11, 55
14, 152156, Control_c, 14, 11, 52
14, 152165, Control_c, 14, 11, 49
14, 152171, Note_on_c, 14, 40, 0
14, 152171, Note_on_c, 14, 41, 106
14, 152231, Note_on_c, 14, 41, 0
14, 152291, Note_on_c, 14, 41, 106
14, 152411, Note_on_c, 14, 41, 0
14, 152411, Note_on_c, 14, 40, 106
14, 152531, Note_on_c, 14, 40, 0
14, 152531, Note_on_c, 14, 38, 106
14, 152641, Note_on_c, 14, 38, 0
14, 152651, Note_on_c, 14, 43, 106
14, 152891, Note_on_c, 14, 43, 0
14, 152891, Note_on_c, 14, 41, 106
14, 153101, Control_c, 14, 11, 47
14, 153103, Control_c, 14, 11, 50
14, 153105, Control_c, 14, 11, 53
14, 153108, Control_c, 14, 11, 57
14, 153111, Note_on_c, 14, 41, 0
14, 153111, Control_c, 14, 11, 61
14, 153114, Control_c, 14, 11, 65
14, 153117, Control_c, 14, 11, 69
14, 153120, Control_c, 14, 11, 73
14, 153123, Control_c, 14, 11, 77
14, 153126, Control_c, 14, 11, 81
14, 153129, Control_c, 14, 11, 85
14, 153131, Note_on_c, 14, 40, 106
14, 153151, Note_on_c, 14, 40, 0
14, 153161, Note_on_c, 14, 40, 106
14, 153181, Note_on_c, 14, 40, 0
14, 153191, Note_on_c, 14, 40, 106
14, 153211, Note_on_c, 14, 40, 0
14, 153221, Note_on_c, 14, 40, 106
14, 153241, Note_on_c, 14, 40, 0
14, 153251, Note_on_c, 14, 40, 106
14, 153311, Note_on_c, 14, 40, 0
14, 153371, Note_on_c, 14, 38, 106
14, 153391, Note_on_c, 14, 38, 0
14, 153401, Note_on_c, 14, 38, 106
14, 153421, Note_on_c, 14, 38, 0
14, 153431, Note_on_c, 14, 38, 106
14, 153451, Note_on_c, 14, 38, 0
14, 153461, Note_on_c, 14, 38, 106
14, 153481, Note_on_c, 14, 38, 0
14, 153491, Note_on_c, 14, 38, 106
14, 153551, Note_on_c, 14, 38, 0
14, 153611, Note_on_c, 14, 36, 106
14, 153631, Note_on_c, 14, 36, 0
14, 153641, Note_on_c, 14, 36, 106
14, 153661, Note_on_c, 14, 36, 0
14, 153671, Note_on_c, 14, 36, 106
14, 153691, Note_on_c, 14, 36, 0
14, 153701, Note_on_c, 14, 36, 106
14, 153721, Note_on_c, 14, 36, 0
14, 153731, Note_on_c, 14, 36, 106
14, 153791, Note_on_c, 14, 36, 0
14, 153851, Note_on_c, 14, 41, 106
14, 153901, Note_on_c, 14, 41, 0
14, 153911, Note_on_c, 14, 41, 106
14, 153961, Note_on_c, 14, 41, 0
14, 153971, Note_on_c, 14, 41, 106
14, 154021, Note_on_c, 14, 41, 0
14, 154031, Note_on_c, 14, 41, 106
14, 154081, Note_on_c, 14, 41, 0
14, 154091, Note_on_c, 14, 40, 106
14, 154111, Note_on_c, 14, 40, 0
14, 154121, Note_on_c, 14, 40, 106
14, 154141, Note_on_c, 14, 40, 0
14, 154151, Note_on_c, 14, 40, 106
14, 154171, Note_on_c, 14, 40, 0
14, 154181, Note_on_c, 14, 40, 106
14, 154201, Note_on_c, 14, 40, 0
14, 154211, Note_on_c, 14, 40, 106
14, 154271, Note_on_c, 14, 40, 0
14, 154331, Note_on_c, 14, 38, 106
14, 154351, Note_on_c, 14, 38, 0
14, 154361, Note_on_c, 14, 38, 106
14, 154381, Note_on_c, 14, 38, 0
14, 154391, Note_on_c, 14, 38, 106
14, 154411, Note_on_c, 14, 38, 0
14, 154421, Note_on_c, 14, 38, 106
14, 154441, Note_on_c, 14, 38, 0
14, 154451, Note_on_c, 14, 38, 106
14, 154511, Note_on_c, 14, 38, 0
14, 154571, Note_on_c, 14, 36, 106
14, 154591, Note_on_c, 14, 36, 0
14, 154601, Note_on_c, 14, 36, 106
14, 154621, Note_on_c, 14, 36, 0
14, 154631, Note_on_c, 14, 36, 106
14, 154651, Note_on_c, 14, 36, 0
14, 154661, Note_on_c, 14, 36, 106
14, 154681, Note_on_c, 14, 36, 0
14, 154691, Note_on_c, 14, 36, 106
14, 154751, Note_on_c, 14, 36, 0
14, 154811, Note_on_c, 14, 41, 106
14, 154851, Note_on_c, 14, 41, 0
14, 154871, Note_on_c, 14, 41, 106
14, 154911, Note_on_c, 14, 41, 0
14, 154931, Note_on_c, 14, 41, 106
14, 154971, Note_on_c, 14, 41, 0
14, 154991, Note_on_c, 14, 41, 106
14, 155031, Note_on_c, 14, 41, 0
14, 155051, Control_c, 14, 11, 107
14, 155051, Note_on_c, 14, 40, 106
14, 155069, Control_c, 14, 11, 104
14, 155087, Control_c, 14, 11, 101
14, 155105, Control_c, 14, 11, 98
14, 155123, Control_c, 14, 11, 95
14, 155141, Control_c, 14, 11, 92
14, 155159, Control_c, 14, 11, 89
14, 155221, Note_on_c, 14, 40, 0
14, 155231, Note_on_c, 14, 38, 106
14, 155281, Note_on_c, 14, 38, 0
14, 155291, Note_on_c, 14, 36, 106
14, 155341, Note_on_c, 14, 36, 0
14, 155351, Note_on_c, 14, 38, 106
14, 155401, Note_on_c, 14, 38, 0
14, 155411, Note_on_c, 14, 39, 106
14, 155461, Note_on_c, 14, 39, 0
14, 155471, Note_on_c, 14, 40, 106
14, 155521, Note_on_c, 14, 40, 0
14, 155531, Note_on_c, 14, 41, 106
14, 155531, Control_c, 14, 11, 107
14, 155549, Control_c, 14, 11, 104
14, 155567, Control_c, 14, 11, 101
14, 155585, Control_c, 14, 11, 98
14, 155603, Control_c, 14, 11, 95
14, 155621, Control_c, 14, 11, 92
14, 155639, Control_c, 14, 11, 89
14, 155701, Note_on_c, 14, 41, 0
14, 155711, Note_on_c, 14, 40, 106
14, 155761, Note_on_c, 14, 40, 0
14, 155771, Note_on_c, 14, 38, 106
14, 155821, Note_on_c, 14, 38, 0
14, 155831, Note_on_c, 14, 40, 106
14, 155881, Note_on_c, 14, 40, 0
14, 155891, Note_on_c, 14, 41, 106
14, 155941, Note_on_c, 14, 41, 0
14, 155951, Note_on_c, 14, 42, 106
14, 156001, Note_on_c, 14, 42, 0
14, 156011, Note_on_c, 14, 43, 106
14, 156011, Control_c, 14, 11, 77
14, 156030, Control_c, 14, 11, 78
14, 156041, Note_on_c, 14, 43, 0
14, 156049, Control_c, 14, 11, 79
14, 156068, Control_c, 14, 11, 80
14, 156071, Note_on_c, 14, 52, 106
14, 156087, Control_c, 14, 11, 81
14, 156101, Note_on_c, 14, 52, 0
14, 156107, Control_c, 14, 11, 82
14, 156126, Control_c, 14, 11, 83
14, 156131, Note_on_c, 14, 50, 106
14, 156145, Control_c, 14, 11, 84
14, 156161, Note_on_c, 14, 50, 0
14, 156164, Control_c, 14, 11, 85
14, 156183, Control_c, 14, 11, 86
14, 156191, Note_on_c, 14, 48, 106
14, 156203, Control_c, 14, 11, 87
14, 156221, Note_on_c, 14, 48, 0
14, 156222, Control_c, 14, 11, 88
14, 156241, Control_c, 14, 11, 89
14, 156251, Note_on_c, 14, 47, 106
14, 156260, Control_c, 14, 11, 90
14, 156279, Control_c, 14, 11, 91
14, 156281, Note_on_c, 14, 47, 0
14, 156299, Control_c, 14, 11, 92
14, 156311, Note_on_c, 14, 45, 106
14, 156318, Control_c, 14, 11, 93
14, 156337, Control_c, 14, 11, 94
14, 156341, Note_on_c, 14, 45, 0
14, 156356, Control_c, 14, 11, 95
14, 156371, Note_on_c, 14, 43, 106
14, 156375, Control_c, 14, 11, 96
14, 156395, Control_c, 14, 11, 97
14, 156401, Note_on_c, 14, 43, 0
14, 156414, Control_c, 14, 11, 98
14, 156431, Note_on_c, 14, 41, 106
14, 156433, Control_c, 14, 11, 99
14, 156452, Control_c, 14, 11, 100
14, 156461, Note_on_c, 14, 41, 0
14, 156471, Control_c, 14, 11, 101
14, 156491, Control_c, 14, 11, 102
14, 156491, Note_on_c, 14, 40, 106
14, 156551, Note_on_c, 14, 40, 0
14, 156611, Note_on_c, 14, 41, 106
14, 156671, Note_on_c, 14, 41, 0
14, 156731, Note_on_c, 14, 43, 106
14, 156791, Note_on_c, 14, 43, 0
14, 156851, Note_on_c, 14, 31, 106
14, 156911, Note_on_c, 14, 31, 0
14, 156971, Note_on_c, 14, 48, 106
14, 156971, Control_c, 14, 11, 87
14, 156974, Control_c, 14, 11, 84
14, 156978, Control_c, 14, 11, 81
14, 156981, Control_c, 14, 11, 78
14, 156985, Control_c, 14, 11, 75
14, 156989, Control_c, 14, 11, 72
14, 156992, Control_c, 14, 11, 69
14, 156996, Control_c, 14, 11, 66
14, 156999, Control_c, 14, 11, 63
14, 157003, Control_c, 14, 11, 60
14, 157007, Control_c, 14, 11, 57
14, 157010, Control_c, 14, 11, 54
14, 157014, Control_c, 14, 11, 51
14, 157017, Control_c, 14, 11, 48
14, 157021, Control_c, 14, 11, 45
14, 157025, Control_c, 14, 11, 42
14, 157028, Control_c, 14, 11, 39
14, 157261, Note_on_c, 14, 48, 0
14, 157271, Note_on_c, 14, 46, 106
14, 157331, Note_on_c, 14, 46, 0
14, 157331, Note_on_c, 14, 44, 106
14, 157391, Note_on_c, 14, 44, 0
14, 157391, Note_on_c, 14, 43, 106
14, 157441, Note_on_c, 14, 43, 0
14, 157451, Note_on_c, 14, 41, 106
14, 157741, Note_on_c, 14, 41, 0
14, 157751, Note_on_c, 14, 39, 106
14, 157811, Note_on_c, 14, 39, 0
14, 157811, Note_on_c, 14, 38, 106
14, 157871, Note_on_c, 14, 38, 0
14, 157871, Note_on_c, 14, 36, 106
14, 157921, Note_on_c, 14, 36, 0
14, 157931, Note_on_c, 14, 34, 106
14, 158221, Note_on_c, 14, 34, 0
14, 158231, Note_on_c, 14, 36, 106
14, 158291, Note_on_c, 14, 36, 0
14, 158291, Note_on_c, 14, 37, 106
14, 158351, Note_on_c, 14, 37, 0
14, 158351, Note_on_c, 14, 38, 106
14, 158401, Note_on_c, 14, 38, 0
14, 158411, Note_on_c, 14, 39, 106
14, 158701, Note_on_c, 14, 39, 0
14, 158711, Note_on_c, 14, 41, 106
14, 158771, Note_on_c, 14, 41, 0
14, 158771, Note_on_c, 14, 42, 106
14, 158831, Note_on_c, 14, 42, 0
14, 158831, Note_on_c, 14, 43, 106
14, 158881, Note_on_c, 14, 43, 0
14, 158891, Note_on_c, 14, 44, 106
14, 158951, Note_on_c, 14, 44, 0
14, 158951, Note_on_c, 14, 43, 106
14, 159001, Note_on_c, 14, 43, 0
14, 159011, Note_on_c, 14, 44, 106
14, 159041, Note_on_c, 14, 44, 0
14, 159071, Note_on_c, 14, 45, 106
14, 159101, Note_on_c, 14, 45, 0
14, 159131, Note_on_c, 14, 46, 106
14, 159191, Note_on_c, 14, 46, 0
14, 159191, Note_on_c, 14, 45, 106
14, 159241, Note_on_c, 14, 45, 0
14, 159251, Note_on_c, 14, 46, 106
14, 159281, Note_on_c, 14, 46, 0
14, 159311, Note_on_c, 14, 46, 106
14, 159341, Note_on_c, 14, 46, 0
14, 159371, Note_on_c, 14, 47, 106
14, 159661, Note_on_c, 14, 47, 0
14, 159671, Note_on_c, 14, 43, 106
14, 159731, Note_on_c, 14, 43, 0
14, 159731, Note_on_c, 14, 45, 106
14, 159791, Note_on_c, 14, 45, 0
14, 159791, Note_on_c, 14, 47, 106
14, 159841, Note_on_c, 14, 47, 0
14, 159851, Note_on_c, 14, 48, 106
14, 160141, Note_on_c, 14, 48, 0
14, 160151, Note_on_c, 14, 36, 106
14, 160211, Note_on_c, 14, 36, 0
14, 160211, Note_on_c, 14, 38, 106
14, 160271, Note_on_c, 14, 38, 0
14, 160271, Note_on_c, 14, 39, 106
14, 160321, Note_on_c, 14, 39, 0
14, 160331, Note_on_c, 14, 41, 106
14, 160391, Note_on_c, 14, 41, 0
14, 160391, Note_on_c, 14, 40, 106
14, 160441, Note_on_c, 14, 40, 0
14, 160451, Note_on_c, 14, 41, 106
14, 160481, Note_on_c, 14, 41, 0
14, 160511, Note_on_c, 14, 41, 106
14, 160541, Note_on_c, 14, 41, 0
14, 160571, Note_on_c, 14, 42, 106
14, 160631, Note_on_c, 14, 42, 0
14, 160631, Note_on_c, 14, 41, 106
14, 160681, Note_on_c, 14, 41, 0
14, 160691, Note_on_c, 14, 42, 106
14, 160721, Note_on_c, 14, 42, 0
14, 160751, Note_on_c, 14, 42, 106
14, 160781, Note_on_c, 14, 42, 0
14, 160811, Note_on_c, 14, 43, 106
14, 160931, Control_c, 14, 11, 37
14, 160957, Control_c, 14, 11, 38
14, 160983, Control_c, 14, 11, 39
14, 161010, Control_c, 14, 11, 40
14, 161036, Control_c, 14, 11, 41
14, 161063, Control_c, 14, 11, 42
14, 161089, Control_c, 14, 11, 43
14, 161101, Note_on_c, 14, 43, 0
14, 161111, Note_on_c, 14, 42, 106
14, 161115, Control_c, 14, 11, 44
14, 161142, Control_c, 14, 11, 45
14, 161168, Control_c, 14, 11, 46
14, 161171, Note_on_c, 14, 42, 0
14, 161171, Note_on_c, 14, 43, 106
14, 161195, Control_c, 14, 11, 47
14, 161221, Control_c, 14, 11, 48
14, 161231, Note_on_c, 14, 43, 0
14, 161231, Note_on_c, 14, 44, 106
14, 161247, Control_c, 14, 11, 49
14, 161274, Control_c, 14, 11, 50
14, 161281, Note_on_c, 14, 44, 0
14, 161291, Note_on_c, 14, 45, 106
14, 161300, Control_c, 14, 11, 51
14, 161327, Control_c, 14, 11, 52
14, 161353, Control_c, 14, 11, 53
14, 161379, Control_c, 14, 11, 54
14, 161406, Control_c, 14, 11, 55
14, 161432, Control_c, 14, 11, 56
14, 161459, Control_c, 14, 11, 57
14, 161485, Control_c, 14, 11, 58
14, 161511, Control_c, 14, 11, 59
14, 161538, Control_c, 14, 11, 60
14, 161564, Control_c, 14, 11, 61
14, 161581, Note_on_c, 14, 45, 0
14, 161591, Control_c, 14, 11, 62
14, 161591, Note_on_c, 14, 43, 106
14, 161617, Control_c, 14, 11, 63
14, 161643, Control_c, 14, 11, 64
14, 161651, Note_on_c, 14, 43, 0
14, 161651, Note_on_c, 14, 41, 106
14, 161670, Control_c, 14, 11, 65
14, 161696, Control_c, 14, 11, 66
14, 161711, Note_on_c, 14, 41, 0
14, 161711, Note_on_c, 14, 40, 106
14, 161723, Control_c, 14, 11, 67
14, 161749, Control_c, 14, 11, 68
14, 161761, Note_on_c, 14, 40, 0
14, 161771, Note_on_c, 14, 41, 106
14, 161775, Control_c, 14, 11, 69
14, 161802, Control_c, 14, 11, 70
14, 161828, Control_c, 14, 11, 71
14, 161831, Note_on_c, 14, 41, 0
14, 161831, Note_on_c, 14, 40, 106
14, 161855, Control_c, 14, 11, 72
14, 161881, Control_c, 14, 11, 73
14, 161891, Note_on_c, 14, 40, 0
14, 161891, Note_on_c, 14, 41, 106
14, 161907, Control_c, 14, 11, 74
14, 161934, Control_c, 14, 11, 75
14, 161951, Note_on_c, 14, 41, 0
14, 161951, Note_on_c, 14, 42, 106
14, 161960, Control_c, 14, 11, 76
14, 161987, Control_c, 14, 11, 77
14, 162001, Note_on_c, 14, 42, 0
14, 162011, Note_on_c, 14, 43, 106
14, 162013, Control_c, 14, 11, 78
14, 162039, Control_c, 14, 11, 79
14, 162066, Control_c, 14, 11, 80
14, 162071, Note_on_c, 14, 43, 0
14, 162071, Note_on_c, 14, 42, 106
14, 162092, Control_c, 14, 11, 81
14, 162119, Control_c, 14, 11, 82
14, 162131, Note_on_c, 14, 42, 0
14, 162131, Note_on_c, 14, 43, 106
14, 162145, Control_c, 14, 11, 83
14, 162171, Control_c, 14, 11, 84
14, 162191, Note_on_c, 14, 43, 0
14, 162191, Note_on_c, 14, 31, 106
14, 162198, Control_c, 14, 11, 85
14, 162224, Control_c, 14, 11, 86
14, 162241, Note_on_c, 14, 31, 0
14, 162251, Note_on_c, 14, 36, 106
14, 162251, Control_c, 14, 11, 87
14, 162311, Note_on_c, 14, 36, 0
14, 162371, Note_on_c, 14, 31, 106
14, 162461, Note_on_c, 14, 31, 0
14, 162461, Note_on_c, 14, 35, 106
14, 162481, Note_on_c, 14, 35, 0
14, 162491, Note_on_c, 14, 36, 106
14, 162491, Control_c, 14, 11, 107
14, 162509, Control_c, 14, 11, 104
14, 162527, Control_c, 14, 11, 101
14, 162545, Control_c, 14, 11, 98
14, 162563, Control_c, 14, 11, 95
14, 162581, Control_c, 14, 11, 92
14, 162599, Control_c, 14, 11, 89
14, 162841, Note_on_c, 14, 36, 0
14, 162851, Note_on_c, 14, 31, 106
14, 162941, Note_on_c, 14, 31, 0
14, 162941, Note_on_c, 14, 35, 106
14, 162961, Note_on_c, 14, 35, 0
14, 162971, Note_on_c, 14, 36, 106
14, 162971, Control_c, 14, 11, 107
14, 162989, Control_c, 14, 11, 104
14, 163007, Control_c, 14, 11, 101
14, 163025, Control_c, 14, 11, 98
14, 163043, Control_c, 14, 11, 95
14, 163061, Control_c, 14, 11, 92
14, 163079, Control_c, 14, 11, 89
14, 163331, Note_on_c, 14, 36, 0
14, 163451, Note_on_c, 14, 43, 106
14, 163451, Control_c, 14, 11, 107
14, 163469, Control_c, 14, 11, 104
14, 163487, Control_c, 14, 11, 101
14, 163505, Control_c, 14, 11, 98
14, 163523, Control_c, 14, 11, 95
14, 163541, Control_c, 14, 11, 92
14, 163559, Control_c, 14, 11, 89
14, 163571, Note_on_c, 14, 43, 0
14, 163691, Control_c, 14, 11, 107
14, 163691, Note_on_c, 14, 48, 106
14, 163709, Control_c, 14, 11, 104
14, 163727, Control_c, 14, 11, 101
14, 163745, Control_c, 14, 11, 98
14, 163763, Control_c, 14, 11, 95
14, 163781, Control_c, 14, 11, 92
14, 163799, Control_c, 14, 11, 89
14, 163811, Note_on_c, 14, 48, 0
14, 163931, Note_on_c, 14, 50, 106
14, 163931, Control_c, 14, 11, 107
14, 163949, Control_c, 14, 11, 104
14, 163967, Control_c, 14, 11, 101
14, 163985, Control_c, 14, 11, 98
14, 164003, Control_c, 14, 11, 95
14, 164021, Control_c, 14, 11, 92
14, 164039, Control_c, 14, 11, 89
14, 164051, Note_on_c, 14, 50, 0
14, 164171, Note_on_c, 14, 40, 106
14, 164231, Note_on_c, 14, 40, 0
14, 164291, Note_on_c, 14, 43, 106
14, 164351, Note_on_c, 14, 43, 0
14, 164411, Note_on_c, 14, 48, 106
14, 164471, Note_on_c, 14, 48, 0
14, 164531, Note_on_c, 14, 52, 106
14, 164591, Note_on_c, 14, 52, 0
14, 164651, Note_on_c, 14, 38, 106
14, 164711, Note_on_c, 14, 38, 0
14, 164771, Note_on_c, 14, 41, 106
14, 164831, Note_on_c, 14, 41, 0
14, 164891, Note_on_c, 14, 47, 106
14, 164951, Note_on_c, 14, 47, 0
14, 165011, Note_on_c, 14, 50, 106
14, 165071, Note_on_c, 14, 50, 0
14, 165131, Note_on_c, 14, 37, 106
14, 165131, Control_c, 14, 11, 102
14, 165191, Note_on_c, 14, 37, 0
14, 165251, Note_on_c, 14, 40, 106
14, 165311, Note_on_c, 14, 40, 0
14, 165371, Note_on_c, 14, 45, 106
14, 165431, Note_on_c, 14, 45, 0
14, 165491, Note_on_c, 14, 49, 106
14, 165551, Note_on_c, 14, 49, 0
14, 165611, Note_on_c, 14, 43, 106
14, 165671, Note_on_c, 14, 43, 0
14, 165731, Note_on_c, 14, 55, 106
14, 165791, Note_on_c, 14, 55, 0
14, 165851, Note_on_c, 14, 55, 106
14, 165911, Note_on_c, 14, 55, 0
14, 165971, Note_on_c, 14, 55, 106
14, 166031, Note_on_c, 14, 55, 0
14, 166091, Note_on_c, 14, 41, 106
14, 166151, Note_on_c, 14, 41, 0
14, 166211, Note_on_c, 14, 45, 106
14, 166271, Note_on_c, 14, 45, 0
14, 166331, Note_on_c, 14, 50, 106
14, 166391, Note_on_c, 14, 50, 0
14, 166451, Note_on_c, 14, 53, 106
14, 166511, Note_on_c, 14, 53, 0
14, 166571, Note_on_c, 14, 42, 106
14, 166631, Note_on_c, 14, 42, 0
14, 166691, Note_on_c, 14, 48, 106
14, 166751, Note_on_c, 14, 48, 0
14, 166811, Note_on_c, 14, 45, 106
14, 166871, Note_on_c, 14, 45, 0
14, 166931, Note_on_c, 14, 42, 106
14, 166991, Note_on_c, 14, 42, 0
14, 167051, Control_c, 14, 11, 122
14, 167051, Note_on_c, 14, 43, 106
14, 167068, Control_c, 14, 11, 119
14, 167086, Control_c, 14, 11, 116
14, 167101, Note_on_c, 14, 43, 0
14, 167104, Control_c, 14, 11, 113
14, 167111, Note_on_c, 14, 43, 106
14, 167122, Control_c, 14, 11, 110
14, 167140, Control_c, 14, 11, 107
14, 167158, Control_c, 14, 11, 104
14, 167161, Note_on_c, 14, 43, 0
14, 167171, Note_on_c, 14, 43, 106
14, 167221, Note_on_c, 14, 43, 0
14, 167231, Note_on_c, 14, 43, 106
14, 167281, Note_on_c, 14, 43, 0
14, 167291, Control_c, 14, 11, 122
14, 167291, Note_on_c, 14, 45, 106
14, 167308, Control_c, 14, 11, 119
14, 167326, Control_c, 14, 11, 116
14, 167341, Note_on_c, 14, 45, 0
14, 167344, Control_c, 14, 11, 113
14, 167351, Note_on_c, 14, 45, 106
14, 167362, Control_c, 14, 11, 110
14, 167380, Control_c, 14, 11, 107
14, 167398, Control_c, 14, 11, 104
14, 167401, Note_on_c, 14, 45, 0
14, 167411, Note_on_c, 14, 45, 106
14, 167461, Note_on_c, 14, 45, 0
14, 167471, Note_on_c, 14, 45, 106
14, 167521, Note_on_c, 14, 45, 0
14, 167531, Control_c, 14, 11, 122
14, 167531, Note_on_c, 14, 41, 106
14, 167548, Control_c, 14, 11, 119
14, 167566, Control_c, 14, 11, 116
14, 167581, Note_on_c, 14, 41, 0
14, 167584, Control_c, 14, 11, 113
14, 167591, Note_on_c, 14, 41, 106
14, 167602, Control_c, 14, 11, 110
14, 167620, Control_c, 14, 11, 107
14, 167638, Control_c, 14, 11, 104
14, 167641, Note_on_c, 14, 41, 0
14, 167651, Note_on_c, 14, 41, 106
14, 167701, Note_on_c, 14, 41, 0
14, 167711, Note_on_c, 14, 41, 106
14, 167761, Note_on_c, 14, 41, 0
14, 167771, Note_on_c, 14, 43, 106
14, 167771, Control_c, 14, 11, 122
14, 167788, Control_c, 14, 11, 119
14, 167806, Control_c, 14, 11, 116
14, 167821, Note_on_c, 14, 43, 0
14, 167824, Control_c, 14, 11, 113
14, 167831, Note_on_c, 14, 43, 106
14, 167842, Control_c, 14, 11, 110
14, 167860, Control_c, 14, 11, 107
14, 167878, Control_c, 14, 11, 104
14, 167881, Note_on_c, 14, 43, 0
14, 167891, Note_on_c, 14, 43, 106
14, 167941, Note_on_c, 14, 43, 0
14, 167951, Note_on_c, 14, 43, 106
14, 168001, Note_on_c, 14, 43, 0
14, 168011, Note_on_c, 14, 36, 106
14, 168131, Note_on_c, 14, 36, 0
14, 168851, Control_c, 14, 11, 70
14, 168851, Note_on_c, 14, 31, 106
14, 168857, Control_c, 14, 11, 73
14, 168863, Control_c, 14, 11, 76
14, 168869, Control_c, 14, 11, 79
14, 168883, Control_c, 14, 11, 76
14, 168892, Control_c, 14, 11, 73
14, 168901, Control_c, 14, 11, 70
14, 168910, Control_c, 14, 11, 67
14, 168919, Control_c, 14, 11, 64
14, 168928, Control_c, 14, 11, 61
14, 168937, Control_c, 14, 11, 58
14, 168946, Control_c, 14, 11, 55
14, 168955, Control_c, 14, 11, 52
14, 168964, Control_c, 14, 11, 49
14, 168971, Note_on_c, 14, 31, 0
14, 168971, Note_on_c, 14, 36, 106
14, 169091, Note_on_c, 14, 36, 0
14, 169811, Control_c, 14, 11, 70
14, 169811, Note_on_c, 14, 31, 106
14, 169817, Control_c, 14, 11, 73
14, 169823, Control_c, 14, 11, 76
14, 169829, Control_c, 14, 11, 79
14, 169843, Control_c, 14, 11, 76
14, 169852, Control_c, 14, 11, 73
14, 169861, Control_c, 14, 11, 70
14, 169870, Control_c, 14, 11, 67
14, 169879, Control_c, 14, 11, 64
14, 169888, Control_c, 14, 11, 61
14, 169897, Control_c, 14, 11, 58
14, 169906, Control_c, 14, 11, 55
14, 169915, Control_c, 14, 11, 52
14, 169924, Control_c, 14, 11, 49
14, 169931, Note_on_c, 14, 31, 0
14, 169931, Note_on_c, 14, 36, 106
14, 170051, Note_on_c, 14, 36, 0
14, 170291, Control_c, 14, 11, 70
14, 170291, Note_on_c, 14, 31, 106
14, 170299, Control_c, 14, 11, 73
14, 170308, Control_c, 14, 11, 76
14, 170317, Control_c, 14, 11, 79
14, 170323, Control_c, 14, 11, 76
14, 170332, Control_c, 14, 11, 73
14, 170341, Control_c, 14, 11, 70
14, 170350, Control_c, 14, 11, 67
14, 170359, Control_c, 14, 11, 64
14, 170368, Control_c, 14, 11, 61
14, 170377, Control_c, 14, 11, 58
14, 170386, Control_c, 14, 11, 55
14, 170395, Control_c, 14, 11, 52
14, 170404, Control_c, 14, 11, 49
14, 170411, Note_on_c, 14, 31, 0
14, 170411, Note_on_c, 14, 36, 106
14, 170531, Note_on_c, 14, 36, 0
14, 170771, Note_on_c, 14, 31, 106
14, 170771, Control_c, 14, 11, 122
14, 170831, Note_on_c, 14, 31, 0
14, 170891, Note_on_c, 14, 36, 86
14, 170951, Note_on_c, 14, 36, 0
14, 171851, Control_c, 14, 11, 47
14, 171851, Note_on_c, 14, 48, 91
14, 171971, Note_on_c, 14, 48, 0
14, 172931, Note_on_c, 14, 36, 106
14, 173021, Note_on_c, 14, 36, 0
14, 173021, Note_on_c, 14, 40, 106
14, 173041, Note_on_c, 14, 40, 0
14, 173051, Note_on_c, 14, 41, 91
14, 173111, Note_on_c, 14, 41, 0
14, 173771, Note_on_c, 14, 33, 91
14, 173891, Note_on_c, 14, 33, 0
14, 174851, Note_on_c, 14, 33, 106
14, 174941, Note_on_c, 14, 33, 0
14, 174941, Note_on_c, 14, 37, 106
14, 174961, Note_on_c, 14, 37, 0
14, 174971, Note_on_c, 14, 38, 91
14, 175031, Note_on_c, 14, 38, 0
14, 175691, Note_on_c, 14, 31, 106
14, 175811, Note_on_c, 14, 31, 0
14, 176651, Control_c, 14, 11, 102
14, 176651, Note_on_c, 14, 36, 106
14, 176711, Note_on_c, 14, 36, 0
14, 176771, Note_on_c, 14, 36, 106
14, 176831, Note_on_c, 14, 36, 0
14, 177011, Note_on_c, 14, 41, 106
14, 177071, Note_on_c, 14, 41, 0
14, 177251, Note_on_c, 14, 43, 106
14, 177311, Note_on_c, 14, 43, 0
14, 177491, Note_on_c, 14, 44, 106
14, 177551, Note_on_c, 14, 44, 0
14, 177731, Note_on_c, 14, 45, 106
14, 177791, Note_on_c, 14, 45, 0
14, 177971, Note_on_c, 14, 41, 106
14, 178031, Note_on_c, 14, 41, 0
14, 178211, Note_on_c, 14, 43, 106
14, 178271, Note_on_c, 14, 43, 0
14, 178451, Note_on_c, 14, 44, 106
14, 178511, Note_on_c, 14, 44, 0
14, 178691, Note_on_c, 14, 45, 106
14, 178751, Note_on_c, 14, 45, 0
14, 178931, Note_on_c, 14, 41, 106
14, 178991, Note_on_c, 14, 41, 0
14, 179171, Note_on_c, 14, 43, 106
14, 179231, Note_on_c, 14, 43, 0
14, 179411, Note_on_c, 14, 31, 106
14, 179471, Note_on_c, 14, 31, 0
14, 179531, Note_on_c, 14, 36, 116
14, 179881, Note_on_c, 14, 36, 0
14, 179891, Note_on_c, 14, 31, 127
14, 179981, Note_on_c, 14, 31, 0
14, 179981, Note_on_c, 14, 35, 127
14, 180001, Note_on_c, 14, 35, 0
14, 180011, Note_on_c, 14, 36, 127
14, 180041, Note_on_c, 14, 36, 0
14, 180071, Note_on_c, 14, 36, 127
14, 180101, Note_on_c, 14, 36, 0
14, 180131, Note_on_c, 14, 31, 127
14, 180161, Note_on_c, 14, 31, 0
14, 180191, Note_on_c, 14, 35, 127
14, 180221, Note_on_c, 14, 35, 0
14, 180251, Note_on_c, 14, 36, 127
14, 180281, Note_on_c, 14, 36, 0
14, 180311, Note_on_c, 14, 36, 127
14, 180341, Note_on_c, 14, 36, 0
14, 180371, Note_on_c, 14, 31, 127
14, 180401, Note_on_c, 14, 31, 0
14, 180431, Note_on_c, 14, 35, 127
14, 180461, Note_on_c, 14, 35, 0
14, 180491, Note_on_c, 14, 36, 127
14, 180611, Note_on_c, 14, 36, 0
14, 181091, Note_on_c, 14, 48, 116
14, 181151, Note_on_c, 14, 48, 0
14, 181211, Note_on_c, 14, 43, 116
14, 181271, Note_on_c, 14, 43, 0
14, 181331, Note_on_c, 14, 40, 116
14, 181391, Note_on_c, 14, 40, 0
14, 181451, Control_c, 14, 11, 122
14, 181451, Note_on_c, 14, 36, 116
14, 181469, Control_c, 14, 11, 119
14, 181487, Control_c, 14, 11, 116
14, 181505, Control_c, 14, 11, 113
14, 181523, Control_c, 14, 11, 110
14, 181541, Control_c, 14, 11, 107
14, 181559, Control_c, 14, 11, 104
14, 181801, Note_on_c, 14, 36, 0
14, 181811, Note_on_c, 14, 31, 127
14, 181901, Note_on_c, 14, 31, 0
14, 181901, Note_on_c, 14, 35, 127
14, 181921, Note_on_c, 14, 35, 0
14, 181931, Note_on_c, 14, 36, 127
14, 181961, Note_on_c, 14, 36, 0
14, 181991, Note_on_c, 14, 36, 127
14, 182021, Note_on_c, 14, 36, 0
14, 182051, Note_on_c, 14, 31, 127
14, 182081, Note_on_c, 14, 31, 0
14, 182111, Note_on_c, 14, 35, 127
14, 182141, Note_on_c, 14, 35, 0
14, 182171, Note_on_c, 14, 36, 127
14, 182201, Note_on_c, 14, 36, 0
14, 182231, Note_on_c, 14, 36, 127
14, 182261, Note_on_c, 14, 36, 0
14, 182291, Note_on_c, 14, 31, 127
14, 182321, Note_on_c, 14, 31, 0
14, 182351, Note_on_c, 14, 35, 127
14, 182381, Note_on_c, 14, 35, 0
14, 182411, Note_on_c, 14, 36, 127
14, 182531, Note_on_c, 14, 36, 0
14, 183011, Note_on_c, 14, 48, 116
14, 183071, Note_on_c, 14, 48, 0
14, 183131, Note_on_c, 14, 43, 116
14, 183191, Note_on_c, 14, 43, 0
14, 183251, Note_on_c, 14, 40, 116
14, 183311, Note_on_c, 14, 40, 0
14, 183371, Note_on_c, 14, 36, 116
14, 183371, Control_c, 14, 11, 122
14, 183389, Control_c, 14, 11, 119
14, 183407, Control_c, 14, 11, 116
14, 183425, Control_c, 14, 11, 113
14, 183443, Control_c, 14, 11, 110
14, 183461, Control_c, 14, 11, 107
14, 183479, Control_c, 14, 11, 104
14, 183721, Note_on_c, 14, 36, 0
14, 183731, Note_on_c, 14, 31, 127
14, 183821, Note_on_c, 14, 31, 0
14, 183821, Note_on_c, 14, 35, 127
14, 183841, Note_on_c, 14, 35, 0
14, 183851, Note_on_c, 14, 36, 127
14, 183881, Note_on_c, 14, 36, 0
14, 183911, Note_on_c, 14, 36, 127
14, 183941, Note_on_c, 14, 36, 0
14, 183971, Note_on_c, 14, 31, 127
14, 184001, Note_on_c, 14, 31, 0
14, 184031, Note_on_c, 14, 35, 127
14, 184061, Note_on_c, 14, 35, 0
14, 184091, Note_on_c, 14, 36, 127
14, 184121, Note_on_c, 14, 36, 0
14, 184151, Note_on_c, 14, 36, 127
14, 184181, Note_on_c, 14, 36, 0
14, 184211, Note_on_c, 14, 31, 127
14, 184241, Note_on_c, 14, 31, 0
14, 184271, Note_on_c, 14, 35, 127
14, 184301, Note_on_c, 14, 35, 0
14, 184331, Note_on_c, 14, 36, 127
14, 184451, Note_on_c, 14, 36, 0
14, 184931, Note_on_c, 14, 43, 116
14, 184991, Note_on_c, 14, 43, 0
14, 185051, Note_on_c, 14, 48, 116
14, 185111, Note_on_c, 14, 48, 0
14, 185171, Note_on_c, 14, 52, 116
14, 185231, Note_on_c, 14, 52, 0
14, 185291, Note_on_c, 14, 55, 116
14, 185351, Note_on_c, 14, 55, 0
14, 185411, Note_on_c, 14, 52, 116
14, 185471, Note_on_c, 14, 52, 0
14, 185531, Note_on_c, 14, 48, 116
14, 185591, Note_on_c, 14, 48, 0
14, 185651, Note_on_c, 14, 43, 116
14, 185711, Note_on_c, 14, 43, 0
14, 185771, Note_on_c, 14, 52, 116
14, 185831, Note_on_c, 14, 52, 0
14, 185891, Note_on_c, 14, 48, 116
14, 185951, Note_on_c, 14, 48, 0
14, 186011, Note_on_c, 14, 43, 116
14, 186071, Note_on_c, 14, 43, 0
14, 186131, Note_on_c, 14, 40, 116
14, 186191, Note_on_c, 14, 40, 0
14, 186251, Note_on_c, 14, 48, 116
14, 186311, Note_on_c, 14, 48, 0
14, 186371, Note_on_c, 14, 43, 116
14, 186431, Note_on_c, 14, 43, 0
14, 186491, Note_on_c, 14, 40, 116
14, 186551, Note_on_c, 14, 40, 0
14, 186611, Note_on_c, 14, 36, 116
14, 186671, Note_on_c, 14, 36, 0
14, 186731, Note_on_c, 14, 31, 116
14, 186791, Note_on_c, 14, 31, 0
14, 186851, Note_on_c, 14, 36, 116
14, 186911, Note_on_c, 14, 36, 0
14, 186971, Note_on_c, 14, 31, 116
14, 187031, Note_on_c, 14, 31, 0
14, 187091, Note_on_c, 14, 28, 116
14, 187151, Note_on_c, 14, 28, 0
14, 187211, Note_on_c, 14, 24, 121
14, 187331, Note_on_c, 14, 24, 0
14, 187691, Note_on_c, 14, 36, 106
14, 187811, Note_on_c, 14, 36, 0
14, 188171, Note_on_c, 14, 36, 106
14, 188291, Note_on_c, 14, 36, 0
14, 188651, Control_c, 14, 11, 112
14, 188651, Note_on_c, 14, 24, 106
14, 188651, Note_on_c, 14, 36, 106
14, 188663, Control_c, 14, 11, 109
14, 188675, Control_c, 14, 11, 106
14, 188687, Control_c, 14, 11, 103
14, 188771, Note_on_c, 14, 36, 0
14, 188771, Note_on_c, 14, 24, 0
14, 188891, Note_on_c, 14, 24, 106
14, 188891, Note_on_c, 14, 36, 106
14, 188891, Control_c, 14, 11, 112
14, 188903, Control_c, 14, 11, 109
14, 188915, Control_c, 14, 11, 106
14, 188927, Control_c, 14, 11, 103
14, 189011, Note_on_c, 14, 36, 0
14, 189011, Note_on_c, 14, 24, 0
14, 189131, Control_c, 14, 11, 112
14, 189131, Note_on_c, 14, 36, 106
14, 189131, Note_on_c, 14, 24, 106
14, 189143, Control_c, 14, 11, 109
14, 189155, Control_c, 14, 11, 106
14, 189167, Control_c, 14, 11, 103
14, 189231, Control_c, 14, 11, 102
14, 189233, Control_c, 14, 11, 98
14, 189235, Control_c, 14, 11, 94
14, 189237, Control_c, 14, 11, 90
14, 189239, Control_c, 14, 11, 87
14, 189241, Control_c, 14, 11, 83
14, 189243, Control_c, 14, 11, 79
14, 189245, Control_c, 14, 11, 76
14, 189247, Control_c, 14, 11, 72
14, 189249, Control_c, 14, 11, 68
14, 189251, Note_on_c, 14, 24, 0
14, 189251, Note_on_c, 14, 36, 0
14, 189611, Control_c, 14, 121, 0
14, 189611, End_track
15, 0, Start_track
15, 0, MIDI_port, 0
15, 0, Title_t, "Sequ. by J.F.Lucarelli"
15, 0, End_track
16, 0, Start_track
16, 0, MIDI_port, 0
16, 0, Title_t, "j-f.lucarelli@infonie.be  --  http://perso.infonie.fr/espace-midi"
16, 0, End_track
17, 0, Start_track
17, 0, MIDI_port, 0
17, 0, Title_t, "Optimized for AWE 64  + 8 MB memory"
17, 0, End_track
18, 0, Start_track
18, 0, MIDI_port, 0
18, 0, Title_t, "\251 Juni 2001"
18, 0, End_track
19, 0, Start_track
19, 0, MIDI_port, 0
19, 0, Title_t, "Beethoven - Symphony no 1 in C - Adagio molto - Allegro con brio"
19, 0, End_track
0, 0, End_of_file