0, 0, Header, 1, 19, 480
1, 0, Start_track
1, 0, Key_signature, -3, "major"
1, 0, Time_signature, 3, 2, 24, 8
1, 0, SMPTE_offset, 32, 0, 0, 0, 0
1, 0, Tempo, 200000
1, 7680, Key_signature, -1, "major"
1, 7800, Tempo, 666666
1, 8160, Tempo, 200000
1, 25920, Tempo, 230769
1, 28800, Tempo, 200000
1, 30720, Tempo, 666666
1, 30960, Tempo, 200000
1, 36600, Tempo, 666666
1, 36960, Tempo, 200000
1, 54720, Tempo, 230769
1, 57600, Tempo, 200000
1, 59520, Tempo, 500000
1, 60000, Tempo, 200000
1, 111360, Tempo, 400000
1, 111840, Tempo, 200000
1, 155520, Tempo, 230769
1, 158400, Tempo, 200000
1, 160320, Tempo, 500000
1, 160800, Tempo, 200000
1, 212160, Tempo, 400000
1, 212640, Tempo, 200000
1, 256320, Tempo, 230769
1, 259200, Tempo, 200000
1, 261240, Tempo, 500000
1, 261600, Marker_t, "Trio    "
1, 261600, Tempo, 230769
1, 281820, Tempo, 233037
1, 281880, Tempo, 235351
1, 281940, Tempo, 237711
1, 282000, Tempo, 240120
1, 282060, Tempo, 242577
1, 282120, Tempo, 245085
1, 282180, Tempo, 247646
1, 282240, Tempo, 250260
1, 282300, Tempo, 252931
1, 282360, Tempo, 255659
1, 282420, Tempo, 258446
1, 282480, Tempo, 261295
1, 282540, Tempo, 264208
1, 282600, Tempo, 267186
1, 282660, Tempo, 270232
1, 282720, Tempo, 273348
1, 282780, Tempo, 276537
1, 282840, Tempo, 279801
1, 282900, Tempo, 283144
1, 282960, Tempo, 286567
1, 283020, Tempo, 290073
1, 283080, Tempo, 293667
1, 283140, Tempo, 297351
1, 283200, Tempo, 301129
1, 283260, Tempo, 305003
1, 283320, Tempo, 308979
1, 283380, Tempo, 313060
1, 283440, Tempo, 317250
1, 283500, Tempo, 321554
1, 283560, Tempo, 327756
1, 283620, Tempo, 333333
1, 284640, Tempo, 230769
1, 383040, Marker_t, "Tempo I "
1, 383040, Tempo, 200000
1, 393720, Tempo, 666666
1, 394080, Tempo, 200000
1, 411840, Tempo, 230769
1, 414720, Tempo, 200000
1, 416640, Tempo, 666666
1, 416880, Tempo, 200000
1, 468480, Tempo, 400000
1, 468960, Tempo, 200000
1, 512640, Tempo, 230769
1, 515520, Tempo, 200000
1, 517680, Tempo, 666666
1, 517920, Marker_t, "Trio    "
1, 517920, Tempo, 230769
1, 538140, Tempo, 233037
1, 538200, Tempo, 235351
1, 538260, Tempo, 237711
1, 538320, Tempo, 240120
1, 538380, Tempo, 242577
1, 538440, Tempo, 245085
1, 538500, Tempo, 247646
1, 538560, Tempo, 250260
1, 538620, Tempo, 252931
1, 538680, Tempo, 255659
1, 538740, Tempo, 258446
1, 538800, Tempo, 261295
1, 538860, Tempo, 264208
1, 538920, Tempo, 267186
1, 538980, Tempo, 270232
1, 539040, Tempo, 273348
1, 539100, Tempo, 276537
1, 539160, Tempo, 279801
1, 539220, Tempo, 283144
1, 539280, Tempo, 286567
1, 539340, Tempo, 290073
1, 539400, Tempo, 293667
1, 539460, Tempo, 297351
1, 539520, Tempo, 301129
1, 539580, Tempo, 305003
1, 539640, Tempo, 308979
1, 539700, Tempo, 313060
1, 539760, Tempo, 317250
1, 539820, Tempo, 321554
1, 539880, Tempo, 327756
1, 539940, Tempo, 333333
1, 540960, Tempo, 230769
1, 639360, Marker_t, "Tempo I "
1, 639360, Tempo, 200000
1, 649920, Tempo, 400000
1, 650400, Tempo, 200000
1, 694080, Tempo, 230769
1, 696960, Tempo, 200000
1, 698880, Tempo, 230769
1, 699840, Tempo, 260869
1, 701280, Tempo, 750000
1, 702720, Tempo, 200000
1, 702720, End_track
2, 0, Start_track
2, 0, Channel_prefix, 0
2, 0, Title_t, "Flute   "
2, 0, Instrument_name_t, "Flauti  "
2, 2400, Note_on_c, 0, 77, 110
2, 2880, Note_on_c, 0, 82, 110
2, 2910, Note_on_c, 0, 77, 0
2, 3090, Note_on_c, 0, 82, 0
2, 3360, Note_on_c, 0, 82, 110
2, 4050, Note_on_c, 0, 82, 0
2, 4320, Note_on_c, 0, 82, 110
2, 4950, Note_on_c, 0, 82, 0
2, 5280, Note_on_c, 0, 82, 110
2, 5490, Note_on_c, 0, 82, 0
2, 5760, Note_on_c, 0, 81, 110
2, 6450, Note_on_c, 0, 81, 0
2, 6720, Note_on_c, 0, 81, 110
2, 6930, Note_on_c, 0, 81, 0
2, 7200, Note_on_c, 0, 81, 110
2, 7800, Note_on_c, 0, 81, 0
2, 23520, Note_on_c, 0, 84, 85
2, 24000, Note_on_c, 0, 77, 88
2, 24030, Note_on_c, 0, 84, 0
2, 24210, Note_on_c, 0, 77, 0
2, 24480, Note_on_c, 0, 86, 92
2, 24960, Note_on_c, 0, 82, 95
2, 24990, Note_on_c, 0, 86, 0
2, 25170, Note_on_c, 0, 82, 0
2, 25440, Note_on_c, 0, 88, 100
2, 25650, Note_on_c, 0, 88, 0
2, 25920, Note_on_c, 0, 89, 115
2, 27090, Note_on_c, 0, 89, 0
2, 27360, Note_on_c, 0, 89, 115
2, 28530, Note_on_c, 0, 89, 0
2, 28800, Note_on_c, 0, 89, 115
2, 29010, Note_on_c, 0, 89, 0
2, 29280, Note_on_c, 0, 89, 115
2, 29490, Note_on_c, 0, 89, 0
2, 29760, Note_on_c, 0, 89, 115
2, 29940, Note_on_c, 0, 89, 0
2, 30240, Note_on_c, 0, 89, 115
2, 30600, Note_on_c, 0, 89, 0
2, 31200, Note_on_c, 0, 77, 110
2, 31680, Note_on_c, 0, 82, 110
2, 31710, Note_on_c, 0, 77, 0
2, 31890, Note_on_c, 0, 82, 0
2, 32160, Note_on_c, 0, 82, 110
2, 32850, Note_on_c, 0, 82, 0
2, 33120, Note_on_c, 0, 82, 110
2, 33750, Note_on_c, 0, 82, 0
2, 34080, Note_on_c, 0, 82, 110
2, 34290, Note_on_c, 0, 82, 0
2, 34560, Note_on_c, 0, 81, 110
2, 35250, Note_on_c, 0, 81, 0
2, 35520, Note_on_c, 0, 81, 110
2, 35730, Note_on_c, 0, 81, 0
2, 36000, Note_on_c, 0, 81, 110
2, 36600, Note_on_c, 0, 81, 0
2, 52320, Note_on_c, 0, 84, 85
2, 52800, Note_on_c, 0, 77, 88
2, 52830, Note_on_c, 0, 84, 0
2, 53010, Note_on_c, 0, 77, 0
2, 53280, Note_on_c, 0, 86, 92
2, 53760, Note_on_c, 0, 82, 95
2, 53790, Note_on_c, 0, 86, 0
2, 53970, Note_on_c, 0, 82, 0
2, 54240, Note_on_c, 0, 88, 100
2, 54450, Note_on_c, 0, 88, 0
2, 54720, Note_on_c, 0, 89, 115
2, 55890, Note_on_c, 0, 89, 0
2, 56160, Note_on_c, 0, 89, 115
2, 57330, Note_on_c, 0, 89, 0
2, 57600, Note_on_c, 0, 89, 115
2, 57810, Note_on_c, 0, 89, 0
2, 58080, Note_on_c, 0, 89, 115
2, 58290, Note_on_c, 0, 89, 0
2, 58560, Note_on_c, 0, 89, 115
2, 58740, Note_on_c, 0, 89, 0
2, 59040, Note_on_c, 0, 89, 115
2, 59400, Note_on_c, 0, 89, 0
2, 60000, Note_on_c, 0, 68, 70
2, 60480, Note_on_c, 0, 73, 70
2, 60510, Note_on_c, 0, 68, 0
2, 60720, Note_on_c, 0, 73, 0
2, 60960, Note_on_c, 0, 68, 70
2, 61440, Note_on_c, 0, 77, 70
2, 61470, Note_on_c, 0, 68, 0
2, 61680, Note_on_c, 0, 77, 0
2, 61920, Note_on_c, 0, 73, 70
2, 62400, Note_on_c, 0, 80, 70
2, 62430, Note_on_c, 0, 73, 0
2, 62640, Note_on_c, 0, 80, 0
2, 62880, Note_on_c, 0, 77, 70
2, 63360, Note_on_c, 0, 80, 70
2, 63390, Note_on_c, 0, 77, 0
2, 63840, Note_on_c, 0, 78, 70
2, 63870, Note_on_c, 0, 80, 0
2, 64110, Note_on_c, 0, 78, 0
2, 64320, Note_on_c, 0, 75, 70
2, 64800, Note_on_c, 0, 72, 70
2, 64830, Note_on_c, 0, 75, 0
2, 65280, Note_on_c, 0, 72, 0
2, 68160, Note_on_c, 0, 78, 70
2, 68640, Note_on_c, 0, 75, 70
2, 68670, Note_on_c, 0, 78, 0
2, 69120, Note_on_c, 0, 82, 70
2, 69150, Note_on_c, 0, 75, 0
2, 69600, Note_on_c, 0, 80, 70
2, 69630, Note_on_c, 0, 82, 0
2, 69810, Note_on_c, 0, 80, 0
2, 70080, Note_on_c, 0, 77, 70
2, 70560, Note_on_c, 0, 73, 70
2, 70590, Note_on_c, 0, 77, 0
2, 71040, Note_on_c, 0, 73, 0
2, 73920, Note_on_c, 0, 80, 70
2, 74400, Note_on_c, 0, 77, 70
2, 74430, Note_on_c, 0, 80, 0
2, 74880, Note_on_c, 0, 82, 70
2, 74910, Note_on_c, 0, 77, 0
2, 75360, Note_on_c, 0, 80, 70
2, 75390, Note_on_c, 0, 82, 0
2, 75570, Note_on_c, 0, 80, 0
2, 75840, Note_on_c, 0, 77, 70
2, 76320, Note_on_c, 0, 74, 70
2, 76350, Note_on_c, 0, 77, 0
2, 76800, Note_on_c, 0, 74, 0
2, 79680, Note_on_c, 0, 80, 70
2, 80160, Note_on_c, 0, 77, 70
2, 80190, Note_on_c, 0, 80, 0
2, 80640, Note_on_c, 0, 78, 70
2, 80670, Note_on_c, 0, 77, 0
2, 80850, Note_on_c, 0, 78, 0
2, 84000, Note_on_c, 0, 84, 70
2, 84480, Note_on_c, 0, 89, 70
2, 84510, Note_on_c, 0, 84, 0
2, 84690, Note_on_c, 0, 89, 0
2, 84960, Note_on_c, 0, 84, 70
2, 85440, Note_on_c, 0, 89, 70
2, 85470, Note_on_c, 0, 84, 0
2, 85650, Note_on_c, 0, 89, 0
2, 85920, Note_on_c, 0, 84, 70
2, 86400, Note_on_c, 0, 85, 70
2, 86430, Note_on_c, 0, 84, 0
2, 86610, Note_on_c, 0, 85, 0
2, 89760, Note_on_c, 0, 79, 70
2, 90240, Note_on_c, 0, 84, 70
2, 90270, Note_on_c, 0, 79, 0
2, 90450, Note_on_c, 0, 84, 0
2, 90720, Note_on_c, 0, 79, 70
2, 91200, Note_on_c, 0, 84, 70
2, 91230, Note_on_c, 0, 79, 0
2, 91410, Note_on_c, 0, 84, 0
2, 91680, Note_on_c, 0, 79, 70
2, 92160, Note_on_c, 0, 80, 70
2, 92190, Note_on_c, 0, 79, 0
2, 92370, Note_on_c, 0, 80, 0
2, 96960, Note_on_c, 0, 81, 70
2, 97440, Note_on_c, 0, 86, 70
2, 97470, Note_on_c, 0, 81, 0
2, 97650, Note_on_c, 0, 86, 0
2, 97920, Note_on_c, 0, 82, 70
2, 98370, Note_on_c, 0, 82, 0
2, 106080, Note_on_c, 0, 81, 90
2, 106560, Note_on_c, 0, 82, 110
2, 106590, Note_on_c, 0, 81, 0
2, 106770, Note_on_c, 0, 82, 0
2, 107040, Note_on_c, 0, 77, 110
2, 107520, Note_on_c, 0, 86, 110
2, 107550, Note_on_c, 0, 77, 0
2, 107730, Note_on_c, 0, 86, 0
2, 108000, Note_on_c, 0, 82, 110
2, 108480, Note_on_c, 0, 89, 110
2, 108510, Note_on_c, 0, 82, 0
2, 108690, Note_on_c, 0, 89, 0
2, 108960, Note_on_c, 0, 86, 110
2, 109110, Note_on_c, 0, 86, 0
2, 109440, Note_on_c, 0, 89, 110
2, 109920, Note_on_c, 0, 87, 110
2, 109950, Note_on_c, 0, 89, 0
2, 110130, Note_on_c, 0, 87, 0
2, 110400, Note_on_c, 0, 84, 110
2, 110550, Note_on_c, 0, 84, 0
2, 110880, Note_on_c, 0, 81, 110
2, 111480, Note_on_c, 0, 81, 0
2, 123360, Note_on_c, 0, 85, 60
2, 123840, Note_on_c, 0, 82, 60
2, 123870, Note_on_c, 0, 85, 0
2, 124320, Note_on_c, 0, 79, 60
2, 124350, Note_on_c, 0, 82, 0
2, 124800, Note_on_c, 0, 76, 60
2, 124830, Note_on_c, 0, 79, 0
2, 125280, Note_on_c, 0, 73, 60
2, 125310, Note_on_c, 0, 76, 0
2, 125760, Note_on_c, 0, 72, 60
2, 125790, Note_on_c, 0, 73, 0
2, 126150, Note_on_c, 0, 72, 0
2, 126240, Note_on_c, 0, 76, 60
2, 126720, Note_on_c, 0, 77, 60
2, 126750, Note_on_c, 0, 76, 0
2, 127200, Note_on_c, 0, 81, 60
2, 127230, Note_on_c, 0, 77, 0
2, 127680, Note_on_c, 0, 84, 60
2, 127710, Note_on_c, 0, 81, 0
2, 128160, Note_on_c, 0, 87, 60
2, 128190, Note_on_c, 0, 84, 0
2, 128640, Note_on_c, 0, 89, 68
2, 128670, Note_on_c, 0, 87, 0
2, 129120, Note_on_c, 0, 90, 76
2, 129150, Note_on_c, 0, 89, 0
2, 129600, Note_on_c, 0, 89, 85
2, 129630, Note_on_c, 0, 90, 0
2, 130080, Note_on_c, 0, 87, 93
2, 130110, Note_on_c, 0, 89, 0
2, 130560, Note_on_c, 0, 84, 101
2, 130590, Note_on_c, 0, 87, 0
2, 131040, Note_on_c, 0, 81, 110
2, 131070, Note_on_c, 0, 84, 0
2, 131520, Note_on_c, 0, 77, 118
2, 131550, Note_on_c, 0, 81, 0
2, 131730, Note_on_c, 0, 77, 0
2, 132000, Note_on_c, 0, 78, 127
2, 132480, Note_on_c, 0, 77, 60
2, 132510, Note_on_c, 0, 78, 0
2, 132960, Note_on_c, 0, 81, 60
2, 132990, Note_on_c, 0, 77, 0
2, 133440, Note_on_c, 0, 84, 60
2, 133470, Note_on_c, 0, 81, 0
2, 133920, Note_on_c, 0, 87, 60
2, 133950, Note_on_c, 0, 84, 0
2, 134400, Note_on_c, 0, 89, 68
2, 134430, Note_on_c, 0, 87, 0
2, 134880, Note_on_c, 0, 90, 76
2, 134910, Note_on_c, 0, 89, 0
2, 135360, Note_on_c, 0, 89, 85
2, 135390, Note_on_c, 0, 90, 0
2, 135840, Note_on_c, 0, 87, 93
2, 135870, Note_on_c, 0, 89, 0
2, 136320, Note_on_c, 0, 84, 101
2, 136350, Note_on_c, 0, 87, 0
2, 136800, Note_on_c, 0, 81, 110
2, 136830, Note_on_c, 0, 84, 0
2, 137280, Note_on_c, 0, 77, 118
2, 137310, Note_on_c, 0, 81, 0
2, 137490, Note_on_c, 0, 77, 0
2, 137760, Note_on_c, 0, 78, 127
2, 138240, Note_on_c, 0, 77, 100
2, 138270, Note_on_c, 0, 78, 0
2, 138450, Note_on_c, 0, 77, 0
2, 138720, Note_on_c, 0, 87, 110
2, 139590, Note_on_c, 0, 87, 0
2, 139680, Note_on_c, 0, 86, 110
2, 140550, Note_on_c, 0, 86, 0
2, 140640, Note_on_c, 0, 91, 110
2, 140850, Note_on_c, 0, 91, 0
2, 141120, Note_on_c, 0, 89, 110
2, 142470, Note_on_c, 0, 89, 0
2, 142560, Note_on_c, 0, 81, 110
2, 143910, Note_on_c, 0, 81, 0
2, 144000, Note_on_c, 0, 82, 110
2, 146790, Note_on_c, 0, 82, 0
2, 146880, Note_on_c, 0, 81, 110
2, 147360, Note_on_c, 0, 77, 110
2, 147390, Note_on_c, 0, 81, 0
2, 147570, Note_on_c, 0, 77, 0
2, 147840, Note_on_c, 0, 84, 110
2, 148320, Note_on_c, 0, 81, 110
2, 148350, Note_on_c, 0, 84, 0
2, 148530, Note_on_c, 0, 81, 0
2, 148800, Note_on_c, 0, 87, 110
2, 149280, Note_on_c, 0, 84, 110
2, 149310, Note_on_c, 0, 87, 0
2, 149490, Note_on_c, 0, 84, 0
2, 149760, Note_on_c, 0, 82, 110
2, 152550, Note_on_c, 0, 82, 0
2, 152640, Note_on_c, 0, 81, 110
2, 153120, Note_on_c, 0, 77, 110
2, 153150, Note_on_c, 0, 81, 0
2, 153330, Note_on_c, 0, 77, 0
2, 153600, Note_on_c, 0, 84, 110
2, 154080, Note_on_c, 0, 81, 110
2, 154110, Note_on_c, 0, 84, 0
2, 154290, Note_on_c, 0, 81, 0
2, 154560, Note_on_c, 0, 87, 110
2, 155040, Note_on_c, 0, 84, 110
2, 155070, Note_on_c, 0, 87, 0
2, 155250, Note_on_c, 0, 84, 0
2, 155520, Note_on_c, 0, 82, 110
2, 156570, Note_on_c, 0, 82, 0
2, 156960, Note_on_c, 0, 86, 110
2, 158010, Note_on_c, 0, 86, 0
2, 158400, Note_on_c, 0, 89, 110
2, 158610, Note_on_c, 0, 89, 0
2, 158880, Note_on_c, 0, 89, 110
2, 159090, Note_on_c, 0, 89, 0
2, 159360, Note_on_c, 0, 89, 110
2, 159540, Note_on_c, 0, 89, 0
2, 159840, Note_on_c, 0, 82, 110
2, 160440, Note_on_c, 0, 82, 0
2, 160800, Note_on_c, 0, 68, 70
2, 161280, Note_on_c, 0, 73, 70
2, 161310, Note_on_c, 0, 68, 0
2, 161520, Note_on_c, 0, 73, 0
2, 161760, Note_on_c, 0, 68, 70
2, 162240, Note_on_c, 0, 77, 70
2, 162270, Note_on_c, 0, 68, 0
2, 162480, Note_on_c, 0, 77, 0
2, 162720, Note_on_c, 0, 73, 70
2, 163200, Note_on_c, 0, 80, 70
2, 163230, Note_on_c, 0, 73, 0
2, 163440, Note_on_c, 0, 80, 0
2, 163680, Note_on_c, 0, 77, 70
2, 164160, Note_on_c, 0, 80, 70
2, 164190, Note_on_c, 0, 77, 0
2, 164640, Note_on_c, 0, 78, 70
2, 164670, Note_on_c, 0, 80, 0
2, 164910, Note_on_c, 0, 78, 0
2, 165120, Note_on_c, 0, 75, 70
2, 165600, Note_on_c, 0, 72, 70
2, 165630, Note_on_c, 0, 75, 0
2, 166080, Note_on_c, 0, 72, 0
2, 168960, Note_on_c, 0, 78, 70
2, 169440, Note_on_c, 0, 75, 70
2, 169470, Note_on_c, 0, 78, 0
2, 169920, Note_on_c, 0, 82, 70
2, 169950, Note_on_c, 0, 75, 0
2, 170400, Note_on_c, 0, 80, 70
2, 170430, Note_on_c, 0, 82, 0
2, 170610, Note_on_c, 0, 80, 0
2, 170880, Note_on_c, 0, 77, 70
2, 171360, Note_on_c, 0, 73, 70
2, 171390, Note_on_c, 0, 77, 0
2, 171840, Note_on_c, 0, 73, 0
2, 174720, Note_on_c, 0, 80, 70
2, 175200, Note_on_c, 0, 77, 70
2, 175230, Note_on_c, 0, 80, 0
2, 175680, Note_on_c, 0, 82, 70
2, 175710, Note_on_c, 0, 77, 0
2, 176160, Note_on_c, 0, 80, 70
2, 176190, Note_on_c, 0, 82, 0
2, 176370, Note_on_c, 0, 80, 0
2, 176640, Note_on_c, 0, 77, 70
2, 177120, Note_on_c, 0, 74, 70
2, 177150, Note_on_c, 0, 77, 0
2, 177600, Note_on_c, 0, 74, 0
2, 180480, Note_on_c, 0, 80, 70
2, 180960, Note_on_c, 0, 77, 70
2, 180990, Note_on_c, 0, 80, 0
2, 181440, Note_on_c, 0, 78, 70
2, 181470, Note_on_c, 0, 77, 0
2, 181650, Note_on_c, 0, 78, 0
2, 184800, Note_on_c, 0, 84, 70
2, 185280, Note_on_c, 0, 89, 70
2, 185310, Note_on_c, 0, 84, 0
2, 185490, Note_on_c, 0, 89, 0
2, 185760, Note_on_c, 0, 84, 70
2, 186240, Note_on_c, 0, 89, 70
2, 186270, Note_on_c, 0, 84, 0
2, 186450, Note_on_c, 0, 89, 0
2, 186720, Note_on_c, 0, 84, 70
2, 187200, Note_on_c, 0, 85, 70
2, 187230, Note_on_c, 0, 84, 0
2, 187410, Note_on_c, 0, 85, 0
2, 190560, Note_on_c, 0, 79, 70
2, 191040, Note_on_c, 0, 84, 70
2, 191070, Note_on_c, 0, 79, 0
2, 191250, Note_on_c, 0, 84, 0
2, 191520, Note_on_c, 0, 79, 70
2, 192000, Note_on_c, 0, 84, 70
2, 192030, Note_on_c, 0, 79, 0
2, 192210, Note_on_c, 0, 84, 0
2, 192480, Note_on_c, 0, 79, 70
2, 192960, Note_on_c, 0, 80, 70
2, 192990, Note_on_c, 0, 79, 0
2, 193170, Note_on_c, 0, 80, 0
2, 197760, Note_on_c, 0, 81, 70
2, 198240, Note_on_c, 0, 86, 70
2, 198270, Note_on_c, 0, 81, 0
2, 198450, Note_on_c, 0, 86, 0
2, 198720, Note_on_c, 0, 82, 70
2, 199170, Note_on_c, 0, 82, 0
2, 206880, Note_on_c, 0, 81, 90
2, 207360, Note_on_c, 0, 82, 110
2, 207390, Note_on_c, 0, 81, 0
2, 207570, Note_on_c, 0, 82, 0
2, 207840, Note_on_c, 0, 77, 110
2, 208320, Note_on_c, 0, 86, 110
2, 208350, Note_on_c, 0, 77, 0
2, 208530, Note_on_c, 0, 86, 0
2, 208800, Note_on_c, 0, 82, 110
2, 209280, Note_on_c, 0, 89, 110
2, 209310, Note_on_c, 0, 82, 0
2, 209490, Note_on_c, 0, 89, 0
2, 209760, Note_on_c, 0, 86, 110
2, 209910, Note_on_c, 0, 86, 0
2, 210240, Note_on_c, 0, 89, 110
2, 210720, Note_on_c, 0, 87, 110
2, 210750, Note_on_c, 0, 89, 0
2, 210930, Note_on_c, 0, 87, 0
2, 211200, Note_on_c, 0, 84, 110
2, 211350, Note_on_c, 0, 84, 0
2, 211680, Note_on_c, 0, 81, 110
2, 212280, Note_on_c, 0, 81, 0
2, 224160, Note_on_c, 0, 85, 60
2, 224640, Note_on_c, 0, 82, 60
2, 224670, Note_on_c, 0, 85, 0
2, 225120, Note_on_c, 0, 79, 60
2, 225150, Note_on_c, 0, 82, 0
2, 225600, Note_on_c, 0, 76, 60
2, 225630, Note_on_c, 0, 79, 0
2, 226080, Note_on_c, 0, 73, 60
2, 226110, Note_on_c, 0, 76, 0
2, 226560, Note_on_c, 0, 72, 60
2, 226590, Note_on_c, 0, 73, 0
2, 226950, Note_on_c, 0, 72, 0
2, 227040, Note_on_c, 0, 76, 60
2, 227520, Note_on_c, 0, 77, 60
2, 227550, Note_on_c, 0, 76, 0
2, 228000, Note_on_c, 0, 81, 60
2, 228030, Note_on_c, 0, 77, 0
2, 228480, Note_on_c, 0, 84, 60
2, 228510, Note_on_c, 0, 81, 0
2, 228960, Note_on_c, 0, 87, 60
2, 228990, Note_on_c, 0, 84, 0
2, 229440, Note_on_c, 0, 89, 68
2, 229470, Note_on_c, 0, 87, 0
2, 229920, Note_on_c, 0, 90, 76
2, 229950, Note_on_c, 0, 89, 0
2, 230400, Note_on_c, 0, 89, 85
2, 230430, Note_on_c, 0, 90, 0
2, 230880, Note_on_c, 0, 87, 93
2, 230910, Note_on_c, 0, 89, 0
2, 231360, Note_on_c, 0, 84, 101
2, 231390, Note_on_c, 0, 87, 0
2, 231840, Note_on_c, 0, 81, 110
2, 231870, Note_on_c, 0, 84, 0
2, 232320, Note_on_c, 0, 77, 118
2, 232350, Note_on_c, 0, 81, 0
2, 232530, Note_on_c, 0, 77, 0
2, 232800, Note_on_c, 0, 78, 127
2, 233280, Note_on_c, 0, 77, 60
2, 233310, Note_on_c, 0, 78, 0
2, 233760, Note_on_c, 0, 81, 60
2, 233790, Note_on_c, 0, 77, 0
2, 234240, Note_on_c, 0, 84, 60
2, 234270, Note_on_c, 0, 81, 0
2, 234720, Note_on_c, 0, 87, 60
2, 234750, Note_on_c, 0, 84, 0
2, 235200, Note_on_c, 0, 89, 68
2, 235230, Note_on_c, 0, 87, 0
2, 235680, Note_on_c, 0, 90, 76
2, 235710, Note_on_c, 0, 89, 0
2, 236160, Note_on_c, 0, 89, 85
2, 236190, Note_on_c, 0, 90, 0
2, 236640, Note_on_c, 0, 87, 93
2, 236670, Note_on_c, 0, 89, 0
2, 237120, Note_on_c, 0, 84, 101
2, 237150, Note_on_c, 0, 87, 0
2, 237600, Note_on_c, 0, 81, 110
2, 237630, Note_on_c, 0, 84, 0
2, 238080, Note_on_c, 0, 77, 118
2, 238110, Note_on_c, 0, 81, 0
2, 238290, Note_on_c, 0, 77, 0
2, 238560, Note_on_c, 0, 78, 127
2, 239040, Note_on_c, 0, 77, 100
2, 239070, Note_on_c, 0, 78, 0
2, 239250, Note_on_c, 0, 77, 0
2, 239520, Note_on_c, 0, 87, 110
2, 240390, Note_on_c, 0, 87, 0
2, 240480, Note_on_c, 0, 86, 110
2, 241350, Note_on_c, 0, 86, 0
2, 241440, Note_on_c, 0, 91, 110
2, 241650, Note_on_c, 0, 91, 0
2, 241920, Note_on_c, 0, 89, 110
2, 243270, Note_on_c, 0, 89, 0
2, 243360, Note_on_c, 0, 81, 110
2, 244710, Note_on_c, 0, 81, 0
2, 244800, Note_on_c, 0, 82, 110
2, 247590, Note_on_c, 0, 82, 0
2, 247680, Note_on_c, 0, 81, 110
2, 248160, Note_on_c, 0, 77, 110
2, 248190, Note_on_c, 0, 81, 0
2, 248370, Note_on_c, 0, 77, 0
2, 248640, Note_on_c, 0, 84, 110
2, 249120, Note_on_c, 0, 81, 110
2, 249150, Note_on_c, 0, 84, 0
2, 249330, Note_on_c, 0, 81, 0
2, 249600, Note_on_c, 0, 87, 110
2, 250080, Note_on_c, 0, 84, 110
2, 250110, Note_on_c, 0, 87, 0
2, 250290, Note_on_c, 0, 84, 0
2, 250560, Note_on_c, 0, 82, 110
2, 253350, Note_on_c, 0, 82, 0
2, 253440, Note_on_c, 0, 81, 110
2, 253920, Note_on_c, 0, 77, 110
2, 253950, Note_on_c, 0, 81, 0
2, 254130, Note_on_c, 0, 77, 0
2, 254400, Note_on_c, 0, 84, 110
2, 254880, Note_on_c, 0, 81, 110
2, 254910, Note_on_c, 0, 84, 0
2, 255090, Note_on_c, 0, 81, 0
2, 255360, Note_on_c, 0, 87, 110
2, 255840, Note_on_c, 0, 84, 110
2, 255870, Note_on_c, 0, 87, 0
2, 256050, Note_on_c, 0, 84, 0
2, 256320, Note_on_c, 0, 82, 110
2, 257370, Note_on_c, 0, 82, 0
2, 257760, Note_on_c, 0, 86, 110
2, 258810, Note_on_c, 0, 86, 0
2, 259200, Note_on_c, 0, 89, 110
2, 259410, Note_on_c, 0, 89, 0
2, 259680, Note_on_c, 0, 89, 110
2, 259890, Note_on_c, 0, 89, 0
2, 260160, Note_on_c, 0, 89, 110
2, 260340, Note_on_c, 0, 89, 0
2, 260640, Note_on_c, 0, 82, 110
2, 261240, Note_on_c, 0, 82, 0
2, 310560, Note_on_c, 0, 89, 80
2, 312000, Note_on_c, 0, 87, 65
2, 312030, Note_on_c, 0, 89, 0
2, 312480, Note_on_c, 0, 84, 60
2, 312510, Note_on_c, 0, 87, 0
2, 313080, Note_on_c, 0, 84, 0
2, 316320, Note_on_c, 0, 89, 80
2, 317760, Note_on_c, 0, 87, 65
2, 317790, Note_on_c, 0, 89, 0
2, 318240, Note_on_c, 0, 84, 60
2, 318270, Note_on_c, 0, 87, 0
2, 318840, Note_on_c, 0, 84, 0
2, 333600, Note_on_c, 0, 82, 60
2, 334080, Note_on_c, 0, 86, 60
2, 334110, Note_on_c, 0, 82, 0
2, 335040, Note_on_c, 0, 82, 62
2, 335070, Note_on_c, 0, 86, 0
2, 335520, Note_on_c, 0, 84, 63
2, 335550, Note_on_c, 0, 82, 0
2, 336480, Note_on_c, 0, 87, 66
2, 336510, Note_on_c, 0, 84, 0
2, 336960, Note_on_c, 0, 84, 67
2, 336990, Note_on_c, 0, 87, 0
2, 337740, Note_on_c, 0, 84, 0
2, 339360, Note_on_c, 0, 84, 74
2, 339840, Note_on_c, 0, 87, 75
2, 339870, Note_on_c, 0, 84, 0
2, 340800, Note_on_c, 0, 84, 77
2, 340830, Note_on_c, 0, 87, 0
2, 341280, Note_on_c, 0, 86, 79
2, 341310, Note_on_c, 0, 84, 0
2, 342240, Note_on_c, 0, 89, 81
2, 342270, Note_on_c, 0, 86, 0
2, 342720, Note_on_c, 0, 86, 82
2, 342750, Note_on_c, 0, 89, 0
2, 343500, Note_on_c, 0, 86, 0
2, 345120, Note_on_c, 0, 86, 89
2, 345600, Note_on_c, 0, 89, 90
2, 345630, Note_on_c, 0, 86, 0
2, 346560, Note_on_c, 0, 86, 93
2, 346590, Note_on_c, 0, 89, 0
2, 347040, Note_on_c, 0, 87, 94
2, 347070, Note_on_c, 0, 86, 0
2, 348000, Note_on_c, 0, 89, 97
2, 348030, Note_on_c, 0, 87, 0
2, 348390, Note_on_c, 0, 89, 0
2, 348480, Note_on_c, 0, 91, 98
2, 350790, Note_on_c, 0, 91, 0
2, 350880, Note_on_c, 0, 89, 104
2, 351270, Note_on_c, 0, 89, 0
2, 351360, Note_on_c, 0, 87, 105
2, 352110, Note_on_c, 0, 87, 0
2, 352320, Note_on_c, 0, 87, 108
2, 352530, Note_on_c, 0, 87, 0
2, 352800, Note_on_c, 0, 87, 109
2, 352890, Note_on_c, 0, 89, 110
2, 352895, Note_on_c, 0, 87, 0
2, 352980, Note_on_c, 0, 87, 110
2, 352985, Note_on_c, 0, 89, 0
2, 353070, Note_on_c, 0, 89, 110
2, 353075, Note_on_c, 0, 87, 0
2, 353160, Note_on_c, 0, 87, 110
2, 353165, Note_on_c, 0, 89, 0
2, 353250, Note_on_c, 0, 89, 110
2, 353255, Note_on_c, 0, 87, 0
2, 353345, Note_on_c, 0, 89, 0
2, 353520, Note_on_c, 0, 86, 111
2, 353730, Note_on_c, 0, 86, 0
2, 353760, Note_on_c, 0, 87, 112
2, 354210, Note_on_c, 0, 87, 0
2, 354240, Note_on_c, 0, 86, 113
2, 354840, Note_on_c, 0, 86, 0
2, 356640, Note_on_c, 0, 86, 120
2, 356880, Note_on_c, 0, 87, 120
2, 356910, Note_on_c, 0, 86, 0
2, 357120, Note_on_c, 0, 89, 120
2, 357150, Note_on_c, 0, 87, 0
2, 358080, Note_on_c, 0, 86, 120
2, 358110, Note_on_c, 0, 89, 0
2, 358560, Note_on_c, 0, 87, 120
2, 358590, Note_on_c, 0, 86, 0
2, 359520, Note_on_c, 0, 89, 120
2, 359550, Note_on_c, 0, 87, 0
2, 359910, Note_on_c, 0, 89, 0
2, 360000, Note_on_c, 0, 91, 120
2, 360000, Control_c, 0, 11, 80
2, 360060, Control_c, 0, 11, 87
2, 360120, Control_c, 0, 11, 95
2, 360180, Control_c, 0, 11, 102
2, 360300, Control_c, 0, 11, 110
2, 360360, Control_c, 0, 11, 107
2, 360420, Control_c, 0, 11, 106
2, 360480, Control_c, 0, 11, 104
2, 360540, Control_c, 0, 11, 103
2, 360600, Control_c, 0, 11, 101
2, 360660, Control_c, 0, 11, 100
2, 360720, Control_c, 0, 11, 98
2, 360780, Control_c, 0, 11, 97
2, 360840, Control_c, 0, 11, 95
2, 360900, Control_c, 0, 11, 93
2, 360960, Control_c, 0, 11, 92
2, 361020, Control_c, 0, 11, 90
2, 361080, Control_c, 0, 11, 89
2, 361140, Control_c, 0, 11, 87
2, 361200, Control_c, 0, 11, 86
2, 361260, Control_c, 0, 11, 84
2, 361320, Control_c, 0, 11, 82
2, 361380, Control_c, 0, 11, 80
2, 362310, Note_on_c, 0, 91, 0
2, 362400, Note_on_c, 0, 89, 120
2, 362880, Note_on_c, 0, 87, 120
2, 362910, Note_on_c, 0, 89, 0
2, 363330, Note_on_c, 0, 87, 0
2, 363840, Note_on_c, 0, 87, 120
2, 364230, Note_on_c, 0, 87, 0
2, 364320, Note_on_c, 0, 87, 120
2, 364410, Note_on_c, 0, 89, 120
2, 364415, Note_on_c, 0, 87, 0
2, 364500, Note_on_c, 0, 87, 120
2, 364505, Note_on_c, 0, 89, 0
2, 364590, Note_on_c, 0, 89, 120
2, 364595, Note_on_c, 0, 87, 0
2, 364680, Note_on_c, 0, 87, 120
2, 364685, Note_on_c, 0, 89, 0
2, 364770, Note_on_c, 0, 89, 120
2, 364775, Note_on_c, 0, 87, 0
2, 364865, Note_on_c, 0, 89, 0
2, 365040, Note_on_c, 0, 86, 120
2, 365250, Note_on_c, 0, 86, 0
2, 365280, Note_on_c, 0, 87, 120
2, 365730, Note_on_c, 0, 87, 0
2, 365760, Note_on_c, 0, 86, 120
2, 366360, Note_on_c, 0, 86, 0
2, 368160, Note_on_c, 0, 89, 120
2, 368640, Note_on_c, 0, 87, 120
2, 368670, Note_on_c, 0, 89, 0
2, 369090, Note_on_c, 0, 87, 0
2, 371040, Note_on_c, 0, 89, 120
2, 371520, Note_on_c, 0, 86, 120
2, 371550, Note_on_c, 0, 89, 0
2, 371970, Note_on_c, 0, 86, 0
2, 373920, Note_on_c, 0, 89, 103
2, 374400, Note_on_c, 0, 87, 97
2, 374430, Note_on_c, 0, 89, 0
2, 374850, Note_on_c, 0, 87, 0
2, 376800, Note_on_c, 0, 89, 67
2, 377280, Note_on_c, 0, 86, 60
2, 377310, Note_on_c, 0, 89, 0
2, 377730, Note_on_c, 0, 86, 0
2, 378720, Note_on_c, 0, 86, 60
2, 379170, Note_on_c, 0, 86, 0
2, 380160, Note_on_c, 0, 86, 60
2, 380610, Note_on_c, 0, 86, 0
2, 381600, Note_on_c, 0, 86, 60
2, 382050, Note_on_c, 0, 86, 0
2, 383040, Note_on_c, 0, 86, 60
2, 383490, Note_on_c, 0, 86, 0
2, 388320, Note_on_c, 0, 81, 105
2, 388800, Note_on_c, 0, 82, 110
2, 388830, Note_on_c, 0, 81, 0
2, 389010, Note_on_c, 0, 82, 0
2, 389280, Note_on_c, 0, 82, 110
2, 389970, Note_on_c, 0, 82, 0
2, 390240, Note_on_c, 0, 82, 110
2, 390870, Note_on_c, 0, 82, 0
2, 391200, Note_on_c, 0, 82, 110
2, 391410, Note_on_c, 0, 82, 0
2, 391680, Note_on_c, 0, 81, 110
2, 392370, Note_on_c, 0, 81, 0
2, 392640, Note_on_c, 0, 81, 110
2, 392850, Note_on_c, 0, 81, 0
2, 393120, Note_on_c, 0, 81, 110
2, 393720, Note_on_c, 0, 81, 0
2, 409440, Note_on_c, 0, 84, 85
2, 409920, Note_on_c, 0, 77, 88
2, 409950, Note_on_c, 0, 84, 0
2, 410130, Note_on_c, 0, 77, 0
2, 410400, Note_on_c, 0, 86, 92
2, 410880, Note_on_c, 0, 82, 95
2, 410910, Note_on_c, 0, 86, 0
2, 411090, Note_on_c, 0, 82, 0
2, 411360, Note_on_c, 0, 88, 100
2, 411570, Note_on_c, 0, 88, 0
2, 411840, Note_on_c, 0, 89, 115
2, 413010, Note_on_c, 0, 89, 0
2, 413280, Note_on_c, 0, 89, 115
2, 414450, Note_on_c, 0, 89, 0
2, 414720, Note_on_c, 0, 89, 115
2, 414930, Note_on_c, 0, 89, 0
2, 415200, Note_on_c, 0, 89, 115
2, 415410, Note_on_c, 0, 89, 0
2, 415680, Note_on_c, 0, 89, 115
2, 415860, Note_on_c, 0, 89, 0
2, 416160, Note_on_c, 0, 89, 115
2, 416520, Note_on_c, 0, 89, 0
2, 417120, Note_on_c, 0, 68, 70
2, 417600, Note_on_c, 0, 73, 70
2, 417630, Note_on_c, 0, 68, 0
2, 417840, Note_on_c, 0, 73, 0
2, 418080, Note_on_c, 0, 68, 70
2, 418560, Note_on_c, 0, 77, 70
2, 418590, Note_on_c, 0, 68, 0
2, 418800, Note_on_c, 0, 77, 0
2, 419040, Note_on_c, 0, 73, 70
2, 419520, Note_on_c, 0, 80, 70
2, 419550, Note_on_c, 0, 73, 0
2, 419760, Note_on_c, 0, 80, 0
2, 420000, Note_on_c, 0, 77, 70
2, 420480, Note_on_c, 0, 80, 70
2, 420510, Note_on_c, 0, 77, 0
2, 420960, Note_on_c, 0, 78, 70
2, 420990, Note_on_c, 0, 80, 0
2, 421230, Note_on_c, 0, 78, 0
2, 421440, Note_on_c, 0, 75, 70
2, 421920, Note_on_c, 0, 72, 70
2, 421950, Note_on_c, 0, 75, 0
2, 422400, Note_on_c, 0, 72, 0
2, 425280, Note_on_c, 0, 78, 70
2, 425760, Note_on_c, 0, 75, 70
2, 425790, Note_on_c, 0, 78, 0
2, 426240, Note_on_c, 0, 82, 70
2, 426270, Note_on_c, 0, 75, 0
2, 426720, Note_on_c, 0, 80, 70
2, 426750, Note_on_c, 0, 82, 0
2, 426930, Note_on_c, 0, 80, 0
2, 427200, Note_on_c, 0, 77, 70
2, 427680, Note_on_c, 0, 73, 70
2, 427710, Note_on_c, 0, 77, 0
2, 428160, Note_on_c, 0, 73, 0
2, 431040, Note_on_c, 0, 80, 70
2, 431520, Note_on_c, 0, 77, 70
2, 431550, Note_on_c, 0, 80, 0
2, 432000, Note_on_c, 0, 82, 70
2, 432030, Note_on_c, 0, 77, 0
2, 432480, Note_on_c, 0, 80, 70
2, 432510, Note_on_c, 0, 82, 0
2, 432690, Note_on_c, 0, 80, 0
2, 432960, Note_on_c, 0, 77, 70
2, 433440, Note_on_c, 0, 74, 70
2, 433470, Note_on_c, 0, 77, 0
2, 433920, Note_on_c, 0, 74, 0
2, 436800, Note_on_c, 0, 80, 70
2, 437280, Note_on_c, 0, 77, 70
2, 437310, Note_on_c, 0, 80, 0
2, 437760, Note_on_c, 0, 78, 70
2, 437790, Note_on_c, 0, 77, 0
2, 437970, Note_on_c, 0, 78, 0
2, 441120, Note_on_c, 0, 84, 70
2, 441600, Note_on_c, 0, 89, 70
2, 441630, Note_on_c, 0, 84, 0
2, 441810, Note_on_c, 0, 89, 0
2, 442080, Note_on_c, 0, 84, 70
2, 442560, Note_on_c, 0, 89, 70
2, 442590, Note_on_c, 0, 84, 0
2, 442770, Note_on_c, 0, 89, 0
2, 443040, Note_on_c, 0, 84, 70
2, 443520, Note_on_c, 0, 85, 70
2, 443550, Note_on_c, 0, 84, 0
2, 443730, Note_on_c, 0, 85, 0
2, 446880, Note_on_c, 0, 79, 70
2, 447360, Note_on_c, 0, 84, 70
2, 447390, Note_on_c, 0, 79, 0
2, 447570, Note_on_c, 0, 84, 0
2, 447840, Note_on_c, 0, 79, 70
2, 448320, Note_on_c, 0, 84, 70
2, 448350, Note_on_c, 0, 79, 0
2, 448530, Note_on_c, 0, 84, 0
2, 448800, Note_on_c, 0, 79, 70
2, 449280, Note_on_c, 0, 80, 70
2, 449310, Note_on_c, 0, 79, 0
2, 449490, Note_on_c, 0, 80, 0
2, 454080, Note_on_c, 0, 81, 70
2, 454560, Note_on_c, 0, 86, 70
2, 454590, Note_on_c, 0, 81, 0
2, 454770, Note_on_c, 0, 86, 0
2, 455040, Note_on_c, 0, 82, 70
2, 455490, Note_on_c, 0, 82, 0
2, 463200, Note_on_c, 0, 81, 90
2, 463680, Note_on_c, 0, 82, 110
2, 463710, Note_on_c, 0, 81, 0
2, 463890, Note_on_c, 0, 82, 0
2, 464160, Note_on_c, 0, 77, 110
2, 464640, Note_on_c, 0, 86, 110
2, 464670, Note_on_c, 0, 77, 0
2, 464850, Note_on_c, 0, 86, 0
2, 465120, Note_on_c, 0, 82, 110
2, 465600, Note_on_c, 0, 89, 110
2, 465630, Note_on_c, 0, 82, 0
2, 465810, Note_on_c, 0, 89, 0
2, 466080, Note_on_c, 0, 86, 110
2, 466230, Note_on_c, 0, 86, 0
2, 466560, Note_on_c, 0, 89, 110
2, 467040, Note_on_c, 0, 87, 110
2, 467070, Note_on_c, 0, 89, 0
2, 467250, Note_on_c, 0, 87, 0
2, 467520, Note_on_c, 0, 84, 110
2, 467670, Note_on_c, 0, 84, 0
2, 468000, Note_on_c, 0, 81, 110
2, 468600, Note_on_c, 0, 81, 0
2, 480480, Note_on_c, 0, 85, 60
2, 480960, Note_on_c, 0, 82, 60
2, 480990, Note_on_c, 0, 85, 0
2, 481440, Note_on_c, 0, 79, 60
2, 481470, Note_on_c, 0, 82, 0
2, 481920, Note_on_c, 0, 76, 60
2, 481950, Note_on_c, 0, 79, 0
2, 482400, Note_on_c, 0, 73, 60
2, 482430, Note_on_c, 0, 76, 0
2, 482880, Note_on_c, 0, 72, 60
2, 482910, Note_on_c, 0, 73, 0
2, 483270, Note_on_c, 0, 72, 0
2, 483360, Note_on_c, 0, 76, 60
2, 483840, Note_on_c, 0, 77, 60
2, 483870, Note_on_c, 0, 76, 0
2, 484320, Note_on_c, 0, 81, 60
2, 484350, Note_on_c, 0, 77, 0
2, 484800, Note_on_c, 0, 84, 60
2, 484830, Note_on_c, 0, 81, 0
2, 485280, Note_on_c, 0, 87, 60
2, 485310, Note_on_c, 0, 84, 0
2, 485760, Note_on_c, 0, 89, 68
2, 485790, Note_on_c, 0, 87, 0
2, 486240, Note_on_c, 0, 90, 76
2, 486270, Note_on_c, 0, 89, 0
2, 486720, Note_on_c, 0, 89, 85
2, 486750, Note_on_c, 0, 90, 0
2, 487200, Note_on_c, 0, 87, 93
2, 487230, Note_on_c, 0, 89, 0
2, 487680, Note_on_c, 0, 84, 101
2, 487710, Note_on_c, 0, 87, 0
2, 488160, Note_on_c, 0, 81, 110
2, 488190, Note_on_c, 0, 84, 0
2, 488640, Note_on_c, 0, 77, 118
2, 488670, Note_on_c, 0, 81, 0
2, 488850, Note_on_c, 0, 77, 0
2, 489120, Note_on_c, 0, 78, 127
2, 489600, Note_on_c, 0, 77, 60
2, 489630, Note_on_c, 0, 78, 0
2, 490080, Note_on_c, 0, 81, 60
2, 490110, Note_on_c, 0, 77, 0
2, 490560, Note_on_c, 0, 84, 60
2, 490590, Note_on_c, 0, 81, 0
2, 491040, Note_on_c, 0, 87, 60
2, 491070, Note_on_c, 0, 84, 0
2, 491520, Note_on_c, 0, 89, 68
2, 491550, Note_on_c, 0, 87, 0
2, 492000, Note_on_c, 0, 90, 76
2, 492030, Note_on_c, 0, 89, 0
2, 492480, Note_on_c, 0, 89, 85
2, 492510, Note_on_c, 0, 90, 0
2, 492960, Note_on_c, 0, 87, 93
2, 492990, Note_on_c, 0, 89, 0
2, 493440, Note_on_c, 0, 84, 101
2, 493470, Note_on_c, 0, 87, 0
2, 493920, Note_on_c, 0, 81, 110
2, 493950, Note_on_c, 0, 84, 0
2, 494400, Note_on_c, 0, 77, 118
2, 494430, Note_on_c, 0, 81, 0
2, 494610, Note_on_c, 0, 77, 0
2, 494880, Note_on_c, 0, 78, 127
2, 495360, Note_on_c, 0, 77, 100
2, 495390, Note_on_c, 0, 78, 0
2, 495570, Note_on_c, 0, 77, 0
2, 495840, Note_on_c, 0, 87, 110
2, 496710, Note_on_c, 0, 87, 0
2, 496800, Note_on_c, 0, 86, 110
2, 497670, Note_on_c, 0, 86, 0
2, 497760, Note_on_c, 0, 91, 110
2, 497970, Note_on_c, 0, 91, 0
2, 498240, Note_on_c, 0, 89, 110
2, 499590, Note_on_c, 0, 89, 0
2, 499680, Note_on_c, 0, 81, 110
2, 501030, Note_on_c, 0, 81, 0
2, 501120, Note_on_c, 0, 82, 110
2, 503910, Note_on_c, 0, 82, 0
2, 504000, Note_on_c, 0, 81, 110
2, 504480, Note_on_c, 0, 77, 110
2, 504510, Note_on_c, 0, 81, 0
2, 504690, Note_on_c, 0, 77, 0
2, 504960, Note_on_c, 0, 84, 110
2, 505440, Note_on_c, 0, 81, 110
2, 505470, Note_on_c, 0, 84, 0
2, 505650, Note_on_c, 0, 81, 0
2, 505920, Note_on_c, 0, 87, 110
2, 506400, Note_on_c, 0, 84, 110
2, 506430, Note_on_c, 0, 87, 0
2, 506610, Note_on_c, 0, 84, 0
2, 506880, Note_on_c, 0, 82, 110
2, 509670, Note_on_c, 0, 82, 0
2, 509760, Note_on_c, 0, 81, 110
2, 510240, Note_on_c, 0, 77, 110
2, 510270, Note_on_c, 0, 81, 0
2, 510450, Note_on_c, 0, 77, 0
2, 510720, Note_on_c, 0, 84, 110
2, 511200, Note_on_c, 0, 81, 110
2, 511230, Note_on_c, 0, 84, 0
2, 511410, Note_on_c, 0, 81, 0
2, 511680, Note_on_c, 0, 87, 110
2, 512160, Note_on_c, 0, 84, 110
2, 512190, Note_on_c, 0, 87, 0
2, 512370, Note_on_c, 0, 84, 0
2, 512640, Note_on_c, 0, 82, 110
2, 513690, Note_on_c, 0, 82, 0
2, 514080, Note_on_c, 0, 86, 110
2, 515130, Note_on_c, 0, 86, 0
2, 515520, Note_on_c, 0, 89, 110
2, 515730, Note_on_c, 0, 89, 0
2, 516000, Note_on_c, 0, 89, 110
2, 516210, Note_on_c, 0, 89, 0
2, 516480, Note_on_c, 0, 89, 110
2, 516660, Note_on_c, 0, 89, 0
2, 516960, Note_on_c, 0, 82, 110
2, 517560, Note_on_c, 0, 82, 0
2, 566880, Note_on_c, 0, 89, 80
2, 568320, Note_on_c, 0, 87, 65
2, 568350, Note_on_c, 0, 89, 0
2, 568800, Note_on_c, 0, 84, 60
2, 568830, Note_on_c, 0, 87, 0
2, 569400, Note_on_c, 0, 84, 0
2, 572640, Note_on_c, 0, 89, 80
2, 574080, Note_on_c, 0, 87, 65
2, 574110, Note_on_c, 0, 89, 0
2, 574560, Note_on_c, 0, 84, 60
2, 574590, Note_on_c, 0, 87, 0
2, 575160, Note_on_c, 0, 84, 0
2, 589920, Note_on_c, 0, 82, 60
2, 590400, Note_on_c, 0, 86, 60
2, 590430, Note_on_c, 0, 82, 0
2, 591360, Note_on_c, 0, 82, 62
2, 591390, Note_on_c, 0, 86, 0
2, 591840, Note_on_c, 0, 84, 63
2, 591870, Note_on_c, 0, 82, 0
2, 592800, Note_on_c, 0, 87, 66
2, 592830, Note_on_c, 0, 84, 0
2, 593280, Note_on_c, 0, 84, 67
2, 593310, Note_on_c, 0, 87, 0
2, 594060, Note_on_c, 0, 84, 0
2, 595680, Note_on_c, 0, 84, 74
2, 596160, Note_on_c, 0, 87, 75
2, 596190, Note_on_c, 0, 84, 0
2, 597120, Note_on_c, 0, 84, 77
2, 597150, Note_on_c, 0, 87, 0
2, 597600, Note_on_c, 0, 86, 79
2, 597630, Note_on_c, 0, 84, 0
2, 598560, Note_on_c, 0, 89, 81
2, 598590, Note_on_c, 0, 86, 0
2, 599040, Note_on_c, 0, 86, 82
2, 599070, Note_on_c, 0, 89, 0
2, 599820, Note_on_c, 0, 86, 0
2, 601440, Note_on_c, 0, 86, 89
2, 601920, Note_on_c, 0, 89, 90
2, 601950, Note_on_c, 0, 86, 0
2, 602880, Note_on_c, 0, 86, 93
2, 602910, Note_on_c, 0, 89, 0
2, 603360, Note_on_c, 0, 87, 94
2, 603390, Note_on_c, 0, 86, 0
2, 604320, Note_on_c, 0, 89, 97
2, 604350, Note_on_c, 0, 87, 0
2, 604710, Note_on_c, 0, 89, 0
2, 604800, Note_on_c, 0, 91, 98
2, 607110, Note_on_c, 0, 91, 0
2, 607200, Note_on_c, 0, 89, 104
2, 607590, Note_on_c, 0, 89, 0
2, 607680, Note_on_c, 0, 87, 105
2, 608430, Note_on_c, 0, 87, 0
2, 608640, Note_on_c, 0, 87, 108
2, 608850, Note_on_c, 0, 87, 0
2, 609120, Note_on_c, 0, 87, 109
2, 609210, Note_on_c, 0, 89, 110
2, 609215, Note_on_c, 0, 87, 0
2, 609300, Note_on_c, 0, 87, 110
2, 609305, Note_on_c, 0, 89, 0
2, 609390, Note_on_c, 0, 89, 110
2, 609395, Note_on_c, 0, 87, 0
2, 609480, Note_on_c, 0, 87, 110
2, 609485, Note_on_c, 0, 89, 0
2, 609570, Note_on_c, 0, 89, 110
2, 609575, Note_on_c, 0, 87, 0
2, 609665, Note_on_c, 0, 89, 0
2, 609840, Note_on_c, 0, 86, 111
2, 610050, Note_on_c, 0, 86, 0
2, 610080, Note_on_c, 0, 87, 112
2, 610530, Note_on_c, 0, 87, 0
2, 610560, Note_on_c, 0, 86, 113
2, 611160, Note_on_c, 0, 86, 0
2, 612960, Note_on_c, 0, 86, 120
2, 613200, Note_on_c, 0, 87, 120
2, 613230, Note_on_c, 0, 86, 0
2, 613440, Note_on_c, 0, 89, 120
2, 613470, Note_on_c, 0, 87, 0
2, 614400, Note_on_c, 0, 86, 120
2, 614430, Note_on_c, 0, 89, 0
2, 614880, Note_on_c, 0, 87, 120
2, 614910, Note_on_c, 0, 86, 0
2, 615840, Note_on_c, 0, 89, 120
2, 615870, Note_on_c, 0, 87, 0
2, 616230, Note_on_c, 0, 89, 0
2, 616320, Note_on_c, 0, 91, 120
2, 616320, Control_c, 0, 11, 80
2, 616380, Control_c, 0, 11, 87
2, 616440, Control_c, 0, 11, 95
2, 616500, Control_c, 0, 11, 102
2, 616620, Control_c, 0, 11, 110
2, 616680, Control_c, 0, 11, 107
2, 616740, Control_c, 0, 11, 106
2, 616800, Control_c, 0, 11, 104
2, 616860, Control_c, 0, 11, 103
2, 616920, Control_c, 0, 11, 101
2, 616980, Control_c, 0, 11, 100
2, 617040, Control_c, 0, 11, 98
2, 617100, Control_c, 0, 11, 97
2, 617160, Control_c, 0, 11, 95
2, 617220, Control_c, 0, 11, 93
2, 617280, Control_c, 0, 11, 92
2, 617340, Control_c, 0, 11, 90
2, 617400, Control_c, 0, 11, 89
2, 617460, Control_c, 0, 11, 87
2, 617520, Control_c, 0, 11, 86
2, 617580, Control_c, 0, 11, 84
2, 617640, Control_c, 0, 11, 82
2, 617700, Control_c, 0, 11, 80
2, 618630, Note_on_c, 0, 91, 0
2, 618720, Note_on_c, 0, 89, 120
2, 619200, Note_on_c, 0, 87, 120
2, 619230, Note_on_c, 0, 89, 0
2, 619650, Note_on_c, 0, 87, 0
2, 620160, Note_on_c, 0, 87, 120
2, 620550, Note_on_c, 0, 87, 0
2, 620640, Note_on_c, 0, 87, 120
2, 620730, Note_on_c, 0, 89, 120
2, 620735, Note_on_c, 0, 87, 0
2, 620820, Note_on_c, 0, 87, 120
2, 620825, Note_on_c, 0, 89, 0
2, 620910, Note_on_c, 0, 89, 120
2, 620915, Note_on_c, 0, 87, 0
2, 621000, Note_on_c, 0, 87, 120
2, 621005, Note_on_c, 0, 89, 0
2, 621090, Note_on_c, 0, 89, 120
2, 621095, Note_on_c, 0, 87, 0
2, 621185, Note_on_c, 0, 89, 0
2, 621360, Note_on_c, 0, 86, 120
2, 621570, Note_on_c, 0, 86, 0
2, 621600, Note_on_c, 0, 87, 120
2, 622050, Note_on_c, 0, 87, 0
2, 622080, Note_on_c, 0, 86, 120
2, 622680, Note_on_c, 0, 86, 0
2, 624480, Note_on_c, 0, 89, 120
2, 624960, Note_on_c, 0, 87, 120
2, 624990, Note_on_c, 0, 89, 0
2, 625410, Note_on_c, 0, 87, 0
2, 627360, Note_on_c, 0, 89, 120
2, 627840, Note_on_c, 0, 86, 120
2, 627870, Note_on_c, 0, 89, 0
2, 628290, Note_on_c, 0, 86, 0
2, 630240, Note_on_c, 0, 89, 103
2, 630720, Note_on_c, 0, 87, 97
2, 630750, Note_on_c, 0, 89, 0
2, 631170, Note_on_c, 0, 87, 0
2, 633120, Note_on_c, 0, 89, 67
2, 633600, Note_on_c, 0, 86, 60
2, 633630, Note_on_c, 0, 89, 0
2, 634050, Note_on_c, 0, 86, 0
2, 635040, Note_on_c, 0, 86, 60
2, 635490, Note_on_c, 0, 86, 0
2, 636480, Note_on_c, 0, 86, 60
2, 636930, Note_on_c, 0, 86, 0
2, 637920, Note_on_c, 0, 86, 60
2, 638370, Note_on_c, 0, 86, 0
2, 639360, Note_on_c, 0, 86, 60
2, 639810, Note_on_c, 0, 86, 0
2, 644640, Note_on_c, 0, 81, 90
2, 645120, Note_on_c, 0, 82, 110
2, 645150, Note_on_c, 0, 81, 0
2, 645330, Note_on_c, 0, 82, 0
2, 645600, Note_on_c, 0, 77, 110
2, 646080, Note_on_c, 0, 86, 110
2, 646110, Note_on_c, 0, 77, 0
2, 646290, Note_on_c, 0, 86, 0
2, 646560, Note_on_c, 0, 82, 110
2, 647040, Note_on_c, 0, 89, 110
2, 647070, Note_on_c, 0, 82, 0
2, 647250, Note_on_c, 0, 89, 0
2, 647520, Note_on_c, 0, 86, 110
2, 647670, Note_on_c, 0, 86, 0
2, 648000, Note_on_c, 0, 89, 110
2, 648480, Note_on_c, 0, 87, 110
2, 648510, Note_on_c, 0, 89, 0
2, 648690, Note_on_c, 0, 87, 0
2, 648960, Note_on_c, 0, 84, 110
2, 649110, Note_on_c, 0, 84, 0
2, 649440, Note_on_c, 0, 81, 110
2, 650040, Note_on_c, 0, 81, 0
2, 661920, Note_on_c, 0, 85, 60
2, 662400, Note_on_c, 0, 82, 60
2, 662430, Note_on_c, 0, 85, 0
2, 662880, Note_on_c, 0, 79, 60
2, 662910, Note_on_c, 0, 82, 0
2, 663360, Note_on_c, 0, 76, 60
2, 663390, Note_on_c, 0, 79, 0
2, 663840, Note_on_c, 0, 73, 60
2, 663870, Note_on_c, 0, 76, 0
2, 664320, Note_on_c, 0, 72, 60
2, 664350, Note_on_c, 0, 73, 0
2, 664710, Note_on_c, 0, 72, 0
2, 664800, Note_on_c, 0, 76, 60
2, 665280, Note_on_c, 0, 77, 60
2, 665310, Note_on_c, 0, 76, 0
2, 665760, Note_on_c, 0, 81, 60
2, 665790, Note_on_c, 0, 77, 0
2, 666240, Note_on_c, 0, 84, 60
2, 666270, Note_on_c, 0, 81, 0
2, 666720, Note_on_c, 0, 87, 60
2, 666750, Note_on_c, 0, 84, 0
2, 667200, Note_on_c, 0, 89, 68
2, 667230, Note_on_c, 0, 87, 0
2, 667680, Note_on_c, 0, 90, 76
2, 667710, Note_on_c, 0, 89, 0
2, 668160, Note_on_c, 0, 89, 85
2, 668190, Note_on_c, 0, 90, 0
2, 668640, Note_on_c, 0, 87, 93
2, 668670, Note_on_c, 0, 89, 0
2, 669120, Note_on_c, 0, 84, 101
2, 669150, Note_on_c, 0, 87, 0
2, 669600, Note_on_c, 0, 81, 110
2, 669630, Note_on_c, 0, 84, 0
2, 670080, Note_on_c, 0, 77, 118
2, 670110, Note_on_c, 0, 81, 0
2, 670290, Note_on_c, 0, 77, 0
2, 670560, Note_on_c, 0, 78, 127
2, 671040, Note_on_c, 0, 77, 60
2, 671070, Note_on_c, 0, 78, 0
2, 671520, Note_on_c, 0, 81, 60
2, 671550, Note_on_c, 0, 77, 0
2, 672000, Note_on_c, 0, 84, 60
2, 672030, Note_on_c, 0, 81, 0
2, 672480, Note_on_c, 0, 87, 60
2, 672510, Note_on_c, 0, 84, 0
2, 672960, Note_on_c, 0, 89, 68
2, 672990, Note_on_c, 0, 87, 0
2, 673440, Note_on_c, 0, 90, 76
2, 673470, Note_on_c, 0, 89, 0
2, 673920, Note_on_c, 0, 89, 85
2, 673950, Note_on_c, 0, 90, 0
2, 674400, Note_on_c, 0, 87, 93
2, 674430, Note_on_c, 0, 89, 0
2, 674880, Note_on_c, 0, 84, 101
2, 674910, Note_on_c, 0, 87, 0
2, 675360, Note_on_c, 0, 81, 110
2, 675390, Note_on_c, 0, 84, 0
2, 675840, Note_on_c, 0, 77, 118
2, 675870, Note_on_c, 0, 81, 0
2, 676050, Note_on_c, 0, 77, 0
2, 676320, Note_on_c, 0, 78, 127
2, 676800, Note_on_c, 0, 77, 100
2, 676830, Note_on_c, 0, 78, 0
2, 677010, Note_on_c, 0, 77, 0
2, 677280, Note_on_c, 0, 87, 110
2, 678150, Note_on_c, 0, 87, 0
2, 678240, Note_on_c, 0, 86, 110
2, 679110, Note_on_c, 0, 86, 0
2, 679200, Note_on_c, 0, 91, 110
2, 679410, Note_on_c, 0, 91, 0
2, 679680, Note_on_c, 0, 89, 110
2, 681030, Note_on_c, 0, 89, 0
2, 681120, Note_on_c, 0, 81, 110
2, 682470, Note_on_c, 0, 81, 0
2, 682560, Note_on_c, 0, 82, 110
2, 685350, Note_on_c, 0, 82, 0
2, 685440, Note_on_c, 0, 81, 110
2, 685920, Note_on_c, 0, 77, 110
2, 685950, Note_on_c, 0, 81, 0
2, 686130, Note_on_c, 0, 77, 0
2, 686400, Note_on_c, 0, 84, 110
2, 686880, Note_on_c, 0, 81, 110
2, 686910, Note_on_c, 0, 84, 0
2, 687090, Note_on_c, 0, 81, 0
2, 687360, Note_on_c, 0, 87, 110
2, 687840, Note_on_c, 0, 84, 110
2, 687870, Note_on_c, 0, 87, 0
2, 688050, Note_on_c, 0, 84, 0
2, 688320, Note_on_c, 0, 82, 110
2, 691110, Note_on_c, 0, 82, 0
2, 691200, Note_on_c, 0, 81, 110
2, 691680, Note_on_c, 0, 77, 110
2, 691710, Note_on_c, 0, 81, 0
2, 691890, Note_on_c, 0, 77, 0
2, 692160, Note_on_c, 0, 84, 110
2, 692640, Note_on_c, 0, 81, 110
2, 692670, Note_on_c, 0, 84, 0
2, 692850, Note_on_c, 0, 81, 0
2, 693120, Note_on_c, 0, 87, 110
2, 693600, Note_on_c, 0, 84, 110
2, 693630, Note_on_c, 0, 87, 0
2, 693810, Note_on_c, 0, 84, 0
2, 694080, Note_on_c, 0, 82, 110
2, 695130, Note_on_c, 0, 82, 0
2, 695520, Note_on_c, 0, 86, 110
2, 696570, Note_on_c, 0, 86, 0
2, 696960, Note_on_c, 0, 89, 110
2, 697170, Note_on_c, 0, 89, 0
2, 697440, Note_on_c, 0, 89, 110
2, 697650, Note_on_c, 0, 89, 0
2, 697920, Note_on_c, 0, 89, 110
2, 698100, Note_on_c, 0, 89, 0
2, 698400, Note_on_c, 0, 82, 110
2, 699000, Note_on_c, 0, 82, 0
2, 702720, Note_on_c, 0, 82, 110
2, 703170, Note_on_c, 0, 82, 0
2, 703170, End_track
3, 0, Start_track
3, 0, Channel_prefix, 1
3, 0, Title_t, "Oboe    "
3, 0, Instrument_name_t, "Oboi    "
3, 2400, Note_on_c, 1, 65, 110
3, 2880, Note_on_c, 1, 70, 110
3, 2910, Note_on_c, 1, 65, 0
3, 3090, Note_on_c, 1, 70, 0
3, 3360, Note_on_c, 1, 70, 110
3, 3360, Note_on_c, 1, 74, 110
3, 4050, Note_on_c, 1, 70, 0
3, 4050, Note_on_c, 1, 74, 0
3, 4320, Note_on_c, 1, 70, 110
3, 4320, Note_on_c, 1, 74, 110
3, 4950, Note_on_c, 1, 70, 0
3, 4950, Note_on_c, 1, 74, 0
3, 5280, Note_on_c, 1, 70, 110
3, 5280, Note_on_c, 1, 74, 110
3, 5490, Note_on_c, 1, 70, 0
3, 5490, Note_on_c, 1, 74, 0
3, 5760, Note_on_c, 1, 72, 110
3, 5760, Note_on_c, 1, 75, 110
3, 6450, Note_on_c, 1, 72, 0
3, 6450, Note_on_c, 1, 75, 0
3, 6720, Note_on_c, 1, 72, 110
3, 6720, Note_on_c, 1, 75, 110
3, 6930, Note_on_c, 1, 72, 0
3, 6930, Note_on_c, 1, 75, 0
3, 7200, Note_on_c, 1, 72, 110
3, 7200, Note_on_c, 1, 75, 110
3, 7800, Note_on_c, 1, 72, 0
3, 7800, Note_on_c, 1, 75, 0
3, 25440, Note_on_c, 1, 67, 100
3, 25440, Note_on_c, 1, 76, 100
3, 25650, Note_on_c, 1, 67, 0
3, 25650, Note_on_c, 1, 76, 0
3, 25920, Note_on_c, 1, 69, 115
3, 25920, Note_on_c, 1, 77, 115
3, 27090, Note_on_c, 1, 69, 0
3, 27090, Note_on_c, 1, 77, 0
3, 27360, Note_on_c, 1, 77, 115
3, 27360, Note_on_c, 1, 81, 115
3, 28530, Note_on_c, 1, 77, 0
3, 28530, Note_on_c, 1, 81, 0
3, 28800, Note_on_c, 1, 81, 115
3, 28800, Note_on_c, 1, 84, 115
3, 29010, Note_on_c, 1, 81, 0
3, 29010, Note_on_c, 1, 84, 0
3, 29280, Note_on_c, 1, 81, 115
3, 29280, Note_on_c, 1, 84, 115
3, 29490, Note_on_c, 1, 81, 0
3, 29490, Note_on_c, 1, 84, 0
3, 29760, Note_on_c, 1, 81, 115
3, 29760, Note_on_c, 1, 84, 115
3, 29940, Note_on_c, 1, 81, 0
3, 29940, Note_on_c, 1, 84, 0
3, 30240, Note_on_c, 1, 69, 115
3, 30240, Note_on_c, 1, 77, 115
3, 30600, Note_on_c, 1, 69, 0
3, 30600, Note_on_c, 1, 77, 0
3, 31200, Note_on_c, 1, 65, 110
3, 31680, Note_on_c, 1, 70, 110
3, 31710, Note_on_c, 1, 65, 0
3, 31890, Note_on_c, 1, 70, 0
3, 32160, Note_on_c, 1, 70, 110
3, 32160, Note_on_c, 1, 74, 110
3, 32850, Note_on_c, 1, 70, 0
3, 32850, Note_on_c, 1, 74, 0
3, 33120, Note_on_c, 1, 70, 110
3, 33120, Note_on_c, 1, 74, 110
3, 33750, Note_on_c, 1, 70, 0
3, 33750, Note_on_c, 1, 74, 0
3, 34080, Note_on_c, 1, 70, 110
3, 34080, Note_on_c, 1, 74, 110
3, 34290, Note_on_c, 1, 70, 0
3, 34290, Note_on_c, 1, 74, 0
3, 34560, Note_on_c, 1, 72, 110
3, 34560, Note_on_c, 1, 75, 110
3, 35250, Note_on_c, 1, 72, 0
3, 35250, Note_on_c, 1, 75, 0
3, 35520, Note_on_c, 1, 72, 110
3, 35520, Note_on_c, 1, 75, 110
3, 35730, Note_on_c, 1, 72, 0
3, 35730, Note_on_c, 1, 75, 0
3, 36000, Note_on_c, 1, 72, 110
3, 36000, Note_on_c, 1, 75, 110
3, 36600, Note_on_c, 1, 72, 0
3, 36600, Note_on_c, 1, 75, 0
3, 54240, Note_on_c, 1, 67, 100
3, 54240, Note_on_c, 1, 76, 100
3, 54450, Note_on_c, 1, 67, 0
3, 54450, Note_on_c, 1, 76, 0
3, 54720, Note_on_c, 1, 69, 115
3, 54720, Note_on_c, 1, 77, 115
3, 55890, Note_on_c, 1, 69, 0
3, 55890, Note_on_c, 1, 77, 0
3, 56160, Note_on_c, 1, 77, 115
3, 56160, Note_on_c, 1, 81, 115
3, 57330, Note_on_c, 1, 77, 0
3, 57330, Note_on_c, 1, 81, 0
3, 57600, Note_on_c, 1, 81, 115
3, 57600, Note_on_c, 1, 84, 115
3, 57810, Note_on_c, 1, 81, 0
3, 57810, Note_on_c, 1, 84, 0
3, 58080, Note_on_c, 1, 81, 115
3, 58080, Note_on_c, 1, 84, 115
3, 58290, Note_on_c, 1, 81, 0
3, 58290, Note_on_c, 1, 84, 0
3, 58560, Note_on_c, 1, 81, 115
3, 58560, Note_on_c, 1, 84, 115
3, 58740, Note_on_c, 1, 81, 0
3, 58740, Note_on_c, 1, 84, 0
3, 59040, Note_on_c, 1, 69, 115
3, 59040, Note_on_c, 1, 77, 115
3, 59400, Note_on_c, 1, 69, 0
3, 59400, Note_on_c, 1, 77, 0
3, 60480, Note_on_c, 1, 73, 60
3, 60480, Note_on_c, 1, 77, 60
3, 60870, Note_on_c, 1, 73, 0
3, 60870, Note_on_c, 1, 77, 0
3, 60960, Note_on_c, 1, 73, 60
3, 60960, Note_on_c, 1, 77, 60
3, 61830, Note_on_c, 1, 73, 0
3, 61830, Note_on_c, 1, 77, 0
3, 61920, Note_on_c, 1, 73, 60
3, 61920, Note_on_c, 1, 77, 60
3, 62730, Note_on_c, 1, 73, 0
3, 62730, Note_on_c, 1, 77, 0
3, 62880, Note_on_c, 1, 73, 60
3, 62880, Note_on_c, 1, 77, 60
3, 63270, Note_on_c, 1, 73, 0
3, 63270, Note_on_c, 1, 77, 0
3, 63360, Note_on_c, 1, 75, 60
3, 63360, Note_on_c, 1, 78, 60
3, 64230, Note_on_c, 1, 75, 0
3, 64230, Note_on_c, 1, 78, 0
3, 64320, Note_on_c, 1, 75, 60
3, 64320, Note_on_c, 1, 78, 60
3, 64710, Note_on_c, 1, 75, 0
3, 64710, Note_on_c, 1, 78, 0
3, 64800, Note_on_c, 1, 75, 60
3, 64800, Note_on_c, 1, 78, 60
3, 65430, Note_on_c, 1, 75, 0
3, 65430, Note_on_c, 1, 78, 0
3, 68160, Note_on_c, 1, 75, 60
3, 68160, Note_on_c, 1, 78, 60
3, 68550, Note_on_c, 1, 75, 0
3, 68550, Note_on_c, 1, 78, 0
3, 68640, Note_on_c, 1, 78, 60
3, 68640, Note_on_c, 1, 80, 60
3, 69030, Note_on_c, 1, 78, 0
3, 69030, Note_on_c, 1, 80, 0
3, 69120, Note_on_c, 1, 77, 60
3, 69120, Note_on_c, 1, 80, 60
3, 69990, Note_on_c, 1, 77, 0
3, 69990, Note_on_c, 1, 80, 0
3, 70080, Note_on_c, 1, 77, 60
3, 70080, Note_on_c, 1, 80, 60
3, 70470, Note_on_c, 1, 77, 0
3, 70470, Note_on_c, 1, 80, 0
3, 70560, Note_on_c, 1, 77, 60
3, 70560, Note_on_c, 1, 80, 60
3, 71190, Note_on_c, 1, 77, 0
3, 71190, Note_on_c, 1, 80, 0
3, 73920, Note_on_c, 1, 77, 60
3, 73920, Note_on_c, 1, 80, 60
3, 74130, Note_on_c, 1, 77, 0
3, 74130, Note_on_c, 1, 80, 0
3, 74400, Note_on_c, 1, 77, 60
3, 74400, Note_on_c, 1, 80, 60
3, 74610, Note_on_c, 1, 77, 0
3, 74610, Note_on_c, 1, 80, 0
3, 74880, Note_on_c, 1, 77, 60
3, 74880, Note_on_c, 1, 80, 60
3, 75570, Note_on_c, 1, 77, 0
3, 75570, Note_on_c, 1, 80, 0
3, 75840, Note_on_c, 1, 77, 60
3, 75840, Note_on_c, 1, 80, 60
3, 76050, Note_on_c, 1, 77, 0
3, 76050, Note_on_c, 1, 80, 0
3, 76320, Note_on_c, 1, 77, 60
3, 76320, Note_on_c, 1, 80, 60
3, 76770, Note_on_c, 1, 77, 0
3, 76770, Note_on_c, 1, 80, 0
3, 79680, Note_on_c, 1, 77, 60
3, 79680, Note_on_c, 1, 80, 60
3, 79890, Note_on_c, 1, 77, 0
3, 79890, Note_on_c, 1, 80, 0
3, 80160, Note_on_c, 1, 77, 60
3, 80160, Note_on_c, 1, 80, 60
3, 80370, Note_on_c, 1, 77, 0
3, 80370, Note_on_c, 1, 80, 0
3, 80640, Note_on_c, 1, 75, 60
3, 80640, Note_on_c, 1, 78, 60
3, 80850, Note_on_c, 1, 75, 0
3, 80850, Note_on_c, 1, 78, 0
3, 94080, Note_on_c, 1, 74, 70
3, 94560, Note_on_c, 1, 79, 70
3, 94590, Note_on_c, 1, 74, 0
3, 94770, Note_on_c, 1, 79, 0
3, 95040, Note_on_c, 1, 72, 70
3, 95040, Note_on_c, 1, 75, 70
3, 95490, Note_on_c, 1, 72, 0
3, 95490, Note_on_c, 1, 75, 0
3, 99840, Note_on_c, 1, 76, 70
3, 100320, Note_on_c, 1, 81, 70
3, 100350, Note_on_c, 1, 76, 0
3, 100530, Note_on_c, 1, 81, 0
3, 100800, Note_on_c, 1, 77, 70
3, 101250, Note_on_c, 1, 77, 0
3, 106080, Note_on_c, 1, 72, 80
3, 106080, Note_on_c, 1, 75, 80
3, 106560, Note_on_c, 1, 70, 100
3, 106560, Note_on_c, 1, 74, 100
3, 106590, Note_on_c, 1, 72, 0
3, 106590, Note_on_c, 1, 75, 0
3, 106770, Note_on_c, 1, 70, 0
3, 106770, Note_on_c, 1, 74, 0
3, 107040, Note_on_c, 1, 65, 100
3, 107520, Note_on_c, 1, 74, 100
3, 107550, Note_on_c, 1, 65, 0
3, 107730, Note_on_c, 1, 74, 0
3, 108000, Note_on_c, 1, 70, 100
3, 108480, Note_on_c, 1, 77, 100
3, 108510, Note_on_c, 1, 70, 0
3, 108690, Note_on_c, 1, 77, 0
3, 108960, Note_on_c, 1, 74, 100
3, 109110, Note_on_c, 1, 74, 0
3, 109440, Note_on_c, 1, 77, 100
3, 109920, Note_on_c, 1, 75, 100
3, 109950, Note_on_c, 1, 77, 0
3, 110130, Note_on_c, 1, 75, 0
3, 110400, Note_on_c, 1, 72, 100
3, 110550, Note_on_c, 1, 72, 0
3, 110880, Note_on_c, 1, 69, 100
3, 111480, Note_on_c, 1, 69, 0
3, 132000, Note_on_c, 1, 72, 110
3, 132000, Note_on_c, 1, 75, 110
3, 132750, Note_on_c, 1, 72, 0
3, 132750, Note_on_c, 1, 75, 0
3, 137760, Note_on_c, 1, 72, 110
3, 137760, Note_on_c, 1, 75, 110
3, 138630, Note_on_c, 1, 72, 0
3, 138630, Note_on_c, 1, 75, 0
3, 138720, Note_on_c, 1, 75, 110
3, 138720, Note_on_c, 1, 81, 110
3, 139590, Note_on_c, 1, 75, 0
3, 139590, Note_on_c, 1, 81, 0
3, 139680, Note_on_c, 1, 74, 110
3, 139680, Note_on_c, 1, 82, 110
3, 140550, Note_on_c, 1, 74, 0
3, 140550, Note_on_c, 1, 82, 0
3, 140640, Note_on_c, 1, 75, 110
3, 140640, Note_on_c, 1, 79, 110
3, 140850, Note_on_c, 1, 75, 0
3, 140850, Note_on_c, 1, 79, 0
3, 141120, Note_on_c, 1, 74, 110
3, 141120, Note_on_c, 1, 77, 110
3, 142470, Note_on_c, 1, 74, 0
3, 142470, Note_on_c, 1, 77, 0
3, 142560, Note_on_c, 1, 72, 110
3, 142560, Note_on_c, 1, 81, 110
3, 143910, Note_on_c, 1, 72, 0
3, 143910, Note_on_c, 1, 81, 0
3, 144000, Note_on_c, 1, 74, 110
3, 144000, Note_on_c, 1, 82, 110
3, 146790, Note_on_c, 1, 74, 0
3, 146790, Note_on_c, 1, 82, 0
3, 146880, Note_on_c, 1, 72, 110
3, 146880, Note_on_c, 1, 81, 110
3, 149670, Note_on_c, 1, 72, 0
3, 149670, Note_on_c, 1, 81, 0
3, 149760, Note_on_c, 1, 74, 110
3, 149760, Note_on_c, 1, 82, 110
3, 152550, Note_on_c, 1, 74, 0
3, 152550, Note_on_c, 1, 82, 0
3, 152640, Note_on_c, 1, 72, 110
3, 152640, Note_on_c, 1, 81, 110
3, 155430, Note_on_c, 1, 72, 0
3, 155430, Note_on_c, 1, 81, 0
3, 155520, Note_on_c, 1, 74, 110
3, 155520, Note_on_c, 1, 82, 110
3, 156570, Note_on_c, 1, 74, 0
3, 156570, Note_on_c, 1, 82, 0
3, 156960, Note_on_c, 1, 74, 110
3, 156960, Note_on_c, 1, 86, 110
3, 158010, Note_on_c, 1, 74, 0
3, 158010, Note_on_c, 1, 86, 0
3, 158400, Note_on_c, 1, 74, 110
3, 158400, Note_on_c, 1, 77, 110
3, 158610, Note_on_c, 1, 74, 0
3, 158610, Note_on_c, 1, 77, 0
3, 158880, Note_on_c, 1, 74, 110
3, 158880, Note_on_c, 1, 77, 110
3, 159090, Note_on_c, 1, 74, 0
3, 159090, Note_on_c, 1, 77, 0
3, 159360, Note_on_c, 1, 74, 110
3, 159360, Note_on_c, 1, 77, 110
3, 159540, Note_on_c, 1, 74, 0
3, 159540, Note_on_c, 1, 77, 0
3, 159840, Note_on_c, 1, 70, 110
3, 160440, Note_on_c, 1, 70, 0
3, 161280, Note_on_c, 1, 73, 60
3, 161280, Note_on_c, 1, 77, 60
3, 161670, Note_on_c, 1, 73, 0
3, 161670, Note_on_c, 1, 77, 0
3, 161760, Note_on_c, 1, 73, 60
3, 161760, Note_on_c, 1, 77, 60
3, 162630, Note_on_c, 1, 73, 0
3, 162630, Note_on_c, 1, 77, 0
3, 162720, Note_on_c, 1, 73, 60
3, 162720, Note_on_c, 1, 77, 60
3, 163530, Note_on_c, 1, 73, 0
3, 163530, Note_on_c, 1, 77, 0
3, 163680, Note_on_c, 1, 73, 60
3, 163680, Note_on_c, 1, 77, 60
3, 164070, Note_on_c, 1, 73, 0
3, 164070, Note_on_c, 1, 77, 0
3, 164160, Note_on_c, 1, 75, 60
3, 164160, Note_on_c, 1, 78, 60
3, 165030, Note_on_c, 1, 75, 0
3, 165030, Note_on_c, 1, 78, 0
3, 165120, Note_on_c, 1, 75, 60
3, 165120, Note_on_c, 1, 78, 60
3, 165510, Note_on_c, 1, 75, 0
3, 165510, Note_on_c, 1, 78, 0
3, 165600, Note_on_c, 1, 75, 60
3, 165600, Note_on_c, 1, 78, 60
3, 166230, Note_on_c, 1, 75, 0
3, 166230, Note_on_c, 1, 78, 0
3, 168960, Note_on_c, 1, 75, 60
3, 168960, Note_on_c, 1, 78, 60
3, 169350, Note_on_c, 1, 75, 0
3, 169350, Note_on_c, 1, 78, 0
3, 169440, Note_on_c, 1, 78, 60
3, 169440, Note_on_c, 1, 80, 60
3, 169830, Note_on_c, 1, 78, 0
3, 169830, Note_on_c, 1, 80, 0
3, 169920, Note_on_c, 1, 77, 60
3, 169920, Note_on_c, 1, 80, 60
3, 170790, Note_on_c, 1, 77, 0
3, 170790, Note_on_c, 1, 80, 0
3, 170880, Note_on_c, 1, 77, 60
3, 170880, Note_on_c, 1, 80, 60
3, 171270, Note_on_c, 1, 77, 0
3, 171270, Note_on_c, 1, 80, 0
3, 171360, Note_on_c, 1, 77, 60
3, 171360, Note_on_c, 1, 80, 60
3, 171990, Note_on_c, 1, 77, 0
3, 171990, Note_on_c, 1, 80, 0
3, 174720, Note_on_c, 1, 77, 60
3, 174720, Note_on_c, 1, 80, 60
3, 174930, Note_on_c, 1, 77, 0
3, 174930, Note_on_c, 1, 80, 0
3, 175200, Note_on_c, 1, 77, 60
3, 175200, Note_on_c, 1, 80, 60
3, 175410, Note_on_c, 1, 77, 0
3, 175410, Note_on_c, 1, 80, 0
3, 175680, Note_on_c, 1, 77, 60
3, 175680, Note_on_c, 1, 80, 60
3, 176370, Note_on_c, 1, 77, 0
3, 176370, Note_on_c, 1, 80, 0
3, 176640, Note_on_c, 1, 77, 60
3, 176640, Note_on_c, 1, 80, 60
3, 176850, Note_on_c, 1, 77, 0
3, 176850, Note_on_c, 1, 80, 0
3, 177120, Note_on_c, 1, 77, 60
3, 177120, Note_on_c, 1, 80, 60
3, 177570, Note_on_c, 1, 77, 0
3, 177570, Note_on_c, 1, 80, 0
3, 180480, Note_on_c, 1, 77, 60
3, 180480, Note_on_c, 1, 80, 60
3, 180690, Note_on_c, 1, 77, 0
3, 180690, Note_on_c, 1, 80, 0
3, 180960, Note_on_c, 1, 77, 60
3, 180960, Note_on_c, 1, 80, 60
3, 181170, Note_on_c, 1, 77, 0
3, 181170, Note_on_c, 1, 80, 0
3, 181440, Note_on_c, 1, 75, 60
3, 181440, Note_on_c, 1, 78, 60
3, 181650, Note_on_c, 1, 75, 0
3, 181650, Note_on_c, 1, 78, 0
3, 194880, Note_on_c, 1, 74, 70
3, 195360, Note_on_c, 1, 79, 70
3, 195390, Note_on_c, 1, 74, 0
3, 195570, Note_on_c, 1, 79, 0
3, 195840, Note_on_c, 1, 72, 70
3, 195840, Note_on_c, 1, 75, 70
3, 196290, Note_on_c, 1, 72, 0
3, 196290, Note_on_c, 1, 75, 0
3, 200640, Note_on_c, 1, 76, 70
3, 201120, Note_on_c, 1, 81, 70
3, 201150, Note_on_c, 1, 76, 0
3, 201330, Note_on_c, 1, 81, 0
3, 201600, Note_on_c, 1, 77, 70
3, 202050, Note_on_c, 1, 77, 0
3, 206880, Note_on_c, 1, 72, 80
3, 206880, Note_on_c, 1, 75, 80
3, 207360, Note_on_c, 1, 70, 100
3, 207360, Note_on_c, 1, 74, 100
3, 207390, Note_on_c, 1, 72, 0
3, 207390, Note_on_c, 1, 75, 0
3, 207570, Note_on_c, 1, 70, 0
3, 207570, Note_on_c, 1, 74, 0
3, 207840, Note_on_c, 1, 65, 100
3, 208320, Note_on_c, 1, 74, 100
3, 208350, Note_on_c, 1, 65, 0
3, 208530, Note_on_c, 1, 74, 0
3, 208800, Note_on_c, 1, 70, 100
3, 209280, Note_on_c, 1, 77, 100
3, 209310, Note_on_c, 1, 70, 0
3, 209490, Note_on_c, 1, 77, 0
3, 209760, Note_on_c, 1, 74, 100
3, 209910, Note_on_c, 1, 74, 0
3, 210240, Note_on_c, 1, 77, 100
3, 210720, Note_on_c, 1, 75, 100
3, 210750, Note_on_c, 1, 77, 0
3, 210930, Note_on_c, 1, 75, 0
3, 211200, Note_on_c, 1, 72, 100
3, 211350, Note_on_c, 1, 72, 0
3, 211680, Note_on_c, 1, 69, 100
3, 212280, Note_on_c, 1, 69, 0
3, 232800, Note_on_c, 1, 72, 110
3, 232800, Note_on_c, 1, 75, 110
3, 233550, Note_on_c, 1, 72, 0
3, 233550, Note_on_c, 1, 75, 0
3, 238560, Note_on_c, 1, 72, 110
3, 238560, Note_on_c, 1, 75, 110
3, 239430, Note_on_c, 1, 72, 0
3, 239430, Note_on_c, 1, 75, 0
3, 239520, Note_on_c, 1, 75, 110
3, 239520, Note_on_c, 1, 81, 110
3, 240390, Note_on_c, 1, 75, 0
3, 240390, Note_on_c, 1, 81, 0
3, 240480, Note_on_c, 1, 74, 110
3, 240480, Note_on_c, 1, 82, 110
3, 241350, Note_on_c, 1, 74, 0
3, 241350, Note_on_c, 1, 82, 0
3, 241440, Note_on_c, 1, 75, 110
3, 241440, Note_on_c, 1, 79, 110
3, 241650, Note_on_c, 1, 75, 0
3, 241650, Note_on_c, 1, 79, 0
3, 241920, Note_on_c, 1, 74, 110
3, 241920, Note_on_c, 1, 77, 110
3, 243270, Note_on_c, 1, 74, 0
3, 243270, Note_on_c, 1, 77, 0
3, 243360, Note_on_c, 1, 72, 110
3, 243360, Note_on_c, 1, 81, 110
3, 244710, Note_on_c, 1, 72, 0
3, 244710, Note_on_c, 1, 81, 0
3, 244800, Note_on_c, 1, 74, 110
3, 244800, Note_on_c, 1, 82, 110
3, 247590, Note_on_c, 1, 74, 0
3, 247590, Note_on_c, 1, 82, 0
3, 247680, Note_on_c, 1, 72, 110
3, 247680, Note_on_c, 1, 81, 110
3, 250470, Note_on_c, 1, 72, 0
3, 250470, Note_on_c, 1, 81, 0
3, 250560, Note_on_c, 1, 74, 110
3, 250560, Note_on_c, 1, 82, 110
3, 253350, Note_on_c, 1, 74, 0
3, 253350, Note_on_c, 1, 82, 0
3, 253440, Note_on_c, 1, 72, 110
3, 253440, Note_on_c, 1, 81, 110
3, 256230, Note_on_c, 1, 72, 0
3, 256230, Note_on_c, 1, 81, 0
3, 256320, Note_on_c, 1, 74, 110
3, 256320, Note_on_c, 1, 82, 110
3, 257370, Note_on_c, 1, 74, 0
3, 257370, Note_on_c, 1, 82, 0
3, 257760, Note_on_c, 1, 74, 110
3, 257760, Note_on_c, 1, 86, 110
3, 258810, Note_on_c, 1, 74, 0
3, 258810, Note_on_c, 1, 86, 0
3, 259200, Note_on_c, 1, 74, 110
3, 259200, Note_on_c, 1, 77, 110
3, 259410, Note_on_c, 1, 74, 0
3, 259410, Note_on_c, 1, 77, 0
3, 259680, Note_on_c, 1, 74, 110
3, 259680, Note_on_c, 1, 77, 110
3, 259890, Note_on_c, 1, 74, 0
3, 259890, Note_on_c, 1, 77, 0
3, 260160, Note_on_c, 1, 74, 110
3, 260160, Note_on_c, 1, 77, 110
3, 260340, Note_on_c, 1, 74, 0
3, 260340, Note_on_c, 1, 77, 0
3, 260640, Note_on_c, 1, 70, 110
3, 261240, Note_on_c, 1, 70, 0
3, 261600, Note_on_c, 1, 70, 90
3, 262080, Note_on_c, 1, 74, 90
3, 262110, Note_on_c, 1, 70, 0
3, 263040, Note_on_c, 1, 70, 90
3, 263070, Note_on_c, 1, 74, 0
3, 263520, Note_on_c, 1, 72, 90
3, 263550, Note_on_c, 1, 70, 0
3, 264480, Note_on_c, 1, 75, 90
3, 264510, Note_on_c, 1, 72, 0
3, 264960, Note_on_c, 1, 72, 90
3, 264990, Note_on_c, 1, 75, 0
3, 265740, Note_on_c, 1, 72, 0
3, 267360, Note_on_c, 1, 72, 90
3, 267840, Note_on_c, 1, 75, 90
3, 267870, Note_on_c, 1, 72, 0
3, 268800, Note_on_c, 1, 72, 90
3, 268830, Note_on_c, 1, 75, 0
3, 269280, Note_on_c, 1, 74, 90
3, 269310, Note_on_c, 1, 72, 0
3, 270240, Note_on_c, 1, 77, 90
3, 270270, Note_on_c, 1, 74, 0
3, 270720, Note_on_c, 1, 74, 90
3, 270750, Note_on_c, 1, 77, 0
3, 271500, Note_on_c, 1, 74, 0
3, 273120, Note_on_c, 1, 74, 90
3, 273600, Note_on_c, 1, 77, 90
3, 273600, Control_c, 1, 11, 80
3, 273630, Note_on_c, 1, 74, 0
3, 273720, Control_c, 1, 11, 81
3, 273830, Control_c, 1, 11, 82
3, 273950, Control_c, 1, 11, 83
3, 274060, Control_c, 1, 11, 84
3, 274180, Control_c, 1, 11, 85
3, 274290, Control_c, 1, 11, 86
3, 274400, Control_c, 1, 11, 87
3, 274520, Control_c, 1, 11, 88
3, 274560, Note_on_c, 1, 74, 90
3, 274590, Note_on_c, 1, 77, 0
3, 274630, Control_c, 1, 11, 89
3, 274750, Control_c, 1, 11, 90
3, 274860, Control_c, 1, 11, 91
3, 274980, Control_c, 1, 11, 92
3, 275040, Note_on_c, 1, 75, 90
3, 275070, Note_on_c, 1, 74, 0
3, 275090, Control_c, 1, 11, 93
3, 275200, Control_c, 1, 11, 94
3, 275320, Control_c, 1, 11, 95
3, 275430, Control_c, 1, 11, 96
3, 275550, Control_c, 1, 11, 97
3, 275660, Control_c, 1, 11, 98
3, 275780, Control_c, 1, 11, 99
3, 275890, Control_c, 1, 11, 100
3, 276000, Note_on_c, 1, 77, 90
3, 276030, Note_on_c, 1, 75, 0
3, 276474, Control_c, 1, 11, 110
3, 276480, Note_on_c, 1, 79, 90
3, 276510, Note_on_c, 1, 77, 0
3, 276720, Control_c, 1, 11, 110
3, 276810, Control_c, 1, 11, 109
3, 276900, Control_c, 1, 11, 108
3, 276980, Control_c, 1, 11, 107
3, 277070, Control_c, 1, 11, 106
3, 277150, Control_c, 1, 11, 105
3, 277240, Control_c, 1, 11, 104
3, 277320, Control_c, 1, 11, 103
3, 277410, Control_c, 1, 11, 102
3, 277490, Control_c, 1, 11, 101
3, 277580, Control_c, 1, 11, 100
3, 277660, Control_c, 1, 11, 99
3, 277750, Control_c, 1, 11, 98
3, 277830, Control_c, 1, 11, 97
3, 277920, Control_c, 1, 11, 96
3, 278000, Control_c, 1, 11, 95
3, 278090, Control_c, 1, 11, 94
3, 278170, Control_c, 1, 11, 93
3, 278260, Control_c, 1, 11, 92
3, 278340, Control_c, 1, 11, 91
3, 278430, Control_c, 1, 11, 90
3, 278510, Control_c, 1, 11, 89
3, 278600, Control_c, 1, 11, 88
3, 278680, Control_c, 1, 11, 87
3, 278770, Control_c, 1, 11, 86
3, 278790, Note_on_c, 1, 79, 0
3, 278850, Control_c, 1, 11, 85
3, 278880, Note_on_c, 1, 79, 90
3, 278940, Control_c, 1, 11, 84
3, 279020, Control_c, 1, 11, 83
3, 279110, Control_c, 1, 11, 82
3, 279190, Control_c, 1, 11, 81
3, 279280, Control_c, 1, 11, 80
3, 279360, Note_on_c, 1, 77, 90
3, 279390, Note_on_c, 1, 79, 0
3, 279810, Note_on_c, 1, 77, 0
3, 280320, Note_on_c, 1, 77, 90
3, 280530, Note_on_c, 1, 77, 0
3, 280800, Note_on_c, 1, 75, 90
3, 280890, Note_on_c, 1, 77, 90
3, 280895, Note_on_c, 1, 75, 0
3, 280980, Note_on_c, 1, 75, 90
3, 280985, Note_on_c, 1, 77, 0
3, 281070, Note_on_c, 1, 77, 90
3, 281075, Note_on_c, 1, 75, 0
3, 281160, Note_on_c, 1, 75, 90
3, 281165, Note_on_c, 1, 77, 0
3, 281250, Note_on_c, 1, 77, 90
3, 281255, Note_on_c, 1, 75, 0
3, 281345, Note_on_c, 1, 77, 0
3, 281520, Note_on_c, 1, 74, 90
3, 281730, Note_on_c, 1, 74, 0
3, 281760, Note_on_c, 1, 75, 90
3, 282210, Note_on_c, 1, 75, 0
3, 282240, Note_on_c, 1, 74, 90
3, 283020, Note_on_c, 1, 74, 0
3, 284640, Note_on_c, 1, 70, 90
3, 284880, Note_on_c, 1, 72, 90
3, 284910, Note_on_c, 1, 70, 0
3, 285120, Note_on_c, 1, 74, 90
3, 285150, Note_on_c, 1, 72, 0
3, 286080, Note_on_c, 1, 70, 90
3, 286110, Note_on_c, 1, 74, 0
3, 286560, Note_on_c, 1, 72, 90
3, 286590, Note_on_c, 1, 70, 0
3, 287520, Note_on_c, 1, 75, 90
3, 287550, Note_on_c, 1, 72, 0
3, 288000, Note_on_c, 1, 72, 90
3, 288030, Note_on_c, 1, 75, 0
3, 288600, Note_on_c, 1, 72, 0
3, 290400, Note_on_c, 1, 72, 90
3, 290640, Note_on_c, 1, 74, 90
3, 290670, Note_on_c, 1, 72, 0
3, 290880, Note_on_c, 1, 75, 90
3, 290910, Note_on_c, 1, 74, 0
3, 291840, Note_on_c, 1, 72, 90
3, 291870, Note_on_c, 1, 75, 0
3, 292320, Note_on_c, 1, 74, 90
3, 292350, Note_on_c, 1, 72, 0
3, 293280, Note_on_c, 1, 77, 90
3, 293310, Note_on_c, 1, 74, 0
3, 293760, Note_on_c, 1, 74, 90
3, 293790, Note_on_c, 1, 77, 0
3, 294360, Note_on_c, 1, 74, 0
3, 296160, Note_on_c, 1, 74, 90
3, 296400, Note_on_c, 1, 75, 90
3, 296430, Note_on_c, 1, 74, 0
3, 296640, Note_on_c, 1, 77, 90
3, 296640, Control_c, 1, 11, 80
3, 296670, Note_on_c, 1, 75, 0
3, 296910, Control_c, 1, 11, 82
3, 297170, Control_c, 1, 11, 84
3, 297440, Control_c, 1, 11, 86
3, 297600, Note_on_c, 1, 74, 90
3, 297630, Note_on_c, 1, 77, 0
3, 297700, Control_c, 1, 11, 88
3, 297960, Control_c, 1, 11, 91
3, 298080, Note_on_c, 1, 75, 90
3, 298110, Note_on_c, 1, 74, 0
3, 298230, Control_c, 1, 11, 93
3, 298490, Control_c, 1, 11, 95
3, 298760, Control_c, 1, 11, 97
3, 299020, Control_c, 1, 11, 100
3, 299040, Note_on_c, 1, 77, 90
3, 299070, Note_on_c, 1, 75, 0
3, 299514, Control_c, 1, 11, 110
3, 299520, Note_on_c, 1, 79, 90
3, 299550, Note_on_c, 1, 77, 0
3, 299660, Control_c, 1, 11, 109
3, 299800, Control_c, 1, 11, 107
3, 299940, Control_c, 1, 11, 106
3, 300070, Control_c, 1, 11, 104
3, 300210, Control_c, 1, 11, 103
3, 300350, Control_c, 1, 11, 101
3, 300480, Control_c, 1, 11, 100
3, 300620, Control_c, 1, 11, 99
3, 300760, Control_c, 1, 11, 97
3, 300900, Control_c, 1, 11, 96
3, 301030, Control_c, 1, 11, 94
3, 301170, Control_c, 1, 11, 93
3, 301310, Control_c, 1, 11, 91
3, 301440, Control_c, 1, 11, 90
3, 301580, Control_c, 1, 11, 88
3, 301720, Control_c, 1, 11, 87
3, 301830, Note_on_c, 1, 79, 0
3, 301860, Control_c, 1, 11, 85
3, 301920, Note_on_c, 1, 77, 90
3, 301990, Control_c, 1, 11, 84
3, 302130, Control_c, 1, 11, 82
3, 302270, Control_c, 1, 11, 80
3, 302310, Note_on_c, 1, 77, 0
3, 302400, Note_on_c, 1, 75, 90
3, 302670, Note_on_c, 1, 75, 0
3, 303360, Note_on_c, 1, 75, 90
3, 303570, Note_on_c, 1, 75, 0
3, 303840, Note_on_c, 1, 75, 90
3, 303930, Note_on_c, 1, 77, 90
3, 303935, Note_on_c, 1, 75, 0
3, 304020, Note_on_c, 1, 75, 90
3, 304025, Note_on_c, 1, 77, 0
3, 304110, Note_on_c, 1, 77, 90
3, 304115, Note_on_c, 1, 75, 0
3, 304200, Note_on_c, 1, 75, 90
3, 304205, Note_on_c, 1, 77, 0
3, 304290, Note_on_c, 1, 77, 90
3, 304295, Note_on_c, 1, 75, 0
3, 304385, Note_on_c, 1, 77, 0
3, 304560, Note_on_c, 1, 74, 90
3, 304770, Note_on_c, 1, 74, 0
3, 304800, Note_on_c, 1, 75, 90
3, 305250, Note_on_c, 1, 75, 0
3, 305280, Note_on_c, 1, 75, 90
3, 305880, Note_on_c, 1, 75, 0
3, 310560, Note_on_c, 1, 77, 80
3, 312000, Note_on_c, 1, 75, 65
3, 312030, Note_on_c, 1, 77, 0
3, 312480, Note_on_c, 1, 72, 60
3, 312510, Note_on_c, 1, 75, 0
3, 313080, Note_on_c, 1, 72, 0
3, 316320, Note_on_c, 1, 77, 80
3, 317760, Note_on_c, 1, 75, 65
3, 317790, Note_on_c, 1, 77, 0
3, 318240, Note_on_c, 1, 72, 60
3, 318270, Note_on_c, 1, 75, 0
3, 318840, Note_on_c, 1, 72, 0
3, 333600, Note_on_c, 1, 74, 60
3, 333600, Note_on_c, 1, 82, 60
3, 334080, Note_on_c, 1, 77, 61
3, 334110, Note_on_c, 1, 74, 0
3, 335040, Note_on_c, 1, 74, 64
3, 335070, Note_on_c, 1, 77, 0
3, 335520, Note_on_c, 1, 75, 65
3, 335550, Note_on_c, 1, 74, 0
3, 336480, Note_on_c, 1, 79, 68
3, 336510, Note_on_c, 1, 75, 0
3, 336960, Note_on_c, 1, 75, 69
3, 336990, Note_on_c, 1, 79, 0
3, 337680, Note_on_c, 1, 82, 0
3, 337740, Note_on_c, 1, 75, 0
3, 339360, Note_on_c, 1, 75, 76
3, 339360, Note_on_c, 1, 82, 76
3, 339840, Note_on_c, 1, 79, 77
3, 339870, Note_on_c, 1, 75, 0
3, 340800, Note_on_c, 1, 75, 80
3, 340830, Note_on_c, 1, 79, 0
3, 341280, Note_on_c, 1, 77, 81
3, 341310, Note_on_c, 1, 75, 0
3, 342240, Note_on_c, 1, 80, 84
3, 342270, Note_on_c, 1, 77, 0
3, 342720, Note_on_c, 1, 77, 86
3, 342750, Note_on_c, 1, 80, 0
3, 343440, Note_on_c, 1, 82, 0
3, 343500, Note_on_c, 1, 77, 0
3, 356640, Note_on_c, 1, 70, 120
3, 356640, Note_on_c, 1, 74, 120
3, 356880, Note_on_c, 1, 71, 120
3, 356880, Note_on_c, 1, 75, 120
3, 356910, Note_on_c, 1, 70, 0
3, 356910, Note_on_c, 1, 74, 0
3, 357120, Note_on_c, 1, 74, 120
3, 357120, Note_on_c, 1, 77, 120
3, 357150, Note_on_c, 1, 71, 0
3, 357150, Note_on_c, 1, 75, 0
3, 358080, Note_on_c, 1, 70, 120
3, 358110, Note_on_c, 1, 77, 0
3, 358560, Note_on_c, 1, 72, 120
3, 358560, Note_on_c, 1, 75, 120
3, 358590, Note_on_c, 1, 70, 0
3, 358590, Note_on_c, 1, 74, 0
3, 359520, Note_on_c, 1, 74, 120
3, 359520, Note_on_c, 1, 77, 120
3, 359550, Note_on_c, 1, 72, 0
3, 359550, Note_on_c, 1, 75, 0
3, 359910, Note_on_c, 1, 74, 0
3, 359910, Note_on_c, 1, 77, 0
3, 360000, Note_on_c, 1, 75, 120
3, 360000, Note_on_c, 1, 79, 120
3, 360000, Control_c, 1, 11, 80
3, 360060, Control_c, 1, 11, 87
3, 360120, Control_c, 1, 11, 95
3, 360180, Control_c, 1, 11, 102
3, 360300, Control_c, 1, 11, 110
3, 360360, Control_c, 1, 11, 107
3, 360420, Control_c, 1, 11, 106
3, 360480, Control_c, 1, 11, 104
3, 360540, Control_c, 1, 11, 103
3, 360600, Control_c, 1, 11, 101
3, 360660, Control_c, 1, 11, 100
3, 360720, Control_c, 1, 11, 98
3, 360780, Control_c, 1, 11, 97
3, 360840, Control_c, 1, 11, 95
3, 360900, Control_c, 1, 11, 93
3, 360960, Control_c, 1, 11, 92
3, 361020, Control_c, 1, 11, 90
3, 361080, Control_c, 1, 11, 89
3, 361140, Control_c, 1, 11, 87
3, 361200, Control_c, 1, 11, 86
3, 361260, Control_c, 1, 11, 84
3, 361320, Control_c, 1, 11, 82
3, 361380, Control_c, 1, 11, 80
3, 362310, Note_on_c, 1, 75, 0
3, 362310, Note_on_c, 1, 79, 0
3, 362400, Note_on_c, 1, 74, 120
3, 362400, Note_on_c, 1, 77, 120
3, 362880, Note_on_c, 1, 72, 120
3, 362880, Note_on_c, 1, 75, 120
3, 362910, Note_on_c, 1, 74, 0
3, 362910, Note_on_c, 1, 77, 0
3, 363330, Note_on_c, 1, 72, 0
3, 363330, Note_on_c, 1, 75, 0
3, 363840, Note_on_c, 1, 72, 120
3, 363840, Note_on_c, 1, 75, 120
3, 364230, Note_on_c, 1, 72, 0
3, 364230, Note_on_c, 1, 75, 0
3, 364320, Note_on_c, 1, 72, 120
3, 364320, Note_on_c, 1, 75, 120
3, 364410, Note_on_c, 1, 74, 120
3, 364410, Note_on_c, 1, 77, 120
3, 364415, Note_on_c, 1, 72, 0
3, 364415, Note_on_c, 1, 75, 0
3, 364500, Note_on_c, 1, 72, 120
3, 364500, Note_on_c, 1, 75, 120
3, 364505, Note_on_c, 1, 74, 0
3, 364505, Note_on_c, 1, 77, 0
3, 364590, Note_on_c, 1, 74, 120
3, 364590, Note_on_c, 1, 77, 120
3, 364595, Note_on_c, 1, 72, 0
3, 364595, Note_on_c, 1, 75, 0
3, 364680, Note_on_c, 1, 72, 120
3, 364680, Note_on_c, 1, 75, 120
3, 364685, Note_on_c, 1, 74, 0
3, 364685, Note_on_c, 1, 77, 0
3, 364770, Note_on_c, 1, 74, 120
3, 364770, Note_on_c, 1, 77, 120
3, 364775, Note_on_c, 1, 72, 0
3, 364775, Note_on_c, 1, 75, 0
3, 364865, Note_on_c, 1, 74, 0
3, 364865, Note_on_c, 1, 77, 0
3, 365040, Note_on_c, 1, 71, 120
3, 365040, Note_on_c, 1, 74, 120
3, 365250, Note_on_c, 1, 71, 0
3, 365250, Note_on_c, 1, 74, 0
3, 365280, Note_on_c, 1, 72, 120
3, 365280, Note_on_c, 1, 75, 120
3, 365730, Note_on_c, 1, 72, 0
3, 365730, Note_on_c, 1, 75, 0
3, 365760, Note_on_c, 1, 70, 120
3, 365760, Note_on_c, 1, 74, 120
3, 366360, Note_on_c, 1, 70, 0
3, 366360, Note_on_c, 1, 74, 0
3, 368160, Note_on_c, 1, 74, 120
3, 368160, Note_on_c, 1, 77, 120
3, 368640, Note_on_c, 1, 72, 120
3, 368640, Note_on_c, 1, 75, 120
3, 368670, Note_on_c, 1, 74, 0
3, 368670, Note_on_c, 1, 77, 0
3, 369090, Note_on_c, 1, 72, 0
3, 369090, Note_on_c, 1, 75, 0
3, 371040, Note_on_c, 1, 69, 120
3, 371040, Note_on_c, 1, 77, 120
3, 371520, Note_on_c, 1, 70, 120
3, 371520, Note_on_c, 1, 74, 120
3, 371550, Note_on_c, 1, 69, 0
3, 371550, Note_on_c, 1, 77, 0
3, 371970, Note_on_c, 1, 70, 0
3, 371970, Note_on_c, 1, 74, 0
3, 373920, Note_on_c, 1, 74, 102
3, 373920, Note_on_c, 1, 77, 102
3, 374400, Note_on_c, 1, 72, 96
3, 374400, Note_on_c, 1, 75, 96
3, 374430, Note_on_c, 1, 74, 0
3, 374430, Note_on_c, 1, 77, 0
3, 374850, Note_on_c, 1, 72, 0
3, 374850, Note_on_c, 1, 75, 0
3, 376800, Note_on_c, 1, 69, 66
3, 376800, Note_on_c, 1, 77, 66
3, 377280, Note_on_c, 1, 70, 60
3, 377280, Note_on_c, 1, 74, 60
3, 377310, Note_on_c, 1, 69, 0
3, 377310, Note_on_c, 1, 77, 0
3, 377730, Note_on_c, 1, 70, 0
3, 377730, Note_on_c, 1, 74, 0
3, 378720, Note_on_c, 1, 70, 60
3, 378720, Note_on_c, 1, 74, 60
3, 379170, Note_on_c, 1, 70, 0
3, 379170, Note_on_c, 1, 74, 0
3, 380160, Note_on_c, 1, 70, 60
3, 380160, Note_on_c, 1, 74, 60
3, 380610, Note_on_c, 1, 70, 0
3, 380610, Note_on_c, 1, 74, 0
3, 381600, Note_on_c, 1, 70, 60
3, 381600, Note_on_c, 1, 74, 60
3, 382050, Note_on_c, 1, 70, 0
3, 382050, Note_on_c, 1, 74, 0
3, 383040, Note_on_c, 1, 70, 60
3, 383040, Note_on_c, 1, 74, 60
3, 383490, Note_on_c, 1, 70, 0
3, 383490, Note_on_c, 1, 74, 0
3, 388320, Note_on_c, 1, 72, 105
3, 388320, Note_on_c, 1, 75, 105
3, 388800, Note_on_c, 1, 70, 110
3, 388800, Note_on_c, 1, 74, 110
3, 388830, Note_on_c, 1, 72, 0
3, 388830, Note_on_c, 1, 75, 0
3, 389010, Note_on_c, 1, 70, 0
3, 389010, Note_on_c, 1, 74, 0
3, 389280, Note_on_c, 1, 70, 110
3, 389280, Note_on_c, 1, 74, 110
3, 389970, Note_on_c, 1, 70, 0
3, 389970, Note_on_c, 1, 74, 0
3, 390240, Note_on_c, 1, 70, 110
3, 390240, Note_on_c, 1, 74, 110
3, 390870, Note_on_c, 1, 70, 0
3, 390870, Note_on_c, 1, 74, 0
3, 391200, Note_on_c, 1, 70, 110
3, 391200, Note_on_c, 1, 74, 110
3, 391410, Note_on_c, 1, 70, 0
3, 391410, Note_on_c, 1, 74, 0
3, 391680, Note_on_c, 1, 72, 110
3, 391680, Note_on_c, 1, 75, 110
3, 392370, Note_on_c, 1, 72, 0
3, 392370, Note_on_c, 1, 75, 0
3, 392640, Note_on_c, 1, 72, 110
3, 392640, Note_on_c, 1, 75, 110
3, 392850, Note_on_c, 1, 72, 0
3, 392850, Note_on_c, 1, 75, 0
3, 393120, Note_on_c, 1, 72, 110
3, 393120, Note_on_c, 1, 75, 110
3, 393720, Note_on_c, 1, 72, 0
3, 393720, Note_on_c, 1, 75, 0
3, 411360, Note_on_c, 1, 67, 100
3, 411360, Note_on_c, 1, 76, 100
3, 411570, Note_on_c, 1, 67, 0
3, 411570, Note_on_c, 1, 76, 0
3, 411840, Note_on_c, 1, 69, 115
3, 411840, Note_on_c, 1, 77, 115
3, 413010, Note_on_c, 1, 69, 0
3, 413010, Note_on_c, 1, 77, 0
3, 413280, Note_on_c, 1, 77, 115
3, 413280, Note_on_c, 1, 81, 115
3, 414450, Note_on_c, 1, 77, 0
3, 414450, Note_on_c, 1, 81, 0
3, 414720, Note_on_c, 1, 81, 115
3, 414720, Note_on_c, 1, 84, 115
3, 414930, Note_on_c, 1, 81, 0
3, 414930, Note_on_c, 1, 84, 0
3, 415200, Note_on_c, 1, 81, 115
3, 415200, Note_on_c, 1, 84, 115
3, 415410, Note_on_c, 1, 81, 0
3, 415410, Note_on_c, 1, 84, 0
3, 415680, Note_on_c, 1, 81, 115
3, 415680, Note_on_c, 1, 84, 115
3, 415860, Note_on_c, 1, 81, 0
3, 415860, Note_on_c, 1, 84, 0
3, 416160, Note_on_c, 1, 69, 115
3, 416160, Note_on_c, 1, 77, 115
3, 416520, Note_on_c, 1, 69, 0
3, 416520, Note_on_c, 1, 77, 0
3, 417600, Note_on_c, 1, 73, 60
3, 417600, Note_on_c, 1, 77, 60
3, 417990, Note_on_c, 1, 73, 0
3, 417990, Note_on_c, 1, 77, 0
3, 418080, Note_on_c, 1, 73, 60
3, 418080, Note_on_c, 1, 77, 60
3, 418950, Note_on_c, 1, 73, 0
3, 418950, Note_on_c, 1, 77, 0
3, 419040, Note_on_c, 1, 73, 60
3, 419040, Note_on_c, 1, 77, 60
3, 419850, Note_on_c, 1, 73, 0
3, 419850, Note_on_c, 1, 77, 0
3, 420000, Note_on_c, 1, 73, 60
3, 420000, Note_on_c, 1, 77, 60
3, 420390, Note_on_c, 1, 73, 0
3, 420390, Note_on_c, 1, 77, 0
3, 420480, Note_on_c, 1, 75, 60
3, 420480, Note_on_c, 1, 78, 60
3, 421350, Note_on_c, 1, 75, 0
3, 421350, Note_on_c, 1, 78, 0
3, 421440, Note_on_c, 1, 75, 60
3, 421440, Note_on_c, 1, 78, 60
3, 421830, Note_on_c, 1, 75, 0
3, 421830, Note_on_c, 1, 78, 0
3, 421920, Note_on_c, 1, 75, 60
3, 421920, Note_on_c, 1, 78, 60
3, 422550, Note_on_c, 1, 75, 0
3, 422550, Note_on_c, 1, 78, 0
3, 425280, Note_on_c, 1, 75, 60
3, 425280, Note_on_c, 1, 78, 60
3, 425670, Note_on_c, 1, 75, 0
3, 425670, Note_on_c, 1, 78, 0
3, 425760, Note_on_c, 1, 78, 60
3, 425760, Note_on_c, 1, 80, 60
3, 426150, Note_on_c, 1, 78, 0
3, 426150, Note_on_c, 1, 80, 0
3, 426240, Note_on_c, 1, 77, 60
3, 426240, Note_on_c, 1, 80, 60
3, 427110, Note_on_c, 1, 77, 0
3, 427110, Note_on_c, 1, 80, 0
3, 427200, Note_on_c, 1, 77, 60
3, 427200, Note_on_c, 1, 80, 60
3, 427590, Note_on_c, 1, 77, 0
3, 427590, Note_on_c, 1, 80, 0
3, 427680, Note_on_c, 1, 77, 60
3, 427680, Note_on_c, 1, 80, 60
3, 428310, Note_on_c, 1, 77, 0
3, 428310, Note_on_c, 1, 80, 0
3, 431040, Note_on_c, 1, 77, 60
3, 431040, Note_on_c, 1, 80, 60
3, 431250, Note_on_c, 1, 77, 0
3, 431250, Note_on_c, 1, 80, 0
3, 431520, Note_on_c, 1, 77, 60
3, 431520, Note_on_c, 1, 80, 60
3, 431730, Note_on_c, 1, 77, 0
3, 431730, Note_on_c, 1, 80, 0
3, 432000, Note_on_c, 1, 77, 60
3, 432000, Note_on_c, 1, 80, 60
3, 432690, Note_on_c, 1, 77, 0
3, 432690, Note_on_c, 1, 80, 0
3, 432960, Note_on_c, 1, 77, 60
3, 432960, Note_on_c, 1, 80, 60
3, 433170, Note_on_c, 1, 77, 0
3, 433170, Note_on_c, 1, 80, 0
3, 433440, Note_on_c, 1, 77, 60
3, 433440, Note_on_c, 1, 80, 60
3, 433890, Note_on_c, 1, 77, 0
3, 433890, Note_on_c, 1, 80, 0
3, 436800, Note_on_c, 1, 77, 60
3, 436800, Note_on_c, 1, 80, 60
3, 437010, Note_on_c, 1, 77, 0
3, 437010, Note_on_c, 1, 80, 0
3, 437280, Note_on_c, 1, 77, 60
3, 437280, Note_on_c, 1, 80, 60
3, 437490, Note_on_c, 1, 77, 0
3, 437490, Note_on_c, 1, 80, 0
3, 437760, Note_on_c, 1, 75, 60
3, 437760, Note_on_c, 1, 78, 60
3, 437970, Note_on_c, 1, 75, 0
3, 437970, Note_on_c, 1, 78, 0
3, 451200, Note_on_c, 1, 74, 70
3, 451680, Note_on_c, 1, 79, 70
3, 451710, Note_on_c, 1, 74, 0
3, 451890, Note_on_c, 1, 79, 0
3, 452160, Note_on_c, 1, 72, 70
3, 452160, Note_on_c, 1, 75, 70
3, 452610, Note_on_c, 1, 72, 0
3, 452610, Note_on_c, 1, 75, 0
3, 456960, Note_on_c, 1, 76, 70
3, 457440, Note_on_c, 1, 81, 70
3, 457470, Note_on_c, 1, 76, 0
3, 457650, Note_on_c, 1, 81, 0
3, 457920, Note_on_c, 1, 77, 70
3, 458370, Note_on_c, 1, 77, 0
3, 463200, Note_on_c, 1, 72, 80
3, 463200, Note_on_c, 1, 75, 80
3, 463680, Note_on_c, 1, 70, 100
3, 463680, Note_on_c, 1, 74, 100
3, 463710, Note_on_c, 1, 72, 0
3, 463710, Note_on_c, 1, 75, 0
3, 463890, Note_on_c, 1, 70, 0
3, 463890, Note_on_c, 1, 74, 0
3, 464160, Note_on_c, 1, 65, 100
3, 464640, Note_on_c, 1, 74, 100
3, 464670, Note_on_c, 1, 65, 0
3, 464850, Note_on_c, 1, 74, 0
3, 465120, Note_on_c, 1, 70, 100
3, 465600, Note_on_c, 1, 77, 100
3, 465630, Note_on_c, 1, 70, 0
3, 465810, Note_on_c, 1, 77, 0
3, 466080, Note_on_c, 1, 74, 100
3, 466230, Note_on_c, 1, 74, 0
3, 466560, Note_on_c, 1, 77, 100
3, 467040, Note_on_c, 1, 75, 100
3, 467070, Note_on_c, 1, 77, 0
3, 467250, Note_on_c, 1, 75, 0
3, 467520, Note_on_c, 1, 72, 100
3, 467670, Note_on_c, 1, 72, 0
3, 468000, Note_on_c, 1, 69, 100
3, 468600, Note_on_c, 1, 69, 0
3, 489120, Note_on_c, 1, 72, 110
3, 489120, Note_on_c, 1, 75, 110
3, 489870, Note_on_c, 1, 72, 0
3, 489870, Note_on_c, 1, 75, 0
3, 494880, Note_on_c, 1, 72, 110
3, 494880, Note_on_c, 1, 75, 110
3, 495750, Note_on_c, 1, 72, 0
3, 495750, Note_on_c, 1, 75, 0
3, 495840, Note_on_c, 1, 75, 110
3, 495840, Note_on_c, 1, 81, 110
3, 496710, Note_on_c, 1, 75, 0
3, 496710, Note_on_c, 1, 81, 0
3, 496800, Note_on_c, 1, 74, 110
3, 496800, Note_on_c, 1, 82, 110
3, 497670, Note_on_c, 1, 74, 0
3, 497670, Note_on_c, 1, 82, 0
3, 497760, Note_on_c, 1, 75, 110
3, 497760, Note_on_c, 1, 79, 110
3, 497970, Note_on_c, 1, 75, 0
3, 497970, Note_on_c, 1, 79, 0
3, 498240, Note_on_c, 1, 74, 110
3, 498240, Note_on_c, 1, 77, 110
3, 499590, Note_on_c, 1, 74, 0
3, 499590, Note_on_c, 1, 77, 0
3, 499680, Note_on_c, 1, 72, 110
3, 499680, Note_on_c, 1, 81, 110
3, 501030, Note_on_c, 1, 72, 0
3, 501030, Note_on_c, 1, 81, 0
3, 501120, Note_on_c, 1, 74, 110
3, 501120, Note_on_c, 1, 82, 110
3, 503910, Note_on_c, 1, 74, 0
3, 503910, Note_on_c, 1, 82, 0
3, 504000, Note_on_c, 1, 72, 110
3, 504000, Note_on_c, 1, 81, 110
3, 506790, Note_on_c, 1, 72, 0
3, 506790, Note_on_c, 1, 81, 0
3, 506880, Note_on_c, 1, 74, 110
3, 506880, Note_on_c, 1, 82, 110
3, 509670, Note_on_c, 1, 74, 0
3, 509670, Note_on_c, 1, 82, 0
3, 509760, Note_on_c, 1, 72, 110
3, 509760, Note_on_c, 1, 81, 110
3, 512550, Note_on_c, 1, 72, 0
3, 512550, Note_on_c, 1, 81, 0
3, 512640, Note_on_c, 1, 74, 110
3, 512640, Note_on_c, 1, 82, 110
3, 513690, Note_on_c, 1, 74, 0
3, 513690, Note_on_c, 1, 82, 0
3, 514080, Note_on_c, 1, 74, 110
3, 514080, Note_on_c, 1, 86, 110
3, 515130, Note_on_c, 1, 74, 0
3, 515130, Note_on_c, 1, 86, 0
3, 515520, Note_on_c, 1, 74, 110
3, 515520, Note_on_c, 1, 77, 110
3, 515730, Note_on_c, 1, 74, 0
3, 515730, Note_on_c, 1, 77, 0
3, 516000, Note_on_c, 1, 74, 110
3, 516000, Note_on_c, 1, 77, 110
3, 516210, Note_on_c, 1, 74, 0
3, 516210, Note_on_c, 1, 77, 0
3, 516480, Note_on_c, 1, 74, 110
3, 516480, Note_on_c, 1, 77, 110
3, 516660, Note_on_c, 1, 74, 0
3, 516660, Note_on_c, 1, 77, 0
3, 516960, Note_on_c, 1, 70, 110
3, 517560, Note_on_c, 1, 70, 0
3, 517920, Note_on_c, 1, 70, 90
3, 518400, Note_on_c, 1, 74, 90
3, 518430, Note_on_c, 1, 70, 0
3, 519360, Note_on_c, 1, 70, 90
3, 519390, Note_on_c, 1, 74, 0
3, 519840, Note_on_c, 1, 72, 90
3, 519870, Note_on_c, 1, 70, 0
3, 520800, Note_on_c, 1, 75, 90
3, 520830, Note_on_c, 1, 72, 0
3, 521280, Note_on_c, 1, 72, 90
3, 521310, Note_on_c, 1, 75, 0
3, 522060, Note_on_c, 1, 72, 0
3, 523680, Note_on_c, 1, 72, 90
3, 524160, Note_on_c, 1, 75, 90
3, 524190, Note_on_c, 1, 72, 0
3, 525120, Note_on_c, 1, 72, 90
3, 525150, Note_on_c, 1, 75, 0
3, 525600, Note_on_c, 1, 74, 90
3, 525630, Note_on_c, 1, 72, 0
3, 526560, Note_on_c, 1, 77, 90
3, 526590, Note_on_c, 1, 74, 0
3, 527040, Note_on_c, 1, 74, 90
3, 527070, Note_on_c, 1, 77, 0
3, 527820, Note_on_c, 1, 74, 0
3, 529440, Note_on_c, 1, 74, 90
3, 529920, Note_on_c, 1, 77, 90
3, 529920, Control_c, 1, 11, 80
3, 529950, Note_on_c, 1, 74, 0
3, 530040, Control_c, 1, 11, 81
3, 530150, Control_c, 1, 11, 82
3, 530270, Control_c, 1, 11, 83
3, 530380, Control_c, 1, 11, 84
3, 530500, Control_c, 1, 11, 85
3, 530610, Control_c, 1, 11, 86
3, 530720, Control_c, 1, 11, 87
3, 530840, Control_c, 1, 11, 88
3, 530880, Note_on_c, 1, 74, 90
3, 530910, Note_on_c, 1, 77, 0
3, 530950, Control_c, 1, 11, 89
3, 531070, Control_c, 1, 11, 90
3, 531180, Control_c, 1, 11, 91
3, 531300, Control_c, 1, 11, 92
3, 531360, Note_on_c, 1, 75, 90
3, 531390, Note_on_c, 1, 74, 0
3, 531410, Control_c, 1, 11, 93
3, 531520, Control_c, 1, 11, 94
3, 531640, Control_c, 1, 11, 95
3, 531750, Control_c, 1, 11, 96
3, 531870, Control_c, 1, 11, 97
3, 531980, Control_c, 1, 11, 98
3, 532100, Control_c, 1, 11, 99
3, 532210, Control_c, 1, 11, 100
3, 532320, Note_on_c, 1, 77, 90
3, 532350, Note_on_c, 1, 75, 0
3, 532794, Control_c, 1, 11, 110
3, 532800, Note_on_c, 1, 79, 90
3, 532830, Note_on_c, 1, 77, 0
3, 533040, Control_c, 1, 11, 110
3, 533130, Control_c, 1, 11, 109
3, 533220, Control_c, 1, 11, 108
3, 533300, Control_c, 1, 11, 107
3, 533390, Control_c, 1, 11, 106
3, 533470, Control_c, 1, 11, 105
3, 533560, Control_c, 1, 11, 104
3, 533640, Control_c, 1, 11, 103
3, 533730, Control_c, 1, 11, 102
3, 533810, Control_c, 1, 11, 101
3, 533900, Control_c, 1, 11, 100
3, 533980, Control_c, 1, 11, 99
3, 534070, Control_c, 1, 11, 98
3, 534150, Control_c, 1, 11, 97
3, 534240, Control_c, 1, 11, 96
3, 534320, Control_c, 1, 11, 95
3, 534410, Control_c, 1, 11, 94
3, 534490, Control_c, 1, 11, 93
3, 534580, Control_c, 1, 11, 92
3, 534660, Control_c, 1, 11, 91
3, 534750, Control_c, 1, 11, 90
3, 534830, Control_c, 1, 11, 89
3, 534920, Control_c, 1, 11, 88
3, 535000, Control_c, 1, 11, 87
3, 535090, Control_c, 1, 11, 86
3, 535110, Note_on_c, 1, 79, 0
3, 535170, Control_c, 1, 11, 85
3, 535200, Note_on_c, 1, 79, 90
3, 535260, Control_c, 1, 11, 84
3, 535340, Control_c, 1, 11, 83
3, 535430, Control_c, 1, 11, 82
3, 535510, Control_c, 1, 11, 81
3, 535600, Control_c, 1, 11, 80
3, 535680, Note_on_c, 1, 77, 90
3, 535710, Note_on_c, 1, 79, 0
3, 536130, Note_on_c, 1, 77, 0
3, 536640, Note_on_c, 1, 77, 90
3, 536850, Note_on_c, 1, 77, 0
3, 537120, Note_on_c, 1, 75, 90
3, 537210, Note_on_c, 1, 77, 90
3, 537215, Note_on_c, 1, 75, 0
3, 537300, Note_on_c, 1, 75, 90
3, 537305, Note_on_c, 1, 77, 0
3, 537390, Note_on_c, 1, 77, 90
3, 537395, Note_on_c, 1, 75, 0
3, 537480, Note_on_c, 1, 75, 90
3, 537485, Note_on_c, 1, 77, 0
3, 537570, Note_on_c, 1, 77, 90
3, 537575, Note_on_c, 1, 75, 0
3, 537665, Note_on_c, 1, 77, 0
3, 537840, Note_on_c, 1, 74, 90
3, 538050, Note_on_c, 1, 74, 0
3, 538080, Note_on_c, 1, 75, 90
3, 538530, Note_on_c, 1, 75, 0
3, 538560, Note_on_c, 1, 74, 90
3, 539340, Note_on_c, 1, 74, 0
3, 540960, Note_on_c, 1, 70, 90
3, 541200, Note_on_c, 1, 72, 90
3, 541230, Note_on_c, 1, 70, 0
3, 541440, Note_on_c, 1, 74, 90
3, 541470, Note_on_c, 1, 72, 0
3, 542400, Note_on_c, 1, 70, 90
3, 542430, Note_on_c, 1, 74, 0
3, 542880, Note_on_c, 1, 72, 90
3, 542910, Note_on_c, 1, 70, 0
3, 543840, Note_on_c, 1, 75, 90
3, 543870, Note_on_c, 1, 72, 0
3, 544320, Note_on_c, 1, 72, 90
3, 544350, Note_on_c, 1, 75, 0
3, 544920, Note_on_c, 1, 72, 0
3, 546720, Note_on_c, 1, 72, 90
3, 546960, Note_on_c, 1, 74, 90
3, 546990, Note_on_c, 1, 72, 0
3, 547200, Note_on_c, 1, 75, 90
3, 547230, Note_on_c, 1, 74, 0
3, 548160, Note_on_c, 1, 72, 90
3, 548190, Note_on_c, 1, 75, 0
3, 548640, Note_on_c, 1, 74, 90
3, 548670, Note_on_c, 1, 72, 0
3, 549600, Note_on_c, 1, 77, 90
3, 549630, Note_on_c, 1, 74, 0
3, 550080, Note_on_c, 1, 74, 90
3, 550110, Note_on_c, 1, 77, 0
3, 550680, Note_on_c, 1, 74, 0
3, 552480, Note_on_c, 1, 74, 90
3, 552720, Note_on_c, 1, 75, 90
3, 552750, Note_on_c, 1, 74, 0
3, 552960, Note_on_c, 1, 77, 90
3, 552960, Control_c, 1, 11, 80
3, 552990, Note_on_c, 1, 75, 0
3, 553230, Control_c, 1, 11, 82
3, 553490, Control_c, 1, 11, 84
3, 553760, Control_c, 1, 11, 86
3, 553920, Note_on_c, 1, 74, 90
3, 553950, Note_on_c, 1, 77, 0
3, 554020, Control_c, 1, 11, 88
3, 554280, Control_c, 1, 11, 91
3, 554400, Note_on_c, 1, 75, 90
3, 554430, Note_on_c, 1, 74, 0
3, 554550, Control_c, 1, 11, 93
3, 554810, Control_c, 1, 11, 95
3, 555080, Control_c, 1, 11, 97
3, 555340, Control_c, 1, 11, 100
3, 555360, Note_on_c, 1, 77, 90
3, 555390, Note_on_c, 1, 75, 0
3, 555834, Control_c, 1, 11, 110
3, 555840, Note_on_c, 1, 79, 90
3, 555870, Note_on_c, 1, 77, 0
3, 555980, Control_c, 1, 11, 109
3, 556120, Control_c, 1, 11, 107
3, 556260, Control_c, 1, 11, 106
3, 556390, Control_c, 1, 11, 104
3, 556530, Control_c, 1, 11, 103
3, 556670, Control_c, 1, 11, 101
3, 556800, Control_c, 1, 11, 100
3, 556940, Control_c, 1, 11, 99
3, 557080, Control_c, 1, 11, 97
3, 557220, Control_c, 1, 11, 96
3, 557350, Control_c, 1, 11, 94
3, 557490, Control_c, 1, 11, 93
3, 557630, Control_c, 1, 11, 91
3, 557760, Control_c, 1, 11, 90
3, 557900, Control_c, 1, 11, 88
3, 558040, Control_c, 1, 11, 87
3, 558150, Note_on_c, 1, 79, 0
3, 558180, Control_c, 1, 11, 85
3, 558240, Note_on_c, 1, 77, 90
3, 558310, Control_c, 1, 11, 84
3, 558450, Control_c, 1, 11, 82
3, 558590, Control_c, 1, 11, 80
3, 558630, Note_on_c, 1, 77, 0
3, 558720, Note_on_c, 1, 75, 90
3, 558990, Note_on_c, 1, 75, 0
3, 559680, Note_on_c, 1, 75, 90
3, 559890, Note_on_c, 1, 75, 0
3, 560160, Note_on_c, 1, 75, 90
3, 560250, Note_on_c, 1, 77, 90
3, 560255, Note_on_c, 1, 75, 0
3, 560340, Note_on_c, 1, 75, 90
3, 560345, Note_on_c, 1, 77, 0
3, 560430, Note_on_c, 1, 77, 90
3, 560435, Note_on_c, 1, 75, 0
3, 560520, Note_on_c, 1, 75, 90
3, 560525, Note_on_c, 1, 77, 0
3, 560610, Note_on_c, 1, 77, 90
3, 560615, Note_on_c, 1, 75, 0
3, 560705, Note_on_c, 1, 77, 0
3, 560880, Note_on_c, 1, 74, 90
3, 561090, Note_on_c, 1, 74, 0
3, 561120, Note_on_c, 1, 75, 90
3, 561570, Note_on_c, 1, 75, 0
3, 561600, Note_on_c, 1, 75, 90
3, 562200, Note_on_c, 1, 75, 0
3, 566880, Note_on_c, 1, 77, 80
3, 568320, Note_on_c, 1, 75, 65
3, 568350, Note_on_c, 1, 77, 0
3, 568800, Note_on_c, 1, 72, 60
3, 568830, Note_on_c, 1, 75, 0
3, 569400, Note_on_c, 1, 72, 0
3, 572640, Note_on_c, 1, 77, 80
3, 574080, Note_on_c, 1, 75, 65
3, 574110, Note_on_c, 1, 77, 0
3, 574560, Note_on_c, 1, 72, 60
3, 574590, Note_on_c, 1, 75, 0
3, 575160, Note_on_c, 1, 72, 0
3, 589920, Note_on_c, 1, 74, 60
3, 589920, Note_on_c, 1, 82, 60
3, 590400, Note_on_c, 1, 77, 61
3, 590430, Note_on_c, 1, 74, 0
3, 591360, Note_on_c, 1, 74, 64
3, 591390, Note_on_c, 1, 77, 0
3, 591840, Note_on_c, 1, 75, 65
3, 591870, Note_on_c, 1, 74, 0
3, 592800, Note_on_c, 1, 79, 68
3, 592830, Note_on_c, 1, 75, 0
3, 593280, Note_on_c, 1, 75, 69
3, 593310, Note_on_c, 1, 79, 0
3, 594000, Note_on_c, 1, 82, 0
3, 594060, Note_on_c, 1, 75, 0
3, 595680, Note_on_c, 1, 75, 76
3, 595680, Note_on_c, 1, 82, 76
3, 596160, Note_on_c, 1, 79, 77
3, 596190, Note_on_c, 1, 75, 0
3, 597120, Note_on_c, 1, 75, 80
3, 597150, Note_on_c, 1, 79, 0
3, 597600, Note_on_c, 1, 77, 81
3, 597630, Note_on_c, 1, 75, 0
3, 598560, Note_on_c, 1, 80, 84
3, 598590, Note_on_c, 1, 77, 0
3, 599040, Note_on_c, 1, 77, 86
3, 599070, Note_on_c, 1, 80, 0
3, 599760, Note_on_c, 1, 82, 0
3, 599820, Note_on_c, 1, 77, 0
3, 612960, Note_on_c, 1, 70, 120
3, 612960, Note_on_c, 1, 74, 120
3, 613200, Note_on_c, 1, 71, 120
3, 613200, Note_on_c, 1, 75, 120
3, 613230, Note_on_c, 1, 70, 0
3, 613230, Note_on_c, 1, 74, 0
3, 613440, Note_on_c, 1, 74, 120
3, 613440, Note_on_c, 1, 77, 120
3, 613470, Note_on_c, 1, 71, 0
3, 613470, Note_on_c, 1, 75, 0
3, 614400, Note_on_c, 1, 70, 120
3, 614430, Note_on_c, 1, 77, 0
3, 614880, Note_on_c, 1, 72, 120
3, 614880, Note_on_c, 1, 75, 120
3, 614910, Note_on_c, 1, 70, 0
3, 614910, Note_on_c, 1, 74, 0
3, 615840, Note_on_c, 1, 74, 120
3, 615840, Note_on_c, 1, 77, 120
3, 615870, Note_on_c, 1, 72, 0
3, 615870, Note_on_c, 1, 75, 0
3, 616230, Note_on_c, 1, 74, 0
3, 616230, Note_on_c, 1, 77, 0
3, 616320, Note_on_c, 1, 75, 120
3, 616320, Note_on_c, 1, 79, 120
3, 616320, Control_c, 1, 11, 80
3, 616380, Control_c, 1, 11, 87
3, 616440, Control_c, 1, 11, 95
3, 616500, Control_c, 1, 11, 102
3, 616620, Control_c, 1, 11, 110
3, 616680, Control_c, 1, 11, 107
3, 616740, Control_c, 1, 11, 106
3, 616800, Control_c, 1, 11, 104
3, 616860, Control_c, 1, 11, 103
3, 616920, Control_c, 1, 11, 101
3, 616980, Control_c, 1, 11, 100
3, 617040, Control_c, 1, 11, 98
3, 617100, Control_c, 1, 11, 97
3, 617160, Control_c, 1, 11, 95
3, 617220, Control_c, 1, 11, 93
3, 617280, Control_c, 1, 11, 92
3, 617340, Control_c, 1, 11, 90
3, 617400, Control_c, 1, 11, 89
3, 617460, Control_c, 1, 11, 87
3, 617520, Control_c, 1, 11, 86
3, 617580, Control_c, 1, 11, 84
3, 617640, Control_c, 1, 11, 82
3, 617700, Control_c, 1, 11, 80
3, 618630, Note_on_c, 1, 75, 0
3, 618630, Note_on_c, 1, 79, 0
3, 618720, Note_on_c, 1, 74, 120
3, 618720, Note_on_c, 1, 77, 120
3, 619200, Note_on_c, 1, 72, 120
3, 619200, Note_on_c, 1, 75, 120
3, 619230, Note_on_c, 1, 74, 0
3, 619230, Note_on_c, 1, 77, 0
3, 619650, Note_on_c, 1, 72, 0
3, 619650, Note_on_c, 1, 75, 0
3, 620160, Note_on_c, 1, 72, 120
3, 620160, Note_on_c, 1, 75, 120
3, 620550, Note_on_c, 1, 72, 0
3, 620550, Note_on_c, 1, 75, 0
3, 620640, Note_on_c, 1, 72, 120
3, 620640, Note_on_c, 1, 75, 120
3, 620730, Note_on_c, 1, 74, 120
3, 620730, Note_on_c, 1, 77, 120
3, 620735, Note_on_c, 1, 72, 0
3, 620735, Note_on_c, 1, 75, 0
3, 620820, Note_on_c, 1, 72, 120
3, 620820, Note_on_c, 1, 75, 120
3, 620825, Note_on_c, 1, 74, 0
3, 620825, Note_on_c, 1, 77, 0
3, 620910, Note_on_c, 1, 74, 120
3, 620910, Note_on_c, 1, 77, 120
3, 620915, Note_on_c, 1, 72, 0
3, 620915, Note_on_c, 1, 75, 0
3, 621000, Note_on_c, 1, 72, 120
3, 621000, Note_on_c, 1, 75, 120
3, 621005, Note_on_c, 1, 74, 0
3, 621005, Note_on_c, 1, 77, 0
3, 621090, Note_on_c, 1, 74, 120
3, 621090, Note_on_c, 1, 77, 120
3, 621095, Note_on_c, 1, 72, 0
3, 621095, Note_on_c, 1, 75, 0
3, 621185, Note_on_c, 1, 74, 0
3, 621185, Note_on_c, 1, 77, 0
3, 621360, Note_on_c, 1, 71, 120
3, 621360, Note_on_c, 1, 74, 120
3, 621570, Note_on_c, 1, 71, 0
3, 621570, Note_on_c, 1, 74, 0
3, 621600, Note_on_c, 1, 72, 120
3, 621600, Note_on_c, 1, 75, 120
3, 622050, Note_on_c, 1, 72, 0
3, 622050, Note_on_c, 1, 75, 0
3, 622080, Note_on_c, 1, 70, 120
3, 622080, Note_on_c, 1, 74, 120
3, 622680, Note_on_c, 1, 70, 0
3, 622680, Note_on_c, 1, 74, 0
3, 624480, Note_on_c, 1, 74, 120
3, 624480, Note_on_c, 1, 77, 120
3, 624960, Note_on_c, 1, 72, 120
3, 624960, Note_on_c, 1, 75, 120
3, 624990, Note_on_c, 1, 74, 0
3, 624990, Note_on_c, 1, 77, 0
3, 625410, Note_on_c, 1, 72, 0
3, 625410, Note_on_c, 1, 75, 0
3, 627360, Note_on_c, 1, 69, 120
3, 627360, Note_on_c, 1, 77, 120
3, 627840, Note_on_c, 1, 70, 120
3, 627840, Note_on_c, 1, 74, 120
3, 627870, Note_on_c, 1, 69, 0
3, 627870, Note_on_c, 1, 77, 0
3, 628290, Note_on_c, 1, 70, 0
3, 628290, Note_on_c, 1, 74, 0
3, 630240, Note_on_c, 1, 74, 102
3, 630240, Note_on_c, 1, 77, 102
3, 630720, Note_on_c, 1, 72, 96
3, 630720, Note_on_c, 1, 75, 96
3, 630750, Note_on_c, 1, 74, 0
3, 630750, Note_on_c, 1, 77, 0
3, 631170, Note_on_c, 1, 72, 0
3, 631170, Note_on_c, 1, 75, 0
3, 633120, Note_on_c, 1, 69, 66
3, 633120, Note_on_c, 1, 77, 66
3, 633600, Note_on_c, 1, 70, 60
3, 633600, Note_on_c, 1, 74, 60
3, 633630, Note_on_c, 1, 69, 0
3, 633630, Note_on_c, 1, 77, 0
3, 634050, Note_on_c, 1, 70, 0
3, 634050, Note_on_c, 1, 74, 0
3, 635040, Note_on_c, 1, 70, 60
3, 635040, Note_on_c, 1, 74, 60
3, 635490, Note_on_c, 1, 70, 0
3, 635490, Note_on_c, 1, 74, 0
3, 636480, Note_on_c, 1, 70, 60
3, 636480, Note_on_c, 1, 74, 60
3, 636930, Note_on_c, 1, 70, 0
3, 636930, Note_on_c, 1, 74, 0
3, 637920, Note_on_c, 1, 70, 60
3, 637920, Note_on_c, 1, 74, 60
3, 638370, Note_on_c, 1, 70, 0
3, 638370, Note_on_c, 1, 74, 0
3, 639360, Note_on_c, 1, 70, 60
3, 639360, Note_on_c, 1, 74, 60
3, 639810, Note_on_c, 1, 70, 0
3, 639810, Note_on_c, 1, 74, 0
3, 644640, Note_on_c, 1, 72, 80
3, 644640, Note_on_c, 1, 75, 80
3, 645120, Note_on_c, 1, 70, 100
3, 645120, Note_on_c, 1, 74, 100
3, 645150, Note_on_c, 1, 72, 0
3, 645150, Note_on_c, 1, 75, 0
3, 645330, Note_on_c, 1, 70, 0
3, 645330, Note_on_c, 1, 74, 0
3, 645600, Note_on_c, 1, 65, 100
3, 646080, Note_on_c, 1, 74, 100
3, 646110, Note_on_c, 1, 65, 0
3, 646290, Note_on_c, 1, 74, 0
3, 646560, Note_on_c, 1, 70, 100
3, 647040, Note_on_c, 1, 77, 100
3, 647070, Note_on_c, 1, 70, 0
3, 647250, Note_on_c, 1, 77, 0
3, 647520, Note_on_c, 1, 74, 100
3, 647670, Note_on_c, 1, 74, 0
3, 648000, Note_on_c, 1, 77, 100
3, 648480, Note_on_c, 1, 75, 100
3, 648510, Note_on_c, 1, 77, 0
3, 648690, Note_on_c, 1, 75, 0
3, 648960, Note_on_c, 1, 72, 100
3, 649110, Note_on_c, 1, 72, 0
3, 649440, Note_on_c, 1, 69, 100
3, 650040, Note_on_c, 1, 69, 0
3, 670560, Note_on_c, 1, 72, 110
3, 670560, Note_on_c, 1, 75, 110
3, 671310, Note_on_c, 1, 72, 0
3, 671310, Note_on_c, 1, 75, 0
3, 676320, Note_on_c, 1, 72, 110
3, 676320, Note_on_c, 1, 75, 110
3, 677190, Note_on_c, 1, 72, 0
3, 677190, Note_on_c, 1, 75, 0
3, 677280, Note_on_c, 1, 75, 110
3, 677280, Note_on_c, 1, 81, 110
3, 678150, Note_on_c, 1, 75, 0
3, 678150, Note_on_c, 1, 81, 0
3, 678240, Note_on_c, 1, 74, 110
3, 678240, Note_on_c, 1, 82, 110
3, 679110, Note_on_c, 1, 74, 0
3, 679110, Note_on_c, 1, 82, 0
3, 679200, Note_on_c, 1, 75, 110
3, 679200, Note_on_c, 1, 79, 110
3, 679410, Note_on_c, 1, 75, 0
3, 679410, Note_on_c, 1, 79, 0
3, 679680, Note_on_c, 1, 74, 110
3, 679680, Note_on_c, 1, 77, 110
3, 681030, Note_on_c, 1, 74, 0
3, 681030, Note_on_c, 1, 77, 0
3, 681120, Note_on_c, 1, 72, 110
3, 681120, Note_on_c, 1, 81, 110
3, 682470, Note_on_c, 1, 72, 0
3, 682470, Note_on_c, 1, 81, 0
3, 682560, Note_on_c, 1, 74, 110
3, 682560, Note_on_c, 1, 82, 110
3, 685350, Note_on_c, 1, 74, 0
3, 685350, Note_on_c, 1, 82, 0
3, 685440, Note_on_c, 1, 72, 110
3, 685440, Note_on_c, 1, 81, 110
3, 688230, Note_on_c, 1, 72, 0
3, 688230, Note_on_c, 1, 81, 0
3, 688320, Note_on_c, 1, 74, 110
3, 688320, Note_on_c, 1, 82, 110
3, 691110, Note_on_c, 1, 74, 0
3, 691110, Note_on_c, 1, 82, 0
3, 691200, Note_on_c, 1, 72, 110
3, 691200, Note_on_c, 1, 81, 110
3, 693990, Note_on_c, 1, 72, 0
3, 693990, Note_on_c, 1, 81, 0
3, 694080, Note_on_c, 1, 74, 110
3, 694080, Note_on_c, 1, 82, 110
3, 695130, Note_on_c, 1, 74, 0
3, 695130, Note_on_c, 1, 82, 0
3, 695520, Note_on_c, 1, 74, 110
3, 695520, Note_on_c, 1, 86, 110
3, 696570, Note_on_c, 1, 74, 0
3, 696570, Note_on_c, 1, 86, 0
3, 696960, Note_on_c, 1, 74, 110
3, 696960, Note_on_c, 1, 77, 110
3, 697170, Note_on_c, 1, 74, 0
3, 697170, Note_on_c, 1, 77, 0
3, 697440, Note_on_c, 1, 74, 110
3, 697440, Note_on_c, 1, 77, 110
3, 697650, Note_on_c, 1, 74, 0
3, 697650, Note_on_c, 1, 77, 0
3, 697920, Note_on_c, 1, 74, 110
3, 697920, Note_on_c, 1, 77, 110
3, 698100, Note_on_c, 1, 74, 0
3, 698100, Note_on_c, 1, 77, 0
3, 698400, Note_on_c, 1, 70, 110
3, 699000, Note_on_c, 1, 70, 0
3, 702720, Note_on_c, 1, 74, 126
3, 702720, Note_on_c, 1, 82, 100
3, 703170, Note_on_c, 1, 74, 0
3, 703170, Note_on_c, 1, 82, 0
3, 703170, End_track
4, 0, Start_track
4, 0, Channel_prefix, 2
4, 0, Title_t, "Clarinet in Bb"
4, 0, Instrument_name_t, "Clarinetti in B"
4, 2400, Note_on_c, 2, 65, 110
4, 2880, Note_on_c, 2, 62, 110
4, 2880, Note_on_c, 2, 70, 110
4, 2910, Note_on_c, 2, 65, 0
4, 3090, Note_on_c, 2, 62, 0
4, 3090, Note_on_c, 2, 70, 0
4, 3360, Note_on_c, 2, 58, 110
4, 3360, Note_on_c, 2, 62, 110
4, 4050, Note_on_c, 2, 58, 0
4, 4050, Note_on_c, 2, 62, 0
4, 4320, Note_on_c, 2, 58, 110
4, 4320, Note_on_c, 2, 62, 110
4, 4950, Note_on_c, 2, 58, 0
4, 4950, Note_on_c, 2, 62, 0
4, 5280, Note_on_c, 2, 58, 110
4, 5280, Note_on_c, 2, 62, 110
4, 5490, Note_on_c, 2, 58, 0
4, 5490, Note_on_c, 2, 62, 0
4, 5760, Note_on_c, 2, 60, 110
4, 5760, Note_on_c, 2, 63, 110
4, 6450, Note_on_c, 2, 60, 0
4, 6450, Note_on_c, 2, 63, 0
4, 6720, Note_on_c, 2, 60, 110
4, 6720, Note_on_c, 2, 63, 110
4, 6930, Note_on_c, 2, 60, 0
4, 6930, Note_on_c, 2, 63, 0
4, 7200, Note_on_c, 2, 60, 110
4, 7200, Note_on_c, 2, 63, 110
4, 7800, Note_on_c, 2, 60, 0
4, 7800, Note_on_c, 2, 63, 0
4, 8160, Note_on_c, 2, 65, 60
4, 8640, Note_on_c, 2, 66, 60
4, 8670, Note_on_c, 2, 65, 0
4, 9120, Note_on_c, 2, 69, 60
4, 9150, Note_on_c, 2, 66, 0
4, 9600, Note_on_c, 2, 72, 60
4, 9630, Note_on_c, 2, 69, 0
4, 10080, Note_on_c, 2, 75, 60
4, 10110, Note_on_c, 2, 72, 0
4, 10560, Note_on_c, 2, 77, 60
4, 10590, Note_on_c, 2, 75, 0
4, 11160, Note_on_c, 2, 77, 0
4, 13920, Note_on_c, 2, 63, 60
4, 14400, Note_on_c, 2, 61, 60
4, 14430, Note_on_c, 2, 63, 0
4, 14880, Note_on_c, 2, 64, 60
4, 14910, Note_on_c, 2, 61, 0
4, 15360, Note_on_c, 2, 67, 60
4, 15390, Note_on_c, 2, 64, 0
4, 15840, Note_on_c, 2, 70, 60
4, 15870, Note_on_c, 2, 67, 0
4, 16320, Note_on_c, 2, 72, 60
4, 16350, Note_on_c, 2, 70, 0
4, 16920, Note_on_c, 2, 72, 0
4, 25440, Note_on_c, 2, 67, 105
4, 25440, Note_on_c, 2, 70, 105
4, 25650, Note_on_c, 2, 67, 0
4, 25650, Note_on_c, 2, 70, 0
4, 25920, Note_on_c, 2, 65, 120
4, 25920, Note_on_c, 2, 69, 120
4, 27090, Note_on_c, 2, 65, 0
4, 27090, Note_on_c, 2, 69, 0
4, 27360, Note_on_c, 2, 69, 120
4, 27360, Note_on_c, 2, 72, 120
4, 28530, Note_on_c, 2, 69, 0
4, 28530, Note_on_c, 2, 72, 0
4, 28800, Note_on_c, 2, 69, 120
4, 28800, Note_on_c, 2, 72, 120
4, 29010, Note_on_c, 2, 69, 0
4, 29010, Note_on_c, 2, 72, 0
4, 29280, Note_on_c, 2, 69, 120
4, 29280, Note_on_c, 2, 72, 120
4, 29490, Note_on_c, 2, 69, 0
4, 29490, Note_on_c, 2, 72, 0
4, 29760, Note_on_c, 2, 69, 120
4, 29760, Note_on_c, 2, 72, 120
4, 29970, Note_on_c, 2, 69, 0
4, 29970, Note_on_c, 2, 72, 0
4, 30240, Note_on_c, 2, 65, 120
4, 30240, Note_on_c, 2, 69, 120
4, 30600, Note_on_c, 2, 65, 0
4, 30600, Note_on_c, 2, 69, 0
4, 31200, Note_on_c, 2, 65, 110
4, 31680, Note_on_c, 2, 62, 110
4, 31680, Note_on_c, 2, 70, 110
4, 31710, Note_on_c, 2, 65, 0
4, 31890, Note_on_c, 2, 62, 0
4, 31890, Note_on_c, 2, 70, 0
4, 32160, Note_on_c, 2, 58, 110
4, 32160, Note_on_c, 2, 62, 110
4, 32850, Note_on_c, 2, 58, 0
4, 32850, Note_on_c, 2, 62, 0
4, 33120, Note_on_c, 2, 58, 110
4, 33120, Note_on_c, 2, 62, 110
4, 33750, Note_on_c, 2, 58, 0
4, 33750, Note_on_c, 2, 62, 0
4, 34080, Note_on_c, 2, 58, 110
4, 34080, Note_on_c, 2, 62, 110
4, 34290, Note_on_c, 2, 58, 0
4, 34290, Note_on_c, 2, 62, 0
4, 34560, Note_on_c, 2, 60, 110
4, 34560, Note_on_c, 2, 63, 110
4, 35250, Note_on_c, 2, 60, 0
4, 35250, Note_on_c, 2, 63, 0
4, 35520, Note_on_c, 2, 60, 110
4, 35520, Note_on_c, 2, 63, 110
4, 35730, Note_on_c, 2, 60, 0
4, 35730, Note_on_c, 2, 63, 0
4, 36000, Note_on_c, 2, 60, 110
4, 36000, Note_on_c, 2, 63, 110
4, 36600, Note_on_c, 2, 60, 0
4, 36600, Note_on_c, 2, 63, 0
4, 36960, Note_on_c, 2, 65, 60
4, 37440, Note_on_c, 2, 66, 60
4, 37470, Note_on_c, 2, 65, 0
4, 37920, Note_on_c, 2, 69, 60
4, 37950, Note_on_c, 2, 66, 0
4, 38400, Note_on_c, 2, 72, 60
4, 38430, Note_on_c, 2, 69, 0
4, 38880, Note_on_c, 2, 75, 60
4, 38910, Note_on_c, 2, 72, 0
4, 39360, Note_on_c, 2, 77, 60
4, 39390, Note_on_c, 2, 75, 0
4, 39960, Note_on_c, 2, 77, 0
4, 42720, Note_on_c, 2, 63, 60
4, 43200, Note_on_c, 2, 61, 60
4, 43230, Note_on_c, 2, 63, 0
4, 43680, Note_on_c, 2, 64, 60
4, 43710, Note_on_c, 2, 61, 0
4, 44160, Note_on_c, 2, 67, 60
4, 44190, Note_on_c, 2, 64, 0
4, 44640, Note_on_c, 2, 70, 60
4, 44670, Note_on_c, 2, 67, 0
4, 45120, Note_on_c, 2, 72, 60
4, 45150, Note_on_c, 2, 70, 0
4, 45720, Note_on_c, 2, 72, 0
4, 54240, Note_on_c, 2, 67, 105
4, 54240, Note_on_c, 2, 70, 105
4, 54450, Note_on_c, 2, 67, 0
4, 54450, Note_on_c, 2, 70, 0
4, 54720, Note_on_c, 2, 65, 120
4, 54720, Note_on_c, 2, 69, 120
4, 55890, Note_on_c, 2, 65, 0
4, 55890, Note_on_c, 2, 69, 0
4, 56160, Note_on_c, 2, 69, 120
4, 56160, Note_on_c, 2, 72, 120
4, 57330, Note_on_c, 2, 69, 0
4, 57330, Note_on_c, 2, 72, 0
4, 57600, Note_on_c, 2, 69, 120
4, 57600, Note_on_c, 2, 72, 120
4, 57810, Note_on_c, 2, 69, 0
4, 57810, Note_on_c, 2, 72, 0
4, 58080, Note_on_c, 2, 69, 120
4, 58080, Note_on_c, 2, 72, 120
4, 58290, Note_on_c, 2, 69, 0
4, 58290, Note_on_c, 2, 72, 0
4, 58560, Note_on_c, 2, 69, 120
4, 58560, Note_on_c, 2, 72, 120
4, 58770, Note_on_c, 2, 69, 0
4, 58770, Note_on_c, 2, 72, 0
4, 59040, Note_on_c, 2, 65, 120
4, 59040, Note_on_c, 2, 69, 120
4, 59400, Note_on_c, 2, 65, 0
4, 59400, Note_on_c, 2, 69, 0
4, 95040, Note_on_c, 2, 72, 70
4, 95040, Note_on_c, 2, 75, 70
4, 95250, Note_on_c, 2, 72, 0
4, 95250, Note_on_c, 2, 75, 0
4, 106080, Note_on_c, 2, 69, 90
4, 106560, Note_on_c, 2, 70, 110
4, 106590, Note_on_c, 2, 69, 0
4, 106770, Note_on_c, 2, 70, 0
4, 107040, Note_on_c, 2, 65, 110
4, 107520, Note_on_c, 2, 74, 110
4, 107550, Note_on_c, 2, 65, 0
4, 107730, Note_on_c, 2, 74, 0
4, 108000, Note_on_c, 2, 70, 110
4, 108480, Note_on_c, 2, 77, 110
4, 108510, Note_on_c, 2, 70, 0
4, 108690, Note_on_c, 2, 77, 0
4, 108960, Note_on_c, 2, 74, 110
4, 109110, Note_on_c, 2, 74, 0
4, 109440, Note_on_c, 2, 77, 110
4, 109920, Note_on_c, 2, 75, 110
4, 109950, Note_on_c, 2, 77, 0
4, 110130, Note_on_c, 2, 75, 0
4, 110400, Note_on_c, 2, 72, 110
4, 110550, Note_on_c, 2, 72, 0
4, 110880, Note_on_c, 2, 69, 110
4, 111480, Note_on_c, 2, 69, 0
4, 111840, Note_on_c, 2, 65, 70
4, 112320, Note_on_c, 2, 66, 70
4, 112350, Note_on_c, 2, 65, 0
4, 112800, Note_on_c, 2, 69, 70
4, 112830, Note_on_c, 2, 66, 0
4, 113280, Note_on_c, 2, 72, 70
4, 113310, Note_on_c, 2, 69, 0
4, 113760, Note_on_c, 2, 75, 70
4, 113790, Note_on_c, 2, 72, 0
4, 114240, Note_on_c, 2, 77, 70
4, 114270, Note_on_c, 2, 75, 0
4, 114690, Note_on_c, 2, 77, 0
4, 117600, Note_on_c, 2, 67, 70
4, 118080, Note_on_c, 2, 68, 70
4, 118110, Note_on_c, 2, 67, 0
4, 118560, Note_on_c, 2, 71, 70
4, 118590, Note_on_c, 2, 68, 0
4, 119040, Note_on_c, 2, 74, 70
4, 119070, Note_on_c, 2, 71, 0
4, 119520, Note_on_c, 2, 77, 70
4, 119550, Note_on_c, 2, 74, 0
4, 120000, Note_on_c, 2, 79, 70
4, 120030, Note_on_c, 2, 77, 0
4, 120450, Note_on_c, 2, 79, 0
4, 123360, Note_on_c, 2, 73, 70
4, 123840, Note_on_c, 2, 70, 70
4, 123870, Note_on_c, 2, 73, 0
4, 124320, Note_on_c, 2, 67, 70
4, 124350, Note_on_c, 2, 70, 0
4, 124800, Note_on_c, 2, 64, 70
4, 124830, Note_on_c, 2, 67, 0
4, 125280, Note_on_c, 2, 61, 70
4, 125310, Note_on_c, 2, 64, 0
4, 125760, Note_on_c, 2, 60, 70
4, 125790, Note_on_c, 2, 61, 0
4, 126150, Note_on_c, 2, 60, 0
4, 126240, Note_on_c, 2, 64, 70
4, 126720, Note_on_c, 2, 65, 70
4, 126750, Note_on_c, 2, 64, 0
4, 127200, Note_on_c, 2, 69, 70
4, 127230, Note_on_c, 2, 65, 0
4, 127680, Note_on_c, 2, 72, 70
4, 127710, Note_on_c, 2, 69, 0
4, 128160, Note_on_c, 2, 75, 70
4, 128190, Note_on_c, 2, 72, 0
4, 128640, Note_on_c, 2, 77, 76
4, 128670, Note_on_c, 2, 75, 0
4, 129120, Note_on_c, 2, 78, 82
4, 129150, Note_on_c, 2, 77, 0
4, 129600, Note_on_c, 2, 77, 88
4, 129630, Note_on_c, 2, 78, 0
4, 130080, Note_on_c, 2, 75, 95
4, 130110, Note_on_c, 2, 77, 0
4, 130560, Note_on_c, 2, 72, 101
4, 130590, Note_on_c, 2, 75, 0
4, 131040, Note_on_c, 2, 69, 107
4, 131070, Note_on_c, 2, 72, 0
4, 131520, Note_on_c, 2, 65, 113
4, 131550, Note_on_c, 2, 69, 0
4, 131730, Note_on_c, 2, 65, 0
4, 132000, Note_on_c, 2, 66, 120
4, 132480, Note_on_c, 2, 65, 70
4, 132510, Note_on_c, 2, 66, 0
4, 132960, Note_on_c, 2, 69, 70
4, 132990, Note_on_c, 2, 65, 0
4, 133440, Note_on_c, 2, 72, 70
4, 133470, Note_on_c, 2, 69, 0
4, 133920, Note_on_c, 2, 75, 70
4, 133950, Note_on_c, 2, 72, 0
4, 134400, Note_on_c, 2, 77, 76
4, 134430, Note_on_c, 2, 75, 0
4, 134880, Note_on_c, 2, 78, 82
4, 134910, Note_on_c, 2, 77, 0
4, 135360, Note_on_c, 2, 77, 88
4, 135390, Note_on_c, 2, 78, 0
4, 135840, Note_on_c, 2, 75, 95
4, 135870, Note_on_c, 2, 77, 0
4, 136320, Note_on_c, 2, 72, 101
4, 136350, Note_on_c, 2, 75, 0
4, 136800, Note_on_c, 2, 69, 107
4, 136830, Note_on_c, 2, 72, 0
4, 137280, Note_on_c, 2, 65, 113
4, 137310, Note_on_c, 2, 69, 0
4, 137490, Note_on_c, 2, 65, 0
4, 137760, Note_on_c, 2, 66, 120
4, 138240, Note_on_c, 2, 65, 110
4, 138270, Note_on_c, 2, 66, 0
4, 138450, Note_on_c, 2, 65, 0
4, 138720, Note_on_c, 2, 72, 120
4, 138720, Note_on_c, 2, 75, 120
4, 139590, Note_on_c, 2, 72, 0
4, 139590, Note_on_c, 2, 75, 0
4, 139680, Note_on_c, 2, 70, 120
4, 139680, Note_on_c, 2, 74, 120
4, 140550, Note_on_c, 2, 70, 0
4, 140550, Note_on_c, 2, 74, 0
4, 140640, Note_on_c, 2, 67, 120
4, 140640, Note_on_c, 2, 70, 120
4, 140850, Note_on_c, 2, 67, 0
4, 140850, Note_on_c, 2, 70, 0
4, 141120, Note_on_c, 2, 62, 120
4, 141120, Note_on_c, 2, 70, 120
4, 142470, Note_on_c, 2, 62, 0
4, 142470, Note_on_c, 2, 70, 0
4, 142560, Note_on_c, 2, 63, 120
4, 142560, Note_on_c, 2, 69, 120
4, 143910, Note_on_c, 2, 63, 0
4, 143910, Note_on_c, 2, 69, 0
4, 144000, Note_on_c, 2, 62, 120
4, 144000, Note_on_c, 2, 70, 120
4, 144450, Note_on_c, 2, 62, 0
4, 144450, Note_on_c, 2, 70, 0
4, 146880, Note_on_c, 2, 69, 120
4, 147360, Note_on_c, 2, 65, 120
4, 147390, Note_on_c, 2, 69, 0
4, 147570, Note_on_c, 2, 65, 0
4, 147840, Note_on_c, 2, 72, 120
4, 148320, Note_on_c, 2, 69, 120
4, 148350, Note_on_c, 2, 72, 0
4, 148530, Note_on_c, 2, 69, 0
4, 148800, Note_on_c, 2, 75, 120
4, 149280, Note_on_c, 2, 72, 120
4, 149310, Note_on_c, 2, 75, 0
4, 149490, Note_on_c, 2, 72, 0
4, 149760, Note_on_c, 2, 70, 120
4, 150210, Note_on_c, 2, 70, 0
4, 152640, Note_on_c, 2, 69, 120
4, 153120, Note_on_c, 2, 65, 120
4, 153150, Note_on_c, 2, 69, 0
4, 153330, Note_on_c, 2, 65, 0
4, 153600, Note_on_c, 2, 72, 120
4, 154080, Note_on_c, 2, 69, 120
4, 154110, Note_on_c, 2, 72, 0
4, 154290, Note_on_c, 2, 69, 0
4, 154560, Note_on_c, 2, 75, 120
4, 155040, Note_on_c, 2, 72, 120
4, 155070, Note_on_c, 2, 75, 0
4, 155250, Note_on_c, 2, 72, 0
4, 155520, Note_on_c, 2, 62, 120
4, 155520, Note_on_c, 2, 70, 120
4, 156570, Note_on_c, 2, 62, 0
4, 156570, Note_on_c, 2, 70, 0
4, 156960, Note_on_c, 2, 70, 120
4, 156960, Note_on_c, 2, 74, 120
4, 158010, Note_on_c, 2, 70, 0
4, 158010, Note_on_c, 2, 74, 0
4, 158400, Note_on_c, 2, 74, 120
4, 158400, Note_on_c, 2, 77, 120
4, 158610, Note_on_c, 2, 74, 0
4, 158610, Note_on_c, 2, 77, 0
4, 158880, Note_on_c, 2, 74, 120
4, 158880, Note_on_c, 2, 77, 120
4, 159090, Note_on_c, 2, 74, 0
4, 159090, Note_on_c, 2, 77, 0
4, 159360, Note_on_c, 2, 74, 120
4, 159360, Note_on_c, 2, 77, 120
4, 159540, Note_on_c, 2, 74, 0
4, 159540, Note_on_c, 2, 77, 0
4, 159840, Note_on_c, 2, 62, 120
4, 159840, Note_on_c, 2, 70, 120
4, 160440, Note_on_c, 2, 62, 0
4, 160440, Note_on_c, 2, 70, 0
4, 195840, Note_on_c, 2, 72, 70
4, 195840, Note_on_c, 2, 75, 70
4, 196050, Note_on_c, 2, 72, 0
4, 196050, Note_on_c, 2, 75, 0
4, 206880, Note_on_c, 2, 69, 90
4, 207360, Note_on_c, 2, 70, 110
4, 207390, Note_on_c, 2, 69, 0
4, 207570, Note_on_c, 2, 70, 0
4, 207840, Note_on_c, 2, 65, 110
4, 208320, Note_on_c, 2, 74, 110
4, 208350, Note_on_c, 2, 65, 0
4, 208530, Note_on_c, 2, 74, 0
4, 208800, Note_on_c, 2, 70, 110
4, 209280, Note_on_c, 2, 77, 110
4, 209310, Note_on_c, 2, 70, 0
4, 209490, Note_on_c, 2, 77, 0
4, 209760, Note_on_c, 2, 74, 110
4, 209910, Note_on_c, 2, 74, 0
4, 210240, Note_on_c, 2, 77, 110
4, 210720, Note_on_c, 2, 75, 110
4, 210750, Note_on_c, 2, 77, 0
4, 210930, Note_on_c, 2, 75, 0
4, 211200, Note_on_c, 2, 72, 110
4, 211350, Note_on_c, 2, 72, 0
4, 211680, Note_on_c, 2, 69, 110
4, 212280, Note_on_c, 2, 69, 0
4, 212640, Note_on_c, 2, 65, 70
4, 213120, Note_on_c, 2, 66, 70
4, 213150, Note_on_c, 2, 65, 0
4, 213600, Note_on_c, 2, 69, 70
4, 213630, Note_on_c, 2, 66, 0
4, 214080, Note_on_c, 2, 72, 70
4, 214110, Note_on_c, 2, 69, 0
4, 214560, Note_on_c, 2, 75, 70
4, 214590, Note_on_c, 2, 72, 0
4, 215040, Note_on_c, 2, 77, 70
4, 215070, Note_on_c, 2, 75, 0
4, 215490, Note_on_c, 2, 77, 0
4, 218400, Note_on_c, 2, 67, 70
4, 218880, Note_on_c, 2, 68, 70
4, 218910, Note_on_c, 2, 67, 0
4, 219360, Note_on_c, 2, 71, 70
4, 219390, Note_on_c, 2, 68, 0
4, 219840, Note_on_c, 2, 74, 70
4, 219870, Note_on_c, 2, 71, 0
4, 220320, Note_on_c, 2, 77, 70
4, 220350, Note_on_c, 2, 74, 0
4, 220800, Note_on_c, 2, 79, 70
4, 220830, Note_on_c, 2, 77, 0
4, 221250, Note_on_c, 2, 79, 0
4, 224160, Note_on_c, 2, 73, 70
4, 224640, Note_on_c, 2, 70, 70
4, 224670, Note_on_c, 2, 73, 0
4, 225120, Note_on_c, 2, 67, 70
4, 225150, Note_on_c, 2, 70, 0
4, 225600, Note_on_c, 2, 64, 70
4, 225630, Note_on_c, 2, 67, 0
4, 226080, Note_on_c, 2, 61, 70
4, 226110, Note_on_c, 2, 64, 0
4, 226560, Note_on_c, 2, 60, 70
4, 226590, Note_on_c, 2, 61, 0
4, 226950, Note_on_c, 2, 60, 0
4, 227040, Note_on_c, 2, 64, 70
4, 227520, Note_on_c, 2, 65, 70
4, 227550, Note_on_c, 2, 64, 0
4, 228000, Note_on_c, 2, 69, 70
4, 228030, Note_on_c, 2, 65, 0
4, 228480, Note_on_c, 2, 72, 70
4, 228510, Note_on_c, 2, 69, 0
4, 228960, Note_on_c, 2, 75, 70
4, 228990, Note_on_c, 2, 72, 0
4, 229440, Note_on_c, 2, 77, 76
4, 229470, Note_on_c, 2, 75, 0
4, 229920, Note_on_c, 2, 78, 82
4, 229950, Note_on_c, 2, 77, 0
4, 230400, Note_on_c, 2, 77, 88
4, 230430, Note_on_c, 2, 78, 0
4, 230880, Note_on_c, 2, 75, 95
4, 230910, Note_on_c, 2, 77, 0
4, 231360, Note_on_c, 2, 72, 101
4, 231390, Note_on_c, 2, 75, 0
4, 231840, Note_on_c, 2, 69, 107
4, 231870, Note_on_c, 2, 72, 0
4, 232320, Note_on_c, 2, 65, 113
4, 232350, Note_on_c, 2, 69, 0
4, 232530, Note_on_c, 2, 65, 0
4, 232800, Note_on_c, 2, 66, 120
4, 233280, Note_on_c, 2, 65, 70
4, 233310, Note_on_c, 2, 66, 0
4, 233760, Note_on_c, 2, 69, 70
4, 233790, Note_on_c, 2, 65, 0
4, 234240, Note_on_c, 2, 72, 70
4, 234270, Note_on_c, 2, 69, 0
4, 234720, Note_on_c, 2, 75, 70
4, 234750, Note_on_c, 2, 72, 0
4, 235200, Note_on_c, 2, 77, 76
4, 235230, Note_on_c, 2, 75, 0
4, 235680, Note_on_c, 2, 78, 82
4, 235710, Note_on_c, 2, 77, 0
4, 236160, Note_on_c, 2, 77, 88
4, 236190, Note_on_c, 2, 78, 0
4, 236640, Note_on_c, 2, 75, 95
4, 236670, Note_on_c, 2, 77, 0
4, 237120, Note_on_c, 2, 72, 101
4, 237150, Note_on_c, 2, 75, 0
4, 237600, Note_on_c, 2, 69, 107
4, 237630, Note_on_c, 2, 72, 0
4, 238080, Note_on_c, 2, 65, 113
4, 238110, Note_on_c, 2, 69, 0
4, 238290, Note_on_c, 2, 65, 0
4, 238560, Note_on_c, 2, 66, 120
4, 239040, Note_on_c, 2, 65, 110
4, 239070, Note_on_c, 2, 66, 0
4, 239250, Note_on_c, 2, 65, 0
4, 239520, Note_on_c, 2, 72, 120
4, 239520, Note_on_c, 2, 75, 120
4, 240390, Note_on_c, 2, 72, 0
4, 240390, Note_on_c, 2, 75, 0
4, 240480, Note_on_c, 2, 70, 120
4, 240480, Note_on_c, 2, 74, 120
4, 241350, Note_on_c, 2, 70, 0
4, 241350, Note_on_c, 2, 74, 0
4, 241440, Note_on_c, 2, 67, 120
4, 241440, Note_on_c, 2, 70, 120
4, 241650, Note_on_c, 2, 67, 0
4, 241650, Note_on_c, 2, 70, 0
4, 241920, Note_on_c, 2, 62, 120
4, 241920, Note_on_c, 2, 70, 120
4, 243270, Note_on_c, 2, 62, 0
4, 243270, Note_on_c, 2, 70, 0
4, 243360, Note_on_c, 2, 63, 120
4, 243360, Note_on_c, 2, 69, 120
4, 244710, Note_on_c, 2, 63, 0
4, 244710, Note_on_c, 2, 69, 0
4, 244800, Note_on_c, 2, 62, 120
4, 244800, Note_on_c, 2, 70, 120
4, 245250, Note_on_c, 2, 62, 0
4, 245250, Note_on_c, 2, 70, 0
4, 247680, Note_on_c, 2, 69, 120
4, 248160, Note_on_c, 2, 65, 120
4, 248190, Note_on_c, 2, 69, 0
4, 248370, Note_on_c, 2, 65, 0
4, 248640, Note_on_c, 2, 72, 120
4, 249120, Note_on_c, 2, 69, 120
4, 249150, Note_on_c, 2, 72, 0
4, 249330, Note_on_c, 2, 69, 0
4, 249600, Note_on_c, 2, 75, 120
4, 250080, Note_on_c, 2, 72, 120
4, 250110, Note_on_c, 2, 75, 0
4, 250290, Note_on_c, 2, 72, 0
4, 250560, Note_on_c, 2, 70, 120
4, 251010, Note_on_c, 2, 70, 0
4, 253440, Note_on_c, 2, 69, 120
4, 253920, Note_on_c, 2, 65, 120
4, 253950, Note_on_c, 2, 69, 0
4, 254130, Note_on_c, 2, 65, 0
4, 254400, Note_on_c, 2, 72, 120
4, 254880, Note_on_c, 2, 69, 120
4, 254910, Note_on_c, 2, 72, 0
4, 255090, Note_on_c, 2, 69, 0
4, 255360, Note_on_c, 2, 75, 120
4, 255840, Note_on_c, 2, 72, 120
4, 255870, Note_on_c, 2, 75, 0
4, 256050, Note_on_c, 2, 72, 0
4, 256320, Note_on_c, 2, 62, 120
4, 256320, Note_on_c, 2, 70, 120
4, 257370, Note_on_c, 2, 62, 0
4, 257370, Note_on_c, 2, 70, 0
4, 257760, Note_on_c, 2, 70, 120
4, 257760, Note_on_c, 2, 74, 120
4, 258810, Note_on_c, 2, 70, 0
4, 258810, Note_on_c, 2, 74, 0
4, 259200, Note_on_c, 2, 74, 120
4, 259200, Note_on_c, 2, 77, 120
4, 259410, Note_on_c, 2, 74, 0
4, 259410, Note_on_c, 2, 77, 0
4, 259680, Note_on_c, 2, 74, 120
4, 259680, Note_on_c, 2, 77, 120
4, 259890, Note_on_c, 2, 74, 0
4, 259890, Note_on_c, 2, 77, 0
4, 260160, Note_on_c, 2, 74, 120
4, 260160, Note_on_c, 2, 77, 120
4, 260340, Note_on_c, 2, 74, 0
4, 260340, Note_on_c, 2, 77, 0
4, 260640, Note_on_c, 2, 62, 120
4, 260640, Note_on_c, 2, 70, 120
4, 261240, Note_on_c, 2, 62, 0
4, 261240, Note_on_c, 2, 70, 0
4, 261600, Note_on_c, 2, 62, 70
4, 261600, Note_on_c, 2, 70, 70
4, 262080, Note_on_c, 2, 65, 70
4, 262110, Note_on_c, 2, 62, 0
4, 263040, Note_on_c, 2, 62, 70
4, 263070, Note_on_c, 2, 65, 0
4, 263520, Note_on_c, 2, 63, 70
4, 263550, Note_on_c, 2, 62, 0
4, 264480, Note_on_c, 2, 67, 70
4, 264510, Note_on_c, 2, 63, 0
4, 264960, Note_on_c, 2, 63, 70
4, 264990, Note_on_c, 2, 67, 0
4, 265680, Note_on_c, 2, 70, 0
4, 265740, Note_on_c, 2, 63, 0
4, 267360, Note_on_c, 2, 63, 70
4, 267360, Note_on_c, 2, 70, 70
4, 267840, Note_on_c, 2, 67, 70
4, 267870, Note_on_c, 2, 63, 0
4, 268800, Note_on_c, 2, 63, 70
4, 268830, Note_on_c, 2, 67, 0
4, 269280, Note_on_c, 2, 65, 70
4, 269310, Note_on_c, 2, 63, 0
4, 270240, Note_on_c, 2, 68, 70
4, 270270, Note_on_c, 2, 65, 0
4, 270720, Note_on_c, 2, 65, 70
4, 270750, Note_on_c, 2, 68, 0
4, 271440, Note_on_c, 2, 70, 0
4, 271500, Note_on_c, 2, 65, 0
4, 273120, Note_on_c, 2, 65, 70
4, 273600, Note_on_c, 2, 68, 70
4, 273600, Control_c, 2, 11, 80
4, 273630, Note_on_c, 2, 65, 0
4, 273720, Control_c, 2, 11, 81
4, 273830, Control_c, 2, 11, 82
4, 273950, Control_c, 2, 11, 83
4, 274060, Control_c, 2, 11, 84
4, 274180, Control_c, 2, 11, 85
4, 274290, Control_c, 2, 11, 86
4, 274400, Control_c, 2, 11, 87
4, 274520, Control_c, 2, 11, 88
4, 274560, Note_on_c, 2, 65, 70
4, 274590, Note_on_c, 2, 68, 0
4, 274630, Control_c, 2, 11, 89
4, 274750, Control_c, 2, 11, 90
4, 274860, Control_c, 2, 11, 91
4, 274980, Control_c, 2, 11, 92
4, 275040, Note_on_c, 2, 67, 70
4, 275070, Note_on_c, 2, 65, 0
4, 275090, Control_c, 2, 11, 93
4, 275200, Control_c, 2, 11, 94
4, 275320, Control_c, 2, 11, 95
4, 275430, Control_c, 2, 11, 96
4, 275550, Control_c, 2, 11, 97
4, 275660, Control_c, 2, 11, 98
4, 275780, Control_c, 2, 11, 99
4, 275890, Control_c, 2, 11, 100
4, 276000, Note_on_c, 2, 68, 70
4, 276030, Note_on_c, 2, 67, 0
4, 276474, Control_c, 2, 11, 110
4, 276480, Note_on_c, 2, 70, 70
4, 276510, Note_on_c, 2, 68, 0
4, 276720, Control_c, 2, 11, 110
4, 276810, Control_c, 2, 11, 109
4, 276900, Control_c, 2, 11, 108
4, 276980, Control_c, 2, 11, 107
4, 277070, Control_c, 2, 11, 106
4, 277150, Control_c, 2, 11, 105
4, 277240, Control_c, 2, 11, 104
4, 277320, Control_c, 2, 11, 103
4, 277410, Control_c, 2, 11, 102
4, 277490, Control_c, 2, 11, 101
4, 277580, Control_c, 2, 11, 100
4, 277660, Control_c, 2, 11, 99
4, 277750, Control_c, 2, 11, 98
4, 277830, Control_c, 2, 11, 97
4, 277920, Control_c, 2, 11, 96
4, 278000, Control_c, 2, 11, 95
4, 278090, Control_c, 2, 11, 94
4, 278170, Control_c, 2, 11, 93
4, 278260, Control_c, 2, 11, 92
4, 278340, Control_c, 2, 11, 91
4, 278430, Control_c, 2, 11, 90
4, 278510, Control_c, 2, 11, 89
4, 278600, Control_c, 2, 11, 88
4, 278680, Control_c, 2, 11, 87
4, 278770, Control_c, 2, 11, 86
4, 278790, Note_on_c, 2, 70, 0
4, 278850, Control_c, 2, 11, 85
4, 278880, Note_on_c, 2, 70, 70
4, 278940, Control_c, 2, 11, 84
4, 279020, Control_c, 2, 11, 83
4, 279110, Control_c, 2, 11, 82
4, 279190, Control_c, 2, 11, 81
4, 279280, Control_c, 2, 11, 80
4, 279360, Note_on_c, 2, 68, 70
4, 279390, Note_on_c, 2, 70, 0
4, 279810, Note_on_c, 2, 68, 0
4, 280320, Note_on_c, 2, 68, 70
4, 280530, Note_on_c, 2, 68, 0
4, 280800, Note_on_c, 2, 67, 70
4, 281670, Note_on_c, 2, 67, 0
4, 281760, Note_on_c, 2, 67, 70
4, 282210, Note_on_c, 2, 67, 0
4, 282240, Note_on_c, 2, 65, 70
4, 283020, Note_on_c, 2, 65, 0
4, 284640, Note_on_c, 2, 62, 70
4, 284640, Note_on_c, 2, 70, 70
4, 284880, Note_on_c, 2, 63, 70
4, 284910, Note_on_c, 2, 62, 0
4, 285120, Note_on_c, 2, 65, 70
4, 285150, Note_on_c, 2, 63, 0
4, 286080, Note_on_c, 2, 62, 70
4, 286110, Note_on_c, 2, 65, 0
4, 286560, Note_on_c, 2, 63, 70
4, 286590, Note_on_c, 2, 62, 0
4, 287520, Note_on_c, 2, 67, 70
4, 287550, Note_on_c, 2, 63, 0
4, 288000, Note_on_c, 2, 63, 70
4, 288030, Note_on_c, 2, 67, 0
4, 288600, Note_on_c, 2, 63, 0
4, 288600, Note_on_c, 2, 70, 0
4, 290400, Note_on_c, 2, 63, 70
4, 290400, Note_on_c, 2, 70, 70
4, 290640, Note_on_c, 2, 65, 70
4, 290670, Note_on_c, 2, 63, 0
4, 290880, Note_on_c, 2, 67, 70
4, 290910, Note_on_c, 2, 65, 0
4, 291840, Note_on_c, 2, 63, 70
4, 291870, Note_on_c, 2, 67, 0
4, 292320, Note_on_c, 2, 65, 70
4, 292350, Note_on_c, 2, 63, 0
4, 293280, Note_on_c, 2, 68, 70
4, 293310, Note_on_c, 2, 65, 0
4, 293760, Note_on_c, 2, 65, 70
4, 293790, Note_on_c, 2, 68, 0
4, 294360, Note_on_c, 2, 65, 0
4, 294360, Note_on_c, 2, 70, 0
4, 296160, Note_on_c, 2, 62, 70
4, 296160, Note_on_c, 2, 70, 70
4, 296400, Note_on_c, 2, 63, 70
4, 296400, Note_on_c, 2, 72, 70
4, 296430, Note_on_c, 2, 62, 0
4, 296430, Note_on_c, 2, 70, 0
4, 296640, Note_on_c, 2, 65, 70
4, 296640, Note_on_c, 2, 74, 70
4, 296640, Control_c, 2, 11, 80
4, 296670, Note_on_c, 2, 63, 0
4, 296670, Note_on_c, 2, 72, 0
4, 296910, Control_c, 2, 11, 82
4, 297170, Control_c, 2, 11, 84
4, 297440, Control_c, 2, 11, 86
4, 297600, Note_on_c, 2, 62, 70
4, 297600, Note_on_c, 2, 70, 70
4, 297630, Note_on_c, 2, 65, 0
4, 297630, Note_on_c, 2, 74, 0
4, 297700, Control_c, 2, 11, 88
4, 297960, Control_c, 2, 11, 91
4, 298080, Note_on_c, 2, 63, 70
4, 298080, Note_on_c, 2, 72, 70
4, 298110, Note_on_c, 2, 62, 0
4, 298110, Note_on_c, 2, 70, 0
4, 298230, Control_c, 2, 11, 93
4, 298490, Control_c, 2, 11, 95
4, 298760, Control_c, 2, 11, 97
4, 299020, Control_c, 2, 11, 100
4, 299040, Note_on_c, 2, 65, 70
4, 299040, Note_on_c, 2, 74, 70
4, 299070, Note_on_c, 2, 63, 0
4, 299070, Note_on_c, 2, 72, 0
4, 299514, Control_c, 2, 11, 110
4, 299520, Note_on_c, 2, 67, 70
4, 299520, Note_on_c, 2, 75, 70
4, 299550, Note_on_c, 2, 65, 0
4, 299550, Note_on_c, 2, 74, 0
4, 299660, Control_c, 2, 11, 109
4, 299800, Control_c, 2, 11, 107
4, 299940, Control_c, 2, 11, 106
4, 300070, Control_c, 2, 11, 104
4, 300210, Control_c, 2, 11, 103
4, 300350, Control_c, 2, 11, 101
4, 300480, Control_c, 2, 11, 100
4, 300620, Control_c, 2, 11, 99
4, 300760, Control_c, 2, 11, 97
4, 300900, Control_c, 2, 11, 96
4, 301030, Control_c, 2, 11, 94
4, 301170, Control_c, 2, 11, 93
4, 301310, Control_c, 2, 11, 91
4, 301440, Control_c, 2, 11, 90
4, 301580, Control_c, 2, 11, 88
4, 301720, Control_c, 2, 11, 87
4, 301830, Note_on_c, 2, 67, 0
4, 301830, Note_on_c, 2, 75, 0
4, 301860, Control_c, 2, 11, 85
4, 301920, Note_on_c, 2, 65, 70
4, 301920, Note_on_c, 2, 74, 70
4, 301990, Control_c, 2, 11, 84
4, 302130, Control_c, 2, 11, 82
4, 302270, Control_c, 2, 11, 80
4, 302310, Note_on_c, 2, 65, 0
4, 302310, Note_on_c, 2, 74, 0
4, 302400, Note_on_c, 2, 63, 70
4, 302400, Note_on_c, 2, 69, 70
4, 302670, Note_on_c, 2, 63, 0
4, 302670, Note_on_c, 2, 69, 0
4, 303360, Note_on_c, 2, 63, 70
4, 303360, Note_on_c, 2, 72, 70
4, 303570, Note_on_c, 2, 63, 0
4, 303570, Note_on_c, 2, 72, 0
4, 303840, Note_on_c, 2, 63, 70
4, 303840, Note_on_c, 2, 72, 70
4, 303930, Note_on_c, 2, 65, 70
4, 303930, Note_on_c, 2, 74, 70
4, 303935, Note_on_c, 2, 63, 0
4, 303935, Note_on_c, 2, 72, 0
4, 304020, Note_on_c, 2, 63, 70
4, 304020, Note_on_c, 2, 72, 70
4, 304025, Note_on_c, 2, 65, 0
4, 304025, Note_on_c, 2, 74, 0
4, 304110, Note_on_c, 2, 65, 70
4, 304110, Note_on_c, 2, 74, 70
4, 304115, Note_on_c, 2, 63, 0
4, 304115, Note_on_c, 2, 72, 0
4, 304200, Note_on_c, 2, 63, 70
4, 304200, Note_on_c, 2, 72, 70
4, 304205, Note_on_c, 2, 65, 0
4, 304205, Note_on_c, 2, 74, 0
4, 304290, Note_on_c, 2, 65, 70
4, 304290, Note_on_c, 2, 74, 70
4, 304295, Note_on_c, 2, 63, 0
4, 304295, Note_on_c, 2, 72, 0
4, 304385, Note_on_c, 2, 65, 0
4, 304385, Note_on_c, 2, 74, 0
4, 304560, Note_on_c, 2, 62, 70
4, 304560, Note_on_c, 2, 71, 70
4, 304770, Note_on_c, 2, 62, 0
4, 304770, Note_on_c, 2, 71, 0
4, 304800, Note_on_c, 2, 63, 70
4, 304800, Note_on_c, 2, 72, 70
4, 305250, Note_on_c, 2, 63, 0
4, 305250, Note_on_c, 2, 72, 0
4, 305280, Note_on_c, 2, 63, 70
4, 305280, Note_on_c, 2, 72, 70
4, 305880, Note_on_c, 2, 63, 0
4, 305880, Note_on_c, 2, 72, 0
4, 333600, Note_on_c, 2, 62, 60
4, 333600, Note_on_c, 2, 70, 60
4, 334080, Note_on_c, 2, 65, 60
4, 334080, Note_on_c, 2, 74, 60
4, 334110, Note_on_c, 2, 62, 0
4, 334110, Note_on_c, 2, 70, 0
4, 335040, Note_on_c, 2, 62, 62
4, 335040, Note_on_c, 2, 70, 62
4, 335070, Note_on_c, 2, 65, 0
4, 335070, Note_on_c, 2, 74, 0
4, 335520, Note_on_c, 2, 63, 63
4, 335520, Note_on_c, 2, 72, 63
4, 335550, Note_on_c, 2, 62, 0
4, 335550, Note_on_c, 2, 70, 0
4, 336480, Note_on_c, 2, 67, 66
4, 336480, Note_on_c, 2, 75, 66
4, 336510, Note_on_c, 2, 63, 0
4, 336510, Note_on_c, 2, 72, 0
4, 336960, Note_on_c, 2, 63, 67
4, 336960, Note_on_c, 2, 72, 67
4, 336990, Note_on_c, 2, 67, 0
4, 336990, Note_on_c, 2, 75, 0
4, 337740, Note_on_c, 2, 63, 0
4, 337740, Note_on_c, 2, 72, 0
4, 339360, Note_on_c, 2, 63, 74
4, 339360, Note_on_c, 2, 72, 74
4, 339840, Note_on_c, 2, 67, 75
4, 339840, Note_on_c, 2, 75, 75
4, 339870, Note_on_c, 2, 63, 0
4, 339870, Note_on_c, 2, 72, 0
4, 340800, Note_on_c, 2, 63, 77
4, 340800, Note_on_c, 2, 72, 77
4, 340830, Note_on_c, 2, 67, 0
4, 340830, Note_on_c, 2, 75, 0
4, 341280, Note_on_c, 2, 65, 79
4, 341280, Note_on_c, 2, 74, 79
4, 341310, Note_on_c, 2, 63, 0
4, 341310, Note_on_c, 2, 72, 0
4, 342240, Note_on_c, 2, 68, 81
4, 342240, Note_on_c, 2, 77, 81
4, 342270, Note_on_c, 2, 65, 0
4, 342270, Note_on_c, 2, 74, 0
4, 342720, Note_on_c, 2, 65, 82
4, 342720, Note_on_c, 2, 74, 82
4, 342750, Note_on_c, 2, 68, 0
4, 342750, Note_on_c, 2, 77, 0
4, 343500, Note_on_c, 2, 65, 0
4, 343500, Note_on_c, 2, 74, 0
4, 345120, Note_on_c, 2, 70, 89
4, 345120, Note_on_c, 2, 74, 89
4, 345600, Note_on_c, 2, 77, 90
4, 345630, Note_on_c, 2, 70, 0
4, 346560, Note_on_c, 2, 70, 93
4, 346590, Note_on_c, 2, 77, 0
4, 347040, Note_on_c, 2, 72, 94
4, 347040, Note_on_c, 2, 75, 94
4, 347070, Note_on_c, 2, 70, 0
4, 347070, Note_on_c, 2, 74, 0
4, 348000, Note_on_c, 2, 74, 97
4, 348000, Note_on_c, 2, 77, 97
4, 348030, Note_on_c, 2, 72, 0
4, 348030, Note_on_c, 2, 75, 0
4, 348390, Note_on_c, 2, 74, 0
4, 348390, Note_on_c, 2, 77, 0
4, 348480, Note_on_c, 2, 75, 98
4, 348480, Note_on_c, 2, 79, 98
4, 350790, Note_on_c, 2, 75, 0
4, 350790, Note_on_c, 2, 79, 0
4, 350880, Note_on_c, 2, 74, 104
4, 350880, Note_on_c, 2, 77, 104
4, 351270, Note_on_c, 2, 74, 0
4, 351270, Note_on_c, 2, 77, 0
4, 351360, Note_on_c, 2, 72, 105
4, 351360, Note_on_c, 2, 75, 105
4, 352110, Note_on_c, 2, 72, 0
4, 352110, Note_on_c, 2, 75, 0
4, 352320, Note_on_c, 2, 72, 108
4, 352320, Note_on_c, 2, 75, 108
4, 352530, Note_on_c, 2, 72, 0
4, 352530, Note_on_c, 2, 75, 0
4, 352800, Note_on_c, 2, 72, 109
4, 352800, Note_on_c, 2, 75, 109
4, 352890, Note_on_c, 2, 74, 110
4, 352890, Note_on_c, 2, 77, 110
4, 352895, Note_on_c, 2, 72, 0
4, 352895, Note_on_c, 2, 75, 0
4, 352980, Note_on_c, 2, 72, 110
4, 352980, Note_on_c, 2, 75, 110
4, 352985, Note_on_c, 2, 74, 0
4, 352985, Note_on_c, 2, 77, 0
4, 353070, Note_on_c, 2, 74, 110
4, 353070, Note_on_c, 2, 77, 110
4, 353075, Note_on_c, 2, 72, 0
4, 353075, Note_on_c, 2, 75, 0
4, 353160, Note_on_c, 2, 72, 110
4, 353160, Note_on_c, 2, 75, 110
4, 353165, Note_on_c, 2, 74, 0
4, 353165, Note_on_c, 2, 77, 0
4, 353250, Note_on_c, 2, 74, 110
4, 353250, Note_on_c, 2, 77, 110
4, 353255, Note_on_c, 2, 72, 0
4, 353255, Note_on_c, 2, 75, 0
4, 353345, Note_on_c, 2, 74, 0
4, 353345, Note_on_c, 2, 77, 0
4, 353520, Note_on_c, 2, 71, 111
4, 353520, Note_on_c, 2, 74, 111
4, 353730, Note_on_c, 2, 71, 0
4, 353730, Note_on_c, 2, 74, 0
4, 353760, Note_on_c, 2, 72, 112
4, 353760, Note_on_c, 2, 75, 112
4, 354210, Note_on_c, 2, 72, 0
4, 354210, Note_on_c, 2, 75, 0
4, 354240, Note_on_c, 2, 70, 113
4, 354240, Note_on_c, 2, 74, 113
4, 354840, Note_on_c, 2, 70, 0
4, 354840, Note_on_c, 2, 74, 0
4, 356640, Note_on_c, 2, 70, 120
4, 356640, Note_on_c, 2, 74, 120
4, 356880, Note_on_c, 2, 72, 120
4, 356880, Note_on_c, 2, 75, 120
4, 356910, Note_on_c, 2, 70, 0
4, 356910, Note_on_c, 2, 74, 0
4, 357120, Note_on_c, 2, 74, 120
4, 357120, Note_on_c, 2, 77, 120
4, 357150, Note_on_c, 2, 72, 0
4, 357150, Note_on_c, 2, 75, 0
4, 358080, Note_on_c, 2, 70, 120
4, 358110, Note_on_c, 2, 77, 0
4, 358560, Note_on_c, 2, 72, 120
4, 358560, Note_on_c, 2, 75, 120
4, 358590, Note_on_c, 2, 70, 0
4, 358590, Note_on_c, 2, 74, 0
4, 359520, Note_on_c, 2, 74, 120
4, 359520, Note_on_c, 2, 77, 120
4, 359550, Note_on_c, 2, 72, 0
4, 359550, Note_on_c, 2, 75, 0
4, 359910, Note_on_c, 2, 74, 0
4, 359910, Note_on_c, 2, 77, 0
4, 360000, Note_on_c, 2, 75, 120
4, 360000, Note_on_c, 2, 79, 120
4, 360000, Control_c, 2, 11, 80
4, 360060, Control_c, 2, 11, 87
4, 360120, Control_c, 2, 11, 95
4, 360180, Control_c, 2, 11, 102
4, 360300, Control_c, 2, 11, 110
4, 360360, Control_c, 2, 11, 107
4, 360420, Control_c, 2, 11, 106
4, 360480, Control_c, 2, 11, 104
4, 360540, Control_c, 2, 11, 103
4, 360600, Control_c, 2, 11, 101
4, 360660, Control_c, 2, 11, 100
4, 360720, Control_c, 2, 11, 98
4, 360780, Control_c, 2, 11, 97
4, 360840, Control_c, 2, 11, 95
4, 360900, Control_c, 2, 11, 93
4, 360960, Control_c, 2, 11, 92
4, 361020, Control_c, 2, 11, 90
4, 361080, Control_c, 2, 11, 89
4, 361140, Control_c, 2, 11, 87
4, 361200, Control_c, 2, 11, 86
4, 361260, Control_c, 2, 11, 84
4, 361320, Control_c, 2, 11, 82
4, 361380, Control_c, 2, 11, 80
4, 362310, Note_on_c, 2, 75, 0
4, 362310, Note_on_c, 2, 79, 0
4, 362400, Note_on_c, 2, 74, 120
4, 362400, Note_on_c, 2, 77, 120
4, 362880, Note_on_c, 2, 72, 120
4, 362880, Note_on_c, 2, 75, 120
4, 362910, Note_on_c, 2, 74, 0
4, 362910, Note_on_c, 2, 77, 0
4, 363330, Note_on_c, 2, 72, 0
4, 363330, Note_on_c, 2, 75, 0
4, 363840, Note_on_c, 2, 72, 120
4, 363840, Note_on_c, 2, 75, 120
4, 364230, Note_on_c, 2, 72, 0
4, 364230, Note_on_c, 2, 75, 0
4, 364320, Note_on_c, 2, 72, 120
4, 364320, Note_on_c, 2, 75, 120
4, 364410, Note_on_c, 2, 74, 120
4, 364410, Note_on_c, 2, 77, 120
4, 364415, Note_on_c, 2, 72, 0
4, 364415, Note_on_c, 2, 75, 0
4, 364500, Note_on_c, 2, 72, 120
4, 364500, Note_on_c, 2, 75, 120
4, 364505, Note_on_c, 2, 74, 0
4, 364505, Note_on_c, 2, 77, 0
4, 364590, Note_on_c, 2, 74, 120
4, 364590, Note_on_c, 2, 77, 120
4, 364595, Note_on_c, 2, 72, 0
4, 364595, Note_on_c, 2, 75, 0
4, 364680, Note_on_c, 2, 72, 120
4, 364680, Note_on_c, 2, 75, 120
4, 364685, Note_on_c, 2, 74, 0
4, 364685, Note_on_c, 2, 77, 0
4, 364770, Note_on_c, 2, 74, 120
4, 364770, Note_on_c, 2, 77, 120
4, 364775, Note_on_c, 2, 72, 0
4, 364775, Note_on_c, 2, 75, 0
4, 364865, Note_on_c, 2, 74, 0
4, 364865, Note_on_c, 2, 77, 0
4, 365040, Note_on_c, 2, 71, 120
4, 365040, Note_on_c, 2, 74, 120
4, 365250, Note_on_c, 2, 71, 0
4, 365250, Note_on_c, 2, 74, 0
4, 365280, Note_on_c, 2, 72, 120
4, 365280, Note_on_c, 2, 75, 120
4, 365730, Note_on_c, 2, 72, 0
4, 365730, Note_on_c, 2, 75, 0
4, 365760, Note_on_c, 2, 70, 120
4, 365760, Note_on_c, 2, 74, 120
4, 366360, Note_on_c, 2, 70, 0
4, 366360, Note_on_c, 2, 74, 0
4, 368160, Note_on_c, 2, 74, 120
4, 368160, Note_on_c, 2, 77, 120
4, 368640, Note_on_c, 2, 72, 120
4, 368640, Note_on_c, 2, 75, 120
4, 368670, Note_on_c, 2, 74, 0
4, 368670, Note_on_c, 2, 77, 0
4, 369090, Note_on_c, 2, 72, 0
4, 369090, Note_on_c, 2, 75, 0
4, 371040, Note_on_c, 2, 69, 120
4, 371040, Note_on_c, 2, 77, 120
4, 371520, Note_on_c, 2, 70, 120
4, 371520, Note_on_c, 2, 74, 120
4, 371550, Note_on_c, 2, 69, 0
4, 371550, Note_on_c, 2, 77, 0
4, 371970, Note_on_c, 2, 70, 0
4, 371970, Note_on_c, 2, 74, 0
4, 373920, Note_on_c, 2, 74, 102
4, 373920, Note_on_c, 2, 77, 102
4, 374400, Note_on_c, 2, 72, 96
4, 374400, Note_on_c, 2, 75, 96
4, 374430, Note_on_c, 2, 74, 0
4, 374430, Note_on_c, 2, 77, 0
4, 374850, Note_on_c, 2, 72, 0
4, 374850, Note_on_c, 2, 75, 0
4, 376800, Note_on_c, 2, 69, 66
4, 376800, Note_on_c, 2, 77, 66
4, 377280, Note_on_c, 2, 70, 60
4, 377280, Note_on_c, 2, 74, 60
4, 377310, Note_on_c, 2, 69, 0
4, 377310, Note_on_c, 2, 77, 0
4, 377730, Note_on_c, 2, 70, 0
4, 377730, Note_on_c, 2, 74, 0
4, 378720, Note_on_c, 2, 70, 60
4, 378720, Note_on_c, 2, 74, 60
4, 379170, Note_on_c, 2, 70, 0
4, 379170, Note_on_c, 2, 74, 0
4, 380160, Note_on_c, 2, 70, 60
4, 380160, Note_on_c, 2, 74, 60
4, 380610, Note_on_c, 2, 70, 0
4, 380610, Note_on_c, 2, 74, 0
4, 381600, Note_on_c, 2, 70, 60
4, 381600, Note_on_c, 2, 74, 60
4, 382050, Note_on_c, 2, 70, 0
4, 382050, Note_on_c, 2, 74, 0
4, 383040, Note_on_c, 2, 70, 60
4, 383040, Note_on_c, 2, 74, 60
4, 383490, Note_on_c, 2, 70, 0
4, 383490, Note_on_c, 2, 74, 0
4, 388320, Note_on_c, 2, 63, 105
4, 388320, Note_on_c, 2, 69, 105
4, 388800, Note_on_c, 2, 62, 110
4, 388800, Note_on_c, 2, 70, 110
4, 388830, Note_on_c, 2, 63, 0
4, 388830, Note_on_c, 2, 69, 0
4, 389010, Note_on_c, 2, 62, 0
4, 389010, Note_on_c, 2, 70, 0
4, 389280, Note_on_c, 2, 58, 110
4, 389280, Note_on_c, 2, 62, 110
4, 389970, Note_on_c, 2, 58, 0
4, 389970, Note_on_c, 2, 62, 0
4, 390240, Note_on_c, 2, 58, 110
4, 390240, Note_on_c, 2, 62, 110
4, 390870, Note_on_c, 2, 58, 0
4, 390870, Note_on_c, 2, 62, 0
4, 391200, Note_on_c, 2, 58, 110
4, 391200, Note_on_c, 2, 62, 110
4, 391410, Note_on_c, 2, 58, 0
4, 391410, Note_on_c, 2, 62, 0
4, 391680, Note_on_c, 2, 60, 110
4, 391680, Note_on_c, 2, 63, 110
4, 392370, Note_on_c, 2, 60, 0
4, 392370, Note_on_c, 2, 63, 0
4, 392640, Note_on_c, 2, 60, 110
4, 392640, Note_on_c, 2, 63, 110
4, 392850, Note_on_c, 2, 60, 0
4, 392850, Note_on_c, 2, 63, 0
4, 393120, Note_on_c, 2, 60, 110
4, 393120, Note_on_c, 2, 63, 110
4, 393720, Note_on_c, 2, 60, 0
4, 393720, Note_on_c, 2, 63, 0
4, 394080, Note_on_c, 2, 65, 60
4, 394560, Note_on_c, 2, 66, 60
4, 394590, Note_on_c, 2, 65, 0
4, 395040, Note_on_c, 2, 69, 60
4, 395070, Note_on_c, 2, 66, 0
4, 395520, Note_on_c, 2, 72, 60
4, 395550, Note_on_c, 2, 69, 0
4, 396000, Note_on_c, 2, 75, 60
4, 396030, Note_on_c, 2, 72, 0
4, 396480, Note_on_c, 2, 77, 60
4, 396510, Note_on_c, 2, 75, 0
4, 397080, Note_on_c, 2, 77, 0
4, 399840, Note_on_c, 2, 63, 60
4, 400320, Note_on_c, 2, 61, 60
4, 400350, Note_on_c, 2, 63, 0
4, 400800, Note_on_c, 2, 64, 60
4, 400830, Note_on_c, 2, 61, 0
4, 401280, Note_on_c, 2, 67, 60
4, 401310, Note_on_c, 2, 64, 0
4, 401760, Note_on_c, 2, 70, 60
4, 401790, Note_on_c, 2, 67, 0
4, 402240, Note_on_c, 2, 72, 60
4, 402270, Note_on_c, 2, 70, 0
4, 402840, Note_on_c, 2, 72, 0
4, 411360, Note_on_c, 2, 67, 105
4, 411360, Note_on_c, 2, 70, 105
4, 411570, Note_on_c, 2, 67, 0
4, 411570, Note_on_c, 2, 70, 0
4, 411840, Note_on_c, 2, 65, 120
4, 411840, Note_on_c, 2, 69, 120
4, 413010, Note_on_c, 2, 65, 0
4, 413010, Note_on_c, 2, 69, 0
4, 413280, Note_on_c, 2, 69, 120
4, 413280, Note_on_c, 2, 72, 120
4, 414450, Note_on_c, 2, 69, 0
4, 414450, Note_on_c, 2, 72, 0
4, 414720, Note_on_c, 2, 69, 120
4, 414720, Note_on_c, 2, 72, 120
4, 414930, Note_on_c, 2, 69, 0
4, 414930, Note_on_c, 2, 72, 0
4, 415200, Note_on_c, 2, 69, 120
4, 415200, Note_on_c, 2, 72, 120
4, 415410, Note_on_c, 2, 69, 0
4, 415410, Note_on_c, 2, 72, 0
4, 415680, Note_on_c, 2, 69, 120
4, 415680, Note_on_c, 2, 72, 120
4, 415890, Note_on_c, 2, 69, 0
4, 415890, Note_on_c, 2, 72, 0
4, 416160, Note_on_c, 2, 65, 120
4, 416160, Note_on_c, 2, 69, 120
4, 416520, Note_on_c, 2, 65, 0
4, 416520, Note_on_c, 2, 69, 0
4, 452160, Note_on_c, 2, 72, 70
4, 452160, Note_on_c, 2, 75, 70
4, 452370, Note_on_c, 2, 72, 0
4, 452370, Note_on_c, 2, 75, 0
4, 463200, Note_on_c, 2, 69, 90
4, 463680, Note_on_c, 2, 70, 110
4, 463710, Note_on_c, 2, 69, 0
4, 463890, Note_on_c, 2, 70, 0
4, 464160, Note_on_c, 2, 65, 110
4, 464640, Note_on_c, 2, 74, 110
4, 464670, Note_on_c, 2, 65, 0
4, 464850, Note_on_c, 2, 74, 0
4, 465120, Note_on_c, 2, 70, 110
4, 465600, Note_on_c, 2, 77, 110
4, 465630, Note_on_c, 2, 70, 0
4, 465810, Note_on_c, 2, 77, 0
4, 466080, Note_on_c, 2, 74, 110
4, 466230, Note_on_c, 2, 74, 0
4, 466560, Note_on_c, 2, 77, 110
4, 467040, Note_on_c, 2, 75, 110
4, 467070, Note_on_c, 2, 77, 0
4, 467250, Note_on_c, 2, 75, 0
4, 467520, Note_on_c, 2, 72, 110
4, 467670, Note_on_c, 2, 72, 0
4, 468000, Note_on_c, 2, 69, 110
4, 468600, Note_on_c, 2, 69, 0
4, 468960, Note_on_c, 2, 65, 70
4, 469440, Note_on_c, 2, 66, 70
4, 469470, Note_on_c, 2, 65, 0
4, 469920, Note_on_c, 2, 69, 70
4, 469950, Note_on_c, 2, 66, 0
4, 470400, Note_on_c, 2, 72, 70
4, 470430, Note_on_c, 2, 69, 0
4, 470880, Note_on_c, 2, 75, 70
4, 470910, Note_on_c, 2, 72, 0
4, 471360, Note_on_c, 2, 77, 70
4, 471390, Note_on_c, 2, 75, 0
4, 471810, Note_on_c, 2, 77, 0
4, 474720, Note_on_c, 2, 67, 70
4, 475200, Note_on_c, 2, 68, 70
4, 475230, Note_on_c, 2, 67, 0
4, 475680, Note_on_c, 2, 71, 70
4, 475710, Note_on_c, 2, 68, 0
4, 476160, Note_on_c, 2, 74, 70
4, 476190, Note_on_c, 2, 71, 0
4, 476640, Note_on_c, 2, 77, 70
4, 476670, Note_on_c, 2, 74, 0
4, 477120, Note_on_c, 2, 79, 70
4, 477150, Note_on_c, 2, 77, 0
4, 477570, Note_on_c, 2, 79, 0
4, 480480, Note_on_c, 2, 73, 70
4, 480960, Note_on_c, 2, 70, 70
4, 480990, Note_on_c, 2, 73, 0
4, 481440, Note_on_c, 2, 67, 70
4, 481470, Note_on_c, 2, 70, 0
4, 481920, Note_on_c, 2, 64, 70
4, 481950, Note_on_c, 2, 67, 0
4, 482400, Note_on_c, 2, 61, 70
4, 482430, Note_on_c, 2, 64, 0
4, 482880, Note_on_c, 2, 60, 70
4, 482910, Note_on_c, 2, 61, 0
4, 483270, Note_on_c, 2, 60, 0
4, 483360, Note_on_c, 2, 64, 70
4, 483840, Note_on_c, 2, 65, 70
4, 483870, Note_on_c, 2, 64, 0
4, 484320, Note_on_c, 2, 69, 70
4, 484350, Note_on_c, 2, 65, 0
4, 484800, Note_on_c, 2, 72, 70
4, 484830, Note_on_c, 2, 69, 0
4, 485280, Note_on_c, 2, 75, 70
4, 485310, Note_on_c, 2, 72, 0
4, 485760, Note_on_c, 2, 77, 76
4, 485790, Note_on_c, 2, 75, 0
4, 486240, Note_on_c, 2, 78, 82
4, 486270, Note_on_c, 2, 77, 0
4, 486720, Note_on_c, 2, 77, 88
4, 486750, Note_on_c, 2, 78, 0
4, 487200, Note_on_c, 2, 75, 95
4, 487230, Note_on_c, 2, 77, 0
4, 487680, Note_on_c, 2, 72, 101
4, 487710, Note_on_c, 2, 75, 0
4, 488160, Note_on_c, 2, 69, 107
4, 488190, Note_on_c, 2, 72, 0
4, 488640, Note_on_c, 2, 65, 113
4, 488670, Note_on_c, 2, 69, 0
4, 488850, Note_on_c, 2, 65, 0
4, 489120, Note_on_c, 2, 66, 120
4, 489600, Note_on_c, 2, 65, 70
4, 489630, Note_on_c, 2, 66, 0
4, 490080, Note_on_c, 2, 69, 70
4, 490110, Note_on_c, 2, 65, 0
4, 490560, Note_on_c, 2, 72, 70
4, 490590, Note_on_c, 2, 69, 0
4, 491040, Note_on_c, 2, 75, 70
4, 491070, Note_on_c, 2, 72, 0
4, 491520, Note_on_c, 2, 77, 76
4, 491550, Note_on_c, 2, 75, 0
4, 492000, Note_on_c, 2, 78, 82
4, 492030, Note_on_c, 2, 77, 0
4, 492480, Note_on_c, 2, 77, 88
4, 492510, Note_on_c, 2, 78, 0
4, 492960, Note_on_c, 2, 75, 95
4, 492990, Note_on_c, 2, 77, 0
4, 493440, Note_on_c, 2, 72, 101
4, 493470, Note_on_c, 2, 75, 0
4, 493920, Note_on_c, 2, 69, 107
4, 493950, Note_on_c, 2, 72, 0
4, 494400, Note_on_c, 2, 65, 113
4, 494430, Note_on_c, 2, 69, 0
4, 494610, Note_on_c, 2, 65, 0
4, 494880, Note_on_c, 2, 66, 120
4, 495360, Note_on_c, 2, 65, 110
4, 495390, Note_on_c, 2, 66, 0
4, 495570, Note_on_c, 2, 65, 0
4, 495840, Note_on_c, 2, 72, 120
4, 495840, Note_on_c, 2, 75, 120
4, 496710, Note_on_c, 2, 72, 0
4, 496710, Note_on_c, 2, 75, 0
4, 496800, Note_on_c, 2, 70, 120
4, 496800, Note_on_c, 2, 74, 120
4, 497670, Note_on_c, 2, 70, 0
4, 497670, Note_on_c, 2, 74, 0
4, 497760, Note_on_c, 2, 67, 120
4, 497760, Note_on_c, 2, 70, 120
4, 497970, Note_on_c, 2, 67, 0
4, 497970, Note_on_c, 2, 70, 0
4, 498240, Note_on_c, 2, 62, 120
4, 498240, Note_on_c, 2, 70, 120
4, 499590, Note_on_c, 2, 62, 0
4, 499590, Note_on_c, 2, 70, 0
4, 499680, Note_on_c, 2, 63, 120
4, 499680, Note_on_c, 2, 69, 120
4, 501030, Note_on_c, 2, 63, 0
4, 501030, Note_on_c, 2, 69, 0
4, 501120, Note_on_c, 2, 62, 120
4, 501120, Note_on_c, 2, 70, 120
4, 501570, Note_on_c, 2, 62, 0
4, 501570, Note_on_c, 2, 70, 0
4, 504000, Note_on_c, 2, 69, 120
4, 504480, Note_on_c, 2, 65, 120
4, 504510, Note_on_c, 2, 69, 0
4, 504690, Note_on_c, 2, 65, 0
4, 504960, Note_on_c, 2, 72, 120
4, 505440, Note_on_c, 2, 69, 120
4, 505470, Note_on_c, 2, 72, 0
4, 505650, Note_on_c, 2, 69, 0
4, 505920, Note_on_c, 2, 75, 120
4, 506400, Note_on_c, 2, 72, 120
4, 506430, Note_on_c, 2, 75, 0
4, 506610, Note_on_c, 2, 72, 0
4, 506880, Note_on_c, 2, 70, 120
4, 507330, Note_on_c, 2, 70, 0
4, 509760, Note_on_c, 2, 69, 120
4, 510240, Note_on_c, 2, 65, 120
4, 510270, Note_on_c, 2, 69, 0
4, 510450, Note_on_c, 2, 65, 0
4, 510720, Note_on_c, 2, 72, 120
4, 511200, Note_on_c, 2, 69, 120
4, 511230, Note_on_c, 2, 72, 0
4, 511410, Note_on_c, 2, 69, 0
4, 511680, Note_on_c, 2, 75, 120
4, 512160, Note_on_c, 2, 72, 120
4, 512190, Note_on_c, 2, 75, 0
4, 512370, Note_on_c, 2, 72, 0
4, 512640, Note_on_c, 2, 62, 120
4, 512640, Note_on_c, 2, 70, 120
4, 513690, Note_on_c, 2, 62, 0
4, 513690, Note_on_c, 2, 70, 0
4, 514080, Note_on_c, 2, 70, 120
4, 514080, Note_on_c, 2, 74, 120
4, 515130, Note_on_c, 2, 70, 0
4, 515130, Note_on_c, 2, 74, 0
4, 515520, Note_on_c, 2, 74, 120
4, 515520, Note_on_c, 2, 77, 120
4, 515730, Note_on_c, 2, 74, 0
4, 515730, Note_on_c, 2, 77, 0
4, 516000, Note_on_c, 2, 74, 120
4, 516000, Note_on_c, 2, 77, 120
4, 516210, Note_on_c, 2, 74, 0
4, 516210, Note_on_c, 2, 77, 0
4, 516480, Note_on_c, 2, 74, 120
4, 516480, Note_on_c, 2, 77, 120
4, 516660, Note_on_c, 2, 74, 0
4, 516660, Note_on_c, 2, 77, 0
4, 516960, Note_on_c, 2, 62, 120
4, 516960, Note_on_c, 2, 70, 120
4, 517560, Note_on_c, 2, 62, 0
4, 517560, Note_on_c, 2, 70, 0
4, 517920, Note_on_c, 2, 62, 70
4, 517920, Note_on_c, 2, 70, 70
4, 518400, Note_on_c, 2, 65, 70
4, 518430, Note_on_c, 2, 62, 0
4, 519360, Note_on_c, 2, 62, 70
4, 519390, Note_on_c, 2, 65, 0
4, 519840, Note_on_c, 2, 63, 70
4, 519870, Note_on_c, 2, 62, 0
4, 520800, Note_on_c, 2, 67, 70
4, 520830, Note_on_c, 2, 63, 0
4, 521280, Note_on_c, 2, 63, 70
4, 521310, Note_on_c, 2, 67, 0
4, 522000, Note_on_c, 2, 70, 0
4, 522060, Note_on_c, 2, 63, 0
4, 523680, Note_on_c, 2, 63, 70
4, 523680, Note_on_c, 2, 70, 70
4, 524160, Note_on_c, 2, 67, 70
4, 524190, Note_on_c, 2, 63, 0
4, 525120, Note_on_c, 2, 63, 70
4, 525150, Note_on_c, 2, 67, 0
4, 525600, Note_on_c, 2, 65, 70
4, 525630, Note_on_c, 2, 63, 0
4, 526560, Note_on_c, 2, 68, 70
4, 526590, Note_on_c, 2, 65, 0
4, 527040, Note_on_c, 2, 65, 70
4, 527070, Note_on_c, 2, 68, 0
4, 527760, Note_on_c, 2, 70, 0
4, 527820, Note_on_c, 2, 65, 0
4, 529440, Note_on_c, 2, 65, 70
4, 529920, Note_on_c, 2, 68, 70
4, 529920, Control_c, 2, 11, 80
4, 529950, Note_on_c, 2, 65, 0
4, 530040, Control_c, 2, 11, 81
4, 530150, Control_c, 2, 11, 82
4, 530270, Control_c, 2, 11, 83
4, 530380, Control_c, 2, 11, 84
4, 530500, Control_c, 2, 11, 85
4, 530610, Control_c, 2, 11, 86
4, 530720, Control_c, 2, 11, 87
4, 530840, Control_c, 2, 11, 88
4, 530880, Note_on_c, 2, 65, 70
4, 530910, Note_on_c, 2, 68, 0
4, 530950, Control_c, 2, 11, 89
4, 531070, Control_c, 2, 11, 90
4, 531180, Control_c, 2, 11, 91
4, 531300, Control_c, 2, 11, 92
4, 531360, Note_on_c, 2, 67, 70
4, 531390, Note_on_c, 2, 65, 0
4, 531410, Control_c, 2, 11, 93
4, 531520, Control_c, 2, 11, 94
4, 531640, Control_c, 2, 11, 95
4, 531750, Control_c, 2, 11, 96
4, 531870, Control_c, 2, 11, 97
4, 531980, Control_c, 2, 11, 98
4, 532100, Control_c, 2, 11, 99
4, 532210, Control_c, 2, 11, 100
4, 532320, Note_on_c, 2, 68, 70
4, 532350, Note_on_c, 2, 67, 0
4, 532794, Control_c, 2, 11, 110
4, 532800, Note_on_c, 2, 70, 70
4, 532830, Note_on_c, 2, 68, 0
4, 533040, Control_c, 2, 11, 110
4, 533130, Control_c, 2, 11, 109
4, 533220, Control_c, 2, 11, 108
4, 533300, Control_c, 2, 11, 107
4, 533390, Control_c, 2, 11, 106
4, 533470, Control_c, 2, 11, 105
4, 533560, Control_c, 2, 11, 104
4, 533640, Control_c, 2, 11, 103
4, 533730, Control_c, 2, 11, 102
4, 533810, Control_c, 2, 11, 101
4, 533900, Control_c, 2, 11, 100
4, 533980, Control_c, 2, 11, 99
4, 534070, Control_c, 2, 11, 98
4, 534150, Control_c, 2, 11, 97
4, 534240, Control_c, 2, 11, 96
4, 534320, Control_c, 2, 11, 95
4, 534410, Control_c, 2, 11, 94
4, 534490, Control_c, 2, 11, 93
4, 534580, Control_c, 2, 11, 92
4, 534660, Control_c, 2, 11, 91
4, 534750, Control_c, 2, 11, 90
4, 534830, Control_c, 2, 11, 89
4, 534920, Control_c, 2, 11, 88
4, 535000, Control_c, 2, 11, 87
4, 535090, Control_c, 2, 11, 86
4, 535110, Note_on_c, 2, 70, 0
4, 535170, Control_c, 2, 11, 85
4, 535200, Note_on_c, 2, 70, 70
4, 535260, Control_c, 2, 11, 84
4, 535340, Control_c, 2, 11, 83
4, 535430, Control_c, 2, 11, 82
4, 535510, Control_c, 2, 11, 81
4, 535600, Control_c, 2, 11, 80
4, 535680, Note_on_c, 2, 68, 70
4, 535710, Note_on_c, 2, 70, 0
4, 536130, Note_on_c, 2, 68, 0
4, 536640, Note_on_c, 2, 68, 70
4, 536850, Note_on_c, 2, 68, 0
4, 537120, Note_on_c, 2, 67, 70
4, 537990, Note_on_c, 2, 67, 0
4, 538080, Note_on_c, 2, 67, 70
4, 538530, Note_on_c, 2, 67, 0
4, 538560, Note_on_c, 2, 65, 70
4, 539340, Note_on_c, 2, 65, 0
4, 540960, Note_on_c, 2, 62, 70
4, 540960, Note_on_c, 2, 70, 70
4, 541200, Note_on_c, 2, 63, 70
4, 541230, Note_on_c, 2, 62, 0
4, 541440, Note_on_c, 2, 65, 70
4, 541470, Note_on_c, 2, 63, 0
4, 542400, Note_on_c, 2, 62, 70
4, 542430, Note_on_c, 2, 65, 0
4, 542880, Note_on_c, 2, 63, 70
4, 542910, Note_on_c, 2, 62, 0
4, 543840, Note_on_c, 2, 67, 70
4, 543870, Note_on_c, 2, 63, 0
4, 544320, Note_on_c, 2, 63, 70
4, 544350, Note_on_c, 2, 67, 0
4, 544920, Note_on_c, 2, 63, 0
4, 544920, Note_on_c, 2, 70, 0
4, 546720, Note_on_c, 2, 63, 70
4, 546720, Note_on_c, 2, 70, 70
4, 546960, Note_on_c, 2, 65, 70
4, 546990, Note_on_c, 2, 63, 0
4, 547200, Note_on_c, 2, 67, 70
4, 547230, Note_on_c, 2, 65, 0
4, 548160, Note_on_c, 2, 63, 70
4, 548190, Note_on_c, 2, 67, 0
4, 548640, Note_on_c, 2, 65, 70
4, 548670, Note_on_c, 2, 63, 0
4, 549600, Note_on_c, 2, 68, 70
4, 549630, Note_on_c, 2, 65, 0
4, 550080, Note_on_c, 2, 65, 70
4, 550110, Note_on_c, 2, 68, 0
4, 550680, Note_on_c, 2, 65, 0
4, 550680, Note_on_c, 2, 70, 0
4, 552480, Note_on_c, 2, 62, 70
4, 552480, Note_on_c, 2, 70, 70
4, 552720, Note_on_c, 2, 63, 70
4, 552720, Note_on_c, 2, 72, 70
4, 552750, Note_on_c, 2, 62, 0
4, 552750, Note_on_c, 2, 70, 0
4, 552960, Note_on_c, 2, 65, 70
4, 552960, Note_on_c, 2, 74, 70
4, 552960, Control_c, 2, 11, 80
4, 552990, Note_on_c, 2, 63, 0
4, 552990, Note_on_c, 2, 72, 0
4, 553230, Control_c, 2, 11, 82
4, 553490, Control_c, 2, 11, 84
4, 553760, Control_c, 2, 11, 86
4, 553920, Note_on_c, 2, 62, 70
4, 553920, Note_on_c, 2, 70, 70
4, 553950, Note_on_c, 2, 65, 0
4, 553950, Note_on_c, 2, 74, 0
4, 554020, Control_c, 2, 11, 88
4, 554280, Control_c, 2, 11, 91
4, 554400, Note_on_c, 2, 63, 70
4, 554400, Note_on_c, 2, 72, 70
4, 554430, Note_on_c, 2, 62, 0
4, 554430, Note_on_c, 2, 70, 0
4, 554550, Control_c, 2, 11, 93
4, 554810, Control_c, 2, 11, 95
4, 555080, Control_c, 2, 11, 97
4, 555340, Control_c, 2, 11, 100
4, 555360, Note_on_c, 2, 65, 70
4, 555360, Note_on_c, 2, 74, 70
4, 555390, Note_on_c, 2, 63, 0
4, 555390, Note_on_c, 2, 72, 0
4, 555834, Control_c, 2, 11, 110
4, 555840, Note_on_c, 2, 67, 70
4, 555840, Note_on_c, 2, 75, 70
4, 555870, Note_on_c, 2, 65, 0
4, 555870, Note_on_c, 2, 74, 0
4, 555980, Control_c, 2, 11, 109
4, 556120, Control_c, 2, 11, 107
4, 556260, Control_c, 2, 11, 106
4, 556390, Control_c, 2, 11, 104
4, 556530, Control_c, 2, 11, 103
4, 556670, Control_c, 2, 11, 101
4, 556800, Control_c, 2, 11, 100
4, 556940, Control_c, 2, 11, 99
4, 557080, Control_c, 2, 11, 97
4, 557220, Control_c, 2, 11, 96
4, 557350, Control_c, 2, 11, 94
4, 557490, Control_c, 2, 11, 93
4, 557630, Control_c, 2, 11, 91
4, 557760, Control_c, 2, 11, 90
4, 557900, Control_c, 2, 11, 88
4, 558040, Control_c, 2, 11, 87
4, 558150, Note_on_c, 2, 67, 0
4, 558150, Note_on_c, 2, 75, 0
4, 558180, Control_c, 2, 11, 85
4, 558240, Note_on_c, 2, 65, 70
4, 558240, Note_on_c, 2, 74, 70
4, 558310, Control_c, 2, 11, 84
4, 558450, Control_c, 2, 11, 82
4, 558590, Control_c, 2, 11, 80
4, 558630, Note_on_c, 2, 65, 0
4, 558630, Note_on_c, 2, 74, 0
4, 558720, Note_on_c, 2, 63, 70
4, 558720, Note_on_c, 2, 69, 70
4, 558990, Note_on_c, 2, 63, 0
4, 558990, Note_on_c, 2, 69, 0
4, 559680, Note_on_c, 2, 63, 70
4, 559680, Note_on_c, 2, 72, 70
4, 559890, Note_on_c, 2, 63, 0
4, 559890, Note_on_c, 2, 72, 0
4, 560160, Note_on_c, 2, 63, 70
4, 560160, Note_on_c, 2, 72, 70
4, 560250, Note_on_c, 2, 65, 70
4, 560250, Note_on_c, 2, 74, 70
4, 560255, Note_on_c, 2, 63, 0
4, 560255, Note_on_c, 2, 72, 0
4, 560340, Note_on_c, 2, 63, 70
4, 560340, Note_on_c, 2, 72, 70
4, 560345, Note_on_c, 2, 65, 0
4, 560345, Note_on_c, 2, 74, 0
4, 560430, Note_on_c, 2, 65, 70
4, 560430, Note_on_c, 2, 74, 70
4, 560435, Note_on_c, 2, 63, 0
4, 560435, Note_on_c, 2, 72, 0
4, 560520, Note_on_c, 2, 63, 70
4, 560520, Note_on_c, 2, 72, 70
4, 560525, Note_on_c, 2, 65, 0
4, 560525, Note_on_c, 2, 74, 0
4, 560610, Note_on_c, 2, 65, 70
4, 560610, Note_on_c, 2, 74, 70
4, 560615, Note_on_c, 2, 63, 0
4, 560615, Note_on_c, 2, 72, 0
4, 560705, Note_on_c, 2, 65, 0
4, 560705, Note_on_c, 2, 74, 0
4, 560880, Note_on_c, 2, 62, 70
4, 560880, Note_on_c, 2, 71, 70
4, 561090, Note_on_c, 2, 62, 0
4, 561090, Note_on_c, 2, 71, 0
4, 561120, Note_on_c, 2, 63, 70
4, 561120, Note_on_c, 2, 72, 70
4, 561570, Note_on_c, 2, 63, 0
4, 561570, Note_on_c, 2, 72, 0
4, 561600, Note_on_c, 2, 63, 70
4, 561600, Note_on_c, 2, 72, 70
4, 562200, Note_on_c, 2, 63, 0
4, 562200, Note_on_c, 2, 72, 0
4, 589920, Note_on_c, 2, 62, 60
4, 589920, Note_on_c, 2, 70, 60
4, 590400, Note_on_c, 2, 65, 60
4, 590400, Note_on_c, 2, 74, 60
4, 590430, Note_on_c, 2, 62, 0
4, 590430, Note_on_c, 2, 70, 0
4, 591360, Note_on_c, 2, 62, 62
4, 591360, Note_on_c, 2, 70, 62
4, 591390, Note_on_c, 2, 65, 0
4, 591390, Note_on_c, 2, 74, 0
4, 591840, Note_on_c, 2, 63, 63
4, 591840, Note_on_c, 2, 72, 63
4, 591870, Note_on_c, 2, 62, 0
4, 591870, Note_on_c, 2, 70, 0
4, 592800, Note_on_c, 2, 67, 66
4, 592800, Note_on_c, 2, 75, 66
4, 592830, Note_on_c, 2, 63, 0
4, 592830, Note_on_c, 2, 72, 0
4, 593280, Note_on_c, 2, 63, 67
4, 593280, Note_on_c, 2, 72, 67
4, 593310, Note_on_c, 2, 67, 0
4, 593310, Note_on_c, 2, 75, 0
4, 594060, Note_on_c, 2, 63, 0
4, 594060, Note_on_c, 2, 72, 0
4, 595680, Note_on_c, 2, 63, 74
4, 595680, Note_on_c, 2, 72, 74
4, 596160, Note_on_c, 2, 67, 75
4, 596160, Note_on_c, 2, 75, 75
4, 596190, Note_on_c, 2, 63, 0
4, 596190, Note_on_c, 2, 72, 0
4, 597120, Note_on_c, 2, 63, 77
4, 597120, Note_on_c, 2, 72, 77
4, 597150, Note_on_c, 2, 67, 0
4, 597150, Note_on_c, 2, 75, 0
4, 597600, Note_on_c, 2, 65, 79
4, 597600, Note_on_c, 2, 74, 79
4, 597630, Note_on_c, 2, 63, 0
4, 597630, Note_on_c, 2, 72, 0
4, 598560, Note_on_c, 2, 68, 81
4, 598560, Note_on_c, 2, 77, 81
4, 598590, Note_on_c, 2, 65, 0
4, 598590, Note_on_c, 2, 74, 0
4, 599040, Note_on_c, 2, 65, 82
4, 599040, Note_on_c, 2, 74, 82
4, 599070, Note_on_c, 2, 68, 0
4, 599070, Note_on_c, 2, 77, 0
4, 599820, Note_on_c, 2, 65, 0
4, 599820, Note_on_c, 2, 74, 0
4, 601440, Note_on_c, 2, 70, 89
4, 601440, Note_on_c, 2, 74, 89
4, 601920, Note_on_c, 2, 77, 90
4, 601950, Note_on_c, 2, 70, 0
4, 602880, Note_on_c, 2, 70, 93
4, 602910, Note_on_c, 2, 77, 0
4, 603360, Note_on_c, 2, 72, 94
4, 603360, Note_on_c, 2, 75, 94
4, 603390, Note_on_c, 2, 70, 0
4, 603390, Note_on_c, 2, 74, 0
4, 604320, Note_on_c, 2, 74, 97
4, 604320, Note_on_c, 2, 77, 97
4, 604350, Note_on_c, 2, 72, 0
4, 604350, Note_on_c, 2, 75, 0
4, 604710, Note_on_c, 2, 74, 0
4, 604710, Note_on_c, 2, 77, 0
4, 604800, Note_on_c, 2, 75, 98
4, 604800, Note_on_c, 2, 79, 98
4, 607110, Note_on_c, 2, 75, 0
4, 607110, Note_on_c, 2, 79, 0
4, 607200, Note_on_c, 2, 74, 104
4, 607200, Note_on_c, 2, 77, 104
4, 607590, Note_on_c, 2, 74, 0
4, 607590, Note_on_c, 2, 77, 0
4, 607680, Note_on_c, 2, 72, 105
4, 607680, Note_on_c, 2, 75, 105
4, 608430, Note_on_c, 2, 72, 0
4, 608430, Note_on_c, 2, 75, 0
4, 608640, Note_on_c, 2, 72, 108
4, 608640, Note_on_c, 2, 75, 108
4, 608850, Note_on_c, 2, 72, 0
4, 608850, Note_on_c, 2, 75, 0
4, 609120, Note_on_c, 2, 72, 109
4, 609120, Note_on_c, 2, 75, 109
4, 609210, Note_on_c, 2, 74, 110
4, 609210, Note_on_c, 2, 77, 110
4, 609215, Note_on_c, 2, 72, 0
4, 609215, Note_on_c, 2, 75, 0
4, 609300, Note_on_c, 2, 72, 110
4, 609300, Note_on_c, 2, 75, 110
4, 609305, Note_on_c, 2, 74, 0
4, 609305, Note_on_c, 2, 77, 0
4, 609390, Note_on_c, 2, 74, 110
4, 609390, Note_on_c, 2, 77, 110
4, 609395, Note_on_c, 2, 72, 0
4, 609395, Note_on_c, 2, 75, 0
4, 609480, Note_on_c, 2, 72, 110
4, 609480, Note_on_c, 2, 75, 110
4, 609485, Note_on_c, 2, 74, 0
4, 609485, Note_on_c, 2, 77, 0
4, 609570, Note_on_c, 2, 74, 110
4, 609570, Note_on_c, 2, 77, 110
4, 609575, Note_on_c, 2, 72, 0
4, 609575, Note_on_c, 2, 75, 0
4, 609665, Note_on_c, 2, 74, 0
4, 609665, Note_on_c, 2, 77, 0
4, 609840, Note_on_c, 2, 71, 111
4, 609840, Note_on_c, 2, 74, 111
4, 610050, Note_on_c, 2, 71, 0
4, 610050, Note_on_c, 2, 74, 0
4, 610080, Note_on_c, 2, 72, 112
4, 610080, Note_on_c, 2, 75, 112
4, 610530, Note_on_c, 2, 72, 0
4, 610530, Note_on_c, 2, 75, 0
4, 610560, Note_on_c, 2, 70, 113
4, 610560, Note_on_c, 2, 74, 113
4, 611160, Note_on_c, 2, 70, 0
4, 611160, Note_on_c, 2, 74, 0
4, 612960, Note_on_c, 2, 70, 120
4, 612960, Note_on_c, 2, 74, 120
4, 613200, Note_on_c, 2, 72, 120
4, 613200, Note_on_c, 2, 75, 120
4, 613230, Note_on_c, 2, 70, 0
4, 613230, Note_on_c, 2, 74, 0
4, 613440, Note_on_c, 2, 74, 120
4, 613440, Note_on_c, 2, 77, 120
4, 613470, Note_on_c, 2, 72, 0
4, 613470, Note_on_c, 2, 75, 0
4, 614400, Note_on_c, 2, 70, 120
4, 614430, Note_on_c, 2, 77, 0
4, 614880, Note_on_c, 2, 72, 120
4, 614880, Note_on_c, 2, 75, 120
4, 614910, Note_on_c, 2, 70, 0
4, 614910, Note_on_c, 2, 74, 0
4, 615840, Note_on_c, 2, 74, 120
4, 615840, Note_on_c, 2, 77, 120
4, 615870, Note_on_c, 2, 72, 0
4, 615870, Note_on_c, 2, 75, 0
4, 616230, Note_on_c, 2, 74, 0
4, 616230, Note_on_c, 2, 77, 0
4, 616320, Note_on_c, 2, 75, 120
4, 616320, Note_on_c, 2, 79, 120
4, 616320, Control_c, 2, 11, 80
4, 616380, Control_c, 2, 11, 87
4, 616440, Control_c, 2, 11, 95
4, 616500, Control_c, 2, 11, 102
4, 616620, Control_c, 2, 11, 110
4, 616680, Control_c, 2, 11, 107
4, 616740, Control_c, 2, 11, 106
4, 616800, Control_c, 2, 11, 104
4, 616860, Control_c, 2, 11, 103
4, 616920, Control_c, 2, 11, 101
4, 616980, Control_c, 2, 11, 100
4, 617040, Control_c, 2, 11, 98
4, 617100, Control_c, 2, 11, 97
4, 617160, Control_c, 2, 11, 95
4, 617220, Control_c, 2, 11, 93
4, 617280, Control_c, 2, 11, 92
4, 617340, Control_c, 2, 11, 90
4, 617400, Control_c, 2, 11, 89
4, 617460, Control_c, 2, 11, 87
4, 617520, Control_c, 2, 11, 86
4, 617580, Control_c, 2, 11, 84
4, 617640, Control_c, 2, 11, 82
4, 617700, Control_c, 2, 11, 80
4, 618630, Note_on_c, 2, 75, 0
4, 618630, Note_on_c, 2, 79, 0
4, 618720, Note_on_c, 2, 74, 120
4, 618720, Note_on_c, 2, 77, 120
4, 619200, Note_on_c, 2, 72, 120
4, 619200, Note_on_c, 2, 75, 120
4, 619230, Note_on_c, 2, 74, 0
4, 619230, Note_on_c, 2, 77, 0
4, 619650, Note_on_c, 2, 72, 0
4, 619650, Note_on_c, 2, 75, 0
4, 620160, Note_on_c, 2, 72, 120
4, 620160, Note_on_c, 2, 75, 120
4, 620550, Note_on_c, 2, 72, 0
4, 620550, Note_on_c, 2, 75, 0
4, 620640, Note_on_c, 2, 72, 120
4, 620640, Note_on_c, 2, 75, 120
4, 620730, Note_on_c, 2, 74, 120
4, 620730, Note_on_c, 2, 77, 120
4, 620735, Note_on_c, 2, 72, 0
4, 620735, Note_on_c, 2, 75, 0
4, 620820, Note_on_c, 2, 72, 120
4, 620820, Note_on_c, 2, 75, 120
4, 620825, Note_on_c, 2, 74, 0
4, 620825, Note_on_c, 2, 77, 0
4, 620910, Note_on_c, 2, 74, 120
4, 620910, Note_on_c, 2, 77, 120
4, 620915, Note_on_c, 2, 72, 0
4, 620915, Note_on_c, 2, 75, 0
4, 621000, Note_on_c, 2, 72, 120
4, 621000, Note_on_c, 2, 75, 120
4, 621005, Note_on_c, 2, 74, 0
4, 621005, Note_on_c, 2, 77, 0
4, 621090, Note_on_c, 2, 74, 120
4, 621090, Note_on_c, 2, 77, 120
4, 621095, Note_on_c, 2, 72, 0
4, 621095, Note_on_c, 2, 75, 0
4, 621185, Note_on_c, 2, 74, 0
4, 621185, Note_on_c, 2, 77, 0
4, 621360, Note_on_c, 2, 71, 120
4, 621360, Note_on_c, 2, 74, 120
4, 621570, Note_on_c, 2, 71, 0
4, 621570, Note_on_c, 2, 74, 0
4, 621600, Note_on_c, 2, 72, 120
4, 621600, Note_on_c, 2, 75, 120
4, 622050, Note_on_c, 2, 72, 0
4, 622050, Note_on_c, 2, 75, 0
4, 622080, Note_on_c, 2, 70, 120
4, 622080, Note_on_c, 2, 74, 120
4, 622680, Note_on_c, 2, 70, 0
4, 622680, Note_on_c, 2, 74, 0
4, 624480, Note_on_c, 2, 74, 120
4, 624480, Note_on_c, 2, 77, 120
4, 624960, Note_on_c, 2, 72, 120
4, 624960, Note_on_c, 2, 75, 120
4, 624990, Note_on_c, 2, 74, 0
4, 624990, Note_on_c, 2, 77, 0
4, 625410, Note_on_c, 2, 72, 0
4, 625410, Note_on_c, 2, 75, 0
4, 627360, Note_on_c, 2, 69, 120
4, 627360, Note_on_c, 2, 77, 120
4, 627840, Note_on_c, 2, 70, 120
4, 627840, Note_on_c, 2, 74, 120
4, 627870, Note_on_c, 2, 69, 0
4, 627870, Note_on_c, 2, 77, 0
4, 628290, Note_on_c, 2, 70, 0
4, 628290, Note_on_c, 2, 74, 0
4, 630240, Note_on_c, 2, 74, 102
4, 630240, Note_on_c, 2, 77, 102
4, 630720, Note_on_c, 2, 72, 96
4, 630720, Note_on_c, 2, 75, 96
4, 630750, Note_on_c, 2, 74, 0
4, 630750, Note_on_c, 2, 77, 0
4, 631170, Note_on_c, 2, 72, 0
4, 631170, Note_on_c, 2, 75, 0
4, 633120, Note_on_c, 2, 69, 66
4, 633120, Note_on_c, 2, 77, 66
4, 633600, Note_on_c, 2, 70, 60
4, 633600, Note_on_c, 2, 74, 60
4, 633630, Note_on_c, 2, 69, 0
4, 633630, Note_on_c, 2, 77, 0
4, 634050, Note_on_c, 2, 70, 0
4, 634050, Note_on_c, 2, 74, 0
4, 635040, Note_on_c, 2, 70, 60
4, 635040, Note_on_c, 2, 74, 60
4, 635490, Note_on_c, 2, 70, 0
4, 635490, Note_on_c, 2, 74, 0
4, 636480, Note_on_c, 2, 70, 60
4, 636480, Note_on_c, 2, 74, 60
4, 636930, Note_on_c, 2, 70, 0
4, 636930, Note_on_c, 2, 74, 0
4, 637920, Note_on_c, 2, 70, 60
4, 637920, Note_on_c, 2, 74, 60
4, 638370, Note_on_c, 2, 70, 0
4, 638370, Note_on_c, 2, 74, 0
4, 639360, Note_on_c, 2, 70, 60
4, 639360, Note_on_c, 2, 74, 60
4, 639810, Note_on_c, 2, 70, 0
4, 639810, Note_on_c, 2, 74, 0
4, 644640, Note_on_c, 2, 69, 90
4, 645120, Note_on_c, 2, 70, 110
4, 645150, Note_on_c, 2, 69, 0
4, 645330, Note_on_c, 2, 70, 0
4, 645600, Note_on_c, 2, 65, 110
4, 646080, Note_on_c, 2, 74, 110
4, 646110, Note_on_c, 2, 65, 0
4, 646290, Note_on_c, 2, 74, 0
4, 646560, Note_on_c, 2, 70, 110
4, 647040, Note_on_c, 2, 77, 110
4, 647070, Note_on_c, 2, 70, 0
4, 647250, Note_on_c, 2, 77, 0
4, 647520, Note_on_c, 2, 74, 110
4, 647670, Note_on_c, 2, 74, 0
4, 648000, Note_on_c, 2, 77, 110
4, 648480, Note_on_c, 2, 75, 110
4, 648510, Note_on_c, 2, 77, 0
4, 648690, Note_on_c, 2, 75, 0
4, 648960, Note_on_c, 2, 72, 110
4, 649110, Note_on_c, 2, 72, 0
4, 649440, Note_on_c, 2, 69, 110
4, 650040, Note_on_c, 2, 69, 0
4, 650400, Note_on_c, 2, 65, 70
4, 650880, Note_on_c, 2, 66, 70
4, 650910, Note_on_c, 2, 65, 0
4, 651360, Note_on_c, 2, 69, 70
4, 651390, Note_on_c, 2, 66, 0
4, 651840, Note_on_c, 2, 72, 70
4, 651870, Note_on_c, 2, 69, 0
4, 652320, Note_on_c, 2, 75, 70
4, 652350, Note_on_c, 2, 72, 0
4, 652800, Note_on_c, 2, 77, 70
4, 652830, Note_on_c, 2, 75, 0
4, 653250, Note_on_c, 2, 77, 0
4, 656160, Note_on_c, 2, 67, 70
4, 656640, Note_on_c, 2, 68, 70
4, 656670, Note_on_c, 2, 67, 0
4, 657120, Note_on_c, 2, 71, 70
4, 657150, Note_on_c, 2, 68, 0
4, 657600, Note_on_c, 2, 74, 70
4, 657630, Note_on_c, 2, 71, 0
4, 658080, Note_on_c, 2, 77, 70
4, 658110, Note_on_c, 2, 74, 0
4, 658560, Note_on_c, 2, 79, 70
4, 658590, Note_on_c, 2, 77, 0
4, 659010, Note_on_c, 2, 79, 0
4, 661920, Note_on_c, 2, 73, 70
4, 662400, Note_on_c, 2, 70, 70
4, 662430, Note_on_c, 2, 73, 0
4, 662880, Note_on_c, 2, 67, 70
4, 662910, Note_on_c, 2, 70, 0
4, 663360, Note_on_c, 2, 64, 70
4, 663390, Note_on_c, 2, 67, 0
4, 663840, Note_on_c, 2, 61, 70
4, 663870, Note_on_c, 2, 64, 0
4, 664320, Note_on_c, 2, 60, 70
4, 664350, Note_on_c, 2, 61, 0
4, 664710, Note_on_c, 2, 60, 0
4, 664800, Note_on_c, 2, 64, 70
4, 665280, Note_on_c, 2, 65, 70
4, 665310, Note_on_c, 2, 64, 0
4, 665760, Note_on_c, 2, 69, 70
4, 665790, Note_on_c, 2, 65, 0
4, 666240, Note_on_c, 2, 72, 70
4, 666270, Note_on_c, 2, 69, 0
4, 666720, Note_on_c, 2, 75, 70
4, 666750, Note_on_c, 2, 72, 0
4, 667200, Note_on_c, 2, 77, 76
4, 667230, Note_on_c, 2, 75, 0
4, 667680, Note_on_c, 2, 78, 82
4, 667710, Note_on_c, 2, 77, 0
4, 668160, Note_on_c, 2, 77, 88
4, 668190, Note_on_c, 2, 78, 0
4, 668640, Note_on_c, 2, 75, 95
4, 668670, Note_on_c, 2, 77, 0
4, 669120, Note_on_c, 2, 72, 101
4, 669150, Note_on_c, 2, 75, 0
4, 669600, Note_on_c, 2, 69, 107
4, 669630, Note_on_c, 2, 72, 0
4, 670080, Note_on_c, 2, 65, 113
4, 670110, Note_on_c, 2, 69, 0
4, 670290, Note_on_c, 2, 65, 0
4, 670560, Note_on_c, 2, 66, 120
4, 671040, Note_on_c, 2, 65, 70
4, 671070, Note_on_c, 2, 66, 0
4, 671520, Note_on_c, 2, 69, 70
4, 671550, Note_on_c, 2, 65, 0
4, 672000, Note_on_c, 2, 72, 70
4, 672030, Note_on_c, 2, 69, 0
4, 672480, Note_on_c, 2, 75, 70
4, 672510, Note_on_c, 2, 72, 0
4, 672960, Note_on_c, 2, 77, 76
4, 672990, Note_on_c, 2, 75, 0
4, 673440, Note_on_c, 2, 78, 82
4, 673470, Note_on_c, 2, 77, 0
4, 673920, Note_on_c, 2, 77, 88
4, 673950, Note_on_c, 2, 78, 0
4, 674400, Note_on_c, 2, 75, 95
4, 674430, Note_on_c, 2, 77, 0
4, 674880, Note_on_c, 2, 72, 101
4, 674910, Note_on_c, 2, 75, 0
4, 675360, Note_on_c, 2, 69, 107
4, 675390, Note_on_c, 2, 72, 0
4, 675840, Note_on_c, 2, 65, 113
4, 675870, Note_on_c, 2, 69, 0
4, 676050, Note_on_c, 2, 65, 0
4, 676320, Note_on_c, 2, 66, 120
4, 676800, Note_on_c, 2, 65, 110
4, 676830, Note_on_c, 2, 66, 0
4, 677010, Note_on_c, 2, 65, 0
4, 677280, Note_on_c, 2, 72, 120
4, 677280, Note_on_c, 2, 75, 120
4, 678150, Note_on_c, 2, 72, 0
4, 678150, Note_on_c, 2, 75, 0
4, 678240, Note_on_c, 2, 70, 120
4, 678240, Note_on_c, 2, 74, 120
4, 679110, Note_on_c, 2, 70, 0
4, 679110, Note_on_c, 2, 74, 0
4, 679200, Note_on_c, 2, 67, 120
4, 679200, Note_on_c, 2, 70, 120
4, 679410, Note_on_c, 2, 67, 0
4, 679410, Note_on_c, 2, 70, 0
4, 679680, Note_on_c, 2, 62, 120
4, 679680, Note_on_c, 2, 70, 120
4, 681030, Note_on_c, 2, 62, 0
4, 681030, Note_on_c, 2, 70, 0
4, 681120, Note_on_c, 2, 63, 120
4, 681120, Note_on_c, 2, 69, 120
4, 682470, Note_on_c, 2, 63, 0
4, 682470, Note_on_c, 2, 69, 0
4, 682560, Note_on_c, 2, 62, 120
4, 682560, Note_on_c, 2, 70, 120
4, 683010, Note_on_c, 2, 62, 0
4, 683010, Note_on_c, 2, 70, 0
4, 685440, Note_on_c, 2, 69, 120
4, 685920, Note_on_c, 2, 65, 120
4, 685950, Note_on_c, 2, 69, 0
4, 686130, Note_on_c, 2, 65, 0
4, 686400, Note_on_c, 2, 72, 120
4, 686880, Note_on_c, 2, 69, 120
4, 686910, Note_on_c, 2, 72, 0
4, 687090, Note_on_c, 2, 69, 0
4, 687360, Note_on_c, 2, 75, 120
4, 687840, Note_on_c, 2, 72, 120
4, 687870, Note_on_c, 2, 75, 0
4, 688050, Note_on_c, 2, 72, 0
4, 688320, Note_on_c, 2, 70, 120
4, 688770, Note_on_c, 2, 70, 0
4, 691200, Note_on_c, 2, 69, 120
4, 691680, Note_on_c, 2, 65, 120
4, 691710, Note_on_c, 2, 69, 0
4, 691890, Note_on_c, 2, 65, 0
4, 692160, Note_on_c, 2, 72, 120
4, 692640, Note_on_c, 2, 69, 120
4, 692670, Note_on_c, 2, 72, 0
4, 692850, Note_on_c, 2, 69, 0
4, 693120, Note_on_c, 2, 75, 120
4, 693600, Note_on_c, 2, 72, 120
4, 693630, Note_on_c, 2, 75, 0
4, 693810, Note_on_c, 2, 72, 0
4, 694080, Note_on_c, 2, 62, 120
4, 694080, Note_on_c, 2, 70, 120
4, 695130, Note_on_c, 2, 62, 0
4, 695130, Note_on_c, 2, 70, 0
4, 695520, Note_on_c, 2, 70, 120
4, 695520, Note_on_c, 2, 74, 120
4, 696570, Note_on_c, 2, 70, 0
4, 696570, Note_on_c, 2, 74, 0
4, 696960, Note_on_c, 2, 74, 120
4, 696960, Note_on_c, 2, 77, 120
4, 697170, Note_on_c, 2, 74, 0
4, 697170, Note_on_c, 2, 77, 0
4, 697440, Note_on_c, 2, 74, 120
4, 697440, Note_on_c, 2, 77, 120
4, 697650, Note_on_c, 2, 74, 0
4, 697650, Note_on_c, 2, 77, 0
4, 697920, Note_on_c, 2, 74, 120
4, 697920, Note_on_c, 2, 77, 120
4, 698100, Note_on_c, 2, 74, 0
4, 698100, Note_on_c, 2, 77, 0
4, 698400, Note_on_c, 2, 62, 120
4, 698400, Note_on_c, 2, 70, 120
4, 699000, Note_on_c, 2, 62, 0
4, 699000, Note_on_c, 2, 70, 0
4, 702720, Note_on_c, 2, 70, 127
4, 702720, Note_on_c, 2, 74, 100
4, 703170, Note_on_c, 2, 70, 0
4, 703170, Note_on_c, 2, 74, 0
4, 703170, End_track
5, 0, Start_track
5, 0, Channel_prefix, 3
5, 0, Title_t, "Bassoon "
5, 0, Instrument_name_t, "Fagotti "
5, 2400, Note_on_c, 3, 41, 100
5, 2400, Note_on_c, 3, 53, 100
5, 2880, Note_on_c, 3, 46, 100
5, 2880, Note_on_c, 3, 58, 100
5, 2910, Note_on_c, 3, 41, 0
5, 2910, Note_on_c, 3, 53, 0
5, 3090, Note_on_c, 3, 46, 0
5, 3090, Note_on_c, 3, 58, 0
5, 3360, Note_on_c, 3, 46, 100
5, 4050, Note_on_c, 3, 46, 0
5, 4320, Note_on_c, 3, 46, 100
5, 4950, Note_on_c, 3, 46, 0
5, 5280, Note_on_c, 3, 46, 100
5, 5490, Note_on_c, 3, 46, 0
5, 5760, Note_on_c, 3, 41, 100
5, 6240, Note_on_c, 3, 45, 100
5, 6270, Note_on_c, 3, 41, 0
5, 6720, Note_on_c, 3, 48, 100
5, 6750, Note_on_c, 3, 45, 0
5, 6930, Note_on_c, 3, 48, 0
5, 7200, Note_on_c, 3, 53, 100
5, 7800, Note_on_c, 3, 53, 0
5, 8160, Note_on_c, 3, 53, 50
5, 8640, Note_on_c, 3, 54, 50
5, 8670, Note_on_c, 3, 53, 0
5, 9120, Note_on_c, 3, 57, 50
5, 9150, Note_on_c, 3, 54, 0
5, 9600, Note_on_c, 3, 60, 50
5, 9630, Note_on_c, 3, 57, 0
5, 10080, Note_on_c, 3, 63, 50
5, 10110, Note_on_c, 3, 60, 0
5, 10560, Note_on_c, 3, 65, 50
5, 10590, Note_on_c, 3, 63, 0
5, 11010, Note_on_c, 3, 65, 0
5, 13920, Note_on_c, 3, 51, 50
5, 14400, Note_on_c, 3, 49, 50
5, 14430, Note_on_c, 3, 51, 0
5, 14880, Note_on_c, 3, 52, 50
5, 14910, Note_on_c, 3, 49, 0
5, 15360, Note_on_c, 3, 55, 50
5, 15390, Note_on_c, 3, 52, 0
5, 15840, Note_on_c, 3, 58, 50
5, 15870, Note_on_c, 3, 55, 0
5, 16320, Note_on_c, 3, 60, 50
5, 16350, Note_on_c, 3, 58, 0
5, 16770, Note_on_c, 3, 60, 0
5, 19680, Note_on_c, 3, 52, 50
5, 20160, Note_on_c, 3, 53, 49
5, 20190, Note_on_c, 3, 52, 0
5, 20370, Note_on_c, 3, 53, 0
5, 20640, Note_on_c, 3, 55, 54
5, 21120, Note_on_c, 3, 48, 59
5, 21150, Note_on_c, 3, 55, 0
5, 21330, Note_on_c, 3, 48, 0
5, 21600, Note_on_c, 3, 57, 64
5, 22080, Note_on_c, 3, 53, 69
5, 22110, Note_on_c, 3, 57, 0
5, 22290, Note_on_c, 3, 53, 0
5, 22560, Note_on_c, 3, 58, 74
5, 23250, Note_on_c, 3, 58, 0
5, 25440, Note_on_c, 3, 48, 104
5, 25440, Note_on_c, 3, 60, 104
5, 25650, Note_on_c, 3, 48, 0
5, 25650, Note_on_c, 3, 60, 0
5, 25920, Note_on_c, 3, 53, 109
5, 25920, Note_on_c, 3, 57, 109
5, 27090, Note_on_c, 3, 53, 0
5, 27090, Note_on_c, 3, 57, 0
5, 27360, Note_on_c, 3, 53, 110
5, 27360, Note_on_c, 3, 57, 110
5, 28530, Note_on_c, 3, 53, 0
5, 28530, Note_on_c, 3, 57, 0
5, 28800, Note_on_c, 3, 53, 110
5, 28800, Note_on_c, 3, 57, 110
5, 29010, Note_on_c, 3, 53, 0
5, 29010, Note_on_c, 3, 57, 0
5, 29280, Note_on_c, 3, 53, 110
5, 29280, Note_on_c, 3, 57, 110
5, 29490, Note_on_c, 3, 53, 0
5, 29490, Note_on_c, 3, 57, 0
5, 29760, Note_on_c, 3, 53, 110
5, 29760, Note_on_c, 3, 57, 110
5, 29970, Note_on_c, 3, 53, 0
5, 29970, Note_on_c, 3, 57, 0
5, 30240, Note_on_c, 3, 53, 110
5, 30240, Note_on_c, 3, 57, 110
5, 30600, Note_on_c, 3, 53, 0
5, 30600, Note_on_c, 3, 57, 0
5, 31200, Note_on_c, 3, 41, 100
5, 31200, Note_on_c, 3, 53, 100
5, 31680, Note_on_c, 3, 46, 100
5, 31680, Note_on_c, 3, 58, 100
5, 31710, Note_on_c, 3, 41, 0
5, 31710, Note_on_c, 3, 53, 0
5, 31890, Note_on_c, 3, 46, 0
5, 31890, Note_on_c, 3, 58, 0
5, 32160, Note_on_c, 3, 46, 100
5, 32850, Note_on_c, 3, 46, 0
5, 33120, Note_on_c, 3, 46, 100
5, 33750, Note_on_c, 3, 46, 0
5, 34080, Note_on_c, 3, 46, 100
5, 34290, Note_on_c, 3, 46, 0
5, 34560, Note_on_c, 3, 41, 100
5, 35040, Note_on_c, 3, 45, 100
5, 35070, Note_on_c, 3, 41, 0
5, 35520, Note_on_c, 3, 48, 100
5, 35550, Note_on_c, 3, 45, 0
5, 35730, Note_on_c, 3, 48, 0
5, 36000, Note_on_c, 3, 53, 100
5, 36600, Note_on_c, 3, 53, 0
5, 36960, Note_on_c, 3, 53, 50
5, 37440, Note_on_c, 3, 54, 50
5, 37470, Note_on_c, 3, 53, 0
5, 37920, Note_on_c, 3, 57, 50
5, 37950, Note_on_c, 3, 54, 0
5, 38400, Note_on_c, 3, 60, 50
5, 38430, Note_on_c, 3, 57, 0
5, 38880, Note_on_c, 3, 63, 50
5, 38910, Note_on_c, 3, 60, 0
5, 39360, Note_on_c, 3, 65, 50
5, 39390, Note_on_c, 3, 63, 0
5, 39810, Note_on_c, 3, 65, 0
5, 42720, Note_on_c, 3, 51, 50
5, 43200, Note_on_c, 3, 49, 50
5, 43230, Note_on_c, 3, 51, 0
5, 43680, Note_on_c, 3, 52, 50
5, 43710, Note_on_c, 3, 49, 0
5, 44160, Note_on_c, 3, 55, 50
5, 44190, Note_on_c, 3, 52, 0
5, 44640, Note_on_c, 3, 58, 50
5, 44670, Note_on_c, 3, 55, 0
5, 45120, Note_on_c, 3, 60, 50
5, 45150, Note_on_c, 3, 58, 0
5, 45570, Note_on_c, 3, 60, 0
5, 48480, Note_on_c, 3, 52, 50
5, 48960, Note_on_c, 3, 53, 49
5, 48990, Note_on_c, 3, 52, 0
5, 49170, Note_on_c, 3, 53, 0
5, 49440, Note_on_c, 3, 55, 54
5, 49920, Note_on_c, 3, 48, 59
5, 49950, Note_on_c, 3, 55, 0
5, 50130, Note_on_c, 3, 48, 0
5, 50400, Note_on_c, 3, 57, 64
5, 50880, Note_on_c, 3, 53, 69
5, 50910, Note_on_c, 3, 57, 0
5, 51090, Note_on_c, 3, 53, 0
5, 51360, Note_on_c, 3, 58, 74
5, 52050, Note_on_c, 3, 58, 0
5, 54240, Note_on_c, 3, 48, 104
5, 54240, Note_on_c, 3, 60, 104
5, 54450, Note_on_c, 3, 48, 0
5, 54450, Note_on_c, 3, 60, 0
5, 54720, Note_on_c, 3, 53, 109
5, 54720, Note_on_c, 3, 57, 109
5, 55890, Note_on_c, 3, 53, 0
5, 55890, Note_on_c, 3, 57, 0
5, 56160, Note_on_c, 3, 53, 110
5, 56160, Note_on_c, 3, 57, 110
5, 57330, Note_on_c, 3, 53, 0
5, 57330, Note_on_c, 3, 57, 0
5, 57600, Note_on_c, 3, 53, 110
5, 57600, Note_on_c, 3, 57, 110
5, 57810, Note_on_c, 3, 53, 0
5, 57810, Note_on_c, 3, 57, 0
5, 58080, Note_on_c, 3, 53, 110
5, 58080, Note_on_c, 3, 57, 110
5, 58290, Note_on_c, 3, 53, 0
5, 58290, Note_on_c, 3, 57, 0
5, 58560, Note_on_c, 3, 53, 110
5, 58560, Note_on_c, 3, 57, 110
5, 58770, Note_on_c, 3, 53, 0
5, 58770, Note_on_c, 3, 57, 0
5, 59040, Note_on_c, 3, 53, 110
5, 59040, Note_on_c, 3, 57, 110
5, 59400, Note_on_c, 3, 53, 0
5, 59400, Note_on_c, 3, 57, 0
5, 79680, Note_on_c, 3, 58, 70
5, 79890, Note_on_c, 3, 58, 0
5, 80160, Note_on_c, 3, 58, 70
5, 80370, Note_on_c, 3, 58, 0
5, 80640, Note_on_c, 3, 63, 70
5, 83430, Note_on_c, 3, 63, 0
5, 83520, Note_on_c, 3, 65, 70
5, 86310, Note_on_c, 3, 65, 0
5, 86400, Note_on_c, 3, 58, 70
5, 89190, Note_on_c, 3, 58, 0
5, 89280, Note_on_c, 3, 60, 70
5, 92070, Note_on_c, 3, 60, 0
5, 92160, Note_on_c, 3, 53, 70
5, 93510, Note_on_c, 3, 53, 0
5, 93600, Note_on_c, 3, 55, 70
5, 94950, Note_on_c, 3, 55, 0
5, 95040, Note_on_c, 3, 48, 70
5, 96390, Note_on_c, 3, 48, 0
5, 96480, Note_on_c, 3, 50, 70
5, 97830, Note_on_c, 3, 50, 0
5, 97920, Note_on_c, 3, 43, 70
5, 99270, Note_on_c, 3, 43, 0
5, 99360, Note_on_c, 3, 45, 70
5, 100710, Note_on_c, 3, 45, 0
5, 100800, Note_on_c, 3, 38, 70
5, 102150, Note_on_c, 3, 38, 0
5, 102240, Note_on_c, 3, 41, 70
5, 105990, Note_on_c, 3, 41, 0
5, 106080, Note_on_c, 3, 41, 90
5, 106080, Note_on_c, 3, 53, 90
5, 106290, Note_on_c, 3, 53, 0
5, 106560, Note_on_c, 3, 46, 100
5, 106560, Note_on_c, 3, 58, 100
5, 106590, Note_on_c, 3, 41, 0
5, 106770, Note_on_c, 3, 46, 0
5, 106770, Note_on_c, 3, 58, 0
5, 107040, Note_on_c, 3, 46, 100
5, 107040, Note_on_c, 3, 53, 100
5, 107520, Note_on_c, 3, 62, 100
5, 107550, Note_on_c, 3, 53, 0
5, 107730, Note_on_c, 3, 46, 0
5, 107730, Note_on_c, 3, 62, 0
5, 108000, Note_on_c, 3, 46, 100
5, 108000, Note_on_c, 3, 58, 100
5, 108480, Note_on_c, 3, 65, 100
5, 108510, Note_on_c, 3, 58, 0
5, 108690, Note_on_c, 3, 46, 0
5, 108690, Note_on_c, 3, 65, 0
5, 108960, Note_on_c, 3, 46, 100
5, 108960, Note_on_c, 3, 62, 100
5, 109110, Note_on_c, 3, 46, 0
5, 109110, Note_on_c, 3, 62, 0
5, 109440, Note_on_c, 3, 41, 100
5, 109440, Note_on_c, 3, 65, 100
5, 109920, Note_on_c, 3, 45, 100
5, 109920, Note_on_c, 3, 63, 100
5, 109950, Note_on_c, 3, 41, 0
5, 109950, Note_on_c, 3, 65, 0
5, 110130, Note_on_c, 3, 45, 0
5, 110130, Note_on_c, 3, 63, 0
5, 110400, Note_on_c, 3, 48, 100
5, 110400, Note_on_c, 3, 60, 100
5, 110550, Note_on_c, 3, 48, 0
5, 110550, Note_on_c, 3, 60, 0
5, 110880, Note_on_c, 3, 53, 100
5, 110880, Note_on_c, 3, 57, 100
5, 111480, Note_on_c, 3, 53, 0
5, 111480, Note_on_c, 3, 57, 0
5, 111840, Note_on_c, 3, 53, 60
5, 112320, Note_on_c, 3, 54, 60
5, 112350, Note_on_c, 3, 53, 0
5, 112800, Note_on_c, 3, 57, 60
5, 112830, Note_on_c, 3, 54, 0
5, 113280, Note_on_c, 3, 60, 60
5, 113310, Note_on_c, 3, 57, 0
5, 113760, Note_on_c, 3, 63, 60
5, 113790, Note_on_c, 3, 60, 0
5, 114240, Note_on_c, 3, 65, 60
5, 114270, Note_on_c, 3, 63, 0
5, 114690, Note_on_c, 3, 65, 0
5, 117600, Note_on_c, 3, 55, 60
5, 118080, Note_on_c, 3, 56, 60
5, 118110, Note_on_c, 3, 55, 0
5, 118560, Note_on_c, 3, 59, 60
5, 118590, Note_on_c, 3, 56, 0
5, 119040, Note_on_c, 3, 62, 60
5, 119070, Note_on_c, 3, 59, 0
5, 119520, Note_on_c, 3, 65, 60
5, 119550, Note_on_c, 3, 62, 0
5, 120000, Note_on_c, 3, 67, 60
5, 120030, Note_on_c, 3, 65, 0
5, 120450, Note_on_c, 3, 67, 0
5, 123360, Note_on_c, 3, 61, 60
5, 123840, Note_on_c, 3, 58, 60
5, 123870, Note_on_c, 3, 61, 0
5, 124320, Note_on_c, 3, 55, 60
5, 124350, Note_on_c, 3, 58, 0
5, 124800, Note_on_c, 3, 52, 60
5, 124830, Note_on_c, 3, 55, 0
5, 125280, Note_on_c, 3, 49, 60
5, 125310, Note_on_c, 3, 52, 0
5, 125760, Note_on_c, 3, 48, 60
5, 125790, Note_on_c, 3, 49, 0
5, 126150, Note_on_c, 3, 48, 0
5, 126240, Note_on_c, 3, 52, 60
5, 126720, Note_on_c, 3, 53, 60
5, 126750, Note_on_c, 3, 52, 0
5, 127200, Note_on_c, 3, 57, 60
5, 127230, Note_on_c, 3, 53, 0
5, 127680, Note_on_c, 3, 60, 60
5, 127710, Note_on_c, 3, 57, 0
5, 128160, Note_on_c, 3, 63, 60
5, 128190, Note_on_c, 3, 60, 0
5, 128640, Note_on_c, 3, 65, 66
5, 128670, Note_on_c, 3, 63, 0
5, 129120, Note_on_c, 3, 66, 72
5, 129150, Note_on_c, 3, 65, 0
5, 129600, Note_on_c, 3, 65, 78
5, 129630, Note_on_c, 3, 66, 0
5, 130080, Note_on_c, 3, 63, 85
5, 130110, Note_on_c, 3, 65, 0
5, 130560, Note_on_c, 3, 60, 91
5, 130590, Note_on_c, 3, 63, 0
5, 131040, Note_on_c, 3, 57, 97
5, 131070, Note_on_c, 3, 60, 0
5, 131520, Note_on_c, 3, 53, 103
5, 131550, Note_on_c, 3, 57, 0
5, 131730, Note_on_c, 3, 53, 0
5, 132000, Note_on_c, 3, 54, 110
5, 132480, Note_on_c, 3, 53, 60
5, 132510, Note_on_c, 3, 54, 0
5, 132960, Note_on_c, 3, 57, 60
5, 132990, Note_on_c, 3, 53, 0
5, 133440, Note_on_c, 3, 60, 60
5, 133470, Note_on_c, 3, 57, 0
5, 133920, Note_on_c, 3, 63, 60
5, 133950, Note_on_c, 3, 60, 0
5, 134400, Note_on_c, 3, 65, 66
5, 134430, Note_on_c, 3, 63, 0
5, 134880, Note_on_c, 3, 66, 72
5, 134910, Note_on_c, 3, 65, 0
5, 135360, Note_on_c, 3, 65, 78
5, 135390, Note_on_c, 3, 66, 0
5, 135840, Note_on_c, 3, 63, 85
5, 135870, Note_on_c, 3, 65, 0
5, 136320, Note_on_c, 3, 60, 91
5, 136350, Note_on_c, 3, 63, 0
5, 136800, Note_on_c, 3, 57, 97
5, 136830, Note_on_c, 3, 60, 0
5, 137280, Note_on_c, 3, 53, 103
5, 137310, Note_on_c, 3, 57, 0
5, 137490, Note_on_c, 3, 53, 0
5, 137760, Note_on_c, 3, 54, 110
5, 138240, Note_on_c, 3, 53, 100
5, 138270, Note_on_c, 3, 54, 0
5, 138450, Note_on_c, 3, 53, 0
5, 138720, Note_on_c, 3, 53, 110
5, 138720, Note_on_c, 3, 60, 110
5, 139590, Note_on_c, 3, 53, 0
5, 139590, Note_on_c, 3, 60, 0
5, 139680, Note_on_c, 3, 55, 110
5, 139680, Note_on_c, 3, 58, 110
5, 140550, Note_on_c, 3, 55, 0
5, 140550, Note_on_c, 3, 58, 0
5, 140640, Note_on_c, 3, 51, 110
5, 140640, Note_on_c, 3, 63, 110
5, 140850, Note_on_c, 3, 51, 0
5, 140850, Note_on_c, 3, 63, 0
5, 141120, Note_on_c, 3, 53, 110
5, 141120, Note_on_c, 3, 65, 110
5, 142470, Note_on_c, 3, 53, 0
5, 142470, Note_on_c, 3, 65, 0
5, 142560, Note_on_c, 3, 41, 110
5, 142560, Note_on_c, 3, 53, 110
5, 143910, Note_on_c, 3, 41, 0
5, 143910, Note_on_c, 3, 53, 0
5, 144000, Note_on_c, 3, 46, 110
5, 144000, Note_on_c, 3, 58, 110
5, 144450, Note_on_c, 3, 46, 0
5, 144450, Note_on_c, 3, 58, 0
5, 146880, Note_on_c, 3, 57, 110
5, 147360, Note_on_c, 3, 53, 110
5, 147390, Note_on_c, 3, 57, 0
5, 147570, Note_on_c, 3, 53, 0
5, 147840, Note_on_c, 3, 60, 110
5, 148320, Note_on_c, 3, 57, 110
5, 148350, Note_on_c, 3, 60, 0
5, 148530, Note_on_c, 3, 57, 0
5, 148800, Note_on_c, 3, 63, 110
5, 149280, Note_on_c, 3, 60, 110
5, 149310, Note_on_c, 3, 63, 0
5, 149490, Note_on_c, 3, 60, 0
5, 149760, Note_on_c, 3, 58, 110
5, 150210, Note_on_c, 3, 58, 0
5, 152640, Note_on_c, 3, 57, 110
5, 153120, Note_on_c, 3, 53, 110
5, 153150, Note_on_c, 3, 57, 0
5, 153330, Note_on_c, 3, 53, 0
5, 153600, Note_on_c, 3, 60, 110
5, 154080, Note_on_c, 3, 57, 110
5, 154110, Note_on_c, 3, 60, 0
5, 154290, Note_on_c, 3, 57, 0
5, 154560, Note_on_c, 3, 63, 110
5, 155040, Note_on_c, 3, 60, 110
5, 155070, Note_on_c, 3, 63, 0
5, 155250, Note_on_c, 3, 60, 0
5, 155520, Note_on_c, 3, 46, 110
5, 155520, Note_on_c, 3, 58, 110
5, 156570, Note_on_c, 3, 46, 0
5, 156570, Note_on_c, 3, 58, 0
5, 156960, Note_on_c, 3, 58, 110
5, 156960, Note_on_c, 3, 62, 110
5, 158010, Note_on_c, 3, 58, 0
5, 158010, Note_on_c, 3, 62, 0
5, 158400, Note_on_c, 3, 58, 110
5, 158400, Note_on_c, 3, 62, 110
5, 158610, Note_on_c, 3, 58, 0
5, 158610, Note_on_c, 3, 62, 0
5, 158880, Note_on_c, 3, 58, 110
5, 158880, Note_on_c, 3, 62, 110
5, 159090, Note_on_c, 3, 58, 0
5, 159090, Note_on_c, 3, 62, 0
5, 159360, Note_on_c, 3, 58, 110
5, 159360, Note_on_c, 3, 62, 110
5, 159540, Note_on_c, 3, 58, 0
5, 159540, Note_on_c, 3, 62, 0
5, 159840, Note_on_c, 3, 58, 110
5, 159840, Note_on_c, 3, 62, 110
5, 160440, Note_on_c, 3, 58, 0
5, 160440, Note_on_c, 3, 62, 0
5, 180480, Note_on_c, 3, 58, 70
5, 180690, Note_on_c, 3, 58, 0
5, 180960, Note_on_c, 3, 58, 70
5, 181170, Note_on_c, 3, 58, 0
5, 181440, Note_on_c, 3, 63, 70
5, 184230, Note_on_c, 3, 63, 0
5, 184320, Note_on_c, 3, 65, 70
5, 187110, Note_on_c, 3, 65, 0
5, 187200, Note_on_c, 3, 58, 70
5, 189990, Note_on_c, 3, 58, 0
5, 190080, Note_on_c, 3, 60, 70
5, 192870, Note_on_c, 3, 60, 0
5, 192960, Note_on_c, 3, 53, 70
5, 194310, Note_on_c, 3, 53, 0
5, 194400, Note_on_c, 3, 55, 70
5, 195750, Note_on_c, 3, 55, 0
5, 195840, Note_on_c, 3, 48, 70
5, 197190, Note_on_c, 3, 48, 0
5, 197280, Note_on_c, 3, 50, 70
5, 198630, Note_on_c, 3, 50, 0
5, 198720, Note_on_c, 3, 43, 70
5, 200070, Note_on_c, 3, 43, 0
5, 200160, Note_on_c, 3, 45, 70
5, 201510, Note_on_c, 3, 45, 0
5, 201600, Note_on_c, 3, 38, 70
5, 202950, Note_on_c, 3, 38, 0
5, 203040, Note_on_c, 3, 41, 70
5, 206790, Note_on_c, 3, 41, 0
5, 206880, Note_on_c, 3, 41, 90
5, 206880, Note_on_c, 3, 53, 90
5, 207090, Note_on_c, 3, 53, 0
5, 207360, Note_on_c, 3, 46, 100
5, 207360, Note_on_c, 3, 58, 100
5, 207390, Note_on_c, 3, 41, 0
5, 207570, Note_on_c, 3, 46, 0
5, 207570, Note_on_c, 3, 58, 0
5, 207840, Note_on_c, 3, 46, 100
5, 207840, Note_on_c, 3, 53, 100
5, 208320, Note_on_c, 3, 62, 100
5, 208350, Note_on_c, 3, 53, 0
5, 208530, Note_on_c, 3, 46, 0
5, 208530, Note_on_c, 3, 62, 0
5, 208800, Note_on_c, 3, 46, 100
5, 208800, Note_on_c, 3, 58, 100
5, 209280, Note_on_c, 3, 65, 100
5, 209310, Note_on_c, 3, 58, 0
5, 209490, Note_on_c, 3, 46, 0
5, 209490, Note_on_c, 3, 65, 0
5, 209760, Note_on_c, 3, 46, 100
5, 209760, Note_on_c, 3, 62, 100
5, 209910, Note_on_c, 3, 46, 0
5, 209910, Note_on_c, 3, 62, 0
5, 210240, Note_on_c, 3, 41, 100
5, 210240, Note_on_c, 3, 65, 100
5, 210720, Note_on_c, 3, 45, 100
5, 210720, Note_on_c, 3, 63, 100
5, 210750, Note_on_c, 3, 41, 0
5, 210750, Note_on_c, 3, 65, 0
5, 210930, Note_on_c, 3, 45, 0
5, 210930, Note_on_c, 3, 63, 0
5, 211200, Note_on_c, 3, 48, 100
5, 211200, Note_on_c, 3, 60, 100
5, 211350, Note_on_c, 3, 48, 0
5, 211350, Note_on_c, 3, 60, 0
5, 211680, Note_on_c, 3, 53, 100
5, 211680, Note_on_c, 3, 57, 100
5, 212280, Note_on_c, 3, 53, 0
5, 212280, Note_on_c, 3, 57, 0
5, 212640, Note_on_c, 3, 53, 60
5, 213120, Note_on_c, 3, 54, 60
5, 213150, Note_on_c, 3, 53, 0
5, 213600, Note_on_c, 3, 57, 60
5, 213630, Note_on_c, 3, 54, 0
5, 214080, Note_on_c, 3, 60, 60
5, 214110, Note_on_c, 3, 57, 0
5, 214560, Note_on_c, 3, 63, 60
5, 214590, Note_on_c, 3, 60, 0
5, 215040, Note_on_c, 3, 65, 60
5, 215070, Note_on_c, 3, 63, 0
5, 215490, Note_on_c, 3, 65, 0
5, 218400, Note_on_c, 3, 55, 60
5, 218880, Note_on_c, 3, 56, 60
5, 218910, Note_on_c, 3, 55, 0
5, 219360, Note_on_c, 3, 59, 60
5, 219390, Note_on_c, 3, 56, 0
5, 219840, Note_on_c, 3, 62, 60
5, 219870, Note_on_c, 3, 59, 0
5, 220320, Note_on_c, 3, 65, 60
5, 220350, Note_on_c, 3, 62, 0
5, 220800, Note_on_c, 3, 67, 60
5, 220830, Note_on_c, 3, 65, 0
5, 221250, Note_on_c, 3, 67, 0
5, 224160, Note_on_c, 3, 61, 60
5, 224640, Note_on_c, 3, 58, 60
5, 224670, Note_on_c, 3, 61, 0
5, 225120, Note_on_c, 3, 55, 60
5, 225150, Note_on_c, 3, 58, 0
5, 225600, Note_on_c, 3, 52, 60
5, 225630, Note_on_c, 3, 55, 0
5, 226080, Note_on_c, 3, 49, 60
5, 226110, Note_on_c, 3, 52, 0
5, 226560, Note_on_c, 3, 48, 60
5, 226590, Note_on_c, 3, 49, 0
5, 226950, Note_on_c, 3, 48, 0
5, 227040, Note_on_c, 3, 52, 60
5, 227520, Note_on_c, 3, 53, 60
5, 227550, Note_on_c, 3, 52, 0
5, 228000, Note_on_c, 3, 57, 60
5, 228030, Note_on_c, 3, 53, 0
5, 228480, Note_on_c, 3, 60, 60
5, 228510, Note_on_c, 3, 57, 0
5, 228960, Note_on_c, 3, 63, 60
5, 228990, Note_on_c, 3, 60, 0
5, 229440, Note_on_c, 3, 65, 66
5, 229470, Note_on_c, 3, 63, 0
5, 229920, Note_on_c, 3, 66, 72
5, 229950, Note_on_c, 3, 65, 0
5, 230400, Note_on_c, 3, 65, 78
5, 230430, Note_on_c, 3, 66, 0
5, 230880, Note_on_c, 3, 63, 85
5, 230910, Note_on_c, 3, 65, 0
5, 231360, Note_on_c, 3, 60, 91
5, 231390, Note_on_c, 3, 63, 0
5, 231840, Note_on_c, 3, 57, 97
5, 231870, Note_on_c, 3, 60, 0
5, 232320, Note_on_c, 3, 53, 103
5, 232350, Note_on_c, 3, 57, 0
5, 232530, Note_on_c, 3, 53, 0
5, 232800, Note_on_c, 3, 54, 110
5, 233280, Note_on_c, 3, 53, 60
5, 233310, Note_on_c, 3, 54, 0
5, 233760, Note_on_c, 3, 57, 60
5, 233790, Note_on_c, 3, 53, 0
5, 234240, Note_on_c, 3, 60, 60
5, 234270, Note_on_c, 3, 57, 0
5, 234720, Note_on_c, 3, 63, 60
5, 234750, Note_on_c, 3, 60, 0
5, 235200, Note_on_c, 3, 65, 66
5, 235230, Note_on_c, 3, 63, 0
5, 235680, Note_on_c, 3, 66, 72
5, 235710, Note_on_c, 3, 65, 0
5, 236160, Note_on_c, 3, 65, 78
5, 236190, Note_on_c, 3, 66, 0
5, 236640, Note_on_c, 3, 63, 85
5, 236670, Note_on_c, 3, 65, 0
5, 237120, Note_on_c, 3, 60, 91
5, 237150, Note_on_c, 3, 63, 0
5, 237600, Note_on_c, 3, 57, 97
5, 237630, Note_on_c, 3, 60, 0
5, 238080, Note_on_c, 3, 53, 103
5, 238110, Note_on_c, 3, 57, 0
5, 238290, Note_on_c, 3, 53, 0
5, 238560, Note_on_c, 3, 54, 110
5, 239040, Note_on_c, 3, 53, 100
5, 239070, Note_on_c, 3, 54, 0
5, 239250, Note_on_c, 3, 53, 0
5, 239520, Note_on_c, 3, 53, 110
5, 239520, Note_on_c, 3, 60, 110
5, 240390, Note_on_c, 3, 53, 0
5, 240390, Note_on_c, 3, 60, 0
5, 240480, Note_on_c, 3, 55, 110
5, 240480, Note_on_c, 3, 58, 110
5, 241350, Note_on_c, 3, 55, 0
5, 241350, Note_on_c, 3, 58, 0
5, 241440, Note_on_c, 3, 51, 110
5, 241440, Note_on_c, 3, 63, 110
5, 241650, Note_on_c, 3, 51, 0
5, 241650, Note_on_c, 3, 63, 0
5, 241920, Note_on_c, 3, 53, 110
5, 241920, Note_on_c, 3, 65, 110
5, 243270, Note_on_c, 3, 53, 0
5, 243270, Note_on_c, 3, 65, 0
5, 243360, Note_on_c, 3, 41, 110
5, 243360, Note_on_c, 3, 53, 110
5, 244710, Note_on_c, 3, 41, 0
5, 244710, Note_on_c, 3, 53, 0
5, 244800, Note_on_c, 3, 46, 110
5, 244800, Note_on_c, 3, 58, 110
5, 245250, Note_on_c, 3, 46, 0
5, 245250, Note_on_c, 3, 58, 0
5, 247680, Note_on_c, 3, 57, 110
5, 248160, Note_on_c, 3, 53, 110
5, 248190, Note_on_c, 3, 57, 0
5, 248370, Note_on_c, 3, 53, 0
5, 248640, Note_on_c, 3, 60, 110
5, 249120, Note_on_c, 3, 57, 110
5, 249150, Note_on_c, 3, 60, 0
5, 249330, Note_on_c, 3, 57, 0
5, 249600, Note_on_c, 3, 63, 110
5, 250080, Note_on_c, 3, 60, 110
5, 250110, Note_on_c, 3, 63, 0
5, 250290, Note_on_c, 3, 60, 0
5, 250560, Note_on_c, 3, 58, 110
5, 251010, Note_on_c, 3, 58, 0
5, 253440, Note_on_c, 3, 57, 110
5, 253920, Note_on_c, 3, 53, 110
5, 253950, Note_on_c, 3, 57, 0
5, 254130, Note_on_c, 3, 53, 0
5, 254400, Note_on_c, 3, 60, 110
5, 254880, Note_on_c, 3, 57, 110
5, 254910, Note_on_c, 3, 60, 0
5, 255090, Note_on_c, 3, 57, 0
5, 255360, Note_on_c, 3, 63, 110
5, 255840, Note_on_c, 3, 60, 110
5, 255870, Note_on_c, 3, 63, 0
5, 256050, Note_on_c, 3, 60, 0
5, 256320, Note_on_c, 3, 46, 110
5, 256320, Note_on_c, 3, 58, 110
5, 257370, Note_on_c, 3, 46, 0
5, 257370, Note_on_c, 3, 58, 0
5, 257760, Note_on_c, 3, 58, 110
5, 257760, Note_on_c, 3, 62, 110
5, 258810, Note_on_c, 3, 58, 0
5, 258810, Note_on_c, 3, 62, 0
5, 259200, Note_on_c, 3, 58, 110
5, 259200, Note_on_c, 3, 62, 110
5, 259410, Note_on_c, 3, 58, 0
5, 259410, Note_on_c, 3, 62, 0
5, 259680, Note_on_c, 3, 58, 110
5, 259680, Note_on_c, 3, 62, 110
5, 259890, Note_on_c, 3, 58, 0
5, 259890, Note_on_c, 3, 62, 0
5, 260160, Note_on_c, 3, 58, 110
5, 260160, Note_on_c, 3, 62, 110
5, 260340, Note_on_c, 3, 58, 0
5, 260340, Note_on_c, 3, 62, 0
5, 260640, Note_on_c, 3, 58, 110
5, 260640, Note_on_c, 3, 62, 110
5, 261240, Note_on_c, 3, 58, 0
5, 261240, Note_on_c, 3, 62, 0
5, 261600, Note_on_c, 3, 50, 40
5, 261600, Note_on_c, 3, 58, 40
5, 262080, Note_on_c, 3, 53, 40
5, 262080, Note_on_c, 3, 62, 40
5, 262110, Note_on_c, 3, 50, 0
5, 262110, Note_on_c, 3, 58, 0
5, 263040, Note_on_c, 3, 50, 40
5, 263040, Note_on_c, 3, 58, 40
5, 263070, Note_on_c, 3, 53, 0
5, 263070, Note_on_c, 3, 62, 0
5, 263520, Note_on_c, 3, 51, 40
5, 263520, Note_on_c, 3, 60, 40
5, 263550, Note_on_c, 3, 50, 0
5, 263550, Note_on_c, 3, 58, 0
5, 264480, Note_on_c, 3, 55, 40
5, 264480, Note_on_c, 3, 63, 40
5, 264510, Note_on_c, 3, 51, 0
5, 264510, Note_on_c, 3, 60, 0
5, 264960, Note_on_c, 3, 51, 40
5, 264960, Note_on_c, 3, 60, 40
5, 264990, Note_on_c, 3, 55, 0
5, 264990, Note_on_c, 3, 63, 0
5, 265740, Note_on_c, 3, 51, 0
5, 265740, Note_on_c, 3, 60, 0
5, 267360, Note_on_c, 3, 51, 40
5, 267360, Note_on_c, 3, 60, 40
5, 267840, Note_on_c, 3, 55, 40
5, 267840, Note_on_c, 3, 63, 40
5, 267870, Note_on_c, 3, 51, 0
5, 267870, Note_on_c, 3, 60, 0
5, 268800, Note_on_c, 3, 51, 40
5, 268800, Note_on_c, 3, 60, 40
5, 268830, Note_on_c, 3, 55, 0
5, 268830, Note_on_c, 3, 63, 0
5, 269280, Note_on_c, 3, 53, 40
5, 269280, Note_on_c, 3, 62, 40
5, 269310, Note_on_c, 3, 51, 0
5, 269310, Note_on_c, 3, 60, 0
5, 270240, Note_on_c, 3, 56, 40
5, 270240, Note_on_c, 3, 65, 40
5, 270270, Note_on_c, 3, 53, 0
5, 270270, Note_on_c, 3, 62, 0
5, 270720, Note_on_c, 3, 53, 40
5, 270720, Note_on_c, 3, 62, 40
5, 270750, Note_on_c, 3, 56, 0
5, 270750, Note_on_c, 3, 65, 0
5, 271500, Note_on_c, 3, 53, 0
5, 271500, Note_on_c, 3, 62, 0
5, 273120, Note_on_c, 3, 58, 40
5, 273510, Note_on_c, 3, 58, 0
5, 273600, Note_on_c, 3, 58, 40
5, 273600, Control_c, 3, 11, 80
5, 273720, Control_c, 3, 11, 81
5, 273830, Control_c, 3, 11, 82
5, 273950, Control_c, 3, 11, 83
5, 274060, Control_c, 3, 11, 84
5, 274180, Control_c, 3, 11, 85
5, 274290, Control_c, 3, 11, 86
5, 274400, Control_c, 3, 11, 87
5, 274470, Note_on_c, 3, 58, 0
5, 274520, Control_c, 3, 11, 88
5, 274560, Note_on_c, 3, 56, 40
5, 274560, Note_on_c, 3, 58, 40
5, 274630, Control_c, 3, 11, 89
5, 274750, Control_c, 3, 11, 90
5, 274860, Control_c, 3, 11, 91
5, 274950, Note_on_c, 3, 56, 0
5, 274950, Note_on_c, 3, 58, 0
5, 274980, Control_c, 3, 11, 92
5, 275040, Note_on_c, 3, 55, 40
5, 275040, Note_on_c, 3, 58, 40
5, 275090, Control_c, 3, 11, 93
5, 275200, Control_c, 3, 11, 94
5, 275320, Control_c, 3, 11, 95
5, 275430, Control_c, 3, 11, 96
5, 275550, Control_c, 3, 11, 97
5, 275660, Control_c, 3, 11, 98
5, 275780, Control_c, 3, 11, 99
5, 275890, Control_c, 3, 11, 100
5, 275910, Note_on_c, 3, 55, 0
5, 275910, Note_on_c, 3, 58, 0
5, 276000, Note_on_c, 3, 53, 40
5, 276000, Note_on_c, 3, 58, 40
5, 276390, Note_on_c, 3, 53, 0
5, 276390, Note_on_c, 3, 58, 0
5, 276474, Control_c, 3, 11, 110
5, 276480, Note_on_c, 3, 51, 40
5, 276480, Note_on_c, 3, 63, 40
5, 276720, Control_c, 3, 11, 110
5, 276810, Control_c, 3, 11, 109
5, 276900, Control_c, 3, 11, 108
5, 276980, Control_c, 3, 11, 107
5, 277070, Control_c, 3, 11, 106
5, 277150, Control_c, 3, 11, 105
5, 277240, Control_c, 3, 11, 104
5, 277320, Control_c, 3, 11, 103
5, 277410, Control_c, 3, 11, 102
5, 277490, Control_c, 3, 11, 101
5, 277580, Control_c, 3, 11, 100
5, 277660, Control_c, 3, 11, 99
5, 277750, Control_c, 3, 11, 98
5, 277830, Control_c, 3, 11, 97
5, 277920, Control_c, 3, 11, 96
5, 278000, Control_c, 3, 11, 95
5, 278090, Control_c, 3, 11, 94
5, 278170, Control_c, 3, 11, 93
5, 278260, Control_c, 3, 11, 92
5, 278340, Control_c, 3, 11, 91
5, 278430, Control_c, 3, 11, 90
5, 278510, Control_c, 3, 11, 89
5, 278600, Control_c, 3, 11, 88
5, 278680, Control_c, 3, 11, 87
5, 278770, Control_c, 3, 11, 86
5, 278790, Note_on_c, 3, 51, 0
5, 278790, Note_on_c, 3, 63, 0
5, 278850, Control_c, 3, 11, 85
5, 278880, Note_on_c, 3, 51, 40
5, 278880, Note_on_c, 3, 63, 40
5, 278940, Control_c, 3, 11, 84
5, 279020, Control_c, 3, 11, 83
5, 279110, Control_c, 3, 11, 82
5, 279190, Control_c, 3, 11, 81
5, 279280, Control_c, 3, 11, 80
5, 279360, Note_on_c, 3, 50, 40
5, 279360, Note_on_c, 3, 62, 40
5, 279390, Note_on_c, 3, 51, 0
5, 279390, Note_on_c, 3, 63, 0
5, 279810, Note_on_c, 3, 50, 0
5, 279810, Note_on_c, 3, 62, 0
5, 280320, Note_on_c, 3, 50, 40
5, 280320, Note_on_c, 3, 62, 40
5, 280530, Note_on_c, 3, 50, 0
5, 280530, Note_on_c, 3, 62, 0
5, 280800, Note_on_c, 3, 51, 40
5, 280800, Note_on_c, 3, 63, 40
5, 281670, Note_on_c, 3, 51, 0
5, 281670, Note_on_c, 3, 63, 0
5, 281760, Note_on_c, 3, 51, 40
5, 281760, Note_on_c, 3, 63, 40
5, 282210, Note_on_c, 3, 51, 0
5, 282210, Note_on_c, 3, 63, 0
5, 282240, Note_on_c, 3, 46, 40
5, 282240, Note_on_c, 3, 58, 40
5, 283020, Note_on_c, 3, 46, 0
5, 283020, Note_on_c, 3, 58, 0
5, 284640, Note_on_c, 3, 50, 40
5, 284640, Note_on_c, 3, 58, 40
5, 284880, Note_on_c, 3, 51, 40
5, 284880, Note_on_c, 3, 60, 40
5, 284910, Note_on_c, 3, 50, 0
5, 284910, Note_on_c, 3, 58, 0
5, 285120, Note_on_c, 3, 53, 40
5, 285120, Note_on_c, 3, 62, 40
5, 285150, Note_on_c, 3, 51, 0
5, 285150, Note_on_c, 3, 60, 0
5, 286080, Note_on_c, 3, 50, 40
5, 286080, Note_on_c, 3, 58, 40
5, 286110, Note_on_c, 3, 53, 0
5, 286110, Note_on_c, 3, 62, 0
5, 286560, Note_on_c, 3, 51, 40
5, 286560, Note_on_c, 3, 60, 40
5, 286590, Note_on_c, 3, 50, 0
5, 286590, Note_on_c, 3, 58, 0
5, 287520, Note_on_c, 3, 55, 40
5, 287520, Note_on_c, 3, 63, 40
5, 287550, Note_on_c, 3, 51, 0
5, 287550, Note_on_c, 3, 60, 0
5, 288000, Note_on_c, 3, 51, 40
5, 288000, Note_on_c, 3, 60, 40
5, 288030, Note_on_c, 3, 55, 0
5, 288030, Note_on_c, 3, 63, 0
5, 288600, Note_on_c, 3, 51, 0
5, 288600, Note_on_c, 3, 60, 0
5, 290400, Note_on_c, 3, 51, 40
5, 290400, Note_on_c, 3, 60, 40
5, 290640, Note_on_c, 3, 53, 40
5, 290640, Note_on_c, 3, 62, 40
5, 290670, Note_on_c, 3, 51, 0
5, 290670, Note_on_c, 3, 60, 0
5, 290880, Note_on_c, 3, 55, 40
5, 290880, Note_on_c, 3, 63, 40
5, 290910, Note_on_c, 3, 53, 0
5, 290910, Note_on_c, 3, 62, 0
5, 291840, Note_on_c, 3, 51, 40
5, 291840, Note_on_c, 3, 60, 40
5, 291870, Note_on_c, 3, 55, 0
5, 291870, Note_on_c, 3, 63, 0
5, 292320, Note_on_c, 3, 53, 40
5, 292320, Note_on_c, 3, 62, 40
5, 292350, Note_on_c, 3, 51, 0
5, 292350, Note_on_c, 3, 60, 0
5, 293280, Note_on_c, 3, 56, 40
5, 293280, Note_on_c, 3, 65, 40
5, 293310, Note_on_c, 3, 53, 0
5, 293310, Note_on_c, 3, 62, 0
5, 293760, Note_on_c, 3, 53, 40
5, 293760, Note_on_c, 3, 62, 40
5, 293790, Note_on_c, 3, 56, 0
5, 293790, Note_on_c, 3, 65, 0
5, 294360, Note_on_c, 3, 53, 0
5, 294360, Note_on_c, 3, 62, 0
5, 296160, Note_on_c, 3, 53, 40
5, 296160, Note_on_c, 3, 62, 40
5, 296400, Note_on_c, 3, 55, 40
5, 296400, Note_on_c, 3, 63, 40
5, 296430, Note_on_c, 3, 53, 0
5, 296430, Note_on_c, 3, 62, 0
5, 296640, Note_on_c, 3, 56, 40
5, 296640, Note_on_c, 3, 65, 40
5, 296640, Control_c, 3, 11, 80
5, 296670, Note_on_c, 3, 55, 0
5, 296670, Note_on_c, 3, 63, 0
5, 296910, Control_c, 3, 11, 82
5, 297170, Control_c, 3, 11, 84
5, 297440, Control_c, 3, 11, 86
5, 297510, Note_on_c, 3, 56, 0
5, 297600, Note_on_c, 3, 56, 40
5, 297600, Note_on_c, 3, 58, 40
5, 297630, Note_on_c, 3, 65, 0
5, 297700, Control_c, 3, 11, 88
5, 297960, Control_c, 3, 11, 91
5, 298080, Note_on_c, 3, 55, 40
5, 298080, Note_on_c, 3, 60, 40
5, 298110, Note_on_c, 3, 56, 0
5, 298110, Note_on_c, 3, 58, 0
5, 298230, Control_c, 3, 11, 93
5, 298490, Control_c, 3, 11, 95
5, 298760, Control_c, 3, 11, 97
5, 299020, Control_c, 3, 11, 100
5, 299040, Note_on_c, 3, 53, 40
5, 299040, Note_on_c, 3, 62, 40
5, 299070, Note_on_c, 3, 55, 0
5, 299070, Note_on_c, 3, 60, 0
5, 299514, Control_c, 3, 11, 110
5, 299520, Note_on_c, 3, 51, 40
5, 299520, Note_on_c, 3, 63, 40
5, 299550, Note_on_c, 3, 53, 0
5, 299550, Note_on_c, 3, 62, 0
5, 299660, Control_c, 3, 11, 109
5, 299800, Control_c, 3, 11, 107
5, 299940, Control_c, 3, 11, 106
5, 300070, Control_c, 3, 11, 104
5, 300210, Control_c, 3, 11, 103
5, 300350, Control_c, 3, 11, 101
5, 300480, Control_c, 3, 11, 100
5, 300620, Control_c, 3, 11, 99
5, 300760, Control_c, 3, 11, 97
5, 300900, Control_c, 3, 11, 96
5, 301030, Control_c, 3, 11, 94
5, 301170, Control_c, 3, 11, 93
5, 301310, Control_c, 3, 11, 91
5, 301440, Control_c, 3, 11, 90
5, 301580, Control_c, 3, 11, 88
5, 301720, Control_c, 3, 11, 87
5, 301830, Note_on_c, 3, 51, 0
5, 301830, Note_on_c, 3, 63, 0
5, 301860, Control_c, 3, 11, 85
5, 301920, Note_on_c, 3, 46, 40
5, 301920, Note_on_c, 3, 62, 40
5, 301990, Control_c, 3, 11, 84
5, 302130, Control_c, 3, 11, 82
5, 302270, Control_c, 3, 11, 80
5, 302310, Note_on_c, 3, 46, 0
5, 302310, Note_on_c, 3, 62, 0
5, 302400, Note_on_c, 3, 53, 40
5, 302400, Note_on_c, 3, 60, 40
5, 302670, Note_on_c, 3, 53, 0
5, 302670, Note_on_c, 3, 60, 0
5, 303360, Note_on_c, 3, 53, 40
5, 303360, Note_on_c, 3, 60, 40
5, 303570, Note_on_c, 3, 53, 0
5, 303570, Note_on_c, 3, 60, 0
5, 303840, Note_on_c, 3, 53, 40
5, 303840, Note_on_c, 3, 60, 40
5, 303930, Note_on_c, 3, 62, 40
5, 303935, Note_on_c, 3, 60, 0
5, 304020, Note_on_c, 3, 60, 40
5, 304025, Note_on_c, 3, 62, 0
5, 304110, Note_on_c, 3, 62, 40
5, 304115, Note_on_c, 3, 60, 0
5, 304200, Note_on_c, 3, 60, 40
5, 304205, Note_on_c, 3, 62, 0
5, 304290, Note_on_c, 3, 62, 40
5, 304295, Note_on_c, 3, 60, 0
5, 304385, Note_on_c, 3, 62, 0
5, 304560, Note_on_c, 3, 59, 40
5, 304710, Note_on_c, 3, 53, 0
5, 304770, Note_on_c, 3, 59, 0
5, 304800, Note_on_c, 3, 53, 40
5, 304800, Note_on_c, 3, 60, 40
5, 305250, Note_on_c, 3, 53, 0
5, 305250, Note_on_c, 3, 60, 0
5, 305280, Note_on_c, 3, 53, 40
5, 305280, Note_on_c, 3, 60, 40
5, 305880, Note_on_c, 3, 53, 0
5, 305880, Note_on_c, 3, 60, 0
5, 307680, Note_on_c, 3, 57, 90
5, 307680, Note_on_c, 3, 60, 90
5, 308160, Note_on_c, 3, 63, 90
5, 308190, Note_on_c, 3, 57, 0
5, 308200, Control_c, 3, 11, 80
5, 308230, Control_c, 3, 11, 81
5, 308260, Control_c, 3, 11, 82
5, 308290, Control_c, 3, 11, 82
5, 308320, Control_c, 3, 11, 83
5, 308350, Control_c, 3, 11, 83
5, 308380, Control_c, 3, 11, 84
5, 308410, Control_c, 3, 11, 85
5, 308440, Control_c, 3, 11, 85
5, 308470, Control_c, 3, 11, 86
5, 308500, Control_c, 3, 11, 87
5, 308530, Control_c, 3, 11, 87
5, 308560, Control_c, 3, 11, 88
5, 308590, Control_c, 3, 11, 88
5, 308620, Control_c, 3, 11, 89
5, 308660, Control_c, 3, 11, 90
5, 308690, Control_c, 3, 11, 91
5, 308720, Control_c, 3, 11, 91
5, 308750, Control_c, 3, 11, 92
5, 308780, Control_c, 3, 11, 92
5, 308810, Control_c, 3, 11, 93
5, 308840, Control_c, 3, 11, 94
5, 308870, Control_c, 3, 11, 94
5, 308900, Control_c, 3, 11, 95
5, 308930, Control_c, 3, 11, 96
5, 308960, Control_c, 3, 11, 96
5, 308990, Control_c, 3, 11, 97
5, 309020, Control_c, 3, 11, 97
5, 309050, Control_c, 3, 11, 98
5, 309080, Control_c, 3, 11, 99
5, 309110, Control_c, 3, 11, 99
5, 309120, Note_on_c, 3, 57, 90
5, 309150, Note_on_c, 3, 63, 0
5, 309150, Control_c, 3, 11, 100
5, 309180, Control_c, 3, 11, 101
5, 309210, Control_c, 3, 11, 101
5, 309240, Control_c, 3, 11, 102
5, 309270, Control_c, 3, 11, 103
5, 309300, Control_c, 3, 11, 103
5, 309330, Control_c, 3, 11, 104
5, 309360, Control_c, 3, 11, 105
5, 309390, Control_c, 3, 11, 105
5, 309420, Control_c, 3, 11, 106
5, 309450, Control_c, 3, 11, 106
5, 309480, Control_c, 3, 11, 107
5, 309510, Control_c, 3, 11, 108
5, 309540, Control_c, 3, 11, 108
5, 309570, Control_c, 3, 11, 109
5, 309600, Note_on_c, 3, 59, 90
5, 309600, Note_on_c, 3, 62, 90
5, 309600, Control_c, 3, 11, 110
5, 309630, Note_on_c, 3, 57, 0
5, 309630, Note_on_c, 3, 60, 0
5, 309630, Control_c, 3, 11, 110
5, 309660, Control_c, 3, 11, 109
5, 309690, Control_c, 3, 11, 109
5, 309720, Control_c, 3, 11, 108
5, 309750, Control_c, 3, 11, 107
5, 309780, Control_c, 3, 11, 107
5, 309810, Control_c, 3, 11, 106
5, 309840, Control_c, 3, 11, 105
5, 309870, Control_c, 3, 11, 105
5, 309900, Control_c, 3, 11, 104
5, 309930, Control_c, 3, 11, 103
5, 309960, Control_c, 3, 11, 103
5, 309990, Control_c, 3, 11, 102
5, 310020, Control_c, 3, 11, 101
5, 310050, Control_c, 3, 11, 101
5, 310080, Control_c, 3, 11, 100
5, 310110, Control_c, 3, 11, 100
5, 310140, Control_c, 3, 11, 99
5, 310170, Control_c, 3, 11, 98
5, 310200, Control_c, 3, 11, 98
5, 310230, Control_c, 3, 11, 97
5, 310260, Control_c, 3, 11, 96
5, 310290, Control_c, 3, 11, 96
5, 310320, Control_c, 3, 11, 95
5, 310350, Control_c, 3, 11, 94
5, 310380, Control_c, 3, 11, 94
5, 310410, Control_c, 3, 11, 93
5, 310440, Control_c, 3, 11, 92
5, 310470, Control_c, 3, 11, 92
5, 310500, Control_c, 3, 11, 91
5, 310530, Control_c, 3, 11, 90
5, 310560, Note_on_c, 3, 65, 90
5, 310560, Control_c, 3, 11, 90
5, 310590, Note_on_c, 3, 59, 0
5, 310590, Control_c, 3, 11, 89
5, 310620, Control_c, 3, 11, 89
5, 310650, Control_c, 3, 11, 88
5, 310680, Control_c, 3, 11, 87
5, 310710, Control_c, 3, 11, 87
5, 310740, Control_c, 3, 11, 86
5, 310770, Control_c, 3, 11, 85
5, 310800, Control_c, 3, 11, 85
5, 310830, Control_c, 3, 11, 84
5, 310860, Control_c, 3, 11, 83
5, 310890, Control_c, 3, 11, 83
5, 310920, Control_c, 3, 11, 82
5, 310950, Control_c, 3, 11, 81
5, 310980, Control_c, 3, 11, 81
5, 311010, Control_c, 3, 11, 80
5, 311040, Note_on_c, 3, 60, 90
5, 311040, Note_on_c, 3, 63, 90
5, 311070, Note_on_c, 3, 62, 0
5, 311070, Note_on_c, 3, 65, 0
5, 311640, Note_on_c, 3, 60, 0
5, 311640, Note_on_c, 3, 63, 0
5, 313440, Note_on_c, 3, 57, 90
5, 313440, Note_on_c, 3, 60, 90
5, 313680, Note_on_c, 3, 58, 90
5, 313680, Note_on_c, 3, 62, 90
5, 313710, Note_on_c, 3, 57, 0
5, 313710, Note_on_c, 3, 60, 0
5, 313920, Note_on_c, 3, 60, 90
5, 313920, Note_on_c, 3, 63, 90
5, 313950, Note_on_c, 3, 58, 0
5, 313950, Note_on_c, 3, 62, 0
5, 313960, Control_c, 3, 11, 80
5, 313990, Control_c, 3, 11, 81
5, 314020, Control_c, 3, 11, 82
5, 314050, Control_c, 3, 11, 82
5, 314080, Control_c, 3, 11, 83
5, 314110, Control_c, 3, 11, 83
5, 314140, Control_c, 3, 11, 84
5, 314170, Control_c, 3, 11, 85
5, 314200, Control_c, 3, 11, 85
5, 314230, Control_c, 3, 11, 86
5, 314260, Control_c, 3, 11, 87
5, 314290, Control_c, 3, 11, 87
5, 314320, Control_c, 3, 11, 88
5, 314350, Control_c, 3, 11, 88
5, 314380, Control_c, 3, 11, 89
5, 314420, Control_c, 3, 11, 90
5, 314450, Control_c, 3, 11, 91
5, 314480, Control_c, 3, 11, 91
5, 314510, Control_c, 3, 11, 92
5, 314540, Control_c, 3, 11, 92
5, 314570, Control_c, 3, 11, 93
5, 314600, Control_c, 3, 11, 94
5, 314630, Control_c, 3, 11, 94
5, 314660, Control_c, 3, 11, 95
5, 314690, Control_c, 3, 11, 96
5, 314720, Control_c, 3, 11, 96
5, 314750, Control_c, 3, 11, 97
5, 314780, Control_c, 3, 11, 97
5, 314810, Control_c, 3, 11, 98
5, 314840, Control_c, 3, 11, 99
5, 314870, Control_c, 3, 11, 99
5, 314880, Note_on_c, 3, 57, 90
5, 314910, Note_on_c, 3, 63, 0
5, 314910, Control_c, 3, 11, 100
5, 314940, Control_c, 3, 11, 101
5, 314970, Control_c, 3, 11, 101
5, 315000, Control_c, 3, 11, 102
5, 315030, Control_c, 3, 11, 103
5, 315060, Control_c, 3, 11, 103
5, 315090, Control_c, 3, 11, 104
5, 315120, Control_c, 3, 11, 105
5, 315150, Control_c, 3, 11, 105
5, 315180, Control_c, 3, 11, 106
5, 315210, Control_c, 3, 11, 106
5, 315240, Control_c, 3, 11, 107
5, 315270, Control_c, 3, 11, 108
5, 315300, Control_c, 3, 11, 108
5, 315330, Control_c, 3, 11, 109
5, 315360, Note_on_c, 3, 59, 90
5, 315360, Note_on_c, 3, 62, 90
5, 315360, Control_c, 3, 11, 110
5, 315390, Note_on_c, 3, 57, 0
5, 315390, Note_on_c, 3, 60, 0
5, 315390, Control_c, 3, 11, 110
5, 315420, Control_c, 3, 11, 109
5, 315450, Control_c, 3, 11, 109
5, 315480, Control_c, 3, 11, 108
5, 315510, Control_c, 3, 11, 107
5, 315540, Control_c, 3, 11, 107
5, 315570, Control_c, 3, 11, 106
5, 315600, Control_c, 3, 11, 105
5, 315630, Control_c, 3, 11, 105
5, 315660, Control_c, 3, 11, 104
5, 315690, Control_c, 3, 11, 103
5, 315720, Control_c, 3, 11, 103
5, 315750, Control_c, 3, 11, 102
5, 315780, Control_c, 3, 11, 101
5, 315810, Control_c, 3, 11, 101
5, 315840, Control_c, 3, 11, 100
5, 315870, Control_c, 3, 11, 100
5, 315900, Control_c, 3, 11, 99
5, 315930, Control_c, 3, 11, 98
5, 315960, Control_c, 3, 11, 98
5, 315990, Control_c, 3, 11, 97
5, 316020, Control_c, 3, 11, 96
5, 316050, Control_c, 3, 11, 96
5, 316080, Control_c, 3, 11, 95
5, 316110, Control_c, 3, 11, 94
5, 316140, Control_c, 3, 11, 94
5, 316170, Control_c, 3, 11, 93
5, 316200, Control_c, 3, 11, 92
5, 316230, Control_c, 3, 11, 92
5, 316260, Control_c, 3, 11, 91
5, 316290, Control_c, 3, 11, 90
5, 316320, Note_on_c, 3, 65, 90
5, 316320, Control_c, 3, 11, 90
5, 316350, Note_on_c, 3, 59, 0
5, 316350, Control_c, 3, 11, 89
5, 316380, Control_c, 3, 11, 89
5, 316410, Control_c, 3, 11, 88
5, 316440, Control_c, 3, 11, 87
5, 316470, Control_c, 3, 11, 87
5, 316500, Control_c, 3, 11, 86
5, 316530, Control_c, 3, 11, 85
5, 316560, Control_c, 3, 11, 85
5, 316590, Control_c, 3, 11, 84
5, 316620, Control_c, 3, 11, 83
5, 316650, Control_c, 3, 11, 83
5, 316680, Control_c, 3, 11, 82
5, 316710, Control_c, 3, 11, 81
5, 316740, Control_c, 3, 11, 81
5, 316770, Control_c, 3, 11, 80
5, 316800, Note_on_c, 3, 60, 90
5, 316800, Note_on_c, 3, 63, 90
5, 316830, Note_on_c, 3, 62, 0
5, 316830, Note_on_c, 3, 65, 0
5, 317400, Note_on_c, 3, 60, 0
5, 317400, Note_on_c, 3, 63, 0
5, 318960, Note_on_c, 3, 59, 60
5, 318960, Note_on_c, 3, 62, 60
5, 319200, Note_on_c, 3, 60, 60
5, 319200, Note_on_c, 3, 63, 60
5, 319230, Note_on_c, 3, 59, 0
5, 319230, Note_on_c, 3, 62, 0
5, 319440, Note_on_c, 3, 59, 60
5, 319440, Note_on_c, 3, 62, 60
5, 319470, Note_on_c, 3, 60, 0
5, 319470, Note_on_c, 3, 63, 0
5, 319680, Note_on_c, 3, 60, 60
5, 319680, Note_on_c, 3, 63, 60
5, 319710, Note_on_c, 3, 59, 0
5, 319710, Note_on_c, 3, 62, 0
5, 319890, Note_on_c, 3, 60, 0
5, 319890, Note_on_c, 3, 63, 0
5, 320400, Note_on_c, 3, 59, 60
5, 320400, Note_on_c, 3, 62, 60
5, 320640, Note_on_c, 3, 60, 60
5, 320640, Note_on_c, 3, 63, 60
5, 320670, Note_on_c, 3, 59, 0
5, 320670, Note_on_c, 3, 62, 0
5, 320880, Note_on_c, 3, 59, 60
5, 320880, Note_on_c, 3, 62, 60
5, 320910, Note_on_c, 3, 60, 0
5, 320910, Note_on_c, 3, 63, 0
5, 321120, Note_on_c, 3, 60, 60
5, 321120, Note_on_c, 3, 63, 60
5, 321150, Note_on_c, 3, 59, 0
5, 321150, Note_on_c, 3, 62, 0
5, 321330, Note_on_c, 3, 60, 0
5, 321330, Note_on_c, 3, 63, 0
5, 321840, Note_on_c, 3, 59, 60
5, 321840, Note_on_c, 3, 62, 60
5, 322080, Note_on_c, 3, 60, 60
5, 322080, Note_on_c, 3, 63, 60
5, 322110, Note_on_c, 3, 59, 0
5, 322110, Note_on_c, 3, 62, 0
5, 322320, Note_on_c, 3, 59, 60
5, 322320, Note_on_c, 3, 62, 60
5, 322350, Note_on_c, 3, 60, 0
5, 322350, Note_on_c, 3, 63, 0
5, 322560, Note_on_c, 3, 60, 60
5, 322560, Note_on_c, 3, 63, 60
5, 322590, Note_on_c, 3, 59, 0
5, 322590, Note_on_c, 3, 62, 0
5, 322770, Note_on_c, 3, 60, 0
5, 322770, Note_on_c, 3, 63, 0
5, 333600, Note_on_c, 3, 50, 60
5, 333600, Note_on_c, 3, 58, 60
5, 334080, Note_on_c, 3, 53, 60
5, 334080, Note_on_c, 3, 62, 60
5, 334110, Note_on_c, 3, 50, 0
5, 334110, Note_on_c, 3, 58, 0
5, 335040, Note_on_c, 3, 50, 62
5, 335040, Note_on_c, 3, 58, 62
5, 335070, Note_on_c, 3, 53, 0
5, 335070, Note_on_c, 3, 62, 0
5, 335520, Note_on_c, 3, 51, 63
5, 335520, Note_on_c, 3, 60, 63
5, 335550, Note_on_c, 3, 50, 0
5, 335550, Note_on_c, 3, 58, 0
5, 336480, Note_on_c, 3, 55, 65
5, 336480, Note_on_c, 3, 63, 65
5, 336510, Note_on_c, 3, 51, 0
5, 336510, Note_on_c, 3, 60, 0
5, 336960, Note_on_c, 3, 51, 66
5, 336960, Note_on_c, 3, 60, 66
5, 336990, Note_on_c, 3, 55, 0
5, 336990, Note_on_c, 3, 63, 0
5, 337740, Note_on_c, 3, 51, 0
5, 337740, Note_on_c, 3, 60, 0
5, 339360, Note_on_c, 3, 51, 71
5, 339360, Note_on_c, 3, 60, 71
5, 339840, Note_on_c, 3, 55, 72
5, 339840, Note_on_c, 3, 63, 72
5, 339870, Note_on_c, 3, 51, 0
5, 339870, Note_on_c, 3, 60, 0
5, 340800, Note_on_c, 3, 51, 74
5, 340800, Note_on_c, 3, 60, 74
5, 340830, Note_on_c, 3, 55, 0
5, 340830, Note_on_c, 3, 63, 0
5, 341280, Note_on_c, 3, 53, 75
5, 341280, Note_on_c, 3, 62, 75
5, 341310, Note_on_c, 3, 51, 0
5, 341310, Note_on_c, 3, 60, 0
5, 342240, Note_on_c, 3, 56, 78
5, 342240, Note_on_c, 3, 65, 78
5, 342270, Note_on_c, 3, 53, 0
5, 342270, Note_on_c, 3, 62, 0
5, 342720, Note_on_c, 3, 53, 79
5, 342720, Note_on_c, 3, 62, 79
5, 342750, Note_on_c, 3, 56, 0
5, 342750, Note_on_c, 3, 65, 0
5, 343500, Note_on_c, 3, 53, 0
5, 343500, Note_on_c, 3, 62, 0
5, 345120, Note_on_c, 3, 58, 84
5, 345120, Note_on_c, 3, 62, 84
5, 345600, Note_on_c, 3, 65, 85
5, 345630, Note_on_c, 3, 58, 0
5, 346560, Note_on_c, 3, 58, 87
5, 346590, Note_on_c, 3, 65, 0
5, 347040, Note_on_c, 3, 60, 88
5, 347040, Note_on_c, 3, 63, 88
5, 347070, Note_on_c, 3, 58, 0
5, 347070, Note_on_c, 3, 62, 0
5, 348000, Note_on_c, 3, 62, 90
5, 348000, Note_on_c, 3, 65, 90
5, 348030, Note_on_c, 3, 60, 0
5, 348030, Note_on_c, 3, 63, 0
5, 348390, Note_on_c, 3, 62, 0
5, 348390, Note_on_c, 3, 65, 0
5, 348480, Note_on_c, 3, 63, 91
5, 348480, Note_on_c, 3, 67, 91
5, 350790, Note_on_c, 3, 63, 0
5, 350790, Note_on_c, 3, 67, 0
5, 350880, Note_on_c, 3, 62, 97
5, 350880, Note_on_c, 3, 65, 97
5, 351270, Note_on_c, 3, 62, 0
5, 351270, Note_on_c, 3, 65, 0
5, 351360, Note_on_c, 3, 60, 98
5, 351360, Note_on_c, 3, 63, 98
5, 352110, Note_on_c, 3, 60, 0
5, 352110, Note_on_c, 3, 63, 0
5, 352320, Note_on_c, 3, 60, 100
5, 352320, Note_on_c, 3, 63, 100
5, 352530, Note_on_c, 3, 60, 0
5, 352530, Note_on_c, 3, 63, 0
5, 352800, Note_on_c, 3, 60, 101
5, 352800, Note_on_c, 3, 63, 101
5, 352890, Note_on_c, 3, 62, 101
5, 352890, Note_on_c, 3, 65, 101
5, 352895, Note_on_c, 3, 60, 0
5, 352895, Note_on_c, 3, 63, 0
5, 352980, Note_on_c, 3, 60, 101
5, 352980, Note_on_c, 3, 63, 101
5, 352985, Note_on_c, 3, 62, 0
5, 352985, Note_on_c, 3, 65, 0
5, 353070, Note_on_c, 3, 62, 102
5, 353070, Note_on_c, 3, 65, 102
5, 353075, Note_on_c, 3, 60, 0
5, 353075, Note_on_c, 3, 63, 0
5, 353160, Note_on_c, 3, 60, 102
5, 353160, Note_on_c, 3, 63, 102
5, 353165, Note_on_c, 3, 62, 0
5, 353165, Note_on_c, 3, 65, 0
5, 353250, Note_on_c, 3, 62, 102
5, 353250, Note_on_c, 3, 65, 102
5, 353255, Note_on_c, 3, 60, 0
5, 353255, Note_on_c, 3, 63, 0
5, 353345, Note_on_c, 3, 62, 0
5, 353345, Note_on_c, 3, 65, 0
5, 353520, Note_on_c, 3, 59, 103
5, 353520, Note_on_c, 3, 62, 103
5, 353730, Note_on_c, 3, 59, 0
5, 353730, Note_on_c, 3, 62, 0
5, 353760, Note_on_c, 3, 60, 103
5, 353760, Note_on_c, 3, 63, 103
5, 354210, Note_on_c, 3, 60, 0
5, 354210, Note_on_c, 3, 63, 0
5, 354240, Note_on_c, 3, 58, 104
5, 354240, Note_on_c, 3, 62, 104
5, 354840, Note_on_c, 3, 58, 0
5, 354840, Note_on_c, 3, 62, 0
5, 356640, Note_on_c, 3, 58, 110
5, 356640, Note_on_c, 3, 62, 110
5, 356880, Note_on_c, 3, 60, 110
5, 356880, Note_on_c, 3, 63, 110
5, 356910, Note_on_c, 3, 58, 0
5, 356910, Note_on_c, 3, 62, 0
5, 357120, Note_on_c, 3, 62, 110
5, 357120, Note_on_c, 3, 65, 110
5, 357150, Note_on_c, 3, 60, 0
5, 357150, Note_on_c, 3, 63, 0
5, 358080, Note_on_c, 3, 58, 110
5, 358110, Note_on_c, 3, 65, 0
5, 358560, Note_on_c, 3, 60, 110
5, 358560, Note_on_c, 3, 63, 110
5, 358590, Note_on_c, 3, 58, 0
5, 358590, Note_on_c, 3, 62, 0
5, 359520, Note_on_c, 3, 62, 110
5, 359520, Note_on_c, 3, 65, 110
5, 359550, Note_on_c, 3, 60, 0
5, 359550, Note_on_c, 3, 63, 0
5, 359910, Note_on_c, 3, 62, 0
5, 359910, Note_on_c, 3, 65, 0
5, 360000, Note_on_c, 3, 63, 110
5, 360000, Note_on_c, 3, 67, 110
5, 360000, Control_c, 3, 11, 80
5, 360060, Control_c, 3, 11, 87
5, 360120, Control_c, 3, 11, 95
5, 360180, Control_c, 3, 11, 102
5, 360300, Control_c, 3, 11, 110
5, 360360, Control_c, 3, 11, 107
5, 360420, Control_c, 3, 11, 106
5, 360480, Control_c, 3, 11, 104
5, 360540, Control_c, 3, 11, 103
5, 360600, Control_c, 3, 11, 101
5, 360660, Control_c, 3, 11, 100
5, 360720, Control_c, 3, 11, 98
5, 360780, Control_c, 3, 11, 97
5, 360840, Control_c, 3, 11, 95
5, 360900, Control_c, 3, 11, 93
5, 360960, Control_c, 3, 11, 92
5, 361020, Control_c, 3, 11, 90
5, 361080, Control_c, 3, 11, 89
5, 361140, Control_c, 3, 11, 87
5, 361200, Control_c, 3, 11, 86
5, 361260, Control_c, 3, 11, 84
5, 361320, Control_c, 3, 11, 82
5, 361380, Control_c, 3, 11, 80
5, 362310, Note_on_c, 3, 63, 0
5, 362310, Note_on_c, 3, 67, 0
5, 362400, Note_on_c, 3, 62, 110
5, 362400, Note_on_c, 3, 65, 110
5, 362880, Note_on_c, 3, 60, 110
5, 362880, Note_on_c, 3, 63, 110
5, 362910, Note_on_c, 3, 62, 0
5, 362910, Note_on_c, 3, 65, 0
5, 363330, Note_on_c, 3, 60, 0
5, 363330, Note_on_c, 3, 63, 0
5, 363840, Note_on_c, 3, 60, 110
5, 363840, Note_on_c, 3, 63, 110
5, 364230, Note_on_c, 3, 60, 0
5, 364230, Note_on_c, 3, 63, 0
5, 364320, Note_on_c, 3, 60, 110
5, 364320, Note_on_c, 3, 63, 110
5, 364410, Note_on_c, 3, 62, 110
5, 364410, Note_on_c, 3, 65, 110
5, 364415, Note_on_c, 3, 60, 0
5, 364415, Note_on_c, 3, 63, 0
5, 364500, Note_on_c, 3, 60, 110
5, 364500, Note_on_c, 3, 63, 110
5, 364505, Note_on_c, 3, 62, 0
5, 364505, Note_on_c, 3, 65, 0
5, 364590, Note_on_c, 3, 62, 110
5, 364590, Note_on_c, 3, 65, 110
5, 364595, Note_on_c, 3, 60, 0
5, 364595, Note_on_c, 3, 63, 0
5, 364680, Note_on_c, 3, 60, 110
5, 364680, Note_on_c, 3, 63, 110
5, 364685, Note_on_c, 3, 62, 0
5, 364685, Note_on_c, 3, 65, 0
5, 364770, Note_on_c, 3, 62, 110
5, 364770, Note_on_c, 3, 65, 110
5, 364775, Note_on_c, 3, 60, 0
5, 364775, Note_on_c, 3, 63, 0
5, 364865, Note_on_c, 3, 62, 0
5, 364865, Note_on_c, 3, 65, 0
5, 365040, Note_on_c, 3, 59, 110
5, 365040, Note_on_c, 3, 62, 110
5, 365250, Note_on_c, 3, 59, 0
5, 365250, Note_on_c, 3, 62, 0
5, 365280, Note_on_c, 3, 60, 110
5, 365280, Note_on_c, 3, 63, 110
5, 365730, Note_on_c, 3, 60, 0
5, 365730, Note_on_c, 3, 63, 0
5, 365760, Note_on_c, 3, 58, 110
5, 365760, Note_on_c, 3, 62, 110
5, 366360, Note_on_c, 3, 58, 0
5, 366360, Note_on_c, 3, 62, 0
5, 368160, Note_on_c, 3, 62, 110
5, 368160, Note_on_c, 3, 65, 110
5, 368640, Note_on_c, 3, 60, 110
5, 368640, Note_on_c, 3, 63, 110
5, 368670, Note_on_c, 3, 62, 0
5, 368670, Note_on_c, 3, 65, 0
5, 369090, Note_on_c, 3, 60, 0
5, 369090, Note_on_c, 3, 63, 0
5, 371040, Note_on_c, 3, 57, 110
5, 371040, Note_on_c, 3, 65, 110
5, 371520, Note_on_c, 3, 58, 110
5, 371520, Note_on_c, 3, 62, 110
5, 371550, Note_on_c, 3, 57, 0
5, 371550, Note_on_c, 3, 65, 0
5, 371970, Note_on_c, 3, 58, 0
5, 371970, Note_on_c, 3, 62, 0
5, 373920, Note_on_c, 3, 62, 85
5, 373920, Note_on_c, 3, 65, 85
5, 374400, Note_on_c, 3, 60, 80
5, 374400, Note_on_c, 3, 63, 80
5, 374430, Note_on_c, 3, 62, 0
5, 374430, Note_on_c, 3, 65, 0
5, 374850, Note_on_c, 3, 60, 0
5, 374850, Note_on_c, 3, 63, 0
5, 376800, Note_on_c, 3, 57, 55
5, 376800, Note_on_c, 3, 65, 55
5, 377280, Note_on_c, 3, 58, 50
5, 377280, Note_on_c, 3, 62, 50
5, 377310, Note_on_c, 3, 57, 0
5, 377310, Note_on_c, 3, 65, 0
5, 377730, Note_on_c, 3, 58, 0
5, 377730, Note_on_c, 3, 62, 0
5, 378720, Note_on_c, 3, 58, 50
5, 378720, Note_on_c, 3, 62, 50
5, 379170, Note_on_c, 3, 58, 0
5, 379170, Note_on_c, 3, 62, 0
5, 380160, Note_on_c, 3, 58, 50
5, 380160, Note_on_c, 3, 62, 50
5, 380610, Note_on_c, 3, 58, 0
5, 380610, Note_on_c, 3, 62, 0
5, 381600, Note_on_c, 3, 58, 50
5, 381600, Note_on_c, 3, 62, 50
5, 382050, Note_on_c, 3, 58, 0
5, 382050, Note_on_c, 3, 62, 0
5, 383040, Note_on_c, 3, 58, 50
5, 383040, Note_on_c, 3, 62, 50
5, 383490, Note_on_c, 3, 58, 0
5, 383490, Note_on_c, 3, 62, 0
5, 388320, Note_on_c, 3, 41, 95
5, 388320, Note_on_c, 3, 53, 95
5, 388800, Note_on_c, 3, 46, 100
5, 388800, Note_on_c, 3, 58, 100
5, 388830, Note_on_c, 3, 41, 0
5, 388830, Note_on_c, 3, 53, 0
5, 389010, Note_on_c, 3, 46, 0
5, 389010, Note_on_c, 3, 58, 0
5, 389280, Note_on_c, 3, 46, 100
5, 389970, Note_on_c, 3, 46, 0
5, 390240, Note_on_c, 3, 46, 100
5, 390870, Note_on_c, 3, 46, 0
5, 391200, Note_on_c, 3, 46, 100
5, 391410, Note_on_c, 3, 46, 0
5, 391680, Note_on_c, 3, 41, 100
5, 392160, Note_on_c, 3, 45, 100
5, 392190, Note_on_c, 3, 41, 0
5, 392640, Note_on_c, 3, 48, 100
5, 392670, Note_on_c, 3, 45, 0
5, 392850, Note_on_c, 3, 48, 0
5, 393120, Note_on_c, 3, 53, 100
5, 393720, Note_on_c, 3, 53, 0
5, 394080, Note_on_c, 3, 53, 50
5, 394560, Note_on_c, 3, 54, 50
5, 394590, Note_on_c, 3, 53, 0
5, 395040, Note_on_c, 3, 57, 50
5, 395070, Note_on_c, 3, 54, 0
5, 395520, Note_on_c, 3, 60, 50
5, 395550, Note_on_c, 3, 57, 0
5, 396000, Note_on_c, 3, 63, 50
5, 396030, Note_on_c, 3, 60, 0
5, 396480, Note_on_c, 3, 65, 50
5, 396510, Note_on_c, 3, 63, 0
5, 396930, Note_on_c, 3, 65, 0
5, 399840, Note_on_c, 3, 51, 50
5, 400320, Note_on_c, 3, 49, 50
5, 400350, Note_on_c, 3, 51, 0
5, 400800, Note_on_c, 3, 52, 50
5, 400830, Note_on_c, 3, 49, 0
5, 401280, Note_on_c, 3, 55, 50
5, 401310, Note_on_c, 3, 52, 0
5, 401760, Note_on_c, 3, 58, 50
5, 401790, Note_on_c, 3, 55, 0
5, 402240, Note_on_c, 3, 60, 50
5, 402270, Note_on_c, 3, 58, 0
5, 402690, Note_on_c, 3, 60, 0
5, 405600, Note_on_c, 3, 52, 50
5, 406080, Note_on_c, 3, 53, 49
5, 406110, Note_on_c, 3, 52, 0
5, 406290, Note_on_c, 3, 53, 0
5, 406560, Note_on_c, 3, 55, 54
5, 407040, Note_on_c, 3, 48, 59
5, 407070, Note_on_c, 3, 55, 0
5, 407250, Note_on_c, 3, 48, 0
5, 407520, Note_on_c, 3, 57, 64
5, 408000, Note_on_c, 3, 53, 69
5, 408030, Note_on_c, 3, 57, 0
5, 408210, Note_on_c, 3, 53, 0
5, 408480, Note_on_c, 3, 58, 74
5, 409170, Note_on_c, 3, 58, 0
5, 411360, Note_on_c, 3, 48, 104
5, 411360, Note_on_c, 3, 60, 104
5, 411570, Note_on_c, 3, 48, 0
5, 411570, Note_on_c, 3, 60, 0
5, 411840, Note_on_c, 3, 53, 109
5, 411840, Note_on_c, 3, 57, 109
5, 413010, Note_on_c, 3, 53, 0
5, 413010, Note_on_c, 3, 57, 0
5, 413280, Note_on_c, 3, 53, 110
5, 413280, Note_on_c, 3, 57, 110
5, 414450, Note_on_c, 3, 53, 0
5, 414450, Note_on_c, 3, 57, 0
5, 414720, Note_on_c, 3, 53, 110
5, 414720, Note_on_c, 3, 57, 110
5, 414930, Note_on_c, 3, 53, 0
5, 414930, Note_on_c, 3, 57, 0
5, 415200, Note_on_c, 3, 53, 110
5, 415200, Note_on_c, 3, 57, 110
5, 415410, Note_on_c, 3, 53, 0
5, 415410, Note_on_c, 3, 57, 0
5, 415680, Note_on_c, 3, 53, 110
5, 415680, Note_on_c, 3, 57, 110
5, 415890, Note_on_c, 3, 53, 0
5, 415890, Note_on_c, 3, 57, 0
5, 416160, Note_on_c, 3, 53, 110
5, 416160, Note_on_c, 3, 57, 110
5, 416520, Note_on_c, 3, 53, 0
5, 416520, Note_on_c, 3, 57, 0
5, 436800, Note_on_c, 3, 58, 70
5, 437010, Note_on_c, 3, 58, 0
5, 437280, Note_on_c, 3, 58, 70
5, 437490, Note_on_c, 3, 58, 0
5, 437760, Note_on_c, 3, 63, 70
5, 440550, Note_on_c, 3, 63, 0
5, 440640, Note_on_c, 3, 65, 70
5, 443430, Note_on_c, 3, 65, 0
5, 443520, Note_on_c, 3, 58, 70
5, 446310, Note_on_c, 3, 58, 0
5, 446400, Note_on_c, 3, 60, 70
5, 449190, Note_on_c, 3, 60, 0
5, 449280, Note_on_c, 3, 53, 70
5, 450630, Note_on_c, 3, 53, 0
5, 450720, Note_on_c, 3, 55, 70
5, 452070, Note_on_c, 3, 55, 0
5, 452160, Note_on_c, 3, 48, 70
5, 453510, Note_on_c, 3, 48, 0
5, 453600, Note_on_c, 3, 50, 70
5, 454950, Note_on_c, 3, 50, 0
5, 455040, Note_on_c, 3, 43, 70
5, 456390, Note_on_c, 3, 43, 0
5, 456480, Note_on_c, 3, 45, 70
5, 457830, Note_on_c, 3, 45, 0
5, 457920, Note_on_c, 3, 38, 70
5, 459270, Note_on_c, 3, 38, 0
5, 459360, Note_on_c, 3, 41, 70
5, 463110, Note_on_c, 3, 41, 0
5, 463200, Note_on_c, 3, 41, 90
5, 463200, Note_on_c, 3, 53, 90
5, 463410, Note_on_c, 3, 53, 0
5, 463680, Note_on_c, 3, 46, 100
5, 463680, Note_on_c, 3, 58, 100
5, 463710, Note_on_c, 3, 41, 0
5, 463890, Note_on_c, 3, 46, 0
5, 463890, Note_on_c, 3, 58, 0
5, 464160, Note_on_c, 3, 46, 100
5, 464160, Note_on_c, 3, 53, 100
5, 464640, Note_on_c, 3, 62, 100
5, 464670, Note_on_c, 3, 53, 0
5, 464850, Note_on_c, 3, 46, 0
5, 464850, Note_on_c, 3, 62, 0
5, 465120, Note_on_c, 3, 46, 100
5, 465120, Note_on_c, 3, 58, 100
5, 465600, Note_on_c, 3, 65, 100
5, 465630, Note_on_c, 3, 58, 0
5, 465810, Note_on_c, 3, 46, 0
5, 465810, Note_on_c, 3, 65, 0
5, 466080, Note_on_c, 3, 46, 100
5, 466080, Note_on_c, 3, 62, 100
5, 466230, Note_on_c, 3, 46, 0
5, 466230, Note_on_c, 3, 62, 0
5, 466560, Note_on_c, 3, 41, 100
5, 466560, Note_on_c, 3, 65, 100
5, 467040, Note_on_c, 3, 45, 100
5, 467040, Note_on_c, 3, 63, 100
5, 467070, Note_on_c, 3, 41, 0
5, 467070, Note_on_c, 3, 65, 0
5, 467250, Note_on_c, 3, 45, 0
5, 467250, Note_on_c, 3, 63, 0
5, 467520, Note_on_c, 3, 48, 100
5, 467520, Note_on_c, 3, 60, 100
5, 467670, Note_on_c, 3, 48, 0
5, 467670, Note_on_c, 3, 60, 0
5, 468000, Note_on_c, 3, 53, 100
5, 468000, Note_on_c, 3, 57, 100
5, 468600, Note_on_c, 3, 53, 0
5, 468600, Note_on_c, 3, 57, 0
5, 468960, Note_on_c, 3, 53, 60
5, 469440, Note_on_c, 3, 54, 60
5, 469470, Note_on_c, 3, 53, 0
5, 469920, Note_on_c, 3, 57, 60
5, 469950, Note_on_c, 3, 54, 0
5, 470400, Note_on_c, 3, 60, 60
5, 470430, Note_on_c, 3, 57, 0
5, 470880, Note_on_c, 3, 63, 60
5, 470910, Note_on_c, 3, 60, 0
5, 471360, Note_on_c, 3, 65, 60
5, 471390, Note_on_c, 3, 63, 0
5, 471810, Note_on_c, 3, 65, 0
5, 474720, Note_on_c, 3, 55, 60
5, 475200, Note_on_c, 3, 56, 60
5, 475230, Note_on_c, 3, 55, 0
5, 475680, Note_on_c, 3, 59, 60
5, 475710, Note_on_c, 3, 56, 0
5, 476160, Note_on_c, 3, 62, 60
5, 476190, Note_on_c, 3, 59, 0
5, 476640, Note_on_c, 3, 65, 60
5, 476670, Note_on_c, 3, 62, 0
5, 477120, Note_on_c, 3, 67, 60
5, 477150, Note_on_c, 3, 65, 0
5, 477570, Note_on_c, 3, 67, 0
5, 480480, Note_on_c, 3, 61, 60
5, 480960, Note_on_c, 3, 58, 60
5, 480990, Note_on_c, 3, 61, 0
5, 481440, Note_on_c, 3, 55, 60
5, 481470, Note_on_c, 3, 58, 0
5, 481920, Note_on_c, 3, 52, 60
5, 481950, Note_on_c, 3, 55, 0
5, 482400, Note_on_c, 3, 49, 60
5, 482430, Note_on_c, 3, 52, 0
5, 482880, Note_on_c, 3, 48, 60
5, 482910, Note_on_c, 3, 49, 0
5, 483270, Note_on_c, 3, 48, 0
5, 483360, Note_on_c, 3, 52, 60
5, 483840, Note_on_c, 3, 53, 60
5, 483870, Note_on_c, 3, 52, 0
5, 484320, Note_on_c, 3, 57, 60
5, 484350, Note_on_c, 3, 53, 0
5, 484800, Note_on_c, 3, 60, 60
5, 484830, Note_on_c, 3, 57, 0
5, 485280, Note_on_c, 3, 63, 60
5, 485310, Note_on_c, 3, 60, 0
5, 485760, Note_on_c, 3, 65, 66
5, 485790, Note_on_c, 3, 63, 0
5, 486240, Note_on_c, 3, 66, 72
5, 486270, Note_on_c, 3, 65, 0
5, 486720, Note_on_c, 3, 65, 78
5, 486750, Note_on_c, 3, 66, 0
5, 487200, Note_on_c, 3, 63, 85
5, 487230, Note_on_c, 3, 65, 0
5, 487680, Note_on_c, 3, 60, 91
5, 487710, Note_on_c, 3, 63, 0
5, 488160, Note_on_c, 3, 57, 97
5, 488190, Note_on_c, 3, 60, 0
5, 488640, Note_on_c, 3, 53, 103
5, 488670, Note_on_c, 3, 57, 0
5, 488850, Note_on_c, 3, 53, 0
5, 489120, Note_on_c, 3, 54, 110
5, 489600, Note_on_c, 3, 53, 60
5, 489630, Note_on_c, 3, 54, 0
5, 490080, Note_on_c, 3, 57, 60
5, 490110, Note_on_c, 3, 53, 0
5, 490560, Note_on_c, 3, 60, 60
5, 490590, Note_on_c, 3, 57, 0
5, 491040, Note_on_c, 3, 63, 60
5, 491070, Note_on_c, 3, 60, 0
5, 491520, Note_on_c, 3, 65, 66
5, 491550, Note_on_c, 3, 63, 0
5, 492000, Note_on_c, 3, 66, 72
5, 492030, Note_on_c, 3, 65, 0
5, 492480, Note_on_c, 3, 65, 78
5, 492510, Note_on_c, 3, 66, 0
5, 492960, Note_on_c, 3, 63, 85
5, 492990, Note_on_c, 3, 65, 0
5, 493440, Note_on_c, 3, 60, 91
5, 493470, Note_on_c, 3, 63, 0
5, 493920, Note_on_c, 3, 57, 97
5, 493950, Note_on_c, 3, 60, 0
5, 494400, Note_on_c, 3, 53, 103
5, 494430, Note_on_c, 3, 57, 0
5, 494610, Note_on_c, 3, 53, 0
5, 494880, Note_on_c, 3, 54, 110
5, 495360, Note_on_c, 3, 53, 100
5, 495390, Note_on_c, 3, 54, 0
5, 495570, Note_on_c, 3, 53, 0
5, 495840, Note_on_c, 3, 53, 110
5, 495840, Note_on_c, 3, 60, 110
5, 496710, Note_on_c, 3, 53, 0
5, 496710, Note_on_c, 3, 60, 0
5, 496800, Note_on_c, 3, 55, 110
5, 496800, Note_on_c, 3, 58, 110
5, 497670, Note_on_c, 3, 55, 0
5, 497670, Note_on_c, 3, 58, 0
5, 497760, Note_on_c, 3, 51, 110
5, 497760, Note_on_c, 3, 63, 110
5, 497970, Note_on_c, 3, 51, 0
5, 497970, Note_on_c, 3, 63, 0
5, 498240, Note_on_c, 3, 53, 110
5, 498240, Note_on_c, 3, 65, 110
5, 499590, Note_on_c, 3, 53, 0
5, 499590, Note_on_c, 3, 65, 0
5, 499680, Note_on_c, 3, 41, 110
5, 499680, Note_on_c, 3, 53, 110
5, 501030, Note_on_c, 3, 41, 0
5, 501030, Note_on_c, 3, 53, 0
5, 501120, Note_on_c, 3, 46, 110
5, 501120, Note_on_c, 3, 58, 110
5, 501570, Note_on_c, 3, 46, 0
5, 501570, Note_on_c, 3, 58, 0
5, 504000, Note_on_c, 3, 57, 110
5, 504480, Note_on_c, 3, 53, 110
5, 504510, Note_on_c, 3, 57, 0
5, 504690, Note_on_c, 3, 53, 0
5, 504960, Note_on_c, 3, 60, 110
5, 505440, Note_on_c, 3, 57, 110
5, 505470, Note_on_c, 3, 60, 0
5, 505650, Note_on_c, 3, 57, 0
5, 505920, Note_on_c, 3, 63, 110
5, 506400, Note_on_c, 3, 60, 110
5, 506430, Note_on_c, 3, 63, 0
5, 506610, Note_on_c, 3, 60, 0
5, 506880, Note_on_c, 3, 58, 110
5, 507330, Note_on_c, 3, 58, 0
5, 509760, Note_on_c, 3, 57, 110
5, 510240, Note_on_c, 3, 53, 110
5, 510270, Note_on_c, 3, 57, 0
5, 510450, Note_on_c, 3, 53, 0
5, 510720, Note_on_c, 3, 60, 110
5, 511200, Note_on_c, 3, 57, 110
5, 511230, Note_on_c, 3, 60, 0
5, 511410, Note_on_c, 3, 57, 0
5, 511680, Note_on_c, 3, 63, 110
5, 512160, Note_on_c, 3, 60, 110
5, 512190, Note_on_c, 3, 63, 0
5, 512370, Note_on_c, 3, 60, 0
5, 512640, Note_on_c, 3, 46, 110
5, 512640, Note_on_c, 3, 58, 110
5, 513690, Note_on_c, 3, 46, 0
5, 513690, Note_on_c, 3, 58, 0
5, 514080, Note_on_c, 3, 58, 110
5, 514080, Note_on_c, 3, 62, 110
5, 515130, Note_on_c, 3, 58, 0
5, 515130, Note_on_c, 3, 62, 0
5, 515520, Note_on_c, 3, 58, 110
5, 515520, Note_on_c, 3, 62, 110
5, 515730, Note_on_c, 3, 58, 0
5, 515730, Note_on_c, 3, 62, 0
5, 516000, Note_on_c, 3, 58, 110
5, 516000, Note_on_c, 3, 62, 110
5, 516210, Note_on_c, 3, 58, 0
5, 516210, Note_on_c, 3, 62, 0
5, 516480, Note_on_c, 3, 58, 110
5, 516480, Note_on_c, 3, 62, 110
5, 516660, Note_on_c, 3, 58, 0
5, 516660, Note_on_c, 3, 62, 0
5, 516960, Note_on_c, 3, 58, 110
5, 516960, Note_on_c, 3, 62, 110
5, 517560, Note_on_c, 3, 58, 0
5, 517560, Note_on_c, 3, 62, 0
5, 517920, Note_on_c, 3, 50, 40
5, 517920, Note_on_c, 3, 58, 40
5, 518400, Note_on_c, 3, 53, 40
5, 518400, Note_on_c, 3, 62, 40
5, 518430, Note_on_c, 3, 50, 0
5, 518430, Note_on_c, 3, 58, 0
5, 519360, Note_on_c, 3, 50, 40
5, 519360, Note_on_c, 3, 58, 40
5, 519390, Note_on_c, 3, 53, 0
5, 519390, Note_on_c, 3, 62, 0
5, 519840, Note_on_c, 3, 51, 40
5, 519840, Note_on_c, 3, 60, 40
5, 519870, Note_on_c, 3, 50, 0
5, 519870, Note_on_c, 3, 58, 0
5, 520800, Note_on_c, 3, 55, 40
5, 520800, Note_on_c, 3, 63, 40
5, 520830, Note_on_c, 3, 51, 0
5, 520830, Note_on_c, 3, 60, 0
5, 521280, Note_on_c, 3, 51, 40
5, 521280, Note_on_c, 3, 60, 40
5, 521310, Note_on_c, 3, 55, 0
5, 521310, Note_on_c, 3, 63, 0
5, 522060, Note_on_c, 3, 51, 0
5, 522060, Note_on_c, 3, 60, 0
5, 523680, Note_on_c, 3, 51, 40
5, 523680, Note_on_c, 3, 60, 40
5, 524160, Note_on_c, 3, 55, 40
5, 524160, Note_on_c, 3, 63, 40
5, 524190, Note_on_c, 3, 51, 0
5, 524190, Note_on_c, 3, 60, 0
5, 525120, Note_on_c, 3, 51, 40
5, 525120, Note_on_c, 3, 60, 40
5, 525150, Note_on_c, 3, 55, 0
5, 525150, Note_on_c, 3, 63, 0
5, 525600, Note_on_c, 3, 53, 40
5, 525600, Note_on_c, 3, 62, 40
5, 525630, Note_on_c, 3, 51, 0
5, 525630, Note_on_c, 3, 60, 0
5, 526560, Note_on_c, 3, 56, 40
5, 526560, Note_on_c, 3, 65, 40
5, 526590, Note_on_c, 3, 53, 0
5, 526590, Note_on_c, 3, 62, 0
5, 527040, Note_on_c, 3, 53, 40
5, 527040, Note_on_c, 3, 62, 40
5, 527070, Note_on_c, 3, 56, 0
5, 527070, Note_on_c, 3, 65, 0
5, 527820, Note_on_c, 3, 53, 0
5, 527820, Note_on_c, 3, 62, 0
5, 529440, Note_on_c, 3, 58, 40
5, 529830, Note_on_c, 3, 58, 0
5, 529920, Note_on_c, 3, 58, 40
5, 529920, Control_c, 3, 11, 80
5, 530040, Control_c, 3, 11, 81
5, 530150, Control_c, 3, 11, 82
5, 530270, Control_c, 3, 11, 83
5, 530380, Control_c, 3, 11, 84
5, 530500, Control_c, 3, 11, 85
5, 530610, Control_c, 3, 11, 86
5, 530720, Control_c, 3, 11, 87
5, 530790, Note_on_c, 3, 58, 0
5, 530840, Control_c, 3, 11, 88
5, 530880, Note_on_c, 3, 56, 40
5, 530880, Note_on_c, 3, 58, 40
5, 530950, Control_c, 3, 11, 89
5, 531070, Control_c, 3, 11, 90
5, 531180, Control_c, 3, 11, 91
5, 531270, Note_on_c, 3, 56, 0
5, 531270, Note_on_c, 3, 58, 0
5, 531300, Control_c, 3, 11, 92
5, 531360, Note_on_c, 3, 55, 40
5, 531360, Note_on_c, 3, 58, 40
5, 531410, Control_c, 3, 11, 93
5, 531520, Control_c, 3, 11, 94
5, 531640, Control_c, 3, 11, 95
5, 531750, Control_c, 3, 11, 96
5, 531870, Control_c, 3, 11, 97
5, 531980, Control_c, 3, 11, 98
5, 532100, Control_c, 3, 11, 99
5, 532210, Control_c, 3, 11, 100
5, 532230, Note_on_c, 3, 55, 0
5, 532230, Note_on_c, 3, 58, 0
5, 532320, Note_on_c, 3, 53, 40
5, 532320, Note_on_c, 3, 58, 40
5, 532710, Note_on_c, 3, 53, 0
5, 532710, Note_on_c, 3, 58, 0
5, 532794, Control_c, 3, 11, 110
5, 532800, Note_on_c, 3, 51, 40
5, 532800, Note_on_c, 3, 63, 40
5, 533040, Control_c, 3, 11, 110
5, 533130, Control_c, 3, 11, 109
5, 533220, Control_c, 3, 11, 108
5, 533300, Control_c, 3, 11, 107
5, 533390, Control_c, 3, 11, 106
5, 533470, Control_c, 3, 11, 105
5, 533560, Control_c, 3, 11, 104
5, 533640, Control_c, 3, 11, 103
5, 533730, Control_c, 3, 11, 102
5, 533810, Control_c, 3, 11, 101
5, 533900, Control_c, 3, 11, 100
5, 533980, Control_c, 3, 11, 99
5, 534070, Control_c, 3, 11, 98
5, 534150, Control_c, 3, 11, 97
5, 534240, Control_c, 3, 11, 96
5, 534320, Control_c, 3, 11, 95
5, 534410, Control_c, 3, 11, 94
5, 534490, Control_c, 3, 11, 93
5, 534580, Control_c, 3, 11, 92
5, 534660, Control_c, 3, 11, 91
5, 534750, Control_c, 3, 11, 90
5, 534830, Control_c, 3, 11, 89
5, 534920, Control_c, 3, 11, 88
5, 535000, Control_c, 3, 11, 87
5, 535090, Control_c, 3, 11, 86
5, 535110, Note_on_c, 3, 51, 0
5, 535110, Note_on_c, 3, 63, 0
5, 535170, Control_c, 3, 11, 85
5, 535200, Note_on_c, 3, 51, 40
5, 535200, Note_on_c, 3, 63, 40
5, 535260, Control_c, 3, 11, 84
5, 535340, Control_c, 3, 11, 83
5, 535430, Control_c, 3, 11, 82
5, 535510, Control_c, 3, 11, 81
5, 535600, Control_c, 3, 11, 80
5, 535680, Note_on_c, 3, 50, 40
5, 535680, Note_on_c, 3, 62, 40
5, 535710, Note_on_c, 3, 51, 0
5, 535710, Note_on_c, 3, 63, 0
5, 536130, Note_on_c, 3, 50, 0
5, 536130, Note_on_c, 3, 62, 0
5, 536640, Note_on_c, 3, 50, 40
5, 536640, Note_on_c, 3, 62, 40
5, 536850, Note_on_c, 3, 50, 0
5, 536850, Note_on_c, 3, 62, 0
5, 537120, Note_on_c, 3, 51, 40
5, 537120, Note_on_c, 3, 63, 40
5, 537990, Note_on_c, 3, 51, 0
5, 537990, Note_on_c, 3, 63, 0
5, 538080, Note_on_c, 3, 51, 40
5, 538080, Note_on_c, 3, 63, 40
5, 538530, Note_on_c, 3, 51, 0
5, 538530, Note_on_c, 3, 63, 0
5, 538560, Note_on_c, 3, 46, 40
5, 538560, Note_on_c, 3, 58, 40
5, 539340, Note_on_c, 3, 46, 0
5, 539340, Note_on_c, 3, 58, 0
5, 540960, Note_on_c, 3, 50, 40
5, 540960, Note_on_c, 3, 58, 40
5, 541200, Note_on_c, 3, 51, 40
5, 541200, Note_on_c, 3, 60, 40
5, 541230, Note_on_c, 3, 50, 0
5, 541230, Note_on_c, 3, 58, 0
5, 541440, Note_on_c, 3, 53, 40
5, 541440, Note_on_c, 3, 62, 40
5, 541470, Note_on_c, 3, 51, 0
5, 541470, Note_on_c, 3, 60, 0
5, 542400, Note_on_c, 3, 50, 40
5, 542400, Note_on_c, 3, 58, 40
5, 542430, Note_on_c, 3, 53, 0
5, 542430, Note_on_c, 3, 62, 0
5, 542880, Note_on_c, 3, 51, 40
5, 542880, Note_on_c, 3, 60, 40
5, 542910, Note_on_c, 3, 50, 0
5, 542910, Note_on_c, 3, 58, 0
5, 543840, Note_on_c, 3, 55, 40
5, 543840, Note_on_c, 3, 63, 40
5, 543870, Note_on_c, 3, 51, 0
5, 543870, Note_on_c, 3, 60, 0
5, 544320, Note_on_c, 3, 51, 40
5, 544320, Note_on_c, 3, 60, 40
5, 544350, Note_on_c, 3, 55, 0
5, 544350, Note_on_c, 3, 63, 0
5, 544920, Note_on_c, 3, 51, 0
5, 544920, Note_on_c, 3, 60, 0
5, 546720, Note_on_c, 3, 51, 40
5, 546720, Note_on_c, 3, 60, 40
5, 546960, Note_on_c, 3, 53, 40
5, 546960, Note_on_c, 3, 62, 40
5, 546990, Note_on_c, 3, 51, 0
5, 546990, Note_on_c, 3, 60, 0
5, 547200, Note_on_c, 3, 55, 40
5, 547200, Note_on_c, 3, 63, 40
5, 547230, Note_on_c, 3, 53, 0
5, 547230, Note_on_c, 3, 62, 0
5, 548160, Note_on_c, 3, 51, 40
5, 548160, Note_on_c, 3, 60, 40
5, 548190, Note_on_c, 3, 55, 0
5, 548190, Note_on_c, 3, 63, 0
5, 548640, Note_on_c, 3, 53, 40
5, 548640, Note_on_c, 3, 62, 40
5, 548670, Note_on_c, 3, 51, 0
5, 548670, Note_on_c, 3, 60, 0
5, 549600, Note_on_c, 3, 56, 40
5, 549600, Note_on_c, 3, 65, 40
5, 549630, Note_on_c, 3, 53, 0
5, 549630, Note_on_c, 3, 62, 0
5, 550080, Note_on_c, 3, 53, 40
5, 550080, Note_on_c, 3, 62, 40
5, 550110, Note_on_c, 3, 56, 0
5, 550110, Note_on_c, 3, 65, 0
5, 550680, Note_on_c, 3, 53, 0
5, 550680, Note_on_c, 3, 62, 0
5, 552480, Note_on_c, 3, 53, 40
5, 552480, Note_on_c, 3, 62, 40
5, 552720, Note_on_c, 3, 55, 40
5, 552720, Note_on_c, 3, 63, 40
5, 552750, Note_on_c, 3, 53, 0
5, 552750, Note_on_c, 3, 62, 0
5, 552960, Note_on_c, 3, 56, 40
5, 552960, Note_on_c, 3, 65, 40
5, 552960, Control_c, 3, 11, 80
5, 552990, Note_on_c, 3, 55, 0
5, 552990, Note_on_c, 3, 63, 0
5, 553230, Control_c, 3, 11, 82
5, 553490, Control_c, 3, 11, 84
5, 553760, Control_c, 3, 11, 86
5, 553830, Note_on_c, 3, 56, 0
5, 553920, Note_on_c, 3, 56, 40
5, 553920, Note_on_c, 3, 58, 40
5, 553950, Note_on_c, 3, 65, 0
5, 554020, Control_c, 3, 11, 88
5, 554280, Control_c, 3, 11, 91
5, 554400, Note_on_c, 3, 55, 40
5, 554400, Note_on_c, 3, 60, 40
5, 554430, Note_on_c, 3, 56, 0
5, 554430, Note_on_c, 3, 58, 0
5, 554550, Control_c, 3, 11, 93
5, 554810, Control_c, 3, 11, 95
5, 555080, Control_c, 3, 11, 97
5, 555340, Control_c, 3, 11, 100
5, 555360, Note_on_c, 3, 53, 40
5, 555360, Note_on_c, 3, 62, 40
5, 555390, Note_on_c, 3, 55, 0
5, 555390, Note_on_c, 3, 60, 0
5, 555834, Control_c, 3, 11, 110
5, 555840, Note_on_c, 3, 51, 40
5, 555840, Note_on_c, 3, 63, 40
5, 555870, Note_on_c, 3, 53, 0
5, 555870, Note_on_c, 3, 62, 0
5, 555980, Control_c, 3, 11, 109
5, 556120, Control_c, 3, 11, 107
5, 556260, Control_c, 3, 11, 106
5, 556390, Control_c, 3, 11, 104
5, 556530, Control_c, 3, 11, 103
5, 556670, Control_c, 3, 11, 101
5, 556800, Control_c, 3, 11, 100
5, 556940, Control_c, 3, 11, 99
5, 557080, Control_c, 3, 11, 97
5, 557220, Control_c, 3, 11, 96
5, 557350, Control_c, 3, 11, 94
5, 557490, Control_c, 3, 11, 93
5, 557630, Control_c, 3, 11, 91
5, 557760, Control_c, 3, 11, 90
5, 557900, Control_c, 3, 11, 88
5, 558040, Control_c, 3, 11, 87
5, 558150, Note_on_c, 3, 51, 0
5, 558150, Note_on_c, 3, 63, 0
5, 558180, Control_c, 3, 11, 85
5, 558240, Note_on_c, 3, 46, 40
5, 558240, Note_on_c, 3, 62, 40
5, 558310, Control_c, 3, 11, 84
5, 558450, Control_c, 3, 11, 82
5, 558590, Control_c, 3, 11, 80
5, 558630, Note_on_c, 3, 46, 0
5, 558630, Note_on_c, 3, 62, 0
5, 558720, Note_on_c, 3, 53, 40
5, 558720, Note_on_c, 3, 60, 40
5, 558990, Note_on_c, 3, 53, 0
5, 558990, Note_on_c, 3, 60, 0
5, 559680, Note_on_c, 3, 53, 40
5, 559680, Note_on_c, 3, 60, 40
5, 559890, Note_on_c, 3, 53, 0
5, 559890, Note_on_c, 3, 60, 0
5, 560160, Note_on_c, 3, 53, 40
5, 560160, Note_on_c, 3, 60, 40
5, 560250, Note_on_c, 3, 62, 40
5, 560255, Note_on_c, 3, 60, 0
5, 560340, Note_on_c, 3, 60, 40
5, 560345, Note_on_c, 3, 62, 0
5, 560430, Note_on_c, 3, 62, 40
5, 560435, Note_on_c, 3, 60, 0
5, 560520, Note_on_c, 3, 60, 40
5, 560525, Note_on_c, 3, 62, 0
5, 560610, Note_on_c, 3, 62, 40
5, 560615, Note_on_c, 3, 60, 0
5, 560705, Note_on_c, 3, 62, 0
5, 560880, Note_on_c, 3, 59, 40
5, 561030, Note_on_c, 3, 53, 0
5, 561090, Note_on_c, 3, 59, 0
5, 561120, Note_on_c, 3, 53, 40
5, 561120, Note_on_c, 3, 60, 40
5, 561570, Note_on_c, 3, 53, 0
5, 561570, Note_on_c, 3, 60, 0
5, 561600, Note_on_c, 3, 53, 40
5, 561600, Note_on_c, 3, 60, 40
5, 562200, Note_on_c, 3, 53, 0
5, 562200, Note_on_c, 3, 60, 0
5, 564000, Note_on_c, 3, 57, 90
5, 564000, Note_on_c, 3, 60, 90
5, 564480, Note_on_c, 3, 63, 90
5, 564510, Note_on_c, 3, 57, 0
5, 564520, Control_c, 3, 11, 80
5, 564550, Control_c, 3, 11, 81
5, 564580, Control_c, 3, 11, 82
5, 564610, Control_c, 3, 11, 82
5, 564640, Control_c, 3, 11, 83
5, 564670, Control_c, 3, 11, 83
5, 564700, Control_c, 3, 11, 84
5, 564730, Control_c, 3, 11, 85
5, 564760, Control_c, 3, 11, 85
5, 564790, Control_c, 3, 11, 86
5, 564820, Control_c, 3, 11, 87
5, 564850, Control_c, 3, 11, 87
5, 564880, Control_c, 3, 11, 88
5, 564910, Control_c, 3, 11, 88
5, 564940, Control_c, 3, 11, 89
5, 564980, Control_c, 3, 11, 90
5, 565010, Control_c, 3, 11, 91
5, 565040, Control_c, 3, 11, 91
5, 565070, Control_c, 3, 11, 92
5, 565100, Control_c, 3, 11, 92
5, 565130, Control_c, 3, 11, 93
5, 565160, Control_c, 3, 11, 94
5, 565190, Control_c, 3, 11, 94
5, 565220, Control_c, 3, 11, 95
5, 565250, Control_c, 3, 11, 96
5, 565280, Control_c, 3, 11, 96
5, 565310, Control_c, 3, 11, 97
5, 565340, Control_c, 3, 11, 97
5, 565370, Control_c, 3, 11, 98
5, 565400, Control_c, 3, 11, 99
5, 565430, Control_c, 3, 11, 99
5, 565440, Note_on_c, 3, 57, 90
5, 565470, Note_on_c, 3, 63, 0
5, 565470, Control_c, 3, 11, 100
5, 565500, Control_c, 3, 11, 101
5, 565530, Control_c, 3, 11, 101
5, 565560, Control_c, 3, 11, 102
5, 565590, Control_c, 3, 11, 103
5, 565620, Control_c, 3, 11, 103
5, 565650, Control_c, 3, 11, 104
5, 565680, Control_c, 3, 11, 105
5, 565710, Control_c, 3, 11, 105
5, 565740, Control_c, 3, 11, 106
5, 565770, Control_c, 3, 11, 106
5, 565800, Control_c, 3, 11, 107
5, 565830, Control_c, 3, 11, 108
5, 565860, Control_c, 3, 11, 108
5, 565890, Control_c, 3, 11, 109
5, 565920, Note_on_c, 3, 59, 90
5, 565920, Note_on_c, 3, 62, 90
5, 565920, Control_c, 3, 11, 110
5, 565950, Note_on_c, 3, 57, 0
5, 565950, Note_on_c, 3, 60, 0
5, 565950, Control_c, 3, 11, 110
5, 565980, Control_c, 3, 11, 109
5, 566010, Control_c, 3, 11, 109
5, 566040, Control_c, 3, 11, 108
5, 566070, Control_c, 3, 11, 107
5, 566100, Control_c, 3, 11, 107
5, 566130, Control_c, 3, 11, 106
5, 566160, Control_c, 3, 11, 105
5, 566190, Control_c, 3, 11, 105
5, 566220, Control_c, 3, 11, 104
5, 566250, Control_c, 3, 11, 103
5, 566280, Control_c, 3, 11, 103
5, 566310, Control_c, 3, 11, 102
5, 566340, Control_c, 3, 11, 101
5, 566370, Control_c, 3, 11, 101
5, 566400, Control_c, 3, 11, 100
5, 566430, Control_c, 3, 11, 100
5, 566460, Control_c, 3, 11, 99
5, 566490, Control_c, 3, 11, 98
5, 566520, Control_c, 3, 11, 98
5, 566550, Control_c, 3, 11, 97
5, 566580, Control_c, 3, 11, 96
5, 566610, Control_c, 3, 11, 96
5, 566640, Control_c, 3, 11, 95
5, 566670, Control_c, 3, 11, 94
5, 566700, Control_c, 3, 11, 94
5, 566730, Control_c, 3, 11, 93
5, 566760, Control_c, 3, 11, 92
5, 566790, Control_c, 3, 11, 92
5, 566820, Control_c, 3, 11, 91
5, 566850, Control_c, 3, 11, 90
5, 566880, Note_on_c, 3, 65, 90
5, 566880, Control_c, 3, 11, 90
5, 566910, Note_on_c, 3, 59, 0
5, 566910, Control_c, 3, 11, 89
5, 566940, Control_c, 3, 11, 89
5, 566970, Control_c, 3, 11, 88
5, 567000, Control_c, 3, 11, 87
5, 567030, Control_c, 3, 11, 87
5, 567060, Control_c, 3, 11, 86
5, 567090, Control_c, 3, 11, 85
5, 567120, Control_c, 3, 11, 85
5, 567150, Control_c, 3, 11, 84
5, 567180, Control_c, 3, 11, 83
5, 567210, Control_c, 3, 11, 83
5, 567240, Control_c, 3, 11, 82
5, 567270, Control_c, 3, 11, 81
5, 567300, Control_c, 3, 11, 81
5, 567330, Control_c, 3, 11, 80
5, 567360, Note_on_c, 3, 60, 90
5, 567360, Note_on_c, 3, 63, 90
5, 567390, Note_on_c, 3, 62, 0
5, 567390, Note_on_c, 3, 65, 0
5, 567960, Note_on_c, 3, 60, 0
5, 567960, Note_on_c, 3, 63, 0
5, 569760, Note_on_c, 3, 57, 90
5, 569760, Note_on_c, 3, 60, 90
5, 570000, Note_on_c, 3, 58, 90
5, 570000, Note_on_c, 3, 62, 90
5, 570030, Note_on_c, 3, 57, 0
5, 570030, Note_on_c, 3, 60, 0
5, 570240, Note_on_c, 3, 60, 90
5, 570240, Note_on_c, 3, 63, 90
5, 570270, Note_on_c, 3, 58, 0
5, 570270, Note_on_c, 3, 62, 0
5, 570280, Control_c, 3, 11, 80
5, 570310, Control_c, 3, 11, 81
5, 570340, Control_c, 3, 11, 82
5, 570370, Control_c, 3, 11, 82
5, 570400, Control_c, 3, 11, 83
5, 570430, Control_c, 3, 11, 83
5, 570460, Control_c, 3, 11, 84
5, 570490, Control_c, 3, 11, 85
5, 570520, Control_c, 3, 11, 85
5, 570550, Control_c, 3, 11, 86
5, 570580, Control_c, 3, 11, 87
5, 570610, Control_c, 3, 11, 87
5, 570640, Control_c, 3, 11, 88
5, 570670, Control_c, 3, 11, 88
5, 570700, Control_c, 3, 11, 89
5, 570740, Control_c, 3, 11, 90
5, 570770, Control_c, 3, 11, 91
5, 570800, Control_c, 3, 11, 91
5, 570830, Control_c, 3, 11, 92
5, 570860, Control_c, 3, 11, 92
5, 570890, Control_c, 3, 11, 93
5, 570920, Control_c, 3, 11, 94
5, 570950, Control_c, 3, 11, 94
5, 570980, Control_c, 3, 11, 95
5, 571010, Control_c, 3, 11, 96
5, 571040, Control_c, 3, 11, 96
5, 571070, Control_c, 3, 11, 97
5, 571100, Control_c, 3, 11, 97
5, 571130, Control_c, 3, 11, 98
5, 571160, Control_c, 3, 11, 99
5, 571190, Control_c, 3, 11, 99
5, 571200, Note_on_c, 3, 57, 90
5, 571230, Note_on_c, 3, 63, 0
5, 571230, Control_c, 3, 11, 100
5, 571260, Control_c, 3, 11, 101
5, 571290, Control_c, 3, 11, 101
5, 571320, Control_c, 3, 11, 102
5, 571350, Control_c, 3, 11, 103
5, 571380, Control_c, 3, 11, 103
5, 571410, Control_c, 3, 11, 104
5, 571440, Control_c, 3, 11, 105
5, 571470, Control_c, 3, 11, 105
5, 571500, Control_c, 3, 11, 106
5, 571530, Control_c, 3, 11, 106
5, 571560, Control_c, 3, 11, 107
5, 571590, Control_c, 3, 11, 108
5, 571620, Control_c, 3, 11, 108
5, 571650, Control_c, 3, 11, 109
5, 571680, Note_on_c, 3, 59, 90
5, 571680, Note_on_c, 3, 62, 90
5, 571680, Control_c, 3, 11, 110
5, 571710, Note_on_c, 3, 57, 0
5, 571710, Note_on_c, 3, 60, 0
5, 571710, Control_c, 3, 11, 110
5, 571740, Control_c, 3, 11, 109
5, 571770, Control_c, 3, 11, 109
5, 571800, Control_c, 3, 11, 108
5, 571830, Control_c, 3, 11, 107
5, 571860, Control_c, 3, 11, 107
5, 571890, Control_c, 3, 11, 106
5, 571920, Control_c, 3, 11, 105
5, 571950, Control_c, 3, 11, 105
5, 571980, Control_c, 3, 11, 104
5, 572010, Control_c, 3, 11, 103
5, 572040, Control_c, 3, 11, 103
5, 572070, Control_c, 3, 11, 102
5, 572100, Control_c, 3, 11, 101
5, 572130, Control_c, 3, 11, 101
5, 572160, Control_c, 3, 11, 100
5, 572190, Control_c, 3, 11, 100
5, 572220, Control_c, 3, 11, 99
5, 572250, Control_c, 3, 11, 98
5, 572280, Control_c, 3, 11, 98
5, 572310, Control_c, 3, 11, 97
5, 572340, Control_c, 3, 11, 96
5, 572370, Control_c, 3, 11, 96
5, 572400, Control_c, 3, 11, 95
5, 572430, Control_c, 3, 11, 94
5, 572460, Control_c, 3, 11, 94
5, 572490, Control_c, 3, 11, 93
5, 572520, Control_c, 3, 11, 92
5, 572550, Control_c, 3, 11, 92
5, 572580, Control_c, 3, 11, 91
5, 572610, Control_c, 3, 11, 90
5, 572640, Note_on_c, 3, 65, 90
5, 572640, Control_c, 3, 11, 90
5, 572670, Note_on_c, 3, 59, 0
5, 572670, Control_c, 3, 11, 89
5, 572700, Control_c, 3, 11, 89
5, 572730, Control_c, 3, 11, 88
5, 572760, Control_c, 3, 11, 87
5, 572790, Control_c, 3, 11, 87
5, 572820, Control_c, 3, 11, 86
5, 572850, Control_c, 3, 11, 85
5, 572880, Control_c, 3, 11, 85
5, 572910, Control_c, 3, 11, 84
5, 572940, Control_c, 3, 11, 83
5, 572970, Control_c, 3, 11, 83
5, 573000, Control_c, 3, 11, 82
5, 573030, Control_c, 3, 11, 81
5, 573060, Control_c, 3, 11, 81
5, 573090, Control_c, 3, 11, 80
5, 573120, Note_on_c, 3, 60, 90
5, 573120, Note_on_c, 3, 63, 90
5, 573150, Note_on_c, 3, 62, 0
5, 573150, Note_on_c, 3, 65, 0
5, 573720, Note_on_c, 3, 60, 0
5, 573720, Note_on_c, 3, 63, 0
5, 575280, Note_on_c, 3, 59, 60
5, 575280, Note_on_c, 3, 62, 60
5, 575520, Note_on_c, 3, 60, 60
5, 575520, Note_on_c, 3, 63, 60
5, 575550, Note_on_c, 3, 59, 0
5, 575550, Note_on_c, 3, 62, 0
5, 575760, Note_on_c, 3, 59, 60
5, 575760, Note_on_c, 3, 62, 60
5, 575790, Note_on_c, 3, 60, 0
5, 575790, Note_on_c, 3, 63, 0
5, 576000, Note_on_c, 3, 60, 60
5, 576000, Note_on_c, 3, 63, 60
5, 576030, Note_on_c, 3, 59, 0
5, 576030, Note_on_c, 3, 62, 0
5, 576210, Note_on_c, 3, 60, 0
5, 576210, Note_on_c, 3, 63, 0
5, 576720, Note_on_c, 3, 59, 60
5, 576720, Note_on_c, 3, 62, 60
5, 576960, Note_on_c, 3, 60, 60
5, 576960, Note_on_c, 3, 63, 60
5, 576990, Note_on_c, 3, 59, 0
5, 576990, Note_on_c, 3, 62, 0
5, 577200, Note_on_c, 3, 59, 60
5, 577200, Note_on_c, 3, 62, 60
5, 577230, Note_on_c, 3, 60, 0
5, 577230, Note_on_c, 3, 63, 0
5, 577440, Note_on_c, 3, 60, 60
5, 577440, Note_on_c, 3, 63, 60
5, 577470, Note_on_c, 3, 59, 0
5, 577470, Note_on_c, 3, 62, 0
5, 577650, Note_on_c, 3, 60, 0
5, 577650, Note_on_c, 3, 63, 0
5, 578160, Note_on_c, 3, 59, 60
5, 578160, Note_on_c, 3, 62, 60
5, 578400, Note_on_c, 3, 60, 60
5, 578400, Note_on_c, 3, 63, 60
5, 578430, Note_on_c, 3, 59, 0
5, 578430, Note_on_c, 3, 62, 0
5, 578640, Note_on_c, 3, 59, 60
5, 578640, Note_on_c, 3, 62, 60
5, 578670, Note_on_c, 3, 60, 0
5, 578670, Note_on_c, 3, 63, 0
5, 578880, Note_on_c, 3, 60, 60
5, 578880, Note_on_c, 3, 63, 60
5, 578910, Note_on_c, 3, 59, 0
5, 578910, Note_on_c, 3, 62, 0
5, 579090, Note_on_c, 3, 60, 0
5, 579090, Note_on_c, 3, 63, 0
5, 589920, Note_on_c, 3, 50, 60
5, 589920, Note_on_c, 3, 58, 60
5, 590400, Note_on_c, 3, 53, 60
5, 590400, Note_on_c, 3, 62, 60
5, 590430, Note_on_c, 3, 50, 0
5, 590430, Note_on_c, 3, 58, 0
5, 591360, Note_on_c, 3, 50, 62
5, 591360, Note_on_c, 3, 58, 62
5, 591390, Note_on_c, 3, 53, 0
5, 591390, Note_on_c, 3, 62, 0
5, 591840, Note_on_c, 3, 51, 63
5, 591840, Note_on_c, 3, 60, 63
5, 591870, Note_on_c, 3, 50, 0
5, 591870, Note_on_c, 3, 58, 0
5, 592800, Note_on_c, 3, 55, 65
5, 592800, Note_on_c, 3, 63, 65
5, 592830, Note_on_c, 3, 51, 0
5, 592830, Note_on_c, 3, 60, 0
5, 593280, Note_on_c, 3, 51, 66
5, 593280, Note_on_c, 3, 60, 66
5, 593310, Note_on_c, 3, 55, 0
5, 593310, Note_on_c, 3, 63, 0
5, 594060, Note_on_c, 3, 51, 0
5, 594060, Note_on_c, 3, 60, 0
5, 595680, Note_on_c, 3, 51, 71
5, 595680, Note_on_c, 3, 60, 71
5, 596160, Note_on_c, 3, 55, 72
5, 596160, Note_on_c, 3, 63, 72
5, 596190, Note_on_c, 3, 51, 0
5, 596190, Note_on_c, 3, 60, 0
5, 597120, Note_on_c, 3, 51, 74
5, 597120, Note_on_c, 3, 60, 74
5, 597150, Note_on_c, 3, 55, 0
5, 597150, Note_on_c, 3, 63, 0
5, 597600, Note_on_c, 3, 53, 75
5, 597600, Note_on_c, 3, 62, 75
5, 597630, Note_on_c, 3, 51, 0
5, 597630, Note_on_c, 3, 60, 0
5, 598560, Note_on_c, 3, 56, 78
5, 598560, Note_on_c, 3, 65, 78
5, 598590, Note_on_c, 3, 53, 0
5, 598590, Note_on_c, 3, 62, 0
5, 599040, Note_on_c, 3, 53, 79
5, 599040, Note_on_c, 3, 62, 79
5, 599070, Note_on_c, 3, 56, 0
5, 599070, Note_on_c, 3, 65, 0
5, 599820, Note_on_c, 3, 53, 0
5, 599820, Note_on_c, 3, 62, 0
5, 601440, Note_on_c, 3, 58, 84
5, 601440, Note_on_c, 3, 62, 84
5, 601920, Note_on_c, 3, 65, 85
5, 601950, Note_on_c, 3, 58, 0
5, 602880, Note_on_c, 3, 58, 87
5, 602910, Note_on_c, 3, 65, 0
5, 603360, Note_on_c, 3, 60, 88
5, 603360, Note_on_c, 3, 63, 88
5, 603390, Note_on_c, 3, 58, 0
5, 603390, Note_on_c, 3, 62, 0
5, 604320, Note_on_c, 3, 62, 90
5, 604320, Note_on_c, 3, 65, 90
5, 604350, Note_on_c, 3, 60, 0
5, 604350, Note_on_c, 3, 63, 0
5, 604710, Note_on_c, 3, 62, 0
5, 604710, Note_on_c, 3, 65, 0
5, 604800, Note_on_c, 3, 63, 91
5, 604800, Note_on_c, 3, 67, 91
5, 607110, Note_on_c, 3, 63, 0
5, 607110, Note_on_c, 3, 67, 0
5, 607200, Note_on_c, 3, 62, 97
5, 607200, Note_on_c, 3, 65, 97
5, 607590, Note_on_c, 3, 62, 0
5, 607590, Note_on_c, 3, 65, 0
5, 607680, Note_on_c, 3, 60, 98
5, 607680, Note_on_c, 3, 63, 98
5, 608430, Note_on_c, 3, 60, 0
5, 608430, Note_on_c, 3, 63, 0
5, 608640, Note_on_c, 3, 60, 100
5, 608640, Note_on_c, 3, 63, 100
5, 608850, Note_on_c, 3, 60, 0
5, 608850, Note_on_c, 3, 63, 0
5, 609120, Note_on_c, 3, 60, 101
5, 609120, Note_on_c, 3, 63, 101
5, 609210, Note_on_c, 3, 62, 101
5, 609210, Note_on_c, 3, 65, 101
5, 609215, Note_on_c, 3, 60, 0
5, 609215, Note_on_c, 3, 63, 0
5, 609300, Note_on_c, 3, 60, 101
5, 609300, Note_on_c, 3, 63, 101
5, 609305, Note_on_c, 3, 62, 0
5, 609305, Note_on_c, 3, 65, 0
5, 609390, Note_on_c, 3, 62, 102
5, 609390, Note_on_c, 3, 65, 102
5, 609395, Note_on_c, 3, 60, 0
5, 609395, Note_on_c, 3, 63, 0
5, 609480, Note_on_c, 3, 60, 102
5, 609480, Note_on_c, 3, 63, 102
5, 609485, Note_on_c, 3, 62, 0
5, 609485, Note_on_c, 3, 65, 0
5, 609570, Note_on_c, 3, 62, 102
5, 609570, Note_on_c, 3, 65, 102
5, 609575, Note_on_c, 3, 60, 0
5, 609575, Note_on_c, 3, 63, 0
5, 609665, Note_on_c, 3, 62, 0
5, 609665, Note_on_c, 3, 65, 0
5, 609840, Note_on_c, 3, 59, 103
5, 609840, Note_on_c, 3, 62, 103
5, 610050, Note_on_c, 3, 59, 0
5, 610050, Note_on_c, 3, 62, 0
5, 610080, Note_on_c, 3, 60, 103
5, 610080, Note_on_c, 3, 63, 103
5, 610530, Note_on_c, 3, 60, 0
5, 610530, Note_on_c, 3, 63, 0
5, 610560, Note_on_c, 3, 58, 104
5, 610560, Note_on_c, 3, 62, 104
5, 611160, Note_on_c, 3, 58, 0
5, 611160, Note_on_c, 3, 62, 0
5, 612960, Note_on_c, 3, 58, 110
5, 612960, Note_on_c, 3, 62, 110
5, 613200, Note_on_c, 3, 60, 110
5, 613200, Note_on_c, 3, 63, 110
5, 613230, Note_on_c, 3, 58, 0
5, 613230, Note_on_c, 3, 62, 0
5, 613440, Note_on_c, 3, 62, 110
5, 613440, Note_on_c, 3, 65, 110
5, 613470, Note_on_c, 3, 60, 0
5, 613470, Note_on_c, 3, 63, 0
5, 614400, Note_on_c, 3, 58, 110
5, 614430, Note_on_c, 3, 65, 0
5, 614880, Note_on_c, 3, 60, 110
5, 614880, Note_on_c, 3, 63, 110
5, 614910, Note_on_c, 3, 58, 0
5, 614910, Note_on_c, 3, 62, 0
5, 615840, Note_on_c, 3, 62, 110
5, 615840, Note_on_c, 3, 65, 110
5, 615870, Note_on_c, 3, 60, 0
5, 615870, Note_on_c, 3, 63, 0
5, 616230, Note_on_c, 3, 62, 0
5, 616230, Note_on_c, 3, 65, 0
5, 616320, Note_on_c, 3, 63, 110
5, 616320, Note_on_c, 3, 67, 110
5, 616320, Control_c, 3, 11, 80
5, 616380, Control_c, 3, 11, 87
5, 616440, Control_c, 3, 11, 95
5, 616500, Control_c, 3, 11, 102
5, 616620, Control_c, 3, 11, 110
5, 616680, Control_c, 3, 11, 107
5, 616740, Control_c, 3, 11, 106
5, 616800, Control_c, 3, 11, 104
5, 616860, Control_c, 3, 11, 103
5, 616920, Control_c, 3, 11, 101
5, 616980, Control_c, 3, 11, 100
5, 617040, Control_c, 3, 11, 98
5, 617100, Control_c, 3, 11, 97
5, 617160, Control_c, 3, 11, 95
5, 617220, Control_c, 3, 11, 93
5, 617280, Control_c, 3, 11, 92
5, 617340, Control_c, 3, 11, 90
5, 617400, Control_c, 3, 11, 89
5, 617460, Control_c, 3, 11, 87
5, 617520, Control_c, 3, 11, 86
5, 617580, Control_c, 3, 11, 84
5, 617640, Control_c, 3, 11, 82
5, 617700, Control_c, 3, 11, 80
5, 618630, Note_on_c, 3, 63, 0
5, 618630, Note_on_c, 3, 67, 0
5, 618720, Note_on_c, 3, 62, 110
5, 618720, Note_on_c, 3, 65, 110
5, 619200, Note_on_c, 3, 60, 110
5, 619200, Note_on_c, 3, 63, 110
5, 619230, Note_on_c, 3, 62, 0
5, 619230, Note_on_c, 3, 65, 0
5, 619650, Note_on_c, 3, 60, 0
5, 619650, Note_on_c, 3, 63, 0
5, 620160, Note_on_c, 3, 60, 110
5, 620160, Note_on_c, 3, 63, 110
5, 620550, Note_on_c, 3, 60, 0
5, 620550, Note_on_c, 3, 63, 0
5, 620640, Note_on_c, 3, 60, 110
5, 620640, Note_on_c, 3, 63, 110
5, 620730, Note_on_c, 3, 62, 110
5, 620730, Note_on_c, 3, 65, 110
5, 620735, Note_on_c, 3, 60, 0
5, 620735, Note_on_c, 3, 63, 0
5, 620820, Note_on_c, 3, 60, 110
5, 620820, Note_on_c, 3, 63, 110
5, 620825, Note_on_c, 3, 62, 0
5, 620825, Note_on_c, 3, 65, 0
5, 620910, Note_on_c, 3, 62, 110
5, 620910, Note_on_c, 3, 65, 110
5, 620915, Note_on_c, 3, 60, 0
5, 620915, Note_on_c, 3, 63, 0
5, 621000, Note_on_c, 3, 60, 110
5, 621000, Note_on_c, 3, 63, 110
5, 621005, Note_on_c, 3, 62, 0
5, 621005, Note_on_c, 3, 65, 0
5, 621090, Note_on_c, 3, 62, 110
5, 621090, Note_on_c, 3, 65, 110
5, 621095, Note_on_c, 3, 60, 0
5, 621095, Note_on_c, 3, 63, 0
5, 621185, Note_on_c, 3, 62, 0
5, 621185, Note_on_c, 3, 65, 0
5, 621360, Note_on_c, 3, 59, 110
5, 621360, Note_on_c, 3, 62, 110
5, 621570, Note_on_c, 3, 59, 0
5, 621570, Note_on_c, 3, 62, 0
5, 621600, Note_on_c, 3, 60, 110
5, 621600, Note_on_c, 3, 63, 110
5, 622050, Note_on_c, 3, 60, 0
5, 622050, Note_on_c, 3, 63, 0
5, 622080, Note_on_c, 3, 58, 110
5, 622080, Note_on_c, 3, 62, 110
5, 622680, Note_on_c, 3, 58, 0
5, 622680, Note_on_c, 3, 62, 0
5, 624480, Note_on_c, 3, 62, 110
5, 624480, Note_on_c, 3, 65, 110
5, 624960, Note_on_c, 3, 60, 110
5, 624960, Note_on_c, 3, 63, 110
5, 624990, Note_on_c, 3, 62, 0
5, 624990, Note_on_c, 3, 65, 0
5, 625410, Note_on_c, 3, 60, 0
5, 625410, Note_on_c, 3, 63, 0
5, 627360, Note_on_c, 3, 57, 110
5, 627360, Note_on_c, 3, 65, 110
5, 627840, Note_on_c, 3, 58, 110
5, 627840, Note_on_c, 3, 62, 110
5, 627870, Note_on_c, 3, 57, 0
5, 627870, Note_on_c, 3, 65, 0
5, 628290, Note_on_c, 3, 58, 0
5, 628290, Note_on_c, 3, 62, 0
5, 630240, Note_on_c, 3, 62, 85
5, 630240, Note_on_c, 3, 65, 85
5, 630720, Note_on_c, 3, 60, 80
5, 630720, Note_on_c, 3, 63, 80
5, 630750, Note_on_c, 3, 62, 0
5, 630750, Note_on_c, 3, 65, 0
5, 631170, Note_on_c, 3, 60, 0
5, 631170, Note_on_c, 3, 63, 0
5, 633120, Note_on_c, 3, 57, 55
5, 633120, Note_on_c, 3, 65, 55
5, 633600, Note_on_c, 3, 58, 50
5, 633600, Note_on_c, 3, 62, 50
5, 633630, Note_on_c, 3, 57, 0
5, 633630, Note_on_c, 3, 65, 0
5, 634050, Note_on_c, 3, 58, 0
5, 634050, Note_on_c, 3, 62, 0
5, 635040, Note_on_c, 3, 58, 50
5, 635040, Note_on_c, 3, 62, 50
5, 635490, Note_on_c, 3, 58, 0
5, 635490, Note_on_c, 3, 62, 0
5, 636480, Note_on_c, 3, 58, 50
5, 636480, Note_on_c, 3, 62, 50
5, 636930, Note_on_c, 3, 58, 0
5, 636930, Note_on_c, 3, 62, 0
5, 637920, Note_on_c, 3, 58, 50
5, 637920, Note_on_c, 3, 62, 50
5, 638370, Note_on_c, 3, 58, 0
5, 638370, Note_on_c, 3, 62, 0
5, 639360, Note_on_c, 3, 58, 50
5, 639360, Note_on_c, 3, 62, 50
5, 639810, Note_on_c, 3, 58, 0
5, 639810, Note_on_c, 3, 62, 0
5, 644640, Note_on_c, 3, 41, 90
5, 644640, Note_on_c, 3, 53, 90
5, 644850, Note_on_c, 3, 53, 0
5, 645120, Note_on_c, 3, 46, 100
5, 645120, Note_on_c, 3, 58, 100
5, 645150, Note_on_c, 3, 41, 0
5, 645330, Note_on_c, 3, 46, 0
5, 645330, Note_on_c, 3, 58, 0
5, 645600, Note_on_c, 3, 46, 100
5, 645600, Note_on_c, 3, 53, 100
5, 646080, Note_on_c, 3, 62, 100
5, 646110, Note_on_c, 3, 53, 0
5, 646290, Note_on_c, 3, 46, 0
5, 646290, Note_on_c, 3, 62, 0
5, 646560, Note_on_c, 3, 46, 100
5, 646560, Note_on_c, 3, 58, 100
5, 647040, Note_on_c, 3, 65, 100
5, 647070, Note_on_c, 3, 58, 0
5, 647250, Note_on_c, 3, 46, 0
5, 647250, Note_on_c, 3, 65, 0
5, 647520, Note_on_c, 3, 46, 100
5, 647520, Note_on_c, 3, 62, 100
5, 647670, Note_on_c, 3, 46, 0
5, 647670, Note_on_c, 3, 62, 0
5, 648000, Note_on_c, 3, 41, 100
5, 648000, Note_on_c, 3, 65, 100
5, 648480, Note_on_c, 3, 45, 100
5, 648480, Note_on_c, 3, 63, 100
5, 648510, Note_on_c, 3, 41, 0
5, 648510, Note_on_c, 3, 65, 0
5, 648690, Note_on_c, 3, 45, 0
5, 648690, Note_on_c, 3, 63, 0
5, 648960, Note_on_c, 3, 48, 100
5, 648960, Note_on_c, 3, 60, 100
5, 649110, Note_on_c, 3, 48, 0
5, 649110, Note_on_c, 3, 60, 0
5, 649440, Note_on_c, 3, 53, 100
5, 649440, Note_on_c, 3, 57, 100
5, 650040, Note_on_c, 3, 53, 0
5, 650040, Note_on_c, 3, 57, 0
5, 650400, Note_on_c, 3, 53, 60
5, 650880, Note_on_c, 3, 54, 60
5, 650910, Note_on_c, 3, 53, 0
5, 651360, Note_on_c, 3, 57, 60
5, 651390, Note_on_c, 3, 54, 0
5, 651840, Note_on_c, 3, 60, 60
5, 651870, Note_on_c, 3, 57, 0
5, 652320, Note_on_c, 3, 63, 60
5, 652350, Note_on_c, 3, 60, 0
5, 652800, Note_on_c, 3, 65, 60
5, 652830, Note_on_c, 3, 63, 0
5, 653250, Note_on_c, 3, 65, 0
5, 656160, Note_on_c, 3, 55, 60
5, 656640, Note_on_c, 3, 56, 60
5, 656670, Note_on_c, 3, 55, 0
5, 657120, Note_on_c, 3, 59, 60
5, 657150, Note_on_c, 3, 56, 0
5, 657600, Note_on_c, 3, 62, 60
5, 657630, Note_on_c, 3, 59, 0
5, 658080, Note_on_c, 3, 65, 60
5, 658110, Note_on_c, 3, 62, 0
5, 658560, Note_on_c, 3, 67, 60
5, 658590, Note_on_c, 3, 65, 0
5, 659010, Note_on_c, 3, 67, 0
5, 661920, Note_on_c, 3, 61, 60
5, 662400, Note_on_c, 3, 58, 60
5, 662430, Note_on_c, 3, 61, 0
5, 662880, Note_on_c, 3, 55, 60
5, 662910, Note_on_c, 3, 58, 0
5, 663360, Note_on_c, 3, 52, 60
5, 663390, Note_on_c, 3, 55, 0
5, 663840, Note_on_c, 3, 49, 60
5, 663870, Note_on_c, 3, 52, 0
5, 664320, Note_on_c, 3, 48, 60
5, 664350, Note_on_c, 3, 49, 0
5, 664710, Note_on_c, 3, 48, 0
5, 664800, Note_on_c, 3, 52, 60
5, 665280, Note_on_c, 3, 53, 60
5, 665310, Note_on_c, 3, 52, 0
5, 665760, Note_on_c, 3, 57, 60
5, 665790, Note_on_c, 3, 53, 0
5, 666240, Note_on_c, 3, 60, 60
5, 666270, Note_on_c, 3, 57, 0
5, 666720, Note_on_c, 3, 63, 60
5, 666750, Note_on_c, 3, 60, 0
5, 667200, Note_on_c, 3, 65, 66
5, 667230, Note_on_c, 3, 63, 0
5, 667680, Note_on_c, 3, 66, 72
5, 667710, Note_on_c, 3, 65, 0
5, 668160, Note_on_c, 3, 65, 78
5, 668190, Note_on_c, 3, 66, 0
5, 668640, Note_on_c, 3, 63, 85
5, 668670, Note_on_c, 3, 65, 0
5, 669120, Note_on_c, 3, 60, 91
5, 669150, Note_on_c, 3, 63, 0
5, 669600, Note_on_c, 3, 57, 97
5, 669630, Note_on_c, 3, 60, 0
5, 670080, Note_on_c, 3, 53, 103
5, 670110, Note_on_c, 3, 57, 0
5, 670290, Note_on_c, 3, 53, 0
5, 670560, Note_on_c, 3, 54, 110
5, 671040, Note_on_c, 3, 53, 60
5, 671070, Note_on_c, 3, 54, 0
5, 671520, Note_on_c, 3, 57, 60
5, 671550, Note_on_c, 3, 53, 0
5, 672000, Note_on_c, 3, 60, 60
5, 672030, Note_on_c, 3, 57, 0
5, 672480, Note_on_c, 3, 63, 60
5, 672510, Note_on_c, 3, 60, 0
5, 672960, Note_on_c, 3, 65, 66
5, 672990, Note_on_c, 3, 63, 0
5, 673440, Note_on_c, 3, 66, 72
5, 673470, Note_on_c, 3, 65, 0
5, 673920, Note_on_c, 3, 65, 78
5, 673950, Note_on_c, 3, 66, 0
5, 674400, Note_on_c, 3, 63, 85
5, 674430, Note_on_c, 3, 65, 0
5, 674880, Note_on_c, 3, 60, 91
5, 674910, Note_on_c, 3, 63, 0
5, 675360, Note_on_c, 3, 57, 97
5, 675390, Note_on_c, 3, 60, 0
5, 675840, Note_on_c, 3, 53, 103
5, 675870, Note_on_c, 3, 57, 0
5, 676050, Note_on_c, 3, 53, 0
5, 676320, Note_on_c, 3, 54, 110
5, 676800, Note_on_c, 3, 53, 100
5, 676830, Note_on_c, 3, 54, 0
5, 677010, Note_on_c, 3, 53, 0
5, 677280, Note_on_c, 3, 53, 110
5, 677280, Note_on_c, 3, 60, 110
5, 678150, Note_on_c, 3, 53, 0
5, 678150, Note_on_c, 3, 60, 0
5, 678240, Note_on_c, 3, 55, 110
5, 678240, Note_on_c, 3, 58, 110
5, 679110, Note_on_c, 3, 55, 0
5, 679110, Note_on_c, 3, 58, 0
5, 679200, Note_on_c, 3, 51, 110
5, 679200, Note_on_c, 3, 63, 110
5, 679410, Note_on_c, 3, 51, 0
5, 679410, Note_on_c, 3, 63, 0
5, 679680, Note_on_c, 3, 53, 110
5, 679680, Note_on_c, 3, 65, 110
5, 681030, Note_on_c, 3, 53, 0
5, 681030, Note_on_c, 3, 65, 0
5, 681120, Note_on_c, 3, 41, 110
5, 681120, Note_on_c, 3, 53, 110
5, 682470, Note_on_c, 3, 41, 0
5, 682470, Note_on_c, 3, 53, 0
5, 682560, Note_on_c, 3, 46, 110
5, 682560, Note_on_c, 3, 58, 110
5, 683010, Note_on_c, 3, 46, 0
5, 683010, Note_on_c, 3, 58, 0
5, 685440, Note_on_c, 3, 57, 110
5, 685920, Note_on_c, 3, 53, 110
5, 685950, Note_on_c, 3, 57, 0
5, 686130, Note_on_c, 3, 53, 0
5, 686400, Note_on_c, 3, 60, 110
5, 686880, Note_on_c, 3, 57, 110
5, 686910, Note_on_c, 3, 60, 0
5, 687090, Note_on_c, 3, 57, 0
5, 687360, Note_on_c, 3, 63, 110
5, 687840, Note_on_c, 3, 60, 110
5, 687870, Note_on_c, 3, 63, 0
5, 688050, Note_on_c, 3, 60, 0
5, 688320, Note_on_c, 3, 58, 110
5, 688770, Note_on_c, 3, 58, 0
5, 691200, Note_on_c, 3, 57, 110
5, 691680, Note_on_c, 3, 53, 110
5, 691710, Note_on_c, 3, 57, 0
5, 691890, Note_on_c, 3, 53, 0
5, 692160, Note_on_c, 3, 60, 110
5, 692640, Note_on_c, 3, 57, 110
5, 692670, Note_on_c, 3, 60, 0
5, 692850, Note_on_c, 3, 57, 0
5, 693120, Note_on_c, 3, 63, 110
5, 693600, Note_on_c, 3, 60, 110
5, 693630, Note_on_c, 3, 63, 0
5, 693810, Note_on_c, 3, 60, 0
5, 694080, Note_on_c, 3, 46, 110
5, 694080, Note_on_c, 3, 58, 110
5, 695130, Note_on_c, 3, 46, 0
5, 695130, Note_on_c, 3, 58, 0
5, 695520, Note_on_c, 3, 58, 110
5, 695520, Note_on_c, 3, 62, 110
5, 696570, Note_on_c, 3, 58, 0
5, 696570, Note_on_c, 3, 62, 0
5, 696960, Note_on_c, 3, 58, 110
5, 696960, Note_on_c, 3, 62, 110
5, 697170, Note_on_c, 3, 58, 0
5, 697170, Note_on_c, 3, 62, 0
5, 697440, Note_on_c, 3, 58, 110
5, 697440, Note_on_c, 3, 62, 110
5, 697650, Note_on_c, 3, 58, 0
5, 697650, Note_on_c, 3, 62, 0
5, 697920, Note_on_c, 3, 58, 110
5, 697920, Note_on_c, 3, 62, 110
5, 698100, Note_on_c, 3, 58, 0
5, 698100, Note_on_c, 3, 62, 0
5, 698400, Note_on_c, 3, 58, 110
5, 698400, Note_on_c, 3, 62, 110
5, 699000, Note_on_c, 3, 58, 0
5, 699000, Note_on_c, 3, 62, 0
5, 702720, Note_on_c, 3, 46, 127
5, 702720, Note_on_c, 3, 58, 110
5, 703170, Note_on_c, 3, 46, 0
5, 703170, Note_on_c, 3, 58, 0
5, 703170, End_track
6, 0, Start_track
6, 0, Channel_prefix, 4
6, 0, Title_t, "Horn in Bb"
6, 0, Instrument_name_t, "Corni in B"
6, 2400, Note_on_c, 4, 53, 70
6, 2880, Note_on_c, 4, 50, 70
6, 2880, Note_on_c, 4, 58, 70
6, 2910, Note_on_c, 4, 53, 0
6, 3090, Note_on_c, 4, 50, 0
6, 3090, Note_on_c, 4, 58, 0
6, 3360, Note_on_c, 4, 50, 70
6, 3360, Note_on_c, 4, 58, 70
6, 4050, Note_on_c, 4, 50, 0
6, 4050, Note_on_c, 4, 58, 0
6, 4320, Note_on_c, 4, 50, 70
6, 4320, Note_on_c, 4, 58, 70
6, 4950, Note_on_c, 4, 50, 0
6, 4950, Note_on_c, 4, 58, 0
6, 5280, Note_on_c, 4, 50, 70
6, 5280, Note_on_c, 4, 58, 70
6, 5430, Note_on_c, 4, 50, 0
6, 5430, Note_on_c, 4, 58, 0
6, 5760, Note_on_c, 4, 53, 70
6, 5760, Note_on_c, 4, 60, 70
6, 6450, Note_on_c, 4, 53, 0
6, 6450, Note_on_c, 4, 60, 0
6, 6720, Note_on_c, 4, 53, 70
6, 6720, Note_on_c, 4, 60, 70
6, 6870, Note_on_c, 4, 53, 0
6, 6870, Note_on_c, 4, 60, 0
6, 7200, Note_on_c, 4, 53, 70
6, 7200, Note_on_c, 4, 60, 70
6, 7800, Note_on_c, 4, 53, 0
6, 7800, Note_on_c, 4, 60, 0
6, 25440, Note_on_c, 4, 60, 55
6, 25590, Note_on_c, 4, 60, 0
6, 25920, Note_on_c, 4, 53, 70
6, 25920, Note_on_c, 4, 60, 70
6, 27090, Note_on_c, 4, 53, 0
6, 27090, Note_on_c, 4, 60, 0
6, 27360, Note_on_c, 4, 53, 70
6, 27360, Note_on_c, 4, 60, 70
6, 28530, Note_on_c, 4, 53, 0
6, 28530, Note_on_c, 4, 60, 0
6, 28800, Note_on_c, 4, 53, 70
6, 28800, Note_on_c, 4, 60, 70
6, 29010, Note_on_c, 4, 53, 0
6, 29010, Note_on_c, 4, 60, 0
6, 29280, Note_on_c, 4, 53, 70
6, 29280, Note_on_c, 4, 60, 70
6, 29490, Note_on_c, 4, 53, 0
6, 29490, Note_on_c, 4, 60, 0
6, 29760, Note_on_c, 4, 53, 70
6, 29760, Note_on_c, 4, 60, 70
6, 29940, Note_on_c, 4, 53, 0
6, 29940, Note_on_c, 4, 60, 0
6, 30240, Note_on_c, 4, 53, 70
6, 30240, Note_on_c, 4, 60, 70
6, 30600, Note_on_c, 4, 53, 0
6, 30600, Note_on_c, 4, 60, 0
6, 31200, Note_on_c, 4, 53, 70
6, 31680, Note_on_c, 4, 50, 70
6, 31680, Note_on_c, 4, 58, 70
6, 31710, Note_on_c, 4, 53, 0
6, 31890, Note_on_c, 4, 50, 0
6, 31890, Note_on_c, 4, 58, 0
6, 32160, Note_on_c, 4, 50, 70
6, 32160, Note_on_c, 4, 58, 70
6, 32850, Note_on_c, 4, 50, 0
6, 32850, Note_on_c, 4, 58, 0
6, 33120, Note_on_c, 4, 50, 70
6, 33120, Note_on_c, 4, 58, 70
6, 33750, Note_on_c, 4, 50, 0
6, 33750, Note_on_c, 4, 58, 0
6, 34080, Note_on_c, 4, 50, 70
6, 34080, Note_on_c, 4, 58, 70
6, 34230, Note_on_c, 4, 50, 0
6, 34230, Note_on_c, 4, 58, 0
6, 34560, Note_on_c, 4, 53, 70
6, 34560, Note_on_c, 4, 60, 70
6, 35250, Note_on_c, 4, 53, 0
6, 35250, Note_on_c, 4, 60, 0
6, 35520, Note_on_c, 4, 53, 70
6, 35520, Note_on_c, 4, 60, 70
6, 35670, Note_on_c, 4, 53, 0
6, 35670, Note_on_c, 4, 60, 0
6, 36000, Note_on_c, 4, 53, 70
6, 36000, Note_on_c, 4, 60, 70
6, 36600, Note_on_c, 4, 53, 0
6, 36600, Note_on_c, 4, 60, 0
6, 54240, Note_on_c, 4, 60, 55
6, 54390, Note_on_c, 4, 60, 0
6, 54720, Note_on_c, 4, 53, 70
6, 54720, Note_on_c, 4, 60, 70
6, 55890, Note_on_c, 4, 53, 0
6, 55890, Note_on_c, 4, 60, 0
6, 56160, Note_on_c, 4, 53, 70
6, 56160, Note_on_c, 4, 60, 70
6, 57330, Note_on_c, 4, 53, 0
6, 57330, Note_on_c, 4, 60, 0
6, 57600, Note_on_c, 4, 53, 70
6, 57600, Note_on_c, 4, 60, 70
6, 57810, Note_on_c, 4, 53, 0
6, 57810, Note_on_c, 4, 60, 0
6, 58080, Note_on_c, 4, 53, 70
6, 58080, Note_on_c, 4, 60, 70
6, 58290, Note_on_c, 4, 53, 0
6, 58290, Note_on_c, 4, 60, 0
6, 58560, Note_on_c, 4, 53, 70
6, 58560, Note_on_c, 4, 60, 70
6, 58740, Note_on_c, 4, 53, 0
6, 58740, Note_on_c, 4, 60, 0
6, 59040, Note_on_c, 4, 53, 70
6, 59040, Note_on_c, 4, 60, 70
6, 59400, Note_on_c, 4, 53, 0
6, 59400, Note_on_c, 4, 60, 0
6, 106080, Note_on_c, 4, 53, 60
6, 106080, Note_on_c, 4, 60, 60
6, 106560, Note_on_c, 4, 50, 70
6, 106560, Note_on_c, 4, 58, 70
6, 106590, Note_on_c, 4, 53, 0
6, 106590, Note_on_c, 4, 60, 0
6, 106770, Note_on_c, 4, 50, 0
6, 106770, Note_on_c, 4, 58, 0
6, 107040, Note_on_c, 4, 50, 70
6, 107040, Note_on_c, 4, 58, 70
6, 107730, Note_on_c, 4, 50, 0
6, 107730, Note_on_c, 4, 58, 0
6, 108000, Note_on_c, 4, 50, 70
6, 108000, Note_on_c, 4, 58, 70
6, 108690, Note_on_c, 4, 50, 0
6, 108690, Note_on_c, 4, 58, 0
6, 108960, Note_on_c, 4, 50, 70
6, 108960, Note_on_c, 4, 58, 70
6, 109170, Note_on_c, 4, 50, 0
6, 109170, Note_on_c, 4, 58, 0
6, 109440, Note_on_c, 4, 53, 70
6, 109440, Note_on_c, 4, 60, 70
6, 110130, Note_on_c, 4, 53, 0
6, 110130, Note_on_c, 4, 60, 0
6, 110400, Note_on_c, 4, 53, 70
6, 110400, Note_on_c, 4, 60, 70
6, 110550, Note_on_c, 4, 53, 0
6, 110550, Note_on_c, 4, 60, 0
6, 110880, Note_on_c, 4, 53, 70
6, 110880, Note_on_c, 4, 60, 70
6, 111480, Note_on_c, 4, 53, 0
6, 111480, Note_on_c, 4, 60, 0
6, 126720, Note_on_c, 4, 41, 40
6, 131910, Note_on_c, 4, 41, 0
6, 132000, Note_on_c, 4, 41, 70
6, 132210, Note_on_c, 4, 41, 0
6, 132480, Note_on_c, 4, 41, 40
6, 137670, Note_on_c, 4, 41, 0
6, 137760, Note_on_c, 4, 41, 70
6, 137970, Note_on_c, 4, 41, 0
6, 138240, Note_on_c, 4, 41, 60
6, 138450, Note_on_c, 4, 41, 0
6, 138720, Note_on_c, 4, 53, 70
6, 138720, Note_on_c, 4, 65, 70
6, 139590, Note_on_c, 4, 53, 0
6, 139590, Note_on_c, 4, 65, 0
6, 139680, Note_on_c, 4, 46, 70
6, 139680, Note_on_c, 4, 58, 70
6, 140550, Note_on_c, 4, 46, 0
6, 140550, Note_on_c, 4, 58, 0
6, 140640, Note_on_c, 4, 46, 70
6, 140640, Note_on_c, 4, 58, 70
6, 140850, Note_on_c, 4, 46, 0
6, 140850, Note_on_c, 4, 58, 0
6, 141120, Note_on_c, 4, 53, 70
6, 141120, Note_on_c, 4, 65, 70
6, 142470, Note_on_c, 4, 53, 0
6, 142470, Note_on_c, 4, 65, 0
6, 142560, Note_on_c, 4, 53, 70
6, 142560, Note_on_c, 4, 65, 70
6, 143910, Note_on_c, 4, 53, 0
6, 143910, Note_on_c, 4, 65, 0
6, 144000, Note_on_c, 4, 50, 70
6, 144000, Note_on_c, 4, 58, 70
6, 146790, Note_on_c, 4, 50, 0
6, 146790, Note_on_c, 4, 58, 0
6, 146880, Note_on_c, 4, 53, 70
6, 146880, Note_on_c, 4, 60, 70
6, 149670, Note_on_c, 4, 53, 0
6, 149670, Note_on_c, 4, 60, 0
6, 149760, Note_on_c, 4, 50, 70
6, 149760, Note_on_c, 4, 58, 70
6, 152550, Note_on_c, 4, 50, 0
6, 152550, Note_on_c, 4, 58, 0
6, 152640, Note_on_c, 4, 53, 70
6, 152640, Note_on_c, 4, 60, 70
6, 155430, Note_on_c, 4, 53, 0
6, 155430, Note_on_c, 4, 60, 0
6, 155520, Note_on_c, 4, 50, 70
6, 155520, Note_on_c, 4, 58, 70
6, 156750, Note_on_c, 4, 50, 0
6, 156750, Note_on_c, 4, 58, 0
6, 156960, Note_on_c, 4, 50, 70
6, 156960, Note_on_c, 4, 62, 70
6, 158190, Note_on_c, 4, 50, 0
6, 158190, Note_on_c, 4, 62, 0
6, 158400, Note_on_c, 4, 50, 70
6, 158400, Note_on_c, 4, 65, 70
6, 158610, Note_on_c, 4, 50, 0
6, 158610, Note_on_c, 4, 65, 0
6, 158880, Note_on_c, 4, 50, 70
6, 158880, Note_on_c, 4, 65, 70
6, 159090, Note_on_c, 4, 50, 0
6, 159090, Note_on_c, 4, 65, 0
6, 159360, Note_on_c, 4, 50, 70
6, 159360, Note_on_c, 4, 65, 70
6, 159540, Note_on_c, 4, 50, 0
6, 159540, Note_on_c, 4, 65, 0
6, 159840, Note_on_c, 4, 50, 70
6, 159840, Note_on_c, 4, 58, 70
6, 160440, Note_on_c, 4, 50, 0
6, 160440, Note_on_c, 4, 58, 0
6, 206880, Note_on_c, 4, 53, 60
6, 206880, Note_on_c, 4, 60, 60
6, 207360, Note_on_c, 4, 50, 70
6, 207360, Note_on_c, 4, 58, 70
6, 207390, Note_on_c, 4, 53, 0
6, 207390, Note_on_c, 4, 60, 0
6, 207570, Note_on_c, 4, 50, 0
6, 207570, Note_on_c, 4, 58, 0
6, 207840, Note_on_c, 4, 50, 70
6, 207840, Note_on_c, 4, 58, 70
6, 208530, Note_on_c, 4, 50, 0
6, 208530, Note_on_c, 4, 58, 0
6, 208800, Note_on_c, 4, 50, 70
6, 208800, Note_on_c, 4, 58, 70
6, 209490, Note_on_c, 4, 50, 0
6, 209490, Note_on_c, 4, 58, 0
6, 209760, Note_on_c, 4, 50, 70
6, 209760, Note_on_c, 4, 58, 70
6, 209970, Note_on_c, 4, 50, 0
6, 209970, Note_on_c, 4, 58, 0
6, 210240, Note_on_c, 4, 53, 70
6, 210240, Note_on_c, 4, 60, 70
6, 210930, Note_on_c, 4, 53, 0
6, 210930, Note_on_c, 4, 60, 0
6, 211200, Note_on_c, 4, 53, 70
6, 211200, Note_on_c, 4, 60, 70
6, 211350, Note_on_c, 4, 53, 0
6, 211350, Note_on_c, 4, 60, 0
6, 211680, Note_on_c, 4, 53, 70
6, 211680, Note_on_c, 4, 60, 70
6, 212280, Note_on_c, 4, 53, 0
6, 212280, Note_on_c, 4, 60, 0
6, 227520, Note_on_c, 4, 41, 40
6, 232710, Note_on_c, 4, 41, 0
6, 232800, Note_on_c, 4, 41, 70
6, 233010, Note_on_c, 4, 41, 0
6, 233280, Note_on_c, 4, 41, 40
6, 238470, Note_on_c, 4, 41, 0
6, 238560, Note_on_c, 4, 41, 70
6, 238770, Note_on_c, 4, 41, 0
6, 239040, Note_on_c, 4, 41, 60
6, 239250, Note_on_c, 4, 41, 0
6, 239520, Note_on_c, 4, 53, 70
6, 239520, Note_on_c, 4, 65, 70
6, 240390, Note_on_c, 4, 53, 0
6, 240390, Note_on_c, 4, 65, 0
6, 240480, Note_on_c, 4, 46, 70
6, 240480, Note_on_c, 4, 58, 70
6, 241350, Note_on_c, 4, 46, 0
6, 241350, Note_on_c, 4, 58, 0
6, 241440, Note_on_c, 4, 46, 70
6, 241440, Note_on_c, 4, 58, 70
6, 241650, Note_on_c, 4, 46, 0
6, 241650, Note_on_c, 4, 58, 0
6, 241920, Note_on_c, 4, 53, 70
6, 241920, Note_on_c, 4, 65, 70
6, 243270, Note_on_c, 4, 53, 0
6, 243270, Note_on_c, 4, 65, 0
6, 243360, Note_on_c, 4, 53, 70
6, 243360, Note_on_c, 4, 65, 70
6, 244710, Note_on_c, 4, 53, 0
6, 244710, Note_on_c, 4, 65, 0
6, 244800, Note_on_c, 4, 50, 70
6, 244800, Note_on_c, 4, 58, 70
6, 247590, Note_on_c, 4, 50, 0
6, 247590, Note_on_c, 4, 58, 0
6, 247680, Note_on_c, 4, 53, 70
6, 247680, Note_on_c, 4, 60, 70
6, 250470, Note_on_c, 4, 53, 0
6, 250470, Note_on_c, 4, 60, 0
6, 250560, Note_on_c, 4, 50, 70
6, 250560, Note_on_c, 4, 58, 70
6, 253350, Note_on_c, 4, 50, 0
6, 253350, Note_on_c, 4, 58, 0
6, 253440, Note_on_c, 4, 53, 70
6, 253440, Note_on_c, 4, 60, 70
6, 256230, Note_on_c, 4, 53, 0
6, 256230, Note_on_c, 4, 60, 0
6, 256320, Note_on_c, 4, 50, 70
6, 256320, Note_on_c, 4, 58, 70
6, 257550, Note_on_c, 4, 50, 0
6, 257550, Note_on_c, 4, 58, 0
6, 257760, Note_on_c, 4, 50, 70
6, 257760, Note_on_c, 4, 62, 70
6, 258990, Note_on_c, 4, 50, 0
6, 258990, Note_on_c, 4, 62, 0
6, 259200, Note_on_c, 4, 50, 70
6, 259200, Note_on_c, 4, 65, 70
6, 259410, Note_on_c, 4, 50, 0
6, 259410, Note_on_c, 4, 65, 0
6, 259680, Note_on_c, 4, 50, 70
6, 259680, Note_on_c, 4, 65, 70
6, 259890, Note_on_c, 4, 50, 0
6, 259890, Note_on_c, 4, 65, 0
6, 260160, Note_on_c, 4, 50, 70
6, 260160, Note_on_c, 4, 65, 70
6, 260340, Note_on_c, 4, 50, 0
6, 260340, Note_on_c, 4, 65, 0
6, 260640, Note_on_c, 4, 50, 70
6, 260640, Note_on_c, 4, 58, 70
6, 261240, Note_on_c, 4, 50, 0
6, 261240, Note_on_c, 4, 58, 0
6, 261600, Note_on_c, 4, 46, 20
6, 261600, Note_on_c, 4, 58, 20
6, 265680, Note_on_c, 4, 46, 0
6, 265680, Note_on_c, 4, 58, 0
6, 267360, Note_on_c, 4, 46, 20
6, 267360, Note_on_c, 4, 58, 20
6, 271440, Note_on_c, 4, 46, 0
6, 271440, Note_on_c, 4, 58, 0
6, 273600, Note_on_c, 4, 46, 20
6, 273600, Note_on_c, 4, 58, 20
6, 273600, Control_c, 4, 11, 80
6, 273720, Control_c, 4, 11, 81
6, 273830, Control_c, 4, 11, 82
6, 273950, Control_c, 4, 11, 83
6, 274060, Control_c, 4, 11, 84
6, 274180, Control_c, 4, 11, 85
6, 274290, Control_c, 4, 11, 86
6, 274400, Control_c, 4, 11, 87
6, 274520, Control_c, 4, 11, 88
6, 274630, Control_c, 4, 11, 89
6, 274750, Control_c, 4, 11, 90
6, 274860, Control_c, 4, 11, 91
6, 274980, Control_c, 4, 11, 92
6, 275090, Control_c, 4, 11, 93
6, 275200, Control_c, 4, 11, 94
6, 275320, Control_c, 4, 11, 95
6, 275430, Control_c, 4, 11, 96
6, 275550, Control_c, 4, 11, 97
6, 275660, Control_c, 4, 11, 98
6, 275730, Note_on_c, 4, 46, 0
6, 275730, Note_on_c, 4, 58, 0
6, 275780, Control_c, 4, 11, 99
6, 275890, Control_c, 4, 11, 100
6, 276000, Note_on_c, 4, 46, 20
6, 276000, Note_on_c, 4, 58, 20
6, 276210, Note_on_c, 4, 46, 0
6, 276210, Note_on_c, 4, 58, 0
6, 276474, Control_c, 4, 11, 110
6, 276480, Note_on_c, 4, 46, 20
6, 276480, Note_on_c, 4, 58, 20
6, 276720, Control_c, 4, 11, 110
6, 276810, Control_c, 4, 11, 109
6, 276900, Control_c, 4, 11, 108
6, 276980, Control_c, 4, 11, 107
6, 277070, Control_c, 4, 11, 106
6, 277150, Control_c, 4, 11, 105
6, 277240, Control_c, 4, 11, 104
6, 277320, Control_c, 4, 11, 103
6, 277410, Control_c, 4, 11, 102
6, 277490, Control_c, 4, 11, 101
6, 277580, Control_c, 4, 11, 100
6, 277660, Control_c, 4, 11, 99
6, 277750, Control_c, 4, 11, 98
6, 277830, Control_c, 4, 11, 97
6, 277920, Control_c, 4, 11, 96
6, 278000, Control_c, 4, 11, 95
6, 278090, Control_c, 4, 11, 94
6, 278170, Control_c, 4, 11, 93
6, 278260, Control_c, 4, 11, 92
6, 278340, Control_c, 4, 11, 91
6, 278430, Control_c, 4, 11, 90
6, 278510, Control_c, 4, 11, 89
6, 278600, Control_c, 4, 11, 88
6, 278610, Note_on_c, 4, 46, 0
6, 278610, Note_on_c, 4, 58, 0
6, 278680, Control_c, 4, 11, 87
6, 278770, Control_c, 4, 11, 86
6, 278850, Control_c, 4, 11, 85
6, 278880, Note_on_c, 4, 46, 20
6, 278880, Note_on_c, 4, 58, 20
6, 278940, Control_c, 4, 11, 84
6, 279020, Control_c, 4, 11, 83
6, 279090, Note_on_c, 4, 46, 0
6, 279090, Note_on_c, 4, 58, 0
6, 279110, Control_c, 4, 11, 82
6, 279190, Control_c, 4, 11, 81
6, 279280, Control_c, 4, 11, 80
6, 279360, Note_on_c, 4, 46, 20
6, 279360, Note_on_c, 4, 58, 20
6, 279810, Note_on_c, 4, 46, 0
6, 279810, Note_on_c, 4, 58, 0
6, 280320, Note_on_c, 4, 46, 20
6, 280320, Note_on_c, 4, 58, 20
6, 280530, Note_on_c, 4, 46, 0
6, 280530, Note_on_c, 4, 58, 0
6, 280800, Note_on_c, 4, 46, 20
6, 280800, Note_on_c, 4, 58, 20
6, 281490, Note_on_c, 4, 46, 0
6, 281490, Note_on_c, 4, 58, 0
6, 281760, Note_on_c, 4, 46, 20
6, 281760, Note_on_c, 4, 58, 20
6, 281970, Note_on_c, 4, 46, 0
6, 281970, Note_on_c, 4, 58, 0
6, 282240, Note_on_c, 4, 46, 20
6, 282240, Note_on_c, 4, 58, 20
6, 283020, Note_on_c, 4, 46, 0
6, 283020, Note_on_c, 4, 58, 0
6, 284640, Note_on_c, 4, 46, 20
6, 284640, Note_on_c, 4, 58, 20
6, 288600, Note_on_c, 4, 46, 0
6, 288600, Note_on_c, 4, 58, 0
6, 290400, Note_on_c, 4, 46, 20
6, 290400, Note_on_c, 4, 58, 20
6, 294360, Note_on_c, 4, 46, 0
6, 294360, Note_on_c, 4, 58, 0
6, 296160, Note_on_c, 4, 46, 20
6, 296160, Note_on_c, 4, 58, 20
6, 296640, Control_c, 4, 11, 80
6, 296910, Control_c, 4, 11, 82
6, 297170, Control_c, 4, 11, 84
6, 297440, Control_c, 4, 11, 86
6, 297700, Control_c, 4, 11, 88
6, 297960, Control_c, 4, 11, 91
6, 298230, Control_c, 4, 11, 93
6, 298490, Control_c, 4, 11, 95
6, 298760, Control_c, 4, 11, 97
6, 298770, Note_on_c, 4, 46, 0
6, 298770, Note_on_c, 4, 58, 0
6, 299020, Control_c, 4, 11, 100
6, 299040, Note_on_c, 4, 46, 20
6, 299040, Note_on_c, 4, 58, 20
6, 299250, Note_on_c, 4, 46, 0
6, 299250, Note_on_c, 4, 58, 0
6, 299514, Control_c, 4, 11, 110
6, 299520, Note_on_c, 4, 46, 20
6, 299520, Note_on_c, 4, 58, 20
6, 299660, Control_c, 4, 11, 109
6, 299800, Control_c, 4, 11, 107
6, 299940, Control_c, 4, 11, 106
6, 300070, Control_c, 4, 11, 104
6, 300210, Control_c, 4, 11, 103
6, 300350, Control_c, 4, 11, 101
6, 300480, Control_c, 4, 11, 100
6, 300620, Control_c, 4, 11, 99
6, 300760, Control_c, 4, 11, 97
6, 300900, Control_c, 4, 11, 96
6, 301030, Control_c, 4, 11, 94
6, 301170, Control_c, 4, 11, 93
6, 301310, Control_c, 4, 11, 91
6, 301440, Control_c, 4, 11, 90
6, 301580, Control_c, 4, 11, 88
6, 301650, Note_on_c, 4, 46, 0
6, 301650, Note_on_c, 4, 58, 0
6, 301720, Control_c, 4, 11, 87
6, 301860, Control_c, 4, 11, 85
6, 301920, Note_on_c, 4, 46, 20
6, 301920, Note_on_c, 4, 58, 20
6, 301990, Control_c, 4, 11, 84
6, 302130, Control_c, 4, 11, 82
6, 302270, Control_c, 4, 11, 80
6, 302310, Note_on_c, 4, 46, 0
6, 302310, Note_on_c, 4, 58, 0
6, 302400, Note_on_c, 4, 53, 20
6, 302400, Note_on_c, 4, 60, 20
6, 302910, Note_on_c, 4, 53, 0
6, 302910, Note_on_c, 4, 60, 0
6, 306240, Note_on_c, 4, 65, 100
6, 306450, Note_on_c, 4, 65, 0
6, 306720, Note_on_c, 4, 65, 100
6, 307590, Note_on_c, 4, 65, 0
6, 307680, Note_on_c, 4, 65, 100
6, 308070, Note_on_c, 4, 65, 0
6, 308160, Note_on_c, 4, 65, 100
6, 308160, Control_c, 4, 11, 80
6, 308200, Control_c, 4, 11, 81
6, 308230, Control_c, 4, 11, 82
6, 308260, Control_c, 4, 11, 83
6, 308290, Control_c, 4, 11, 84
6, 308320, Control_c, 4, 11, 85
6, 308350, Control_c, 4, 11, 86
6, 308380, Control_c, 4, 11, 87
6, 308410, Control_c, 4, 11, 88
6, 308440, Control_c, 4, 11, 89
6, 308470, Control_c, 4, 11, 90
6, 308500, Control_c, 4, 11, 91
6, 308530, Control_c, 4, 11, 92
6, 308560, Control_c, 4, 11, 93
6, 308590, Control_c, 4, 11, 94
6, 308620, Control_c, 4, 11, 95
6, 308660, Control_c, 4, 11, 96
6, 308690, Control_c, 4, 11, 97
6, 308720, Control_c, 4, 11, 98
6, 308750, Control_c, 4, 11, 99
6, 308780, Control_c, 4, 11, 100
6, 308810, Control_c, 4, 11, 101
6, 308840, Control_c, 4, 11, 102
6, 308870, Control_c, 4, 11, 103
6, 308900, Control_c, 4, 11, 104
6, 308930, Control_c, 4, 11, 105
6, 308960, Control_c, 4, 11, 106
6, 308990, Control_c, 4, 11, 107
6, 309020, Control_c, 4, 11, 108
6, 309050, Control_c, 4, 11, 109
6, 309080, Control_c, 4, 11, 110
6, 309110, Control_c, 4, 11, 111
6, 309150, Control_c, 4, 11, 112
6, 309180, Control_c, 4, 11, 113
6, 309210, Control_c, 4, 11, 114
6, 309240, Control_c, 4, 11, 115
6, 309270, Control_c, 4, 11, 116
6, 309300, Control_c, 4, 11, 117
6, 309330, Control_c, 4, 11, 118
6, 309360, Control_c, 4, 11, 119
6, 309390, Control_c, 4, 11, 120
6, 309420, Control_c, 4, 11, 121
6, 309450, Control_c, 4, 11, 122
6, 309480, Control_c, 4, 11, 123
6, 309510, Control_c, 4, 11, 124
6, 309540, Control_c, 4, 11, 125
6, 309570, Control_c, 4, 11, 126
6, 309600, Control_c, 4, 11, 127
6, 309630, Control_c, 4, 11, 126
6, 309660, Control_c, 4, 11, 125
6, 309690, Control_c, 4, 11, 124
6, 309720, Control_c, 4, 11, 123
6, 309750, Control_c, 4, 11, 122
6, 309780, Control_c, 4, 11, 121
6, 309810, Control_c, 4, 11, 120
6, 309840, Control_c, 4, 11, 119
6, 309870, Control_c, 4, 11, 118
6, 309900, Control_c, 4, 11, 117
6, 309930, Control_c, 4, 11, 116
6, 309960, Control_c, 4, 11, 115
6, 309990, Control_c, 4, 11, 114
6, 310020, Control_c, 4, 11, 113
6, 310050, Control_c, 4, 11, 112
6, 310080, Control_c, 4, 11, 111
6, 310110, Control_c, 4, 11, 110
6, 310140, Control_c, 4, 11, 109
6, 310170, Control_c, 4, 11, 108
6, 310200, Control_c, 4, 11, 107
6, 310230, Control_c, 4, 11, 106
6, 310260, Control_c, 4, 11, 105
6, 310290, Control_c, 4, 11, 104
6, 310320, Control_c, 4, 11, 103
6, 310350, Control_c, 4, 11, 102
6, 310380, Control_c, 4, 11, 101
6, 310410, Control_c, 4, 11, 100
6, 310440, Control_c, 4, 11, 99
6, 310470, Control_c, 4, 11, 98
6, 310500, Control_c, 4, 11, 97
6, 310530, Control_c, 4, 11, 96
6, 310560, Control_c, 4, 11, 95
6, 310590, Control_c, 4, 11, 94
6, 310620, Control_c, 4, 11, 93
6, 310650, Control_c, 4, 11, 92
6, 310680, Control_c, 4, 11, 91
6, 310710, Control_c, 4, 11, 90
6, 310740, Control_c, 4, 11, 89
6, 310770, Control_c, 4, 11, 88
6, 310800, Control_c, 4, 11, 87
6, 310830, Control_c, 4, 11, 86
6, 310860, Control_c, 4, 11, 85
6, 310890, Control_c, 4, 11, 84
6, 310920, Control_c, 4, 11, 83
6, 310950, Control_c, 4, 11, 82
6, 310980, Control_c, 4, 11, 81
6, 311010, Control_c, 4, 11, 80
6, 311430, Note_on_c, 4, 65, 0
6, 312000, Note_on_c, 4, 65, 100
6, 312390, Note_on_c, 4, 65, 0
6, 312480, Note_on_c, 4, 65, 100
6, 313350, Note_on_c, 4, 65, 0
6, 313440, Note_on_c, 4, 65, 100
6, 313830, Note_on_c, 4, 65, 0
6, 313920, Note_on_c, 4, 65, 100
6, 313920, Control_c, 4, 11, 80
6, 313970, Control_c, 4, 11, 81
6, 314020, Control_c, 4, 11, 82
6, 314060, Control_c, 4, 11, 83
6, 314110, Control_c, 4, 11, 84
6, 314150, Control_c, 4, 11, 85
6, 314200, Control_c, 4, 11, 86
6, 314250, Control_c, 4, 11, 87
6, 314290, Control_c, 4, 11, 88
6, 314340, Control_c, 4, 11, 89
6, 314380, Control_c, 4, 11, 90
6, 314430, Control_c, 4, 11, 91
6, 314480, Control_c, 4, 11, 92
6, 314520, Control_c, 4, 11, 93
6, 314570, Control_c, 4, 11, 94
6, 314610, Control_c, 4, 11, 95
6, 314660, Control_c, 4, 11, 96
6, 314710, Control_c, 4, 11, 97
6, 314750, Control_c, 4, 11, 98
6, 314800, Control_c, 4, 11, 99
6, 314840, Control_c, 4, 11, 100
6, 314890, Control_c, 4, 11, 101
6, 314940, Control_c, 4, 11, 102
6, 314980, Control_c, 4, 11, 103
6, 315030, Control_c, 4, 11, 104
6, 315070, Control_c, 4, 11, 105
6, 315120, Control_c, 4, 11, 106
6, 315170, Control_c, 4, 11, 107
6, 315210, Control_c, 4, 11, 108
6, 315260, Control_c, 4, 11, 109
6, 315300, Control_c, 4, 11, 110
6, 315350, Control_c, 4, 11, 111
6, 315400, Control_c, 4, 11, 112
6, 315440, Control_c, 4, 11, 113
6, 315490, Control_c, 4, 11, 114
6, 315530, Control_c, 4, 11, 115
6, 315580, Control_c, 4, 11, 116
6, 315630, Control_c, 4, 11, 117
6, 315670, Control_c, 4, 11, 118
6, 315720, Control_c, 4, 11, 119
6, 315760, Control_c, 4, 11, 120
6, 315810, Control_c, 4, 11, 121
6, 315860, Control_c, 4, 11, 122
6, 315900, Control_c, 4, 11, 123
6, 315950, Control_c, 4, 11, 124
6, 315990, Control_c, 4, 11, 125
6, 316040, Control_c, 4, 11, 126
6, 316080, Control_c, 4, 11, 127
6, 316130, Control_c, 4, 11, 126
6, 316170, Control_c, 4, 11, 125
6, 316220, Control_c, 4, 11, 124
6, 316260, Control_c, 4, 11, 123
6, 316310, Control_c, 4, 11, 122
6, 316350, Control_c, 4, 11, 121
6, 316400, Control_c, 4, 11, 120
6, 316440, Control_c, 4, 11, 119
6, 316490, Control_c, 4, 11, 118
6, 316530, Control_c, 4, 11, 117
6, 316580, Control_c, 4, 11, 116
6, 316620, Control_c, 4, 11, 115
6, 316670, Control_c, 4, 11, 114
6, 316710, Control_c, 4, 11, 113
6, 316760, Control_c, 4, 11, 112
6, 316800, Control_c, 4, 11, 111
6, 316850, Control_c, 4, 11, 110
6, 316890, Control_c, 4, 11, 109
6, 316940, Control_c, 4, 11, 108
6, 316980, Control_c, 4, 11, 107
6, 317030, Control_c, 4, 11, 106
6, 317070, Control_c, 4, 11, 105
6, 317120, Control_c, 4, 11, 104
6, 317160, Control_c, 4, 11, 103
6, 317210, Control_c, 4, 11, 102
6, 317250, Control_c, 4, 11, 101
6, 317300, Control_c, 4, 11, 100
6, 317340, Control_c, 4, 11, 99
6, 317390, Control_c, 4, 11, 98
6, 317430, Control_c, 4, 11, 97
6, 317480, Control_c, 4, 11, 96
6, 317520, Control_c, 4, 11, 95
6, 317570, Control_c, 4, 11, 94
6, 317610, Control_c, 4, 11, 93
6, 317660, Control_c, 4, 11, 92
6, 317700, Control_c, 4, 11, 91
6, 317750, Control_c, 4, 11, 90
6, 317790, Control_c, 4, 11, 89
6, 317840, Control_c, 4, 11, 88
6, 317880, Control_c, 4, 11, 87
6, 317930, Control_c, 4, 11, 86
6, 317970, Control_c, 4, 11, 85
6, 318020, Control_c, 4, 11, 84
6, 318060, Control_c, 4, 11, 83
6, 318110, Control_c, 4, 11, 82
6, 318150, Control_c, 4, 11, 81
6, 318200, Control_c, 4, 11, 80
6, 318840, Note_on_c, 4, 65, 0
6, 333600, Note_on_c, 4, 46, 30
6, 333600, Note_on_c, 4, 58, 30
6, 337680, Note_on_c, 4, 46, 0
6, 337680, Note_on_c, 4, 58, 0
6, 339360, Note_on_c, 4, 46, 41
6, 339360, Note_on_c, 4, 58, 41
6, 343440, Note_on_c, 4, 46, 0
6, 343440, Note_on_c, 4, 58, 0
6, 345120, Note_on_c, 4, 46, 54
6, 345120, Note_on_c, 4, 58, 54
6, 350790, Note_on_c, 4, 46, 0
6, 350790, Note_on_c, 4, 58, 0
6, 350880, Note_on_c, 4, 46, 67
6, 350880, Note_on_c, 4, 58, 67
6, 351270, Note_on_c, 4, 46, 0
6, 351270, Note_on_c, 4, 58, 0
6, 351360, Note_on_c, 4, 41, 68
6, 351360, Note_on_c, 4, 53, 68
6, 352230, Note_on_c, 4, 41, 0
6, 352230, Note_on_c, 4, 53, 0
6, 352320, Note_on_c, 4, 41, 70
6, 352320, Note_on_c, 4, 53, 70
6, 352710, Note_on_c, 4, 41, 0
6, 352710, Note_on_c, 4, 53, 0
6, 352800, Note_on_c, 4, 41, 71
6, 352800, Note_on_c, 4, 53, 71
6, 353670, Note_on_c, 4, 41, 0
6, 353670, Note_on_c, 4, 53, 0
6, 353760, Note_on_c, 4, 41, 73
6, 353760, Note_on_c, 4, 53, 73
6, 354150, Note_on_c, 4, 41, 0
6, 354150, Note_on_c, 4, 53, 0
6, 354240, Note_on_c, 4, 46, 74
6, 354240, Note_on_c, 4, 53, 74
6, 354840, Note_on_c, 4, 46, 0
6, 354840, Note_on_c, 4, 53, 0
6, 356640, Note_on_c, 4, 46, 80
6, 356640, Note_on_c, 4, 58, 80
6, 357030, Note_on_c, 4, 46, 0
6, 357030, Note_on_c, 4, 58, 0
6, 357120, Note_on_c, 4, 46, 80
6, 357120, Note_on_c, 4, 58, 80
6, 357990, Note_on_c, 4, 46, 0
6, 357990, Note_on_c, 4, 58, 0
6, 358080, Note_on_c, 4, 46, 80
6, 358080, Note_on_c, 4, 58, 80
6, 358470, Note_on_c, 4, 46, 0
6, 358470, Note_on_c, 4, 58, 0
6, 358560, Note_on_c, 4, 46, 80
6, 358560, Note_on_c, 4, 58, 80
6, 359430, Note_on_c, 4, 46, 0
6, 359430, Note_on_c, 4, 58, 0
6, 359520, Note_on_c, 4, 46, 80
6, 359520, Note_on_c, 4, 58, 80
6, 359910, Note_on_c, 4, 46, 0
6, 359910, Note_on_c, 4, 58, 0
6, 360000, Note_on_c, 4, 46, 80
6, 360000, Note_on_c, 4, 58, 80
6, 360000, Control_c, 4, 11, 80
6, 360060, Control_c, 4, 11, 87
6, 360120, Control_c, 4, 11, 95
6, 360180, Control_c, 4, 11, 102
6, 360300, Control_c, 4, 11, 110
6, 360360, Control_c, 4, 11, 107
6, 360420, Control_c, 4, 11, 106
6, 360480, Control_c, 4, 11, 104
6, 360540, Control_c, 4, 11, 103
6, 360600, Control_c, 4, 11, 101
6, 360660, Control_c, 4, 11, 100
6, 360720, Control_c, 4, 11, 98
6, 360780, Control_c, 4, 11, 97
6, 360840, Control_c, 4, 11, 95
6, 360900, Control_c, 4, 11, 93
6, 360960, Control_c, 4, 11, 92
6, 361020, Control_c, 4, 11, 90
6, 361080, Control_c, 4, 11, 89
6, 361140, Control_c, 4, 11, 87
6, 361200, Control_c, 4, 11, 86
6, 361260, Control_c, 4, 11, 84
6, 361320, Control_c, 4, 11, 82
6, 361380, Control_c, 4, 11, 80
6, 362310, Note_on_c, 4, 46, 0
6, 362310, Note_on_c, 4, 58, 0
6, 362400, Note_on_c, 4, 46, 80
6, 362400, Note_on_c, 4, 58, 80
6, 362880, Note_on_c, 4, 53, 80
6, 362880, Note_on_c, 4, 60, 80
6, 362910, Note_on_c, 4, 46, 0
6, 362910, Note_on_c, 4, 58, 0
6, 363330, Note_on_c, 4, 53, 0
6, 363330, Note_on_c, 4, 60, 0
6, 363840, Note_on_c, 4, 53, 80
6, 363840, Note_on_c, 4, 60, 80
6, 364230, Note_on_c, 4, 53, 0
6, 364230, Note_on_c, 4, 60, 0
6, 364320, Note_on_c, 4, 53, 80
6, 364320, Note_on_c, 4, 60, 80
6, 365190, Note_on_c, 4, 53, 0
6, 365190, Note_on_c, 4, 60, 0
6, 365280, Note_on_c, 4, 53, 80
6, 365280, Note_on_c, 4, 60, 80
6, 365730, Note_on_c, 4, 53, 0
6, 365730, Note_on_c, 4, 60, 0
6, 365760, Note_on_c, 4, 58, 80
6, 365760, Note_on_c, 4, 62, 80
6, 366360, Note_on_c, 4, 58, 0
6, 366360, Note_on_c, 4, 62, 0
6, 368160, Note_on_c, 4, 58, 80
6, 368160, Note_on_c, 4, 62, 80
6, 368640, Note_on_c, 4, 53, 80
6, 368640, Note_on_c, 4, 60, 80
6, 368670, Note_on_c, 4, 58, 0
6, 368670, Note_on_c, 4, 62, 0
6, 369090, Note_on_c, 4, 53, 0
6, 369090, Note_on_c, 4, 60, 0
6, 371040, Note_on_c, 4, 53, 80
6, 371040, Note_on_c, 4, 60, 80
6, 371520, Note_on_c, 4, 58, 80
6, 371520, Note_on_c, 4, 62, 80
6, 371550, Note_on_c, 4, 53, 0
6, 371550, Note_on_c, 4, 60, 0
6, 371970, Note_on_c, 4, 58, 0
6, 371970, Note_on_c, 4, 62, 0
6, 373920, Note_on_c, 4, 58, 55
6, 373920, Note_on_c, 4, 62, 55
6, 374400, Note_on_c, 4, 53, 50
6, 374400, Note_on_c, 4, 60, 50
6, 374430, Note_on_c, 4, 58, 0
6, 374430, Note_on_c, 4, 62, 0
6, 374850, Note_on_c, 4, 53, 0
6, 374850, Note_on_c, 4, 60, 0
6, 376800, Note_on_c, 4, 53, 30
6, 376800, Note_on_c, 4, 60, 30
6, 377280, Note_on_c, 4, 50, 30
6, 377280, Note_on_c, 4, 58, 30
6, 377310, Note_on_c, 4, 53, 0
6, 377310, Note_on_c, 4, 60, 0
6, 377730, Note_on_c, 4, 50, 0
6, 377730, Note_on_c, 4, 58, 0
6, 378720, Note_on_c, 4, 50, 30
6, 378720, Note_on_c, 4, 58, 30
6, 379170, Note_on_c, 4, 50, 0
6, 379170, Note_on_c, 4, 58, 0
6, 380160, Note_on_c, 4, 50, 30
6, 380160, Note_on_c, 4, 58, 30
6, 380610, Note_on_c, 4, 50, 0
6, 380610, Note_on_c, 4, 58, 0
6, 381600, Note_on_c, 4, 50, 30
6, 381600, Note_on_c, 4, 58, 30
6, 382050, Note_on_c, 4, 50, 0
6, 382050, Note_on_c, 4, 58, 0
6, 383040, Note_on_c, 4, 50, 30
6, 383040, Note_on_c, 4, 58, 30
6, 383490, Note_on_c, 4, 50, 0
6, 383490, Note_on_c, 4, 58, 0
6, 388320, Note_on_c, 4, 53, 65
6, 388320, Note_on_c, 4, 60, 65
6, 388800, Note_on_c, 4, 50, 70
6, 388800, Note_on_c, 4, 58, 70
6, 388830, Note_on_c, 4, 53, 0
6, 388830, Note_on_c, 4, 60, 0
6, 389010, Note_on_c, 4, 50, 0
6, 389010, Note_on_c, 4, 58, 0
6, 389280, Note_on_c, 4, 50, 70
6, 389280, Note_on_c, 4, 58, 70
6, 389970, Note_on_c, 4, 50, 0
6, 389970, Note_on_c, 4, 58, 0
6, 390240, Note_on_c, 4, 50, 70
6, 390240, Note_on_c, 4, 58, 70
6, 390870, Note_on_c, 4, 50, 0
6, 390870, Note_on_c, 4, 58, 0
6, 391200, Note_on_c, 4, 50, 70
6, 391200, Note_on_c, 4, 58, 70
6, 391350, Note_on_c, 4, 50, 0
6, 391350, Note_on_c, 4, 58, 0
6, 391680, Note_on_c, 4, 53, 70
6, 391680, Note_on_c, 4, 60, 70
6, 392370, Note_on_c, 4, 53, 0
6, 392370, Note_on_c, 4, 60, 0
6, 392640, Note_on_c, 4, 53, 70
6, 392640, Note_on_c, 4, 60, 70
6, 392790, Note_on_c, 4, 53, 0
6, 392790, Note_on_c, 4, 60, 0
6, 393120, Note_on_c, 4, 53, 70
6, 393120, Note_on_c, 4, 60, 70
6, 393720, Note_on_c, 4, 53, 0
6, 393720, Note_on_c, 4, 60, 0
6, 411360, Note_on_c, 4, 60, 55
6, 411510, Note_on_c, 4, 60, 0
6, 411840, Note_on_c, 4, 53, 70
6, 411840, Note_on_c, 4, 60, 70
6, 413010, Note_on_c, 4, 53, 0
6, 413010, Note_on_c, 4, 60, 0
6, 413280, Note_on_c, 4, 53, 70
6, 413280, Note_on_c, 4, 60, 70
6, 414450, Note_on_c, 4, 53, 0
6, 414450, Note_on_c, 4, 60, 0
6, 414720, Note_on_c, 4, 53, 70
6, 414720, Note_on_c, 4, 60, 70
6, 414930, Note_on_c, 4, 53, 0
6, 414930, Note_on_c, 4, 60, 0
6, 415200, Note_on_c, 4, 53, 70
6, 415200, Note_on_c, 4, 60, 70
6, 415410, Note_on_c, 4, 53, 0
6, 415410, Note_on_c, 4, 60, 0
6, 415680, Note_on_c, 4, 53, 70
6, 415680, Note_on_c, 4, 60, 70
6, 415860, Note_on_c, 4, 53, 0
6, 415860, Note_on_c, 4, 60, 0
6, 416160, Note_on_c, 4, 53, 70
6, 416160, Note_on_c, 4, 60, 70
6, 416520, Note_on_c, 4, 53, 0
6, 416520, Note_on_c, 4, 60, 0
6, 463200, Note_on_c, 4, 53, 60
6, 463200, Note_on_c, 4, 60, 60
6, 463680, Note_on_c, 4, 50, 70
6, 463680, Note_on_c, 4, 58, 70
6, 463710, Note_on_c, 4, 53, 0
6, 463710, Note_on_c, 4, 60, 0
6, 463890, Note_on_c, 4, 50, 0
6, 463890, Note_on_c, 4, 58, 0
6, 464160, Note_on_c, 4, 50, 70
6, 464160, Note_on_c, 4, 58, 70
6, 464850, Note_on_c, 4, 50, 0
6, 464850, Note_on_c, 4, 58, 0
6, 465120, Note_on_c, 4, 50, 70
6, 465120, Note_on_c, 4, 58, 70
6, 465810, Note_on_c, 4, 50, 0
6, 465810, Note_on_c, 4, 58, 0
6, 466080, Note_on_c, 4, 50, 70
6, 466080, Note_on_c, 4, 58, 70
6, 466290, Note_on_c, 4, 50, 0
6, 466290, Note_on_c, 4, 58, 0
6, 466560, Note_on_c, 4, 53, 70
6, 466560, Note_on_c, 4, 60, 70
6, 467250, Note_on_c, 4, 53, 0
6, 467250, Note_on_c, 4, 60, 0
6, 467520, Note_on_c, 4, 53, 70
6, 467520, Note_on_c, 4, 60, 70
6, 467670, Note_on_c, 4, 53, 0
6, 467670, Note_on_c, 4, 60, 0
6, 468000, Note_on_c, 4, 53, 70
6, 468000, Note_on_c, 4, 60, 70
6, 468600, Note_on_c, 4, 53, 0
6, 468600, Note_on_c, 4, 60, 0
6, 483840, Note_on_c, 4, 41, 40
6, 489030, Note_on_c, 4, 41, 0
6, 489120, Note_on_c, 4, 41, 70
6, 489330, Note_on_c, 4, 41, 0
6, 489600, Note_on_c, 4, 41, 40
6, 494790, Note_on_c, 4, 41, 0
6, 494880, Note_on_c, 4, 41, 70
6, 495090, Note_on_c, 4, 41, 0
6, 495360, Note_on_c, 4, 41, 60
6, 495570, Note_on_c, 4, 41, 0
6, 495840, Note_on_c, 4, 53, 70
6, 495840, Note_on_c, 4, 65, 70
6, 496710, Note_on_c, 4, 53, 0
6, 496710, Note_on_c, 4, 65, 0
6, 496800, Note_on_c, 4, 46, 70
6, 496800, Note_on_c, 4, 58, 70
6, 497670, Note_on_c, 4, 46, 0
6, 497670, Note_on_c, 4, 58, 0
6, 497760, Note_on_c, 4, 46, 70
6, 497760, Note_on_c, 4, 58, 70
6, 497970, Note_on_c, 4, 46, 0
6, 497970, Note_on_c, 4, 58, 0
6, 498240, Note_on_c, 4, 53, 70
6, 498240, Note_on_c, 4, 65, 70
6, 499590, Note_on_c, 4, 53, 0
6, 499590, Note_on_c, 4, 65, 0
6, 499680, Note_on_c, 4, 53, 70
6, 499680, Note_on_c, 4, 65, 70
6, 501030, Note_on_c, 4, 53, 0
6, 501030, Note_on_c, 4, 65, 0
6, 501120, Note_on_c, 4, 50, 70
6, 501120, Note_on_c, 4, 58, 70
6, 503910, Note_on_c, 4, 50, 0
6, 503910, Note_on_c, 4, 58, 0
6, 504000, Note_on_c, 4, 53, 70
6, 504000, Note_on_c, 4, 60, 70
6, 506790, Note_on_c, 4, 53, 0
6, 506790, Note_on_c, 4, 60, 0
6, 506880, Note_on_c, 4, 50, 70
6, 506880, Note_on_c, 4, 58, 70
6, 509670, Note_on_c, 4, 50, 0
6, 509670, Note_on_c, 4, 58, 0
6, 509760, Note_on_c, 4, 53, 70
6, 509760, Note_on_c, 4, 60, 70
6, 512550, Note_on_c, 4, 53, 0
6, 512550, Note_on_c, 4, 60, 0
6, 512640, Note_on_c, 4, 50, 70
6, 512640, Note_on_c, 4, 58, 70
6, 513870, Note_on_c, 4, 50, 0
6, 513870, Note_on_c, 4, 58, 0
6, 514080, Note_on_c, 4, 50, 70
6, 514080, Note_on_c, 4, 62, 70
6, 515310, Note_on_c, 4, 50, 0
6, 515310, Note_on_c, 4, 62, 0
6, 515520, Note_on_c, 4, 50, 70
6, 515520, Note_on_c, 4, 65, 70
6, 515730, Note_on_c, 4, 50, 0
6, 515730, Note_on_c, 4, 65, 0
6, 516000, Note_on_c, 4, 50, 70
6, 516000, Note_on_c, 4, 65, 70
6, 516210, Note_on_c, 4, 50, 0
6, 516210, Note_on_c, 4, 65, 0
6, 516480, Note_on_c, 4, 50, 70
6, 516480, Note_on_c, 4, 65, 70
6, 516660, Note_on_c, 4, 50, 0
6, 516660, Note_on_c, 4, 65, 0
6, 516960, Note_on_c, 4, 50, 70
6, 516960, Note_on_c, 4, 58, 70
6, 517560, Note_on_c, 4, 50, 0
6, 517560, Note_on_c, 4, 58, 0
6, 517920, Note_on_c, 4, 46, 20
6, 517920, Note_on_c, 4, 58, 20
6, 522000, Note_on_c, 4, 46, 0
6, 522000, Note_on_c, 4, 58, 0
6, 523680, Note_on_c, 4, 46, 20
6, 523680, Note_on_c, 4, 58, 20
6, 527760, Note_on_c, 4, 46, 0
6, 527760, Note_on_c, 4, 58, 0
6, 529920, Note_on_c, 4, 46, 20
6, 529920, Note_on_c, 4, 58, 20
6, 529920, Control_c, 4, 11, 80
6, 530040, Control_c, 4, 11, 81
6, 530150, Control_c, 4, 11, 82
6, 530270, Control_c, 4, 11, 83
6, 530380, Control_c, 4, 11, 84
6, 530500, Control_c, 4, 11, 85
6, 530610, Control_c, 4, 11, 86
6, 530720, Control_c, 4, 11, 87
6, 530840, Control_c, 4, 11, 88
6, 530950, Control_c, 4, 11, 89
6, 531070, Control_c, 4, 11, 90
6, 531180, Control_c, 4, 11, 91
6, 531300, Control_c, 4, 11, 92
6, 531410, Control_c, 4, 11, 93
6, 531520, Control_c, 4, 11, 94
6, 531640, Control_c, 4, 11, 95
6, 531750, Control_c, 4, 11, 96
6, 531870, Control_c, 4, 11, 97
6, 531980, Control_c, 4, 11, 98
6, 532050, Note_on_c, 4, 46, 0
6, 532050, Note_on_c, 4, 58, 0
6, 532100, Control_c, 4, 11, 99
6, 532210, Control_c, 4, 11, 100
6, 532320, Note_on_c, 4, 46, 20
6, 532320, Note_on_c, 4, 58, 20
6, 532530, Note_on_c, 4, 46, 0
6, 532530, Note_on_c, 4, 58, 0
6, 532794, Control_c, 4, 11, 110
6, 532800, Note_on_c, 4, 46, 20
6, 532800, Note_on_c, 4, 58, 20
6, 533040, Control_c, 4, 11, 110
6, 533130, Control_c, 4, 11, 109
6, 533220, Control_c, 4, 11, 108
6, 533300, Control_c, 4, 11, 107
6, 533390, Control_c, 4, 11, 106
6, 533470, Control_c, 4, 11, 105
6, 533560, Control_c, 4, 11, 104
6, 533640, Control_c, 4, 11, 103
6, 533730, Control_c, 4, 11, 102
6, 533810, Control_c, 4, 11, 101
6, 533900, Control_c, 4, 11, 100
6, 533980, Control_c, 4, 11, 99
6, 534070, Control_c, 4, 11, 98
6, 534150, Control_c, 4, 11, 97
6, 534240, Control_c, 4, 11, 96
6, 534320, Control_c, 4, 11, 95
6, 534410, Control_c, 4, 11, 94
6, 534490, Control_c, 4, 11, 93
6, 534580, Control_c, 4, 11, 92
6, 534660, Control_c, 4, 11, 91
6, 534750, Control_c, 4, 11, 90
6, 534830, Control_c, 4, 11, 89
6, 534920, Control_c, 4, 11, 88
6, 534930, Note_on_c, 4, 46, 0
6, 534930, Note_on_c, 4, 58, 0
6, 535000, Control_c, 4, 11, 87
6, 535090, Control_c, 4, 11, 86
6, 535170, Control_c, 4, 11, 85
6, 535200, Note_on_c, 4, 46, 20
6, 535200, Note_on_c, 4, 58, 20
6, 535260, Control_c, 4, 11, 84
6, 535340, Control_c, 4, 11, 83
6, 535410, Note_on_c, 4, 46, 0
6, 535410, Note_on_c, 4, 58, 0
6, 535430, Control_c, 4, 11, 82
6, 535510, Control_c, 4, 11, 81
6, 535600, Control_c, 4, 11, 80
6, 535680, Note_on_c, 4, 46, 20
6, 535680, Note_on_c, 4, 58, 20
6, 536130, Note_on_c, 4, 46, 0
6, 536130, Note_on_c, 4, 58, 0
6, 536640, Note_on_c, 4, 46, 20
6, 536640, Note_on_c, 4, 58, 20
6, 536850, Note_on_c, 4, 46, 0
6, 536850, Note_on_c, 4, 58, 0
6, 537120, Note_on_c, 4, 46, 20
6, 537120, Note_on_c, 4, 58, 20
6, 537810, Note_on_c, 4, 46, 0
6, 537810, Note_on_c, 4, 58, 0
6, 538080, Note_on_c, 4, 46, 20
6, 538080, Note_on_c, 4, 58, 20
6, 538290, Note_on_c, 4, 46, 0
6, 538290, Note_on_c, 4, 58, 0
6, 538560, Note_on_c, 4, 46, 20
6, 538560, Note_on_c, 4, 58, 20
6, 539340, Note_on_c, 4, 46, 0
6, 539340, Note_on_c, 4, 58, 0
6, 540960, Note_on_c, 4, 46, 20
6, 540960, Note_on_c, 4, 58, 20
6, 544920, Note_on_c, 4, 46, 0
6, 544920, Note_on_c, 4, 58, 0
6, 546720, Note_on_c, 4, 46, 20
6, 546720, Note_on_c, 4, 58, 20
6, 550680, Note_on_c, 4, 46, 0
6, 550680, Note_on_c, 4, 58, 0
6, 552480, Note_on_c, 4, 46, 20
6, 552480, Note_on_c, 4, 58, 20
6, 552960, Control_c, 4, 11, 80
6, 553230, Control_c, 4, 11, 82
6, 553490, Control_c, 4, 11, 84
6, 553760, Control_c, 4, 11, 86
6, 554020, Control_c, 4, 11, 88
6, 554280, Control_c, 4, 11, 91
6, 554550, Control_c, 4, 11, 93
6, 554810, Control_c, 4, 11, 95
6, 555080, Control_c, 4, 11, 97
6, 555090, Note_on_c, 4, 46, 0
6, 555090, Note_on_c, 4, 58, 0
6, 555340, Control_c, 4, 11, 100
6, 555360, Note_on_c, 4, 46, 20
6, 555360, Note_on_c, 4, 58, 20
6, 555570, Note_on_c, 4, 46, 0
6, 555570, Note_on_c, 4, 58, 0
6, 555834, Control_c, 4, 11, 110
6, 555840, Note_on_c, 4, 46, 20
6, 555840, Note_on_c, 4, 58, 20
6, 555980, Control_c, 4, 11, 109
6, 556120, Control_c, 4, 11, 107
6, 556260, Control_c, 4, 11, 106
6, 556390, Control_c, 4, 11, 104
6, 556530, Control_c, 4, 11, 103
6, 556670, Control_c, 4, 11, 101
6, 556800, Control_c, 4, 11, 100
6, 556940, Control_c, 4, 11, 99
6, 557080, Control_c, 4, 11, 97
6, 557220, Control_c, 4, 11, 96
6, 557350, Control_c, 4, 11, 94
6, 557490, Control_c, 4, 11, 93
6, 557630, Control_c, 4, 11, 91
6, 557760, Control_c, 4, 11, 90
6, 557900, Control_c, 4, 11, 88
6, 557970, Note_on_c, 4, 46, 0
6, 557970, Note_on_c, 4, 58, 0
6, 558040, Control_c, 4, 11, 87
6, 558180, Control_c, 4, 11, 85
6, 558240, Note_on_c, 4, 46, 20
6, 558240, Note_on_c, 4, 58, 20
6, 558310, Control_c, 4, 11, 84
6, 558450, Control_c, 4, 11, 82
6, 558590, Control_c, 4, 11, 80
6, 558630, Note_on_c, 4, 46, 0
6, 558630, Note_on_c, 4, 58, 0
6, 558720, Note_on_c, 4, 53, 20
6, 558720, Note_on_c, 4, 60, 20
6, 559230, Note_on_c, 4, 53, 0
6, 559230, Note_on_c, 4, 60, 0
6, 562560, Note_on_c, 4, 65, 100
6, 562770, Note_on_c, 4, 65, 0
6, 563040, Note_on_c, 4, 65, 100
6, 563910, Note_on_c, 4, 65, 0
6, 564000, Note_on_c, 4, 65, 100
6, 564390, Note_on_c, 4, 65, 0
6, 564480, Note_on_c, 4, 65, 100
6, 564480, Control_c, 4, 11, 80
6, 564520, Control_c, 4, 11, 81
6, 564550, Control_c, 4, 11, 82
6, 564580, Control_c, 4, 11, 83
6, 564610, Control_c, 4, 11, 84
6, 564640, Control_c, 4, 11, 85
6, 564670, Control_c, 4, 11, 86
6, 564700, Control_c, 4, 11, 87
6, 564730, Control_c, 4, 11, 88
6, 564760, Control_c, 4, 11, 89
6, 564790, Control_c, 4, 11, 90
6, 564820, Control_c, 4, 11, 91
6, 564850, Control_c, 4, 11, 92
6, 564880, Control_c, 4, 11, 93
6, 564910, Control_c, 4, 11, 94
6, 564940, Control_c, 4, 11, 95
6, 564980, Control_c, 4, 11, 96
6, 565010, Control_c, 4, 11, 97
6, 565040, Control_c, 4, 11, 98
6, 565070, Control_c, 4, 11, 99
6, 565100, Control_c, 4, 11, 100
6, 565130, Control_c, 4, 11, 101
6, 565160, Control_c, 4, 11, 102
6, 565190, Control_c, 4, 11, 103
6, 565220, Control_c, 4, 11, 104
6, 565250, Control_c, 4, 11, 105
6, 565280, Control_c, 4, 11, 106
6, 565310, Control_c, 4, 11, 107
6, 565340, Control_c, 4, 11, 108
6, 565370, Control_c, 4, 11, 109
6, 565400, Control_c, 4, 11, 110
6, 565430, Control_c, 4, 11, 111
6, 565470, Control_c, 4, 11, 112
6, 565500, Control_c, 4, 11, 113
6, 565530, Control_c, 4, 11, 114
6, 565560, Control_c, 4, 11, 115
6, 565590, Control_c, 4, 11, 116
6, 565620, Control_c, 4, 11, 117
6, 565650, Control_c, 4, 11, 118
6, 565680, Control_c, 4, 11, 119
6, 565710, Control_c, 4, 11, 120
6, 565740, Control_c, 4, 11, 121
6, 565770, Control_c, 4, 11, 122
6, 565800, Control_c, 4, 11, 123
6, 565830, Control_c, 4, 11, 124
6, 565860, Control_c, 4, 11, 125
6, 565890, Control_c, 4, 11, 126
6, 565920, Control_c, 4, 11, 127
6, 565950, Control_c, 4, 11, 126
6, 565980, Control_c, 4, 11, 125
6, 566010, Control_c, 4, 11, 124
6, 566040, Control_c, 4, 11, 123
6, 566070, Control_c, 4, 11, 122
6, 566100, Control_c, 4, 11, 121
6, 566130, Control_c, 4, 11, 120
6, 566160, Control_c, 4, 11, 119
6, 566190, Control_c, 4, 11, 118
6, 566220, Control_c, 4, 11, 117
6, 566250, Control_c, 4, 11, 116
6, 566280, Control_c, 4, 11, 115
6, 566310, Control_c, 4, 11, 114
6, 566340, Control_c, 4, 11, 113
6, 566370, Control_c, 4, 11, 112
6, 566400, Control_c, 4, 11, 111
6, 566430, Control_c, 4, 11, 110
6, 566460, Control_c, 4, 11, 109
6, 566490, Control_c, 4, 11, 108
6, 566520, Control_c, 4, 11, 107
6, 566550, Control_c, 4, 11, 106
6, 566580, Control_c, 4, 11, 105
6, 566610, Control_c, 4, 11, 104
6, 566640, Control_c, 4, 11, 103
6, 566670, Control_c, 4, 11, 102
6, 566700, Control_c, 4, 11, 101
6, 566730, Control_c, 4, 11, 100
6, 566760, Control_c, 4, 11, 99
6, 566790, Control_c, 4, 11, 98
6, 566820, Control_c, 4, 11, 97
6, 566850, Control_c, 4, 11, 96
6, 566880, Control_c, 4, 11, 95
6, 566910, Control_c, 4, 11, 94
6, 566940, Control_c, 4, 11, 93
6, 566970, Control_c, 4, 11, 92
6, 567000, Control_c, 4, 11, 91
6, 567030, Control_c, 4, 11, 90
6, 567060, Control_c, 4, 11, 89
6, 567090, Control_c, 4, 11, 88
6, 567120, Control_c, 4, 11, 87
6, 567150, Control_c, 4, 11, 86
6, 567180, Control_c, 4, 11, 85
6, 567210, Control_c, 4, 11, 84
6, 567240, Control_c, 4, 11, 83
6, 567270, Control_c, 4, 11, 82
6, 567300, Control_c, 4, 11, 81
6, 567330, Control_c, 4, 11, 80
6, 567750, Note_on_c, 4, 65, 0
6, 568320, Note_on_c, 4, 65, 100
6, 568710, Note_on_c, 4, 65, 0
6, 568800, Note_on_c, 4, 65, 100
6, 569670, Note_on_c, 4, 65, 0
6, 569760, Note_on_c, 4, 65, 100
6, 570150, Note_on_c, 4, 65, 0
6, 570240, Note_on_c, 4, 65, 100
6, 570240, Control_c, 4, 11, 80
6, 570290, Control_c, 4, 11, 81
6, 570340, Control_c, 4, 11, 82
6, 570380, Control_c, 4, 11, 83
6, 570430, Control_c, 4, 11, 84
6, 570470, Control_c, 4, 11, 85
6, 570520, Control_c, 4, 11, 86
6, 570570, Control_c, 4, 11, 87
6, 570610, Control_c, 4, 11, 88
6, 570660, Control_c, 4, 11, 89
6, 570700, Control_c, 4, 11, 90
6, 570750, Control_c, 4, 11, 91
6, 570800, Control_c, 4, 11, 92
6, 570840, Control_c, 4, 11, 93
6, 570890, Control_c, 4, 11, 94
6, 570930, Control_c, 4, 11, 95
6, 570980, Control_c, 4, 11, 96
6, 571030, Control_c, 4, 11, 97
6, 571070, Control_c, 4, 11, 98
6, 571120, Control_c, 4, 11, 99
6, 571160, Control_c, 4, 11, 100
6, 571210, Control_c, 4, 11, 101
6, 571260, Control_c, 4, 11, 102
6, 571300, Control_c, 4, 11, 103
6, 571350, Control_c, 4, 11, 104
6, 571390, Control_c, 4, 11, 105
6, 571440, Control_c, 4, 11, 106
6, 571490, Control_c, 4, 11, 107
6, 571530, Control_c, 4, 11, 108
6, 571580, Control_c, 4, 11, 109
6, 571620, Control_c, 4, 11, 110
6, 571670, Control_c, 4, 11, 111
6, 571720, Control_c, 4, 11, 112
6, 571760, Control_c, 4, 11, 113
6, 571810, Control_c, 4, 11, 114
6, 571850, Control_c, 4, 11, 115
6, 571900, Control_c, 4, 11, 116
6, 571950, Control_c, 4, 11, 117
6, 571990, Control_c, 4, 11, 118
6, 572040, Control_c, 4, 11, 119
6, 572080, Control_c, 4, 11, 120
6, 572130, Control_c, 4, 11, 121
6, 572180, Control_c, 4, 11, 122
6, 572220, Control_c, 4, 11, 123
6, 572270, Control_c, 4, 11, 124
6, 572310, Control_c, 4, 11, 125
6, 572360, Control_c, 4, 11, 126
6, 572400, Control_c, 4, 11, 127
6, 572450, Control_c, 4, 11, 126
6, 572490, Control_c, 4, 11, 125
6, 572540, Control_c, 4, 11, 124
6, 572580, Control_c, 4, 11, 123
6, 572630, Control_c, 4, 11, 122
6, 572670, Control_c, 4, 11, 121
6, 572720, Control_c, 4, 11, 120
6, 572760, Control_c, 4, 11, 119
6, 572810, Control_c, 4, 11, 118
6, 572850, Control_c, 4, 11, 117
6, 572900, Control_c, 4, 11, 116
6, 572940, Control_c, 4, 11, 115
6, 572990, Control_c, 4, 11, 114
6, 573030, Control_c, 4, 11, 113
6, 573080, Control_c, 4, 11, 112
6, 573120, Control_c, 4, 11, 111
6, 573170, Control_c, 4, 11, 110
6, 573210, Control_c, 4, 11, 109
6, 573260, Control_c, 4, 11, 108
6, 573300, Control_c, 4, 11, 107
6, 573350, Control_c, 4, 11, 106
6, 573390, Control_c, 4, 11, 105
6, 573440, Control_c, 4, 11, 104
6, 573480, Control_c, 4, 11, 103
6, 573530, Control_c, 4, 11, 102
6, 573570, Control_c, 4, 11, 101
6, 573620, Control_c, 4, 11, 100
6, 573660, Control_c, 4, 11, 99
6, 573710, Control_c, 4, 11, 98
6, 573750, Control_c, 4, 11, 97
6, 573800, Control_c, 4, 11, 96
6, 573840, Control_c, 4, 11, 95
6, 573890, Control_c, 4, 11, 94
6, 573930, Control_c, 4, 11, 93
6, 573980, Control_c, 4, 11, 92
6, 574020, Control_c, 4, 11, 91
6, 574070, Control_c, 4, 11, 90
6, 574110, Control_c, 4, 11, 89
6, 574160, Control_c, 4, 11, 88
6, 574200, Control_c, 4, 11, 87
6, 574250, Control_c, 4, 11, 86
6, 574290, Control_c, 4, 11, 85
6, 574340, Control_c, 4, 11, 84
6, 574380, Control_c, 4, 11, 83
6, 574430, Control_c, 4, 11, 82
6, 574470, Control_c, 4, 11, 81
6, 574520, Control_c, 4, 11, 80
6, 575160, Note_on_c, 4, 65, 0
6, 589920, Note_on_c, 4, 46, 30
6, 589920, Note_on_c, 4, 58, 30
6, 594000, Note_on_c, 4, 46, 0
6, 594000, Note_on_c, 4, 58, 0
6, 595680, Note_on_c, 4, 46, 41
6, 595680, Note_on_c, 4, 58, 41
6, 599760, Note_on_c, 4, 46, 0
6, 599760, Note_on_c, 4, 58, 0
6, 601440, Note_on_c, 4, 46, 54
6, 601440, Note_on_c, 4, 58, 54
6, 607110, Note_on_c, 4, 46, 0
6, 607110, Note_on_c, 4, 58, 0
6, 607200, Note_on_c, 4, 46, 67
6, 607200, Note_on_c, 4, 58, 67
6, 607590, Note_on_c, 4, 46, 0
6, 607590, Note_on_c, 4, 58, 0
6, 607680, Note_on_c, 4, 41, 68
6, 607680, Note_on_c, 4, 53, 68
6, 608550, Note_on_c, 4, 41, 0
6, 608550, Note_on_c, 4, 53, 0
6, 608640, Note_on_c, 4, 41, 70
6, 608640, Note_on_c, 4, 53, 70
6, 609030, Note_on_c, 4, 41, 0
6, 609030, Note_on_c, 4, 53, 0
6, 609120, Note_on_c, 4, 41, 71
6, 609120, Note_on_c, 4, 53, 71
6, 609990, Note_on_c, 4, 41, 0
6, 609990, Note_on_c, 4, 53, 0
6, 610080, Note_on_c, 4, 41, 73
6, 610080, Note_on_c, 4, 53, 73
6, 610470, Note_on_c, 4, 41, 0
6, 610470, Note_on_c, 4, 53, 0
6, 610560, Note_on_c, 4, 46, 74
6, 610560, Note_on_c, 4, 53, 74
6, 611160, Note_on_c, 4, 46, 0
6, 611160, Note_on_c, 4, 53, 0
6, 612960, Note_on_c, 4, 46, 80
6, 612960, Note_on_c, 4, 58, 80
6, 613350, Note_on_c, 4, 46, 0
6, 613350, Note_on_c, 4, 58, 0
6, 613440, Note_on_c, 4, 46, 80
6, 613440, Note_on_c, 4, 58, 80
6, 614310, Note_on_c, 4, 46, 0
6, 614310, Note_on_c, 4, 58, 0
6, 614400, Note_on_c, 4, 46, 80
6, 614400, Note_on_c, 4, 58, 80
6, 614790, Note_on_c, 4, 46, 0
6, 614790, Note_on_c, 4, 58, 0
6, 614880, Note_on_c, 4, 46, 80
6, 614880, Note_on_c, 4, 58, 80
6, 615750, Note_on_c, 4, 46, 0
6, 615750, Note_on_c, 4, 58, 0
6, 615840, Note_on_c, 4, 46, 80
6, 615840, Note_on_c, 4, 58, 80
6, 616230, Note_on_c, 4, 46, 0
6, 616230, Note_on_c, 4, 58, 0
6, 616320, Note_on_c, 4, 46, 80
6, 616320, Note_on_c, 4, 58, 80
6, 616320, Control_c, 4, 11, 80
6, 616380, Control_c, 4, 11, 87
6, 616440, Control_c, 4, 11, 95
6, 616500, Control_c, 4, 11, 102
6, 616620, Control_c, 4, 11, 110
6, 616680, Control_c, 4, 11, 107
6, 616740, Control_c, 4, 11, 106
6, 616800, Control_c, 4, 11, 104
6, 616860, Control_c, 4, 11, 103
6, 616920, Control_c, 4, 11, 101
6, 616980, Control_c, 4, 11, 100
6, 617040, Control_c, 4, 11, 98
6, 617100, Control_c, 4, 11, 97
6, 617160, Control_c, 4, 11, 95
6, 617220, Control_c, 4, 11, 93
6, 617280, Control_c, 4, 11, 92
6, 617340, Control_c, 4, 11, 90
6, 617400, Control_c, 4, 11, 89
6, 617460, Control_c, 4, 11, 87
6, 617520, Control_c, 4, 11, 86
6, 617580, Control_c, 4, 11, 84
6, 617640, Control_c, 4, 11, 82
6, 617700, Control_c, 4, 11, 80
6, 618630, Note_on_c, 4, 46, 0
6, 618630, Note_on_c, 4, 58, 0
6, 618720, Note_on_c, 4, 46, 80
6, 618720, Note_on_c, 4, 58, 80
6, 619200, Note_on_c, 4, 53, 80
6, 619200, Note_on_c, 4, 60, 80
6, 619230, Note_on_c, 4, 46, 0
6, 619230, Note_on_c, 4, 58, 0
6, 619650, Note_on_c, 4, 53, 0
6, 619650, Note_on_c, 4, 60, 0
6, 620160, Note_on_c, 4, 53, 80
6, 620160, Note_on_c, 4, 60, 80
6, 620550, Note_on_c, 4, 53, 0
6, 620550, Note_on_c, 4, 60, 0
6, 620640, Note_on_c, 4, 53, 80
6, 620640, Note_on_c, 4, 60, 80
6, 621510, Note_on_c, 4, 53, 0
6, 621510, Note_on_c, 4, 60, 0
6, 621600, Note_on_c, 4, 53, 80
6, 621600, Note_on_c, 4, 60, 80
6, 622050, Note_on_c, 4, 53, 0
6, 622050, Note_on_c, 4, 60, 0
6, 622080, Note_on_c, 4, 58, 80
6, 622080, Note_on_c, 4, 62, 80
6, 622680, Note_on_c, 4, 58, 0
6, 622680, Note_on_c, 4, 62, 0
6, 624480, Note_on_c, 4, 58, 80
6, 624480, Note_on_c, 4, 62, 80
6, 624960, Note_on_c, 4, 53, 80
6, 624960, Note_on_c, 4, 60, 80
6, 624990, Note_on_c, 4, 58, 0
6, 624990, Note_on_c, 4, 62, 0
6, 625410, Note_on_c, 4, 53, 0
6, 625410, Note_on_c, 4, 60, 0
6, 627360, Note_on_c, 4, 53, 80
6, 627360, Note_on_c, 4, 60, 80
6, 627840, Note_on_c, 4, 58, 80
6, 627840, Note_on_c, 4, 62, 80
6, 627870, Note_on_c, 4, 53, 0
6, 627870, Note_on_c, 4, 60, 0
6, 628290, Note_on_c, 4, 58, 0
6, 628290, Note_on_c, 4, 62, 0
6, 630240, Note_on_c, 4, 58, 55
6, 630240, Note_on_c, 4, 62, 55
6, 630720, Note_on_c, 4, 53, 50
6, 630720, Note_on_c, 4, 60, 50
6, 630750, Note_on_c, 4, 58, 0
6, 630750, Note_on_c, 4, 62, 0
6, 631170, Note_on_c, 4, 53, 0
6, 631170, Note_on_c, 4, 60, 0
6, 633120, Note_on_c, 4, 53, 30
6, 633120, Note_on_c, 4, 60, 30
6, 633600, Note_on_c, 4, 50, 30
6, 633600, Note_on_c, 4, 58, 30
6, 633630, Note_on_c, 4, 53, 0
6, 633630, Note_on_c, 4, 60, 0
6, 634050, Note_on_c, 4, 50, 0
6, 634050, Note_on_c, 4, 58, 0
6, 635040, Note_on_c, 4, 50, 30
6, 635040, Note_on_c, 4, 58, 30
6, 635490, Note_on_c, 4, 50, 0
6, 635490, Note_on_c, 4, 58, 0
6, 636480, Note_on_c, 4, 50, 30
6, 636480, Note_on_c, 4, 58, 30
6, 636930, Note_on_c, 4, 50, 0
6, 636930, Note_on_c, 4, 58, 0
6, 637920, Note_on_c, 4, 50, 30
6, 637920, Note_on_c, 4, 58, 30
6, 638370, Note_on_c, 4, 50, 0
6, 638370, Note_on_c, 4, 58, 0
6, 639360, Note_on_c, 4, 50, 30
6, 639360, Note_on_c, 4, 58, 30
6, 639810, Note_on_c, 4, 50, 0
6, 639810, Note_on_c, 4, 58, 0
6, 644640, Note_on_c, 4, 53, 60
6, 644640, Note_on_c, 4, 60, 60
6, 645120, Note_on_c, 4, 50, 70
6, 645120, Note_on_c, 4, 58, 70
6, 645150, Note_on_c, 4, 53, 0
6, 645150, Note_on_c, 4, 60, 0
6, 645330, Note_on_c, 4, 50, 0
6, 645330, Note_on_c, 4, 58, 0
6, 645600, Note_on_c, 4, 50, 70
6, 645600, Note_on_c, 4, 58, 70
6, 646290, Note_on_c, 4, 50, 0
6, 646290, Note_on_c, 4, 58, 0
6, 646560, Note_on_c, 4, 50, 70
6, 646560, Note_on_c, 4, 58, 70
6, 647250, Note_on_c, 4, 50, 0
6, 647250, Note_on_c, 4, 58, 0
6, 647520, Note_on_c, 4, 50, 70
6, 647520, Note_on_c, 4, 58, 70
6, 647730, Note_on_c, 4, 50, 0
6, 647730, Note_on_c, 4, 58, 0
6, 648000, Note_on_c, 4, 53, 70
6, 648000, Note_on_c, 4, 60, 70
6, 648690, Note_on_c, 4, 53, 0
6, 648690, Note_on_c, 4, 60, 0
6, 648960, Note_on_c, 4, 53, 70
6, 648960, Note_on_c, 4, 60, 70
6, 649110, Note_on_c, 4, 53, 0
6, 649110, Note_on_c, 4, 60, 0
6, 649440, Note_on_c, 4, 53, 70
6, 649440, Note_on_c, 4, 60, 70
6, 650040, Note_on_c, 4, 53, 0
6, 650040, Note_on_c, 4, 60, 0
6, 665280, Note_on_c, 4, 41, 40
6, 670470, Note_on_c, 4, 41, 0
6, 670560, Note_on_c, 4, 41, 70
6, 670770, Note_on_c, 4, 41, 0
6, 671040, Note_on_c, 4, 41, 40
6, 676230, Note_on_c, 4, 41, 0
6, 676320, Note_on_c, 4, 41, 70
6, 676530, Note_on_c, 4, 41, 0
6, 676800, Note_on_c, 4, 41, 60
6, 677010, Note_on_c, 4, 41, 0
6, 677280, Note_on_c, 4, 53, 70
6, 677280, Note_on_c, 4, 65, 70
6, 678150, Note_on_c, 4, 53, 0
6, 678150, Note_on_c, 4, 65, 0
6, 678240, Note_on_c, 4, 46, 70
6, 678240, Note_on_c, 4, 58, 70
6, 679110, Note_on_c, 4, 46, 0
6, 679110, Note_on_c, 4, 58, 0
6, 679200, Note_on_c, 4, 46, 70
6, 679200, Note_on_c, 4, 58, 70
6, 679410, Note_on_c, 4, 46, 0
6, 679410, Note_on_c, 4, 58, 0
6, 679680, Note_on_c, 4, 53, 70
6, 679680, Note_on_c, 4, 65, 70
6, 681030, Note_on_c, 4, 53, 0
6, 681030, Note_on_c, 4, 65, 0
6, 681120, Note_on_c, 4, 53, 70
6, 681120, Note_on_c, 4, 65, 70
6, 682470, Note_on_c, 4, 53, 0
6, 682470, Note_on_c, 4, 65, 0
6, 682560, Note_on_c, 4, 50, 70
6, 682560, Note_on_c, 4, 58, 70
6, 685350, Note_on_c, 4, 50, 0
6, 685350, Note_on_c, 4, 58, 0
6, 685440, Note_on_c, 4, 53, 70
6, 685440, Note_on_c, 4, 60, 70
6, 688230, Note_on_c, 4, 53, 0
6, 688230, Note_on_c, 4, 60, 0
6, 688320, Note_on_c, 4, 50, 70
6, 688320, Note_on_c, 4, 58, 70
6, 691110, Note_on_c, 4, 50, 0
6, 691110, Note_on_c, 4, 58, 0
6, 691200, Note_on_c, 4, 53, 70
6, 691200, Note_on_c, 4, 60, 70
6, 693990, Note_on_c, 4, 53, 0
6, 693990, Note_on_c, 4, 60, 0
6, 694080, Note_on_c, 4, 50, 70
6, 694080, Note_on_c, 4, 58, 70
6, 695310, Note_on_c, 4, 50, 0
6, 695310, Note_on_c, 4, 58, 0
6, 695520, Note_on_c, 4, 50, 70
6, 695520, Note_on_c, 4, 62, 70
6, 696750, Note_on_c, 4, 50, 0
6, 696750, Note_on_c, 4, 62, 0
6, 696960, Note_on_c, 4, 50, 70
6, 696960, Note_on_c, 4, 65, 70
6, 697170, Note_on_c, 4, 50, 0
6, 697170, Note_on_c, 4, 65, 0
6, 697440, Note_on_c, 4, 50, 70
6, 697440, Note_on_c, 4, 65, 70
6, 697650, Note_on_c, 4, 50, 0
6, 697650, Note_on_c, 4, 65, 0
6, 697920, Note_on_c, 4, 50, 70
6, 697920, Note_on_c, 4, 65, 70
6, 698100, Note_on_c, 4, 50, 0
6, 698100, Note_on_c, 4, 65, 0
6, 698400, Note_on_c, 4, 50, 70
6, 698400, Note_on_c, 4, 58, 70
6, 698880, Note_on_c, 4, 50, 60
6, 698880, Note_on_c, 4, 58, 60
6, 699000, Note_on_c, 4, 50, 0
6, 699000, Note_on_c, 4, 50, 0
6, 699000, Note_on_c, 4, 58, 0
6, 699000, Note_on_c, 4, 58, 0
6, 699360, Note_on_c, 4, 50, 60
6, 699360, Note_on_c, 4, 58, 60
6, 699750, Note_on_c, 4, 50, 0
6, 699750, Note_on_c, 4, 58, 0
6, 699840, Note_on_c, 4, 50, 50
6, 699840, Note_on_c, 4, 58, 110
6, 701070, Note_on_c, 4, 50, 0
6, 701070, Note_on_c, 4, 58, 0
6, 701280, Note_on_c, 4, 53, 60
6, 701280, Note_on_c, 4, 60, 110
6, 702390, Note_on_c, 4, 53, 0
6, 702390, Note_on_c, 4, 60, 0
6, 702720, Note_on_c, 4, 50, 70
6, 702720, Note_on_c, 4, 58, 127
6, 703170, Note_on_c, 4, 50, 0
6, 703170, Note_on_c, 4, 58, 0
6, 703170, End_track
7, 0, Start_track
7, 0, Channel_prefix, 5
7, 0, Title_t, "Trumpet in Bb"
7, 0, Instrument_name_t, "Trombe in B"
7, 2880, Note_on_c, 5, 58, 120
7, 2880, Note_on_c, 5, 70, 120
7, 3090, Note_on_c, 5, 58, 0
7, 3090, Note_on_c, 5, 70, 0
7, 3360, Note_on_c, 5, 58, 120
7, 3360, Note_on_c, 5, 70, 120
7, 3810, Note_on_c, 5, 58, 0
7, 3810, Note_on_c, 5, 70, 0
7, 4320, Note_on_c, 5, 58, 120
7, 4320, Note_on_c, 5, 70, 120
7, 4770, Note_on_c, 5, 58, 0
7, 4770, Note_on_c, 5, 70, 0
7, 5280, Note_on_c, 5, 58, 120
7, 5280, Note_on_c, 5, 70, 120
7, 5430, Note_on_c, 5, 58, 0
7, 5430, Note_on_c, 5, 70, 0
7, 5760, Note_on_c, 5, 53, 120
7, 5760, Note_on_c, 5, 65, 120
7, 6210, Note_on_c, 5, 53, 0
7, 6210, Note_on_c, 5, 65, 0
7, 6720, Note_on_c, 5, 53, 120
7, 6720, Note_on_c, 5, 65, 120
7, 6870, Note_on_c, 5, 53, 0
7, 6870, Note_on_c, 5, 65, 0
7, 7200, Note_on_c, 5, 53, 120
7, 7200, Note_on_c, 5, 65, 120
7, 7800, Note_on_c, 5, 53, 0
7, 7800, Note_on_c, 5, 65, 0
7, 25440, Note_on_c, 5, 72, 100
7, 25590, Note_on_c, 5, 72, 0
7, 25920, Note_on_c, 5, 53, 115
7, 25920, Note_on_c, 5, 65, 115
7, 27090, Note_on_c, 5, 53, 0
7, 27090, Note_on_c, 5, 65, 0
7, 27360, Note_on_c, 5, 53, 115
7, 27360, Note_on_c, 5, 65, 115
7, 28530, Note_on_c, 5, 53, 0
7, 28530, Note_on_c, 5, 65, 0
7, 28800, Note_on_c, 5, 53, 115
7, 28800, Note_on_c, 5, 65, 115
7, 29010, Note_on_c, 5, 53, 0
7, 29010, Note_on_c, 5, 65, 0
7, 29280, Note_on_c, 5, 53, 115
7, 29280, Note_on_c, 5, 65, 115
7, 29490, Note_on_c, 5, 53, 0
7, 29490, Note_on_c, 5, 65, 0
7, 29760, Note_on_c, 5, 53, 115
7, 29760, Note_on_c, 5, 65, 115
7, 29940, Note_on_c, 5, 53, 0
7, 29940, Note_on_c, 5, 65, 0
7, 30240, Note_on_c, 5, 53, 115
7, 30240, Note_on_c, 5, 65, 115
7, 30600, Note_on_c, 5, 53, 0
7, 30600, Note_on_c, 5, 65, 0
7, 31680, Note_on_c, 5, 58, 120
7, 31680, Note_on_c, 5, 70, 120
7, 31890, Note_on_c, 5, 58, 0
7, 31890, Note_on_c, 5, 70, 0
7, 32160, Note_on_c, 5, 58, 120
7, 32160, Note_on_c, 5, 70, 120
7, 32610, Note_on_c, 5, 58, 0
7, 32610, Note_on_c, 5, 70, 0
7, 33120, Note_on_c, 5, 58, 120
7, 33120, Note_on_c, 5, 70, 120
7, 33570, Note_on_c, 5, 58, 0
7, 33570, Note_on_c, 5, 70, 0
7, 34080, Note_on_c, 5, 58, 120
7, 34080, Note_on_c, 5, 70, 120
7, 34230, Note_on_c, 5, 58, 0
7, 34230, Note_on_c, 5, 70, 0
7, 34560, Note_on_c, 5, 53, 120
7, 34560, Note_on_c, 5, 65, 120
7, 35010, Note_on_c, 5, 53, 0
7, 35010, Note_on_c, 5, 65, 0
7, 35520, Note_on_c, 5, 53, 120
7, 35520, Note_on_c, 5, 65, 120
7, 35670, Note_on_c, 5, 53, 0
7, 35670, Note_on_c, 5, 65, 0
7, 36000, Note_on_c, 5, 53, 120
7, 36000, Note_on_c, 5, 65, 120
7, 36600, Note_on_c, 5, 53, 0
7, 36600, Note_on_c, 5, 65, 0
7, 54240, Note_on_c, 5, 72, 100
7, 54390, Note_on_c, 5, 72, 0
7, 54720, Note_on_c, 5, 53, 115
7, 54720, Note_on_c, 5, 65, 115
7, 55890, Note_on_c, 5, 53, 0
7, 55890, Note_on_c, 5, 65, 0
7, 56160, Note_on_c, 5, 53, 115
7, 56160, Note_on_c, 5, 65, 115
7, 57330, Note_on_c, 5, 53, 0
7, 57330, Note_on_c, 5, 65, 0
7, 57600, Note_on_c, 5, 53, 115
7, 57600, Note_on_c, 5, 65, 115
7, 57810, Note_on_c, 5, 53, 0
7, 57810, Note_on_c, 5, 65, 0
7, 58080, Note_on_c, 5, 53, 115
7, 58080, Note_on_c, 5, 65, 115
7, 58290, Note_on_c, 5, 53, 0
7, 58290, Note_on_c, 5, 65, 0
7, 58560, Note_on_c, 5, 53, 115
7, 58560, Note_on_c, 5, 65, 115
7, 58740, Note_on_c, 5, 53, 0
7, 58740, Note_on_c, 5, 65, 0
7, 59040, Note_on_c, 5, 53, 115
7, 59040, Note_on_c, 5, 65, 115
7, 59400, Note_on_c, 5, 53, 0
7, 59400, Note_on_c, 5, 65, 0
7, 106080, Note_on_c, 5, 53, 110
7, 106080, Note_on_c, 5, 65, 110
7, 106560, Note_on_c, 5, 58, 120
7, 106560, Note_on_c, 5, 70, 120
7, 106590, Note_on_c, 5, 53, 0
7, 106590, Note_on_c, 5, 65, 0
7, 106770, Note_on_c, 5, 58, 0
7, 106770, Note_on_c, 5, 70, 0
7, 107040, Note_on_c, 5, 58, 120
7, 107040, Note_on_c, 5, 70, 120
7, 107250, Note_on_c, 5, 58, 0
7, 107250, Note_on_c, 5, 70, 0
7, 108000, Note_on_c, 5, 58, 120
7, 108000, Note_on_c, 5, 70, 120
7, 108210, Note_on_c, 5, 58, 0
7, 108210, Note_on_c, 5, 70, 0
7, 108960, Note_on_c, 5, 58, 120
7, 108960, Note_on_c, 5, 70, 120
7, 109170, Note_on_c, 5, 58, 0
7, 109170, Note_on_c, 5, 70, 0
7, 109440, Note_on_c, 5, 53, 120
7, 109440, Note_on_c, 5, 65, 120
7, 110130, Note_on_c, 5, 53, 0
7, 110130, Note_on_c, 5, 65, 0
7, 110400, Note_on_c, 5, 53, 120
7, 110400, Note_on_c, 5, 65, 120
7, 110550, Note_on_c, 5, 53, 0
7, 110550, Note_on_c, 5, 65, 0
7, 110880, Note_on_c, 5, 53, 120
7, 110880, Note_on_c, 5, 65, 120
7, 111480, Note_on_c, 5, 53, 0
7, 111480, Note_on_c, 5, 65, 0
7, 138720, Note_on_c, 5, 65, 120
7, 139590, Note_on_c, 5, 65, 0
7, 139680, Note_on_c, 5, 58, 120
7, 139680, Note_on_c, 5, 70, 120
7, 140550, Note_on_c, 5, 58, 0
7, 140550, Note_on_c, 5, 70, 0
7, 140640, Note_on_c, 5, 58, 120
7, 140640, Note_on_c, 5, 70, 120
7, 140850, Note_on_c, 5, 58, 0
7, 140850, Note_on_c, 5, 70, 0
7, 141120, Note_on_c, 5, 53, 120
7, 141120, Note_on_c, 5, 65, 120
7, 142470, Note_on_c, 5, 53, 0
7, 142470, Note_on_c, 5, 65, 0
7, 142560, Note_on_c, 5, 53, 120
7, 142560, Note_on_c, 5, 65, 120
7, 143910, Note_on_c, 5, 53, 0
7, 143910, Note_on_c, 5, 65, 0
7, 144000, Note_on_c, 5, 58, 120
7, 144000, Note_on_c, 5, 70, 120
7, 146790, Note_on_c, 5, 58, 0
7, 146790, Note_on_c, 5, 70, 0
7, 146880, Note_on_c, 5, 53, 120
7, 146880, Note_on_c, 5, 65, 120
7, 149190, Note_on_c, 5, 53, 0
7, 149190, Note_on_c, 5, 65, 0
7, 149280, Note_on_c, 5, 53, 120
7, 149280, Note_on_c, 5, 65, 120
7, 149490, Note_on_c, 5, 53, 0
7, 149490, Note_on_c, 5, 65, 0
7, 149760, Note_on_c, 5, 58, 120
7, 149760, Note_on_c, 5, 70, 120
7, 152550, Note_on_c, 5, 58, 0
7, 152550, Note_on_c, 5, 70, 0
7, 152640, Note_on_c, 5, 53, 120
7, 152640, Note_on_c, 5, 65, 120
7, 154950, Note_on_c, 5, 53, 0
7, 154950, Note_on_c, 5, 65, 0
7, 155040, Note_on_c, 5, 53, 120
7, 155040, Note_on_c, 5, 65, 120
7, 155250, Note_on_c, 5, 53, 0
7, 155250, Note_on_c, 5, 65, 0
7, 155520, Note_on_c, 5, 58, 120
7, 155520, Note_on_c, 5, 70, 120
7, 156750, Note_on_c, 5, 58, 0
7, 156750, Note_on_c, 5, 70, 0
7, 156960, Note_on_c, 5, 58, 120
7, 156960, Note_on_c, 5, 70, 120
7, 158190, Note_on_c, 5, 58, 0
7, 158190, Note_on_c, 5, 70, 0
7, 158400, Note_on_c, 5, 58, 120
7, 158400, Note_on_c, 5, 70, 120
7, 158610, Note_on_c, 5, 58, 0
7, 158610, Note_on_c, 5, 70, 0
7, 158880, Note_on_c, 5, 58, 120
7, 158880, Note_on_c, 5, 70, 120
7, 159090, Note_on_c, 5, 58, 0
7, 159090, Note_on_c, 5, 70, 0
7, 159360, Note_on_c, 5, 58, 120
7, 159360, Note_on_c, 5, 70, 120
7, 159540, Note_on_c, 5, 58, 0
7, 159540, Note_on_c, 5, 70, 0
7, 159840, Note_on_c, 5, 58, 120
7, 159840, Note_on_c, 5, 70, 120
7, 160440, Note_on_c, 5, 58, 0
7, 160440, Note_on_c, 5, 70, 0
7, 206880, Note_on_c, 5, 53, 110
7, 206880, Note_on_c, 5, 65, 110
7, 207360, Note_on_c, 5, 58, 120
7, 207360, Note_on_c, 5, 70, 120
7, 207390, Note_on_c, 5, 53, 0
7, 207390, Note_on_c, 5, 65, 0
7, 207570, Note_on_c, 5, 58, 0
7, 207570, Note_on_c, 5, 70, 0
7, 207840, Note_on_c, 5, 58, 120
7, 207840, Note_on_c, 5, 70, 120
7, 208050, Note_on_c, 5, 58, 0
7, 208050, Note_on_c, 5, 70, 0
7, 208800, Note_on_c, 5, 58, 120
7, 208800, Note_on_c, 5, 70, 120
7, 209010, Note_on_c, 5, 58, 0
7, 209010, Note_on_c, 5, 70, 0
7, 209760, Note_on_c, 5, 58, 120
7, 209760, Note_on_c, 5, 70, 120
7, 209970, Note_on_c, 5, 58, 0
7, 209970, Note_on_c, 5, 70, 0
7, 210240, Note_on_c, 5, 53, 120
7, 210240, Note_on_c, 5, 65, 120
7, 210930, Note_on_c, 5, 53, 0
7, 210930, Note_on_c, 5, 65, 0
7, 211200, Note_on_c, 5, 53, 120
7, 211200, Note_on_c, 5, 65, 120
7, 211350, Note_on_c, 5, 53, 0
7, 211350, Note_on_c, 5, 65, 0
7, 211680, Note_on_c, 5, 53, 120
7, 211680, Note_on_c, 5, 65, 120
7, 212280, Note_on_c, 5, 53, 0
7, 212280, Note_on_c, 5, 65, 0
7, 239520, Note_on_c, 5, 65, 120
7, 240390, Note_on_c, 5, 65, 0
7, 240480, Note_on_c, 5, 58, 120
7, 240480, Note_on_c, 5, 70, 120
7, 241350, Note_on_c, 5, 58, 0
7, 241350, Note_on_c, 5, 70, 0
7, 241440, Note_on_c, 5, 58, 120
7, 241440, Note_on_c, 5, 70, 120
7, 241650, Note_on_c, 5, 58, 0
7, 241650, Note_on_c, 5, 70, 0
7, 241920, Note_on_c, 5, 53, 120
7, 241920, Note_on_c, 5, 65, 120
7, 243270, Note_on_c, 5, 53, 0
7, 243270, Note_on_c, 5, 65, 0
7, 243360, Note_on_c, 5, 53, 120
7, 243360, Note_on_c, 5, 65, 120
7, 244710, Note_on_c, 5, 53, 0
7, 244710, Note_on_c, 5, 65, 0
7, 244800, Note_on_c, 5, 58, 120
7, 244800, Note_on_c, 5, 70, 120
7, 247590, Note_on_c, 5, 58, 0
7, 247590, Note_on_c, 5, 70, 0
7, 247680, Note_on_c, 5, 53, 120
7, 247680, Note_on_c, 5, 65, 120
7, 249990, Note_on_c, 5, 53, 0
7, 249990, Note_on_c, 5, 65, 0
7, 250080, Note_on_c, 5, 53, 120
7, 250080, Note_on_c, 5, 65, 120
7, 250290, Note_on_c, 5, 53, 0
7, 250290, Note_on_c, 5, 65, 0
7, 250560, Note_on_c, 5, 58, 120
7, 250560, Note_on_c, 5, 70, 120
7, 253350, Note_on_c, 5, 58, 0
7, 253350, Note_on_c, 5, 70, 0
7, 253440, Note_on_c, 5, 53, 120
7, 253440, Note_on_c, 5, 65, 120
7, 255750, Note_on_c, 5, 53, 0
7, 255750, Note_on_c, 5, 65, 0
7, 255840, Note_on_c, 5, 53, 120
7, 255840, Note_on_c, 5, 65, 120
7, 256050, Note_on_c, 5, 53, 0
7, 256050, Note_on_c, 5, 65, 0
7, 256320, Note_on_c, 5, 58, 120
7, 256320, Note_on_c, 5, 70, 120
7, 257550, Note_on_c, 5, 58, 0
7, 257550, Note_on_c, 5, 70, 0
7, 257760, Note_on_c, 5, 58, 120
7, 257760, Note_on_c, 5, 70, 120
7, 258990, Note_on_c, 5, 58, 0
7, 258990, Note_on_c, 5, 70, 0
7, 259200, Note_on_c, 5, 58, 120
7, 259200, Note_on_c, 5, 70, 120
7, 259410, Note_on_c, 5, 58, 0
7, 259410, Note_on_c, 5, 70, 0
7, 259680, Note_on_c, 5, 58, 120
7, 259680, Note_on_c, 5, 70, 120
7, 259890, Note_on_c, 5, 58, 0
7, 259890, Note_on_c, 5, 70, 0
7, 260160, Note_on_c, 5, 58, 120
7, 260160, Note_on_c, 5, 70, 120
7, 260340, Note_on_c, 5, 58, 0
7, 260340, Note_on_c, 5, 70, 0
7, 260640, Note_on_c, 5, 58, 120
7, 260640, Note_on_c, 5, 70, 120
7, 261240, Note_on_c, 5, 58, 0
7, 261240, Note_on_c, 5, 70, 0
7, 356640, Note_on_c, 5, 58, 127
7, 356640, Note_on_c, 5, 70, 127
7, 357030, Note_on_c, 5, 58, 0
7, 357030, Note_on_c, 5, 70, 0
7, 357120, Note_on_c, 5, 58, 127
7, 357120, Note_on_c, 5, 70, 127
7, 357990, Note_on_c, 5, 58, 0
7, 357990, Note_on_c, 5, 70, 0
7, 358080, Note_on_c, 5, 58, 127
7, 358080, Note_on_c, 5, 70, 127
7, 358470, Note_on_c, 5, 58, 0
7, 358470, Note_on_c, 5, 70, 0
7, 358560, Note_on_c, 5, 58, 127
7, 358560, Note_on_c, 5, 70, 127
7, 359430, Note_on_c, 5, 58, 0
7, 359430, Note_on_c, 5, 70, 0
7, 359520, Note_on_c, 5, 58, 127
7, 359520, Note_on_c, 5, 70, 127
7, 359910, Note_on_c, 5, 58, 0
7, 359910, Note_on_c, 5, 70, 0
7, 360000, Note_on_c, 5, 58, 127
7, 360000, Note_on_c, 5, 70, 127
7, 360000, Control_c, 5, 11, 80
7, 360060, Control_c, 5, 11, 87
7, 360120, Control_c, 5, 11, 95
7, 360180, Control_c, 5, 11, 102
7, 360300, Control_c, 5, 11, 110
7, 360360, Control_c, 5, 11, 107
7, 360420, Control_c, 5, 11, 106
7, 360480, Control_c, 5, 11, 104
7, 360540, Control_c, 5, 11, 103
7, 360600, Control_c, 5, 11, 101
7, 360660, Control_c, 5, 11, 100
7, 360720, Control_c, 5, 11, 98
7, 360780, Control_c, 5, 11, 97
7, 360840, Control_c, 5, 11, 95
7, 360900, Control_c, 5, 11, 93
7, 360960, Control_c, 5, 11, 92
7, 361020, Control_c, 5, 11, 90
7, 361080, Control_c, 5, 11, 89
7, 361140, Control_c, 5, 11, 87
7, 361200, Control_c, 5, 11, 86
7, 361260, Control_c, 5, 11, 84
7, 361320, Control_c, 5, 11, 82
7, 361380, Control_c, 5, 11, 80
7, 362310, Note_on_c, 5, 58, 0
7, 362310, Note_on_c, 5, 70, 0
7, 362400, Note_on_c, 5, 58, 127
7, 362400, Note_on_c, 5, 70, 127
7, 362790, Note_on_c, 5, 58, 0
7, 362790, Note_on_c, 5, 70, 0
7, 362880, Note_on_c, 5, 53, 127
7, 362880, Note_on_c, 5, 65, 127
7, 363330, Note_on_c, 5, 53, 0
7, 363330, Note_on_c, 5, 65, 0
7, 363840, Note_on_c, 5, 53, 127
7, 363840, Note_on_c, 5, 65, 127
7, 364230, Note_on_c, 5, 53, 0
7, 364230, Note_on_c, 5, 65, 0
7, 364320, Note_on_c, 5, 53, 127
7, 364320, Note_on_c, 5, 65, 127
7, 365190, Note_on_c, 5, 53, 0
7, 365190, Note_on_c, 5, 65, 0
7, 365280, Note_on_c, 5, 53, 127
7, 365280, Note_on_c, 5, 65, 127
7, 365730, Note_on_c, 5, 53, 0
7, 365730, Note_on_c, 5, 65, 0
7, 365760, Note_on_c, 5, 53, 127
7, 365760, Note_on_c, 5, 65, 127
7, 366360, Note_on_c, 5, 53, 0
7, 366360, Note_on_c, 5, 65, 0
7, 368160, Note_on_c, 5, 53, 127
7, 368160, Note_on_c, 5, 65, 127
7, 368550, Note_on_c, 5, 53, 0
7, 368550, Note_on_c, 5, 65, 0
7, 368640, Note_on_c, 5, 53, 127
7, 368640, Note_on_c, 5, 65, 127
7, 369090, Note_on_c, 5, 53, 0
7, 369090, Note_on_c, 5, 65, 0
7, 371040, Note_on_c, 5, 53, 127
7, 371040, Note_on_c, 5, 65, 127
7, 371430, Note_on_c, 5, 53, 0
7, 371430, Note_on_c, 5, 65, 0
7, 371520, Note_on_c, 5, 53, 127
7, 371520, Note_on_c, 5, 65, 127
7, 371970, Note_on_c, 5, 53, 0
7, 371970, Note_on_c, 5, 65, 0
7, 373920, Note_on_c, 5, 53, 95
7, 373920, Note_on_c, 5, 65, 95
7, 374310, Note_on_c, 5, 53, 0
7, 374310, Note_on_c, 5, 65, 0
7, 374400, Note_on_c, 5, 53, 89
7, 374400, Note_on_c, 5, 65, 89
7, 374850, Note_on_c, 5, 53, 0
7, 374850, Note_on_c, 5, 65, 0
7, 376800, Note_on_c, 5, 53, 57
7, 376800, Note_on_c, 5, 65, 57
7, 377190, Note_on_c, 5, 53, 0
7, 377190, Note_on_c, 5, 65, 0
7, 377280, Note_on_c, 5, 53, 50
7, 377280, Note_on_c, 5, 65, 50
7, 377730, Note_on_c, 5, 53, 0
7, 377730, Note_on_c, 5, 65, 0
7, 378720, Note_on_c, 5, 53, 50
7, 378720, Note_on_c, 5, 65, 50
7, 379170, Note_on_c, 5, 53, 0
7, 379170, Note_on_c, 5, 65, 0
7, 380160, Note_on_c, 5, 53, 50
7, 380160, Note_on_c, 5, 65, 50
7, 380610, Note_on_c, 5, 53, 0
7, 380610, Note_on_c, 5, 65, 0
7, 381600, Note_on_c, 5, 53, 50
7, 381600, Note_on_c, 5, 65, 50
7, 382050, Note_on_c, 5, 53, 0
7, 382050, Note_on_c, 5, 65, 0
7, 383040, Note_on_c, 5, 53, 50
7, 383040, Note_on_c, 5, 65, 50
7, 383490, Note_on_c, 5, 53, 0
7, 383490, Note_on_c, 5, 65, 0
7, 388320, Note_on_c, 5, 53, 113
7, 388320, Note_on_c, 5, 65, 113
7, 388800, Note_on_c, 5, 58, 120
7, 388800, Note_on_c, 5, 70, 120
7, 388830, Note_on_c, 5, 53, 0
7, 388830, Note_on_c, 5, 65, 0
7, 389010, Note_on_c, 5, 58, 0
7, 389010, Note_on_c, 5, 70, 0
7, 389280, Note_on_c, 5, 58, 120
7, 389280, Note_on_c, 5, 70, 120
7, 389970, Note_on_c, 5, 58, 0
7, 389970, Note_on_c, 5, 70, 0
7, 390240, Note_on_c, 5, 58, 120
7, 390240, Note_on_c, 5, 70, 120
7, 390690, Note_on_c, 5, 58, 0
7, 390690, Note_on_c, 5, 70, 0
7, 391200, Note_on_c, 5, 58, 120
7, 391200, Note_on_c, 5, 70, 120
7, 391350, Note_on_c, 5, 58, 0
7, 391350, Note_on_c, 5, 70, 0
7, 391680, Note_on_c, 5, 53, 120
7, 391680, Note_on_c, 5, 65, 120
7, 392130, Note_on_c, 5, 53, 0
7, 392130, Note_on_c, 5, 65, 0
7, 392640, Note_on_c, 5, 53, 120
7, 392640, Note_on_c, 5, 65, 120
7, 392790, Note_on_c, 5, 53, 0
7, 392790, Note_on_c, 5, 65, 0
7, 393120, Note_on_c, 5, 53, 120
7, 393120, Note_on_c, 5, 65, 120
7, 393720, Note_on_c, 5, 53, 0
7, 393720, Note_on_c, 5, 65, 0
7, 411360, Note_on_c, 5, 72, 100
7, 411510, Note_on_c, 5, 72, 0
7, 411840, Note_on_c, 5, 53, 115
7, 411840, Note_on_c, 5, 65, 115
7, 413010, Note_on_c, 5, 53, 0
7, 413010, Note_on_c, 5, 65, 0
7, 413280, Note_on_c, 5, 53, 115
7, 413280, Note_on_c, 5, 65, 115
7, 414450, Note_on_c, 5, 53, 0
7, 414450, Note_on_c, 5, 65, 0
7, 414720, Note_on_c, 5, 53, 115
7, 414720, Note_on_c, 5, 65, 115
7, 414930, Note_on_c, 5, 53, 0
7, 414930, Note_on_c, 5, 65, 0
7, 415200, Note_on_c, 5, 53, 115
7, 415200, Note_on_c, 5, 65, 115
7, 415410, Note_on_c, 5, 53, 0
7, 415410, Note_on_c, 5, 65, 0
7, 415680, Note_on_c, 5, 53, 115
7, 415680, Note_on_c, 5, 65, 115
7, 415860, Note_on_c, 5, 53, 0
7, 415860, Note_on_c, 5, 65, 0
7, 416160, Note_on_c, 5, 53, 115
7, 416160, Note_on_c, 5, 65, 115
7, 416520, Note_on_c, 5, 53, 0
7, 416520, Note_on_c, 5, 65, 0
7, 463200, Note_on_c, 5, 53, 110
7, 463200, Note_on_c, 5, 65, 110
7, 463680, Note_on_c, 5, 58, 120
7, 463680, Note_on_c, 5, 70, 120
7, 463710, Note_on_c, 5, 53, 0
7, 463710, Note_on_c, 5, 65, 0
7, 463890, Note_on_c, 5, 58, 0
7, 463890, Note_on_c, 5, 70, 0
7, 464160, Note_on_c, 5, 58, 120
7, 464160, Note_on_c, 5, 70, 120
7, 464370, Note_on_c, 5, 58, 0
7, 464370, Note_on_c, 5, 70, 0
7, 465120, Note_on_c, 5, 58, 120
7, 465120, Note_on_c, 5, 70, 120
7, 465330, Note_on_c, 5, 58, 0
7, 465330, Note_on_c, 5, 70, 0
7, 466080, Note_on_c, 5, 58, 120
7, 466080, Note_on_c, 5, 70, 120
7, 466290, Note_on_c, 5, 58, 0
7, 466290, Note_on_c, 5, 70, 0
7, 466560, Note_on_c, 5, 53, 120
7, 466560, Note_on_c, 5, 65, 120
7, 467250, Note_on_c, 5, 53, 0
7, 467250, Note_on_c, 5, 65, 0
7, 467520, Note_on_c, 5, 53, 120
7, 467520, Note_on_c, 5, 65, 120
7, 467670, Note_on_c, 5, 53, 0
7, 467670, Note_on_c, 5, 65, 0
7, 468000, Note_on_c, 5, 53, 120
7, 468000, Note_on_c, 5, 65, 120
7, 468600, Note_on_c, 5, 53, 0
7, 468600, Note_on_c, 5, 65, 0
7, 495840, Note_on_c, 5, 65, 120
7, 496710, Note_on_c, 5, 65, 0
7, 496800, Note_on_c, 5, 58, 120
7, 496800, Note_on_c, 5, 70, 120
7, 497670, Note_on_c, 5, 58, 0
7, 497670, Note_on_c, 5, 70, 0
7, 497760, Note_on_c, 5, 58, 120
7, 497760, Note_on_c, 5, 70, 120
7, 497970, Note_on_c, 5, 58, 0
7, 497970, Note_on_c, 5, 70, 0
7, 498240, Note_on_c, 5, 53, 120
7, 498240, Note_on_c, 5, 65, 120
7, 499590, Note_on_c, 5, 53, 0
7, 499590, Note_on_c, 5, 65, 0
7, 499680, Note_on_c, 5, 53, 120
7, 499680, Note_on_c, 5, 65, 120
7, 501030, Note_on_c, 5, 53, 0
7, 501030, Note_on_c, 5, 65, 0
7, 501120, Note_on_c, 5, 58, 120
7, 501120, Note_on_c, 5, 70, 120
7, 503910, Note_on_c, 5, 58, 0
7, 503910, Note_on_c, 5, 70, 0
7, 504000, Note_on_c, 5, 53, 120
7, 504000, Note_on_c, 5, 65, 120
7, 506310, Note_on_c, 5, 53, 0
7, 506310, Note_on_c, 5, 65, 0
7, 506400, Note_on_c, 5, 53, 120
7, 506400, Note_on_c, 5, 65, 120
7, 506610, Note_on_c, 5, 53, 0
7, 506610, Note_on_c, 5, 65, 0
7, 506880, Note_on_c, 5, 58, 120
7, 506880, Note_on_c, 5, 70, 120
7, 509670, Note_on_c, 5, 58, 0
7, 509670, Note_on_c, 5, 70, 0
7, 509760, Note_on_c, 5, 53, 120
7, 509760, Note_on_c, 5, 65, 120
7, 512070, Note_on_c, 5, 53, 0
7, 512070, Note_on_c, 5, 65, 0
7, 512160, Note_on_c, 5, 53, 120
7, 512160, Note_on_c, 5, 65, 120
7, 512370, Note_on_c, 5, 53, 0
7, 512370, Note_on_c, 5, 65, 0
7, 512640, Note_on_c, 5, 58, 120
7, 512640, Note_on_c, 5, 70, 120
7, 513870, Note_on_c, 5, 58, 0
7, 513870, Note_on_c, 5, 70, 0
7, 514080, Note_on_c, 5, 58, 120
7, 514080, Note_on_c, 5, 70, 120
7, 515310, Note_on_c, 5, 58, 0
7, 515310, Note_on_c, 5, 70, 0
7, 515520, Note_on_c, 5, 58, 120
7, 515520, Note_on_c, 5, 70, 120
7, 515730, Note_on_c, 5, 58, 0
7, 515730, Note_on_c, 5, 70, 0
7, 516000, Note_on_c, 5, 58, 120
7, 516000, Note_on_c, 5, 70, 120
7, 516210, Note_on_c, 5, 58, 0
7, 516210, Note_on_c, 5, 70, 0
7, 516480, Note_on_c, 5, 58, 120
7, 516480, Note_on_c, 5, 70, 120
7, 516660, Note_on_c, 5, 58, 0
7, 516660, Note_on_c, 5, 70, 0
7, 516960, Note_on_c, 5, 58, 120
7, 516960, Note_on_c, 5, 70, 120
7, 517560, Note_on_c, 5, 58, 0
7, 517560, Note_on_c, 5, 70, 0
7, 612960, Note_on_c, 5, 58, 127
7, 612960, Note_on_c, 5, 70, 127
7, 613350, Note_on_c, 5, 58, 0
7, 613350, Note_on_c, 5, 70, 0
7, 613440, Note_on_c, 5, 58, 127
7, 613440, Note_on_c, 5, 70, 127
7, 614310, Note_on_c, 5, 58, 0
7, 614310, Note_on_c, 5, 70, 0
7, 614400, Note_on_c, 5, 58, 127
7, 614400, Note_on_c, 5, 70, 127
7, 614790, Note_on_c, 5, 58, 0
7, 614790, Note_on_c, 5, 70, 0
7, 614880, Note_on_c, 5, 58, 127
7, 614880, Note_on_c, 5, 70, 127
7, 615750, Note_on_c, 5, 58, 0
7, 615750, Note_on_c, 5, 70, 0
7, 615840, Note_on_c, 5, 58, 127
7, 615840, Note_on_c, 5, 70, 127
7, 616230, Note_on_c, 5, 58, 0
7, 616230, Note_on_c, 5, 70, 0
7, 616320, Note_on_c, 5, 58, 127
7, 616320, Note_on_c, 5, 70, 127
7, 616320, Control_c, 5, 11, 80
7, 616380, Control_c, 5, 11, 87
7, 616440, Control_c, 5, 11, 95
7, 616500, Control_c, 5, 11, 102
7, 616620, Control_c, 5, 11, 110
7, 616680, Control_c, 5, 11, 107
7, 616740, Control_c, 5, 11, 106
7, 616800, Control_c, 5, 11, 104
7, 616860, Control_c, 5, 11, 103
7, 616920, Control_c, 5, 11, 101
7, 616980, Control_c, 5, 11, 100
7, 617040, Control_c, 5, 11, 98
7, 617100, Control_c, 5, 11, 97
7, 617160, Control_c, 5, 11, 95
7, 617220, Control_c, 5, 11, 93
7, 617280, Control_c, 5, 11, 92
7, 617340, Control_c, 5, 11, 90
7, 617400, Control_c, 5, 11, 89
7, 617460, Control_c, 5, 11, 87
7, 617520, Control_c, 5, 11, 86
7, 617580, Control_c, 5, 11, 84
7, 617640, Control_c, 5, 11, 82
7, 617700, Control_c, 5, 11, 80
7, 618630, Note_on_c, 5, 58, 0
7, 618630, Note_on_c, 5, 70, 0
7, 618720, Note_on_c, 5, 58, 127
7, 618720, Note_on_c, 5, 70, 127
7, 619110, Note_on_c, 5, 58, 0
7, 619110, Note_on_c, 5, 70, 0
7, 619200, Note_on_c, 5, 53, 127
7, 619200, Note_on_c, 5, 65, 127
7, 619650, Note_on_c, 5, 53, 0
7, 619650, Note_on_c, 5, 65, 0
7, 620160, Note_on_c, 5, 53, 127
7, 620160, Note_on_c, 5, 65, 127
7, 620550, Note_on_c, 5, 53, 0
7, 620550, Note_on_c, 5, 65, 0
7, 620640, Note_on_c, 5, 53, 127
7, 620640, Note_on_c, 5, 65, 127
7, 621510, Note_on_c, 5, 53, 0
7, 621510, Note_on_c, 5, 65, 0
7, 621600, Note_on_c, 5, 53, 127
7, 621600, Note_on_c, 5, 65, 127
7, 622050, Note_on_c, 5, 53, 0
7, 622050, Note_on_c, 5, 65, 0
7, 622080, Note_on_c, 5, 53, 127
7, 622080, Note_on_c, 5, 65, 127
7, 622680, Note_on_c, 5, 53, 0
7, 622680, Note_on_c, 5, 65, 0
7, 624480, Note_on_c, 5, 53, 127
7, 624480, Note_on_c, 5, 65, 127
7, 624870, Note_on_c, 5, 53, 0
7, 624870, Note_on_c, 5, 65, 0
7, 624960, Note_on_c, 5, 53, 127
7, 624960, Note_on_c, 5, 65, 127
7, 625410, Note_on_c, 5, 53, 0
7, 625410, Note_on_c, 5, 65, 0
7, 627360, Note_on_c, 5, 53, 127
7, 627360, Note_on_c, 5, 65, 127
7, 627750, Note_on_c, 5, 53, 0
7, 627750, Note_on_c, 5, 65, 0
7, 627840, Note_on_c, 5, 53, 127
7, 627840, Note_on_c, 5, 65, 127
7, 628290, Note_on_c, 5, 53, 0
7, 628290, Note_on_c, 5, 65, 0
7, 630240, Note_on_c, 5, 53, 95
7, 630240, Note_on_c, 5, 65, 95
7, 630630, Note_on_c, 5, 53, 0
7, 630630, Note_on_c, 5, 65, 0
7, 630720, Note_on_c, 5, 53, 89
7, 630720, Note_on_c, 5, 65, 89
7, 631170, Note_on_c, 5, 53, 0
7, 631170, Note_on_c, 5, 65, 0
7, 633120, Note_on_c, 5, 53, 57
7, 633120, Note_on_c, 5, 65, 57
7, 633510, Note_on_c, 5, 53, 0
7, 633510, Note_on_c, 5, 65, 0
7, 633600, Note_on_c, 5, 53, 50
7, 633600, Note_on_c, 5, 65, 50
7, 634050, Note_on_c, 5, 53, 0
7, 634050, Note_on_c, 5, 65, 0
7, 635040, Note_on_c, 5, 53, 50
7, 635040, Note_on_c, 5, 65, 50
7, 635490, Note_on_c, 5, 53, 0
7, 635490, Note_on_c, 5, 65, 0
7, 636480, Note_on_c, 5, 53, 50
7, 636480, Note_on_c, 5, 65, 50
7, 636930, Note_on_c, 5, 53, 0
7, 636930, Note_on_c, 5, 65, 0
7, 637920, Note_on_c, 5, 53, 50
7, 637920, Note_on_c, 5, 65, 50
7, 638370, Note_on_c, 5, 53, 0
7, 638370, Note_on_c, 5, 65, 0
7, 639360, Note_on_c, 5, 53, 50
7, 639360, Note_on_c, 5, 65, 50
7, 639810, Note_on_c, 5, 53, 0
7, 639810, Note_on_c, 5, 65, 0
7, 644640, Note_on_c, 5, 53, 110
7, 644640, Note_on_c, 5, 65, 110
7, 645120, Note_on_c, 5, 58, 120
7, 645120, Note_on_c, 5, 70, 120
7, 645150, Note_on_c, 5, 53, 0
7, 645150, Note_on_c, 5, 65, 0
7, 645330, Note_on_c, 5, 58, 0
7, 645330, Note_on_c, 5, 70, 0
7, 645600, Note_on_c, 5, 58, 120
7, 645600, Note_on_c, 5, 70, 120
7, 645810, Note_on_c, 5, 58, 0
7, 645810, Note_on_c, 5, 70, 0
7, 646560, Note_on_c, 5, 58, 120
7, 646560, Note_on_c, 5, 70, 120
7, 646770, Note_on_c, 5, 58, 0
7, 646770, Note_on_c, 5, 70, 0
7, 647520, Note_on_c, 5, 58, 120
7, 647520, Note_on_c, 5, 70, 120
7, 647730, Note_on_c, 5, 58, 0
7, 647730, Note_on_c, 5, 70, 0
7, 648000, Note_on_c, 5, 53, 120
7, 648000, Note_on_c, 5, 65, 120
7, 648690, Note_on_c, 5, 53, 0
7, 648690, Note_on_c, 5, 65, 0
7, 648960, Note_on_c, 5, 53, 120
7, 648960, Note_on_c, 5, 65, 120
7, 649110, Note_on_c, 5, 53, 0
7, 649110, Note_on_c, 5, 65, 0
7, 649440, Note_on_c, 5, 53, 120
7, 649440, Note_on_c, 5, 65, 120
7, 650040, Note_on_c, 5, 53, 0
7, 650040, Note_on_c, 5, 65, 0
7, 677280, Note_on_c, 5, 65, 120
7, 678150, Note_on_c, 5, 65, 0
7, 678240, Note_on_c, 5, 58, 120
7, 678240, Note_on_c, 5, 70, 120
7, 679110, Note_on_c, 5, 58, 0
7, 679110, Note_on_c, 5, 70, 0
7, 679200, Note_on_c, 5, 58, 120
7, 679200, Note_on_c, 5, 70, 120
7, 679410, Note_on_c, 5, 58, 0
7, 679410, Note_on_c, 5, 70, 0
7, 679680, Note_on_c, 5, 53, 120
7, 679680, Note_on_c, 5, 65, 120
7, 681030, Note_on_c, 5, 53, 0
7, 681030, Note_on_c, 5, 65, 0
7, 681120, Note_on_c, 5, 53, 120
7, 681120, Note_on_c, 5, 65, 120
7, 682470, Note_on_c, 5, 53, 0
7, 682470, Note_on_c, 5, 65, 0
7, 682560, Note_on_c, 5, 58, 120
7, 682560, Note_on_c, 5, 70, 120
7, 685350, Note_on_c, 5, 58, 0
7, 685350, Note_on_c, 5, 70, 0
7, 685440, Note_on_c, 5, 53, 120
7, 685440, Note_on_c, 5, 65, 120
7, 687750, Note_on_c, 5, 53, 0
7, 687750, Note_on_c, 5, 65, 0
7, 687840, Note_on_c, 5, 53, 120
7, 687840, Note_on_c, 5, 65, 120
7, 688050, Note_on_c, 5, 53, 0
7, 688050, Note_on_c, 5, 65, 0
7, 688320, Note_on_c, 5, 58, 120
7, 688320, Note_on_c, 5, 70, 120
7, 691110, Note_on_c, 5, 58, 0
7, 691110, Note_on_c, 5, 70, 0
7, 691200, Note_on_c, 5, 53, 120
7, 691200, Note_on_c, 5, 65, 120
7, 693510, Note_on_c, 5, 53, 0
7, 693510, Note_on_c, 5, 65, 0
7, 693600, Note_on_c, 5, 53, 120
7, 693600, Note_on_c, 5, 65, 120
7, 693810, Note_on_c, 5, 53, 0
7, 693810, Note_on_c, 5, 65, 0
7, 694080, Note_on_c, 5, 58, 120
7, 694080, Note_on_c, 5, 70, 120
7, 695310, Note_on_c, 5, 58, 0
7, 695310, Note_on_c, 5, 70, 0
7, 695520, Note_on_c, 5, 58, 120
7, 695520, Note_on_c, 5, 70, 120
7, 696750, Note_on_c, 5, 58, 0
7, 696750, Note_on_c, 5, 70, 0
7, 696960, Note_on_c, 5, 58, 120
7, 696960, Note_on_c, 5, 70, 120
7, 697170, Note_on_c, 5, 58, 0
7, 697170, Note_on_c, 5, 70, 0
7, 697440, Note_on_c, 5, 58, 120
7, 697440, Note_on_c, 5, 70, 120
7, 697650, Note_on_c, 5, 58, 0
7, 697650, Note_on_c, 5, 70, 0
7, 697920, Note_on_c, 5, 58, 120
7, 697920, Note_on_c, 5, 70, 120
7, 698100, Note_on_c, 5, 58, 0
7, 698100, Note_on_c, 5, 70, 0
7, 698400, Note_on_c, 5, 58, 120
7, 698400, Note_on_c, 5, 70, 120
7, 699000, Note_on_c, 5, 58, 0
7, 699000, Note_on_c, 5, 70, 0
7, 702720, Note_on_c, 5, 58, 127
7, 702720, Note_on_c, 5, 70, 110
7, 703170, Note_on_c, 5, 58, 0
7, 703170, Note_on_c, 5, 70, 0
7, 703170, End_track
8, 0, Start_track
8, 0, Channel_prefix, 6
8, 0, Title_t, "Timpani Bb-F"
8, 0, Instrument_name_t, "Timpani "
8, 2870, Note_on_c, 6, 46, 100
8, 3320, Note_on_c, 6, 46, 0
8, 3350, Note_on_c, 6, 46, 100
8, 3800, Note_on_c, 6, 46, 0
8, 4310, Note_on_c, 6, 46, 100
8, 4760, Note_on_c, 6, 46, 0
8, 5270, Note_on_c, 6, 46, 100
8, 5720, Note_on_c, 6, 46, 0
8, 5750, Note_on_c, 6, 41, 100
8, 6200, Note_on_c, 6, 41, 0
8, 6710, Note_on_c, 6, 41, 100
8, 7160, Note_on_c, 6, 41, 0
8, 7190, Note_on_c, 6, 41, 100
8, 7640, Note_on_c, 6, 41, 0
8, 25910, Note_on_c, 6, 41, 70
8, 26360, Note_on_c, 6, 41, 0
8, 27350, Note_on_c, 6, 41, 100
8, 27800, Note_on_c, 6, 41, 0
8, 28790, Note_on_c, 6, 41, 100
8, 29000, Note_on_c, 6, 41, 0
8, 29270, Note_on_c, 6, 41, 100
8, 29480, Note_on_c, 6, 41, 0
8, 29750, Note_on_c, 6, 41, 100
8, 29930, Note_on_c, 6, 41, 0
8, 30230, Note_on_c, 6, 41, 100
8, 30590, Note_on_c, 6, 41, 0
8, 31670, Note_on_c, 6, 46, 100
8, 32120, Note_on_c, 6, 46, 0
8, 32150, Note_on_c, 6, 46, 100
8, 32600, Note_on_c, 6, 46, 0
8, 33110, Note_on_c, 6, 46, 100
8, 33560, Note_on_c, 6, 46, 0
8, 34070, Note_on_c, 6, 46, 100
8, 34520, Note_on_c, 6, 46, 0
8, 34550, Note_on_c, 6, 41, 100
8, 35000, Note_on_c, 6, 41, 0
8, 35510, Note_on_c, 6, 41, 100
8, 35960, Note_on_c, 6, 41, 0
8, 35990, Note_on_c, 6, 41, 100
8, 36440, Note_on_c, 6, 41, 0
8, 54710, Note_on_c, 6, 41, 70
8, 55160, Note_on_c, 6, 41, 0
8, 56150, Note_on_c, 6, 41, 100
8, 56600, Note_on_c, 6, 41, 0
8, 57590, Note_on_c, 6, 41, 100
8, 57800, Note_on_c, 6, 41, 0
8, 58070, Note_on_c, 6, 41, 100
8, 58280, Note_on_c, 6, 41, 0
8, 58550, Note_on_c, 6, 41, 100
8, 58730, Note_on_c, 6, 41, 0
8, 59030, Note_on_c, 6, 41, 100
8, 59390, Note_on_c, 6, 41, 0
8, 106070, Note_on_c, 6, 41, 100
8, 106520, Note_on_c, 6, 41, 0
8, 106550, Note_on_c, 6, 46, 100
8, 107000, Note_on_c, 6, 46, 0
8, 107030, Note_on_c, 6, 46, 100
8, 107480, Note_on_c, 6, 46, 0
8, 107990, Note_on_c, 6, 46, 100
8, 108440, Note_on_c, 6, 46, 0
8, 108950, Note_on_c, 6, 46, 100
8, 109400, Note_on_c, 6, 46, 0
8, 109430, Note_on_c, 6, 41, 100
8, 109880, Note_on_c, 6, 41, 0
8, 110390, Note_on_c, 6, 41, 100
8, 110840, Note_on_c, 6, 41, 0
8, 110870, Note_on_c, 6, 41, 100
8, 111320, Note_on_c, 6, 41, 0
8, 138710, Note_on_c, 6, 41, 100
8, 139160, Note_on_c, 6, 41, 0
8, 139670, Note_on_c, 6, 46, 100
8, 140120, Note_on_c, 6, 46, 0
8, 140630, Note_on_c, 6, 46, 100
8, 141080, Note_on_c, 6, 46, 0
8, 141110, Note_on_c, 6, 41, 100
8, 141560, Note_on_c, 6, 41, 0
8, 142550, Note_on_c, 6, 41, 100
8, 143000, Note_on_c, 6, 41, 0
8, 143995, Note_on_c, 6, 46, 91
8, 144055, Note_on_c, 6, 46, 0
8, 144055, Note_on_c, 6, 46, 83
8, 144115, Note_on_c, 6, 46, 0
8, 144115, Note_on_c, 6, 46, 85
8, 144170, Note_on_c, 6, 46, 84
8, 144175, Note_on_c, 6, 46, 0
8, 144175, Note_on_c, 6, 46, 0
8, 144230, Note_on_c, 6, 46, 89
8, 144230, Note_on_c, 6, 46, 0
8, 144287, Note_on_c, 6, 46, 88
8, 144290, Note_on_c, 6, 46, 0
8, 144352, Note_on_c, 6, 46, 88
8, 144405, Note_on_c, 6, 46, 76
8, 144412, Note_on_c, 6, 46, 0
8, 144412, Note_on_c, 6, 46, 0
8, 144469, Note_on_c, 6, 46, 80
8, 144525, Note_on_c, 6, 46, 86
8, 144529, Note_on_c, 6, 46, 0
8, 144529, Note_on_c, 6, 46, 0
8, 144595, Note_on_c, 6, 46, 85
8, 144645, Note_on_c, 6, 46, 81
8, 144655, Note_on_c, 6, 46, 0
8, 144655, Note_on_c, 6, 46, 0
8, 144714, Note_on_c, 6, 46, 83
8, 144768, Note_on_c, 6, 46, 78
8, 144774, Note_on_c, 6, 46, 0
8, 144774, Note_on_c, 6, 46, 0
8, 144828, Note_on_c, 6, 46, 93
8, 144888, Note_on_c, 6, 46, 0
8, 144891, Note_on_c, 6, 46, 78
8, 144950, Note_on_c, 6, 46, 78
8, 144951, Note_on_c, 6, 46, 0
8, 144951, Note_on_c, 6, 46, 0
8, 145016, Note_on_c, 6, 46, 81
8, 145067, Note_on_c, 6, 46, 94
8, 145076, Note_on_c, 6, 46, 0
8, 145076, Note_on_c, 6, 46, 0
8, 145128, Note_on_c, 6, 46, 86
8, 145188, Note_on_c, 6, 46, 0
8, 145192, Note_on_c, 6, 46, 85
8, 145252, Note_on_c, 6, 46, 0
8, 145255, Note_on_c, 6, 46, 77
8, 145311, Note_on_c, 6, 46, 88
8, 145315, Note_on_c, 6, 46, 0
8, 145315, Note_on_c, 6, 46, 0
8, 145370, Note_on_c, 6, 46, 88
8, 145371, Note_on_c, 6, 46, 0
8, 145424, Note_on_c, 6, 46, 85
8, 145430, Note_on_c, 6, 46, 0
8, 145485, Note_on_c, 6, 46, 85
8, 145545, Note_on_c, 6, 46, 0
8, 145546, Note_on_c, 6, 46, 94
8, 145606, Note_on_c, 6, 46, 0
8, 145617, Note_on_c, 6, 46, 84
8, 145677, Note_on_c, 6, 46, 0
8, 145677, Note_on_c, 6, 46, 78
8, 145735, Note_on_c, 6, 46, 85
8, 145737, Note_on_c, 6, 46, 0
8, 145737, Note_on_c, 6, 46, 0
8, 145787, Note_on_c, 6, 46, 93
8, 145795, Note_on_c, 6, 46, 0
8, 145855, Note_on_c, 6, 46, 90
8, 145906, Note_on_c, 6, 46, 83
8, 145915, Note_on_c, 6, 46, 0
8, 145915, Note_on_c, 6, 46, 0
8, 145976, Note_on_c, 6, 46, 79
8, 146033, Note_on_c, 6, 46, 85
8, 146036, Note_on_c, 6, 46, 0
8, 146036, Note_on_c, 6, 46, 0
8, 146084, Note_on_c, 6, 46, 89
8, 146093, Note_on_c, 6, 46, 0
8, 146154, Note_on_c, 6, 46, 81
8, 146208, Note_on_c, 6, 46, 85
8, 146214, Note_on_c, 6, 46, 0
8, 146214, Note_on_c, 6, 46, 0
8, 146270, Note_on_c, 6, 46, 88
8, 146330, Note_on_c, 6, 46, 0
8, 146333, Note_on_c, 6, 46, 82
8, 146393, Note_on_c, 6, 46, 0
8, 146394, Note_on_c, 6, 46, 90
8, 146446, Note_on_c, 6, 46, 83
8, 146454, Note_on_c, 6, 46, 0
8, 146454, Note_on_c, 6, 46, 0
8, 146512, Note_on_c, 6, 46, 85
8, 146572, Note_on_c, 6, 46, 0
8, 146574, Note_on_c, 6, 46, 86
8, 146625, Note_on_c, 6, 46, 93
8, 146634, Note_on_c, 6, 46, 0
8, 146634, Note_on_c, 6, 46, 0
8, 146689, Note_on_c, 6, 46, 93
8, 146749, Note_on_c, 6, 46, 0
8, 146870, Note_on_c, 6, 41, 100
8, 147320, Note_on_c, 6, 41, 0
8, 149270, Note_on_c, 6, 41, 100
8, 149720, Note_on_c, 6, 41, 0
8, 149750, Note_on_c, 6, 46, 91
8, 149810, Note_on_c, 6, 46, 0
8, 149810, Note_on_c, 6, 46, 83
8, 149870, Note_on_c, 6, 46, 0
8, 149870, Note_on_c, 6, 46, 85
8, 149925, Note_on_c, 6, 46, 84
8, 149930, Note_on_c, 6, 46, 0
8, 149930, Note_on_c, 6, 46, 0
8, 149984, Note_on_c, 6, 46, 89
8, 149985, Note_on_c, 6, 46, 0
8, 150042, Note_on_c, 6, 46, 88
8, 150044, Note_on_c, 6, 46, 0
8, 150107, Note_on_c, 6, 46, 88
8, 150160, Note_on_c, 6, 46, 76
8, 150167, Note_on_c, 6, 46, 0
8, 150167, Note_on_c, 6, 46, 0
8, 150224, Note_on_c, 6, 46, 80
8, 150279, Note_on_c, 6, 46, 86
8, 150284, Note_on_c, 6, 46, 0
8, 150284, Note_on_c, 6, 46, 0
8, 150349, Note_on_c, 6, 46, 85
8, 150400, Note_on_c, 6, 46, 81
8, 150409, Note_on_c, 6, 46, 0
8, 150409, Note_on_c, 6, 46, 0
8, 150469, Note_on_c, 6, 46, 83
8, 150522, Note_on_c, 6, 46, 78
8, 150529, Note_on_c, 6, 46, 0
8, 150529, Note_on_c, 6, 46, 0
8, 150583, Note_on_c, 6, 46, 93
8, 150643, Note_on_c, 6, 46, 0
8, 150645, Note_on_c, 6, 46, 78
8, 150705, Note_on_c, 6, 46, 0
8, 150705, Note_on_c, 6, 46, 78
8, 150705, Note_on_c, 6, 46, 0
8, 150770, Note_on_c, 6, 46, 81
8, 150822, Note_on_c, 6, 46, 94
8, 150830, Note_on_c, 6, 46, 0
8, 150830, Note_on_c, 6, 46, 0
8, 150882, Note_on_c, 6, 46, 86
8, 150942, Note_on_c, 6, 46, 0
8, 150946, Note_on_c, 6, 46, 85
8, 151006, Note_on_c, 6, 46, 0
8, 151009, Note_on_c, 6, 46, 77
8, 151065, Note_on_c, 6, 46, 88
8, 151069, Note_on_c, 6, 46, 0
8, 151069, Note_on_c, 6, 46, 0
8, 151124, Note_on_c, 6, 46, 88
8, 151125, Note_on_c, 6, 46, 0
8, 151179, Note_on_c, 6, 46, 85
8, 151184, Note_on_c, 6, 46, 0
8, 151240, Note_on_c, 6, 46, 85
8, 151300, Note_on_c, 6, 46, 0
8, 151301, Note_on_c, 6, 46, 94
8, 151361, Note_on_c, 6, 46, 0
8, 151371, Note_on_c, 6, 46, 84
8, 151431, Note_on_c, 6, 46, 0
8, 151431, Note_on_c, 6, 46, 78
8, 151490, Note_on_c, 6, 46, 85
8, 151491, Note_on_c, 6, 46, 0
8, 151491, Note_on_c, 6, 46, 0
8, 151542, Note_on_c, 6, 46, 93
8, 151550, Note_on_c, 6, 46, 0
8, 151610, Note_on_c, 6, 46, 90
8, 151660, Note_on_c, 6, 46, 83
8, 151670, Note_on_c, 6, 46, 0
8, 151670, Note_on_c, 6, 46, 0
8, 151731, Note_on_c, 6, 46, 79
8, 151787, Note_on_c, 6, 46, 85
8, 151791, Note_on_c, 6, 46, 0
8, 151791, Note_on_c, 6, 46, 0
8, 151839, Note_on_c, 6, 46, 89
8, 151847, Note_on_c, 6, 46, 0
8, 151909, Note_on_c, 6, 46, 81
8, 151963, Note_on_c, 6, 46, 85
8, 151969, Note_on_c, 6, 46, 0
8, 151969, Note_on_c, 6, 46, 0
8, 152024, Note_on_c, 6, 46, 88
8, 152084, Note_on_c, 6, 46, 0
8, 152088, Note_on_c, 6, 46, 82
8, 152148, Note_on_c, 6, 46, 0
8, 152148, Note_on_c, 6, 46, 90
8, 152200, Note_on_c, 6, 46, 83
8, 152208, Note_on_c, 6, 46, 0
8, 152208, Note_on_c, 6, 46, 0
8, 152267, Note_on_c, 6, 46, 85
8, 152327, Note_on_c, 6, 46, 0
8, 152328, Note_on_c, 6, 46, 86
8, 152379, Note_on_c, 6, 46, 93
8, 152388, Note_on_c, 6, 46, 0
8, 152388, Note_on_c, 6, 46, 0
8, 152443, Note_on_c, 6, 46, 93
8, 152503, Note_on_c, 6, 46, 0
8, 152630, Note_on_c, 6, 41, 100
8, 153080, Note_on_c, 6, 41, 0
8, 155030, Note_on_c, 6, 41, 100
8, 155480, Note_on_c, 6, 41, 0
8, 155510, Note_on_c, 6, 46, 100
8, 155960, Note_on_c, 6, 46, 0
8, 156950, Note_on_c, 6, 46, 100
8, 157400, Note_on_c, 6, 46, 0
8, 158390, Note_on_c, 6, 46, 100
8, 158840, Note_on_c, 6, 46, 0
8, 158870, Note_on_c, 6, 46, 100
8, 159320, Note_on_c, 6, 46, 0
8, 159350, Note_on_c, 6, 46, 100
8, 159800, Note_on_c, 6, 46, 0
8, 159830, Note_on_c, 6, 46, 100
8, 160280, Note_on_c, 6, 46, 0
8, 206870, Note_on_c, 6, 41, 100
8, 207320, Note_on_c, 6, 41, 0
8, 207350, Note_on_c, 6, 46, 100
8, 207800, Note_on_c, 6, 46, 0
8, 207830, Note_on_c, 6, 46, 100
8, 208280, Note_on_c, 6, 46, 0
8, 208790, Note_on_c, 6, 46, 100
8, 209240, Note_on_c, 6, 46, 0
8, 209750, Note_on_c, 6, 46, 100
8, 210200, Note_on_c, 6, 46, 0
8, 210230, Note_on_c, 6, 41, 100
8, 210680, Note_on_c, 6, 41, 0
8, 211190, Note_on_c, 6, 41, 100
8, 211640, Note_on_c, 6, 41, 0
8, 211670, Note_on_c, 6, 41, 100
8, 212120, Note_on_c, 6, 41, 0
8, 239510, Note_on_c, 6, 41, 100
8, 239960, Note_on_c, 6, 41, 0
8, 240470, Note_on_c, 6, 46, 100
8, 240920, Note_on_c, 6, 46, 0
8, 241430, Note_on_c, 6, 46, 100
8, 241880, Note_on_c, 6, 46, 0
8, 241910, Note_on_c, 6, 41, 100
8, 242360, Note_on_c, 6, 41, 0
8, 243350, Note_on_c, 6, 41, 100
8, 243800, Note_on_c, 6, 41, 0
8, 244795, Note_on_c, 6, 46, 91
8, 244855, Note_on_c, 6, 46, 0
8, 244855, Note_on_c, 6, 46, 83
8, 244915, Note_on_c, 6, 46, 0
8, 244915, Note_on_c, 6, 46, 85
8, 244970, Note_on_c, 6, 46, 84
8, 244975, Note_on_c, 6, 46, 0
8, 244975, Note_on_c, 6, 46, 0
8, 245030, Note_on_c, 6, 46, 89
8, 245030, Note_on_c, 6, 46, 0
8, 245087, Note_on_c, 6, 46, 88
8, 245090, Note_on_c, 6, 46, 0
8, 245152, Note_on_c, 6, 46, 88
8, 245205, Note_on_c, 6, 46, 76
8, 245212, Note_on_c, 6, 46, 0
8, 245212, Note_on_c, 6, 46, 0
8, 245269, Note_on_c, 6, 46, 80
8, 245325, Note_on_c, 6, 46, 86
8, 245329, Note_on_c, 6, 46, 0
8, 245329, Note_on_c, 6, 46, 0
8, 245395, Note_on_c, 6, 46, 85
8, 245445, Note_on_c, 6, 46, 81
8, 245455, Note_on_c, 6, 46, 0
8, 245455, Note_on_c, 6, 46, 0
8, 245514, Note_on_c, 6, 46, 83
8, 245568, Note_on_c, 6, 46, 78
8, 245574, Note_on_c, 6, 46, 0
8, 245574, Note_on_c, 6, 46, 0
8, 245628, Note_on_c, 6, 46, 93
8, 245688, Note_on_c, 6, 46, 0
8, 245691, Note_on_c, 6, 46, 78
8, 245750, Note_on_c, 6, 46, 78
8, 245751, Note_on_c, 6, 46, 0
8, 245751, Note_on_c, 6, 46, 0
8, 245816, Note_on_c, 6, 46, 81
8, 245867, Note_on_c, 6, 46, 94
8, 245876, Note_on_c, 6, 46, 0
8, 245876, Note_on_c, 6, 46, 0
8, 245928, Note_on_c, 6, 46, 86
8, 245988, Note_on_c, 6, 46, 0
8, 245992, Note_on_c, 6, 46, 85
8, 246052, Note_on_c, 6, 46, 0
8, 246055, Note_on_c, 6, 46, 77
8, 246111, Note_on_c, 6, 46, 88
8, 246115, Note_on_c, 6, 46, 0
8, 246115, Note_on_c, 6, 46, 0
8, 246170, Note_on_c, 6, 46, 88
8, 246171, Note_on_c, 6, 46, 0
8, 246224, Note_on_c, 6, 46, 85
8, 246230, Note_on_c, 6, 46, 0
8, 246285, Note_on_c, 6, 46, 85
8, 246345, Note_on_c, 6, 46, 0
8, 246346, Note_on_c, 6, 46, 94
8, 246406, Note_on_c, 6, 46, 0
8, 246417, Note_on_c, 6, 46, 84
8, 246477, Note_on_c, 6, 46, 0
8, 246477, Note_on_c, 6, 46, 78
8, 246535, Note_on_c, 6, 46, 85
8, 246537, Note_on_c, 6, 46, 0
8, 246537, Note_on_c, 6, 46, 0
8, 246587, Note_on_c, 6, 46, 93
8, 246595, Note_on_c, 6, 46, 0
8, 246655, Note_on_c, 6, 46, 90
8, 246706, Note_on_c, 6, 46, 83
8, 246715, Note_on_c, 6, 46, 0
8, 246715, Note_on_c, 6, 46, 0
8, 246776, Note_on_c, 6, 46, 79
8, 246833, Note_on_c, 6, 46, 85
8, 246836, Note_on_c, 6, 46, 0
8, 246836, Note_on_c, 6, 46, 0
8, 246884, Note_on_c, 6, 46, 89
8, 246893, Note_on_c, 6, 46, 0
8, 246954, Note_on_c, 6, 46, 81
8, 247008, Note_on_c, 6, 46, 85
8, 247014, Note_on_c, 6, 46, 0
8, 247014, Note_on_c, 6, 46, 0
8, 247070, Note_on_c, 6, 46, 88
8, 247130, Note_on_c, 6, 46, 0
8, 247133, Note_on_c, 6, 46, 82
8, 247193, Note_on_c, 6, 46, 0
8, 247194, Note_on_c, 6, 46, 90
8, 247246, Note_on_c, 6, 46, 83
8, 247254, Note_on_c, 6, 46, 0
8, 247254, Note_on_c, 6, 46, 0
8, 247312, Note_on_c, 6, 46, 85
8, 247372, Note_on_c, 6, 46, 0
8, 247374, Note_on_c, 6, 46, 86
8, 247425, Note_on_c, 6, 46, 93
8, 247434, Note_on_c, 6, 46, 0
8, 247434, Note_on_c, 6, 46, 0
8, 247489, Note_on_c, 6, 46, 93
8, 247549, Note_on_c, 6, 46, 0
8, 247670, Note_on_c, 6, 41, 100
8, 248120, Note_on_c, 6, 41, 0
8, 250070, Note_on_c, 6, 41, 100
8, 250520, Note_on_c, 6, 41, 0
8, 250550, Note_on_c, 6, 46, 91
8, 250610, Note_on_c, 6, 46, 0
8, 250610, Note_on_c, 6, 46, 83
8, 250670, Note_on_c, 6, 46, 0
8, 250670, Note_on_c, 6, 46, 85
8, 250725, Note_on_c, 6, 46, 84
8, 250730, Note_on_c, 6, 46, 0
8, 250730, Note_on_c, 6, 46, 0
8, 250784, Note_on_c, 6, 46, 89
8, 250785, Note_on_c, 6, 46, 0
8, 250842, Note_on_c, 6, 46, 88
8, 250844, Note_on_c, 6, 46, 0
8, 250907, Note_on_c, 6, 46, 88
8, 250960, Note_on_c, 6, 46, 76
8, 250967, Note_on_c, 6, 46, 0
8, 250967, Note_on_c, 6, 46, 0
8, 251024, Note_on_c, 6, 46, 80
8, 251079, Note_on_c, 6, 46, 86
8, 251084, Note_on_c, 6, 46, 0
8, 251084, Note_on_c, 6, 46, 0
8, 251149, Note_on_c, 6, 46, 85
8, 251200, Note_on_c, 6, 46, 81
8, 251209, Note_on_c, 6, 46, 0
8, 251209, Note_on_c, 6, 46, 0
8, 251269, Note_on_c, 6, 46, 83
8, 251322, Note_on_c, 6, 46, 78
8, 251329, Note_on_c, 6, 46, 0
8, 251329, Note_on_c, 6, 46, 0
8, 251383, Note_on_c, 6, 46, 93
8, 251443, Note_on_c, 6, 46, 0
8, 251445, Note_on_c, 6, 46, 78
8, 251505, Note_on_c, 6, 46, 0
8, 251505, Note_on_c, 6, 46, 78
8, 251505, Note_on_c, 6, 46, 0
8, 251570, Note_on_c, 6, 46, 81
8, 251622, Note_on_c, 6, 46, 94
8, 251630, Note_on_c, 6, 46, 0
8, 251630, Note_on_c, 6, 46, 0
8, 251682, Note_on_c, 6, 46, 86
8, 251742, Note_on_c, 6, 46, 0
8, 251746, Note_on_c, 6, 46, 85
8, 251806, Note_on_c, 6, 46, 0
8, 251809, Note_on_c, 6, 46, 77
8, 251865, Note_on_c, 6, 46, 88
8, 251869, Note_on_c, 6, 46, 0
8, 251869, Note_on_c, 6, 46, 0
8, 251924, Note_on_c, 6, 46, 88
8, 251925, Note_on_c, 6, 46, 0
8, 251979, Note_on_c, 6, 46, 85
8, 251984, Note_on_c, 6, 46, 0
8, 252040, Note_on_c, 6, 46, 85
8, 252100, Note_on_c, 6, 46, 0
8, 252101, Note_on_c, 6, 46, 94
8, 252161, Note_on_c, 6, 46, 0
8, 252171, Note_on_c, 6, 46, 84
8, 252231, Note_on_c, 6, 46, 0
8, 252231, Note_on_c, 6, 46, 78
8, 252290, Note_on_c, 6, 46, 85
8, 252291, Note_on_c, 6, 46, 0
8, 252291, Note_on_c, 6, 46, 0
8, 252342, Note_on_c, 6, 46, 93
8, 252350, Note_on_c, 6, 46, 0
8, 252410, Note_on_c, 6, 46, 90
8, 252460, Note_on_c, 6, 46, 83
8, 252470, Note_on_c, 6, 46, 0
8, 252470, Note_on_c, 6, 46, 0
8, 252531, Note_on_c, 6, 46, 79
8, 252587, Note_on_c, 6, 46, 85
8, 252591, Note_on_c, 6, 46, 0
8, 252591, Note_on_c, 6, 46, 0
8, 252639, Note_on_c, 6, 46, 89
8, 252647, Note_on_c, 6, 46, 0
8, 252709, Note_on_c, 6, 46, 81
8, 252763, Note_on_c, 6, 46, 85
8, 252769, Note_on_c, 6, 46, 0
8, 252769, Note_on_c, 6, 46, 0
8, 252824, Note_on_c, 6, 46, 88
8, 252884, Note_on_c, 6, 46, 0
8, 252888, Note_on_c, 6, 46, 82
8, 252948, Note_on_c, 6, 46, 0
8, 252948, Note_on_c, 6, 46, 90
8, 253000, Note_on_c, 6, 46, 83
8, 253008, Note_on_c, 6, 46, 0
8, 253008, Note_on_c, 6, 46, 0
8, 253067, Note_on_c, 6, 46, 85
8, 253127, Note_on_c, 6, 46, 0
8, 253128, Note_on_c, 6, 46, 86
8, 253179, Note_on_c, 6, 46, 93
8, 253188, Note_on_c, 6, 46, 0
8, 253188, Note_on_c, 6, 46, 0
8, 253243, Note_on_c, 6, 46, 93
8, 253303, Note_on_c, 6, 46, 0
8, 253430, Note_on_c, 6, 41, 100
8, 253880, Note_on_c, 6, 41, 0
8, 255830, Note_on_c, 6, 41, 100
8, 256280, Note_on_c, 6, 41, 0
8, 256310, Note_on_c, 6, 46, 100
8, 256760, Note_on_c, 6, 46, 0
8, 257750, Note_on_c, 6, 46, 100
8, 258200, Note_on_c, 6, 46, 0
8, 259190, Note_on_c, 6, 46, 100
8, 259640, Note_on_c, 6, 46, 0
8, 259670, Note_on_c, 6, 46, 100
8, 260120, Note_on_c, 6, 46, 0
8, 260150, Note_on_c, 6, 46, 100
8, 260600, Note_on_c, 6, 46, 0
8, 260630, Note_on_c, 6, 46, 100
8, 261080, Note_on_c, 6, 46, 0
8, 356630, Note_on_c, 6, 46, 100
8, 357080, Note_on_c, 6, 46, 0
8, 357110, Note_on_c, 6, 46, 100
8, 357560, Note_on_c, 6, 46, 0
8, 358070, Note_on_c, 6, 46, 100
8, 358520, Note_on_c, 6, 46, 0
8, 358550, Note_on_c, 6, 46, 100
8, 359000, Note_on_c, 6, 46, 0
8, 359510, Note_on_c, 6, 46, 100
8, 359960, Note_on_c, 6, 46, 0
8, 359990, Note_on_c, 6, 46, 96
8, 360050, Note_on_c, 6, 46, 0
8, 360050, Note_on_c, 6, 46, 88
8, 360110, Note_on_c, 6, 46, 0
8, 360110, Note_on_c, 6, 46, 90
8, 360165, Note_on_c, 6, 46, 89
8, 360170, Note_on_c, 6, 46, 0
8, 360170, Note_on_c, 6, 46, 0
8, 360224, Note_on_c, 6, 46, 94
8, 360225, Note_on_c, 6, 46, 0
8, 360282, Note_on_c, 6, 46, 93
8, 360284, Note_on_c, 6, 46, 0
8, 360347, Note_on_c, 6, 46, 93
8, 360400, Note_on_c, 6, 46, 81
8, 360407, Note_on_c, 6, 46, 0
8, 360407, Note_on_c, 6, 46, 0
8, 360464, Note_on_c, 6, 46, 85
8, 360519, Note_on_c, 6, 46, 91
8, 360524, Note_on_c, 6, 46, 0
8, 360524, Note_on_c, 6, 46, 0
8, 360589, Note_on_c, 6, 46, 90
8, 360640, Note_on_c, 6, 46, 86
8, 360649, Note_on_c, 6, 46, 0
8, 360649, Note_on_c, 6, 46, 0
8, 360709, Note_on_c, 6, 46, 88
8, 360762, Note_on_c, 6, 46, 83
8, 360769, Note_on_c, 6, 46, 0
8, 360769, Note_on_c, 6, 46, 0
8, 360823, Note_on_c, 6, 46, 98
8, 360883, Note_on_c, 6, 46, 0
8, 360885, Note_on_c, 6, 46, 83
8, 360945, Note_on_c, 6, 46, 0
8, 360945, Note_on_c, 6, 46, 83
8, 360945, Note_on_c, 6, 46, 0
8, 361010, Note_on_c, 6, 46, 86
8, 361062, Note_on_c, 6, 46, 99
8, 361070, Note_on_c, 6, 46, 0
8, 361070, Note_on_c, 6, 46, 0
8, 361122, Note_on_c, 6, 46, 91
8, 361182, Note_on_c, 6, 46, 0
8, 361186, Note_on_c, 6, 46, 90
8, 361246, Note_on_c, 6, 46, 0
8, 361249, Note_on_c, 6, 46, 82
8, 361305, Note_on_c, 6, 46, 93
8, 361309, Note_on_c, 6, 46, 0
8, 361309, Note_on_c, 6, 46, 0
8, 361364, Note_on_c, 6, 46, 93
8, 361365, Note_on_c, 6, 46, 0
8, 361419, Note_on_c, 6, 46, 90
8, 361424, Note_on_c, 6, 46, 0
8, 361480, Note_on_c, 6, 46, 90
8, 361540, Note_on_c, 6, 46, 0
8, 361541, Note_on_c, 6, 46, 99
8, 361601, Note_on_c, 6, 46, 0
8, 361611, Note_on_c, 6, 46, 89
8, 361671, Note_on_c, 6, 46, 0
8, 361671, Note_on_c, 6, 46, 83
8, 361730, Note_on_c, 6, 46, 90
8, 361731, Note_on_c, 6, 46, 0
8, 361731, Note_on_c, 6, 46, 0
8, 361782, Note_on_c, 6, 46, 98
8, 361790, Note_on_c, 6, 46, 0
8, 361850, Note_on_c, 6, 46, 95
8, 361900, Note_on_c, 6, 46, 88
8, 361910, Note_on_c, 6, 46, 0
8, 361910, Note_on_c, 6, 46, 0
8, 361971, Note_on_c, 6, 46, 84
8, 362027, Note_on_c, 6, 46, 90
8, 362031, Note_on_c, 6, 46, 0
8, 362031, Note_on_c, 6, 46, 0
8, 362079, Note_on_c, 6, 46, 94
8, 362087, Note_on_c, 6, 46, 0
8, 362149, Note_on_c, 6, 46, 86
8, 362203, Note_on_c, 6, 46, 90
8, 362209, Note_on_c, 6, 46, 0
8, 362209, Note_on_c, 6, 46, 0
8, 362264, Note_on_c, 6, 46, 93
8, 362324, Note_on_c, 6, 46, 0
8, 362390, Note_on_c, 6, 46, 100
8, 362840, Note_on_c, 6, 46, 0
8, 362870, Note_on_c, 6, 41, 100
8, 363320, Note_on_c, 6, 41, 0
8, 363830, Note_on_c, 6, 41, 100
8, 364280, Note_on_c, 6, 41, 0
8, 364310, Note_on_c, 6, 41, 100
8, 364760, Note_on_c, 6, 41, 0
8, 365270, Note_on_c, 6, 41, 100
8, 365720, Note_on_c, 6, 41, 0
8, 365750, Note_on_c, 6, 46, 100
8, 366200, Note_on_c, 6, 46, 0
8, 368150, Note_on_c, 6, 46, 100
8, 368600, Note_on_c, 6, 46, 0
8, 368630, Note_on_c, 6, 41, 100
8, 369080, Note_on_c, 6, 41, 0
8, 371030, Note_on_c, 6, 41, 100
8, 371480, Note_on_c, 6, 41, 0
8, 371510, Note_on_c, 6, 46, 100
8, 371960, Note_on_c, 6, 46, 0
8, 373910, Note_on_c, 6, 46, 75
8, 374360, Note_on_c, 6, 46, 0
8, 374390, Note_on_c, 6, 41, 70
8, 374840, Note_on_c, 6, 41, 0
8, 376790, Note_on_c, 6, 41, 45
8, 377240, Note_on_c, 6, 41, 0
8, 377270, Note_on_c, 6, 46, 40
8, 377720, Note_on_c, 6, 46, 0
8, 378710, Note_on_c, 6, 46, 40
8, 379160, Note_on_c, 6, 46, 0
8, 380150, Note_on_c, 6, 46, 40
8, 380600, Note_on_c, 6, 46, 0
8, 381590, Note_on_c, 6, 46, 40
8, 382040, Note_on_c, 6, 46, 0
8, 383030, Note_on_c, 6, 46, 40
8, 383480, Note_on_c, 6, 46, 0
8, 388310, Note_on_c, 6, 41, 70
8, 388760, Note_on_c, 6, 41, 0
8, 388790, Note_on_c, 6, 46, 100
8, 389240, Note_on_c, 6, 46, 0
8, 389270, Note_on_c, 6, 46, 100
8, 389720, Note_on_c, 6, 46, 0
8, 390230, Note_on_c, 6, 46, 100
8, 390680, Note_on_c, 6, 46, 0
8, 391190, Note_on_c, 6, 46, 100
8, 391640, Note_on_c, 6, 46, 0
8, 391670, Note_on_c, 6, 41, 100
8, 392120, Note_on_c, 6, 41, 0
8, 392630, Note_on_c, 6, 41, 100
8, 393080, Note_on_c, 6, 41, 0
8, 393110, Note_on_c, 6, 41, 100
8, 393560, Note_on_c, 6, 41, 0
8, 411830, Note_on_c, 6, 41, 70
8, 412280, Note_on_c, 6, 41, 0
8, 413270, Note_on_c, 6, 41, 100
8, 413720, Note_on_c, 6, 41, 0
8, 414710, Note_on_c, 6, 41, 100
8, 414920, Note_on_c, 6, 41, 0
8, 415190, Note_on_c, 6, 41, 100
8, 415400, Note_on_c, 6, 41, 0
8, 415670, Note_on_c, 6, 41, 100
8, 415850, Note_on_c, 6, 41, 0
8, 416150, Note_on_c, 6, 41, 100
8, 416510, Note_on_c, 6, 41, 0
8, 463190, Note_on_c, 6, 41, 100
8, 463640, Note_on_c, 6, 41, 0
8, 463670, Note_on_c, 6, 46, 100
8, 464120, Note_on_c, 6, 46, 0
8, 464150, Note_on_c, 6, 46, 100
8, 464600, Note_on_c, 6, 46, 0
8, 465110, Note_on_c, 6, 46, 100
8, 465560, Note_on_c, 6, 46, 0
8, 466070, Note_on_c, 6, 46, 100
8, 466520, Note_on_c, 6, 46, 0
8, 466550, Note_on_c, 6, 41, 100
8, 467000, Note_on_c, 6, 41, 0
8, 467510, Note_on_c, 6, 41, 100
8, 467960, Note_on_c, 6, 41, 0
8, 467990, Note_on_c, 6, 41, 100
8, 468440, Note_on_c, 6, 41, 0
8, 495830, Note_on_c, 6, 41, 100
8, 496280, Note_on_c, 6, 41, 0
8, 496790, Note_on_c, 6, 46, 100
8, 497240, Note_on_c, 6, 46, 0
8, 497750, Note_on_c, 6, 46, 100
8, 498200, Note_on_c, 6, 46, 0
8, 498230, Note_on_c, 6, 41, 100
8, 498680, Note_on_c, 6, 41, 0
8, 499670, Note_on_c, 6, 41, 100
8, 500120, Note_on_c, 6, 41, 0
8, 501115, Note_on_c, 6, 46, 91
8, 501175, Note_on_c, 6, 46, 0
8, 501175, Note_on_c, 6, 46, 83
8, 501235, Note_on_c, 6, 46, 0
8, 501235, Note_on_c, 6, 46, 85
8, 501290, Note_on_c, 6, 46, 84
8, 501295, Note_on_c, 6, 46, 0
8, 501295, Note_on_c, 6, 46, 0
8, 501350, Note_on_c, 6, 46, 89
8, 501350, Note_on_c, 6, 46, 0
8, 501407, Note_on_c, 6, 46, 88
8, 501410, Note_on_c, 6, 46, 0
8, 501472, Note_on_c, 6, 46, 88
8, 501525, Note_on_c, 6, 46, 76
8, 501532, Note_on_c, 6, 46, 0
8, 501532, Note_on_c, 6, 46, 0
8, 501589, Note_on_c, 6, 46, 80
8, 501645, Note_on_c, 6, 46, 86
8, 501649, Note_on_c, 6, 46, 0
8, 501649, Note_on_c, 6, 46, 0
8, 501715, Note_on_c, 6, 46, 85
8, 501765, Note_on_c, 6, 46, 81
8, 501775, Note_on_c, 6, 46, 0
8, 501775, Note_on_c, 6, 46, 0
8, 501834, Note_on_c, 6, 46, 83
8, 501888, Note_on_c, 6, 46, 78
8, 501894, Note_on_c, 6, 46, 0
8, 501894, Note_on_c, 6, 46, 0
8, 501948, Note_on_c, 6, 46, 93
8, 502008, Note_on_c, 6, 46, 0
8, 502011, Note_on_c, 6, 46, 78
8, 502070, Note_on_c, 6, 46, 78
8, 502071, Note_on_c, 6, 46, 0
8, 502071, Note_on_c, 6, 46, 0
8, 502136, Note_on_c, 6, 46, 81
8, 502187, Note_on_c, 6, 46, 94
8, 502196, Note_on_c, 6, 46, 0
8, 502196, Note_on_c, 6, 46, 0
8, 502248, Note_on_c, 6, 46, 86
8, 502308, Note_on_c, 6, 46, 0
8, 502312, Note_on_c, 6, 46, 85
8, 502372, Note_on_c, 6, 46, 0
8, 502375, Note_on_c, 6, 46, 77
8, 502431, Note_on_c, 6, 46, 88
8, 502435, Note_on_c, 6, 46, 0
8, 502435, Note_on_c, 6, 46, 0
8, 502490, Note_on_c, 6, 46, 88
8, 502491, Note_on_c, 6, 46, 0
8, 502544, Note_on_c, 6, 46, 85
8, 502550, Note_on_c, 6, 46, 0
8, 502605, Note_on_c, 6, 46, 85
8, 502665, Note_on_c, 6, 46, 0
8, 502666, Note_on_c, 6, 46, 94
8, 502726, Note_on_c, 6, 46, 0
8, 502737, Note_on_c, 6, 46, 84
8, 502797, Note_on_c, 6, 46, 0
8, 502797, Note_on_c, 6, 46, 78
8, 502855, Note_on_c, 6, 46, 85
8, 502857, Note_on_c, 6, 46, 0
8, 502857, Note_on_c, 6, 46, 0
8, 502907, Note_on_c, 6, 46, 93
8, 502915, Note_on_c, 6, 46, 0
8, 502975, Note_on_c, 6, 46, 90
8, 503026, Note_on_c, 6, 46, 83
8, 503035, Note_on_c, 6, 46, 0
8, 503035, Note_on_c, 6, 46, 0
8, 503096, Note_on_c, 6, 46, 79
8, 503153, Note_on_c, 6, 46, 85
8, 503156, Note_on_c, 6, 46, 0
8, 503156, Note_on_c, 6, 46, 0
8, 503204, Note_on_c, 6, 46, 89
8, 503213, Note_on_c, 6, 46, 0
8, 503274, Note_on_c, 6, 46, 81
8, 503328, Note_on_c, 6, 46, 85
8, 503334, Note_on_c, 6, 46, 0
8, 503334, Note_on_c, 6, 46, 0
8, 503390, Note_on_c, 6, 46, 88
8, 503450, Note_on_c, 6, 46, 0
8, 503453, Note_on_c, 6, 46, 82
8, 503513, Note_on_c, 6, 46, 0
8, 503514, Note_on_c, 6, 46, 90
8, 503566, Note_on_c, 6, 46, 83
8, 503574, Note_on_c, 6, 46, 0
8, 503574, Note_on_c, 6, 46, 0
8, 503632, Note_on_c, 6, 46, 85
8, 503692, Note_on_c, 6, 46, 0
8, 503694, Note_on_c, 6, 46, 86
8, 503745, Note_on_c, 6, 46, 93
8, 503754, Note_on_c, 6, 46, 0
8, 503754, Note_on_c, 6, 46, 0
8, 503809, Note_on_c, 6, 46, 93
8, 503869, Note_on_c, 6, 46, 0
8, 503990, Note_on_c, 6, 41, 100
8, 504440, Note_on_c, 6, 41, 0
8, 506390, Note_on_c, 6, 41, 100
8, 506840, Note_on_c, 6, 41, 0
8, 506870, Note_on_c, 6, 46, 91
8, 506930, Note_on_c, 6, 46, 0
8, 506930, Note_on_c, 6, 46, 83
8, 506990, Note_on_c, 6, 46, 0
8, 506990, Note_on_c, 6, 46, 85
8, 507045, Note_on_c, 6, 46, 84
8, 507050, Note_on_c, 6, 46, 0
8, 507050, Note_on_c, 6, 46, 0
8, 507104, Note_on_c, 6, 46, 89
8, 507105, Note_on_c, 6, 46, 0
8, 507162, Note_on_c, 6, 46, 88
8, 507164, Note_on_c, 6, 46, 0
8, 507227, Note_on_c, 6, 46, 88
8, 507280, Note_on_c, 6, 46, 76
8, 507287, Note_on_c, 6, 46, 0
8, 507287, Note_on_c, 6, 46, 0
8, 507344, Note_on_c, 6, 46, 80
8, 507399, Note_on_c, 6, 46, 86
8, 507404, Note_on_c, 6, 46, 0
8, 507404, Note_on_c, 6, 46, 0
8, 507469, Note_on_c, 6, 46, 85
8, 507520, Note_on_c, 6, 46, 81
8, 507529, Note_on_c, 6, 46, 0
8, 507529, Note_on_c, 6, 46, 0
8, 507589, Note_on_c, 6, 46, 83
8, 507642, Note_on_c, 6, 46, 78
8, 507649, Note_on_c, 6, 46, 0
8, 507649, Note_on_c, 6, 46, 0
8, 507703, Note_on_c, 6, 46, 93
8, 507763, Note_on_c, 6, 46, 0
8, 507765, Note_on_c, 6, 46, 78
8, 507825, Note_on_c, 6, 46, 0
8, 507825, Note_on_c, 6, 46, 78
8, 507825, Note_on_c, 6, 46, 0
8, 507890, Note_on_c, 6, 46, 81
8, 507942, Note_on_c, 6, 46, 94
8, 507950, Note_on_c, 6, 46, 0
8, 507950, Note_on_c, 6, 46, 0
8, 508002, Note_on_c, 6, 46, 86
8, 508062, Note_on_c, 6, 46, 0
8, 508066, Note_on_c, 6, 46, 85
8, 508126, Note_on_c, 6, 46, 0
8, 508129, Note_on_c, 6, 46, 77
8, 508185, Note_on_c, 6, 46, 88
8, 508189, Note_on_c, 6, 46, 0
8, 508189, Note_on_c, 6, 46, 0
8, 508244, Note_on_c, 6, 46, 88
8, 508245, Note_on_c, 6, 46, 0
8, 508299, Note_on_c, 6, 46, 85
8, 508304, Note_on_c, 6, 46, 0
8, 508360, Note_on_c, 6, 46, 85
8, 508420, Note_on_c, 6, 46, 0
8, 508421, Note_on_c, 6, 46, 94
8, 508481, Note_on_c, 6, 46, 0
8, 508491, Note_on_c, 6, 46, 84
8, 508551, Note_on_c, 6, 46, 0
8, 508551, Note_on_c, 6, 46, 78
8, 508610, Note_on_c, 6, 46, 85
8, 508611, Note_on_c, 6, 46, 0
8, 508611, Note_on_c, 6, 46, 0
8, 508662, Note_on_c, 6, 46, 93
8, 508670, Note_on_c, 6, 46, 0
8, 508730, Note_on_c, 6, 46, 90
8, 508780, Note_on_c, 6, 46, 83
8, 508790, Note_on_c, 6, 46, 0
8, 508790, Note_on_c, 6, 46, 0
8, 508851, Note_on_c, 6, 46, 79
8, 508907, Note_on_c, 6, 46, 85
8, 508911, Note_on_c, 6, 46, 0
8, 508911, Note_on_c, 6, 46, 0
8, 508959, Note_on_c, 6, 46, 89
8, 508967, Note_on_c, 6, 46, 0
8, 509029, Note_on_c, 6, 46, 81
8, 509083, Note_on_c, 6, 46, 85
8, 509089, Note_on_c, 6, 46, 0
8, 509089, Note_on_c, 6, 46, 0
8, 509144, Note_on_c, 6, 46, 88
8, 509204, Note_on_c, 6, 46, 0
8, 509208, Note_on_c, 6, 46, 82
8, 509268, Note_on_c, 6, 46, 0
8, 509268, Note_on_c, 6, 46, 90
8, 509320, Note_on_c, 6, 46, 83
8, 509328, Note_on_c, 6, 46, 0
8, 509328, Note_on_c, 6, 46, 0
8, 509387, Note_on_c, 6, 46, 85
8, 509447, Note_on_c, 6, 46, 0
8, 509448, Note_on_c, 6, 46, 86
8, 509499, Note_on_c, 6, 46, 93
8, 509508, Note_on_c, 6, 46, 0
8, 509508, Note_on_c, 6, 46, 0
8, 509563, Note_on_c, 6, 46, 93
8, 509623, Note_on_c, 6, 46, 0
8, 509750, Note_on_c, 6, 41, 100
8, 510200, Note_on_c, 6, 41, 0
8, 512150, Note_on_c, 6, 41, 100
8, 512600, Note_on_c, 6, 41, 0
8, 512630, Note_on_c, 6, 46, 100
8, 513080, Note_on_c, 6, 46, 0
8, 514070, Note_on_c, 6, 46, 100
8, 514520, Note_on_c, 6, 46, 0
8, 515510, Note_on_c, 6, 46, 100
8, 515960, Note_on_c, 6, 46, 0
8, 515990, Note_on_c, 6, 46, 100
8, 516440, Note_on_c, 6, 46, 0
8, 516470, Note_on_c, 6, 46, 100
8, 516920, Note_on_c, 6, 46, 0
8, 516950, Note_on_c, 6, 46, 100
8, 517400, Note_on_c, 6, 46, 0
8, 612950, Note_on_c, 6, 46, 100
8, 613400, Note_on_c, 6, 46, 0
8, 613430, Note_on_c, 6, 46, 100
8, 613880, Note_on_c, 6, 46, 0
8, 614390, Note_on_c, 6, 46, 100
8, 614840, Note_on_c, 6, 46, 0
8, 614870, Note_on_c, 6, 46, 100
8, 615320, Note_on_c, 6, 46, 0
8, 615830, Note_on_c, 6, 46, 100
8, 616280, Note_on_c, 6, 46, 0
8, 616310, Note_on_c, 6, 46, 96
8, 616370, Note_on_c, 6, 46, 0
8, 616370, Note_on_c, 6, 46, 88
8, 616430, Note_on_c, 6, 46, 0
8, 616430, Note_on_c, 6, 46, 90
8, 616485, Note_on_c, 6, 46, 89
8, 616490, Note_on_c, 6, 46, 0
8, 616490, Note_on_c, 6, 46, 0
8, 616544, Note_on_c, 6, 46, 94
8, 616545, Note_on_c, 6, 46, 0
8, 616602, Note_on_c, 6, 46, 93
8, 616604, Note_on_c, 6, 46, 0
8, 616667, Note_on_c, 6, 46, 93
8, 616720, Note_on_c, 6, 46, 81
8, 616727, Note_on_c, 6, 46, 0
8, 616727, Note_on_c, 6, 46, 0
8, 616784, Note_on_c, 6, 46, 85
8, 616839, Note_on_c, 6, 46, 91
8, 616844, Note_on_c, 6, 46, 0
8, 616844, Note_on_c, 6, 46, 0
8, 616909, Note_on_c, 6, 46, 90
8, 616960, Note_on_c, 6, 46, 86
8, 616969, Note_on_c, 6, 46, 0
8, 616969, Note_on_c, 6, 46, 0
8, 617029, Note_on_c, 6, 46, 88
8, 617082, Note_on_c, 6, 46, 83
8, 617089, Note_on_c, 6, 46, 0
8, 617089, Note_on_c, 6, 46, 0
8, 617143, Note_on_c, 6, 46, 98
8, 617203, Note_on_c, 6, 46, 0
8, 617205, Note_on_c, 6, 46, 83
8, 617265, Note_on_c, 6, 46, 0
8, 617265, Note_on_c, 6, 46, 83
8, 617265, Note_on_c, 6, 46, 0
8, 617330, Note_on_c, 6, 46, 86
8, 617382, Note_on_c, 6, 46, 99
8, 617390, Note_on_c, 6, 46, 0
8, 617390, Note_on_c, 6, 46, 0
8, 617442, Note_on_c, 6, 46, 91
8, 617502, Note_on_c, 6, 46, 0
8, 617506, Note_on_c, 6, 46, 90
8, 617566, Note_on_c, 6, 46, 0
8, 617569, Note_on_c, 6, 46, 82
8, 617625, Note_on_c, 6, 46, 93
8, 617629, Note_on_c, 6, 46, 0
8, 617629, Note_on_c, 6, 46, 0
8, 617684, Note_on_c, 6, 46, 93
8, 617685, Note_on_c, 6, 46, 0
8, 617739, Note_on_c, 6, 46, 90
8, 617744, Note_on_c, 6, 46, 0
8, 617800, Note_on_c, 6, 46, 90
8, 617860, Note_on_c, 6, 46, 0
8, 617861, Note_on_c, 6, 46, 99
8, 617921, Note_on_c, 6, 46, 0
8, 617931, Note_on_c, 6, 46, 89
8, 617991, Note_on_c, 6, 46, 0
8, 617991, Note_on_c, 6, 46, 83
8, 618050, Note_on_c, 6, 46, 90
8, 618051, Note_on_c, 6, 46, 0
8, 618051, Note_on_c, 6, 46, 0
8, 618102, Note_on_c, 6, 46, 98
8, 618110, Note_on_c, 6, 46, 0
8, 618170, Note_on_c, 6, 46, 95
8, 618220, Note_on_c, 6, 46, 88
8, 618230, Note_on_c, 6, 46, 0
8, 618230, Note_on_c, 6, 46, 0
8, 618291, Note_on_c, 6, 46, 84
8, 618347, Note_on_c, 6, 46, 90
8, 618351, Note_on_c, 6, 46, 0
8, 618351, Note_on_c, 6, 46, 0
8, 618399, Note_on_c, 6, 46, 94
8, 618407, Note_on_c, 6, 46, 0
8, 618469, Note_on_c, 6, 46, 86
8, 618523, Note_on_c, 6, 46, 90
8, 618529, Note_on_c, 6, 46, 0
8, 618529, Note_on_c, 6, 46, 0
8, 618584, Note_on_c, 6, 46, 93
8, 618644, Note_on_c, 6, 46, 0
8, 618710, Note_on_c, 6, 46, 100
8, 619160, Note_on_c, 6, 46, 0
8, 619190, Note_on_c, 6, 41, 100
8, 619640, Note_on_c, 6, 41, 0
8, 620150, Note_on_c, 6, 41, 100
8, 620600, Note_on_c, 6, 41, 0
8, 620630, Note_on_c, 6, 41, 100
8, 621080, Note_on_c, 6, 41, 0
8, 621590, Note_on_c, 6, 41, 100
8, 622040, Note_on_c, 6, 41, 0
8, 622070, Note_on_c, 6, 46, 100
8, 622520, Note_on_c, 6, 46, 0
8, 624470, Note_on_c, 6, 46, 100
8, 624920, Note_on_c, 6, 46, 0
8, 624950, Note_on_c, 6, 41, 100
8, 625400, Note_on_c, 6, 41, 0
8, 627350, Note_on_c, 6, 41, 100
8, 627800, Note_on_c, 6, 41, 0
8, 627830, Note_on_c, 6, 46, 100
8, 628280, Note_on_c, 6, 46, 0
8, 630230, Note_on_c, 6, 46, 75
8, 630680, Note_on_c, 6, 46, 0
8, 630710, Note_on_c, 6, 41, 70
8, 631160, Note_on_c, 6, 41, 0
8, 633110, Note_on_c, 6, 41, 45
8, 633560, Note_on_c, 6, 41, 0
8, 633590, Note_on_c, 6, 46, 40
8, 634040, Note_on_c, 6, 46, 0
8, 635030, Note_on_c, 6, 46, 40
8, 635480, Note_on_c, 6, 46, 0
8, 636470, Note_on_c, 6, 46, 40
8, 636920, Note_on_c, 6, 46, 0
8, 637910, Note_on_c, 6, 46, 40
8, 638360, Note_on_c, 6, 46, 0
8, 639350, Note_on_c, 6, 46, 40
8, 639800, Note_on_c, 6, 46, 0
8, 644630, Note_on_c, 6, 41, 100
8, 645080, Note_on_c, 6, 41, 0
8, 645110, Note_on_c, 6, 46, 100
8, 645560, Note_on_c, 6, 46, 0
8, 645590, Note_on_c, 6, 46, 100
8, 646040, Note_on_c, 6, 46, 0
8, 646550, Note_on_c, 6, 46, 100
8, 647000, Note_on_c, 6, 46, 0
8, 647510, Note_on_c, 6, 46, 100
8, 647960, Note_on_c, 6, 46, 0
8, 647990, Note_on_c, 6, 41, 100
8, 648440, Note_on_c, 6, 41, 0
8, 648950, Note_on_c, 6, 41, 100
8, 649400, Note_on_c, 6, 41, 0
8, 649430, Note_on_c, 6, 41, 100
8, 649880, Note_on_c, 6, 41, 0
8, 677270, Note_on_c, 6, 41, 100
8, 677720, Note_on_c, 6, 41, 0
8, 678230, Note_on_c, 6, 46, 100
8, 678680, Note_on_c, 6, 46, 0
8, 679190, Note_on_c, 6, 46, 100
8, 679640, Note_on_c, 6, 46, 0
8, 679670, Note_on_c, 6, 41, 100
8, 680120, Note_on_c, 6, 41, 0
8, 681110, Note_on_c, 6, 41, 100
8, 681560, Note_on_c, 6, 41, 0
8, 682555, Note_on_c, 6, 46, 91
8, 682615, Note_on_c, 6, 46, 0
8, 682615, Note_on_c, 6, 46, 83
8, 682675, Note_on_c, 6, 46, 0
8, 682675, Note_on_c, 6, 46, 85
8, 682730, Note_on_c, 6, 46, 84
8, 682735, Note_on_c, 6, 46, 0
8, 682735, Note_on_c, 6, 46, 0
8, 682790, Note_on_c, 6, 46, 89
8, 682790, Note_on_c, 6, 46, 0
8, 682847, Note_on_c, 6, 46, 88
8, 682850, Note_on_c, 6, 46, 0
8, 682912, Note_on_c, 6, 46, 88
8, 682965, Note_on_c, 6, 46, 76
8, 682972, Note_on_c, 6, 46, 0
8, 682972, Note_on_c, 6, 46, 0
8, 683029, Note_on_c, 6, 46, 80
8, 683085, Note_on_c, 6, 46, 86
8, 683089, Note_on_c, 6, 46, 0
8, 683089, Note_on_c, 6, 46, 0
8, 683155, Note_on_c, 6, 46, 85
8, 683205, Note_on_c, 6, 46, 81
8, 683215, Note_on_c, 6, 46, 0
8, 683215, Note_on_c, 6, 46, 0
8, 683274, Note_on_c, 6, 46, 83
8, 683328, Note_on_c, 6, 46, 78
8, 683334, Note_on_c, 6, 46, 0
8, 683334, Note_on_c, 6, 46, 0
8, 683388, Note_on_c, 6, 46, 93
8, 683448, Note_on_c, 6, 46, 0
8, 683451, Note_on_c, 6, 46, 78
8, 683510, Note_on_c, 6, 46, 78
8, 683511, Note_on_c, 6, 46, 0
8, 683511, Note_on_c, 6, 46, 0
8, 683576, Note_on_c, 6, 46, 81
8, 683627, Note_on_c, 6, 46, 94
8, 683636, Note_on_c, 6, 46, 0
8, 683636, Note_on_c, 6, 46, 0
8, 683688, Note_on_c, 6, 46, 86
8, 683748, Note_on_c, 6, 46, 0
8, 683752, Note_on_c, 6, 46, 85
8, 683812, Note_on_c, 6, 46, 0
8, 683815, Note_on_c, 6, 46, 77
8, 683871, Note_on_c, 6, 46, 88
8, 683875, Note_on_c, 6, 46, 0
8, 683875, Note_on_c, 6, 46, 0
8, 683930, Note_on_c, 6, 46, 88
8, 683931, Note_on_c, 6, 46, 0
8, 683984, Note_on_c, 6, 46, 85
8, 683990, Note_on_c, 6, 46, 0
8, 684045, Note_on_c, 6, 46, 85
8, 684105, Note_on_c, 6, 46, 0
8, 684106, Note_on_c, 6, 46, 94
8, 684166, Note_on_c, 6, 46, 0
8, 684177, Note_on_c, 6, 46, 84
8, 684237, Note_on_c, 6, 46, 0
8, 684237, Note_on_c, 6, 46, 78
8, 684295, Note_on_c, 6, 46, 85
8, 684297, Note_on_c, 6, 46, 0
8, 684297, Note_on_c, 6, 46, 0
8, 684347, Note_on_c, 6, 46, 93
8, 684355, Note_on_c, 6, 46, 0
8, 684415, Note_on_c, 6, 46, 90
8, 684466, Note_on_c, 6, 46, 83
8, 684475, Note_on_c, 6, 46, 0
8, 684475, Note_on_c, 6, 46, 0
8, 684536, Note_on_c, 6, 46, 79
8, 684593, Note_on_c, 6, 46, 85
8, 684596, Note_on_c, 6, 46, 0
8, 684596, Note_on_c, 6, 46, 0
8, 684644, Note_on_c, 6, 46, 89
8, 684653, Note_on_c, 6, 46, 0
8, 684714, Note_on_c, 6, 46, 81
8, 684768, Note_on_c, 6, 46, 85
8, 684774, Note_on_c, 6, 46, 0
8, 684774, Note_on_c, 6, 46, 0
8, 684830, Note_on_c, 6, 46, 88
8, 684890, Note_on_c, 6, 46, 0
8, 684893, Note_on_c, 6, 46, 82
8, 684953, Note_on_c, 6, 46, 0
8, 684954, Note_on_c, 6, 46, 90
8, 685006, Note_on_c, 6, 46, 83
8, 685014, Note_on_c, 6, 46, 0
8, 685014, Note_on_c, 6, 46, 0
8, 685072, Note_on_c, 6, 46, 85
8, 685132, Note_on_c, 6, 46, 0
8, 685134, Note_on_c, 6, 46, 86
8, 685185, Note_on_c, 6, 46, 93
8, 685194, Note_on_c, 6, 46, 0
8, 685194, Note_on_c, 6, 46, 0
8, 685249, Note_on_c, 6, 46, 93
8, 685309, Note_on_c, 6, 46, 0
8, 685430, Note_on_c, 6, 41, 100
8, 685880, Note_on_c, 6, 41, 0
8, 687830, Note_on_c, 6, 41, 100
8, 688280, Note_on_c, 6, 41, 0
8, 688310, Note_on_c, 6, 46, 91
8, 688370, Note_on_c, 6, 46, 0
8, 688370, Note_on_c, 6, 46, 83
8, 688430, Note_on_c, 6, 46, 0
8, 688430, Note_on_c, 6, 46, 85
8, 688485, Note_on_c, 6, 46, 84
8, 688490, Note_on_c, 6, 46, 0
8, 688490, Note_on_c, 6, 46, 0
8, 688544, Note_on_c, 6, 46, 89
8, 688545, Note_on_c, 6, 46, 0
8, 688602, Note_on_c, 6, 46, 88
8, 688604, Note_on_c, 6, 46, 0
8, 688667, Note_on_c, 6, 46, 88
8, 688720, Note_on_c, 6, 46, 76
8, 688727, Note_on_c, 6, 46, 0
8, 688727, Note_on_c, 6, 46, 0
8, 688784, Note_on_c, 6, 46, 80
8, 688839, Note_on_c, 6, 46, 86
8, 688844, Note_on_c, 6, 46, 0
8, 688844, Note_on_c, 6, 46, 0
8, 688909, Note_on_c, 6, 46, 85
8, 688960, Note_on_c, 6, 46, 81
8, 688969, Note_on_c, 6, 46, 0
8, 688969, Note_on_c, 6, 46, 0
8, 689029, Note_on_c, 6, 46, 83
8, 689082, Note_on_c, 6, 46, 78
8, 689089, Note_on_c, 6, 46, 0
8, 689089, Note_on_c, 6, 46, 0
8, 689143, Note_on_c, 6, 46, 93
8, 689203, Note_on_c, 6, 46, 0
8, 689205, Note_on_c, 6, 46, 78
8, 689265, Note_on_c, 6, 46, 0
8, 689265, Note_on_c, 6, 46, 78
8, 689265, Note_on_c, 6, 46, 0
8, 689330, Note_on_c, 6, 46, 81
8, 689382, Note_on_c, 6, 46, 94
8, 689390, Note_on_c, 6, 46, 0
8, 689390, Note_on_c, 6, 46, 0
8, 689442, Note_on_c, 6, 46, 86
8, 689502, Note_on_c, 6, 46, 0
8, 689506, Note_on_c, 6, 46, 85
8, 689566, Note_on_c, 6, 46, 0
8, 689569, Note_on_c, 6, 46, 77
8, 689625, Note_on_c, 6, 46, 88
8, 689629, Note_on_c, 6, 46, 0
8, 689629, Note_on_c, 6, 46, 0
8, 689684, Note_on_c, 6, 46, 88
8, 689685, Note_on_c, 6, 46, 0
8, 689739, Note_on_c, 6, 46, 85
8, 689744, Note_on_c, 6, 46, 0
8, 689800, Note_on_c, 6, 46, 85
8, 689860, Note_on_c, 6, 46, 0
8, 689861, Note_on_c, 6, 46, 94
8, 689921, Note_on_c, 6, 46, 0
8, 689931, Note_on_c, 6, 46, 84
8, 689991, Note_on_c, 6, 46, 0
8, 689991, Note_on_c, 6, 46, 78
8, 690050, Note_on_c, 6, 46, 85
8, 690051, Note_on_c, 6, 46, 0
8, 690051, Note_on_c, 6, 46, 0
8, 690102, Note_on_c, 6, 46, 93
8, 690110, Note_on_c, 6, 46, 0
8, 690170, Note_on_c, 6, 46, 90
8, 690220, Note_on_c, 6, 46, 83
8, 690230, Note_on_c, 6, 46, 0
8, 690230, Note_on_c, 6, 46, 0
8, 690291, Note_on_c, 6, 46, 79
8, 690347, Note_on_c, 6, 46, 85
8, 690351, Note_on_c, 6, 46, 0
8, 690351, Note_on_c, 6, 46, 0
8, 690399, Note_on_c, 6, 46, 89
8, 690407, Note_on_c, 6, 46, 0
8, 690469, Note_on_c, 6, 46, 81
8, 690523, Note_on_c, 6, 46, 85
8, 690529, Note_on_c, 6, 46, 0
8, 690529, Note_on_c, 6, 46, 0
8, 690584, Note_on_c, 6, 46, 88
8, 690644, Note_on_c, 6, 46, 0
8, 690648, Note_on_c, 6, 46, 82
8, 690708, Note_on_c, 6, 46, 0
8, 690708, Note_on_c, 6, 46, 90
8, 690760, Note_on_c, 6, 46, 83
8, 690768, Note_on_c, 6, 46, 0
8, 690768, Note_on_c, 6, 46, 0
8, 690827, Note_on_c, 6, 46, 85
8, 690887, Note_on_c, 6, 46, 0
8, 690888, Note_on_c, 6, 46, 86
8, 690939, Note_on_c, 6, 46, 93
8, 690948, Note_on_c, 6, 46, 0
8, 690948, Note_on_c, 6, 46, 0
8, 691003, Note_on_c, 6, 46, 93
8, 691063, Note_on_c, 6, 46, 0
8, 691190, Note_on_c, 6, 41, 100
8, 691640, Note_on_c, 6, 41, 0
8, 693590, Note_on_c, 6, 41, 100
8, 694040, Note_on_c, 6, 41, 0
8, 694070, Note_on_c, 6, 46, 100
8, 694520, Note_on_c, 6, 46, 0
8, 695510, Note_on_c, 6, 46, 100
8, 695960, Note_on_c, 6, 46, 0
8, 696950, Note_on_c, 6, 46, 100
8, 697400, Note_on_c, 6, 46, 0
8, 697430, Note_on_c, 6, 46, 100
8, 697880, Note_on_c, 6, 46, 0
8, 697910, Note_on_c, 6, 46, 100
8, 698360, Note_on_c, 6, 46, 0
8, 698390, Note_on_c, 6, 46, 100
8, 698840, Note_on_c, 6, 46, 0
8, 702710, Note_on_c, 6, 46, 110
8, 703040, Note_on_c, 6, 46, 0
8, 703040, End_track
9, 0, Start_track
9, 0, Channel_prefix, 7
9, 0, Title_t, "Violin I"
9, 0, Instrument_name_t, "Violino I"
9, 2392, Note_on_c, 7, 65, 127
9, 2872, Note_on_c, 7, 70, 127
9, 2902, Note_on_c, 7, 65, 0
9, 3082, Note_on_c, 7, 70, 0
9, 3352, Note_on_c, 7, 65, 127
9, 3832, Note_on_c, 7, 74, 127
9, 3862, Note_on_c, 7, 65, 0
9, 4042, Note_on_c, 7, 74, 0
9, 4312, Note_on_c, 7, 70, 127
9, 4792, Note_on_c, 7, 77, 127
9, 4822, Note_on_c, 7, 70, 0
9, 4942, Note_on_c, 7, 77, 0
9, 5272, Note_on_c, 7, 74, 127
9, 5422, Note_on_c, 7, 74, 0
9, 5752, Note_on_c, 7, 77, 127
9, 6232, Note_on_c, 7, 75, 127
9, 6262, Note_on_c, 7, 77, 0
9, 6442, Note_on_c, 7, 75, 0
9, 6712, Note_on_c, 7, 72, 127
9, 6862, Note_on_c, 7, 72, 0
9, 7192, Note_on_c, 7, 69, 127
9, 7792, Note_on_c, 7, 69, 0
9, 8632, Control_c, 7, 11, 80
9, 11032, Note_on_c, 7, 78, 60
9, 11512, Note_on_c, 7, 75, 60
9, 11542, Note_on_c, 7, 78, 0
9, 11992, Note_on_c, 7, 72, 60
9, 12022, Note_on_c, 7, 75, 0
9, 12472, Note_on_c, 7, 69, 60
9, 12502, Note_on_c, 7, 72, 0
9, 12952, Note_on_c, 7, 66, 60
9, 12982, Note_on_c, 7, 69, 0
9, 13432, Note_on_c, 7, 65, 60
9, 13462, Note_on_c, 7, 66, 0
9, 13912, Note_on_c, 7, 63, 60
9, 13942, Note_on_c, 7, 65, 0
9, 14392, Note_on_c, 7, 61, 60
9, 14422, Note_on_c, 7, 63, 0
9, 14902, Note_on_c, 7, 61, 0
9, 16792, Note_on_c, 7, 73, 60
9, 17272, Note_on_c, 7, 70, 60
9, 17302, Note_on_c, 7, 73, 0
9, 17752, Note_on_c, 7, 67, 60
9, 17782, Note_on_c, 7, 70, 0
9, 18232, Note_on_c, 7, 64, 60
9, 18262, Note_on_c, 7, 67, 0
9, 18712, Note_on_c, 7, 61, 60
9, 18742, Note_on_c, 7, 64, 0
9, 19192, Note_on_c, 7, 60, 60
9, 19222, Note_on_c, 7, 61, 0
9, 19672, Note_on_c, 7, 64, 60
9, 19702, Note_on_c, 7, 60, 0
9, 20152, Note_on_c, 7, 65, 60
9, 20152, Control_c, 7, 11, 80
9, 20182, Note_on_c, 7, 64, 0
9, 20282, Control_c, 7, 11, 81
9, 20362, Note_on_c, 7, 65, 0
9, 20402, Control_c, 7, 11, 82
9, 20522, Control_c, 7, 11, 83
9, 20632, Note_on_c, 7, 67, 65
9, 20652, Control_c, 7, 11, 84
9, 20772, Control_c, 7, 11, 85
9, 20892, Control_c, 7, 11, 86
9, 21012, Control_c, 7, 11, 87
9, 21142, Note_on_c, 7, 67, 0
9, 21142, Control_c, 7, 11, 88
9, 21262, Control_c, 7, 11, 89
9, 21382, Control_c, 7, 11, 90
9, 21502, Control_c, 7, 11, 91
9, 21592, Note_on_c, 7, 69, 76
9, 21632, Control_c, 7, 11, 92
9, 21752, Control_c, 7, 11, 93
9, 21872, Control_c, 7, 11, 94
9, 21992, Control_c, 7, 11, 95
9, 22072, Note_on_c, 7, 65, 82
9, 22102, Note_on_c, 7, 69, 0
9, 22122, Control_c, 7, 11, 96
9, 22242, Control_c, 7, 11, 97
9, 22282, Note_on_c, 7, 65, 0
9, 22362, Control_c, 7, 11, 98
9, 22482, Control_c, 7, 11, 99
9, 22552, Note_on_c, 7, 70, 87
9, 22612, Control_c, 7, 11, 100
9, 22732, Control_c, 7, 11, 101
9, 22852, Control_c, 7, 11, 102
9, 22972, Control_c, 7, 11, 103
9, 23102, Control_c, 7, 11, 104
9, 23222, Control_c, 7, 11, 105
9, 23242, Note_on_c, 7, 70, 0
9, 23342, Control_c, 7, 11, 106
9, 23462, Control_c, 7, 11, 107
9, 23512, Note_on_c, 7, 72, 99
9, 23592, Control_c, 7, 11, 108
9, 23712, Control_c, 7, 11, 109
9, 23832, Control_c, 7, 11, 110
9, 23952, Control_c, 7, 11, 111
9, 24022, Note_on_c, 7, 72, 0
9, 24082, Control_c, 7, 11, 112
9, 24202, Control_c, 7, 11, 113
9, 24322, Control_c, 7, 11, 114
9, 24442, Control_c, 7, 11, 115
9, 24472, Note_on_c, 7, 74, 110
9, 24572, Control_c, 7, 11, 116
9, 24692, Control_c, 7, 11, 117
9, 24812, Control_c, 7, 11, 118
9, 24932, Control_c, 7, 11, 119
9, 24952, Note_on_c, 7, 70, 115
9, 24982, Note_on_c, 7, 74, 0
9, 25062, Control_c, 7, 11, 120
9, 25162, Note_on_c, 7, 70, 0
9, 25182, Control_c, 7, 11, 121
9, 25302, Control_c, 7, 11, 122
9, 25422, Control_c, 7, 11, 123
9, 25432, Note_on_c, 7, 76, 121
9, 25552, Control_c, 7, 11, 124
9, 25582, Note_on_c, 7, 76, 0
9, 25672, Control_c, 7, 11, 125
9, 25792, Control_c, 7, 11, 126
9, 25882, Control_c, 7, 11, 127
9, 25912, Note_on_c, 7, 69, 127
9, 25912, Note_on_c, 7, 77, 127
9, 27082, Note_on_c, 7, 69, 0
9, 27082, Note_on_c, 7, 77, 0
9, 27352, Note_on_c, 7, 69, 127
9, 27352, Note_on_c, 7, 81, 127
9, 28522, Note_on_c, 7, 69, 0
9, 28522, Note_on_c, 7, 81, 0
9, 28792, Note_on_c, 7, 69, 127
9, 28792, Note_on_c, 7, 84, 127
9, 29002, Note_on_c, 7, 69, 0
9, 29002, Note_on_c, 7, 84, 0
9, 29272, Note_on_c, 7, 69, 127
9, 29272, Note_on_c, 7, 84, 127
9, 29482, Note_on_c, 7, 69, 0
9, 29482, Note_on_c, 7, 84, 0
9, 29752, Note_on_c, 7, 69, 127
9, 29752, Note_on_c, 7, 84, 127
9, 29962, Note_on_c, 7, 69, 0
9, 29962, Note_on_c, 7, 84, 0
9, 30232, Note_on_c, 7, 69, 127
9, 30232, Note_on_c, 7, 77, 127
9, 30592, Note_on_c, 7, 69, 0
9, 30592, Note_on_c, 7, 77, 0
9, 31192, Note_on_c, 7, 65, 127
9, 31672, Note_on_c, 7, 70, 127
9, 31702, Note_on_c, 7, 65, 0
9, 31882, Note_on_c, 7, 70, 0
9, 32152, Note_on_c, 7, 65, 127
9, 32632, Note_on_c, 7, 74, 127
9, 32662, Note_on_c, 7, 65, 0
9, 32842, Note_on_c, 7, 74, 0
9, 33112, Note_on_c, 7, 70, 127
9, 33592, Note_on_c, 7, 77, 127
9, 33622, Note_on_c, 7, 70, 0
9, 33742, Note_on_c, 7, 77, 0
9, 34072, Note_on_c, 7, 74, 127
9, 34222, Note_on_c, 7, 74, 0
9, 34552, Note_on_c, 7, 77, 127
9, 35032, Note_on_c, 7, 75, 127
9, 35062, Note_on_c, 7, 77, 0
9, 35242, Note_on_c, 7, 75, 0
9, 35512, Note_on_c, 7, 72, 127
9, 35662, Note_on_c, 7, 72, 0
9, 35992, Note_on_c, 7, 69, 127
9, 36592, Note_on_c, 7, 69, 0
9, 37432, Control_c, 7, 11, 80
9, 39832, Note_on_c, 7, 78, 60
9, 40312, Note_on_c, 7, 75, 60
9, 40342, Note_on_c, 7, 78, 0
9, 40792, Note_on_c, 7, 72, 60
9, 40822, Note_on_c, 7, 75, 0
9, 41272, Note_on_c, 7, 69, 60
9, 41302, Note_on_c, 7, 72, 0
9, 41752, Note_on_c, 7, 66, 60
9, 41782, Note_on_c, 7, 69, 0
9, 42232, Note_on_c, 7, 65, 60
9, 42262, Note_on_c, 7, 66, 0
9, 42712, Note_on_c, 7, 63, 60
9, 42742, Note_on_c, 7, 65, 0
9, 43192, Note_on_c, 7, 61, 60
9, 43222, Note_on_c, 7, 63, 0
9, 43702, Note_on_c, 7, 61, 0
9, 45592, Note_on_c, 7, 73, 60
9, 46072, Note_on_c, 7, 70, 60
9, 46102, Note_on_c, 7, 73, 0
9, 46552, Note_on_c, 7, 67, 60
9, 46582, Note_on_c, 7, 70, 0
9, 47032, Note_on_c, 7, 64, 60
9, 47062, Note_on_c, 7, 67, 0
9, 47512, Note_on_c, 7, 61, 60
9, 47542, Note_on_c, 7, 64, 0
9, 47992, Note_on_c, 7, 60, 60
9, 48022, Note_on_c, 7, 61, 0
9, 48472, Note_on_c, 7, 64, 60
9, 48502, Note_on_c, 7, 60, 0
9, 48952, Note_on_c, 7, 65, 60
9, 48952, Control_c, 7, 11, 80
9, 48982, Note_on_c, 7, 64, 0
9, 49082, Control_c, 7, 11, 81
9, 49162, Note_on_c, 7, 65, 0
9, 49202, Control_c, 7, 11, 82
9, 49322, Control_c, 7, 11, 83
9, 49432, Note_on_c, 7, 67, 65
9, 49452, Control_c, 7, 11, 84
9, 49572, Control_c, 7, 11, 85
9, 49692, Control_c, 7, 11, 86
9, 49812, Control_c, 7, 11, 87
9, 49942, Note_on_c, 7, 67, 0
9, 49942, Control_c, 7, 11, 88
9, 50062, Control_c, 7, 11, 89
9, 50182, Control_c, 7, 11, 90
9, 50302, Control_c, 7, 11, 91
9, 50392, Note_on_c, 7, 69, 76
9, 50432, Control_c, 7, 11, 92
9, 50552, Control_c, 7, 11, 93
9, 50672, Control_c, 7, 11, 94
9, 50792, Control_c, 7, 11, 95
9, 50872, Note_on_c, 7, 65, 82
9, 50902, Note_on_c, 7, 69, 0
9, 50922, Control_c, 7, 11, 96
9, 51042, Control_c, 7, 11, 97
9, 51082, Note_on_c, 7, 65, 0
9, 51162, Control_c, 7, 11, 98
9, 51282, Control_c, 7, 11, 99
9, 51352, Note_on_c, 7, 70, 87
9, 51412, Control_c, 7, 11, 100
9, 51532, Control_c, 7, 11, 101
9, 51652, Control_c, 7, 11, 102
9, 51772, Control_c, 7, 11, 103
9, 51902, Control_c, 7, 11, 104
9, 52022, Control_c, 7, 11, 105
9, 52042, Note_on_c, 7, 70, 0
9, 52142, Control_c, 7, 11, 106
9, 52262, Control_c, 7, 11, 107
9, 52312, Note_on_c, 7, 72, 99
9, 52392, Control_c, 7, 11, 108
9, 52512, Control_c, 7, 11, 109
9, 52632, Control_c, 7, 11, 110
9, 52752, Control_c, 7, 11, 111
9, 52822, Note_on_c, 7, 72, 0
9, 52882, Control_c, 7, 11, 112
9, 53002, Control_c, 7, 11, 113
9, 53122, Control_c, 7, 11, 114
9, 53242, Control_c, 7, 11, 115
9, 53272, Note_on_c, 7, 74, 110
9, 53372, Control_c, 7, 11, 116
9, 53492, Control_c, 7, 11, 117
9, 53612, Control_c, 7, 11, 118
9, 53732, Control_c, 7, 11, 119
9, 53752, Note_on_c, 7, 70, 115
9, 53782, Note_on_c, 7, 74, 0
9, 53862, Control_c, 7, 11, 120
9, 53962, Note_on_c, 7, 70, 0
9, 53982, Control_c, 7, 11, 121
9, 54102, Control_c, 7, 11, 122
9, 54222, Control_c, 7, 11, 123
9, 54232, Note_on_c, 7, 76, 121
9, 54352, Control_c, 7, 11, 124
9, 54382, Note_on_c, 7, 76, 0
9, 54472, Control_c, 7, 11, 125
9, 54592, Control_c, 7, 11, 126
9, 54682, Control_c, 7, 11, 127
9, 54712, Note_on_c, 7, 69, 127
9, 54712, Note_on_c, 7, 77, 127
9, 55882, Note_on_c, 7, 69, 0
9, 55882, Note_on_c, 7, 77, 0
9, 56152, Note_on_c, 7, 69, 127
9, 56152, Note_on_c, 7, 81, 127
9, 57322, Note_on_c, 7, 69, 0
9, 57322, Note_on_c, 7, 81, 0
9, 57592, Note_on_c, 7, 69, 127
9, 57592, Note_on_c, 7, 84, 127
9, 57802, Note_on_c, 7, 69, 0
9, 57802, Note_on_c, 7, 84, 0
9, 58072, Note_on_c, 7, 69, 127
9, 58072, Note_on_c, 7, 84, 127
9, 58282, Note_on_c, 7, 69, 0
9, 58282, Note_on_c, 7, 84, 0
9, 58552, Note_on_c, 7, 69, 127
9, 58552, Note_on_c, 7, 84, 127
9, 58762, Note_on_c, 7, 69, 0
9, 58762, Note_on_c, 7, 84, 0
9, 59032, Note_on_c, 7, 69, 127
9, 59032, Note_on_c, 7, 77, 127
9, 59392, Note_on_c, 7, 69, 0
9, 59392, Note_on_c, 7, 77, 0
9, 59512, Control_c, 7, 11, 80
9, 59992, Note_on_c, 7, 68, 80
9, 60472, Note_on_c, 7, 73, 80
9, 60502, Note_on_c, 7, 68, 0
9, 60712, Note_on_c, 7, 73, 0
9, 60952, Note_on_c, 7, 68, 80
9, 61432, Note_on_c, 7, 77, 80
9, 61462, Note_on_c, 7, 68, 0
9, 61672, Note_on_c, 7, 77, 0
9, 61912, Note_on_c, 7, 73, 80
9, 62392, Note_on_c, 7, 80, 80
9, 62422, Note_on_c, 7, 73, 0
9, 62632, Note_on_c, 7, 80, 0
9, 62872, Note_on_c, 7, 77, 80
9, 63352, Note_on_c, 7, 80, 80
9, 63382, Note_on_c, 7, 77, 0
9, 63832, Note_on_c, 7, 78, 80
9, 63862, Note_on_c, 7, 80, 0
9, 64102, Note_on_c, 7, 78, 0
9, 64312, Note_on_c, 7, 75, 80
9, 64792, Note_on_c, 7, 72, 80
9, 64822, Note_on_c, 7, 75, 0
9, 65272, Note_on_c, 7, 72, 0
9, 68152, Note_on_c, 7, 78, 80
9, 68632, Note_on_c, 7, 75, 80
9, 68662, Note_on_c, 7, 78, 0
9, 69112, Note_on_c, 7, 82, 80
9, 69142, Note_on_c, 7, 75, 0
9, 69592, Note_on_c, 7, 80, 80
9, 69622, Note_on_c, 7, 82, 0
9, 69802, Note_on_c, 7, 80, 0
9, 70072, Note_on_c, 7, 77, 80
9, 70552, Note_on_c, 7, 73, 80
9, 70582, Note_on_c, 7, 77, 0
9, 71032, Note_on_c, 7, 73, 0
9, 73912, Note_on_c, 7, 80, 80
9, 74392, Note_on_c, 7, 77, 80
9, 74422, Note_on_c, 7, 80, 0
9, 74872, Note_on_c, 7, 82, 80
9, 74902, Note_on_c, 7, 77, 0
9, 75352, Note_on_c, 7, 80, 80
9, 75382, Note_on_c, 7, 82, 0
9, 75562, Note_on_c, 7, 80, 0
9, 75832, Note_on_c, 7, 77, 80
9, 76312, Note_on_c, 7, 74, 80
9, 76342, Note_on_c, 7, 77, 0
9, 76792, Note_on_c, 7, 74, 0
9, 79672, Note_on_c, 7, 80, 80
9, 80152, Note_on_c, 7, 77, 80
9, 80182, Note_on_c, 7, 80, 0
9, 80632, Note_on_c, 7, 78, 80
9, 80662, Note_on_c, 7, 77, 0
9, 80842, Note_on_c, 7, 78, 0
9, 81112, Note_on_c, 7, 75, 80
9, 81592, Note_on_c, 7, 78, 80
9, 81622, Note_on_c, 7, 75, 0
9, 81802, Note_on_c, 7, 78, 0
9, 82072, Note_on_c, 7, 71, 80
9, 82552, Note_on_c, 7, 78, 80
9, 82582, Note_on_c, 7, 71, 0
9, 82762, Note_on_c, 7, 78, 0
9, 83032, Note_on_c, 7, 70, 80
9, 83512, Note_on_c, 7, 69, 80
9, 83542, Note_on_c, 7, 70, 0
9, 83962, Note_on_c, 7, 69, 0
9, 86872, Note_on_c, 7, 70, 80
9, 87352, Note_on_c, 7, 73, 80
9, 87382, Note_on_c, 7, 70, 0
9, 87562, Note_on_c, 7, 73, 0
9, 87832, Note_on_c, 7, 66, 80
9, 88312, Note_on_c, 7, 73, 80
9, 88342, Note_on_c, 7, 66, 0
9, 88522, Note_on_c, 7, 73, 0
9, 88792, Note_on_c, 7, 65, 80
9, 89272, Note_on_c, 7, 64, 80
9, 89302, Note_on_c, 7, 65, 0
9, 89722, Note_on_c, 7, 64, 0
9, 92632, Note_on_c, 7, 65, 80
9, 93112, Note_on_c, 7, 68, 80
9, 93142, Note_on_c, 7, 65, 0
9, 93322, Note_on_c, 7, 68, 0
9, 93592, Note_on_c, 7, 59, 80
9, 94042, Note_on_c, 7, 59, 0
9, 95512, Note_on_c, 7, 72, 80
9, 95992, Note_on_c, 7, 75, 80
9, 96022, Note_on_c, 7, 72, 0
9, 96202, Note_on_c, 7, 75, 0
9, 96472, Note_on_c, 7, 66, 80
9, 96922, Note_on_c, 7, 66, 0
9, 98392, Note_on_c, 7, 67, 80
9, 98872, Note_on_c, 7, 70, 80
9, 98902, Note_on_c, 7, 67, 0
9, 99082, Note_on_c, 7, 70, 0
9, 99352, Note_on_c, 7, 61, 80
9, 99862, Note_on_c, 7, 61, 0
9, 100792, Control_c, 7, 11, 80
9, 100922, Control_c, 7, 11, 81
9, 101042, Control_c, 7, 11, 82
9, 101162, Control_c, 7, 11, 83
9, 101272, Note_on_c, 7, 65, 84
9, 101292, Control_c, 7, 11, 84
9, 101412, Control_c, 7, 11, 85
9, 101532, Control_c, 7, 11, 86
9, 101652, Control_c, 7, 11, 87
9, 101752, Note_on_c, 7, 69, 89
9, 101782, Note_on_c, 7, 65, 0
9, 101782, Control_c, 7, 11, 88
9, 101902, Control_c, 7, 11, 89
9, 101962, Note_on_c, 7, 69, 0
9, 102022, Control_c, 7, 11, 90
9, 102142, Control_c, 7, 11, 91
9, 102232, Note_on_c, 7, 63, 94
9, 102272, Control_c, 7, 11, 92
9, 102392, Control_c, 7, 11, 93
9, 102512, Control_c, 7, 11, 94
9, 102632, Control_c, 7, 11, 95
9, 102712, Note_on_c, 7, 69, 99
9, 102742, Note_on_c, 7, 63, 0
9, 102762, Control_c, 7, 11, 96
9, 102882, Control_c, 7, 11, 97
9, 102922, Note_on_c, 7, 69, 0
9, 103002, Control_c, 7, 11, 98
9, 103122, Control_c, 7, 11, 99
9, 103192, Note_on_c, 7, 69, 103
9, 103252, Control_c, 7, 11, 100
9, 103372, Control_c, 7, 11, 101
9, 103492, Control_c, 7, 11, 102
9, 103612, Control_c, 7, 11, 103
9, 103672, Note_on_c, 7, 72, 108
9, 103702, Note_on_c, 7, 69, 0
9, 103742, Control_c, 7, 11, 104
9, 103862, Control_c, 7, 11, 105
9, 103882, Note_on_c, 7, 72, 0
9, 103982, Control_c, 7, 11, 106
9, 104102, Control_c, 7, 11, 107
9, 104152, Note_on_c, 7, 72, 113
9, 104232, Control_c, 7, 11, 108
9, 104352, Control_c, 7, 11, 109
9, 104472, Control_c, 7, 11, 110
9, 104592, Control_c, 7, 11, 111
9, 104632, Note_on_c, 7, 75, 118
9, 104662, Note_on_c, 7, 72, 0
9, 104722, Control_c, 7, 11, 112
9, 104842, Note_on_c, 7, 75, 0
9, 104842, Control_c, 7, 11, 113
9, 104962, Control_c, 7, 11, 114
9, 105082, Control_c, 7, 11, 115
9, 105112, Note_on_c, 7, 75, 122
9, 105212, Control_c, 7, 11, 116
9, 105332, Control_c, 7, 11, 117
9, 105452, Control_c, 7, 11, 118
9, 105572, Control_c, 7, 11, 119
9, 105592, Note_on_c, 7, 81, 127
9, 105622, Note_on_c, 7, 75, 0
9, 105702, Control_c, 7, 11, 120
9, 105802, Note_on_c, 7, 81, 0
9, 105822, Control_c, 7, 11, 121
9, 105942, Control_c, 7, 11, 122
9, 106062, Control_c, 7, 11, 123
9, 106072, Note_on_c, 7, 81, 127
9, 106192, Control_c, 7, 11, 124
9, 106312, Control_c, 7, 11, 125
9, 106432, Control_c, 7, 11, 126
9, 106492, Control_c, 7, 11, 127
9, 106552, Note_on_c, 7, 82, 127
9, 106582, Note_on_c, 7, 81, 0
9, 106762, Note_on_c, 7, 82, 0
9, 107032, Note_on_c, 7, 77, 127
9, 107512, Note_on_c, 7, 86, 127
9, 107542, Note_on_c, 7, 77, 0
9, 107722, Note_on_c, 7, 86, 0
9, 107992, Note_on_c, 7, 82, 127
9, 108472, Note_on_c, 7, 89, 127
9, 108502, Note_on_c, 7, 82, 0
9, 108682, Note_on_c, 7, 89, 0
9, 108952, Note_on_c, 7, 86, 127
9, 109102, Note_on_c, 7, 86, 0
9, 109432, Note_on_c, 7, 89, 127
9, 109912, Note_on_c, 7, 87, 127
9, 109942, Note_on_c, 7, 89, 0
9, 110122, Note_on_c, 7, 87, 0
9, 110392, Note_on_c, 7, 84, 127
9, 110542, Note_on_c, 7, 84, 0
9, 110872, Note_on_c, 7, 81, 127
9, 111472, Note_on_c, 7, 81, 0
9, 113752, Control_c, 7, 11, 80
9, 114712, Note_on_c, 7, 78, 70
9, 115192, Note_on_c, 7, 75, 70
9, 115222, Note_on_c, 7, 78, 0
9, 115672, Note_on_c, 7, 72, 70
9, 115702, Note_on_c, 7, 75, 0
9, 116152, Note_on_c, 7, 69, 70
9, 116182, Note_on_c, 7, 72, 0
9, 116632, Note_on_c, 7, 66, 70
9, 116662, Note_on_c, 7, 69, 0
9, 117112, Note_on_c, 7, 65, 70
9, 117142, Note_on_c, 7, 66, 0
9, 117562, Note_on_c, 7, 65, 0
9, 120472, Note_on_c, 7, 80, 70
9, 120952, Note_on_c, 7, 77, 70
9, 120982, Note_on_c, 7, 80, 0
9, 121432, Note_on_c, 7, 74, 70
9, 121462, Note_on_c, 7, 77, 0
9, 121912, Note_on_c, 7, 71, 70
9, 121942, Note_on_c, 7, 74, 0
9, 122392, Note_on_c, 7, 68, 70
9, 122422, Note_on_c, 7, 71, 0
9, 122872, Note_on_c, 7, 67, 70
9, 122902, Note_on_c, 7, 68, 0
9, 123262, Note_on_c, 7, 67, 0
9, 123352, Note_on_c, 7, 73, 70
9, 123832, Note_on_c, 7, 70, 70
9, 123862, Note_on_c, 7, 73, 0
9, 124312, Note_on_c, 7, 67, 70
9, 124342, Note_on_c, 7, 70, 0
9, 124792, Note_on_c, 7, 64, 70
9, 124822, Note_on_c, 7, 67, 0
9, 125272, Note_on_c, 7, 61, 70
9, 125302, Note_on_c, 7, 64, 0
9, 125752, Note_on_c, 7, 60, 70
9, 125782, Note_on_c, 7, 61, 0
9, 126142, Note_on_c, 7, 60, 0
9, 126227, Control_c, 7, 11, 40
9, 126232, Note_on_c, 7, 64, 127
9, 126712, Note_on_c, 7, 65, 127
9, 126742, Note_on_c, 7, 64, 0
9, 128382, Control_c, 7, 11, 41
9, 128442, Control_c, 7, 11, 43
9, 128502, Control_c, 7, 11, 44
9, 128562, Control_c, 7, 11, 45
9, 128612, Control_c, 7, 11, 47
9, 128672, Control_c, 7, 11, 48
9, 128732, Control_c, 7, 11, 49
9, 128792, Control_c, 7, 11, 51
9, 128842, Control_c, 7, 11, 52
9, 128902, Control_c, 7, 11, 53
9, 128962, Control_c, 7, 11, 55
9, 129022, Control_c, 7, 11, 56
9, 129072, Control_c, 7, 11, 57
9, 129132, Control_c, 7, 11, 59
9, 129192, Control_c, 7, 11, 60
9, 129252, Control_c, 7, 11, 62
9, 129302, Control_c, 7, 11, 63
9, 129362, Control_c, 7, 11, 64
9, 129422, Control_c, 7, 11, 66
9, 129482, Control_c, 7, 11, 67
9, 129532, Control_c, 7, 11, 68
9, 129592, Control_c, 7, 11, 70
9, 129652, Control_c, 7, 11, 71
9, 129712, Control_c, 7, 11, 73
9, 129762, Control_c, 7, 11, 74
9, 129822, Control_c, 7, 11, 75
9, 129882, Control_c, 7, 11, 77
9, 129942, Control_c, 7, 11, 78
9, 129992, Control_c, 7, 11, 79
9, 130052, Control_c, 7, 11, 81
9, 130112, Control_c, 7, 11, 82
9, 130172, Control_c, 7, 11, 83
9, 130222, Control_c, 7, 11, 85
9, 130282, Control_c, 7, 11, 86
9, 130342, Control_c, 7, 11, 87
9, 130402, Control_c, 7, 11, 89
9, 130452, Control_c, 7, 11, 90
9, 130512, Control_c, 7, 11, 92
9, 130572, Control_c, 7, 11, 93
9, 130632, Control_c, 7, 11, 94
9, 130682, Control_c, 7, 11, 96
9, 130742, Control_c, 7, 11, 97
9, 130802, Control_c, 7, 11, 98
9, 130862, Control_c, 7, 11, 100
9, 130912, Control_c, 7, 11, 101
9, 130972, Control_c, 7, 11, 102
9, 131032, Control_c, 7, 11, 104
9, 131092, Control_c, 7, 11, 105
9, 131142, Control_c, 7, 11, 106
9, 131202, Control_c, 7, 11, 108
9, 131262, Control_c, 7, 11, 109
9, 131322, Control_c, 7, 11, 111
9, 131372, Control_c, 7, 11, 112
9, 131432, Control_c, 7, 11, 113
9, 131492, Control_c, 7, 11, 115
9, 131552, Control_c, 7, 11, 116
9, 131602, Control_c, 7, 11, 117
9, 131662, Control_c, 7, 11, 119
9, 131722, Control_c, 7, 11, 120
9, 131782, Control_c, 7, 11, 122
9, 131832, Control_c, 7, 11, 123
9, 131892, Control_c, 7, 11, 124
9, 131902, Note_on_c, 7, 65, 0
9, 131952, Control_c, 7, 11, 126
9, 131982, Control_c, 7, 11, 127
9, 131992, Note_on_c, 7, 66, 127
9, 132467, Control_c, 7, 11, 40
9, 132472, Note_on_c, 7, 65, 127
9, 132502, Note_on_c, 7, 66, 0
9, 132542, Control_c, 7, 11, 41
9, 132602, Control_c, 7, 11, 42
9, 132662, Control_c, 7, 11, 43
9, 132722, Control_c, 7, 11, 44
9, 132782, Control_c, 7, 11, 45
9, 132842, Control_c, 7, 11, 46
9, 132902, Control_c, 7, 11, 47
9, 132962, Control_c, 7, 11, 48
9, 133022, Control_c, 7, 11, 49
9, 133082, Control_c, 7, 11, 50
9, 133142, Control_c, 7, 11, 51
9, 133202, Control_c, 7, 11, 52
9, 133262, Control_c, 7, 11, 53
9, 133322, Control_c, 7, 11, 54
9, 133392, Control_c, 7, 11, 55
9, 133452, Control_c, 7, 11, 56
9, 133512, Control_c, 7, 11, 57
9, 133572, Control_c, 7, 11, 58
9, 133632, Control_c, 7, 11, 59
9, 133692, Control_c, 7, 11, 60
9, 133752, Control_c, 7, 11, 61
9, 133812, Control_c, 7, 11, 62
9, 133872, Control_c, 7, 11, 63
9, 133932, Control_c, 7, 11, 64
9, 133992, Control_c, 7, 11, 65
9, 134052, Control_c, 7, 11, 66
9, 134112, Control_c, 7, 11, 67
9, 134172, Control_c, 7, 11, 68
9, 134232, Control_c, 7, 11, 69
9, 134302, Control_c, 7, 11, 70
9, 134362, Control_c, 7, 11, 71
9, 134422, Control_c, 7, 11, 72
9, 134482, Control_c, 7, 11, 73
9, 134542, Control_c, 7, 11, 74
9, 134602, Control_c, 7, 11, 75
9, 134662, Control_c, 7, 11, 76
9, 134722, Control_c, 7, 11, 77
9, 134782, Control_c, 7, 11, 78
9, 134842, Control_c, 7, 11, 79
9, 134902, Control_c, 7, 11, 80
9, 134962, Control_c, 7, 11, 81
9, 135022, Control_c, 7, 11, 82
9, 135082, Control_c, 7, 11, 83
9, 135152, Control_c, 7, 11, 84
9, 135212, Control_c, 7, 11, 85
9, 135272, Control_c, 7, 11, 86
9, 135332, Control_c, 7, 11, 87
9, 135392, Control_c, 7, 11, 88
9, 135452, Control_c, 7, 11, 89
9, 135512, Control_c, 7, 11, 90
9, 135572, Control_c, 7, 11, 91
9, 135632, Control_c, 7, 11, 92
9, 135692, Control_c, 7, 11, 93
9, 135752, Control_c, 7, 11, 94
9, 135812, Control_c, 7, 11, 95
9, 135872, Control_c, 7, 11, 96
9, 135932, Control_c, 7, 11, 97
9, 135992, Control_c, 7, 11, 98
9, 136062, Control_c, 7, 11, 99
9, 136122, Control_c, 7, 11, 100
9, 136182, Control_c, 7, 11, 101
9, 136242, Control_c, 7, 11, 102
9, 136302, Control_c, 7, 11, 103
9, 136362, Control_c, 7, 11, 104
9, 136422, Control_c, 7, 11, 105
9, 136482, Control_c, 7, 11, 106
9, 136542, Control_c, 7, 11, 107
9, 136602, Control_c, 7, 11, 108
9, 136662, Control_c, 7, 11, 109
9, 136722, Control_c, 7, 11, 110
9, 136782, Control_c, 7, 11, 111
9, 136842, Control_c, 7, 11, 112
9, 136912, Control_c, 7, 11, 113
9, 136972, Control_c, 7, 11, 114
9, 137032, Control_c, 7, 11, 115
9, 137092, Control_c, 7, 11, 116
9, 137152, Control_c, 7, 11, 117
9, 137212, Control_c, 7, 11, 118
9, 137272, Control_c, 7, 11, 119
9, 137332, Control_c, 7, 11, 120
9, 137392, Control_c, 7, 11, 121
9, 137452, Control_c, 7, 11, 122
9, 137512, Control_c, 7, 11, 123
9, 137572, Control_c, 7, 11, 124
9, 137632, Control_c, 7, 11, 125
9, 137662, Note_on_c, 7, 65, 0
9, 137692, Control_c, 7, 11, 126
9, 137722, Control_c, 7, 11, 127
9, 137752, Note_on_c, 7, 66, 127
9, 138232, Note_on_c, 7, 65, 110
9, 138262, Note_on_c, 7, 66, 0
9, 138442, Note_on_c, 7, 65, 0
9, 138712, Note_on_c, 7, 69, 112
9, 138712, Note_on_c, 7, 81, 112
9, 139582, Note_on_c, 7, 69, 0
9, 139582, Note_on_c, 7, 81, 0
9, 139672, Note_on_c, 7, 70, 118
9, 139672, Note_on_c, 7, 82, 118
9, 140542, Note_on_c, 7, 70, 0
9, 140542, Note_on_c, 7, 82, 0
9, 140632, Note_on_c, 7, 79, 124
9, 140842, Note_on_c, 7, 79, 0
9, 141112, Note_on_c, 7, 77, 127
9, 142222, Note_on_c, 7, 77, 0
9, 142552, Note_on_c, 7, 72, 127
9, 142552, Note_on_c, 7, 81, 127
9, 143662, Note_on_c, 7, 72, 0
9, 143662, Note_on_c, 7, 81, 0
9, 143992, Note_on_c, 7, 74, 127
9, 143992, Note_on_c, 7, 82, 127
9, 144467, Note_on_c, 7, 74, 0
9, 144467, Note_on_c, 7, 82, 0
9, 144472, Note_on_c, 7, 74, 127
9, 144472, Note_on_c, 7, 82, 127
9, 144947, Note_on_c, 7, 74, 0
9, 144947, Note_on_c, 7, 82, 0
9, 144952, Note_on_c, 7, 74, 127
9, 144952, Note_on_c, 7, 82, 127
9, 145427, Note_on_c, 7, 74, 0
9, 145427, Note_on_c, 7, 82, 0
9, 145432, Note_on_c, 7, 74, 127
9, 145432, Note_on_c, 7, 82, 127
9, 145907, Note_on_c, 7, 74, 0
9, 145907, Note_on_c, 7, 82, 0
9, 145912, Note_on_c, 7, 74, 127
9, 145912, Note_on_c, 7, 82, 127
9, 146387, Note_on_c, 7, 74, 0
9, 146387, Note_on_c, 7, 82, 0
9, 146392, Note_on_c, 7, 74, 127
9, 146392, Note_on_c, 7, 82, 127
9, 146867, Note_on_c, 7, 74, 0
9, 146867, Note_on_c, 7, 82, 0
9, 146872, Note_on_c, 7, 81, 127
9, 147352, Note_on_c, 7, 77, 127
9, 147382, Note_on_c, 7, 81, 0
9, 147562, Note_on_c, 7, 77, 0
9, 147832, Note_on_c, 7, 84, 127
9, 148312, Note_on_c, 7, 81, 127
9, 148342, Note_on_c, 7, 84, 0
9, 148522, Note_on_c, 7, 81, 0
9, 148792, Note_on_c, 7, 87, 127
9, 149272, Note_on_c, 7, 84, 127
9, 149302, Note_on_c, 7, 87, 0
9, 149482, Note_on_c, 7, 84, 0
9, 149752, Note_on_c, 7, 74, 127
9, 149752, Note_on_c, 7, 82, 127
9, 150227, Note_on_c, 7, 74, 0
9, 150227, Note_on_c, 7, 82, 0
9, 150232, Note_on_c, 7, 74, 127
9, 150232, Note_on_c, 7, 82, 127
9, 150707, Note_on_c, 7, 74, 0
9, 150707, Note_on_c, 7, 82, 0
9, 150712, Note_on_c, 7, 74, 127
9, 150712, Note_on_c, 7, 82, 127
9, 151187, Note_on_c, 7, 74, 0
9, 151187, Note_on_c, 7, 82, 0
9, 151192, Note_on_c, 7, 74, 127
9, 151192, Note_on_c, 7, 82, 127
9, 151667, Note_on_c, 7, 74, 0
9, 151667, Note_on_c, 7, 82, 0
9, 151672, Note_on_c, 7, 74, 127
9, 151672, Note_on_c, 7, 82, 127
9, 152147, Note_on_c, 7, 74, 0
9, 152147, Note_on_c, 7, 82, 0
9, 152152, Note_on_c, 7, 74, 127
9, 152152, Note_on_c, 7, 82, 127
9, 152627, Note_on_c, 7, 74, 0
9, 152627, Note_on_c, 7, 82, 0
9, 152632, Note_on_c, 7, 81, 127
9, 153112, Note_on_c, 7, 77, 127
9, 153142, Note_on_c, 7, 81, 0
9, 153322, Note_on_c, 7, 77, 0
9, 153592, Note_on_c, 7, 84, 127
9, 154072, Note_on_c, 7, 81, 127
9, 154102, Note_on_c, 7, 84, 0
9, 154282, Note_on_c, 7, 81, 0
9, 154552, Note_on_c, 7, 87, 127
9, 155032, Note_on_c, 7, 84, 127
9, 155062, Note_on_c, 7, 87, 0
9, 155242, Note_on_c, 7, 84, 0
9, 155512, Note_on_c, 7, 74, 127
9, 155512, Note_on_c, 7, 82, 127
9, 156562, Note_on_c, 7, 74, 0
9, 156562, Note_on_c, 7, 82, 0
9, 156952, Note_on_c, 7, 74, 127
9, 156952, Note_on_c, 7, 86, 127
9, 158002, Note_on_c, 7, 74, 0
9, 158002, Note_on_c, 7, 86, 0
9, 158392, Note_on_c, 7, 89, 127
9, 158602, Note_on_c, 7, 89, 0
9, 158872, Note_on_c, 7, 89, 127
9, 159082, Note_on_c, 7, 89, 0
9, 159352, Note_on_c, 7, 89, 127
9, 159532, Note_on_c, 7, 89, 0
9, 159832, Note_on_c, 7, 82, 127
9, 160312, Control_c, 7, 11, 80
9, 160432, Note_on_c, 7, 82, 0
9, 160792, Note_on_c, 7, 68, 80
9, 161272, Note_on_c, 7, 73, 80
9, 161302, Note_on_c, 7, 68, 0
9, 161512, Note_on_c, 7, 73, 0
9, 161752, Note_on_c, 7, 68, 80
9, 162232, Note_on_c, 7, 77, 80
9, 162262, Note_on_c, 7, 68, 0
9, 162472, Note_on_c, 7, 77, 0
9, 162712, Note_on_c, 7, 73, 80
9, 163192, Note_on_c, 7, 80, 80
9, 163222, Note_on_c, 7, 73, 0
9, 163432, Note_on_c, 7, 80, 0
9, 163672, Note_on_c, 7, 77, 80
9, 164152, Note_on_c, 7, 80, 80
9, 164182, Note_on_c, 7, 77, 0
9, 164632, Note_on_c, 7, 78, 80
9, 164662, Note_on_c, 7, 80, 0
9, 164902, Note_on_c, 7, 78, 0
9, 165112, Note_on_c, 7, 75, 80
9, 165592, Note_on_c, 7, 72, 80
9, 165622, Note_on_c, 7, 75, 0
9, 166072, Note_on_c, 7, 72, 0
9, 168952, Note_on_c, 7, 78, 80
9, 169432, Note_on_c, 7, 75, 80
9, 169462, Note_on_c, 7, 78, 0
9, 169912, Note_on_c, 7, 82, 80
9, 169942, Note_on_c, 7, 75, 0
9, 170392, Note_on_c, 7, 80, 80
9, 170422, Note_on_c, 7, 82, 0
9, 170602, Note_on_c, 7, 80, 0
9, 170872, Note_on_c, 7, 77, 80
9, 171352, Note_on_c, 7, 73, 80
9, 171382, Note_on_c, 7, 77, 0
9, 171832, Note_on_c, 7, 73, 0
9, 174712, Note_on_c, 7, 80, 80
9, 175192, Note_on_c, 7, 77, 80
9, 175222, Note_on_c, 7, 80, 0
9, 175672, Note_on_c, 7, 82, 80
9, 175702, Note_on_c, 7, 77, 0
9, 176152, Note_on_c, 7, 80, 80
9, 176182, Note_on_c, 7, 82, 0
9, 176362, Note_on_c, 7, 80, 0
9, 176632, Note_on_c, 7, 77, 80
9, 177112, Note_on_c, 7, 74, 80
9, 177142, Note_on_c, 7, 77, 0
9, 177592, Note_on_c, 7, 74, 0
9, 180472, Note_on_c, 7, 80, 80
9, 180952, Note_on_c, 7, 77, 80
9, 180982, Note_on_c, 7, 80, 0
9, 181432, Note_on_c, 7, 78, 80
9, 181462, Note_on_c, 7, 77, 0
9, 181642, Note_on_c, 7, 78, 0
9, 181912, Note_on_c, 7, 75, 80
9, 182392, Note_on_c, 7, 78, 80
9, 182422, Note_on_c, 7, 75, 0
9, 182602, Note_on_c, 7, 78, 0
9, 182872, Note_on_c, 7, 71, 80
9, 183352, Note_on_c, 7, 78, 80
9, 183382, Note_on_c, 7, 71, 0
9, 183562, Note_on_c, 7, 78, 0
9, 183832, Note_on_c, 7, 70, 80
9, 184312, Note_on_c, 7, 69, 80
9, 184342, Note_on_c, 7, 70, 0
9, 184762, Note_on_c, 7, 69, 0
9, 187672, Note_on_c, 7, 70, 80
9, 188152, Note_on_c, 7, 73, 80
9, 188182, Note_on_c, 7, 70, 0
9, 188362, Note_on_c, 7, 73, 0
9, 188632, Note_on_c, 7, 66, 80
9, 189112, Note_on_c, 7, 73, 80
9, 189142, Note_on_c, 7, 66, 0
9, 189322, Note_on_c, 7, 73, 0
9, 189592, Note_on_c, 7, 65, 80
9, 190072, Note_on_c, 7, 64, 80
9, 190102, Note_on_c, 7, 65, 0
9, 190522, Note_on_c, 7, 64, 0
9, 193432, Note_on_c, 7, 65, 80
9, 193912, Note_on_c, 7, 68, 80
9, 193942, Note_on_c, 7, 65, 0
9, 194122, Note_on_c, 7, 68, 0
9, 194392, Note_on_c, 7, 59, 80
9, 194842, Note_on_c, 7, 59, 0
9, 196312, Note_on_c, 7, 72, 80
9, 196792, Note_on_c, 7, 75, 80
9, 196822, Note_on_c, 7, 72, 0
9, 197002, Note_on_c, 7, 75, 0
9, 197272, Note_on_c, 7, 66, 80
9, 197722, Note_on_c, 7, 66, 0
9, 199192, Note_on_c, 7, 67, 80
9, 199672, Note_on_c, 7, 70, 80
9, 199702, Note_on_c, 7, 67, 0
9, 199882, Note_on_c, 7, 70, 0
9, 200152, Note_on_c, 7, 61, 80
9, 200662, Note_on_c, 7, 61, 0
9, 201592, Control_c, 7, 11, 80
9, 201722, Control_c, 7, 11, 81
9, 201842, Control_c, 7, 11, 82
9, 201962, Control_c, 7, 11, 83
9, 202072, Note_on_c, 7, 65, 84
9, 202092, Control_c, 7, 11, 84
9, 202212, Control_c, 7, 11, 85
9, 202332, Control_c, 7, 11, 86
9, 202452, Control_c, 7, 11, 87
9, 202552, Note_on_c, 7, 69, 89
9, 202582, Note_on_c, 7, 65, 0
9, 202582, Control_c, 7, 11, 88
9, 202702, Control_c, 7, 11, 89
9, 202762, Note_on_c, 7, 69, 0
9, 202822, Control_c, 7, 11, 90
9, 202942, Control_c, 7, 11, 91
9, 203032, Note_on_c, 7, 63, 94
9, 203072, Control_c, 7, 11, 92
9, 203192, Control_c, 7, 11, 93
9, 203312, Control_c, 7, 11, 94
9, 203432, Control_c, 7, 11, 95
9, 203512, Note_on_c, 7, 69, 99
9, 203542, Note_on_c, 7, 63, 0
9, 203562, Control_c, 7, 11, 96
9, 203682, Control_c, 7, 11, 97
9, 203722, Note_on_c, 7, 69, 0
9, 203802, Control_c, 7, 11, 98
9, 203922, Control_c, 7, 11, 99
9, 203992, Note_on_c, 7, 69, 103
9, 204052, Control_c, 7, 11, 100
9, 204172, Control_c, 7, 11, 101
9, 204292, Control_c, 7, 11, 102
9, 204412, Control_c, 7, 11, 103
9, 204472, Note_on_c, 7, 72, 108
9, 204502, Note_on_c, 7, 69, 0
9, 204542, Control_c, 7, 11, 104
9, 204662, Control_c, 7, 11, 105
9, 204682, Note_on_c, 7, 72, 0
9, 204782, Control_c, 7, 11, 106
9, 204902, Control_c, 7, 11, 107
9, 204952, Note_on_c, 7, 72, 113
9, 205032, Control_c, 7, 11, 108
9, 205152, Control_c, 7, 11, 109
9, 205272, Control_c, 7, 11, 110
9, 205392, Control_c, 7, 11, 111
9, 205432, Note_on_c, 7, 75, 118
9, 205462, Note_on_c, 7, 72, 0
9, 205522, Control_c, 7, 11, 112
9, 205642, Note_on_c, 7, 75, 0
9, 205642, Control_c, 7, 11, 113
9, 205762, Control_c, 7, 11, 114
9, 205882, Control_c, 7, 11, 115
9, 205912, Note_on_c, 7, 75, 122
9, 206012, Control_c, 7, 11, 116
9, 206132, Control_c, 7, 11, 117
9, 206252, Control_c, 7, 11, 118
9, 206372, Control_c, 7, 11, 119
9, 206392, Note_on_c, 7, 81, 127
9, 206422, Note_on_c, 7, 75, 0
9, 206502, Control_c, 7, 11, 120
9, 206602, Note_on_c, 7, 81, 0
9, 206622, Control_c, 7, 11, 121
9, 206742, Control_c, 7, 11, 122
9, 206862, Control_c, 7, 11, 123
9, 206872, Note_on_c, 7, 81, 127
9, 206992, Control_c, 7, 11, 124
9, 207112, Control_c, 7, 11, 125
9, 207232, Control_c, 7, 11, 126
9, 207292, Control_c, 7, 11, 127
9, 207352, Note_on_c, 7, 82, 127
9, 207382, Note_on_c, 7, 81, 0
9, 207562, Note_on_c, 7, 82, 0
9, 207832, Note_on_c, 7, 77, 127
9, 208312, Note_on_c, 7, 86, 127
9, 208342, Note_on_c, 7, 77, 0
9, 208522, Note_on_c, 7, 86, 0
9, 208792, Note_on_c, 7, 82, 127
9, 209272, Note_on_c, 7, 89, 127
9, 209302, Note_on_c, 7, 82, 0
9, 209482, Note_on_c, 7, 89, 0
9, 209752, Note_on_c, 7, 86, 127
9, 209902, Note_on_c, 7, 86, 0
9, 210232, Note_on_c, 7, 89, 127
9, 210712, Note_on_c, 7, 87, 127
9, 210742, Note_on_c, 7, 89, 0
9, 210922, Note_on_c, 7, 87, 0
9, 211192, Note_on_c, 7, 84, 127
9, 211342, Note_on_c, 7, 84, 0
9, 211672, Note_on_c, 7, 81, 127
9, 212272, Note_on_c, 7, 81, 0
9, 214552, Control_c, 7, 11, 80
9, 215512, Note_on_c, 7, 78, 70
9, 215992, Note_on_c, 7, 75, 70
9, 216022, Note_on_c, 7, 78, 0
9, 216472, Note_on_c, 7, 72, 70
9, 216502, Note_on_c, 7, 75, 0
9, 216952, Note_on_c, 7, 69, 70
9, 216982, Note_on_c, 7, 72, 0
9, 217432, Note_on_c, 7, 66, 70
9, 217462, Note_on_c, 7, 69, 0
9, 217912, Note_on_c, 7, 65, 70
9, 217942, Note_on_c, 7, 66, 0
9, 218362, Note_on_c, 7, 65, 0
9, 221272, Note_on_c, 7, 80, 70
9, 221752, Note_on_c, 7, 77, 70
9, 221782, Note_on_c, 7, 80, 0
9, 222232, Note_on_c, 7, 74, 70
9, 222262, Note_on_c, 7, 77, 0
9, 222712, Note_on_c, 7, 71, 70
9, 222742, Note_on_c, 7, 74, 0
9, 223192, Note_on_c, 7, 68, 70
9, 223222, Note_on_c, 7, 71, 0
9, 223672, Note_on_c, 7, 67, 70
9, 223702, Note_on_c, 7, 68, 0
9, 224062, Note_on_c, 7, 67, 0
9, 224152, Note_on_c, 7, 73, 70
9, 224632, Note_on_c, 7, 70, 70
9, 224662, Note_on_c, 7, 73, 0
9, 225112, Note_on_c, 7, 67, 70
9, 225142, Note_on_c, 7, 70, 0
9, 225592, Note_on_c, 7, 64, 70
9, 225622, Note_on_c, 7, 67, 0
9, 226072, Note_on_c, 7, 61, 70
9, 226102, Note_on_c, 7, 64, 0
9, 226552, Note_on_c, 7, 60, 70
9, 226582, Note_on_c, 7, 61, 0
9, 226942, Note_on_c, 7, 60, 0
9, 227027, Control_c, 7, 11, 40
9, 227032, Note_on_c, 7, 64, 127
9, 227512, Note_on_c, 7, 65, 127
9, 227542, Note_on_c, 7, 64, 0
9, 229182, Control_c, 7, 11, 41
9, 229242, Control_c, 7, 11, 43
9, 229302, Control_c, 7, 11, 44
9, 229362, Control_c, 7, 11, 45
9, 229412, Control_c, 7, 11, 47
9, 229472, Control_c, 7, 11, 48
9, 229532, Control_c, 7, 11, 49
9, 229592, Control_c, 7, 11, 51
9, 229642, Control_c, 7, 11, 52
9, 229702, Control_c, 7, 11, 53
9, 229762, Control_c, 7, 11, 55
9, 229822, Control_c, 7, 11, 56
9, 229872, Control_c, 7, 11, 57
9, 229932, Control_c, 7, 11, 59
9, 229992, Control_c, 7, 11, 60
9, 230052, Control_c, 7, 11, 62
9, 230102, Control_c, 7, 11, 63
9, 230162, Control_c, 7, 11, 64
9, 230222, Control_c, 7, 11, 66
9, 230282, Control_c, 7, 11, 67
9, 230332, Control_c, 7, 11, 68
9, 230392, Control_c, 7, 11, 70
9, 230452, Control_c, 7, 11, 71
9, 230512, Control_c, 7, 11, 73
9, 230562, Control_c, 7, 11, 74
9, 230622, Control_c, 7, 11, 75
9, 230682, Control_c, 7, 11, 77
9, 230742, Control_c, 7, 11, 78
9, 230792, Control_c, 7, 11, 79
9, 230852, Control_c, 7, 11, 81
9, 230912, Control_c, 7, 11, 82
9, 230972, Control_c, 7, 11, 83
9, 231022, Control_c, 7, 11, 85
9, 231082, Control_c, 7, 11, 86
9, 231142, Control_c, 7, 11, 87
9, 231202, Control_c, 7, 11, 89
9, 231252, Control_c, 7, 11, 90
9, 231312, Control_c, 7, 11, 92
9, 231372, Control_c, 7, 11, 93
9, 231432, Control_c, 7, 11, 94
9, 231482, Control_c, 7, 11, 96
9, 231542, Control_c, 7, 11, 97
9, 231602, Control_c, 7, 11, 98
9, 231662, Control_c, 7, 11, 100
9, 231712, Control_c, 7, 11, 101
9, 231772, Control_c, 7, 11, 102
9, 231832, Control_c, 7, 11, 104
9, 231892, Control_c, 7, 11, 105
9, 231942, Control_c, 7, 11, 106
9, 232002, Control_c, 7, 11, 108
9, 232062, Control_c, 7, 11, 109
9, 232122, Control_c, 7, 11, 111
9, 232172, Control_c, 7, 11, 112
9, 232232, Control_c, 7, 11, 113
9, 232292, Control_c, 7, 11, 115
9, 232352, Control_c, 7, 11, 116
9, 232402, Control_c, 7, 11, 117
9, 232462, Control_c, 7, 11, 119
9, 232522, Control_c, 7, 11, 120
9, 232582, Control_c, 7, 11, 122
9, 232632, Control_c, 7, 11, 123
9, 232692, Control_c, 7, 11, 124
9, 232702, Note_on_c, 7, 65, 0
9, 232752, Control_c, 7, 11, 126
9, 232782, Control_c, 7, 11, 127
9, 232792, Note_on_c, 7, 66, 127
9, 233267, Control_c, 7, 11, 40
9, 233272, Note_on_c, 7, 65, 127
9, 233302, Note_on_c, 7, 66, 0
9, 233342, Control_c, 7, 11, 41
9, 233402, Control_c, 7, 11, 42
9, 233462, Control_c, 7, 11, 43
9, 233522, Control_c, 7, 11, 44
9, 233582, Control_c, 7, 11, 45
9, 233642, Control_c, 7, 11, 46
9, 233702, Control_c, 7, 11, 47
9, 233762, Control_c, 7, 11, 48
9, 233822, Control_c, 7, 11, 49
9, 233882, Control_c, 7, 11, 50
9, 233942, Control_c, 7, 11, 51
9, 234002, Control_c, 7, 11, 52
9, 234062, Control_c, 7, 11, 53
9, 234122, Control_c, 7, 11, 54
9, 234192, Control_c, 7, 11, 55
9, 234252, Control_c, 7, 11, 56
9, 234312, Control_c, 7, 11, 57
9, 234372, Control_c, 7, 11, 58
9, 234432, Control_c, 7, 11, 59
9, 234492, Control_c, 7, 11, 60
9, 234552, Control_c, 7, 11, 61
9, 234612, Control_c, 7, 11, 62
9, 234672, Control_c, 7, 11, 63
9, 234732, Control_c, 7, 11, 64
9, 234792, Control_c, 7, 11, 65
9, 234852, Control_c, 7, 11, 66
9, 234912, Control_c, 7, 11, 67
9, 234972, Control_c, 7, 11, 68
9, 235032, Control_c, 7, 11, 69
9, 235102, Control_c, 7, 11, 70
9, 235162, Control_c, 7, 11, 71
9, 235222, Control_c, 7, 11, 72
9, 235282, Control_c, 7, 11, 73
9, 235342, Control_c, 7, 11, 74
9, 235402, Control_c, 7, 11, 75
9, 235462, Control_c, 7, 11, 76
9, 235522, Control_c, 7, 11, 77
9, 235582, Control_c, 7, 11, 78
9, 235642, Control_c, 7, 11, 79
9, 235702, Control_c, 7, 11, 80
9, 235762, Control_c, 7, 11, 81
9, 235822, Control_c, 7, 11, 82
9, 235882, Control_c, 7, 11, 83
9, 235952, Control_c, 7, 11, 84
9, 236012, Control_c, 7, 11, 85
9, 236072, Control_c, 7, 11, 86
9, 236132, Control_c, 7, 11, 87
9, 236192, Control_c, 7, 11, 88
9, 236252, Control_c, 7, 11, 89
9, 236312, Control_c, 7, 11, 90
9, 236372, Control_c, 7, 11, 91
9, 236432, Control_c, 7, 11, 92
9, 236492, Control_c, 7, 11, 93
9, 236552, Control_c, 7, 11, 94
9, 236612, Control_c, 7, 11, 95
9, 236672, Control_c, 7, 11, 96
9, 236732, Control_c, 7, 11, 97
9, 236792, Control_c, 7, 11, 98
9, 236862, Control_c, 7, 11, 99
9, 236922, Control_c, 7, 11, 100
9, 236982, Control_c, 7, 11, 101
9, 237042, Control_c, 7, 11, 102
9, 237102, Control_c, 7, 11, 103
9, 237162, Control_c, 7, 11, 104
9, 237222, Control_c, 7, 11, 105
9, 237282, Control_c, 7, 11, 106
9, 237342, Control_c, 7, 11, 107
9, 237402, Control_c, 7, 11, 108
9, 237462, Control_c, 7, 11, 109
9, 237522, Control_c, 7, 11, 110
9, 237582, Control_c, 7, 11, 111
9, 237642, Control_c, 7, 11, 112
9, 237712, Control_c, 7, 11, 113
9, 237772, Control_c, 7, 11, 114
9, 237832, Control_c, 7, 11, 115
9, 237892, Control_c, 7, 11, 116
9, 237952, Control_c, 7, 11, 117
9, 238012, Control_c, 7, 11, 118
9, 238072, Control_c, 7, 11, 119
9, 238132, Control_c, 7, 11, 120
9, 238192, Control_c, 7, 11, 121
9, 238252, Control_c, 7, 11, 122
9, 238312, Control_c, 7, 11, 123
9, 238372, Control_c, 7, 11, 124
9, 238432, Control_c, 7, 11, 125
9, 238462, Note_on_c, 7, 65, 0
9, 238492, Control_c, 7, 11, 126
9, 238522, Control_c, 7, 11, 127
9, 238552, Note_on_c, 7, 66, 127
9, 239032, Note_on_c, 7, 65, 110
9, 239062, Note_on_c, 7, 66, 0
9, 239242, Note_on_c, 7, 65, 0
9, 239512, Note_on_c, 7, 69, 112
9, 239512, Note_on_c, 7, 81, 112
9, 240382, Note_on_c, 7, 69, 0
9, 240382, Note_on_c, 7, 81, 0
9, 240472, Note_on_c, 7, 70, 118
9, 240472, Note_on_c, 7, 82, 118
9, 241342, Note_on_c, 7, 70, 0
9, 241342, Note_on_c, 7, 82, 0
9, 241432, Note_on_c, 7, 79, 124
9, 241642, Note_on_c, 7, 79, 0
9, 241912, Note_on_c, 7, 77, 127
9, 243022, Note_on_c, 7, 77, 0
9, 243352, Note_on_c, 7, 72, 127
9, 243352, Note_on_c, 7, 81, 127
9, 244462, Note_on_c, 7, 72, 0
9, 244462, Note_on_c, 7, 81, 0
9, 244792, Note_on_c, 7, 74, 127
9, 244792, Note_on_c, 7, 82, 127
9, 245267, Note_on_c, 7, 74, 0
9, 245267, Note_on_c, 7, 82, 0
9, 245272, Note_on_c, 7, 74, 127
9, 245272, Note_on_c, 7, 82, 127
9, 245747, Note_on_c, 7, 74, 0
9, 245747, Note_on_c, 7, 82, 0
9, 245752, Note_on_c, 7, 74, 127
9, 245752, Note_on_c, 7, 82, 127
9, 246227, Note_on_c, 7, 74, 0
9, 246227, Note_on_c, 7, 82, 0
9, 246232, Note_on_c, 7, 74, 127
9, 246232, Note_on_c, 7, 82, 127
9, 246707, Note_on_c, 7, 74, 0
9, 246707, Note_on_c, 7, 82, 0
9, 246712, Note_on_c, 7, 74, 127
9, 246712, Note_on_c, 7, 82, 127
9, 247187, Note_on_c, 7, 74, 0
9, 247187, Note_on_c, 7, 82, 0
9, 247192, Note_on_c, 7, 74, 127
9, 247192, Note_on_c, 7, 82, 127
9, 247667, Note_on_c, 7, 74, 0
9, 247667, Note_on_c, 7, 82, 0
9, 247672, Note_on_c, 7, 81, 127
9, 248152, Note_on_c, 7, 77, 127
9, 248182, Note_on_c, 7, 81, 0
9, 248362, Note_on_c, 7, 77, 0
9, 248632, Note_on_c, 7, 84, 127
9, 249112, Note_on_c, 7, 81, 127
9, 249142, Note_on_c, 7, 84, 0
9, 249322, Note_on_c, 7, 81, 0
9, 249592, Note_on_c, 7, 87, 127
9, 250072, Note_on_c, 7, 84, 127
9, 250102, Note_on_c, 7, 87, 0
9, 250282, Note_on_c, 7, 84, 0
9, 250552, Note_on_c, 7, 74, 127
9, 250552, Note_on_c, 7, 82, 127
9, 251027, Note_on_c, 7, 74, 0
9, 251027, Note_on_c, 7, 82, 0
9, 251032, Note_on_c, 7, 74, 127
9, 251032, Note_on_c, 7, 82, 127
9, 251507, Note_on_c, 7, 74, 0
9, 251507, Note_on_c, 7, 82, 0
9, 251512, Note_on_c, 7, 74, 127
9, 251512, Note_on_c, 7, 82, 127
9, 251987, Note_on_c, 7, 74, 0
9, 251987, Note_on_c, 7, 82, 0
9, 251992, Note_on_c, 7, 74, 127
9, 251992, Note_on_c, 7, 82, 127
9, 252467, Note_on_c, 7, 74, 0
9, 252467, Note_on_c, 7, 82, 0
9, 252472, Note_on_c, 7, 74, 127
9, 252472, Note_on_c, 7, 82, 127
9, 252947, Note_on_c, 7, 74, 0
9, 252947, Note_on_c, 7, 82, 0
9, 252952, Note_on_c, 7, 74, 127
9, 252952, Note_on_c, 7, 82, 127
9, 253427, Note_on_c, 7, 74, 0
9, 253427, Note_on_c, 7, 82, 0
9, 253432, Note_on_c, 7, 81, 127
9, 253912, Note_on_c, 7, 77, 127
9, 253942, Note_on_c, 7, 81, 0
9, 254122, Note_on_c, 7, 77, 0
9, 254392, Note_on_c, 7, 84, 127
9, 254872, Note_on_c, 7, 81, 127
9, 254902, Note_on_c, 7, 84, 0
9, 255082, Note_on_c, 7, 81, 0
9, 255352, Note_on_c, 7, 87, 127
9, 255832, Note_on_c, 7, 84, 127
9, 255862, Note_on_c, 7, 87, 0
9, 256042, Note_on_c, 7, 84, 0
9, 256312, Note_on_c, 7, 74, 127
9, 256312, Note_on_c, 7, 82, 127
9, 257362, Note_on_c, 7, 74, 0
9, 257362, Note_on_c, 7, 82, 0
9, 257752, Note_on_c, 7, 74, 127
9, 257752, Note_on_c, 7, 86, 127
9, 258802, Note_on_c, 7, 74, 0
9, 258802, Note_on_c, 7, 86, 0
9, 259192, Note_on_c, 7, 89, 127
9, 259402, Note_on_c, 7, 89, 0
9, 259672, Note_on_c, 7, 89, 127
9, 259882, Note_on_c, 7, 89, 0
9, 260152, Note_on_c, 7, 89, 127
9, 260332, Note_on_c, 7, 89, 0
9, 260632, Note_on_c, 7, 82, 127
9, 261232, Note_on_c, 7, 82, 0
9, 261592, Control_c, 7, 11, 80
9, 265342, Note_on_c, 7, 71, 80
9, 265432, Note_on_c, 7, 72, 80
9, 265462, Note_on_c, 7, 71, 0
9, 265642, Note_on_c, 7, 72, 0
9, 265822, Note_on_c, 7, 74, 80
9, 265912, Note_on_c, 7, 75, 80
9, 265942, Note_on_c, 7, 74, 0
9, 266122, Note_on_c, 7, 75, 0
9, 266392, Note_on_c, 7, 79, 100
9, 267352, Note_on_c, 7, 75, 84
9, 267382, Note_on_c, 7, 79, 0
9, 267592, Note_on_c, 7, 72, 80
9, 267622, Note_on_c, 7, 75, 0
9, 267982, Note_on_c, 7, 72, 0
9, 271102, Note_on_c, 7, 73, 80
9, 271192, Note_on_c, 7, 74, 80
9, 271222, Note_on_c, 7, 73, 0
9, 271402, Note_on_c, 7, 74, 0
9, 271582, Note_on_c, 7, 76, 80
9, 271672, Note_on_c, 7, 77, 80
9, 271702, Note_on_c, 7, 76, 0
9, 271882, Note_on_c, 7, 77, 0
9, 272152, Note_on_c, 7, 80, 110
9, 273112, Note_on_c, 7, 77, 86
9, 273142, Note_on_c, 7, 80, 0
9, 273352, Note_on_c, 7, 74, 80
9, 273382, Note_on_c, 7, 77, 0
9, 273742, Note_on_c, 7, 74, 0
9, 281752, Note_on_c, 7, 75, 80
9, 282232, Note_on_c, 7, 74, 80
9, 282232, Control_c, 7, 11, 80
9, 282262, Note_on_c, 7, 75, 0
9, 282272, Control_c, 7, 11, 81
9, 282302, Control_c, 7, 11, 82
9, 282332, Control_c, 7, 11, 83
9, 282362, Control_c, 7, 11, 84
9, 282392, Control_c, 7, 11, 85
9, 282422, Control_c, 7, 11, 86
9, 282452, Control_c, 7, 11, 87
9, 282482, Control_c, 7, 11, 88
9, 282512, Control_c, 7, 11, 89
9, 282542, Control_c, 7, 11, 90
9, 282572, Control_c, 7, 11, 91
9, 282602, Control_c, 7, 11, 92
9, 282632, Control_c, 7, 11, 93
9, 282662, Control_c, 7, 11, 94
9, 282692, Control_c, 7, 11, 95
9, 282732, Control_c, 7, 11, 96
9, 282762, Control_c, 7, 11, 97
9, 282792, Control_c, 7, 11, 98
9, 282822, Control_c, 7, 11, 99
9, 282852, Control_c, 7, 11, 100
9, 282882, Control_c, 7, 11, 101
9, 282912, Control_c, 7, 11, 102
9, 282942, Control_c, 7, 11, 103
9, 282972, Control_c, 7, 11, 104
9, 283002, Control_c, 7, 11, 105
9, 283032, Control_c, 7, 11, 106
9, 283062, Control_c, 7, 11, 107
9, 283092, Control_c, 7, 11, 108
9, 283122, Control_c, 7, 11, 109
9, 283152, Control_c, 7, 11, 110
9, 283182, Control_c, 7, 11, 111
9, 283192, Note_on_c, 7, 73, 80
9, 283222, Note_on_c, 7, 74, 0
9, 283222, Control_c, 7, 11, 112
9, 283252, Control_c, 7, 11, 113
9, 283282, Control_c, 7, 11, 114
9, 283312, Control_c, 7, 11, 115
9, 283342, Control_c, 7, 11, 116
9, 283372, Control_c, 7, 11, 117
9, 283402, Control_c, 7, 11, 118
9, 283432, Control_c, 7, 11, 119
9, 283462, Control_c, 7, 11, 120
9, 283492, Control_c, 7, 11, 121
9, 283522, Control_c, 7, 11, 122
9, 283552, Control_c, 7, 11, 123
9, 283582, Control_c, 7, 11, 124
9, 283612, Control_c, 7, 11, 125
9, 283642, Control_c, 7, 11, 126
9, 283672, Control_c, 7, 11, 127
9, 283702, Control_c, 7, 11, 126
9, 283732, Control_c, 7, 11, 125
9, 283762, Control_c, 7, 11, 124
9, 283792, Control_c, 7, 11, 123
9, 283822, Control_c, 7, 11, 122
9, 283852, Control_c, 7, 11, 121
9, 283882, Control_c, 7, 11, 120
9, 283912, Control_c, 7, 11, 119
9, 283942, Control_c, 7, 11, 118
9, 283972, Control_c, 7, 11, 117
9, 284002, Control_c, 7, 11, 116
9, 284032, Control_c, 7, 11, 115
9, 284062, Control_c, 7, 11, 114
9, 284092, Control_c, 7, 11, 113
9, 284122, Control_c, 7, 11, 112
9, 284152, Note_on_c, 7, 72, 80
9, 284152, Control_c, 7, 11, 111
9, 284182, Note_on_c, 7, 73, 0
9, 284182, Control_c, 7, 11, 110
9, 284212, Control_c, 7, 11, 109
9, 284242, Control_c, 7, 11, 108
9, 284272, Control_c, 7, 11, 107
9, 284302, Control_c, 7, 11, 106
9, 284332, Control_c, 7, 11, 105
9, 284362, Control_c, 7, 11, 104
9, 284392, Control_c, 7, 11, 103
9, 284422, Control_c, 7, 11, 102
9, 284452, Control_c, 7, 11, 101
9, 284482, Control_c, 7, 11, 100
9, 284512, Control_c, 7, 11, 99
9, 284542, Control_c, 7, 11, 98
9, 284572, Control_c, 7, 11, 97
9, 284602, Control_c, 7, 11, 96
9, 284632, Note_on_c, 7, 70, 80
9, 284632, Control_c, 7, 11, 95
9, 284662, Note_on_c, 7, 72, 0
9, 284662, Control_c, 7, 11, 94
9, 284692, Control_c, 7, 11, 93
9, 284722, Control_c, 7, 11, 92
9, 284752, Control_c, 7, 11, 91
9, 284782, Control_c, 7, 11, 90
9, 284812, Control_c, 7, 11, 89
9, 284842, Note_on_c, 7, 70, 0
9, 284842, Control_c, 7, 11, 88
9, 284872, Control_c, 7, 11, 87
9, 284902, Control_c, 7, 11, 86
9, 284932, Control_c, 7, 11, 85
9, 284962, Control_c, 7, 11, 84
9, 284992, Control_c, 7, 11, 83
9, 285022, Control_c, 7, 11, 82
9, 285052, Control_c, 7, 11, 81
9, 285082, Control_c, 7, 11, 80
9, 285112, Note_on_c, 7, 70, 80
9, 285592, Note_on_c, 7, 70, 0
9, 287512, Note_on_c, 7, 72, 80
9, 287752, Note_on_c, 7, 74, 80
9, 287782, Note_on_c, 7, 72, 0
9, 287992, Note_on_c, 7, 75, 80
9, 288022, Note_on_c, 7, 74, 0
9, 288202, Note_on_c, 7, 75, 0
9, 288472, Note_on_c, 7, 75, 80
9, 288712, Note_on_c, 7, 77, 80
9, 288742, Note_on_c, 7, 75, 0
9, 288952, Note_on_c, 7, 79, 117
9, 288982, Note_on_c, 7, 77, 0
9, 289432, Note_on_c, 7, 72, 80
9, 289462, Note_on_c, 7, 79, 0
9, 290122, Note_on_c, 7, 72, 0
9, 293272, Note_on_c, 7, 74, 80
9, 293512, Note_on_c, 7, 75, 80
9, 293542, Note_on_c, 7, 74, 0
9, 293752, Note_on_c, 7, 77, 80
9, 293782, Note_on_c, 7, 75, 0
9, 293962, Note_on_c, 7, 77, 0
9, 294232, Note_on_c, 7, 77, 80
9, 294472, Note_on_c, 7, 79, 80
9, 294502, Note_on_c, 7, 77, 0
9, 294712, Note_on_c, 7, 80, 117
9, 294742, Note_on_c, 7, 79, 0
9, 295192, Note_on_c, 7, 74, 80
9, 295222, Note_on_c, 7, 80, 0
9, 295882, Note_on_c, 7, 74, 0
9, 310552, Program_c, 7, 45
9, 311032, Note_on_c, 7, 63, 80
9, 311482, Note_on_c, 7, 63, 0
9, 316792, Note_on_c, 7, 63, 80
9, 317242, Note_on_c, 7, 63, 0
9, 323992, Program_c, 7, 48
9, 324712, Note_on_c, 7, 65, 60
9, 324952, Note_on_c, 7, 66, 60
9, 324982, Note_on_c, 7, 65, 0
9, 325192, Note_on_c, 7, 65, 60
9, 325222, Note_on_c, 7, 66, 0
9, 325432, Note_on_c, 7, 66, 60
9, 325462, Note_on_c, 7, 65, 0
9, 325642, Note_on_c, 7, 66, 0
9, 326152, Note_on_c, 7, 65, 60
9, 326392, Note_on_c, 7, 66, 60
9, 326422, Note_on_c, 7, 65, 0
9, 326632, Note_on_c, 7, 65, 60
9, 326662, Note_on_c, 7, 66, 0
9, 326872, Note_on_c, 7, 66, 60
9, 326902, Note_on_c, 7, 65, 0
9, 327082, Note_on_c, 7, 66, 0
9, 327592, Note_on_c, 7, 65, 60
9, 327832, Note_on_c, 7, 66, 60
9, 327862, Note_on_c, 7, 65, 0
9, 328072, Note_on_c, 7, 65, 60
9, 328102, Note_on_c, 7, 66, 0
9, 328312, Note_on_c, 7, 66, 60
9, 328342, Note_on_c, 7, 65, 0
9, 328552, Note_on_c, 7, 64, 60
9, 328582, Note_on_c, 7, 66, 0
9, 328792, Note_on_c, 7, 65, 60
9, 328822, Note_on_c, 7, 64, 0
9, 329032, Note_on_c, 7, 64, 60
9, 329062, Note_on_c, 7, 65, 0
9, 329272, Note_on_c, 7, 65, 60
9, 329302, Note_on_c, 7, 64, 0
9, 329512, Note_on_c, 7, 64, 60
9, 329542, Note_on_c, 7, 65, 0
9, 329752, Note_on_c, 7, 65, 60
9, 329782, Note_on_c, 7, 64, 0
9, 329992, Note_on_c, 7, 57, 60
9, 330022, Note_on_c, 7, 65, 0
9, 330232, Note_on_c, 7, 58, 60
9, 330262, Note_on_c, 7, 57, 0
9, 330472, Note_on_c, 7, 57, 60
9, 330502, Note_on_c, 7, 58, 0
9, 330712, Note_on_c, 7, 58, 60
9, 330742, Note_on_c, 7, 57, 0
9, 330952, Note_on_c, 7, 57, 60
9, 330982, Note_on_c, 7, 58, 0
9, 331192, Note_on_c, 7, 58, 60
9, 331222, Note_on_c, 7, 57, 0
9, 331432, Note_on_c, 7, 57, 60
9, 331462, Note_on_c, 7, 58, 0
9, 331672, Note_on_c, 7, 58, 60
9, 331702, Note_on_c, 7, 57, 0
9, 331912, Note_on_c, 7, 57, 60
9, 331942, Note_on_c, 7, 58, 0
9, 332152, Note_on_c, 7, 58, 60
9, 332182, Note_on_c, 7, 57, 0
9, 332392, Note_on_c, 7, 57, 60
9, 332422, Note_on_c, 7, 58, 0
9, 332632, Note_on_c, 7, 58, 60
9, 332662, Note_on_c, 7, 57, 0
9, 332872, Note_on_c, 7, 57, 60
9, 332902, Note_on_c, 7, 58, 0
9, 333112, Note_on_c, 7, 58, 60
9, 333142, Note_on_c, 7, 57, 0
9, 333352, Note_on_c, 7, 57, 60
9, 333382, Note_on_c, 7, 58, 0
9, 333592, Note_on_c, 7, 58, 60
9, 333622, Note_on_c, 7, 57, 0
9, 333832, Note_on_c, 7, 57, 60
9, 333862, Note_on_c, 7, 58, 0
9, 333982, Note_on_c, 7, 57, 0
9, 334072, Note_on_c, 7, 58, 60
9, 334312, Note_on_c, 7, 57, 60
9, 334342, Note_on_c, 7, 58, 0
9, 334552, Note_on_c, 7, 58, 61
9, 334582, Note_on_c, 7, 57, 0
9, 334792, Note_on_c, 7, 57, 62
9, 334822, Note_on_c, 7, 58, 0
9, 335032, Note_on_c, 7, 58, 63
9, 335062, Note_on_c, 7, 57, 0
9, 335272, Note_on_c, 7, 57, 63
9, 335302, Note_on_c, 7, 58, 0
9, 335512, Note_on_c, 7, 58, 64
9, 335542, Note_on_c, 7, 57, 0
9, 335752, Note_on_c, 7, 57, 65
9, 335782, Note_on_c, 7, 58, 0
9, 335992, Note_on_c, 7, 58, 66
9, 336022, Note_on_c, 7, 57, 0
9, 336232, Note_on_c, 7, 57, 66
9, 336262, Note_on_c, 7, 58, 0
9, 336472, Note_on_c, 7, 58, 67
9, 336502, Note_on_c, 7, 57, 0
9, 336712, Note_on_c, 7, 57, 68
9, 336742, Note_on_c, 7, 58, 0
9, 336952, Note_on_c, 7, 58, 69
9, 336982, Note_on_c, 7, 57, 0
9, 337222, Note_on_c, 7, 58, 0
9, 337342, Note_on_c, 7, 71, 70
9, 337432, Note_on_c, 7, 72, 70
9, 337462, Note_on_c, 7, 71, 0
9, 337642, Note_on_c, 7, 72, 0
9, 337822, Note_on_c, 7, 74, 71
9, 337912, Note_on_c, 7, 75, 72
9, 337942, Note_on_c, 7, 74, 0
9, 338122, Note_on_c, 7, 75, 0
9, 338392, Note_on_c, 7, 79, 100
9, 339352, Note_on_c, 7, 75, 82
9, 339382, Note_on_c, 7, 79, 0
9, 339592, Note_on_c, 7, 72, 77
9, 339622, Note_on_c, 7, 75, 0
9, 339982, Note_on_c, 7, 72, 0
9, 343102, Note_on_c, 7, 73, 88
9, 343192, Note_on_c, 7, 74, 89
9, 343222, Note_on_c, 7, 73, 0
9, 343402, Note_on_c, 7, 74, 0
9, 343582, Note_on_c, 7, 76, 90
9, 343672, Note_on_c, 7, 77, 90
9, 343702, Note_on_c, 7, 76, 0
9, 343882, Note_on_c, 7, 77, 0
9, 344152, Note_on_c, 7, 80, 127
9, 345112, Note_on_c, 7, 77, 102
9, 345142, Note_on_c, 7, 80, 0
9, 345352, Note_on_c, 7, 74, 95
9, 345382, Note_on_c, 7, 77, 0
9, 345742, Note_on_c, 7, 74, 0
9, 355672, Control_c, 7, 11, 110
9, 356632, Note_on_c, 7, 74, 127
9, 356872, Note_on_c, 7, 75, 127
9, 356902, Note_on_c, 7, 74, 0
9, 357112, Note_on_c, 7, 77, 127
9, 357142, Note_on_c, 7, 75, 0
9, 358072, Note_on_c, 7, 74, 127
9, 358102, Note_on_c, 7, 77, 0
9, 358552, Note_on_c, 7, 75, 127
9, 358582, Note_on_c, 7, 74, 0
9, 359512, Note_on_c, 7, 77, 127
9, 359542, Note_on_c, 7, 75, 0
9, 359902, Note_on_c, 7, 77, 0
9, 359992, Note_on_c, 7, 79, 127
9, 359992, Control_c, 7, 11, 110
9, 360052, Control_c, 7, 11, 114
9, 360112, Control_c, 7, 11, 118
9, 360172, Control_c, 7, 11, 122
9, 360232, Control_c, 7, 11, 127
9, 360292, Control_c, 7, 11, 127
9, 360412, Control_c, 7, 11, 126
9, 360472, Control_c, 7, 11, 125
9, 360532, Control_c, 7, 11, 124
9, 360592, Control_c, 7, 11, 123
9, 360652, Control_c, 7, 11, 122
9, 360712, Control_c, 7, 11, 121
9, 360772, Control_c, 7, 11, 120
9, 360832, Control_c, 7, 11, 119
9, 360892, Control_c, 7, 11, 118
9, 360952, Control_c, 7, 11, 117
9, 361012, Control_c, 7, 11, 116
9, 361072, Control_c, 7, 11, 115
9, 361132, Control_c, 7, 11, 114
9, 361192, Control_c, 7, 11, 113
9, 361252, Control_c, 7, 11, 112
9, 361312, Control_c, 7, 11, 111
9, 361372, Control_c, 7, 11, 110
9, 362302, Note_on_c, 7, 79, 0
9, 362392, Note_on_c, 7, 77, 127
9, 362872, Note_on_c, 7, 75, 127
9, 362902, Note_on_c, 7, 77, 0
9, 363322, Note_on_c, 7, 75, 0
9, 363832, Note_on_c, 7, 75, 127
9, 364282, Note_on_c, 7, 75, 0
9, 364312, Note_on_c, 7, 75, 127
9, 364402, Note_on_c, 7, 77, 127
9, 364407, Note_on_c, 7, 75, 0
9, 364492, Note_on_c, 7, 75, 127
9, 364497, Note_on_c, 7, 77, 0
9, 364582, Note_on_c, 7, 77, 127
9, 364587, Note_on_c, 7, 75, 0
9, 364672, Note_on_c, 7, 75, 127
9, 364677, Note_on_c, 7, 77, 0
9, 364762, Note_on_c, 7, 77, 127
9, 364767, Note_on_c, 7, 75, 0
9, 364857, Note_on_c, 7, 77, 0
9, 365032, Note_on_c, 7, 74, 127
9, 365242, Note_on_c, 7, 74, 0
9, 365272, Note_on_c, 7, 75, 127
9, 365722, Note_on_c, 7, 75, 0
9, 365752, Note_on_c, 7, 74, 127
9, 366352, Note_on_c, 7, 74, 0
9, 366712, Note_on_c, 7, 77, 127
9, 367192, Note_on_c, 7, 74, 127
9, 367222, Note_on_c, 7, 77, 0
9, 367642, Note_on_c, 7, 74, 0
9, 369592, Note_on_c, 7, 77, 127
9, 370072, Note_on_c, 7, 75, 127
9, 370102, Note_on_c, 7, 77, 0
9, 370522, Note_on_c, 7, 75, 0
9, 372472, Note_on_c, 7, 77, 127
9, 372472, Control_c, 7, 11, 110
9, 372632, Control_c, 7, 11, 109
9, 372782, Control_c, 7, 11, 108
9, 372942, Control_c, 7, 11, 107
9, 372952, Note_on_c, 7, 74, 123
9, 372982, Note_on_c, 7, 77, 0
9, 373092, Control_c, 7, 11, 106
9, 373252, Control_c, 7, 11, 105
9, 373402, Note_on_c, 7, 74, 0
9, 373402, Control_c, 7, 11, 104
9, 373562, Control_c, 7, 11, 103
9, 373712, Control_c, 7, 11, 102
9, 373872, Control_c, 7, 11, 101
9, 374022, Control_c, 7, 11, 100
9, 374182, Control_c, 7, 11, 99
9, 374332, Control_c, 7, 11, 98
9, 374492, Control_c, 7, 11, 97
9, 374642, Control_c, 7, 11, 96
9, 374802, Control_c, 7, 11, 95
9, 374952, Control_c, 7, 11, 94
9, 375112, Control_c, 7, 11, 93
9, 375262, Control_c, 7, 11, 92
9, 375352, Note_on_c, 7, 77, 101
9, 375422, Control_c, 7, 11, 91
9, 375572, Control_c, 7, 11, 90
9, 375732, Control_c, 7, 11, 89
9, 375832, Note_on_c, 7, 75, 96
9, 375862, Note_on_c, 7, 77, 0
9, 375882, Control_c, 7, 11, 88
9, 376042, Control_c, 7, 11, 87
9, 376192, Control_c, 7, 11, 86
9, 376282, Note_on_c, 7, 75, 0
9, 376352, Control_c, 7, 11, 85
9, 376502, Control_c, 7, 11, 84
9, 376662, Control_c, 7, 11, 83
9, 376812, Control_c, 7, 11, 82
9, 376972, Control_c, 7, 11, 81
9, 377122, Control_c, 7, 11, 80
9, 377512, Note_on_c, 7, 70, 80
9, 377752, Note_on_c, 7, 69, 80
9, 377782, Note_on_c, 7, 70, 0
9, 377992, Note_on_c, 7, 70, 80
9, 378022, Note_on_c, 7, 69, 0
9, 378232, Note_on_c, 7, 74, 80
9, 378262, Note_on_c, 7, 70, 0
9, 378472, Note_on_c, 7, 70, 80
9, 378502, Note_on_c, 7, 74, 0
9, 378622, Note_on_c, 7, 70, 0
9, 378712, Note_on_c, 7, 74, 80
9, 378952, Note_on_c, 7, 70, 80
9, 378982, Note_on_c, 7, 74, 0
9, 379192, Note_on_c, 7, 69, 80
9, 379222, Note_on_c, 7, 70, 0
9, 379432, Note_on_c, 7, 70, 80
9, 379462, Note_on_c, 7, 69, 0
9, 379672, Note_on_c, 7, 74, 80
9, 379702, Note_on_c, 7, 70, 0
9, 379912, Note_on_c, 7, 70, 80
9, 379942, Note_on_c, 7, 74, 0
9, 380062, Note_on_c, 7, 70, 0
9, 380152, Note_on_c, 7, 74, 80
9, 380392, Note_on_c, 7, 70, 80
9, 380422, Note_on_c, 7, 74, 0
9, 380632, Note_on_c, 7, 69, 80
9, 380662, Note_on_c, 7, 70, 0
9, 380872, Note_on_c, 7, 70, 80
9, 380902, Note_on_c, 7, 69, 0
9, 381112, Note_on_c, 7, 74, 80
9, 381142, Note_on_c, 7, 70, 0
9, 381352, Note_on_c, 7, 70, 80
9, 381382, Note_on_c, 7, 74, 0
9, 381502, Note_on_c, 7, 70, 0
9, 381592, Note_on_c, 7, 74, 80
9, 381832, Note_on_c, 7, 70, 80
9, 381862, Note_on_c, 7, 74, 0
9, 382072, Note_on_c, 7, 69, 80
9, 382102, Note_on_c, 7, 70, 0
9, 382312, Note_on_c, 7, 70, 80
9, 382342, Note_on_c, 7, 69, 0
9, 382552, Note_on_c, 7, 74, 80
9, 382582, Note_on_c, 7, 70, 0
9, 382792, Note_on_c, 7, 70, 80
9, 382822, Note_on_c, 7, 74, 0
9, 382942, Note_on_c, 7, 70, 0
9, 383032, Note_on_c, 7, 74, 80
9, 383422, Note_on_c, 7, 74, 0
9, 383512, Note_on_c, 7, 64, 80
9, 383512, Control_c, 7, 11, 80
9, 383632, Control_c, 7, 11, 81
9, 383742, Control_c, 7, 11, 82
9, 383852, Control_c, 7, 11, 83
9, 383962, Control_c, 7, 11, 84
9, 383992, Note_on_c, 7, 65, 84
9, 384022, Note_on_c, 7, 64, 0
9, 384082, Control_c, 7, 11, 85
9, 384192, Control_c, 7, 11, 86
9, 384202, Note_on_c, 7, 65, 0
9, 384302, Control_c, 7, 11, 87
9, 384412, Control_c, 7, 11, 88
9, 384472, Note_on_c, 7, 65, 88
9, 384532, Control_c, 7, 11, 89
9, 384642, Control_c, 7, 11, 90
9, 384752, Control_c, 7, 11, 91
9, 384862, Control_c, 7, 11, 92
9, 384952, Note_on_c, 7, 66, 92
9, 384982, Note_on_c, 7, 65, 0
9, 384982, Control_c, 7, 11, 93
9, 385092, Control_c, 7, 11, 94
9, 385162, Note_on_c, 7, 66, 0
9, 385202, Control_c, 7, 11, 95
9, 385312, Control_c, 7, 11, 96
9, 385422, Control_c, 7, 11, 97
9, 385432, Note_on_c, 7, 66, 97
9, 385542, Control_c, 7, 11, 98
9, 385652, Control_c, 7, 11, 99
9, 385762, Control_c, 7, 11, 100
9, 385872, Control_c, 7, 11, 101
9, 385912, Note_on_c, 7, 67, 101
9, 385942, Note_on_c, 7, 66, 0
9, 385992, Control_c, 7, 11, 102
9, 386102, Control_c, 7, 11, 103
9, 386122, Note_on_c, 7, 67, 0
9, 386212, Control_c, 7, 11, 104
9, 386322, Control_c, 7, 11, 105
9, 386392, Note_on_c, 7, 67, 105
9, 386442, Control_c, 7, 11, 106
9, 386552, Control_c, 7, 11, 107
9, 386662, Control_c, 7, 11, 108
9, 386772, Control_c, 7, 11, 109
9, 386872, Note_on_c, 7, 68, 109
9, 386892, Control_c, 7, 11, 110
9, 386902, Note_on_c, 7, 67, 0
9, 387002, Control_c, 7, 11, 111
9, 387082, Note_on_c, 7, 68, 0
9, 387112, Control_c, 7, 11, 112
9, 387222, Control_c, 7, 11, 113
9, 387332, Control_c, 7, 11, 114
9, 387352, Note_on_c, 7, 68, 114
9, 387452, Control_c, 7, 11, 115
9, 387562, Control_c, 7, 11, 116
9, 387672, Control_c, 7, 11, 117
9, 387782, Control_c, 7, 11, 118
9, 387832, Note_on_c, 7, 69, 118
9, 387862, Note_on_c, 7, 68, 0
9, 387902, Control_c, 7, 11, 119
9, 388012, Control_c, 7, 11, 120
9, 388042, Note_on_c, 7, 69, 0
9, 388122, Control_c, 7, 11, 121
9, 388232, Control_c, 7, 11, 122
9, 388312, Note_on_c, 7, 69, 122
9, 388352, Control_c, 7, 11, 123
9, 388462, Control_c, 7, 11, 124
9, 388572, Control_c, 7, 11, 125
9, 388682, Control_c, 7, 11, 126
9, 388692, Control_c, 7, 11, 127
9, 388792, Note_on_c, 7, 70, 127
9, 388822, Note_on_c, 7, 69, 0
9, 389002, Note_on_c, 7, 70, 0
9, 389272, Note_on_c, 7, 65, 127
9, 389752, Note_on_c, 7, 74, 127
9, 389782, Note_on_c, 7, 65, 0
9, 389962, Note_on_c, 7, 74, 0
9, 390232, Note_on_c, 7, 70, 127
9, 390712, Note_on_c, 7, 77, 127
9, 390742, Note_on_c, 7, 70, 0
9, 390862, Note_on_c, 7, 77, 0
9, 391192, Note_on_c, 7, 74, 127
9, 391342, Note_on_c, 7, 74, 0
9, 391672, Note_on_c, 7, 77, 127
9, 392152, Note_on_c, 7, 75, 127
9, 392182, Note_on_c, 7, 77, 0
9, 392362, Note_on_c, 7, 75, 0
9, 392632, Note_on_c, 7, 72, 127
9, 392782, Note_on_c, 7, 72, 0
9, 393112, Note_on_c, 7, 69, 127
9, 393712, Note_on_c, 7, 69, 0
9, 394552, Control_c, 7, 11, 80
9, 396952, Note_on_c, 7, 78, 60
9, 397432, Note_on_c, 7, 75, 60
9, 397462, Note_on_c, 7, 78, 0
9, 397912, Note_on_c, 7, 72, 60
9, 397942, Note_on_c, 7, 75, 0
9, 398392, Note_on_c, 7, 69, 60
9, 398422, Note_on_c, 7, 72, 0
9, 398872, Note_on_c, 7, 66, 60
9, 398902, Note_on_c, 7, 69, 0
9, 399352, Note_on_c, 7, 65, 60
9, 399382, Note_on_c, 7, 66, 0
9, 399832, Note_on_c, 7, 63, 60
9, 399862, Note_on_c, 7, 65, 0
9, 400312, Note_on_c, 7, 61, 60
9, 400342, Note_on_c, 7, 63, 0
9, 400822, Note_on_c, 7, 61, 0
9, 402712, Note_on_c, 7, 73, 60
9, 403192, Note_on_c, 7, 70, 60
9, 403222, Note_on_c, 7, 73, 0
9, 403672, Note_on_c, 7, 67, 60
9, 403702, Note_on_c, 7, 70, 0
9, 404152, Note_on_c, 7, 64, 60
9, 404182, Note_on_c, 7, 67, 0
9, 404632, Note_on_c, 7, 61, 60
9, 404662, Note_on_c, 7, 64, 0
9, 405112, Note_on_c, 7, 60, 60
9, 405142, Note_on_c, 7, 61, 0
9, 405592, Note_on_c, 7, 64, 60
9, 405622, Note_on_c, 7, 60, 0
9, 406072, Note_on_c, 7, 65, 60
9, 406072, Control_c, 7, 11, 80
9, 406102, Note_on_c, 7, 64, 0
9, 406202, Control_c, 7, 11, 81
9, 406282, Note_on_c, 7, 65, 0
9, 406322, Control_c, 7, 11, 82
9, 406442, Control_c, 7, 11, 83
9, 406552, Note_on_c, 7, 67, 65
9, 406572, Control_c, 7, 11, 84
9, 406692, Control_c, 7, 11, 85
9, 406812, Control_c, 7, 11, 86
9, 406932, Control_c, 7, 11, 87
9, 407062, Note_on_c, 7, 67, 0
9, 407062, Control_c, 7, 11, 88
9, 407182, Control_c, 7, 11, 89
9, 407302, Control_c, 7, 11, 90
9, 407422, Control_c, 7, 11, 91
9, 407512, Note_on_c, 7, 69, 76
9, 407552, Control_c, 7, 11, 92
9, 407672, Control_c, 7, 11, 93
9, 407792, Control_c, 7, 11, 94
9, 407912, Control_c, 7, 11, 95
9, 407992, Note_on_c, 7, 65, 82
9, 408022, Note_on_c, 7, 69, 0
9, 408042, Control_c, 7, 11, 96
9, 408162, Control_c, 7, 11, 97
9, 408202, Note_on_c, 7, 65, 0
9, 408282, Control_c, 7, 11, 98
9, 408402, Control_c, 7, 11, 99
9, 408472, Note_on_c, 7, 70, 87
9, 408532, Control_c, 7, 11, 100
9, 408652, Control_c, 7, 11, 101
9, 408772, Control_c, 7, 11, 102
9, 408892, Control_c, 7, 11, 103
9, 409022, Control_c, 7, 11, 104
9, 409142, Control_c, 7, 11, 105
9, 409162, Note_on_c, 7, 70, 0
9, 409262, Control_c, 7, 11, 106
9, 409382, Control_c, 7, 11, 107
9, 409432, Note_on_c, 7, 72, 99
9, 409512, Control_c, 7, 11, 108
9, 409632, Control_c, 7, 11, 109
9, 409752, Control_c, 7, 11, 110
9, 409872, Control_c, 7, 11, 111
9, 409942, Note_on_c, 7, 72, 0
9, 410002, Control_c, 7, 11, 112
9, 410122, Control_c, 7, 11, 113
9, 410242, Control_c, 7, 11, 114
9, 410362, Control_c, 7, 11, 115
9, 410392, Note_on_c, 7, 74, 110
9, 410492, Control_c, 7, 11, 116
9, 410612, Control_c, 7, 11, 117
9, 410732, Control_c, 7, 11, 118
9, 410852, Control_c, 7, 11, 119
9, 410872, Note_on_c, 7, 70, 115
9, 410902, Note_on_c, 7, 74, 0
9, 410982, Control_c, 7, 11, 120
9, 411082, Note_on_c, 7, 70, 0
9, 411102, Control_c, 7, 11, 121
9, 411222, Control_c, 7, 11, 122
9, 411342, Control_c, 7, 11, 123
9, 411352, Note_on_c, 7, 76, 121
9, 411472, Control_c, 7, 11, 124
9, 411502, Note_on_c, 7, 76, 0
9, 411592, Control_c, 7, 11, 125
9, 411712, Control_c, 7, 11, 126
9, 411802, Control_c, 7, 11, 127
9, 411832, Note_on_c, 7, 69, 127
9, 411832, Note_on_c, 7, 77, 127
9, 413002, Note_on_c, 7, 69, 0
9, 413002, Note_on_c, 7, 77, 0
9, 413272, Note_on_c, 7, 69, 127
9, 413272, Note_on_c, 7, 81, 127
9, 414442, Note_on_c, 7, 69, 0
9, 414442, Note_on_c, 7, 81, 0
9, 414712, Note_on_c, 7, 69, 127
9, 414712, Note_on_c, 7, 84, 127
9, 414922, Note_on_c, 7, 69, 0
9, 414922, Note_on_c, 7, 84, 0
9, 415192, Note_on_c, 7, 69, 127
9, 415192, Note_on_c, 7, 84, 127
9, 415402, Note_on_c, 7, 69, 0
9, 415402, Note_on_c, 7, 84, 0
9, 415672, Note_on_c, 7, 69, 127
9, 415672, Note_on_c, 7, 84, 127
9, 415882, Note_on_c, 7, 69, 0
9, 415882, Note_on_c, 7, 84, 0
9, 416152, Note_on_c, 7, 69, 127
9, 416152, Note_on_c, 7, 77, 127
9, 416512, Note_on_c, 7, 69, 0
9, 416512, Note_on_c, 7, 77, 0
9, 416632, Control_c, 7, 11, 80
9, 417112, Note_on_c, 7, 68, 80
9, 417592, Note_on_c, 7, 73, 80
9, 417622, Note_on_c, 7, 68, 0
9, 417832, Note_on_c, 7, 73, 0
9, 418072, Note_on_c, 7, 68, 80
9, 418552, Note_on_c, 7, 77, 80
9, 418582, Note_on_c, 7, 68, 0
9, 418792, Note_on_c, 7, 77, 0
9, 419032, Note_on_c, 7, 73, 80
9, 419512, Note_on_c, 7, 80, 80
9, 419542, Note_on_c, 7, 73, 0
9, 419752, Note_on_c, 7, 80, 0
9, 419992, Note_on_c, 7, 77, 80
9, 420472, Note_on_c, 7, 80, 80
9, 420502, Note_on_c, 7, 77, 0
9, 420952, Note_on_c, 7, 78, 80
9, 420982, Note_on_c, 7, 80, 0
9, 421222, Note_on_c, 7, 78, 0
9, 421432, Note_on_c, 7, 75, 80
9, 421912, Note_on_c, 7, 72, 80
9, 421942, Note_on_c, 7, 75, 0
9, 422392, Note_on_c, 7, 72, 0
9, 425272, Note_on_c, 7, 78, 80
9, 425752, Note_on_c, 7, 75, 80
9, 425782, Note_on_c, 7, 78, 0
9, 426232, Note_on_c, 7, 82, 80
9, 426262, Note_on_c, 7, 75, 0
9, 426712, Note_on_c, 7, 80, 80
9, 426742, Note_on_c, 7, 82, 0
9, 426922, Note_on_c, 7, 80, 0
9, 427192, Note_on_c, 7, 77, 80
9, 427672, Note_on_c, 7, 73, 80
9, 427702, Note_on_c, 7, 77, 0
9, 428152, Note_on_c, 7, 73, 0
9, 431032, Note_on_c, 7, 80, 80
9, 431512, Note_on_c, 7, 77, 80
9, 431542, Note_on_c, 7, 80, 0
9, 431992, Note_on_c, 7, 82, 80
9, 432022, Note_on_c, 7, 77, 0
9, 432472, Note_on_c, 7, 80, 80
9, 432502, Note_on_c, 7, 82, 0
9, 432682, Note_on_c, 7, 80, 0
9, 432952, Note_on_c, 7, 77, 80
9, 433432, Note_on_c, 7, 74, 80
9, 433462, Note_on_c, 7, 77, 0
9, 433912, Note_on_c, 7, 74, 0
9, 436792, Note_on_c, 7, 80, 80
9, 437272, Note_on_c, 7, 77, 80
9, 437302, Note_on_c, 7, 80, 0
9, 437752, Note_on_c, 7, 78, 80
9, 437782, Note_on_c, 7, 77, 0
9, 437962, Note_on_c, 7, 78, 0
9, 438232, Note_on_c, 7, 75, 80
9, 438712, Note_on_c, 7, 78, 80
9, 438742, Note_on_c, 7, 75, 0
9, 438922, Note_on_c, 7, 78, 0
9, 439192, Note_on_c, 7, 71, 80
9, 439672, Note_on_c, 7, 78, 80
9, 439702, Note_on_c, 7, 71, 0
9, 439882, Note_on_c, 7, 78, 0
9, 440152, Note_on_c, 7, 70, 80
9, 440632, Note_on_c, 7, 69, 80
9, 440662, Note_on_c, 7, 70, 0
9, 441082, Note_on_c, 7, 69, 0
9, 443992, Note_on_c, 7, 70, 80
9, 444472, Note_on_c, 7, 73, 80
9, 444502, Note_on_c, 7, 70, 0
9, 444682, Note_on_c, 7, 73, 0
9, 444952, Note_on_c, 7, 66, 80
9, 445432, Note_on_c, 7, 73, 80
9, 445462, Note_on_c, 7, 66, 0
9, 445642, Note_on_c, 7, 73, 0
9, 445912, Note_on_c, 7, 65, 80
9, 446392, Note_on_c, 7, 64, 80
9, 446422, Note_on_c, 7, 65, 0
9, 446842, Note_on_c, 7, 64, 0
9, 449752, Note_on_c, 7, 65, 80
9, 450232, Note_on_c, 7, 68, 80
9, 450262, Note_on_c, 7, 65, 0
9, 450442, Note_on_c, 7, 68, 0
9, 450712, Note_on_c, 7, 59, 80
9, 451162, Note_on_c, 7, 59, 0
9, 452632, Note_on_c, 7, 72, 80
9, 453112, Note_on_c, 7, 75, 80
9, 453142, Note_on_c, 7, 72, 0
9, 453322, Note_on_c, 7, 75, 0
9, 453592, Note_on_c, 7, 66, 80
9, 454042, Note_on_c, 7, 66, 0
9, 455512, Note_on_c, 7, 67, 80
9, 455992, Note_on_c, 7, 70, 80
9, 456022, Note_on_c, 7, 67, 0
9, 456202, Note_on_c, 7, 70, 0
9, 456472, Note_on_c, 7, 61, 80
9, 456982, Note_on_c, 7, 61, 0
9, 457912, Control_c, 7, 11, 80
9, 458042, Control_c, 7, 11, 81
9, 458162, Control_c, 7, 11, 82
9, 458282, Control_c, 7, 11, 83
9, 458392, Note_on_c, 7, 65, 84
9, 458412, Control_c, 7, 11, 84
9, 458532, Control_c, 7, 11, 85
9, 458652, Control_c, 7, 11, 86
9, 458772, Control_c, 7, 11, 87
9, 458872, Note_on_c, 7, 69, 89
9, 458902, Note_on_c, 7, 65, 0
9, 458902, Control_c, 7, 11, 88
9, 459022, Control_c, 7, 11, 89
9, 459082, Note_on_c, 7, 69, 0
9, 459142, Control_c, 7, 11, 90
9, 459262, Control_c, 7, 11, 91
9, 459352, Note_on_c, 7, 63, 94
9, 459392, Control_c, 7, 11, 92
9, 459512, Control_c, 7, 11, 93
9, 459632, Control_c, 7, 11, 94
9, 459752, Control_c, 7, 11, 95
9, 459832, Note_on_c, 7, 69, 99
9, 459862, Note_on_c, 7, 63, 0
9, 459882, Control_c, 7, 11, 96
9, 460002, Control_c, 7, 11, 97
9, 460042, Note_on_c, 7, 69, 0
9, 460122, Control_c, 7, 11, 98
9, 460242, Control_c, 7, 11, 99
9, 460312, Note_on_c, 7, 69, 103
9, 460372, Control_c, 7, 11, 100
9, 460492, Control_c, 7, 11, 101
9, 460612, Control_c, 7, 11, 102
9, 460732, Control_c, 7, 11, 103
9, 460792, Note_on_c, 7, 72, 108
9, 460822, Note_on_c, 7, 69, 0
9, 460862, Control_c, 7, 11, 104
9, 460982, Control_c, 7, 11, 105
9, 461002, Note_on_c, 7, 72, 0
9, 461102, Control_c, 7, 11, 106
9, 461222, Control_c, 7, 11, 107
9, 461272, Note_on_c, 7, 72, 113
9, 461352, Control_c, 7, 11, 108
9, 461472, Control_c, 7, 11, 109
9, 461592, Control_c, 7, 11, 110
9, 461712, Control_c, 7, 11, 111
9, 461752, Note_on_c, 7, 75, 118
9, 461782, Note_on_c, 7, 72, 0
9, 461842, Control_c, 7, 11, 112
9, 461962, Note_on_c, 7, 75, 0
9, 461962, Control_c, 7, 11, 113
9, 462082, Control_c, 7, 11, 114
9, 462202, Control_c, 7, 11, 115
9, 462232, Note_on_c, 7, 75, 122
9, 462332, Control_c, 7, 11, 116
9, 462452, Control_c, 7, 11, 117
9, 462572, Control_c, 7, 11, 118
9, 462692, Control_c, 7, 11, 119
9, 462712, Note_on_c, 7, 81, 127
9, 462742, Note_on_c, 7, 75, 0
9, 462822, Control_c, 7, 11, 120
9, 462922, Note_on_c, 7, 81, 0
9, 462942, Control_c, 7, 11, 121
9, 463062, Control_c, 7, 11, 122
9, 463182, Control_c, 7, 11, 123
9, 463192, Note_on_c, 7, 81, 127
9, 463312, Control_c, 7, 11, 124
9, 463432, Control_c, 7, 11, 125
9, 463552, Control_c, 7, 11, 126
9, 463612, Control_c, 7, 11, 127
9, 463672, Note_on_c, 7, 82, 127
9, 463702, Note_on_c, 7, 81, 0
9, 463882, Note_on_c, 7, 82, 0
9, 464152, Note_on_c, 7, 77, 127
9, 464632, Note_on_c, 7, 86, 127
9, 464662, Note_on_c, 7, 77, 0
9, 464842, Note_on_c, 7, 86, 0
9, 465112, Note_on_c, 7, 82, 127
9, 465592, Note_on_c, 7, 89, 127
9, 465622, Note_on_c, 7, 82, 0
9, 465802, Note_on_c, 7, 89, 0
9, 466072, Note_on_c, 7, 86, 127
9, 466222, Note_on_c, 7, 86, 0
9, 466552, Note_on_c, 7, 89, 127
9, 467032, Note_on_c, 7, 87, 127
9, 467062, Note_on_c, 7, 89, 0
9, 467242, Note_on_c, 7, 87, 0
9, 467512, Note_on_c, 7, 84, 127
9, 467662, Note_on_c, 7, 84, 0
9, 467992, Note_on_c, 7, 81, 127
9, 468592, Note_on_c, 7, 81, 0
9, 470872, Control_c, 7, 11, 80
9, 471832, Note_on_c, 7, 78, 70
9, 472312, Note_on_c, 7, 75, 70
9, 472342, Note_on_c, 7, 78, 0
9, 472792, Note_on_c, 7, 72, 70
9, 472822, Note_on_c, 7, 75, 0
9, 473272, Note_on_c, 7, 69, 70
9, 473302, Note_on_c, 7, 72, 0
9, 473752, Note_on_c, 7, 66, 70
9, 473782, Note_on_c, 7, 69, 0
9, 474232, Note_on_c, 7, 65, 70
9, 474262, Note_on_c, 7, 66, 0
9, 474682, Note_on_c, 7, 65, 0
9, 477592, Note_on_c, 7, 80, 70
9, 478072, Note_on_c, 7, 77, 70
9, 478102, Note_on_c, 7, 80, 0
9, 478552, Note_on_c, 7, 74, 70
9, 478582, Note_on_c, 7, 77, 0
9, 479032, Note_on_c, 7, 71, 70
9, 479062, Note_on_c, 7, 74, 0
9, 479512, Note_on_c, 7, 68, 70
9, 479542, Note_on_c, 7, 71, 0
9, 479992, Note_on_c, 7, 67, 70
9, 480022, Note_on_c, 7, 68, 0
9, 480382, Note_on_c, 7, 67, 0
9, 480472, Note_on_c, 7, 73, 70
9, 480952, Note_on_c, 7, 70, 70
9, 480982, Note_on_c, 7, 73, 0
9, 481432, Note_on_c, 7, 67, 70
9, 481462, Note_on_c, 7, 70, 0
9, 481912, Note_on_c, 7, 64, 70
9, 481942, Note_on_c, 7, 67, 0
9, 482392, Note_on_c, 7, 61, 70
9, 482422, Note_on_c, 7, 64, 0
9, 482872, Note_on_c, 7, 60, 70
9, 482902, Note_on_c, 7, 61, 0
9, 483262, Note_on_c, 7, 60, 0
9, 483347, Control_c, 7, 11, 40
9, 483352, Note_on_c, 7, 64, 127
9, 483832, Note_on_c, 7, 65, 127
9, 483862, Note_on_c, 7, 64, 0
9, 485502, Control_c, 7, 11, 41
9, 485562, Control_c, 7, 11, 43
9, 485622, Control_c, 7, 11, 44
9, 485682, Control_c, 7, 11, 45
9, 485732, Control_c, 7, 11, 47
9, 485792, Control_c, 7, 11, 48
9, 485852, Control_c, 7, 11, 49
9, 485912, Control_c, 7, 11, 51
9, 485962, Control_c, 7, 11, 52
9, 486022, Control_c, 7, 11, 53
9, 486082, Control_c, 7, 11, 55
9, 486142, Control_c, 7, 11, 56
9, 486192, Control_c, 7, 11, 57
9, 486252, Control_c, 7, 11, 59
9, 486312, Control_c, 7, 11, 60
9, 486372, Control_c, 7, 11, 62
9, 486422, Control_c, 7, 11, 63
9, 486482, Control_c, 7, 11, 64
9, 486542, Control_c, 7, 11, 66
9, 486602, Control_c, 7, 11, 67
9, 486652, Control_c, 7, 11, 68
9, 486712, Control_c, 7, 11, 70
9, 486772, Control_c, 7, 11, 71
9, 486832, Control_c, 7, 11, 73
9, 486882, Control_c, 7, 11, 74
9, 486942, Control_c, 7, 11, 75
9, 487002, Control_c, 7, 11, 77
9, 487062, Control_c, 7, 11, 78
9, 487112, Control_c, 7, 11, 79
9, 487172, Control_c, 7, 11, 81
9, 487232, Control_c, 7, 11, 82
9, 487292, Control_c, 7, 11, 83
9, 487342, Control_c, 7, 11, 85
9, 487402, Control_c, 7, 11, 86
9, 487462, Control_c, 7, 11, 87
9, 487522, Control_c, 7, 11, 89
9, 487572, Control_c, 7, 11, 90
9, 487632, Control_c, 7, 11, 92
9, 487692, Control_c, 7, 11, 93
9, 487752, Control_c, 7, 11, 94
9, 487802, Control_c, 7, 11, 96
9, 487862, Control_c, 7, 11, 97
9, 487922, Control_c, 7, 11, 98
9, 487982, Control_c, 7, 11, 100
9, 488032, Control_c, 7, 11, 101
9, 488092, Control_c, 7, 11, 102
9, 488152, Control_c, 7, 11, 104
9, 488212, Control_c, 7, 11, 105
9, 488262, Control_c, 7, 11, 106
9, 488322, Control_c, 7, 11, 108
9, 488382, Control_c, 7, 11, 109
9, 488442, Control_c, 7, 11, 111
9, 488492, Control_c, 7, 11, 112
9, 488552, Control_c, 7, 11, 113
9, 488612, Control_c, 7, 11, 115
9, 488672, Control_c, 7, 11, 116
9, 488722, Control_c, 7, 11, 117
9, 488782, Control_c, 7, 11, 119
9, 488842, Control_c, 7, 11, 120
9, 488902, Control_c, 7, 11, 122
9, 488952, Control_c, 7, 11, 123
9, 489012, Control_c, 7, 11, 124
9, 489022, Note_on_c, 7, 65, 0
9, 489072, Control_c, 7, 11, 126
9, 489102, Control_c, 7, 11, 127
9, 489112, Note_on_c, 7, 66, 127
9, 489587, Control_c, 7, 11, 40
9, 489592, Note_on_c, 7, 65, 127
9, 489622, Note_on_c, 7, 66, 0
9, 489662, Control_c, 7, 11, 41
9, 489722, Control_c, 7, 11, 42
9, 489782, Control_c, 7, 11, 43
9, 489842, Control_c, 7, 11, 44
9, 489902, Control_c, 7, 11, 45
9, 489962, Control_c, 7, 11, 46
9, 490022, Control_c, 7, 11, 47
9, 490082, Control_c, 7, 11, 48
9, 490142, Control_c, 7, 11, 49
9, 490202, Control_c, 7, 11, 50
9, 490262, Control_c, 7, 11, 51
9, 490322, Control_c, 7, 11, 52
9, 490382, Control_c, 7, 11, 53
9, 490442, Control_c, 7, 11, 54
9, 490512, Control_c, 7, 11, 55
9, 490572, Control_c, 7, 11, 56
9, 490632, Control_c, 7, 11, 57
9, 490692, Control_c, 7, 11, 58
9, 490752, Control_c, 7, 11, 59
9, 490812, Control_c, 7, 11, 60
9, 490872, Control_c, 7, 11, 61
9, 490932, Control_c, 7, 11, 62
9, 490992, Control_c, 7, 11, 63
9, 491052, Control_c, 7, 11, 64
9, 491112, Control_c, 7, 11, 65
9, 491172, Control_c, 7, 11, 66
9, 491232, Control_c, 7, 11, 67
9, 491292, Control_c, 7, 11, 68
9, 491352, Control_c, 7, 11, 69
9, 491422, Control_c, 7, 11, 70
9, 491482, Control_c, 7, 11, 71
9, 491542, Control_c, 7, 11, 72
9, 491602, Control_c, 7, 11, 73
9, 491662, Control_c, 7, 11, 74
9, 491722, Control_c, 7, 11, 75
9, 491782, Control_c, 7, 11, 76
9, 491842, Control_c, 7, 11, 77
9, 491902, Control_c, 7, 11, 78
9, 491962, Control_c, 7, 11, 79
9, 492022, Control_c, 7, 11, 80
9, 492082, Control_c, 7, 11, 81
9, 492142, Control_c, 7, 11, 82
9, 492202, Control_c, 7, 11, 83
9, 492272, Control_c, 7, 11, 84
9, 492332, Control_c, 7, 11, 85
9, 492392, Control_c, 7, 11, 86
9, 492452, Control_c, 7, 11, 87
9, 492512, Control_c, 7, 11, 88
9, 492572, Control_c, 7, 11, 89
9, 492632, Control_c, 7, 11, 90
9, 492692, Control_c, 7, 11, 91
9, 492752, Control_c, 7, 11, 92
9, 492812, Control_c, 7, 11, 93
9, 492872, Control_c, 7, 11, 94
9, 492932, Control_c, 7, 11, 95
9, 492992, Control_c, 7, 11, 96
9, 493052, Control_c, 7, 11, 97
9, 493112, Control_c, 7, 11, 98
9, 493182, Control_c, 7, 11, 99
9, 493242, Control_c, 7, 11, 100
9, 493302, Control_c, 7, 11, 101
9, 493362, Control_c, 7, 11, 102
9, 493422, Control_c, 7, 11, 103
9, 493482, Control_c, 7, 11, 104
9, 493542, Control_c, 7, 11, 105
9, 493602, Control_c, 7, 11, 106
9, 493662, Control_c, 7, 11, 107
9, 493722, Control_c, 7, 11, 108
9, 493782, Control_c, 7, 11, 109
9, 493842, Control_c, 7, 11, 110
9, 493902, Control_c, 7, 11, 111
9, 493962, Control_c, 7, 11, 112
9, 494032, Control_c, 7, 11, 113
9, 494092, Control_c, 7, 11, 114
9, 494152, Control_c, 7, 11, 115
9, 494212, Control_c, 7, 11, 116
9, 494272, Control_c, 7, 11, 117
9, 494332, Control_c, 7, 11, 118
9, 494392, Control_c, 7, 11, 119
9, 494452, Control_c, 7, 11, 120
9, 494512, Control_c, 7, 11, 121
9, 494572, Control_c, 7, 11, 122
9, 494632, Control_c, 7, 11, 123
9, 494692, Control_c, 7, 11, 124
9, 494752, Control_c, 7, 11, 125
9, 494782, Note_on_c, 7, 65, 0
9, 494812, Control_c, 7, 11, 126
9, 494842, Control_c, 7, 11, 127
9, 494872, Note_on_c, 7, 66, 127
9, 495352, Note_on_c, 7, 65, 110
9, 495382, Note_on_c, 7, 66, 0
9, 495562, Note_on_c, 7, 65, 0
9, 495832, Note_on_c, 7, 69, 112
9, 495832, Note_on_c, 7, 81, 112
9, 496702, Note_on_c, 7, 69, 0
9, 496702, Note_on_c, 7, 81, 0
9, 496792, Note_on_c, 7, 70, 118
9, 496792, Note_on_c, 7, 82, 118
9, 497662, Note_on_c, 7, 70, 0
9, 497662, Note_on_c, 7, 82, 0
9, 497752, Note_on_c, 7, 79, 124
9, 497962, Note_on_c, 7, 79, 0
9, 498232, Note_on_c, 7, 77, 127
9, 499342, Note_on_c, 7, 77, 0
9, 499672, Note_on_c, 7, 72, 127
9, 499672, Note_on_c, 7, 81, 127
9, 500782, Note_on_c, 7, 72, 0
9, 500782, Note_on_c, 7, 81, 0
9, 501112, Note_on_c, 7, 74, 127
9, 501112, Note_on_c, 7, 82, 127
9, 501587, Note_on_c, 7, 74, 0
9, 501587, Note_on_c, 7, 82, 0
9, 501592, Note_on_c, 7, 74, 127
9, 501592, Note_on_c, 7, 82, 127
9, 502067, Note_on_c, 7, 74, 0
9, 502067, Note_on_c, 7, 82, 0
9, 502072, Note_on_c, 7, 74, 127
9, 502072, Note_on_c, 7, 82, 127
9, 502547, Note_on_c, 7, 74, 0
9, 502547, Note_on_c, 7, 82, 0
9, 502552, Note_on_c, 7, 74, 127
9, 502552, Note_on_c, 7, 82, 127
9, 503027, Note_on_c, 7, 74, 0
9, 503027, Note_on_c, 7, 82, 0
9, 503032, Note_on_c, 7, 74, 127
9, 503032, Note_on_c, 7, 82, 127
9, 503507, Note_on_c, 7, 74, 0
9, 503507, Note_on_c, 7, 82, 0
9, 503512, Note_on_c, 7, 74, 127
9, 503512, Note_on_c, 7, 82, 127
9, 503987, Note_on_c, 7, 74, 0
9, 503987, Note_on_c, 7, 82, 0
9, 503992, Note_on_c, 7, 81, 127
9, 504472, Note_on_c, 7, 77, 127
9, 504502, Note_on_c, 7, 81, 0
9, 504682, Note_on_c, 7, 77, 0
9, 504952, Note_on_c, 7, 84, 127
9, 505432, Note_on_c, 7, 81, 127
9, 505462, Note_on_c, 7, 84, 0
9, 505642, Note_on_c, 7, 81, 0
9, 505912, Note_on_c, 7, 87, 127
9, 506392, Note_on_c, 7, 84, 127
9, 506422, Note_on_c, 7, 87, 0
9, 506602, Note_on_c, 7, 84, 0
9, 506872, Note_on_c, 7, 74, 127
9, 506872, Note_on_c, 7, 82, 127
9, 507347, Note_on_c, 7, 74, 0
9, 507347, Note_on_c, 7, 82, 0
9, 507352, Note_on_c, 7, 74, 127
9, 507352, Note_on_c, 7, 82, 127
9, 507827, Note_on_c, 7, 74, 0
9, 507827, Note_on_c, 7, 82, 0
9, 507832, Note_on_c, 7, 74, 127
9, 507832, Note_on_c, 7, 82, 127
9, 508307, Note_on_c, 7, 74, 0
9, 508307, Note_on_c, 7, 82, 0
9, 508312, Note_on_c, 7, 74, 127
9, 508312, Note_on_c, 7, 82, 127
9, 508787, Note_on_c, 7, 74, 0
9, 508787, Note_on_c, 7, 82, 0
9, 508792, Note_on_c, 7, 74, 127
9, 508792, Note_on_c, 7, 82, 127
9, 509267, Note_on_c, 7, 74, 0
9, 509267, Note_on_c, 7, 82, 0
9, 509272, Note_on_c, 7, 74, 127
9, 509272, Note_on_c, 7, 82, 127
9, 509747, Note_on_c, 7, 74, 0
9, 509747, Note_on_c, 7, 82, 0
9, 509752, Note_on_c, 7, 81, 127
9, 510232, Note_on_c, 7, 77, 127
9, 510262, Note_on_c, 7, 81, 0
9, 510442, Note_on_c, 7, 77, 0
9, 510712, Note_on_c, 7, 84, 127
9, 511192, Note_on_c, 7, 81, 127
9, 511222, Note_on_c, 7, 84, 0
9, 511402, Note_on_c, 7, 81, 0
9, 511672, Note_on_c, 7, 87, 127
9, 512152, Note_on_c, 7, 84, 127
9, 512182, Note_on_c, 7, 87, 0
9, 512362, Note_on_c, 7, 84, 0
9, 512632, Note_on_c, 7, 74, 127
9, 512632, Note_on_c, 7, 82, 127
9, 513682, Note_on_c, 7, 74, 0
9, 513682, Note_on_c, 7, 82, 0
9, 514072, Note_on_c, 7, 74, 127
9, 514072, Note_on_c, 7, 86, 127
9, 515122, Note_on_c, 7, 74, 0
9, 515122, Note_on_c, 7, 86, 0
9, 515512, Note_on_c, 7, 89, 127
9, 515722, Note_on_c, 7, 89, 0
9, 515992, Note_on_c, 7, 89, 127
9, 516202, Note_on_c, 7, 89, 0
9, 516472, Note_on_c, 7, 89, 127
9, 516652, Note_on_c, 7, 89, 0
9, 516952, Note_on_c, 7, 82, 127
9, 517552, Note_on_c, 7, 82, 0
9, 517912, Control_c, 7, 11, 80
9, 521662, Note_on_c, 7, 71, 80
9, 521752, Note_on_c, 7, 72, 80
9, 521782, Note_on_c, 7, 71, 0
9, 521962, Note_on_c, 7, 72, 0
9, 522142, Note_on_c, 7, 74, 80
9, 522232, Note_on_c, 7, 75, 80
9, 522262, Note_on_c, 7, 74, 0
9, 522442, Note_on_c, 7, 75, 0
9, 522712, Note_on_c, 7, 79, 100
9, 523672, Note_on_c, 7, 75, 84
9, 523702, Note_on_c, 7, 79, 0
9, 523912, Note_on_c, 7, 72, 80
9, 523942, Note_on_c, 7, 75, 0
9, 524302, Note_on_c, 7, 72, 0
9, 527422, Note_on_c, 7, 73, 80
9, 527512, Note_on_c, 7, 74, 80
9, 527542, Note_on_c, 7, 73, 0
9, 527722, Note_on_c, 7, 74, 0
9, 527902, Note_on_c, 7, 76, 80
9, 527992, Note_on_c, 7, 77, 80
9, 528022, Note_on_c, 7, 76, 0
9, 528202, Note_on_c, 7, 77, 0
9, 528472, Note_on_c, 7, 80, 110
9, 529432, Note_on_c, 7, 77, 86
9, 529462, Note_on_c, 7, 80, 0
9, 529672, Note_on_c, 7, 74, 80
9, 529702, Note_on_c, 7, 77, 0
9, 530062, Note_on_c, 7, 74, 0
9, 538072, Note_on_c, 7, 75, 80
9, 538552, Note_on_c, 7, 74, 80
9, 538552, Control_c, 7, 11, 80
9, 538582, Note_on_c, 7, 75, 0
9, 538592, Control_c, 7, 11, 81
9, 538622, Control_c, 7, 11, 82
9, 538652, Control_c, 7, 11, 83
9, 538682, Control_c, 7, 11, 84
9, 538712, Control_c, 7, 11, 85
9, 538742, Control_c, 7, 11, 86
9, 538772, Control_c, 7, 11, 87
9, 538802, Control_c, 7, 11, 88
9, 538832, Control_c, 7, 11, 89
9, 538862, Control_c, 7, 11, 90
9, 538892, Control_c, 7, 11, 91
9, 538922, Control_c, 7, 11, 92
9, 538952, Control_c, 7, 11, 93
9, 538982, Control_c, 7, 11, 94
9, 539012, Control_c, 7, 11, 95
9, 539052, Control_c, 7, 11, 96
9, 539082, Control_c, 7, 11, 97
9, 539112, Control_c, 7, 11, 98
9, 539142, Control_c, 7, 11, 99
9, 539172, Control_c, 7, 11, 100
9, 539202, Control_c, 7, 11, 101
9, 539232, Control_c, 7, 11, 102
9, 539262, Control_c, 7, 11, 103
9, 539292, Control_c, 7, 11, 104
9, 539322, Control_c, 7, 11, 105
9, 539352, Control_c, 7, 11, 106
9, 539382, Control_c, 7, 11, 107
9, 539412, Control_c, 7, 11, 108
9, 539442, Control_c, 7, 11, 109
9, 539472, Control_c, 7, 11, 110
9, 539502, Control_c, 7, 11, 111
9, 539512, Note_on_c, 7, 73, 80
9, 539542, Note_on_c, 7, 74, 0
9, 539542, Control_c, 7, 11, 112
9, 539572, Control_c, 7, 11, 113
9, 539602, Control_c, 7, 11, 114
9, 539632, Control_c, 7, 11, 115
9, 539662, Control_c, 7, 11, 116
9, 539692, Control_c, 7, 11, 117
9, 539722, Control_c, 7, 11, 118
9, 539752, Control_c, 7, 11, 119
9, 539782, Control_c, 7, 11, 120
9, 539812, Control_c, 7, 11, 121
9, 539842, Control_c, 7, 11, 122
9, 539872, Control_c, 7, 11, 123
9, 539902, Control_c, 7, 11, 124
9, 539932, Control_c, 7, 11, 125
9, 539962, Control_c, 7, 11, 126
9, 539992, Control_c, 7, 11, 127
9, 540022, Control_c, 7, 11, 126
9, 540052, Control_c, 7, 11, 125
9, 540082, Control_c, 7, 11, 124
9, 540112, Control_c, 7, 11, 123
9, 540142, Control_c, 7, 11, 122
9, 540172, Control_c, 7, 11, 121
9, 540202, Control_c, 7, 11, 120
9, 540232, Control_c, 7, 11, 119
9, 540262, Control_c, 7, 11, 118
9, 540292, Control_c, 7, 11, 117
9, 540322, Control_c, 7, 11, 116
9, 540352, Control_c, 7, 11, 115
9, 540382, Control_c, 7, 11, 114
9, 540412, Control_c, 7, 11, 113
9, 540442, Control_c, 7, 11, 112
9, 540472, Note_on_c, 7, 72, 80
9, 540472, Control_c, 7, 11, 111
9, 540502, Note_on_c, 7, 73, 0
9, 540502, Control_c, 7, 11, 110
9, 540532, Control_c, 7, 11, 109
9, 540562, Control_c, 7, 11, 108
9, 540592, Control_c, 7, 11, 107
9, 540622, Control_c, 7, 11, 106
9, 540652, Control_c, 7, 11, 105
9, 540682, Control_c, 7, 11, 104
9, 540712, Control_c, 7, 11, 103
9, 540742, Control_c, 7, 11, 102
9, 540772, Control_c, 7, 11, 101
9, 540802, Control_c, 7, 11, 100
9, 540832, Control_c, 7, 11, 99
9, 540862, Control_c, 7, 11, 98
9, 540892, Control_c, 7, 11, 97
9, 540922, Control_c, 7, 11, 96
9, 540952, Note_on_c, 7, 70, 80
9, 540952, Control_c, 7, 11, 95
9, 540982, Note_on_c, 7, 72, 0
9, 540982, Control_c, 7, 11, 94
9, 541012, Control_c, 7, 11, 93
9, 541042, Control_c, 7, 11, 92
9, 541072, Control_c, 7, 11, 91
9, 541102, Control_c, 7, 11, 90
9, 541132, Control_c, 7, 11, 89
9, 541162, Note_on_c, 7, 70, 0
9, 541162, Control_c, 7, 11, 88
9, 541192, Control_c, 7, 11, 87
9, 541222, Control_c, 7, 11, 86
9, 541252, Control_c, 7, 11, 85
9, 541282, Control_c, 7, 11, 84
9, 541312, Control_c, 7, 11, 83
9, 541342, Control_c, 7, 11, 82
9, 541372, Control_c, 7, 11, 81
9, 541402, Control_c, 7, 11, 80
9, 541432, Note_on_c, 7, 70, 80
9, 541912, Note_on_c, 7, 70, 0
9, 543832, Note_on_c, 7, 72, 80
9, 544072, Note_on_c, 7, 74, 80
9, 544102, Note_on_c, 7, 72, 0
9, 544312, Note_on_c, 7, 75, 80
9, 544342, Note_on_c, 7, 74, 0
9, 544522, Note_on_c, 7, 75, 0
9, 544792, Note_on_c, 7, 75, 80
9, 545032, Note_on_c, 7, 77, 80
9, 545062, Note_on_c, 7, 75, 0
9, 545272, Note_on_c, 7, 79, 117
9, 545302, Note_on_c, 7, 77, 0
9, 545752, Note_on_c, 7, 72, 80
9, 545782, Note_on_c, 7, 79, 0
9, 546442, Note_on_c, 7, 72, 0
9, 549592, Note_on_c, 7, 74, 80
9, 549832, Note_on_c, 7, 75, 80
9, 549862, Note_on_c, 7, 74, 0
9, 550072, Note_on_c, 7, 77, 80
9, 550102, Note_on_c, 7, 75, 0
9, 550282, Note_on_c, 7, 77, 0
9, 550552, Note_on_c, 7, 77, 80
9, 550792, Note_on_c, 7, 79, 80
9, 550822, Note_on_c, 7, 77, 0
9, 551032, Note_on_c, 7, 80, 117
9, 551062, Note_on_c, 7, 79, 0
9, 551512, Note_on_c, 7, 74, 80
9, 551542, Note_on_c, 7, 80, 0
9, 552202, Note_on_c, 7, 74, 0
9, 566872, Program_c, 7, 45
9, 567352, Note_on_c, 7, 63, 80
9, 567802, Note_on_c, 7, 63, 0
9, 573112, Note_on_c, 7, 63, 80
9, 573562, Note_on_c, 7, 63, 0
9, 580312, Program_c, 7, 48
9, 581032, Note_on_c, 7, 65, 60
9, 581272, Note_on_c, 7, 66, 60
9, 581302, Note_on_c, 7, 65, 0
9, 581512, Note_on_c, 7, 65, 60
9, 581542, Note_on_c, 7, 66, 0
9, 581752, Note_on_c, 7, 66, 60
9, 581782, Note_on_c, 7, 65, 0
9, 581962, Note_on_c, 7, 66, 0
9, 582472, Note_on_c, 7, 65, 60
9, 582712, Note_on_c, 7, 66, 60
9, 582742, Note_on_c, 7, 65, 0
9, 582952, Note_on_c, 7, 65, 60
9, 582982, Note_on_c, 7, 66, 0
9, 583192, Note_on_c, 7, 66, 60
9, 583222, Note_on_c, 7, 65, 0
9, 583402, Note_on_c, 7, 66, 0
9, 583912, Note_on_c, 7, 65, 60
9, 584152, Note_on_c, 7, 66, 60
9, 584182, Note_on_c, 7, 65, 0
9, 584392, Note_on_c, 7, 65, 60
9, 584422, Note_on_c, 7, 66, 0
9, 584632, Note_on_c, 7, 66, 60
9, 584662, Note_on_c, 7, 65, 0
9, 584872, Note_on_c, 7, 64, 60
9, 584902, Note_on_c, 7, 66, 0
9, 585112, Note_on_c, 7, 65, 60
9, 585142, Note_on_c, 7, 64, 0
9, 585352, Note_on_c, 7, 64, 60
9, 585382, Note_on_c, 7, 65, 0
9, 585592, Note_on_c, 7, 65, 60
9, 585622, Note_on_c, 7, 64, 0
9, 585832, Note_on_c, 7, 64, 60
9, 585862, Note_on_c, 7, 65, 0
9, 586072, Note_on_c, 7, 65, 60
9, 586102, Note_on_c, 7, 64, 0
9, 586312, Note_on_c, 7, 57, 60
9, 586342, Note_on_c, 7, 65, 0
9, 586552, Note_on_c, 7, 58, 60
9, 586582, Note_on_c, 7, 57, 0
9, 586792, Note_on_c, 7, 57, 60
9, 586822, Note_on_c, 7, 58, 0
9, 587032, Note_on_c, 7, 58, 60
9, 587062, Note_on_c, 7, 57, 0
9, 587272, Note_on_c, 7, 57, 60
9, 587302, Note_on_c, 7, 58, 0
9, 587512, Note_on_c, 7, 58, 60
9, 587542, Note_on_c, 7, 57, 0
9, 587752, Note_on_c, 7, 57, 60
9, 587782, Note_on_c, 7, 58, 0
9, 587992, Note_on_c, 7, 58, 60
9, 588022, Note_on_c, 7, 57, 0
9, 588232, Note_on_c, 7, 57, 60
9, 588262, Note_on_c, 7, 58, 0
9, 588472, Note_on_c, 7, 58, 60
9, 588502, Note_on_c, 7, 57, 0
9, 588712, Note_on_c, 7, 57, 60
9, 588742, Note_on_c, 7, 58, 0
9, 588952, Note_on_c, 7, 58, 60
9, 588982, Note_on_c, 7, 57, 0
9, 589192, Note_on_c, 7, 57, 60
9, 589222, Note_on_c, 7, 58, 0
9, 589432, Note_on_c, 7, 58, 60
9, 589462, Note_on_c, 7, 57, 0
9, 589672, Note_on_c, 7, 57, 60
9, 589702, Note_on_c, 7, 58, 0
9, 589912, Note_on_c, 7, 58, 60
9, 589942, Note_on_c, 7, 57, 0
9, 590152, Note_on_c, 7, 57, 60
9, 590182, Note_on_c, 7, 58, 0
9, 590302, Note_on_c, 7, 57, 0
9, 590392, Note_on_c, 7, 58, 60
9, 590632, Note_on_c, 7, 57, 60
9, 590662, Note_on_c, 7, 58, 0
9, 590872, Note_on_c, 7, 58, 61
9, 590902, Note_on_c, 7, 57, 0
9, 591112, Note_on_c, 7, 57, 62
9, 591142, Note_on_c, 7, 58, 0
9, 591352, Note_on_c, 7, 58, 63
9, 591382, Note_on_c, 7, 57, 0
9, 591592, Note_on_c, 7, 57, 63
9, 591622, Note_on_c, 7, 58, 0
9, 591832, Note_on_c, 7, 58, 64
9, 591862, Note_on_c, 7, 57, 0
9, 592072, Note_on_c, 7, 57, 65
9, 592102, Note_on_c, 7, 58, 0
9, 592312, Note_on_c, 7, 58, 66
9, 592342, Note_on_c, 7, 57, 0
9, 592552, Note_on_c, 7, 57, 66
9, 592582, Note_on_c, 7, 58, 0
9, 592792, Note_on_c, 7, 58, 67
9, 592822, Note_on_c, 7, 57, 0
9, 593032, Note_on_c, 7, 57, 68
9, 593062, Note_on_c, 7, 58, 0
9, 593272, Note_on_c, 7, 58, 69
9, 593302, Note_on_c, 7, 57, 0
9, 593542, Note_on_c, 7, 58, 0
9, 593662, Note_on_c, 7, 71, 70
9, 593752, Note_on_c, 7, 72, 70
9, 593782, Note_on_c, 7, 71, 0
9, 593962, Note_on_c, 7, 72, 0
9, 594142, Note_on_c, 7, 74, 71
9, 594232, Note_on_c, 7, 75, 72
9, 594262, Note_on_c, 7, 74, 0
9, 594442, Note_on_c, 7, 75, 0
9, 594712, Note_on_c, 7, 79, 100
9, 595672, Note_on_c, 7, 75, 82
9, 595702, Note_on_c, 7, 79, 0
9, 595912, Note_on_c, 7, 72, 77
9, 595942, Note_on_c, 7, 75, 0
9, 596302, Note_on_c, 7, 72, 0
9, 599422, Note_on_c, 7, 73, 88
9, 599512, Note_on_c, 7, 74, 89
9, 599542, Note_on_c, 7, 73, 0
9, 599722, Note_on_c, 7, 74, 0
9, 599902, Note_on_c, 7, 76, 90
9, 599992, Note_on_c, 7, 77, 90
9, 600022, Note_on_c, 7, 76, 0
9, 600202, Note_on_c, 7, 77, 0
9, 600472, Note_on_c, 7, 80, 127
9, 601432, Note_on_c, 7, 77, 102
9, 601462, Note_on_c, 7, 80, 0
9, 601672, Note_on_c, 7, 74, 95
9, 601702, Note_on_c, 7, 77, 0
9, 602062, Note_on_c, 7, 74, 0
9, 611992, Control_c, 7, 11, 110
9, 612952, Note_on_c, 7, 74, 127
9, 613192, Note_on_c, 7, 75, 127
9, 613222, Note_on_c, 7, 74, 0
9, 613432, Note_on_c, 7, 77, 127
9, 613462, Note_on_c, 7, 75, 0
9, 614392, Note_on_c, 7, 74, 127
9, 614422, Note_on_c, 7, 77, 0
9, 614872, Note_on_c, 7, 75, 127
9, 614902, Note_on_c, 7, 74, 0
9, 615832, Note_on_c, 7, 77, 127
9, 615862, Note_on_c, 7, 75, 0
9, 616222, Note_on_c, 7, 77, 0
9, 616312, Note_on_c, 7, 79, 127
9, 616312, Control_c, 7, 11, 110
9, 616372, Control_c, 7, 11, 114
9, 616432, Control_c, 7, 11, 118
9, 616492, Control_c, 7, 11, 122
9, 616552, Control_c, 7, 11, 127
9, 616612, Control_c, 7, 11, 127
9, 616732, Control_c, 7, 11, 126
9, 616792, Control_c, 7, 11, 125
9, 616852, Control_c, 7, 11, 124
9, 616912, Control_c, 7, 11, 123
9, 616972, Control_c, 7, 11, 122
9, 617032, Control_c, 7, 11, 121
9, 617092, Control_c, 7, 11, 120
9, 617152, Control_c, 7, 11, 119
9, 617212, Control_c, 7, 11, 118
9, 617272, Control_c, 7, 11, 117
9, 617332, Control_c, 7, 11, 116
9, 617392, Control_c, 7, 11, 115
9, 617452, Control_c, 7, 11, 114
9, 617512, Control_c, 7, 11, 113
9, 617572, Control_c, 7, 11, 112
9, 617632, Control_c, 7, 11, 111
9, 617692, Control_c, 7, 11, 110
9, 618622, Note_on_c, 7, 79, 0
9, 618712, Note_on_c, 7, 77, 127
9, 619192, Note_on_c, 7, 75, 127
9, 619222, Note_on_c, 7, 77, 0
9, 619642, Note_on_c, 7, 75, 0
9, 620152, Note_on_c, 7, 75, 127
9, 620602, Note_on_c, 7, 75, 0
9, 620632, Note_on_c, 7, 75, 127
9, 620722, Note_on_c, 7, 77, 127
9, 620727, Note_on_c, 7, 75, 0
9, 620812, Note_on_c, 7, 75, 127
9, 620817, Note_on_c, 7, 77, 0
9, 620902, Note_on_c, 7, 77, 127
9, 620907, Note_on_c, 7, 75, 0
9, 620992, Note_on_c, 7, 75, 127
9, 620997, Note_on_c, 7, 77, 0
9, 621082, Note_on_c, 7, 77, 127
9, 621087, Note_on_c, 7, 75, 0
9, 621177, Note_on_c, 7, 77, 0
9, 621352, Note_on_c, 7, 74, 127
9, 621562, Note_on_c, 7, 74, 0
9, 621592, Note_on_c, 7, 75, 127
9, 622042, Note_on_c, 7, 75, 0
9, 622072, Note_on_c, 7, 74, 127
9, 622672, Note_on_c, 7, 74, 0
9, 623032, Note_on_c, 7, 77, 127
9, 623512, Note_on_c, 7, 74, 127
9, 623542, Note_on_c, 7, 77, 0
9, 623962, Note_on_c, 7, 74, 0
9, 625912, Note_on_c, 7, 77, 127
9, 626392, Note_on_c, 7, 75, 127
9, 626422, Note_on_c, 7, 77, 0
9, 626842, Note_on_c, 7, 75, 0
9, 628792, Note_on_c, 7, 77, 127
9, 628792, Control_c, 7, 11, 110
9, 628952, Control_c, 7, 11, 109
9, 629102, Control_c, 7, 11, 108
9, 629262, Control_c, 7, 11, 107
9, 629272, Note_on_c, 7, 74, 123
9, 629302, Note_on_c, 7, 77, 0
9, 629412, Control_c, 7, 11, 106
9, 629572, Control_c, 7, 11, 105
9, 629722, Note_on_c, 7, 74, 0
9, 629722, Control_c, 7, 11, 104
9, 629882, Control_c, 7, 11, 103
9, 630032, Control_c, 7, 11, 102
9, 630192, Control_c, 7, 11, 101
9, 630342, Control_c, 7, 11, 100
9, 630502, Control_c, 7, 11, 99
9, 630652, Control_c, 7, 11, 98
9, 630812, Control_c, 7, 11, 97
9, 630962, Control_c, 7, 11, 96
9, 631122, Control_c, 7, 11, 95
9, 631272, Control_c, 7, 11, 94
9, 631432, Control_c, 7, 11, 93
9, 631582, Control_c, 7, 11, 92
9, 631672, Note_on_c, 7, 77, 101
9, 631742, Control_c, 7, 11, 91
9, 631892, Control_c, 7, 11, 90
9, 632052, Control_c, 7, 11, 89
9, 632152, Note_on_c, 7, 75, 96
9, 632182, Note_on_c, 7, 77, 0
9, 632202, Control_c, 7, 11, 88
9, 632362, Control_c, 7, 11, 87
9, 632512, Control_c, 7, 11, 86
9, 632602, Note_on_c, 7, 75, 0
9, 632672, Control_c, 7, 11, 85
9, 632822, Control_c, 7, 11, 84
9, 632982, Control_c, 7, 11, 83
9, 633132, Control_c, 7, 11, 82
9, 633292, Control_c, 7, 11, 81
9, 633442, Control_c, 7, 11, 80
9, 633832, Note_on_c, 7, 70, 80
9, 634072, Note_on_c, 7, 69, 80
9, 634102, Note_on_c, 7, 70, 0
9, 634312, Note_on_c, 7, 70, 80
9, 634342, Note_on_c, 7, 69, 0
9, 634552, Note_on_c, 7, 74, 80
9, 634582, Note_on_c, 7, 70, 0
9, 634792, Note_on_c, 7, 70, 80
9, 634822, Note_on_c, 7, 74, 0
9, 634942, Note_on_c, 7, 70, 0
9, 635032, Note_on_c, 7, 74, 80
9, 635272, Note_on_c, 7, 70, 80
9, 635302, Note_on_c, 7, 74, 0
9, 635512, Note_on_c, 7, 69, 80
9, 635542, Note_on_c, 7, 70, 0
9, 635752, Note_on_c, 7, 70, 80
9, 635782, Note_on_c, 7, 69, 0
9, 635992, Note_on_c, 7, 74, 80
9, 636022, Note_on_c, 7, 70, 0
9, 636232, Note_on_c, 7, 70, 80
9, 636262, Note_on_c, 7, 74, 0
9, 636382, Note_on_c, 7, 70, 0
9, 636472, Note_on_c, 7, 74, 80
9, 636712, Note_on_c, 7, 70, 80
9, 636742, Note_on_c, 7, 74, 0
9, 636952, Note_on_c, 7, 69, 80
9, 636982, Note_on_c, 7, 70, 0
9, 637192, Note_on_c, 7, 70, 80
9, 637222, Note_on_c, 7, 69, 0
9, 637432, Note_on_c, 7, 74, 80
9, 637462, Note_on_c, 7, 70, 0
9, 637672, Note_on_c, 7, 70, 80
9, 637702, Note_on_c, 7, 74, 0
9, 637822, Note_on_c, 7, 70, 0
9, 637912, Note_on_c, 7, 74, 80
9, 638152, Note_on_c, 7, 70, 80
9, 638182, Note_on_c, 7, 74, 0
9, 638392, Note_on_c, 7, 69, 80
9, 638422, Note_on_c, 7, 70, 0
9, 638632, Note_on_c, 7, 70, 80
9, 638662, Note_on_c, 7, 69, 0
9, 638872, Note_on_c, 7, 74, 80
9, 638902, Note_on_c, 7, 70, 0
9, 639112, Note_on_c, 7, 70, 80
9, 639142, Note_on_c, 7, 74, 0
9, 639262, Note_on_c, 7, 70, 0
9, 639352, Note_on_c, 7, 74, 80
9, 639802, Note_on_c, 7, 74, 0
9, 641752, Note_on_c, 7, 78, 80
9, 641752, Control_c, 7, 11, 80
9, 641832, Control_c, 7, 11, 81
9, 641902, Control_c, 7, 11, 82
9, 641972, Control_c, 7, 11, 83
9, 642042, Control_c, 7, 11, 84
9, 642112, Control_c, 7, 11, 85
9, 642182, Control_c, 7, 11, 86
9, 642232, Note_on_c, 7, 79, 86
9, 642262, Note_on_c, 7, 78, 0
9, 642262, Control_c, 7, 11, 87
9, 642332, Control_c, 7, 11, 88
9, 642402, Control_c, 7, 11, 89
9, 642442, Note_on_c, 7, 79, 0
9, 642472, Control_c, 7, 11, 90
9, 642542, Control_c, 7, 11, 91
9, 642612, Control_c, 7, 11, 92
9, 642682, Control_c, 7, 11, 93
9, 642712, Note_on_c, 7, 79, 93
9, 642762, Control_c, 7, 11, 94
9, 642832, Control_c, 7, 11, 95
9, 642902, Control_c, 7, 11, 96
9, 642972, Control_c, 7, 11, 97
9, 643042, Control_c, 7, 11, 98
9, 643112, Control_c, 7, 11, 99
9, 643182, Control_c, 7, 11, 100
9, 643192, Note_on_c, 7, 80, 100
9, 643222, Note_on_c, 7, 79, 0
9, 643262, Control_c, 7, 11, 101
9, 643332, Control_c, 7, 11, 102
9, 643402, Note_on_c, 7, 80, 0
9, 643402, Control_c, 7, 11, 103
9, 643472, Control_c, 7, 11, 104
9, 643542, Control_c, 7, 11, 105
9, 643612, Control_c, 7, 11, 106
9, 643672, Note_on_c, 7, 80, 106
9, 643692, Control_c, 7, 11, 107
9, 643762, Control_c, 7, 11, 108
9, 643832, Control_c, 7, 11, 109
9, 643902, Control_c, 7, 11, 110
9, 643972, Control_c, 7, 11, 111
9, 644042, Control_c, 7, 11, 112
9, 644112, Control_c, 7, 11, 113
9, 644152, Note_on_c, 7, 81, 113
9, 644182, Note_on_c, 7, 80, 0
9, 644192, Control_c, 7, 11, 114
9, 644262, Control_c, 7, 11, 115
9, 644332, Control_c, 7, 11, 116
9, 644362, Note_on_c, 7, 81, 0
9, 644402, Control_c, 7, 11, 117
9, 644472, Control_c, 7, 11, 118
9, 644542, Control_c, 7, 11, 119
9, 644612, Control_c, 7, 11, 120
9, 644632, Note_on_c, 7, 81, 120
9, 644692, Control_c, 7, 11, 121
9, 644762, Control_c, 7, 11, 122
9, 644832, Control_c, 7, 11, 123
9, 644902, Control_c, 7, 11, 124
9, 644972, Control_c, 7, 11, 125
9, 645042, Control_c, 7, 11, 126
9, 645082, Control_c, 7, 11, 127
9, 645112, Note_on_c, 7, 82, 127
9, 645142, Note_on_c, 7, 81, 0
9, 645322, Note_on_c, 7, 82, 0
9, 645592, Note_on_c, 7, 77, 127
9, 646072, Note_on_c, 7, 86, 127
9, 646102, Note_on_c, 7, 77, 0
9, 646282, Note_on_c, 7, 86, 0
9, 646552, Note_on_c, 7, 82, 127
9, 647032, Note_on_c, 7, 89, 127
9, 647062, Note_on_c, 7, 82, 0
9, 647242, Note_on_c, 7, 89, 0
9, 647512, Note_on_c, 7, 86, 127
9, 647662, Note_on_c, 7, 86, 0
9, 647992, Note_on_c, 7, 89, 127
9, 648472, Note_on_c, 7, 87, 127
9, 648502, Note_on_c, 7, 89, 0
9, 648682, Note_on_c, 7, 87, 0
9, 648952, Note_on_c, 7, 84, 127
9, 649102, Note_on_c, 7, 84, 0
9, 649432, Note_on_c, 7, 81, 127
9, 650032, Note_on_c, 7, 81, 0
9, 652312, Control_c, 7, 11, 80
9, 653272, Note_on_c, 7, 78, 70
9, 653752, Note_on_c, 7, 75, 70
9, 653782, Note_on_c, 7, 78, 0
9, 654232, Note_on_c, 7, 72, 70
9, 654262, Note_on_c, 7, 75, 0
9, 654712, Note_on_c, 7, 69, 70
9, 654742, Note_on_c, 7, 72, 0
9, 655192, Note_on_c, 7, 66, 70
9, 655222, Note_on_c, 7, 69, 0
9, 655672, Note_on_c, 7, 65, 70
9, 655702, Note_on_c, 7, 66, 0
9, 656122, Note_on_c, 7, 65, 0
9, 659032, Note_on_c, 7, 80, 70
9, 659512, Note_on_c, 7, 77, 70
9, 659542, Note_on_c, 7, 80, 0
9, 659992, Note_on_c, 7, 74, 70
9, 660022, Note_on_c, 7, 77, 0
9, 660472, Note_on_c, 7, 71, 70
9, 660502, Note_on_c, 7, 74, 0
9, 660952, Note_on_c, 7, 68, 70
9, 660982, Note_on_c, 7, 71, 0
9, 661432, Note_on_c, 7, 67, 70
9, 661462, Note_on_c, 7, 68, 0
9, 661822, Note_on_c, 7, 67, 0
9, 661912, Note_on_c, 7, 73, 70
9, 662392, Note_on_c, 7, 70, 70
9, 662422, Note_on_c, 7, 73, 0
9, 662872, Note_on_c, 7, 67, 70
9, 662902, Note_on_c, 7, 70, 0
9, 663352, Note_on_c, 7, 64, 70
9, 663382, Note_on_c, 7, 67, 0
9, 663832, Note_on_c, 7, 61, 70
9, 663862, Note_on_c, 7, 64, 0
9, 664312, Note_on_c, 7, 60, 70
9, 664342, Note_on_c, 7, 61, 0
9, 664702, Note_on_c, 7, 60, 0
9, 664787, Control_c, 7, 11, 40
9, 664792, Note_on_c, 7, 64, 127
9, 665272, Note_on_c, 7, 65, 127
9, 665302, Note_on_c, 7, 64, 0
9, 666942, Control_c, 7, 11, 41
9, 667002, Control_c, 7, 11, 43
9, 667062, Control_c, 7, 11, 44
9, 667122, Control_c, 7, 11, 45
9, 667172, Control_c, 7, 11, 47
9, 667232, Control_c, 7, 11, 48
9, 667292, Control_c, 7, 11, 49
9, 667352, Control_c, 7, 11, 51
9, 667402, Control_c, 7, 11, 52
9, 667462, Control_c, 7, 11, 53
9, 667522, Control_c, 7, 11, 55
9, 667582, Control_c, 7, 11, 56
9, 667632, Control_c, 7, 11, 57
9, 667692, Control_c, 7, 11, 59
9, 667752, Control_c, 7, 11, 60
9, 667812, Control_c, 7, 11, 62
9, 667862, Control_c, 7, 11, 63
9, 667922, Control_c, 7, 11, 64
9, 667982, Control_c, 7, 11, 66
9, 668042, Control_c, 7, 11, 67
9, 668092, Control_c, 7, 11, 68
9, 668152, Control_c, 7, 11, 70
9, 668212, Control_c, 7, 11, 71
9, 668272, Control_c, 7, 11, 73
9, 668322, Control_c, 7, 11, 74
9, 668382, Control_c, 7, 11, 75
9, 668442, Control_c, 7, 11, 77
9, 668502, Control_c, 7, 11, 78
9, 668552, Control_c, 7, 11, 79
9, 668612, Control_c, 7, 11, 81
9, 668672, Control_c, 7, 11, 82
9, 668732, Control_c, 7, 11, 83
9, 668782, Control_c, 7, 11, 85
9, 668842, Control_c, 7, 11, 86
9, 668902, Control_c, 7, 11, 87
9, 668962, Control_c, 7, 11, 89
9, 669012, Control_c, 7, 11, 90
9, 669072, Control_c, 7, 11, 92
9, 669132, Control_c, 7, 11, 93
9, 669192, Control_c, 7, 11, 94
9, 669242, Control_c, 7, 11, 96
9, 669302, Control_c, 7, 11, 97
9, 669362, Control_c, 7, 11, 98
9, 669422, Control_c, 7, 11, 100
9, 669472, Control_c, 7, 11, 101
9, 669532, Control_c, 7, 11, 102
9, 669592, Control_c, 7, 11, 104
9, 669652, Control_c, 7, 11, 105
9, 669702, Control_c, 7, 11, 106
9, 669762, Control_c, 7, 11, 108
9, 669822, Control_c, 7, 11, 109
9, 669882, Control_c, 7, 11, 111
9, 669932, Control_c, 7, 11, 112
9, 669992, Control_c, 7, 11, 113
9, 670052, Control_c, 7, 11, 115
9, 670112, Control_c, 7, 11, 116
9, 670162, Control_c, 7, 11, 117
9, 670222, Control_c, 7, 11, 119
9, 670282, Control_c, 7, 11, 120
9, 670342, Control_c, 7, 11, 122
9, 670392, Control_c, 7, 11, 123
9, 670452, Control_c, 7, 11, 124
9, 670462, Note_on_c, 7, 65, 0
9, 670512, Control_c, 7, 11, 126
9, 670542, Control_c, 7, 11, 127
9, 670552, Note_on_c, 7, 66, 127
9, 671027, Control_c, 7, 11, 40
9, 671032, Note_on_c, 7, 65, 127
9, 671062, Note_on_c, 7, 66, 0
9, 671102, Control_c, 7, 11, 41
9, 671162, Control_c, 7, 11, 42
9, 671222, Control_c, 7, 11, 43
9, 671282, Control_c, 7, 11, 44
9, 671342, Control_c, 7, 11, 45
9, 671402, Control_c, 7, 11, 46
9, 671462, Control_c, 7, 11, 47
9, 671522, Control_c, 7, 11, 48
9, 671582, Control_c, 7, 11, 49
9, 671642, Control_c, 7, 11, 50
9, 671702, Control_c, 7, 11, 51
9, 671762, Control_c, 7, 11, 52
9, 671822, Control_c, 7, 11, 53
9, 671882, Control_c, 7, 11, 54
9, 671952, Control_c, 7, 11, 55
9, 672012, Control_c, 7, 11, 56
9, 672072, Control_c, 7, 11, 57
9, 672132, Control_c, 7, 11, 58
9, 672192, Control_c, 7, 11, 59
9, 672252, Control_c, 7, 11, 60
9, 672312, Control_c, 7, 11, 61
9, 672372, Control_c, 7, 11, 62
9, 672432, Control_c, 7, 11, 63
9, 672492, Control_c, 7, 11, 64
9, 672552, Control_c, 7, 11, 65
9, 672612, Control_c, 7, 11, 66
9, 672672, Control_c, 7, 11, 67
9, 672732, Control_c, 7, 11, 68
9, 672792, Control_c, 7, 11, 69
9, 672862, Control_c, 7, 11, 70
9, 672922, Control_c, 7, 11, 71
9, 672982, Control_c, 7, 11, 72
9, 673042, Control_c, 7, 11, 73
9, 673102, Control_c, 7, 11, 74
9, 673162, Control_c, 7, 11, 75
9, 673222, Control_c, 7, 11, 76
9, 673282, Control_c, 7, 11, 77
9, 673342, Control_c, 7, 11, 78
9, 673402, Control_c, 7, 11, 79
9, 673462, Control_c, 7, 11, 80
9, 673522, Control_c, 7, 11, 81
9, 673582, Control_c, 7, 11, 82
9, 673642, Control_c, 7, 11, 83
9, 673712, Control_c, 7, 11, 84
9, 673772, Control_c, 7, 11, 85
9, 673832, Control_c, 7, 11, 86
9, 673892, Control_c, 7, 11, 87
9, 673952, Control_c, 7, 11, 88
9, 674012, Control_c, 7, 11, 89
9, 674072, Control_c, 7, 11, 90
9, 674132, Control_c, 7, 11, 91
9, 674192, Control_c, 7, 11, 92
9, 674252, Control_c, 7, 11, 93
9, 674312, Control_c, 7, 11, 94
9, 674372, Control_c, 7, 11, 95
9, 674432, Control_c, 7, 11, 96
9, 674492, Control_c, 7, 11, 97
9, 674552, Control_c, 7, 11, 98
9, 674622, Control_c, 7, 11, 99
9, 674682, Control_c, 7, 11, 100
9, 674742, Control_c, 7, 11, 101
9, 674802, Control_c, 7, 11, 102
9, 674862, Control_c, 7, 11, 103
9, 674922, Control_c, 7, 11, 104
9, 674982, Control_c, 7, 11, 105
9, 675042, Control_c, 7, 11, 106
9, 675102, Control_c, 7, 11, 107
9, 675162, Control_c, 7, 11, 108
9, 675222, Control_c, 7, 11, 109
9, 675282, Control_c, 7, 11, 110
9, 675342, Control_c, 7, 11, 111
9, 675402, Control_c, 7, 11, 112
9, 675472, Control_c, 7, 11, 113
9, 675532, Control_c, 7, 11, 114
9, 675592, Control_c, 7, 11, 115
9, 675652, Control_c, 7, 11, 116
9, 675712, Control_c, 7, 11, 117
9, 675772, Control_c, 7, 11, 118
9, 675832, Control_c, 7, 11, 119
9, 675892, Control_c, 7, 11, 120
9, 675952, Control_c, 7, 11, 121
9, 676012, Control_c, 7, 11, 122
9, 676072, Control_c, 7, 11, 123
9, 676132, Control_c, 7, 11, 124
9, 676192, Control_c, 7, 11, 125
9, 676222, Note_on_c, 7, 65, 0
9, 676252, Control_c, 7, 11, 126
9, 676282, Control_c, 7, 11, 127
9, 676312, Note_on_c, 7, 66, 127
9, 676792, Note_on_c, 7, 65, 110
9, 676822, Note_on_c, 7, 66, 0
9, 677002, Note_on_c, 7, 65, 0
9, 677272, Note_on_c, 7, 69, 112
9, 677272, Note_on_c, 7, 81, 112
9, 678142, Note_on_c, 7, 69, 0
9, 678142, Note_on_c, 7, 81, 0
9, 678232, Note_on_c, 7, 70, 118
9, 678232, Note_on_c, 7, 82, 118
9, 679102, Note_on_c, 7, 70, 0
9, 679102, Note_on_c, 7, 82, 0
9, 679192, Note_on_c, 7, 79, 124
9, 679402, Note_on_c, 7, 79, 0
9, 679672, Note_on_c, 7, 77, 127
9, 680782, Note_on_c, 7, 77, 0
9, 681112, Note_on_c, 7, 72, 127
9, 681112, Note_on_c, 7, 81, 127
9, 682222, Note_on_c, 7, 72, 0
9, 682222, Note_on_c, 7, 81, 0
9, 682552, Note_on_c, 7, 74, 127
9, 682552, Note_on_c, 7, 82, 127
9, 683027, Note_on_c, 7, 74, 0
9, 683027, Note_on_c, 7, 82, 0
9, 683032, Note_on_c, 7, 74, 127
9, 683032, Note_on_c, 7, 82, 127
9, 683507, Note_on_c, 7, 74, 0
9, 683507, Note_on_c, 7, 82, 0
9, 683512, Note_on_c, 7, 74, 127
9, 683512, Note_on_c, 7, 82, 127
9, 683987, Note_on_c, 7, 74, 0
9, 683987, Note_on_c, 7, 82, 0
9, 683992, Note_on_c, 7, 74, 127
9, 683992, Note_on_c, 7, 82, 127
9, 684467, Note_on_c, 7, 74, 0
9, 684467, Note_on_c, 7, 82, 0
9, 684472, Note_on_c, 7, 74, 127
9, 684472, Note_on_c, 7, 82, 127
9, 684947, Note_on_c, 7, 74, 0
9, 684947, Note_on_c, 7, 82, 0
9, 684952, Note_on_c, 7, 74, 127
9, 684952, Note_on_c, 7, 82, 127
9, 685427, Note_on_c, 7, 74, 0
9, 685427, Note_on_c, 7, 82, 0
9, 685432, Note_on_c, 7, 81, 127
9, 685912, Note_on_c, 7, 77, 127
9, 685942, Note_on_c, 7, 81, 0
9, 686122, Note_on_c, 7, 77, 0
9, 686392, Note_on_c, 7, 84, 127
9, 686872, Note_on_c, 7, 81, 127
9, 686902, Note_on_c, 7, 84, 0
9, 687082, Note_on_c, 7, 81, 0
9, 687352, Note_on_c, 7, 87, 127
9, 687832, Note_on_c, 7, 84, 127
9, 687862, Note_on_c, 7, 87, 0
9, 688042, Note_on_c, 7, 84, 0
9, 688312, Note_on_c, 7, 74, 127
9, 688312, Note_on_c, 7, 82, 127
9, 688787, Note_on_c, 7, 74, 0
9, 688787, Note_on_c, 7, 82, 0
9, 688792, Note_on_c, 7, 74, 127
9, 688792, Note_on_c, 7, 82, 127
9, 689267, Note_on_c, 7, 74, 0
9, 689267, Note_on_c, 7, 82, 0
9, 689272, Note_on_c, 7, 74, 127
9, 689272, Note_on_c, 7, 82, 127
9, 689747, Note_on_c, 7, 74, 0
9, 689747, Note_on_c, 7, 82, 0
9, 689752, Note_on_c, 7, 74, 127
9, 689752, Note_on_c, 7, 82, 127
9, 690227, Note_on_c, 7, 74, 0
9, 690227, Note_on_c, 7, 82, 0
9, 690232, Note_on_c, 7, 74, 127
9, 690232, Note_on_c, 7, 82, 127
9, 690707, Note_on_c, 7, 74, 0
9, 690707, Note_on_c, 7, 82, 0
9, 690712, Note_on_c, 7, 74, 127
9, 690712, Note_on_c, 7, 82, 127
9, 691187, Note_on_c, 7, 74, 0
9, 691187, Note_on_c, 7, 82, 0
9, 691192, Note_on_c, 7, 81, 127
9, 691672, Note_on_c, 7, 77, 127
9, 691702, Note_on_c, 7, 81, 0
9, 691882, Note_on_c, 7, 77, 0
9, 692152, Note_on_c, 7, 84, 127
9, 692632, Note_on_c, 7, 81, 127
9, 692662, Note_on_c, 7, 84, 0
9, 692842, Note_on_c, 7, 81, 0
9, 693112, Note_on_c, 7, 87, 127
9, 693592, Note_on_c, 7, 84, 127
9, 693622, Note_on_c, 7, 87, 0
9, 693802, Note_on_c, 7, 84, 0
9, 694072, Note_on_c, 7, 74, 127
9, 694072, Note_on_c, 7, 82, 127
9, 695122, Note_on_c, 7, 74, 0
9, 695122, Note_on_c, 7, 82, 0
9, 695512, Note_on_c, 7, 74, 127
9, 695512, Note_on_c, 7, 86, 127
9, 696562, Note_on_c, 7, 74, 0
9, 696562, Note_on_c, 7, 86, 0
9, 696952, Note_on_c, 7, 89, 127
9, 697162, Note_on_c, 7, 89, 0
9, 697432, Note_on_c, 7, 89, 127
9, 697642, Note_on_c, 7, 89, 0
9, 697912, Note_on_c, 7, 89, 127
9, 698092, Note_on_c, 7, 89, 0
9, 698392, Note_on_c, 7, 82, 127
9, 698992, Note_on_c, 7, 82, 0
9, 702712, Note_on_c, 7, 62, 127
9, 702712, Note_on_c, 7, 70, 127
9, 702712, Note_on_c, 7, 82, 127
9, 703162, Note_on_c, 7, 62, 0
9, 703162, Note_on_c, 7, 70, 0
9, 703162, Note_on_c, 7, 82, 0
9, 703162, End_track
10, 0, Start_track
10, 0, Channel_prefix, 8
10, 0, Title_t, "Violin II"
10, 0, Instrument_name_t, "Violino II"
10, 2877, Note_on_c, 8, 62, 127
10, 3087, Note_on_c, 8, 62, 0
10, 3357, Note_on_c, 8, 58, 127
10, 3357, Note_on_c, 8, 62, 127
10, 4047, Note_on_c, 8, 58, 0
10, 4047, Note_on_c, 8, 62, 0
10, 4317, Note_on_c, 8, 58, 127
10, 4317, Note_on_c, 8, 62, 127
10, 4947, Note_on_c, 8, 58, 0
10, 4947, Note_on_c, 8, 62, 0
10, 5277, Note_on_c, 8, 58, 127
10, 5277, Note_on_c, 8, 62, 127
10, 5427, Note_on_c, 8, 58, 0
10, 5427, Note_on_c, 8, 62, 0
10, 5757, Note_on_c, 8, 60, 127
10, 5757, Note_on_c, 8, 63, 127
10, 6447, Note_on_c, 8, 60, 0
10, 6447, Note_on_c, 8, 63, 0
10, 6717, Note_on_c, 8, 60, 127
10, 6717, Note_on_c, 8, 63, 127
10, 6867, Note_on_c, 8, 60, 0
10, 6867, Note_on_c, 8, 63, 0
10, 7197, Note_on_c, 8, 60, 127
10, 7197, Note_on_c, 8, 63, 127
10, 7797, Note_on_c, 8, 60, 0
10, 7797, Note_on_c, 8, 63, 0
10, 8637, Control_c, 8, 11, 80
10, 11037, Note_on_c, 8, 66, 60
10, 11517, Note_on_c, 8, 63, 60
10, 11547, Note_on_c, 8, 66, 0
10, 12027, Note_on_c, 8, 63, 0
10, 16797, Note_on_c, 8, 61, 60
10, 17277, Note_on_c, 8, 58, 60
10, 17307, Note_on_c, 8, 61, 0
10, 17787, Note_on_c, 8, 58, 0
10, 19677, Note_on_c, 8, 60, 60
10, 20127, Note_on_c, 8, 60, 0
10, 20157, Note_on_c, 8, 60, 60
10, 20157, Control_c, 8, 11, 80
10, 20287, Control_c, 8, 11, 81
10, 20367, Note_on_c, 8, 60, 0
10, 20407, Control_c, 8, 11, 82
10, 20527, Control_c, 8, 11, 83
10, 20637, Note_on_c, 8, 60, 65
10, 20657, Control_c, 8, 11, 84
10, 20777, Control_c, 8, 11, 85
10, 20897, Control_c, 8, 11, 86
10, 21017, Control_c, 8, 11, 87
10, 21147, Control_c, 8, 11, 88
10, 21267, Control_c, 8, 11, 89
10, 21387, Control_c, 8, 11, 90
10, 21507, Control_c, 8, 11, 91
10, 21567, Note_on_c, 8, 60, 0
10, 21597, Note_on_c, 8, 60, 76
10, 21637, Control_c, 8, 11, 92
10, 21757, Control_c, 8, 11, 93
10, 21877, Control_c, 8, 11, 94
10, 21997, Control_c, 8, 11, 95
10, 22107, Note_on_c, 8, 60, 0
10, 22127, Control_c, 8, 11, 96
10, 22247, Control_c, 8, 11, 97
10, 22367, Control_c, 8, 11, 98
10, 22487, Control_c, 8, 11, 99
10, 22557, Note_on_c, 8, 65, 87
10, 22617, Control_c, 8, 11, 100
10, 22737, Control_c, 8, 11, 101
10, 22857, Control_c, 8, 11, 102
10, 22977, Control_c, 8, 11, 103
10, 23107, Control_c, 8, 11, 104
10, 23227, Control_c, 8, 11, 105
10, 23247, Note_on_c, 8, 65, 0
10, 23347, Control_c, 8, 11, 106
10, 23467, Control_c, 8, 11, 107
10, 23517, Note_on_c, 8, 65, 99
10, 23597, Control_c, 8, 11, 108
10, 23717, Control_c, 8, 11, 109
10, 23837, Control_c, 8, 11, 110
10, 23957, Control_c, 8, 11, 111
10, 24087, Control_c, 8, 11, 112
10, 24207, Note_on_c, 8, 65, 0
10, 24207, Control_c, 8, 11, 113
10, 24327, Control_c, 8, 11, 114
10, 24447, Control_c, 8, 11, 115
10, 24477, Note_on_c, 8, 65, 110
10, 24577, Control_c, 8, 11, 116
10, 24697, Control_c, 8, 11, 117
10, 24817, Control_c, 8, 11, 118
10, 24937, Control_c, 8, 11, 119
10, 24987, Note_on_c, 8, 65, 0
10, 25067, Control_c, 8, 11, 120
10, 25187, Control_c, 8, 11, 121
10, 25307, Control_c, 8, 11, 122
10, 25427, Control_c, 8, 11, 123
10, 25437, Note_on_c, 8, 67, 121
10, 25437, Note_on_c, 8, 70, 121
10, 25557, Control_c, 8, 11, 124
10, 25587, Note_on_c, 8, 67, 0
10, 25587, Note_on_c, 8, 70, 0
10, 25677, Control_c, 8, 11, 125
10, 25797, Control_c, 8, 11, 126
10, 25887, Control_c, 8, 11, 127
10, 25917, Note_on_c, 8, 65, 127
10, 27087, Note_on_c, 8, 65, 0
10, 27357, Note_on_c, 8, 65, 127
10, 28527, Note_on_c, 8, 65, 0
10, 28797, Note_on_c, 8, 65, 127
10, 29007, Note_on_c, 8, 65, 0
10, 29277, Note_on_c, 8, 65, 127
10, 29487, Note_on_c, 8, 65, 0
10, 29757, Note_on_c, 8, 65, 127
10, 29967, Note_on_c, 8, 65, 0
10, 30237, Note_on_c, 8, 65, 127
10, 30597, Note_on_c, 8, 65, 0
10, 31677, Note_on_c, 8, 62, 127
10, 31887, Note_on_c, 8, 62, 0
10, 32157, Note_on_c, 8, 58, 127
10, 32157, Note_on_c, 8, 62, 127
10, 32847, Note_on_c, 8, 58, 0
10, 32847, Note_on_c, 8, 62, 0
10, 33117, Note_on_c, 8, 58, 127
10, 33117, Note_on_c, 8, 62, 127
10, 33747, Note_on_c, 8, 58, 0
10, 33747, Note_on_c, 8, 62, 0
10, 34077, Note_on_c, 8, 58, 127
10, 34077, Note_on_c, 8, 62, 127
10, 34227, Note_on_c, 8, 58, 0
10, 34227, Note_on_c, 8, 62, 0
10, 34557, Note_on_c, 8, 60, 127
10, 34557, Note_on_c, 8, 63, 127
10, 35247, Note_on_c, 8, 60, 0
10, 35247, Note_on_c, 8, 63, 0
10, 35517, Note_on_c, 8, 60, 127
10, 35517, Note_on_c, 8, 63, 127
10, 35667, Note_on_c, 8, 60, 0
10, 35667, Note_on_c, 8, 63, 0
10, 35997, Note_on_c, 8, 60, 127
10, 35997, Note_on_c, 8, 63, 127
10, 36597, Note_on_c, 8, 60, 0
10, 36597, Note_on_c, 8, 63, 0
10, 37437, Control_c, 8, 11, 80
10, 39837, Note_on_c, 8, 66, 60
10, 40317, Note_on_c, 8, 63, 60
10, 40347, Note_on_c, 8, 66, 0
10, 40827, Note_on_c, 8, 63, 0
10, 45597, Note_on_c, 8, 61, 60
10, 46077, Note_on_c, 8, 58, 60
10, 46107, Note_on_c, 8, 61, 0
10, 46587, Note_on_c, 8, 58, 0
10, 48477, Note_on_c, 8, 60, 60
10, 48927, Note_on_c, 8, 60, 0
10, 48957, Note_on_c, 8, 60, 60
10, 48957, Control_c, 8, 11, 80
10, 49087, Control_c, 8, 11, 81
10, 49167, Note_on_c, 8, 60, 0
10, 49207, Control_c, 8, 11, 82
10, 49327, Control_c, 8, 11, 83
10, 49437, Note_on_c, 8, 60, 65
10, 49457, Control_c, 8, 11, 84
10, 49577, Control_c, 8, 11, 85
10, 49697, Control_c, 8, 11, 86
10, 49817, Control_c, 8, 11, 87
10, 49947, Control_c, 8, 11, 88
10, 50067, Control_c, 8, 11, 89
10, 50187, Control_c, 8, 11, 90
10, 50307, Control_c, 8, 11, 91
10, 50367, Note_on_c, 8, 60, 0
10, 50397, Note_on_c, 8, 60, 76
10, 50437, Control_c, 8, 11, 92
10, 50557, Control_c, 8, 11, 93
10, 50677, Control_c, 8, 11, 94
10, 50797, Control_c, 8, 11, 95
10, 50907, Note_on_c, 8, 60, 0
10, 50927, Control_c, 8, 11, 96
10, 51047, Control_c, 8, 11, 97
10, 51167, Control_c, 8, 11, 98
10, 51287, Control_c, 8, 11, 99
10, 51357, Note_on_c, 8, 65, 87
10, 51417, Control_c, 8, 11, 100
10, 51537, Control_c, 8, 11, 101
10, 51657, Control_c, 8, 11, 102
10, 51777, Control_c, 8, 11, 103
10, 51907, Control_c, 8, 11, 104
10, 52027, Control_c, 8, 11, 105
10, 52047, Note_on_c, 8, 65, 0
10, 52147, Control_c, 8, 11, 106
10, 52267, Control_c, 8, 11, 107
10, 52317, Note_on_c, 8, 65, 99
10, 52397, Control_c, 8, 11, 108
10, 52517, Control_c, 8, 11, 109
10, 52637, Control_c, 8, 11, 110
10, 52757, Control_c, 8, 11, 111
10, 52887, Control_c, 8, 11, 112
10, 53007, Note_on_c, 8, 65, 0
10, 53007, Control_c, 8, 11, 113
10, 53127, Control_c, 8, 11, 114
10, 53247, Control_c, 8, 11, 115
10, 53277, Note_on_c, 8, 65, 110
10, 53377, Control_c, 8, 11, 116
10, 53497, Control_c, 8, 11, 117
10, 53617, Control_c, 8, 11, 118
10, 53737, Control_c, 8, 11, 119
10, 53787, Note_on_c, 8, 65, 0
10, 53867, Control_c, 8, 11, 120
10, 53987, Control_c, 8, 11, 121
10, 54107, Control_c, 8, 11, 122
10, 54227, Control_c, 8, 11, 123
10, 54237, Note_on_c, 8, 67, 121
10, 54237, Note_on_c, 8, 70, 121
10, 54357, Control_c, 8, 11, 124
10, 54387, Note_on_c, 8, 67, 0
10, 54387, Note_on_c, 8, 70, 0
10, 54477, Control_c, 8, 11, 125
10, 54597, Control_c, 8, 11, 126
10, 54687, Control_c, 8, 11, 127
10, 54717, Note_on_c, 8, 65, 127
10, 55887, Note_on_c, 8, 65, 0
10, 56157, Note_on_c, 8, 65, 127
10, 57327, Note_on_c, 8, 65, 0
10, 57597, Note_on_c, 8, 65, 127
10, 57807, Note_on_c, 8, 65, 0
10, 58077, Note_on_c, 8, 65, 127
10, 58287, Note_on_c, 8, 65, 0
10, 58557, Note_on_c, 8, 65, 127
10, 58767, Note_on_c, 8, 65, 0
10, 59037, Note_on_c, 8, 65, 127
10, 59397, Note_on_c, 8, 65, 0
10, 59517, Control_c, 8, 11, 80
10, 60477, Note_on_c, 8, 65, 80
10, 60867, Note_on_c, 8, 65, 0
10, 60957, Note_on_c, 8, 65, 80
10, 61827, Note_on_c, 8, 65, 0
10, 61917, Note_on_c, 8, 65, 80
10, 62727, Note_on_c, 8, 65, 0
10, 62877, Note_on_c, 8, 65, 80
10, 63267, Note_on_c, 8, 65, 0
10, 63357, Note_on_c, 8, 66, 80
10, 64227, Note_on_c, 8, 66, 0
10, 64317, Note_on_c, 8, 66, 80
10, 64707, Note_on_c, 8, 66, 0
10, 64797, Note_on_c, 8, 66, 80
10, 65187, Note_on_c, 8, 66, 0
10, 65277, Note_on_c, 8, 68, 80
10, 65757, Note_on_c, 8, 66, 80
10, 65787, Note_on_c, 8, 68, 0
10, 65967, Note_on_c, 8, 66, 0
10, 66237, Note_on_c, 8, 63, 80
10, 66717, Note_on_c, 8, 60, 80
10, 66747, Note_on_c, 8, 63, 0
10, 66927, Note_on_c, 8, 60, 0
10, 68157, Note_on_c, 8, 56, 80
10, 68157, Note_on_c, 8, 66, 80
10, 68547, Note_on_c, 8, 56, 0
10, 68547, Note_on_c, 8, 66, 0
10, 68637, Note_on_c, 8, 56, 80
10, 68637, Note_on_c, 8, 66, 80
10, 69027, Note_on_c, 8, 56, 0
10, 69027, Note_on_c, 8, 66, 0
10, 69117, Note_on_c, 8, 56, 80
10, 69117, Note_on_c, 8, 65, 80
10, 69987, Note_on_c, 8, 56, 0
10, 69987, Note_on_c, 8, 65, 0
10, 70077, Note_on_c, 8, 68, 80
10, 70467, Note_on_c, 8, 68, 0
10, 70557, Note_on_c, 8, 68, 80
10, 70947, Note_on_c, 8, 68, 0
10, 71037, Note_on_c, 8, 70, 80
10, 71517, Note_on_c, 8, 68, 80
10, 71547, Note_on_c, 8, 70, 0
10, 71727, Note_on_c, 8, 68, 0
10, 71997, Note_on_c, 8, 65, 80
10, 72477, Note_on_c, 8, 61, 80
10, 72507, Note_on_c, 8, 65, 0
10, 72687, Note_on_c, 8, 61, 0
10, 73917, Note_on_c, 8, 56, 80
10, 73917, Note_on_c, 8, 65, 80
10, 74127, Note_on_c, 8, 56, 0
10, 74127, Note_on_c, 8, 65, 0
10, 74397, Note_on_c, 8, 56, 80
10, 74397, Note_on_c, 8, 65, 80
10, 74607, Note_on_c, 8, 56, 0
10, 74607, Note_on_c, 8, 65, 0
10, 74877, Note_on_c, 8, 68, 80
10, 75567, Note_on_c, 8, 68, 0
10, 75837, Note_on_c, 8, 68, 80
10, 76047, Note_on_c, 8, 68, 0
10, 76317, Note_on_c, 8, 68, 80
10, 76527, Note_on_c, 8, 68, 0
10, 76797, Note_on_c, 8, 70, 80
10, 77277, Note_on_c, 8, 68, 80
10, 77307, Note_on_c, 8, 70, 0
10, 77487, Note_on_c, 8, 68, 0
10, 77757, Note_on_c, 8, 65, 80
10, 78237, Note_on_c, 8, 62, 80
10, 78267, Note_on_c, 8, 65, 0
10, 78447, Note_on_c, 8, 62, 0
10, 83997, Note_on_c, 8, 72, 80
10, 84477, Note_on_c, 8, 77, 80
10, 84507, Note_on_c, 8, 72, 0
10, 84687, Note_on_c, 8, 77, 0
10, 84957, Note_on_c, 8, 72, 80
10, 85437, Note_on_c, 8, 77, 80
10, 85467, Note_on_c, 8, 72, 0
10, 85647, Note_on_c, 8, 77, 0
10, 85917, Note_on_c, 8, 72, 80
10, 86397, Note_on_c, 8, 73, 80
10, 86427, Note_on_c, 8, 72, 0
10, 86607, Note_on_c, 8, 73, 0
10, 89757, Note_on_c, 8, 67, 80
10, 90237, Note_on_c, 8, 72, 80
10, 90267, Note_on_c, 8, 67, 0
10, 90447, Note_on_c, 8, 72, 0
10, 90717, Note_on_c, 8, 67, 80
10, 91197, Note_on_c, 8, 72, 80
10, 91227, Note_on_c, 8, 67, 0
10, 91407, Note_on_c, 8, 72, 0
10, 91677, Note_on_c, 8, 67, 80
10, 92157, Note_on_c, 8, 68, 80
10, 92187, Note_on_c, 8, 67, 0
10, 92367, Note_on_c, 8, 68, 0
10, 94077, Note_on_c, 8, 62, 80
10, 94557, Note_on_c, 8, 67, 80
10, 94587, Note_on_c, 8, 62, 0
10, 94767, Note_on_c, 8, 67, 0
10, 95037, Note_on_c, 8, 63, 80
10, 95247, Note_on_c, 8, 63, 0
10, 96957, Note_on_c, 8, 69, 80
10, 97437, Note_on_c, 8, 74, 80
10, 97467, Note_on_c, 8, 69, 0
10, 97647, Note_on_c, 8, 74, 0
10, 97917, Note_on_c, 8, 70, 80
10, 98127, Note_on_c, 8, 70, 0
10, 99837, Note_on_c, 8, 64, 80
10, 100317, Note_on_c, 8, 69, 80
10, 100347, Note_on_c, 8, 64, 0
10, 100527, Note_on_c, 8, 69, 0
10, 100797, Note_on_c, 8, 65, 80
10, 100797, Control_c, 8, 11, 80
10, 100927, Control_c, 8, 11, 81
10, 101007, Note_on_c, 8, 65, 0
10, 101047, Control_c, 8, 11, 82
10, 101167, Control_c, 8, 11, 83
10, 101277, Note_on_c, 8, 62, 84
10, 101297, Control_c, 8, 11, 84
10, 101417, Control_c, 8, 11, 85
10, 101537, Control_c, 8, 11, 86
10, 101657, Control_c, 8, 11, 87
10, 101757, Note_on_c, 8, 65, 89
10, 101787, Note_on_c, 8, 62, 0
10, 101787, Control_c, 8, 11, 88
10, 101907, Control_c, 8, 11, 89
10, 101967, Note_on_c, 8, 65, 0
10, 102027, Control_c, 8, 11, 90
10, 102147, Control_c, 8, 11, 91
10, 102237, Note_on_c, 8, 60, 94
10, 102277, Control_c, 8, 11, 92
10, 102397, Control_c, 8, 11, 93
10, 102517, Control_c, 8, 11, 94
10, 102637, Control_c, 8, 11, 95
10, 102717, Note_on_c, 8, 63, 99
10, 102747, Note_on_c, 8, 60, 0
10, 102767, Control_c, 8, 11, 96
10, 102887, Control_c, 8, 11, 97
10, 102927, Note_on_c, 8, 63, 0
10, 103007, Control_c, 8, 11, 98
10, 103127, Control_c, 8, 11, 99
10, 103197, Note_on_c, 8, 63, 103
10, 103257, Control_c, 8, 11, 100
10, 103377, Control_c, 8, 11, 101
10, 103497, Control_c, 8, 11, 102
10, 103617, Control_c, 8, 11, 103
10, 103677, Note_on_c, 8, 69, 108
10, 103707, Note_on_c, 8, 63, 0
10, 103747, Control_c, 8, 11, 104
10, 103867, Control_c, 8, 11, 105
10, 103887, Note_on_c, 8, 69, 0
10, 103987, Control_c, 8, 11, 106
10, 104107, Control_c, 8, 11, 107
10, 104157, Note_on_c, 8, 69, 113
10, 104237, Control_c, 8, 11, 108
10, 104357, Control_c, 8, 11, 109
10, 104477, Control_c, 8, 11, 110
10, 104597, Control_c, 8, 11, 111
10, 104637, Note_on_c, 8, 72, 118
10, 104667, Note_on_c, 8, 69, 0
10, 104727, Control_c, 8, 11, 112
10, 104847, Note_on_c, 8, 72, 0
10, 104847, Control_c, 8, 11, 113
10, 104967, Control_c, 8, 11, 114
10, 105087, Control_c, 8, 11, 115
10, 105117, Note_on_c, 8, 72, 122
10, 105217, Control_c, 8, 11, 116
10, 105337, Control_c, 8, 11, 117
10, 105457, Control_c, 8, 11, 118
10, 105577, Control_c, 8, 11, 119
10, 105597, Note_on_c, 8, 75, 127
10, 105627, Note_on_c, 8, 72, 0
10, 105707, Control_c, 8, 11, 120
10, 105807, Note_on_c, 8, 75, 0
10, 105827, Control_c, 8, 11, 121
10, 105947, Control_c, 8, 11, 122
10, 106067, Control_c, 8, 11, 123
10, 106077, Note_on_c, 8, 75, 127
10, 106197, Control_c, 8, 11, 124
10, 106317, Control_c, 8, 11, 125
10, 106437, Control_c, 8, 11, 126
10, 106497, Control_c, 8, 11, 127
10, 106557, Note_on_c, 8, 74, 127
10, 106587, Note_on_c, 8, 75, 0
10, 106767, Note_on_c, 8, 74, 0
10, 107037, Note_on_c, 8, 65, 127
10, 107037, Note_on_c, 8, 74, 127
10, 107727, Note_on_c, 8, 65, 0
10, 107727, Note_on_c, 8, 74, 0
10, 107997, Note_on_c, 8, 65, 127
10, 107997, Note_on_c, 8, 74, 127
10, 108687, Note_on_c, 8, 65, 0
10, 108687, Note_on_c, 8, 74, 0
10, 108957, Note_on_c, 8, 65, 127
10, 108957, Note_on_c, 8, 74, 127
10, 109107, Note_on_c, 8, 65, 0
10, 109107, Note_on_c, 8, 74, 0
10, 109437, Note_on_c, 8, 65, 127
10, 109437, Note_on_c, 8, 75, 127
10, 110127, Note_on_c, 8, 65, 0
10, 110127, Note_on_c, 8, 75, 0
10, 110397, Note_on_c, 8, 65, 127
10, 110397, Note_on_c, 8, 75, 127
10, 110547, Note_on_c, 8, 65, 0
10, 110547, Note_on_c, 8, 75, 0
10, 110877, Note_on_c, 8, 65, 127
10, 110877, Note_on_c, 8, 75, 127
10, 111477, Note_on_c, 8, 65, 0
10, 111477, Note_on_c, 8, 75, 0
10, 113757, Control_c, 8, 11, 80
10, 114717, Note_on_c, 8, 66, 70
10, 115197, Note_on_c, 8, 63, 70
10, 115227, Note_on_c, 8, 66, 0
10, 115677, Note_on_c, 8, 60, 70
10, 115707, Note_on_c, 8, 63, 0
10, 116187, Note_on_c, 8, 60, 0
10, 120477, Note_on_c, 8, 68, 70
10, 120957, Note_on_c, 8, 65, 70
10, 120987, Note_on_c, 8, 68, 0
10, 121437, Note_on_c, 8, 62, 70
10, 121467, Note_on_c, 8, 65, 0
10, 121947, Note_on_c, 8, 62, 0
10, 126232, Control_c, 8, 11, 40
10, 128387, Control_c, 8, 11, 41
10, 128447, Control_c, 8, 11, 43
10, 128507, Control_c, 8, 11, 44
10, 128567, Control_c, 8, 11, 45
10, 128617, Control_c, 8, 11, 47
10, 128677, Control_c, 8, 11, 48
10, 128737, Control_c, 8, 11, 49
10, 128797, Control_c, 8, 11, 51
10, 128847, Control_c, 8, 11, 52
10, 128907, Control_c, 8, 11, 53
10, 128967, Control_c, 8, 11, 55
10, 129027, Control_c, 8, 11, 56
10, 129077, Control_c, 8, 11, 57
10, 129137, Control_c, 8, 11, 59
10, 129197, Control_c, 8, 11, 60
10, 129257, Control_c, 8, 11, 62
10, 129307, Control_c, 8, 11, 63
10, 129367, Control_c, 8, 11, 64
10, 129427, Control_c, 8, 11, 66
10, 129487, Control_c, 8, 11, 67
10, 129537, Control_c, 8, 11, 68
10, 129597, Control_c, 8, 11, 70
10, 129657, Control_c, 8, 11, 71
10, 129717, Control_c, 8, 11, 73
10, 129767, Control_c, 8, 11, 74
10, 129827, Control_c, 8, 11, 75
10, 129887, Control_c, 8, 11, 77
10, 129947, Control_c, 8, 11, 78
10, 129997, Control_c, 8, 11, 79
10, 130057, Control_c, 8, 11, 81
10, 130117, Control_c, 8, 11, 82
10, 130177, Control_c, 8, 11, 83
10, 130227, Control_c, 8, 11, 85
10, 130287, Control_c, 8, 11, 86
10, 130347, Control_c, 8, 11, 87
10, 130407, Control_c, 8, 11, 89
10, 130457, Control_c, 8, 11, 90
10, 130517, Control_c, 8, 11, 92
10, 130577, Control_c, 8, 11, 93
10, 130637, Control_c, 8, 11, 94
10, 130687, Control_c, 8, 11, 96
10, 130747, Control_c, 8, 11, 97
10, 130807, Control_c, 8, 11, 98
10, 130867, Control_c, 8, 11, 100
10, 130917, Control_c, 8, 11, 101
10, 130977, Control_c, 8, 11, 102
10, 131037, Control_c, 8, 11, 104
10, 131097, Control_c, 8, 11, 105
10, 131147, Control_c, 8, 11, 106
10, 131207, Control_c, 8, 11, 108
10, 131267, Control_c, 8, 11, 109
10, 131327, Control_c, 8, 11, 111
10, 131377, Control_c, 8, 11, 112
10, 131437, Control_c, 8, 11, 113
10, 131497, Control_c, 8, 11, 115
10, 131557, Control_c, 8, 11, 116
10, 131607, Control_c, 8, 11, 117
10, 131667, Control_c, 8, 11, 119
10, 131727, Control_c, 8, 11, 120
10, 131787, Control_c, 8, 11, 122
10, 131837, Control_c, 8, 11, 123
10, 131897, Control_c, 8, 11, 124
10, 131957, Control_c, 8, 11, 126
10, 131987, Control_c, 8, 11, 127
10, 131997, Note_on_c, 8, 60, 110
10, 131997, Note_on_c, 8, 63, 110
10, 132472, Control_c, 8, 11, 40
10, 132507, Note_on_c, 8, 60, 0
10, 132507, Note_on_c, 8, 63, 0
10, 132547, Control_c, 8, 11, 41
10, 132607, Control_c, 8, 11, 42
10, 132667, Control_c, 8, 11, 43
10, 132727, Control_c, 8, 11, 44
10, 132787, Control_c, 8, 11, 45
10, 132847, Control_c, 8, 11, 46
10, 132907, Control_c, 8, 11, 47
10, 132967, Control_c, 8, 11, 48
10, 133027, Control_c, 8, 11, 49
10, 133087, Control_c, 8, 11, 50
10, 133147, Control_c, 8, 11, 51
10, 133207, Control_c, 8, 11, 52
10, 133267, Control_c, 8, 11, 53
10, 133327, Control_c, 8, 11, 54
10, 133397, Control_c, 8, 11, 55
10, 133457, Control_c, 8, 11, 56
10, 133517, Control_c, 8, 11, 57
10, 133577, Control_c, 8, 11, 58
10, 133637, Control_c, 8, 11, 59
10, 133697, Control_c, 8, 11, 60
10, 133757, Control_c, 8, 11, 61
10, 133817, Control_c, 8, 11, 62
10, 133877, Control_c, 8, 11, 63
10, 133937, Control_c, 8, 11, 64
10, 133997, Control_c, 8, 11, 65
10, 134057, Control_c, 8, 11, 66
10, 134117, Control_c, 8, 11, 67
10, 134177, Control_c, 8, 11, 68
10, 134237, Control_c, 8, 11, 69
10, 134307, Control_c, 8, 11, 70
10, 134367, Control_c, 8, 11, 71
10, 134427, Control_c, 8, 11, 72
10, 134487, Control_c, 8, 11, 73
10, 134547, Control_c, 8, 11, 74
10, 134607, Control_c, 8, 11, 75
10, 134667, Control_c, 8, 11, 76
10, 134727, Control_c, 8, 11, 77
10, 134787, Control_c, 8, 11, 78
10, 134847, Control_c, 8, 11, 79
10, 134907, Control_c, 8, 11, 80
10, 134967, Control_c, 8, 11, 81
10, 135027, Control_c, 8, 11, 82
10, 135087, Control_c, 8, 11, 83
10, 135157, Control_c, 8, 11, 84
10, 135217, Control_c, 8, 11, 85
10, 135277, Control_c, 8, 11, 86
10, 135337, Control_c, 8, 11, 87
10, 135397, Control_c, 8, 11, 88
10, 135457, Control_c, 8, 11, 89
10, 135517, Control_c, 8, 11, 90
10, 135577, Control_c, 8, 11, 91
10, 135637, Control_c, 8, 11, 92
10, 135697, Control_c, 8, 11, 93
10, 135757, Control_c, 8, 11, 94
10, 135817, Control_c, 8, 11, 95
10, 135877, Control_c, 8, 11, 96
10, 135937, Control_c, 8, 11, 97
10, 135997, Control_c, 8, 11, 98
10, 136067, Control_c, 8, 11, 99
10, 136127, Control_c, 8, 11, 100
10, 136187, Control_c, 8, 11, 101
10, 136247, Control_c, 8, 11, 102
10, 136307, Control_c, 8, 11, 103
10, 136367, Control_c, 8, 11, 104
10, 136427, Control_c, 8, 11, 105
10, 136487, Control_c, 8, 11, 106
10, 136547, Control_c, 8, 11, 107
10, 136607, Control_c, 8, 11, 108
10, 136667, Control_c, 8, 11, 109
10, 136727, Control_c, 8, 11, 110
10, 136787, Control_c, 8, 11, 111
10, 136847, Control_c, 8, 11, 112
10, 136917, Control_c, 8, 11, 113
10, 136977, Control_c, 8, 11, 114
10, 137037, Control_c, 8, 11, 115
10, 137097, Control_c, 8, 11, 116
10, 137157, Control_c, 8, 11, 117
10, 137217, Control_c, 8, 11, 118
10, 137277, Control_c, 8, 11, 119
10, 137337, Control_c, 8, 11, 120
10, 137397, Control_c, 8, 11, 121
10, 137457, Control_c, 8, 11, 122
10, 137517, Control_c, 8, 11, 123
10, 137577, Control_c, 8, 11, 124
10, 137637, Control_c, 8, 11, 125
10, 137697, Control_c, 8, 11, 126
10, 137727, Control_c, 8, 11, 127
10, 137757, Note_on_c, 8, 60, 110
10, 137757, Note_on_c, 8, 63, 110
10, 138627, Note_on_c, 8, 60, 0
10, 138627, Note_on_c, 8, 63, 0
10, 138717, Note_on_c, 8, 75, 110
10, 139587, Note_on_c, 8, 75, 0
10, 139677, Note_on_c, 8, 74, 116
10, 140547, Note_on_c, 8, 74, 0
10, 140637, Note_on_c, 8, 67, 123
10, 140637, Note_on_c, 8, 70, 123
10, 140847, Note_on_c, 8, 67, 0
10, 140847, Note_on_c, 8, 70, 0
10, 141117, Note_on_c, 8, 65, 127
10, 141117, Note_on_c, 8, 70, 127
10, 142227, Note_on_c, 8, 65, 0
10, 142227, Note_on_c, 8, 70, 0
10, 142557, Note_on_c, 8, 65, 127
10, 142557, Note_on_c, 8, 69, 127
10, 143667, Note_on_c, 8, 65, 0
10, 143667, Note_on_c, 8, 69, 0
10, 143997, Note_on_c, 8, 70, 127
10, 144472, Note_on_c, 8, 70, 0
10, 144477, Note_on_c, 8, 70, 127
10, 144952, Note_on_c, 8, 70, 0
10, 144957, Note_on_c, 8, 70, 127
10, 145432, Note_on_c, 8, 70, 0
10, 145437, Note_on_c, 8, 70, 127
10, 145912, Note_on_c, 8, 70, 0
10, 145917, Note_on_c, 8, 70, 127
10, 146392, Note_on_c, 8, 70, 0
10, 146397, Note_on_c, 8, 70, 127
10, 146872, Note_on_c, 8, 70, 0
10, 146877, Note_on_c, 8, 69, 127
10, 147352, Note_on_c, 8, 69, 0
10, 147357, Note_on_c, 8, 69, 127
10, 147832, Note_on_c, 8, 69, 0
10, 147837, Note_on_c, 8, 69, 127
10, 148312, Note_on_c, 8, 69, 0
10, 148317, Note_on_c, 8, 69, 127
10, 148792, Note_on_c, 8, 69, 0
10, 148797, Note_on_c, 8, 69, 127
10, 149272, Note_on_c, 8, 69, 0
10, 149277, Note_on_c, 8, 69, 127
10, 149752, Note_on_c, 8, 69, 0
10, 149757, Note_on_c, 8, 70, 127
10, 150232, Note_on_c, 8, 70, 0
10, 150237, Note_on_c, 8, 70, 127
10, 150712, Note_on_c, 8, 70, 0
10, 150717, Note_on_c, 8, 70, 127
10, 151192, Note_on_c, 8, 70, 0
10, 151197, Note_on_c, 8, 70, 127
10, 151672, Note_on_c, 8, 70, 0
10, 151677, Note_on_c, 8, 70, 127
10, 152152, Note_on_c, 8, 70, 0
10, 152157, Note_on_c, 8, 70, 127
10, 152632, Note_on_c, 8, 70, 0
10, 152637, Note_on_c, 8, 69, 127
10, 153112, Note_on_c, 8, 69, 0
10, 153117, Note_on_c, 8, 69, 127
10, 153592, Note_on_c, 8, 69, 0
10, 153597, Note_on_c, 8, 69, 127
10, 154072, Note_on_c, 8, 69, 0
10, 154077, Note_on_c, 8, 69, 127
10, 154552, Note_on_c, 8, 69, 0
10, 154557, Note_on_c, 8, 69, 127
10, 155032, Note_on_c, 8, 69, 0
10, 155037, Note_on_c, 8, 69, 127
10, 155512, Note_on_c, 8, 69, 0
10, 155517, Note_on_c, 8, 62, 127
10, 155517, Note_on_c, 8, 70, 127
10, 156567, Note_on_c, 8, 62, 0
10, 156567, Note_on_c, 8, 70, 0
10, 156957, Note_on_c, 8, 62, 127
10, 158007, Note_on_c, 8, 62, 0
10, 158397, Note_on_c, 8, 62, 127
10, 158397, Note_on_c, 8, 77, 127
10, 158607, Note_on_c, 8, 62, 0
10, 158607, Note_on_c, 8, 77, 0
10, 158877, Note_on_c, 8, 62, 127
10, 158877, Note_on_c, 8, 77, 127
10, 159087, Note_on_c, 8, 62, 0
10, 159087, Note_on_c, 8, 77, 0
10, 159357, Note_on_c, 8, 62, 127
10, 159357, Note_on_c, 8, 77, 127
10, 159537, Note_on_c, 8, 62, 0
10, 159537, Note_on_c, 8, 77, 0
10, 159837, Note_on_c, 8, 62, 127
10, 159837, Note_on_c, 8, 70, 127
10, 160317, Control_c, 8, 11, 80
10, 160437, Note_on_c, 8, 62, 0
10, 160437, Note_on_c, 8, 70, 0
10, 161277, Note_on_c, 8, 65, 80
10, 161667, Note_on_c, 8, 65, 0
10, 161757, Note_on_c, 8, 65, 80
10, 162627, Note_on_c, 8, 65, 0
10, 162717, Note_on_c, 8, 65, 80
10, 163527, Note_on_c, 8, 65, 0
10, 163677, Note_on_c, 8, 65, 80
10, 164067, Note_on_c, 8, 65, 0
10, 164157, Note_on_c, 8, 66, 80
10, 165027, Note_on_c, 8, 66, 0
10, 165117, Note_on_c, 8, 66, 80
10, 165507, Note_on_c, 8, 66, 0
10, 165597, Note_on_c, 8, 66, 80
10, 165987, Note_on_c, 8, 66, 0
10, 166077, Note_on_c, 8, 68, 80
10, 166557, Note_on_c, 8, 66, 80
10, 166587, Note_on_c, 8, 68, 0
10, 166767, Note_on_c, 8, 66, 0
10, 167037, Note_on_c, 8, 63, 80
10, 167517, Note_on_c, 8, 60, 80
10, 167547, Note_on_c, 8, 63, 0
10, 167727, Note_on_c, 8, 60, 0
10, 168957, Note_on_c, 8, 56, 80
10, 168957, Note_on_c, 8, 66, 80
10, 169347, Note_on_c, 8, 56, 0
10, 169347, Note_on_c, 8, 66, 0
10, 169437, Note_on_c, 8, 56, 80
10, 169437, Note_on_c, 8, 66, 80
10, 169827, Note_on_c, 8, 56, 0
10, 169827, Note_on_c, 8, 66, 0
10, 169917, Note_on_c, 8, 56, 80
10, 169917, Note_on_c, 8, 65, 80
10, 170787, Note_on_c, 8, 56, 0
10, 170787, Note_on_c, 8, 65, 0
10, 170877, Note_on_c, 8, 68, 80
10, 171267, Note_on_c, 8, 68, 0
10, 171357, Note_on_c, 8, 68, 80
10, 171747, Note_on_c, 8, 68, 0
10, 171837, Note_on_c, 8, 70, 80
10, 172317, Note_on_c, 8, 68, 80
10, 172347, Note_on_c, 8, 70, 0
10, 172527, Note_on_c, 8, 68, 0
10, 172797, Note_on_c, 8, 65, 80
10, 173277, Note_on_c, 8, 61, 80
10, 173307, Note_on_c, 8, 65, 0
10, 173487, Note_on_c, 8, 61, 0
10, 174717, Note_on_c, 8, 56, 80
10, 174717, Note_on_c, 8, 65, 80
10, 174927, Note_on_c, 8, 56, 0
10, 174927, Note_on_c, 8, 65, 0
10, 175197, Note_on_c, 8, 56, 80
10, 175197, Note_on_c, 8, 65, 80
10, 175407, Note_on_c, 8, 56, 0
10, 175407, Note_on_c, 8, 65, 0
10, 175677, Note_on_c, 8, 68, 80
10, 176367, Note_on_c, 8, 68, 0
10, 176637, Note_on_c, 8, 68, 80
10, 176847, Note_on_c, 8, 68, 0
10, 177117, Note_on_c, 8, 68, 80
10, 177327, Note_on_c, 8, 68, 0
10, 177597, Note_on_c, 8, 70, 80
10, 178077, Note_on_c, 8, 68, 80
10, 178107, Note_on_c, 8, 70, 0
10, 178287, Note_on_c, 8, 68, 0
10, 178557, Note_on_c, 8, 65, 80
10, 179037, Note_on_c, 8, 62, 80
10, 179067, Note_on_c, 8, 65, 0
10, 179247, Note_on_c, 8, 62, 0
10, 184797, Note_on_c, 8, 72, 80
10, 185277, Note_on_c, 8, 77, 80
10, 185307, Note_on_c, 8, 72, 0
10, 185487, Note_on_c, 8, 77, 0
10, 185757, Note_on_c, 8, 72, 80
10, 186237, Note_on_c, 8, 77, 80
10, 186267, Note_on_c, 8, 72, 0
10, 186447, Note_on_c, 8, 77, 0
10, 186717, Note_on_c, 8, 72, 80
10, 187197, Note_on_c, 8, 73, 80
10, 187227, Note_on_c, 8, 72, 0
10, 187407, Note_on_c, 8, 73, 0
10, 190557, Note_on_c, 8, 67, 80
10, 191037, Note_on_c, 8, 72, 80
10, 191067, Note_on_c, 8, 67, 0
10, 191247, Note_on_c, 8, 72, 0
10, 191517, Note_on_c, 8, 67, 80
10, 191997, Note_on_c, 8, 72, 80
10, 192027, Note_on_c, 8, 67, 0
10, 192207, Note_on_c, 8, 72, 0
10, 192477, Note_on_c, 8, 67, 80
10, 192957, Note_on_c, 8, 68, 80
10, 192987, Note_on_c, 8, 67, 0
10, 193167, Note_on_c, 8, 68, 0
10, 194877, Note_on_c, 8, 62, 80
10, 195357, Note_on_c, 8, 67, 80
10, 195387, Note_on_c, 8, 62, 0
10, 195567, Note_on_c, 8, 67, 0
10, 195837, Note_on_c, 8, 63, 80
10, 196047, Note_on_c, 8, 63, 0
10, 197757, Note_on_c, 8, 69, 80
10, 198237, Note_on_c, 8, 74, 80
10, 198267, Note_on_c, 8, 69, 0
10, 198447, Note_on_c, 8, 74, 0
10, 198717, Note_on_c, 8, 70, 80
10, 198927, Note_on_c, 8, 70, 0
10, 200637, Note_on_c, 8, 64, 80
10, 201117, Note_on_c, 8, 69, 80
10, 201147, Note_on_c, 8, 64, 0
10, 201327, Note_on_c, 8, 69, 0
10, 201597, Note_on_c, 8, 65, 80
10, 201597, Control_c, 8, 11, 80
10, 201727, Control_c, 8, 11, 81
10, 201807, Note_on_c, 8, 65, 0
10, 201847, Control_c, 8, 11, 82
10, 201967, Control_c, 8, 11, 83
10, 202077, Note_on_c, 8, 62, 84
10, 202097, Control_c, 8, 11, 84
10, 202217, Control_c, 8, 11, 85
10, 202337, Control_c, 8, 11, 86
10, 202457, Control_c, 8, 11, 87
10, 202557, Note_on_c, 8, 65, 89
10, 202587, Note_on_c, 8, 62, 0
10, 202587, Control_c, 8, 11, 88
10, 202707, Control_c, 8, 11, 89
10, 202767, Note_on_c, 8, 65, 0
10, 202827, Control_c, 8, 11, 90
10, 202947, Control_c, 8, 11, 91
10, 203037, Note_on_c, 8, 60, 94
10, 203077, Control_c, 8, 11, 92
10, 203197, Control_c, 8, 11, 93
10, 203317, Control_c, 8, 11, 94
10, 203437, Control_c, 8, 11, 95
10, 203517, Note_on_c, 8, 63, 99
10, 203547, Note_on_c, 8, 60, 0
10, 203567, Control_c, 8, 11, 96
10, 203687, Control_c, 8, 11, 97
10, 203727, Note_on_c, 8, 63, 0
10, 203807, Control_c, 8, 11, 98
10, 203927, Control_c, 8, 11, 99
10, 203997, Note_on_c, 8, 63, 103
10, 204057, Control_c, 8, 11, 100
10, 204177, Control_c, 8, 11, 101
10, 204297, Control_c, 8, 11, 102
10, 204417, Control_c, 8, 11, 103
10, 204477, Note_on_c, 8, 69, 108
10, 204507, Note_on_c, 8, 63, 0
10, 204547, Control_c, 8, 11, 104
10, 204667, Control_c, 8, 11, 105
10, 204687, Note_on_c, 8, 69, 0
10, 204787, Control_c, 8, 11, 106
10, 204907, Control_c, 8, 11, 107
10, 204957, Note_on_c, 8, 69, 113
10, 205037, Control_c, 8, 11, 108
10, 205157, Control_c, 8, 11, 109
10, 205277, Control_c, 8, 11, 110
10, 205397, Control_c, 8, 11, 111
10, 205437, Note_on_c, 8, 72, 118
10, 205467, Note_on_c, 8, 69, 0
10, 205527, Control_c, 8, 11, 112
10, 205647, Note_on_c, 8, 72, 0
10, 205647, Control_c, 8, 11, 113
10, 205767, Control_c, 8, 11, 114
10, 205887, Control_c, 8, 11, 115
10, 205917, Note_on_c, 8, 72, 122
10, 206017, Control_c, 8, 11, 116
10, 206137, Control_c, 8, 11, 117
10, 206257, Control_c, 8, 11, 118
10, 206377, Control_c, 8, 11, 119
10, 206397, Note_on_c, 8, 75, 127
10, 206427, Note_on_c, 8, 72, 0
10, 206507, Control_c, 8, 11, 120
10, 206607, Note_on_c, 8, 75, 0
10, 206627, Control_c, 8, 11, 121
10, 206747, Control_c, 8, 11, 122
10, 206867, Control_c, 8, 11, 123
10, 206877, Note_on_c, 8, 75, 127
10, 206997, Control_c, 8, 11, 124
10, 207117, Control_c, 8, 11, 125
10, 207237, Control_c, 8, 11, 126
10, 207297, Control_c, 8, 11, 127
10, 207357, Note_on_c, 8, 74, 127
10, 207387, Note_on_c, 8, 75, 0
10, 207567, Note_on_c, 8, 74, 0
10, 207837, Note_on_c, 8, 65, 127
10, 207837, Note_on_c, 8, 74, 127
10, 208527, Note_on_c, 8, 65, 0
10, 208527, Note_on_c, 8, 74, 0
10, 208797, Note_on_c, 8, 65, 127
10, 208797, Note_on_c, 8, 74, 127
10, 209487, Note_on_c, 8, 65, 0
10, 209487, Note_on_c, 8, 74, 0
10, 209757, Note_on_c, 8, 65, 127
10, 209757, Note_on_c, 8, 74, 127
10, 209907, Note_on_c, 8, 65, 0
10, 209907, Note_on_c, 8, 74, 0
10, 210237, Note_on_c, 8, 65, 127
10, 210237, Note_on_c, 8, 75, 127
10, 210927, Note_on_c, 8, 65, 0
10, 210927, Note_on_c, 8, 75, 0
10, 211197, Note_on_c, 8, 65, 127
10, 211197, Note_on_c, 8, 75, 127
10, 211347, Note_on_c, 8, 65, 0
10, 211347, Note_on_c, 8, 75, 0
10, 211677, Note_on_c, 8, 65, 127
10, 211677, Note_on_c, 8, 75, 127
10, 212277, Note_on_c, 8, 65, 0
10, 212277, Note_on_c, 8, 75, 0
10, 214557, Control_c, 8, 11, 80
10, 215517, Note_on_c, 8, 66, 70
10, 215997, Note_on_c, 8, 63, 70
10, 216027, Note_on_c, 8, 66, 0
10, 216477, Note_on_c, 8, 60, 70
10, 216507, Note_on_c, 8, 63, 0
10, 216987, Note_on_c, 8, 60, 0
10, 221277, Note_on_c, 8, 68, 70
10, 221757, Note_on_c, 8, 65, 70
10, 221787, Note_on_c, 8, 68, 0
10, 222237, Note_on_c, 8, 62, 70
10, 222267, Note_on_c, 8, 65, 0
10, 222747, Note_on_c, 8, 62, 0
10, 227032, Control_c, 8, 11, 40
10, 229187, Control_c, 8, 11, 41
10, 229247, Control_c, 8, 11, 43
10, 229307, Control_c, 8, 11, 44
10, 229367, Control_c, 8, 11, 45
10, 229417, Control_c, 8, 11, 47
10, 229477, Control_c, 8, 11, 48
10, 229537, Control_c, 8, 11, 49
10, 229597, Control_c, 8, 11, 51
10, 229647, Control_c, 8, 11, 52
10, 229707, Control_c, 8, 11, 53
10, 229767, Control_c, 8, 11, 55
10, 229827, Control_c, 8, 11, 56
10, 229877, Control_c, 8, 11, 57
10, 229937, Control_c, 8, 11, 59
10, 229997, Control_c, 8, 11, 60
10, 230057, Control_c, 8, 11, 62
10, 230107, Control_c, 8, 11, 63
10, 230167, Control_c, 8, 11, 64
10, 230227, Control_c, 8, 11, 66
10, 230287, Control_c, 8, 11, 67
10, 230337, Control_c, 8, 11, 68
10, 230397, Control_c, 8, 11, 70
10, 230457, Control_c, 8, 11, 71
10, 230517, Control_c, 8, 11, 73
10, 230567, Control_c, 8, 11, 74
10, 230627, Control_c, 8, 11, 75
10, 230687, Control_c, 8, 11, 77
10, 230747, Control_c, 8, 11, 78
10, 230797, Control_c, 8, 11, 79
10, 230857, Control_c, 8, 11, 81
10, 230917, Control_c, 8, 11, 82
10, 230977, Control_c, 8, 11, 83
10, 231027, Control_c, 8, 11, 85
10, 231087, Control_c, 8, 11, 86
10, 231147, Control_c, 8, 11, 87
10, 231207, Control_c, 8, 11, 89
10, 231257, Control_c, 8, 11, 90
10, 231317, Control_c, 8, 11, 92
10, 231377, Control_c, 8, 11, 93
10, 231437, Control_c, 8, 11, 94
10, 231487, Control_c, 8, 11, 96
10, 231547, Control_c, 8, 11, 97
10, 231607, Control_c, 8, 11, 98
10, 231667, Control_c, 8, 11, 100
10, 231717, Control_c, 8, 11, 101
10, 231777, Control_c, 8, 11, 102
10, 231837, Control_c, 8, 11, 104
10, 231897, Control_c, 8, 11, 105
10, 231947, Control_c, 8, 11, 106
10, 232007, Control_c, 8, 11, 108
10, 232067, Control_c, 8, 11, 109
10, 232127, Control_c, 8, 11, 111
10, 232177, Control_c, 8, 11, 112
10, 232237, Control_c, 8, 11, 113
10, 232297, Control_c, 8, 11, 115
10, 232357, Control_c, 8, 11, 116
10, 232407, Control_c, 8, 11, 117
10, 232467, Control_c, 8, 11, 119
10, 232527, Control_c, 8, 11, 120
10, 232587, Control_c, 8, 11, 122
10, 232637, Control_c, 8, 11, 123
10, 232697, Control_c, 8, 11, 124
10, 232757, Control_c, 8, 11, 126
10, 232787, Control_c, 8, 11, 127
10, 232797, Note_on_c, 8, 60, 110
10, 232797, Note_on_c, 8, 63, 110
10, 233272, Control_c, 8, 11, 40
10, 233307, Note_on_c, 8, 60, 0
10, 233307, Note_on_c, 8, 63, 0
10, 233347, Control_c, 8, 11, 41
10, 233407, Control_c, 8, 11, 42
10, 233467, Control_c, 8, 11, 43
10, 233527, Control_c, 8, 11, 44
10, 233587, Control_c, 8, 11, 45
10, 233647, Control_c, 8, 11, 46
10, 233707, Control_c, 8, 11, 47
10, 233767, Control_c, 8, 11, 48
10, 233827, Control_c, 8, 11, 49
10, 233887, Control_c, 8, 11, 50
10, 233947, Control_c, 8, 11, 51
10, 234007, Control_c, 8, 11, 52
10, 234067, Control_c, 8, 11, 53
10, 234127, Control_c, 8, 11, 54
10, 234197, Control_c, 8, 11, 55
10, 234257, Control_c, 8, 11, 56
10, 234317, Control_c, 8, 11, 57
10, 234377, Control_c, 8, 11, 58
10, 234437, Control_c, 8, 11, 59
10, 234497, Control_c, 8, 11, 60
10, 234557, Control_c, 8, 11, 61
10, 234617, Control_c, 8, 11, 62
10, 234677, Control_c, 8, 11, 63
10, 234737, Control_c, 8, 11, 64
10, 234797, Control_c, 8, 11, 65
10, 234857, Control_c, 8, 11, 66
10, 234917, Control_c, 8, 11, 67
10, 234977, Control_c, 8, 11, 68
10, 235037, Control_c, 8, 11, 69
10, 235107, Control_c, 8, 11, 70
10, 235167, Control_c, 8, 11, 71
10, 235227, Control_c, 8, 11, 72
10, 235287, Control_c, 8, 11, 73
10, 235347, Control_c, 8, 11, 74
10, 235407, Control_c, 8, 11, 75
10, 235467, Control_c, 8, 11, 76
10, 235527, Control_c, 8, 11, 77
10, 235587, Control_c, 8, 11, 78
10, 235647, Control_c, 8, 11, 79
10, 235707, Control_c, 8, 11, 80
10, 235767, Control_c, 8, 11, 81
10, 235827, Control_c, 8, 11, 82
10, 235887, Control_c, 8, 11, 83
10, 235957, Control_c, 8, 11, 84
10, 236017, Control_c, 8, 11, 85
10, 236077, Control_c, 8, 11, 86
10, 236137, Control_c, 8, 11, 87
10, 236197, Control_c, 8, 11, 88
10, 236257, Control_c, 8, 11, 89
10, 236317, Control_c, 8, 11, 90
10, 236377, Control_c, 8, 11, 91
10, 236437, Control_c, 8, 11, 92
10, 236497, Control_c, 8, 11, 93
10, 236557, Control_c, 8, 11, 94
10, 236617, Control_c, 8, 11, 95
10, 236677, Control_c, 8, 11, 96
10, 236737, Control_c, 8, 11, 97
10, 236797, Control_c, 8, 11, 98
10, 236867, Control_c, 8, 11, 99
10, 236927, Control_c, 8, 11, 100
10, 236987, Control_c, 8, 11, 101
10, 237047, Control_c, 8, 11, 102
10, 237107, Control_c, 8, 11, 103
10, 237167, Control_c, 8, 11, 104
10, 237227, Control_c, 8, 11, 105
10, 237287, Control_c, 8, 11, 106
10, 237347, Control_c, 8, 11, 107
10, 237407, Control_c, 8, 11, 108
10, 237467, Control_c, 8, 11, 109
10, 237527, Control_c, 8, 11, 110
10, 237587, Control_c, 8, 11, 111
10, 237647, Control_c, 8, 11, 112
10, 237717, Control_c, 8, 11, 113
10, 237777, Control_c, 8, 11, 114
10, 237837, Control_c, 8, 11, 115
10, 237897, Control_c, 8, 11, 116
10, 237957, Control_c, 8, 11, 117
10, 238017, Control_c, 8, 11, 118
10, 238077, Control_c, 8, 11, 119
10, 238137, Control_c, 8, 11, 120
10, 238197, Control_c, 8, 11, 121
10, 238257, Control_c, 8, 11, 122
10, 238317, Control_c, 8, 11, 123
10, 238377, Control_c, 8, 11, 124
10, 238437, Control_c, 8, 11, 125
10, 238497, Control_c, 8, 11, 126
10, 238527, Control_c, 8, 11, 127
10, 238557, Note_on_c, 8, 60, 110
10, 238557, Note_on_c, 8, 63, 110
10, 239427, Note_on_c, 8, 60, 0
10, 239427, Note_on_c, 8, 63, 0
10, 239517, Note_on_c, 8, 75, 110
10, 240387, Note_on_c, 8, 75, 0
10, 240477, Note_on_c, 8, 74, 116
10, 241347, Note_on_c, 8, 74, 0
10, 241437, Note_on_c, 8, 67, 123
10, 241437, Note_on_c, 8, 70, 123
10, 241647, Note_on_c, 8, 67, 0
10, 241647, Note_on_c, 8, 70, 0
10, 241917, Note_on_c, 8, 65, 127
10, 241917, Note_on_c, 8, 70, 127
10, 243027, Note_on_c, 8, 65, 0
10, 243027, Note_on_c, 8, 70, 0
10, 243357, Note_on_c, 8, 65, 127
10, 243357, Note_on_c, 8, 69, 127
10, 244467, Note_on_c, 8, 65, 0
10, 244467, Note_on_c, 8, 69, 0
10, 244797, Note_on_c, 8, 70, 127
10, 245272, Note_on_c, 8, 70, 0
10, 245277, Note_on_c, 8, 70, 127
10, 245752, Note_on_c, 8, 70, 0
10, 245757, Note_on_c, 8, 70, 127
10, 246232, Note_on_c, 8, 70, 0
10, 246237, Note_on_c, 8, 70, 127
10, 246712, Note_on_c, 8, 70, 0
10, 246717, Note_on_c, 8, 70, 127
10, 247192, Note_on_c, 8, 70, 0
10, 247197, Note_on_c, 8, 70, 127
10, 247672, Note_on_c, 8, 70, 0
10, 247677, Note_on_c, 8, 69, 127
10, 248152, Note_on_c, 8, 69, 0
10, 248157, Note_on_c, 8, 69, 127
10, 248632, Note_on_c, 8, 69, 0
10, 248637, Note_on_c, 8, 69, 127
10, 249112, Note_on_c, 8, 69, 0
10, 249117, Note_on_c, 8, 69, 127
10, 249592, Note_on_c, 8, 69, 0
10, 249597, Note_on_c, 8, 69, 127
10, 250072, Note_on_c, 8, 69, 0
10, 250077, Note_on_c, 8, 69, 127
10, 250552, Note_on_c, 8, 69, 0
10, 250557, Note_on_c, 8, 70, 127
10, 251032, Note_on_c, 8, 70, 0
10, 251037, Note_on_c, 8, 70, 127
10, 251512, Note_on_c, 8, 70, 0
10, 251517, Note_on_c, 8, 70, 127
10, 251992, Note_on_c, 8, 70, 0
10, 251997, Note_on_c, 8, 70, 127
10, 252472, Note_on_c, 8, 70, 0
10, 252477, Note_on_c, 8, 70, 127
10, 252952, Note_on_c, 8, 70, 0
10, 252957, Note_on_c, 8, 70, 127
10, 253432, Note_on_c, 8, 70, 0
10, 253437, Note_on_c, 8, 69, 127
10, 253912, Note_on_c, 8, 69, 0
10, 253917, Note_on_c, 8, 69, 127
10, 254392, Note_on_c, 8, 69, 0
10, 254397, Note_on_c, 8, 69, 127
10, 254872, Note_on_c, 8, 69, 0
10, 254877, Note_on_c, 8, 69, 127
10, 255352, Note_on_c, 8, 69, 0
10, 255357, Note_on_c, 8, 69, 127
10, 255832, Note_on_c, 8, 69, 0
10, 255837, Note_on_c, 8, 69, 127
10, 256312, Note_on_c, 8, 69, 0
10, 256317, Note_on_c, 8, 62, 127
10, 256317, Note_on_c, 8, 70, 127
10, 257367, Note_on_c, 8, 62, 0
10, 257367, Note_on_c, 8, 70, 0
10, 257757, Note_on_c, 8, 62, 127
10, 258807, Note_on_c, 8, 62, 0
10, 259197, Note_on_c, 8, 62, 127
10, 259197, Note_on_c, 8, 77, 127
10, 259407, Note_on_c, 8, 62, 0
10, 259407, Note_on_c, 8, 77, 0
10, 259677, Note_on_c, 8, 62, 127
10, 259677, Note_on_c, 8, 77, 127
10, 259887, Note_on_c, 8, 62, 0
10, 259887, Note_on_c, 8, 77, 0
10, 260157, Note_on_c, 8, 62, 127
10, 260157, Note_on_c, 8, 77, 127
10, 260337, Note_on_c, 8, 62, 0
10, 260337, Note_on_c, 8, 77, 0
10, 260637, Note_on_c, 8, 62, 127
10, 260637, Note_on_c, 8, 70, 127
10, 261237, Note_on_c, 8, 62, 0
10, 261237, Note_on_c, 8, 70, 0
10, 261597, Control_c, 8, 11, 80
10, 281757, Note_on_c, 8, 67, 70
10, 282237, Note_on_c, 8, 65, 70
10, 282237, Control_c, 8, 11, 80
10, 282267, Note_on_c, 8, 67, 0
10, 282277, Control_c, 8, 11, 81
10, 282307, Control_c, 8, 11, 82
10, 282337, Control_c, 8, 11, 83
10, 282367, Control_c, 8, 11, 84
10, 282397, Control_c, 8, 11, 85
10, 282427, Control_c, 8, 11, 86
10, 282457, Control_c, 8, 11, 87
10, 282487, Control_c, 8, 11, 88
10, 282517, Control_c, 8, 11, 89
10, 282547, Control_c, 8, 11, 90
10, 282577, Control_c, 8, 11, 91
10, 282607, Control_c, 8, 11, 92
10, 282637, Control_c, 8, 11, 93
10, 282667, Control_c, 8, 11, 94
10, 282697, Control_c, 8, 11, 95
10, 282737, Control_c, 8, 11, 96
10, 282767, Control_c, 8, 11, 97
10, 282797, Control_c, 8, 11, 98
10, 282827, Control_c, 8, 11, 99
10, 282857, Control_c, 8, 11, 100
10, 282887, Control_c, 8, 11, 101
10, 282917, Control_c, 8, 11, 102
10, 282947, Control_c, 8, 11, 103
10, 282977, Control_c, 8, 11, 104
10, 283007, Control_c, 8, 11, 105
10, 283037, Control_c, 8, 11, 106
10, 283067, Control_c, 8, 11, 107
10, 283097, Control_c, 8, 11, 108
10, 283127, Control_c, 8, 11, 109
10, 283157, Control_c, 8, 11, 110
10, 283187, Control_c, 8, 11, 111
10, 283197, Note_on_c, 8, 64, 70
10, 283227, Note_on_c, 8, 65, 0
10, 283227, Control_c, 8, 11, 112
10, 283257, Control_c, 8, 11, 113
10, 283287, Control_c, 8, 11, 114
10, 283317, Control_c, 8, 11, 115
10, 283347, Control_c, 8, 11, 116
10, 283377, Control_c, 8, 11, 117
10, 283407, Control_c, 8, 11, 118
10, 283437, Control_c, 8, 11, 119
10, 283467, Control_c, 8, 11, 120
10, 283497, Control_c, 8, 11, 121
10, 283527, Control_c, 8, 11, 122
10, 283557, Control_c, 8, 11, 123
10, 283587, Control_c, 8, 11, 124
10, 283617, Control_c, 8, 11, 125
10, 283647, Control_c, 8, 11, 126
10, 283677, Control_c, 8, 11, 127
10, 283707, Control_c, 8, 11, 126
10, 283737, Control_c, 8, 11, 125
10, 283767, Control_c, 8, 11, 124
10, 283797, Control_c, 8, 11, 123
10, 283827, Control_c, 8, 11, 122
10, 283857, Control_c, 8, 11, 121
10, 283887, Control_c, 8, 11, 120
10, 283917, Control_c, 8, 11, 119
10, 283947, Control_c, 8, 11, 118
10, 283977, Control_c, 8, 11, 117
10, 284007, Control_c, 8, 11, 116
10, 284037, Control_c, 8, 11, 115
10, 284067, Control_c, 8, 11, 114
10, 284097, Control_c, 8, 11, 113
10, 284127, Control_c, 8, 11, 112
10, 284157, Note_on_c, 8, 63, 70
10, 284157, Control_c, 8, 11, 111
10, 284187, Note_on_c, 8, 64, 0
10, 284187, Control_c, 8, 11, 110
10, 284217, Control_c, 8, 11, 109
10, 284247, Control_c, 8, 11, 108
10, 284277, Control_c, 8, 11, 107
10, 284307, Control_c, 8, 11, 106
10, 284337, Control_c, 8, 11, 105
10, 284367, Control_c, 8, 11, 104
10, 284397, Control_c, 8, 11, 103
10, 284427, Control_c, 8, 11, 102
10, 284457, Control_c, 8, 11, 101
10, 284487, Control_c, 8, 11, 100
10, 284517, Control_c, 8, 11, 99
10, 284547, Control_c, 8, 11, 98
10, 284577, Control_c, 8, 11, 97
10, 284607, Control_c, 8, 11, 96
10, 284637, Note_on_c, 8, 62, 70
10, 284637, Control_c, 8, 11, 95
10, 284667, Note_on_c, 8, 63, 0
10, 284667, Control_c, 8, 11, 94
10, 284697, Control_c, 8, 11, 93
10, 284727, Control_c, 8, 11, 92
10, 284757, Control_c, 8, 11, 91
10, 284787, Control_c, 8, 11, 90
10, 284817, Control_c, 8, 11, 89
10, 284847, Note_on_c, 8, 62, 0
10, 284847, Control_c, 8, 11, 88
10, 284877, Control_c, 8, 11, 87
10, 284907, Control_c, 8, 11, 86
10, 284937, Control_c, 8, 11, 85
10, 284967, Control_c, 8, 11, 84
10, 284997, Control_c, 8, 11, 83
10, 285027, Control_c, 8, 11, 82
10, 285057, Control_c, 8, 11, 81
10, 285087, Control_c, 8, 11, 80
10, 285117, Note_on_c, 8, 62, 70
10, 285597, Note_on_c, 8, 62, 0
10, 310557, Program_c, 8, 45
10, 311037, Note_on_c, 8, 60, 70
10, 311487, Note_on_c, 8, 60, 0
10, 316797, Note_on_c, 8, 60, 70
10, 317247, Note_on_c, 8, 60, 0
10, 318237, Program_c, 8, 48
10, 318957, Note_on_c, 8, 62, 60
10, 319197, Note_on_c, 8, 63, 60
10, 319227, Note_on_c, 8, 62, 0
10, 319437, Note_on_c, 8, 62, 60
10, 319467, Note_on_c, 8, 63, 0
10, 319677, Note_on_c, 8, 63, 60
10, 319707, Note_on_c, 8, 62, 0
10, 319887, Note_on_c, 8, 63, 0
10, 320397, Note_on_c, 8, 62, 60
10, 320637, Note_on_c, 8, 63, 60
10, 320667, Note_on_c, 8, 62, 0
10, 320877, Note_on_c, 8, 62, 60
10, 320907, Note_on_c, 8, 63, 0
10, 321117, Note_on_c, 8, 63, 60
10, 321147, Note_on_c, 8, 62, 0
10, 321327, Note_on_c, 8, 63, 0
10, 321837, Note_on_c, 8, 62, 60
10, 322077, Note_on_c, 8, 63, 60
10, 322107, Note_on_c, 8, 62, 0
10, 322317, Note_on_c, 8, 62, 60
10, 322347, Note_on_c, 8, 63, 0
10, 322557, Note_on_c, 8, 63, 60
10, 322587, Note_on_c, 8, 62, 0
10, 322767, Note_on_c, 8, 63, 0
10, 334077, Control_c, 8, 11, 80
10, 335107, Control_c, 8, 11, 81
10, 336137, Control_c, 8, 11, 82
10, 337167, Control_c, 8, 11, 83
10, 337197, Note_on_c, 8, 57, 69
10, 337437, Note_on_c, 8, 58, 70
10, 337467, Note_on_c, 8, 57, 0
10, 337677, Note_on_c, 8, 57, 71
10, 337707, Note_on_c, 8, 58, 0
10, 337917, Note_on_c, 8, 58, 71
10, 337947, Note_on_c, 8, 57, 0
10, 338157, Note_on_c, 8, 57, 72
10, 338187, Note_on_c, 8, 58, 0
10, 338197, Control_c, 8, 11, 84
10, 338397, Note_on_c, 8, 58, 73
10, 338427, Note_on_c, 8, 57, 0
10, 338637, Note_on_c, 8, 57, 74
10, 338667, Note_on_c, 8, 58, 0
10, 338877, Note_on_c, 8, 58, 74
10, 338907, Note_on_c, 8, 57, 0
10, 339117, Note_on_c, 8, 57, 75
10, 339147, Note_on_c, 8, 58, 0
10, 339227, Control_c, 8, 11, 85
10, 339357, Note_on_c, 8, 58, 76
10, 339387, Note_on_c, 8, 57, 0
10, 339597, Note_on_c, 8, 57, 77
10, 339627, Note_on_c, 8, 58, 0
10, 339747, Note_on_c, 8, 57, 0
10, 339837, Note_on_c, 8, 58, 77
10, 340077, Note_on_c, 8, 57, 78
10, 340107, Note_on_c, 8, 58, 0
10, 340257, Control_c, 8, 11, 86
10, 340317, Note_on_c, 8, 58, 79
10, 340347, Note_on_c, 8, 57, 0
10, 340557, Note_on_c, 8, 57, 80
10, 340587, Note_on_c, 8, 58, 0
10, 340797, Note_on_c, 8, 58, 80
10, 340827, Note_on_c, 8, 57, 0
10, 341037, Note_on_c, 8, 57, 81
10, 341067, Note_on_c, 8, 58, 0
10, 341277, Note_on_c, 8, 58, 82
10, 341277, Control_c, 8, 11, 87
10, 341307, Note_on_c, 8, 57, 0
10, 341517, Note_on_c, 8, 57, 83
10, 341547, Note_on_c, 8, 58, 0
10, 341757, Note_on_c, 8, 58, 83
10, 341787, Note_on_c, 8, 57, 0
10, 341997, Note_on_c, 8, 57, 84
10, 342027, Note_on_c, 8, 58, 0
10, 342237, Note_on_c, 8, 58, 85
10, 342267, Note_on_c, 8, 57, 0
10, 342307, Control_c, 8, 11, 88
10, 342477, Note_on_c, 8, 57, 86
10, 342507, Note_on_c, 8, 58, 0
10, 342717, Note_on_c, 8, 58, 86
10, 342747, Note_on_c, 8, 57, 0
10, 342867, Note_on_c, 8, 58, 0
10, 342957, Note_on_c, 8, 69, 87
10, 343197, Note_on_c, 8, 70, 88
10, 343227, Note_on_c, 8, 69, 0
10, 343337, Control_c, 8, 11, 89
10, 343437, Note_on_c, 8, 69, 89
10, 343467, Note_on_c, 8, 70, 0
10, 343677, Note_on_c, 8, 70, 89
10, 343707, Note_on_c, 8, 69, 0
10, 343917, Note_on_c, 8, 69, 90
10, 343947, Note_on_c, 8, 70, 0
10, 344157, Note_on_c, 8, 70, 91
10, 344187, Note_on_c, 8, 69, 0
10, 344367, Control_c, 8, 11, 90
10, 344397, Note_on_c, 8, 69, 92
10, 344427, Note_on_c, 8, 70, 0
10, 344637, Note_on_c, 8, 70, 92
10, 344667, Note_on_c, 8, 69, 0
10, 344877, Note_on_c, 8, 69, 93
10, 344907, Note_on_c, 8, 70, 0
10, 345117, Note_on_c, 8, 70, 94
10, 345147, Note_on_c, 8, 69, 0
10, 345357, Note_on_c, 8, 69, 94
10, 345387, Note_on_c, 8, 70, 0
10, 345397, Control_c, 8, 11, 91
10, 345507, Note_on_c, 8, 69, 0
10, 345597, Note_on_c, 8, 70, 95
10, 345837, Note_on_c, 8, 69, 96
10, 345867, Note_on_c, 8, 70, 0
10, 346077, Note_on_c, 8, 70, 97
10, 346107, Note_on_c, 8, 69, 0
10, 346317, Note_on_c, 8, 69, 97
10, 346347, Note_on_c, 8, 70, 0
10, 346427, Control_c, 8, 11, 92
10, 346557, Note_on_c, 8, 70, 98
10, 346587, Note_on_c, 8, 69, 0
10, 346797, Note_on_c, 8, 68, 99
10, 346827, Note_on_c, 8, 70, 0
10, 347037, Note_on_c, 8, 70, 100
10, 347067, Note_on_c, 8, 68, 0
10, 347277, Note_on_c, 8, 67, 100
10, 347307, Note_on_c, 8, 70, 0
10, 347457, Control_c, 8, 11, 93
10, 347517, Note_on_c, 8, 70, 101
10, 347547, Note_on_c, 8, 67, 0
10, 347757, Note_on_c, 8, 67, 102
10, 347787, Note_on_c, 8, 70, 0
10, 347997, Note_on_c, 8, 70, 103
10, 348027, Note_on_c, 8, 67, 0
10, 348237, Note_on_c, 8, 65, 103
10, 348267, Note_on_c, 8, 70, 0
10, 348387, Note_on_c, 8, 65, 0
10, 348477, Note_on_c, 8, 70, 104
10, 348477, Control_c, 8, 11, 94
10, 348717, Note_on_c, 8, 63, 105
10, 348747, Note_on_c, 8, 70, 0
10, 348957, Note_on_c, 8, 70, 106
10, 348987, Note_on_c, 8, 63, 0
10, 349197, Note_on_c, 8, 63, 106
10, 349227, Note_on_c, 8, 70, 0
10, 349437, Note_on_c, 8, 70, 107
10, 349467, Note_on_c, 8, 63, 0
10, 349507, Control_c, 8, 11, 95
10, 349677, Note_on_c, 8, 63, 108
10, 349707, Note_on_c, 8, 70, 0
10, 349917, Note_on_c, 8, 70, 109
10, 349947, Note_on_c, 8, 63, 0
10, 350157, Note_on_c, 8, 63, 109
10, 350187, Note_on_c, 8, 70, 0
10, 350397, Note_on_c, 8, 70, 110
10, 350427, Note_on_c, 8, 63, 0
10, 350537, Control_c, 8, 11, 96
10, 350637, Note_on_c, 8, 63, 111
10, 350667, Note_on_c, 8, 70, 0
10, 350877, Note_on_c, 8, 70, 112
10, 350907, Note_on_c, 8, 63, 0
10, 351117, Note_on_c, 8, 65, 112
10, 351147, Note_on_c, 8, 70, 0
10, 351267, Note_on_c, 8, 65, 0
10, 351357, Note_on_c, 8, 65, 113
10, 351507, Note_on_c, 8, 65, 0
10, 351567, Control_c, 8, 11, 97
10, 351597, Note_on_c, 8, 69, 114
10, 351837, Note_on_c, 8, 67, 115
10, 351867, Note_on_c, 8, 69, 0
10, 352077, Note_on_c, 8, 69, 115
10, 352107, Note_on_c, 8, 67, 0
10, 352317, Note_on_c, 8, 72, 116
10, 352347, Note_on_c, 8, 69, 0
10, 352557, Note_on_c, 8, 69, 117
10, 352587, Note_on_c, 8, 72, 0
10, 352597, Control_c, 8, 11, 98
10, 352707, Note_on_c, 8, 69, 0
10, 352797, Note_on_c, 8, 65, 118
10, 352947, Note_on_c, 8, 65, 0
10, 353037, Note_on_c, 8, 69, 118
10, 353277, Note_on_c, 8, 67, 119
10, 353307, Note_on_c, 8, 69, 0
10, 353517, Note_on_c, 8, 69, 120
10, 353547, Note_on_c, 8, 67, 0
10, 353627, Control_c, 8, 11, 99
10, 353757, Note_on_c, 8, 72, 121
10, 353787, Note_on_c, 8, 69, 0
10, 353997, Note_on_c, 8, 69, 121
10, 354027, Note_on_c, 8, 72, 0
10, 354147, Note_on_c, 8, 69, 0
10, 354237, Note_on_c, 8, 70, 122
10, 354477, Note_on_c, 8, 69, 123
10, 354507, Note_on_c, 8, 70, 0
10, 354657, Control_c, 8, 11, 100
10, 354717, Note_on_c, 8, 70, 124
10, 354747, Note_on_c, 8, 69, 0
10, 354957, Note_on_c, 8, 69, 124
10, 354987, Note_on_c, 8, 70, 0
10, 355197, Note_on_c, 8, 70, 125
10, 355227, Note_on_c, 8, 69, 0
10, 355437, Note_on_c, 8, 69, 126
10, 355467, Note_on_c, 8, 70, 0
10, 355677, Note_on_c, 8, 70, 127
10, 355707, Note_on_c, 8, 69, 0
10, 355917, Note_on_c, 8, 69, 127
10, 355947, Note_on_c, 8, 70, 0
10, 356157, Note_on_c, 8, 70, 127
10, 356187, Note_on_c, 8, 69, 0
10, 356397, Note_on_c, 8, 69, 127
10, 356427, Note_on_c, 8, 70, 0
10, 356637, Note_on_c, 8, 70, 127
10, 356667, Note_on_c, 8, 69, 0
10, 356877, Note_on_c, 8, 69, 127
10, 356907, Note_on_c, 8, 70, 0
10, 357027, Note_on_c, 8, 69, 0
10, 357117, Note_on_c, 8, 70, 127
10, 357357, Note_on_c, 8, 69, 127
10, 357387, Note_on_c, 8, 70, 0
10, 357597, Note_on_c, 8, 70, 127
10, 357627, Note_on_c, 8, 69, 0
10, 357837, Note_on_c, 8, 69, 127
10, 357867, Note_on_c, 8, 70, 0
10, 358077, Note_on_c, 8, 70, 127
10, 358107, Note_on_c, 8, 69, 0
10, 358317, Note_on_c, 8, 68, 127
10, 358347, Note_on_c, 8, 70, 0
10, 358557, Note_on_c, 8, 70, 127
10, 358587, Note_on_c, 8, 68, 0
10, 358797, Note_on_c, 8, 67, 127
10, 358827, Note_on_c, 8, 70, 0
10, 359037, Note_on_c, 8, 70, 127
10, 359067, Note_on_c, 8, 67, 0
10, 359277, Note_on_c, 8, 67, 127
10, 359307, Note_on_c, 8, 70, 0
10, 359517, Note_on_c, 8, 70, 127
10, 359547, Note_on_c, 8, 67, 0
10, 359757, Note_on_c, 8, 65, 127
10, 359787, Note_on_c, 8, 70, 0
10, 359907, Note_on_c, 8, 65, 0
10, 359997, Note_on_c, 8, 70, 127
10, 360237, Note_on_c, 8, 63, 127
10, 360267, Note_on_c, 8, 70, 0
10, 360477, Note_on_c, 8, 70, 127
10, 360507, Note_on_c, 8, 63, 0
10, 360717, Note_on_c, 8, 63, 127
10, 360747, Note_on_c, 8, 70, 0
10, 360957, Note_on_c, 8, 70, 127
10, 360987, Note_on_c, 8, 63, 0
10, 361197, Note_on_c, 8, 63, 127
10, 361227, Note_on_c, 8, 70, 0
10, 361437, Note_on_c, 8, 70, 127
10, 361467, Note_on_c, 8, 63, 0
10, 361677, Note_on_c, 8, 63, 127
10, 361707, Note_on_c, 8, 70, 0
10, 361917, Note_on_c, 8, 70, 127
10, 361947, Note_on_c, 8, 63, 0
10, 362157, Note_on_c, 8, 63, 127
10, 362187, Note_on_c, 8, 70, 0
10, 362397, Note_on_c, 8, 70, 127
10, 362427, Note_on_c, 8, 63, 0
10, 362637, Note_on_c, 8, 65, 127
10, 362667, Note_on_c, 8, 70, 0
10, 362787, Note_on_c, 8, 65, 0
10, 362877, Note_on_c, 8, 65, 127
10, 363027, Note_on_c, 8, 65, 0
10, 363117, Note_on_c, 8, 69, 127
10, 363357, Note_on_c, 8, 67, 127
10, 363387, Note_on_c, 8, 69, 0
10, 363597, Note_on_c, 8, 69, 127
10, 363627, Note_on_c, 8, 67, 0
10, 363837, Note_on_c, 8, 72, 127
10, 363867, Note_on_c, 8, 69, 0
10, 364077, Note_on_c, 8, 69, 127
10, 364107, Note_on_c, 8, 72, 0
10, 364227, Note_on_c, 8, 69, 0
10, 364317, Note_on_c, 8, 65, 127
10, 364467, Note_on_c, 8, 65, 0
10, 364557, Note_on_c, 8, 69, 127
10, 364797, Note_on_c, 8, 67, 127
10, 364827, Note_on_c, 8, 69, 0
10, 365037, Note_on_c, 8, 69, 127
10, 365067, Note_on_c, 8, 67, 0
10, 365277, Note_on_c, 8, 72, 127
10, 365307, Note_on_c, 8, 69, 0
10, 365517, Note_on_c, 8, 69, 127
10, 365547, Note_on_c, 8, 72, 0
10, 365667, Note_on_c, 8, 69, 0
10, 365757, Note_on_c, 8, 65, 127
10, 365907, Note_on_c, 8, 65, 0
10, 365997, Note_on_c, 8, 70, 127
10, 366237, Note_on_c, 8, 69, 127
10, 366267, Note_on_c, 8, 70, 0
10, 366477, Note_on_c, 8, 70, 127
10, 366507, Note_on_c, 8, 69, 0
10, 366712, Control_c, 8, 11, 127
10, 366717, Note_on_c, 8, 74, 127
10, 366747, Note_on_c, 8, 70, 0
10, 366952, Control_c, 8, 11, 100
10, 366957, Note_on_c, 8, 70, 127
10, 366987, Note_on_c, 8, 74, 0
10, 367192, Control_c, 8, 11, 127
10, 367197, Note_on_c, 8, 74, 127
10, 367227, Note_on_c, 8, 70, 0
10, 367432, Control_c, 8, 11, 100
10, 367437, Note_on_c, 8, 70, 127
10, 367467, Note_on_c, 8, 74, 0
10, 367677, Note_on_c, 8, 69, 127
10, 367707, Note_on_c, 8, 70, 0
10, 367917, Note_on_c, 8, 70, 127
10, 367947, Note_on_c, 8, 69, 0
10, 368157, Note_on_c, 8, 74, 127
10, 368187, Note_on_c, 8, 70, 0
10, 368397, Note_on_c, 8, 70, 127
10, 368427, Note_on_c, 8, 74, 0
10, 368547, Note_on_c, 8, 70, 0
10, 368637, Note_on_c, 8, 65, 127
10, 368787, Note_on_c, 8, 65, 0
10, 368877, Note_on_c, 8, 69, 127
10, 369117, Note_on_c, 8, 67, 127
10, 369147, Note_on_c, 8, 69, 0
10, 369357, Note_on_c, 8, 69, 127
10, 369387, Note_on_c, 8, 67, 0
10, 369592, Control_c, 8, 11, 127
10, 369597, Note_on_c, 8, 72, 127
10, 369627, Note_on_c, 8, 69, 0
10, 369832, Control_c, 8, 11, 100
10, 369837, Note_on_c, 8, 69, 127
10, 369867, Note_on_c, 8, 72, 0
10, 370072, Control_c, 8, 11, 127
10, 370077, Note_on_c, 8, 72, 127
10, 370107, Note_on_c, 8, 69, 0
10, 370312, Control_c, 8, 11, 100
10, 370317, Note_on_c, 8, 69, 127
10, 370347, Note_on_c, 8, 72, 0
10, 370557, Note_on_c, 8, 67, 127
10, 370587, Note_on_c, 8, 69, 0
10, 370797, Note_on_c, 8, 69, 127
10, 370827, Note_on_c, 8, 67, 0
10, 371037, Note_on_c, 8, 72, 127
10, 371067, Note_on_c, 8, 69, 0
10, 371277, Note_on_c, 8, 69, 127
10, 371307, Note_on_c, 8, 72, 0
10, 371427, Note_on_c, 8, 69, 0
10, 371517, Note_on_c, 8, 65, 127
10, 371667, Note_on_c, 8, 65, 0
10, 371757, Note_on_c, 8, 70, 127
10, 371997, Note_on_c, 8, 69, 127
10, 372027, Note_on_c, 8, 70, 0
10, 372237, Note_on_c, 8, 70, 127
10, 372267, Note_on_c, 8, 69, 0
10, 372477, Note_on_c, 8, 74, 127
10, 372477, Control_c, 8, 11, 100
10, 372507, Note_on_c, 8, 70, 0
10, 372707, Control_c, 8, 11, 99
10, 372717, Note_on_c, 8, 70, 124
10, 372747, Note_on_c, 8, 74, 0
10, 372937, Control_c, 8, 11, 98
10, 372957, Note_on_c, 8, 74, 121
10, 372987, Note_on_c, 8, 70, 0
10, 373167, Control_c, 8, 11, 97
10, 373197, Note_on_c, 8, 70, 117
10, 373227, Note_on_c, 8, 74, 0
10, 373397, Control_c, 8, 11, 96
10, 373437, Note_on_c, 8, 69, 114
10, 373467, Note_on_c, 8, 70, 0
10, 373627, Control_c, 8, 11, 95
10, 373677, Note_on_c, 8, 70, 111
10, 373707, Note_on_c, 8, 69, 0
10, 373857, Control_c, 8, 11, 94
10, 373917, Note_on_c, 8, 74, 107
10, 373947, Note_on_c, 8, 70, 0
10, 374077, Control_c, 8, 11, 93
10, 374157, Note_on_c, 8, 70, 104
10, 374187, Note_on_c, 8, 74, 0
10, 374307, Note_on_c, 8, 70, 0
10, 374307, Control_c, 8, 11, 92
10, 374397, Note_on_c, 8, 65, 101
10, 374537, Control_c, 8, 11, 91
10, 374547, Note_on_c, 8, 65, 0
10, 374637, Note_on_c, 8, 69, 97
10, 374767, Control_c, 8, 11, 90
10, 374877, Note_on_c, 8, 67, 94
10, 374907, Note_on_c, 8, 69, 0
10, 374997, Control_c, 8, 11, 89
10, 375117, Note_on_c, 8, 69, 91
10, 375147, Note_on_c, 8, 67, 0
10, 375227, Control_c, 8, 11, 88
10, 375357, Note_on_c, 8, 72, 87
10, 375387, Note_on_c, 8, 69, 0
10, 375457, Control_c, 8, 11, 87
10, 375597, Note_on_c, 8, 69, 84
10, 375627, Note_on_c, 8, 72, 0
10, 375677, Control_c, 8, 11, 86
10, 375837, Note_on_c, 8, 72, 81
10, 375867, Note_on_c, 8, 69, 0
10, 375907, Control_c, 8, 11, 85
10, 376077, Note_on_c, 8, 69, 77
10, 376107, Note_on_c, 8, 72, 0
10, 376137, Control_c, 8, 11, 84
10, 376317, Note_on_c, 8, 67, 74
10, 376347, Note_on_c, 8, 69, 0
10, 376367, Control_c, 8, 11, 83
10, 376557, Note_on_c, 8, 69, 71
10, 376587, Note_on_c, 8, 67, 0
10, 376597, Control_c, 8, 11, 82
10, 376797, Note_on_c, 8, 72, 67
10, 376827, Note_on_c, 8, 69, 0
10, 376827, Control_c, 8, 11, 81
10, 377037, Note_on_c, 8, 69, 64
10, 377057, Control_c, 8, 11, 80
10, 377067, Note_on_c, 8, 72, 0
10, 377187, Note_on_c, 8, 69, 0
10, 377277, Note_on_c, 8, 74, 60
10, 377427, Note_on_c, 8, 74, 0
10, 383037, Note_on_c, 8, 58, 60
10, 383427, Note_on_c, 8, 58, 0
10, 383517, Control_c, 8, 11, 80
10, 383637, Control_c, 8, 11, 81
10, 383747, Control_c, 8, 11, 82
10, 383857, Control_c, 8, 11, 83
10, 383967, Control_c, 8, 11, 84
10, 384087, Control_c, 8, 11, 85
10, 384197, Control_c, 8, 11, 86
10, 384307, Control_c, 8, 11, 87
10, 384417, Control_c, 8, 11, 88
10, 384537, Control_c, 8, 11, 89
10, 384647, Control_c, 8, 11, 90
10, 384757, Control_c, 8, 11, 91
10, 384867, Control_c, 8, 11, 92
10, 384987, Control_c, 8, 11, 93
10, 385097, Control_c, 8, 11, 94
10, 385207, Control_c, 8, 11, 95
10, 385317, Control_c, 8, 11, 96
10, 385427, Control_c, 8, 11, 97
10, 385547, Control_c, 8, 11, 98
10, 385657, Control_c, 8, 11, 99
10, 385767, Control_c, 8, 11, 100
10, 385877, Control_c, 8, 11, 101
10, 385997, Control_c, 8, 11, 102
10, 386107, Control_c, 8, 11, 103
10, 386217, Control_c, 8, 11, 104
10, 386327, Control_c, 8, 11, 105
10, 386397, Note_on_c, 8, 55, 96
10, 386447, Control_c, 8, 11, 106
10, 386557, Control_c, 8, 11, 107
10, 386667, Control_c, 8, 11, 108
10, 386777, Control_c, 8, 11, 109
10, 386877, Note_on_c, 8, 56, 102
10, 386897, Control_c, 8, 11, 110
10, 386907, Note_on_c, 8, 55, 0
10, 387007, Control_c, 8, 11, 111
10, 387087, Note_on_c, 8, 56, 0
10, 387117, Control_c, 8, 11, 112
10, 387227, Control_c, 8, 11, 113
10, 387337, Control_c, 8, 11, 114
10, 387357, Note_on_c, 8, 56, 108
10, 387457, Control_c, 8, 11, 115
10, 387567, Control_c, 8, 11, 116
10, 387677, Control_c, 8, 11, 117
10, 387787, Control_c, 8, 11, 118
10, 387837, Note_on_c, 8, 57, 114
10, 387867, Note_on_c, 8, 56, 0
10, 387907, Control_c, 8, 11, 119
10, 388017, Control_c, 8, 11, 120
10, 388047, Note_on_c, 8, 57, 0
10, 388127, Control_c, 8, 11, 121
10, 388237, Control_c, 8, 11, 122
10, 388317, Note_on_c, 8, 63, 120
10, 388357, Control_c, 8, 11, 123
10, 388467, Control_c, 8, 11, 124
10, 388577, Control_c, 8, 11, 125
10, 388687, Control_c, 8, 11, 126
10, 388697, Control_c, 8, 11, 127
10, 388797, Note_on_c, 8, 62, 127
10, 388827, Note_on_c, 8, 63, 0
10, 389007, Note_on_c, 8, 62, 0
10, 389277, Note_on_c, 8, 58, 127
10, 389277, Note_on_c, 8, 62, 127
10, 389967, Note_on_c, 8, 58, 0
10, 389967, Note_on_c, 8, 62, 0
10, 390237, Note_on_c, 8, 58, 127
10, 390237, Note_on_c, 8, 62, 127
10, 390867, Note_on_c, 8, 58, 0
10, 390867, Note_on_c, 8, 62, 0
10, 391197, Note_on_c, 8, 58, 127
10, 391197, Note_on_c, 8, 62, 127
10, 391347, Note_on_c, 8, 58, 0
10, 391347, Note_on_c, 8, 62, 0
10, 391677, Note_on_c, 8, 60, 127
10, 391677, Note_on_c, 8, 63, 127
10, 392367, Note_on_c, 8, 60, 0
10, 392367, Note_on_c, 8, 63, 0
10, 392637, Note_on_c, 8, 60, 127
10, 392637, Note_on_c, 8, 63, 127
10, 392787, Note_on_c, 8, 60, 0
10, 392787, Note_on_c, 8, 63, 0
10, 393117, Note_on_c, 8, 60, 127
10, 393117, Note_on_c, 8, 63, 127
10, 393717, Note_on_c, 8, 60, 0
10, 393717, Note_on_c, 8, 63, 0
10, 394557, Control_c, 8, 11, 80
10, 396957, Note_on_c, 8, 66, 60
10, 397437, Note_on_c, 8, 63, 60
10, 397467, Note_on_c, 8, 66, 0
10, 397947, Note_on_c, 8, 63, 0
10, 402717, Note_on_c, 8, 61, 60
10, 403197, Note_on_c, 8, 58, 60
10, 403227, Note_on_c, 8, 61, 0
10, 403707, Note_on_c, 8, 58, 0
10, 405597, Note_on_c, 8, 60, 60
10, 406047, Note_on_c, 8, 60, 0
10, 406077, Note_on_c, 8, 60, 60
10, 406077, Control_c, 8, 11, 80
10, 406207, Control_c, 8, 11, 81
10, 406287, Note_on_c, 8, 60, 0
10, 406327, Control_c, 8, 11, 82
10, 406447, Control_c, 8, 11, 83
10, 406557, Note_on_c, 8, 60, 65
10, 406577, Control_c, 8, 11, 84
10, 406697, Control_c, 8, 11, 85
10, 406817, Control_c, 8, 11, 86
10, 406937, Control_c, 8, 11, 87
10, 407067, Control_c, 8, 11, 88
10, 407187, Control_c, 8, 11, 89
10, 407307, Control_c, 8, 11, 90
10, 407427, Control_c, 8, 11, 91
10, 407487, Note_on_c, 8, 60, 0
10, 407517, Note_on_c, 8, 60, 76
10, 407557, Control_c, 8, 11, 92
10, 407677, Control_c, 8, 11, 93
10, 407797, Control_c, 8, 11, 94
10, 407917, Control_c, 8, 11, 95
10, 408027, Note_on_c, 8, 60, 0
10, 408047, Control_c, 8, 11, 96
10, 408167, Control_c, 8, 11, 97
10, 408287, Control_c, 8, 11, 98
10, 408407, Control_c, 8, 11, 99
10, 408477, Note_on_c, 8, 65, 87
10, 408537, Control_c, 8, 11, 100
10, 408657, Control_c, 8, 11, 101
10, 408777, Control_c, 8, 11, 102
10, 408897, Control_c, 8, 11, 103
10, 409027, Control_c, 8, 11, 104
10, 409147, Control_c, 8, 11, 105
10, 409167, Note_on_c, 8, 65, 0
10, 409267, Control_c, 8, 11, 106
10, 409387, Control_c, 8, 11, 107
10, 409437, Note_on_c, 8, 65, 99
10, 409517, Control_c, 8, 11, 108
10, 409637, Control_c, 8, 11, 109
10, 409757, Control_c, 8, 11, 110
10, 409877, Control_c, 8, 11, 111
10, 410007, Control_c, 8, 11, 112
10, 410127, Note_on_c, 8, 65, 0
10, 410127, Control_c, 8, 11, 113
10, 410247, Control_c, 8, 11, 114
10, 410367, Control_c, 8, 11, 115
10, 410397, Note_on_c, 8, 65, 110
10, 410497, Control_c, 8, 11, 116
10, 410617, Control_c, 8, 11, 117
10, 410737, Control_c, 8, 11, 118
10, 410857, Control_c, 8, 11, 119
10, 410907, Note_on_c, 8, 65, 0
10, 410987, Control_c, 8, 11, 120
10, 411107, Control_c, 8, 11, 121
10, 411227, Control_c, 8, 11, 122
10, 411347, Control_c, 8, 11, 123
10, 411357, Note_on_c, 8, 67, 121
10, 411357, Note_on_c, 8, 70, 121
10, 411477, Control_c, 8, 11, 124
10, 411507, Note_on_c, 8, 67, 0
10, 411507, Note_on_c, 8, 70, 0
10, 411597, Control_c, 8, 11, 125
10, 411717, Control_c, 8, 11, 126
10, 411807, Control_c, 8, 11, 127
10, 411837, Note_on_c, 8, 65, 127
10, 413007, Note_on_c, 8, 65, 0
10, 413277, Note_on_c, 8, 65, 127
10, 414447, Note_on_c, 8, 65, 0
10, 414717, Note_on_c, 8, 65, 127
10, 414927, Note_on_c, 8, 65, 0
10, 415197, Note_on_c, 8, 65, 127
10, 415407, Note_on_c, 8, 65, 0
10, 415677, Note_on_c, 8, 65, 127
10, 415887, Note_on_c, 8, 65, 0
10, 416157, Note_on_c, 8, 65, 127
10, 416517, Note_on_c, 8, 65, 0
10, 416637, Control_c, 8, 11, 80
10, 417597, Note_on_c, 8, 65, 80
10, 417987, Note_on_c, 8, 65, 0
10, 418077, Note_on_c, 8, 65, 80
10, 418947, Note_on_c, 8, 65, 0
10, 419037, Note_on_c, 8, 65, 80
10, 419847, Note_on_c, 8, 65, 0
10, 419997, Note_on_c, 8, 65, 80
10, 420387, Note_on_c, 8, 65, 0
10, 420477, Note_on_c, 8, 66, 80
10, 421347, Note_on_c, 8, 66, 0
10, 421437, Note_on_c, 8, 66, 80
10, 421827, Note_on_c, 8, 66, 0
10, 421917, Note_on_c, 8, 66, 80
10, 422307, Note_on_c, 8, 66, 0
10, 422397, Note_on_c, 8, 68, 80
10, 422877, Note_on_c, 8, 66, 80
10, 422907, Note_on_c, 8, 68, 0
10, 423087, Note_on_c, 8, 66, 0
10, 423357, Note_on_c, 8, 63, 80
10, 423837, Note_on_c, 8, 60, 80
10, 423867, Note_on_c, 8, 63, 0
10, 424047, Note_on_c, 8, 60, 0
10, 425277, Note_on_c, 8, 56, 80
10, 425277, Note_on_c, 8, 66, 80
10, 425667, Note_on_c, 8, 56, 0
10, 425667, Note_on_c, 8, 66, 0
10, 425757, Note_on_c, 8, 56, 80
10, 425757, Note_on_c, 8, 66, 80
10, 426147, Note_on_c, 8, 56, 0
10, 426147, Note_on_c, 8, 66, 0
10, 426237, Note_on_c, 8, 56, 80
10, 426237, Note_on_c, 8, 65, 80
10, 427107, Note_on_c, 8, 56, 0
10, 427107, Note_on_c, 8, 65, 0
10, 427197, Note_on_c, 8, 68, 80
10, 427587, Note_on_c, 8, 68, 0
10, 427677, Note_on_c, 8, 68, 80
10, 428067, Note_on_c, 8, 68, 0
10, 428157, Note_on_c, 8, 70, 80
10, 428637, Note_on_c, 8, 68, 80
10, 428667, Note_on_c, 8, 70, 0
10, 428847, Note_on_c, 8, 68, 0
10, 429117, Note_on_c, 8, 65, 80
10, 429597, Note_on_c, 8, 61, 80
10, 429627, Note_on_c, 8, 65, 0
10, 429807, Note_on_c, 8, 61, 0
10, 431037, Note_on_c, 8, 56, 80
10, 431037, Note_on_c, 8, 65, 80
10, 431247, Note_on_c, 8, 56, 0
10, 431247, Note_on_c, 8, 65, 0
10, 431517, Note_on_c, 8, 56, 80
10, 431517, Note_on_c, 8, 65, 80
10, 431727, Note_on_c, 8, 56, 0
10, 431727, Note_on_c, 8, 65, 0
10, 431997, Note_on_c, 8, 68, 80
10, 432687, Note_on_c, 8, 68, 0
10, 432957, Note_on_c, 8, 68, 80
10, 433167, Note_on_c, 8, 68, 0
10, 433437, Note_on_c, 8, 68, 80
10, 433647, Note_on_c, 8, 68, 0
10, 433917, Note_on_c, 8, 70, 80
10, 434397, Note_on_c, 8, 68, 80
10, 434427, Note_on_c, 8, 70, 0
10, 434607, Note_on_c, 8, 68, 0
10, 434877, Note_on_c, 8, 65, 80
10, 435357, Note_on_c, 8, 62, 80
10, 435387, Note_on_c, 8, 65, 0
10, 435567, Note_on_c, 8, 62, 0
10, 441117, Note_on_c, 8, 72, 80
10, 441597, Note_on_c, 8, 77, 80
10, 441627, Note_on_c, 8, 72, 0
10, 441807, Note_on_c, 8, 77, 0
10, 442077, Note_on_c, 8, 72, 80
10, 442557, Note_on_c, 8, 77, 80
10, 442587, Note_on_c, 8, 72, 0
10, 442767, Note_on_c, 8, 77, 0
10, 443037, Note_on_c, 8, 72, 80
10, 443517, Note_on_c, 8, 73, 80
10, 443547, Note_on_c, 8, 72, 0
10, 443727, Note_on_c, 8, 73, 0
10, 446877, Note_on_c, 8, 67, 80
10, 447357, Note_on_c, 8, 72, 80
10, 447387, Note_on_c, 8, 67, 0
10, 447567, Note_on_c, 8, 72, 0
10, 447837, Note_on_c, 8, 67, 80
10, 448317, Note_on_c, 8, 72, 80
10, 448347, Note_on_c, 8, 67, 0
10, 448527, Note_on_c, 8, 72, 0
10, 448797, Note_on_c, 8, 67, 80
10, 449277, Note_on_c, 8, 68, 80
10, 449307, Note_on_c, 8, 67, 0
10, 449487, Note_on_c, 8, 68, 0
10, 451197, Note_on_c, 8, 62, 80
10, 451677, Note_on_c, 8, 67, 80
10, 451707, Note_on_c, 8, 62, 0
10, 451887, Note_on_c, 8, 67, 0
10, 452157, Note_on_c, 8, 63, 80
10, 452367, Note_on_c, 8, 63, 0
10, 454077, Note_on_c, 8, 69, 80
10, 454557, Note_on_c, 8, 74, 80
10, 454587, Note_on_c, 8, 69, 0
10, 454767, Note_on_c, 8, 74, 0
10, 455037, Note_on_c, 8, 70, 80
10, 455247, Note_on_c, 8, 70, 0
10, 456957, Note_on_c, 8, 64, 80
10, 457437, Note_on_c, 8, 69, 80
10, 457467, Note_on_c, 8, 64, 0
10, 457647, Note_on_c, 8, 69, 0
10, 457917, Note_on_c, 8, 65, 80
10, 457917, Control_c, 8, 11, 80
10, 458047, Control_c, 8, 11, 81
10, 458127, Note_on_c, 8, 65, 0
10, 458167, Control_c, 8, 11, 82
10, 458287, Control_c, 8, 11, 83
10, 458397, Note_on_c, 8, 62, 84
10, 458417, Control_c, 8, 11, 84
10, 458537, Control_c, 8, 11, 85
10, 458657, Control_c, 8, 11, 86
10, 458777, Control_c, 8, 11, 87
10, 458877, Note_on_c, 8, 65, 89
10, 458907, Note_on_c, 8, 62, 0
10, 458907, Control_c, 8, 11, 88
10, 459027, Control_c, 8, 11, 89
10, 459087, Note_on_c, 8, 65, 0
10, 459147, Control_c, 8, 11, 90
10, 459267, Control_c, 8, 11, 91
10, 459357, Note_on_c, 8, 60, 94
10, 459397, Control_c, 8, 11, 92
10, 459517, Control_c, 8, 11, 93
10, 459637, Control_c, 8, 11, 94
10, 459757, Control_c, 8, 11, 95
10, 459837, Note_on_c, 8, 63, 99
10, 459867, Note_on_c, 8, 60, 0
10, 459887, Control_c, 8, 11, 96
10, 460007, Control_c, 8, 11, 97
10, 460047, Note_on_c, 8, 63, 0
10, 460127, Control_c, 8, 11, 98
10, 460247, Control_c, 8, 11, 99
10, 460317, Note_on_c, 8, 63, 103
10, 460377, Control_c, 8, 11, 100
10, 460497, Control_c, 8, 11, 101
10, 460617, Control_c, 8, 11, 102
10, 460737, Control_c, 8, 11, 103
10, 460797, Note_on_c, 8, 69, 108
10, 460827, Note_on_c, 8, 63, 0
10, 460867, Control_c, 8, 11, 104
10, 460987, Control_c, 8, 11, 105
10, 461007, Note_on_c, 8, 69, 0
10, 461107, Control_c, 8, 11, 106
10, 461227, Control_c, 8, 11, 107
10, 461277, Note_on_c, 8, 69, 113
10, 461357, Control_c, 8, 11, 108
10, 461477, Control_c, 8, 11, 109
10, 461597, Control_c, 8, 11, 110
10, 461717, Control_c, 8, 11, 111
10, 461757, Note_on_c, 8, 72, 118
10, 461787, Note_on_c, 8, 69, 0
10, 461847, Control_c, 8, 11, 112
10, 461967, Note_on_c, 8, 72, 0
10, 461967, Control_c, 8, 11, 113
10, 462087, Control_c, 8, 11, 114
10, 462207, Control_c, 8, 11, 115
10, 462237, Note_on_c, 8, 72, 122
10, 462337, Control_c, 8, 11, 116
10, 462457, Control_c, 8, 11, 117
10, 462577, Control_c, 8, 11, 118
10, 462697, Control_c, 8, 11, 119
10, 462717, Note_on_c, 8, 75, 127
10, 462747, Note_on_c, 8, 72, 0
10, 462827, Control_c, 8, 11, 120
10, 462927, Note_on_c, 8, 75, 0
10, 462947, Control_c, 8, 11, 121
10, 463067, Control_c, 8, 11, 122
10, 463187, Control_c, 8, 11, 123
10, 463197, Note_on_c, 8, 75, 127
10, 463317, Control_c, 8, 11, 124
10, 463437, Control_c, 8, 11, 125
10, 463557, Control_c, 8, 11, 126
10, 463617, Control_c, 8, 11, 127
10, 463677, Note_on_c, 8, 74, 127
10, 463707, Note_on_c, 8, 75, 0
10, 463887, Note_on_c, 8, 74, 0
10, 464157, Note_on_c, 8, 65, 127
10, 464157, Note_on_c, 8, 74, 127
10, 464847, Note_on_c, 8, 65, 0
10, 464847, Note_on_c, 8, 74, 0
10, 465117, Note_on_c, 8, 65, 127
10, 465117, Note_on_c, 8, 74, 127
10, 465807, Note_on_c, 8, 65, 0
10, 465807, Note_on_c, 8, 74, 0
10, 466077, Note_on_c, 8, 65, 127
10, 466077, Note_on_c, 8, 74, 127
10, 466227, Note_on_c, 8, 65, 0
10, 466227, Note_on_c, 8, 74, 0
10, 466557, Note_on_c, 8, 65, 127
10, 466557, Note_on_c, 8, 75, 127
10, 467247, Note_on_c, 8, 65, 0
10, 467247, Note_on_c, 8, 75, 0
10, 467517, Note_on_c, 8, 65, 127
10, 467517, Note_on_c, 8, 75, 127
10, 467667, Note_on_c, 8, 65, 0
10, 467667, Note_on_c, 8, 75, 0
10, 467997, Note_on_c, 8, 65, 127
10, 467997, Note_on_c, 8, 75, 127
10, 468597, Note_on_c, 8, 65, 0
10, 468597, Note_on_c, 8, 75, 0
10, 470877, Control_c, 8, 11, 80
10, 471837, Note_on_c, 8, 66, 70
10, 472317, Note_on_c, 8, 63, 70
10, 472347, Note_on_c, 8, 66, 0
10, 472797, Note_on_c, 8, 60, 70
10, 472827, Note_on_c, 8, 63, 0
10, 473307, Note_on_c, 8, 60, 0
10, 477597, Note_on_c, 8, 68, 70
10, 478077, Note_on_c, 8, 65, 70
10, 478107, Note_on_c, 8, 68, 0
10, 478557, Note_on_c, 8, 62, 70
10, 478587, Note_on_c, 8, 65, 0
10, 479067, Note_on_c, 8, 62, 0
10, 483352, Control_c, 8, 11, 40
10, 485507, Control_c, 8, 11, 41
10, 485567, Control_c, 8, 11, 43
10, 485627, Control_c, 8, 11, 44
10, 485687, Control_c, 8, 11, 45
10, 485737, Control_c, 8, 11, 47
10, 485797, Control_c, 8, 11, 48
10, 485857, Control_c, 8, 11, 49
10, 485917, Control_c, 8, 11, 51
10, 485967, Control_c, 8, 11, 52
10, 486027, Control_c, 8, 11, 53
10, 486087, Control_c, 8, 11, 55
10, 486147, Control_c, 8, 11, 56
10, 486197, Control_c, 8, 11, 57
10, 486257, Control_c, 8, 11, 59
10, 486317, Control_c, 8, 11, 60
10, 486377, Control_c, 8, 11, 62
10, 486427, Control_c, 8, 11, 63
10, 486487, Control_c, 8, 11, 64
10, 486547, Control_c, 8, 11, 66
10, 486607, Control_c, 8, 11, 67
10, 486657, Control_c, 8, 11, 68
10, 486717, Control_c, 8, 11, 70
10, 486777, Control_c, 8, 11, 71
10, 486837, Control_c, 8, 11, 73
10, 486887, Control_c, 8, 11, 74
10, 486947, Control_c, 8, 11, 75
10, 487007, Control_c, 8, 11, 77
10, 487067, Control_c, 8, 11, 78
10, 487117, Control_c, 8, 11, 79
10, 487177, Control_c, 8, 11, 81
10, 487237, Control_c, 8, 11, 82
10, 487297, Control_c, 8, 11, 83
10, 487347, Control_c, 8, 11, 85
10, 487407, Control_c, 8, 11, 86
10, 487467, Control_c, 8, 11, 87
10, 487527, Control_c, 8, 11, 89
10, 487577, Control_c, 8, 11, 90
10, 487637, Control_c, 8, 11, 92
10, 487697, Control_c, 8, 11, 93
10, 487757, Control_c, 8, 11, 94
10, 487807, Control_c, 8, 11, 96
10, 487867, Control_c, 8, 11, 97
10, 487927, Control_c, 8, 11, 98
10, 487987, Control_c, 8, 11, 100
10, 488037, Control_c, 8, 11, 101
10, 488097, Control_c, 8, 11, 102
10, 488157, Control_c, 8, 11, 104
10, 488217, Control_c, 8, 11, 105
10, 488267, Control_c, 8, 11, 106
10, 488327, Control_c, 8, 11, 108
10, 488387, Control_c, 8, 11, 109
10, 488447, Control_c, 8, 11, 111
10, 488497, Control_c, 8, 11, 112
10, 488557, Control_c, 8, 11, 113
10, 488617, Control_c, 8, 11, 115
10, 488677, Control_c, 8, 11, 116
10, 488727, Control_c, 8, 11, 117
10, 488787, Control_c, 8, 11, 119
10, 488847, Control_c, 8, 11, 120
10, 488907, Control_c, 8, 11, 122
10, 488957, Control_c, 8, 11, 123
10, 489017, Control_c, 8, 11, 124
10, 489077, Control_c, 8, 11, 126
10, 489107, Control_c, 8, 11, 127
10, 489117, Note_on_c, 8, 60, 110
10, 489117, Note_on_c, 8, 63, 110
10, 489592, Control_c, 8, 11, 40
10, 489627, Note_on_c, 8, 60, 0
10, 489627, Note_on_c, 8, 63, 0
10, 489667, Control_c, 8, 11, 41
10, 489727, Control_c, 8, 11, 42
10, 489787, Control_c, 8, 11, 43
10, 489847, Control_c, 8, 11, 44
10, 489907, Control_c, 8, 11, 45
10, 489967, Control_c, 8, 11, 46
10, 490027, Control_c, 8, 11, 47
10, 490087, Control_c, 8, 11, 48
10, 490147, Control_c, 8, 11, 49
10, 490207, Control_c, 8, 11, 50
10, 490267, Control_c, 8, 11, 51
10, 490327, Control_c, 8, 11, 52
10, 490387, Control_c, 8, 11, 53
10, 490447, Control_c, 8, 11, 54
10, 490517, Control_c, 8, 11, 55
10, 490577, Control_c, 8, 11, 56
10, 490637, Control_c, 8, 11, 57
10, 490697, Control_c, 8, 11, 58
10, 490757, Control_c, 8, 11, 59
10, 490817, Control_c, 8, 11, 60
10, 490877, Control_c, 8, 11, 61
10, 490937, Control_c, 8, 11, 62
10, 490997, Control_c, 8, 11, 63
10, 491057, Control_c, 8, 11, 64
10, 491117, Control_c, 8, 11, 65
10, 491177, Control_c, 8, 11, 66
10, 491237, Control_c, 8, 11, 67
10, 491297, Control_c, 8, 11, 68
10, 491357, Control_c, 8, 11, 69
10, 491427, Control_c, 8, 11, 70
10, 491487, Control_c, 8, 11, 71
10, 491547, Control_c, 8, 11, 72
10, 491607, Control_c, 8, 11, 73
10, 491667, Control_c, 8, 11, 74
10, 491727, Control_c, 8, 11, 75
10, 491787, Control_c, 8, 11, 76
10, 491847, Control_c, 8, 11, 77
10, 491907, Control_c, 8, 11, 78
10, 491967, Control_c, 8, 11, 79
10, 492027, Control_c, 8, 11, 80
10, 492087, Control_c, 8, 11, 81
10, 492147, Control_c, 8, 11, 82
10, 492207, Control_c, 8, 11, 83
10, 492277, Control_c, 8, 11, 84
10, 492337, Control_c, 8, 11, 85
10, 492397, Control_c, 8, 11, 86
10, 492457, Control_c, 8, 11, 87
10, 492517, Control_c, 8, 11, 88
10, 492577, Control_c, 8, 11, 89
10, 492637, Control_c, 8, 11, 90
10, 492697, Control_c, 8, 11, 91
10, 492757, Control_c, 8, 11, 92
10, 492817, Control_c, 8, 11, 93
10, 492877, Control_c, 8, 11, 94
10, 492937, Control_c, 8, 11, 95
10, 492997, Control_c, 8, 11, 96
10, 493057, Control_c, 8, 11, 97
10, 493117, Control_c, 8, 11, 98
10, 493187, Control_c, 8, 11, 99
10, 493247, Control_c, 8, 11, 100
10, 493307, Control_c, 8, 11, 101
10, 493367, Control_c, 8, 11, 102
10, 493427, Control_c, 8, 11, 103
10, 493487, Control_c, 8, 11, 104
10, 493547, Control_c, 8, 11, 105
10, 493607, Control_c, 8, 11, 106
10, 493667, Control_c, 8, 11, 107
10, 493727, Control_c, 8, 11, 108
10, 493787, Control_c, 8, 11, 109
10, 493847, Control_c, 8, 11, 110
10, 493907, Control_c, 8, 11, 111
10, 493967, Control_c, 8, 11, 112
10, 494037, Control_c, 8, 11, 113
10, 494097, Control_c, 8, 11, 114
10, 494157, Control_c, 8, 11, 115
10, 494217, Control_c, 8, 11, 116
10, 494277, Control_c, 8, 11, 117
10, 494337, Control_c, 8, 11, 118
10, 494397, Control_c, 8, 11, 119
10, 494457, Control_c, 8, 11, 120
10, 494517, Control_c, 8, 11, 121
10, 494577, Control_c, 8, 11, 122
10, 494637, Control_c, 8, 11, 123
10, 494697, Control_c, 8, 11, 124
10, 494757, Control_c, 8, 11, 125
10, 494817, Control_c, 8, 11, 126
10, 494847, Control_c, 8, 11, 127
10, 494877, Note_on_c, 8, 60, 110
10, 494877, Note_on_c, 8, 63, 110
10, 495747, Note_on_c, 8, 60, 0
10, 495747, Note_on_c, 8, 63, 0
10, 495837, Note_on_c, 8, 75, 110
10, 496707, Note_on_c, 8, 75, 0
10, 496797, Note_on_c, 8, 74, 116
10, 497667, Note_on_c, 8, 74, 0
10, 497757, Note_on_c, 8, 67, 123
10, 497757, Note_on_c, 8, 70, 123
10, 497967, Note_on_c, 8, 67, 0
10, 497967, Note_on_c, 8, 70, 0
10, 498237, Note_on_c, 8, 65, 127
10, 498237, Note_on_c, 8, 70, 127
10, 499347, Note_on_c, 8, 65, 0
10, 499347, Note_on_c, 8, 70, 0
10, 499677, Note_on_c, 8, 65, 127
10, 499677, Note_on_c, 8, 69, 127
10, 500787, Note_on_c, 8, 65, 0
10, 500787, Note_on_c, 8, 69, 0
10, 501117, Note_on_c, 8, 70, 127
10, 501592, Note_on_c, 8, 70, 0
10, 501597, Note_on_c, 8, 70, 127
10, 502072, Note_on_c, 8, 70, 0
10, 502077, Note_on_c, 8, 70, 127
10, 502552, Note_on_c, 8, 70, 0
10, 502557, Note_on_c, 8, 70, 127
10, 503032, Note_on_c, 8, 70, 0
10, 503037, Note_on_c, 8, 70, 127
10, 503512, Note_on_c, 8, 70, 0
10, 503517, Note_on_c, 8, 70, 127
10, 503992, Note_on_c, 8, 70, 0
10, 503997, Note_on_c, 8, 69, 127
10, 504472, Note_on_c, 8, 69, 0
10, 504477, Note_on_c, 8, 69, 127
10, 504952, Note_on_c, 8, 69, 0
10, 504957, Note_on_c, 8, 69, 127
10, 505432, Note_on_c, 8, 69, 0
10, 505437, Note_on_c, 8, 69, 127
10, 505912, Note_on_c, 8, 69, 0
10, 505917, Note_on_c, 8, 69, 127
10, 506392, Note_on_c, 8, 69, 0
10, 506397, Note_on_c, 8, 69, 127
10, 506872, Note_on_c, 8, 69, 0
10, 506877, Note_on_c, 8, 70, 127
10, 507352, Note_on_c, 8, 70, 0
10, 507357, Note_on_c, 8, 70, 127
10, 507832, Note_on_c, 8, 70, 0
10, 507837, Note_on_c, 8, 70, 127
10, 508312, Note_on_c, 8, 70, 0
10, 508317, Note_on_c, 8, 70, 127
10, 508792, Note_on_c, 8, 70, 0
10, 508797, Note_on_c, 8, 70, 127
10, 509272, Note_on_c, 8, 70, 0
10, 509277, Note_on_c, 8, 70, 127
10, 509752, Note_on_c, 8, 70, 0
10, 509757, Note_on_c, 8, 69, 127
10, 510232, Note_on_c, 8, 69, 0
10, 510237, Note_on_c, 8, 69, 127
10, 510712, Note_on_c, 8, 69, 0
10, 510717, Note_on_c, 8, 69, 127
10, 511192, Note_on_c, 8, 69, 0
10, 511197, Note_on_c, 8, 69, 127
10, 511672, Note_on_c, 8, 69, 0
10, 511677, Note_on_c, 8, 69, 127
10, 512152, Note_on_c, 8, 69, 0
10, 512157, Note_on_c, 8, 69, 127
10, 512632, Note_on_c, 8, 69, 0
10, 512637, Note_on_c, 8, 62, 127
10, 512637, Note_on_c, 8, 70, 127
10, 513687, Note_on_c, 8, 62, 0
10, 513687, Note_on_c, 8, 70, 0
10, 514077, Note_on_c, 8, 62, 127
10, 515127, Note_on_c, 8, 62, 0
10, 515517, Note_on_c, 8, 62, 127
10, 515517, Note_on_c, 8, 77, 127
10, 515727, Note_on_c, 8, 62, 0
10, 515727, Note_on_c, 8, 77, 0
10, 515997, Note_on_c, 8, 62, 127
10, 515997, Note_on_c, 8, 77, 127
10, 516207, Note_on_c, 8, 62, 0
10, 516207, Note_on_c, 8, 77, 0
10, 516477, Note_on_c, 8, 62, 127
10, 516477, Note_on_c, 8, 77, 127
10, 516657, Note_on_c, 8, 62, 0
10, 516657, Note_on_c, 8, 77, 0
10, 516957, Note_on_c, 8, 62, 127
10, 516957, Note_on_c, 8, 70, 127
10, 517557, Note_on_c, 8, 62, 0
10, 517557, Note_on_c, 8, 70, 0
10, 517917, Control_c, 8, 11, 80
10, 538077, Note_on_c, 8, 67, 70
10, 538557, Note_on_c, 8, 65, 70
10, 538557, Control_c, 8, 11, 80
10, 538587, Note_on_c, 8, 67, 0
10, 538597, Control_c, 8, 11, 81
10, 538627, Control_c, 8, 11, 82
10, 538657, Control_c, 8, 11, 83
10, 538687, Control_c, 8, 11, 84
10, 538717, Control_c, 8, 11, 85
10, 538747, Control_c, 8, 11, 86
10, 538777, Control_c, 8, 11, 87
10, 538807, Control_c, 8, 11, 88
10, 538837, Control_c, 8, 11, 89
10, 538867, Control_c, 8, 11, 90
10, 538897, Control_c, 8, 11, 91
10, 538927, Control_c, 8, 11, 92
10, 538957, Control_c, 8, 11, 93
10, 538987, Control_c, 8, 11, 94
10, 539017, Control_c, 8, 11, 95
10, 539057, Control_c, 8, 11, 96
10, 539087, Control_c, 8, 11, 97
10, 539117, Control_c, 8, 11, 98
10, 539147, Control_c, 8, 11, 99
10, 539177, Control_c, 8, 11, 100
10, 539207, Control_c, 8, 11, 101
10, 539237, Control_c, 8, 11, 102
10, 539267, Control_c, 8, 11, 103
10, 539297, Control_c, 8, 11, 104
10, 539327, Control_c, 8, 11, 105
10, 539357, Control_c, 8, 11, 106
10, 539387, Control_c, 8, 11, 107
10, 539417, Control_c, 8, 11, 108
10, 539447, Control_c, 8, 11, 109
10, 539477, Control_c, 8, 11, 110
10, 539507, Control_c, 8, 11, 111
10, 539517, Note_on_c, 8, 64, 70
10, 539547, Note_on_c, 8, 65, 0
10, 539547, Control_c, 8, 11, 112
10, 539577, Control_c, 8, 11, 113
10, 539607, Control_c, 8, 11, 114
10, 539637, Control_c, 8, 11, 115
10, 539667, Control_c, 8, 11, 116
10, 539697, Control_c, 8, 11, 117
10, 539727, Control_c, 8, 11, 118
10, 539757, Control_c, 8, 11, 119
10, 539787, Control_c, 8, 11, 120
10, 539817, Control_c, 8, 11, 121
10, 539847, Control_c, 8, 11, 122
10, 539877, Control_c, 8, 11, 123
10, 539907, Control_c, 8, 11, 124
10, 539937, Control_c, 8, 11, 125
10, 539967, Control_c, 8, 11, 126
10, 539997, Control_c, 8, 11, 127
10, 540027, Control_c, 8, 11, 126
10, 540057, Control_c, 8, 11, 125
10, 540087, Control_c, 8, 11, 124
10, 540117, Control_c, 8, 11, 123
10, 540147, Control_c, 8, 11, 122
10, 540177, Control_c, 8, 11, 121
10, 540207, Control_c, 8, 11, 120
10, 540237, Control_c, 8, 11, 119
10, 540267, Control_c, 8, 11, 118
10, 540297, Control_c, 8, 11, 117
10, 540327, Control_c, 8, 11, 116
10, 540357, Control_c, 8, 11, 115
10, 540387, Control_c, 8, 11, 114
10, 540417, Control_c, 8, 11, 113
10, 540447, Control_c, 8, 11, 112
10, 540477, Note_on_c, 8, 63, 70
10, 540477, Control_c, 8, 11, 111
10, 540507, Note_on_c, 8, 64, 0
10, 540507, Control_c, 8, 11, 110
10, 540537, Control_c, 8, 11, 109
10, 540567, Control_c, 8, 11, 108
10, 540597, Control_c, 8, 11, 107
10, 540627, Control_c, 8, 11, 106
10, 540657, Control_c, 8, 11, 105
10, 540687, Control_c, 8, 11, 104
10, 540717, Control_c, 8, 11, 103
10, 540747, Control_c, 8, 11, 102
10, 540777, Control_c, 8, 11, 101
10, 540807, Control_c, 8, 11, 100
10, 540837, Control_c, 8, 11, 99
10, 540867, Control_c, 8, 11, 98
10, 540897, Control_c, 8, 11, 97
10, 540927, Control_c, 8, 11, 96
10, 540957, Note_on_c, 8, 62, 70
10, 540957, Control_c, 8, 11, 95
10, 540987, Note_on_c, 8, 63, 0
10, 540987, Control_c, 8, 11, 94
10, 541017, Control_c, 8, 11, 93
10, 541047, Control_c, 8, 11, 92
10, 541077, Control_c, 8, 11, 91
10, 541107, Control_c, 8, 11, 90
10, 541137, Control_c, 8, 11, 89
10, 541167, Note_on_c, 8, 62, 0
10, 541167, Control_c, 8, 11, 88
10, 541197, Control_c, 8, 11, 87
10, 541227, Control_c, 8, 11, 86
10, 541257, Control_c, 8, 11, 85
10, 541287, Control_c, 8, 11, 84
10, 541317, Control_c, 8, 11, 83
10, 541347, Control_c, 8, 11, 82
10, 541377, Control_c, 8, 11, 81
10, 541407, Control_c, 8, 11, 80
10, 541437, Note_on_c, 8, 62, 70
10, 541917, Note_on_c, 8, 62, 0
10, 566877, Program_c, 8, 45
10, 567357, Note_on_c, 8, 60, 70
10, 567807, Note_on_c, 8, 60, 0
10, 573117, Note_on_c, 8, 60, 70
10, 573567, Note_on_c, 8, 60, 0
10, 574557, Program_c, 8, 48
10, 575277, Note_on_c, 8, 62, 60
10, 575517, Note_on_c, 8, 63, 60
10, 575547, Note_on_c, 8, 62, 0
10, 575757, Note_on_c, 8, 62, 60
10, 575787, Note_on_c, 8, 63, 0
10, 575997, Note_on_c, 8, 63, 60
10, 576027, Note_on_c, 8, 62, 0
10, 576207, Note_on_c, 8, 63, 0
10, 576717, Note_on_c, 8, 62, 60
10, 576957, Note_on_c, 8, 63, 60
10, 576987, Note_on_c, 8, 62, 0
10, 577197, Note_on_c, 8, 62, 60
10, 577227, Note_on_c, 8, 63, 0
10, 577437, Note_on_c, 8, 63, 60
10, 577467, Note_on_c, 8, 62, 0
10, 577647, Note_on_c, 8, 63, 0
10, 578157, Note_on_c, 8, 62, 60
10, 578397, Note_on_c, 8, 63, 60
10, 578427, Note_on_c, 8, 62, 0
10, 578637, Note_on_c, 8, 62, 60
10, 578667, Note_on_c, 8, 63, 0
10, 578877, Note_on_c, 8, 63, 60
10, 578907, Note_on_c, 8, 62, 0
10, 579087, Note_on_c, 8, 63, 0
10, 590397, Control_c, 8, 11, 80
10, 591427, Control_c, 8, 11, 81
10, 592457, Control_c, 8, 11, 82
10, 593487, Control_c, 8, 11, 83
10, 593517, Note_on_c, 8, 57, 69
10, 593757, Note_on_c, 8, 58, 70
10, 593787, Note_on_c, 8, 57, 0
10, 593997, Note_on_c, 8, 57, 71
10, 594027, Note_on_c, 8, 58, 0
10, 594237, Note_on_c, 8, 58, 71
10, 594267, Note_on_c, 8, 57, 0
10, 594477, Note_on_c, 8, 57, 72
10, 594507, Note_on_c, 8, 58, 0
10, 594517, Control_c, 8, 11, 84
10, 594717, Note_on_c, 8, 58, 73
10, 594747, Note_on_c, 8, 57, 0
10, 594957, Note_on_c, 8, 57, 74
10, 594987, Note_on_c, 8, 58, 0
10, 595197, Note_on_c, 8, 58, 74
10, 595227, Note_on_c, 8, 57, 0
10, 595437, Note_on_c, 8, 57, 75
10, 595467, Note_on_c, 8, 58, 0
10, 595547, Control_c, 8, 11, 85
10, 595677, Note_on_c, 8, 58, 76
10, 595707, Note_on_c, 8, 57, 0
10, 595917, Note_on_c, 8, 57, 77
10, 595947, Note_on_c, 8, 58, 0
10, 596067, Note_on_c, 8, 57, 0
10, 596157, Note_on_c, 8, 58, 77
10, 596397, Note_on_c, 8, 57, 78
10, 596427, Note_on_c, 8, 58, 0
10, 596577, Control_c, 8, 11, 86
10, 596637, Note_on_c, 8, 58, 79
10, 596667, Note_on_c, 8, 57, 0
10, 596877, Note_on_c, 8, 57, 80
10, 596907, Note_on_c, 8, 58, 0
10, 597117, Note_on_c, 8, 58, 80
10, 597147, Note_on_c, 8, 57, 0
10, 597357, Note_on_c, 8, 57, 81
10, 597387, Note_on_c, 8, 58, 0
10, 597597, Note_on_c, 8, 58, 82
10, 597597, Control_c, 8, 11, 87
10, 597627, Note_on_c, 8, 57, 0
10, 597837, Note_on_c, 8, 57, 83
10, 597867, Note_on_c, 8, 58, 0
10, 598077, Note_on_c, 8, 58, 83
10, 598107, Note_on_c, 8, 57, 0
10, 598317, Note_on_c, 8, 57, 84
10, 598347, Note_on_c, 8, 58, 0
10, 598557, Note_on_c, 8, 58, 85
10, 598587, Note_on_c, 8, 57, 0
10, 598627, Control_c, 8, 11, 88
10, 598797, Note_on_c, 8, 57, 86
10, 598827, Note_on_c, 8, 58, 0
10, 599037, Note_on_c, 8, 58, 86
10, 599067, Note_on_c, 8, 57, 0
10, 599187, Note_on_c, 8, 58, 0
10, 599277, Note_on_c, 8, 69, 87
10, 599517, Note_on_c, 8, 70, 88
10, 599547, Note_on_c, 8, 69, 0
10, 599657, Control_c, 8, 11, 89
10, 599757, Note_on_c, 8, 69, 89
10, 599787, Note_on_c, 8, 70, 0
10, 599997, Note_on_c, 8, 70, 89
10, 600027, Note_on_c, 8, 69, 0
10, 600237, Note_on_c, 8, 69, 90
10, 600267, Note_on_c, 8, 70, 0
10, 600477, Note_on_c, 8, 70, 91
10, 600507, Note_on_c, 8, 69, 0
10, 600687, Control_c, 8, 11, 90
10, 600717, Note_on_c, 8, 69, 92
10, 600747, Note_on_c, 8, 70, 0
10, 600957, Note_on_c, 8, 70, 92
10, 600987, Note_on_c, 8, 69, 0
10, 601197, Note_on_c, 8, 69, 93
10, 601227, Note_on_c, 8, 70, 0
10, 601437, Note_on_c, 8, 70, 94
10, 601467, Note_on_c, 8, 69, 0
10, 601677, Note_on_c, 8, 69, 94
10, 601707, Note_on_c, 8, 70, 0
10, 601717, Control_c, 8, 11, 91
10, 601827, Note_on_c, 8, 69, 0
10, 601917, Note_on_c, 8, 70, 95
10, 602157, Note_on_c, 8, 69, 96
10, 602187, Note_on_c, 8, 70, 0
10, 602397, Note_on_c, 8, 70, 97
10, 602427, Note_on_c, 8, 69, 0
10, 602637, Note_on_c, 8, 69, 97
10, 602667, Note_on_c, 8, 70, 0
10, 602747, Control_c, 8, 11, 92
10, 602877, Note_on_c, 8, 70, 98
10, 602907, Note_on_c, 8, 69, 0
10, 603117, Note_on_c, 8, 68, 99
10, 603147, Note_on_c, 8, 70, 0
10, 603357, Note_on_c, 8, 70, 100
10, 603387, Note_on_c, 8, 68, 0
10, 603597, Note_on_c, 8, 67, 100
10, 603627, Note_on_c, 8, 70, 0
10, 603777, Control_c, 8, 11, 93
10, 603837, Note_on_c, 8, 70, 101
10, 603867, Note_on_c, 8, 67, 0
10, 604077, Note_on_c, 8, 67, 102
10, 604107, Note_on_c, 8, 70, 0
10, 604317, Note_on_c, 8, 70, 103
10, 604347, Note_on_c, 8, 67, 0
10, 604557, Note_on_c, 8, 65, 103
10, 604587, Note_on_c, 8, 70, 0
10, 604707, Note_on_c, 8, 65, 0
10, 604797, Note_on_c, 8, 70, 104
10, 604797, Control_c, 8, 11, 94
10, 605037, Note_on_c, 8, 63, 105
10, 605067, Note_on_c, 8, 70, 0
10, 605277, Note_on_c, 8, 70, 106
10, 605307, Note_on_c, 8, 63, 0
10, 605517, Note_on_c, 8, 63, 106
10, 605547, Note_on_c, 8, 70, 0
10, 605757, Note_on_c, 8, 70, 107
10, 605787, Note_on_c, 8, 63, 0
10, 605827, Control_c, 8, 11, 95
10, 605997, Note_on_c, 8, 63, 108
10, 606027, Note_on_c, 8, 70, 0
10, 606237, Note_on_c, 8, 70, 109
10, 606267, Note_on_c, 8, 63, 0
10, 606477, Note_on_c, 8, 63, 109
10, 606507, Note_on_c, 8, 70, 0
10, 606717, Note_on_c, 8, 70, 110
10, 606747, Note_on_c, 8, 63, 0
10, 606857, Control_c, 8, 11, 96
10, 606957, Note_on_c, 8, 63, 111
10, 606987, Note_on_c, 8, 70, 0
10, 607197, Note_on_c, 8, 70, 112
10, 607227, Note_on_c, 8, 63, 0
10, 607437, Note_on_c, 8, 65, 112
10, 607467, Note_on_c, 8, 70, 0
10, 607587, Note_on_c, 8, 65, 0
10, 607677, Note_on_c, 8, 65, 113
10, 607827, Note_on_c, 8, 65, 0
10, 607887, Control_c, 8, 11, 97
10, 607917, Note_on_c, 8, 69, 114
10, 608157, Note_on_c, 8, 67, 115
10, 608187, Note_on_c, 8, 69, 0
10, 608397, Note_on_c, 8, 69, 115
10, 608427, Note_on_c, 8, 67, 0
10, 608637, Note_on_c, 8, 72, 116
10, 608667, Note_on_c, 8, 69, 0
10, 608877, Note_on_c, 8, 69, 117
10, 608907, Note_on_c, 8, 72, 0
10, 608917, Control_c, 8, 11, 98
10, 609027, Note_on_c, 8, 69, 0
10, 609117, Note_on_c, 8, 65, 118
10, 609267, Note_on_c, 8, 65, 0
10, 609357, Note_on_c, 8, 69, 118
10, 609597, Note_on_c, 8, 67, 119
10, 609627, Note_on_c, 8, 69, 0
10, 609837, Note_on_c, 8, 69, 120
10, 609867, Note_on_c, 8, 67, 0
10, 609947, Control_c, 8, 11, 99
10, 610077, Note_on_c, 8, 72, 121
10, 610107, Note_on_c, 8, 69, 0
10, 610317, Note_on_c, 8, 69, 121
10, 610347, Note_on_c, 8, 72, 0
10, 610467, Note_on_c, 8, 69, 0
10, 610557, Note_on_c, 8, 70, 122
10, 610797, Note_on_c, 8, 69, 123
10, 610827, Note_on_c, 8, 70, 0
10, 610977, Control_c, 8, 11, 100
10, 611037, Note_on_c, 8, 70, 124
10, 611067, Note_on_c, 8, 69, 0
10, 611277, Note_on_c, 8, 69, 124
10, 611307, Note_on_c, 8, 70, 0
10, 611517, Note_on_c, 8, 70, 125
10, 611547, Note_on_c, 8, 69, 0
10, 611757, Note_on_c, 8, 69, 126
10, 611787, Note_on_c, 8, 70, 0
10, 611997, Note_on_c, 8, 70, 127
10, 612027, Note_on_c, 8, 69, 0
10, 612237, Note_on_c, 8, 69, 127
10, 612267, Note_on_c, 8, 70, 0
10, 612477, Note_on_c, 8, 70, 127
10, 612507, Note_on_c, 8, 69, 0
10, 612717, Note_on_c, 8, 69, 127
10, 612747, Note_on_c, 8, 70, 0
10, 612957, Note_on_c, 8, 70, 127
10, 612987, Note_on_c, 8, 69, 0
10, 613197, Note_on_c, 8, 69, 127
10, 613227, Note_on_c, 8, 70, 0
10, 613347, Note_on_c, 8, 69, 0
10, 613437, Note_on_c, 8, 70, 127
10, 613677, Note_on_c, 8, 69, 127
10, 613707, Note_on_c, 8, 70, 0
10, 613917, Note_on_c, 8, 70, 127
10, 613947, Note_on_c, 8, 69, 0
10, 614157, Note_on_c, 8, 69, 127
10, 614187, Note_on_c, 8, 70, 0
10, 614397, Note_on_c, 8, 70, 127
10, 614427, Note_on_c, 8, 69, 0
10, 614637, Note_on_c, 8, 68, 127
10, 614667, Note_on_c, 8, 70, 0
10, 614877, Note_on_c, 8, 70, 127
10, 614907, Note_on_c, 8, 68, 0
10, 615117, Note_on_c, 8, 67, 127
10, 615147, Note_on_c, 8, 70, 0
10, 615357, Note_on_c, 8, 70, 127
10, 615387, Note_on_c, 8, 67, 0
10, 615597, Note_on_c, 8, 67, 127
10, 615627, Note_on_c, 8, 70, 0
10, 615837, Note_on_c, 8, 70, 127
10, 615867, Note_on_c, 8, 67, 0
10, 616077, Note_on_c, 8, 65, 127
10, 616107, Note_on_c, 8, 70, 0
10, 616227, Note_on_c, 8, 65, 0
10, 616317, Note_on_c, 8, 70, 127
10, 616557, Note_on_c, 8, 63, 127
10, 616587, Note_on_c, 8, 70, 0
10, 616797, Note_on_c, 8, 70, 127
10, 616827, Note_on_c, 8, 63, 0
10, 617037, Note_on_c, 8, 63, 127
10, 617067, Note_on_c, 8, 70, 0
10, 617277, Note_on_c, 8, 70, 127
10, 617307, Note_on_c, 8, 63, 0
10, 617517, Note_on_c, 8, 63, 127
10, 617547, Note_on_c, 8, 70, 0
10, 617757, Note_on_c, 8, 70, 127
10, 617787, Note_on_c, 8, 63, 0
10, 617997, Note_on_c, 8, 63, 127
10, 618027, Note_on_c, 8, 70, 0
10, 618237, Note_on_c, 8, 70, 127
10, 618267, Note_on_c, 8, 63, 0
10, 618477, Note_on_c, 8, 63, 127
10, 618507, Note_on_c, 8, 70, 0
10, 618717, Note_on_c, 8, 70, 127
10, 618747, Note_on_c, 8, 63, 0
10, 618957, Note_on_c, 8, 65, 127
10, 618987, Note_on_c, 8, 70, 0
10, 619107, Note_on_c, 8, 65, 0
10, 619197, Note_on_c, 8, 65, 127
10, 619347, Note_on_c, 8, 65, 0
10, 619437, Note_on_c, 8, 69, 127
10, 619677, Note_on_c, 8, 67, 127
10, 619707, Note_on_c, 8, 69, 0
10, 619917, Note_on_c, 8, 69, 127
10, 619947, Note_on_c, 8, 67, 0
10, 620157, Note_on_c, 8, 72, 127
10, 620187, Note_on_c, 8, 69, 0
10, 620397, Note_on_c, 8, 69, 127
10, 620427, Note_on_c, 8, 72, 0
10, 620547, Note_on_c, 8, 69, 0
10, 620637, Note_on_c, 8, 65, 127
10, 620787, Note_on_c, 8, 65, 0
10, 620877, Note_on_c, 8, 69, 127
10, 621117, Note_on_c, 8, 67, 127
10, 621147, Note_on_c, 8, 69, 0
10, 621357, Note_on_c, 8, 69, 127
10, 621387, Note_on_c, 8, 67, 0
10, 621597, Note_on_c, 8, 72, 127
10, 621627, Note_on_c, 8, 69, 0
10, 621837, Note_on_c, 8, 69, 127
10, 621867, Note_on_c, 8, 72, 0
10, 621987, Note_on_c, 8, 69, 0
10, 622077, Note_on_c, 8, 65, 127
10, 622227, Note_on_c, 8, 65, 0
10, 622317, Note_on_c, 8, 70, 127
10, 622557, Note_on_c, 8, 69, 127
10, 622587, Note_on_c, 8, 70, 0
10, 622797, Note_on_c, 8, 70, 127
10, 622827, Note_on_c, 8, 69, 0
10, 623032, Control_c, 8, 11, 127
10, 623037, Note_on_c, 8, 74, 127
10, 623067, Note_on_c, 8, 70, 0
10, 623272, Control_c, 8, 11, 100
10, 623277, Note_on_c, 8, 70, 127
10, 623307, Note_on_c, 8, 74, 0
10, 623512, Control_c, 8, 11, 127
10, 623517, Note_on_c, 8, 74, 127
10, 623547, Note_on_c, 8, 70, 0
10, 623752, Control_c, 8, 11, 100
10, 623757, Note_on_c, 8, 70, 127
10, 623787, Note_on_c, 8, 74, 0
10, 623997, Note_on_c, 8, 69, 127
10, 624027, Note_on_c, 8, 70, 0
10, 624237, Note_on_c, 8, 70, 127
10, 624267, Note_on_c, 8, 69, 0
10, 624477, Note_on_c, 8, 74, 127
10, 624507, Note_on_c, 8, 70, 0
10, 624717, Note_on_c, 8, 70, 127
10, 624747, Note_on_c, 8, 74, 0
10, 624867, Note_on_c, 8, 70, 0
10, 624957, Note_on_c, 8, 65, 127
10, 625107, Note_on_c, 8, 65, 0
10, 625197, Note_on_c, 8, 69, 127
10, 625437, Note_on_c, 8, 67, 127
10, 625467, Note_on_c, 8, 69, 0
10, 625677, Note_on_c, 8, 69, 127
10, 625707, Note_on_c, 8, 67, 0
10, 625912, Control_c, 8, 11, 127
10, 625917, Note_on_c, 8, 72, 127
10, 625947, Note_on_c, 8, 69, 0
10, 626152, Control_c, 8, 11, 100
10, 626157, Note_on_c, 8, 69, 127
10, 626187, Note_on_c, 8, 72, 0
10, 626392, Control_c, 8, 11, 127
10, 626397, Note_on_c, 8, 72, 127
10, 626427, Note_on_c, 8, 69, 0
10, 626632, Control_c, 8, 11, 100
10, 626637, Note_on_c, 8, 69, 127
10, 626667, Note_on_c, 8, 72, 0
10, 626877, Note_on_c, 8, 67, 127
10, 626907, Note_on_c, 8, 69, 0
10, 627117, Note_on_c, 8, 69, 127
10, 627147, Note_on_c, 8, 67, 0
10, 627357, Note_on_c, 8, 72, 127
10, 627387, Note_on_c, 8, 69, 0
10, 627597, Note_on_c, 8, 69, 127
10, 627627, Note_on_c, 8, 72, 0
10, 627747, Note_on_c, 8, 69, 0
10, 627837, Note_on_c, 8, 65, 127
10, 627987, Note_on_c, 8, 65, 0
10, 628077, Note_on_c, 8, 70, 127
10, 628317, Note_on_c, 8, 69, 127
10, 628347, Note_on_c, 8, 70, 0
10, 628557, Note_on_c, 8, 70, 127
10, 628587, Note_on_c, 8, 69, 0
10, 628797, Note_on_c, 8, 74, 127
10, 628797, Control_c, 8, 11, 100
10, 628827, Note_on_c, 8, 70, 0
10, 629027, Control_c, 8, 11, 99
10, 629037, Note_on_c, 8, 70, 124
10, 629067, Note_on_c, 8, 74, 0
10, 629257, Control_c, 8, 11, 98
10, 629277, Note_on_c, 8, 74, 121
10, 629307, Note_on_c, 8, 70, 0
10, 629487, Control_c, 8, 11, 97
10, 629517, Note_on_c, 8, 70, 117
10, 629547, Note_on_c, 8, 74, 0
10, 629717, Control_c, 8, 11, 96
10, 629757, Note_on_c, 8, 69, 114
10, 629787, Note_on_c, 8, 70, 0
10, 629947, Control_c, 8, 11, 95
10, 629997, Note_on_c, 8, 70, 111
10, 630027, Note_on_c, 8, 69, 0
10, 630177, Control_c, 8, 11, 94
10, 630237, Note_on_c, 8, 74, 107
10, 630267, Note_on_c, 8, 70, 0
10, 630397, Control_c, 8, 11, 93
10, 630477, Note_on_c, 8, 70, 104
10, 630507, Note_on_c, 8, 74, 0
10, 630627, Note_on_c, 8, 70, 0
10, 630627, Control_c, 8, 11, 92
10, 630717, Note_on_c, 8, 65, 101
10, 630857, Control_c, 8, 11, 91
10, 630867, Note_on_c, 8, 65, 0
10, 630957, Note_on_c, 8, 69, 97
10, 631087, Control_c, 8, 11, 90
10, 631197, Note_on_c, 8, 67, 94
10, 631227, Note_on_c, 8, 69, 0
10, 631317, Control_c, 8, 11, 89
10, 631437, Note_on_c, 8, 69, 91
10, 631467, Note_on_c, 8, 67, 0
10, 631547, Control_c, 8, 11, 88
10, 631677, Note_on_c, 8, 72, 87
10, 631707, Note_on_c, 8, 69, 0
10, 631777, Control_c, 8, 11, 87
10, 631917, Note_on_c, 8, 69, 84
10, 631947, Note_on_c, 8, 72, 0
10, 631997, Control_c, 8, 11, 86
10, 632157, Note_on_c, 8, 72, 81
10, 632187, Note_on_c, 8, 69, 0
10, 632227, Control_c, 8, 11, 85
10, 632397, Note_on_c, 8, 69, 77
10, 632427, Note_on_c, 8, 72, 0
10, 632457, Control_c, 8, 11, 84
10, 632637, Note_on_c, 8, 67, 74
10, 632667, Note_on_c, 8, 69, 0
10, 632687, Control_c, 8, 11, 83
10, 632877, Note_on_c, 8, 69, 71
10, 632907, Note_on_c, 8, 67, 0
10, 632917, Control_c, 8, 11, 82
10, 633117, Note_on_c, 8, 72, 67
10, 633147, Note_on_c, 8, 69, 0
10, 633147, Control_c, 8, 11, 81
10, 633357, Note_on_c, 8, 69, 64
10, 633377, Control_c, 8, 11, 80
10, 633387, Note_on_c, 8, 72, 0
10, 633507, Note_on_c, 8, 69, 0
10, 633597, Note_on_c, 8, 74, 60
10, 633747, Note_on_c, 8, 74, 0
10, 639357, Note_on_c, 8, 58, 70
10, 639747, Note_on_c, 8, 58, 0
10, 639837, Note_on_c, 8, 64, 76
10, 639837, Control_c, 8, 11, 80
10, 639927, Control_c, 8, 11, 81
10, 640007, Control_c, 8, 11, 82
10, 640087, Control_c, 8, 11, 83
10, 640167, Control_c, 8, 11, 84
10, 640247, Control_c, 8, 11, 85
10, 640317, Note_on_c, 8, 65, 82
10, 640337, Control_c, 8, 11, 86
10, 640347, Note_on_c, 8, 64, 0
10, 640417, Control_c, 8, 11, 87
10, 640497, Control_c, 8, 11, 88
10, 640527, Note_on_c, 8, 65, 0
10, 640577, Control_c, 8, 11, 89
10, 640657, Control_c, 8, 11, 90
10, 640737, Control_c, 8, 11, 91
10, 640797, Note_on_c, 8, 65, 89
10, 640827, Control_c, 8, 11, 92
10, 640907, Control_c, 8, 11, 93
10, 640987, Control_c, 8, 11, 94
10, 641067, Control_c, 8, 11, 95
10, 641147, Control_c, 8, 11, 96
10, 641227, Control_c, 8, 11, 97
10, 641277, Note_on_c, 8, 66, 95
10, 641307, Note_on_c, 8, 65, 0
10, 641317, Control_c, 8, 11, 98
10, 641397, Control_c, 8, 11, 99
10, 641477, Control_c, 8, 11, 100
10, 641487, Note_on_c, 8, 66, 0
10, 641557, Control_c, 8, 11, 101
10, 641637, Control_c, 8, 11, 102
10, 641717, Control_c, 8, 11, 103
10, 641757, Note_on_c, 8, 66, 101
10, 641807, Control_c, 8, 11, 104
10, 641887, Control_c, 8, 11, 105
10, 641967, Control_c, 8, 11, 106
10, 642047, Control_c, 8, 11, 107
10, 642127, Control_c, 8, 11, 108
10, 642207, Control_c, 8, 11, 109
10, 642237, Note_on_c, 8, 67, 108
10, 642267, Note_on_c, 8, 66, 0
10, 642297, Control_c, 8, 11, 110
10, 642377, Control_c, 8, 11, 111
10, 642447, Note_on_c, 8, 67, 0
10, 642457, Control_c, 8, 11, 112
10, 642537, Control_c, 8, 11, 113
10, 642617, Control_c, 8, 11, 114
10, 642697, Control_c, 8, 11, 115
10, 642717, Note_on_c, 8, 67, 114
10, 642787, Control_c, 8, 11, 116
10, 642867, Control_c, 8, 11, 117
10, 642947, Control_c, 8, 11, 118
10, 643027, Control_c, 8, 11, 119
10, 643107, Control_c, 8, 11, 120
10, 643187, Control_c, 8, 11, 121
10, 643197, Note_on_c, 8, 68, 120
10, 643227, Note_on_c, 8, 67, 0
10, 643277, Control_c, 8, 11, 122
10, 643357, Control_c, 8, 11, 123
10, 643407, Note_on_c, 8, 68, 0
10, 643437, Control_c, 8, 11, 124
10, 643517, Control_c, 8, 11, 125
10, 643597, Control_c, 8, 11, 126
10, 643667, Control_c, 8, 11, 127
10, 643677, Note_on_c, 8, 68, 127
10, 644157, Note_on_c, 8, 69, 127
10, 644187, Note_on_c, 8, 68, 0
10, 644367, Note_on_c, 8, 69, 0
10, 644637, Note_on_c, 8, 75, 127
10, 645117, Note_on_c, 8, 74, 127
10, 645147, Note_on_c, 8, 75, 0
10, 645507, Note_on_c, 8, 74, 0
10, 645597, Note_on_c, 8, 65, 127
10, 645597, Note_on_c, 8, 74, 127
10, 646287, Note_on_c, 8, 65, 0
10, 646287, Note_on_c, 8, 74, 0
10, 646557, Note_on_c, 8, 65, 127
10, 646557, Note_on_c, 8, 74, 127
10, 647247, Note_on_c, 8, 65, 0
10, 647247, Note_on_c, 8, 74, 0
10, 647517, Note_on_c, 8, 65, 127
10, 647517, Note_on_c, 8, 74, 127
10, 647667, Note_on_c, 8, 65, 0
10, 647667, Note_on_c, 8, 74, 0
10, 647997, Note_on_c, 8, 65, 127
10, 647997, Note_on_c, 8, 75, 127
10, 648687, Note_on_c, 8, 65, 0
10, 648687, Note_on_c, 8, 75, 0
10, 648957, Note_on_c, 8, 65, 127
10, 648957, Note_on_c, 8, 75, 127
10, 649107, Note_on_c, 8, 65, 0
10, 649107, Note_on_c, 8, 75, 0
10, 649437, Note_on_c, 8, 65, 127
10, 649437, Note_on_c, 8, 75, 127
10, 650037, Note_on_c, 8, 65, 0
10, 650037, Note_on_c, 8, 75, 0
10, 652317, Control_c, 8, 11, 80
10, 653277, Note_on_c, 8, 66, 70
10, 653757, Note_on_c, 8, 63, 70
10, 653787, Note_on_c, 8, 66, 0
10, 654237, Note_on_c, 8, 60, 70
10, 654267, Note_on_c, 8, 63, 0
10, 654747, Note_on_c, 8, 60, 0
10, 659037, Note_on_c, 8, 68, 70
10, 659517, Note_on_c, 8, 65, 70
10, 659547, Note_on_c, 8, 68, 0
10, 659997, Note_on_c, 8, 62, 70
10, 660027, Note_on_c, 8, 65, 0
10, 660507, Note_on_c, 8, 62, 0
10, 664792, Control_c, 8, 11, 40
10, 666947, Control_c, 8, 11, 41
10, 667007, Control_c, 8, 11, 43
10, 667067, Control_c, 8, 11, 44
10, 667127, Control_c, 8, 11, 45
10, 667177, Control_c, 8, 11, 47
10, 667237, Control_c, 8, 11, 48
10, 667297, Control_c, 8, 11, 49
10, 667357, Control_c, 8, 11, 51
10, 667407, Control_c, 8, 11, 52
10, 667467, Control_c, 8, 11, 53
10, 667527, Control_c, 8, 11, 55
10, 667587, Control_c, 8, 11, 56
10, 667637, Control_c, 8, 11, 57
10, 667697, Control_c, 8, 11, 59
10, 667757, Control_c, 8, 11, 60
10, 667817, Control_c, 8, 11, 62
10, 667867, Control_c, 8, 11, 63
10, 667927, Control_c, 8, 11, 64
10, 667987, Control_c, 8, 11, 66
10, 668047, Control_c, 8, 11, 67
10, 668097, Control_c, 8, 11, 68
10, 668157, Control_c, 8, 11, 70
10, 668217, Control_c, 8, 11, 71
10, 668277, Control_c, 8, 11, 73
10, 668327, Control_c, 8, 11, 74
10, 668387, Control_c, 8, 11, 75
10, 668447, Control_c, 8, 11, 77
10, 668507, Control_c, 8, 11, 78
10, 668557, Control_c, 8, 11, 79
10, 668617, Control_c, 8, 11, 81
10, 668677, Control_c, 8, 11, 82
10, 668737, Control_c, 8, 11, 83
10, 668787, Control_c, 8, 11, 85
10, 668847, Control_c, 8, 11, 86
10, 668907, Control_c, 8, 11, 87
10, 668967, Control_c, 8, 11, 89
10, 669017, Control_c, 8, 11, 90
10, 669077, Control_c, 8, 11, 92
10, 669137, Control_c, 8, 11, 93
10, 669197, Control_c, 8, 11, 94
10, 669247, Control_c, 8, 11, 96
10, 669307, Control_c, 8, 11, 97
10, 669367, Control_c, 8, 11, 98
10, 669427, Control_c, 8, 11, 100
10, 669477, Control_c, 8, 11, 101
10, 669537, Control_c, 8, 11, 102
10, 669597, Control_c, 8, 11, 104
10, 669657, Control_c, 8, 11, 105
10, 669707, Control_c, 8, 11, 106
10, 669767, Control_c, 8, 11, 108
10, 669827, Control_c, 8, 11, 109
10, 669887, Control_c, 8, 11, 111
10, 669937, Control_c, 8, 11, 112
10, 669997, Control_c, 8, 11, 113
10, 670057, Control_c, 8, 11, 115
10, 670117, Control_c, 8, 11, 116
10, 670167, Control_c, 8, 11, 117
10, 670227, Control_c, 8, 11, 119
10, 670287, Control_c, 8, 11, 120
10, 670347, Control_c, 8, 11, 122
10, 670397, Control_c, 8, 11, 123
10, 670457, Control_c, 8, 11, 124
10, 670517, Control_c, 8, 11, 126
10, 670547, Control_c, 8, 11, 127
10, 670557, Note_on_c, 8, 60, 110
10, 670557, Note_on_c, 8, 63, 110
10, 671032, Control_c, 8, 11, 40
10, 671067, Note_on_c, 8, 60, 0
10, 671067, Note_on_c, 8, 63, 0
10, 671107, Control_c, 8, 11, 41
10, 671167, Control_c, 8, 11, 42
10, 671227, Control_c, 8, 11, 43
10, 671287, Control_c, 8, 11, 44
10, 671347, Control_c, 8, 11, 45
10, 671407, Control_c, 8, 11, 46
10, 671467, Control_c, 8, 11, 47
10, 671527, Control_c, 8, 11, 48
10, 671587, Control_c, 8, 11, 49
10, 671647, Control_c, 8, 11, 50
10, 671707, Control_c, 8, 11, 51
10, 671767, Control_c, 8, 11, 52
10, 671827, Control_c, 8, 11, 53
10, 671887, Control_c, 8, 11, 54
10, 671957, Control_c, 8, 11, 55
10, 672017, Control_c, 8, 11, 56
10, 672077, Control_c, 8, 11, 57
10, 672137, Control_c, 8, 11, 58
10, 672197, Control_c, 8, 11, 59
10, 672257, Control_c, 8, 11, 60
10, 672317, Control_c, 8, 11, 61
10, 672377, Control_c, 8, 11, 62
10, 672437, Control_c, 8, 11, 63
10, 672497, Control_c, 8, 11, 64
10, 672557, Control_c, 8, 11, 65
10, 672617, Control_c, 8, 11, 66
10, 672677, Control_c, 8, 11, 67
10, 672737, Control_c, 8, 11, 68
10, 672797, Control_c, 8, 11, 69
10, 672867, Control_c, 8, 11, 70
10, 672927, Control_c, 8, 11, 71
10, 672987, Control_c, 8, 11, 72
10, 673047, Control_c, 8, 11, 73
10, 673107, Control_c, 8, 11, 74
10, 673167, Control_c, 8, 11, 75
10, 673227, Control_c, 8, 11, 76
10, 673287, Control_c, 8, 11, 77
10, 673347, Control_c, 8, 11, 78
10, 673407, Control_c, 8, 11, 79
10, 673467, Control_c, 8, 11, 80
10, 673527, Control_c, 8, 11, 81
10, 673587, Control_c, 8, 11, 82
10, 673647, Control_c, 8, 11, 83
10, 673717, Control_c, 8, 11, 84
10, 673777, Control_c, 8, 11, 85
10, 673837, Control_c, 8, 11, 86
10, 673897, Control_c, 8, 11, 87
10, 673957, Control_c, 8, 11, 88
10, 674017, Control_c, 8, 11, 89
10, 674077, Control_c, 8, 11, 90
10, 674137, Control_c, 8, 11, 91
10, 674197, Control_c, 8, 11, 92
10, 674257, Control_c, 8, 11, 93
10, 674317, Control_c, 8, 11, 94
10, 674377, Control_c, 8, 11, 95
10, 674437, Control_c, 8, 11, 96
10, 674497, Control_c, 8, 11, 97
10, 674557, Control_c, 8, 11, 98
10, 674627, Control_c, 8, 11, 99
10, 674687, Control_c, 8, 11, 100
10, 674747, Control_c, 8, 11, 101
10, 674807, Control_c, 8, 11, 102
10, 674867, Control_c, 8, 11, 103
10, 674927, Control_c, 8, 11, 104
10, 674987, Control_c, 8, 11, 105
10, 675047, Control_c, 8, 11, 106
10, 675107, Control_c, 8, 11, 107
10, 675167, Control_c, 8, 11, 108
10, 675227, Control_c, 8, 11, 109
10, 675287, Control_c, 8, 11, 110
10, 675347, Control_c, 8, 11, 111
10, 675407, Control_c, 8, 11, 112
10, 675477, Control_c, 8, 11, 113
10, 675537, Control_c, 8, 11, 114
10, 675597, Control_c, 8, 11, 115
10, 675657, Control_c, 8, 11, 116
10, 675717, Control_c, 8, 11, 117
10, 675777, Control_c, 8, 11, 118
10, 675837, Control_c, 8, 11, 119
10, 675897, Control_c, 8, 11, 120
10, 675957, Control_c, 8, 11, 121
10, 676017, Control_c, 8, 11, 122
10, 676077, Control_c, 8, 11, 123
10, 676137, Control_c, 8, 11, 124
10, 676197, Control_c, 8, 11, 125
10, 676257, Control_c, 8, 11, 126
10, 676287, Control_c, 8, 11, 127
10, 676317, Note_on_c, 8, 60, 110
10, 676317, Note_on_c, 8, 63, 110
10, 677187, Note_on_c, 8, 60, 0
10, 677187, Note_on_c, 8, 63, 0
10, 677277, Note_on_c, 8, 75, 110
10, 678147, Note_on_c, 8, 75, 0
10, 678237, Note_on_c, 8, 74, 116
10, 679107, Note_on_c, 8, 74, 0
10, 679197, Note_on_c, 8, 67, 123
10, 679197, Note_on_c, 8, 70, 123
10, 679407, Note_on_c, 8, 67, 0
10, 679407, Note_on_c, 8, 70, 0
10, 679677, Note_on_c, 8, 65, 127
10, 679677, Note_on_c, 8, 70, 127
10, 680787, Note_on_c, 8, 65, 0
10, 680787, Note_on_c, 8, 70, 0
10, 681117, Note_on_c, 8, 65, 127
10, 681117, Note_on_c, 8, 69, 127
10, 682227, Note_on_c, 8, 65, 0
10, 682227, Note_on_c, 8, 69, 0
10, 682557, Note_on_c, 8, 70, 127
10, 683032, Note_on_c, 8, 70, 0
10, 683037, Note_on_c, 8, 70, 127
10, 683512, Note_on_c, 8, 70, 0
10, 683517, Note_on_c, 8, 70, 127
10, 683992, Note_on_c, 8, 70, 0
10, 683997, Note_on_c, 8, 70, 127
10, 684472, Note_on_c, 8, 70, 0
10, 684477, Note_on_c, 8, 70, 127
10, 684952, Note_on_c, 8, 70, 0
10, 684957, Note_on_c, 8, 70, 127
10, 685432, Note_on_c, 8, 70, 0
10, 685437, Note_on_c, 8, 69, 127
10, 685912, Note_on_c, 8, 69, 0
10, 685917, Note_on_c, 8, 69, 127
10, 686392, Note_on_c, 8, 69, 0
10, 686397, Note_on_c, 8, 69, 127
10, 686872, Note_on_c, 8, 69, 0
10, 686877, Note_on_c, 8, 69, 127
10, 687352, Note_on_c, 8, 69, 0
10, 687357, Note_on_c, 8, 69, 127
10, 687832, Note_on_c, 8, 69, 0
10, 687837, Note_on_c, 8, 69, 127
10, 688312, Note_on_c, 8, 69, 0
10, 688317, Note_on_c, 8, 70, 127
10, 688792, Note_on_c, 8, 70, 0
10, 688797, Note_on_c, 8, 70, 127
10, 689272, Note_on_c, 8, 70, 0
10, 689277, Note_on_c, 8, 70, 127
10, 689752, Note_on_c, 8, 70, 0
10, 689757, Note_on_c, 8, 70, 127
10, 690232, Note_on_c, 8, 70, 0
10, 690237, Note_on_c, 8, 70, 127
10, 690712, Note_on_c, 8, 70, 0
10, 690717, Note_on_c, 8, 70, 127
10, 691192, Note_on_c, 8, 70, 0
10, 691197, Note_on_c, 8, 69, 127
10, 691672, Note_on_c, 8, 69, 0
10, 691677, Note_on_c, 8, 69, 127
10, 692152, Note_on_c, 8, 69, 0
10, 692157, Note_on_c, 8, 69, 127
10, 692632, Note_on_c, 8, 69, 0
10, 692637, Note_on_c, 8, 69, 127
10, 693112, Note_on_c, 8, 69, 0
10, 693117, Note_on_c, 8, 69, 127
10, 693592, Note_on_c, 8, 69, 0
10, 693597, Note_on_c, 8, 69, 127
10, 694072, Note_on_c, 8, 69, 0
10, 694077, Note_on_c, 8, 62, 127
10, 694077, Note_on_c, 8, 70, 127
10, 695127, Note_on_c, 8, 62, 0
10, 695127, Note_on_c, 8, 70, 0
10, 695517, Note_on_c, 8, 62, 127
10, 696567, Note_on_c, 8, 62, 0
10, 696957, Note_on_c, 8, 62, 127
10, 696957, Note_on_c, 8, 77, 127
10, 697167, Note_on_c, 8, 62, 0
10, 697167, Note_on_c, 8, 77, 0
10, 697437, Note_on_c, 8, 62, 127
10, 697437, Note_on_c, 8, 77, 127
10, 697647, Note_on_c, 8, 62, 0
10, 697647, Note_on_c, 8, 77, 0
10, 697917, Note_on_c, 8, 62, 127
10, 697917, Note_on_c, 8, 77, 127
10, 698097, Note_on_c, 8, 62, 0
10, 698097, Note_on_c, 8, 77, 0
10, 698397, Note_on_c, 8, 62, 127
10, 698397, Note_on_c, 8, 70, 127
10, 698997, Note_on_c, 8, 62, 0
10, 698997, Note_on_c, 8, 70, 0
10, 698997, End_track
11, 0, Start_track
11, 0, Channel_prefix, 10
11, 0, Title_t, "Viola   "
11, 0, Instrument_name_t, "Viola   "
11, 2400, Note_on_c, 10, 53, 127
11, 2880, Note_on_c, 10, 58, 127
11, 2910, Note_on_c, 10, 53, 0
11, 3090, Note_on_c, 10, 58, 0
11, 3360, Note_on_c, 10, 53, 127
11, 4050, Note_on_c, 10, 53, 0
11, 4320, Note_on_c, 10, 53, 127
11, 4950, Note_on_c, 10, 53, 0
11, 5280, Note_on_c, 10, 53, 127
11, 5430, Note_on_c, 10, 53, 0
11, 5760, Note_on_c, 10, 53, 127
11, 6450, Note_on_c, 10, 53, 0
11, 6720, Note_on_c, 10, 53, 127
11, 6870, Note_on_c, 10, 53, 0
11, 7200, Note_on_c, 10, 53, 127
11, 7800, Note_on_c, 10, 53, 0
11, 8640, Control_c, 10, 11, 80
11, 12000, Note_on_c, 10, 60, 60
11, 12480, Note_on_c, 10, 57, 60
11, 12510, Note_on_c, 10, 60, 0
11, 12960, Note_on_c, 10, 54, 60
11, 12990, Note_on_c, 10, 57, 0
11, 13440, Note_on_c, 10, 53, 60
11, 13470, Note_on_c, 10, 54, 0
11, 13920, Note_on_c, 10, 51, 60
11, 13950, Note_on_c, 10, 53, 0
11, 14400, Note_on_c, 10, 49, 60
11, 14430, Note_on_c, 10, 51, 0
11, 14850, Note_on_c, 10, 49, 0
11, 17760, Note_on_c, 10, 55, 60
11, 18240, Note_on_c, 10, 52, 60
11, 18270, Note_on_c, 10, 55, 0
11, 18720, Note_on_c, 10, 49, 60
11, 18750, Note_on_c, 10, 52, 0
11, 19200, Note_on_c, 10, 48, 60
11, 19230, Note_on_c, 10, 49, 0
11, 19680, Note_on_c, 10, 55, 60
11, 19710, Note_on_c, 10, 48, 0
11, 20160, Note_on_c, 10, 53, 60
11, 20160, Control_c, 10, 11, 80
11, 20190, Note_on_c, 10, 55, 0
11, 20290, Control_c, 10, 11, 81
11, 20370, Note_on_c, 10, 53, 0
11, 20410, Control_c, 10, 11, 82
11, 20530, Control_c, 10, 11, 83
11, 20640, Note_on_c, 10, 48, 65
11, 20640, Note_on_c, 10, 55, 65
11, 20660, Control_c, 10, 11, 84
11, 20780, Control_c, 10, 11, 85
11, 20900, Control_c, 10, 11, 86
11, 21020, Control_c, 10, 11, 87
11, 21150, Control_c, 10, 11, 88
11, 21270, Control_c, 10, 11, 89
11, 21390, Control_c, 10, 11, 90
11, 21510, Control_c, 10, 11, 91
11, 21570, Note_on_c, 10, 48, 0
11, 21570, Note_on_c, 10, 55, 0
11, 21600, Note_on_c, 10, 53, 76
11, 21600, Note_on_c, 10, 57, 76
11, 21640, Control_c, 10, 11, 92
11, 21760, Control_c, 10, 11, 93
11, 21880, Control_c, 10, 11, 94
11, 22000, Control_c, 10, 11, 95
11, 22130, Control_c, 10, 11, 96
11, 22250, Control_c, 10, 11, 97
11, 22290, Note_on_c, 10, 53, 0
11, 22290, Note_on_c, 10, 57, 0
11, 22370, Control_c, 10, 11, 98
11, 22490, Control_c, 10, 11, 99
11, 22560, Note_on_c, 10, 53, 87
11, 22560, Note_on_c, 10, 58, 87
11, 22620, Control_c, 10, 11, 100
11, 22740, Control_c, 10, 11, 101
11, 22860, Control_c, 10, 11, 102
11, 22980, Control_c, 10, 11, 103
11, 23110, Control_c, 10, 11, 104
11, 23230, Control_c, 10, 11, 105
11, 23250, Note_on_c, 10, 53, 0
11, 23250, Note_on_c, 10, 58, 0
11, 23350, Control_c, 10, 11, 106
11, 23470, Control_c, 10, 11, 107
11, 23520, Note_on_c, 10, 53, 99
11, 23520, Note_on_c, 10, 60, 99
11, 23600, Control_c, 10, 11, 108
11, 23720, Control_c, 10, 11, 109
11, 23840, Control_c, 10, 11, 110
11, 23960, Control_c, 10, 11, 111
11, 24090, Control_c, 10, 11, 112
11, 24210, Note_on_c, 10, 53, 0
11, 24210, Note_on_c, 10, 60, 0
11, 24210, Control_c, 10, 11, 113
11, 24330, Control_c, 10, 11, 114
11, 24450, Control_c, 10, 11, 115
11, 24480, Note_on_c, 10, 53, 110
11, 24580, Control_c, 10, 11, 116
11, 24700, Control_c, 10, 11, 117
11, 24820, Control_c, 10, 11, 118
11, 24940, Control_c, 10, 11, 119
11, 24990, Note_on_c, 10, 53, 0
11, 25070, Control_c, 10, 11, 120
11, 25190, Control_c, 10, 11, 121
11, 25310, Control_c, 10, 11, 122
11, 25430, Control_c, 10, 11, 123
11, 25440, Note_on_c, 10, 60, 121
11, 25560, Control_c, 10, 11, 124
11, 25590, Note_on_c, 10, 60, 0
11, 25680, Control_c, 10, 11, 125
11, 25800, Control_c, 10, 11, 126
11, 25890, Control_c, 10, 11, 127
11, 25920, Note_on_c, 10, 53, 127
11, 25920, Note_on_c, 10, 60, 127
11, 27090, Note_on_c, 10, 53, 0
11, 27090, Note_on_c, 10, 60, 0
11, 27360, Note_on_c, 10, 53, 127
11, 27360, Note_on_c, 10, 60, 127
11, 28530, Note_on_c, 10, 53, 0
11, 28530, Note_on_c, 10, 60, 0
11, 28800, Note_on_c, 10, 53, 127
11, 28800, Note_on_c, 10, 60, 127
11, 29010, Note_on_c, 10, 53, 0
11, 29010, Note_on_c, 10, 60, 0
11, 29280, Note_on_c, 10, 53, 127
11, 29280, Note_on_c, 10, 60, 127
11, 29490, Note_on_c, 10, 53, 0
11, 29490, Note_on_c, 10, 60, 0
11, 29760, Note_on_c, 10, 53, 127
11, 29760, Note_on_c, 10, 60, 127
11, 29970, Note_on_c, 10, 53, 0
11, 29970, Note_on_c, 10, 60, 0
11, 30240, Note_on_c, 10, 53, 127
11, 30240, Note_on_c, 10, 60, 127
11, 30600, Note_on_c, 10, 53, 0
11, 30600, Note_on_c, 10, 60, 0
11, 31200, Note_on_c, 10, 53, 127
11, 31680, Note_on_c, 10, 58, 127
11, 31710, Note_on_c, 10, 53, 0
11, 31890, Note_on_c, 10, 58, 0
11, 32160, Note_on_c, 10, 53, 127
11, 32850, Note_on_c, 10, 53, 0
11, 33120, Note_on_c, 10, 53, 127
11, 33750, Note_on_c, 10, 53, 0
11, 34080, Note_on_c, 10, 53, 127
11, 34230, Note_on_c, 10, 53, 0
11, 34560, Note_on_c, 10, 53, 127
11, 35250, Note_on_c, 10, 53, 0
11, 35520, Note_on_c, 10, 53, 127
11, 35670, Note_on_c, 10, 53, 0
11, 36000, Note_on_c, 10, 53, 127
11, 36600, Note_on_c, 10, 53, 0
11, 37440, Control_c, 10, 11, 80
11, 40800, Note_on_c, 10, 60, 60
11, 41280, Note_on_c, 10, 57, 60
11, 41310, Note_on_c, 10, 60, 0
11, 41760, Note_on_c, 10, 54, 60
11, 41790, Note_on_c, 10, 57, 0
11, 42240, Note_on_c, 10, 53, 60
11, 42270, Note_on_c, 10, 54, 0
11, 42720, Note_on_c, 10, 51, 60
11, 42750, Note_on_c, 10, 53, 0
11, 43200, Note_on_c, 10, 49, 60
11, 43230, Note_on_c, 10, 51, 0
11, 43650, Note_on_c, 10, 49, 0
11, 46560, Note_on_c, 10, 55, 60
11, 47040, Note_on_c, 10, 52, 60
11, 47070, Note_on_c, 10, 55, 0
11, 47520, Note_on_c, 10, 49, 60
11, 47550, Note_on_c, 10, 52, 0
11, 48000, Note_on_c, 10, 48, 60
11, 48030, Note_on_c, 10, 49, 0
11, 48480, Note_on_c, 10, 55, 60
11, 48510, Note_on_c, 10, 48, 0
11, 48960, Note_on_c, 10, 53, 60
11, 48960, Control_c, 10, 11, 80
11, 48990, Note_on_c, 10, 55, 0
11, 49090, Control_c, 10, 11, 81
11, 49170, Note_on_c, 10, 53, 0
11, 49210, Control_c, 10, 11, 82
11, 49330, Control_c, 10, 11, 83
11, 49440, Note_on_c, 10, 48, 65
11, 49440, Note_on_c, 10, 55, 65
11, 49460, Control_c, 10, 11, 84
11, 49580, Control_c, 10, 11, 85
11, 49700, Control_c, 10, 11, 86
11, 49820, Control_c, 10, 11, 87
11, 49950, Control_c, 10, 11, 88
11, 50070, Control_c, 10, 11, 89
11, 50190, Control_c, 10, 11, 90
11, 50310, Control_c, 10, 11, 91
11, 50370, Note_on_c, 10, 48, 0
11, 50370, Note_on_c, 10, 55, 0
11, 50400, Note_on_c, 10, 53, 76
11, 50400, Note_on_c, 10, 57, 76
11, 50440, Control_c, 10, 11, 92
11, 50560, Control_c, 10, 11, 93
11, 50680, Control_c, 10, 11, 94
11, 50800, Control_c, 10, 11, 95
11, 50930, Control_c, 10, 11, 96
11, 51050, Control_c, 10, 11, 97
11, 51090, Note_on_c, 10, 53, 0
11, 51090, Note_on_c, 10, 57, 0
11, 51170, Control_c, 10, 11, 98
11, 51290, Control_c, 10, 11, 99
11, 51360, Note_on_c, 10, 53, 87
11, 51360, Note_on_c, 10, 58, 87
11, 51420, Control_c, 10, 11, 100
11, 51540, Control_c, 10, 11, 101
11, 51660, Control_c, 10, 11, 102
11, 51780, Control_c, 10, 11, 103
11, 51910, Control_c, 10, 11, 104
11, 52030, Control_c, 10, 11, 105
11, 52050, Note_on_c, 10, 53, 0
11, 52050, Note_on_c, 10, 58, 0
11, 52150, Control_c, 10, 11, 106
11, 52270, Control_c, 10, 11, 107
11, 52320, Note_on_c, 10, 53, 99
11, 52320, Note_on_c, 10, 60, 99
11, 52400, Control_c, 10, 11, 108
11, 52520, Control_c, 10, 11, 109
11, 52640, Control_c, 10, 11, 110
11, 52760, Control_c, 10, 11, 111
11, 52890, Control_c, 10, 11, 112
11, 53010, Note_on_c, 10, 53, 0
11, 53010, Note_on_c, 10, 60, 0
11, 53010, Control_c, 10, 11, 113
11, 53130, Control_c, 10, 11, 114
11, 53250, Control_c, 10, 11, 115
11, 53280, Note_on_c, 10, 53, 110
11, 53380, Control_c, 10, 11, 116
11, 53500, Control_c, 10, 11, 117
11, 53620, Control_c, 10, 11, 118
11, 53740, Control_c, 10, 11, 119
11, 53790, Note_on_c, 10, 53, 0
11, 53870, Control_c, 10, 11, 120
11, 53990, Control_c, 10, 11, 121
11, 54110, Control_c, 10, 11, 122
11, 54230, Control_c, 10, 11, 123
11, 54240, Note_on_c, 10, 60, 121
11, 54360, Control_c, 10, 11, 124
11, 54390, Note_on_c, 10, 60, 0
11, 54480, Control_c, 10, 11, 125
11, 54600, Control_c, 10, 11, 126
11, 54690, Control_c, 10, 11, 127
11, 54720, Note_on_c, 10, 53, 127
11, 54720, Note_on_c, 10, 60, 127
11, 55890, Note_on_c, 10, 53, 0
11, 55890, Note_on_c, 10, 60, 0
11, 56160, Note_on_c, 10, 53, 127
11, 56160, Note_on_c, 10, 60, 127
11, 57330, Note_on_c, 10, 53, 0
11, 57330, Note_on_c, 10, 60, 0
11, 57600, Note_on_c, 10, 53, 127
11, 57600, Note_on_c, 10, 60, 127
11, 57810, Note_on_c, 10, 53, 0
11, 57810, Note_on_c, 10, 60, 0
11, 58080, Note_on_c, 10, 53, 127
11, 58080, Note_on_c, 10, 60, 127
11, 58290, Note_on_c, 10, 53, 0
11, 58290, Note_on_c, 10, 60, 0
11, 58560, Note_on_c, 10, 53, 127
11, 58560, Note_on_c, 10, 60, 127
11, 58770, Note_on_c, 10, 53, 0
11, 58770, Note_on_c, 10, 60, 0
11, 59040, Note_on_c, 10, 53, 127
11, 59040, Note_on_c, 10, 60, 127
11, 59400, Note_on_c, 10, 53, 0
11, 59400, Note_on_c, 10, 60, 0
11, 59520, Control_c, 10, 11, 80
11, 60480, Note_on_c, 10, 61, 80
11, 60870, Note_on_c, 10, 61, 0
11, 60960, Note_on_c, 10, 61, 80
11, 61830, Note_on_c, 10, 61, 0
11, 61920, Note_on_c, 10, 61, 80
11, 62730, Note_on_c, 10, 61, 0
11, 62880, Note_on_c, 10, 61, 80
11, 63270, Note_on_c, 10, 61, 0
11, 63360, Note_on_c, 10, 63, 80
11, 64230, Note_on_c, 10, 63, 0
11, 64320, Note_on_c, 10, 63, 80
11, 64710, Note_on_c, 10, 63, 0
11, 64800, Note_on_c, 10, 63, 80
11, 65190, Note_on_c, 10, 63, 0
11, 67200, Note_on_c, 10, 56, 80
11, 67680, Note_on_c, 10, 54, 80
11, 67710, Note_on_c, 10, 56, 0
11, 67890, Note_on_c, 10, 54, 0
11, 68160, Note_on_c, 10, 51, 80
11, 68640, Note_on_c, 10, 48, 80
11, 68850, Note_on_c, 10, 51, 0
11, 69030, Note_on_c, 10, 48, 0
11, 70080, Note_on_c, 10, 65, 80
11, 70470, Note_on_c, 10, 65, 0
11, 70560, Note_on_c, 10, 65, 80
11, 70950, Note_on_c, 10, 65, 0
11, 72960, Note_on_c, 10, 58, 80
11, 73440, Note_on_c, 10, 56, 80
11, 73470, Note_on_c, 10, 58, 0
11, 73650, Note_on_c, 10, 56, 0
11, 73920, Note_on_c, 10, 53, 80
11, 74400, Note_on_c, 10, 49, 80
11, 74430, Note_on_c, 10, 53, 0
11, 74610, Note_on_c, 10, 49, 0
11, 74880, Note_on_c, 10, 50, 80
11, 75090, Note_on_c, 10, 50, 0
11, 75360, Note_on_c, 10, 65, 80
11, 75570, Note_on_c, 10, 65, 0
11, 75840, Note_on_c, 10, 65, 80
11, 76050, Note_on_c, 10, 65, 0
11, 76320, Note_on_c, 10, 65, 80
11, 76530, Note_on_c, 10, 65, 0
11, 78720, Note_on_c, 10, 58, 80
11, 79200, Note_on_c, 10, 56, 80
11, 79230, Note_on_c, 10, 58, 0
11, 79410, Note_on_c, 10, 56, 0
11, 79680, Note_on_c, 10, 53, 80
11, 80160, Note_on_c, 10, 50, 80
11, 80190, Note_on_c, 10, 53, 0
11, 80370, Note_on_c, 10, 50, 0
11, 80640, Note_on_c, 10, 51, 80
11, 80850, Note_on_c, 10, 51, 0
11, 84000, Note_on_c, 10, 69, 80
11, 84480, Note_on_c, 10, 72, 80
11, 84510, Note_on_c, 10, 69, 0
11, 84690, Note_on_c, 10, 72, 0
11, 84960, Note_on_c, 10, 69, 80
11, 85440, Note_on_c, 10, 72, 80
11, 85470, Note_on_c, 10, 69, 0
11, 85650, Note_on_c, 10, 72, 0
11, 85920, Note_on_c, 10, 69, 80
11, 86400, Note_on_c, 10, 70, 80
11, 86430, Note_on_c, 10, 69, 0
11, 86610, Note_on_c, 10, 70, 0
11, 89760, Note_on_c, 10, 64, 80
11, 90240, Note_on_c, 10, 67, 80
11, 90270, Note_on_c, 10, 64, 0
11, 90450, Note_on_c, 10, 67, 0
11, 90720, Note_on_c, 10, 64, 80
11, 91200, Note_on_c, 10, 67, 80
11, 91230, Note_on_c, 10, 64, 0
11, 91410, Note_on_c, 10, 67, 0
11, 91680, Note_on_c, 10, 64, 80
11, 92160, Note_on_c, 10, 65, 80
11, 92190, Note_on_c, 10, 64, 0
11, 92370, Note_on_c, 10, 65, 0
11, 94080, Note_on_c, 10, 59, 80
11, 94590, Note_on_c, 10, 59, 0
11, 95040, Note_on_c, 10, 60, 80
11, 95250, Note_on_c, 10, 60, 0
11, 96960, Note_on_c, 10, 66, 80
11, 97440, Note_on_c, 10, 62, 80
11, 97470, Note_on_c, 10, 66, 0
11, 97650, Note_on_c, 10, 62, 0
11, 97920, Note_on_c, 10, 67, 80
11, 98130, Note_on_c, 10, 67, 0
11, 99840, Note_on_c, 10, 61, 80
11, 100320, Note_on_c, 10, 57, 80
11, 100350, Note_on_c, 10, 61, 0
11, 100530, Note_on_c, 10, 57, 0
11, 100800, Note_on_c, 10, 62, 80
11, 100800, Control_c, 10, 11, 80
11, 100930, Control_c, 10, 11, 81
11, 101010, Note_on_c, 10, 62, 0
11, 101050, Control_c, 10, 11, 82
11, 101170, Control_c, 10, 11, 83
11, 101280, Note_on_c, 10, 57, 84
11, 101300, Control_c, 10, 11, 84
11, 101420, Control_c, 10, 11, 85
11, 101540, Control_c, 10, 11, 86
11, 101660, Control_c, 10, 11, 87
11, 101760, Note_on_c, 10, 62, 89
11, 101790, Note_on_c, 10, 57, 0
11, 101790, Control_c, 10, 11, 88
11, 101910, Control_c, 10, 11, 89
11, 101970, Note_on_c, 10, 62, 0
11, 102030, Control_c, 10, 11, 90
11, 102150, Control_c, 10, 11, 91
11, 102240, Note_on_c, 10, 57, 94
11, 102280, Control_c, 10, 11, 92
11, 102400, Control_c, 10, 11, 93
11, 102520, Control_c, 10, 11, 94
11, 102640, Control_c, 10, 11, 95
11, 102720, Note_on_c, 10, 60, 99
11, 102750, Note_on_c, 10, 57, 0
11, 102770, Control_c, 10, 11, 96
11, 102890, Control_c, 10, 11, 97
11, 102930, Note_on_c, 10, 60, 0
11, 103010, Control_c, 10, 11, 98
11, 103130, Control_c, 10, 11, 99
11, 103200, Note_on_c, 10, 60, 103
11, 103260, Control_c, 10, 11, 100
11, 103380, Control_c, 10, 11, 101
11, 103500, Control_c, 10, 11, 102
11, 103620, Control_c, 10, 11, 103
11, 103680, Note_on_c, 10, 63, 108
11, 103710, Note_on_c, 10, 60, 0
11, 103750, Control_c, 10, 11, 104
11, 103870, Control_c, 10, 11, 105
11, 103890, Note_on_c, 10, 63, 0
11, 103990, Control_c, 10, 11, 106
11, 104110, Control_c, 10, 11, 107
11, 104160, Note_on_c, 10, 63, 113
11, 104240, Control_c, 10, 11, 108
11, 104360, Control_c, 10, 11, 109
11, 104480, Control_c, 10, 11, 110
11, 104600, Control_c, 10, 11, 111
11, 104640, Note_on_c, 10, 69, 118
11, 104670, Note_on_c, 10, 63, 0
11, 104730, Control_c, 10, 11, 112
11, 104850, Note_on_c, 10, 69, 0
11, 104850, Control_c, 10, 11, 113
11, 104970, Control_c, 10, 11, 114
11, 105090, Control_c, 10, 11, 115
11, 105120, Note_on_c, 10, 69, 122
11, 105220, Control_c, 10, 11, 116
11, 105340, Control_c, 10, 11, 117
11, 105460, Control_c, 10, 11, 118
11, 105580, Control_c, 10, 11, 119
11, 105600, Note_on_c, 10, 72, 127
11, 105630, Note_on_c, 10, 69, 0
11, 105710, Control_c, 10, 11, 120
11, 105810, Note_on_c, 10, 72, 0
11, 105830, Control_c, 10, 11, 121
11, 105950, Control_c, 10, 11, 122
11, 106070, Control_c, 10, 11, 123
11, 106080, Note_on_c, 10, 60, 127
11, 106200, Control_c, 10, 11, 124
11, 106320, Control_c, 10, 11, 125
11, 106440, Control_c, 10, 11, 126
11, 106500, Control_c, 10, 11, 127
11, 106560, Note_on_c, 10, 58, 127
11, 106590, Note_on_c, 10, 60, 0
11, 106770, Note_on_c, 10, 58, 0
11, 107040, Note_on_c, 10, 58, 127
11, 107040, Note_on_c, 10, 62, 127
11, 107730, Note_on_c, 10, 58, 0
11, 107730, Note_on_c, 10, 62, 0
11, 108000, Note_on_c, 10, 58, 127
11, 108000, Note_on_c, 10, 62, 127
11, 108690, Note_on_c, 10, 58, 0
11, 108690, Note_on_c, 10, 62, 0
11, 108960, Note_on_c, 10, 58, 127
11, 108960, Note_on_c, 10, 62, 127
11, 109110, Note_on_c, 10, 58, 0
11, 109110, Note_on_c, 10, 62, 0
11, 109440, Note_on_c, 10, 60, 127
11, 109440, Note_on_c, 10, 63, 127
11, 110130, Note_on_c, 10, 60, 0
11, 110130, Note_on_c, 10, 63, 0
11, 110400, Note_on_c, 10, 60, 127
11, 110400, Note_on_c, 10, 63, 127
11, 110550, Note_on_c, 10, 60, 0
11, 110550, Note_on_c, 10, 63, 0
11, 110880, Note_on_c, 10, 60, 127
11, 110880, Note_on_c, 10, 63, 127
11, 111480, Note_on_c, 10, 60, 0
11, 111480, Note_on_c, 10, 63, 0
11, 113760, Control_c, 10, 11, 80
11, 116160, Note_on_c, 10, 57, 70
11, 116640, Note_on_c, 10, 54, 70
11, 116670, Note_on_c, 10, 57, 0
11, 117120, Note_on_c, 10, 53, 70
11, 117150, Note_on_c, 10, 54, 0
11, 117630, Note_on_c, 10, 53, 0
11, 121920, Note_on_c, 10, 59, 70
11, 122400, Note_on_c, 10, 56, 70
11, 122430, Note_on_c, 10, 59, 0
11, 122880, Note_on_c, 10, 55, 70
11, 122910, Note_on_c, 10, 56, 0
11, 123270, Note_on_c, 10, 55, 0
11, 123360, Note_on_c, 10, 61, 70
11, 123840, Note_on_c, 10, 58, 70
11, 123870, Note_on_c, 10, 61, 0
11, 124320, Note_on_c, 10, 55, 70
11, 124350, Note_on_c, 10, 58, 0
11, 124800, Note_on_c, 10, 52, 70
11, 124830, Note_on_c, 10, 55, 0
11, 125280, Note_on_c, 10, 49, 70
11, 125310, Note_on_c, 10, 52, 0
11, 125760, Note_on_c, 10, 48, 70
11, 125790, Note_on_c, 10, 49, 0
11, 126150, Note_on_c, 10, 48, 0
11, 126234, Control_c, 10, 11, 40
11, 126240, Note_on_c, 10, 52, 127
11, 126720, Note_on_c, 10, 53, 127
11, 126750, Note_on_c, 10, 52, 0
11, 128390, Control_c, 10, 11, 41
11, 128450, Control_c, 10, 11, 43
11, 128510, Control_c, 10, 11, 44
11, 128570, Control_c, 10, 11, 45
11, 128620, Control_c, 10, 11, 47
11, 128680, Control_c, 10, 11, 48
11, 128740, Control_c, 10, 11, 49
11, 128800, Control_c, 10, 11, 51
11, 128850, Control_c, 10, 11, 52
11, 128910, Control_c, 10, 11, 53
11, 128970, Control_c, 10, 11, 55
11, 129030, Control_c, 10, 11, 56
11, 129080, Control_c, 10, 11, 57
11, 129140, Control_c, 10, 11, 59
11, 129200, Control_c, 10, 11, 60
11, 129260, Control_c, 10, 11, 62
11, 129310, Control_c, 10, 11, 63
11, 129370, Control_c, 10, 11, 64
11, 129430, Control_c, 10, 11, 66
11, 129490, Control_c, 10, 11, 67
11, 129540, Control_c, 10, 11, 68
11, 129600, Control_c, 10, 11, 70
11, 129660, Control_c, 10, 11, 71
11, 129720, Control_c, 10, 11, 73
11, 129770, Control_c, 10, 11, 74
11, 129830, Control_c, 10, 11, 75
11, 129890, Control_c, 10, 11, 77
11, 129950, Control_c, 10, 11, 78
11, 130000, Control_c, 10, 11, 79
11, 130060, Control_c, 10, 11, 81
11, 130120, Control_c, 10, 11, 82
11, 130180, Control_c, 10, 11, 83
11, 130230, Control_c, 10, 11, 85
11, 130290, Control_c, 10, 11, 86
11, 130350, Control_c, 10, 11, 87
11, 130410, Control_c, 10, 11, 89
11, 130460, Control_c, 10, 11, 90
11, 130520, Control_c, 10, 11, 92
11, 130580, Control_c, 10, 11, 93
11, 130640, Control_c, 10, 11, 94
11, 130690, Control_c, 10, 11, 96
11, 130750, Control_c, 10, 11, 97
11, 130810, Control_c, 10, 11, 98
11, 130870, Control_c, 10, 11, 100
11, 130920, Control_c, 10, 11, 101
11, 130980, Control_c, 10, 11, 102
11, 131040, Control_c, 10, 11, 104
11, 131100, Control_c, 10, 11, 105
11, 131150, Control_c, 10, 11, 106
11, 131210, Control_c, 10, 11, 108
11, 131270, Control_c, 10, 11, 109
11, 131330, Control_c, 10, 11, 111
11, 131380, Control_c, 10, 11, 112
11, 131440, Control_c, 10, 11, 113
11, 131500, Control_c, 10, 11, 115
11, 131560, Control_c, 10, 11, 116
11, 131610, Control_c, 10, 11, 117
11, 131670, Control_c, 10, 11, 119
11, 131730, Control_c, 10, 11, 120
11, 131790, Control_c, 10, 11, 122
11, 131840, Control_c, 10, 11, 123
11, 131900, Control_c, 10, 11, 124
11, 131910, Note_on_c, 10, 53, 0
11, 131960, Control_c, 10, 11, 126
11, 131990, Control_c, 10, 11, 127
11, 132000, Note_on_c, 10, 54, 127
11, 132474, Control_c, 10, 11, 40
11, 132480, Note_on_c, 10, 53, 127
11, 132510, Note_on_c, 10, 54, 0
11, 132550, Control_c, 10, 11, 41
11, 132610, Control_c, 10, 11, 42
11, 132670, Control_c, 10, 11, 43
11, 132730, Control_c, 10, 11, 44
11, 132790, Control_c, 10, 11, 45
11, 132850, Control_c, 10, 11, 46
11, 132910, Control_c, 10, 11, 47
11, 132970, Control_c, 10, 11, 48
11, 133030, Control_c, 10, 11, 49
11, 133090, Control_c, 10, 11, 50
11, 133150, Control_c, 10, 11, 51
11, 133210, Control_c, 10, 11, 52
11, 133270, Control_c, 10, 11, 53
11, 133330, Control_c, 10, 11, 54
11, 133400, Control_c, 10, 11, 55
11, 133460, Control_c, 10, 11, 56
11, 133520, Control_c, 10, 11, 57
11, 133580, Control_c, 10, 11, 58
11, 133640, Control_c, 10, 11, 59
11, 133700, Control_c, 10, 11, 60
11, 133760, Control_c, 10, 11, 61
11, 133820, Control_c, 10, 11, 62
11, 133880, Control_c, 10, 11, 63
11, 133940, Control_c, 10, 11, 64
11, 134000, Control_c, 10, 11, 65
11, 134060, Control_c, 10, 11, 66
11, 134120, Control_c, 10, 11, 67
11, 134180, Control_c, 10, 11, 68
11, 134240, Control_c, 10, 11, 69
11, 134310, Control_c, 10, 11, 70
11, 134370, Control_c, 10, 11, 71
11, 134430, Control_c, 10, 11, 72
11, 134490, Control_c, 10, 11, 73
11, 134550, Control_c, 10, 11, 74
11, 134610, Control_c, 10, 11, 75
11, 134670, Control_c, 10, 11, 76
11, 134730, Control_c, 10, 11, 77
11, 134790, Control_c, 10, 11, 78
11, 134850, Control_c, 10, 11, 79
11, 134910, Control_c, 10, 11, 80
11, 134970, Control_c, 10, 11, 81
11, 135030, Control_c, 10, 11, 82
11, 135090, Control_c, 10, 11, 83
11, 135160, Control_c, 10, 11, 84
11, 135220, Control_c, 10, 11, 85
11, 135280, Control_c, 10, 11, 86
11, 135340, Control_c, 10, 11, 87
11, 135400, Control_c, 10, 11, 88
11, 135460, Control_c, 10, 11, 89
11, 135520, Control_c, 10, 11, 90
11, 135580, Control_c, 10, 11, 91
11, 135640, Control_c, 10, 11, 92
11, 135700, Control_c, 10, 11, 93
11, 135760, Control_c, 10, 11, 94
11, 135820, Control_c, 10, 11, 95
11, 135880, Control_c, 10, 11, 96
11, 135940, Control_c, 10, 11, 97
11, 136000, Control_c, 10, 11, 98
11, 136070, Control_c, 10, 11, 99
11, 136130, Control_c, 10, 11, 100
11, 136190, Control_c, 10, 11, 101
11, 136250, Control_c, 10, 11, 102
11, 136310, Control_c, 10, 11, 103
11, 136370, Control_c, 10, 11, 104
11, 136430, Control_c, 10, 11, 105
11, 136490, Control_c, 10, 11, 106
11, 136550, Control_c, 10, 11, 107
11, 136610, Control_c, 10, 11, 108
11, 136670, Control_c, 10, 11, 109
11, 136730, Control_c, 10, 11, 110
11, 136790, Control_c, 10, 11, 111
11, 136850, Control_c, 10, 11, 112
11, 136920, Control_c, 10, 11, 113
11, 136980, Control_c, 10, 11, 114
11, 137040, Control_c, 10, 11, 115
11, 137100, Control_c, 10, 11, 116
11, 137160, Control_c, 10, 11, 117
11, 137220, Control_c, 10, 11, 118
11, 137280, Control_c, 10, 11, 119
11, 137340, Control_c, 10, 11, 120
11, 137400, Control_c, 10, 11, 121
11, 137460, Control_c, 10, 11, 122
11, 137520, Control_c, 10, 11, 123
11, 137580, Control_c, 10, 11, 124
11, 137640, Control_c, 10, 11, 125
11, 137670, Note_on_c, 10, 53, 0
11, 137700, Control_c, 10, 11, 126
11, 137730, Control_c, 10, 11, 127
11, 137760, Note_on_c, 10, 54, 127
11, 138240, Note_on_c, 10, 53, 110
11, 138270, Note_on_c, 10, 54, 0
11, 138450, Note_on_c, 10, 53, 0
11, 138720, Note_on_c, 10, 65, 112
11, 139590, Note_on_c, 10, 65, 0
11, 139680, Note_on_c, 10, 67, 118
11, 140550, Note_on_c, 10, 67, 0
11, 140640, Note_on_c, 10, 63, 124
11, 140850, Note_on_c, 10, 63, 0
11, 141120, Note_on_c, 10, 62, 127
11, 142230, Note_on_c, 10, 62, 0
11, 142560, Note_on_c, 10, 60, 127
11, 142560, Note_on_c, 10, 63, 127
11, 143670, Note_on_c, 10, 60, 0
11, 143670, Note_on_c, 10, 63, 0
11, 144000, Note_on_c, 10, 58, 127
11, 144000, Note_on_c, 10, 62, 127
11, 144475, Note_on_c, 10, 58, 0
11, 144475, Note_on_c, 10, 62, 0
11, 144480, Note_on_c, 10, 58, 127
11, 144480, Note_on_c, 10, 62, 127
11, 144955, Note_on_c, 10, 58, 0
11, 144955, Note_on_c, 10, 62, 0
11, 144960, Note_on_c, 10, 58, 127
11, 144960, Note_on_c, 10, 62, 127
11, 145435, Note_on_c, 10, 58, 0
11, 145435, Note_on_c, 10, 62, 0
11, 145440, Note_on_c, 10, 58, 127
11, 145440, Note_on_c, 10, 62, 127
11, 145915, Note_on_c, 10, 58, 0
11, 145915, Note_on_c, 10, 62, 0
11, 145920, Note_on_c, 10, 58, 127
11, 145920, Note_on_c, 10, 62, 127
11, 146395, Note_on_c, 10, 58, 0
11, 146395, Note_on_c, 10, 62, 0
11, 146400, Note_on_c, 10, 58, 127
11, 146400, Note_on_c, 10, 62, 127
11, 146875, Note_on_c, 10, 58, 0
11, 146875, Note_on_c, 10, 62, 0
11, 146880, Note_on_c, 10, 60, 127
11, 146880, Note_on_c, 10, 63, 127
11, 147355, Note_on_c, 10, 60, 0
11, 147355, Note_on_c, 10, 63, 0
11, 147360, Note_on_c, 10, 60, 127
11, 147360, Note_on_c, 10, 63, 127
11, 147835, Note_on_c, 10, 60, 0
11, 147835, Note_on_c, 10, 63, 0
11, 147840, Note_on_c, 10, 60, 127
11, 147840, Note_on_c, 10, 63, 127
11, 148315, Note_on_c, 10, 60, 0
11, 148315, Note_on_c, 10, 63, 0
11, 148320, Note_on_c, 10, 60, 127
11, 148320, Note_on_c, 10, 63, 127
11, 148795, Note_on_c, 10, 60, 0
11, 148795, Note_on_c, 10, 63, 0
11, 148800, Note_on_c, 10, 60, 127
11, 148800, Note_on_c, 10, 63, 127
11, 149275, Note_on_c, 10, 60, 0
11, 149275, Note_on_c, 10, 63, 0
11, 149280, Note_on_c, 10, 60, 127
11, 149280, Note_on_c, 10, 63, 127
11, 149755, Note_on_c, 10, 60, 0
11, 149755, Note_on_c, 10, 63, 0
11, 149760, Note_on_c, 10, 58, 127
11, 149760, Note_on_c, 10, 62, 127
11, 150235, Note_on_c, 10, 58, 0
11, 150235, Note_on_c, 10, 62, 0
11, 150240, Note_on_c, 10, 58, 127
11, 150240, Note_on_c, 10, 62, 127
11, 150715, Note_on_c, 10, 58, 0
11, 150715, Note_on_c, 10, 62, 0
11, 150720, Note_on_c, 10, 58, 127
11, 150720, Note_on_c, 10, 62, 127
11, 151195, Note_on_c, 10, 58, 0
11, 151195, Note_on_c, 10, 62, 0
11, 151200, Note_on_c, 10, 58, 127
11, 151200, Note_on_c, 10, 62, 127
11, 151675, Note_on_c, 10, 58, 0
11, 151675, Note_on_c, 10, 62, 0
11, 151680, Note_on_c, 10, 58, 127
11, 151680, Note_on_c, 10, 62, 127
11, 152155, Note_on_c, 10, 58, 0
11, 152155, Note_on_c, 10, 62, 0
11, 152160, Note_on_c, 10, 58, 127
11, 152160, Note_on_c, 10, 62, 127
11, 152635, Note_on_c, 10, 58, 0
11, 152635, Note_on_c, 10, 62, 0
11, 152640, Note_on_c, 10, 60, 127
11, 152640, Note_on_c, 10, 63, 127
11, 153115, Note_on_c, 10, 60, 0
11, 153115, Note_on_c, 10, 63, 0
11, 153120, Note_on_c, 10, 60, 127
11, 153120, Note_on_c, 10, 63, 127
11, 153595, Note_on_c, 10, 60, 0
11, 153595, Note_on_c, 10, 63, 0
11, 153600, Note_on_c, 10, 60, 127
11, 153600, Note_on_c, 10, 63, 127
11, 154075, Note_on_c, 10, 60, 0
11, 154075, Note_on_c, 10, 63, 0
11, 154080, Note_on_c, 10, 60, 127
11, 154080, Note_on_c, 10, 63, 127
11, 154555, Note_on_c, 10, 60, 0
11, 154555, Note_on_c, 10, 63, 0
11, 154560, Note_on_c, 10, 60, 127
11, 154560, Note_on_c, 10, 63, 127
11, 155035, Note_on_c, 10, 60, 0
11, 155035, Note_on_c, 10, 63, 0
11, 155040, Note_on_c, 10, 60, 127
11, 155040, Note_on_c, 10, 63, 127
11, 155515, Note_on_c, 10, 60, 0
11, 155515, Note_on_c, 10, 63, 0
11, 155520, Note_on_c, 10, 58, 127
11, 156570, Note_on_c, 10, 58, 0
11, 156960, Note_on_c, 10, 58, 127
11, 158010, Note_on_c, 10, 58, 0
11, 158400, Note_on_c, 10, 58, 127
11, 158610, Note_on_c, 10, 58, 0
11, 158880, Note_on_c, 10, 58, 127
11, 159090, Note_on_c, 10, 58, 0
11, 159360, Note_on_c, 10, 58, 127
11, 159540, Note_on_c, 10, 58, 0
11, 159840, Note_on_c, 10, 58, 127
11, 160320, Control_c, 10, 11, 80
11, 160440, Note_on_c, 10, 58, 0
11, 161280, Note_on_c, 10, 61, 80
11, 161670, Note_on_c, 10, 61, 0
11, 161760, Note_on_c, 10, 61, 80
11, 162630, Note_on_c, 10, 61, 0
11, 162720, Note_on_c, 10, 61, 80
11, 163530, Note_on_c, 10, 61, 0
11, 163680, Note_on_c, 10, 61, 80
11, 164070, Note_on_c, 10, 61, 0
11, 164160, Note_on_c, 10, 63, 80
11, 165030, Note_on_c, 10, 63, 0
11, 165120, Note_on_c, 10, 63, 80
11, 165510, Note_on_c, 10, 63, 0
11, 165600, Note_on_c, 10, 63, 80
11, 165990, Note_on_c, 10, 63, 0
11, 168000, Note_on_c, 10, 56, 80
11, 168480, Note_on_c, 10, 54, 80
11, 168510, Note_on_c, 10, 56, 0
11, 168690, Note_on_c, 10, 54, 0
11, 168960, Note_on_c, 10, 51, 80
11, 169440, Note_on_c, 10, 48, 80
11, 169650, Note_on_c, 10, 51, 0
11, 169830, Note_on_c, 10, 48, 0
11, 170880, Note_on_c, 10, 65, 80
11, 171270, Note_on_c, 10, 65, 0
11, 171360, Note_on_c, 10, 65, 80
11, 171750, Note_on_c, 10, 65, 0
11, 173760, Note_on_c, 10, 58, 80
11, 174240, Note_on_c, 10, 56, 80
11, 174270, Note_on_c, 10, 58, 0
11, 174450, Note_on_c, 10, 56, 0
11, 174720, Note_on_c, 10, 53, 80
11, 175200, Note_on_c, 10, 49, 80
11, 175230, Note_on_c, 10, 53, 0
11, 175410, Note_on_c, 10, 49, 0
11, 175680, Note_on_c, 10, 50, 80
11, 175890, Note_on_c, 10, 50, 0
11, 176160, Note_on_c, 10, 65, 80
11, 176370, Note_on_c, 10, 65, 0
11, 176640, Note_on_c, 10, 65, 80
11, 176850, Note_on_c, 10, 65, 0
11, 177120, Note_on_c, 10, 65, 80
11, 177330, Note_on_c, 10, 65, 0
11, 179520, Note_on_c, 10, 58, 80
11, 180000, Note_on_c, 10, 56, 80
11, 180030, Note_on_c, 10, 58, 0
11, 180210, Note_on_c, 10, 56, 0
11, 180480, Note_on_c, 10, 53, 80
11, 180960, Note_on_c, 10, 50, 80
11, 180990, Note_on_c, 10, 53, 0
11, 181170, Note_on_c, 10, 50, 0
11, 181440, Note_on_c, 10, 51, 80
11, 181650, Note_on_c, 10, 51, 0
11, 184800, Note_on_c, 10, 69, 80
11, 185280, Note_on_c, 10, 72, 80
11, 185310, Note_on_c, 10, 69, 0
11, 185490, Note_on_c, 10, 72, 0
11, 185760, Note_on_c, 10, 69, 80
11, 186240, Note_on_c, 10, 72, 80
11, 186270, Note_on_c, 10, 69, 0
11, 186450, Note_on_c, 10, 72, 0
11, 186720, Note_on_c, 10, 69, 80
11, 187200, Note_on_c, 10, 70, 80
11, 187230, Note_on_c, 10, 69, 0
11, 187410, Note_on_c, 10, 70, 0
11, 190560, Note_on_c, 10, 64, 80
11, 191040, Note_on_c, 10, 67, 80
11, 191070, Note_on_c, 10, 64, 0
11, 191250, Note_on_c, 10, 67, 0
11, 191520, Note_on_c, 10, 64, 80
11, 192000, Note_on_c, 10, 67, 80
11, 192030, Note_on_c, 10, 64, 0
11, 192210, Note_on_c, 10, 67, 0
11, 192480, Note_on_c, 10, 64, 80
11, 192960, Note_on_c, 10, 65, 80
11, 192990, Note_on_c, 10, 64, 0
11, 193170, Note_on_c, 10, 65, 0
11, 194880, Note_on_c, 10, 59, 80
11, 195390, Note_on_c, 10, 59, 0
11, 195840, Note_on_c, 10, 60, 80
11, 196050, Note_on_c, 10, 60, 0
11, 197760, Note_on_c, 10, 66, 80
11, 198240, Note_on_c, 10, 62, 80
11, 198270, Note_on_c, 10, 66, 0
11, 198450, Note_on_c, 10, 62, 0
11, 198720, Note_on_c, 10, 67, 80
11, 198930, Note_on_c, 10, 67, 0
11, 200640, Note_on_c, 10, 61, 80
11, 201120, Note_on_c, 10, 57, 80
11, 201150, Note_on_c, 10, 61, 0
11, 201330, Note_on_c, 10, 57, 0
11, 201600, Note_on_c, 10, 62, 80
11, 201600, Control_c, 10, 11, 80
11, 201730, Control_c, 10, 11, 81
11, 201810, Note_on_c, 10, 62, 0
11, 201850, Control_c, 10, 11, 82
11, 201970, Control_c, 10, 11, 83
11, 202080, Note_on_c, 10, 57, 84
11, 202100, Control_c, 10, 11, 84
11, 202220, Control_c, 10, 11, 85
11, 202340, Control_c, 10, 11, 86
11, 202460, Control_c, 10, 11, 87
11, 202560, Note_on_c, 10, 62, 89
11, 202590, Note_on_c, 10, 57, 0
11, 202590, Control_c, 10, 11, 88
11, 202710, Control_c, 10, 11, 89
11, 202770, Note_on_c, 10, 62, 0
11, 202830, Control_c, 10, 11, 90
11, 202950, Control_c, 10, 11, 91
11, 203040, Note_on_c, 10, 57, 94
11, 203080, Control_c, 10, 11, 92
11, 203200, Control_c, 10, 11, 93
11, 203320, Control_c, 10, 11, 94
11, 203440, Control_c, 10, 11, 95
11, 203520, Note_on_c, 10, 60, 99
11, 203550, Note_on_c, 10, 57, 0
11, 203570, Control_c, 10, 11, 96
11, 203690, Control_c, 10, 11, 97
11, 203730, Note_on_c, 10, 60, 0
11, 203810, Control_c, 10, 11, 98
11, 203930, Control_c, 10, 11, 99
11, 204000, Note_on_c, 10, 60, 103
11, 204060, Control_c, 10, 11, 100
11, 204180, Control_c, 10, 11, 101
11, 204300, Control_c, 10, 11, 102
11, 204420, Control_c, 10, 11, 103
11, 204480, Note_on_c, 10, 63, 108
11, 204510, Note_on_c, 10, 60, 0
11, 204550, Control_c, 10, 11, 104
11, 204670, Control_c, 10, 11, 105
11, 204690, Note_on_c, 10, 63, 0
11, 204790, Control_c, 10, 11, 106
11, 204910, Control_c, 10, 11, 107
11, 204960, Note_on_c, 10, 63, 113
11, 205040, Control_c, 10, 11, 108
11, 205160, Control_c, 10, 11, 109
11, 205280, Control_c, 10, 11, 110
11, 205400, Control_c, 10, 11, 111
11, 205440, Note_on_c, 10, 69, 118
11, 205470, Note_on_c, 10, 63, 0
11, 205530, Control_c, 10, 11, 112
11, 205650, Note_on_c, 10, 69, 0
11, 205650, Control_c, 10, 11, 113
11, 205770, Control_c, 10, 11, 114
11, 205890, Control_c, 10, 11, 115
11, 205920, Note_on_c, 10, 69, 122
11, 206020, Control_c, 10, 11, 116
11, 206140, Control_c, 10, 11, 117
11, 206260, Control_c, 10, 11, 118
11, 206380, Control_c, 10, 11, 119
11, 206400, Note_on_c, 10, 72, 127
11, 206430, Note_on_c, 10, 69, 0
11, 206510, Control_c, 10, 11, 120
11, 206610, Note_on_c, 10, 72, 0
11, 206630, Control_c, 10, 11, 121
11, 206750, Control_c, 10, 11, 122
11, 206870, Control_c, 10, 11, 123
11, 206880, Note_on_c, 10, 60, 127
11, 207000, Control_c, 10, 11, 124
11, 207120, Control_c, 10, 11, 125
11, 207240, Control_c, 10, 11, 126
11, 207300, Control_c, 10, 11, 127
11, 207360, Note_on_c, 10, 58, 127
11, 207390, Note_on_c, 10, 60, 0
11, 207570, Note_on_c, 10, 58, 0
11, 207840, Note_on_c, 10, 58, 127
11, 207840, Note_on_c, 10, 62, 127
11, 208530, Note_on_c, 10, 58, 0
11, 208530, Note_on_c, 10, 62, 0
11, 208800, Note_on_c, 10, 58, 127
11, 208800, Note_on_c, 10, 62, 127
11, 209490, Note_on_c, 10, 58, 0
11, 209490, Note_on_c, 10, 62, 0
11, 209760, Note_on_c, 10, 58, 127
11, 209760, Note_on_c, 10, 62, 127
11, 209910, Note_on_c, 10, 58, 0
11, 209910, Note_on_c, 10, 62, 0
11, 210240, Note_on_c, 10, 60, 127
11, 210240, Note_on_c, 10, 63, 127
11, 210930, Note_on_c, 10, 60, 0
11, 210930, Note_on_c, 10, 63, 0
11, 211200, Note_on_c, 10, 60, 127
11, 211200, Note_on_c, 10, 63, 127
11, 211350, Note_on_c, 10, 60, 0
11, 211350, Note_on_c, 10, 63, 0
11, 211680, Note_on_c, 10, 60, 127
11, 211680, Note_on_c, 10, 63, 127
11, 212280, Note_on_c, 10, 60, 0
11, 212280, Note_on_c, 10, 63, 0
11, 214560, Control_c, 10, 11, 80
11, 216960, Note_on_c, 10, 57, 70
11, 217440, Note_on_c, 10, 54, 70
11, 217470, Note_on_c, 10, 57, 0
11, 217920, Note_on_c, 10, 53, 70
11, 217950, Note_on_c, 10, 54, 0
11, 218430, Note_on_c, 10, 53, 0
11, 222720, Note_on_c, 10, 59, 70
11, 223200, Note_on_c, 10, 56, 70
11, 223230, Note_on_c, 10, 59, 0
11, 223680, Note_on_c, 10, 55, 70
11, 223710, Note_on_c, 10, 56, 0
11, 224070, Note_on_c, 10, 55, 0
11, 224160, Note_on_c, 10, 61, 70
11, 224640, Note_on_c, 10, 58, 70
11, 224670, Note_on_c, 10, 61, 0
11, 225120, Note_on_c, 10, 55, 70
11, 225150, Note_on_c, 10, 58, 0
11, 225600, Note_on_c, 10, 52, 70
11, 225630, Note_on_c, 10, 55, 0
11, 226080, Note_on_c, 10, 49, 70
11, 226110, Note_on_c, 10, 52, 0
11, 226560, Note_on_c, 10, 48, 70
11, 226590, Note_on_c, 10, 49, 0
11, 226950, Note_on_c, 10, 48, 0
11, 227034, Control_c, 10, 11, 40
11, 227040, Note_on_c, 10, 52, 127
11, 227520, Note_on_c, 10, 53, 127
11, 227550, Note_on_c, 10, 52, 0
11, 229190, Control_c, 10, 11, 41
11, 229250, Control_c, 10, 11, 43
11, 229310, Control_c, 10, 11, 44
11, 229370, Control_c, 10, 11, 45
11, 229420, Control_c, 10, 11, 47
11, 229480, Control_c, 10, 11, 48
11, 229540, Control_c, 10, 11, 49
11, 229600, Control_c, 10, 11, 51
11, 229650, Control_c, 10, 11, 52
11, 229710, Control_c, 10, 11, 53
11, 229770, Control_c, 10, 11, 55
11, 229830, Control_c, 10, 11, 56
11, 229880, Control_c, 10, 11, 57
11, 229940, Control_c, 10, 11, 59
11, 230000, Control_c, 10, 11, 60
11, 230060, Control_c, 10, 11, 62
11, 230110, Control_c, 10, 11, 63
11, 230170, Control_c, 10, 11, 64
11, 230230, Control_c, 10, 11, 66
11, 230290, Control_c, 10, 11, 67
11, 230340, Control_c, 10, 11, 68
11, 230400, Control_c, 10, 11, 70
11, 230460, Control_c, 10, 11, 71
11, 230520, Control_c, 10, 11, 73
11, 230570, Control_c, 10, 11, 74
11, 230630, Control_c, 10, 11, 75
11, 230690, Control_c, 10, 11, 77
11, 230750, Control_c, 10, 11, 78
11, 230800, Control_c, 10, 11, 79
11, 230860, Control_c, 10, 11, 81
11, 230920, Control_c, 10, 11, 82
11, 230980, Control_c, 10, 11, 83
11, 231030, Control_c, 10, 11, 85
11, 231090, Control_c, 10, 11, 86
11, 231150, Control_c, 10, 11, 87
11, 231210, Control_c, 10, 11, 89
11, 231260, Control_c, 10, 11, 90
11, 231320, Control_c, 10, 11, 92
11, 231380, Control_c, 10, 11, 93
11, 231440, Control_c, 10, 11, 94
11, 231490, Control_c, 10, 11, 96
11, 231550, Control_c, 10, 11, 97
11, 231610, Control_c, 10, 11, 98
11, 231670, Control_c, 10, 11, 100
11, 231720, Control_c, 10, 11, 101
11, 231780, Control_c, 10, 11, 102
11, 231840, Control_c, 10, 11, 104
11, 231900, Control_c, 10, 11, 105
11, 231950, Control_c, 10, 11, 106
11, 232010, Control_c, 10, 11, 108
11, 232070, Control_c, 10, 11, 109
11, 232130, Control_c, 10, 11, 111
11, 232180, Control_c, 10, 11, 112
11, 232240, Control_c, 10, 11, 113
11, 232300, Control_c, 10, 11, 115
11, 232360, Control_c, 10, 11, 116
11, 232410, Control_c, 10, 11, 117
11, 232470, Control_c, 10, 11, 119
11, 232530, Control_c, 10, 11, 120
11, 232590, Control_c, 10, 11, 122
11, 232640, Control_c, 10, 11, 123
11, 232700, Control_c, 10, 11, 124
11, 232710, Note_on_c, 10, 53, 0
11, 232760, Control_c, 10, 11, 126
11, 232790, Control_c, 10, 11, 127
11, 232800, Note_on_c, 10, 54, 127
11, 233274, Control_c, 10, 11, 40
11, 233280, Note_on_c, 10, 53, 127
11, 233310, Note_on_c, 10, 54, 0
11, 233350, Control_c, 10, 11, 41
11, 233410, Control_c, 10, 11, 42
11, 233470, Control_c, 10, 11, 43
11, 233530, Control_c, 10, 11, 44
11, 233590, Control_c, 10, 11, 45
11, 233650, Control_c, 10, 11, 46
11, 233710, Control_c, 10, 11, 47
11, 233770, Control_c, 10, 11, 48
11, 233830, Control_c, 10, 11, 49
11, 233890, Control_c, 10, 11, 50
11, 233950, Control_c, 10, 11, 51
11, 234010, Control_c, 10, 11, 52
11, 234070, Control_c, 10, 11, 53
11, 234130, Control_c, 10, 11, 54
11, 234200, Control_c, 10, 11, 55
11, 234260, Control_c, 10, 11, 56
11, 234320, Control_c, 10, 11, 57
11, 234380, Control_c, 10, 11, 58
11, 234440, Control_c, 10, 11, 59
11, 234500, Control_c, 10, 11, 60
11, 234560, Control_c, 10, 11, 61
11, 234620, Control_c, 10, 11, 62
11, 234680, Control_c, 10, 11, 63
11, 234740, Control_c, 10, 11, 64
11, 234800, Control_c, 10, 11, 65
11, 234860, Control_c, 10, 11, 66
11, 234920, Control_c, 10, 11, 67
11, 234980, Control_c, 10, 11, 68
11, 235040, Control_c, 10, 11, 69
11, 235110, Control_c, 10, 11, 70
11, 235170, Control_c, 10, 11, 71
11, 235230, Control_c, 10, 11, 72
11, 235290, Control_c, 10, 11, 73
11, 235350, Control_c, 10, 11, 74
11, 235410, Control_c, 10, 11, 75
11, 235470, Control_c, 10, 11, 76
11, 235530, Control_c, 10, 11, 77
11, 235590, Control_c, 10, 11, 78
11, 235650, Control_c, 10, 11, 79
11, 235710, Control_c, 10, 11, 80
11, 235770, Control_c, 10, 11, 81
11, 235830, Control_c, 10, 11, 82
11, 235890, Control_c, 10, 11, 83
11, 235960, Control_c, 10, 11, 84
11, 236020, Control_c, 10, 11, 85
11, 236080, Control_c, 10, 11, 86
11, 236140, Control_c, 10, 11, 87
11, 236200, Control_c, 10, 11, 88
11, 236260, Control_c, 10, 11, 89
11, 236320, Control_c, 10, 11, 90
11, 236380, Control_c, 10, 11, 91
11, 236440, Control_c, 10, 11, 92
11, 236500, Control_c, 10, 11, 93
11, 236560, Control_c, 10, 11, 94
11, 236620, Control_c, 10, 11, 95
11, 236680, Control_c, 10, 11, 96
11, 236740, Control_c, 10, 11, 97
11, 236800, Control_c, 10, 11, 98
11, 236870, Control_c, 10, 11, 99
11, 236930, Control_c, 10, 11, 100
11, 236990, Control_c, 10, 11, 101
11, 237050, Control_c, 10, 11, 102
11, 237110, Control_c, 10, 11, 103
11, 237170, Control_c, 10, 11, 104
11, 237230, Control_c, 10, 11, 105
11, 237290, Control_c, 10, 11, 106
11, 237350, Control_c, 10, 11, 107
11, 237410, Control_c, 10, 11, 108
11, 237470, Control_c, 10, 11, 109
11, 237530, Control_c, 10, 11, 110
11, 237590, Control_c, 10, 11, 111
11, 237650, Control_c, 10, 11, 112
11, 237720, Control_c, 10, 11, 113
11, 237780, Control_c, 10, 11, 114
11, 237840, Control_c, 10, 11, 115
11, 237900, Control_c, 10, 11, 116
11, 237960, Control_c, 10, 11, 117
11, 238020, Control_c, 10, 11, 118
11, 238080, Control_c, 10, 11, 119
11, 238140, Control_c, 10, 11, 120
11, 238200, Control_c, 10, 11, 121
11, 238260, Control_c, 10, 11, 122
11, 238320, Control_c, 10, 11, 123
11, 238380, Control_c, 10, 11, 124
11, 238440, Control_c, 10, 11, 125
11, 238470, Note_on_c, 10, 53, 0
11, 238500, Control_c, 10, 11, 126
11, 238530, Control_c, 10, 11, 127
11, 238560, Note_on_c, 10, 54, 127
11, 239040, Note_on_c, 10, 53, 110
11, 239070, Note_on_c, 10, 54, 0
11, 239250, Note_on_c, 10, 53, 0
11, 239520, Note_on_c, 10, 65, 112
11, 240390, Note_on_c, 10, 65, 0
11, 240480, Note_on_c, 10, 67, 118
11, 241350, Note_on_c, 10, 67, 0
11, 241440, Note_on_c, 10, 63, 124
11, 241650, Note_on_c, 10, 63, 0
11, 241920, Note_on_c, 10, 62, 127
11, 243030, Note_on_c, 10, 62, 0
11, 243360, Note_on_c, 10, 60, 127
11, 243360, Note_on_c, 10, 63, 127
11, 244470, Note_on_c, 10, 60, 0
11, 244470, Note_on_c, 10, 63, 0
11, 244800, Note_on_c, 10, 58, 127
11, 244800, Note_on_c, 10, 62, 127
11, 245275, Note_on_c, 10, 58, 0
11, 245275, Note_on_c, 10, 62, 0
11, 245280, Note_on_c, 10, 58, 127
11, 245280, Note_on_c, 10, 62, 127
11, 245755, Note_on_c, 10, 58, 0
11, 245755, Note_on_c, 10, 62, 0
11, 245760, Note_on_c, 10, 58, 127
11, 245760, Note_on_c, 10, 62, 127
11, 246235, Note_on_c, 10, 58, 0
11, 246235, Note_on_c, 10, 62, 0
11, 246240, Note_on_c, 10, 58, 127
11, 246240, Note_on_c, 10, 62, 127
11, 246715, Note_on_c, 10, 58, 0
11, 246715, Note_on_c, 10, 62, 0
11, 246720, Note_on_c, 10, 58, 127
11, 246720, Note_on_c, 10, 62, 127
11, 247195, Note_on_c, 10, 58, 0
11, 247195, Note_on_c, 10, 62, 0
11, 247200, Note_on_c, 10, 58, 127
11, 247200, Note_on_c, 10, 62, 127
11, 247675, Note_on_c, 10, 58, 0
11, 247675, Note_on_c, 10, 62, 0
11, 247680, Note_on_c, 10, 60, 127
11, 247680, Note_on_c, 10, 63, 127
11, 248155, Note_on_c, 10, 60, 0
11, 248155, Note_on_c, 10, 63, 0
11, 248160, Note_on_c, 10, 60, 127
11, 248160, Note_on_c, 10, 63, 127
11, 248635, Note_on_c, 10, 60, 0
11, 248635, Note_on_c, 10, 63, 0
11, 248640, Note_on_c, 10, 60, 127
11, 248640, Note_on_c, 10, 63, 127
11, 249115, Note_on_c, 10, 60, 0
11, 249115, Note_on_c, 10, 63, 0
11, 249120, Note_on_c, 10, 60, 127
11, 249120, Note_on_c, 10, 63, 127
11, 249595, Note_on_c, 10, 60, 0
11, 249595, Note_on_c, 10, 63, 0
11, 249600, Note_on_c, 10, 60, 127
11, 249600, Note_on_c, 10, 63, 127
11, 250075, Note_on_c, 10, 60, 0
11, 250075, Note_on_c, 10, 63, 0
11, 250080, Note_on_c, 10, 60, 127
11, 250080, Note_on_c, 10, 63, 127
11, 250555, Note_on_c, 10, 60, 0
11, 250555, Note_on_c, 10, 63, 0
11, 250560, Note_on_c, 10, 58, 127
11, 250560, Note_on_c, 10, 62, 127
11, 251035, Note_on_c, 10, 58, 0
11, 251035, Note_on_c, 10, 62, 0
11, 251040, Note_on_c, 10, 58, 127
11, 251040, Note_on_c, 10, 62, 127
11, 251515, Note_on_c, 10, 58, 0
11, 251515, Note_on_c, 10, 62, 0
11, 251520, Note_on_c, 10, 58, 127
11, 251520, Note_on_c, 10, 62, 127
11, 251995, Note_on_c, 10, 58, 0
11, 251995, Note_on_c, 10, 62, 0
11, 252000, Note_on_c, 10, 58, 127
11, 252000, Note_on_c, 10, 62, 127
11, 252475, Note_on_c, 10, 58, 0
11, 252475, Note_on_c, 10, 62, 0
11, 252480, Note_on_c, 10, 58, 127
11, 252480, Note_on_c, 10, 62, 127
11, 252955, Note_on_c, 10, 58, 0
11, 252955, Note_on_c, 10, 62, 0
11, 252960, Note_on_c, 10, 58, 127
11, 252960, Note_on_c, 10, 62, 127
11, 253435, Note_on_c, 10, 58, 0
11, 253435, Note_on_c, 10, 62, 0
11, 253440, Note_on_c, 10, 60, 127
11, 253440, Note_on_c, 10, 63, 127
11, 253915, Note_on_c, 10, 60, 0
11, 253915, Note_on_c, 10, 63, 0
11, 253920, Note_on_c, 10, 60, 127
11, 253920, Note_on_c, 10, 63, 127
11, 254395, Note_on_c, 10, 60, 0
11, 254395, Note_on_c, 10, 63, 0
11, 254400, Note_on_c, 10, 60, 127
11, 254400, Note_on_c, 10, 63, 127
11, 254875, Note_on_c, 10, 60, 0
11, 254875, Note_on_c, 10, 63, 0
11, 254880, Note_on_c, 10, 60, 127
11, 254880, Note_on_c, 10, 63, 127
11, 255355, Note_on_c, 10, 60, 0
11, 255355, Note_on_c, 10, 63, 0
11, 255360, Note_on_c, 10, 60, 127
11, 255360, Note_on_c, 10, 63, 127
11, 255835, Note_on_c, 10, 60, 0
11, 255835, Note_on_c, 10, 63, 0
11, 255840, Note_on_c, 10, 60, 127
11, 255840, Note_on_c, 10, 63, 127
11, 256315, Note_on_c, 10, 60, 0
11, 256315, Note_on_c, 10, 63, 0
11, 256320, Note_on_c, 10, 58, 127
11, 257370, Note_on_c, 10, 58, 0
11, 257760, Note_on_c, 10, 58, 127
11, 258810, Note_on_c, 10, 58, 0
11, 259200, Note_on_c, 10, 58, 127
11, 259410, Note_on_c, 10, 58, 0
11, 259680, Note_on_c, 10, 58, 127
11, 259890, Note_on_c, 10, 58, 0
11, 260160, Note_on_c, 10, 58, 127
11, 260340, Note_on_c, 10, 58, 0
11, 260640, Note_on_c, 10, 58, 127
11, 261240, Note_on_c, 10, 58, 0
11, 261600, Control_c, 10, 11, 80
11, 281760, Note_on_c, 10, 51, 70
11, 282240, Note_on_c, 10, 53, 70
11, 282240, Control_c, 10, 11, 80
11, 282270, Note_on_c, 10, 51, 0
11, 282280, Control_c, 10, 11, 81
11, 282310, Control_c, 10, 11, 82
11, 282340, Control_c, 10, 11, 83
11, 282370, Control_c, 10, 11, 84
11, 282400, Control_c, 10, 11, 85
11, 282430, Control_c, 10, 11, 86
11, 282460, Control_c, 10, 11, 87
11, 282490, Control_c, 10, 11, 88
11, 282520, Control_c, 10, 11, 89
11, 282550, Control_c, 10, 11, 90
11, 282580, Control_c, 10, 11, 91
11, 282610, Control_c, 10, 11, 92
11, 282640, Control_c, 10, 11, 93
11, 282670, Control_c, 10, 11, 94
11, 282700, Control_c, 10, 11, 95
11, 282740, Control_c, 10, 11, 96
11, 282770, Control_c, 10, 11, 97
11, 282800, Control_c, 10, 11, 98
11, 282830, Control_c, 10, 11, 99
11, 282860, Control_c, 10, 11, 100
11, 282890, Control_c, 10, 11, 101
11, 282920, Control_c, 10, 11, 102
11, 282950, Control_c, 10, 11, 103
11, 282980, Control_c, 10, 11, 104
11, 283010, Control_c, 10, 11, 105
11, 283040, Control_c, 10, 11, 106
11, 283070, Control_c, 10, 11, 107
11, 283100, Control_c, 10, 11, 108
11, 283130, Control_c, 10, 11, 109
11, 283160, Control_c, 10, 11, 110
11, 283190, Control_c, 10, 11, 111
11, 283200, Note_on_c, 10, 55, 70
11, 283230, Note_on_c, 10, 53, 0
11, 283230, Control_c, 10, 11, 112
11, 283260, Control_c, 10, 11, 113
11, 283290, Control_c, 10, 11, 114
11, 283320, Control_c, 10, 11, 115
11, 283350, Control_c, 10, 11, 116
11, 283380, Control_c, 10, 11, 117
11, 283410, Control_c, 10, 11, 118
11, 283440, Control_c, 10, 11, 119
11, 283470, Control_c, 10, 11, 120
11, 283500, Control_c, 10, 11, 121
11, 283530, Control_c, 10, 11, 122
11, 283560, Control_c, 10, 11, 123
11, 283590, Control_c, 10, 11, 124
11, 283620, Control_c, 10, 11, 125
11, 283650, Control_c, 10, 11, 126
11, 283680, Control_c, 10, 11, 127
11, 283710, Control_c, 10, 11, 126
11, 283740, Control_c, 10, 11, 125
11, 283770, Control_c, 10, 11, 124
11, 283800, Control_c, 10, 11, 123
11, 283830, Control_c, 10, 11, 122
11, 283860, Control_c, 10, 11, 121
11, 283890, Control_c, 10, 11, 120
11, 283920, Control_c, 10, 11, 119
11, 283950, Control_c, 10, 11, 118
11, 283980, Control_c, 10, 11, 117
11, 284010, Control_c, 10, 11, 116
11, 284040, Control_c, 10, 11, 115
11, 284070, Control_c, 10, 11, 114
11, 284100, Control_c, 10, 11, 113
11, 284130, Control_c, 10, 11, 112
11, 284160, Note_on_c, 10, 57, 70
11, 284160, Control_c, 10, 11, 111
11, 284190, Note_on_c, 10, 55, 0
11, 284190, Control_c, 10, 11, 110
11, 284220, Control_c, 10, 11, 109
11, 284250, Control_c, 10, 11, 108
11, 284280, Control_c, 10, 11, 107
11, 284310, Control_c, 10, 11, 106
11, 284340, Control_c, 10, 11, 105
11, 284370, Control_c, 10, 11, 104
11, 284400, Note_on_c, 10, 53, 70
11, 284400, Control_c, 10, 11, 103
11, 284430, Note_on_c, 10, 57, 0
11, 284430, Control_c, 10, 11, 102
11, 284460, Control_c, 10, 11, 101
11, 284490, Control_c, 10, 11, 100
11, 284520, Control_c, 10, 11, 99
11, 284550, Control_c, 10, 11, 98
11, 284580, Control_c, 10, 11, 97
11, 284610, Control_c, 10, 11, 96
11, 284640, Note_on_c, 10, 58, 70
11, 284640, Control_c, 10, 11, 95
11, 284670, Note_on_c, 10, 53, 0
11, 284670, Control_c, 10, 11, 94
11, 284700, Control_c, 10, 11, 93
11, 284730, Control_c, 10, 11, 92
11, 284760, Control_c, 10, 11, 91
11, 284790, Control_c, 10, 11, 90
11, 284820, Control_c, 10, 11, 89
11, 284850, Note_on_c, 10, 58, 0
11, 284850, Control_c, 10, 11, 88
11, 284880, Control_c, 10, 11, 87
11, 284910, Control_c, 10, 11, 86
11, 284940, Control_c, 10, 11, 85
11, 284970, Control_c, 10, 11, 84
11, 285000, Control_c, 10, 11, 83
11, 285030, Control_c, 10, 11, 82
11, 285060, Control_c, 10, 11, 81
11, 285090, Control_c, 10, 11, 80
11, 285120, Note_on_c, 10, 58, 70
11, 285600, Note_on_c, 10, 58, 0
11, 310560, Program_c, 10, 45
11, 311040, Note_on_c, 10, 57, 100
11, 311490, Note_on_c, 10, 57, 0
11, 316800, Note_on_c, 10, 57, 100
11, 317250, Note_on_c, 10, 57, 0
11, 318240, Program_c, 10, 48
11, 318960, Note_on_c, 10, 59, 50
11, 319200, Note_on_c, 10, 60, 50
11, 319230, Note_on_c, 10, 59, 0
11, 319440, Note_on_c, 10, 59, 50
11, 319470, Note_on_c, 10, 60, 0
11, 319680, Note_on_c, 10, 60, 50
11, 319710, Note_on_c, 10, 59, 0
11, 319890, Note_on_c, 10, 60, 0
11, 320400, Note_on_c, 10, 59, 50
11, 320640, Note_on_c, 10, 60, 50
11, 320670, Note_on_c, 10, 59, 0
11, 320880, Note_on_c, 10, 59, 50
11, 320910, Note_on_c, 10, 60, 0
11, 321120, Note_on_c, 10, 60, 50
11, 321150, Note_on_c, 10, 59, 0
11, 321330, Note_on_c, 10, 60, 0
11, 321840, Note_on_c, 10, 59, 50
11, 322080, Note_on_c, 10, 60, 50
11, 322110, Note_on_c, 10, 59, 0
11, 322320, Note_on_c, 10, 59, 50
11, 322350, Note_on_c, 10, 60, 0
11, 322560, Note_on_c, 10, 60, 50
11, 322590, Note_on_c, 10, 59, 0
11, 322770, Note_on_c, 10, 60, 0
11, 324720, Note_on_c, 10, 53, 50
11, 324960, Note_on_c, 10, 54, 50
11, 324990, Note_on_c, 10, 53, 0
11, 325200, Note_on_c, 10, 53, 50
11, 325230, Note_on_c, 10, 54, 0
11, 325440, Note_on_c, 10, 54, 50
11, 325470, Note_on_c, 10, 53, 0
11, 325650, Note_on_c, 10, 54, 0
11, 326160, Note_on_c, 10, 53, 50
11, 326400, Note_on_c, 10, 54, 50
11, 326430, Note_on_c, 10, 53, 0
11, 326640, Note_on_c, 10, 53, 50
11, 326670, Note_on_c, 10, 54, 0
11, 326880, Note_on_c, 10, 54, 50
11, 326910, Note_on_c, 10, 53, 0
11, 327090, Note_on_c, 10, 54, 0
11, 327600, Note_on_c, 10, 53, 50
11, 327840, Note_on_c, 10, 54, 50
11, 327870, Note_on_c, 10, 53, 0
11, 328080, Note_on_c, 10, 53, 50
11, 328110, Note_on_c, 10, 54, 0
11, 328320, Note_on_c, 10, 54, 50
11, 328350, Note_on_c, 10, 53, 0
11, 328560, Note_on_c, 10, 52, 50
11, 328590, Note_on_c, 10, 54, 0
11, 328800, Note_on_c, 10, 53, 50
11, 328830, Note_on_c, 10, 52, 0
11, 329040, Note_on_c, 10, 52, 50
11, 329070, Note_on_c, 10, 53, 0
11, 329280, Note_on_c, 10, 53, 50
11, 329310, Note_on_c, 10, 52, 0
11, 329520, Note_on_c, 10, 52, 50
11, 329550, Note_on_c, 10, 53, 0
11, 329760, Note_on_c, 10, 53, 50
11, 329790, Note_on_c, 10, 52, 0
11, 330030, Note_on_c, 10, 53, 0
11, 342960, Note_on_c, 10, 57, 87
11, 343200, Note_on_c, 10, 58, 88
11, 343230, Note_on_c, 10, 57, 0
11, 343440, Note_on_c, 10, 57, 89
11, 343470, Note_on_c, 10, 58, 0
11, 343680, Note_on_c, 10, 58, 89
11, 343710, Note_on_c, 10, 57, 0
11, 343920, Note_on_c, 10, 57, 90
11, 343950, Note_on_c, 10, 58, 0
11, 344160, Note_on_c, 10, 58, 91
11, 344190, Note_on_c, 10, 57, 0
11, 344400, Note_on_c, 10, 57, 92
11, 344430, Note_on_c, 10, 58, 0
11, 344640, Note_on_c, 10, 58, 92
11, 344670, Note_on_c, 10, 57, 0
11, 344880, Note_on_c, 10, 57, 93
11, 344910, Note_on_c, 10, 58, 0
11, 345120, Note_on_c, 10, 58, 94
11, 345150, Note_on_c, 10, 57, 0
11, 345360, Note_on_c, 10, 57, 94
11, 345390, Note_on_c, 10, 58, 0
11, 345510, Note_on_c, 10, 57, 0
11, 345600, Note_on_c, 10, 58, 95
11, 345840, Note_on_c, 10, 57, 96
11, 345870, Note_on_c, 10, 58, 0
11, 346080, Note_on_c, 10, 58, 97
11, 346110, Note_on_c, 10, 57, 0
11, 346320, Note_on_c, 10, 57, 97
11, 346350, Note_on_c, 10, 58, 0
11, 346560, Note_on_c, 10, 58, 98
11, 346590, Note_on_c, 10, 57, 0
11, 346800, Note_on_c, 10, 56, 99
11, 346830, Note_on_c, 10, 58, 0
11, 347040, Note_on_c, 10, 58, 100
11, 347070, Note_on_c, 10, 56, 0
11, 347280, Note_on_c, 10, 55, 100
11, 347310, Note_on_c, 10, 58, 0
11, 347520, Note_on_c, 10, 58, 101
11, 347550, Note_on_c, 10, 55, 0
11, 347760, Note_on_c, 10, 55, 102
11, 347790, Note_on_c, 10, 58, 0
11, 348000, Note_on_c, 10, 58, 103
11, 348030, Note_on_c, 10, 55, 0
11, 348240, Note_on_c, 10, 53, 103
11, 348270, Note_on_c, 10, 58, 0
11, 348390, Note_on_c, 10, 53, 0
11, 348480, Note_on_c, 10, 58, 104
11, 348720, Note_on_c, 10, 51, 105
11, 348750, Note_on_c, 10, 58, 0
11, 348960, Note_on_c, 10, 58, 106
11, 348990, Note_on_c, 10, 51, 0
11, 349200, Note_on_c, 10, 51, 106
11, 349230, Note_on_c, 10, 58, 0
11, 349440, Note_on_c, 10, 58, 107
11, 349470, Note_on_c, 10, 51, 0
11, 349680, Note_on_c, 10, 51, 108
11, 349710, Note_on_c, 10, 58, 0
11, 349920, Note_on_c, 10, 58, 109
11, 349950, Note_on_c, 10, 51, 0
11, 350160, Note_on_c, 10, 51, 109
11, 350190, Note_on_c, 10, 58, 0
11, 350400, Note_on_c, 10, 58, 110
11, 350430, Note_on_c, 10, 51, 0
11, 350640, Note_on_c, 10, 51, 111
11, 350670, Note_on_c, 10, 58, 0
11, 350880, Note_on_c, 10, 58, 112
11, 350910, Note_on_c, 10, 51, 0
11, 351120, Note_on_c, 10, 53, 112
11, 351150, Note_on_c, 10, 58, 0
11, 351270, Note_on_c, 10, 53, 0
11, 351360, Note_on_c, 10, 53, 113
11, 351510, Note_on_c, 10, 53, 0
11, 351600, Note_on_c, 10, 57, 114
11, 351840, Note_on_c, 10, 55, 115
11, 351870, Note_on_c, 10, 57, 0
11, 352080, Note_on_c, 10, 57, 115
11, 352110, Note_on_c, 10, 55, 0
11, 352320, Note_on_c, 10, 60, 116
11, 352350, Note_on_c, 10, 57, 0
11, 352560, Note_on_c, 10, 57, 117
11, 352590, Note_on_c, 10, 60, 0
11, 352710, Note_on_c, 10, 57, 0
11, 352800, Note_on_c, 10, 53, 118
11, 352950, Note_on_c, 10, 53, 0
11, 353040, Note_on_c, 10, 57, 118
11, 353280, Note_on_c, 10, 55, 119
11, 353310, Note_on_c, 10, 57, 0
11, 353520, Note_on_c, 10, 57, 120
11, 353550, Note_on_c, 10, 55, 0
11, 353760, Note_on_c, 10, 60, 121
11, 353790, Note_on_c, 10, 57, 0
11, 354000, Note_on_c, 10, 57, 121
11, 354030, Note_on_c, 10, 60, 0
11, 354150, Note_on_c, 10, 57, 0
11, 354240, Note_on_c, 10, 58, 122
11, 354480, Note_on_c, 10, 57, 123
11, 354510, Note_on_c, 10, 58, 0
11, 354720, Note_on_c, 10, 58, 124
11, 354750, Note_on_c, 10, 57, 0
11, 354960, Note_on_c, 10, 57, 124
11, 354990, Note_on_c, 10, 58, 0
11, 355200, Note_on_c, 10, 58, 125
11, 355230, Note_on_c, 10, 57, 0
11, 355440, Note_on_c, 10, 57, 126
11, 355470, Note_on_c, 10, 58, 0
11, 355680, Note_on_c, 10, 58, 127
11, 355710, Note_on_c, 10, 57, 0
11, 355920, Note_on_c, 10, 57, 127
11, 355950, Note_on_c, 10, 58, 0
11, 356160, Note_on_c, 10, 58, 127
11, 356190, Note_on_c, 10, 57, 0
11, 356400, Note_on_c, 10, 57, 127
11, 356430, Note_on_c, 10, 58, 0
11, 356640, Note_on_c, 10, 58, 127
11, 356670, Note_on_c, 10, 57, 0
11, 356880, Note_on_c, 10, 57, 127
11, 356910, Note_on_c, 10, 58, 0
11, 357030, Note_on_c, 10, 57, 0
11, 357120, Note_on_c, 10, 58, 127
11, 357360, Note_on_c, 10, 57, 127
11, 357390, Note_on_c, 10, 58, 0
11, 357600, Note_on_c, 10, 58, 127
11, 357630, Note_on_c, 10, 57, 0
11, 357840, Note_on_c, 10, 57, 127
11, 357870, Note_on_c, 10, 58, 0
11, 358080, Note_on_c, 10, 58, 127
11, 358110, Note_on_c, 10, 57, 0
11, 358320, Note_on_c, 10, 56, 127
11, 358350, Note_on_c, 10, 58, 0
11, 358560, Note_on_c, 10, 58, 127
11, 358590, Note_on_c, 10, 56, 0
11, 358800, Note_on_c, 10, 55, 127
11, 358830, Note_on_c, 10, 58, 0
11, 359040, Note_on_c, 10, 58, 127
11, 359070, Note_on_c, 10, 55, 0
11, 359280, Note_on_c, 10, 55, 127
11, 359310, Note_on_c, 10, 58, 0
11, 359520, Note_on_c, 10, 58, 127
11, 359550, Note_on_c, 10, 55, 0
11, 359760, Note_on_c, 10, 53, 127
11, 359790, Note_on_c, 10, 58, 0
11, 359910, Note_on_c, 10, 53, 0
11, 360000, Note_on_c, 10, 58, 127
11, 360240, Note_on_c, 10, 51, 127
11, 360270, Note_on_c, 10, 58, 0
11, 360480, Note_on_c, 10, 58, 127
11, 360510, Note_on_c, 10, 51, 0
11, 360720, Note_on_c, 10, 51, 127
11, 360750, Note_on_c, 10, 58, 0
11, 360960, Note_on_c, 10, 58, 127
11, 360990, Note_on_c, 10, 51, 0
11, 361200, Note_on_c, 10, 51, 127
11, 361230, Note_on_c, 10, 58, 0
11, 361440, Note_on_c, 10, 58, 127
11, 361470, Note_on_c, 10, 51, 0
11, 361680, Note_on_c, 10, 51, 127
11, 361710, Note_on_c, 10, 58, 0
11, 361920, Note_on_c, 10, 58, 127
11, 361950, Note_on_c, 10, 51, 0
11, 362160, Note_on_c, 10, 51, 127
11, 362190, Note_on_c, 10, 58, 0
11, 362400, Note_on_c, 10, 58, 127
11, 362430, Note_on_c, 10, 51, 0
11, 362640, Note_on_c, 10, 53, 127
11, 362670, Note_on_c, 10, 58, 0
11, 362790, Note_on_c, 10, 53, 0
11, 362880, Note_on_c, 10, 53, 127
11, 363030, Note_on_c, 10, 53, 0
11, 363120, Note_on_c, 10, 57, 127
11, 363360, Note_on_c, 10, 55, 127
11, 363390, Note_on_c, 10, 57, 0
11, 363600, Note_on_c, 10, 57, 127
11, 363630, Note_on_c, 10, 55, 0
11, 363840, Note_on_c, 10, 60, 127
11, 363870, Note_on_c, 10, 57, 0
11, 364080, Note_on_c, 10, 57, 127
11, 364110, Note_on_c, 10, 60, 0
11, 364230, Note_on_c, 10, 57, 0
11, 364320, Note_on_c, 10, 53, 127
11, 364470, Note_on_c, 10, 53, 0
11, 364560, Note_on_c, 10, 57, 127
11, 364800, Note_on_c, 10, 55, 127
11, 364830, Note_on_c, 10, 57, 0
11, 365040, Note_on_c, 10, 57, 127
11, 365070, Note_on_c, 10, 55, 0
11, 365280, Note_on_c, 10, 60, 127
11, 365310, Note_on_c, 10, 57, 0
11, 365520, Note_on_c, 10, 57, 127
11, 365550, Note_on_c, 10, 60, 0
11, 365670, Note_on_c, 10, 57, 0
11, 365760, Note_on_c, 10, 53, 127
11, 365910, Note_on_c, 10, 53, 0
11, 366000, Note_on_c, 10, 58, 127
11, 366240, Note_on_c, 10, 57, 127
11, 366270, Note_on_c, 10, 58, 0
11, 366480, Note_on_c, 10, 58, 127
11, 366510, Note_on_c, 10, 57, 0
11, 366714, Control_c, 10, 11, 120
11, 366720, Note_on_c, 10, 62, 127
11, 366750, Note_on_c, 10, 58, 0
11, 366954, Control_c, 10, 11, 80
11, 366960, Note_on_c, 10, 58, 127
11, 366990, Note_on_c, 10, 62, 0
11, 367194, Control_c, 10, 11, 120
11, 367200, Note_on_c, 10, 62, 127
11, 367230, Note_on_c, 10, 58, 0
11, 367434, Control_c, 10, 11, 80
11, 367440, Note_on_c, 10, 58, 127
11, 367470, Note_on_c, 10, 62, 0
11, 367680, Note_on_c, 10, 57, 127
11, 367710, Note_on_c, 10, 58, 0
11, 367920, Note_on_c, 10, 58, 127
11, 367950, Note_on_c, 10, 57, 0
11, 368160, Note_on_c, 10, 62, 127
11, 368190, Note_on_c, 10, 58, 0
11, 368400, Note_on_c, 10, 58, 127
11, 368430, Note_on_c, 10, 62, 0
11, 368550, Note_on_c, 10, 58, 0
11, 368640, Note_on_c, 10, 53, 127
11, 368790, Note_on_c, 10, 53, 0
11, 368880, Note_on_c, 10, 57, 127
11, 369120, Note_on_c, 10, 55, 127
11, 369150, Note_on_c, 10, 57, 0
11, 369360, Note_on_c, 10, 57, 127
11, 369390, Note_on_c, 10, 55, 0
11, 369594, Control_c, 10, 11, 120
11, 369600, Note_on_c, 10, 60, 127
11, 369630, Note_on_c, 10, 57, 0
11, 369834, Control_c, 10, 11, 80
11, 369840, Note_on_c, 10, 57, 127
11, 369870, Note_on_c, 10, 60, 0
11, 370074, Control_c, 10, 11, 120
11, 370080, Note_on_c, 10, 60, 127
11, 370110, Note_on_c, 10, 57, 0
11, 370314, Control_c, 10, 11, 80
11, 370320, Note_on_c, 10, 57, 127
11, 370350, Note_on_c, 10, 60, 0
11, 370560, Note_on_c, 10, 55, 127
11, 370590, Note_on_c, 10, 57, 0
11, 370800, Note_on_c, 10, 57, 127
11, 370830, Note_on_c, 10, 55, 0
11, 371040, Note_on_c, 10, 60, 127
11, 371070, Note_on_c, 10, 57, 0
11, 371280, Note_on_c, 10, 57, 127
11, 371310, Note_on_c, 10, 60, 0
11, 371430, Note_on_c, 10, 57, 0
11, 371520, Note_on_c, 10, 53, 127
11, 371670, Note_on_c, 10, 53, 0
11, 371760, Note_on_c, 10, 58, 127
11, 372000, Note_on_c, 10, 57, 127
11, 372030, Note_on_c, 10, 58, 0
11, 372240, Note_on_c, 10, 58, 127
11, 372270, Note_on_c, 10, 57, 0
11, 372480, Note_on_c, 10, 62, 127
11, 372510, Note_on_c, 10, 58, 0
11, 372720, Note_on_c, 10, 58, 124
11, 372750, Note_on_c, 10, 62, 0
11, 372960, Note_on_c, 10, 62, 120
11, 372990, Note_on_c, 10, 58, 0
11, 373200, Note_on_c, 10, 58, 116
11, 373230, Note_on_c, 10, 62, 0
11, 373440, Note_on_c, 10, 57, 112
11, 373470, Note_on_c, 10, 58, 0
11, 373680, Note_on_c, 10, 58, 108
11, 373710, Note_on_c, 10, 57, 0
11, 373920, Note_on_c, 10, 62, 104
11, 373950, Note_on_c, 10, 58, 0
11, 374160, Note_on_c, 10, 58, 101
11, 374190, Note_on_c, 10, 62, 0
11, 374310, Note_on_c, 10, 58, 0
11, 374400, Note_on_c, 10, 53, 97
11, 374550, Note_on_c, 10, 53, 0
11, 374640, Note_on_c, 10, 57, 93
11, 374880, Note_on_c, 10, 55, 89
11, 374910, Note_on_c, 10, 57, 0
11, 375120, Note_on_c, 10, 57, 85
11, 375150, Note_on_c, 10, 55, 0
11, 375360, Note_on_c, 10, 60, 81
11, 375390, Note_on_c, 10, 57, 0
11, 375600, Note_on_c, 10, 57, 77
11, 375630, Note_on_c, 10, 60, 0
11, 375840, Note_on_c, 10, 60, 74
11, 375870, Note_on_c, 10, 57, 0
11, 376080, Note_on_c, 10, 57, 70
11, 376110, Note_on_c, 10, 60, 0
11, 376320, Note_on_c, 10, 55, 66
11, 376350, Note_on_c, 10, 57, 0
11, 376560, Note_on_c, 10, 57, 62
11, 376590, Note_on_c, 10, 55, 0
11, 376800, Note_on_c, 10, 60, 58
11, 376830, Note_on_c, 10, 57, 0
11, 377040, Note_on_c, 10, 57, 54
11, 377070, Note_on_c, 10, 60, 0
11, 377190, Note_on_c, 10, 57, 0
11, 377280, Note_on_c, 10, 62, 50
11, 377430, Note_on_c, 10, 62, 0
11, 377520, Note_on_c, 10, 58, 50
11, 377760, Note_on_c, 10, 57, 50
11, 377790, Note_on_c, 10, 58, 0
11, 378000, Note_on_c, 10, 58, 50
11, 378030, Note_on_c, 10, 57, 0
11, 378240, Note_on_c, 10, 62, 50
11, 378270, Note_on_c, 10, 58, 0
11, 378480, Note_on_c, 10, 58, 50
11, 378510, Note_on_c, 10, 62, 0
11, 378630, Note_on_c, 10, 58, 0
11, 378720, Note_on_c, 10, 62, 50
11, 378960, Note_on_c, 10, 58, 50
11, 378990, Note_on_c, 10, 62, 0
11, 379200, Note_on_c, 10, 57, 50
11, 379230, Note_on_c, 10, 58, 0
11, 379440, Note_on_c, 10, 58, 50
11, 379470, Note_on_c, 10, 57, 0
11, 379680, Note_on_c, 10, 62, 50
11, 379710, Note_on_c, 10, 58, 0
11, 379920, Note_on_c, 10, 58, 50
11, 379950, Note_on_c, 10, 62, 0
11, 380070, Note_on_c, 10, 58, 0
11, 380160, Note_on_c, 10, 62, 50
11, 380400, Note_on_c, 10, 58, 50
11, 380430, Note_on_c, 10, 62, 0
11, 380640, Note_on_c, 10, 57, 50
11, 380670, Note_on_c, 10, 58, 0
11, 380880, Note_on_c, 10, 58, 50
11, 380910, Note_on_c, 10, 57, 0
11, 381120, Note_on_c, 10, 62, 50
11, 381150, Note_on_c, 10, 58, 0
11, 381360, Note_on_c, 10, 58, 50
11, 381390, Note_on_c, 10, 62, 0
11, 381510, Note_on_c, 10, 58, 0
11, 381600, Note_on_c, 10, 62, 50
11, 381840, Note_on_c, 10, 58, 50
11, 381870, Note_on_c, 10, 62, 0
11, 382080, Note_on_c, 10, 57, 50
11, 382110, Note_on_c, 10, 58, 0
11, 382320, Note_on_c, 10, 58, 50
11, 382350, Note_on_c, 10, 57, 0
11, 382560, Note_on_c, 10, 62, 50
11, 382590, Note_on_c, 10, 58, 0
11, 382800, Note_on_c, 10, 58, 50
11, 382830, Note_on_c, 10, 62, 0
11, 382950, Note_on_c, 10, 58, 0
11, 383520, Control_c, 10, 11, 80
11, 383640, Control_c, 10, 11, 81
11, 383750, Control_c, 10, 11, 82
11, 383860, Control_c, 10, 11, 83
11, 383970, Control_c, 10, 11, 84
11, 384090, Control_c, 10, 11, 85
11, 384200, Control_c, 10, 11, 86
11, 384310, Control_c, 10, 11, 87
11, 384420, Control_c, 10, 11, 88
11, 384540, Control_c, 10, 11, 89
11, 384650, Control_c, 10, 11, 90
11, 384760, Control_c, 10, 11, 91
11, 384870, Control_c, 10, 11, 92
11, 384990, Control_c, 10, 11, 93
11, 385100, Control_c, 10, 11, 94
11, 385210, Control_c, 10, 11, 95
11, 385320, Control_c, 10, 11, 96
11, 385430, Control_c, 10, 11, 97
11, 385440, Note_on_c, 10, 54, 73
11, 385550, Control_c, 10, 11, 98
11, 385660, Control_c, 10, 11, 99
11, 385770, Control_c, 10, 11, 100
11, 385880, Control_c, 10, 11, 101
11, 385920, Note_on_c, 10, 55, 80
11, 385950, Note_on_c, 10, 54, 0
11, 386000, Control_c, 10, 11, 102
11, 386110, Control_c, 10, 11, 103
11, 386130, Note_on_c, 10, 55, 0
11, 386220, Control_c, 10, 11, 104
11, 386330, Control_c, 10, 11, 105
11, 386450, Control_c, 10, 11, 106
11, 386560, Control_c, 10, 11, 107
11, 386670, Control_c, 10, 11, 108
11, 386780, Control_c, 10, 11, 109
11, 386900, Control_c, 10, 11, 110
11, 387010, Control_c, 10, 11, 111
11, 387120, Control_c, 10, 11, 112
11, 387230, Control_c, 10, 11, 113
11, 387340, Control_c, 10, 11, 114
11, 387460, Control_c, 10, 11, 115
11, 387570, Control_c, 10, 11, 116
11, 387680, Control_c, 10, 11, 117
11, 387790, Control_c, 10, 11, 118
11, 387910, Control_c, 10, 11, 119
11, 388020, Control_c, 10, 11, 120
11, 388130, Control_c, 10, 11, 121
11, 388240, Control_c, 10, 11, 122
11, 388320, Note_on_c, 10, 60, 119
11, 388360, Control_c, 10, 11, 123
11, 388470, Control_c, 10, 11, 124
11, 388580, Control_c, 10, 11, 125
11, 388690, Control_c, 10, 11, 126
11, 388700, Control_c, 10, 11, 127
11, 388800, Note_on_c, 10, 58, 127
11, 388830, Note_on_c, 10, 60, 0
11, 389010, Note_on_c, 10, 58, 0
11, 389280, Note_on_c, 10, 53, 127
11, 389970, Note_on_c, 10, 53, 0
11, 390240, Note_on_c, 10, 53, 127
11, 390870, Note_on_c, 10, 53, 0
11, 391200, Note_on_c, 10, 53, 127
11, 391350, Note_on_c, 10, 53, 0
11, 391680, Note_on_c, 10, 53, 127
11, 392370, Note_on_c, 10, 53, 0
11, 392640, Note_on_c, 10, 53, 127
11, 392790, Note_on_c, 10, 53, 0
11, 393120, Note_on_c, 10, 53, 127
11, 393720, Note_on_c, 10, 53, 0
11, 394560, Control_c, 10, 11, 80
11, 397920, Note_on_c, 10, 60, 60
11, 398400, Note_on_c, 10, 57, 60
11, 398430, Note_on_c, 10, 60, 0
11, 398880, Note_on_c, 10, 54, 60
11, 398910, Note_on_c, 10, 57, 0
11, 399360, Note_on_c, 10, 53, 60
11, 399390, Note_on_c, 10, 54, 0
11, 399840, Note_on_c, 10, 51, 60
11, 399870, Note_on_c, 10, 53, 0
11, 400320, Note_on_c, 10, 49, 60
11, 400350, Note_on_c, 10, 51, 0
11, 400770, Note_on_c, 10, 49, 0
11, 403680, Note_on_c, 10, 55, 60
11, 404160, Note_on_c, 10, 52, 60
11, 404190, Note_on_c, 10, 55, 0
11, 404640, Note_on_c, 10, 49, 60
11, 404670, Note_on_c, 10, 52, 0
11, 405120, Note_on_c, 10, 48, 60
11, 405150, Note_on_c, 10, 49, 0
11, 405600, Note_on_c, 10, 55, 60
11, 405630, Note_on_c, 10, 48, 0
11, 406080, Note_on_c, 10, 53, 60
11, 406080, Control_c, 10, 11, 80
11, 406110, Note_on_c, 10, 55, 0
11, 406210, Control_c, 10, 11, 81
11, 406290, Note_on_c, 10, 53, 0
11, 406330, Control_c, 10, 11, 82
11, 406450, Control_c, 10, 11, 83
11, 406560, Note_on_c, 10, 48, 65
11, 406560, Note_on_c, 10, 55, 65
11, 406580, Control_c, 10, 11, 84
11, 406700, Control_c, 10, 11, 85
11, 406820, Control_c, 10, 11, 86
11, 406940, Control_c, 10, 11, 87
11, 407070, Control_c, 10, 11, 88
11, 407190, Control_c, 10, 11, 89
11, 407310, Control_c, 10, 11, 90
11, 407430, Control_c, 10, 11, 91
11, 407490, Note_on_c, 10, 48, 0
11, 407490, Note_on_c, 10, 55, 0
11, 407520, Note_on_c, 10, 53, 76
11, 407520, Note_on_c, 10, 57, 76
11, 407560, Control_c, 10, 11, 92
11, 407680, Control_c, 10, 11, 93
11, 407800, Control_c, 10, 11, 94
11, 407920, Control_c, 10, 11, 95
11, 408050, Control_c, 10, 11, 96
11, 408170, Control_c, 10, 11, 97
11, 408210, Note_on_c, 10, 53, 0
11, 408210, Note_on_c, 10, 57, 0
11, 408290, Control_c, 10, 11, 98
11, 408410, Control_c, 10, 11, 99
11, 408480, Note_on_c, 10, 53, 87
11, 408480, Note_on_c, 10, 58, 87
11, 408540, Control_c, 10, 11, 100
11, 408660, Control_c, 10, 11, 101
11, 408780, Control_c, 10, 11, 102
11, 408900, Control_c, 10, 11, 103
11, 409030, Control_c, 10, 11, 104
11, 409150, Control_c, 10, 11, 105
11, 409170, Note_on_c, 10, 53, 0
11, 409170, Note_on_c, 10, 58, 0
11, 409270, Control_c, 10, 11, 106
11, 409390, Control_c, 10, 11, 107
11, 409440, Note_on_c, 10, 53, 99
11, 409440, Note_on_c, 10, 60, 99
11, 409520, Control_c, 10, 11, 108
11, 409640, Control_c, 10, 11, 109
11, 409760, Control_c, 10, 11, 110
11, 409880, Control_c, 10, 11, 111
11, 410010, Control_c, 10, 11, 112
11, 410130, Note_on_c, 10, 53, 0
11, 410130, Note_on_c, 10, 60, 0
11, 410130, Control_c, 10, 11, 113
11, 410250, Control_c, 10, 11, 114
11, 410370, Control_c, 10, 11, 115
11, 410400, Note_on_c, 10, 53, 110
11, 410500, Control_c, 10, 11, 116
11, 410620, Control_c, 10, 11, 117
11, 410740, Control_c, 10, 11, 118
11, 410860, Control_c, 10, 11, 119
11, 410910, Note_on_c, 10, 53, 0
11, 410990, Control_c, 10, 11, 120
11, 411110, Control_c, 10, 11, 121
11, 411230, Control_c, 10, 11, 122
11, 411350, Control_c, 10, 11, 123
11, 411360, Note_on_c, 10, 60, 121
11, 411480, Control_c, 10, 11, 124
11, 411510, Note_on_c, 10, 60, 0
11, 411600, Control_c, 10, 11, 125
11, 411720, Control_c, 10, 11, 126
11, 411810, Control_c, 10, 11, 127
11, 411840, Note_on_c, 10, 53, 127
11, 411840, Note_on_c, 10, 60, 127
11, 413010, Note_on_c, 10, 53, 0
11, 413010, Note_on_c, 10, 60, 0
11, 413280, Note_on_c, 10, 53, 127
11, 413280, Note_on_c, 10, 60, 127
11, 414450, Note_on_c, 10, 53, 0
11, 414450, Note_on_c, 10, 60, 0
11, 414720, Note_on_c, 10, 53, 127
11, 414720, Note_on_c, 10, 60, 127
11, 414930, Note_on_c, 10, 53, 0
11, 414930, Note_on_c, 10, 60, 0
11, 415200, Note_on_c, 10, 53, 127
11, 415200, Note_on_c, 10, 60, 127
11, 415410, Note_on_c, 10, 53, 0
11, 415410, Note_on_c, 10, 60, 0
11, 415680, Note_on_c, 10, 53, 127
11, 415680, Note_on_c, 10, 60, 127
11, 415890, Note_on_c, 10, 53, 0
11, 415890, Note_on_c, 10, 60, 0
11, 416160, Note_on_c, 10, 53, 127
11, 416160, Note_on_c, 10, 60, 127
11, 416520, Note_on_c, 10, 53, 0
11, 416520, Note_on_c, 10, 60, 0
11, 416640, Control_c, 10, 11, 80
11, 417600, Note_on_c, 10, 61, 80
11, 417990, Note_on_c, 10, 61, 0
11, 418080, Note_on_c, 10, 61, 80
11, 418950, Note_on_c, 10, 61, 0
11, 419040, Note_on_c, 10, 61, 80
11, 419850, Note_on_c, 10, 61, 0
11, 420000, Note_on_c, 10, 61, 80
11, 420390, Note_on_c, 10, 61, 0
11, 420480, Note_on_c, 10, 63, 80
11, 421350, Note_on_c, 10, 63, 0
11, 421440, Note_on_c, 10, 63, 80
11, 421830, Note_on_c, 10, 63, 0
11, 421920, Note_on_c, 10, 63, 80
11, 422310, Note_on_c, 10, 63, 0
11, 424320, Note_on_c, 10, 56, 80
11, 424800, Note_on_c, 10, 54, 80
11, 424830, Note_on_c, 10, 56, 0
11, 425010, Note_on_c, 10, 54, 0
11, 425280, Note_on_c, 10, 51, 80
11, 425760, Note_on_c, 10, 48, 80
11, 425970, Note_on_c, 10, 51, 0
11, 426150, Note_on_c, 10, 48, 0
11, 427200, Note_on_c, 10, 65, 80
11, 427590, Note_on_c, 10, 65, 0
11, 427680, Note_on_c, 10, 65, 80
11, 428070, Note_on_c, 10, 65, 0
11, 430080, Note_on_c, 10, 58, 80
11, 430560, Note_on_c, 10, 56, 80
11, 430590, Note_on_c, 10, 58, 0
11, 430770, Note_on_c, 10, 56, 0
11, 431040, Note_on_c, 10, 53, 80
11, 431520, Note_on_c, 10, 49, 80
11, 431550, Note_on_c, 10, 53, 0
11, 431730, Note_on_c, 10, 49, 0
11, 432000, Note_on_c, 10, 50, 80
11, 432210, Note_on_c, 10, 50, 0
11, 432480, Note_on_c, 10, 65, 80
11, 432690, Note_on_c, 10, 65, 0
11, 432960, Note_on_c, 10, 65, 80
11, 433170, Note_on_c, 10, 65, 0
11, 433440, Note_on_c, 10, 65, 80
11, 433650, Note_on_c, 10, 65, 0
11, 435840, Note_on_c, 10, 58, 80
11, 436320, Note_on_c, 10, 56, 80
11, 436350, Note_on_c, 10, 58, 0
11, 436530, Note_on_c, 10, 56, 0
11, 436800, Note_on_c, 10, 53, 80
11, 437280, Note_on_c, 10, 50, 80
11, 437310, Note_on_c, 10, 53, 0
11, 437490, Note_on_c, 10, 50, 0
11, 437760, Note_on_c, 10, 51, 80
11, 437970, Note_on_c, 10, 51, 0
11, 441120, Note_on_c, 10, 69, 80
11, 441600, Note_on_c, 10, 72, 80
11, 441630, Note_on_c, 10, 69, 0
11, 441810, Note_on_c, 10, 72, 0
11, 442080, Note_on_c, 10, 69, 80
11, 442560, Note_on_c, 10, 72, 80
11, 442590, Note_on_c, 10, 69, 0
11, 442770, Note_on_c, 10, 72, 0
11, 443040, Note_on_c, 10, 69, 80
11, 443520, Note_on_c, 10, 70, 80
11, 443550, Note_on_c, 10, 69, 0
11, 443730, Note_on_c, 10, 70, 0
11, 446880, Note_on_c, 10, 64, 80
11, 447360, Note_on_c, 10, 67, 80
11, 447390, Note_on_c, 10, 64, 0
11, 447570, Note_on_c, 10, 67, 0
11, 447840, Note_on_c, 10, 64, 80
11, 448320, Note_on_c, 10, 67, 80
11, 448350, Note_on_c, 10, 64, 0
11, 448530, Note_on_c, 10, 67, 0
11, 448800, Note_on_c, 10, 64, 80
11, 449280, Note_on_c, 10, 65, 80
11, 449310, Note_on_c, 10, 64, 0
11, 449490, Note_on_c, 10, 65, 0
11, 451200, Note_on_c, 10, 59, 80
11, 451710, Note_on_c, 10, 59, 0
11, 452160, Note_on_c, 10, 60, 80
11, 452370, Note_on_c, 10, 60, 0
11, 454080, Note_on_c, 10, 66, 80
11, 454560, Note_on_c, 10, 62, 80
11, 454590, Note_on_c, 10, 66, 0
11, 454770, Note_on_c, 10, 62, 0
11, 455040, Note_on_c, 10, 67, 80
11, 455250, Note_on_c, 10, 67, 0
11, 456960, Note_on_c, 10, 61, 80
11, 457440, Note_on_c, 10, 57, 80
11, 457470, Note_on_c, 10, 61, 0
11, 457650, Note_on_c, 10, 57, 0
11, 457920, Note_on_c, 10, 62, 80
11, 457920, Control_c, 10, 11, 80
11, 458050, Control_c, 10, 11, 81
11, 458130, Note_on_c, 10, 62, 0
11, 458170, Control_c, 10, 11, 82
11, 458290, Control_c, 10, 11, 83
11, 458400, Note_on_c, 10, 57, 84
11, 458420, Control_c, 10, 11, 84
11, 458540, Control_c, 10, 11, 85
11, 458660, Control_c, 10, 11, 86
11, 458780, Control_c, 10, 11, 87
11, 458880, Note_on_c, 10, 62, 89
11, 458910, Note_on_c, 10, 57, 0
11, 458910, Control_c, 10, 11, 88
11, 459030, Control_c, 10, 11, 89
11, 459090, Note_on_c, 10, 62, 0
11, 459150, Control_c, 10, 11, 90
11, 459270, Control_c, 10, 11, 91
11, 459360, Note_on_c, 10, 57, 94
11, 459400, Control_c, 10, 11, 92
11, 459520, Control_c, 10, 11, 93
11, 459640, Control_c, 10, 11, 94
11, 459760, Control_c, 10, 11, 95
11, 459840, Note_on_c, 10, 60, 99
11, 459870, Note_on_c, 10, 57, 0
11, 459890, Control_c, 10, 11, 96
11, 460010, Control_c, 10, 11, 97
11, 460050, Note_on_c, 10, 60, 0
11, 460130, Control_c, 10, 11, 98
11, 460250, Control_c, 10, 11, 99
11, 460320, Note_on_c, 10, 60, 103
11, 460380, Control_c, 10, 11, 100
11, 460500, Control_c, 10, 11, 101
11, 460620, Control_c, 10, 11, 102
11, 460740, Control_c, 10, 11, 103
11, 460800, Note_on_c, 10, 63, 108
11, 460830, Note_on_c, 10, 60, 0
11, 460870, Control_c, 10, 11, 104
11, 460990, Control_c, 10, 11, 105
11, 461010, Note_on_c, 10, 63, 0
11, 461110, Control_c, 10, 11, 106
11, 461230, Control_c, 10, 11, 107
11, 461280, Note_on_c, 10, 63, 113
11, 461360, Control_c, 10, 11, 108
11, 461480, Control_c, 10, 11, 109
11, 461600, Control_c, 10, 11, 110
11, 461720, Control_c, 10, 11, 111
11, 461760, Note_on_c, 10, 69, 118
11, 461790, Note_on_c, 10, 63, 0
11, 461850, Control_c, 10, 11, 112
11, 461970, Note_on_c, 10, 69, 0
11, 461970, Control_c, 10, 11, 113
11, 462090, Control_c, 10, 11, 114
11, 462210, Control_c, 10, 11, 115
11, 462240, Note_on_c, 10, 69, 122
11, 462340, Control_c, 10, 11, 116
11, 462460, Control_c, 10, 11, 117
11, 462580, Control_c, 10, 11, 118
11, 462700, Control_c, 10, 11, 119
11, 462720, Note_on_c, 10, 72, 127
11, 462750, Note_on_c, 10, 69, 0
11, 462830, Control_c, 10, 11, 120
11, 462930, Note_on_c, 10, 72, 0
11, 462950, Control_c, 10, 11, 121
11, 463070, Control_c, 10, 11, 122
11, 463190, Control_c, 10, 11, 123
11, 463200, Note_on_c, 10, 60, 127
11, 463320, Control_c, 10, 11, 124
11, 463440, Control_c, 10, 11, 125
11, 463560, Control_c, 10, 11, 126
11, 463620, Control_c, 10, 11, 127
11, 463680, Note_on_c, 10, 58, 127
11, 463710, Note_on_c, 10, 60, 0
11, 463890, Note_on_c, 10, 58, 0
11, 464160, Note_on_c, 10, 58, 127
11, 464160, Note_on_c, 10, 62, 127
11, 464850, Note_on_c, 10, 58, 0
11, 464850, Note_on_c, 10, 62, 0
11, 465120, Note_on_c, 10, 58, 127
11, 465120, Note_on_c, 10, 62, 127
11, 465810, Note_on_c, 10, 58, 0
11, 465810, Note_on_c, 10, 62, 0
11, 466080, Note_on_c, 10, 58, 127
11, 466080, Note_on_c, 10, 62, 127
11, 466230, Note_on_c, 10, 58, 0
11, 466230, Note_on_c, 10, 62, 0
11, 466560, Note_on_c, 10, 60, 127
11, 466560, Note_on_c, 10, 63, 127
11, 467250, Note_on_c, 10, 60, 0
11, 467250, Note_on_c, 10, 63, 0
11, 467520, Note_on_c, 10, 60, 127
11, 467520, Note_on_c, 10, 63, 127
11, 467670, Note_on_c, 10, 60, 0
11, 467670, Note_on_c, 10, 63, 0
11, 468000, Note_on_c, 10, 60, 127
11, 468000, Note_on_c, 10, 63, 127
11, 468600, Note_on_c, 10, 60, 0
11, 468600, Note_on_c, 10, 63, 0
11, 470880, Control_c, 10, 11, 80
11, 473280, Note_on_c, 10, 57, 70
11, 473760, Note_on_c, 10, 54, 70
11, 473790, Note_on_c, 10, 57, 0
11, 474240, Note_on_c, 10, 53, 70
11, 474270, Note_on_c, 10, 54, 0
11, 474750, Note_on_c, 10, 53, 0
11, 479040, Note_on_c, 10, 59, 70
11, 479520, Note_on_c, 10, 56, 70
11, 479550, Note_on_c, 10, 59, 0
11, 480000, Note_on_c, 10, 55, 70
11, 480030, Note_on_c, 10, 56, 0
11, 480390, Note_on_c, 10, 55, 0
11, 480480, Note_on_c, 10, 61, 70
11, 480960, Note_on_c, 10, 58, 70
11, 480990, Note_on_c, 10, 61, 0
11, 481440, Note_on_c, 10, 55, 70
11, 481470, Note_on_c, 10, 58, 0
11, 481920, Note_on_c, 10, 52, 70
11, 481950, Note_on_c, 10, 55, 0
11, 482400, Note_on_c, 10, 49, 70
11, 482430, Note_on_c, 10, 52, 0
11, 482880, Note_on_c, 10, 48, 70
11, 482910, Note_on_c, 10, 49, 0
11, 483270, Note_on_c, 10, 48, 0
11, 483354, Control_c, 10, 11, 40
11, 483360, Note_on_c, 10, 52, 127
11, 483840, Note_on_c, 10, 53, 127
11, 483870, Note_on_c, 10, 52, 0
11, 485510, Control_c, 10, 11, 41
11, 485570, Control_c, 10, 11, 43
11, 485630, Control_c, 10, 11, 44
11, 485690, Control_c, 10, 11, 45
11, 485740, Control_c, 10, 11, 47
11, 485800, Control_c, 10, 11, 48
11, 485860, Control_c, 10, 11, 49
11, 485920, Control_c, 10, 11, 51
11, 485970, Control_c, 10, 11, 52
11, 486030, Control_c, 10, 11, 53
11, 486090, Control_c, 10, 11, 55
11, 486150, Control_c, 10, 11, 56
11, 486200, Control_c, 10, 11, 57
11, 486260, Control_c, 10, 11, 59
11, 486320, Control_c, 10, 11, 60
11, 486380, Control_c, 10, 11, 62
11, 486430, Control_c, 10, 11, 63
11, 486490, Control_c, 10, 11, 64
11, 486550, Control_c, 10, 11, 66
11, 486610, Control_c, 10, 11, 67
11, 486660, Control_c, 10, 11, 68
11, 486720, Control_c, 10, 11, 70
11, 486780, Control_c, 10, 11, 71
11, 486840, Control_c, 10, 11, 73
11, 486890, Control_c, 10, 11, 74
11, 486950, Control_c, 10, 11, 75
11, 487010, Control_c, 10, 11, 77
11, 487070, Control_c, 10, 11, 78
11, 487120, Control_c, 10, 11, 79
11, 487180, Control_c, 10, 11, 81
11, 487240, Control_c, 10, 11, 82
11, 487300, Control_c, 10, 11, 83
11, 487350, Control_c, 10, 11, 85
11, 487410, Control_c, 10, 11, 86
11, 487470, Control_c, 10, 11, 87
11, 487530, Control_c, 10, 11, 89
11, 487580, Control_c, 10, 11, 90
11, 487640, Control_c, 10, 11, 92
11, 487700, Control_c, 10, 11, 93
11, 487760, Control_c, 10, 11, 94
11, 487810, Control_c, 10, 11, 96
11, 487870, Control_c, 10, 11, 97
11, 487930, Control_c, 10, 11, 98
11, 487990, Control_c, 10, 11, 100
11, 488040, Control_c, 10, 11, 101
11, 488100, Control_c, 10, 11, 102
11, 488160, Control_c, 10, 11, 104
11, 488220, Control_c, 10, 11, 105
11, 488270, Control_c, 10, 11, 106
11, 488330, Control_c, 10, 11, 108
11, 488390, Control_c, 10, 11, 109
11, 488450, Control_c, 10, 11, 111
11, 488500, Control_c, 10, 11, 112
11, 488560, Control_c, 10, 11, 113
11, 488620, Control_c, 10, 11, 115
11, 488680, Control_c, 10, 11, 116
11, 488730, Control_c, 10, 11, 117
11, 488790, Control_c, 10, 11, 119
11, 488850, Control_c, 10, 11, 120
11, 488910, Control_c, 10, 11, 122
11, 488960, Control_c, 10, 11, 123
11, 489020, Control_c, 10, 11, 124
11, 489030, Note_on_c, 10, 53, 0
11, 489080, Control_c, 10, 11, 126
11, 489110, Control_c, 10, 11, 127
11, 489120, Note_on_c, 10, 54, 127
11, 489594, Control_c, 10, 11, 40
11, 489600, Note_on_c, 10, 53, 127
11, 489630, Note_on_c, 10, 54, 0
11, 489670, Control_c, 10, 11, 41
11, 489730, Control_c, 10, 11, 42
11, 489790, Control_c, 10, 11, 43
11, 489850, Control_c, 10, 11, 44
11, 489910, Control_c, 10, 11, 45
11, 489970, Control_c, 10, 11, 46
11, 490030, Control_c, 10, 11, 47
11, 490090, Control_c, 10, 11, 48
11, 490150, Control_c, 10, 11, 49
11, 490210, Control_c, 10, 11, 50
11, 490270, Control_c, 10, 11, 51
11, 490330, Control_c, 10, 11, 52
11, 490390, Control_c, 10, 11, 53
11, 490450, Control_c, 10, 11, 54
11, 490520, Control_c, 10, 11, 55
11, 490580, Control_c, 10, 11, 56
11, 490640, Control_c, 10, 11, 57
11, 490700, Control_c, 10, 11, 58
11, 490760, Control_c, 10, 11, 59
11, 490820, Control_c, 10, 11, 60
11, 490880, Control_c, 10, 11, 61
11, 490940, Control_c, 10, 11, 62
11, 491000, Control_c, 10, 11, 63
11, 491060, Control_c, 10, 11, 64
11, 491120, Control_c, 10, 11, 65
11, 491180, Control_c, 10, 11, 66
11, 491240, Control_c, 10, 11, 67
11, 491300, Control_c, 10, 11, 68
11, 491360, Control_c, 10, 11, 69
11, 491430, Control_c, 10, 11, 70
11, 491490, Control_c, 10, 11, 71
11, 491550, Control_c, 10, 11, 72
11, 491610, Control_c, 10, 11, 73
11, 491670, Control_c, 10, 11, 74
11, 491730, Control_c, 10, 11, 75
11, 491790, Control_c, 10, 11, 76
11, 491850, Control_c, 10, 11, 77
11, 491910, Control_c, 10, 11, 78
11, 491970, Control_c, 10, 11, 79
11, 492030, Control_c, 10, 11, 80
11, 492090, Control_c, 10, 11, 81
11, 492150, Control_c, 10, 11, 82
11, 492210, Control_c, 10, 11, 83
11, 492280, Control_c, 10, 11, 84
11, 492340, Control_c, 10, 11, 85
11, 492400, Control_c, 10, 11, 86
11, 492460, Control_c, 10, 11, 87
11, 492520, Control_c, 10, 11, 88
11, 492580, Control_c, 10, 11, 89
11, 492640, Control_c, 10, 11, 90
11, 492700, Control_c, 10, 11, 91
11, 492760, Control_c, 10, 11, 92
11, 492820, Control_c, 10, 11, 93
11, 492880, Control_c, 10, 11, 94
11, 492940, Control_c, 10, 11, 95
11, 493000, Control_c, 10, 11, 96
11, 493060, Control_c, 10, 11, 97
11, 493120, Control_c, 10, 11, 98
11, 493190, Control_c, 10, 11, 99
11, 493250, Control_c, 10, 11, 100
11, 493310, Control_c, 10, 11, 101
11, 493370, Control_c, 10, 11, 102
11, 493430, Control_c, 10, 11, 103
11, 493490, Control_c, 10, 11, 104
11, 493550, Control_c, 10, 11, 105
11, 493610, Control_c, 10, 11, 106
11, 493670, Control_c, 10, 11, 107
11, 493730, Control_c, 10, 11, 108
11, 493790, Control_c, 10, 11, 109
11, 493850, Control_c, 10, 11, 110
11, 493910, Control_c, 10, 11, 111
11, 493970, Control_c, 10, 11, 112
11, 494040, Control_c, 10, 11, 113
11, 494100, Control_c, 10, 11, 114
11, 494160, Control_c, 10, 11, 115
11, 494220, Control_c, 10, 11, 116
11, 494280, Control_c, 10, 11, 117
11, 494340, Control_c, 10, 11, 118
11, 494400, Control_c, 10, 11, 119
11, 494460, Control_c, 10, 11, 120
11, 494520, Control_c, 10, 11, 121
11, 494580, Control_c, 10, 11, 122
11, 494640, Control_c, 10, 11, 123
11, 494700, Control_c, 10, 11, 124
11, 494760, Control_c, 10, 11, 125
11, 494790, Note_on_c, 10, 53, 0
11, 494820, Control_c, 10, 11, 126
11, 494850, Control_c, 10, 11, 127
11, 494880, Note_on_c, 10, 54, 127
11, 495360, Note_on_c, 10, 53, 110
11, 495390, Note_on_c, 10, 54, 0
11, 495570, Note_on_c, 10, 53, 0
11, 495840, Note_on_c, 10, 65, 112
11, 496710, Note_on_c, 10, 65, 0
11, 496800, Note_on_c, 10, 67, 118
11, 497670, Note_on_c, 10, 67, 0
11, 497760, Note_on_c, 10, 63, 124
11, 497970, Note_on_c, 10, 63, 0
11, 498240, Note_on_c, 10, 62, 127
11, 499350, Note_on_c, 10, 62, 0
11, 499680, Note_on_c, 10, 60, 127
11, 499680, Note_on_c, 10, 63, 127
11, 500790, Note_on_c, 10, 60, 0
11, 500790, Note_on_c, 10, 63, 0
11, 501120, Note_on_c, 10, 58, 127
11, 501120, Note_on_c, 10, 62, 127
11, 501595, Note_on_c, 10, 58, 0
11, 501595, Note_on_c, 10, 62, 0
11, 501600, Note_on_c, 10, 58, 127
11, 501600, Note_on_c, 10, 62, 127
11, 502075, Note_on_c, 10, 58, 0
11, 502075, Note_on_c, 10, 62, 0
11, 502080, Note_on_c, 10, 58, 127
11, 502080, Note_on_c, 10, 62, 127
11, 502555, Note_on_c, 10, 58, 0
11, 502555, Note_on_c, 10, 62, 0
11, 502560, Note_on_c, 10, 58, 127
11, 502560, Note_on_c, 10, 62, 127
11, 503035, Note_on_c, 10, 58, 0
11, 503035, Note_on_c, 10, 62, 0
11, 503040, Note_on_c, 10, 58, 127
11, 503040, Note_on_c, 10, 62, 127
11, 503515, Note_on_c, 10, 58, 0
11, 503515, Note_on_c, 10, 62, 0
11, 503520, Note_on_c, 10, 58, 127
11, 503520, Note_on_c, 10, 62, 127
11, 503995, Note_on_c, 10, 58, 0
11, 503995, Note_on_c, 10, 62, 0
11, 504000, Note_on_c, 10, 60, 127
11, 504000, Note_on_c, 10, 63, 127
11, 504475, Note_on_c, 10, 60, 0
11, 504475, Note_on_c, 10, 63, 0
11, 504480, Note_on_c, 10, 60, 127
11, 504480, Note_on_c, 10, 63, 127
11, 504955, Note_on_c, 10, 60, 0
11, 504955, Note_on_c, 10, 63, 0
11, 504960, Note_on_c, 10, 60, 127
11, 504960, Note_on_c, 10, 63, 127
11, 505435, Note_on_c, 10, 60, 0
11, 505435, Note_on_c, 10, 63, 0
11, 505440, Note_on_c, 10, 60, 127
11, 505440, Note_on_c, 10, 63, 127
11, 505915, Note_on_c, 10, 60, 0
11, 505915, Note_on_c, 10, 63, 0
11, 505920, Note_on_c, 10, 60, 127
11, 505920, Note_on_c, 10, 63, 127
11, 506395, Note_on_c, 10, 60, 0
11, 506395, Note_on_c, 10, 63, 0
11, 506400, Note_on_c, 10, 60, 127
11, 506400, Note_on_c, 10, 63, 127
11, 506875, Note_on_c, 10, 60, 0
11, 506875, Note_on_c, 10, 63, 0
11, 506880, Note_on_c, 10, 58, 127
11, 506880, Note_on_c, 10, 62, 127
11, 507355, Note_on_c, 10, 58, 0
11, 507355, Note_on_c, 10, 62, 0
11, 507360, Note_on_c, 10, 58, 127
11, 507360, Note_on_c, 10, 62, 127
11, 507835, Note_on_c, 10, 58, 0
11, 507835, Note_on_c, 10, 62, 0
11, 507840, Note_on_c, 10, 58, 127
11, 507840, Note_on_c, 10, 62, 127
11, 508315, Note_on_c, 10, 58, 0
11, 508315, Note_on_c, 10, 62, 0
11, 508320, Note_on_c, 10, 58, 127
11, 508320, Note_on_c, 10, 62, 127
11, 508795, Note_on_c, 10, 58, 0
11, 508795, Note_on_c, 10, 62, 0
11, 508800, Note_on_c, 10, 58, 127
11, 508800, Note_on_c, 10, 62, 127
11, 509275, Note_on_c, 10, 58, 0
11, 509275, Note_on_c, 10, 62, 0
11, 509280, Note_on_c, 10, 58, 127
11, 509280, Note_on_c, 10, 62, 127
11, 509755, Note_on_c, 10, 58, 0
11, 509755, Note_on_c, 10, 62, 0
11, 509760, Note_on_c, 10, 60, 127
11, 509760, Note_on_c, 10, 63, 127
11, 510235, Note_on_c, 10, 60, 0
11, 510235, Note_on_c, 10, 63, 0
11, 510240, Note_on_c, 10, 60, 127
11, 510240, Note_on_c, 10, 63, 127
11, 510715, Note_on_c, 10, 60, 0
11, 510715, Note_on_c, 10, 63, 0
11, 510720, Note_on_c, 10, 60, 127
11, 510720, Note_on_c, 10, 63, 127
11, 511195, Note_on_c, 10, 60, 0
11, 511195, Note_on_c, 10, 63, 0
11, 511200, Note_on_c, 10, 60, 127
11, 511200, Note_on_c, 10, 63, 127
11, 511675, Note_on_c, 10, 60, 0
11, 511675, Note_on_c, 10, 63, 0
11, 511680, Note_on_c, 10, 60, 127
11, 511680, Note_on_c, 10, 63, 127
11, 512155, Note_on_c, 10, 60, 0
11, 512155, Note_on_c, 10, 63, 0
11, 512160, Note_on_c, 10, 60, 127
11, 512160, Note_on_c, 10, 63, 127
11, 512635, Note_on_c, 10, 60, 0
11, 512635, Note_on_c, 10, 63, 0
11, 512640, Note_on_c, 10, 58, 127
11, 513690, Note_on_c, 10, 58, 0
11, 514080, Note_on_c, 10, 58, 127
11, 515130, Note_on_c, 10, 58, 0
11, 515520, Note_on_c, 10, 58, 127
11, 515730, Note_on_c, 10, 58, 0
11, 516000, Note_on_c, 10, 58, 127
11, 516210, Note_on_c, 10, 58, 0
11, 516480, Note_on_c, 10, 58, 127
11, 516660, Note_on_c, 10, 58, 0
11, 516960, Note_on_c, 10, 58, 127
11, 517560, Note_on_c, 10, 58, 0
11, 517920, Control_c, 10, 11, 80
11, 538080, Note_on_c, 10, 51, 70
11, 538560, Note_on_c, 10, 53, 70
11, 538560, Control_c, 10, 11, 80
11, 538590, Note_on_c, 10, 51, 0
11, 538600, Control_c, 10, 11, 81
11, 538630, Control_c, 10, 11, 82
11, 538660, Control_c, 10, 11, 83
11, 538690, Control_c, 10, 11, 84
11, 538720, Control_c, 10, 11, 85
11, 538750, Control_c, 10, 11, 86
11, 538780, Control_c, 10, 11, 87
11, 538810, Control_c, 10, 11, 88
11, 538840, Control_c, 10, 11, 89
11, 538870, Control_c, 10, 11, 90
11, 538900, Control_c, 10, 11, 91
11, 538930, Control_c, 10, 11, 92
11, 538960, Control_c, 10, 11, 93
11, 538990, Control_c, 10, 11, 94
11, 539020, Control_c, 10, 11, 95
11, 539060, Control_c, 10, 11, 96
11, 539090, Control_c, 10, 11, 97
11, 539120, Control_c, 10, 11, 98
11, 539150, Control_c, 10, 11, 99
11, 539180, Control_c, 10, 11, 100
11, 539210, Control_c, 10, 11, 101
11, 539240, Control_c, 10, 11, 102
11, 539270, Control_c, 10, 11, 103
11, 539300, Control_c, 10, 11, 104
11, 539330, Control_c, 10, 11, 105
11, 539360, Control_c, 10, 11, 106
11, 539390, Control_c, 10, 11, 107
11, 539420, Control_c, 10, 11, 108
11, 539450, Control_c, 10, 11, 109
11, 539480, Control_c, 10, 11, 110
11, 539510, Control_c, 10, 11, 111
11, 539520, Note_on_c, 10, 55, 70
11, 539550, Note_on_c, 10, 53, 0
11, 539550, Control_c, 10, 11, 112
11, 539580, Control_c, 10, 11, 113
11, 539610, Control_c, 10, 11, 114
11, 539640, Control_c, 10, 11, 115
11, 539670, Control_c, 10, 11, 116
11, 539700, Control_c, 10, 11, 117
11, 539730, Control_c, 10, 11, 118
11, 539760, Control_c, 10, 11, 119
11, 539790, Control_c, 10, 11, 120
11, 539820, Control_c, 10, 11, 121
11, 539850, Control_c, 10, 11, 122
11, 539880, Control_c, 10, 11, 123
11, 539910, Control_c, 10, 11, 124
11, 539940, Control_c, 10, 11, 125
11, 539970, Control_c, 10, 11, 126
11, 540000, Control_c, 10, 11, 127
11, 540030, Control_c, 10, 11, 126
11, 540060, Control_c, 10, 11, 125
11, 540090, Control_c, 10, 11, 124
11, 540120, Control_c, 10, 11, 123
11, 540150, Control_c, 10, 11, 122
11, 540180, Control_c, 10, 11, 121
11, 540210, Control_c, 10, 11, 120
11, 540240, Control_c, 10, 11, 119
11, 540270, Control_c, 10, 11, 118
11, 540300, Control_c, 10, 11, 117
11, 540330, Control_c, 10, 11, 116
11, 540360, Control_c, 10, 11, 115
11, 540390, Control_c, 10, 11, 114
11, 540420, Control_c, 10, 11, 113
11, 540450, Control_c, 10, 11, 112
11, 540480, Note_on_c, 10, 57, 70
11, 540480, Control_c, 10, 11, 111
11, 540510, Note_on_c, 10, 55, 0
11, 540510, Control_c, 10, 11, 110
11, 540540, Control_c, 10, 11, 109
11, 540570, Control_c, 10, 11, 108
11, 540600, Control_c, 10, 11, 107
11, 540630, Control_c, 10, 11, 106
11, 540660, Control_c, 10, 11, 105
11, 540690, Control_c, 10, 11, 104
11, 540720, Note_on_c, 10, 53, 70
11, 540720, Control_c, 10, 11, 103
11, 540750, Note_on_c, 10, 57, 0
11, 540750, Control_c, 10, 11, 102
11, 540780, Control_c, 10, 11, 101
11, 540810, Control_c, 10, 11, 100
11, 540840, Control_c, 10, 11, 99
11, 540870, Control_c, 10, 11, 98
11, 540900, Control_c, 10, 11, 97
11, 540930, Control_c, 10, 11, 96
11, 540960, Note_on_c, 10, 58, 70
11, 540960, Control_c, 10, 11, 95
11, 540990, Note_on_c, 10, 53, 0
11, 540990, Control_c, 10, 11, 94
11, 541020, Control_c, 10, 11, 93
11, 541050, Control_c, 10, 11, 92
11, 541080, Control_c, 10, 11, 91
11, 541110, Control_c, 10, 11, 90
11, 541140, Control_c, 10, 11, 89
11, 541170, Note_on_c, 10, 58, 0
11, 541170, Control_c, 10, 11, 88
11, 541200, Control_c, 10, 11, 87
11, 541230, Control_c, 10, 11, 86
11, 541260, Control_c, 10, 11, 85
11, 541290, Control_c, 10, 11, 84
11, 541320, Control_c, 10, 11, 83
11, 541350, Control_c, 10, 11, 82
11, 541380, Control_c, 10, 11, 81
11, 541410, Control_c, 10, 11, 80
11, 541440, Note_on_c, 10, 58, 70
11, 541920, Note_on_c, 10, 58, 0
11, 566880, Program_c, 10, 45
11, 567360, Note_on_c, 10, 57, 100
11, 567810, Note_on_c, 10, 57, 0
11, 573120, Note_on_c, 10, 57, 100
11, 573570, Note_on_c, 10, 57, 0
11, 574560, Program_c, 10, 48
11, 575280, Note_on_c, 10, 59, 50
11, 575520, Note_on_c, 10, 60, 50
11, 575550, Note_on_c, 10, 59, 0
11, 575760, Note_on_c, 10, 59, 50
11, 575790, Note_on_c, 10, 60, 0
11, 576000, Note_on_c, 10, 60, 50
11, 576030, Note_on_c, 10, 59, 0
11, 576210, Note_on_c, 10, 60, 0
11, 576720, Note_on_c, 10, 59, 50
11, 576960, Note_on_c, 10, 60, 50
11, 576990, Note_on_c, 10, 59, 0
11, 577200, Note_on_c, 10, 59, 50
11, 577230, Note_on_c, 10, 60, 0
11, 577440, Note_on_c, 10, 60, 50
11, 577470, Note_on_c, 10, 59, 0
11, 577650, Note_on_c, 10, 60, 0
11, 578160, Note_on_c, 10, 59, 50
11, 578400, Note_on_c, 10, 60, 50
11, 578430, Note_on_c, 10, 59, 0
11, 578640, Note_on_c, 10, 59, 50
11, 578670, Note_on_c, 10, 60, 0
11, 578880, Note_on_c, 10, 60, 50
11, 578910, Note_on_c, 10, 59, 0
11, 579090, Note_on_c, 10, 60, 0
11, 581040, Note_on_c, 10, 53, 50
11, 581280, Note_on_c, 10, 54, 50
11, 581310, Note_on_c, 10, 53, 0
11, 581520, Note_on_c, 10, 53, 50
11, 581550, Note_on_c, 10, 54, 0
11, 581760, Note_on_c, 10, 54, 50
11, 581790, Note_on_c, 10, 53, 0
11, 581970, Note_on_c, 10, 54, 0
11, 582480, Note_on_c, 10, 53, 50
11, 582720, Note_on_c, 10, 54, 50
11, 582750, Note_on_c, 10, 53, 0
11, 582960, Note_on_c, 10, 53, 50
11, 582990, Note_on_c, 10, 54, 0
11, 583200, Note_on_c, 10, 54, 50
11, 583230, Note_on_c, 10, 53, 0
11, 583410, Note_on_c, 10, 54, 0
11, 583920, Note_on_c, 10, 53, 50
11, 584160, Note_on_c, 10, 54, 50
11, 584190, Note_on_c, 10, 53, 0
11, 584400, Note_on_c, 10, 53, 50
11, 584430, Note_on_c, 10, 54, 0
11, 584640, Note_on_c, 10, 54, 50
11, 584670, Note_on_c, 10, 53, 0
11, 584880, Note_on_c, 10, 52, 50
11, 584910, Note_on_c, 10, 54, 0
11, 585120, Note_on_c, 10, 53, 50
11, 585150, Note_on_c, 10, 52, 0
11, 585360, Note_on_c, 10, 52, 50
11, 585390, Note_on_c, 10, 53, 0
11, 585600, Note_on_c, 10, 53, 50
11, 585630, Note_on_c, 10, 52, 0
11, 585840, Note_on_c, 10, 52, 50
11, 585870, Note_on_c, 10, 53, 0
11, 586080, Note_on_c, 10, 53, 50
11, 586110, Note_on_c, 10, 52, 0
11, 586350, Note_on_c, 10, 53, 0
11, 599280, Note_on_c, 10, 57, 87
11, 599520, Note_on_c, 10, 58, 88
11, 599550, Note_on_c, 10, 57, 0
11, 599760, Note_on_c, 10, 57, 89
11, 599790, Note_on_c, 10, 58, 0
11, 600000, Note_on_c, 10, 58, 89
11, 600030, Note_on_c, 10, 57, 0
11, 600240, Note_on_c, 10, 57, 90
11, 600270, Note_on_c, 10, 58, 0
11, 600480, Note_on_c, 10, 58, 91
11, 600510, Note_on_c, 10, 57, 0
11, 600720, Note_on_c, 10, 57, 92
11, 600750, Note_on_c, 10, 58, 0
11, 600960, Note_on_c, 10, 58, 92
11, 600990, Note_on_c, 10, 57, 0
11, 601200, Note_on_c, 10, 57, 93
11, 601230, Note_on_c, 10, 58, 0
11, 601440, Note_on_c, 10, 58, 94
11, 601470, Note_on_c, 10, 57, 0
11, 601680, Note_on_c, 10, 57, 94
11, 601710, Note_on_c, 10, 58, 0
11, 601830, Note_on_c, 10, 57, 0
11, 601920, Note_on_c, 10, 58, 95
11, 602160, Note_on_c, 10, 57, 96
11, 602190, Note_on_c, 10, 58, 0
11, 602400, Note_on_c, 10, 58, 97
11, 602430, Note_on_c, 10, 57, 0
11, 602640, Note_on_c, 10, 57, 97
11, 602670, Note_on_c, 10, 58, 0
11, 602880, Note_on_c, 10, 58, 98
11, 602910, Note_on_c, 10, 57, 0
11, 603120, Note_on_c, 10, 56, 99
11, 603150, Note_on_c, 10, 58, 0
11, 603360, Note_on_c, 10, 58, 100
11, 603390, Note_on_c, 10, 56, 0
11, 603600, Note_on_c, 10, 55, 100
11, 603630, Note_on_c, 10, 58, 0
11, 603840, Note_on_c, 10, 58, 101
11, 603870, Note_on_c, 10, 55, 0
11, 604080, Note_on_c, 10, 55, 102
11, 604110, Note_on_c, 10, 58, 0
11, 604320, Note_on_c, 10, 58, 103
11, 604350, Note_on_c, 10, 55, 0
11, 604560, Note_on_c, 10, 53, 103
11, 604590, Note_on_c, 10, 58, 0
11, 604710, Note_on_c, 10, 53, 0
11, 604800, Note_on_c, 10, 58, 104
11, 605040, Note_on_c, 10, 51, 105
11, 605070, Note_on_c, 10, 58, 0
11, 605280, Note_on_c, 10, 58, 106
11, 605310, Note_on_c, 10, 51, 0
11, 605520, Note_on_c, 10, 51, 106
11, 605550, Note_on_c, 10, 58, 0
11, 605760, Note_on_c, 10, 58, 107
11, 605790, Note_on_c, 10, 51, 0
11, 606000, Note_on_c, 10, 51, 108
11, 606030, Note_on_c, 10, 58, 0
11, 606240, Note_on_c, 10, 58, 109
11, 606270, Note_on_c, 10, 51, 0
11, 606480, Note_on_c, 10, 51, 109
11, 606510, Note_on_c, 10, 58, 0
11, 606720, Note_on_c, 10, 58, 110
11, 606750, Note_on_c, 10, 51, 0
11, 606960, Note_on_c, 10, 51, 111
11, 606990, Note_on_c, 10, 58, 0
11, 607200, Note_on_c, 10, 58, 112
11, 607230, Note_on_c, 10, 51, 0
11, 607440, Note_on_c, 10, 53, 112
11, 607470, Note_on_c, 10, 58, 0
11, 607590, Note_on_c, 10, 53, 0
11, 607680, Note_on_c, 10, 53, 113
11, 607830, Note_on_c, 10, 53, 0
11, 607920, Note_on_c, 10, 57, 114
11, 608160, Note_on_c, 10, 55, 115
11, 608190, Note_on_c, 10, 57, 0
11, 608400, Note_on_c, 10, 57, 115
11, 608430, Note_on_c, 10, 55, 0
11, 608640, Note_on_c, 10, 60, 116
11, 608670, Note_on_c, 10, 57, 0
11, 608880, Note_on_c, 10, 57, 117
11, 608910, Note_on_c, 10, 60, 0
11, 609030, Note_on_c, 10, 57, 0
11, 609120, Note_on_c, 10, 53, 118
11, 609270, Note_on_c, 10, 53, 0
11, 609360, Note_on_c, 10, 57, 118
11, 609600, Note_on_c, 10, 55, 119
11, 609630, Note_on_c, 10, 57, 0
11, 609840, Note_on_c, 10, 57, 120
11, 609870, Note_on_c, 10, 55, 0
11, 610080, Note_on_c, 10, 60, 121
11, 610110, Note_on_c, 10, 57, 0
11, 610320, Note_on_c, 10, 57, 121
11, 610350, Note_on_c, 10, 60, 0
11, 610470, Note_on_c, 10, 57, 0
11, 610560, Note_on_c, 10, 58, 122
11, 610800, Note_on_c, 10, 57, 123
11, 610830, Note_on_c, 10, 58, 0
11, 611040, Note_on_c, 10, 58, 124
11, 611070, Note_on_c, 10, 57, 0
11, 611280, Note_on_c, 10, 57, 124
11, 611310, Note_on_c, 10, 58, 0
11, 611520, Note_on_c, 10, 58, 125
11, 611550, Note_on_c, 10, 57, 0
11, 611760, Note_on_c, 10, 57, 126
11, 611790, Note_on_c, 10, 58, 0
11, 612000, Note_on_c, 10, 58, 127
11, 612030, Note_on_c, 10, 57, 0
11, 612240, Note_on_c, 10, 57, 127
11, 612270, Note_on_c, 10, 58, 0
11, 612480, Note_on_c, 10, 58, 127
11, 612510, Note_on_c, 10, 57, 0
11, 612720, Note_on_c, 10, 57, 127
11, 612750, Note_on_c, 10, 58, 0
11, 612960, Note_on_c, 10, 58, 127
11, 612990, Note_on_c, 10, 57, 0
11, 613200, Note_on_c, 10, 57, 127
11, 613230, Note_on_c, 10, 58, 0
11, 613350, Note_on_c, 10, 57, 0
11, 613440, Note_on_c, 10, 58, 127
11, 613680, Note_on_c, 10, 57, 127
11, 613710, Note_on_c, 10, 58, 0
11, 613920, Note_on_c, 10, 58, 127
11, 613950, Note_on_c, 10, 57, 0
11, 614160, Note_on_c, 10, 57, 127
11, 614190, Note_on_c, 10, 58, 0
11, 614400, Note_on_c, 10, 58, 127
11, 614430, Note_on_c, 10, 57, 0
11, 614640, Note_on_c, 10, 56, 127
11, 614670, Note_on_c, 10, 58, 0
11, 614880, Note_on_c, 10, 58, 127
11, 614910, Note_on_c, 10, 56, 0
11, 615120, Note_on_c, 10, 55, 127
11, 615150, Note_on_c, 10, 58, 0
11, 615360, Note_on_c, 10, 58, 127
11, 615390, Note_on_c, 10, 55, 0
11, 615600, Note_on_c, 10, 55, 127
11, 615630, Note_on_c, 10, 58, 0
11, 615840, Note_on_c, 10, 58, 127
11, 615870, Note_on_c, 10, 55, 0
11, 616080, Note_on_c, 10, 53, 127
11, 616110, Note_on_c, 10, 58, 0
11, 616230, Note_on_c, 10, 53, 0
11, 616320, Note_on_c, 10, 58, 127
11, 616560, Note_on_c, 10, 51, 127
11, 616590, Note_on_c, 10, 58, 0
11, 616800, Note_on_c, 10, 58, 127
11, 616830, Note_on_c, 10, 51, 0
11, 617040, Note_on_c, 10, 51, 127
11, 617070, Note_on_c, 10, 58, 0
11, 617280, Note_on_c, 10, 58, 127
11, 617310, Note_on_c, 10, 51, 0
11, 617520, Note_on_c, 10, 51, 127
11, 617550, Note_on_c, 10, 58, 0
11, 617760, Note_on_c, 10, 58, 127
11, 617790, Note_on_c, 10, 51, 0
11, 618000, Note_on_c, 10, 51, 127
11, 618030, Note_on_c, 10, 58, 0
11, 618240, Note_on_c, 10, 58, 127
11, 618270, Note_on_c, 10, 51, 0
11, 618480, Note_on_c, 10, 51, 127
11, 618510, Note_on_c, 10, 58, 0
11, 618720, Note_on_c, 10, 58, 127
11, 618750, Note_on_c, 10, 51, 0
11, 618960, Note_on_c, 10, 53, 127
11, 618990, Note_on_c, 10, 58, 0
11, 619110, Note_on_c, 10, 53, 0
11, 619200, Note_on_c, 10, 53, 127
11, 619350, Note_on_c, 10, 53, 0
11, 619440, Note_on_c, 10, 57, 127
11, 619680, Note_on_c, 10, 55, 127
11, 619710, Note_on_c, 10, 57, 0
11, 619920, Note_on_c, 10, 57, 127
11, 619950, Note_on_c, 10, 55, 0
11, 620160, Note_on_c, 10, 60, 127
11, 620190, Note_on_c, 10, 57, 0
11, 620400, Note_on_c, 10, 57, 127
11, 620430, Note_on_c, 10, 60, 0
11, 620550, Note_on_c, 10, 57, 0
11, 620640, Note_on_c, 10, 53, 127
11, 620790, Note_on_c, 10, 53, 0
11, 620880, Note_on_c, 10, 57, 127
11, 621120, Note_on_c, 10, 55, 127
11, 621150, Note_on_c, 10, 57, 0
11, 621360, Note_on_c, 10, 57, 127
11, 621390, Note_on_c, 10, 55, 0
11, 621600, Note_on_c, 10, 60, 127
11, 621630, Note_on_c, 10, 57, 0
11, 621840, Note_on_c, 10, 57, 127
11, 621870, Note_on_c, 10, 60, 0
11, 621990, Note_on_c, 10, 57, 0
11, 622080, Note_on_c, 10, 53, 127
11, 622230, Note_on_c, 10, 53, 0
11, 622320, Note_on_c, 10, 58, 127
11, 622560, Note_on_c, 10, 57, 127
11, 622590, Note_on_c, 10, 58, 0
11, 622800, Note_on_c, 10, 58, 127
11, 622830, Note_on_c, 10, 57, 0
11, 623034, Control_c, 10, 11, 120
11, 623040, Note_on_c, 10, 62, 127
11, 623070, Note_on_c, 10, 58, 0
11, 623274, Control_c, 10, 11, 80
11, 623280, Note_on_c, 10, 58, 127
11, 623310, Note_on_c, 10, 62, 0
11, 623514, Control_c, 10, 11, 120
11, 623520, Note_on_c, 10, 62, 127
11, 623550, Note_on_c, 10, 58, 0
11, 623754, Control_c, 10, 11, 80
11, 623760, Note_on_c, 10, 58, 127
11, 623790, Note_on_c, 10, 62, 0
11, 624000, Note_on_c, 10, 57, 127
11, 624030, Note_on_c, 10, 58, 0
11, 624240, Note_on_c, 10, 58, 127
11, 624270, Note_on_c, 10, 57, 0
11, 624480, Note_on_c, 10, 62, 127
11, 624510, Note_on_c, 10, 58, 0
11, 624720, Note_on_c, 10, 58, 127
11, 624750, Note_on_c, 10, 62, 0
11, 624870, Note_on_c, 10, 58, 0
11, 624960, Note_on_c, 10, 53, 127
11, 625110, Note_on_c, 10, 53, 0
11, 625200, Note_on_c, 10, 57, 127
11, 625440, Note_on_c, 10, 55, 127
11, 625470, Note_on_c, 10, 57, 0
11, 625680, Note_on_c, 10, 57, 127
11, 625710, Note_on_c, 10, 55, 0
11, 625914, Control_c, 10, 11, 120
11, 625920, Note_on_c, 10, 60, 127
11, 625950, Note_on_c, 10, 57, 0
11, 626154, Control_c, 10, 11, 80
11, 626160, Note_on_c, 10, 57, 127
11, 626190, Note_on_c, 10, 60, 0
11, 626394, Control_c, 10, 11, 120
11, 626400, Note_on_c, 10, 60, 127
11, 626430, Note_on_c, 10, 57, 0
11, 626634, Control_c, 10, 11, 80
11, 626640, Note_on_c, 10, 57, 127
11, 626670, Note_on_c, 10, 60, 0
11, 626880, Note_on_c, 10, 55, 127
11, 626910, Note_on_c, 10, 57, 0
11, 627120, Note_on_c, 10, 57, 127
11, 627150, Note_on_c, 10, 55, 0
11, 627360, Note_on_c, 10, 60, 127
11, 627390, Note_on_c, 10, 57, 0
11, 627600, Note_on_c, 10, 57, 127
11, 627630, Note_on_c, 10, 60, 0
11, 627750, Note_on_c, 10, 57, 0
11, 627840, Note_on_c, 10, 53, 127
11, 627990, Note_on_c, 10, 53, 0
11, 628080, Note_on_c, 10, 58, 127
11, 628320, Note_on_c, 10, 57, 127
11, 628350, Note_on_c, 10, 58, 0
11, 628560, Note_on_c, 10, 58, 127
11, 628590, Note_on_c, 10, 57, 0
11, 628800, Note_on_c, 10, 62, 127
11, 628830, Note_on_c, 10, 58, 0
11, 629040, Note_on_c, 10, 58, 124
11, 629070, Note_on_c, 10, 62, 0
11, 629280, Note_on_c, 10, 62, 120
11, 629310, Note_on_c, 10, 58, 0
11, 629520, Note_on_c, 10, 58, 116
11, 629550, Note_on_c, 10, 62, 0
11, 629760, Note_on_c, 10, 57, 112
11, 629790, Note_on_c, 10, 58, 0
11, 630000, Note_on_c, 10, 58, 108
11, 630030, Note_on_c, 10, 57, 0
11, 630240, Note_on_c, 10, 62, 104
11, 630270, Note_on_c, 10, 58, 0
11, 630480, Note_on_c, 10, 58, 101
11, 630510, Note_on_c, 10, 62, 0
11, 630630, Note_on_c, 10, 58, 0
11, 630720, Note_on_c, 10, 53, 97
11, 630870, Note_on_c, 10, 53, 0
11, 630960, Note_on_c, 10, 57, 93
11, 631200, Note_on_c, 10, 55, 89
11, 631230, Note_on_c, 10, 57, 0
11, 631440, Note_on_c, 10, 57, 85
11, 631470, Note_on_c, 10, 55, 0
11, 631680, Note_on_c, 10, 60, 81
11, 631710, Note_on_c, 10, 57, 0
11, 631920, Note_on_c, 10, 57, 77
11, 631950, Note_on_c, 10, 60, 0
11, 632160, Note_on_c, 10, 60, 74
11, 632190, Note_on_c, 10, 57, 0
11, 632400, Note_on_c, 10, 57, 70
11, 632430, Note_on_c, 10, 60, 0
11, 632640, Note_on_c, 10, 55, 66
11, 632670, Note_on_c, 10, 57, 0
11, 632880, Note_on_c, 10, 57, 62
11, 632910, Note_on_c, 10, 55, 0
11, 633120, Note_on_c, 10, 60, 58
11, 633150, Note_on_c, 10, 57, 0
11, 633360, Note_on_c, 10, 57, 54
11, 633390, Note_on_c, 10, 60, 0
11, 633510, Note_on_c, 10, 57, 0
11, 633600, Note_on_c, 10, 62, 50
11, 633750, Note_on_c, 10, 62, 0
11, 633840, Note_on_c, 10, 58, 50
11, 634080, Note_on_c, 10, 57, 50
11, 634110, Note_on_c, 10, 58, 0
11, 634320, Note_on_c, 10, 58, 50
11, 634350, Note_on_c, 10, 57, 0
11, 634560, Note_on_c, 10, 62, 50
11, 634590, Note_on_c, 10, 58, 0
11, 634800, Note_on_c, 10, 58, 50
11, 634830, Note_on_c, 10, 62, 0
11, 634950, Note_on_c, 10, 58, 0
11, 635040, Note_on_c, 10, 62, 50
11, 635280, Note_on_c, 10, 58, 50
11, 635310, Note_on_c, 10, 62, 0
11, 635520, Note_on_c, 10, 57, 50
11, 635550, Note_on_c, 10, 58, 0
11, 635760, Note_on_c, 10, 58, 50
11, 635790, Note_on_c, 10, 57, 0
11, 636000, Note_on_c, 10, 62, 50
11, 636030, Note_on_c, 10, 58, 0
11, 636240, Note_on_c, 10, 58, 50
11, 636270, Note_on_c, 10, 62, 0
11, 636390, Note_on_c, 10, 58, 0
11, 636480, Note_on_c, 10, 62, 50
11, 636720, Note_on_c, 10, 58, 50
11, 636750, Note_on_c, 10, 62, 0
11, 636960, Note_on_c, 10, 57, 50
11, 636990, Note_on_c, 10, 58, 0
11, 637200, Note_on_c, 10, 58, 50
11, 637230, Note_on_c, 10, 57, 0
11, 637440, Note_on_c, 10, 62, 50
11, 637470, Note_on_c, 10, 58, 0
11, 637680, Note_on_c, 10, 58, 50
11, 637710, Note_on_c, 10, 62, 0
11, 637830, Note_on_c, 10, 58, 0
11, 637920, Note_on_c, 10, 62, 50
11, 638160, Note_on_c, 10, 58, 50
11, 638190, Note_on_c, 10, 62, 0
11, 638400, Note_on_c, 10, 57, 50
11, 638430, Note_on_c, 10, 58, 0
11, 638640, Note_on_c, 10, 58, 50
11, 638670, Note_on_c, 10, 57, 0
11, 638880, Note_on_c, 10, 62, 50
11, 638910, Note_on_c, 10, 58, 0
11, 639120, Note_on_c, 10, 58, 50
11, 639150, Note_on_c, 10, 62, 0
11, 639270, Note_on_c, 10, 58, 0
11, 641760, Note_on_c, 10, 54, 70
11, 641760, Control_c, 10, 11, 80
11, 641840, Control_c, 10, 11, 81
11, 641910, Control_c, 10, 11, 82
11, 641980, Control_c, 10, 11, 83
11, 642050, Control_c, 10, 11, 84
11, 642120, Control_c, 10, 11, 85
11, 642190, Control_c, 10, 11, 86
11, 642240, Note_on_c, 10, 55, 81
11, 642270, Note_on_c, 10, 54, 0
11, 642270, Control_c, 10, 11, 87
11, 642340, Control_c, 10, 11, 88
11, 642410, Control_c, 10, 11, 89
11, 642450, Note_on_c, 10, 55, 0
11, 642480, Control_c, 10, 11, 90
11, 642550, Control_c, 10, 11, 91
11, 642620, Control_c, 10, 11, 92
11, 642690, Control_c, 10, 11, 93
11, 642720, Note_on_c, 10, 55, 92
11, 642770, Control_c, 10, 11, 94
11, 642840, Control_c, 10, 11, 95
11, 642910, Control_c, 10, 11, 96
11, 642980, Control_c, 10, 11, 97
11, 643050, Control_c, 10, 11, 98
11, 643120, Control_c, 10, 11, 99
11, 643190, Control_c, 10, 11, 100
11, 643200, Note_on_c, 10, 56, 103
11, 643230, Note_on_c, 10, 55, 0
11, 643270, Control_c, 10, 11, 101
11, 643340, Control_c, 10, 11, 102
11, 643410, Note_on_c, 10, 56, 0
11, 643410, Control_c, 10, 11, 103
11, 643480, Control_c, 10, 11, 104
11, 643550, Control_c, 10, 11, 105
11, 643620, Control_c, 10, 11, 106
11, 643680, Note_on_c, 10, 56, 114
11, 643700, Control_c, 10, 11, 107
11, 643770, Control_c, 10, 11, 108
11, 643840, Control_c, 10, 11, 109
11, 643910, Control_c, 10, 11, 110
11, 643980, Control_c, 10, 11, 111
11, 644050, Control_c, 10, 11, 112
11, 644120, Control_c, 10, 11, 113
11, 644160, Note_on_c, 10, 57, 125
11, 644190, Note_on_c, 10, 56, 0
11, 644200, Control_c, 10, 11, 114
11, 644270, Control_c, 10, 11, 115
11, 644340, Control_c, 10, 11, 116
11, 644370, Note_on_c, 10, 57, 0
11, 644410, Control_c, 10, 11, 117
11, 644480, Control_c, 10, 11, 118
11, 644550, Control_c, 10, 11, 119
11, 644620, Control_c, 10, 11, 120
11, 644640, Note_on_c, 10, 60, 127
11, 644700, Control_c, 10, 11, 121
11, 644770, Control_c, 10, 11, 122
11, 644840, Control_c, 10, 11, 123
11, 644910, Control_c, 10, 11, 124
11, 644980, Control_c, 10, 11, 125
11, 645050, Control_c, 10, 11, 126
11, 645090, Control_c, 10, 11, 127
11, 645120, Note_on_c, 10, 58, 127
11, 645150, Note_on_c, 10, 60, 0
11, 645510, Note_on_c, 10, 58, 0
11, 645600, Note_on_c, 10, 58, 127
11, 645600, Note_on_c, 10, 62, 127
11, 646290, Note_on_c, 10, 58, 0
11, 646290, Note_on_c, 10, 62, 0
11, 646560, Note_on_c, 10, 58, 127
11, 646560, Note_on_c, 10, 62, 127
11, 647250, Note_on_c, 10, 58, 0
11, 647250, Note_on_c, 10, 62, 0
11, 647520, Note_on_c, 10, 58, 127
11, 647520, Note_on_c, 10, 62, 127
11, 647670, Note_on_c, 10, 58, 0
11, 647670, Note_on_c, 10, 62, 0
11, 648000, Note_on_c, 10, 60, 127
11, 648000, Note_on_c, 10, 63, 127
11, 648690, Note_on_c, 10, 60, 0
11, 648690, Note_on_c, 10, 63, 0
11, 648960, Note_on_c, 10, 60, 127
11, 648960, Note_on_c, 10, 63, 127
11, 649110, Note_on_c, 10, 60, 0
11, 649110, Note_on_c, 10, 63, 0
11, 649440, Note_on_c, 10, 60, 127
11, 649440, Note_on_c, 10, 63, 127
11, 650040, Note_on_c, 10, 60, 0
11, 650040, Note_on_c, 10, 63, 0
11, 652320, Control_c, 10, 11, 80
11, 654720, Note_on_c, 10, 57, 70
11, 655200, Note_on_c, 10, 54, 70
11, 655230, Note_on_c, 10, 57, 0
11, 655680, Note_on_c, 10, 53, 70
11, 655710, Note_on_c, 10, 54, 0
11, 656190, Note_on_c, 10, 53, 0
11, 660480, Note_on_c, 10, 59, 70
11, 660960, Note_on_c, 10, 56, 70
11, 660990, Note_on_c, 10, 59, 0
11, 661440, Note_on_c, 10, 55, 70
11, 661470, Note_on_c, 10, 56, 0
11, 661830, Note_on_c, 10, 55, 0
11, 661920, Note_on_c, 10, 61, 70
11, 662400, Note_on_c, 10, 58, 70
11, 662430, Note_on_c, 10, 61, 0
11, 662880, Note_on_c, 10, 55, 70
11, 662910, Note_on_c, 10, 58, 0
11, 663360, Note_on_c, 10, 52, 70
11, 663390, Note_on_c, 10, 55, 0
11, 663840, Note_on_c, 10, 49, 70
11, 663870, Note_on_c, 10, 52, 0
11, 664320, Note_on_c, 10, 48, 70
11, 664350, Note_on_c, 10, 49, 0
11, 664710, Note_on_c, 10, 48, 0
11, 664794, Control_c, 10, 11, 40
11, 664800, Note_on_c, 10, 52, 127
11, 665280, Note_on_c, 10, 53, 127
11, 665310, Note_on_c, 10, 52, 0
11, 666950, Control_c, 10, 11, 41
11, 667010, Control_c, 10, 11, 43
11, 667070, Control_c, 10, 11, 44
11, 667130, Control_c, 10, 11, 45
11, 667180, Control_c, 10, 11, 47
11, 667240, Control_c, 10, 11, 48
11, 667300, Control_c, 10, 11, 49
11, 667360, Control_c, 10, 11, 51
11, 667410, Control_c, 10, 11, 52
11, 667470, Control_c, 10, 11, 53
11, 667530, Control_c, 10, 11, 55
11, 667590, Control_c, 10, 11, 56
11, 667640, Control_c, 10, 11, 57
11, 667700, Control_c, 10, 11, 59
11, 667760, Control_c, 10, 11, 60
11, 667820, Control_c, 10, 11, 62
11, 667870, Control_c, 10, 11, 63
11, 667930, Control_c, 10, 11, 64
11, 667990, Control_c, 10, 11, 66
11, 668050, Control_c, 10, 11, 67
11, 668100, Control_c, 10, 11, 68
11, 668160, Control_c, 10, 11, 70
11, 668220, Control_c, 10, 11, 71
11, 668280, Control_c, 10, 11, 73
11, 668330, Control_c, 10, 11, 74
11, 668390, Control_c, 10, 11, 75
11, 668450, Control_c, 10, 11, 77
11, 668510, Control_c, 10, 11, 78
11, 668560, Control_c, 10, 11, 79
11, 668620, Control_c, 10, 11, 81
11, 668680, Control_c, 10, 11, 82
11, 668740, Control_c, 10, 11, 83
11, 668790, Control_c, 10, 11, 85
11, 668850, Control_c, 10, 11, 86
11, 668910, Control_c, 10, 11, 87
11, 668970, Control_c, 10, 11, 89
11, 669020, Control_c, 10, 11, 90
11, 669080, Control_c, 10, 11, 92
11, 669140, Control_c, 10, 11, 93
11, 669200, Control_c, 10, 11, 94
11, 669250, Control_c, 10, 11, 96
11, 669310, Control_c, 10, 11, 97
11, 669370, Control_c, 10, 11, 98
11, 669430, Control_c, 10, 11, 100
11, 669480, Control_c, 10, 11, 101
11, 669540, Control_c, 10, 11, 102
11, 669600, Control_c, 10, 11, 104
11, 669660, Control_c, 10, 11, 105
11, 669710, Control_c, 10, 11, 106
11, 669770, Control_c, 10, 11, 108
11, 669830, Control_c, 10, 11, 109
11, 669890, Control_c, 10, 11, 111
11, 669940, Control_c, 10, 11, 112
11, 670000, Control_c, 10, 11, 113
11, 670060, Control_c, 10, 11, 115
11, 670120, Control_c, 10, 11, 116
11, 670170, Control_c, 10, 11, 117
11, 670230, Control_c, 10, 11, 119
11, 670290, Control_c, 10, 11, 120
11, 670350, Control_c, 10, 11, 122
11, 670400, Control_c, 10, 11, 123
11, 670460, Control_c, 10, 11, 124
11, 670470, Note_on_c, 10, 53, 0
11, 670520, Control_c, 10, 11, 126
11, 670550, Control_c, 10, 11, 127
11, 670560, Note_on_c, 10, 54, 127
11, 671034, Control_c, 10, 11, 40
11, 671040, Note_on_c, 10, 53, 127
11, 671070, Note_on_c, 10, 54, 0
11, 671110, Control_c, 10, 11, 41
11, 671170, Control_c, 10, 11, 42
11, 671230, Control_c, 10, 11, 43
11, 671290, Control_c, 10, 11, 44
11, 671350, Control_c, 10, 11, 45
11, 671410, Control_c, 10, 11, 46
11, 671470, Control_c, 10, 11, 47
11, 671530, Control_c, 10, 11, 48
11, 671590, Control_c, 10, 11, 49
11, 671650, Control_c, 10, 11, 50
11, 671710, Control_c, 10, 11, 51
11, 671770, Control_c, 10, 11, 52
11, 671830, Control_c, 10, 11, 53
11, 671890, Control_c, 10, 11, 54
11, 671960, Control_c, 10, 11, 55
11, 672020, Control_c, 10, 11, 56
11, 672080, Control_c, 10, 11, 57
11, 672140, Control_c, 10, 11, 58
11, 672200, Control_c, 10, 11, 59
11, 672260, Control_c, 10, 11, 60
11, 672320, Control_c, 10, 11, 61
11, 672380, Control_c, 10, 11, 62
11, 672440, Control_c, 10, 11, 63
11, 672500, Control_c, 10, 11, 64
11, 672560, Control_c, 10, 11, 65
11, 672620, Control_c, 10, 11, 66
11, 672680, Control_c, 10, 11, 67
11, 672740, Control_c, 10, 11, 68
11, 672800, Control_c, 10, 11, 69
11, 672870, Control_c, 10, 11, 70
11, 672930, Control_c, 10, 11, 71
11, 672990, Control_c, 10, 11, 72
11, 673050, Control_c, 10, 11, 73
11, 673110, Control_c, 10, 11, 74
11, 673170, Control_c, 10, 11, 75
11, 673230, Control_c, 10, 11, 76
11, 673290, Control_c, 10, 11, 77
11, 673350, Control_c, 10, 11, 78
11, 673410, Control_c, 10, 11, 79
11, 673470, Control_c, 10, 11, 80
11, 673530, Control_c, 10, 11, 81
11, 673590, Control_c, 10, 11, 82
11, 673650, Control_c, 10, 11, 83
11, 673720, Control_c, 10, 11, 84
11, 673780, Control_c, 10, 11, 85
11, 673840, Control_c, 10, 11, 86
11, 673900, Control_c, 10, 11, 87
11, 673960, Control_c, 10, 11, 88
11, 674020, Control_c, 10, 11, 89
11, 674080, Control_c, 10, 11, 90
11, 674140, Control_c, 10, 11, 91
11, 674200, Control_c, 10, 11, 92
11, 674260, Control_c, 10, 11, 93
11, 674320, Control_c, 10, 11, 94
11, 674380, Control_c, 10, 11, 95
11, 674440, Control_c, 10, 11, 96
11, 674500, Control_c, 10, 11, 97
11, 674560, Control_c, 10, 11, 98
11, 674630, Control_c, 10, 11, 99
11, 674690, Control_c, 10, 11, 100
11, 674750, Control_c, 10, 11, 101
11, 674810, Control_c, 10, 11, 102
11, 674870, Control_c, 10, 11, 103
11, 674930, Control_c, 10, 11, 104
11, 674990, Control_c, 10, 11, 105
11, 675050, Control_c, 10, 11, 106
11, 675110, Control_c, 10, 11, 107
11, 675170, Control_c, 10, 11, 108
11, 675230, Control_c, 10, 11, 109
11, 675290, Control_c, 10, 11, 110
11, 675350, Control_c, 10, 11, 111
11, 675410, Control_c, 10, 11, 112
11, 675480, Control_c, 10, 11, 113
11, 675540, Control_c, 10, 11, 114
11, 675600, Control_c, 10, 11, 115
11, 675660, Control_c, 10, 11, 116
11, 675720, Control_c, 10, 11, 117
11, 675780, Control_c, 10, 11, 118
11, 675840, Control_c, 10, 11, 119
11, 675900, Control_c, 10, 11, 120
11, 675960, Control_c, 10, 11, 121
11, 676020, Control_c, 10, 11, 122
11, 676080, Control_c, 10, 11, 123
11, 676140, Control_c, 10, 11, 124
11, 676200, Control_c, 10, 11, 125
11, 676230, Note_on_c, 10, 53, 0
11, 676260, Control_c, 10, 11, 126
11, 676290, Control_c, 10, 11, 127
11, 676320, Note_on_c, 10, 54, 127
11, 676800, Note_on_c, 10, 53, 110
11, 676830, Note_on_c, 10, 54, 0
11, 677010, Note_on_c, 10, 53, 0
11, 677280, Note_on_c, 10, 65, 112
11, 678150, Note_on_c, 10, 65, 0
11, 678240, Note_on_c, 10, 67, 118
11, 679110, Note_on_c, 10, 67, 0
11, 679200, Note_on_c, 10, 63, 124
11, 679410, Note_on_c, 10, 63, 0
11, 679680, Note_on_c, 10, 62, 127
11, 680790, Note_on_c, 10, 62, 0
11, 681120, Note_on_c, 10, 60, 127
11, 681120, Note_on_c, 10, 63, 127
11, 682230, Note_on_c, 10, 60, 0
11, 682230, Note_on_c, 10, 63, 0
11, 682560, Note_on_c, 10, 58, 127
11, 682560, Note_on_c, 10, 62, 127
11, 683035, Note_on_c, 10, 58, 0
11, 683035, Note_on_c, 10, 62, 0
11, 683040, Note_on_c, 10, 58, 127
11, 683040, Note_on_c, 10, 62, 127
11, 683515, Note_on_c, 10, 58, 0
11, 683515, Note_on_c, 10, 62, 0
11, 683520, Note_on_c, 10, 58, 127
11, 683520, Note_on_c, 10, 62, 127
11, 683995, Note_on_c, 10, 58, 0
11, 683995, Note_on_c, 10, 62, 0
11, 684000, Note_on_c, 10, 58, 127
11, 684000, Note_on_c, 10, 62, 127
11, 684475, Note_on_c, 10, 58, 0
11, 684475, Note_on_c, 10, 62, 0
11, 684480, Note_on_c, 10, 58, 127
11, 684480, Note_on_c, 10, 62, 127
11, 684955, Note_on_c, 10, 58, 0
11, 684955, Note_on_c, 10, 62, 0
11, 684960, Note_on_c, 10, 58, 127
11, 684960, Note_on_c, 10, 62, 127
11, 685435, Note_on_c, 10, 58, 0
11, 685435, Note_on_c, 10, 62, 0
11, 685440, Note_on_c, 10, 60, 127
11, 685440, Note_on_c, 10, 63, 127
11, 685915, Note_on_c, 10, 60, 0
11, 685915, Note_on_c, 10, 63, 0
11, 685920, Note_on_c, 10, 60, 127
11, 685920, Note_on_c, 10, 63, 127
11, 686395, Note_on_c, 10, 60, 0
11, 686395, Note_on_c, 10, 63, 0
11, 686400, Note_on_c, 10, 60, 127
11, 686400, Note_on_c, 10, 63, 127
11, 686875, Note_on_c, 10, 60, 0
11, 686875, Note_on_c, 10, 63, 0
11, 686880, Note_on_c, 10, 60, 127
11, 686880, Note_on_c, 10, 63, 127
11, 687355, Note_on_c, 10, 60, 0
11, 687355, Note_on_c, 10, 63, 0
11, 687360, Note_on_c, 10, 60, 127
11, 687360, Note_on_c, 10, 63, 127
11, 687835, Note_on_c, 10, 60, 0
11, 687835, Note_on_c, 10, 63, 0
11, 687840, Note_on_c, 10, 60, 127
11, 687840, Note_on_c, 10, 63, 127
11, 688315, Note_on_c, 10, 60, 0
11, 688315, Note_on_c, 10, 63, 0
11, 688320, Note_on_c, 10, 58, 127
11, 688320, Note_on_c, 10, 62, 127
11, 688795, Note_on_c, 10, 58, 0
11, 688795, Note_on_c, 10, 62, 0
11, 688800, Note_on_c, 10, 58, 127
11, 688800, Note_on_c, 10, 62, 127
11, 689275, Note_on_c, 10, 58, 0
11, 689275, Note_on_c, 10, 62, 0
11, 689280, Note_on_c, 10, 58, 127
11, 689280, Note_on_c, 10, 62, 127
11, 689755, Note_on_c, 10, 58, 0
11, 689755, Note_on_c, 10, 62, 0
11, 689760, Note_on_c, 10, 58, 127
11, 689760, Note_on_c, 10, 62, 127
11, 690235, Note_on_c, 10, 58, 0
11, 690235, Note_on_c, 10, 62, 0
11, 690240, Note_on_c, 10, 58, 127
11, 690240, Note_on_c, 10, 62, 127
11, 690715, Note_on_c, 10, 58, 0
11, 690715, Note_on_c, 10, 62, 0
11, 690720, Note_on_c, 10, 58, 127
11, 690720, Note_on_c, 10, 62, 127
11, 691195, Note_on_c, 10, 58, 0
11, 691195, Note_on_c, 10, 62, 0
11, 691200, Note_on_c, 10, 60, 127
11, 691200, Note_on_c, 10, 63, 127
11, 691675, Note_on_c, 10, 60, 0
11, 691675, Note_on_c, 10, 63, 0
11, 691680, Note_on_c, 10, 60, 127
11, 691680, Note_on_c, 10, 63, 127
11, 692155, Note_on_c, 10, 60, 0
11, 692155, Note_on_c, 10, 63, 0
11, 692160, Note_on_c, 10, 60, 127
11, 692160, Note_on_c, 10, 63, 127
11, 692635, Note_on_c, 10, 60, 0
11, 692635, Note_on_c, 10, 63, 0
11, 692640, Note_on_c, 10, 60, 127
11, 692640, Note_on_c, 10, 63, 127
11, 693115, Note_on_c, 10, 60, 0
11, 693115, Note_on_c, 10, 63, 0
11, 693120, Note_on_c, 10, 60, 127
11, 693120, Note_on_c, 10, 63, 127
11, 693595, Note_on_c, 10, 60, 0
11, 693595, Note_on_c, 10, 63, 0
11, 693600, Note_on_c, 10, 60, 127
11, 693600, Note_on_c, 10, 63, 127
11, 694075, Note_on_c, 10, 60, 0
11, 694075, Note_on_c, 10, 63, 0
11, 694080, Note_on_c, 10, 58, 127
11, 695130, Note_on_c, 10, 58, 0
11, 695520, Note_on_c, 10, 58, 127
11, 696570, Note_on_c, 10, 58, 0
11, 696960, Note_on_c, 10, 58, 127
11, 697170, Note_on_c, 10, 58, 0
11, 697440, Note_on_c, 10, 58, 127
11, 697650, Note_on_c, 10, 58, 0
11, 697920, Note_on_c, 10, 58, 127
11, 698100, Note_on_c, 10, 58, 0
11, 698400, Note_on_c, 10, 58, 127
11, 699000, Note_on_c, 10, 58, 0
11, 702720, Note_on_c, 10, 58, 127
11, 703170, Note_on_c, 10, 58, 0
11, 703170, End_track
12, 0, Start_track
12, 0, Channel_prefix, 11
12, 0, Title_t, "Cello   "
12, 0, Instrument_name_t, "Violoncello"
12, 2400, Note_on_c, 11, 41, 100
12, 2880, Note_on_c, 11, 46, 100
12, 2910, Note_on_c, 11, 41, 0
12, 3090, Note_on_c, 11, 46, 0
12, 3360, Note_on_c, 11, 46, 100
12, 4050, Note_on_c, 11, 46, 0
12, 4320, Note_on_c, 11, 46, 100
12, 4950, Note_on_c, 11, 46, 0
12, 5280, Note_on_c, 11, 46, 100
12, 5430, Note_on_c, 11, 46, 0
12, 5760, Note_on_c, 11, 41, 100
12, 6240, Note_on_c, 11, 45, 100
12, 6270, Note_on_c, 11, 41, 0
12, 6720, Note_on_c, 11, 48, 100
12, 6750, Note_on_c, 11, 45, 0
12, 6870, Note_on_c, 11, 48, 0
12, 11040, Note_on_c, 11, 54, 50
12, 11520, Note_on_c, 11, 51, 50
12, 11550, Note_on_c, 11, 54, 0
12, 12030, Note_on_c, 11, 51, 0
12, 19680, Note_on_c, 11, 46, 50
12, 20160, Note_on_c, 11, 45, 50
12, 20190, Note_on_c, 11, 46, 0
12, 20370, Note_on_c, 11, 45, 0
12, 20640, Note_on_c, 11, 52, 50
12, 21570, Note_on_c, 11, 52, 0
12, 22560, Note_on_c, 11, 55, 59
12, 23250, Note_on_c, 11, 55, 0
12, 23520, Note_on_c, 11, 57, 71
12, 24210, Note_on_c, 11, 57, 0
12, 24480, Note_on_c, 11, 58, 85
12, 25170, Note_on_c, 11, 58, 0
12, 25440, Note_on_c, 11, 48, 90
12, 25590, Note_on_c, 11, 48, 0
12, 25920, Note_on_c, 11, 41, 95
12, 27090, Note_on_c, 11, 41, 0
12, 27360, Note_on_c, 11, 41, 100
12, 28530, Note_on_c, 11, 41, 0
12, 28800, Note_on_c, 11, 41, 100
12, 29010, Note_on_c, 11, 41, 0
12, 29280, Note_on_c, 11, 41, 100
12, 29490, Note_on_c, 11, 41, 0
12, 29760, Note_on_c, 11, 41, 100
12, 29970, Note_on_c, 11, 41, 0
12, 30240, Note_on_c, 11, 41, 100
12, 30600, Note_on_c, 11, 41, 0
12, 31200, Note_on_c, 11, 41, 100
12, 31680, Note_on_c, 11, 46, 100
12, 31710, Note_on_c, 11, 41, 0
12, 31890, Note_on_c, 11, 46, 0
12, 32160, Note_on_c, 11, 46, 100
12, 32850, Note_on_c, 11, 46, 0
12, 33120, Note_on_c, 11, 46, 100
12, 33750, Note_on_c, 11, 46, 0
12, 34080, Note_on_c, 11, 46, 100
12, 34230, Note_on_c, 11, 46, 0
12, 34560, Note_on_c, 11, 41, 100
12, 35040, Note_on_c, 11, 45, 100
12, 35070, Note_on_c, 11, 41, 0
12, 35520, Note_on_c, 11, 48, 100
12, 35550, Note_on_c, 11, 45, 0
12, 35670, Note_on_c, 11, 48, 0
12, 39840, Note_on_c, 11, 54, 50
12, 40320, Note_on_c, 11, 51, 50
12, 40350, Note_on_c, 11, 54, 0
12, 40830, Note_on_c, 11, 51, 0
12, 48480, Note_on_c, 11, 46, 50
12, 48960, Note_on_c, 11, 45, 50
12, 48990, Note_on_c, 11, 46, 0
12, 49170, Note_on_c, 11, 45, 0
12, 49440, Note_on_c, 11, 52, 50
12, 50370, Note_on_c, 11, 52, 0
12, 51360, Note_on_c, 11, 55, 59
12, 52050, Note_on_c, 11, 55, 0
12, 52320, Note_on_c, 11, 57, 71
12, 53010, Note_on_c, 11, 57, 0
12, 53280, Note_on_c, 11, 58, 85
12, 53970, Note_on_c, 11, 58, 0
12, 54240, Note_on_c, 11, 48, 90
12, 54390, Note_on_c, 11, 48, 0
12, 54720, Note_on_c, 11, 41, 95
12, 55890, Note_on_c, 11, 41, 0
12, 56160, Note_on_c, 11, 41, 100
12, 57330, Note_on_c, 11, 41, 0
12, 57600, Note_on_c, 11, 41, 100
12, 57810, Note_on_c, 11, 41, 0
12, 58080, Note_on_c, 11, 41, 100
12, 58290, Note_on_c, 11, 41, 0
12, 58560, Note_on_c, 11, 41, 100
12, 58770, Note_on_c, 11, 41, 0
12, 59040, Note_on_c, 11, 41, 100
12, 59400, Note_on_c, 11, 41, 0
12, 63360, Note_on_c, 11, 56, 70
12, 64230, Note_on_c, 11, 56, 0
12, 64320, Note_on_c, 11, 56, 70
12, 64710, Note_on_c, 11, 56, 0
12, 64800, Note_on_c, 11, 56, 70
12, 65190, Note_on_c, 11, 56, 0
12, 68160, Note_on_c, 11, 44, 70
12, 68550, Note_on_c, 11, 44, 0
12, 68640, Note_on_c, 11, 44, 70
12, 69030, Note_on_c, 11, 44, 0
12, 69120, Note_on_c, 11, 49, 70
12, 69990, Note_on_c, 11, 49, 0
12, 70080, Note_on_c, 11, 61, 70
12, 70470, Note_on_c, 11, 61, 0
12, 70560, Note_on_c, 11, 61, 70
12, 70950, Note_on_c, 11, 61, 0
12, 73920, Note_on_c, 11, 49, 70
12, 74130, Note_on_c, 11, 49, 0
12, 74880, Note_on_c, 11, 46, 70
12, 75570, Note_on_c, 11, 46, 0
12, 75840, Note_on_c, 11, 58, 70
12, 76050, Note_on_c, 11, 58, 0
12, 76320, Note_on_c, 11, 58, 70
12, 76530, Note_on_c, 11, 58, 0
12, 79680, Note_on_c, 11, 58, 70
12, 79890, Note_on_c, 11, 58, 0
12, 80160, Note_on_c, 11, 58, 70
12, 80370, Note_on_c, 11, 58, 0
12, 80640, Note_on_c, 11, 63, 70
12, 83430, Note_on_c, 11, 63, 0
12, 83520, Note_on_c, 11, 65, 70
12, 86310, Note_on_c, 11, 65, 0
12, 86400, Note_on_c, 11, 58, 70
12, 89190, Note_on_c, 11, 58, 0
12, 89280, Note_on_c, 11, 60, 70
12, 92070, Note_on_c, 11, 60, 0
12, 92160, Note_on_c, 11, 53, 70
12, 93510, Note_on_c, 11, 53, 0
12, 93600, Note_on_c, 11, 55, 70
12, 94950, Note_on_c, 11, 55, 0
12, 95040, Note_on_c, 11, 48, 70
12, 96390, Note_on_c, 11, 48, 0
12, 96480, Note_on_c, 11, 50, 70
12, 97830, Note_on_c, 11, 50, 0
12, 97920, Note_on_c, 11, 43, 70
12, 99270, Note_on_c, 11, 43, 0
12, 99360, Note_on_c, 11, 45, 70
12, 100710, Note_on_c, 11, 45, 0
12, 100800, Note_on_c, 11, 38, 70
12, 102150, Note_on_c, 11, 38, 0
12, 102240, Note_on_c, 11, 41, 70
12, 105990, Note_on_c, 11, 41, 0
12, 106080, Note_on_c, 11, 41, 80
12, 106560, Note_on_c, 11, 46, 90
12, 106590, Note_on_c, 11, 41, 0
12, 106770, Note_on_c, 11, 46, 0
12, 107040, Note_on_c, 11, 46, 90
12, 107730, Note_on_c, 11, 46, 0
12, 108000, Note_on_c, 11, 46, 90
12, 108690, Note_on_c, 11, 46, 0
12, 108960, Note_on_c, 11, 46, 90
12, 109110, Note_on_c, 11, 46, 0
12, 109440, Note_on_c, 11, 41, 90
12, 109920, Note_on_c, 11, 45, 90
12, 109950, Note_on_c, 11, 41, 0
12, 110130, Note_on_c, 11, 45, 0
12, 110400, Note_on_c, 11, 48, 90
12, 110550, Note_on_c, 11, 48, 0
12, 110880, Note_on_c, 11, 53, 90
12, 111480, Note_on_c, 11, 53, 0
12, 114720, Note_on_c, 11, 54, 50
12, 115200, Note_on_c, 11, 51, 50
12, 115230, Note_on_c, 11, 54, 0
12, 115680, Note_on_c, 11, 48, 50
12, 115710, Note_on_c, 11, 51, 0
12, 116160, Note_on_c, 11, 45, 50
12, 116190, Note_on_c, 11, 48, 0
12, 116640, Note_on_c, 11, 42, 50
12, 116670, Note_on_c, 11, 45, 0
12, 117120, Note_on_c, 11, 41, 50
12, 117150, Note_on_c, 11, 42, 0
12, 117630, Note_on_c, 11, 41, 0
12, 120480, Note_on_c, 11, 56, 50
12, 120960, Note_on_c, 11, 53, 50
12, 120990, Note_on_c, 11, 56, 0
12, 121440, Note_on_c, 11, 50, 50
12, 121470, Note_on_c, 11, 53, 0
12, 121920, Note_on_c, 11, 47, 50
12, 121950, Note_on_c, 11, 50, 0
12, 122400, Note_on_c, 11, 44, 50
12, 122430, Note_on_c, 11, 47, 0
12, 122880, Note_on_c, 11, 43, 50
12, 122910, Note_on_c, 11, 44, 0
12, 123270, Note_on_c, 11, 43, 0
12, 126234, Control_c, 11, 11, 40
12, 126240, Note_on_c, 11, 46, 127
12, 126720, Note_on_c, 11, 45, 127
12, 126750, Note_on_c, 11, 46, 0
12, 128390, Control_c, 11, 11, 41
12, 128450, Control_c, 11, 11, 43
12, 128510, Control_c, 11, 11, 44
12, 128570, Control_c, 11, 11, 45
12, 128620, Control_c, 11, 11, 47
12, 128680, Control_c, 11, 11, 48
12, 128740, Control_c, 11, 11, 49
12, 128800, Control_c, 11, 11, 51
12, 128850, Control_c, 11, 11, 52
12, 128910, Control_c, 11, 11, 53
12, 128970, Control_c, 11, 11, 55
12, 129030, Control_c, 11, 11, 56
12, 129080, Control_c, 11, 11, 57
12, 129140, Control_c, 11, 11, 59
12, 129200, Control_c, 11, 11, 60
12, 129260, Control_c, 11, 11, 62
12, 129310, Control_c, 11, 11, 63
12, 129370, Control_c, 11, 11, 64
12, 129430, Control_c, 11, 11, 66
12, 129490, Control_c, 11, 11, 67
12, 129540, Control_c, 11, 11, 68
12, 129600, Control_c, 11, 11, 70
12, 129660, Control_c, 11, 11, 71
12, 129720, Control_c, 11, 11, 73
12, 129770, Control_c, 11, 11, 74
12, 129830, Control_c, 11, 11, 75
12, 129890, Control_c, 11, 11, 77
12, 129950, Control_c, 11, 11, 78
12, 130000, Control_c, 11, 11, 79
12, 130060, Control_c, 11, 11, 81
12, 130120, Control_c, 11, 11, 82
12, 130180, Control_c, 11, 11, 83
12, 130230, Control_c, 11, 11, 85
12, 130290, Control_c, 11, 11, 86
12, 130350, Control_c, 11, 11, 87
12, 130410, Control_c, 11, 11, 89
12, 130460, Control_c, 11, 11, 90
12, 130520, Control_c, 11, 11, 92
12, 130580, Control_c, 11, 11, 93
12, 130640, Control_c, 11, 11, 94
12, 130690, Control_c, 11, 11, 96
12, 130750, Control_c, 11, 11, 97
12, 130810, Control_c, 11, 11, 98
12, 130870, Control_c, 11, 11, 100
12, 130920, Control_c, 11, 11, 101
12, 130980, Control_c, 11, 11, 102
12, 131040, Control_c, 11, 11, 104
12, 131100, Control_c, 11, 11, 105
12, 131150, Control_c, 11, 11, 106
12, 131210, Control_c, 11, 11, 108
12, 131270, Control_c, 11, 11, 109
12, 131330, Control_c, 11, 11, 111
12, 131380, Control_c, 11, 11, 112
12, 131440, Control_c, 11, 11, 113
12, 131500, Control_c, 11, 11, 115
12, 131560, Control_c, 11, 11, 116
12, 131610, Control_c, 11, 11, 117
12, 131670, Control_c, 11, 11, 119
12, 131730, Control_c, 11, 11, 120
12, 131790, Control_c, 11, 11, 122
12, 131840, Control_c, 11, 11, 123
12, 131900, Control_c, 11, 11, 124
12, 131910, Note_on_c, 11, 45, 0
12, 131960, Control_c, 11, 11, 126
12, 131990, Control_c, 11, 11, 127
12, 132000, Note_on_c, 11, 46, 127
12, 132474, Control_c, 11, 11, 40
12, 132480, Note_on_c, 11, 45, 127
12, 132510, Note_on_c, 11, 46, 0
12, 132550, Control_c, 11, 11, 41
12, 132610, Control_c, 11, 11, 42
12, 132670, Control_c, 11, 11, 43
12, 132730, Control_c, 11, 11, 44
12, 132790, Control_c, 11, 11, 45
12, 132850, Control_c, 11, 11, 46
12, 132910, Control_c, 11, 11, 47
12, 132970, Control_c, 11, 11, 48
12, 133030, Control_c, 11, 11, 49
12, 133090, Control_c, 11, 11, 50
12, 133150, Control_c, 11, 11, 51
12, 133210, Control_c, 11, 11, 52
12, 133270, Control_c, 11, 11, 53
12, 133330, Control_c, 11, 11, 54
12, 133400, Control_c, 11, 11, 55
12, 133460, Control_c, 11, 11, 56
12, 133520, Control_c, 11, 11, 57
12, 133580, Control_c, 11, 11, 58
12, 133640, Control_c, 11, 11, 59
12, 133700, Control_c, 11, 11, 60
12, 133760, Control_c, 11, 11, 61
12, 133820, Control_c, 11, 11, 62
12, 133880, Control_c, 11, 11, 63
12, 133940, Control_c, 11, 11, 64
12, 134000, Control_c, 11, 11, 65
12, 134060, Control_c, 11, 11, 66
12, 134120, Control_c, 11, 11, 67
12, 134180, Control_c, 11, 11, 68
12, 134240, Control_c, 11, 11, 69
12, 134310, Control_c, 11, 11, 70
12, 134370, Control_c, 11, 11, 71
12, 134430, Control_c, 11, 11, 72
12, 134490, Control_c, 11, 11, 73
12, 134550, Control_c, 11, 11, 74
12, 134610, Control_c, 11, 11, 75
12, 134670, Control_c, 11, 11, 76
12, 134730, Control_c, 11, 11, 77
12, 134790, Control_c, 11, 11, 78
12, 134850, Control_c, 11, 11, 79
12, 134910, Control_c, 11, 11, 80
12, 134970, Control_c, 11, 11, 81
12, 135030, Control_c, 11, 11, 82
12, 135090, Control_c, 11, 11, 83
12, 135160, Control_c, 11, 11, 84
12, 135220, Control_c, 11, 11, 85
12, 135280, Control_c, 11, 11, 86
12, 135340, Control_c, 11, 11, 87
12, 135400, Control_c, 11, 11, 88
12, 135460, Control_c, 11, 11, 89
12, 135520, Control_c, 11, 11, 90
12, 135580, Control_c, 11, 11, 91
12, 135640, Control_c, 11, 11, 92
12, 135700, Control_c, 11, 11, 93
12, 135760, Control_c, 11, 11, 94
12, 135820, Control_c, 11, 11, 95
12, 135880, Control_c, 11, 11, 96
12, 135940, Control_c, 11, 11, 97
12, 136000, Control_c, 11, 11, 98
12, 136070, Control_c, 11, 11, 99
12, 136130, Control_c, 11, 11, 100
12, 136190, Control_c, 11, 11, 101
12, 136250, Control_c, 11, 11, 102
12, 136310, Control_c, 11, 11, 103
12, 136370, Control_c, 11, 11, 104
12, 136430, Control_c, 11, 11, 105
12, 136490, Control_c, 11, 11, 106
12, 136550, Control_c, 11, 11, 107
12, 136610, Control_c, 11, 11, 108
12, 136670, Control_c, 11, 11, 109
12, 136730, Control_c, 11, 11, 110
12, 136790, Control_c, 11, 11, 111
12, 136850, Control_c, 11, 11, 112
12, 136920, Control_c, 11, 11, 113
12, 136980, Control_c, 11, 11, 114
12, 137040, Control_c, 11, 11, 115
12, 137100, Control_c, 11, 11, 116
12, 137160, Control_c, 11, 11, 117
12, 137220, Control_c, 11, 11, 118
12, 137280, Control_c, 11, 11, 119
12, 137340, Control_c, 11, 11, 120
12, 137400, Control_c, 11, 11, 121
12, 137460, Control_c, 11, 11, 122
12, 137520, Control_c, 11, 11, 123
12, 137580, Control_c, 11, 11, 124
12, 137640, Control_c, 11, 11, 125
12, 137670, Note_on_c, 11, 45, 0
12, 137700, Control_c, 11, 11, 126
12, 137730, Control_c, 11, 11, 127
12, 137760, Note_on_c, 11, 46, 127
12, 138240, Note_on_c, 11, 45, 100
12, 138270, Note_on_c, 11, 46, 0
12, 138450, Note_on_c, 11, 45, 0
12, 138720, Note_on_c, 11, 53, 90
12, 139590, Note_on_c, 11, 53, 0
12, 139680, Note_on_c, 11, 55, 90
12, 140550, Note_on_c, 11, 55, 0
12, 140640, Note_on_c, 11, 51, 90
12, 140850, Note_on_c, 11, 51, 0
12, 141120, Note_on_c, 11, 53, 90
12, 142230, Note_on_c, 11, 53, 0
12, 142560, Note_on_c, 11, 53, 90
12, 143670, Note_on_c, 11, 53, 0
12, 144000, Note_on_c, 11, 46, 90
12, 144480, Note_on_c, 11, 41, 90
12, 144510, Note_on_c, 11, 46, 0
12, 144690, Note_on_c, 11, 41, 0
12, 144960, Note_on_c, 11, 50, 90
12, 145440, Note_on_c, 11, 46, 90
12, 145470, Note_on_c, 11, 50, 0
12, 145650, Note_on_c, 11, 46, 0
12, 145920, Note_on_c, 11, 53, 90
12, 146400, Note_on_c, 11, 50, 90
12, 146430, Note_on_c, 11, 53, 0
12, 146610, Note_on_c, 11, 50, 0
12, 146880, Note_on_c, 11, 41, 90
12, 149190, Note_on_c, 11, 41, 0
12, 149280, Note_on_c, 11, 41, 90
12, 149670, Note_on_c, 11, 41, 0
12, 149760, Note_on_c, 11, 46, 90
12, 150240, Note_on_c, 11, 41, 90
12, 150270, Note_on_c, 11, 46, 0
12, 150450, Note_on_c, 11, 41, 0
12, 150720, Note_on_c, 11, 50, 90
12, 151200, Note_on_c, 11, 46, 90
12, 151230, Note_on_c, 11, 50, 0
12, 151410, Note_on_c, 11, 46, 0
12, 151680, Note_on_c, 11, 53, 90
12, 152160, Note_on_c, 11, 50, 90
12, 152190, Note_on_c, 11, 53, 0
12, 152370, Note_on_c, 11, 50, 0
12, 152640, Note_on_c, 11, 41, 90
12, 154950, Note_on_c, 11, 41, 0
12, 155040, Note_on_c, 11, 41, 90
12, 155430, Note_on_c, 11, 41, 0
12, 155520, Note_on_c, 11, 46, 90
12, 156570, Note_on_c, 11, 46, 0
12, 156960, Note_on_c, 11, 46, 90
12, 158010, Note_on_c, 11, 46, 0
12, 158400, Note_on_c, 11, 46, 90
12, 158610, Note_on_c, 11, 46, 0
12, 158880, Note_on_c, 11, 46, 90
12, 159090, Note_on_c, 11, 46, 0
12, 159360, Note_on_c, 11, 46, 90
12, 159540, Note_on_c, 11, 46, 0
12, 159840, Note_on_c, 11, 46, 90
12, 160320, Control_c, 11, 11, 80
12, 160440, Note_on_c, 11, 46, 0
12, 164160, Note_on_c, 11, 56, 70
12, 165030, Note_on_c, 11, 56, 0
12, 165120, Note_on_c, 11, 56, 70
12, 165510, Note_on_c, 11, 56, 0
12, 165600, Note_on_c, 11, 56, 70
12, 165990, Note_on_c, 11, 56, 0
12, 168960, Note_on_c, 11, 44, 70
12, 169350, Note_on_c, 11, 44, 0
12, 169440, Note_on_c, 11, 44, 70
12, 169830, Note_on_c, 11, 44, 0
12, 169920, Note_on_c, 11, 49, 70
12, 170790, Note_on_c, 11, 49, 0
12, 170880, Note_on_c, 11, 61, 70
12, 171270, Note_on_c, 11, 61, 0
12, 171360, Note_on_c, 11, 61, 70
12, 171750, Note_on_c, 11, 61, 0
12, 174720, Note_on_c, 11, 49, 70
12, 174930, Note_on_c, 11, 49, 0
12, 175680, Note_on_c, 11, 46, 70
12, 176370, Note_on_c, 11, 46, 0
12, 176640, Note_on_c, 11, 58, 70
12, 176850, Note_on_c, 11, 58, 0
12, 177120, Note_on_c, 11, 58, 70
12, 177330, Note_on_c, 11, 58, 0
12, 180480, Note_on_c, 11, 58, 70
12, 180690, Note_on_c, 11, 58, 0
12, 180960, Note_on_c, 11, 58, 70
12, 181170, Note_on_c, 11, 58, 0
12, 181440, Note_on_c, 11, 63, 70
12, 184230, Note_on_c, 11, 63, 0
12, 184320, Note_on_c, 11, 65, 70
12, 187110, Note_on_c, 11, 65, 0
12, 187200, Note_on_c, 11, 58, 70
12, 189990, Note_on_c, 11, 58, 0
12, 190080, Note_on_c, 11, 60, 70
12, 192870, Note_on_c, 11, 60, 0
12, 192960, Note_on_c, 11, 53, 70
12, 194310, Note_on_c, 11, 53, 0
12, 194400, Note_on_c, 11, 55, 70
12, 195750, Note_on_c, 11, 55, 0
12, 195840, Note_on_c, 11, 48, 70
12, 197190, Note_on_c, 11, 48, 0
12, 197280, Note_on_c, 11, 50, 70
12, 198630, Note_on_c, 11, 50, 0
12, 198720, Note_on_c, 11, 43, 70
12, 200070, Note_on_c, 11, 43, 0
12, 200160, Note_on_c, 11, 45, 70
12, 201510, Note_on_c, 11, 45, 0
12, 201600, Note_on_c, 11, 38, 70
12, 202950, Note_on_c, 11, 38, 0
12, 203040, Note_on_c, 11, 41, 70
12, 206790, Note_on_c, 11, 41, 0
12, 206880, Note_on_c, 11, 41, 80
12, 207360, Note_on_c, 11, 46, 90
12, 207390, Note_on_c, 11, 41, 0
12, 207570, Note_on_c, 11, 46, 0
12, 207840, Note_on_c, 11, 46, 90
12, 208530, Note_on_c, 11, 46, 0
12, 208800, Note_on_c, 11, 46, 90
12, 209490, Note_on_c, 11, 46, 0
12, 209760, Note_on_c, 11, 46, 90
12, 209910, Note_on_c, 11, 46, 0
12, 210240, Note_on_c, 11, 41, 90
12, 210720, Note_on_c, 11, 45, 90
12, 210750, Note_on_c, 11, 41, 0
12, 210930, Note_on_c, 11, 45, 0
12, 211200, Note_on_c, 11, 48, 90
12, 211350, Note_on_c, 11, 48, 0
12, 211680, Note_on_c, 11, 53, 90
12, 212280, Note_on_c, 11, 53, 0
12, 215520, Note_on_c, 11, 54, 50
12, 216000, Note_on_c, 11, 51, 50
12, 216030, Note_on_c, 11, 54, 0
12, 216480, Note_on_c, 11, 48, 50
12, 216510, Note_on_c, 11, 51, 0
12, 216960, Note_on_c, 11, 45, 50
12, 216990, Note_on_c, 11, 48, 0
12, 217440, Note_on_c, 11, 42, 50
12, 217470, Note_on_c, 11, 45, 0
12, 217920, Note_on_c, 11, 41, 50
12, 217950, Note_on_c, 11, 42, 0
12, 218430, Note_on_c, 11, 41, 0
12, 221280, Note_on_c, 11, 56, 50
12, 221760, Note_on_c, 11, 53, 50
12, 221790, Note_on_c, 11, 56, 0
12, 222240, Note_on_c, 11, 50, 50
12, 222270, Note_on_c, 11, 53, 0
12, 222720, Note_on_c, 11, 47, 50
12, 222750, Note_on_c, 11, 50, 0
12, 223200, Note_on_c, 11, 44, 50
12, 223230, Note_on_c, 11, 47, 0
12, 223680, Note_on_c, 11, 43, 50
12, 223710, Note_on_c, 11, 44, 0
12, 224070, Note_on_c, 11, 43, 0
12, 227034, Control_c, 11, 11, 40
12, 227040, Note_on_c, 11, 46, 127
12, 227520, Note_on_c, 11, 45, 127
12, 227550, Note_on_c, 11, 46, 0
12, 229190, Control_c, 11, 11, 41
12, 229250, Control_c, 11, 11, 43
12, 229310, Control_c, 11, 11, 44
12, 229370, Control_c, 11, 11, 45
12, 229420, Control_c, 11, 11, 47
12, 229480, Control_c, 11, 11, 48
12, 229540, Control_c, 11, 11, 49
12, 229600, Control_c, 11, 11, 51
12, 229650, Control_c, 11, 11, 52
12, 229710, Control_c, 11, 11, 53
12, 229770, Control_c, 11, 11, 55
12, 229830, Control_c, 11, 11, 56
12, 229880, Control_c, 11, 11, 57
12, 229940, Control_c, 11, 11, 59
12, 230000, Control_c, 11, 11, 60
12, 230060, Control_c, 11, 11, 62
12, 230110, Control_c, 11, 11, 63
12, 230170, Control_c, 11, 11, 64
12, 230230, Control_c, 11, 11, 66
12, 230290, Control_c, 11, 11, 67
12, 230340, Control_c, 11, 11, 68
12, 230400, Control_c, 11, 11, 70
12, 230460, Control_c, 11, 11, 71
12, 230520, Control_c, 11, 11, 73
12, 230570, Control_c, 11, 11, 74
12, 230630, Control_c, 11, 11, 75
12, 230690, Control_c, 11, 11, 77
12, 230750, Control_c, 11, 11, 78
12, 230800, Control_c, 11, 11, 79
12, 230860, Control_c, 11, 11, 81
12, 230920, Control_c, 11, 11, 82
12, 230980, Control_c, 11, 11, 83
12, 231030, Control_c, 11, 11, 85
12, 231090, Control_c, 11, 11, 86
12, 231150, Control_c, 11, 11, 87
12, 231210, Control_c, 11, 11, 89
12, 231260, Control_c, 11, 11, 90
12, 231320, Control_c, 11, 11, 92
12, 231380, Control_c, 11, 11, 93
12, 231440, Control_c, 11, 11, 94
12, 231490, Control_c, 11, 11, 96
12, 231550, Control_c, 11, 11, 97
12, 231610, Control_c, 11, 11, 98
12, 231670, Control_c, 11, 11, 100
12, 231720, Control_c, 11, 11, 101
12, 231780, Control_c, 11, 11, 102
12, 231840, Control_c, 11, 11, 104
12, 231900, Control_c, 11, 11, 105
12, 231950, Control_c, 11, 11, 106
12, 232010, Control_c, 11, 11, 108
12, 232070, Control_c, 11, 11, 109
12, 232130, Control_c, 11, 11, 111
12, 232180, Control_c, 11, 11, 112
12, 232240, Control_c, 11, 11, 113
12, 232300, Control_c, 11, 11, 115
12, 232360, Control_c, 11, 11, 116
12, 232410, Control_c, 11, 11, 117
12, 232470, Control_c, 11, 11, 119
12, 232530, Control_c, 11, 11, 120
12, 232590, Control_c, 11, 11, 122
12, 232640, Control_c, 11, 11, 123
12, 232700, Control_c, 11, 11, 124
12, 232710, Note_on_c, 11, 45, 0
12, 232760, Control_c, 11, 11, 126
12, 232790, Control_c, 11, 11, 127
12, 232800, Note_on_c, 11, 46, 127
12, 233274, Control_c, 11, 11, 40
12, 233280, Note_on_c, 11, 45, 127
12, 233310, Note_on_c, 11, 46, 0
12, 233350, Control_c, 11, 11, 41
12, 233410, Control_c, 11, 11, 42
12, 233470, Control_c, 11, 11, 43
12, 233530, Control_c, 11, 11, 44
12, 233590, Control_c, 11, 11, 45
12, 233650, Control_c, 11, 11, 46
12, 233710, Control_c, 11, 11, 47
12, 233770, Control_c, 11, 11, 48
12, 233830, Control_c, 11, 11, 49
12, 233890, Control_c, 11, 11, 50
12, 233950, Control_c, 11, 11, 51
12, 234010, Control_c, 11, 11, 52
12, 234070, Control_c, 11, 11, 53
12, 234130, Control_c, 11, 11, 54
12, 234200, Control_c, 11, 11, 55
12, 234260, Control_c, 11, 11, 56
12, 234320, Control_c, 11, 11, 57
12, 234380, Control_c, 11, 11, 58
12, 234440, Control_c, 11, 11, 59
12, 234500, Control_c, 11, 11, 60
12, 234560, Control_c, 11, 11, 61
12, 234620, Control_c, 11, 11, 62
12, 234680, Control_c, 11, 11, 63
12, 234740, Control_c, 11, 11, 64
12, 234800, Control_c, 11, 11, 65
12, 234860, Control_c, 11, 11, 66
12, 234920, Control_c, 11, 11, 67
12, 234980, Control_c, 11, 11, 68
12, 235040, Control_c, 11, 11, 69
12, 235110, Control_c, 11, 11, 70
12, 235170, Control_c, 11, 11, 71
12, 235230, Control_c, 11, 11, 72
12, 235290, Control_c, 11, 11, 73
12, 235350, Control_c, 11, 11, 74
12, 235410, Control_c, 11, 11, 75
12, 235470, Control_c, 11, 11, 76
12, 235530, Control_c, 11, 11, 77
12, 235590, Control_c, 11, 11, 78
12, 235650, Control_c, 11, 11, 79
12, 235710, Control_c, 11, 11, 80
12, 235770, Control_c, 11, 11, 81
12, 235830, Control_c, 11, 11, 82
12, 235890, Control_c, 11, 11, 83
12, 235960, Control_c, 11, 11, 84
12, 236020, Control_c, 11, 11, 85
12, 236080, Control_c, 11, 11, 86
12, 236140, Control_c, 11, 11, 87
12, 236200, Control_c, 11, 11, 88
12, 236260, Control_c, 11, 11, 89
12, 236320, Control_c, 11, 11, 90
12, 236380, Control_c, 11, 11, 91
12, 236440, Control_c, 11, 11, 92
12, 236500, Control_c, 11, 11, 93
12, 236560, Control_c, 11, 11, 94
12, 236620, Control_c, 11, 11, 95
12, 236680, Control_c, 11, 11, 96
12, 236740, Control_c, 11, 11, 97
12, 236800, Control_c, 11, 11, 98
12, 236870, Control_c, 11, 11, 99
12, 236930, Control_c, 11, 11, 100
12, 236990, Control_c, 11, 11, 101
12, 237050, Control_c, 11, 11, 102
12, 237110, Control_c, 11, 11, 103
12, 237170, Control_c, 11, 11, 104
12, 237230, Control_c, 11, 11, 105
12, 237290, Control_c, 11, 11, 106
12, 237350, Control_c, 11, 11, 107
12, 237410, Control_c, 11, 11, 108
12, 237470, Control_c, 11, 11, 109
12, 237530, Control_c, 11, 11, 110
12, 237590, Control_c, 11, 11, 111
12, 237650, Control_c, 11, 11, 112
12, 237720, Control_c, 11, 11, 113
12, 237780, Control_c, 11, 11, 114
12, 237840, Control_c, 11, 11, 115
12, 237900, Control_c, 11, 11, 116
12, 237960, Control_c, 11, 11, 117
12, 238020, Control_c, 11, 11, 118
12, 238080, Control_c, 11, 11, 119
12, 238140, Control_c, 11, 11, 120
12, 238200, Control_c, 11, 11, 121
12, 238260, Control_c, 11, 11, 122
12, 238320, Control_c, 11, 11, 123
12, 238380, Control_c, 11, 11, 124
12, 238440, Control_c, 11, 11, 125
12, 238470, Note_on_c, 11, 45, 0
12, 238500, Control_c, 11, 11, 126
12, 238530, Control_c, 11, 11, 127
12, 238560, Note_on_c, 11, 46, 127
12, 239040, Note_on_c, 11, 45, 100
12, 239070, Note_on_c, 11, 46, 0
12, 239250, Note_on_c, 11, 45, 0
12, 239520, Note_on_c, 11, 53, 90
12, 240390, Note_on_c, 11, 53, 0
12, 240480, Note_on_c, 11, 55, 90
12, 241350, Note_on_c, 11, 55, 0
12, 241440, Note_on_c, 11, 51, 90
12, 241650, Note_on_c, 11, 51, 0
12, 241920, Note_on_c, 11, 53, 90
12, 243030, Note_on_c, 11, 53, 0
12, 243360, Note_on_c, 11, 53, 90
12, 244470, Note_on_c, 11, 53, 0
12, 244800, Note_on_c, 11, 46, 90
12, 245280, Note_on_c, 11, 41, 90
12, 245310, Note_on_c, 11, 46, 0
12, 245490, Note_on_c, 11, 41, 0
12, 245760, Note_on_c, 11, 50, 90
12, 246240, Note_on_c, 11, 46, 90
12, 246270, Note_on_c, 11, 50, 0
12, 246450, Note_on_c, 11, 46, 0
12, 246720, Note_on_c, 11, 53, 90
12, 247200, Note_on_c, 11, 50, 90
12, 247230, Note_on_c, 11, 53, 0
12, 247410, Note_on_c, 11, 50, 0
12, 247680, Note_on_c, 11, 41, 90
12, 249990, Note_on_c, 11, 41, 0
12, 250080, Note_on_c, 11, 41, 90
12, 250470, Note_on_c, 11, 41, 0
12, 250560, Note_on_c, 11, 46, 90
12, 251040, Note_on_c, 11, 41, 90
12, 251070, Note_on_c, 11, 46, 0
12, 251250, Note_on_c, 11, 41, 0
12, 251520, Note_on_c, 11, 50, 90
12, 252000, Note_on_c, 11, 46, 90
12, 252030, Note_on_c, 11, 50, 0
12, 252210, Note_on_c, 11, 46, 0
12, 252480, Note_on_c, 11, 53, 90
12, 252960, Note_on_c, 11, 50, 90
12, 252990, Note_on_c, 11, 53, 0
12, 253170, Note_on_c, 11, 50, 0
12, 253440, Note_on_c, 11, 41, 90
12, 255750, Note_on_c, 11, 41, 0
12, 255840, Note_on_c, 11, 41, 90
12, 256230, Note_on_c, 11, 41, 0
12, 256320, Note_on_c, 11, 46, 90
12, 257370, Note_on_c, 11, 46, 0
12, 257760, Note_on_c, 11, 46, 90
12, 258810, Note_on_c, 11, 46, 0
12, 259200, Note_on_c, 11, 46, 90
12, 259410, Note_on_c, 11, 46, 0
12, 259680, Note_on_c, 11, 46, 90
12, 259890, Note_on_c, 11, 46, 0
12, 260160, Note_on_c, 11, 46, 90
12, 260340, Note_on_c, 11, 46, 0
12, 260640, Note_on_c, 11, 46, 90
12, 261240, Note_on_c, 11, 46, 0
12, 261600, Control_c, 11, 11, 80
12, 281760, Note_on_c, 11, 46, 40
12, 282150, Note_on_c, 11, 46, 0
12, 282240, Note_on_c, 11, 46, 40
12, 282240, Control_c, 11, 11, 80
12, 282280, Control_c, 11, 11, 81
12, 282310, Control_c, 11, 11, 82
12, 282340, Control_c, 11, 11, 83
12, 282370, Control_c, 11, 11, 84
12, 282400, Control_c, 11, 11, 85
12, 282430, Control_c, 11, 11, 86
12, 282460, Control_c, 11, 11, 87
12, 282490, Control_c, 11, 11, 88
12, 282520, Control_c, 11, 11, 89
12, 282550, Control_c, 11, 11, 90
12, 282580, Control_c, 11, 11, 91
12, 282610, Control_c, 11, 11, 92
12, 282640, Control_c, 11, 11, 93
12, 282670, Control_c, 11, 11, 94
12, 282700, Control_c, 11, 11, 95
12, 282740, Control_c, 11, 11, 96
12, 282770, Control_c, 11, 11, 97
12, 282800, Control_c, 11, 11, 98
12, 282830, Control_c, 11, 11, 99
12, 282860, Control_c, 11, 11, 100
12, 282890, Control_c, 11, 11, 101
12, 282920, Control_c, 11, 11, 102
12, 282950, Control_c, 11, 11, 103
12, 282980, Control_c, 11, 11, 104
12, 283010, Control_c, 11, 11, 105
12, 283040, Control_c, 11, 11, 106
12, 283070, Control_c, 11, 11, 107
12, 283100, Control_c, 11, 11, 108
12, 283130, Control_c, 11, 11, 109
12, 283160, Control_c, 11, 11, 110
12, 283190, Control_c, 11, 11, 111
12, 283230, Control_c, 11, 11, 112
12, 283260, Control_c, 11, 11, 113
12, 283290, Control_c, 11, 11, 114
12, 283320, Control_c, 11, 11, 115
12, 283350, Control_c, 11, 11, 116
12, 283380, Control_c, 11, 11, 117
12, 283410, Control_c, 11, 11, 118
12, 283440, Control_c, 11, 11, 119
12, 283470, Control_c, 11, 11, 120
12, 283500, Control_c, 11, 11, 121
12, 283530, Control_c, 11, 11, 122
12, 283560, Control_c, 11, 11, 123
12, 283590, Control_c, 11, 11, 124
12, 283620, Control_c, 11, 11, 125
12, 283650, Control_c, 11, 11, 126
12, 283680, Control_c, 11, 11, 127
12, 283710, Control_c, 11, 11, 126
12, 283740, Control_c, 11, 11, 125
12, 283770, Control_c, 11, 11, 124
12, 283800, Control_c, 11, 11, 123
12, 283830, Control_c, 11, 11, 122
12, 283860, Control_c, 11, 11, 121
12, 283890, Control_c, 11, 11, 120
12, 283920, Control_c, 11, 11, 119
12, 283950, Control_c, 11, 11, 118
12, 283980, Control_c, 11, 11, 117
12, 284010, Control_c, 11, 11, 116
12, 284040, Control_c, 11, 11, 115
12, 284070, Note_on_c, 11, 46, 0
12, 284070, Control_c, 11, 11, 114
12, 284100, Control_c, 11, 11, 113
12, 284130, Control_c, 11, 11, 112
12, 284160, Note_on_c, 11, 46, 40
12, 284160, Control_c, 11, 11, 111
12, 284190, Control_c, 11, 11, 110
12, 284220, Control_c, 11, 11, 109
12, 284250, Control_c, 11, 11, 108
12, 284280, Control_c, 11, 11, 107
12, 284310, Control_c, 11, 11, 106
12, 284340, Control_c, 11, 11, 105
12, 284370, Control_c, 11, 11, 104
12, 284400, Control_c, 11, 11, 103
12, 284430, Control_c, 11, 11, 102
12, 284460, Control_c, 11, 11, 101
12, 284490, Control_c, 11, 11, 100
12, 284520, Control_c, 11, 11, 99
12, 284550, Note_on_c, 11, 46, 0
12, 284550, Control_c, 11, 11, 98
12, 284580, Control_c, 11, 11, 97
12, 284610, Control_c, 11, 11, 96
12, 284640, Note_on_c, 11, 46, 40
12, 284640, Control_c, 11, 11, 95
12, 284670, Control_c, 11, 11, 94
12, 284700, Control_c, 11, 11, 93
12, 284730, Control_c, 11, 11, 92
12, 284760, Control_c, 11, 11, 91
12, 284790, Control_c, 11, 11, 90
12, 284820, Control_c, 11, 11, 89
12, 284850, Control_c, 11, 11, 88
12, 284880, Control_c, 11, 11, 87
12, 284910, Control_c, 11, 11, 86
12, 284940, Control_c, 11, 11, 85
12, 284970, Control_c, 11, 11, 84
12, 285000, Control_c, 11, 11, 83
12, 285030, Note_on_c, 11, 46, 0
12, 285030, Control_c, 11, 11, 82
12, 285060, Control_c, 11, 11, 81
12, 285090, Control_c, 11, 11, 80
12, 285120, Note_on_c, 11, 46, 40
12, 285600, Note_on_c, 11, 46, 0
12, 310560, Program_c, 11, 45
12, 311040, Note_on_c, 11, 41, 100
12, 311490, Note_on_c, 11, 41, 0
12, 316800, Note_on_c, 11, 41, 100
12, 317250, Note_on_c, 11, 41, 0
12, 324000, Program_c, 11, 48
12, 330000, Note_on_c, 11, 45, 20
12, 330240, Note_on_c, 11, 46, 20
12, 330270, Note_on_c, 11, 45, 0
12, 330480, Note_on_c, 11, 45, 20
12, 330510, Note_on_c, 11, 46, 0
12, 330720, Note_on_c, 11, 46, 20
12, 330750, Note_on_c, 11, 45, 0
12, 330960, Note_on_c, 11, 45, 20
12, 330990, Note_on_c, 11, 46, 0
12, 331200, Note_on_c, 11, 46, 20
12, 331230, Note_on_c, 11, 45, 0
12, 331440, Note_on_c, 11, 45, 20
12, 331470, Note_on_c, 11, 46, 0
12, 331680, Note_on_c, 11, 46, 20
12, 331710, Note_on_c, 11, 45, 0
12, 331920, Note_on_c, 11, 45, 20
12, 331950, Note_on_c, 11, 46, 0
12, 332160, Note_on_c, 11, 46, 20
12, 332190, Note_on_c, 11, 45, 0
12, 332400, Note_on_c, 11, 45, 20
12, 332430, Note_on_c, 11, 46, 0
12, 332640, Note_on_c, 11, 46, 20
12, 332670, Note_on_c, 11, 45, 0
12, 332880, Note_on_c, 11, 45, 20
12, 332910, Note_on_c, 11, 46, 0
12, 333120, Note_on_c, 11, 46, 20
12, 333150, Note_on_c, 11, 45, 0
12, 333360, Note_on_c, 11, 45, 20
12, 333390, Note_on_c, 11, 46, 0
12, 333600, Note_on_c, 11, 46, 20
12, 333630, Note_on_c, 11, 45, 0
12, 333840, Note_on_c, 11, 45, 20
12, 333870, Note_on_c, 11, 46, 0
12, 333990, Note_on_c, 11, 45, 0
12, 334080, Note_on_c, 11, 46, 20
12, 334320, Note_on_c, 11, 45, 20
12, 334350, Note_on_c, 11, 46, 0
12, 334560, Note_on_c, 11, 46, 21
12, 334590, Note_on_c, 11, 45, 0
12, 334800, Note_on_c, 11, 45, 22
12, 334830, Note_on_c, 11, 46, 0
12, 335040, Note_on_c, 11, 46, 23
12, 335070, Note_on_c, 11, 45, 0
12, 335280, Note_on_c, 11, 45, 23
12, 335310, Note_on_c, 11, 46, 0
12, 335520, Note_on_c, 11, 46, 24
12, 335550, Note_on_c, 11, 45, 0
12, 335760, Note_on_c, 11, 45, 25
12, 335790, Note_on_c, 11, 46, 0
12, 336000, Note_on_c, 11, 46, 26
12, 336030, Note_on_c, 11, 45, 0
12, 336240, Note_on_c, 11, 45, 27
12, 336270, Note_on_c, 11, 46, 0
12, 336480, Note_on_c, 11, 46, 27
12, 336510, Note_on_c, 11, 45, 0
12, 336720, Note_on_c, 11, 45, 28
12, 336750, Note_on_c, 11, 46, 0
12, 336960, Note_on_c, 11, 46, 29
12, 336990, Note_on_c, 11, 45, 0
12, 337200, Note_on_c, 11, 45, 30
12, 337230, Note_on_c, 11, 46, 0
12, 337440, Note_on_c, 11, 46, 30
12, 337470, Note_on_c, 11, 45, 0
12, 337680, Note_on_c, 11, 45, 31
12, 337710, Note_on_c, 11, 46, 0
12, 337920, Note_on_c, 11, 46, 32
12, 337950, Note_on_c, 11, 45, 0
12, 338160, Note_on_c, 11, 45, 33
12, 338190, Note_on_c, 11, 46, 0
12, 338400, Note_on_c, 11, 46, 34
12, 338430, Note_on_c, 11, 45, 0
12, 338640, Note_on_c, 11, 45, 34
12, 338670, Note_on_c, 11, 46, 0
12, 338880, Note_on_c, 11, 46, 35
12, 338910, Note_on_c, 11, 45, 0
12, 339120, Note_on_c, 11, 45, 36
12, 339150, Note_on_c, 11, 46, 0
12, 339360, Note_on_c, 11, 46, 37
12, 339390, Note_on_c, 11, 45, 0
12, 339600, Note_on_c, 11, 45, 37
12, 339630, Note_on_c, 11, 46, 0
12, 339750, Note_on_c, 11, 45, 0
12, 339840, Note_on_c, 11, 46, 38
12, 340080, Note_on_c, 11, 45, 39
12, 340110, Note_on_c, 11, 46, 0
12, 340320, Note_on_c, 11, 46, 40
12, 340350, Note_on_c, 11, 45, 0
12, 340560, Note_on_c, 11, 45, 41
12, 340590, Note_on_c, 11, 46, 0
12, 340800, Note_on_c, 11, 46, 41
12, 340830, Note_on_c, 11, 45, 0
12, 341040, Note_on_c, 11, 45, 42
12, 341070, Note_on_c, 11, 46, 0
12, 341280, Note_on_c, 11, 46, 43
12, 341310, Note_on_c, 11, 45, 0
12, 341520, Note_on_c, 11, 45, 44
12, 341550, Note_on_c, 11, 46, 0
12, 341760, Note_on_c, 11, 46, 44
12, 341790, Note_on_c, 11, 45, 0
12, 342000, Note_on_c, 11, 45, 45
12, 342030, Note_on_c, 11, 46, 0
12, 342240, Note_on_c, 11, 46, 46
12, 342270, Note_on_c, 11, 45, 0
12, 342480, Note_on_c, 11, 45, 47
12, 342510, Note_on_c, 11, 46, 0
12, 342720, Note_on_c, 11, 46, 48
12, 342750, Note_on_c, 11, 45, 0
12, 342960, Note_on_c, 11, 45, 48
12, 342990, Note_on_c, 11, 46, 0
12, 343200, Note_on_c, 11, 46, 49
12, 343230, Note_on_c, 11, 45, 0
12, 343440, Note_on_c, 11, 45, 50
12, 343470, Note_on_c, 11, 46, 0
12, 343680, Note_on_c, 11, 46, 51
12, 343710, Note_on_c, 11, 45, 0
12, 343920, Note_on_c, 11, 45, 51
12, 343950, Note_on_c, 11, 46, 0
12, 344160, Note_on_c, 11, 46, 52
12, 344190, Note_on_c, 11, 45, 0
12, 344400, Note_on_c, 11, 45, 53
12, 344430, Note_on_c, 11, 46, 0
12, 344640, Note_on_c, 11, 46, 54
12, 344670, Note_on_c, 11, 45, 0
12, 344880, Note_on_c, 11, 45, 55
12, 344910, Note_on_c, 11, 46, 0
12, 345120, Note_on_c, 11, 46, 55
12, 345150, Note_on_c, 11, 45, 0
12, 345360, Note_on_c, 11, 45, 56
12, 345390, Note_on_c, 11, 46, 0
12, 345510, Note_on_c, 11, 45, 0
12, 345600, Note_on_c, 11, 46, 57
12, 345840, Note_on_c, 11, 45, 58
12, 345870, Note_on_c, 11, 46, 0
12, 346080, Note_on_c, 11, 46, 58
12, 346110, Note_on_c, 11, 45, 0
12, 346320, Note_on_c, 11, 45, 59
12, 346350, Note_on_c, 11, 46, 0
12, 346560, Note_on_c, 11, 46, 60
12, 346590, Note_on_c, 11, 45, 0
12, 346800, Note_on_c, 11, 44, 61
12, 346830, Note_on_c, 11, 46, 0
12, 347040, Note_on_c, 11, 46, 62
12, 347070, Note_on_c, 11, 44, 0
12, 347280, Note_on_c, 11, 43, 62
12, 347310, Note_on_c, 11, 46, 0
12, 347520, Note_on_c, 11, 46, 63
12, 347550, Note_on_c, 11, 43, 0
12, 347760, Note_on_c, 11, 43, 64
12, 347790, Note_on_c, 11, 46, 0
12, 348000, Note_on_c, 11, 46, 65
12, 348030, Note_on_c, 11, 43, 0
12, 348240, Note_on_c, 11, 41, 65
12, 348270, Note_on_c, 11, 46, 0
12, 348390, Note_on_c, 11, 41, 0
12, 348480, Note_on_c, 11, 46, 66
12, 348720, Note_on_c, 11, 39, 67
12, 348750, Note_on_c, 11, 46, 0
12, 348960, Note_on_c, 11, 46, 68
12, 348990, Note_on_c, 11, 39, 0
12, 349200, Note_on_c, 11, 39, 69
12, 349230, Note_on_c, 11, 46, 0
12, 349440, Note_on_c, 11, 46, 69
12, 349470, Note_on_c, 11, 39, 0
12, 349680, Note_on_c, 11, 39, 70
12, 349710, Note_on_c, 11, 46, 0
12, 349920, Note_on_c, 11, 46, 71
12, 349950, Note_on_c, 11, 39, 0
12, 350160, Note_on_c, 11, 39, 72
12, 350190, Note_on_c, 11, 46, 0
12, 350400, Note_on_c, 11, 46, 72
12, 350430, Note_on_c, 11, 39, 0
12, 350640, Note_on_c, 11, 39, 73
12, 350670, Note_on_c, 11, 46, 0
12, 350880, Note_on_c, 11, 46, 74
12, 350910, Note_on_c, 11, 39, 0
12, 351120, Note_on_c, 11, 41, 75
12, 351150, Note_on_c, 11, 46, 0
12, 351270, Note_on_c, 11, 41, 0
12, 351360, Note_on_c, 11, 41, 76
12, 351510, Note_on_c, 11, 41, 0
12, 351600, Note_on_c, 11, 45, 76
12, 351840, Note_on_c, 11, 43, 77
12, 351870, Note_on_c, 11, 45, 0
12, 352080, Note_on_c, 11, 45, 78
12, 352110, Note_on_c, 11, 43, 0
12, 352320, Note_on_c, 11, 48, 79
12, 352350, Note_on_c, 11, 45, 0
12, 352560, Note_on_c, 11, 45, 79
12, 352590, Note_on_c, 11, 48, 0
12, 352710, Note_on_c, 11, 45, 0
12, 352800, Note_on_c, 11, 41, 80
12, 352950, Note_on_c, 11, 41, 0
12, 353040, Note_on_c, 11, 45, 81
12, 353280, Note_on_c, 11, 43, 82
12, 353310, Note_on_c, 11, 45, 0
12, 353520, Note_on_c, 11, 45, 83
12, 353550, Note_on_c, 11, 43, 0
12, 353760, Note_on_c, 11, 48, 83
12, 353790, Note_on_c, 11, 45, 0
12, 354000, Note_on_c, 11, 41, 84
12, 354030, Note_on_c, 11, 48, 0
12, 354150, Note_on_c, 11, 41, 0
12, 354240, Note_on_c, 11, 46, 85
12, 354390, Note_on_c, 11, 46, 0
12, 383040, Note_on_c, 11, 46, 40
12, 383430, Note_on_c, 11, 46, 0
12, 386400, Note_on_c, 11, 43, 65
12, 386880, Note_on_c, 11, 44, 70
12, 386910, Note_on_c, 11, 43, 0
12, 387090, Note_on_c, 11, 44, 0
12, 387360, Note_on_c, 11, 44, 75
12, 387840, Note_on_c, 11, 45, 80
12, 387870, Note_on_c, 11, 44, 0
12, 388050, Note_on_c, 11, 45, 0
12, 388320, Note_on_c, 11, 41, 85
12, 388800, Note_on_c, 11, 46, 90
12, 388830, Note_on_c, 11, 41, 0
12, 389010, Note_on_c, 11, 46, 0
12, 389280, Note_on_c, 11, 46, 90
12, 389970, Note_on_c, 11, 46, 0
12, 390240, Note_on_c, 11, 46, 100
12, 390870, Note_on_c, 11, 46, 0
12, 391200, Note_on_c, 11, 46, 100
12, 391350, Note_on_c, 11, 46, 0
12, 391680, Note_on_c, 11, 41, 100
12, 392160, Note_on_c, 11, 45, 100
12, 392190, Note_on_c, 11, 41, 0
12, 392640, Note_on_c, 11, 48, 100
12, 392670, Note_on_c, 11, 45, 0
12, 392790, Note_on_c, 11, 48, 0
12, 396960, Note_on_c, 11, 54, 50
12, 397440, Note_on_c, 11, 51, 50
12, 397470, Note_on_c, 11, 54, 0
12, 397950, Note_on_c, 11, 51, 0
12, 405600, Note_on_c, 11, 46, 50
12, 406080, Note_on_c, 11, 45, 50
12, 406110, Note_on_c, 11, 46, 0
12, 406290, Note_on_c, 11, 45, 0
12, 406560, Note_on_c, 11, 52, 50
12, 407490, Note_on_c, 11, 52, 0
12, 408480, Note_on_c, 11, 55, 59
12, 409170, Note_on_c, 11, 55, 0
12, 409440, Note_on_c, 11, 57, 71
12, 410130, Note_on_c, 11, 57, 0
12, 410400, Note_on_c, 11, 58, 85
12, 411090, Note_on_c, 11, 58, 0
12, 411360, Note_on_c, 11, 48, 90
12, 411510, Note_on_c, 11, 48, 0
12, 411840, Note_on_c, 11, 41, 95
12, 413010, Note_on_c, 11, 41, 0
12, 413280, Note_on_c, 11, 41, 100
12, 414450, Note_on_c, 11, 41, 0
12, 414720, Note_on_c, 11, 41, 100
12, 414930, Note_on_c, 11, 41, 0
12, 415200, Note_on_c, 11, 41, 100
12, 415410, Note_on_c, 11, 41, 0
12, 415680, Note_on_c, 11, 41, 100
12, 415890, Note_on_c, 11, 41, 0
12, 416160, Note_on_c, 11, 41, 100
12, 416520, Note_on_c, 11, 41, 0
12, 420480, Note_on_c, 11, 56, 70
12, 421350, Note_on_c, 11, 56, 0
12, 421440, Note_on_c, 11, 56, 70
12, 421830, Note_on_c, 11, 56, 0
12, 421920, Note_on_c, 11, 56, 70
12, 422310, Note_on_c, 11, 56, 0
12, 425280, Note_on_c, 11, 44, 70
12, 425670, Note_on_c, 11, 44, 0
12, 425760, Note_on_c, 11, 44, 70
12, 426150, Note_on_c, 11, 44, 0
12, 426240, Note_on_c, 11, 49, 70
12, 427110, Note_on_c, 11, 49, 0
12, 427200, Note_on_c, 11, 61, 70
12, 427590, Note_on_c, 11, 61, 0
12, 427680, Note_on_c, 11, 61, 70
12, 428070, Note_on_c, 11, 61, 0
12, 431040, Note_on_c, 11, 49, 70
12, 431250, Note_on_c, 11, 49, 0
12, 432000, Note_on_c, 11, 46, 70
12, 432690, Note_on_c, 11, 46, 0
12, 432960, Note_on_c, 11, 58, 70
12, 433170, Note_on_c, 11, 58, 0
12, 433440, Note_on_c, 11, 58, 70
12, 433650, Note_on_c, 11, 58, 0
12, 436800, Note_on_c, 11, 58, 70
12, 437010, Note_on_c, 11, 58, 0
12, 437280, Note_on_c, 11, 58, 70
12, 437490, Note_on_c, 11, 58, 0
12, 437760, Note_on_c, 11, 63, 70
12, 440550, Note_on_c, 11, 63, 0
12, 440640, Note_on_c, 11, 65, 70
12, 443430, Note_on_c, 11, 65, 0
12, 443520, Note_on_c, 11, 58, 70
12, 446310, Note_on_c, 11, 58, 0
12, 446400, Note_on_c, 11, 60, 70
12, 449190, Note_on_c, 11, 60, 0
12, 449280, Note_on_c, 11, 53, 70
12, 450630, Note_on_c, 11, 53, 0
12, 450720, Note_on_c, 11, 55, 70
12, 452070, Note_on_c, 11, 55, 0
12, 452160, Note_on_c, 11, 48, 70
12, 453510, Note_on_c, 11, 48, 0
12, 453600, Note_on_c, 11, 50, 70
12, 454950, Note_on_c, 11, 50, 0
12, 455040, Note_on_c, 11, 43, 70
12, 456390, Note_on_c, 11, 43, 0
12, 456480, Note_on_c, 11, 45, 70
12, 457830, Note_on_c, 11, 45, 0
12, 457920, Note_on_c, 11, 38, 70
12, 459270, Note_on_c, 11, 38, 0
12, 459360, Note_on_c, 11, 41, 70
12, 463110, Note_on_c, 11, 41, 0
12, 463200, Note_on_c, 11, 41, 80
12, 463680, Note_on_c, 11, 46, 90
12, 463710, Note_on_c, 11, 41, 0
12, 463890, Note_on_c, 11, 46, 0
12, 464160, Note_on_c, 11, 46, 90
12, 464850, Note_on_c, 11, 46, 0
12, 465120, Note_on_c, 11, 46, 90
12, 465810, Note_on_c, 11, 46, 0
12, 466080, Note_on_c, 11, 46, 90
12, 466230, Note_on_c, 11, 46, 0
12, 466560, Note_on_c, 11, 41, 90
12, 467040, Note_on_c, 11, 45, 90
12, 467070, Note_on_c, 11, 41, 0
12, 467250, Note_on_c, 11, 45, 0
12, 467520, Note_on_c, 11, 48, 90
12, 467670, Note_on_c, 11, 48, 0
12, 468000, Note_on_c, 11, 53, 90
12, 468600, Note_on_c, 11, 53, 0
12, 471840, Note_on_c, 11, 54, 50
12, 472320, Note_on_c, 11, 51, 50
12, 472350, Note_on_c, 11, 54, 0
12, 472800, Note_on_c, 11, 48, 50
12, 472830, Note_on_c, 11, 51, 0
12, 473280, Note_on_c, 11, 45, 50
12, 473310, Note_on_c, 11, 48, 0
12, 473760, Note_on_c, 11, 42, 50
12, 473790, Note_on_c, 11, 45, 0
12, 474240, Note_on_c, 11, 41, 50
12, 474270, Note_on_c, 11, 42, 0
12, 474750, Note_on_c, 11, 41, 0
12, 477600, Note_on_c, 11, 56, 50
12, 478080, Note_on_c, 11, 53, 50
12, 478110, Note_on_c, 11, 56, 0
12, 478560, Note_on_c, 11, 50, 50
12, 478590, Note_on_c, 11, 53, 0
12, 479040, Note_on_c, 11, 47, 50
12, 479070, Note_on_c, 11, 50, 0
12, 479520, Note_on_c, 11, 44, 50
12, 479550, Note_on_c, 11, 47, 0
12, 480000, Note_on_c, 11, 43, 50
12, 480030, Note_on_c, 11, 44, 0
12, 480390, Note_on_c, 11, 43, 0
12, 483354, Control_c, 11, 11, 40
12, 483360, Note_on_c, 11, 46, 127
12, 483840, Note_on_c, 11, 45, 127
12, 483870, Note_on_c, 11, 46, 0
12, 485510, Control_c, 11, 11, 41
12, 485570, Control_c, 11, 11, 43
12, 485630, Control_c, 11, 11, 44
12, 485690, Control_c, 11, 11, 45
12, 485740, Control_c, 11, 11, 47
12, 485800, Control_c, 11, 11, 48
12, 485860, Control_c, 11, 11, 49
12, 485920, Control_c, 11, 11, 51
12, 485970, Control_c, 11, 11, 52
12, 486030, Control_c, 11, 11, 53
12, 486090, Control_c, 11, 11, 55
12, 486150, Control_c, 11, 11, 56
12, 486200, Control_c, 11, 11, 57
12, 486260, Control_c, 11, 11, 59
12, 486320, Control_c, 11, 11, 60
12, 486380, Control_c, 11, 11, 62
12, 486430, Control_c, 11, 11, 63
12, 486490, Control_c, 11, 11, 64
12, 486550, Control_c, 11, 11, 66
12, 486610, Control_c, 11, 11, 67
12, 486660, Control_c, 11, 11, 68
12, 486720, Control_c, 11, 11, 70
12, 486780, Control_c, 11, 11, 71
12, 486840, Control_c, 11, 11, 73
12, 486890, Control_c, 11, 11, 74
12, 486950, Control_c, 11, 11, 75
12, 487010, Control_c, 11, 11, 77
12, 487070, Control_c, 11, 11, 78
12, 487120, Control_c, 11, 11, 79
12, 487180, Control_c, 11, 11, 81
12, 487240, Control_c, 11, 11, 82
12, 487300, Control_c, 11, 11, 83
12, 487350, Control_c, 11, 11, 85
12, 487410, Control_c, 11, 11, 86
12, 487470, Control_c, 11, 11, 87
12, 487530, Control_c, 11, 11, 89
12, 487580, Control_c, 11, 11, 90
12, 487640, Control_c, 11, 11, 92
12, 487700, Control_c, 11, 11, 93
12, 487760, Control_c, 11, 11, 94
12, 487810, Control_c, 11, 11, 96
12, 487870, Control_c, 11, 11, 97
12, 487930, Control_c, 11, 11, 98
12, 487990, Control_c, 11, 11, 100
12, 488040, Control_c, 11, 11, 101
12, 488100, Control_c, 11, 11, 102
12, 488160, Control_c, 11, 11, 104
12, 488220, Control_c, 11, 11, 105
12, 488270, Control_c, 11, 11, 106
12, 488330, Control_c, 11, 11, 108
12, 488390, Control_c, 11, 11, 109
12, 488450, Control_c, 11, 11, 111
12, 488500, Control_c, 11, 11, 112
12, 488560, Control_c, 11, 11, 113
12, 488620, Control_c, 11, 11, 115
12, 488680, Control_c, 11, 11, 116
12, 488730, Control_c, 11, 11, 117
12, 488790, Control_c, 11, 11, 119
12, 488850, Control_c, 11, 11, 120
12, 488910, Control_c, 11, 11, 122
12, 488960, Control_c, 11, 11, 123
12, 489020, Control_c, 11, 11, 124
12, 489030, Note_on_c, 11, 45, 0
12, 489080, Control_c, 11, 11, 126
12, 489110, Control_c, 11, 11, 127
12, 489120, Note_on_c, 11, 46, 127
12, 489594, Control_c, 11, 11, 40
12, 489600, Note_on_c, 11, 45, 127
12, 489630, Note_on_c, 11, 46, 0
12, 489670, Control_c, 11, 11, 41
12, 489730, Control_c, 11, 11, 42
12, 489790, Control_c, 11, 11, 43
12, 489850, Control_c, 11, 11, 44
12, 489910, Control_c, 11, 11, 45
12, 489970, Control_c, 11, 11, 46
12, 490030, Control_c, 11, 11, 47
12, 490090, Control_c, 11, 11, 48
12, 490150, Control_c, 11, 11, 49
12, 490210, Control_c, 11, 11, 50
12, 490270, Control_c, 11, 11, 51
12, 490330, Control_c, 11, 11, 52
12, 490390, Control_c, 11, 11, 53
12, 490450, Control_c, 11, 11, 54
12, 490520, Control_c, 11, 11, 55
12, 490580, Control_c, 11, 11, 56
12, 490640, Control_c, 11, 11, 57
12, 490700, Control_c, 11, 11, 58
12, 490760, Control_c, 11, 11, 59
12, 490820, Control_c, 11, 11, 60
12, 490880, Control_c, 11, 11, 61
12, 490940, Control_c, 11, 11, 62
12, 491000, Control_c, 11, 11, 63
12, 491060, Control_c, 11, 11, 64
12, 491120, Control_c, 11, 11, 65
12, 491180, Control_c, 11, 11, 66
12, 491240, Control_c, 11, 11, 67
12, 491300, Control_c, 11, 11, 68
12, 491360, Control_c, 11, 11, 69
12, 491430, Control_c, 11, 11, 70
12, 491490, Control_c, 11, 11, 71
12, 491550, Control_c, 11, 11, 72
12, 491610, Control_c, 11, 11, 73
12, 491670, Control_c, 11, 11, 74
12, 491730, Control_c, 11, 11, 75
12, 491790, Control_c, 11, 11, 76
12, 491850, Control_c, 11, 11, 77
12, 491910, Control_c, 11, 11, 78
12, 491970, Control_c, 11, 11, 79
12, 492030, Control_c, 11, 11, 80
12, 492090, Control_c, 11, 11, 81
12, 492150, Control_c, 11, 11, 82
12, 492210, Control_c, 11, 11, 83
12, 492280, Control_c, 11, 11, 84
12, 492340, Control_c, 11, 11, 85
12, 492400, Control_c, 11, 11, 86
12, 492460, Control_c, 11, 11, 87
12, 492520, Control_c, 11, 11, 88
12, 492580, Control_c, 11, 11, 89
12, 492640, Control_c, 11, 11, 90
12, 492700, Control_c, 11, 11, 91
12, 492760, Control_c, 11, 11, 92
12, 492820, Control_c, 11, 11, 93
12, 492880, Control_c, 11, 11, 94
12, 492940, Control_c, 11, 11, 95
12, 493000, Control_c, 11, 11, 96
12, 493060, Control_c, 11, 11, 97
12, 493120, Control_c, 11, 11, 98
12, 493190, Control_c, 11, 11, 99
12, 493250, Control_c, 11, 11, 100
12, 493310, Control_c, 11, 11, 101
12, 493370, Control_c, 11, 11, 102
12, 493430, Control_c, 11, 11, 103
12, 493490, Control_c, 11, 11, 104
12, 493550, Control_c, 11, 11, 105
12, 493610, Control_c, 11, 11, 106
12, 493670, Control_c, 11, 11, 107
12, 493730, Control_c, 11, 11, 108
12, 493790, Control_c, 11, 11, 109
12, 493850, Control_c, 11, 11, 110
12, 493910, Control_c, 11, 11, 111
12, 493970, Control_c, 11, 11, 112
12, 494040, Control_c, 11, 11, 113
12, 494100, Control_c, 11, 11, 114
12, 494160, Control_c, 11, 11, 115
12, 494220, Control_c, 11, 11, 116
12, 494280, Control_c, 11, 11, 117
12, 494340, Control_c, 11, 11, 118
12, 494400, Control_c, 11, 11, 119
12, 494460, Control_c, 11, 11, 120
12, 494520, Control_c, 11, 11, 121
12, 494580, Control_c, 11, 11, 122
12, 494640, Control_c, 11, 11, 123
12, 494700, Control_c, 11, 11, 124
12, 494760, Control_c, 11, 11, 125
12, 494790, Note_on_c, 11, 45, 0
12, 494820, Control_c, 11, 11, 126
12, 494850, Control_c, 11, 11, 127
12, 494880, Note_on_c, 11, 46, 127
12, 495360, Note_on_c, 11, 45, 100
12, 495390, Note_on_c, 11, 46, 0
12, 495570, Note_on_c, 11, 45, 0
12, 495840, Note_on_c, 11, 53, 90
12, 496710, Note_on_c, 11, 53, 0
12, 496800, Note_on_c, 11, 55, 90
12, 497670, Note_on_c, 11, 55, 0
12, 497760, Note_on_c, 11, 51, 90
12, 497970, Note_on_c, 11, 51, 0
12, 498240, Note_on_c, 11, 53, 90
12, 499350, Note_on_c, 11, 53, 0
12, 499680, Note_on_c, 11, 53, 90
12, 500790, Note_on_c, 11, 53, 0
12, 501120, Note_on_c, 11, 46, 90
12, 501600, Note_on_c, 11, 41, 90
12, 501630, Note_on_c, 11, 46, 0
12, 501810, Note_on_c, 11, 41, 0
12, 502080, Note_on_c, 11, 50, 90
12, 502560, Note_on_c, 11, 46, 90
12, 502590, Note_on_c, 11, 50, 0
12, 502770, Note_on_c, 11, 46, 0
12, 503040, Note_on_c, 11, 53, 90
12, 503520, Note_on_c, 11, 50, 90
12, 503550, Note_on_c, 11, 53, 0
12, 503730, Note_on_c, 11, 50, 0
12, 504000, Note_on_c, 11, 41, 90
12, 506310, Note_on_c, 11, 41, 0
12, 506400, Note_on_c, 11, 41, 90
12, 506790, Note_on_c, 11, 41, 0
12, 506880, Note_on_c, 11, 46, 90
12, 507360, Note_on_c, 11, 41, 90
12, 507390, Note_on_c, 11, 46, 0
12, 507570, Note_on_c, 11, 41, 0
12, 507840, Note_on_c, 11, 50, 90
12, 508320, Note_on_c, 11, 46, 90
12, 508350, Note_on_c, 11, 50, 0
12, 508530, Note_on_c, 11, 46, 0
12, 508800, Note_on_c, 11, 53, 90
12, 509280, Note_on_c, 11, 50, 90
12, 509310, Note_on_c, 11, 53, 0
12, 509490, Note_on_c, 11, 50, 0
12, 509760, Note_on_c, 11, 41, 90
12, 512070, Note_on_c, 11, 41, 0
12, 512160, Note_on_c, 11, 41, 90
12, 512550, Note_on_c, 11, 41, 0
12, 512640, Note_on_c, 11, 46, 90
12, 513690, Note_on_c, 11, 46, 0
12, 514080, Note_on_c, 11, 46, 90
12, 515130, Note_on_c, 11, 46, 0
12, 515520, Note_on_c, 11, 46, 90
12, 515730, Note_on_c, 11, 46, 0
12, 516000, Note_on_c, 11, 46, 90
12, 516210, Note_on_c, 11, 46, 0
12, 516480, Note_on_c, 11, 46, 90
12, 516660, Note_on_c, 11, 46, 0
12, 516960, Note_on_c, 11, 46, 90
12, 517560, Note_on_c, 11, 46, 0
12, 517920, Control_c, 11, 11, 80
12, 538080, Note_on_c, 11, 46, 40
12, 538470, Note_on_c, 11, 46, 0
12, 538560, Note_on_c, 11, 46, 40
12, 538560, Control_c, 11, 11, 80
12, 538600, Control_c, 11, 11, 81
12, 538630, Control_c, 11, 11, 82
12, 538660, Control_c, 11, 11, 83
12, 538690, Control_c, 11, 11, 84
12, 538720, Control_c, 11, 11, 85
12, 538750, Control_c, 11, 11, 86
12, 538780, Control_c, 11, 11, 87
12, 538810, Control_c, 11, 11, 88
12, 538840, Control_c, 11, 11, 89
12, 538870, Control_c, 11, 11, 90
12, 538900, Control_c, 11, 11, 91
12, 538930, Control_c, 11, 11, 92
12, 538960, Control_c, 11, 11, 93
12, 538990, Control_c, 11, 11, 94
12, 539020, Control_c, 11, 11, 95
12, 539060, Control_c, 11, 11, 96
12, 539090, Control_c, 11, 11, 97
12, 539120, Control_c, 11, 11, 98
12, 539150, Control_c, 11, 11, 99
12, 539180, Control_c, 11, 11, 100
12, 539210, Control_c, 11, 11, 101
12, 539240, Control_c, 11, 11, 102
12, 539270, Control_c, 11, 11, 103
12, 539300, Control_c, 11, 11, 104
12, 539330, Control_c, 11, 11, 105
12, 539360, Control_c, 11, 11, 106
12, 539390, Control_c, 11, 11, 107
12, 539420, Control_c, 11, 11, 108
12, 539450, Control_c, 11, 11, 109
12, 539480, Control_c, 11, 11, 110
12, 539510, Control_c, 11, 11, 111
12, 539550, Control_c, 11, 11, 112
12, 539580, Control_c, 11, 11, 113
12, 539610, Control_c, 11, 11, 114
12, 539640, Control_c, 11, 11, 115
12, 539670, Control_c, 11, 11, 116
12, 539700, Control_c, 11, 11, 117
12, 539730, Control_c, 11, 11, 118
12, 539760, Control_c, 11, 11, 119
12, 539790, Control_c, 11, 11, 120
12, 539820, Control_c, 11, 11, 121
12, 539850, Control_c, 11, 11, 122
12, 539880, Control_c, 11, 11, 123
12, 539910, Control_c, 11, 11, 124
12, 539940, Control_c, 11, 11, 125
12, 539970, Control_c, 11, 11, 126
12, 540000, Control_c, 11, 11, 127
12, 540030, Control_c, 11, 11, 126
12, 540060, Control_c, 11, 11, 125
12, 540090, Control_c, 11, 11, 124
12, 540120, Control_c, 11, 11, 123
12, 540150, Control_c, 11, 11, 122
12, 540180, Control_c, 11, 11, 121
12, 540210, Control_c, 11, 11, 120
12, 540240, Control_c, 11, 11, 119
12, 540270, Control_c, 11, 11, 118
12, 540300, Control_c, 11, 11, 117
12, 540330, Control_c, 11, 11, 116
12, 540360, Control_c, 11, 11, 115
12, 540390, Note_on_c, 11, 46, 0
12, 540390, Control_c, 11, 11, 114
12, 540420, Control_c, 11, 11, 113
12, 540450, Control_c, 11, 11, 112
12, 540480, Note_on_c, 11, 46, 40
12, 540480, Control_c, 11, 11, 111
12, 540510, Control_c, 11, 11, 110
12, 540540, Control_c, 11, 11, 109
12, 540570, Control_c, 11, 11, 108
12, 540600, Control_c, 11, 11, 107
12, 540630, Control_c, 11, 11, 106
12, 540660, Control_c, 11, 11, 105
12, 540690, Control_c, 11, 11, 104
12, 540720, Control_c, 11, 11, 103
12, 540750, Control_c, 11, 11, 102
12, 540780, Control_c, 11, 11, 101
12, 540810, Control_c, 11, 11, 100
12, 540840, Control_c, 11, 11, 99
12, 540870, Note_on_c, 11, 46, 0
12, 540870, Control_c, 11, 11, 98
12, 540900, Control_c, 11, 11, 97
12, 540930, Control_c, 11, 11, 96
12, 540960, Note_on_c, 11, 46, 40
12, 540960, Control_c, 11, 11, 95
12, 540990, Control_c, 11, 11, 94
12, 541020, Control_c, 11, 11, 93
12, 541050, Control_c, 11, 11, 92
12, 541080, Control_c, 11, 11, 91
12, 541110, Control_c, 11, 11, 90
12, 541140, Control_c, 11, 11, 89
12, 541170, Control_c, 11, 11, 88
12, 541200, Control_c, 11, 11, 87
12, 541230, Control_c, 11, 11, 86
12, 541260, Control_c, 11, 11, 85
12, 541290, Control_c, 11, 11, 84
12, 541320, Control_c, 11, 11, 83
12, 541350, Note_on_c, 11, 46, 0
12, 541350, Control_c, 11, 11, 82
12, 541380, Control_c, 11, 11, 81
12, 541410, Control_c, 11, 11, 80
12, 541440, Note_on_c, 11, 46, 40
12, 541920, Note_on_c, 11, 46, 0
12, 566880, Program_c, 11, 45
12, 567360, Note_on_c, 11, 41, 100
12, 567810, Note_on_c, 11, 41, 0
12, 573120, Note_on_c, 11, 41, 100
12, 573570, Note_on_c, 11, 41, 0
12, 580320, Program_c, 11, 48
12, 586320, Note_on_c, 11, 45, 20
12, 586560, Note_on_c, 11, 46, 20
12, 586590, Note_on_c, 11, 45, 0
12, 586800, Note_on_c, 11, 45, 20
12, 586830, Note_on_c, 11, 46, 0
12, 587040, Note_on_c, 11, 46, 20
12, 587070, Note_on_c, 11, 45, 0
12, 587280, Note_on_c, 11, 45, 20
12, 587310, Note_on_c, 11, 46, 0
12, 587520, Note_on_c, 11, 46, 20
12, 587550, Note_on_c, 11, 45, 0
12, 587760, Note_on_c, 11, 45, 20
12, 587790, Note_on_c, 11, 46, 0
12, 588000, Note_on_c, 11, 46, 20
12, 588030, Note_on_c, 11, 45, 0
12, 588240, Note_on_c, 11, 45, 20
12, 588270, Note_on_c, 11, 46, 0
12, 588480, Note_on_c, 11, 46, 20
12, 588510, Note_on_c, 11, 45, 0
12, 588720, Note_on_c, 11, 45, 20
12, 588750, Note_on_c, 11, 46, 0
12, 588960, Note_on_c, 11, 46, 20
12, 588990, Note_on_c, 11, 45, 0
12, 589200, Note_on_c, 11, 45, 20
12, 589230, Note_on_c, 11, 46, 0
12, 589440, Note_on_c, 11, 46, 20
12, 589470, Note_on_c, 11, 45, 0
12, 589680, Note_on_c, 11, 45, 20
12, 589710, Note_on_c, 11, 46, 0
12, 589920, Note_on_c, 11, 46, 20
12, 589950, Note_on_c, 11, 45, 0
12, 590160, Note_on_c, 11, 45, 20
12, 590190, Note_on_c, 11, 46, 0
12, 590310, Note_on_c, 11, 45, 0
12, 590400, Note_on_c, 11, 46, 20
12, 590640, Note_on_c, 11, 45, 20
12, 590670, Note_on_c, 11, 46, 0
12, 590880, Note_on_c, 11, 46, 21
12, 590910, Note_on_c, 11, 45, 0
12, 591120, Note_on_c, 11, 45, 22
12, 591150, Note_on_c, 11, 46, 0
12, 591360, Note_on_c, 11, 46, 23
12, 591390, Note_on_c, 11, 45, 0
12, 591600, Note_on_c, 11, 45, 23
12, 591630, Note_on_c, 11, 46, 0
12, 591840, Note_on_c, 11, 46, 24
12, 591870, Note_on_c, 11, 45, 0
12, 592080, Note_on_c, 11, 45, 25
12, 592110, Note_on_c, 11, 46, 0
12, 592320, Note_on_c, 11, 46, 26
12, 592350, Note_on_c, 11, 45, 0
12, 592560, Note_on_c, 11, 45, 27
12, 592590, Note_on_c, 11, 46, 0
12, 592800, Note_on_c, 11, 46, 27
12, 592830, Note_on_c, 11, 45, 0
12, 593040, Note_on_c, 11, 45, 28
12, 593070, Note_on_c, 11, 46, 0
12, 593280, Note_on_c, 11, 46, 29
12, 593310, Note_on_c, 11, 45, 0
12, 593520, Note_on_c, 11, 45, 30
12, 593550, Note_on_c, 11, 46, 0
12, 593760, Note_on_c, 11, 46, 30
12, 593790, Note_on_c, 11, 45, 0
12, 594000, Note_on_c, 11, 45, 31
12, 594030, Note_on_c, 11, 46, 0
12, 594240, Note_on_c, 11, 46, 32
12, 594270, Note_on_c, 11, 45, 0
12, 594480, Note_on_c, 11, 45, 33
12, 594510, Note_on_c, 11, 46, 0
12, 594720, Note_on_c, 11, 46, 34
12, 594750, Note_on_c, 11, 45, 0
12, 594960, Note_on_c, 11, 45, 34
12, 594990, Note_on_c, 11, 46, 0
12, 595200, Note_on_c, 11, 46, 35
12, 595230, Note_on_c, 11, 45, 0
12, 595440, Note_on_c, 11, 45, 36
12, 595470, Note_on_c, 11, 46, 0
12, 595680, Note_on_c, 11, 46, 37
12, 595710, Note_on_c, 11, 45, 0
12, 595920, Note_on_c, 11, 45, 37
12, 595950, Note_on_c, 11, 46, 0
12, 596070, Note_on_c, 11, 45, 0
12, 596160, Note_on_c, 11, 46, 38
12, 596400, Note_on_c, 11, 45, 39
12, 596430, Note_on_c, 11, 46, 0
12, 596640, Note_on_c, 11, 46, 40
12, 596670, Note_on_c, 11, 45, 0
12, 596880, Note_on_c, 11, 45, 41
12, 596910, Note_on_c, 11, 46, 0
12, 597120, Note_on_c, 11, 46, 41
12, 597150, Note_on_c, 11, 45, 0
12, 597360, Note_on_c, 11, 45, 42
12, 597390, Note_on_c, 11, 46, 0
12, 597600, Note_on_c, 11, 46, 43
12, 597630, Note_on_c, 11, 45, 0
12, 597840, Note_on_c, 11, 45, 44
12, 597870, Note_on_c, 11, 46, 0
12, 598080, Note_on_c, 11, 46, 44
12, 598110, Note_on_c, 11, 45, 0
12, 598320, Note_on_c, 11, 45, 45
12, 598350, Note_on_c, 11, 46, 0
12, 598560, Note_on_c, 11, 46, 46
12, 598590, Note_on_c, 11, 45, 0
12, 598800, Note_on_c, 11, 45, 47
12, 598830, Note_on_c, 11, 46, 0
12, 599040, Note_on_c, 11, 46, 48
12, 599070, Note_on_c, 11, 45, 0
12, 599280, Note_on_c, 11, 45, 48
12, 599310, Note_on_c, 11, 46, 0
12, 599520, Note_on_c, 11, 46, 49
12, 599550, Note_on_c, 11, 45, 0
12, 599760, Note_on_c, 11, 45, 50
12, 599790, Note_on_c, 11, 46, 0
12, 600000, Note_on_c, 11, 46, 51
12, 600030, Note_on_c, 11, 45, 0
12, 600240, Note_on_c, 11, 45, 51
12, 600270, Note_on_c, 11, 46, 0
12, 600480, Note_on_c, 11, 46, 52
12, 600510, Note_on_c, 11, 45, 0
12, 600720, Note_on_c, 11, 45, 53
12, 600750, Note_on_c, 11, 46, 0
12, 600960, Note_on_c, 11, 46, 54
12, 600990, Note_on_c, 11, 45, 0
12, 601200, Note_on_c, 11, 45, 55
12, 601230, Note_on_c, 11, 46, 0
12, 601440, Note_on_c, 11, 46, 55
12, 601470, Note_on_c, 11, 45, 0
12, 601680, Note_on_c, 11, 45, 56
12, 601710, Note_on_c, 11, 46, 0
12, 601830, Note_on_c, 11, 45, 0
12, 601920, Note_on_c, 11, 46, 57
12, 602160, Note_on_c, 11, 45, 58
12, 602190, Note_on_c, 11, 46, 0
12, 602400, Note_on_c, 11, 46, 58
12, 602430, Note_on_c, 11, 45, 0
12, 602640, Note_on_c, 11, 45, 59
12, 602670, Note_on_c, 11, 46, 0
12, 602880, Note_on_c, 11, 46, 60
12, 602910, Note_on_c, 11, 45, 0
12, 603120, Note_on_c, 11, 44, 61
12, 603150, Note_on_c, 11, 46, 0
12, 603360, Note_on_c, 11, 46, 62
12, 603390, Note_on_c, 11, 44, 0
12, 603600, Note_on_c, 11, 43, 62
12, 603630, Note_on_c, 11, 46, 0
12, 603840, Note_on_c, 11, 46, 63
12, 603870, Note_on_c, 11, 43, 0
12, 604080, Note_on_c, 11, 43, 64
12, 604110, Note_on_c, 11, 46, 0
12, 604320, Note_on_c, 11, 46, 65
12, 604350, Note_on_c, 11, 43, 0
12, 604560, Note_on_c, 11, 41, 65
12, 604590, Note_on_c, 11, 46, 0
12, 604710, Note_on_c, 11, 41, 0
12, 604800, Note_on_c, 11, 46, 66
12, 605040, Note_on_c, 11, 39, 67
12, 605070, Note_on_c, 11, 46, 0
12, 605280, Note_on_c, 11, 46, 68
12, 605310, Note_on_c, 11, 39, 0
12, 605520, Note_on_c, 11, 39, 69
12, 605550, Note_on_c, 11, 46, 0
12, 605760, Note_on_c, 11, 46, 69
12, 605790, Note_on_c, 11, 39, 0
12, 606000, Note_on_c, 11, 39, 70
12, 606030, Note_on_c, 11, 46, 0
12, 606240, Note_on_c, 11, 46, 71
12, 606270, Note_on_c, 11, 39, 0
12, 606480, Note_on_c, 11, 39, 72
12, 606510, Note_on_c, 11, 46, 0
12, 606720, Note_on_c, 11, 46, 72
12, 606750, Note_on_c, 11, 39, 0
12, 606960, Note_on_c, 11, 39, 73
12, 606990, Note_on_c, 11, 46, 0
12, 607200, Note_on_c, 11, 46, 74
12, 607230, Note_on_c, 11, 39, 0
12, 607440, Note_on_c, 11, 41, 75
12, 607470, Note_on_c, 11, 46, 0
12, 607590, Note_on_c, 11, 41, 0
12, 607680, Note_on_c, 11, 41, 76
12, 607830, Note_on_c, 11, 41, 0
12, 607920, Note_on_c, 11, 45, 76
12, 608160, Note_on_c, 11, 43, 77
12, 608190, Note_on_c, 11, 45, 0
12, 608400, Note_on_c, 11, 45, 78
12, 608430, Note_on_c, 11, 43, 0
12, 608640, Note_on_c, 11, 48, 79
12, 608670, Note_on_c, 11, 45, 0
12, 608880, Note_on_c, 11, 45, 79
12, 608910, Note_on_c, 11, 48, 0
12, 609030, Note_on_c, 11, 45, 0
12, 609120, Note_on_c, 11, 41, 80
12, 609270, Note_on_c, 11, 41, 0
12, 609360, Note_on_c, 11, 45, 81
12, 609600, Note_on_c, 11, 43, 82
12, 609630, Note_on_c, 11, 45, 0
12, 609840, Note_on_c, 11, 45, 83
12, 609870, Note_on_c, 11, 43, 0
12, 610080, Note_on_c, 11, 48, 83
12, 610110, Note_on_c, 11, 45, 0
12, 610320, Note_on_c, 11, 41, 84
12, 610350, Note_on_c, 11, 48, 0
12, 610470, Note_on_c, 11, 41, 0
12, 610560, Note_on_c, 11, 46, 85
12, 610710, Note_on_c, 11, 46, 0
12, 639360, Note_on_c, 11, 46, 40
12, 639810, Note_on_c, 11, 46, 0
12, 642720, Note_on_c, 11, 43, 54
12, 643200, Note_on_c, 11, 44, 61
12, 643230, Note_on_c, 11, 43, 0
12, 643410, Note_on_c, 11, 44, 0
12, 643680, Note_on_c, 11, 44, 68
12, 644160, Note_on_c, 11, 45, 75
12, 644190, Note_on_c, 11, 44, 0
12, 644370, Note_on_c, 11, 45, 0
12, 644640, Note_on_c, 11, 41, 82
12, 645120, Note_on_c, 11, 46, 90
12, 645150, Note_on_c, 11, 41, 0
12, 645510, Note_on_c, 11, 46, 0
12, 645600, Note_on_c, 11, 46, 90
12, 646290, Note_on_c, 11, 46, 0
12, 646560, Note_on_c, 11, 46, 90
12, 647250, Note_on_c, 11, 46, 0
12, 647520, Note_on_c, 11, 46, 90
12, 647670, Note_on_c, 11, 46, 0
12, 648000, Note_on_c, 11, 41, 90
12, 648480, Note_on_c, 11, 45, 90
12, 648510, Note_on_c, 11, 41, 0
12, 648690, Note_on_c, 11, 45, 0
12, 648960, Note_on_c, 11, 48, 90
12, 649110, Note_on_c, 11, 48, 0
12, 649440, Note_on_c, 11, 53, 90
12, 650040, Note_on_c, 11, 53, 0
12, 653280, Note_on_c, 11, 54, 50
12, 653760, Note_on_c, 11, 51, 50
12, 653790, Note_on_c, 11, 54, 0
12, 654240, Note_on_c, 11, 48, 50
12, 654270, Note_on_c, 11, 51, 0
12, 654720, Note_on_c, 11, 45, 50
12, 654750, Note_on_c, 11, 48, 0
12, 655200, Note_on_c, 11, 42, 50
12, 655230, Note_on_c, 11, 45, 0
12, 655680, Note_on_c, 11, 41, 50
12, 655710, Note_on_c, 11, 42, 0
12, 656190, Note_on_c, 11, 41, 0
12, 659040, Note_on_c, 11, 56, 50
12, 659520, Note_on_c, 11, 53, 50
12, 659550, Note_on_c, 11, 56, 0
12, 660000, Note_on_c, 11, 50, 50
12, 660030, Note_on_c, 11, 53, 0
12, 660480, Note_on_c, 11, 47, 50
12, 660510, Note_on_c, 11, 50, 0
12, 660960, Note_on_c, 11, 44, 50
12, 660990, Note_on_c, 11, 47, 0
12, 661440, Note_on_c, 11, 43, 50
12, 661470, Note_on_c, 11, 44, 0
12, 661830, Note_on_c, 11, 43, 0
12, 664794, Control_c, 11, 11, 40
12, 664800, Note_on_c, 11, 46, 127
12, 665280, Note_on_c, 11, 45, 127
12, 665310, Note_on_c, 11, 46, 0
12, 666950, Control_c, 11, 11, 41
12, 667010, Control_c, 11, 11, 43
12, 667070, Control_c, 11, 11, 44
12, 667130, Control_c, 11, 11, 45
12, 667180, Control_c, 11, 11, 47
12, 667240, Control_c, 11, 11, 48
12, 667300, Control_c, 11, 11, 49
12, 667360, Control_c, 11, 11, 51
12, 667410, Control_c, 11, 11, 52
12, 667470, Control_c, 11, 11, 53
12, 667530, Control_c, 11, 11, 55
12, 667590, Control_c, 11, 11, 56
12, 667640, Control_c, 11, 11, 57
12, 667700, Control_c, 11, 11, 59
12, 667760, Control_c, 11, 11, 60
12, 667820, Control_c, 11, 11, 62
12, 667870, Control_c, 11, 11, 63
12, 667930, Control_c, 11, 11, 64
12, 667990, Control_c, 11, 11, 66
12, 668050, Control_c, 11, 11, 67
12, 668100, Control_c, 11, 11, 68
12, 668160, Control_c, 11, 11, 70
12, 668220, Control_c, 11, 11, 71
12, 668280, Control_c, 11, 11, 73
12, 668330, Control_c, 11, 11, 74
12, 668390, Control_c, 11, 11, 75
12, 668450, Control_c, 11, 11, 77
12, 668510, Control_c, 11, 11, 78
12, 668560, Control_c, 11, 11, 79
12, 668620, Control_c, 11, 11, 81
12, 668680, Control_c, 11, 11, 82
12, 668740, Control_c, 11, 11, 83
12, 668790, Control_c, 11, 11, 85
12, 668850, Control_c, 11, 11, 86
12, 668910, Control_c, 11, 11, 87
12, 668970, Control_c, 11, 11, 89
12, 669020, Control_c, 11, 11, 90
12, 669080, Control_c, 11, 11, 92
12, 669140, Control_c, 11, 11, 93
12, 669200, Control_c, 11, 11, 94
12, 669250, Control_c, 11, 11, 96
12, 669310, Control_c, 11, 11, 97
12, 669370, Control_c, 11, 11, 98
12, 669430, Control_c, 11, 11, 100
12, 669480, Control_c, 11, 11, 101
12, 669540, Control_c, 11, 11, 102
12, 669600, Control_c, 11, 11, 104
12, 669660, Control_c, 11, 11, 105
12, 669710, Control_c, 11, 11, 106
12, 669770, Control_c, 11, 11, 108
12, 669830, Control_c, 11, 11, 109
12, 669890, Control_c, 11, 11, 111
12, 669940, Control_c, 11, 11, 112
12, 670000, Control_c, 11, 11, 113
12, 670060, Control_c, 11, 11, 115
12, 670120, Control_c, 11, 11, 116
12, 670170, Control_c, 11, 11, 117
12, 670230, Control_c, 11, 11, 119
12, 670290, Control_c, 11, 11, 120
12, 670350, Control_c, 11, 11, 122
12, 670400, Control_c, 11, 11, 123
12, 670460, Control_c, 11, 11, 124
12, 670470, Note_on_c, 11, 45, 0
12, 670520, Control_c, 11, 11, 126
12, 670550, Control_c, 11, 11, 127
12, 670560, Note_on_c, 11, 46, 127
12, 671034, Control_c, 11, 11, 40
12, 671040, Note_on_c, 11, 45, 127
12, 671070, Note_on_c, 11, 46, 0
12, 671110, Control_c, 11, 11, 41
12, 671170, Control_c, 11, 11, 42
12, 671230, Control_c, 11, 11, 43
12, 671290, Control_c, 11, 11, 44
12, 671350, Control_c, 11, 11, 45
12, 671410, Control_c, 11, 11, 46
12, 671470, Control_c, 11, 11, 47
12, 671530, Control_c, 11, 11, 48
12, 671590, Control_c, 11, 11, 49
12, 671650, Control_c, 11, 11, 50
12, 671710, Control_c, 11, 11, 51
12, 671770, Control_c, 11, 11, 52
12, 671830, Control_c, 11, 11, 53
12, 671890, Control_c, 11, 11, 54
12, 671960, Control_c, 11, 11, 55
12, 672020, Control_c, 11, 11, 56
12, 672080, Control_c, 11, 11, 57
12, 672140, Control_c, 11, 11, 58
12, 672200, Control_c, 11, 11, 59
12, 672260, Control_c, 11, 11, 60
12, 672320, Control_c, 11, 11, 61
12, 672380, Control_c, 11, 11, 62
12, 672440, Control_c, 11, 11, 63
12, 672500, Control_c, 11, 11, 64
12, 672560, Control_c, 11, 11, 65
12, 672620, Control_c, 11, 11, 66
12, 672680, Control_c, 11, 11, 67
12, 672740, Control_c, 11, 11, 68
12, 672800, Control_c, 11, 11, 69
12, 672870, Control_c, 11, 11, 70
12, 672930, Control_c, 11, 11, 71
12, 672990, Control_c, 11, 11, 72
12, 673050, Control_c, 11, 11, 73
12, 673110, Control_c, 11, 11, 74
12, 673170, Control_c, 11, 11, 75
12, 673230, Control_c, 11, 11, 76
12, 673290, Control_c, 11, 11, 77
12, 673350, Control_c, 11, 11, 78
12, 673410, Control_c, 11, 11, 79
12, 673470, Control_c, 11, 11, 80
12, 673530, Control_c, 11, 11, 81
12, 673590, Control_c, 11, 11, 82
12, 673650, Control_c, 11, 11, 83
12, 673720, Control_c, 11, 11, 84
12, 673780, Control_c, 11, 11, 85
12, 673840, Control_c, 11, 11, 86
12, 673900, Control_c, 11, 11, 87
12, 673960, Control_c, 11, 11, 88
12, 674020, Control_c, 11, 11, 89
12, 674080, Control_c, 11, 11, 90
12, 674140, Control_c, 11, 11, 91
12, 674200, Control_c, 11, 11, 92
12, 674260, Control_c, 11, 11, 93
12, 674320, Control_c, 11, 11, 94
12, 674380, Control_c, 11, 11, 95
12, 674440, Control_c, 11, 11, 96
12, 674500, Control_c, 11, 11, 97
12, 674560, Control_c, 11, 11, 98
12, 674630, Control_c, 11, 11, 99
12, 674690, Control_c, 11, 11, 100
12, 674750, Control_c, 11, 11, 101
12, 674810, Control_c, 11, 11, 102
12, 674870, Control_c, 11, 11, 103
12, 674930, Control_c, 11, 11, 104
12, 674990, Control_c, 11, 11, 105
12, 675050, Control_c, 11, 11, 106
12, 675110, Control_c, 11, 11, 107
12, 675170, Control_c, 11, 11, 108
12, 675230, Control_c, 11, 11, 109
12, 675290, Control_c, 11, 11, 110
12, 675350, Control_c, 11, 11, 111
12, 675410, Control_c, 11, 11, 112
12, 675480, Control_c, 11, 11, 113
12, 675540, Control_c, 11, 11, 114
12, 675600, Control_c, 11, 11, 115
12, 675660, Control_c, 11, 11, 116
12, 675720, Control_c, 11, 11, 117
12, 675780, Control_c, 11, 11, 118
12, 675840, Control_c, 11, 11, 119
12, 675900, Control_c, 11, 11, 120
12, 675960, Control_c, 11, 11, 121
12, 676020, Control_c, 11, 11, 122
12, 676080, Control_c, 11, 11, 123
12, 676140, Control_c, 11, 11, 124
12, 676200, Control_c, 11, 11, 125
12, 676230, Note_on_c, 11, 45, 0
12, 676260, Control_c, 11, 11, 126
12, 676290, Control_c, 11, 11, 127
12, 676320, Note_on_c, 11, 46, 127
12, 676800, Note_on_c, 11, 45, 100
12, 676830, Note_on_c, 11, 46, 0
12, 677010, Note_on_c, 11, 45, 0
12, 677280, Note_on_c, 11, 53, 90
12, 678150, Note_on_c, 11, 53, 0
12, 678240, Note_on_c, 11, 55, 90
12, 679110, Note_on_c, 11, 55, 0
12, 679200, Note_on_c, 11, 51, 90
12, 679410, Note_on_c, 11, 51, 0
12, 679680, Note_on_c, 11, 53, 90
12, 680790, Note_on_c, 11, 53, 0
12, 681120, Note_on_c, 11, 53, 90
12, 682230, Note_on_c, 11, 53, 0
12, 682560, Note_on_c, 11, 46, 90
12, 683040, Note_on_c, 11, 41, 90
12, 683070, Note_on_c, 11, 46, 0
12, 683250, Note_on_c, 11, 41, 0
12, 683520, Note_on_c, 11, 50, 90
12, 684000, Note_on_c, 11, 46, 90
12, 684030, Note_on_c, 11, 50, 0
12, 684210, Note_on_c, 11, 46, 0
12, 684480, Note_on_c, 11, 53, 90
12, 684960, Note_on_c, 11, 50, 90
12, 684990, Note_on_c, 11, 53, 0
12, 685170, Note_on_c, 11, 50, 0
12, 685440, Note_on_c, 11, 41, 90
12, 687750, Note_on_c, 11, 41, 0
12, 687840, Note_on_c, 11, 41, 90
12, 688230, Note_on_c, 11, 41, 0
12, 688320, Note_on_c, 11, 46, 90
12, 688800, Note_on_c, 11, 41, 90
12, 688830, Note_on_c, 11, 46, 0
12, 689010, Note_on_c, 11, 41, 0
12, 689280, Note_on_c, 11, 50, 90
12, 689760, Note_on_c, 11, 46, 90
12, 689790, Note_on_c, 11, 50, 0
12, 689970, Note_on_c, 11, 46, 0
12, 690240, Note_on_c, 11, 53, 90
12, 690720, Note_on_c, 11, 50, 90
12, 690750, Note_on_c, 11, 53, 0
12, 690930, Note_on_c, 11, 50, 0
12, 691200, Note_on_c, 11, 41, 90
12, 693510, Note_on_c, 11, 41, 0
12, 693600, Note_on_c, 11, 41, 90
12, 693990, Note_on_c, 11, 41, 0
12, 694080, Note_on_c, 11, 46, 90
12, 695130, Note_on_c, 11, 46, 0
12, 695520, Note_on_c, 11, 46, 90
12, 696570, Note_on_c, 11, 46, 0
12, 696960, Note_on_c, 11, 46, 90
12, 697170, Note_on_c, 11, 46, 0
12, 697440, Note_on_c, 11, 46, 90
12, 697650, Note_on_c, 11, 46, 0
12, 697920, Note_on_c, 11, 46, 90
12, 698100, Note_on_c, 11, 46, 0
12, 698400, Note_on_c, 11, 46, 90
12, 699000, Note_on_c, 11, 46, 0
12, 702720, Note_on_c, 11, 46, 110
12, 703170, Note_on_c, 11, 46, 0
12, 703170, End_track
13, 0, Start_track
13, 0, Channel_prefix, 12
13, 0, Title_t, "Contrabass"
13, 0, Instrument_name_t, "Contrabasso"
13, 2400, Note_on_c, 12, 29, 90
13, 2880, Note_on_c, 12, 34, 90
13, 2910, Note_on_c, 12, 29, 0
13, 3090, Note_on_c, 12, 34, 0
13, 3360, Note_on_c, 12, 34, 90
13, 4050, Note_on_c, 12, 34, 0
13, 4320, Note_on_c, 12, 34, 90
13, 4950, Note_on_c, 12, 34, 0
13, 5280, Note_on_c, 12, 34, 90
13, 5430, Note_on_c, 12, 34, 0
13, 5760, Note_on_c, 12, 29, 90
13, 6240, Note_on_c, 12, 33, 90
13, 6270, Note_on_c, 12, 29, 0
13, 6720, Note_on_c, 12, 36, 90
13, 6750, Note_on_c, 12, 33, 0
13, 6870, Note_on_c, 12, 36, 0
13, 7200, Note_on_c, 12, 41, 90
13, 7800, Note_on_c, 12, 41, 0
13, 11040, Note_on_c, 12, 42, 50
13, 11520, Note_on_c, 12, 39, 50
13, 11550, Note_on_c, 12, 42, 0
13, 12000, Note_on_c, 12, 48, 50
13, 12030, Note_on_c, 12, 39, 0
13, 12480, Note_on_c, 12, 45, 50
13, 12510, Note_on_c, 12, 48, 0
13, 12960, Note_on_c, 12, 42, 50
13, 12990, Note_on_c, 12, 45, 0
13, 13440, Note_on_c, 12, 41, 50
13, 13470, Note_on_c, 12, 42, 0
13, 13920, Note_on_c, 12, 39, 50
13, 13950, Note_on_c, 12, 41, 0
13, 14400, Note_on_c, 12, 37, 50
13, 14430, Note_on_c, 12, 39, 0
13, 14850, Note_on_c, 12, 37, 0
13, 16800, Note_on_c, 12, 49, 50
13, 17280, Note_on_c, 12, 46, 50
13, 17310, Note_on_c, 12, 49, 0
13, 17760, Note_on_c, 12, 43, 50
13, 17790, Note_on_c, 12, 46, 0
13, 18240, Note_on_c, 12, 40, 50
13, 18270, Note_on_c, 12, 43, 0
13, 18720, Note_on_c, 12, 37, 50
13, 18750, Note_on_c, 12, 40, 0
13, 19200, Note_on_c, 12, 36, 50
13, 19230, Note_on_c, 12, 37, 0
13, 19680, Note_on_c, 12, 34, 50
13, 19710, Note_on_c, 12, 36, 0
13, 20160, Note_on_c, 12, 33, 50
13, 20190, Note_on_c, 12, 34, 0
13, 20370, Note_on_c, 12, 33, 0
13, 20640, Note_on_c, 12, 40, 50
13, 21570, Note_on_c, 12, 40, 0
13, 21600, Note_on_c, 12, 41, 50
13, 22530, Note_on_c, 12, 41, 0
13, 22560, Note_on_c, 12, 43, 50
13, 23250, Note_on_c, 12, 43, 0
13, 23520, Note_on_c, 12, 45, 60
13, 24210, Note_on_c, 12, 45, 0
13, 24480, Note_on_c, 12, 46, 70
13, 25170, Note_on_c, 12, 46, 0
13, 25440, Note_on_c, 12, 36, 80
13, 25590, Note_on_c, 12, 36, 0
13, 25920, Note_on_c, 12, 29, 85
13, 27090, Note_on_c, 12, 29, 0
13, 27360, Note_on_c, 12, 29, 90
13, 28530, Note_on_c, 12, 29, 0
13, 28800, Note_on_c, 12, 29, 90
13, 29010, Note_on_c, 12, 29, 0
13, 29280, Note_on_c, 12, 29, 90
13, 29490, Note_on_c, 12, 29, 0
13, 29760, Note_on_c, 12, 29, 90
13, 29970, Note_on_c, 12, 29, 0
13, 30240, Note_on_c, 12, 29, 90
13, 30600, Note_on_c, 12, 29, 0
13, 31200, Note_on_c, 12, 29, 90
13, 31680, Note_on_c, 12, 34, 90
13, 31710, Note_on_c, 12, 29, 0
13, 31890, Note_on_c, 12, 34, 0
13, 32160, Note_on_c, 12, 34, 90
13, 32850, Note_on_c, 12, 34, 0
13, 33120, Note_on_c, 12, 34, 90
13, 33750, Note_on_c, 12, 34, 0
13, 34080, Note_on_c, 12, 34, 90
13, 34230, Note_on_c, 12, 34, 0
13, 34560, Note_on_c, 12, 29, 90
13, 35040, Note_on_c, 12, 33, 90
13, 35070, Note_on_c, 12, 29, 0
13, 35520, Note_on_c, 12, 36, 90
13, 35550, Note_on_c, 12, 33, 0
13, 35670, Note_on_c, 12, 36, 0
13, 36000, Note_on_c, 12, 41, 90
13, 36600, Note_on_c, 12, 41, 0
13, 39840, Note_on_c, 12, 42, 50
13, 40320, Note_on_c, 12, 39, 50
13, 40350, Note_on_c, 12, 42, 0
13, 40800, Note_on_c, 12, 48, 50
13, 40830, Note_on_c, 12, 39, 0
13, 41280, Note_on_c, 12, 45, 50
13, 41310, Note_on_c, 12, 48, 0
13, 41760, Note_on_c, 12, 42, 50
13, 41790, Note_on_c, 12, 45, 0
13, 42240, Note_on_c, 12, 41, 50
13, 42270, Note_on_c, 12, 42, 0
13, 42720, Note_on_c, 12, 39, 50
13, 42750, Note_on_c, 12, 41, 0
13, 43200, Note_on_c, 12, 37, 50
13, 43230, Note_on_c, 12, 39, 0
13, 43650, Note_on_c, 12, 37, 0
13, 45600, Note_on_c, 12, 49, 50
13, 46080, Note_on_c, 12, 46, 50
13, 46110, Note_on_c, 12, 49, 0
13, 46560, Note_on_c, 12, 43, 50
13, 46590, Note_on_c, 12, 46, 0
13, 47040, Note_on_c, 12, 40, 50
13, 47070, Note_on_c, 12, 43, 0
13, 47520, Note_on_c, 12, 37, 50
13, 47550, Note_on_c, 12, 40, 0
13, 48000, Note_on_c, 12, 36, 50
13, 48030, Note_on_c, 12, 37, 0
13, 48480, Note_on_c, 12, 34, 50
13, 48510, Note_on_c, 12, 36, 0
13, 48960, Note_on_c, 12, 33, 50
13, 48990, Note_on_c, 12, 34, 0
13, 49170, Note_on_c, 12, 33, 0
13, 49440, Note_on_c, 12, 40, 50
13, 50370, Note_on_c, 12, 40, 0
13, 50400, Note_on_c, 12, 41, 50
13, 51330, Note_on_c, 12, 41, 0
13, 51360, Note_on_c, 12, 43, 50
13, 52050, Note_on_c, 12, 43, 0
13, 52320, Note_on_c, 12, 45, 60
13, 53010, Note_on_c, 12, 45, 0
13, 53280, Note_on_c, 12, 46, 70
13, 53970, Note_on_c, 12, 46, 0
13, 54240, Note_on_c, 12, 36, 80
13, 54390, Note_on_c, 12, 36, 0
13, 54720, Note_on_c, 12, 29, 85
13, 55890, Note_on_c, 12, 29, 0
13, 56160, Note_on_c, 12, 29, 90
13, 57330, Note_on_c, 12, 29, 0
13, 57600, Note_on_c, 12, 29, 90
13, 57810, Note_on_c, 12, 29, 0
13, 58080, Note_on_c, 12, 29, 90
13, 58290, Note_on_c, 12, 29, 0
13, 58560, Note_on_c, 12, 29, 90
13, 58770, Note_on_c, 12, 29, 0
13, 59040, Note_on_c, 12, 29, 90
13, 59400, Note_on_c, 12, 29, 0
13, 106080, Note_on_c, 12, 29, 60
13, 106560, Note_on_c, 12, 34, 70
13, 106590, Note_on_c, 12, 29, 0
13, 106770, Note_on_c, 12, 34, 0
13, 107040, Note_on_c, 12, 34, 70
13, 107730, Note_on_c, 12, 34, 0
13, 108000, Note_on_c, 12, 34, 70
13, 108690, Note_on_c, 12, 34, 0
13, 108960, Note_on_c, 12, 34, 70
13, 109110, Note_on_c, 12, 34, 0
13, 109440, Note_on_c, 12, 29, 70
13, 109920, Note_on_c, 12, 33, 70
13, 109950, Note_on_c, 12, 29, 0
13, 110130, Note_on_c, 12, 33, 0
13, 110400, Note_on_c, 12, 36, 70
13, 110550, Note_on_c, 12, 36, 0
13, 110880, Note_on_c, 12, 41, 70
13, 111480, Note_on_c, 12, 41, 0
13, 114720, Note_on_c, 12, 42, 50
13, 115200, Note_on_c, 12, 39, 50
13, 115230, Note_on_c, 12, 42, 0
13, 115680, Note_on_c, 12, 36, 50
13, 115710, Note_on_c, 12, 39, 0
13, 116160, Note_on_c, 12, 33, 50
13, 116190, Note_on_c, 12, 36, 0
13, 116640, Note_on_c, 12, 30, 50
13, 116670, Note_on_c, 12, 33, 0
13, 117120, Note_on_c, 12, 29, 50
13, 117150, Note_on_c, 12, 30, 0
13, 117630, Note_on_c, 12, 29, 0
13, 120480, Note_on_c, 12, 44, 50
13, 120960, Note_on_c, 12, 41, 50
13, 120990, Note_on_c, 12, 44, 0
13, 121440, Note_on_c, 12, 38, 50
13, 121470, Note_on_c, 12, 41, 0
13, 121920, Note_on_c, 12, 35, 50
13, 121950, Note_on_c, 12, 38, 0
13, 122400, Note_on_c, 12, 32, 50
13, 122430, Note_on_c, 12, 35, 0
13, 122880, Note_on_c, 12, 31, 50
13, 122910, Note_on_c, 12, 32, 0
13, 123270, Note_on_c, 12, 31, 0
13, 123360, Note_on_c, 12, 49, 50
13, 123840, Note_on_c, 12, 46, 50
13, 123870, Note_on_c, 12, 49, 0
13, 124320, Note_on_c, 12, 43, 50
13, 124350, Note_on_c, 12, 46, 0
13, 124800, Note_on_c, 12, 40, 50
13, 124830, Note_on_c, 12, 43, 0
13, 125280, Note_on_c, 12, 37, 50
13, 125310, Note_on_c, 12, 40, 0
13, 125760, Note_on_c, 12, 36, 50
13, 125790, Note_on_c, 12, 37, 0
13, 126150, Note_on_c, 12, 36, 0
13, 126234, Control_c, 12, 11, 40
13, 126240, Note_on_c, 12, 34, 100
13, 126720, Note_on_c, 12, 33, 100
13, 126750, Note_on_c, 12, 34, 0
13, 128390, Control_c, 12, 11, 41
13, 128450, Control_c, 12, 11, 43
13, 128510, Control_c, 12, 11, 44
13, 128570, Control_c, 12, 11, 45
13, 128620, Control_c, 12, 11, 47
13, 128680, Control_c, 12, 11, 48
13, 128740, Control_c, 12, 11, 49
13, 128800, Control_c, 12, 11, 51
13, 128850, Control_c, 12, 11, 52
13, 128910, Control_c, 12, 11, 53
13, 128970, Control_c, 12, 11, 55
13, 129030, Control_c, 12, 11, 56
13, 129080, Control_c, 12, 11, 57
13, 129140, Control_c, 12, 11, 59
13, 129200, Control_c, 12, 11, 60
13, 129260, Control_c, 12, 11, 62
13, 129310, Control_c, 12, 11, 63
13, 129370, Control_c, 12, 11, 64
13, 129430, Control_c, 12, 11, 66
13, 129490, Control_c, 12, 11, 67
13, 129540, Control_c, 12, 11, 68
13, 129600, Control_c, 12, 11, 70
13, 129660, Control_c, 12, 11, 71
13, 129720, Control_c, 12, 11, 73
13, 129770, Control_c, 12, 11, 74
13, 129830, Control_c, 12, 11, 75
13, 129890, Control_c, 12, 11, 77
13, 129950, Control_c, 12, 11, 78
13, 130000, Control_c, 12, 11, 79
13, 130060, Control_c, 12, 11, 81
13, 130120, Control_c, 12, 11, 82
13, 130180, Control_c, 12, 11, 83
13, 130230, Control_c, 12, 11, 85
13, 130290, Control_c, 12, 11, 86
13, 130350, Control_c, 12, 11, 87
13, 130410, Control_c, 12, 11, 89
13, 130460, Control_c, 12, 11, 90
13, 130520, Control_c, 12, 11, 92
13, 130580, Control_c, 12, 11, 93
13, 130640, Control_c, 12, 11, 94
13, 130690, Control_c, 12, 11, 96
13, 130750, Control_c, 12, 11, 97
13, 130810, Control_c, 12, 11, 98
13, 130870, Control_c, 12, 11, 100
13, 130920, Control_c, 12, 11, 101
13, 130980, Control_c, 12, 11, 102
13, 131040, Control_c, 12, 11, 104
13, 131100, Control_c, 12, 11, 105
13, 131150, Control_c, 12, 11, 106
13, 131210, Control_c, 12, 11, 108
13, 131270, Control_c, 12, 11, 109
13, 131330, Control_c, 12, 11, 111
13, 131380, Control_c, 12, 11, 112
13, 131440, Control_c, 12, 11, 113
13, 131500, Control_c, 12, 11, 115
13, 131560, Control_c, 12, 11, 116
13, 131610, Control_c, 12, 11, 117
13, 131670, Control_c, 12, 11, 119
13, 131730, Control_c, 12, 11, 120
13, 131790, Control_c, 12, 11, 122
13, 131840, Control_c, 12, 11, 123
13, 131900, Control_c, 12, 11, 124
13, 131910, Note_on_c, 12, 33, 0
13, 131960, Control_c, 12, 11, 126
13, 131990, Control_c, 12, 11, 127
13, 132000, Note_on_c, 12, 34, 100
13, 132474, Control_c, 12, 11, 40
13, 132480, Note_on_c, 12, 33, 100
13, 132510, Note_on_c, 12, 34, 0
13, 132550, Control_c, 12, 11, 41
13, 132610, Control_c, 12, 11, 42
13, 132670, Control_c, 12, 11, 43
13, 132730, Control_c, 12, 11, 44
13, 132790, Control_c, 12, 11, 45
13, 132850, Control_c, 12, 11, 46
13, 132910, Control_c, 12, 11, 47
13, 132970, Control_c, 12, 11, 48
13, 133030, Control_c, 12, 11, 49
13, 133090, Control_c, 12, 11, 50
13, 133150, Control_c, 12, 11, 51
13, 133210, Control_c, 12, 11, 52
13, 133270, Control_c, 12, 11, 53
13, 133330, Control_c, 12, 11, 54
13, 133400, Control_c, 12, 11, 55
13, 133460, Control_c, 12, 11, 56
13, 133520, Control_c, 12, 11, 57
13, 133580, Control_c, 12, 11, 58
13, 133640, Control_c, 12, 11, 59
13, 133700, Control_c, 12, 11, 60
13, 133760, Control_c, 12, 11, 61
13, 133820, Control_c, 12, 11, 62
13, 133880, Control_c, 12, 11, 63
13, 133940, Control_c, 12, 11, 64
13, 134000, Control_c, 12, 11, 65
13, 134060, Control_c, 12, 11, 66
13, 134120, Control_c, 12, 11, 67
13, 134180, Control_c, 12, 11, 68
13, 134240, Control_c, 12, 11, 69
13, 134310, Control_c, 12, 11, 70
13, 134370, Control_c, 12, 11, 71
13, 134430, Control_c, 12, 11, 72
13, 134490, Control_c, 12, 11, 73
13, 134550, Control_c, 12, 11, 74
13, 134610, Control_c, 12, 11, 75
13, 134670, Control_c, 12, 11, 76
13, 134730, Control_c, 12, 11, 77
13, 134790, Control_c, 12, 11, 78
13, 134850, Control_c, 12, 11, 79
13, 134910, Control_c, 12, 11, 80
13, 134970, Control_c, 12, 11, 81
13, 135030, Control_c, 12, 11, 82
13, 135090, Control_c, 12, 11, 83
13, 135160, Control_c, 12, 11, 84
13, 135220, Control_c, 12, 11, 85
13, 135280, Control_c, 12, 11, 86
13, 135340, Control_c, 12, 11, 87
13, 135400, Control_c, 12, 11, 88
13, 135460, Control_c, 12, 11, 89
13, 135520, Control_c, 12, 11, 90
13, 135580, Control_c, 12, 11, 91
13, 135640, Control_c, 12, 11, 92
13, 135700, Control_c, 12, 11, 93
13, 135760, Control_c, 12, 11, 94
13, 135820, Control_c, 12, 11, 95
13, 135880, Control_c, 12, 11, 96
13, 135940, Control_c, 12, 11, 97
13, 136000, Control_c, 12, 11, 98
13, 136070, Control_c, 12, 11, 99
13, 136130, Control_c, 12, 11, 100
13, 136190, Control_c, 12, 11, 101
13, 136250, Control_c, 12, 11, 102
13, 136310, Control_c, 12, 11, 103
13, 136370, Control_c, 12, 11, 104
13, 136430, Control_c, 12, 11, 105
13, 136490, Control_c, 12, 11, 106
13, 136550, Control_c, 12, 11, 107
13, 136610, Control_c, 12, 11, 108
13, 136670, Control_c, 12, 11, 109
13, 136730, Control_c, 12, 11, 110
13, 136790, Control_c, 12, 11, 111
13, 136850, Control_c, 12, 11, 112
13, 136920, Control_c, 12, 11, 113
13, 136980, Control_c, 12, 11, 114
13, 137040, Control_c, 12, 11, 115
13, 137100, Control_c, 12, 11, 116
13, 137160, Control_c, 12, 11, 117
13, 137220, Control_c, 12, 11, 118
13, 137280, Control_c, 12, 11, 119
13, 137340, Control_c, 12, 11, 120
13, 137400, Control_c, 12, 11, 121
13, 137460, Control_c, 12, 11, 122
13, 137520, Control_c, 12, 11, 123
13, 137580, Control_c, 12, 11, 124
13, 137640, Control_c, 12, 11, 125
13, 137670, Note_on_c, 12, 33, 0
13, 137700, Control_c, 12, 11, 126
13, 137730, Control_c, 12, 11, 127
13, 137760, Note_on_c, 12, 34, 100
13, 138240, Note_on_c, 12, 33, 80
13, 138270, Note_on_c, 12, 34, 0
13, 138450, Note_on_c, 12, 33, 0
13, 138720, Note_on_c, 12, 41, 70
13, 139590, Note_on_c, 12, 41, 0
13, 139680, Note_on_c, 12, 43, 70
13, 140550, Note_on_c, 12, 43, 0
13, 140640, Note_on_c, 12, 39, 70
13, 140850, Note_on_c, 12, 39, 0
13, 141120, Note_on_c, 12, 41, 70
13, 142230, Note_on_c, 12, 41, 0
13, 142560, Note_on_c, 12, 41, 70
13, 143670, Note_on_c, 12, 41, 0
13, 144000, Note_on_c, 12, 34, 70
13, 144480, Note_on_c, 12, 29, 70
13, 144510, Note_on_c, 12, 34, 0
13, 144690, Note_on_c, 12, 29, 0
13, 144960, Note_on_c, 12, 38, 70
13, 145440, Note_on_c, 12, 34, 70
13, 145470, Note_on_c, 12, 38, 0
13, 145650, Note_on_c, 12, 34, 0
13, 145920, Note_on_c, 12, 41, 70
13, 146400, Note_on_c, 12, 38, 70
13, 146430, Note_on_c, 12, 41, 0
13, 146610, Note_on_c, 12, 38, 0
13, 146880, Note_on_c, 12, 29, 70
13, 149190, Note_on_c, 12, 29, 0
13, 149280, Note_on_c, 12, 29, 70
13, 149670, Note_on_c, 12, 29, 0
13, 149760, Note_on_c, 12, 34, 70
13, 150240, Note_on_c, 12, 29, 70
13, 150270, Note_on_c, 12, 34, 0
13, 150450, Note_on_c, 12, 29, 0
13, 150720, Note_on_c, 12, 38, 70
13, 151200, Note_on_c, 12, 34, 70
13, 151230, Note_on_c, 12, 38, 0
13, 151410, Note_on_c, 12, 34, 0
13, 151680, Note_on_c, 12, 41, 70
13, 152160, Note_on_c, 12, 38, 70
13, 152190, Note_on_c, 12, 41, 0
13, 152370, Note_on_c, 12, 38, 0
13, 152640, Note_on_c, 12, 29, 70
13, 154950, Note_on_c, 12, 29, 0
13, 155040, Note_on_c, 12, 29, 70
13, 155430, Note_on_c, 12, 29, 0
13, 155520, Note_on_c, 12, 34, 70
13, 156570, Note_on_c, 12, 34, 0
13, 156960, Note_on_c, 12, 34, 70
13, 158010, Note_on_c, 12, 34, 0
13, 158400, Note_on_c, 12, 34, 70
13, 158610, Note_on_c, 12, 34, 0
13, 158880, Note_on_c, 12, 34, 70
13, 159090, Note_on_c, 12, 34, 0
13, 159360, Note_on_c, 12, 34, 70
13, 159540, Note_on_c, 12, 34, 0
13, 159840, Note_on_c, 12, 34, 70
13, 160320, Control_c, 12, 11, 80
13, 160440, Note_on_c, 12, 34, 0
13, 206880, Note_on_c, 12, 29, 60
13, 207360, Note_on_c, 12, 34, 70
13, 207390, Note_on_c, 12, 29, 0
13, 207570, Note_on_c, 12, 34, 0
13, 207840, Note_on_c, 12, 34, 70
13, 208530, Note_on_c, 12, 34, 0
13, 208800, Note_on_c, 12, 34, 70
13, 209490, Note_on_c, 12, 34, 0
13, 209760, Note_on_c, 12, 34, 70
13, 209910, Note_on_c, 12, 34, 0
13, 210240, Note_on_c, 12, 29, 70
13, 210720, Note_on_c, 12, 33, 70
13, 210750, Note_on_c, 12, 29, 0
13, 210930, Note_on_c, 12, 33, 0
13, 211200, Note_on_c, 12, 36, 70
13, 211350, Note_on_c, 12, 36, 0
13, 211680, Note_on_c, 12, 41, 70
13, 212280, Note_on_c, 12, 41, 0
13, 215520, Note_on_c, 12, 42, 50
13, 216000, Note_on_c, 12, 39, 50
13, 216030, Note_on_c, 12, 42, 0
13, 216480, Note_on_c, 12, 36, 50
13, 216510, Note_on_c, 12, 39, 0
13, 216960, Note_on_c, 12, 33, 50
13, 216990, Note_on_c, 12, 36, 0
13, 217440, Note_on_c, 12, 30, 50
13, 217470, Note_on_c, 12, 33, 0
13, 217920, Note_on_c, 12, 29, 50
13, 217950, Note_on_c, 12, 30, 0
13, 218430, Note_on_c, 12, 29, 0
13, 221280, Note_on_c, 12, 44, 50
13, 221760, Note_on_c, 12, 41, 50
13, 221790, Note_on_c, 12, 44, 0
13, 222240, Note_on_c, 12, 38, 50
13, 222270, Note_on_c, 12, 41, 0
13, 222720, Note_on_c, 12, 35, 50
13, 222750, Note_on_c, 12, 38, 0
13, 223200, Note_on_c, 12, 32, 50
13, 223230, Note_on_c, 12, 35, 0
13, 223680, Note_on_c, 12, 31, 50
13, 223710, Note_on_c, 12, 32, 0
13, 224070, Note_on_c, 12, 31, 0
13, 224160, Note_on_c, 12, 49, 50
13, 224640, Note_on_c, 12, 46, 50
13, 224670, Note_on_c, 12, 49, 0
13, 225120, Note_on_c, 12, 43, 50
13, 225150, Note_on_c, 12, 46, 0
13, 225600, Note_on_c, 12, 40, 50
13, 225630, Note_on_c, 12, 43, 0
13, 226080, Note_on_c, 12, 37, 50
13, 226110, Note_on_c, 12, 40, 0
13, 226560, Note_on_c, 12, 36, 50
13, 226590, Note_on_c, 12, 37, 0
13, 226950, Note_on_c, 12, 36, 0
13, 227034, Control_c, 12, 11, 40
13, 227040, Note_on_c, 12, 34, 100
13, 227520, Note_on_c, 12, 33, 100
13, 227550, Note_on_c, 12, 34, 0
13, 229190, Control_c, 12, 11, 41
13, 229250, Control_c, 12, 11, 43
13, 229310, Control_c, 12, 11, 44
13, 229370, Control_c, 12, 11, 45
13, 229420, Control_c, 12, 11, 47
13, 229480, Control_c, 12, 11, 48
13, 229540, Control_c, 12, 11, 49
13, 229600, Control_c, 12, 11, 51
13, 229650, Control_c, 12, 11, 52
13, 229710, Control_c, 12, 11, 53
13, 229770, Control_c, 12, 11, 55
13, 229830, Control_c, 12, 11, 56
13, 229880, Control_c, 12, 11, 57
13, 229940, Control_c, 12, 11, 59
13, 230000, Control_c, 12, 11, 60
13, 230060, Control_c, 12, 11, 62
13, 230110, Control_c, 12, 11, 63
13, 230170, Control_c, 12, 11, 64
13, 230230, Control_c, 12, 11, 66
13, 230290, Control_c, 12, 11, 67
13, 230340, Control_c, 12, 11, 68
13, 230400, Control_c, 12, 11, 70
13, 230460, Control_c, 12, 11, 71
13, 230520, Control_c, 12, 11, 73
13, 230570, Control_c, 12, 11, 74
13, 230630, Control_c, 12, 11, 75
13, 230690, Control_c, 12, 11, 77
13, 230750, Control_c, 12, 11, 78
13, 230800, Control_c, 12, 11, 79
13, 230860, Control_c, 12, 11, 81
13, 230920, Control_c, 12, 11, 82
13, 230980, Control_c, 12, 11, 83
13, 231030, Control_c, 12, 11, 85
13, 231090, Control_c, 12, 11, 86
13, 231150, Control_c, 12, 11, 87
13, 231210, Control_c, 12, 11, 89
13, 231260, Control_c, 12, 11, 90
13, 231320, Control_c, 12, 11, 92
13, 231380, Control_c, 12, 11, 93
13, 231440, Control_c, 12, 11, 94
13, 231490, Control_c, 12, 11, 96
13, 231550, Control_c, 12, 11, 97
13, 231610, Control_c, 12, 11, 98
13, 231670, Control_c, 12, 11, 100
13, 231720, Control_c, 12, 11, 101
13, 231780, Control_c, 12, 11, 102
13, 231840, Control_c, 12, 11, 104
13, 231900, Control_c, 12, 11, 105
13, 231950, Control_c, 12, 11, 106
13, 232010, Control_c, 12, 11, 108
13, 232070, Control_c, 12, 11, 109
13, 232130, Control_c, 12, 11, 111
13, 232180, Control_c, 12, 11, 112
13, 232240, Control_c, 12, 11, 113
13, 232300, Control_c, 12, 11, 115
13, 232360, Control_c, 12, 11, 116
13, 232410, Control_c, 12, 11, 117
13, 232470, Control_c, 12, 11, 119
13, 232530, Control_c, 12, 11, 120
13, 232590, Control_c, 12, 11, 122
13, 232640, Control_c, 12, 11, 123
13, 232700, Control_c, 12, 11, 124
13, 232710, Note_on_c, 12, 33, 0
13, 232760, Control_c, 12, 11, 126
13, 232790, Control_c, 12, 11, 127
13, 232800, Note_on_c, 12, 34, 100
13, 233274, Control_c, 12, 11, 40
13, 233280, Note_on_c, 12, 33, 100
13, 233310, Note_on_c, 12, 34, 0
13, 233350, Control_c, 12, 11, 41
13, 233410, Control_c, 12, 11, 42
13, 233470, Control_c, 12, 11, 43
13, 233530, Control_c, 12, 11, 44
13, 233590, Control_c, 12, 11, 45
13, 233650, Control_c, 12, 11, 46
13, 233710, Control_c, 12, 11, 47
13, 233770, Control_c, 12, 11, 48
13, 233830, Control_c, 12, 11, 49
13, 233890, Control_c, 12, 11, 50
13, 233950, Control_c, 12, 11, 51
13, 234010, Control_c, 12, 11, 52
13, 234070, Control_c, 12, 11, 53
13, 234130, Control_c, 12, 11, 54
13, 234200, Control_c, 12, 11, 55
13, 234260, Control_c, 12, 11, 56
13, 234320, Control_c, 12, 11, 57
13, 234380, Control_c, 12, 11, 58
13, 234440, Control_c, 12, 11, 59
13, 234500, Control_c, 12, 11, 60
13, 234560, Control_c, 12, 11, 61
13, 234620, Control_c, 12, 11, 62
13, 234680, Control_c, 12, 11, 63
13, 234740, Control_c, 12, 11, 64
13, 234800, Control_c, 12, 11, 65
13, 234860, Control_c, 12, 11, 66
13, 234920, Control_c, 12, 11, 67
13, 234980, Control_c, 12, 11, 68
13, 235040, Control_c, 12, 11, 69
13, 235110, Control_c, 12, 11, 70
13, 235170, Control_c, 12, 11, 71
13, 235230, Control_c, 12, 11, 72
13, 235290, Control_c, 12, 11, 73
13, 235350, Control_c, 12, 11, 74
13, 235410, Control_c, 12, 11, 75
13, 235470, Control_c, 12, 11, 76
13, 235530, Control_c, 12, 11, 77
13, 235590, Control_c, 12, 11, 78
13, 235650, Control_c, 12, 11, 79
13, 235710, Control_c, 12, 11, 80
13, 235770, Control_c, 12, 11, 81
13, 235830, Control_c, 12, 11, 82
13, 235890, Control_c, 12, 11, 83
13, 235960, Control_c, 12, 11, 84
13, 236020, Control_c, 12, 11, 85
13, 236080, Control_c, 12, 11, 86
13, 236140, Control_c, 12, 11, 87
13, 236200, Control_c, 12, 11, 88
13, 236260, Control_c, 12, 11, 89
13, 236320, Control_c, 12, 11, 90
13, 236380, Control_c, 12, 11, 91
13, 236440, Control_c, 12, 11, 92
13, 236500, Control_c, 12, 11, 93
13, 236560, Control_c, 12, 11, 94
13, 236620, Control_c, 12, 11, 95
13, 236680, Control_c, 12, 11, 96
13, 236740, Control_c, 12, 11, 97
13, 236800, Control_c, 12, 11, 98
13, 236870, Control_c, 12, 11, 99
13, 236930, Control_c, 12, 11, 100
13, 236990, Control_c, 12, 11, 101
13, 237050, Control_c, 12, 11, 102
13, 237110, Control_c, 12, 11, 103
13, 237170, Control_c, 12, 11, 104
13, 237230, Control_c, 12, 11, 105
13, 237290, Control_c, 12, 11, 106
13, 237350, Control_c, 12, 11, 107
13, 237410, Control_c, 12, 11, 108
13, 237470, Control_c, 12, 11, 109
13, 237530, Control_c, 12, 11, 110
13, 237590, Control_c, 12, 11, 111
13, 237650, Control_c, 12, 11, 112
13, 237720, Control_c, 12, 11, 113
13, 237780, Control_c, 12, 11, 114
13, 237840, Control_c, 12, 11, 115
13, 237900, Control_c, 12, 11, 116
13, 237960, Control_c, 12, 11, 117
13, 238020, Control_c, 12, 11, 118
13, 238080, Control_c, 12, 11, 119
13, 238140, Control_c, 12, 11, 120
13, 238200, Control_c, 12, 11, 121
13, 238260, Control_c, 12, 11, 122
13, 238320, Control_c, 12, 11, 123
13, 238380, Control_c, 12, 11, 124
13, 238440, Control_c, 12, 11, 125
13, 238470, Note_on_c, 12, 33, 0
13, 238500, Control_c, 12, 11, 126
13, 238530, Control_c, 12, 11, 127
13, 238560, Note_on_c, 12, 34, 100
13, 239040, Note_on_c, 12, 33, 80
13, 239070, Note_on_c, 12, 34, 0
13, 239250, Note_on_c, 12, 33, 0
13, 239520, Note_on_c, 12, 41, 70
13, 240390, Note_on_c, 12, 41, 0
13, 240480, Note_on_c, 12, 43, 70
13, 241350, Note_on_c, 12, 43, 0
13, 241440, Note_on_c, 12, 39, 70
13, 241650, Note_on_c, 12, 39, 0
13, 241920, Note_on_c, 12, 41, 70
13, 243030, Note_on_c, 12, 41, 0
13, 243360, Note_on_c, 12, 41, 70
13, 244470, Note_on_c, 12, 41, 0
13, 244800, Note_on_c, 12, 34, 70
13, 245280, Note_on_c, 12, 29, 70
13, 245310, Note_on_c, 12, 34, 0
13, 245490, Note_on_c, 12, 29, 0
13, 245760, Note_on_c, 12, 38, 70
13, 246240, Note_on_c, 12, 34, 70
13, 246270, Note_on_c, 12, 38, 0
13, 246450, Note_on_c, 12, 34, 0
13, 246720, Note_on_c, 12, 41, 70
13, 247200, Note_on_c, 12, 38, 70
13, 247230, Note_on_c, 12, 41, 0
13, 247410, Note_on_c, 12, 38, 0
13, 247680, Note_on_c, 12, 29, 70
13, 249990, Note_on_c, 12, 29, 0
13, 250080, Note_on_c, 12, 29, 70
13, 250470, Note_on_c, 12, 29, 0
13, 250560, Note_on_c, 12, 34, 70
13, 251040, Note_on_c, 12, 29, 70
13, 251070, Note_on_c, 12, 34, 0
13, 251250, Note_on_c, 12, 29, 0
13, 251520, Note_on_c, 12, 38, 70
13, 252000, Note_on_c, 12, 34, 70
13, 252030, Note_on_c, 12, 38, 0
13, 252210, Note_on_c, 12, 34, 0
13, 252480, Note_on_c, 12, 41, 70
13, 252960, Note_on_c, 12, 38, 70
13, 252990, Note_on_c, 12, 41, 0
13, 253170, Note_on_c, 12, 38, 0
13, 253440, Note_on_c, 12, 29, 70
13, 255750, Note_on_c, 12, 29, 0
13, 255840, Note_on_c, 12, 29, 70
13, 256230, Note_on_c, 12, 29, 0
13, 256320, Note_on_c, 12, 34, 70
13, 257370, Note_on_c, 12, 34, 0
13, 257760, Note_on_c, 12, 34, 70
13, 258810, Note_on_c, 12, 34, 0
13, 259200, Note_on_c, 12, 34, 70
13, 259410, Note_on_c, 12, 34, 0
13, 259680, Note_on_c, 12, 34, 70
13, 259890, Note_on_c, 12, 34, 0
13, 260160, Note_on_c, 12, 34, 70
13, 260340, Note_on_c, 12, 34, 0
13, 260640, Note_on_c, 12, 34, 70
13, 261240, Note_on_c, 12, 34, 0
13, 261600, Control_c, 12, 11, 80
13, 281760, Note_on_c, 12, 34, 40
13, 282150, Note_on_c, 12, 34, 0
13, 282240, Note_on_c, 12, 34, 40
13, 282240, Control_c, 12, 11, 80
13, 282280, Control_c, 12, 11, 81
13, 282310, Control_c, 12, 11, 82
13, 282340, Control_c, 12, 11, 83
13, 282370, Control_c, 12, 11, 84
13, 282400, Control_c, 12, 11, 85
13, 282430, Control_c, 12, 11, 86
13, 282460, Control_c, 12, 11, 87
13, 282490, Control_c, 12, 11, 88
13, 282520, Control_c, 12, 11, 89
13, 282550, Control_c, 12, 11, 90
13, 282580, Control_c, 12, 11, 91
13, 282610, Control_c, 12, 11, 92
13, 282640, Control_c, 12, 11, 93
13, 282670, Control_c, 12, 11, 94
13, 282700, Control_c, 12, 11, 95
13, 282740, Control_c, 12, 11, 96
13, 282770, Control_c, 12, 11, 97
13, 282800, Control_c, 12, 11, 98
13, 282830, Control_c, 12, 11, 99
13, 282860, Control_c, 12, 11, 100
13, 282890, Control_c, 12, 11, 101
13, 282920, Control_c, 12, 11, 102
13, 282950, Control_c, 12, 11, 103
13, 282980, Control_c, 12, 11, 104
13, 283010, Control_c, 12, 11, 105
13, 283040, Control_c, 12, 11, 106
13, 283070, Control_c, 12, 11, 107
13, 283100, Control_c, 12, 11, 108
13, 283130, Control_c, 12, 11, 109
13, 283160, Control_c, 12, 11, 110
13, 283190, Control_c, 12, 11, 111
13, 283230, Control_c, 12, 11, 112
13, 283260, Control_c, 12, 11, 113
13, 283290, Control_c, 12, 11, 114
13, 283320, Control_c, 12, 11, 115
13, 283350, Control_c, 12, 11, 116
13, 283380, Control_c, 12, 11, 117
13, 283410, Control_c, 12, 11, 118
13, 283440, Control_c, 12, 11, 119
13, 283470, Control_c, 12, 11, 120
13, 283500, Control_c, 12, 11, 121
13, 283530, Control_c, 12, 11, 122
13, 283560, Control_c, 12, 11, 123
13, 283590, Control_c, 12, 11, 124
13, 283620, Control_c, 12, 11, 125
13, 283650, Control_c, 12, 11, 126
13, 283680, Control_c, 12, 11, 127
13, 283710, Control_c, 12, 11, 126
13, 283740, Control_c, 12, 11, 125
13, 283770, Control_c, 12, 11, 124
13, 283800, Control_c, 12, 11, 123
13, 283830, Control_c, 12, 11, 122
13, 283860, Control_c, 12, 11, 121
13, 283890, Control_c, 12, 11, 120
13, 283920, Control_c, 12, 11, 119
13, 283950, Control_c, 12, 11, 118
13, 283980, Control_c, 12, 11, 117
13, 284010, Control_c, 12, 11, 116
13, 284040, Control_c, 12, 11, 115
13, 284070, Note_on_c, 12, 34, 0
13, 284070, Control_c, 12, 11, 114
13, 284100, Control_c, 12, 11, 113
13, 284130, Control_c, 12, 11, 112
13, 284160, Note_on_c, 12, 34, 40
13, 284160, Control_c, 12, 11, 111
13, 284190, Control_c, 12, 11, 110
13, 284220, Control_c, 12, 11, 109
13, 284250, Control_c, 12, 11, 108
13, 284280, Control_c, 12, 11, 107
13, 284310, Control_c, 12, 11, 106
13, 284340, Control_c, 12, 11, 105
13, 284370, Control_c, 12, 11, 104
13, 284400, Control_c, 12, 11, 103
13, 284430, Control_c, 12, 11, 102
13, 284460, Control_c, 12, 11, 101
13, 284490, Control_c, 12, 11, 100
13, 284520, Control_c, 12, 11, 99
13, 284550, Note_on_c, 12, 34, 0
13, 284550, Control_c, 12, 11, 98
13, 284580, Control_c, 12, 11, 97
13, 284610, Control_c, 12, 11, 96
13, 284640, Note_on_c, 12, 34, 40
13, 284640, Control_c, 12, 11, 95
13, 284670, Control_c, 12, 11, 94
13, 284700, Control_c, 12, 11, 93
13, 284730, Control_c, 12, 11, 92
13, 284760, Control_c, 12, 11, 91
13, 284790, Control_c, 12, 11, 90
13, 284820, Control_c, 12, 11, 89
13, 284850, Control_c, 12, 11, 88
13, 284880, Control_c, 12, 11, 87
13, 284910, Control_c, 12, 11, 86
13, 284940, Control_c, 12, 11, 85
13, 284970, Control_c, 12, 11, 84
13, 285000, Control_c, 12, 11, 83
13, 285030, Note_on_c, 12, 34, 0
13, 285030, Control_c, 12, 11, 82
13, 285060, Control_c, 12, 11, 81
13, 285090, Control_c, 12, 11, 80
13, 285120, Note_on_c, 12, 34, 40
13, 285600, Note_on_c, 12, 34, 0
13, 310560, Program_c, 12, 45
13, 311040, Note_on_c, 12, 29, 100
13, 311490, Note_on_c, 12, 29, 0
13, 316800, Note_on_c, 12, 29, 100
13, 317250, Note_on_c, 12, 29, 0
13, 355680, Program_c, 12, 48
13, 356640, Note_on_c, 12, 46, 70
13, 357030, Note_on_c, 12, 46, 0
13, 357120, Note_on_c, 12, 46, 70
13, 358080, Note_on_c, 12, 44, 70
13, 358110, Note_on_c, 12, 46, 0
13, 358560, Note_on_c, 12, 43, 70
13, 358590, Note_on_c, 12, 44, 0
13, 359520, Note_on_c, 12, 41, 70
13, 359550, Note_on_c, 12, 43, 0
13, 359910, Note_on_c, 12, 41, 0
13, 360000, Note_on_c, 12, 39, 70
13, 360000, Control_c, 12, 11, 80
13, 360060, Control_c, 12, 11, 87
13, 360120, Control_c, 12, 11, 95
13, 360180, Control_c, 12, 11, 102
13, 360300, Control_c, 12, 11, 110
13, 360360, Control_c, 12, 11, 107
13, 360420, Control_c, 12, 11, 106
13, 360480, Control_c, 12, 11, 104
13, 360540, Control_c, 12, 11, 103
13, 360600, Control_c, 12, 11, 101
13, 360660, Control_c, 12, 11, 100
13, 360720, Control_c, 12, 11, 98
13, 360780, Control_c, 12, 11, 97
13, 360840, Control_c, 12, 11, 95
13, 360900, Control_c, 12, 11, 93
13, 360960, Control_c, 12, 11, 92
13, 361020, Control_c, 12, 11, 90
13, 361080, Control_c, 12, 11, 89
13, 361140, Control_c, 12, 11, 87
13, 361200, Control_c, 12, 11, 86
13, 361260, Control_c, 12, 11, 84
13, 361320, Control_c, 12, 11, 82
13, 361380, Control_c, 12, 11, 80
13, 362310, Note_on_c, 12, 39, 0
13, 362400, Note_on_c, 12, 34, 70
13, 362790, Note_on_c, 12, 34, 0
13, 362880, Note_on_c, 12, 29, 70
13, 363330, Note_on_c, 12, 29, 0
13, 363840, Note_on_c, 12, 29, 70
13, 364230, Note_on_c, 12, 29, 0
13, 364320, Note_on_c, 12, 29, 70
13, 365190, Note_on_c, 12, 29, 0
13, 365280, Note_on_c, 12, 29, 70
13, 365760, Note_on_c, 12, 34, 70
13, 365820, Note_on_c, 12, 29, 0
13, 366210, Note_on_c, 12, 34, 0
13, 368160, Note_on_c, 12, 34, 70
13, 368640, Note_on_c, 12, 29, 70
13, 368700, Note_on_c, 12, 34, 0
13, 369090, Note_on_c, 12, 29, 0
13, 371040, Note_on_c, 12, 29, 70
13, 371520, Note_on_c, 12, 34, 70
13, 371580, Note_on_c, 12, 29, 0
13, 371970, Note_on_c, 12, 34, 0
13, 373920, Note_on_c, 12, 34, 58
13, 374400, Note_on_c, 12, 29, 54
13, 374460, Note_on_c, 12, 34, 0
13, 374850, Note_on_c, 12, 29, 0
13, 376800, Note_on_c, 12, 29, 34
13, 377280, Note_on_c, 12, 34, 30
13, 377340, Note_on_c, 12, 29, 0
13, 377730, Note_on_c, 12, 34, 0
13, 378720, Note_on_c, 12, 34, 30
13, 379170, Note_on_c, 12, 34, 0
13, 380160, Note_on_c, 12, 34, 30
13, 380610, Note_on_c, 12, 34, 0
13, 381600, Note_on_c, 12, 34, 30
13, 382050, Note_on_c, 12, 34, 0
13, 383040, Note_on_c, 12, 34, 30
13, 383430, Note_on_c, 12, 34, 0
13, 386400, Note_on_c, 12, 31, 50
13, 386880, Note_on_c, 12, 32, 54
13, 386910, Note_on_c, 12, 31, 0
13, 387090, Note_on_c, 12, 32, 0
13, 387360, Note_on_c, 12, 32, 58
13, 387840, Note_on_c, 12, 33, 62
13, 387870, Note_on_c, 12, 32, 0
13, 388050, Note_on_c, 12, 33, 0
13, 388320, Note_on_c, 12, 29, 66
13, 388800, Note_on_c, 12, 34, 70
13, 388830, Note_on_c, 12, 29, 0
13, 389010, Note_on_c, 12, 34, 0
13, 389280, Note_on_c, 12, 34, 70
13, 389970, Note_on_c, 12, 34, 0
13, 390240, Note_on_c, 12, 34, 90
13, 390870, Note_on_c, 12, 34, 0
13, 391200, Note_on_c, 12, 34, 90
13, 391350, Note_on_c, 12, 34, 0
13, 391680, Note_on_c, 12, 29, 90
13, 392160, Note_on_c, 12, 33, 90
13, 392190, Note_on_c, 12, 29, 0
13, 392640, Note_on_c, 12, 36, 90
13, 392670, Note_on_c, 12, 33, 0
13, 392790, Note_on_c, 12, 36, 0
13, 393120, Note_on_c, 12, 41, 90
13, 393720, Note_on_c, 12, 41, 0
13, 396960, Note_on_c, 12, 42, 50
13, 397440, Note_on_c, 12, 39, 50
13, 397470, Note_on_c, 12, 42, 0
13, 397920, Note_on_c, 12, 48, 50
13, 397950, Note_on_c, 12, 39, 0
13, 398400, Note_on_c, 12, 45, 50
13, 398430, Note_on_c, 12, 48, 0
13, 398880, Note_on_c, 12, 42, 50
13, 398910, Note_on_c, 12, 45, 0
13, 399360, Note_on_c, 12, 41, 50
13, 399390, Note_on_c, 12, 42, 0
13, 399840, Note_on_c, 12, 39, 50
13, 399870, Note_on_c, 12, 41, 0
13, 400320, Note_on_c, 12, 37, 50
13, 400350, Note_on_c, 12, 39, 0
13, 400770, Note_on_c, 12, 37, 0
13, 402720, Note_on_c, 12, 49, 50
13, 403200, Note_on_c, 12, 46, 50
13, 403230, Note_on_c, 12, 49, 0
13, 403680, Note_on_c, 12, 43, 50
13, 403710, Note_on_c, 12, 46, 0
13, 404160, Note_on_c, 12, 40, 50
13, 404190, Note_on_c, 12, 43, 0
13, 404640, Note_on_c, 12, 37, 50
13, 404670, Note_on_c, 12, 40, 0
13, 405120, Note_on_c, 12, 36, 50
13, 405150, Note_on_c, 12, 37, 0
13, 405600, Note_on_c, 12, 34, 50
13, 405630, Note_on_c, 12, 36, 0
13, 406080, Note_on_c, 12, 33, 50
13, 406110, Note_on_c, 12, 34, 0
13, 406290, Note_on_c, 12, 33, 0
13, 406560, Note_on_c, 12, 40, 50
13, 407490, Note_on_c, 12, 40, 0
13, 407520, Note_on_c, 12, 41, 50
13, 408450, Note_on_c, 12, 41, 0
13, 408480, Note_on_c, 12, 43, 50
13, 409170, Note_on_c, 12, 43, 0
13, 409440, Note_on_c, 12, 45, 60
13, 410130, Note_on_c, 12, 45, 0
13, 410400, Note_on_c, 12, 46, 70
13, 411090, Note_on_c, 12, 46, 0
13, 411360, Note_on_c, 12, 36, 80
13, 411510, Note_on_c, 12, 36, 0
13, 411840, Note_on_c, 12, 29, 85
13, 413010, Note_on_c, 12, 29, 0
13, 413280, Note_on_c, 12, 29, 90
13, 414450, Note_on_c, 12, 29, 0
13, 414720, Note_on_c, 12, 29, 90
13, 414930, Note_on_c, 12, 29, 0
13, 415200, Note_on_c, 12, 29, 90
13, 415410, Note_on_c, 12, 29, 0
13, 415680, Note_on_c, 12, 29, 90
13, 415890, Note_on_c, 12, 29, 0
13, 416160, Note_on_c, 12, 29, 90
13, 416520, Note_on_c, 12, 29, 0
13, 463200, Note_on_c, 12, 29, 60
13, 463680, Note_on_c, 12, 34, 70
13, 463710, Note_on_c, 12, 29, 0
13, 463890, Note_on_c, 12, 34, 0
13, 464160, Note_on_c, 12, 34, 70
13, 464850, Note_on_c, 12, 34, 0
13, 465120, Note_on_c, 12, 34, 70
13, 465810, Note_on_c, 12, 34, 0
13, 466080, Note_on_c, 12, 34, 70
13, 466230, Note_on_c, 12, 34, 0
13, 466560, Note_on_c, 12, 29, 70
13, 467040, Note_on_c, 12, 33, 70
13, 467070, Note_on_c, 12, 29, 0
13, 467250, Note_on_c, 12, 33, 0
13, 467520, Note_on_c, 12, 36, 70
13, 467670, Note_on_c, 12, 36, 0
13, 468000, Note_on_c, 12, 41, 70
13, 468600, Note_on_c, 12, 41, 0
13, 471840, Note_on_c, 12, 42, 50
13, 472320, Note_on_c, 12, 39, 50
13, 472350, Note_on_c, 12, 42, 0
13, 472800, Note_on_c, 12, 36, 50
13, 472830, Note_on_c, 12, 39, 0
13, 473280, Note_on_c, 12, 33, 50
13, 473310, Note_on_c, 12, 36, 0
13, 473760, Note_on_c, 12, 30, 50
13, 473790, Note_on_c, 12, 33, 0
13, 474240, Note_on_c, 12, 29, 50
13, 474270, Note_on_c, 12, 30, 0
13, 474750, Note_on_c, 12, 29, 0
13, 477600, Note_on_c, 12, 44, 50
13, 478080, Note_on_c, 12, 41, 50
13, 478110, Note_on_c, 12, 44, 0
13, 478560, Note_on_c, 12, 38, 50
13, 478590, Note_on_c, 12, 41, 0
13, 479040, Note_on_c, 12, 35, 50
13, 479070, Note_on_c, 12, 38, 0
13, 479520, Note_on_c, 12, 32, 50
13, 479550, Note_on_c, 12, 35, 0
13, 480000, Note_on_c, 12, 31, 50
13, 480030, Note_on_c, 12, 32, 0
13, 480390, Note_on_c, 12, 31, 0
13, 480480, Note_on_c, 12, 49, 50
13, 480960, Note_on_c, 12, 46, 50
13, 480990, Note_on_c, 12, 49, 0
13, 481440, Note_on_c, 12, 43, 50
13, 481470, Note_on_c, 12, 46, 0
13, 481920, Note_on_c, 12, 40, 50
13, 481950, Note_on_c, 12, 43, 0
13, 482400, Note_on_c, 12, 37, 50
13, 482430, Note_on_c, 12, 40, 0
13, 482880, Note_on_c, 12, 36, 50
13, 482910, Note_on_c, 12, 37, 0
13, 483270, Note_on_c, 12, 36, 0
13, 483354, Control_c, 12, 11, 40
13, 483360, Note_on_c, 12, 34, 100
13, 483840, Note_on_c, 12, 33, 100
13, 483870, Note_on_c, 12, 34, 0
13, 485510, Control_c, 12, 11, 41
13, 485570, Control_c, 12, 11, 43
13, 485630, Control_c, 12, 11, 44
13, 485690, Control_c, 12, 11, 45
13, 485740, Control_c, 12, 11, 47
13, 485800, Control_c, 12, 11, 48
13, 485860, Control_c, 12, 11, 49
13, 485920, Control_c, 12, 11, 51
13, 485970, Control_c, 12, 11, 52
13, 486030, Control_c, 12, 11, 53
13, 486090, Control_c, 12, 11, 55
13, 486150, Control_c, 12, 11, 56
13, 486200, Control_c, 12, 11, 57
13, 486260, Control_c, 12, 11, 59
13, 486320, Control_c, 12, 11, 60
13, 486380, Control_c, 12, 11, 62
13, 486430, Control_c, 12, 11, 63
13, 486490, Control_c, 12, 11, 64
13, 486550, Control_c, 12, 11, 66
13, 486610, Control_c, 12, 11, 67
13, 486660, Control_c, 12, 11, 68
13, 486720, Control_c, 12, 11, 70
13, 486780, Control_c, 12, 11, 71
13, 486840, Control_c, 12, 11, 73
13, 486890, Control_c, 12, 11, 74
13, 486950, Control_c, 12, 11, 75
13, 487010, Control_c, 12, 11, 77
13, 487070, Control_c, 12, 11, 78
13, 487120, Control_c, 12, 11, 79
13, 487180, Control_c, 12, 11, 81
13, 487240, Control_c, 12, 11, 82
13, 487300, Control_c, 12, 11, 83
13, 487350, Control_c, 12, 11, 85
13, 487410, Control_c, 12, 11, 86
13, 487470, Control_c, 12, 11, 87
13, 487530, Control_c, 12, 11, 89
13, 487580, Control_c, 12, 11, 90
13, 487640, Control_c, 12, 11, 92
13, 487700, Control_c, 12, 11, 93
13, 487760, Control_c, 12, 11, 94
13, 487810, Control_c, 12, 11, 96
13, 487870, Control_c, 12, 11, 97
13, 487930, Control_c, 12, 11, 98
13, 487990, Control_c, 12, 11, 100
13, 488040, Control_c, 12, 11, 101
13, 488100, Control_c, 12, 11, 102
13, 488160, Control_c, 12, 11, 104
13, 488220, Control_c, 12, 11, 105
13, 488270, Control_c, 12, 11, 106
13, 488330, Control_c, 12, 11, 108
13, 488390, Control_c, 12, 11, 109
13, 488450, Control_c, 12, 11, 111
13, 488500, Control_c, 12, 11, 112
13, 488560, Control_c, 12, 11, 113
13, 488620, Control_c, 12, 11, 115
13, 488680, Control_c, 12, 11, 116
13, 488730, Control_c, 12, 11, 117
13, 488790, Control_c, 12, 11, 119
13, 488850, Control_c, 12, 11, 120
13, 488910, Control_c, 12, 11, 122
13, 488960, Control_c, 12, 11, 123
13, 489020, Control_c, 12, 11, 124
13, 489030, Note_on_c, 12, 33, 0
13, 489080, Control_c, 12, 11, 126
13, 489110, Control_c, 12, 11, 127
13, 489120, Note_on_c, 12, 34, 100
13, 489594, Control_c, 12, 11, 40
13, 489600, Note_on_c, 12, 33, 100
13, 489630, Note_on_c, 12, 34, 0
13, 489670, Control_c, 12, 11, 41
13, 489730, Control_c, 12, 11, 42
13, 489790, Control_c, 12, 11, 43
13, 489850, Control_c, 12, 11, 44
13, 489910, Control_c, 12, 11, 45
13, 489970, Control_c, 12, 11, 46
13, 490030, Control_c, 12, 11, 47
13, 490090, Control_c, 12, 11, 48
13, 490150, Control_c, 12, 11, 49
13, 490210, Control_c, 12, 11, 50
13, 490270, Control_c, 12, 11, 51
13, 490330, Control_c, 12, 11, 52
13, 490390, Control_c, 12, 11, 53
13, 490450, Control_c, 12, 11, 54
13, 490520, Control_c, 12, 11, 55
13, 490580, Control_c, 12, 11, 56
13, 490640, Control_c, 12, 11, 57
13, 490700, Control_c, 12, 11, 58
13, 490760, Control_c, 12, 11, 59
13, 490820, Control_c, 12, 11, 60
13, 490880, Control_c, 12, 11, 61
13, 490940, Control_c, 12, 11, 62
13, 491000, Control_c, 12, 11, 63
13, 491060, Control_c, 12, 11, 64
13, 491120, Control_c, 12, 11, 65
13, 491180, Control_c, 12, 11, 66
13, 491240, Control_c, 12, 11, 67
13, 491300, Control_c, 12, 11, 68
13, 491360, Control_c, 12, 11, 69
13, 491430, Control_c, 12, 11, 70
13, 491490, Control_c, 12, 11, 71
13, 491550, Control_c, 12, 11, 72
13, 491610, Control_c, 12, 11, 73
13, 491670, Control_c, 12, 11, 74
13, 491730, Control_c, 12, 11, 75
13, 491790, Control_c, 12, 11, 76
13, 491850, Control_c, 12, 11, 77
13, 491910, Control_c, 12, 11, 78
13, 491970, Control_c, 12, 11, 79
13, 492030, Control_c, 12, 11, 80
13, 492090, Control_c, 12, 11, 81
13, 492150, Control_c, 12, 11, 82
13, 492210, Control_c, 12, 11, 83
13, 492280, Control_c, 12, 11, 84
13, 492340, Control_c, 12, 11, 85
13, 492400, Control_c, 12, 11, 86
13, 492460, Control_c, 12, 11, 87
13, 492520, Control_c, 12, 11, 88
13, 492580, Control_c, 12, 11, 89
13, 492640, Control_c, 12, 11, 90
13, 492700, Control_c, 12, 11, 91
13, 492760, Control_c, 12, 11, 92
13, 492820, Control_c, 12, 11, 93
13, 492880, Control_c, 12, 11, 94
13, 492940, Control_c, 12, 11, 95
13, 493000, Control_c, 12, 11, 96
13, 493060, Control_c, 12, 11, 97
13, 493120, Control_c, 12, 11, 98
13, 493190, Control_c, 12, 11, 99
13, 493250, Control_c, 12, 11, 100
13, 493310, Control_c, 12, 11, 101
13, 493370, Control_c, 12, 11, 102
13, 493430, Control_c, 12, 11, 103
13, 493490, Control_c, 12, 11, 104
13, 493550, Control_c, 12, 11, 105
13, 493610, Control_c, 12, 11, 106
13, 493670, Control_c, 12, 11, 107
13, 493730, Control_c, 12, 11, 108
13, 493790, Control_c, 12, 11, 109
13, 493850, Control_c, 12, 11, 110
13, 493910, Control_c, 12, 11, 111
13, 493970, Control_c, 12, 11, 112
13, 494040, Control_c, 12, 11, 113
13, 494100, Control_c, 12, 11, 114
13, 494160, Control_c, 12, 11, 115
13, 494220, Control_c, 12, 11, 116
13, 494280, Control_c, 12, 11, 117
13, 494340, Control_c, 12, 11, 118
13, 494400, Control_c, 12, 11, 119
13, 494460, Control_c, 12, 11, 120
13, 494520, Control_c, 12, 11, 121
13, 494580, Control_c, 12, 11, 122
13, 494640, Control_c, 12, 11, 123
13, 494700, Control_c, 12, 11, 124
13, 494760, Control_c, 12, 11, 125
13, 494790, Note_on_c, 12, 33, 0
13, 494820, Control_c, 12, 11, 126
13, 494850, Control_c, 12, 11, 127
13, 494880, Note_on_c, 12, 34, 100
13, 495360, Note_on_c, 12, 33, 80
13, 495390, Note_on_c, 12, 34, 0
13, 495570, Note_on_c, 12, 33, 0
13, 495840, Note_on_c, 12, 41, 70
13, 496710, Note_on_c, 12, 41, 0
13, 496800, Note_on_c, 12, 43, 70
13, 497670, Note_on_c, 12, 43, 0
13, 497760, Note_on_c, 12, 39, 70
13, 497970, Note_on_c, 12, 39, 0
13, 498240, Note_on_c, 12, 41, 70
13, 499350, Note_on_c, 12, 41, 0
13, 499680, Note_on_c, 12, 41, 70
13, 500790, Note_on_c, 12, 41, 0
13, 501120, Note_on_c, 12, 34, 70
13, 501600, Note_on_c, 12, 29, 70
13, 501630, Note_on_c, 12, 34, 0
13, 501810, Note_on_c, 12, 29, 0
13, 502080, Note_on_c, 12, 38, 70
13, 502560, Note_on_c, 12, 34, 70
13, 502590, Note_on_c, 12, 38, 0
13, 502770, Note_on_c, 12, 34, 0
13, 503040, Note_on_c, 12, 41, 70
13, 503520, Note_on_c, 12, 38, 70
13, 503550, Note_on_c, 12, 41, 0
13, 503730, Note_on_c, 12, 38, 0
13, 504000, Note_on_c, 12, 29, 70
13, 506310, Note_on_c, 12, 29, 0
13, 506400, Note_on_c, 12, 29, 70
13, 506790, Note_on_c, 12, 29, 0
13, 506880, Note_on_c, 12, 34, 70
13, 507360, Note_on_c, 12, 29, 70
13, 507390, Note_on_c, 12, 34, 0
13, 507570, Note_on_c, 12, 29, 0
13, 507840, Note_on_c, 12, 38, 70
13, 508320, Note_on_c, 12, 34, 70
13, 508350, Note_on_c, 12, 38, 0
13, 508530, Note_on_c, 12, 34, 0
13, 508800, Note_on_c, 12, 41, 70
13, 509280, Note_on_c, 12, 38, 70
13, 509310, Note_on_c, 12, 41, 0
13, 509490, Note_on_c, 12, 38, 0
13, 509760, Note_on_c, 12, 29, 70
13, 512070, Note_on_c, 12, 29, 0
13, 512160, Note_on_c, 12, 29, 70
13, 512550, Note_on_c, 12, 29, 0
13, 512640, Note_on_c, 12, 34, 70
13, 513690, Note_on_c, 12, 34, 0
13, 514080, Note_on_c, 12, 34, 70
13, 515130, Note_on_c, 12, 34, 0
13, 515520, Note_on_c, 12, 34, 70
13, 515730, Note_on_c, 12, 34, 0
13, 516000, Note_on_c, 12, 34, 70
13, 516210, Note_on_c, 12, 34, 0
13, 516480, Note_on_c, 12, 34, 70
13, 516660, Note_on_c, 12, 34, 0
13, 516960, Note_on_c, 12, 34, 70
13, 517560, Note_on_c, 12, 34, 0
13, 517920, Control_c, 12, 11, 80
13, 538080, Note_on_c, 12, 34, 40
13, 538470, Note_on_c, 12, 34, 0
13, 538560, Note_on_c, 12, 34, 40
13, 538560, Control_c, 12, 11, 80
13, 538600, Control_c, 12, 11, 81
13, 538630, Control_c, 12, 11, 82
13, 538660, Control_c, 12, 11, 83
13, 538690, Control_c, 12, 11, 84
13, 538720, Control_c, 12, 11, 85
13, 538750, Control_c, 12, 11, 86
13, 538780, Control_c, 12, 11, 87
13, 538810, Control_c, 12, 11, 88
13, 538840, Control_c, 12, 11, 89
13, 538870, Control_c, 12, 11, 90
13, 538900, Control_c, 12, 11, 91
13, 538930, Control_c, 12, 11, 92
13, 538960, Control_c, 12, 11, 93
13, 538990, Control_c, 12, 11, 94
13, 539020, Control_c, 12, 11, 95
13, 539060, Control_c, 12, 11, 96
13, 539090, Control_c, 12, 11, 97
13, 539120, Control_c, 12, 11, 98
13, 539150, Control_c, 12, 11, 99
13, 539180, Control_c, 12, 11, 100
13, 539210, Control_c, 12, 11, 101
13, 539240, Control_c, 12, 11, 102
13, 539270, Control_c, 12, 11, 103
13, 539300, Control_c, 12, 11, 104
13, 539330, Control_c, 12, 11, 105
13, 539360, Control_c, 12, 11, 106
13, 539390, Control_c, 12, 11, 107
13, 539420, Control_c, 12, 11, 108
13, 539450, Control_c, 12, 11, 109
13, 539480, Control_c, 12, 11, 110
13, 539510, Control_c, 12, 11, 111
13, 539550, Control_c, 12, 11, 112
13, 539580, Control_c, 12, 11, 113
13, 539610, Control_c, 12, 11, 114
13, 539640, Control_c, 12, 11, 115
13, 539670, Control_c, 12, 11, 116
13, 539700, Control_c, 12, 11, 117
13, 539730, Control_c, 12, 11, 118
13, 539760, Control_c, 12, 11, 119
13, 539790, Control_c, 12, 11, 120
13, 539820, Control_c, 12, 11, 121
13, 539850, Control_c, 12, 11, 122
13, 539880, Control_c, 12, 11, 123
13, 539910, Control_c, 12, 11, 124
13, 539940, Control_c, 12, 11, 125
13, 539970, Control_c, 12, 11, 126
13, 540000, Control_c, 12, 11, 127
13, 540030, Control_c, 12, 11, 126
13, 540060, Control_c, 12, 11, 125
13, 540090, Control_c, 12, 11, 124
13, 540120, Control_c, 12, 11, 123
13, 540150, Control_c, 12, 11, 122
13, 540180, Control_c, 12, 11, 121
13, 540210, Control_c, 12, 11, 120
13, 540240, Control_c, 12, 11, 119
13, 540270, Control_c, 12, 11, 118
13, 540300, Control_c, 12, 11, 117
13, 540330, Control_c, 12, 11, 116
13, 540360, Control_c, 12, 11, 115
13, 540390, Note_on_c, 12, 34, 0
13, 540390, Control_c, 12, 11, 114
13, 540420, Control_c, 12, 11, 113
13, 540450, Control_c, 12, 11, 112
13, 540480, Note_on_c, 12, 34, 40
13, 540480, Control_c, 12, 11, 111
13, 540510, Control_c, 12, 11, 110
13, 540540, Control_c, 12, 11, 109
13, 540570, Control_c, 12, 11, 108
13, 540600, Control_c, 12, 11, 107
13, 540630, Control_c, 12, 11, 106
13, 540660, Control_c, 12, 11, 105
13, 540690, Control_c, 12, 11, 104
13, 540720, Control_c, 12, 11, 103
13, 540750, Control_c, 12, 11, 102
13, 540780, Control_c, 12, 11, 101
13, 540810, Control_c, 12, 11, 100
13, 540840, Control_c, 12, 11, 99
13, 540870, Note_on_c, 12, 34, 0
13, 540870, Control_c, 12, 11, 98
13, 540900, Control_c, 12, 11, 97
13, 540930, Control_c, 12, 11, 96
13, 540960, Note_on_c, 12, 34, 40
13, 540960, Control_c, 12, 11, 95
13, 540990, Control_c, 12, 11, 94
13, 541020, Control_c, 12, 11, 93
13, 541050, Control_c, 12, 11, 92
13, 541080, Control_c, 12, 11, 91
13, 541110, Control_c, 12, 11, 90
13, 541140, Control_c, 12, 11, 89
13, 541170, Control_c, 12, 11, 88
13, 541200, Control_c, 12, 11, 87
13, 541230, Control_c, 12, 11, 86
13, 541260, Control_c, 12, 11, 85
13, 541290, Control_c, 12, 11, 84
13, 541320, Control_c, 12, 11, 83
13, 541350, Note_on_c, 12, 34, 0
13, 541350, Control_c, 12, 11, 82
13, 541380, Control_c, 12, 11, 81
13, 541410, Control_c, 12, 11, 80
13, 541440, Note_on_c, 12, 34, 40
13, 541920, Note_on_c, 12, 34, 0
13, 566880, Program_c, 12, 45
13, 567360, Note_on_c, 12, 29, 100
13, 567810, Note_on_c, 12, 29, 0
13, 573120, Note_on_c, 12, 29, 100
13, 573570, Note_on_c, 12, 29, 0
13, 612000, Program_c, 12, 48
13, 612960, Note_on_c, 12, 46, 70
13, 613350, Note_on_c, 12, 46, 0
13, 613440, Note_on_c, 12, 46, 70
13, 614400, Note_on_c, 12, 44, 70
13, 614430, Note_on_c, 12, 46, 0
13, 614880, Note_on_c, 12, 43, 70
13, 614910, Note_on_c, 12, 44, 0
13, 615840, Note_on_c, 12, 41, 70
13, 615870, Note_on_c, 12, 43, 0
13, 616230, Note_on_c, 12, 41, 0
13, 616320, Note_on_c, 12, 39, 70
13, 616320, Control_c, 12, 11, 80
13, 616380, Control_c, 12, 11, 87
13, 616440, Control_c, 12, 11, 95
13, 616500, Control_c, 12, 11, 102
13, 616620, Control_c, 12, 11, 110
13, 616680, Control_c, 12, 11, 107
13, 616740, Control_c, 12, 11, 106
13, 616800, Control_c, 12, 11, 104
13, 616860, Control_c, 12, 11, 103
13, 616920, Control_c, 12, 11, 101
13, 616980, Control_c, 12, 11, 100
13, 617040, Control_c, 12, 11, 98
13, 617100, Control_c, 12, 11, 97
13, 617160, Control_c, 12, 11, 95
13, 617220, Control_c, 12, 11, 93
13, 617280, Control_c, 12, 11, 92
13, 617340, Control_c, 12, 11, 90
13, 617400, Control_c, 12, 11, 89
13, 617460, Control_c, 12, 11, 87
13, 617520, Control_c, 12, 11, 86
13, 617580, Control_c, 12, 11, 84
13, 617640, Control_c, 12, 11, 82
13, 617700, Control_c, 12, 11, 80
13, 618630, Note_on_c, 12, 39, 0
13, 618720, Note_on_c, 12, 34, 70
13, 619110, Note_on_c, 12, 34, 0
13, 619200, Note_on_c, 12, 29, 70
13, 619650, Note_on_c, 12, 29, 0
13, 620160, Note_on_c, 12, 29, 70
13, 620550, Note_on_c, 12, 29, 0
13, 620640, Note_on_c, 12, 29, 70
13, 621510, Note_on_c, 12, 29, 0
13, 621600, Note_on_c, 12, 29, 70
13, 622080, Note_on_c, 12, 34, 70
13, 622140, Note_on_c, 12, 29, 0
13, 622530, Note_on_c, 12, 34, 0
13, 624480, Note_on_c, 12, 34, 70
13, 624960, Note_on_c, 12, 29, 70
13, 625020, Note_on_c, 12, 34, 0
13, 625410, Note_on_c, 12, 29, 0
13, 627360, Note_on_c, 12, 29, 70
13, 627840, Note_on_c, 12, 34, 70
13, 627900, Note_on_c, 12, 29, 0
13, 628290, Note_on_c, 12, 34, 0
13, 630240, Note_on_c, 12, 34, 58
13, 630720, Note_on_c, 12, 29, 54
13, 630780, Note_on_c, 12, 34, 0
13, 631170, Note_on_c, 12, 29, 0
13, 633120, Note_on_c, 12, 29, 34
13, 633600, Note_on_c, 12, 34, 30
13, 633660, Note_on_c, 12, 29, 0
13, 634050, Note_on_c, 12, 34, 0
13, 635040, Note_on_c, 12, 34, 30
13, 635490, Note_on_c, 12, 34, 0
13, 636480, Note_on_c, 12, 34, 30
13, 636930, Note_on_c, 12, 34, 0
13, 637920, Note_on_c, 12, 34, 30
13, 638370, Note_on_c, 12, 34, 0
13, 639360, Note_on_c, 12, 34, 30
13, 639810, Note_on_c, 12, 34, 0
13, 642720, Note_on_c, 12, 31, 41
13, 643200, Note_on_c, 12, 32, 47
13, 643230, Note_on_c, 12, 31, 0
13, 643410, Note_on_c, 12, 32, 0
13, 643680, Note_on_c, 12, 32, 52
13, 644160, Note_on_c, 12, 33, 58
13, 644190, Note_on_c, 12, 32, 0
13, 644370, Note_on_c, 12, 33, 0
13, 644640, Note_on_c, 12, 29, 64
13, 645120, Note_on_c, 12, 34, 70
13, 645150, Note_on_c, 12, 29, 0
13, 645510, Note_on_c, 12, 34, 0
13, 645600, Note_on_c, 12, 34, 70
13, 646290, Note_on_c, 12, 34, 0
13, 646560, Note_on_c, 12, 34, 70
13, 647250, Note_on_c, 12, 34, 0
13, 647520, Note_on_c, 12, 34, 70
13, 647670, Note_on_c, 12, 34, 0
13, 648000, Note_on_c, 12, 29, 70
13, 648480, Note_on_c, 12, 33, 70
13, 648510, Note_on_c, 12, 29, 0
13, 648690, Note_on_c, 12, 33, 0
13, 648960, Note_on_c, 12, 36, 70
13, 649110, Note_on_c, 12, 36, 0
13, 649440, Note_on_c, 12, 41, 70
13, 650040, Note_on_c, 12, 41, 0
13, 653280, Note_on_c, 12, 42, 50
13, 653760, Note_on_c, 12, 39, 50
13, 653790, Note_on_c, 12, 42, 0
13, 654240, Note_on_c, 12, 36, 50
13, 654270, Note_on_c, 12, 39, 0
13, 654720, Note_on_c, 12, 33, 50
13, 654750, Note_on_c, 12, 36, 0
13, 655200, Note_on_c, 12, 30, 50
13, 655230, Note_on_c, 12, 33, 0
13, 655680, Note_on_c, 12, 29, 50
13, 655710, Note_on_c, 12, 30, 0
13, 656190, Note_on_c, 12, 29, 0
13, 659040, Note_on_c, 12, 44, 50
13, 659520, Note_on_c, 12, 41, 50
13, 659550, Note_on_c, 12, 44, 0
13, 660000, Note_on_c, 12, 38, 50
13, 660030, Note_on_c, 12, 41, 0
13, 660480, Note_on_c, 12, 35, 50
13, 660510, Note_on_c, 12, 38, 0
13, 660960, Note_on_c, 12, 32, 50
13, 660990, Note_on_c, 12, 35, 0
13, 661440, Note_on_c, 12, 31, 50
13, 661470, Note_on_c, 12, 32, 0
13, 661830, Note_on_c, 12, 31, 0
13, 661920, Note_on_c, 12, 49, 50
13, 662400, Note_on_c, 12, 46, 50
13, 662430, Note_on_c, 12, 49, 0
13, 662880, Note_on_c, 12, 43, 50
13, 662910, Note_on_c, 12, 46, 0
13, 663360, Note_on_c, 12, 40, 50
13, 663390, Note_on_c, 12, 43, 0
13, 663840, Note_on_c, 12, 37, 50
13, 663870, Note_on_c, 12, 40, 0
13, 664320, Note_on_c, 12, 36, 50
13, 664350, Note_on_c, 12, 37, 0
13, 664710, Note_on_c, 12, 36, 0
13, 664794, Control_c, 12, 11, 40
13, 664800, Note_on_c, 12, 34, 100
13, 665280, Note_on_c, 12, 33, 100
13, 665310, Note_on_c, 12, 34, 0
13, 666950, Control_c, 12, 11, 41
13, 667010, Control_c, 12, 11, 43
13, 667070, Control_c, 12, 11, 44
13, 667130, Control_c, 12, 11, 45
13, 667180, Control_c, 12, 11, 47
13, 667240, Control_c, 12, 11, 48
13, 667300, Control_c, 12, 11, 49
13, 667360, Control_c, 12, 11, 51
13, 667410, Control_c, 12, 11, 52
13, 667470, Control_c, 12, 11, 53
13, 667530, Control_c, 12, 11, 55
13, 667590, Control_c, 12, 11, 56
13, 667640, Control_c, 12, 11, 57
13, 667700, Control_c, 12, 11, 59
13, 667760, Control_c, 12, 11, 60
13, 667820, Control_c, 12, 11, 62
13, 667870, Control_c, 12, 11, 63
13, 667930, Control_c, 12, 11, 64
13, 667990, Control_c, 12, 11, 66
13, 668050, Control_c, 12, 11, 67
13, 668100, Control_c, 12, 11, 68
13, 668160, Control_c, 12, 11, 70
13, 668220, Control_c, 12, 11, 71
13, 668280, Control_c, 12, 11, 73
13, 668330, Control_c, 12, 11, 74
13, 668390, Control_c, 12, 11, 75
13, 668450, Control_c, 12, 11, 77
13, 668510, Control_c, 12, 11, 78
13, 668560, Control_c, 12, 11, 79
13, 668620, Control_c, 12, 11, 81
13, 668680, Control_c, 12, 11, 82
13, 668740, Control_c, 12, 11, 83
13, 668790, Control_c, 12, 11, 85
13, 668850, Control_c, 12, 11, 86
13, 668910, Control_c, 12, 11, 87
13, 668970, Control_c, 12, 11, 89
13, 669020, Control_c, 12, 11, 90
13, 669080, Control_c, 12, 11, 92
13, 669140, Control_c, 12, 11, 93
13, 669200, Control_c, 12, 11, 94
13, 669250, Control_c, 12, 11, 96
13, 669310, Control_c, 12, 11, 97
13, 669370, Control_c, 12, 11, 98
13, 669430, Control_c, 12, 11, 100
13, 669480, Control_c, 12, 11, 101
13, 669540, Control_c, 12, 11, 102
13, 669600, Control_c, 12, 11, 104
13, 669660, Control_c, 12, 11, 105
13, 669710, Control_c, 12, 11, 106
13, 669770, Control_c, 12, 11, 108
13, 669830, Control_c, 12, 11, 109
13, 669890, Control_c, 12, 11, 111
13, 669940, Control_c, 12, 11, 112
13, 670000, Control_c, 12, 11, 113
13, 670060, Control_c, 12, 11, 115
13, 670120, Control_c, 12, 11, 116
13, 670170, Control_c, 12, 11, 117
13, 670230, Control_c, 12, 11, 119
13, 670290, Control_c, 12, 11, 120
13, 670350, Control_c, 12, 11, 122
13, 670400, Control_c, 12, 11, 123
13, 670460, Control_c, 12, 11, 124
13, 670470, Note_on_c, 12, 33, 0
13, 670520, Control_c, 12, 11, 126
13, 670550, Control_c, 12, 11, 127
13, 670560, Note_on_c, 12, 34, 100
13, 671034, Control_c, 12, 11, 40
13, 671040, Note_on_c, 12, 33, 100
13, 671070, Note_on_c, 12, 34, 0
13, 671110, Control_c, 12, 11, 41
13, 671170, Control_c, 12, 11, 42
13, 671230, Control_c, 12, 11, 43
13, 671290, Control_c, 12, 11, 44
13, 671350, Control_c, 12, 11, 45
13, 671410, Control_c, 12, 11, 46
13, 671470, Control_c, 12, 11, 47
13, 671530, Control_c, 12, 11, 48
13, 671590, Control_c, 12, 11, 49
13, 671650, Control_c, 12, 11, 50
13, 671710, Control_c, 12, 11, 51
13, 671770, Control_c, 12, 11, 52
13, 671830, Control_c, 12, 11, 53
13, 671890, Control_c, 12, 11, 54
13, 671960, Control_c, 12, 11, 55
13, 672020, Control_c, 12, 11, 56
13, 672080, Control_c, 12, 11, 57
13, 672140, Control_c, 12, 11, 58
13, 672200, Control_c, 12, 11, 59
13, 672260, Control_c, 12, 11, 60
13, 672320, Control_c, 12, 11, 61
13, 672380, Control_c, 12, 11, 62
13, 672440, Control_c, 12, 11, 63
13, 672500, Control_c, 12, 11, 64
13, 672560, Control_c, 12, 11, 65
13, 672620, Control_c, 12, 11, 66
13, 672680, Control_c, 12, 11, 67
13, 672740, Control_c, 12, 11, 68
13, 672800, Control_c, 12, 11, 69
13, 672870, Control_c, 12, 11, 70
13, 672930, Control_c, 12, 11, 71
13, 672990, Control_c, 12, 11, 72
13, 673050, Control_c, 12, 11, 73
13, 673110, Control_c, 12, 11, 74
13, 673170, Control_c, 12, 11, 75
13, 673230, Control_c, 12, 11, 76
13, 673290, Control_c, 12, 11, 77
13, 673350, Control_c, 12, 11, 78
13, 673410, Control_c, 12, 11, 79
13, 673470, Control_c, 12, 11, 80
13, 673530, Control_c, 12, 11, 81
13, 673590, Control_c, 12, 11, 82
13, 673650, Control_c, 12, 11, 83
13, 673720, Control_c, 12, 11, 84
13, 673780, Control_c, 12, 11, 85
13, 673840, Control_c, 12, 11, 86
13, 673900, Control_c, 12, 11, 87
13, 673960, Control_c, 12, 11, 88
13, 674020, Control_c, 12, 11, 89
13, 674080, Control_c, 12, 11, 90
13, 674140, Control_c, 12, 11, 91
13, 674200, Control_c, 12, 11, 92
13, 674260, Control_c, 12, 11, 93
13, 674320, Control_c, 12, 11, 94
13, 674380, Control_c, 12, 11, 95
13, 674440, Control_c, 12, 11, 96
13, 674500, Control_c, 12, 11, 97
13, 674560, Control_c, 12, 11, 98
13, 674630, Control_c, 12, 11, 99
13, 674690, Control_c, 12, 11, 100
13, 674750, Control_c, 12, 11, 101
13, 674810, Control_c, 12, 11, 102
13, 674870, Control_c, 12, 11, 103
13, 674930, Control_c, 12, 11, 104
13, 674990, Control_c, 12, 11, 105
13, 675050, Control_c, 12, 11, 106
13, 675110, Control_c, 12, 11, 107
13, 675170, Control_c, 12, 11, 108
13, 675230, Control_c, 12, 11, 109
13, 675290, Control_c, 12, 11, 110
13, 675350, Control_c, 12, 11, 111
13, 675410, Control_c, 12, 11, 112
13, 675480, Control_c, 12, 11, 113
13, 675540, Control_c, 12, 11, 114
13, 675600, Control_c, 12, 11, 115
13, 675660, Control_c, 12, 11, 116
13, 675720, Control_c, 12, 11, 117
13, 675780, Control_c, 12, 11, 118
13, 675840, Control_c, 12, 11, 119
13, 675900, Control_c, 12, 11, 120
13, 675960, Control_c, 12, 11, 121
13, 676020, Control_c, 12, 11, 122
13, 676080, Control_c, 12, 11, 123
13, 676140, Control_c, 12, 11, 124
13, 676200, Control_c, 12, 11, 125
13, 676230, Note_on_c, 12, 33, 0
13, 676260, Control_c, 12, 11, 126
13, 676290, Control_c, 12, 11, 127
13, 676320, Note_on_c, 12, 34, 100
13, 676800, Note_on_c, 12, 33, 80
13, 676830, Note_on_c, 12, 34, 0
13, 677010, Note_on_c, 12, 33, 0
13, 677280, Note_on_c, 12, 41, 70
13, 678150, Note_on_c, 12, 41, 0
13, 678240, Note_on_c, 12, 43, 70
13, 679110, Note_on_c, 12, 43, 0
13, 679200, Note_on_c, 12, 39, 70
13, 679410, Note_on_c, 12, 39, 0
13, 679680, Note_on_c, 12, 41, 70
13, 680790, Note_on_c, 12, 41, 0
13, 681120, Note_on_c, 12, 41, 70
13, 682230, Note_on_c, 12, 41, 0
13, 682560, Note_on_c, 12, 34, 70
13, 683040, Note_on_c, 12, 29, 70
13, 683070, Note_on_c, 12, 34, 0
13, 683250, Note_on_c, 12, 29, 0
13, 683520, Note_on_c, 12, 38, 70
13, 684000, Note_on_c, 12, 34, 70
13, 684030, Note_on_c, 12, 38, 0
13, 684210, Note_on_c, 12, 34, 0
13, 684480, Note_on_c, 12, 41, 70
13, 684960, Note_on_c, 12, 38, 70
13, 684990, Note_on_c, 12, 41, 0
13, 685170, Note_on_c, 12, 38, 0
13, 685440, Note_on_c, 12, 29, 70
13, 687750, Note_on_c, 12, 29, 0
13, 687840, Note_on_c, 12, 29, 70
13, 688230, Note_on_c, 12, 29, 0
13, 688320, Note_on_c, 12, 34, 70
13, 688800, Note_on_c, 12, 29, 70
13, 688830, Note_on_c, 12, 34, 0
13, 689010, Note_on_c, 12, 29, 0
13, 689280, Note_on_c, 12, 38, 70
13, 689760, Note_on_c, 12, 34, 70
13, 689790, Note_on_c, 12, 38, 0
13, 689970, Note_on_c, 12, 34, 0
13, 690240, Note_on_c, 12, 41, 70
13, 690720, Note_on_c, 12, 38, 70
13, 690750, Note_on_c, 12, 41, 0
13, 690930, Note_on_c, 12, 38, 0
13, 691200, Note_on_c, 12, 29, 70
13, 693510, Note_on_c, 12, 29, 0
13, 693600, Note_on_c, 12, 29, 70
13, 693990, Note_on_c, 12, 29, 0
13, 694080, Note_on_c, 12, 34, 70
13, 695130, Note_on_c, 12, 34, 0
13, 695520, Note_on_c, 12, 34, 70
13, 696570, Note_on_c, 12, 34, 0
13, 696960, Note_on_c, 12, 34, 70
13, 697170, Note_on_c, 12, 34, 0
13, 697440, Note_on_c, 12, 34, 70
13, 697650, Note_on_c, 12, 34, 0
13, 697920, Note_on_c, 12, 34, 70
13, 698100, Note_on_c, 12, 34, 0
13, 698400, Note_on_c, 12, 34, 70
13, 699000, Note_on_c, 12, 34, 0
13, 702720, Note_on_c, 12, 34, 100
13, 703170, Note_on_c, 12, 34, 0
13, 703170, End_track
14, 0, Start_track
14, 0, Title_t, "Inits   "
14, 0, Instrument_name_t, "Controlli :-)"
14, 0, System_exclusive, 0A, 41, 10, 42, 12, 40, 00, 7F, 00, 41, F7
14, 2, System_exclusive, 0A, 41, 10, 42, 12, 40, 01, 30, 03, 0C, F7
14, 5, System_exclusive, 19, 41, 10, 42, 12, 40, 01, 10, 00, 02, 02, 01, 01, 02, 01, 02, 04, 04, 03, 01, 01, 00, 00, 00, 17, F7
14, 7, Program_c, 0, 73
14, 10, Control_c, 0, 7, 127
14, 33, Control_c, 0, 10, 55
14, 58, Control_c, 0, 91, 127
14, 83, Control_c, 0, 93, 18
14, 86, Control_c, 0, 99, 1
14, 91, Control_c, 0, 98, 100
14, 96, Control_c, 0, 6, 114
14, 167, Program_c, 1, 70
14, 170, Control_c, 1, 7, 127
14, 193, Control_c, 1, 10, 60
14, 218, Control_c, 1, 91, 127
14, 243, Control_c, 1, 93, 13
14, 251, Control_c, 1, 99, 1
14, 256, Control_c, 1, 98, 100
14, 261, Control_c, 1, 6, 114
14, 290, Program_c, 2, 71
14, 292, Control_c, 2, 7, 127
14, 316, Control_c, 2, 10, 50
14, 341, Control_c, 2, 91, 127
14, 366, Control_c, 2, 93, 24
14, 375, Program_c, 3, 70
14, 377, Control_c, 3, 7, 127
14, 401, Control_c, 3, 10, 67
14, 426, Control_c, 3, 91, 127
14, 451, Control_c, 3, 93, 21
14, 460, Program_c, 4, 60
14, 462, Control_c, 4, 7, 127
14, 486, Control_c, 4, 10, 81
14, 511, Control_c, 4, 91, 127
14, 536, Control_c, 4, 93, 32
14, 545, Program_c, 5, 56
14, 547, Control_c, 5, 7, 127
14, 571, Control_c, 5, 10, 51
14, 596, Control_c, 5, 91, 127
14, 621, Control_c, 5, 93, 18
14, 630, Program_c, 6, 47
14, 632, Control_c, 6, 7, 127
14, 656, Control_c, 6, 10, 61
14, 681, Control_c, 6, 91, 127
14, 696, Program_c, 7, 48
14, 698, Control_c, 7, 7, 127
14, 706, Control_c, 6, 93, 18
14, 722, Control_c, 7, 10, 18
14, 747, Control_c, 7, 91, 127
14, 772, Control_c, 7, 93, 27
14, 800, Program_c, 8, 48
14, 802, Control_c, 8, 7, 127
14, 826, Control_c, 8, 10, 43
14, 851, Control_c, 8, 91, 127
14, 876, Control_c, 8, 93, 20
14, 885, Program_c, 10, 48
14, 887, Control_c, 10, 7, 127
14, 911, Control_c, 10, 10, 95
14, 936, Control_c, 10, 91, 127
14, 961, Control_c, 10, 93, 25
14, 970, Program_c, 11, 48
14, 972, Control_c, 11, 7, 127
14, 996, Control_c, 11, 10, 118
14, 1021, Control_c, 11, 91, 127
14, 1046, Control_c, 11, 93, 17
14, 1055, Program_c, 12, 48
14, 1057, Control_c, 12, 7, 127
14, 1081, Control_c, 12, 10, 90
14, 1106, Control_c, 12, 91, 127
14, 1131, Control_c, 12, 93, 27
14, 1657, Control_c, 0, 11, 80
14, 1707, Control_c, 1, 11, 80
14, 1757, Control_c, 2, 11, 80
14, 1807, Control_c, 3, 11, 80
14, 1857, Control_c, 4, 11, 80
14, 1907, Control_c, 5, 11, 80
14, 1957, Control_c, 6, 11, 127
14, 1988, Control_c, 7, 11, 127
14, 2057, Control_c, 8, 11, 127
14, 2107, Control_c, 10, 11, 127
14, 2157, Control_c, 11, 11, 80
14, 2207, Control_c, 12, 11, 80
14, 2400, Control_c, 7, 99, 1
14, 2405, Control_c, 7, 98, 99
14, 2410, Control_c, 7, 6, 59
14, 2415, Control_c, 8, 99, 1
14, 2420, Control_c, 8, 98, 99
14, 2425, Control_c, 8, 6, 59
14, 2430, Control_c, 10, 99, 1
14, 2435, Control_c, 10, 98, 99
14, 2440, Control_c, 10, 6, 59
14, 2450, Control_c, 11, 99, 1
14, 2455, Control_c, 11, 98, 99
14, 2460, Control_c, 11, 6, 59
14, 2465, Control_c, 12, 99, 1
14, 2470, Control_c, 12, 98, 99
14, 2475, Control_c, 12, 6, 59
14, 2475, End_track
15, 0, Start_track
15, 0, Channel_prefix, 15
15, 0, Title_t, "L. v. Beethoven:"
15, 0, Instrument_name_t, "M Cha16 "
15, 0, Text_t, "Ludwig van Beethoven (1770 - 1827)"
15, 6720, Text_t, " "
15, 6720, End_track
16, 0, Start_track
16, 0, Channel_prefix, 15
16, 0, Title_t, "Symph. No. 4; 3rd Mvmt."
16, 0, Instrument_name_t, "M Cha16 "
16, 0, Text_t, "Symphony No. 4 ( Bb major), Op. 60, 3rd Movement"
16, 6720, Text_t, " "
16, 6720, End_track
17, 0, Start_track
17, 0, Channel_prefix, 15
17, 0, Title_t, "Menuetto. Allegro vivace"
17, 0, Instrument_name_t, "M Cha16 "
17, 0, Text_t, """Menuetto"". Allegro vivace"
17, 6720, Text_t, " "
17, 6720, End_track
18, 0, Start_track
18, 0, Channel_prefix, 15
18, 0, Title_t, "Trio. Un poco meno allegro"
18, 0, Instrument_name_t, "M Cha16 "
18, 0, Text_t, "Trio. Un poco meno allegro"
18, 6720, Text_t, " "
18, 6720, End_track
19, 0, Start_track
19, 0, Channel_prefix, 15
19, 0, Title_t, "Sequenced by H.-J. Roeder"
19, 0, Instrument_name_t, "M Cha16 "
19, 0, Text_t, "sequenced by Hans-Joachim Roeder (roeder@fmi.uni-passau.de)   1996"
19, 6720, Text_t, " "
19, 6720, End_track
0, 0, End_of_file