0, 0, Header, 1, 19, 120
1, 0, Start_track
1, 0, Title_t, "Leonore 1 op 138"
1, 0, Title_t, "Ouverture N\2601 for Fidelio"
1, 0, Copyright_t, "Copyright \251 2001 by J.F. Lucarelli - j-f.lucarelli@infonie.be  --  http://perso.infonie.fr/espace-midi"
1, 0, Text_t, "L. Van Beethoven (1770-1827)"
1, 0, Text_t, "Tempo sup\351rieur \340 250 : adapter le tempo avant publication MIDI\012"
1, 0, Text_t, "Partition compl\350te - dur\351e : 00:09:41\012"
1, 0, Text_t, "D\351but du travail : 22 novembre 2000\012"
1, 0, Text_t, "Fin de la version 0 : 7 janvier 2001\012"
1, 0, Text_t, "Version 1.0 : 30 janvier 2001\012"
1, 0, Text_t, "Version 1.01 : 4 ao\373t 2001 : r\351vision avant publication\012"
1, 0, Text_t, "Version 2.0 : 16 octobre 2001 : r\351vision g\351n\351rale\012"
1, 0, Text_t, "Dur\351e d'\351dition et d'audition : 26 h\012"
1, 0, Text_t, "-----\012"
1, 0, Text_t, "Full score - length : 00:09:41\012"
1, 0, Text_t, "Beginning of writing : 22th November 2000\012"
1, 0, Text_t, "End of version 0 : 7th January 2001\012"
1, 0, Text_t, "Version 1.0 : 30th January 2001\012"
1, 0, Text_t, "Version 1.01 : 4th August 2001 : revision before publication\012"
1, 0, Text_t, "Version 2.0 : 16th October 2001 : general revision\012"
1, 0, Text_t, "Editing and audition time : 26 h\012"
1, 0, Time_signature, 4, 2, 24, 8
1, 0, Key_signature, 0, "major"
1, 0, Tempo, 428571
1, 0, Marker_t, "L. Van Beethoven : Ouverture Leonore N\2601"
1, 480, Tempo, 1052631
1, 480, Marker_t, "Andante con moto"
1, 810, Tempo, 3750000
1, 840, Tempo, 1000000
1, 1320, Tempo, 1052631
1, 1410, Tempo, 1250000
1, 1440, Tempo, 1034482
1, 2370, Tempo, 1224489
1, 2400, Tempo, 1132075
1, 2520, Tempo, 983606
1, 2760, Tempo, 1090909
1, 2850, Tempo, 1250000
1, 2880, Tempo, 1052631
1, 3120, Tempo, 1090909
1, 3360, Tempo, 1153846
1, 3480, Tempo, 1090909
1, 3570, Tempo, 1250000
1, 3585, Tempo, 1428571
1, 3600, Tempo, 1071428
1, 3825, Tempo, 1578947
1, 3840, Tempo, 1224489
1, 4170, Tempo, 3750000
1, 4200, Tempo, 1000000
1, 4680, Tempo, 1052631
1, 4770, Tempo, 1200000
1, 4785, Tempo, 1463414
1, 4800, Tempo, 1000000
1, 5145, Tempo, 3333333
1, 5160, Tempo, 983606
1, 5640, Tempo, 1034482
1, 5730, Tempo, 1250000
1, 5760, Tempo, 1428571
1, 5790, Tempo, 983606
1, 5910, Tempo, 882352
1, 7080, Tempo, 952380
1, 7200, Tempo, 1090909
1, 7230, Tempo, 882352
1, 7320, Tempo, 909090
1, 7440, Tempo, 967741
1, 7500, Tempo, 1052631
1, 7560, Tempo, 1176470
1, 7665, Tempo, 2000000
1, 7680, Tempo, 1395348
1, 7710, Tempo, 967741
1, 7830, Tempo, 869565
1, 9000, Tempo, 923076
1, 9120, Tempo, 1071428
1, 9150, Tempo, 869565
1, 9240, Tempo, 909090
1, 9360, Tempo, 952380
1, 9480, Tempo, 1000000
1, 9570, Tempo, 1333333
1, 9600, Tempo, 1395348
1, 9630, Tempo, 1016949
1, 9750, Tempo, 895522
1, 9930, Tempo, 1034482
1, 9960, Tempo, 895522
1, 10560, Tempo, 895522
1, 10680, Tempo, 923076
1, 10800, Tempo, 952380
1, 10920, Tempo, 1000000
1, 10980, Tempo, 1090909
1, 11040, Tempo, 1250000
1, 11070, Tempo, 1132075
1, 11100, Tempo, 1052631
1, 11160, Tempo, 1176470
1, 11190, Tempo, 1016949
1, 11280, Tempo, 1176470
1, 11310, Tempo, 983606
1, 11400, Tempo, 1176470
1, 11430, Tempo, 983606
1, 11520, Tempo, 1176470
1, 11550, Tempo, 1034482
1, 11960, Tempo, 1463414
1, 12000, Tempo, 1052631
1, 12450, Tempo, 1304347
1, 12480, Tempo, 1052631
1, 12560, Tempo, 1224489
1, 12600, Tempo, 1034482
1, 12680, Tempo, 1200000
1, 12720, Tempo, 1052631
1, 12800, Tempo, 1224489
1, 12840, Tempo, 1090909
1, 12920, Tempo, 1276595
1, 12940, Tempo, 1500000
1, 12960, Tempo, 1090909
1, 13160, Tempo, 1224489
1, 13200, Tempo, 1071428
1, 13400, Tempo, 1224489
1, 13440, Tempo, 1090909
1, 13640, Tempo, 1224489
1, 13680, Tempo, 1071428
1, 13880, Tempo, 1224489
1, 13920, Tempo, 1090909
1, 14120, Tempo, 1224489
1, 14160, Tempo, 1071428
1, 14360, Tempo, 1224489
1, 14400, Tempo, 1071428
1, 14620, Tempo, 1621621
1, 14640, Tempo, 1153846
1, 14880, Tempo, 1176470
1, 15080, Tempo, 1363636
1, 15120, Tempo, 1200000
1, 15320, Tempo, 1304347
1, 15360, Tempo, 1224489
1, 15600, Tempo, 1333333
1, 15630, Tempo, 1224489
1, 15720, Tempo, 1250000
1, 15760, Tempo, 1395348
1, 15800, Tempo, 1578947
1, 15820, Tempo, 1764705
1, 15840, Tempo, 1276595
1, 15960, Tempo, 1153846
1, 17240, Tempo, 1276595
1, 17280, Tempo, 1176470
1, 17520, Tempo, 1250000
1, 17720, Tempo, 1428571
1, 17760, Tempo, 1276595
1, 17850, Tempo, 1666666
1, 17880, Tempo, 1276595
1, 17970, Tempo, 1132075
1, 18000, Tempo, 1034482
1, 18120, Tempo, 952380
1, 18240, Tempo, 923076
1, 18480, Tempo, 895522
1, 18720, Tempo, 821917
1, 18960, Tempo, 937500
1, 19080, Tempo, 769230
1, 19140, Tempo, 521739
1, 19200, Tempo, 750000
1, 19320, Tempo, 722891
1, 19440, Tempo, 705882
1, 19560, Tempo, 697674
1, 19680, Tempo, 681818
1, 19800, Tempo, 666666
1, 19920, Tempo, 652173
1, 20040, Tempo, 638297
1, 20160, Time_signature, 2, 1, 48, 8
1, 20160, Tempo, 301507
1, 20160, Marker_t, "Allegro con brio"
1, 20280, Tempo, 275229
1, 20400, Tempo, 295566
1, 20520, Tempo, 273972
1, 20640, Tempo, 292682
1, 20760, Tempo, 270270
1, 20880, Tempo, 289855
1, 21000, Tempo, 267857
1, 21120, Tempo, 287081
1, 21240, Tempo, 263157
1, 21360, Tempo, 284360
1, 21480, Tempo, 270270
1, 21600, Tempo, 276497
1, 22080, Tempo, 273972
1, 22560, Tempo, 269058
1, 23040, Tempo, 263157
1, 23520, Tempo, 258620
1, 24000, Tempo, 254237
1, 24480, Tempo, 252100
1, 24960, Tempo, 250000
1, 25440, Tempo, 246913
1, 25920, Tempo, 242914
1, 26400, Tempo, 240000
1, 26880, Tempo, 236220
1, 27840, Tempo, 239043
1, 28080, Tempo, 217391
1, 28320, Tempo, 239043
1, 28560, Tempo, 217391
1, 28800, Tempo, 239043
1, 29040, Tempo, 217391
1, 29280, Tempo, 239043
1, 29520, Tempo, 217391
1, 29760, Tempo, 239043
1, 30000, Tempo, 217391
1, 30240, Tempo, 239043
1, 30480, Tempo, 217391
1, 30720, Tempo, 239043
1, 30960, Tempo, 217391
1, 31200, Tempo, 239043
1, 31440, Tempo, 217391
1, 31680, Tempo, 239043
1, 31920, Tempo, 217391
1, 32160, Tempo, 239043
1, 32400, Tempo, 217391
1, 32640, Tempo, 239043
1, 32880, Tempo, 217391
1, 33120, Tempo, 239043
1, 33360, Tempo, 217391
1, 33600, Tempo, 239043
1, 33840, Tempo, 217391
1, 34080, Tempo, 239043
1, 34320, Tempo, 217391
1, 34560, Tempo, 239043
1, 34800, Tempo, 217391
1, 35040, Tempo, 239043
1, 35160, Tempo, 263157
1, 35280, Tempo, 225563
1, 35520, Tempo, 239043
1, 35760, Tempo, 225563
1, 36000, Tempo, 239043
1, 36240, Tempo, 225563
1, 36480, Tempo, 239043
1, 36720, Tempo, 225563
1, 36960, Tempo, 239043
1, 37200, Tempo, 225563
1, 37440, Tempo, 239043
1, 37680, Tempo, 225563
1, 37920, Tempo, 239043
1, 38160, Tempo, 225563
1, 38400, Tempo, 239043
1, 38640, Tempo, 263157
1, 38700, Tempo, 219780
1, 38880, Tempo, 239043
1, 39120, Tempo, 217391
1, 39360, Tempo, 239043
1, 39600, Tempo, 217391
1, 39840, Tempo, 239043
1, 40080, Tempo, 217391
1, 40320, Tempo, 239043
1, 40560, Tempo, 217391
1, 40800, Tempo, 239043
1, 41040, Tempo, 217391
1, 41280, Tempo, 239043
1, 41520, Tempo, 217391
1, 41760, Tempo, 239043
1, 42000, Tempo, 217391
1, 42240, Tempo, 239043
1, 42480, Tempo, 217391
1, 42720, Tempo, 239043
1, 42960, Tempo, 217391
1, 43200, Tempo, 239043
1, 43440, Tempo, 217391
1, 43680, Tempo, 239043
1, 43920, Tempo, 217391
1, 44160, Tempo, 239043
1, 44400, Tempo, 217391
1, 44640, Tempo, 239043
1, 44880, Tempo, 217391
1, 45120, Tempo, 239043
1, 45360, Tempo, 217391
1, 45600, Tempo, 239043
1, 45840, Tempo, 217391
1, 46080, Tempo, 239043
1, 46320, Tempo, 225563
1, 46560, Tempo, 239043
1, 46800, Tempo, 225563
1, 47040, Tempo, 239043
1, 47280, Tempo, 225563
1, 47520, Tempo, 239043
1, 47760, Tempo, 225563
1, 48000, Tempo, 263157
1, 48120, Tempo, 240000
1, 48240, Tempo, 225563
1, 48480, Tempo, 239043
1, 48720, Tempo, 225563
1, 48960, Tempo, 239043
1, 49200, Tempo, 225563
1, 49440, Tempo, 239043
1, 49680, Tempo, 225563
1, 49920, Tempo, 263157
1, 50040, Tempo, 240000
1, 50160, Tempo, 225563
1, 50400, Tempo, 239043
1, 50640, Tempo, 225563
1, 50880, Tempo, 239043
1, 51120, Tempo, 225563
1, 51360, Tempo, 239043
1, 51600, Tempo, 225563
1, 51840, Tempo, 239043
1, 52080, Tempo, 225563
1, 52320, Tempo, 239043
1, 52560, Tempo, 225563
1, 52800, Tempo, 239043
1, 53040, Tempo, 225563
1, 53280, Tempo, 239043
1, 53520, Tempo, 225563
1, 53760, Tempo, 239043
1, 54000, Tempo, 225563
1, 54240, Tempo, 239043
1, 54480, Tempo, 225563
1, 54720, Tempo, 239043
1, 54960, Tempo, 225563
1, 55200, Tempo, 239043
1, 55440, Tempo, 225563
1, 55680, Tempo, 239043
1, 55920, Tempo, 225563
1, 56160, Tempo, 239043
1, 56400, Tempo, 225563
1, 56640, Tempo, 239043
1, 57360, Tempo, 225563
1, 57600, Tempo, 239043
1, 57840, Tempo, 225563
1, 58080, Tempo, 239043
1, 58320, Tempo, 225563
1, 58560, Tempo, 239043
1, 59280, Tempo, 225563
1, 59520, Tempo, 239043
1, 59760, Tempo, 225563
1, 60000, Tempo, 239043
1, 60240, Tempo, 225563
1, 60480, Tempo, 239043
1, 60720, Tempo, 225563
1, 60960, Tempo, 239043
1, 61200, Tempo, 225563
1, 61440, Tempo, 239043
1, 61680, Tempo, 225563
1, 61920, Tempo, 239043
1, 62160, Tempo, 225563
1, 62400, Tempo, 239043
1, 62640, Tempo, 225563
1, 62880, Tempo, 239043
1, 63120, Tempo, 225563
1, 63330, Tempo, 315789
1, 63360, Tempo, 239043
1, 63600, Tempo, 217391
1, 63840, Tempo, 239043
1, 64080, Tempo, 217391
1, 64320, Tempo, 239043
1, 64560, Tempo, 217391
1, 64800, Tempo, 239043
1, 65040, Tempo, 217391
1, 65280, Tempo, 239043
1, 65520, Tempo, 217391
1, 65760, Tempo, 239043
1, 66000, Tempo, 217391
1, 66240, Tempo, 239043
1, 66480, Tempo, 217391
1, 66720, Tempo, 239043
1, 66960, Tempo, 217391
1, 67200, Tempo, 239043
1, 67440, Tempo, 217391
1, 67680, Tempo, 239043
1, 67920, Tempo, 217391
1, 68160, Tempo, 239043
1, 68400, Tempo, 217391
1, 68610, Tempo, 287081
1, 68640, Tempo, 239043
1, 68880, Tempo, 217391
1, 69120, Tempo, 239043
1, 69360, Tempo, 217391
1, 69600, Tempo, 239043
1, 69840, Tempo, 217391
1, 70080, Tempo, 239043
1, 70320, Tempo, 217391
1, 70560, Tempo, 239043
1, 70800, Tempo, 217391
1, 71040, Tempo, 239043
1, 71280, Tempo, 217391
1, 71520, Tempo, 239043
1, 71760, Tempo, 217391
1, 72000, Tempo, 239043
1, 72240, Tempo, 217391
1, 72480, Tempo, 239043
1, 72720, Tempo, 217391
1, 72960, Tempo, 239043
1, 73200, Tempo, 217391
1, 73440, Tempo, 239043
1, 73680, Tempo, 217391
1, 73860, Tempo, 263157
1, 73920, Tempo, 231660
1, 74040, Tempo, 242914
1, 74160, Tempo, 223048
1, 74280, Tempo, 234375
1, 74400, Tempo, 231660
1, 74520, Tempo, 242914
1, 74640, Tempo, 223048
1, 74760, Tempo, 234375
1, 74880, Tempo, 239043
1, 75120, Tempo, 217391
1, 75360, Tempo, 239043
1, 75600, Tempo, 217391
1, 75840, Tempo, 239043
1, 76080, Tempo, 217391
1, 76320, Tempo, 239043
1, 76560, Tempo, 217391
1, 76800, Tempo, 239043
1, 77040, Tempo, 217391
1, 77280, Tempo, 239043
1, 77520, Tempo, 217391
1, 77760, Tempo, 239043
1, 78000, Tempo, 217391
1, 78240, Tempo, 239043
1, 78480, Tempo, 217391
1, 78720, Tempo, 239043
1, 78960, Tempo, 217391
1, 79200, Tempo, 239043
1, 79440, Tempo, 217391
1, 79680, Tempo, 239043
1, 79920, Tempo, 217391
1, 80160, Tempo, 239043
1, 80400, Tempo, 217391
1, 80640, Tempo, 239043
1, 80880, Tempo, 217391
1, 81120, Tempo, 239043
1, 81360, Tempo, 217391
1, 81540, Tempo, 287081
1, 81600, Tempo, 242914
1, 81840, Tempo, 221402
1, 82080, Tempo, 243902
1, 82320, Tempo, 227272
1, 82560, Tempo, 251046
1, 82800, Tempo, 233463
1, 83040, Tempo, 251046
1, 83280, Tempo, 233463
1, 83520, Tempo, 251046
1, 83760, Tempo, 233463
1, 84000, Tempo, 251046
1, 84240, Tempo, 233463
1, 84480, Tempo, 251046
1, 84720, Tempo, 233463
1, 84840, Tempo, 242914
1, 84960, Tempo, 263157
1, 85200, Tempo, 256410
1, 85320, Tempo, 264317
1, 85440, Tempo, 300000
1, 85560, Tempo, 526315
1, 85680, Tempo, 1578947
1, 85890, Tempo, 3157894
1, 85920, Tempo, 618556
1, 86370, Tempo, 1578947
1, 86400, Tempo, 689655
1, 86850, Tempo, 3000000
1, 86880, Time_signature, 3, 2, 24, 8
1, 86880, Key_signature, -3, "major"
1, 86880, Tempo, 1764705
1, 86880, Marker_t, "Adagio ma non troppo"
1, 86970, Tempo, 2500000
1, 87000, Tempo, 1500000
1, 87210, Tempo, 1714285
1, 87240, Tempo, 1538461
1, 87570, Tempo, 1666666
1, 87600, Tempo, 1538461
1, 87825, Tempo, 1935483
1, 87840, Tempo, 1500000
1, 87960, Tempo, 1578947
1, 88290, Tempo, 1764705
1, 88320, Tempo, 1578947
1, 88560, Tempo, 1666666
1, 88665, Tempo, 2068965
1, 88680, Tempo, 1764705
1, 88710, Tempo, 1578947
1, 88800, Tempo, 1621621
1, 88920, Tempo, 1714285
1, 88965, Tempo, 1875000
1, 88980, Tempo, 1538461
1, 89010, Tempo, 1666666
1, 89025, Tempo, 2307692
1, 89040, Tempo, 1666666
1, 89385, Tempo, 2068965
1, 89400, Tempo, 1666666
1, 89745, Tempo, 2068965
1, 89760, Tempo, 1578947
1, 90105, Tempo, 2068965
1, 90120, Tempo, 1621621
1, 90450, Tempo, 1666666
1, 90480, Tempo, 1935483
1, 90495, Tempo, 1500000
1, 90585, Tempo, 1714285
1, 90600, Tempo, 1935483
1, 90615, Tempo, 1500000
1, 90705, Tempo, 2068965
1, 90720, Tempo, 2500000
1, 90735, Tempo, 1500000
1, 90825, Tempo, 2142857
1, 90855, Tempo, 1500000
1, 91170, Tempo, 1818181
1, 91200, Tempo, 1500000
1, 91530, Tempo, 1666666
1, 91560, Tempo, 1935483
1, 91575, Tempo, 1500000
1, 91665, Tempo, 1714285
1, 91680, Tempo, 1935483
1, 91695, Tempo, 1500000
1, 91785, Tempo, 2068965
1, 91800, Tempo, 2500000
1, 91815, Tempo, 1500000
1, 91905, Tempo, 2142857
1, 91935, Tempo, 1500000
1, 92250, Tempo, 1818181
1, 92280, Tempo, 1578947
1, 94080, Tempo, 1621621
1, 94320, Tempo, 1666666
1, 94440, Tempo, 1764705
1, 94470, Tempo, 1666666
1, 94560, Tempo, 1818181
1, 94590, Tempo, 1666666
1, 94680, Tempo, 1764705
1, 94710, Tempo, 1666666
1, 94800, Tempo, 1764705
1, 94830, Tempo, 1666666
1, 94920, Tempo, 1818181
1, 94950, Tempo, 1666666
1, 95040, Tempo, 1764705
1, 95070, Tempo, 1666666
1, 95160, Tempo, 1764705
1, 95190, Tempo, 1666666
1, 95280, Tempo, 1818181
1, 95310, Tempo, 1666666
1, 95400, Tempo, 1764705
1, 95430, Tempo, 1666666
1, 95520, Time_signature, 2, 1, 48, 8
1, 95520, Key_signature, 0, "major"
1, 95520, Tempo, 241935
1, 95520, Marker_t, "Tempo I"
1, 96000, Tempo, 233463
1, 96480, Tempo, 225563
1, 98880, Tempo, 239043
1, 99120, Tempo, 217391
1, 99360, Tempo, 239043
1, 99600, Tempo, 217391
1, 99840, Tempo, 239043
1, 100080, Tempo, 217391
1, 100320, Tempo, 239043
1, 100560, Tempo, 217391
1, 100800, Tempo, 239043
1, 101040, Tempo, 217391
1, 101280, Tempo, 239043
1, 101520, Tempo, 217391
1, 101760, Tempo, 239043
1, 102000, Tempo, 217391
1, 102240, Tempo, 239043
1, 102480, Tempo, 217391
1, 102720, Tempo, 239043
1, 102960, Tempo, 217391
1, 103200, Tempo, 239043
1, 103440, Tempo, 217391
1, 103680, Tempo, 239043
1, 103920, Tempo, 217391
1, 104160, Tempo, 239043
1, 104400, Tempo, 217391
1, 104640, Tempo, 239043
1, 104880, Tempo, 217391
1, 105120, Tempo, 239043
1, 105360, Tempo, 217391
1, 105600, Tempo, 239043
1, 105840, Tempo, 217391
1, 106080, Tempo, 239043
1, 106320, Tempo, 217391
1, 106560, Tempo, 239043
1, 106800, Tempo, 225563
1, 107040, Tempo, 239043
1, 107280, Tempo, 225563
1, 107520, Tempo, 239043
1, 107760, Tempo, 225563
1, 108000, Tempo, 239043
1, 108240, Tempo, 225563
1, 108480, Tempo, 239043
1, 108720, Tempo, 225563
1, 108960, Tempo, 239043
1, 109200, Tempo, 225563
1, 109440, Tempo, 239043
1, 109680, Tempo, 225563
1, 109920, Tempo, 239043
1, 110160, Tempo, 225563
1, 110400, Tempo, 239043
1, 110640, Tempo, 225563
1, 110880, Tempo, 239043
1, 111120, Tempo, 225563
1, 111360, Tempo, 239043
1, 111600, Tempo, 225563
1, 111840, Tempo, 239043
1, 112080, Tempo, 225563
1, 112320, Tempo, 239043
1, 112560, Tempo, 225563
1, 112800, Tempo, 239043
1, 113040, Tempo, 225563
1, 113280, Tempo, 239043
1, 113520, Tempo, 225563
1, 113760, Tempo, 239043
1, 114000, Tempo, 225563
1, 114240, Tempo, 239043
1, 114480, Tempo, 225563
1, 114720, Tempo, 239043
1, 114960, Tempo, 225563
1, 115200, Tempo, 239043
1, 115440, Tempo, 225563
1, 115680, Tempo, 239043
1, 115920, Tempo, 225563
1, 116160, Tempo, 239043
1, 116400, Tempo, 225563
1, 116640, Tempo, 239043
1, 116880, Tempo, 225563
1, 117120, Tempo, 239043
1, 117840, Tempo, 225563
1, 118080, Tempo, 239043
1, 118320, Tempo, 225563
1, 118560, Tempo, 239043
1, 118800, Tempo, 225563
1, 119040, Tempo, 239043
1, 119760, Tempo, 225563
1, 120000, Tempo, 239043
1, 120240, Tempo, 225563
1, 120480, Tempo, 239043
1, 120720, Tempo, 225563
1, 120960, Tempo, 239043
1, 121200, Tempo, 225563
1, 121440, Tempo, 239043
1, 121680, Tempo, 225563
1, 121920, Tempo, 239043
1, 123825, Tempo, 512820
1, 123840, Tempo, 240000
1, 124080, Tempo, 241935
1, 124320, Tempo, 244897
1, 124770, Tempo, 267857
1, 124800, Tempo, 246913
1, 125250, Tempo, 300000
1, 125280, Tempo, 250000
1, 125730, Tempo, 279069
1, 125760, Tempo, 252100
1, 126210, Tempo, 276497
1, 126240, Tempo, 252100
1, 126690, Tempo, 317460
1, 126720, Tempo, 260869
1, 126840, Tempo, 256410
1, 127080, Tempo, 259740
1, 127170, Tempo, 295566
1, 127200, Tempo, 284360
1, 127320, Tempo, 265486
1, 127680, Tempo, 294117
1, 127800, Tempo, 269058
1, 128160, Tempo, 297029
1, 128280, Tempo, 273972
1, 128640, Tempo, 297029
1, 128760, Tempo, 281690
1, 129120, Tempo, 275229
1, 129240, Tempo, 271493
1, 129360, Tempo, 267857
1, 129480, Tempo, 262008
1, 129600, Tempo, 259740
1, 130560, Tempo, 256410
1, 131520, Tempo, 253164
1, 132000, Tempo, 258620
1, 132240, Tempo, 269058
1, 132420, Tempo, 287081
1, 132480, Tempo, 253164
1, 132720, Tempo, 230769
1, 132960, Tempo, 244897
1, 133200, Tempo, 225563
1, 133440, Tempo, 239043
1, 133680, Tempo, 225563
1, 133920, Tempo, 239043
1, 134160, Tempo, 225563
1, 134400, Tempo, 239043
1, 134640, Tempo, 225563
1, 134880, Tempo, 239043
1, 135120, Tempo, 225563
1, 135360, Tempo, 239043
1, 135600, Tempo, 225563
1, 135840, Tempo, 239043
1, 136080, Tempo, 225563
1, 136320, Tempo, 239043
1, 136560, Tempo, 219780
1, 136800, Tempo, 239043
1, 137040, Tempo, 219780
1, 137280, Tempo, 239043
1, 137520, Tempo, 219780
1, 137760, Tempo, 239043
1, 138000, Tempo, 219780
1, 138240, Tempo, 239043
1, 138480, Tempo, 219780
1, 138720, Tempo, 239043
1, 138960, Tempo, 219780
1, 139200, Tempo, 239043
1, 139440, Tempo, 219780
1, 139680, Tempo, 239043
1, 139920, Tempo, 219780
1, 140160, Tempo, 239043
1, 140400, Tempo, 217391
1, 140640, Tempo, 239043
1, 140880, Tempo, 217391
1, 141120, Tempo, 239043
1, 141360, Tempo, 217391
1, 141600, Tempo, 239043
1, 141840, Tempo, 217391
1, 142080, Tempo, 239043
1, 142320, Tempo, 217391
1, 142560, Tempo, 239043
1, 142800, Tempo, 217391
1, 143040, Tempo, 239043
1, 143280, Tempo, 217391
1, 143520, Tempo, 239043
1, 143760, Tempo, 217391
1, 143940, Tempo, 287081
1, 144000, Tempo, 239043
1, 144240, Tempo, 223880
1, 144480, Tempo, 239043
1, 144720, Tempo, 223880
1, 144960, Tempo, 239043
1, 145200, Tempo, 223880
1, 145440, Tempo, 239043
1, 145680, Tempo, 223880
1, 145920, Tempo, 236220
1, 146160, Tempo, 217391
1, 146400, Tempo, 231660
1, 146640, Tempo, 217391
1, 146880, Tempo, 231660
1, 147120, Tempo, 217391
1, 147360, Tempo, 231660
1, 147600, Tempo, 217391
1, 147810, Tempo, 270270
1, 147840, Tempo, 231660
1, 148080, Tempo, 217391
1, 148320, Tempo, 231660
1, 148560, Tempo, 217391
1, 148770, Tempo, 264317
1, 148800, Tempo, 231660
1, 149040, Tempo, 217391
1, 149280, Tempo, 231660
1, 149520, Tempo, 217391
1, 149730, Tempo, 259740
1, 149760, Tempo, 231660
1, 150000, Tempo, 217391
1, 150240, Tempo, 231660
1, 150480, Tempo, 217391
1, 150690, Tempo, 260869
1, 150720, Tempo, 231660
1, 150960, Tempo, 217391
1, 151200, Tempo, 231660
1, 151440, Tempo, 217391
1, 151680, Tempo, 231660
1, 151920, Tempo, 217391
1, 152160, Tempo, 231660
1, 152400, Tempo, 217391
1, 152640, Tempo, 231660
1, 152880, Tempo, 217391
1, 153120, Tempo, 231660
1, 153360, Tempo, 217391
1, 153600, Tempo, 231660
1, 153840, Tempo, 217391
1, 154080, Tempo, 231660
1, 154320, Tempo, 217391
1, 154560, Tempo, 231660
1, 154800, Tempo, 217391
1, 155040, Tempo, 231660
1, 155280, Tempo, 217391
1, 155520, Tempo, 231660
1, 155760, Tempo, 217391
1, 156000, Tempo, 231660
1, 156240, Tempo, 217391
1, 156480, Tempo, 231660
1, 156720, Tempo, 217391
1, 156960, Tempo, 231660
1, 157200, Tempo, 217391
1, 157440, Tempo, 231660
1, 157680, Tempo, 217391
1, 157920, Tempo, 231660
1, 158160, Tempo, 217391
1, 158400, Tempo, 231660
1, 158640, Tempo, 217391
1, 158880, Tempo, 231660
1, 159120, Tempo, 217391
1, 159360, Tempo, 231660
1, 159600, Tempo, 217391
1, 159840, Tempo, 231660
1, 160080, Tempo, 217391
1, 160320, Tempo, 231660
1, 160560, Tempo, 217391
1, 160800, Tempo, 231660
1, 161040, Tempo, 217391
1, 161280, Tempo, 231660
1, 161520, Tempo, 217391
1, 161760, Tempo, 231660
1, 162000, Tempo, 217391
1, 162240, Tempo, 231660
1, 162480, Tempo, 217391
1, 162720, Tempo, 231660
1, 162960, Tempo, 217391
1, 163200, Tempo, 231660
1, 163440, Tempo, 217391
1, 163680, Tempo, 238095
1, 163920, Tempo, 250000
1, 164130, Tempo, 530973
1, 164160, Tempo, 594059
1, 164400, Tempo, 1052631
1, 164500, Tempo, 631578
1, 164550, Tempo, 1276595
1, 164580, Tempo, 287081
1, 164640, Tempo, 231660
1, 164880, Tempo, 217391
1, 165120, Tempo, 231660
1, 165360, Tempo, 217391
1, 165600, Tempo, 231660
1, 165840, Tempo, 217391
1, 166080, Tempo, 231660
1, 166320, Tempo, 242914
1, 166440, Tempo, 218978
1, 166560, Tempo, 231660
1, 166800, Tempo, 217391
1, 167040, Tempo, 231660
1, 167760, Tempo, 234375
1, 168000, Tempo, 237154
1, 168240, Tempo, 241935
1, 168480, Tempo, 245901
1, 168960, Tempo, 248962
1, 169440, Tempo, 253164
1, 169680, Tempo, 263157
1, 169920, Tempo, 277777
1, 170040, Tempo, 350877
1, 170160, Tempo, 526315
1, 170340, Tempo, 2400000
1, 170400, Tempo, 223048
1, 171360, Tempo, 242914
1, 171840, Tempo, 263157
1, 172320, Tempo, 394736
1, 172560, Tempo, 600000
1, 172560, End_track
2, 0, Start_track
2, 0, MIDI_port, 0
2, 0, Title_t, "2 Flauti"
2, 0, Program_c, 0, 73
2, 0, Control_c, 0, 10, 52
2, 1, Control_c, 0, 121, 0
2, 6, Program_c, 0, 73
2, 11, Pitch_bend_c, 0, 8192
2, 16, Control_c, 0, 11, 76
2, 21, Control_c, 0, 7, 127
2, 26, Control_c, 0, 91, 54
2, 31, Control_c, 0, 93, 0
2, 7231, Control_c, 0, 11, 47
2, 7231, Note_on_c, 0, 81, 91
2, 7261, Note_on_c, 0, 81, 0
2, 7261, Note_on_c, 0, 76, 91
2, 7281, Note_on_c, 0, 76, 0
2, 7291, Note_on_c, 0, 88, 91
2, 7306, Note_on_c, 0, 88, 0
2, 7321, Note_on_c, 0, 86, 91
2, 7351, Note_on_c, 0, 86, 0
2, 7381, Note_on_c, 0, 85, 91
2, 7411, Note_on_c, 0, 85, 0
2, 7441, Note_on_c, 0, 82, 91
2, 7501, Note_on_c, 0, 82, 0
2, 7501, Note_on_c, 0, 81, 91
2, 7676, Note_on_c, 0, 81, 0
2, 7681, Control_c, 0, 11, 65
2, 7681, Note_on_c, 0, 74, 91
2, 7681, Note_on_c, 0, 86, 91
2, 7686, Control_c, 0, 11, 68
2, 7691, Control_c, 0, 11, 71
2, 7696, Control_c, 0, 11, 74
2, 7701, Control_c, 0, 11, 77
2, 7861, Note_on_c, 0, 86, 0
2, 7861, Note_on_c, 0, 74, 0
2, 9151, Control_c, 0, 11, 47
2, 9151, Note_on_c, 0, 72, 91
2, 9181, Note_on_c, 0, 72, 0
2, 9181, Note_on_c, 0, 81, 91
2, 9201, Note_on_c, 0, 81, 0
2, 9211, Note_on_c, 0, 83, 91
2, 9226, Note_on_c, 0, 83, 0
2, 9241, Note_on_c, 0, 84, 91
2, 9286, Note_on_c, 0, 84, 0
2, 9301, Note_on_c, 0, 85, 91
2, 9346, Note_on_c, 0, 85, 0
2, 9361, Note_on_c, 0, 86, 91
2, 9406, Note_on_c, 0, 86, 0
2, 9421, Note_on_c, 0, 87, 91
2, 9466, Note_on_c, 0, 87, 0
2, 9481, Note_on_c, 0, 86, 91
2, 9526, Note_on_c, 0, 86, 0
2, 9541, Note_on_c, 0, 86, 91
2, 9541, Note_on_c, 0, 90, 91
2, 9586, Note_on_c, 0, 90, 0
2, 9586, Note_on_c, 0, 86, 0
2, 9601, Control_c, 0, 11, 65
2, 9601, Note_on_c, 0, 86, 91
2, 9601, Note_on_c, 0, 91, 91
2, 9606, Control_c, 0, 11, 68
2, 9611, Control_c, 0, 11, 71
2, 9616, Control_c, 0, 11, 74
2, 9621, Control_c, 0, 11, 77
2, 9751, Note_on_c, 0, 91, 0
2, 9751, Control_c, 0, 11, 77
2, 9751, Note_on_c, 0, 91, 91
2, 9754, Control_c, 0, 11, 74
2, 9759, Control_c, 0, 11, 71
2, 9763, Control_c, 0, 11, 68
2, 9766, Note_on_c, 0, 91, 0
2, 9768, Control_c, 0, 11, 65
2, 9773, Control_c, 0, 11, 62
2, 9777, Control_c, 0, 11, 59
2, 9779, Control_c, 0, 11, 56
2, 9781, Note_on_c, 0, 86, 0
2, 9781, Note_on_c, 0, 89, 91
2, 9782, Control_c, 0, 11, 53
2, 9786, Control_c, 0, 11, 49
2, 9796, Note_on_c, 0, 89, 0
2, 9811, Note_on_c, 0, 88, 91
2, 9826, Note_on_c, 0, 88, 0
2, 9841, Note_on_c, 0, 86, 91
2, 9856, Note_on_c, 0, 86, 0
2, 9871, Note_on_c, 0, 84, 91
2, 9886, Note_on_c, 0, 84, 0
2, 9901, Note_on_c, 0, 83, 91
2, 9916, Note_on_c, 0, 83, 0
2, 9931, Note_on_c, 0, 81, 91
2, 9946, Note_on_c, 0, 81, 0
2, 13921, Control_c, 0, 1, 20
2, 13921, Control_c, 0, 11, 30
2, 13921, Note_on_c, 0, 87, 101
2, 13938, Control_c, 0, 11, 32
2, 13955, Control_c, 0, 11, 34
2, 13972, Control_c, 0, 11, 36
2, 14071, Note_on_c, 0, 87, 0
2, 14081, Note_on_c, 0, 86, 101
2, 14101, Note_on_c, 0, 86, 0
2, 14121, Note_on_c, 0, 84, 101
2, 14141, Note_on_c, 0, 84, 0
2, 14161, Note_on_c, 0, 83, 112
2, 14243, Control_c, 0, 11, 37
2, 14311, Note_on_c, 0, 83, 0
2, 14321, Note_on_c, 0, 84, 112
2, 14341, Note_on_c, 0, 84, 0
2, 14361, Note_on_c, 0, 86, 112
2, 14381, Note_on_c, 0, 86, 0
2, 14401, Control_c, 0, 11, 37
2, 14401, Note_on_c, 0, 84, 101
2, 14408, Control_c, 0, 11, 40
2, 14415, Control_c, 0, 11, 43
2, 14422, Control_c, 0, 11, 46
2, 14429, Control_c, 0, 11, 49
2, 14437, Control_c, 0, 11, 52
2, 14444, Control_c, 0, 11, 55
2, 14451, Control_c, 0, 11, 58
2, 14458, Control_c, 0, 11, 61
2, 14470, Control_c, 0, 11, 64
2, 14482, Control_c, 0, 11, 67
2, 14492, Control_c, 0, 11, 70
2, 14504, Control_c, 0, 11, 73
2, 14516, Control_c, 0, 11, 76
2, 14551, Note_on_c, 0, 84, 0
2, 14561, Note_on_c, 0, 86, 101
2, 14581, Note_on_c, 0, 86, 0
2, 14601, Note_on_c, 0, 87, 101
2, 14621, Note_on_c, 0, 87, 0
2, 15241, Control_c, 0, 1, 0
2, 15241, Control_c, 0, 11, 37
2, 15241, Note_on_c, 0, 89, 91
2, 15261, Note_on_c, 0, 89, 0
2, 15281, Note_on_c, 0, 87, 91
2, 15301, Note_on_c, 0, 87, 0
2, 15321, Note_on_c, 0, 86, 91
2, 15341, Note_on_c, 0, 86, 0
2, 15361, Note_on_c, 0, 84, 91
2, 15761, Note_on_c, 0, 84, 0
2, 15761, Note_on_c, 0, 87, 91
2, 15801, Note_on_c, 0, 87, 0
2, 15801, Note_on_c, 0, 84, 91
2, 15841, Note_on_c, 0, 84, 0
2, 15841, Note_on_c, 0, 79, 71
2, 15961, Note_on_c, 0, 79, 0
2, 16561, Control_c, 0, 11, 62
2, 16561, Note_on_c, 0, 84, 91
2, 16565, Control_c, 0, 11, 65
2, 16571, Control_c, 0, 11, 68
2, 16577, Control_c, 0, 11, 71
2, 16582, Control_c, 0, 11, 74
2, 16602, Control_c, 0, 11, 73
2, 16620, Control_c, 0, 11, 71
2, 16638, Control_c, 0, 11, 69
2, 16656, Control_c, 0, 11, 67
2, 16674, Control_c, 0, 11, 65
2, 16681, Note_on_c, 0, 84, 0
2, 16681, Note_on_c, 0, 86, 91
2, 16692, Control_c, 0, 11, 63
2, 16710, Control_c, 0, 11, 62
2, 16728, Control_c, 0, 11, 59
2, 16741, Note_on_c, 0, 86, 0
2, 16741, Note_on_c, 0, 84, 91
2, 16746, Control_c, 0, 11, 56
2, 16764, Control_c, 0, 11, 53
2, 16782, Control_c, 0, 11, 50
2, 16800, Control_c, 0, 11, 47
2, 16801, Note_on_c, 0, 84, 0
2, 16801, Note_on_c, 0, 83, 91
2, 16921, Note_on_c, 0, 83, 0
2, 17521, Control_c, 0, 11, 77
2, 17521, Note_on_c, 0, 84, 91
2, 17539, Control_c, 0, 11, 75
2, 17557, Control_c, 0, 11, 73
2, 17575, Control_c, 0, 11, 71
2, 17593, Control_c, 0, 11, 70
2, 17611, Control_c, 0, 11, 68
2, 17619, Note_on_c, 0, 84, 0
2, 17619, Note_on_c, 0, 86, 98
2, 17626, Note_on_c, 0, 86, 0
2, 17627, Note_on_c, 0, 84, 98
2, 17629, Control_c, 0, 11, 66
2, 17634, Note_on_c, 0, 84, 0
2, 17634, Note_on_c, 0, 83, 98
2, 17641, Note_on_c, 0, 83, 0
2, 17641, Note_on_c, 0, 84, 91
2, 17647, Control_c, 0, 11, 64
2, 17665, Control_c, 0, 11, 62
2, 17671, Note_on_c, 0, 84, 0
2, 17681, Note_on_c, 0, 86, 91
2, 17683, Control_c, 0, 11, 60
2, 17701, Control_c, 0, 11, 57
2, 17711, Note_on_c, 0, 86, 0
2, 17719, Control_c, 0, 11, 54
2, 17721, Note_on_c, 0, 84, 91
2, 17737, Control_c, 0, 11, 51
2, 17751, Note_on_c, 0, 84, 0
2, 17755, Control_c, 0, 11, 48
2, 17761, Note_on_c, 0, 83, 76
2, 17861, Control_c, 0, 11, 47
2, 17863, Control_c, 0, 11, 44
2, 17866, Control_c, 0, 11, 41
2, 17869, Control_c, 0, 11, 38
2, 17872, Control_c, 0, 11, 35
2, 17875, Control_c, 0, 11, 32
2, 17878, Control_c, 0, 11, 29
2, 17881, Note_on_c, 0, 83, 0
2, 23401, Control_c, 0, 11, 80
2, 23401, Note_on_c, 0, 83, 91
2, 23521, Note_on_c, 0, 83, 0
2, 23521, Note_on_c, 0, 84, 91
2, 23641, Note_on_c, 0, 84, 0
2, 23761, Note_on_c, 0, 86, 91
2, 23881, Note_on_c, 0, 86, 0
2, 23905, Control_c, 0, 11, 81
2, 24001, Note_on_c, 0, 88, 91
2, 24121, Note_on_c, 0, 88, 0
2, 24241, Note_on_c, 0, 86, 91
2, 24241, Note_on_c, 0, 89, 91
2, 24361, Note_on_c, 0, 89, 0
2, 24361, Note_on_c, 0, 86, 0
2, 24409, Control_c, 0, 11, 81
2, 24481, Note_on_c, 0, 89, 91
2, 24481, Note_on_c, 0, 86, 91
2, 24601, Note_on_c, 0, 86, 0
2, 24601, Note_on_c, 0, 89, 0
2, 24721, Note_on_c, 0, 89, 91
2, 24721, Note_on_c, 0, 86, 91
2, 24841, Note_on_c, 0, 86, 0
2, 24841, Note_on_c, 0, 89, 0
2, 24913, Control_c, 0, 11, 82
2, 24961, Note_on_c, 0, 89, 91
2, 24961, Note_on_c, 0, 86, 91
2, 25081, Note_on_c, 0, 86, 0
2, 25081, Note_on_c, 0, 89, 0
2, 25201, Note_on_c, 0, 86, 91
2, 25201, Note_on_c, 0, 89, 91
2, 25321, Note_on_c, 0, 89, 0
2, 25321, Note_on_c, 0, 86, 0
2, 25417, Control_c, 0, 11, 82
2, 25441, Note_on_c, 0, 89, 91
2, 25441, Note_on_c, 0, 86, 91
2, 25561, Note_on_c, 0, 86, 0
2, 25561, Note_on_c, 0, 89, 0
2, 25681, Note_on_c, 0, 89, 91
2, 25681, Note_on_c, 0, 86, 91
2, 25801, Note_on_c, 0, 86, 0
2, 25801, Note_on_c, 0, 89, 0
2, 25921, Control_c, 0, 11, 83
2, 25921, Note_on_c, 0, 86, 91
2, 25921, Note_on_c, 0, 89, 91
2, 26031, Note_on_c, 0, 89, 0
2, 26031, Note_on_c, 0, 86, 0
2, 26041, Note_on_c, 0, 89, 91
2, 26041, Note_on_c, 0, 86, 91
2, 26101, Control_c, 0, 11, 84
2, 26151, Note_on_c, 0, 86, 0
2, 26151, Note_on_c, 0, 89, 0
2, 26161, Note_on_c, 0, 89, 91
2, 26161, Note_on_c, 0, 86, 91
2, 26271, Note_on_c, 0, 86, 0
2, 26271, Note_on_c, 0, 89, 0
2, 26281, Control_c, 0, 11, 84
2, 26281, Note_on_c, 0, 86, 91
2, 26281, Note_on_c, 0, 89, 91
2, 26391, Note_on_c, 0, 89, 0
2, 26391, Note_on_c, 0, 86, 0
2, 26401, Note_on_c, 0, 86, 91
2, 26401, Note_on_c, 0, 89, 91
2, 26461, Control_c, 0, 11, 85
2, 26511, Note_on_c, 0, 89, 0
2, 26511, Note_on_c, 0, 86, 0
2, 26521, Note_on_c, 0, 86, 91
2, 26521, Note_on_c, 0, 89, 91
2, 26631, Note_on_c, 0, 89, 0
2, 26631, Note_on_c, 0, 86, 0
2, 26641, Control_c, 0, 11, 86
2, 26641, Note_on_c, 0, 86, 91
2, 26641, Note_on_c, 0, 89, 91
2, 26751, Note_on_c, 0, 89, 0
2, 26751, Note_on_c, 0, 86, 0
2, 26761, Note_on_c, 0, 89, 91
2, 26761, Note_on_c, 0, 86, 91
2, 26821, Control_c, 0, 11, 86
2, 26871, Note_on_c, 0, 86, 0
2, 26871, Note_on_c, 0, 89, 0
2, 26881, Note_on_c, 0, 86, 91
2, 26881, Note_on_c, 0, 89, 91
2, 26991, Note_on_c, 0, 89, 0
2, 26991, Note_on_c, 0, 86, 0
2, 27001, Control_c, 0, 11, 87
2, 27001, Note_on_c, 0, 89, 91
2, 27001, Note_on_c, 0, 86, 91
2, 27111, Note_on_c, 0, 86, 0
2, 27111, Note_on_c, 0, 89, 0
2, 27121, Note_on_c, 0, 86, 91
2, 27121, Note_on_c, 0, 89, 91
2, 27181, Control_c, 0, 11, 87
2, 27231, Note_on_c, 0, 89, 0
2, 27231, Note_on_c, 0, 86, 0
2, 27241, Note_on_c, 0, 86, 91
2, 27241, Note_on_c, 0, 89, 91
2, 27351, Note_on_c, 0, 89, 0
2, 27351, Note_on_c, 0, 86, 0
2, 27361, Control_c, 0, 11, 88
2, 27361, Note_on_c, 0, 86, 91
2, 27361, Note_on_c, 0, 89, 91
2, 27471, Note_on_c, 0, 89, 0
2, 27471, Note_on_c, 0, 86, 0
2, 27481, Note_on_c, 0, 89, 91
2, 27481, Note_on_c, 0, 86, 91
2, 27541, Control_c, 0, 11, 89
2, 27591, Note_on_c, 0, 86, 0
2, 27591, Note_on_c, 0, 89, 0
2, 27601, Note_on_c, 0, 88, 91
2, 27601, Note_on_c, 0, 84, 91
2, 27711, Note_on_c, 0, 84, 0
2, 27711, Note_on_c, 0, 88, 0
2, 27721, Control_c, 0, 11, 89
2, 27721, Note_on_c, 0, 84, 91
2, 27721, Note_on_c, 0, 88, 91
2, 27831, Note_on_c, 0, 88, 0
2, 27831, Note_on_c, 0, 84, 0
2, 27961, Note_on_c, 0, 88, 91
2, 27961, Note_on_c, 0, 84, 91
2, 28071, Note_on_c, 0, 84, 0
2, 28071, Note_on_c, 0, 88, 0
2, 28201, Note_on_c, 0, 88, 91
2, 28201, Note_on_c, 0, 84, 91
2, 28311, Note_on_c, 0, 84, 0
2, 28311, Note_on_c, 0, 88, 0
2, 28441, Control_c, 0, 11, 71
2, 28441, Note_on_c, 0, 88, 91
2, 28441, Note_on_c, 0, 84, 91
2, 28551, Note_on_c, 0, 84, 0
2, 28551, Note_on_c, 0, 88, 0
2, 29401, Control_c, 0, 11, 71
2, 29401, Note_on_c, 0, 88, 91
2, 29401, Note_on_c, 0, 84, 91
2, 29511, Note_on_c, 0, 84, 0
2, 29511, Note_on_c, 0, 88, 0
2, 30361, Control_c, 0, 11, 71
2, 30361, Note_on_c, 0, 84, 91
2, 30361, Note_on_c, 0, 88, 91
2, 30471, Note_on_c, 0, 88, 0
2, 30471, Note_on_c, 0, 84, 0
2, 37681, Control_c, 0, 11, 57
2, 37681, Note_on_c, 0, 83, 91
2, 37706, Control_c, 0, 11, 58
2, 37731, Control_c, 0, 11, 59
2, 37757, Control_c, 0, 11, 60
2, 37782, Control_c, 0, 11, 61
2, 37807, Control_c, 0, 11, 62
2, 37833, Control_c, 0, 11, 62
2, 37858, Control_c, 0, 11, 63
2, 37883, Control_c, 0, 11, 63
2, 37909, Control_c, 0, 11, 64
2, 37921, Note_on_c, 0, 83, 0
2, 37921, Note_on_c, 0, 84, 96
2, 37934, Control_c, 0, 11, 65
2, 37959, Control_c, 0, 11, 65
2, 37985, Control_c, 0, 11, 66
2, 38010, Control_c, 0, 11, 66
2, 38035, Control_c, 0, 11, 67
2, 38061, Control_c, 0, 11, 68
2, 38086, Control_c, 0, 11, 68
2, 38111, Control_c, 0, 11, 69
2, 38137, Control_c, 0, 11, 70
2, 38161, Note_on_c, 0, 84, 0
2, 38161, Note_on_c, 0, 83, 101
2, 38161, Note_on_c, 0, 86, 101
2, 38162, Control_c, 0, 11, 70
2, 38187, Control_c, 0, 11, 71
2, 38213, Control_c, 0, 11, 71
2, 38238, Control_c, 0, 11, 72
2, 38263, Control_c, 0, 11, 73
2, 38289, Control_c, 0, 11, 73
2, 38314, Control_c, 0, 11, 74
2, 38339, Control_c, 0, 11, 74
2, 38365, Control_c, 0, 11, 75
2, 38390, Control_c, 0, 11, 76
2, 38401, Note_on_c, 0, 86, 0
2, 38401, Note_on_c, 0, 83, 0
2, 38401, Note_on_c, 0, 88, 106
2, 38401, Note_on_c, 0, 84, 106
2, 38415, Control_c, 0, 11, 76
2, 38441, Control_c, 0, 11, 77
2, 38466, Control_c, 0, 11, 78
2, 38491, Control_c, 0, 11, 78
2, 38517, Control_c, 0, 11, 79
2, 38542, Control_c, 0, 11, 79
2, 38567, Control_c, 0, 11, 80
2, 38593, Control_c, 0, 11, 81
2, 38618, Control_c, 0, 11, 81
2, 38641, Note_on_c, 0, 84, 0
2, 38641, Note_on_c, 0, 88, 0
2, 38641, Note_on_c, 0, 89, 111
2, 38641, Note_on_c, 0, 86, 111
2, 38643, Control_c, 0, 11, 82
2, 38669, Control_c, 0, 11, 82
2, 38694, Control_c, 0, 11, 83
2, 38719, Control_c, 0, 11, 84
2, 38745, Control_c, 0, 11, 84
2, 38761, Note_on_c, 0, 86, 0
2, 38761, Note_on_c, 0, 89, 0
2, 38770, Control_c, 0, 11, 85
2, 38795, Control_c, 0, 11, 86
2, 38821, Control_c, 0, 11, 86
2, 39001, Note_on_c, 0, 88, 91
2, 39001, Note_on_c, 0, 84, 91
2, 39121, Note_on_c, 0, 84, 0
2, 39121, Note_on_c, 0, 88, 0
2, 39241, Note_on_c, 0, 88, 91
2, 39241, Note_on_c, 0, 84, 91
2, 39361, Note_on_c, 0, 84, 0
2, 39361, Note_on_c, 0, 88, 0
2, 39361, Note_on_c, 0, 88, 91
2, 39361, Note_on_c, 0, 84, 91
2, 39481, Note_on_c, 0, 84, 0
2, 39481, Note_on_c, 0, 88, 0
2, 39481, Note_on_c, 0, 84, 91
2, 39481, Note_on_c, 0, 88, 91
2, 39601, Note_on_c, 0, 88, 0
2, 39601, Note_on_c, 0, 84, 0
2, 39601, Note_on_c, 0, 88, 91
2, 39601, Note_on_c, 0, 84, 91
2, 40201, Note_on_c, 0, 84, 0
2, 40201, Note_on_c, 0, 88, 0
2, 40201, Note_on_c, 0, 89, 91
2, 40201, Note_on_c, 0, 84, 91
2, 40321, Note_on_c, 0, 84, 0
2, 40321, Note_on_c, 0, 89, 0
2, 40321, Note_on_c, 0, 84, 91
2, 40321, Note_on_c, 0, 88, 91
2, 40441, Note_on_c, 0, 88, 0
2, 40441, Note_on_c, 0, 84, 0
2, 40441, Note_on_c, 0, 88, 91
2, 40441, Note_on_c, 0, 84, 91
2, 40561, Note_on_c, 0, 84, 0
2, 40561, Note_on_c, 0, 88, 0
2, 40561, Note_on_c, 0, 88, 91
2, 40561, Note_on_c, 0, 84, 91
2, 41161, Note_on_c, 0, 84, 0
2, 41161, Note_on_c, 0, 88, 0
2, 41161, Note_on_c, 0, 89, 91
2, 41161, Note_on_c, 0, 84, 91
2, 41281, Note_on_c, 0, 84, 0
2, 41281, Note_on_c, 0, 89, 0
2, 41281, Note_on_c, 0, 88, 91
2, 41281, Note_on_c, 0, 84, 91
2, 41401, Note_on_c, 0, 84, 0
2, 41401, Note_on_c, 0, 88, 0
2, 41641, Note_on_c, 0, 88, 91
2, 41641, Note_on_c, 0, 84, 91
2, 41761, Note_on_c, 0, 84, 0
2, 41761, Note_on_c, 0, 88, 0
2, 41761, Note_on_c, 0, 88, 91
2, 41761, Note_on_c, 0, 84, 91
2, 41881, Note_on_c, 0, 84, 0
2, 41881, Note_on_c, 0, 88, 0
2, 42121, Note_on_c, 0, 84, 91
2, 42121, Note_on_c, 0, 88, 91
2, 42241, Note_on_c, 0, 88, 0
2, 42241, Note_on_c, 0, 84, 0
2, 42241, Note_on_c, 0, 86, 91
2, 42241, Note_on_c, 0, 84, 91
2, 42361, Note_on_c, 0, 84, 0
2, 42361, Note_on_c, 0, 86, 0
2, 42601, Note_on_c, 0, 84, 91
2, 42601, Note_on_c, 0, 86, 91
2, 42721, Note_on_c, 0, 86, 0
2, 42721, Note_on_c, 0, 84, 0
2, 42721, Note_on_c, 0, 83, 91
2, 42721, Note_on_c, 0, 89, 91
2, 42841, Note_on_c, 0, 89, 0
2, 42841, Note_on_c, 0, 83, 0
2, 43081, Note_on_c, 0, 89, 91
2, 43081, Note_on_c, 0, 83, 91
2, 43201, Note_on_c, 0, 83, 0
2, 43201, Note_on_c, 0, 89, 0
2, 43201, Note_on_c, 0, 84, 91
2, 43201, Note_on_c, 0, 88, 91
2, 43321, Note_on_c, 0, 88, 0
2, 43321, Note_on_c, 0, 84, 0
2, 43561, Note_on_c, 0, 88, 91
2, 43561, Note_on_c, 0, 84, 91
2, 43681, Note_on_c, 0, 84, 0
2, 43681, Note_on_c, 0, 88, 0
2, 43681, Note_on_c, 0, 88, 91
2, 43681, Note_on_c, 0, 84, 91
2, 43801, Note_on_c, 0, 84, 0
2, 43801, Note_on_c, 0, 88, 0
2, 44041, Note_on_c, 0, 88, 91
2, 44041, Note_on_c, 0, 84, 91
2, 44161, Note_on_c, 0, 84, 0
2, 44161, Note_on_c, 0, 88, 0
2, 44161, Note_on_c, 0, 86, 91
2, 44161, Note_on_c, 0, 84, 91
2, 44281, Note_on_c, 0, 84, 0
2, 44281, Note_on_c, 0, 86, 0
2, 44521, Note_on_c, 0, 84, 91
2, 44521, Note_on_c, 0, 86, 91
2, 44641, Note_on_c, 0, 86, 0
2, 44641, Note_on_c, 0, 84, 0
2, 44641, Note_on_c, 0, 86, 91
2, 44641, Note_on_c, 0, 84, 91
2, 44761, Note_on_c, 0, 84, 0
2, 44761, Note_on_c, 0, 86, 0
2, 45001, Note_on_c, 0, 84, 91
2, 45001, Note_on_c, 0, 86, 91
2, 45121, Note_on_c, 0, 86, 0
2, 45121, Note_on_c, 0, 84, 0
2, 45121, Note_on_c, 0, 86, 91
2, 45121, Note_on_c, 0, 84, 91
2, 45241, Note_on_c, 0, 84, 0
2, 45241, Note_on_c, 0, 86, 0
2, 45481, Note_on_c, 0, 84, 91
2, 45481, Note_on_c, 0, 86, 91
2, 45601, Note_on_c, 0, 86, 0
2, 45601, Note_on_c, 0, 84, 0
2, 45601, Note_on_c, 0, 86, 91
2, 45601, Note_on_c, 0, 84, 91
2, 45721, Note_on_c, 0, 84, 0
2, 45721, Note_on_c, 0, 86, 0
2, 45961, Note_on_c, 0, 84, 91
2, 45961, Note_on_c, 0, 86, 91
2, 46081, Note_on_c, 0, 86, 0
2, 46081, Note_on_c, 0, 84, 0
2, 46081, Note_on_c, 0, 84, 91
2, 46081, Note_on_c, 0, 86, 91
2, 46201, Note_on_c, 0, 86, 0
2, 46201, Note_on_c, 0, 84, 0
2, 50041, Control_c, 0, 1, 20
2, 50041, Control_c, 0, 11, 57
2, 50041, Note_on_c, 0, 81, 81
2, 50281, Note_on_c, 0, 81, 0
2, 50281, Note_on_c, 0, 82, 81
2, 50521, Note_on_c, 0, 82, 0
2, 50521, Note_on_c, 0, 84, 81
2, 50761, Note_on_c, 0, 84, 0
2, 50761, Note_on_c, 0, 86, 81
2, 50881, Note_on_c, 0, 86, 0
2, 50881, Control_c, 0, 11, 68
2, 50881, Note_on_c, 0, 87, 81
2, 50913, Control_c, 0, 11, 67
2, 50945, Control_c, 0, 11, 66
2, 50977, Control_c, 0, 11, 66
2, 51009, Control_c, 0, 11, 65
2, 51041, Control_c, 0, 11, 65
2, 51073, Control_c, 0, 11, 64
2, 51105, Control_c, 0, 11, 63
2, 51137, Control_c, 0, 11, 63
2, 51169, Control_c, 0, 11, 62
2, 51201, Control_c, 0, 11, 62
2, 51233, Control_c, 0, 11, 61
2, 51265, Control_c, 0, 11, 60
2, 51297, Control_c, 0, 11, 59
2, 51329, Control_c, 0, 11, 58
2, 51361, Control_c, 0, 11, 57
2, 51601, Note_on_c, 0, 87, 0
2, 51601, Note_on_c, 0, 86, 81
2, 51721, Note_on_c, 0, 86, 0
2, 51721, Note_on_c, 0, 85, 81
2, 51841, Note_on_c, 0, 85, 0
2, 51841, Note_on_c, 0, 85, 81
2, 52081, Note_on_c, 0, 85, 0
2, 52081, Note_on_c, 0, 86, 81
2, 52441, Note_on_c, 0, 86, 0
2, 52441, Note_on_c, 0, 81, 81
2, 52561, Note_on_c, 0, 81, 0
2, 52561, Note_on_c, 0, 82, 81
2, 52681, Note_on_c, 0, 82, 0
2, 52681, Note_on_c, 0, 84, 81
2, 52801, Note_on_c, 0, 84, 0
2, 52801, Note_on_c, 0, 84, 81
2, 53041, Note_on_c, 0, 84, 0
2, 53041, Note_on_c, 0, 84, 52
2, 53071, Note_on_c, 0, 84, 0
2, 53071, Note_on_c, 0, 82, 52
2, 53101, Note_on_c, 0, 82, 0
2, 53101, Note_on_c, 0, 84, 52
2, 53131, Note_on_c, 0, 84, 0
2, 53131, Note_on_c, 0, 82, 52
2, 53161, Note_on_c, 0, 82, 0
2, 53161, Note_on_c, 0, 84, 52
2, 53191, Note_on_c, 0, 84, 0
2, 53191, Note_on_c, 0, 82, 52
2, 53221, Note_on_c, 0, 82, 0
2, 53221, Note_on_c, 0, 84, 52
2, 53251, Note_on_c, 0, 84, 0
2, 53251, Note_on_c, 0, 82, 52
2, 53281, Note_on_c, 0, 82, 0
2, 53281, Note_on_c, 0, 81, 81
2, 53521, Note_on_c, 0, 81, 0
2, 53521, Note_on_c, 0, 84, 81
2, 53761, Note_on_c, 0, 84, 0
2, 53761, Control_c, 0, 11, 68
2, 53761, Note_on_c, 0, 87, 81
2, 53825, Control_c, 0, 11, 67
2, 53889, Control_c, 0, 11, 66
2, 53953, Control_c, 0, 11, 66
2, 54017, Control_c, 0, 11, 65
2, 54081, Control_c, 0, 11, 65
2, 54145, Control_c, 0, 11, 64
2, 54209, Control_c, 0, 11, 63
2, 54273, Control_c, 0, 11, 63
2, 54337, Control_c, 0, 11, 62
2, 54401, Control_c, 0, 11, 62
2, 54465, Control_c, 0, 11, 61
2, 54481, Note_on_c, 0, 87, 0
2, 54481, Note_on_c, 0, 86, 81
2, 54529, Control_c, 0, 11, 60
2, 54593, Control_c, 0, 11, 59
2, 54601, Note_on_c, 0, 86, 0
2, 54601, Note_on_c, 0, 85, 81
2, 54657, Control_c, 0, 11, 58
2, 54721, Note_on_c, 0, 85, 0
2, 54721, Control_c, 0, 11, 57
2, 54721, Note_on_c, 0, 85, 81
2, 54785, Control_c, 0, 11, 58
2, 54849, Control_c, 0, 11, 59
2, 54913, Control_c, 0, 11, 60
2, 54961, Note_on_c, 0, 85, 0
2, 54961, Note_on_c, 0, 86, 81
2, 54977, Control_c, 0, 11, 61
2, 55041, Control_c, 0, 11, 62
2, 55105, Control_c, 0, 11, 62
2, 55169, Control_c, 0, 11, 63
2, 55233, Control_c, 0, 11, 63
2, 55297, Control_c, 0, 11, 64
2, 55361, Control_c, 0, 11, 65
2, 55425, Control_c, 0, 11, 65
2, 55441, Note_on_c, 0, 86, 0
2, 55441, Note_on_c, 0, 88, 81
2, 55489, Control_c, 0, 11, 66
2, 55553, Control_c, 0, 11, 66
2, 55617, Control_c, 0, 11, 67
2, 55681, Control_c, 0, 11, 68
2, 55745, Control_c, 0, 11, 68
2, 55801, Note_on_c, 0, 88, 0
2, 55801, Note_on_c, 0, 88, 81
2, 55809, Control_c, 0, 11, 69
2, 55873, Control_c, 0, 11, 70
2, 55921, Note_on_c, 0, 88, 0
2, 55921, Note_on_c, 0, 91, 81
2, 55937, Control_c, 0, 11, 70
2, 56001, Control_c, 0, 11, 71
2, 56041, Note_on_c, 0, 91, 0
2, 56041, Note_on_c, 0, 89, 81
2, 56065, Control_c, 0, 11, 71
2, 56129, Control_c, 0, 11, 72
2, 56161, Note_on_c, 0, 89, 0
2, 56193, Control_c, 0, 11, 73
2, 56257, Control_c, 0, 11, 73
2, 56281, Control_c, 0, 1, 0
2, 56281, Note_on_c, 0, 89, 81
2, 56321, Control_c, 0, 11, 74
2, 56385, Control_c, 0, 11, 74
2, 56401, Note_on_c, 0, 89, 0
2, 56401, Note_on_c, 0, 87, 81
2, 56449, Control_c, 0, 11, 75
2, 56513, Control_c, 0, 11, 76
2, 56521, Note_on_c, 0, 87, 0
2, 56521, Note_on_c, 0, 84, 81
2, 56577, Control_c, 0, 11, 76
2, 56641, Note_on_c, 0, 84, 0
2, 56641, Control_c, 0, 11, 77
2, 56641, Note_on_c, 0, 82, 67
2, 56761, Note_on_c, 0, 82, 0
2, 63961, Control_c, 0, 11, 77
2, 63961, Note_on_c, 0, 84, 91
2, 64081, Note_on_c, 0, 84, 0
2, 64081, Note_on_c, 0, 81, 91
2, 64201, Note_on_c, 0, 81, 0
2, 64201, Note_on_c, 0, 78, 91
2, 64321, Note_on_c, 0, 78, 0
2, 64321, Note_on_c, 0, 79, 91
2, 64441, Note_on_c, 0, 79, 0
2, 64921, Note_on_c, 0, 86, 91
2, 65041, Note_on_c, 0, 86, 0
2, 65041, Note_on_c, 0, 83, 91
2, 65161, Note_on_c, 0, 83, 0
2, 65161, Note_on_c, 0, 80, 91
2, 65281, Note_on_c, 0, 80, 0
2, 65281, Control_c, 0, 11, 82
2, 65281, Note_on_c, 0, 81, 91
2, 65631, Note_on_c, 0, 81, 0
2, 65641, Note_on_c, 0, 81, 91
2, 65751, Note_on_c, 0, 81, 0
2, 65761, Note_on_c, 0, 83, 91
2, 66111, Note_on_c, 0, 83, 0
2, 66121, Note_on_c, 0, 83, 91
2, 66231, Note_on_c, 0, 83, 0
2, 66241, Note_on_c, 0, 84, 91
2, 66591, Note_on_c, 0, 84, 0
2, 66601, Note_on_c, 0, 84, 91
2, 66711, Note_on_c, 0, 84, 0
2, 66721, Note_on_c, 0, 86, 91
2, 67071, Note_on_c, 0, 86, 0
2, 67081, Note_on_c, 0, 86, 91
2, 67191, Note_on_c, 0, 86, 0
2, 67201, Note_on_c, 0, 84, 91
2, 67201, Note_on_c, 0, 88, 91
2, 67551, Note_on_c, 0, 88, 0
2, 67551, Note_on_c, 0, 84, 0
2, 67561, Note_on_c, 0, 88, 91
2, 67561, Note_on_c, 0, 84, 91
2, 67671, Note_on_c, 0, 84, 0
2, 67671, Note_on_c, 0, 88, 0
2, 67681, Note_on_c, 0, 90, 91
2, 67681, Note_on_c, 0, 84, 91
2, 68031, Note_on_c, 0, 84, 0
2, 68031, Note_on_c, 0, 90, 0
2, 68041, Note_on_c, 0, 84, 91
2, 68041, Note_on_c, 0, 90, 91
2, 68151, Note_on_c, 0, 90, 0
2, 68151, Note_on_c, 0, 84, 0
2, 68161, Control_c, 0, 11, 86
2, 68161, Note_on_c, 0, 91, 91
2, 68161, Note_on_c, 0, 79, 91
2, 70321, Note_on_c, 0, 79, 0
2, 70321, Note_on_c, 0, 91, 0
2, 70321, Note_on_c, 0, 79, 91
2, 70321, Note_on_c, 0, 91, 91
2, 70801, Note_on_c, 0, 91, 0
2, 70801, Note_on_c, 0, 79, 0
2, 70801, Note_on_c, 0, 79, 91
2, 70801, Note_on_c, 0, 91, 91
2, 71401, Note_on_c, 0, 91, 0
2, 71401, Note_on_c, 0, 79, 0
2, 71401, Note_on_c, 0, 78, 91
2, 71401, Note_on_c, 0, 90, 91
2, 71521, Note_on_c, 0, 90, 0
2, 71521, Note_on_c, 0, 78, 0
2, 71521, Note_on_c, 0, 88, 91
2, 71521, Note_on_c, 0, 76, 91
2, 71641, Note_on_c, 0, 76, 0
2, 71641, Note_on_c, 0, 88, 0
2, 71641, Note_on_c, 0, 86, 91
2, 71641, Note_on_c, 0, 74, 91
2, 71761, Note_on_c, 0, 74, 0
2, 71761, Note_on_c, 0, 86, 0
2, 71761, Note_on_c, 0, 72, 91
2, 71761, Note_on_c, 0, 84, 91
2, 71881, Note_on_c, 0, 84, 0
2, 71881, Note_on_c, 0, 72, 0
2, 71881, Note_on_c, 0, 83, 91
2, 71881, Note_on_c, 0, 71, 91
2, 71991, Note_on_c, 0, 71, 0
2, 71991, Note_on_c, 0, 83, 0
2, 72001, Note_on_c, 0, 81, 91
2, 72001, Note_on_c, 0, 69, 91
2, 72111, Note_on_c, 0, 69, 0
2, 72111, Note_on_c, 0, 81, 0
2, 72121, Note_on_c, 0, 81, 91
2, 72351, Note_on_c, 0, 81, 0
2, 72361, Note_on_c, 0, 81, 91
2, 72591, Note_on_c, 0, 81, 0
2, 72601, Note_on_c, 0, 81, 91
2, 72831, Note_on_c, 0, 81, 0
2, 72841, Note_on_c, 0, 81, 91
2, 73071, Note_on_c, 0, 81, 0
2, 73081, Note_on_c, 0, 81, 91
2, 73311, Note_on_c, 0, 81, 0
2, 74881, Control_c, 0, 11, 77
2, 74881, Note_on_c, 0, 81, 91
2, 74991, Note_on_c, 0, 81, 0
2, 75001, Note_on_c, 0, 81, 91
2, 75231, Note_on_c, 0, 81, 0
2, 75241, Note_on_c, 0, 81, 91
2, 75471, Note_on_c, 0, 81, 0
2, 75481, Note_on_c, 0, 81, 91
2, 75711, Note_on_c, 0, 81, 0
2, 75721, Note_on_c, 0, 81, 91
2, 75951, Note_on_c, 0, 81, 0
2, 75961, Note_on_c, 0, 81, 91
2, 76191, Note_on_c, 0, 81, 0
2, 76921, Note_on_c, 0, 81, 91
2, 76921, Note_on_c, 0, 88, 91
2, 76981, Note_on_c, 0, 88, 0
2, 76981, Note_on_c, 0, 81, 0
2, 77041, Note_on_c, 0, 81, 91
2, 77041, Note_on_c, 0, 88, 91
2, 77101, Note_on_c, 0, 88, 0
2, 77101, Note_on_c, 0, 81, 0
2, 77881, Note_on_c, 0, 86, 91
2, 77881, Note_on_c, 0, 83, 91
2, 77941, Note_on_c, 0, 83, 0
2, 77941, Note_on_c, 0, 86, 0
2, 78001, Note_on_c, 0, 83, 91
2, 78001, Note_on_c, 0, 86, 91
2, 78061, Note_on_c, 0, 86, 0
2, 78061, Note_on_c, 0, 83, 0
2, 79081, Control_c, 0, 11, 89
2, 79081, Note_on_c, 0, 90, 91
2, 79099, Control_c, 0, 11, 87
2, 79117, Control_c, 0, 11, 86
2, 79135, Control_c, 0, 11, 84
2, 79153, Control_c, 0, 11, 82
2, 79171, Control_c, 0, 11, 80
2, 79189, Control_c, 0, 11, 78
2, 79201, Note_on_c, 0, 90, 0
2, 79201, Note_on_c, 0, 91, 91
2, 79306, Note_on_c, 0, 91, 0
2, 79321, Note_on_c, 0, 85, 91
2, 79381, Note_on_c, 0, 85, 0
2, 79441, Note_on_c, 0, 86, 91
2, 79501, Note_on_c, 0, 86, 0
2, 79561, Note_on_c, 0, 82, 91
2, 79561, Note_on_c, 0, 91, 91
2, 79621, Note_on_c, 0, 91, 0
2, 79621, Note_on_c, 0, 82, 0
2, 79681, Note_on_c, 0, 83, 91
2, 79681, Note_on_c, 0, 91, 91
2, 79741, Note_on_c, 0, 91, 0
2, 79741, Note_on_c, 0, 83, 0
2, 79801, Note_on_c, 0, 82, 91
2, 79801, Note_on_c, 0, 91, 91
2, 79861, Note_on_c, 0, 91, 0
2, 79861, Note_on_c, 0, 82, 0
2, 79921, Note_on_c, 0, 91, 91
2, 79921, Note_on_c, 0, 83, 91
2, 79981, Note_on_c, 0, 83, 0
2, 79981, Note_on_c, 0, 91, 0
2, 80041, Note_on_c, 0, 91, 91
2, 80041, Note_on_c, 0, 84, 91
2, 80101, Note_on_c, 0, 84, 0
2, 80101, Note_on_c, 0, 91, 0
2, 80161, Note_on_c, 0, 85, 91
2, 80161, Note_on_c, 0, 91, 91
2, 80221, Note_on_c, 0, 91, 0
2, 80221, Note_on_c, 0, 85, 0
2, 80281, Note_on_c, 0, 91, 91
2, 80281, Note_on_c, 0, 86, 91
2, 80341, Note_on_c, 0, 86, 0
2, 80341, Note_on_c, 0, 91, 0
2, 80401, Note_on_c, 0, 91, 91
2, 80401, Note_on_c, 0, 87, 91
2, 80461, Note_on_c, 0, 87, 0
2, 80461, Note_on_c, 0, 91, 0
2, 80521, Note_on_c, 0, 91, 91
2, 80521, Note_on_c, 0, 88, 91
2, 80581, Note_on_c, 0, 88, 0
2, 80581, Note_on_c, 0, 91, 0
2, 80641, Note_on_c, 0, 89, 91
2, 80641, Note_on_c, 0, 91, 91
2, 80701, Note_on_c, 0, 91, 0
2, 80701, Note_on_c, 0, 89, 0
2, 80761, Note_on_c, 0, 90, 91
2, 80761, Note_on_c, 0, 91, 91
2, 80821, Note_on_c, 0, 91, 0
2, 80821, Note_on_c, 0, 90, 0
2, 80881, Note_on_c, 0, 91, 91
2, 80941, Note_on_c, 0, 91, 0
2, 81001, Note_on_c, 0, 85, 91
2, 81001, Note_on_c, 0, 73, 91
2, 81061, Note_on_c, 0, 73, 0
2, 81061, Note_on_c, 0, 85, 0
2, 81121, Note_on_c, 0, 74, 91
2, 81121, Note_on_c, 0, 86, 91
2, 81181, Note_on_c, 0, 86, 0
2, 81181, Note_on_c, 0, 74, 0
2, 81241, Note_on_c, 0, 73, 91
2, 81241, Note_on_c, 0, 85, 91
2, 81301, Note_on_c, 0, 85, 0
2, 81301, Note_on_c, 0, 73, 0
2, 81361, Note_on_c, 0, 86, 91
2, 81361, Note_on_c, 0, 74, 91
2, 81421, Note_on_c, 0, 74, 0
2, 81421, Note_on_c, 0, 86, 0
2, 81481, Note_on_c, 0, 86, 91
2, 81481, Note_on_c, 0, 74, 91
2, 81541, Note_on_c, 0, 74, 0
2, 81541, Note_on_c, 0, 86, 0
2, 81601, Note_on_c, 0, 79, 91
2, 81601, Note_on_c, 0, 67, 91
2, 81721, Note_on_c, 0, 67, 0
2, 81721, Note_on_c, 0, 79, 0
2, 81961, Control_c, 0, 11, 54
2, 81961, Note_on_c, 0, 91, 91
2, 82081, Note_on_c, 0, 91, 0
2, 82081, Note_on_c, 0, 90, 91
2, 82201, Note_on_c, 0, 90, 0
2, 82201, Note_on_c, 0, 91, 91
2, 82321, Note_on_c, 0, 91, 0
2, 82321, Note_on_c, 0, 86, 91
2, 82441, Note_on_c, 0, 86, 0
2, 82441, Note_on_c, 0, 88, 91
2, 82551, Note_on_c, 0, 88, 0
2, 82561, Note_on_c, 0, 88, 91
2, 82681, Note_on_c, 0, 88, 0
2, 82681, Note_on_c, 0, 86, 91
2, 82801, Note_on_c, 0, 86, 0
2, 82921, Note_on_c, 0, 86, 91
2, 82981, Note_on_c, 0, 86, 0
2, 83041, Note_on_c, 0, 84, 91
2, 83161, Note_on_c, 0, 84, 0
2, 83161, Note_on_c, 0, 83, 91
2, 83281, Note_on_c, 0, 83, 0
2, 83401, Control_c, 0, 11, 54
2, 83401, Note_on_c, 0, 83, 91
2, 83461, Note_on_c, 0, 83, 0
2, 83493, Control_c, 0, 11, 53
2, 83521, Note_on_c, 0, 81, 91
2, 83586, Control_c, 0, 11, 52
2, 83641, Note_on_c, 0, 81, 0
2, 83641, Note_on_c, 0, 79, 91
2, 83679, Control_c, 0, 11, 51
2, 83771, Control_c, 0, 11, 50
2, 83864, Control_c, 0, 11, 49
2, 83957, Control_c, 0, 11, 48
2, 84050, Control_c, 0, 11, 47
2, 84142, Control_c, 0, 11, 46
2, 84235, Control_c, 0, 11, 45
2, 84328, Control_c, 0, 11, 44
2, 84421, Control_c, 0, 11, 43
2, 84513, Control_c, 0, 11, 42
2, 84606, Control_c, 0, 11, 41
2, 84699, Control_c, 0, 11, 40
2, 84791, Control_c, 0, 11, 39
2, 84884, Control_c, 0, 11, 38
2, 84977, Control_c, 0, 11, 37
2, 85070, Control_c, 0, 11, 36
2, 85162, Control_c, 0, 11, 35
2, 85255, Control_c, 0, 11, 34
2, 85348, Control_c, 0, 11, 33
2, 85441, Control_c, 0, 11, 32
2, 85841, Control_c, 0, 11, 32
2, 85854, Control_c, 0, 11, 29
2, 85868, Control_c, 0, 11, 26
2, 85881, Control_c, 0, 11, 23
2, 85886, Note_on_c, 0, 79, 0
2, 86401, Control_c, 0, 11, 65
2, 86401, Note_on_c, 0, 86, 91
2, 86401, Note_on_c, 0, 77, 91
2, 86405, Control_c, 0, 11, 68
2, 86409, Control_c, 0, 11, 71
2, 86414, Control_c, 0, 11, 74
2, 86418, Control_c, 0, 11, 77
2, 86422, Control_c, 0, 11, 80
2, 86426, Control_c, 0, 11, 83
2, 86430, Control_c, 0, 11, 86
2, 86791, Control_c, 0, 11, 86
2, 86796, Control_c, 0, 11, 83
2, 86802, Control_c, 0, 11, 80
2, 86808, Control_c, 0, 11, 77
2, 86812, Control_c, 0, 11, 74
2, 86818, Control_c, 0, 11, 71
2, 86824, Control_c, 0, 11, 68
2, 86829, Control_c, 0, 11, 65
2, 86831, Note_on_c, 0, 77, 0
2, 86831, Note_on_c, 0, 86, 0
2, 90001, Control_c, 0, 11, 59
2, 90001, Note_on_c, 0, 83, 91
2, 90025, Control_c, 0, 11, 57
2, 90044, Control_c, 0, 11, 55
2, 90061, Note_on_c, 0, 83, 0
2, 90061, Note_on_c, 0, 82, 91
2, 90063, Control_c, 0, 11, 53
2, 90082, Control_c, 0, 11, 51
2, 90101, Control_c, 0, 11, 49
2, 90121, Note_on_c, 0, 82, 0
2, 90121, Control_c, 0, 11, 47
2, 90736, Note_on_c, 0, 79, 86
2, 90746, Note_on_c, 0, 79, 0
2, 90751, Note_on_c, 0, 79, 95
2, 90761, Note_on_c, 0, 79, 0
2, 90766, Note_on_c, 0, 79, 104
2, 90776, Note_on_c, 0, 79, 0
2, 90781, Note_on_c, 0, 79, 113
2, 90806, Note_on_c, 0, 79, 0
2, 90811, Note_on_c, 0, 79, 86
2, 90836, Note_on_c, 0, 79, 0
2, 90871, Control_c, 0, 11, 52
2, 90895, Control_c, 0, 11, 54
2, 90919, Control_c, 0, 11, 56
2, 90943, Control_c, 0, 11, 58
2, 90967, Control_c, 0, 11, 60
2, 90991, Control_c, 0, 11, 62
2, 91015, Control_c, 0, 11, 63
2, 91039, Control_c, 0, 11, 64
2, 91051, Note_on_c, 0, 84, 91
2, 91063, Control_c, 0, 11, 65
2, 91081, Note_on_c, 0, 84, 0
2, 91087, Control_c, 0, 11, 66
2, 91111, Control_c, 0, 11, 68
2, 91111, Note_on_c, 0, 88, 91
2, 91135, Control_c, 0, 11, 69
2, 91141, Note_on_c, 0, 88, 0
2, 91159, Control_c, 0, 11, 70
2, 91171, Note_on_c, 0, 84, 91
2, 91171, Note_on_c, 0, 91, 91
2, 91196, Note_on_c, 0, 91, 0
2, 91196, Note_on_c, 0, 84, 0
2, 91201, Control_c, 0, 11, 37
2, 91201, Note_on_c, 0, 89, 91
2, 91201, Note_on_c, 0, 84, 91
2, 91204, Control_c, 0, 11, 40
2, 91207, Control_c, 0, 11, 43
2, 91210, Control_c, 0, 11, 46
2, 91213, Control_c, 0, 11, 49
2, 91216, Control_c, 0, 11, 52
2, 91261, Note_on_c, 0, 84, 0
2, 91261, Note_on_c, 0, 89, 0
2, 91816, Note_on_c, 0, 84, 86
2, 91826, Note_on_c, 0, 84, 0
2, 91831, Note_on_c, 0, 84, 95
2, 91841, Note_on_c, 0, 84, 0
2, 91846, Note_on_c, 0, 84, 104
2, 91856, Note_on_c, 0, 84, 0
2, 91861, Note_on_c, 0, 84, 113
2, 91886, Note_on_c, 0, 84, 0
2, 91891, Note_on_c, 0, 84, 86
2, 91916, Note_on_c, 0, 84, 0
2, 91951, Control_c, 0, 11, 47
2, 91975, Control_c, 0, 11, 49
2, 91999, Control_c, 0, 11, 51
2, 92023, Control_c, 0, 11, 53
2, 92047, Control_c, 0, 11, 55
2, 92071, Control_c, 0, 11, 57
2, 92095, Control_c, 0, 11, 59
2, 92119, Control_c, 0, 11, 61
2, 92131, Note_on_c, 0, 86, 91
2, 92143, Control_c, 0, 11, 62
2, 92161, Note_on_c, 0, 86, 0
2, 92167, Control_c, 0, 11, 63
2, 92191, Control_c, 0, 11, 65
2, 92191, Note_on_c, 0, 84, 91
2, 92191, Note_on_c, 0, 90, 91
2, 92215, Control_c, 0, 11, 66
2, 92221, Note_on_c, 0, 90, 0
2, 92221, Note_on_c, 0, 84, 0
2, 92239, Control_c, 0, 11, 67
2, 92251, Note_on_c, 0, 93, 91
2, 92251, Note_on_c, 0, 84, 91
2, 92276, Note_on_c, 0, 84, 0
2, 92276, Note_on_c, 0, 93, 0
2, 92401, Control_c, 0, 1, 18
2, 92401, Control_c, 0, 11, 42
2, 92401, Note_on_c, 0, 83, 91
2, 92410, Control_c, 0, 11, 45
2, 92419, Control_c, 0, 11, 48
2, 92428, Control_c, 0, 11, 51
2, 92521, Note_on_c, 0, 83, 0
2, 92521, Note_on_c, 0, 81, 91
2, 92641, Note_on_c, 0, 81, 0
2, 92641, Control_c, 0, 11, 42
2, 92641, Note_on_c, 0, 79, 91
2, 92657, Control_c, 0, 11, 43
2, 92673, Control_c, 0, 11, 44
2, 92689, Control_c, 0, 11, 45
2, 92705, Control_c, 0, 11, 46
2, 92721, Control_c, 0, 11, 47
2, 92737, Control_c, 0, 11, 48
2, 92753, Control_c, 0, 11, 49
2, 92756, Note_on_c, 0, 79, 0
2, 92761, Note_on_c, 0, 86, 91
2, 92769, Control_c, 0, 11, 50
2, 92785, Control_c, 0, 11, 51
2, 92801, Control_c, 0, 11, 52
2, 92817, Control_c, 0, 11, 53
2, 92833, Control_c, 0, 11, 54
2, 92849, Control_c, 0, 11, 55
2, 92865, Control_c, 0, 11, 56
2, 92881, Note_on_c, 0, 86, 0
2, 92881, Control_c, 0, 11, 57
2, 92881, Note_on_c, 0, 84, 91
2, 92897, Control_c, 0, 11, 58
2, 92913, Control_c, 0, 11, 59
2, 92929, Control_c, 0, 11, 60
2, 92945, Control_c, 0, 11, 61
2, 92961, Control_c, 0, 11, 62
2, 92977, Control_c, 0, 11, 62
2, 92993, Control_c, 0, 11, 63
2, 93001, Note_on_c, 0, 84, 0
2, 93001, Note_on_c, 0, 83, 91
2, 93009, Control_c, 0, 11, 63
2, 93025, Control_c, 0, 11, 64
2, 93041, Control_c, 0, 11, 65
2, 93057, Control_c, 0, 11, 65
2, 93073, Control_c, 0, 11, 66
2, 93089, Control_c, 0, 11, 66
2, 93105, Control_c, 0, 11, 67
2, 93116, Note_on_c, 0, 83, 0
2, 93121, Control_c, 0, 11, 68
2, 93121, Note_on_c, 0, 89, 91
2, 93137, Control_c, 0, 11, 68
2, 93153, Control_c, 0, 11, 69
2, 93169, Control_c, 0, 11, 70
2, 93185, Control_c, 0, 11, 70
2, 93201, Control_c, 0, 11, 71
2, 93217, Control_c, 0, 11, 71
2, 93233, Control_c, 0, 11, 72
2, 93241, Note_on_c, 0, 89, 0
2, 93241, Note_on_c, 0, 88, 91
2, 93249, Control_c, 0, 11, 73
2, 93265, Control_c, 0, 11, 73
2, 93281, Control_c, 0, 11, 74
2, 93297, Control_c, 0, 11, 74
2, 93313, Control_c, 0, 11, 75
2, 93329, Control_c, 0, 11, 76
2, 93345, Control_c, 0, 11, 76
2, 93356, Note_on_c, 0, 88, 0
2, 93361, Control_c, 0, 11, 77
2, 93361, Note_on_c, 0, 86, 91
2, 93377, Control_c, 0, 11, 78
2, 93393, Control_c, 0, 11, 79
2, 93409, Control_c, 0, 11, 81
2, 93425, Control_c, 0, 11, 82
2, 93441, Control_c, 0, 11, 83
2, 93457, Control_c, 0, 11, 84
2, 93466, Note_on_c, 0, 86, 0
2, 93466, Note_on_c, 0, 93, 91
2, 93473, Control_c, 0, 11, 86
2, 93476, Note_on_c, 0, 93, 0
2, 93481, Note_on_c, 0, 93, 91
2, 93489, Control_c, 0, 11, 85
2, 93507, Control_c, 0, 11, 82
2, 93524, Control_c, 0, 11, 80
2, 93542, Control_c, 0, 11, 78
2, 93559, Control_c, 0, 11, 75
2, 93577, Control_c, 0, 11, 73
2, 93594, Control_c, 0, 11, 70
2, 93611, Control_c, 0, 11, 68
2, 93629, Control_c, 0, 11, 65
2, 93646, Control_c, 0, 11, 63
2, 93661, Note_on_c, 0, 93, 0
2, 93661, Note_on_c, 0, 91, 91
2, 93664, Control_c, 0, 11, 60
2, 93677, Control_c, 0, 11, 57
2, 93690, Control_c, 0, 11, 54
2, 93703, Control_c, 0, 11, 51
2, 93716, Note_on_c, 0, 91, 0
2, 93716, Control_c, 0, 11, 48
2, 93721, Note_on_c, 0, 89, 90
2, 93748, Control_c, 0, 11, 46
2, 93776, Control_c, 0, 11, 45
2, 93781, Note_on_c, 0, 89, 0
2, 93781, Note_on_c, 0, 88, 89
2, 93804, Control_c, 0, 11, 44
2, 93831, Control_c, 0, 11, 43
2, 93841, Note_on_c, 0, 88, 0
2, 93841, Note_on_c, 0, 86, 88
2, 93859, Control_c, 0, 11, 42
2, 93887, Control_c, 0, 11, 41
2, 93901, Note_on_c, 0, 86, 0
2, 93901, Note_on_c, 0, 84, 87
2, 93914, Control_c, 0, 11, 40
2, 93942, Control_c, 0, 11, 39
2, 93961, Note_on_c, 0, 84, 0
2, 93961, Note_on_c, 0, 83, 86
2, 93970, Control_c, 0, 11, 38
2, 93997, Control_c, 0, 11, 37
2, 94021, Note_on_c, 0, 83, 0
2, 94021, Note_on_c, 0, 81, 85
2, 94025, Control_c, 0, 11, 36
2, 94053, Control_c, 0, 11, 35
2, 94076, Note_on_c, 0, 81, 0
2, 94426, Control_c, 0, 11, 32
2, 97321, Control_c, 0, 1, 0
2, 97321, Control_c, 0, 11, 74
2, 97321, Note_on_c, 0, 89, 91
2, 97321, Note_on_c, 0, 86, 91
2, 97354, Control_c, 0, 11, 75
2, 97383, Control_c, 0, 11, 76
2, 97412, Control_c, 0, 11, 76
2, 97431, Note_on_c, 0, 86, 0
2, 97431, Note_on_c, 0, 89, 0
2, 97441, Control_c, 0, 11, 77
2, 97441, Note_on_c, 0, 89, 91
2, 97441, Note_on_c, 0, 86, 91
2, 97551, Note_on_c, 0, 86, 0
2, 97551, Note_on_c, 0, 89, 0
2, 97561, Note_on_c, 0, 89, 91
2, 97561, Note_on_c, 0, 86, 91
2, 97671, Note_on_c, 0, 86, 0
2, 97671, Note_on_c, 0, 89, 0
2, 97681, Note_on_c, 0, 89, 91
2, 97681, Note_on_c, 0, 86, 91
2, 97791, Note_on_c, 0, 86, 0
2, 97791, Note_on_c, 0, 89, 0
2, 97801, Note_on_c, 0, 89, 91
2, 97801, Note_on_c, 0, 86, 91
2, 97911, Note_on_c, 0, 86, 0
2, 97911, Note_on_c, 0, 89, 0
2, 97921, Control_c, 0, 11, 77
2, 97921, Note_on_c, 0, 86, 91
2, 97921, Note_on_c, 0, 89, 91
2, 98013, Control_c, 0, 11, 78
2, 98031, Note_on_c, 0, 89, 0
2, 98031, Note_on_c, 0, 86, 0
2, 98041, Note_on_c, 0, 89, 91
2, 98041, Note_on_c, 0, 86, 91
2, 98105, Control_c, 0, 11, 78
2, 98151, Note_on_c, 0, 86, 0
2, 98151, Note_on_c, 0, 89, 0
2, 98161, Note_on_c, 0, 86, 91
2, 98161, Note_on_c, 0, 89, 91
2, 98197, Control_c, 0, 11, 79
2, 98271, Note_on_c, 0, 89, 0
2, 98271, Note_on_c, 0, 86, 0
2, 98281, Note_on_c, 0, 89, 91
2, 98281, Note_on_c, 0, 86, 91
2, 98289, Control_c, 0, 11, 79
2, 98381, Control_c, 0, 11, 80
2, 98391, Note_on_c, 0, 86, 0
2, 98391, Note_on_c, 0, 89, 0
2, 98401, Note_on_c, 0, 89, 91
2, 98401, Note_on_c, 0, 86, 91
2, 98473, Control_c, 0, 11, 81
2, 98511, Note_on_c, 0, 86, 0
2, 98511, Note_on_c, 0, 89, 0
2, 98521, Note_on_c, 0, 89, 91
2, 98521, Note_on_c, 0, 86, 91
2, 98565, Control_c, 0, 11, 81
2, 98631, Note_on_c, 0, 86, 0
2, 98631, Note_on_c, 0, 89, 0
2, 98641, Note_on_c, 0, 86, 91
2, 98641, Note_on_c, 0, 89, 91
2, 98657, Control_c, 0, 11, 82
2, 98749, Control_c, 0, 11, 82
2, 98751, Note_on_c, 0, 89, 0
2, 98751, Note_on_c, 0, 86, 0
2, 98761, Note_on_c, 0, 86, 91
2, 98761, Note_on_c, 0, 89, 91
2, 98841, Control_c, 0, 11, 83
2, 98871, Note_on_c, 0, 89, 0
2, 98871, Note_on_c, 0, 86, 0
2, 98881, Note_on_c, 0, 86, 91
2, 98881, Note_on_c, 0, 89, 91
2, 98933, Control_c, 0, 11, 84
2, 98991, Note_on_c, 0, 89, 0
2, 98991, Note_on_c, 0, 86, 0
2, 99001, Note_on_c, 0, 86, 91
2, 99001, Note_on_c, 0, 89, 91
2, 99025, Control_c, 0, 11, 84
2, 99111, Note_on_c, 0, 89, 0
2, 99111, Note_on_c, 0, 86, 0
2, 99117, Control_c, 0, 11, 85
2, 99121, Note_on_c, 0, 84, 91
2, 99121, Note_on_c, 0, 88, 91
2, 99209, Control_c, 0, 11, 86
2, 99231, Note_on_c, 0, 88, 0
2, 99231, Note_on_c, 0, 84, 0
2, 99241, Note_on_c, 0, 84, 91
2, 99241, Note_on_c, 0, 88, 91
2, 99301, Control_c, 0, 11, 86
2, 99361, Note_on_c, 0, 88, 0
2, 99361, Note_on_c, 0, 84, 0
2, 99481, Note_on_c, 0, 88, 91
2, 99481, Note_on_c, 0, 84, 91
2, 99601, Note_on_c, 0, 84, 0
2, 99601, Note_on_c, 0, 88, 0
2, 99721, Note_on_c, 0, 84, 91
2, 99721, Note_on_c, 0, 88, 91
2, 99841, Note_on_c, 0, 88, 0
2, 99841, Note_on_c, 0, 84, 0
2, 99841, Note_on_c, 0, 88, 91
2, 99841, Note_on_c, 0, 84, 91
2, 99961, Note_on_c, 0, 84, 0
2, 99961, Note_on_c, 0, 88, 0
2, 99961, Note_on_c, 0, 84, 91
2, 99961, Note_on_c, 0, 88, 91
2, 100081, Note_on_c, 0, 88, 0
2, 100081, Note_on_c, 0, 84, 0
2, 100081, Note_on_c, 0, 88, 91
2, 100081, Note_on_c, 0, 84, 91
2, 100681, Note_on_c, 0, 84, 0
2, 100681, Note_on_c, 0, 88, 0
2, 100681, Note_on_c, 0, 89, 91
2, 100681, Note_on_c, 0, 84, 91
2, 100801, Note_on_c, 0, 84, 0
2, 100801, Note_on_c, 0, 89, 0
2, 100801, Note_on_c, 0, 84, 91
2, 100801, Note_on_c, 0, 88, 91
2, 100921, Note_on_c, 0, 88, 0
2, 100921, Note_on_c, 0, 84, 0
2, 100921, Note_on_c, 0, 88, 91
2, 100921, Note_on_c, 0, 84, 91
2, 101041, Note_on_c, 0, 84, 0
2, 101041, Note_on_c, 0, 88, 0
2, 101041, Note_on_c, 0, 88, 91
2, 101041, Note_on_c, 0, 84, 91
2, 101641, Note_on_c, 0, 84, 0
2, 101641, Note_on_c, 0, 88, 0
2, 101641, Note_on_c, 0, 89, 91
2, 101641, Note_on_c, 0, 84, 91
2, 101761, Note_on_c, 0, 84, 0
2, 101761, Note_on_c, 0, 89, 0
2, 101761, Note_on_c, 0, 88, 91
2, 101761, Note_on_c, 0, 84, 91
2, 101881, Note_on_c, 0, 84, 0
2, 101881, Note_on_c, 0, 88, 0
2, 102121, Note_on_c, 0, 88, 91
2, 102121, Note_on_c, 0, 84, 91
2, 102241, Note_on_c, 0, 84, 0
2, 102241, Note_on_c, 0, 88, 0
2, 102241, Note_on_c, 0, 88, 91
2, 102241, Note_on_c, 0, 84, 91
2, 102361, Note_on_c, 0, 84, 0
2, 102361, Note_on_c, 0, 88, 0
2, 102601, Note_on_c, 0, 84, 91
2, 102601, Note_on_c, 0, 88, 91
2, 102721, Note_on_c, 0, 88, 0
2, 102721, Note_on_c, 0, 84, 0
2, 102721, Note_on_c, 0, 86, 91
2, 102721, Note_on_c, 0, 84, 91
2, 102841, Note_on_c, 0, 84, 0
2, 102841, Note_on_c, 0, 86, 0
2, 103081, Note_on_c, 0, 84, 91
2, 103081, Note_on_c, 0, 86, 91
2, 103201, Note_on_c, 0, 86, 0
2, 103201, Note_on_c, 0, 84, 0
2, 103201, Note_on_c, 0, 83, 91
2, 103201, Note_on_c, 0, 89, 91
2, 103321, Note_on_c, 0, 89, 0
2, 103321, Note_on_c, 0, 83, 0
2, 103561, Note_on_c, 0, 89, 91
2, 103561, Note_on_c, 0, 83, 91
2, 103681, Note_on_c, 0, 83, 0
2, 103681, Note_on_c, 0, 89, 0
2, 103681, Note_on_c, 0, 84, 91
2, 103681, Note_on_c, 0, 88, 91
2, 103801, Note_on_c, 0, 88, 0
2, 103801, Note_on_c, 0, 84, 0
2, 104041, Note_on_c, 0, 88, 91
2, 104041, Note_on_c, 0, 84, 91
2, 104161, Note_on_c, 0, 84, 0
2, 104161, Note_on_c, 0, 88, 0
2, 104161, Note_on_c, 0, 88, 91
2, 104161, Note_on_c, 0, 84, 91
2, 104281, Note_on_c, 0, 84, 0
2, 104281, Note_on_c, 0, 88, 0
2, 104521, Note_on_c, 0, 88, 91
2, 104521, Note_on_c, 0, 84, 91
2, 104641, Note_on_c, 0, 84, 0
2, 104641, Note_on_c, 0, 88, 0
2, 104641, Note_on_c, 0, 86, 91
2, 104641, Note_on_c, 0, 84, 91
2, 104761, Note_on_c, 0, 84, 0
2, 104761, Note_on_c, 0, 86, 0
2, 105001, Note_on_c, 0, 84, 91
2, 105001, Note_on_c, 0, 86, 91
2, 105121, Note_on_c, 0, 86, 0
2, 105121, Note_on_c, 0, 84, 0
2, 105121, Note_on_c, 0, 86, 91
2, 105121, Note_on_c, 0, 84, 91
2, 105241, Note_on_c, 0, 84, 0
2, 105241, Note_on_c, 0, 86, 0
2, 105481, Note_on_c, 0, 84, 91
2, 105481, Note_on_c, 0, 86, 91
2, 105601, Note_on_c, 0, 86, 0
2, 105601, Note_on_c, 0, 84, 0
2, 105601, Note_on_c, 0, 86, 91
2, 105601, Note_on_c, 0, 84, 91
2, 105721, Note_on_c, 0, 84, 0
2, 105721, Note_on_c, 0, 86, 0
2, 105961, Note_on_c, 0, 84, 91
2, 105961, Note_on_c, 0, 86, 91
2, 106081, Note_on_c, 0, 86, 0
2, 106081, Note_on_c, 0, 84, 0
2, 106081, Note_on_c, 0, 86, 91
2, 106081, Note_on_c, 0, 84, 91
2, 106201, Note_on_c, 0, 84, 0
2, 106201, Note_on_c, 0, 86, 0
2, 106441, Note_on_c, 0, 84, 91
2, 106441, Note_on_c, 0, 86, 91
2, 106561, Note_on_c, 0, 86, 0
2, 106561, Note_on_c, 0, 84, 0
2, 106561, Note_on_c, 0, 83, 76
2, 106561, Note_on_c, 0, 86, 76
2, 106681, Note_on_c, 0, 86, 0
2, 106681, Note_on_c, 0, 83, 0
2, 110521, Control_c, 0, 1, 16
2, 110521, Control_c, 0, 11, 52
2, 110521, Note_on_c, 0, 86, 101
2, 110751, Note_on_c, 0, 86, 0
2, 110761, Note_on_c, 0, 88, 101
2, 110991, Note_on_c, 0, 88, 0
2, 111001, Note_on_c, 0, 89, 101
2, 111231, Note_on_c, 0, 89, 0
2, 111241, Note_on_c, 0, 91, 101
2, 111351, Note_on_c, 0, 91, 0
2, 111361, Control_c, 0, 11, 71
2, 111361, Note_on_c, 0, 92, 101
2, 111389, Control_c, 0, 11, 70
2, 111418, Control_c, 0, 11, 70
2, 111447, Control_c, 0, 11, 69
2, 111476, Control_c, 0, 11, 68
2, 111505, Control_c, 0, 11, 68
2, 111533, Control_c, 0, 11, 67
2, 111562, Control_c, 0, 11, 66
2, 111591, Control_c, 0, 11, 66
2, 111620, Control_c, 0, 11, 65
2, 111649, Control_c, 0, 11, 65
2, 111677, Control_c, 0, 11, 64
2, 111706, Control_c, 0, 11, 63
2, 111735, Control_c, 0, 11, 63
2, 111764, Control_c, 0, 11, 62
2, 111793, Control_c, 0, 11, 62
2, 111821, Control_c, 0, 11, 61
2, 111850, Control_c, 0, 11, 60
2, 111879, Control_c, 0, 11, 59
2, 111908, Control_c, 0, 11, 58
2, 111937, Control_c, 0, 11, 57
2, 111965, Control_c, 0, 11, 56
2, 111994, Control_c, 0, 11, 55
2, 112023, Control_c, 0, 11, 54
2, 112052, Control_c, 0, 11, 53
2, 112081, Note_on_c, 0, 92, 0
2, 112081, Control_c, 0, 11, 52
2, 112081, Note_on_c, 0, 91, 101
2, 112201, Note_on_c, 0, 91, 0
2, 112201, Note_on_c, 0, 90, 101
2, 112311, Note_on_c, 0, 90, 0
2, 112321, Note_on_c, 0, 90, 101
2, 112551, Note_on_c, 0, 90, 0
2, 112561, Note_on_c, 0, 91, 101
2, 112921, Note_on_c, 0, 91, 0
2, 112921, Note_on_c, 0, 86, 101
2, 113041, Note_on_c, 0, 86, 0
2, 113041, Note_on_c, 0, 87, 101
2, 113161, Note_on_c, 0, 87, 0
2, 113161, Note_on_c, 0, 89, 101
2, 113271, Note_on_c, 0, 89, 0
2, 113281, Note_on_c, 0, 89, 101
2, 113521, Note_on_c, 0, 89, 0
2, 113521, Note_on_c, 0, 89, 84
2, 113551, Note_on_c, 0, 89, 0
2, 113551, Note_on_c, 0, 87, 84
2, 113581, Note_on_c, 0, 87, 0
2, 113581, Note_on_c, 0, 89, 84
2, 113611, Note_on_c, 0, 89, 0
2, 113611, Note_on_c, 0, 87, 84
2, 113641, Note_on_c, 0, 87, 0
2, 113641, Note_on_c, 0, 89, 84
2, 113671, Note_on_c, 0, 89, 0
2, 113671, Note_on_c, 0, 87, 84
2, 113701, Note_on_c, 0, 87, 0
2, 113701, Note_on_c, 0, 89, 84
2, 113731, Note_on_c, 0, 89, 0
2, 113731, Note_on_c, 0, 87, 84
2, 113751, Note_on_c, 0, 87, 0
2, 113761, Note_on_c, 0, 86, 84
2, 114001, Note_on_c, 0, 86, 0
2, 114001, Note_on_c, 0, 89, 84
2, 114241, Note_on_c, 0, 89, 0
2, 114241, Control_c, 0, 11, 71
2, 114241, Note_on_c, 0, 92, 84
2, 114279, Control_c, 0, 11, 70
2, 114317, Control_c, 0, 11, 70
2, 114356, Control_c, 0, 11, 69
2, 114394, Control_c, 0, 11, 68
2, 114433, Control_c, 0, 11, 68
2, 114471, Control_c, 0, 11, 67
2, 114509, Control_c, 0, 11, 66
2, 114548, Control_c, 0, 11, 66
2, 114586, Control_c, 0, 11, 65
2, 114625, Control_c, 0, 11, 65
2, 114663, Control_c, 0, 11, 64
2, 114701, Control_c, 0, 11, 63
2, 114740, Control_c, 0, 11, 63
2, 114778, Control_c, 0, 11, 62
2, 114817, Control_c, 0, 11, 62
2, 114855, Control_c, 0, 11, 61
2, 114893, Control_c, 0, 11, 60
2, 114932, Control_c, 0, 11, 59
2, 114961, Note_on_c, 0, 92, 0
2, 114961, Note_on_c, 0, 91, 84
2, 114970, Control_c, 0, 11, 58
2, 115009, Control_c, 0, 11, 57
2, 115047, Control_c, 0, 11, 56
2, 115081, Note_on_c, 0, 91, 0
2, 115081, Note_on_c, 0, 90, 84
2, 115085, Control_c, 0, 11, 55
2, 115124, Control_c, 0, 11, 54
2, 115162, Control_c, 0, 11, 53
2, 115191, Note_on_c, 0, 90, 0
2, 115201, Control_c, 0, 11, 52
2, 115201, Note_on_c, 0, 90, 84
2, 115255, Control_c, 0, 11, 53
2, 115310, Control_c, 0, 11, 54
2, 115365, Control_c, 0, 11, 55
2, 115420, Control_c, 0, 11, 56
2, 115431, Note_on_c, 0, 90, 0
2, 115441, Note_on_c, 0, 91, 84
2, 115475, Control_c, 0, 11, 57
2, 115530, Control_c, 0, 11, 58
2, 115585, Control_c, 0, 11, 59
2, 115639, Control_c, 0, 11, 60
2, 115694, Control_c, 0, 11, 61
2, 115749, Control_c, 0, 11, 62
2, 115804, Control_c, 0, 11, 62
2, 115859, Control_c, 0, 11, 63
2, 115911, Note_on_c, 0, 91, 0
2, 115914, Control_c, 0, 11, 63
2, 115921, Note_on_c, 0, 93, 84
2, 115969, Control_c, 0, 11, 64
2, 116023, Control_c, 0, 11, 65
2, 116078, Control_c, 0, 11, 65
2, 116133, Control_c, 0, 11, 66
2, 116188, Control_c, 0, 11, 66
2, 116221, Note_on_c, 0, 93, 0
2, 116243, Control_c, 0, 11, 67
2, 116298, Control_c, 0, 11, 68
2, 116353, Control_c, 0, 11, 68
2, 116401, Note_on_c, 0, 91, 84
2, 116407, Control_c, 0, 11, 69
2, 116462, Control_c, 0, 11, 70
2, 116517, Control_c, 0, 11, 70
2, 116521, Note_on_c, 0, 91, 0
2, 116572, Control_c, 0, 11, 71
2, 116627, Control_c, 0, 11, 71
2, 116682, Control_c, 0, 11, 72
2, 116737, Control_c, 0, 11, 73
2, 116761, Note_on_c, 0, 94, 84
2, 116791, Control_c, 0, 11, 73
2, 116846, Control_c, 0, 11, 74
2, 116881, Note_on_c, 0, 94, 0
2, 116881, Note_on_c, 0, 92, 84
2, 116901, Control_c, 0, 11, 74
2, 116956, Control_c, 0, 11, 75
2, 117001, Note_on_c, 0, 92, 0
2, 117001, Note_on_c, 0, 89, 84
2, 117011, Control_c, 0, 11, 76
2, 117066, Control_c, 0, 11, 76
2, 117111, Note_on_c, 0, 89, 0
2, 117121, Control_c, 0, 1, 0
2, 117121, Control_c, 0, 11, 77
2, 117121, Note_on_c, 0, 87, 84
2, 117241, Note_on_c, 0, 87, 0
2, 123841, Control_c, 0, 11, 52
2, 123841, Note_on_c, 0, 83, 76
2, 123901, Note_on_c, 0, 83, 0
2, 123961, Note_on_c, 0, 84, 76
2, 124021, Note_on_c, 0, 84, 0
2, 124081, Note_on_c, 0, 86, 76
2, 124141, Note_on_c, 0, 86, 0
2, 124201, Note_on_c, 0, 87, 76
2, 124261, Note_on_c, 0, 87, 0
2, 124321, Note_on_c, 0, 89, 76
2, 124441, Note_on_c, 0, 89, 0
2, 124441, Note_on_c, 0, 91, 76
2, 124561, Note_on_c, 0, 91, 0
2, 124561, Note_on_c, 0, 89, 76
2, 124681, Note_on_c, 0, 89, 0
2, 124681, Note_on_c, 0, 87, 76
2, 124801, Note_on_c, 0, 87, 0
2, 124801, Note_on_c, 0, 86, 76
2, 124921, Note_on_c, 0, 86, 0
2, 124921, Note_on_c, 0, 84, 76
2, 125041, Note_on_c, 0, 84, 0
2, 125041, Note_on_c, 0, 82, 76
2, 125161, Note_on_c, 0, 82, 0
2, 125161, Note_on_c, 0, 80, 76
2, 125281, Note_on_c, 0, 80, 0
2, 140161, Control_c, 0, 11, 77
2, 140161, Note_on_c, 0, 84, 76
2, 142081, Note_on_c, 0, 84, 0
2, 142081, Control_c, 0, 11, 77
2, 142081, Note_on_c, 0, 86, 76
2, 142177, Control_c, 0, 11, 78
2, 142273, Control_c, 0, 11, 78
2, 142369, Control_c, 0, 11, 79
2, 142465, Control_c, 0, 11, 79
2, 142561, Control_c, 0, 11, 80
2, 142657, Control_c, 0, 11, 81
2, 142753, Control_c, 0, 11, 81
2, 142849, Control_c, 0, 11, 82
2, 142945, Control_c, 0, 11, 82
2, 143041, Control_c, 0, 11, 83
2, 143137, Control_c, 0, 11, 84
2, 143233, Control_c, 0, 11, 84
2, 143329, Control_c, 0, 11, 85
2, 143425, Control_c, 0, 11, 86
2, 143521, Control_c, 0, 11, 86
2, 143617, Control_c, 0, 11, 87
2, 143713, Control_c, 0, 11, 87
2, 143809, Control_c, 0, 11, 88
2, 143905, Control_c, 0, 11, 89
2, 144001, Note_on_c, 0, 86, 0
2, 144001, Control_c, 0, 11, 89
2, 144001, Note_on_c, 0, 88, 76
2, 144001, Note_on_c, 0, 84, 76
2, 144316, Note_on_c, 0, 84, 0
2, 144316, Note_on_c, 0, 88, 0
2, 144361, Note_on_c, 0, 89, 76
2, 144361, Note_on_c, 0, 84, 76
2, 144460, Note_on_c, 0, 84, 0
2, 144460, Note_on_c, 0, 89, 0
2, 144481, Note_on_c, 0, 89, 76
2, 144481, Note_on_c, 0, 84, 76
2, 144796, Note_on_c, 0, 84, 0
2, 144796, Note_on_c, 0, 89, 0
2, 144841, Note_on_c, 0, 88, 76
2, 144841, Note_on_c, 0, 84, 76
2, 144940, Note_on_c, 0, 84, 0
2, 144940, Note_on_c, 0, 88, 0
2, 144961, Note_on_c, 0, 88, 76
2, 144961, Note_on_c, 0, 84, 76
2, 145276, Note_on_c, 0, 84, 0
2, 145276, Note_on_c, 0, 88, 0
2, 145321, Note_on_c, 0, 93, 76
2, 145321, Note_on_c, 0, 84, 76
2, 145420, Note_on_c, 0, 84, 0
2, 145420, Note_on_c, 0, 93, 0
2, 145441, Note_on_c, 0, 93, 76
2, 145441, Note_on_c, 0, 84, 76
2, 145756, Note_on_c, 0, 84, 0
2, 145756, Note_on_c, 0, 93, 0
2, 145801, Note_on_c, 0, 91, 76
2, 145801, Note_on_c, 0, 84, 76
2, 145900, Note_on_c, 0, 84, 0
2, 145900, Note_on_c, 0, 91, 0
2, 145921, Note_on_c, 0, 91, 76
2, 145921, Note_on_c, 0, 84, 76
2, 145981, Note_on_c, 0, 84, 0
2, 145981, Note_on_c, 0, 91, 0
2, 146041, Note_on_c, 0, 89, 76
2, 146041, Note_on_c, 0, 84, 76
2, 146101, Note_on_c, 0, 84, 0
2, 146101, Note_on_c, 0, 89, 0
2, 146161, Note_on_c, 0, 89, 76
2, 146161, Note_on_c, 0, 84, 76
2, 146221, Note_on_c, 0, 84, 0
2, 146221, Note_on_c, 0, 89, 0
2, 146281, Note_on_c, 0, 88, 76
2, 146281, Note_on_c, 0, 84, 76
2, 146341, Note_on_c, 0, 84, 0
2, 146341, Note_on_c, 0, 88, 0
2, 146401, Note_on_c, 0, 88, 76
2, 146401, Note_on_c, 0, 84, 76
2, 146461, Note_on_c, 0, 84, 0
2, 146461, Note_on_c, 0, 88, 0
2, 146521, Note_on_c, 0, 93, 76
2, 146521, Note_on_c, 0, 84, 76
2, 146581, Note_on_c, 0, 84, 0
2, 146581, Note_on_c, 0, 93, 0
2, 146641, Note_on_c, 0, 93, 76
2, 146641, Note_on_c, 0, 84, 76
2, 146701, Note_on_c, 0, 84, 0
2, 146701, Note_on_c, 0, 93, 0
2, 146761, Note_on_c, 0, 92, 76
2, 146761, Note_on_c, 0, 84, 76
2, 146821, Note_on_c, 0, 84, 0
2, 146821, Note_on_c, 0, 92, 0
2, 146881, Note_on_c, 0, 92, 76
2, 146881, Note_on_c, 0, 84, 76
2, 146941, Note_on_c, 0, 84, 0
2, 146941, Note_on_c, 0, 92, 0
2, 147001, Note_on_c, 0, 93, 76
2, 147001, Note_on_c, 0, 84, 76
2, 147061, Note_on_c, 0, 84, 0
2, 147061, Note_on_c, 0, 93, 0
2, 147121, Note_on_c, 0, 93, 76
2, 147121, Note_on_c, 0, 81, 76
2, 147181, Note_on_c, 0, 81, 0
2, 147181, Note_on_c, 0, 93, 0
2, 147241, Note_on_c, 0, 93, 76
2, 147241, Note_on_c, 0, 83, 76
2, 147301, Note_on_c, 0, 83, 0
2, 147301, Note_on_c, 0, 93, 0
2, 147361, Note_on_c, 0, 93, 76
2, 147361, Note_on_c, 0, 83, 76
2, 147421, Note_on_c, 0, 83, 0
2, 147421, Note_on_c, 0, 93, 0
2, 147481, Note_on_c, 0, 93, 76
2, 147481, Note_on_c, 0, 84, 76
2, 147541, Note_on_c, 0, 84, 0
2, 147541, Note_on_c, 0, 93, 0
2, 147601, Note_on_c, 0, 93, 76
2, 147601, Note_on_c, 0, 84, 76
2, 147661, Note_on_c, 0, 84, 0
2, 147661, Note_on_c, 0, 93, 0
2, 147721, Note_on_c, 0, 93, 76
2, 147721, Note_on_c, 0, 86, 76
2, 147781, Note_on_c, 0, 86, 0
2, 147781, Note_on_c, 0, 93, 0
2, 147841, Control_c, 0, 11, 98
2, 147841, Note_on_c, 0, 93, 91
2, 147841, Note_on_c, 0, 86, 91
2, 147864, Control_c, 0, 11, 97
2, 147888, Control_c, 0, 11, 96
2, 147912, Control_c, 0, 11, 95
2, 147936, Control_c, 0, 11, 94
2, 147960, Control_c, 0, 11, 92
2, 147984, Control_c, 0, 11, 91
2, 148008, Control_c, 0, 11, 90
2, 148032, Control_c, 0, 11, 89
2, 148056, Control_c, 0, 11, 87
2, 148080, Control_c, 0, 11, 86
2, 148791, Note_on_c, 0, 86, 0
2, 148791, Note_on_c, 0, 93, 0
2, 148801, Control_c, 0, 11, 98
2, 148801, Note_on_c, 0, 91, 91
2, 148801, Note_on_c, 0, 88, 91
2, 148824, Control_c, 0, 11, 97
2, 148848, Control_c, 0, 11, 96
2, 148872, Control_c, 0, 11, 95
2, 148896, Control_c, 0, 11, 94
2, 148920, Control_c, 0, 11, 92
2, 148944, Control_c, 0, 11, 91
2, 148968, Control_c, 0, 11, 90
2, 148992, Control_c, 0, 11, 89
2, 149016, Control_c, 0, 11, 87
2, 149040, Control_c, 0, 11, 86
2, 149751, Note_on_c, 0, 88, 0
2, 149751, Note_on_c, 0, 91, 0
2, 149761, Control_c, 0, 11, 98
2, 149761, Note_on_c, 0, 89, 91
2, 149761, Note_on_c, 0, 84, 91
2, 149784, Control_c, 0, 11, 97
2, 149808, Control_c, 0, 11, 96
2, 149832, Control_c, 0, 11, 95
2, 149856, Control_c, 0, 11, 94
2, 149880, Control_c, 0, 11, 92
2, 149904, Control_c, 0, 11, 91
2, 149928, Control_c, 0, 11, 90
2, 149952, Control_c, 0, 11, 89
2, 149976, Control_c, 0, 11, 87
2, 150000, Control_c, 0, 11, 86
2, 150711, Note_on_c, 0, 84, 0
2, 150711, Note_on_c, 0, 89, 0
2, 150721, Note_on_c, 0, 89, 91
2, 150721, Note_on_c, 0, 84, 91
2, 151081, Note_on_c, 0, 84, 0
2, 151081, Note_on_c, 0, 89, 0
2, 151201, Note_on_c, 0, 86, 91
2, 151201, Note_on_c, 0, 89, 91
2, 151561, Note_on_c, 0, 89, 0
2, 151561, Note_on_c, 0, 86, 0
2, 151681, Note_on_c, 0, 88, 91
2, 151681, Note_on_c, 0, 84, 91
2, 152041, Note_on_c, 0, 84, 0
2, 152041, Note_on_c, 0, 88, 0
2, 152161, Note_on_c, 0, 89, 91
2, 152161, Note_on_c, 0, 86, 91
2, 152521, Note_on_c, 0, 86, 0
2, 152521, Note_on_c, 0, 89, 0
2, 152641, Note_on_c, 0, 86, 91
2, 152641, Note_on_c, 0, 83, 91
2, 153001, Note_on_c, 0, 83, 0
2, 153001, Note_on_c, 0, 86, 0
2, 153121, Note_on_c, 0, 88, 91
2, 153121, Note_on_c, 0, 84, 91
2, 153481, Note_on_c, 0, 84, 0
2, 153481, Note_on_c, 0, 88, 0
2, 153601, Note_on_c, 0, 89, 91
2, 153601, Note_on_c, 0, 86, 91
2, 153961, Note_on_c, 0, 86, 0
2, 153961, Note_on_c, 0, 89, 0
2, 154081, Note_on_c, 0, 86, 91
2, 154081, Note_on_c, 0, 83, 91
2, 154441, Note_on_c, 0, 83, 0
2, 154441, Note_on_c, 0, 86, 0
2, 154561, Note_on_c, 0, 88, 91
2, 154561, Note_on_c, 0, 84, 91
2, 154921, Note_on_c, 0, 84, 0
2, 154921, Note_on_c, 0, 88, 0
2, 155041, Note_on_c, 0, 89, 91
2, 155041, Note_on_c, 0, 86, 91
2, 155401, Note_on_c, 0, 86, 0
2, 155401, Note_on_c, 0, 89, 0
2, 155521, Note_on_c, 0, 84, 91
2, 155521, Note_on_c, 0, 86, 91
2, 156481, Note_on_c, 0, 86, 0
2, 156481, Note_on_c, 0, 84, 0
2, 156481, Note_on_c, 0, 91, 91
2, 156481, Note_on_c, 0, 83, 91
2, 157441, Note_on_c, 0, 83, 0
2, 157441, Note_on_c, 0, 91, 0
2, 157441, Note_on_c, 0, 84, 91
2, 157561, Note_on_c, 0, 84, 0
2, 157801, Control_c, 0, 11, 80
2, 157801, Note_on_c, 0, 91, 91
2, 157906, Note_on_c, 0, 91, 0
2, 157921, Control_c, 0, 11, 92
2, 157921, Note_on_c, 0, 91, 91
2, 157944, Control_c, 0, 11, 91
2, 157968, Control_c, 0, 11, 90
2, 157992, Control_c, 0, 11, 89
2, 158016, Control_c, 0, 11, 87
2, 158040, Control_c, 0, 11, 86
2, 158064, Control_c, 0, 11, 85
2, 158088, Control_c, 0, 11, 84
2, 158112, Control_c, 0, 11, 82
2, 158136, Control_c, 0, 11, 81
2, 158160, Control_c, 0, 11, 80
2, 158161, Note_on_c, 0, 91, 0
2, 158161, Note_on_c, 0, 88, 91
2, 158281, Note_on_c, 0, 88, 0
2, 158281, Note_on_c, 0, 84, 91
2, 158386, Note_on_c, 0, 84, 0
2, 158401, Note_on_c, 0, 84, 91
2, 158521, Note_on_c, 0, 84, 0
2, 158521, Note_on_c, 0, 83, 91
2, 158641, Note_on_c, 0, 83, 0
2, 159481, Note_on_c, 0, 91, 91
2, 159586, Note_on_c, 0, 91, 0
2, 159601, Note_on_c, 0, 91, 91
2, 159706, Note_on_c, 0, 91, 0
2, 159721, Note_on_c, 0, 91, 91
2, 159826, Note_on_c, 0, 91, 0
2, 159841, Note_on_c, 0, 91, 91
2, 159946, Note_on_c, 0, 91, 0
2, 159961, Note_on_c, 0, 91, 91
2, 160066, Note_on_c, 0, 91, 0
2, 160081, Note_on_c, 0, 88, 91
2, 160186, Note_on_c, 0, 88, 0
2, 160201, Note_on_c, 0, 84, 91
2, 160306, Note_on_c, 0, 84, 0
2, 160321, Note_on_c, 0, 83, 91
2, 160441, Note_on_c, 0, 83, 0
2, 161401, Note_on_c, 0, 91, 91
2, 161626, Note_on_c, 0, 91, 0
2, 161641, Note_on_c, 0, 91, 91
2, 161866, Note_on_c, 0, 91, 0
2, 161881, Note_on_c, 0, 88, 91
2, 162106, Note_on_c, 0, 88, 0
2, 162121, Note_on_c, 0, 84, 91
2, 162226, Note_on_c, 0, 84, 0
2, 162241, Note_on_c, 0, 83, 91
2, 162361, Note_on_c, 0, 83, 0
2, 163321, Note_on_c, 0, 91, 91
2, 163546, Note_on_c, 0, 91, 0
2, 163561, Note_on_c, 0, 91, 91
2, 163786, Note_on_c, 0, 91, 0
2, 163801, Note_on_c, 0, 91, 91
2, 163861, Note_on_c, 0, 91, 0
2, 163921, Note_on_c, 0, 88, 91
2, 163981, Note_on_c, 0, 88, 0
2, 164041, Note_on_c, 0, 84, 91
2, 164101, Note_on_c, 0, 84, 0
2, 164161, Control_c, 0, 11, 68
2, 164161, Note_on_c, 0, 89, 91
2, 164161, Note_on_c, 0, 83, 91
2, 164166, Control_c, 0, 11, 71
2, 164171, Control_c, 0, 11, 74
2, 164176, Control_c, 0, 11, 77
2, 164181, Control_c, 0, 11, 80
2, 164186, Control_c, 0, 11, 83
2, 164190, Control_c, 0, 11, 86
2, 164506, Control_c, 0, 11, 86
2, 164511, Control_c, 0, 11, 83
2, 164517, Control_c, 0, 11, 80
2, 164522, Control_c, 0, 11, 77
2, 164526, Control_c, 0, 11, 74
2, 164532, Control_c, 0, 11, 71
2, 164537, Control_c, 0, 11, 68
2, 164539, Note_on_c, 0, 83, 0
2, 164539, Note_on_c, 0, 89, 0
2, 164881, Control_c, 0, 11, 77
2, 164881, Note_on_c, 0, 89, 91
2, 164881, Note_on_c, 0, 86, 91
2, 165001, Note_on_c, 0, 86, 0
2, 165001, Note_on_c, 0, 89, 0
2, 165361, Note_on_c, 0, 89, 91
2, 165361, Note_on_c, 0, 86, 91
2, 165481, Note_on_c, 0, 86, 0
2, 165481, Note_on_c, 0, 89, 0
2, 165721, Note_on_c, 0, 89, 91
2, 165721, Note_on_c, 0, 86, 91
2, 165841, Note_on_c, 0, 86, 0
2, 165841, Note_on_c, 0, 89, 0
2, 165961, Note_on_c, 0, 89, 91
2, 165961, Note_on_c, 0, 86, 91
2, 166081, Note_on_c, 0, 86, 0
2, 166081, Note_on_c, 0, 89, 0
2, 166201, Note_on_c, 0, 89, 91
2, 166201, Note_on_c, 0, 86, 91
2, 166321, Note_on_c, 0, 86, 0
2, 166321, Note_on_c, 0, 89, 0
2, 166441, Note_on_c, 0, 88, 91
2, 166441, Note_on_c, 0, 84, 91
2, 166561, Note_on_c, 0, 84, 0
2, 166561, Note_on_c, 0, 88, 0
2, 166681, Note_on_c, 0, 88, 91
2, 166681, Note_on_c, 0, 84, 91
2, 166801, Note_on_c, 0, 84, 0
2, 166801, Note_on_c, 0, 88, 0
2, 166921, Note_on_c, 0, 88, 91
2, 166921, Note_on_c, 0, 84, 91
2, 167041, Note_on_c, 0, 84, 0
2, 167041, Note_on_c, 0, 88, 0
2, 167041, Control_c, 0, 11, 80
2, 167041, Note_on_c, 0, 84, 91
2, 167057, Control_c, 0, 11, 78
2, 167073, Control_c, 0, 11, 76
2, 167089, Control_c, 0, 11, 74
2, 167105, Control_c, 0, 11, 73
2, 167121, Control_c, 0, 11, 71
2, 167137, Control_c, 0, 11, 69
2, 167153, Control_c, 0, 11, 67
2, 167169, Control_c, 0, 11, 65
2, 167185, Control_c, 0, 11, 63
2, 167201, Control_c, 0, 11, 62
2, 167217, Control_c, 0, 11, 59
2, 167233, Control_c, 0, 11, 56
2, 167249, Control_c, 0, 11, 53
2, 167265, Control_c, 0, 11, 50
2, 167281, Control_c, 0, 11, 47
2, 168001, Control_c, 0, 11, 47
2, 168113, Control_c, 0, 11, 46
2, 168226, Control_c, 0, 11, 45
2, 168339, Control_c, 0, 11, 44
2, 168452, Control_c, 0, 11, 43
2, 168565, Control_c, 0, 11, 42
2, 168678, Control_c, 0, 11, 41
2, 168791, Control_c, 0, 11, 40
2, 168904, Control_c, 0, 11, 39
2, 169017, Control_c, 0, 11, 38
2, 169130, Control_c, 0, 11, 37
2, 169243, Control_c, 0, 11, 36
2, 169356, Control_c, 0, 11, 35
2, 169469, Control_c, 0, 11, 34
2, 169582, Control_c, 0, 11, 33
2, 169695, Control_c, 0, 11, 32
2, 169808, Control_c, 0, 11, 31
2, 169921, Control_c, 0, 11, 30
2, 170101, Control_c, 0, 11, 30
2, 170121, Control_c, 0, 11, 29
2, 170141, Control_c, 0, 11, 28
2, 170161, Control_c, 0, 11, 27
2, 170181, Control_c, 0, 11, 26
2, 170201, Control_c, 0, 11, 25
2, 170221, Control_c, 0, 11, 24
2, 170241, Control_c, 0, 11, 23
2, 170261, Control_c, 0, 11, 22
2, 170281, Control_c, 0, 11, 21
2, 170297, Control_c, 0, 11, 18
2, 170313, Control_c, 0, 11, 15
2, 170330, Control_c, 0, 11, 12
2, 170341, Note_on_c, 0, 84, 0
2, 170401, Control_c, 0, 11, 86
2, 170401, Note_on_c, 0, 88, 91
2, 170401, Note_on_c, 0, 84, 91
2, 170521, Note_on_c, 0, 84, 0
2, 170521, Note_on_c, 0, 88, 0
2, 171361, Note_on_c, 0, 84, 91
2, 171481, Note_on_c, 0, 84, 0
2, 171841, Note_on_c, 0, 84, 91
2, 171961, Note_on_c, 0, 84, 0
2, 172321, Control_c, 0, 11, 92
2, 172321, Note_on_c, 0, 84, 91
2, 172441, Note_on_c, 0, 84, 0
2, 172801, Control_c, 0, 121, 0
2, 172801, End_track
3, 0, Start_track
3, 0, MIDI_port, 0
3, 0, Title_t, "2 Oboi"
3, 0, Program_c, 1, 68
3, 0, Control_c, 1, 10, 72
3, 2, Control_c, 1, 121, 0
3, 7, Program_c, 1, 68
3, 12, Pitch_bend_c, 1, 8192
3, 17, Control_c, 1, 11, 76
3, 22, Control_c, 1, 7, 127
3, 27, Control_c, 1, 91, 54
3, 32, Control_c, 1, 93, 0
3, 5162, Control_c, 1, 1, 25
3, 5162, Control_c, 1, 11, 32
3, 5162, Note_on_c, 1, 76, 90
3, 5168, Control_c, 1, 11, 35
3, 5174, Control_c, 1, 11, 38
3, 5180, Control_c, 1, 11, 41
3, 5186, Control_c, 1, 11, 44
3, 5192, Control_c, 1, 11, 47
3, 5282, Note_on_c, 1, 76, 0
3, 5282, Note_on_c, 1, 77, 90
3, 5402, Note_on_c, 1, 77, 0
3, 5402, Note_on_c, 1, 76, 90
3, 5402, Note_on_c, 1, 79, 90
3, 5522, Note_on_c, 1, 79, 0
3, 5522, Note_on_c, 1, 76, 0
3, 5522, Note_on_c, 1, 81, 95
3, 5522, Note_on_c, 1, 77, 95
3, 5642, Note_on_c, 1, 77, 0
3, 5642, Note_on_c, 1, 81, 0
3, 5642, Note_on_c, 1, 82, 113
3, 5642, Note_on_c, 1, 79, 113
3, 5702, Note_on_c, 1, 79, 0
3, 5702, Note_on_c, 1, 82, 0
3, 5702, Note_on_c, 1, 77, 106
3, 5702, Note_on_c, 1, 81, 106
3, 5762, Note_on_c, 1, 81, 0
3, 5762, Note_on_c, 1, 77, 0
3, 5762, Control_c, 1, 11, 65
3, 5762, Note_on_c, 1, 82, 110
3, 5762, Note_on_c, 1, 79, 110
3, 5769, Control_c, 1, 11, 68
3, 5777, Control_c, 1, 11, 71
3, 5784, Control_c, 1, 11, 74
3, 5792, Control_c, 1, 11, 77
3, 5942, Note_on_c, 1, 79, 0
3, 5942, Note_on_c, 1, 82, 0
3, 7502, Control_c, 1, 11, 32
3, 7502, Note_on_c, 1, 76, 90
3, 7506, Control_c, 1, 11, 35
3, 7510, Control_c, 1, 11, 38
3, 7514, Control_c, 1, 11, 41
3, 7518, Control_c, 1, 11, 44
3, 7522, Control_c, 1, 11, 47
3, 7562, Note_on_c, 1, 76, 0
3, 7562, Note_on_c, 1, 77, 90
3, 7622, Note_on_c, 1, 77, 0
3, 7622, Note_on_c, 1, 79, 90
3, 7677, Note_on_c, 1, 79, 0
3, 7682, Control_c, 1, 11, 65
3, 7682, Note_on_c, 1, 84, 90
3, 7682, Note_on_c, 1, 81, 90
3, 7687, Control_c, 1, 11, 68
3, 7692, Control_c, 1, 11, 71
3, 7697, Control_c, 1, 11, 74
3, 7702, Control_c, 1, 11, 77
3, 7862, Note_on_c, 1, 81, 0
3, 7862, Note_on_c, 1, 84, 0
3, 9602, Control_c, 1, 1, 0
3, 9602, Control_c, 1, 11, 65
3, 9602, Note_on_c, 1, 74, 90
3, 9602, Note_on_c, 1, 79, 90
3, 9607, Control_c, 1, 11, 68
3, 9612, Control_c, 1, 11, 71
3, 9617, Control_c, 1, 11, 74
3, 9622, Control_c, 1, 11, 77
3, 9782, Note_on_c, 1, 79, 0
3, 9782, Note_on_c, 1, 74, 0
3, 15242, Control_c, 1, 11, 37
3, 15242, Note_on_c, 1, 77, 90
3, 15262, Note_on_c, 1, 77, 0
3, 15282, Note_on_c, 1, 75, 90
3, 15302, Note_on_c, 1, 75, 0
3, 15322, Note_on_c, 1, 74, 90
3, 15342, Note_on_c, 1, 74, 0
3, 15362, Note_on_c, 1, 72, 90
3, 15762, Note_on_c, 1, 72, 0
3, 15762, Note_on_c, 1, 75, 90
3, 15802, Note_on_c, 1, 75, 0
3, 15802, Note_on_c, 1, 72, 90
3, 15842, Note_on_c, 1, 72, 0
3, 15842, Note_on_c, 1, 67, 70
3, 15962, Note_on_c, 1, 67, 0
3, 16202, Control_c, 1, 1, 20
3, 16202, Control_c, 1, 11, 52
3, 16202, Note_on_c, 1, 79, 90
3, 16212, Control_c, 1, 11, 55
3, 16222, Control_c, 1, 11, 58
3, 16232, Control_c, 1, 11, 61
3, 16250, Control_c, 1, 11, 64
3, 16267, Control_c, 1, 11, 67
3, 16280, Control_c, 1, 11, 70
3, 16298, Control_c, 1, 11, 73
3, 16315, Control_c, 1, 11, 76
3, 16322, Note_on_c, 1, 79, 0
3, 16322, Note_on_c, 1, 78, 90
3, 16562, Control_c, 1, 11, 77
3, 16579, Control_c, 1, 11, 75
3, 16597, Control_c, 1, 11, 73
3, 16615, Control_c, 1, 11, 71
3, 16633, Control_c, 1, 11, 70
3, 16651, Control_c, 1, 11, 68
3, 16669, Control_c, 1, 11, 66
3, 16682, Note_on_c, 1, 78, 0
3, 16682, Note_on_c, 1, 78, 90
3, 16687, Control_c, 1, 11, 64
3, 16705, Control_c, 1, 11, 62
3, 16723, Control_c, 1, 11, 60
3, 16741, Control_c, 1, 11, 57
3, 16742, Note_on_c, 1, 78, 0
3, 16742, Note_on_c, 1, 78, 90
3, 16759, Control_c, 1, 11, 54
3, 16777, Control_c, 1, 11, 51
3, 16795, Control_c, 1, 11, 48
3, 16802, Note_on_c, 1, 78, 0
3, 16802, Note_on_c, 1, 79, 90
3, 16922, Note_on_c, 1, 79, 0
3, 17162, Control_c, 1, 11, 57
3, 17162, Note_on_c, 1, 79, 90
3, 17174, Control_c, 1, 11, 60
3, 17187, Note_on_c, 1, 79, 0
3, 17190, Control_c, 1, 11, 63
3, 17202, Note_on_c, 1, 79, 90
3, 17206, Control_c, 1, 11, 65
3, 17222, Control_c, 1, 11, 68
3, 17227, Note_on_c, 1, 79, 0
3, 17238, Control_c, 1, 11, 70
3, 17242, Note_on_c, 1, 79, 90
3, 17254, Control_c, 1, 11, 73
3, 17267, Note_on_c, 1, 79, 0
3, 17270, Control_c, 1, 11, 75
3, 17282, Note_on_c, 1, 78, 90
3, 17522, Control_c, 1, 11, 77
3, 17540, Control_c, 1, 11, 75
3, 17558, Control_c, 1, 11, 73
3, 17576, Control_c, 1, 11, 71
3, 17594, Control_c, 1, 11, 70
3, 17612, Control_c, 1, 11, 68
3, 17630, Control_c, 1, 11, 66
3, 17637, Note_on_c, 1, 78, 0
3, 17642, Note_on_c, 1, 78, 90
3, 17648, Control_c, 1, 11, 64
3, 17666, Control_c, 1, 11, 62
3, 17667, Note_on_c, 1, 78, 0
3, 17682, Note_on_c, 1, 78, 90
3, 17684, Control_c, 1, 11, 60
3, 17702, Control_c, 1, 11, 57
3, 17707, Note_on_c, 1, 78, 0
3, 17720, Control_c, 1, 11, 54
3, 17722, Note_on_c, 1, 78, 90
3, 17738, Control_c, 1, 11, 51
3, 17747, Note_on_c, 1, 78, 0
3, 17756, Control_c, 1, 11, 48
3, 17762, Control_c, 1, 1, 0
3, 17762, Note_on_c, 1, 79, 75
3, 17862, Control_c, 1, 11, 47
3, 17864, Control_c, 1, 11, 44
3, 17867, Control_c, 1, 11, 41
3, 17870, Control_c, 1, 11, 38
3, 17873, Control_c, 1, 11, 35
3, 17876, Control_c, 1, 11, 32
3, 17879, Control_c, 1, 11, 29
3, 17882, Note_on_c, 1, 79, 0
3, 22378, Control_c, 1, 11, 75
3, 22442, Note_on_c, 1, 67, 90
3, 22442, Note_on_c, 1, 71, 90
3, 22506, Control_c, 1, 11, 76
3, 22562, Note_on_c, 1, 71, 0
3, 22562, Note_on_c, 1, 67, 0
3, 22562, Note_on_c, 1, 69, 90
3, 22562, Note_on_c, 1, 72, 90
3, 22634, Control_c, 1, 11, 76
3, 22682, Note_on_c, 1, 72, 0
3, 22682, Note_on_c, 1, 69, 0
3, 22762, Control_c, 1, 11, 77
3, 22802, Note_on_c, 1, 74, 90
3, 22802, Note_on_c, 1, 71, 90
3, 22890, Control_c, 1, 11, 78
3, 22922, Note_on_c, 1, 71, 0
3, 22922, Note_on_c, 1, 74, 0
3, 23018, Control_c, 1, 11, 78
3, 23042, Note_on_c, 1, 72, 90
3, 23042, Note_on_c, 1, 76, 90
3, 23146, Control_c, 1, 11, 79
3, 23162, Note_on_c, 1, 76, 0
3, 23162, Note_on_c, 1, 72, 0
3, 23274, Control_c, 1, 11, 79
3, 23282, Note_on_c, 1, 74, 90
3, 23282, Note_on_c, 1, 77, 90
3, 23402, Note_on_c, 1, 77, 0
3, 23402, Note_on_c, 1, 74, 0
3, 23402, Control_c, 1, 11, 80
3, 23402, Note_on_c, 1, 79, 90
3, 23402, Note_on_c, 1, 71, 90
3, 23522, Note_on_c, 1, 71, 0
3, 23522, Note_on_c, 1, 79, 0
3, 23522, Note_on_c, 1, 79, 90
3, 23522, Note_on_c, 1, 72, 90
3, 23642, Note_on_c, 1, 72, 0
3, 23642, Note_on_c, 1, 79, 0
3, 23762, Note_on_c, 1, 74, 90
3, 23762, Note_on_c, 1, 79, 90
3, 23882, Note_on_c, 1, 79, 0
3, 23882, Note_on_c, 1, 74, 0
3, 23906, Control_c, 1, 11, 81
3, 24002, Note_on_c, 1, 79, 90
3, 24002, Note_on_c, 1, 76, 90
3, 24122, Note_on_c, 1, 76, 0
3, 24122, Note_on_c, 1, 79, 0
3, 24242, Note_on_c, 1, 74, 90
3, 24242, Note_on_c, 1, 77, 90
3, 24362, Note_on_c, 1, 77, 0
3, 24362, Note_on_c, 1, 74, 0
3, 24410, Control_c, 1, 11, 81
3, 24482, Note_on_c, 1, 86, 90
3, 24482, Note_on_c, 1, 77, 90
3, 24602, Note_on_c, 1, 77, 0
3, 24602, Note_on_c, 1, 86, 0
3, 24722, Note_on_c, 1, 77, 90
3, 24722, Note_on_c, 1, 86, 90
3, 24842, Note_on_c, 1, 86, 0
3, 24842, Note_on_c, 1, 77, 0
3, 24914, Control_c, 1, 11, 82
3, 24962, Note_on_c, 1, 86, 90
3, 24962, Note_on_c, 1, 77, 90
3, 25082, Note_on_c, 1, 77, 0
3, 25082, Note_on_c, 1, 86, 0
3, 25202, Note_on_c, 1, 77, 90
3, 25202, Note_on_c, 1, 86, 90
3, 25322, Note_on_c, 1, 86, 0
3, 25322, Note_on_c, 1, 77, 0
3, 25418, Control_c, 1, 11, 82
3, 25442, Note_on_c, 1, 77, 90
3, 25442, Note_on_c, 1, 86, 90
3, 25562, Note_on_c, 1, 86, 0
3, 25562, Note_on_c, 1, 77, 0
3, 25682, Note_on_c, 1, 77, 90
3, 25682, Note_on_c, 1, 86, 90
3, 25802, Note_on_c, 1, 86, 0
3, 25802, Note_on_c, 1, 77, 0
3, 25922, Control_c, 1, 11, 83
3, 25922, Note_on_c, 1, 77, 90
3, 25922, Note_on_c, 1, 86, 90
3, 26032, Note_on_c, 1, 86, 0
3, 26032, Note_on_c, 1, 77, 0
3, 26042, Note_on_c, 1, 86, 90
3, 26042, Note_on_c, 1, 77, 90
3, 26102, Control_c, 1, 11, 84
3, 26152, Note_on_c, 1, 77, 0
3, 26152, Note_on_c, 1, 86, 0
3, 26162, Note_on_c, 1, 86, 90
3, 26162, Note_on_c, 1, 77, 90
3, 26272, Note_on_c, 1, 77, 0
3, 26272, Note_on_c, 1, 86, 0
3, 26282, Control_c, 1, 11, 84
3, 26282, Note_on_c, 1, 77, 90
3, 26282, Note_on_c, 1, 86, 90
3, 26392, Note_on_c, 1, 86, 0
3, 26392, Note_on_c, 1, 77, 0
3, 26402, Note_on_c, 1, 77, 90
3, 26402, Note_on_c, 1, 86, 90
3, 26462, Control_c, 1, 11, 85
3, 26512, Note_on_c, 1, 86, 0
3, 26512, Note_on_c, 1, 77, 0
3, 26522, Note_on_c, 1, 77, 90
3, 26522, Note_on_c, 1, 86, 90
3, 26632, Note_on_c, 1, 86, 0
3, 26632, Note_on_c, 1, 77, 0
3, 26642, Control_c, 1, 11, 86
3, 26642, Note_on_c, 1, 77, 90
3, 26642, Note_on_c, 1, 86, 90
3, 26752, Note_on_c, 1, 86, 0
3, 26752, Note_on_c, 1, 77, 0
3, 26762, Note_on_c, 1, 86, 90
3, 26762, Note_on_c, 1, 77, 90
3, 26822, Control_c, 1, 11, 86
3, 26872, Note_on_c, 1, 77, 0
3, 26872, Note_on_c, 1, 86, 0
3, 26882, Note_on_c, 1, 77, 90
3, 26882, Note_on_c, 1, 86, 90
3, 26992, Note_on_c, 1, 86, 0
3, 26992, Note_on_c, 1, 77, 0
3, 27002, Control_c, 1, 11, 87
3, 27002, Note_on_c, 1, 86, 90
3, 27002, Note_on_c, 1, 77, 90
3, 27112, Note_on_c, 1, 77, 0
3, 27112, Note_on_c, 1, 86, 0
3, 27122, Note_on_c, 1, 77, 90
3, 27122, Note_on_c, 1, 86, 90
3, 27182, Control_c, 1, 11, 87
3, 27232, Note_on_c, 1, 86, 0
3, 27232, Note_on_c, 1, 77, 0
3, 27242, Note_on_c, 1, 77, 90
3, 27242, Note_on_c, 1, 86, 90
3, 27352, Note_on_c, 1, 86, 0
3, 27352, Note_on_c, 1, 77, 0
3, 27362, Control_c, 1, 11, 88
3, 27362, Note_on_c, 1, 86, 90
3, 27362, Note_on_c, 1, 77, 90
3, 27472, Note_on_c, 1, 77, 0
3, 27472, Note_on_c, 1, 86, 0
3, 27482, Note_on_c, 1, 77, 90
3, 27482, Note_on_c, 1, 86, 90
3, 27542, Control_c, 1, 11, 89
3, 27592, Note_on_c, 1, 86, 0
3, 27592, Note_on_c, 1, 77, 0
3, 27602, Note_on_c, 1, 84, 90
3, 27602, Note_on_c, 1, 76, 90
3, 27712, Note_on_c, 1, 76, 0
3, 27712, Note_on_c, 1, 84, 0
3, 27722, Control_c, 1, 11, 89
3, 27722, Note_on_c, 1, 76, 90
3, 27722, Note_on_c, 1, 84, 90
3, 27832, Note_on_c, 1, 84, 0
3, 27832, Note_on_c, 1, 76, 0
3, 27962, Note_on_c, 1, 84, 90
3, 27962, Note_on_c, 1, 76, 90
3, 28072, Note_on_c, 1, 76, 0
3, 28072, Note_on_c, 1, 84, 0
3, 28202, Note_on_c, 1, 84, 90
3, 28202, Note_on_c, 1, 76, 90
3, 28312, Note_on_c, 1, 76, 0
3, 28312, Note_on_c, 1, 84, 0
3, 28442, Control_c, 1, 11, 71
3, 28442, Note_on_c, 1, 72, 90
3, 28442, Note_on_c, 1, 76, 90
3, 28552, Note_on_c, 1, 76, 0
3, 28552, Note_on_c, 1, 72, 0
3, 29402, Control_c, 1, 11, 71
3, 29402, Note_on_c, 1, 76, 90
3, 29402, Note_on_c, 1, 72, 90
3, 29512, Note_on_c, 1, 72, 0
3, 29512, Note_on_c, 1, 76, 0
3, 30362, Control_c, 1, 11, 71
3, 30362, Note_on_c, 1, 72, 90
3, 30362, Note_on_c, 1, 76, 90
3, 30472, Note_on_c, 1, 76, 0
3, 30472, Note_on_c, 1, 72, 0
3, 35042, Control_c, 1, 1, 20
3, 35042, Control_c, 1, 11, 77
3, 35042, Note_on_c, 1, 71, 90
3, 35162, Note_on_c, 1, 71, 0
3, 35162, Control_c, 1, 11, 86
3, 35162, Note_on_c, 1, 79, 90
3, 35192, Control_c, 1, 11, 86
3, 35200, Control_c, 1, 11, 83
3, 35208, Control_c, 1, 11, 80
3, 35216, Control_c, 1, 11, 77
3, 35223, Control_c, 1, 11, 74
3, 35231, Control_c, 1, 11, 71
3, 35239, Control_c, 1, 11, 68
3, 35247, Control_c, 1, 11, 65
3, 35255, Control_c, 1, 11, 62
3, 35262, Control_c, 1, 11, 59
3, 35267, Control_c, 1, 11, 56
3, 35272, Control_c, 1, 11, 53
3, 35277, Control_c, 1, 11, 50
3, 35282, Control_c, 1, 11, 47
3, 36962, Control_c, 1, 11, 37
3, 36989, Control_c, 1, 11, 38
3, 37017, Control_c, 1, 11, 39
3, 37045, Control_c, 1, 11, 40
3, 37072, Control_c, 1, 11, 41
3, 37100, Control_c, 1, 11, 42
3, 37128, Control_c, 1, 11, 43
3, 37155, Control_c, 1, 11, 44
3, 37183, Control_c, 1, 11, 45
3, 37211, Control_c, 1, 11, 46
3, 37238, Control_c, 1, 11, 47
3, 37266, Control_c, 1, 11, 48
3, 37294, Control_c, 1, 11, 49
3, 37322, Control_c, 1, 11, 50
3, 37349, Control_c, 1, 11, 51
3, 37377, Control_c, 1, 11, 52
3, 37405, Control_c, 1, 11, 53
3, 37432, Control_c, 1, 11, 54
3, 37460, Control_c, 1, 11, 55
3, 37488, Control_c, 1, 11, 56
3, 37515, Control_c, 1, 11, 57
3, 37543, Control_c, 1, 11, 58
3, 37571, Control_c, 1, 11, 59
3, 37598, Control_c, 1, 11, 60
3, 37626, Control_c, 1, 11, 61
3, 37654, Control_c, 1, 11, 62
3, 37682, Note_on_c, 1, 79, 0
3, 37682, Control_c, 1, 11, 62
3, 37682, Note_on_c, 1, 77, 90
3, 37709, Control_c, 1, 11, 63
3, 37737, Control_c, 1, 11, 63
3, 37765, Control_c, 1, 11, 64
3, 37792, Control_c, 1, 11, 65
3, 37820, Control_c, 1, 11, 65
3, 37848, Control_c, 1, 11, 66
3, 37875, Control_c, 1, 11, 66
3, 37903, Control_c, 1, 11, 67
3, 37922, Note_on_c, 1, 77, 0
3, 37922, Note_on_c, 1, 76, 95
3, 37931, Control_c, 1, 11, 68
3, 37958, Control_c, 1, 11, 68
3, 37986, Control_c, 1, 11, 69
3, 38014, Control_c, 1, 11, 70
3, 38042, Control_c, 1, 11, 70
3, 38069, Control_c, 1, 11, 71
3, 38097, Control_c, 1, 11, 71
3, 38125, Control_c, 1, 11, 72
3, 38152, Control_c, 1, 11, 73
3, 38162, Note_on_c, 1, 76, 0
3, 38162, Note_on_c, 1, 74, 100
3, 38180, Control_c, 1, 11, 73
3, 38208, Control_c, 1, 11, 74
3, 38235, Control_c, 1, 11, 74
3, 38263, Control_c, 1, 11, 75
3, 38291, Control_c, 1, 11, 76
3, 38318, Control_c, 1, 11, 76
3, 38346, Control_c, 1, 11, 77
3, 38374, Control_c, 1, 11, 78
3, 38402, Note_on_c, 1, 74, 0
3, 38402, Control_c, 1, 11, 78
3, 38402, Note_on_c, 1, 72, 105
3, 38429, Control_c, 1, 11, 79
3, 38457, Control_c, 1, 11, 79
3, 38485, Control_c, 1, 11, 80
3, 38512, Control_c, 1, 11, 81
3, 38540, Control_c, 1, 11, 81
3, 38568, Control_c, 1, 11, 82
3, 38595, Control_c, 1, 11, 82
3, 38623, Control_c, 1, 11, 83
3, 38642, Note_on_c, 1, 72, 0
3, 38642, Note_on_c, 1, 71, 110
3, 38651, Control_c, 1, 11, 84
3, 38678, Control_c, 1, 11, 84
3, 38706, Control_c, 1, 11, 85
3, 38734, Control_c, 1, 11, 86
3, 38762, Note_on_c, 1, 71, 0
3, 38762, Control_c, 1, 1, 0
3, 38762, Control_c, 1, 11, 86
3, 38762, Note_on_c, 1, 84, 90
3, 38762, Note_on_c, 1, 76, 90
3, 38882, Note_on_c, 1, 76, 0
3, 38882, Note_on_c, 1, 84, 0
3, 39002, Note_on_c, 1, 84, 90
3, 39002, Note_on_c, 1, 76, 90
3, 39122, Note_on_c, 1, 76, 0
3, 39122, Note_on_c, 1, 84, 0
3, 39242, Note_on_c, 1, 84, 90
3, 39242, Note_on_c, 1, 76, 90
3, 39362, Note_on_c, 1, 76, 0
3, 39362, Note_on_c, 1, 84, 0
3, 39362, Note_on_c, 1, 84, 90
3, 39362, Note_on_c, 1, 76, 90
3, 39482, Note_on_c, 1, 76, 0
3, 39482, Note_on_c, 1, 84, 0
3, 39482, Note_on_c, 1, 72, 90
3, 39482, Note_on_c, 1, 76, 90
3, 39602, Note_on_c, 1, 76, 0
3, 39602, Note_on_c, 1, 72, 0
3, 39602, Note_on_c, 1, 76, 90
3, 39602, Note_on_c, 1, 72, 90
3, 40202, Note_on_c, 1, 72, 0
3, 40202, Note_on_c, 1, 76, 0
3, 40202, Note_on_c, 1, 77, 90
3, 40202, Note_on_c, 1, 72, 90
3, 40322, Note_on_c, 1, 72, 0
3, 40322, Note_on_c, 1, 77, 0
3, 40322, Note_on_c, 1, 72, 90
3, 40322, Note_on_c, 1, 76, 90
3, 40442, Note_on_c, 1, 76, 0
3, 40442, Note_on_c, 1, 72, 0
3, 40442, Note_on_c, 1, 76, 90
3, 40442, Note_on_c, 1, 72, 90
3, 40562, Note_on_c, 1, 72, 0
3, 40562, Note_on_c, 1, 76, 0
3, 40562, Note_on_c, 1, 76, 90
3, 40562, Note_on_c, 1, 72, 90
3, 41162, Note_on_c, 1, 72, 0
3, 41162, Note_on_c, 1, 76, 0
3, 41162, Note_on_c, 1, 77, 90
3, 41162, Note_on_c, 1, 72, 90
3, 41282, Note_on_c, 1, 72, 0
3, 41282, Note_on_c, 1, 77, 0
3, 41282, Note_on_c, 1, 76, 90
3, 41282, Note_on_c, 1, 72, 90
3, 41402, Note_on_c, 1, 72, 0
3, 41402, Note_on_c, 1, 76, 0
3, 41642, Note_on_c, 1, 76, 90
3, 41642, Note_on_c, 1, 72, 90
3, 41762, Note_on_c, 1, 72, 0
3, 41762, Note_on_c, 1, 76, 0
3, 41762, Note_on_c, 1, 76, 90
3, 41762, Note_on_c, 1, 72, 90
3, 41882, Note_on_c, 1, 72, 0
3, 41882, Note_on_c, 1, 76, 0
3, 42122, Note_on_c, 1, 79, 90
3, 42122, Note_on_c, 1, 76, 90
3, 42242, Note_on_c, 1, 76, 0
3, 42242, Note_on_c, 1, 79, 0
3, 42242, Note_on_c, 1, 81, 90
3, 42242, Note_on_c, 1, 74, 90
3, 42362, Note_on_c, 1, 74, 0
3, 42362, Note_on_c, 1, 81, 0
3, 42602, Note_on_c, 1, 81, 90
3, 42602, Note_on_c, 1, 74, 90
3, 42722, Note_on_c, 1, 74, 0
3, 42722, Note_on_c, 1, 81, 0
3, 42722, Note_on_c, 1, 77, 90
3, 42722, Note_on_c, 1, 74, 90
3, 42842, Note_on_c, 1, 74, 0
3, 42842, Note_on_c, 1, 77, 0
3, 43082, Note_on_c, 1, 77, 90
3, 43082, Note_on_c, 1, 74, 90
3, 43202, Note_on_c, 1, 74, 0
3, 43202, Note_on_c, 1, 77, 0
3, 43202, Note_on_c, 1, 72, 90
3, 43202, Note_on_c, 1, 76, 90
3, 43322, Note_on_c, 1, 76, 0
3, 43322, Note_on_c, 1, 72, 0
3, 43562, Note_on_c, 1, 76, 90
3, 43562, Note_on_c, 1, 72, 90
3, 43682, Note_on_c, 1, 72, 0
3, 43682, Note_on_c, 1, 76, 0
3, 43682, Note_on_c, 1, 76, 90
3, 43682, Note_on_c, 1, 72, 90
3, 43802, Note_on_c, 1, 72, 0
3, 43802, Note_on_c, 1, 76, 0
3, 44042, Note_on_c, 1, 79, 90
3, 44042, Note_on_c, 1, 76, 90
3, 44162, Note_on_c, 1, 76, 0
3, 44162, Note_on_c, 1, 79, 0
3, 44162, Note_on_c, 1, 81, 90
3, 44162, Note_on_c, 1, 74, 90
3, 44282, Note_on_c, 1, 74, 0
3, 44282, Note_on_c, 1, 81, 0
3, 44522, Note_on_c, 1, 74, 90
3, 44522, Note_on_c, 1, 81, 90
3, 44642, Note_on_c, 1, 81, 0
3, 44642, Note_on_c, 1, 74, 0
3, 44642, Note_on_c, 1, 81, 90
3, 44642, Note_on_c, 1, 74, 90
3, 44762, Note_on_c, 1, 74, 0
3, 44762, Note_on_c, 1, 81, 0
3, 45002, Note_on_c, 1, 74, 90
3, 45002, Note_on_c, 1, 81, 90
3, 45122, Note_on_c, 1, 81, 0
3, 45122, Note_on_c, 1, 74, 0
3, 45122, Note_on_c, 1, 81, 90
3, 45122, Note_on_c, 1, 74, 90
3, 45242, Note_on_c, 1, 74, 0
3, 45242, Note_on_c, 1, 81, 0
3, 45482, Note_on_c, 1, 74, 90
3, 45482, Note_on_c, 1, 81, 90
3, 45602, Note_on_c, 1, 81, 0
3, 45602, Note_on_c, 1, 74, 0
3, 45602, Note_on_c, 1, 81, 90
3, 45602, Note_on_c, 1, 74, 90
3, 45722, Note_on_c, 1, 74, 0
3, 45722, Note_on_c, 1, 81, 0
3, 45962, Note_on_c, 1, 74, 90
3, 45962, Note_on_c, 1, 81, 90
3, 46082, Note_on_c, 1, 81, 0
3, 46082, Note_on_c, 1, 74, 0
3, 46082, Note_on_c, 1, 74, 90
3, 46082, Note_on_c, 1, 81, 90
3, 46202, Note_on_c, 1, 81, 0
3, 46202, Note_on_c, 1, 74, 0
3, 63362, Control_c, 1, 11, 77
3, 63362, Note_on_c, 1, 78, 90
3, 63362, Note_on_c, 1, 74, 90
3, 64192, Note_on_c, 1, 74, 0
3, 64192, Note_on_c, 1, 78, 0
3, 64202, Note_on_c, 1, 78, 90
3, 64202, Note_on_c, 1, 74, 90
3, 64312, Note_on_c, 1, 74, 0
3, 64312, Note_on_c, 1, 78, 0
3, 64322, Note_on_c, 1, 79, 90
3, 64322, Note_on_c, 1, 74, 90
3, 65152, Note_on_c, 1, 74, 0
3, 65152, Note_on_c, 1, 79, 0
3, 65162, Note_on_c, 1, 77, 90
3, 65272, Note_on_c, 1, 77, 0
3, 65282, Control_c, 1, 11, 82
3, 65282, Note_on_c, 1, 76, 90
3, 65392, Note_on_c, 1, 76, 0
3, 65402, Note_on_c, 1, 79, 90
3, 65402, Note_on_c, 1, 81, 90
3, 65632, Note_on_c, 1, 81, 0
3, 65632, Note_on_c, 1, 79, 0
3, 65642, Note_on_c, 1, 81, 90
3, 65642, Note_on_c, 1, 79, 90
3, 65752, Note_on_c, 1, 79, 0
3, 65752, Note_on_c, 1, 81, 0
3, 65762, Note_on_c, 1, 83, 90
3, 65762, Note_on_c, 1, 79, 90
3, 66112, Note_on_c, 1, 79, 0
3, 66112, Note_on_c, 1, 83, 0
3, 66122, Note_on_c, 1, 83, 90
3, 66122, Note_on_c, 1, 79, 90
3, 66232, Note_on_c, 1, 79, 0
3, 66232, Note_on_c, 1, 83, 0
3, 66242, Note_on_c, 1, 84, 90
3, 66242, Note_on_c, 1, 79, 90
3, 66592, Note_on_c, 1, 79, 0
3, 66592, Note_on_c, 1, 84, 0
3, 66602, Note_on_c, 1, 72, 90
3, 66602, Note_on_c, 1, 79, 90
3, 66712, Note_on_c, 1, 79, 0
3, 66712, Note_on_c, 1, 72, 0
3, 66722, Note_on_c, 1, 79, 90
3, 66722, Note_on_c, 1, 74, 90
3, 67072, Note_on_c, 1, 74, 0
3, 67072, Note_on_c, 1, 79, 0
3, 67082, Note_on_c, 1, 74, 90
3, 67082, Note_on_c, 1, 79, 90
3, 67192, Note_on_c, 1, 79, 0
3, 67192, Note_on_c, 1, 74, 0
3, 67202, Note_on_c, 1, 79, 90
3, 67202, Note_on_c, 1, 76, 90
3, 67552, Note_on_c, 1, 76, 0
3, 67552, Note_on_c, 1, 79, 0
3, 67562, Note_on_c, 1, 79, 90
3, 67562, Note_on_c, 1, 76, 90
3, 67672, Note_on_c, 1, 76, 0
3, 67672, Note_on_c, 1, 79, 0
3, 67682, Note_on_c, 1, 78, 90
3, 67682, Note_on_c, 1, 72, 90
3, 68032, Note_on_c, 1, 72, 0
3, 68032, Note_on_c, 1, 78, 0
3, 68042, Note_on_c, 1, 78, 90
3, 68042, Note_on_c, 1, 72, 90
3, 68152, Note_on_c, 1, 72, 0
3, 68152, Note_on_c, 1, 78, 0
3, 68162, Control_c, 1, 11, 86
3, 68162, Note_on_c, 1, 79, 90
3, 68162, Note_on_c, 1, 67, 90
3, 70322, Note_on_c, 1, 67, 0
3, 70322, Note_on_c, 1, 79, 0
3, 70322, Note_on_c, 1, 67, 90
3, 70322, Note_on_c, 1, 79, 90
3, 70802, Note_on_c, 1, 79, 0
3, 70802, Note_on_c, 1, 67, 0
3, 70802, Note_on_c, 1, 67, 90
3, 70802, Note_on_c, 1, 79, 90
3, 71402, Note_on_c, 1, 79, 0
3, 71402, Note_on_c, 1, 67, 0
3, 71402, Note_on_c, 1, 78, 90
3, 71522, Note_on_c, 1, 78, 0
3, 71522, Note_on_c, 1, 76, 90
3, 71642, Note_on_c, 1, 76, 0
3, 71642, Note_on_c, 1, 74, 90
3, 71762, Note_on_c, 1, 74, 0
3, 71762, Note_on_c, 1, 72, 90
3, 71882, Note_on_c, 1, 72, 0
3, 71882, Note_on_c, 1, 71, 90
3, 71992, Note_on_c, 1, 71, 0
3, 72002, Note_on_c, 1, 81, 90
3, 72002, Note_on_c, 1, 76, 90
3, 72122, Note_on_c, 1, 76, 0
3, 72122, Note_on_c, 1, 81, 0
3, 72242, Note_on_c, 1, 81, 90
3, 72242, Note_on_c, 1, 76, 90
3, 72362, Note_on_c, 1, 76, 0
3, 72362, Note_on_c, 1, 81, 0
3, 72482, Note_on_c, 1, 76, 90
3, 72482, Note_on_c, 1, 81, 90
3, 72602, Note_on_c, 1, 81, 0
3, 72602, Note_on_c, 1, 76, 0
3, 72722, Note_on_c, 1, 76, 90
3, 72722, Note_on_c, 1, 81, 90
3, 72842, Note_on_c, 1, 81, 0
3, 72842, Note_on_c, 1, 76, 0
3, 72962, Note_on_c, 1, 81, 90
3, 72962, Note_on_c, 1, 76, 90
3, 73072, Note_on_c, 1, 76, 0
3, 73072, Note_on_c, 1, 81, 0
3, 73082, Note_on_c, 1, 76, 90
3, 73082, Note_on_c, 1, 81, 90
3, 73192, Note_on_c, 1, 81, 0
3, 73192, Note_on_c, 1, 76, 0
3, 73202, Note_on_c, 1, 76, 90
3, 73202, Note_on_c, 1, 81, 90
3, 73322, Note_on_c, 1, 81, 0
3, 73322, Note_on_c, 1, 76, 0
3, 73922, Control_c, 1, 11, 47
3, 73922, Note_on_c, 1, 79, 90
3, 74018, Note_on_c, 1, 79, 0
3, 74162, Note_on_c, 1, 79, 90
3, 74258, Note_on_c, 1, 79, 0
3, 74402, Note_on_c, 1, 79, 90
3, 74498, Note_on_c, 1, 79, 0
3, 74642, Note_on_c, 1, 78, 90
3, 74738, Note_on_c, 1, 78, 0
3, 74882, Control_c, 1, 11, 77
3, 74882, Note_on_c, 1, 81, 90
3, 74882, Note_on_c, 1, 76, 90
3, 75002, Note_on_c, 1, 76, 0
3, 75002, Note_on_c, 1, 81, 0
3, 75122, Note_on_c, 1, 76, 90
3, 75122, Note_on_c, 1, 81, 90
3, 75242, Note_on_c, 1, 81, 0
3, 75242, Note_on_c, 1, 76, 0
3, 75362, Note_on_c, 1, 81, 90
3, 75362, Note_on_c, 1, 76, 90
3, 75482, Note_on_c, 1, 76, 0
3, 75482, Note_on_c, 1, 81, 0
3, 75602, Note_on_c, 1, 76, 90
3, 75602, Note_on_c, 1, 81, 90
3, 75722, Note_on_c, 1, 81, 0
3, 75722, Note_on_c, 1, 76, 0
3, 75842, Note_on_c, 1, 81, 90
3, 75842, Note_on_c, 1, 76, 90
3, 75952, Note_on_c, 1, 76, 0
3, 75952, Note_on_c, 1, 81, 0
3, 75962, Note_on_c, 1, 76, 90
3, 75962, Note_on_c, 1, 81, 90
3, 76072, Note_on_c, 1, 81, 0
3, 76072, Note_on_c, 1, 76, 0
3, 76082, Note_on_c, 1, 81, 90
3, 76082, Note_on_c, 1, 76, 90
3, 76202, Note_on_c, 1, 76, 0
3, 76202, Note_on_c, 1, 81, 0
3, 76922, Note_on_c, 1, 79, 90
3, 76922, Note_on_c, 1, 76, 90
3, 76982, Note_on_c, 1, 76, 0
3, 76982, Note_on_c, 1, 79, 0
3, 77042, Note_on_c, 1, 76, 90
3, 77042, Note_on_c, 1, 79, 90
3, 77102, Note_on_c, 1, 79, 0
3, 77102, Note_on_c, 1, 76, 0
3, 77882, Note_on_c, 1, 79, 90
3, 77882, Note_on_c, 1, 74, 90
3, 77942, Note_on_c, 1, 74, 0
3, 77942, Note_on_c, 1, 79, 0
3, 78002, Note_on_c, 1, 74, 90
3, 78002, Note_on_c, 1, 79, 90
3, 78062, Note_on_c, 1, 79, 0
3, 78062, Note_on_c, 1, 74, 0
3, 79082, Control_c, 1, 11, 89
3, 79082, Note_on_c, 1, 78, 90
3, 79100, Control_c, 1, 11, 87
3, 79118, Control_c, 1, 11, 86
3, 79136, Control_c, 1, 11, 84
3, 79154, Control_c, 1, 11, 82
3, 79172, Control_c, 1, 11, 80
3, 79190, Control_c, 1, 11, 78
3, 79202, Note_on_c, 1, 78, 0
3, 79202, Note_on_c, 1, 79, 90
3, 79307, Note_on_c, 1, 79, 0
3, 79322, Note_on_c, 1, 73, 90
3, 79382, Note_on_c, 1, 73, 0
3, 79442, Note_on_c, 1, 74, 90
3, 79502, Note_on_c, 1, 74, 0
3, 79562, Note_on_c, 1, 67, 90
3, 79562, Note_on_c, 1, 79, 90
3, 79622, Note_on_c, 1, 79, 0
3, 79622, Note_on_c, 1, 67, 0
3, 79682, Note_on_c, 1, 67, 90
3, 79682, Note_on_c, 1, 79, 90
3, 79742, Note_on_c, 1, 79, 0
3, 79742, Note_on_c, 1, 67, 0
3, 79802, Note_on_c, 1, 79, 90
3, 79802, Note_on_c, 1, 67, 90
3, 79862, Note_on_c, 1, 67, 0
3, 79862, Note_on_c, 1, 79, 0
3, 79922, Note_on_c, 1, 67, 90
3, 79922, Note_on_c, 1, 79, 90
3, 79982, Note_on_c, 1, 79, 0
3, 79982, Note_on_c, 1, 67, 0
3, 80042, Note_on_c, 1, 79, 90
3, 80042, Note_on_c, 1, 67, 90
3, 80102, Note_on_c, 1, 67, 0
3, 80102, Note_on_c, 1, 79, 0
3, 80162, Note_on_c, 1, 79, 90
3, 80162, Note_on_c, 1, 67, 90
3, 80222, Note_on_c, 1, 67, 0
3, 80222, Note_on_c, 1, 79, 0
3, 80282, Note_on_c, 1, 79, 90
3, 80282, Note_on_c, 1, 67, 90
3, 80342, Note_on_c, 1, 67, 0
3, 80342, Note_on_c, 1, 79, 0
3, 80402, Note_on_c, 1, 79, 90
3, 80402, Note_on_c, 1, 67, 90
3, 80462, Note_on_c, 1, 67, 0
3, 80462, Note_on_c, 1, 79, 0
3, 80522, Note_on_c, 1, 79, 90
3, 80522, Note_on_c, 1, 67, 90
3, 80582, Note_on_c, 1, 67, 0
3, 80582, Note_on_c, 1, 79, 0
3, 80642, Note_on_c, 1, 67, 90
3, 80642, Note_on_c, 1, 79, 90
3, 80702, Note_on_c, 1, 79, 0
3, 80702, Note_on_c, 1, 67, 0
3, 80762, Note_on_c, 1, 79, 90
3, 80762, Note_on_c, 1, 67, 90
3, 80822, Note_on_c, 1, 67, 0
3, 80822, Note_on_c, 1, 79, 0
3, 80882, Note_on_c, 1, 79, 90
3, 80882, Note_on_c, 1, 67, 90
3, 80942, Note_on_c, 1, 67, 0
3, 80942, Note_on_c, 1, 79, 0
3, 81002, Note_on_c, 1, 73, 90
3, 81062, Note_on_c, 1, 73, 0
3, 81122, Note_on_c, 1, 74, 90
3, 81182, Note_on_c, 1, 74, 0
3, 81242, Note_on_c, 1, 73, 90
3, 81302, Note_on_c, 1, 73, 0
3, 81362, Note_on_c, 1, 74, 90
3, 81422, Note_on_c, 1, 74, 0
3, 81482, Note_on_c, 1, 74, 90
3, 81542, Note_on_c, 1, 74, 0
3, 81602, Note_on_c, 1, 67, 90
3, 81722, Note_on_c, 1, 67, 0
3, 81962, Control_c, 1, 1, 25
3, 81962, Control_c, 1, 11, 54
3, 81962, Note_on_c, 1, 79, 90
3, 82082, Note_on_c, 1, 79, 0
3, 82082, Note_on_c, 1, 78, 90
3, 82202, Note_on_c, 1, 78, 0
3, 82202, Note_on_c, 1, 79, 90
3, 82322, Note_on_c, 1, 79, 0
3, 82322, Note_on_c, 1, 74, 90
3, 82442, Note_on_c, 1, 74, 0
3, 82442, Note_on_c, 1, 76, 90
3, 82552, Note_on_c, 1, 76, 0
3, 82562, Note_on_c, 1, 76, 90
3, 82682, Note_on_c, 1, 76, 0
3, 82682, Note_on_c, 1, 74, 90
3, 82802, Note_on_c, 1, 74, 0
3, 82922, Note_on_c, 1, 74, 90
3, 82982, Note_on_c, 1, 74, 0
3, 83042, Note_on_c, 1, 72, 90
3, 83162, Note_on_c, 1, 72, 0
3, 83162, Note_on_c, 1, 71, 90
3, 83282, Note_on_c, 1, 71, 0
3, 83402, Control_c, 1, 11, 54
3, 83402, Note_on_c, 1, 71, 90
3, 83462, Note_on_c, 1, 71, 0
3, 83494, Control_c, 1, 11, 53
3, 83522, Note_on_c, 1, 69, 90
3, 83587, Control_c, 1, 11, 52
3, 83642, Note_on_c, 1, 69, 0
3, 83642, Note_on_c, 1, 67, 90
3, 83680, Control_c, 1, 11, 51
3, 83772, Control_c, 1, 11, 50
3, 83865, Control_c, 1, 11, 49
3, 83958, Control_c, 1, 11, 48
3, 84051, Control_c, 1, 11, 47
3, 84143, Control_c, 1, 11, 46
3, 84236, Control_c, 1, 11, 45
3, 84329, Control_c, 1, 11, 44
3, 84422, Control_c, 1, 11, 43
3, 84514, Control_c, 1, 11, 42
3, 84607, Control_c, 1, 11, 41
3, 84700, Control_c, 1, 11, 40
3, 84792, Control_c, 1, 11, 39
3, 84885, Control_c, 1, 11, 38
3, 84978, Control_c, 1, 11, 37
3, 85071, Control_c, 1, 11, 36
3, 85163, Control_c, 1, 11, 35
3, 85256, Control_c, 1, 11, 34
3, 85349, Control_c, 1, 11, 33
3, 85442, Control_c, 1, 11, 32
3, 85842, Control_c, 1, 11, 32
3, 85855, Control_c, 1, 11, 29
3, 85869, Control_c, 1, 11, 26
3, 85882, Control_c, 1, 11, 23
3, 85887, Note_on_c, 1, 67, 0
3, 86402, Control_c, 1, 1, 0
3, 86402, Control_c, 1, 11, 65
3, 86402, Note_on_c, 1, 80, 90
3, 86402, Note_on_c, 1, 74, 90
3, 86406, Control_c, 1, 11, 68
3, 86410, Control_c, 1, 11, 71
3, 86415, Control_c, 1, 11, 74
3, 86419, Control_c, 1, 11, 77
3, 86423, Control_c, 1, 11, 80
3, 86427, Control_c, 1, 11, 83
3, 86431, Control_c, 1, 11, 86
3, 86792, Control_c, 1, 11, 86
3, 86797, Control_c, 1, 11, 83
3, 86803, Control_c, 1, 11, 80
3, 86809, Control_c, 1, 11, 77
3, 86813, Control_c, 1, 11, 74
3, 86819, Control_c, 1, 11, 71
3, 86825, Control_c, 1, 11, 68
3, 86830, Control_c, 1, 11, 65
3, 86832, Note_on_c, 1, 74, 0
3, 86832, Note_on_c, 1, 80, 0
3, 87002, Control_c, 1, 1, 25
3, 87002, Control_c, 1, 11, 32
3, 87002, Note_on_c, 1, 79, 90
3, 87006, Control_c, 1, 11, 35
3, 87011, Control_c, 1, 11, 38
3, 87015, Control_c, 1, 11, 41
3, 87020, Control_c, 1, 11, 44
3, 87024, Control_c, 1, 11, 47
3, 87029, Control_c, 1, 11, 50
3, 87122, Note_on_c, 1, 79, 0
3, 87122, Note_on_c, 1, 77, 90
3, 87242, Note_on_c, 1, 77, 0
3, 87242, Note_on_c, 1, 75, 90
3, 87417, Note_on_c, 1, 75, 0
3, 87422, Note_on_c, 1, 75, 90
3, 87482, Note_on_c, 1, 75, 0
3, 87482, Note_on_c, 1, 75, 90
3, 87482, Note_on_c, 1, 82, 90
3, 87502, Note_on_c, 1, 82, 0
3, 87502, Note_on_c, 1, 80, 90
3, 87542, Note_on_c, 1, 75, 0
3, 87542, Note_on_c, 1, 75, 90
3, 87572, Note_on_c, 1, 80, 0
3, 87572, Note_on_c, 1, 79, 90
3, 87597, Note_on_c, 1, 79, 0
3, 87602, Note_on_c, 1, 75, 0
3, 87602, Control_c, 1, 11, 52
3, 87602, Note_on_c, 1, 79, 90
3, 87602, Note_on_c, 1, 72, 90
3, 87622, Control_c, 1, 11, 55
3, 87643, Control_c, 1, 11, 58
3, 87663, Control_c, 1, 11, 61
3, 87684, Control_c, 1, 11, 63
3, 87704, Control_c, 1, 11, 65
3, 87722, Note_on_c, 1, 79, 0
3, 87722, Note_on_c, 1, 78, 90
3, 87725, Control_c, 1, 11, 66
3, 87746, Control_c, 1, 11, 68
3, 87766, Control_c, 1, 11, 70
3, 87787, Control_c, 1, 11, 72
3, 87807, Control_c, 1, 11, 74
3, 87828, Control_c, 1, 11, 76
3, 87837, Note_on_c, 1, 78, 0
3, 87837, Note_on_c, 1, 72, 0
3, 87842, Control_c, 1, 11, 85
3, 87842, Note_on_c, 1, 77, 90
3, 87851, Control_c, 1, 11, 82
3, 87862, Control_c, 1, 11, 79
3, 87877, Control_c, 1, 11, 76
3, 87895, Control_c, 1, 11, 74
3, 87913, Control_c, 1, 11, 73
3, 87931, Control_c, 1, 11, 71
3, 87949, Control_c, 1, 11, 69
3, 87962, Note_on_c, 1, 71, 75
3, 87977, Control_c, 1, 11, 67
3, 87992, Control_c, 1, 11, 66
3, 88007, Control_c, 1, 11, 66
3, 88022, Control_c, 1, 11, 65
3, 88037, Control_c, 1, 11, 65
3, 88052, Control_c, 1, 11, 64
3, 88067, Control_c, 1, 11, 63
3, 88082, Note_on_c, 1, 71, 0
3, 88082, Control_c, 1, 11, 63
3, 88082, Note_on_c, 1, 70, 75
3, 88097, Control_c, 1, 11, 62
3, 88112, Control_c, 1, 11, 62
3, 88127, Control_c, 1, 11, 61
3, 88137, Note_on_c, 1, 77, 0
3, 88142, Control_c, 1, 11, 60
3, 88142, Note_on_c, 1, 83, 90
3, 88157, Control_c, 1, 11, 59
3, 88172, Control_c, 1, 11, 58
3, 88187, Control_c, 1, 11, 57
3, 88202, Note_on_c, 1, 83, 0
3, 88202, Control_c, 1, 11, 56
3, 88202, Note_on_c, 1, 82, 90
3, 88217, Control_c, 1, 11, 55
3, 88232, Control_c, 1, 11, 54
3, 88247, Control_c, 1, 11, 53
3, 88257, Note_on_c, 1, 70, 0
3, 88262, Note_on_c, 1, 82, 0
3, 88262, Control_c, 1, 11, 52
3, 88262, Note_on_c, 1, 77, 90
3, 88317, Note_on_c, 1, 77, 0
3, 88322, Note_on_c, 1, 79, 90
3, 88382, Note_on_c, 1, 79, 0
3, 88382, Note_on_c, 1, 80, 90
3, 88382, Note_on_c, 1, 72, 90
3, 88412, Note_on_c, 1, 80, 0
3, 88412, Note_on_c, 1, 77, 90
3, 88437, Note_on_c, 1, 77, 0
3, 88437, Note_on_c, 1, 72, 0
3, 88442, Note_on_c, 1, 75, 90
3, 88442, Note_on_c, 1, 67, 90
3, 88497, Note_on_c, 1, 67, 0
3, 88502, Note_on_c, 1, 70, 90
3, 88592, Note_on_c, 1, 75, 0
3, 88592, Note_on_c, 1, 74, 90
3, 88617, Note_on_c, 1, 70, 0
3, 88622, Note_on_c, 1, 74, 0
3, 88622, Note_on_c, 1, 75, 90
3, 88622, Note_on_c, 1, 70, 90
3, 88652, Note_on_c, 1, 75, 0
3, 88652, Note_on_c, 1, 77, 90
3, 88677, Note_on_c, 1, 77, 0
3, 88682, Note_on_c, 1, 70, 0
3, 88682, Note_on_c, 1, 77, 90
3, 88682, Note_on_c, 1, 70, 90
3, 88712, Note_on_c, 1, 77, 0
3, 88712, Note_on_c, 1, 75, 90
3, 88742, Note_on_c, 1, 75, 0
3, 88742, Note_on_c, 1, 70, 0
3, 90002, Control_c, 1, 11, 59
3, 90002, Note_on_c, 1, 71, 90
3, 90026, Control_c, 1, 11, 57
3, 90045, Control_c, 1, 11, 55
3, 90062, Note_on_c, 1, 71, 0
3, 90062, Note_on_c, 1, 70, 90
3, 90064, Control_c, 1, 11, 53
3, 90083, Control_c, 1, 11, 51
3, 90102, Control_c, 1, 11, 49
3, 90122, Note_on_c, 1, 70, 0
3, 90122, Control_c, 1, 11, 47
3, 90617, Control_c, 1, 1, 0
3, 90617, Note_on_c, 1, 79, 85
3, 90627, Note_on_c, 1, 79, 0
3, 90632, Note_on_c, 1, 79, 94
3, 90642, Note_on_c, 1, 79, 0
3, 90647, Note_on_c, 1, 79, 103
3, 90657, Note_on_c, 1, 79, 0
3, 90662, Note_on_c, 1, 79, 112
3, 90687, Note_on_c, 1, 79, 0
3, 90692, Note_on_c, 1, 79, 85
3, 90717, Note_on_c, 1, 79, 0
3, 90737, Note_on_c, 1, 79, 85
3, 90747, Note_on_c, 1, 79, 0
3, 90752, Note_on_c, 1, 79, 94
3, 90762, Note_on_c, 1, 79, 0
3, 90767, Note_on_c, 1, 79, 103
3, 90777, Note_on_c, 1, 79, 0
3, 90782, Note_on_c, 1, 79, 112
3, 90807, Note_on_c, 1, 79, 0
3, 90812, Note_on_c, 1, 79, 85
3, 90837, Note_on_c, 1, 79, 0
3, 90872, Control_c, 1, 11, 52
3, 90896, Control_c, 1, 11, 54
3, 90920, Control_c, 1, 11, 56
3, 90932, Note_on_c, 1, 76, 90
3, 90944, Control_c, 1, 11, 58
3, 90962, Note_on_c, 1, 76, 0
3, 90968, Control_c, 1, 11, 60
3, 90992, Control_c, 1, 11, 62
3, 90992, Note_on_c, 1, 79, 90
3, 91016, Control_c, 1, 11, 63
3, 91022, Note_on_c, 1, 79, 0
3, 91040, Control_c, 1, 11, 64
3, 91052, Note_on_c, 1, 76, 90
3, 91052, Note_on_c, 1, 79, 90
3, 91064, Control_c, 1, 11, 65
3, 91082, Note_on_c, 1, 79, 0
3, 91082, Note_on_c, 1, 76, 0
3, 91088, Control_c, 1, 11, 66
3, 91112, Control_c, 1, 11, 68
3, 91112, Note_on_c, 1, 79, 90
3, 91112, Note_on_c, 1, 76, 90
3, 91136, Control_c, 1, 11, 69
3, 91142, Note_on_c, 1, 76, 0
3, 91142, Note_on_c, 1, 79, 0
3, 91160, Control_c, 1, 11, 70
3, 91172, Note_on_c, 1, 82, 90
3, 91172, Note_on_c, 1, 76, 90
3, 91197, Note_on_c, 1, 76, 0
3, 91197, Note_on_c, 1, 82, 0
3, 91202, Control_c, 1, 11, 37
3, 91202, Note_on_c, 1, 81, 90
3, 91202, Note_on_c, 1, 77, 90
3, 91205, Control_c, 1, 11, 40
3, 91208, Control_c, 1, 11, 43
3, 91211, Control_c, 1, 11, 46
3, 91214, Control_c, 1, 11, 49
3, 91217, Control_c, 1, 11, 52
3, 91262, Note_on_c, 1, 77, 0
3, 91262, Note_on_c, 1, 81, 0
3, 91697, Note_on_c, 1, 81, 85
3, 91707, Note_on_c, 1, 81, 0
3, 91712, Note_on_c, 1, 81, 94
3, 91722, Note_on_c, 1, 81, 0
3, 91727, Note_on_c, 1, 81, 103
3, 91737, Note_on_c, 1, 81, 0
3, 91742, Note_on_c, 1, 81, 112
3, 91767, Note_on_c, 1, 81, 0
3, 91772, Note_on_c, 1, 81, 85
3, 91797, Note_on_c, 1, 81, 0
3, 91817, Note_on_c, 1, 81, 85
3, 91827, Note_on_c, 1, 81, 0
3, 91832, Note_on_c, 1, 81, 94
3, 91842, Note_on_c, 1, 81, 0
3, 91847, Note_on_c, 1, 81, 103
3, 91857, Note_on_c, 1, 81, 0
3, 91862, Note_on_c, 1, 81, 112
3, 91887, Note_on_c, 1, 81, 0
3, 91892, Note_on_c, 1, 81, 85
3, 91917, Note_on_c, 1, 81, 0
3, 91952, Control_c, 1, 11, 47
3, 91976, Control_c, 1, 11, 49
3, 92000, Control_c, 1, 11, 51
3, 92012, Note_on_c, 1, 78, 90
3, 92024, Control_c, 1, 11, 53
3, 92042, Note_on_c, 1, 78, 0
3, 92048, Control_c, 1, 11, 55
3, 92072, Control_c, 1, 11, 57
3, 92072, Note_on_c, 1, 81, 90
3, 92096, Control_c, 1, 11, 59
3, 92102, Note_on_c, 1, 81, 0
3, 92120, Control_c, 1, 11, 61
3, 92132, Note_on_c, 1, 78, 90
3, 92144, Control_c, 1, 11, 62
3, 92162, Note_on_c, 1, 78, 0
3, 92168, Control_c, 1, 11, 63
3, 92192, Control_c, 1, 11, 65
3, 92192, Note_on_c, 1, 81, 90
3, 92216, Control_c, 1, 11, 66
3, 92222, Note_on_c, 1, 81, 0
3, 92240, Control_c, 1, 11, 67
3, 92252, Note_on_c, 1, 78, 90
3, 92277, Note_on_c, 1, 78, 0
3, 93122, Control_c, 1, 1, 25
3, 93122, Control_c, 1, 11, 68
3, 93122, Note_on_c, 1, 77, 90
3, 93122, Note_on_c, 1, 74, 90
3, 93138, Control_c, 1, 11, 68
3, 93154, Control_c, 1, 11, 69
3, 93170, Control_c, 1, 11, 70
3, 93186, Control_c, 1, 11, 70
3, 93202, Control_c, 1, 11, 71
3, 93218, Control_c, 1, 11, 71
3, 93234, Control_c, 1, 11, 72
3, 93242, Note_on_c, 1, 74, 0
3, 93242, Note_on_c, 1, 77, 0
3, 93242, Note_on_c, 1, 72, 90
3, 93242, Note_on_c, 1, 76, 90
3, 93250, Control_c, 1, 11, 73
3, 93266, Control_c, 1, 11, 73
3, 93282, Control_c, 1, 11, 74
3, 93298, Control_c, 1, 11, 74
3, 93314, Control_c, 1, 11, 75
3, 93330, Control_c, 1, 11, 76
3, 93346, Control_c, 1, 11, 76
3, 93357, Note_on_c, 1, 76, 0
3, 93357, Note_on_c, 1, 72, 0
3, 93362, Control_c, 1, 11, 77
3, 93362, Note_on_c, 1, 74, 90
3, 93378, Control_c, 1, 11, 78
3, 93394, Control_c, 1, 11, 79
3, 93410, Control_c, 1, 11, 81
3, 93426, Control_c, 1, 11, 82
3, 93442, Control_c, 1, 11, 83
3, 93458, Control_c, 1, 11, 84
3, 93467, Note_on_c, 1, 74, 0
3, 93467, Note_on_c, 1, 81, 90
3, 93474, Control_c, 1, 11, 86
3, 93477, Note_on_c, 1, 81, 0
3, 93482, Note_on_c, 1, 81, 90
3, 93490, Control_c, 1, 11, 85
3, 93508, Control_c, 1, 11, 82
3, 93525, Control_c, 1, 11, 80
3, 93543, Control_c, 1, 11, 78
3, 93560, Control_c, 1, 11, 75
3, 93578, Control_c, 1, 11, 73
3, 93595, Control_c, 1, 11, 70
3, 93612, Control_c, 1, 11, 68
3, 93630, Control_c, 1, 11, 65
3, 93647, Control_c, 1, 11, 63
3, 93662, Note_on_c, 1, 81, 0
3, 93662, Note_on_c, 1, 79, 90
3, 93665, Control_c, 1, 11, 60
3, 93678, Control_c, 1, 11, 57
3, 93691, Control_c, 1, 11, 54
3, 93704, Control_c, 1, 11, 51
3, 93717, Note_on_c, 1, 79, 0
3, 93717, Control_c, 1, 11, 48
3, 93722, Note_on_c, 1, 77, 89
3, 93749, Control_c, 1, 11, 46
3, 93777, Control_c, 1, 11, 45
3, 93782, Note_on_c, 1, 77, 0
3, 93782, Note_on_c, 1, 76, 88
3, 93805, Control_c, 1, 11, 44
3, 93832, Control_c, 1, 11, 43
3, 93842, Note_on_c, 1, 76, 0
3, 93842, Note_on_c, 1, 74, 87
3, 93860, Control_c, 1, 11, 42
3, 93888, Control_c, 1, 11, 41
3, 93902, Note_on_c, 1, 74, 0
3, 93902, Note_on_c, 1, 72, 86
3, 93915, Control_c, 1, 11, 40
3, 93943, Control_c, 1, 11, 39
3, 93962, Note_on_c, 1, 72, 0
3, 93962, Note_on_c, 1, 71, 85
3, 93971, Control_c, 1, 11, 38
3, 93998, Control_c, 1, 11, 37
3, 94022, Note_on_c, 1, 71, 0
3, 94022, Note_on_c, 1, 81, 84
3, 94026, Control_c, 1, 11, 36
3, 94054, Control_c, 1, 11, 35
3, 94077, Note_on_c, 1, 81, 0
3, 94082, Control_c, 1, 11, 34
3, 94082, Note_on_c, 1, 79, 82
3, 94097, Control_c, 1, 11, 37
3, 94137, Note_on_c, 1, 79, 0
3, 94142, Note_on_c, 1, 77, 81
3, 94163, Control_c, 1, 11, 36
3, 94197, Note_on_c, 1, 77, 0
3, 94202, Note_on_c, 1, 76, 80
3, 94229, Control_c, 1, 11, 35
3, 94257, Note_on_c, 1, 76, 0
3, 94262, Note_on_c, 1, 77, 79
3, 94295, Control_c, 1, 11, 34
3, 94317, Note_on_c, 1, 77, 0
3, 94322, Note_on_c, 1, 74, 78
3, 94361, Control_c, 1, 11, 33
3, 94377, Note_on_c, 1, 74, 0
3, 94382, Note_on_c, 1, 72, 77
3, 94427, Control_c, 1, 11, 32
3, 94437, Note_on_c, 1, 72, 0
3, 94802, Control_c, 1, 11, 32
3, 94802, Note_on_c, 1, 77, 100
3, 94809, Control_c, 1, 11, 35
3, 94816, Control_c, 1, 11, 38
3, 94823, Control_c, 1, 11, 41
3, 94830, Control_c, 1, 11, 44
3, 94838, Control_c, 1, 11, 47
3, 94845, Control_c, 1, 11, 50
3, 94852, Control_c, 1, 11, 53
3, 94859, Control_c, 1, 11, 56
3, 94892, Note_on_c, 1, 77, 0
3, 94892, Note_on_c, 1, 76, 83
3, 94902, Note_on_c, 1, 76, 0
3, 94902, Note_on_c, 1, 74, 83
3, 94912, Note_on_c, 1, 74, 0
3, 94912, Note_on_c, 1, 72, 83
3, 94922, Note_on_c, 1, 72, 0
3, 94922, Note_on_c, 1, 71, 100
3, 94952, Control_c, 1, 11, 57
3, 94955, Control_c, 1, 11, 54
3, 94958, Control_c, 1, 11, 51
3, 94962, Control_c, 1, 11, 48
3, 94965, Control_c, 1, 11, 45
3, 94969, Control_c, 1, 11, 42
3, 94972, Control_c, 1, 11, 39
3, 94976, Control_c, 1, 11, 36
3, 94979, Control_c, 1, 11, 33
3, 94982, Note_on_c, 1, 71, 0
3, 95162, Control_c, 1, 11, 32
3, 95162, Note_on_c, 1, 81, 100
3, 95169, Control_c, 1, 11, 35
3, 95176, Control_c, 1, 11, 38
3, 95183, Control_c, 1, 11, 41
3, 95190, Control_c, 1, 11, 44
3, 95198, Control_c, 1, 11, 47
3, 95205, Control_c, 1, 11, 50
3, 95212, Control_c, 1, 11, 53
3, 95219, Control_c, 1, 11, 56
3, 95252, Note_on_c, 1, 81, 0
3, 95252, Note_on_c, 1, 79, 83
3, 95262, Note_on_c, 1, 79, 0
3, 95262, Note_on_c, 1, 77, 83
3, 95272, Note_on_c, 1, 77, 0
3, 95272, Note_on_c, 1, 76, 83
3, 95282, Note_on_c, 1, 76, 0
3, 95282, Note_on_c, 1, 74, 90
3, 95312, Control_c, 1, 11, 57
3, 95315, Control_c, 1, 11, 54
3, 95318, Control_c, 1, 11, 51
3, 95322, Control_c, 1, 11, 48
3, 95325, Control_c, 1, 11, 45
3, 95329, Control_c, 1, 11, 42
3, 95332, Control_c, 1, 11, 39
3, 95336, Control_c, 1, 11, 36
3, 95339, Control_c, 1, 11, 33
3, 95342, Note_on_c, 1, 74, 0
3, 95402, Control_c, 1, 1, 0
3, 95402, Control_c, 1, 11, 32
3, 95402, Note_on_c, 1, 77, 90
3, 95402, Note_on_c, 1, 74, 90
3, 95426, Control_c, 1, 11, 34
3, 95450, Control_c, 1, 11, 36
3, 95627, Note_on_c, 1, 74, 0
3, 95627, Note_on_c, 1, 77, 0
3, 95642, Note_on_c, 1, 74, 90
3, 95642, Note_on_c, 1, 77, 90
3, 95747, Note_on_c, 1, 77, 0
3, 95747, Note_on_c, 1, 74, 0
3, 95762, Note_on_c, 1, 77, 90
3, 95762, Note_on_c, 1, 74, 90
3, 96002, Control_c, 1, 11, 37
3, 96030, Control_c, 1, 11, 38
3, 96059, Control_c, 1, 11, 39
3, 96088, Control_c, 1, 11, 40
3, 96112, Note_on_c, 1, 74, 0
3, 96112, Note_on_c, 1, 77, 0
3, 96117, Control_c, 1, 11, 41
3, 96122, Note_on_c, 1, 74, 90
3, 96122, Note_on_c, 1, 77, 90
3, 96146, Control_c, 1, 11, 42
3, 96174, Control_c, 1, 11, 43
3, 96203, Control_c, 1, 11, 44
3, 96227, Note_on_c, 1, 77, 0
3, 96227, Note_on_c, 1, 74, 0
3, 96232, Control_c, 1, 11, 45
3, 96242, Note_on_c, 1, 77, 90
3, 96242, Note_on_c, 1, 74, 90
3, 96261, Control_c, 1, 11, 46
3, 96290, Control_c, 1, 11, 47
3, 96318, Control_c, 1, 11, 48
3, 96347, Control_c, 1, 11, 49
3, 96376, Control_c, 1, 11, 50
3, 96405, Control_c, 1, 11, 51
3, 96434, Control_c, 1, 11, 52
3, 96462, Control_c, 1, 11, 53
3, 96491, Control_c, 1, 11, 54
3, 96520, Control_c, 1, 11, 55
3, 96549, Control_c, 1, 11, 56
3, 96578, Control_c, 1, 11, 57
3, 96592, Note_on_c, 1, 74, 0
3, 96592, Note_on_c, 1, 77, 0
3, 96602, Note_on_c, 1, 74, 90
3, 96602, Note_on_c, 1, 77, 90
3, 96606, Control_c, 1, 11, 58
3, 96635, Control_c, 1, 11, 59
3, 96664, Control_c, 1, 11, 60
3, 96693, Control_c, 1, 11, 61
3, 96722, Control_c, 1, 11, 62
3, 96750, Control_c, 1, 11, 62
3, 96779, Control_c, 1, 11, 63
3, 96808, Control_c, 1, 11, 63
3, 96832, Note_on_c, 1, 77, 0
3, 96832, Note_on_c, 1, 74, 0
3, 96837, Control_c, 1, 11, 64
3, 96842, Note_on_c, 1, 74, 90
3, 96842, Note_on_c, 1, 77, 90
3, 96866, Control_c, 1, 11, 65
3, 96894, Control_c, 1, 11, 65
3, 96923, Control_c, 1, 11, 66
3, 96952, Control_c, 1, 11, 66
3, 96981, Control_c, 1, 11, 67
3, 97010, Control_c, 1, 11, 68
3, 97038, Control_c, 1, 11, 68
3, 97067, Control_c, 1, 11, 69
3, 97072, Note_on_c, 1, 77, 0
3, 97072, Note_on_c, 1, 74, 0
3, 97082, Note_on_c, 1, 74, 90
3, 97082, Note_on_c, 1, 77, 90
3, 97096, Control_c, 1, 11, 70
3, 97125, Control_c, 1, 11, 70
3, 97154, Control_c, 1, 11, 71
3, 97182, Control_c, 1, 11, 71
3, 97211, Control_c, 1, 11, 72
3, 97240, Control_c, 1, 11, 73
3, 97269, Control_c, 1, 11, 73
3, 97298, Control_c, 1, 11, 74
3, 97312, Note_on_c, 1, 77, 0
3, 97312, Note_on_c, 1, 74, 0
3, 97322, Note_on_c, 1, 74, 90
3, 97322, Note_on_c, 1, 77, 90
3, 97326, Control_c, 1, 11, 74
3, 97355, Control_c, 1, 11, 75
3, 97384, Control_c, 1, 11, 76
3, 97413, Control_c, 1, 11, 76
3, 97432, Note_on_c, 1, 77, 0
3, 97432, Note_on_c, 1, 74, 0
3, 97442, Control_c, 1, 11, 77
3, 97442, Note_on_c, 1, 77, 90
3, 97442, Note_on_c, 1, 74, 90
3, 97552, Note_on_c, 1, 74, 0
3, 97552, Note_on_c, 1, 77, 0
3, 97562, Note_on_c, 1, 74, 90
3, 97562, Note_on_c, 1, 77, 90
3, 97672, Note_on_c, 1, 77, 0
3, 97672, Note_on_c, 1, 74, 0
3, 97682, Note_on_c, 1, 74, 90
3, 97682, Note_on_c, 1, 77, 90
3, 97792, Note_on_c, 1, 77, 0
3, 97792, Note_on_c, 1, 74, 0
3, 97802, Note_on_c, 1, 74, 90
3, 97802, Note_on_c, 1, 77, 90
3, 97912, Note_on_c, 1, 77, 0
3, 97912, Note_on_c, 1, 74, 0
3, 97922, Control_c, 1, 11, 77
3, 97922, Note_on_c, 1, 74, 90
3, 97922, Note_on_c, 1, 77, 90
3, 98014, Control_c, 1, 11, 78
3, 98032, Note_on_c, 1, 77, 0
3, 98032, Note_on_c, 1, 74, 0
3, 98042, Note_on_c, 1, 77, 90
3, 98042, Note_on_c, 1, 74, 90
3, 98106, Control_c, 1, 11, 78
3, 98152, Note_on_c, 1, 74, 0
3, 98152, Note_on_c, 1, 77, 0
3, 98162, Note_on_c, 1, 74, 90
3, 98162, Note_on_c, 1, 77, 90
3, 98198, Control_c, 1, 11, 79
3, 98272, Note_on_c, 1, 77, 0
3, 98272, Note_on_c, 1, 74, 0
3, 98282, Note_on_c, 1, 74, 90
3, 98282, Note_on_c, 1, 77, 90
3, 98290, Control_c, 1, 11, 79
3, 98382, Control_c, 1, 11, 80
3, 98392, Note_on_c, 1, 77, 0
3, 98392, Note_on_c, 1, 74, 0
3, 98402, Note_on_c, 1, 74, 90
3, 98402, Note_on_c, 1, 77, 90
3, 98474, Control_c, 1, 11, 81
3, 98512, Note_on_c, 1, 77, 0
3, 98512, Note_on_c, 1, 74, 0
3, 98522, Note_on_c, 1, 74, 90
3, 98522, Note_on_c, 1, 77, 90
3, 98566, Control_c, 1, 11, 81
3, 98632, Note_on_c, 1, 77, 0
3, 98632, Note_on_c, 1, 74, 0
3, 98642, Note_on_c, 1, 77, 90
3, 98642, Note_on_c, 1, 74, 90
3, 98658, Control_c, 1, 11, 82
3, 98750, Control_c, 1, 11, 82
3, 98752, Note_on_c, 1, 74, 0
3, 98752, Note_on_c, 1, 77, 0
3, 98762, Note_on_c, 1, 77, 90
3, 98762, Note_on_c, 1, 74, 90
3, 98842, Control_c, 1, 11, 83
3, 98872, Note_on_c, 1, 74, 0
3, 98872, Note_on_c, 1, 77, 0
3, 98882, Note_on_c, 1, 74, 90
3, 98882, Note_on_c, 1, 77, 90
3, 98934, Control_c, 1, 11, 84
3, 98992, Note_on_c, 1, 77, 0
3, 98992, Note_on_c, 1, 74, 0
3, 99002, Note_on_c, 1, 74, 90
3, 99002, Note_on_c, 1, 77, 90
3, 99026, Control_c, 1, 11, 84
3, 99112, Note_on_c, 1, 77, 0
3, 99112, Note_on_c, 1, 74, 0
3, 99118, Control_c, 1, 11, 85
3, 99122, Note_on_c, 1, 72, 90
3, 99122, Note_on_c, 1, 76, 90
3, 99210, Control_c, 1, 11, 86
3, 99232, Note_on_c, 1, 76, 0
3, 99232, Note_on_c, 1, 72, 0
3, 99242, Note_on_c, 1, 76, 90
3, 99242, Note_on_c, 1, 84, 90
3, 99302, Control_c, 1, 11, 86
3, 99362, Note_on_c, 1, 84, 0
3, 99362, Note_on_c, 1, 76, 0
3, 99482, Note_on_c, 1, 76, 90
3, 99482, Note_on_c, 1, 84, 90
3, 99602, Note_on_c, 1, 84, 0
3, 99602, Note_on_c, 1, 76, 0
3, 99722, Note_on_c, 1, 84, 90
3, 99722, Note_on_c, 1, 76, 90
3, 99842, Note_on_c, 1, 76, 0
3, 99842, Note_on_c, 1, 84, 0
3, 99842, Note_on_c, 1, 84, 90
3, 99842, Note_on_c, 1, 76, 90
3, 99962, Note_on_c, 1, 76, 0
3, 99962, Note_on_c, 1, 84, 0
3, 99962, Note_on_c, 1, 72, 90
3, 99962, Note_on_c, 1, 76, 90
3, 100082, Note_on_c, 1, 76, 0
3, 100082, Note_on_c, 1, 72, 0
3, 100082, Note_on_c, 1, 76, 90
3, 100082, Note_on_c, 1, 72, 90
3, 100682, Note_on_c, 1, 72, 0
3, 100682, Note_on_c, 1, 76, 0
3, 100682, Note_on_c, 1, 77, 90
3, 100682, Note_on_c, 1, 72, 90
3, 100802, Note_on_c, 1, 72, 0
3, 100802, Note_on_c, 1, 77, 0
3, 100802, Note_on_c, 1, 72, 90
3, 100802, Note_on_c, 1, 76, 90
3, 100922, Note_on_c, 1, 76, 0
3, 100922, Note_on_c, 1, 72, 0
3, 100922, Note_on_c, 1, 76, 90
3, 100922, Note_on_c, 1, 72, 90
3, 101042, Note_on_c, 1, 72, 0
3, 101042, Note_on_c, 1, 76, 0
3, 101042, Note_on_c, 1, 76, 90
3, 101042, Note_on_c, 1, 72, 90
3, 101642, Note_on_c, 1, 72, 0
3, 101642, Note_on_c, 1, 76, 0
3, 101642, Note_on_c, 1, 77, 90
3, 101642, Note_on_c, 1, 72, 90
3, 101762, Note_on_c, 1, 72, 0
3, 101762, Note_on_c, 1, 77, 0
3, 101762, Note_on_c, 1, 76, 90
3, 101762, Note_on_c, 1, 72, 90
3, 101882, Note_on_c, 1, 72, 0
3, 101882, Note_on_c, 1, 76, 0
3, 102122, Note_on_c, 1, 76, 90
3, 102122, Note_on_c, 1, 72, 90
3, 102242, Note_on_c, 1, 72, 0
3, 102242, Note_on_c, 1, 76, 0
3, 102242, Note_on_c, 1, 76, 90
3, 102242, Note_on_c, 1, 72, 90
3, 102362, Note_on_c, 1, 72, 0
3, 102362, Note_on_c, 1, 76, 0
3, 102602, Note_on_c, 1, 79, 90
3, 102602, Note_on_c, 1, 76, 90
3, 102722, Note_on_c, 1, 76, 0
3, 102722, Note_on_c, 1, 79, 0
3, 102722, Note_on_c, 1, 81, 90
3, 102722, Note_on_c, 1, 74, 90
3, 102842, Note_on_c, 1, 74, 0
3, 102842, Note_on_c, 1, 81, 0
3, 103082, Note_on_c, 1, 81, 90
3, 103082, Note_on_c, 1, 74, 90
3, 103202, Note_on_c, 1, 74, 0
3, 103202, Note_on_c, 1, 81, 0
3, 103202, Note_on_c, 1, 77, 90
3, 103202, Note_on_c, 1, 74, 90
3, 103322, Note_on_c, 1, 74, 0
3, 103322, Note_on_c, 1, 77, 0
3, 103562, Note_on_c, 1, 77, 90
3, 103562, Note_on_c, 1, 74, 90
3, 103682, Note_on_c, 1, 74, 0
3, 103682, Note_on_c, 1, 77, 0
3, 103682, Note_on_c, 1, 72, 90
3, 103682, Note_on_c, 1, 76, 90
3, 103802, Note_on_c, 1, 76, 0
3, 103802, Note_on_c, 1, 72, 0
3, 104042, Note_on_c, 1, 76, 90
3, 104042, Note_on_c, 1, 72, 90
3, 104162, Note_on_c, 1, 72, 0
3, 104162, Note_on_c, 1, 76, 0
3, 104162, Note_on_c, 1, 76, 90
3, 104162, Note_on_c, 1, 72, 90
3, 104282, Note_on_c, 1, 72, 0
3, 104282, Note_on_c, 1, 76, 0
3, 104522, Note_on_c, 1, 79, 90
3, 104522, Note_on_c, 1, 76, 90
3, 104642, Note_on_c, 1, 76, 0
3, 104642, Note_on_c, 1, 79, 0
3, 104642, Note_on_c, 1, 81, 90
3, 104642, Note_on_c, 1, 74, 90
3, 104762, Note_on_c, 1, 74, 0
3, 104762, Note_on_c, 1, 81, 0
3, 105002, Note_on_c, 1, 74, 90
3, 105002, Note_on_c, 1, 81, 90
3, 105122, Note_on_c, 1, 81, 0
3, 105122, Note_on_c, 1, 74, 0
3, 105122, Note_on_c, 1, 81, 90
3, 105122, Note_on_c, 1, 74, 90
3, 105242, Note_on_c, 1, 74, 0
3, 105242, Note_on_c, 1, 81, 0
3, 105482, Note_on_c, 1, 74, 90
3, 105482, Note_on_c, 1, 81, 90
3, 105602, Note_on_c, 1, 81, 0
3, 105602, Note_on_c, 1, 74, 0
3, 105602, Note_on_c, 1, 81, 90
3, 105602, Note_on_c, 1, 74, 90
3, 105722, Note_on_c, 1, 74, 0
3, 105722, Note_on_c, 1, 81, 0
3, 105962, Note_on_c, 1, 74, 90
3, 105962, Note_on_c, 1, 81, 90
3, 106082, Note_on_c, 1, 81, 0
3, 106082, Note_on_c, 1, 74, 0
3, 106082, Note_on_c, 1, 81, 90
3, 106082, Note_on_c, 1, 74, 90
3, 106202, Note_on_c, 1, 74, 0
3, 106202, Note_on_c, 1, 81, 0
3, 106442, Note_on_c, 1, 74, 90
3, 106442, Note_on_c, 1, 81, 90
3, 106562, Note_on_c, 1, 81, 0
3, 106562, Note_on_c, 1, 74, 0
3, 106562, Note_on_c, 1, 74, 75
3, 106562, Note_on_c, 1, 79, 75
3, 106682, Note_on_c, 1, 79, 0
3, 106682, Note_on_c, 1, 74, 0
3, 109442, Control_c, 1, 1, 20
3, 109442, Control_c, 1, 11, 71
3, 109442, Note_on_c, 1, 77, 100
3, 109461, Control_c, 1, 11, 70
3, 109480, Control_c, 1, 11, 70
3, 109499, Control_c, 1, 11, 69
3, 109518, Control_c, 1, 11, 68
3, 109538, Control_c, 1, 11, 68
3, 109557, Control_c, 1, 11, 67
3, 109576, Control_c, 1, 11, 66
3, 109595, Control_c, 1, 11, 66
3, 109614, Control_c, 1, 11, 65
3, 109634, Control_c, 1, 11, 65
3, 109653, Control_c, 1, 11, 64
3, 109672, Control_c, 1, 11, 63
3, 109691, Control_c, 1, 11, 63
3, 109710, Control_c, 1, 11, 62
3, 109730, Control_c, 1, 11, 62
3, 109749, Control_c, 1, 11, 61
3, 109768, Control_c, 1, 11, 60
3, 109787, Control_c, 1, 11, 59
3, 109806, Control_c, 1, 11, 58
3, 109826, Control_c, 1, 11, 57
3, 109845, Control_c, 1, 11, 56
3, 109864, Control_c, 1, 11, 55
3, 109883, Control_c, 1, 11, 54
3, 109902, Control_c, 1, 11, 53
3, 109922, Control_c, 1, 11, 52
3, 110272, Note_on_c, 1, 77, 0
3, 110282, Note_on_c, 1, 76, 100
3, 110322, Note_on_c, 1, 76, 0
3, 110322, Note_on_c, 1, 74, 100
3, 110362, Note_on_c, 1, 74, 0
3, 110362, Note_on_c, 1, 72, 100
3, 110402, Note_on_c, 1, 72, 0
3, 110402, Note_on_c, 1, 71, 90
3, 110512, Note_on_c, 1, 71, 0
3, 110522, Note_on_c, 1, 74, 100
3, 110752, Note_on_c, 1, 74, 0
3, 110762, Note_on_c, 1, 76, 100
3, 110992, Note_on_c, 1, 76, 0
3, 111002, Note_on_c, 1, 77, 100
3, 111232, Note_on_c, 1, 77, 0
3, 111242, Note_on_c, 1, 79, 100
3, 111352, Note_on_c, 1, 79, 0
3, 111362, Control_c, 1, 11, 71
3, 111362, Note_on_c, 1, 80, 100
3, 111390, Control_c, 1, 11, 70
3, 111419, Control_c, 1, 11, 70
3, 111448, Control_c, 1, 11, 69
3, 111477, Control_c, 1, 11, 68
3, 111506, Control_c, 1, 11, 68
3, 111534, Control_c, 1, 11, 67
3, 111563, Control_c, 1, 11, 66
3, 111592, Control_c, 1, 11, 66
3, 111621, Control_c, 1, 11, 65
3, 111650, Control_c, 1, 11, 65
3, 111678, Control_c, 1, 11, 64
3, 111707, Control_c, 1, 11, 63
3, 111736, Control_c, 1, 11, 63
3, 111765, Control_c, 1, 11, 62
3, 111794, Control_c, 1, 11, 62
3, 111822, Control_c, 1, 11, 61
3, 111851, Control_c, 1, 11, 60
3, 111880, Control_c, 1, 11, 59
3, 111909, Control_c, 1, 11, 58
3, 111938, Control_c, 1, 11, 57
3, 111966, Control_c, 1, 11, 56
3, 111995, Control_c, 1, 11, 55
3, 112024, Control_c, 1, 11, 54
3, 112053, Control_c, 1, 11, 53
3, 112082, Note_on_c, 1, 80, 0
3, 112082, Control_c, 1, 11, 52
3, 112082, Note_on_c, 1, 79, 100
3, 112202, Note_on_c, 1, 79, 0
3, 112202, Note_on_c, 1, 78, 100
3, 112312, Note_on_c, 1, 78, 0
3, 112322, Note_on_c, 1, 78, 100
3, 112552, Note_on_c, 1, 78, 0
3, 112562, Note_on_c, 1, 79, 100
3, 112922, Note_on_c, 1, 79, 0
3, 112922, Note_on_c, 1, 74, 100
3, 113042, Note_on_c, 1, 74, 0
3, 113042, Note_on_c, 1, 75, 100
3, 113162, Note_on_c, 1, 75, 0
3, 113162, Note_on_c, 1, 77, 100
3, 113272, Note_on_c, 1, 77, 0
3, 113282, Note_on_c, 1, 77, 100
3, 113522, Note_on_c, 1, 77, 0
3, 113522, Note_on_c, 1, 77, 83
3, 113562, Note_on_c, 1, 77, 0
3, 113562, Note_on_c, 1, 75, 83
3, 113602, Note_on_c, 1, 75, 0
3, 113602, Note_on_c, 1, 77, 83
3, 113642, Note_on_c, 1, 77, 0
3, 113642, Note_on_c, 1, 75, 83
3, 113682, Note_on_c, 1, 75, 0
3, 113682, Note_on_c, 1, 77, 83
3, 113722, Note_on_c, 1, 77, 0
3, 113722, Note_on_c, 1, 75, 83
3, 113752, Note_on_c, 1, 75, 0
3, 113762, Note_on_c, 1, 74, 83
3, 114002, Note_on_c, 1, 74, 0
3, 114002, Note_on_c, 1, 77, 83
3, 114242, Note_on_c, 1, 77, 0
3, 114242, Control_c, 1, 11, 71
3, 114242, Note_on_c, 1, 80, 83
3, 114280, Control_c, 1, 11, 70
3, 114318, Control_c, 1, 11, 70
3, 114357, Control_c, 1, 11, 69
3, 114395, Control_c, 1, 11, 68
3, 114434, Control_c, 1, 11, 68
3, 114472, Control_c, 1, 11, 67
3, 114510, Control_c, 1, 11, 66
3, 114549, Control_c, 1, 11, 66
3, 114587, Control_c, 1, 11, 65
3, 114626, Control_c, 1, 11, 65
3, 114664, Control_c, 1, 11, 64
3, 114702, Control_c, 1, 11, 63
3, 114741, Control_c, 1, 11, 63
3, 114779, Control_c, 1, 11, 62
3, 114818, Control_c, 1, 11, 62
3, 114856, Control_c, 1, 11, 61
3, 114894, Control_c, 1, 11, 60
3, 114933, Control_c, 1, 11, 59
3, 114962, Note_on_c, 1, 80, 0
3, 114962, Note_on_c, 1, 79, 83
3, 114971, Control_c, 1, 11, 58
3, 115010, Control_c, 1, 11, 57
3, 115048, Control_c, 1, 11, 56
3, 115082, Note_on_c, 1, 79, 0
3, 115082, Note_on_c, 1, 78, 83
3, 115086, Control_c, 1, 11, 55
3, 115125, Control_c, 1, 11, 54
3, 115163, Control_c, 1, 11, 53
3, 115192, Note_on_c, 1, 78, 0
3, 115202, Control_c, 1, 11, 52
3, 115202, Note_on_c, 1, 78, 83
3, 115256, Control_c, 1, 11, 53
3, 115311, Control_c, 1, 11, 54
3, 115366, Control_c, 1, 11, 55
3, 115421, Control_c, 1, 11, 56
3, 115432, Note_on_c, 1, 78, 0
3, 115442, Note_on_c, 1, 79, 83
3, 115476, Control_c, 1, 11, 57
3, 115531, Control_c, 1, 11, 58
3, 115586, Control_c, 1, 11, 59
3, 115640, Control_c, 1, 11, 60
3, 115695, Control_c, 1, 11, 61
3, 115750, Control_c, 1, 11, 62
3, 115805, Control_c, 1, 11, 62
3, 115860, Control_c, 1, 11, 63
3, 115912, Note_on_c, 1, 79, 0
3, 115915, Control_c, 1, 11, 63
3, 115922, Note_on_c, 1, 81, 83
3, 115970, Control_c, 1, 11, 64
3, 116024, Control_c, 1, 11, 65
3, 116079, Control_c, 1, 11, 65
3, 116134, Control_c, 1, 11, 66
3, 116189, Control_c, 1, 11, 66
3, 116222, Note_on_c, 1, 81, 0
3, 116244, Control_c, 1, 11, 67
3, 116282, Note_on_c, 1, 81, 83
3, 116299, Control_c, 1, 11, 68
3, 116354, Control_c, 1, 11, 68
3, 116402, Note_on_c, 1, 81, 0
3, 116402, Note_on_c, 1, 84, 83
3, 116408, Control_c, 1, 11, 69
3, 116463, Control_c, 1, 11, 70
3, 116518, Control_c, 1, 11, 70
3, 116522, Note_on_c, 1, 84, 0
3, 116522, Note_on_c, 1, 82, 83
3, 116573, Control_c, 1, 11, 71
3, 116628, Control_c, 1, 11, 71
3, 116642, Note_on_c, 1, 82, 0
3, 116683, Control_c, 1, 11, 72
3, 116738, Control_c, 1, 11, 73
3, 116762, Note_on_c, 1, 82, 83
3, 116792, Control_c, 1, 11, 73
3, 116847, Control_c, 1, 11, 74
3, 116882, Note_on_c, 1, 82, 0
3, 116882, Note_on_c, 1, 80, 83
3, 116902, Control_c, 1, 11, 74
3, 116957, Control_c, 1, 11, 75
3, 117002, Note_on_c, 1, 80, 0
3, 117002, Note_on_c, 1, 77, 83
3, 117012, Control_c, 1, 11, 76
3, 117067, Control_c, 1, 11, 76
3, 117112, Note_on_c, 1, 77, 0
3, 117122, Control_c, 1, 1, 0
3, 117122, Control_c, 1, 11, 77
3, 117122, Note_on_c, 1, 75, 83
3, 117242, Note_on_c, 1, 75, 0
3, 124562, Control_c, 1, 11, 52
3, 124562, Note_on_c, 1, 84, 51
3, 124562, Note_on_c, 1, 80, 51
3, 124682, Note_on_c, 1, 80, 0
3, 124682, Note_on_c, 1, 84, 0
3, 124682, Note_on_c, 1, 79, 58
3, 124682, Note_on_c, 1, 82, 58
3, 124802, Note_on_c, 1, 82, 0
3, 124802, Note_on_c, 1, 79, 0
3, 124802, Note_on_c, 1, 77, 66
3, 124802, Note_on_c, 1, 80, 66
3, 124922, Note_on_c, 1, 80, 0
3, 124922, Note_on_c, 1, 77, 0
3, 124922, Note_on_c, 1, 75, 66
3, 124922, Note_on_c, 1, 79, 66
3, 125042, Note_on_c, 1, 79, 0
3, 125042, Note_on_c, 1, 75, 0
3, 125042, Note_on_c, 1, 74, 66
3, 125042, Note_on_c, 1, 77, 66
3, 125162, Note_on_c, 1, 77, 0
3, 125162, Note_on_c, 1, 74, 0
3, 125162, Note_on_c, 1, 72, 66
3, 125162, Note_on_c, 1, 75, 66
3, 125282, Note_on_c, 1, 75, 0
3, 125282, Note_on_c, 1, 72, 0
3, 136322, Control_c, 1, 11, 52
3, 136322, Note_on_c, 1, 72, 75
3, 136398, Control_c, 1, 11, 53
3, 136475, Control_c, 1, 11, 54
3, 136552, Control_c, 1, 11, 55
3, 136629, Control_c, 1, 11, 56
3, 136706, Control_c, 1, 11, 57
3, 136782, Control_c, 1, 11, 58
3, 136859, Control_c, 1, 11, 59
3, 136936, Control_c, 1, 11, 60
3, 137013, Control_c, 1, 11, 61
3, 137090, Control_c, 1, 11, 62
3, 137166, Control_c, 1, 11, 62
3, 137243, Control_c, 1, 11, 63
3, 137320, Control_c, 1, 11, 63
3, 137397, Control_c, 1, 11, 64
3, 137474, Control_c, 1, 11, 65
3, 137550, Control_c, 1, 11, 65
3, 137627, Control_c, 1, 11, 66
3, 137704, Control_c, 1, 11, 66
3, 137781, Control_c, 1, 11, 67
3, 137858, Control_c, 1, 11, 68
3, 137934, Control_c, 1, 11, 68
3, 138011, Control_c, 1, 11, 69
3, 138088, Control_c, 1, 11, 70
3, 138165, Control_c, 1, 11, 70
3, 138242, Note_on_c, 1, 72, 0
3, 138242, Control_c, 1, 11, 71
3, 138242, Note_on_c, 1, 67, 75
3, 138434, Control_c, 1, 11, 71
3, 138626, Control_c, 1, 11, 72
3, 138818, Control_c, 1, 11, 73
3, 139010, Control_c, 1, 11, 73
3, 139202, Control_c, 1, 11, 74
3, 139394, Control_c, 1, 11, 74
3, 139586, Control_c, 1, 11, 75
3, 139778, Control_c, 1, 11, 76
3, 139970, Control_c, 1, 11, 76
3, 140162, Note_on_c, 1, 67, 0
3, 140162, Control_c, 1, 11, 77
3, 140162, Note_on_c, 1, 72, 75
3, 140162, Note_on_c, 1, 76, 75
3, 142082, Note_on_c, 1, 76, 0
3, 142082, Note_on_c, 1, 72, 0
3, 142082, Control_c, 1, 11, 77
3, 142082, Note_on_c, 1, 77, 75
3, 142082, Note_on_c, 1, 74, 75
3, 142178, Control_c, 1, 11, 78
3, 142274, Control_c, 1, 11, 78
3, 142370, Control_c, 1, 11, 79
3, 142466, Control_c, 1, 11, 79
3, 142562, Control_c, 1, 11, 80
3, 142658, Control_c, 1, 11, 81
3, 142754, Control_c, 1, 11, 81
3, 142850, Control_c, 1, 11, 82
3, 142946, Control_c, 1, 11, 82
3, 143042, Control_c, 1, 11, 83
3, 143138, Control_c, 1, 11, 84
3, 143234, Control_c, 1, 11, 84
3, 143330, Control_c, 1, 11, 85
3, 143426, Control_c, 1, 11, 86
3, 143522, Control_c, 1, 11, 86
3, 143618, Control_c, 1, 11, 87
3, 143714, Control_c, 1, 11, 87
3, 143810, Control_c, 1, 11, 88
3, 143906, Control_c, 1, 11, 89
3, 144002, Note_on_c, 1, 74, 0
3, 144002, Note_on_c, 1, 77, 0
3, 144002, Control_c, 1, 11, 89
3, 144002, Note_on_c, 1, 76, 75
3, 144002, Note_on_c, 1, 72, 75
3, 144317, Note_on_c, 1, 72, 0
3, 144317, Note_on_c, 1, 76, 0
3, 144362, Note_on_c, 1, 77, 75
3, 144362, Note_on_c, 1, 72, 75
3, 144461, Note_on_c, 1, 72, 0
3, 144461, Note_on_c, 1, 77, 0
3, 144482, Note_on_c, 1, 77, 75
3, 144482, Note_on_c, 1, 72, 75
3, 144797, Note_on_c, 1, 72, 0
3, 144797, Note_on_c, 1, 77, 0
3, 144842, Note_on_c, 1, 72, 75
3, 144842, Note_on_c, 1, 76, 75
3, 144941, Note_on_c, 1, 76, 0
3, 144941, Note_on_c, 1, 72, 0
3, 144962, Note_on_c, 1, 76, 75
3, 144962, Note_on_c, 1, 72, 75
3, 145277, Note_on_c, 1, 72, 0
3, 145277, Note_on_c, 1, 76, 0
3, 145322, Note_on_c, 1, 81, 75
3, 145322, Note_on_c, 1, 72, 75
3, 145421, Note_on_c, 1, 72, 0
3, 145421, Note_on_c, 1, 81, 0
3, 145442, Note_on_c, 1, 81, 75
3, 145442, Note_on_c, 1, 72, 75
3, 145757, Note_on_c, 1, 72, 0
3, 145757, Note_on_c, 1, 81, 0
3, 145802, Note_on_c, 1, 79, 75
3, 145802, Note_on_c, 1, 72, 75
3, 145901, Note_on_c, 1, 72, 0
3, 145901, Note_on_c, 1, 79, 0
3, 145922, Note_on_c, 1, 79, 75
3, 145922, Note_on_c, 1, 72, 75
3, 145982, Note_on_c, 1, 72, 0
3, 145982, Note_on_c, 1, 79, 0
3, 146042, Note_on_c, 1, 77, 75
3, 146042, Note_on_c, 1, 72, 75
3, 146102, Note_on_c, 1, 72, 0
3, 146102, Note_on_c, 1, 77, 0
3, 146162, Note_on_c, 1, 77, 75
3, 146162, Note_on_c, 1, 72, 75
3, 146222, Note_on_c, 1, 72, 0
3, 146222, Note_on_c, 1, 77, 0
3, 146282, Note_on_c, 1, 76, 75
3, 146282, Note_on_c, 1, 72, 75
3, 146342, Note_on_c, 1, 72, 0
3, 146342, Note_on_c, 1, 76, 0
3, 146402, Note_on_c, 1, 76, 75
3, 146402, Note_on_c, 1, 72, 75
3, 146462, Note_on_c, 1, 72, 0
3, 146462, Note_on_c, 1, 76, 0
3, 146522, Note_on_c, 1, 81, 75
3, 146522, Note_on_c, 1, 72, 75
3, 146582, Note_on_c, 1, 72, 0
3, 146582, Note_on_c, 1, 81, 0
3, 146642, Note_on_c, 1, 81, 75
3, 146642, Note_on_c, 1, 72, 75
3, 146702, Note_on_c, 1, 72, 0
3, 146702, Note_on_c, 1, 81, 0
3, 146762, Note_on_c, 1, 80, 75
3, 146762, Note_on_c, 1, 72, 75
3, 146822, Note_on_c, 1, 72, 0
3, 146822, Note_on_c, 1, 80, 0
3, 146882, Note_on_c, 1, 80, 75
3, 146882, Note_on_c, 1, 72, 75
3, 146942, Note_on_c, 1, 72, 0
3, 146942, Note_on_c, 1, 80, 0
3, 147002, Note_on_c, 1, 81, 75
3, 147002, Note_on_c, 1, 72, 75
3, 147062, Note_on_c, 1, 72, 0
3, 147062, Note_on_c, 1, 81, 0
3, 147122, Note_on_c, 1, 81, 75
3, 147182, Note_on_c, 1, 81, 0
3, 147242, Note_on_c, 1, 83, 75
3, 147242, Note_on_c, 1, 81, 75
3, 147302, Note_on_c, 1, 81, 0
3, 147302, Note_on_c, 1, 83, 0
3, 147362, Note_on_c, 1, 83, 75
3, 147362, Note_on_c, 1, 81, 75
3, 147422, Note_on_c, 1, 81, 0
3, 147422, Note_on_c, 1, 83, 0
3, 147482, Note_on_c, 1, 84, 75
3, 147482, Note_on_c, 1, 81, 75
3, 147542, Note_on_c, 1, 81, 0
3, 147542, Note_on_c, 1, 84, 0
3, 147602, Note_on_c, 1, 84, 75
3, 147602, Note_on_c, 1, 81, 75
3, 147662, Note_on_c, 1, 81, 0
3, 147662, Note_on_c, 1, 84, 0
3, 147722, Note_on_c, 1, 84, 75
3, 147722, Note_on_c, 1, 81, 75
3, 147782, Note_on_c, 1, 81, 0
3, 147782, Note_on_c, 1, 84, 0
3, 147842, Control_c, 1, 11, 98
3, 147842, Note_on_c, 1, 84, 90
3, 147842, Note_on_c, 1, 81, 90
3, 147865, Control_c, 1, 11, 97
3, 147889, Control_c, 1, 11, 96
3, 147913, Control_c, 1, 11, 95
3, 147937, Control_c, 1, 11, 94
3, 147961, Control_c, 1, 11, 92
3, 147985, Control_c, 1, 11, 91
3, 148009, Control_c, 1, 11, 90
3, 148033, Control_c, 1, 11, 89
3, 148057, Control_c, 1, 11, 87
3, 148081, Control_c, 1, 11, 86
3, 148792, Note_on_c, 1, 81, 0
3, 148792, Note_on_c, 1, 84, 0
3, 148802, Control_c, 1, 11, 98
3, 148802, Note_on_c, 1, 84, 90
3, 148802, Note_on_c, 1, 79, 90
3, 148825, Control_c, 1, 11, 97
3, 148849, Control_c, 1, 11, 96
3, 148873, Control_c, 1, 11, 95
3, 148897, Control_c, 1, 11, 94
3, 148921, Control_c, 1, 11, 92
3, 148945, Control_c, 1, 11, 91
3, 148969, Control_c, 1, 11, 90
3, 148993, Control_c, 1, 11, 89
3, 149017, Control_c, 1, 11, 87
3, 149041, Control_c, 1, 11, 86
3, 149752, Note_on_c, 1, 79, 0
3, 149752, Note_on_c, 1, 84, 0
3, 149762, Control_c, 1, 11, 98
3, 149762, Note_on_c, 1, 84, 90
3, 149762, Note_on_c, 1, 77, 90
3, 149785, Control_c, 1, 11, 97
3, 149809, Control_c, 1, 11, 96
3, 149833, Control_c, 1, 11, 95
3, 149857, Control_c, 1, 11, 94
3, 149881, Control_c, 1, 11, 92
3, 149905, Control_c, 1, 11, 91
3, 149929, Control_c, 1, 11, 90
3, 149953, Control_c, 1, 11, 89
3, 149977, Control_c, 1, 11, 87
3, 150001, Control_c, 1, 11, 86
3, 150712, Note_on_c, 1, 77, 0
3, 150712, Note_on_c, 1, 84, 0
3, 150722, Note_on_c, 1, 84, 90
3, 150722, Note_on_c, 1, 77, 90
3, 151082, Note_on_c, 1, 77, 0
3, 151082, Note_on_c, 1, 84, 0
3, 151202, Note_on_c, 1, 86, 90
3, 151202, Note_on_c, 1, 77, 90
3, 151562, Note_on_c, 1, 77, 0
3, 151562, Note_on_c, 1, 86, 0
3, 151682, Note_on_c, 1, 84, 90
3, 151682, Note_on_c, 1, 76, 90
3, 152042, Note_on_c, 1, 76, 0
3, 152042, Note_on_c, 1, 84, 0
3, 152162, Note_on_c, 1, 84, 90
3, 152162, Note_on_c, 1, 77, 90
3, 152522, Note_on_c, 1, 77, 0
3, 152522, Note_on_c, 1, 84, 0
3, 152642, Note_on_c, 1, 83, 90
3, 152642, Note_on_c, 1, 74, 90
3, 153002, Note_on_c, 1, 74, 0
3, 153002, Note_on_c, 1, 83, 0
3, 153122, Note_on_c, 1, 84, 90
3, 153122, Note_on_c, 1, 76, 90
3, 153482, Note_on_c, 1, 76, 0
3, 153482, Note_on_c, 1, 84, 0
3, 153602, Note_on_c, 1, 84, 90
3, 153602, Note_on_c, 1, 77, 90
3, 153962, Note_on_c, 1, 77, 0
3, 153962, Note_on_c, 1, 84, 0
3, 154082, Note_on_c, 1, 83, 90
3, 154082, Note_on_c, 1, 74, 90
3, 154442, Note_on_c, 1, 74, 0
3, 154442, Note_on_c, 1, 83, 0
3, 154562, Note_on_c, 1, 84, 90
3, 154562, Note_on_c, 1, 76, 90
3, 154922, Note_on_c, 1, 76, 0
3, 154922, Note_on_c, 1, 84, 0
3, 155042, Note_on_c, 1, 84, 90
3, 155042, Note_on_c, 1, 77, 90
3, 155402, Note_on_c, 1, 77, 0
3, 155402, Note_on_c, 1, 84, 0
3, 155522, Note_on_c, 1, 84, 90
3, 155522, Note_on_c, 1, 74, 90
3, 156482, Note_on_c, 1, 74, 0
3, 156482, Note_on_c, 1, 84, 0
3, 156482, Note_on_c, 1, 83, 90
3, 156482, Note_on_c, 1, 74, 90
3, 157442, Note_on_c, 1, 74, 0
3, 157442, Note_on_c, 1, 83, 0
3, 157442, Note_on_c, 1, 84, 90
3, 157442, Note_on_c, 1, 76, 90
3, 157562, Note_on_c, 1, 76, 0
3, 157562, Note_on_c, 1, 84, 0
3, 157802, Control_c, 1, 11, 80
3, 157802, Note_on_c, 1, 79, 90
3, 157907, Note_on_c, 1, 79, 0
3, 157922, Control_c, 1, 11, 92
3, 157922, Note_on_c, 1, 79, 90
3, 157945, Control_c, 1, 11, 91
3, 157969, Control_c, 1, 11, 90
3, 157993, Control_c, 1, 11, 89
3, 158017, Control_c, 1, 11, 87
3, 158041, Control_c, 1, 11, 86
3, 158065, Control_c, 1, 11, 85
3, 158089, Control_c, 1, 11, 84
3, 158113, Control_c, 1, 11, 82
3, 158137, Control_c, 1, 11, 81
3, 158161, Control_c, 1, 11, 80
3, 158162, Note_on_c, 1, 79, 0
3, 158162, Note_on_c, 1, 76, 90
3, 158282, Note_on_c, 1, 76, 0
3, 158282, Note_on_c, 1, 72, 90
3, 158387, Note_on_c, 1, 72, 0
3, 158402, Note_on_c, 1, 72, 90
3, 158522, Note_on_c, 1, 72, 0
3, 158522, Note_on_c, 1, 71, 90
3, 158642, Note_on_c, 1, 71, 0
3, 159482, Note_on_c, 1, 79, 90
3, 159587, Note_on_c, 1, 79, 0
3, 159602, Note_on_c, 1, 79, 90
3, 159707, Note_on_c, 1, 79, 0
3, 159722, Note_on_c, 1, 79, 90
3, 159827, Note_on_c, 1, 79, 0
3, 159842, Note_on_c, 1, 79, 90
3, 159947, Note_on_c, 1, 79, 0
3, 159962, Note_on_c, 1, 79, 90
3, 160067, Note_on_c, 1, 79, 0
3, 160082, Note_on_c, 1, 76, 90
3, 160187, Note_on_c, 1, 76, 0
3, 160202, Note_on_c, 1, 72, 90
3, 160307, Note_on_c, 1, 72, 0
3, 160322, Note_on_c, 1, 71, 90
3, 160442, Note_on_c, 1, 71, 0
3, 161402, Note_on_c, 1, 79, 90
3, 161627, Note_on_c, 1, 79, 0
3, 161642, Note_on_c, 1, 79, 90
3, 161867, Note_on_c, 1, 79, 0
3, 161882, Note_on_c, 1, 76, 90
3, 162107, Note_on_c, 1, 76, 0
3, 162122, Note_on_c, 1, 72, 90
3, 162227, Note_on_c, 1, 72, 0
3, 162242, Note_on_c, 1, 71, 90
3, 162362, Note_on_c, 1, 71, 0
3, 163322, Note_on_c, 1, 79, 90
3, 163547, Note_on_c, 1, 79, 0
3, 163562, Note_on_c, 1, 79, 90
3, 163787, Note_on_c, 1, 79, 0
3, 163802, Note_on_c, 1, 79, 90
3, 163862, Note_on_c, 1, 79, 0
3, 163922, Note_on_c, 1, 76, 90
3, 163982, Note_on_c, 1, 76, 0
3, 164042, Note_on_c, 1, 72, 90
3, 164102, Note_on_c, 1, 72, 0
3, 164162, Control_c, 1, 11, 68
3, 164162, Note_on_c, 1, 77, 90
3, 164162, Note_on_c, 1, 74, 90
3, 164167, Control_c, 1, 11, 71
3, 164172, Control_c, 1, 11, 74
3, 164177, Control_c, 1, 11, 77
3, 164182, Control_c, 1, 11, 80
3, 164187, Control_c, 1, 11, 83
3, 164191, Control_c, 1, 11, 86
3, 164507, Control_c, 1, 11, 86
3, 164512, Control_c, 1, 11, 83
3, 164518, Control_c, 1, 11, 80
3, 164523, Control_c, 1, 11, 77
3, 164527, Control_c, 1, 11, 74
3, 164533, Control_c, 1, 11, 71
3, 164538, Control_c, 1, 11, 68
3, 164540, Note_on_c, 1, 74, 0
3, 164540, Note_on_c, 1, 77, 0
3, 164882, Control_c, 1, 11, 77
3, 164882, Note_on_c, 1, 77, 90
3, 164882, Note_on_c, 1, 74, 90
3, 165002, Note_on_c, 1, 74, 0
3, 165002, Note_on_c, 1, 77, 0
3, 165362, Note_on_c, 1, 77, 90
3, 165362, Note_on_c, 1, 74, 90
3, 165482, Note_on_c, 1, 74, 0
3, 165482, Note_on_c, 1, 77, 0
3, 165722, Note_on_c, 1, 77, 90
3, 165722, Note_on_c, 1, 74, 90
3, 165842, Note_on_c, 1, 74, 0
3, 165842, Note_on_c, 1, 77, 0
3, 165962, Note_on_c, 1, 77, 90
3, 165962, Note_on_c, 1, 74, 90
3, 166082, Note_on_c, 1, 74, 0
3, 166082, Note_on_c, 1, 77, 0
3, 166202, Note_on_c, 1, 77, 90
3, 166202, Note_on_c, 1, 74, 90
3, 166322, Note_on_c, 1, 74, 0
3, 166322, Note_on_c, 1, 77, 0
3, 166442, Note_on_c, 1, 76, 90
3, 166442, Note_on_c, 1, 72, 90
3, 166562, Note_on_c, 1, 72, 0
3, 166562, Note_on_c, 1, 76, 0
3, 166682, Note_on_c, 1, 76, 90
3, 166682, Note_on_c, 1, 72, 90
3, 166802, Note_on_c, 1, 72, 0
3, 166802, Note_on_c, 1, 76, 0
3, 166922, Note_on_c, 1, 76, 90
3, 166922, Note_on_c, 1, 84, 90
3, 167042, Note_on_c, 1, 84, 0
3, 167042, Note_on_c, 1, 76, 0
3, 167042, Note_on_c, 1, 76, 90
3, 167042, Note_on_c, 1, 84, 90
3, 167162, Note_on_c, 1, 84, 0
3, 167162, Note_on_c, 1, 76, 0
3, 170402, Control_c, 1, 11, 86
3, 170402, Note_on_c, 1, 84, 90
3, 170402, Note_on_c, 1, 76, 90
3, 170522, Note_on_c, 1, 76, 0
3, 170522, Note_on_c, 1, 84, 0
3, 171362, Note_on_c, 1, 84, 90
3, 171362, Note_on_c, 1, 76, 90
3, 171482, Note_on_c, 1, 76, 0
3, 171482, Note_on_c, 1, 84, 0
3, 171842, Note_on_c, 1, 84, 90
3, 171842, Note_on_c, 1, 76, 90
3, 171962, Note_on_c, 1, 76, 0
3, 171962, Note_on_c, 1, 84, 0
3, 172322, Control_c, 1, 11, 92
3, 172322, Note_on_c, 1, 72, 90
3, 172442, Note_on_c, 1, 72, 0
3, 172802, Control_c, 1, 121, 0
3, 172802, End_track
4, 0, Start_track
4, 0, MIDI_port, 0
4, 0, Title_t, "2 Clarinetti in B"
4, 0, Program_c, 2, 71
4, 0, Control_c, 2, 10, 65
4, 4, Control_c, 2, 121, 0
4, 9, Program_c, 2, 71
4, 14, Pitch_bend_c, 2, 8192
4, 19, Control_c, 2, 11, 76
4, 24, Control_c, 2, 7, 127
4, 29, Control_c, 2, 91, 54
4, 34, Control_c, 2, 93, 0
4, 5164, Control_c, 2, 11, 32
4, 5164, Note_on_c, 2, 67, 91
4, 5170, Control_c, 2, 11, 35
4, 5176, Control_c, 2, 11, 38
4, 5182, Control_c, 2, 11, 41
4, 5188, Control_c, 2, 11, 44
4, 5194, Control_c, 2, 11, 47
4, 5284, Note_on_c, 2, 67, 0
4, 5284, Note_on_c, 2, 69, 91
4, 5404, Note_on_c, 2, 69, 0
4, 5404, Note_on_c, 2, 70, 91
4, 5524, Note_on_c, 2, 70, 0
4, 5524, Note_on_c, 2, 69, 96
4, 5644, Note_on_c, 2, 69, 0
4, 5644, Note_on_c, 2, 67, 114
4, 5704, Note_on_c, 2, 67, 0
4, 5704, Note_on_c, 2, 69, 107
4, 5764, Note_on_c, 2, 69, 0
4, 5764, Control_c, 2, 11, 65
4, 5764, Note_on_c, 2, 70, 111
4, 5764, Note_on_c, 2, 67, 111
4, 5771, Control_c, 2, 11, 68
4, 5779, Control_c, 2, 11, 71
4, 5786, Control_c, 2, 11, 74
4, 5794, Control_c, 2, 11, 77
4, 5944, Note_on_c, 2, 67, 0
4, 5944, Note_on_c, 2, 70, 0
4, 7504, Control_c, 2, 11, 32
4, 7504, Note_on_c, 2, 73, 91
4, 7508, Control_c, 2, 11, 35
4, 7512, Control_c, 2, 11, 38
4, 7516, Control_c, 2, 11, 41
4, 7520, Control_c, 2, 11, 44
4, 7524, Control_c, 2, 11, 47
4, 7564, Note_on_c, 2, 73, 0
4, 7564, Note_on_c, 2, 74, 91
4, 7624, Note_on_c, 2, 74, 0
4, 7624, Note_on_c, 2, 76, 91
4, 7679, Note_on_c, 2, 76, 0
4, 7684, Control_c, 2, 11, 65
4, 7684, Note_on_c, 2, 69, 91
4, 7684, Note_on_c, 2, 74, 91
4, 7689, Control_c, 2, 11, 68
4, 7694, Control_c, 2, 11, 71
4, 7699, Control_c, 2, 11, 74
4, 7704, Control_c, 2, 11, 77
4, 7864, Note_on_c, 2, 74, 0
4, 7864, Note_on_c, 2, 69, 0
4, 9244, Control_c, 2, 11, 47
4, 9244, Note_on_c, 2, 72, 91
4, 9289, Note_on_c, 2, 72, 0
4, 9304, Note_on_c, 2, 70, 91
4, 9304, Note_on_c, 2, 73, 91
4, 9349, Note_on_c, 2, 73, 0
4, 9349, Note_on_c, 2, 70, 0
4, 9364, Note_on_c, 2, 74, 91
4, 9364, Note_on_c, 2, 69, 91
4, 9409, Note_on_c, 2, 69, 0
4, 9409, Note_on_c, 2, 74, 0
4, 9424, Note_on_c, 2, 75, 91
4, 9424, Note_on_c, 2, 70, 91
4, 9469, Note_on_c, 2, 70, 0
4, 9469, Note_on_c, 2, 75, 0
4, 9484, Note_on_c, 2, 69, 91
4, 9484, Note_on_c, 2, 74, 91
4, 9529, Note_on_c, 2, 74, 0
4, 9529, Note_on_c, 2, 69, 0
4, 9544, Note_on_c, 2, 69, 91
4, 9544, Note_on_c, 2, 78, 91
4, 9589, Note_on_c, 2, 78, 0
4, 9589, Note_on_c, 2, 69, 0
4, 9604, Control_c, 2, 11, 65
4, 9604, Note_on_c, 2, 77, 91
4, 9604, Note_on_c, 2, 74, 91
4, 9609, Control_c, 2, 11, 68
4, 9614, Control_c, 2, 11, 71
4, 9619, Control_c, 2, 11, 74
4, 9624, Control_c, 2, 11, 77
4, 9784, Note_on_c, 2, 74, 0
4, 9784, Note_on_c, 2, 77, 0
4, 13924, Control_c, 2, 1, 20
4, 13924, Control_c, 2, 11, 30
4, 13924, Note_on_c, 2, 75, 101
4, 13941, Control_c, 2, 11, 32
4, 13958, Control_c, 2, 11, 34
4, 13964, Note_on_c, 2, 55, 74
4, 13975, Control_c, 2, 11, 36
4, 13984, Note_on_c, 2, 55, 0
4, 14004, Note_on_c, 2, 55, 74
4, 14024, Note_on_c, 2, 55, 0
4, 14044, Note_on_c, 2, 55, 74
4, 14064, Note_on_c, 2, 55, 0
4, 14074, Note_on_c, 2, 75, 0
4, 14084, Note_on_c, 2, 74, 101
4, 14104, Note_on_c, 2, 74, 0
4, 14124, Note_on_c, 2, 72, 101
4, 14144, Note_on_c, 2, 72, 0
4, 14164, Note_on_c, 2, 71, 112
4, 14204, Note_on_c, 2, 55, 83
4, 14224, Note_on_c, 2, 55, 0
4, 14244, Note_on_c, 2, 55, 83
4, 14264, Note_on_c, 2, 55, 0
4, 14284, Note_on_c, 2, 55, 83
4, 14304, Note_on_c, 2, 55, 0
4, 14314, Note_on_c, 2, 71, 0
4, 14324, Note_on_c, 2, 72, 112
4, 14344, Note_on_c, 2, 72, 0
4, 14364, Note_on_c, 2, 74, 112
4, 14384, Note_on_c, 2, 74, 0
4, 14404, Control_c, 2, 11, 37
4, 14404, Note_on_c, 2, 72, 101
4, 14411, Control_c, 2, 11, 40
4, 14418, Control_c, 2, 11, 43
4, 14425, Control_c, 2, 11, 46
4, 14432, Control_c, 2, 11, 49
4, 14440, Control_c, 2, 11, 52
4, 14444, Note_on_c, 2, 55, 74
4, 14447, Control_c, 2, 11, 55
4, 14454, Control_c, 2, 11, 58
4, 14461, Control_c, 2, 11, 61
4, 14464, Note_on_c, 2, 55, 0
4, 14473, Control_c, 2, 11, 64
4, 14484, Note_on_c, 2, 55, 74
4, 14485, Control_c, 2, 11, 67
4, 14495, Control_c, 2, 11, 70
4, 14504, Note_on_c, 2, 55, 0
4, 14507, Control_c, 2, 11, 73
4, 14519, Control_c, 2, 11, 76
4, 14524, Note_on_c, 2, 55, 74
4, 14544, Note_on_c, 2, 55, 0
4, 14554, Note_on_c, 2, 72, 0
4, 14564, Note_on_c, 2, 74, 101
4, 14584, Note_on_c, 2, 74, 0
4, 14604, Note_on_c, 2, 75, 101
4, 14624, Note_on_c, 2, 75, 0
4, 14884, Control_c, 2, 1, 0
4, 14884, Control_c, 2, 11, 47
4, 14884, Note_on_c, 2, 80, 91
4, 14904, Note_on_c, 2, 80, 0
4, 14924, Note_on_c, 2, 79, 91
4, 14944, Note_on_c, 2, 79, 0
4, 14964, Note_on_c, 2, 77, 91
4, 14984, Note_on_c, 2, 77, 0
4, 15004, Note_on_c, 2, 75, 91
4, 15024, Note_on_c, 2, 75, 0
4, 15044, Note_on_c, 2, 74, 91
4, 15064, Note_on_c, 2, 74, 0
4, 15084, Note_on_c, 2, 72, 91
4, 15104, Note_on_c, 2, 72, 0
4, 16204, Control_c, 2, 1, 20
4, 16204, Control_c, 2, 11, 52
4, 16204, Note_on_c, 2, 71, 91
4, 16214, Control_c, 2, 11, 55
4, 16224, Control_c, 2, 11, 58
4, 16234, Control_c, 2, 11, 61
4, 16252, Control_c, 2, 11, 64
4, 16269, Control_c, 2, 11, 67
4, 16282, Control_c, 2, 11, 70
4, 16300, Control_c, 2, 11, 73
4, 16317, Control_c, 2, 11, 76
4, 16324, Note_on_c, 2, 71, 0
4, 16324, Note_on_c, 2, 72, 91
4, 16564, Control_c, 2, 11, 77
4, 16581, Control_c, 2, 11, 75
4, 16599, Control_c, 2, 11, 73
4, 16617, Control_c, 2, 11, 71
4, 16635, Control_c, 2, 11, 70
4, 16653, Control_c, 2, 11, 68
4, 16671, Control_c, 2, 11, 66
4, 16684, Note_on_c, 2, 72, 0
4, 16684, Note_on_c, 2, 72, 91
4, 16689, Control_c, 2, 11, 64
4, 16707, Control_c, 2, 11, 62
4, 16725, Control_c, 2, 11, 60
4, 16743, Control_c, 2, 11, 57
4, 16744, Note_on_c, 2, 72, 0
4, 16744, Note_on_c, 2, 72, 91
4, 16761, Control_c, 2, 11, 54
4, 16779, Control_c, 2, 11, 51
4, 16797, Control_c, 2, 11, 48
4, 16804, Note_on_c, 2, 72, 0
4, 16804, Note_on_c, 2, 71, 91
4, 16924, Note_on_c, 2, 71, 0
4, 17164, Control_c, 2, 11, 57
4, 17164, Note_on_c, 2, 71, 91
4, 17176, Control_c, 2, 11, 60
4, 17189, Note_on_c, 2, 71, 0
4, 17192, Control_c, 2, 11, 63
4, 17204, Note_on_c, 2, 71, 91
4, 17208, Control_c, 2, 11, 65
4, 17224, Control_c, 2, 11, 68
4, 17229, Note_on_c, 2, 71, 0
4, 17240, Control_c, 2, 11, 70
4, 17244, Note_on_c, 2, 71, 91
4, 17256, Control_c, 2, 11, 73
4, 17269, Note_on_c, 2, 71, 0
4, 17272, Control_c, 2, 11, 75
4, 17284, Note_on_c, 2, 72, 91
4, 17524, Control_c, 2, 11, 77
4, 17542, Control_c, 2, 11, 75
4, 17560, Control_c, 2, 11, 73
4, 17578, Control_c, 2, 11, 71
4, 17596, Control_c, 2, 11, 70
4, 17614, Control_c, 2, 11, 68
4, 17632, Control_c, 2, 11, 66
4, 17639, Note_on_c, 2, 72, 0
4, 17644, Note_on_c, 2, 72, 91
4, 17650, Control_c, 2, 11, 64
4, 17668, Control_c, 2, 11, 62
4, 17669, Note_on_c, 2, 72, 0
4, 17684, Note_on_c, 2, 72, 91
4, 17686, Control_c, 2, 11, 60
4, 17704, Control_c, 2, 11, 57
4, 17709, Note_on_c, 2, 72, 0
4, 17722, Control_c, 2, 11, 54
4, 17724, Note_on_c, 2, 72, 91
4, 17740, Control_c, 2, 11, 51
4, 17749, Note_on_c, 2, 72, 0
4, 17758, Control_c, 2, 11, 48
4, 17764, Control_c, 2, 1, 0
4, 17764, Note_on_c, 2, 71, 76
4, 17864, Control_c, 2, 11, 47
4, 17866, Control_c, 2, 11, 44
4, 17869, Control_c, 2, 11, 41
4, 17872, Control_c, 2, 11, 38
4, 17875, Control_c, 2, 11, 35
4, 17878, Control_c, 2, 11, 32
4, 17881, Control_c, 2, 11, 29
4, 17884, Note_on_c, 2, 71, 0
4, 22380, Control_c, 2, 11, 75
4, 22444, Note_on_c, 2, 67, 91
4, 22444, Note_on_c, 2, 71, 91
4, 22508, Control_c, 2, 11, 76
4, 22564, Note_on_c, 2, 71, 0
4, 22564, Note_on_c, 2, 67, 0
4, 22564, Note_on_c, 2, 72, 91
4, 22564, Note_on_c, 2, 69, 91
4, 22636, Control_c, 2, 11, 76
4, 22684, Note_on_c, 2, 69, 0
4, 22684, Note_on_c, 2, 72, 0
4, 22764, Control_c, 2, 11, 77
4, 22804, Note_on_c, 2, 74, 91
4, 22804, Note_on_c, 2, 71, 91
4, 22892, Control_c, 2, 11, 78
4, 22924, Note_on_c, 2, 71, 0
4, 22924, Note_on_c, 2, 74, 0
4, 23020, Control_c, 2, 11, 78
4, 23044, Note_on_c, 2, 72, 91
4, 23044, Note_on_c, 2, 76, 91
4, 23148, Control_c, 2, 11, 79
4, 23164, Note_on_c, 2, 76, 0
4, 23164, Note_on_c, 2, 72, 0
4, 23276, Control_c, 2, 11, 79
4, 23284, Note_on_c, 2, 77, 91
4, 23284, Note_on_c, 2, 74, 91
4, 23404, Note_on_c, 2, 74, 0
4, 23404, Note_on_c, 2, 77, 0
4, 23404, Control_c, 2, 11, 80
4, 23404, Note_on_c, 2, 67, 91
4, 23404, Note_on_c, 2, 71, 91
4, 23524, Note_on_c, 2, 71, 0
4, 23524, Note_on_c, 2, 67, 0
4, 23524, Note_on_c, 2, 72, 91
4, 23524, Note_on_c, 2, 67, 91
4, 23644, Note_on_c, 2, 67, 0
4, 23644, Note_on_c, 2, 72, 0
4, 23764, Note_on_c, 2, 74, 91
4, 23764, Note_on_c, 2, 67, 91
4, 23884, Note_on_c, 2, 67, 0
4, 23884, Note_on_c, 2, 74, 0
4, 23908, Control_c, 2, 11, 81
4, 24004, Note_on_c, 2, 76, 91
4, 24004, Note_on_c, 2, 67, 91
4, 24124, Note_on_c, 2, 67, 0
4, 24124, Note_on_c, 2, 76, 0
4, 24244, Note_on_c, 2, 74, 91
4, 24244, Note_on_c, 2, 65, 91
4, 24364, Note_on_c, 2, 65, 0
4, 24364, Note_on_c, 2, 74, 0
4, 24412, Control_c, 2, 11, 81
4, 24484, Note_on_c, 2, 65, 91
4, 24484, Note_on_c, 2, 74, 91
4, 24604, Note_on_c, 2, 74, 0
4, 24604, Note_on_c, 2, 65, 0
4, 24724, Note_on_c, 2, 65, 91
4, 24724, Note_on_c, 2, 74, 91
4, 24844, Note_on_c, 2, 74, 0
4, 24844, Note_on_c, 2, 65, 0
4, 24916, Control_c, 2, 11, 82
4, 24964, Note_on_c, 2, 74, 91
4, 24964, Note_on_c, 2, 65, 91
4, 25084, Note_on_c, 2, 65, 0
4, 25084, Note_on_c, 2, 74, 0
4, 25204, Note_on_c, 2, 65, 91
4, 25204, Note_on_c, 2, 74, 91
4, 25324, Note_on_c, 2, 74, 0
4, 25324, Note_on_c, 2, 65, 0
4, 25420, Control_c, 2, 11, 82
4, 25444, Note_on_c, 2, 65, 91
4, 25444, Note_on_c, 2, 74, 91
4, 25564, Note_on_c, 2, 74, 0
4, 25564, Note_on_c, 2, 65, 0
4, 25684, Note_on_c, 2, 65, 91
4, 25684, Note_on_c, 2, 74, 91
4, 25804, Note_on_c, 2, 74, 0
4, 25804, Note_on_c, 2, 65, 0
4, 25924, Control_c, 2, 11, 83
4, 25924, Note_on_c, 2, 74, 91
4, 25924, Note_on_c, 2, 65, 91
4, 26034, Note_on_c, 2, 65, 0
4, 26034, Note_on_c, 2, 74, 0
4, 26044, Note_on_c, 2, 74, 91
4, 26044, Note_on_c, 2, 65, 91
4, 26104, Control_c, 2, 11, 84
4, 26154, Note_on_c, 2, 65, 0
4, 26154, Note_on_c, 2, 74, 0
4, 26164, Note_on_c, 2, 74, 91
4, 26164, Note_on_c, 2, 65, 91
4, 26274, Note_on_c, 2, 65, 0
4, 26274, Note_on_c, 2, 74, 0
4, 26284, Control_c, 2, 11, 84
4, 26284, Note_on_c, 2, 74, 91
4, 26284, Note_on_c, 2, 65, 91
4, 26394, Note_on_c, 2, 65, 0
4, 26394, Note_on_c, 2, 74, 0
4, 26404, Note_on_c, 2, 74, 91
4, 26404, Note_on_c, 2, 65, 91
4, 26464, Control_c, 2, 11, 85
4, 26514, Note_on_c, 2, 65, 0
4, 26514, Note_on_c, 2, 74, 0
4, 26524, Note_on_c, 2, 74, 91
4, 26524, Note_on_c, 2, 65, 91
4, 26634, Note_on_c, 2, 65, 0
4, 26634, Note_on_c, 2, 74, 0
4, 26644, Control_c, 2, 11, 86
4, 26644, Note_on_c, 2, 74, 91
4, 26644, Note_on_c, 2, 65, 91
4, 26754, Note_on_c, 2, 65, 0
4, 26754, Note_on_c, 2, 74, 0
4, 26764, Note_on_c, 2, 74, 91
4, 26764, Note_on_c, 2, 65, 91
4, 26824, Control_c, 2, 11, 86
4, 26874, Note_on_c, 2, 65, 0
4, 26874, Note_on_c, 2, 74, 0
4, 26884, Note_on_c, 2, 65, 91
4, 26884, Note_on_c, 2, 74, 91
4, 26994, Note_on_c, 2, 74, 0
4, 26994, Note_on_c, 2, 65, 0
4, 27004, Control_c, 2, 11, 87
4, 27004, Note_on_c, 2, 65, 91
4, 27004, Note_on_c, 2, 74, 91
4, 27114, Note_on_c, 2, 74, 0
4, 27114, Note_on_c, 2, 65, 0
4, 27124, Note_on_c, 2, 74, 91
4, 27124, Note_on_c, 2, 65, 91
4, 27184, Control_c, 2, 11, 87
4, 27234, Note_on_c, 2, 65, 0
4, 27234, Note_on_c, 2, 74, 0
4, 27244, Note_on_c, 2, 74, 91
4, 27244, Note_on_c, 2, 65, 91
4, 27354, Note_on_c, 2, 65, 0
4, 27354, Note_on_c, 2, 74, 0
4, 27364, Control_c, 2, 11, 88
4, 27364, Note_on_c, 2, 74, 91
4, 27364, Note_on_c, 2, 65, 91
4, 27474, Note_on_c, 2, 65, 0
4, 27474, Note_on_c, 2, 74, 0
4, 27484, Note_on_c, 2, 65, 91
4, 27484, Note_on_c, 2, 74, 91
4, 27544, Control_c, 2, 11, 89
4, 27594, Note_on_c, 2, 74, 0
4, 27594, Note_on_c, 2, 65, 0
4, 27604, Note_on_c, 2, 64, 91
4, 27604, Note_on_c, 2, 72, 91
4, 27714, Note_on_c, 2, 72, 0
4, 27714, Note_on_c, 2, 64, 0
4, 27724, Control_c, 2, 11, 89
4, 27724, Note_on_c, 2, 72, 91
4, 27724, Note_on_c, 2, 64, 91
4, 27834, Note_on_c, 2, 64, 0
4, 27834, Note_on_c, 2, 72, 0
4, 27964, Note_on_c, 2, 72, 91
4, 27964, Note_on_c, 2, 64, 91
4, 28074, Note_on_c, 2, 64, 0
4, 28074, Note_on_c, 2, 72, 0
4, 28204, Note_on_c, 2, 72, 91
4, 28204, Note_on_c, 2, 64, 91
4, 28314, Note_on_c, 2, 64, 0
4, 28314, Note_on_c, 2, 72, 0
4, 28444, Control_c, 2, 11, 71
4, 28444, Note_on_c, 2, 64, 91
4, 28444, Note_on_c, 2, 72, 91
4, 28554, Note_on_c, 2, 72, 0
4, 28554, Note_on_c, 2, 64, 0
4, 28564, Control_c, 2, 11, 71
4, 28580, Control_c, 2, 11, 68
4, 28596, Control_c, 2, 11, 66
4, 28612, Control_c, 2, 11, 63
4, 28628, Control_c, 2, 11, 61
4, 28640, Control_c, 2, 11, 58
4, 28652, Control_c, 2, 11, 55
4, 28664, Control_c, 2, 11, 52
4, 28676, Control_c, 2, 11, 49
4, 29404, Control_c, 2, 11, 71
4, 29404, Note_on_c, 2, 64, 91
4, 29404, Note_on_c, 2, 72, 91
4, 29514, Note_on_c, 2, 72, 0
4, 29514, Note_on_c, 2, 64, 0
4, 29524, Control_c, 2, 11, 71
4, 29540, Control_c, 2, 11, 68
4, 29556, Control_c, 2, 11, 66
4, 29572, Control_c, 2, 11, 63
4, 29588, Control_c, 2, 11, 61
4, 29600, Control_c, 2, 11, 58
4, 29612, Control_c, 2, 11, 55
4, 29624, Control_c, 2, 11, 52
4, 29636, Control_c, 2, 11, 49
4, 30364, Control_c, 2, 11, 71
4, 30364, Note_on_c, 2, 60, 91
4, 30364, Note_on_c, 2, 64, 91
4, 30469, Note_on_c, 2, 64, 0
4, 30469, Note_on_c, 2, 60, 0
4, 30484, Control_c, 2, 11, 71
4, 30484, Note_on_c, 2, 64, 91
4, 30484, Note_on_c, 2, 60, 91
4, 30500, Control_c, 2, 11, 68
4, 30516, Control_c, 2, 11, 66
4, 30532, Control_c, 2, 11, 63
4, 30548, Control_c, 2, 11, 61
4, 30560, Control_c, 2, 11, 58
4, 30572, Control_c, 2, 11, 55
4, 30584, Control_c, 2, 11, 52
4, 30596, Control_c, 2, 11, 49
4, 30829, Note_on_c, 2, 60, 0
4, 30829, Note_on_c, 2, 64, 0
4, 30844, Note_on_c, 2, 64, 91
4, 30844, Note_on_c, 2, 60, 91
4, 30949, Note_on_c, 2, 60, 0
4, 30949, Note_on_c, 2, 64, 0
4, 30964, Control_c, 2, 11, 47
4, 30964, Note_on_c, 2, 64, 91
4, 30964, Note_on_c, 2, 60, 91
4, 31009, Control_c, 2, 11, 48
4, 31054, Control_c, 2, 11, 49
4, 31099, Control_c, 2, 11, 50
4, 31144, Control_c, 2, 11, 51
4, 31189, Control_c, 2, 11, 52
4, 31234, Control_c, 2, 11, 53
4, 31279, Control_c, 2, 11, 54
4, 31309, Note_on_c, 2, 60, 0
4, 31309, Note_on_c, 2, 64, 0
4, 31324, Control_c, 2, 11, 55
4, 31324, Note_on_c, 2, 62, 91
4, 31324, Note_on_c, 2, 60, 91
4, 31369, Control_c, 2, 11, 56
4, 31414, Control_c, 2, 11, 57
4, 31429, Note_on_c, 2, 60, 0
4, 31429, Note_on_c, 2, 62, 0
4, 31444, Note_on_c, 2, 62, 91
4, 31444, Note_on_c, 2, 60, 91
4, 31459, Control_c, 2, 11, 58
4, 31504, Control_c, 2, 11, 59
4, 31549, Control_c, 2, 11, 60
4, 31594, Control_c, 2, 11, 61
4, 31639, Control_c, 2, 11, 62
4, 31684, Control_c, 2, 11, 62
4, 31729, Control_c, 2, 11, 63
4, 31774, Control_c, 2, 11, 63
4, 31789, Note_on_c, 2, 60, 0
4, 31789, Note_on_c, 2, 62, 0
4, 31804, Note_on_c, 2, 65, 91
4, 31819, Control_c, 2, 11, 64
4, 31864, Control_c, 2, 11, 65
4, 31909, Note_on_c, 2, 65, 0
4, 31909, Control_c, 2, 11, 65
4, 31924, Note_on_c, 2, 62, 91
4, 31924, Note_on_c, 2, 65, 91
4, 31954, Control_c, 2, 11, 66
4, 31999, Control_c, 2, 11, 66
4, 32044, Control_c, 2, 11, 67
4, 32089, Control_c, 2, 11, 68
4, 32134, Control_c, 2, 11, 68
4, 32179, Control_c, 2, 11, 69
4, 32224, Control_c, 2, 11, 70
4, 32269, Note_on_c, 2, 65, 0
4, 32269, Note_on_c, 2, 62, 0
4, 32269, Control_c, 2, 11, 70
4, 32284, Note_on_c, 2, 60, 91
4, 32284, Note_on_c, 2, 64, 91
4, 32314, Control_c, 2, 11, 71
4, 32359, Control_c, 2, 11, 71
4, 32389, Note_on_c, 2, 64, 0
4, 32389, Note_on_c, 2, 60, 0
4, 32404, Control_c, 2, 11, 72
4, 32404, Note_on_c, 2, 64, 91
4, 32404, Note_on_c, 2, 60, 91
4, 32449, Control_c, 2, 11, 73
4, 32494, Control_c, 2, 11, 73
4, 32539, Control_c, 2, 11, 74
4, 32584, Control_c, 2, 11, 74
4, 32629, Control_c, 2, 11, 75
4, 32674, Control_c, 2, 11, 76
4, 32719, Control_c, 2, 11, 76
4, 32749, Note_on_c, 2, 60, 0
4, 32749, Note_on_c, 2, 64, 0
4, 32764, Control_c, 2, 11, 77
4, 32764, Note_on_c, 2, 60, 91
4, 32764, Note_on_c, 2, 64, 91
4, 32869, Note_on_c, 2, 64, 0
4, 32869, Note_on_c, 2, 60, 0
4, 32884, Note_on_c, 2, 60, 91
4, 32884, Note_on_c, 2, 64, 91
4, 33229, Note_on_c, 2, 64, 0
4, 33229, Note_on_c, 2, 60, 0
4, 33244, Note_on_c, 2, 62, 91
4, 33244, Note_on_c, 2, 60, 91
4, 33349, Note_on_c, 2, 60, 0
4, 33349, Note_on_c, 2, 62, 0
4, 33364, Note_on_c, 2, 62, 91
4, 33364, Note_on_c, 2, 60, 91
4, 33709, Note_on_c, 2, 60, 0
4, 33709, Note_on_c, 2, 62, 0
4, 33724, Control_c, 2, 11, 82
4, 33724, Note_on_c, 2, 62, 91
4, 33724, Note_on_c, 2, 60, 91
4, 33829, Note_on_c, 2, 60, 0
4, 33829, Note_on_c, 2, 62, 0
4, 33844, Note_on_c, 2, 62, 91
4, 33844, Note_on_c, 2, 60, 91
4, 34189, Note_on_c, 2, 60, 0
4, 34189, Note_on_c, 2, 62, 0
4, 34204, Note_on_c, 2, 62, 91
4, 34204, Note_on_c, 2, 60, 91
4, 34309, Note_on_c, 2, 60, 0
4, 34309, Note_on_c, 2, 62, 0
4, 34324, Note_on_c, 2, 62, 91
4, 34324, Note_on_c, 2, 60, 91
4, 34669, Note_on_c, 2, 60, 0
4, 34669, Note_on_c, 2, 62, 0
4, 34684, Note_on_c, 2, 62, 91
4, 34684, Note_on_c, 2, 60, 91
4, 34789, Note_on_c, 2, 60, 0
4, 34789, Note_on_c, 2, 62, 0
4, 34804, Note_on_c, 2, 62, 91
4, 34804, Note_on_c, 2, 60, 91
4, 35029, Note_on_c, 2, 60, 0
4, 35029, Note_on_c, 2, 62, 0
4, 35044, Note_on_c, 2, 59, 91
4, 35044, Note_on_c, 2, 62, 91
4, 35164, Note_on_c, 2, 62, 0
4, 35164, Note_on_c, 2, 59, 0
4, 38764, Control_c, 2, 11, 86
4, 38764, Note_on_c, 2, 72, 91
4, 38764, Note_on_c, 2, 64, 91
4, 38884, Note_on_c, 2, 64, 0
4, 38884, Note_on_c, 2, 72, 0
4, 39004, Note_on_c, 2, 72, 91
4, 39004, Note_on_c, 2, 64, 91
4, 39124, Note_on_c, 2, 64, 0
4, 39124, Note_on_c, 2, 72, 0
4, 39244, Note_on_c, 2, 72, 91
4, 39244, Note_on_c, 2, 64, 91
4, 39364, Note_on_c, 2, 64, 0
4, 39364, Note_on_c, 2, 72, 0
4, 39364, Note_on_c, 2, 76, 91
4, 39364, Note_on_c, 2, 67, 91
4, 39484, Note_on_c, 2, 67, 0
4, 39484, Note_on_c, 2, 76, 0
4, 39484, Note_on_c, 2, 76, 91
4, 39484, Note_on_c, 2, 67, 91
4, 39604, Note_on_c, 2, 67, 0
4, 39604, Note_on_c, 2, 76, 0
4, 39604, Note_on_c, 2, 76, 91
4, 39604, Note_on_c, 2, 67, 91
4, 40204, Note_on_c, 2, 67, 0
4, 40204, Note_on_c, 2, 76, 0
4, 40204, Note_on_c, 2, 77, 91
4, 40204, Note_on_c, 2, 69, 91
4, 40324, Note_on_c, 2, 69, 0
4, 40324, Note_on_c, 2, 77, 0
4, 40324, Note_on_c, 2, 67, 91
4, 40324, Note_on_c, 2, 76, 91
4, 40444, Note_on_c, 2, 76, 0
4, 40444, Note_on_c, 2, 67, 0
4, 40444, Note_on_c, 2, 76, 91
4, 40444, Note_on_c, 2, 67, 91
4, 40564, Note_on_c, 2, 67, 0
4, 40564, Note_on_c, 2, 76, 0
4, 40564, Note_on_c, 2, 76, 91
4, 40564, Note_on_c, 2, 67, 91
4, 41164, Note_on_c, 2, 67, 0
4, 41164, Note_on_c, 2, 76, 0
4, 41164, Note_on_c, 2, 77, 91
4, 41164, Note_on_c, 2, 69, 91
4, 41284, Note_on_c, 2, 69, 0
4, 41284, Note_on_c, 2, 77, 0
4, 41284, Note_on_c, 2, 67, 91
4, 41284, Note_on_c, 2, 76, 91
4, 41404, Note_on_c, 2, 76, 0
4, 41404, Note_on_c, 2, 67, 0
4, 41644, Note_on_c, 2, 76, 91
4, 41644, Note_on_c, 2, 67, 91
4, 41764, Note_on_c, 2, 67, 0
4, 41764, Note_on_c, 2, 76, 0
4, 41764, Note_on_c, 2, 67, 91
4, 41764, Note_on_c, 2, 76, 91
4, 41884, Note_on_c, 2, 76, 0
4, 41884, Note_on_c, 2, 67, 0
4, 42124, Note_on_c, 2, 72, 91
4, 42124, Note_on_c, 2, 67, 91
4, 42244, Note_on_c, 2, 67, 0
4, 42244, Note_on_c, 2, 72, 0
4, 42244, Note_on_c, 2, 69, 91
4, 42244, Note_on_c, 2, 72, 91
4, 42364, Note_on_c, 2, 72, 0
4, 42364, Note_on_c, 2, 69, 0
4, 42604, Note_on_c, 2, 69, 91
4, 42604, Note_on_c, 2, 72, 91
4, 42724, Note_on_c, 2, 72, 0
4, 42724, Note_on_c, 2, 69, 0
4, 42724, Note_on_c, 2, 65, 91
4, 42724, Note_on_c, 2, 71, 91
4, 42844, Note_on_c, 2, 71, 0
4, 42844, Note_on_c, 2, 65, 0
4, 43084, Note_on_c, 2, 74, 91
4, 43084, Note_on_c, 2, 71, 91
4, 43204, Note_on_c, 2, 71, 0
4, 43204, Note_on_c, 2, 74, 0
4, 43204, Note_on_c, 2, 72, 91
4, 43324, Note_on_c, 2, 72, 0
4, 43564, Note_on_c, 2, 76, 91
4, 43564, Note_on_c, 2, 72, 91
4, 43684, Note_on_c, 2, 72, 0
4, 43684, Note_on_c, 2, 76, 0
4, 43684, Note_on_c, 2, 72, 91
4, 43684, Note_on_c, 2, 76, 91
4, 43804, Note_on_c, 2, 76, 0
4, 43804, Note_on_c, 2, 72, 0
4, 44044, Note_on_c, 2, 67, 91
4, 44044, Note_on_c, 2, 72, 91
4, 44164, Note_on_c, 2, 72, 0
4, 44164, Note_on_c, 2, 67, 0
4, 44164, Note_on_c, 2, 72, 91
4, 44164, Note_on_c, 2, 69, 91
4, 44284, Note_on_c, 2, 69, 0
4, 44284, Note_on_c, 2, 72, 0
4, 44524, Note_on_c, 2, 69, 91
4, 44524, Note_on_c, 2, 72, 91
4, 44644, Note_on_c, 2, 72, 0
4, 44644, Note_on_c, 2, 69, 0
4, 44644, Note_on_c, 2, 69, 91
4, 44644, Note_on_c, 2, 72, 91
4, 44764, Note_on_c, 2, 72, 0
4, 44764, Note_on_c, 2, 69, 0
4, 45004, Note_on_c, 2, 69, 91
4, 45004, Note_on_c, 2, 72, 91
4, 45124, Note_on_c, 2, 72, 0
4, 45124, Note_on_c, 2, 69, 0
4, 45124, Note_on_c, 2, 69, 91
4, 45124, Note_on_c, 2, 72, 91
4, 45244, Note_on_c, 2, 72, 0
4, 45244, Note_on_c, 2, 69, 0
4, 45484, Note_on_c, 2, 69, 91
4, 45484, Note_on_c, 2, 72, 91
4, 45604, Note_on_c, 2, 72, 0
4, 45604, Note_on_c, 2, 69, 0
4, 45604, Note_on_c, 2, 69, 91
4, 45604, Note_on_c, 2, 72, 91
4, 45724, Note_on_c, 2, 72, 0
4, 45724, Note_on_c, 2, 69, 0
4, 45964, Note_on_c, 2, 72, 91
4, 45964, Note_on_c, 2, 69, 91
4, 46084, Note_on_c, 2, 69, 0
4, 46084, Note_on_c, 2, 72, 0
4, 46084, Note_on_c, 2, 72, 91
4, 46084, Note_on_c, 2, 69, 91
4, 46204, Note_on_c, 2, 69, 0
4, 46204, Note_on_c, 2, 72, 0
4, 48964, Control_c, 2, 11, 68
4, 48964, Note_on_c, 2, 72, 91
4, 48996, Control_c, 2, 11, 67
4, 49028, Control_c, 2, 11, 66
4, 49060, Control_c, 2, 11, 66
4, 49092, Control_c, 2, 11, 65
4, 49124, Control_c, 2, 11, 65
4, 49156, Control_c, 2, 11, 64
4, 49188, Control_c, 2, 11, 63
4, 49220, Control_c, 2, 11, 63
4, 49252, Control_c, 2, 11, 62
4, 49284, Control_c, 2, 11, 62
4, 49316, Control_c, 2, 11, 61
4, 49348, Control_c, 2, 11, 60
4, 49380, Control_c, 2, 11, 59
4, 49412, Control_c, 2, 11, 58
4, 49444, Control_c, 2, 11, 57
4, 49794, Note_on_c, 2, 72, 0
4, 49804, Note_on_c, 2, 71, 91
4, 49844, Note_on_c, 2, 71, 0
4, 49844, Note_on_c, 2, 69, 91
4, 49884, Note_on_c, 2, 69, 0
4, 49884, Note_on_c, 2, 67, 91
4, 49924, Note_on_c, 2, 67, 0
4, 49924, Note_on_c, 2, 66, 91
4, 50044, Note_on_c, 2, 66, 0
4, 50044, Control_c, 2, 1, 20
4, 50044, Control_c, 2, 11, 57
4, 50044, Note_on_c, 2, 69, 91
4, 50284, Note_on_c, 2, 69, 0
4, 50284, Note_on_c, 2, 70, 91
4, 50524, Note_on_c, 2, 70, 0
4, 50524, Note_on_c, 2, 72, 91
4, 50764, Note_on_c, 2, 72, 0
4, 50764, Note_on_c, 2, 74, 91
4, 50884, Note_on_c, 2, 74, 0
4, 50884, Control_c, 2, 11, 68
4, 50884, Note_on_c, 2, 75, 91
4, 50916, Control_c, 2, 11, 67
4, 50948, Control_c, 2, 11, 66
4, 50980, Control_c, 2, 11, 66
4, 51012, Control_c, 2, 11, 65
4, 51044, Control_c, 2, 11, 65
4, 51076, Control_c, 2, 11, 64
4, 51108, Control_c, 2, 11, 63
4, 51140, Control_c, 2, 11, 63
4, 51172, Control_c, 2, 11, 62
4, 51204, Control_c, 2, 11, 62
4, 51236, Control_c, 2, 11, 61
4, 51268, Control_c, 2, 11, 60
4, 51300, Control_c, 2, 11, 59
4, 51332, Control_c, 2, 11, 58
4, 51364, Control_c, 2, 11, 57
4, 51604, Note_on_c, 2, 75, 0
4, 51604, Note_on_c, 2, 74, 91
4, 51724, Note_on_c, 2, 74, 0
4, 51724, Note_on_c, 2, 73, 91
4, 51844, Note_on_c, 2, 73, 0
4, 51844, Note_on_c, 2, 73, 91
4, 52084, Note_on_c, 2, 73, 0
4, 52084, Note_on_c, 2, 74, 91
4, 52444, Note_on_c, 2, 74, 0
4, 52444, Note_on_c, 2, 69, 91
4, 52564, Note_on_c, 2, 69, 0
4, 52564, Note_on_c, 2, 70, 91
4, 52684, Note_on_c, 2, 70, 0
4, 52684, Note_on_c, 2, 72, 91
4, 52804, Note_on_c, 2, 72, 0
4, 52804, Note_on_c, 2, 72, 91
4, 53044, Note_on_c, 2, 72, 0
4, 53044, Note_on_c, 2, 72, 59
4, 53084, Note_on_c, 2, 72, 0
4, 53084, Note_on_c, 2, 70, 59
4, 53124, Note_on_c, 2, 70, 0
4, 53124, Note_on_c, 2, 72, 59
4, 53164, Note_on_c, 2, 72, 0
4, 53164, Note_on_c, 2, 70, 59
4, 53204, Note_on_c, 2, 70, 0
4, 53204, Note_on_c, 2, 72, 59
4, 53244, Note_on_c, 2, 72, 0
4, 53244, Note_on_c, 2, 70, 59
4, 53284, Note_on_c, 2, 70, 0
4, 53284, Note_on_c, 2, 69, 91
4, 53524, Note_on_c, 2, 69, 0
4, 53524, Note_on_c, 2, 72, 91
4, 53764, Note_on_c, 2, 72, 0
4, 53764, Control_c, 2, 11, 68
4, 53764, Note_on_c, 2, 75, 91
4, 53828, Control_c, 2, 11, 67
4, 53892, Control_c, 2, 11, 66
4, 53956, Control_c, 2, 11, 66
4, 54020, Control_c, 2, 11, 65
4, 54084, Control_c, 2, 11, 65
4, 54148, Control_c, 2, 11, 64
4, 54212, Control_c, 2, 11, 63
4, 54276, Control_c, 2, 11, 63
4, 54340, Control_c, 2, 11, 62
4, 54404, Control_c, 2, 11, 62
4, 54468, Control_c, 2, 11, 61
4, 54484, Note_on_c, 2, 75, 0
4, 54484, Note_on_c, 2, 74, 91
4, 54532, Control_c, 2, 11, 60
4, 54596, Control_c, 2, 11, 59
4, 54604, Note_on_c, 2, 74, 0
4, 54604, Note_on_c, 2, 73, 91
4, 54660, Control_c, 2, 11, 58
4, 54724, Note_on_c, 2, 73, 0
4, 54724, Control_c, 2, 11, 57
4, 54724, Note_on_c, 2, 73, 91
4, 54788, Control_c, 2, 11, 58
4, 54852, Control_c, 2, 11, 59
4, 54916, Control_c, 2, 11, 60
4, 54964, Note_on_c, 2, 73, 0
4, 54964, Note_on_c, 2, 74, 91
4, 54980, Control_c, 2, 11, 61
4, 55044, Control_c, 2, 11, 62
4, 55108, Control_c, 2, 11, 62
4, 55172, Control_c, 2, 11, 63
4, 55236, Control_c, 2, 11, 63
4, 55300, Control_c, 2, 11, 64
4, 55364, Control_c, 2, 11, 65
4, 55428, Control_c, 2, 11, 65
4, 55444, Note_on_c, 2, 74, 0
4, 55444, Note_on_c, 2, 76, 91
4, 55492, Control_c, 2, 11, 66
4, 55556, Control_c, 2, 11, 66
4, 55620, Control_c, 2, 11, 67
4, 55684, Control_c, 2, 11, 68
4, 55748, Control_c, 2, 11, 68
4, 55804, Note_on_c, 2, 76, 0
4, 55804, Note_on_c, 2, 76, 91
4, 55812, Control_c, 2, 11, 69
4, 55876, Control_c, 2, 11, 70
4, 55924, Note_on_c, 2, 76, 0
4, 55924, Note_on_c, 2, 79, 91
4, 55940, Control_c, 2, 11, 70
4, 56004, Control_c, 2, 11, 71
4, 56044, Note_on_c, 2, 79, 0
4, 56044, Note_on_c, 2, 77, 91
4, 56068, Control_c, 2, 11, 71
4, 56132, Control_c, 2, 11, 72
4, 56164, Note_on_c, 2, 77, 0
4, 56196, Control_c, 2, 11, 73
4, 56260, Control_c, 2, 11, 73
4, 56284, Control_c, 2, 1, 0
4, 56284, Note_on_c, 2, 77, 91
4, 56324, Control_c, 2, 11, 74
4, 56388, Control_c, 2, 11, 74
4, 56404, Note_on_c, 2, 77, 0
4, 56404, Note_on_c, 2, 75, 91
4, 56452, Control_c, 2, 11, 75
4, 56516, Control_c, 2, 11, 76
4, 56524, Note_on_c, 2, 75, 0
4, 56524, Note_on_c, 2, 72, 91
4, 56580, Control_c, 2, 11, 76
4, 56644, Note_on_c, 2, 72, 0
4, 56644, Control_c, 2, 11, 77
4, 56644, Note_on_c, 2, 70, 76
4, 56764, Note_on_c, 2, 70, 0
4, 63364, Control_c, 2, 11, 77
4, 63364, Note_on_c, 2, 72, 91
4, 63364, Note_on_c, 2, 66, 91
4, 64194, Note_on_c, 2, 66, 0
4, 64194, Note_on_c, 2, 72, 0
4, 64204, Note_on_c, 2, 66, 91
4, 64204, Note_on_c, 2, 72, 91
4, 64314, Note_on_c, 2, 72, 0
4, 64314, Note_on_c, 2, 66, 0
4, 64324, Note_on_c, 2, 67, 91
4, 64324, Note_on_c, 2, 74, 91
4, 65154, Note_on_c, 2, 74, 0
4, 65154, Note_on_c, 2, 67, 0
4, 65164, Note_on_c, 2, 74, 91
4, 65164, Note_on_c, 2, 65, 91
4, 65274, Note_on_c, 2, 65, 0
4, 65274, Note_on_c, 2, 74, 0
4, 65284, Control_c, 2, 11, 82
4, 65284, Note_on_c, 2, 76, 91
4, 65284, Note_on_c, 2, 64, 91
4, 65634, Note_on_c, 2, 64, 0
4, 65634, Note_on_c, 2, 76, 0
4, 65644, Note_on_c, 2, 67, 91
4, 65644, Note_on_c, 2, 69, 91
4, 65754, Note_on_c, 2, 69, 0
4, 65754, Note_on_c, 2, 67, 0
4, 65764, Note_on_c, 2, 67, 91
4, 65764, Note_on_c, 2, 71, 91
4, 66114, Note_on_c, 2, 71, 0
4, 66114, Note_on_c, 2, 67, 0
4, 66124, Note_on_c, 2, 71, 91
4, 66124, Note_on_c, 2, 67, 91
4, 66234, Note_on_c, 2, 67, 0
4, 66234, Note_on_c, 2, 71, 0
4, 66244, Note_on_c, 2, 67, 91
4, 66244, Note_on_c, 2, 72, 91
4, 66594, Note_on_c, 2, 72, 0
4, 66594, Note_on_c, 2, 67, 0
4, 66604, Note_on_c, 2, 67, 91
4, 66604, Note_on_c, 2, 72, 91
4, 66714, Note_on_c, 2, 72, 0
4, 66714, Note_on_c, 2, 67, 0
4, 66724, Note_on_c, 2, 67, 91
4, 66724, Note_on_c, 2, 65, 91
4, 67074, Note_on_c, 2, 65, 0
4, 67074, Note_on_c, 2, 67, 0
4, 67084, Note_on_c, 2, 67, 91
4, 67084, Note_on_c, 2, 65, 91
4, 67194, Note_on_c, 2, 65, 0
4, 67194, Note_on_c, 2, 67, 0
4, 67204, Note_on_c, 2, 64, 91
4, 67204, Note_on_c, 2, 67, 91
4, 67554, Note_on_c, 2, 67, 0
4, 67554, Note_on_c, 2, 64, 0
4, 67564, Note_on_c, 2, 67, 91
4, 67564, Note_on_c, 2, 64, 91
4, 67674, Note_on_c, 2, 64, 0
4, 67674, Note_on_c, 2, 67, 0
4, 67684, Note_on_c, 2, 60, 91
4, 67684, Note_on_c, 2, 72, 91
4, 68034, Note_on_c, 2, 72, 0
4, 68034, Note_on_c, 2, 60, 0
4, 68044, Note_on_c, 2, 60, 91
4, 68044, Note_on_c, 2, 72, 91
4, 68154, Note_on_c, 2, 72, 0
4, 68154, Note_on_c, 2, 60, 0
4, 68164, Control_c, 2, 11, 86
4, 68164, Note_on_c, 2, 71, 91
4, 68164, Note_on_c, 2, 59, 91
4, 68284, Note_on_c, 2, 59, 0
4, 68284, Note_on_c, 2, 71, 0
4, 72004, Note_on_c, 2, 72, 91
4, 72004, Note_on_c, 2, 69, 91
4, 72124, Note_on_c, 2, 69, 0
4, 72124, Note_on_c, 2, 72, 0
4, 72244, Note_on_c, 2, 72, 91
4, 72244, Note_on_c, 2, 69, 91
4, 72364, Note_on_c, 2, 69, 0
4, 72364, Note_on_c, 2, 72, 0
4, 72484, Note_on_c, 2, 72, 91
4, 72484, Note_on_c, 2, 69, 91
4, 72604, Note_on_c, 2, 69, 0
4, 72604, Note_on_c, 2, 72, 0
4, 72724, Note_on_c, 2, 72, 91
4, 72724, Note_on_c, 2, 69, 91
4, 72844, Note_on_c, 2, 69, 0
4, 72844, Note_on_c, 2, 72, 0
4, 72964, Note_on_c, 2, 72, 91
4, 72964, Note_on_c, 2, 69, 91
4, 73074, Note_on_c, 2, 69, 0
4, 73074, Note_on_c, 2, 72, 0
4, 73084, Note_on_c, 2, 72, 91
4, 73084, Note_on_c, 2, 69, 91
4, 73194, Note_on_c, 2, 69, 0
4, 73194, Note_on_c, 2, 72, 0
4, 73204, Note_on_c, 2, 72, 91
4, 73204, Note_on_c, 2, 69, 91
4, 73324, Note_on_c, 2, 69, 0
4, 73324, Note_on_c, 2, 72, 0
4, 73924, Control_c, 2, 11, 47
4, 73924, Note_on_c, 2, 71, 91
4, 74020, Note_on_c, 2, 71, 0
4, 74164, Note_on_c, 2, 69, 91
4, 74260, Note_on_c, 2, 69, 0
4, 74404, Note_on_c, 2, 69, 91
4, 74404, Note_on_c, 2, 76, 91
4, 74500, Note_on_c, 2, 76, 0
4, 74500, Note_on_c, 2, 69, 0
4, 74644, Note_on_c, 2, 72, 91
4, 74644, Note_on_c, 2, 69, 91
4, 74740, Note_on_c, 2, 69, 0
4, 74740, Note_on_c, 2, 72, 0
4, 74884, Control_c, 2, 11, 77
4, 74884, Note_on_c, 2, 72, 91
4, 74884, Note_on_c, 2, 69, 91
4, 75004, Note_on_c, 2, 69, 0
4, 75004, Note_on_c, 2, 72, 0
4, 75124, Note_on_c, 2, 69, 91
4, 75124, Note_on_c, 2, 72, 91
4, 75244, Note_on_c, 2, 72, 0
4, 75244, Note_on_c, 2, 69, 0
4, 75364, Note_on_c, 2, 72, 91
4, 75364, Note_on_c, 2, 69, 91
4, 75484, Note_on_c, 2, 69, 0
4, 75484, Note_on_c, 2, 72, 0
4, 75604, Note_on_c, 2, 72, 91
4, 75604, Note_on_c, 2, 69, 91
4, 75724, Note_on_c, 2, 69, 0
4, 75724, Note_on_c, 2, 72, 0
4, 75844, Note_on_c, 2, 69, 91
4, 75844, Note_on_c, 2, 72, 91
4, 75954, Note_on_c, 2, 72, 0
4, 75954, Note_on_c, 2, 69, 0
4, 75964, Note_on_c, 2, 72, 91
4, 75964, Note_on_c, 2, 69, 91
4, 76074, Note_on_c, 2, 69, 0
4, 76074, Note_on_c, 2, 72, 0
4, 76084, Note_on_c, 2, 69, 91
4, 76084, Note_on_c, 2, 72, 91
4, 76204, Note_on_c, 2, 72, 0
4, 76204, Note_on_c, 2, 69, 0
4, 76924, Note_on_c, 2, 67, 91
4, 76924, Note_on_c, 2, 69, 91
4, 76984, Note_on_c, 2, 69, 0
4, 76984, Note_on_c, 2, 67, 0
4, 77044, Note_on_c, 2, 67, 91
4, 77044, Note_on_c, 2, 69, 91
4, 77104, Note_on_c, 2, 69, 0
4, 77104, Note_on_c, 2, 67, 0
4, 77884, Note_on_c, 2, 71, 91
4, 77884, Note_on_c, 2, 67, 91
4, 77944, Note_on_c, 2, 67, 0
4, 77944, Note_on_c, 2, 71, 0
4, 78004, Note_on_c, 2, 71, 91
4, 78004, Note_on_c, 2, 67, 91
4, 78064, Note_on_c, 2, 67, 0
4, 78064, Note_on_c, 2, 71, 0
4, 79564, Control_c, 2, 11, 77
4, 79564, Note_on_c, 2, 70, 91
4, 79624, Note_on_c, 2, 70, 0
4, 79684, Note_on_c, 2, 71, 91
4, 79744, Note_on_c, 2, 71, 0
4, 79804, Note_on_c, 2, 70, 91
4, 79864, Note_on_c, 2, 70, 0
4, 79924, Note_on_c, 2, 71, 91
4, 79984, Note_on_c, 2, 71, 0
4, 80044, Note_on_c, 2, 72, 91
4, 80104, Note_on_c, 2, 72, 0
4, 80164, Note_on_c, 2, 73, 91
4, 80224, Note_on_c, 2, 73, 0
4, 80284, Note_on_c, 2, 74, 91
4, 80344, Note_on_c, 2, 74, 0
4, 80404, Note_on_c, 2, 75, 91
4, 80464, Note_on_c, 2, 75, 0
4, 80524, Note_on_c, 2, 76, 91
4, 80584, Note_on_c, 2, 76, 0
4, 80644, Note_on_c, 2, 77, 91
4, 80704, Note_on_c, 2, 77, 0
4, 80764, Note_on_c, 2, 78, 91
4, 80824, Note_on_c, 2, 78, 0
4, 80884, Note_on_c, 2, 79, 91
4, 80944, Note_on_c, 2, 79, 0
4, 81004, Note_on_c, 2, 73, 91
4, 81064, Note_on_c, 2, 73, 0
4, 81124, Note_on_c, 2, 74, 91
4, 81184, Note_on_c, 2, 74, 0
4, 81244, Note_on_c, 2, 73, 91
4, 81304, Note_on_c, 2, 73, 0
4, 81364, Note_on_c, 2, 74, 91
4, 81424, Note_on_c, 2, 74, 0
4, 81484, Note_on_c, 2, 74, 91
4, 81484, Note_on_c, 2, 62, 91
4, 81544, Note_on_c, 2, 62, 0
4, 81544, Note_on_c, 2, 74, 0
4, 81604, Note_on_c, 2, 67, 91
4, 81724, Note_on_c, 2, 67, 0
4, 81844, Control_c, 2, 11, 54
4, 81844, Note_on_c, 2, 62, 91
4, 81844, Note_on_c, 2, 59, 91
4, 82324, Note_on_c, 2, 59, 0
4, 82324, Note_on_c, 2, 62, 0
4, 82324, Note_on_c, 2, 59, 91
4, 82324, Note_on_c, 2, 62, 91
4, 82804, Note_on_c, 2, 62, 0
4, 82804, Note_on_c, 2, 59, 0
4, 82804, Note_on_c, 2, 59, 91
4, 82804, Note_on_c, 2, 62, 91
4, 83284, Note_on_c, 2, 62, 0
4, 83284, Note_on_c, 2, 59, 0
4, 83284, Note_on_c, 2, 62, 91
4, 83284, Note_on_c, 2, 59, 91
4, 83404, Control_c, 2, 11, 54
4, 83496, Control_c, 2, 11, 53
4, 83589, Control_c, 2, 11, 52
4, 83682, Control_c, 2, 11, 51
4, 83764, Note_on_c, 2, 59, 0
4, 83764, Note_on_c, 2, 62, 0
4, 83764, Note_on_c, 2, 62, 91
4, 83764, Note_on_c, 2, 59, 91
4, 83774, Control_c, 2, 11, 50
4, 83867, Control_c, 2, 11, 49
4, 83960, Control_c, 2, 11, 48
4, 84053, Control_c, 2, 11, 47
4, 84145, Control_c, 2, 11, 46
4, 84238, Control_c, 2, 11, 45
4, 84244, Note_on_c, 2, 59, 0
4, 84244, Note_on_c, 2, 62, 0
4, 84244, Note_on_c, 2, 59, 91
4, 84244, Note_on_c, 2, 62, 91
4, 84331, Control_c, 2, 11, 44
4, 84424, Control_c, 2, 11, 43
4, 84516, Control_c, 2, 11, 42
4, 84609, Control_c, 2, 11, 41
4, 84702, Control_c, 2, 11, 40
4, 84724, Note_on_c, 2, 62, 0
4, 84724, Note_on_c, 2, 59, 0
4, 84724, Note_on_c, 2, 62, 91
4, 84724, Note_on_c, 2, 59, 91
4, 84794, Control_c, 2, 11, 39
4, 84887, Control_c, 2, 11, 38
4, 84980, Control_c, 2, 11, 37
4, 85073, Control_c, 2, 11, 36
4, 85165, Control_c, 2, 11, 35
4, 85204, Note_on_c, 2, 59, 0
4, 85204, Note_on_c, 2, 62, 0
4, 85204, Note_on_c, 2, 62, 91
4, 85204, Note_on_c, 2, 59, 91
4, 85258, Control_c, 2, 11, 34
4, 85351, Control_c, 2, 11, 33
4, 85444, Control_c, 2, 11, 32
4, 85844, Control_c, 2, 11, 32
4, 85857, Control_c, 2, 11, 29
4, 85871, Control_c, 2, 11, 26
4, 85884, Control_c, 2, 11, 23
4, 85889, Note_on_c, 2, 59, 0
4, 85889, Note_on_c, 2, 62, 0
4, 87004, Control_c, 2, 11, 32
4, 87004, Note_on_c, 2, 70, 91
4, 87008, Control_c, 2, 11, 35
4, 87013, Control_c, 2, 11, 38
4, 87017, Control_c, 2, 11, 41
4, 87022, Control_c, 2, 11, 44
4, 87026, Control_c, 2, 11, 47
4, 87031, Control_c, 2, 11, 50
4, 87124, Note_on_c, 2, 70, 0
4, 87124, Note_on_c, 2, 68, 91
4, 87244, Note_on_c, 2, 68, 0
4, 87244, Note_on_c, 2, 67, 91
4, 87419, Note_on_c, 2, 67, 0
4, 87424, Note_on_c, 2, 67, 91
4, 87484, Note_on_c, 2, 67, 0
4, 87484, Note_on_c, 2, 72, 91
4, 87574, Note_on_c, 2, 72, 0
4, 87574, Note_on_c, 2, 70, 91
4, 87599, Note_on_c, 2, 70, 0
4, 87604, Control_c, 2, 11, 52
4, 87604, Note_on_c, 2, 60, 91
4, 87604, Note_on_c, 2, 69, 91
4, 87624, Control_c, 2, 11, 55
4, 87645, Control_c, 2, 11, 58
4, 87665, Control_c, 2, 11, 61
4, 87686, Control_c, 2, 11, 63
4, 87706, Control_c, 2, 11, 65
4, 87727, Control_c, 2, 11, 66
4, 87748, Control_c, 2, 11, 68
4, 87768, Control_c, 2, 11, 70
4, 87789, Control_c, 2, 11, 72
4, 87809, Control_c, 2, 11, 74
4, 87830, Control_c, 2, 11, 76
4, 87839, Note_on_c, 2, 69, 0
4, 87839, Note_on_c, 2, 60, 0
4, 87844, Control_c, 2, 11, 85
4, 87844, Note_on_c, 2, 68, 91
4, 87844, Note_on_c, 2, 59, 91
4, 87853, Control_c, 2, 11, 82
4, 87864, Control_c, 2, 11, 79
4, 87879, Control_c, 2, 11, 76
4, 87897, Control_c, 2, 11, 74
4, 87915, Control_c, 2, 11, 73
4, 87933, Control_c, 2, 11, 71
4, 87951, Control_c, 2, 11, 69
4, 87964, Note_on_c, 2, 68, 0
4, 87964, Note_on_c, 2, 71, 76
4, 87979, Control_c, 2, 11, 67
4, 87994, Control_c, 2, 11, 66
4, 88009, Control_c, 2, 11, 66
4, 88024, Control_c, 2, 11, 65
4, 88039, Control_c, 2, 11, 65
4, 88054, Control_c, 2, 11, 64
4, 88069, Control_c, 2, 11, 63
4, 88084, Note_on_c, 2, 71, 0
4, 88084, Note_on_c, 2, 59, 0
4, 88084, Control_c, 2, 11, 63
4, 88084, Note_on_c, 2, 58, 91
4, 88084, Note_on_c, 2, 70, 76
4, 88099, Control_c, 2, 11, 62
4, 88114, Control_c, 2, 11, 62
4, 88129, Control_c, 2, 11, 61
4, 88144, Control_c, 2, 11, 60
4, 88159, Control_c, 2, 11, 59
4, 88174, Control_c, 2, 11, 58
4, 88189, Control_c, 2, 11, 57
4, 88204, Control_c, 2, 11, 56
4, 88219, Control_c, 2, 11, 55
4, 88234, Control_c, 2, 11, 54
4, 88249, Control_c, 2, 11, 53
4, 88259, Note_on_c, 2, 70, 0
4, 88259, Note_on_c, 2, 58, 0
4, 88264, Control_c, 2, 11, 52
4, 88264, Note_on_c, 2, 68, 91
4, 88264, Note_on_c, 2, 70, 91
4, 88319, Note_on_c, 2, 70, 0
4, 88319, Note_on_c, 2, 68, 0
4, 88324, Note_on_c, 2, 70, 91
4, 88324, Note_on_c, 2, 67, 91
4, 88354, Note_on_c, 2, 67, 0
4, 88354, Note_on_c, 2, 63, 91
4, 88384, Note_on_c, 2, 63, 0
4, 88384, Note_on_c, 2, 70, 0
4, 88384, Note_on_c, 2, 72, 91
4, 88384, Note_on_c, 2, 60, 91
4, 88414, Note_on_c, 2, 60, 0
4, 88414, Note_on_c, 2, 72, 0
4, 88414, Note_on_c, 2, 68, 91
4, 88414, Note_on_c, 2, 56, 91
4, 88439, Note_on_c, 2, 56, 0
4, 88439, Note_on_c, 2, 68, 0
4, 88444, Note_on_c, 2, 67, 91
4, 88444, Note_on_c, 2, 55, 81
4, 88474, Note_on_c, 2, 55, 0
4, 88474, Note_on_c, 2, 58, 81
4, 88504, Note_on_c, 2, 58, 0
4, 88504, Note_on_c, 2, 55, 81
4, 88534, Note_on_c, 2, 55, 0
4, 88534, Note_on_c, 2, 58, 81
4, 88559, Note_on_c, 2, 58, 0
4, 88559, Note_on_c, 2, 67, 0
4, 88564, Note_on_c, 2, 65, 91
4, 88564, Note_on_c, 2, 56, 81
4, 88594, Note_on_c, 2, 56, 0
4, 88594, Note_on_c, 2, 58, 81
4, 88624, Note_on_c, 2, 58, 0
4, 88624, Note_on_c, 2, 65, 0
4, 88624, Note_on_c, 2, 68, 91
4, 88624, Note_on_c, 2, 56, 81
4, 88654, Note_on_c, 2, 56, 0
4, 88654, Note_on_c, 2, 58, 81
4, 88679, Note_on_c, 2, 58, 0
4, 88679, Note_on_c, 2, 68, 0
4, 88684, Note_on_c, 2, 67, 91
4, 88684, Note_on_c, 2, 55, 91
4, 88739, Note_on_c, 2, 55, 0
4, 88739, Note_on_c, 2, 67, 0
4, 88744, Control_c, 2, 11, 52
4, 88744, Note_on_c, 2, 75, 91
4, 88744, Note_on_c, 2, 72, 91
4, 88768, Control_c, 2, 11, 54
4, 88789, Note_on_c, 2, 72, 0
4, 88789, Note_on_c, 2, 75, 0
4, 88792, Control_c, 2, 11, 56
4, 88804, Note_on_c, 2, 70, 91
4, 88804, Note_on_c, 2, 74, 91
4, 88816, Control_c, 2, 11, 58
4, 88840, Control_c, 2, 11, 60
4, 88849, Note_on_c, 2, 74, 0
4, 88849, Note_on_c, 2, 70, 0
4, 88864, Control_c, 2, 11, 62
4, 88864, Note_on_c, 2, 68, 91
4, 88864, Note_on_c, 2, 72, 91
4, 88888, Control_c, 2, 11, 63
4, 88909, Note_on_c, 2, 72, 0
4, 88909, Note_on_c, 2, 68, 0
4, 88912, Control_c, 2, 11, 64
4, 88924, Note_on_c, 2, 67, 91
4, 88924, Note_on_c, 2, 70, 91
4, 88936, Control_c, 2, 11, 65
4, 88960, Control_c, 2, 11, 66
4, 88984, Note_on_c, 2, 70, 0
4, 88984, Note_on_c, 2, 67, 0
4, 88984, Control_c, 2, 11, 52
4, 88984, Note_on_c, 2, 65, 91
4, 88984, Note_on_c, 2, 68, 91
4, 89039, Note_on_c, 2, 68, 0
4, 89039, Note_on_c, 2, 65, 0
4, 89044, Note_on_c, 2, 67, 66
4, 89044, Note_on_c, 2, 63, 66
4, 89084, Control_c, 2, 11, 52
4, 89086, Control_c, 2, 11, 49
4, 89089, Control_c, 2, 11, 46
4, 89092, Control_c, 2, 11, 43
4, 89095, Control_c, 2, 11, 40
4, 89098, Control_c, 2, 11, 37
4, 89101, Control_c, 2, 11, 34
4, 89104, Note_on_c, 2, 63, 0
4, 89104, Note_on_c, 2, 67, 0
4, 89164, Control_c, 2, 1, 18
4, 89164, Control_c, 2, 11, 32
4, 89164, Note_on_c, 2, 67, 91
4, 89173, Control_c, 2, 11, 35
4, 89182, Control_c, 2, 11, 38
4, 89196, Control_c, 2, 11, 41
4, 89212, Control_c, 2, 11, 43
4, 89228, Control_c, 2, 11, 45
4, 89244, Control_c, 2, 11, 47
4, 89260, Control_c, 2, 11, 49
4, 89276, Control_c, 2, 11, 51
4, 89284, Note_on_c, 2, 67, 0
4, 89284, Note_on_c, 2, 65, 91
4, 89404, Note_on_c, 2, 65, 0
4, 89404, Control_c, 2, 11, 65
4, 89404, Note_on_c, 2, 63, 91
4, 89428, Control_c, 2, 11, 63
4, 89452, Control_c, 2, 11, 62
4, 89476, Control_c, 2, 11, 61
4, 89500, Control_c, 2, 11, 59
4, 89524, Control_c, 2, 11, 57
4, 89548, Control_c, 2, 11, 55
4, 89572, Control_c, 2, 11, 53
4, 89584, Note_on_c, 2, 63, 0
4, 89584, Note_on_c, 2, 63, 91
4, 89644, Note_on_c, 2, 63, 0
4, 89644, Note_on_c, 2, 70, 91
4, 89664, Note_on_c, 2, 70, 0
4, 89664, Note_on_c, 2, 68, 91
4, 89734, Note_on_c, 2, 68, 0
4, 89734, Note_on_c, 2, 67, 91
4, 89764, Note_on_c, 2, 67, 0
4, 89764, Note_on_c, 2, 67, 91
4, 89824, Note_on_c, 2, 67, 0
4, 89824, Control_c, 2, 11, 65
4, 89824, Note_on_c, 2, 66, 91
4, 89833, Control_c, 2, 11, 68
4, 89845, Control_c, 2, 11, 71
4, 89860, Control_c, 2, 11, 70
4, 89878, Control_c, 2, 11, 68
4, 89893, Control_c, 2, 11, 67
4, 89912, Control_c, 2, 11, 66
4, 89932, Control_c, 2, 11, 65
4, 89951, Control_c, 2, 11, 63
4, 89970, Control_c, 2, 11, 62
4, 89989, Control_c, 2, 11, 61
4, 90004, Note_on_c, 2, 66, 0
4, 90004, Note_on_c, 2, 65, 91
4, 90008, Control_c, 2, 11, 59
4, 90028, Control_c, 2, 11, 57
4, 90047, Control_c, 2, 11, 55
4, 90066, Control_c, 2, 11, 53
4, 90085, Control_c, 2, 11, 51
4, 90104, Control_c, 2, 11, 49
4, 90124, Note_on_c, 2, 65, 0
4, 90124, Control_c, 2, 11, 47
4, 90124, Note_on_c, 2, 67, 91
4, 90184, Note_on_c, 2, 67, 0
4, 90184, Note_on_c, 2, 68, 91
4, 90214, Note_on_c, 2, 68, 0
4, 90214, Note_on_c, 2, 65, 91
4, 90244, Note_on_c, 2, 65, 0
4, 90244, Note_on_c, 2, 63, 91
4, 90394, Note_on_c, 2, 63, 0
4, 90394, Note_on_c, 2, 62, 91
4, 90424, Note_on_c, 2, 62, 0
4, 90424, Note_on_c, 2, 63, 91
4, 90454, Note_on_c, 2, 63, 0
4, 90454, Note_on_c, 2, 65, 91
4, 90484, Note_on_c, 2, 65, 0
4, 90484, Control_c, 2, 1, 0
4, 90484, Note_on_c, 2, 63, 86
4, 90494, Note_on_c, 2, 63, 0
4, 90499, Note_on_c, 2, 67, 92
4, 90499, Note_on_c, 2, 63, 92
4, 90509, Note_on_c, 2, 63, 0
4, 90509, Note_on_c, 2, 67, 0
4, 90514, Note_on_c, 2, 63, 99
4, 90514, Note_on_c, 2, 67, 99
4, 90524, Note_on_c, 2, 67, 0
4, 90524, Note_on_c, 2, 63, 0
4, 90529, Note_on_c, 2, 63, 106
4, 90529, Note_on_c, 2, 67, 106
4, 90539, Note_on_c, 2, 67, 0
4, 90539, Note_on_c, 2, 63, 0
4, 90544, Note_on_c, 2, 67, 113
4, 90544, Note_on_c, 2, 63, 113
4, 90569, Note_on_c, 2, 63, 0
4, 90569, Note_on_c, 2, 67, 0
4, 90574, Note_on_c, 2, 67, 86
4, 90574, Note_on_c, 2, 63, 86
4, 90599, Note_on_c, 2, 63, 0
4, 90599, Note_on_c, 2, 67, 0
4, 90619, Note_on_c, 2, 63, 86
4, 90619, Note_on_c, 2, 67, 86
4, 90629, Note_on_c, 2, 67, 0
4, 90629, Note_on_c, 2, 63, 0
4, 90634, Note_on_c, 2, 67, 95
4, 90634, Note_on_c, 2, 63, 95
4, 90644, Note_on_c, 2, 63, 0
4, 90644, Note_on_c, 2, 67, 0
4, 90649, Note_on_c, 2, 67, 104
4, 90649, Note_on_c, 2, 63, 104
4, 90659, Note_on_c, 2, 63, 0
4, 90659, Note_on_c, 2, 67, 0
4, 90664, Note_on_c, 2, 63, 113
4, 90664, Note_on_c, 2, 67, 113
4, 90689, Note_on_c, 2, 67, 0
4, 90689, Note_on_c, 2, 63, 0
4, 90694, Note_on_c, 2, 67, 86
4, 90694, Note_on_c, 2, 63, 86
4, 90719, Note_on_c, 2, 63, 0
4, 90719, Note_on_c, 2, 67, 0
4, 90739, Note_on_c, 2, 63, 86
4, 90739, Note_on_c, 2, 67, 86
4, 90749, Note_on_c, 2, 67, 0
4, 90749, Note_on_c, 2, 63, 0
4, 90754, Note_on_c, 2, 63, 95
4, 90754, Note_on_c, 2, 67, 95
4, 90764, Note_on_c, 2, 67, 0
4, 90764, Note_on_c, 2, 63, 0
4, 90769, Note_on_c, 2, 63, 104
4, 90769, Note_on_c, 2, 67, 104
4, 90779, Note_on_c, 2, 67, 0
4, 90779, Note_on_c, 2, 63, 0
4, 90784, Note_on_c, 2, 63, 113
4, 90784, Note_on_c, 2, 67, 113
4, 90809, Note_on_c, 2, 67, 0
4, 90809, Note_on_c, 2, 63, 0
4, 90814, Note_on_c, 2, 67, 86
4, 90814, Note_on_c, 2, 63, 86
4, 90839, Note_on_c, 2, 63, 0
4, 90839, Note_on_c, 2, 67, 0
4, 90874, Control_c, 2, 11, 52
4, 90874, Note_on_c, 2, 72, 91
4, 90874, Note_on_c, 2, 70, 91
4, 90898, Control_c, 2, 11, 54
4, 90904, Note_on_c, 2, 70, 0
4, 90904, Note_on_c, 2, 72, 0
4, 90922, Control_c, 2, 11, 56
4, 90934, Note_on_c, 2, 72, 91
4, 90934, Note_on_c, 2, 70, 91
4, 90946, Control_c, 2, 11, 58
4, 90964, Note_on_c, 2, 70, 0
4, 90964, Note_on_c, 2, 72, 0
4, 90970, Control_c, 2, 11, 60
4, 90994, Control_c, 2, 11, 62
4, 90994, Note_on_c, 2, 72, 91
4, 90994, Note_on_c, 2, 70, 91
4, 91018, Control_c, 2, 11, 63
4, 91024, Note_on_c, 2, 70, 0
4, 91024, Note_on_c, 2, 72, 0
4, 91042, Control_c, 2, 11, 64
4, 91054, Note_on_c, 2, 72, 91
4, 91054, Note_on_c, 2, 70, 91
4, 91066, Control_c, 2, 11, 65
4, 91084, Note_on_c, 2, 70, 0
4, 91084, Note_on_c, 2, 72, 0
4, 91090, Control_c, 2, 11, 66
4, 91114, Control_c, 2, 11, 68
4, 91114, Note_on_c, 2, 72, 91
4, 91114, Note_on_c, 2, 70, 91
4, 91138, Control_c, 2, 11, 69
4, 91144, Note_on_c, 2, 70, 0
4, 91144, Note_on_c, 2, 72, 0
4, 91162, Control_c, 2, 11, 70
4, 91174, Note_on_c, 2, 72, 91
4, 91174, Note_on_c, 2, 70, 91
4, 91199, Note_on_c, 2, 70, 0
4, 91199, Note_on_c, 2, 72, 0
4, 91204, Control_c, 2, 11, 37
4, 91204, Note_on_c, 2, 72, 91
4, 91204, Note_on_c, 2, 69, 91
4, 91207, Control_c, 2, 11, 40
4, 91210, Control_c, 2, 11, 43
4, 91213, Control_c, 2, 11, 46
4, 91216, Control_c, 2, 11, 49
4, 91219, Control_c, 2, 11, 52
4, 91264, Note_on_c, 2, 69, 0
4, 91264, Note_on_c, 2, 72, 0
4, 91324, Note_on_c, 2, 69, 91
4, 91444, Note_on_c, 2, 69, 0
4, 91444, Note_on_c, 2, 67, 91
4, 91564, Note_on_c, 2, 67, 0
4, 91564, Note_on_c, 2, 65, 86
4, 91574, Note_on_c, 2, 65, 0
4, 91579, Note_on_c, 2, 72, 92
4, 91579, Note_on_c, 2, 69, 92
4, 91589, Note_on_c, 2, 69, 0
4, 91589, Note_on_c, 2, 72, 0
4, 91594, Note_on_c, 2, 72, 99
4, 91594, Note_on_c, 2, 69, 99
4, 91604, Note_on_c, 2, 69, 0
4, 91604, Note_on_c, 2, 72, 0
4, 91609, Note_on_c, 2, 72, 106
4, 91609, Note_on_c, 2, 69, 106
4, 91619, Note_on_c, 2, 69, 0
4, 91619, Note_on_c, 2, 72, 0
4, 91624, Note_on_c, 2, 69, 113
4, 91624, Note_on_c, 2, 72, 113
4, 91649, Note_on_c, 2, 72, 0
4, 91649, Note_on_c, 2, 69, 0
4, 91654, Note_on_c, 2, 69, 86
4, 91654, Note_on_c, 2, 72, 86
4, 91679, Note_on_c, 2, 72, 0
4, 91679, Note_on_c, 2, 69, 0
4, 91699, Note_on_c, 2, 69, 86
4, 91699, Note_on_c, 2, 72, 86
4, 91709, Note_on_c, 2, 72, 0
4, 91709, Note_on_c, 2, 69, 0
4, 91714, Note_on_c, 2, 69, 95
4, 91714, Note_on_c, 2, 72, 95
4, 91724, Note_on_c, 2, 72, 0
4, 91724, Note_on_c, 2, 69, 0
4, 91729, Note_on_c, 2, 69, 104
4, 91729, Note_on_c, 2, 72, 104
4, 91739, Note_on_c, 2, 72, 0
4, 91739, Note_on_c, 2, 69, 0
4, 91744, Note_on_c, 2, 69, 113
4, 91744, Note_on_c, 2, 72, 113
4, 91769, Note_on_c, 2, 72, 0
4, 91769, Note_on_c, 2, 69, 0
4, 91774, Note_on_c, 2, 69, 86
4, 91774, Note_on_c, 2, 72, 86
4, 91799, Note_on_c, 2, 72, 0
4, 91799, Note_on_c, 2, 69, 0
4, 91819, Note_on_c, 2, 69, 86
4, 91819, Note_on_c, 2, 72, 86
4, 91829, Note_on_c, 2, 72, 0
4, 91829, Note_on_c, 2, 69, 0
4, 91834, Note_on_c, 2, 69, 95
4, 91834, Note_on_c, 2, 72, 95
4, 91844, Note_on_c, 2, 72, 0
4, 91844, Note_on_c, 2, 69, 0
4, 91849, Note_on_c, 2, 69, 104
4, 91849, Note_on_c, 2, 72, 104
4, 91859, Note_on_c, 2, 72, 0
4, 91859, Note_on_c, 2, 69, 0
4, 91864, Note_on_c, 2, 69, 113
4, 91864, Note_on_c, 2, 72, 113
4, 91889, Note_on_c, 2, 72, 0
4, 91889, Note_on_c, 2, 69, 0
4, 91894, Note_on_c, 2, 69, 86
4, 91894, Note_on_c, 2, 72, 86
4, 91919, Note_on_c, 2, 72, 0
4, 91919, Note_on_c, 2, 69, 0
4, 91954, Control_c, 2, 11, 47
4, 91954, Note_on_c, 2, 74, 91
4, 91954, Note_on_c, 2, 72, 91
4, 91978, Control_c, 2, 11, 49
4, 91984, Note_on_c, 2, 72, 0
4, 91984, Note_on_c, 2, 74, 0
4, 92002, Control_c, 2, 11, 51
4, 92014, Note_on_c, 2, 72, 91
4, 92014, Note_on_c, 2, 74, 91
4, 92026, Control_c, 2, 11, 53
4, 92044, Note_on_c, 2, 74, 0
4, 92044, Note_on_c, 2, 72, 0
4, 92050, Control_c, 2, 11, 55
4, 92074, Control_c, 2, 11, 57
4, 92074, Note_on_c, 2, 74, 91
4, 92074, Note_on_c, 2, 72, 91
4, 92098, Control_c, 2, 11, 59
4, 92104, Note_on_c, 2, 72, 0
4, 92104, Note_on_c, 2, 74, 0
4, 92122, Control_c, 2, 11, 61
4, 92134, Note_on_c, 2, 74, 91
4, 92134, Note_on_c, 2, 72, 91
4, 92146, Control_c, 2, 11, 62
4, 92164, Note_on_c, 2, 72, 0
4, 92164, Note_on_c, 2, 74, 0
4, 92170, Control_c, 2, 11, 63
4, 92194, Control_c, 2, 11, 65
4, 92194, Note_on_c, 2, 74, 91
4, 92194, Note_on_c, 2, 72, 91
4, 92218, Control_c, 2, 11, 66
4, 92224, Note_on_c, 2, 72, 0
4, 92224, Note_on_c, 2, 74, 0
4, 92242, Control_c, 2, 11, 67
4, 92254, Note_on_c, 2, 74, 91
4, 92254, Note_on_c, 2, 72, 91
4, 92279, Note_on_c, 2, 72, 0
4, 92279, Note_on_c, 2, 74, 0
4, 92404, Control_c, 2, 1, 18
4, 92404, Control_c, 2, 11, 42
4, 92404, Note_on_c, 2, 71, 91
4, 92404, Note_on_c, 2, 62, 91
4, 92413, Control_c, 2, 11, 45
4, 92422, Control_c, 2, 11, 48
4, 92431, Control_c, 2, 11, 51
4, 92524, Note_on_c, 2, 62, 0
4, 92524, Note_on_c, 2, 71, 0
4, 92524, Note_on_c, 2, 60, 91
4, 92524, Note_on_c, 2, 69, 91
4, 92644, Note_on_c, 2, 69, 0
4, 92644, Note_on_c, 2, 60, 0
4, 92644, Control_c, 2, 11, 42
4, 92644, Note_on_c, 2, 59, 91
4, 92644, Note_on_c, 2, 67, 91
4, 92660, Control_c, 2, 11, 43
4, 92676, Control_c, 2, 11, 44
4, 92692, Control_c, 2, 11, 45
4, 92708, Control_c, 2, 11, 46
4, 92724, Control_c, 2, 11, 47
4, 92740, Control_c, 2, 11, 48
4, 92756, Control_c, 2, 11, 49
4, 92759, Note_on_c, 2, 67, 0
4, 92759, Note_on_c, 2, 59, 0
4, 92764, Note_on_c, 2, 74, 91
4, 92764, Note_on_c, 2, 65, 91
4, 92772, Control_c, 2, 11, 50
4, 92788, Control_c, 2, 11, 51
4, 92804, Control_c, 2, 11, 52
4, 92820, Control_c, 2, 11, 53
4, 92836, Control_c, 2, 11, 54
4, 92852, Control_c, 2, 11, 55
4, 92868, Control_c, 2, 11, 56
4, 92884, Note_on_c, 2, 65, 0
4, 92884, Note_on_c, 2, 74, 0
4, 92884, Control_c, 2, 11, 57
4, 92884, Note_on_c, 2, 64, 91
4, 92884, Note_on_c, 2, 72, 91
4, 92900, Control_c, 2, 11, 58
4, 92916, Control_c, 2, 11, 59
4, 92932, Control_c, 2, 11, 60
4, 92948, Control_c, 2, 11, 61
4, 92964, Control_c, 2, 11, 62
4, 92980, Control_c, 2, 11, 62
4, 92996, Control_c, 2, 11, 63
4, 93004, Note_on_c, 2, 72, 0
4, 93004, Note_on_c, 2, 64, 0
4, 93004, Note_on_c, 2, 71, 91
4, 93004, Note_on_c, 2, 62, 91
4, 93012, Control_c, 2, 11, 63
4, 93028, Control_c, 2, 11, 64
4, 93044, Control_c, 2, 11, 65
4, 93060, Control_c, 2, 11, 65
4, 93076, Control_c, 2, 11, 66
4, 93092, Control_c, 2, 11, 66
4, 93108, Control_c, 2, 11, 67
4, 93119, Note_on_c, 2, 62, 0
4, 93119, Note_on_c, 2, 71, 0
4, 93124, Control_c, 2, 11, 68
4, 93124, Note_on_c, 2, 74, 91
4, 93124, Note_on_c, 2, 71, 91
4, 93140, Control_c, 2, 11, 68
4, 93156, Control_c, 2, 11, 69
4, 93172, Control_c, 2, 11, 70
4, 93188, Control_c, 2, 11, 70
4, 93204, Control_c, 2, 11, 71
4, 93220, Control_c, 2, 11, 71
4, 93236, Control_c, 2, 11, 72
4, 93244, Note_on_c, 2, 71, 0
4, 93244, Note_on_c, 2, 74, 0
4, 93244, Note_on_c, 2, 76, 91
4, 93244, Note_on_c, 2, 72, 91
4, 93252, Control_c, 2, 11, 73
4, 93268, Control_c, 2, 11, 73
4, 93284, Control_c, 2, 11, 74
4, 93300, Control_c, 2, 11, 74
4, 93316, Control_c, 2, 11, 75
4, 93332, Control_c, 2, 11, 76
4, 93348, Control_c, 2, 11, 76
4, 93359, Note_on_c, 2, 72, 0
4, 93359, Note_on_c, 2, 76, 0
4, 93364, Control_c, 2, 11, 77
4, 93364, Note_on_c, 2, 71, 91
4, 93364, Note_on_c, 2, 74, 91
4, 93380, Control_c, 2, 11, 78
4, 93396, Control_c, 2, 11, 79
4, 93412, Control_c, 2, 11, 81
4, 93428, Control_c, 2, 11, 82
4, 93444, Control_c, 2, 11, 83
4, 93460, Control_c, 2, 11, 84
4, 93469, Note_on_c, 2, 74, 0
4, 93469, Note_on_c, 2, 71, 0
4, 93469, Note_on_c, 2, 69, 91
4, 93476, Control_c, 2, 11, 86
4, 93479, Note_on_c, 2, 69, 0
4, 93484, Note_on_c, 2, 69, 91
4, 93492, Control_c, 2, 11, 85
4, 93510, Control_c, 2, 11, 82
4, 93527, Control_c, 2, 11, 80
4, 93545, Control_c, 2, 11, 78
4, 93562, Control_c, 2, 11, 75
4, 93580, Control_c, 2, 11, 73
4, 93597, Control_c, 2, 11, 70
4, 93614, Control_c, 2, 11, 68
4, 93632, Control_c, 2, 11, 65
4, 93649, Control_c, 2, 11, 63
4, 93664, Note_on_c, 2, 69, 0
4, 93664, Note_on_c, 2, 67, 91
4, 93667, Control_c, 2, 11, 60
4, 93680, Control_c, 2, 11, 57
4, 93693, Control_c, 2, 11, 54
4, 93706, Control_c, 2, 11, 51
4, 93719, Note_on_c, 2, 67, 0
4, 93719, Control_c, 2, 11, 48
4, 93724, Note_on_c, 2, 67, 90
4, 93724, Note_on_c, 2, 65, 90
4, 93751, Control_c, 2, 11, 46
4, 93779, Control_c, 2, 11, 45
4, 93784, Note_on_c, 2, 64, 89
4, 93807, Control_c, 2, 11, 44
4, 93834, Control_c, 2, 11, 43
4, 93844, Note_on_c, 2, 64, 0
4, 93844, Note_on_c, 2, 62, 88
4, 93862, Control_c, 2, 11, 42
4, 93890, Control_c, 2, 11, 41
4, 93904, Note_on_c, 2, 62, 0
4, 93904, Note_on_c, 2, 67, 0
4, 93904, Note_on_c, 2, 60, 87
4, 93917, Control_c, 2, 11, 40
4, 93945, Control_c, 2, 11, 39
4, 93964, Note_on_c, 2, 60, 0
4, 93964, Note_on_c, 2, 59, 86
4, 93973, Control_c, 2, 11, 38
4, 94000, Control_c, 2, 11, 37
4, 94024, Note_on_c, 2, 59, 0
4, 94024, Note_on_c, 2, 57, 85
4, 94028, Control_c, 2, 11, 36
4, 94056, Control_c, 2, 11, 35
4, 94079, Note_on_c, 2, 57, 0
4, 94084, Control_c, 2, 11, 34
4, 94084, Note_on_c, 2, 55, 83
4, 94099, Control_c, 2, 11, 37
4, 94165, Control_c, 2, 11, 36
4, 94231, Control_c, 2, 11, 35
4, 94264, Note_on_c, 2, 65, 0
4, 94297, Control_c, 2, 11, 34
4, 94363, Control_c, 2, 11, 33
4, 94429, Control_c, 2, 11, 32
4, 94564, Note_on_c, 2, 55, 0
4, 97324, Control_c, 2, 1, 0
4, 97324, Control_c, 2, 11, 74
4, 97324, Note_on_c, 2, 65, 91
4, 97324, Note_on_c, 2, 74, 91
4, 97357, Control_c, 2, 11, 75
4, 97386, Control_c, 2, 11, 76
4, 97415, Control_c, 2, 11, 76
4, 97434, Note_on_c, 2, 74, 0
4, 97434, Note_on_c, 2, 65, 0
4, 97444, Control_c, 2, 11, 77
4, 97444, Note_on_c, 2, 74, 91
4, 97444, Note_on_c, 2, 65, 91
4, 97554, Note_on_c, 2, 65, 0
4, 97554, Note_on_c, 2, 74, 0
4, 97564, Note_on_c, 2, 65, 91
4, 97564, Note_on_c, 2, 74, 91
4, 97674, Note_on_c, 2, 74, 0
4, 97674, Note_on_c, 2, 65, 0
4, 97684, Note_on_c, 2, 65, 91
4, 97684, Note_on_c, 2, 74, 91
4, 97794, Note_on_c, 2, 74, 0
4, 97794, Note_on_c, 2, 65, 0
4, 97804, Note_on_c, 2, 74, 91
4, 97804, Note_on_c, 2, 65, 91
4, 97914, Note_on_c, 2, 65, 0
4, 97914, Note_on_c, 2, 74, 0
4, 97924, Control_c, 2, 11, 77
4, 97924, Note_on_c, 2, 65, 91
4, 97924, Note_on_c, 2, 74, 91
4, 98016, Control_c, 2, 11, 78
4, 98034, Note_on_c, 2, 74, 0
4, 98034, Note_on_c, 2, 65, 0
4, 98044, Note_on_c, 2, 65, 91
4, 98044, Note_on_c, 2, 74, 91
4, 98108, Control_c, 2, 11, 78
4, 98154, Note_on_c, 2, 74, 0
4, 98154, Note_on_c, 2, 65, 0
4, 98164, Note_on_c, 2, 65, 91
4, 98164, Note_on_c, 2, 74, 91
4, 98200, Control_c, 2, 11, 79
4, 98274, Note_on_c, 2, 74, 0
4, 98274, Note_on_c, 2, 65, 0
4, 98284, Note_on_c, 2, 65, 91
4, 98284, Note_on_c, 2, 74, 91
4, 98292, Control_c, 2, 11, 79
4, 98384, Control_c, 2, 11, 80
4, 98394, Note_on_c, 2, 74, 0
4, 98394, Note_on_c, 2, 65, 0
4, 98404, Note_on_c, 2, 65, 91
4, 98404, Note_on_c, 2, 74, 91
4, 98476, Control_c, 2, 11, 81
4, 98514, Note_on_c, 2, 74, 0
4, 98514, Note_on_c, 2, 65, 0
4, 98524, Note_on_c, 2, 74, 91
4, 98524, Note_on_c, 2, 65, 91
4, 98568, Control_c, 2, 11, 81
4, 98634, Note_on_c, 2, 65, 0
4, 98634, Note_on_c, 2, 74, 0
4, 98644, Note_on_c, 2, 65, 91
4, 98644, Note_on_c, 2, 74, 91
4, 98660, Control_c, 2, 11, 82
4, 98752, Control_c, 2, 11, 82
4, 98754, Note_on_c, 2, 74, 0
4, 98754, Note_on_c, 2, 65, 0
4, 98764, Note_on_c, 2, 65, 91
4, 98764, Note_on_c, 2, 74, 91
4, 98844, Control_c, 2, 11, 83
4, 98874, Note_on_c, 2, 74, 0
4, 98874, Note_on_c, 2, 65, 0
4, 98884, Note_on_c, 2, 65, 91
4, 98884, Note_on_c, 2, 74, 91
4, 98936, Control_c, 2, 11, 84
4, 98994, Note_on_c, 2, 74, 0
4, 98994, Note_on_c, 2, 65, 0
4, 99004, Note_on_c, 2, 74, 91
4, 99004, Note_on_c, 2, 65, 91
4, 99028, Control_c, 2, 11, 84
4, 99114, Note_on_c, 2, 65, 0
4, 99114, Note_on_c, 2, 74, 0
4, 99120, Control_c, 2, 11, 85
4, 99124, Note_on_c, 2, 64, 91
4, 99124, Note_on_c, 2, 72, 91
4, 99212, Control_c, 2, 11, 86
4, 99234, Note_on_c, 2, 72, 0
4, 99234, Note_on_c, 2, 64, 0
4, 99244, Note_on_c, 2, 72, 91
4, 99244, Note_on_c, 2, 64, 91
4, 99304, Control_c, 2, 11, 86
4, 99364, Note_on_c, 2, 64, 0
4, 99364, Note_on_c, 2, 72, 0
4, 99484, Note_on_c, 2, 64, 91
4, 99484, Note_on_c, 2, 72, 91
4, 99604, Note_on_c, 2, 72, 0
4, 99604, Note_on_c, 2, 64, 0
4, 99724, Note_on_c, 2, 64, 91
4, 99724, Note_on_c, 2, 72, 91
4, 99844, Note_on_c, 2, 72, 0
4, 99844, Note_on_c, 2, 64, 0
4, 99844, Note_on_c, 2, 76, 91
4, 99844, Note_on_c, 2, 67, 91
4, 99964, Note_on_c, 2, 67, 0
4, 99964, Note_on_c, 2, 76, 0
4, 99964, Note_on_c, 2, 76, 91
4, 99964, Note_on_c, 2, 67, 91
4, 100084, Note_on_c, 2, 67, 0
4, 100084, Note_on_c, 2, 76, 0
4, 100084, Note_on_c, 2, 76, 91
4, 100084, Note_on_c, 2, 67, 91
4, 100684, Note_on_c, 2, 67, 0
4, 100684, Note_on_c, 2, 76, 0
4, 100684, Note_on_c, 2, 77, 91
4, 100684, Note_on_c, 2, 69, 91
4, 100804, Note_on_c, 2, 69, 0
4, 100804, Note_on_c, 2, 77, 0
4, 100804, Note_on_c, 2, 67, 91
4, 100804, Note_on_c, 2, 76, 91
4, 100924, Note_on_c, 2, 76, 0
4, 100924, Note_on_c, 2, 67, 0
4, 100924, Note_on_c, 2, 76, 91
4, 100924, Note_on_c, 2, 67, 91
4, 101044, Note_on_c, 2, 67, 0
4, 101044, Note_on_c, 2, 76, 0
4, 101044, Note_on_c, 2, 76, 91
4, 101044, Note_on_c, 2, 67, 91
4, 101644, Note_on_c, 2, 67, 0
4, 101644, Note_on_c, 2, 76, 0
4, 101644, Note_on_c, 2, 77, 91
4, 101644, Note_on_c, 2, 69, 91
4, 101764, Note_on_c, 2, 69, 0
4, 101764, Note_on_c, 2, 77, 0
4, 101764, Note_on_c, 2, 67, 91
4, 101764, Note_on_c, 2, 76, 91
4, 101884, Note_on_c, 2, 76, 0
4, 101884, Note_on_c, 2, 67, 0
4, 102124, Note_on_c, 2, 76, 91
4, 102124, Note_on_c, 2, 67, 91
4, 102244, Note_on_c, 2, 67, 0
4, 102244, Note_on_c, 2, 76, 0
4, 102244, Note_on_c, 2, 67, 91
4, 102244, Note_on_c, 2, 76, 91
4, 102364, Note_on_c, 2, 76, 0
4, 102364, Note_on_c, 2, 67, 0
4, 102604, Note_on_c, 2, 72, 91
4, 102604, Note_on_c, 2, 67, 91
4, 102724, Note_on_c, 2, 67, 0
4, 102724, Note_on_c, 2, 72, 0
4, 102724, Note_on_c, 2, 69, 91
4, 102724, Note_on_c, 2, 72, 91
4, 102844, Note_on_c, 2, 72, 0
4, 102844, Note_on_c, 2, 69, 0
4, 103084, Note_on_c, 2, 69, 91
4, 103084, Note_on_c, 2, 72, 91
4, 103204, Note_on_c, 2, 72, 0
4, 103204, Note_on_c, 2, 69, 0
4, 103204, Note_on_c, 2, 65, 91
4, 103204, Note_on_c, 2, 71, 91
4, 103324, Note_on_c, 2, 71, 0
4, 103324, Note_on_c, 2, 65, 0
4, 103564, Note_on_c, 2, 74, 91
4, 103564, Note_on_c, 2, 71, 91
4, 103684, Note_on_c, 2, 71, 0
4, 103684, Note_on_c, 2, 74, 0
4, 103684, Note_on_c, 2, 72, 91
4, 103804, Note_on_c, 2, 72, 0
4, 104044, Note_on_c, 2, 76, 91
4, 104044, Note_on_c, 2, 72, 91
4, 104164, Note_on_c, 2, 72, 0
4, 104164, Note_on_c, 2, 76, 0
4, 104164, Note_on_c, 2, 72, 91
4, 104164, Note_on_c, 2, 76, 91
4, 104284, Note_on_c, 2, 76, 0
4, 104284, Note_on_c, 2, 72, 0
4, 104524, Note_on_c, 2, 67, 91
4, 104524, Note_on_c, 2, 72, 91
4, 104644, Note_on_c, 2, 72, 0
4, 104644, Note_on_c, 2, 67, 0
4, 104644, Note_on_c, 2, 72, 91
4, 104644, Note_on_c, 2, 69, 91
4, 104764, Note_on_c, 2, 69, 0
4, 104764, Note_on_c, 2, 72, 0
4, 105004, Note_on_c, 2, 69, 91
4, 105004, Note_on_c, 2, 72, 91
4, 105124, Note_on_c, 2, 72, 0
4, 105124, Note_on_c, 2, 69, 0
4, 105124, Note_on_c, 2, 69, 91
4, 105124, Note_on_c, 2, 72, 91
4, 105244, Note_on_c, 2, 72, 0
4, 105244, Note_on_c, 2, 69, 0
4, 105484, Note_on_c, 2, 69, 91
4, 105484, Note_on_c, 2, 72, 91
4, 105604, Note_on_c, 2, 72, 0
4, 105604, Note_on_c, 2, 69, 0
4, 105604, Note_on_c, 2, 69, 91
4, 105604, Note_on_c, 2, 72, 91
4, 105724, Note_on_c, 2, 72, 0
4, 105724, Note_on_c, 2, 69, 0
4, 105964, Note_on_c, 2, 69, 91
4, 105964, Note_on_c, 2, 72, 91
4, 106084, Note_on_c, 2, 72, 0
4, 106084, Note_on_c, 2, 69, 0
4, 106084, Note_on_c, 2, 69, 91
4, 106084, Note_on_c, 2, 72, 91
4, 106204, Note_on_c, 2, 72, 0
4, 106204, Note_on_c, 2, 69, 0
4, 106444, Note_on_c, 2, 74, 91
4, 106444, Note_on_c, 2, 69, 91
4, 106564, Note_on_c, 2, 69, 0
4, 106564, Note_on_c, 2, 74, 0
4, 106564, Note_on_c, 2, 74, 76
4, 106564, Note_on_c, 2, 71, 76
4, 106684, Note_on_c, 2, 71, 0
4, 106684, Note_on_c, 2, 74, 0
4, 113764, Control_c, 2, 11, 52
4, 113764, Note_on_c, 2, 62, 84
4, 114004, Note_on_c, 2, 62, 0
4, 114004, Note_on_c, 2, 65, 84
4, 114244, Note_on_c, 2, 65, 0
4, 114244, Control_c, 2, 11, 71
4, 114244, Note_on_c, 2, 68, 84
4, 114282, Control_c, 2, 11, 70
4, 114320, Control_c, 2, 11, 70
4, 114359, Control_c, 2, 11, 69
4, 114397, Control_c, 2, 11, 68
4, 114436, Control_c, 2, 11, 68
4, 114474, Control_c, 2, 11, 67
4, 114512, Control_c, 2, 11, 66
4, 114551, Control_c, 2, 11, 66
4, 114589, Control_c, 2, 11, 65
4, 114628, Control_c, 2, 11, 65
4, 114666, Control_c, 2, 11, 64
4, 114704, Control_c, 2, 11, 63
4, 114743, Control_c, 2, 11, 63
4, 114781, Control_c, 2, 11, 62
4, 114820, Control_c, 2, 11, 62
4, 114858, Control_c, 2, 11, 61
4, 114896, Control_c, 2, 11, 60
4, 114935, Control_c, 2, 11, 59
4, 114964, Note_on_c, 2, 68, 0
4, 114964, Note_on_c, 2, 67, 84
4, 114973, Control_c, 2, 11, 58
4, 115012, Control_c, 2, 11, 57
4, 115050, Control_c, 2, 11, 56
4, 115084, Note_on_c, 2, 67, 0
4, 115084, Note_on_c, 2, 66, 84
4, 115088, Control_c, 2, 11, 55
4, 115127, Control_c, 2, 11, 54
4, 115165, Control_c, 2, 11, 53
4, 115194, Note_on_c, 2, 66, 0
4, 115204, Control_c, 2, 11, 52
4, 115204, Note_on_c, 2, 66, 84
4, 115258, Control_c, 2, 11, 53
4, 115313, Control_c, 2, 11, 54
4, 115368, Control_c, 2, 11, 55
4, 115423, Control_c, 2, 11, 56
4, 115434, Note_on_c, 2, 66, 0
4, 115444, Note_on_c, 2, 67, 84
4, 115478, Control_c, 2, 11, 57
4, 115533, Control_c, 2, 11, 58
4, 115588, Control_c, 2, 11, 59
4, 115642, Control_c, 2, 11, 60
4, 115697, Control_c, 2, 11, 61
4, 115752, Control_c, 2, 11, 62
4, 115807, Control_c, 2, 11, 62
4, 115862, Control_c, 2, 11, 63
4, 115914, Note_on_c, 2, 67, 0
4, 115917, Control_c, 2, 11, 63
4, 115924, Note_on_c, 2, 69, 84
4, 115972, Control_c, 2, 11, 64
4, 116026, Control_c, 2, 11, 65
4, 116081, Control_c, 2, 11, 65
4, 116136, Control_c, 2, 11, 66
4, 116191, Control_c, 2, 11, 66
4, 116224, Note_on_c, 2, 69, 0
4, 116246, Control_c, 2, 11, 67
4, 116284, Note_on_c, 2, 69, 84
4, 116301, Control_c, 2, 11, 68
4, 116356, Control_c, 2, 11, 68
4, 116404, Note_on_c, 2, 69, 0
4, 116404, Note_on_c, 2, 72, 84
4, 116410, Control_c, 2, 11, 69
4, 116465, Control_c, 2, 11, 70
4, 116520, Control_c, 2, 11, 70
4, 116524, Note_on_c, 2, 72, 0
4, 116524, Note_on_c, 2, 70, 84
4, 116575, Control_c, 2, 11, 71
4, 116630, Control_c, 2, 11, 71
4, 116644, Note_on_c, 2, 70, 0
4, 116685, Control_c, 2, 11, 72
4, 116740, Control_c, 2, 11, 73
4, 116764, Note_on_c, 2, 70, 84
4, 116794, Control_c, 2, 11, 73
4, 116849, Control_c, 2, 11, 74
4, 116884, Note_on_c, 2, 70, 0
4, 116884, Note_on_c, 2, 68, 84
4, 116904, Control_c, 2, 11, 74
4, 116959, Control_c, 2, 11, 75
4, 117004, Note_on_c, 2, 68, 0
4, 117004, Note_on_c, 2, 65, 84
4, 117014, Control_c, 2, 11, 76
4, 117069, Control_c, 2, 11, 76
4, 117114, Note_on_c, 2, 65, 0
4, 117124, Control_c, 2, 11, 77
4, 117124, Note_on_c, 2, 63, 84
4, 117244, Note_on_c, 2, 63, 0
4, 125284, Control_c, 2, 11, 52
4, 125284, Note_on_c, 2, 79, 76
4, 125404, Note_on_c, 2, 79, 0
4, 125404, Note_on_c, 2, 77, 76
4, 125524, Note_on_c, 2, 77, 0
4, 125524, Note_on_c, 2, 75, 76
4, 125644, Note_on_c, 2, 75, 0
4, 125644, Note_on_c, 2, 74, 76
4, 125764, Note_on_c, 2, 74, 0
4, 136324, Control_c, 2, 11, 52
4, 136324, Note_on_c, 2, 72, 76
4, 136324, Note_on_c, 2, 60, 76
4, 136400, Control_c, 2, 11, 53
4, 136477, Control_c, 2, 11, 54
4, 136554, Control_c, 2, 11, 55
4, 136631, Control_c, 2, 11, 56
4, 136708, Control_c, 2, 11, 57
4, 136784, Control_c, 2, 11, 58
4, 136861, Control_c, 2, 11, 59
4, 136938, Control_c, 2, 11, 60
4, 137015, Control_c, 2, 11, 61
4, 137092, Control_c, 2, 11, 62
4, 137168, Control_c, 2, 11, 62
4, 137245, Control_c, 2, 11, 63
4, 137322, Control_c, 2, 11, 63
4, 137399, Control_c, 2, 11, 64
4, 137476, Control_c, 2, 11, 65
4, 137552, Control_c, 2, 11, 65
4, 137629, Control_c, 2, 11, 66
4, 137706, Control_c, 2, 11, 66
4, 137783, Control_c, 2, 11, 67
4, 137860, Control_c, 2, 11, 68
4, 137936, Control_c, 2, 11, 68
4, 138013, Control_c, 2, 11, 69
4, 138090, Control_c, 2, 11, 70
4, 138167, Control_c, 2, 11, 70
4, 138244, Note_on_c, 2, 60, 0
4, 138244, Note_on_c, 2, 72, 0
4, 138244, Control_c, 2, 11, 71
4, 138244, Note_on_c, 2, 55, 76
4, 138244, Note_on_c, 2, 67, 76
4, 138436, Control_c, 2, 11, 71
4, 138628, Control_c, 2, 11, 72
4, 138820, Control_c, 2, 11, 73
4, 139012, Control_c, 2, 11, 73
4, 139204, Control_c, 2, 11, 74
4, 139396, Control_c, 2, 11, 74
4, 139588, Control_c, 2, 11, 75
4, 139780, Control_c, 2, 11, 76
4, 139972, Control_c, 2, 11, 76
4, 140164, Note_on_c, 2, 67, 0
4, 140164, Note_on_c, 2, 55, 0
4, 140164, Control_c, 2, 11, 77
4, 140164, Note_on_c, 2, 60, 76
4, 140164, Note_on_c, 2, 72, 76
4, 140269, Note_on_c, 2, 72, 0
4, 140269, Note_on_c, 2, 60, 0
4, 140284, Note_on_c, 2, 72, 76
4, 140389, Note_on_c, 2, 72, 0
4, 140404, Note_on_c, 2, 72, 76
4, 140509, Note_on_c, 2, 72, 0
4, 140524, Note_on_c, 2, 72, 76
4, 140629, Note_on_c, 2, 72, 0
4, 140644, Note_on_c, 2, 71, 76
4, 140749, Note_on_c, 2, 71, 0
4, 140764, Note_on_c, 2, 72, 76
4, 140869, Note_on_c, 2, 72, 0
4, 140884, Note_on_c, 2, 67, 76
4, 140989, Note_on_c, 2, 67, 0
4, 141004, Note_on_c, 2, 69, 76
4, 141109, Note_on_c, 2, 69, 0
4, 141124, Note_on_c, 2, 69, 76
4, 141229, Note_on_c, 2, 69, 0
4, 141244, Note_on_c, 2, 67, 76
4, 141349, Note_on_c, 2, 67, 0
4, 141364, Note_on_c, 2, 72, 76
4, 141469, Note_on_c, 2, 72, 0
4, 141484, Note_on_c, 2, 72, 76
4, 141589, Note_on_c, 2, 72, 0
4, 141604, Note_on_c, 2, 71, 76
4, 141709, Note_on_c, 2, 71, 0
4, 141724, Note_on_c, 2, 72, 76
4, 141829, Note_on_c, 2, 72, 0
4, 141844, Note_on_c, 2, 67, 76
4, 141949, Note_on_c, 2, 67, 0
4, 141964, Note_on_c, 2, 69, 76
4, 142069, Note_on_c, 2, 69, 0
4, 142084, Control_c, 2, 11, 77
4, 142084, Note_on_c, 2, 69, 76
4, 142180, Control_c, 2, 11, 78
4, 142189, Note_on_c, 2, 69, 0
4, 142204, Note_on_c, 2, 67, 76
4, 142276, Control_c, 2, 11, 78
4, 142309, Note_on_c, 2, 67, 0
4, 142324, Note_on_c, 2, 74, 76
4, 142372, Control_c, 2, 11, 79
4, 142429, Note_on_c, 2, 74, 0
4, 142444, Note_on_c, 2, 74, 76
4, 142468, Control_c, 2, 11, 79
4, 142549, Note_on_c, 2, 74, 0
4, 142564, Control_c, 2, 11, 80
4, 142564, Note_on_c, 2, 73, 76
4, 142660, Control_c, 2, 11, 81
4, 142669, Note_on_c, 2, 73, 0
4, 142684, Note_on_c, 2, 74, 76
4, 142756, Control_c, 2, 11, 81
4, 142789, Note_on_c, 2, 74, 0
4, 142804, Note_on_c, 2, 67, 76
4, 142852, Control_c, 2, 11, 82
4, 142909, Note_on_c, 2, 67, 0
4, 142924, Note_on_c, 2, 69, 76
4, 142948, Control_c, 2, 11, 82
4, 143029, Note_on_c, 2, 69, 0
4, 143044, Control_c, 2, 11, 83
4, 143044, Note_on_c, 2, 69, 76
4, 143140, Control_c, 2, 11, 84
4, 143149, Note_on_c, 2, 69, 0
4, 143164, Note_on_c, 2, 67, 76
4, 143236, Control_c, 2, 11, 84
4, 143269, Note_on_c, 2, 67, 0
4, 143284, Note_on_c, 2, 74, 76
4, 143332, Control_c, 2, 11, 85
4, 143389, Note_on_c, 2, 74, 0
4, 143404, Note_on_c, 2, 74, 76
4, 143428, Control_c, 2, 11, 86
4, 143509, Note_on_c, 2, 74, 0
4, 143524, Control_c, 2, 11, 86
4, 143524, Note_on_c, 2, 73, 76
4, 143620, Control_c, 2, 11, 87
4, 143629, Note_on_c, 2, 73, 0
4, 143644, Note_on_c, 2, 74, 76
4, 143716, Control_c, 2, 11, 87
4, 143749, Note_on_c, 2, 74, 0
4, 143764, Note_on_c, 2, 67, 76
4, 143812, Control_c, 2, 11, 88
4, 143869, Note_on_c, 2, 67, 0
4, 143884, Note_on_c, 2, 74, 76
4, 143908, Control_c, 2, 11, 89
4, 143989, Note_on_c, 2, 74, 0
4, 144004, Control_c, 2, 11, 89
4, 144004, Note_on_c, 2, 64, 76
4, 144004, Note_on_c, 2, 72, 76
4, 144319, Note_on_c, 2, 72, 0
4, 144319, Note_on_c, 2, 64, 0
4, 144364, Note_on_c, 2, 72, 76
4, 144364, Note_on_c, 2, 65, 76
4, 144463, Note_on_c, 2, 65, 0
4, 144463, Note_on_c, 2, 72, 0
4, 144484, Note_on_c, 2, 72, 76
4, 144484, Note_on_c, 2, 65, 76
4, 144799, Note_on_c, 2, 65, 0
4, 144799, Note_on_c, 2, 72, 0
4, 144844, Note_on_c, 2, 64, 76
4, 144844, Note_on_c, 2, 72, 76
4, 144943, Note_on_c, 2, 72, 0
4, 144943, Note_on_c, 2, 64, 0
4, 144964, Note_on_c, 2, 72, 76
4, 144964, Note_on_c, 2, 64, 76
4, 145279, Note_on_c, 2, 64, 0
4, 145279, Note_on_c, 2, 72, 0
4, 145324, Note_on_c, 2, 72, 76
4, 145324, Note_on_c, 2, 69, 76
4, 145423, Note_on_c, 2, 69, 0
4, 145423, Note_on_c, 2, 72, 0
4, 145444, Note_on_c, 2, 72, 76
4, 145444, Note_on_c, 2, 69, 76
4, 145759, Note_on_c, 2, 69, 0
4, 145759, Note_on_c, 2, 72, 0
4, 145804, Note_on_c, 2, 72, 76
4, 145804, Note_on_c, 2, 67, 76
4, 145903, Note_on_c, 2, 67, 0
4, 145903, Note_on_c, 2, 72, 0
4, 145924, Note_on_c, 2, 67, 76
4, 145924, Note_on_c, 2, 72, 76
4, 145984, Note_on_c, 2, 72, 0
4, 145984, Note_on_c, 2, 67, 0
4, 146044, Note_on_c, 2, 65, 76
4, 146044, Note_on_c, 2, 72, 76
4, 146104, Note_on_c, 2, 72, 0
4, 146104, Note_on_c, 2, 65, 0
4, 146164, Note_on_c, 2, 65, 76
4, 146164, Note_on_c, 2, 72, 76
4, 146224, Note_on_c, 2, 72, 0
4, 146224, Note_on_c, 2, 65, 0
4, 146284, Note_on_c, 2, 64, 76
4, 146284, Note_on_c, 2, 72, 76
4, 146344, Note_on_c, 2, 72, 0
4, 146344, Note_on_c, 2, 64, 0
4, 146404, Note_on_c, 2, 64, 76
4, 146404, Note_on_c, 2, 72, 76
4, 146464, Note_on_c, 2, 72, 0
4, 146464, Note_on_c, 2, 64, 0
4, 146524, Note_on_c, 2, 69, 76
4, 146524, Note_on_c, 2, 72, 76
4, 146584, Note_on_c, 2, 72, 0
4, 146584, Note_on_c, 2, 69, 0
4, 146644, Note_on_c, 2, 69, 76
4, 146644, Note_on_c, 2, 72, 76
4, 146704, Note_on_c, 2, 72, 0
4, 146704, Note_on_c, 2, 69, 0
4, 146764, Note_on_c, 2, 68, 76
4, 146764, Note_on_c, 2, 72, 76
4, 146824, Note_on_c, 2, 72, 0
4, 146824, Note_on_c, 2, 68, 0
4, 146884, Note_on_c, 2, 68, 76
4, 146884, Note_on_c, 2, 72, 76
4, 146944, Note_on_c, 2, 72, 0
4, 146944, Note_on_c, 2, 68, 0
4, 147004, Note_on_c, 2, 69, 76
4, 147004, Note_on_c, 2, 72, 76
4, 147064, Note_on_c, 2, 72, 0
4, 147064, Note_on_c, 2, 69, 0
4, 147124, Note_on_c, 2, 69, 76
4, 147124, Note_on_c, 2, 72, 76
4, 147184, Note_on_c, 2, 72, 0
4, 147184, Note_on_c, 2, 69, 0
4, 147244, Note_on_c, 2, 69, 76
4, 147244, Note_on_c, 2, 71, 76
4, 147304, Note_on_c, 2, 71, 0
4, 147304, Note_on_c, 2, 69, 0
4, 147364, Note_on_c, 2, 69, 76
4, 147364, Note_on_c, 2, 71, 76
4, 147424, Note_on_c, 2, 71, 0
4, 147424, Note_on_c, 2, 69, 0
4, 147484, Note_on_c, 2, 69, 76
4, 147484, Note_on_c, 2, 72, 76
4, 147544, Note_on_c, 2, 72, 0
4, 147544, Note_on_c, 2, 69, 0
4, 147604, Note_on_c, 2, 69, 76
4, 147604, Note_on_c, 2, 72, 76
4, 147664, Note_on_c, 2, 72, 0
4, 147664, Note_on_c, 2, 69, 0
4, 147724, Note_on_c, 2, 69, 76
4, 147724, Note_on_c, 2, 72, 76
4, 147784, Note_on_c, 2, 72, 0
4, 147784, Note_on_c, 2, 69, 0
4, 147844, Control_c, 2, 11, 98
4, 147844, Note_on_c, 2, 74, 91
4, 147844, Note_on_c, 2, 69, 91
4, 147867, Control_c, 2, 11, 97
4, 147891, Control_c, 2, 11, 96
4, 147915, Control_c, 2, 11, 95
4, 147939, Control_c, 2, 11, 94
4, 147963, Control_c, 2, 11, 92
4, 147987, Control_c, 2, 11, 91
4, 148011, Control_c, 2, 11, 90
4, 148035, Control_c, 2, 11, 89
4, 148059, Control_c, 2, 11, 87
4, 148083, Control_c, 2, 11, 86
4, 148794, Note_on_c, 2, 69, 0
4, 148794, Note_on_c, 2, 74, 0
4, 148804, Control_c, 2, 11, 98
4, 148804, Note_on_c, 2, 76, 91
4, 148804, Note_on_c, 2, 72, 91
4, 148827, Control_c, 2, 11, 97
4, 148851, Control_c, 2, 11, 96
4, 148875, Control_c, 2, 11, 95
4, 148899, Control_c, 2, 11, 94
4, 148923, Control_c, 2, 11, 92
4, 148947, Control_c, 2, 11, 91
4, 148971, Control_c, 2, 11, 90
4, 148995, Control_c, 2, 11, 89
4, 149019, Control_c, 2, 11, 87
4, 149043, Control_c, 2, 11, 86
4, 149754, Note_on_c, 2, 72, 0
4, 149754, Note_on_c, 2, 76, 0
4, 149764, Control_c, 2, 11, 98
4, 149764, Note_on_c, 2, 77, 91
4, 149764, Note_on_c, 2, 72, 91
4, 149787, Control_c, 2, 11, 97
4, 149811, Control_c, 2, 11, 96
4, 149835, Control_c, 2, 11, 95
4, 149859, Control_c, 2, 11, 94
4, 149883, Control_c, 2, 11, 92
4, 149907, Control_c, 2, 11, 91
4, 149931, Control_c, 2, 11, 90
4, 149955, Control_c, 2, 11, 89
4, 149979, Control_c, 2, 11, 87
4, 150003, Control_c, 2, 11, 86
4, 150714, Note_on_c, 2, 72, 0
4, 150714, Note_on_c, 2, 77, 0
4, 150724, Note_on_c, 2, 77, 91
4, 150724, Note_on_c, 2, 72, 91
4, 151084, Note_on_c, 2, 72, 0
4, 151084, Note_on_c, 2, 77, 0
4, 151204, Note_on_c, 2, 77, 91
4, 151204, Note_on_c, 2, 74, 91
4, 151564, Note_on_c, 2, 74, 0
4, 151564, Note_on_c, 2, 77, 0
4, 151684, Note_on_c, 2, 76, 91
4, 151684, Note_on_c, 2, 72, 91
4, 152044, Note_on_c, 2, 72, 0
4, 152044, Note_on_c, 2, 76, 0
4, 152164, Note_on_c, 2, 77, 91
4, 152164, Note_on_c, 2, 74, 91
4, 152524, Note_on_c, 2, 74, 0
4, 152524, Note_on_c, 2, 77, 0
4, 152644, Note_on_c, 2, 74, 91
4, 152644, Note_on_c, 2, 71, 91
4, 153004, Note_on_c, 2, 71, 0
4, 153004, Note_on_c, 2, 74, 0
4, 153124, Note_on_c, 2, 76, 91
4, 153124, Note_on_c, 2, 72, 91
4, 153484, Note_on_c, 2, 72, 0
4, 153484, Note_on_c, 2, 76, 0
4, 153604, Note_on_c, 2, 77, 91
4, 153604, Note_on_c, 2, 74, 91
4, 153964, Note_on_c, 2, 74, 0
4, 153964, Note_on_c, 2, 77, 0
4, 154084, Note_on_c, 2, 74, 91
4, 154084, Note_on_c, 2, 71, 91
4, 154444, Note_on_c, 2, 71, 0
4, 154444, Note_on_c, 2, 74, 0
4, 154564, Note_on_c, 2, 76, 91
4, 154564, Note_on_c, 2, 72, 91
4, 154924, Note_on_c, 2, 72, 0
4, 154924, Note_on_c, 2, 76, 0
4, 155044, Note_on_c, 2, 77, 91
4, 155044, Note_on_c, 2, 74, 91
4, 155404, Note_on_c, 2, 74, 0
4, 155404, Note_on_c, 2, 77, 0
4, 155524, Note_on_c, 2, 74, 91
4, 155524, Note_on_c, 2, 72, 91
4, 156484, Note_on_c, 2, 72, 0
4, 156484, Note_on_c, 2, 74, 0
4, 156484, Note_on_c, 2, 74, 91
4, 156484, Note_on_c, 2, 71, 91
4, 157444, Note_on_c, 2, 71, 0
4, 157444, Note_on_c, 2, 74, 0
4, 157444, Note_on_c, 2, 72, 91
4, 157444, Note_on_c, 2, 64, 91
4, 157564, Note_on_c, 2, 64, 0
4, 157564, Note_on_c, 2, 72, 0
4, 157804, Control_c, 2, 11, 80
4, 157804, Note_on_c, 2, 67, 91
4, 157804, Note_on_c, 2, 79, 91
4, 157909, Note_on_c, 2, 79, 0
4, 157909, Note_on_c, 2, 67, 0
4, 157924, Control_c, 2, 11, 92
4, 157924, Note_on_c, 2, 79, 91
4, 157924, Note_on_c, 2, 67, 91
4, 157947, Control_c, 2, 11, 91
4, 157971, Control_c, 2, 11, 90
4, 157995, Control_c, 2, 11, 89
4, 158019, Control_c, 2, 11, 87
4, 158043, Control_c, 2, 11, 86
4, 158067, Control_c, 2, 11, 85
4, 158091, Control_c, 2, 11, 84
4, 158115, Control_c, 2, 11, 82
4, 158139, Control_c, 2, 11, 81
4, 158163, Control_c, 2, 11, 80
4, 158164, Note_on_c, 2, 67, 0
4, 158164, Note_on_c, 2, 79, 0
4, 158164, Note_on_c, 2, 64, 91
4, 158164, Note_on_c, 2, 76, 91
4, 158284, Note_on_c, 2, 76, 0
4, 158284, Note_on_c, 2, 64, 0
4, 158284, Note_on_c, 2, 72, 91
4, 158284, Note_on_c, 2, 60, 91
4, 158389, Note_on_c, 2, 60, 0
4, 158389, Note_on_c, 2, 72, 0
4, 158404, Note_on_c, 2, 60, 91
4, 158404, Note_on_c, 2, 72, 91
4, 158524, Note_on_c, 2, 72, 0
4, 158524, Note_on_c, 2, 60, 0
4, 158524, Note_on_c, 2, 71, 91
4, 158524, Note_on_c, 2, 59, 91
4, 158644, Note_on_c, 2, 59, 0
4, 158644, Note_on_c, 2, 71, 0
4, 159484, Note_on_c, 2, 67, 91
4, 159484, Note_on_c, 2, 79, 91
4, 159589, Note_on_c, 2, 79, 0
4, 159589, Note_on_c, 2, 67, 0
4, 159604, Note_on_c, 2, 79, 91
4, 159604, Note_on_c, 2, 67, 91
4, 159709, Note_on_c, 2, 67, 0
4, 159709, Note_on_c, 2, 79, 0
4, 159724, Note_on_c, 2, 67, 91
4, 159724, Note_on_c, 2, 79, 91
4, 159829, Note_on_c, 2, 79, 0
4, 159829, Note_on_c, 2, 67, 0
4, 159844, Note_on_c, 2, 79, 91
4, 159844, Note_on_c, 2, 67, 91
4, 159949, Note_on_c, 2, 67, 0
4, 159949, Note_on_c, 2, 79, 0
4, 159964, Note_on_c, 2, 67, 91
4, 159964, Note_on_c, 2, 79, 91
4, 160069, Note_on_c, 2, 79, 0
4, 160069, Note_on_c, 2, 67, 0
4, 160084, Note_on_c, 2, 76, 91
4, 160084, Note_on_c, 2, 64, 91
4, 160189, Note_on_c, 2, 64, 0
4, 160189, Note_on_c, 2, 76, 0
4, 160204, Note_on_c, 2, 60, 91
4, 160204, Note_on_c, 2, 72, 91
4, 160309, Note_on_c, 2, 72, 0
4, 160309, Note_on_c, 2, 60, 0
4, 160324, Note_on_c, 2, 71, 91
4, 160324, Note_on_c, 2, 59, 91
4, 160444, Note_on_c, 2, 59, 0
4, 160444, Note_on_c, 2, 71, 0
4, 161404, Note_on_c, 2, 67, 91
4, 161404, Note_on_c, 2, 79, 91
4, 161629, Note_on_c, 2, 79, 0
4, 161629, Note_on_c, 2, 67, 0
4, 161644, Note_on_c, 2, 79, 91
4, 161644, Note_on_c, 2, 67, 91
4, 161869, Note_on_c, 2, 67, 0
4, 161869, Note_on_c, 2, 79, 0
4, 161884, Note_on_c, 2, 64, 91
4, 161884, Note_on_c, 2, 76, 91
4, 162109, Note_on_c, 2, 76, 0
4, 162109, Note_on_c, 2, 64, 0
4, 162124, Note_on_c, 2, 72, 91
4, 162124, Note_on_c, 2, 60, 91
4, 162229, Note_on_c, 2, 60, 0
4, 162229, Note_on_c, 2, 72, 0
4, 162244, Note_on_c, 2, 59, 91
4, 162244, Note_on_c, 2, 71, 91
4, 162364, Note_on_c, 2, 71, 0
4, 162364, Note_on_c, 2, 59, 0
4, 163324, Note_on_c, 2, 67, 91
4, 163324, Note_on_c, 2, 79, 91
4, 163549, Note_on_c, 2, 79, 0
4, 163549, Note_on_c, 2, 67, 0
4, 163564, Note_on_c, 2, 79, 91
4, 163564, Note_on_c, 2, 67, 91
4, 163789, Note_on_c, 2, 67, 0
4, 163789, Note_on_c, 2, 79, 0
4, 163804, Note_on_c, 2, 67, 91
4, 163804, Note_on_c, 2, 79, 91
4, 163864, Note_on_c, 2, 79, 0
4, 163864, Note_on_c, 2, 67, 0
4, 163924, Note_on_c, 2, 64, 91
4, 163924, Note_on_c, 2, 76, 91
4, 163984, Note_on_c, 2, 76, 0
4, 163984, Note_on_c, 2, 64, 0
4, 164044, Note_on_c, 2, 60, 91
4, 164044, Note_on_c, 2, 72, 91
4, 164104, Note_on_c, 2, 72, 0
4, 164104, Note_on_c, 2, 60, 0
4, 164164, Control_c, 2, 11, 68
4, 164164, Note_on_c, 2, 71, 91
4, 164164, Note_on_c, 2, 65, 91
4, 164169, Control_c, 2, 11, 71
4, 164174, Control_c, 2, 11, 74
4, 164179, Control_c, 2, 11, 77
4, 164184, Control_c, 2, 11, 80
4, 164189, Control_c, 2, 11, 83
4, 164193, Control_c, 2, 11, 86
4, 164509, Control_c, 2, 11, 86
4, 164514, Control_c, 2, 11, 83
4, 164520, Control_c, 2, 11, 80
4, 164525, Control_c, 2, 11, 77
4, 164529, Control_c, 2, 11, 74
4, 164535, Control_c, 2, 11, 71
4, 164540, Control_c, 2, 11, 68
4, 164542, Note_on_c, 2, 65, 0
4, 164542, Note_on_c, 2, 71, 0
4, 164884, Control_c, 2, 11, 77
4, 164884, Note_on_c, 2, 74, 91
4, 164884, Note_on_c, 2, 65, 91
4, 165004, Note_on_c, 2, 65, 0
4, 165004, Note_on_c, 2, 74, 0
4, 165364, Note_on_c, 2, 74, 91
4, 165364, Note_on_c, 2, 65, 91
4, 165484, Note_on_c, 2, 65, 0
4, 165484, Note_on_c, 2, 74, 0
4, 165724, Note_on_c, 2, 74, 91
4, 165724, Note_on_c, 2, 65, 91
4, 165844, Note_on_c, 2, 65, 0
4, 165844, Note_on_c, 2, 74, 0
4, 165964, Note_on_c, 2, 74, 91
4, 165964, Note_on_c, 2, 65, 91
4, 166084, Note_on_c, 2, 65, 0
4, 166084, Note_on_c, 2, 74, 0
4, 166204, Note_on_c, 2, 74, 91
4, 166204, Note_on_c, 2, 65, 91
4, 166324, Note_on_c, 2, 65, 0
4, 166324, Note_on_c, 2, 74, 0
4, 166444, Note_on_c, 2, 72, 91
4, 166444, Note_on_c, 2, 64, 91
4, 166564, Note_on_c, 2, 64, 0
4, 166564, Note_on_c, 2, 72, 0
4, 166684, Note_on_c, 2, 72, 91
4, 166684, Note_on_c, 2, 64, 91
4, 166804, Note_on_c, 2, 64, 0
4, 166804, Note_on_c, 2, 72, 0
4, 166924, Note_on_c, 2, 72, 91
4, 166924, Note_on_c, 2, 64, 91
4, 167044, Note_on_c, 2, 64, 0
4, 167044, Note_on_c, 2, 72, 0
4, 167044, Control_c, 2, 11, 80
4, 167044, Note_on_c, 2, 64, 91
4, 167044, Note_on_c, 2, 72, 91
4, 167060, Control_c, 2, 11, 78
4, 167076, Control_c, 2, 11, 76
4, 167092, Control_c, 2, 11, 74
4, 167108, Control_c, 2, 11, 73
4, 167124, Control_c, 2, 11, 71
4, 167140, Control_c, 2, 11, 69
4, 167156, Control_c, 2, 11, 67
4, 167164, Note_on_c, 2, 64, 0
4, 167172, Control_c, 2, 11, 65
4, 167188, Control_c, 2, 11, 63
4, 167204, Control_c, 2, 11, 62
4, 167220, Control_c, 2, 11, 59
4, 167236, Control_c, 2, 11, 56
4, 167252, Control_c, 2, 11, 53
4, 167268, Control_c, 2, 11, 50
4, 167284, Control_c, 2, 11, 47
4, 168004, Control_c, 2, 11, 47
4, 168116, Control_c, 2, 11, 46
4, 168229, Control_c, 2, 11, 45
4, 168342, Control_c, 2, 11, 44
4, 168455, Control_c, 2, 11, 43
4, 168568, Control_c, 2, 11, 42
4, 168681, Control_c, 2, 11, 41
4, 168794, Control_c, 2, 11, 40
4, 168907, Control_c, 2, 11, 39
4, 169020, Control_c, 2, 11, 38
4, 169133, Control_c, 2, 11, 37
4, 169246, Control_c, 2, 11, 36
4, 169359, Control_c, 2, 11, 35
4, 169472, Control_c, 2, 11, 34
4, 169585, Control_c, 2, 11, 33
4, 169698, Control_c, 2, 11, 32
4, 169811, Control_c, 2, 11, 31
4, 169924, Control_c, 2, 11, 30
4, 170104, Control_c, 2, 11, 30
4, 170124, Control_c, 2, 11, 29
4, 170144, Control_c, 2, 11, 28
4, 170164, Control_c, 2, 11, 27
4, 170184, Control_c, 2, 11, 26
4, 170204, Control_c, 2, 11, 25
4, 170224, Control_c, 2, 11, 24
4, 170244, Control_c, 2, 11, 23
4, 170264, Control_c, 2, 11, 22
4, 170284, Control_c, 2, 11, 21
4, 170300, Control_c, 2, 11, 18
4, 170316, Control_c, 2, 11, 15
4, 170333, Control_c, 2, 11, 12
4, 170344, Note_on_c, 2, 72, 0
4, 170404, Control_c, 2, 11, 86
4, 170404, Note_on_c, 2, 76, 91
4, 170404, Note_on_c, 2, 72, 91
4, 170524, Note_on_c, 2, 72, 0
4, 170524, Note_on_c, 2, 76, 0
4, 171364, Note_on_c, 2, 76, 91
4, 171364, Note_on_c, 2, 72, 91
4, 171484, Note_on_c, 2, 72, 0
4, 171484, Note_on_c, 2, 76, 0
4, 171844, Note_on_c, 2, 76, 91
4, 171844, Note_on_c, 2, 72, 91
4, 171964, Note_on_c, 2, 72, 0
4, 171964, Note_on_c, 2, 76, 0
4, 172324, Control_c, 2, 11, 92
4, 172324, Note_on_c, 2, 60, 91
4, 172324, Note_on_c, 2, 72, 91
4, 172444, Note_on_c, 2, 72, 0
4, 172444, Note_on_c, 2, 60, 0
4, 172804, Control_c, 2, 121, 0
4, 172804, End_track
5, 0, Start_track
5, 0, MIDI_port, 0
5, 0, Title_t, "2 Fagotti"
5, 0, Program_c, 3, 70
5, 0, Control_c, 3, 10, 80
5, 9, Control_c, 3, 121, 0
5, 14, Program_c, 3, 70
5, 19, Pitch_bend_c, 3, 8342
5, 24, Control_c, 3, 11, 102
5, 29, Control_c, 3, 7, 127
5, 34, Control_c, 3, 91, 67
5, 39, Control_c, 3, 93, 0
5, 3849, Control_c, 3, 11, 100
5, 3849, Note_on_c, 3, 43, 90
5, 3859, Control_c, 3, 11, 87
5, 3878, Control_c, 3, 11, 84
5, 3898, Control_c, 3, 11, 81
5, 3918, Control_c, 3, 11, 78
5, 3938, Control_c, 3, 11, 75
5, 3958, Control_c, 3, 11, 72
5, 3978, Control_c, 3, 11, 69
5, 3998, Control_c, 3, 11, 66
5, 4018, Control_c, 3, 11, 63
5, 4038, Control_c, 3, 11, 60
5, 4057, Control_c, 3, 11, 57
5, 4077, Control_c, 3, 11, 54
5, 4097, Control_c, 3, 11, 51
5, 4117, Control_c, 3, 11, 48
5, 4137, Control_c, 3, 11, 45
5, 4157, Control_c, 3, 11, 42
5, 4177, Control_c, 3, 11, 39
5, 4179, Note_on_c, 3, 43, 0
5, 5169, Control_c, 3, 11, 32
5, 5169, Note_on_c, 3, 58, 90
5, 5175, Control_c, 3, 11, 35
5, 5181, Control_c, 3, 11, 38
5, 5187, Control_c, 3, 11, 41
5, 5193, Control_c, 3, 11, 44
5, 5199, Control_c, 3, 11, 47
5, 5289, Note_on_c, 3, 58, 0
5, 5289, Note_on_c, 3, 57, 90
5, 5409, Note_on_c, 3, 57, 0
5, 5409, Note_on_c, 3, 55, 90
5, 5529, Note_on_c, 3, 55, 0
5, 5529, Note_on_c, 3, 53, 95
5, 5649, Note_on_c, 3, 53, 0
5, 5649, Note_on_c, 3, 52, 113
5, 5709, Note_on_c, 3, 52, 0
5, 5709, Note_on_c, 3, 53, 106
5, 5769, Note_on_c, 3, 53, 0
5, 5769, Control_c, 3, 11, 67
5, 5769, Note_on_c, 3, 52, 110
5, 5773, Control_c, 3, 11, 70
5, 5778, Control_c, 3, 11, 73
5, 5782, Control_c, 3, 11, 76
5, 5787, Control_c, 3, 11, 79
5, 5791, Control_c, 3, 11, 82
5, 5796, Control_c, 3, 11, 85
5, 5949, Note_on_c, 3, 52, 0
5, 7509, Control_c, 3, 11, 32
5, 7509, Note_on_c, 3, 67, 90
5, 7509, Note_on_c, 3, 64, 90
5, 7513, Control_c, 3, 11, 35
5, 7517, Control_c, 3, 11, 38
5, 7521, Control_c, 3, 11, 41
5, 7525, Control_c, 3, 11, 44
5, 7529, Control_c, 3, 11, 47
5, 7569, Note_on_c, 3, 64, 0
5, 7569, Note_on_c, 3, 67, 0
5, 7569, Note_on_c, 3, 62, 90
5, 7569, Note_on_c, 3, 65, 90
5, 7629, Note_on_c, 3, 65, 0
5, 7629, Note_on_c, 3, 62, 0
5, 7629, Note_on_c, 3, 61, 90
5, 7629, Note_on_c, 3, 64, 90
5, 7684, Note_on_c, 3, 64, 0
5, 7684, Note_on_c, 3, 61, 0
5, 7689, Control_c, 3, 11, 67
5, 7689, Note_on_c, 3, 54, 90
5, 7689, Note_on_c, 3, 66, 90
5, 7692, Control_c, 3, 11, 70
5, 7695, Control_c, 3, 11, 73
5, 7698, Control_c, 3, 11, 76
5, 7701, Control_c, 3, 11, 79
5, 7704, Control_c, 3, 11, 82
5, 7707, Control_c, 3, 11, 85
5, 7869, Note_on_c, 3, 66, 0
5, 7869, Note_on_c, 3, 54, 0
5, 9309, Control_c, 3, 11, 47
5, 9309, Note_on_c, 3, 67, 90
5, 9354, Note_on_c, 3, 67, 0
5, 9369, Note_on_c, 3, 66, 90
5, 9414, Note_on_c, 3, 66, 0
5, 9429, Note_on_c, 3, 67, 90
5, 9474, Note_on_c, 3, 67, 0
5, 9489, Note_on_c, 3, 66, 90
5, 9534, Note_on_c, 3, 66, 0
5, 9549, Note_on_c, 3, 62, 90
5, 9594, Note_on_c, 3, 62, 0
5, 9609, Control_c, 3, 11, 67
5, 9609, Note_on_c, 3, 62, 90
5, 9609, Note_on_c, 3, 59, 90
5, 9612, Control_c, 3, 11, 70
5, 9615, Control_c, 3, 11, 73
5, 9618, Control_c, 3, 11, 76
5, 9621, Control_c, 3, 11, 79
5, 9624, Control_c, 3, 11, 82
5, 9627, Control_c, 3, 11, 85
5, 9789, Note_on_c, 3, 59, 0
5, 9789, Note_on_c, 3, 62, 0
5, 11079, Control_c, 3, 11, 42
5, 11079, Note_on_c, 3, 60, 90
5, 11079, Note_on_c, 3, 63, 90
5, 11109, Note_on_c, 3, 63, 0
5, 11109, Note_on_c, 3, 60, 0
5, 11109, Note_on_c, 3, 62, 90
5, 11109, Note_on_c, 3, 59, 90
5, 11139, Note_on_c, 3, 59, 0
5, 11139, Note_on_c, 3, 62, 0
5, 11139, Note_on_c, 3, 60, 90
5, 11139, Note_on_c, 3, 63, 90
5, 11169, Note_on_c, 3, 63, 0
5, 11169, Note_on_c, 3, 60, 0
5, 11169, Note_on_c, 3, 59, 90
5, 11169, Note_on_c, 3, 62, 90
5, 11229, Note_on_c, 3, 62, 0
5, 11229, Note_on_c, 3, 59, 0
5, 11319, Control_c, 3, 11, 47
5, 11319, Note_on_c, 3, 65, 100
5, 11319, Note_on_c, 3, 62, 100
5, 11349, Note_on_c, 3, 62, 0
5, 11349, Note_on_c, 3, 65, 0
5, 11349, Note_on_c, 3, 60, 100
5, 11349, Note_on_c, 3, 63, 100
5, 11379, Note_on_c, 3, 63, 0
5, 11379, Note_on_c, 3, 60, 0
5, 11379, Note_on_c, 3, 65, 100
5, 11379, Note_on_c, 3, 62, 100
5, 11409, Note_on_c, 3, 62, 0
5, 11409, Note_on_c, 3, 65, 0
5, 11409, Note_on_c, 3, 60, 100
5, 11409, Note_on_c, 3, 63, 100
5, 11469, Note_on_c, 3, 63, 0
5, 11469, Note_on_c, 3, 60, 0
5, 11559, Control_c, 3, 11, 59
5, 11559, Note_on_c, 3, 67, 100
5, 11559, Note_on_c, 3, 63, 100
5, 11589, Note_on_c, 3, 63, 0
5, 11589, Note_on_c, 3, 67, 0
5, 11589, Note_on_c, 3, 62, 101
5, 11589, Note_on_c, 3, 65, 101
5, 11619, Note_on_c, 3, 65, 0
5, 11619, Note_on_c, 3, 62, 0
5, 11679, Control_c, 3, 11, 66
5, 11679, Note_on_c, 3, 68, 106
5, 11679, Note_on_c, 3, 62, 106
5, 11709, Note_on_c, 3, 62, 0
5, 11709, Note_on_c, 3, 68, 0
5, 11709, Note_on_c, 3, 63, 108
5, 11709, Note_on_c, 3, 60, 108
5, 11739, Note_on_c, 3, 60, 0
5, 11739, Note_on_c, 3, 63, 0
5, 11799, Control_c, 3, 11, 68
5, 11799, Note_on_c, 3, 67, 113
5, 11829, Note_on_c, 3, 67, 0
5, 11829, Note_on_c, 3, 68, 115
5, 11829, Note_on_c, 3, 65, 115
5, 11859, Note_on_c, 3, 65, 0
5, 11859, Note_on_c, 3, 68, 0
5, 13929, Control_c, 3, 11, 30
5, 13946, Control_c, 3, 11, 32
5, 13963, Control_c, 3, 11, 34
5, 13969, Note_on_c, 3, 48, 73
5, 13969, Note_on_c, 3, 60, 73
5, 13980, Control_c, 3, 11, 36
5, 13989, Note_on_c, 3, 60, 0
5, 13989, Note_on_c, 3, 48, 0
5, 14009, Note_on_c, 3, 48, 73
5, 14009, Note_on_c, 3, 60, 73
5, 14029, Note_on_c, 3, 60, 0
5, 14029, Note_on_c, 3, 48, 0
5, 14049, Note_on_c, 3, 60, 73
5, 14049, Note_on_c, 3, 48, 73
5, 14069, Note_on_c, 3, 48, 0
5, 14069, Note_on_c, 3, 60, 0
5, 14209, Note_on_c, 3, 62, 82
5, 14209, Note_on_c, 3, 50, 82
5, 14229, Note_on_c, 3, 50, 0
5, 14229, Note_on_c, 3, 62, 0
5, 14249, Note_on_c, 3, 62, 82
5, 14249, Note_on_c, 3, 50, 82
5, 14269, Note_on_c, 3, 50, 0
5, 14269, Note_on_c, 3, 62, 0
5, 14289, Note_on_c, 3, 62, 82
5, 14289, Note_on_c, 3, 50, 82
5, 14309, Note_on_c, 3, 50, 0
5, 14309, Note_on_c, 3, 62, 0
5, 14409, Control_c, 3, 11, 37
5, 14416, Control_c, 3, 11, 40
5, 14423, Control_c, 3, 11, 43
5, 14430, Control_c, 3, 11, 46
5, 14437, Control_c, 3, 11, 49
5, 14445, Control_c, 3, 11, 52
5, 14449, Note_on_c, 3, 63, 73
5, 14449, Note_on_c, 3, 51, 73
5, 14452, Control_c, 3, 11, 55
5, 14459, Control_c, 3, 11, 58
5, 14466, Control_c, 3, 11, 61
5, 14469, Note_on_c, 3, 51, 0
5, 14469, Note_on_c, 3, 63, 0
5, 14473, Control_c, 3, 11, 64
5, 14481, Control_c, 3, 11, 67
5, 14488, Control_c, 3, 11, 70
5, 14489, Note_on_c, 3, 51, 73
5, 14489, Note_on_c, 3, 63, 73
5, 14495, Control_c, 3, 11, 73
5, 14502, Control_c, 3, 11, 76
5, 14509, Note_on_c, 3, 63, 0
5, 14509, Note_on_c, 3, 51, 0
5, 14509, Control_c, 3, 11, 79
5, 14517, Control_c, 3, 11, 82
5, 14524, Control_c, 3, 11, 85
5, 14529, Note_on_c, 3, 51, 73
5, 14529, Note_on_c, 3, 63, 73
5, 14549, Note_on_c, 3, 63, 0
5, 14549, Note_on_c, 3, 51, 0
5, 14889, Control_c, 3, 11, 47
5, 14889, Note_on_c, 3, 68, 90
5, 14909, Note_on_c, 3, 68, 0
5, 14929, Note_on_c, 3, 67, 90
5, 14949, Note_on_c, 3, 67, 0
5, 14969, Note_on_c, 3, 65, 90
5, 14989, Note_on_c, 3, 65, 0
5, 15009, Note_on_c, 3, 63, 90
5, 15029, Note_on_c, 3, 63, 0
5, 15049, Note_on_c, 3, 62, 90
5, 15069, Note_on_c, 3, 62, 0
5, 15089, Note_on_c, 3, 60, 90
5, 15109, Note_on_c, 3, 60, 0
5, 15249, Control_c, 3, 11, 47
5, 15249, Note_on_c, 3, 65, 90
5, 15249, Note_on_c, 3, 53, 90
5, 15269, Note_on_c, 3, 53, 0
5, 15269, Note_on_c, 3, 65, 0
5, 15289, Note_on_c, 3, 63, 90
5, 15289, Note_on_c, 3, 51, 90
5, 15309, Note_on_c, 3, 51, 0
5, 15309, Note_on_c, 3, 63, 0
5, 15329, Note_on_c, 3, 50, 90
5, 15329, Note_on_c, 3, 62, 90
5, 15349, Note_on_c, 3, 62, 0
5, 15349, Note_on_c, 3, 50, 0
5, 15369, Note_on_c, 3, 60, 90
5, 15369, Note_on_c, 3, 48, 90
5, 15769, Note_on_c, 3, 48, 0
5, 15769, Note_on_c, 3, 60, 0
5, 15769, Note_on_c, 3, 63, 90
5, 15769, Note_on_c, 3, 51, 90
5, 15809, Note_on_c, 3, 51, 0
5, 15809, Note_on_c, 3, 63, 0
5, 15809, Note_on_c, 3, 48, 90
5, 15809, Note_on_c, 3, 60, 90
5, 15849, Note_on_c, 3, 60, 0
5, 15849, Note_on_c, 3, 48, 0
5, 15849, Control_c, 3, 11, 57
5, 15849, Note_on_c, 3, 55, 90
5, 15865, Control_c, 3, 11, 58
5, 15881, Control_c, 3, 11, 59
5, 15897, Control_c, 3, 11, 60
5, 15913, Control_c, 3, 11, 61
5, 15929, Control_c, 3, 11, 62
5, 15945, Control_c, 3, 11, 63
5, 15961, Control_c, 3, 11, 64
5, 15977, Control_c, 3, 11, 65
5, 15993, Control_c, 3, 11, 66
5, 16009, Note_on_c, 3, 55, 0
5, 16009, Control_c, 3, 11, 67
5, 16009, Note_on_c, 3, 59, 90
5, 16029, Note_on_c, 3, 59, 0
5, 16049, Note_on_c, 3, 62, 90
5, 16069, Note_on_c, 3, 62, 0
5, 16089, Note_on_c, 3, 67, 90
5, 16199, Note_on_c, 3, 67, 0
5, 16209, Control_c, 3, 11, 67
5, 16209, Note_on_c, 3, 67, 90
5, 16227, Control_c, 3, 11, 70
5, 16245, Control_c, 3, 11, 73
5, 16263, Control_c, 3, 11, 76
5, 16281, Control_c, 3, 11, 79
5, 16299, Control_c, 3, 11, 82
5, 16317, Control_c, 3, 11, 85
5, 16329, Note_on_c, 3, 67, 0
5, 16329, Note_on_c, 3, 68, 90
5, 16489, Note_on_c, 3, 68, 0
5, 16489, Note_on_c, 3, 63, 90
5, 16509, Note_on_c, 3, 63, 0
5, 16529, Note_on_c, 3, 60, 90
5, 16549, Note_on_c, 3, 60, 0
5, 16569, Control_c, 3, 11, 87
5, 16569, Note_on_c, 3, 56, 90
5, 16586, Control_c, 3, 11, 84
5, 16589, Note_on_c, 3, 56, 0
5, 16604, Control_c, 3, 11, 81
5, 16609, Note_on_c, 3, 51, 90
5, 16622, Control_c, 3, 11, 78
5, 16629, Note_on_c, 3, 51, 0
5, 16640, Control_c, 3, 11, 75
5, 16649, Note_on_c, 3, 48, 90
5, 16658, Control_c, 3, 11, 72
5, 16659, Note_on_c, 3, 48, 0
5, 16676, Control_c, 3, 11, 69
5, 16689, Note_on_c, 3, 44, 90
5, 16694, Control_c, 3, 11, 66
5, 16712, Control_c, 3, 11, 63
5, 16730, Control_c, 3, 11, 60
5, 16739, Note_on_c, 3, 44, 0
5, 16748, Control_c, 3, 11, 57
5, 16749, Note_on_c, 3, 44, 90
5, 16766, Control_c, 3, 11, 54
5, 16784, Control_c, 3, 11, 51
5, 16799, Note_on_c, 3, 44, 0
5, 16802, Control_c, 3, 11, 48
5, 16809, Note_on_c, 3, 43, 90
5, 16822, Control_c, 3, 11, 49
5, 16843, Control_c, 3, 11, 52
5, 16863, Control_c, 3, 11, 55
5, 16869, Note_on_c, 3, 43, 0
5, 16869, Note_on_c, 3, 55, 90
5, 16884, Control_c, 3, 11, 58
5, 16905, Control_c, 3, 11, 61
5, 16919, Note_on_c, 3, 55, 0
5, 16925, Control_c, 3, 11, 64
5, 16929, Note_on_c, 3, 55, 90
5, 16946, Control_c, 3, 11, 67
5, 16959, Note_on_c, 3, 55, 0
5, 16966, Control_c, 3, 11, 70
5, 16969, Note_on_c, 3, 59, 90
5, 16987, Control_c, 3, 11, 73
5, 17007, Control_c, 3, 11, 76
5, 17009, Note_on_c, 3, 59, 0
5, 17009, Note_on_c, 3, 62, 90
5, 17028, Control_c, 3, 11, 79
5, 17049, Note_on_c, 3, 62, 0
5, 17049, Control_c, 3, 11, 82
5, 17049, Note_on_c, 3, 67, 90
5, 17079, Note_on_c, 3, 67, 0
5, 17089, Note_on_c, 3, 67, 90
5, 17119, Note_on_c, 3, 67, 0
5, 17129, Note_on_c, 3, 67, 90
5, 17159, Note_on_c, 3, 67, 0
5, 17169, Note_on_c, 3, 67, 90
5, 17199, Note_on_c, 3, 67, 0
5, 17209, Note_on_c, 3, 67, 90
5, 17239, Note_on_c, 3, 67, 0
5, 17249, Note_on_c, 3, 67, 90
5, 17279, Note_on_c, 3, 67, 0
5, 17289, Note_on_c, 3, 68, 90
5, 17449, Note_on_c, 3, 68, 0
5, 17449, Note_on_c, 3, 63, 90
5, 17489, Note_on_c, 3, 63, 0
5, 17489, Note_on_c, 3, 60, 90
5, 17529, Note_on_c, 3, 60, 0
5, 17529, Control_c, 3, 11, 82
5, 17529, Note_on_c, 3, 56, 90
5, 17549, Control_c, 3, 11, 79
5, 17569, Note_on_c, 3, 56, 0
5, 17569, Note_on_c, 3, 51, 90
5, 17570, Control_c, 3, 11, 76
5, 17590, Control_c, 3, 11, 73
5, 17609, Note_on_c, 3, 51, 0
5, 17609, Note_on_c, 3, 48, 90
5, 17611, Control_c, 3, 11, 70
5, 17631, Control_c, 3, 11, 67
5, 17639, Note_on_c, 3, 48, 0
5, 17649, Note_on_c, 3, 44, 90
5, 17652, Control_c, 3, 11, 64
5, 17673, Control_c, 3, 11, 61
5, 17679, Note_on_c, 3, 44, 0
5, 17689, Note_on_c, 3, 44, 90
5, 17693, Control_c, 3, 11, 58
5, 17714, Control_c, 3, 11, 55
5, 17719, Note_on_c, 3, 44, 0
5, 17729, Note_on_c, 3, 44, 90
5, 17734, Control_c, 3, 11, 52
5, 17755, Control_c, 3, 11, 49
5, 17759, Note_on_c, 3, 44, 0
5, 17769, Note_on_c, 3, 43, 75
5, 17889, Note_on_c, 3, 43, 0
5, 21489, Control_c, 3, 11, 77
5, 21489, Note_on_c, 3, 55, 90
5, 21489, Note_on_c, 3, 59, 90
5, 21609, Note_on_c, 3, 59, 0
5, 21609, Note_on_c, 3, 55, 0
5, 21609, Note_on_c, 3, 60, 90
5, 21609, Note_on_c, 3, 57, 90
5, 21617, Control_c, 3, 11, 78
5, 21729, Note_on_c, 3, 57, 0
5, 21729, Note_on_c, 3, 60, 0
5, 21745, Control_c, 3, 11, 79
5, 21849, Note_on_c, 3, 59, 90
5, 21849, Note_on_c, 3, 62, 90
5, 21873, Control_c, 3, 11, 80
5, 21969, Note_on_c, 3, 62, 0
5, 21969, Note_on_c, 3, 59, 0
5, 22001, Control_c, 3, 11, 81
5, 22089, Note_on_c, 3, 60, 90
5, 22089, Note_on_c, 3, 64, 90
5, 22129, Control_c, 3, 11, 82
5, 22209, Note_on_c, 3, 64, 0
5, 22209, Note_on_c, 3, 60, 0
5, 22257, Control_c, 3, 11, 83
5, 22329, Note_on_c, 3, 62, 90
5, 22329, Note_on_c, 3, 65, 90
5, 22385, Control_c, 3, 11, 84
5, 22449, Note_on_c, 3, 65, 0
5, 22449, Note_on_c, 3, 62, 0
5, 22449, Note_on_c, 3, 55, 90
5, 22449, Note_on_c, 3, 59, 90
5, 22513, Control_c, 3, 11, 85
5, 22569, Note_on_c, 3, 59, 0
5, 22569, Note_on_c, 3, 55, 0
5, 22569, Note_on_c, 3, 60, 90
5, 22569, Note_on_c, 3, 57, 90
5, 22641, Control_c, 3, 11, 86
5, 22689, Note_on_c, 3, 57, 0
5, 22689, Note_on_c, 3, 60, 0
5, 22769, Control_c, 3, 11, 87
5, 22809, Note_on_c, 3, 62, 90
5, 22809, Note_on_c, 3, 59, 90
5, 22897, Control_c, 3, 11, 88
5, 22929, Note_on_c, 3, 59, 0
5, 22929, Note_on_c, 3, 62, 0
5, 23025, Control_c, 3, 11, 89
5, 23049, Note_on_c, 3, 60, 90
5, 23049, Note_on_c, 3, 64, 90
5, 23153, Control_c, 3, 11, 90
5, 23169, Note_on_c, 3, 64, 0
5, 23169, Note_on_c, 3, 60, 0
5, 23281, Control_c, 3, 11, 91
5, 23289, Note_on_c, 3, 62, 90
5, 23289, Note_on_c, 3, 65, 90
5, 23409, Note_on_c, 3, 65, 0
5, 23409, Note_on_c, 3, 62, 0
5, 23409, Control_c, 3, 11, 92
5, 23409, Note_on_c, 3, 55, 90
5, 23409, Note_on_c, 3, 59, 90
5, 23529, Note_on_c, 3, 59, 0
5, 23529, Note_on_c, 3, 55, 0
5, 23529, Note_on_c, 3, 57, 90
5, 23529, Note_on_c, 3, 60, 90
5, 23649, Note_on_c, 3, 60, 0
5, 23649, Note_on_c, 3, 57, 0
5, 23769, Note_on_c, 3, 62, 90
5, 23769, Note_on_c, 3, 59, 90
5, 23889, Note_on_c, 3, 59, 0
5, 23889, Note_on_c, 3, 62, 0
5, 23913, Control_c, 3, 11, 93
5, 24009, Note_on_c, 3, 60, 90
5, 24009, Note_on_c, 3, 64, 90
5, 24129, Note_on_c, 3, 64, 0
5, 24129, Note_on_c, 3, 60, 0
5, 24249, Note_on_c, 3, 65, 90
5, 24249, Note_on_c, 3, 62, 90
5, 24369, Note_on_c, 3, 62, 0
5, 24369, Note_on_c, 3, 65, 0
5, 24417, Control_c, 3, 11, 94
5, 24489, Note_on_c, 3, 60, 90
5, 24489, Note_on_c, 3, 64, 90
5, 24609, Note_on_c, 3, 64, 0
5, 24609, Note_on_c, 3, 60, 0
5, 24729, Note_on_c, 3, 62, 90
5, 24729, Note_on_c, 3, 59, 90
5, 24849, Note_on_c, 3, 59, 0
5, 24849, Note_on_c, 3, 62, 0
5, 24921, Control_c, 3, 11, 95
5, 24969, Note_on_c, 3, 60, 90
5, 24969, Note_on_c, 3, 57, 90
5, 25089, Note_on_c, 3, 57, 0
5, 25089, Note_on_c, 3, 60, 0
5, 25209, Note_on_c, 3, 56, 90
5, 25209, Note_on_c, 3, 60, 90
5, 25329, Note_on_c, 3, 60, 0
5, 25329, Note_on_c, 3, 56, 0
5, 25425, Control_c, 3, 11, 96
5, 25449, Note_on_c, 3, 59, 90
5, 25449, Note_on_c, 3, 55, 90
5, 25569, Note_on_c, 3, 55, 0
5, 25569, Note_on_c, 3, 59, 0
5, 25689, Note_on_c, 3, 56, 90
5, 25689, Note_on_c, 3, 60, 90
5, 25809, Note_on_c, 3, 60, 0
5, 25809, Note_on_c, 3, 56, 0
5, 25929, Control_c, 3, 11, 97
5, 25929, Note_on_c, 3, 55, 90
5, 25989, Note_on_c, 3, 55, 0
5, 26049, Note_on_c, 3, 65, 90
5, 26109, Note_on_c, 3, 65, 0
5, 26109, Control_c, 3, 11, 98
5, 26169, Note_on_c, 3, 64, 90
5, 26229, Note_on_c, 3, 64, 0
5, 26289, Control_c, 3, 11, 99
5, 26289, Note_on_c, 3, 62, 90
5, 26349, Note_on_c, 3, 62, 0
5, 26409, Note_on_c, 3, 60, 90
5, 26469, Note_on_c, 3, 60, 0
5, 26469, Control_c, 3, 11, 100
5, 26529, Note_on_c, 3, 59, 90
5, 26589, Note_on_c, 3, 59, 0
5, 26649, Control_c, 3, 11, 101
5, 26649, Note_on_c, 3, 57, 90
5, 26709, Note_on_c, 3, 57, 0
5, 26769, Note_on_c, 3, 55, 90
5, 26829, Note_on_c, 3, 55, 0
5, 26829, Control_c, 3, 11, 102
5, 26889, Note_on_c, 3, 53, 90
5, 26949, Note_on_c, 3, 53, 0
5, 27009, Control_c, 3, 11, 103
5, 27009, Note_on_c, 3, 52, 90
5, 27069, Note_on_c, 3, 52, 0
5, 27129, Note_on_c, 3, 50, 90
5, 27189, Note_on_c, 3, 50, 0
5, 27189, Control_c, 3, 11, 104
5, 27249, Note_on_c, 3, 48, 90
5, 27309, Note_on_c, 3, 48, 0
5, 27369, Control_c, 3, 11, 105
5, 27369, Note_on_c, 3, 47, 90
5, 27429, Note_on_c, 3, 47, 0
5, 27489, Note_on_c, 3, 43, 90
5, 27549, Note_on_c, 3, 43, 0
5, 27549, Control_c, 3, 11, 106
5, 27609, Note_on_c, 3, 48, 90
5, 27669, Note_on_c, 3, 48, 0
5, 27729, Control_c, 3, 11, 107
5, 27729, Note_on_c, 3, 60, 90
5, 27729, Note_on_c, 3, 48, 90
5, 27789, Note_on_c, 3, 48, 0
5, 27789, Note_on_c, 3, 60, 0
5, 27969, Note_on_c, 3, 60, 90
5, 27969, Note_on_c, 3, 48, 90
5, 28029, Note_on_c, 3, 48, 0
5, 28029, Note_on_c, 3, 60, 0
5, 28209, Note_on_c, 3, 48, 90
5, 28209, Note_on_c, 3, 60, 90
5, 28269, Note_on_c, 3, 60, 0
5, 28269, Note_on_c, 3, 48, 0
5, 28449, Control_c, 3, 11, 77
5, 28449, Note_on_c, 3, 48, 90
5, 28449, Note_on_c, 3, 55, 90
5, 28554, Note_on_c, 3, 55, 0
5, 28554, Note_on_c, 3, 48, 0
5, 28569, Control_c, 3, 11, 77
5, 28569, Note_on_c, 3, 55, 90
5, 28569, Note_on_c, 3, 48, 90
5, 28581, Control_c, 3, 11, 74
5, 28593, Control_c, 3, 11, 71
5, 28605, Control_c, 3, 11, 68
5, 28617, Control_c, 3, 11, 65
5, 28629, Control_c, 3, 11, 62
5, 28641, Control_c, 3, 11, 59
5, 28653, Control_c, 3, 11, 56
5, 28665, Control_c, 3, 11, 53
5, 28677, Control_c, 3, 11, 50
5, 28689, Control_c, 3, 11, 47
5, 29154, Note_on_c, 3, 48, 0
5, 29154, Note_on_c, 3, 55, 0
5, 29169, Note_on_c, 3, 57, 90
5, 29169, Note_on_c, 3, 48, 90
5, 29394, Note_on_c, 3, 48, 0
5, 29394, Note_on_c, 3, 57, 0
5, 29409, Control_c, 3, 11, 77
5, 29409, Note_on_c, 3, 55, 90
5, 29409, Note_on_c, 3, 48, 90
5, 29514, Note_on_c, 3, 48, 0
5, 29514, Note_on_c, 3, 55, 0
5, 29529, Control_c, 3, 11, 77
5, 29529, Note_on_c, 3, 48, 90
5, 29529, Note_on_c, 3, 55, 90
5, 29541, Control_c, 3, 11, 74
5, 29553, Control_c, 3, 11, 71
5, 29565, Control_c, 3, 11, 68
5, 29577, Control_c, 3, 11, 65
5, 29589, Control_c, 3, 11, 62
5, 29601, Control_c, 3, 11, 59
5, 29613, Control_c, 3, 11, 56
5, 29625, Control_c, 3, 11, 53
5, 29637, Control_c, 3, 11, 50
5, 29649, Control_c, 3, 11, 47
5, 30114, Note_on_c, 3, 55, 0
5, 30114, Note_on_c, 3, 48, 0
5, 30129, Note_on_c, 3, 48, 90
5, 30129, Note_on_c, 3, 57, 90
5, 30354, Note_on_c, 3, 57, 0
5, 30354, Note_on_c, 3, 48, 0
5, 30369, Control_c, 3, 11, 77
5, 30369, Note_on_c, 3, 55, 90
5, 30369, Note_on_c, 3, 48, 90
5, 30474, Note_on_c, 3, 48, 0
5, 30474, Note_on_c, 3, 55, 0
5, 30489, Control_c, 3, 11, 77
5, 30489, Note_on_c, 3, 55, 90
5, 30489, Note_on_c, 3, 48, 90
5, 30501, Control_c, 3, 11, 74
5, 30513, Control_c, 3, 11, 71
5, 30525, Control_c, 3, 11, 68
5, 30537, Control_c, 3, 11, 65
5, 30549, Control_c, 3, 11, 62
5, 30561, Control_c, 3, 11, 59
5, 30573, Control_c, 3, 11, 56
5, 30585, Control_c, 3, 11, 53
5, 30597, Control_c, 3, 11, 50
5, 30609, Control_c, 3, 11, 47
5, 30834, Note_on_c, 3, 48, 0
5, 30834, Note_on_c, 3, 55, 0
5, 30849, Note_on_c, 3, 52, 90
5, 30849, Note_on_c, 3, 55, 90
5, 30954, Note_on_c, 3, 55, 0
5, 30954, Note_on_c, 3, 52, 0
5, 30969, Control_c, 3, 11, 47
5, 30969, Note_on_c, 3, 52, 90
5, 30969, Note_on_c, 3, 55, 90
5, 31014, Control_c, 3, 11, 48
5, 31059, Control_c, 3, 11, 49
5, 31104, Control_c, 3, 11, 50
5, 31149, Control_c, 3, 11, 51
5, 31194, Control_c, 3, 11, 52
5, 31239, Control_c, 3, 11, 53
5, 31284, Control_c, 3, 11, 54
5, 31314, Note_on_c, 3, 55, 0
5, 31314, Note_on_c, 3, 52, 0
5, 31329, Control_c, 3, 11, 55
5, 31329, Note_on_c, 3, 57, 90
5, 31329, Note_on_c, 3, 53, 90
5, 31374, Control_c, 3, 11, 56
5, 31419, Control_c, 3, 11, 57
5, 31434, Note_on_c, 3, 53, 0
5, 31434, Note_on_c, 3, 57, 0
5, 31449, Note_on_c, 3, 53, 90
5, 31449, Note_on_c, 3, 57, 90
5, 31464, Control_c, 3, 11, 58
5, 31509, Control_c, 3, 11, 59
5, 31554, Control_c, 3, 11, 60
5, 31599, Control_c, 3, 11, 61
5, 31644, Control_c, 3, 11, 62
5, 31689, Control_c, 3, 11, 63
5, 31734, Control_c, 3, 11, 64
5, 31779, Control_c, 3, 11, 65
5, 31794, Note_on_c, 3, 57, 0
5, 31794, Note_on_c, 3, 53, 0
5, 31809, Note_on_c, 3, 55, 90
5, 31809, Note_on_c, 3, 59, 90
5, 31824, Control_c, 3, 11, 66
5, 31869, Control_c, 3, 11, 67
5, 31914, Note_on_c, 3, 59, 0
5, 31914, Note_on_c, 3, 55, 0
5, 31914, Control_c, 3, 11, 68
5, 31929, Note_on_c, 3, 55, 90
5, 31929, Note_on_c, 3, 59, 90
5, 31959, Control_c, 3, 11, 69
5, 32004, Control_c, 3, 11, 70
5, 32049, Control_c, 3, 11, 71
5, 32094, Control_c, 3, 11, 72
5, 32139, Control_c, 3, 11, 73
5, 32184, Control_c, 3, 11, 74
5, 32229, Control_c, 3, 11, 75
5, 32274, Note_on_c, 3, 59, 0
5, 32274, Note_on_c, 3, 55, 0
5, 32274, Control_c, 3, 11, 76
5, 32289, Note_on_c, 3, 60, 90
5, 32289, Note_on_c, 3, 57, 90
5, 32319, Control_c, 3, 11, 77
5, 32364, Control_c, 3, 11, 78
5, 32394, Note_on_c, 3, 57, 0
5, 32394, Note_on_c, 3, 60, 0
5, 32409, Control_c, 3, 11, 79
5, 32409, Note_on_c, 3, 57, 90
5, 32409, Note_on_c, 3, 60, 90
5, 32454, Control_c, 3, 11, 80
5, 32499, Control_c, 3, 11, 81
5, 32544, Control_c, 3, 11, 82
5, 32589, Control_c, 3, 11, 83
5, 32634, Control_c, 3, 11, 84
5, 32679, Control_c, 3, 11, 85
5, 32724, Control_c, 3, 11, 86
5, 32754, Note_on_c, 3, 60, 0
5, 32754, Note_on_c, 3, 57, 0
5, 32769, Control_c, 3, 11, 87
5, 32769, Note_on_c, 3, 55, 90
5, 32769, Note_on_c, 3, 52, 90
5, 32874, Note_on_c, 3, 52, 0
5, 32874, Note_on_c, 3, 55, 0
5, 32889, Note_on_c, 3, 55, 90
5, 32889, Note_on_c, 3, 52, 90
5, 33234, Note_on_c, 3, 52, 0
5, 33234, Note_on_c, 3, 55, 0
5, 33249, Note_on_c, 3, 53, 90
5, 33249, Note_on_c, 3, 57, 90
5, 33354, Note_on_c, 3, 57, 0
5, 33354, Note_on_c, 3, 53, 0
5, 33369, Note_on_c, 3, 53, 90
5, 33369, Note_on_c, 3, 57, 90
5, 33714, Note_on_c, 3, 57, 0
5, 33714, Note_on_c, 3, 53, 0
5, 33729, Control_c, 3, 11, 95
5, 33729, Note_on_c, 3, 53, 90
5, 33729, Note_on_c, 3, 57, 90
5, 33834, Note_on_c, 3, 57, 0
5, 33834, Note_on_c, 3, 53, 0
5, 33849, Note_on_c, 3, 57, 90
5, 33849, Note_on_c, 3, 53, 90
5, 34194, Note_on_c, 3, 53, 0
5, 34194, Note_on_c, 3, 57, 0
5, 34209, Note_on_c, 3, 57, 90
5, 34209, Note_on_c, 3, 54, 90
5, 34314, Note_on_c, 3, 54, 0
5, 34314, Note_on_c, 3, 57, 0
5, 34329, Note_on_c, 3, 54, 90
5, 34329, Note_on_c, 3, 57, 90
5, 34674, Note_on_c, 3, 57, 0
5, 34674, Note_on_c, 3, 54, 0
5, 34689, Note_on_c, 3, 57, 90
5, 34689, Note_on_c, 3, 54, 90
5, 34794, Note_on_c, 3, 54, 0
5, 34794, Note_on_c, 3, 57, 0
5, 34809, Note_on_c, 3, 57, 90
5, 34809, Note_on_c, 3, 54, 90
5, 35034, Note_on_c, 3, 54, 0
5, 35034, Note_on_c, 3, 57, 0
5, 35049, Note_on_c, 3, 55, 90
5, 35049, Note_on_c, 3, 59, 90
5, 35169, Note_on_c, 3, 59, 0
5, 35169, Note_on_c, 3, 55, 0
5, 37689, Control_c, 3, 11, 57
5, 37689, Note_on_c, 3, 65, 90
5, 37714, Control_c, 3, 11, 58
5, 37739, Control_c, 3, 11, 59
5, 37765, Control_c, 3, 11, 60
5, 37790, Control_c, 3, 11, 61
5, 37815, Control_c, 3, 11, 62
5, 37841, Control_c, 3, 11, 63
5, 37866, Control_c, 3, 11, 64
5, 37891, Control_c, 3, 11, 65
5, 37917, Control_c, 3, 11, 66
5, 37929, Note_on_c, 3, 65, 0
5, 37929, Note_on_c, 3, 64, 95
5, 37942, Control_c, 3, 11, 67
5, 37967, Control_c, 3, 11, 68
5, 37993, Control_c, 3, 11, 69
5, 38018, Control_c, 3, 11, 70
5, 38043, Control_c, 3, 11, 71
5, 38069, Control_c, 3, 11, 72
5, 38094, Control_c, 3, 11, 73
5, 38119, Control_c, 3, 11, 74
5, 38145, Control_c, 3, 11, 75
5, 38169, Note_on_c, 3, 64, 0
5, 38169, Note_on_c, 3, 62, 100
5, 38170, Control_c, 3, 11, 76
5, 38195, Control_c, 3, 11, 77
5, 38221, Control_c, 3, 11, 78
5, 38246, Control_c, 3, 11, 79
5, 38271, Control_c, 3, 11, 80
5, 38297, Control_c, 3, 11, 81
5, 38322, Control_c, 3, 11, 82
5, 38347, Control_c, 3, 11, 83
5, 38373, Control_c, 3, 11, 84
5, 38398, Control_c, 3, 11, 85
5, 38409, Note_on_c, 3, 62, 0
5, 38409, Note_on_c, 3, 60, 105
5, 38423, Control_c, 3, 11, 86
5, 38449, Control_c, 3, 11, 87
5, 38474, Control_c, 3, 11, 88
5, 38499, Control_c, 3, 11, 89
5, 38525, Control_c, 3, 11, 90
5, 38550, Control_c, 3, 11, 91
5, 38575, Control_c, 3, 11, 92
5, 38601, Control_c, 3, 11, 93
5, 38626, Control_c, 3, 11, 94
5, 38649, Note_on_c, 3, 60, 0
5, 38649, Note_on_c, 3, 59, 110
5, 38651, Control_c, 3, 11, 95
5, 38677, Control_c, 3, 11, 96
5, 38702, Control_c, 3, 11, 97
5, 38727, Control_c, 3, 11, 98
5, 38753, Control_c, 3, 11, 99
5, 38769, Note_on_c, 3, 59, 0
5, 38778, Control_c, 3, 11, 100
5, 38803, Control_c, 3, 11, 101
5, 38829, Control_c, 3, 11, 102
5, 38829, Note_on_c, 3, 64, 90
5, 38829, Note_on_c, 3, 60, 90
5, 38889, Note_on_c, 3, 60, 0
5, 38889, Note_on_c, 3, 64, 0
5, 38889, Note_on_c, 3, 60, 90
5, 38889, Note_on_c, 3, 55, 90
5, 39009, Note_on_c, 3, 55, 0
5, 39009, Note_on_c, 3, 60, 0
5, 39069, Note_on_c, 3, 55, 90
5, 39069, Note_on_c, 3, 60, 90
5, 39129, Note_on_c, 3, 60, 0
5, 39129, Note_on_c, 3, 55, 0
5, 39129, Note_on_c, 3, 52, 90
5, 39129, Note_on_c, 3, 55, 90
5, 39249, Note_on_c, 3, 55, 0
5, 39249, Note_on_c, 3, 52, 0
5, 39309, Note_on_c, 3, 55, 90
5, 39309, Note_on_c, 3, 52, 90
5, 39369, Note_on_c, 3, 52, 0
5, 39369, Note_on_c, 3, 55, 0
5, 39369, Note_on_c, 3, 55, 90
5, 39369, Note_on_c, 3, 64, 90
5, 39489, Note_on_c, 3, 64, 0
5, 39489, Note_on_c, 3, 55, 0
5, 39489, Note_on_c, 3, 64, 90
5, 39489, Note_on_c, 3, 55, 90
5, 39609, Note_on_c, 3, 55, 0
5, 39609, Note_on_c, 3, 64, 0
5, 39609, Note_on_c, 3, 64, 90
5, 39609, Note_on_c, 3, 55, 90
5, 40209, Note_on_c, 3, 55, 0
5, 40209, Note_on_c, 3, 64, 0
5, 40209, Note_on_c, 3, 65, 90
5, 40209, Note_on_c, 3, 57, 90
5, 40329, Note_on_c, 3, 57, 0
5, 40329, Note_on_c, 3, 65, 0
5, 40329, Note_on_c, 3, 55, 90
5, 40329, Note_on_c, 3, 64, 90
5, 40449, Note_on_c, 3, 64, 0
5, 40449, Note_on_c, 3, 55, 0
5, 40449, Note_on_c, 3, 64, 90
5, 40449, Note_on_c, 3, 55, 90
5, 40569, Note_on_c, 3, 55, 0
5, 40569, Note_on_c, 3, 64, 0
5, 40569, Note_on_c, 3, 64, 90
5, 40569, Note_on_c, 3, 55, 90
5, 41169, Note_on_c, 3, 55, 0
5, 41169, Note_on_c, 3, 64, 0
5, 41169, Note_on_c, 3, 57, 90
5, 41169, Note_on_c, 3, 65, 90
5, 41289, Note_on_c, 3, 65, 0
5, 41289, Note_on_c, 3, 57, 0
5, 41289, Note_on_c, 3, 64, 90
5, 41289, Note_on_c, 3, 55, 90
5, 41409, Note_on_c, 3, 55, 0
5, 41409, Note_on_c, 3, 64, 0
5, 41649, Note_on_c, 3, 64, 90
5, 41649, Note_on_c, 3, 55, 90
5, 41769, Note_on_c, 3, 55, 0
5, 41769, Note_on_c, 3, 64, 0
5, 41769, Note_on_c, 3, 55, 90
5, 41769, Note_on_c, 3, 52, 90
5, 41889, Note_on_c, 3, 52, 0
5, 41889, Note_on_c, 3, 55, 0
5, 42129, Note_on_c, 3, 52, 90
5, 42129, Note_on_c, 3, 55, 90
5, 42249, Note_on_c, 3, 55, 0
5, 42249, Note_on_c, 3, 52, 0
5, 42249, Note_on_c, 3, 53, 90
5, 42249, Note_on_c, 3, 57, 90
5, 42369, Note_on_c, 3, 57, 0
5, 42369, Note_on_c, 3, 53, 0
5, 42609, Note_on_c, 3, 57, 90
5, 42609, Note_on_c, 3, 53, 90
5, 42729, Note_on_c, 3, 53, 0
5, 42729, Note_on_c, 3, 57, 0
5, 42729, Note_on_c, 3, 59, 90
5, 42729, Note_on_c, 3, 55, 90
5, 42849, Note_on_c, 3, 55, 0
5, 42849, Note_on_c, 3, 59, 0
5, 43089, Note_on_c, 3, 55, 90
5, 43089, Note_on_c, 3, 59, 90
5, 43209, Note_on_c, 3, 59, 0
5, 43209, Note_on_c, 3, 55, 0
5, 43209, Note_on_c, 3, 60, 90
5, 43209, Note_on_c, 3, 57, 90
5, 43329, Note_on_c, 3, 57, 0
5, 43329, Note_on_c, 3, 60, 0
5, 43569, Note_on_c, 3, 57, 90
5, 43569, Note_on_c, 3, 60, 90
5, 43689, Note_on_c, 3, 60, 0
5, 43689, Note_on_c, 3, 57, 0
5, 43689, Note_on_c, 3, 52, 90
5, 43689, Note_on_c, 3, 55, 90
5, 43809, Note_on_c, 3, 55, 0
5, 43809, Note_on_c, 3, 52, 0
5, 44049, Note_on_c, 3, 55, 90
5, 44049, Note_on_c, 3, 52, 90
5, 44169, Note_on_c, 3, 52, 0
5, 44169, Note_on_c, 3, 55, 0
5, 44169, Note_on_c, 3, 53, 90
5, 44169, Note_on_c, 3, 57, 90
5, 44289, Note_on_c, 3, 57, 0
5, 44289, Note_on_c, 3, 53, 0
5, 44529, Note_on_c, 3, 57, 90
5, 44529, Note_on_c, 3, 53, 90
5, 44649, Note_on_c, 3, 53, 0
5, 44649, Note_on_c, 3, 57, 0
5, 44649, Note_on_c, 3, 57, 90
5, 44649, Note_on_c, 3, 53, 90
5, 44769, Note_on_c, 3, 53, 0
5, 44769, Note_on_c, 3, 57, 0
5, 45009, Note_on_c, 3, 57, 90
5, 45009, Note_on_c, 3, 53, 90
5, 45129, Note_on_c, 3, 53, 0
5, 45129, Note_on_c, 3, 57, 0
5, 45129, Note_on_c, 3, 57, 90
5, 45129, Note_on_c, 3, 54, 90
5, 45249, Note_on_c, 3, 54, 0
5, 45249, Note_on_c, 3, 57, 0
5, 45489, Note_on_c, 3, 57, 90
5, 45489, Note_on_c, 3, 54, 90
5, 45609, Note_on_c, 3, 54, 0
5, 45609, Note_on_c, 3, 57, 0
5, 45609, Note_on_c, 3, 54, 90
5, 45609, Note_on_c, 3, 57, 90
5, 45729, Note_on_c, 3, 57, 0
5, 45729, Note_on_c, 3, 54, 0
5, 45969, Note_on_c, 3, 57, 90
5, 45969, Note_on_c, 3, 54, 90
5, 46089, Note_on_c, 3, 54, 0
5, 46089, Note_on_c, 3, 57, 0
5, 46089, Note_on_c, 3, 54, 90
5, 46089, Note_on_c, 3, 57, 90
5, 46209, Note_on_c, 3, 57, 0
5, 46209, Note_on_c, 3, 54, 0
5, 47049, Control_c, 3, 11, 42
5, 47049, Note_on_c, 3, 57, 90
5, 47065, Control_c, 3, 11, 44
5, 47081, Control_c, 3, 11, 46
5, 47097, Control_c, 3, 11, 48
5, 47113, Control_c, 3, 11, 50
5, 47129, Control_c, 3, 11, 52
5, 47145, Control_c, 3, 11, 54
5, 47161, Control_c, 3, 11, 56
5, 47879, Note_on_c, 3, 57, 0
5, 47889, Note_on_c, 3, 55, 90
5, 47929, Note_on_c, 3, 55, 0
5, 47929, Note_on_c, 3, 54, 90
5, 47969, Note_on_c, 3, 54, 0
5, 47969, Note_on_c, 3, 52, 90
5, 48009, Note_on_c, 3, 52, 0
5, 48009, Note_on_c, 3, 50, 90
5, 48119, Note_on_c, 3, 50, 0
5, 48969, Control_c, 3, 11, 72
5, 48969, Note_on_c, 3, 60, 90
5, 49001, Control_c, 3, 11, 71
5, 49033, Control_c, 3, 11, 70
5, 49065, Control_c, 3, 11, 69
5, 49097, Control_c, 3, 11, 68
5, 49129, Control_c, 3, 11, 67
5, 49161, Control_c, 3, 11, 66
5, 49193, Control_c, 3, 11, 65
5, 49225, Control_c, 3, 11, 64
5, 49257, Control_c, 3, 11, 63
5, 49289, Control_c, 3, 11, 62
5, 49321, Control_c, 3, 11, 61
5, 49353, Control_c, 3, 11, 60
5, 49385, Control_c, 3, 11, 59
5, 49417, Control_c, 3, 11, 58
5, 49449, Control_c, 3, 11, 57
5, 49799, Note_on_c, 3, 60, 0
5, 49809, Note_on_c, 3, 59, 90
5, 49849, Note_on_c, 3, 59, 0
5, 49849, Note_on_c, 3, 57, 90
5, 49889, Note_on_c, 3, 57, 0
5, 49889, Note_on_c, 3, 55, 90
5, 49929, Note_on_c, 3, 55, 0
5, 49929, Note_on_c, 3, 54, 90
5, 50049, Note_on_c, 3, 54, 0
5, 50049, Control_c, 3, 11, 57
5, 50049, Note_on_c, 3, 57, 90
5, 50289, Note_on_c, 3, 57, 0
5, 50289, Note_on_c, 3, 58, 90
5, 50529, Note_on_c, 3, 58, 0
5, 50529, Note_on_c, 3, 60, 90
5, 50769, Note_on_c, 3, 60, 0
5, 50769, Note_on_c, 3, 62, 90
5, 50889, Note_on_c, 3, 62, 0
5, 50889, Control_c, 3, 11, 72
5, 50889, Note_on_c, 3, 63, 90
5, 50889, Note_on_c, 3, 54, 90
5, 50921, Control_c, 3, 11, 71
5, 50953, Control_c, 3, 11, 70
5, 50985, Control_c, 3, 11, 69
5, 51017, Control_c, 3, 11, 68
5, 51049, Control_c, 3, 11, 67
5, 51081, Control_c, 3, 11, 66
5, 51113, Control_c, 3, 11, 65
5, 51145, Control_c, 3, 11, 64
5, 51177, Control_c, 3, 11, 63
5, 51209, Control_c, 3, 11, 62
5, 51241, Control_c, 3, 11, 61
5, 51273, Control_c, 3, 11, 60
5, 51305, Control_c, 3, 11, 59
5, 51337, Control_c, 3, 11, 58
5, 51369, Control_c, 3, 11, 57
5, 51609, Note_on_c, 3, 63, 0
5, 51609, Note_on_c, 3, 62, 90
5, 51729, Note_on_c, 3, 62, 0
5, 51729, Note_on_c, 3, 61, 90
5, 51849, Note_on_c, 3, 61, 0
5, 51849, Note_on_c, 3, 54, 0
5, 51849, Note_on_c, 3, 61, 90
5, 51849, Note_on_c, 3, 55, 90
5, 52089, Note_on_c, 3, 61, 0
5, 52089, Note_on_c, 3, 62, 90
5, 52329, Note_on_c, 3, 55, 0
5, 52329, Note_on_c, 3, 48, 90
5, 52449, Note_on_c, 3, 62, 0
5, 52449, Note_on_c, 3, 57, 90
5, 52569, Note_on_c, 3, 57, 0
5, 52569, Note_on_c, 3, 58, 90
5, 52689, Note_on_c, 3, 58, 0
5, 52689, Note_on_c, 3, 60, 90
5, 52809, Note_on_c, 3, 60, 0
5, 52809, Note_on_c, 3, 48, 0
5, 52809, Note_on_c, 3, 50, 90
5, 52809, Note_on_c, 3, 60, 90
5, 53049, Note_on_c, 3, 60, 0
5, 53049, Note_on_c, 3, 60, 58
5, 53079, Note_on_c, 3, 60, 0
5, 53079, Note_on_c, 3, 58, 58
5, 53109, Note_on_c, 3, 58, 0
5, 53109, Note_on_c, 3, 60, 58
5, 53139, Note_on_c, 3, 60, 0
5, 53139, Note_on_c, 3, 58, 58
5, 53169, Note_on_c, 3, 58, 0
5, 53169, Note_on_c, 3, 60, 58
5, 53199, Note_on_c, 3, 60, 0
5, 53199, Note_on_c, 3, 58, 58
5, 53229, Note_on_c, 3, 58, 0
5, 53229, Note_on_c, 3, 60, 58
5, 53259, Note_on_c, 3, 60, 0
5, 53259, Note_on_c, 3, 58, 58
5, 53289, Note_on_c, 3, 58, 0
5, 53289, Note_on_c, 3, 50, 0
5, 53289, Note_on_c, 3, 57, 90
5, 53289, Note_on_c, 3, 50, 90
5, 53529, Note_on_c, 3, 50, 0
5, 53529, Note_on_c, 3, 57, 0
5, 53529, Note_on_c, 3, 60, 90
5, 53649, Note_on_c, 3, 57, 90
5, 53769, Note_on_c, 3, 57, 0
5, 53769, Note_on_c, 3, 60, 0
5, 53769, Control_c, 3, 11, 72
5, 53769, Note_on_c, 3, 54, 90
5, 53769, Note_on_c, 3, 63, 90
5, 53833, Control_c, 3, 11, 71
5, 53897, Control_c, 3, 11, 70
5, 53961, Control_c, 3, 11, 69
5, 54025, Control_c, 3, 11, 68
5, 54089, Control_c, 3, 11, 67
5, 54153, Control_c, 3, 11, 66
5, 54217, Control_c, 3, 11, 65
5, 54281, Control_c, 3, 11, 64
5, 54345, Control_c, 3, 11, 63
5, 54409, Control_c, 3, 11, 62
5, 54473, Control_c, 3, 11, 61
5, 54489, Note_on_c, 3, 63, 0
5, 54489, Note_on_c, 3, 62, 90
5, 54537, Control_c, 3, 11, 60
5, 54601, Control_c, 3, 11, 59
5, 54609, Note_on_c, 3, 62, 0
5, 54609, Note_on_c, 3, 61, 90
5, 54665, Control_c, 3, 11, 58
5, 54729, Note_on_c, 3, 61, 0
5, 54729, Note_on_c, 3, 54, 0
5, 54729, Control_c, 3, 11, 57
5, 54729, Note_on_c, 3, 55, 90
5, 54729, Note_on_c, 3, 61, 90
5, 54793, Control_c, 3, 11, 58
5, 54857, Control_c, 3, 11, 59
5, 54921, Control_c, 3, 11, 60
5, 54969, Note_on_c, 3, 61, 0
5, 54969, Note_on_c, 3, 62, 90
5, 54985, Control_c, 3, 11, 61
5, 55049, Control_c, 3, 11, 62
5, 55113, Control_c, 3, 11, 63
5, 55177, Control_c, 3, 11, 64
5, 55209, Note_on_c, 3, 55, 0
5, 55209, Note_on_c, 3, 55, 90
5, 55241, Control_c, 3, 11, 65
5, 55305, Control_c, 3, 11, 66
5, 55369, Control_c, 3, 11, 67
5, 55433, Control_c, 3, 11, 68
5, 55449, Note_on_c, 3, 62, 0
5, 55449, Note_on_c, 3, 64, 90
5, 55497, Control_c, 3, 11, 69
5, 55561, Control_c, 3, 11, 70
5, 55625, Control_c, 3, 11, 71
5, 55689, Note_on_c, 3, 55, 0
5, 55689, Control_c, 3, 11, 72
5, 55689, Note_on_c, 3, 53, 90
5, 55753, Control_c, 3, 11, 73
5, 55809, Note_on_c, 3, 64, 0
5, 55809, Note_on_c, 3, 64, 90
5, 55817, Control_c, 3, 11, 74
5, 55881, Control_c, 3, 11, 75
5, 55929, Note_on_c, 3, 64, 0
5, 55929, Note_on_c, 3, 67, 90
5, 55945, Control_c, 3, 11, 76
5, 56009, Control_c, 3, 11, 77
5, 56049, Note_on_c, 3, 67, 0
5, 56049, Note_on_c, 3, 65, 90
5, 56073, Control_c, 3, 11, 78
5, 56137, Control_c, 3, 11, 79
5, 56169, Note_on_c, 3, 65, 0
5, 56169, Note_on_c, 3, 53, 0
5, 56169, Note_on_c, 3, 53, 90
5, 56201, Control_c, 3, 11, 80
5, 56265, Control_c, 3, 11, 81
5, 56289, Note_on_c, 3, 65, 90
5, 56329, Control_c, 3, 11, 82
5, 56393, Control_c, 3, 11, 83
5, 56409, Note_on_c, 3, 65, 0
5, 56409, Note_on_c, 3, 63, 90
5, 56457, Control_c, 3, 11, 84
5, 56521, Control_c, 3, 11, 85
5, 56529, Note_on_c, 3, 63, 0
5, 56529, Note_on_c, 3, 60, 90
5, 56585, Control_c, 3, 11, 86
5, 56649, Note_on_c, 3, 60, 0
5, 56649, Note_on_c, 3, 53, 0
5, 56649, Control_c, 3, 11, 87
5, 56649, Note_on_c, 3, 46, 75
5, 56649, Note_on_c, 3, 58, 75
5, 56769, Note_on_c, 3, 58, 0
5, 56769, Note_on_c, 3, 46, 0
5, 63369, Control_c, 3, 11, 87
5, 63369, Note_on_c, 3, 57, 90
5, 63369, Note_on_c, 3, 45, 90
5, 64199, Note_on_c, 3, 45, 0
5, 64199, Note_on_c, 3, 57, 0
5, 64209, Note_on_c, 3, 57, 90
5, 64209, Note_on_c, 3, 45, 90
5, 64319, Note_on_c, 3, 45, 0
5, 64319, Note_on_c, 3, 57, 0
5, 64329, Note_on_c, 3, 59, 90
5, 64329, Note_on_c, 3, 47, 90
5, 65159, Note_on_c, 3, 47, 0
5, 65159, Note_on_c, 3, 59, 0
5, 65169, Note_on_c, 3, 47, 90
5, 65169, Note_on_c, 3, 59, 90
5, 65279, Note_on_c, 3, 59, 0
5, 65279, Note_on_c, 3, 47, 0
5, 65289, Control_c, 3, 11, 95
5, 65289, Note_on_c, 3, 48, 90
5, 65289, Note_on_c, 3, 60, 90
5, 65639, Note_on_c, 3, 60, 0
5, 65639, Note_on_c, 3, 48, 0
5, 65649, Note_on_c, 3, 60, 90
5, 65649, Note_on_c, 3, 48, 90
5, 65759, Note_on_c, 3, 48, 0
5, 65759, Note_on_c, 3, 60, 0
5, 65769, Note_on_c, 3, 62, 90
5, 65769, Note_on_c, 3, 50, 90
5, 66119, Note_on_c, 3, 50, 0
5, 66119, Note_on_c, 3, 62, 0
5, 66129, Note_on_c, 3, 62, 90
5, 66129, Note_on_c, 3, 50, 90
5, 66239, Note_on_c, 3, 50, 0
5, 66239, Note_on_c, 3, 62, 0
5, 66249, Note_on_c, 3, 64, 90
5, 66249, Note_on_c, 3, 52, 90
5, 66599, Note_on_c, 3, 52, 0
5, 66599, Note_on_c, 3, 64, 0
5, 66609, Note_on_c, 3, 52, 90
5, 66609, Note_on_c, 3, 64, 90
5, 66719, Note_on_c, 3, 64, 0
5, 66719, Note_on_c, 3, 52, 0
5, 66729, Note_on_c, 3, 59, 90
5, 66729, Note_on_c, 3, 47, 90
5, 67079, Note_on_c, 3, 47, 0
5, 67079, Note_on_c, 3, 59, 0
5, 67089, Note_on_c, 3, 59, 90
5, 67089, Note_on_c, 3, 47, 90
5, 67199, Note_on_c, 3, 47, 0
5, 67199, Note_on_c, 3, 59, 0
5, 67209, Note_on_c, 3, 48, 90
5, 67209, Note_on_c, 3, 60, 90
5, 67559, Note_on_c, 3, 60, 0
5, 67559, Note_on_c, 3, 48, 0
5, 67569, Note_on_c, 3, 60, 90
5, 67569, Note_on_c, 3, 48, 90
5, 67679, Note_on_c, 3, 48, 0
5, 67679, Note_on_c, 3, 60, 0
5, 67689, Note_on_c, 3, 45, 90
5, 67689, Note_on_c, 3, 57, 90
5, 68039, Note_on_c, 3, 57, 0
5, 68039, Note_on_c, 3, 45, 0
5, 68049, Note_on_c, 3, 57, 90
5, 68049, Note_on_c, 3, 45, 90
5, 68159, Note_on_c, 3, 45, 0
5, 68159, Note_on_c, 3, 57, 0
5, 68169, Control_c, 3, 11, 102
5, 68169, Note_on_c, 3, 55, 90
5, 68169, Note_on_c, 3, 43, 90
5, 68514, Note_on_c, 3, 55, 0
5, 68529, Note_on_c, 3, 43, 0
5, 68529, Note_on_c, 3, 55, 90
5, 68589, Note_on_c, 3, 55, 0
5, 68649, Note_on_c, 3, 54, 90
5, 68769, Note_on_c, 3, 54, 0
5, 68769, Note_on_c, 3, 55, 90
5, 68869, Note_on_c, 3, 55, 0
5, 68889, Note_on_c, 3, 50, 90
5, 68949, Note_on_c, 3, 50, 0
5, 69009, Note_on_c, 3, 52, 90
5, 69069, Note_on_c, 3, 52, 0
5, 69129, Note_on_c, 3, 52, 90
5, 69249, Note_on_c, 3, 52, 0
5, 69249, Note_on_c, 3, 50, 90
5, 69349, Note_on_c, 3, 50, 0
5, 69369, Note_on_c, 3, 55, 90
5, 69429, Note_on_c, 3, 55, 0
5, 69489, Note_on_c, 3, 55, 90
5, 69549, Note_on_c, 3, 55, 0
5, 69609, Note_on_c, 3, 54, 90
5, 69729, Note_on_c, 3, 54, 0
5, 69729, Note_on_c, 3, 55, 90
5, 69829, Note_on_c, 3, 55, 0
5, 69849, Note_on_c, 3, 50, 90
5, 69909, Note_on_c, 3, 50, 0
5, 69969, Note_on_c, 3, 52, 90
5, 70029, Note_on_c, 3, 52, 0
5, 70329, Note_on_c, 3, 52, 90
5, 70389, Note_on_c, 3, 52, 0
5, 70449, Note_on_c, 3, 50, 90
5, 70799, Note_on_c, 3, 50, 0
5, 70809, Note_on_c, 3, 48, 90
5, 70869, Note_on_c, 3, 48, 0
5, 70929, Note_on_c, 3, 47, 90
5, 71159, Note_on_c, 3, 47, 0
5, 71169, Note_on_c, 3, 45, 90
5, 71229, Note_on_c, 3, 45, 0
5, 71289, Note_on_c, 3, 43, 90
5, 71349, Note_on_c, 3, 43, 0
5, 71409, Note_on_c, 3, 54, 90
5, 71529, Note_on_c, 3, 54, 0
5, 71529, Note_on_c, 3, 52, 90
5, 71649, Note_on_c, 3, 52, 0
5, 71649, Note_on_c, 3, 50, 90
5, 71769, Note_on_c, 3, 50, 0
5, 71769, Note_on_c, 3, 48, 90
5, 71889, Note_on_c, 3, 48, 0
5, 71889, Note_on_c, 3, 47, 90
5, 72009, Note_on_c, 3, 47, 0
5, 72009, Note_on_c, 3, 48, 90
5, 72009, Note_on_c, 3, 60, 90
5, 72129, Note_on_c, 3, 60, 0
5, 72129, Note_on_c, 3, 48, 0
5, 72249, Note_on_c, 3, 48, 90
5, 72249, Note_on_c, 3, 60, 90
5, 72369, Note_on_c, 3, 60, 0
5, 72369, Note_on_c, 3, 48, 0
5, 72489, Note_on_c, 3, 48, 90
5, 72489, Note_on_c, 3, 60, 90
5, 72609, Note_on_c, 3, 60, 0
5, 72609, Note_on_c, 3, 48, 0
5, 72729, Note_on_c, 3, 48, 90
5, 72729, Note_on_c, 3, 60, 90
5, 72849, Note_on_c, 3, 60, 0
5, 72849, Note_on_c, 3, 48, 0
5, 72969, Note_on_c, 3, 48, 90
5, 72969, Note_on_c, 3, 60, 90
5, 73079, Note_on_c, 3, 60, 0
5, 73079, Note_on_c, 3, 48, 0
5, 73089, Note_on_c, 3, 60, 90
5, 73089, Note_on_c, 3, 48, 90
5, 73199, Note_on_c, 3, 48, 0
5, 73199, Note_on_c, 3, 60, 0
5, 73209, Note_on_c, 3, 60, 90
5, 73209, Note_on_c, 3, 48, 90
5, 73329, Note_on_c, 3, 48, 0
5, 73329, Note_on_c, 3, 60, 0
5, 73929, Control_c, 3, 11, 47
5, 73929, Note_on_c, 3, 62, 90
5, 74025, Note_on_c, 3, 62, 0
5, 74169, Note_on_c, 3, 61, 90
5, 74265, Note_on_c, 3, 61, 0
5, 74409, Note_on_c, 3, 64, 90
5, 74505, Note_on_c, 3, 64, 0
5, 74649, Note_on_c, 3, 60, 90
5, 74745, Note_on_c, 3, 60, 0
5, 74889, Control_c, 3, 11, 87
5, 74889, Note_on_c, 3, 60, 90
5, 74889, Note_on_c, 3, 48, 90
5, 75009, Note_on_c, 3, 48, 0
5, 75009, Note_on_c, 3, 60, 0
5, 75129, Note_on_c, 3, 60, 90
5, 75129, Note_on_c, 3, 48, 90
5, 75249, Note_on_c, 3, 48, 0
5, 75249, Note_on_c, 3, 60, 0
5, 75369, Note_on_c, 3, 48, 90
5, 75369, Note_on_c, 3, 60, 90
5, 75489, Note_on_c, 3, 60, 0
5, 75489, Note_on_c, 3, 48, 0
5, 75609, Note_on_c, 3, 60, 90
5, 75609, Note_on_c, 3, 48, 90
5, 75729, Note_on_c, 3, 48, 0
5, 75729, Note_on_c, 3, 60, 0
5, 75849, Note_on_c, 3, 48, 90
5, 75849, Note_on_c, 3, 60, 90
5, 75959, Note_on_c, 3, 60, 0
5, 75959, Note_on_c, 3, 48, 0
5, 75969, Note_on_c, 3, 60, 90
5, 75969, Note_on_c, 3, 48, 90
5, 76079, Note_on_c, 3, 48, 0
5, 76079, Note_on_c, 3, 60, 0
5, 76089, Note_on_c, 3, 60, 90
5, 76089, Note_on_c, 3, 48, 90
5, 76209, Note_on_c, 3, 48, 0
5, 76209, Note_on_c, 3, 60, 0
5, 76929, Note_on_c, 3, 61, 90
5, 76929, Note_on_c, 3, 49, 90
5, 76989, Note_on_c, 3, 49, 0
5, 76989, Note_on_c, 3, 61, 0
5, 77049, Note_on_c, 3, 61, 90
5, 77049, Note_on_c, 3, 49, 90
5, 77109, Note_on_c, 3, 49, 0
5, 77109, Note_on_c, 3, 61, 0
5, 77889, Note_on_c, 3, 62, 90
5, 77889, Note_on_c, 3, 50, 90
5, 77949, Note_on_c, 3, 50, 0
5, 77949, Note_on_c, 3, 62, 0
5, 78009, Note_on_c, 3, 50, 90
5, 78009, Note_on_c, 3, 62, 90
5, 78069, Note_on_c, 3, 62, 0
5, 78069, Note_on_c, 3, 50, 0
5, 79089, Control_c, 3, 11, 107
5, 79089, Note_on_c, 3, 54, 90
5, 79089, Note_on_c, 3, 66, 90
5, 79107, Control_c, 3, 11, 104
5, 79125, Control_c, 3, 11, 101
5, 79143, Control_c, 3, 11, 98
5, 79161, Control_c, 3, 11, 95
5, 79179, Control_c, 3, 11, 92
5, 79197, Control_c, 3, 11, 89
5, 79209, Note_on_c, 3, 66, 0
5, 79209, Note_on_c, 3, 54, 0
5, 79209, Note_on_c, 3, 67, 90
5, 79209, Note_on_c, 3, 55, 90
5, 79314, Note_on_c, 3, 55, 0
5, 79314, Note_on_c, 3, 67, 0
5, 79329, Note_on_c, 3, 61, 90
5, 79329, Note_on_c, 3, 49, 90
5, 79389, Note_on_c, 3, 49, 0
5, 79389, Note_on_c, 3, 61, 0
5, 79449, Note_on_c, 3, 62, 90
5, 79449, Note_on_c, 3, 50, 90
5, 79509, Note_on_c, 3, 50, 0
5, 79509, Note_on_c, 3, 62, 0
5, 79569, Note_on_c, 3, 46, 90
5, 79629, Note_on_c, 3, 46, 0
5, 79689, Note_on_c, 3, 47, 90
5, 79749, Note_on_c, 3, 47, 0
5, 79809, Note_on_c, 3, 46, 90
5, 79869, Note_on_c, 3, 46, 0
5, 79929, Note_on_c, 3, 47, 90
5, 79989, Note_on_c, 3, 47, 0
5, 80049, Note_on_c, 3, 48, 90
5, 80109, Note_on_c, 3, 48, 0
5, 80169, Note_on_c, 3, 49, 90
5, 80229, Note_on_c, 3, 49, 0
5, 80289, Note_on_c, 3, 50, 90
5, 80349, Note_on_c, 3, 50, 0
5, 80409, Note_on_c, 3, 51, 90
5, 80469, Note_on_c, 3, 51, 0
5, 80529, Note_on_c, 3, 52, 90
5, 80589, Note_on_c, 3, 52, 0
5, 80649, Note_on_c, 3, 53, 90
5, 80709, Note_on_c, 3, 53, 0
5, 80769, Note_on_c, 3, 54, 90
5, 80829, Note_on_c, 3, 54, 0
5, 80889, Note_on_c, 3, 55, 90
5, 80949, Note_on_c, 3, 55, 0
5, 81009, Note_on_c, 3, 49, 90
5, 81069, Note_on_c, 3, 49, 0
5, 81129, Note_on_c, 3, 50, 90
5, 81189, Note_on_c, 3, 50, 0
5, 81249, Note_on_c, 3, 49, 90
5, 81309, Note_on_c, 3, 49, 0
5, 81369, Note_on_c, 3, 50, 90
5, 81429, Note_on_c, 3, 50, 0
5, 81489, Note_on_c, 3, 50, 90
5, 81549, Note_on_c, 3, 50, 0
5, 81609, Note_on_c, 3, 43, 90
5, 81729, Note_on_c, 3, 43, 0
5, 81969, Control_c, 3, 11, 47
5, 81969, Note_on_c, 3, 67, 90
5, 82089, Note_on_c, 3, 67, 0
5, 82089, Note_on_c, 3, 66, 90
5, 82209, Note_on_c, 3, 66, 0
5, 82209, Note_on_c, 3, 67, 90
5, 82329, Note_on_c, 3, 67, 0
5, 82329, Note_on_c, 3, 62, 90
5, 82449, Note_on_c, 3, 62, 0
5, 82449, Note_on_c, 3, 64, 90
5, 82559, Note_on_c, 3, 64, 0
5, 82569, Note_on_c, 3, 64, 90
5, 82689, Note_on_c, 3, 64, 0
5, 82689, Note_on_c, 3, 62, 90
5, 82809, Note_on_c, 3, 62, 0
5, 82929, Note_on_c, 3, 62, 90
5, 82989, Note_on_c, 3, 62, 0
5, 83049, Note_on_c, 3, 60, 90
5, 83169, Note_on_c, 3, 60, 0
5, 83169, Note_on_c, 3, 59, 90
5, 83289, Note_on_c, 3, 59, 0
5, 83409, Control_c, 3, 11, 54
5, 83409, Note_on_c, 3, 59, 90
5, 83469, Note_on_c, 3, 59, 0
5, 83501, Control_c, 3, 11, 53
5, 83529, Note_on_c, 3, 57, 90
5, 83594, Control_c, 3, 11, 52
5, 83649, Note_on_c, 3, 57, 0
5, 83649, Note_on_c, 3, 55, 90
5, 83687, Control_c, 3, 11, 51
5, 83779, Control_c, 3, 11, 50
5, 83872, Control_c, 3, 11, 49
5, 83965, Control_c, 3, 11, 48
5, 84058, Control_c, 3, 11, 47
5, 84150, Control_c, 3, 11, 46
5, 84243, Control_c, 3, 11, 45
5, 84336, Control_c, 3, 11, 44
5, 84429, Control_c, 3, 11, 43
5, 84521, Control_c, 3, 11, 42
5, 84614, Control_c, 3, 11, 41
5, 84707, Control_c, 3, 11, 40
5, 84799, Control_c, 3, 11, 39
5, 84892, Control_c, 3, 11, 38
5, 84985, Control_c, 3, 11, 37
5, 85078, Control_c, 3, 11, 36
5, 85170, Control_c, 3, 11, 35
5, 85263, Control_c, 3, 11, 34
5, 85356, Control_c, 3, 11, 33
5, 85449, Note_on_c, 3, 55, 0
5, 85449, Control_c, 3, 11, 32
5, 85449, Note_on_c, 3, 55, 90
5, 85849, Control_c, 3, 11, 32
5, 85862, Control_c, 3, 11, 29
5, 85876, Control_c, 3, 11, 26
5, 85889, Control_c, 3, 11, 23
5, 85894, Note_on_c, 3, 55, 0
5, 87009, Control_c, 3, 11, 32
5, 87009, Note_on_c, 3, 67, 90
5, 87009, Note_on_c, 3, 58, 90
5, 87013, Control_c, 3, 11, 35
5, 87018, Control_c, 3, 11, 38
5, 87022, Control_c, 3, 11, 41
5, 87027, Control_c, 3, 11, 44
5, 87031, Control_c, 3, 11, 47
5, 87036, Control_c, 3, 11, 50
5, 87129, Note_on_c, 3, 58, 0
5, 87129, Note_on_c, 3, 67, 0
5, 87129, Note_on_c, 3, 65, 90
5, 87129, Note_on_c, 3, 56, 90
5, 87249, Note_on_c, 3, 56, 0
5, 87249, Note_on_c, 3, 65, 0
5, 87249, Note_on_c, 3, 63, 90
5, 87249, Note_on_c, 3, 55, 90
5, 87424, Note_on_c, 3, 55, 0
5, 87424, Note_on_c, 3, 63, 0
5, 87429, Note_on_c, 3, 55, 90
5, 87429, Note_on_c, 3, 63, 90
5, 87489, Note_on_c, 3, 63, 0
5, 87489, Note_on_c, 3, 55, 0
5, 87489, Note_on_c, 3, 68, 90
5, 87489, Note_on_c, 3, 60, 90
5, 87579, Note_on_c, 3, 60, 0
5, 87579, Note_on_c, 3, 68, 0
5, 87579, Note_on_c, 3, 58, 90
5, 87579, Note_on_c, 3, 67, 90
5, 87604, Note_on_c, 3, 67, 0
5, 87604, Note_on_c, 3, 58, 0
5, 87609, Control_c, 3, 11, 52
5, 87609, Note_on_c, 3, 67, 90
5, 87609, Note_on_c, 3, 57, 90
5, 87629, Control_c, 3, 11, 55
5, 87650, Control_c, 3, 11, 58
5, 87670, Control_c, 3, 11, 61
5, 87691, Control_c, 3, 11, 64
5, 87711, Control_c, 3, 11, 67
5, 87729, Note_on_c, 3, 67, 0
5, 87729, Note_on_c, 3, 66, 90
5, 87732, Control_c, 3, 11, 70
5, 87753, Control_c, 3, 11, 73
5, 87773, Control_c, 3, 11, 76
5, 87784, Note_on_c, 3, 57, 0
5, 87789, Note_on_c, 3, 51, 90
5, 87794, Control_c, 3, 11, 79
5, 87814, Control_c, 3, 11, 82
5, 87835, Control_c, 3, 11, 85
5, 87844, Note_on_c, 3, 51, 0
5, 87844, Note_on_c, 3, 66, 0
5, 87849, Control_c, 3, 11, 100
5, 87849, Note_on_c, 3, 62, 90
5, 87849, Note_on_c, 3, 50, 90
5, 87855, Control_c, 3, 11, 97
5, 87862, Control_c, 3, 11, 94
5, 87869, Control_c, 3, 11, 91
5, 87876, Control_c, 3, 11, 88
5, 87890, Control_c, 3, 11, 85
5, 87908, Control_c, 3, 11, 82
5, 87926, Control_c, 3, 11, 79
5, 87944, Control_c, 3, 11, 76
5, 87962, Control_c, 3, 11, 73
5, 87984, Control_c, 3, 11, 71
5, 87999, Control_c, 3, 11, 70
5, 88014, Control_c, 3, 11, 69
5, 88029, Control_c, 3, 11, 68
5, 88044, Control_c, 3, 11, 67
5, 88059, Control_c, 3, 11, 66
5, 88074, Control_c, 3, 11, 65
5, 88089, Control_c, 3, 11, 64
5, 88104, Control_c, 3, 11, 63
5, 88119, Control_c, 3, 11, 62
5, 88134, Control_c, 3, 11, 61
5, 88149, Control_c, 3, 11, 60
5, 88164, Control_c, 3, 11, 59
5, 88179, Control_c, 3, 11, 58
5, 88194, Control_c, 3, 11, 57
5, 88209, Control_c, 3, 11, 56
5, 88224, Control_c, 3, 11, 55
5, 88239, Control_c, 3, 11, 54
5, 88254, Control_c, 3, 11, 53
5, 88264, Note_on_c, 3, 50, 0
5, 88264, Note_on_c, 3, 62, 0
5, 88269, Control_c, 3, 11, 52
5, 88269, Note_on_c, 3, 50, 90
5, 88269, Note_on_c, 3, 62, 90
5, 88324, Note_on_c, 3, 62, 0
5, 88324, Note_on_c, 3, 50, 0
5, 88329, Note_on_c, 3, 63, 90
5, 88329, Note_on_c, 3, 51, 90
5, 88384, Note_on_c, 3, 51, 0
5, 88384, Note_on_c, 3, 63, 0
5, 88389, Note_on_c, 3, 56, 90
5, 88389, Note_on_c, 3, 44, 90
5, 88444, Note_on_c, 3, 44, 0
5, 88444, Note_on_c, 3, 56, 0
5, 88449, Note_on_c, 3, 58, 90
5, 88449, Note_on_c, 3, 46, 90
5, 88564, Note_on_c, 3, 46, 0
5, 88564, Note_on_c, 3, 58, 0
5, 88569, Note_on_c, 3, 46, 90
5, 88684, Note_on_c, 3, 46, 0
5, 88689, Note_on_c, 3, 51, 90
5, 88744, Note_on_c, 3, 51, 0
5, 88749, Control_c, 3, 11, 52
5, 88749, Note_on_c, 3, 63, 90
5, 88749, Note_on_c, 3, 60, 90
5, 88773, Control_c, 3, 11, 54
5, 88794, Note_on_c, 3, 60, 0
5, 88794, Note_on_c, 3, 63, 0
5, 88797, Control_c, 3, 11, 56
5, 88809, Note_on_c, 3, 58, 90
5, 88809, Note_on_c, 3, 62, 90
5, 88821, Control_c, 3, 11, 58
5, 88845, Control_c, 3, 11, 60
5, 88854, Note_on_c, 3, 62, 0
5, 88854, Note_on_c, 3, 58, 0
5, 88869, Control_c, 3, 11, 62
5, 88869, Note_on_c, 3, 60, 90
5, 88869, Note_on_c, 3, 56, 90
5, 88893, Control_c, 3, 11, 64
5, 88914, Note_on_c, 3, 56, 0
5, 88914, Note_on_c, 3, 60, 0
5, 88917, Control_c, 3, 11, 66
5, 88929, Note_on_c, 3, 55, 90
5, 88929, Note_on_c, 3, 58, 90
5, 88941, Control_c, 3, 11, 68
5, 88965, Control_c, 3, 11, 70
5, 88989, Note_on_c, 3, 58, 0
5, 88989, Note_on_c, 3, 55, 0
5, 88989, Control_c, 3, 11, 52
5, 88989, Note_on_c, 3, 53, 90
5, 88989, Note_on_c, 3, 56, 90
5, 89044, Note_on_c, 3, 56, 0
5, 89044, Note_on_c, 3, 53, 0
5, 89049, Note_on_c, 3, 51, 65
5, 89049, Note_on_c, 3, 55, 65
5, 89089, Control_c, 3, 11, 52
5, 89091, Control_c, 3, 11, 49
5, 89094, Control_c, 3, 11, 46
5, 89097, Control_c, 3, 11, 43
5, 89100, Control_c, 3, 11, 40
5, 89103, Control_c, 3, 11, 37
5, 89106, Control_c, 3, 11, 34
5, 89109, Note_on_c, 3, 55, 0
5, 89109, Note_on_c, 3, 51, 0
5, 89889, Control_c, 3, 11, 72
5, 89889, Note_on_c, 3, 63, 90
5, 89908, Control_c, 3, 11, 70
5, 89927, Control_c, 3, 11, 68
5, 89946, Control_c, 3, 11, 66
5, 89965, Control_c, 3, 11, 64
5, 89985, Control_c, 3, 11, 62
5, 90004, Control_c, 3, 11, 60
5, 90009, Note_on_c, 3, 63, 0
5, 90009, Note_on_c, 3, 62, 90
5, 90023, Control_c, 3, 11, 58
5, 90042, Control_c, 3, 11, 56
5, 90061, Control_c, 3, 11, 54
5, 90081, Control_c, 3, 11, 52
5, 90100, Control_c, 3, 11, 50
5, 90119, Control_c, 3, 11, 48
5, 90129, Note_on_c, 3, 62, 0
5, 90875, Note_on_c, 3, 67, 90
5, 90875, Note_on_c, 3, 64, 90
5, 90879, Control_c, 3, 11, 52
5, 90903, Control_c, 3, 11, 54
5, 90905, Note_on_c, 3, 64, 0
5, 90905, Note_on_c, 3, 67, 0
5, 90927, Control_c, 3, 11, 56
5, 90935, Note_on_c, 3, 64, 90
5, 90935, Note_on_c, 3, 67, 90
5, 90951, Control_c, 3, 11, 58
5, 90965, Note_on_c, 3, 67, 0
5, 90965, Note_on_c, 3, 64, 0
5, 90975, Control_c, 3, 11, 60
5, 90995, Note_on_c, 3, 67, 90
5, 90995, Note_on_c, 3, 64, 90
5, 90999, Control_c, 3, 11, 62
5, 91023, Control_c, 3, 11, 64
5, 91025, Note_on_c, 3, 64, 0
5, 91025, Note_on_c, 3, 67, 0
5, 91047, Control_c, 3, 11, 66
5, 91055, Note_on_c, 3, 64, 90
5, 91055, Note_on_c, 3, 67, 90
5, 91071, Control_c, 3, 11, 68
5, 91085, Note_on_c, 3, 67, 0
5, 91085, Note_on_c, 3, 64, 0
5, 91095, Control_c, 3, 11, 70
5, 91115, Note_on_c, 3, 67, 90
5, 91115, Note_on_c, 3, 64, 90
5, 91119, Control_c, 3, 11, 72
5, 91143, Control_c, 3, 11, 74
5, 91145, Note_on_c, 3, 64, 0
5, 91145, Note_on_c, 3, 67, 0
5, 91167, Control_c, 3, 11, 76
5, 91175, Note_on_c, 3, 67, 90
5, 91175, Note_on_c, 3, 64, 90
5, 91200, Note_on_c, 3, 64, 0
5, 91200, Note_on_c, 3, 67, 0
5, 91205, Note_on_c, 3, 69, 90
5, 91205, Note_on_c, 3, 65, 90
5, 91209, Control_c, 3, 11, 37
5, 91212, Control_c, 3, 11, 40
5, 91215, Control_c, 3, 11, 43
5, 91218, Control_c, 3, 11, 46
5, 91221, Control_c, 3, 11, 49
5, 91224, Control_c, 3, 11, 52
5, 91265, Note_on_c, 3, 65, 0
5, 91265, Note_on_c, 3, 69, 0
5, 91565, Note_on_c, 3, 65, 85
5, 91575, Note_on_c, 3, 65, 0
5, 91580, Note_on_c, 3, 65, 91
5, 91590, Note_on_c, 3, 65, 0
5, 91595, Note_on_c, 3, 65, 98
5, 91605, Note_on_c, 3, 65, 0
5, 91610, Note_on_c, 3, 65, 105
5, 91620, Note_on_c, 3, 65, 0
5, 91625, Note_on_c, 3, 65, 112
5, 91650, Note_on_c, 3, 65, 0
5, 91655, Note_on_c, 3, 65, 85
5, 91680, Note_on_c, 3, 65, 0
5, 91700, Note_on_c, 3, 53, 85
5, 91700, Note_on_c, 3, 65, 85
5, 91710, Note_on_c, 3, 65, 0
5, 91710, Note_on_c, 3, 53, 0
5, 91715, Note_on_c, 3, 65, 94
5, 91715, Note_on_c, 3, 53, 94
5, 91725, Note_on_c, 3, 53, 0
5, 91725, Note_on_c, 3, 65, 0
5, 91730, Note_on_c, 3, 53, 103
5, 91730, Note_on_c, 3, 65, 103
5, 91740, Note_on_c, 3, 65, 0
5, 91740, Note_on_c, 3, 53, 0
5, 91745, Note_on_c, 3, 53, 112
5, 91745, Note_on_c, 3, 65, 112
5, 91770, Note_on_c, 3, 65, 0
5, 91770, Note_on_c, 3, 53, 0
5, 91775, Note_on_c, 3, 65, 85
5, 91775, Note_on_c, 3, 53, 85
5, 91800, Note_on_c, 3, 53, 0
5, 91800, Note_on_c, 3, 65, 0
5, 91820, Note_on_c, 3, 65, 85
5, 91830, Note_on_c, 3, 65, 0
5, 91835, Note_on_c, 3, 65, 94
5, 91845, Note_on_c, 3, 65, 0
5, 91850, Note_on_c, 3, 65, 103
5, 91860, Note_on_c, 3, 65, 0
5, 91865, Note_on_c, 3, 65, 112
5, 91890, Note_on_c, 3, 65, 0
5, 91895, Note_on_c, 3, 65, 85
5, 91920, Note_on_c, 3, 65, 0
5, 91955, Note_on_c, 3, 66, 90
5, 91959, Control_c, 3, 11, 47
5, 91983, Control_c, 3, 11, 49
5, 91985, Note_on_c, 3, 66, 0
5, 92007, Control_c, 3, 11, 51
5, 92015, Note_on_c, 3, 69, 90
5, 92015, Note_on_c, 3, 66, 90
5, 92031, Control_c, 3, 11, 53
5, 92045, Note_on_c, 3, 66, 0
5, 92045, Note_on_c, 3, 69, 0
5, 92055, Control_c, 3, 11, 55
5, 92075, Note_on_c, 3, 69, 90
5, 92075, Note_on_c, 3, 66, 90
5, 92079, Control_c, 3, 11, 57
5, 92103, Control_c, 3, 11, 59
5, 92105, Note_on_c, 3, 66, 0
5, 92105, Note_on_c, 3, 69, 0
5, 92127, Control_c, 3, 11, 61
5, 92135, Note_on_c, 3, 66, 90
5, 92135, Note_on_c, 3, 69, 90
5, 92151, Control_c, 3, 11, 63
5, 92165, Note_on_c, 3, 69, 0
5, 92165, Note_on_c, 3, 66, 0
5, 92175, Control_c, 3, 11, 65
5, 92195, Note_on_c, 3, 69, 90
5, 92195, Note_on_c, 3, 66, 90
5, 92199, Control_c, 3, 11, 67
5, 92223, Control_c, 3, 11, 69
5, 92225, Note_on_c, 3, 66, 0
5, 92225, Note_on_c, 3, 69, 0
5, 92247, Control_c, 3, 11, 71
5, 92255, Note_on_c, 3, 66, 90
5, 92255, Note_on_c, 3, 69, 90
5, 92280, Note_on_c, 3, 69, 0
5, 92280, Note_on_c, 3, 66, 0
5, 92289, Control_c, 3, 11, 52
5, 92289, Note_on_c, 3, 59, 90
5, 92409, Note_on_c, 3, 50, 90
5, 92529, Note_on_c, 3, 50, 0
5, 92529, Note_on_c, 3, 59, 0
5, 92529, Note_on_c, 3, 57, 90
5, 92529, Note_on_c, 3, 48, 90
5, 92649, Note_on_c, 3, 48, 0
5, 92649, Note_on_c, 3, 57, 0
5, 92649, Control_c, 3, 11, 42
5, 92649, Note_on_c, 3, 47, 90
5, 92649, Note_on_c, 3, 55, 90
5, 92665, Control_c, 3, 11, 43
5, 92681, Control_c, 3, 11, 44
5, 92697, Control_c, 3, 11, 45
5, 92713, Control_c, 3, 11, 46
5, 92729, Control_c, 3, 11, 47
5, 92745, Control_c, 3, 11, 48
5, 92761, Control_c, 3, 11, 49
5, 92764, Note_on_c, 3, 55, 0
5, 92764, Note_on_c, 3, 47, 0
5, 92769, Note_on_c, 3, 53, 90
5, 92769, Note_on_c, 3, 62, 90
5, 92777, Control_c, 3, 11, 50
5, 92793, Control_c, 3, 11, 51
5, 92809, Control_c, 3, 11, 52
5, 92825, Control_c, 3, 11, 53
5, 92841, Control_c, 3, 11, 54
5, 92857, Control_c, 3, 11, 55
5, 92873, Control_c, 3, 11, 56
5, 92889, Note_on_c, 3, 62, 0
5, 92889, Note_on_c, 3, 53, 0
5, 92889, Control_c, 3, 11, 57
5, 92889, Note_on_c, 3, 52, 90
5, 92889, Note_on_c, 3, 60, 90
5, 92905, Control_c, 3, 11, 58
5, 92921, Control_c, 3, 11, 59
5, 92937, Control_c, 3, 11, 60
5, 92953, Control_c, 3, 11, 61
5, 92969, Control_c, 3, 11, 62
5, 92985, Control_c, 3, 11, 63
5, 93001, Control_c, 3, 11, 64
5, 93009, Note_on_c, 3, 60, 0
5, 93009, Note_on_c, 3, 52, 0
5, 93009, Note_on_c, 3, 50, 90
5, 93009, Note_on_c, 3, 59, 90
5, 93017, Control_c, 3, 11, 65
5, 93033, Control_c, 3, 11, 66
5, 93049, Control_c, 3, 11, 67
5, 93065, Control_c, 3, 11, 68
5, 93081, Control_c, 3, 11, 69
5, 93097, Control_c, 3, 11, 70
5, 93113, Control_c, 3, 11, 71
5, 93124, Note_on_c, 3, 59, 0
5, 93124, Note_on_c, 3, 50, 0
5, 93129, Control_c, 3, 11, 72
5, 93129, Note_on_c, 3, 59, 90
5, 93129, Note_on_c, 3, 62, 90
5, 93145, Control_c, 3, 11, 73
5, 93161, Control_c, 3, 11, 74
5, 93177, Control_c, 3, 11, 75
5, 93193, Control_c, 3, 11, 76
5, 93209, Control_c, 3, 11, 77
5, 93225, Control_c, 3, 11, 78
5, 93241, Control_c, 3, 11, 79
5, 93249, Note_on_c, 3, 62, 0
5, 93249, Note_on_c, 3, 59, 0
5, 93249, Note_on_c, 3, 64, 90
5, 93249, Note_on_c, 3, 60, 90
5, 93257, Control_c, 3, 11, 80
5, 93273, Control_c, 3, 11, 81
5, 93289, Control_c, 3, 11, 82
5, 93305, Control_c, 3, 11, 83
5, 93321, Control_c, 3, 11, 84
5, 93337, Control_c, 3, 11, 85
5, 93353, Control_c, 3, 11, 86
5, 93364, Note_on_c, 3, 60, 0
5, 93364, Note_on_c, 3, 64, 0
5, 93369, Control_c, 3, 11, 87
5, 93369, Note_on_c, 3, 62, 90
5, 93369, Note_on_c, 3, 59, 90
5, 93385, Control_c, 3, 11, 89
5, 93401, Control_c, 3, 11, 91
5, 93417, Control_c, 3, 11, 93
5, 93433, Control_c, 3, 11, 95
5, 93449, Control_c, 3, 11, 97
5, 93465, Control_c, 3, 11, 99
5, 93474, Note_on_c, 3, 59, 0
5, 93474, Note_on_c, 3, 62, 0
5, 93474, Note_on_c, 3, 65, 90
5, 93481, Control_c, 3, 11, 101
5, 93484, Note_on_c, 3, 65, 0
5, 93489, Note_on_c, 3, 65, 90
5, 93497, Control_c, 3, 11, 100
5, 93510, Control_c, 3, 11, 97
5, 93523, Control_c, 3, 11, 94
5, 93537, Control_c, 3, 11, 91
5, 93550, Control_c, 3, 11, 88
5, 93563, Control_c, 3, 11, 85
5, 93576, Control_c, 3, 11, 82
5, 93589, Control_c, 3, 11, 79
5, 93602, Control_c, 3, 11, 76
5, 93615, Control_c, 3, 11, 73
5, 93628, Control_c, 3, 11, 70
5, 93641, Control_c, 3, 11, 67
5, 93654, Control_c, 3, 11, 64
5, 93667, Control_c, 3, 11, 61
5, 93669, Note_on_c, 3, 65, 0
5, 93669, Note_on_c, 3, 64, 90
5, 93681, Control_c, 3, 11, 58
5, 93694, Control_c, 3, 11, 55
5, 93707, Control_c, 3, 11, 52
5, 93720, Control_c, 3, 11, 49
5, 93724, Note_on_c, 3, 64, 0
5, 93729, Note_on_c, 3, 62, 89
5, 93756, Control_c, 3, 11, 46
5, 93784, Control_c, 3, 11, 45
5, 93789, Note_on_c, 3, 62, 0
5, 93789, Note_on_c, 3, 60, 88
5, 93812, Control_c, 3, 11, 44
5, 93839, Control_c, 3, 11, 43
5, 93849, Note_on_c, 3, 60, 0
5, 93849, Note_on_c, 3, 59, 87
5, 93867, Control_c, 3, 11, 42
5, 93895, Control_c, 3, 11, 41
5, 93909, Note_on_c, 3, 59, 0
5, 93909, Note_on_c, 3, 57, 86
5, 93922, Control_c, 3, 11, 40
5, 93950, Control_c, 3, 11, 39
5, 93969, Note_on_c, 3, 57, 0
5, 93969, Note_on_c, 3, 55, 85
5, 93978, Control_c, 3, 11, 38
5, 94005, Control_c, 3, 11, 37
5, 94029, Note_on_c, 3, 55, 0
5, 94029, Note_on_c, 3, 53, 84
5, 94033, Control_c, 3, 11, 36
5, 94061, Control_c, 3, 11, 35
5, 94084, Note_on_c, 3, 53, 0
5, 94089, Control_c, 3, 11, 34
5, 94089, Note_on_c, 3, 52, 82
5, 94104, Control_c, 3, 11, 37
5, 94149, Note_on_c, 3, 52, 0
5, 94149, Note_on_c, 3, 50, 81
5, 94170, Control_c, 3, 11, 36
5, 94209, Note_on_c, 3, 50, 0
5, 94209, Note_on_c, 3, 49, 80
5, 94236, Control_c, 3, 11, 35
5, 94269, Note_on_c, 3, 49, 0
5, 94269, Note_on_c, 3, 50, 79
5, 94302, Control_c, 3, 11, 34
5, 94329, Note_on_c, 3, 50, 0
5, 94329, Note_on_c, 3, 47, 78
5, 94368, Control_c, 3, 11, 33
5, 94389, Note_on_c, 3, 47, 0
5, 94389, Note_on_c, 3, 45, 77
5, 94434, Control_c, 3, 11, 32
5, 94449, Note_on_c, 3, 45, 0
5, 94449, Note_on_c, 3, 43, 75
5, 94569, Note_on_c, 3, 43, 0
5, 95169, Control_c, 3, 11, 32
5, 95169, Note_on_c, 3, 65, 100
5, 95176, Control_c, 3, 11, 35
5, 95183, Control_c, 3, 11, 38
5, 95190, Control_c, 3, 11, 41
5, 95197, Control_c, 3, 11, 44
5, 95205, Control_c, 3, 11, 47
5, 95212, Control_c, 3, 11, 50
5, 95219, Control_c, 3, 11, 53
5, 95226, Control_c, 3, 11, 56
5, 95259, Note_on_c, 3, 65, 0
5, 95259, Note_on_c, 3, 64, 83
5, 95269, Note_on_c, 3, 64, 0
5, 95269, Note_on_c, 3, 60, 83
5, 95279, Note_on_c, 3, 60, 0
5, 95279, Note_on_c, 3, 60, 83
5, 95289, Note_on_c, 3, 60, 0
5, 95289, Note_on_c, 3, 59, 90
5, 95319, Control_c, 3, 11, 57
5, 95322, Control_c, 3, 11, 54
5, 95325, Control_c, 3, 11, 51
5, 95329, Control_c, 3, 11, 48
5, 95332, Control_c, 3, 11, 45
5, 95336, Control_c, 3, 11, 42
5, 95339, Control_c, 3, 11, 39
5, 95343, Control_c, 3, 11, 36
5, 95346, Control_c, 3, 11, 33
5, 95349, Note_on_c, 3, 59, 0
5, 95409, Control_c, 3, 11, 32
5, 95409, Note_on_c, 3, 65, 90
5, 95409, Note_on_c, 3, 62, 90
5, 95433, Control_c, 3, 11, 34
5, 95457, Control_c, 3, 11, 36
5, 95634, Note_on_c, 3, 62, 0
5, 95634, Note_on_c, 3, 65, 0
5, 95649, Note_on_c, 3, 65, 90
5, 95649, Note_on_c, 3, 62, 90
5, 95754, Note_on_c, 3, 62, 0
5, 95754, Note_on_c, 3, 65, 0
5, 95769, Note_on_c, 3, 65, 90
5, 95769, Note_on_c, 3, 62, 90
5, 96009, Control_c, 3, 11, 37
5, 96037, Control_c, 3, 11, 38
5, 96066, Control_c, 3, 11, 39
5, 96095, Control_c, 3, 11, 40
5, 96119, Note_on_c, 3, 62, 0
5, 96119, Note_on_c, 3, 65, 0
5, 96124, Control_c, 3, 11, 41
5, 96129, Note_on_c, 3, 62, 90
5, 96129, Note_on_c, 3, 65, 90
5, 96153, Control_c, 3, 11, 42
5, 96181, Control_c, 3, 11, 43
5, 96210, Control_c, 3, 11, 44
5, 96234, Note_on_c, 3, 65, 0
5, 96234, Note_on_c, 3, 62, 0
5, 96239, Control_c, 3, 11, 45
5, 96249, Note_on_c, 3, 62, 90
5, 96249, Note_on_c, 3, 65, 90
5, 96268, Control_c, 3, 11, 46
5, 96297, Control_c, 3, 11, 47
5, 96325, Control_c, 3, 11, 48
5, 96354, Control_c, 3, 11, 49
5, 96383, Control_c, 3, 11, 50
5, 96412, Control_c, 3, 11, 51
5, 96441, Control_c, 3, 11, 52
5, 96469, Control_c, 3, 11, 53
5, 96498, Control_c, 3, 11, 54
5, 96527, Control_c, 3, 11, 55
5, 96556, Control_c, 3, 11, 56
5, 96585, Control_c, 3, 11, 57
5, 96599, Note_on_c, 3, 65, 0
5, 96599, Note_on_c, 3, 62, 0
5, 96609, Note_on_c, 3, 62, 90
5, 96609, Note_on_c, 3, 65, 90
5, 96613, Control_c, 3, 11, 58
5, 96642, Control_c, 3, 11, 59
5, 96671, Control_c, 3, 11, 60
5, 96700, Control_c, 3, 11, 61
5, 96729, Control_c, 3, 11, 62
5, 96757, Control_c, 3, 11, 63
5, 96786, Control_c, 3, 11, 64
5, 96815, Control_c, 3, 11, 65
5, 96839, Note_on_c, 3, 65, 0
5, 96839, Note_on_c, 3, 62, 0
5, 96844, Control_c, 3, 11, 66
5, 96849, Note_on_c, 3, 65, 90
5, 96849, Note_on_c, 3, 62, 90
5, 96873, Control_c, 3, 11, 67
5, 96901, Control_c, 3, 11, 68
5, 96930, Control_c, 3, 11, 69
5, 96959, Control_c, 3, 11, 70
5, 96988, Control_c, 3, 11, 71
5, 97017, Control_c, 3, 11, 72
5, 97045, Control_c, 3, 11, 73
5, 97074, Control_c, 3, 11, 74
5, 97079, Note_on_c, 3, 62, 0
5, 97079, Note_on_c, 3, 65, 0
5, 97089, Note_on_c, 3, 62, 90
5, 97089, Note_on_c, 3, 65, 90
5, 97103, Control_c, 3, 11, 75
5, 97132, Control_c, 3, 11, 76
5, 97161, Control_c, 3, 11, 77
5, 97189, Control_c, 3, 11, 78
5, 97218, Control_c, 3, 11, 79
5, 97247, Control_c, 3, 11, 80
5, 97276, Control_c, 3, 11, 81
5, 97305, Control_c, 3, 11, 82
5, 97319, Note_on_c, 3, 65, 0
5, 97319, Note_on_c, 3, 62, 0
5, 97329, Note_on_c, 3, 65, 90
5, 97329, Note_on_c, 3, 62, 90
5, 97333, Control_c, 3, 11, 83
5, 97362, Control_c, 3, 11, 84
5, 97391, Control_c, 3, 11, 85
5, 97420, Control_c, 3, 11, 86
5, 97439, Note_on_c, 3, 62, 0
5, 97439, Note_on_c, 3, 65, 0
5, 97449, Control_c, 3, 11, 87
5, 97449, Note_on_c, 3, 62, 90
5, 97449, Note_on_c, 3, 65, 90
5, 97559, Note_on_c, 3, 65, 0
5, 97559, Note_on_c, 3, 62, 0
5, 97569, Note_on_c, 3, 65, 90
5, 97569, Note_on_c, 3, 62, 90
5, 97679, Note_on_c, 3, 62, 0
5, 97679, Note_on_c, 3, 65, 0
5, 97689, Note_on_c, 3, 62, 90
5, 97689, Note_on_c, 3, 65, 90
5, 97799, Note_on_c, 3, 65, 0
5, 97799, Note_on_c, 3, 62, 0
5, 97809, Note_on_c, 3, 62, 90
5, 97809, Note_on_c, 3, 65, 90
5, 97919, Note_on_c, 3, 65, 0
5, 97919, Note_on_c, 3, 62, 0
5, 97929, Control_c, 3, 11, 87
5, 97929, Note_on_c, 3, 62, 90
5, 97929, Note_on_c, 3, 65, 90
5, 98021, Control_c, 3, 11, 88
5, 98039, Note_on_c, 3, 65, 0
5, 98039, Note_on_c, 3, 62, 0
5, 98049, Note_on_c, 3, 62, 90
5, 98049, Note_on_c, 3, 65, 90
5, 98113, Control_c, 3, 11, 89
5, 98159, Note_on_c, 3, 65, 0
5, 98159, Note_on_c, 3, 62, 0
5, 98169, Note_on_c, 3, 65, 90
5, 98169, Note_on_c, 3, 62, 90
5, 98205, Control_c, 3, 11, 90
5, 98279, Note_on_c, 3, 62, 0
5, 98279, Note_on_c, 3, 65, 0
5, 98289, Note_on_c, 3, 62, 90
5, 98289, Note_on_c, 3, 65, 90
5, 98297, Control_c, 3, 11, 91
5, 98389, Control_c, 3, 11, 92
5, 98399, Note_on_c, 3, 65, 0
5, 98399, Note_on_c, 3, 62, 0
5, 98409, Note_on_c, 3, 62, 90
5, 98409, Note_on_c, 3, 65, 90
5, 98481, Control_c, 3, 11, 93
5, 98519, Note_on_c, 3, 65, 0
5, 98519, Note_on_c, 3, 62, 0
5, 98529, Note_on_c, 3, 65, 90
5, 98529, Note_on_c, 3, 62, 90
5, 98573, Control_c, 3, 11, 94
5, 98639, Note_on_c, 3, 62, 0
5, 98639, Note_on_c, 3, 65, 0
5, 98649, Note_on_c, 3, 62, 90
5, 98649, Note_on_c, 3, 65, 90
5, 98665, Control_c, 3, 11, 95
5, 98757, Control_c, 3, 11, 96
5, 98759, Note_on_c, 3, 65, 0
5, 98759, Note_on_c, 3, 62, 0
5, 98769, Note_on_c, 3, 62, 90
5, 98769, Note_on_c, 3, 65, 90
5, 98849, Control_c, 3, 11, 97
5, 98879, Note_on_c, 3, 65, 0
5, 98879, Note_on_c, 3, 62, 0
5, 98889, Note_on_c, 3, 65, 90
5, 98889, Note_on_c, 3, 62, 90
5, 98941, Control_c, 3, 11, 98
5, 98999, Note_on_c, 3, 62, 0
5, 98999, Note_on_c, 3, 65, 0
5, 99009, Note_on_c, 3, 62, 90
5, 99009, Note_on_c, 3, 65, 90
5, 99033, Control_c, 3, 11, 99
5, 99119, Note_on_c, 3, 65, 0
5, 99119, Note_on_c, 3, 62, 0
5, 99125, Control_c, 3, 11, 100
5, 99129, Note_on_c, 3, 64, 90
5, 99129, Note_on_c, 3, 60, 90
5, 99217, Control_c, 3, 11, 101
5, 99239, Note_on_c, 3, 60, 0
5, 99239, Note_on_c, 3, 64, 0
5, 99249, Note_on_c, 3, 64, 90
5, 99249, Note_on_c, 3, 60, 90
5, 99309, Control_c, 3, 11, 102
5, 99369, Note_on_c, 3, 60, 0
5, 99369, Note_on_c, 3, 64, 0
5, 99489, Note_on_c, 3, 60, 90
5, 99489, Note_on_c, 3, 64, 90
5, 99609, Note_on_c, 3, 64, 0
5, 99609, Note_on_c, 3, 60, 0
5, 99729, Note_on_c, 3, 64, 90
5, 99729, Note_on_c, 3, 60, 90
5, 99849, Note_on_c, 3, 60, 0
5, 99849, Note_on_c, 3, 64, 0
5, 99849, Note_on_c, 3, 64, 90
5, 99849, Note_on_c, 3, 60, 90
5, 99969, Note_on_c, 3, 60, 0
5, 99969, Note_on_c, 3, 64, 0
5, 99969, Note_on_c, 3, 55, 90
5, 99969, Note_on_c, 3, 64, 90
5, 100089, Note_on_c, 3, 64, 0
5, 100089, Note_on_c, 3, 55, 0
5, 100089, Note_on_c, 3, 64, 90
5, 100089, Note_on_c, 3, 55, 90
5, 100689, Note_on_c, 3, 55, 0
5, 100689, Note_on_c, 3, 64, 0
5, 100689, Note_on_c, 3, 57, 90
5, 100689, Note_on_c, 3, 65, 90
5, 100809, Note_on_c, 3, 65, 0
5, 100809, Note_on_c, 3, 57, 0
5, 100809, Note_on_c, 3, 55, 90
5, 100809, Note_on_c, 3, 64, 90
5, 100929, Note_on_c, 3, 64, 0
5, 100929, Note_on_c, 3, 55, 0
5, 100929, Note_on_c, 3, 55, 90
5, 100929, Note_on_c, 3, 64, 90
5, 101049, Note_on_c, 3, 64, 0
5, 101049, Note_on_c, 3, 55, 0
5, 101049, Note_on_c, 3, 55, 90
5, 101049, Note_on_c, 3, 64, 90
5, 101649, Note_on_c, 3, 64, 0
5, 101649, Note_on_c, 3, 55, 0
5, 101649, Note_on_c, 3, 65, 90
5, 101649, Note_on_c, 3, 57, 90
5, 101769, Note_on_c, 3, 57, 0
5, 101769, Note_on_c, 3, 65, 0
5, 101769, Note_on_c, 3, 55, 90
5, 101769, Note_on_c, 3, 64, 90
5, 101889, Note_on_c, 3, 64, 0
5, 101889, Note_on_c, 3, 55, 0
5, 102129, Note_on_c, 3, 64, 90
5, 102129, Note_on_c, 3, 55, 90
5, 102249, Note_on_c, 3, 55, 0
5, 102249, Note_on_c, 3, 64, 0
5, 102249, Note_on_c, 3, 52, 90
5, 102249, Note_on_c, 3, 55, 90
5, 102369, Note_on_c, 3, 55, 0
5, 102369, Note_on_c, 3, 52, 0
5, 102609, Note_on_c, 3, 55, 90
5, 102609, Note_on_c, 3, 52, 90
5, 102729, Note_on_c, 3, 52, 0
5, 102729, Note_on_c, 3, 55, 0
5, 102729, Note_on_c, 3, 57, 90
5, 102729, Note_on_c, 3, 53, 90
5, 102849, Note_on_c, 3, 53, 0
5, 102849, Note_on_c, 3, 57, 0
5, 103089, Note_on_c, 3, 53, 90
5, 103089, Note_on_c, 3, 57, 90
5, 103209, Note_on_c, 3, 57, 0
5, 103209, Note_on_c, 3, 53, 0
5, 103209, Note_on_c, 3, 59, 90
5, 103209, Note_on_c, 3, 55, 90
5, 103329, Note_on_c, 3, 55, 0
5, 103329, Note_on_c, 3, 59, 0
5, 103569, Note_on_c, 3, 55, 90
5, 103569, Note_on_c, 3, 59, 90
5, 103689, Note_on_c, 3, 59, 0
5, 103689, Note_on_c, 3, 55, 0
5, 103689, Note_on_c, 3, 60, 90
5, 103689, Note_on_c, 3, 57, 90
5, 103809, Note_on_c, 3, 57, 0
5, 103809, Note_on_c, 3, 60, 0
5, 104049, Note_on_c, 3, 60, 90
5, 104049, Note_on_c, 3, 57, 90
5, 104169, Note_on_c, 3, 57, 0
5, 104169, Note_on_c, 3, 60, 0
5, 104169, Note_on_c, 3, 55, 90
5, 104169, Note_on_c, 3, 52, 90
5, 104289, Note_on_c, 3, 52, 0
5, 104289, Note_on_c, 3, 55, 0
5, 104529, Note_on_c, 3, 52, 90
5, 104529, Note_on_c, 3, 55, 90
5, 104649, Note_on_c, 3, 55, 0
5, 104649, Note_on_c, 3, 52, 0
5, 104649, Note_on_c, 3, 57, 90
5, 104649, Note_on_c, 3, 53, 90
5, 104769, Note_on_c, 3, 53, 0
5, 104769, Note_on_c, 3, 57, 0
5, 105009, Note_on_c, 3, 57, 90
5, 105009, Note_on_c, 3, 53, 90
5, 105129, Note_on_c, 3, 53, 0
5, 105129, Note_on_c, 3, 57, 0
5, 105129, Note_on_c, 3, 57, 90
5, 105129, Note_on_c, 3, 53, 90
5, 105249, Note_on_c, 3, 53, 0
5, 105249, Note_on_c, 3, 57, 0
5, 105489, Note_on_c, 3, 57, 90
5, 105489, Note_on_c, 3, 53, 90
5, 105609, Note_on_c, 3, 53, 0
5, 105609, Note_on_c, 3, 57, 0
5, 105609, Note_on_c, 3, 54, 90
5, 105609, Note_on_c, 3, 57, 90
5, 105729, Note_on_c, 3, 57, 0
5, 105729, Note_on_c, 3, 54, 0
5, 105969, Note_on_c, 3, 57, 90
5, 105969, Note_on_c, 3, 54, 90
5, 106089, Note_on_c, 3, 54, 0
5, 106089, Note_on_c, 3, 57, 0
5, 106089, Note_on_c, 3, 54, 90
5, 106089, Note_on_c, 3, 57, 90
5, 106209, Note_on_c, 3, 57, 0
5, 106209, Note_on_c, 3, 54, 0
5, 106449, Note_on_c, 3, 57, 90
5, 106449, Note_on_c, 3, 54, 90
5, 106569, Note_on_c, 3, 54, 0
5, 106569, Note_on_c, 3, 57, 0
5, 106569, Note_on_c, 3, 55, 75
5, 106689, Note_on_c, 3, 55, 0
5, 107529, Control_c, 3, 11, 47
5, 107529, Note_on_c, 3, 62, 90
5, 107545, Control_c, 3, 11, 49
5, 107561, Control_c, 3, 11, 51
5, 107577, Control_c, 3, 11, 53
5, 107593, Control_c, 3, 11, 55
5, 107609, Control_c, 3, 11, 57
5, 107625, Control_c, 3, 11, 59
5, 107641, Control_c, 3, 11, 61
5, 108359, Note_on_c, 3, 62, 0
5, 108369, Note_on_c, 3, 60, 90
5, 108409, Note_on_c, 3, 60, 0
5, 108409, Note_on_c, 3, 59, 90
5, 108449, Note_on_c, 3, 59, 0
5, 108449, Note_on_c, 3, 57, 90
5, 108489, Note_on_c, 3, 57, 0
5, 108489, Note_on_c, 3, 55, 90
5, 108609, Note_on_c, 3, 55, 0
5, 109449, Control_c, 3, 11, 62
5, 109449, Note_on_c, 3, 65, 90
5, 109468, Control_c, 3, 11, 64
5, 109487, Control_c, 3, 11, 66
5, 109506, Control_c, 3, 11, 68
5, 109525, Control_c, 3, 11, 70
5, 109545, Control_c, 3, 11, 72
5, 109564, Control_c, 3, 11, 71
5, 109583, Control_c, 3, 11, 70
5, 109602, Control_c, 3, 11, 69
5, 109621, Control_c, 3, 11, 68
5, 109641, Control_c, 3, 11, 67
5, 109660, Control_c, 3, 11, 66
5, 109679, Control_c, 3, 11, 65
5, 109698, Control_c, 3, 11, 64
5, 109717, Control_c, 3, 11, 63
5, 109737, Control_c, 3, 11, 62
5, 109756, Control_c, 3, 11, 61
5, 109775, Control_c, 3, 11, 60
5, 109794, Control_c, 3, 11, 59
5, 109813, Control_c, 3, 11, 58
5, 109833, Control_c, 3, 11, 57
5, 109852, Control_c, 3, 11, 56
5, 109871, Control_c, 3, 11, 55
5, 109890, Control_c, 3, 11, 54
5, 109909, Control_c, 3, 11, 53
5, 109929, Control_c, 3, 11, 52
5, 110279, Note_on_c, 3, 65, 0
5, 110289, Note_on_c, 3, 64, 90
5, 110329, Note_on_c, 3, 64, 0
5, 110329, Note_on_c, 3, 62, 90
5, 110369, Note_on_c, 3, 62, 0
5, 110369, Note_on_c, 3, 60, 90
5, 110409, Note_on_c, 3, 60, 0
5, 110409, Note_on_c, 3, 59, 90
5, 110519, Note_on_c, 3, 59, 0
5, 110529, Note_on_c, 3, 62, 100
5, 110759, Note_on_c, 3, 62, 0
5, 110769, Note_on_c, 3, 64, 100
5, 110999, Note_on_c, 3, 64, 0
5, 111009, Note_on_c, 3, 65, 100
5, 111239, Note_on_c, 3, 65, 0
5, 111249, Note_on_c, 3, 67, 100
5, 111359, Note_on_c, 3, 67, 0
5, 111369, Control_c, 3, 11, 77
5, 111369, Note_on_c, 3, 59, 100
5, 111369, Note_on_c, 3, 68, 100
5, 111397, Control_c, 3, 11, 76
5, 111426, Control_c, 3, 11, 75
5, 111455, Control_c, 3, 11, 74
5, 111484, Control_c, 3, 11, 73
5, 111513, Control_c, 3, 11, 72
5, 111541, Control_c, 3, 11, 71
5, 111570, Control_c, 3, 11, 70
5, 111599, Control_c, 3, 11, 69
5, 111628, Control_c, 3, 11, 68
5, 111657, Control_c, 3, 11, 67
5, 111685, Control_c, 3, 11, 66
5, 111714, Control_c, 3, 11, 65
5, 111743, Control_c, 3, 11, 64
5, 111772, Control_c, 3, 11, 63
5, 111801, Control_c, 3, 11, 62
5, 111829, Control_c, 3, 11, 61
5, 111858, Control_c, 3, 11, 60
5, 111887, Control_c, 3, 11, 59
5, 111916, Control_c, 3, 11, 58
5, 111945, Control_c, 3, 11, 57
5, 111973, Control_c, 3, 11, 56
5, 112002, Control_c, 3, 11, 55
5, 112031, Control_c, 3, 11, 54
5, 112060, Control_c, 3, 11, 53
5, 112089, Note_on_c, 3, 68, 0
5, 112089, Control_c, 3, 11, 52
5, 112089, Note_on_c, 3, 67, 100
5, 112209, Note_on_c, 3, 67, 0
5, 112209, Note_on_c, 3, 66, 100
5, 112319, Note_on_c, 3, 66, 0
5, 112329, Note_on_c, 3, 59, 0
5, 112329, Note_on_c, 3, 60, 100
5, 112329, Note_on_c, 3, 66, 100
5, 112559, Note_on_c, 3, 66, 0
5, 112569, Note_on_c, 3, 67, 100
5, 112799, Note_on_c, 3, 60, 0
5, 112809, Note_on_c, 3, 53, 100
5, 112929, Note_on_c, 3, 67, 0
5, 112929, Note_on_c, 3, 62, 100
5, 113049, Note_on_c, 3, 62, 0
5, 113049, Note_on_c, 3, 63, 100
5, 113169, Note_on_c, 3, 63, 0
5, 113169, Note_on_c, 3, 65, 100
5, 113279, Note_on_c, 3, 65, 0
5, 113279, Note_on_c, 3, 53, 0
5, 113289, Note_on_c, 3, 65, 100
5, 113289, Note_on_c, 3, 55, 100
5, 113529, Note_on_c, 3, 65, 0
5, 113529, Note_on_c, 3, 65, 83
5, 113559, Note_on_c, 3, 65, 0
5, 113559, Note_on_c, 3, 63, 83
5, 113589, Note_on_c, 3, 63, 0
5, 113589, Note_on_c, 3, 65, 83
5, 113619, Note_on_c, 3, 65, 0
5, 113619, Note_on_c, 3, 63, 83
5, 113649, Note_on_c, 3, 63, 0
5, 113649, Note_on_c, 3, 65, 83
5, 113679, Note_on_c, 3, 65, 0
5, 113679, Note_on_c, 3, 63, 83
5, 113709, Note_on_c, 3, 63, 0
5, 113709, Note_on_c, 3, 65, 83
5, 113739, Note_on_c, 3, 65, 0
5, 113739, Note_on_c, 3, 63, 83
5, 113759, Note_on_c, 3, 63, 0
5, 113759, Note_on_c, 3, 55, 0
5, 113769, Note_on_c, 3, 59, 83
5, 113769, Note_on_c, 3, 62, 83
5, 114009, Note_on_c, 3, 62, 0
5, 114009, Note_on_c, 3, 59, 0
5, 114009, Note_on_c, 3, 65, 83
5, 114129, Note_on_c, 3, 62, 83
5, 114249, Note_on_c, 3, 62, 0
5, 114249, Note_on_c, 3, 65, 0
5, 114249, Control_c, 3, 11, 77
5, 114249, Note_on_c, 3, 59, 83
5, 114249, Note_on_c, 3, 68, 83
5, 114287, Control_c, 3, 11, 76
5, 114325, Control_c, 3, 11, 75
5, 114364, Control_c, 3, 11, 74
5, 114402, Control_c, 3, 11, 73
5, 114441, Control_c, 3, 11, 72
5, 114479, Control_c, 3, 11, 71
5, 114517, Control_c, 3, 11, 70
5, 114556, Control_c, 3, 11, 69
5, 114594, Control_c, 3, 11, 68
5, 114633, Control_c, 3, 11, 67
5, 114671, Control_c, 3, 11, 66
5, 114709, Control_c, 3, 11, 65
5, 114748, Control_c, 3, 11, 64
5, 114786, Control_c, 3, 11, 63
5, 114825, Control_c, 3, 11, 62
5, 114863, Control_c, 3, 11, 61
5, 114901, Control_c, 3, 11, 60
5, 114940, Control_c, 3, 11, 59
5, 114969, Note_on_c, 3, 68, 0
5, 114969, Note_on_c, 3, 67, 83
5, 114978, Control_c, 3, 11, 58
5, 115017, Control_c, 3, 11, 57
5, 115055, Control_c, 3, 11, 56
5, 115089, Note_on_c, 3, 67, 0
5, 115089, Note_on_c, 3, 66, 83
5, 115093, Control_c, 3, 11, 55
5, 115132, Control_c, 3, 11, 54
5, 115170, Control_c, 3, 11, 53
5, 115199, Note_on_c, 3, 66, 0
5, 115209, Note_on_c, 3, 59, 0
5, 115209, Control_c, 3, 11, 52
5, 115209, Note_on_c, 3, 60, 83
5, 115209, Note_on_c, 3, 66, 83
5, 115263, Control_c, 3, 11, 53
5, 115318, Control_c, 3, 11, 54
5, 115373, Control_c, 3, 11, 55
5, 115428, Control_c, 3, 11, 56
5, 115439, Note_on_c, 3, 66, 0
5, 115449, Note_on_c, 3, 67, 83
5, 115483, Control_c, 3, 11, 57
5, 115538, Control_c, 3, 11, 58
5, 115593, Control_c, 3, 11, 59
5, 115647, Control_c, 3, 11, 60
5, 115679, Note_on_c, 3, 60, 0
5, 115689, Note_on_c, 3, 60, 83
5, 115702, Control_c, 3, 11, 61
5, 115757, Control_c, 3, 11, 62
5, 115812, Control_c, 3, 11, 63
5, 115867, Control_c, 3, 11, 64
5, 115919, Note_on_c, 3, 67, 0
5, 115922, Control_c, 3, 11, 65
5, 115929, Note_on_c, 3, 63, 83
5, 115977, Control_c, 3, 11, 66
5, 116031, Control_c, 3, 11, 67
5, 116086, Control_c, 3, 11, 68
5, 116141, Control_c, 3, 11, 69
5, 116169, Note_on_c, 3, 60, 0
5, 116169, Note_on_c, 3, 58, 83
5, 116196, Control_c, 3, 11, 70
5, 116251, Control_c, 3, 11, 71
5, 116289, Note_on_c, 3, 63, 0
5, 116306, Control_c, 3, 11, 72
5, 116361, Control_c, 3, 11, 73
5, 116415, Control_c, 3, 11, 74
5, 116470, Control_c, 3, 11, 75
5, 116525, Control_c, 3, 11, 76
5, 116529, Note_on_c, 3, 67, 83
5, 116580, Control_c, 3, 11, 77
5, 116635, Control_c, 3, 11, 78
5, 116649, Note_on_c, 3, 67, 0
5, 116649, Note_on_c, 3, 58, 0
5, 116649, Note_on_c, 3, 46, 83
5, 116649, Note_on_c, 3, 63, 83
5, 116690, Control_c, 3, 11, 79
5, 116745, Control_c, 3, 11, 80
5, 116769, Note_on_c, 3, 63, 0
5, 116769, Note_on_c, 3, 58, 83
5, 116799, Control_c, 3, 11, 81
5, 116854, Control_c, 3, 11, 82
5, 116889, Note_on_c, 3, 58, 0
5, 116889, Note_on_c, 3, 56, 83
5, 116909, Control_c, 3, 11, 83
5, 116964, Control_c, 3, 11, 84
5, 117009, Note_on_c, 3, 56, 0
5, 117009, Note_on_c, 3, 62, 83
5, 117019, Control_c, 3, 11, 85
5, 117074, Control_c, 3, 11, 86
5, 117119, Note_on_c, 3, 62, 0
5, 117129, Note_on_c, 3, 46, 0
5, 117129, Control_c, 3, 11, 87
5, 117129, Note_on_c, 3, 51, 83
5, 117129, Note_on_c, 3, 55, 83
5, 117249, Note_on_c, 3, 55, 0
5, 117249, Note_on_c, 3, 51, 0
5, 125769, Control_c, 3, 11, 52
5, 125769, Note_on_c, 3, 67, 75
5, 125769, Note_on_c, 3, 63, 75
5, 125889, Note_on_c, 3, 63, 0
5, 125889, Note_on_c, 3, 67, 0
5, 125889, Note_on_c, 3, 65, 75
5, 125889, Note_on_c, 3, 62, 75
5, 126009, Note_on_c, 3, 62, 0
5, 126009, Note_on_c, 3, 65, 0
5, 126009, Note_on_c, 3, 60, 75
5, 126009, Note_on_c, 3, 63, 75
5, 126129, Note_on_c, 3, 63, 0
5, 126129, Note_on_c, 3, 60, 0
5, 126129, Note_on_c, 3, 58, 75
5, 126129, Note_on_c, 3, 62, 75
5, 126249, Note_on_c, 3, 62, 0
5, 126249, Note_on_c, 3, 58, 0
5, 126249, Note_on_c, 3, 60, 75
5, 126249, Note_on_c, 3, 56, 75
5, 126369, Note_on_c, 3, 56, 0
5, 126369, Note_on_c, 3, 60, 0
5, 126369, Note_on_c, 3, 55, 75
5, 126369, Note_on_c, 3, 58, 75
5, 126489, Note_on_c, 3, 58, 0
5, 126489, Note_on_c, 3, 55, 0
5, 126489, Note_on_c, 3, 56, 75
5, 126489, Note_on_c, 3, 53, 75
5, 126609, Note_on_c, 3, 53, 0
5, 126609, Note_on_c, 3, 56, 0
5, 126609, Note_on_c, 3, 51, 75
5, 126609, Note_on_c, 3, 55, 75
5, 126729, Note_on_c, 3, 55, 0
5, 126729, Note_on_c, 3, 51, 0
5, 126729, Note_on_c, 3, 50, 75
5, 127329, Note_on_c, 3, 50, 0
5, 127329, Note_on_c, 3, 51, 75
5, 127449, Note_on_c, 3, 51, 0
5, 127449, Note_on_c, 3, 47, 75
5, 127569, Note_on_c, 3, 47, 0
5, 127569, Note_on_c, 3, 48, 75
5, 127689, Note_on_c, 3, 48, 0
5, 127689, Note_on_c, 3, 50, 75
5, 128289, Note_on_c, 3, 50, 0
5, 128289, Note_on_c, 3, 51, 75
5, 128409, Note_on_c, 3, 51, 0
5, 128409, Note_on_c, 3, 47, 75
5, 128529, Note_on_c, 3, 47, 0
5, 128529, Note_on_c, 3, 48, 75
5, 128649, Note_on_c, 3, 48, 0
5, 128649, Note_on_c, 3, 50, 75
5, 128769, Note_on_c, 3, 50, 0
5, 132489, Control_c, 3, 11, 52
5, 132489, Note_on_c, 3, 48, 75
5, 132489, Note_on_c, 3, 60, 75
5, 132708, Control_c, 3, 11, 53
5, 132927, Control_c, 3, 11, 54
5, 133147, Control_c, 3, 11, 55
5, 133366, Control_c, 3, 11, 56
5, 133586, Control_c, 3, 11, 57
5, 133805, Control_c, 3, 11, 58
5, 134025, Control_c, 3, 11, 59
5, 134244, Control_c, 3, 11, 60
5, 134409, Note_on_c, 3, 60, 0
5, 134409, Note_on_c, 3, 48, 0
5, 134409, Note_on_c, 3, 43, 75
5, 134409, Note_on_c, 3, 55, 75
5, 134463, Control_c, 3, 11, 61
5, 134683, Control_c, 3, 11, 62
5, 134902, Control_c, 3, 11, 63
5, 135122, Control_c, 3, 11, 64
5, 135341, Control_c, 3, 11, 65
5, 135561, Control_c, 3, 11, 66
5, 135780, Control_c, 3, 11, 67
5, 135999, Control_c, 3, 11, 68
5, 136219, Control_c, 3, 11, 69
5, 136329, Note_on_c, 3, 55, 0
5, 136329, Note_on_c, 3, 43, 0
5, 136329, Note_on_c, 3, 52, 75
5, 136329, Note_on_c, 3, 48, 75
5, 136438, Control_c, 3, 11, 70
5, 136658, Control_c, 3, 11, 71
5, 136877, Control_c, 3, 11, 72
5, 137097, Control_c, 3, 11, 73
5, 137316, Control_c, 3, 11, 74
5, 137535, Control_c, 3, 11, 75
5, 137755, Control_c, 3, 11, 76
5, 137974, Control_c, 3, 11, 77
5, 138194, Control_c, 3, 11, 78
5, 138249, Note_on_c, 3, 48, 0
5, 138249, Note_on_c, 3, 52, 0
5, 138249, Note_on_c, 3, 50, 75
5, 138249, Note_on_c, 3, 53, 75
5, 138413, Control_c, 3, 11, 79
5, 138633, Control_c, 3, 11, 80
5, 138852, Control_c, 3, 11, 81
5, 139071, Control_c, 3, 11, 82
5, 139291, Control_c, 3, 11, 83
5, 139510, Control_c, 3, 11, 84
5, 139730, Control_c, 3, 11, 85
5, 139949, Control_c, 3, 11, 86
5, 140169, Note_on_c, 3, 53, 0
5, 140169, Note_on_c, 3, 50, 0
5, 140169, Control_c, 3, 11, 87
5, 140169, Note_on_c, 3, 52, 75
5, 140169, Note_on_c, 3, 48, 75
5, 140274, Note_on_c, 3, 48, 0
5, 140274, Note_on_c, 3, 52, 0
5, 140289, Note_on_c, 3, 67, 75
5, 140394, Note_on_c, 3, 67, 0
5, 140409, Note_on_c, 3, 64, 75
5, 140514, Note_on_c, 3, 64, 0
5, 140529, Note_on_c, 3, 60, 75
5, 140634, Note_on_c, 3, 60, 0
5, 140649, Note_on_c, 3, 55, 75
5, 140754, Note_on_c, 3, 55, 0
5, 140769, Note_on_c, 3, 52, 75
5, 140874, Note_on_c, 3, 52, 0
5, 140889, Note_on_c, 3, 48, 75
5, 140994, Note_on_c, 3, 48, 0
5, 141009, Note_on_c, 3, 48, 75
5, 141114, Note_on_c, 3, 48, 0
5, 141129, Note_on_c, 3, 48, 75
5, 141234, Note_on_c, 3, 48, 0
5, 141249, Note_on_c, 3, 67, 75
5, 141354, Note_on_c, 3, 67, 0
5, 141369, Note_on_c, 3, 64, 75
5, 141474, Note_on_c, 3, 64, 0
5, 141489, Note_on_c, 3, 60, 75
5, 141594, Note_on_c, 3, 60, 0
5, 141609, Note_on_c, 3, 55, 75
5, 141714, Note_on_c, 3, 55, 0
5, 141729, Note_on_c, 3, 52, 75
5, 141834, Note_on_c, 3, 52, 0
5, 141849, Note_on_c, 3, 48, 75
5, 141954, Note_on_c, 3, 48, 0
5, 141969, Note_on_c, 3, 48, 75
5, 142074, Note_on_c, 3, 48, 0
5, 142089, Control_c, 3, 11, 87
5, 142089, Note_on_c, 3, 43, 75
5, 142185, Control_c, 3, 11, 88
5, 142194, Note_on_c, 3, 43, 0
5, 142209, Note_on_c, 3, 65, 75
5, 142281, Control_c, 3, 11, 89
5, 142314, Note_on_c, 3, 65, 0
5, 142329, Note_on_c, 3, 62, 75
5, 142377, Control_c, 3, 11, 90
5, 142434, Note_on_c, 3, 62, 0
5, 142449, Note_on_c, 3, 55, 75
5, 142473, Control_c, 3, 11, 91
5, 142554, Note_on_c, 3, 55, 0
5, 142569, Control_c, 3, 11, 92
5, 142569, Note_on_c, 3, 53, 75
5, 142665, Control_c, 3, 11, 93
5, 142674, Note_on_c, 3, 53, 0
5, 142689, Note_on_c, 3, 50, 75
5, 142761, Control_c, 3, 11, 94
5, 142794, Note_on_c, 3, 50, 0
5, 142809, Note_on_c, 3, 43, 75
5, 142857, Control_c, 3, 11, 95
5, 142914, Note_on_c, 3, 43, 0
5, 142929, Note_on_c, 3, 55, 75
5, 142953, Control_c, 3, 11, 96
5, 143034, Note_on_c, 3, 55, 0
5, 143049, Control_c, 3, 11, 97
5, 143049, Note_on_c, 3, 55, 75
5, 143145, Control_c, 3, 11, 98
5, 143154, Note_on_c, 3, 55, 0
5, 143169, Note_on_c, 3, 65, 75
5, 143241, Control_c, 3, 11, 99
5, 143274, Note_on_c, 3, 65, 0
5, 143289, Note_on_c, 3, 62, 75
5, 143337, Control_c, 3, 11, 100
5, 143394, Note_on_c, 3, 62, 0
5, 143409, Note_on_c, 3, 55, 75
5, 143433, Control_c, 3, 11, 101
5, 143514, Note_on_c, 3, 55, 0
5, 143529, Control_c, 3, 11, 102
5, 143529, Note_on_c, 3, 53, 75
5, 143625, Control_c, 3, 11, 103
5, 143634, Note_on_c, 3, 53, 0
5, 143649, Note_on_c, 3, 50, 75
5, 143721, Control_c, 3, 11, 104
5, 143754, Note_on_c, 3, 50, 0
5, 143769, Note_on_c, 3, 43, 75
5, 143817, Control_c, 3, 11, 105
5, 143874, Note_on_c, 3, 43, 0
5, 143889, Note_on_c, 3, 55, 75
5, 143913, Control_c, 3, 11, 106
5, 143994, Note_on_c, 3, 55, 0
5, 144009, Control_c, 3, 11, 107
5, 144009, Note_on_c, 3, 48, 75
5, 144324, Note_on_c, 3, 48, 0
5, 144369, Note_on_c, 3, 45, 75
5, 144369, Note_on_c, 3, 57, 75
5, 144468, Note_on_c, 3, 57, 0
5, 144468, Note_on_c, 3, 45, 0
5, 144489, Note_on_c, 3, 45, 75
5, 144489, Note_on_c, 3, 57, 75
5, 144804, Note_on_c, 3, 57, 0
5, 144804, Note_on_c, 3, 45, 0
5, 144849, Note_on_c, 3, 43, 75
5, 144849, Note_on_c, 3, 55, 75
5, 144948, Note_on_c, 3, 55, 0
5, 144948, Note_on_c, 3, 43, 0
5, 144969, Note_on_c, 3, 55, 75
5, 144969, Note_on_c, 3, 43, 75
5, 145284, Note_on_c, 3, 43, 0
5, 145284, Note_on_c, 3, 55, 0
5, 145329, Note_on_c, 3, 53, 75
5, 145329, Note_on_c, 3, 41, 75
5, 145428, Note_on_c, 3, 41, 0
5, 145428, Note_on_c, 3, 53, 0
5, 145449, Note_on_c, 3, 41, 75
5, 145449, Note_on_c, 3, 53, 75
5, 145764, Note_on_c, 3, 53, 0
5, 145764, Note_on_c, 3, 41, 0
5, 145809, Note_on_c, 3, 52, 75
5, 145809, Note_on_c, 3, 40, 75
5, 145908, Note_on_c, 3, 40, 0
5, 145908, Note_on_c, 3, 52, 0
5, 145929, Note_on_c, 3, 40, 75
5, 145929, Note_on_c, 3, 52, 75
5, 145989, Note_on_c, 3, 52, 0
5, 145989, Note_on_c, 3, 40, 0
5, 146049, Note_on_c, 3, 45, 75
5, 146049, Note_on_c, 3, 57, 75
5, 146109, Note_on_c, 3, 57, 0
5, 146109, Note_on_c, 3, 45, 0
5, 146169, Note_on_c, 3, 57, 75
5, 146169, Note_on_c, 3, 45, 75
5, 146229, Note_on_c, 3, 45, 0
5, 146229, Note_on_c, 3, 57, 0
5, 146289, Note_on_c, 3, 43, 75
5, 146289, Note_on_c, 3, 55, 75
5, 146349, Note_on_c, 3, 55, 0
5, 146349, Note_on_c, 3, 43, 0
5, 146409, Note_on_c, 3, 55, 75
5, 146409, Note_on_c, 3, 43, 75
5, 146469, Note_on_c, 3, 43, 0
5, 146469, Note_on_c, 3, 55, 0
5, 146529, Note_on_c, 3, 41, 75
5, 146529, Note_on_c, 3, 53, 75
5, 146589, Note_on_c, 3, 53, 0
5, 146589, Note_on_c, 3, 41, 0
5, 146649, Note_on_c, 3, 41, 75
5, 146649, Note_on_c, 3, 53, 75
5, 146709, Note_on_c, 3, 53, 0
5, 146709, Note_on_c, 3, 41, 0
5, 146769, Note_on_c, 3, 52, 75
5, 146769, Note_on_c, 3, 40, 75
5, 146829, Note_on_c, 3, 40, 0
5, 146829, Note_on_c, 3, 52, 0
5, 146889, Note_on_c, 3, 52, 75
5, 146889, Note_on_c, 3, 40, 75
5, 146949, Note_on_c, 3, 40, 0
5, 146949, Note_on_c, 3, 52, 0
5, 147009, Note_on_c, 3, 53, 75
5, 147009, Note_on_c, 3, 41, 75
5, 147069, Note_on_c, 3, 41, 0
5, 147069, Note_on_c, 3, 53, 0
5, 147129, Note_on_c, 3, 41, 75
5, 147129, Note_on_c, 3, 53, 75
5, 147189, Note_on_c, 3, 53, 0
5, 147189, Note_on_c, 3, 41, 0
5, 147249, Note_on_c, 3, 41, 75
5, 147249, Note_on_c, 3, 53, 75
5, 147309, Note_on_c, 3, 53, 0
5, 147309, Note_on_c, 3, 41, 0
5, 147369, Note_on_c, 3, 53, 75
5, 147369, Note_on_c, 3, 41, 75
5, 147429, Note_on_c, 3, 41, 0
5, 147429, Note_on_c, 3, 53, 0
5, 147489, Note_on_c, 3, 53, 75
5, 147489, Note_on_c, 3, 41, 75
5, 147549, Note_on_c, 3, 41, 0
5, 147549, Note_on_c, 3, 53, 0
5, 147609, Note_on_c, 3, 41, 75
5, 147609, Note_on_c, 3, 53, 75
5, 147669, Note_on_c, 3, 53, 0
5, 147669, Note_on_c, 3, 41, 0
5, 147729, Note_on_c, 3, 53, 75
5, 147729, Note_on_c, 3, 41, 75
5, 147789, Note_on_c, 3, 41, 0
5, 147789, Note_on_c, 3, 53, 0
5, 147849, Control_c, 3, 11, 122
5, 147849, Note_on_c, 3, 54, 90
5, 147849, Note_on_c, 3, 42, 90
5, 147872, Control_c, 3, 11, 120
5, 147896, Control_c, 3, 11, 118
5, 147920, Control_c, 3, 11, 116
5, 147944, Control_c, 3, 11, 114
5, 147968, Control_c, 3, 11, 112
5, 147992, Control_c, 3, 11, 110
5, 148016, Control_c, 3, 11, 108
5, 148040, Control_c, 3, 11, 106
5, 148064, Control_c, 3, 11, 104
5, 148088, Control_c, 3, 11, 102
5, 148799, Note_on_c, 3, 42, 0
5, 148799, Note_on_c, 3, 54, 0
5, 148809, Control_c, 3, 11, 122
5, 148809, Note_on_c, 3, 55, 90
5, 148809, Note_on_c, 3, 43, 90
5, 148832, Control_c, 3, 11, 120
5, 148856, Control_c, 3, 11, 118
5, 148880, Control_c, 3, 11, 116
5, 148904, Control_c, 3, 11, 114
5, 148928, Control_c, 3, 11, 112
5, 148952, Control_c, 3, 11, 110
5, 148976, Control_c, 3, 11, 108
5, 149000, Control_c, 3, 11, 106
5, 149024, Control_c, 3, 11, 104
5, 149048, Control_c, 3, 11, 102
5, 149759, Note_on_c, 3, 43, 0
5, 149759, Note_on_c, 3, 55, 0
5, 149769, Control_c, 3, 11, 122
5, 149769, Note_on_c, 3, 56, 90
5, 149769, Note_on_c, 3, 44, 90
5, 149792, Control_c, 3, 11, 120
5, 149816, Control_c, 3, 11, 118
5, 149840, Control_c, 3, 11, 116
5, 149864, Control_c, 3, 11, 114
5, 149888, Control_c, 3, 11, 112
5, 149912, Control_c, 3, 11, 110
5, 149936, Control_c, 3, 11, 108
5, 149960, Control_c, 3, 11, 106
5, 149984, Control_c, 3, 11, 104
5, 150008, Control_c, 3, 11, 102
5, 150719, Note_on_c, 3, 44, 0
5, 150719, Note_on_c, 3, 56, 0
5, 150729, Note_on_c, 3, 45, 90
5, 150729, Note_on_c, 3, 57, 90
5, 151089, Note_on_c, 3, 57, 0
5, 151089, Note_on_c, 3, 45, 0
5, 151209, Note_on_c, 3, 47, 90
5, 151209, Note_on_c, 3, 59, 90
5, 151569, Note_on_c, 3, 59, 0
5, 151569, Note_on_c, 3, 47, 0
5, 151689, Note_on_c, 3, 60, 90
5, 151689, Note_on_c, 3, 48, 90
5, 152049, Note_on_c, 3, 48, 0
5, 152049, Note_on_c, 3, 60, 0
5, 152169, Note_on_c, 3, 41, 90
5, 152169, Note_on_c, 3, 53, 90
5, 152529, Note_on_c, 3, 53, 0
5, 152529, Note_on_c, 3, 41, 0
5, 152649, Note_on_c, 3, 55, 90
5, 152649, Note_on_c, 3, 43, 90
5, 153009, Note_on_c, 3, 43, 0
5, 153009, Note_on_c, 3, 55, 0
5, 153129, Note_on_c, 3, 60, 90
5, 153129, Note_on_c, 3, 48, 90
5, 153489, Note_on_c, 3, 48, 0
5, 153489, Note_on_c, 3, 60, 0
5, 153609, Note_on_c, 3, 53, 90
5, 153609, Note_on_c, 3, 41, 90
5, 153969, Note_on_c, 3, 41, 0
5, 153969, Note_on_c, 3, 53, 0
5, 154089, Note_on_c, 3, 55, 90
5, 154089, Note_on_c, 3, 43, 90
5, 154449, Note_on_c, 3, 43, 0
5, 154449, Note_on_c, 3, 55, 0
5, 154569, Note_on_c, 3, 48, 90
5, 154569, Note_on_c, 3, 60, 90
5, 154929, Note_on_c, 3, 60, 0
5, 154929, Note_on_c, 3, 48, 0
5, 155049, Note_on_c, 3, 41, 90
5, 155049, Note_on_c, 3, 53, 90
5, 155409, Note_on_c, 3, 53, 0
5, 155409, Note_on_c, 3, 41, 0
5, 155529, Note_on_c, 3, 43, 90
5, 155529, Note_on_c, 3, 55, 90
5, 156489, Note_on_c, 3, 55, 0
5, 156489, Note_on_c, 3, 43, 0
5, 156489, Note_on_c, 3, 43, 90
5, 156489, Note_on_c, 3, 55, 90
5, 157449, Note_on_c, 3, 55, 0
5, 157449, Note_on_c, 3, 43, 0
5, 157449, Note_on_c, 3, 48, 90
5, 157569, Note_on_c, 3, 48, 0
5, 157809, Control_c, 3, 11, 92
5, 157809, Note_on_c, 3, 67, 90
5, 157914, Note_on_c, 3, 67, 0
5, 157929, Control_c, 3, 11, 112
5, 157929, Note_on_c, 3, 67, 90
5, 157952, Control_c, 3, 11, 110
5, 157976, Control_c, 3, 11, 108
5, 158000, Control_c, 3, 11, 106
5, 158024, Control_c, 3, 11, 104
5, 158048, Control_c, 3, 11, 102
5, 158072, Control_c, 3, 11, 100
5, 158096, Control_c, 3, 11, 98
5, 158120, Control_c, 3, 11, 96
5, 158144, Control_c, 3, 11, 94
5, 158168, Control_c, 3, 11, 92
5, 158169, Note_on_c, 3, 67, 0
5, 158169, Note_on_c, 3, 64, 90
5, 158289, Note_on_c, 3, 64, 0
5, 158289, Note_on_c, 3, 60, 90
5, 158394, Note_on_c, 3, 60, 0
5, 158409, Note_on_c, 3, 60, 90
5, 158529, Note_on_c, 3, 60, 0
5, 158529, Note_on_c, 3, 59, 90
5, 158649, Note_on_c, 3, 59, 0
5, 159489, Note_on_c, 3, 67, 90
5, 159594, Note_on_c, 3, 67, 0
5, 159609, Note_on_c, 3, 67, 90
5, 159714, Note_on_c, 3, 67, 0
5, 159729, Note_on_c, 3, 67, 90
5, 159834, Note_on_c, 3, 67, 0
5, 159849, Note_on_c, 3, 67, 90
5, 159954, Note_on_c, 3, 67, 0
5, 159969, Note_on_c, 3, 67, 90
5, 160074, Note_on_c, 3, 67, 0
5, 160089, Note_on_c, 3, 64, 90
5, 160194, Note_on_c, 3, 64, 0
5, 160209, Note_on_c, 3, 60, 90
5, 160314, Note_on_c, 3, 60, 0
5, 160329, Note_on_c, 3, 59, 90
5, 160449, Note_on_c, 3, 59, 0
5, 161409, Note_on_c, 3, 67, 90
5, 161634, Note_on_c, 3, 67, 0
5, 161649, Note_on_c, 3, 67, 90
5, 161874, Note_on_c, 3, 67, 0
5, 161889, Note_on_c, 3, 64, 90
5, 162114, Note_on_c, 3, 64, 0
5, 162129, Note_on_c, 3, 60, 90
5, 162234, Note_on_c, 3, 60, 0
5, 162249, Note_on_c, 3, 59, 90
5, 162369, Note_on_c, 3, 59, 0
5, 163329, Note_on_c, 3, 67, 90
5, 163554, Note_on_c, 3, 67, 0
5, 163569, Note_on_c, 3, 67, 90
5, 163794, Note_on_c, 3, 67, 0
5, 163809, Note_on_c, 3, 67, 90
5, 163869, Note_on_c, 3, 67, 0
5, 163929, Note_on_c, 3, 64, 90
5, 163989, Note_on_c, 3, 64, 0
5, 164049, Note_on_c, 3, 60, 90
5, 164109, Note_on_c, 3, 60, 0
5, 164169, Control_c, 3, 11, 72
5, 164169, Note_on_c, 3, 55, 90
5, 164172, Control_c, 3, 11, 75
5, 164175, Control_c, 3, 11, 78
5, 164178, Control_c, 3, 11, 81
5, 164181, Control_c, 3, 11, 84
5, 164184, Control_c, 3, 11, 87
5, 164187, Control_c, 3, 11, 90
5, 164190, Control_c, 3, 11, 93
5, 164193, Control_c, 3, 11, 96
5, 164196, Control_c, 3, 11, 99
5, 164199, Control_c, 3, 11, 102
5, 164514, Control_c, 3, 11, 102
5, 164517, Control_c, 3, 11, 99
5, 164520, Control_c, 3, 11, 96
5, 164523, Control_c, 3, 11, 93
5, 164527, Control_c, 3, 11, 90
5, 164530, Control_c, 3, 11, 87
5, 164533, Control_c, 3, 11, 84
5, 164537, Control_c, 3, 11, 81
5, 164540, Control_c, 3, 11, 78
5, 164543, Control_c, 3, 11, 75
5, 164547, Note_on_c, 3, 55, 0
5, 164547, Control_c, 3, 11, 72
5, 164889, Control_c, 3, 11, 87
5, 164889, Note_on_c, 3, 59, 90
5, 164889, Note_on_c, 3, 62, 90
5, 165009, Note_on_c, 3, 62, 0
5, 165009, Note_on_c, 3, 59, 0
5, 165369, Note_on_c, 3, 62, 90
5, 165369, Note_on_c, 3, 59, 90
5, 165489, Note_on_c, 3, 59, 0
5, 165489, Note_on_c, 3, 62, 0
5, 165729, Note_on_c, 3, 59, 90
5, 165729, Note_on_c, 3, 62, 90
5, 165849, Note_on_c, 3, 62, 0
5, 165849, Note_on_c, 3, 59, 0
5, 165969, Note_on_c, 3, 62, 90
5, 165969, Note_on_c, 3, 59, 90
5, 166089, Note_on_c, 3, 59, 0
5, 166089, Note_on_c, 3, 62, 0
5, 166209, Note_on_c, 3, 59, 90
5, 166209, Note_on_c, 3, 62, 90
5, 166329, Note_on_c, 3, 62, 0
5, 166329, Note_on_c, 3, 59, 0
5, 166449, Note_on_c, 3, 64, 90
5, 166449, Note_on_c, 3, 60, 90
5, 166569, Note_on_c, 3, 60, 0
5, 166569, Note_on_c, 3, 64, 0
5, 166689, Note_on_c, 3, 60, 90
5, 166689, Note_on_c, 3, 64, 90
5, 166809, Note_on_c, 3, 64, 0
5, 166809, Note_on_c, 3, 60, 0
5, 166929, Note_on_c, 3, 64, 90
5, 166929, Note_on_c, 3, 60, 90
5, 167049, Note_on_c, 3, 60, 0
5, 167049, Note_on_c, 3, 64, 0
5, 167049, Control_c, 3, 11, 92
5, 167049, Note_on_c, 3, 60, 90
5, 167065, Control_c, 3, 11, 89
5, 167081, Control_c, 3, 11, 86
5, 167097, Control_c, 3, 11, 83
5, 167113, Control_c, 3, 11, 80
5, 167129, Control_c, 3, 11, 77
5, 167145, Control_c, 3, 11, 74
5, 167161, Control_c, 3, 11, 71
5, 167177, Control_c, 3, 11, 68
5, 167193, Control_c, 3, 11, 65
5, 167209, Control_c, 3, 11, 62
5, 167225, Control_c, 3, 11, 59
5, 167241, Control_c, 3, 11, 56
5, 167257, Control_c, 3, 11, 53
5, 167273, Control_c, 3, 11, 50
5, 167289, Control_c, 3, 11, 47
5, 168009, Control_c, 3, 11, 47
5, 168121, Control_c, 3, 11, 46
5, 168234, Control_c, 3, 11, 45
5, 168347, Control_c, 3, 11, 44
5, 168460, Control_c, 3, 11, 43
5, 168573, Control_c, 3, 11, 42
5, 168686, Control_c, 3, 11, 41
5, 168799, Control_c, 3, 11, 40
5, 168912, Control_c, 3, 11, 39
5, 169025, Control_c, 3, 11, 38
5, 169138, Control_c, 3, 11, 37
5, 169251, Control_c, 3, 11, 36
5, 169364, Control_c, 3, 11, 35
5, 169477, Control_c, 3, 11, 34
5, 169590, Control_c, 3, 11, 33
5, 169703, Control_c, 3, 11, 32
5, 169816, Control_c, 3, 11, 31
5, 169929, Control_c, 3, 11, 30
5, 170109, Control_c, 3, 11, 30
5, 170129, Control_c, 3, 11, 29
5, 170149, Control_c, 3, 11, 28
5, 170169, Control_c, 3, 11, 27
5, 170189, Control_c, 3, 11, 26
5, 170209, Control_c, 3, 11, 25
5, 170229, Control_c, 3, 11, 24
5, 170249, Control_c, 3, 11, 23
5, 170269, Control_c, 3, 11, 22
5, 170289, Control_c, 3, 11, 21
5, 170305, Control_c, 3, 11, 18
5, 170321, Control_c, 3, 11, 15
5, 170338, Control_c, 3, 11, 12
5, 170349, Note_on_c, 3, 60, 0
5, 170409, Control_c, 3, 11, 102
5, 170409, Note_on_c, 3, 64, 90
5, 170409, Note_on_c, 3, 60, 90
5, 170529, Note_on_c, 3, 60, 0
5, 170529, Note_on_c, 3, 64, 0
5, 171369, Note_on_c, 3, 60, 90
5, 171369, Note_on_c, 3, 64, 90
5, 171489, Note_on_c, 3, 64, 0
5, 171489, Note_on_c, 3, 60, 0
5, 171849, Note_on_c, 3, 48, 90
5, 171849, Note_on_c, 3, 60, 90
5, 171969, Note_on_c, 3, 60, 0
5, 171969, Note_on_c, 3, 48, 0
5, 172329, Control_c, 3, 11, 112
5, 172329, Note_on_c, 3, 48, 90
5, 172449, Note_on_c, 3, 48, 0
5, 172809, Control_c, 3, 121, 0
5, 172809, End_track
6, 0, Start_track
6, 0, MIDI_port, 0
6, 0, Title_t, "Corni I II in C"
6, 0, Program_c, 4, 60
6, 0, Control_c, 4, 10, 24
6, 2, Control_c, 4, 121, 0
6, 7, Program_c, 4, 60
6, 12, Pitch_bend_c, 4, 8292
6, 17, Control_c, 4, 11, 102
6, 22, Control_c, 4, 7, 127
6, 27, Control_c, 4, 91, 80
6, 32, Control_c, 4, 93, 0
6, 3842, Control_c, 4, 11, 100
6, 3842, Note_on_c, 4, 55, 90
6, 3842, Note_on_c, 4, 67, 90
6, 3852, Control_c, 4, 11, 87
6, 3871, Control_c, 4, 11, 84
6, 3891, Control_c, 4, 11, 81
6, 3911, Control_c, 4, 11, 78
6, 3931, Control_c, 4, 11, 75
6, 3951, Control_c, 4, 11, 72
6, 3971, Control_c, 4, 11, 69
6, 3991, Control_c, 4, 11, 66
6, 4011, Control_c, 4, 11, 63
6, 4031, Control_c, 4, 11, 60
6, 4050, Control_c, 4, 11, 57
6, 4070, Control_c, 4, 11, 54
6, 4090, Control_c, 4, 11, 51
6, 4110, Control_c, 4, 11, 48
6, 4130, Control_c, 4, 11, 45
6, 4150, Control_c, 4, 11, 42
6, 4170, Control_c, 4, 11, 39
6, 4172, Note_on_c, 4, 67, 0
6, 4172, Note_on_c, 4, 55, 0
6, 5162, Control_c, 4, 11, 32
6, 5162, Note_on_c, 4, 60, 90
6, 5168, Control_c, 4, 11, 35
6, 5174, Control_c, 4, 11, 38
6, 5180, Control_c, 4, 11, 41
6, 5186, Control_c, 4, 11, 44
6, 5192, Control_c, 4, 11, 47
6, 5642, Note_on_c, 4, 60, 0
6, 5642, Note_on_c, 4, 60, 113
6, 5702, Note_on_c, 4, 60, 0
6, 5702, Note_on_c, 4, 60, 106
6, 5762, Note_on_c, 4, 60, 0
6, 5762, Control_c, 4, 11, 67
6, 5762, Note_on_c, 4, 67, 110
6, 5766, Control_c, 4, 11, 70
6, 5771, Control_c, 4, 11, 73
6, 5775, Control_c, 4, 11, 76
6, 5780, Control_c, 4, 11, 79
6, 5784, Control_c, 4, 11, 82
6, 5789, Control_c, 4, 11, 85
6, 5942, Note_on_c, 4, 67, 0
6, 9542, Control_c, 4, 11, 47
6, 9542, Note_on_c, 4, 62, 90
6, 9602, Note_on_c, 4, 62, 0
6, 9602, Control_c, 4, 11, 67
6, 9602, Note_on_c, 4, 55, 90
6, 9602, Note_on_c, 4, 62, 90
6, 9605, Control_c, 4, 11, 70
6, 9608, Control_c, 4, 11, 73
6, 9611, Control_c, 4, 11, 76
6, 9614, Control_c, 4, 11, 79
6, 9617, Control_c, 4, 11, 82
6, 9620, Control_c, 4, 11, 85
6, 9782, Note_on_c, 4, 62, 0
6, 9782, Note_on_c, 4, 55, 0
6, 12962, Control_c, 4, 11, 22
6, 12962, Note_on_c, 4, 43, 75
6, 12962, Note_on_c, 4, 55, 75
6, 12980, Control_c, 4, 11, 25
6, 12998, Control_c, 4, 11, 28
6, 13016, Control_c, 4, 11, 31
6, 13034, Control_c, 4, 11, 34
6, 13052, Control_c, 4, 11, 37
6, 14582, Note_on_c, 4, 55, 0
6, 14582, Note_on_c, 4, 43, 0
6, 15362, Control_c, 4, 11, 20
6, 15362, Note_on_c, 4, 60, 90
6, 15377, Control_c, 4, 11, 22
6, 15392, Control_c, 4, 11, 24
6, 15407, Control_c, 4, 11, 26
6, 15422, Control_c, 4, 11, 28
6, 15437, Control_c, 4, 11, 30
6, 15452, Control_c, 4, 11, 31
6, 15467, Control_c, 4, 11, 32
6, 15482, Control_c, 4, 11, 33
6, 15497, Control_c, 4, 11, 34
6, 15512, Control_c, 4, 11, 35
6, 15527, Control_c, 4, 11, 36
6, 15542, Control_c, 4, 11, 37
6, 15842, Note_on_c, 4, 60, 0
6, 15842, Note_on_c, 4, 55, 70
6, 15962, Note_on_c, 4, 55, 0
6, 16562, Control_c, 4, 11, 63
6, 16562, Note_on_c, 4, 48, 90
6, 16562, Note_on_c, 4, 60, 90
6, 16565, Control_c, 4, 11, 66
6, 16568, Control_c, 4, 11, 69
6, 16572, Control_c, 4, 11, 72
6, 16575, Control_c, 4, 11, 75
6, 16579, Control_c, 4, 11, 78
6, 16582, Control_c, 4, 11, 81
6, 16597, Control_c, 4, 11, 81
6, 16615, Control_c, 4, 11, 78
6, 16633, Control_c, 4, 11, 75
6, 16651, Control_c, 4, 11, 72
6, 16669, Control_c, 4, 11, 69
6, 16687, Control_c, 4, 11, 66
6, 16705, Control_c, 4, 11, 63
6, 16723, Control_c, 4, 11, 60
6, 16741, Control_c, 4, 11, 57
6, 16759, Control_c, 4, 11, 54
6, 16777, Control_c, 4, 11, 51
6, 16795, Control_c, 4, 11, 48
6, 16802, Note_on_c, 4, 60, 0
6, 16802, Note_on_c, 4, 48, 0
6, 16802, Note_on_c, 4, 55, 90
6, 16802, Note_on_c, 4, 62, 90
6, 16815, Control_c, 4, 11, 48
6, 16843, Control_c, 4, 11, 50
6, 16870, Control_c, 4, 11, 52
6, 16898, Control_c, 4, 11, 54
6, 16925, Control_c, 4, 11, 56
6, 16952, Control_c, 4, 11, 58
6, 16980, Control_c, 4, 11, 60
6, 17007, Control_c, 4, 11, 62
6, 17035, Control_c, 4, 11, 64
6, 17062, Control_c, 4, 11, 66
6, 17090, Control_c, 4, 11, 68
6, 17117, Control_c, 4, 11, 70
6, 17144, Control_c, 4, 11, 72
6, 17172, Control_c, 4, 11, 74
6, 17199, Control_c, 4, 11, 76
6, 17227, Control_c, 4, 11, 78
6, 17254, Control_c, 4, 11, 80
6, 17282, Note_on_c, 4, 62, 0
6, 17282, Note_on_c, 4, 55, 0
6, 17282, Control_c, 4, 11, 82
6, 17282, Note_on_c, 4, 48, 90
6, 17282, Note_on_c, 4, 60, 90
6, 17309, Control_c, 4, 11, 80
6, 17336, Control_c, 4, 11, 78
6, 17364, Control_c, 4, 11, 76
6, 17391, Control_c, 4, 11, 74
6, 17419, Control_c, 4, 11, 72
6, 17446, Control_c, 4, 11, 70
6, 17474, Control_c, 4, 11, 68
6, 17501, Control_c, 4, 11, 66
6, 17528, Control_c, 4, 11, 64
6, 17556, Control_c, 4, 11, 62
6, 17583, Control_c, 4, 11, 60
6, 17611, Control_c, 4, 11, 58
6, 17638, Control_c, 4, 11, 56
6, 17666, Control_c, 4, 11, 54
6, 17693, Control_c, 4, 11, 52
6, 17720, Control_c, 4, 11, 50
6, 17748, Control_c, 4, 11, 48
6, 17762, Note_on_c, 4, 60, 0
6, 17762, Note_on_c, 4, 48, 0
6, 17762, Note_on_c, 4, 55, 75
6, 17762, Note_on_c, 4, 62, 75
6, 17882, Note_on_c, 4, 62, 0
6, 17882, Note_on_c, 4, 55, 0
6, 18242, Control_c, 4, 11, 22
6, 18242, Note_on_c, 4, 62, 90
6, 18242, Note_on_c, 4, 55, 90
6, 18248, Control_c, 4, 11, 25
6, 18254, Control_c, 4, 11, 28
6, 18260, Control_c, 4, 11, 31
6, 18266, Control_c, 4, 11, 34
6, 18272, Control_c, 4, 11, 37
6, 18392, Control_c, 4, 11, 37
6, 18397, Control_c, 4, 11, 34
6, 18403, Control_c, 4, 11, 31
6, 18409, Control_c, 4, 11, 28
6, 18415, Control_c, 4, 11, 25
6, 18421, Control_c, 4, 11, 22
6, 18422, Note_on_c, 4, 55, 0
6, 18422, Note_on_c, 4, 62, 0
6, 18722, Control_c, 4, 11, 22
6, 18722, Note_on_c, 4, 62, 90
6, 18722, Note_on_c, 4, 55, 90
6, 18728, Control_c, 4, 11, 25
6, 18734, Control_c, 4, 11, 28
6, 18740, Control_c, 4, 11, 31
6, 18746, Control_c, 4, 11, 34
6, 18752, Control_c, 4, 11, 37
6, 18872, Control_c, 4, 11, 37
6, 18877, Control_c, 4, 11, 34
6, 18883, Control_c, 4, 11, 31
6, 18889, Control_c, 4, 11, 28
6, 18895, Control_c, 4, 11, 25
6, 18901, Control_c, 4, 11, 22
6, 18902, Note_on_c, 4, 55, 0
6, 18902, Note_on_c, 4, 62, 0
6, 18962, Control_c, 4, 11, 22
6, 18962, Note_on_c, 4, 62, 90
6, 18962, Note_on_c, 4, 55, 90
6, 18968, Control_c, 4, 11, 25
6, 18974, Control_c, 4, 11, 28
6, 18980, Control_c, 4, 11, 31
6, 18986, Control_c, 4, 11, 34
6, 18992, Control_c, 4, 11, 37
6, 19112, Control_c, 4, 11, 37
6, 19117, Control_c, 4, 11, 34
6, 19123, Control_c, 4, 11, 31
6, 19129, Control_c, 4, 11, 28
6, 19135, Control_c, 4, 11, 25
6, 19141, Control_c, 4, 11, 22
6, 19142, Note_on_c, 4, 55, 0
6, 19142, Note_on_c, 4, 62, 0
6, 21482, Control_c, 4, 11, 77
6, 21482, Note_on_c, 4, 55, 90
6, 21482, Note_on_c, 4, 62, 90
6, 21602, Note_on_c, 4, 62, 0
6, 21602, Note_on_c, 4, 55, 0
6, 21602, Note_on_c, 4, 60, 90
6, 21610, Control_c, 4, 11, 78
6, 21722, Note_on_c, 4, 60, 0
6, 21738, Control_c, 4, 11, 79
6, 21842, Note_on_c, 4, 62, 90
6, 21866, Control_c, 4, 11, 80
6, 21962, Note_on_c, 4, 62, 0
6, 21994, Control_c, 4, 11, 81
6, 22082, Note_on_c, 4, 64, 90
6, 22122, Control_c, 4, 11, 82
6, 22202, Note_on_c, 4, 64, 0
6, 22250, Control_c, 4, 11, 83
6, 22322, Note_on_c, 4, 62, 90
6, 22322, Note_on_c, 4, 65, 90
6, 22378, Control_c, 4, 11, 84
6, 22442, Note_on_c, 4, 65, 0
6, 22442, Note_on_c, 4, 62, 0
6, 22442, Note_on_c, 4, 55, 90
6, 22442, Note_on_c, 4, 62, 90
6, 22506, Control_c, 4, 11, 85
6, 22562, Note_on_c, 4, 62, 0
6, 22562, Note_on_c, 4, 55, 0
6, 22562, Note_on_c, 4, 60, 90
6, 22634, Control_c, 4, 11, 86
6, 22682, Note_on_c, 4, 60, 0
6, 22762, Control_c, 4, 11, 87
6, 22802, Note_on_c, 4, 62, 90
6, 22890, Control_c, 4, 11, 88
6, 22922, Note_on_c, 4, 62, 0
6, 23018, Control_c, 4, 11, 89
6, 23042, Note_on_c, 4, 64, 90
6, 23146, Control_c, 4, 11, 90
6, 23162, Note_on_c, 4, 64, 0
6, 23274, Control_c, 4, 11, 91
6, 23282, Note_on_c, 4, 62, 90
6, 23282, Note_on_c, 4, 65, 90
6, 23402, Note_on_c, 4, 65, 0
6, 23402, Note_on_c, 4, 62, 0
6, 23402, Control_c, 4, 11, 92
6, 23402, Note_on_c, 4, 55, 90
6, 23402, Note_on_c, 4, 62, 90
6, 23522, Note_on_c, 4, 62, 0
6, 23522, Note_on_c, 4, 55, 0
6, 23522, Note_on_c, 4, 60, 90
6, 23642, Note_on_c, 4, 60, 0
6, 23762, Note_on_c, 4, 55, 90
6, 23762, Note_on_c, 4, 62, 90
6, 23882, Note_on_c, 4, 62, 0
6, 23882, Note_on_c, 4, 55, 0
6, 23906, Control_c, 4, 11, 93
6, 24002, Note_on_c, 4, 64, 90
6, 24002, Note_on_c, 4, 60, 90
6, 24122, Note_on_c, 4, 60, 0
6, 24122, Note_on_c, 4, 64, 0
6, 24242, Note_on_c, 4, 65, 90
6, 24242, Note_on_c, 4, 62, 90
6, 24362, Note_on_c, 4, 62, 0
6, 24362, Note_on_c, 4, 65, 0
6, 24410, Control_c, 4, 11, 94
6, 24482, Note_on_c, 4, 60, 90
6, 24482, Note_on_c, 4, 64, 90
6, 24602, Note_on_c, 4, 64, 0
6, 24602, Note_on_c, 4, 60, 0
6, 24722, Note_on_c, 4, 55, 90
6, 24722, Note_on_c, 4, 62, 90
6, 24842, Note_on_c, 4, 62, 0
6, 24842, Note_on_c, 4, 55, 0
6, 24914, Control_c, 4, 11, 95
6, 24962, Note_on_c, 4, 48, 90
6, 24962, Note_on_c, 4, 60, 90
6, 25082, Note_on_c, 4, 60, 0
6, 25082, Note_on_c, 4, 48, 0
6, 25202, Note_on_c, 4, 60, 90
6, 25322, Note_on_c, 4, 60, 0
6, 25418, Control_c, 4, 11, 96
6, 25442, Note_on_c, 4, 55, 90
6, 25442, Note_on_c, 4, 62, 90
6, 25562, Note_on_c, 4, 62, 0
6, 25562, Note_on_c, 4, 55, 0
6, 25682, Note_on_c, 4, 60, 90
6, 25802, Note_on_c, 4, 60, 0
6, 25922, Control_c, 4, 11, 97
6, 25922, Note_on_c, 4, 62, 90
6, 25922, Note_on_c, 4, 55, 90
6, 26032, Note_on_c, 4, 55, 0
6, 26032, Note_on_c, 4, 62, 0
6, 26042, Note_on_c, 4, 62, 90
6, 26042, Note_on_c, 4, 55, 90
6, 26102, Control_c, 4, 11, 98
6, 26152, Note_on_c, 4, 55, 0
6, 26152, Note_on_c, 4, 62, 0
6, 26162, Note_on_c, 4, 62, 90
6, 26162, Note_on_c, 4, 55, 90
6, 26272, Note_on_c, 4, 55, 0
6, 26272, Note_on_c, 4, 62, 0
6, 26282, Control_c, 4, 11, 99
6, 26282, Note_on_c, 4, 62, 90
6, 26282, Note_on_c, 4, 55, 90
6, 26392, Note_on_c, 4, 55, 0
6, 26392, Note_on_c, 4, 62, 0
6, 26402, Note_on_c, 4, 62, 90
6, 26402, Note_on_c, 4, 55, 90
6, 26462, Control_c, 4, 11, 100
6, 26512, Note_on_c, 4, 55, 0
6, 26512, Note_on_c, 4, 62, 0
6, 26522, Note_on_c, 4, 62, 90
6, 26522, Note_on_c, 4, 55, 90
6, 26632, Note_on_c, 4, 55, 0
6, 26632, Note_on_c, 4, 62, 0
6, 26642, Control_c, 4, 11, 101
6, 26642, Note_on_c, 4, 62, 90
6, 26642, Note_on_c, 4, 55, 90
6, 26752, Note_on_c, 4, 55, 0
6, 26752, Note_on_c, 4, 62, 0
6, 26762, Note_on_c, 4, 62, 90
6, 26762, Note_on_c, 4, 55, 90
6, 26822, Control_c, 4, 11, 102
6, 26872, Note_on_c, 4, 55, 0
6, 26872, Note_on_c, 4, 62, 0
6, 26882, Note_on_c, 4, 62, 90
6, 26882, Note_on_c, 4, 55, 90
6, 26992, Note_on_c, 4, 55, 0
6, 26992, Note_on_c, 4, 62, 0
6, 27002, Control_c, 4, 11, 103
6, 27002, Note_on_c, 4, 62, 90
6, 27002, Note_on_c, 4, 55, 90
6, 27112, Note_on_c, 4, 55, 0
6, 27112, Note_on_c, 4, 62, 0
6, 27122, Note_on_c, 4, 62, 90
6, 27122, Note_on_c, 4, 55, 90
6, 27182, Control_c, 4, 11, 104
6, 27232, Note_on_c, 4, 55, 0
6, 27232, Note_on_c, 4, 62, 0
6, 27242, Note_on_c, 4, 62, 90
6, 27242, Note_on_c, 4, 55, 90
6, 27352, Note_on_c, 4, 55, 0
6, 27352, Note_on_c, 4, 62, 0
6, 27362, Control_c, 4, 11, 105
6, 27362, Note_on_c, 4, 62, 90
6, 27362, Note_on_c, 4, 55, 90
6, 27472, Note_on_c, 4, 55, 0
6, 27472, Note_on_c, 4, 62, 0
6, 27482, Note_on_c, 4, 62, 90
6, 27482, Note_on_c, 4, 55, 90
6, 27542, Control_c, 4, 11, 106
6, 27592, Note_on_c, 4, 55, 0
6, 27592, Note_on_c, 4, 62, 0
6, 27602, Note_on_c, 4, 48, 90
6, 27602, Note_on_c, 4, 60, 90
6, 27712, Note_on_c, 4, 60, 0
6, 27712, Note_on_c, 4, 48, 0
6, 27722, Control_c, 4, 11, 107
6, 27722, Note_on_c, 4, 64, 90
6, 27832, Note_on_c, 4, 64, 0
6, 27962, Note_on_c, 4, 64, 90
6, 28082, Note_on_c, 4, 64, 0
6, 28202, Note_on_c, 4, 64, 90
6, 28322, Note_on_c, 4, 64, 0
6, 28442, Control_c, 4, 11, 77
6, 28442, Note_on_c, 4, 60, 90
6, 28442, Note_on_c, 4, 64, 90
6, 28547, Note_on_c, 4, 64, 0
6, 28547, Note_on_c, 4, 60, 0
6, 28562, Control_c, 4, 11, 77
6, 28562, Note_on_c, 4, 64, 90
6, 28562, Note_on_c, 4, 60, 90
6, 28574, Control_c, 4, 11, 74
6, 28586, Control_c, 4, 11, 71
6, 28598, Control_c, 4, 11, 68
6, 28610, Control_c, 4, 11, 65
6, 28622, Control_c, 4, 11, 62
6, 28634, Control_c, 4, 11, 59
6, 28646, Control_c, 4, 11, 56
6, 28658, Control_c, 4, 11, 53
6, 28670, Control_c, 4, 11, 50
6, 28682, Control_c, 4, 11, 47
6, 29147, Note_on_c, 4, 60, 0
6, 29147, Note_on_c, 4, 64, 0
6, 29162, Note_on_c, 4, 65, 90
6, 29162, Note_on_c, 4, 60, 90
6, 29387, Note_on_c, 4, 60, 0
6, 29387, Note_on_c, 4, 65, 0
6, 29402, Control_c, 4, 11, 77
6, 29402, Note_on_c, 4, 64, 90
6, 29402, Note_on_c, 4, 60, 90
6, 29507, Note_on_c, 4, 60, 0
6, 29507, Note_on_c, 4, 64, 0
6, 29522, Control_c, 4, 11, 77
6, 29522, Note_on_c, 4, 64, 90
6, 29522, Note_on_c, 4, 60, 90
6, 29534, Control_c, 4, 11, 74
6, 29546, Control_c, 4, 11, 71
6, 29558, Control_c, 4, 11, 68
6, 29570, Control_c, 4, 11, 65
6, 29582, Control_c, 4, 11, 62
6, 29594, Control_c, 4, 11, 59
6, 29606, Control_c, 4, 11, 56
6, 29618, Control_c, 4, 11, 53
6, 29630, Control_c, 4, 11, 50
6, 29642, Control_c, 4, 11, 47
6, 30107, Note_on_c, 4, 60, 0
6, 30107, Note_on_c, 4, 64, 0
6, 30122, Note_on_c, 4, 65, 90
6, 30122, Note_on_c, 4, 60, 90
6, 30347, Note_on_c, 4, 60, 0
6, 30347, Note_on_c, 4, 65, 0
6, 30362, Control_c, 4, 11, 77
6, 30362, Note_on_c, 4, 60, 90
6, 30362, Note_on_c, 4, 64, 90
6, 30467, Note_on_c, 4, 64, 0
6, 30467, Note_on_c, 4, 60, 0
6, 30482, Control_c, 4, 11, 77
6, 30482, Note_on_c, 4, 64, 90
6, 30482, Note_on_c, 4, 60, 90
6, 30494, Control_c, 4, 11, 74
6, 30506, Control_c, 4, 11, 71
6, 30518, Control_c, 4, 11, 68
6, 30530, Control_c, 4, 11, 65
6, 30542, Control_c, 4, 11, 62
6, 30554, Control_c, 4, 11, 59
6, 30566, Control_c, 4, 11, 56
6, 30578, Control_c, 4, 11, 53
6, 30590, Control_c, 4, 11, 50
6, 30602, Control_c, 4, 11, 47
6, 30827, Note_on_c, 4, 60, 0
6, 30827, Note_on_c, 4, 64, 0
6, 30842, Note_on_c, 4, 64, 90
6, 30842, Note_on_c, 4, 60, 90
6, 30947, Note_on_c, 4, 60, 0
6, 30947, Note_on_c, 4, 64, 0
6, 30962, Control_c, 4, 11, 47
6, 30962, Note_on_c, 4, 64, 90
6, 30962, Note_on_c, 4, 60, 90
6, 31007, Control_c, 4, 11, 48
6, 31052, Control_c, 4, 11, 49
6, 31097, Control_c, 4, 11, 50
6, 31142, Control_c, 4, 11, 51
6, 31187, Control_c, 4, 11, 52
6, 31232, Control_c, 4, 11, 53
6, 31277, Control_c, 4, 11, 54
6, 31307, Note_on_c, 4, 60, 0
6, 31307, Note_on_c, 4, 64, 0
6, 31322, Control_c, 4, 11, 55
6, 31322, Note_on_c, 4, 62, 90
6, 31322, Note_on_c, 4, 60, 90
6, 31367, Control_c, 4, 11, 56
6, 31412, Control_c, 4, 11, 57
6, 31427, Note_on_c, 4, 60, 0
6, 31427, Note_on_c, 4, 62, 0
6, 31442, Note_on_c, 4, 62, 90
6, 31442, Note_on_c, 4, 60, 90
6, 31457, Control_c, 4, 11, 58
6, 31502, Control_c, 4, 11, 59
6, 31547, Control_c, 4, 11, 60
6, 31592, Control_c, 4, 11, 61
6, 31637, Control_c, 4, 11, 62
6, 31682, Control_c, 4, 11, 63
6, 31727, Control_c, 4, 11, 64
6, 31772, Control_c, 4, 11, 65
6, 31787, Note_on_c, 4, 60, 0
6, 31787, Note_on_c, 4, 62, 0
6, 31802, Note_on_c, 4, 65, 90
6, 31817, Control_c, 4, 11, 66
6, 31862, Control_c, 4, 11, 67
6, 31907, Note_on_c, 4, 65, 0
6, 31907, Control_c, 4, 11, 68
6, 31922, Note_on_c, 4, 65, 90
6, 31922, Note_on_c, 4, 62, 90
6, 31952, Control_c, 4, 11, 69
6, 31997, Control_c, 4, 11, 70
6, 32042, Control_c, 4, 11, 71
6, 32087, Control_c, 4, 11, 72
6, 32132, Control_c, 4, 11, 73
6, 32177, Control_c, 4, 11, 74
6, 32222, Control_c, 4, 11, 75
6, 32267, Note_on_c, 4, 62, 0
6, 32267, Note_on_c, 4, 65, 0
6, 32267, Control_c, 4, 11, 76
6, 32282, Note_on_c, 4, 60, 90
6, 32282, Note_on_c, 4, 64, 90
6, 32312, Control_c, 4, 11, 77
6, 32357, Control_c, 4, 11, 78
6, 32387, Note_on_c, 4, 64, 0
6, 32387, Note_on_c, 4, 60, 0
6, 32402, Control_c, 4, 11, 79
6, 32402, Note_on_c, 4, 64, 90
6, 32402, Note_on_c, 4, 60, 90
6, 32447, Control_c, 4, 11, 80
6, 32492, Control_c, 4, 11, 81
6, 32537, Control_c, 4, 11, 82
6, 32582, Control_c, 4, 11, 83
6, 32627, Control_c, 4, 11, 84
6, 32672, Control_c, 4, 11, 85
6, 32717, Control_c, 4, 11, 86
6, 32747, Note_on_c, 4, 60, 0
6, 32747, Note_on_c, 4, 64, 0
6, 32762, Control_c, 4, 11, 87
6, 32762, Note_on_c, 4, 60, 90
6, 32762, Note_on_c, 4, 64, 90
6, 32867, Note_on_c, 4, 64, 0
6, 32867, Note_on_c, 4, 60, 0
6, 32882, Note_on_c, 4, 64, 90
6, 32882, Note_on_c, 4, 60, 90
6, 33227, Note_on_c, 4, 60, 0
6, 33227, Note_on_c, 4, 64, 0
6, 33242, Note_on_c, 4, 62, 90
6, 33242, Note_on_c, 4, 60, 90
6, 33347, Note_on_c, 4, 60, 0
6, 33347, Note_on_c, 4, 62, 0
6, 33362, Note_on_c, 4, 62, 90
6, 33362, Note_on_c, 4, 60, 90
6, 33707, Note_on_c, 4, 60, 0
6, 33707, Note_on_c, 4, 62, 0
6, 33722, Control_c, 4, 11, 95
6, 33722, Note_on_c, 4, 62, 90
6, 33722, Note_on_c, 4, 60, 90
6, 33827, Note_on_c, 4, 60, 0
6, 33827, Note_on_c, 4, 62, 0
6, 33842, Note_on_c, 4, 62, 90
6, 33842, Note_on_c, 4, 60, 90
6, 34187, Note_on_c, 4, 60, 0
6, 34187, Note_on_c, 4, 62, 0
6, 34202, Note_on_c, 4, 62, 90
6, 34202, Note_on_c, 4, 60, 90
6, 34307, Note_on_c, 4, 60, 0
6, 34307, Note_on_c, 4, 62, 0
6, 34322, Note_on_c, 4, 62, 90
6, 34322, Note_on_c, 4, 60, 90
6, 34667, Note_on_c, 4, 60, 0
6, 34667, Note_on_c, 4, 62, 0
6, 34682, Note_on_c, 4, 62, 90
6, 34682, Note_on_c, 4, 60, 90
6, 34787, Note_on_c, 4, 60, 0
6, 34787, Note_on_c, 4, 62, 0
6, 34802, Note_on_c, 4, 62, 90
6, 34802, Note_on_c, 4, 60, 90
6, 35027, Note_on_c, 4, 60, 0
6, 35027, Note_on_c, 4, 62, 0
6, 35042, Note_on_c, 4, 55, 90
6, 35042, Note_on_c, 4, 62, 90
6, 35152, Note_on_c, 4, 62, 0
6, 35152, Note_on_c, 4, 55, 0
6, 35162, Control_c, 4, 11, 102
6, 35162, Note_on_c, 4, 55, 90
6, 35162, Note_on_c, 4, 67, 90
6, 35192, Control_c, 4, 11, 102
6, 35196, Control_c, 4, 11, 99
6, 35201, Control_c, 4, 11, 96
6, 35206, Control_c, 4, 11, 93
6, 35211, Control_c, 4, 11, 90
6, 35216, Control_c, 4, 11, 87
6, 35221, Control_c, 4, 11, 84
6, 35226, Control_c, 4, 11, 81
6, 35231, Control_c, 4, 11, 78
6, 35236, Control_c, 4, 11, 75
6, 35241, Control_c, 4, 11, 72
6, 35246, Control_c, 4, 11, 69
6, 35250, Control_c, 4, 11, 66
6, 35255, Control_c, 4, 11, 63
6, 35260, Control_c, 4, 11, 60
6, 35265, Control_c, 4, 11, 57
6, 35270, Control_c, 4, 11, 54
6, 35275, Control_c, 4, 11, 51
6, 35280, Control_c, 4, 11, 48
6, 36962, Control_c, 4, 11, 37
6, 36984, Control_c, 4, 11, 38
6, 37006, Control_c, 4, 11, 39
6, 37028, Control_c, 4, 11, 40
6, 37050, Control_c, 4, 11, 41
6, 37072, Control_c, 4, 11, 42
6, 37094, Control_c, 4, 11, 43
6, 37117, Control_c, 4, 11, 44
6, 37139, Control_c, 4, 11, 45
6, 37161, Control_c, 4, 11, 46
6, 37183, Control_c, 4, 11, 47
6, 37205, Control_c, 4, 11, 48
6, 37227, Control_c, 4, 11, 49
6, 37250, Control_c, 4, 11, 50
6, 37272, Control_c, 4, 11, 51
6, 37294, Control_c, 4, 11, 52
6, 37316, Control_c, 4, 11, 53
6, 37338, Control_c, 4, 11, 54
6, 37360, Control_c, 4, 11, 55
6, 37382, Control_c, 4, 11, 56
6, 37405, Control_c, 4, 11, 57
6, 37427, Control_c, 4, 11, 58
6, 37449, Control_c, 4, 11, 59
6, 37471, Control_c, 4, 11, 60
6, 37493, Control_c, 4, 11, 61
6, 37515, Control_c, 4, 11, 62
6, 37538, Control_c, 4, 11, 63
6, 37560, Control_c, 4, 11, 64
6, 37582, Control_c, 4, 11, 65
6, 37604, Control_c, 4, 11, 66
6, 37626, Control_c, 4, 11, 67
6, 37648, Control_c, 4, 11, 68
6, 37670, Control_c, 4, 11, 69
6, 37693, Control_c, 4, 11, 70
6, 37715, Control_c, 4, 11, 71
6, 37737, Control_c, 4, 11, 72
6, 37759, Control_c, 4, 11, 73
6, 37781, Control_c, 4, 11, 74
6, 37803, Control_c, 4, 11, 75
6, 37826, Control_c, 4, 11, 76
6, 37848, Control_c, 4, 11, 77
6, 37870, Control_c, 4, 11, 78
6, 37892, Control_c, 4, 11, 79
6, 37914, Control_c, 4, 11, 80
6, 37936, Control_c, 4, 11, 81
6, 37958, Control_c, 4, 11, 82
6, 37981, Control_c, 4, 11, 83
6, 38003, Control_c, 4, 11, 84
6, 38025, Control_c, 4, 11, 85
6, 38047, Control_c, 4, 11, 86
6, 38069, Control_c, 4, 11, 87
6, 38091, Control_c, 4, 11, 88
6, 38114, Control_c, 4, 11, 89
6, 38136, Control_c, 4, 11, 90
6, 38158, Control_c, 4, 11, 91
6, 38180, Control_c, 4, 11, 92
6, 38202, Control_c, 4, 11, 93
6, 38224, Control_c, 4, 11, 94
6, 38246, Control_c, 4, 11, 95
6, 38269, Control_c, 4, 11, 96
6, 38291, Control_c, 4, 11, 97
6, 38313, Control_c, 4, 11, 98
6, 38335, Control_c, 4, 11, 99
6, 38357, Control_c, 4, 11, 100
6, 38379, Control_c, 4, 11, 101
6, 38402, Control_c, 4, 11, 102
6, 38762, Note_on_c, 4, 67, 0
6, 38762, Note_on_c, 4, 55, 0
6, 38822, Control_c, 4, 11, 102
6, 38822, Note_on_c, 4, 48, 90
6, 38822, Note_on_c, 4, 60, 90
6, 38882, Note_on_c, 4, 60, 0
6, 38882, Note_on_c, 4, 48, 0
6, 38882, Note_on_c, 4, 64, 90
6, 38882, Note_on_c, 4, 52, 90
6, 39002, Note_on_c, 4, 52, 0
6, 39002, Note_on_c, 4, 64, 0
6, 39062, Note_on_c, 4, 64, 90
6, 39062, Note_on_c, 4, 52, 90
6, 39122, Note_on_c, 4, 52, 0
6, 39122, Note_on_c, 4, 64, 0
6, 39122, Note_on_c, 4, 55, 90
6, 39122, Note_on_c, 4, 67, 90
6, 39242, Note_on_c, 4, 67, 0
6, 39242, Note_on_c, 4, 55, 0
6, 39302, Note_on_c, 4, 55, 90
6, 39302, Note_on_c, 4, 67, 90
6, 39362, Note_on_c, 4, 67, 0
6, 39362, Note_on_c, 4, 55, 0
6, 39362, Note_on_c, 4, 48, 90
6, 39362, Note_on_c, 4, 60, 90
6, 39482, Note_on_c, 4, 60, 0
6, 39482, Note_on_c, 4, 48, 0
6, 39482, Note_on_c, 4, 48, 90
6, 39482, Note_on_c, 4, 60, 90
6, 39602, Note_on_c, 4, 60, 0
6, 39602, Note_on_c, 4, 48, 0
6, 39602, Note_on_c, 4, 48, 90
6, 39602, Note_on_c, 4, 60, 90
6, 46202, Note_on_c, 4, 60, 0
6, 46202, Note_on_c, 4, 48, 0
6, 49082, Control_c, 4, 11, 67
6, 49082, Note_on_c, 4, 62, 90
6, 49082, Note_on_c, 4, 60, 90
6, 49100, Control_c, 4, 11, 66
6, 49118, Control_c, 4, 11, 65
6, 49136, Control_c, 4, 11, 64
6, 49154, Control_c, 4, 11, 63
6, 49172, Control_c, 4, 11, 62
6, 49190, Control_c, 4, 11, 61
6, 49202, Note_on_c, 4, 60, 0
6, 49202, Note_on_c, 4, 62, 0
6, 49202, Note_on_c, 4, 62, 90
6, 49202, Note_on_c, 4, 60, 90
6, 49208, Control_c, 4, 11, 60
6, 49226, Control_c, 4, 11, 59
6, 49244, Control_c, 4, 11, 58
6, 49262, Control_c, 4, 11, 57
6, 49280, Control_c, 4, 11, 56
6, 49298, Control_c, 4, 11, 55
6, 49316, Control_c, 4, 11, 54
6, 49322, Note_on_c, 4, 60, 0
6, 49322, Note_on_c, 4, 62, 0
6, 49322, Note_on_c, 4, 62, 90
6, 49322, Note_on_c, 4, 60, 90
6, 49334, Control_c, 4, 11, 53
6, 49352, Control_c, 4, 11, 52
6, 49370, Control_c, 4, 11, 51
6, 49388, Control_c, 4, 11, 50
6, 49406, Control_c, 4, 11, 49
6, 49424, Control_c, 4, 11, 48
6, 49442, Note_on_c, 4, 60, 0
6, 49442, Note_on_c, 4, 62, 0
6, 49442, Control_c, 4, 11, 47
6, 49442, Note_on_c, 4, 62, 90
6, 49442, Note_on_c, 4, 60, 90
6, 49562, Note_on_c, 4, 60, 0
6, 49562, Note_on_c, 4, 62, 0
6, 49562, Note_on_c, 4, 62, 90
6, 49562, Note_on_c, 4, 60, 90
6, 49682, Note_on_c, 4, 60, 0
6, 49682, Note_on_c, 4, 62, 0
6, 49682, Note_on_c, 4, 62, 90
6, 49682, Note_on_c, 4, 60, 90
6, 49802, Note_on_c, 4, 60, 0
6, 49802, Note_on_c, 4, 62, 0
6, 49802, Note_on_c, 4, 62, 90
6, 49802, Note_on_c, 4, 60, 90
6, 49922, Note_on_c, 4, 60, 0
6, 49922, Note_on_c, 4, 62, 0
6, 49922, Note_on_c, 4, 62, 90
6, 49922, Note_on_c, 4, 60, 90
6, 50042, Note_on_c, 4, 60, 0
6, 50042, Note_on_c, 4, 62, 0
6, 63362, Control_c, 4, 11, 87
6, 63362, Note_on_c, 4, 62, 90
6, 63362, Note_on_c, 4, 60, 90
6, 64202, Note_on_c, 4, 60, 0
6, 64202, Note_on_c, 4, 62, 0
6, 64202, Note_on_c, 4, 62, 90
6, 64202, Note_on_c, 4, 60, 90
6, 64322, Note_on_c, 4, 60, 0
6, 64322, Note_on_c, 4, 62, 0
6, 64322, Note_on_c, 4, 55, 90
6, 64322, Note_on_c, 4, 62, 90
6, 65162, Note_on_c, 4, 62, 0
6, 65162, Note_on_c, 4, 55, 0
6, 65162, Note_on_c, 4, 65, 90
6, 65162, Note_on_c, 4, 62, 90
6, 65282, Note_on_c, 4, 62, 0
6, 65282, Note_on_c, 4, 65, 0
6, 65282, Control_c, 4, 11, 95
6, 65282, Note_on_c, 4, 60, 90
6, 65282, Note_on_c, 4, 64, 90
6, 65402, Note_on_c, 4, 64, 0
6, 65402, Note_on_c, 4, 60, 0
6, 65642, Note_on_c, 4, 64, 90
6, 65642, Note_on_c, 4, 60, 90
6, 65762, Note_on_c, 4, 60, 0
6, 65762, Note_on_c, 4, 64, 0
6, 65762, Note_on_c, 4, 65, 90
6, 65762, Note_on_c, 4, 62, 90
6, 65882, Note_on_c, 4, 62, 0
6, 65882, Note_on_c, 4, 65, 0
6, 66122, Note_on_c, 4, 65, 90
6, 66122, Note_on_c, 4, 62, 90
6, 66242, Note_on_c, 4, 62, 0
6, 66242, Note_on_c, 4, 65, 0
6, 66242, Note_on_c, 4, 60, 90
6, 66242, Note_on_c, 4, 64, 90
6, 66362, Note_on_c, 4, 64, 0
6, 66362, Note_on_c, 4, 60, 0
6, 66602, Note_on_c, 4, 60, 90
6, 66602, Note_on_c, 4, 64, 90
6, 66722, Note_on_c, 4, 64, 0
6, 66722, Note_on_c, 4, 60, 0
6, 66722, Note_on_c, 4, 55, 90
6, 66722, Note_on_c, 4, 62, 90
6, 66842, Note_on_c, 4, 62, 0
6, 66842, Note_on_c, 4, 55, 0
6, 67082, Note_on_c, 4, 62, 90
6, 67082, Note_on_c, 4, 55, 90
6, 67202, Note_on_c, 4, 55, 0
6, 67202, Note_on_c, 4, 62, 0
6, 67202, Note_on_c, 4, 64, 90
6, 67202, Note_on_c, 4, 60, 90
6, 67322, Note_on_c, 4, 60, 0
6, 67322, Note_on_c, 4, 64, 0
6, 67562, Note_on_c, 4, 64, 90
6, 67562, Note_on_c, 4, 60, 90
6, 67682, Note_on_c, 4, 60, 0
6, 67682, Note_on_c, 4, 64, 0
6, 67682, Note_on_c, 4, 62, 90
6, 67682, Note_on_c, 4, 60, 90
6, 67802, Note_on_c, 4, 60, 0
6, 67802, Note_on_c, 4, 62, 0
6, 68042, Note_on_c, 4, 62, 90
6, 68042, Note_on_c, 4, 60, 90
6, 68162, Note_on_c, 4, 60, 0
6, 68162, Note_on_c, 4, 62, 0
6, 68162, Control_c, 4, 11, 102
6, 68162, Note_on_c, 4, 43, 90
6, 68162, Note_on_c, 4, 55, 90
6, 70322, Note_on_c, 4, 55, 0
6, 70322, Note_on_c, 4, 43, 0
6, 70322, Note_on_c, 4, 43, 90
6, 70322, Note_on_c, 4, 55, 90
6, 70802, Note_on_c, 4, 55, 0
6, 70802, Note_on_c, 4, 43, 0
6, 70802, Note_on_c, 4, 43, 90
6, 70802, Note_on_c, 4, 55, 90
6, 71042, Note_on_c, 4, 55, 0
6, 71042, Note_on_c, 4, 43, 0
6, 71042, Note_on_c, 4, 43, 90
6, 71042, Note_on_c, 4, 55, 90
6, 71402, Note_on_c, 4, 55, 0
6, 71402, Note_on_c, 4, 43, 0
6, 72002, Note_on_c, 4, 64, 90
6, 72002, Note_on_c, 4, 48, 90
6, 72122, Note_on_c, 4, 48, 0
6, 72122, Note_on_c, 4, 64, 0
6, 72242, Note_on_c, 4, 48, 90
6, 72242, Note_on_c, 4, 64, 90
6, 72362, Note_on_c, 4, 64, 0
6, 72362, Note_on_c, 4, 48, 0
6, 72482, Note_on_c, 4, 48, 90
6, 72482, Note_on_c, 4, 64, 90
6, 72602, Note_on_c, 4, 64, 0
6, 72602, Note_on_c, 4, 48, 0
6, 72722, Note_on_c, 4, 64, 90
6, 72722, Note_on_c, 4, 48, 90
6, 72842, Note_on_c, 4, 48, 0
6, 72842, Note_on_c, 4, 64, 0
6, 72962, Note_on_c, 4, 48, 90
6, 72962, Note_on_c, 4, 64, 90
6, 73082, Note_on_c, 4, 64, 0
6, 73082, Note_on_c, 4, 48, 0
6, 73082, Note_on_c, 4, 48, 90
6, 73082, Note_on_c, 4, 64, 90
6, 73202, Note_on_c, 4, 64, 0
6, 73202, Note_on_c, 4, 48, 0
6, 73202, Note_on_c, 4, 64, 90
6, 73202, Note_on_c, 4, 48, 90
6, 73322, Note_on_c, 4, 48, 0
6, 73322, Note_on_c, 4, 64, 0
6, 74882, Note_on_c, 4, 64, 90
6, 74882, Note_on_c, 4, 48, 90
6, 75002, Note_on_c, 4, 48, 0
6, 75002, Note_on_c, 4, 64, 0
6, 75122, Note_on_c, 4, 48, 90
6, 75122, Note_on_c, 4, 64, 90
6, 75242, Note_on_c, 4, 64, 0
6, 75242, Note_on_c, 4, 48, 0
6, 75362, Note_on_c, 4, 48, 90
6, 75362, Note_on_c, 4, 64, 90
6, 75482, Note_on_c, 4, 64, 0
6, 75482, Note_on_c, 4, 48, 0
6, 75602, Note_on_c, 4, 64, 90
6, 75602, Note_on_c, 4, 48, 90
6, 75722, Note_on_c, 4, 48, 0
6, 75722, Note_on_c, 4, 64, 0
6, 75842, Note_on_c, 4, 48, 90
6, 75842, Note_on_c, 4, 64, 90
6, 75962, Note_on_c, 4, 64, 0
6, 75962, Note_on_c, 4, 48, 0
6, 75962, Note_on_c, 4, 48, 90
6, 75962, Note_on_c, 4, 64, 90
6, 76082, Note_on_c, 4, 64, 0
6, 76082, Note_on_c, 4, 48, 0
6, 76082, Note_on_c, 4, 64, 90
6, 76082, Note_on_c, 4, 48, 90
6, 76202, Note_on_c, 4, 48, 0
6, 76202, Note_on_c, 4, 64, 0
6, 79562, Note_on_c, 4, 67, 90
6, 79682, Note_on_c, 4, 67, 0
6, 79682, Note_on_c, 4, 67, 90
6, 79802, Note_on_c, 4, 67, 0
6, 79802, Note_on_c, 4, 67, 90
6, 79922, Note_on_c, 4, 67, 0
6, 79922, Note_on_c, 4, 67, 90
6, 80042, Note_on_c, 4, 67, 0
6, 80042, Note_on_c, 4, 67, 90
6, 80162, Note_on_c, 4, 67, 0
6, 80162, Note_on_c, 4, 67, 90
6, 80282, Note_on_c, 4, 67, 0
6, 80282, Note_on_c, 4, 67, 90
6, 80402, Note_on_c, 4, 67, 0
6, 80402, Note_on_c, 4, 67, 90
6, 80522, Note_on_c, 4, 67, 0
6, 80522, Note_on_c, 4, 67, 90
6, 80642, Note_on_c, 4, 67, 0
6, 80642, Note_on_c, 4, 67, 90
6, 80762, Note_on_c, 4, 67, 0
6, 80762, Note_on_c, 4, 67, 90
6, 80882, Note_on_c, 4, 67, 0
6, 80882, Note_on_c, 4, 67, 90
6, 81002, Note_on_c, 4, 67, 0
6, 81002, Note_on_c, 4, 67, 90
6, 81122, Note_on_c, 4, 67, 0
6, 81122, Note_on_c, 4, 62, 90
6, 81242, Note_on_c, 4, 62, 0
6, 81482, Note_on_c, 4, 62, 90
6, 81602, Note_on_c, 4, 62, 0
6, 81602, Control_c, 4, 11, 87
6, 81602, Note_on_c, 4, 43, 90
6, 81602, Note_on_c, 4, 55, 90
6, 81615, Control_c, 4, 11, 84
6, 81629, Control_c, 4, 11, 81
6, 81642, Control_c, 4, 11, 78
6, 81656, Control_c, 4, 11, 75
6, 81669, Control_c, 4, 11, 72
6, 81683, Control_c, 4, 11, 69
6, 81696, Control_c, 4, 11, 66
6, 81710, Control_c, 4, 11, 63
6, 81723, Control_c, 4, 11, 60
6, 81737, Control_c, 4, 11, 57
6, 81750, Control_c, 4, 11, 54
6, 81764, Control_c, 4, 11, 51
6, 81777, Control_c, 4, 11, 48
6, 83522, Control_c, 4, 11, 47
6, 83650, Control_c, 4, 11, 46
6, 83778, Control_c, 4, 11, 45
6, 83906, Control_c, 4, 11, 44
6, 84034, Control_c, 4, 11, 43
6, 84162, Control_c, 4, 11, 42
6, 84290, Control_c, 4, 11, 41
6, 84418, Control_c, 4, 11, 40
6, 84546, Control_c, 4, 11, 39
6, 84674, Control_c, 4, 11, 38
6, 84802, Control_c, 4, 11, 37
6, 84930, Control_c, 4, 11, 36
6, 85058, Control_c, 4, 11, 35
6, 85186, Control_c, 4, 11, 34
6, 85314, Control_c, 4, 11, 33
6, 85442, Control_c, 4, 11, 32
6, 85842, Control_c, 4, 11, 32
6, 85855, Control_c, 4, 11, 29
6, 85869, Control_c, 4, 11, 26
6, 85882, Control_c, 4, 11, 23
6, 85887, Note_on_c, 4, 55, 0
6, 85887, Note_on_c, 4, 43, 0
6, 90872, Control_c, 4, 11, 52
6, 90896, Control_c, 4, 11, 54
6, 90920, Control_c, 4, 11, 56
6, 90944, Control_c, 4, 11, 58
6, 90968, Control_c, 4, 11, 60
6, 90992, Control_c, 4, 11, 62
6, 91016, Control_c, 4, 11, 64
6, 91040, Control_c, 4, 11, 66
6, 91052, Note_on_c, 4, 60, 90
6, 91064, Control_c, 4, 11, 68
6, 91082, Note_on_c, 4, 60, 0
6, 91088, Control_c, 4, 11, 70
6, 91112, Control_c, 4, 11, 72
6, 91112, Note_on_c, 4, 60, 90
6, 91136, Control_c, 4, 11, 74
6, 91142, Note_on_c, 4, 60, 0
6, 91160, Control_c, 4, 11, 76
6, 91172, Note_on_c, 4, 60, 90
6, 91197, Note_on_c, 4, 60, 0
6, 91202, Control_c, 4, 11, 37
6, 91202, Note_on_c, 4, 48, 90
6, 91202, Note_on_c, 4, 60, 90
6, 91206, Control_c, 4, 11, 40
6, 91211, Control_c, 4, 11, 43
6, 91215, Control_c, 4, 11, 46
6, 91562, Note_on_c, 4, 60, 0
6, 91562, Note_on_c, 4, 48, 0
6, 91952, Control_c, 4, 11, 47
6, 91976, Control_c, 4, 11, 49
6, 92000, Control_c, 4, 11, 51
6, 92024, Control_c, 4, 11, 53
6, 92048, Control_c, 4, 11, 55
6, 92072, Control_c, 4, 11, 57
6, 92096, Control_c, 4, 11, 59
6, 92120, Control_c, 4, 11, 61
6, 92132, Note_on_c, 4, 62, 90
6, 92144, Control_c, 4, 11, 63
6, 92162, Note_on_c, 4, 62, 0
6, 92168, Control_c, 4, 11, 65
6, 92192, Control_c, 4, 11, 67
6, 92192, Note_on_c, 4, 62, 90
6, 92216, Control_c, 4, 11, 69
6, 92222, Note_on_c, 4, 62, 0
6, 92240, Control_c, 4, 11, 71
6, 92252, Note_on_c, 4, 62, 90
6, 92277, Note_on_c, 4, 62, 0
6, 92282, Control_c, 4, 11, 52
6, 92282, Note_on_c, 4, 62, 90
6, 92642, Control_c, 4, 11, 42
6, 92658, Control_c, 4, 11, 43
6, 92674, Control_c, 4, 11, 44
6, 92690, Control_c, 4, 11, 45
6, 92706, Control_c, 4, 11, 46
6, 92722, Control_c, 4, 11, 47
6, 92738, Control_c, 4, 11, 48
6, 92754, Control_c, 4, 11, 49
6, 92757, Note_on_c, 4, 62, 0
6, 92762, Note_on_c, 4, 67, 90
6, 92762, Note_on_c, 4, 55, 90
6, 92770, Control_c, 4, 11, 50
6, 92786, Control_c, 4, 11, 51
6, 92802, Control_c, 4, 11, 52
6, 92818, Control_c, 4, 11, 53
6, 92834, Control_c, 4, 11, 54
6, 92850, Control_c, 4, 11, 55
6, 92866, Control_c, 4, 11, 56
6, 92882, Control_c, 4, 11, 57
6, 92898, Control_c, 4, 11, 58
6, 92914, Control_c, 4, 11, 59
6, 92930, Control_c, 4, 11, 60
6, 92946, Control_c, 4, 11, 61
6, 92962, Control_c, 4, 11, 62
6, 92978, Control_c, 4, 11, 63
6, 92994, Control_c, 4, 11, 64
6, 93010, Control_c, 4, 11, 65
6, 93026, Control_c, 4, 11, 66
6, 93042, Control_c, 4, 11, 67
6, 93058, Control_c, 4, 11, 68
6, 93074, Control_c, 4, 11, 69
6, 93090, Control_c, 4, 11, 70
6, 93106, Control_c, 4, 11, 71
6, 93117, Note_on_c, 4, 55, 0
6, 93117, Note_on_c, 4, 67, 0
6, 93122, Control_c, 4, 11, 72
6, 93122, Note_on_c, 4, 62, 90
6, 93122, Note_on_c, 4, 65, 90
6, 93138, Control_c, 4, 11, 73
6, 93154, Control_c, 4, 11, 74
6, 93170, Control_c, 4, 11, 75
6, 93186, Control_c, 4, 11, 76
6, 93202, Control_c, 4, 11, 77
6, 93218, Control_c, 4, 11, 78
6, 93234, Control_c, 4, 11, 79
6, 93242, Note_on_c, 4, 65, 0
6, 93242, Note_on_c, 4, 62, 0
6, 93242, Note_on_c, 4, 60, 90
6, 93242, Note_on_c, 4, 64, 90
6, 93250, Control_c, 4, 11, 80
6, 93266, Control_c, 4, 11, 81
6, 93282, Control_c, 4, 11, 82
6, 93298, Control_c, 4, 11, 83
6, 93314, Control_c, 4, 11, 84
6, 93330, Control_c, 4, 11, 85
6, 93346, Control_c, 4, 11, 86
6, 93357, Note_on_c, 4, 64, 0
6, 93357, Note_on_c, 4, 60, 0
6, 93362, Control_c, 4, 11, 87
6, 93362, Note_on_c, 4, 62, 90
6, 93362, Note_on_c, 4, 55, 90
6, 93378, Control_c, 4, 11, 89
6, 93394, Control_c, 4, 11, 91
6, 93410, Control_c, 4, 11, 93
6, 93417, Note_on_c, 4, 55, 0
6, 93417, Note_on_c, 4, 62, 0
6, 93422, Note_on_c, 4, 55, 90
6, 93422, Note_on_c, 4, 67, 90
6, 93426, Control_c, 4, 11, 95
6, 93442, Control_c, 4, 11, 97
6, 93458, Control_c, 4, 11, 99
6, 93474, Control_c, 4, 11, 101
6, 93477, Note_on_c, 4, 67, 0
6, 93477, Note_on_c, 4, 55, 0
6, 93482, Note_on_c, 4, 67, 90
6, 93482, Note_on_c, 4, 55, 90
6, 93490, Control_c, 4, 11, 100
6, 93503, Control_c, 4, 11, 97
6, 93516, Control_c, 4, 11, 94
6, 93530, Control_c, 4, 11, 91
6, 93537, Note_on_c, 4, 55, 0
6, 93537, Note_on_c, 4, 67, 0
6, 93542, Note_on_c, 4, 67, 90
6, 93542, Note_on_c, 4, 55, 90
6, 93543, Control_c, 4, 11, 88
6, 93556, Control_c, 4, 11, 85
6, 93569, Control_c, 4, 11, 82
6, 93582, Control_c, 4, 11, 79
6, 93595, Control_c, 4, 11, 76
6, 93597, Note_on_c, 4, 55, 0
6, 93597, Note_on_c, 4, 67, 0
6, 93602, Note_on_c, 4, 67, 100
6, 93602, Note_on_c, 4, 55, 100
6, 93608, Control_c, 4, 11, 73
6, 93621, Control_c, 4, 11, 70
6, 93627, Note_on_c, 4, 55, 0
6, 93627, Note_on_c, 4, 67, 0
6, 93632, Note_on_c, 4, 67, 100
6, 93632, Note_on_c, 4, 55, 100
6, 93634, Control_c, 4, 11, 67
6, 93647, Control_c, 4, 11, 64
6, 93657, Note_on_c, 4, 55, 0
6, 93657, Note_on_c, 4, 67, 0
6, 93660, Control_c, 4, 11, 61
6, 93662, Note_on_c, 4, 55, 100
6, 93662, Note_on_c, 4, 67, 100
6, 93674, Control_c, 4, 11, 58
6, 93687, Note_on_c, 4, 67, 0
6, 93687, Note_on_c, 4, 55, 0
6, 93687, Control_c, 4, 11, 55
6, 93692, Note_on_c, 4, 55, 100
6, 93692, Note_on_c, 4, 67, 100
6, 93700, Control_c, 4, 11, 52
6, 93713, Control_c, 4, 11, 49
6, 93717, Note_on_c, 4, 67, 0
6, 93717, Note_on_c, 4, 55, 0
6, 93749, Control_c, 4, 11, 46
6, 93752, Note_on_c, 4, 67, 100
6, 93752, Note_on_c, 4, 55, 100
6, 93777, Control_c, 4, 11, 45
6, 93782, Note_on_c, 4, 55, 0
6, 93782, Note_on_c, 4, 67, 0
6, 93805, Control_c, 4, 11, 44
6, 93812, Note_on_c, 4, 67, 100
6, 93812, Note_on_c, 4, 55, 100
6, 93832, Control_c, 4, 11, 43
6, 93842, Note_on_c, 4, 55, 0
6, 93842, Note_on_c, 4, 67, 0
6, 93860, Control_c, 4, 11, 42
6, 93872, Note_on_c, 4, 55, 100
6, 93872, Note_on_c, 4, 67, 100
6, 93888, Control_c, 4, 11, 41
6, 93902, Note_on_c, 4, 67, 0
6, 93902, Note_on_c, 4, 55, 0
6, 93915, Control_c, 4, 11, 40
6, 93932, Note_on_c, 4, 55, 100
6, 93932, Note_on_c, 4, 67, 100
6, 93943, Control_c, 4, 11, 39
6, 93962, Note_on_c, 4, 67, 0
6, 93962, Note_on_c, 4, 55, 0
6, 93971, Control_c, 4, 11, 38
6, 93992, Note_on_c, 4, 55, 100
6, 93992, Note_on_c, 4, 67, 100
6, 93998, Control_c, 4, 11, 37
6, 94022, Note_on_c, 4, 67, 0
6, 94022, Note_on_c, 4, 55, 0
6, 94026, Control_c, 4, 11, 36
6, 94052, Note_on_c, 4, 55, 100
6, 94052, Note_on_c, 4, 67, 100
6, 94054, Control_c, 4, 11, 35
6, 94082, Note_on_c, 4, 67, 0
6, 94082, Note_on_c, 4, 55, 0
6, 94082, Control_c, 4, 11, 34
6, 94097, Control_c, 4, 11, 37
6, 94112, Note_on_c, 4, 43, 100
6, 94112, Note_on_c, 4, 55, 100
6, 94142, Note_on_c, 4, 55, 0
6, 94142, Note_on_c, 4, 43, 0
6, 94163, Control_c, 4, 11, 36
6, 94172, Note_on_c, 4, 55, 100
6, 94172, Note_on_c, 4, 43, 100
6, 94202, Note_on_c, 4, 43, 0
6, 94202, Note_on_c, 4, 55, 0
6, 94229, Control_c, 4, 11, 35
6, 94232, Note_on_c, 4, 55, 100
6, 94232, Note_on_c, 4, 43, 100
6, 94262, Note_on_c, 4, 43, 0
6, 94262, Note_on_c, 4, 55, 0
6, 94292, Note_on_c, 4, 43, 100
6, 94292, Note_on_c, 4, 55, 100
6, 94295, Control_c, 4, 11, 34
6, 94322, Note_on_c, 4, 55, 0
6, 94322, Note_on_c, 4, 43, 0
6, 94352, Note_on_c, 4, 43, 100
6, 94352, Note_on_c, 4, 55, 100
6, 94361, Control_c, 4, 11, 33
6, 94382, Note_on_c, 4, 55, 0
6, 94382, Note_on_c, 4, 43, 0
6, 94412, Note_on_c, 4, 43, 100
6, 94412, Note_on_c, 4, 55, 100
6, 94427, Control_c, 4, 11, 32
6, 94442, Note_on_c, 4, 55, 0
6, 94442, Note_on_c, 4, 43, 0
6, 94442, Note_on_c, 4, 43, 90
6, 94442, Note_on_c, 4, 55, 90
6, 94562, Note_on_c, 4, 55, 0
6, 94562, Note_on_c, 4, 43, 0
6, 97322, Control_c, 4, 11, 83
6, 97322, Note_on_c, 4, 62, 90
6, 97322, Note_on_c, 4, 55, 90
6, 97355, Control_c, 4, 11, 84
6, 97384, Control_c, 4, 11, 85
6, 97413, Control_c, 4, 11, 86
6, 97427, Note_on_c, 4, 55, 0
6, 97427, Note_on_c, 4, 62, 0
6, 97442, Control_c, 4, 11, 87
6, 97442, Note_on_c, 4, 62, 90
6, 97442, Note_on_c, 4, 55, 90
6, 97547, Note_on_c, 4, 55, 0
6, 97547, Note_on_c, 4, 62, 0
6, 97562, Note_on_c, 4, 62, 90
6, 97562, Note_on_c, 4, 55, 90
6, 97667, Note_on_c, 4, 55, 0
6, 97667, Note_on_c, 4, 62, 0
6, 97682, Note_on_c, 4, 55, 90
6, 97682, Note_on_c, 4, 62, 90
6, 97787, Note_on_c, 4, 62, 0
6, 97787, Note_on_c, 4, 55, 0
6, 97802, Note_on_c, 4, 62, 90
6, 97802, Note_on_c, 4, 55, 90
6, 97907, Note_on_c, 4, 55, 0
6, 97907, Note_on_c, 4, 62, 0
6, 97922, Control_c, 4, 11, 87
6, 97922, Note_on_c, 4, 55, 90
6, 97922, Note_on_c, 4, 62, 90
6, 98014, Control_c, 4, 11, 88
6, 98027, Note_on_c, 4, 62, 0
6, 98027, Note_on_c, 4, 55, 0
6, 98042, Note_on_c, 4, 55, 90
6, 98042, Note_on_c, 4, 62, 90
6, 98106, Control_c, 4, 11, 89
6, 98147, Note_on_c, 4, 62, 0
6, 98147, Note_on_c, 4, 55, 0
6, 98162, Note_on_c, 4, 55, 90
6, 98162, Note_on_c, 4, 62, 90
6, 98198, Control_c, 4, 11, 90
6, 98267, Note_on_c, 4, 62, 0
6, 98267, Note_on_c, 4, 55, 0
6, 98282, Note_on_c, 4, 62, 90
6, 98282, Note_on_c, 4, 55, 90
6, 98290, Control_c, 4, 11, 91
6, 98382, Control_c, 4, 11, 92
6, 98387, Note_on_c, 4, 55, 0
6, 98387, Note_on_c, 4, 62, 0
6, 98402, Note_on_c, 4, 55, 90
6, 98402, Note_on_c, 4, 62, 90
6, 98474, Control_c, 4, 11, 93
6, 98507, Note_on_c, 4, 62, 0
6, 98507, Note_on_c, 4, 55, 0
6, 98522, Note_on_c, 4, 55, 90
6, 98522, Note_on_c, 4, 62, 90
6, 98566, Control_c, 4, 11, 94
6, 98627, Note_on_c, 4, 62, 0
6, 98627, Note_on_c, 4, 55, 0
6, 98642, Note_on_c, 4, 62, 90
6, 98642, Note_on_c, 4, 55, 90
6, 98658, Control_c, 4, 11, 95
6, 98747, Note_on_c, 4, 55, 0
6, 98747, Note_on_c, 4, 62, 0
6, 98750, Control_c, 4, 11, 96
6, 98762, Note_on_c, 4, 55, 90
6, 98762, Note_on_c, 4, 62, 90
6, 98842, Control_c, 4, 11, 97
6, 98867, Note_on_c, 4, 62, 0
6, 98867, Note_on_c, 4, 55, 0
6, 98882, Note_on_c, 4, 55, 90
6, 98882, Note_on_c, 4, 62, 90
6, 98934, Control_c, 4, 11, 98
6, 98987, Note_on_c, 4, 62, 0
6, 98987, Note_on_c, 4, 55, 0
6, 99002, Note_on_c, 4, 62, 90
6, 99002, Note_on_c, 4, 55, 90
6, 99026, Control_c, 4, 11, 99
6, 99107, Note_on_c, 4, 55, 0
6, 99107, Note_on_c, 4, 62, 0
6, 99118, Control_c, 4, 11, 100
6, 99122, Note_on_c, 4, 52, 90
6, 99122, Note_on_c, 4, 60, 90
6, 99210, Control_c, 4, 11, 101
6, 99227, Note_on_c, 4, 60, 0
6, 99227, Note_on_c, 4, 52, 0
6, 99242, Note_on_c, 4, 60, 90
6, 99242, Note_on_c, 4, 52, 90
6, 99302, Control_c, 4, 11, 102
6, 99362, Note_on_c, 4, 52, 0
6, 99362, Note_on_c, 4, 60, 0
6, 99482, Note_on_c, 4, 60, 90
6, 99482, Note_on_c, 4, 52, 90
6, 99602, Note_on_c, 4, 52, 0
6, 99602, Note_on_c, 4, 60, 0
6, 99722, Note_on_c, 4, 60, 90
6, 99722, Note_on_c, 4, 52, 90
6, 99842, Note_on_c, 4, 52, 0
6, 99842, Note_on_c, 4, 60, 0
6, 99842, Note_on_c, 4, 52, 90
6, 99842, Note_on_c, 4, 60, 90
6, 99962, Note_on_c, 4, 60, 0
6, 99962, Note_on_c, 4, 52, 0
6, 99962, Note_on_c, 4, 48, 90
6, 99962, Note_on_c, 4, 60, 90
6, 100082, Note_on_c, 4, 60, 0
6, 100082, Note_on_c, 4, 48, 0
6, 100082, Note_on_c, 4, 48, 90
6, 100082, Note_on_c, 4, 60, 90
6, 106562, Note_on_c, 4, 60, 0
6, 106562, Note_on_c, 4, 48, 0
6, 106562, Note_on_c, 4, 55, 75
6, 106562, Note_on_c, 4, 62, 75
6, 106682, Note_on_c, 4, 62, 0
6, 106682, Note_on_c, 4, 55, 0
6, 136322, Control_c, 4, 11, 47
6, 136322, Note_on_c, 4, 48, 90
6, 136322, Note_on_c, 4, 60, 90
6, 136418, Control_c, 4, 11, 48
6, 136514, Control_c, 4, 11, 49
6, 136610, Control_c, 4, 11, 50
6, 136706, Control_c, 4, 11, 51
6, 136802, Control_c, 4, 11, 52
6, 136898, Control_c, 4, 11, 53
6, 136994, Control_c, 4, 11, 54
6, 137090, Control_c, 4, 11, 55
6, 137186, Control_c, 4, 11, 56
6, 137282, Control_c, 4, 11, 57
6, 137378, Control_c, 4, 11, 58
6, 137474, Control_c, 4, 11, 59
6, 137570, Control_c, 4, 11, 60
6, 137666, Control_c, 4, 11, 61
6, 137762, Control_c, 4, 11, 62
6, 137858, Control_c, 4, 11, 63
6, 137954, Control_c, 4, 11, 64
6, 138050, Control_c, 4, 11, 65
6, 138146, Control_c, 4, 11, 66
6, 138242, Note_on_c, 4, 60, 0
6, 138242, Note_on_c, 4, 48, 0
6, 138242, Control_c, 4, 11, 67
6, 138242, Note_on_c, 4, 43, 90
6, 138242, Note_on_c, 4, 55, 90
6, 138338, Control_c, 4, 11, 68
6, 138434, Control_c, 4, 11, 69
6, 138530, Control_c, 4, 11, 70
6, 138626, Control_c, 4, 11, 71
6, 138722, Control_c, 4, 11, 72
6, 138818, Control_c, 4, 11, 73
6, 138914, Control_c, 4, 11, 74
6, 139010, Control_c, 4, 11, 75
6, 139106, Control_c, 4, 11, 76
6, 139202, Control_c, 4, 11, 77
6, 139298, Control_c, 4, 11, 78
6, 139394, Control_c, 4, 11, 79
6, 139490, Control_c, 4, 11, 80
6, 139586, Control_c, 4, 11, 81
6, 139682, Control_c, 4, 11, 82
6, 139778, Control_c, 4, 11, 83
6, 139874, Control_c, 4, 11, 84
6, 139970, Control_c, 4, 11, 85
6, 140066, Control_c, 4, 11, 86
6, 140162, Note_on_c, 4, 55, 0
6, 140162, Note_on_c, 4, 43, 0
6, 140162, Control_c, 4, 11, 87
6, 140162, Note_on_c, 4, 52, 90
6, 140162, Note_on_c, 4, 60, 90
6, 142082, Note_on_c, 4, 60, 0
6, 142082, Note_on_c, 4, 52, 0
6, 142082, Control_c, 4, 11, 87
6, 142082, Note_on_c, 4, 55, 90
6, 142082, Note_on_c, 4, 62, 90
6, 142178, Control_c, 4, 11, 88
6, 142274, Control_c, 4, 11, 89
6, 142370, Control_c, 4, 11, 90
6, 142466, Control_c, 4, 11, 91
6, 142562, Control_c, 4, 11, 92
6, 142658, Control_c, 4, 11, 93
6, 142754, Control_c, 4, 11, 94
6, 142850, Control_c, 4, 11, 95
6, 142946, Control_c, 4, 11, 96
6, 143042, Control_c, 4, 11, 97
6, 143138, Control_c, 4, 11, 98
6, 143234, Control_c, 4, 11, 99
6, 143330, Control_c, 4, 11, 100
6, 143426, Control_c, 4, 11, 101
6, 143522, Control_c, 4, 11, 102
6, 143618, Control_c, 4, 11, 103
6, 143714, Control_c, 4, 11, 104
6, 143810, Control_c, 4, 11, 105
6, 143906, Control_c, 4, 11, 106
6, 144002, Note_on_c, 4, 62, 0
6, 144002, Note_on_c, 4, 55, 0
6, 144002, Control_c, 4, 11, 107
6, 144002, Note_on_c, 4, 48, 90
6, 144002, Note_on_c, 4, 60, 90
6, 144326, Note_on_c, 4, 60, 0
6, 144326, Note_on_c, 4, 48, 0
6, 144362, Note_on_c, 4, 60, 90
6, 144362, Note_on_c, 4, 48, 90
6, 144470, Note_on_c, 4, 48, 0
6, 144470, Note_on_c, 4, 60, 0
6, 144482, Note_on_c, 4, 60, 90
6, 144482, Note_on_c, 4, 48, 90
6, 144806, Note_on_c, 4, 48, 0
6, 144806, Note_on_c, 4, 60, 0
6, 144842, Note_on_c, 4, 48, 90
6, 144842, Note_on_c, 4, 60, 90
6, 144950, Note_on_c, 4, 60, 0
6, 144950, Note_on_c, 4, 48, 0
6, 144962, Note_on_c, 4, 48, 90
6, 144962, Note_on_c, 4, 60, 90
6, 145286, Note_on_c, 4, 60, 0
6, 145286, Note_on_c, 4, 48, 0
6, 145322, Note_on_c, 4, 60, 90
6, 145322, Note_on_c, 4, 48, 90
6, 145430, Note_on_c, 4, 48, 0
6, 145430, Note_on_c, 4, 60, 0
6, 145442, Note_on_c, 4, 60, 90
6, 145442, Note_on_c, 4, 48, 90
6, 145766, Note_on_c, 4, 48, 0
6, 145766, Note_on_c, 4, 60, 0
6, 145802, Note_on_c, 4, 60, 90
6, 145802, Note_on_c, 4, 48, 90
6, 145910, Note_on_c, 4, 48, 0
6, 145910, Note_on_c, 4, 60, 0
6, 145922, Note_on_c, 4, 48, 90
6, 145922, Note_on_c, 4, 60, 90
6, 145982, Note_on_c, 4, 60, 0
6, 145982, Note_on_c, 4, 48, 0
6, 146042, Note_on_c, 4, 48, 90
6, 146042, Note_on_c, 4, 60, 90
6, 146102, Note_on_c, 4, 60, 0
6, 146102, Note_on_c, 4, 48, 0
6, 146162, Note_on_c, 4, 60, 90
6, 146162, Note_on_c, 4, 48, 90
6, 146222, Note_on_c, 4, 48, 0
6, 146222, Note_on_c, 4, 60, 0
6, 146282, Note_on_c, 4, 60, 90
6, 146282, Note_on_c, 4, 48, 90
6, 146342, Note_on_c, 4, 48, 0
6, 146342, Note_on_c, 4, 60, 0
6, 146402, Note_on_c, 4, 60, 90
6, 146402, Note_on_c, 4, 48, 90
6, 146462, Note_on_c, 4, 48, 0
6, 146462, Note_on_c, 4, 60, 0
6, 146522, Note_on_c, 4, 60, 90
6, 146522, Note_on_c, 4, 48, 90
6, 146582, Note_on_c, 4, 48, 0
6, 146582, Note_on_c, 4, 60, 0
6, 146642, Note_on_c, 4, 48, 90
6, 146642, Note_on_c, 4, 60, 90
6, 146702, Note_on_c, 4, 60, 0
6, 146702, Note_on_c, 4, 48, 0
6, 146762, Note_on_c, 4, 60, 90
6, 146762, Note_on_c, 4, 48, 90
6, 146822, Note_on_c, 4, 48, 0
6, 146822, Note_on_c, 4, 60, 0
6, 146882, Note_on_c, 4, 48, 90
6, 146882, Note_on_c, 4, 60, 90
6, 146942, Note_on_c, 4, 60, 0
6, 146942, Note_on_c, 4, 48, 0
6, 147002, Note_on_c, 4, 60, 90
6, 147002, Note_on_c, 4, 48, 90
6, 147062, Note_on_c, 4, 48, 0
6, 147062, Note_on_c, 4, 60, 0
6, 147122, Note_on_c, 4, 60, 90
6, 147122, Note_on_c, 4, 48, 90
6, 147182, Note_on_c, 4, 48, 0
6, 147182, Note_on_c, 4, 60, 0
6, 147242, Note_on_c, 4, 48, 90
6, 147242, Note_on_c, 4, 60, 90
6, 147302, Note_on_c, 4, 60, 0
6, 147302, Note_on_c, 4, 48, 0
6, 147362, Note_on_c, 4, 48, 90
6, 147362, Note_on_c, 4, 60, 90
6, 147422, Note_on_c, 4, 60, 0
6, 147422, Note_on_c, 4, 48, 0
6, 147482, Note_on_c, 4, 48, 90
6, 147482, Note_on_c, 4, 60, 90
6, 147542, Note_on_c, 4, 60, 0
6, 147542, Note_on_c, 4, 48, 0
6, 147602, Note_on_c, 4, 48, 90
6, 147602, Note_on_c, 4, 60, 90
6, 147662, Note_on_c, 4, 60, 0
6, 147662, Note_on_c, 4, 48, 0
6, 147722, Note_on_c, 4, 48, 90
6, 147722, Note_on_c, 4, 60, 90
6, 147782, Note_on_c, 4, 60, 0
6, 147782, Note_on_c, 4, 48, 0
6, 147842, Control_c, 4, 11, 122
6, 147842, Note_on_c, 4, 62, 90
6, 147842, Note_on_c, 4, 60, 90
6, 147865, Control_c, 4, 11, 120
6, 147889, Control_c, 4, 11, 118
6, 147913, Control_c, 4, 11, 116
6, 147937, Control_c, 4, 11, 114
6, 147961, Control_c, 4, 11, 112
6, 147985, Control_c, 4, 11, 110
6, 148009, Control_c, 4, 11, 108
6, 148033, Control_c, 4, 11, 106
6, 148057, Control_c, 4, 11, 104
6, 148081, Control_c, 4, 11, 102
6, 148792, Note_on_c, 4, 60, 0
6, 148792, Note_on_c, 4, 62, 0
6, 148802, Control_c, 4, 11, 122
6, 148802, Note_on_c, 4, 64, 90
6, 148802, Note_on_c, 4, 60, 90
6, 148825, Control_c, 4, 11, 120
6, 148849, Control_c, 4, 11, 118
6, 148873, Control_c, 4, 11, 116
6, 148897, Control_c, 4, 11, 114
6, 148921, Control_c, 4, 11, 112
6, 148945, Control_c, 4, 11, 110
6, 148969, Control_c, 4, 11, 108
6, 148993, Control_c, 4, 11, 106
6, 149017, Control_c, 4, 11, 104
6, 149041, Control_c, 4, 11, 102
6, 149752, Note_on_c, 4, 60, 0
6, 149752, Note_on_c, 4, 64, 0
6, 149762, Control_c, 4, 11, 122
6, 149762, Note_on_c, 4, 65, 90
6, 149762, Note_on_c, 4, 60, 90
6, 149785, Control_c, 4, 11, 120
6, 149809, Control_c, 4, 11, 118
6, 149833, Control_c, 4, 11, 116
6, 149857, Control_c, 4, 11, 114
6, 149881, Control_c, 4, 11, 112
6, 149905, Control_c, 4, 11, 110
6, 149929, Control_c, 4, 11, 108
6, 149953, Control_c, 4, 11, 106
6, 149977, Control_c, 4, 11, 104
6, 150001, Control_c, 4, 11, 102
6, 150712, Note_on_c, 4, 60, 0
6, 150712, Note_on_c, 4, 65, 0
6, 150722, Note_on_c, 4, 65, 90
6, 150722, Note_on_c, 4, 60, 90
6, 151082, Note_on_c, 4, 60, 0
6, 151082, Note_on_c, 4, 65, 0
6, 151202, Note_on_c, 4, 65, 90
6, 151202, Note_on_c, 4, 62, 90
6, 151562, Note_on_c, 4, 62, 0
6, 151562, Note_on_c, 4, 65, 0
6, 151682, Note_on_c, 4, 64, 90
6, 151682, Note_on_c, 4, 60, 90
6, 152042, Note_on_c, 4, 60, 0
6, 152042, Note_on_c, 4, 64, 0
6, 152162, Note_on_c, 4, 65, 90
6, 152162, Note_on_c, 4, 60, 90
6, 152522, Note_on_c, 4, 60, 0
6, 152522, Note_on_c, 4, 65, 0
6, 152642, Note_on_c, 4, 62, 90
6, 152642, Note_on_c, 4, 55, 90
6, 153002, Note_on_c, 4, 55, 0
6, 153002, Note_on_c, 4, 62, 0
6, 153122, Note_on_c, 4, 64, 90
6, 153122, Note_on_c, 4, 60, 90
6, 153482, Note_on_c, 4, 60, 0
6, 153482, Note_on_c, 4, 64, 0
6, 153602, Note_on_c, 4, 65, 90
6, 153602, Note_on_c, 4, 60, 90
6, 153962, Note_on_c, 4, 60, 0
6, 153962, Note_on_c, 4, 65, 0
6, 154082, Note_on_c, 4, 62, 90
6, 154082, Note_on_c, 4, 55, 90
6, 154442, Note_on_c, 4, 55, 0
6, 154442, Note_on_c, 4, 62, 0
6, 154562, Note_on_c, 4, 64, 90
6, 154562, Note_on_c, 4, 60, 90
6, 154922, Note_on_c, 4, 60, 0
6, 154922, Note_on_c, 4, 64, 0
6, 155042, Note_on_c, 4, 65, 90
6, 155042, Note_on_c, 4, 60, 90
6, 155402, Note_on_c, 4, 60, 0
6, 155402, Note_on_c, 4, 65, 0
6, 155522, Note_on_c, 4, 62, 90
6, 155522, Note_on_c, 4, 55, 90
6, 156472, Note_on_c, 4, 55, 0
6, 156472, Note_on_c, 4, 62, 0
6, 156482, Note_on_c, 4, 67, 90
6, 156482, Note_on_c, 4, 55, 90
6, 157432, Note_on_c, 4, 55, 0
6, 157432, Note_on_c, 4, 67, 0
6, 157442, Note_on_c, 4, 60, 90
6, 157442, Note_on_c, 4, 52, 90
6, 157562, Note_on_c, 4, 52, 0
6, 157562, Note_on_c, 4, 60, 0
6, 158762, Note_on_c, 4, 62, 90
6, 158762, Note_on_c, 4, 55, 90
6, 158882, Note_on_c, 4, 55, 0
6, 158882, Note_on_c, 4, 62, 0
6, 158882, Note_on_c, 4, 55, 90
6, 158882, Note_on_c, 4, 62, 90
6, 159242, Note_on_c, 4, 62, 0
6, 159242, Note_on_c, 4, 55, 0
6, 159242, Note_on_c, 4, 55, 90
6, 159242, Note_on_c, 4, 62, 90
6, 159362, Note_on_c, 4, 62, 0
6, 159362, Note_on_c, 4, 55, 0
6, 159362, Note_on_c, 4, 64, 90
6, 159362, Note_on_c, 4, 60, 90
6, 159482, Note_on_c, 4, 60, 0
6, 159482, Note_on_c, 4, 64, 0
6, 160442, Note_on_c, 4, 62, 90
6, 160442, Note_on_c, 4, 55, 90
6, 160562, Note_on_c, 4, 55, 0
6, 160562, Note_on_c, 4, 62, 0
6, 160562, Note_on_c, 4, 62, 90
6, 160562, Note_on_c, 4, 55, 90
6, 160682, Note_on_c, 4, 55, 0
6, 160682, Note_on_c, 4, 62, 0
6, 160682, Note_on_c, 4, 62, 90
6, 160682, Note_on_c, 4, 55, 90
6, 160802, Note_on_c, 4, 55, 0
6, 160802, Note_on_c, 4, 62, 0
6, 160802, Note_on_c, 4, 62, 90
6, 160802, Note_on_c, 4, 55, 90
6, 160922, Note_on_c, 4, 55, 0
6, 160922, Note_on_c, 4, 62, 0
6, 160922, Note_on_c, 4, 62, 90
6, 160922, Note_on_c, 4, 55, 90
6, 161042, Note_on_c, 4, 55, 0
6, 161042, Note_on_c, 4, 62, 0
6, 161042, Note_on_c, 4, 62, 90
6, 161042, Note_on_c, 4, 55, 90
6, 161162, Note_on_c, 4, 55, 0
6, 161162, Note_on_c, 4, 62, 0
6, 161162, Note_on_c, 4, 62, 90
6, 161162, Note_on_c, 4, 55, 90
6, 161282, Note_on_c, 4, 55, 0
6, 161282, Note_on_c, 4, 62, 0
6, 161282, Note_on_c, 4, 64, 90
6, 161282, Note_on_c, 4, 60, 90
6, 161402, Note_on_c, 4, 60, 0
6, 161402, Note_on_c, 4, 64, 0
6, 162362, Note_on_c, 4, 62, 90
6, 162362, Note_on_c, 4, 55, 90
6, 162602, Note_on_c, 4, 55, 0
6, 162602, Note_on_c, 4, 62, 0
6, 162602, Note_on_c, 4, 55, 90
6, 162602, Note_on_c, 4, 62, 90
6, 162842, Note_on_c, 4, 62, 0
6, 162842, Note_on_c, 4, 55, 0
6, 162842, Note_on_c, 4, 62, 90
6, 162842, Note_on_c, 4, 55, 90
6, 163082, Note_on_c, 4, 55, 0
6, 163082, Note_on_c, 4, 62, 0
6, 163082, Note_on_c, 4, 55, 90
6, 163082, Note_on_c, 4, 62, 90
6, 163202, Note_on_c, 4, 62, 0
6, 163202, Note_on_c, 4, 55, 0
6, 163202, Note_on_c, 4, 64, 90
6, 163202, Note_on_c, 4, 60, 90
6, 163322, Note_on_c, 4, 60, 0
6, 163322, Note_on_c, 4, 64, 0
6, 163802, Note_on_c, 4, 67, 90
6, 163802, Note_on_c, 4, 55, 90
6, 163862, Note_on_c, 4, 55, 0
6, 163862, Note_on_c, 4, 67, 0
6, 163922, Note_on_c, 4, 64, 90
6, 163922, Note_on_c, 4, 52, 90
6, 163982, Note_on_c, 4, 52, 0
6, 163982, Note_on_c, 4, 64, 0
6, 164042, Note_on_c, 4, 60, 90
6, 164042, Note_on_c, 4, 48, 90
6, 164102, Note_on_c, 4, 48, 0
6, 164102, Note_on_c, 4, 60, 0
6, 164162, Control_c, 4, 11, 72
6, 164162, Note_on_c, 4, 55, 105
6, 164162, Note_on_c, 4, 62, 105
6, 164165, Control_c, 4, 11, 75
6, 164168, Control_c, 4, 11, 78
6, 164171, Control_c, 4, 11, 81
6, 164174, Control_c, 4, 11, 84
6, 164177, Control_c, 4, 11, 87
6, 164180, Control_c, 4, 11, 90
6, 164183, Control_c, 4, 11, 93
6, 164186, Control_c, 4, 11, 96
6, 164189, Control_c, 4, 11, 99
6, 164192, Control_c, 4, 11, 102
6, 164507, Control_c, 4, 11, 102
6, 164510, Control_c, 4, 11, 99
6, 164513, Control_c, 4, 11, 96
6, 164516, Control_c, 4, 11, 93
6, 164520, Control_c, 4, 11, 90
6, 164523, Control_c, 4, 11, 87
6, 164526, Control_c, 4, 11, 84
6, 164530, Control_c, 4, 11, 81
6, 164533, Control_c, 4, 11, 78
6, 164536, Control_c, 4, 11, 75
6, 164540, Note_on_c, 4, 62, 0
6, 164540, Note_on_c, 4, 55, 0
6, 164540, Control_c, 4, 11, 72
6, 164882, Control_c, 4, 11, 87
6, 164882, Note_on_c, 4, 62, 90
6, 164882, Note_on_c, 4, 55, 90
6, 165002, Note_on_c, 4, 55, 0
6, 165002, Note_on_c, 4, 62, 0
6, 165362, Note_on_c, 4, 62, 105
6, 165362, Note_on_c, 4, 55, 105
6, 165482, Note_on_c, 4, 55, 0
6, 165482, Note_on_c, 4, 62, 0
6, 165722, Note_on_c, 4, 62, 105
6, 165722, Note_on_c, 4, 55, 105
6, 165842, Note_on_c, 4, 55, 0
6, 165842, Note_on_c, 4, 62, 0
6, 165962, Note_on_c, 4, 55, 105
6, 165962, Note_on_c, 4, 62, 105
6, 166082, Note_on_c, 4, 62, 0
6, 166082, Note_on_c, 4, 55, 0
6, 166202, Note_on_c, 4, 62, 105
6, 166202, Note_on_c, 4, 55, 105
6, 166322, Note_on_c, 4, 55, 0
6, 166322, Note_on_c, 4, 62, 0
6, 166442, Note_on_c, 4, 52, 105
6, 166442, Note_on_c, 4, 60, 105
6, 166562, Note_on_c, 4, 60, 0
6, 166562, Note_on_c, 4, 52, 0
6, 166682, Note_on_c, 4, 60, 105
6, 166682, Note_on_c, 4, 52, 105
6, 166802, Note_on_c, 4, 52, 0
6, 166802, Note_on_c, 4, 60, 0
6, 166922, Note_on_c, 4, 60, 105
6, 166922, Note_on_c, 4, 52, 105
6, 167042, Note_on_c, 4, 52, 0
6, 167042, Note_on_c, 4, 60, 0
6, 167042, Note_on_c, 4, 60, 105
6, 167042, Note_on_c, 4, 48, 105
6, 167162, Note_on_c, 4, 48, 0
6, 167162, Note_on_c, 4, 60, 0
6, 170402, Control_c, 4, 11, 102
6, 170402, Note_on_c, 4, 60, 105
6, 170402, Note_on_c, 4, 52, 105
6, 170522, Note_on_c, 4, 52, 0
6, 170522, Note_on_c, 4, 60, 0
6, 171362, Note_on_c, 4, 60, 105
6, 171362, Note_on_c, 4, 52, 105
6, 171482, Note_on_c, 4, 52, 0
6, 171482, Note_on_c, 4, 60, 0
6, 171842, Note_on_c, 4, 60, 105
6, 171842, Note_on_c, 4, 52, 105
6, 171962, Note_on_c, 4, 52, 0
6, 171962, Note_on_c, 4, 60, 0
6, 172322, Control_c, 4, 11, 112
6, 172322, Note_on_c, 4, 48, 105
6, 172322, Note_on_c, 4, 60, 105
6, 172442, Note_on_c, 4, 60, 0
6, 172442, Note_on_c, 4, 48, 0
6, 172802, Control_c, 4, 121, 0
6, 172802, End_track
7, 0, Start_track
7, 0, MIDI_port, 0
7, 0, Title_t, "Corni III IV in Es"
7, 0, Program_c, 5, 60
7, 0, Control_c, 5, 10, 28
7, 5, Control_c, 5, 121, 0
7, 10, Program_c, 5, 60
7, 15, Pitch_bend_c, 5, 8092
7, 20, Control_c, 5, 11, 102
7, 25, Control_c, 5, 7, 127
7, 30, Control_c, 5, 91, 80
7, 35, Control_c, 5, 93, 0
7, 5765, Control_c, 5, 11, 67
7, 5765, Note_on_c, 5, 58, 90
7, 5765, Note_on_c, 5, 70, 90
7, 5769, Control_c, 5, 11, 70
7, 5774, Control_c, 5, 11, 73
7, 5778, Control_c, 5, 11, 76
7, 5783, Control_c, 5, 11, 79
7, 5787, Control_c, 5, 11, 82
7, 5792, Control_c, 5, 11, 85
7, 5945, Note_on_c, 5, 70, 0
7, 5945, Note_on_c, 5, 58, 0
7, 9605, Control_c, 5, 11, 67
7, 9605, Note_on_c, 5, 67, 90
7, 9608, Control_c, 5, 11, 70
7, 9611, Control_c, 5, 11, 73
7, 9614, Control_c, 5, 11, 76
7, 9617, Control_c, 5, 11, 79
7, 9620, Control_c, 5, 11, 82
7, 9623, Control_c, 5, 11, 85
7, 9785, Note_on_c, 5, 67, 0
7, 15365, Control_c, 5, 11, 20
7, 15365, Note_on_c, 5, 63, 90
7, 15380, Control_c, 5, 11, 22
7, 15395, Control_c, 5, 11, 24
7, 15410, Control_c, 5, 11, 26
7, 15425, Control_c, 5, 11, 28
7, 15440, Control_c, 5, 11, 30
7, 15455, Control_c, 5, 11, 31
7, 15470, Control_c, 5, 11, 32
7, 15485, Control_c, 5, 11, 33
7, 15500, Control_c, 5, 11, 34
7, 15515, Control_c, 5, 11, 35
7, 15530, Control_c, 5, 11, 36
7, 15545, Control_c, 5, 11, 37
7, 15845, Note_on_c, 5, 63, 0
7, 15845, Note_on_c, 5, 67, 70
7, 15965, Note_on_c, 5, 67, 0
7, 16205, Control_c, 5, 11, 52
7, 16205, Note_on_c, 5, 67, 90
7, 16215, Control_c, 5, 11, 55
7, 16225, Control_c, 5, 11, 58
7, 16235, Control_c, 5, 11, 61
7, 16246, Control_c, 5, 11, 64
7, 16256, Control_c, 5, 11, 67
7, 16266, Control_c, 5, 11, 70
7, 16277, Control_c, 5, 11, 73
7, 16287, Control_c, 5, 11, 76
7, 16297, Control_c, 5, 11, 79
7, 16307, Control_c, 5, 11, 82
7, 16318, Control_c, 5, 11, 85
7, 16325, Note_on_c, 5, 67, 0
7, 16325, Note_on_c, 5, 68, 90
7, 16445, Note_on_c, 5, 68, 0
7, 17165, Control_c, 5, 11, 82
7, 17165, Note_on_c, 5, 67, 90
7, 17195, Note_on_c, 5, 67, 0
7, 17205, Note_on_c, 5, 67, 90
7, 17235, Note_on_c, 5, 67, 0
7, 17245, Note_on_c, 5, 67, 90
7, 17275, Note_on_c, 5, 67, 0
7, 17285, Note_on_c, 5, 68, 90
7, 17465, Note_on_c, 5, 68, 0
7, 23405, Control_c, 5, 11, 92
7, 23405, Note_on_c, 5, 67, 110
7, 23525, Note_on_c, 5, 67, 0
7, 23525, Note_on_c, 5, 67, 90
7, 23645, Note_on_c, 5, 67, 0
7, 23765, Note_on_c, 5, 67, 90
7, 23885, Note_on_c, 5, 67, 0
7, 23909, Control_c, 5, 11, 93
7, 24005, Note_on_c, 5, 67, 90
7, 24125, Note_on_c, 5, 67, 0
7, 24245, Note_on_c, 5, 65, 90
7, 24365, Note_on_c, 5, 65, 0
7, 24413, Control_c, 5, 11, 94
7, 24485, Note_on_c, 5, 65, 90
7, 24605, Note_on_c, 5, 65, 0
7, 24725, Note_on_c, 5, 65, 90
7, 24845, Note_on_c, 5, 65, 0
7, 24917, Control_c, 5, 11, 95
7, 24965, Note_on_c, 5, 65, 90
7, 25085, Note_on_c, 5, 65, 0
7, 25205, Note_on_c, 5, 65, 90
7, 25325, Note_on_c, 5, 65, 0
7, 25421, Control_c, 5, 11, 96
7, 25445, Note_on_c, 5, 65, 90
7, 25565, Note_on_c, 5, 65, 0
7, 25685, Note_on_c, 5, 65, 90
7, 25805, Note_on_c, 5, 65, 0
7, 25925, Control_c, 5, 11, 97
7, 25925, Note_on_c, 5, 65, 90
7, 26035, Note_on_c, 5, 65, 0
7, 26045, Note_on_c, 5, 65, 90
7, 26105, Control_c, 5, 11, 98
7, 26155, Note_on_c, 5, 65, 0
7, 26165, Note_on_c, 5, 65, 90
7, 26275, Note_on_c, 5, 65, 0
7, 26285, Control_c, 5, 11, 99
7, 26285, Note_on_c, 5, 65, 90
7, 26395, Note_on_c, 5, 65, 0
7, 26405, Note_on_c, 5, 65, 90
7, 26465, Control_c, 5, 11, 100
7, 26515, Note_on_c, 5, 65, 0
7, 26525, Note_on_c, 5, 65, 90
7, 26635, Note_on_c, 5, 65, 0
7, 26645, Control_c, 5, 11, 101
7, 26645, Note_on_c, 5, 65, 90
7, 26755, Note_on_c, 5, 65, 0
7, 26765, Note_on_c, 5, 65, 90
7, 26825, Control_c, 5, 11, 102
7, 26875, Note_on_c, 5, 65, 0
7, 26885, Note_on_c, 5, 65, 90
7, 26995, Note_on_c, 5, 65, 0
7, 27005, Control_c, 5, 11, 103
7, 27005, Note_on_c, 5, 65, 90
7, 27115, Note_on_c, 5, 65, 0
7, 27125, Note_on_c, 5, 65, 90
7, 27185, Control_c, 5, 11, 104
7, 27235, Note_on_c, 5, 65, 0
7, 27245, Note_on_c, 5, 65, 90
7, 27355, Note_on_c, 5, 65, 0
7, 27365, Control_c, 5, 11, 105
7, 27365, Note_on_c, 5, 65, 90
7, 27475, Note_on_c, 5, 65, 0
7, 27485, Note_on_c, 5, 67, 90
7, 27545, Control_c, 5, 11, 106
7, 27595, Note_on_c, 5, 67, 0
7, 27605, Note_on_c, 5, 67, 90
7, 27715, Note_on_c, 5, 67, 0
7, 27725, Control_c, 5, 11, 107
7, 27725, Note_on_c, 5, 67, 90
7, 27835, Note_on_c, 5, 67, 0
7, 27965, Note_on_c, 5, 67, 90
7, 28085, Note_on_c, 5, 67, 0
7, 28205, Note_on_c, 5, 67, 90
7, 28325, Note_on_c, 5, 67, 0
7, 28445, Control_c, 5, 11, 77
7, 28445, Note_on_c, 5, 67, 66
7, 28565, Note_on_c, 5, 67, 0
7, 29405, Control_c, 5, 11, 77
7, 29405, Note_on_c, 5, 67, 66
7, 29525, Note_on_c, 5, 67, 0
7, 30365, Control_c, 5, 11, 77
7, 30365, Note_on_c, 5, 67, 66
7, 30485, Note_on_c, 5, 67, 0
7, 38765, Control_c, 5, 11, 102
7, 38765, Note_on_c, 5, 67, 90
7, 38885, Note_on_c, 5, 67, 0
7, 39005, Note_on_c, 5, 67, 90
7, 39125, Note_on_c, 5, 67, 0
7, 39245, Note_on_c, 5, 67, 90
7, 39365, Note_on_c, 5, 67, 0
7, 39365, Note_on_c, 5, 67, 90
7, 39485, Note_on_c, 5, 67, 0
7, 39485, Note_on_c, 5, 67, 90
7, 39605, Note_on_c, 5, 67, 0
7, 39605, Note_on_c, 5, 67, 90
7, 40205, Note_on_c, 5, 67, 0
7, 40205, Note_on_c, 5, 69, 90
7, 40325, Note_on_c, 5, 69, 0
7, 40325, Note_on_c, 5, 67, 90
7, 40445, Note_on_c, 5, 67, 0
7, 40445, Note_on_c, 5, 67, 90
7, 40565, Note_on_c, 5, 67, 0
7, 40565, Note_on_c, 5, 67, 90
7, 41165, Note_on_c, 5, 67, 0
7, 41165, Note_on_c, 5, 69, 90
7, 41285, Note_on_c, 5, 69, 0
7, 41285, Note_on_c, 5, 67, 90
7, 41405, Note_on_c, 5, 67, 0
7, 41645, Note_on_c, 5, 67, 90
7, 41765, Note_on_c, 5, 67, 0
7, 41765, Note_on_c, 5, 67, 90
7, 41885, Note_on_c, 5, 67, 0
7, 42125, Note_on_c, 5, 67, 90
7, 42245, Note_on_c, 5, 67, 0
7, 42245, Note_on_c, 5, 65, 90
7, 42365, Note_on_c, 5, 65, 0
7, 42605, Note_on_c, 5, 65, 90
7, 42725, Note_on_c, 5, 65, 0
7, 42725, Note_on_c, 5, 65, 90
7, 42845, Note_on_c, 5, 65, 0
7, 43085, Note_on_c, 5, 65, 90
7, 43205, Note_on_c, 5, 65, 0
7, 43685, Note_on_c, 5, 67, 90
7, 43805, Note_on_c, 5, 67, 0
7, 44045, Note_on_c, 5, 67, 90
7, 44165, Note_on_c, 5, 67, 0
7, 44165, Note_on_c, 5, 65, 90
7, 44285, Note_on_c, 5, 65, 0
7, 44525, Note_on_c, 5, 65, 90
7, 44645, Note_on_c, 5, 65, 0
7, 44645, Note_on_c, 5, 65, 90
7, 44765, Note_on_c, 5, 65, 0
7, 45005, Note_on_c, 5, 65, 90
7, 45125, Note_on_c, 5, 65, 0
7, 79565, Note_on_c, 5, 67, 90
7, 79565, Note_on_c, 5, 55, 90
7, 79685, Note_on_c, 5, 55, 0
7, 79685, Note_on_c, 5, 67, 0
7, 79685, Note_on_c, 5, 55, 90
7, 79685, Note_on_c, 5, 67, 90
7, 79805, Note_on_c, 5, 67, 0
7, 79805, Note_on_c, 5, 55, 0
7, 79805, Note_on_c, 5, 55, 90
7, 79805, Note_on_c, 5, 67, 90
7, 79925, Note_on_c, 5, 67, 0
7, 79925, Note_on_c, 5, 55, 0
7, 79925, Note_on_c, 5, 67, 90
7, 79925, Note_on_c, 5, 55, 90
7, 80045, Note_on_c, 5, 55, 0
7, 80045, Note_on_c, 5, 67, 0
7, 80045, Note_on_c, 5, 55, 90
7, 80045, Note_on_c, 5, 67, 90
7, 80165, Note_on_c, 5, 67, 0
7, 80165, Note_on_c, 5, 55, 0
7, 80165, Note_on_c, 5, 55, 90
7, 80165, Note_on_c, 5, 67, 90
7, 80285, Note_on_c, 5, 67, 0
7, 80285, Note_on_c, 5, 55, 0
7, 80285, Note_on_c, 5, 67, 90
7, 80285, Note_on_c, 5, 55, 90
7, 80405, Note_on_c, 5, 55, 0
7, 80405, Note_on_c, 5, 67, 0
7, 80405, Note_on_c, 5, 55, 90
7, 80405, Note_on_c, 5, 67, 90
7, 80525, Note_on_c, 5, 67, 0
7, 80525, Note_on_c, 5, 55, 0
7, 80525, Note_on_c, 5, 55, 90
7, 80525, Note_on_c, 5, 67, 90
7, 80645, Note_on_c, 5, 67, 0
7, 80645, Note_on_c, 5, 55, 0
7, 80645, Note_on_c, 5, 67, 90
7, 80645, Note_on_c, 5, 55, 90
7, 80765, Note_on_c, 5, 55, 0
7, 80765, Note_on_c, 5, 67, 0
7, 80765, Note_on_c, 5, 55, 90
7, 80765, Note_on_c, 5, 67, 90
7, 80885, Note_on_c, 5, 67, 0
7, 80885, Note_on_c, 5, 55, 0
7, 80885, Note_on_c, 5, 55, 90
7, 80885, Note_on_c, 5, 67, 90
7, 81005, Note_on_c, 5, 67, 0
7, 81005, Note_on_c, 5, 55, 0
7, 81005, Note_on_c, 5, 67, 90
7, 81005, Note_on_c, 5, 55, 90
7, 81125, Note_on_c, 5, 55, 0
7, 81125, Note_on_c, 5, 67, 0
7, 86405, Control_c, 5, 11, 67
7, 86405, Note_on_c, 5, 65, 90
7, 86405, Note_on_c, 5, 58, 90
7, 86407, Control_c, 5, 11, 70
7, 86410, Control_c, 5, 11, 73
7, 86412, Control_c, 5, 11, 76
7, 86415, Control_c, 5, 11, 79
7, 86418, Control_c, 5, 11, 83
7, 86421, Control_c, 5, 11, 86
7, 86424, Control_c, 5, 11, 90
7, 86427, Control_c, 5, 11, 93
7, 86430, Control_c, 5, 11, 97
7, 86433, Control_c, 5, 11, 100
7, 86795, Control_c, 5, 11, 102
7, 86798, Control_c, 5, 11, 99
7, 86801, Control_c, 5, 11, 96
7, 86805, Control_c, 5, 11, 93
7, 86808, Control_c, 5, 11, 90
7, 86812, Control_c, 5, 11, 87
7, 86815, Control_c, 5, 11, 84
7, 86819, Control_c, 5, 11, 81
7, 86822, Control_c, 5, 11, 78
7, 86825, Control_c, 5, 11, 75
7, 86829, Control_c, 5, 11, 72
7, 86832, Control_c, 5, 11, 69
7, 86835, Note_on_c, 5, 58, 0
7, 86835, Note_on_c, 5, 65, 0
7, 86885, Control_c, 5, 11, 32
7, 86885, Note_on_c, 5, 51, 70
7, 86885, Note_on_c, 5, 63, 70
7, 86897, Control_c, 5, 11, 35
7, 86909, Control_c, 5, 11, 38
7, 86921, Control_c, 5, 11, 41
7, 86933, Control_c, 5, 11, 44
7, 86945, Control_c, 5, 11, 47
7, 87420, Note_on_c, 5, 63, 0
7, 87420, Note_on_c, 5, 51, 0
7, 87425, Note_on_c, 5, 51, 90
7, 87425, Note_on_c, 5, 63, 90
7, 87480, Note_on_c, 5, 63, 0
7, 87480, Note_on_c, 5, 51, 0
7, 87485, Note_on_c, 5, 51, 90
7, 87485, Note_on_c, 5, 63, 90
7, 87570, Note_on_c, 5, 63, 0
7, 87570, Note_on_c, 5, 51, 0
7, 87575, Note_on_c, 5, 51, 90
7, 87575, Note_on_c, 5, 63, 90
7, 87600, Note_on_c, 5, 63, 0
7, 87600, Note_on_c, 5, 51, 0
7, 87605, Control_c, 5, 11, 52
7, 87605, Note_on_c, 5, 51, 90
7, 87605, Note_on_c, 5, 63, 90
7, 87625, Control_c, 5, 11, 55
7, 87646, Control_c, 5, 11, 58
7, 87666, Control_c, 5, 11, 61
7, 87687, Control_c, 5, 11, 64
7, 87707, Control_c, 5, 11, 67
7, 87728, Control_c, 5, 11, 70
7, 87749, Control_c, 5, 11, 73
7, 87769, Control_c, 5, 11, 76
7, 87790, Control_c, 5, 11, 79
7, 87810, Control_c, 5, 11, 82
7, 87831, Control_c, 5, 11, 85
7, 87840, Note_on_c, 5, 63, 0
7, 87840, Note_on_c, 5, 51, 0
7, 87845, Control_c, 5, 11, 100
7, 87845, Note_on_c, 5, 65, 90
7, 87851, Control_c, 5, 11, 97
7, 87858, Control_c, 5, 11, 94
7, 87865, Control_c, 5, 11, 91
7, 87872, Control_c, 5, 11, 88
7, 87886, Control_c, 5, 11, 85
7, 87904, Control_c, 5, 11, 82
7, 87922, Control_c, 5, 11, 79
7, 87940, Control_c, 5, 11, 76
7, 87958, Control_c, 5, 11, 73
7, 87980, Control_c, 5, 11, 71
7, 87995, Control_c, 5, 11, 70
7, 88010, Control_c, 5, 11, 69
7, 88025, Control_c, 5, 11, 68
7, 88040, Control_c, 5, 11, 67
7, 88055, Control_c, 5, 11, 66
7, 88070, Control_c, 5, 11, 65
7, 88085, Control_c, 5, 11, 64
7, 88100, Control_c, 5, 11, 63
7, 88115, Control_c, 5, 11, 62
7, 88130, Control_c, 5, 11, 61
7, 88145, Control_c, 5, 11, 60
7, 88145, Note_on_c, 5, 68, 90
7, 88160, Control_c, 5, 11, 59
7, 88175, Control_c, 5, 11, 58
7, 88190, Control_c, 5, 11, 57
7, 88205, Control_c, 5, 11, 56
7, 88220, Control_c, 5, 11, 55
7, 88235, Control_c, 5, 11, 54
7, 88250, Control_c, 5, 11, 53
7, 88260, Note_on_c, 5, 68, 0
7, 88260, Note_on_c, 5, 65, 0
7, 88265, Control_c, 5, 11, 52
7, 88265, Note_on_c, 5, 65, 90
7, 88265, Note_on_c, 5, 58, 90
7, 88320, Note_on_c, 5, 58, 0
7, 88320, Note_on_c, 5, 65, 0
7, 88325, Note_on_c, 5, 67, 90
7, 88325, Note_on_c, 5, 58, 90
7, 88380, Note_on_c, 5, 58, 0
7, 88380, Note_on_c, 5, 67, 0
7, 88385, Note_on_c, 5, 65, 90
7, 88385, Note_on_c, 5, 63, 90
7, 88440, Note_on_c, 5, 63, 0
7, 88440, Note_on_c, 5, 65, 0
7, 88445, Note_on_c, 5, 67, 90
7, 88445, Note_on_c, 5, 63, 90
7, 88560, Note_on_c, 5, 63, 0
7, 88560, Note_on_c, 5, 67, 0
7, 88565, Note_on_c, 5, 68, 90
7, 88565, Note_on_c, 5, 65, 90
7, 88650, Note_on_c, 5, 65, 0
7, 88650, Note_on_c, 5, 68, 0
7, 88655, Note_on_c, 5, 58, 90
7, 88655, Note_on_c, 5, 65, 90
7, 88680, Note_on_c, 5, 65, 0
7, 88680, Note_on_c, 5, 58, 0
7, 88685, Note_on_c, 5, 55, 90
7, 88685, Note_on_c, 5, 63, 90
7, 88740, Note_on_c, 5, 63, 0
7, 88740, Note_on_c, 5, 55, 0
7, 89165, Control_c, 5, 11, 32
7, 89165, Control_c, 5, 91, 122
7, 89165, Note_on_c, 5, 67, 90
7, 89174, Control_c, 5, 11, 35
7, 89183, Control_c, 5, 11, 38
7, 89197, Control_c, 5, 11, 41
7, 89213, Control_c, 5, 11, 43
7, 89229, Control_c, 5, 11, 45
7, 89245, Control_c, 5, 11, 47
7, 89261, Control_c, 5, 11, 49
7, 89277, Control_c, 5, 11, 51
7, 89285, Note_on_c, 5, 67, 0
7, 89285, Note_on_c, 5, 65, 90
7, 89405, Note_on_c, 5, 65, 0
7, 89405, Control_c, 5, 11, 67
7, 89405, Note_on_c, 5, 63, 90
7, 89429, Control_c, 5, 11, 65
7, 89453, Control_c, 5, 11, 63
7, 89477, Control_c, 5, 11, 61
7, 89501, Control_c, 5, 11, 59
7, 89525, Control_c, 5, 11, 57
7, 89549, Control_c, 5, 11, 55
7, 89573, Control_c, 5, 11, 53
7, 89585, Note_on_c, 5, 63, 0
7, 89585, Note_on_c, 5, 63, 90
7, 89645, Note_on_c, 5, 63, 0
7, 89645, Note_on_c, 5, 70, 90
7, 89665, Note_on_c, 5, 70, 0
7, 89665, Note_on_c, 5, 68, 90
7, 89735, Note_on_c, 5, 68, 0
7, 89735, Note_on_c, 5, 67, 90
7, 89765, Note_on_c, 5, 67, 0
7, 89765, Note_on_c, 5, 67, 90
7, 89825, Note_on_c, 5, 67, 0
7, 89825, Control_c, 5, 11, 68
7, 89825, Note_on_c, 5, 66, 90
7, 89832, Control_c, 5, 11, 71
7, 89839, Control_c, 5, 11, 74
7, 89846, Control_c, 5, 11, 77
7, 89861, Control_c, 5, 11, 76
7, 89879, Control_c, 5, 11, 73
7, 89894, Control_c, 5, 11, 71
7, 89913, Control_c, 5, 11, 69
7, 89933, Control_c, 5, 11, 67
7, 89952, Control_c, 5, 11, 65
7, 89971, Control_c, 5, 11, 63
7, 89990, Control_c, 5, 11, 61
7, 90005, Note_on_c, 5, 66, 0
7, 90005, Note_on_c, 5, 65, 90
7, 90009, Control_c, 5, 11, 59
7, 90029, Control_c, 5, 11, 57
7, 90048, Control_c, 5, 11, 55
7, 90067, Control_c, 5, 11, 53
7, 90086, Control_c, 5, 11, 51
7, 90105, Control_c, 5, 11, 49
7, 90125, Note_on_c, 5, 65, 0
7, 90125, Control_c, 5, 11, 47
7, 90125, Note_on_c, 5, 67, 90
7, 90185, Note_on_c, 5, 67, 0
7, 90185, Note_on_c, 5, 68, 90
7, 90215, Note_on_c, 5, 68, 0
7, 90215, Note_on_c, 5, 65, 90
7, 90245, Note_on_c, 5, 65, 0
7, 90245, Note_on_c, 5, 63, 90
7, 90395, Note_on_c, 5, 63, 0
7, 90395, Note_on_c, 5, 62, 90
7, 90425, Note_on_c, 5, 62, 0
7, 90425, Note_on_c, 5, 63, 90
7, 90455, Note_on_c, 5, 63, 0
7, 90455, Note_on_c, 5, 65, 90
7, 90485, Note_on_c, 5, 65, 0
7, 90485, Control_c, 5, 91, 80
7, 90485, Note_on_c, 5, 63, 85
7, 90495, Note_on_c, 5, 63, 0
7, 90500, Note_on_c, 5, 63, 91
7, 90510, Note_on_c, 5, 63, 0
7, 90515, Note_on_c, 5, 63, 98
7, 90525, Note_on_c, 5, 63, 0
7, 90530, Note_on_c, 5, 63, 105
7, 90540, Note_on_c, 5, 63, 0
7, 90545, Note_on_c, 5, 63, 112
7, 90570, Note_on_c, 5, 63, 0
7, 90575, Note_on_c, 5, 63, 85
7, 90600, Note_on_c, 5, 63, 0
7, 90620, Note_on_c, 5, 63, 85
7, 90630, Note_on_c, 5, 63, 0
7, 90635, Note_on_c, 5, 63, 94
7, 90645, Note_on_c, 5, 63, 0
7, 90650, Note_on_c, 5, 63, 103
7, 90660, Note_on_c, 5, 63, 0
7, 90665, Note_on_c, 5, 63, 112
7, 90690, Note_on_c, 5, 63, 0
7, 90695, Note_on_c, 5, 63, 85
7, 90720, Note_on_c, 5, 63, 0
7, 90740, Note_on_c, 5, 63, 85
7, 90750, Note_on_c, 5, 63, 0
7, 90755, Note_on_c, 5, 63, 94
7, 90765, Note_on_c, 5, 63, 0
7, 90770, Note_on_c, 5, 63, 103
7, 90780, Note_on_c, 5, 63, 0
7, 90785, Note_on_c, 5, 63, 112
7, 90810, Note_on_c, 5, 63, 0
7, 90815, Note_on_c, 5, 63, 85
7, 90840, Note_on_c, 5, 63, 0
7, 90875, Control_c, 5, 11, 52
7, 90899, Control_c, 5, 11, 54
7, 90923, Control_c, 5, 11, 56
7, 90947, Control_c, 5, 11, 58
7, 90971, Control_c, 5, 11, 60
7, 90995, Control_c, 5, 11, 62
7, 91019, Control_c, 5, 11, 64
7, 91043, Control_c, 5, 11, 66
7, 91055, Note_on_c, 5, 70, 90
7, 91055, Note_on_c, 5, 67, 90
7, 91067, Control_c, 5, 11, 68
7, 91085, Note_on_c, 5, 67, 0
7, 91085, Note_on_c, 5, 70, 0
7, 91091, Control_c, 5, 11, 70
7, 91115, Control_c, 5, 11, 72
7, 91115, Note_on_c, 5, 70, 90
7, 91115, Note_on_c, 5, 67, 90
7, 91139, Control_c, 5, 11, 74
7, 91145, Note_on_c, 5, 67, 0
7, 91145, Note_on_c, 5, 70, 0
7, 91163, Control_c, 5, 11, 76
7, 91175, Note_on_c, 5, 70, 90
7, 91175, Note_on_c, 5, 67, 90
7, 91200, Note_on_c, 5, 67, 0
7, 91200, Note_on_c, 5, 70, 0
7, 97325, Control_c, 5, 11, 83
7, 97325, Note_on_c, 5, 67, 90
7, 97358, Control_c, 5, 11, 84
7, 97387, Control_c, 5, 11, 85
7, 97416, Control_c, 5, 11, 86
7, 97430, Note_on_c, 5, 67, 0
7, 97445, Control_c, 5, 11, 87
7, 97445, Note_on_c, 5, 67, 90
7, 97550, Note_on_c, 5, 67, 0
7, 97565, Note_on_c, 5, 67, 90
7, 97670, Note_on_c, 5, 67, 0
7, 97685, Note_on_c, 5, 67, 90
7, 97790, Note_on_c, 5, 67, 0
7, 97805, Note_on_c, 5, 67, 90
7, 97910, Note_on_c, 5, 67, 0
7, 97925, Control_c, 5, 11, 87
7, 97925, Note_on_c, 5, 67, 90
7, 98017, Control_c, 5, 11, 88
7, 98030, Note_on_c, 5, 67, 0
7, 98045, Note_on_c, 5, 67, 90
7, 98109, Control_c, 5, 11, 89
7, 98150, Note_on_c, 5, 67, 0
7, 98165, Note_on_c, 5, 67, 90
7, 98201, Control_c, 5, 11, 90
7, 98270, Note_on_c, 5, 67, 0
7, 98285, Note_on_c, 5, 67, 90
7, 98293, Control_c, 5, 11, 91
7, 98385, Control_c, 5, 11, 92
7, 98390, Note_on_c, 5, 67, 0
7, 98405, Note_on_c, 5, 67, 90
7, 98477, Control_c, 5, 11, 93
7, 98510, Note_on_c, 5, 67, 0
7, 98525, Note_on_c, 5, 67, 90
7, 98569, Control_c, 5, 11, 94
7, 98630, Note_on_c, 5, 67, 0
7, 98645, Note_on_c, 5, 67, 90
7, 98661, Control_c, 5, 11, 95
7, 98750, Note_on_c, 5, 67, 0
7, 98753, Control_c, 5, 11, 96
7, 98765, Note_on_c, 5, 67, 90
7, 98845, Control_c, 5, 11, 97
7, 98870, Note_on_c, 5, 67, 0
7, 98885, Note_on_c, 5, 67, 90
7, 98937, Control_c, 5, 11, 98
7, 98990, Note_on_c, 5, 67, 0
7, 99005, Note_on_c, 5, 67, 90
7, 99029, Control_c, 5, 11, 99
7, 99110, Note_on_c, 5, 67, 0
7, 99121, Control_c, 5, 11, 100
7, 99125, Note_on_c, 5, 67, 90
7, 99213, Control_c, 5, 11, 101
7, 99230, Note_on_c, 5, 67, 0
7, 99245, Note_on_c, 5, 67, 90
7, 99305, Control_c, 5, 11, 102
7, 99365, Note_on_c, 5, 67, 0
7, 99485, Note_on_c, 5, 67, 90
7, 99605, Note_on_c, 5, 67, 0
7, 99725, Note_on_c, 5, 67, 90
7, 99845, Note_on_c, 5, 67, 0
7, 99845, Note_on_c, 5, 67, 90
7, 99965, Note_on_c, 5, 67, 0
7, 99965, Note_on_c, 5, 67, 90
7, 100085, Note_on_c, 5, 67, 0
7, 100085, Note_on_c, 5, 67, 90
7, 100685, Note_on_c, 5, 67, 0
7, 100685, Note_on_c, 5, 69, 90
7, 100805, Note_on_c, 5, 69, 0
7, 100805, Note_on_c, 5, 67, 90
7, 100925, Note_on_c, 5, 67, 0
7, 100925, Note_on_c, 5, 67, 90
7, 101045, Note_on_c, 5, 67, 0
7, 101045, Note_on_c, 5, 67, 90
7, 101645, Note_on_c, 5, 67, 0
7, 101645, Note_on_c, 5, 69, 90
7, 101765, Note_on_c, 5, 69, 0
7, 101765, Note_on_c, 5, 67, 90
7, 101885, Note_on_c, 5, 67, 0
7, 102125, Note_on_c, 5, 67, 90
7, 102245, Note_on_c, 5, 67, 0
7, 102245, Note_on_c, 5, 67, 90
7, 102365, Note_on_c, 5, 67, 0
7, 102605, Note_on_c, 5, 67, 90
7, 102725, Note_on_c, 5, 67, 0
7, 102725, Note_on_c, 5, 65, 90
7, 102845, Note_on_c, 5, 65, 0
7, 103085, Note_on_c, 5, 65, 90
7, 103205, Note_on_c, 5, 65, 0
7, 103205, Note_on_c, 5, 65, 90
7, 103325, Note_on_c, 5, 65, 0
7, 103565, Note_on_c, 5, 65, 90
7, 103685, Note_on_c, 5, 65, 0
7, 104165, Note_on_c, 5, 67, 90
7, 104285, Note_on_c, 5, 67, 0
7, 104525, Note_on_c, 5, 67, 90
7, 104645, Note_on_c, 5, 67, 0
7, 104645, Note_on_c, 5, 65, 90
7, 104765, Note_on_c, 5, 65, 0
7, 105005, Note_on_c, 5, 65, 90
7, 105125, Note_on_c, 5, 65, 0
7, 105125, Note_on_c, 5, 65, 90
7, 105245, Note_on_c, 5, 65, 0
7, 105485, Note_on_c, 5, 65, 90
7, 105605, Note_on_c, 5, 65, 0
7, 106565, Note_on_c, 5, 67, 75
7, 106685, Note_on_c, 5, 67, 0
7, 115445, Control_c, 5, 11, 67
7, 115445, Note_on_c, 5, 63, 90
7, 115529, Control_c, 5, 11, 68
7, 115565, Note_on_c, 5, 63, 0
7, 115613, Control_c, 5, 11, 69
7, 115697, Control_c, 5, 11, 70
7, 115781, Control_c, 5, 11, 71
7, 115865, Control_c, 5, 11, 72
7, 115925, Note_on_c, 5, 63, 90
7, 115949, Control_c, 5, 11, 73
7, 116033, Control_c, 5, 11, 74
7, 116045, Note_on_c, 5, 63, 0
7, 116117, Control_c, 5, 11, 75
7, 116201, Control_c, 5, 11, 76
7, 116285, Control_c, 5, 11, 77
7, 116285, Note_on_c, 5, 63, 90
7, 116369, Control_c, 5, 11, 78
7, 116405, Note_on_c, 5, 63, 0
7, 116405, Note_on_c, 5, 67, 90
7, 116405, Note_on_c, 5, 70, 90
7, 116453, Control_c, 5, 11, 79
7, 116537, Control_c, 5, 11, 80
7, 116621, Control_c, 5, 11, 81
7, 116705, Control_c, 5, 11, 82
7, 116765, Note_on_c, 5, 70, 0
7, 116765, Note_on_c, 5, 67, 0
7, 116765, Note_on_c, 5, 67, 90
7, 116765, Note_on_c, 5, 70, 90
7, 116789, Control_c, 5, 11, 83
7, 116873, Control_c, 5, 11, 84
7, 116885, Note_on_c, 5, 70, 0
7, 116885, Note_on_c, 5, 67, 0
7, 116885, Note_on_c, 5, 65, 90
7, 116885, Note_on_c, 5, 68, 90
7, 116957, Control_c, 5, 11, 85
7, 117005, Note_on_c, 5, 68, 0
7, 117005, Note_on_c, 5, 65, 0
7, 117005, Note_on_c, 5, 58, 90
7, 117005, Note_on_c, 5, 65, 90
7, 117041, Control_c, 5, 11, 86
7, 117125, Note_on_c, 5, 65, 0
7, 117125, Note_on_c, 5, 58, 0
7, 117125, Control_c, 5, 11, 87
7, 117125, Note_on_c, 5, 63, 90
7, 117125, Note_on_c, 5, 55, 90
7, 117245, Note_on_c, 5, 55, 0
7, 117245, Note_on_c, 5, 63, 0
7, 140165, Control_c, 5, 11, 87
7, 140165, Note_on_c, 5, 67, 90
7, 142085, Note_on_c, 5, 67, 0
7, 142085, Control_c, 5, 11, 87
7, 142085, Note_on_c, 5, 67, 90
7, 142085, Note_on_c, 5, 65, 90
7, 142181, Control_c, 5, 11, 88
7, 142277, Control_c, 5, 11, 89
7, 142373, Control_c, 5, 11, 90
7, 142469, Control_c, 5, 11, 91
7, 142565, Control_c, 5, 11, 92
7, 142661, Control_c, 5, 11, 93
7, 142757, Control_c, 5, 11, 94
7, 142853, Control_c, 5, 11, 95
7, 142949, Control_c, 5, 11, 96
7, 143045, Control_c, 5, 11, 97
7, 143141, Control_c, 5, 11, 98
7, 143237, Control_c, 5, 11, 99
7, 143333, Control_c, 5, 11, 100
7, 143429, Control_c, 5, 11, 101
7, 143525, Control_c, 5, 11, 102
7, 143621, Control_c, 5, 11, 103
7, 143717, Control_c, 5, 11, 104
7, 143813, Control_c, 5, 11, 105
7, 143909, Control_c, 5, 11, 106
7, 144005, Note_on_c, 5, 65, 0
7, 144005, Note_on_c, 5, 67, 0
7, 144005, Control_c, 5, 11, 107
7, 144005, Note_on_c, 5, 67, 90
7, 144125, Note_on_c, 5, 67, 0
7, 144845, Note_on_c, 5, 67, 90
7, 144953, Note_on_c, 5, 67, 0
7, 144965, Note_on_c, 5, 67, 90
7, 145085, Note_on_c, 5, 67, 0
7, 145325, Note_on_c, 5, 65, 90
7, 145433, Note_on_c, 5, 65, 0
7, 145445, Note_on_c, 5, 65, 90
7, 145565, Note_on_c, 5, 65, 0
7, 145805, Note_on_c, 5, 67, 90
7, 145913, Note_on_c, 5, 67, 0
7, 145925, Note_on_c, 5, 67, 90
7, 145985, Note_on_c, 5, 67, 0
7, 146045, Note_on_c, 5, 65, 90
7, 146105, Note_on_c, 5, 65, 0
7, 146165, Note_on_c, 5, 65, 90
7, 146225, Note_on_c, 5, 65, 0
7, 146285, Note_on_c, 5, 67, 90
7, 146345, Note_on_c, 5, 67, 0
7, 146405, Note_on_c, 5, 67, 90
7, 146465, Note_on_c, 5, 67, 0
7, 146525, Note_on_c, 5, 65, 90
7, 146585, Note_on_c, 5, 65, 0
7, 146645, Note_on_c, 5, 65, 90
7, 146705, Note_on_c, 5, 65, 0
7, 147005, Note_on_c, 5, 65, 90
7, 147065, Note_on_c, 5, 65, 0
7, 147125, Note_on_c, 5, 65, 90
7, 147185, Note_on_c, 5, 65, 0
7, 147245, Note_on_c, 5, 65, 90
7, 147305, Note_on_c, 5, 65, 0
7, 147365, Note_on_c, 5, 65, 90
7, 147425, Note_on_c, 5, 65, 0
7, 147485, Note_on_c, 5, 65, 90
7, 147545, Note_on_c, 5, 65, 0
7, 147605, Note_on_c, 5, 65, 90
7, 147665, Note_on_c, 5, 65, 0
7, 147725, Note_on_c, 5, 65, 90
7, 147785, Note_on_c, 5, 65, 0
7, 147845, Control_c, 5, 11, 122
7, 147845, Note_on_c, 5, 66, 90
7, 147868, Control_c, 5, 11, 120
7, 147892, Control_c, 5, 11, 118
7, 147916, Control_c, 5, 11, 116
7, 147940, Control_c, 5, 11, 114
7, 147964, Control_c, 5, 11, 112
7, 147988, Control_c, 5, 11, 110
7, 148012, Control_c, 5, 11, 108
7, 148036, Control_c, 5, 11, 106
7, 148060, Control_c, 5, 11, 104
7, 148084, Control_c, 5, 11, 102
7, 148795, Note_on_c, 5, 66, 0
7, 148805, Control_c, 5, 11, 122
7, 148805, Note_on_c, 5, 67, 90
7, 148828, Control_c, 5, 11, 120
7, 148852, Control_c, 5, 11, 118
7, 148876, Control_c, 5, 11, 116
7, 148900, Control_c, 5, 11, 114
7, 148924, Control_c, 5, 11, 112
7, 148948, Control_c, 5, 11, 110
7, 148972, Control_c, 5, 11, 108
7, 148996, Control_c, 5, 11, 106
7, 149020, Control_c, 5, 11, 104
7, 149044, Control_c, 5, 11, 102
7, 149755, Note_on_c, 5, 67, 0
7, 149765, Control_c, 5, 11, 122
7, 149765, Note_on_c, 5, 68, 90
7, 149788, Control_c, 5, 11, 120
7, 149812, Control_c, 5, 11, 118
7, 149836, Control_c, 5, 11, 116
7, 149860, Control_c, 5, 11, 114
7, 149884, Control_c, 5, 11, 112
7, 149908, Control_c, 5, 11, 110
7, 149932, Control_c, 5, 11, 108
7, 149956, Control_c, 5, 11, 106
7, 149980, Control_c, 5, 11, 104
7, 150004, Control_c, 5, 11, 102
7, 150715, Note_on_c, 5, 68, 0
7, 150725, Note_on_c, 5, 65, 90
7, 151085, Note_on_c, 5, 65, 0
7, 151205, Note_on_c, 5, 67, 90
7, 151565, Note_on_c, 5, 67, 0
7, 151685, Note_on_c, 5, 67, 90
7, 152045, Note_on_c, 5, 67, 0
7, 152165, Note_on_c, 5, 65, 90
7, 152525, Note_on_c, 5, 65, 0
7, 152645, Note_on_c, 5, 67, 90
7, 153005, Note_on_c, 5, 67, 0
7, 153125, Note_on_c, 5, 67, 90
7, 153485, Note_on_c, 5, 67, 0
7, 153605, Note_on_c, 5, 65, 90
7, 153965, Note_on_c, 5, 65, 0
7, 154085, Note_on_c, 5, 67, 90
7, 154445, Note_on_c, 5, 67, 0
7, 154565, Note_on_c, 5, 67, 90
7, 154925, Note_on_c, 5, 67, 0
7, 155045, Note_on_c, 5, 65, 90
7, 155405, Note_on_c, 5, 65, 0
7, 155525, Note_on_c, 5, 67, 90
7, 156115, Note_on_c, 5, 67, 0
7, 156125, Control_c, 5, 11, 112
7, 156125, Control_c, 5, 91, 122
7, 156125, Note_on_c, 5, 67, 117
7, 156235, Note_on_c, 5, 67, 0
7, 156245, Note_on_c, 5, 67, 117
7, 156355, Note_on_c, 5, 67, 0
7, 156365, Note_on_c, 5, 67, 117
7, 156475, Note_on_c, 5, 67, 0
7, 156485, Note_on_c, 5, 67, 117
7, 156595, Note_on_c, 5, 67, 0
7, 156605, Note_on_c, 5, 67, 117
7, 156715, Note_on_c, 5, 67, 0
7, 156725, Note_on_c, 5, 67, 117
7, 156835, Note_on_c, 5, 67, 0
7, 156845, Note_on_c, 5, 67, 117
7, 156955, Note_on_c, 5, 67, 0
7, 156965, Note_on_c, 5, 67, 117
7, 157075, Note_on_c, 5, 67, 0
7, 157085, Note_on_c, 5, 67, 117
7, 157195, Note_on_c, 5, 67, 0
7, 157205, Note_on_c, 5, 67, 117
7, 157315, Note_on_c, 5, 67, 0
7, 157325, Note_on_c, 5, 67, 117
7, 157435, Note_on_c, 5, 67, 0
7, 157445, Note_on_c, 5, 67, 117
7, 157565, Note_on_c, 5, 67, 0
7, 159365, Note_on_c, 5, 67, 90
7, 159485, Note_on_c, 5, 67, 0
7, 161285, Note_on_c, 5, 67, 90
7, 161405, Note_on_c, 5, 67, 0
7, 164165, Control_c, 5, 11, 72
7, 164165, Note_on_c, 5, 65, 105
7, 164168, Control_c, 5, 11, 75
7, 164171, Control_c, 5, 11, 78
7, 164174, Control_c, 5, 11, 81
7, 164177, Control_c, 5, 11, 84
7, 164180, Control_c, 5, 11, 87
7, 164183, Control_c, 5, 11, 90
7, 164186, Control_c, 5, 11, 93
7, 164189, Control_c, 5, 11, 96
7, 164192, Control_c, 5, 11, 99
7, 164195, Control_c, 5, 11, 102
7, 164510, Control_c, 5, 11, 102
7, 164513, Control_c, 5, 11, 99
7, 164516, Control_c, 5, 11, 96
7, 164519, Control_c, 5, 11, 93
7, 164523, Control_c, 5, 11, 90
7, 164526, Control_c, 5, 11, 87
7, 164529, Control_c, 5, 11, 84
7, 164533, Control_c, 5, 11, 81
7, 164536, Control_c, 5, 11, 78
7, 164539, Control_c, 5, 11, 75
7, 164543, Note_on_c, 5, 65, 0
7, 164543, Control_c, 5, 11, 72
7, 164885, Control_c, 5, 11, 87
7, 164885, Note_on_c, 5, 67, 90
7, 165005, Note_on_c, 5, 67, 0
7, 165365, Note_on_c, 5, 67, 105
7, 165485, Note_on_c, 5, 67, 0
7, 165725, Note_on_c, 5, 67, 105
7, 165845, Note_on_c, 5, 67, 0
7, 165965, Note_on_c, 5, 67, 105
7, 166085, Note_on_c, 5, 67, 0
7, 166205, Note_on_c, 5, 67, 105
7, 166325, Note_on_c, 5, 67, 0
7, 166445, Note_on_c, 5, 67, 105
7, 166565, Note_on_c, 5, 67, 0
7, 166685, Note_on_c, 5, 67, 105
7, 166805, Note_on_c, 5, 67, 0
7, 166925, Note_on_c, 5, 67, 105
7, 167045, Note_on_c, 5, 67, 0
7, 167045, Note_on_c, 5, 67, 105
7, 167165, Note_on_c, 5, 67, 0
7, 170405, Control_c, 5, 11, 102
7, 170405, Note_on_c, 5, 67, 105
7, 170525, Note_on_c, 5, 67, 0
7, 171365, Note_on_c, 5, 67, 105
7, 171485, Note_on_c, 5, 67, 0
7, 171845, Note_on_c, 5, 67, 105
7, 171965, Note_on_c, 5, 67, 0
7, 172325, Control_c, 5, 11, 112
7, 172805, Control_c, 5, 121, 0
7, 172805, End_track
8, 0, Start_track
8, 0, MIDI_port, 0
8, 0, Title_t, "2 Trombe in C"
8, 0, Program_c, 6, 56
8, 0, Control_c, 6, 10, 77
8, 4, Control_c, 6, 121, 0
8, 9, Program_c, 6, 56
8, 14, Pitch_bend_c, 6, 8192
8, 19, Control_c, 6, 11, 102
8, 24, Control_c, 6, 7, 127
8, 29, Control_c, 6, 91, 80
8, 34, Control_c, 6, 93, 0
8, 23404, Control_c, 6, 11, 92
8, 23404, Note_on_c, 6, 55, 121
8, 23404, Note_on_c, 6, 67, 121
8, 23524, Note_on_c, 6, 67, 0
8, 23524, Note_on_c, 6, 55, 0
8, 23524, Note_on_c, 6, 60, 101
8, 23524, Note_on_c, 6, 72, 101
8, 23644, Note_on_c, 6, 72, 0
8, 23644, Note_on_c, 6, 60, 0
8, 23764, Note_on_c, 6, 67, 101
8, 23764, Note_on_c, 6, 55, 101
8, 23884, Note_on_c, 6, 55, 0
8, 23884, Note_on_c, 6, 67, 0
8, 23908, Control_c, 6, 11, 93
8, 24004, Note_on_c, 6, 72, 101
8, 24004, Note_on_c, 6, 60, 101
8, 24124, Note_on_c, 6, 60, 0
8, 24124, Note_on_c, 6, 72, 0
8, 24244, Note_on_c, 6, 67, 101
8, 24244, Note_on_c, 6, 55, 101
8, 24364, Note_on_c, 6, 55, 0
8, 24364, Note_on_c, 6, 67, 0
8, 24412, Control_c, 6, 11, 94
8, 24484, Note_on_c, 6, 72, 101
8, 24484, Note_on_c, 6, 60, 101
8, 24604, Note_on_c, 6, 60, 0
8, 24604, Note_on_c, 6, 72, 0
8, 24724, Note_on_c, 6, 67, 101
8, 24724, Note_on_c, 6, 55, 101
8, 24844, Note_on_c, 6, 55, 0
8, 24844, Note_on_c, 6, 67, 0
8, 24916, Control_c, 6, 11, 95
8, 24964, Note_on_c, 6, 72, 101
8, 24964, Note_on_c, 6, 60, 101
8, 25084, Note_on_c, 6, 60, 0
8, 25084, Note_on_c, 6, 72, 0
8, 25204, Note_on_c, 6, 72, 101
8, 25204, Note_on_c, 6, 60, 101
8, 25324, Note_on_c, 6, 60, 0
8, 25324, Note_on_c, 6, 72, 0
8, 25420, Control_c, 6, 11, 96
8, 25444, Note_on_c, 6, 67, 101
8, 25444, Note_on_c, 6, 55, 101
8, 25564, Note_on_c, 6, 55, 0
8, 25564, Note_on_c, 6, 67, 0
8, 25684, Note_on_c, 6, 72, 101
8, 25684, Note_on_c, 6, 60, 101
8, 25804, Note_on_c, 6, 60, 0
8, 25804, Note_on_c, 6, 72, 0
8, 25924, Control_c, 6, 11, 97
8, 25924, Note_on_c, 6, 55, 101
8, 25924, Note_on_c, 6, 67, 101
8, 26034, Note_on_c, 6, 67, 0
8, 26034, Note_on_c, 6, 55, 0
8, 26044, Note_on_c, 6, 55, 101
8, 26044, Note_on_c, 6, 67, 101
8, 26104, Control_c, 6, 11, 98
8, 26154, Note_on_c, 6, 67, 0
8, 26154, Note_on_c, 6, 55, 0
8, 26164, Note_on_c, 6, 67, 101
8, 26164, Note_on_c, 6, 55, 101
8, 26274, Note_on_c, 6, 55, 0
8, 26274, Note_on_c, 6, 67, 0
8, 26284, Control_c, 6, 11, 99
8, 26284, Note_on_c, 6, 67, 101
8, 26284, Note_on_c, 6, 55, 101
8, 26394, Note_on_c, 6, 55, 0
8, 26394, Note_on_c, 6, 67, 0
8, 26404, Note_on_c, 6, 67, 101
8, 26404, Note_on_c, 6, 55, 101
8, 26464, Control_c, 6, 11, 100
8, 26514, Note_on_c, 6, 55, 0
8, 26514, Note_on_c, 6, 67, 0
8, 26524, Note_on_c, 6, 67, 101
8, 26524, Note_on_c, 6, 55, 101
8, 26634, Note_on_c, 6, 55, 0
8, 26634, Note_on_c, 6, 67, 0
8, 26644, Control_c, 6, 11, 101
8, 26644, Note_on_c, 6, 67, 101
8, 26644, Note_on_c, 6, 55, 101
8, 26754, Note_on_c, 6, 55, 0
8, 26754, Note_on_c, 6, 67, 0
8, 26764, Note_on_c, 6, 67, 101
8, 26764, Note_on_c, 6, 55, 101
8, 26824, Control_c, 6, 11, 102
8, 26874, Note_on_c, 6, 55, 0
8, 26874, Note_on_c, 6, 67, 0
8, 26884, Note_on_c, 6, 67, 101
8, 26884, Note_on_c, 6, 55, 101
8, 26994, Note_on_c, 6, 55, 0
8, 26994, Note_on_c, 6, 67, 0
8, 27004, Control_c, 6, 11, 103
8, 27004, Note_on_c, 6, 67, 101
8, 27004, Note_on_c, 6, 55, 101
8, 27114, Note_on_c, 6, 55, 0
8, 27114, Note_on_c, 6, 67, 0
8, 27124, Note_on_c, 6, 55, 101
8, 27124, Note_on_c, 6, 67, 101
8, 27184, Control_c, 6, 11, 104
8, 27234, Note_on_c, 6, 67, 0
8, 27234, Note_on_c, 6, 55, 0
8, 27244, Note_on_c, 6, 67, 101
8, 27244, Note_on_c, 6, 55, 101
8, 27354, Note_on_c, 6, 55, 0
8, 27354, Note_on_c, 6, 67, 0
8, 27364, Control_c, 6, 11, 105
8, 27364, Note_on_c, 6, 67, 101
8, 27364, Note_on_c, 6, 55, 101
8, 27474, Note_on_c, 6, 55, 0
8, 27474, Note_on_c, 6, 67, 0
8, 27484, Note_on_c, 6, 67, 101
8, 27484, Note_on_c, 6, 55, 101
8, 27544, Control_c, 6, 11, 106
8, 27594, Note_on_c, 6, 55, 0
8, 27594, Note_on_c, 6, 67, 0
8, 27604, Note_on_c, 6, 72, 101
8, 27604, Note_on_c, 6, 60, 101
8, 27714, Note_on_c, 6, 60, 0
8, 27714, Note_on_c, 6, 72, 0
8, 27724, Control_c, 6, 11, 107
8, 27724, Note_on_c, 6, 72, 101
8, 27724, Note_on_c, 6, 60, 101
8, 27834, Note_on_c, 6, 60, 0
8, 27834, Note_on_c, 6, 72, 0
8, 27964, Note_on_c, 6, 72, 101
8, 27964, Note_on_c, 6, 60, 101
8, 28084, Note_on_c, 6, 60, 0
8, 28084, Note_on_c, 6, 72, 0
8, 28204, Note_on_c, 6, 72, 101
8, 28204, Note_on_c, 6, 60, 101
8, 28324, Note_on_c, 6, 60, 0
8, 28324, Note_on_c, 6, 72, 0
8, 28444, Control_c, 6, 11, 77
8, 28444, Note_on_c, 6, 72, 77
8, 28444, Note_on_c, 6, 60, 77
8, 28564, Note_on_c, 6, 60, 0
8, 28564, Note_on_c, 6, 72, 0
8, 29404, Control_c, 6, 11, 77
8, 29404, Note_on_c, 6, 60, 77
8, 29404, Note_on_c, 6, 72, 77
8, 29524, Note_on_c, 6, 72, 0
8, 29524, Note_on_c, 6, 60, 0
8, 30364, Control_c, 6, 11, 77
8, 30364, Note_on_c, 6, 60, 77
8, 30364, Note_on_c, 6, 72, 77
8, 30484, Note_on_c, 6, 72, 0
8, 30484, Note_on_c, 6, 60, 0
8, 38764, Control_c, 6, 11, 102
8, 38764, Note_on_c, 6, 60, 101
8, 38764, Note_on_c, 6, 72, 101
8, 38884, Note_on_c, 6, 72, 0
8, 38884, Note_on_c, 6, 60, 0
8, 39004, Note_on_c, 6, 60, 101
8, 39004, Note_on_c, 6, 72, 101
8, 39124, Note_on_c, 6, 72, 0
8, 39124, Note_on_c, 6, 60, 0
8, 39244, Note_on_c, 6, 60, 101
8, 39244, Note_on_c, 6, 72, 101
8, 39364, Note_on_c, 6, 72, 0
8, 39364, Note_on_c, 6, 60, 0
8, 39364, Note_on_c, 6, 72, 101
8, 39364, Note_on_c, 6, 60, 101
8, 39484, Note_on_c, 6, 60, 0
8, 39484, Note_on_c, 6, 72, 0
8, 39484, Note_on_c, 6, 72, 101
8, 39484, Note_on_c, 6, 60, 101
8, 39604, Note_on_c, 6, 60, 0
8, 39604, Note_on_c, 6, 72, 0
8, 39604, Note_on_c, 6, 60, 101
8, 39604, Note_on_c, 6, 72, 101
8, 40204, Note_on_c, 6, 72, 0
8, 40204, Note_on_c, 6, 60, 0
8, 40204, Note_on_c, 6, 60, 101
8, 40204, Note_on_c, 6, 72, 101
8, 40324, Note_on_c, 6, 72, 0
8, 40324, Note_on_c, 6, 60, 0
8, 40324, Note_on_c, 6, 60, 101
8, 40324, Note_on_c, 6, 72, 101
8, 40444, Note_on_c, 6, 72, 0
8, 40444, Note_on_c, 6, 60, 0
8, 40444, Note_on_c, 6, 60, 101
8, 40444, Note_on_c, 6, 72, 101
8, 40564, Note_on_c, 6, 72, 0
8, 40564, Note_on_c, 6, 60, 0
8, 40564, Note_on_c, 6, 60, 101
8, 40564, Note_on_c, 6, 72, 101
8, 41164, Note_on_c, 6, 72, 0
8, 41164, Note_on_c, 6, 60, 0
8, 41164, Note_on_c, 6, 72, 101
8, 41164, Note_on_c, 6, 60, 101
8, 41284, Note_on_c, 6, 60, 0
8, 41284, Note_on_c, 6, 72, 0
8, 41284, Note_on_c, 6, 60, 101
8, 41284, Note_on_c, 6, 72, 101
8, 41404, Note_on_c, 6, 72, 0
8, 41404, Note_on_c, 6, 60, 0
8, 41644, Note_on_c, 6, 72, 101
8, 41644, Note_on_c, 6, 60, 101
8, 41764, Note_on_c, 6, 60, 0
8, 41764, Note_on_c, 6, 72, 0
8, 41764, Note_on_c, 6, 60, 101
8, 41764, Note_on_c, 6, 72, 101
8, 41884, Note_on_c, 6, 72, 0
8, 41884, Note_on_c, 6, 60, 0
8, 42124, Note_on_c, 6, 72, 101
8, 42124, Note_on_c, 6, 60, 101
8, 42244, Note_on_c, 6, 60, 0
8, 42244, Note_on_c, 6, 72, 0
8, 42244, Note_on_c, 6, 60, 101
8, 42244, Note_on_c, 6, 72, 101
8, 42364, Note_on_c, 6, 72, 0
8, 42364, Note_on_c, 6, 60, 0
8, 42604, Note_on_c, 6, 72, 101
8, 42604, Note_on_c, 6, 60, 101
8, 42724, Note_on_c, 6, 60, 0
8, 42724, Note_on_c, 6, 72, 0
8, 42724, Note_on_c, 6, 55, 101
8, 42724, Note_on_c, 6, 67, 101
8, 42844, Note_on_c, 6, 67, 0
8, 42844, Note_on_c, 6, 55, 0
8, 43084, Note_on_c, 6, 67, 101
8, 43084, Note_on_c, 6, 55, 101
8, 43204, Note_on_c, 6, 55, 0
8, 43204, Note_on_c, 6, 67, 0
8, 43204, Note_on_c, 6, 60, 101
8, 43204, Note_on_c, 6, 72, 101
8, 43324, Note_on_c, 6, 72, 0
8, 43324, Note_on_c, 6, 60, 0
8, 43564, Note_on_c, 6, 72, 101
8, 43564, Note_on_c, 6, 60, 101
8, 43684, Note_on_c, 6, 60, 0
8, 43684, Note_on_c, 6, 72, 0
8, 43684, Note_on_c, 6, 72, 101
8, 43684, Note_on_c, 6, 60, 101
8, 43804, Note_on_c, 6, 60, 0
8, 43804, Note_on_c, 6, 72, 0
8, 44044, Note_on_c, 6, 60, 101
8, 44044, Note_on_c, 6, 72, 101
8, 44164, Note_on_c, 6, 72, 0
8, 44164, Note_on_c, 6, 60, 0
8, 44164, Note_on_c, 6, 72, 101
8, 44164, Note_on_c, 6, 60, 101
8, 44284, Note_on_c, 6, 60, 0
8, 44284, Note_on_c, 6, 72, 0
8, 44524, Note_on_c, 6, 60, 101
8, 44524, Note_on_c, 6, 72, 101
8, 44644, Note_on_c, 6, 72, 0
8, 44644, Note_on_c, 6, 60, 0
8, 44644, Note_on_c, 6, 72, 101
8, 44644, Note_on_c, 6, 60, 101
8, 44764, Note_on_c, 6, 60, 0
8, 44764, Note_on_c, 6, 72, 0
8, 45004, Note_on_c, 6, 60, 101
8, 45004, Note_on_c, 6, 72, 101
8, 45124, Note_on_c, 6, 72, 0
8, 45124, Note_on_c, 6, 60, 0
8, 45124, Note_on_c, 6, 72, 101
8, 45124, Note_on_c, 6, 60, 101
8, 45244, Note_on_c, 6, 60, 0
8, 45244, Note_on_c, 6, 72, 0
8, 45484, Note_on_c, 6, 60, 101
8, 45484, Note_on_c, 6, 72, 101
8, 45604, Note_on_c, 6, 72, 0
8, 45604, Note_on_c, 6, 60, 0
8, 45604, Note_on_c, 6, 72, 101
8, 45604, Note_on_c, 6, 60, 101
8, 45724, Note_on_c, 6, 60, 0
8, 45724, Note_on_c, 6, 72, 0
8, 45964, Note_on_c, 6, 60, 101
8, 45964, Note_on_c, 6, 72, 101
8, 46084, Note_on_c, 6, 72, 0
8, 46084, Note_on_c, 6, 60, 0
8, 46084, Note_on_c, 6, 72, 101
8, 46084, Note_on_c, 6, 60, 101
8, 46204, Note_on_c, 6, 60, 0
8, 46204, Note_on_c, 6, 72, 0
8, 63364, Control_c, 6, 11, 87
8, 63364, Note_on_c, 6, 60, 101
8, 63364, Note_on_c, 6, 72, 101
8, 63964, Note_on_c, 6, 72, 0
8, 63964, Note_on_c, 6, 60, 0
8, 64324, Note_on_c, 6, 74, 101
8, 64324, Note_on_c, 6, 67, 101
8, 64924, Note_on_c, 6, 67, 0
8, 64924, Note_on_c, 6, 74, 0
8, 65284, Control_c, 6, 11, 95
8, 65284, Note_on_c, 6, 60, 101
8, 65284, Note_on_c, 6, 72, 101
8, 65404, Note_on_c, 6, 72, 0
8, 65404, Note_on_c, 6, 60, 0
8, 65644, Note_on_c, 6, 60, 101
8, 65644, Note_on_c, 6, 72, 101
8, 65764, Note_on_c, 6, 72, 0
8, 65764, Note_on_c, 6, 60, 0
8, 65764, Note_on_c, 6, 55, 101
8, 65764, Note_on_c, 6, 67, 101
8, 65884, Note_on_c, 6, 67, 0
8, 65884, Note_on_c, 6, 55, 0
8, 66124, Note_on_c, 6, 55, 101
8, 66124, Note_on_c, 6, 67, 101
8, 66244, Note_on_c, 6, 67, 0
8, 66244, Note_on_c, 6, 55, 0
8, 66244, Note_on_c, 6, 72, 101
8, 66244, Note_on_c, 6, 60, 101
8, 66364, Note_on_c, 6, 60, 0
8, 66364, Note_on_c, 6, 72, 0
8, 66604, Note_on_c, 6, 72, 101
8, 66604, Note_on_c, 6, 60, 101
8, 66724, Note_on_c, 6, 60, 0
8, 66724, Note_on_c, 6, 72, 0
8, 66724, Note_on_c, 6, 55, 101
8, 66724, Note_on_c, 6, 67, 101
8, 66844, Note_on_c, 6, 67, 0
8, 66844, Note_on_c, 6, 55, 0
8, 67084, Note_on_c, 6, 67, 101
8, 67084, Note_on_c, 6, 55, 101
8, 67204, Note_on_c, 6, 55, 0
8, 67204, Note_on_c, 6, 67, 0
8, 67204, Note_on_c, 6, 72, 101
8, 67204, Note_on_c, 6, 60, 101
8, 67324, Note_on_c, 6, 60, 0
8, 67324, Note_on_c, 6, 72, 0
8, 67564, Note_on_c, 6, 60, 101
8, 67564, Note_on_c, 6, 72, 101
8, 67684, Note_on_c, 6, 72, 0
8, 67684, Note_on_c, 6, 60, 0
8, 67684, Note_on_c, 6, 60, 101
8, 67684, Note_on_c, 6, 72, 101
8, 67804, Note_on_c, 6, 72, 0
8, 67804, Note_on_c, 6, 60, 0
8, 68044, Note_on_c, 6, 72, 101
8, 68044, Note_on_c, 6, 60, 101
8, 68164, Note_on_c, 6, 60, 0
8, 68164, Note_on_c, 6, 72, 0
8, 68164, Control_c, 6, 11, 102
8, 68164, Note_on_c, 6, 67, 101
8, 68164, Note_on_c, 6, 55, 101
8, 70324, Note_on_c, 6, 55, 0
8, 70324, Note_on_c, 6, 67, 0
8, 70324, Note_on_c, 6, 67, 101
8, 70324, Note_on_c, 6, 55, 101
8, 70444, Note_on_c, 6, 55, 0
8, 70444, Note_on_c, 6, 67, 0
8, 70804, Note_on_c, 6, 67, 101
8, 70804, Note_on_c, 6, 55, 101
8, 70924, Note_on_c, 6, 55, 0
8, 70924, Note_on_c, 6, 67, 0
8, 71044, Note_on_c, 6, 55, 101
8, 71044, Note_on_c, 6, 67, 101
8, 71404, Note_on_c, 6, 67, 0
8, 71404, Note_on_c, 6, 55, 0
8, 72004, Note_on_c, 6, 60, 101
8, 72004, Note_on_c, 6, 76, 101
8, 72124, Note_on_c, 6, 76, 0
8, 72124, Note_on_c, 6, 60, 0
8, 72244, Note_on_c, 6, 60, 101
8, 72244, Note_on_c, 6, 76, 101
8, 72364, Note_on_c, 6, 76, 0
8, 72364, Note_on_c, 6, 60, 0
8, 72484, Note_on_c, 6, 76, 101
8, 72484, Note_on_c, 6, 60, 101
8, 72604, Note_on_c, 6, 60, 0
8, 72604, Note_on_c, 6, 76, 0
8, 72724, Note_on_c, 6, 60, 101
8, 72724, Note_on_c, 6, 76, 101
8, 72844, Note_on_c, 6, 76, 0
8, 72844, Note_on_c, 6, 60, 0
8, 72964, Note_on_c, 6, 76, 101
8, 72964, Note_on_c, 6, 60, 101
8, 73084, Note_on_c, 6, 60, 0
8, 73084, Note_on_c, 6, 76, 0
8, 73084, Note_on_c, 6, 60, 101
8, 73084, Note_on_c, 6, 76, 101
8, 73204, Note_on_c, 6, 76, 0
8, 73204, Note_on_c, 6, 60, 0
8, 73204, Note_on_c, 6, 76, 101
8, 73204, Note_on_c, 6, 60, 101
8, 73324, Note_on_c, 6, 60, 0
8, 73324, Note_on_c, 6, 76, 0
8, 74884, Note_on_c, 6, 60, 101
8, 74884, Note_on_c, 6, 76, 101
8, 75004, Note_on_c, 6, 76, 0
8, 75004, Note_on_c, 6, 60, 0
8, 75124, Note_on_c, 6, 60, 101
8, 75124, Note_on_c, 6, 76, 101
8, 75244, Note_on_c, 6, 76, 0
8, 75244, Note_on_c, 6, 60, 0
8, 75364, Note_on_c, 6, 76, 101
8, 75364, Note_on_c, 6, 60, 101
8, 75484, Note_on_c, 6, 60, 0
8, 75484, Note_on_c, 6, 76, 0
8, 75604, Note_on_c, 6, 60, 101
8, 75604, Note_on_c, 6, 76, 101
8, 75724, Note_on_c, 6, 76, 0
8, 75724, Note_on_c, 6, 60, 0
8, 75844, Note_on_c, 6, 76, 101
8, 75844, Note_on_c, 6, 60, 101
8, 75964, Note_on_c, 6, 60, 0
8, 75964, Note_on_c, 6, 76, 0
8, 75964, Note_on_c, 6, 60, 101
8, 75964, Note_on_c, 6, 76, 101
8, 76084, Note_on_c, 6, 76, 0
8, 76084, Note_on_c, 6, 60, 0
8, 76084, Note_on_c, 6, 76, 101
8, 76084, Note_on_c, 6, 60, 101
8, 76204, Note_on_c, 6, 60, 0
8, 76204, Note_on_c, 6, 76, 0
8, 79564, Note_on_c, 6, 67, 101
8, 79564, Note_on_c, 6, 55, 101
8, 79684, Note_on_c, 6, 55, 0
8, 79684, Note_on_c, 6, 67, 0
8, 79684, Note_on_c, 6, 55, 101
8, 79684, Note_on_c, 6, 67, 101
8, 79804, Note_on_c, 6, 67, 0
8, 79804, Note_on_c, 6, 55, 0
8, 79804, Note_on_c, 6, 55, 101
8, 79804, Note_on_c, 6, 67, 101
8, 79924, Note_on_c, 6, 67, 0
8, 79924, Note_on_c, 6, 55, 0
8, 79924, Note_on_c, 6, 55, 101
8, 79924, Note_on_c, 6, 67, 101
8, 80044, Note_on_c, 6, 67, 0
8, 80044, Note_on_c, 6, 55, 0
8, 80044, Note_on_c, 6, 55, 101
8, 80044, Note_on_c, 6, 67, 101
8, 80164, Note_on_c, 6, 67, 0
8, 80164, Note_on_c, 6, 55, 0
8, 80164, Note_on_c, 6, 55, 101
8, 80164, Note_on_c, 6, 67, 101
8, 80284, Note_on_c, 6, 67, 0
8, 80284, Note_on_c, 6, 55, 0
8, 80284, Note_on_c, 6, 55, 101
8, 80284, Note_on_c, 6, 67, 101
8, 80404, Note_on_c, 6, 67, 0
8, 80404, Note_on_c, 6, 55, 0
8, 80404, Note_on_c, 6, 67, 101
8, 80404, Note_on_c, 6, 55, 101
8, 80524, Note_on_c, 6, 55, 0
8, 80524, Note_on_c, 6, 67, 0
8, 80524, Note_on_c, 6, 55, 101
8, 80524, Note_on_c, 6, 67, 101
8, 80644, Note_on_c, 6, 67, 0
8, 80644, Note_on_c, 6, 55, 0
8, 80644, Note_on_c, 6, 55, 101
8, 80644, Note_on_c, 6, 67, 101
8, 80764, Note_on_c, 6, 67, 0
8, 80764, Note_on_c, 6, 55, 0
8, 80764, Note_on_c, 6, 55, 101
8, 80764, Note_on_c, 6, 67, 101
8, 80884, Note_on_c, 6, 67, 0
8, 80884, Note_on_c, 6, 55, 0
8, 80884, Note_on_c, 6, 55, 101
8, 80884, Note_on_c, 6, 67, 101
8, 81004, Note_on_c, 6, 67, 0
8, 81004, Note_on_c, 6, 55, 0
8, 81004, Note_on_c, 6, 55, 101
8, 81004, Note_on_c, 6, 67, 101
8, 81124, Note_on_c, 6, 67, 0
8, 81124, Note_on_c, 6, 55, 0
8, 81124, Note_on_c, 6, 74, 101
8, 81244, Note_on_c, 6, 74, 0
8, 81484, Note_on_c, 6, 74, 101
8, 81604, Note_on_c, 6, 74, 0
8, 81604, Note_on_c, 6, 67, 101
8, 81724, Note_on_c, 6, 67, 0
8, 97324, Control_c, 6, 11, 83
8, 97324, Note_on_c, 6, 67, 101
8, 97324, Note_on_c, 6, 55, 101
8, 97357, Control_c, 6, 11, 84
8, 97386, Control_c, 6, 11, 85
8, 97415, Control_c, 6, 11, 86
8, 97429, Note_on_c, 6, 55, 0
8, 97429, Note_on_c, 6, 67, 0
8, 97444, Control_c, 6, 11, 87
8, 97444, Note_on_c, 6, 67, 101
8, 97444, Note_on_c, 6, 55, 101
8, 97549, Note_on_c, 6, 55, 0
8, 97549, Note_on_c, 6, 67, 0
8, 97564, Note_on_c, 6, 67, 101
8, 97564, Note_on_c, 6, 55, 101
8, 97669, Note_on_c, 6, 55, 0
8, 97669, Note_on_c, 6, 67, 0
8, 97684, Note_on_c, 6, 67, 101
8, 97684, Note_on_c, 6, 55, 101
8, 97789, Note_on_c, 6, 55, 0
8, 97789, Note_on_c, 6, 67, 0
8, 97804, Note_on_c, 6, 67, 101
8, 97804, Note_on_c, 6, 55, 101
8, 97909, Note_on_c, 6, 55, 0
8, 97909, Note_on_c, 6, 67, 0
8, 97924, Control_c, 6, 11, 87
8, 97924, Note_on_c, 6, 67, 101
8, 97924, Note_on_c, 6, 55, 101
8, 98016, Control_c, 6, 11, 88
8, 98029, Note_on_c, 6, 55, 0
8, 98029, Note_on_c, 6, 67, 0
8, 98044, Note_on_c, 6, 55, 101
8, 98044, Note_on_c, 6, 67, 101
8, 98108, Control_c, 6, 11, 89
8, 98149, Note_on_c, 6, 67, 0
8, 98149, Note_on_c, 6, 55, 0
8, 98164, Note_on_c, 6, 67, 101
8, 98164, Note_on_c, 6, 55, 101
8, 98200, Control_c, 6, 11, 90
8, 98269, Note_on_c, 6, 55, 0
8, 98269, Note_on_c, 6, 67, 0
8, 98284, Note_on_c, 6, 55, 101
8, 98284, Note_on_c, 6, 67, 101
8, 98292, Control_c, 6, 11, 91
8, 98384, Control_c, 6, 11, 92
8, 98389, Note_on_c, 6, 67, 0
8, 98389, Note_on_c, 6, 55, 0
8, 98404, Note_on_c, 6, 55, 101
8, 98404, Note_on_c, 6, 67, 101
8, 98476, Control_c, 6, 11, 93
8, 98509, Note_on_c, 6, 67, 0
8, 98509, Note_on_c, 6, 55, 0
8, 98524, Note_on_c, 6, 67, 101
8, 98524, Note_on_c, 6, 55, 101
8, 98568, Control_c, 6, 11, 94
8, 98629, Note_on_c, 6, 55, 0
8, 98629, Note_on_c, 6, 67, 0
8, 98644, Note_on_c, 6, 67, 101
8, 98644, Note_on_c, 6, 55, 101
8, 98660, Control_c, 6, 11, 95
8, 98749, Note_on_c, 6, 55, 0
8, 98749, Note_on_c, 6, 67, 0
8, 98752, Control_c, 6, 11, 96
8, 98764, Note_on_c, 6, 67, 101
8, 98764, Note_on_c, 6, 55, 101
8, 98844, Control_c, 6, 11, 97
8, 98869, Note_on_c, 6, 55, 0
8, 98869, Note_on_c, 6, 67, 0
8, 98884, Note_on_c, 6, 55, 101
8, 98884, Note_on_c, 6, 67, 101
8, 98936, Control_c, 6, 11, 98
8, 98989, Note_on_c, 6, 67, 0
8, 98989, Note_on_c, 6, 55, 0
8, 99004, Note_on_c, 6, 55, 101
8, 99004, Note_on_c, 6, 67, 101
8, 99028, Control_c, 6, 11, 99
8, 99109, Note_on_c, 6, 67, 0
8, 99109, Note_on_c, 6, 55, 0
8, 99120, Control_c, 6, 11, 100
8, 99124, Note_on_c, 6, 55, 101
8, 99124, Note_on_c, 6, 67, 101
8, 99212, Control_c, 6, 11, 101
8, 99229, Note_on_c, 6, 67, 0
8, 99229, Note_on_c, 6, 55, 0
8, 99244, Note_on_c, 6, 72, 101
8, 99244, Note_on_c, 6, 60, 101
8, 99304, Control_c, 6, 11, 102
8, 99364, Note_on_c, 6, 60, 0
8, 99364, Note_on_c, 6, 72, 0
8, 99484, Note_on_c, 6, 72, 101
8, 99484, Note_on_c, 6, 60, 101
8, 99604, Note_on_c, 6, 60, 0
8, 99604, Note_on_c, 6, 72, 0
8, 99724, Note_on_c, 6, 72, 101
8, 99724, Note_on_c, 6, 60, 101
8, 99844, Note_on_c, 6, 60, 0
8, 99844, Note_on_c, 6, 72, 0
8, 99844, Note_on_c, 6, 72, 101
8, 99844, Note_on_c, 6, 60, 101
8, 99964, Note_on_c, 6, 60, 0
8, 99964, Note_on_c, 6, 72, 0
8, 99964, Note_on_c, 6, 72, 101
8, 99964, Note_on_c, 6, 60, 101
8, 100084, Note_on_c, 6, 60, 0
8, 100084, Note_on_c, 6, 72, 0
8, 100084, Note_on_c, 6, 60, 101
8, 100084, Note_on_c, 6, 72, 101
8, 100684, Note_on_c, 6, 72, 0
8, 100684, Note_on_c, 6, 60, 0
8, 100684, Note_on_c, 6, 60, 101
8, 100684, Note_on_c, 6, 72, 101
8, 100804, Note_on_c, 6, 72, 0
8, 100804, Note_on_c, 6, 60, 0
8, 100804, Note_on_c, 6, 60, 101
8, 100804, Note_on_c, 6, 72, 101
8, 100924, Note_on_c, 6, 72, 0
8, 100924, Note_on_c, 6, 60, 0
8, 100924, Note_on_c, 6, 60, 101
8, 100924, Note_on_c, 6, 72, 101
8, 101044, Note_on_c, 6, 72, 0
8, 101044, Note_on_c, 6, 60, 0
8, 101044, Note_on_c, 6, 60, 101
8, 101044, Note_on_c, 6, 72, 101
8, 101644, Note_on_c, 6, 72, 0
8, 101644, Note_on_c, 6, 60, 0
8, 101644, Note_on_c, 6, 72, 101
8, 101644, Note_on_c, 6, 60, 101
8, 101764, Note_on_c, 6, 60, 0
8, 101764, Note_on_c, 6, 72, 0
8, 101764, Note_on_c, 6, 60, 101
8, 101764, Note_on_c, 6, 72, 101
8, 101884, Note_on_c, 6, 72, 0
8, 101884, Note_on_c, 6, 60, 0
8, 102124, Note_on_c, 6, 72, 101
8, 102124, Note_on_c, 6, 60, 101
8, 102244, Note_on_c, 6, 60, 0
8, 102244, Note_on_c, 6, 72, 0
8, 102244, Note_on_c, 6, 60, 101
8, 102244, Note_on_c, 6, 72, 101
8, 102364, Note_on_c, 6, 72, 0
8, 102364, Note_on_c, 6, 60, 0
8, 102604, Note_on_c, 6, 72, 101
8, 102604, Note_on_c, 6, 60, 101
8, 102724, Note_on_c, 6, 60, 0
8, 102724, Note_on_c, 6, 72, 0
8, 102724, Note_on_c, 6, 60, 101
8, 102724, Note_on_c, 6, 72, 101
8, 102844, Note_on_c, 6, 72, 0
8, 102844, Note_on_c, 6, 60, 0
8, 103084, Note_on_c, 6, 72, 101
8, 103084, Note_on_c, 6, 60, 101
8, 103204, Note_on_c, 6, 60, 0
8, 103204, Note_on_c, 6, 72, 0
8, 103204, Note_on_c, 6, 55, 101
8, 103204, Note_on_c, 6, 67, 101
8, 103324, Note_on_c, 6, 67, 0
8, 103324, Note_on_c, 6, 55, 0
8, 103564, Note_on_c, 6, 67, 101
8, 103564, Note_on_c, 6, 55, 101
8, 103684, Note_on_c, 6, 55, 0
8, 103684, Note_on_c, 6, 67, 0
8, 103684, Note_on_c, 6, 60, 101
8, 103684, Note_on_c, 6, 72, 101
8, 103804, Note_on_c, 6, 72, 0
8, 103804, Note_on_c, 6, 60, 0
8, 104044, Note_on_c, 6, 72, 101
8, 104044, Note_on_c, 6, 60, 101
8, 104164, Note_on_c, 6, 60, 0
8, 104164, Note_on_c, 6, 72, 0
8, 104164, Note_on_c, 6, 72, 101
8, 104164, Note_on_c, 6, 60, 101
8, 104284, Note_on_c, 6, 60, 0
8, 104284, Note_on_c, 6, 72, 0
8, 104524, Note_on_c, 6, 60, 101
8, 104524, Note_on_c, 6, 72, 101
8, 104644, Note_on_c, 6, 72, 0
8, 104644, Note_on_c, 6, 60, 0
8, 104644, Note_on_c, 6, 72, 101
8, 104644, Note_on_c, 6, 60, 101
8, 104764, Note_on_c, 6, 60, 0
8, 104764, Note_on_c, 6, 72, 0
8, 105004, Note_on_c, 6, 60, 101
8, 105004, Note_on_c, 6, 72, 101
8, 105124, Note_on_c, 6, 72, 0
8, 105124, Note_on_c, 6, 60, 0
8, 105124, Note_on_c, 6, 72, 101
8, 105124, Note_on_c, 6, 60, 101
8, 105244, Note_on_c, 6, 60, 0
8, 105244, Note_on_c, 6, 72, 0
8, 105484, Note_on_c, 6, 60, 101
8, 105484, Note_on_c, 6, 72, 101
8, 105604, Note_on_c, 6, 72, 0
8, 105604, Note_on_c, 6, 60, 0
8, 105604, Note_on_c, 6, 72, 101
8, 105604, Note_on_c, 6, 60, 101
8, 105724, Note_on_c, 6, 60, 0
8, 105724, Note_on_c, 6, 72, 0
8, 105964, Note_on_c, 6, 60, 101
8, 105964, Note_on_c, 6, 72, 101
8, 106084, Note_on_c, 6, 72, 0
8, 106084, Note_on_c, 6, 60, 0
8, 106084, Note_on_c, 6, 72, 101
8, 106084, Note_on_c, 6, 60, 101
8, 106204, Note_on_c, 6, 60, 0
8, 106204, Note_on_c, 6, 72, 0
8, 106444, Note_on_c, 6, 60, 101
8, 106444, Note_on_c, 6, 72, 101
8, 106564, Note_on_c, 6, 72, 0
8, 106564, Note_on_c, 6, 60, 0
8, 106564, Note_on_c, 6, 67, 86
8, 106564, Note_on_c, 6, 55, 86
8, 106684, Note_on_c, 6, 55, 0
8, 106684, Note_on_c, 6, 67, 0
8, 140164, Control_c, 6, 11, 87
8, 140164, Note_on_c, 6, 60, 101
8, 140164, Note_on_c, 6, 72, 101
8, 142084, Note_on_c, 6, 72, 0
8, 142084, Note_on_c, 6, 60, 0
8, 142084, Control_c, 6, 11, 87
8, 142084, Note_on_c, 6, 55, 101
8, 142084, Note_on_c, 6, 67, 101
8, 142180, Control_c, 6, 11, 88
8, 142276, Control_c, 6, 11, 89
8, 142372, Control_c, 6, 11, 90
8, 142468, Control_c, 6, 11, 91
8, 142564, Control_c, 6, 11, 92
8, 142660, Control_c, 6, 11, 93
8, 142756, Control_c, 6, 11, 94
8, 142852, Control_c, 6, 11, 95
8, 142948, Control_c, 6, 11, 96
8, 143044, Control_c, 6, 11, 97
8, 143140, Control_c, 6, 11, 98
8, 143236, Control_c, 6, 11, 99
8, 143332, Control_c, 6, 11, 100
8, 143428, Control_c, 6, 11, 101
8, 143524, Control_c, 6, 11, 102
8, 143620, Control_c, 6, 11, 103
8, 143716, Control_c, 6, 11, 104
8, 143812, Control_c, 6, 11, 105
8, 143908, Control_c, 6, 11, 106
8, 144004, Note_on_c, 6, 67, 0
8, 144004, Note_on_c, 6, 55, 0
8, 144004, Control_c, 6, 11, 107
8, 144004, Note_on_c, 6, 60, 101
8, 144004, Note_on_c, 6, 72, 101
8, 144328, Note_on_c, 6, 72, 0
8, 144328, Note_on_c, 6, 60, 0
8, 144364, Note_on_c, 6, 60, 101
8, 144364, Note_on_c, 6, 72, 101
8, 144472, Note_on_c, 6, 72, 0
8, 144472, Note_on_c, 6, 60, 0
8, 144484, Note_on_c, 6, 60, 101
8, 144484, Note_on_c, 6, 72, 101
8, 144808, Note_on_c, 6, 72, 0
8, 144808, Note_on_c, 6, 60, 0
8, 144844, Note_on_c, 6, 60, 101
8, 144844, Note_on_c, 6, 72, 101
8, 144952, Note_on_c, 6, 72, 0
8, 144952, Note_on_c, 6, 60, 0
8, 144964, Note_on_c, 6, 60, 101
8, 144964, Note_on_c, 6, 72, 101
8, 145288, Note_on_c, 6, 72, 0
8, 145288, Note_on_c, 6, 60, 0
8, 145324, Note_on_c, 6, 60, 101
8, 145324, Note_on_c, 6, 72, 101
8, 145432, Note_on_c, 6, 72, 0
8, 145432, Note_on_c, 6, 60, 0
8, 145444, Note_on_c, 6, 60, 101
8, 145444, Note_on_c, 6, 72, 101
8, 145768, Note_on_c, 6, 72, 0
8, 145768, Note_on_c, 6, 60, 0
8, 145804, Note_on_c, 6, 60, 101
8, 145804, Note_on_c, 6, 72, 101
8, 145912, Note_on_c, 6, 72, 0
8, 145912, Note_on_c, 6, 60, 0
8, 145924, Note_on_c, 6, 72, 116
8, 145924, Note_on_c, 6, 60, 116
8, 145984, Note_on_c, 6, 60, 0
8, 145984, Note_on_c, 6, 72, 0
8, 146044, Note_on_c, 6, 72, 116
8, 146044, Note_on_c, 6, 60, 116
8, 146104, Note_on_c, 6, 60, 0
8, 146104, Note_on_c, 6, 72, 0
8, 146164, Note_on_c, 6, 72, 116
8, 146164, Note_on_c, 6, 60, 116
8, 146224, Note_on_c, 6, 60, 0
8, 146224, Note_on_c, 6, 72, 0
8, 146284, Note_on_c, 6, 60, 116
8, 146284, Note_on_c, 6, 72, 116
8, 146344, Note_on_c, 6, 72, 0
8, 146344, Note_on_c, 6, 60, 0
8, 146404, Note_on_c, 6, 72, 116
8, 146404, Note_on_c, 6, 60, 116
8, 146464, Note_on_c, 6, 60, 0
8, 146464, Note_on_c, 6, 72, 0
8, 146524, Note_on_c, 6, 72, 116
8, 146524, Note_on_c, 6, 60, 116
8, 146584, Note_on_c, 6, 60, 0
8, 146584, Note_on_c, 6, 72, 0
8, 146644, Note_on_c, 6, 60, 116
8, 146644, Note_on_c, 6, 72, 116
8, 146704, Note_on_c, 6, 72, 0
8, 146704, Note_on_c, 6, 60, 0
8, 146764, Note_on_c, 6, 72, 116
8, 146764, Note_on_c, 6, 60, 116
8, 146824, Note_on_c, 6, 60, 0
8, 146824, Note_on_c, 6, 72, 0
8, 146884, Note_on_c, 6, 72, 116
8, 146884, Note_on_c, 6, 60, 116
8, 146944, Note_on_c, 6, 60, 0
8, 146944, Note_on_c, 6, 72, 0
8, 147004, Note_on_c, 6, 60, 116
8, 147004, Note_on_c, 6, 72, 116
8, 147064, Note_on_c, 6, 72, 0
8, 147064, Note_on_c, 6, 60, 0
8, 147124, Note_on_c, 6, 72, 116
8, 147124, Note_on_c, 6, 60, 116
8, 147184, Note_on_c, 6, 60, 0
8, 147184, Note_on_c, 6, 72, 0
8, 147244, Note_on_c, 6, 72, 116
8, 147244, Note_on_c, 6, 60, 116
8, 147304, Note_on_c, 6, 60, 0
8, 147304, Note_on_c, 6, 72, 0
8, 147364, Note_on_c, 6, 60, 116
8, 147364, Note_on_c, 6, 72, 116
8, 147424, Note_on_c, 6, 72, 0
8, 147424, Note_on_c, 6, 60, 0
8, 147484, Note_on_c, 6, 72, 116
8, 147484, Note_on_c, 6, 60, 116
8, 147544, Note_on_c, 6, 60, 0
8, 147544, Note_on_c, 6, 72, 0
8, 147604, Note_on_c, 6, 72, 116
8, 147604, Note_on_c, 6, 60, 116
8, 147664, Note_on_c, 6, 60, 0
8, 147664, Note_on_c, 6, 72, 0
8, 147724, Note_on_c, 6, 72, 116
8, 147724, Note_on_c, 6, 60, 116
8, 147784, Note_on_c, 6, 60, 0
8, 147784, Note_on_c, 6, 72, 0
8, 147844, Control_c, 6, 11, 122
8, 147844, Note_on_c, 6, 60, 116
8, 147844, Note_on_c, 6, 72, 116
8, 147867, Control_c, 6, 11, 120
8, 147891, Control_c, 6, 11, 118
8, 147915, Control_c, 6, 11, 116
8, 147939, Control_c, 6, 11, 114
8, 147963, Control_c, 6, 11, 112
8, 147987, Control_c, 6, 11, 110
8, 148011, Control_c, 6, 11, 108
8, 148035, Control_c, 6, 11, 106
8, 148059, Control_c, 6, 11, 104
8, 148083, Control_c, 6, 11, 102
8, 148794, Note_on_c, 6, 72, 0
8, 148794, Note_on_c, 6, 60, 0
8, 148804, Control_c, 6, 11, 122
8, 148804, Note_on_c, 6, 60, 116
8, 148804, Note_on_c, 6, 72, 116
8, 148827, Control_c, 6, 11, 120
8, 148851, Control_c, 6, 11, 118
8, 148875, Control_c, 6, 11, 116
8, 148899, Control_c, 6, 11, 114
8, 148923, Control_c, 6, 11, 112
8, 148947, Control_c, 6, 11, 110
8, 148971, Control_c, 6, 11, 108
8, 148995, Control_c, 6, 11, 106
8, 149019, Control_c, 6, 11, 104
8, 149043, Control_c, 6, 11, 102
8, 149754, Note_on_c, 6, 72, 0
8, 149754, Note_on_c, 6, 60, 0
8, 149764, Control_c, 6, 11, 122
8, 149764, Note_on_c, 6, 60, 116
8, 149764, Note_on_c, 6, 72, 116
8, 149787, Control_c, 6, 11, 120
8, 149811, Control_c, 6, 11, 118
8, 149835, Control_c, 6, 11, 116
8, 149859, Control_c, 6, 11, 114
8, 149883, Control_c, 6, 11, 112
8, 149907, Control_c, 6, 11, 110
8, 149931, Control_c, 6, 11, 108
8, 149955, Control_c, 6, 11, 106
8, 149979, Control_c, 6, 11, 104
8, 150003, Control_c, 6, 11, 102
8, 150714, Note_on_c, 6, 72, 0
8, 150714, Note_on_c, 6, 60, 0
8, 150724, Note_on_c, 6, 60, 116
8, 150724, Note_on_c, 6, 72, 116
8, 151084, Note_on_c, 6, 72, 0
8, 151084, Note_on_c, 6, 60, 0
8, 151204, Note_on_c, 6, 55, 116
8, 151204, Note_on_c, 6, 67, 116
8, 151564, Note_on_c, 6, 67, 0
8, 151564, Note_on_c, 6, 55, 0
8, 151684, Note_on_c, 6, 72, 116
8, 151684, Note_on_c, 6, 60, 116
8, 152044, Note_on_c, 6, 60, 0
8, 152044, Note_on_c, 6, 72, 0
8, 152164, Note_on_c, 6, 72, 116
8, 152164, Note_on_c, 6, 60, 116
8, 152524, Note_on_c, 6, 60, 0
8, 152524, Note_on_c, 6, 72, 0
8, 152644, Note_on_c, 6, 67, 116
8, 152644, Note_on_c, 6, 55, 116
8, 153004, Note_on_c, 6, 55, 0
8, 153004, Note_on_c, 6, 67, 0
8, 153124, Note_on_c, 6, 60, 116
8, 153124, Note_on_c, 6, 72, 116
8, 153484, Note_on_c, 6, 72, 0
8, 153484, Note_on_c, 6, 60, 0
8, 153604, Note_on_c, 6, 72, 116
8, 153604, Note_on_c, 6, 60, 116
8, 153964, Note_on_c, 6, 60, 0
8, 153964, Note_on_c, 6, 72, 0
8, 154084, Note_on_c, 6, 67, 116
8, 154084, Note_on_c, 6, 55, 116
8, 154444, Note_on_c, 6, 55, 0
8, 154444, Note_on_c, 6, 67, 0
8, 154564, Note_on_c, 6, 60, 116
8, 154564, Note_on_c, 6, 72, 116
8, 154924, Note_on_c, 6, 72, 0
8, 154924, Note_on_c, 6, 60, 0
8, 155044, Note_on_c, 6, 72, 116
8, 155044, Note_on_c, 6, 60, 116
8, 155404, Note_on_c, 6, 60, 0
8, 155404, Note_on_c, 6, 72, 0
8, 155524, Note_on_c, 6, 74, 116
8, 155524, Note_on_c, 6, 72, 116
8, 156474, Note_on_c, 6, 72, 0
8, 156474, Note_on_c, 6, 74, 0
8, 156484, Control_c, 6, 91, 122
8, 156484, Note_on_c, 6, 79, 116
8, 156484, Note_on_c, 6, 67, 116
8, 157434, Note_on_c, 6, 67, 0
8, 157434, Note_on_c, 6, 79, 0
8, 157444, Note_on_c, 6, 64, 101
8, 157444, Note_on_c, 6, 72, 101
8, 157564, Note_on_c, 6, 72, 0
8, 157564, Note_on_c, 6, 64, 0
8, 158764, Note_on_c, 6, 74, 116
8, 158764, Note_on_c, 6, 67, 116
8, 158884, Note_on_c, 6, 67, 0
8, 158884, Note_on_c, 6, 74, 0
8, 158884, Note_on_c, 6, 67, 116
8, 158884, Note_on_c, 6, 74, 116
8, 159244, Note_on_c, 6, 74, 0
8, 159244, Note_on_c, 6, 67, 0
8, 159244, Note_on_c, 6, 74, 116
8, 159244, Note_on_c, 6, 67, 116
8, 159364, Note_on_c, 6, 67, 0
8, 159364, Note_on_c, 6, 74, 0
8, 159364, Note_on_c, 6, 76, 116
8, 159364, Note_on_c, 6, 72, 116
8, 159484, Note_on_c, 6, 72, 0
8, 159484, Note_on_c, 6, 76, 0
8, 160444, Note_on_c, 6, 74, 116
8, 160444, Note_on_c, 6, 67, 116
8, 160564, Note_on_c, 6, 67, 0
8, 160564, Note_on_c, 6, 74, 0
8, 160564, Note_on_c, 6, 74, 116
8, 160564, Note_on_c, 6, 67, 116
8, 160684, Note_on_c, 6, 67, 0
8, 160684, Note_on_c, 6, 74, 0
8, 160684, Note_on_c, 6, 74, 116
8, 160684, Note_on_c, 6, 67, 116
8, 160804, Note_on_c, 6, 67, 0
8, 160804, Note_on_c, 6, 74, 0
8, 160804, Note_on_c, 6, 74, 116
8, 160804, Note_on_c, 6, 67, 116
8, 160924, Note_on_c, 6, 67, 0
8, 160924, Note_on_c, 6, 74, 0
8, 160924, Note_on_c, 6, 74, 116
8, 160924, Note_on_c, 6, 67, 116
8, 161044, Note_on_c, 6, 67, 0
8, 161044, Note_on_c, 6, 74, 0
8, 161044, Note_on_c, 6, 74, 116
8, 161044, Note_on_c, 6, 67, 116
8, 161164, Note_on_c, 6, 67, 0
8, 161164, Note_on_c, 6, 74, 0
8, 161164, Note_on_c, 6, 74, 116
8, 161164, Note_on_c, 6, 67, 116
8, 161284, Note_on_c, 6, 67, 0
8, 161284, Note_on_c, 6, 74, 0
8, 161284, Note_on_c, 6, 76, 116
8, 161284, Note_on_c, 6, 72, 116
8, 161404, Note_on_c, 6, 72, 0
8, 161404, Note_on_c, 6, 76, 0
8, 162364, Note_on_c, 6, 74, 116
8, 162364, Note_on_c, 6, 67, 116
8, 162599, Note_on_c, 6, 67, 0
8, 162599, Note_on_c, 6, 74, 0
8, 162604, Note_on_c, 6, 74, 116
8, 162604, Note_on_c, 6, 67, 116
8, 162839, Note_on_c, 6, 67, 0
8, 162839, Note_on_c, 6, 74, 0
8, 162844, Note_on_c, 6, 74, 116
8, 162844, Note_on_c, 6, 67, 116
8, 163079, Note_on_c, 6, 67, 0
8, 163079, Note_on_c, 6, 74, 0
8, 163084, Note_on_c, 6, 67, 116
8, 163084, Note_on_c, 6, 74, 116
8, 163204, Note_on_c, 6, 74, 0
8, 163204, Note_on_c, 6, 67, 0
8, 163204, Note_on_c, 6, 76, 116
8, 163204, Note_on_c, 6, 72, 116
8, 163324, Note_on_c, 6, 72, 0
8, 163324, Note_on_c, 6, 76, 0
8, 164164, Control_c, 6, 11, 72
8, 164164, Note_on_c, 6, 67, 116
8, 164164, Note_on_c, 6, 74, 116
8, 164167, Control_c, 6, 11, 75
8, 164170, Control_c, 6, 11, 78
8, 164173, Control_c, 6, 11, 81
8, 164176, Control_c, 6, 11, 84
8, 164179, Control_c, 6, 11, 87
8, 164182, Control_c, 6, 11, 90
8, 164185, Control_c, 6, 11, 93
8, 164188, Control_c, 6, 11, 96
8, 164191, Control_c, 6, 11, 99
8, 164194, Control_c, 6, 11, 102
8, 164509, Control_c, 6, 11, 102
8, 164512, Control_c, 6, 11, 99
8, 164515, Control_c, 6, 11, 96
8, 164518, Control_c, 6, 11, 93
8, 164522, Control_c, 6, 11, 90
8, 164525, Control_c, 6, 11, 87
8, 164528, Control_c, 6, 11, 84
8, 164532, Control_c, 6, 11, 81
8, 164535, Control_c, 6, 11, 78
8, 164538, Control_c, 6, 11, 75
8, 164542, Note_on_c, 6, 74, 0
8, 164542, Note_on_c, 6, 67, 0
8, 164542, Control_c, 6, 11, 72
8, 164884, Control_c, 6, 11, 87
8, 164884, Note_on_c, 6, 74, 116
8, 164884, Note_on_c, 6, 67, 116
8, 165004, Note_on_c, 6, 67, 0
8, 165004, Note_on_c, 6, 74, 0
8, 165364, Note_on_c, 6, 74, 116
8, 165364, Note_on_c, 6, 67, 116
8, 165484, Note_on_c, 6, 67, 0
8, 165484, Note_on_c, 6, 74, 0
8, 165724, Note_on_c, 6, 74, 116
8, 165724, Note_on_c, 6, 67, 116
8, 165844, Note_on_c, 6, 67, 0
8, 165844, Note_on_c, 6, 74, 0
8, 165964, Note_on_c, 6, 74, 116
8, 165964, Note_on_c, 6, 67, 116
8, 166084, Note_on_c, 6, 67, 0
8, 166084, Note_on_c, 6, 74, 0
8, 166204, Note_on_c, 6, 67, 116
8, 166204, Note_on_c, 6, 74, 116
8, 166324, Note_on_c, 6, 74, 0
8, 166324, Note_on_c, 6, 67, 0
8, 166444, Note_on_c, 6, 64, 116
8, 166444, Note_on_c, 6, 72, 116
8, 166564, Note_on_c, 6, 72, 0
8, 166564, Note_on_c, 6, 64, 0
8, 166684, Note_on_c, 6, 72, 116
8, 166684, Note_on_c, 6, 64, 116
8, 166804, Note_on_c, 6, 64, 0
8, 166804, Note_on_c, 6, 72, 0
8, 166924, Note_on_c, 6, 72, 116
8, 166924, Note_on_c, 6, 64, 116
8, 167044, Note_on_c, 6, 64, 0
8, 167044, Note_on_c, 6, 72, 0
8, 167044, Note_on_c, 6, 72, 116
8, 167044, Note_on_c, 6, 60, 116
8, 167164, Note_on_c, 6, 60, 0
8, 167164, Note_on_c, 6, 72, 0
8, 170403, Program_c, 6, 61
8, 170404, Control_c, 6, 11, 112
8, 170404, Note_on_c, 6, 72, 116
8, 170404, Note_on_c, 6, 64, 116
8, 170524, Note_on_c, 6, 64, 0
8, 170524, Note_on_c, 6, 72, 0
8, 171364, Note_on_c, 6, 72, 116
8, 171364, Note_on_c, 6, 64, 116
8, 171484, Note_on_c, 6, 64, 0
8, 171484, Note_on_c, 6, 72, 0
8, 171844, Note_on_c, 6, 72, 116
8, 171844, Note_on_c, 6, 64, 116
8, 171964, Note_on_c, 6, 64, 0
8, 171964, Note_on_c, 6, 72, 0
8, 172324, Control_c, 6, 11, 112
8, 172324, Note_on_c, 6, 60, 116
8, 172444, Note_on_c, 6, 60, 0
8, 172804, Control_c, 6, 121, 0
8, 172804, End_track
9, 0, Start_track
9, 0, MIDI_port, 0
9, 0, Title_t, "Timpani"
9, 0, Program_c, 15, 47
9, 0, Control_c, 15, 10, 97
9, 15, Control_c, 15, 121, 0
9, 20, Program_c, 15, 47
9, 25, Pitch_bend_c, 15, 8192
9, 30, Control_c, 15, 11, 127
9, 35, Control_c, 15, 7, 127
9, 40, Control_c, 15, 91, 100
9, 45, Control_c, 15, 93, 90
9, 23415, Note_on_c, 15, 43, 93
9, 23535, Note_on_c, 15, 43, 0
9, 23535, Note_on_c, 15, 48, 65
9, 23655, Note_on_c, 15, 48, 0
9, 23775, Note_on_c, 15, 43, 65
9, 23895, Note_on_c, 15, 43, 0
9, 24015, Note_on_c, 15, 48, 65
9, 24135, Note_on_c, 15, 48, 0
9, 24255, Note_on_c, 15, 43, 65
9, 24375, Note_on_c, 15, 43, 0
9, 24495, Note_on_c, 15, 48, 65
9, 24615, Note_on_c, 15, 48, 0
9, 24735, Note_on_c, 15, 43, 65
9, 24855, Note_on_c, 15, 43, 0
9, 24975, Note_on_c, 15, 48, 65
9, 25095, Note_on_c, 15, 48, 0
9, 25215, Note_on_c, 15, 48, 65
9, 25335, Note_on_c, 15, 48, 0
9, 25455, Note_on_c, 15, 43, 65
9, 25575, Note_on_c, 15, 43, 0
9, 25695, Note_on_c, 15, 48, 65
9, 25815, Note_on_c, 15, 48, 0
9, 25935, Note_on_c, 15, 43, 65
9, 26055, Note_on_c, 15, 43, 0
9, 26055, Note_on_c, 15, 43, 65
9, 26175, Note_on_c, 15, 43, 0
9, 26175, Note_on_c, 15, 43, 65
9, 26295, Note_on_c, 15, 43, 0
9, 26295, Note_on_c, 15, 43, 65
9, 26415, Note_on_c, 15, 43, 0
9, 26415, Note_on_c, 15, 43, 65
9, 26535, Note_on_c, 15, 43, 0
9, 26535, Note_on_c, 15, 43, 65
9, 26655, Note_on_c, 15, 43, 0
9, 26655, Note_on_c, 15, 43, 65
9, 26775, Note_on_c, 15, 43, 0
9, 26775, Note_on_c, 15, 43, 65
9, 26895, Note_on_c, 15, 43, 0
9, 26895, Note_on_c, 15, 43, 65
9, 27015, Note_on_c, 15, 43, 0
9, 27015, Note_on_c, 15, 43, 65
9, 27135, Note_on_c, 15, 43, 0
9, 27135, Note_on_c, 15, 43, 65
9, 27255, Note_on_c, 15, 43, 0
9, 27255, Note_on_c, 15, 43, 65
9, 27375, Note_on_c, 15, 43, 0
9, 27375, Note_on_c, 15, 43, 65
9, 27495, Note_on_c, 15, 43, 0
9, 27495, Note_on_c, 15, 43, 65
9, 27615, Note_on_c, 15, 43, 0
9, 27615, Note_on_c, 15, 48, 65
9, 27735, Note_on_c, 15, 48, 0
9, 27735, Note_on_c, 15, 48, 65
9, 27855, Note_on_c, 15, 48, 0
9, 27975, Note_on_c, 15, 48, 65
9, 28095, Note_on_c, 15, 48, 0
9, 28215, Note_on_c, 15, 48, 65
9, 28335, Note_on_c, 15, 48, 0
9, 28455, Note_on_c, 15, 48, 44
9, 28575, Note_on_c, 15, 48, 0
9, 29415, Note_on_c, 15, 48, 44
9, 29535, Note_on_c, 15, 48, 0
9, 30375, Note_on_c, 15, 48, 44
9, 30495, Note_on_c, 15, 48, 0
9, 38775, Note_on_c, 15, 48, 63
9, 38895, Note_on_c, 15, 48, 0
9, 39015, Note_on_c, 15, 48, 63
9, 39135, Note_on_c, 15, 48, 0
9, 39255, Note_on_c, 15, 48, 63
9, 39375, Note_on_c, 15, 48, 0
9, 39375, Note_on_c, 15, 48, 63
9, 39495, Note_on_c, 15, 48, 0
9, 39495, Note_on_c, 15, 48, 63
9, 39615, Note_on_c, 15, 48, 0
9, 39615, Note_on_c, 15, 48, 63
9, 39675, Note_on_c, 15, 48, 0
9, 39675, Note_on_c, 15, 48, 63
9, 39735, Note_on_c, 15, 48, 0
9, 39735, Note_on_c, 15, 48, 63
9, 39795, Note_on_c, 15, 48, 0
9, 39795, Note_on_c, 15, 48, 63
9, 39855, Note_on_c, 15, 48, 0
9, 39855, Note_on_c, 15, 48, 63
9, 39915, Note_on_c, 15, 48, 0
9, 39915, Note_on_c, 15, 48, 63
9, 39975, Note_on_c, 15, 48, 0
9, 39975, Note_on_c, 15, 48, 63
9, 40035, Note_on_c, 15, 48, 0
9, 40035, Note_on_c, 15, 48, 63
9, 40095, Note_on_c, 15, 48, 0
9, 40095, Note_on_c, 15, 48, 63
9, 40215, Note_on_c, 15, 48, 0
9, 40215, Note_on_c, 15, 48, 63
9, 40335, Note_on_c, 15, 48, 0
9, 40335, Note_on_c, 15, 48, 63
9, 40455, Note_on_c, 15, 48, 0
9, 40455, Note_on_c, 15, 48, 63
9, 40575, Note_on_c, 15, 48, 0
9, 40575, Note_on_c, 15, 48, 63
9, 40635, Note_on_c, 15, 48, 0
9, 40635, Note_on_c, 15, 48, 63
9, 40695, Note_on_c, 15, 48, 0
9, 40695, Note_on_c, 15, 48, 63
9, 40755, Note_on_c, 15, 48, 0
9, 40755, Note_on_c, 15, 48, 63
9, 40815, Note_on_c, 15, 48, 0
9, 40815, Note_on_c, 15, 48, 63
9, 40875, Note_on_c, 15, 48, 0
9, 40875, Note_on_c, 15, 48, 63
9, 40935, Note_on_c, 15, 48, 0
9, 40935, Note_on_c, 15, 48, 63
9, 40995, Note_on_c, 15, 48, 0
9, 40995, Note_on_c, 15, 48, 63
9, 41055, Note_on_c, 15, 48, 0
9, 41055, Note_on_c, 15, 48, 63
9, 41175, Note_on_c, 15, 48, 0
9, 41175, Note_on_c, 15, 48, 63
9, 41295, Note_on_c, 15, 48, 0
9, 41295, Note_on_c, 15, 48, 63
9, 41415, Note_on_c, 15, 48, 0
9, 41655, Note_on_c, 15, 48, 78
9, 41775, Note_on_c, 15, 48, 0
9, 41775, Note_on_c, 15, 48, 78
9, 41895, Note_on_c, 15, 48, 0
9, 42135, Note_on_c, 15, 48, 78
9, 42255, Note_on_c, 15, 48, 0
9, 42255, Note_on_c, 15, 48, 78
9, 42375, Note_on_c, 15, 48, 0
9, 42615, Note_on_c, 15, 48, 78
9, 42735, Note_on_c, 15, 48, 0
9, 42735, Note_on_c, 15, 43, 78
9, 42855, Note_on_c, 15, 43, 0
9, 43095, Note_on_c, 15, 43, 78
9, 43215, Note_on_c, 15, 43, 0
9, 43215, Note_on_c, 15, 48, 78
9, 43335, Note_on_c, 15, 48, 0
9, 43575, Note_on_c, 15, 48, 78
9, 43695, Note_on_c, 15, 48, 0
9, 43695, Note_on_c, 15, 48, 78
9, 43815, Note_on_c, 15, 48, 0
9, 44055, Note_on_c, 15, 48, 78
9, 44175, Note_on_c, 15, 48, 0
9, 44175, Note_on_c, 15, 48, 78
9, 44295, Note_on_c, 15, 48, 0
9, 44535, Note_on_c, 15, 48, 78
9, 44655, Note_on_c, 15, 48, 0
9, 44655, Note_on_c, 15, 48, 78
9, 44775, Note_on_c, 15, 48, 0
9, 45015, Note_on_c, 15, 48, 78
9, 45135, Note_on_c, 15, 48, 0
9, 45135, Note_on_c, 15, 48, 78
9, 45255, Note_on_c, 15, 48, 0
9, 45495, Note_on_c, 15, 48, 78
9, 45615, Note_on_c, 15, 48, 0
9, 45615, Note_on_c, 15, 48, 78
9, 45735, Note_on_c, 15, 48, 0
9, 45975, Note_on_c, 15, 48, 78
9, 46095, Note_on_c, 15, 48, 0
9, 46095, Note_on_c, 15, 48, 78
9, 46215, Note_on_c, 15, 48, 0
9, 63375, Note_on_c, 15, 48, 65
9, 63435, Note_on_c, 15, 48, 0
9, 63435, Note_on_c, 15, 48, 65
9, 63495, Note_on_c, 15, 48, 0
9, 63495, Note_on_c, 15, 48, 65
9, 63555, Note_on_c, 15, 48, 0
9, 63555, Note_on_c, 15, 48, 65
9, 63615, Note_on_c, 15, 48, 0
9, 63615, Note_on_c, 15, 48, 65
9, 63675, Note_on_c, 15, 48, 0
9, 63675, Note_on_c, 15, 48, 65
9, 63735, Note_on_c, 15, 48, 0
9, 63735, Note_on_c, 15, 48, 65
9, 63795, Note_on_c, 15, 48, 0
9, 63795, Note_on_c, 15, 48, 65
9, 63855, Note_on_c, 15, 48, 0
9, 63855, Note_on_c, 15, 48, 65
9, 63975, Note_on_c, 15, 48, 0
9, 64335, Note_on_c, 15, 43, 65
9, 64395, Note_on_c, 15, 43, 0
9, 64395, Note_on_c, 15, 43, 65
9, 64455, Note_on_c, 15, 43, 0
9, 64455, Note_on_c, 15, 43, 65
9, 64515, Note_on_c, 15, 43, 0
9, 64515, Note_on_c, 15, 43, 65
9, 64575, Note_on_c, 15, 43, 0
9, 64575, Note_on_c, 15, 43, 65
9, 64635, Note_on_c, 15, 43, 0
9, 64635, Note_on_c, 15, 43, 65
9, 64695, Note_on_c, 15, 43, 0
9, 64695, Note_on_c, 15, 43, 65
9, 64755, Note_on_c, 15, 43, 0
9, 64755, Note_on_c, 15, 43, 65
9, 64815, Note_on_c, 15, 43, 0
9, 64815, Note_on_c, 15, 43, 65
9, 64935, Note_on_c, 15, 43, 0
9, 65295, Note_on_c, 15, 48, 67
9, 65415, Note_on_c, 15, 48, 0
9, 65655, Note_on_c, 15, 48, 67
9, 65775, Note_on_c, 15, 48, 0
9, 65775, Note_on_c, 15, 43, 67
9, 65895, Note_on_c, 15, 43, 0
9, 66135, Note_on_c, 15, 43, 67
9, 66255, Note_on_c, 15, 43, 0
9, 66255, Note_on_c, 15, 48, 67
9, 66375, Note_on_c, 15, 48, 0
9, 66615, Note_on_c, 15, 48, 67
9, 66735, Note_on_c, 15, 48, 0
9, 66735, Note_on_c, 15, 43, 67
9, 66855, Note_on_c, 15, 43, 0
9, 67095, Note_on_c, 15, 43, 67
9, 67215, Note_on_c, 15, 43, 0
9, 67215, Note_on_c, 15, 48, 67
9, 67335, Note_on_c, 15, 48, 0
9, 67575, Note_on_c, 15, 48, 67
9, 67695, Note_on_c, 15, 48, 0
9, 67695, Note_on_c, 15, 48, 67
9, 67815, Note_on_c, 15, 48, 0
9, 68055, Note_on_c, 15, 48, 67
9, 68175, Note_on_c, 15, 48, 0
9, 68175, Note_on_c, 15, 43, 77
9, 68215, Note_on_c, 15, 43, 0
9, 68215, Note_on_c, 15, 43, 63
9, 68255, Note_on_c, 15, 43, 0
9, 68255, Note_on_c, 15, 43, 63
9, 68295, Note_on_c, 15, 43, 0
9, 68295, Note_on_c, 15, 43, 63
9, 68335, Note_on_c, 15, 43, 0
9, 68335, Note_on_c, 15, 43, 63
9, 68375, Note_on_c, 15, 43, 0
9, 68375, Note_on_c, 15, 43, 63
9, 68415, Note_on_c, 15, 43, 0
9, 68415, Note_on_c, 15, 43, 63
9, 68455, Note_on_c, 15, 43, 0
9, 68455, Note_on_c, 15, 43, 63
9, 68495, Note_on_c, 15, 43, 0
9, 68495, Note_on_c, 15, 43, 63
9, 68535, Note_on_c, 15, 43, 0
9, 68535, Note_on_c, 15, 43, 63
9, 68575, Note_on_c, 15, 43, 0
9, 68575, Note_on_c, 15, 43, 63
9, 68615, Note_on_c, 15, 43, 0
9, 68615, Note_on_c, 15, 43, 63
9, 68655, Note_on_c, 15, 43, 0
9, 68655, Note_on_c, 15, 43, 63
9, 68695, Note_on_c, 15, 43, 0
9, 68695, Note_on_c, 15, 43, 63
9, 68735, Note_on_c, 15, 43, 0
9, 68735, Note_on_c, 15, 43, 63
9, 68775, Note_on_c, 15, 43, 0
9, 68775, Note_on_c, 15, 43, 63
9, 68815, Note_on_c, 15, 43, 0
9, 68815, Note_on_c, 15, 43, 63
9, 68855, Note_on_c, 15, 43, 0
9, 68855, Note_on_c, 15, 43, 63
9, 68895, Note_on_c, 15, 43, 0
9, 68895, Note_on_c, 15, 43, 63
9, 68935, Note_on_c, 15, 43, 0
9, 68935, Note_on_c, 15, 43, 63
9, 68975, Note_on_c, 15, 43, 0
9, 68975, Note_on_c, 15, 43, 63
9, 69015, Note_on_c, 15, 43, 0
9, 69015, Note_on_c, 15, 43, 63
9, 69055, Note_on_c, 15, 43, 0
9, 69055, Note_on_c, 15, 43, 63
9, 69095, Note_on_c, 15, 43, 0
9, 69095, Note_on_c, 15, 43, 63
9, 69135, Note_on_c, 15, 43, 0
9, 69135, Note_on_c, 15, 43, 77
9, 69175, Note_on_c, 15, 43, 0
9, 69175, Note_on_c, 15, 43, 63
9, 69215, Note_on_c, 15, 43, 0
9, 69215, Note_on_c, 15, 43, 63
9, 69255, Note_on_c, 15, 43, 0
9, 69255, Note_on_c, 15, 43, 63
9, 69295, Note_on_c, 15, 43, 0
9, 69295, Note_on_c, 15, 43, 63
9, 69335, Note_on_c, 15, 43, 0
9, 69335, Note_on_c, 15, 43, 63
9, 69375, Note_on_c, 15, 43, 0
9, 69375, Note_on_c, 15, 43, 63
9, 69415, Note_on_c, 15, 43, 0
9, 69415, Note_on_c, 15, 43, 63
9, 69455, Note_on_c, 15, 43, 0
9, 69455, Note_on_c, 15, 43, 63
9, 69495, Note_on_c, 15, 43, 0
9, 69495, Note_on_c, 15, 43, 63
9, 69535, Note_on_c, 15, 43, 0
9, 69535, Note_on_c, 15, 43, 63
9, 69575, Note_on_c, 15, 43, 0
9, 69575, Note_on_c, 15, 43, 63
9, 69615, Note_on_c, 15, 43, 0
9, 69615, Note_on_c, 15, 43, 63
9, 69655, Note_on_c, 15, 43, 0
9, 69655, Note_on_c, 15, 43, 63
9, 69695, Note_on_c, 15, 43, 0
9, 69695, Note_on_c, 15, 43, 63
9, 69735, Note_on_c, 15, 43, 0
9, 69735, Note_on_c, 15, 43, 63
9, 69775, Note_on_c, 15, 43, 0
9, 69775, Note_on_c, 15, 43, 63
9, 69815, Note_on_c, 15, 43, 0
9, 69815, Note_on_c, 15, 43, 63
9, 69855, Note_on_c, 15, 43, 0
9, 69855, Note_on_c, 15, 43, 63
9, 69895, Note_on_c, 15, 43, 0
9, 69895, Note_on_c, 15, 43, 63
9, 69935, Note_on_c, 15, 43, 0
9, 69935, Note_on_c, 15, 43, 63
9, 69975, Note_on_c, 15, 43, 0
9, 69975, Note_on_c, 15, 43, 63
9, 70015, Note_on_c, 15, 43, 0
9, 70015, Note_on_c, 15, 43, 63
9, 70055, Note_on_c, 15, 43, 0
9, 70055, Note_on_c, 15, 43, 63
9, 70095, Note_on_c, 15, 43, 0
9, 70095, Note_on_c, 15, 43, 77
9, 70135, Note_on_c, 15, 43, 0
9, 70135, Note_on_c, 15, 43, 63
9, 70175, Note_on_c, 15, 43, 0
9, 70175, Note_on_c, 15, 43, 63
9, 70215, Note_on_c, 15, 43, 0
9, 70215, Note_on_c, 15, 43, 63
9, 70255, Note_on_c, 15, 43, 0
9, 70255, Note_on_c, 15, 43, 63
9, 70295, Note_on_c, 15, 43, 0
9, 70295, Note_on_c, 15, 43, 63
9, 70335, Note_on_c, 15, 43, 0
9, 70335, Note_on_c, 15, 43, 63
9, 70375, Note_on_c, 15, 43, 0
9, 70375, Note_on_c, 15, 43, 63
9, 70415, Note_on_c, 15, 43, 0
9, 70415, Note_on_c, 15, 43, 63
9, 70455, Note_on_c, 15, 43, 0
9, 70815, Note_on_c, 15, 43, 80
9, 70935, Note_on_c, 15, 43, 0
9, 71055, Note_on_c, 15, 43, 76
9, 71095, Note_on_c, 15, 43, 0
9, 71095, Note_on_c, 15, 43, 76
9, 71135, Note_on_c, 15, 43, 0
9, 71135, Note_on_c, 15, 43, 76
9, 71175, Note_on_c, 15, 43, 0
9, 71175, Note_on_c, 15, 43, 76
9, 71215, Note_on_c, 15, 43, 0
9, 71215, Note_on_c, 15, 43, 76
9, 71255, Note_on_c, 15, 43, 0
9, 71255, Note_on_c, 15, 43, 76
9, 71295, Note_on_c, 15, 43, 0
9, 71295, Note_on_c, 15, 43, 76
9, 71335, Note_on_c, 15, 43, 0
9, 71335, Note_on_c, 15, 43, 76
9, 71375, Note_on_c, 15, 43, 0
9, 71375, Note_on_c, 15, 43, 76
9, 71415, Note_on_c, 15, 43, 0
9, 72015, Note_on_c, 15, 48, 76
9, 72135, Note_on_c, 15, 48, 0
9, 72255, Note_on_c, 15, 48, 76
9, 72375, Note_on_c, 15, 48, 0
9, 72495, Note_on_c, 15, 48, 76
9, 72615, Note_on_c, 15, 48, 0
9, 72735, Note_on_c, 15, 48, 76
9, 72855, Note_on_c, 15, 48, 0
9, 72975, Note_on_c, 15, 48, 76
9, 73095, Note_on_c, 15, 48, 0
9, 73095, Note_on_c, 15, 48, 76
9, 73215, Note_on_c, 15, 48, 0
9, 73215, Note_on_c, 15, 48, 76
9, 73335, Note_on_c, 15, 48, 0
9, 74895, Note_on_c, 15, 48, 76
9, 75015, Note_on_c, 15, 48, 0
9, 75135, Note_on_c, 15, 48, 76
9, 75255, Note_on_c, 15, 48, 0
9, 75375, Note_on_c, 15, 48, 76
9, 75495, Note_on_c, 15, 48, 0
9, 75615, Note_on_c, 15, 48, 76
9, 75735, Note_on_c, 15, 48, 0
9, 75855, Note_on_c, 15, 48, 76
9, 75975, Note_on_c, 15, 48, 0
9, 75975, Note_on_c, 15, 48, 76
9, 76095, Note_on_c, 15, 48, 0
9, 76095, Note_on_c, 15, 48, 76
9, 76215, Note_on_c, 15, 48, 0
9, 79575, Note_on_c, 15, 43, 65
9, 79695, Note_on_c, 15, 43, 0
9, 79695, Note_on_c, 15, 43, 65
9, 79815, Note_on_c, 15, 43, 0
9, 79815, Note_on_c, 15, 43, 65
9, 79935, Note_on_c, 15, 43, 0
9, 79935, Note_on_c, 15, 43, 65
9, 80055, Note_on_c, 15, 43, 0
9, 80055, Note_on_c, 15, 43, 65
9, 80175, Note_on_c, 15, 43, 0
9, 80175, Note_on_c, 15, 43, 65
9, 80295, Note_on_c, 15, 43, 0
9, 80295, Note_on_c, 15, 43, 65
9, 80415, Note_on_c, 15, 43, 0
9, 80415, Note_on_c, 15, 43, 65
9, 80535, Note_on_c, 15, 43, 0
9, 80535, Note_on_c, 15, 43, 65
9, 80655, Note_on_c, 15, 43, 0
9, 80655, Note_on_c, 15, 43, 65
9, 80775, Note_on_c, 15, 43, 0
9, 80775, Note_on_c, 15, 43, 65
9, 80895, Note_on_c, 15, 43, 0
9, 80895, Note_on_c, 15, 43, 65
9, 81015, Note_on_c, 15, 43, 0
9, 81015, Note_on_c, 15, 43, 65
9, 81135, Note_on_c, 15, 43, 0
9, 81615, Note_on_c, 15, 43, 65
9, 81735, Note_on_c, 15, 43, 0
9, 97335, Note_on_c, 15, 43, 63
9, 97455, Note_on_c, 15, 43, 0
9, 97455, Note_on_c, 15, 43, 64
9, 97575, Note_on_c, 15, 43, 0
9, 97575, Note_on_c, 15, 43, 65
9, 97695, Note_on_c, 15, 43, 0
9, 97695, Note_on_c, 15, 43, 66
9, 97815, Note_on_c, 15, 43, 0
9, 97815, Note_on_c, 15, 43, 67
9, 97935, Note_on_c, 15, 43, 0
9, 97935, Note_on_c, 15, 43, 68
9, 98055, Note_on_c, 15, 43, 0
9, 98055, Note_on_c, 15, 43, 69
9, 98175, Note_on_c, 15, 43, 0
9, 98175, Note_on_c, 15, 43, 70
9, 98295, Note_on_c, 15, 43, 0
9, 98295, Note_on_c, 15, 43, 71
9, 98415, Note_on_c, 15, 43, 0
9, 98415, Note_on_c, 15, 43, 72
9, 98535, Note_on_c, 15, 43, 0
9, 98535, Note_on_c, 15, 43, 73
9, 98655, Note_on_c, 15, 43, 0
9, 98655, Note_on_c, 15, 43, 74
9, 98775, Note_on_c, 15, 43, 0
9, 98775, Note_on_c, 15, 43, 75
9, 98895, Note_on_c, 15, 43, 0
9, 98895, Note_on_c, 15, 43, 76
9, 99015, Note_on_c, 15, 43, 0
9, 99015, Note_on_c, 15, 43, 77
9, 99135, Note_on_c, 15, 43, 0
9, 99135, Note_on_c, 15, 43, 78
9, 99255, Note_on_c, 15, 43, 0
9, 99255, Note_on_c, 15, 48, 70
9, 99375, Note_on_c, 15, 48, 0
9, 99495, Note_on_c, 15, 48, 68
9, 99615, Note_on_c, 15, 48, 0
9, 99735, Note_on_c, 15, 48, 68
9, 99855, Note_on_c, 15, 48, 0
9, 99855, Note_on_c, 15, 48, 68
9, 99975, Note_on_c, 15, 48, 0
9, 99975, Note_on_c, 15, 48, 68
9, 100095, Note_on_c, 15, 48, 0
9, 100095, Note_on_c, 15, 48, 68
9, 100155, Note_on_c, 15, 48, 0
9, 100155, Note_on_c, 15, 48, 68
9, 100215, Note_on_c, 15, 48, 0
9, 100215, Note_on_c, 15, 48, 68
9, 100275, Note_on_c, 15, 48, 0
9, 100275, Note_on_c, 15, 48, 68
9, 100335, Note_on_c, 15, 48, 0
9, 100335, Note_on_c, 15, 48, 68
9, 100395, Note_on_c, 15, 48, 0
9, 100395, Note_on_c, 15, 48, 68
9, 100455, Note_on_c, 15, 48, 0
9, 100455, Note_on_c, 15, 48, 68
9, 100515, Note_on_c, 15, 48, 0
9, 100515, Note_on_c, 15, 48, 68
9, 100575, Note_on_c, 15, 48, 0
9, 100575, Note_on_c, 15, 48, 68
9, 100695, Note_on_c, 15, 48, 0
9, 100695, Note_on_c, 15, 48, 68
9, 100815, Note_on_c, 15, 48, 0
9, 100815, Note_on_c, 15, 48, 68
9, 100935, Note_on_c, 15, 48, 0
9, 100935, Note_on_c, 15, 48, 68
9, 101055, Note_on_c, 15, 48, 0
9, 101055, Note_on_c, 15, 48, 68
9, 101115, Note_on_c, 15, 48, 0
9, 101115, Note_on_c, 15, 48, 68
9, 101175, Note_on_c, 15, 48, 0
9, 101175, Note_on_c, 15, 48, 68
9, 101235, Note_on_c, 15, 48, 0
9, 101235, Note_on_c, 15, 48, 68
9, 101295, Note_on_c, 15, 48, 0
9, 101295, Note_on_c, 15, 48, 68
9, 101355, Note_on_c, 15, 48, 0
9, 101355, Note_on_c, 15, 48, 68
9, 101415, Note_on_c, 15, 48, 0
9, 101415, Note_on_c, 15, 48, 68
9, 101475, Note_on_c, 15, 48, 0
9, 101475, Note_on_c, 15, 48, 68
9, 101535, Note_on_c, 15, 48, 0
9, 101535, Note_on_c, 15, 48, 68
9, 101655, Note_on_c, 15, 48, 0
9, 101655, Note_on_c, 15, 48, 68
9, 101775, Note_on_c, 15, 48, 0
9, 101775, Note_on_c, 15, 48, 68
9, 101895, Note_on_c, 15, 48, 0
9, 102135, Note_on_c, 15, 48, 78
9, 102255, Note_on_c, 15, 48, 0
9, 102255, Note_on_c, 15, 48, 78
9, 102375, Note_on_c, 15, 48, 0
9, 102615, Note_on_c, 15, 48, 78
9, 102735, Note_on_c, 15, 48, 0
9, 102735, Note_on_c, 15, 48, 78
9, 102855, Note_on_c, 15, 48, 0
9, 103095, Note_on_c, 15, 48, 78
9, 103215, Note_on_c, 15, 48, 0
9, 103215, Note_on_c, 15, 43, 78
9, 103335, Note_on_c, 15, 43, 0
9, 103575, Note_on_c, 15, 43, 78
9, 103695, Note_on_c, 15, 43, 0
9, 103695, Note_on_c, 15, 48, 78
9, 103815, Note_on_c, 15, 48, 0
9, 104055, Note_on_c, 15, 48, 78
9, 104175, Note_on_c, 15, 48, 0
9, 104175, Note_on_c, 15, 48, 78
9, 104295, Note_on_c, 15, 48, 0
9, 104535, Note_on_c, 15, 48, 78
9, 104655, Note_on_c, 15, 48, 0
9, 104655, Note_on_c, 15, 48, 78
9, 104775, Note_on_c, 15, 48, 0
9, 105015, Note_on_c, 15, 48, 78
9, 105135, Note_on_c, 15, 48, 0
9, 105135, Note_on_c, 15, 48, 78
9, 105255, Note_on_c, 15, 48, 0
9, 105495, Note_on_c, 15, 48, 78
9, 105615, Note_on_c, 15, 48, 0
9, 105615, Note_on_c, 15, 48, 78
9, 105735, Note_on_c, 15, 48, 0
9, 105975, Note_on_c, 15, 48, 78
9, 106095, Note_on_c, 15, 48, 0
9, 106095, Note_on_c, 15, 48, 78
9, 106215, Note_on_c, 15, 48, 0
9, 106455, Note_on_c, 15, 48, 78
9, 106575, Note_on_c, 15, 48, 0
9, 106575, Note_on_c, 15, 41, 65
9, 106695, Note_on_c, 15, 41, 0
9, 140175, Note_on_c, 15, 48, 87
9, 140215, Note_on_c, 15, 48, 0
9, 140215, Note_on_c, 15, 48, 76
9, 140255, Note_on_c, 15, 48, 0
9, 140255, Note_on_c, 15, 48, 66
9, 140295, Note_on_c, 15, 48, 0
9, 140295, Note_on_c, 15, 48, 56
9, 140335, Note_on_c, 15, 48, 0
9, 140335, Note_on_c, 15, 48, 56
9, 140375, Note_on_c, 15, 48, 0
9, 140375, Note_on_c, 15, 48, 56
9, 140415, Note_on_c, 15, 48, 0
9, 140415, Note_on_c, 15, 48, 56
9, 140455, Note_on_c, 15, 48, 0
9, 140455, Note_on_c, 15, 48, 56
9, 140495, Note_on_c, 15, 48, 0
9, 140495, Note_on_c, 15, 48, 56
9, 140535, Note_on_c, 15, 48, 0
9, 140535, Note_on_c, 15, 48, 56
9, 140575, Note_on_c, 15, 48, 0
9, 140575, Note_on_c, 15, 48, 56
9, 140615, Note_on_c, 15, 48, 0
9, 140615, Note_on_c, 15, 48, 56
9, 140655, Note_on_c, 15, 48, 0
9, 140655, Note_on_c, 15, 48, 70
9, 140695, Note_on_c, 15, 48, 0
9, 140695, Note_on_c, 15, 48, 65
9, 140735, Note_on_c, 15, 48, 0
9, 140735, Note_on_c, 15, 48, 61
9, 140775, Note_on_c, 15, 48, 0
9, 140775, Note_on_c, 15, 48, 56
9, 140815, Note_on_c, 15, 48, 0
9, 140815, Note_on_c, 15, 48, 56
9, 140855, Note_on_c, 15, 48, 0
9, 140855, Note_on_c, 15, 48, 56
9, 140895, Note_on_c, 15, 48, 0
9, 140895, Note_on_c, 15, 48, 56
9, 140935, Note_on_c, 15, 48, 0
9, 140935, Note_on_c, 15, 48, 56
9, 140975, Note_on_c, 15, 48, 0
9, 140975, Note_on_c, 15, 48, 56
9, 141015, Note_on_c, 15, 48, 0
9, 141015, Note_on_c, 15, 48, 56
9, 141055, Note_on_c, 15, 48, 0
9, 141055, Note_on_c, 15, 48, 56
9, 141095, Note_on_c, 15, 48, 0
9, 141095, Note_on_c, 15, 48, 56
9, 141135, Note_on_c, 15, 48, 0
9, 141135, Note_on_c, 15, 48, 87
9, 141175, Note_on_c, 15, 48, 0
9, 141175, Note_on_c, 15, 48, 76
9, 141215, Note_on_c, 15, 48, 0
9, 141215, Note_on_c, 15, 48, 66
9, 141255, Note_on_c, 15, 48, 0
9, 141255, Note_on_c, 15, 48, 56
9, 141295, Note_on_c, 15, 48, 0
9, 141295, Note_on_c, 15, 48, 56
9, 141335, Note_on_c, 15, 48, 0
9, 141335, Note_on_c, 15, 48, 56
9, 141375, Note_on_c, 15, 48, 0
9, 141375, Note_on_c, 15, 48, 56
9, 141415, Note_on_c, 15, 48, 0
9, 141415, Note_on_c, 15, 48, 56
9, 141455, Note_on_c, 15, 48, 0
9, 141455, Note_on_c, 15, 48, 56
9, 141495, Note_on_c, 15, 48, 0
9, 141495, Note_on_c, 15, 48, 56
9, 141535, Note_on_c, 15, 48, 0
9, 141535, Note_on_c, 15, 48, 56
9, 141575, Note_on_c, 15, 48, 0
9, 141575, Note_on_c, 15, 48, 56
9, 141615, Note_on_c, 15, 48, 0
9, 141615, Note_on_c, 15, 48, 70
9, 141655, Note_on_c, 15, 48, 0
9, 141655, Note_on_c, 15, 48, 65
9, 141695, Note_on_c, 15, 48, 0
9, 141695, Note_on_c, 15, 48, 61
9, 141735, Note_on_c, 15, 48, 0
9, 141735, Note_on_c, 15, 48, 56
9, 141775, Note_on_c, 15, 48, 0
9, 141775, Note_on_c, 15, 48, 56
9, 141815, Note_on_c, 15, 48, 0
9, 141815, Note_on_c, 15, 48, 56
9, 141855, Note_on_c, 15, 48, 0
9, 141855, Note_on_c, 15, 48, 56
9, 141895, Note_on_c, 15, 48, 0
9, 141895, Note_on_c, 15, 48, 56
9, 141935, Note_on_c, 15, 48, 0
9, 141935, Note_on_c, 15, 48, 56
9, 141975, Note_on_c, 15, 48, 0
9, 141975, Note_on_c, 15, 48, 56
9, 142015, Note_on_c, 15, 48, 0
9, 142015, Note_on_c, 15, 48, 56
9, 142055, Note_on_c, 15, 48, 0
9, 142055, Note_on_c, 15, 48, 56
9, 142095, Note_on_c, 15, 48, 0
9, 142095, Note_on_c, 15, 43, 70
9, 142135, Note_on_c, 15, 43, 0
9, 142135, Note_on_c, 15, 43, 62
9, 142175, Note_on_c, 15, 43, 0
9, 142175, Note_on_c, 15, 43, 54
9, 142215, Note_on_c, 15, 43, 0
9, 142215, Note_on_c, 15, 43, 45
9, 142255, Note_on_c, 15, 43, 0
9, 142255, Note_on_c, 15, 43, 45
9, 142295, Note_on_c, 15, 43, 0
9, 142295, Note_on_c, 15, 43, 45
9, 142335, Note_on_c, 15, 43, 0
9, 142335, Note_on_c, 15, 43, 45
9, 142375, Note_on_c, 15, 43, 0
9, 142375, Note_on_c, 15, 43, 45
9, 142415, Note_on_c, 15, 43, 0
9, 142415, Note_on_c, 15, 43, 45
9, 142455, Note_on_c, 15, 43, 0
9, 142455, Note_on_c, 15, 43, 46
9, 142495, Note_on_c, 15, 43, 0
9, 142495, Note_on_c, 15, 43, 46
9, 142535, Note_on_c, 15, 43, 0
9, 142535, Note_on_c, 15, 43, 46
9, 142575, Note_on_c, 15, 43, 0
9, 142575, Note_on_c, 15, 43, 70
9, 142615, Note_on_c, 15, 43, 0
9, 142615, Note_on_c, 15, 43, 65
9, 142655, Note_on_c, 15, 43, 0
9, 142655, Note_on_c, 15, 43, 61
9, 142695, Note_on_c, 15, 43, 0
9, 142695, Note_on_c, 15, 43, 56
9, 142735, Note_on_c, 15, 43, 0
9, 142735, Note_on_c, 15, 43, 48
9, 142775, Note_on_c, 15, 43, 0
9, 142775, Note_on_c, 15, 43, 49
9, 142815, Note_on_c, 15, 43, 0
9, 142815, Note_on_c, 15, 43, 49
9, 142855, Note_on_c, 15, 43, 0
9, 142855, Note_on_c, 15, 43, 49
9, 142895, Note_on_c, 15, 43, 0
9, 142895, Note_on_c, 15, 43, 50
9, 142935, Note_on_c, 15, 43, 0
9, 142935, Note_on_c, 15, 43, 50
9, 142975, Note_on_c, 15, 43, 0
9, 142975, Note_on_c, 15, 43, 50
9, 143015, Note_on_c, 15, 43, 0
9, 143015, Note_on_c, 15, 43, 51
9, 143055, Note_on_c, 15, 43, 0
9, 143055, Note_on_c, 15, 43, 79
9, 143095, Note_on_c, 15, 43, 0
9, 143095, Note_on_c, 15, 43, 70
9, 143135, Note_on_c, 15, 43, 0
9, 143135, Note_on_c, 15, 43, 61
9, 143175, Note_on_c, 15, 43, 0
9, 143175, Note_on_c, 15, 43, 51
9, 143215, Note_on_c, 15, 43, 0
9, 143215, Note_on_c, 15, 43, 52
9, 143255, Note_on_c, 15, 43, 0
9, 143255, Note_on_c, 15, 43, 52
9, 143295, Note_on_c, 15, 43, 0
9, 143295, Note_on_c, 15, 43, 52
9, 143335, Note_on_c, 15, 43, 0
9, 143335, Note_on_c, 15, 43, 53
9, 143375, Note_on_c, 15, 43, 0
9, 143375, Note_on_c, 15, 43, 53
9, 143415, Note_on_c, 15, 43, 0
9, 143415, Note_on_c, 15, 43, 53
9, 143455, Note_on_c, 15, 43, 0
9, 143455, Note_on_c, 15, 43, 54
9, 143495, Note_on_c, 15, 43, 0
9, 143495, Note_on_c, 15, 43, 54
9, 143535, Note_on_c, 15, 43, 0
9, 143535, Note_on_c, 15, 43, 70
9, 143575, Note_on_c, 15, 43, 0
9, 143575, Note_on_c, 15, 43, 65
9, 143615, Note_on_c, 15, 43, 0
9, 143615, Note_on_c, 15, 43, 61
9, 143655, Note_on_c, 15, 43, 0
9, 143655, Note_on_c, 15, 43, 56
9, 143695, Note_on_c, 15, 43, 0
9, 143695, Note_on_c, 15, 43, 55
9, 143735, Note_on_c, 15, 43, 0
9, 143735, Note_on_c, 15, 43, 55
9, 143775, Note_on_c, 15, 43, 0
9, 143775, Note_on_c, 15, 43, 56
9, 143815, Note_on_c, 15, 43, 0
9, 143815, Note_on_c, 15, 43, 56
9, 143855, Note_on_c, 15, 43, 0
9, 143855, Note_on_c, 15, 43, 56
9, 143895, Note_on_c, 15, 43, 0
9, 143895, Note_on_c, 15, 43, 56
9, 143935, Note_on_c, 15, 43, 0
9, 143935, Note_on_c, 15, 43, 56
9, 143975, Note_on_c, 15, 43, 0
9, 143975, Note_on_c, 15, 43, 57
9, 144015, Note_on_c, 15, 43, 0
9, 144015, Note_on_c, 15, 48, 57
9, 144075, Note_on_c, 15, 48, 0
9, 144075, Note_on_c, 15, 48, 57
9, 144135, Note_on_c, 15, 48, 0
9, 144135, Note_on_c, 15, 48, 57
9, 144195, Note_on_c, 15, 48, 0
9, 144195, Note_on_c, 15, 48, 57
9, 144255, Note_on_c, 15, 48, 0
9, 144255, Note_on_c, 15, 48, 57
9, 144315, Note_on_c, 15, 48, 0
9, 144315, Note_on_c, 15, 48, 57
9, 144375, Note_on_c, 15, 48, 0
9, 144375, Note_on_c, 15, 48, 57
9, 144495, Note_on_c, 15, 48, 0
9, 144495, Note_on_c, 15, 48, 57
9, 144555, Note_on_c, 15, 48, 0
9, 144555, Note_on_c, 15, 48, 57
9, 144615, Note_on_c, 15, 48, 0
9, 144615, Note_on_c, 15, 48, 57
9, 144675, Note_on_c, 15, 48, 0
9, 144675, Note_on_c, 15, 48, 57
9, 144735, Note_on_c, 15, 48, 0
9, 144735, Note_on_c, 15, 48, 57
9, 144795, Note_on_c, 15, 48, 0
9, 144795, Note_on_c, 15, 48, 57
9, 144855, Note_on_c, 15, 48, 0
9, 144855, Note_on_c, 15, 48, 57
9, 144975, Note_on_c, 15, 48, 0
9, 144975, Note_on_c, 15, 48, 57
9, 145035, Note_on_c, 15, 48, 0
9, 145035, Note_on_c, 15, 48, 57
9, 145095, Note_on_c, 15, 48, 0
9, 145095, Note_on_c, 15, 48, 57
9, 145155, Note_on_c, 15, 48, 0
9, 145155, Note_on_c, 15, 48, 57
9, 145215, Note_on_c, 15, 48, 0
9, 145215, Note_on_c, 15, 48, 57
9, 145275, Note_on_c, 15, 48, 0
9, 145275, Note_on_c, 15, 48, 57
9, 145335, Note_on_c, 15, 48, 0
9, 145335, Note_on_c, 15, 48, 57
9, 145455, Note_on_c, 15, 48, 0
9, 145455, Note_on_c, 15, 48, 57
9, 145515, Note_on_c, 15, 48, 0
9, 145515, Note_on_c, 15, 48, 57
9, 145575, Note_on_c, 15, 48, 0
9, 145575, Note_on_c, 15, 48, 57
9, 145635, Note_on_c, 15, 48, 0
9, 145635, Note_on_c, 15, 48, 57
9, 145695, Note_on_c, 15, 48, 0
9, 145695, Note_on_c, 15, 48, 57
9, 145755, Note_on_c, 15, 48, 0
9, 145755, Note_on_c, 15, 48, 57
9, 145815, Note_on_c, 15, 48, 0
9, 145815, Note_on_c, 15, 48, 57
9, 145935, Note_on_c, 15, 48, 0
9, 145935, Note_on_c, 15, 48, 57
9, 146055, Note_on_c, 15, 48, 0
9, 146055, Note_on_c, 15, 48, 57
9, 146175, Note_on_c, 15, 48, 0
9, 146175, Note_on_c, 15, 48, 57
9, 146295, Note_on_c, 15, 48, 0
9, 146295, Note_on_c, 15, 48, 57
9, 146415, Note_on_c, 15, 48, 0
9, 146415, Note_on_c, 15, 48, 57
9, 146535, Note_on_c, 15, 48, 0
9, 146535, Note_on_c, 15, 48, 57
9, 146655, Note_on_c, 15, 48, 0
9, 146655, Note_on_c, 15, 48, 57
9, 146775, Note_on_c, 15, 48, 0
9, 146775, Note_on_c, 15, 48, 57
9, 146895, Note_on_c, 15, 48, 0
9, 146895, Note_on_c, 15, 48, 57
9, 147015, Note_on_c, 15, 48, 0
9, 147015, Note_on_c, 15, 48, 57
9, 147135, Note_on_c, 15, 48, 0
9, 147135, Note_on_c, 15, 48, 57
9, 147255, Note_on_c, 15, 48, 0
9, 147255, Note_on_c, 15, 48, 57
9, 147375, Note_on_c, 15, 48, 0
9, 147375, Note_on_c, 15, 48, 57
9, 147495, Note_on_c, 15, 48, 0
9, 147495, Note_on_c, 15, 48, 57
9, 147615, Note_on_c, 15, 48, 0
9, 147615, Note_on_c, 15, 48, 57
9, 147735, Note_on_c, 15, 48, 0
9, 147735, Note_on_c, 15, 48, 57
9, 147855, Note_on_c, 15, 48, 0
9, 147855, Note_on_c, 15, 48, 83
9, 147895, Note_on_c, 15, 48, 0
9, 147895, Note_on_c, 15, 48, 77
9, 147935, Note_on_c, 15, 48, 0
9, 147935, Note_on_c, 15, 48, 70
9, 147975, Note_on_c, 15, 48, 0
9, 147975, Note_on_c, 15, 48, 63
9, 148015, Note_on_c, 15, 48, 0
9, 148015, Note_on_c, 15, 48, 63
9, 148055, Note_on_c, 15, 48, 0
9, 148055, Note_on_c, 15, 48, 63
9, 148095, Note_on_c, 15, 48, 0
9, 148095, Note_on_c, 15, 48, 63
9, 148135, Note_on_c, 15, 48, 0
9, 148135, Note_on_c, 15, 48, 63
9, 148175, Note_on_c, 15, 48, 0
9, 148175, Note_on_c, 15, 48, 63
9, 148215, Note_on_c, 15, 48, 0
9, 148215, Note_on_c, 15, 48, 63
9, 148255, Note_on_c, 15, 48, 0
9, 148255, Note_on_c, 15, 48, 63
9, 148295, Note_on_c, 15, 48, 0
9, 148295, Note_on_c, 15, 48, 63
9, 148335, Note_on_c, 15, 48, 0
9, 148335, Note_on_c, 15, 48, 63
9, 148375, Note_on_c, 15, 48, 0
9, 148375, Note_on_c, 15, 48, 63
9, 148415, Note_on_c, 15, 48, 0
9, 148415, Note_on_c, 15, 48, 63
9, 148455, Note_on_c, 15, 48, 0
9, 148455, Note_on_c, 15, 48, 63
9, 148495, Note_on_c, 15, 48, 0
9, 148495, Note_on_c, 15, 48, 63
9, 148535, Note_on_c, 15, 48, 0
9, 148535, Note_on_c, 15, 48, 63
9, 148575, Note_on_c, 15, 48, 0
9, 148575, Note_on_c, 15, 48, 63
9, 148615, Note_on_c, 15, 48, 0
9, 148615, Note_on_c, 15, 48, 63
9, 148655, Note_on_c, 15, 48, 0
9, 148655, Note_on_c, 15, 48, 63
9, 148695, Note_on_c, 15, 48, 0
9, 148695, Note_on_c, 15, 48, 63
9, 148735, Note_on_c, 15, 48, 0
9, 148735, Note_on_c, 15, 48, 63
9, 148775, Note_on_c, 15, 48, 0
9, 148775, Note_on_c, 15, 48, 63
9, 148815, Note_on_c, 15, 48, 0
9, 148815, Note_on_c, 15, 48, 83
9, 148855, Note_on_c, 15, 48, 0
9, 148855, Note_on_c, 15, 48, 77
9, 148895, Note_on_c, 15, 48, 0
9, 148895, Note_on_c, 15, 48, 70
9, 148935, Note_on_c, 15, 48, 0
9, 148935, Note_on_c, 15, 48, 63
9, 148975, Note_on_c, 15, 48, 0
9, 148975, Note_on_c, 15, 48, 63
9, 149015, Note_on_c, 15, 48, 0
9, 149015, Note_on_c, 15, 48, 63
9, 149055, Note_on_c, 15, 48, 0
9, 149055, Note_on_c, 15, 48, 63
9, 149095, Note_on_c, 15, 48, 0
9, 149095, Note_on_c, 15, 48, 63
9, 149135, Note_on_c, 15, 48, 0
9, 149135, Note_on_c, 15, 48, 63
9, 149175, Note_on_c, 15, 48, 0
9, 149175, Note_on_c, 15, 48, 63
9, 149215, Note_on_c, 15, 48, 0
9, 149215, Note_on_c, 15, 48, 63
9, 149255, Note_on_c, 15, 48, 0
9, 149255, Note_on_c, 15, 48, 63
9, 149295, Note_on_c, 15, 48, 0
9, 149295, Note_on_c, 15, 48, 63
9, 149335, Note_on_c, 15, 48, 0
9, 149335, Note_on_c, 15, 48, 63
9, 149375, Note_on_c, 15, 48, 0
9, 149375, Note_on_c, 15, 48, 63
9, 149415, Note_on_c, 15, 48, 0
9, 149415, Note_on_c, 15, 48, 63
9, 149455, Note_on_c, 15, 48, 0
9, 149455, Note_on_c, 15, 48, 63
9, 149495, Note_on_c, 15, 48, 0
9, 149495, Note_on_c, 15, 48, 63
9, 149535, Note_on_c, 15, 48, 0
9, 149535, Note_on_c, 15, 48, 63
9, 149575, Note_on_c, 15, 48, 0
9, 149575, Note_on_c, 15, 48, 63
9, 149615, Note_on_c, 15, 48, 0
9, 149615, Note_on_c, 15, 48, 63
9, 149655, Note_on_c, 15, 48, 0
9, 149655, Note_on_c, 15, 48, 63
9, 149695, Note_on_c, 15, 48, 0
9, 149695, Note_on_c, 15, 48, 63
9, 149735, Note_on_c, 15, 48, 0
9, 149735, Note_on_c, 15, 48, 63
9, 149775, Note_on_c, 15, 48, 0
9, 149775, Note_on_c, 15, 48, 83
9, 149815, Note_on_c, 15, 48, 0
9, 149815, Note_on_c, 15, 48, 77
9, 149855, Note_on_c, 15, 48, 0
9, 149855, Note_on_c, 15, 48, 70
9, 149895, Note_on_c, 15, 48, 0
9, 149895, Note_on_c, 15, 48, 63
9, 149935, Note_on_c, 15, 48, 0
9, 149935, Note_on_c, 15, 48, 63
9, 149975, Note_on_c, 15, 48, 0
9, 149975, Note_on_c, 15, 48, 63
9, 150015, Note_on_c, 15, 48, 0
9, 150015, Note_on_c, 15, 48, 63
9, 150055, Note_on_c, 15, 48, 0
9, 150055, Note_on_c, 15, 48, 63
9, 150095, Note_on_c, 15, 48, 0
9, 150095, Note_on_c, 15, 48, 63
9, 150135, Note_on_c, 15, 48, 0
9, 150135, Note_on_c, 15, 48, 63
9, 150175, Note_on_c, 15, 48, 0
9, 150175, Note_on_c, 15, 48, 63
9, 150215, Note_on_c, 15, 48, 0
9, 150215, Note_on_c, 15, 48, 63
9, 150255, Note_on_c, 15, 48, 0
9, 150255, Note_on_c, 15, 48, 63
9, 150295, Note_on_c, 15, 48, 0
9, 150295, Note_on_c, 15, 48, 63
9, 150335, Note_on_c, 15, 48, 0
9, 150335, Note_on_c, 15, 48, 63
9, 150375, Note_on_c, 15, 48, 0
9, 150375, Note_on_c, 15, 48, 63
9, 150415, Note_on_c, 15, 48, 0
9, 150415, Note_on_c, 15, 48, 63
9, 150455, Note_on_c, 15, 48, 0
9, 150455, Note_on_c, 15, 48, 63
9, 150495, Note_on_c, 15, 48, 0
9, 150495, Note_on_c, 15, 48, 63
9, 150535, Note_on_c, 15, 48, 0
9, 150535, Note_on_c, 15, 48, 63
9, 150575, Note_on_c, 15, 48, 0
9, 150575, Note_on_c, 15, 48, 63
9, 150615, Note_on_c, 15, 48, 0
9, 150615, Note_on_c, 15, 48, 63
9, 150655, Note_on_c, 15, 48, 0
9, 150655, Note_on_c, 15, 48, 63
9, 150695, Note_on_c, 15, 48, 0
9, 150695, Note_on_c, 15, 48, 63
9, 150735, Note_on_c, 15, 48, 0
9, 150735, Note_on_c, 15, 48, 63
9, 150795, Note_on_c, 15, 48, 0
9, 150795, Note_on_c, 15, 48, 63
9, 150855, Note_on_c, 15, 48, 0
9, 150855, Note_on_c, 15, 48, 63
9, 150915, Note_on_c, 15, 48, 0
9, 150915, Note_on_c, 15, 48, 63
9, 150975, Note_on_c, 15, 48, 0
9, 150975, Note_on_c, 15, 48, 70
9, 151095, Note_on_c, 15, 48, 0
9, 151215, Note_on_c, 15, 43, 70
9, 151275, Note_on_c, 15, 43, 0
9, 151275, Note_on_c, 15, 43, 70
9, 151335, Note_on_c, 15, 43, 0
9, 151335, Note_on_c, 15, 43, 70
9, 151395, Note_on_c, 15, 43, 0
9, 151395, Note_on_c, 15, 43, 70
9, 151455, Note_on_c, 15, 43, 0
9, 151455, Note_on_c, 15, 43, 78
9, 151575, Note_on_c, 15, 43, 0
9, 151695, Note_on_c, 15, 48, 70
9, 151755, Note_on_c, 15, 48, 0
9, 151755, Note_on_c, 15, 48, 70
9, 151815, Note_on_c, 15, 48, 0
9, 151815, Note_on_c, 15, 48, 70
9, 151875, Note_on_c, 15, 48, 0
9, 151875, Note_on_c, 15, 48, 70
9, 151935, Note_on_c, 15, 48, 0
9, 151935, Note_on_c, 15, 48, 78
9, 152055, Note_on_c, 15, 48, 0
9, 152175, Note_on_c, 15, 48, 70
9, 152235, Note_on_c, 15, 48, 0
9, 152235, Note_on_c, 15, 48, 70
9, 152295, Note_on_c, 15, 48, 0
9, 152295, Note_on_c, 15, 48, 70
9, 152355, Note_on_c, 15, 48, 0
9, 152355, Note_on_c, 15, 48, 70
9, 152415, Note_on_c, 15, 48, 0
9, 152415, Note_on_c, 15, 48, 78
9, 152535, Note_on_c, 15, 48, 0
9, 152655, Note_on_c, 15, 43, 70
9, 152715, Note_on_c, 15, 43, 0
9, 152715, Note_on_c, 15, 43, 70
9, 152775, Note_on_c, 15, 43, 0
9, 152775, Note_on_c, 15, 43, 70
9, 152835, Note_on_c, 15, 43, 0
9, 152835, Note_on_c, 15, 43, 70
9, 152895, Note_on_c, 15, 43, 0
9, 152895, Note_on_c, 15, 43, 78
9, 153015, Note_on_c, 15, 43, 0
9, 153135, Note_on_c, 15, 48, 70
9, 153195, Note_on_c, 15, 48, 0
9, 153195, Note_on_c, 15, 48, 70
9, 153255, Note_on_c, 15, 48, 0
9, 153255, Note_on_c, 15, 48, 70
9, 153315, Note_on_c, 15, 48, 0
9, 153315, Note_on_c, 15, 48, 70
9, 153375, Note_on_c, 15, 48, 0
9, 153375, Note_on_c, 15, 48, 78
9, 153495, Note_on_c, 15, 48, 0
9, 153615, Note_on_c, 15, 48, 70
9, 153675, Note_on_c, 15, 48, 0
9, 153675, Note_on_c, 15, 48, 70
9, 153735, Note_on_c, 15, 48, 0
9, 153735, Note_on_c, 15, 48, 70
9, 153795, Note_on_c, 15, 48, 0
9, 153795, Note_on_c, 15, 48, 70
9, 153855, Note_on_c, 15, 48, 0
9, 153855, Note_on_c, 15, 48, 78
9, 153975, Note_on_c, 15, 48, 0
9, 154095, Note_on_c, 15, 43, 70
9, 154155, Note_on_c, 15, 43, 0
9, 154155, Note_on_c, 15, 43, 70
9, 154215, Note_on_c, 15, 43, 0
9, 154215, Note_on_c, 15, 43, 70
9, 154275, Note_on_c, 15, 43, 0
9, 154275, Note_on_c, 15, 43, 70
9, 154335, Note_on_c, 15, 43, 0
9, 154335, Note_on_c, 15, 43, 78
9, 154455, Note_on_c, 15, 43, 0
9, 154575, Note_on_c, 15, 48, 70
9, 154635, Note_on_c, 15, 48, 0
9, 154635, Note_on_c, 15, 48, 70
9, 154695, Note_on_c, 15, 48, 0
9, 154695, Note_on_c, 15, 48, 70
9, 154755, Note_on_c, 15, 48, 0
9, 154755, Note_on_c, 15, 48, 70
9, 154815, Note_on_c, 15, 48, 0
9, 154815, Note_on_c, 15, 48, 78
9, 154935, Note_on_c, 15, 48, 0
9, 155055, Note_on_c, 15, 48, 70
9, 155115, Note_on_c, 15, 48, 0
9, 155115, Note_on_c, 15, 48, 70
9, 155175, Note_on_c, 15, 48, 0
9, 155175, Note_on_c, 15, 48, 70
9, 155235, Note_on_c, 15, 48, 0
9, 155235, Note_on_c, 15, 48, 70
9, 155295, Note_on_c, 15, 48, 0
9, 155295, Note_on_c, 15, 48, 78
9, 155415, Note_on_c, 15, 48, 0
9, 155535, Note_on_c, 15, 43, 93
9, 155575, Note_on_c, 15, 43, 0
9, 155575, Note_on_c, 15, 43, 86
9, 155615, Note_on_c, 15, 43, 0
9, 155615, Note_on_c, 15, 43, 78
9, 155655, Note_on_c, 15, 43, 0
9, 155655, Note_on_c, 15, 43, 70
9, 155695, Note_on_c, 15, 43, 0
9, 155695, Note_on_c, 15, 43, 70
9, 155735, Note_on_c, 15, 43, 0
9, 155735, Note_on_c, 15, 43, 70
9, 155775, Note_on_c, 15, 43, 0
9, 155775, Note_on_c, 15, 43, 70
9, 155815, Note_on_c, 15, 43, 0
9, 155815, Note_on_c, 15, 43, 70
9, 155855, Note_on_c, 15, 43, 0
9, 155855, Note_on_c, 15, 43, 70
9, 155895, Note_on_c, 15, 43, 0
9, 155895, Note_on_c, 15, 43, 70
9, 155935, Note_on_c, 15, 43, 0
9, 155935, Note_on_c, 15, 43, 70
9, 155975, Note_on_c, 15, 43, 0
9, 155975, Note_on_c, 15, 43, 70
9, 156015, Note_on_c, 15, 43, 0
9, 156015, Note_on_c, 15, 43, 70
9, 156055, Note_on_c, 15, 43, 0
9, 156055, Note_on_c, 15, 43, 70
9, 156095, Note_on_c, 15, 43, 0
9, 156095, Note_on_c, 15, 43, 70
9, 156135, Note_on_c, 15, 43, 0
9, 156135, Note_on_c, 15, 43, 70
9, 156175, Note_on_c, 15, 43, 0
9, 156175, Note_on_c, 15, 43, 70
9, 156215, Note_on_c, 15, 43, 0
9, 156215, Note_on_c, 15, 43, 70
9, 156255, Note_on_c, 15, 43, 0
9, 156255, Note_on_c, 15, 43, 70
9, 156295, Note_on_c, 15, 43, 0
9, 156295, Note_on_c, 15, 43, 70
9, 156335, Note_on_c, 15, 43, 0
9, 156335, Note_on_c, 15, 43, 70
9, 156375, Note_on_c, 15, 43, 0
9, 156375, Note_on_c, 15, 43, 70
9, 156415, Note_on_c, 15, 43, 0
9, 156415, Note_on_c, 15, 43, 70
9, 156455, Note_on_c, 15, 43, 0
9, 156455, Note_on_c, 15, 43, 70
9, 156495, Note_on_c, 15, 43, 0
9, 156495, Note_on_c, 15, 43, 105
9, 156535, Note_on_c, 15, 43, 0
9, 156535, Note_on_c, 15, 43, 86
9, 156575, Note_on_c, 15, 43, 0
9, 156575, Note_on_c, 15, 43, 82
9, 156615, Note_on_c, 15, 43, 0
9, 156615, Note_on_c, 15, 43, 78
9, 156655, Note_on_c, 15, 43, 0
9, 156655, Note_on_c, 15, 43, 74
9, 156695, Note_on_c, 15, 43, 0
9, 156695, Note_on_c, 15, 43, 70
9, 156735, Note_on_c, 15, 43, 0
9, 156735, Note_on_c, 15, 43, 70
9, 156775, Note_on_c, 15, 43, 0
9, 156775, Note_on_c, 15, 43, 70
9, 156815, Note_on_c, 15, 43, 0
9, 156815, Note_on_c, 15, 43, 70
9, 156855, Note_on_c, 15, 43, 0
9, 156855, Note_on_c, 15, 43, 70
9, 156895, Note_on_c, 15, 43, 0
9, 156895, Note_on_c, 15, 43, 70
9, 156935, Note_on_c, 15, 43, 0
9, 156935, Note_on_c, 15, 43, 70
9, 156975, Note_on_c, 15, 43, 0
9, 156975, Note_on_c, 15, 43, 70
9, 157015, Note_on_c, 15, 43, 0
9, 157015, Note_on_c, 15, 43, 70
9, 157055, Note_on_c, 15, 43, 0
9, 157055, Note_on_c, 15, 43, 70
9, 157095, Note_on_c, 15, 43, 0
9, 157095, Note_on_c, 15, 43, 70
9, 157135, Note_on_c, 15, 43, 0
9, 157135, Note_on_c, 15, 43, 70
9, 157175, Note_on_c, 15, 43, 0
9, 157175, Note_on_c, 15, 43, 70
9, 157215, Note_on_c, 15, 43, 0
9, 157215, Note_on_c, 15, 43, 70
9, 157255, Note_on_c, 15, 43, 0
9, 157255, Note_on_c, 15, 43, 70
9, 157295, Note_on_c, 15, 43, 0
9, 157295, Note_on_c, 15, 43, 70
9, 157335, Note_on_c, 15, 43, 0
9, 157335, Note_on_c, 15, 43, 70
9, 157375, Note_on_c, 15, 43, 0
9, 157375, Note_on_c, 15, 43, 70
9, 157415, Note_on_c, 15, 43, 0
9, 157415, Note_on_c, 15, 43, 70
9, 157455, Note_on_c, 15, 43, 0
9, 157455, Note_on_c, 15, 48, 78
9, 157575, Note_on_c, 15, 48, 0
9, 158775, Note_on_c, 15, 43, 78
9, 158895, Note_on_c, 15, 43, 0
9, 158895, Note_on_c, 15, 43, 78
9, 159015, Note_on_c, 15, 43, 0
9, 159255, Note_on_c, 15, 43, 78
9, 159375, Note_on_c, 15, 43, 0
9, 159375, Note_on_c, 15, 48, 78
9, 159495, Note_on_c, 15, 48, 0
9, 160455, Note_on_c, 15, 43, 78
9, 160575, Note_on_c, 15, 43, 0
9, 160575, Note_on_c, 15, 43, 78
9, 160695, Note_on_c, 15, 43, 0
9, 160695, Note_on_c, 15, 43, 78
9, 160815, Note_on_c, 15, 43, 0
9, 160815, Note_on_c, 15, 43, 78
9, 160935, Note_on_c, 15, 43, 0
9, 160935, Note_on_c, 15, 43, 78
9, 161055, Note_on_c, 15, 43, 0
9, 161055, Note_on_c, 15, 43, 78
9, 161175, Note_on_c, 15, 43, 0
9, 161175, Note_on_c, 15, 43, 78
9, 161295, Note_on_c, 15, 43, 0
9, 161295, Note_on_c, 15, 48, 78
9, 161415, Note_on_c, 15, 48, 0
9, 162375, Note_on_c, 15, 43, 78
9, 162495, Note_on_c, 15, 43, 0
9, 162615, Note_on_c, 15, 43, 78
9, 162735, Note_on_c, 15, 43, 0
9, 162855, Note_on_c, 15, 43, 78
9, 162975, Note_on_c, 15, 43, 0
9, 163095, Note_on_c, 15, 43, 78
9, 163215, Note_on_c, 15, 43, 0
9, 163215, Note_on_c, 15, 50, 78
9, 163335, Note_on_c, 15, 50, 0
9, 164175, Note_on_c, 15, 43, 93
9, 164194, Note_on_c, 15, 43, 0
9, 164196, Note_on_c, 15, 43, 93
9, 164215, Note_on_c, 15, 43, 0
9, 164215, Note_on_c, 15, 43, 86
9, 164234, Note_on_c, 15, 43, 0
9, 164234, Note_on_c, 15, 43, 86
9, 164253, Note_on_c, 15, 43, 0
9, 164255, Note_on_c, 15, 43, 78
9, 164273, Note_on_c, 15, 43, 0
9, 164273, Note_on_c, 15, 43, 78
9, 164291, Note_on_c, 15, 43, 0
9, 164292, Note_on_c, 15, 43, 70
9, 164310, Note_on_c, 15, 43, 0
9, 164311, Note_on_c, 15, 43, 70
9, 164329, Note_on_c, 15, 43, 0
9, 164330, Note_on_c, 15, 43, 60
9, 164348, Note_on_c, 15, 43, 0
9, 164349, Note_on_c, 15, 43, 60
9, 164367, Note_on_c, 15, 43, 0
9, 164369, Note_on_c, 15, 43, 60
9, 164387, Note_on_c, 15, 43, 0
9, 164388, Note_on_c, 15, 43, 60
9, 164406, Note_on_c, 15, 43, 0
9, 164407, Note_on_c, 15, 43, 60
9, 164423, Note_on_c, 15, 43, 0
9, 164424, Note_on_c, 15, 43, 60
9, 164436, Note_on_c, 15, 43, 0
9, 164436, Note_on_c, 15, 43, 60
9, 164446, Note_on_c, 15, 43, 0
9, 164447, Note_on_c, 15, 43, 60
9, 164457, Note_on_c, 15, 43, 0
9, 164459, Note_on_c, 15, 43, 60
9, 164469, Note_on_c, 15, 43, 0
9, 164470, Note_on_c, 15, 43, 60
9, 164480, Note_on_c, 15, 43, 0
9, 164482, Note_on_c, 15, 43, 60
9, 164492, Note_on_c, 15, 43, 0
9, 164493, Note_on_c, 15, 43, 60
9, 164503, Note_on_c, 15, 43, 0
9, 164505, Note_on_c, 15, 43, 60
9, 164515, Note_on_c, 15, 43, 0
9, 164516, Note_on_c, 15, 43, 60
9, 164526, Note_on_c, 15, 43, 0
9, 164531, Note_on_c, 15, 43, 60
9, 164541, Note_on_c, 15, 43, 0
9, 164895, Note_on_c, 15, 43, 60
9, 165015, Note_on_c, 15, 43, 0
9, 165375, Note_on_c, 15, 43, 60
9, 165495, Note_on_c, 15, 43, 0
9, 165735, Note_on_c, 15, 43, 60
9, 165855, Note_on_c, 15, 43, 0
9, 165975, Note_on_c, 15, 43, 60
9, 166095, Note_on_c, 15, 43, 0
9, 166215, Note_on_c, 15, 43, 60
9, 166335, Note_on_c, 15, 43, 0
9, 166455, Note_on_c, 15, 48, 60
9, 166575, Note_on_c, 15, 48, 0
9, 166695, Note_on_c, 15, 48, 60
9, 166815, Note_on_c, 15, 48, 0
9, 166935, Note_on_c, 15, 48, 60
9, 167055, Note_on_c, 15, 48, 0
9, 167055, Note_on_c, 15, 48, 60
9, 167175, Note_on_c, 15, 48, 0
9, 170415, Note_on_c, 15, 48, 89
9, 170535, Note_on_c, 15, 48, 0
9, 171375, Note_on_c, 15, 48, 89
9, 171495, Note_on_c, 15, 48, 0
9, 171855, Note_on_c, 15, 48, 89
9, 171975, Note_on_c, 15, 48, 0
9, 172335, Note_on_c, 15, 48, 89
9, 172455, Note_on_c, 15, 48, 0
9, 172815, Control_c, 15, 121, 0
9, 172815, End_track
10, 0, Start_track
10, 0, MIDI_port, 0
10, 0, Title_t, "Violine I"
10, 0, Program_c, 10, 48
10, 0, Control_c, 10, 10, 12
10, 0, Control_c, 10, 121, 0
10, 5, Program_c, 10, 48
10, 10, Pitch_bend_c, 10, 8492
10, 15, Control_c, 10, 11, 102
10, 20, Control_c, 10, 7, 127
10, 25, Control_c, 10, 91, 48
10, 30, Control_c, 10, 93, 0
10, 35, Control_c, 10, 1, 36
10, 480, Control_c, 10, 11, 62
10, 480, Note_on_c, 10, 55, 120
10, 484, Control_c, 10, 11, 66
10, 488, Control_c, 10, 11, 69
10, 492, Control_c, 10, 11, 73
10, 496, Control_c, 10, 11, 76
10, 500, Control_c, 10, 11, 80
10, 504, Control_c, 10, 11, 83
10, 508, Control_c, 10, 11, 87
10, 512, Control_c, 10, 11, 90
10, 516, Control_c, 10, 11, 94
10, 520, Control_c, 10, 11, 97
10, 535, Control_c, 10, 11, 94
10, 551, Control_c, 10, 11, 91
10, 567, Control_c, 10, 11, 88
10, 583, Control_c, 10, 11, 85
10, 599, Control_c, 10, 11, 82
10, 615, Control_c, 10, 11, 79
10, 631, Control_c, 10, 11, 76
10, 647, Control_c, 10, 11, 73
10, 663, Control_c, 10, 11, 70
10, 679, Control_c, 10, 11, 67
10, 695, Control_c, 10, 11, 64
10, 710, Control_c, 10, 11, 61
10, 726, Control_c, 10, 11, 58
10, 742, Control_c, 10, 11, 55
10, 758, Control_c, 10, 11, 52
10, 774, Control_c, 10, 11, 49
10, 786, Control_c, 10, 11, 46
10, 790, Control_c, 10, 11, 43
10, 794, Control_c, 10, 11, 40
10, 798, Control_c, 10, 11, 37
10, 801, Control_c, 10, 11, 34
10, 805, Control_c, 10, 11, 31
10, 809, Control_c, 10, 11, 28
10, 810, Note_on_c, 10, 55, 0
10, 840, Control_c, 10, 11, 20
10, 840, Control_c, 10, 94, 100
10, 840, Control_c, 10, 92, 100
10, 840, Note_on_c, 10, 67, 100
10, 850, Control_c, 10, 11, 23
10, 861, Control_c, 10, 11, 26
10, 872, Control_c, 10, 11, 29
10, 883, Control_c, 10, 11, 32
10, 894, Control_c, 10, 11, 35
10, 905, Control_c, 10, 11, 38
10, 916, Control_c, 10, 11, 41
10, 936, Control_c, 10, 11, 44
10, 952, Control_c, 10, 11, 46
10, 960, Note_on_c, 10, 67, 0
10, 960, Control_c, 10, 11, 32
10, 960, Note_on_c, 10, 69, 100
10, 963, Control_c, 10, 11, 35
10, 966, Control_c, 10, 11, 38
10, 969, Control_c, 10, 11, 41
10, 974, Control_c, 10, 11, 44
10, 980, Control_c, 10, 11, 47
10, 1080, Note_on_c, 10, 69, 0
10, 1080, Note_on_c, 10, 71, 100
10, 1200, Note_on_c, 10, 71, 0
10, 1200, Note_on_c, 10, 72, 100
10, 1320, Note_on_c, 10, 72, 0
10, 1320, Control_c, 10, 11, 52
10, 1320, Note_on_c, 10, 74, 100
10, 1344, Control_c, 10, 11, 50
10, 1368, Control_c, 10, 11, 48
10, 1380, Note_on_c, 10, 74, 0
10, 1380, Note_on_c, 10, 72, 100
10, 1392, Control_c, 10, 11, 46
10, 1416, Control_c, 10, 11, 44
10, 1435, Note_on_c, 10, 72, 0
10, 1440, Control_c, 10, 11, 42
10, 1440, Note_on_c, 10, 71, 100
10, 1463, Control_c, 10, 11, 44
10, 1487, Control_c, 10, 11, 46
10, 1511, Control_c, 10, 11, 48
10, 1535, Control_c, 10, 11, 50
10, 1559, Control_c, 10, 11, 52
10, 1579, Control_c, 10, 11, 51
10, 1599, Control_c, 10, 11, 50
10, 1619, Control_c, 10, 11, 49
10, 1639, Control_c, 10, 11, 48
10, 1659, Control_c, 10, 11, 47
10, 1679, Control_c, 10, 11, 46
10, 1699, Control_c, 10, 11, 45
10, 1715, Control_c, 10, 11, 42
10, 1732, Control_c, 10, 11, 39
10, 1749, Control_c, 10, 11, 36
10, 1765, Control_c, 10, 11, 33
10, 1780, Note_on_c, 10, 71, 0
10, 1782, Control_c, 10, 11, 30
10, 1799, Control_c, 10, 11, 27
10, 1800, Note_on_c, 10, 72, 90
10, 1808, Control_c, 10, 11, 30
10, 1816, Control_c, 10, 11, 33
10, 1824, Control_c, 10, 11, 36
10, 1833, Control_c, 10, 11, 39
10, 1848, Control_c, 10, 11, 41
10, 1872, Control_c, 10, 11, 43
10, 1896, Control_c, 10, 11, 45
10, 1920, Note_on_c, 10, 72, 0
10, 1920, Control_c, 10, 11, 47
10, 1920, Note_on_c, 10, 74, 94
10, 2040, Note_on_c, 10, 74, 0
10, 2040, Note_on_c, 10, 76, 98
10, 2160, Note_on_c, 10, 76, 0
10, 2160, Note_on_c, 10, 77, 102
10, 2280, Note_on_c, 10, 77, 0
10, 2280, Note_on_c, 10, 79, 106
10, 2400, Note_on_c, 10, 79, 0
10, 2400, Control_c, 10, 11, 37
10, 2400, Note_on_c, 10, 80, 110
10, 2418, Control_c, 10, 11, 39
10, 2437, Control_c, 10, 11, 41
10, 2456, Control_c, 10, 11, 43
10, 2474, Control_c, 10, 11, 45
10, 2493, Control_c, 10, 11, 47
10, 2511, Note_on_c, 10, 80, 0
10, 2512, Control_c, 10, 11, 49
10, 2520, Note_on_c, 10, 81, 100
10, 2530, Control_c, 10, 11, 51
10, 2550, Control_c, 10, 11, 53
10, 2570, Control_c, 10, 11, 55
10, 2590, Control_c, 10, 11, 57
10, 2610, Control_c, 10, 11, 59
10, 2630, Control_c, 10, 11, 61
10, 2760, Note_on_c, 10, 81, 0
10, 2760, Control_c, 10, 11, 62
10, 2760, Note_on_c, 10, 79, 100
10, 2771, Control_c, 10, 11, 59
10, 2783, Control_c, 10, 11, 56
10, 2795, Control_c, 10, 11, 53
10, 2807, Control_c, 10, 11, 50
10, 2819, Control_c, 10, 11, 47
10, 2820, Note_on_c, 10, 79, 0
10, 2820, Note_on_c, 10, 77, 100
10, 2831, Control_c, 10, 11, 44
10, 2843, Control_c, 10, 11, 41
10, 2855, Control_c, 10, 11, 38
10, 2867, Control_c, 10, 11, 35
10, 2870, Note_on_c, 10, 77, 0
10, 2879, Control_c, 10, 11, 32
10, 2880, Control_c, 10, 11, 37
10, 2880, Note_on_c, 10, 76, 100
10, 2886, Control_c, 10, 11, 40
10, 2892, Control_c, 10, 11, 43
10, 2898, Control_c, 10, 11, 46
10, 3000, Note_on_c, 10, 76, 0
10, 3000, Control_c, 10, 11, 47
10, 3000, Note_on_c, 10, 74, 100
10, 3024, Control_c, 10, 11, 46
10, 3048, Control_c, 10, 11, 45
10, 3060, Note_on_c, 10, 74, 0
10, 3060, Note_on_c, 10, 76, 100
10, 3072, Control_c, 10, 11, 44
10, 3096, Control_c, 10, 11, 43
10, 3120, Note_on_c, 10, 76, 0
10, 3120, Control_c, 10, 11, 42
10, 3120, Note_on_c, 10, 79, 100
10, 3144, Control_c, 10, 11, 41
10, 3168, Control_c, 10, 11, 40
10, 3192, Control_c, 10, 11, 39
10, 3216, Control_c, 10, 11, 38
10, 3240, Note_on_c, 10, 79, 0
10, 3240, Control_c, 10, 11, 37
10, 3240, Note_on_c, 10, 77, 100
10, 3264, Control_c, 10, 11, 36
10, 3288, Control_c, 10, 11, 35
10, 3300, Note_on_c, 10, 77, 0
10, 3300, Note_on_c, 10, 76, 100
10, 3312, Control_c, 10, 11, 34
10, 3336, Control_c, 10, 11, 33
10, 3355, Note_on_c, 10, 76, 0
10, 3360, Control_c, 10, 11, 32
10, 3360, Note_on_c, 10, 74, 100
10, 3374, Control_c, 10, 11, 35
10, 3389, Control_c, 10, 11, 38
10, 3403, Control_c, 10, 11, 41
10, 3418, Control_c, 10, 11, 44
10, 3420, Note_on_c, 10, 74, 0
10, 3420, Note_on_c, 10, 72, 100
10, 3432, Control_c, 10, 11, 47
10, 3447, Control_c, 10, 11, 50
10, 3462, Control_c, 10, 11, 53
10, 3476, Control_c, 10, 11, 56
10, 3480, Note_on_c, 10, 72, 0
10, 3480, Note_on_c, 10, 71, 100
10, 3491, Control_c, 10, 11, 59
10, 3505, Control_c, 10, 11, 62
10, 3520, Control_c, 10, 11, 65
10, 3535, Control_c, 10, 11, 68
10, 3540, Note_on_c, 10, 71, 0
10, 3540, Note_on_c, 10, 72, 100
10, 3552, Control_c, 10, 11, 71
10, 3568, Control_c, 10, 11, 73
10, 3584, Control_c, 10, 11, 75
10, 3595, Note_on_c, 10, 72, 0
10, 3600, Control_c, 10, 11, 77
10, 3600, Note_on_c, 10, 76, 100
10, 3616, Control_c, 10, 11, 75
10, 3632, Control_c, 10, 11, 73
10, 3648, Control_c, 10, 11, 71
10, 3660, Note_on_c, 10, 76, 0
10, 3660, Note_on_c, 10, 74, 100
10, 3664, Control_c, 10, 11, 69
10, 3680, Control_c, 10, 11, 67
10, 3696, Control_c, 10, 11, 65
10, 3710, Note_on_c, 10, 74, 0
10, 3712, Control_c, 10, 11, 63
10, 3720, Note_on_c, 10, 72, 100
10, 3728, Control_c, 10, 11, 61
10, 3744, Control_c, 10, 11, 59
10, 3750, Note_on_c, 10, 72, 0
10, 3760, Control_c, 10, 11, 57
10, 3776, Control_c, 10, 11, 55
10, 3780, Note_on_c, 10, 69, 100
10, 3792, Control_c, 10, 11, 53
10, 3808, Control_c, 10, 11, 51
10, 3810, Note_on_c, 10, 69, 0
10, 3824, Control_c, 10, 11, 49
10, 3840, Control_c, 10, 11, 67
10, 3840, Control_c, 10, 92, 1
10, 3840, Control_c, 10, 94, 1
10, 3840, Note_on_c, 10, 67, 100
10, 3840, Note_on_c, 10, 55, 100
10, 3844, Control_c, 10, 11, 70
10, 3849, Control_c, 10, 11, 73
10, 3853, Control_c, 10, 11, 76
10, 3858, Control_c, 10, 11, 79
10, 3862, Control_c, 10, 11, 82
10, 3867, Control_c, 10, 11, 85
10, 3882, Control_c, 10, 11, 85
10, 3901, Control_c, 10, 11, 82
10, 3919, Control_c, 10, 11, 79
10, 3938, Control_c, 10, 11, 76
10, 3956, Control_c, 10, 11, 73
10, 3975, Control_c, 10, 11, 70
10, 3994, Control_c, 10, 11, 67
10, 4012, Control_c, 10, 11, 64
10, 4031, Control_c, 10, 11, 61
10, 4050, Control_c, 10, 11, 58
10, 4068, Control_c, 10, 11, 55
10, 4087, Control_c, 10, 11, 52
10, 4105, Control_c, 10, 11, 49
10, 4124, Control_c, 10, 11, 46
10, 4143, Control_c, 10, 11, 43
10, 4154, Control_c, 10, 11, 40
10, 4162, Control_c, 10, 11, 37
10, 4169, Control_c, 10, 11, 34
10, 4170, Note_on_c, 10, 55, 0
10, 4170, Note_on_c, 10, 67, 0
10, 4200, Control_c, 10, 11, 17
10, 4200, Note_on_c, 10, 67, 80
10, 4206, Control_c, 10, 11, 20
10, 4212, Control_c, 10, 11, 23
10, 4218, Control_c, 10, 11, 26
10, 4224, Control_c, 10, 11, 29
10, 4230, Control_c, 10, 11, 32
10, 4236, Control_c, 10, 11, 35
10, 4256, Control_c, 10, 11, 39
10, 4272, Control_c, 10, 11, 41
10, 4288, Control_c, 10, 11, 43
10, 4304, Control_c, 10, 11, 45
10, 4320, Note_on_c, 10, 67, 0
10, 4320, Control_c, 10, 11, 37
10, 4320, Note_on_c, 10, 69, 90
10, 4330, Control_c, 10, 11, 40
10, 4340, Control_c, 10, 11, 43
10, 4350, Control_c, 10, 11, 46
10, 4440, Note_on_c, 10, 69, 0
10, 4440, Control_c, 10, 11, 37
10, 4440, Note_on_c, 10, 71, 100
10, 4450, Control_c, 10, 11, 40
10, 4460, Control_c, 10, 11, 43
10, 4470, Control_c, 10, 11, 46
10, 4560, Note_on_c, 10, 71, 0
10, 4560, Control_c, 10, 11, 37
10, 4560, Note_on_c, 10, 72, 100
10, 4570, Control_c, 10, 11, 40
10, 4580, Control_c, 10, 11, 43
10, 4590, Control_c, 10, 11, 46
10, 4680, Note_on_c, 10, 72, 0
10, 4680, Note_on_c, 10, 74, 100
10, 4740, Note_on_c, 10, 74, 0
10, 4740, Note_on_c, 10, 72, 100
10, 4800, Note_on_c, 10, 72, 0
10, 4800, Note_on_c, 10, 71, 100
10, 5040, Control_c, 10, 11, 46
10, 5057, Control_c, 10, 11, 43
10, 5075, Control_c, 10, 11, 40
10, 5093, Control_c, 10, 11, 37
10, 5110, Control_c, 10, 11, 34
10, 5128, Control_c, 10, 11, 31
10, 5137, Control_c, 10, 11, 28
10, 5140, Note_on_c, 10, 71, 0
10, 5143, Control_c, 10, 11, 25
10, 5148, Control_c, 10, 11, 22
10, 5760, Control_c, 10, 11, 57
10, 5760, Note_on_c, 10, 82, 100
10, 5760, Note_on_c, 10, 70, 100
10, 5763, Control_c, 10, 11, 61
10, 5767, Control_c, 10, 11, 66
10, 5770, Control_c, 10, 11, 71
10, 5774, Control_c, 10, 11, 75
10, 5778, Control_c, 10, 11, 80
10, 5781, Control_c, 10, 11, 85
10, 5910, Note_on_c, 10, 70, 0
10, 5910, Note_on_c, 10, 82, 0
10, 5910, Control_c, 10, 11, 77
10, 5910, Note_on_c, 10, 82, 100
10, 5912, Control_c, 10, 11, 74
10, 5915, Control_c, 10, 11, 71
10, 5917, Control_c, 10, 11, 68
10, 5920, Control_c, 10, 11, 65
10, 5923, Control_c, 10, 11, 61
10, 5925, Note_on_c, 10, 82, 0
10, 5926, Control_c, 10, 11, 58
10, 5929, Control_c, 10, 11, 54
10, 5932, Control_c, 10, 11, 51
10, 5935, Control_c, 10, 11, 47
10, 5938, Control_c, 10, 11, 44
10, 5940, Note_on_c, 10, 81, 100
10, 5955, Note_on_c, 10, 81, 0
10, 5970, Note_on_c, 10, 79, 100
10, 5985, Note_on_c, 10, 79, 0
10, 6000, Note_on_c, 10, 77, 100
10, 6015, Note_on_c, 10, 77, 0
10, 6030, Note_on_c, 10, 76, 100
10, 6045, Note_on_c, 10, 76, 0
10, 6060, Note_on_c, 10, 74, 100
10, 6075, Note_on_c, 10, 74, 0
10, 6090, Note_on_c, 10, 73, 100
10, 6105, Note_on_c, 10, 73, 0
10, 7110, Note_on_c, 10, 69, 100
10, 7140, Note_on_c, 10, 69, 0
10, 7140, Note_on_c, 10, 64, 100
10, 7160, Note_on_c, 10, 64, 0
10, 7170, Note_on_c, 10, 73, 100
10, 7200, Note_on_c, 10, 73, 0
10, 7200, Note_on_c, 10, 69, 100
10, 7220, Note_on_c, 10, 69, 0
10, 7680, Control_c, 10, 11, 57
10, 7680, Note_on_c, 10, 86, 100
10, 7680, Note_on_c, 10, 74, 100
10, 7683, Control_c, 10, 11, 61
10, 7687, Control_c, 10, 11, 66
10, 7690, Control_c, 10, 11, 71
10, 7694, Control_c, 10, 11, 75
10, 7698, Control_c, 10, 11, 80
10, 7701, Control_c, 10, 11, 85
10, 7830, Note_on_c, 10, 74, 0
10, 7830, Note_on_c, 10, 86, 0
10, 7830, Control_c, 10, 11, 67
10, 7830, Note_on_c, 10, 86, 100
10, 7833, Control_c, 10, 11, 64
10, 7838, Control_c, 10, 11, 61
10, 7841, Control_c, 10, 11, 58
10, 7845, Note_on_c, 10, 86, 0
10, 7846, Control_c, 10, 11, 55
10, 7851, Control_c, 10, 11, 52
10, 7855, Control_c, 10, 11, 49
10, 7860, Control_c, 10, 11, 46
10, 7860, Note_on_c, 10, 84, 100
10, 7864, Control_c, 10, 11, 43
10, 7875, Note_on_c, 10, 84, 0
10, 7890, Note_on_c, 10, 83, 100
10, 7905, Note_on_c, 10, 83, 0
10, 7920, Note_on_c, 10, 81, 100
10, 7935, Note_on_c, 10, 81, 0
10, 7950, Note_on_c, 10, 79, 100
10, 7965, Note_on_c, 10, 79, 0
10, 7980, Note_on_c, 10, 78, 100
10, 7995, Note_on_c, 10, 78, 0
10, 8010, Note_on_c, 10, 76, 100
10, 8025, Note_on_c, 10, 76, 0
10, 9090, Note_on_c, 10, 66, 100
10, 9120, Note_on_c, 10, 66, 0
10, 9120, Note_on_c, 10, 72, 100
10, 9140, Note_on_c, 10, 72, 0
10, 9600, Control_c, 10, 11, 57
10, 9600, Note_on_c, 10, 79, 100
10, 9603, Control_c, 10, 11, 61
10, 9607, Control_c, 10, 11, 66
10, 9610, Control_c, 10, 11, 71
10, 9614, Control_c, 10, 11, 75
10, 9618, Control_c, 10, 11, 80
10, 9621, Control_c, 10, 11, 85
10, 9750, Control_c, 10, 11, 87
10, 9753, Control_c, 10, 11, 84
10, 9756, Control_c, 10, 11, 81
10, 9760, Control_c, 10, 11, 78
10, 9763, Control_c, 10, 11, 75
10, 9766, Control_c, 10, 11, 72
10, 9770, Control_c, 10, 11, 69
10, 9773, Control_c, 10, 11, 66
10, 9776, Control_c, 10, 11, 63
10, 9780, Note_on_c, 10, 79, 0
10, 9780, Control_c, 10, 11, 60
10, 9960, Control_c, 10, 11, 42
10, 9960, Note_on_c, 10, 79, 64
10, 9975, Note_on_c, 10, 79, 0
10, 9990, Note_on_c, 10, 77, 77
10, 10005, Note_on_c, 10, 77, 0
10, 10020, Note_on_c, 10, 76, 93
10, 10035, Note_on_c, 10, 76, 0
10, 10050, Note_on_c, 10, 74, 100
10, 10065, Note_on_c, 10, 74, 0
10, 10560, Control_c, 10, 11, 42
10, 10590, Note_on_c, 10, 55, 54
10, 10605, Note_on_c, 10, 55, 0
10, 10620, Note_on_c, 10, 57, 72
10, 10635, Note_on_c, 10, 57, 0
10, 10650, Note_on_c, 10, 59, 95
10, 10665, Note_on_c, 10, 59, 0
10, 10680, Note_on_c, 10, 60, 100
10, 10695, Note_on_c, 10, 60, 0
10, 10710, Note_on_c, 10, 62, 100
10, 10725, Note_on_c, 10, 62, 0
10, 10740, Note_on_c, 10, 64, 100
10, 10755, Note_on_c, 10, 64, 0
10, 10770, Note_on_c, 10, 65, 100
10, 10785, Note_on_c, 10, 65, 0
10, 10800, Note_on_c, 10, 67, 100
10, 10815, Note_on_c, 10, 67, 0
10, 10830, Note_on_c, 10, 69, 100
10, 10845, Note_on_c, 10, 69, 0
10, 10860, Note_on_c, 10, 71, 100
10, 10875, Note_on_c, 10, 71, 0
10, 10890, Note_on_c, 10, 72, 100
10, 10905, Note_on_c, 10, 72, 0
10, 10920, Note_on_c, 10, 74, 100
10, 10935, Note_on_c, 10, 74, 0
10, 10950, Note_on_c, 10, 76, 100
10, 10965, Note_on_c, 10, 76, 0
10, 10980, Note_on_c, 10, 77, 100
10, 10995, Note_on_c, 10, 77, 0
10, 11010, Note_on_c, 10, 78, 100
10, 11025, Note_on_c, 10, 78, 0
10, 11040, Control_c, 10, 11, 42
10, 11040, Note_on_c, 10, 79, 100
10, 11070, Note_on_c, 10, 79, 0
10, 11190, Note_on_c, 10, 78, 100
10, 11220, Note_on_c, 10, 78, 0
10, 11220, Note_on_c, 10, 79, 100
10, 11250, Note_on_c, 10, 79, 0
10, 11250, Note_on_c, 10, 78, 100
10, 11280, Note_on_c, 10, 78, 0
10, 11280, Control_c, 10, 11, 47
10, 11280, Note_on_c, 10, 79, 100
10, 11340, Note_on_c, 10, 79, 0
10, 11430, Control_c, 10, 11, 54
10, 11430, Note_on_c, 10, 78, 110
10, 11460, Note_on_c, 10, 78, 0
10, 11460, Note_on_c, 10, 79, 110
10, 11490, Note_on_c, 10, 79, 0
10, 11490, Note_on_c, 10, 78, 110
10, 11520, Note_on_c, 10, 78, 0
10, 11520, Note_on_c, 10, 79, 110
10, 11580, Note_on_c, 10, 79, 0
10, 11610, Control_c, 10, 11, 62
10, 11610, Note_on_c, 10, 78, 112
10, 11640, Note_on_c, 10, 78, 0
10, 11640, Note_on_c, 10, 79, 114
10, 11670, Note_on_c, 10, 79, 0
10, 11730, Control_c, 10, 11, 67
10, 11730, Note_on_c, 10, 78, 118
10, 11760, Note_on_c, 10, 78, 0
10, 11760, Note_on_c, 10, 79, 119
10, 11790, Note_on_c, 10, 79, 0
10, 11850, Control_c, 10, 11, 72
10, 11850, Note_on_c, 10, 78, 123
10, 11880, Note_on_c, 10, 78, 0
10, 11880, Note_on_c, 10, 79, 125
10, 11920, Note_on_c, 10, 79, 0
10, 11920, Note_on_c, 10, 77, 125
10, 11960, Note_on_c, 10, 77, 0
10, 11960, Note_on_c, 10, 79, 125
10, 11995, Note_on_c, 10, 79, 0
10, 12000, Control_c, 10, 11, 67
10, 12000, Note_on_c, 10, 80, 127
10, 12003, Control_c, 10, 11, 70
10, 12006, Control_c, 10, 11, 73
10, 12009, Control_c, 10, 11, 76
10, 12012, Control_c, 10, 11, 79
10, 12015, Control_c, 10, 11, 82
10, 12018, Control_c, 10, 11, 85
10, 12021, Control_c, 10, 11, 88
10, 12024, Control_c, 10, 11, 91
10, 12027, Control_c, 10, 11, 94
10, 12030, Control_c, 10, 11, 97
10, 12034, Control_c, 10, 11, 94
10, 12039, Control_c, 10, 11, 91
10, 12043, Control_c, 10, 11, 88
10, 12048, Control_c, 10, 11, 85
10, 12052, Control_c, 10, 11, 82
10, 12057, Control_c, 10, 11, 79
10, 12061, Control_c, 10, 11, 76
10, 12066, Control_c, 10, 11, 73
10, 12070, Control_c, 10, 11, 70
10, 12075, Control_c, 10, 11, 67
10, 12079, Control_c, 10, 11, 64
10, 12084, Control_c, 10, 11, 61
10, 12088, Control_c, 10, 11, 58
10, 12108, Control_c, 10, 11, 55
10, 12126, Control_c, 10, 11, 53
10, 12144, Control_c, 10, 11, 51
10, 12162, Control_c, 10, 11, 49
10, 12180, Note_on_c, 10, 80, 0
10, 12180, Control_c, 10, 11, 47
10, 12180, Note_on_c, 10, 79, 121
10, 12235, Note_on_c, 10, 79, 0
10, 12240, Control_c, 10, 11, 42
10, 12240, Note_on_c, 10, 79, 119
10, 12249, Control_c, 10, 11, 45
10, 12256, Control_c, 10, 11, 48
10, 12268, Control_c, 10, 11, 45
10, 12280, Control_c, 10, 11, 42
10, 12292, Control_c, 10, 11, 39
10, 12300, Note_on_c, 10, 79, 0
10, 12300, Note_on_c, 10, 77, 118
10, 12390, Note_on_c, 10, 77, 0
10, 12390, Note_on_c, 10, 79, 115
10, 12420, Note_on_c, 10, 79, 0
10, 12420, Control_c, 10, 11, 37
10, 12420, Note_on_c, 10, 77, 115
10, 12438, Control_c, 10, 11, 40
10, 12450, Note_on_c, 10, 77, 0
10, 12450, Note_on_c, 10, 79, 114
10, 12456, Control_c, 10, 11, 43
10, 12474, Control_c, 10, 11, 46
10, 12475, Note_on_c, 10, 79, 0
10, 12480, Note_on_c, 10, 80, 113
10, 12520, Note_on_c, 10, 80, 0
10, 12520, Note_on_c, 10, 77, 112
10, 12560, Note_on_c, 10, 77, 0
10, 12560, Note_on_c, 10, 75, 111
10, 12600, Note_on_c, 10, 75, 0
10, 12600, Note_on_c, 10, 74, 121
10, 12640, Note_on_c, 10, 74, 0
10, 12640, Note_on_c, 10, 75, 109
10, 12680, Note_on_c, 10, 75, 0
10, 12680, Note_on_c, 10, 77, 97
10, 12720, Note_on_c, 10, 77, 0
10, 12720, Note_on_c, 10, 71, 117
10, 12760, Note_on_c, 10, 71, 0
10, 12760, Note_on_c, 10, 72, 106
10, 12800, Note_on_c, 10, 72, 0
10, 12800, Note_on_c, 10, 74, 94
10, 12840, Note_on_c, 10, 74, 0
10, 12840, Note_on_c, 10, 67, 114
10, 12880, Note_on_c, 10, 67, 0
10, 12880, Note_on_c, 10, 79, 103
10, 12920, Note_on_c, 10, 79, 0
10, 12920, Control_c, 10, 11, 47
10, 12920, Note_on_c, 10, 77, 81
10, 12932, Control_c, 10, 11, 44
10, 12944, Control_c, 10, 11, 41
10, 12955, Note_on_c, 10, 77, 0
10, 12956, Control_c, 10, 11, 38
10, 12960, Control_c, 10, 11, 22
10, 12960, Note_on_c, 10, 75, 100
10, 12966, Control_c, 10, 11, 25
10, 12972, Control_c, 10, 11, 28
10, 12978, Control_c, 10, 11, 31
10, 13115, Note_on_c, 10, 75, 0
10, 13120, Note_on_c, 10, 74, 100
10, 13140, Note_on_c, 10, 74, 0
10, 13160, Note_on_c, 10, 72, 100
10, 13180, Note_on_c, 10, 72, 0
10, 13200, Note_on_c, 10, 71, 100
10, 13355, Note_on_c, 10, 71, 0
10, 13360, Note_on_c, 10, 72, 100
10, 13380, Note_on_c, 10, 72, 0
10, 13400, Note_on_c, 10, 74, 100
10, 13420, Note_on_c, 10, 74, 0
10, 13440, Note_on_c, 10, 72, 100
10, 13595, Note_on_c, 10, 72, 0
10, 13600, Note_on_c, 10, 74, 100
10, 13620, Note_on_c, 10, 74, 0
10, 13640, Note_on_c, 10, 75, 100
10, 13660, Note_on_c, 10, 75, 0
10, 13680, Note_on_c, 10, 74, 100
10, 13835, Note_on_c, 10, 74, 0
10, 13840, Note_on_c, 10, 75, 100
10, 13860, Note_on_c, 10, 75, 0
10, 13880, Note_on_c, 10, 77, 100
10, 13900, Note_on_c, 10, 77, 0
10, 13920, Note_on_c, 10, 75, 80
10, 13940, Note_on_c, 10, 75, 0
10, 13960, Note_on_c, 10, 79, 100
10, 13980, Note_on_c, 10, 79, 0
10, 14000, Note_on_c, 10, 79, 100
10, 14020, Note_on_c, 10, 79, 0
10, 14040, Note_on_c, 10, 80, 123
10, 14047, Note_on_c, 10, 79, 123
10, 14048, Note_on_c, 10, 80, 0
10, 14055, Note_on_c, 10, 79, 0
10, 14055, Note_on_c, 10, 78, 123
10, 14062, Note_on_c, 10, 79, 100
10, 14063, Note_on_c, 10, 78, 0
10, 14078, Note_on_c, 10, 79, 0
10, 14200, Note_on_c, 10, 79, 110
10, 14220, Note_on_c, 10, 79, 0
10, 14240, Note_on_c, 10, 79, 110
10, 14260, Note_on_c, 10, 79, 0
10, 14280, Note_on_c, 10, 80, 127
10, 14287, Note_on_c, 10, 79, 127
10, 14288, Note_on_c, 10, 80, 0
10, 14295, Note_on_c, 10, 79, 0
10, 14295, Note_on_c, 10, 78, 127
10, 14302, Note_on_c, 10, 79, 110
10, 14303, Note_on_c, 10, 78, 0
10, 14318, Note_on_c, 10, 79, 0
10, 14440, Control_c, 10, 11, 32
10, 14440, Note_on_c, 10, 79, 100
10, 14445, Control_c, 10, 11, 35
10, 14451, Control_c, 10, 11, 38
10, 14456, Control_c, 10, 11, 41
10, 14460, Note_on_c, 10, 79, 0
10, 14462, Control_c, 10, 11, 44
10, 14467, Control_c, 10, 11, 47
10, 14473, Control_c, 10, 11, 50
10, 14478, Control_c, 10, 11, 53
10, 14480, Note_on_c, 10, 79, 100
10, 14484, Control_c, 10, 11, 56
10, 14490, Control_c, 10, 11, 59
10, 14495, Control_c, 10, 11, 62
10, 14500, Note_on_c, 10, 79, 0
10, 14501, Control_c, 10, 11, 65
10, 14506, Control_c, 10, 11, 68
10, 14512, Control_c, 10, 11, 71
10, 14517, Control_c, 10, 11, 74
10, 14520, Note_on_c, 10, 80, 123
10, 14523, Control_c, 10, 11, 77
10, 14527, Note_on_c, 10, 79, 123
10, 14528, Note_on_c, 10, 80, 0
10, 14529, Control_c, 10, 11, 80
10, 14534, Control_c, 10, 11, 83
10, 14535, Note_on_c, 10, 79, 0
10, 14535, Note_on_c, 10, 78, 123
10, 14540, Control_c, 10, 11, 86
10, 14542, Note_on_c, 10, 79, 100
10, 14543, Note_on_c, 10, 78, 0
10, 14558, Note_on_c, 10, 79, 0
10, 14640, Control_c, 10, 11, 52
10, 14640, Note_on_c, 10, 84, 100
10, 14648, Control_c, 10, 11, 49
10, 14656, Control_c, 10, 11, 46
10, 14660, Note_on_c, 10, 84, 0
10, 14664, Control_c, 10, 11, 43
10, 14672, Control_c, 10, 11, 40
10, 14680, Control_c, 10, 11, 37
10, 14680, Note_on_c, 10, 86, 100
10, 14700, Note_on_c, 10, 86, 0
10, 14720, Note_on_c, 10, 87, 100
10, 14740, Note_on_c, 10, 87, 0
10, 14760, Note_on_c, 10, 86, 100
10, 14780, Note_on_c, 10, 86, 0
10, 14800, Note_on_c, 10, 84, 100
10, 14820, Note_on_c, 10, 84, 0
10, 14840, Note_on_c, 10, 82, 100
10, 14860, Note_on_c, 10, 82, 0
10, 15479, Program_c, 10, 45
10, 15480, Control_c, 10, 11, 100
10, 15480, Note_on_c, 10, 67, 29
10, 15500, Note_on_c, 10, 67, 0
10, 15520, Note_on_c, 10, 65, 29
10, 15540, Note_on_c, 10, 65, 0
10, 15560, Note_on_c, 10, 63, 29
10, 15580, Note_on_c, 10, 63, 0
10, 15600, Note_on_c, 10, 62, 29
10, 15620, Note_on_c, 10, 62, 0
10, 15640, Note_on_c, 10, 60, 29
10, 15660, Note_on_c, 10, 60, 0
10, 15680, Note_on_c, 10, 59, 29
10, 15700, Note_on_c, 10, 59, 0
10, 15720, Note_on_c, 10, 60, 29
10, 15740, Note_on_c, 10, 60, 0
10, 15760, Note_on_c, 10, 63, 29
10, 15780, Note_on_c, 10, 63, 0
10, 15800, Note_on_c, 10, 60, 29
10, 15820, Note_on_c, 10, 60, 0
10, 15840, Note_on_c, 10, 55, 29
10, 15960, Note_on_c, 10, 55, 0
10, 16559, Program_c, 10, 48
10, 16560, Control_c, 10, 11, 62
10, 16560, Note_on_c, 10, 66, 100
10, 16570, Control_c, 10, 11, 68
10, 16581, Control_c, 10, 11, 74
10, 16591, Control_c, 10, 11, 81
10, 16602, Control_c, 10, 11, 87
10, 16613, Control_c, 10, 11, 95
10, 16631, Control_c, 10, 11, 90
10, 16649, Control_c, 10, 11, 85
10, 16667, Control_c, 10, 11, 81
10, 16685, Control_c, 10, 11, 76
10, 16703, Control_c, 10, 11, 71
10, 16721, Control_c, 10, 11, 67
10, 16739, Control_c, 10, 11, 62
10, 16757, Control_c, 10, 11, 57
10, 16775, Control_c, 10, 11, 53
10, 16793, Control_c, 10, 11, 48
10, 16800, Note_on_c, 10, 66, 0
10, 16800, Note_on_c, 10, 67, 80
10, 16920, Note_on_c, 10, 67, 0
10, 17520, Control_c, 10, 11, 47
10, 17520, Note_on_c, 10, 66, 100
10, 17525, Control_c, 10, 11, 53
10, 17530, Control_c, 10, 11, 60
10, 17535, Control_c, 10, 11, 68
10, 17540, Control_c, 10, 11, 74
10, 17545, Control_c, 10, 11, 82
10, 17550, Control_c, 10, 11, 90
10, 17568, Control_c, 10, 11, 90
10, 17588, Control_c, 10, 11, 85
10, 17609, Control_c, 10, 11, 80
10, 17629, Control_c, 10, 11, 76
10, 17650, Control_c, 10, 11, 71
10, 17670, Control_c, 10, 11, 66
10, 17691, Control_c, 10, 11, 62
10, 17712, Control_c, 10, 11, 57
10, 17732, Control_c, 10, 11, 53
10, 17753, Control_c, 10, 11, 48
10, 17760, Note_on_c, 10, 66, 0
10, 17760, Note_on_c, 10, 67, 68
10, 17850, Control_c, 10, 11, 47
10, 17854, Control_c, 10, 11, 44
10, 17858, Control_c, 10, 11, 41
10, 17863, Control_c, 10, 11, 38
10, 17867, Control_c, 10, 11, 35
10, 17871, Control_c, 10, 11, 32
10, 17876, Control_c, 10, 11, 29
10, 17880, Note_on_c, 10, 67, 0
10, 17970, Control_c, 10, 11, 32
10, 17970, Note_on_c, 10, 59, 100
10, 18000, Note_on_c, 10, 59, 0
10, 18000, Note_on_c, 10, 62, 100
10, 18060, Note_on_c, 10, 62, 0
10, 18090, Note_on_c, 10, 59, 100
10, 18120, Note_on_c, 10, 59, 0
10, 18120, Note_on_c, 10, 62, 100
10, 18180, Note_on_c, 10, 62, 0
10, 18210, Note_on_c, 10, 59, 100
10, 18240, Note_on_c, 10, 59, 0
10, 18240, Note_on_c, 10, 62, 100
10, 18360, Note_on_c, 10, 62, 0
10, 18450, Note_on_c, 10, 62, 100
10, 18480, Note_on_c, 10, 62, 0
10, 18480, Note_on_c, 10, 65, 100
10, 18540, Note_on_c, 10, 65, 0
10, 18570, Note_on_c, 10, 62, 100
10, 18600, Note_on_c, 10, 62, 0
10, 18600, Note_on_c, 10, 65, 100
10, 18660, Note_on_c, 10, 65, 0
10, 18690, Note_on_c, 10, 62, 100
10, 18720, Note_on_c, 10, 62, 0
10, 18720, Note_on_c, 10, 65, 100
10, 18840, Note_on_c, 10, 65, 0
10, 18930, Note_on_c, 10, 71, 100
10, 18960, Note_on_c, 10, 71, 0
10, 18960, Note_on_c, 10, 74, 100
10, 19020, Note_on_c, 10, 74, 0
10, 19140, Note_on_c, 10, 71, 100
10, 19200, Note_on_c, 10, 71, 0
10, 19200, Control_c, 10, 11, 37
10, 19200, Note_on_c, 10, 74, 100
10, 19218, Control_c, 10, 11, 38
10, 19236, Control_c, 10, 11, 39
10, 19254, Control_c, 10, 11, 40
10, 19260, Note_on_c, 10, 74, 0
10, 19272, Control_c, 10, 11, 41
10, 19290, Control_c, 10, 11, 42
10, 19290, Note_on_c, 10, 74, 100
10, 19308, Control_c, 10, 11, 43
10, 19320, Note_on_c, 10, 74, 0
10, 19320, Note_on_c, 10, 77, 100
10, 19326, Control_c, 10, 11, 44
10, 19344, Control_c, 10, 11, 45
10, 19362, Control_c, 10, 11, 46
10, 19380, Note_on_c, 10, 77, 0
10, 19380, Control_c, 10, 11, 47
10, 19398, Control_c, 10, 11, 48
10, 19410, Note_on_c, 10, 77, 100
10, 19416, Control_c, 10, 11, 49
10, 19434, Control_c, 10, 11, 50
10, 19440, Note_on_c, 10, 77, 0
10, 19440, Note_on_c, 10, 81, 100
10, 19452, Control_c, 10, 11, 51
10, 19470, Control_c, 10, 11, 52
10, 19488, Control_c, 10, 11, 53
10, 19500, Note_on_c, 10, 81, 0
10, 19506, Control_c, 10, 11, 54
10, 19524, Control_c, 10, 11, 55
10, 19530, Note_on_c, 10, 81, 100
10, 19542, Control_c, 10, 11, 56
10, 19560, Note_on_c, 10, 81, 0
10, 19560, Control_c, 10, 11, 57
10, 19560, Note_on_c, 10, 71, 100
10, 19580, Control_c, 10, 11, 58
10, 19600, Control_c, 10, 11, 59
10, 19620, Note_on_c, 10, 71, 0
10, 19620, Control_c, 10, 11, 60
10, 19640, Control_c, 10, 11, 61
10, 19650, Note_on_c, 10, 71, 100
10, 19660, Control_c, 10, 11, 62
10, 19680, Note_on_c, 10, 71, 0
10, 19680, Control_c, 10, 11, 63
10, 19680, Note_on_c, 10, 74, 100
10, 19700, Control_c, 10, 11, 64
10, 19720, Control_c, 10, 11, 65
10, 19740, Note_on_c, 10, 74, 0
10, 19740, Control_c, 10, 11, 66
10, 19760, Control_c, 10, 11, 67
10, 19770, Note_on_c, 10, 74, 100
10, 19780, Control_c, 10, 11, 68
10, 19800, Note_on_c, 10, 74, 0
10, 19800, Control_c, 10, 11, 69
10, 19800, Note_on_c, 10, 77, 100
10, 19820, Control_c, 10, 11, 70
10, 19840, Control_c, 10, 11, 71
10, 19860, Note_on_c, 10, 77, 0
10, 19860, Control_c, 10, 11, 72
10, 19880, Control_c, 10, 11, 73
10, 19890, Note_on_c, 10, 77, 100
10, 19900, Control_c, 10, 11, 74
10, 19920, Note_on_c, 10, 77, 0
10, 19920, Control_c, 10, 11, 75
10, 19920, Note_on_c, 10, 81, 100
10, 19940, Control_c, 10, 11, 76
10, 19960, Control_c, 10, 11, 77
10, 19980, Note_on_c, 10, 81, 0
10, 19980, Control_c, 10, 11, 78
10, 20000, Control_c, 10, 11, 79
10, 20010, Note_on_c, 10, 81, 100
10, 20020, Control_c, 10, 11, 80
10, 20040, Note_on_c, 10, 81, 0
10, 20040, Control_c, 10, 11, 81
10, 20040, Note_on_c, 10, 71, 100
10, 20060, Control_c, 10, 11, 82
10, 20080, Control_c, 10, 11, 83
10, 20100, Note_on_c, 10, 71, 0
10, 20100, Control_c, 10, 11, 84
10, 20120, Control_c, 10, 11, 85
10, 20130, Note_on_c, 10, 71, 100
10, 20140, Control_c, 10, 11, 86
10, 20160, Note_on_c, 10, 71, 0
10, 20160, Control_c, 10, 11, 87
10, 20160, Note_on_c, 10, 74, 100
10, 20280, Note_on_c, 10, 74, 0
10, 20340, Note_on_c, 10, 77, 103
10, 20400, Note_on_c, 10, 77, 0
10, 20400, Note_on_c, 10, 81, 105
10, 20416, Control_c, 10, 11, 88
10, 20520, Note_on_c, 10, 81, 0
10, 20580, Note_on_c, 10, 71, 108
10, 20640, Note_on_c, 10, 71, 0
10, 20640, Note_on_c, 10, 74, 110
10, 20672, Control_c, 10, 11, 89
10, 20760, Note_on_c, 10, 74, 0
10, 20820, Note_on_c, 10, 77, 113
10, 20880, Note_on_c, 10, 77, 0
10, 20880, Note_on_c, 10, 81, 115
10, 20928, Control_c, 10, 11, 90
10, 21000, Note_on_c, 10, 81, 0
10, 21060, Note_on_c, 10, 71, 118
10, 21120, Note_on_c, 10, 71, 0
10, 21120, Note_on_c, 10, 74, 120
10, 21184, Control_c, 10, 11, 91
10, 21240, Note_on_c, 10, 74, 0
10, 21300, Note_on_c, 10, 77, 123
10, 21360, Note_on_c, 10, 77, 0
10, 21360, Note_on_c, 10, 81, 125
10, 21440, Control_c, 10, 11, 92
10, 21480, Note_on_c, 10, 81, 0
10, 21540, Control_c, 10, 11, 72
10, 21540, Note_on_c, 10, 71, 100
10, 21573, Control_c, 10, 11, 73
10, 21600, Note_on_c, 10, 71, 0
10, 21600, Note_on_c, 10, 72, 101
10, 21607, Control_c, 10, 11, 74
10, 21641, Control_c, 10, 11, 75
10, 21675, Control_c, 10, 11, 76
10, 21709, Control_c, 10, 11, 77
10, 21720, Note_on_c, 10, 72, 0
10, 21743, Control_c, 10, 11, 78
10, 21777, Control_c, 10, 11, 79
10, 21780, Note_on_c, 10, 72, 106
10, 21811, Control_c, 10, 11, 80
10, 21840, Note_on_c, 10, 72, 0
10, 21840, Note_on_c, 10, 74, 107
10, 21845, Control_c, 10, 11, 81
10, 21879, Control_c, 10, 11, 82
10, 21913, Control_c, 10, 11, 83
10, 21946, Control_c, 10, 11, 84
10, 21960, Note_on_c, 10, 74, 0
10, 21980, Control_c, 10, 11, 85
10, 22014, Control_c, 10, 11, 86
10, 22020, Note_on_c, 10, 74, 113
10, 22048, Control_c, 10, 11, 87
10, 22080, Note_on_c, 10, 74, 0
10, 22080, Note_on_c, 10, 76, 114
10, 22082, Control_c, 10, 11, 88
10, 22116, Control_c, 10, 11, 89
10, 22150, Control_c, 10, 11, 90
10, 22184, Control_c, 10, 11, 91
10, 22200, Note_on_c, 10, 76, 0
10, 22218, Control_c, 10, 11, 92
10, 22252, Control_c, 10, 11, 93
10, 22260, Note_on_c, 10, 76, 120
10, 22286, Control_c, 10, 11, 94
10, 22320, Note_on_c, 10, 76, 0
10, 22320, Control_c, 10, 11, 95
10, 22320, Note_on_c, 10, 77, 122
10, 22440, Note_on_c, 10, 77, 0
10, 22464, Control_c, 10, 11, 96
10, 22500, Note_on_c, 10, 71, 102
10, 22560, Note_on_c, 10, 71, 0
10, 22560, Note_on_c, 10, 72, 103
10, 22680, Note_on_c, 10, 72, 0
10, 22720, Control_c, 10, 11, 97
10, 22740, Note_on_c, 10, 72, 109
10, 22800, Note_on_c, 10, 72, 0
10, 22800, Note_on_c, 10, 74, 110
10, 22920, Note_on_c, 10, 74, 0
10, 22976, Control_c, 10, 11, 98
10, 22980, Note_on_c, 10, 74, 116
10, 23040, Note_on_c, 10, 74, 0
10, 23040, Note_on_c, 10, 76, 117
10, 23160, Note_on_c, 10, 76, 0
10, 23220, Note_on_c, 10, 76, 122
10, 23232, Control_c, 10, 11, 99
10, 23280, Note_on_c, 10, 76, 0
10, 23280, Note_on_c, 10, 77, 124
10, 23400, Note_on_c, 10, 77, 0
10, 23460, Note_on_c, 10, 71, 105
10, 23488, Control_c, 10, 11, 100
10, 23520, Note_on_c, 10, 71, 0
10, 23520, Note_on_c, 10, 72, 105
10, 23640, Note_on_c, 10, 72, 0
10, 23700, Note_on_c, 10, 72, 106
10, 23744, Control_c, 10, 11, 101
10, 23760, Note_on_c, 10, 72, 0
10, 23760, Note_on_c, 10, 74, 106
10, 23880, Note_on_c, 10, 74, 0
10, 23940, Note_on_c, 10, 74, 106
10, 24000, Note_on_c, 10, 74, 0
10, 24000, Control_c, 10, 11, 102
10, 24000, Note_on_c, 10, 76, 106
10, 24120, Note_on_c, 10, 76, 0
10, 24180, Note_on_c, 10, 76, 107
10, 24240, Note_on_c, 10, 76, 0
10, 24240, Note_on_c, 10, 77, 107
10, 24256, Control_c, 10, 11, 103
10, 24360, Note_on_c, 10, 77, 0
10, 24420, Note_on_c, 10, 74, 108
10, 24480, Note_on_c, 10, 74, 0
10, 24480, Note_on_c, 10, 77, 108
10, 24512, Control_c, 10, 11, 104
10, 24600, Note_on_c, 10, 77, 0
10, 24660, Note_on_c, 10, 74, 108
10, 24720, Note_on_c, 10, 74, 0
10, 24720, Note_on_c, 10, 77, 108
10, 24768, Control_c, 10, 11, 105
10, 24840, Note_on_c, 10, 77, 0
10, 24900, Note_on_c, 10, 74, 109
10, 24960, Note_on_c, 10, 74, 0
10, 24960, Note_on_c, 10, 77, 109
10, 25024, Control_c, 10, 11, 106
10, 25080, Note_on_c, 10, 77, 0
10, 25140, Note_on_c, 10, 74, 110
10, 25200, Note_on_c, 10, 74, 0
10, 25200, Note_on_c, 10, 77, 110
10, 25280, Control_c, 10, 11, 107
10, 25320, Note_on_c, 10, 77, 0
10, 25380, Note_on_c, 10, 74, 110
10, 25440, Note_on_c, 10, 74, 0
10, 25440, Note_on_c, 10, 77, 110
10, 25536, Control_c, 10, 11, 108
10, 25560, Note_on_c, 10, 77, 0
10, 25620, Note_on_c, 10, 74, 111
10, 25680, Note_on_c, 10, 74, 0
10, 25680, Note_on_c, 10, 77, 111
10, 25792, Control_c, 10, 11, 109
10, 25800, Note_on_c, 10, 77, 0
10, 25860, Note_on_c, 10, 74, 112
10, 25920, Note_on_c, 10, 74, 0
10, 25920, Note_on_c, 10, 77, 112
10, 25980, Note_on_c, 10, 77, 0
10, 25980, Note_on_c, 10, 74, 112
10, 26025, Note_on_c, 10, 74, 0
10, 26040, Note_on_c, 10, 77, 112
10, 26048, Control_c, 10, 11, 110
10, 26100, Note_on_c, 10, 77, 0
10, 26100, Note_on_c, 10, 74, 112
10, 26145, Note_on_c, 10, 74, 0
10, 26160, Note_on_c, 10, 77, 112
10, 26220, Note_on_c, 10, 77, 0
10, 26220, Note_on_c, 10, 74, 113
10, 26265, Note_on_c, 10, 74, 0
10, 26280, Note_on_c, 10, 77, 113
10, 26304, Control_c, 10, 11, 111
10, 26340, Note_on_c, 10, 77, 0
10, 26340, Note_on_c, 10, 74, 113
10, 26385, Note_on_c, 10, 74, 0
10, 26400, Note_on_c, 10, 77, 113
10, 26460, Note_on_c, 10, 77, 0
10, 26460, Note_on_c, 10, 74, 113
10, 26505, Note_on_c, 10, 74, 0
10, 26520, Note_on_c, 10, 77, 113
10, 26560, Control_c, 10, 11, 112
10, 26580, Note_on_c, 10, 77, 0
10, 26580, Note_on_c, 10, 74, 114
10, 26625, Note_on_c, 10, 74, 0
10, 26640, Note_on_c, 10, 77, 114
10, 26700, Note_on_c, 10, 77, 0
10, 26700, Note_on_c, 10, 74, 114
10, 26745, Note_on_c, 10, 74, 0
10, 26760, Note_on_c, 10, 77, 114
10, 26816, Control_c, 10, 11, 113
10, 26820, Note_on_c, 10, 77, 0
10, 26820, Note_on_c, 10, 74, 114
10, 26865, Note_on_c, 10, 74, 0
10, 26880, Note_on_c, 10, 77, 114
10, 26940, Note_on_c, 10, 77, 0
10, 26940, Note_on_c, 10, 74, 115
10, 26985, Note_on_c, 10, 74, 0
10, 27000, Note_on_c, 10, 77, 115
10, 27060, Note_on_c, 10, 77, 0
10, 27060, Note_on_c, 10, 74, 115
10, 27072, Control_c, 10, 11, 114
10, 27105, Note_on_c, 10, 74, 0
10, 27120, Note_on_c, 10, 77, 115
10, 27180, Note_on_c, 10, 77, 0
10, 27180, Note_on_c, 10, 74, 115
10, 27225, Note_on_c, 10, 74, 0
10, 27240, Note_on_c, 10, 77, 115
10, 27300, Note_on_c, 10, 77, 0
10, 27300, Note_on_c, 10, 74, 116
10, 27328, Control_c, 10, 11, 115
10, 27345, Note_on_c, 10, 74, 0
10, 27360, Note_on_c, 10, 77, 116
10, 27420, Note_on_c, 10, 77, 0
10, 27420, Note_on_c, 10, 74, 116
10, 27465, Note_on_c, 10, 74, 0
10, 27480, Note_on_c, 10, 77, 116
10, 27540, Note_on_c, 10, 77, 0
10, 27540, Note_on_c, 10, 74, 116
10, 27584, Control_c, 10, 11, 116
10, 27585, Note_on_c, 10, 74, 0
10, 27600, Note_on_c, 10, 76, 117
10, 27600, Note_on_c, 10, 67, 117
10, 27600, Note_on_c, 10, 60, 117
10, 27720, Note_on_c, 10, 60, 0
10, 27720, Note_on_c, 10, 67, 0
10, 27720, Note_on_c, 10, 76, 0
10, 27780, Note_on_c, 10, 72, 117
10, 27840, Note_on_c, 10, 72, 0
10, 27840, Control_c, 10, 11, 117
10, 27840, Note_on_c, 10, 76, 117
10, 27960, Note_on_c, 10, 76, 0
10, 28020, Note_on_c, 10, 76, 117
10, 28080, Note_on_c, 10, 76, 0
10, 28080, Note_on_c, 10, 79, 117
10, 28200, Note_on_c, 10, 79, 0
10, 28260, Note_on_c, 10, 79, 117
10, 28320, Note_on_c, 10, 79, 0
10, 28320, Control_c, 10, 11, 97
10, 28320, Note_on_c, 10, 84, 117
10, 28338, Control_c, 10, 11, 95
10, 28356, Control_c, 10, 11, 93
10, 28374, Control_c, 10, 11, 91
10, 28392, Control_c, 10, 11, 89
10, 28410, Control_c, 10, 11, 87
10, 28428, Control_c, 10, 11, 85
10, 28446, Control_c, 10, 11, 83
10, 28464, Control_c, 10, 11, 81
10, 28482, Control_c, 10, 11, 79
10, 28500, Control_c, 10, 11, 77
10, 28518, Control_c, 10, 11, 75
10, 28536, Control_c, 10, 11, 73
10, 28554, Control_c, 10, 11, 71
10, 28572, Control_c, 10, 11, 69
10, 28590, Control_c, 10, 11, 67
10, 28608, Control_c, 10, 11, 65
10, 28626, Control_c, 10, 11, 63
10, 28644, Control_c, 10, 11, 61
10, 28662, Control_c, 10, 11, 59
10, 28665, Note_on_c, 10, 84, 0
10, 28680, Control_c, 10, 11, 57
10, 28680, Note_on_c, 10, 88, 117
10, 28800, Note_on_c, 10, 88, 0
10, 28800, Note_on_c, 10, 83, 117
10, 28920, Note_on_c, 10, 83, 0
10, 28920, Note_on_c, 10, 84, 117
10, 29040, Note_on_c, 10, 84, 0
10, 29040, Note_on_c, 10, 79, 117
10, 29160, Note_on_c, 10, 79, 0
10, 29160, Note_on_c, 10, 81, 117
10, 29265, Note_on_c, 10, 81, 0
10, 29280, Control_c, 10, 11, 57
10, 29280, Note_on_c, 10, 79, 125
10, 29286, Control_c, 10, 11, 60
10, 29292, Control_c, 10, 11, 63
10, 29298, Control_c, 10, 11, 66
10, 29304, Control_c, 10, 11, 69
10, 29310, Note_on_c, 10, 79, 0
10, 29310, Control_c, 10, 11, 72
10, 29310, Note_on_c, 10, 83, 125
10, 29316, Control_c, 10, 11, 75
10, 29322, Control_c, 10, 11, 78
10, 29328, Control_c, 10, 11, 81
10, 29334, Control_c, 10, 11, 84
10, 29340, Note_on_c, 10, 83, 0
10, 29340, Control_c, 10, 11, 87
10, 29340, Note_on_c, 10, 81, 117
10, 29400, Note_on_c, 10, 81, 0
10, 29400, Control_c, 10, 11, 87
10, 29400, Note_on_c, 10, 79, 117
10, 29416, Control_c, 10, 11, 85
10, 29432, Control_c, 10, 11, 83
10, 29448, Control_c, 10, 11, 81
10, 29464, Control_c, 10, 11, 79
10, 29480, Control_c, 10, 11, 77
10, 29496, Control_c, 10, 11, 75
10, 29512, Control_c, 10, 11, 73
10, 29520, Note_on_c, 10, 79, 0
10, 29520, Note_on_c, 10, 88, 117
10, 29528, Control_c, 10, 11, 71
10, 29544, Control_c, 10, 11, 69
10, 29560, Control_c, 10, 11, 67
10, 29576, Control_c, 10, 11, 65
10, 29592, Control_c, 10, 11, 63
10, 29608, Control_c, 10, 11, 61
10, 29624, Control_c, 10, 11, 59
10, 29640, Note_on_c, 10, 88, 0
10, 29640, Control_c, 10, 11, 57
10, 29640, Note_on_c, 10, 84, 117
10, 29760, Note_on_c, 10, 84, 0
10, 29760, Note_on_c, 10, 83, 117
10, 29880, Note_on_c, 10, 83, 0
10, 29880, Note_on_c, 10, 84, 117
10, 30000, Note_on_c, 10, 84, 0
10, 30000, Note_on_c, 10, 79, 117
10, 30120, Note_on_c, 10, 79, 0
10, 30120, Note_on_c, 10, 81, 117
10, 30225, Note_on_c, 10, 81, 0
10, 30240, Control_c, 10, 11, 57
10, 30240, Note_on_c, 10, 79, 125
10, 30246, Control_c, 10, 11, 60
10, 30252, Control_c, 10, 11, 63
10, 30258, Control_c, 10, 11, 66
10, 30264, Control_c, 10, 11, 69
10, 30270, Note_on_c, 10, 79, 0
10, 30270, Control_c, 10, 11, 72
10, 30270, Note_on_c, 10, 83, 125
10, 30276, Control_c, 10, 11, 75
10, 30282, Control_c, 10, 11, 78
10, 30288, Control_c, 10, 11, 81
10, 30294, Control_c, 10, 11, 84
10, 30300, Note_on_c, 10, 83, 0
10, 30300, Control_c, 10, 11, 87
10, 30300, Note_on_c, 10, 81, 117
10, 30360, Note_on_c, 10, 81, 0
10, 30360, Control_c, 10, 11, 87
10, 30360, Note_on_c, 10, 79, 117
10, 30376, Control_c, 10, 11, 85
10, 30392, Control_c, 10, 11, 83
10, 30408, Control_c, 10, 11, 81
10, 30424, Control_c, 10, 11, 79
10, 30440, Control_c, 10, 11, 77
10, 30456, Control_c, 10, 11, 75
10, 30465, Note_on_c, 10, 79, 0
10, 30472, Control_c, 10, 11, 73
10, 30480, Note_on_c, 10, 88, 117
10, 30488, Control_c, 10, 11, 71
10, 30504, Control_c, 10, 11, 69
10, 30520, Control_c, 10, 11, 67
10, 30536, Control_c, 10, 11, 65
10, 30552, Control_c, 10, 11, 63
10, 30568, Control_c, 10, 11, 61
10, 30584, Control_c, 10, 11, 59
10, 30600, Note_on_c, 10, 88, 0
10, 30600, Control_c, 10, 11, 57
10, 30600, Note_on_c, 10, 84, 117
10, 30720, Note_on_c, 10, 84, 0
10, 30720, Note_on_c, 10, 83, 117
10, 30840, Note_on_c, 10, 83, 0
10, 30840, Note_on_c, 10, 84, 117
10, 31065, Note_on_c, 10, 84, 0
10, 31080, Control_c, 10, 11, 57
10, 31080, Note_on_c, 10, 79, 117
10, 31132, Control_c, 10, 11, 58
10, 31140, Note_on_c, 10, 79, 0
10, 31140, Note_on_c, 10, 76, 117
10, 31184, Control_c, 10, 11, 59
10, 31185, Note_on_c, 10, 76, 0
10, 31200, Note_on_c, 10, 76, 117
10, 31236, Control_c, 10, 11, 60
10, 31288, Control_c, 10, 11, 61
10, 31320, Note_on_c, 10, 76, 0
10, 31320, Note_on_c, 10, 74, 117
10, 31340, Control_c, 10, 11, 62
10, 31392, Control_c, 10, 11, 63
10, 31440, Note_on_c, 10, 74, 0
10, 31444, Control_c, 10, 11, 64
10, 31496, Control_c, 10, 11, 65
10, 31548, Control_c, 10, 11, 66
10, 31560, Note_on_c, 10, 77, 117
10, 31600, Control_c, 10, 11, 67
10, 31620, Note_on_c, 10, 77, 0
10, 31620, Note_on_c, 10, 74, 117
10, 31652, Control_c, 10, 11, 68
10, 31665, Note_on_c, 10, 74, 0
10, 31680, Note_on_c, 10, 72, 117
10, 31704, Control_c, 10, 11, 69
10, 31756, Control_c, 10, 11, 70
10, 31800, Note_on_c, 10, 72, 0
10, 31800, Note_on_c, 10, 71, 117
10, 31808, Control_c, 10, 11, 71
10, 31860, Control_c, 10, 11, 72
10, 31912, Control_c, 10, 11, 73
10, 31920, Note_on_c, 10, 71, 0
10, 31964, Control_c, 10, 11, 74
10, 32016, Control_c, 10, 11, 75
10, 32040, Note_on_c, 10, 74, 117
10, 32068, Control_c, 10, 11, 76
10, 32100, Note_on_c, 10, 74, 0
10, 32100, Note_on_c, 10, 65, 117
10, 32120, Control_c, 10, 11, 77
10, 32145, Note_on_c, 10, 65, 0
10, 32160, Note_on_c, 10, 64, 125
10, 32172, Control_c, 10, 11, 78
10, 32190, Note_on_c, 10, 64, 0
10, 32190, Note_on_c, 10, 67, 125
10, 32220, Note_on_c, 10, 67, 0
10, 32220, Note_on_c, 10, 65, 117
10, 32224, Control_c, 10, 11, 79
10, 32276, Control_c, 10, 11, 80
10, 32280, Note_on_c, 10, 65, 0
10, 32280, Note_on_c, 10, 64, 117
10, 32328, Control_c, 10, 11, 81
10, 32380, Control_c, 10, 11, 82
10, 32400, Note_on_c, 10, 64, 0
10, 32432, Control_c, 10, 11, 83
10, 32484, Control_c, 10, 11, 84
10, 32520, Note_on_c, 10, 88, 117
10, 32536, Control_c, 10, 11, 85
10, 32580, Note_on_c, 10, 88, 0
10, 32580, Note_on_c, 10, 84, 117
10, 32588, Control_c, 10, 11, 86
10, 32640, Note_on_c, 10, 84, 0
10, 32640, Control_c, 10, 11, 87
10, 32640, Note_on_c, 10, 83, 117
10, 32700, Note_on_c, 10, 83, 0
10, 32700, Note_on_c, 10, 86, 117
10, 32745, Note_on_c, 10, 86, 0
10, 32760, Note_on_c, 10, 84, 117
10, 32985, Note_on_c, 10, 84, 0
10, 33000, Note_on_c, 10, 79, 117
10, 33060, Note_on_c, 10, 79, 0
10, 33060, Note_on_c, 10, 76, 117
10, 33105, Note_on_c, 10, 76, 0
10, 33120, Control_c, 10, 11, 95
10, 33120, Note_on_c, 10, 76, 117
10, 33240, Note_on_c, 10, 76, 0
10, 33240, Note_on_c, 10, 74, 117
10, 33360, Note_on_c, 10, 74, 0
10, 33480, Note_on_c, 10, 81, 117
10, 33540, Note_on_c, 10, 81, 0
10, 33540, Note_on_c, 10, 77, 117
10, 33585, Note_on_c, 10, 77, 0
10, 33600, Note_on_c, 10, 76, 117
10, 33720, Note_on_c, 10, 76, 0
10, 33720, Note_on_c, 10, 74, 117
10, 33840, Note_on_c, 10, 74, 0
10, 33960, Note_on_c, 10, 81, 117
10, 34020, Note_on_c, 10, 81, 0
10, 34020, Note_on_c, 10, 77, 117
10, 34065, Note_on_c, 10, 77, 0
10, 34080, Note_on_c, 10, 76, 117
10, 34200, Note_on_c, 10, 76, 0
10, 34200, Note_on_c, 10, 74, 117
10, 34320, Note_on_c, 10, 74, 0
10, 34440, Note_on_c, 10, 81, 117
10, 34500, Note_on_c, 10, 81, 0
10, 34500, Note_on_c, 10, 78, 117
10, 34545, Note_on_c, 10, 78, 0
10, 34560, Note_on_c, 10, 76, 117
10, 34680, Note_on_c, 10, 76, 0
10, 34680, Note_on_c, 10, 74, 117
10, 34800, Note_on_c, 10, 74, 0
10, 34920, Note_on_c, 10, 81, 117
10, 34980, Note_on_c, 10, 81, 0
10, 34980, Note_on_c, 10, 72, 117
10, 35025, Note_on_c, 10, 72, 0
10, 35040, Note_on_c, 10, 71, 117
10, 35145, Note_on_c, 10, 71, 0
10, 35160, Control_c, 10, 11, 102
10, 35160, Note_on_c, 10, 79, 100
10, 35340, Control_c, 10, 11, 102
10, 35347, Control_c, 10, 11, 99
10, 35355, Control_c, 10, 11, 96
10, 35363, Control_c, 10, 11, 93
10, 35371, Control_c, 10, 11, 90
10, 35381, Control_c, 10, 11, 87
10, 35385, Note_on_c, 10, 79, 0
10, 35389, Control_c, 10, 11, 84
10, 35397, Control_c, 10, 11, 81
10, 35400, Note_on_c, 10, 76, 100
10, 35405, Control_c, 10, 11, 78
10, 35412, Control_c, 10, 11, 75
10, 35423, Control_c, 10, 11, 72
10, 35431, Control_c, 10, 11, 69
10, 35438, Control_c, 10, 11, 66
10, 35446, Control_c, 10, 11, 63
10, 35457, Control_c, 10, 11, 60
10, 35464, Control_c, 10, 11, 57
10, 35472, Control_c, 10, 11, 54
10, 35480, Control_c, 10, 11, 51
10, 35488, Control_c, 10, 11, 48
10, 35505, Note_on_c, 10, 76, 0
10, 35520, Note_on_c, 10, 77, 100
10, 35580, Note_on_c, 10, 77, 0
10, 35640, Note_on_c, 10, 74, 100
10, 35700, Note_on_c, 10, 74, 0
10, 35760, Note_on_c, 10, 76, 100
10, 35820, Note_on_c, 10, 76, 0
10, 35880, Note_on_c, 10, 72, 100
10, 35940, Note_on_c, 10, 72, 0
10, 36000, Note_on_c, 10, 74, 100
10, 36060, Note_on_c, 10, 74, 0
10, 36120, Note_on_c, 10, 71, 100
10, 36180, Note_on_c, 10, 71, 0
10, 36240, Note_on_c, 10, 72, 100
10, 36300, Note_on_c, 10, 72, 0
10, 36360, Note_on_c, 10, 69, 100
10, 36420, Note_on_c, 10, 69, 0
10, 36480, Note_on_c, 10, 71, 100
10, 36540, Note_on_c, 10, 71, 0
10, 36600, Note_on_c, 10, 67, 100
10, 36660, Note_on_c, 10, 67, 0
10, 36720, Note_on_c, 10, 69, 100
10, 36780, Note_on_c, 10, 69, 0
10, 36840, Note_on_c, 10, 67, 100
10, 36900, Note_on_c, 10, 67, 0
10, 36960, Control_c, 10, 11, 47
10, 36960, Note_on_c, 10, 69, 100
10, 36993, Control_c, 10, 11, 48
10, 37020, Note_on_c, 10, 69, 0
10, 37027, Control_c, 10, 11, 49
10, 37061, Control_c, 10, 11, 50
10, 37080, Note_on_c, 10, 67, 101
10, 37095, Control_c, 10, 11, 51
10, 37129, Control_c, 10, 11, 52
10, 37140, Note_on_c, 10, 67, 0
10, 37162, Control_c, 10, 11, 53
10, 37196, Control_c, 10, 11, 54
10, 37200, Note_on_c, 10, 69, 102
10, 37230, Control_c, 10, 11, 55
10, 37260, Note_on_c, 10, 69, 0
10, 37264, Control_c, 10, 11, 56
10, 37298, Control_c, 10, 11, 57
10, 37320, Note_on_c, 10, 67, 103
10, 37332, Control_c, 10, 11, 58
10, 37365, Control_c, 10, 11, 59
10, 37380, Note_on_c, 10, 67, 0
10, 37399, Control_c, 10, 11, 60
10, 37433, Control_c, 10, 11, 61
10, 37440, Note_on_c, 10, 69, 104
10, 37467, Control_c, 10, 11, 62
10, 37500, Note_on_c, 10, 69, 0
10, 37501, Control_c, 10, 11, 63
10, 37534, Control_c, 10, 11, 64
10, 37560, Note_on_c, 10, 67, 105
10, 37568, Control_c, 10, 11, 65
10, 37602, Control_c, 10, 11, 66
10, 37620, Note_on_c, 10, 67, 0
10, 37636, Control_c, 10, 11, 67
10, 37670, Control_c, 10, 11, 68
10, 37680, Note_on_c, 10, 71, 106
10, 37704, Control_c, 10, 11, 69
10, 37737, Control_c, 10, 11, 70
10, 37740, Note_on_c, 10, 71, 0
10, 37771, Control_c, 10, 11, 71
10, 37800, Note_on_c, 10, 67, 107
10, 37805, Control_c, 10, 11, 72
10, 37839, Control_c, 10, 11, 73
10, 37860, Note_on_c, 10, 67, 0
10, 37873, Control_c, 10, 11, 74
10, 37906, Control_c, 10, 11, 75
10, 37920, Note_on_c, 10, 72, 108
10, 37940, Control_c, 10, 11, 76
10, 37974, Control_c, 10, 11, 77
10, 37980, Note_on_c, 10, 72, 0
10, 38008, Control_c, 10, 11, 78
10, 38040, Note_on_c, 10, 67, 109
10, 38042, Control_c, 10, 11, 79
10, 38076, Control_c, 10, 11, 80
10, 38100, Note_on_c, 10, 67, 0
10, 38109, Control_c, 10, 11, 81
10, 38143, Control_c, 10, 11, 82
10, 38160, Note_on_c, 10, 74, 110
10, 38177, Control_c, 10, 11, 83
10, 38211, Control_c, 10, 11, 84
10, 38220, Note_on_c, 10, 74, 0
10, 38245, Control_c, 10, 11, 85
10, 38278, Control_c, 10, 11, 86
10, 38280, Note_on_c, 10, 67, 111
10, 38312, Control_c, 10, 11, 87
10, 38340, Note_on_c, 10, 67, 0
10, 38346, Control_c, 10, 11, 88
10, 38380, Control_c, 10, 11, 89
10, 38400, Note_on_c, 10, 76, 112
10, 38414, Control_c, 10, 11, 90
10, 38448, Control_c, 10, 11, 91
10, 38460, Note_on_c, 10, 76, 0
10, 38481, Control_c, 10, 11, 92
10, 38515, Control_c, 10, 11, 93
10, 38520, Note_on_c, 10, 67, 113
10, 38549, Control_c, 10, 11, 94
10, 38580, Note_on_c, 10, 67, 0
10, 38583, Control_c, 10, 11, 95
10, 38617, Control_c, 10, 11, 96
10, 38640, Note_on_c, 10, 77, 114
10, 38650, Control_c, 10, 11, 97
10, 38684, Control_c, 10, 11, 98
10, 38700, Note_on_c, 10, 77, 0
10, 38718, Control_c, 10, 11, 99
10, 38752, Control_c, 10, 11, 100
10, 38786, Control_c, 10, 11, 101
10, 38820, Control_c, 10, 11, 102
10, 38820, Note_on_c, 10, 72, 116
10, 38880, Note_on_c, 10, 72, 0
10, 38880, Note_on_c, 10, 76, 117
10, 39000, Note_on_c, 10, 76, 0
10, 39060, Note_on_c, 10, 76, 117
10, 39120, Note_on_c, 10, 76, 0
10, 39120, Note_on_c, 10, 79, 117
10, 39240, Note_on_c, 10, 79, 0
10, 39300, Note_on_c, 10, 79, 117
10, 39360, Note_on_c, 10, 79, 0
10, 39360, Control_c, 10, 11, 112
10, 39360, Note_on_c, 10, 84, 117
10, 39383, Control_c, 10, 11, 110
10, 39407, Control_c, 10, 11, 108
10, 39431, Control_c, 10, 11, 106
10, 39455, Control_c, 10, 11, 104
10, 39479, Control_c, 10, 11, 102
10, 39705, Note_on_c, 10, 84, 0
10, 39720, Note_on_c, 10, 88, 117
10, 39840, Note_on_c, 10, 88, 0
10, 39840, Note_on_c, 10, 83, 113
10, 39960, Note_on_c, 10, 83, 0
10, 39960, Note_on_c, 10, 84, 108
10, 40080, Note_on_c, 10, 84, 0
10, 40080, Note_on_c, 10, 79, 104
10, 40200, Note_on_c, 10, 79, 0
10, 40200, Note_on_c, 10, 81, 99
10, 40305, Note_on_c, 10, 81, 0
10, 40320, Note_on_c, 10, 79, 125
10, 40340, Note_on_c, 10, 79, 0
10, 40340, Note_on_c, 10, 83, 125
10, 40360, Note_on_c, 10, 83, 0
10, 40360, Note_on_c, 10, 81, 117
10, 40440, Note_on_c, 10, 81, 0
10, 40440, Note_on_c, 10, 79, 117
10, 40560, Note_on_c, 10, 79, 0
10, 40560, Note_on_c, 10, 88, 127
10, 40680, Note_on_c, 10, 88, 0
10, 40680, Note_on_c, 10, 84, 122
10, 40800, Note_on_c, 10, 84, 0
10, 40800, Note_on_c, 10, 83, 117
10, 40920, Note_on_c, 10, 83, 0
10, 40920, Note_on_c, 10, 84, 111
10, 41040, Note_on_c, 10, 84, 0
10, 41040, Note_on_c, 10, 79, 105
10, 41160, Note_on_c, 10, 79, 0
10, 41160, Note_on_c, 10, 81, 99
10, 41265, Note_on_c, 10, 81, 0
10, 41280, Note_on_c, 10, 79, 125
10, 41300, Note_on_c, 10, 79, 0
10, 41300, Note_on_c, 10, 83, 125
10, 41320, Note_on_c, 10, 83, 0
10, 41320, Note_on_c, 10, 81, 117
10, 41400, Note_on_c, 10, 81, 0
10, 41400, Note_on_c, 10, 79, 117
10, 41505, Note_on_c, 10, 79, 0
10, 41520, Note_on_c, 10, 88, 127
10, 41640, Note_on_c, 10, 88, 0
10, 41640, Note_on_c, 10, 84, 119
10, 41760, Note_on_c, 10, 84, 0
10, 41760, Note_on_c, 10, 83, 109
10, 41880, Note_on_c, 10, 83, 0
10, 41880, Note_on_c, 10, 84, 99
10, 42105, Note_on_c, 10, 84, 0
10, 42120, Note_on_c, 10, 79, 127
10, 42180, Note_on_c, 10, 79, 0
10, 42180, Note_on_c, 10, 76, 126
10, 42225, Note_on_c, 10, 76, 0
10, 42240, Note_on_c, 10, 76, 117
10, 42360, Note_on_c, 10, 76, 0
10, 42360, Note_on_c, 10, 74, 117
10, 42480, Note_on_c, 10, 74, 0
10, 42600, Note_on_c, 10, 77, 127
10, 42660, Note_on_c, 10, 77, 0
10, 42660, Note_on_c, 10, 74, 126
10, 42705, Note_on_c, 10, 74, 0
10, 42720, Note_on_c, 10, 72, 117
10, 42840, Note_on_c, 10, 72, 0
10, 42840, Note_on_c, 10, 71, 117
10, 42960, Note_on_c, 10, 71, 0
10, 43080, Note_on_c, 10, 74, 127
10, 43140, Note_on_c, 10, 74, 0
10, 43140, Note_on_c, 10, 65, 126
10, 43185, Note_on_c, 10, 65, 0
10, 43200, Note_on_c, 10, 64, 125
10, 43230, Note_on_c, 10, 64, 0
10, 43230, Note_on_c, 10, 67, 125
10, 43260, Note_on_c, 10, 67, 0
10, 43260, Note_on_c, 10, 65, 117
10, 43320, Note_on_c, 10, 65, 0
10, 43320, Note_on_c, 10, 64, 117
10, 43440, Note_on_c, 10, 64, 0
10, 43560, Note_on_c, 10, 88, 127
10, 43620, Note_on_c, 10, 88, 0
10, 43620, Note_on_c, 10, 84, 126
10, 43680, Note_on_c, 10, 84, 0
10, 43680, Note_on_c, 10, 83, 117
10, 43740, Note_on_c, 10, 83, 0
10, 43740, Note_on_c, 10, 86, 117
10, 43785, Note_on_c, 10, 86, 0
10, 43800, Note_on_c, 10, 84, 117
10, 44020, Note_on_c, 10, 84, 0
10, 44040, Note_on_c, 10, 79, 127
10, 44100, Note_on_c, 10, 79, 0
10, 44100, Note_on_c, 10, 76, 126
10, 44145, Note_on_c, 10, 76, 0
10, 44160, Note_on_c, 10, 76, 117
10, 44280, Note_on_c, 10, 76, 0
10, 44280, Note_on_c, 10, 74, 117
10, 44400, Note_on_c, 10, 74, 0
10, 44520, Note_on_c, 10, 81, 127
10, 44580, Note_on_c, 10, 81, 0
10, 44580, Note_on_c, 10, 77, 126
10, 44625, Note_on_c, 10, 77, 0
10, 44640, Note_on_c, 10, 76, 117
10, 44760, Note_on_c, 10, 76, 0
10, 44760, Note_on_c, 10, 74, 117
10, 44880, Note_on_c, 10, 74, 0
10, 45000, Note_on_c, 10, 81, 127
10, 45060, Note_on_c, 10, 81, 0
10, 45060, Note_on_c, 10, 77, 126
10, 45105, Note_on_c, 10, 77, 0
10, 45120, Note_on_c, 10, 76, 117
10, 45240, Note_on_c, 10, 76, 0
10, 45240, Note_on_c, 10, 74, 117
10, 45360, Note_on_c, 10, 74, 0
10, 45480, Note_on_c, 10, 81, 127
10, 45540, Note_on_c, 10, 81, 0
10, 45540, Note_on_c, 10, 78, 126
10, 45585, Note_on_c, 10, 78, 0
10, 45600, Note_on_c, 10, 76, 117
10, 45720, Note_on_c, 10, 76, 0
10, 45720, Note_on_c, 10, 74, 117
10, 45840, Note_on_c, 10, 74, 0
10, 45960, Note_on_c, 10, 81, 127
10, 46020, Note_on_c, 10, 81, 0
10, 46020, Note_on_c, 10, 78, 126
10, 46065, Note_on_c, 10, 78, 0
10, 46080, Note_on_c, 10, 81, 100
10, 46170, Control_c, 10, 11, 102
10, 46172, Control_c, 10, 11, 99
10, 46175, Control_c, 10, 11, 96
10, 46177, Control_c, 10, 11, 93
10, 46180, Control_c, 10, 11, 90
10, 46183, Control_c, 10, 11, 86
10, 46185, Note_on_c, 10, 81, 0
10, 46186, Control_c, 10, 11, 83
10, 46189, Control_c, 10, 11, 79
10, 46192, Control_c, 10, 11, 76
10, 46195, Control_c, 10, 11, 72
10, 46198, Control_c, 10, 11, 69
10, 46200, Note_on_c, 10, 62, 100
10, 46212, Control_c, 10, 11, 66
10, 46236, Control_c, 10, 11, 64
10, 46260, Control_c, 10, 11, 62
10, 46284, Control_c, 10, 11, 60
10, 46308, Control_c, 10, 11, 58
10, 46332, Control_c, 10, 11, 56
10, 46356, Control_c, 10, 11, 54
10, 46380, Control_c, 10, 11, 52
10, 46404, Control_c, 10, 11, 50
10, 46428, Control_c, 10, 11, 48
10, 46430, Note_on_c, 10, 62, 0
10, 46440, Note_on_c, 10, 64, 100
10, 46670, Note_on_c, 10, 64, 0
10, 46680, Note_on_c, 10, 66, 100
10, 46910, Note_on_c, 10, 66, 0
10, 46920, Note_on_c, 10, 67, 100
10, 47030, Note_on_c, 10, 67, 0
10, 47040, Note_on_c, 10, 69, 100
10, 47870, Note_on_c, 10, 69, 0
10, 47880, Note_on_c, 10, 67, 100
10, 47920, Note_on_c, 10, 67, 0
10, 47920, Note_on_c, 10, 66, 100
10, 47960, Note_on_c, 10, 66, 0
10, 47960, Note_on_c, 10, 64, 100
10, 48000, Note_on_c, 10, 64, 0
10, 48000, Note_on_c, 10, 62, 100
10, 48110, Note_on_c, 10, 62, 0
10, 48120, Note_on_c, 10, 66, 100
10, 48350, Note_on_c, 10, 66, 0
10, 48360, Note_on_c, 10, 67, 100
10, 48590, Note_on_c, 10, 67, 0
10, 48600, Note_on_c, 10, 69, 100
10, 48830, Note_on_c, 10, 69, 0
10, 48840, Note_on_c, 10, 71, 100
10, 48950, Note_on_c, 10, 71, 0
10, 48960, Control_c, 10, 11, 62
10, 48960, Note_on_c, 10, 72, 100
10, 48992, Control_c, 10, 11, 61
10, 49024, Control_c, 10, 11, 60
10, 49056, Control_c, 10, 11, 59
10, 49088, Control_c, 10, 11, 58
10, 49120, Control_c, 10, 11, 57
10, 49152, Control_c, 10, 11, 56
10, 49184, Control_c, 10, 11, 55
10, 49216, Control_c, 10, 11, 54
10, 49248, Control_c, 10, 11, 53
10, 49280, Control_c, 10, 11, 52
10, 49312, Control_c, 10, 11, 51
10, 49344, Control_c, 10, 11, 50
10, 49376, Control_c, 10, 11, 49
10, 49408, Control_c, 10, 11, 48
10, 49440, Control_c, 10, 11, 47
10, 49790, Note_on_c, 10, 72, 0
10, 49800, Note_on_c, 10, 71, 100
10, 49840, Note_on_c, 10, 71, 0
10, 49840, Note_on_c, 10, 69, 100
10, 49880, Note_on_c, 10, 69, 0
10, 49880, Note_on_c, 10, 67, 100
10, 49920, Note_on_c, 10, 67, 0
10, 49920, Note_on_c, 10, 66, 114
10, 49980, Note_on_c, 10, 66, 0
10, 49980, Note_on_c, 10, 69, 85
10, 50040, Note_on_c, 10, 69, 0
10, 50040, Note_on_c, 10, 72, 85
10, 50100, Note_on_c, 10, 72, 0
10, 50100, Note_on_c, 10, 69, 85
10, 50160, Note_on_c, 10, 69, 0
10, 50160, Note_on_c, 10, 72, 85
10, 50220, Note_on_c, 10, 72, 0
10, 50220, Note_on_c, 10, 69, 85
10, 50280, Note_on_c, 10, 69, 0
10, 50280, Note_on_c, 10, 72, 85
10, 50340, Note_on_c, 10, 72, 0
10, 50340, Note_on_c, 10, 69, 85
10, 50390, Note_on_c, 10, 69, 0
10, 50400, Note_on_c, 10, 72, 85
10, 50460, Note_on_c, 10, 72, 0
10, 50460, Note_on_c, 10, 69, 85
10, 50520, Note_on_c, 10, 69, 0
10, 50520, Note_on_c, 10, 72, 85
10, 50580, Note_on_c, 10, 72, 0
10, 50580, Note_on_c, 10, 69, 85
10, 50640, Note_on_c, 10, 69, 0
10, 50640, Note_on_c, 10, 72, 85
10, 50700, Note_on_c, 10, 72, 0
10, 50700, Note_on_c, 10, 69, 85
10, 50760, Note_on_c, 10, 69, 0
10, 50760, Note_on_c, 10, 72, 85
10, 50820, Note_on_c, 10, 72, 0
10, 50820, Note_on_c, 10, 69, 85
10, 50870, Note_on_c, 10, 69, 0
10, 50880, Control_c, 10, 11, 62
10, 50880, Note_on_c, 10, 75, 85
10, 50912, Control_c, 10, 11, 61
10, 50940, Note_on_c, 10, 75, 0
10, 50940, Note_on_c, 10, 72, 85
10, 50944, Control_c, 10, 11, 60
10, 50976, Control_c, 10, 11, 59
10, 51000, Note_on_c, 10, 72, 0
10, 51000, Note_on_c, 10, 75, 85
10, 51008, Control_c, 10, 11, 58
10, 51040, Control_c, 10, 11, 57
10, 51060, Note_on_c, 10, 75, 0
10, 51060, Note_on_c, 10, 72, 85
10, 51072, Control_c, 10, 11, 56
10, 51104, Control_c, 10, 11, 55
10, 51120, Note_on_c, 10, 72, 0
10, 51120, Note_on_c, 10, 75, 85
10, 51136, Control_c, 10, 11, 54
10, 51168, Control_c, 10, 11, 53
10, 51180, Note_on_c, 10, 75, 0
10, 51180, Note_on_c, 10, 72, 85
10, 51200, Control_c, 10, 11, 52
10, 51232, Control_c, 10, 11, 51
10, 51240, Note_on_c, 10, 72, 0
10, 51240, Note_on_c, 10, 75, 85
10, 51264, Control_c, 10, 11, 50
10, 51296, Control_c, 10, 11, 49
10, 51300, Note_on_c, 10, 75, 0
10, 51300, Note_on_c, 10, 72, 85
10, 51328, Control_c, 10, 11, 48
10, 51350, Note_on_c, 10, 72, 0
10, 51360, Control_c, 10, 11, 47
10, 51360, Note_on_c, 10, 75, 85
10, 51420, Note_on_c, 10, 75, 0
10, 51420, Note_on_c, 10, 72, 85
10, 51480, Note_on_c, 10, 72, 0
10, 51480, Note_on_c, 10, 75, 85
10, 51540, Note_on_c, 10, 75, 0
10, 51540, Note_on_c, 10, 72, 85
10, 51600, Note_on_c, 10, 72, 0
10, 51600, Note_on_c, 10, 74, 85
10, 51660, Note_on_c, 10, 74, 0
10, 51660, Note_on_c, 10, 69, 85
10, 51720, Note_on_c, 10, 69, 0
10, 51720, Note_on_c, 10, 74, 85
10, 51780, Note_on_c, 10, 74, 0
10, 51780, Note_on_c, 10, 69, 85
10, 51830, Note_on_c, 10, 69, 0
10, 51840, Note_on_c, 10, 74, 85
10, 51900, Note_on_c, 10, 74, 0
10, 51900, Note_on_c, 10, 70, 85
10, 51960, Note_on_c, 10, 70, 0
10, 51960, Note_on_c, 10, 74, 85
10, 52020, Note_on_c, 10, 74, 0
10, 52020, Note_on_c, 10, 70, 85
10, 52080, Note_on_c, 10, 70, 0
10, 52080, Note_on_c, 10, 74, 85
10, 52130, Note_on_c, 10, 74, 0
10, 52140, Note_on_c, 10, 74, 85
10, 52170, Note_on_c, 10, 74, 0
10, 52200, Note_on_c, 10, 74, 85
10, 52230, Note_on_c, 10, 74, 0
10, 52260, Note_on_c, 10, 74, 85
10, 52290, Note_on_c, 10, 74, 0
10, 52320, Note_on_c, 10, 72, 85
10, 52380, Note_on_c, 10, 72, 0
10, 52380, Note_on_c, 10, 69, 85
10, 52440, Note_on_c, 10, 69, 0
10, 52440, Note_on_c, 10, 72, 85
10, 52500, Note_on_c, 10, 72, 0
10, 52500, Note_on_c, 10, 69, 85
10, 52560, Note_on_c, 10, 69, 0
10, 52560, Note_on_c, 10, 72, 85
10, 52610, Note_on_c, 10, 72, 0
10, 52620, Note_on_c, 10, 72, 85
10, 52650, Note_on_c, 10, 72, 0
10, 52680, Note_on_c, 10, 72, 85
10, 52710, Note_on_c, 10, 72, 0
10, 52740, Note_on_c, 10, 72, 85
10, 52770, Note_on_c, 10, 72, 0
10, 52800, Note_on_c, 10, 70, 85
10, 52860, Note_on_c, 10, 70, 0
10, 52860, Note_on_c, 10, 67, 85
10, 52920, Note_on_c, 10, 67, 0
10, 52920, Note_on_c, 10, 70, 85
10, 52980, Note_on_c, 10, 70, 0
10, 52980, Note_on_c, 10, 67, 85
10, 53040, Note_on_c, 10, 67, 0
10, 53040, Note_on_c, 10, 70, 85
10, 53090, Note_on_c, 10, 70, 0
10, 53100, Note_on_c, 10, 70, 85
10, 53130, Note_on_c, 10, 70, 0
10, 53160, Note_on_c, 10, 70, 85
10, 53190, Note_on_c, 10, 70, 0
10, 53220, Note_on_c, 10, 70, 85
10, 53250, Note_on_c, 10, 70, 0
10, 53280, Note_on_c, 10, 69, 85
10, 53340, Note_on_c, 10, 69, 0
10, 53340, Note_on_c, 10, 66, 85
10, 53400, Note_on_c, 10, 66, 0
10, 53400, Note_on_c, 10, 69, 85
10, 53460, Note_on_c, 10, 69, 0
10, 53460, Note_on_c, 10, 66, 85
10, 53510, Note_on_c, 10, 66, 0
10, 53520, Note_on_c, 10, 72, 85
10, 53580, Note_on_c, 10, 72, 0
10, 53580, Note_on_c, 10, 69, 85
10, 53640, Note_on_c, 10, 69, 0
10, 53640, Note_on_c, 10, 72, 85
10, 53700, Note_on_c, 10, 72, 0
10, 53700, Note_on_c, 10, 69, 85
10, 53750, Note_on_c, 10, 69, 0
10, 53760, Control_c, 10, 11, 62
10, 53760, Note_on_c, 10, 75, 85
10, 53792, Control_c, 10, 11, 61
10, 53820, Note_on_c, 10, 75, 0
10, 53820, Note_on_c, 10, 72, 85
10, 53824, Control_c, 10, 11, 60
10, 53856, Control_c, 10, 11, 59
10, 53880, Note_on_c, 10, 72, 0
10, 53880, Note_on_c, 10, 75, 85
10, 53888, Control_c, 10, 11, 58
10, 53920, Control_c, 10, 11, 57
10, 53940, Note_on_c, 10, 75, 0
10, 53940, Note_on_c, 10, 72, 85
10, 53952, Control_c, 10, 11, 56
10, 53984, Control_c, 10, 11, 55
10, 54000, Note_on_c, 10, 72, 0
10, 54000, Note_on_c, 10, 75, 85
10, 54016, Control_c, 10, 11, 54
10, 54048, Control_c, 10, 11, 53
10, 54060, Note_on_c, 10, 75, 0
10, 54060, Note_on_c, 10, 72, 85
10, 54080, Control_c, 10, 11, 52
10, 54112, Control_c, 10, 11, 51
10, 54120, Note_on_c, 10, 72, 0
10, 54120, Note_on_c, 10, 75, 85
10, 54144, Control_c, 10, 11, 50
10, 54176, Control_c, 10, 11, 49
10, 54180, Note_on_c, 10, 75, 0
10, 54180, Note_on_c, 10, 72, 85
10, 54208, Control_c, 10, 11, 48
10, 54230, Note_on_c, 10, 72, 0
10, 54240, Control_c, 10, 11, 47
10, 54240, Note_on_c, 10, 75, 85
10, 54300, Note_on_c, 10, 75, 0
10, 54300, Note_on_c, 10, 72, 85
10, 54360, Note_on_c, 10, 72, 0
10, 54360, Note_on_c, 10, 75, 85
10, 54420, Note_on_c, 10, 75, 0
10, 54420, Note_on_c, 10, 72, 85
10, 54470, Note_on_c, 10, 72, 0
10, 54480, Note_on_c, 10, 74, 85
10, 54540, Note_on_c, 10, 74, 0
10, 54540, Note_on_c, 10, 69, 85
10, 54600, Note_on_c, 10, 69, 0
10, 54600, Note_on_c, 10, 74, 85
10, 54660, Note_on_c, 10, 74, 0
10, 54660, Note_on_c, 10, 69, 85
10, 54710, Note_on_c, 10, 69, 0
10, 54720, Control_c, 10, 11, 47
10, 54720, Note_on_c, 10, 74, 85
10, 54768, Control_c, 10, 11, 48
10, 54780, Note_on_c, 10, 74, 0
10, 54780, Note_on_c, 10, 70, 85
10, 54816, Control_c, 10, 11, 49
10, 54840, Note_on_c, 10, 70, 0
10, 54840, Note_on_c, 10, 74, 85
10, 54864, Control_c, 10, 11, 50
10, 54900, Note_on_c, 10, 74, 0
10, 54900, Note_on_c, 10, 70, 85
10, 54912, Control_c, 10, 11, 51
10, 54960, Note_on_c, 10, 70, 0
10, 54960, Control_c, 10, 11, 52
10, 54960, Note_on_c, 10, 74, 85
10, 55008, Control_c, 10, 11, 53
10, 55010, Note_on_c, 10, 74, 0
10, 55020, Note_on_c, 10, 74, 85
10, 55050, Note_on_c, 10, 74, 0
10, 55056, Control_c, 10, 11, 54
10, 55080, Note_on_c, 10, 74, 85
10, 55104, Control_c, 10, 11, 55
10, 55110, Note_on_c, 10, 74, 0
10, 55140, Note_on_c, 10, 74, 85
10, 55152, Control_c, 10, 11, 56
10, 55170, Note_on_c, 10, 74, 0
10, 55200, Control_c, 10, 11, 57
10, 55200, Note_on_c, 10, 74, 85
10, 55248, Control_c, 10, 11, 58
10, 55260, Note_on_c, 10, 74, 0
10, 55260, Note_on_c, 10, 70, 85
10, 55296, Control_c, 10, 11, 59
10, 55320, Note_on_c, 10, 70, 0
10, 55320, Note_on_c, 10, 74, 85
10, 55344, Control_c, 10, 11, 60
10, 55380, Note_on_c, 10, 74, 0
10, 55380, Note_on_c, 10, 70, 85
10, 55392, Control_c, 10, 11, 61
10, 55440, Note_on_c, 10, 70, 0
10, 55440, Control_c, 10, 11, 62
10, 55440, Note_on_c, 10, 76, 85
10, 55488, Control_c, 10, 11, 63
10, 55490, Note_on_c, 10, 76, 0
10, 55500, Note_on_c, 10, 76, 85
10, 55530, Note_on_c, 10, 76, 0
10, 55536, Control_c, 10, 11, 64
10, 55560, Note_on_c, 10, 76, 85
10, 55584, Control_c, 10, 11, 65
10, 55590, Note_on_c, 10, 76, 0
10, 55620, Note_on_c, 10, 76, 85
10, 55632, Control_c, 10, 11, 66
10, 55650, Note_on_c, 10, 76, 0
10, 55680, Control_c, 10, 11, 67
10, 55680, Note_on_c, 10, 77, 85
10, 55728, Control_c, 10, 11, 68
10, 55740, Note_on_c, 10, 77, 0
10, 55740, Note_on_c, 10, 74, 85
10, 55776, Control_c, 10, 11, 69
10, 55800, Note_on_c, 10, 74, 0
10, 55800, Note_on_c, 10, 70, 85
10, 55824, Control_c, 10, 11, 70
10, 55860, Note_on_c, 10, 70, 0
10, 55860, Note_on_c, 10, 65, 85
10, 55872, Control_c, 10, 11, 71
10, 55920, Note_on_c, 10, 65, 0
10, 55920, Control_c, 10, 11, 72
10, 55920, Note_on_c, 10, 77, 85
10, 55968, Control_c, 10, 11, 73
10, 55970, Note_on_c, 10, 77, 0
10, 55980, Note_on_c, 10, 77, 85
10, 56010, Note_on_c, 10, 77, 0
10, 56016, Control_c, 10, 11, 74
10, 56040, Note_on_c, 10, 77, 85
10, 56064, Control_c, 10, 11, 75
10, 56070, Note_on_c, 10, 77, 0
10, 56100, Note_on_c, 10, 77, 85
10, 56112, Control_c, 10, 11, 76
10, 56130, Note_on_c, 10, 77, 0
10, 56160, Control_c, 10, 11, 77
10, 56160, Note_on_c, 10, 77, 85
10, 56208, Control_c, 10, 11, 78
10, 56220, Note_on_c, 10, 77, 0
10, 56220, Note_on_c, 10, 75, 85
10, 56256, Control_c, 10, 11, 79
10, 56280, Note_on_c, 10, 75, 0
10, 56280, Note_on_c, 10, 77, 85
10, 56304, Control_c, 10, 11, 80
10, 56340, Note_on_c, 10, 77, 0
10, 56340, Note_on_c, 10, 75, 85
10, 56352, Control_c, 10, 11, 81
10, 56390, Note_on_c, 10, 75, 0
10, 56400, Control_c, 10, 11, 82
10, 56400, Note_on_c, 10, 72, 85
10, 56448, Control_c, 10, 11, 83
10, 56450, Note_on_c, 10, 72, 0
10, 56460, Note_on_c, 10, 72, 85
10, 56496, Control_c, 10, 11, 84
10, 56510, Note_on_c, 10, 72, 0
10, 56520, Note_on_c, 10, 69, 85
10, 56544, Control_c, 10, 11, 85
10, 56570, Note_on_c, 10, 69, 0
10, 56580, Note_on_c, 10, 69, 85
10, 56592, Control_c, 10, 11, 86
10, 56630, Note_on_c, 10, 69, 0
10, 56640, Control_c, 10, 11, 87
10, 56640, Note_on_c, 10, 62, 75
10, 56640, Note_on_c, 10, 70, 75
10, 56760, Note_on_c, 10, 70, 0
10, 56760, Note_on_c, 10, 62, 0
10, 57240, Control_c, 10, 11, 47
10, 57240, Note_on_c, 10, 70, 100
10, 57300, Note_on_c, 10, 70, 0
10, 57360, Note_on_c, 10, 69, 100
10, 57420, Note_on_c, 10, 69, 0
10, 57480, Note_on_c, 10, 70, 100
10, 57540, Note_on_c, 10, 70, 0
10, 57600, Note_on_c, 10, 72, 100
10, 57720, Note_on_c, 10, 72, 0
10, 57720, Note_on_c, 10, 69, 100
10, 57830, Note_on_c, 10, 69, 0
10, 57840, Note_on_c, 10, 65, 100
10, 57900, Note_on_c, 10, 65, 0
10, 57960, Note_on_c, 10, 63, 100
10, 58020, Note_on_c, 10, 63, 0
10, 58080, Note_on_c, 10, 62, 100
10, 58140, Note_on_c, 10, 62, 0
10, 58200, Note_on_c, 10, 65, 100
10, 58260, Note_on_c, 10, 65, 0
10, 58320, Note_on_c, 10, 69, 100
10, 58380, Note_on_c, 10, 69, 0
10, 58440, Control_c, 10, 11, 47
10, 58440, Note_on_c, 10, 71, 100
10, 58449, Control_c, 10, 11, 50
10, 58458, Control_c, 10, 11, 53
10, 58467, Control_c, 10, 11, 56
10, 58476, Control_c, 10, 11, 59
10, 58485, Control_c, 10, 11, 62
10, 58494, Control_c, 10, 11, 65
10, 58500, Note_on_c, 10, 71, 0
10, 58503, Control_c, 10, 11, 68
10, 58512, Control_c, 10, 11, 71
10, 58521, Control_c, 10, 11, 74
10, 58530, Control_c, 10, 11, 77
10, 58539, Control_c, 10, 11, 80
10, 58548, Control_c, 10, 11, 83
10, 58557, Control_c, 10, 11, 86
10, 58560, Note_on_c, 10, 72, 100
10, 58620, Note_on_c, 10, 72, 0
10, 59160, Control_c, 10, 11, 47
10, 59160, Note_on_c, 10, 72, 100
10, 59220, Note_on_c, 10, 72, 0
10, 59280, Note_on_c, 10, 71, 100
10, 59340, Note_on_c, 10, 71, 0
10, 59400, Note_on_c, 10, 72, 100
10, 59460, Note_on_c, 10, 72, 0
10, 59520, Note_on_c, 10, 74, 100
10, 59640, Note_on_c, 10, 74, 0
10, 59640, Note_on_c, 10, 71, 100
10, 59750, Note_on_c, 10, 71, 0
10, 59760, Note_on_c, 10, 67, 100
10, 59820, Note_on_c, 10, 67, 0
10, 59880, Note_on_c, 10, 65, 100
10, 59940, Note_on_c, 10, 65, 0
10, 60000, Note_on_c, 10, 63, 100
10, 60060, Note_on_c, 10, 63, 0
10, 60120, Note_on_c, 10, 67, 100
10, 60180, Note_on_c, 10, 67, 0
10, 60240, Note_on_c, 10, 72, 100
10, 60300, Note_on_c, 10, 72, 0
10, 60360, Note_on_c, 10, 74, 100
10, 60420, Note_on_c, 10, 74, 0
10, 60480, Control_c, 10, 11, 72
10, 60480, Note_on_c, 10, 75, 100
10, 60483, Control_c, 10, 11, 75
10, 60486, Control_c, 10, 11, 78
10, 60489, Control_c, 10, 11, 81
10, 60505, Control_c, 10, 11, 79
10, 60522, Control_c, 10, 11, 77
10, 60538, Control_c, 10, 11, 75
10, 60555, Control_c, 10, 11, 73
10, 60571, Control_c, 10, 11, 71
10, 60588, Control_c, 10, 11, 69
10, 60600, Note_on_c, 10, 75, 0
10, 60600, Note_on_c, 10, 72, 100
10, 60604, Control_c, 10, 11, 67
10, 60621, Control_c, 10, 11, 65
10, 60637, Control_c, 10, 11, 63
10, 60710, Note_on_c, 10, 72, 0
10, 60720, Control_c, 10, 11, 49
10, 60720, Note_on_c, 10, 69, 100
10, 60780, Note_on_c, 10, 69, 0
10, 60840, Note_on_c, 10, 67, 100
10, 60900, Note_on_c, 10, 67, 0
10, 60960, Note_on_c, 10, 66, 100
10, 61020, Note_on_c, 10, 66, 0
10, 61080, Note_on_c, 10, 69, 100
10, 61140, Note_on_c, 10, 69, 0
10, 61200, Note_on_c, 10, 72, 100
10, 61260, Note_on_c, 10, 72, 0
10, 61320, Note_on_c, 10, 74, 100
10, 61380, Note_on_c, 10, 74, 0
10, 61440, Control_c, 10, 11, 72
10, 61440, Note_on_c, 10, 75, 100
10, 61443, Control_c, 10, 11, 75
10, 61446, Control_c, 10, 11, 78
10, 61449, Control_c, 10, 11, 81
10, 61465, Control_c, 10, 11, 79
10, 61482, Control_c, 10, 11, 77
10, 61498, Control_c, 10, 11, 75
10, 61500, Note_on_c, 10, 75, 0
10, 61515, Control_c, 10, 11, 73
10, 61531, Control_c, 10, 11, 71
10, 61548, Control_c, 10, 11, 69
10, 61560, Note_on_c, 10, 71, 100
10, 61564, Control_c, 10, 11, 67
10, 61581, Control_c, 10, 11, 65
10, 61597, Control_c, 10, 11, 63
10, 61680, Note_on_c, 10, 71, 0
10, 61680, Control_c, 10, 11, 49
10, 61680, Note_on_c, 10, 72, 100
10, 61800, Note_on_c, 10, 72, 0
10, 61800, Note_on_c, 10, 66, 100
10, 61910, Note_on_c, 10, 66, 0
10, 61920, Control_c, 10, 11, 72
10, 61920, Note_on_c, 10, 75, 100
10, 61923, Control_c, 10, 11, 75
10, 61926, Control_c, 10, 11, 78
10, 61929, Control_c, 10, 11, 81
10, 61945, Control_c, 10, 11, 79
10, 61962, Control_c, 10, 11, 77
10, 61978, Control_c, 10, 11, 75
10, 61980, Note_on_c, 10, 75, 0
10, 61995, Control_c, 10, 11, 73
10, 62011, Control_c, 10, 11, 71
10, 62028, Control_c, 10, 11, 69
10, 62040, Note_on_c, 10, 71, 100
10, 62044, Control_c, 10, 11, 67
10, 62061, Control_c, 10, 11, 65
10, 62077, Control_c, 10, 11, 63
10, 62160, Note_on_c, 10, 71, 0
10, 62160, Control_c, 10, 11, 49
10, 62160, Note_on_c, 10, 72, 100
10, 62280, Note_on_c, 10, 72, 0
10, 62280, Note_on_c, 10, 67, 100
10, 62390, Note_on_c, 10, 67, 0
10, 62400, Control_c, 10, 11, 72
10, 62400, Note_on_c, 10, 75, 100
10, 62403, Control_c, 10, 11, 75
10, 62406, Control_c, 10, 11, 78
10, 62409, Control_c, 10, 11, 81
10, 62425, Control_c, 10, 11, 79
10, 62442, Control_c, 10, 11, 77
10, 62458, Control_c, 10, 11, 75
10, 62460, Note_on_c, 10, 75, 0
10, 62475, Control_c, 10, 11, 73
10, 62491, Control_c, 10, 11, 71
10, 62508, Control_c, 10, 11, 69
10, 62520, Note_on_c, 10, 71, 100
10, 62524, Control_c, 10, 11, 67
10, 62541, Control_c, 10, 11, 65
10, 62557, Control_c, 10, 11, 63
10, 62640, Note_on_c, 10, 71, 0
10, 62640, Control_c, 10, 11, 49
10, 62640, Note_on_c, 10, 72, 100
10, 62760, Note_on_c, 10, 72, 0
10, 62760, Note_on_c, 10, 68, 100
10, 62870, Note_on_c, 10, 68, 0
10, 62880, Control_c, 10, 11, 72
10, 62880, Note_on_c, 10, 75, 100
10, 62883, Control_c, 10, 11, 75
10, 62886, Control_c, 10, 11, 78
10, 62889, Control_c, 10, 11, 81
10, 62905, Control_c, 10, 11, 79
10, 62922, Control_c, 10, 11, 77
10, 62938, Control_c, 10, 11, 75
10, 62940, Note_on_c, 10, 75, 0
10, 62955, Control_c, 10, 11, 73
10, 62971, Control_c, 10, 11, 71
10, 62988, Control_c, 10, 11, 69
10, 63000, Note_on_c, 10, 71, 100
10, 63004, Control_c, 10, 11, 67
10, 63021, Control_c, 10, 11, 65
10, 63037, Control_c, 10, 11, 63
10, 63120, Note_on_c, 10, 71, 0
10, 63120, Control_c, 10, 11, 49
10, 63120, Note_on_c, 10, 72, 100
10, 63240, Note_on_c, 10, 72, 0
10, 63240, Control_c, 10, 11, 47
10, 63240, Note_on_c, 10, 69, 100
10, 63251, Control_c, 10, 11, 50
10, 63263, Control_c, 10, 11, 53
10, 63275, Control_c, 10, 11, 56
10, 63287, Control_c, 10, 11, 59
10, 63299, Control_c, 10, 11, 62
10, 63311, Control_c, 10, 11, 65
10, 63323, Control_c, 10, 11, 68
10, 63335, Control_c, 10, 11, 71
10, 63347, Control_c, 10, 11, 74
10, 63350, Note_on_c, 10, 69, 0
10, 63359, Control_c, 10, 11, 77
10, 63360, Control_c, 10, 11, 87
10, 63360, Note_on_c, 10, 78, 127
10, 63405, Note_on_c, 10, 78, 0
10, 63420, Note_on_c, 10, 78, 127
10, 63465, Note_on_c, 10, 78, 0
10, 63480, Note_on_c, 10, 78, 127
10, 63525, Note_on_c, 10, 78, 0
10, 63540, Note_on_c, 10, 78, 127
10, 63585, Note_on_c, 10, 78, 0
10, 63600, Note_on_c, 10, 78, 127
10, 63645, Note_on_c, 10, 78, 0
10, 63660, Note_on_c, 10, 78, 127
10, 63705, Note_on_c, 10, 78, 0
10, 63720, Note_on_c, 10, 78, 127
10, 63765, Note_on_c, 10, 78, 0
10, 63780, Note_on_c, 10, 78, 127
10, 63825, Note_on_c, 10, 78, 0
10, 63840, Note_on_c, 10, 78, 127
10, 63885, Note_on_c, 10, 78, 0
10, 63900, Note_on_c, 10, 78, 127
10, 63945, Note_on_c, 10, 78, 0
10, 63960, Note_on_c, 10, 84, 127
10, 64005, Note_on_c, 10, 84, 0
10, 64020, Note_on_c, 10, 84, 127
10, 64065, Note_on_c, 10, 84, 0
10, 64080, Note_on_c, 10, 81, 127
10, 64125, Note_on_c, 10, 81, 0
10, 64140, Note_on_c, 10, 81, 127
10, 64185, Note_on_c, 10, 81, 0
10, 64200, Note_on_c, 10, 78, 127
10, 64245, Note_on_c, 10, 78, 0
10, 64260, Note_on_c, 10, 78, 127
10, 64305, Note_on_c, 10, 78, 0
10, 64320, Note_on_c, 10, 79, 127
10, 64365, Note_on_c, 10, 79, 0
10, 64380, Note_on_c, 10, 79, 127
10, 64425, Note_on_c, 10, 79, 0
10, 64440, Note_on_c, 10, 79, 127
10, 64485, Note_on_c, 10, 79, 0
10, 64500, Note_on_c, 10, 79, 127
10, 64545, Note_on_c, 10, 79, 0
10, 64560, Control_c, 10, 11, 87
10, 64560, Note_on_c, 10, 79, 127
10, 64605, Note_on_c, 10, 79, 0
10, 64620, Note_on_c, 10, 79, 127
10, 64649, Control_c, 10, 11, 88
10, 64665, Note_on_c, 10, 79, 0
10, 64680, Note_on_c, 10, 79, 127
10, 64725, Note_on_c, 10, 79, 0
10, 64739, Control_c, 10, 11, 89
10, 64740, Note_on_c, 10, 79, 127
10, 64785, Note_on_c, 10, 79, 0
10, 64800, Note_on_c, 10, 79, 127
10, 64829, Control_c, 10, 11, 90
10, 64845, Note_on_c, 10, 79, 0
10, 64860, Note_on_c, 10, 79, 127
10, 64905, Note_on_c, 10, 79, 0
10, 64919, Control_c, 10, 11, 91
10, 64920, Note_on_c, 10, 86, 127
10, 64965, Note_on_c, 10, 86, 0
10, 64980, Note_on_c, 10, 86, 127
10, 65009, Control_c, 10, 11, 92
10, 65025, Note_on_c, 10, 86, 0
10, 65040, Note_on_c, 10, 83, 127
10, 65085, Note_on_c, 10, 83, 0
10, 65099, Control_c, 10, 11, 93
10, 65100, Note_on_c, 10, 83, 127
10, 65145, Note_on_c, 10, 83, 0
10, 65160, Note_on_c, 10, 80, 127
10, 65189, Control_c, 10, 11, 94
10, 65205, Note_on_c, 10, 80, 0
10, 65220, Note_on_c, 10, 80, 127
10, 65265, Note_on_c, 10, 80, 0
10, 65279, Control_c, 10, 11, 95
10, 65280, Note_on_c, 10, 81, 127
10, 65325, Note_on_c, 10, 81, 0
10, 65340, Note_on_c, 10, 81, 127
10, 65385, Note_on_c, 10, 81, 0
10, 65400, Note_on_c, 10, 81, 127
10, 65445, Note_on_c, 10, 81, 0
10, 65460, Note_on_c, 10, 81, 127
10, 65505, Note_on_c, 10, 81, 0
10, 65520, Note_on_c, 10, 81, 127
10, 65565, Note_on_c, 10, 81, 0
10, 65580, Note_on_c, 10, 81, 127
10, 65625, Note_on_c, 10, 81, 0
10, 65640, Note_on_c, 10, 81, 127
10, 65685, Note_on_c, 10, 81, 0
10, 65700, Note_on_c, 10, 81, 127
10, 65745, Note_on_c, 10, 81, 0
10, 65760, Note_on_c, 10, 83, 127
10, 65805, Note_on_c, 10, 83, 0
10, 65820, Note_on_c, 10, 83, 127
10, 65865, Note_on_c, 10, 83, 0
10, 65880, Note_on_c, 10, 83, 127
10, 65925, Note_on_c, 10, 83, 0
10, 65940, Note_on_c, 10, 83, 127
10, 65985, Note_on_c, 10, 83, 0
10, 66000, Note_on_c, 10, 83, 127
10, 66045, Note_on_c, 10, 83, 0
10, 66060, Note_on_c, 10, 83, 127
10, 66105, Note_on_c, 10, 83, 0
10, 66120, Note_on_c, 10, 83, 127
10, 66165, Note_on_c, 10, 83, 0
10, 66180, Note_on_c, 10, 83, 127
10, 66225, Note_on_c, 10, 83, 0
10, 66240, Note_on_c, 10, 84, 127
10, 66285, Note_on_c, 10, 84, 0
10, 66300, Note_on_c, 10, 84, 127
10, 66345, Note_on_c, 10, 84, 0
10, 66360, Note_on_c, 10, 84, 127
10, 66405, Note_on_c, 10, 84, 0
10, 66420, Note_on_c, 10, 84, 127
10, 66465, Note_on_c, 10, 84, 0
10, 66480, Note_on_c, 10, 84, 127
10, 66525, Note_on_c, 10, 84, 0
10, 66540, Note_on_c, 10, 84, 127
10, 66585, Note_on_c, 10, 84, 0
10, 66600, Note_on_c, 10, 84, 127
10, 66645, Note_on_c, 10, 84, 0
10, 66660, Note_on_c, 10, 84, 127
10, 66705, Note_on_c, 10, 84, 0
10, 66720, Note_on_c, 10, 86, 127
10, 66765, Note_on_c, 10, 86, 0
10, 66780, Note_on_c, 10, 86, 127
10, 66825, Note_on_c, 10, 86, 0
10, 66840, Note_on_c, 10, 86, 127
10, 66885, Note_on_c, 10, 86, 0
10, 66900, Note_on_c, 10, 86, 126
10, 66945, Note_on_c, 10, 86, 0
10, 66960, Note_on_c, 10, 86, 126
10, 67005, Note_on_c, 10, 86, 0
10, 67020, Note_on_c, 10, 86, 126
10, 67065, Note_on_c, 10, 86, 0
10, 67080, Note_on_c, 10, 86, 125
10, 67125, Note_on_c, 10, 86, 0
10, 67140, Note_on_c, 10, 86, 125
10, 67185, Note_on_c, 10, 86, 0
10, 67200, Note_on_c, 10, 88, 124
10, 67245, Note_on_c, 10, 88, 0
10, 67260, Note_on_c, 10, 88, 124
10, 67305, Note_on_c, 10, 88, 0
10, 67320, Note_on_c, 10, 88, 124
10, 67365, Note_on_c, 10, 88, 0
10, 67380, Note_on_c, 10, 88, 122
10, 67425, Note_on_c, 10, 88, 0
10, 67440, Note_on_c, 10, 88, 122
10, 67485, Note_on_c, 10, 88, 0
10, 67500, Note_on_c, 10, 88, 122
10, 67545, Note_on_c, 10, 88, 0
10, 67560, Note_on_c, 10, 88, 121
10, 67605, Note_on_c, 10, 88, 0
10, 67620, Note_on_c, 10, 88, 121
10, 67665, Note_on_c, 10, 88, 0
10, 67680, Note_on_c, 10, 90, 120
10, 67725, Note_on_c, 10, 90, 0
10, 67740, Note_on_c, 10, 90, 120
10, 67785, Note_on_c, 10, 90, 0
10, 67800, Note_on_c, 10, 90, 120
10, 67845, Note_on_c, 10, 90, 0
10, 67860, Note_on_c, 10, 90, 119
10, 67905, Note_on_c, 10, 90, 0
10, 67920, Note_on_c, 10, 90, 119
10, 67965, Note_on_c, 10, 90, 0
10, 67980, Note_on_c, 10, 90, 119
10, 68025, Note_on_c, 10, 90, 0
10, 68040, Note_on_c, 10, 90, 118
10, 68085, Note_on_c, 10, 90, 0
10, 68100, Note_on_c, 10, 90, 118
10, 68145, Note_on_c, 10, 90, 0
10, 68160, Control_c, 10, 11, 112
10, 68160, Note_on_c, 10, 91, 100
10, 68178, Control_c, 10, 11, 109
10, 68196, Control_c, 10, 11, 106
10, 68214, Control_c, 10, 11, 103
10, 68505, Note_on_c, 10, 91, 0
10, 68520, Note_on_c, 10, 91, 100
10, 68580, Note_on_c, 10, 91, 0
10, 68640, Note_on_c, 10, 90, 100
10, 68760, Note_on_c, 10, 90, 0
10, 68760, Note_on_c, 10, 91, 100
10, 68860, Note_on_c, 10, 91, 0
10, 68880, Note_on_c, 10, 86, 100
10, 68940, Note_on_c, 10, 86, 0
10, 69000, Note_on_c, 10, 88, 100
10, 69060, Note_on_c, 10, 88, 0
10, 69120, Note_on_c, 10, 88, 107
10, 69240, Note_on_c, 10, 88, 0
10, 69240, Note_on_c, 10, 86, 100
10, 69340, Note_on_c, 10, 86, 0
10, 69360, Note_on_c, 10, 91, 100
10, 69420, Note_on_c, 10, 91, 0
10, 69480, Note_on_c, 10, 91, 100
10, 69540, Note_on_c, 10, 91, 0
10, 69600, Note_on_c, 10, 90, 107
10, 69720, Note_on_c, 10, 90, 0
10, 69720, Note_on_c, 10, 91, 100
10, 69820, Note_on_c, 10, 91, 0
10, 69840, Note_on_c, 10, 86, 100
10, 69900, Note_on_c, 10, 86, 0
10, 69960, Note_on_c, 10, 88, 100
10, 70020, Note_on_c, 10, 88, 0
10, 70080, Note_on_c, 10, 88, 107
10, 70140, Note_on_c, 10, 88, 0
10, 70200, Note_on_c, 10, 86, 100
10, 70430, Note_on_c, 10, 86, 0
10, 70440, Note_on_c, 10, 86, 100
10, 70500, Note_on_c, 10, 86, 0
10, 70560, Note_on_c, 10, 84, 107
10, 70620, Note_on_c, 10, 84, 0
10, 70680, Note_on_c, 10, 83, 100
10, 70910, Note_on_c, 10, 83, 0
10, 70920, Note_on_c, 10, 83, 100
10, 70980, Note_on_c, 10, 83, 0
10, 71040, Note_on_c, 10, 81, 107
10, 71100, Note_on_c, 10, 81, 0
10, 71160, Note_on_c, 10, 79, 100
10, 71390, Note_on_c, 10, 79, 0
10, 71400, Note_on_c, 10, 78, 100
10, 71520, Note_on_c, 10, 78, 0
10, 71520, Note_on_c, 10, 76, 100
10, 71640, Note_on_c, 10, 76, 0
10, 71640, Note_on_c, 10, 74, 100
10, 71760, Note_on_c, 10, 74, 0
10, 71760, Note_on_c, 10, 72, 100
10, 71880, Note_on_c, 10, 72, 0
10, 71880, Note_on_c, 10, 71, 100
10, 71990, Note_on_c, 10, 71, 0
10, 72000, Note_on_c, 10, 69, 100
10, 72110, Note_on_c, 10, 69, 0
10, 72120, Note_on_c, 10, 69, 100
10, 72350, Note_on_c, 10, 69, 0
10, 72360, Note_on_c, 10, 69, 100
10, 72590, Note_on_c, 10, 69, 0
10, 72600, Note_on_c, 10, 69, 100
10, 72830, Note_on_c, 10, 69, 0
10, 72840, Note_on_c, 10, 69, 100
10, 73070, Note_on_c, 10, 69, 0
10, 73080, Note_on_c, 10, 69, 100
10, 73310, Note_on_c, 10, 69, 0
10, 73320, Control_c, 10, 11, 122
10, 73320, Note_on_c, 10, 75, 100
10, 73338, Control_c, 10, 11, 119
10, 73356, Control_c, 10, 11, 116
10, 73374, Control_c, 10, 11, 113
10, 73392, Control_c, 10, 11, 110
10, 73410, Control_c, 10, 11, 107
10, 73428, Control_c, 10, 11, 104
10, 73440, Note_on_c, 10, 75, 0
10, 73440, Note_on_c, 10, 76, 100
10, 73545, Note_on_c, 10, 76, 0
10, 73560, Note_on_c, 10, 71, 100
10, 73680, Note_on_c, 10, 71, 0
10, 73680, Note_on_c, 10, 72, 100
10, 73785, Note_on_c, 10, 72, 0
10, 73800, Note_on_c, 10, 69, 100
10, 73840, Control_c, 10, 11, 102
10, 73846, Control_c, 10, 11, 99
10, 73853, Control_c, 10, 11, 96
10, 73860, Control_c, 10, 11, 93
10, 73867, Control_c, 10, 11, 90
10, 73873, Control_c, 10, 11, 87
10, 73880, Control_c, 10, 11, 84
10, 73887, Control_c, 10, 11, 81
10, 73894, Control_c, 10, 11, 78
10, 73900, Control_c, 10, 11, 75
10, 73907, Control_c, 10, 11, 72
10, 73914, Control_c, 10, 11, 69
10, 73920, Note_on_c, 10, 69, 0
10, 74040, Control_c, 10, 11, 47
10, 74040, Note_on_c, 10, 67, 100
10, 74136, Note_on_c, 10, 67, 0
10, 74280, Note_on_c, 10, 67, 100
10, 74376, Note_on_c, 10, 67, 0
10, 74520, Note_on_c, 10, 67, 100
10, 74616, Note_on_c, 10, 67, 0
10, 74760, Note_on_c, 10, 66, 100
10, 74870, Note_on_c, 10, 66, 0
10, 74880, Control_c, 10, 11, 87
10, 74880, Note_on_c, 10, 69, 100
10, 74990, Note_on_c, 10, 69, 0
10, 75000, Note_on_c, 10, 69, 100
10, 75230, Note_on_c, 10, 69, 0
10, 75240, Note_on_c, 10, 69, 100
10, 75470, Note_on_c, 10, 69, 0
10, 75480, Note_on_c, 10, 69, 100
10, 75710, Note_on_c, 10, 69, 0
10, 75720, Note_on_c, 10, 69, 100
10, 75950, Note_on_c, 10, 69, 0
10, 75960, Note_on_c, 10, 69, 100
10, 76190, Note_on_c, 10, 69, 0
10, 76200, Note_on_c, 10, 75, 100
10, 76320, Note_on_c, 10, 75, 0
10, 76320, Note_on_c, 10, 76, 100
10, 76425, Note_on_c, 10, 76, 0
10, 76440, Note_on_c, 10, 71, 100
10, 76560, Note_on_c, 10, 71, 0
10, 76560, Note_on_c, 10, 72, 100
10, 76680, Note_on_c, 10, 72, 0
10, 76680, Note_on_c, 10, 69, 100
10, 76785, Note_on_c, 10, 69, 0
10, 76790, Note_on_c, 10, 61, 127
10, 76800, Control_c, 10, 11, 107
10, 76817, Control_c, 10, 11, 104
10, 76820, Note_on_c, 10, 61, 0
10, 76820, Note_on_c, 10, 64, 127
10, 76835, Control_c, 10, 11, 101
10, 76850, Note_on_c, 10, 64, 0
10, 76850, Note_on_c, 10, 69, 100
10, 76853, Control_c, 10, 11, 98
10, 76871, Control_c, 10, 11, 95
10, 76889, Control_c, 10, 11, 92
10, 76907, Control_c, 10, 11, 89
10, 77150, Note_on_c, 10, 69, 0
10, 77160, Control_c, 10, 11, 107
10, 77160, Note_on_c, 10, 78, 100
10, 77178, Control_c, 10, 11, 104
10, 77196, Control_c, 10, 11, 101
10, 77214, Control_c, 10, 11, 98
10, 77232, Control_c, 10, 11, 95
10, 77250, Control_c, 10, 11, 92
10, 77268, Control_c, 10, 11, 89
10, 77280, Note_on_c, 10, 78, 0
10, 77280, Note_on_c, 10, 79, 100
10, 77385, Note_on_c, 10, 79, 0
10, 77400, Note_on_c, 10, 75, 100
10, 77520, Note_on_c, 10, 75, 0
10, 77520, Note_on_c, 10, 76, 100
10, 77640, Note_on_c, 10, 76, 0
10, 77640, Note_on_c, 10, 69, 100
10, 77745, Note_on_c, 10, 69, 0
10, 77750, Note_on_c, 10, 62, 127
10, 77760, Control_c, 10, 11, 107
10, 77777, Control_c, 10, 11, 104
10, 77780, Note_on_c, 10, 62, 0
10, 77780, Note_on_c, 10, 67, 127
10, 77795, Control_c, 10, 11, 101
10, 77810, Note_on_c, 10, 67, 0
10, 77810, Note_on_c, 10, 71, 100
10, 77813, Control_c, 10, 11, 98
10, 77831, Control_c, 10, 11, 95
10, 77849, Control_c, 10, 11, 92
10, 77867, Control_c, 10, 11, 89
10, 78110, Note_on_c, 10, 71, 0
10, 78120, Control_c, 10, 11, 107
10, 78120, Note_on_c, 10, 82, 100
10, 78138, Control_c, 10, 11, 104
10, 78156, Control_c, 10, 11, 101
10, 78174, Control_c, 10, 11, 98
10, 78192, Control_c, 10, 11, 95
10, 78210, Control_c, 10, 11, 92
10, 78228, Control_c, 10, 11, 89
10, 78240, Note_on_c, 10, 82, 0
10, 78240, Note_on_c, 10, 83, 100
10, 78345, Note_on_c, 10, 83, 0
10, 78360, Note_on_c, 10, 78, 100
10, 78420, Note_on_c, 10, 78, 0
10, 78480, Note_on_c, 10, 79, 100
10, 78540, Note_on_c, 10, 79, 0
10, 78600, Control_c, 10, 11, 107
10, 78600, Note_on_c, 10, 73, 100
10, 78618, Control_c, 10, 11, 104
10, 78636, Control_c, 10, 11, 101
10, 78654, Control_c, 10, 11, 98
10, 78672, Control_c, 10, 11, 95
10, 78690, Control_c, 10, 11, 92
10, 78708, Control_c, 10, 11, 89
10, 78720, Note_on_c, 10, 73, 0
10, 78720, Note_on_c, 10, 74, 100
10, 78825, Note_on_c, 10, 74, 0
10, 78840, Note_on_c, 10, 70, 100
10, 78900, Note_on_c, 10, 70, 0
10, 78960, Note_on_c, 10, 71, 100
10, 79020, Note_on_c, 10, 71, 0
10, 79080, Control_c, 10, 11, 107
10, 79080, Note_on_c, 10, 66, 100
10, 79097, Control_c, 10, 11, 104
10, 79115, Control_c, 10, 11, 101
10, 79133, Control_c, 10, 11, 98
10, 79151, Control_c, 10, 11, 95
10, 79169, Control_c, 10, 11, 92
10, 79187, Control_c, 10, 11, 89
10, 79200, Note_on_c, 10, 66, 0
10, 79200, Note_on_c, 10, 67, 100
10, 79305, Note_on_c, 10, 67, 0
10, 79320, Note_on_c, 10, 61, 100
10, 79380, Note_on_c, 10, 61, 0
10, 79440, Note_on_c, 10, 62, 100
10, 79500, Note_on_c, 10, 62, 0
10, 79560, Note_on_c, 10, 58, 100
10, 79620, Note_on_c, 10, 58, 0
10, 79680, Note_on_c, 10, 59, 117
10, 79740, Note_on_c, 10, 59, 0
10, 79800, Note_on_c, 10, 58, 117
10, 79860, Note_on_c, 10, 58, 0
10, 79920, Note_on_c, 10, 59, 117
10, 79980, Note_on_c, 10, 59, 0
10, 80040, Note_on_c, 10, 60, 117
10, 80100, Note_on_c, 10, 60, 0
10, 80160, Note_on_c, 10, 61, 117
10, 80220, Note_on_c, 10, 61, 0
10, 80280, Note_on_c, 10, 62, 117
10, 80340, Note_on_c, 10, 62, 0
10, 80400, Note_on_c, 10, 63, 117
10, 80460, Note_on_c, 10, 63, 0
10, 80520, Note_on_c, 10, 64, 117
10, 80580, Note_on_c, 10, 64, 0
10, 80640, Note_on_c, 10, 65, 117
10, 80700, Note_on_c, 10, 65, 0
10, 80760, Note_on_c, 10, 66, 117
10, 80820, Note_on_c, 10, 66, 0
10, 80880, Note_on_c, 10, 67, 117
10, 80940, Note_on_c, 10, 67, 0
10, 81000, Note_on_c, 10, 61, 117
10, 81060, Note_on_c, 10, 61, 0
10, 81120, Note_on_c, 10, 62, 117
10, 81180, Note_on_c, 10, 62, 0
10, 81240, Note_on_c, 10, 61, 117
10, 81300, Note_on_c, 10, 61, 0
10, 81360, Note_on_c, 10, 62, 117
10, 81420, Note_on_c, 10, 62, 0
10, 81480, Note_on_c, 10, 62, 117
10, 81540, Note_on_c, 10, 62, 0
10, 81600, Note_on_c, 10, 55, 100
10, 81720, Note_on_c, 10, 55, 0
10, 83400, Control_c, 10, 11, 47
10, 83400, Note_on_c, 10, 83, 80
10, 83460, Note_on_c, 10, 83, 0
10, 83520, Note_on_c, 10, 81, 100
10, 83536, Control_c, 10, 11, 46
10, 83640, Note_on_c, 10, 81, 0
10, 83640, Note_on_c, 10, 79, 100
10, 83672, Control_c, 10, 11, 45
10, 83760, Note_on_c, 10, 79, 0
10, 83808, Control_c, 10, 11, 44
10, 83880, Note_on_c, 10, 79, 80
10, 83940, Note_on_c, 10, 79, 0
10, 83944, Control_c, 10, 11, 43
10, 84000, Note_on_c, 10, 76, 100
10, 84080, Control_c, 10, 11, 42
10, 84120, Note_on_c, 10, 76, 0
10, 84120, Note_on_c, 10, 74, 100
10, 84216, Control_c, 10, 11, 41
10, 84240, Note_on_c, 10, 74, 0
10, 84352, Control_c, 10, 11, 40
10, 84360, Note_on_c, 10, 74, 80
10, 84420, Note_on_c, 10, 74, 0
10, 84480, Note_on_c, 10, 72, 100
10, 84488, Control_c, 10, 11, 39
10, 84600, Note_on_c, 10, 72, 0
10, 84600, Note_on_c, 10, 71, 100
10, 84624, Control_c, 10, 11, 38
10, 84720, Note_on_c, 10, 71, 0
10, 84760, Control_c, 10, 11, 37
10, 84840, Note_on_c, 10, 71, 80
10, 84896, Control_c, 10, 11, 36
10, 84900, Note_on_c, 10, 71, 0
10, 84960, Note_on_c, 10, 72, 100
10, 85032, Control_c, 10, 11, 35
10, 85080, Note_on_c, 10, 72, 0
10, 85080, Note_on_c, 10, 71, 100
10, 85168, Control_c, 10, 11, 34
10, 85200, Note_on_c, 10, 71, 0
10, 85304, Control_c, 10, 11, 33
10, 85320, Note_on_c, 10, 71, 80
10, 85380, Note_on_c, 10, 71, 0
10, 85440, Control_c, 10, 11, 32
10, 85440, Note_on_c, 10, 69, 100
10, 85560, Note_on_c, 10, 69, 0
10, 85560, Note_on_c, 10, 67, 100
10, 85840, Control_c, 10, 11, 32
10, 85853, Control_c, 10, 11, 29
10, 85867, Control_c, 10, 11, 26
10, 85880, Control_c, 10, 11, 23
10, 85885, Note_on_c, 10, 67, 0
10, 85920, Control_c, 10, 11, 67
10, 85920, Note_on_c, 10, 56, 100
10, 85922, Control_c, 10, 11, 70
10, 85925, Control_c, 10, 11, 73
10, 85927, Control_c, 10, 11, 76
10, 85930, Control_c, 10, 11, 79
10, 85933, Control_c, 10, 11, 83
10, 85936, Control_c, 10, 11, 86
10, 85939, Control_c, 10, 11, 90
10, 85942, Control_c, 10, 11, 93
10, 85945, Control_c, 10, 11, 97
10, 85948, Control_c, 10, 11, 100
10, 86310, Control_c, 10, 11, 102
10, 86313, Control_c, 10, 11, 99
10, 86316, Control_c, 10, 11, 96
10, 86320, Control_c, 10, 11, 93
10, 86323, Control_c, 10, 11, 90
10, 86327, Control_c, 10, 11, 87
10, 86330, Control_c, 10, 11, 84
10, 86334, Control_c, 10, 11, 81
10, 86337, Control_c, 10, 11, 78
10, 86340, Control_c, 10, 11, 75
10, 86344, Control_c, 10, 11, 72
10, 86347, Control_c, 10, 11, 69
10, 86350, Note_on_c, 10, 56, 0
10, 86400, Control_c, 10, 11, 67
10, 86400, Note_on_c, 10, 58, 100
10, 86402, Control_c, 10, 11, 70
10, 86405, Control_c, 10, 11, 73
10, 86407, Control_c, 10, 11, 76
10, 86410, Control_c, 10, 11, 79
10, 86413, Control_c, 10, 11, 83
10, 86416, Control_c, 10, 11, 86
10, 86419, Control_c, 10, 11, 90
10, 86422, Control_c, 10, 11, 93
10, 86425, Control_c, 10, 11, 97
10, 86428, Control_c, 10, 11, 100
10, 86790, Control_c, 10, 11, 102
10, 86793, Control_c, 10, 11, 99
10, 86796, Control_c, 10, 11, 96
10, 86800, Control_c, 10, 11, 93
10, 86803, Control_c, 10, 11, 90
10, 86807, Control_c, 10, 11, 87
10, 86810, Control_c, 10, 11, 84
10, 86814, Control_c, 10, 11, 81
10, 86817, Control_c, 10, 11, 78
10, 86820, Control_c, 10, 11, 75
10, 86824, Control_c, 10, 11, 72
10, 86827, Control_c, 10, 11, 69
10, 86830, Note_on_c, 10, 58, 0
10, 86879, Program_c, 10, 45
10, 86880, Note_on_c, 10, 63, 54
10, 87000, Note_on_c, 10, 63, 0
10, 88739, Program_c, 10, 48
10, 88740, Control_c, 10, 11, 32
10, 88740, Note_on_c, 10, 75, 60
10, 88743, Control_c, 10, 11, 35
10, 88746, Control_c, 10, 11, 38
10, 88749, Control_c, 10, 11, 41
10, 88753, Control_c, 10, 11, 44
10, 88756, Control_c, 10, 11, 47
10, 88759, Control_c, 10, 11, 50
10, 88762, Control_c, 10, 11, 53
10, 88785, Note_on_c, 10, 75, 0
10, 88788, Control_c, 10, 11, 56
10, 88800, Note_on_c, 10, 75, 66
10, 88812, Control_c, 10, 11, 58
10, 88836, Control_c, 10, 11, 60
10, 88845, Note_on_c, 10, 75, 0
10, 88860, Control_c, 10, 11, 62
10, 88860, Note_on_c, 10, 75, 72
10, 88884, Control_c, 10, 11, 64
10, 88905, Note_on_c, 10, 75, 0
10, 88908, Control_c, 10, 11, 66
10, 88920, Note_on_c, 10, 75, 80
10, 88932, Control_c, 10, 11, 68
10, 88956, Control_c, 10, 11, 70
10, 88970, Control_c, 10, 11, 66
10, 88971, Control_c, 10, 11, 63
10, 88973, Control_c, 10, 11, 58
10, 88975, Control_c, 10, 11, 54
10, 88976, Control_c, 10, 11, 51
10, 88978, Control_c, 10, 11, 46
10, 88980, Note_on_c, 10, 75, 0
10, 88980, Control_c, 10, 11, 42
10, 88980, Note_on_c, 10, 74, 80
10, 89035, Note_on_c, 10, 74, 0
10, 89040, Note_on_c, 10, 75, 70
10, 89048, Note_on_c, 10, 75, 0
10, 89055, Note_on_c, 10, 75, 50
10, 89070, Note_on_c, 10, 75, 0
10, 89070, Note_on_c, 10, 70, 50
10, 89085, Note_on_c, 10, 70, 0
10, 89085, Note_on_c, 10, 75, 51
10, 89100, Note_on_c, 10, 75, 0
10, 89100, Note_on_c, 10, 79, 52
10, 89115, Note_on_c, 10, 79, 0
10, 89115, Note_on_c, 10, 75, 52
10, 89130, Note_on_c, 10, 75, 0
10, 89130, Note_on_c, 10, 70, 53
10, 89145, Note_on_c, 10, 70, 0
10, 89145, Note_on_c, 10, 75, 54
10, 89155, Note_on_c, 10, 75, 0
10, 89160, Note_on_c, 10, 67, 54
10, 89175, Note_on_c, 10, 67, 0
10, 89175, Note_on_c, 10, 75, 55
10, 89190, Note_on_c, 10, 75, 0
10, 89190, Note_on_c, 10, 70, 56
10, 89205, Note_on_c, 10, 70, 0
10, 89205, Note_on_c, 10, 75, 56
10, 89220, Note_on_c, 10, 75, 0
10, 89220, Note_on_c, 10, 79, 57
10, 89235, Note_on_c, 10, 79, 0
10, 89235, Note_on_c, 10, 75, 58
10, 89250, Note_on_c, 10, 75, 0
10, 89250, Note_on_c, 10, 70, 58
10, 89265, Note_on_c, 10, 70, 0
10, 89265, Note_on_c, 10, 67, 59
10, 89275, Note_on_c, 10, 67, 0
10, 89280, Note_on_c, 10, 68, 60
10, 89295, Note_on_c, 10, 68, 0
10, 89295, Note_on_c, 10, 74, 60
10, 89310, Note_on_c, 10, 74, 0
10, 89310, Note_on_c, 10, 70, 60
10, 89325, Note_on_c, 10, 70, 0
10, 89325, Note_on_c, 10, 74, 60
10, 89340, Note_on_c, 10, 74, 0
10, 89340, Note_on_c, 10, 77, 60
10, 89355, Note_on_c, 10, 77, 0
10, 89355, Note_on_c, 10, 74, 60
10, 89370, Note_on_c, 10, 74, 0
10, 89370, Note_on_c, 10, 70, 60
10, 89385, Note_on_c, 10, 70, 0
10, 89385, Note_on_c, 10, 68, 60
10, 89395, Note_on_c, 10, 68, 0
10, 89400, Note_on_c, 10, 67, 60
10, 89415, Note_on_c, 10, 67, 0
10, 89415, Note_on_c, 10, 75, 60
10, 89430, Note_on_c, 10, 75, 0
10, 89430, Note_on_c, 10, 70, 60
10, 89445, Note_on_c, 10, 70, 0
10, 89445, Note_on_c, 10, 75, 60
10, 89460, Note_on_c, 10, 75, 0
10, 89460, Note_on_c, 10, 79, 60
10, 89475, Note_on_c, 10, 79, 0
10, 89475, Note_on_c, 10, 75, 60
10, 89490, Note_on_c, 10, 75, 0
10, 89490, Note_on_c, 10, 70, 60
10, 89505, Note_on_c, 10, 70, 0
10, 89505, Note_on_c, 10, 75, 60
10, 89515, Note_on_c, 10, 75, 0
10, 89520, Note_on_c, 10, 67, 60
10, 89535, Note_on_c, 10, 67, 0
10, 89535, Note_on_c, 10, 75, 60
10, 89550, Note_on_c, 10, 75, 0
10, 89550, Note_on_c, 10, 70, 60
10, 89565, Note_on_c, 10, 70, 0
10, 89565, Note_on_c, 10, 75, 60
10, 89580, Note_on_c, 10, 75, 0
10, 89580, Note_on_c, 10, 79, 60
10, 89595, Note_on_c, 10, 79, 0
10, 89595, Note_on_c, 10, 75, 60
10, 89610, Note_on_c, 10, 75, 0
10, 89610, Note_on_c, 10, 79, 60
10, 89625, Note_on_c, 10, 79, 0
10, 89625, Note_on_c, 10, 82, 60
10, 89635, Note_on_c, 10, 82, 0
10, 89640, Note_on_c, 10, 80, 60
10, 89655, Note_on_c, 10, 80, 0
10, 89655, Note_on_c, 10, 75, 60
10, 89670, Note_on_c, 10, 75, 0
10, 89670, Note_on_c, 10, 68, 60
10, 89685, Note_on_c, 10, 68, 0
10, 89685, Note_on_c, 10, 75, 60
10, 89695, Note_on_c, 10, 75, 0
10, 89700, Note_on_c, 10, 80, 60
10, 89715, Note_on_c, 10, 80, 0
10, 89715, Note_on_c, 10, 75, 60
10, 89730, Note_on_c, 10, 75, 0
10, 89730, Note_on_c, 10, 79, 60
10, 89745, Note_on_c, 10, 79, 0
10, 89745, Note_on_c, 10, 75, 60
10, 89755, Note_on_c, 10, 75, 0
10, 89760, Note_on_c, 10, 79, 60
10, 89775, Note_on_c, 10, 79, 0
10, 89775, Note_on_c, 10, 75, 60
10, 89790, Note_on_c, 10, 75, 0
10, 89790, Note_on_c, 10, 72, 60
10, 89805, Note_on_c, 10, 72, 0
10, 89805, Note_on_c, 10, 75, 60
10, 89808, Control_c, 10, 11, 52
10, 89810, Control_c, 10, 11, 56
10, 89812, Control_c, 10, 11, 59
10, 89814, Control_c, 10, 11, 62
10, 89815, Note_on_c, 10, 75, 0
10, 89816, Control_c, 10, 11, 66
10, 89818, Control_c, 10, 11, 69
10, 89820, Control_c, 10, 11, 72
10, 89820, Note_on_c, 10, 78, 60
10, 89822, Control_c, 10, 11, 76
10, 89824, Control_c, 10, 11, 79
10, 89835, Note_on_c, 10, 78, 0
10, 89835, Note_on_c, 10, 75, 60
10, 89844, Control_c, 10, 11, 78
10, 89850, Note_on_c, 10, 75, 0
10, 89850, Note_on_c, 10, 78, 60
10, 89862, Control_c, 10, 11, 75
10, 89865, Note_on_c, 10, 78, 0
10, 89865, Note_on_c, 10, 75, 60
10, 89875, Note_on_c, 10, 75, 0
10, 89880, Control_c, 10, 11, 72
10, 89880, Note_on_c, 10, 78, 60
10, 89895, Note_on_c, 10, 78, 0
10, 89895, Note_on_c, 10, 75, 60
10, 89899, Control_c, 10, 11, 70
10, 89910, Note_on_c, 10, 75, 0
10, 89910, Note_on_c, 10, 72, 60
10, 89918, Control_c, 10, 11, 68
10, 89925, Note_on_c, 10, 72, 0
10, 89925, Note_on_c, 10, 75, 60
10, 89935, Note_on_c, 10, 75, 0
10, 89937, Control_c, 10, 11, 66
10, 89940, Note_on_c, 10, 78, 60
10, 89955, Note_on_c, 10, 78, 0
10, 89955, Note_on_c, 10, 75, 60
10, 89956, Control_c, 10, 11, 64
10, 89970, Note_on_c, 10, 75, 0
10, 89970, Note_on_c, 10, 78, 60
10, 89976, Control_c, 10, 11, 62
10, 89985, Note_on_c, 10, 78, 0
10, 89985, Note_on_c, 10, 75, 60
10, 89995, Note_on_c, 10, 75, 0
10, 89995, Control_c, 10, 11, 60
10, 90000, Note_on_c, 10, 77, 60
10, 90014, Control_c, 10, 11, 58
10, 90015, Note_on_c, 10, 77, 0
10, 90015, Note_on_c, 10, 74, 60
10, 90030, Note_on_c, 10, 74, 0
10, 90030, Note_on_c, 10, 77, 60
10, 90033, Control_c, 10, 11, 56
10, 90045, Note_on_c, 10, 77, 0
10, 90045, Note_on_c, 10, 71, 60
10, 90052, Control_c, 10, 11, 54
10, 90055, Note_on_c, 10, 71, 0
10, 90060, Note_on_c, 10, 77, 60
10, 90072, Control_c, 10, 11, 52
10, 90075, Note_on_c, 10, 77, 0
10, 90075, Note_on_c, 10, 74, 60
10, 90090, Note_on_c, 10, 74, 0
10, 90090, Note_on_c, 10, 77, 60
10, 90091, Control_c, 10, 11, 50
10, 90105, Note_on_c, 10, 77, 0
10, 90105, Note_on_c, 10, 70, 60
10, 90110, Control_c, 10, 11, 48
10, 90115, Note_on_c, 10, 70, 0
10, 90120, Note_on_c, 10, 79, 60
10, 90135, Note_on_c, 10, 79, 0
10, 90135, Note_on_c, 10, 75, 60
10, 90150, Note_on_c, 10, 75, 0
10, 90150, Note_on_c, 10, 79, 60
10, 90165, Note_on_c, 10, 79, 0
10, 90165, Note_on_c, 10, 70, 60
10, 90175, Note_on_c, 10, 70, 0
10, 90180, Note_on_c, 10, 80, 60
10, 90195, Note_on_c, 10, 80, 0
10, 90195, Note_on_c, 10, 72, 60
10, 90210, Note_on_c, 10, 72, 0
10, 90210, Note_on_c, 10, 77, 60
10, 90225, Note_on_c, 10, 77, 0
10, 90225, Note_on_c, 10, 68, 60
10, 90235, Note_on_c, 10, 68, 0
10, 90240, Note_on_c, 10, 67, 60
10, 90255, Note_on_c, 10, 67, 0
10, 90255, Note_on_c, 10, 70, 60
10, 90270, Note_on_c, 10, 70, 0
10, 90270, Note_on_c, 10, 75, 60
10, 90285, Note_on_c, 10, 75, 0
10, 90285, Note_on_c, 10, 70, 60
10, 90300, Note_on_c, 10, 70, 0
10, 90300, Note_on_c, 10, 79, 60
10, 90315, Note_on_c, 10, 79, 0
10, 90315, Note_on_c, 10, 75, 60
10, 90330, Note_on_c, 10, 75, 0
10, 90330, Note_on_c, 10, 70, 60
10, 90345, Note_on_c, 10, 70, 0
10, 90345, Note_on_c, 10, 67, 60
10, 90355, Note_on_c, 10, 67, 0
10, 90360, Note_on_c, 10, 68, 60
10, 90375, Note_on_c, 10, 68, 0
10, 90375, Note_on_c, 10, 70, 60
10, 90390, Note_on_c, 10, 70, 0
10, 90390, Note_on_c, 10, 74, 60
10, 90405, Note_on_c, 10, 74, 0
10, 90405, Note_on_c, 10, 70, 60
10, 90420, Note_on_c, 10, 70, 0
10, 90420, Note_on_c, 10, 77, 60
10, 90435, Note_on_c, 10, 77, 0
10, 90435, Note_on_c, 10, 74, 55
10, 90450, Note_on_c, 10, 74, 0
10, 90450, Note_on_c, 10, 70, 50
10, 90465, Note_on_c, 10, 70, 0
10, 90465, Note_on_c, 10, 68, 45
10, 90475, Note_on_c, 10, 68, 0
10, 90480, Note_on_c, 10, 67, 40
10, 90540, Note_on_c, 10, 67, 0
10, 91170, Control_c, 10, 11, 42
10, 91170, Note_on_c, 10, 72, 100
10, 91170, Note_on_c, 10, 79, 100
10, 91170, Note_on_c, 10, 64, 100
10, 91172, Control_c, 10, 11, 46
10, 91174, Control_c, 10, 11, 50
10, 91176, Control_c, 10, 11, 54
10, 91178, Control_c, 10, 11, 58
10, 91180, Control_c, 10, 11, 62
10, 91182, Control_c, 10, 11, 66
10, 91184, Control_c, 10, 11, 70
10, 91195, Note_on_c, 10, 64, 0
10, 91195, Note_on_c, 10, 79, 0
10, 91195, Note_on_c, 10, 72, 0
10, 91215, Control_c, 10, 11, 47
10, 91215, Note_on_c, 10, 77, 80
10, 91230, Note_on_c, 10, 77, 0
10, 91230, Note_on_c, 10, 72, 80
10, 91245, Note_on_c, 10, 72, 0
10, 91245, Note_on_c, 10, 77, 80
10, 91260, Note_on_c, 10, 77, 0
10, 91260, Note_on_c, 10, 81, 80
10, 91275, Note_on_c, 10, 81, 0
10, 91275, Note_on_c, 10, 77, 80
10, 91290, Note_on_c, 10, 77, 0
10, 91290, Note_on_c, 10, 72, 80
10, 91305, Note_on_c, 10, 72, 0
10, 91305, Note_on_c, 10, 77, 80
10, 91315, Note_on_c, 10, 77, 0
10, 91320, Note_on_c, 10, 69, 80
10, 91335, Note_on_c, 10, 69, 0
10, 91335, Note_on_c, 10, 77, 80
10, 91350, Note_on_c, 10, 77, 0
10, 91350, Note_on_c, 10, 72, 80
10, 91365, Note_on_c, 10, 72, 0
10, 91365, Note_on_c, 10, 77, 80
10, 91380, Note_on_c, 10, 77, 0
10, 91380, Note_on_c, 10, 81, 80
10, 91395, Note_on_c, 10, 81, 0
10, 91395, Note_on_c, 10, 77, 80
10, 91410, Note_on_c, 10, 77, 0
10, 91410, Note_on_c, 10, 72, 80
10, 91425, Note_on_c, 10, 72, 0
10, 91425, Note_on_c, 10, 69, 80
10, 91435, Note_on_c, 10, 69, 0
10, 91440, Note_on_c, 10, 70, 80
10, 91455, Note_on_c, 10, 70, 0
10, 91455, Note_on_c, 10, 76, 80
10, 91470, Note_on_c, 10, 76, 0
10, 91470, Note_on_c, 10, 72, 80
10, 91485, Note_on_c, 10, 72, 0
10, 91485, Note_on_c, 10, 76, 80
10, 91500, Note_on_c, 10, 76, 0
10, 91500, Note_on_c, 10, 79, 80
10, 91515, Note_on_c, 10, 79, 0
10, 91515, Note_on_c, 10, 76, 80
10, 91530, Note_on_c, 10, 76, 0
10, 91530, Note_on_c, 10, 72, 80
10, 91545, Note_on_c, 10, 72, 0
10, 91545, Note_on_c, 10, 70, 80
10, 91555, Note_on_c, 10, 70, 0
10, 91560, Note_on_c, 10, 69, 68
10, 91595, Control_c, 10, 11, 47
10, 91597, Control_c, 10, 11, 44
10, 91600, Control_c, 10, 11, 41
10, 91603, Control_c, 10, 11, 38
10, 91606, Control_c, 10, 11, 35
10, 91609, Control_c, 10, 11, 32
10, 91612, Control_c, 10, 11, 29
10, 91615, Control_c, 10, 11, 26
10, 91618, Control_c, 10, 11, 23
10, 91620, Note_on_c, 10, 69, 0
10, 92250, Control_c, 10, 11, 42
10, 92250, Note_on_c, 10, 81, 100
10, 92250, Note_on_c, 10, 72, 100
10, 92250, Note_on_c, 10, 62, 100
10, 92252, Control_c, 10, 11, 46
10, 92254, Control_c, 10, 11, 50
10, 92256, Control_c, 10, 11, 54
10, 92258, Control_c, 10, 11, 58
10, 92260, Control_c, 10, 11, 62
10, 92262, Control_c, 10, 11, 66
10, 92264, Control_c, 10, 11, 70
10, 92275, Note_on_c, 10, 62, 0
10, 92275, Note_on_c, 10, 72, 0
10, 92275, Note_on_c, 10, 81, 0
10, 92295, Control_c, 10, 11, 42
10, 92295, Note_on_c, 10, 67, 80
10, 92310, Note_on_c, 10, 67, 0
10, 92310, Note_on_c, 10, 62, 80
10, 92325, Note_on_c, 10, 62, 0
10, 92325, Note_on_c, 10, 67, 80
10, 92340, Note_on_c, 10, 67, 0
10, 92340, Note_on_c, 10, 71, 80
10, 92355, Note_on_c, 10, 71, 0
10, 92355, Note_on_c, 10, 67, 80
10, 92370, Note_on_c, 10, 67, 0
10, 92370, Note_on_c, 10, 62, 80
10, 92385, Note_on_c, 10, 62, 0
10, 92385, Note_on_c, 10, 67, 80
10, 92395, Note_on_c, 10, 67, 0
10, 92400, Note_on_c, 10, 59, 80
10, 92415, Note_on_c, 10, 59, 0
10, 92415, Note_on_c, 10, 67, 80
10, 92430, Note_on_c, 10, 67, 0
10, 92430, Note_on_c, 10, 62, 80
10, 92445, Note_on_c, 10, 62, 0
10, 92445, Note_on_c, 10, 67, 80
10, 92460, Note_on_c, 10, 67, 0
10, 92460, Note_on_c, 10, 71, 80
10, 92475, Note_on_c, 10, 71, 0
10, 92475, Note_on_c, 10, 67, 80
10, 92490, Note_on_c, 10, 67, 0
10, 92490, Note_on_c, 10, 62, 80
10, 92505, Note_on_c, 10, 62, 0
10, 92505, Note_on_c, 10, 59, 80
10, 92515, Note_on_c, 10, 59, 0
10, 92520, Note_on_c, 10, 60, 80
10, 92535, Note_on_c, 10, 60, 0
10, 92535, Note_on_c, 10, 66, 80
10, 92550, Note_on_c, 10, 66, 0
10, 92550, Note_on_c, 10, 62, 80
10, 92565, Note_on_c, 10, 62, 0
10, 92565, Note_on_c, 10, 66, 80
10, 92580, Note_on_c, 10, 66, 0
10, 92580, Note_on_c, 10, 69, 80
10, 92595, Note_on_c, 10, 69, 0
10, 92595, Note_on_c, 10, 66, 80
10, 92610, Note_on_c, 10, 66, 0
10, 92610, Note_on_c, 10, 62, 80
10, 92625, Note_on_c, 10, 62, 0
10, 92625, Note_on_c, 10, 60, 80
10, 92635, Note_on_c, 10, 60, 0
10, 92640, Control_c, 10, 11, 42
10, 92640, Note_on_c, 10, 59, 80
10, 92655, Note_on_c, 10, 59, 0
10, 92655, Note_on_c, 10, 55, 80
10, 92656, Control_c, 10, 11, 43
10, 92670, Note_on_c, 10, 55, 0
10, 92670, Note_on_c, 10, 59, 80
10, 92672, Control_c, 10, 11, 44
10, 92685, Note_on_c, 10, 59, 0
10, 92685, Note_on_c, 10, 62, 80
10, 92688, Control_c, 10, 11, 45
10, 92700, Note_on_c, 10, 62, 0
10, 92700, Note_on_c, 10, 67, 80
10, 92704, Control_c, 10, 11, 46
10, 92715, Note_on_c, 10, 67, 0
10, 92715, Note_on_c, 10, 62, 80
10, 92720, Control_c, 10, 11, 47
10, 92730, Note_on_c, 10, 62, 0
10, 92730, Note_on_c, 10, 71, 80
10, 92736, Control_c, 10, 11, 48
10, 92745, Note_on_c, 10, 71, 0
10, 92745, Note_on_c, 10, 67, 80
10, 92752, Control_c, 10, 11, 49
10, 92755, Note_on_c, 10, 67, 0
10, 92760, Note_on_c, 10, 65, 80
10, 92768, Control_c, 10, 11, 50
10, 92775, Note_on_c, 10, 65, 0
10, 92775, Note_on_c, 10, 67, 80
10, 92784, Control_c, 10, 11, 51
10, 92790, Note_on_c, 10, 67, 0
10, 92790, Note_on_c, 10, 71, 80
10, 92800, Control_c, 10, 11, 52
10, 92805, Note_on_c, 10, 71, 0
10, 92805, Note_on_c, 10, 67, 80
10, 92816, Control_c, 10, 11, 53
10, 92820, Note_on_c, 10, 67, 0
10, 92820, Note_on_c, 10, 74, 80
10, 92832, Control_c, 10, 11, 54
10, 92835, Note_on_c, 10, 74, 0
10, 92835, Note_on_c, 10, 71, 80
10, 92848, Control_c, 10, 11, 55
10, 92850, Note_on_c, 10, 71, 0
10, 92850, Note_on_c, 10, 67, 80
10, 92864, Control_c, 10, 11, 56
10, 92865, Note_on_c, 10, 67, 0
10, 92865, Note_on_c, 10, 65, 80
10, 92875, Note_on_c, 10, 65, 0
10, 92880, Control_c, 10, 11, 57
10, 92880, Note_on_c, 10, 64, 80
10, 92895, Note_on_c, 10, 64, 0
10, 92895, Note_on_c, 10, 67, 80
10, 92896, Control_c, 10, 11, 58
10, 92910, Note_on_c, 10, 67, 0
10, 92910, Note_on_c, 10, 69, 80
10, 92912, Control_c, 10, 11, 59
10, 92925, Note_on_c, 10, 69, 0
10, 92925, Note_on_c, 10, 71, 80
10, 92928, Control_c, 10, 11, 60
10, 92940, Note_on_c, 10, 71, 0
10, 92940, Note_on_c, 10, 72, 80
10, 92944, Control_c, 10, 11, 61
10, 92955, Note_on_c, 10, 72, 0
10, 92955, Note_on_c, 10, 67, 80
10, 92960, Control_c, 10, 11, 62
10, 92970, Note_on_c, 10, 67, 0
10, 92970, Note_on_c, 10, 65, 80
10, 92976, Control_c, 10, 11, 63
10, 92985, Note_on_c, 10, 65, 0
10, 92985, Note_on_c, 10, 64, 80
10, 92992, Control_c, 10, 11, 64
10, 92995, Note_on_c, 10, 64, 0
10, 93000, Note_on_c, 10, 62, 80
10, 93008, Control_c, 10, 11, 65
10, 93015, Note_on_c, 10, 62, 0
10, 93015, Note_on_c, 10, 59, 80
10, 93024, Control_c, 10, 11, 66
10, 93030, Note_on_c, 10, 59, 0
10, 93030, Note_on_c, 10, 62, 80
10, 93040, Control_c, 10, 11, 67
10, 93045, Note_on_c, 10, 62, 0
10, 93045, Note_on_c, 10, 67, 80
10, 93056, Control_c, 10, 11, 68
10, 93060, Note_on_c, 10, 67, 0
10, 93060, Note_on_c, 10, 71, 80
10, 93072, Control_c, 10, 11, 69
10, 93075, Note_on_c, 10, 71, 0
10, 93075, Note_on_c, 10, 67, 81
10, 93088, Control_c, 10, 11, 70
10, 93090, Note_on_c, 10, 67, 0
10, 93090, Note_on_c, 10, 74, 81
10, 93104, Control_c, 10, 11, 71
10, 93105, Note_on_c, 10, 74, 0
10, 93105, Note_on_c, 10, 71, 81
10, 93115, Note_on_c, 10, 71, 0
10, 93120, Control_c, 10, 11, 72
10, 93120, Note_on_c, 10, 77, 82
10, 93135, Note_on_c, 10, 77, 0
10, 93135, Note_on_c, 10, 74, 82
10, 93136, Control_c, 10, 11, 73
10, 93150, Note_on_c, 10, 74, 0
10, 93150, Note_on_c, 10, 77, 83
10, 93152, Control_c, 10, 11, 74
10, 93165, Note_on_c, 10, 77, 0
10, 93165, Note_on_c, 10, 74, 83
10, 93168, Control_c, 10, 11, 75
10, 93180, Note_on_c, 10, 74, 0
10, 93180, Note_on_c, 10, 77, 83
10, 93184, Control_c, 10, 11, 76
10, 93195, Note_on_c, 10, 77, 0
10, 93195, Note_on_c, 10, 74, 84
10, 93200, Control_c, 10, 11, 77
10, 93210, Note_on_c, 10, 74, 0
10, 93210, Note_on_c, 10, 79, 84
10, 93216, Control_c, 10, 11, 78
10, 93225, Note_on_c, 10, 79, 0
10, 93225, Note_on_c, 10, 77, 84
10, 93232, Control_c, 10, 11, 79
10, 93235, Note_on_c, 10, 77, 0
10, 93240, Note_on_c, 10, 76, 84
10, 93248, Control_c, 10, 11, 80
10, 93255, Note_on_c, 10, 76, 0
10, 93255, Note_on_c, 10, 72, 84
10, 93264, Control_c, 10, 11, 81
10, 93270, Note_on_c, 10, 72, 0
10, 93270, Note_on_c, 10, 76, 84
10, 93280, Control_c, 10, 11, 82
10, 93285, Note_on_c, 10, 76, 0
10, 93285, Note_on_c, 10, 72, 85
10, 93296, Control_c, 10, 11, 83
10, 93300, Note_on_c, 10, 72, 0
10, 93300, Note_on_c, 10, 76, 85
10, 93312, Control_c, 10, 11, 84
10, 93315, Note_on_c, 10, 76, 0
10, 93315, Note_on_c, 10, 72, 86
10, 93328, Control_c, 10, 11, 85
10, 93330, Note_on_c, 10, 72, 0
10, 93330, Note_on_c, 10, 77, 86
10, 93344, Control_c, 10, 11, 86
10, 93345, Note_on_c, 10, 77, 0
10, 93345, Note_on_c, 10, 76, 86
10, 93355, Note_on_c, 10, 76, 0
10, 93360, Control_c, 10, 11, 87
10, 93360, Note_on_c, 10, 74, 87
10, 93375, Note_on_c, 10, 74, 0
10, 93375, Note_on_c, 10, 71, 89
10, 93376, Control_c, 10, 11, 89
10, 93390, Note_on_c, 10, 71, 0
10, 93390, Note_on_c, 10, 74, 92
10, 93392, Control_c, 10, 11, 91
10, 93405, Note_on_c, 10, 74, 0
10, 93405, Note_on_c, 10, 76, 95
10, 93408, Control_c, 10, 11, 93
10, 93420, Note_on_c, 10, 76, 0
10, 93420, Note_on_c, 10, 77, 99
10, 93424, Control_c, 10, 11, 95
10, 93435, Note_on_c, 10, 77, 0
10, 93435, Note_on_c, 10, 79, 101
10, 93440, Control_c, 10, 11, 97
10, 93450, Note_on_c, 10, 79, 0
10, 93450, Note_on_c, 10, 80, 105
10, 93456, Control_c, 10, 11, 99
10, 93465, Note_on_c, 10, 80, 0
10, 93465, Note_on_c, 10, 81, 107
10, 93472, Control_c, 10, 11, 101
10, 93475, Note_on_c, 10, 81, 0
10, 93480, Note_on_c, 10, 80, 112
10, 93488, Control_c, 10, 11, 100
10, 93495, Note_on_c, 10, 80, 0
10, 93495, Note_on_c, 10, 81, 110
10, 93501, Control_c, 10, 11, 97
10, 93510, Note_on_c, 10, 81, 0
10, 93510, Note_on_c, 10, 80, 109
10, 93514, Control_c, 10, 11, 94
10, 93525, Note_on_c, 10, 80, 0
10, 93525, Note_on_c, 10, 81, 108
10, 93528, Control_c, 10, 11, 91
10, 93540, Note_on_c, 10, 81, 0
10, 93540, Note_on_c, 10, 80, 107
10, 93541, Control_c, 10, 11, 88
10, 93554, Control_c, 10, 11, 85
10, 93555, Note_on_c, 10, 80, 0
10, 93555, Note_on_c, 10, 81, 106
10, 93567, Control_c, 10, 11, 82
10, 93570, Note_on_c, 10, 81, 0
10, 93570, Note_on_c, 10, 80, 104
10, 93580, Control_c, 10, 11, 79
10, 93585, Note_on_c, 10, 80, 0
10, 93585, Note_on_c, 10, 81, 103
10, 93593, Control_c, 10, 11, 76
10, 93595, Note_on_c, 10, 81, 0
10, 93600, Note_on_c, 10, 80, 103
10, 93606, Control_c, 10, 11, 73
10, 93615, Note_on_c, 10, 80, 0
10, 93615, Note_on_c, 10, 81, 101
10, 93619, Control_c, 10, 11, 70
10, 93630, Note_on_c, 10, 81, 0
10, 93630, Note_on_c, 10, 80, 100
10, 93632, Control_c, 10, 11, 67
10, 93645, Note_on_c, 10, 80, 0
10, 93645, Control_c, 10, 11, 64
10, 93645, Note_on_c, 10, 81, 98
10, 93658, Control_c, 10, 11, 61
10, 93660, Note_on_c, 10, 81, 0
10, 93672, Control_c, 10, 11, 58
10, 93675, Note_on_c, 10, 80, 94
10, 93685, Control_c, 10, 11, 55
10, 93690, Note_on_c, 10, 80, 0
10, 93690, Note_on_c, 10, 81, 93
10, 93698, Control_c, 10, 11, 52
10, 93705, Note_on_c, 10, 81, 0
10, 93705, Note_on_c, 10, 80, 91
10, 93711, Control_c, 10, 11, 49
10, 93720, Note_on_c, 10, 80, 0
10, 93735, Note_on_c, 10, 77, 90
10, 93747, Control_c, 10, 11, 46
10, 93750, Note_on_c, 10, 77, 0
10, 93750, Note_on_c, 10, 79, 90
10, 93765, Note_on_c, 10, 79, 0
10, 93765, Note_on_c, 10, 77, 90
10, 93775, Control_c, 10, 11, 45
10, 93780, Note_on_c, 10, 77, 0
10, 93795, Note_on_c, 10, 76, 89
10, 93803, Control_c, 10, 11, 44
10, 93810, Note_on_c, 10, 76, 0
10, 93810, Note_on_c, 10, 77, 89
10, 93825, Note_on_c, 10, 77, 0
10, 93825, Note_on_c, 10, 76, 89
10, 93830, Control_c, 10, 11, 43
10, 93840, Note_on_c, 10, 76, 0
10, 93855, Note_on_c, 10, 74, 88
10, 93858, Control_c, 10, 11, 42
10, 93870, Note_on_c, 10, 74, 0
10, 93870, Note_on_c, 10, 76, 88
10, 93885, Note_on_c, 10, 76, 0
10, 93885, Note_on_c, 10, 74, 88
10, 93886, Control_c, 10, 11, 41
10, 93900, Note_on_c, 10, 74, 0
10, 93913, Control_c, 10, 11, 40
10, 93915, Note_on_c, 10, 72, 88
10, 93930, Note_on_c, 10, 72, 0
10, 93930, Note_on_c, 10, 74, 88
10, 93941, Control_c, 10, 11, 39
10, 93945, Note_on_c, 10, 74, 0
10, 93945, Note_on_c, 10, 72, 87
10, 93960, Note_on_c, 10, 72, 0
10, 93969, Control_c, 10, 11, 38
10, 93975, Note_on_c, 10, 71, 87
10, 93990, Note_on_c, 10, 71, 0
10, 93990, Note_on_c, 10, 72, 87
10, 93996, Control_c, 10, 11, 37
10, 94005, Note_on_c, 10, 72, 0
10, 94005, Note_on_c, 10, 71, 86
10, 94020, Note_on_c, 10, 71, 0
10, 94024, Control_c, 10, 11, 36
10, 94035, Note_on_c, 10, 69, 86
10, 94050, Note_on_c, 10, 69, 0
10, 94050, Note_on_c, 10, 71, 85
10, 94052, Control_c, 10, 11, 35
10, 94065, Note_on_c, 10, 71, 0
10, 94065, Note_on_c, 10, 69, 85
10, 94080, Note_on_c, 10, 69, 0
10, 94080, Control_c, 10, 11, 34
10, 94095, Control_c, 10, 11, 37
10, 94095, Note_on_c, 10, 67, 85
10, 94110, Note_on_c, 10, 67, 0
10, 94110, Note_on_c, 10, 69, 84
10, 94125, Note_on_c, 10, 69, 0
10, 94125, Note_on_c, 10, 67, 84
10, 94140, Note_on_c, 10, 67, 0
10, 94155, Note_on_c, 10, 65, 84
10, 94161, Control_c, 10, 11, 36
10, 94170, Note_on_c, 10, 65, 0
10, 94170, Note_on_c, 10, 67, 84
10, 94185, Note_on_c, 10, 67, 0
10, 94185, Note_on_c, 10, 65, 84
10, 94200, Note_on_c, 10, 65, 0
10, 94215, Note_on_c, 10, 64, 83
10, 94227, Control_c, 10, 11, 35
10, 94230, Note_on_c, 10, 64, 0
10, 94230, Note_on_c, 10, 65, 83
10, 94245, Note_on_c, 10, 65, 0
10, 94245, Note_on_c, 10, 64, 83
10, 94260, Note_on_c, 10, 64, 0
10, 94275, Note_on_c, 10, 65, 82
10, 94290, Note_on_c, 10, 65, 0
10, 94290, Note_on_c, 10, 67, 82
10, 94293, Control_c, 10, 11, 34
10, 94305, Note_on_c, 10, 67, 0
10, 94305, Note_on_c, 10, 65, 82
10, 94320, Note_on_c, 10, 65, 0
10, 94335, Note_on_c, 10, 62, 81
10, 94350, Note_on_c, 10, 62, 0
10, 94350, Note_on_c, 10, 64, 81
10, 94359, Control_c, 10, 11, 33
10, 94365, Note_on_c, 10, 64, 0
10, 94365, Note_on_c, 10, 62, 81
10, 94380, Note_on_c, 10, 62, 0
10, 94395, Note_on_c, 10, 60, 80
10, 94410, Note_on_c, 10, 60, 0
10, 94410, Note_on_c, 10, 62, 80
10, 94425, Note_on_c, 10, 62, 0
10, 94425, Control_c, 10, 11, 32
10, 94425, Note_on_c, 10, 60, 80
10, 94440, Note_on_c, 10, 60, 0
10, 94440, Note_on_c, 10, 59, 100
10, 94465, Note_on_c, 10, 59, 0
10, 94470, Note_on_c, 10, 65, 57
10, 94490, Note_on_c, 10, 65, 0
10, 94500, Note_on_c, 10, 65, 57
10, 94520, Note_on_c, 10, 65, 0
10, 94530, Note_on_c, 10, 65, 57
10, 94550, Note_on_c, 10, 65, 0
10, 94560, Note_on_c, 10, 65, 59
10, 94580, Note_on_c, 10, 65, 0
10, 94590, Note_on_c, 10, 65, 60
10, 94610, Note_on_c, 10, 65, 0
10, 94620, Note_on_c, 10, 65, 62
10, 94640, Note_on_c, 10, 65, 0
10, 94650, Note_on_c, 10, 65, 62
10, 94670, Note_on_c, 10, 65, 0
10, 94680, Note_on_c, 10, 65, 63
10, 94700, Note_on_c, 10, 65, 0
10, 94710, Note_on_c, 10, 65, 63
10, 94730, Note_on_c, 10, 65, 0
10, 94740, Note_on_c, 10, 65, 64
10, 94760, Note_on_c, 10, 65, 0
10, 94770, Note_on_c, 10, 65, 66
10, 94790, Note_on_c, 10, 65, 0
10, 94800, Note_on_c, 10, 65, 67
10, 94820, Note_on_c, 10, 65, 0
10, 94830, Note_on_c, 10, 65, 68
10, 94850, Note_on_c, 10, 65, 0
10, 94860, Note_on_c, 10, 65, 68
10, 94880, Note_on_c, 10, 65, 0
10, 94890, Note_on_c, 10, 65, 70
10, 94910, Note_on_c, 10, 65, 0
10, 94920, Note_on_c, 10, 65, 71
10, 94940, Note_on_c, 10, 65, 0
10, 94950, Note_on_c, 10, 65, 72
10, 94970, Note_on_c, 10, 65, 0
10, 94980, Note_on_c, 10, 65, 73
10, 95000, Note_on_c, 10, 65, 0
10, 95010, Note_on_c, 10, 65, 73
10, 95030, Note_on_c, 10, 65, 0
10, 95040, Note_on_c, 10, 65, 75
10, 95060, Note_on_c, 10, 65, 0
10, 95070, Note_on_c, 10, 65, 76
10, 95090, Note_on_c, 10, 65, 0
10, 95100, Note_on_c, 10, 65, 78
10, 95120, Note_on_c, 10, 65, 0
10, 95130, Note_on_c, 10, 65, 79
10, 95150, Note_on_c, 10, 65, 0
10, 95160, Note_on_c, 10, 65, 80
10, 95180, Note_on_c, 10, 65, 0
10, 95190, Note_on_c, 10, 65, 80
10, 95210, Note_on_c, 10, 65, 0
10, 95220, Note_on_c, 10, 65, 81
10, 95240, Note_on_c, 10, 65, 0
10, 95250, Note_on_c, 10, 65, 81
10, 95270, Note_on_c, 10, 65, 0
10, 95280, Note_on_c, 10, 65, 81
10, 95300, Note_on_c, 10, 65, 0
10, 95310, Note_on_c, 10, 65, 82
10, 95330, Note_on_c, 10, 65, 0
10, 95340, Note_on_c, 10, 65, 82
10, 95360, Note_on_c, 10, 65, 0
10, 95370, Note_on_c, 10, 65, 83
10, 95390, Note_on_c, 10, 65, 0
10, 95400, Note_on_c, 10, 65, 83
10, 95420, Note_on_c, 10, 65, 0
10, 95430, Note_on_c, 10, 65, 84
10, 95450, Note_on_c, 10, 65, 0
10, 95460, Note_on_c, 10, 65, 84
10, 95480, Note_on_c, 10, 65, 0
10, 95490, Note_on_c, 10, 65, 85
10, 95510, Note_on_c, 10, 65, 0
10, 95520, Note_on_c, 10, 65, 100
10, 95640, Note_on_c, 10, 65, 0
10, 96000, Control_c, 10, 11, 37
10, 96000, Note_on_c, 10, 65, 100
10, 96028, Control_c, 10, 11, 38
10, 96057, Control_c, 10, 11, 39
10, 96086, Control_c, 10, 11, 40
10, 96115, Control_c, 10, 11, 41
10, 96120, Note_on_c, 10, 65, 0
10, 96144, Control_c, 10, 11, 42
10, 96172, Control_c, 10, 11, 43
10, 96201, Control_c, 10, 11, 44
10, 96230, Control_c, 10, 11, 45
10, 96259, Control_c, 10, 11, 46
10, 96288, Control_c, 10, 11, 47
10, 96316, Control_c, 10, 11, 48
10, 96345, Control_c, 10, 11, 49
10, 96374, Control_c, 10, 11, 50
10, 96403, Control_c, 10, 11, 51
10, 96432, Control_c, 10, 11, 52
10, 96460, Control_c, 10, 11, 53
10, 96480, Note_on_c, 10, 65, 100
10, 96489, Control_c, 10, 11, 54
10, 96518, Control_c, 10, 11, 55
10, 96547, Control_c, 10, 11, 56
10, 96576, Control_c, 10, 11, 57
10, 96600, Note_on_c, 10, 65, 0
10, 96604, Control_c, 10, 11, 58
10, 96633, Control_c, 10, 11, 59
10, 96662, Control_c, 10, 11, 60
10, 96691, Control_c, 10, 11, 61
10, 96720, Control_c, 10, 11, 62
10, 96720, Note_on_c, 10, 65, 100
10, 96748, Control_c, 10, 11, 63
10, 96777, Control_c, 10, 11, 64
10, 96806, Control_c, 10, 11, 65
10, 96835, Control_c, 10, 11, 66
10, 96840, Note_on_c, 10, 65, 0
10, 96864, Control_c, 10, 11, 67
10, 96892, Control_c, 10, 11, 68
10, 96921, Control_c, 10, 11, 69
10, 96950, Control_c, 10, 11, 70
10, 96960, Note_on_c, 10, 65, 100
10, 96979, Control_c, 10, 11, 71
10, 97008, Control_c, 10, 11, 72
10, 97036, Control_c, 10, 11, 73
10, 97065, Control_c, 10, 11, 74
10, 97080, Note_on_c, 10, 65, 0
10, 97094, Control_c, 10, 11, 75
10, 97123, Control_c, 10, 11, 76
10, 97152, Control_c, 10, 11, 77
10, 97180, Control_c, 10, 11, 78
10, 97200, Note_on_c, 10, 65, 100
10, 97209, Control_c, 10, 11, 79
10, 97238, Control_c, 10, 11, 80
10, 97267, Control_c, 10, 11, 81
10, 97296, Control_c, 10, 11, 82
10, 97320, Note_on_c, 10, 65, 0
10, 97324, Control_c, 10, 11, 83
10, 97353, Control_c, 10, 11, 84
10, 97382, Control_c, 10, 11, 85
10, 97411, Control_c, 10, 11, 86
10, 97440, Control_c, 10, 11, 87
10, 97440, Note_on_c, 10, 65, 100
10, 97545, Note_on_c, 10, 65, 0
10, 97560, Note_on_c, 10, 55, 101
10, 97665, Note_on_c, 10, 55, 0
10, 97680, Note_on_c, 10, 62, 102
10, 97785, Note_on_c, 10, 62, 0
10, 97800, Note_on_c, 10, 59, 103
10, 97905, Note_on_c, 10, 59, 0
10, 97920, Control_c, 10, 11, 87
10, 97920, Note_on_c, 10, 65, 104
10, 98012, Control_c, 10, 11, 88
10, 98025, Note_on_c, 10, 65, 0
10, 98040, Note_on_c, 10, 62, 106
10, 98104, Control_c, 10, 11, 89
10, 98145, Note_on_c, 10, 62, 0
10, 98160, Note_on_c, 10, 71, 107
10, 98196, Control_c, 10, 11, 90
10, 98265, Note_on_c, 10, 71, 0
10, 98280, Note_on_c, 10, 65, 108
10, 98288, Control_c, 10, 11, 91
10, 98380, Control_c, 10, 11, 92
10, 98385, Note_on_c, 10, 65, 0
10, 98400, Note_on_c, 10, 74, 109
10, 98472, Control_c, 10, 11, 93
10, 98505, Note_on_c, 10, 74, 0
10, 98520, Note_on_c, 10, 74, 110
10, 98564, Control_c, 10, 11, 94
10, 98565, Note_on_c, 10, 74, 0
10, 98580, Note_on_c, 10, 77, 111
10, 98640, Note_on_c, 10, 77, 0
10, 98640, Note_on_c, 10, 74, 112
10, 98656, Control_c, 10, 11, 95
10, 98685, Note_on_c, 10, 74, 0
10, 98700, Note_on_c, 10, 77, 112
10, 98748, Control_c, 10, 11, 96
10, 98760, Note_on_c, 10, 77, 0
10, 98760, Note_on_c, 10, 74, 113
10, 98805, Note_on_c, 10, 74, 0
10, 98820, Note_on_c, 10, 77, 113
10, 98840, Control_c, 10, 11, 97
10, 98880, Note_on_c, 10, 77, 0
10, 98880, Note_on_c, 10, 74, 114
10, 98925, Note_on_c, 10, 74, 0
10, 98932, Control_c, 10, 11, 98
10, 98940, Note_on_c, 10, 77, 115
10, 99000, Note_on_c, 10, 77, 0
10, 99000, Note_on_c, 10, 74, 115
10, 99024, Control_c, 10, 11, 99
10, 99045, Note_on_c, 10, 74, 0
10, 99060, Note_on_c, 10, 77, 116
10, 99116, Control_c, 10, 11, 100
10, 99120, Note_on_c, 10, 77, 0
10, 99120, Note_on_c, 10, 72, 117
10, 99120, Note_on_c, 10, 76, 117
10, 99208, Control_c, 10, 11, 101
10, 99240, Note_on_c, 10, 76, 0
10, 99240, Note_on_c, 10, 72, 0
10, 99300, Control_c, 10, 11, 102
10, 99300, Note_on_c, 10, 72, 117
10, 99360, Note_on_c, 10, 72, 0
10, 99360, Note_on_c, 10, 76, 117
10, 99480, Note_on_c, 10, 76, 0
10, 99540, Note_on_c, 10, 76, 117
10, 99600, Note_on_c, 10, 76, 0
10, 99600, Note_on_c, 10, 79, 117
10, 99720, Note_on_c, 10, 79, 0
10, 99780, Note_on_c, 10, 79, 117
10, 99840, Note_on_c, 10, 79, 0
10, 99840, Note_on_c, 10, 84, 117
10, 100185, Note_on_c, 10, 84, 0
10, 100200, Note_on_c, 10, 88, 117
10, 100320, Note_on_c, 10, 88, 0
10, 100320, Note_on_c, 10, 83, 113
10, 100440, Note_on_c, 10, 83, 0
10, 100440, Note_on_c, 10, 84, 108
10, 100560, Note_on_c, 10, 84, 0
10, 100560, Note_on_c, 10, 79, 104
10, 100680, Note_on_c, 10, 79, 0
10, 100680, Note_on_c, 10, 81, 99
10, 100785, Note_on_c, 10, 81, 0
10, 100800, Note_on_c, 10, 79, 125
10, 100820, Note_on_c, 10, 79, 0
10, 100820, Note_on_c, 10, 83, 125
10, 100840, Note_on_c, 10, 83, 0
10, 100840, Note_on_c, 10, 81, 117
10, 100920, Note_on_c, 10, 81, 0
10, 100920, Note_on_c, 10, 79, 117
10, 101040, Note_on_c, 10, 79, 0
10, 101040, Note_on_c, 10, 88, 127
10, 101160, Note_on_c, 10, 88, 0
10, 101160, Note_on_c, 10, 84, 122
10, 101280, Note_on_c, 10, 84, 0
10, 101280, Note_on_c, 10, 83, 117
10, 101400, Note_on_c, 10, 83, 0
10, 101400, Note_on_c, 10, 84, 111
10, 101520, Note_on_c, 10, 84, 0
10, 101520, Note_on_c, 10, 79, 105
10, 101640, Note_on_c, 10, 79, 0
10, 101640, Note_on_c, 10, 81, 99
10, 101745, Note_on_c, 10, 81, 0
10, 101760, Note_on_c, 10, 79, 125
10, 101780, Note_on_c, 10, 79, 0
10, 101780, Note_on_c, 10, 83, 125
10, 101800, Note_on_c, 10, 83, 0
10, 101800, Note_on_c, 10, 81, 117
10, 101880, Note_on_c, 10, 81, 0
10, 101880, Note_on_c, 10, 79, 117
10, 101985, Note_on_c, 10, 79, 0
10, 102000, Note_on_c, 10, 88, 127
10, 102120, Note_on_c, 10, 88, 0
10, 102120, Note_on_c, 10, 84, 119
10, 102240, Note_on_c, 10, 84, 0
10, 102240, Note_on_c, 10, 83, 109
10, 102360, Note_on_c, 10, 83, 0
10, 102360, Note_on_c, 10, 84, 99
10, 102585, Note_on_c, 10, 84, 0
10, 102600, Note_on_c, 10, 79, 127
10, 102660, Note_on_c, 10, 79, 0
10, 102660, Note_on_c, 10, 76, 126
10, 102705, Note_on_c, 10, 76, 0
10, 102720, Note_on_c, 10, 76, 117
10, 102840, Note_on_c, 10, 76, 0
10, 102840, Note_on_c, 10, 74, 117
10, 102960, Note_on_c, 10, 74, 0
10, 103080, Note_on_c, 10, 77, 127
10, 103140, Note_on_c, 10, 77, 0
10, 103140, Note_on_c, 10, 74, 126
10, 103185, Note_on_c, 10, 74, 0
10, 103200, Note_on_c, 10, 72, 117
10, 103320, Note_on_c, 10, 72, 0
10, 103320, Note_on_c, 10, 71, 117
10, 103440, Note_on_c, 10, 71, 0
10, 103560, Note_on_c, 10, 74, 127
10, 103620, Note_on_c, 10, 74, 0
10, 103620, Note_on_c, 10, 65, 126
10, 103665, Note_on_c, 10, 65, 0
10, 103680, Note_on_c, 10, 64, 125
10, 103710, Note_on_c, 10, 64, 0
10, 103710, Note_on_c, 10, 67, 125
10, 103740, Note_on_c, 10, 67, 0
10, 103740, Note_on_c, 10, 65, 117
10, 103800, Note_on_c, 10, 65, 0
10, 103800, Note_on_c, 10, 64, 117
10, 103920, Note_on_c, 10, 64, 0
10, 104040, Note_on_c, 10, 88, 127
10, 104100, Note_on_c, 10, 88, 0
10, 104100, Note_on_c, 10, 84, 126
10, 104160, Note_on_c, 10, 84, 0
10, 104160, Note_on_c, 10, 83, 117
10, 104220, Note_on_c, 10, 83, 0
10, 104220, Note_on_c, 10, 86, 117
10, 104265, Note_on_c, 10, 86, 0
10, 104280, Note_on_c, 10, 84, 117
10, 104500, Note_on_c, 10, 84, 0
10, 104520, Note_on_c, 10, 79, 127
10, 104580, Note_on_c, 10, 79, 0
10, 104580, Note_on_c, 10, 76, 126
10, 104625, Note_on_c, 10, 76, 0
10, 104640, Note_on_c, 10, 76, 117
10, 104760, Note_on_c, 10, 76, 0
10, 104760, Note_on_c, 10, 74, 117
10, 104880, Note_on_c, 10, 74, 0
10, 105000, Note_on_c, 10, 81, 127
10, 105060, Note_on_c, 10, 81, 0
10, 105060, Note_on_c, 10, 77, 126
10, 105105, Note_on_c, 10, 77, 0
10, 105120, Note_on_c, 10, 76, 117
10, 105240, Note_on_c, 10, 76, 0
10, 105240, Note_on_c, 10, 74, 117
10, 105360, Note_on_c, 10, 74, 0
10, 105480, Note_on_c, 10, 81, 127
10, 105540, Note_on_c, 10, 81, 0
10, 105540, Note_on_c, 10, 77, 126
10, 105585, Note_on_c, 10, 77, 0
10, 105600, Note_on_c, 10, 76, 117
10, 105720, Note_on_c, 10, 76, 0
10, 105720, Note_on_c, 10, 74, 117
10, 105840, Note_on_c, 10, 74, 0
10, 105960, Note_on_c, 10, 81, 127
10, 106020, Note_on_c, 10, 81, 0
10, 106020, Note_on_c, 10, 78, 126
10, 106065, Note_on_c, 10, 78, 0
10, 106080, Note_on_c, 10, 76, 117
10, 106200, Note_on_c, 10, 76, 0
10, 106200, Note_on_c, 10, 74, 117
10, 106320, Note_on_c, 10, 74, 0
10, 106440, Note_on_c, 10, 81, 127
10, 106500, Note_on_c, 10, 81, 0
10, 106500, Note_on_c, 10, 72, 126
10, 106545, Note_on_c, 10, 72, 0
10, 106560, Note_on_c, 10, 71, 85
10, 106563, Control_c, 10, 11, 86
10, 106572, Control_c, 10, 11, 83
10, 106581, Control_c, 10, 11, 80
10, 106590, Control_c, 10, 11, 77
10, 106599, Control_c, 10, 11, 74
10, 106608, Control_c, 10, 11, 71
10, 106617, Control_c, 10, 11, 68
10, 106626, Control_c, 10, 11, 65
10, 106635, Control_c, 10, 11, 62
10, 106644, Control_c, 10, 11, 59
10, 106650, Note_on_c, 10, 71, 0
10, 106653, Control_c, 10, 11, 56
10, 106662, Control_c, 10, 11, 53
10, 106671, Control_c, 10, 11, 50
10, 106680, Control_c, 10, 11, 47
10, 106680, Note_on_c, 10, 67, 100
10, 106905, Note_on_c, 10, 67, 0
10, 106920, Note_on_c, 10, 69, 100
10, 107145, Note_on_c, 10, 69, 0
10, 107160, Note_on_c, 10, 71, 100
10, 107385, Note_on_c, 10, 71, 0
10, 107400, Note_on_c, 10, 72, 100
10, 107505, Note_on_c, 10, 72, 0
10, 107520, Note_on_c, 10, 74, 100
10, 108345, Note_on_c, 10, 74, 0
10, 108360, Note_on_c, 10, 72, 100
10, 108400, Note_on_c, 10, 72, 0
10, 108400, Note_on_c, 10, 71, 100
10, 108440, Note_on_c, 10, 71, 0
10, 108440, Note_on_c, 10, 69, 100
10, 108465, Note_on_c, 10, 69, 0
10, 108480, Note_on_c, 10, 67, 100
10, 108585, Note_on_c, 10, 67, 0
10, 108600, Note_on_c, 10, 71, 100
10, 108825, Note_on_c, 10, 71, 0
10, 108840, Note_on_c, 10, 72, 100
10, 109065, Note_on_c, 10, 72, 0
10, 109080, Note_on_c, 10, 74, 100
10, 109305, Note_on_c, 10, 74, 0
10, 109320, Note_on_c, 10, 76, 100
10, 109425, Note_on_c, 10, 76, 0
10, 109435, Control_c, 10, 11, 47
10, 109436, Control_c, 10, 11, 52
10, 109437, Control_c, 10, 11, 57
10, 109438, Control_c, 10, 11, 62
10, 109439, Control_c, 10, 11, 67
10, 109440, Control_c, 10, 11, 72
10, 109440, Note_on_c, 10, 77, 100
10, 109459, Control_c, 10, 11, 71
10, 109478, Control_c, 10, 11, 70
10, 109497, Control_c, 10, 11, 69
10, 109516, Control_c, 10, 11, 68
10, 109536, Control_c, 10, 11, 67
10, 109555, Control_c, 10, 11, 66
10, 109574, Control_c, 10, 11, 65
10, 109593, Control_c, 10, 11, 64
10, 109612, Control_c, 10, 11, 63
10, 109632, Control_c, 10, 11, 62
10, 109651, Control_c, 10, 11, 61
10, 109670, Control_c, 10, 11, 60
10, 109689, Control_c, 10, 11, 59
10, 109708, Control_c, 10, 11, 58
10, 109728, Control_c, 10, 11, 57
10, 109747, Control_c, 10, 11, 56
10, 109766, Control_c, 10, 11, 55
10, 109785, Control_c, 10, 11, 54
10, 109804, Control_c, 10, 11, 53
10, 109824, Control_c, 10, 11, 52
10, 109843, Control_c, 10, 11, 51
10, 109862, Control_c, 10, 11, 50
10, 109881, Control_c, 10, 11, 49
10, 109900, Control_c, 10, 11, 48
10, 109920, Control_c, 10, 11, 47
10, 110265, Note_on_c, 10, 77, 0
10, 110280, Note_on_c, 10, 76, 100
10, 110320, Note_on_c, 10, 76, 0
10, 110320, Note_on_c, 10, 74, 100
10, 110360, Note_on_c, 10, 74, 0
10, 110360, Note_on_c, 10, 72, 100
10, 110385, Note_on_c, 10, 72, 0
10, 110400, Note_on_c, 10, 71, 96
10, 110460, Note_on_c, 10, 71, 0
10, 110460, Note_on_c, 10, 74, 96
10, 110520, Note_on_c, 10, 74, 0
10, 110520, Note_on_c, 10, 77, 96
10, 110580, Note_on_c, 10, 77, 0
10, 110580, Note_on_c, 10, 74, 96
10, 110640, Note_on_c, 10, 74, 0
10, 110640, Note_on_c, 10, 77, 96
10, 110700, Note_on_c, 10, 77, 0
10, 110700, Note_on_c, 10, 74, 96
10, 110760, Note_on_c, 10, 74, 0
10, 110760, Note_on_c, 10, 77, 96
10, 110820, Note_on_c, 10, 77, 0
10, 110820, Note_on_c, 10, 74, 96
10, 110865, Note_on_c, 10, 74, 0
10, 110880, Note_on_c, 10, 77, 96
10, 110940, Note_on_c, 10, 77, 0
10, 110940, Note_on_c, 10, 74, 96
10, 111000, Note_on_c, 10, 74, 0
10, 111000, Note_on_c, 10, 77, 96
10, 111060, Note_on_c, 10, 77, 0
10, 111060, Note_on_c, 10, 74, 96
10, 111120, Note_on_c, 10, 74, 0
10, 111120, Note_on_c, 10, 77, 96
10, 111180, Note_on_c, 10, 77, 0
10, 111180, Note_on_c, 10, 74, 96
10, 111240, Note_on_c, 10, 74, 0
10, 111240, Note_on_c, 10, 77, 96
10, 111300, Note_on_c, 10, 77, 0
10, 111300, Note_on_c, 10, 74, 96
10, 111345, Note_on_c, 10, 74, 0
10, 111355, Control_c, 10, 11, 47
10, 111356, Control_c, 10, 11, 52
10, 111357, Control_c, 10, 11, 57
10, 111358, Control_c, 10, 11, 62
10, 111359, Control_c, 10, 11, 67
10, 111360, Control_c, 10, 11, 72
10, 111360, Note_on_c, 10, 80, 96
10, 111388, Control_c, 10, 11, 71
10, 111417, Control_c, 10, 11, 70
10, 111420, Note_on_c, 10, 80, 0
10, 111420, Note_on_c, 10, 77, 96
10, 111446, Control_c, 10, 11, 69
10, 111475, Control_c, 10, 11, 68
10, 111480, Note_on_c, 10, 77, 0
10, 111480, Note_on_c, 10, 80, 96
10, 111504, Control_c, 10, 11, 67
10, 111532, Control_c, 10, 11, 66
10, 111540, Note_on_c, 10, 80, 0
10, 111540, Note_on_c, 10, 77, 96
10, 111561, Control_c, 10, 11, 65
10, 111590, Control_c, 10, 11, 64
10, 111600, Note_on_c, 10, 77, 0
10, 111600, Note_on_c, 10, 80, 96
10, 111619, Control_c, 10, 11, 63
10, 111648, Control_c, 10, 11, 62
10, 111660, Note_on_c, 10, 80, 0
10, 111660, Note_on_c, 10, 77, 96
10, 111676, Control_c, 10, 11, 61
10, 111705, Control_c, 10, 11, 60
10, 111720, Note_on_c, 10, 77, 0
10, 111720, Note_on_c, 10, 80, 96
10, 111734, Control_c, 10, 11, 59
10, 111763, Control_c, 10, 11, 58
10, 111780, Note_on_c, 10, 80, 0
10, 111780, Note_on_c, 10, 77, 96
10, 111792, Control_c, 10, 11, 57
10, 111820, Control_c, 10, 11, 56
10, 111825, Note_on_c, 10, 77, 0
10, 111840, Note_on_c, 10, 80, 96
10, 111849, Control_c, 10, 11, 55
10, 111878, Control_c, 10, 11, 54
10, 111900, Note_on_c, 10, 80, 0
10, 111900, Note_on_c, 10, 77, 96
10, 111907, Control_c, 10, 11, 53
10, 111936, Control_c, 10, 11, 52
10, 111960, Note_on_c, 10, 77, 0
10, 111960, Note_on_c, 10, 80, 96
10, 111964, Control_c, 10, 11, 51
10, 111993, Control_c, 10, 11, 50
10, 112020, Note_on_c, 10, 80, 0
10, 112020, Note_on_c, 10, 77, 96
10, 112022, Control_c, 10, 11, 49
10, 112051, Control_c, 10, 11, 48
10, 112080, Note_on_c, 10, 77, 0
10, 112080, Control_c, 10, 11, 47
10, 112080, Note_on_c, 10, 79, 96
10, 112125, Note_on_c, 10, 79, 0
10, 112140, Note_on_c, 10, 74, 96
10, 112170, Note_on_c, 10, 74, 0
10, 112200, Note_on_c, 10, 74, 96
10, 112230, Note_on_c, 10, 74, 0
10, 112260, Note_on_c, 10, 74, 96
10, 112290, Note_on_c, 10, 74, 0
10, 112320, Note_on_c, 10, 79, 96
10, 112380, Note_on_c, 10, 79, 0
10, 112380, Note_on_c, 10, 75, 96
10, 112440, Note_on_c, 10, 75, 0
10, 112440, Note_on_c, 10, 79, 96
10, 112500, Note_on_c, 10, 79, 0
10, 112500, Note_on_c, 10, 75, 96
10, 112560, Note_on_c, 10, 75, 0
10, 112560, Note_on_c, 10, 79, 96
10, 112605, Note_on_c, 10, 79, 0
10, 112620, Note_on_c, 10, 79, 96
10, 112650, Note_on_c, 10, 79, 0
10, 112680, Note_on_c, 10, 79, 96
10, 112710, Note_on_c, 10, 79, 0
10, 112740, Note_on_c, 10, 79, 96
10, 112770, Note_on_c, 10, 79, 0
10, 112800, Note_on_c, 10, 77, 96
10, 112860, Note_on_c, 10, 77, 0
10, 112860, Note_on_c, 10, 74, 96
10, 112920, Note_on_c, 10, 74, 0
10, 112920, Note_on_c, 10, 77, 96
10, 112980, Note_on_c, 10, 77, 0
10, 112980, Note_on_c, 10, 74, 96
10, 113040, Note_on_c, 10, 74, 0
10, 113040, Note_on_c, 10, 77, 96
10, 113085, Note_on_c, 10, 77, 0
10, 113100, Note_on_c, 10, 77, 96
10, 113130, Note_on_c, 10, 77, 0
10, 113160, Note_on_c, 10, 77, 96
10, 113190, Note_on_c, 10, 77, 0
10, 113220, Note_on_c, 10, 77, 96
10, 113250, Note_on_c, 10, 77, 0
10, 113280, Note_on_c, 10, 75, 96
10, 113340, Note_on_c, 10, 75, 0
10, 113340, Note_on_c, 10, 72, 96
10, 113400, Note_on_c, 10, 72, 0
10, 113400, Note_on_c, 10, 75, 96
10, 113460, Note_on_c, 10, 75, 0
10, 113460, Note_on_c, 10, 72, 96
10, 113520, Note_on_c, 10, 72, 0
10, 113520, Note_on_c, 10, 75, 96
10, 113565, Note_on_c, 10, 75, 0
10, 113580, Note_on_c, 10, 75, 96
10, 113610, Note_on_c, 10, 75, 0
10, 113640, Note_on_c, 10, 75, 96
10, 113670, Note_on_c, 10, 75, 0
10, 113700, Note_on_c, 10, 75, 96
10, 113730, Note_on_c, 10, 75, 0
10, 113760, Note_on_c, 10, 74, 96
10, 113820, Note_on_c, 10, 74, 0
10, 113820, Note_on_c, 10, 71, 96
10, 113880, Note_on_c, 10, 71, 0
10, 113880, Note_on_c, 10, 74, 96
10, 113940, Note_on_c, 10, 74, 0
10, 113940, Note_on_c, 10, 71, 96
10, 113985, Note_on_c, 10, 71, 0
10, 114000, Note_on_c, 10, 77, 96
10, 114060, Note_on_c, 10, 77, 0
10, 114060, Note_on_c, 10, 74, 96
10, 114120, Note_on_c, 10, 74, 0
10, 114120, Note_on_c, 10, 77, 96
10, 114180, Note_on_c, 10, 77, 0
10, 114180, Note_on_c, 10, 74, 96
10, 114225, Note_on_c, 10, 74, 0
10, 114235, Control_c, 10, 11, 47
10, 114236, Control_c, 10, 11, 52
10, 114237, Control_c, 10, 11, 57
10, 114238, Control_c, 10, 11, 62
10, 114239, Control_c, 10, 11, 67
10, 114240, Control_c, 10, 11, 72
10, 114240, Note_on_c, 10, 80, 96
10, 114259, Control_c, 10, 11, 71
10, 114278, Control_c, 10, 11, 70
10, 114297, Control_c, 10, 11, 69
10, 114300, Note_on_c, 10, 80, 0
10, 114300, Note_on_c, 10, 77, 96
10, 114316, Control_c, 10, 11, 68
10, 114336, Control_c, 10, 11, 67
10, 114355, Control_c, 10, 11, 66
10, 114360, Note_on_c, 10, 77, 0
10, 114360, Note_on_c, 10, 80, 96
10, 114374, Control_c, 10, 11, 65
10, 114393, Control_c, 10, 11, 64
10, 114412, Control_c, 10, 11, 63
10, 114420, Note_on_c, 10, 80, 0
10, 114420, Note_on_c, 10, 77, 96
10, 114432, Control_c, 10, 11, 62
10, 114451, Control_c, 10, 11, 61
10, 114470, Control_c, 10, 11, 60
10, 114480, Note_on_c, 10, 77, 0
10, 114480, Note_on_c, 10, 80, 96
10, 114489, Control_c, 10, 11, 59
10, 114508, Control_c, 10, 11, 58
10, 114528, Control_c, 10, 11, 57
10, 114540, Note_on_c, 10, 80, 0
10, 114540, Note_on_c, 10, 77, 96
10, 114547, Control_c, 10, 11, 56
10, 114566, Control_c, 10, 11, 55
10, 114585, Control_c, 10, 11, 54
10, 114600, Note_on_c, 10, 77, 0
10, 114600, Note_on_c, 10, 80, 96
10, 114604, Control_c, 10, 11, 53
10, 114624, Control_c, 10, 11, 52
10, 114643, Control_c, 10, 11, 51
10, 114660, Note_on_c, 10, 80, 0
10, 114660, Note_on_c, 10, 77, 96
10, 114662, Control_c, 10, 11, 50
10, 114681, Control_c, 10, 11, 49
10, 114700, Control_c, 10, 11, 48
10, 114705, Note_on_c, 10, 77, 0
10, 114720, Control_c, 10, 11, 47
10, 114720, Note_on_c, 10, 80, 96
10, 114780, Note_on_c, 10, 80, 0
10, 114780, Note_on_c, 10, 77, 96
10, 114840, Note_on_c, 10, 77, 0
10, 114840, Note_on_c, 10, 80, 96
10, 114900, Note_on_c, 10, 80, 0
10, 114900, Note_on_c, 10, 77, 96
10, 114960, Note_on_c, 10, 77, 0
10, 114960, Note_on_c, 10, 79, 96
10, 115005, Note_on_c, 10, 79, 0
10, 115020, Note_on_c, 10, 74, 96
10, 115050, Note_on_c, 10, 74, 0
10, 115080, Note_on_c, 10, 74, 96
10, 115110, Note_on_c, 10, 74, 0
10, 115140, Note_on_c, 10, 74, 96
10, 115170, Note_on_c, 10, 74, 0
10, 115200, Note_on_c, 10, 79, 96
10, 115260, Note_on_c, 10, 79, 0
10, 115260, Note_on_c, 10, 75, 96
10, 115320, Note_on_c, 10, 75, 0
10, 115320, Note_on_c, 10, 79, 96
10, 115380, Note_on_c, 10, 79, 0
10, 115380, Note_on_c, 10, 75, 96
10, 115440, Note_on_c, 10, 75, 0
10, 115440, Note_on_c, 10, 79, 96
10, 115485, Note_on_c, 10, 79, 0
10, 115500, Note_on_c, 10, 79, 96
10, 115530, Note_on_c, 10, 79, 0
10, 115560, Note_on_c, 10, 79, 96
10, 115590, Note_on_c, 10, 79, 0
10, 115620, Note_on_c, 10, 79, 96
10, 115650, Note_on_c, 10, 79, 0
10, 115680, Control_c, 10, 11, 47
10, 115680, Note_on_c, 10, 79, 96
10, 115716, Control_c, 10, 11, 48
10, 115740, Note_on_c, 10, 79, 0
10, 115740, Note_on_c, 10, 75, 96
10, 115752, Control_c, 10, 11, 49
10, 115788, Control_c, 10, 11, 50
10, 115800, Note_on_c, 10, 75, 0
10, 115800, Note_on_c, 10, 79, 96
10, 115824, Control_c, 10, 11, 51
10, 115860, Note_on_c, 10, 79, 0
10, 115860, Control_c, 10, 11, 52
10, 115860, Note_on_c, 10, 75, 96
10, 115896, Control_c, 10, 11, 53
10, 115920, Note_on_c, 10, 75, 0
10, 115920, Note_on_c, 10, 81, 96
10, 115932, Control_c, 10, 11, 54
10, 115965, Note_on_c, 10, 81, 0
10, 115968, Control_c, 10, 11, 55
10, 115980, Note_on_c, 10, 81, 96
10, 116004, Control_c, 10, 11, 56
10, 116010, Note_on_c, 10, 81, 0
10, 116040, Control_c, 10, 11, 57
10, 116040, Note_on_c, 10, 81, 96
10, 116070, Note_on_c, 10, 81, 0
10, 116076, Control_c, 10, 11, 58
10, 116100, Note_on_c, 10, 81, 96
10, 116112, Control_c, 10, 11, 59
10, 116130, Note_on_c, 10, 81, 0
10, 116148, Control_c, 10, 11, 60
10, 116160, Note_on_c, 10, 82, 96
10, 116184, Control_c, 10, 11, 61
10, 116190, Note_on_c, 10, 82, 0
10, 116220, Control_c, 10, 11, 62
10, 116220, Note_on_c, 10, 67, 96
10, 116256, Control_c, 10, 11, 63
10, 116280, Note_on_c, 10, 67, 0
10, 116280, Note_on_c, 10, 70, 96
10, 116292, Control_c, 10, 11, 64
10, 116328, Control_c, 10, 11, 65
10, 116340, Note_on_c, 10, 70, 0
10, 116340, Note_on_c, 10, 67, 96
10, 116364, Control_c, 10, 11, 66
10, 116400, Note_on_c, 10, 67, 0
10, 116400, Control_c, 10, 11, 67
10, 116400, Note_on_c, 10, 70, 96
10, 116436, Control_c, 10, 11, 68
10, 116460, Note_on_c, 10, 70, 0
10, 116460, Note_on_c, 10, 67, 96
10, 116472, Control_c, 10, 11, 69
10, 116508, Control_c, 10, 11, 70
10, 116520, Note_on_c, 10, 67, 0
10, 116520, Note_on_c, 10, 70, 96
10, 116544, Control_c, 10, 11, 71
10, 116580, Note_on_c, 10, 70, 0
10, 116580, Control_c, 10, 11, 72
10, 116580, Note_on_c, 10, 67, 96
10, 116616, Control_c, 10, 11, 73
10, 116625, Note_on_c, 10, 67, 0
10, 116640, Note_on_c, 10, 70, 96
10, 116652, Control_c, 10, 11, 74
10, 116688, Control_c, 10, 11, 75
10, 116700, Note_on_c, 10, 70, 0
10, 116700, Note_on_c, 10, 67, 96
10, 116724, Control_c, 10, 11, 76
10, 116760, Note_on_c, 10, 67, 0
10, 116760, Control_c, 10, 11, 77
10, 116760, Note_on_c, 10, 70, 96
10, 116796, Control_c, 10, 11, 78
10, 116820, Note_on_c, 10, 70, 0
10, 116820, Note_on_c, 10, 68, 96
10, 116832, Control_c, 10, 11, 79
10, 116865, Note_on_c, 10, 68, 0
10, 116868, Control_c, 10, 11, 80
10, 116880, Note_on_c, 10, 65, 96
10, 116904, Control_c, 10, 11, 81
10, 116925, Note_on_c, 10, 65, 0
10, 116940, Control_c, 10, 11, 82
10, 116940, Note_on_c, 10, 65, 96
10, 116976, Control_c, 10, 11, 83
10, 116985, Note_on_c, 10, 65, 0
10, 117000, Note_on_c, 10, 62, 96
10, 117012, Control_c, 10, 11, 84
10, 117045, Note_on_c, 10, 62, 0
10, 117048, Control_c, 10, 11, 85
10, 117060, Note_on_c, 10, 62, 96
10, 117084, Control_c, 10, 11, 86
10, 117105, Note_on_c, 10, 62, 0
10, 117120, Control_c, 10, 11, 87
10, 117120, Note_on_c, 10, 67, 90
10, 117240, Note_on_c, 10, 67, 0
10, 117720, Control_c, 10, 11, 47
10, 117720, Note_on_c, 10, 63, 100
10, 117780, Note_on_c, 10, 63, 0
10, 117840, Note_on_c, 10, 62, 100
10, 117900, Note_on_c, 10, 62, 0
10, 117960, Note_on_c, 10, 63, 100
10, 118020, Note_on_c, 10, 63, 0
10, 118080, Note_on_c, 10, 65, 100
10, 118200, Note_on_c, 10, 65, 0
10, 118200, Note_on_c, 10, 62, 100
10, 118310, Note_on_c, 10, 62, 0
10, 118320, Note_on_c, 10, 58, 100
10, 118380, Note_on_c, 10, 58, 0
10, 118440, Note_on_c, 10, 56, 100
10, 118500, Note_on_c, 10, 56, 0
10, 118560, Note_on_c, 10, 55, 100
10, 118620, Note_on_c, 10, 55, 0
10, 118680, Note_on_c, 10, 58, 100
10, 118740, Note_on_c, 10, 58, 0
10, 118800, Note_on_c, 10, 60, 100
10, 118860, Note_on_c, 10, 60, 0
10, 118920, Control_c, 10, 11, 47
10, 118920, Note_on_c, 10, 64, 100
10, 118929, Control_c, 10, 11, 50
10, 118938, Control_c, 10, 11, 53
10, 118947, Control_c, 10, 11, 56
10, 118956, Control_c, 10, 11, 59
10, 118965, Control_c, 10, 11, 62
10, 118974, Control_c, 10, 11, 65
10, 118980, Note_on_c, 10, 64, 0
10, 118983, Control_c, 10, 11, 68
10, 118992, Control_c, 10, 11, 71
10, 119001, Control_c, 10, 11, 74
10, 119010, Control_c, 10, 11, 77
10, 119019, Control_c, 10, 11, 80
10, 119028, Control_c, 10, 11, 83
10, 119037, Control_c, 10, 11, 86
10, 119040, Note_on_c, 10, 65, 100
10, 119100, Note_on_c, 10, 65, 0
10, 119640, Control_c, 10, 11, 47
10, 119640, Note_on_c, 10, 65, 100
10, 119700, Note_on_c, 10, 65, 0
10, 119760, Note_on_c, 10, 64, 100
10, 119820, Note_on_c, 10, 64, 0
10, 119880, Note_on_c, 10, 65, 100
10, 119940, Note_on_c, 10, 65, 0
10, 120000, Note_on_c, 10, 67, 100
10, 120120, Note_on_c, 10, 67, 0
10, 120120, Note_on_c, 10, 64, 100
10, 120230, Note_on_c, 10, 64, 0
10, 120240, Note_on_c, 10, 60, 100
10, 120300, Note_on_c, 10, 60, 0
10, 120360, Note_on_c, 10, 58, 100
10, 120420, Note_on_c, 10, 58, 0
10, 120480, Note_on_c, 10, 56, 100
10, 120540, Note_on_c, 10, 56, 0
10, 120600, Note_on_c, 10, 60, 100
10, 120660, Note_on_c, 10, 60, 0
10, 120720, Note_on_c, 10, 65, 100
10, 120780, Note_on_c, 10, 65, 0
10, 120840, Note_on_c, 10, 67, 100
10, 120900, Note_on_c, 10, 67, 0
10, 120960, Control_c, 10, 11, 72
10, 120960, Note_on_c, 10, 68, 100
10, 120964, Control_c, 10, 11, 75
10, 120969, Control_c, 10, 11, 78
10, 120973, Control_c, 10, 11, 81
10, 120996, Control_c, 10, 11, 79
10, 121009, Control_c, 10, 11, 76
10, 121023, Control_c, 10, 11, 73
10, 121036, Control_c, 10, 11, 70
10, 121050, Control_c, 10, 11, 67
10, 121063, Control_c, 10, 11, 64
10, 121077, Control_c, 10, 11, 61
10, 121080, Note_on_c, 10, 68, 0
10, 121080, Note_on_c, 10, 65, 100
10, 121090, Control_c, 10, 11, 58
10, 121104, Control_c, 10, 11, 55
10, 121117, Control_c, 10, 11, 52
10, 121131, Control_c, 10, 11, 49
10, 121190, Note_on_c, 10, 65, 0
10, 121200, Note_on_c, 10, 62, 100
10, 121260, Note_on_c, 10, 62, 0
10, 121320, Note_on_c, 10, 60, 100
10, 121380, Note_on_c, 10, 60, 0
10, 121440, Note_on_c, 10, 59, 100
10, 121500, Note_on_c, 10, 59, 0
10, 121560, Note_on_c, 10, 62, 100
10, 121620, Note_on_c, 10, 62, 0
10, 121680, Note_on_c, 10, 65, 100
10, 121740, Note_on_c, 10, 65, 0
10, 121800, Note_on_c, 10, 67, 100
10, 121860, Note_on_c, 10, 67, 0
10, 121920, Control_c, 10, 11, 72
10, 121920, Note_on_c, 10, 68, 100
10, 121924, Control_c, 10, 11, 75
10, 121929, Control_c, 10, 11, 78
10, 121933, Control_c, 10, 11, 81
10, 121956, Control_c, 10, 11, 79
10, 121969, Control_c, 10, 11, 76
10, 121983, Control_c, 10, 11, 73
10, 121996, Control_c, 10, 11, 70
10, 122010, Control_c, 10, 11, 67
10, 122023, Control_c, 10, 11, 64
10, 122037, Control_c, 10, 11, 61
10, 122040, Note_on_c, 10, 68, 0
10, 122040, Note_on_c, 10, 65, 100
10, 122050, Control_c, 10, 11, 58
10, 122064, Control_c, 10, 11, 55
10, 122077, Control_c, 10, 11, 52
10, 122091, Control_c, 10, 11, 49
10, 122150, Note_on_c, 10, 65, 0
10, 122160, Note_on_c, 10, 62, 100
10, 122220, Note_on_c, 10, 62, 0
10, 122280, Note_on_c, 10, 60, 100
10, 122340, Note_on_c, 10, 60, 0
10, 122400, Note_on_c, 10, 59, 100
10, 122460, Note_on_c, 10, 59, 0
10, 122520, Note_on_c, 10, 62, 100
10, 122580, Note_on_c, 10, 62, 0
10, 122640, Note_on_c, 10, 65, 100
10, 122700, Note_on_c, 10, 65, 0
10, 122760, Note_on_c, 10, 67, 100
10, 122820, Note_on_c, 10, 67, 0
10, 123360, Note_on_c, 10, 75, 85
10, 123420, Note_on_c, 10, 75, 0
10, 123480, Note_on_c, 10, 77, 85
10, 123540, Note_on_c, 10, 77, 0
10, 123600, Note_on_c, 10, 79, 85
10, 123660, Note_on_c, 10, 79, 0
10, 123720, Note_on_c, 10, 80, 85
10, 123780, Note_on_c, 10, 80, 0
10, 125760, Control_c, 10, 11, 47
10, 125760, Note_on_c, 10, 72, 85
10, 125880, Note_on_c, 10, 72, 0
10, 125880, Note_on_c, 10, 70, 92
10, 126000, Note_on_c, 10, 70, 0
10, 126000, Note_on_c, 10, 68, 100
10, 126120, Note_on_c, 10, 68, 0
10, 126120, Note_on_c, 10, 67, 100
10, 126225, Note_on_c, 10, 67, 0
10, 126240, Note_on_c, 10, 65, 100
10, 126360, Note_on_c, 10, 65, 0
10, 126360, Note_on_c, 10, 63, 100
10, 126480, Note_on_c, 10, 63, 0
10, 126480, Note_on_c, 10, 62, 100
10, 126600, Note_on_c, 10, 62, 0
10, 126600, Note_on_c, 10, 60, 100
10, 126705, Note_on_c, 10, 60, 0
10, 126720, Note_on_c, 10, 59, 100
10, 127320, Note_on_c, 10, 59, 0
10, 127320, Note_on_c, 10, 60, 100
10, 127440, Note_on_c, 10, 60, 0
10, 127440, Note_on_c, 10, 62, 100
10, 127560, Note_on_c, 10, 62, 0
10, 127560, Note_on_c, 10, 63, 100
10, 127665, Note_on_c, 10, 63, 0
10, 127680, Note_on_c, 10, 59, 100
10, 128280, Note_on_c, 10, 59, 0
10, 128280, Note_on_c, 10, 60, 100
10, 128400, Note_on_c, 10, 60, 0
10, 128400, Note_on_c, 10, 62, 100
10, 128520, Note_on_c, 10, 62, 0
10, 128520, Note_on_c, 10, 63, 100
10, 128625, Note_on_c, 10, 63, 0
10, 128640, Note_on_c, 10, 59, 100
10, 128760, Note_on_c, 10, 59, 0
10, 129600, Note_on_c, 10, 57, 100
10, 129720, Note_on_c, 10, 57, 0
10, 129720, Note_on_c, 10, 58, 100
10, 129840, Note_on_c, 10, 58, 0
10, 129840, Note_on_c, 10, 59, 100
10, 129960, Note_on_c, 10, 59, 0
10, 129960, Note_on_c, 10, 58, 100
10, 130080, Note_on_c, 10, 58, 0
10, 130080, Note_on_c, 10, 59, 100
10, 130200, Note_on_c, 10, 59, 0
10, 130200, Note_on_c, 10, 60, 100
10, 130320, Note_on_c, 10, 60, 0
10, 130320, Note_on_c, 10, 61, 100
10, 130440, Note_on_c, 10, 61, 0
10, 130440, Note_on_c, 10, 60, 100
10, 130560, Note_on_c, 10, 60, 0
10, 130560, Control_c, 10, 11, 47
10, 130560, Note_on_c, 10, 61, 100
10, 130608, Control_c, 10, 11, 48
10, 130656, Control_c, 10, 11, 49
10, 130680, Note_on_c, 10, 61, 0
10, 130680, Note_on_c, 10, 62, 100
10, 130704, Control_c, 10, 11, 50
10, 130752, Control_c, 10, 11, 51
10, 130800, Note_on_c, 10, 62, 0
10, 130800, Control_c, 10, 11, 52
10, 130800, Note_on_c, 10, 63, 100
10, 130848, Control_c, 10, 11, 53
10, 130896, Control_c, 10, 11, 54
10, 130920, Note_on_c, 10, 63, 0
10, 130920, Note_on_c, 10, 64, 100
10, 130944, Control_c, 10, 11, 55
10, 130992, Control_c, 10, 11, 56
10, 131040, Note_on_c, 10, 64, 0
10, 131040, Control_c, 10, 11, 57
10, 131040, Note_on_c, 10, 65, 100
10, 131088, Control_c, 10, 11, 58
10, 131136, Control_c, 10, 11, 59
10, 131160, Note_on_c, 10, 65, 0
10, 131160, Note_on_c, 10, 66, 100
10, 131184, Control_c, 10, 11, 60
10, 131232, Control_c, 10, 11, 61
10, 131280, Note_on_c, 10, 66, 0
10, 131280, Control_c, 10, 11, 62
10, 131280, Note_on_c, 10, 67, 100
10, 131328, Control_c, 10, 11, 63
10, 131376, Control_c, 10, 11, 64
10, 131400, Note_on_c, 10, 67, 0
10, 131400, Note_on_c, 10, 68, 100
10, 131424, Control_c, 10, 11, 65
10, 131472, Control_c, 10, 11, 66
10, 131520, Note_on_c, 10, 68, 0
10, 131520, Control_c, 10, 11, 67
10, 131520, Note_on_c, 10, 69, 100
10, 131568, Control_c, 10, 11, 68
10, 131616, Control_c, 10, 11, 69
10, 131640, Note_on_c, 10, 69, 0
10, 131640, Note_on_c, 10, 64, 100
10, 131664, Control_c, 10, 11, 70
10, 131712, Control_c, 10, 11, 71
10, 131760, Note_on_c, 10, 64, 0
10, 131760, Control_c, 10, 11, 72
10, 131760, Note_on_c, 10, 65, 100
10, 131779, Control_c, 10, 11, 70
10, 131798, Control_c, 10, 11, 68
10, 131817, Control_c, 10, 11, 66
10, 131836, Control_c, 10, 11, 64
10, 131856, Control_c, 10, 11, 62
10, 131865, Note_on_c, 10, 65, 0
10, 131875, Control_c, 10, 11, 60
10, 131880, Note_on_c, 10, 61, 100
10, 131894, Control_c, 10, 11, 58
10, 131913, Control_c, 10, 11, 56
10, 131932, Control_c, 10, 11, 54
10, 131952, Control_c, 10, 11, 52
10, 131971, Control_c, 10, 11, 50
10, 131990, Control_c, 10, 11, 48
10, 132000, Note_on_c, 10, 61, 0
10, 132000, Note_on_c, 10, 62, 100
10, 132120, Note_on_c, 10, 62, 0
10, 132120, Note_on_c, 10, 65, 100
10, 132240, Note_on_c, 10, 65, 0
10, 132240, Note_on_c, 10, 57, 100
10, 132360, Note_on_c, 10, 57, 0
10, 132360, Note_on_c, 10, 59, 100
10, 132480, Note_on_c, 10, 59, 0
10, 132480, Note_on_c, 10, 60, 85
10, 132720, Note_on_c, 10, 60, 0
10, 132840, Note_on_c, 10, 60, 110
10, 132900, Note_on_c, 10, 60, 0
10, 132960, Control_c, 10, 11, 47
10, 132960, Note_on_c, 10, 59, 110
10, 133080, Note_on_c, 10, 59, 0
10, 133080, Note_on_c, 10, 60, 110
10, 133140, Control_c, 10, 11, 48
10, 133185, Note_on_c, 10, 60, 0
10, 133200, Note_on_c, 10, 55, 110
10, 133260, Note_on_c, 10, 55, 0
10, 133320, Control_c, 10, 11, 49
10, 133320, Note_on_c, 10, 57, 110
10, 133380, Note_on_c, 10, 57, 0
10, 133430, Note_on_c, 10, 55, 121
10, 133450, Note_on_c, 10, 55, 0
10, 133450, Note_on_c, 10, 59, 121
10, 133470, Note_on_c, 10, 59, 0
10, 133470, Note_on_c, 10, 57, 110
10, 133500, Control_c, 10, 11, 50
10, 133560, Note_on_c, 10, 57, 0
10, 133560, Note_on_c, 10, 55, 110
10, 133680, Note_on_c, 10, 55, 0
10, 133680, Control_c, 10, 11, 51
10, 133800, Note_on_c, 10, 60, 110
10, 133860, Note_on_c, 10, 60, 0
10, 133860, Control_c, 10, 11, 52
10, 133920, Note_on_c, 10, 59, 110
10, 134040, Note_on_c, 10, 59, 0
10, 134040, Control_c, 10, 11, 53
10, 134040, Note_on_c, 10, 60, 110
10, 134145, Note_on_c, 10, 60, 0
10, 134160, Note_on_c, 10, 55, 110
10, 134220, Note_on_c, 10, 55, 0
10, 134220, Control_c, 10, 11, 54
10, 134280, Note_on_c, 10, 57, 110
10, 134340, Note_on_c, 10, 57, 0
10, 134390, Note_on_c, 10, 55, 121
10, 134400, Control_c, 10, 11, 55
10, 134410, Note_on_c, 10, 55, 0
10, 134410, Note_on_c, 10, 59, 121
10, 134430, Note_on_c, 10, 59, 0
10, 134430, Note_on_c, 10, 57, 110
10, 134520, Note_on_c, 10, 57, 0
10, 134520, Note_on_c, 10, 55, 110
10, 134580, Control_c, 10, 11, 56
10, 134640, Note_on_c, 10, 55, 0
10, 134760, Control_c, 10, 11, 57
10, 134760, Note_on_c, 10, 62, 110
10, 134820, Note_on_c, 10, 62, 0
10, 134880, Note_on_c, 10, 61, 110
10, 134940, Control_c, 10, 11, 58
10, 135000, Note_on_c, 10, 61, 0
10, 135000, Note_on_c, 10, 62, 110
10, 135105, Note_on_c, 10, 62, 0
10, 135120, Control_c, 10, 11, 59
10, 135120, Note_on_c, 10, 55, 110
10, 135180, Note_on_c, 10, 55, 0
10, 135240, Note_on_c, 10, 57, 110
10, 135300, Note_on_c, 10, 57, 0
10, 135300, Control_c, 10, 11, 60
10, 135350, Note_on_c, 10, 55, 121
10, 135370, Note_on_c, 10, 55, 0
10, 135370, Note_on_c, 10, 59, 121
10, 135390, Note_on_c, 10, 59, 0
10, 135390, Note_on_c, 10, 57, 110
10, 135480, Note_on_c, 10, 57, 0
10, 135480, Control_c, 10, 11, 61
10, 135480, Note_on_c, 10, 55, 110
10, 135600, Note_on_c, 10, 55, 0
10, 135660, Control_c, 10, 11, 62
10, 135720, Note_on_c, 10, 62, 110
10, 135780, Note_on_c, 10, 62, 0
10, 135840, Control_c, 10, 11, 63
10, 135840, Note_on_c, 10, 61, 110
10, 135960, Note_on_c, 10, 61, 0
10, 135960, Note_on_c, 10, 62, 110
10, 136020, Control_c, 10, 11, 64
10, 136065, Note_on_c, 10, 62, 0
10, 136080, Note_on_c, 10, 55, 110
10, 136140, Note_on_c, 10, 55, 0
10, 136200, Control_c, 10, 11, 65
10, 136200, Note_on_c, 10, 57, 110
10, 136260, Note_on_c, 10, 57, 0
10, 136310, Note_on_c, 10, 55, 121
10, 136330, Note_on_c, 10, 55, 0
10, 136330, Note_on_c, 10, 59, 121
10, 136350, Note_on_c, 10, 59, 0
10, 136350, Note_on_c, 10, 57, 110
10, 136380, Control_c, 10, 11, 66
10, 136440, Note_on_c, 10, 57, 0
10, 136440, Note_on_c, 10, 55, 110
10, 136560, Note_on_c, 10, 55, 0
10, 136560, Control_c, 10, 11, 67
10, 136680, Note_on_c, 10, 72, 100
10, 136740, Note_on_c, 10, 72, 0
10, 136740, Control_c, 10, 11, 68
10, 136800, Note_on_c, 10, 71, 100
10, 136920, Note_on_c, 10, 71, 0
10, 136920, Control_c, 10, 11, 69
10, 136920, Note_on_c, 10, 72, 100
10, 137025, Note_on_c, 10, 72, 0
10, 137040, Note_on_c, 10, 67, 100
10, 137100, Note_on_c, 10, 67, 0
10, 137100, Control_c, 10, 11, 70
10, 137160, Note_on_c, 10, 69, 100
10, 137220, Note_on_c, 10, 69, 0
10, 137270, Note_on_c, 10, 67, 110
10, 137280, Control_c, 10, 11, 71
10, 137290, Note_on_c, 10, 67, 0
10, 137290, Note_on_c, 10, 71, 110
10, 137310, Note_on_c, 10, 71, 0
10, 137310, Note_on_c, 10, 69, 100
10, 137400, Note_on_c, 10, 69, 0
10, 137400, Note_on_c, 10, 67, 100
10, 137460, Control_c, 10, 11, 72
10, 137505, Note_on_c, 10, 67, 0
10, 137520, Note_on_c, 10, 72, 100
10, 137580, Note_on_c, 10, 72, 0
10, 137640, Control_c, 10, 11, 73
10, 137640, Note_on_c, 10, 72, 100
10, 137700, Note_on_c, 10, 72, 0
10, 137760, Note_on_c, 10, 71, 100
10, 137820, Control_c, 10, 11, 74
10, 137880, Note_on_c, 10, 71, 0
10, 137880, Note_on_c, 10, 72, 100
10, 137985, Note_on_c, 10, 72, 0
10, 138000, Control_c, 10, 11, 75
10, 138000, Note_on_c, 10, 67, 100
10, 138060, Note_on_c, 10, 67, 0
10, 138120, Note_on_c, 10, 69, 100
10, 138180, Note_on_c, 10, 69, 0
10, 138180, Control_c, 10, 11, 76
10, 138230, Note_on_c, 10, 67, 110
10, 138250, Note_on_c, 10, 67, 0
10, 138250, Note_on_c, 10, 71, 110
10, 138270, Note_on_c, 10, 71, 0
10, 138270, Note_on_c, 10, 69, 100
10, 138360, Note_on_c, 10, 69, 0
10, 138360, Control_c, 10, 11, 77
10, 138360, Note_on_c, 10, 67, 100
10, 138465, Note_on_c, 10, 67, 0
10, 138480, Note_on_c, 10, 74, 100
10, 138540, Note_on_c, 10, 74, 0
10, 138540, Control_c, 10, 11, 78
10, 138600, Note_on_c, 10, 74, 100
10, 138660, Note_on_c, 10, 74, 0
10, 138720, Control_c, 10, 11, 79
10, 138720, Note_on_c, 10, 73, 100
10, 138840, Note_on_c, 10, 73, 0
10, 138840, Note_on_c, 10, 74, 100
10, 138900, Control_c, 10, 11, 80
10, 138945, Note_on_c, 10, 74, 0
10, 138960, Note_on_c, 10, 67, 100
10, 139020, Note_on_c, 10, 67, 0
10, 139080, Control_c, 10, 11, 81
10, 139080, Note_on_c, 10, 69, 100
10, 139140, Note_on_c, 10, 69, 0
10, 139190, Note_on_c, 10, 67, 110
10, 139210, Note_on_c, 10, 67, 0
10, 139210, Note_on_c, 10, 71, 110
10, 139230, Note_on_c, 10, 71, 0
10, 139230, Note_on_c, 10, 69, 100
10, 139260, Control_c, 10, 11, 82
10, 139320, Note_on_c, 10, 69, 0
10, 139320, Note_on_c, 10, 67, 100
10, 139425, Note_on_c, 10, 67, 0
10, 139440, Control_c, 10, 11, 83
10, 139440, Note_on_c, 10, 74, 100
10, 139500, Note_on_c, 10, 74, 0
10, 139560, Note_on_c, 10, 74, 100
10, 139620, Note_on_c, 10, 74, 0
10, 139620, Control_c, 10, 11, 84
10, 139680, Note_on_c, 10, 73, 100
10, 139800, Note_on_c, 10, 73, 0
10, 139800, Control_c, 10, 11, 85
10, 139800, Note_on_c, 10, 74, 100
10, 139905, Note_on_c, 10, 74, 0
10, 139920, Note_on_c, 10, 67, 100
10, 139980, Note_on_c, 10, 67, 0
10, 139980, Control_c, 10, 11, 86
10, 140040, Note_on_c, 10, 69, 100
10, 140100, Note_on_c, 10, 69, 0
10, 140160, Control_c, 10, 11, 87
10, 140160, Note_on_c, 10, 67, 100
10, 140265, Note_on_c, 10, 67, 0
10, 140280, Note_on_c, 10, 84, 123
10, 140321, Note_on_c, 10, 84, 0
10, 140340, Note_on_c, 10, 84, 115
10, 140381, Note_on_c, 10, 84, 0
10, 140400, Note_on_c, 10, 84, 123
10, 140441, Note_on_c, 10, 84, 0
10, 140460, Note_on_c, 10, 84, 115
10, 140501, Note_on_c, 10, 84, 0
10, 140520, Note_on_c, 10, 84, 123
10, 140561, Note_on_c, 10, 84, 0
10, 140580, Note_on_c, 10, 84, 115
10, 140621, Note_on_c, 10, 84, 0
10, 140640, Note_on_c, 10, 83, 123
10, 140681, Note_on_c, 10, 83, 0
10, 140700, Note_on_c, 10, 83, 115
10, 140741, Note_on_c, 10, 83, 0
10, 140760, Note_on_c, 10, 84, 123
10, 140801, Note_on_c, 10, 84, 0
10, 140820, Note_on_c, 10, 84, 115
10, 140861, Note_on_c, 10, 84, 0
10, 140880, Note_on_c, 10, 79, 123
10, 140921, Note_on_c, 10, 79, 0
10, 140940, Note_on_c, 10, 79, 115
10, 140981, Note_on_c, 10, 79, 0
10, 141000, Note_on_c, 10, 81, 123
10, 141041, Note_on_c, 10, 81, 0
10, 141060, Note_on_c, 10, 81, 115
10, 141101, Note_on_c, 10, 81, 0
10, 141120, Note_on_c, 10, 81, 123
10, 141161, Note_on_c, 10, 81, 0
10, 141180, Note_on_c, 10, 81, 115
10, 141221, Note_on_c, 10, 81, 0
10, 141240, Note_on_c, 10, 79, 123
10, 141281, Note_on_c, 10, 79, 0
10, 141300, Note_on_c, 10, 79, 115
10, 141341, Note_on_c, 10, 79, 0
10, 141360, Note_on_c, 10, 84, 123
10, 141401, Note_on_c, 10, 84, 0
10, 141420, Note_on_c, 10, 84, 115
10, 141461, Note_on_c, 10, 84, 0
10, 141480, Note_on_c, 10, 84, 123
10, 141521, Note_on_c, 10, 84, 0
10, 141540, Note_on_c, 10, 84, 115
10, 141581, Note_on_c, 10, 84, 0
10, 141600, Note_on_c, 10, 83, 123
10, 141641, Note_on_c, 10, 83, 0
10, 141660, Note_on_c, 10, 83, 115
10, 141701, Note_on_c, 10, 83, 0
10, 141720, Note_on_c, 10, 84, 123
10, 141761, Note_on_c, 10, 84, 0
10, 141780, Note_on_c, 10, 84, 115
10, 141821, Note_on_c, 10, 84, 0
10, 141840, Note_on_c, 10, 79, 123
10, 141881, Note_on_c, 10, 79, 0
10, 141900, Note_on_c, 10, 79, 115
10, 141941, Note_on_c, 10, 79, 0
10, 141960, Note_on_c, 10, 81, 123
10, 142001, Note_on_c, 10, 81, 0
10, 142020, Note_on_c, 10, 81, 115
10, 142061, Note_on_c, 10, 81, 0
10, 142080, Control_c, 10, 11, 87
10, 142080, Note_on_c, 10, 81, 123
10, 142121, Note_on_c, 10, 81, 0
10, 142140, Note_on_c, 10, 81, 115
10, 142176, Control_c, 10, 11, 88
10, 142181, Note_on_c, 10, 81, 0
10, 142200, Note_on_c, 10, 79, 123
10, 142241, Note_on_c, 10, 79, 0
10, 142260, Note_on_c, 10, 79, 115
10, 142272, Control_c, 10, 11, 89
10, 142301, Note_on_c, 10, 79, 0
10, 142320, Note_on_c, 10, 86, 123
10, 142361, Note_on_c, 10, 86, 0
10, 142368, Control_c, 10, 11, 90
10, 142380, Note_on_c, 10, 86, 115
10, 142421, Note_on_c, 10, 86, 0
10, 142440, Note_on_c, 10, 86, 123
10, 142464, Control_c, 10, 11, 91
10, 142481, Note_on_c, 10, 86, 0
10, 142500, Note_on_c, 10, 86, 115
10, 142541, Note_on_c, 10, 86, 0
10, 142560, Control_c, 10, 11, 92
10, 142560, Note_on_c, 10, 85, 123
10, 142601, Note_on_c, 10, 85, 0
10, 142620, Note_on_c, 10, 85, 115
10, 142656, Control_c, 10, 11, 93
10, 142661, Note_on_c, 10, 85, 0
10, 142680, Note_on_c, 10, 86, 123
10, 142721, Note_on_c, 10, 86, 0
10, 142740, Note_on_c, 10, 86, 115
10, 142752, Control_c, 10, 11, 94
10, 142781, Note_on_c, 10, 86, 0
10, 142800, Note_on_c, 10, 79, 123
10, 142841, Note_on_c, 10, 79, 0
10, 142848, Control_c, 10, 11, 95
10, 142860, Note_on_c, 10, 79, 115
10, 142901, Note_on_c, 10, 79, 0
10, 142920, Note_on_c, 10, 81, 123
10, 142944, Control_c, 10, 11, 96
10, 142961, Note_on_c, 10, 81, 0
10, 142980, Note_on_c, 10, 81, 115
10, 143021, Note_on_c, 10, 81, 0
10, 143040, Control_c, 10, 11, 97
10, 143040, Note_on_c, 10, 81, 123
10, 143081, Note_on_c, 10, 81, 0
10, 143100, Note_on_c, 10, 81, 115
10, 143136, Control_c, 10, 11, 98
10, 143141, Note_on_c, 10, 81, 0
10, 143160, Note_on_c, 10, 79, 123
10, 143201, Note_on_c, 10, 79, 0
10, 143220, Note_on_c, 10, 79, 115
10, 143232, Control_c, 10, 11, 99
10, 143261, Note_on_c, 10, 79, 0
10, 143280, Note_on_c, 10, 86, 123
10, 143321, Note_on_c, 10, 86, 0
10, 143328, Control_c, 10, 11, 100
10, 143340, Note_on_c, 10, 86, 115
10, 143381, Note_on_c, 10, 86, 0
10, 143400, Note_on_c, 10, 86, 123
10, 143424, Control_c, 10, 11, 101
10, 143441, Note_on_c, 10, 86, 0
10, 143460, Note_on_c, 10, 86, 115
10, 143501, Note_on_c, 10, 86, 0
10, 143520, Control_c, 10, 11, 102
10, 143520, Note_on_c, 10, 85, 123
10, 143561, Note_on_c, 10, 85, 0
10, 143580, Note_on_c, 10, 85, 115
10, 143616, Control_c, 10, 11, 103
10, 143621, Note_on_c, 10, 85, 0
10, 143640, Note_on_c, 10, 86, 123
10, 143681, Note_on_c, 10, 86, 0
10, 143700, Note_on_c, 10, 86, 115
10, 143712, Control_c, 10, 11, 104
10, 143741, Note_on_c, 10, 86, 0
10, 143760, Note_on_c, 10, 79, 123
10, 143801, Note_on_c, 10, 79, 0
10, 143808, Control_c, 10, 11, 105
10, 143820, Note_on_c, 10, 79, 115
10, 143861, Note_on_c, 10, 79, 0
10, 143880, Note_on_c, 10, 81, 123
10, 143904, Control_c, 10, 11, 106
10, 143921, Note_on_c, 10, 81, 0
10, 143940, Note_on_c, 10, 81, 115
10, 143981, Note_on_c, 10, 81, 0
10, 144000, Control_c, 10, 11, 125
10, 144000, Note_on_c, 10, 84, 107
10, 144023, Control_c, 10, 11, 122
10, 144047, Control_c, 10, 11, 118
10, 144071, Control_c, 10, 11, 115
10, 144095, Control_c, 10, 11, 111
10, 144119, Control_c, 10, 11, 107
10, 144302, Note_on_c, 10, 84, 0
10, 144360, Note_on_c, 10, 86, 117
10, 144446, Note_on_c, 10, 86, 0
10, 144480, Control_c, 10, 11, 125
10, 144480, Note_on_c, 10, 86, 107
10, 144503, Control_c, 10, 11, 122
10, 144527, Control_c, 10, 11, 118
10, 144551, Control_c, 10, 11, 115
10, 144575, Control_c, 10, 11, 111
10, 144599, Control_c, 10, 11, 107
10, 144782, Note_on_c, 10, 86, 0
10, 144840, Note_on_c, 10, 84, 117
10, 144926, Note_on_c, 10, 84, 0
10, 144960, Control_c, 10, 11, 125
10, 144960, Note_on_c, 10, 84, 107
10, 144983, Control_c, 10, 11, 122
10, 145007, Control_c, 10, 11, 118
10, 145031, Control_c, 10, 11, 115
10, 145055, Control_c, 10, 11, 111
10, 145079, Control_c, 10, 11, 107
10, 145262, Note_on_c, 10, 84, 0
10, 145320, Note_on_c, 10, 93, 117
10, 145406, Note_on_c, 10, 93, 0
10, 145440, Control_c, 10, 11, 125
10, 145440, Note_on_c, 10, 93, 107
10, 145463, Control_c, 10, 11, 122
10, 145487, Control_c, 10, 11, 118
10, 145511, Control_c, 10, 11, 115
10, 145535, Control_c, 10, 11, 111
10, 145559, Control_c, 10, 11, 107
10, 145742, Note_on_c, 10, 93, 0
10, 145800, Note_on_c, 10, 91, 117
10, 145886, Note_on_c, 10, 91, 0
10, 145920, Note_on_c, 10, 91, 114
10, 145980, Note_on_c, 10, 91, 0
10, 146040, Note_on_c, 10, 89, 107
10, 146100, Note_on_c, 10, 89, 0
10, 146160, Note_on_c, 10, 89, 114
10, 146220, Note_on_c, 10, 89, 0
10, 146280, Note_on_c, 10, 88, 107
10, 146340, Note_on_c, 10, 88, 0
10, 146400, Note_on_c, 10, 88, 114
10, 146460, Note_on_c, 10, 88, 0
10, 146520, Note_on_c, 10, 93, 107
10, 146580, Note_on_c, 10, 93, 0
10, 146640, Note_on_c, 10, 93, 114
10, 146700, Note_on_c, 10, 93, 0
10, 146760, Note_on_c, 10, 92, 107
10, 146820, Note_on_c, 10, 92, 0
10, 146880, Note_on_c, 10, 92, 114
10, 146940, Note_on_c, 10, 92, 0
10, 147000, Note_on_c, 10, 93, 107
10, 147060, Note_on_c, 10, 93, 0
10, 147120, Note_on_c, 10, 81, 114
10, 147180, Note_on_c, 10, 81, 0
10, 147240, Note_on_c, 10, 83, 107
10, 147300, Note_on_c, 10, 83, 0
10, 147360, Note_on_c, 10, 83, 114
10, 147420, Note_on_c, 10, 83, 0
10, 147480, Note_on_c, 10, 84, 107
10, 147540, Note_on_c, 10, 84, 0
10, 147600, Note_on_c, 10, 84, 114
10, 147660, Note_on_c, 10, 84, 0
10, 147720, Note_on_c, 10, 86, 107
10, 147780, Note_on_c, 10, 86, 0
10, 147840, Control_c, 10, 11, 122
10, 147840, Note_on_c, 10, 74, 117
10, 147863, Control_c, 10, 11, 120
10, 147887, Control_c, 10, 11, 118
10, 147894, Note_on_c, 10, 74, 0
10, 147900, Note_on_c, 10, 86, 117
10, 147911, Control_c, 10, 11, 116
10, 147935, Control_c, 10, 11, 114
10, 147945, Note_on_c, 10, 86, 0
10, 147959, Control_c, 10, 11, 112
10, 147960, Note_on_c, 10, 86, 117
10, 147983, Control_c, 10, 11, 110
10, 148005, Note_on_c, 10, 86, 0
10, 148007, Control_c, 10, 11, 108
10, 148020, Note_on_c, 10, 86, 117
10, 148031, Control_c, 10, 11, 106
10, 148055, Control_c, 10, 11, 104
10, 148065, Note_on_c, 10, 86, 0
10, 148079, Control_c, 10, 11, 102
10, 148080, Note_on_c, 10, 86, 117
10, 148125, Note_on_c, 10, 86, 0
10, 148140, Note_on_c, 10, 86, 117
10, 148185, Note_on_c, 10, 86, 0
10, 148200, Note_on_c, 10, 86, 117
10, 148245, Note_on_c, 10, 86, 0
10, 148260, Note_on_c, 10, 86, 117
10, 148305, Note_on_c, 10, 86, 0
10, 148320, Note_on_c, 10, 86, 117
10, 148365, Note_on_c, 10, 86, 0
10, 148380, Note_on_c, 10, 86, 117
10, 148425, Note_on_c, 10, 86, 0
10, 148440, Note_on_c, 10, 86, 117
10, 148485, Note_on_c, 10, 86, 0
10, 148500, Note_on_c, 10, 86, 117
10, 148545, Note_on_c, 10, 86, 0
10, 148560, Note_on_c, 10, 86, 117
10, 148605, Note_on_c, 10, 86, 0
10, 148620, Note_on_c, 10, 86, 117
10, 148665, Note_on_c, 10, 86, 0
10, 148680, Note_on_c, 10, 86, 117
10, 148725, Note_on_c, 10, 86, 0
10, 148740, Note_on_c, 10, 86, 117
10, 148785, Note_on_c, 10, 86, 0
10, 148800, Control_c, 10, 11, 122
10, 148800, Note_on_c, 10, 76, 117
10, 148823, Control_c, 10, 11, 120
10, 148847, Control_c, 10, 11, 118
10, 148854, Note_on_c, 10, 76, 0
10, 148860, Note_on_c, 10, 88, 117
10, 148871, Control_c, 10, 11, 116
10, 148895, Control_c, 10, 11, 114
10, 148905, Note_on_c, 10, 88, 0
10, 148919, Control_c, 10, 11, 112
10, 148920, Note_on_c, 10, 88, 117
10, 148943, Control_c, 10, 11, 110
10, 148965, Note_on_c, 10, 88, 0
10, 148967, Control_c, 10, 11, 108
10, 148980, Note_on_c, 10, 88, 117
10, 148991, Control_c, 10, 11, 106
10, 149015, Control_c, 10, 11, 104
10, 149025, Note_on_c, 10, 88, 0
10, 149039, Control_c, 10, 11, 102
10, 149040, Note_on_c, 10, 88, 117
10, 149085, Note_on_c, 10, 88, 0
10, 149100, Note_on_c, 10, 88, 117
10, 149145, Note_on_c, 10, 88, 0
10, 149160, Note_on_c, 10, 88, 117
10, 149205, Note_on_c, 10, 88, 0
10, 149220, Note_on_c, 10, 88, 117
10, 149265, Note_on_c, 10, 88, 0
10, 149280, Note_on_c, 10, 88, 117
10, 149325, Note_on_c, 10, 88, 0
10, 149340, Note_on_c, 10, 88, 117
10, 149385, Note_on_c, 10, 88, 0
10, 149400, Note_on_c, 10, 88, 117
10, 149445, Note_on_c, 10, 88, 0
10, 149460, Note_on_c, 10, 88, 117
10, 149505, Note_on_c, 10, 88, 0
10, 149520, Note_on_c, 10, 88, 117
10, 149565, Note_on_c, 10, 88, 0
10, 149580, Note_on_c, 10, 88, 117
10, 149625, Note_on_c, 10, 88, 0
10, 149640, Note_on_c, 10, 88, 117
10, 149685, Note_on_c, 10, 88, 0
10, 149700, Note_on_c, 10, 88, 117
10, 149745, Note_on_c, 10, 88, 0
10, 149760, Control_c, 10, 11, 122
10, 149760, Note_on_c, 10, 77, 117
10, 149783, Control_c, 10, 11, 120
10, 149807, Control_c, 10, 11, 118
10, 149814, Note_on_c, 10, 77, 0
10, 149820, Note_on_c, 10, 89, 117
10, 149831, Control_c, 10, 11, 116
10, 149855, Control_c, 10, 11, 114
10, 149865, Note_on_c, 10, 89, 0
10, 149879, Control_c, 10, 11, 112
10, 149880, Note_on_c, 10, 89, 117
10, 149903, Control_c, 10, 11, 110
10, 149925, Note_on_c, 10, 89, 0
10, 149927, Control_c, 10, 11, 108
10, 149940, Note_on_c, 10, 89, 117
10, 149951, Control_c, 10, 11, 106
10, 149975, Control_c, 10, 11, 104
10, 149985, Note_on_c, 10, 89, 0
10, 149999, Control_c, 10, 11, 102
10, 150000, Note_on_c, 10, 89, 117
10, 150045, Note_on_c, 10, 89, 0
10, 150060, Note_on_c, 10, 89, 117
10, 150105, Note_on_c, 10, 89, 0
10, 150120, Note_on_c, 10, 89, 117
10, 150165, Note_on_c, 10, 89, 0
10, 150180, Note_on_c, 10, 89, 117
10, 150225, Note_on_c, 10, 89, 0
10, 150240, Note_on_c, 10, 89, 117
10, 150285, Note_on_c, 10, 89, 0
10, 150300, Note_on_c, 10, 89, 117
10, 150345, Note_on_c, 10, 89, 0
10, 150360, Note_on_c, 10, 89, 117
10, 150405, Note_on_c, 10, 89, 0
10, 150420, Note_on_c, 10, 89, 117
10, 150465, Note_on_c, 10, 89, 0
10, 150480, Note_on_c, 10, 89, 117
10, 150525, Note_on_c, 10, 89, 0
10, 150540, Note_on_c, 10, 89, 117
10, 150585, Note_on_c, 10, 89, 0
10, 150600, Note_on_c, 10, 89, 117
10, 150645, Note_on_c, 10, 89, 0
10, 150660, Note_on_c, 10, 89, 117
10, 150705, Note_on_c, 10, 89, 0
10, 150720, Control_c, 10, 11, 122
10, 150720, Note_on_c, 10, 77, 117
10, 150743, Control_c, 10, 11, 120
10, 150767, Control_c, 10, 11, 118
10, 150774, Note_on_c, 10, 77, 0
10, 150780, Note_on_c, 10, 89, 117
10, 150791, Control_c, 10, 11, 116
10, 150815, Control_c, 10, 11, 114
10, 150825, Note_on_c, 10, 89, 0
10, 150839, Control_c, 10, 11, 112
10, 150840, Note_on_c, 10, 89, 117
10, 150863, Control_c, 10, 11, 110
10, 150885, Note_on_c, 10, 89, 0
10, 150887, Control_c, 10, 11, 108
10, 150900, Note_on_c, 10, 89, 117
10, 150911, Control_c, 10, 11, 106
10, 150935, Control_c, 10, 11, 104
10, 150945, Note_on_c, 10, 89, 0
10, 150959, Control_c, 10, 11, 102
10, 150960, Note_on_c, 10, 89, 117
10, 151005, Note_on_c, 10, 89, 0
10, 151020, Note_on_c, 10, 89, 117
10, 151065, Note_on_c, 10, 89, 0
10, 151080, Note_on_c, 10, 89, 117
10, 151125, Note_on_c, 10, 89, 0
10, 151140, Note_on_c, 10, 89, 117
10, 151185, Note_on_c, 10, 89, 0
10, 151200, Control_c, 10, 11, 122
10, 151200, Note_on_c, 10, 77, 117
10, 151223, Control_c, 10, 11, 120
10, 151247, Control_c, 10, 11, 118
10, 151254, Note_on_c, 10, 77, 0
10, 151260, Note_on_c, 10, 89, 117
10, 151271, Control_c, 10, 11, 116
10, 151295, Control_c, 10, 11, 114
10, 151305, Note_on_c, 10, 89, 0
10, 151319, Control_c, 10, 11, 112
10, 151320, Note_on_c, 10, 89, 117
10, 151343, Control_c, 10, 11, 110
10, 151365, Note_on_c, 10, 89, 0
10, 151367, Control_c, 10, 11, 108
10, 151380, Note_on_c, 10, 89, 117
10, 151391, Control_c, 10, 11, 106
10, 151415, Control_c, 10, 11, 104
10, 151425, Note_on_c, 10, 89, 0
10, 151439, Control_c, 10, 11, 102
10, 151440, Note_on_c, 10, 89, 117
10, 151485, Note_on_c, 10, 89, 0
10, 151500, Note_on_c, 10, 89, 117
10, 151545, Note_on_c, 10, 89, 0
10, 151560, Note_on_c, 10, 89, 117
10, 151605, Note_on_c, 10, 89, 0
10, 151620, Note_on_c, 10, 89, 117
10, 151665, Note_on_c, 10, 89, 0
10, 151680, Control_c, 10, 11, 122
10, 151680, Note_on_c, 10, 76, 117
10, 151703, Control_c, 10, 11, 120
10, 151727, Control_c, 10, 11, 118
10, 151734, Note_on_c, 10, 76, 0
10, 151740, Note_on_c, 10, 88, 117
10, 151751, Control_c, 10, 11, 116
10, 151775, Control_c, 10, 11, 114
10, 151785, Note_on_c, 10, 88, 0
10, 151799, Control_c, 10, 11, 112
10, 151800, Note_on_c, 10, 88, 117
10, 151823, Control_c, 10, 11, 110
10, 151845, Note_on_c, 10, 88, 0
10, 151847, Control_c, 10, 11, 108
10, 151860, Note_on_c, 10, 88, 117
10, 151871, Control_c, 10, 11, 106
10, 151895, Control_c, 10, 11, 104
10, 151905, Note_on_c, 10, 88, 0
10, 151919, Control_c, 10, 11, 102
10, 151920, Note_on_c, 10, 88, 117
10, 151965, Note_on_c, 10, 88, 0
10, 151980, Note_on_c, 10, 88, 117
10, 152025, Note_on_c, 10, 88, 0
10, 152040, Note_on_c, 10, 88, 117
10, 152085, Note_on_c, 10, 88, 0
10, 152100, Note_on_c, 10, 88, 117
10, 152145, Note_on_c, 10, 88, 0
10, 152160, Control_c, 10, 11, 122
10, 152160, Note_on_c, 10, 77, 117
10, 152183, Control_c, 10, 11, 120
10, 152207, Control_c, 10, 11, 118
10, 152214, Note_on_c, 10, 77, 0
10, 152220, Note_on_c, 10, 89, 117
10, 152231, Control_c, 10, 11, 116
10, 152255, Control_c, 10, 11, 114
10, 152265, Note_on_c, 10, 89, 0
10, 152279, Control_c, 10, 11, 112
10, 152280, Note_on_c, 10, 89, 117
10, 152303, Control_c, 10, 11, 110
10, 152325, Note_on_c, 10, 89, 0
10, 152327, Control_c, 10, 11, 108
10, 152340, Note_on_c, 10, 89, 117
10, 152351, Control_c, 10, 11, 106
10, 152375, Control_c, 10, 11, 104
10, 152385, Note_on_c, 10, 89, 0
10, 152399, Control_c, 10, 11, 102
10, 152400, Note_on_c, 10, 89, 117
10, 152445, Note_on_c, 10, 89, 0
10, 152460, Note_on_c, 10, 89, 117
10, 152505, Note_on_c, 10, 89, 0
10, 152520, Note_on_c, 10, 89, 117
10, 152565, Note_on_c, 10, 89, 0
10, 152580, Note_on_c, 10, 89, 117
10, 152625, Note_on_c, 10, 89, 0
10, 152640, Control_c, 10, 11, 122
10, 152640, Note_on_c, 10, 74, 117
10, 152663, Control_c, 10, 11, 120
10, 152687, Control_c, 10, 11, 118
10, 152694, Note_on_c, 10, 74, 0
10, 152700, Note_on_c, 10, 86, 117
10, 152711, Control_c, 10, 11, 116
10, 152735, Control_c, 10, 11, 114
10, 152745, Note_on_c, 10, 86, 0
10, 152759, Control_c, 10, 11, 112
10, 152760, Note_on_c, 10, 86, 117
10, 152783, Control_c, 10, 11, 110
10, 152805, Note_on_c, 10, 86, 0
10, 152807, Control_c, 10, 11, 108
10, 152820, Note_on_c, 10, 86, 117
10, 152831, Control_c, 10, 11, 106
10, 152855, Control_c, 10, 11, 104
10, 152865, Note_on_c, 10, 86, 0
10, 152879, Control_c, 10, 11, 102
10, 152880, Note_on_c, 10, 86, 117
10, 152925, Note_on_c, 10, 86, 0
10, 152940, Note_on_c, 10, 86, 117
10, 152985, Note_on_c, 10, 86, 0
10, 153000, Note_on_c, 10, 86, 117
10, 153045, Note_on_c, 10, 86, 0
10, 153060, Note_on_c, 10, 86, 117
10, 153105, Note_on_c, 10, 86, 0
10, 153120, Control_c, 10, 11, 122
10, 153120, Note_on_c, 10, 76, 117
10, 153143, Control_c, 10, 11, 120
10, 153167, Control_c, 10, 11, 118
10, 153174, Note_on_c, 10, 76, 0
10, 153180, Note_on_c, 10, 88, 117
10, 153191, Control_c, 10, 11, 116
10, 153215, Control_c, 10, 11, 114
10, 153225, Note_on_c, 10, 88, 0
10, 153239, Control_c, 10, 11, 112
10, 153240, Note_on_c, 10, 88, 117
10, 153263, Control_c, 10, 11, 110
10, 153285, Note_on_c, 10, 88, 0
10, 153287, Control_c, 10, 11, 108
10, 153300, Note_on_c, 10, 88, 117
10, 153311, Control_c, 10, 11, 106
10, 153335, Control_c, 10, 11, 104
10, 153345, Note_on_c, 10, 88, 0
10, 153359, Control_c, 10, 11, 102
10, 153360, Note_on_c, 10, 88, 117
10, 153405, Note_on_c, 10, 88, 0
10, 153420, Note_on_c, 10, 88, 117
10, 153465, Note_on_c, 10, 88, 0
10, 153480, Note_on_c, 10, 88, 117
10, 153525, Note_on_c, 10, 88, 0
10, 153540, Note_on_c, 10, 88, 117
10, 153585, Note_on_c, 10, 88, 0
10, 153600, Control_c, 10, 11, 122
10, 153600, Note_on_c, 10, 77, 117
10, 153623, Control_c, 10, 11, 120
10, 153647, Control_c, 10, 11, 118
10, 153654, Note_on_c, 10, 77, 0
10, 153660, Note_on_c, 10, 89, 117
10, 153671, Control_c, 10, 11, 116
10, 153695, Control_c, 10, 11, 114
10, 153705, Note_on_c, 10, 89, 0
10, 153719, Control_c, 10, 11, 112
10, 153720, Note_on_c, 10, 89, 117
10, 153743, Control_c, 10, 11, 110
10, 153765, Note_on_c, 10, 89, 0
10, 153767, Control_c, 10, 11, 108
10, 153780, Note_on_c, 10, 89, 117
10, 153791, Control_c, 10, 11, 106
10, 153815, Control_c, 10, 11, 104
10, 153825, Note_on_c, 10, 89, 0
10, 153839, Control_c, 10, 11, 102
10, 153840, Note_on_c, 10, 89, 117
10, 153885, Note_on_c, 10, 89, 0
10, 153900, Note_on_c, 10, 89, 117
10, 153945, Note_on_c, 10, 89, 0
10, 153960, Note_on_c, 10, 89, 117
10, 154005, Note_on_c, 10, 89, 0
10, 154020, Note_on_c, 10, 89, 117
10, 154065, Note_on_c, 10, 89, 0
10, 154080, Control_c, 10, 11, 122
10, 154080, Note_on_c, 10, 74, 117
10, 154103, Control_c, 10, 11, 120
10, 154127, Control_c, 10, 11, 118
10, 154134, Note_on_c, 10, 74, 0
10, 154140, Note_on_c, 10, 86, 117
10, 154151, Control_c, 10, 11, 116
10, 154175, Control_c, 10, 11, 114
10, 154185, Note_on_c, 10, 86, 0
10, 154199, Control_c, 10, 11, 112
10, 154200, Note_on_c, 10, 86, 117
10, 154223, Control_c, 10, 11, 110
10, 154245, Note_on_c, 10, 86, 0
10, 154247, Control_c, 10, 11, 108
10, 154260, Note_on_c, 10, 86, 117
10, 154271, Control_c, 10, 11, 106
10, 154295, Control_c, 10, 11, 104
10, 154305, Note_on_c, 10, 86, 0
10, 154319, Control_c, 10, 11, 102
10, 154320, Note_on_c, 10, 86, 117
10, 154365, Note_on_c, 10, 86, 0
10, 154380, Note_on_c, 10, 86, 117
10, 154425, Note_on_c, 10, 86, 0
10, 154440, Note_on_c, 10, 86, 117
10, 154485, Note_on_c, 10, 86, 0
10, 154500, Note_on_c, 10, 86, 117
10, 154545, Note_on_c, 10, 86, 0
10, 154560, Control_c, 10, 11, 122
10, 154560, Note_on_c, 10, 76, 117
10, 154583, Control_c, 10, 11, 120
10, 154607, Control_c, 10, 11, 118
10, 154614, Note_on_c, 10, 76, 0
10, 154620, Note_on_c, 10, 88, 117
10, 154631, Control_c, 10, 11, 116
10, 154655, Control_c, 10, 11, 114
10, 154665, Note_on_c, 10, 88, 0
10, 154679, Control_c, 10, 11, 112
10, 154680, Note_on_c, 10, 88, 117
10, 154703, Control_c, 10, 11, 110
10, 154725, Note_on_c, 10, 88, 0
10, 154727, Control_c, 10, 11, 108
10, 154740, Note_on_c, 10, 88, 117
10, 154751, Control_c, 10, 11, 106
10, 154775, Control_c, 10, 11, 104
10, 154785, Note_on_c, 10, 88, 0
10, 154799, Control_c, 10, 11, 102
10, 154800, Note_on_c, 10, 88, 117
10, 154845, Note_on_c, 10, 88, 0
10, 154860, Note_on_c, 10, 88, 117
10, 154905, Note_on_c, 10, 88, 0
10, 154920, Note_on_c, 10, 88, 117
10, 154965, Note_on_c, 10, 88, 0
10, 154980, Note_on_c, 10, 88, 117
10, 155025, Note_on_c, 10, 88, 0
10, 155040, Control_c, 10, 11, 122
10, 155040, Note_on_c, 10, 77, 117
10, 155063, Control_c, 10, 11, 120
10, 155087, Control_c, 10, 11, 118
10, 155094, Note_on_c, 10, 77, 0
10, 155100, Note_on_c, 10, 89, 117
10, 155111, Control_c, 10, 11, 116
10, 155135, Control_c, 10, 11, 114
10, 155145, Note_on_c, 10, 89, 0
10, 155159, Control_c, 10, 11, 112
10, 155160, Note_on_c, 10, 89, 117
10, 155183, Control_c, 10, 11, 110
10, 155205, Note_on_c, 10, 89, 0
10, 155207, Control_c, 10, 11, 108
10, 155220, Note_on_c, 10, 89, 117
10, 155231, Control_c, 10, 11, 106
10, 155255, Control_c, 10, 11, 104
10, 155265, Note_on_c, 10, 89, 0
10, 155279, Control_c, 10, 11, 102
10, 155280, Note_on_c, 10, 89, 117
10, 155325, Note_on_c, 10, 89, 0
10, 155340, Note_on_c, 10, 89, 117
10, 155385, Note_on_c, 10, 89, 0
10, 155400, Note_on_c, 10, 89, 117
10, 155445, Note_on_c, 10, 89, 0
10, 155460, Note_on_c, 10, 89, 117
10, 155505, Note_on_c, 10, 89, 0
10, 155520, Control_c, 10, 11, 122
10, 155520, Note_on_c, 10, 74, 117
10, 155543, Control_c, 10, 11, 120
10, 155567, Control_c, 10, 11, 118
10, 155574, Note_on_c, 10, 74, 0
10, 155580, Note_on_c, 10, 86, 117
10, 155591, Control_c, 10, 11, 116
10, 155615, Control_c, 10, 11, 114
10, 155625, Note_on_c, 10, 86, 0
10, 155639, Control_c, 10, 11, 112
10, 155640, Note_on_c, 10, 86, 117
10, 155663, Control_c, 10, 11, 110
10, 155685, Note_on_c, 10, 86, 0
10, 155687, Control_c, 10, 11, 108
10, 155700, Note_on_c, 10, 86, 117
10, 155711, Control_c, 10, 11, 106
10, 155735, Control_c, 10, 11, 104
10, 155745, Note_on_c, 10, 86, 0
10, 155759, Control_c, 10, 11, 102
10, 155760, Note_on_c, 10, 86, 117
10, 155805, Note_on_c, 10, 86, 0
10, 155820, Note_on_c, 10, 86, 117
10, 155865, Note_on_c, 10, 86, 0
10, 155880, Note_on_c, 10, 86, 117
10, 155925, Note_on_c, 10, 86, 0
10, 155940, Note_on_c, 10, 86, 117
10, 155985, Note_on_c, 10, 86, 0
10, 156000, Note_on_c, 10, 86, 117
10, 156045, Note_on_c, 10, 86, 0
10, 156060, Note_on_c, 10, 86, 117
10, 156105, Note_on_c, 10, 86, 0
10, 156120, Note_on_c, 10, 86, 117
10, 156165, Note_on_c, 10, 86, 0
10, 156180, Note_on_c, 10, 86, 117
10, 156225, Note_on_c, 10, 86, 0
10, 156240, Note_on_c, 10, 86, 117
10, 156285, Note_on_c, 10, 86, 0
10, 156300, Note_on_c, 10, 86, 117
10, 156345, Note_on_c, 10, 86, 0
10, 156360, Note_on_c, 10, 86, 117
10, 156405, Note_on_c, 10, 86, 0
10, 156420, Note_on_c, 10, 86, 117
10, 156465, Note_on_c, 10, 86, 0
10, 156480, Note_on_c, 10, 91, 117
10, 156525, Note_on_c, 10, 91, 0
10, 156540, Note_on_c, 10, 91, 117
10, 156585, Note_on_c, 10, 91, 0
10, 156600, Note_on_c, 10, 91, 117
10, 156645, Note_on_c, 10, 91, 0
10, 156660, Note_on_c, 10, 91, 117
10, 156705, Note_on_c, 10, 91, 0
10, 156720, Note_on_c, 10, 91, 117
10, 156765, Note_on_c, 10, 91, 0
10, 156780, Note_on_c, 10, 91, 117
10, 156825, Note_on_c, 10, 91, 0
10, 156840, Note_on_c, 10, 91, 117
10, 156885, Note_on_c, 10, 91, 0
10, 156900, Note_on_c, 10, 91, 117
10, 156945, Note_on_c, 10, 91, 0
10, 156960, Note_on_c, 10, 91, 117
10, 157005, Note_on_c, 10, 91, 0
10, 157020, Note_on_c, 10, 91, 117
10, 157065, Note_on_c, 10, 91, 0
10, 157080, Note_on_c, 10, 91, 117
10, 157125, Note_on_c, 10, 91, 0
10, 157140, Note_on_c, 10, 91, 117
10, 157185, Note_on_c, 10, 91, 0
10, 157200, Note_on_c, 10, 91, 117
10, 157245, Note_on_c, 10, 91, 0
10, 157260, Note_on_c, 10, 91, 117
10, 157305, Note_on_c, 10, 91, 0
10, 157320, Note_on_c, 10, 91, 117
10, 157365, Note_on_c, 10, 91, 0
10, 157380, Note_on_c, 10, 91, 117
10, 157425, Note_on_c, 10, 91, 0
10, 157440, Note_on_c, 10, 84, 100
10, 157560, Note_on_c, 10, 84, 0
10, 158760, Note_on_c, 10, 67, 85
10, 158760, Note_on_c, 10, 74, 72
10, 158865, Note_on_c, 10, 74, 0
10, 158865, Note_on_c, 10, 67, 0
10, 158880, Note_on_c, 10, 74, 72
10, 158880, Note_on_c, 10, 67, 85
10, 159225, Note_on_c, 10, 67, 0
10, 159225, Note_on_c, 10, 74, 0
10, 159240, Note_on_c, 10, 74, 72
10, 159240, Note_on_c, 10, 67, 85
10, 159345, Note_on_c, 10, 67, 0
10, 159345, Note_on_c, 10, 74, 0
10, 159360, Note_on_c, 10, 76, 72
10, 159360, Note_on_c, 10, 67, 85
10, 159480, Note_on_c, 10, 67, 0
10, 159480, Note_on_c, 10, 76, 0
10, 160440, Note_on_c, 10, 55, 85
10, 160440, Note_on_c, 10, 74, 72
10, 160440, Note_on_c, 10, 67, 85
10, 160545, Note_on_c, 10, 67, 0
10, 160545, Note_on_c, 10, 74, 0
10, 160545, Note_on_c, 10, 55, 0
10, 160560, Note_on_c, 10, 74, 72
10, 160560, Note_on_c, 10, 67, 85
10, 160665, Note_on_c, 10, 67, 0
10, 160665, Note_on_c, 10, 74, 0
10, 160680, Note_on_c, 10, 67, 85
10, 160680, Note_on_c, 10, 74, 72
10, 160785, Note_on_c, 10, 74, 0
10, 160785, Note_on_c, 10, 67, 0
10, 160800, Note_on_c, 10, 67, 85
10, 160800, Note_on_c, 10, 74, 72
10, 160905, Note_on_c, 10, 74, 0
10, 160905, Note_on_c, 10, 67, 0
10, 160920, Note_on_c, 10, 74, 72
10, 160920, Note_on_c, 10, 67, 85
10, 161025, Note_on_c, 10, 67, 0
10, 161025, Note_on_c, 10, 74, 0
10, 161040, Note_on_c, 10, 74, 72
10, 161040, Note_on_c, 10, 67, 85
10, 161145, Note_on_c, 10, 67, 0
10, 161145, Note_on_c, 10, 74, 0
10, 161160, Note_on_c, 10, 67, 85
10, 161160, Note_on_c, 10, 74, 72
10, 161265, Note_on_c, 10, 74, 0
10, 161265, Note_on_c, 10, 67, 0
10, 161280, Note_on_c, 10, 67, 85
10, 161280, Note_on_c, 10, 76, 72
10, 161400, Note_on_c, 10, 76, 0
10, 161400, Note_on_c, 10, 67, 0
10, 162360, Note_on_c, 10, 67, 85
10, 162360, Note_on_c, 10, 74, 72
10, 162585, Note_on_c, 10, 74, 0
10, 162585, Note_on_c, 10, 67, 0
10, 162600, Note_on_c, 10, 74, 72
10, 162600, Note_on_c, 10, 67, 85
10, 162825, Note_on_c, 10, 67, 0
10, 162825, Note_on_c, 10, 74, 0
10, 162840, Note_on_c, 10, 74, 72
10, 162840, Note_on_c, 10, 67, 85
10, 163065, Note_on_c, 10, 67, 0
10, 163065, Note_on_c, 10, 74, 0
10, 163080, Note_on_c, 10, 67, 85
10, 163080, Note_on_c, 10, 74, 72
10, 163185, Note_on_c, 10, 74, 0
10, 163185, Note_on_c, 10, 67, 0
10, 163200, Note_on_c, 10, 67, 85
10, 163200, Note_on_c, 10, 76, 72
10, 163320, Note_on_c, 10, 76, 0
10, 163320, Note_on_c, 10, 67, 0
10, 163800, Note_on_c, 10, 79, 100
10, 163860, Note_on_c, 10, 79, 0
10, 163920, Note_on_c, 10, 76, 100
10, 163980, Note_on_c, 10, 76, 0
10, 164040, Note_on_c, 10, 72, 100
10, 164100, Note_on_c, 10, 72, 0
10, 164160, Control_c, 10, 11, 72
10, 164160, Note_on_c, 10, 55, 100
10, 164160, Note_on_c, 10, 71, 100
10, 164160, Note_on_c, 10, 62, 100
10, 164160, Note_on_c, 10, 77, 100
10, 164163, Control_c, 10, 11, 75
10, 164166, Control_c, 10, 11, 78
10, 164169, Control_c, 10, 11, 81
10, 164172, Control_c, 10, 11, 84
10, 164175, Control_c, 10, 11, 87
10, 164178, Control_c, 10, 11, 90
10, 164181, Control_c, 10, 11, 93
10, 164184, Control_c, 10, 11, 96
10, 164187, Control_c, 10, 11, 99
10, 164190, Control_c, 10, 11, 102
10, 164280, Note_on_c, 10, 62, 0
10, 164280, Note_on_c, 10, 55, 0
10, 164505, Control_c, 10, 11, 102
10, 164508, Control_c, 10, 11, 99
10, 164511, Control_c, 10, 11, 96
10, 164514, Control_c, 10, 11, 93
10, 164518, Control_c, 10, 11, 90
10, 164521, Control_c, 10, 11, 87
10, 164524, Control_c, 10, 11, 84
10, 164528, Control_c, 10, 11, 81
10, 164531, Control_c, 10, 11, 78
10, 164534, Control_c, 10, 11, 75
10, 164538, Note_on_c, 10, 71, 0
10, 164538, Note_on_c, 10, 77, 0
10, 164538, Control_c, 10, 11, 72
10, 164580, Control_c, 10, 11, 72
10, 164580, Note_on_c, 10, 74, 100
10, 164589, Control_c, 10, 11, 75
10, 164598, Control_c, 10, 11, 78
10, 164607, Control_c, 10, 11, 81
10, 164616, Control_c, 10, 11, 84
10, 164625, Control_c, 10, 11, 87
10, 164634, Control_c, 10, 11, 90
10, 164640, Note_on_c, 10, 74, 0
10, 164640, Note_on_c, 10, 77, 100
10, 164760, Note_on_c, 10, 77, 0
10, 165060, Note_on_c, 10, 74, 100
10, 165120, Note_on_c, 10, 74, 0
10, 165120, Note_on_c, 10, 77, 100
10, 165240, Note_on_c, 10, 77, 0
10, 165540, Note_on_c, 10, 74, 100
10, 165600, Note_on_c, 10, 74, 0
10, 165600, Note_on_c, 10, 77, 100
10, 165720, Note_on_c, 10, 77, 0
10, 165780, Note_on_c, 10, 74, 100
10, 165840, Note_on_c, 10, 74, 0
10, 165840, Note_on_c, 10, 77, 100
10, 165960, Note_on_c, 10, 77, 0
10, 166020, Note_on_c, 10, 74, 100
10, 166080, Note_on_c, 10, 74, 0
10, 166080, Note_on_c, 10, 77, 100
10, 166200, Note_on_c, 10, 77, 0
10, 166260, Note_on_c, 10, 74, 100
10, 166320, Note_on_c, 10, 74, 0
10, 166320, Note_on_c, 10, 77, 100
10, 166440, Note_on_c, 10, 77, 0
10, 166500, Note_on_c, 10, 72, 100
10, 166560, Note_on_c, 10, 72, 0
10, 166560, Note_on_c, 10, 76, 100
10, 166620, Note_on_c, 10, 76, 0
10, 166740, Note_on_c, 10, 76, 100
10, 166800, Note_on_c, 10, 76, 0
10, 166800, Note_on_c, 10, 79, 100
10, 166860, Note_on_c, 10, 79, 0
10, 166980, Note_on_c, 10, 79, 100
10, 167040, Note_on_c, 10, 79, 0
10, 167040, Control_c, 10, 11, 92
10, 167040, Note_on_c, 10, 84, 100
10, 167056, Control_c, 10, 11, 89
10, 167072, Control_c, 10, 11, 86
10, 167088, Control_c, 10, 11, 83
10, 167104, Control_c, 10, 11, 80
10, 167120, Control_c, 10, 11, 77
10, 167136, Control_c, 10, 11, 74
10, 167152, Control_c, 10, 11, 71
10, 167168, Control_c, 10, 11, 68
10, 167184, Control_c, 10, 11, 65
10, 167200, Control_c, 10, 11, 62
10, 167216, Control_c, 10, 11, 59
10, 167232, Control_c, 10, 11, 56
10, 167248, Control_c, 10, 11, 53
10, 167264, Control_c, 10, 11, 50
10, 167280, Control_c, 10, 11, 47
10, 167385, Note_on_c, 10, 84, 0
10, 167400, Note_on_c, 10, 88, 100
10, 167520, Note_on_c, 10, 88, 0
10, 167520, Note_on_c, 10, 83, 100
10, 167640, Note_on_c, 10, 83, 0
10, 167640, Note_on_c, 10, 84, 100
10, 167760, Note_on_c, 10, 84, 0
10, 167760, Note_on_c, 10, 79, 100
10, 167880, Note_on_c, 10, 79, 0
10, 167880, Note_on_c, 10, 81, 100
10, 167985, Note_on_c, 10, 81, 0
10, 168000, Control_c, 10, 11, 47
10, 168000, Note_on_c, 10, 83, 100
10, 168030, Note_on_c, 10, 83, 0
10, 168030, Note_on_c, 10, 81, 100
10, 168112, Control_c, 10, 11, 46
10, 168120, Note_on_c, 10, 81, 0
10, 168120, Note_on_c, 10, 79, 100
10, 168225, Control_c, 10, 11, 45
10, 168240, Note_on_c, 10, 79, 0
10, 168338, Control_c, 10, 11, 44
10, 168360, Note_on_c, 10, 81, 100
10, 168451, Control_c, 10, 11, 43
10, 168465, Note_on_c, 10, 81, 0
10, 168480, Note_on_c, 10, 83, 100
10, 168510, Note_on_c, 10, 83, 0
10, 168510, Note_on_c, 10, 81, 100
10, 168564, Control_c, 10, 11, 42
10, 168600, Note_on_c, 10, 81, 0
10, 168600, Note_on_c, 10, 79, 100
10, 168677, Control_c, 10, 11, 41
10, 168720, Note_on_c, 10, 79, 0
10, 168790, Control_c, 10, 11, 40
10, 168840, Note_on_c, 10, 81, 100
10, 168903, Control_c, 10, 11, 39
10, 168945, Note_on_c, 10, 81, 0
10, 168960, Note_on_c, 10, 83, 100
10, 168990, Note_on_c, 10, 83, 0
10, 168990, Note_on_c, 10, 81, 100
10, 169016, Control_c, 10, 11, 38
10, 169080, Note_on_c, 10, 81, 0
10, 169080, Note_on_c, 10, 79, 100
10, 169129, Control_c, 10, 11, 37
10, 169200, Note_on_c, 10, 79, 0
10, 169242, Control_c, 10, 11, 36
10, 169320, Note_on_c, 10, 81, 100
10, 169355, Control_c, 10, 11, 35
10, 169425, Note_on_c, 10, 81, 0
10, 169440, Note_on_c, 10, 83, 100
10, 169468, Control_c, 10, 11, 34
10, 169470, Note_on_c, 10, 83, 0
10, 169470, Note_on_c, 10, 81, 100
10, 169560, Note_on_c, 10, 81, 0
10, 169560, Note_on_c, 10, 79, 100
10, 169581, Control_c, 10, 11, 33
10, 169680, Note_on_c, 10, 79, 0
10, 169694, Control_c, 10, 11, 32
10, 169800, Note_on_c, 10, 81, 100
10, 169807, Control_c, 10, 11, 31
10, 169905, Note_on_c, 10, 81, 0
10, 169920, Control_c, 10, 11, 30
10, 169920, Note_on_c, 10, 83, 100
10, 169950, Note_on_c, 10, 83, 0
10, 169950, Note_on_c, 10, 81, 100
10, 170040, Note_on_c, 10, 81, 0
10, 170040, Note_on_c, 10, 79, 82
10, 170100, Control_c, 10, 11, 30
10, 170120, Control_c, 10, 11, 29
10, 170140, Control_c, 10, 11, 28
10, 170160, Control_c, 10, 11, 27
10, 170180, Control_c, 10, 11, 26
10, 170200, Control_c, 10, 11, 25
10, 170220, Control_c, 10, 11, 24
10, 170240, Control_c, 10, 11, 23
10, 170260, Control_c, 10, 11, 22
10, 170280, Control_c, 10, 11, 21
10, 170296, Control_c, 10, 11, 18
10, 170312, Control_c, 10, 11, 15
10, 170329, Control_c, 10, 11, 12
10, 170340, Note_on_c, 10, 79, 0
10, 170400, Control_c, 10, 11, 102
10, 170400, Note_on_c, 10, 76, 117
10, 170400, Note_on_c, 10, 67, 117
10, 170400, Note_on_c, 10, 60, 117
10, 170400, Note_on_c, 10, 88, 117
10, 170520, Note_on_c, 10, 88, 0
10, 170520, Note_on_c, 10, 76, 0
10, 170520, Note_on_c, 10, 67, 0
10, 170520, Note_on_c, 10, 60, 0
10, 171360, Note_on_c, 10, 67, 117
10, 171360, Note_on_c, 10, 76, 117
10, 171360, Note_on_c, 10, 84, 117
10, 171360, Note_on_c, 10, 60, 117
10, 171480, Note_on_c, 10, 60, 0
10, 171480, Note_on_c, 10, 67, 0
10, 171480, Note_on_c, 10, 76, 0
10, 171480, Note_on_c, 10, 84, 0
10, 171840, Note_on_c, 10, 55, 117
10, 171840, Note_on_c, 10, 64, 117
10, 171840, Note_on_c, 10, 72, 117
10, 171960, Note_on_c, 10, 72, 0
10, 171960, Note_on_c, 10, 64, 0
10, 171960, Note_on_c, 10, 55, 0
10, 172320, Control_c, 10, 11, 112
10, 172320, Note_on_c, 10, 60, 117
10, 172440, Note_on_c, 10, 60, 0
10, 172800, Control_c, 10, 121, 0
10, 172800, End_track
11, 0, Start_track
11, 0, MIDI_port, 0
11, 0, Title_t, "Violine II"
11, 0, Program_c, 11, 48
11, 0, Control_c, 11, 10, 90
11, 3, Control_c, 11, 121, 0
11, 8, Program_c, 11, 50
11, 13, Pitch_bend_c, 11, 7892
11, 18, Control_c, 11, 11, 102
11, 23, Control_c, 11, 7, 127
11, 28, Control_c, 11, 91, 48
11, 33, Control_c, 11, 93, 0
11, 38, Control_c, 11, 1, 36
11, 483, Control_c, 11, 11, 62
11, 483, Note_on_c, 11, 55, 120
11, 487, Control_c, 11, 11, 66
11, 491, Control_c, 11, 11, 69
11, 495, Control_c, 11, 11, 73
11, 499, Control_c, 11, 11, 76
11, 503, Control_c, 11, 11, 80
11, 507, Control_c, 11, 11, 83
11, 511, Control_c, 11, 11, 87
11, 515, Control_c, 11, 11, 90
11, 519, Control_c, 11, 11, 94
11, 523, Control_c, 11, 11, 97
11, 538, Control_c, 11, 11, 94
11, 554, Control_c, 11, 11, 91
11, 570, Control_c, 11, 11, 88
11, 586, Control_c, 11, 11, 85
11, 602, Control_c, 11, 11, 82
11, 618, Control_c, 11, 11, 79
11, 634, Control_c, 11, 11, 76
11, 650, Control_c, 11, 11, 73
11, 666, Control_c, 11, 11, 70
11, 682, Control_c, 11, 11, 67
11, 698, Control_c, 11, 11, 64
11, 713, Control_c, 11, 11, 61
11, 729, Control_c, 11, 11, 58
11, 745, Control_c, 11, 11, 55
11, 761, Control_c, 11, 11, 52
11, 777, Control_c, 11, 11, 49
11, 789, Control_c, 11, 11, 46
11, 793, Control_c, 11, 11, 43
11, 797, Control_c, 11, 11, 40
11, 801, Control_c, 11, 11, 37
11, 804, Control_c, 11, 11, 34
11, 808, Control_c, 11, 11, 31
11, 812, Control_c, 11, 11, 28
11, 813, Note_on_c, 11, 55, 0
11, 3843, Control_c, 11, 11, 67
11, 3843, Note_on_c, 11, 67, 100
11, 3843, Note_on_c, 11, 55, 100
11, 3847, Control_c, 11, 11, 70
11, 3852, Control_c, 11, 11, 73
11, 3856, Control_c, 11, 11, 76
11, 3861, Control_c, 11, 11, 79
11, 3865, Control_c, 11, 11, 82
11, 3870, Control_c, 11, 11, 85
11, 3885, Control_c, 11, 11, 85
11, 3904, Control_c, 11, 11, 82
11, 3922, Control_c, 11, 11, 79
11, 3941, Control_c, 11, 11, 76
11, 3959, Control_c, 11, 11, 73
11, 3978, Control_c, 11, 11, 70
11, 3997, Control_c, 11, 11, 67
11, 4015, Control_c, 11, 11, 64
11, 4034, Control_c, 11, 11, 61
11, 4053, Control_c, 11, 11, 58
11, 4071, Control_c, 11, 11, 55
11, 4090, Control_c, 11, 11, 52
11, 4108, Control_c, 11, 11, 49
11, 4127, Control_c, 11, 11, 46
11, 4146, Control_c, 11, 11, 43
11, 4157, Control_c, 11, 11, 40
11, 4165, Control_c, 11, 11, 37
11, 4172, Control_c, 11, 11, 34
11, 4173, Note_on_c, 11, 55, 0
11, 4173, Note_on_c, 11, 67, 0
11, 4203, Control_c, 11, 11, 17
11, 4203, Note_on_c, 11, 59, 80
11, 4209, Control_c, 11, 11, 20
11, 4215, Control_c, 11, 11, 23
11, 4221, Control_c, 11, 11, 26
11, 4227, Control_c, 11, 11, 29
11, 4233, Control_c, 11, 11, 32
11, 4239, Control_c, 11, 11, 35
11, 4259, Control_c, 11, 11, 39
11, 4275, Control_c, 11, 11, 41
11, 4291, Control_c, 11, 11, 43
11, 4307, Control_c, 11, 11, 45
11, 4323, Note_on_c, 11, 59, 0
11, 4323, Note_on_c, 11, 60, 90
11, 4443, Note_on_c, 11, 60, 0
11, 4443, Note_on_c, 11, 62, 100
11, 4563, Note_on_c, 11, 62, 0
11, 4563, Note_on_c, 11, 64, 100
11, 4683, Note_on_c, 11, 64, 0
11, 4683, Note_on_c, 11, 65, 100
11, 4743, Note_on_c, 11, 65, 0
11, 4743, Note_on_c, 11, 64, 100
11, 4803, Note_on_c, 11, 64, 0
11, 4803, Note_on_c, 11, 65, 100
11, 5043, Control_c, 11, 11, 46
11, 5060, Control_c, 11, 11, 43
11, 5078, Control_c, 11, 11, 40
11, 5096, Control_c, 11, 11, 37
11, 5113, Control_c, 11, 11, 34
11, 5131, Control_c, 11, 11, 31
11, 5140, Control_c, 11, 11, 28
11, 5143, Note_on_c, 11, 65, 0
11, 5146, Control_c, 11, 11, 25
11, 5151, Control_c, 11, 11, 22
11, 5762, Program_c, 11, 48
11, 5763, Control_c, 11, 11, 67
11, 5763, Note_on_c, 11, 64, 100
11, 5766, Control_c, 11, 11, 70
11, 5769, Control_c, 11, 11, 73
11, 5772, Control_c, 11, 11, 76
11, 5775, Control_c, 11, 11, 79
11, 5778, Control_c, 11, 11, 82
11, 5781, Control_c, 11, 11, 85
11, 5793, Note_on_c, 11, 64, 0
11, 5793, Note_on_c, 11, 79, 100
11, 5793, Note_on_c, 11, 70, 100
11, 5913, Control_c, 11, 11, 87
11, 5923, Control_c, 11, 11, 84
11, 5933, Control_c, 11, 11, 81
11, 5943, Note_on_c, 11, 70, 0
11, 5943, Note_on_c, 11, 79, 0
11, 5943, Control_c, 11, 11, 78
11, 5953, Control_c, 11, 11, 75
11, 5963, Control_c, 11, 11, 72
11, 5973, Control_c, 11, 11, 69
11, 5983, Control_c, 11, 11, 66
11, 5993, Control_c, 11, 11, 63
11, 6003, Control_c, 11, 11, 60
11, 6123, Control_c, 11, 11, 42
11, 6123, Note_on_c, 11, 70, 100
11, 6138, Note_on_c, 11, 70, 0
11, 6153, Note_on_c, 11, 69, 100
11, 6168, Note_on_c, 11, 69, 0
11, 6183, Note_on_c, 11, 67, 100
11, 6198, Note_on_c, 11, 67, 0
11, 6213, Note_on_c, 11, 65, 100
11, 6228, Note_on_c, 11, 65, 0
11, 6243, Note_on_c, 11, 64, 100
11, 6258, Note_on_c, 11, 64, 0
11, 6273, Note_on_c, 11, 62, 100
11, 6288, Note_on_c, 11, 62, 0
11, 6303, Note_on_c, 11, 61, 100
11, 6318, Note_on_c, 11, 61, 0
11, 6333, Note_on_c, 11, 58, 100
11, 6348, Note_on_c, 11, 58, 0
11, 6993, Note_on_c, 11, 61, 100
11, 7023, Note_on_c, 11, 61, 0
11, 7023, Note_on_c, 11, 57, 100
11, 7043, Note_on_c, 11, 57, 0
11, 7053, Note_on_c, 11, 64, 100
11, 7083, Note_on_c, 11, 64, 0
11, 7083, Note_on_c, 11, 61, 100
11, 7103, Note_on_c, 11, 61, 0
11, 7683, Control_c, 11, 11, 67
11, 7683, Note_on_c, 11, 62, 100
11, 7686, Control_c, 11, 11, 70
11, 7689, Control_c, 11, 11, 73
11, 7692, Control_c, 11, 11, 76
11, 7695, Control_c, 11, 11, 79
11, 7698, Control_c, 11, 11, 82
11, 7701, Control_c, 11, 11, 85
11, 7713, Note_on_c, 11, 62, 0
11, 7713, Note_on_c, 11, 81, 100
11, 7713, Note_on_c, 11, 72, 100
11, 7833, Control_c, 11, 11, 87
11, 7836, Control_c, 11, 11, 84
11, 7839, Control_c, 11, 11, 81
11, 7843, Control_c, 11, 11, 78
11, 7846, Control_c, 11, 11, 75
11, 7849, Control_c, 11, 11, 72
11, 7853, Control_c, 11, 11, 69
11, 7856, Control_c, 11, 11, 66
11, 7859, Control_c, 11, 11, 63
11, 7863, Note_on_c, 11, 72, 0
11, 7863, Note_on_c, 11, 81, 0
11, 7863, Control_c, 11, 11, 60
11, 8043, Control_c, 11, 11, 42
11, 8043, Note_on_c, 11, 74, 100
11, 8058, Note_on_c, 11, 74, 0
11, 8073, Note_on_c, 11, 72, 100
11, 8088, Note_on_c, 11, 72, 0
11, 8103, Note_on_c, 11, 71, 100
11, 8118, Note_on_c, 11, 71, 0
11, 8133, Note_on_c, 11, 69, 100
11, 8148, Note_on_c, 11, 69, 0
11, 8163, Note_on_c, 11, 67, 100
11, 8178, Note_on_c, 11, 67, 0
11, 8193, Note_on_c, 11, 66, 100
11, 8208, Note_on_c, 11, 66, 0
11, 8223, Note_on_c, 11, 64, 100
11, 8238, Note_on_c, 11, 64, 0
11, 8253, Note_on_c, 11, 62, 100
11, 8268, Note_on_c, 11, 62, 0
11, 8973, Note_on_c, 11, 57, 100
11, 9003, Note_on_c, 11, 57, 0
11, 9003, Note_on_c, 11, 66, 100
11, 9023, Note_on_c, 11, 66, 0
11, 9033, Note_on_c, 11, 60, 100
11, 9063, Note_on_c, 11, 60, 0
11, 9063, Note_on_c, 11, 69, 100
11, 9083, Note_on_c, 11, 69, 0
11, 9543, Note_on_c, 11, 69, 100
11, 9603, Note_on_c, 11, 69, 0
11, 9603, Control_c, 11, 11, 67
11, 9603, Note_on_c, 11, 59, 100
11, 9606, Control_c, 11, 11, 70
11, 9609, Control_c, 11, 11, 73
11, 9612, Control_c, 11, 11, 76
11, 9615, Control_c, 11, 11, 79
11, 9618, Control_c, 11, 11, 82
11, 9621, Control_c, 11, 11, 85
11, 9633, Note_on_c, 11, 59, 0
11, 9633, Note_on_c, 11, 74, 100
11, 9633, Note_on_c, 11, 65, 100
11, 9753, Control_c, 11, 11, 87
11, 9756, Control_c, 11, 11, 84
11, 9759, Control_c, 11, 11, 81
11, 9763, Control_c, 11, 11, 78
11, 9766, Control_c, 11, 11, 75
11, 9769, Control_c, 11, 11, 72
11, 9773, Control_c, 11, 11, 69
11, 9776, Control_c, 11, 11, 66
11, 9779, Control_c, 11, 11, 63
11, 9783, Note_on_c, 11, 65, 0
11, 9783, Note_on_c, 11, 74, 0
11, 9783, Control_c, 11, 11, 60
11, 10083, Control_c, 11, 11, 42
11, 10083, Note_on_c, 11, 72, 100
11, 10098, Note_on_c, 11, 72, 0
11, 10113, Note_on_c, 11, 71, 100
11, 10128, Note_on_c, 11, 71, 0
11, 10143, Note_on_c, 11, 69, 100
11, 10158, Note_on_c, 11, 69, 0
11, 10173, Note_on_c, 11, 67, 100
11, 10188, Note_on_c, 11, 67, 0
11, 11073, Control_c, 11, 11, 42
11, 11073, Note_on_c, 11, 68, 100
11, 11103, Note_on_c, 11, 68, 0
11, 11103, Note_on_c, 11, 67, 100
11, 11133, Note_on_c, 11, 67, 0
11, 11133, Note_on_c, 11, 68, 100
11, 11163, Note_on_c, 11, 68, 0
11, 11163, Note_on_c, 11, 67, 100
11, 11223, Note_on_c, 11, 67, 0
11, 11313, Control_c, 11, 11, 47
11, 11313, Note_on_c, 11, 70, 110
11, 11343, Note_on_c, 11, 70, 0
11, 11343, Note_on_c, 11, 68, 110
11, 11373, Note_on_c, 11, 68, 0
11, 11373, Note_on_c, 11, 70, 110
11, 11403, Note_on_c, 11, 70, 0
11, 11403, Note_on_c, 11, 68, 110
11, 11463, Note_on_c, 11, 68, 0
11, 11553, Control_c, 11, 11, 59
11, 11553, Note_on_c, 11, 72, 110
11, 11583, Note_on_c, 11, 72, 0
11, 11583, Note_on_c, 11, 71, 111
11, 11613, Note_on_c, 11, 71, 0
11, 11673, Control_c, 11, 11, 66
11, 11673, Note_on_c, 11, 74, 115
11, 11703, Note_on_c, 11, 74, 0
11, 11703, Note_on_c, 11, 72, 116
11, 11733, Note_on_c, 11, 72, 0
11, 11793, Control_c, 11, 11, 68
11, 11793, Note_on_c, 11, 75, 120
11, 11823, Note_on_c, 11, 75, 0
11, 11823, Note_on_c, 11, 74, 122
11, 11853, Note_on_c, 11, 74, 0
11, 12963, Control_c, 11, 11, 22
11, 12963, Note_on_c, 11, 63, 100
11, 12969, Control_c, 11, 11, 25
11, 12975, Control_c, 11, 11, 28
11, 12981, Control_c, 11, 11, 31
11, 13118, Note_on_c, 11, 63, 0
11, 13123, Note_on_c, 11, 62, 100
11, 13143, Note_on_c, 11, 62, 0
11, 13163, Note_on_c, 11, 60, 100
11, 13183, Note_on_c, 11, 60, 0
11, 13203, Note_on_c, 11, 59, 100
11, 13358, Note_on_c, 11, 59, 0
11, 13363, Note_on_c, 11, 60, 100
11, 13383, Note_on_c, 11, 60, 0
11, 13403, Note_on_c, 11, 62, 100
11, 13423, Note_on_c, 11, 62, 0
11, 13443, Note_on_c, 11, 60, 100
11, 13598, Note_on_c, 11, 60, 0
11, 13603, Note_on_c, 11, 62, 100
11, 13623, Note_on_c, 11, 62, 0
11, 13643, Note_on_c, 11, 63, 100
11, 13663, Note_on_c, 11, 63, 0
11, 13683, Note_on_c, 11, 62, 100
11, 13838, Note_on_c, 11, 62, 0
11, 13843, Note_on_c, 11, 63, 100
11, 13863, Note_on_c, 11, 63, 0
11, 13883, Note_on_c, 11, 65, 100
11, 13903, Note_on_c, 11, 65, 0
11, 13923, Note_on_c, 11, 63, 80
11, 13943, Note_on_c, 11, 63, 0
11, 13963, Note_on_c, 11, 67, 100
11, 13983, Note_on_c, 11, 67, 0
11, 14003, Note_on_c, 11, 67, 100
11, 14023, Note_on_c, 11, 67, 0
11, 14043, Note_on_c, 11, 68, 123
11, 14050, Note_on_c, 11, 67, 123
11, 14051, Note_on_c, 11, 68, 0
11, 14058, Note_on_c, 11, 67, 0
11, 14058, Note_on_c, 11, 66, 123
11, 14065, Note_on_c, 11, 67, 100
11, 14066, Note_on_c, 11, 66, 0
11, 14081, Note_on_c, 11, 67, 0
11, 14203, Note_on_c, 11, 67, 110
11, 14223, Note_on_c, 11, 67, 0
11, 14243, Note_on_c, 11, 67, 110
11, 14263, Note_on_c, 11, 67, 0
11, 14283, Note_on_c, 11, 68, 127
11, 14290, Note_on_c, 11, 67, 127
11, 14291, Note_on_c, 11, 68, 0
11, 14298, Note_on_c, 11, 67, 0
11, 14298, Note_on_c, 11, 66, 127
11, 14305, Note_on_c, 11, 67, 110
11, 14306, Note_on_c, 11, 66, 0
11, 14321, Note_on_c, 11, 67, 0
11, 14443, Control_c, 11, 11, 32
11, 14443, Note_on_c, 11, 67, 100
11, 14448, Control_c, 11, 11, 35
11, 14454, Control_c, 11, 11, 38
11, 14459, Control_c, 11, 11, 41
11, 14463, Note_on_c, 11, 67, 0
11, 14465, Control_c, 11, 11, 44
11, 14470, Control_c, 11, 11, 47
11, 14476, Control_c, 11, 11, 50
11, 14481, Control_c, 11, 11, 53
11, 14483, Note_on_c, 11, 67, 100
11, 14487, Control_c, 11, 11, 56
11, 14493, Control_c, 11, 11, 59
11, 14498, Control_c, 11, 11, 62
11, 14503, Note_on_c, 11, 67, 0
11, 14504, Control_c, 11, 11, 65
11, 14509, Control_c, 11, 11, 68
11, 14515, Control_c, 11, 11, 71
11, 14520, Control_c, 11, 11, 74
11, 14523, Note_on_c, 11, 68, 123
11, 14526, Control_c, 11, 11, 77
11, 14530, Note_on_c, 11, 67, 123
11, 14531, Note_on_c, 11, 68, 0
11, 14532, Control_c, 11, 11, 80
11, 14537, Control_c, 11, 11, 83
11, 14538, Note_on_c, 11, 67, 0
11, 14538, Note_on_c, 11, 66, 123
11, 14543, Control_c, 11, 11, 86
11, 14545, Note_on_c, 11, 67, 100
11, 14546, Note_on_c, 11, 66, 0
11, 14561, Note_on_c, 11, 67, 0
11, 14643, Control_c, 11, 11, 52
11, 14643, Note_on_c, 11, 72, 100
11, 14651, Control_c, 11, 11, 49
11, 14659, Control_c, 11, 11, 46
11, 14663, Note_on_c, 11, 72, 0
11, 14667, Control_c, 11, 11, 43
11, 14675, Control_c, 11, 11, 40
11, 14683, Control_c, 11, 11, 37
11, 14683, Note_on_c, 11, 74, 100
11, 14703, Note_on_c, 11, 74, 0
11, 14723, Note_on_c, 11, 75, 100
11, 14743, Note_on_c, 11, 75, 0
11, 14763, Note_on_c, 11, 74, 100
11, 14783, Note_on_c, 11, 74, 0
11, 14803, Note_on_c, 11, 72, 100
11, 14823, Note_on_c, 11, 72, 0
11, 14843, Note_on_c, 11, 70, 100
11, 14863, Note_on_c, 11, 70, 0
11, 15122, Program_c, 11, 45
11, 15123, Control_c, 11, 11, 100
11, 15123, Note_on_c, 11, 70, 29
11, 15143, Note_on_c, 11, 70, 0
11, 15163, Note_on_c, 11, 68, 29
11, 15183, Note_on_c, 11, 68, 0
11, 15203, Note_on_c, 11, 67, 29
11, 15223, Note_on_c, 11, 67, 0
11, 15243, Note_on_c, 11, 65, 29
11, 15263, Note_on_c, 11, 65, 0
11, 15283, Note_on_c, 11, 63, 29
11, 15303, Note_on_c, 11, 63, 0
11, 15323, Note_on_c, 11, 62, 29
11, 15343, Note_on_c, 11, 62, 0
11, 15363, Note_on_c, 11, 60, 29
11, 15383, Note_on_c, 11, 60, 0
11, 15403, Note_on_c, 11, 58, 29
11, 15423, Note_on_c, 11, 58, 0
11, 15443, Note_on_c, 11, 56, 29
11, 15463, Note_on_c, 11, 56, 0
11, 15483, Note_on_c, 11, 55, 29
11, 15503, Note_on_c, 11, 55, 0
11, 15523, Note_on_c, 11, 65, 29
11, 15543, Note_on_c, 11, 65, 0
11, 15563, Note_on_c, 11, 63, 29
11, 15583, Note_on_c, 11, 63, 0
11, 15603, Note_on_c, 11, 62, 29
11, 15623, Note_on_c, 11, 62, 0
11, 15643, Note_on_c, 11, 60, 29
11, 15663, Note_on_c, 11, 60, 0
11, 15683, Note_on_c, 11, 59, 29
11, 15703, Note_on_c, 11, 59, 0
11, 15723, Note_on_c, 11, 60, 29
11, 15743, Note_on_c, 11, 60, 0
11, 15763, Note_on_c, 11, 63, 29
11, 15783, Note_on_c, 11, 63, 0
11, 15803, Note_on_c, 11, 60, 29
11, 15823, Note_on_c, 11, 60, 0
11, 15843, Note_on_c, 11, 55, 29
11, 15963, Note_on_c, 11, 55, 0
11, 16562, Program_c, 11, 48
11, 16563, Control_c, 11, 11, 62
11, 16563, Note_on_c, 11, 60, 100
11, 16573, Control_c, 11, 11, 68
11, 16584, Control_c, 11, 11, 74
11, 16594, Control_c, 11, 11, 81
11, 16605, Control_c, 11, 11, 87
11, 16616, Control_c, 11, 11, 95
11, 16634, Control_c, 11, 11, 90
11, 16652, Control_c, 11, 11, 85
11, 16670, Control_c, 11, 11, 81
11, 16688, Control_c, 11, 11, 76
11, 16706, Control_c, 11, 11, 71
11, 16724, Control_c, 11, 11, 67
11, 16742, Control_c, 11, 11, 62
11, 16760, Control_c, 11, 11, 57
11, 16778, Control_c, 11, 11, 53
11, 16796, Control_c, 11, 11, 48
11, 16803, Note_on_c, 11, 60, 0
11, 16803, Note_on_c, 11, 55, 80
11, 16923, Note_on_c, 11, 55, 0
11, 17523, Control_c, 11, 11, 47
11, 17523, Note_on_c, 11, 60, 100
11, 17528, Control_c, 11, 11, 53
11, 17533, Control_c, 11, 11, 60
11, 17538, Control_c, 11, 11, 68
11, 17543, Control_c, 11, 11, 74
11, 17548, Control_c, 11, 11, 82
11, 17553, Control_c, 11, 11, 90
11, 17571, Control_c, 11, 11, 90
11, 17591, Control_c, 11, 11, 85
11, 17612, Control_c, 11, 11, 80
11, 17632, Control_c, 11, 11, 76
11, 17653, Control_c, 11, 11, 71
11, 17673, Control_c, 11, 11, 66
11, 17694, Control_c, 11, 11, 62
11, 17715, Control_c, 11, 11, 57
11, 17735, Control_c, 11, 11, 53
11, 17756, Control_c, 11, 11, 48
11, 17763, Note_on_c, 11, 60, 0
11, 17763, Note_on_c, 11, 55, 68
11, 17853, Control_c, 11, 11, 47
11, 17857, Control_c, 11, 11, 44
11, 17861, Control_c, 11, 11, 41
11, 17866, Control_c, 11, 11, 38
11, 17870, Control_c, 11, 11, 35
11, 17874, Control_c, 11, 11, 32
11, 17879, Control_c, 11, 11, 29
11, 17883, Note_on_c, 11, 55, 0
11, 17973, Control_c, 11, 11, 32
11, 17973, Note_on_c, 11, 55, 100
11, 18003, Note_on_c, 11, 55, 0
11, 18003, Note_on_c, 11, 59, 100
11, 18063, Note_on_c, 11, 59, 0
11, 18093, Note_on_c, 11, 55, 100
11, 18123, Note_on_c, 11, 55, 0
11, 18123, Note_on_c, 11, 59, 100
11, 18183, Note_on_c, 11, 59, 0
11, 18213, Note_on_c, 11, 55, 100
11, 18243, Note_on_c, 11, 55, 0
11, 18243, Note_on_c, 11, 59, 100
11, 18363, Note_on_c, 11, 59, 0
11, 18453, Note_on_c, 11, 59, 100
11, 18483, Note_on_c, 11, 59, 0
11, 18483, Note_on_c, 11, 62, 100
11, 18543, Note_on_c, 11, 62, 0
11, 18573, Note_on_c, 11, 59, 100
11, 18603, Note_on_c, 11, 59, 0
11, 18603, Note_on_c, 11, 62, 100
11, 18663, Note_on_c, 11, 62, 0
11, 18693, Note_on_c, 11, 59, 100
11, 18723, Note_on_c, 11, 59, 0
11, 18723, Note_on_c, 11, 62, 100
11, 18843, Note_on_c, 11, 62, 0
11, 18933, Note_on_c, 11, 62, 100
11, 18963, Note_on_c, 11, 62, 0
11, 18963, Note_on_c, 11, 65, 100
11, 19023, Note_on_c, 11, 65, 0
11, 19203, Control_c, 11, 11, 37
11, 19222, Control_c, 11, 11, 38
11, 19241, Control_c, 11, 11, 39
11, 19260, Control_c, 11, 11, 40
11, 19279, Control_c, 11, 11, 41
11, 19299, Control_c, 11, 11, 42
11, 19318, Control_c, 11, 11, 43
11, 19337, Control_c, 11, 11, 44
11, 19356, Control_c, 11, 11, 45
11, 19375, Control_c, 11, 11, 46
11, 19395, Control_c, 11, 11, 47
11, 19414, Control_c, 11, 11, 48
11, 19433, Control_c, 11, 11, 49
11, 19452, Control_c, 11, 11, 50
11, 19471, Control_c, 11, 11, 51
11, 19491, Control_c, 11, 11, 52
11, 19510, Control_c, 11, 11, 53
11, 19529, Control_c, 11, 11, 54
11, 19548, Control_c, 11, 11, 55
11, 19563, Control_c, 11, 11, 57
11, 19563, Note_on_c, 11, 59, 100
11, 19583, Control_c, 11, 11, 58
11, 19603, Control_c, 11, 11, 59
11, 19623, Note_on_c, 11, 59, 0
11, 19623, Control_c, 11, 11, 60
11, 19643, Control_c, 11, 11, 61
11, 19653, Note_on_c, 11, 59, 100
11, 19663, Control_c, 11, 11, 62
11, 19683, Note_on_c, 11, 59, 0
11, 19683, Control_c, 11, 11, 63
11, 19683, Note_on_c, 11, 62, 100
11, 19703, Control_c, 11, 11, 64
11, 19723, Control_c, 11, 11, 65
11, 19743, Note_on_c, 11, 62, 0
11, 19743, Control_c, 11, 11, 66
11, 19763, Control_c, 11, 11, 67
11, 19773, Note_on_c, 11, 62, 100
11, 19783, Control_c, 11, 11, 68
11, 19803, Note_on_c, 11, 62, 0
11, 19803, Control_c, 11, 11, 69
11, 19803, Note_on_c, 11, 65, 100
11, 19823, Control_c, 11, 11, 70
11, 19843, Control_c, 11, 11, 71
11, 19863, Note_on_c, 11, 65, 0
11, 19863, Control_c, 11, 11, 72
11, 19883, Control_c, 11, 11, 73
11, 19893, Note_on_c, 11, 65, 100
11, 19903, Control_c, 11, 11, 74
11, 19923, Note_on_c, 11, 65, 0
11, 19923, Control_c, 11, 11, 75
11, 19923, Note_on_c, 11, 69, 100
11, 19943, Control_c, 11, 11, 76
11, 19963, Control_c, 11, 11, 77
11, 19983, Note_on_c, 11, 69, 0
11, 19983, Control_c, 11, 11, 78
11, 20003, Control_c, 11, 11, 79
11, 20013, Note_on_c, 11, 69, 100
11, 20023, Control_c, 11, 11, 80
11, 20043, Note_on_c, 11, 69, 0
11, 20043, Control_c, 11, 11, 81
11, 20043, Note_on_c, 11, 59, 100
11, 20063, Control_c, 11, 11, 82
11, 20083, Control_c, 11, 11, 83
11, 20103, Note_on_c, 11, 59, 0
11, 20103, Control_c, 11, 11, 84
11, 20123, Control_c, 11, 11, 85
11, 20133, Note_on_c, 11, 59, 100
11, 20143, Control_c, 11, 11, 86
11, 20163, Note_on_c, 11, 59, 0
11, 20163, Control_c, 11, 11, 87
11, 20163, Note_on_c, 11, 62, 100
11, 20283, Note_on_c, 11, 62, 0
11, 20343, Note_on_c, 11, 65, 103
11, 20403, Note_on_c, 11, 65, 0
11, 20403, Note_on_c, 11, 69, 105
11, 20419, Control_c, 11, 11, 88
11, 20523, Note_on_c, 11, 69, 0
11, 20583, Note_on_c, 11, 59, 108
11, 20643, Note_on_c, 11, 59, 0
11, 20643, Note_on_c, 11, 62, 110
11, 20675, Control_c, 11, 11, 89
11, 20763, Note_on_c, 11, 62, 0
11, 20823, Note_on_c, 11, 65, 113
11, 20883, Note_on_c, 11, 65, 0
11, 20883, Note_on_c, 11, 69, 115
11, 20931, Control_c, 11, 11, 90
11, 21003, Note_on_c, 11, 69, 0
11, 21063, Note_on_c, 11, 59, 118
11, 21123, Note_on_c, 11, 59, 0
11, 21123, Note_on_c, 11, 62, 120
11, 21187, Control_c, 11, 11, 91
11, 21243, Note_on_c, 11, 62, 0
11, 21303, Note_on_c, 11, 65, 123
11, 21363, Note_on_c, 11, 65, 0
11, 21363, Note_on_c, 11, 69, 125
11, 21443, Control_c, 11, 11, 92
11, 21483, Note_on_c, 11, 69, 0
11, 21543, Control_c, 11, 11, 72
11, 21543, Note_on_c, 11, 59, 100
11, 21576, Control_c, 11, 11, 73
11, 21603, Note_on_c, 11, 59, 0
11, 21603, Note_on_c, 11, 60, 101
11, 21610, Control_c, 11, 11, 74
11, 21644, Control_c, 11, 11, 75
11, 21678, Control_c, 11, 11, 76
11, 21712, Control_c, 11, 11, 77
11, 21723, Note_on_c, 11, 60, 0
11, 21746, Control_c, 11, 11, 78
11, 21780, Control_c, 11, 11, 79
11, 21783, Note_on_c, 11, 60, 106
11, 21814, Control_c, 11, 11, 80
11, 21843, Note_on_c, 11, 60, 0
11, 21843, Note_on_c, 11, 62, 107
11, 21848, Control_c, 11, 11, 81
11, 21882, Control_c, 11, 11, 82
11, 21916, Control_c, 11, 11, 83
11, 21949, Control_c, 11, 11, 84
11, 21963, Note_on_c, 11, 62, 0
11, 21983, Control_c, 11, 11, 85
11, 22017, Control_c, 11, 11, 86
11, 22023, Note_on_c, 11, 62, 113
11, 22051, Control_c, 11, 11, 87
11, 22083, Note_on_c, 11, 62, 0
11, 22083, Note_on_c, 11, 64, 114
11, 22085, Control_c, 11, 11, 88
11, 22119, Control_c, 11, 11, 89
11, 22153, Control_c, 11, 11, 90
11, 22187, Control_c, 11, 11, 91
11, 22203, Note_on_c, 11, 64, 0
11, 22221, Control_c, 11, 11, 92
11, 22255, Control_c, 11, 11, 93
11, 22263, Note_on_c, 11, 64, 120
11, 22289, Control_c, 11, 11, 94
11, 22323, Note_on_c, 11, 64, 0
11, 22323, Control_c, 11, 11, 95
11, 22323, Note_on_c, 11, 65, 122
11, 22443, Note_on_c, 11, 65, 0
11, 22467, Control_c, 11, 11, 96
11, 22503, Note_on_c, 11, 59, 102
11, 22563, Note_on_c, 11, 59, 0
11, 22563, Note_on_c, 11, 60, 103
11, 22683, Note_on_c, 11, 60, 0
11, 22723, Control_c, 11, 11, 97
11, 22743, Note_on_c, 11, 60, 109
11, 22803, Note_on_c, 11, 60, 0
11, 22803, Note_on_c, 11, 62, 110
11, 22923, Note_on_c, 11, 62, 0
11, 22979, Control_c, 11, 11, 98
11, 22983, Note_on_c, 11, 62, 116
11, 23043, Note_on_c, 11, 62, 0
11, 23043, Note_on_c, 11, 64, 117
11, 23163, Note_on_c, 11, 64, 0
11, 23223, Note_on_c, 11, 64, 122
11, 23235, Control_c, 11, 11, 99
11, 23283, Note_on_c, 11, 64, 0
11, 23283, Note_on_c, 11, 65, 124
11, 23403, Note_on_c, 11, 65, 0
11, 23463, Note_on_c, 11, 59, 105
11, 23491, Control_c, 11, 11, 100
11, 23523, Note_on_c, 11, 59, 0
11, 23523, Note_on_c, 11, 60, 105
11, 23643, Note_on_c, 11, 60, 0
11, 23703, Note_on_c, 11, 60, 106
11, 23747, Control_c, 11, 11, 101
11, 23763, Note_on_c, 11, 60, 0
11, 23763, Note_on_c, 11, 62, 106
11, 23883, Note_on_c, 11, 62, 0
11, 23943, Note_on_c, 11, 62, 106
11, 24003, Note_on_c, 11, 62, 0
11, 24003, Control_c, 11, 11, 102
11, 24003, Note_on_c, 11, 64, 106
11, 24123, Note_on_c, 11, 64, 0
11, 24183, Note_on_c, 11, 64, 107
11, 24243, Note_on_c, 11, 64, 0
11, 24243, Note_on_c, 11, 65, 107
11, 24259, Control_c, 11, 11, 103
11, 24363, Note_on_c, 11, 65, 0
11, 24423, Note_on_c, 11, 62, 108
11, 24483, Note_on_c, 11, 62, 0
11, 24483, Note_on_c, 11, 65, 108
11, 24515, Control_c, 11, 11, 104
11, 24603, Note_on_c, 11, 65, 0
11, 24723, Note_on_c, 11, 65, 108
11, 24771, Control_c, 11, 11, 105
11, 24843, Note_on_c, 11, 65, 0
11, 24903, Note_on_c, 11, 62, 109
11, 24963, Note_on_c, 11, 62, 0
11, 24963, Note_on_c, 11, 65, 109
11, 25027, Control_c, 11, 11, 106
11, 25083, Note_on_c, 11, 65, 0
11, 25143, Note_on_c, 11, 62, 110
11, 25203, Note_on_c, 11, 62, 0
11, 25203, Note_on_c, 11, 65, 110
11, 25283, Control_c, 11, 11, 107
11, 25323, Note_on_c, 11, 65, 0
11, 25383, Note_on_c, 11, 62, 110
11, 25443, Note_on_c, 11, 62, 0
11, 25443, Note_on_c, 11, 65, 110
11, 25539, Control_c, 11, 11, 108
11, 25563, Note_on_c, 11, 65, 0
11, 25623, Note_on_c, 11, 62, 111
11, 25683, Note_on_c, 11, 62, 0
11, 25683, Note_on_c, 11, 65, 111
11, 25795, Control_c, 11, 11, 109
11, 25803, Note_on_c, 11, 65, 0
11, 25863, Note_on_c, 11, 74, 84
11, 25923, Note_on_c, 11, 74, 0
11, 25923, Note_on_c, 11, 77, 86
11, 25983, Note_on_c, 11, 77, 0
11, 25983, Note_on_c, 11, 74, 89
11, 26028, Note_on_c, 11, 74, 0
11, 26043, Note_on_c, 11, 77, 92
11, 26051, Control_c, 11, 11, 110
11, 26103, Note_on_c, 11, 77, 0
11, 26103, Note_on_c, 11, 74, 96
11, 26148, Note_on_c, 11, 74, 0
11, 26163, Note_on_c, 11, 77, 98
11, 26223, Note_on_c, 11, 77, 0
11, 26223, Note_on_c, 11, 74, 102
11, 26268, Note_on_c, 11, 74, 0
11, 26283, Note_on_c, 11, 77, 106
11, 26307, Control_c, 11, 11, 111
11, 26343, Note_on_c, 11, 77, 0
11, 26343, Note_on_c, 11, 74, 109
11, 26388, Note_on_c, 11, 74, 0
11, 26403, Note_on_c, 11, 77, 113
11, 26463, Note_on_c, 11, 77, 0
11, 26463, Note_on_c, 11, 74, 113
11, 26508, Note_on_c, 11, 74, 0
11, 26523, Note_on_c, 11, 77, 113
11, 26563, Control_c, 11, 11, 112
11, 26583, Note_on_c, 11, 77, 0
11, 26583, Note_on_c, 11, 74, 114
11, 26628, Note_on_c, 11, 74, 0
11, 26643, Note_on_c, 11, 77, 114
11, 26703, Note_on_c, 11, 77, 0
11, 26703, Note_on_c, 11, 74, 114
11, 26748, Note_on_c, 11, 74, 0
11, 26763, Note_on_c, 11, 77, 114
11, 26819, Control_c, 11, 11, 113
11, 26823, Note_on_c, 11, 77, 0
11, 26823, Note_on_c, 11, 74, 114
11, 26868, Note_on_c, 11, 74, 0
11, 26883, Note_on_c, 11, 77, 114
11, 26943, Note_on_c, 11, 77, 0
11, 26943, Note_on_c, 11, 74, 115
11, 26988, Note_on_c, 11, 74, 0
11, 27003, Note_on_c, 11, 77, 115
11, 27063, Note_on_c, 11, 77, 0
11, 27063, Note_on_c, 11, 74, 115
11, 27075, Control_c, 11, 11, 114
11, 27108, Note_on_c, 11, 74, 0
11, 27123, Note_on_c, 11, 77, 115
11, 27183, Note_on_c, 11, 77, 0
11, 27183, Note_on_c, 11, 74, 115
11, 27228, Note_on_c, 11, 74, 0
11, 27243, Note_on_c, 11, 77, 115
11, 27303, Note_on_c, 11, 77, 0
11, 27303, Note_on_c, 11, 74, 116
11, 27331, Control_c, 11, 11, 115
11, 27348, Note_on_c, 11, 74, 0
11, 27363, Note_on_c, 11, 77, 116
11, 27423, Note_on_c, 11, 77, 0
11, 27423, Note_on_c, 11, 74, 116
11, 27468, Note_on_c, 11, 74, 0
11, 27483, Note_on_c, 11, 77, 116
11, 27543, Note_on_c, 11, 77, 0
11, 27543, Note_on_c, 11, 74, 116
11, 27587, Control_c, 11, 11, 116
11, 27588, Note_on_c, 11, 74, 0
11, 27603, Note_on_c, 11, 76, 117
11, 27603, Note_on_c, 11, 67, 117
11, 27603, Note_on_c, 11, 60, 117
11, 27723, Note_on_c, 11, 60, 0
11, 27723, Note_on_c, 11, 67, 0
11, 27723, Note_on_c, 11, 76, 0
11, 27783, Note_on_c, 11, 72, 117
11, 27843, Note_on_c, 11, 72, 0
11, 27843, Control_c, 11, 11, 117
11, 27843, Note_on_c, 11, 76, 117
11, 27963, Note_on_c, 11, 76, 0
11, 28023, Note_on_c, 11, 76, 117
11, 28083, Note_on_c, 11, 76, 0
11, 28083, Note_on_c, 11, 79, 117
11, 28203, Note_on_c, 11, 79, 0
11, 28263, Note_on_c, 11, 79, 117
11, 28323, Note_on_c, 11, 79, 0
11, 28323, Control_c, 11, 11, 97
11, 28323, Note_on_c, 11, 84, 117
11, 28341, Control_c, 11, 11, 95
11, 28359, Control_c, 11, 11, 93
11, 28377, Control_c, 11, 11, 91
11, 28395, Control_c, 11, 11, 89
11, 28413, Control_c, 11, 11, 87
11, 28428, Note_on_c, 11, 84, 0
11, 28431, Control_c, 11, 11, 85
11, 28443, Note_on_c, 11, 72, 117
11, 28449, Control_c, 11, 11, 83
11, 28467, Control_c, 11, 11, 81
11, 28485, Control_c, 11, 11, 79
11, 28503, Control_c, 11, 11, 77
11, 28521, Control_c, 11, 11, 75
11, 28539, Control_c, 11, 11, 73
11, 28557, Control_c, 11, 11, 71
11, 28563, Note_on_c, 11, 72, 0
11, 28563, Note_on_c, 11, 76, 117
11, 28575, Control_c, 11, 11, 69
11, 28593, Control_c, 11, 11, 67
11, 28611, Control_c, 11, 11, 65
11, 28629, Control_c, 11, 11, 63
11, 28647, Control_c, 11, 11, 61
11, 28665, Control_c, 11, 11, 59
11, 28683, Note_on_c, 11, 76, 0
11, 28683, Control_c, 11, 11, 57
11, 28683, Note_on_c, 11, 72, 117
11, 28803, Note_on_c, 11, 72, 0
11, 29403, Control_c, 11, 11, 87
11, 29403, Note_on_c, 11, 72, 117
11, 29419, Control_c, 11, 11, 85
11, 29435, Control_c, 11, 11, 83
11, 29451, Control_c, 11, 11, 81
11, 29467, Control_c, 11, 11, 79
11, 29483, Control_c, 11, 11, 77
11, 29499, Control_c, 11, 11, 75
11, 29515, Control_c, 11, 11, 73
11, 29523, Note_on_c, 11, 72, 0
11, 29523, Note_on_c, 11, 76, 117
11, 29531, Control_c, 11, 11, 71
11, 29547, Control_c, 11, 11, 69
11, 29563, Control_c, 11, 11, 67
11, 29579, Control_c, 11, 11, 65
11, 29595, Control_c, 11, 11, 63
11, 29611, Control_c, 11, 11, 61
11, 29627, Control_c, 11, 11, 59
11, 29643, Note_on_c, 11, 76, 0
11, 29643, Control_c, 11, 11, 57
11, 29643, Note_on_c, 11, 72, 117
11, 29763, Note_on_c, 11, 72, 0
11, 30363, Control_c, 11, 11, 87
11, 30363, Note_on_c, 11, 72, 117
11, 30379, Control_c, 11, 11, 85
11, 30395, Control_c, 11, 11, 83
11, 30411, Control_c, 11, 11, 81
11, 30427, Control_c, 11, 11, 79
11, 30443, Control_c, 11, 11, 77
11, 30459, Control_c, 11, 11, 75
11, 30475, Control_c, 11, 11, 73
11, 30483, Note_on_c, 11, 72, 0
11, 30483, Note_on_c, 11, 76, 117
11, 30491, Control_c, 11, 11, 71
11, 30507, Control_c, 11, 11, 69
11, 30523, Control_c, 11, 11, 67
11, 30539, Control_c, 11, 11, 65
11, 30555, Control_c, 11, 11, 63
11, 30571, Control_c, 11, 11, 61
11, 30587, Control_c, 11, 11, 59
11, 30603, Note_on_c, 11, 76, 0
11, 30603, Control_c, 11, 11, 57
11, 30603, Note_on_c, 11, 72, 117
11, 30723, Note_on_c, 11, 72, 0
11, 30963, Note_on_c, 11, 76, 117
11, 31083, Note_on_c, 11, 76, 0
11, 31083, Control_c, 11, 11, 57
11, 31083, Note_on_c, 11, 72, 117
11, 31135, Control_c, 11, 11, 58
11, 31187, Control_c, 11, 11, 59
11, 31203, Note_on_c, 11, 72, 0
11, 31239, Control_c, 11, 11, 60
11, 31291, Control_c, 11, 11, 61
11, 31343, Control_c, 11, 11, 62
11, 31395, Control_c, 11, 11, 63
11, 31443, Note_on_c, 11, 69, 117
11, 31447, Control_c, 11, 11, 64
11, 31499, Control_c, 11, 11, 65
11, 31551, Control_c, 11, 11, 66
11, 31563, Note_on_c, 11, 69, 0
11, 31563, Note_on_c, 11, 62, 117
11, 31603, Control_c, 11, 11, 67
11, 31655, Control_c, 11, 11, 68
11, 31683, Note_on_c, 11, 62, 0
11, 31707, Control_c, 11, 11, 69
11, 31759, Control_c, 11, 11, 70
11, 31811, Control_c, 11, 11, 71
11, 31863, Control_c, 11, 11, 72
11, 31915, Control_c, 11, 11, 73
11, 31923, Note_on_c, 11, 65, 117
11, 31967, Control_c, 11, 11, 74
11, 32019, Control_c, 11, 11, 75
11, 32043, Note_on_c, 11, 65, 0
11, 32043, Note_on_c, 11, 59, 117
11, 32071, Control_c, 11, 11, 76
11, 32123, Control_c, 11, 11, 77
11, 32163, Note_on_c, 11, 59, 0
11, 32175, Control_c, 11, 11, 78
11, 32227, Control_c, 11, 11, 79
11, 32279, Control_c, 11, 11, 80
11, 32331, Control_c, 11, 11, 81
11, 32383, Control_c, 11, 11, 82
11, 32403, Note_on_c, 11, 72, 117
11, 32435, Control_c, 11, 11, 83
11, 32487, Control_c, 11, 11, 84
11, 32523, Note_on_c, 11, 72, 0
11, 32523, Note_on_c, 11, 64, 117
11, 32539, Control_c, 11, 11, 85
11, 32591, Control_c, 11, 11, 86
11, 32643, Note_on_c, 11, 64, 0
11, 32643, Control_c, 11, 11, 87
11, 32883, Note_on_c, 11, 76, 117
11, 33003, Note_on_c, 11, 76, 0
11, 33003, Note_on_c, 11, 72, 117
11, 33123, Note_on_c, 11, 72, 0
11, 33363, Control_c, 11, 11, 95
11, 33363, Note_on_c, 11, 72, 117
11, 33483, Note_on_c, 11, 72, 0
11, 33483, Note_on_c, 11, 69, 117
11, 33603, Note_on_c, 11, 69, 0
11, 33843, Note_on_c, 11, 72, 117
11, 33963, Note_on_c, 11, 72, 0
11, 33963, Note_on_c, 11, 69, 117
11, 34083, Note_on_c, 11, 69, 0
11, 34323, Note_on_c, 11, 72, 117
11, 34443, Note_on_c, 11, 72, 0
11, 34443, Note_on_c, 11, 69, 117
11, 34563, Note_on_c, 11, 69, 0
11, 34803, Note_on_c, 11, 72, 117
11, 34923, Note_on_c, 11, 72, 0
11, 34923, Note_on_c, 11, 69, 117
11, 35043, Note_on_c, 11, 69, 0
11, 35043, Note_on_c, 11, 71, 117
11, 35148, Note_on_c, 11, 71, 0
11, 35163, Control_c, 11, 11, 102
11, 35163, Note_on_c, 11, 79, 100
11, 35343, Control_c, 11, 11, 102
11, 35350, Control_c, 11, 11, 99
11, 35358, Control_c, 11, 11, 96
11, 35366, Control_c, 11, 11, 93
11, 35374, Control_c, 11, 11, 90
11, 35384, Control_c, 11, 11, 87
11, 35388, Note_on_c, 11, 79, 0
11, 35392, Control_c, 11, 11, 84
11, 35400, Control_c, 11, 11, 81
11, 35403, Note_on_c, 11, 76, 100
11, 35408, Control_c, 11, 11, 78
11, 35415, Control_c, 11, 11, 75
11, 35426, Control_c, 11, 11, 72
11, 35434, Control_c, 11, 11, 69
11, 35441, Control_c, 11, 11, 66
11, 35449, Control_c, 11, 11, 63
11, 35460, Control_c, 11, 11, 60
11, 35467, Control_c, 11, 11, 57
11, 35475, Control_c, 11, 11, 54
11, 35483, Control_c, 11, 11, 51
11, 35491, Control_c, 11, 11, 48
11, 35508, Note_on_c, 11, 76, 0
11, 35523, Note_on_c, 11, 77, 100
11, 35583, Note_on_c, 11, 77, 0
11, 35643, Note_on_c, 11, 74, 100
11, 35703, Note_on_c, 11, 74, 0
11, 35763, Note_on_c, 11, 76, 100
11, 35823, Note_on_c, 11, 76, 0
11, 35883, Note_on_c, 11, 72, 100
11, 35943, Note_on_c, 11, 72, 0
11, 36003, Note_on_c, 11, 74, 100
11, 36063, Note_on_c, 11, 74, 0
11, 36123, Note_on_c, 11, 71, 100
11, 36183, Note_on_c, 11, 71, 0
11, 36243, Note_on_c, 11, 72, 100
11, 36303, Note_on_c, 11, 72, 0
11, 36363, Note_on_c, 11, 69, 100
11, 36423, Note_on_c, 11, 69, 0
11, 36483, Note_on_c, 11, 71, 100
11, 36543, Note_on_c, 11, 71, 0
11, 36603, Note_on_c, 11, 67, 100
11, 36663, Note_on_c, 11, 67, 0
11, 36723, Note_on_c, 11, 69, 100
11, 36783, Note_on_c, 11, 69, 0
11, 36843, Note_on_c, 11, 67, 100
11, 36903, Note_on_c, 11, 67, 0
11, 36963, Control_c, 11, 11, 47
11, 36963, Note_on_c, 11, 69, 100
11, 36996, Control_c, 11, 11, 48
11, 37023, Note_on_c, 11, 69, 0
11, 37030, Control_c, 11, 11, 49
11, 37064, Control_c, 11, 11, 50
11, 37083, Note_on_c, 11, 67, 101
11, 37098, Control_c, 11, 11, 51
11, 37132, Control_c, 11, 11, 52
11, 37143, Note_on_c, 11, 67, 0
11, 37165, Control_c, 11, 11, 53
11, 37199, Control_c, 11, 11, 54
11, 37203, Note_on_c, 11, 69, 102
11, 37233, Control_c, 11, 11, 55
11, 37263, Note_on_c, 11, 69, 0
11, 37267, Control_c, 11, 11, 56
11, 37301, Control_c, 11, 11, 57
11, 37323, Note_on_c, 11, 67, 103
11, 37335, Control_c, 11, 11, 58
11, 37368, Control_c, 11, 11, 59
11, 37383, Note_on_c, 11, 67, 0
11, 37402, Control_c, 11, 11, 60
11, 37436, Control_c, 11, 11, 61
11, 37443, Note_on_c, 11, 69, 104
11, 37470, Control_c, 11, 11, 62
11, 37503, Note_on_c, 11, 69, 0
11, 37504, Control_c, 11, 11, 63
11, 37537, Control_c, 11, 11, 64
11, 37563, Note_on_c, 11, 67, 105
11, 37571, Control_c, 11, 11, 65
11, 37605, Control_c, 11, 11, 66
11, 37623, Note_on_c, 11, 67, 0
11, 37639, Control_c, 11, 11, 67
11, 37673, Control_c, 11, 11, 68
11, 37683, Note_on_c, 11, 62, 106
11, 37707, Control_c, 11, 11, 69
11, 37740, Control_c, 11, 11, 70
11, 37743, Note_on_c, 11, 62, 0
11, 37774, Control_c, 11, 11, 71
11, 37803, Note_on_c, 11, 67, 107
11, 37808, Control_c, 11, 11, 72
11, 37842, Control_c, 11, 11, 73
11, 37863, Note_on_c, 11, 67, 0
11, 37876, Control_c, 11, 11, 74
11, 37909, Control_c, 11, 11, 75
11, 37923, Note_on_c, 11, 64, 108
11, 37943, Control_c, 11, 11, 76
11, 37977, Control_c, 11, 11, 77
11, 37983, Note_on_c, 11, 64, 0
11, 38011, Control_c, 11, 11, 78
11, 38043, Note_on_c, 11, 67, 109
11, 38045, Control_c, 11, 11, 79
11, 38079, Control_c, 11, 11, 80
11, 38103, Note_on_c, 11, 67, 0
11, 38112, Control_c, 11, 11, 81
11, 38146, Control_c, 11, 11, 82
11, 38163, Note_on_c, 11, 65, 110
11, 38180, Control_c, 11, 11, 83
11, 38214, Control_c, 11, 11, 84
11, 38223, Note_on_c, 11, 65, 0
11, 38248, Control_c, 11, 11, 85
11, 38281, Control_c, 11, 11, 86
11, 38283, Note_on_c, 11, 67, 111
11, 38315, Control_c, 11, 11, 87
11, 38343, Note_on_c, 11, 67, 0
11, 38349, Control_c, 11, 11, 88
11, 38383, Control_c, 11, 11, 89
11, 38403, Note_on_c, 11, 64, 112
11, 38417, Control_c, 11, 11, 90
11, 38451, Control_c, 11, 11, 91
11, 38463, Note_on_c, 11, 64, 0
11, 38484, Control_c, 11, 11, 92
11, 38518, Control_c, 11, 11, 93
11, 38523, Note_on_c, 11, 72, 113
11, 38552, Control_c, 11, 11, 94
11, 38583, Note_on_c, 11, 72, 0
11, 38586, Control_c, 11, 11, 95
11, 38620, Control_c, 11, 11, 96
11, 38643, Note_on_c, 11, 74, 114
11, 38643, Note_on_c, 11, 65, 114
11, 38653, Control_c, 11, 11, 97
11, 38687, Control_c, 11, 11, 98
11, 38703, Note_on_c, 11, 65, 0
11, 38703, Note_on_c, 11, 74, 0
11, 38721, Control_c, 11, 11, 99
11, 38755, Control_c, 11, 11, 100
11, 38789, Control_c, 11, 11, 101
11, 38823, Control_c, 11, 11, 102
11, 38823, Note_on_c, 11, 72, 116
11, 38883, Note_on_c, 11, 72, 0
11, 38883, Note_on_c, 11, 76, 117
11, 39003, Note_on_c, 11, 76, 0
11, 39063, Note_on_c, 11, 76, 117
11, 39123, Note_on_c, 11, 76, 0
11, 39123, Note_on_c, 11, 79, 117
11, 39243, Note_on_c, 11, 79, 0
11, 39303, Note_on_c, 11, 79, 117
11, 39363, Note_on_c, 11, 79, 0
11, 39363, Control_c, 11, 11, 112
11, 39363, Note_on_c, 11, 84, 117
11, 39386, Control_c, 11, 11, 110
11, 39410, Control_c, 11, 11, 108
11, 39434, Control_c, 11, 11, 106
11, 39458, Control_c, 11, 11, 104
11, 39482, Control_c, 11, 11, 102
11, 39708, Note_on_c, 11, 84, 0
11, 39723, Note_on_c, 11, 88, 117
11, 39843, Note_on_c, 11, 88, 0
11, 39843, Note_on_c, 11, 83, 113
11, 39963, Note_on_c, 11, 83, 0
11, 39963, Note_on_c, 11, 84, 108
11, 40083, Note_on_c, 11, 84, 0
11, 40083, Note_on_c, 11, 79, 104
11, 40203, Note_on_c, 11, 79, 0
11, 40203, Note_on_c, 11, 81, 99
11, 40308, Note_on_c, 11, 81, 0
11, 40323, Note_on_c, 11, 79, 125
11, 40343, Note_on_c, 11, 79, 0
11, 40343, Note_on_c, 11, 83, 125
11, 40363, Note_on_c, 11, 83, 0
11, 40363, Note_on_c, 11, 81, 117
11, 40443, Note_on_c, 11, 81, 0
11, 40443, Note_on_c, 11, 79, 117
11, 40563, Note_on_c, 11, 79, 0
11, 40563, Note_on_c, 11, 88, 127
11, 40683, Note_on_c, 11, 88, 0
11, 40683, Note_on_c, 11, 84, 122
11, 40803, Note_on_c, 11, 84, 0
11, 40803, Note_on_c, 11, 83, 117
11, 40923, Note_on_c, 11, 83, 0
11, 40923, Note_on_c, 11, 84, 111
11, 41043, Note_on_c, 11, 84, 0
11, 41043, Note_on_c, 11, 79, 105
11, 41163, Note_on_c, 11, 79, 0
11, 41163, Note_on_c, 11, 81, 99
11, 41268, Note_on_c, 11, 81, 0
11, 41283, Note_on_c, 11, 79, 125
11, 41303, Note_on_c, 11, 79, 0
11, 41303, Note_on_c, 11, 83, 125
11, 41323, Note_on_c, 11, 83, 0
11, 41323, Note_on_c, 11, 81, 117
11, 41403, Note_on_c, 11, 81, 0
11, 41403, Note_on_c, 11, 79, 117
11, 41508, Note_on_c, 11, 79, 0
11, 41523, Note_on_c, 11, 88, 127
11, 41643, Note_on_c, 11, 88, 0
11, 41643, Note_on_c, 11, 84, 119
11, 41763, Note_on_c, 11, 84, 0
11, 41763, Note_on_c, 11, 83, 109
11, 41883, Note_on_c, 11, 83, 0
11, 41883, Note_on_c, 11, 84, 99
11, 42108, Note_on_c, 11, 84, 0
11, 42123, Note_on_c, 11, 79, 127
11, 42183, Note_on_c, 11, 79, 0
11, 42183, Note_on_c, 11, 76, 126
11, 42228, Note_on_c, 11, 76, 0
11, 42243, Note_on_c, 11, 76, 117
11, 42363, Note_on_c, 11, 76, 0
11, 42363, Note_on_c, 11, 74, 117
11, 42483, Note_on_c, 11, 74, 0
11, 42603, Note_on_c, 11, 77, 127
11, 42663, Note_on_c, 11, 77, 0
11, 42663, Note_on_c, 11, 74, 126
11, 42708, Note_on_c, 11, 74, 0
11, 42723, Note_on_c, 11, 72, 117
11, 42843, Note_on_c, 11, 72, 0
11, 42843, Note_on_c, 11, 71, 117
11, 42963, Note_on_c, 11, 71, 0
11, 43083, Note_on_c, 11, 74, 127
11, 43143, Note_on_c, 11, 74, 0
11, 43143, Note_on_c, 11, 65, 126
11, 43188, Note_on_c, 11, 65, 0
11, 43203, Note_on_c, 11, 64, 125
11, 43233, Note_on_c, 11, 64, 0
11, 43233, Note_on_c, 11, 67, 125
11, 43263, Note_on_c, 11, 67, 0
11, 43263, Note_on_c, 11, 65, 117
11, 43323, Note_on_c, 11, 65, 0
11, 43323, Note_on_c, 11, 64, 117
11, 43443, Note_on_c, 11, 64, 0
11, 43563, Note_on_c, 11, 88, 127
11, 43623, Note_on_c, 11, 88, 0
11, 43623, Note_on_c, 11, 84, 126
11, 43683, Note_on_c, 11, 84, 0
11, 43683, Note_on_c, 11, 83, 117
11, 43743, Note_on_c, 11, 83, 0
11, 43743, Note_on_c, 11, 86, 117
11, 43788, Note_on_c, 11, 86, 0
11, 43803, Note_on_c, 11, 84, 117
11, 44023, Note_on_c, 11, 84, 0
11, 44043, Note_on_c, 11, 79, 127
11, 44103, Note_on_c, 11, 79, 0
11, 44103, Note_on_c, 11, 76, 126
11, 44148, Note_on_c, 11, 76, 0
11, 44163, Note_on_c, 11, 76, 117
11, 44283, Note_on_c, 11, 76, 0
11, 44283, Note_on_c, 11, 74, 117
11, 44403, Note_on_c, 11, 74, 0
11, 44523, Note_on_c, 11, 81, 127
11, 44583, Note_on_c, 11, 81, 0
11, 44583, Note_on_c, 11, 77, 126
11, 44628, Note_on_c, 11, 77, 0
11, 44643, Note_on_c, 11, 76, 117
11, 44763, Note_on_c, 11, 76, 0
11, 44763, Note_on_c, 11, 74, 117
11, 44883, Note_on_c, 11, 74, 0
11, 45003, Note_on_c, 11, 81, 127
11, 45063, Note_on_c, 11, 81, 0
11, 45063, Note_on_c, 11, 77, 126
11, 45108, Note_on_c, 11, 77, 0
11, 45123, Note_on_c, 11, 76, 117
11, 45243, Note_on_c, 11, 76, 0
11, 45243, Note_on_c, 11, 74, 117
11, 45363, Note_on_c, 11, 74, 0
11, 45483, Note_on_c, 11, 81, 127
11, 45543, Note_on_c, 11, 81, 0
11, 45543, Note_on_c, 11, 78, 126
11, 45588, Note_on_c, 11, 78, 0
11, 45603, Note_on_c, 11, 76, 117
11, 45723, Note_on_c, 11, 76, 0
11, 45723, Note_on_c, 11, 74, 117
11, 45843, Note_on_c, 11, 74, 0
11, 45963, Note_on_c, 11, 81, 127
11, 46023, Note_on_c, 11, 81, 0
11, 46023, Note_on_c, 11, 78, 126
11, 46068, Note_on_c, 11, 78, 0
11, 46083, Note_on_c, 11, 81, 100
11, 46173, Control_c, 11, 11, 102
11, 46175, Control_c, 11, 11, 99
11, 46178, Control_c, 11, 11, 96
11, 46180, Control_c, 11, 11, 93
11, 46183, Control_c, 11, 11, 90
11, 46186, Control_c, 11, 11, 86
11, 46188, Note_on_c, 11, 81, 0
11, 46189, Control_c, 11, 11, 83
11, 46192, Control_c, 11, 11, 79
11, 46195, Control_c, 11, 11, 76
11, 46198, Control_c, 11, 11, 72
11, 46201, Control_c, 11, 11, 69
11, 46203, Note_on_c, 11, 60, 75
11, 46215, Control_c, 11, 11, 66
11, 46239, Control_c, 11, 11, 64
11, 46263, Note_on_c, 11, 60, 0
11, 46263, Control_c, 11, 11, 62
11, 46263, Note_on_c, 11, 57, 75
11, 46287, Control_c, 11, 11, 60
11, 46311, Control_c, 11, 11, 58
11, 46323, Note_on_c, 11, 57, 0
11, 46323, Note_on_c, 11, 60, 75
11, 46335, Control_c, 11, 11, 56
11, 46359, Control_c, 11, 11, 54
11, 46383, Note_on_c, 11, 60, 0
11, 46383, Control_c, 11, 11, 52
11, 46383, Note_on_c, 11, 57, 75
11, 46407, Control_c, 11, 11, 50
11, 46431, Control_c, 11, 11, 48
11, 46443, Note_on_c, 11, 57, 0
11, 46443, Note_on_c, 11, 60, 75
11, 46503, Note_on_c, 11, 60, 0
11, 46503, Note_on_c, 11, 57, 75
11, 46553, Note_on_c, 11, 57, 0
11, 46563, Note_on_c, 11, 60, 75
11, 46623, Note_on_c, 11, 60, 0
11, 46623, Note_on_c, 11, 57, 75
11, 46683, Note_on_c, 11, 57, 0
11, 46683, Note_on_c, 11, 60, 75
11, 46743, Note_on_c, 11, 60, 0
11, 46743, Note_on_c, 11, 57, 75
11, 46803, Note_on_c, 11, 57, 0
11, 46803, Note_on_c, 11, 60, 75
11, 46863, Note_on_c, 11, 60, 0
11, 46863, Note_on_c, 11, 57, 75
11, 46923, Note_on_c, 11, 57, 0
11, 46923, Note_on_c, 11, 60, 75
11, 46983, Note_on_c, 11, 60, 0
11, 46983, Note_on_c, 11, 57, 75
11, 47033, Note_on_c, 11, 57, 0
11, 47043, Note_on_c, 11, 60, 75
11, 47103, Note_on_c, 11, 60, 0
11, 47103, Note_on_c, 11, 57, 75
11, 47163, Note_on_c, 11, 57, 0
11, 47163, Note_on_c, 11, 60, 75
11, 47223, Note_on_c, 11, 60, 0
11, 47223, Note_on_c, 11, 57, 75
11, 47283, Note_on_c, 11, 57, 0
11, 47283, Note_on_c, 11, 60, 75
11, 47343, Note_on_c, 11, 60, 0
11, 47343, Note_on_c, 11, 57, 75
11, 47403, Note_on_c, 11, 57, 0
11, 47403, Note_on_c, 11, 60, 75
11, 47463, Note_on_c, 11, 60, 0
11, 47463, Note_on_c, 11, 57, 75
11, 47513, Note_on_c, 11, 57, 0
11, 47523, Note_on_c, 11, 60, 75
11, 47583, Note_on_c, 11, 60, 0
11, 47583, Note_on_c, 11, 57, 75
11, 47643, Note_on_c, 11, 57, 0
11, 47643, Note_on_c, 11, 60, 75
11, 47703, Note_on_c, 11, 60, 0
11, 47703, Note_on_c, 11, 57, 75
11, 47763, Note_on_c, 11, 57, 0
11, 47763, Note_on_c, 11, 60, 75
11, 47823, Note_on_c, 11, 60, 0
11, 47823, Note_on_c, 11, 57, 75
11, 47883, Note_on_c, 11, 57, 0
11, 47883, Note_on_c, 11, 60, 75
11, 47943, Note_on_c, 11, 60, 0
11, 47943, Note_on_c, 11, 57, 75
11, 47993, Note_on_c, 11, 57, 0
11, 48003, Note_on_c, 11, 60, 75
11, 48063, Note_on_c, 11, 60, 0
11, 48063, Note_on_c, 11, 57, 75
11, 48123, Note_on_c, 11, 57, 0
11, 48123, Note_on_c, 11, 60, 75
11, 48183, Note_on_c, 11, 60, 0
11, 48183, Note_on_c, 11, 57, 75
11, 48243, Note_on_c, 11, 57, 0
11, 48243, Note_on_c, 11, 60, 75
11, 48303, Note_on_c, 11, 60, 0
11, 48303, Note_on_c, 11, 57, 75
11, 48363, Note_on_c, 11, 57, 0
11, 48363, Note_on_c, 11, 60, 75
11, 48423, Note_on_c, 11, 60, 0
11, 48423, Note_on_c, 11, 57, 75
11, 48473, Note_on_c, 11, 57, 0
11, 48483, Note_on_c, 11, 60, 75
11, 48543, Note_on_c, 11, 60, 0
11, 48543, Note_on_c, 11, 57, 75
11, 48603, Note_on_c, 11, 57, 0
11, 48603, Note_on_c, 11, 60, 75
11, 48663, Note_on_c, 11, 60, 0
11, 48663, Note_on_c, 11, 57, 75
11, 48723, Note_on_c, 11, 57, 0
11, 48723, Note_on_c, 11, 60, 75
11, 48783, Note_on_c, 11, 60, 0
11, 48783, Note_on_c, 11, 57, 75
11, 48843, Note_on_c, 11, 57, 0
11, 48843, Note_on_c, 11, 60, 75
11, 48903, Note_on_c, 11, 60, 0
11, 48903, Note_on_c, 11, 57, 75
11, 48953, Note_on_c, 11, 57, 0
11, 48963, Control_c, 11, 11, 62
11, 48963, Note_on_c, 11, 60, 75
11, 48995, Control_c, 11, 11, 61
11, 49023, Note_on_c, 11, 60, 0
11, 49023, Note_on_c, 11, 57, 75
11, 49027, Control_c, 11, 11, 60
11, 49059, Control_c, 11, 11, 59
11, 49083, Note_on_c, 11, 57, 0
11, 49083, Note_on_c, 11, 60, 75
11, 49091, Control_c, 11, 11, 58
11, 49123, Control_c, 11, 11, 57
11, 49143, Note_on_c, 11, 60, 0
11, 49143, Note_on_c, 11, 57, 75
11, 49155, Control_c, 11, 11, 56
11, 49187, Control_c, 11, 11, 55
11, 49203, Note_on_c, 11, 57, 0
11, 49203, Note_on_c, 11, 60, 75
11, 49219, Control_c, 11, 11, 54
11, 49251, Control_c, 11, 11, 53
11, 49263, Note_on_c, 11, 60, 0
11, 49263, Note_on_c, 11, 57, 75
11, 49283, Control_c, 11, 11, 52
11, 49315, Control_c, 11, 11, 51
11, 49323, Note_on_c, 11, 57, 0
11, 49323, Note_on_c, 11, 60, 75
11, 49347, Control_c, 11, 11, 50
11, 49379, Control_c, 11, 11, 49
11, 49383, Note_on_c, 11, 60, 0
11, 49383, Note_on_c, 11, 57, 75
11, 49411, Control_c, 11, 11, 48
11, 49433, Note_on_c, 11, 57, 0
11, 49443, Control_c, 11, 11, 47
11, 49443, Note_on_c, 11, 60, 75
11, 49503, Note_on_c, 11, 60, 0
11, 49503, Note_on_c, 11, 57, 75
11, 49563, Note_on_c, 11, 57, 0
11, 49563, Note_on_c, 11, 60, 75
11, 49623, Note_on_c, 11, 60, 0
11, 49623, Note_on_c, 11, 57, 75
11, 49683, Note_on_c, 11, 57, 0
11, 49683, Note_on_c, 11, 60, 75
11, 49743, Note_on_c, 11, 60, 0
11, 49743, Note_on_c, 11, 57, 75
11, 49803, Note_on_c, 11, 57, 0
11, 49803, Note_on_c, 11, 60, 75
11, 49863, Note_on_c, 11, 60, 0
11, 49863, Note_on_c, 11, 57, 75
11, 49913, Note_on_c, 11, 57, 0
11, 49923, Note_on_c, 11, 60, 85
11, 49983, Note_on_c, 11, 60, 0
11, 49983, Note_on_c, 11, 66, 85
11, 50043, Note_on_c, 11, 66, 0
11, 50043, Note_on_c, 11, 69, 85
11, 50103, Note_on_c, 11, 69, 0
11, 50103, Note_on_c, 11, 66, 85
11, 50163, Note_on_c, 11, 66, 0
11, 50163, Note_on_c, 11, 69, 85
11, 50223, Note_on_c, 11, 69, 0
11, 50223, Note_on_c, 11, 66, 85
11, 50283, Note_on_c, 11, 66, 0
11, 50283, Note_on_c, 11, 69, 85
11, 50343, Note_on_c, 11, 69, 0
11, 50343, Note_on_c, 11, 66, 85
11, 50393, Note_on_c, 11, 66, 0
11, 50403, Note_on_c, 11, 69, 85
11, 50463, Note_on_c, 11, 69, 0
11, 50463, Note_on_c, 11, 66, 85
11, 50523, Note_on_c, 11, 66, 0
11, 50523, Note_on_c, 11, 69, 85
11, 50583, Note_on_c, 11, 69, 0
11, 50583, Note_on_c, 11, 66, 85
11, 50643, Note_on_c, 11, 66, 0
11, 50643, Note_on_c, 11, 69, 85
11, 50703, Note_on_c, 11, 69, 0
11, 50703, Note_on_c, 11, 66, 85
11, 50763, Note_on_c, 11, 66, 0
11, 50763, Note_on_c, 11, 69, 85
11, 50823, Note_on_c, 11, 69, 0
11, 50823, Note_on_c, 11, 66, 85
11, 50873, Note_on_c, 11, 66, 0
11, 50883, Control_c, 11, 11, 62
11, 50883, Note_on_c, 11, 72, 85
11, 50915, Control_c, 11, 11, 61
11, 50943, Note_on_c, 11, 72, 0
11, 50943, Note_on_c, 11, 69, 85
11, 50947, Control_c, 11, 11, 60
11, 50979, Control_c, 11, 11, 59
11, 51003, Note_on_c, 11, 69, 0
11, 51003, Note_on_c, 11, 72, 85
11, 51011, Control_c, 11, 11, 58
11, 51043, Control_c, 11, 11, 57
11, 51063, Note_on_c, 11, 72, 0
11, 51063, Note_on_c, 11, 69, 85
11, 51075, Control_c, 11, 11, 56
11, 51107, Control_c, 11, 11, 55
11, 51123, Note_on_c, 11, 69, 0
11, 51123, Note_on_c, 11, 72, 85
11, 51139, Control_c, 11, 11, 54
11, 51171, Control_c, 11, 11, 53
11, 51183, Note_on_c, 11, 72, 0
11, 51183, Note_on_c, 11, 69, 85
11, 51203, Control_c, 11, 11, 52
11, 51235, Control_c, 11, 11, 51
11, 51243, Note_on_c, 11, 69, 0
11, 51243, Note_on_c, 11, 72, 85
11, 51267, Control_c, 11, 11, 50
11, 51299, Control_c, 11, 11, 49
11, 51303, Note_on_c, 11, 72, 0
11, 51303, Note_on_c, 11, 69, 85
11, 51331, Control_c, 11, 11, 48
11, 51353, Note_on_c, 11, 69, 0
11, 51363, Control_c, 11, 11, 47
11, 51363, Note_on_c, 11, 72, 85
11, 51423, Note_on_c, 11, 72, 0
11, 51423, Note_on_c, 11, 69, 85
11, 51483, Note_on_c, 11, 69, 0
11, 51483, Note_on_c, 11, 72, 85
11, 51543, Note_on_c, 11, 72, 0
11, 51543, Note_on_c, 11, 69, 85
11, 51603, Note_on_c, 11, 69, 0
11, 51603, Note_on_c, 11, 72, 85
11, 51663, Note_on_c, 11, 72, 0
11, 51663, Note_on_c, 11, 69, 85
11, 51713, Note_on_c, 11, 69, 0
11, 51723, Note_on_c, 11, 69, 85
11, 51783, Note_on_c, 11, 69, 0
11, 51783, Note_on_c, 11, 62, 85
11, 51833, Note_on_c, 11, 62, 0
11, 51843, Note_on_c, 11, 70, 85
11, 51903, Note_on_c, 11, 70, 0
11, 51903, Note_on_c, 11, 67, 85
11, 51963, Note_on_c, 11, 67, 0
11, 51963, Note_on_c, 11, 70, 85
11, 52023, Note_on_c, 11, 70, 0
11, 52023, Note_on_c, 11, 67, 85
11, 52083, Note_on_c, 11, 67, 0
11, 52083, Note_on_c, 11, 70, 85
11, 52133, Note_on_c, 11, 70, 0
11, 52143, Note_on_c, 11, 70, 85
11, 52173, Note_on_c, 11, 70, 0
11, 52203, Note_on_c, 11, 70, 85
11, 52233, Note_on_c, 11, 70, 0
11, 52263, Note_on_c, 11, 70, 85
11, 52293, Note_on_c, 11, 70, 0
11, 52323, Note_on_c, 11, 69, 85
11, 52383, Note_on_c, 11, 69, 0
11, 52383, Note_on_c, 11, 63, 85
11, 52443, Note_on_c, 11, 63, 0
11, 52443, Note_on_c, 11, 69, 85
11, 52503, Note_on_c, 11, 69, 0
11, 52503, Note_on_c, 11, 63, 85
11, 52563, Note_on_c, 11, 63, 0
11, 52563, Note_on_c, 11, 69, 85
11, 52613, Note_on_c, 11, 69, 0
11, 52623, Note_on_c, 11, 69, 85
11, 52653, Note_on_c, 11, 69, 0
11, 52683, Note_on_c, 11, 69, 85
11, 52713, Note_on_c, 11, 69, 0
11, 52743, Note_on_c, 11, 69, 85
11, 52773, Note_on_c, 11, 69, 0
11, 52803, Note_on_c, 11, 67, 85
11, 52863, Note_on_c, 11, 67, 0
11, 52863, Note_on_c, 11, 62, 85
11, 52923, Note_on_c, 11, 62, 0
11, 52923, Note_on_c, 11, 67, 85
11, 52983, Note_on_c, 11, 67, 0
11, 52983, Note_on_c, 11, 62, 85
11, 53043, Note_on_c, 11, 62, 0
11, 53043, Note_on_c, 11, 67, 85
11, 53093, Note_on_c, 11, 67, 0
11, 53103, Note_on_c, 11, 67, 85
11, 53133, Note_on_c, 11, 67, 0
11, 53163, Note_on_c, 11, 67, 85
11, 53193, Note_on_c, 11, 67, 0
11, 53223, Note_on_c, 11, 67, 85
11, 53253, Note_on_c, 11, 67, 0
11, 53283, Note_on_c, 11, 66, 85
11, 53343, Note_on_c, 11, 66, 0
11, 53343, Note_on_c, 11, 62, 85
11, 53403, Note_on_c, 11, 62, 0
11, 53403, Note_on_c, 11, 66, 85
11, 53463, Note_on_c, 11, 66, 0
11, 53463, Note_on_c, 11, 62, 85
11, 53513, Note_on_c, 11, 62, 0
11, 53523, Note_on_c, 11, 69, 85
11, 53583, Note_on_c, 11, 69, 0
11, 53583, Note_on_c, 11, 66, 85
11, 53643, Note_on_c, 11, 66, 0
11, 53643, Note_on_c, 11, 69, 85
11, 53703, Note_on_c, 11, 69, 0
11, 53703, Note_on_c, 11, 66, 85
11, 53753, Note_on_c, 11, 66, 0
11, 53763, Control_c, 11, 11, 62
11, 53763, Note_on_c, 11, 72, 85
11, 53795, Control_c, 11, 11, 61
11, 53823, Note_on_c, 11, 72, 0
11, 53823, Note_on_c, 11, 69, 85
11, 53827, Control_c, 11, 11, 60
11, 53859, Control_c, 11, 11, 59
11, 53883, Note_on_c, 11, 69, 0
11, 53883, Note_on_c, 11, 72, 85
11, 53891, Control_c, 11, 11, 58
11, 53923, Control_c, 11, 11, 57
11, 53943, Note_on_c, 11, 72, 0
11, 53943, Note_on_c, 11, 69, 85
11, 53955, Control_c, 11, 11, 56
11, 53987, Control_c, 11, 11, 55
11, 54003, Note_on_c, 11, 69, 0
11, 54003, Note_on_c, 11, 72, 85
11, 54019, Control_c, 11, 11, 54
11, 54051, Control_c, 11, 11, 53
11, 54063, Note_on_c, 11, 72, 0
11, 54063, Note_on_c, 11, 69, 85
11, 54083, Control_c, 11, 11, 52
11, 54115, Control_c, 11, 11, 51
11, 54123, Note_on_c, 11, 69, 0
11, 54123, Note_on_c, 11, 72, 85
11, 54147, Control_c, 11, 11, 50
11, 54179, Control_c, 11, 11, 49
11, 54183, Note_on_c, 11, 72, 0
11, 54183, Note_on_c, 11, 69, 85
11, 54211, Control_c, 11, 11, 48
11, 54233, Note_on_c, 11, 69, 0
11, 54243, Control_c, 11, 11, 47
11, 54243, Note_on_c, 11, 72, 85
11, 54303, Note_on_c, 11, 72, 0
11, 54303, Note_on_c, 11, 69, 85
11, 54363, Note_on_c, 11, 69, 0
11, 54363, Note_on_c, 11, 72, 85
11, 54423, Note_on_c, 11, 72, 0
11, 54423, Note_on_c, 11, 69, 85
11, 54473, Note_on_c, 11, 69, 0
11, 54483, Note_on_c, 11, 69, 85
11, 54543, Note_on_c, 11, 69, 0
11, 54543, Note_on_c, 11, 62, 85
11, 54603, Note_on_c, 11, 62, 0
11, 54603, Note_on_c, 11, 69, 85
11, 54663, Note_on_c, 11, 69, 0
11, 54663, Note_on_c, 11, 62, 85
11, 54713, Note_on_c, 11, 62, 0
11, 54723, Control_c, 11, 11, 47
11, 54723, Note_on_c, 11, 70, 85
11, 54771, Control_c, 11, 11, 48
11, 54783, Note_on_c, 11, 70, 0
11, 54783, Note_on_c, 11, 67, 85
11, 54819, Control_c, 11, 11, 49
11, 54843, Note_on_c, 11, 67, 0
11, 54843, Note_on_c, 11, 70, 85
11, 54867, Control_c, 11, 11, 50
11, 54903, Note_on_c, 11, 70, 0
11, 54903, Note_on_c, 11, 67, 85
11, 54915, Control_c, 11, 11, 51
11, 54963, Note_on_c, 11, 67, 0
11, 54963, Control_c, 11, 11, 52
11, 54963, Note_on_c, 11, 70, 85
11, 55011, Control_c, 11, 11, 53
11, 55013, Note_on_c, 11, 70, 0
11, 55023, Note_on_c, 11, 70, 85
11, 55053, Note_on_c, 11, 70, 0
11, 55059, Control_c, 11, 11, 54
11, 55083, Note_on_c, 11, 70, 85
11, 55107, Control_c, 11, 11, 55
11, 55113, Note_on_c, 11, 70, 0
11, 55143, Note_on_c, 11, 70, 85
11, 55155, Control_c, 11, 11, 56
11, 55173, Note_on_c, 11, 70, 0
11, 55203, Control_c, 11, 11, 57
11, 55203, Note_on_c, 11, 70, 85
11, 55251, Control_c, 11, 11, 58
11, 55263, Note_on_c, 11, 70, 0
11, 55263, Note_on_c, 11, 67, 85
11, 55299, Control_c, 11, 11, 59
11, 55323, Note_on_c, 11, 67, 0
11, 55323, Note_on_c, 11, 70, 85
11, 55347, Control_c, 11, 11, 60
11, 55383, Note_on_c, 11, 70, 0
11, 55383, Note_on_c, 11, 67, 85
11, 55395, Control_c, 11, 11, 61
11, 55443, Note_on_c, 11, 67, 0
11, 55443, Control_c, 11, 11, 62
11, 55443, Note_on_c, 11, 70, 85
11, 55491, Control_c, 11, 11, 63
11, 55493, Note_on_c, 11, 70, 0
11, 55503, Note_on_c, 11, 70, 85
11, 55533, Note_on_c, 11, 70, 0
11, 55539, Control_c, 11, 11, 64
11, 55563, Note_on_c, 11, 70, 85
11, 55587, Control_c, 11, 11, 65
11, 55593, Note_on_c, 11, 70, 0
11, 55623, Note_on_c, 11, 70, 85
11, 55635, Control_c, 11, 11, 66
11, 55653, Note_on_c, 11, 70, 0
11, 55683, Control_c, 11, 11, 67
11, 55683, Note_on_c, 11, 74, 85
11, 55731, Control_c, 11, 11, 68
11, 55743, Note_on_c, 11, 74, 0
11, 55743, Note_on_c, 11, 70, 85
11, 55779, Control_c, 11, 11, 69
11, 55803, Note_on_c, 11, 70, 0
11, 55803, Note_on_c, 11, 65, 85
11, 55827, Control_c, 11, 11, 70
11, 55863, Note_on_c, 11, 65, 0
11, 55863, Note_on_c, 11, 62, 85
11, 55875, Control_c, 11, 11, 71
11, 55923, Note_on_c, 11, 62, 0
11, 55923, Control_c, 11, 11, 72
11, 55923, Note_on_c, 11, 74, 85
11, 55971, Control_c, 11, 11, 73
11, 55973, Note_on_c, 11, 74, 0
11, 55983, Note_on_c, 11, 74, 85
11, 56013, Note_on_c, 11, 74, 0
11, 56019, Control_c, 11, 11, 74
11, 56043, Note_on_c, 11, 74, 85
11, 56067, Control_c, 11, 11, 75
11, 56073, Note_on_c, 11, 74, 0
11, 56103, Note_on_c, 11, 74, 85
11, 56115, Control_c, 11, 11, 76
11, 56133, Note_on_c, 11, 74, 0
11, 56163, Control_c, 11, 11, 77
11, 56163, Note_on_c, 11, 75, 85
11, 56211, Control_c, 11, 11, 78
11, 56223, Note_on_c, 11, 75, 0
11, 56223, Note_on_c, 11, 72, 85
11, 56259, Control_c, 11, 11, 79
11, 56283, Note_on_c, 11, 72, 0
11, 56283, Note_on_c, 11, 75, 85
11, 56307, Control_c, 11, 11, 80
11, 56343, Note_on_c, 11, 75, 0
11, 56343, Note_on_c, 11, 72, 85
11, 56355, Control_c, 11, 11, 81
11, 56393, Note_on_c, 11, 72, 0
11, 56403, Control_c, 11, 11, 82
11, 56403, Note_on_c, 11, 69, 85
11, 56451, Control_c, 11, 11, 83
11, 56453, Note_on_c, 11, 69, 0
11, 56463, Note_on_c, 11, 69, 85
11, 56499, Control_c, 11, 11, 84
11, 56513, Note_on_c, 11, 69, 0
11, 56523, Note_on_c, 11, 63, 85
11, 56547, Control_c, 11, 11, 85
11, 56573, Note_on_c, 11, 63, 0
11, 56583, Note_on_c, 11, 63, 85
11, 56595, Control_c, 11, 11, 86
11, 56633, Note_on_c, 11, 63, 0
11, 56643, Control_c, 11, 11, 87
11, 56643, Note_on_c, 11, 58, 75
11, 56643, Note_on_c, 11, 62, 75
11, 56763, Note_on_c, 11, 62, 0
11, 56763, Note_on_c, 11, 58, 0
11, 57243, Control_c, 11, 11, 47
11, 57243, Note_on_c, 11, 70, 100
11, 57303, Note_on_c, 11, 70, 0
11, 57363, Note_on_c, 11, 69, 100
11, 57423, Note_on_c, 11, 69, 0
11, 57483, Note_on_c, 11, 70, 100
11, 57543, Note_on_c, 11, 70, 0
11, 57603, Note_on_c, 11, 72, 100
11, 57723, Note_on_c, 11, 72, 0
11, 57723, Note_on_c, 11, 69, 100
11, 57833, Note_on_c, 11, 69, 0
11, 57843, Note_on_c, 11, 65, 100
11, 57903, Note_on_c, 11, 65, 0
11, 57963, Note_on_c, 11, 63, 100
11, 58023, Note_on_c, 11, 63, 0
11, 58083, Note_on_c, 11, 62, 100
11, 58143, Note_on_c, 11, 62, 0
11, 58203, Note_on_c, 11, 65, 100
11, 58263, Note_on_c, 11, 65, 0
11, 58323, Note_on_c, 11, 69, 100
11, 58383, Note_on_c, 11, 69, 0
11, 58443, Control_c, 11, 11, 47
11, 58443, Note_on_c, 11, 71, 100
11, 58452, Control_c, 11, 11, 50
11, 58461, Control_c, 11, 11, 53
11, 58470, Control_c, 11, 11, 56
11, 58479, Control_c, 11, 11, 59
11, 58488, Control_c, 11, 11, 62
11, 58497, Control_c, 11, 11, 65
11, 58503, Note_on_c, 11, 71, 0
11, 58506, Control_c, 11, 11, 68
11, 58515, Control_c, 11, 11, 71
11, 58524, Control_c, 11, 11, 74
11, 58533, Control_c, 11, 11, 77
11, 58542, Control_c, 11, 11, 80
11, 58551, Control_c, 11, 11, 83
11, 58560, Control_c, 11, 11, 86
11, 58563, Note_on_c, 11, 72, 100
11, 58623, Note_on_c, 11, 72, 0
11, 59163, Control_c, 11, 11, 47
11, 59163, Note_on_c, 11, 72, 100
11, 59223, Note_on_c, 11, 72, 0
11, 59283, Note_on_c, 11, 71, 100
11, 59343, Note_on_c, 11, 71, 0
11, 59403, Note_on_c, 11, 72, 100
11, 59463, Note_on_c, 11, 72, 0
11, 59523, Note_on_c, 11, 74, 100
11, 59643, Note_on_c, 11, 74, 0
11, 59643, Note_on_c, 11, 71, 100
11, 59753, Note_on_c, 11, 71, 0
11, 59763, Note_on_c, 11, 67, 100
11, 59823, Note_on_c, 11, 67, 0
11, 59883, Note_on_c, 11, 65, 100
11, 59943, Note_on_c, 11, 65, 0
11, 60003, Note_on_c, 11, 63, 100
11, 60063, Note_on_c, 11, 63, 0
11, 60123, Note_on_c, 11, 67, 100
11, 60183, Note_on_c, 11, 67, 0
11, 60243, Note_on_c, 11, 72, 100
11, 60303, Note_on_c, 11, 72, 0
11, 60363, Note_on_c, 11, 74, 100
11, 60423, Note_on_c, 11, 74, 0
11, 60483, Control_c, 11, 11, 72
11, 60483, Note_on_c, 11, 75, 100
11, 60486, Control_c, 11, 11, 75
11, 60489, Control_c, 11, 11, 78
11, 60492, Control_c, 11, 11, 81
11, 60508, Control_c, 11, 11, 79
11, 60525, Control_c, 11, 11, 77
11, 60541, Control_c, 11, 11, 75
11, 60558, Control_c, 11, 11, 73
11, 60574, Control_c, 11, 11, 71
11, 60591, Control_c, 11, 11, 69
11, 60603, Note_on_c, 11, 75, 0
11, 60603, Note_on_c, 11, 72, 100
11, 60607, Control_c, 11, 11, 67
11, 60624, Control_c, 11, 11, 65
11, 60640, Control_c, 11, 11, 63
11, 60713, Note_on_c, 11, 72, 0
11, 60723, Control_c, 11, 11, 49
11, 60723, Note_on_c, 11, 69, 100
11, 60783, Note_on_c, 11, 69, 0
11, 60843, Note_on_c, 11, 67, 100
11, 60903, Note_on_c, 11, 67, 0
11, 60963, Note_on_c, 11, 66, 100
11, 61023, Note_on_c, 11, 66, 0
11, 61083, Note_on_c, 11, 69, 100
11, 61143, Note_on_c, 11, 69, 0
11, 61203, Note_on_c, 11, 72, 100
11, 61263, Note_on_c, 11, 72, 0
11, 61323, Note_on_c, 11, 74, 100
11, 61383, Note_on_c, 11, 74, 0
11, 61443, Control_c, 11, 11, 72
11, 61443, Note_on_c, 11, 75, 100
11, 61446, Control_c, 11, 11, 75
11, 61449, Control_c, 11, 11, 78
11, 61452, Control_c, 11, 11, 81
11, 61468, Control_c, 11, 11, 79
11, 61485, Control_c, 11, 11, 77
11, 61501, Control_c, 11, 11, 75
11, 61503, Note_on_c, 11, 75, 0
11, 61518, Control_c, 11, 11, 73
11, 61534, Control_c, 11, 11, 71
11, 61551, Control_c, 11, 11, 69
11, 61563, Note_on_c, 11, 71, 100
11, 61567, Control_c, 11, 11, 67
11, 61584, Control_c, 11, 11, 65
11, 61600, Control_c, 11, 11, 63
11, 61683, Note_on_c, 11, 71, 0
11, 61683, Control_c, 11, 11, 49
11, 61683, Note_on_c, 11, 72, 100
11, 61803, Note_on_c, 11, 72, 0
11, 61803, Note_on_c, 11, 66, 100
11, 61913, Note_on_c, 11, 66, 0
11, 61923, Control_c, 11, 11, 72
11, 61923, Note_on_c, 11, 75, 100
11, 61926, Control_c, 11, 11, 75
11, 61929, Control_c, 11, 11, 78
11, 61932, Control_c, 11, 11, 81
11, 61948, Control_c, 11, 11, 79
11, 61965, Control_c, 11, 11, 77
11, 61981, Control_c, 11, 11, 75
11, 61983, Note_on_c, 11, 75, 0
11, 61998, Control_c, 11, 11, 73
11, 62014, Control_c, 11, 11, 71
11, 62031, Control_c, 11, 11, 69
11, 62043, Note_on_c, 11, 71, 100
11, 62047, Control_c, 11, 11, 67
11, 62064, Control_c, 11, 11, 65
11, 62080, Control_c, 11, 11, 63
11, 62163, Note_on_c, 11, 71, 0
11, 62163, Control_c, 11, 11, 49
11, 62163, Note_on_c, 11, 72, 100
11, 62283, Note_on_c, 11, 72, 0
11, 62283, Note_on_c, 11, 67, 100
11, 62393, Note_on_c, 11, 67, 0
11, 62403, Control_c, 11, 11, 72
11, 62403, Note_on_c, 11, 75, 100
11, 62406, Control_c, 11, 11, 75
11, 62409, Control_c, 11, 11, 78
11, 62412, Control_c, 11, 11, 81
11, 62428, Control_c, 11, 11, 79
11, 62445, Control_c, 11, 11, 77
11, 62461, Control_c, 11, 11, 75
11, 62463, Note_on_c, 11, 75, 0
11, 62478, Control_c, 11, 11, 73
11, 62494, Control_c, 11, 11, 71
11, 62511, Control_c, 11, 11, 69
11, 62523, Note_on_c, 11, 71, 100
11, 62527, Control_c, 11, 11, 67
11, 62544, Control_c, 11, 11, 65
11, 62560, Control_c, 11, 11, 63
11, 62643, Note_on_c, 11, 71, 0
11, 62643, Control_c, 11, 11, 49
11, 62643, Note_on_c, 11, 72, 100
11, 62763, Note_on_c, 11, 72, 0
11, 62763, Note_on_c, 11, 68, 100
11, 62873, Note_on_c, 11, 68, 0
11, 62883, Control_c, 11, 11, 72
11, 62883, Note_on_c, 11, 75, 100
11, 62886, Control_c, 11, 11, 75
11, 62889, Control_c, 11, 11, 78
11, 62892, Control_c, 11, 11, 81
11, 62908, Control_c, 11, 11, 79
11, 62925, Control_c, 11, 11, 77
11, 62941, Control_c, 11, 11, 75
11, 62943, Note_on_c, 11, 75, 0
11, 62958, Control_c, 11, 11, 73
11, 62974, Control_c, 11, 11, 71
11, 62991, Control_c, 11, 11, 69
11, 63003, Note_on_c, 11, 71, 100
11, 63007, Control_c, 11, 11, 67
11, 63024, Control_c, 11, 11, 65
11, 63040, Control_c, 11, 11, 63
11, 63123, Note_on_c, 11, 71, 0
11, 63123, Control_c, 11, 11, 49
11, 63123, Note_on_c, 11, 72, 100
11, 63243, Note_on_c, 11, 72, 0
11, 63243, Control_c, 11, 11, 47
11, 63243, Note_on_c, 11, 69, 100
11, 63254, Control_c, 11, 11, 50
11, 63266, Control_c, 11, 11, 53
11, 63278, Control_c, 11, 11, 56
11, 63290, Control_c, 11, 11, 59
11, 63302, Control_c, 11, 11, 62
11, 63314, Control_c, 11, 11, 65
11, 63326, Control_c, 11, 11, 68
11, 63338, Control_c, 11, 11, 71
11, 63350, Control_c, 11, 11, 74
11, 63353, Note_on_c, 11, 69, 0
11, 63362, Control_c, 11, 11, 77
11, 63363, Control_c, 11, 11, 87
11, 63363, Note_on_c, 11, 66, 117
11, 63408, Note_on_c, 11, 66, 0
11, 63423, Note_on_c, 11, 66, 117
11, 63468, Note_on_c, 11, 66, 0
11, 63483, Note_on_c, 11, 66, 117
11, 63528, Note_on_c, 11, 66, 0
11, 63543, Note_on_c, 11, 66, 117
11, 63588, Note_on_c, 11, 66, 0
11, 63603, Note_on_c, 11, 66, 117
11, 63648, Note_on_c, 11, 66, 0
11, 63663, Note_on_c, 11, 66, 117
11, 63708, Note_on_c, 11, 66, 0
11, 63723, Note_on_c, 11, 66, 117
11, 63768, Note_on_c, 11, 66, 0
11, 63783, Note_on_c, 11, 66, 117
11, 63828, Note_on_c, 11, 66, 0
11, 63843, Note_on_c, 11, 66, 117
11, 63888, Note_on_c, 11, 66, 0
11, 63903, Note_on_c, 11, 66, 117
11, 63948, Note_on_c, 11, 66, 0
11, 63963, Note_on_c, 11, 72, 117
11, 64008, Note_on_c, 11, 72, 0
11, 64023, Note_on_c, 11, 72, 117
11, 64068, Note_on_c, 11, 72, 0
11, 64083, Note_on_c, 11, 69, 117
11, 64128, Note_on_c, 11, 69, 0
11, 64143, Note_on_c, 11, 69, 117
11, 64188, Note_on_c, 11, 69, 0
11, 64203, Note_on_c, 11, 66, 117
11, 64248, Note_on_c, 11, 66, 0
11, 64263, Note_on_c, 11, 66, 117
11, 64308, Note_on_c, 11, 66, 0
11, 64323, Note_on_c, 11, 67, 117
11, 64368, Note_on_c, 11, 67, 0
11, 64383, Note_on_c, 11, 67, 117
11, 64428, Note_on_c, 11, 67, 0
11, 64443, Note_on_c, 11, 67, 117
11, 64488, Note_on_c, 11, 67, 0
11, 64503, Note_on_c, 11, 67, 117
11, 64548, Note_on_c, 11, 67, 0
11, 64563, Control_c, 11, 11, 87
11, 64563, Note_on_c, 11, 67, 117
11, 64608, Note_on_c, 11, 67, 0
11, 64623, Note_on_c, 11, 67, 117
11, 64652, Control_c, 11, 11, 88
11, 64668, Note_on_c, 11, 67, 0
11, 64683, Note_on_c, 11, 67, 117
11, 64728, Note_on_c, 11, 67, 0
11, 64742, Control_c, 11, 11, 89
11, 64743, Note_on_c, 11, 67, 117
11, 64788, Note_on_c, 11, 67, 0
11, 64803, Note_on_c, 11, 67, 117
11, 64832, Control_c, 11, 11, 90
11, 64848, Note_on_c, 11, 67, 0
11, 64863, Note_on_c, 11, 67, 117
11, 64908, Note_on_c, 11, 67, 0
11, 64922, Control_c, 11, 11, 91
11, 64923, Note_on_c, 11, 74, 117
11, 64968, Note_on_c, 11, 74, 0
11, 64983, Note_on_c, 11, 74, 117
11, 65012, Control_c, 11, 11, 92
11, 65028, Note_on_c, 11, 74, 0
11, 65043, Note_on_c, 11, 71, 117
11, 65088, Note_on_c, 11, 71, 0
11, 65102, Control_c, 11, 11, 93
11, 65103, Note_on_c, 11, 71, 117
11, 65148, Note_on_c, 11, 71, 0
11, 65163, Note_on_c, 11, 68, 117
11, 65192, Control_c, 11, 11, 94
11, 65208, Note_on_c, 11, 68, 0
11, 65223, Note_on_c, 11, 68, 117
11, 65268, Note_on_c, 11, 68, 0
11, 65282, Control_c, 11, 11, 95
11, 65283, Note_on_c, 11, 69, 117
11, 65328, Note_on_c, 11, 69, 0
11, 65343, Note_on_c, 11, 69, 117
11, 65388, Note_on_c, 11, 69, 0
11, 65403, Note_on_c, 11, 69, 117
11, 65448, Note_on_c, 11, 69, 0
11, 65463, Note_on_c, 11, 69, 117
11, 65508, Note_on_c, 11, 69, 0
11, 65523, Note_on_c, 11, 69, 117
11, 65568, Note_on_c, 11, 69, 0
11, 65583, Note_on_c, 11, 69, 117
11, 65628, Note_on_c, 11, 69, 0
11, 65643, Note_on_c, 11, 69, 117
11, 65688, Note_on_c, 11, 69, 0
11, 65703, Note_on_c, 11, 69, 117
11, 65748, Note_on_c, 11, 69, 0
11, 65763, Note_on_c, 11, 71, 117
11, 65808, Note_on_c, 11, 71, 0
11, 65823, Note_on_c, 11, 71, 117
11, 65868, Note_on_c, 11, 71, 0
11, 65883, Note_on_c, 11, 71, 117
11, 65928, Note_on_c, 11, 71, 0
11, 65943, Note_on_c, 11, 71, 117
11, 65988, Note_on_c, 11, 71, 0
11, 66003, Note_on_c, 11, 71, 117
11, 66048, Note_on_c, 11, 71, 0
11, 66063, Note_on_c, 11, 71, 117
11, 66108, Note_on_c, 11, 71, 0
11, 66123, Note_on_c, 11, 71, 117
11, 66168, Note_on_c, 11, 71, 0
11, 66183, Note_on_c, 11, 71, 117
11, 66228, Note_on_c, 11, 71, 0
11, 66243, Note_on_c, 11, 72, 117
11, 66288, Note_on_c, 11, 72, 0
11, 66303, Note_on_c, 11, 72, 117
11, 66348, Note_on_c, 11, 72, 0
11, 66363, Note_on_c, 11, 72, 117
11, 66408, Note_on_c, 11, 72, 0
11, 66423, Note_on_c, 11, 72, 117
11, 66468, Note_on_c, 11, 72, 0
11, 66483, Note_on_c, 11, 72, 117
11, 66528, Note_on_c, 11, 72, 0
11, 66543, Note_on_c, 11, 72, 117
11, 66588, Note_on_c, 11, 72, 0
11, 66603, Note_on_c, 11, 72, 117
11, 66648, Note_on_c, 11, 72, 0
11, 66663, Note_on_c, 11, 72, 117
11, 66708, Note_on_c, 11, 72, 0
11, 66723, Note_on_c, 11, 74, 117
11, 66768, Note_on_c, 11, 74, 0
11, 66783, Note_on_c, 11, 74, 117
11, 66828, Note_on_c, 11, 74, 0
11, 66843, Note_on_c, 11, 74, 117
11, 66888, Note_on_c, 11, 74, 0
11, 66903, Note_on_c, 11, 74, 117
11, 66948, Note_on_c, 11, 74, 0
11, 66963, Note_on_c, 11, 74, 117
11, 67008, Note_on_c, 11, 74, 0
11, 67023, Note_on_c, 11, 74, 117
11, 67068, Note_on_c, 11, 74, 0
11, 67083, Note_on_c, 11, 74, 117
11, 67128, Note_on_c, 11, 74, 0
11, 67143, Note_on_c, 11, 74, 117
11, 67188, Note_on_c, 11, 74, 0
11, 67203, Note_on_c, 11, 76, 117
11, 67248, Note_on_c, 11, 76, 0
11, 67263, Note_on_c, 11, 76, 117
11, 67308, Note_on_c, 11, 76, 0
11, 67323, Note_on_c, 11, 76, 117
11, 67368, Note_on_c, 11, 76, 0
11, 67383, Note_on_c, 11, 76, 117
11, 67428, Note_on_c, 11, 76, 0
11, 67443, Note_on_c, 11, 76, 117
11, 67488, Note_on_c, 11, 76, 0
11, 67503, Note_on_c, 11, 76, 117
11, 67548, Note_on_c, 11, 76, 0
11, 67563, Note_on_c, 11, 76, 117
11, 67608, Note_on_c, 11, 76, 0
11, 67623, Note_on_c, 11, 76, 117
11, 67668, Note_on_c, 11, 76, 0
11, 67683, Note_on_c, 11, 78, 117
11, 67728, Note_on_c, 11, 78, 0
11, 67743, Note_on_c, 11, 78, 117
11, 67788, Note_on_c, 11, 78, 0
11, 67803, Note_on_c, 11, 78, 117
11, 67848, Note_on_c, 11, 78, 0
11, 67863, Note_on_c, 11, 78, 117
11, 67908, Note_on_c, 11, 78, 0
11, 67923, Note_on_c, 11, 78, 117
11, 67968, Note_on_c, 11, 78, 0
11, 67983, Note_on_c, 11, 78, 117
11, 68028, Note_on_c, 11, 78, 0
11, 68043, Note_on_c, 11, 78, 117
11, 68088, Note_on_c, 11, 78, 0
11, 68103, Note_on_c, 11, 78, 117
11, 68148, Note_on_c, 11, 78, 0
11, 68163, Control_c, 11, 11, 112
11, 68163, Note_on_c, 11, 71, 100
11, 68163, Note_on_c, 11, 79, 100
11, 68181, Control_c, 11, 11, 109
11, 68199, Control_c, 11, 11, 106
11, 68217, Control_c, 11, 11, 103
11, 68508, Note_on_c, 11, 79, 0
11, 68508, Note_on_c, 11, 71, 0
11, 68523, Note_on_c, 11, 79, 100
11, 68583, Note_on_c, 11, 79, 0
11, 68643, Note_on_c, 11, 78, 100
11, 68763, Note_on_c, 11, 78, 0
11, 68763, Note_on_c, 11, 79, 100
11, 68863, Note_on_c, 11, 79, 0
11, 68883, Note_on_c, 11, 74, 100
11, 68943, Note_on_c, 11, 74, 0
11, 69003, Note_on_c, 11, 76, 100
11, 69063, Note_on_c, 11, 76, 0
11, 69123, Note_on_c, 11, 76, 107
11, 69243, Note_on_c, 11, 76, 0
11, 69243, Note_on_c, 11, 74, 100
11, 69343, Note_on_c, 11, 74, 0
11, 69363, Note_on_c, 11, 79, 100
11, 69423, Note_on_c, 11, 79, 0
11, 69483, Note_on_c, 11, 79, 100
11, 69543, Note_on_c, 11, 79, 0
11, 69603, Note_on_c, 11, 78, 107
11, 69723, Note_on_c, 11, 78, 0
11, 69723, Note_on_c, 11, 79, 100
11, 69823, Note_on_c, 11, 79, 0
11, 69843, Note_on_c, 11, 74, 100
11, 69903, Note_on_c, 11, 74, 0
11, 69963, Note_on_c, 11, 76, 100
11, 70023, Note_on_c, 11, 76, 0
11, 70083, Note_on_c, 11, 76, 107
11, 70143, Note_on_c, 11, 76, 0
11, 70203, Note_on_c, 11, 74, 100
11, 70433, Note_on_c, 11, 74, 0
11, 70443, Note_on_c, 11, 74, 100
11, 70503, Note_on_c, 11, 74, 0
11, 70563, Note_on_c, 11, 72, 107
11, 70623, Note_on_c, 11, 72, 0
11, 70683, Note_on_c, 11, 71, 100
11, 70913, Note_on_c, 11, 71, 0
11, 70923, Note_on_c, 11, 71, 100
11, 70983, Note_on_c, 11, 71, 0
11, 71043, Note_on_c, 11, 69, 107
11, 71103, Note_on_c, 11, 69, 0
11, 71163, Note_on_c, 11, 67, 100
11, 71283, Note_on_c, 11, 67, 0
11, 71283, Note_on_c, 11, 79, 100
11, 71403, Note_on_c, 11, 79, 0
11, 71403, Note_on_c, 11, 78, 100
11, 71523, Note_on_c, 11, 78, 0
11, 71523, Note_on_c, 11, 76, 100
11, 71643, Note_on_c, 11, 76, 0
11, 71643, Note_on_c, 11, 74, 100
11, 71763, Note_on_c, 11, 74, 0
11, 71763, Note_on_c, 11, 72, 100
11, 71883, Note_on_c, 11, 72, 0
11, 71883, Note_on_c, 11, 71, 100
11, 71993, Note_on_c, 11, 71, 0
11, 72003, Note_on_c, 11, 64, 100
11, 72113, Note_on_c, 11, 64, 0
11, 72123, Note_on_c, 11, 64, 100
11, 72353, Note_on_c, 11, 64, 0
11, 72363, Note_on_c, 11, 64, 100
11, 72593, Note_on_c, 11, 64, 0
11, 72603, Note_on_c, 11, 64, 100
11, 72833, Note_on_c, 11, 64, 0
11, 72843, Note_on_c, 11, 64, 100
11, 73073, Note_on_c, 11, 64, 0
11, 73083, Note_on_c, 11, 64, 100
11, 73313, Note_on_c, 11, 64, 0
11, 74043, Control_c, 11, 11, 47
11, 74043, Note_on_c, 11, 62, 100
11, 74139, Note_on_c, 11, 62, 0
11, 74283, Note_on_c, 11, 61, 100
11, 74379, Note_on_c, 11, 61, 0
11, 74523, Note_on_c, 11, 64, 100
11, 74619, Note_on_c, 11, 64, 0
11, 74763, Note_on_c, 11, 60, 100
11, 74873, Note_on_c, 11, 60, 0
11, 74883, Control_c, 11, 11, 87
11, 74883, Note_on_c, 11, 64, 100
11, 74993, Note_on_c, 11, 64, 0
11, 75003, Note_on_c, 11, 64, 100
11, 75233, Note_on_c, 11, 64, 0
11, 75243, Note_on_c, 11, 64, 100
11, 75473, Note_on_c, 11, 64, 0
11, 75483, Note_on_c, 11, 64, 100
11, 75713, Note_on_c, 11, 64, 0
11, 75723, Note_on_c, 11, 64, 100
11, 75953, Note_on_c, 11, 64, 0
11, 75963, Note_on_c, 11, 64, 100
11, 76193, Note_on_c, 11, 64, 0
11, 76803, Control_c, 11, 11, 107
11, 76803, Note_on_c, 11, 69, 100
11, 76803, Note_on_c, 11, 67, 100
11, 76820, Control_c, 11, 11, 104
11, 76838, Control_c, 11, 11, 101
11, 76856, Control_c, 11, 11, 98
11, 76874, Control_c, 11, 11, 95
11, 76892, Control_c, 11, 11, 92
11, 76910, Control_c, 11, 11, 89
11, 77163, Note_on_c, 11, 67, 0
11, 77163, Note_on_c, 11, 69, 0
11, 77763, Control_c, 11, 11, 107
11, 77763, Note_on_c, 11, 71, 100
11, 77763, Note_on_c, 11, 67, 100
11, 77780, Control_c, 11, 11, 104
11, 77798, Control_c, 11, 11, 101
11, 77816, Control_c, 11, 11, 98
11, 77834, Control_c, 11, 11, 95
11, 77852, Control_c, 11, 11, 92
11, 77870, Control_c, 11, 11, 89
11, 78123, Note_on_c, 11, 67, 0
11, 78123, Note_on_c, 11, 71, 0
11, 78123, Control_c, 11, 11, 107
11, 78123, Note_on_c, 11, 70, 100
11, 78141, Control_c, 11, 11, 104
11, 78159, Control_c, 11, 11, 101
11, 78177, Control_c, 11, 11, 98
11, 78195, Control_c, 11, 11, 95
11, 78213, Control_c, 11, 11, 92
11, 78231, Control_c, 11, 11, 89
11, 78243, Note_on_c, 11, 70, 0
11, 78243, Note_on_c, 11, 71, 100
11, 78348, Note_on_c, 11, 71, 0
11, 78363, Note_on_c, 11, 66, 100
11, 78423, Note_on_c, 11, 66, 0
11, 78483, Note_on_c, 11, 67, 100
11, 78543, Note_on_c, 11, 67, 0
11, 78603, Control_c, 11, 11, 107
11, 78603, Note_on_c, 11, 61, 100
11, 78621, Control_c, 11, 11, 104
11, 78639, Control_c, 11, 11, 101
11, 78657, Control_c, 11, 11, 98
11, 78675, Control_c, 11, 11, 95
11, 78693, Control_c, 11, 11, 92
11, 78711, Control_c, 11, 11, 89
11, 78723, Note_on_c, 11, 61, 0
11, 78723, Note_on_c, 11, 62, 100
11, 78828, Note_on_c, 11, 62, 0
11, 78843, Note_on_c, 11, 58, 100
11, 78903, Note_on_c, 11, 58, 0
11, 78963, Note_on_c, 11, 59, 100
11, 79023, Note_on_c, 11, 59, 0
11, 79083, Control_c, 11, 11, 107
11, 79083, Note_on_c, 11, 66, 100
11, 79100, Control_c, 11, 11, 104
11, 79118, Control_c, 11, 11, 101
11, 79136, Control_c, 11, 11, 98
11, 79154, Control_c, 11, 11, 95
11, 79172, Control_c, 11, 11, 92
11, 79190, Control_c, 11, 11, 89
11, 79203, Note_on_c, 11, 66, 0
11, 79203, Note_on_c, 11, 67, 100
11, 79308, Note_on_c, 11, 67, 0
11, 79323, Note_on_c, 11, 61, 100
11, 79383, Note_on_c, 11, 61, 0
11, 79443, Note_on_c, 11, 62, 100
11, 79503, Note_on_c, 11, 62, 0
11, 79563, Note_on_c, 11, 58, 100
11, 79623, Note_on_c, 11, 58, 0
11, 79683, Note_on_c, 11, 59, 117
11, 79743, Note_on_c, 11, 59, 0
11, 79803, Note_on_c, 11, 58, 117
11, 79863, Note_on_c, 11, 58, 0
11, 79923, Note_on_c, 11, 59, 117
11, 79983, Note_on_c, 11, 59, 0
11, 80043, Note_on_c, 11, 60, 117
11, 80103, Note_on_c, 11, 60, 0
11, 80163, Note_on_c, 11, 61, 117
11, 80223, Note_on_c, 11, 61, 0
11, 80283, Note_on_c, 11, 62, 117
11, 80343, Note_on_c, 11, 62, 0
11, 80403, Note_on_c, 11, 63, 117
11, 80463, Note_on_c, 11, 63, 0
11, 80523, Note_on_c, 11, 64, 117
11, 80583, Note_on_c, 11, 64, 0
11, 80643, Note_on_c, 11, 65, 117
11, 80703, Note_on_c, 11, 65, 0
11, 80763, Note_on_c, 11, 66, 117
11, 80823, Note_on_c, 11, 66, 0
11, 80883, Note_on_c, 11, 67, 117
11, 80943, Note_on_c, 11, 67, 0
11, 81003, Note_on_c, 11, 61, 117
11, 81063, Note_on_c, 11, 61, 0
11, 81123, Note_on_c, 11, 62, 117
11, 81183, Note_on_c, 11, 62, 0
11, 81243, Note_on_c, 11, 61, 117
11, 81303, Note_on_c, 11, 61, 0
11, 81363, Note_on_c, 11, 62, 117
11, 81423, Note_on_c, 11, 62, 0
11, 81483, Note_on_c, 11, 62, 117
11, 81543, Note_on_c, 11, 62, 0
11, 81603, Control_c, 11, 11, 87
11, 81603, Note_on_c, 11, 59, 100
11, 81621, Control_c, 11, 11, 84
11, 81639, Control_c, 11, 11, 81
11, 81657, Control_c, 11, 11, 78
11, 81663, Note_on_c, 11, 59, 0
11, 81663, Note_on_c, 11, 62, 100
11, 81675, Control_c, 11, 11, 75
11, 81693, Control_c, 11, 11, 72
11, 81711, Control_c, 11, 11, 69
11, 81723, Note_on_c, 11, 62, 0
11, 81723, Note_on_c, 11, 59, 100
11, 81729, Control_c, 11, 11, 66
11, 81747, Control_c, 11, 11, 63
11, 81765, Control_c, 11, 11, 60
11, 81783, Note_on_c, 11, 59, 0
11, 81783, Control_c, 11, 11, 57
11, 81783, Note_on_c, 11, 62, 100
11, 81801, Control_c, 11, 11, 54
11, 81819, Control_c, 11, 11, 51
11, 81837, Control_c, 11, 11, 48
11, 81843, Note_on_c, 11, 62, 0
11, 81843, Note_on_c, 11, 59, 100
11, 81903, Note_on_c, 11, 59, 0
11, 81903, Note_on_c, 11, 62, 100
11, 81963, Note_on_c, 11, 62, 0
11, 81963, Note_on_c, 11, 59, 100
11, 82023, Note_on_c, 11, 59, 0
11, 82023, Note_on_c, 11, 62, 100
11, 82073, Note_on_c, 11, 62, 0
11, 82083, Note_on_c, 11, 59, 100
11, 82143, Note_on_c, 11, 59, 0
11, 82143, Note_on_c, 11, 62, 100
11, 82203, Note_on_c, 11, 62, 0
11, 82203, Note_on_c, 11, 59, 100
11, 82263, Note_on_c, 11, 59, 0
11, 82263, Note_on_c, 11, 62, 100
11, 82323, Note_on_c, 11, 62, 0
11, 82323, Note_on_c, 11, 59, 100
11, 82383, Note_on_c, 11, 59, 0
11, 82383, Note_on_c, 11, 62, 100
11, 82443, Note_on_c, 11, 62, 0
11, 82443, Note_on_c, 11, 59, 100
11, 82503, Note_on_c, 11, 59, 0
11, 82503, Note_on_c, 11, 62, 100
11, 82553, Note_on_c, 11, 62, 0
11, 82563, Note_on_c, 11, 59, 100
11, 82623, Note_on_c, 11, 59, 0
11, 82623, Note_on_c, 11, 62, 100
11, 82683, Note_on_c, 11, 62, 0
11, 82683, Note_on_c, 11, 59, 100
11, 82743, Note_on_c, 11, 59, 0
11, 82743, Note_on_c, 11, 62, 100
11, 82803, Note_on_c, 11, 62, 0
11, 82803, Note_on_c, 11, 59, 100
11, 82863, Note_on_c, 11, 59, 0
11, 82863, Note_on_c, 11, 62, 100
11, 82923, Note_on_c, 11, 62, 0
11, 82923, Note_on_c, 11, 59, 100
11, 82983, Note_on_c, 11, 59, 0
11, 82983, Note_on_c, 11, 62, 100
11, 83033, Note_on_c, 11, 62, 0
11, 83043, Note_on_c, 11, 59, 100
11, 83103, Note_on_c, 11, 59, 0
11, 83103, Note_on_c, 11, 62, 100
11, 83163, Note_on_c, 11, 62, 0
11, 83163, Note_on_c, 11, 59, 100
11, 83223, Note_on_c, 11, 59, 0
11, 83223, Note_on_c, 11, 62, 100
11, 83283, Note_on_c, 11, 62, 0
11, 83283, Note_on_c, 11, 59, 100
11, 83343, Note_on_c, 11, 59, 0
11, 83343, Note_on_c, 11, 62, 100
11, 83403, Note_on_c, 11, 62, 0
11, 83403, Control_c, 11, 11, 47
11, 83403, Note_on_c, 11, 59, 100
11, 83463, Note_on_c, 11, 59, 0
11, 83463, Note_on_c, 11, 62, 100
11, 83513, Note_on_c, 11, 62, 0
11, 83523, Note_on_c, 11, 59, 100
11, 83539, Control_c, 11, 11, 46
11, 83583, Note_on_c, 11, 59, 0
11, 83583, Note_on_c, 11, 62, 100
11, 83643, Note_on_c, 11, 62, 0
11, 83643, Note_on_c, 11, 59, 100
11, 83675, Control_c, 11, 11, 45
11, 83703, Note_on_c, 11, 59, 0
11, 83703, Note_on_c, 11, 62, 100
11, 83763, Note_on_c, 11, 62, 0
11, 83763, Note_on_c, 11, 59, 100
11, 83811, Control_c, 11, 11, 44
11, 83823, Note_on_c, 11, 59, 0
11, 83823, Note_on_c, 11, 62, 100
11, 83883, Note_on_c, 11, 62, 0
11, 83883, Note_on_c, 11, 59, 100
11, 83943, Note_on_c, 11, 59, 0
11, 83943, Note_on_c, 11, 62, 100
11, 83947, Control_c, 11, 11, 43
11, 83993, Note_on_c, 11, 62, 0
11, 84003, Note_on_c, 11, 59, 100
11, 84063, Note_on_c, 11, 59, 0
11, 84063, Note_on_c, 11, 62, 100
11, 84083, Control_c, 11, 11, 42
11, 84123, Note_on_c, 11, 62, 0
11, 84123, Note_on_c, 11, 59, 100
11, 84183, Note_on_c, 11, 59, 0
11, 84183, Note_on_c, 11, 62, 100
11, 84219, Control_c, 11, 11, 41
11, 84243, Note_on_c, 11, 62, 0
11, 84243, Note_on_c, 11, 59, 100
11, 84303, Note_on_c, 11, 59, 0
11, 84303, Note_on_c, 11, 62, 100
11, 84355, Control_c, 11, 11, 40
11, 84363, Note_on_c, 11, 62, 0
11, 84363, Note_on_c, 11, 59, 100
11, 84423, Note_on_c, 11, 59, 0
11, 84423, Note_on_c, 11, 62, 100
11, 84473, Note_on_c, 11, 62, 0
11, 84483, Note_on_c, 11, 59, 100
11, 84491, Control_c, 11, 11, 39
11, 84543, Note_on_c, 11, 59, 0
11, 84543, Note_on_c, 11, 62, 100
11, 84603, Note_on_c, 11, 62, 0
11, 84603, Note_on_c, 11, 59, 100
11, 84627, Control_c, 11, 11, 38
11, 84663, Note_on_c, 11, 59, 0
11, 84663, Note_on_c, 11, 62, 100
11, 84723, Note_on_c, 11, 62, 0
11, 84723, Note_on_c, 11, 59, 100
11, 84763, Control_c, 11, 11, 37
11, 84783, Note_on_c, 11, 59, 0
11, 84783, Note_on_c, 11, 62, 100
11, 84843, Note_on_c, 11, 62, 0
11, 84843, Note_on_c, 11, 59, 100
11, 84899, Control_c, 11, 11, 36
11, 84903, Note_on_c, 11, 59, 0
11, 84903, Note_on_c, 11, 62, 100
11, 84953, Note_on_c, 11, 62, 0
11, 84963, Note_on_c, 11, 59, 100
11, 85023, Note_on_c, 11, 59, 0
11, 85023, Note_on_c, 11, 62, 100
11, 85035, Control_c, 11, 11, 35
11, 85083, Note_on_c, 11, 62, 0
11, 85083, Note_on_c, 11, 59, 100
11, 85143, Note_on_c, 11, 59, 0
11, 85143, Note_on_c, 11, 62, 100
11, 85171, Control_c, 11, 11, 34
11, 85203, Note_on_c, 11, 62, 0
11, 85203, Note_on_c, 11, 59, 100
11, 85263, Note_on_c, 11, 59, 0
11, 85263, Note_on_c, 11, 62, 100
11, 85307, Control_c, 11, 11, 33
11, 85323, Note_on_c, 11, 62, 0
11, 85323, Note_on_c, 11, 59, 100
11, 85383, Note_on_c, 11, 59, 0
11, 85383, Note_on_c, 11, 62, 100
11, 85433, Note_on_c, 11, 62, 0
11, 85443, Control_c, 11, 11, 32
11, 85443, Note_on_c, 11, 57, 100
11, 85563, Note_on_c, 11, 57, 0
11, 85563, Note_on_c, 11, 55, 100
11, 85843, Control_c, 11, 11, 32
11, 85856, Control_c, 11, 11, 29
11, 85870, Control_c, 11, 11, 26
11, 85883, Control_c, 11, 11, 23
11, 85888, Note_on_c, 11, 55, 0
11, 85923, Control_c, 11, 11, 67
11, 85923, Note_on_c, 11, 56, 100
11, 85925, Control_c, 11, 11, 70
11, 85928, Control_c, 11, 11, 73
11, 85930, Control_c, 11, 11, 76
11, 85933, Control_c, 11, 11, 79
11, 85936, Control_c, 11, 11, 83
11, 85939, Control_c, 11, 11, 86
11, 85942, Control_c, 11, 11, 90
11, 85945, Control_c, 11, 11, 93
11, 85948, Control_c, 11, 11, 97
11, 85951, Control_c, 11, 11, 100
11, 86313, Control_c, 11, 11, 102
11, 86316, Control_c, 11, 11, 99
11, 86319, Control_c, 11, 11, 96
11, 86323, Control_c, 11, 11, 93
11, 86326, Control_c, 11, 11, 90
11, 86330, Control_c, 11, 11, 87
11, 86333, Control_c, 11, 11, 84
11, 86337, Control_c, 11, 11, 81
11, 86340, Control_c, 11, 11, 78
11, 86343, Control_c, 11, 11, 75
11, 86347, Control_c, 11, 11, 72
11, 86350, Control_c, 11, 11, 69
11, 86353, Note_on_c, 11, 56, 0
11, 86403, Control_c, 11, 11, 67
11, 86403, Note_on_c, 11, 58, 100
11, 86405, Control_c, 11, 11, 70
11, 86408, Control_c, 11, 11, 73
11, 86410, Control_c, 11, 11, 76
11, 86413, Control_c, 11, 11, 79
11, 86416, Control_c, 11, 11, 83
11, 86419, Control_c, 11, 11, 86
11, 86422, Control_c, 11, 11, 90
11, 86425, Control_c, 11, 11, 93
11, 86428, Control_c, 11, 11, 97
11, 86431, Control_c, 11, 11, 100
11, 86793, Control_c, 11, 11, 102
11, 86796, Control_c, 11, 11, 99
11, 86799, Control_c, 11, 11, 96
11, 86803, Control_c, 11, 11, 93
11, 86806, Control_c, 11, 11, 90
11, 86810, Control_c, 11, 11, 87
11, 86813, Control_c, 11, 11, 84
11, 86817, Control_c, 11, 11, 81
11, 86820, Control_c, 11, 11, 78
11, 86823, Control_c, 11, 11, 75
11, 86827, Control_c, 11, 11, 72
11, 86830, Control_c, 11, 11, 69
11, 86833, Note_on_c, 11, 58, 0
11, 86882, Program_c, 11, 45
11, 86885, Note_on_c, 11, 63, 54
11, 87005, Note_on_c, 11, 63, 0
11, 88742, Program_c, 11, 48
11, 88743, Control_c, 11, 11, 32
11, 88743, Note_on_c, 11, 63, 60
11, 88746, Control_c, 11, 11, 35
11, 88749, Control_c, 11, 11, 38
11, 88752, Control_c, 11, 11, 41
11, 88756, Control_c, 11, 11, 44
11, 88759, Control_c, 11, 11, 47
11, 88762, Control_c, 11, 11, 50
11, 88765, Control_c, 11, 11, 53
11, 88788, Note_on_c, 11, 63, 0
11, 88791, Control_c, 11, 11, 56
11, 88803, Note_on_c, 11, 63, 66
11, 88815, Control_c, 11, 11, 58
11, 88839, Control_c, 11, 11, 60
11, 88848, Note_on_c, 11, 63, 0
11, 88863, Control_c, 11, 11, 62
11, 88863, Note_on_c, 11, 63, 72
11, 88887, Control_c, 11, 11, 64
11, 88908, Note_on_c, 11, 63, 0
11, 88911, Control_c, 11, 11, 66
11, 88923, Note_on_c, 11, 63, 80
11, 88935, Control_c, 11, 11, 68
11, 88959, Control_c, 11, 11, 70
11, 88973, Control_c, 11, 11, 66
11, 88974, Control_c, 11, 11, 63
11, 88976, Control_c, 11, 11, 58
11, 88978, Control_c, 11, 11, 54
11, 88979, Control_c, 11, 11, 51
11, 88981, Control_c, 11, 11, 46
11, 88983, Note_on_c, 11, 63, 0
11, 88983, Control_c, 11, 11, 42
11, 88983, Note_on_c, 11, 62, 80
11, 89038, Note_on_c, 11, 62, 0
11, 89043, Note_on_c, 11, 63, 70
11, 89051, Note_on_c, 11, 63, 0
11, 89058, Note_on_c, 11, 63, 50
11, 89073, Note_on_c, 11, 63, 0
11, 89073, Note_on_c, 11, 58, 50
11, 89088, Note_on_c, 11, 58, 0
11, 89088, Note_on_c, 11, 63, 51
11, 89103, Note_on_c, 11, 63, 0
11, 89103, Note_on_c, 11, 67, 52
11, 89118, Note_on_c, 11, 67, 0
11, 89118, Note_on_c, 11, 63, 52
11, 89133, Note_on_c, 11, 63, 0
11, 89133, Note_on_c, 11, 58, 53
11, 89148, Note_on_c, 11, 58, 0
11, 89148, Note_on_c, 11, 63, 54
11, 89158, Note_on_c, 11, 63, 0
11, 89163, Note_on_c, 11, 55, 54
11, 89178, Note_on_c, 11, 55, 0
11, 89178, Note_on_c, 11, 63, 55
11, 89193, Note_on_c, 11, 63, 0
11, 89193, Note_on_c, 11, 58, 56
11, 89208, Note_on_c, 11, 58, 0
11, 89208, Note_on_c, 11, 63, 56
11, 89223, Note_on_c, 11, 63, 0
11, 89223, Note_on_c, 11, 67, 57
11, 89238, Note_on_c, 11, 67, 0
11, 89238, Note_on_c, 11, 63, 58
11, 89253, Note_on_c, 11, 63, 0
11, 89253, Note_on_c, 11, 58, 58
11, 89268, Note_on_c, 11, 58, 0
11, 89268, Note_on_c, 11, 55, 59
11, 89278, Note_on_c, 11, 55, 0
11, 89283, Note_on_c, 11, 56, 60
11, 89298, Note_on_c, 11, 56, 0
11, 89298, Note_on_c, 11, 62, 60
11, 89313, Note_on_c, 11, 62, 0
11, 89313, Note_on_c, 11, 58, 60
11, 89328, Note_on_c, 11, 58, 0
11, 89328, Note_on_c, 11, 62, 60
11, 89343, Note_on_c, 11, 62, 0
11, 89343, Note_on_c, 11, 65, 60
11, 89358, Note_on_c, 11, 65, 0
11, 89358, Note_on_c, 11, 62, 60
11, 89373, Note_on_c, 11, 62, 0
11, 89373, Note_on_c, 11, 58, 60
11, 89388, Note_on_c, 11, 58, 0
11, 89388, Note_on_c, 11, 56, 60
11, 89398, Note_on_c, 11, 56, 0
11, 89403, Note_on_c, 11, 55, 60
11, 89418, Note_on_c, 11, 55, 0
11, 89418, Note_on_c, 11, 63, 60
11, 89433, Note_on_c, 11, 63, 0
11, 89433, Note_on_c, 11, 58, 60
11, 89448, Note_on_c, 11, 58, 0
11, 89448, Note_on_c, 11, 63, 60
11, 89463, Note_on_c, 11, 63, 0
11, 89463, Note_on_c, 11, 67, 60
11, 89478, Note_on_c, 11, 67, 0
11, 89478, Note_on_c, 11, 63, 60
11, 89493, Note_on_c, 11, 63, 0
11, 89493, Note_on_c, 11, 58, 60
11, 89508, Note_on_c, 11, 58, 0
11, 89508, Note_on_c, 11, 63, 60
11, 89518, Note_on_c, 11, 63, 0
11, 89523, Note_on_c, 11, 55, 60
11, 89538, Note_on_c, 11, 55, 0
11, 89538, Note_on_c, 11, 63, 60
11, 89553, Note_on_c, 11, 63, 0
11, 89553, Note_on_c, 11, 58, 60
11, 89568, Note_on_c, 11, 58, 0
11, 89568, Note_on_c, 11, 63, 60
11, 89583, Note_on_c, 11, 63, 0
11, 89583, Note_on_c, 11, 67, 60
11, 89598, Note_on_c, 11, 67, 0
11, 89598, Note_on_c, 11, 63, 60
11, 89613, Note_on_c, 11, 63, 0
11, 89613, Note_on_c, 11, 67, 60
11, 89628, Note_on_c, 11, 67, 0
11, 89628, Note_on_c, 11, 70, 60
11, 89638, Note_on_c, 11, 70, 0
11, 89643, Note_on_c, 11, 68, 60
11, 89658, Note_on_c, 11, 68, 0
11, 89658, Note_on_c, 11, 63, 60
11, 89673, Note_on_c, 11, 63, 0
11, 89673, Note_on_c, 11, 56, 60
11, 89688, Note_on_c, 11, 56, 0
11, 89688, Note_on_c, 11, 63, 60
11, 89698, Note_on_c, 11, 63, 0
11, 89703, Note_on_c, 11, 68, 60
11, 89718, Note_on_c, 11, 68, 0
11, 89718, Note_on_c, 11, 63, 60
11, 89733, Note_on_c, 11, 63, 0
11, 89733, Note_on_c, 11, 67, 60
11, 89748, Note_on_c, 11, 67, 0
11, 89748, Note_on_c, 11, 63, 60
11, 89758, Note_on_c, 11, 63, 0
11, 89763, Note_on_c, 11, 67, 60
11, 89778, Note_on_c, 11, 67, 0
11, 89778, Note_on_c, 11, 63, 60
11, 89793, Note_on_c, 11, 63, 0
11, 89793, Note_on_c, 11, 60, 60
11, 89808, Note_on_c, 11, 60, 0
11, 89808, Note_on_c, 11, 63, 60
11, 89811, Control_c, 11, 11, 52
11, 89813, Control_c, 11, 11, 56
11, 89815, Control_c, 11, 11, 59
11, 89817, Control_c, 11, 11, 62
11, 89818, Note_on_c, 11, 63, 0
11, 89819, Control_c, 11, 11, 66
11, 89821, Control_c, 11, 11, 69
11, 89823, Control_c, 11, 11, 72
11, 89823, Note_on_c, 11, 66, 60
11, 89825, Control_c, 11, 11, 76
11, 89827, Control_c, 11, 11, 79
11, 89838, Note_on_c, 11, 66, 0
11, 89838, Note_on_c, 11, 63, 60
11, 89847, Control_c, 11, 11, 78
11, 89853, Note_on_c, 11, 63, 0
11, 89853, Note_on_c, 11, 66, 60
11, 89865, Control_c, 11, 11, 75
11, 89868, Note_on_c, 11, 66, 0
11, 89868, Note_on_c, 11, 63, 60
11, 89878, Note_on_c, 11, 63, 0
11, 89883, Control_c, 11, 11, 72
11, 89883, Note_on_c, 11, 66, 60
11, 89898, Note_on_c, 11, 66, 0
11, 89898, Note_on_c, 11, 63, 60
11, 89902, Control_c, 11, 11, 70
11, 89913, Note_on_c, 11, 63, 0
11, 89913, Note_on_c, 11, 60, 60
11, 89921, Control_c, 11, 11, 68
11, 89928, Note_on_c, 11, 60, 0
11, 89928, Note_on_c, 11, 63, 60
11, 89938, Note_on_c, 11, 63, 0
11, 89940, Control_c, 11, 11, 66
11, 89943, Note_on_c, 11, 66, 60
11, 89958, Note_on_c, 11, 66, 0
11, 89958, Note_on_c, 11, 63, 60
11, 89959, Control_c, 11, 11, 64
11, 89973, Note_on_c, 11, 63, 0
11, 89973, Note_on_c, 11, 66, 60
11, 89979, Control_c, 11, 11, 62
11, 89988, Note_on_c, 11, 66, 0
11, 89988, Note_on_c, 11, 63, 60
11, 89998, Note_on_c, 11, 63, 0
11, 89998, Control_c, 11, 11, 60
11, 90003, Note_on_c, 11, 65, 60
11, 90017, Control_c, 11, 11, 58
11, 90018, Note_on_c, 11, 65, 0
11, 90018, Note_on_c, 11, 62, 60
11, 90033, Note_on_c, 11, 62, 0
11, 90033, Note_on_c, 11, 65, 60
11, 90036, Control_c, 11, 11, 56
11, 90048, Note_on_c, 11, 65, 0
11, 90048, Note_on_c, 11, 59, 60
11, 90055, Control_c, 11, 11, 54
11, 90058, Note_on_c, 11, 59, 0
11, 90063, Note_on_c, 11, 65, 60
11, 90075, Control_c, 11, 11, 52
11, 90078, Note_on_c, 11, 65, 0
11, 90078, Note_on_c, 11, 62, 60
11, 90093, Note_on_c, 11, 62, 0
11, 90093, Note_on_c, 11, 65, 60
11, 90094, Control_c, 11, 11, 50
11, 90108, Note_on_c, 11, 65, 0
11, 90108, Note_on_c, 11, 58, 60
11, 90113, Control_c, 11, 11, 48
11, 90118, Note_on_c, 11, 58, 0
11, 90123, Note_on_c, 11, 67, 60
11, 90138, Note_on_c, 11, 67, 0
11, 90138, Note_on_c, 11, 63, 60
11, 90153, Note_on_c, 11, 63, 0
11, 90153, Note_on_c, 11, 67, 60
11, 90168, Note_on_c, 11, 67, 0
11, 90168, Note_on_c, 11, 58, 60
11, 90178, Note_on_c, 11, 58, 0
11, 90183, Note_on_c, 11, 68, 60
11, 90198, Note_on_c, 11, 68, 0
11, 90198, Note_on_c, 11, 60, 60
11, 90213, Note_on_c, 11, 60, 0
11, 90213, Note_on_c, 11, 65, 60
11, 90228, Note_on_c, 11, 65, 0
11, 90228, Note_on_c, 11, 56, 60
11, 90238, Note_on_c, 11, 56, 0
11, 90243, Note_on_c, 11, 55, 60
11, 90258, Note_on_c, 11, 55, 0
11, 90258, Note_on_c, 11, 58, 60
11, 90273, Note_on_c, 11, 58, 0
11, 90273, Note_on_c, 11, 63, 60
11, 90288, Note_on_c, 11, 63, 0
11, 90288, Note_on_c, 11, 58, 60
11, 90303, Note_on_c, 11, 58, 0
11, 90303, Note_on_c, 11, 67, 60
11, 90318, Note_on_c, 11, 67, 0
11, 90318, Note_on_c, 11, 63, 60
11, 90333, Note_on_c, 11, 63, 0
11, 90333, Note_on_c, 11, 58, 60
11, 90348, Note_on_c, 11, 58, 0
11, 90348, Note_on_c, 11, 55, 60
11, 90358, Note_on_c, 11, 55, 0
11, 90363, Note_on_c, 11, 56, 60
11, 90378, Note_on_c, 11, 56, 0
11, 90378, Note_on_c, 11, 58, 60
11, 90393, Note_on_c, 11, 58, 0
11, 90393, Note_on_c, 11, 62, 60
11, 90408, Note_on_c, 11, 62, 0
11, 90408, Note_on_c, 11, 58, 60
11, 90423, Note_on_c, 11, 58, 0
11, 90423, Note_on_c, 11, 65, 60
11, 90438, Note_on_c, 11, 65, 0
11, 90438, Note_on_c, 11, 62, 55
11, 90453, Note_on_c, 11, 62, 0
11, 90453, Note_on_c, 11, 58, 50
11, 90468, Note_on_c, 11, 58, 0
11, 90468, Note_on_c, 11, 56, 45
11, 90478, Note_on_c, 11, 56, 0
11, 90483, Note_on_c, 11, 55, 40
11, 90543, Note_on_c, 11, 55, 0
11, 91173, Control_c, 11, 11, 52
11, 91173, Note_on_c, 11, 70, 100
11, 91175, Control_c, 11, 11, 55
11, 91177, Control_c, 11, 11, 58
11, 91180, Control_c, 11, 11, 62
11, 91183, Control_c, 11, 11, 66
11, 91186, Control_c, 11, 11, 70
11, 91198, Note_on_c, 11, 70, 0
11, 91218, Control_c, 11, 11, 47
11, 91218, Note_on_c, 11, 65, 80
11, 91233, Note_on_c, 11, 65, 0
11, 91233, Note_on_c, 11, 60, 80
11, 91248, Note_on_c, 11, 60, 0
11, 91248, Note_on_c, 11, 65, 80
11, 91263, Note_on_c, 11, 65, 0
11, 91263, Note_on_c, 11, 69, 80
11, 91278, Note_on_c, 11, 69, 0
11, 91278, Note_on_c, 11, 65, 80
11, 91293, Note_on_c, 11, 65, 0
11, 91293, Note_on_c, 11, 60, 80
11, 91308, Note_on_c, 11, 60, 0
11, 91308, Note_on_c, 11, 65, 80
11, 91318, Note_on_c, 11, 65, 0
11, 91323, Note_on_c, 11, 57, 80
11, 91338, Note_on_c, 11, 57, 0
11, 91338, Note_on_c, 11, 65, 80
11, 91353, Note_on_c, 11, 65, 0
11, 91353, Note_on_c, 11, 60, 80
11, 91368, Note_on_c, 11, 60, 0
11, 91368, Note_on_c, 11, 65, 80
11, 91383, Note_on_c, 11, 65, 0
11, 91383, Note_on_c, 11, 69, 80
11, 91398, Note_on_c, 11, 69, 0
11, 91398, Note_on_c, 11, 65, 80
11, 91413, Note_on_c, 11, 65, 0
11, 91413, Note_on_c, 11, 60, 80
11, 91428, Note_on_c, 11, 60, 0
11, 91428, Note_on_c, 11, 57, 80
11, 91438, Note_on_c, 11, 57, 0
11, 91443, Note_on_c, 11, 58, 80
11, 91458, Note_on_c, 11, 58, 0
11, 91458, Note_on_c, 11, 64, 80
11, 91473, Note_on_c, 11, 64, 0
11, 91473, Note_on_c, 11, 60, 80
11, 91488, Note_on_c, 11, 60, 0
11, 91488, Note_on_c, 11, 64, 80
11, 91503, Note_on_c, 11, 64, 0
11, 91503, Note_on_c, 11, 67, 80
11, 91518, Note_on_c, 11, 67, 0
11, 91518, Note_on_c, 11, 64, 80
11, 91533, Note_on_c, 11, 64, 0
11, 91533, Note_on_c, 11, 60, 80
11, 91548, Note_on_c, 11, 60, 0
11, 91548, Note_on_c, 11, 58, 80
11, 91558, Note_on_c, 11, 58, 0
11, 91563, Note_on_c, 11, 57, 68
11, 91598, Control_c, 11, 11, 47
11, 91600, Control_c, 11, 11, 44
11, 91603, Control_c, 11, 11, 41
11, 91606, Control_c, 11, 11, 38
11, 91609, Control_c, 11, 11, 35
11, 91612, Control_c, 11, 11, 32
11, 91615, Control_c, 11, 11, 29
11, 91618, Control_c, 11, 11, 26
11, 91621, Control_c, 11, 11, 23
11, 91623, Note_on_c, 11, 57, 0
11, 92253, Control_c, 11, 11, 52
11, 92253, Note_on_c, 11, 66, 100
11, 92255, Control_c, 11, 11, 55
11, 92257, Control_c, 11, 11, 58
11, 92260, Control_c, 11, 11, 62
11, 92263, Control_c, 11, 11, 66
11, 92266, Control_c, 11, 11, 70
11, 92278, Note_on_c, 11, 66, 0
11, 92403, Control_c, 11, 11, 32
11, 92403, Note_on_c, 11, 71, 80
11, 92409, Control_c, 11, 11, 35
11, 92415, Control_c, 11, 11, 38
11, 92421, Control_c, 11, 11, 41
11, 92427, Control_c, 11, 11, 44
11, 92433, Control_c, 11, 11, 47
11, 92523, Note_on_c, 11, 71, 0
11, 92523, Note_on_c, 11, 69, 80
11, 92643, Note_on_c, 11, 69, 0
11, 92643, Control_c, 11, 11, 47
11, 92643, Note_on_c, 11, 67, 80
11, 92661, Control_c, 11, 11, 48
11, 92679, Control_c, 11, 11, 49
11, 92697, Control_c, 11, 11, 50
11, 92715, Control_c, 11, 11, 51
11, 92733, Control_c, 11, 11, 52
11, 92751, Control_c, 11, 11, 53
11, 92758, Note_on_c, 11, 67, 0
11, 92763, Note_on_c, 11, 74, 80
11, 92769, Control_c, 11, 11, 54
11, 92787, Control_c, 11, 11, 55
11, 92805, Control_c, 11, 11, 56
11, 92823, Control_c, 11, 11, 57
11, 92841, Control_c, 11, 11, 58
11, 92859, Control_c, 11, 11, 59
11, 92877, Control_c, 11, 11, 60
11, 92883, Note_on_c, 11, 74, 0
11, 92883, Note_on_c, 11, 72, 80
11, 92895, Control_c, 11, 11, 61
11, 92913, Control_c, 11, 11, 62
11, 92931, Control_c, 11, 11, 63
11, 92949, Control_c, 11, 11, 64
11, 92967, Control_c, 11, 11, 65
11, 92985, Control_c, 11, 11, 66
11, 93003, Note_on_c, 11, 72, 0
11, 93003, Control_c, 11, 11, 67
11, 93003, Note_on_c, 11, 71, 80
11, 93021, Control_c, 11, 11, 68
11, 93039, Control_c, 11, 11, 69
11, 93057, Control_c, 11, 11, 70
11, 93075, Control_c, 11, 11, 71
11, 93093, Control_c, 11, 11, 72
11, 93111, Control_c, 11, 11, 73
11, 93118, Note_on_c, 11, 71, 0
11, 93123, Note_on_c, 11, 77, 80
11, 93129, Control_c, 11, 11, 74
11, 93147, Control_c, 11, 11, 75
11, 93165, Control_c, 11, 11, 76
11, 93183, Control_c, 11, 11, 77
11, 93201, Control_c, 11, 11, 78
11, 93219, Control_c, 11, 11, 79
11, 93237, Control_c, 11, 11, 80
11, 93243, Note_on_c, 11, 77, 0
11, 93243, Note_on_c, 11, 76, 80
11, 93255, Control_c, 11, 11, 81
11, 93273, Control_c, 11, 11, 82
11, 93291, Control_c, 11, 11, 83
11, 93309, Control_c, 11, 11, 84
11, 93327, Control_c, 11, 11, 85
11, 93345, Control_c, 11, 11, 86
11, 93358, Note_on_c, 11, 76, 0
11, 93363, Control_c, 11, 11, 87
11, 93363, Note_on_c, 11, 74, 80
11, 93379, Control_c, 11, 11, 89
11, 93395, Control_c, 11, 11, 91
11, 93411, Control_c, 11, 11, 93
11, 93427, Control_c, 11, 11, 95
11, 93443, Control_c, 11, 11, 97
11, 93459, Control_c, 11, 11, 99
11, 93468, Note_on_c, 11, 74, 0
11, 93468, Note_on_c, 11, 81, 80
11, 93475, Control_c, 11, 11, 101
11, 93478, Note_on_c, 11, 81, 0
11, 93483, Note_on_c, 11, 81, 80
11, 93491, Control_c, 11, 11, 100
11, 93504, Control_c, 11, 11, 97
11, 93517, Control_c, 11, 11, 94
11, 93531, Control_c, 11, 11, 91
11, 93544, Control_c, 11, 11, 88
11, 93557, Control_c, 11, 11, 85
11, 93570, Control_c, 11, 11, 82
11, 93583, Control_c, 11, 11, 79
11, 93596, Control_c, 11, 11, 76
11, 93609, Control_c, 11, 11, 73
11, 93622, Control_c, 11, 11, 70
11, 93635, Control_c, 11, 11, 67
11, 93648, Control_c, 11, 11, 64
11, 93661, Control_c, 11, 11, 61
11, 93663, Note_on_c, 11, 81, 0
11, 93663, Note_on_c, 11, 79, 80
11, 93675, Control_c, 11, 11, 58
11, 93688, Control_c, 11, 11, 55
11, 93701, Control_c, 11, 11, 52
11, 93714, Control_c, 11, 11, 49
11, 93718, Note_on_c, 11, 79, 0
11, 93723, Note_on_c, 11, 77, 80
11, 93750, Control_c, 11, 11, 46
11, 93778, Control_c, 11, 11, 45
11, 93783, Note_on_c, 11, 77, 0
11, 93783, Note_on_c, 11, 76, 80
11, 93806, Control_c, 11, 11, 44
11, 93833, Control_c, 11, 11, 43
11, 93843, Note_on_c, 11, 76, 0
11, 93843, Note_on_c, 11, 74, 80
11, 93861, Control_c, 11, 11, 42
11, 93889, Control_c, 11, 11, 41
11, 93903, Note_on_c, 11, 74, 0
11, 93903, Note_on_c, 11, 72, 80
11, 93916, Control_c, 11, 11, 40
11, 93944, Control_c, 11, 11, 39
11, 93963, Note_on_c, 11, 72, 0
11, 93963, Note_on_c, 11, 71, 80
11, 93972, Control_c, 11, 11, 38
11, 93999, Control_c, 11, 11, 37
11, 94023, Note_on_c, 11, 71, 0
11, 94023, Note_on_c, 11, 69, 80
11, 94027, Control_c, 11, 11, 36
11, 94055, Control_c, 11, 11, 35
11, 94078, Note_on_c, 11, 69, 0
11, 94083, Control_c, 11, 11, 34
11, 94083, Note_on_c, 11, 67, 80
11, 94143, Note_on_c, 11, 67, 0
11, 94143, Note_on_c, 11, 65, 80
11, 94203, Note_on_c, 11, 65, 0
11, 94203, Note_on_c, 11, 64, 80
11, 94263, Note_on_c, 11, 64, 0
11, 94263, Note_on_c, 11, 65, 80
11, 94323, Note_on_c, 11, 65, 0
11, 94323, Note_on_c, 11, 62, 80
11, 94383, Note_on_c, 11, 62, 0
11, 94383, Note_on_c, 11, 60, 80
11, 94438, Note_on_c, 11, 60, 0
11, 94443, Note_on_c, 11, 59, 100
11, 94468, Note_on_c, 11, 59, 0
11, 94473, Note_on_c, 11, 62, 68
11, 94493, Note_on_c, 11, 62, 0
11, 94503, Note_on_c, 11, 62, 68
11, 94523, Note_on_c, 11, 62, 0
11, 94533, Note_on_c, 11, 62, 68
11, 94553, Note_on_c, 11, 62, 0
11, 94563, Note_on_c, 11, 62, 70
11, 94583, Note_on_c, 11, 62, 0
11, 94593, Note_on_c, 11, 62, 71
11, 94613, Note_on_c, 11, 62, 0
11, 94623, Note_on_c, 11, 62, 73
11, 94643, Note_on_c, 11, 62, 0
11, 94653, Note_on_c, 11, 62, 73
11, 94673, Note_on_c, 11, 62, 0
11, 94683, Note_on_c, 11, 62, 75
11, 94703, Note_on_c, 11, 62, 0
11, 94713, Note_on_c, 11, 62, 75
11, 94733, Note_on_c, 11, 62, 0
11, 94743, Note_on_c, 11, 62, 76
11, 94763, Note_on_c, 11, 62, 0
11, 94773, Note_on_c, 11, 62, 78
11, 94793, Note_on_c, 11, 62, 0
11, 94803, Note_on_c, 11, 62, 79
11, 94823, Note_on_c, 11, 62, 0
11, 94833, Note_on_c, 11, 62, 81
11, 94853, Note_on_c, 11, 62, 0
11, 94863, Note_on_c, 11, 62, 81
11, 94883, Note_on_c, 11, 62, 0
11, 94893, Note_on_c, 11, 62, 83
11, 94913, Note_on_c, 11, 62, 0
11, 94923, Note_on_c, 11, 62, 84
11, 94943, Note_on_c, 11, 62, 0
11, 94953, Note_on_c, 11, 62, 85
11, 94973, Note_on_c, 11, 62, 0
11, 94983, Note_on_c, 11, 62, 86
11, 95003, Note_on_c, 11, 62, 0
11, 95013, Note_on_c, 11, 62, 87
11, 95033, Note_on_c, 11, 62, 0
11, 95043, Note_on_c, 11, 62, 89
11, 95063, Note_on_c, 11, 62, 0
11, 95073, Note_on_c, 11, 62, 90
11, 95093, Note_on_c, 11, 62, 0
11, 95103, Note_on_c, 11, 62, 92
11, 95123, Note_on_c, 11, 62, 0
11, 95133, Note_on_c, 11, 62, 93
11, 95153, Note_on_c, 11, 62, 0
11, 95163, Note_on_c, 11, 62, 95
11, 95183, Note_on_c, 11, 62, 0
11, 95193, Note_on_c, 11, 62, 95
11, 95213, Note_on_c, 11, 62, 0
11, 95223, Note_on_c, 11, 62, 96
11, 95243, Note_on_c, 11, 62, 0
11, 95253, Note_on_c, 11, 62, 96
11, 95273, Note_on_c, 11, 62, 0
11, 95283, Note_on_c, 11, 62, 96
11, 95303, Note_on_c, 11, 62, 0
11, 95313, Note_on_c, 11, 62, 97
11, 95333, Note_on_c, 11, 62, 0
11, 95343, Note_on_c, 11, 62, 97
11, 95363, Note_on_c, 11, 62, 0
11, 95373, Note_on_c, 11, 62, 98
11, 95393, Note_on_c, 11, 62, 0
11, 95403, Note_on_c, 11, 62, 98
11, 95423, Note_on_c, 11, 62, 0
11, 95433, Note_on_c, 11, 62, 99
11, 95453, Note_on_c, 11, 62, 0
11, 95463, Note_on_c, 11, 62, 99
11, 95483, Note_on_c, 11, 62, 0
11, 95493, Note_on_c, 11, 62, 100
11, 95513, Note_on_c, 11, 62, 0
11, 95523, Note_on_c, 11, 62, 100
11, 95643, Note_on_c, 11, 62, 0
11, 96003, Control_c, 11, 11, 37
11, 96003, Note_on_c, 11, 62, 100
11, 96031, Control_c, 11, 11, 38
11, 96060, Control_c, 11, 11, 39
11, 96089, Control_c, 11, 11, 40
11, 96118, Control_c, 11, 11, 41
11, 96123, Note_on_c, 11, 62, 0
11, 96147, Control_c, 11, 11, 42
11, 96175, Control_c, 11, 11, 43
11, 96204, Control_c, 11, 11, 44
11, 96233, Control_c, 11, 11, 45
11, 96262, Control_c, 11, 11, 46
11, 96291, Control_c, 11, 11, 47
11, 96319, Control_c, 11, 11, 48
11, 96348, Control_c, 11, 11, 49
11, 96377, Control_c, 11, 11, 50
11, 96406, Control_c, 11, 11, 51
11, 96435, Control_c, 11, 11, 52
11, 96463, Control_c, 11, 11, 53
11, 96483, Note_on_c, 11, 62, 100
11, 96492, Control_c, 11, 11, 54
11, 96521, Control_c, 11, 11, 55
11, 96550, Control_c, 11, 11, 56
11, 96579, Control_c, 11, 11, 57
11, 96603, Note_on_c, 11, 62, 0
11, 96607, Control_c, 11, 11, 58
11, 96636, Control_c, 11, 11, 59
11, 96665, Control_c, 11, 11, 60
11, 96694, Control_c, 11, 11, 61
11, 96723, Control_c, 11, 11, 62
11, 96723, Note_on_c, 11, 62, 100
11, 96751, Control_c, 11, 11, 63
11, 96780, Control_c, 11, 11, 64
11, 96809, Control_c, 11, 11, 65
11, 96838, Control_c, 11, 11, 66
11, 96843, Note_on_c, 11, 62, 0
11, 96867, Control_c, 11, 11, 67
11, 96895, Control_c, 11, 11, 68
11, 96924, Control_c, 11, 11, 69
11, 96953, Control_c, 11, 11, 70
11, 96963, Note_on_c, 11, 62, 100
11, 96982, Control_c, 11, 11, 71
11, 97011, Control_c, 11, 11, 72
11, 97039, Control_c, 11, 11, 73
11, 97068, Control_c, 11, 11, 74
11, 97083, Note_on_c, 11, 62, 0
11, 97097, Control_c, 11, 11, 75
11, 97126, Control_c, 11, 11, 76
11, 97155, Control_c, 11, 11, 77
11, 97183, Control_c, 11, 11, 78
11, 97203, Note_on_c, 11, 62, 100
11, 97212, Control_c, 11, 11, 79
11, 97241, Control_c, 11, 11, 80
11, 97270, Control_c, 11, 11, 81
11, 97299, Control_c, 11, 11, 82
11, 97323, Note_on_c, 11, 62, 0
11, 97327, Control_c, 11, 11, 83
11, 97356, Control_c, 11, 11, 84
11, 97385, Control_c, 11, 11, 85
11, 97414, Control_c, 11, 11, 86
11, 97443, Control_c, 11, 11, 87
11, 97443, Note_on_c, 11, 62, 100
11, 97548, Note_on_c, 11, 62, 0
11, 97563, Note_on_c, 11, 55, 101
11, 97668, Note_on_c, 11, 55, 0
11, 97683, Note_on_c, 11, 62, 102
11, 97788, Note_on_c, 11, 62, 0
11, 97803, Note_on_c, 11, 59, 103
11, 97908, Note_on_c, 11, 59, 0
11, 97923, Control_c, 11, 11, 87
11, 97923, Note_on_c, 11, 65, 104
11, 98015, Control_c, 11, 11, 88
11, 98028, Note_on_c, 11, 65, 0
11, 98043, Note_on_c, 11, 62, 106
11, 98107, Control_c, 11, 11, 89
11, 98148, Note_on_c, 11, 62, 0
11, 98163, Note_on_c, 11, 71, 107
11, 98199, Control_c, 11, 11, 90
11, 98268, Note_on_c, 11, 71, 0
11, 98283, Note_on_c, 11, 65, 108
11, 98291, Control_c, 11, 11, 91
11, 98383, Control_c, 11, 11, 92
11, 98388, Note_on_c, 11, 65, 0
11, 98403, Note_on_c, 11, 74, 109
11, 98475, Control_c, 11, 11, 93
11, 98508, Note_on_c, 11, 74, 0
11, 98523, Note_on_c, 11, 74, 110
11, 98567, Control_c, 11, 11, 94
11, 98568, Note_on_c, 11, 74, 0
11, 98583, Note_on_c, 11, 77, 111
11, 98643, Note_on_c, 11, 77, 0
11, 98643, Note_on_c, 11, 74, 112
11, 98659, Control_c, 11, 11, 95
11, 98688, Note_on_c, 11, 74, 0
11, 98703, Note_on_c, 11, 77, 112
11, 98751, Control_c, 11, 11, 96
11, 98763, Note_on_c, 11, 77, 0
11, 98763, Note_on_c, 11, 74, 113
11, 98808, Note_on_c, 11, 74, 0
11, 98823, Note_on_c, 11, 77, 113
11, 98843, Control_c, 11, 11, 97
11, 98883, Note_on_c, 11, 77, 0
11, 98883, Note_on_c, 11, 74, 114
11, 98928, Note_on_c, 11, 74, 0
11, 98935, Control_c, 11, 11, 98
11, 98943, Note_on_c, 11, 77, 115
11, 99003, Note_on_c, 11, 77, 0
11, 99003, Note_on_c, 11, 74, 115
11, 99027, Control_c, 11, 11, 99
11, 99048, Note_on_c, 11, 74, 0
11, 99063, Note_on_c, 11, 77, 116
11, 99119, Control_c, 11, 11, 100
11, 99123, Note_on_c, 11, 77, 0
11, 99123, Note_on_c, 11, 72, 117
11, 99123, Note_on_c, 11, 76, 117
11, 99211, Control_c, 11, 11, 101
11, 99243, Note_on_c, 11, 76, 0
11, 99243, Note_on_c, 11, 72, 0
11, 99303, Control_c, 11, 11, 102
11, 99303, Note_on_c, 11, 72, 117
11, 99363, Note_on_c, 11, 72, 0
11, 99363, Note_on_c, 11, 76, 117
11, 99483, Note_on_c, 11, 76, 0
11, 99543, Note_on_c, 11, 76, 117
11, 99603, Note_on_c, 11, 76, 0
11, 99603, Note_on_c, 11, 79, 117
11, 99723, Note_on_c, 11, 79, 0
11, 99783, Note_on_c, 11, 79, 117
11, 99843, Note_on_c, 11, 79, 0
11, 99843, Note_on_c, 11, 84, 117
11, 100188, Note_on_c, 11, 84, 0
11, 100203, Note_on_c, 11, 88, 117
11, 100323, Note_on_c, 11, 88, 0
11, 100323, Note_on_c, 11, 83, 113
11, 100443, Note_on_c, 11, 83, 0
11, 100443, Note_on_c, 11, 84, 108
11, 100563, Note_on_c, 11, 84, 0
11, 100563, Note_on_c, 11, 79, 104
11, 100683, Note_on_c, 11, 79, 0
11, 100683, Note_on_c, 11, 81, 99
11, 100788, Note_on_c, 11, 81, 0
11, 100803, Note_on_c, 11, 79, 125
11, 100823, Note_on_c, 11, 79, 0
11, 100823, Note_on_c, 11, 83, 125
11, 100843, Note_on_c, 11, 83, 0
11, 100843, Note_on_c, 11, 81, 117
11, 100923, Note_on_c, 11, 81, 0
11, 100923, Note_on_c, 11, 79, 117
11, 101043, Note_on_c, 11, 79, 0
11, 101043, Note_on_c, 11, 88, 127
11, 101163, Note_on_c, 11, 88, 0
11, 101163, Note_on_c, 11, 84, 122
11, 101283, Note_on_c, 11, 84, 0
11, 101283, Note_on_c, 11, 83, 117
11, 101403, Note_on_c, 11, 83, 0
11, 101403, Note_on_c, 11, 84, 111
11, 101523, Note_on_c, 11, 84, 0
11, 101523, Note_on_c, 11, 79, 105
11, 101643, Note_on_c, 11, 79, 0
11, 101643, Note_on_c, 11, 81, 99
11, 101748, Note_on_c, 11, 81, 0
11, 101763, Note_on_c, 11, 79, 125
11, 101783, Note_on_c, 11, 79, 0
11, 101783, Note_on_c, 11, 83, 125
11, 101803, Note_on_c, 11, 83, 0
11, 101803, Note_on_c, 11, 81, 117
11, 101883, Note_on_c, 11, 81, 0
11, 101883, Note_on_c, 11, 79, 117
11, 101988, Note_on_c, 11, 79, 0
11, 102003, Note_on_c, 11, 88, 127
11, 102123, Note_on_c, 11, 88, 0
11, 102123, Note_on_c, 11, 84, 119
11, 102243, Note_on_c, 11, 84, 0
11, 102243, Note_on_c, 11, 83, 109
11, 102363, Note_on_c, 11, 83, 0
11, 102363, Note_on_c, 11, 84, 99
11, 102588, Note_on_c, 11, 84, 0
11, 102603, Note_on_c, 11, 79, 127
11, 102663, Note_on_c, 11, 79, 0
11, 102663, Note_on_c, 11, 76, 126
11, 102708, Note_on_c, 11, 76, 0
11, 102723, Note_on_c, 11, 76, 117
11, 102843, Note_on_c, 11, 76, 0
11, 102843, Note_on_c, 11, 74, 117
11, 102963, Note_on_c, 11, 74, 0
11, 103083, Note_on_c, 11, 77, 127
11, 103143, Note_on_c, 11, 77, 0
11, 103143, Note_on_c, 11, 74, 126
11, 103188, Note_on_c, 11, 74, 0
11, 103203, Note_on_c, 11, 72, 117
11, 103323, Note_on_c, 11, 72, 0
11, 103323, Note_on_c, 11, 71, 117
11, 103443, Note_on_c, 11, 71, 0
11, 103563, Note_on_c, 11, 74, 127
11, 103623, Note_on_c, 11, 74, 0
11, 103623, Note_on_c, 11, 65, 126
11, 103668, Note_on_c, 11, 65, 0
11, 103683, Note_on_c, 11, 64, 125
11, 103713, Note_on_c, 11, 64, 0
11, 103713, Note_on_c, 11, 67, 125
11, 103743, Note_on_c, 11, 67, 0
11, 103743, Note_on_c, 11, 65, 117
11, 103803, Note_on_c, 11, 65, 0
11, 103803, Note_on_c, 11, 64, 117
11, 103923, Note_on_c, 11, 64, 0
11, 104043, Note_on_c, 11, 88, 127
11, 104103, Note_on_c, 11, 88, 0
11, 104103, Note_on_c, 11, 84, 126
11, 104163, Note_on_c, 11, 84, 0
11, 104163, Note_on_c, 11, 83, 117
11, 104223, Note_on_c, 11, 83, 0
11, 104223, Note_on_c, 11, 86, 117
11, 104268, Note_on_c, 11, 86, 0
11, 104283, Note_on_c, 11, 84, 117
11, 104503, Note_on_c, 11, 84, 0
11, 104523, Note_on_c, 11, 79, 127
11, 104583, Note_on_c, 11, 79, 0
11, 104583, Note_on_c, 11, 76, 126
11, 104628, Note_on_c, 11, 76, 0
11, 104643, Note_on_c, 11, 76, 117
11, 104763, Note_on_c, 11, 76, 0
11, 104763, Note_on_c, 11, 74, 117
11, 104883, Note_on_c, 11, 74, 0
11, 105003, Note_on_c, 11, 81, 127
11, 105063, Note_on_c, 11, 81, 0
11, 105063, Note_on_c, 11, 77, 126
11, 105108, Note_on_c, 11, 77, 0
11, 105123, Note_on_c, 11, 76, 117
11, 105243, Note_on_c, 11, 76, 0
11, 105243, Note_on_c, 11, 74, 117
11, 105363, Note_on_c, 11, 74, 0
11, 105483, Note_on_c, 11, 81, 127
11, 105543, Note_on_c, 11, 81, 0
11, 105543, Note_on_c, 11, 77, 126
11, 105588, Note_on_c, 11, 77, 0
11, 105603, Note_on_c, 11, 76, 117
11, 105723, Note_on_c, 11, 76, 0
11, 105723, Note_on_c, 11, 74, 117
11, 105843, Note_on_c, 11, 74, 0
11, 105963, Note_on_c, 11, 81, 127
11, 106023, Note_on_c, 11, 81, 0
11, 106023, Note_on_c, 11, 78, 126
11, 106068, Note_on_c, 11, 78, 0
11, 106083, Note_on_c, 11, 76, 117
11, 106203, Note_on_c, 11, 76, 0
11, 106203, Note_on_c, 11, 74, 117
11, 106323, Note_on_c, 11, 74, 0
11, 106443, Note_on_c, 11, 81, 127
11, 106503, Note_on_c, 11, 81, 0
11, 106503, Note_on_c, 11, 72, 126
11, 106548, Note_on_c, 11, 72, 0
11, 106563, Note_on_c, 11, 71, 85
11, 106566, Control_c, 11, 11, 86
11, 106575, Control_c, 11, 11, 83
11, 106584, Control_c, 11, 11, 80
11, 106593, Control_c, 11, 11, 77
11, 106602, Control_c, 11, 11, 74
11, 106611, Control_c, 11, 11, 71
11, 106620, Control_c, 11, 11, 68
11, 106629, Control_c, 11, 11, 65
11, 106638, Control_c, 11, 11, 62
11, 106647, Control_c, 11, 11, 59
11, 106653, Note_on_c, 11, 71, 0
11, 106656, Control_c, 11, 11, 56
11, 106665, Control_c, 11, 11, 53
11, 106674, Control_c, 11, 11, 50
11, 106683, Control_c, 11, 11, 47
11, 106683, Note_on_c, 11, 65, 100
11, 106743, Note_on_c, 11, 65, 0
11, 106743, Note_on_c, 11, 62, 100
11, 106803, Note_on_c, 11, 62, 0
11, 106803, Note_on_c, 11, 65, 100
11, 106863, Note_on_c, 11, 65, 0
11, 106863, Note_on_c, 11, 62, 100
11, 106923, Note_on_c, 11, 62, 0
11, 106923, Note_on_c, 11, 65, 100
11, 106983, Note_on_c, 11, 65, 0
11, 106983, Note_on_c, 11, 62, 100
11, 107028, Note_on_c, 11, 62, 0
11, 107043, Note_on_c, 11, 65, 100
11, 107103, Note_on_c, 11, 65, 0
11, 107103, Note_on_c, 11, 62, 100
11, 107163, Note_on_c, 11, 62, 0
11, 107163, Note_on_c, 11, 65, 100
11, 107223, Note_on_c, 11, 65, 0
11, 107223, Note_on_c, 11, 62, 100
11, 107283, Note_on_c, 11, 62, 0
11, 107283, Note_on_c, 11, 65, 100
11, 107343, Note_on_c, 11, 65, 0
11, 107343, Note_on_c, 11, 62, 100
11, 107403, Note_on_c, 11, 62, 0
11, 107403, Note_on_c, 11, 65, 100
11, 107463, Note_on_c, 11, 65, 0
11, 107463, Note_on_c, 11, 62, 100
11, 107508, Note_on_c, 11, 62, 0
11, 107523, Note_on_c, 11, 65, 100
11, 107583, Note_on_c, 11, 65, 0
11, 107583, Note_on_c, 11, 62, 100
11, 107643, Note_on_c, 11, 62, 0
11, 107643, Note_on_c, 11, 65, 100
11, 107703, Note_on_c, 11, 65, 0
11, 107703, Note_on_c, 11, 62, 100
11, 107763, Note_on_c, 11, 62, 0
11, 107763, Note_on_c, 11, 65, 100
11, 107823, Note_on_c, 11, 65, 0
11, 107823, Note_on_c, 11, 62, 100
11, 107883, Note_on_c, 11, 62, 0
11, 107883, Note_on_c, 11, 65, 100
11, 107943, Note_on_c, 11, 65, 0
11, 107943, Note_on_c, 11, 62, 100
11, 107988, Note_on_c, 11, 62, 0
11, 108003, Note_on_c, 11, 65, 100
11, 108063, Note_on_c, 11, 65, 0
11, 108063, Note_on_c, 11, 62, 100
11, 108123, Note_on_c, 11, 62, 0
11, 108123, Note_on_c, 11, 65, 100
11, 108183, Note_on_c, 11, 65, 0
11, 108183, Note_on_c, 11, 62, 100
11, 108243, Note_on_c, 11, 62, 0
11, 108243, Note_on_c, 11, 65, 100
11, 108303, Note_on_c, 11, 65, 0
11, 108303, Note_on_c, 11, 62, 100
11, 108363, Note_on_c, 11, 62, 0
11, 108363, Note_on_c, 11, 65, 100
11, 108423, Note_on_c, 11, 65, 0
11, 108423, Note_on_c, 11, 62, 100
11, 108468, Note_on_c, 11, 62, 0
11, 108483, Note_on_c, 11, 65, 100
11, 108543, Note_on_c, 11, 65, 0
11, 108543, Note_on_c, 11, 62, 100
11, 108603, Note_on_c, 11, 62, 0
11, 108603, Note_on_c, 11, 65, 100
11, 108663, Note_on_c, 11, 65, 0
11, 108663, Note_on_c, 11, 62, 100
11, 108723, Note_on_c, 11, 62, 0
11, 108723, Note_on_c, 11, 65, 100
11, 108783, Note_on_c, 11, 65, 0
11, 108783, Note_on_c, 11, 62, 100
11, 108843, Note_on_c, 11, 62, 0
11, 108843, Note_on_c, 11, 65, 100
11, 108903, Note_on_c, 11, 65, 0
11, 108903, Note_on_c, 11, 62, 100
11, 108948, Note_on_c, 11, 62, 0
11, 108963, Note_on_c, 11, 65, 100
11, 109023, Note_on_c, 11, 65, 0
11, 109023, Note_on_c, 11, 62, 100
11, 109083, Note_on_c, 11, 62, 0
11, 109083, Note_on_c, 11, 65, 100
11, 109143, Note_on_c, 11, 65, 0
11, 109143, Note_on_c, 11, 62, 100
11, 109203, Note_on_c, 11, 62, 0
11, 109203, Note_on_c, 11, 65, 100
11, 109263, Note_on_c, 11, 65, 0
11, 109263, Note_on_c, 11, 62, 100
11, 109323, Note_on_c, 11, 62, 0
11, 109323, Note_on_c, 11, 65, 100
11, 109383, Note_on_c, 11, 65, 0
11, 109383, Note_on_c, 11, 62, 100
11, 109428, Note_on_c, 11, 62, 0
11, 109438, Control_c, 11, 11, 47
11, 109439, Control_c, 11, 11, 52
11, 109440, Control_c, 11, 11, 57
11, 109441, Control_c, 11, 11, 62
11, 109442, Control_c, 11, 11, 67
11, 109443, Control_c, 11, 11, 72
11, 109443, Note_on_c, 11, 65, 100
11, 109462, Control_c, 11, 11, 71
11, 109481, Control_c, 11, 11, 70
11, 109500, Control_c, 11, 11, 69
11, 109503, Note_on_c, 11, 65, 0
11, 109503, Note_on_c, 11, 62, 100
11, 109519, Control_c, 11, 11, 68
11, 109539, Control_c, 11, 11, 67
11, 109558, Control_c, 11, 11, 66
11, 109563, Note_on_c, 11, 62, 0
11, 109563, Note_on_c, 11, 65, 100
11, 109577, Control_c, 11, 11, 65
11, 109596, Control_c, 11, 11, 64
11, 109615, Control_c, 11, 11, 63
11, 109623, Note_on_c, 11, 65, 0
11, 109623, Note_on_c, 11, 62, 100
11, 109635, Control_c, 11, 11, 62
11, 109654, Control_c, 11, 11, 61
11, 109673, Control_c, 11, 11, 60
11, 109683, Note_on_c, 11, 62, 0
11, 109683, Note_on_c, 11, 65, 100
11, 109692, Control_c, 11, 11, 59
11, 109711, Control_c, 11, 11, 58
11, 109731, Control_c, 11, 11, 57
11, 109743, Note_on_c, 11, 65, 0
11, 109743, Note_on_c, 11, 62, 100
11, 109750, Control_c, 11, 11, 56
11, 109769, Control_c, 11, 11, 55
11, 109788, Control_c, 11, 11, 54
11, 109803, Note_on_c, 11, 62, 0
11, 109803, Note_on_c, 11, 65, 100
11, 109807, Control_c, 11, 11, 53
11, 109827, Control_c, 11, 11, 52
11, 109846, Control_c, 11, 11, 51
11, 109863, Note_on_c, 11, 65, 0
11, 109863, Note_on_c, 11, 62, 100
11, 109865, Control_c, 11, 11, 50
11, 109884, Control_c, 11, 11, 49
11, 109903, Control_c, 11, 11, 48
11, 109908, Note_on_c, 11, 62, 0
11, 109923, Control_c, 11, 11, 47
11, 109923, Note_on_c, 11, 65, 100
11, 109983, Note_on_c, 11, 65, 0
11, 109983, Note_on_c, 11, 62, 100
11, 110043, Note_on_c, 11, 62, 0
11, 110043, Note_on_c, 11, 65, 100
11, 110103, Note_on_c, 11, 65, 0
11, 110103, Note_on_c, 11, 62, 100
11, 110163, Note_on_c, 11, 62, 0
11, 110163, Note_on_c, 11, 65, 100
11, 110223, Note_on_c, 11, 65, 0
11, 110223, Note_on_c, 11, 62, 100
11, 110283, Note_on_c, 11, 62, 0
11, 110283, Note_on_c, 11, 65, 100
11, 110343, Note_on_c, 11, 65, 0
11, 110343, Note_on_c, 11, 62, 100
11, 110388, Note_on_c, 11, 62, 0
11, 110403, Note_on_c, 11, 65, 96
11, 110463, Note_on_c, 11, 65, 0
11, 110463, Note_on_c, 11, 71, 96
11, 110523, Note_on_c, 11, 71, 0
11, 110523, Note_on_c, 11, 74, 96
11, 110583, Note_on_c, 11, 74, 0
11, 110583, Note_on_c, 11, 71, 96
11, 110643, Note_on_c, 11, 71, 0
11, 110643, Note_on_c, 11, 74, 96
11, 110703, Note_on_c, 11, 74, 0
11, 110703, Note_on_c, 11, 71, 96
11, 110763, Note_on_c, 11, 71, 0
11, 110763, Note_on_c, 11, 74, 96
11, 110823, Note_on_c, 11, 74, 0
11, 110823, Note_on_c, 11, 71, 96
11, 110868, Note_on_c, 11, 71, 0
11, 110883, Note_on_c, 11, 74, 96
11, 110943, Note_on_c, 11, 74, 0
11, 110943, Note_on_c, 11, 71, 96
11, 111003, Note_on_c, 11, 71, 0
11, 111003, Note_on_c, 11, 74, 96
11, 111063, Note_on_c, 11, 74, 0
11, 111063, Note_on_c, 11, 71, 96
11, 111123, Note_on_c, 11, 71, 0
11, 111123, Note_on_c, 11, 74, 96
11, 111183, Note_on_c, 11, 74, 0
11, 111183, Note_on_c, 11, 71, 96
11, 111243, Note_on_c, 11, 71, 0
11, 111243, Note_on_c, 11, 74, 96
11, 111303, Note_on_c, 11, 74, 0
11, 111303, Note_on_c, 11, 71, 96
11, 111348, Note_on_c, 11, 71, 0
11, 111358, Control_c, 11, 11, 47
11, 111359, Control_c, 11, 11, 52
11, 111360, Control_c, 11, 11, 57
11, 111361, Control_c, 11, 11, 62
11, 111362, Control_c, 11, 11, 67
11, 111363, Control_c, 11, 11, 72
11, 111363, Note_on_c, 11, 77, 96
11, 111391, Control_c, 11, 11, 71
11, 111420, Control_c, 11, 11, 70
11, 111423, Note_on_c, 11, 77, 0
11, 111423, Note_on_c, 11, 74, 96
11, 111449, Control_c, 11, 11, 69
11, 111478, Control_c, 11, 11, 68
11, 111483, Note_on_c, 11, 74, 0
11, 111483, Note_on_c, 11, 77, 96
11, 111507, Control_c, 11, 11, 67
11, 111535, Control_c, 11, 11, 66
11, 111543, Note_on_c, 11, 77, 0
11, 111543, Note_on_c, 11, 74, 96
11, 111564, Control_c, 11, 11, 65
11, 111593, Control_c, 11, 11, 64
11, 111603, Note_on_c, 11, 74, 0
11, 111603, Note_on_c, 11, 77, 96
11, 111622, Control_c, 11, 11, 63
11, 111651, Control_c, 11, 11, 62
11, 111663, Note_on_c, 11, 77, 0
11, 111663, Note_on_c, 11, 74, 96
11, 111679, Control_c, 11, 11, 61
11, 111708, Control_c, 11, 11, 60
11, 111723, Note_on_c, 11, 74, 0
11, 111723, Note_on_c, 11, 77, 96
11, 111737, Control_c, 11, 11, 59
11, 111766, Control_c, 11, 11, 58
11, 111783, Note_on_c, 11, 77, 0
11, 111783, Note_on_c, 11, 74, 96
11, 111795, Control_c, 11, 11, 57
11, 111823, Control_c, 11, 11, 56
11, 111828, Note_on_c, 11, 74, 0
11, 111843, Note_on_c, 11, 77, 96
11, 111852, Control_c, 11, 11, 55
11, 111881, Control_c, 11, 11, 54
11, 111903, Note_on_c, 11, 77, 0
11, 111903, Note_on_c, 11, 74, 96
11, 111910, Control_c, 11, 11, 53
11, 111939, Control_c, 11, 11, 52
11, 111963, Note_on_c, 11, 74, 0
11, 111963, Note_on_c, 11, 77, 96
11, 111967, Control_c, 11, 11, 51
11, 111996, Control_c, 11, 11, 50
11, 112023, Note_on_c, 11, 77, 0
11, 112023, Note_on_c, 11, 74, 96
11, 112025, Control_c, 11, 11, 49
11, 112054, Control_c, 11, 11, 48
11, 112083, Note_on_c, 11, 74, 0
11, 112083, Control_c, 11, 11, 47
11, 112083, Note_on_c, 11, 74, 96
11, 112128, Note_on_c, 11, 74, 0
11, 112143, Note_on_c, 11, 67, 96
11, 112173, Note_on_c, 11, 67, 0
11, 112203, Note_on_c, 11, 67, 96
11, 112233, Note_on_c, 11, 67, 0
11, 112263, Note_on_c, 11, 67, 96
11, 112293, Note_on_c, 11, 67, 0
11, 112323, Note_on_c, 11, 75, 96
11, 112383, Note_on_c, 11, 75, 0
11, 112383, Note_on_c, 11, 72, 96
11, 112443, Note_on_c, 11, 72, 0
11, 112443, Note_on_c, 11, 75, 96
11, 112503, Note_on_c, 11, 75, 0
11, 112503, Note_on_c, 11, 72, 96
11, 112563, Note_on_c, 11, 72, 0
11, 112563, Note_on_c, 11, 75, 96
11, 112608, Note_on_c, 11, 75, 0
11, 112623, Note_on_c, 11, 75, 96
11, 112653, Note_on_c, 11, 75, 0
11, 112683, Note_on_c, 11, 75, 96
11, 112713, Note_on_c, 11, 75, 0
11, 112743, Note_on_c, 11, 75, 96
11, 112773, Note_on_c, 11, 75, 0
11, 112803, Note_on_c, 11, 74, 96
11, 112863, Note_on_c, 11, 74, 0
11, 112863, Note_on_c, 11, 68, 96
11, 112923, Note_on_c, 11, 68, 0
11, 112923, Note_on_c, 11, 74, 96
11, 112983, Note_on_c, 11, 74, 0
11, 112983, Note_on_c, 11, 68, 96
11, 113043, Note_on_c, 11, 68, 0
11, 113043, Note_on_c, 11, 74, 96
11, 113088, Note_on_c, 11, 74, 0
11, 113103, Note_on_c, 11, 74, 96
11, 113133, Note_on_c, 11, 74, 0
11, 113163, Note_on_c, 11, 74, 96
11, 113193, Note_on_c, 11, 74, 0
11, 113223, Note_on_c, 11, 74, 96
11, 113253, Note_on_c, 11, 74, 0
11, 113283, Note_on_c, 11, 72, 96
11, 113343, Note_on_c, 11, 72, 0
11, 113343, Note_on_c, 11, 67, 96
11, 113403, Note_on_c, 11, 67, 0
11, 113403, Note_on_c, 11, 72, 96
11, 113463, Note_on_c, 11, 72, 0
11, 113463, Note_on_c, 11, 67, 96
11, 113523, Note_on_c, 11, 67, 0
11, 113523, Note_on_c, 11, 72, 96
11, 113568, Note_on_c, 11, 72, 0
11, 113583, Note_on_c, 11, 72, 96
11, 113613, Note_on_c, 11, 72, 0
11, 113643, Note_on_c, 11, 72, 96
11, 113673, Note_on_c, 11, 72, 0
11, 113703, Note_on_c, 11, 72, 96
11, 113733, Note_on_c, 11, 72, 0
11, 113763, Note_on_c, 11, 71, 96
11, 113823, Note_on_c, 11, 71, 0
11, 113823, Note_on_c, 11, 67, 96
11, 113883, Note_on_c, 11, 67, 0
11, 113883, Note_on_c, 11, 71, 96
11, 113943, Note_on_c, 11, 71, 0
11, 113943, Note_on_c, 11, 67, 96
11, 113988, Note_on_c, 11, 67, 0
11, 114003, Note_on_c, 11, 74, 96
11, 114063, Note_on_c, 11, 74, 0
11, 114063, Note_on_c, 11, 71, 96
11, 114123, Note_on_c, 11, 71, 0
11, 114123, Note_on_c, 11, 74, 96
11, 114183, Note_on_c, 11, 74, 0
11, 114183, Note_on_c, 11, 71, 96
11, 114228, Note_on_c, 11, 71, 0
11, 114238, Control_c, 11, 11, 47
11, 114239, Control_c, 11, 11, 52
11, 114240, Control_c, 11, 11, 57
11, 114241, Control_c, 11, 11, 62
11, 114242, Control_c, 11, 11, 67
11, 114243, Control_c, 11, 11, 72
11, 114243, Note_on_c, 11, 77, 96
11, 114262, Control_c, 11, 11, 71
11, 114281, Control_c, 11, 11, 70
11, 114300, Control_c, 11, 11, 69
11, 114303, Note_on_c, 11, 77, 0
11, 114303, Note_on_c, 11, 74, 96
11, 114319, Control_c, 11, 11, 68
11, 114339, Control_c, 11, 11, 67
11, 114358, Control_c, 11, 11, 66
11, 114363, Note_on_c, 11, 74, 0
11, 114363, Note_on_c, 11, 77, 96
11, 114377, Control_c, 11, 11, 65
11, 114396, Control_c, 11, 11, 64
11, 114415, Control_c, 11, 11, 63
11, 114423, Note_on_c, 11, 77, 0
11, 114423, Note_on_c, 11, 74, 96
11, 114435, Control_c, 11, 11, 62
11, 114454, Control_c, 11, 11, 61
11, 114473, Control_c, 11, 11, 60
11, 114483, Note_on_c, 11, 74, 0
11, 114483, Note_on_c, 11, 77, 96
11, 114492, Control_c, 11, 11, 59
11, 114511, Control_c, 11, 11, 58
11, 114531, Control_c, 11, 11, 57
11, 114543, Note_on_c, 11, 77, 0
11, 114543, Note_on_c, 11, 74, 96
11, 114550, Control_c, 11, 11, 56
11, 114569, Control_c, 11, 11, 55
11, 114588, Control_c, 11, 11, 54
11, 114603, Note_on_c, 11, 74, 0
11, 114603, Note_on_c, 11, 77, 96
11, 114607, Control_c, 11, 11, 53
11, 114627, Control_c, 11, 11, 52
11, 114646, Control_c, 11, 11, 51
11, 114663, Note_on_c, 11, 77, 0
11, 114663, Note_on_c, 11, 74, 96
11, 114665, Control_c, 11, 11, 50
11, 114684, Control_c, 11, 11, 49
11, 114703, Control_c, 11, 11, 48
11, 114708, Note_on_c, 11, 74, 0
11, 114723, Control_c, 11, 11, 47
11, 114723, Note_on_c, 11, 77, 96
11, 114783, Note_on_c, 11, 77, 0
11, 114783, Note_on_c, 11, 74, 96
11, 114843, Note_on_c, 11, 74, 0
11, 114843, Note_on_c, 11, 77, 96
11, 114903, Note_on_c, 11, 77, 0
11, 114903, Note_on_c, 11, 74, 96
11, 114963, Note_on_c, 11, 74, 0
11, 114963, Note_on_c, 11, 74, 96
11, 115008, Note_on_c, 11, 74, 0
11, 115023, Note_on_c, 11, 71, 96
11, 115053, Note_on_c, 11, 71, 0
11, 115083, Note_on_c, 11, 71, 96
11, 115113, Note_on_c, 11, 71, 0
11, 115143, Note_on_c, 11, 71, 96
11, 115173, Note_on_c, 11, 71, 0
11, 115203, Note_on_c, 11, 75, 96
11, 115263, Note_on_c, 11, 75, 0
11, 115263, Note_on_c, 11, 72, 96
11, 115323, Note_on_c, 11, 72, 0
11, 115323, Note_on_c, 11, 75, 96
11, 115383, Note_on_c, 11, 75, 0
11, 115383, Note_on_c, 11, 72, 96
11, 115443, Note_on_c, 11, 72, 0
11, 115443, Note_on_c, 11, 75, 96
11, 115488, Note_on_c, 11, 75, 0
11, 115503, Note_on_c, 11, 75, 96
11, 115533, Note_on_c, 11, 75, 0
11, 115563, Note_on_c, 11, 75, 96
11, 115593, Note_on_c, 11, 75, 0
11, 115623, Note_on_c, 11, 75, 96
11, 115653, Note_on_c, 11, 75, 0
11, 115683, Control_c, 11, 11, 47
11, 115683, Note_on_c, 11, 75, 96
11, 115719, Control_c, 11, 11, 48
11, 115743, Note_on_c, 11, 75, 0
11, 115743, Note_on_c, 11, 72, 96
11, 115755, Control_c, 11, 11, 49
11, 115791, Control_c, 11, 11, 50
11, 115803, Note_on_c, 11, 72, 0
11, 115803, Note_on_c, 11, 75, 96
11, 115827, Control_c, 11, 11, 51
11, 115863, Note_on_c, 11, 75, 0
11, 115863, Control_c, 11, 11, 52
11, 115863, Note_on_c, 11, 72, 96
11, 115899, Control_c, 11, 11, 53
11, 115923, Note_on_c, 11, 72, 0
11, 115923, Note_on_c, 11, 75, 96
11, 115935, Control_c, 11, 11, 54
11, 115968, Note_on_c, 11, 75, 0
11, 115971, Control_c, 11, 11, 55
11, 115983, Note_on_c, 11, 75, 96
11, 116007, Control_c, 11, 11, 56
11, 116013, Note_on_c, 11, 75, 0
11, 116043, Control_c, 11, 11, 57
11, 116043, Note_on_c, 11, 75, 96
11, 116073, Note_on_c, 11, 75, 0
11, 116079, Control_c, 11, 11, 58
11, 116103, Note_on_c, 11, 75, 96
11, 116115, Control_c, 11, 11, 59
11, 116133, Note_on_c, 11, 75, 0
11, 116151, Control_c, 11, 11, 60
11, 116163, Note_on_c, 11, 79, 96
11, 116187, Control_c, 11, 11, 61
11, 116193, Note_on_c, 11, 79, 0
11, 116223, Control_c, 11, 11, 62
11, 116223, Note_on_c, 11, 63, 96
11, 116259, Control_c, 11, 11, 63
11, 116283, Note_on_c, 11, 63, 0
11, 116283, Note_on_c, 11, 67, 96
11, 116295, Control_c, 11, 11, 64
11, 116331, Control_c, 11, 11, 65
11, 116343, Note_on_c, 11, 67, 0
11, 116343, Note_on_c, 11, 63, 96
11, 116367, Control_c, 11, 11, 66
11, 116403, Note_on_c, 11, 63, 0
11, 116403, Control_c, 11, 11, 67
11, 116403, Note_on_c, 11, 67, 96
11, 116439, Control_c, 11, 11, 68
11, 116463, Note_on_c, 11, 67, 0
11, 116463, Note_on_c, 11, 63, 96
11, 116475, Control_c, 11, 11, 69
11, 116511, Control_c, 11, 11, 70
11, 116523, Note_on_c, 11, 63, 0
11, 116523, Note_on_c, 11, 67, 96
11, 116547, Control_c, 11, 11, 71
11, 116583, Note_on_c, 11, 67, 0
11, 116583, Control_c, 11, 11, 72
11, 116583, Note_on_c, 11, 63, 96
11, 116619, Control_c, 11, 11, 73
11, 116628, Note_on_c, 11, 63, 0
11, 116643, Note_on_c, 11, 67, 96
11, 116655, Control_c, 11, 11, 74
11, 116691, Control_c, 11, 11, 75
11, 116703, Note_on_c, 11, 67, 0
11, 116703, Note_on_c, 11, 63, 96
11, 116727, Control_c, 11, 11, 76
11, 116763, Note_on_c, 11, 63, 0
11, 116763, Control_c, 11, 11, 77
11, 116763, Note_on_c, 11, 67, 96
11, 116799, Control_c, 11, 11, 78
11, 116823, Note_on_c, 11, 67, 0
11, 116823, Note_on_c, 11, 65, 96
11, 116835, Control_c, 11, 11, 79
11, 116868, Note_on_c, 11, 65, 0
11, 116871, Control_c, 11, 11, 80
11, 116883, Note_on_c, 11, 62, 96
11, 116907, Control_c, 11, 11, 81
11, 116928, Note_on_c, 11, 62, 0
11, 116943, Control_c, 11, 11, 82
11, 116943, Note_on_c, 11, 62, 96
11, 116979, Control_c, 11, 11, 83
11, 116988, Note_on_c, 11, 62, 0
11, 117003, Note_on_c, 11, 56, 96
11, 117015, Control_c, 11, 11, 84
11, 117048, Note_on_c, 11, 56, 0
11, 117051, Control_c, 11, 11, 85
11, 117063, Note_on_c, 11, 56, 96
11, 117087, Control_c, 11, 11, 86
11, 117108, Note_on_c, 11, 56, 0
11, 117123, Control_c, 11, 11, 87
11, 117123, Note_on_c, 11, 63, 90
11, 117243, Note_on_c, 11, 63, 0
11, 117723, Control_c, 11, 11, 47
11, 117723, Note_on_c, 11, 63, 100
11, 117783, Note_on_c, 11, 63, 0
11, 117843, Note_on_c, 11, 62, 100
11, 117903, Note_on_c, 11, 62, 0
11, 117963, Note_on_c, 11, 63, 100
11, 118023, Note_on_c, 11, 63, 0
11, 118083, Note_on_c, 11, 65, 100
11, 118203, Note_on_c, 11, 65, 0
11, 118203, Note_on_c, 11, 62, 100
11, 118313, Note_on_c, 11, 62, 0
11, 118323, Note_on_c, 11, 58, 100
11, 118383, Note_on_c, 11, 58, 0
11, 118443, Note_on_c, 11, 56, 100
11, 118503, Note_on_c, 11, 56, 0
11, 118563, Note_on_c, 11, 55, 100
11, 118623, Note_on_c, 11, 55, 0
11, 118683, Note_on_c, 11, 58, 100
11, 118743, Note_on_c, 11, 58, 0
11, 118803, Note_on_c, 11, 60, 100
11, 118863, Note_on_c, 11, 60, 0
11, 118923, Control_c, 11, 11, 47
11, 118923, Note_on_c, 11, 64, 100
11, 118932, Control_c, 11, 11, 50
11, 118941, Control_c, 11, 11, 53
11, 118950, Control_c, 11, 11, 56
11, 118959, Control_c, 11, 11, 59
11, 118968, Control_c, 11, 11, 62
11, 118977, Control_c, 11, 11, 65
11, 118983, Note_on_c, 11, 64, 0
11, 118986, Control_c, 11, 11, 68
11, 118995, Control_c, 11, 11, 71
11, 119004, Control_c, 11, 11, 74
11, 119013, Control_c, 11, 11, 77
11, 119022, Control_c, 11, 11, 80
11, 119031, Control_c, 11, 11, 83
11, 119040, Control_c, 11, 11, 86
11, 119043, Note_on_c, 11, 65, 100
11, 119103, Note_on_c, 11, 65, 0
11, 119643, Control_c, 11, 11, 47
11, 119643, Note_on_c, 11, 65, 100
11, 119703, Note_on_c, 11, 65, 0
11, 119763, Note_on_c, 11, 64, 100
11, 119823, Note_on_c, 11, 64, 0
11, 119883, Note_on_c, 11, 65, 100
11, 119943, Note_on_c, 11, 65, 0
11, 120003, Note_on_c, 11, 67, 100
11, 120123, Note_on_c, 11, 67, 0
11, 120123, Note_on_c, 11, 64, 100
11, 120233, Note_on_c, 11, 64, 0
11, 120243, Note_on_c, 11, 60, 100
11, 120303, Note_on_c, 11, 60, 0
11, 120363, Note_on_c, 11, 58, 100
11, 120423, Note_on_c, 11, 58, 0
11, 120483, Note_on_c, 11, 56, 100
11, 120543, Note_on_c, 11, 56, 0
11, 120603, Note_on_c, 11, 60, 100
11, 120663, Note_on_c, 11, 60, 0
11, 120723, Note_on_c, 11, 65, 100
11, 120783, Note_on_c, 11, 65, 0
11, 120843, Note_on_c, 11, 67, 100
11, 120903, Note_on_c, 11, 67, 0
11, 120963, Control_c, 11, 11, 72
11, 120963, Note_on_c, 11, 68, 100
11, 120967, Control_c, 11, 11, 75
11, 120972, Control_c, 11, 11, 78
11, 120976, Control_c, 11, 11, 81
11, 120999, Control_c, 11, 11, 79
11, 121012, Control_c, 11, 11, 76
11, 121026, Control_c, 11, 11, 73
11, 121039, Control_c, 11, 11, 70
11, 121053, Control_c, 11, 11, 67
11, 121066, Control_c, 11, 11, 64
11, 121080, Control_c, 11, 11, 61
11, 121083, Note_on_c, 11, 68, 0
11, 121083, Note_on_c, 11, 65, 100
11, 121093, Control_c, 11, 11, 58
11, 121107, Control_c, 11, 11, 55
11, 121120, Control_c, 11, 11, 52
11, 121134, Control_c, 11, 11, 49
11, 121193, Note_on_c, 11, 65, 0
11, 121203, Note_on_c, 11, 62, 100
11, 121263, Note_on_c, 11, 62, 0
11, 121323, Note_on_c, 11, 60, 100
11, 121383, Note_on_c, 11, 60, 0
11, 121443, Note_on_c, 11, 59, 100
11, 121503, Note_on_c, 11, 59, 0
11, 121563, Note_on_c, 11, 62, 100
11, 121623, Note_on_c, 11, 62, 0
11, 121683, Note_on_c, 11, 65, 100
11, 121743, Note_on_c, 11, 65, 0
11, 121803, Note_on_c, 11, 67, 100
11, 121863, Note_on_c, 11, 67, 0
11, 121923, Control_c, 11, 11, 72
11, 121923, Note_on_c, 11, 68, 100
11, 121927, Control_c, 11, 11, 75
11, 121932, Control_c, 11, 11, 78
11, 121936, Control_c, 11, 11, 81
11, 121959, Control_c, 11, 11, 79
11, 121972, Control_c, 11, 11, 76
11, 121986, Control_c, 11, 11, 73
11, 121999, Control_c, 11, 11, 70
11, 122013, Control_c, 11, 11, 67
11, 122026, Control_c, 11, 11, 64
11, 122040, Control_c, 11, 11, 61
11, 122043, Note_on_c, 11, 68, 0
11, 122043, Note_on_c, 11, 65, 100
11, 122053, Control_c, 11, 11, 58
11, 122067, Control_c, 11, 11, 55
11, 122080, Control_c, 11, 11, 52
11, 122094, Control_c, 11, 11, 49
11, 122153, Note_on_c, 11, 65, 0
11, 122163, Note_on_c, 11, 62, 100
11, 122223, Note_on_c, 11, 62, 0
11, 122283, Note_on_c, 11, 60, 100
11, 122343, Note_on_c, 11, 60, 0
11, 122403, Note_on_c, 11, 59, 100
11, 122463, Note_on_c, 11, 59, 0
11, 122883, Note_on_c, 11, 68, 100
11, 122943, Note_on_c, 11, 68, 0
11, 123003, Note_on_c, 11, 71, 100
11, 123063, Note_on_c, 11, 71, 0
11, 123123, Note_on_c, 11, 72, 100
11, 123183, Note_on_c, 11, 72, 0
11, 123243, Note_on_c, 11, 74, 100
11, 123303, Note_on_c, 11, 74, 0
11, 125283, Control_c, 11, 11, 47
11, 125283, Note_on_c, 11, 74, 85
11, 125403, Note_on_c, 11, 74, 0
11, 125403, Note_on_c, 11, 72, 92
11, 125523, Note_on_c, 11, 72, 0
11, 125523, Note_on_c, 11, 70, 100
11, 125643, Note_on_c, 11, 70, 0
11, 125643, Note_on_c, 11, 68, 100
11, 125763, Note_on_c, 11, 68, 0
11, 126243, Control_c, 11, 11, 47
11, 126243, Note_on_c, 11, 60, 85
11, 126363, Note_on_c, 11, 60, 0
11, 126363, Note_on_c, 11, 58, 92
11, 126483, Note_on_c, 11, 58, 0
11, 126483, Note_on_c, 11, 56, 100
11, 126603, Note_on_c, 11, 56, 0
11, 126603, Note_on_c, 11, 55, 100
11, 126708, Note_on_c, 11, 55, 0
11, 126723, Note_on_c, 11, 55, 100
11, 126843, Note_on_c, 11, 55, 0
11, 129122, Program_c, 11, 50
11, 129123, Note_on_c, 11, 55, 80
11, 129243, Note_on_c, 11, 55, 0
11, 129243, Note_on_c, 11, 56, 80
11, 129363, Note_on_c, 11, 56, 0
11, 129363, Note_on_c, 11, 57, 80
11, 129483, Note_on_c, 11, 57, 0
11, 129483, Note_on_c, 11, 56, 80
11, 129603, Note_on_c, 11, 56, 0
11, 129603, Note_on_c, 11, 57, 80
11, 129723, Note_on_c, 11, 57, 0
11, 129723, Note_on_c, 11, 58, 80
11, 129843, Note_on_c, 11, 58, 0
11, 129843, Note_on_c, 11, 59, 80
11, 129963, Note_on_c, 11, 59, 0
11, 129963, Note_on_c, 11, 58, 80
11, 130083, Note_on_c, 11, 58, 0
11, 130083, Note_on_c, 11, 59, 80
11, 130203, Note_on_c, 11, 59, 0
11, 130203, Note_on_c, 11, 60, 80
11, 130323, Note_on_c, 11, 60, 0
11, 130323, Note_on_c, 11, 61, 80
11, 130443, Note_on_c, 11, 61, 0
11, 130443, Note_on_c, 11, 60, 80
11, 130563, Note_on_c, 11, 60, 0
11, 130563, Control_c, 11, 11, 47
11, 130563, Note_on_c, 11, 61, 80
11, 130611, Control_c, 11, 11, 48
11, 130659, Control_c, 11, 11, 49
11, 130683, Note_on_c, 11, 61, 0
11, 130683, Note_on_c, 11, 62, 80
11, 130707, Control_c, 11, 11, 50
11, 130755, Control_c, 11, 11, 51
11, 130803, Note_on_c, 11, 62, 0
11, 130803, Control_c, 11, 11, 52
11, 130803, Note_on_c, 11, 63, 80
11, 130851, Control_c, 11, 11, 53
11, 130899, Control_c, 11, 11, 54
11, 130923, Note_on_c, 11, 63, 0
11, 130923, Note_on_c, 11, 64, 80
11, 130947, Control_c, 11, 11, 55
11, 130995, Control_c, 11, 11, 56
11, 131043, Note_on_c, 11, 64, 0
11, 131043, Control_c, 11, 11, 57
11, 131043, Note_on_c, 11, 65, 80
11, 131091, Control_c, 11, 11, 58
11, 131139, Control_c, 11, 11, 59
11, 131163, Note_on_c, 11, 65, 0
11, 131163, Note_on_c, 11, 66, 80
11, 131187, Control_c, 11, 11, 60
11, 131235, Control_c, 11, 11, 61
11, 131283, Note_on_c, 11, 66, 0
11, 131283, Control_c, 11, 11, 62
11, 131283, Note_on_c, 11, 67, 80
11, 131331, Control_c, 11, 11, 63
11, 131379, Control_c, 11, 11, 64
11, 131403, Note_on_c, 11, 67, 0
11, 131403, Note_on_c, 11, 68, 80
11, 131427, Control_c, 11, 11, 65
11, 131475, Control_c, 11, 11, 66
11, 131523, Note_on_c, 11, 68, 0
11, 131523, Control_c, 11, 11, 67
11, 131523, Note_on_c, 11, 69, 80
11, 131571, Control_c, 11, 11, 68
11, 131619, Control_c, 11, 11, 69
11, 131643, Note_on_c, 11, 69, 0
11, 131643, Note_on_c, 11, 64, 80
11, 131667, Control_c, 11, 11, 70
11, 131715, Control_c, 11, 11, 71
11, 131763, Note_on_c, 11, 64, 0
11, 131763, Control_c, 11, 11, 72
11, 131763, Note_on_c, 11, 65, 80
11, 131782, Control_c, 11, 11, 70
11, 131801, Control_c, 11, 11, 68
11, 131820, Control_c, 11, 11, 66
11, 131839, Control_c, 11, 11, 64
11, 131859, Control_c, 11, 11, 62
11, 131868, Note_on_c, 11, 65, 0
11, 131878, Control_c, 11, 11, 60
11, 131883, Note_on_c, 11, 61, 80
11, 131897, Control_c, 11, 11, 58
11, 131916, Control_c, 11, 11, 56
11, 131935, Control_c, 11, 11, 54
11, 131955, Control_c, 11, 11, 52
11, 131974, Control_c, 11, 11, 50
11, 131993, Control_c, 11, 11, 48
11, 132003, Note_on_c, 11, 61, 0
11, 132003, Note_on_c, 11, 62, 80
11, 132123, Note_on_c, 11, 62, 0
11, 132123, Note_on_c, 11, 65, 80
11, 132243, Note_on_c, 11, 65, 0
11, 132243, Note_on_c, 11, 57, 80
11, 132363, Note_on_c, 11, 57, 0
11, 132363, Note_on_c, 11, 59, 80
11, 132483, Note_on_c, 11, 59, 0
11, 132483, Note_on_c, 11, 60, 68
11, 132603, Note_on_c, 11, 60, 0
11, 136322, Program_c, 11, 48
11, 136323, Control_c, 11, 11, 57
11, 136323, Note_on_c, 11, 64, 100
11, 136323, Note_on_c, 11, 60, 100
11, 136368, Note_on_c, 11, 60, 0
11, 136368, Note_on_c, 11, 64, 0
11, 136383, Note_on_c, 11, 60, 100
11, 136383, Note_on_c, 11, 64, 100
11, 136428, Note_on_c, 11, 64, 0
11, 136428, Note_on_c, 11, 60, 0
11, 136443, Note_on_c, 11, 60, 100
11, 136443, Note_on_c, 11, 64, 100
11, 136451, Control_c, 11, 11, 58
11, 136488, Note_on_c, 11, 64, 0
11, 136488, Note_on_c, 11, 60, 0
11, 136503, Note_on_c, 11, 60, 100
11, 136503, Note_on_c, 11, 64, 100
11, 136548, Note_on_c, 11, 64, 0
11, 136548, Note_on_c, 11, 60, 0
11, 136563, Note_on_c, 11, 60, 100
11, 136563, Note_on_c, 11, 64, 100
11, 136579, Control_c, 11, 11, 59
11, 136608, Note_on_c, 11, 64, 0
11, 136608, Note_on_c, 11, 60, 0
11, 136623, Note_on_c, 11, 60, 100
11, 136623, Note_on_c, 11, 64, 100
11, 136668, Note_on_c, 11, 64, 0
11, 136668, Note_on_c, 11, 60, 0
11, 136683, Note_on_c, 11, 64, 100
11, 136683, Note_on_c, 11, 60, 100
11, 136707, Control_c, 11, 11, 60
11, 136728, Note_on_c, 11, 60, 0
11, 136728, Note_on_c, 11, 64, 0
11, 136743, Note_on_c, 11, 60, 100
11, 136743, Note_on_c, 11, 64, 100
11, 136788, Note_on_c, 11, 64, 0
11, 136788, Note_on_c, 11, 60, 0
11, 136803, Note_on_c, 11, 64, 100
11, 136803, Note_on_c, 11, 60, 100
11, 136835, Control_c, 11, 11, 61
11, 136848, Note_on_c, 11, 60, 0
11, 136848, Note_on_c, 11, 64, 0
11, 136863, Note_on_c, 11, 60, 100
11, 136863, Note_on_c, 11, 64, 100
11, 136908, Note_on_c, 11, 64, 0
11, 136908, Note_on_c, 11, 60, 0
11, 136923, Note_on_c, 11, 60, 100
11, 136923, Note_on_c, 11, 64, 100
11, 136963, Control_c, 11, 11, 62
11, 136968, Note_on_c, 11, 64, 0
11, 136968, Note_on_c, 11, 60, 0
11, 136983, Note_on_c, 11, 64, 100
11, 136983, Note_on_c, 11, 60, 100
11, 137028, Note_on_c, 11, 60, 0
11, 137028, Note_on_c, 11, 64, 0
11, 137043, Note_on_c, 11, 60, 100
11, 137043, Note_on_c, 11, 64, 100
11, 137088, Note_on_c, 11, 64, 0
11, 137088, Note_on_c, 11, 60, 0
11, 137091, Control_c, 11, 11, 63
11, 137103, Note_on_c, 11, 64, 100
11, 137103, Note_on_c, 11, 60, 100
11, 137148, Note_on_c, 11, 60, 0
11, 137148, Note_on_c, 11, 64, 0
11, 137163, Note_on_c, 11, 64, 100
11, 137163, Note_on_c, 11, 60, 100
11, 137208, Note_on_c, 11, 60, 0
11, 137208, Note_on_c, 11, 64, 0
11, 137219, Control_c, 11, 11, 64
11, 137223, Note_on_c, 11, 64, 100
11, 137223, Note_on_c, 11, 60, 100
11, 137268, Note_on_c, 11, 60, 0
11, 137268, Note_on_c, 11, 64, 0
11, 137283, Note_on_c, 11, 60, 100
11, 137283, Note_on_c, 11, 64, 100
11, 137328, Note_on_c, 11, 64, 0
11, 137328, Note_on_c, 11, 60, 0
11, 137343, Note_on_c, 11, 64, 100
11, 137343, Note_on_c, 11, 60, 100
11, 137347, Control_c, 11, 11, 65
11, 137388, Note_on_c, 11, 60, 0
11, 137388, Note_on_c, 11, 64, 0
11, 137403, Note_on_c, 11, 60, 100
11, 137403, Note_on_c, 11, 64, 100
11, 137448, Note_on_c, 11, 64, 0
11, 137448, Note_on_c, 11, 60, 0
11, 137463, Note_on_c, 11, 60, 100
11, 137463, Note_on_c, 11, 64, 100
11, 137475, Control_c, 11, 11, 66
11, 137508, Note_on_c, 11, 64, 0
11, 137508, Note_on_c, 11, 60, 0
11, 137523, Note_on_c, 11, 60, 100
11, 137523, Note_on_c, 11, 64, 100
11, 137568, Note_on_c, 11, 64, 0
11, 137568, Note_on_c, 11, 60, 0
11, 137583, Note_on_c, 11, 60, 100
11, 137583, Note_on_c, 11, 64, 100
11, 137603, Control_c, 11, 11, 67
11, 137628, Note_on_c, 11, 64, 0
11, 137628, Note_on_c, 11, 60, 0
11, 137643, Note_on_c, 11, 60, 100
11, 137643, Note_on_c, 11, 64, 100
11, 137688, Note_on_c, 11, 64, 0
11, 137688, Note_on_c, 11, 60, 0
11, 137703, Note_on_c, 11, 64, 100
11, 137703, Note_on_c, 11, 60, 100
11, 137731, Control_c, 11, 11, 68
11, 137748, Note_on_c, 11, 60, 0
11, 137748, Note_on_c, 11, 64, 0
11, 137763, Note_on_c, 11, 64, 100
11, 137763, Note_on_c, 11, 60, 100
11, 137808, Note_on_c, 11, 60, 0
11, 137808, Note_on_c, 11, 64, 0
11, 137823, Note_on_c, 11, 60, 100
11, 137823, Note_on_c, 11, 64, 100
11, 137859, Control_c, 11, 11, 69
11, 137868, Note_on_c, 11, 64, 0
11, 137868, Note_on_c, 11, 60, 0
11, 137883, Note_on_c, 11, 64, 100
11, 137883, Note_on_c, 11, 60, 100
11, 137928, Note_on_c, 11, 60, 0
11, 137928, Note_on_c, 11, 64, 0
11, 137943, Note_on_c, 11, 60, 100
11, 137943, Note_on_c, 11, 64, 100
11, 137987, Control_c, 11, 11, 70
11, 137988, Note_on_c, 11, 64, 0
11, 137988, Note_on_c, 11, 60, 0
11, 138003, Note_on_c, 11, 64, 100
11, 138003, Note_on_c, 11, 60, 100
11, 138048, Note_on_c, 11, 60, 0
11, 138048, Note_on_c, 11, 64, 0
11, 138063, Note_on_c, 11, 64, 100
11, 138063, Note_on_c, 11, 60, 100
11, 138108, Note_on_c, 11, 60, 0
11, 138108, Note_on_c, 11, 64, 0
11, 138115, Control_c, 11, 11, 71
11, 138123, Note_on_c, 11, 60, 100
11, 138123, Note_on_c, 11, 64, 100
11, 138168, Note_on_c, 11, 64, 0
11, 138168, Note_on_c, 11, 60, 0
11, 138183, Note_on_c, 11, 64, 100
11, 138183, Note_on_c, 11, 60, 100
11, 138228, Note_on_c, 11, 60, 0
11, 138228, Note_on_c, 11, 64, 0
11, 138243, Control_c, 11, 11, 72
11, 138243, Note_on_c, 11, 62, 100
11, 138243, Note_on_c, 11, 65, 100
11, 138288, Note_on_c, 11, 65, 0
11, 138288, Note_on_c, 11, 62, 0
11, 138303, Note_on_c, 11, 62, 100
11, 138303, Note_on_c, 11, 65, 100
11, 138348, Note_on_c, 11, 65, 0
11, 138348, Note_on_c, 11, 62, 0
11, 138363, Note_on_c, 11, 62, 100
11, 138363, Note_on_c, 11, 65, 100
11, 138371, Control_c, 11, 11, 73
11, 138408, Note_on_c, 11, 65, 0
11, 138408, Note_on_c, 11, 62, 0
11, 138423, Note_on_c, 11, 65, 100
11, 138423, Note_on_c, 11, 62, 100
11, 138468, Note_on_c, 11, 62, 0
11, 138468, Note_on_c, 11, 65, 0
11, 138483, Note_on_c, 11, 65, 100
11, 138483, Note_on_c, 11, 62, 100
11, 138499, Control_c, 11, 11, 74
11, 138528, Note_on_c, 11, 62, 0
11, 138528, Note_on_c, 11, 65, 0
11, 138543, Note_on_c, 11, 62, 100
11, 138543, Note_on_c, 11, 65, 100
11, 138588, Note_on_c, 11, 65, 0
11, 138588, Note_on_c, 11, 62, 0
11, 138603, Note_on_c, 11, 65, 100
11, 138603, Note_on_c, 11, 62, 100
11, 138627, Control_c, 11, 11, 75
11, 138648, Note_on_c, 11, 62, 0
11, 138648, Note_on_c, 11, 65, 0
11, 138663, Note_on_c, 11, 65, 100
11, 138663, Note_on_c, 11, 62, 100
11, 138708, Note_on_c, 11, 62, 0
11, 138708, Note_on_c, 11, 65, 0
11, 138723, Note_on_c, 11, 62, 100
11, 138723, Note_on_c, 11, 65, 100
11, 138755, Control_c, 11, 11, 76
11, 138768, Note_on_c, 11, 65, 0
11, 138768, Note_on_c, 11, 62, 0
11, 138783, Note_on_c, 11, 65, 100
11, 138783, Note_on_c, 11, 62, 100
11, 138828, Note_on_c, 11, 62, 0
11, 138828, Note_on_c, 11, 65, 0
11, 138843, Note_on_c, 11, 65, 100
11, 138843, Note_on_c, 11, 62, 100
11, 138883, Control_c, 11, 11, 77
11, 138888, Note_on_c, 11, 62, 0
11, 138888, Note_on_c, 11, 65, 0
11, 138903, Note_on_c, 11, 65, 100
11, 138903, Note_on_c, 11, 62, 100
11, 138948, Note_on_c, 11, 62, 0
11, 138948, Note_on_c, 11, 65, 0
11, 138963, Note_on_c, 11, 65, 100
11, 138963, Note_on_c, 11, 62, 100
11, 139008, Note_on_c, 11, 62, 0
11, 139008, Note_on_c, 11, 65, 0
11, 139011, Control_c, 11, 11, 78
11, 139023, Note_on_c, 11, 65, 100
11, 139023, Note_on_c, 11, 62, 100
11, 139068, Note_on_c, 11, 62, 0
11, 139068, Note_on_c, 11, 65, 0
11, 139083, Note_on_c, 11, 62, 100
11, 139083, Note_on_c, 11, 65, 100
11, 139128, Note_on_c, 11, 65, 0
11, 139128, Note_on_c, 11, 62, 0
11, 139139, Control_c, 11, 11, 79
11, 139143, Note_on_c, 11, 62, 100
11, 139143, Note_on_c, 11, 65, 100
11, 139188, Note_on_c, 11, 65, 0
11, 139188, Note_on_c, 11, 62, 0
11, 139203, Note_on_c, 11, 65, 100
11, 139203, Note_on_c, 11, 62, 100
11, 139248, Note_on_c, 11, 62, 0
11, 139248, Note_on_c, 11, 65, 0
11, 139263, Note_on_c, 11, 65, 100
11, 139263, Note_on_c, 11, 62, 100
11, 139267, Control_c, 11, 11, 80
11, 139308, Note_on_c, 11, 62, 0
11, 139308, Note_on_c, 11, 65, 0
11, 139323, Note_on_c, 11, 62, 100
11, 139323, Note_on_c, 11, 65, 100
11, 139368, Note_on_c, 11, 65, 0
11, 139368, Note_on_c, 11, 62, 0
11, 139383, Note_on_c, 11, 65, 100
11, 139383, Note_on_c, 11, 62, 100
11, 139395, Control_c, 11, 11, 81
11, 139428, Note_on_c, 11, 62, 0
11, 139428, Note_on_c, 11, 65, 0
11, 139443, Note_on_c, 11, 62, 100
11, 139443, Note_on_c, 11, 65, 100
11, 139488, Note_on_c, 11, 65, 0
11, 139488, Note_on_c, 11, 62, 0
11, 139503, Note_on_c, 11, 65, 100
11, 139503, Note_on_c, 11, 62, 100
11, 139523, Control_c, 11, 11, 82
11, 139548, Note_on_c, 11, 62, 0
11, 139548, Note_on_c, 11, 65, 0
11, 139563, Note_on_c, 11, 62, 100
11, 139563, Note_on_c, 11, 65, 100
11, 139608, Note_on_c, 11, 65, 0
11, 139608, Note_on_c, 11, 62, 0
11, 139623, Note_on_c, 11, 62, 100
11, 139623, Note_on_c, 11, 65, 100
11, 139651, Control_c, 11, 11, 83
11, 139668, Note_on_c, 11, 65, 0
11, 139668, Note_on_c, 11, 62, 0
11, 139683, Note_on_c, 11, 65, 100
11, 139683, Note_on_c, 11, 62, 100
11, 139728, Note_on_c, 11, 62, 0
11, 139728, Note_on_c, 11, 65, 0
11, 139743, Note_on_c, 11, 62, 100
11, 139743, Note_on_c, 11, 65, 100
11, 139779, Control_c, 11, 11, 84
11, 139788, Note_on_c, 11, 65, 0
11, 139788, Note_on_c, 11, 62, 0
11, 139803, Note_on_c, 11, 62, 100
11, 139803, Note_on_c, 11, 65, 100
11, 139848, Note_on_c, 11, 65, 0
11, 139848, Note_on_c, 11, 62, 0
11, 139863, Note_on_c, 11, 65, 100
11, 139863, Note_on_c, 11, 62, 100
11, 139907, Control_c, 11, 11, 85
11, 139908, Note_on_c, 11, 62, 0
11, 139908, Note_on_c, 11, 65, 0
11, 139923, Note_on_c, 11, 62, 100
11, 139923, Note_on_c, 11, 65, 100
11, 139968, Note_on_c, 11, 65, 0
11, 139968, Note_on_c, 11, 62, 0
11, 139983, Note_on_c, 11, 62, 100
11, 139983, Note_on_c, 11, 65, 100
11, 140028, Note_on_c, 11, 65, 0
11, 140028, Note_on_c, 11, 62, 0
11, 140035, Control_c, 11, 11, 86
11, 140043, Note_on_c, 11, 62, 100
11, 140043, Note_on_c, 11, 65, 100
11, 140088, Note_on_c, 11, 65, 0
11, 140088, Note_on_c, 11, 62, 0
11, 140103, Note_on_c, 11, 65, 100
11, 140103, Note_on_c, 11, 62, 100
11, 140148, Note_on_c, 11, 62, 0
11, 140148, Note_on_c, 11, 65, 0
11, 140163, Control_c, 11, 11, 87
11, 140163, Note_on_c, 11, 64, 100
11, 140204, Note_on_c, 11, 64, 0
11, 140223, Note_on_c, 11, 76, 100
11, 140223, Note_on_c, 11, 72, 100
11, 140264, Note_on_c, 11, 72, 0
11, 140264, Note_on_c, 11, 76, 0
11, 140283, Note_on_c, 11, 72, 107
11, 140283, Note_on_c, 11, 76, 107
11, 140324, Note_on_c, 11, 76, 0
11, 140324, Note_on_c, 11, 72, 0
11, 140343, Note_on_c, 11, 72, 100
11, 140343, Note_on_c, 11, 76, 100
11, 140384, Note_on_c, 11, 76, 0
11, 140384, Note_on_c, 11, 72, 0
11, 140403, Note_on_c, 11, 76, 107
11, 140403, Note_on_c, 11, 72, 107
11, 140444, Note_on_c, 11, 72, 0
11, 140444, Note_on_c, 11, 76, 0
11, 140463, Note_on_c, 11, 72, 100
11, 140463, Note_on_c, 11, 76, 100
11, 140504, Note_on_c, 11, 76, 0
11, 140504, Note_on_c, 11, 72, 0
11, 140523, Note_on_c, 11, 76, 107
11, 140523, Note_on_c, 11, 72, 107
11, 140564, Note_on_c, 11, 72, 0
11, 140564, Note_on_c, 11, 76, 0
11, 140583, Note_on_c, 11, 72, 100
11, 140583, Note_on_c, 11, 76, 100
11, 140624, Note_on_c, 11, 76, 0
11, 140624, Note_on_c, 11, 72, 0
11, 140643, Note_on_c, 11, 72, 107
11, 140643, Note_on_c, 11, 76, 107
11, 140684, Note_on_c, 11, 76, 0
11, 140684, Note_on_c, 11, 72, 0
11, 140703, Note_on_c, 11, 72, 100
11, 140703, Note_on_c, 11, 76, 100
11, 140744, Note_on_c, 11, 76, 0
11, 140744, Note_on_c, 11, 72, 0
11, 140763, Note_on_c, 11, 76, 107
11, 140763, Note_on_c, 11, 72, 107
11, 140804, Note_on_c, 11, 72, 0
11, 140804, Note_on_c, 11, 76, 0
11, 140823, Note_on_c, 11, 72, 100
11, 140823, Note_on_c, 11, 76, 100
11, 140864, Note_on_c, 11, 76, 0
11, 140864, Note_on_c, 11, 72, 0
11, 140883, Note_on_c, 11, 76, 107
11, 140883, Note_on_c, 11, 72, 107
11, 140924, Note_on_c, 11, 72, 0
11, 140924, Note_on_c, 11, 76, 0
11, 140943, Note_on_c, 11, 72, 100
11, 140943, Note_on_c, 11, 76, 100
11, 140984, Note_on_c, 11, 76, 0
11, 140984, Note_on_c, 11, 72, 0
11, 141003, Note_on_c, 11, 72, 107
11, 141003, Note_on_c, 11, 76, 107
11, 141044, Note_on_c, 11, 76, 0
11, 141044, Note_on_c, 11, 72, 0
11, 141063, Note_on_c, 11, 72, 100
11, 141063, Note_on_c, 11, 76, 100
11, 141104, Note_on_c, 11, 76, 0
11, 141104, Note_on_c, 11, 72, 0
11, 141123, Note_on_c, 11, 76, 107
11, 141123, Note_on_c, 11, 72, 107
11, 141164, Note_on_c, 11, 72, 0
11, 141164, Note_on_c, 11, 76, 0
11, 141183, Note_on_c, 11, 72, 100
11, 141183, Note_on_c, 11, 76, 100
11, 141224, Note_on_c, 11, 76, 0
11, 141224, Note_on_c, 11, 72, 0
11, 141243, Note_on_c, 11, 76, 107
11, 141243, Note_on_c, 11, 72, 107
11, 141284, Note_on_c, 11, 72, 0
11, 141284, Note_on_c, 11, 76, 0
11, 141303, Note_on_c, 11, 72, 100
11, 141303, Note_on_c, 11, 76, 100
11, 141344, Note_on_c, 11, 76, 0
11, 141344, Note_on_c, 11, 72, 0
11, 141363, Note_on_c, 11, 72, 107
11, 141363, Note_on_c, 11, 76, 107
11, 141404, Note_on_c, 11, 76, 0
11, 141404, Note_on_c, 11, 72, 0
11, 141423, Note_on_c, 11, 76, 100
11, 141423, Note_on_c, 11, 72, 100
11, 141464, Note_on_c, 11, 72, 0
11, 141464, Note_on_c, 11, 76, 0
11, 141483, Note_on_c, 11, 76, 107
11, 141483, Note_on_c, 11, 72, 107
11, 141524, Note_on_c, 11, 72, 0
11, 141524, Note_on_c, 11, 76, 0
11, 141543, Note_on_c, 11, 72, 100
11, 141543, Note_on_c, 11, 76, 100
11, 141584, Note_on_c, 11, 76, 0
11, 141584, Note_on_c, 11, 72, 0
11, 141603, Note_on_c, 11, 72, 107
11, 141603, Note_on_c, 11, 76, 107
11, 141644, Note_on_c, 11, 76, 0
11, 141644, Note_on_c, 11, 72, 0
11, 141663, Note_on_c, 11, 76, 100
11, 141663, Note_on_c, 11, 72, 100
11, 141704, Note_on_c, 11, 72, 0
11, 141704, Note_on_c, 11, 76, 0
11, 141723, Note_on_c, 11, 72, 107
11, 141723, Note_on_c, 11, 76, 107
11, 141764, Note_on_c, 11, 76, 0
11, 141764, Note_on_c, 11, 72, 0
11, 141783, Note_on_c, 11, 72, 100
11, 141783, Note_on_c, 11, 76, 100
11, 141824, Note_on_c, 11, 76, 0
11, 141824, Note_on_c, 11, 72, 0
11, 141843, Note_on_c, 11, 72, 107
11, 141843, Note_on_c, 11, 76, 107
11, 141884, Note_on_c, 11, 76, 0
11, 141884, Note_on_c, 11, 72, 0
11, 141903, Note_on_c, 11, 76, 100
11, 141903, Note_on_c, 11, 72, 100
11, 141944, Note_on_c, 11, 72, 0
11, 141944, Note_on_c, 11, 76, 0
11, 141963, Note_on_c, 11, 72, 107
11, 141963, Note_on_c, 11, 76, 107
11, 142004, Note_on_c, 11, 76, 0
11, 142004, Note_on_c, 11, 72, 0
11, 142023, Note_on_c, 11, 72, 100
11, 142023, Note_on_c, 11, 76, 100
11, 142064, Note_on_c, 11, 76, 0
11, 142064, Note_on_c, 11, 72, 0
11, 142083, Control_c, 11, 11, 87
11, 142083, Note_on_c, 11, 74, 107
11, 142083, Note_on_c, 11, 77, 107
11, 142124, Note_on_c, 11, 77, 0
11, 142124, Note_on_c, 11, 74, 0
11, 142143, Note_on_c, 11, 74, 100
11, 142143, Note_on_c, 11, 77, 100
11, 142179, Control_c, 11, 11, 88
11, 142184, Note_on_c, 11, 77, 0
11, 142184, Note_on_c, 11, 74, 0
11, 142203, Note_on_c, 11, 77, 107
11, 142203, Note_on_c, 11, 74, 107
11, 142244, Note_on_c, 11, 74, 0
11, 142244, Note_on_c, 11, 77, 0
11, 142263, Note_on_c, 11, 74, 100
11, 142263, Note_on_c, 11, 77, 100
11, 142275, Control_c, 11, 11, 89
11, 142304, Note_on_c, 11, 77, 0
11, 142304, Note_on_c, 11, 74, 0
11, 142323, Note_on_c, 11, 74, 107
11, 142323, Note_on_c, 11, 77, 107
11, 142364, Note_on_c, 11, 77, 0
11, 142364, Note_on_c, 11, 74, 0
11, 142371, Control_c, 11, 11, 90
11, 142383, Note_on_c, 11, 77, 100
11, 142383, Note_on_c, 11, 74, 100
11, 142424, Note_on_c, 11, 74, 0
11, 142424, Note_on_c, 11, 77, 0
11, 142443, Note_on_c, 11, 77, 107
11, 142443, Note_on_c, 11, 74, 107
11, 142467, Control_c, 11, 11, 91
11, 142484, Note_on_c, 11, 74, 0
11, 142484, Note_on_c, 11, 77, 0
11, 142503, Note_on_c, 11, 77, 100
11, 142503, Note_on_c, 11, 74, 100
11, 142544, Note_on_c, 11, 74, 0
11, 142544, Note_on_c, 11, 77, 0
11, 142563, Control_c, 11, 11, 92
11, 142563, Note_on_c, 11, 74, 107
11, 142563, Note_on_c, 11, 77, 107
11, 142604, Note_on_c, 11, 77, 0
11, 142604, Note_on_c, 11, 74, 0
11, 142623, Note_on_c, 11, 77, 100
11, 142623, Note_on_c, 11, 74, 100
11, 142659, Control_c, 11, 11, 93
11, 142664, Note_on_c, 11, 74, 0
11, 142664, Note_on_c, 11, 77, 0
11, 142683, Note_on_c, 11, 74, 107
11, 142683, Note_on_c, 11, 77, 107
11, 142724, Note_on_c, 11, 77, 0
11, 142724, Note_on_c, 11, 74, 0
11, 142743, Note_on_c, 11, 77, 100
11, 142743, Note_on_c, 11, 74, 100
11, 142755, Control_c, 11, 11, 94
11, 142784, Note_on_c, 11, 74, 0
11, 142784, Note_on_c, 11, 77, 0
11, 142803, Note_on_c, 11, 74, 107
11, 142803, Note_on_c, 11, 77, 107
11, 142844, Note_on_c, 11, 77, 0
11, 142844, Note_on_c, 11, 74, 0
11, 142851, Control_c, 11, 11, 95
11, 142863, Note_on_c, 11, 74, 100
11, 142863, Note_on_c, 11, 77, 100
11, 142904, Note_on_c, 11, 77, 0
11, 142904, Note_on_c, 11, 74, 0
11, 142923, Note_on_c, 11, 74, 107
11, 142923, Note_on_c, 11, 77, 107
11, 142947, Control_c, 11, 11, 96
11, 142964, Note_on_c, 11, 77, 0
11, 142964, Note_on_c, 11, 74, 0
11, 142983, Note_on_c, 11, 74, 100
11, 142983, Note_on_c, 11, 77, 100
11, 143024, Note_on_c, 11, 77, 0
11, 143024, Note_on_c, 11, 74, 0
11, 143043, Control_c, 11, 11, 97
11, 143043, Note_on_c, 11, 74, 107
11, 143043, Note_on_c, 11, 77, 107
11, 143084, Note_on_c, 11, 77, 0
11, 143084, Note_on_c, 11, 74, 0
11, 143103, Note_on_c, 11, 74, 100
11, 143103, Note_on_c, 11, 77, 100
11, 143139, Control_c, 11, 11, 98
11, 143144, Note_on_c, 11, 77, 0
11, 143144, Note_on_c, 11, 74, 0
11, 143163, Note_on_c, 11, 74, 107
11, 143163, Note_on_c, 11, 77, 107
11, 143204, Note_on_c, 11, 77, 0
11, 143204, Note_on_c, 11, 74, 0
11, 143223, Note_on_c, 11, 74, 100
11, 143223, Note_on_c, 11, 77, 100
11, 143235, Control_c, 11, 11, 99
11, 143264, Note_on_c, 11, 77, 0
11, 143264, Note_on_c, 11, 74, 0
11, 143283, Note_on_c, 11, 74, 107
11, 143283, Note_on_c, 11, 77, 107
11, 143324, Note_on_c, 11, 77, 0
11, 143324, Note_on_c, 11, 74, 0
11, 143331, Control_c, 11, 11, 100
11, 143343, Note_on_c, 11, 77, 100
11, 143343, Note_on_c, 11, 74, 100
11, 143384, Note_on_c, 11, 74, 0
11, 143384, Note_on_c, 11, 77, 0
11, 143403, Note_on_c, 11, 74, 107
11, 143403, Note_on_c, 11, 77, 107
11, 143427, Control_c, 11, 11, 101
11, 143444, Note_on_c, 11, 77, 0
11, 143444, Note_on_c, 11, 74, 0
11, 143463, Note_on_c, 11, 74, 100
11, 143463, Note_on_c, 11, 77, 100
11, 143504, Note_on_c, 11, 77, 0
11, 143504, Note_on_c, 11, 74, 0
11, 143523, Control_c, 11, 11, 102
11, 143523, Note_on_c, 11, 77, 107
11, 143523, Note_on_c, 11, 74, 107
11, 143564, Note_on_c, 11, 74, 0
11, 143564, Note_on_c, 11, 77, 0
11, 143583, Note_on_c, 11, 77, 100
11, 143583, Note_on_c, 11, 74, 100
11, 143619, Control_c, 11, 11, 103
11, 143624, Note_on_c, 11, 74, 0
11, 143624, Note_on_c, 11, 77, 0
11, 143643, Note_on_c, 11, 77, 107
11, 143643, Note_on_c, 11, 74, 107
11, 143684, Note_on_c, 11, 74, 0
11, 143684, Note_on_c, 11, 77, 0
11, 143703, Note_on_c, 11, 77, 100
11, 143703, Note_on_c, 11, 74, 100
11, 143715, Control_c, 11, 11, 104
11, 143744, Note_on_c, 11, 74, 0
11, 143744, Note_on_c, 11, 77, 0
11, 143763, Note_on_c, 11, 77, 107
11, 143763, Note_on_c, 11, 74, 107
11, 143804, Note_on_c, 11, 74, 0
11, 143804, Note_on_c, 11, 77, 0
11, 143811, Control_c, 11, 11, 105
11, 143823, Note_on_c, 11, 74, 100
11, 143823, Note_on_c, 11, 77, 100
11, 143864, Note_on_c, 11, 77, 0
11, 143864, Note_on_c, 11, 74, 0
11, 143883, Note_on_c, 11, 77, 107
11, 143883, Note_on_c, 11, 74, 107
11, 143907, Control_c, 11, 11, 106
11, 143924, Note_on_c, 11, 74, 0
11, 143924, Note_on_c, 11, 77, 0
11, 143943, Note_on_c, 11, 77, 100
11, 143943, Note_on_c, 11, 74, 100
11, 143984, Note_on_c, 11, 74, 0
11, 143984, Note_on_c, 11, 77, 0
11, 144003, Control_c, 11, 11, 125
11, 144003, Note_on_c, 11, 76, 107
11, 144003, Note_on_c, 11, 72, 107
11, 144026, Control_c, 11, 11, 122
11, 144050, Control_c, 11, 11, 118
11, 144074, Control_c, 11, 11, 115
11, 144098, Control_c, 11, 11, 111
11, 144122, Control_c, 11, 11, 107
11, 144305, Note_on_c, 11, 72, 0
11, 144305, Note_on_c, 11, 76, 0
11, 144363, Note_on_c, 11, 72, 117
11, 144363, Note_on_c, 11, 77, 117
11, 144449, Note_on_c, 11, 77, 0
11, 144449, Note_on_c, 11, 72, 0
11, 144483, Control_c, 11, 11, 125
11, 144483, Note_on_c, 11, 72, 107
11, 144483, Note_on_c, 11, 77, 107
11, 144506, Control_c, 11, 11, 122
11, 144530, Control_c, 11, 11, 118
11, 144554, Control_c, 11, 11, 115
11, 144578, Control_c, 11, 11, 111
11, 144602, Control_c, 11, 11, 107
11, 144785, Note_on_c, 11, 77, 0
11, 144785, Note_on_c, 11, 72, 0
11, 144843, Note_on_c, 11, 72, 117
11, 144843, Note_on_c, 11, 76, 117
11, 144929, Note_on_c, 11, 76, 0
11, 144929, Note_on_c, 11, 72, 0
11, 144963, Control_c, 11, 11, 125
11, 144963, Note_on_c, 11, 72, 107
11, 144963, Note_on_c, 11, 76, 107
11, 144986, Control_c, 11, 11, 122
11, 145010, Control_c, 11, 11, 118
11, 145034, Control_c, 11, 11, 115
11, 145058, Control_c, 11, 11, 111
11, 145082, Control_c, 11, 11, 107
11, 145265, Note_on_c, 11, 76, 0
11, 145265, Note_on_c, 11, 72, 0
11, 145323, Note_on_c, 11, 72, 117
11, 145323, Note_on_c, 11, 81, 117
11, 145409, Note_on_c, 11, 81, 0
11, 145409, Note_on_c, 11, 72, 0
11, 145443, Control_c, 11, 11, 125
11, 145443, Note_on_c, 11, 72, 107
11, 145443, Note_on_c, 11, 81, 107
11, 145466, Control_c, 11, 11, 122
11, 145490, Control_c, 11, 11, 118
11, 145514, Control_c, 11, 11, 115
11, 145538, Control_c, 11, 11, 111
11, 145562, Control_c, 11, 11, 107
11, 145745, Note_on_c, 11, 81, 0
11, 145745, Note_on_c, 11, 72, 0
11, 145803, Note_on_c, 11, 79, 117
11, 145803, Note_on_c, 11, 72, 117
11, 145889, Note_on_c, 11, 72, 0
11, 145889, Note_on_c, 11, 79, 0
11, 145923, Note_on_c, 11, 79, 114
11, 145923, Note_on_c, 11, 72, 114
11, 145983, Note_on_c, 11, 72, 0
11, 145983, Note_on_c, 11, 79, 0
11, 146043, Note_on_c, 11, 77, 107
11, 146043, Note_on_c, 11, 72, 107
11, 146103, Note_on_c, 11, 72, 0
11, 146103, Note_on_c, 11, 77, 0
11, 146163, Note_on_c, 11, 77, 114
11, 146163, Note_on_c, 11, 72, 114
11, 146223, Note_on_c, 11, 72, 0
11, 146223, Note_on_c, 11, 77, 0
11, 146283, Note_on_c, 11, 72, 107
11, 146283, Note_on_c, 11, 76, 107
11, 146343, Note_on_c, 11, 76, 0
11, 146343, Note_on_c, 11, 72, 0
11, 146403, Note_on_c, 11, 76, 114
11, 146403, Note_on_c, 11, 72, 114
11, 146463, Note_on_c, 11, 72, 0
11, 146463, Note_on_c, 11, 76, 0
11, 146523, Note_on_c, 11, 81, 107
11, 146583, Note_on_c, 11, 81, 0
11, 146643, Note_on_c, 11, 81, 114
11, 146703, Note_on_c, 11, 81, 0
11, 146763, Note_on_c, 11, 80, 107
11, 146823, Note_on_c, 11, 80, 0
11, 146883, Note_on_c, 11, 80, 114
11, 146943, Note_on_c, 11, 80, 0
11, 147003, Note_on_c, 11, 81, 107
11, 147063, Note_on_c, 11, 81, 0
11, 147123, Note_on_c, 11, 69, 114
11, 147183, Note_on_c, 11, 69, 0
11, 147243, Note_on_c, 11, 71, 107
11, 147303, Note_on_c, 11, 71, 0
11, 147363, Note_on_c, 11, 71, 114
11, 147423, Note_on_c, 11, 71, 0
11, 147483, Note_on_c, 11, 72, 107
11, 147543, Note_on_c, 11, 72, 0
11, 147603, Note_on_c, 11, 72, 114
11, 147663, Note_on_c, 11, 72, 0
11, 147723, Note_on_c, 11, 74, 107
11, 147783, Note_on_c, 11, 74, 0
11, 147843, Control_c, 11, 11, 122
11, 147843, Note_on_c, 11, 72, 117
11, 147866, Control_c, 11, 11, 120
11, 147890, Control_c, 11, 11, 118
11, 147897, Note_on_c, 11, 72, 0
11, 147903, Note_on_c, 11, 84, 117
11, 147914, Control_c, 11, 11, 116
11, 147938, Control_c, 11, 11, 114
11, 147948, Note_on_c, 11, 84, 0
11, 147962, Control_c, 11, 11, 112
11, 147963, Note_on_c, 11, 84, 117
11, 147986, Control_c, 11, 11, 110
11, 148008, Note_on_c, 11, 84, 0
11, 148010, Control_c, 11, 11, 108
11, 148023, Note_on_c, 11, 84, 117
11, 148034, Control_c, 11, 11, 106
11, 148058, Control_c, 11, 11, 104
11, 148068, Note_on_c, 11, 84, 0
11, 148082, Control_c, 11, 11, 102
11, 148083, Note_on_c, 11, 84, 117
11, 148128, Note_on_c, 11, 84, 0
11, 148143, Note_on_c, 11, 84, 117
11, 148188, Note_on_c, 11, 84, 0
11, 148203, Note_on_c, 11, 84, 117
11, 148248, Note_on_c, 11, 84, 0
11, 148263, Note_on_c, 11, 84, 117
11, 148308, Note_on_c, 11, 84, 0
11, 148323, Note_on_c, 11, 84, 117
11, 148368, Note_on_c, 11, 84, 0
11, 148383, Note_on_c, 11, 84, 117
11, 148428, Note_on_c, 11, 84, 0
11, 148443, Note_on_c, 11, 84, 117
11, 148488, Note_on_c, 11, 84, 0
11, 148503, Note_on_c, 11, 84, 117
11, 148548, Note_on_c, 11, 84, 0
11, 148563, Note_on_c, 11, 84, 117
11, 148608, Note_on_c, 11, 84, 0
11, 148623, Note_on_c, 11, 84, 117
11, 148668, Note_on_c, 11, 84, 0
11, 148683, Note_on_c, 11, 84, 117
11, 148728, Note_on_c, 11, 84, 0
11, 148743, Note_on_c, 11, 84, 117
11, 148788, Note_on_c, 11, 84, 0
11, 148803, Control_c, 11, 11, 122
11, 148803, Note_on_c, 11, 72, 117
11, 148826, Control_c, 11, 11, 120
11, 148850, Control_c, 11, 11, 118
11, 148857, Note_on_c, 11, 72, 0
11, 148863, Note_on_c, 11, 84, 117
11, 148874, Control_c, 11, 11, 116
11, 148898, Control_c, 11, 11, 114
11, 148908, Note_on_c, 11, 84, 0
11, 148922, Control_c, 11, 11, 112
11, 148923, Note_on_c, 11, 84, 117
11, 148946, Control_c, 11, 11, 110
11, 148968, Note_on_c, 11, 84, 0
11, 148970, Control_c, 11, 11, 108
11, 148983, Note_on_c, 11, 84, 117
11, 148994, Control_c, 11, 11, 106
11, 149018, Control_c, 11, 11, 104
11, 149028, Note_on_c, 11, 84, 0
11, 149042, Control_c, 11, 11, 102
11, 149043, Note_on_c, 11, 84, 117
11, 149088, Note_on_c, 11, 84, 0
11, 149103, Note_on_c, 11, 84, 117
11, 149148, Note_on_c, 11, 84, 0
11, 149163, Note_on_c, 11, 84, 117
11, 149208, Note_on_c, 11, 84, 0
11, 149223, Note_on_c, 11, 84, 117
11, 149268, Note_on_c, 11, 84, 0
11, 149283, Note_on_c, 11, 84, 117
11, 149328, Note_on_c, 11, 84, 0
11, 149343, Note_on_c, 11, 84, 117
11, 149388, Note_on_c, 11, 84, 0
11, 149403, Note_on_c, 11, 84, 117
11, 149448, Note_on_c, 11, 84, 0
11, 149463, Note_on_c, 11, 84, 117
11, 149508, Note_on_c, 11, 84, 0
11, 149523, Note_on_c, 11, 84, 117
11, 149568, Note_on_c, 11, 84, 0
11, 149583, Note_on_c, 11, 84, 117
11, 149628, Note_on_c, 11, 84, 0
11, 149643, Note_on_c, 11, 84, 117
11, 149688, Note_on_c, 11, 84, 0
11, 149703, Note_on_c, 11, 84, 117
11, 149748, Note_on_c, 11, 84, 0
11, 149763, Control_c, 11, 11, 122
11, 149763, Note_on_c, 11, 72, 117
11, 149786, Control_c, 11, 11, 120
11, 149810, Control_c, 11, 11, 118
11, 149817, Note_on_c, 11, 72, 0
11, 149823, Note_on_c, 11, 84, 117
11, 149834, Control_c, 11, 11, 116
11, 149858, Control_c, 11, 11, 114
11, 149868, Note_on_c, 11, 84, 0
11, 149882, Control_c, 11, 11, 112
11, 149883, Note_on_c, 11, 84, 117
11, 149906, Control_c, 11, 11, 110
11, 149928, Note_on_c, 11, 84, 0
11, 149930, Control_c, 11, 11, 108
11, 149943, Note_on_c, 11, 84, 117
11, 149954, Control_c, 11, 11, 106
11, 149978, Control_c, 11, 11, 104
11, 149988, Note_on_c, 11, 84, 0
11, 150002, Control_c, 11, 11, 102
11, 150003, Note_on_c, 11, 84, 117
11, 150048, Note_on_c, 11, 84, 0
11, 150063, Note_on_c, 11, 84, 117
11, 150108, Note_on_c, 11, 84, 0
11, 150123, Note_on_c, 11, 84, 117
11, 150168, Note_on_c, 11, 84, 0
11, 150183, Note_on_c, 11, 84, 117
11, 150228, Note_on_c, 11, 84, 0
11, 150243, Note_on_c, 11, 84, 117
11, 150288, Note_on_c, 11, 84, 0
11, 150303, Note_on_c, 11, 84, 117
11, 150348, Note_on_c, 11, 84, 0
11, 150363, Note_on_c, 11, 84, 117
11, 150408, Note_on_c, 11, 84, 0
11, 150423, Note_on_c, 11, 84, 117
11, 150468, Note_on_c, 11, 84, 0
11, 150483, Note_on_c, 11, 84, 117
11, 150528, Note_on_c, 11, 84, 0
11, 150543, Note_on_c, 11, 84, 117
11, 150588, Note_on_c, 11, 84, 0
11, 150603, Note_on_c, 11, 84, 117
11, 150648, Note_on_c, 11, 84, 0
11, 150663, Note_on_c, 11, 84, 117
11, 150708, Note_on_c, 11, 84, 0
11, 150723, Control_c, 11, 11, 122
11, 150723, Note_on_c, 11, 72, 117
11, 150746, Control_c, 11, 11, 120
11, 150770, Control_c, 11, 11, 118
11, 150777, Note_on_c, 11, 72, 0
11, 150783, Note_on_c, 11, 84, 117
11, 150794, Control_c, 11, 11, 116
11, 150818, Control_c, 11, 11, 114
11, 150828, Note_on_c, 11, 84, 0
11, 150842, Control_c, 11, 11, 112
11, 150843, Note_on_c, 11, 84, 117
11, 150866, Control_c, 11, 11, 110
11, 150888, Note_on_c, 11, 84, 0
11, 150890, Control_c, 11, 11, 108
11, 150903, Note_on_c, 11, 84, 117
11, 150914, Control_c, 11, 11, 106
11, 150938, Control_c, 11, 11, 104
11, 150948, Note_on_c, 11, 84, 0
11, 150962, Control_c, 11, 11, 102
11, 150963, Note_on_c, 11, 84, 117
11, 151008, Note_on_c, 11, 84, 0
11, 151023, Note_on_c, 11, 84, 117
11, 151068, Note_on_c, 11, 84, 0
11, 151083, Note_on_c, 11, 84, 117
11, 151128, Note_on_c, 11, 84, 0
11, 151143, Note_on_c, 11, 84, 117
11, 151188, Note_on_c, 11, 84, 0
11, 151203, Control_c, 11, 11, 122
11, 151203, Note_on_c, 11, 74, 117
11, 151226, Control_c, 11, 11, 120
11, 151250, Control_c, 11, 11, 118
11, 151257, Note_on_c, 11, 74, 0
11, 151263, Note_on_c, 11, 86, 117
11, 151274, Control_c, 11, 11, 116
11, 151298, Control_c, 11, 11, 114
11, 151308, Note_on_c, 11, 86, 0
11, 151322, Control_c, 11, 11, 112
11, 151323, Note_on_c, 11, 86, 117
11, 151346, Control_c, 11, 11, 110
11, 151368, Note_on_c, 11, 86, 0
11, 151370, Control_c, 11, 11, 108
11, 151383, Note_on_c, 11, 86, 117
11, 151394, Control_c, 11, 11, 106
11, 151418, Control_c, 11, 11, 104
11, 151428, Note_on_c, 11, 86, 0
11, 151442, Control_c, 11, 11, 102
11, 151443, Note_on_c, 11, 86, 117
11, 151488, Note_on_c, 11, 86, 0
11, 151503, Note_on_c, 11, 86, 117
11, 151548, Note_on_c, 11, 86, 0
11, 151563, Note_on_c, 11, 86, 117
11, 151608, Note_on_c, 11, 86, 0
11, 151623, Note_on_c, 11, 86, 117
11, 151668, Note_on_c, 11, 86, 0
11, 151683, Control_c, 11, 11, 122
11, 151683, Note_on_c, 11, 72, 117
11, 151706, Control_c, 11, 11, 120
11, 151730, Control_c, 11, 11, 118
11, 151737, Note_on_c, 11, 72, 0
11, 151743, Note_on_c, 11, 84, 117
11, 151754, Control_c, 11, 11, 116
11, 151778, Control_c, 11, 11, 114
11, 151788, Note_on_c, 11, 84, 0
11, 151802, Control_c, 11, 11, 112
11, 151803, Note_on_c, 11, 84, 117
11, 151826, Control_c, 11, 11, 110
11, 151848, Note_on_c, 11, 84, 0
11, 151850, Control_c, 11, 11, 108
11, 151863, Note_on_c, 11, 84, 117
11, 151874, Control_c, 11, 11, 106
11, 151898, Control_c, 11, 11, 104
11, 151908, Note_on_c, 11, 84, 0
11, 151922, Control_c, 11, 11, 102
11, 151923, Note_on_c, 11, 84, 117
11, 151968, Note_on_c, 11, 84, 0
11, 151983, Note_on_c, 11, 84, 117
11, 152028, Note_on_c, 11, 84, 0
11, 152043, Note_on_c, 11, 84, 117
11, 152088, Note_on_c, 11, 84, 0
11, 152103, Note_on_c, 11, 84, 117
11, 152148, Note_on_c, 11, 84, 0
11, 152163, Control_c, 11, 11, 122
11, 152163, Note_on_c, 11, 72, 117
11, 152186, Control_c, 11, 11, 120
11, 152210, Control_c, 11, 11, 118
11, 152217, Note_on_c, 11, 72, 0
11, 152223, Note_on_c, 11, 84, 117
11, 152234, Control_c, 11, 11, 116
11, 152258, Control_c, 11, 11, 114
11, 152268, Note_on_c, 11, 84, 0
11, 152282, Control_c, 11, 11, 112
11, 152283, Note_on_c, 11, 84, 117
11, 152306, Control_c, 11, 11, 110
11, 152328, Note_on_c, 11, 84, 0
11, 152330, Control_c, 11, 11, 108
11, 152343, Note_on_c, 11, 84, 117
11, 152354, Control_c, 11, 11, 106
11, 152378, Control_c, 11, 11, 104
11, 152388, Note_on_c, 11, 84, 0
11, 152402, Control_c, 11, 11, 102
11, 152403, Note_on_c, 11, 84, 117
11, 152448, Note_on_c, 11, 84, 0
11, 152463, Note_on_c, 11, 84, 117
11, 152508, Note_on_c, 11, 84, 0
11, 152523, Note_on_c, 11, 84, 117
11, 152568, Note_on_c, 11, 84, 0
11, 152583, Note_on_c, 11, 84, 117
11, 152628, Note_on_c, 11, 84, 0
11, 152643, Control_c, 11, 11, 122
11, 152643, Note_on_c, 11, 71, 117
11, 152666, Control_c, 11, 11, 120
11, 152690, Control_c, 11, 11, 118
11, 152697, Note_on_c, 11, 71, 0
11, 152703, Note_on_c, 11, 83, 117
11, 152714, Control_c, 11, 11, 116
11, 152738, Control_c, 11, 11, 114
11, 152748, Note_on_c, 11, 83, 0
11, 152762, Control_c, 11, 11, 112
11, 152763, Note_on_c, 11, 83, 117
11, 152786, Control_c, 11, 11, 110
11, 152808, Note_on_c, 11, 83, 0
11, 152810, Control_c, 11, 11, 108
11, 152823, Note_on_c, 11, 83, 117
11, 152834, Control_c, 11, 11, 106
11, 152858, Control_c, 11, 11, 104
11, 152868, Note_on_c, 11, 83, 0
11, 152882, Control_c, 11, 11, 102
11, 152883, Note_on_c, 11, 83, 117
11, 152928, Note_on_c, 11, 83, 0
11, 152943, Note_on_c, 11, 83, 117
11, 152988, Note_on_c, 11, 83, 0
11, 153003, Note_on_c, 11, 83, 117
11, 153048, Note_on_c, 11, 83, 0
11, 153063, Note_on_c, 11, 83, 117
11, 153108, Note_on_c, 11, 83, 0
11, 153123, Control_c, 11, 11, 122
11, 153123, Note_on_c, 11, 72, 117
11, 153146, Control_c, 11, 11, 120
11, 153170, Control_c, 11, 11, 118
11, 153177, Note_on_c, 11, 72, 0
11, 153183, Note_on_c, 11, 84, 117
11, 153194, Control_c, 11, 11, 116
11, 153218, Control_c, 11, 11, 114
11, 153228, Note_on_c, 11, 84, 0
11, 153242, Control_c, 11, 11, 112
11, 153243, Note_on_c, 11, 84, 117
11, 153266, Control_c, 11, 11, 110
11, 153288, Note_on_c, 11, 84, 0
11, 153290, Control_c, 11, 11, 108
11, 153303, Note_on_c, 11, 84, 117
11, 153314, Control_c, 11, 11, 106
11, 153338, Control_c, 11, 11, 104
11, 153348, Note_on_c, 11, 84, 0
11, 153362, Control_c, 11, 11, 102
11, 153363, Note_on_c, 11, 84, 117
11, 153408, Note_on_c, 11, 84, 0
11, 153423, Note_on_c, 11, 84, 117
11, 153468, Note_on_c, 11, 84, 0
11, 153483, Note_on_c, 11, 84, 117
11, 153528, Note_on_c, 11, 84, 0
11, 153543, Note_on_c, 11, 84, 117
11, 153588, Note_on_c, 11, 84, 0
11, 153603, Control_c, 11, 11, 122
11, 153603, Note_on_c, 11, 72, 117
11, 153626, Control_c, 11, 11, 120
11, 153650, Control_c, 11, 11, 118
11, 153657, Note_on_c, 11, 72, 0
11, 153663, Note_on_c, 11, 84, 117
11, 153674, Control_c, 11, 11, 116
11, 153698, Control_c, 11, 11, 114
11, 153708, Note_on_c, 11, 84, 0
11, 153722, Control_c, 11, 11, 112
11, 153723, Note_on_c, 11, 84, 117
11, 153746, Control_c, 11, 11, 110
11, 153768, Note_on_c, 11, 84, 0
11, 153770, Control_c, 11, 11, 108
11, 153783, Note_on_c, 11, 84, 117
11, 153794, Control_c, 11, 11, 106
11, 153818, Control_c, 11, 11, 104
11, 153828, Note_on_c, 11, 84, 0
11, 153842, Control_c, 11, 11, 102
11, 153843, Note_on_c, 11, 84, 117
11, 153888, Note_on_c, 11, 84, 0
11, 153903, Note_on_c, 11, 84, 117
11, 153948, Note_on_c, 11, 84, 0
11, 153963, Note_on_c, 11, 84, 117
11, 154008, Note_on_c, 11, 84, 0
11, 154023, Note_on_c, 11, 84, 117
11, 154068, Note_on_c, 11, 84, 0
11, 154083, Control_c, 11, 11, 122
11, 154083, Note_on_c, 11, 71, 117
11, 154106, Control_c, 11, 11, 120
11, 154130, Control_c, 11, 11, 118
11, 154137, Note_on_c, 11, 71, 0
11, 154143, Note_on_c, 11, 83, 117
11, 154154, Control_c, 11, 11, 116
11, 154178, Control_c, 11, 11, 114
11, 154188, Note_on_c, 11, 83, 0
11, 154202, Control_c, 11, 11, 112
11, 154203, Note_on_c, 11, 83, 117
11, 154226, Control_c, 11, 11, 110
11, 154248, Note_on_c, 11, 83, 0
11, 154250, Control_c, 11, 11, 108
11, 154263, Note_on_c, 11, 83, 117
11, 154274, Control_c, 11, 11, 106
11, 154298, Control_c, 11, 11, 104
11, 154308, Note_on_c, 11, 83, 0
11, 154322, Control_c, 11, 11, 102
11, 154323, Note_on_c, 11, 83, 117
11, 154368, Note_on_c, 11, 83, 0
11, 154383, Note_on_c, 11, 83, 117
11, 154428, Note_on_c, 11, 83, 0
11, 154443, Note_on_c, 11, 83, 117
11, 154488, Note_on_c, 11, 83, 0
11, 154503, Note_on_c, 11, 83, 117
11, 154548, Note_on_c, 11, 83, 0
11, 154563, Control_c, 11, 11, 122
11, 154563, Note_on_c, 11, 72, 117
11, 154586, Control_c, 11, 11, 120
11, 154610, Control_c, 11, 11, 118
11, 154617, Note_on_c, 11, 72, 0
11, 154623, Note_on_c, 11, 84, 117
11, 154634, Control_c, 11, 11, 116
11, 154658, Control_c, 11, 11, 114
11, 154668, Note_on_c, 11, 84, 0
11, 154682, Control_c, 11, 11, 112
11, 154683, Note_on_c, 11, 84, 117
11, 154706, Control_c, 11, 11, 110
11, 154728, Note_on_c, 11, 84, 0
11, 154730, Control_c, 11, 11, 108
11, 154743, Note_on_c, 11, 84, 117
11, 154754, Control_c, 11, 11, 106
11, 154778, Control_c, 11, 11, 104
11, 154788, Note_on_c, 11, 84, 0
11, 154802, Control_c, 11, 11, 102
11, 154803, Note_on_c, 11, 84, 117
11, 154848, Note_on_c, 11, 84, 0
11, 154863, Note_on_c, 11, 84, 117
11, 154908, Note_on_c, 11, 84, 0
11, 154923, Note_on_c, 11, 84, 117
11, 154968, Note_on_c, 11, 84, 0
11, 154983, Note_on_c, 11, 84, 117
11, 155028, Note_on_c, 11, 84, 0
11, 155043, Control_c, 11, 11, 122
11, 155043, Note_on_c, 11, 72, 117
11, 155066, Control_c, 11, 11, 120
11, 155090, Control_c, 11, 11, 118
11, 155097, Note_on_c, 11, 72, 0
11, 155103, Note_on_c, 11, 84, 117
11, 155114, Control_c, 11, 11, 116
11, 155138, Control_c, 11, 11, 114
11, 155148, Note_on_c, 11, 84, 0
11, 155162, Control_c, 11, 11, 112
11, 155163, Note_on_c, 11, 84, 117
11, 155186, Control_c, 11, 11, 110
11, 155208, Note_on_c, 11, 84, 0
11, 155210, Control_c, 11, 11, 108
11, 155223, Note_on_c, 11, 84, 117
11, 155234, Control_c, 11, 11, 106
11, 155258, Control_c, 11, 11, 104
11, 155268, Note_on_c, 11, 84, 0
11, 155282, Control_c, 11, 11, 102
11, 155283, Note_on_c, 11, 84, 117
11, 155328, Note_on_c, 11, 84, 0
11, 155343, Note_on_c, 11, 84, 117
11, 155388, Note_on_c, 11, 84, 0
11, 155403, Note_on_c, 11, 84, 117
11, 155448, Note_on_c, 11, 84, 0
11, 155463, Note_on_c, 11, 84, 117
11, 155508, Note_on_c, 11, 84, 0
11, 155523, Control_c, 11, 11, 122
11, 155523, Note_on_c, 11, 72, 117
11, 155546, Control_c, 11, 11, 120
11, 155570, Control_c, 11, 11, 118
11, 155577, Note_on_c, 11, 72, 0
11, 155583, Note_on_c, 11, 84, 117
11, 155594, Control_c, 11, 11, 116
11, 155618, Control_c, 11, 11, 114
11, 155628, Note_on_c, 11, 84, 0
11, 155642, Control_c, 11, 11, 112
11, 155643, Note_on_c, 11, 84, 117
11, 155666, Control_c, 11, 11, 110
11, 155688, Note_on_c, 11, 84, 0
11, 155690, Control_c, 11, 11, 108
11, 155703, Note_on_c, 11, 84, 117
11, 155714, Control_c, 11, 11, 106
11, 155738, Control_c, 11, 11, 104
11, 155748, Note_on_c, 11, 84, 0
11, 155762, Control_c, 11, 11, 102
11, 155763, Note_on_c, 11, 84, 117
11, 155808, Note_on_c, 11, 84, 0
11, 155823, Note_on_c, 11, 84, 117
11, 155868, Note_on_c, 11, 84, 0
11, 155883, Note_on_c, 11, 84, 117
11, 155928, Note_on_c, 11, 84, 0
11, 155943, Note_on_c, 11, 84, 117
11, 155988, Note_on_c, 11, 84, 0
11, 156003, Note_on_c, 11, 84, 117
11, 156048, Note_on_c, 11, 84, 0
11, 156063, Note_on_c, 11, 84, 117
11, 156108, Note_on_c, 11, 84, 0
11, 156123, Note_on_c, 11, 84, 117
11, 156168, Note_on_c, 11, 84, 0
11, 156183, Note_on_c, 11, 84, 117
11, 156228, Note_on_c, 11, 84, 0
11, 156243, Note_on_c, 11, 84, 117
11, 156288, Note_on_c, 11, 84, 0
11, 156303, Note_on_c, 11, 84, 117
11, 156348, Note_on_c, 11, 84, 0
11, 156363, Note_on_c, 11, 84, 117
11, 156408, Note_on_c, 11, 84, 0
11, 156423, Note_on_c, 11, 84, 117
11, 156468, Note_on_c, 11, 84, 0
11, 156483, Note_on_c, 11, 83, 117
11, 156528, Note_on_c, 11, 83, 0
11, 156543, Note_on_c, 11, 83, 117
11, 156588, Note_on_c, 11, 83, 0
11, 156603, Note_on_c, 11, 83, 117
11, 156648, Note_on_c, 11, 83, 0
11, 156663, Note_on_c, 11, 83, 117
11, 156708, Note_on_c, 11, 83, 0
11, 156723, Note_on_c, 11, 83, 117
11, 156768, Note_on_c, 11, 83, 0
11, 156783, Note_on_c, 11, 83, 117
11, 156828, Note_on_c, 11, 83, 0
11, 156843, Note_on_c, 11, 83, 117
11, 156888, Note_on_c, 11, 83, 0
11, 156903, Note_on_c, 11, 83, 117
11, 156948, Note_on_c, 11, 83, 0
11, 156963, Note_on_c, 11, 83, 117
11, 157008, Note_on_c, 11, 83, 0
11, 157023, Note_on_c, 11, 83, 117
11, 157068, Note_on_c, 11, 83, 0
11, 157083, Note_on_c, 11, 83, 117
11, 157128, Note_on_c, 11, 83, 0
11, 157143, Note_on_c, 11, 83, 117
11, 157188, Note_on_c, 11, 83, 0
11, 157203, Note_on_c, 11, 83, 117
11, 157248, Note_on_c, 11, 83, 0
11, 157263, Note_on_c, 11, 83, 117
11, 157308, Note_on_c, 11, 83, 0
11, 157323, Note_on_c, 11, 83, 117
11, 157368, Note_on_c, 11, 83, 0
11, 157383, Note_on_c, 11, 83, 117
11, 157428, Note_on_c, 11, 83, 0
11, 157443, Note_on_c, 11, 84, 100
11, 157443, Note_on_c, 11, 76, 100
11, 157563, Note_on_c, 11, 76, 0
11, 157563, Note_on_c, 11, 84, 0
11, 158763, Note_on_c, 11, 71, 85
11, 158763, Note_on_c, 11, 62, 85
11, 158868, Note_on_c, 11, 62, 0
11, 158868, Note_on_c, 11, 71, 0
11, 158883, Note_on_c, 11, 71, 85
11, 158883, Note_on_c, 11, 62, 85
11, 159228, Note_on_c, 11, 62, 0
11, 159228, Note_on_c, 11, 71, 0
11, 159243, Note_on_c, 11, 62, 85
11, 159243, Note_on_c, 11, 71, 85
11, 159348, Note_on_c, 11, 71, 0
11, 159348, Note_on_c, 11, 62, 0
11, 159363, Note_on_c, 11, 72, 85
11, 159363, Note_on_c, 11, 64, 85
11, 159483, Note_on_c, 11, 64, 0
11, 159483, Note_on_c, 11, 72, 0
11, 160443, Note_on_c, 11, 71, 85
11, 160443, Note_on_c, 11, 55, 85
11, 160443, Note_on_c, 11, 62, 85
11, 160548, Note_on_c, 11, 62, 0
11, 160548, Note_on_c, 11, 55, 0
11, 160548, Note_on_c, 11, 71, 0
11, 160563, Note_on_c, 11, 62, 85
11, 160563, Note_on_c, 11, 71, 85
11, 160668, Note_on_c, 11, 71, 0
11, 160668, Note_on_c, 11, 62, 0
11, 160683, Note_on_c, 11, 71, 85
11, 160683, Note_on_c, 11, 62, 85
11, 160788, Note_on_c, 11, 62, 0
11, 160788, Note_on_c, 11, 71, 0
11, 160803, Note_on_c, 11, 62, 85
11, 160803, Note_on_c, 11, 71, 85
11, 160908, Note_on_c, 11, 71, 0
11, 160908, Note_on_c, 11, 62, 0
11, 160923, Note_on_c, 11, 62, 85
11, 160923, Note_on_c, 11, 71, 85
11, 161028, Note_on_c, 11, 71, 0
11, 161028, Note_on_c, 11, 62, 0
11, 161043, Note_on_c, 11, 62, 85
11, 161043, Note_on_c, 11, 71, 85
11, 161148, Note_on_c, 11, 71, 0
11, 161148, Note_on_c, 11, 62, 0
11, 161163, Note_on_c, 11, 62, 85
11, 161163, Note_on_c, 11, 71, 85
11, 161268, Note_on_c, 11, 71, 0
11, 161268, Note_on_c, 11, 62, 0
11, 161283, Note_on_c, 11, 72, 85
11, 161283, Note_on_c, 11, 64, 85
11, 161403, Note_on_c, 11, 64, 0
11, 161403, Note_on_c, 11, 72, 0
11, 162363, Note_on_c, 11, 71, 85
11, 162363, Note_on_c, 11, 62, 85
11, 162588, Note_on_c, 11, 62, 0
11, 162588, Note_on_c, 11, 71, 0
11, 162603, Note_on_c, 11, 62, 85
11, 162603, Note_on_c, 11, 71, 85
11, 162828, Note_on_c, 11, 71, 0
11, 162828, Note_on_c, 11, 62, 0
11, 162843, Note_on_c, 11, 62, 85
11, 162843, Note_on_c, 11, 71, 85
11, 163068, Note_on_c, 11, 71, 0
11, 163068, Note_on_c, 11, 62, 0
11, 163083, Note_on_c, 11, 71, 85
11, 163083, Note_on_c, 11, 62, 85
11, 163188, Note_on_c, 11, 62, 0
11, 163188, Note_on_c, 11, 71, 0
11, 163203, Note_on_c, 11, 72, 85
11, 163203, Note_on_c, 11, 64, 85
11, 163323, Note_on_c, 11, 64, 0
11, 163323, Note_on_c, 11, 72, 0
11, 163803, Note_on_c, 11, 67, 100
11, 163863, Note_on_c, 11, 67, 0
11, 163923, Note_on_c, 11, 64, 100
11, 163983, Note_on_c, 11, 64, 0
11, 164043, Note_on_c, 11, 60, 100
11, 164103, Note_on_c, 11, 60, 0
11, 164163, Control_c, 11, 11, 72
11, 164163, Note_on_c, 11, 65, 100
11, 164163, Note_on_c, 11, 55, 100
11, 164163, Note_on_c, 11, 74, 100
11, 164166, Control_c, 11, 11, 75
11, 164169, Control_c, 11, 11, 78
11, 164172, Control_c, 11, 11, 81
11, 164175, Control_c, 11, 11, 84
11, 164178, Control_c, 11, 11, 87
11, 164181, Control_c, 11, 11, 90
11, 164184, Control_c, 11, 11, 93
11, 164187, Control_c, 11, 11, 96
11, 164190, Control_c, 11, 11, 99
11, 164193, Control_c, 11, 11, 102
11, 164283, Note_on_c, 11, 55, 0
11, 164508, Control_c, 11, 11, 102
11, 164511, Control_c, 11, 11, 99
11, 164514, Control_c, 11, 11, 96
11, 164517, Control_c, 11, 11, 93
11, 164521, Control_c, 11, 11, 90
11, 164524, Control_c, 11, 11, 87
11, 164527, Control_c, 11, 11, 84
11, 164531, Control_c, 11, 11, 81
11, 164534, Control_c, 11, 11, 78
11, 164537, Control_c, 11, 11, 75
11, 164541, Note_on_c, 11, 74, 0
11, 164541, Note_on_c, 11, 65, 0
11, 164541, Control_c, 11, 11, 72
11, 164583, Control_c, 11, 11, 72
11, 164583, Note_on_c, 11, 71, 100
11, 164592, Control_c, 11, 11, 75
11, 164601, Control_c, 11, 11, 78
11, 164610, Control_c, 11, 11, 81
11, 164619, Control_c, 11, 11, 84
11, 164628, Control_c, 11, 11, 87
11, 164637, Control_c, 11, 11, 90
11, 164643, Note_on_c, 11, 71, 0
11, 164643, Note_on_c, 11, 65, 100
11, 164763, Note_on_c, 11, 65, 0
11, 165063, Note_on_c, 11, 71, 100
11, 165123, Note_on_c, 11, 71, 0
11, 165123, Note_on_c, 11, 65, 100
11, 165243, Note_on_c, 11, 65, 0
11, 165543, Note_on_c, 11, 71, 100
11, 165603, Note_on_c, 11, 71, 0
11, 165603, Note_on_c, 11, 65, 100
11, 165723, Note_on_c, 11, 65, 0
11, 165783, Note_on_c, 11, 71, 100
11, 165843, Note_on_c, 11, 71, 0
11, 165843, Note_on_c, 11, 65, 100
11, 165963, Note_on_c, 11, 65, 0
11, 166023, Note_on_c, 11, 71, 100
11, 166083, Note_on_c, 11, 71, 0
11, 166083, Note_on_c, 11, 65, 100
11, 166203, Note_on_c, 11, 65, 0
11, 166263, Note_on_c, 11, 71, 100
11, 166323, Note_on_c, 11, 71, 0
11, 166323, Note_on_c, 11, 74, 100
11, 166443, Note_on_c, 11, 74, 0
11, 166503, Note_on_c, 11, 72, 100
11, 166563, Note_on_c, 11, 72, 0
11, 166563, Note_on_c, 11, 76, 100
11, 166623, Note_on_c, 11, 76, 0
11, 166743, Note_on_c, 11, 76, 100
11, 166803, Note_on_c, 11, 76, 0
11, 166803, Note_on_c, 11, 79, 100
11, 166863, Note_on_c, 11, 79, 0
11, 166983, Note_on_c, 11, 79, 100
11, 167043, Note_on_c, 11, 79, 0
11, 167043, Control_c, 11, 11, 92
11, 167043, Note_on_c, 11, 67, 100
11, 167059, Control_c, 11, 11, 89
11, 167075, Control_c, 11, 11, 86
11, 167091, Control_c, 11, 11, 83
11, 167107, Control_c, 11, 11, 80
11, 167123, Control_c, 11, 11, 77
11, 167139, Control_c, 11, 11, 74
11, 167155, Control_c, 11, 11, 71
11, 167171, Control_c, 11, 11, 68
11, 167187, Control_c, 11, 11, 65
11, 167203, Control_c, 11, 11, 62
11, 167219, Control_c, 11, 11, 59
11, 167235, Control_c, 11, 11, 56
11, 167251, Control_c, 11, 11, 53
11, 167267, Control_c, 11, 11, 50
11, 167283, Control_c, 11, 11, 47
11, 167868, Note_on_c, 11, 67, 0
11, 167883, Note_on_c, 11, 69, 100
11, 167988, Note_on_c, 11, 69, 0
11, 168003, Control_c, 11, 11, 47
11, 168003, Note_on_c, 11, 67, 100
11, 168115, Control_c, 11, 11, 46
11, 168228, Control_c, 11, 11, 45
11, 168243, Note_on_c, 11, 67, 0
11, 168243, Note_on_c, 11, 69, 100
11, 168341, Control_c, 11, 11, 44
11, 168454, Control_c, 11, 11, 43
11, 168483, Note_on_c, 11, 69, 0
11, 168483, Note_on_c, 11, 67, 100
11, 168567, Control_c, 11, 11, 42
11, 168680, Control_c, 11, 11, 41
11, 168723, Note_on_c, 11, 67, 0
11, 168723, Note_on_c, 11, 69, 100
11, 168793, Control_c, 11, 11, 40
11, 168906, Control_c, 11, 11, 39
11, 168963, Note_on_c, 11, 69, 0
11, 168963, Note_on_c, 11, 67, 100
11, 169019, Control_c, 11, 11, 38
11, 169132, Control_c, 11, 11, 37
11, 169203, Note_on_c, 11, 67, 0
11, 169203, Note_on_c, 11, 69, 100
11, 169245, Control_c, 11, 11, 36
11, 169358, Control_c, 11, 11, 35
11, 169443, Note_on_c, 11, 69, 0
11, 169443, Note_on_c, 11, 67, 100
11, 169471, Control_c, 11, 11, 34
11, 169584, Control_c, 11, 11, 33
11, 169683, Note_on_c, 11, 67, 0
11, 169683, Note_on_c, 11, 69, 100
11, 169697, Control_c, 11, 11, 32
11, 169810, Control_c, 11, 11, 31
11, 169908, Note_on_c, 11, 69, 0
11, 169923, Control_c, 11, 11, 30
11, 169923, Note_on_c, 11, 67, 82
11, 170103, Control_c, 11, 11, 30
11, 170123, Control_c, 11, 11, 29
11, 170143, Control_c, 11, 11, 28
11, 170163, Control_c, 11, 11, 27
11, 170183, Control_c, 11, 11, 26
11, 170203, Control_c, 11, 11, 25
11, 170223, Control_c, 11, 11, 24
11, 170243, Control_c, 11, 11, 23
11, 170263, Control_c, 11, 11, 22
11, 170283, Control_c, 11, 11, 21
11, 170299, Control_c, 11, 11, 18
11, 170315, Control_c, 11, 11, 15
11, 170332, Control_c, 11, 11, 12
11, 170343, Note_on_c, 11, 67, 0
11, 170403, Control_c, 11, 11, 102
11, 170403, Note_on_c, 11, 76, 117
11, 170403, Note_on_c, 11, 55, 117
11, 170403, Note_on_c, 11, 64, 117
11, 170523, Note_on_c, 11, 64, 0
11, 170523, Note_on_c, 11, 55, 0
11, 170523, Note_on_c, 11, 76, 0
11, 171363, Note_on_c, 11, 84, 117
11, 171363, Note_on_c, 11, 60, 117
11, 171363, Note_on_c, 11, 67, 117
11, 171363, Note_on_c, 11, 76, 117
11, 171483, Note_on_c, 11, 76, 0
11, 171483, Note_on_c, 11, 84, 0
11, 171483, Note_on_c, 11, 60, 0
11, 171483, Note_on_c, 11, 67, 0
11, 171843, Note_on_c, 11, 72, 117
11, 171843, Note_on_c, 11, 64, 117
11, 171843, Note_on_c, 11, 55, 117
11, 171963, Note_on_c, 11, 55, 0
11, 171963, Note_on_c, 11, 64, 0
11, 171963, Note_on_c, 11, 72, 0
11, 172322, Program_c, 11, 50
11, 172323, Control_c, 11, 11, 112
11, 172323, Note_on_c, 11, 60, 117
11, 172443, Note_on_c, 11, 60, 0
11, 172803, Control_c, 11, 121, 0
11, 172803, End_track
12, 0, Start_track
12, 0, MIDI_port, 0
12, 0, Title_t, "Viola"
12, 0, Program_c, 12, 48
12, 0, Control_c, 12, 10, 40
12, 6, Control_c, 12, 121, 0
12, 11, Program_c, 12, 50
12, 16, Pitch_bend_c, 12, 8492
12, 21, Control_c, 12, 11, 102
12, 26, Control_c, 12, 7, 127
12, 31, Control_c, 12, 91, 31
12, 36, Control_c, 12, 93, 0
12, 41, Control_c, 12, 1, 36
12, 486, Control_c, 12, 11, 62
12, 486, Note_on_c, 12, 55, 120
12, 490, Control_c, 12, 11, 66
12, 494, Control_c, 12, 11, 69
12, 498, Control_c, 12, 11, 73
12, 502, Control_c, 12, 11, 76
12, 506, Control_c, 12, 11, 80
12, 510, Control_c, 12, 11, 83
12, 514, Control_c, 12, 11, 87
12, 518, Control_c, 12, 11, 90
12, 522, Control_c, 12, 11, 94
12, 526, Control_c, 12, 11, 97
12, 541, Control_c, 12, 11, 94
12, 557, Control_c, 12, 11, 91
12, 573, Control_c, 12, 11, 88
12, 589, Control_c, 12, 11, 85
12, 605, Control_c, 12, 11, 82
12, 621, Control_c, 12, 11, 79
12, 637, Control_c, 12, 11, 76
12, 653, Control_c, 12, 11, 73
12, 669, Control_c, 12, 11, 70
12, 685, Control_c, 12, 11, 67
12, 701, Control_c, 12, 11, 64
12, 716, Control_c, 12, 11, 61
12, 732, Control_c, 12, 11, 58
12, 748, Control_c, 12, 11, 55
12, 764, Control_c, 12, 11, 52
12, 780, Control_c, 12, 11, 49
12, 792, Control_c, 12, 11, 46
12, 796, Control_c, 12, 11, 43
12, 800, Control_c, 12, 11, 40
12, 804, Control_c, 12, 11, 37
12, 807, Control_c, 12, 11, 34
12, 811, Control_c, 12, 11, 31
12, 815, Control_c, 12, 11, 28
12, 816, Note_on_c, 12, 55, 0
12, 3846, Control_c, 12, 11, 67
12, 3846, Note_on_c, 12, 55, 100
12, 3850, Control_c, 12, 11, 70
12, 3855, Control_c, 12, 11, 73
12, 3859, Control_c, 12, 11, 76
12, 3864, Control_c, 12, 11, 79
12, 3868, Control_c, 12, 11, 82
12, 3873, Control_c, 12, 11, 85
12, 3888, Control_c, 12, 11, 85
12, 3907, Control_c, 12, 11, 82
12, 3925, Control_c, 12, 11, 79
12, 3944, Control_c, 12, 11, 76
12, 3962, Control_c, 12, 11, 73
12, 3981, Control_c, 12, 11, 70
12, 4000, Control_c, 12, 11, 67
12, 4018, Control_c, 12, 11, 64
12, 4037, Control_c, 12, 11, 61
12, 4056, Control_c, 12, 11, 58
12, 4074, Control_c, 12, 11, 55
12, 4093, Control_c, 12, 11, 52
12, 4111, Control_c, 12, 11, 49
12, 4130, Control_c, 12, 11, 46
12, 4149, Control_c, 12, 11, 43
12, 4160, Control_c, 12, 11, 40
12, 4168, Control_c, 12, 11, 37
12, 4175, Control_c, 12, 11, 34
12, 4176, Note_on_c, 12, 55, 0
12, 4205, Program_c, 12, 48
12, 4206, Control_c, 12, 11, 17
12, 4206, Note_on_c, 12, 55, 80
12, 4212, Control_c, 12, 11, 20
12, 4218, Control_c, 12, 11, 23
12, 4224, Control_c, 12, 11, 26
12, 4230, Control_c, 12, 11, 29
12, 4236, Control_c, 12, 11, 32
12, 4242, Control_c, 12, 11, 35
12, 4262, Control_c, 12, 11, 39
12, 4278, Control_c, 12, 11, 41
12, 4294, Control_c, 12, 11, 43
12, 4310, Control_c, 12, 11, 45
12, 4326, Note_on_c, 12, 55, 0
12, 4326, Note_on_c, 12, 55, 90
12, 4686, Note_on_c, 12, 55, 0
12, 4686, Note_on_c, 12, 55, 100
12, 4746, Note_on_c, 12, 55, 0
12, 4746, Note_on_c, 12, 55, 100
12, 4806, Note_on_c, 12, 55, 0
12, 4806, Note_on_c, 12, 55, 100
12, 5046, Control_c, 12, 11, 46
12, 5063, Control_c, 12, 11, 43
12, 5081, Control_c, 12, 11, 40
12, 5099, Control_c, 12, 11, 37
12, 5116, Control_c, 12, 11, 34
12, 5134, Control_c, 12, 11, 31
12, 5143, Control_c, 12, 11, 28
12, 5146, Note_on_c, 12, 55, 0
12, 5149, Control_c, 12, 11, 25
12, 5154, Control_c, 12, 11, 22
12, 5766, Control_c, 12, 11, 57
12, 5766, Note_on_c, 12, 61, 100
12, 5766, Note_on_c, 12, 52, 100
12, 5769, Control_c, 12, 11, 61
12, 5773, Control_c, 12, 11, 66
12, 5776, Control_c, 12, 11, 71
12, 5780, Control_c, 12, 11, 75
12, 5784, Control_c, 12, 11, 80
12, 5787, Control_c, 12, 11, 85
12, 5916, Control_c, 12, 11, 87
12, 5926, Control_c, 12, 11, 84
12, 5936, Control_c, 12, 11, 81
12, 5946, Note_on_c, 12, 52, 0
12, 5946, Note_on_c, 12, 61, 0
12, 5946, Control_c, 12, 11, 78
12, 5956, Control_c, 12, 11, 75
12, 5966, Control_c, 12, 11, 72
12, 5976, Control_c, 12, 11, 69
12, 5986, Control_c, 12, 11, 66
12, 5996, Control_c, 12, 11, 63
12, 6006, Control_c, 12, 11, 60
12, 6366, Control_c, 12, 11, 42
12, 6366, Note_on_c, 12, 57, 100
12, 6381, Note_on_c, 12, 57, 0
12, 6396, Note_on_c, 12, 55, 100
12, 6411, Note_on_c, 12, 55, 0
12, 6426, Note_on_c, 12, 53, 100
12, 6441, Note_on_c, 12, 53, 0
12, 6456, Note_on_c, 12, 52, 100
12, 6471, Note_on_c, 12, 52, 0
12, 6876, Note_on_c, 12, 52, 100
12, 6906, Note_on_c, 12, 52, 0
12, 6906, Note_on_c, 12, 49, 100
12, 6926, Note_on_c, 12, 49, 0
12, 6936, Note_on_c, 12, 57, 100
12, 6966, Note_on_c, 12, 57, 0
12, 6966, Note_on_c, 12, 52, 100
12, 6986, Note_on_c, 12, 52, 0
12, 7686, Control_c, 12, 11, 57
12, 7686, Note_on_c, 12, 57, 100
12, 7686, Note_on_c, 12, 54, 100
12, 7689, Control_c, 12, 11, 61
12, 7693, Control_c, 12, 11, 66
12, 7696, Control_c, 12, 11, 71
12, 7700, Control_c, 12, 11, 75
12, 7704, Control_c, 12, 11, 80
12, 7707, Control_c, 12, 11, 85
12, 7836, Control_c, 12, 11, 87
12, 7839, Control_c, 12, 11, 84
12, 7842, Control_c, 12, 11, 81
12, 7846, Control_c, 12, 11, 78
12, 7849, Control_c, 12, 11, 75
12, 7852, Control_c, 12, 11, 72
12, 7856, Control_c, 12, 11, 69
12, 7859, Control_c, 12, 11, 66
12, 7862, Control_c, 12, 11, 63
12, 7866, Note_on_c, 12, 54, 0
12, 7866, Note_on_c, 12, 57, 0
12, 7866, Control_c, 12, 11, 60
12, 8286, Control_c, 12, 11, 42
12, 8286, Note_on_c, 12, 60, 100
12, 8301, Note_on_c, 12, 60, 0
12, 8316, Note_on_c, 12, 59, 100
12, 8331, Note_on_c, 12, 59, 0
12, 8346, Note_on_c, 12, 57, 100
12, 8361, Note_on_c, 12, 57, 0
12, 8376, Note_on_c, 12, 55, 100
12, 8391, Note_on_c, 12, 55, 0
12, 8856, Note_on_c, 12, 48, 100
12, 8886, Note_on_c, 12, 48, 0
12, 8886, Note_on_c, 12, 57, 100
12, 8906, Note_on_c, 12, 57, 0
12, 8916, Note_on_c, 12, 54, 100
12, 8946, Note_on_c, 12, 54, 0
12, 8946, Note_on_c, 12, 60, 100
12, 8966, Note_on_c, 12, 60, 0
12, 9546, Note_on_c, 12, 62, 100
12, 9606, Note_on_c, 12, 62, 0
12, 9636, Control_c, 12, 11, 87
12, 9636, Note_on_c, 12, 62, 100
12, 9636, Note_on_c, 12, 59, 100
12, 9756, Control_c, 12, 11, 87
12, 9759, Control_c, 12, 11, 84
12, 9762, Control_c, 12, 11, 81
12, 9766, Control_c, 12, 11, 78
12, 9769, Control_c, 12, 11, 75
12, 9772, Control_c, 12, 11, 72
12, 9776, Control_c, 12, 11, 69
12, 9779, Control_c, 12, 11, 66
12, 9782, Control_c, 12, 11, 63
12, 9786, Note_on_c, 12, 59, 0
12, 9786, Note_on_c, 12, 62, 0
12, 9786, Control_c, 12, 11, 60
12, 10206, Control_c, 12, 11, 42
12, 10206, Note_on_c, 12, 65, 100
12, 10221, Note_on_c, 12, 65, 0
12, 10236, Note_on_c, 12, 64, 100
12, 10251, Note_on_c, 12, 64, 0
12, 10266, Note_on_c, 12, 62, 100
12, 10281, Note_on_c, 12, 62, 0
12, 10296, Note_on_c, 12, 60, 100
12, 10311, Note_on_c, 12, 60, 0
12, 11076, Control_c, 12, 11, 42
12, 11076, Note_on_c, 12, 63, 100
12, 11106, Note_on_c, 12, 63, 0
12, 11106, Note_on_c, 12, 62, 100
12, 11136, Note_on_c, 12, 62, 0
12, 11136, Note_on_c, 12, 63, 100
12, 11166, Note_on_c, 12, 63, 0
12, 11166, Note_on_c, 12, 62, 100
12, 11226, Note_on_c, 12, 62, 0
12, 11316, Control_c, 12, 11, 47
12, 11316, Note_on_c, 12, 65, 110
12, 11346, Note_on_c, 12, 65, 0
12, 11346, Note_on_c, 12, 63, 110
12, 11376, Note_on_c, 12, 63, 0
12, 11376, Note_on_c, 12, 65, 110
12, 11406, Note_on_c, 12, 65, 0
12, 11406, Note_on_c, 12, 63, 110
12, 11466, Note_on_c, 12, 63, 0
12, 11556, Control_c, 12, 11, 59
12, 11556, Note_on_c, 12, 67, 110
12, 11586, Note_on_c, 12, 67, 0
12, 11586, Note_on_c, 12, 65, 111
12, 11616, Note_on_c, 12, 65, 0
12, 11676, Control_c, 12, 11, 66
12, 11676, Note_on_c, 12, 68, 115
12, 11706, Note_on_c, 12, 68, 0
12, 11706, Note_on_c, 12, 67, 116
12, 11736, Note_on_c, 12, 67, 0
12, 11796, Control_c, 12, 11, 68
12, 11796, Note_on_c, 12, 70, 120
12, 11826, Note_on_c, 12, 70, 0
12, 11826, Note_on_c, 12, 68, 122
12, 11856, Note_on_c, 12, 68, 0
12, 13006, Control_c, 12, 11, 32
12, 13006, Note_on_c, 12, 51, 100
12, 13026, Note_on_c, 12, 51, 0
12, 13046, Note_on_c, 12, 51, 100
12, 13066, Note_on_c, 12, 51, 0
12, 13086, Note_on_c, 12, 51, 100
12, 13106, Note_on_c, 12, 51, 0
12, 13246, Note_on_c, 12, 53, 100
12, 13266, Note_on_c, 12, 53, 0
12, 13286, Note_on_c, 12, 53, 100
12, 13306, Note_on_c, 12, 53, 0
12, 13326, Note_on_c, 12, 53, 100
12, 13346, Note_on_c, 12, 53, 0
12, 13486, Note_on_c, 12, 55, 100
12, 13506, Note_on_c, 12, 55, 0
12, 13526, Note_on_c, 12, 55, 100
12, 13546, Note_on_c, 12, 55, 0
12, 13566, Note_on_c, 12, 55, 100
12, 13586, Note_on_c, 12, 55, 0
12, 13726, Note_on_c, 12, 50, 100
12, 13746, Note_on_c, 12, 50, 0
12, 13766, Note_on_c, 12, 50, 100
12, 13786, Note_on_c, 12, 50, 0
12, 13806, Note_on_c, 12, 50, 100
12, 13826, Note_on_c, 12, 50, 0
12, 15125, Program_c, 12, 45
12, 15126, Control_c, 12, 11, 100
12, 15126, Note_on_c, 12, 58, 29
12, 15146, Note_on_c, 12, 58, 0
12, 15166, Note_on_c, 12, 56, 29
12, 15186, Note_on_c, 12, 56, 0
12, 15206, Note_on_c, 12, 55, 29
12, 15226, Note_on_c, 12, 55, 0
12, 15246, Note_on_c, 12, 53, 29
12, 15266, Note_on_c, 12, 53, 0
12, 15286, Note_on_c, 12, 51, 29
12, 15306, Note_on_c, 12, 51, 0
12, 15326, Note_on_c, 12, 50, 29
12, 15346, Note_on_c, 12, 50, 0
12, 15366, Note_on_c, 12, 48, 29
12, 15386, Note_on_c, 12, 48, 0
12, 15406, Note_on_c, 12, 58, 29
12, 15426, Note_on_c, 12, 58, 0
12, 15446, Note_on_c, 12, 56, 29
12, 15466, Note_on_c, 12, 56, 0
12, 15486, Note_on_c, 12, 55, 29
12, 15506, Note_on_c, 12, 55, 0
12, 15526, Note_on_c, 12, 53, 29
12, 15546, Note_on_c, 12, 53, 0
12, 15566, Note_on_c, 12, 51, 29
12, 15586, Note_on_c, 12, 51, 0
12, 15606, Note_on_c, 12, 50, 29
12, 15626, Note_on_c, 12, 50, 0
12, 15646, Note_on_c, 12, 60, 29
12, 15666, Note_on_c, 12, 60, 0
12, 15686, Note_on_c, 12, 59, 29
12, 15706, Note_on_c, 12, 59, 0
12, 15726, Note_on_c, 12, 60, 29
12, 15746, Note_on_c, 12, 60, 0
12, 15766, Note_on_c, 12, 51, 29
12, 15786, Note_on_c, 12, 51, 0
12, 15806, Note_on_c, 12, 48, 29
12, 15826, Note_on_c, 12, 48, 0
12, 15846, Note_on_c, 12, 55, 29
12, 15966, Note_on_c, 12, 55, 0
12, 16565, Program_c, 12, 48
12, 16566, Control_c, 12, 11, 62
12, 16566, Note_on_c, 12, 48, 100
12, 16576, Control_c, 12, 11, 68
12, 16587, Control_c, 12, 11, 74
12, 16597, Control_c, 12, 11, 81
12, 16608, Control_c, 12, 11, 87
12, 16619, Control_c, 12, 11, 95
12, 16637, Control_c, 12, 11, 90
12, 16655, Control_c, 12, 11, 85
12, 16673, Control_c, 12, 11, 81
12, 16691, Control_c, 12, 11, 76
12, 16709, Control_c, 12, 11, 71
12, 16727, Control_c, 12, 11, 67
12, 16745, Control_c, 12, 11, 62
12, 16763, Control_c, 12, 11, 57
12, 16781, Control_c, 12, 11, 53
12, 16799, Control_c, 12, 11, 48
12, 16806, Note_on_c, 12, 48, 0
12, 16806, Note_on_c, 12, 55, 80
12, 16926, Note_on_c, 12, 55, 0
12, 17526, Control_c, 12, 11, 47
12, 17526, Note_on_c, 12, 48, 100
12, 17531, Control_c, 12, 11, 53
12, 17536, Control_c, 12, 11, 60
12, 17541, Control_c, 12, 11, 68
12, 17546, Control_c, 12, 11, 74
12, 17551, Control_c, 12, 11, 82
12, 17556, Control_c, 12, 11, 90
12, 17574, Control_c, 12, 11, 90
12, 17594, Control_c, 12, 11, 85
12, 17615, Control_c, 12, 11, 80
12, 17635, Control_c, 12, 11, 76
12, 17656, Control_c, 12, 11, 71
12, 17676, Control_c, 12, 11, 66
12, 17697, Control_c, 12, 11, 62
12, 17718, Control_c, 12, 11, 57
12, 17738, Control_c, 12, 11, 53
12, 17759, Control_c, 12, 11, 48
12, 17766, Note_on_c, 12, 48, 0
12, 17766, Note_on_c, 12, 55, 68
12, 17856, Control_c, 12, 11, 47
12, 17860, Control_c, 12, 11, 44
12, 17864, Control_c, 12, 11, 41
12, 17869, Control_c, 12, 11, 38
12, 17873, Control_c, 12, 11, 35
12, 17877, Control_c, 12, 11, 32
12, 17882, Control_c, 12, 11, 29
12, 17886, Note_on_c, 12, 55, 0
12, 18005, Program_c, 12, 45
12, 18006, Control_c, 12, 11, 100
12, 18006, Note_on_c, 12, 55, 30
12, 18126, Note_on_c, 12, 55, 0
12, 18126, Note_on_c, 12, 55, 30
12, 18246, Note_on_c, 12, 55, 0
12, 18246, Note_on_c, 12, 55, 30
12, 18366, Note_on_c, 12, 55, 0
12, 18486, Note_on_c, 12, 55, 30
12, 18606, Note_on_c, 12, 55, 0
12, 18606, Note_on_c, 12, 55, 30
12, 18726, Note_on_c, 12, 55, 0
12, 18726, Note_on_c, 12, 55, 30
12, 18846, Note_on_c, 12, 55, 0
12, 18966, Note_on_c, 12, 55, 30
12, 19086, Note_on_c, 12, 55, 0
12, 20165, Program_c, 12, 48
12, 20166, Control_c, 12, 11, 87
12, 20166, Note_on_c, 12, 62, 100
12, 20286, Note_on_c, 12, 62, 0
12, 20346, Note_on_c, 12, 65, 103
12, 20406, Note_on_c, 12, 65, 0
12, 20406, Note_on_c, 12, 69, 105
12, 20422, Control_c, 12, 11, 88
12, 20526, Note_on_c, 12, 69, 0
12, 20586, Note_on_c, 12, 59, 108
12, 20646, Note_on_c, 12, 59, 0
12, 20646, Note_on_c, 12, 62, 110
12, 20678, Control_c, 12, 11, 89
12, 20766, Note_on_c, 12, 62, 0
12, 20826, Note_on_c, 12, 65, 113
12, 20886, Note_on_c, 12, 65, 0
12, 20886, Note_on_c, 12, 69, 115
12, 20934, Control_c, 12, 11, 90
12, 21006, Note_on_c, 12, 69, 0
12, 21066, Note_on_c, 12, 59, 118
12, 21126, Note_on_c, 12, 59, 0
12, 21126, Note_on_c, 12, 62, 120
12, 21190, Control_c, 12, 11, 91
12, 21246, Note_on_c, 12, 62, 0
12, 21306, Note_on_c, 12, 65, 123
12, 21366, Note_on_c, 12, 65, 0
12, 21366, Note_on_c, 12, 69, 125
12, 21446, Control_c, 12, 11, 92
12, 21486, Note_on_c, 12, 69, 0
12, 21546, Control_c, 12, 11, 72
12, 21546, Note_on_c, 12, 55, 100
12, 21579, Control_c, 12, 11, 73
12, 21606, Note_on_c, 12, 55, 0
12, 21606, Note_on_c, 12, 57, 101
12, 21613, Control_c, 12, 11, 74
12, 21647, Control_c, 12, 11, 75
12, 21681, Control_c, 12, 11, 76
12, 21715, Control_c, 12, 11, 77
12, 21726, Note_on_c, 12, 57, 0
12, 21749, Control_c, 12, 11, 78
12, 21783, Control_c, 12, 11, 79
12, 21786, Note_on_c, 12, 57, 106
12, 21817, Control_c, 12, 11, 80
12, 21846, Note_on_c, 12, 57, 0
12, 21846, Note_on_c, 12, 59, 107
12, 21851, Control_c, 12, 11, 81
12, 21885, Control_c, 12, 11, 82
12, 21919, Control_c, 12, 11, 83
12, 21952, Control_c, 12, 11, 84
12, 21966, Note_on_c, 12, 59, 0
12, 21986, Control_c, 12, 11, 85
12, 22020, Control_c, 12, 11, 86
12, 22026, Note_on_c, 12, 59, 113
12, 22054, Control_c, 12, 11, 87
12, 22086, Note_on_c, 12, 59, 0
12, 22086, Note_on_c, 12, 60, 114
12, 22088, Control_c, 12, 11, 88
12, 22122, Control_c, 12, 11, 89
12, 22156, Control_c, 12, 11, 90
12, 22190, Control_c, 12, 11, 91
12, 22206, Note_on_c, 12, 60, 0
12, 22224, Control_c, 12, 11, 92
12, 22258, Control_c, 12, 11, 93
12, 22266, Note_on_c, 12, 60, 120
12, 22292, Control_c, 12, 11, 94
12, 22326, Note_on_c, 12, 60, 0
12, 22326, Control_c, 12, 11, 95
12, 22326, Note_on_c, 12, 62, 122
12, 22446, Note_on_c, 12, 62, 0
12, 22470, Control_c, 12, 11, 96
12, 22506, Note_on_c, 12, 55, 102
12, 22566, Note_on_c, 12, 55, 0
12, 22566, Note_on_c, 12, 57, 103
12, 22686, Note_on_c, 12, 57, 0
12, 22726, Control_c, 12, 11, 97
12, 22746, Note_on_c, 12, 57, 109
12, 22806, Note_on_c, 12, 57, 0
12, 22806, Note_on_c, 12, 59, 110
12, 22926, Note_on_c, 12, 59, 0
12, 22982, Control_c, 12, 11, 98
12, 22986, Note_on_c, 12, 59, 116
12, 23046, Note_on_c, 12, 59, 0
12, 23046, Note_on_c, 12, 60, 117
12, 23166, Note_on_c, 12, 60, 0
12, 23226, Note_on_c, 12, 60, 122
12, 23238, Control_c, 12, 11, 99
12, 23286, Note_on_c, 12, 60, 0
12, 23286, Note_on_c, 12, 62, 124
12, 23406, Note_on_c, 12, 62, 0
12, 23466, Note_on_c, 12, 55, 105
12, 23494, Control_c, 12, 11, 100
12, 23526, Note_on_c, 12, 55, 0
12, 23526, Note_on_c, 12, 57, 105
12, 23631, Note_on_c, 12, 57, 0
12, 23646, Note_on_c, 12, 69, 105
12, 23750, Control_c, 12, 11, 101
12, 23751, Note_on_c, 12, 69, 0
12, 23766, Note_on_c, 12, 59, 106
12, 23871, Note_on_c, 12, 59, 0
12, 23886, Note_on_c, 12, 71, 106
12, 23991, Note_on_c, 12, 71, 0
12, 24006, Control_c, 12, 11, 102
12, 24006, Note_on_c, 12, 60, 106
12, 24111, Note_on_c, 12, 60, 0
12, 24126, Note_on_c, 12, 72, 107
12, 24231, Note_on_c, 12, 72, 0
12, 24246, Note_on_c, 12, 62, 107
12, 24262, Control_c, 12, 11, 103
12, 24351, Note_on_c, 12, 62, 0
12, 24366, Note_on_c, 12, 74, 107
12, 24471, Note_on_c, 12, 74, 0
12, 24486, Note_on_c, 12, 60, 108
12, 24518, Control_c, 12, 11, 104
12, 24591, Note_on_c, 12, 60, 0
12, 24606, Note_on_c, 12, 72, 108
12, 24711, Note_on_c, 12, 72, 0
12, 24726, Note_on_c, 12, 59, 108
12, 24774, Control_c, 12, 11, 105
12, 24831, Note_on_c, 12, 59, 0
12, 24846, Note_on_c, 12, 71, 109
12, 24951, Note_on_c, 12, 71, 0
12, 24966, Note_on_c, 12, 57, 109
12, 25030, Control_c, 12, 11, 106
12, 25071, Note_on_c, 12, 57, 0
12, 25086, Note_on_c, 12, 69, 109
12, 25191, Note_on_c, 12, 69, 0
12, 25206, Note_on_c, 12, 56, 110
12, 25286, Control_c, 12, 11, 107
12, 25311, Note_on_c, 12, 56, 0
12, 25326, Note_on_c, 12, 68, 110
12, 25431, Note_on_c, 12, 68, 0
12, 25446, Note_on_c, 12, 55, 110
12, 25542, Control_c, 12, 11, 108
12, 25551, Note_on_c, 12, 55, 0
12, 25566, Note_on_c, 12, 67, 111
12, 25671, Note_on_c, 12, 67, 0
12, 25686, Note_on_c, 12, 54, 111
12, 25791, Note_on_c, 12, 54, 0
12, 25798, Control_c, 12, 11, 109
12, 25806, Note_on_c, 12, 66, 111
12, 25911, Note_on_c, 12, 66, 0
12, 25926, Note_on_c, 12, 67, 112
12, 25986, Note_on_c, 12, 67, 0
12, 26046, Note_on_c, 12, 77, 112
12, 26054, Control_c, 12, 11, 110
12, 26106, Note_on_c, 12, 77, 0
12, 26166, Note_on_c, 12, 76, 112
12, 26226, Note_on_c, 12, 76, 0
12, 26286, Note_on_c, 12, 74, 113
12, 26310, Control_c, 12, 11, 111
12, 26346, Note_on_c, 12, 74, 0
12, 26406, Note_on_c, 12, 72, 113
12, 26466, Note_on_c, 12, 72, 0
12, 26526, Note_on_c, 12, 71, 113
12, 26566, Control_c, 12, 11, 112
12, 26586, Note_on_c, 12, 71, 0
12, 26646, Note_on_c, 12, 69, 114
12, 26706, Note_on_c, 12, 69, 0
12, 26766, Note_on_c, 12, 67, 114
12, 26822, Control_c, 12, 11, 113
12, 26826, Note_on_c, 12, 67, 0
12, 26886, Note_on_c, 12, 65, 114
12, 26946, Note_on_c, 12, 65, 0
12, 27006, Note_on_c, 12, 64, 115
12, 27066, Note_on_c, 12, 64, 0
12, 27078, Control_c, 12, 11, 114
12, 27126, Note_on_c, 12, 62, 115
12, 27186, Note_on_c, 12, 62, 0
12, 27246, Note_on_c, 12, 60, 115
12, 27306, Note_on_c, 12, 60, 0
12, 27334, Control_c, 12, 11, 115
12, 27366, Note_on_c, 12, 59, 116
12, 27426, Note_on_c, 12, 59, 0
12, 27486, Note_on_c, 12, 55, 116
12, 27546, Note_on_c, 12, 55, 0
12, 27590, Control_c, 12, 11, 116
12, 27606, Note_on_c, 12, 60, 117
12, 27666, Note_on_c, 12, 60, 0
12, 27726, Note_on_c, 12, 48, 117
12, 27726, Note_on_c, 12, 60, 117
12, 27786, Note_on_c, 12, 60, 0
12, 27786, Note_on_c, 12, 48, 0
12, 27846, Control_c, 12, 11, 117
12, 27966, Note_on_c, 12, 48, 117
12, 27966, Note_on_c, 12, 60, 117
12, 28086, Note_on_c, 12, 60, 0
12, 28086, Note_on_c, 12, 48, 0
12, 28206, Note_on_c, 12, 48, 117
12, 28206, Note_on_c, 12, 60, 117
12, 28326, Note_on_c, 12, 60, 0
12, 28326, Note_on_c, 12, 48, 0
12, 28446, Control_c, 12, 11, 77
12, 28446, Note_on_c, 12, 60, 117
12, 28446, Note_on_c, 12, 48, 117
12, 28566, Note_on_c, 12, 48, 0
12, 28566, Note_on_c, 12, 60, 0
12, 29406, Control_c, 12, 11, 77
12, 29406, Note_on_c, 12, 48, 117
12, 29406, Note_on_c, 12, 60, 117
12, 29526, Note_on_c, 12, 60, 0
12, 29526, Note_on_c, 12, 48, 0
12, 30366, Control_c, 12, 11, 77
12, 30366, Note_on_c, 12, 55, 117
12, 30366, Note_on_c, 12, 48, 117
12, 30471, Note_on_c, 12, 48, 0
12, 30471, Note_on_c, 12, 55, 0
12, 30486, Control_c, 12, 11, 77
12, 30486, Note_on_c, 12, 48, 117
12, 30486, Note_on_c, 12, 55, 117
12, 30504, Control_c, 12, 11, 74
12, 30522, Control_c, 12, 11, 71
12, 30540, Control_c, 12, 11, 68
12, 30558, Control_c, 12, 11, 65
12, 30576, Control_c, 12, 11, 62
12, 30594, Control_c, 12, 11, 59
12, 30831, Note_on_c, 12, 55, 0
12, 30831, Note_on_c, 12, 48, 0
12, 30846, Note_on_c, 12, 52, 117
12, 30846, Note_on_c, 12, 55, 117
12, 30951, Note_on_c, 12, 55, 0
12, 30951, Note_on_c, 12, 52, 0
12, 30966, Note_on_c, 12, 52, 117
12, 30966, Note_on_c, 12, 55, 117
12, 31086, Control_c, 12, 11, 57
12, 31138, Control_c, 12, 11, 58
12, 31190, Control_c, 12, 11, 59
12, 31242, Control_c, 12, 11, 60
12, 31294, Control_c, 12, 11, 61
12, 31311, Note_on_c, 12, 55, 0
12, 31311, Note_on_c, 12, 52, 0
12, 31326, Note_on_c, 12, 57, 117
12, 31326, Note_on_c, 12, 53, 117
12, 31346, Control_c, 12, 11, 62
12, 31398, Control_c, 12, 11, 63
12, 31431, Note_on_c, 12, 53, 0
12, 31431, Note_on_c, 12, 57, 0
12, 31446, Note_on_c, 12, 53, 117
12, 31446, Note_on_c, 12, 57, 117
12, 31450, Control_c, 12, 11, 64
12, 31502, Control_c, 12, 11, 65
12, 31554, Control_c, 12, 11, 66
12, 31606, Control_c, 12, 11, 67
12, 31658, Control_c, 12, 11, 68
12, 31710, Control_c, 12, 11, 69
12, 31762, Control_c, 12, 11, 70
12, 31791, Note_on_c, 12, 57, 0
12, 31791, Note_on_c, 12, 53, 0
12, 31806, Note_on_c, 12, 59, 117
12, 31806, Note_on_c, 12, 55, 117
12, 31814, Control_c, 12, 11, 71
12, 31866, Control_c, 12, 11, 72
12, 31911, Note_on_c, 12, 55, 0
12, 31911, Note_on_c, 12, 59, 0
12, 31918, Control_c, 12, 11, 73
12, 31926, Note_on_c, 12, 55, 117
12, 31926, Note_on_c, 12, 59, 117
12, 31970, Control_c, 12, 11, 74
12, 32022, Control_c, 12, 11, 75
12, 32074, Control_c, 12, 11, 76
12, 32126, Control_c, 12, 11, 77
12, 32178, Control_c, 12, 11, 78
12, 32230, Control_c, 12, 11, 79
12, 32271, Note_on_c, 12, 59, 0
12, 32271, Note_on_c, 12, 55, 0
12, 32282, Control_c, 12, 11, 80
12, 32286, Note_on_c, 12, 60, 117
12, 32286, Note_on_c, 12, 57, 117
12, 32334, Control_c, 12, 11, 81
12, 32386, Control_c, 12, 11, 82
12, 32391, Note_on_c, 12, 57, 0
12, 32391, Note_on_c, 12, 60, 0
12, 32406, Note_on_c, 12, 60, 117
12, 32406, Note_on_c, 12, 57, 117
12, 32438, Control_c, 12, 11, 83
12, 32490, Control_c, 12, 11, 84
12, 32542, Control_c, 12, 11, 85
12, 32594, Control_c, 12, 11, 86
12, 32646, Control_c, 12, 11, 87
12, 32751, Note_on_c, 12, 57, 0
12, 32751, Note_on_c, 12, 60, 0
12, 32766, Note_on_c, 12, 52, 117
12, 32766, Note_on_c, 12, 55, 117
12, 32871, Note_on_c, 12, 55, 0
12, 32871, Note_on_c, 12, 52, 0
12, 32886, Note_on_c, 12, 52, 117
12, 32886, Note_on_c, 12, 55, 117
12, 33231, Note_on_c, 12, 55, 0
12, 33231, Note_on_c, 12, 52, 0
12, 33246, Control_c, 12, 11, 95
12, 33246, Note_on_c, 12, 57, 117
12, 33246, Note_on_c, 12, 53, 117
12, 33351, Note_on_c, 12, 53, 0
12, 33351, Note_on_c, 12, 57, 0
12, 33366, Note_on_c, 12, 57, 117
12, 33366, Note_on_c, 12, 53, 117
12, 33711, Note_on_c, 12, 53, 0
12, 33711, Note_on_c, 12, 57, 0
12, 33726, Note_on_c, 12, 53, 117
12, 33726, Note_on_c, 12, 57, 117
12, 33831, Note_on_c, 12, 57, 0
12, 33831, Note_on_c, 12, 53, 0
12, 33846, Note_on_c, 12, 53, 117
12, 33846, Note_on_c, 12, 57, 117
12, 34191, Note_on_c, 12, 57, 0
12, 34191, Note_on_c, 12, 53, 0
12, 34206, Note_on_c, 12, 54, 117
12, 34206, Note_on_c, 12, 57, 117
12, 34311, Note_on_c, 12, 57, 0
12, 34311, Note_on_c, 12, 54, 0
12, 34326, Note_on_c, 12, 54, 117
12, 34326, Note_on_c, 12, 57, 117
12, 34671, Note_on_c, 12, 57, 0
12, 34671, Note_on_c, 12, 54, 0
12, 34686, Note_on_c, 12, 57, 117
12, 34686, Note_on_c, 12, 54, 117
12, 34791, Note_on_c, 12, 54, 0
12, 34791, Note_on_c, 12, 57, 0
12, 34806, Note_on_c, 12, 54, 117
12, 34806, Note_on_c, 12, 57, 117
12, 35046, Note_on_c, 12, 57, 0
12, 35046, Note_on_c, 12, 54, 0
12, 35046, Note_on_c, 12, 55, 117
12, 35151, Note_on_c, 12, 55, 0
12, 35166, Control_c, 12, 11, 102
12, 35166, Note_on_c, 12, 67, 100
12, 35346, Control_c, 12, 11, 102
12, 35353, Control_c, 12, 11, 99
12, 35361, Control_c, 12, 11, 96
12, 35369, Control_c, 12, 11, 93
12, 35377, Control_c, 12, 11, 90
12, 35387, Control_c, 12, 11, 87
12, 35391, Note_on_c, 12, 67, 0
12, 35395, Control_c, 12, 11, 84
12, 35403, Control_c, 12, 11, 81
12, 35406, Note_on_c, 12, 64, 100
12, 35411, Control_c, 12, 11, 78
12, 35418, Control_c, 12, 11, 75
12, 35429, Control_c, 12, 11, 72
12, 35437, Control_c, 12, 11, 69
12, 35444, Control_c, 12, 11, 66
12, 35452, Control_c, 12, 11, 63
12, 35463, Control_c, 12, 11, 60
12, 35470, Control_c, 12, 11, 57
12, 35478, Control_c, 12, 11, 54
12, 35486, Control_c, 12, 11, 51
12, 35494, Control_c, 12, 11, 48
12, 35511, Note_on_c, 12, 64, 0
12, 35526, Note_on_c, 12, 65, 100
12, 35586, Note_on_c, 12, 65, 0
12, 35646, Note_on_c, 12, 62, 100
12, 35706, Note_on_c, 12, 62, 0
12, 35766, Note_on_c, 12, 64, 100
12, 35826, Note_on_c, 12, 64, 0
12, 35886, Note_on_c, 12, 60, 100
12, 35946, Note_on_c, 12, 60, 0
12, 36006, Note_on_c, 12, 62, 100
12, 36066, Note_on_c, 12, 62, 0
12, 36126, Note_on_c, 12, 59, 100
12, 36186, Note_on_c, 12, 59, 0
12, 36246, Note_on_c, 12, 60, 100
12, 36306, Note_on_c, 12, 60, 0
12, 36366, Note_on_c, 12, 57, 100
12, 36426, Note_on_c, 12, 57, 0
12, 36486, Note_on_c, 12, 59, 100
12, 36546, Note_on_c, 12, 59, 0
12, 36606, Note_on_c, 12, 55, 100
12, 36666, Note_on_c, 12, 55, 0
12, 36726, Note_on_c, 12, 57, 100
12, 36786, Note_on_c, 12, 57, 0
12, 36846, Note_on_c, 12, 55, 100
12, 36906, Note_on_c, 12, 55, 0
12, 36966, Control_c, 12, 11, 47
12, 36966, Note_on_c, 12, 57, 100
12, 36999, Control_c, 12, 11, 48
12, 37026, Note_on_c, 12, 57, 0
12, 37033, Control_c, 12, 11, 49
12, 37067, Control_c, 12, 11, 50
12, 37086, Note_on_c, 12, 55, 101
12, 37101, Control_c, 12, 11, 51
12, 37135, Control_c, 12, 11, 52
12, 37146, Note_on_c, 12, 55, 0
12, 37168, Control_c, 12, 11, 53
12, 37202, Control_c, 12, 11, 54
12, 37206, Note_on_c, 12, 57, 102
12, 37236, Control_c, 12, 11, 55
12, 37266, Note_on_c, 12, 57, 0
12, 37270, Control_c, 12, 11, 56
12, 37304, Control_c, 12, 11, 57
12, 37326, Note_on_c, 12, 55, 103
12, 37338, Control_c, 12, 11, 58
12, 37371, Control_c, 12, 11, 59
12, 37386, Note_on_c, 12, 55, 0
12, 37405, Control_c, 12, 11, 60
12, 37439, Control_c, 12, 11, 61
12, 37446, Note_on_c, 12, 57, 104
12, 37473, Control_c, 12, 11, 62
12, 37506, Note_on_c, 12, 57, 0
12, 37507, Control_c, 12, 11, 63
12, 37540, Control_c, 12, 11, 64
12, 37566, Note_on_c, 12, 55, 105
12, 37574, Control_c, 12, 11, 65
12, 37608, Control_c, 12, 11, 66
12, 37626, Note_on_c, 12, 55, 0
12, 37642, Control_c, 12, 11, 67
12, 37676, Control_c, 12, 11, 68
12, 37686, Note_on_c, 12, 53, 106
12, 37710, Control_c, 12, 11, 69
12, 37743, Control_c, 12, 11, 70
12, 37746, Note_on_c, 12, 53, 0
12, 37777, Control_c, 12, 11, 71
12, 37806, Note_on_c, 12, 55, 107
12, 37811, Control_c, 12, 11, 72
12, 37845, Control_c, 12, 11, 73
12, 37866, Note_on_c, 12, 55, 0
12, 37879, Control_c, 12, 11, 74
12, 37912, Control_c, 12, 11, 75
12, 37926, Note_on_c, 12, 52, 108
12, 37946, Control_c, 12, 11, 76
12, 37980, Control_c, 12, 11, 77
12, 37986, Note_on_c, 12, 52, 0
12, 38014, Control_c, 12, 11, 78
12, 38046, Note_on_c, 12, 55, 109
12, 38048, Control_c, 12, 11, 79
12, 38082, Control_c, 12, 11, 80
12, 38106, Note_on_c, 12, 55, 0
12, 38115, Control_c, 12, 11, 81
12, 38149, Control_c, 12, 11, 82
12, 38166, Note_on_c, 12, 50, 110
12, 38183, Control_c, 12, 11, 83
12, 38217, Control_c, 12, 11, 84
12, 38226, Note_on_c, 12, 50, 0
12, 38251, Control_c, 12, 11, 85
12, 38284, Control_c, 12, 11, 86
12, 38286, Note_on_c, 12, 55, 111
12, 38318, Control_c, 12, 11, 87
12, 38346, Note_on_c, 12, 55, 0
12, 38352, Control_c, 12, 11, 88
12, 38386, Control_c, 12, 11, 89
12, 38406, Note_on_c, 12, 48, 112
12, 38420, Control_c, 12, 11, 90
12, 38454, Control_c, 12, 11, 91
12, 38466, Note_on_c, 12, 48, 0
12, 38487, Control_c, 12, 11, 92
12, 38521, Control_c, 12, 11, 93
12, 38526, Note_on_c, 12, 55, 113
12, 38555, Control_c, 12, 11, 94
12, 38586, Note_on_c, 12, 55, 0
12, 38589, Control_c, 12, 11, 95
12, 38623, Control_c, 12, 11, 96
12, 38646, Note_on_c, 12, 59, 114
12, 38656, Control_c, 12, 11, 97
12, 38690, Control_c, 12, 11, 98
12, 38706, Note_on_c, 12, 59, 0
12, 38724, Control_c, 12, 11, 99
12, 38758, Control_c, 12, 11, 100
12, 38792, Control_c, 12, 11, 101
12, 38826, Control_c, 12, 11, 102
12, 38826, Note_on_c, 12, 52, 116
12, 38826, Note_on_c, 12, 55, 116
12, 38886, Note_on_c, 12, 55, 0
12, 38886, Note_on_c, 12, 52, 0
12, 38886, Note_on_c, 12, 48, 117
12, 38886, Note_on_c, 12, 52, 117
12, 39006, Note_on_c, 12, 52, 0
12, 39006, Note_on_c, 12, 48, 0
12, 39066, Note_on_c, 12, 60, 117
12, 39066, Note_on_c, 12, 55, 117
12, 39126, Note_on_c, 12, 55, 0
12, 39126, Note_on_c, 12, 60, 0
12, 39126, Note_on_c, 12, 52, 117
12, 39126, Note_on_c, 12, 55, 117
12, 39246, Note_on_c, 12, 55, 0
12, 39246, Note_on_c, 12, 52, 0
12, 39306, Note_on_c, 12, 64, 117
12, 39306, Note_on_c, 12, 60, 117
12, 39366, Note_on_c, 12, 60, 0
12, 39366, Note_on_c, 12, 64, 0
12, 39366, Note_on_c, 12, 60, 117
12, 39416, Note_on_c, 12, 60, 0
12, 39426, Note_on_c, 12, 60, 117
12, 39476, Note_on_c, 12, 60, 0
12, 39486, Note_on_c, 12, 67, 117
12, 39486, Note_on_c, 12, 64, 117
12, 39536, Note_on_c, 12, 64, 0
12, 39536, Note_on_c, 12, 67, 0
12, 39546, Note_on_c, 12, 64, 117
12, 39546, Note_on_c, 12, 67, 117
12, 39596, Note_on_c, 12, 67, 0
12, 39596, Note_on_c, 12, 64, 0
12, 39606, Note_on_c, 12, 60, 117
12, 39606, Note_on_c, 12, 64, 117
12, 39656, Note_on_c, 12, 64, 0
12, 39656, Note_on_c, 12, 60, 0
12, 39666, Note_on_c, 12, 64, 117
12, 39666, Note_on_c, 12, 60, 117
12, 39716, Note_on_c, 12, 60, 0
12, 39716, Note_on_c, 12, 64, 0
12, 39726, Note_on_c, 12, 55, 117
12, 39726, Note_on_c, 12, 60, 117
12, 39776, Note_on_c, 12, 60, 0
12, 39776, Note_on_c, 12, 55, 0
12, 39786, Note_on_c, 12, 60, 117
12, 39786, Note_on_c, 12, 55, 117
12, 39836, Note_on_c, 12, 55, 0
12, 39836, Note_on_c, 12, 60, 0
12, 39846, Note_on_c, 12, 52, 117
12, 39846, Note_on_c, 12, 55, 117
12, 39896, Note_on_c, 12, 55, 0
12, 39896, Note_on_c, 12, 52, 0
12, 39906, Note_on_c, 12, 52, 117
12, 39906, Note_on_c, 12, 55, 117
12, 39956, Note_on_c, 12, 55, 0
12, 39956, Note_on_c, 12, 52, 0
12, 39966, Note_on_c, 12, 48, 117
12, 39966, Note_on_c, 12, 52, 117
12, 40016, Note_on_c, 12, 52, 0
12, 40016, Note_on_c, 12, 48, 0
12, 40026, Note_on_c, 12, 48, 117
12, 40026, Note_on_c, 12, 52, 117
12, 40076, Note_on_c, 12, 52, 0
12, 40076, Note_on_c, 12, 48, 0
12, 40086, Note_on_c, 12, 55, 117
12, 40086, Note_on_c, 12, 52, 117
12, 40136, Note_on_c, 12, 52, 0
12, 40136, Note_on_c, 12, 55, 0
12, 40146, Note_on_c, 12, 55, 117
12, 40146, Note_on_c, 12, 52, 117
12, 40196, Note_on_c, 12, 52, 0
12, 40196, Note_on_c, 12, 55, 0
12, 40206, Note_on_c, 12, 57, 117
12, 40206, Note_on_c, 12, 53, 117
12, 40256, Note_on_c, 12, 53, 0
12, 40256, Note_on_c, 12, 57, 0
12, 40266, Note_on_c, 12, 53, 117
12, 40266, Note_on_c, 12, 57, 117
12, 40316, Note_on_c, 12, 57, 0
12, 40316, Note_on_c, 12, 53, 0
12, 40326, Note_on_c, 12, 52, 117
12, 40326, Note_on_c, 12, 55, 117
12, 40376, Note_on_c, 12, 55, 0
12, 40376, Note_on_c, 12, 52, 0
12, 40386, Note_on_c, 12, 52, 117
12, 40386, Note_on_c, 12, 55, 117
12, 40436, Note_on_c, 12, 55, 0
12, 40436, Note_on_c, 12, 52, 0
12, 40446, Note_on_c, 12, 67, 117
12, 40446, Note_on_c, 12, 64, 117
12, 40496, Note_on_c, 12, 64, 0
12, 40496, Note_on_c, 12, 67, 0
12, 40506, Note_on_c, 12, 64, 117
12, 40506, Note_on_c, 12, 67, 117
12, 40556, Note_on_c, 12, 67, 0
12, 40556, Note_on_c, 12, 64, 0
12, 40566, Note_on_c, 12, 60, 117
12, 40566, Note_on_c, 12, 64, 117
12, 40616, Note_on_c, 12, 64, 0
12, 40616, Note_on_c, 12, 60, 0
12, 40626, Note_on_c, 12, 64, 117
12, 40626, Note_on_c, 12, 60, 117
12, 40676, Note_on_c, 12, 60, 0
12, 40676, Note_on_c, 12, 64, 0
12, 40686, Note_on_c, 12, 55, 117
12, 40686, Note_on_c, 12, 60, 117
12, 40736, Note_on_c, 12, 60, 0
12, 40736, Note_on_c, 12, 55, 0
12, 40746, Note_on_c, 12, 60, 117
12, 40746, Note_on_c, 12, 55, 117
12, 40796, Note_on_c, 12, 55, 0
12, 40796, Note_on_c, 12, 60, 0
12, 40806, Note_on_c, 12, 52, 117
12, 40806, Note_on_c, 12, 55, 117
12, 40856, Note_on_c, 12, 55, 0
12, 40856, Note_on_c, 12, 52, 0
12, 40866, Note_on_c, 12, 52, 117
12, 40866, Note_on_c, 12, 55, 117
12, 40916, Note_on_c, 12, 55, 0
12, 40916, Note_on_c, 12, 52, 0
12, 40926, Note_on_c, 12, 48, 117
12, 40926, Note_on_c, 12, 52, 117
12, 40976, Note_on_c, 12, 52, 0
12, 40976, Note_on_c, 12, 48, 0
12, 40986, Note_on_c, 12, 52, 117
12, 40986, Note_on_c, 12, 48, 117
12, 41036, Note_on_c, 12, 48, 0
12, 41036, Note_on_c, 12, 52, 0
12, 41046, Note_on_c, 12, 55, 117
12, 41046, Note_on_c, 12, 52, 117
12, 41096, Note_on_c, 12, 52, 0
12, 41096, Note_on_c, 12, 55, 0
12, 41106, Note_on_c, 12, 55, 117
12, 41106, Note_on_c, 12, 52, 117
12, 41156, Note_on_c, 12, 52, 0
12, 41156, Note_on_c, 12, 55, 0
12, 41166, Note_on_c, 12, 57, 117
12, 41166, Note_on_c, 12, 53, 117
12, 41216, Note_on_c, 12, 53, 0
12, 41216, Note_on_c, 12, 57, 0
12, 41226, Note_on_c, 12, 53, 117
12, 41226, Note_on_c, 12, 57, 117
12, 41276, Note_on_c, 12, 57, 0
12, 41276, Note_on_c, 12, 53, 0
12, 41286, Note_on_c, 12, 52, 117
12, 41286, Note_on_c, 12, 55, 117
12, 41336, Note_on_c, 12, 55, 0
12, 41336, Note_on_c, 12, 52, 0
12, 41346, Note_on_c, 12, 52, 117
12, 41346, Note_on_c, 12, 55, 117
12, 41396, Note_on_c, 12, 55, 0
12, 41396, Note_on_c, 12, 52, 0
12, 41406, Note_on_c, 12, 64, 117
12, 41406, Note_on_c, 12, 67, 117
12, 41456, Note_on_c, 12, 67, 0
12, 41456, Note_on_c, 12, 64, 0
12, 41466, Note_on_c, 12, 64, 117
12, 41466, Note_on_c, 12, 67, 117
12, 41516, Note_on_c, 12, 67, 0
12, 41516, Note_on_c, 12, 64, 0
12, 41526, Note_on_c, 12, 60, 117
12, 41526, Note_on_c, 12, 64, 117
12, 41576, Note_on_c, 12, 64, 0
12, 41576, Note_on_c, 12, 60, 0
12, 41586, Note_on_c, 12, 64, 117
12, 41586, Note_on_c, 12, 60, 117
12, 41636, Note_on_c, 12, 60, 0
12, 41636, Note_on_c, 12, 64, 0
12, 41646, Note_on_c, 12, 55, 117
12, 41646, Note_on_c, 12, 60, 117
12, 41696, Note_on_c, 12, 60, 0
12, 41696, Note_on_c, 12, 55, 0
12, 41706, Note_on_c, 12, 60, 117
12, 41706, Note_on_c, 12, 55, 117
12, 41756, Note_on_c, 12, 55, 0
12, 41756, Note_on_c, 12, 60, 0
12, 41766, Note_on_c, 12, 64, 117
12, 41766, Note_on_c, 12, 60, 117
12, 41816, Note_on_c, 12, 60, 0
12, 41816, Note_on_c, 12, 64, 0
12, 41826, Note_on_c, 12, 60, 117
12, 41826, Note_on_c, 12, 64, 117
12, 41876, Note_on_c, 12, 64, 0
12, 41876, Note_on_c, 12, 60, 0
12, 41886, Note_on_c, 12, 55, 117
12, 41886, Note_on_c, 12, 60, 117
12, 41936, Note_on_c, 12, 60, 0
12, 41936, Note_on_c, 12, 55, 0
12, 41946, Note_on_c, 12, 60, 117
12, 41946, Note_on_c, 12, 55, 117
12, 41996, Note_on_c, 12, 55, 0
12, 41996, Note_on_c, 12, 60, 0
12, 42006, Note_on_c, 12, 52, 117
12, 42006, Note_on_c, 12, 55, 117
12, 42056, Note_on_c, 12, 55, 0
12, 42056, Note_on_c, 12, 52, 0
12, 42066, Note_on_c, 12, 55, 117
12, 42066, Note_on_c, 12, 52, 117
12, 42116, Note_on_c, 12, 52, 0
12, 42116, Note_on_c, 12, 55, 0
12, 42126, Note_on_c, 12, 48, 117
12, 42126, Note_on_c, 12, 52, 117
12, 42176, Note_on_c, 12, 52, 0
12, 42176, Note_on_c, 12, 48, 0
12, 42186, Note_on_c, 12, 52, 117
12, 42186, Note_on_c, 12, 48, 117
12, 42236, Note_on_c, 12, 48, 0
12, 42236, Note_on_c, 12, 52, 0
12, 42246, Note_on_c, 12, 69, 117
12, 42296, Note_on_c, 12, 69, 0
12, 42306, Note_on_c, 12, 69, 117
12, 42356, Note_on_c, 12, 69, 0
12, 42366, Note_on_c, 12, 65, 117
12, 42416, Note_on_c, 12, 65, 0
12, 42426, Note_on_c, 12, 65, 117
12, 42476, Note_on_c, 12, 65, 0
12, 42486, Note_on_c, 12, 62, 117
12, 42536, Note_on_c, 12, 62, 0
12, 42546, Note_on_c, 12, 62, 117
12, 42596, Note_on_c, 12, 62, 0
12, 42606, Note_on_c, 12, 57, 117
12, 42656, Note_on_c, 12, 57, 0
12, 42666, Note_on_c, 12, 57, 117
12, 42716, Note_on_c, 12, 57, 0
12, 42726, Note_on_c, 12, 65, 117
12, 42776, Note_on_c, 12, 65, 0
12, 42786, Note_on_c, 12, 65, 117
12, 42836, Note_on_c, 12, 65, 0
12, 42846, Note_on_c, 12, 62, 117
12, 42896, Note_on_c, 12, 62, 0
12, 42906, Note_on_c, 12, 62, 117
12, 42956, Note_on_c, 12, 62, 0
12, 42966, Note_on_c, 12, 59, 117
12, 43016, Note_on_c, 12, 59, 0
12, 43026, Note_on_c, 12, 59, 117
12, 43076, Note_on_c, 12, 59, 0
12, 43086, Note_on_c, 12, 53, 117
12, 43136, Note_on_c, 12, 53, 0
12, 43146, Note_on_c, 12, 53, 117
12, 43196, Note_on_c, 12, 53, 0
12, 43206, Note_on_c, 12, 60, 117
12, 43256, Note_on_c, 12, 60, 0
12, 43266, Note_on_c, 12, 60, 117
12, 43316, Note_on_c, 12, 60, 0
12, 43326, Note_on_c, 12, 57, 117
12, 43376, Note_on_c, 12, 57, 0
12, 43386, Note_on_c, 12, 57, 117
12, 43436, Note_on_c, 12, 57, 0
12, 43446, Note_on_c, 12, 52, 117
12, 43496, Note_on_c, 12, 52, 0
12, 43506, Note_on_c, 12, 52, 117
12, 43556, Note_on_c, 12, 52, 0
12, 43566, Note_on_c, 12, 48, 117
12, 43616, Note_on_c, 12, 48, 0
12, 43626, Note_on_c, 12, 48, 117
12, 43676, Note_on_c, 12, 48, 0
12, 43686, Note_on_c, 12, 67, 117
12, 43736, Note_on_c, 12, 67, 0
12, 43746, Note_on_c, 12, 67, 117
12, 43796, Note_on_c, 12, 67, 0
12, 43806, Note_on_c, 12, 64, 117
12, 43856, Note_on_c, 12, 64, 0
12, 43866, Note_on_c, 12, 64, 117
12, 43916, Note_on_c, 12, 64, 0
12, 43926, Note_on_c, 12, 60, 117
12, 43976, Note_on_c, 12, 60, 0
12, 43986, Note_on_c, 12, 60, 117
12, 44036, Note_on_c, 12, 60, 0
12, 44046, Note_on_c, 12, 55, 117
12, 44096, Note_on_c, 12, 55, 0
12, 44106, Note_on_c, 12, 55, 117
12, 44156, Note_on_c, 12, 55, 0
12, 44166, Note_on_c, 12, 60, 117
12, 44216, Note_on_c, 12, 60, 0
12, 44226, Note_on_c, 12, 60, 117
12, 44276, Note_on_c, 12, 60, 0
12, 44286, Note_on_c, 12, 57, 117
12, 44336, Note_on_c, 12, 57, 0
12, 44346, Note_on_c, 12, 57, 117
12, 44396, Note_on_c, 12, 57, 0
12, 44406, Note_on_c, 12, 53, 117
12, 44456, Note_on_c, 12, 53, 0
12, 44466, Note_on_c, 12, 53, 117
12, 44516, Note_on_c, 12, 53, 0
12, 44526, Note_on_c, 12, 48, 117
12, 44576, Note_on_c, 12, 48, 0
12, 44586, Note_on_c, 12, 48, 117
12, 44636, Note_on_c, 12, 48, 0
12, 44646, Note_on_c, 12, 60, 117
12, 44696, Note_on_c, 12, 60, 0
12, 44706, Note_on_c, 12, 60, 117
12, 44756, Note_on_c, 12, 60, 0
12, 44766, Note_on_c, 12, 57, 117
12, 44816, Note_on_c, 12, 57, 0
12, 44826, Note_on_c, 12, 57, 117
12, 44876, Note_on_c, 12, 57, 0
12, 44886, Note_on_c, 12, 53, 117
12, 44936, Note_on_c, 12, 53, 0
12, 44946, Note_on_c, 12, 53, 117
12, 44996, Note_on_c, 12, 53, 0
12, 45006, Note_on_c, 12, 48, 117
12, 45056, Note_on_c, 12, 48, 0
12, 45066, Note_on_c, 12, 48, 117
12, 45116, Note_on_c, 12, 48, 0
12, 45126, Note_on_c, 12, 60, 117
12, 45176, Note_on_c, 12, 60, 0
12, 45186, Note_on_c, 12, 60, 117
12, 45236, Note_on_c, 12, 60, 0
12, 45246, Note_on_c, 12, 57, 117
12, 45296, Note_on_c, 12, 57, 0
12, 45306, Note_on_c, 12, 57, 117
12, 45356, Note_on_c, 12, 57, 0
12, 45366, Note_on_c, 12, 54, 117
12, 45416, Note_on_c, 12, 54, 0
12, 45426, Note_on_c, 12, 54, 117
12, 45476, Note_on_c, 12, 54, 0
12, 45486, Note_on_c, 12, 50, 117
12, 45536, Note_on_c, 12, 50, 0
12, 45546, Note_on_c, 12, 50, 117
12, 45596, Note_on_c, 12, 50, 0
12, 45606, Note_on_c, 12, 60, 117
12, 45656, Note_on_c, 12, 60, 0
12, 45666, Note_on_c, 12, 60, 117
12, 45716, Note_on_c, 12, 60, 0
12, 45726, Note_on_c, 12, 57, 117
12, 45776, Note_on_c, 12, 57, 0
12, 45786, Note_on_c, 12, 57, 117
12, 45836, Note_on_c, 12, 57, 0
12, 45846, Note_on_c, 12, 54, 117
12, 45896, Note_on_c, 12, 54, 0
12, 45906, Note_on_c, 12, 54, 117
12, 45956, Note_on_c, 12, 54, 0
12, 45966, Note_on_c, 12, 50, 117
12, 46016, Note_on_c, 12, 50, 0
12, 46026, Note_on_c, 12, 50, 117
12, 46076, Note_on_c, 12, 50, 0
12, 46086, Note_on_c, 12, 54, 100
12, 46206, Note_on_c, 12, 54, 0
12, 48966, Control_c, 12, 11, 62
12, 48966, Note_on_c, 12, 57, 75
12, 48998, Control_c, 12, 11, 61
12, 49026, Note_on_c, 12, 57, 0
12, 49026, Note_on_c, 12, 54, 75
12, 49030, Control_c, 12, 11, 60
12, 49062, Control_c, 12, 11, 59
12, 49086, Note_on_c, 12, 54, 0
12, 49086, Note_on_c, 12, 57, 75
12, 49094, Control_c, 12, 11, 58
12, 49126, Control_c, 12, 11, 57
12, 49146, Note_on_c, 12, 57, 0
12, 49146, Note_on_c, 12, 54, 75
12, 49158, Control_c, 12, 11, 56
12, 49190, Control_c, 12, 11, 55
12, 49206, Note_on_c, 12, 54, 0
12, 49206, Note_on_c, 12, 57, 75
12, 49222, Control_c, 12, 11, 54
12, 49254, Control_c, 12, 11, 53
12, 49266, Note_on_c, 12, 57, 0
12, 49266, Note_on_c, 12, 54, 75
12, 49286, Control_c, 12, 11, 52
12, 49318, Control_c, 12, 11, 51
12, 49326, Note_on_c, 12, 54, 0
12, 49326, Note_on_c, 12, 57, 75
12, 49350, Control_c, 12, 11, 50
12, 49382, Control_c, 12, 11, 49
12, 49386, Note_on_c, 12, 57, 0
12, 49386, Note_on_c, 12, 54, 75
12, 49414, Control_c, 12, 11, 48
12, 49436, Note_on_c, 12, 54, 0
12, 49446, Control_c, 12, 11, 47
12, 49446, Note_on_c, 12, 57, 75
12, 49506, Note_on_c, 12, 57, 0
12, 49506, Note_on_c, 12, 54, 75
12, 49566, Note_on_c, 12, 54, 0
12, 49566, Note_on_c, 12, 57, 75
12, 49626, Note_on_c, 12, 57, 0
12, 49626, Note_on_c, 12, 54, 75
12, 49686, Note_on_c, 12, 54, 0
12, 49686, Note_on_c, 12, 57, 75
12, 49746, Note_on_c, 12, 57, 0
12, 49746, Note_on_c, 12, 54, 75
12, 49806, Note_on_c, 12, 54, 0
12, 49806, Note_on_c, 12, 57, 75
12, 49866, Note_on_c, 12, 57, 0
12, 49866, Note_on_c, 12, 54, 75
12, 49916, Note_on_c, 12, 54, 0
12, 49926, Note_on_c, 12, 57, 80
12, 49986, Note_on_c, 12, 57, 0
12, 49986, Note_on_c, 12, 54, 80
12, 49986, Note_on_c, 12, 57, 80
12, 50046, Note_on_c, 12, 57, 0
12, 50046, Note_on_c, 12, 54, 0
12, 50046, Note_on_c, 12, 57, 80
12, 50046, Note_on_c, 12, 60, 80
12, 50106, Note_on_c, 12, 60, 0
12, 50106, Note_on_c, 12, 57, 0
12, 50106, Note_on_c, 12, 54, 80
12, 50106, Note_on_c, 12, 57, 80
12, 50166, Note_on_c, 12, 57, 0
12, 50166, Note_on_c, 12, 54, 0
12, 50166, Note_on_c, 12, 57, 80
12, 50166, Note_on_c, 12, 60, 80
12, 50226, Note_on_c, 12, 60, 0
12, 50226, Note_on_c, 12, 57, 0
12, 50226, Note_on_c, 12, 54, 80
12, 50226, Note_on_c, 12, 57, 80
12, 50286, Note_on_c, 12, 57, 0
12, 50286, Note_on_c, 12, 54, 0
12, 50286, Note_on_c, 12, 57, 80
12, 50286, Note_on_c, 12, 60, 80
12, 50346, Note_on_c, 12, 60, 0
12, 50346, Note_on_c, 12, 57, 0
12, 50346, Note_on_c, 12, 54, 80
12, 50346, Note_on_c, 12, 57, 80
12, 50396, Note_on_c, 12, 57, 0
12, 50396, Note_on_c, 12, 54, 0
12, 50406, Note_on_c, 12, 60, 80
12, 50406, Note_on_c, 12, 57, 80
12, 50466, Note_on_c, 12, 57, 0
12, 50466, Note_on_c, 12, 60, 0
12, 50466, Note_on_c, 12, 54, 80
12, 50466, Note_on_c, 12, 57, 80
12, 50526, Note_on_c, 12, 57, 0
12, 50526, Note_on_c, 12, 54, 0
12, 50526, Note_on_c, 12, 60, 80
12, 50526, Note_on_c, 12, 57, 80
12, 50586, Note_on_c, 12, 57, 0
12, 50586, Note_on_c, 12, 60, 0
12, 50586, Note_on_c, 12, 54, 80
12, 50586, Note_on_c, 12, 57, 80
12, 50646, Note_on_c, 12, 57, 0
12, 50646, Note_on_c, 12, 54, 0
12, 50646, Note_on_c, 12, 60, 80
12, 50646, Note_on_c, 12, 57, 80
12, 50706, Note_on_c, 12, 57, 0
12, 50706, Note_on_c, 12, 60, 0
12, 50706, Note_on_c, 12, 54, 80
12, 50706, Note_on_c, 12, 57, 80
12, 50766, Note_on_c, 12, 57, 0
12, 50766, Note_on_c, 12, 54, 0
12, 50766, Note_on_c, 12, 60, 80
12, 50766, Note_on_c, 12, 57, 80
12, 50826, Note_on_c, 12, 57, 0
12, 50826, Note_on_c, 12, 60, 0
12, 50826, Note_on_c, 12, 54, 80
12, 50826, Note_on_c, 12, 57, 80
12, 50876, Note_on_c, 12, 57, 0
12, 50876, Note_on_c, 12, 54, 0
12, 50886, Control_c, 12, 11, 62
12, 50886, Note_on_c, 12, 63, 80
12, 50886, Note_on_c, 12, 60, 80
12, 50918, Control_c, 12, 11, 61
12, 50946, Note_on_c, 12, 60, 0
12, 50946, Note_on_c, 12, 63, 0
12, 50946, Note_on_c, 12, 57, 80
12, 50946, Note_on_c, 12, 60, 80
12, 50950, Control_c, 12, 11, 60
12, 50982, Control_c, 12, 11, 59
12, 51006, Note_on_c, 12, 60, 0
12, 51006, Note_on_c, 12, 57, 0
12, 51006, Note_on_c, 12, 60, 80
12, 51006, Note_on_c, 12, 63, 80
12, 51014, Control_c, 12, 11, 58
12, 51046, Control_c, 12, 11, 57
12, 51066, Note_on_c, 12, 63, 0
12, 51066, Note_on_c, 12, 60, 0
12, 51066, Note_on_c, 12, 57, 80
12, 51066, Note_on_c, 12, 60, 80
12, 51078, Control_c, 12, 11, 56
12, 51110, Control_c, 12, 11, 55
12, 51126, Note_on_c, 12, 60, 0
12, 51126, Note_on_c, 12, 57, 0
12, 51126, Note_on_c, 12, 60, 80
12, 51126, Note_on_c, 12, 63, 80
12, 51142, Control_c, 12, 11, 54
12, 51174, Control_c, 12, 11, 53
12, 51186, Note_on_c, 12, 63, 0
12, 51186, Note_on_c, 12, 60, 0
12, 51186, Note_on_c, 12, 60, 80
12, 51186, Note_on_c, 12, 57, 80
12, 51206, Control_c, 12, 11, 52
12, 51238, Control_c, 12, 11, 51
12, 51246, Note_on_c, 12, 57, 0
12, 51246, Note_on_c, 12, 60, 0
12, 51246, Note_on_c, 12, 60, 80
12, 51246, Note_on_c, 12, 63, 80
12, 51270, Control_c, 12, 11, 50
12, 51302, Control_c, 12, 11, 49
12, 51306, Note_on_c, 12, 63, 0
12, 51306, Note_on_c, 12, 60, 0
12, 51306, Note_on_c, 12, 57, 80
12, 51306, Note_on_c, 12, 60, 80
12, 51334, Control_c, 12, 11, 48
12, 51356, Note_on_c, 12, 60, 0
12, 51356, Note_on_c, 12, 57, 0
12, 51366, Control_c, 12, 11, 47
12, 51366, Note_on_c, 12, 60, 80
12, 51366, Note_on_c, 12, 63, 80
12, 51426, Note_on_c, 12, 63, 0
12, 51426, Note_on_c, 12, 60, 0
12, 51426, Note_on_c, 12, 57, 80
12, 51426, Note_on_c, 12, 60, 80
12, 51486, Note_on_c, 12, 60, 0
12, 51486, Note_on_c, 12, 57, 0
12, 51486, Note_on_c, 12, 63, 80
12, 51486, Note_on_c, 12, 60, 80
12, 51546, Note_on_c, 12, 60, 0
12, 51546, Note_on_c, 12, 63, 0
12, 51546, Note_on_c, 12, 57, 80
12, 51546, Note_on_c, 12, 60, 80
12, 51606, Note_on_c, 12, 60, 0
12, 51606, Note_on_c, 12, 57, 0
12, 51606, Note_on_c, 12, 62, 80
12, 51606, Note_on_c, 12, 60, 80
12, 51666, Note_on_c, 12, 60, 0
12, 51666, Note_on_c, 12, 62, 0
12, 51666, Note_on_c, 12, 57, 80
12, 51666, Note_on_c, 12, 57, 80
12, 51716, Note_on_c, 12, 57, 0
12, 51726, Note_on_c, 12, 57, 0
12, 51726, Note_on_c, 12, 62, 80
12, 51726, Note_on_c, 12, 57, 80
12, 51786, Note_on_c, 12, 57, 0
12, 51786, Note_on_c, 12, 62, 0
12, 51786, Note_on_c, 12, 57, 80
12, 51786, Note_on_c, 12, 50, 80
12, 51836, Note_on_c, 12, 50, 0
12, 51836, Note_on_c, 12, 57, 0
12, 51846, Note_on_c, 12, 58, 80
12, 51846, Note_on_c, 12, 62, 80
12, 51906, Note_on_c, 12, 62, 0
12, 51906, Note_on_c, 12, 58, 0
12, 51906, Note_on_c, 12, 58, 80
12, 51906, Note_on_c, 12, 55, 80
12, 51966, Note_on_c, 12, 55, 0
12, 51966, Note_on_c, 12, 58, 0
12, 51966, Note_on_c, 12, 62, 80
12, 51966, Note_on_c, 12, 58, 80
12, 52026, Note_on_c, 12, 58, 0
12, 52026, Note_on_c, 12, 62, 0
12, 52026, Note_on_c, 12, 58, 80
12, 52026, Note_on_c, 12, 55, 80
12, 52086, Note_on_c, 12, 55, 0
12, 52086, Note_on_c, 12, 58, 0
12, 52086, Note_on_c, 12, 62, 80
12, 52086, Note_on_c, 12, 58, 80
12, 52136, Note_on_c, 12, 58, 0
12, 52136, Note_on_c, 12, 62, 0
12, 52146, Note_on_c, 12, 58, 80
12, 52146, Note_on_c, 12, 62, 80
12, 52176, Note_on_c, 12, 62, 0
12, 52176, Note_on_c, 12, 58, 0
12, 52206, Note_on_c, 12, 62, 80
12, 52206, Note_on_c, 12, 58, 80
12, 52236, Note_on_c, 12, 58, 0
12, 52236, Note_on_c, 12, 62, 0
12, 52266, Note_on_c, 12, 58, 80
12, 52266, Note_on_c, 12, 62, 80
12, 52296, Note_on_c, 12, 62, 0
12, 52296, Note_on_c, 12, 58, 0
12, 52326, Note_on_c, 12, 60, 80
12, 52326, Note_on_c, 12, 57, 80
12, 52386, Note_on_c, 12, 57, 0
12, 52386, Note_on_c, 12, 60, 0
12, 52386, Note_on_c, 12, 51, 80
12, 52386, Note_on_c, 12, 57, 80
12, 52446, Note_on_c, 12, 57, 0
12, 52446, Note_on_c, 12, 51, 0
12, 52446, Note_on_c, 12, 60, 80
12, 52446, Note_on_c, 12, 57, 80
12, 52506, Note_on_c, 12, 57, 0
12, 52506, Note_on_c, 12, 60, 0
12, 52506, Note_on_c, 12, 57, 80
12, 52506, Note_on_c, 12, 51, 80
12, 52566, Note_on_c, 12, 51, 0
12, 52566, Note_on_c, 12, 57, 0
12, 52566, Note_on_c, 12, 57, 80
12, 52566, Note_on_c, 12, 60, 80
12, 52616, Note_on_c, 12, 60, 0
12, 52616, Note_on_c, 12, 57, 0
12, 52626, Note_on_c, 12, 60, 80
12, 52626, Note_on_c, 12, 57, 80
12, 52656, Note_on_c, 12, 57, 0
12, 52656, Note_on_c, 12, 60, 0
12, 52686, Note_on_c, 12, 57, 80
12, 52686, Note_on_c, 12, 60, 80
12, 52716, Note_on_c, 12, 60, 0
12, 52716, Note_on_c, 12, 57, 0
12, 52746, Note_on_c, 12, 60, 80
12, 52746, Note_on_c, 12, 57, 80
12, 52776, Note_on_c, 12, 57, 0
12, 52776, Note_on_c, 12, 60, 0
12, 52806, Note_on_c, 12, 55, 80
12, 52806, Note_on_c, 12, 58, 80
12, 52866, Note_on_c, 12, 58, 0
12, 52866, Note_on_c, 12, 55, 0
12, 52866, Note_on_c, 12, 55, 80
12, 52866, Note_on_c, 12, 50, 80
12, 52926, Note_on_c, 12, 50, 0
12, 52926, Note_on_c, 12, 55, 0
12, 52926, Note_on_c, 12, 58, 80
12, 52926, Note_on_c, 12, 55, 80
12, 52986, Note_on_c, 12, 55, 0
12, 52986, Note_on_c, 12, 58, 0
12, 52986, Note_on_c, 12, 55, 80
12, 52986, Note_on_c, 12, 50, 80
12, 53046, Note_on_c, 12, 50, 0
12, 53046, Note_on_c, 12, 55, 0
12, 53046, Note_on_c, 12, 58, 80
12, 53046, Note_on_c, 12, 55, 80
12, 53096, Note_on_c, 12, 55, 0
12, 53096, Note_on_c, 12, 58, 0
12, 53106, Note_on_c, 12, 55, 80
12, 53106, Note_on_c, 12, 58, 80
12, 53136, Note_on_c, 12, 58, 0
12, 53136, Note_on_c, 12, 55, 0
12, 53166, Note_on_c, 12, 58, 80
12, 53166, Note_on_c, 12, 55, 80
12, 53196, Note_on_c, 12, 55, 0
12, 53196, Note_on_c, 12, 58, 0
12, 53226, Note_on_c, 12, 58, 80
12, 53226, Note_on_c, 12, 55, 80
12, 53256, Note_on_c, 12, 55, 0
12, 53256, Note_on_c, 12, 58, 0
12, 53286, Note_on_c, 12, 57, 80
12, 53286, Note_on_c, 12, 54, 80
12, 53346, Note_on_c, 12, 54, 0
12, 53346, Note_on_c, 12, 57, 0
12, 53346, Note_on_c, 12, 54, 80
12, 53346, Note_on_c, 12, 50, 80
12, 53406, Note_on_c, 12, 50, 0
12, 53406, Note_on_c, 12, 54, 0
12, 53406, Note_on_c, 12, 54, 80
12, 53406, Note_on_c, 12, 57, 80
12, 53466, Note_on_c, 12, 57, 0
12, 53466, Note_on_c, 12, 54, 0
12, 53466, Note_on_c, 12, 54, 80
12, 53466, Note_on_c, 12, 50, 80
12, 53516, Note_on_c, 12, 50, 0
12, 53516, Note_on_c, 12, 54, 0
12, 53526, Note_on_c, 12, 57, 80
12, 53526, Note_on_c, 12, 60, 80
12, 53586, Note_on_c, 12, 60, 0
12, 53586, Note_on_c, 12, 57, 0
12, 53586, Note_on_c, 12, 57, 80
12, 53586, Note_on_c, 12, 54, 80
12, 53646, Note_on_c, 12, 54, 0
12, 53646, Note_on_c, 12, 57, 0
12, 53646, Note_on_c, 12, 57, 80
12, 53646, Note_on_c, 12, 60, 80
12, 53706, Note_on_c, 12, 60, 0
12, 53706, Note_on_c, 12, 57, 0
12, 53706, Note_on_c, 12, 57, 80
12, 53706, Note_on_c, 12, 54, 80
12, 53756, Note_on_c, 12, 54, 0
12, 53756, Note_on_c, 12, 57, 0
12, 53766, Control_c, 12, 11, 62
12, 53766, Note_on_c, 12, 63, 80
12, 53766, Note_on_c, 12, 60, 80
12, 53798, Control_c, 12, 11, 61
12, 53826, Note_on_c, 12, 60, 0
12, 53826, Note_on_c, 12, 63, 0
12, 53826, Note_on_c, 12, 57, 80
12, 53826, Note_on_c, 12, 60, 80
12, 53830, Control_c, 12, 11, 60
12, 53862, Control_c, 12, 11, 59
12, 53886, Note_on_c, 12, 60, 0
12, 53886, Note_on_c, 12, 57, 0
12, 53886, Note_on_c, 12, 63, 80
12, 53886, Note_on_c, 12, 60, 80
12, 53894, Control_c, 12, 11, 58
12, 53926, Control_c, 12, 11, 57
12, 53946, Note_on_c, 12, 60, 0
12, 53946, Note_on_c, 12, 63, 0
12, 53946, Note_on_c, 12, 57, 80
12, 53946, Note_on_c, 12, 60, 80
12, 53958, Control_c, 12, 11, 56
12, 53990, Control_c, 12, 11, 55
12, 54006, Note_on_c, 12, 60, 0
12, 54006, Note_on_c, 12, 57, 0
12, 54006, Note_on_c, 12, 63, 80
12, 54006, Note_on_c, 12, 60, 80
12, 54022, Control_c, 12, 11, 54
12, 54054, Control_c, 12, 11, 53
12, 54066, Note_on_c, 12, 60, 0
12, 54066, Note_on_c, 12, 63, 0
12, 54066, Note_on_c, 12, 57, 80
12, 54066, Note_on_c, 12, 60, 80
12, 54086, Control_c, 12, 11, 52
12, 54118, Control_c, 12, 11, 51
12, 54126, Note_on_c, 12, 60, 0
12, 54126, Note_on_c, 12, 57, 0
12, 54126, Note_on_c, 12, 63, 80
12, 54126, Note_on_c, 12, 60, 80
12, 54150, Control_c, 12, 11, 50
12, 54182, Control_c, 12, 11, 49
12, 54186, Note_on_c, 12, 60, 0
12, 54186, Note_on_c, 12, 63, 0
12, 54186, Note_on_c, 12, 60, 80
12, 54186, Note_on_c, 12, 57, 80
12, 54214, Control_c, 12, 11, 48
12, 54236, Note_on_c, 12, 57, 0
12, 54236, Note_on_c, 12, 60, 0
12, 54246, Control_c, 12, 11, 47
12, 54246, Note_on_c, 12, 63, 80
12, 54246, Note_on_c, 12, 60, 80
12, 54306, Note_on_c, 12, 60, 0
12, 54306, Note_on_c, 12, 63, 0
12, 54306, Note_on_c, 12, 60, 80
12, 54306, Note_on_c, 12, 57, 80
12, 54366, Note_on_c, 12, 57, 0
12, 54366, Note_on_c, 12, 60, 0
12, 54366, Note_on_c, 12, 60, 80
12, 54366, Note_on_c, 12, 63, 80
12, 54426, Note_on_c, 12, 63, 0
12, 54426, Note_on_c, 12, 60, 0
12, 54426, Note_on_c, 12, 60, 80
12, 54426, Note_on_c, 12, 57, 80
12, 54476, Note_on_c, 12, 57, 0
12, 54476, Note_on_c, 12, 60, 0
12, 54486, Note_on_c, 12, 62, 80
12, 54486, Note_on_c, 12, 57, 80
12, 54546, Note_on_c, 12, 57, 0
12, 54546, Note_on_c, 12, 62, 0
12, 54546, Note_on_c, 12, 57, 80
12, 54546, Note_on_c, 12, 50, 80
12, 54606, Note_on_c, 12, 50, 0
12, 54606, Note_on_c, 12, 57, 0
12, 54606, Note_on_c, 12, 62, 80
12, 54606, Note_on_c, 12, 57, 80
12, 54666, Note_on_c, 12, 57, 0
12, 54666, Note_on_c, 12, 62, 0
12, 54666, Note_on_c, 12, 50, 80
12, 54666, Note_on_c, 12, 57, 80
12, 54716, Note_on_c, 12, 57, 0
12, 54716, Note_on_c, 12, 50, 0
12, 54726, Control_c, 12, 11, 47
12, 54726, Note_on_c, 12, 62, 80
12, 54726, Note_on_c, 12, 58, 80
12, 54774, Control_c, 12, 11, 48
12, 54786, Note_on_c, 12, 58, 0
12, 54786, Note_on_c, 12, 62, 0
12, 54786, Note_on_c, 12, 55, 80
12, 54786, Note_on_c, 12, 58, 80
12, 54822, Control_c, 12, 11, 49
12, 54846, Note_on_c, 12, 58, 0
12, 54846, Note_on_c, 12, 55, 0
12, 54846, Note_on_c, 12, 62, 80
12, 54846, Note_on_c, 12, 58, 80
12, 54870, Control_c, 12, 11, 50
12, 54906, Note_on_c, 12, 58, 0
12, 54906, Note_on_c, 12, 62, 0
12, 54906, Note_on_c, 12, 55, 80
12, 54906, Note_on_c, 12, 58, 80
12, 54918, Control_c, 12, 11, 51
12, 54966, Note_on_c, 12, 58, 0
12, 54966, Note_on_c, 12, 55, 0
12, 54966, Control_c, 12, 11, 52
12, 54966, Note_on_c, 12, 62, 80
12, 54966, Note_on_c, 12, 58, 80
12, 55014, Control_c, 12, 11, 53
12, 55016, Note_on_c, 12, 58, 0
12, 55016, Note_on_c, 12, 62, 0
12, 55026, Note_on_c, 12, 62, 80
12, 55026, Note_on_c, 12, 58, 80
12, 55056, Note_on_c, 12, 58, 0
12, 55056, Note_on_c, 12, 62, 0
12, 55062, Control_c, 12, 11, 54
12, 55086, Note_on_c, 12, 58, 80
12, 55086, Note_on_c, 12, 62, 80
12, 55110, Control_c, 12, 11, 55
12, 55116, Note_on_c, 12, 62, 0
12, 55116, Note_on_c, 12, 58, 0
12, 55146, Note_on_c, 12, 62, 80
12, 55146, Note_on_c, 12, 58, 80
12, 55158, Control_c, 12, 11, 56
12, 55176, Note_on_c, 12, 58, 0
12, 55176, Note_on_c, 12, 62, 0
12, 55206, Control_c, 12, 11, 57
12, 55206, Note_on_c, 12, 58, 80
12, 55206, Note_on_c, 12, 62, 80
12, 55254, Control_c, 12, 11, 58
12, 55266, Note_on_c, 12, 62, 0
12, 55266, Note_on_c, 12, 58, 0
12, 55266, Note_on_c, 12, 58, 80
12, 55266, Note_on_c, 12, 55, 80
12, 55302, Control_c, 12, 11, 59
12, 55326, Note_on_c, 12, 55, 0
12, 55326, Note_on_c, 12, 58, 0
12, 55326, Note_on_c, 12, 58, 80
12, 55326, Note_on_c, 12, 62, 80
12, 55350, Control_c, 12, 11, 60
12, 55386, Note_on_c, 12, 62, 0
12, 55386, Note_on_c, 12, 58, 0
12, 55386, Note_on_c, 12, 58, 80
12, 55386, Note_on_c, 12, 55, 80
12, 55398, Control_c, 12, 11, 61
12, 55446, Note_on_c, 12, 55, 0
12, 55446, Note_on_c, 12, 58, 0
12, 55446, Control_c, 12, 11, 62
12, 55446, Note_on_c, 12, 64, 80
12, 55446, Note_on_c, 12, 58, 80
12, 55494, Control_c, 12, 11, 63
12, 55496, Note_on_c, 12, 58, 0
12, 55496, Note_on_c, 12, 64, 0
12, 55506, Note_on_c, 12, 64, 80
12, 55506, Note_on_c, 12, 58, 80
12, 55536, Note_on_c, 12, 58, 0
12, 55536, Note_on_c, 12, 64, 0
12, 55542, Control_c, 12, 11, 64
12, 55566, Note_on_c, 12, 64, 80
12, 55566, Note_on_c, 12, 58, 80
12, 55590, Control_c, 12, 11, 65
12, 55596, Note_on_c, 12, 58, 0
12, 55596, Note_on_c, 12, 64, 0
12, 55626, Note_on_c, 12, 58, 80
12, 55626, Note_on_c, 12, 64, 80
12, 55638, Control_c, 12, 11, 66
12, 55656, Note_on_c, 12, 64, 0
12, 55656, Note_on_c, 12, 58, 0
12, 55686, Control_c, 12, 11, 67
12, 55686, Note_on_c, 12, 65, 80
12, 55686, Note_on_c, 12, 62, 80
12, 55734, Control_c, 12, 11, 68
12, 55746, Note_on_c, 12, 62, 0
12, 55746, Note_on_c, 12, 65, 0
12, 55746, Note_on_c, 12, 62, 80
12, 55746, Note_on_c, 12, 58, 80
12, 55782, Control_c, 12, 11, 69
12, 55806, Note_on_c, 12, 58, 0
12, 55806, Note_on_c, 12, 62, 0
12, 55806, Note_on_c, 12, 58, 80
12, 55806, Note_on_c, 12, 53, 80
12, 55830, Control_c, 12, 11, 70
12, 55866, Note_on_c, 12, 53, 0
12, 55866, Note_on_c, 12, 58, 0
12, 55866, Note_on_c, 12, 53, 80
12, 55866, Note_on_c, 12, 50, 80
12, 55878, Control_c, 12, 11, 71
12, 55926, Note_on_c, 12, 50, 0
12, 55926, Note_on_c, 12, 53, 0
12, 55926, Control_c, 12, 11, 72
12, 55926, Note_on_c, 12, 62, 80
12, 55926, Note_on_c, 12, 65, 80
12, 55974, Control_c, 12, 11, 73
12, 55976, Note_on_c, 12, 65, 0
12, 55976, Note_on_c, 12, 62, 0
12, 55986, Note_on_c, 12, 65, 80
12, 55986, Note_on_c, 12, 62, 80
12, 56016, Note_on_c, 12, 62, 0
12, 56016, Note_on_c, 12, 65, 0
12, 56022, Control_c, 12, 11, 74
12, 56046, Note_on_c, 12, 62, 80
12, 56046, Note_on_c, 12, 65, 80
12, 56070, Control_c, 12, 11, 75
12, 56076, Note_on_c, 12, 65, 0
12, 56076, Note_on_c, 12, 62, 0
12, 56106, Note_on_c, 12, 62, 80
12, 56106, Note_on_c, 12, 65, 80
12, 56118, Control_c, 12, 11, 76
12, 56136, Note_on_c, 12, 65, 0
12, 56136, Note_on_c, 12, 62, 0
12, 56166, Control_c, 12, 11, 77
12, 56166, Note_on_c, 12, 63, 80
12, 56166, Note_on_c, 12, 65, 80
12, 56214, Control_c, 12, 11, 78
12, 56226, Note_on_c, 12, 65, 0
12, 56226, Note_on_c, 12, 63, 0
12, 56226, Note_on_c, 12, 60, 80
12, 56226, Note_on_c, 12, 63, 80
12, 56262, Control_c, 12, 11, 79
12, 56286, Note_on_c, 12, 63, 0
12, 56286, Note_on_c, 12, 60, 0
12, 56286, Note_on_c, 12, 65, 80
12, 56286, Note_on_c, 12, 63, 80
12, 56310, Control_c, 12, 11, 80
12, 56346, Note_on_c, 12, 63, 0
12, 56346, Note_on_c, 12, 65, 0
12, 56346, Note_on_c, 12, 60, 80
12, 56346, Note_on_c, 12, 63, 80
12, 56358, Control_c, 12, 11, 81
12, 56396, Note_on_c, 12, 63, 0
12, 56396, Note_on_c, 12, 60, 0
12, 56406, Control_c, 12, 11, 82
12, 56406, Note_on_c, 12, 57, 80
12, 56406, Note_on_c, 12, 60, 80
12, 56454, Control_c, 12, 11, 83
12, 56456, Note_on_c, 12, 60, 0
12, 56456, Note_on_c, 12, 57, 0
12, 56466, Note_on_c, 12, 57, 80
12, 56466, Note_on_c, 12, 60, 80
12, 56502, Control_c, 12, 11, 84
12, 56516, Note_on_c, 12, 60, 0
12, 56516, Note_on_c, 12, 57, 0
12, 56526, Note_on_c, 12, 51, 80
12, 56526, Note_on_c, 12, 57, 80
12, 56550, Control_c, 12, 11, 85
12, 56576, Note_on_c, 12, 57, 0
12, 56576, Note_on_c, 12, 51, 0
12, 56586, Note_on_c, 12, 57, 80
12, 56586, Note_on_c, 12, 51, 80
12, 56598, Control_c, 12, 11, 86
12, 56636, Note_on_c, 12, 51, 0
12, 56636, Note_on_c, 12, 57, 0
12, 56646, Control_c, 12, 11, 87
12, 56646, Note_on_c, 12, 50, 75
12, 56646, Note_on_c, 12, 58, 75
12, 56766, Note_on_c, 12, 58, 0
12, 56766, Note_on_c, 12, 50, 0
12, 57246, Control_c, 12, 11, 47
12, 57246, Note_on_c, 12, 58, 100
12, 57306, Note_on_c, 12, 58, 0
12, 57366, Note_on_c, 12, 57, 100
12, 57426, Note_on_c, 12, 57, 0
12, 57486, Note_on_c, 12, 58, 100
12, 57546, Note_on_c, 12, 58, 0
12, 57606, Note_on_c, 12, 60, 100
12, 57726, Note_on_c, 12, 60, 0
12, 57726, Note_on_c, 12, 57, 100
12, 57836, Note_on_c, 12, 57, 0
12, 57846, Note_on_c, 12, 53, 100
12, 57906, Note_on_c, 12, 53, 0
12, 57966, Note_on_c, 12, 51, 100
12, 58026, Note_on_c, 12, 51, 0
12, 58086, Note_on_c, 12, 50, 100
12, 58146, Note_on_c, 12, 50, 0
12, 58206, Note_on_c, 12, 53, 100
12, 58266, Note_on_c, 12, 53, 0
12, 58326, Note_on_c, 12, 57, 100
12, 58386, Note_on_c, 12, 57, 0
12, 58446, Control_c, 12, 11, 47
12, 58446, Note_on_c, 12, 59, 100
12, 58455, Control_c, 12, 11, 50
12, 58464, Control_c, 12, 11, 53
12, 58473, Control_c, 12, 11, 56
12, 58482, Control_c, 12, 11, 59
12, 58491, Control_c, 12, 11, 62
12, 58500, Control_c, 12, 11, 65
12, 58506, Note_on_c, 12, 59, 0
12, 58509, Control_c, 12, 11, 68
12, 58518, Control_c, 12, 11, 71
12, 58527, Control_c, 12, 11, 74
12, 58536, Control_c, 12, 11, 77
12, 58545, Control_c, 12, 11, 80
12, 58554, Control_c, 12, 11, 83
12, 58563, Control_c, 12, 11, 86
12, 58566, Note_on_c, 12, 60, 100
12, 58626, Note_on_c, 12, 60, 0
12, 59166, Control_c, 12, 11, 47
12, 59166, Note_on_c, 12, 60, 100
12, 59226, Note_on_c, 12, 60, 0
12, 59286, Note_on_c, 12, 59, 100
12, 59346, Note_on_c, 12, 59, 0
12, 59406, Note_on_c, 12, 60, 100
12, 59466, Note_on_c, 12, 60, 0
12, 59526, Note_on_c, 12, 62, 100
12, 59646, Note_on_c, 12, 62, 0
12, 59646, Note_on_c, 12, 59, 100
12, 59756, Note_on_c, 12, 59, 0
12, 59766, Note_on_c, 12, 55, 100
12, 59826, Note_on_c, 12, 55, 0
12, 59886, Note_on_c, 12, 53, 100
12, 59946, Note_on_c, 12, 53, 0
12, 60006, Note_on_c, 12, 51, 100
12, 60066, Note_on_c, 12, 51, 0
12, 60126, Note_on_c, 12, 55, 100
12, 60186, Note_on_c, 12, 55, 0
12, 60246, Note_on_c, 12, 60, 100
12, 60306, Note_on_c, 12, 60, 0
12, 60366, Note_on_c, 12, 62, 100
12, 60426, Note_on_c, 12, 62, 0
12, 60486, Control_c, 12, 11, 72
12, 60486, Note_on_c, 12, 63, 100
12, 60489, Control_c, 12, 11, 75
12, 60492, Control_c, 12, 11, 78
12, 60495, Control_c, 12, 11, 81
12, 60511, Control_c, 12, 11, 79
12, 60528, Control_c, 12, 11, 77
12, 60544, Control_c, 12, 11, 75
12, 60561, Control_c, 12, 11, 73
12, 60577, Control_c, 12, 11, 71
12, 60594, Control_c, 12, 11, 69
12, 60606, Note_on_c, 12, 63, 0
12, 60606, Note_on_c, 12, 60, 100
12, 60610, Control_c, 12, 11, 67
12, 60627, Control_c, 12, 11, 65
12, 60643, Control_c, 12, 11, 63
12, 60716, Note_on_c, 12, 60, 0
12, 60726, Control_c, 12, 11, 49
12, 60726, Note_on_c, 12, 57, 100
12, 60786, Note_on_c, 12, 57, 0
12, 60846, Note_on_c, 12, 55, 100
12, 60906, Note_on_c, 12, 55, 0
12, 60966, Note_on_c, 12, 54, 100
12, 61026, Note_on_c, 12, 54, 0
12, 61086, Note_on_c, 12, 57, 100
12, 61146, Note_on_c, 12, 57, 0
12, 61206, Note_on_c, 12, 60, 100
12, 61266, Note_on_c, 12, 60, 0
12, 61326, Note_on_c, 12, 62, 100
12, 61386, Note_on_c, 12, 62, 0
12, 61446, Control_c, 12, 11, 72
12, 61446, Note_on_c, 12, 63, 100
12, 61449, Control_c, 12, 11, 75
12, 61452, Control_c, 12, 11, 78
12, 61455, Control_c, 12, 11, 81
12, 61471, Control_c, 12, 11, 79
12, 61488, Control_c, 12, 11, 77
12, 61504, Control_c, 12, 11, 75
12, 61506, Note_on_c, 12, 63, 0
12, 61521, Control_c, 12, 11, 73
12, 61537, Control_c, 12, 11, 71
12, 61554, Control_c, 12, 11, 69
12, 61566, Note_on_c, 12, 59, 100
12, 61570, Control_c, 12, 11, 67
12, 61587, Control_c, 12, 11, 65
12, 61603, Control_c, 12, 11, 63
12, 61686, Note_on_c, 12, 59, 0
12, 61686, Control_c, 12, 11, 49
12, 61686, Note_on_c, 12, 60, 100
12, 61806, Note_on_c, 12, 60, 0
12, 61806, Note_on_c, 12, 54, 100
12, 61916, Note_on_c, 12, 54, 0
12, 61926, Control_c, 12, 11, 72
12, 61926, Note_on_c, 12, 63, 100
12, 61929, Control_c, 12, 11, 75
12, 61932, Control_c, 12, 11, 78
12, 61935, Control_c, 12, 11, 81
12, 61951, Control_c, 12, 11, 79
12, 61968, Control_c, 12, 11, 77
12, 61984, Control_c, 12, 11, 75
12, 61986, Note_on_c, 12, 63, 0
12, 62001, Control_c, 12, 11, 73
12, 62017, Control_c, 12, 11, 71
12, 62034, Control_c, 12, 11, 69
12, 62046, Note_on_c, 12, 59, 100
12, 62050, Control_c, 12, 11, 67
12, 62067, Control_c, 12, 11, 65
12, 62083, Control_c, 12, 11, 63
12, 62166, Note_on_c, 12, 59, 0
12, 62166, Control_c, 12, 11, 49
12, 62166, Note_on_c, 12, 60, 100
12, 62286, Note_on_c, 12, 60, 0
12, 62286, Note_on_c, 12, 55, 100
12, 62396, Note_on_c, 12, 55, 0
12, 62406, Control_c, 12, 11, 72
12, 62406, Note_on_c, 12, 63, 100
12, 62409, Control_c, 12, 11, 75
12, 62412, Control_c, 12, 11, 78
12, 62415, Control_c, 12, 11, 81
12, 62431, Control_c, 12, 11, 79
12, 62448, Control_c, 12, 11, 77
12, 62464, Control_c, 12, 11, 75
12, 62466, Note_on_c, 12, 63, 0
12, 62481, Control_c, 12, 11, 73
12, 62497, Control_c, 12, 11, 71
12, 62514, Control_c, 12, 11, 69
12, 62526, Note_on_c, 12, 59, 100
12, 62530, Control_c, 12, 11, 67
12, 62547, Control_c, 12, 11, 65
12, 62563, Control_c, 12, 11, 63
12, 62646, Note_on_c, 12, 59, 0
12, 62646, Control_c, 12, 11, 49
12, 62646, Note_on_c, 12, 60, 100
12, 62766, Note_on_c, 12, 60, 0
12, 62766, Note_on_c, 12, 56, 100
12, 62876, Note_on_c, 12, 56, 0
12, 62886, Control_c, 12, 11, 72
12, 62886, Note_on_c, 12, 63, 100
12, 62889, Control_c, 12, 11, 75
12, 62892, Control_c, 12, 11, 78
12, 62895, Control_c, 12, 11, 81
12, 62911, Control_c, 12, 11, 79
12, 62928, Control_c, 12, 11, 77
12, 62944, Control_c, 12, 11, 75
12, 62946, Note_on_c, 12, 63, 0
12, 62961, Control_c, 12, 11, 73
12, 62977, Control_c, 12, 11, 71
12, 62994, Control_c, 12, 11, 69
12, 63006, Note_on_c, 12, 59, 100
12, 63010, Control_c, 12, 11, 67
12, 63027, Control_c, 12, 11, 65
12, 63043, Control_c, 12, 11, 63
12, 63126, Note_on_c, 12, 59, 0
12, 63126, Control_c, 12, 11, 49
12, 63126, Note_on_c, 12, 60, 100
12, 63246, Note_on_c, 12, 60, 0
12, 63246, Control_c, 12, 11, 47
12, 63246, Note_on_c, 12, 57, 100
12, 63257, Control_c, 12, 11, 50
12, 63269, Control_c, 12, 11, 53
12, 63281, Control_c, 12, 11, 56
12, 63293, Control_c, 12, 11, 59
12, 63305, Control_c, 12, 11, 62
12, 63317, Control_c, 12, 11, 65
12, 63329, Control_c, 12, 11, 68
12, 63341, Control_c, 12, 11, 71
12, 63353, Control_c, 12, 11, 74
12, 63356, Note_on_c, 12, 57, 0
12, 63365, Control_c, 12, 11, 77
12, 63366, Control_c, 12, 11, 87
12, 63366, Note_on_c, 12, 60, 117
12, 63366, Note_on_c, 12, 62, 117
12, 63411, Note_on_c, 12, 62, 0
12, 63411, Note_on_c, 12, 60, 0
12, 63426, Note_on_c, 12, 62, 117
12, 63426, Note_on_c, 12, 60, 117
12, 63471, Note_on_c, 12, 60, 0
12, 63471, Note_on_c, 12, 62, 0
12, 63486, Note_on_c, 12, 62, 117
12, 63486, Note_on_c, 12, 60, 117
12, 63531, Note_on_c, 12, 60, 0
12, 63531, Note_on_c, 12, 62, 0
12, 63546, Note_on_c, 12, 62, 117
12, 63546, Note_on_c, 12, 60, 117
12, 63591, Note_on_c, 12, 60, 0
12, 63591, Note_on_c, 12, 62, 0
12, 63606, Note_on_c, 12, 62, 117
12, 63606, Note_on_c, 12, 60, 117
12, 63651, Note_on_c, 12, 60, 0
12, 63651, Note_on_c, 12, 62, 0
12, 63666, Note_on_c, 12, 60, 117
12, 63666, Note_on_c, 12, 62, 117
12, 63711, Note_on_c, 12, 62, 0
12, 63711, Note_on_c, 12, 60, 0
12, 63726, Note_on_c, 12, 62, 117
12, 63726, Note_on_c, 12, 60, 117
12, 63771, Note_on_c, 12, 60, 0
12, 63771, Note_on_c, 12, 62, 0
12, 63786, Note_on_c, 12, 60, 117
12, 63786, Note_on_c, 12, 62, 117
12, 63831, Note_on_c, 12, 62, 0
12, 63831, Note_on_c, 12, 60, 0
12, 63846, Note_on_c, 12, 62, 117
12, 63846, Note_on_c, 12, 60, 117
12, 63891, Note_on_c, 12, 60, 0
12, 63891, Note_on_c, 12, 62, 0
12, 63906, Note_on_c, 12, 62, 117
12, 63906, Note_on_c, 12, 60, 117
12, 63951, Note_on_c, 12, 60, 0
12, 63951, Note_on_c, 12, 62, 0
12, 63966, Note_on_c, 12, 62, 117
12, 63966, Note_on_c, 12, 60, 117
12, 64011, Note_on_c, 12, 60, 0
12, 64011, Note_on_c, 12, 62, 0
12, 64026, Note_on_c, 12, 62, 117
12, 64026, Note_on_c, 12, 60, 117
12, 64071, Note_on_c, 12, 60, 0
12, 64071, Note_on_c, 12, 62, 0
12, 64086, Note_on_c, 12, 60, 117
12, 64086, Note_on_c, 12, 62, 117
12, 64131, Note_on_c, 12, 62, 0
12, 64131, Note_on_c, 12, 60, 0
12, 64146, Note_on_c, 12, 60, 117
12, 64146, Note_on_c, 12, 62, 117
12, 64191, Note_on_c, 12, 62, 0
12, 64191, Note_on_c, 12, 60, 0
12, 64206, Note_on_c, 12, 62, 117
12, 64206, Note_on_c, 12, 60, 117
12, 64251, Note_on_c, 12, 60, 0
12, 64251, Note_on_c, 12, 62, 0
12, 64266, Note_on_c, 12, 60, 117
12, 64266, Note_on_c, 12, 62, 117
12, 64311, Note_on_c, 12, 62, 0
12, 64311, Note_on_c, 12, 60, 0
12, 64326, Note_on_c, 12, 59, 117
12, 64326, Note_on_c, 12, 62, 117
12, 64371, Note_on_c, 12, 62, 0
12, 64371, Note_on_c, 12, 59, 0
12, 64386, Note_on_c, 12, 59, 117
12, 64386, Note_on_c, 12, 62, 117
12, 64431, Note_on_c, 12, 62, 0
12, 64431, Note_on_c, 12, 59, 0
12, 64446, Note_on_c, 12, 59, 117
12, 64446, Note_on_c, 12, 62, 117
12, 64491, Note_on_c, 12, 62, 0
12, 64491, Note_on_c, 12, 59, 0
12, 64506, Note_on_c, 12, 59, 117
12, 64506, Note_on_c, 12, 62, 117
12, 64551, Note_on_c, 12, 62, 0
12, 64551, Note_on_c, 12, 59, 0
12, 64566, Control_c, 12, 11, 87
12, 64566, Note_on_c, 12, 59, 117
12, 64566, Note_on_c, 12, 62, 117
12, 64611, Note_on_c, 12, 62, 0
12, 64611, Note_on_c, 12, 59, 0
12, 64626, Note_on_c, 12, 62, 117
12, 64626, Note_on_c, 12, 59, 117
12, 64655, Control_c, 12, 11, 88
12, 64671, Note_on_c, 12, 59, 0
12, 64671, Note_on_c, 12, 62, 0
12, 64686, Note_on_c, 12, 62, 117
12, 64686, Note_on_c, 12, 59, 117
12, 64731, Note_on_c, 12, 59, 0
12, 64731, Note_on_c, 12, 62, 0
12, 64745, Control_c, 12, 11, 89
12, 64746, Note_on_c, 12, 59, 117
12, 64746, Note_on_c, 12, 62, 117
12, 64791, Note_on_c, 12, 62, 0
12, 64791, Note_on_c, 12, 59, 0
12, 64806, Note_on_c, 12, 62, 117
12, 64806, Note_on_c, 12, 59, 117
12, 64835, Control_c, 12, 11, 90
12, 64851, Note_on_c, 12, 59, 0
12, 64851, Note_on_c, 12, 62, 0
12, 64866, Note_on_c, 12, 59, 117
12, 64866, Note_on_c, 12, 62, 117
12, 64911, Note_on_c, 12, 62, 0
12, 64911, Note_on_c, 12, 59, 0
12, 64925, Control_c, 12, 11, 91
12, 64926, Note_on_c, 12, 59, 117
12, 64926, Note_on_c, 12, 62, 117
12, 64971, Note_on_c, 12, 62, 0
12, 64971, Note_on_c, 12, 59, 0
12, 64986, Note_on_c, 12, 62, 117
12, 64986, Note_on_c, 12, 59, 117
12, 65015, Control_c, 12, 11, 92
12, 65031, Note_on_c, 12, 59, 0
12, 65031, Note_on_c, 12, 62, 0
12, 65046, Note_on_c, 12, 62, 117
12, 65046, Note_on_c, 12, 59, 117
12, 65091, Note_on_c, 12, 59, 0
12, 65091, Note_on_c, 12, 62, 0
12, 65105, Control_c, 12, 11, 93
12, 65106, Note_on_c, 12, 62, 117
12, 65106, Note_on_c, 12, 59, 117
12, 65151, Note_on_c, 12, 59, 0
12, 65151, Note_on_c, 12, 62, 0
12, 65166, Note_on_c, 12, 65, 117
12, 65166, Note_on_c, 12, 62, 117
12, 65195, Control_c, 12, 11, 94
12, 65211, Note_on_c, 12, 62, 0
12, 65211, Note_on_c, 12, 65, 0
12, 65226, Note_on_c, 12, 65, 117
12, 65226, Note_on_c, 12, 62, 117
12, 65271, Note_on_c, 12, 62, 0
12, 65271, Note_on_c, 12, 65, 0
12, 65285, Control_c, 12, 11, 95
12, 65286, Note_on_c, 12, 64, 117
12, 65286, Note_on_c, 12, 60, 117
12, 65331, Note_on_c, 12, 60, 0
12, 65331, Note_on_c, 12, 64, 0
12, 65346, Note_on_c, 12, 60, 117
12, 65346, Note_on_c, 12, 64, 117
12, 65391, Note_on_c, 12, 64, 0
12, 65391, Note_on_c, 12, 60, 0
12, 65406, Note_on_c, 12, 60, 117
12, 65406, Note_on_c, 12, 64, 117
12, 65451, Note_on_c, 12, 64, 0
12, 65451, Note_on_c, 12, 60, 0
12, 65466, Note_on_c, 12, 64, 117
12, 65466, Note_on_c, 12, 60, 117
12, 65511, Note_on_c, 12, 60, 0
12, 65511, Note_on_c, 12, 64, 0
12, 65526, Note_on_c, 12, 60, 117
12, 65526, Note_on_c, 12, 64, 117
12, 65571, Note_on_c, 12, 64, 0
12, 65571, Note_on_c, 12, 60, 0
12, 65586, Note_on_c, 12, 60, 117
12, 65586, Note_on_c, 12, 64, 117
12, 65631, Note_on_c, 12, 64, 0
12, 65631, Note_on_c, 12, 60, 0
12, 65646, Note_on_c, 12, 60, 117
12, 65646, Note_on_c, 12, 64, 117
12, 65691, Note_on_c, 12, 64, 0
12, 65691, Note_on_c, 12, 60, 0
12, 65706, Note_on_c, 12, 60, 117
12, 65706, Note_on_c, 12, 64, 117
12, 65751, Note_on_c, 12, 64, 0
12, 65751, Note_on_c, 12, 60, 0
12, 65766, Note_on_c, 12, 65, 117
12, 65766, Note_on_c, 12, 62, 117
12, 65811, Note_on_c, 12, 62, 0
12, 65811, Note_on_c, 12, 65, 0
12, 65826, Note_on_c, 12, 65, 117
12, 65826, Note_on_c, 12, 62, 117
12, 65871, Note_on_c, 12, 62, 0
12, 65871, Note_on_c, 12, 65, 0
12, 65886, Note_on_c, 12, 62, 117
12, 65886, Note_on_c, 12, 65, 117
12, 65931, Note_on_c, 12, 65, 0
12, 65931, Note_on_c, 12, 62, 0
12, 65946, Note_on_c, 12, 62, 117
12, 65946, Note_on_c, 12, 65, 117
12, 65991, Note_on_c, 12, 65, 0
12, 65991, Note_on_c, 12, 62, 0
12, 66006, Note_on_c, 12, 62, 117
12, 66006, Note_on_c, 12, 65, 117
12, 66051, Note_on_c, 12, 65, 0
12, 66051, Note_on_c, 12, 62, 0
12, 66066, Note_on_c, 12, 62, 117
12, 66066, Note_on_c, 12, 65, 117
12, 66111, Note_on_c, 12, 65, 0
12, 66111, Note_on_c, 12, 62, 0
12, 66126, Note_on_c, 12, 65, 117
12, 66126, Note_on_c, 12, 62, 117
12, 66171, Note_on_c, 12, 62, 0
12, 66171, Note_on_c, 12, 65, 0
12, 66186, Note_on_c, 12, 65, 117
12, 66186, Note_on_c, 12, 62, 117
12, 66231, Note_on_c, 12, 62, 0
12, 66231, Note_on_c, 12, 65, 0
12, 66246, Note_on_c, 12, 64, 117
12, 66246, Note_on_c, 12, 67, 117
12, 66291, Note_on_c, 12, 67, 0
12, 66291, Note_on_c, 12, 64, 0
12, 66306, Note_on_c, 12, 67, 117
12, 66306, Note_on_c, 12, 64, 117
12, 66351, Note_on_c, 12, 64, 0
12, 66351, Note_on_c, 12, 67, 0
12, 66366, Note_on_c, 12, 67, 117
12, 66366, Note_on_c, 12, 64, 117
12, 66411, Note_on_c, 12, 64, 0
12, 66411, Note_on_c, 12, 67, 0
12, 66426, Note_on_c, 12, 64, 117
12, 66426, Note_on_c, 12, 67, 117
12, 66471, Note_on_c, 12, 67, 0
12, 66471, Note_on_c, 12, 64, 0
12, 66486, Note_on_c, 12, 67, 117
12, 66486, Note_on_c, 12, 64, 117
12, 66531, Note_on_c, 12, 64, 0
12, 66531, Note_on_c, 12, 67, 0
12, 66546, Note_on_c, 12, 67, 117
12, 66546, Note_on_c, 12, 64, 117
12, 66591, Note_on_c, 12, 64, 0
12, 66591, Note_on_c, 12, 67, 0
12, 66606, Note_on_c, 12, 67, 117
12, 66606, Note_on_c, 12, 64, 117
12, 66651, Note_on_c, 12, 64, 0
12, 66651, Note_on_c, 12, 67, 0
12, 66666, Note_on_c, 12, 64, 117
12, 66666, Note_on_c, 12, 67, 117
12, 66711, Note_on_c, 12, 67, 0
12, 66711, Note_on_c, 12, 64, 0
12, 66726, Note_on_c, 12, 65, 117
12, 66726, Note_on_c, 12, 59, 117
12, 66771, Note_on_c, 12, 59, 0
12, 66771, Note_on_c, 12, 65, 0
12, 66786, Note_on_c, 12, 59, 117
12, 66786, Note_on_c, 12, 65, 117
12, 66831, Note_on_c, 12, 65, 0
12, 66831, Note_on_c, 12, 59, 0
12, 66846, Note_on_c, 12, 65, 117
12, 66846, Note_on_c, 12, 59, 117
12, 66891, Note_on_c, 12, 59, 0
12, 66891, Note_on_c, 12, 65, 0
12, 66906, Note_on_c, 12, 59, 117
12, 66906, Note_on_c, 12, 65, 117
12, 66951, Note_on_c, 12, 65, 0
12, 66951, Note_on_c, 12, 59, 0
12, 66966, Note_on_c, 12, 65, 117
12, 66966, Note_on_c, 12, 59, 117
12, 67011, Note_on_c, 12, 59, 0
12, 67011, Note_on_c, 12, 65, 0
12, 67026, Note_on_c, 12, 65, 117
12, 67026, Note_on_c, 12, 59, 117
12, 67071, Note_on_c, 12, 59, 0
12, 67071, Note_on_c, 12, 65, 0
12, 67086, Note_on_c, 12, 59, 117
12, 67086, Note_on_c, 12, 65, 117
12, 67131, Note_on_c, 12, 65, 0
12, 67131, Note_on_c, 12, 59, 0
12, 67146, Note_on_c, 12, 65, 117
12, 67146, Note_on_c, 12, 59, 117
12, 67191, Note_on_c, 12, 59, 0
12, 67191, Note_on_c, 12, 65, 0
12, 67206, Note_on_c, 12, 64, 117
12, 67206, Note_on_c, 12, 67, 117
12, 67251, Note_on_c, 12, 67, 0
12, 67251, Note_on_c, 12, 64, 0
12, 67266, Note_on_c, 12, 64, 117
12, 67266, Note_on_c, 12, 67, 117
12, 67311, Note_on_c, 12, 67, 0
12, 67311, Note_on_c, 12, 64, 0
12, 67326, Note_on_c, 12, 67, 117
12, 67326, Note_on_c, 12, 64, 117
12, 67371, Note_on_c, 12, 64, 0
12, 67371, Note_on_c, 12, 67, 0
12, 67386, Note_on_c, 12, 67, 117
12, 67386, Note_on_c, 12, 64, 117
12, 67431, Note_on_c, 12, 64, 0
12, 67431, Note_on_c, 12, 67, 0
12, 67446, Note_on_c, 12, 64, 117
12, 67446, Note_on_c, 12, 67, 117
12, 67491, Note_on_c, 12, 67, 0
12, 67491, Note_on_c, 12, 64, 0
12, 67506, Note_on_c, 12, 64, 117
12, 67506, Note_on_c, 12, 67, 117
12, 67551, Note_on_c, 12, 67, 0
12, 67551, Note_on_c, 12, 64, 0
12, 67566, Note_on_c, 12, 67, 117
12, 67566, Note_on_c, 12, 64, 117
12, 67611, Note_on_c, 12, 64, 0
12, 67611, Note_on_c, 12, 67, 0
12, 67626, Note_on_c, 12, 67, 117
12, 67626, Note_on_c, 12, 64, 117
12, 67671, Note_on_c, 12, 64, 0
12, 67671, Note_on_c, 12, 67, 0
12, 67686, Note_on_c, 12, 60, 117
12, 67686, Note_on_c, 12, 62, 117
12, 67731, Note_on_c, 12, 62, 0
12, 67731, Note_on_c, 12, 60, 0
12, 67746, Note_on_c, 12, 60, 117
12, 67746, Note_on_c, 12, 62, 117
12, 67791, Note_on_c, 12, 62, 0
12, 67791, Note_on_c, 12, 60, 0
12, 67806, Note_on_c, 12, 60, 117
12, 67806, Note_on_c, 12, 62, 117
12, 67851, Note_on_c, 12, 62, 0
12, 67851, Note_on_c, 12, 60, 0
12, 67866, Note_on_c, 12, 60, 117
12, 67866, Note_on_c, 12, 62, 117
12, 67911, Note_on_c, 12, 62, 0
12, 67911, Note_on_c, 12, 60, 0
12, 67926, Note_on_c, 12, 60, 117
12, 67926, Note_on_c, 12, 62, 117
12, 67971, Note_on_c, 12, 62, 0
12, 67971, Note_on_c, 12, 60, 0
12, 67986, Note_on_c, 12, 60, 117
12, 67986, Note_on_c, 12, 62, 117
12, 68031, Note_on_c, 12, 62, 0
12, 68031, Note_on_c, 12, 60, 0
12, 68046, Note_on_c, 12, 62, 117
12, 68046, Note_on_c, 12, 60, 117
12, 68091, Note_on_c, 12, 60, 0
12, 68091, Note_on_c, 12, 62, 0
12, 68106, Note_on_c, 12, 62, 117
12, 68106, Note_on_c, 12, 60, 117
12, 68151, Note_on_c, 12, 60, 0
12, 68151, Note_on_c, 12, 62, 0
12, 68166, Control_c, 12, 11, 112
12, 68166, Note_on_c, 12, 59, 100
12, 68166, Note_on_c, 12, 62, 100
12, 68184, Control_c, 12, 11, 109
12, 68202, Control_c, 12, 11, 106
12, 68220, Control_c, 12, 11, 103
12, 68511, Note_on_c, 12, 62, 0
12, 68511, Note_on_c, 12, 59, 0
12, 68526, Note_on_c, 12, 67, 100
12, 68586, Note_on_c, 12, 67, 0
12, 68646, Note_on_c, 12, 66, 100
12, 68766, Note_on_c, 12, 66, 0
12, 68766, Note_on_c, 12, 67, 100
12, 68866, Note_on_c, 12, 67, 0
12, 68886, Note_on_c, 12, 62, 100
12, 68946, Note_on_c, 12, 62, 0
12, 69006, Note_on_c, 12, 64, 100
12, 69066, Note_on_c, 12, 64, 0
12, 69126, Note_on_c, 12, 64, 107
12, 69246, Note_on_c, 12, 64, 0
12, 69246, Note_on_c, 12, 62, 100
12, 69346, Note_on_c, 12, 62, 0
12, 69366, Note_on_c, 12, 67, 100
12, 69426, Note_on_c, 12, 67, 0
12, 69486, Note_on_c, 12, 67, 100
12, 69546, Note_on_c, 12, 67, 0
12, 69606, Note_on_c, 12, 66, 107
12, 69726, Note_on_c, 12, 66, 0
12, 69726, Note_on_c, 12, 67, 100
12, 69826, Note_on_c, 12, 67, 0
12, 69846, Note_on_c, 12, 62, 100
12, 69906, Note_on_c, 12, 62, 0
12, 69966, Note_on_c, 12, 64, 100
12, 70026, Note_on_c, 12, 64, 0
12, 70086, Note_on_c, 12, 64, 107
12, 70146, Note_on_c, 12, 64, 0
12, 70206, Note_on_c, 12, 62, 100
12, 70436, Note_on_c, 12, 62, 0
12, 70446, Note_on_c, 12, 62, 100
12, 70506, Note_on_c, 12, 62, 0
12, 70566, Note_on_c, 12, 60, 107
12, 70626, Note_on_c, 12, 60, 0
12, 70686, Note_on_c, 12, 59, 100
12, 70916, Note_on_c, 12, 59, 0
12, 70926, Note_on_c, 12, 59, 100
12, 70986, Note_on_c, 12, 59, 0
12, 71046, Note_on_c, 12, 57, 107
12, 71106, Note_on_c, 12, 57, 0
12, 71166, Note_on_c, 12, 55, 100
12, 71286, Note_on_c, 12, 55, 0
12, 71286, Note_on_c, 12, 67, 100
12, 71406, Note_on_c, 12, 67, 0
12, 71406, Note_on_c, 12, 66, 100
12, 71526, Note_on_c, 12, 66, 0
12, 71526, Note_on_c, 12, 64, 100
12, 71646, Note_on_c, 12, 64, 0
12, 71646, Note_on_c, 12, 62, 100
12, 71766, Note_on_c, 12, 62, 0
12, 71766, Note_on_c, 12, 60, 100
12, 71886, Note_on_c, 12, 60, 0
12, 71886, Note_on_c, 12, 59, 100
12, 71996, Note_on_c, 12, 59, 0
12, 72006, Note_on_c, 12, 57, 100
12, 72116, Note_on_c, 12, 57, 0
12, 72126, Note_on_c, 12, 60, 100
12, 72356, Note_on_c, 12, 60, 0
12, 72366, Note_on_c, 12, 60, 100
12, 72596, Note_on_c, 12, 60, 0
12, 72606, Note_on_c, 12, 60, 100
12, 72836, Note_on_c, 12, 60, 0
12, 72846, Note_on_c, 12, 60, 100
12, 73076, Note_on_c, 12, 60, 0
12, 73086, Note_on_c, 12, 60, 100
12, 73316, Note_on_c, 12, 60, 0
12, 74046, Control_c, 12, 11, 47
12, 74046, Note_on_c, 12, 59, 100
12, 74142, Note_on_c, 12, 59, 0
12, 74286, Note_on_c, 12, 57, 100
12, 74382, Note_on_c, 12, 57, 0
12, 74526, Note_on_c, 12, 57, 100
12, 74622, Note_on_c, 12, 57, 0
12, 74766, Note_on_c, 12, 57, 100
12, 74876, Note_on_c, 12, 57, 0
12, 74886, Control_c, 12, 11, 87
12, 74886, Note_on_c, 12, 60, 100
12, 74996, Note_on_c, 12, 60, 0
12, 75006, Note_on_c, 12, 60, 100
12, 75236, Note_on_c, 12, 60, 0
12, 75246, Note_on_c, 12, 60, 100
12, 75476, Note_on_c, 12, 60, 0
12, 75486, Note_on_c, 12, 60, 100
12, 75716, Note_on_c, 12, 60, 0
12, 75726, Note_on_c, 12, 60, 100
12, 75956, Note_on_c, 12, 60, 0
12, 75966, Note_on_c, 12, 60, 100
12, 76196, Note_on_c, 12, 60, 0
12, 76806, Control_c, 12, 11, 107
12, 76806, Note_on_c, 12, 61, 100
12, 76806, Note_on_c, 12, 64, 100
12, 76823, Control_c, 12, 11, 104
12, 76841, Control_c, 12, 11, 101
12, 76859, Control_c, 12, 11, 98
12, 76877, Control_c, 12, 11, 95
12, 76895, Control_c, 12, 11, 92
12, 76913, Control_c, 12, 11, 89
12, 77166, Note_on_c, 12, 64, 0
12, 77166, Note_on_c, 12, 61, 0
12, 77766, Control_c, 12, 11, 107
12, 77766, Note_on_c, 12, 62, 100
12, 77783, Control_c, 12, 11, 104
12, 77801, Control_c, 12, 11, 101
12, 77819, Control_c, 12, 11, 98
12, 77837, Control_c, 12, 11, 95
12, 77855, Control_c, 12, 11, 92
12, 77873, Control_c, 12, 11, 89
12, 78126, Note_on_c, 12, 62, 0
12, 78606, Control_c, 12, 11, 107
12, 78606, Note_on_c, 12, 61, 100
12, 78624, Control_c, 12, 11, 104
12, 78642, Control_c, 12, 11, 101
12, 78660, Control_c, 12, 11, 98
12, 78678, Control_c, 12, 11, 95
12, 78696, Control_c, 12, 11, 92
12, 78714, Control_c, 12, 11, 89
12, 78726, Note_on_c, 12, 61, 0
12, 78726, Note_on_c, 12, 62, 100
12, 78831, Note_on_c, 12, 62, 0
12, 78846, Note_on_c, 12, 58, 100
12, 78906, Note_on_c, 12, 58, 0
12, 78966, Note_on_c, 12, 59, 100
12, 79026, Note_on_c, 12, 59, 0
12, 79086, Control_c, 12, 11, 107
12, 79086, Note_on_c, 12, 54, 100
12, 79103, Control_c, 12, 11, 104
12, 79121, Control_c, 12, 11, 101
12, 79139, Control_c, 12, 11, 98
12, 79157, Control_c, 12, 11, 95
12, 79175, Control_c, 12, 11, 92
12, 79193, Control_c, 12, 11, 89
12, 79206, Note_on_c, 12, 54, 0
12, 79206, Note_on_c, 12, 55, 100
12, 79311, Note_on_c, 12, 55, 0
12, 79326, Note_on_c, 12, 49, 100
12, 79386, Note_on_c, 12, 49, 0
12, 79446, Note_on_c, 12, 50, 100
12, 79506, Note_on_c, 12, 50, 0
12, 79565, Program_c, 12, 50
12, 79566, Note_on_c, 12, 58, 100
12, 79626, Note_on_c, 12, 58, 0
12, 79686, Note_on_c, 12, 59, 117
12, 79746, Note_on_c, 12, 59, 0
12, 79806, Note_on_c, 12, 58, 117
12, 79866, Note_on_c, 12, 58, 0
12, 79926, Note_on_c, 12, 59, 117
12, 79986, Note_on_c, 12, 59, 0
12, 80046, Note_on_c, 12, 60, 117
12, 80106, Note_on_c, 12, 60, 0
12, 80166, Note_on_c, 12, 61, 117
12, 80226, Note_on_c, 12, 61, 0
12, 80286, Note_on_c, 12, 62, 117
12, 80346, Note_on_c, 12, 62, 0
12, 80406, Note_on_c, 12, 63, 117
12, 80466, Note_on_c, 12, 63, 0
12, 80526, Note_on_c, 12, 64, 117
12, 80586, Note_on_c, 12, 64, 0
12, 80646, Note_on_c, 12, 65, 117
12, 80706, Note_on_c, 12, 65, 0
12, 80766, Note_on_c, 12, 66, 117
12, 80826, Note_on_c, 12, 66, 0
12, 80886, Note_on_c, 12, 67, 117
12, 80946, Note_on_c, 12, 67, 0
12, 81005, Program_c, 12, 48
12, 81006, Note_on_c, 12, 49, 117
12, 81066, Note_on_c, 12, 49, 0
12, 81126, Note_on_c, 12, 50, 117
12, 81186, Note_on_c, 12, 50, 0
12, 81246, Note_on_c, 12, 49, 117
12, 81306, Note_on_c, 12, 49, 0
12, 81366, Note_on_c, 12, 50, 117
12, 81426, Note_on_c, 12, 50, 0
12, 81486, Note_on_c, 12, 50, 117
12, 81546, Note_on_c, 12, 50, 0
12, 81606, Note_on_c, 12, 55, 100
12, 81726, Note_on_c, 12, 55, 0
12, 83406, Control_c, 12, 11, 47
12, 83406, Note_on_c, 12, 71, 80
12, 83466, Note_on_c, 12, 71, 0
12, 83526, Note_on_c, 12, 69, 100
12, 83542, Control_c, 12, 11, 46
12, 83646, Note_on_c, 12, 69, 0
12, 83646, Note_on_c, 12, 67, 100
12, 83678, Control_c, 12, 11, 45
12, 83766, Note_on_c, 12, 67, 0
12, 83814, Control_c, 12, 11, 44
12, 83886, Note_on_c, 12, 67, 80
12, 83946, Note_on_c, 12, 67, 0
12, 83950, Control_c, 12, 11, 43
12, 84006, Note_on_c, 12, 64, 100
12, 84086, Control_c, 12, 11, 42
12, 84126, Note_on_c, 12, 64, 0
12, 84126, Note_on_c, 12, 62, 100
12, 84222, Control_c, 12, 11, 41
12, 84246, Note_on_c, 12, 62, 0
12, 84358, Control_c, 12, 11, 40
12, 84366, Note_on_c, 12, 62, 80
12, 84426, Note_on_c, 12, 62, 0
12, 84486, Note_on_c, 12, 60, 100
12, 84494, Control_c, 12, 11, 39
12, 84606, Note_on_c, 12, 60, 0
12, 84606, Note_on_c, 12, 59, 100
12, 84630, Control_c, 12, 11, 38
12, 84726, Note_on_c, 12, 59, 0
12, 84766, Control_c, 12, 11, 37
12, 84846, Note_on_c, 12, 59, 80
12, 84902, Control_c, 12, 11, 36
12, 84906, Note_on_c, 12, 59, 0
12, 84966, Note_on_c, 12, 60, 100
12, 85038, Control_c, 12, 11, 35
12, 85086, Note_on_c, 12, 60, 0
12, 85086, Note_on_c, 12, 59, 100
12, 85174, Control_c, 12, 11, 34
12, 85206, Note_on_c, 12, 59, 0
12, 85310, Control_c, 12, 11, 33
12, 85326, Note_on_c, 12, 59, 80
12, 85386, Note_on_c, 12, 59, 0
12, 85446, Control_c, 12, 11, 32
12, 85446, Note_on_c, 12, 57, 100
12, 85566, Note_on_c, 12, 57, 0
12, 85566, Note_on_c, 12, 55, 100
12, 85846, Control_c, 12, 11, 32
12, 85859, Control_c, 12, 11, 29
12, 85873, Control_c, 12, 11, 26
12, 85886, Control_c, 12, 11, 23
12, 85891, Note_on_c, 12, 55, 0
12, 85925, Program_c, 12, 50
12, 85926, Control_c, 12, 11, 67
12, 85926, Note_on_c, 12, 56, 100
12, 85928, Control_c, 12, 11, 70
12, 85931, Control_c, 12, 11, 73
12, 85933, Control_c, 12, 11, 76
12, 85936, Control_c, 12, 11, 79
12, 85939, Control_c, 12, 11, 83
12, 85942, Control_c, 12, 11, 86
12, 85945, Control_c, 12, 11, 90
12, 85948, Control_c, 12, 11, 93
12, 85951, Control_c, 12, 11, 97
12, 85954, Control_c, 12, 11, 100
12, 86316, Control_c, 12, 11, 102
12, 86319, Control_c, 12, 11, 99
12, 86322, Control_c, 12, 11, 96
12, 86326, Control_c, 12, 11, 93
12, 86329, Control_c, 12, 11, 90
12, 86333, Control_c, 12, 11, 87
12, 86336, Control_c, 12, 11, 84
12, 86340, Control_c, 12, 11, 81
12, 86343, Control_c, 12, 11, 78
12, 86346, Control_c, 12, 11, 75
12, 86350, Control_c, 12, 11, 72
12, 86353, Control_c, 12, 11, 69
12, 86356, Note_on_c, 12, 56, 0
12, 86406, Control_c, 12, 11, 67
12, 86406, Note_on_c, 12, 58, 100
12, 86408, Control_c, 12, 11, 70
12, 86411, Control_c, 12, 11, 73
12, 86413, Control_c, 12, 11, 76
12, 86416, Control_c, 12, 11, 79
12, 86419, Control_c, 12, 11, 83
12, 86422, Control_c, 12, 11, 86
12, 86425, Control_c, 12, 11, 90
12, 86428, Control_c, 12, 11, 93
12, 86431, Control_c, 12, 11, 97
12, 86434, Control_c, 12, 11, 100
12, 86796, Control_c, 12, 11, 102
12, 86799, Control_c, 12, 11, 99
12, 86802, Control_c, 12, 11, 96
12, 86806, Control_c, 12, 11, 93
12, 86809, Control_c, 12, 11, 90
12, 86813, Control_c, 12, 11, 87
12, 86816, Control_c, 12, 11, 84
12, 86820, Control_c, 12, 11, 81
12, 86823, Control_c, 12, 11, 78
12, 86826, Control_c, 12, 11, 75
12, 86830, Control_c, 12, 11, 72
12, 86833, Control_c, 12, 11, 69
12, 86836, Note_on_c, 12, 58, 0
12, 86885, Program_c, 12, 45
12, 86888, Note_on_c, 12, 51, 54
12, 87008, Note_on_c, 12, 51, 0
12, 88986, Note_on_c, 12, 58, 43
12, 89046, Note_on_c, 12, 58, 0
12, 89046, Note_on_c, 12, 51, 43
12, 89106, Note_on_c, 12, 51, 0
12, 89286, Note_on_c, 12, 58, 43
12, 89346, Note_on_c, 12, 58, 0
12, 89406, Note_on_c, 12, 51, 43
12, 89526, Note_on_c, 12, 51, 0
12, 89586, Note_on_c, 12, 63, 43
12, 89646, Note_on_c, 12, 63, 0
12, 89646, Note_on_c, 12, 60, 43
12, 89706, Note_on_c, 12, 60, 0
12, 89706, Note_on_c, 12, 58, 43
12, 89766, Note_on_c, 12, 58, 0
12, 89766, Note_on_c, 12, 57, 43
12, 89886, Note_on_c, 12, 57, 0
12, 90006, Note_on_c, 12, 56, 43
12, 90126, Note_on_c, 12, 56, 0
12, 90126, Note_on_c, 12, 55, 43
12, 90186, Note_on_c, 12, 55, 0
12, 90186, Note_on_c, 12, 53, 43
12, 90246, Note_on_c, 12, 53, 0
12, 90246, Note_on_c, 12, 58, 43
12, 90366, Note_on_c, 12, 58, 0
12, 90366, Note_on_c, 12, 58, 43
12, 90486, Note_on_c, 12, 58, 0
12, 90486, Note_on_c, 12, 51, 30
12, 90546, Note_on_c, 12, 51, 0
12, 91175, Program_c, 12, 48
12, 91176, Control_c, 12, 11, 52
12, 91176, Note_on_c, 12, 60, 100
12, 91178, Control_c, 12, 11, 55
12, 91180, Control_c, 12, 11, 58
12, 91183, Control_c, 12, 11, 62
12, 91186, Control_c, 12, 11, 66
12, 91189, Control_c, 12, 11, 70
12, 91201, Note_on_c, 12, 60, 0
12, 91326, Control_c, 12, 11, 47
12, 91326, Note_on_c, 12, 69, 100
12, 91326, Note_on_c, 12, 57, 100
12, 91446, Note_on_c, 12, 57, 0
12, 91446, Note_on_c, 12, 69, 0
12, 91446, Note_on_c, 12, 55, 100
12, 91446, Note_on_c, 12, 67, 100
12, 91566, Note_on_c, 12, 67, 0
12, 91566, Note_on_c, 12, 55, 0
12, 91566, Note_on_c, 12, 65, 80
12, 91566, Note_on_c, 12, 53, 80
12, 91601, Control_c, 12, 11, 47
12, 91603, Control_c, 12, 11, 44
12, 91606, Control_c, 12, 11, 41
12, 91609, Control_c, 12, 11, 38
12, 91612, Control_c, 12, 11, 35
12, 91615, Control_c, 12, 11, 32
12, 91618, Control_c, 12, 11, 29
12, 91621, Control_c, 12, 11, 26
12, 91624, Control_c, 12, 11, 23
12, 91626, Note_on_c, 12, 53, 0
12, 91626, Note_on_c, 12, 65, 0
12, 92256, Control_c, 12, 11, 52
12, 92256, Note_on_c, 12, 60, 100
12, 92258, Control_c, 12, 11, 55
12, 92260, Control_c, 12, 11, 58
12, 92263, Control_c, 12, 11, 62
12, 92266, Control_c, 12, 11, 66
12, 92269, Control_c, 12, 11, 70
12, 92281, Note_on_c, 12, 60, 0
12, 92286, Control_c, 12, 11, 47
12, 92286, Note_on_c, 12, 55, 80
12, 92406, Note_on_c, 12, 55, 0
12, 92406, Note_on_c, 12, 67, 80
12, 92526, Note_on_c, 12, 67, 0
12, 92526, Note_on_c, 12, 66, 80
12, 92646, Note_on_c, 12, 66, 0
12, 92646, Control_c, 12, 11, 42
12, 92646, Note_on_c, 12, 67, 80
12, 92662, Control_c, 12, 11, 43
12, 92678, Control_c, 12, 11, 44
12, 92694, Control_c, 12, 11, 45
12, 92710, Control_c, 12, 11, 46
12, 92726, Control_c, 12, 11, 47
12, 92742, Control_c, 12, 11, 48
12, 92758, Control_c, 12, 11, 49
12, 92761, Note_on_c, 12, 67, 0
12, 92766, Note_on_c, 12, 55, 80
12, 92774, Control_c, 12, 11, 50
12, 92790, Control_c, 12, 11, 51
12, 92806, Control_c, 12, 11, 52
12, 92822, Control_c, 12, 11, 53
12, 92838, Control_c, 12, 11, 54
12, 92854, Control_c, 12, 11, 55
12, 92870, Control_c, 12, 11, 56
12, 92886, Control_c, 12, 11, 57
12, 92902, Control_c, 12, 11, 58
12, 92918, Control_c, 12, 11, 59
12, 92934, Control_c, 12, 11, 60
12, 92950, Control_c, 12, 11, 61
12, 92966, Control_c, 12, 11, 62
12, 92982, Control_c, 12, 11, 63
12, 92998, Control_c, 12, 11, 64
12, 93014, Control_c, 12, 11, 65
12, 93030, Control_c, 12, 11, 66
12, 93046, Control_c, 12, 11, 67
12, 93062, Control_c, 12, 11, 68
12, 93078, Control_c, 12, 11, 69
12, 93094, Control_c, 12, 11, 70
12, 93110, Control_c, 12, 11, 71
12, 93121, Note_on_c, 12, 55, 0
12, 93126, Control_c, 12, 11, 72
12, 93126, Note_on_c, 12, 62, 80
12, 93142, Control_c, 12, 11, 73
12, 93158, Control_c, 12, 11, 74
12, 93174, Control_c, 12, 11, 75
12, 93190, Control_c, 12, 11, 76
12, 93206, Control_c, 12, 11, 77
12, 93222, Control_c, 12, 11, 78
12, 93238, Control_c, 12, 11, 79
12, 93246, Note_on_c, 12, 62, 0
12, 93246, Note_on_c, 12, 60, 80
12, 93254, Control_c, 12, 11, 80
12, 93270, Control_c, 12, 11, 81
12, 93286, Control_c, 12, 11, 82
12, 93302, Control_c, 12, 11, 83
12, 93318, Control_c, 12, 11, 84
12, 93334, Control_c, 12, 11, 85
12, 93350, Control_c, 12, 11, 86
12, 93361, Note_on_c, 12, 60, 0
12, 93366, Control_c, 12, 11, 87
12, 93366, Note_on_c, 12, 55, 80
12, 93382, Control_c, 12, 11, 89
12, 93398, Control_c, 12, 11, 91
12, 93414, Control_c, 12, 11, 93
12, 93430, Control_c, 12, 11, 95
12, 93446, Control_c, 12, 11, 97
12, 93462, Control_c, 12, 11, 99
12, 93471, Note_on_c, 12, 55, 0
12, 93471, Note_on_c, 12, 65, 80
12, 93478, Control_c, 12, 11, 101
12, 93481, Note_on_c, 12, 65, 0
12, 93486, Note_on_c, 12, 65, 80
12, 93494, Control_c, 12, 11, 100
12, 93507, Control_c, 12, 11, 97
12, 93520, Control_c, 12, 11, 94
12, 93534, Control_c, 12, 11, 91
12, 93547, Control_c, 12, 11, 88
12, 93560, Control_c, 12, 11, 85
12, 93573, Control_c, 12, 11, 82
12, 93586, Control_c, 12, 11, 79
12, 93599, Control_c, 12, 11, 76
12, 93612, Control_c, 12, 11, 73
12, 93625, Control_c, 12, 11, 70
12, 93638, Control_c, 12, 11, 67
12, 93651, Control_c, 12, 11, 64
12, 93664, Control_c, 12, 11, 61
12, 93666, Note_on_c, 12, 65, 0
12, 93666, Note_on_c, 12, 64, 80
12, 93678, Control_c, 12, 11, 58
12, 93691, Control_c, 12, 11, 55
12, 93704, Control_c, 12, 11, 52
12, 93717, Control_c, 12, 11, 49
12, 93721, Note_on_c, 12, 64, 0
12, 93726, Note_on_c, 12, 62, 80
12, 93753, Control_c, 12, 11, 46
12, 93781, Control_c, 12, 11, 45
12, 93786, Note_on_c, 12, 62, 0
12, 93786, Note_on_c, 12, 60, 80
12, 93809, Control_c, 12, 11, 44
12, 93836, Control_c, 12, 11, 43
12, 93846, Note_on_c, 12, 60, 0
12, 93846, Note_on_c, 12, 59, 80
12, 93864, Control_c, 12, 11, 42
12, 93892, Control_c, 12, 11, 41
12, 93906, Note_on_c, 12, 59, 0
12, 93906, Note_on_c, 12, 57, 80
12, 93919, Control_c, 12, 11, 40
12, 93947, Control_c, 12, 11, 39
12, 93966, Note_on_c, 12, 57, 0
12, 93966, Note_on_c, 12, 55, 80
12, 93975, Control_c, 12, 11, 38
12, 94002, Control_c, 12, 11, 37
12, 94026, Note_on_c, 12, 55, 0
12, 94026, Note_on_c, 12, 53, 80
12, 94030, Control_c, 12, 11, 36
12, 94058, Control_c, 12, 11, 35
12, 94081, Note_on_c, 12, 53, 0
12, 94086, Control_c, 12, 11, 34
12, 94086, Note_on_c, 12, 52, 80
12, 94146, Note_on_c, 12, 52, 0
12, 94146, Note_on_c, 12, 50, 80
12, 94206, Note_on_c, 12, 50, 0
12, 94206, Note_on_c, 12, 49, 80
12, 94266, Note_on_c, 12, 49, 0
12, 94266, Note_on_c, 12, 50, 80
12, 94326, Note_on_c, 12, 50, 0
12, 94326, Note_on_c, 12, 59, 80
12, 94386, Note_on_c, 12, 59, 0
12, 94386, Note_on_c, 12, 57, 80
12, 94441, Note_on_c, 12, 57, 0
12, 94446, Note_on_c, 12, 55, 100
12, 94471, Note_on_c, 12, 55, 0
12, 94476, Note_on_c, 12, 55, 68
12, 94496, Note_on_c, 12, 55, 0
12, 94506, Note_on_c, 12, 55, 68
12, 94526, Note_on_c, 12, 55, 0
12, 94536, Note_on_c, 12, 55, 68
12, 94556, Note_on_c, 12, 55, 0
12, 94566, Note_on_c, 12, 55, 70
12, 94586, Note_on_c, 12, 55, 0
12, 94596, Note_on_c, 12, 55, 71
12, 94616, Note_on_c, 12, 55, 0
12, 94626, Note_on_c, 12, 55, 73
12, 94646, Note_on_c, 12, 55, 0
12, 94656, Note_on_c, 12, 55, 73
12, 94676, Note_on_c, 12, 55, 0
12, 94686, Note_on_c, 12, 55, 75
12, 94706, Note_on_c, 12, 55, 0
12, 94716, Note_on_c, 12, 55, 75
12, 94736, Note_on_c, 12, 55, 0
12, 94746, Note_on_c, 12, 55, 76
12, 94766, Note_on_c, 12, 55, 0
12, 94776, Note_on_c, 12, 55, 78
12, 94796, Note_on_c, 12, 55, 0
12, 94806, Note_on_c, 12, 55, 79
12, 94826, Note_on_c, 12, 55, 0
12, 94836, Note_on_c, 12, 55, 81
12, 94856, Note_on_c, 12, 55, 0
12, 94866, Note_on_c, 12, 55, 81
12, 94886, Note_on_c, 12, 55, 0
12, 94896, Note_on_c, 12, 55, 83
12, 94916, Note_on_c, 12, 55, 0
12, 94926, Note_on_c, 12, 55, 84
12, 94946, Note_on_c, 12, 55, 0
12, 94956, Note_on_c, 12, 55, 85
12, 94976, Note_on_c, 12, 55, 0
12, 94986, Note_on_c, 12, 55, 86
12, 95006, Note_on_c, 12, 55, 0
12, 95016, Note_on_c, 12, 55, 87
12, 95036, Note_on_c, 12, 55, 0
12, 95046, Note_on_c, 12, 55, 89
12, 95066, Note_on_c, 12, 55, 0
12, 95076, Note_on_c, 12, 55, 90
12, 95096, Note_on_c, 12, 55, 0
12, 95106, Note_on_c, 12, 55, 92
12, 95126, Note_on_c, 12, 55, 0
12, 95136, Note_on_c, 12, 55, 93
12, 95156, Note_on_c, 12, 55, 0
12, 95166, Note_on_c, 12, 55, 95
12, 95186, Note_on_c, 12, 55, 0
12, 95196, Note_on_c, 12, 55, 95
12, 95216, Note_on_c, 12, 55, 0
12, 95226, Note_on_c, 12, 55, 96
12, 95246, Note_on_c, 12, 55, 0
12, 95256, Note_on_c, 12, 55, 96
12, 95276, Note_on_c, 12, 55, 0
12, 95286, Note_on_c, 12, 55, 96
12, 95306, Note_on_c, 12, 55, 0
12, 95316, Note_on_c, 12, 55, 97
12, 95336, Note_on_c, 12, 55, 0
12, 95346, Note_on_c, 12, 55, 97
12, 95366, Note_on_c, 12, 55, 0
12, 95376, Note_on_c, 12, 55, 98
12, 95396, Note_on_c, 12, 55, 0
12, 95406, Note_on_c, 12, 55, 98
12, 95426, Note_on_c, 12, 55, 0
12, 95436, Note_on_c, 12, 55, 99
12, 95456, Note_on_c, 12, 55, 0
12, 95466, Note_on_c, 12, 55, 99
12, 95486, Note_on_c, 12, 55, 0
12, 95496, Note_on_c, 12, 55, 100
12, 95516, Note_on_c, 12, 55, 0
12, 95526, Note_on_c, 12, 55, 100
12, 95646, Note_on_c, 12, 55, 0
12, 96006, Control_c, 12, 11, 37
12, 96006, Note_on_c, 12, 55, 100
12, 96034, Control_c, 12, 11, 38
12, 96063, Control_c, 12, 11, 39
12, 96092, Control_c, 12, 11, 40
12, 96121, Control_c, 12, 11, 41
12, 96126, Note_on_c, 12, 55, 0
12, 96150, Control_c, 12, 11, 42
12, 96178, Control_c, 12, 11, 43
12, 96207, Control_c, 12, 11, 44
12, 96236, Control_c, 12, 11, 45
12, 96265, Control_c, 12, 11, 46
12, 96294, Control_c, 12, 11, 47
12, 96322, Control_c, 12, 11, 48
12, 96351, Control_c, 12, 11, 49
12, 96380, Control_c, 12, 11, 50
12, 96409, Control_c, 12, 11, 51
12, 96438, Control_c, 12, 11, 52
12, 96466, Control_c, 12, 11, 53
12, 96486, Note_on_c, 12, 55, 100
12, 96495, Control_c, 12, 11, 54
12, 96524, Control_c, 12, 11, 55
12, 96553, Control_c, 12, 11, 56
12, 96582, Control_c, 12, 11, 57
12, 96606, Note_on_c, 12, 55, 0
12, 96610, Control_c, 12, 11, 58
12, 96639, Control_c, 12, 11, 59
12, 96668, Control_c, 12, 11, 60
12, 96697, Control_c, 12, 11, 61
12, 96726, Control_c, 12, 11, 62
12, 96726, Note_on_c, 12, 55, 100
12, 96754, Control_c, 12, 11, 63
12, 96783, Control_c, 12, 11, 64
12, 96812, Control_c, 12, 11, 65
12, 96841, Control_c, 12, 11, 66
12, 96846, Note_on_c, 12, 55, 0
12, 96870, Control_c, 12, 11, 67
12, 96898, Control_c, 12, 11, 68
12, 96927, Control_c, 12, 11, 69
12, 96956, Control_c, 12, 11, 70
12, 96966, Note_on_c, 12, 55, 100
12, 96985, Control_c, 12, 11, 71
12, 97014, Control_c, 12, 11, 72
12, 97042, Control_c, 12, 11, 73
12, 97071, Control_c, 12, 11, 74
12, 97086, Note_on_c, 12, 55, 0
12, 97100, Control_c, 12, 11, 75
12, 97129, Control_c, 12, 11, 76
12, 97158, Control_c, 12, 11, 77
12, 97186, Control_c, 12, 11, 78
12, 97206, Note_on_c, 12, 55, 100
12, 97215, Control_c, 12, 11, 79
12, 97244, Control_c, 12, 11, 80
12, 97273, Control_c, 12, 11, 81
12, 97302, Control_c, 12, 11, 82
12, 97326, Note_on_c, 12, 55, 0
12, 97330, Control_c, 12, 11, 83
12, 97359, Control_c, 12, 11, 84
12, 97388, Control_c, 12, 11, 85
12, 97417, Control_c, 12, 11, 86
12, 97446, Control_c, 12, 11, 87
12, 97446, Note_on_c, 12, 55, 100
12, 97551, Note_on_c, 12, 55, 0
12, 97565, Program_c, 12, 50
12, 97566, Note_on_c, 12, 55, 101
12, 97671, Note_on_c, 12, 55, 0
12, 97686, Note_on_c, 12, 62, 102
12, 97791, Note_on_c, 12, 62, 0
12, 97806, Note_on_c, 12, 59, 103
12, 97911, Note_on_c, 12, 59, 0
12, 97926, Control_c, 12, 11, 87
12, 97926, Note_on_c, 12, 65, 104
12, 98018, Control_c, 12, 11, 88
12, 98031, Note_on_c, 12, 65, 0
12, 98046, Note_on_c, 12, 62, 106
12, 98110, Control_c, 12, 11, 89
12, 98151, Note_on_c, 12, 62, 0
12, 98166, Note_on_c, 12, 71, 107
12, 98202, Control_c, 12, 11, 90
12, 98271, Note_on_c, 12, 71, 0
12, 98286, Note_on_c, 12, 65, 108
12, 98294, Control_c, 12, 11, 91
12, 98386, Control_c, 12, 11, 92
12, 98391, Note_on_c, 12, 65, 0
12, 98406, Note_on_c, 12, 74, 109
12, 98478, Control_c, 12, 11, 93
12, 98511, Note_on_c, 12, 74, 0
12, 98525, Program_c, 12, 48
12, 98526, Note_on_c, 12, 71, 110
12, 98570, Control_c, 12, 11, 94
12, 98631, Note_on_c, 12, 71, 0
12, 98646, Note_on_c, 12, 77, 112
12, 98662, Control_c, 12, 11, 95
12, 98751, Note_on_c, 12, 77, 0
12, 98754, Control_c, 12, 11, 96
12, 98766, Note_on_c, 12, 74, 113
12, 98846, Control_c, 12, 11, 97
12, 98871, Note_on_c, 12, 74, 0
12, 98886, Note_on_c, 12, 71, 114
12, 98938, Control_c, 12, 11, 98
12, 98991, Note_on_c, 12, 71, 0
12, 99006, Note_on_c, 12, 67, 115
12, 99030, Control_c, 12, 11, 99
12, 99111, Note_on_c, 12, 67, 0
12, 99122, Control_c, 12, 11, 100
12, 99126, Note_on_c, 12, 72, 117
12, 99214, Control_c, 12, 11, 101
12, 99231, Note_on_c, 12, 72, 0
12, 99246, Note_on_c, 12, 60, 117
12, 99246, Note_on_c, 12, 48, 117
12, 99306, Control_c, 12, 11, 102
12, 99366, Note_on_c, 12, 48, 0
12, 99366, Note_on_c, 12, 60, 0
12, 99486, Note_on_c, 12, 48, 117
12, 99486, Note_on_c, 12, 60, 117
12, 99606, Note_on_c, 12, 60, 0
12, 99606, Note_on_c, 12, 48, 0
12, 99726, Note_on_c, 12, 60, 117
12, 99726, Note_on_c, 12, 48, 117
12, 99846, Note_on_c, 12, 48, 0
12, 99846, Note_on_c, 12, 60, 0
12, 99846, Note_on_c, 12, 60, 117
12, 99951, Note_on_c, 12, 60, 0
12, 99966, Note_on_c, 12, 67, 117
12, 99966, Note_on_c, 12, 64, 117
12, 100016, Note_on_c, 12, 64, 0
12, 100016, Note_on_c, 12, 67, 0
12, 100026, Note_on_c, 12, 64, 117
12, 100026, Note_on_c, 12, 67, 117
12, 100076, Note_on_c, 12, 67, 0
12, 100076, Note_on_c, 12, 64, 0
12, 100086, Note_on_c, 12, 60, 117
12, 100086, Note_on_c, 12, 64, 117
12, 100136, Note_on_c, 12, 64, 0
12, 100136, Note_on_c, 12, 60, 0
12, 100146, Note_on_c, 12, 64, 117
12, 100146, Note_on_c, 12, 60, 117
12, 100196, Note_on_c, 12, 60, 0
12, 100196, Note_on_c, 12, 64, 0
12, 100206, Note_on_c, 12, 55, 117
12, 100206, Note_on_c, 12, 60, 117
12, 100256, Note_on_c, 12, 60, 0
12, 100256, Note_on_c, 12, 55, 0
12, 100266, Note_on_c, 12, 60, 117
12, 100266, Note_on_c, 12, 55, 117
12, 100316, Note_on_c, 12, 55, 0
12, 100316, Note_on_c, 12, 60, 0
12, 100326, Note_on_c, 12, 55, 117
12, 100326, Note_on_c, 12, 52, 117
12, 100376, Note_on_c, 12, 52, 0
12, 100376, Note_on_c, 12, 55, 0
12, 100386, Note_on_c, 12, 55, 117
12, 100386, Note_on_c, 12, 52, 117
12, 100436, Note_on_c, 12, 52, 0
12, 100436, Note_on_c, 12, 55, 0
12, 100446, Note_on_c, 12, 52, 117
12, 100446, Note_on_c, 12, 48, 117
12, 100496, Note_on_c, 12, 48, 0
12, 100496, Note_on_c, 12, 52, 0
12, 100506, Note_on_c, 12, 52, 117
12, 100506, Note_on_c, 12, 48, 117
12, 100556, Note_on_c, 12, 48, 0
12, 100556, Note_on_c, 12, 52, 0
12, 100566, Note_on_c, 12, 55, 117
12, 100566, Note_on_c, 12, 52, 117
12, 100616, Note_on_c, 12, 52, 0
12, 100616, Note_on_c, 12, 55, 0
12, 100626, Note_on_c, 12, 52, 117
12, 100626, Note_on_c, 12, 55, 117
12, 100676, Note_on_c, 12, 55, 0
12, 100676, Note_on_c, 12, 52, 0
12, 100686, Note_on_c, 12, 57, 117
12, 100686, Note_on_c, 12, 53, 117
12, 100736, Note_on_c, 12, 53, 0
12, 100736, Note_on_c, 12, 57, 0
12, 100746, Note_on_c, 12, 53, 117
12, 100746, Note_on_c, 12, 57, 117
12, 100796, Note_on_c, 12, 57, 0
12, 100796, Note_on_c, 12, 53, 0
12, 100806, Note_on_c, 12, 52, 117
12, 100806, Note_on_c, 12, 55, 117
12, 100856, Note_on_c, 12, 55, 0
12, 100856, Note_on_c, 12, 52, 0
12, 100866, Note_on_c, 12, 55, 117
12, 100866, Note_on_c, 12, 52, 117
12, 100916, Note_on_c, 12, 52, 0
12, 100916, Note_on_c, 12, 55, 0
12, 100926, Note_on_c, 12, 64, 117
12, 100926, Note_on_c, 12, 67, 117
12, 100976, Note_on_c, 12, 67, 0
12, 100976, Note_on_c, 12, 64, 0
12, 100986, Note_on_c, 12, 67, 117
12, 100986, Note_on_c, 12, 64, 117
12, 101036, Note_on_c, 12, 64, 0
12, 101036, Note_on_c, 12, 67, 0
12, 101046, Note_on_c, 12, 64, 117
12, 101046, Note_on_c, 12, 60, 117
12, 101096, Note_on_c, 12, 60, 0
12, 101096, Note_on_c, 12, 64, 0
12, 101106, Note_on_c, 12, 64, 117
12, 101106, Note_on_c, 12, 60, 117
12, 101156, Note_on_c, 12, 60, 0
12, 101156, Note_on_c, 12, 64, 0
12, 101166, Note_on_c, 12, 55, 117
12, 101166, Note_on_c, 12, 60, 117
12, 101216, Note_on_c, 12, 60, 0
12, 101216, Note_on_c, 12, 55, 0
12, 101226, Note_on_c, 12, 55, 117
12, 101226, Note_on_c, 12, 60, 117
12, 101276, Note_on_c, 12, 60, 0
12, 101276, Note_on_c, 12, 55, 0
12, 101286, Note_on_c, 12, 55, 117
12, 101286, Note_on_c, 12, 52, 117
12, 101336, Note_on_c, 12, 52, 0
12, 101336, Note_on_c, 12, 55, 0
12, 101346, Note_on_c, 12, 52, 117
12, 101346, Note_on_c, 12, 55, 117
12, 101396, Note_on_c, 12, 55, 0
12, 101396, Note_on_c, 12, 52, 0
12, 101406, Note_on_c, 12, 48, 117
12, 101406, Note_on_c, 12, 52, 117
12, 101456, Note_on_c, 12, 52, 0
12, 101456, Note_on_c, 12, 48, 0
12, 101466, Note_on_c, 12, 48, 117
12, 101466, Note_on_c, 12, 52, 117
12, 101516, Note_on_c, 12, 52, 0
12, 101516, Note_on_c, 12, 48, 0
12, 101526, Note_on_c, 12, 55, 117
12, 101526, Note_on_c, 12, 52, 117
12, 101576, Note_on_c, 12, 52, 0
12, 101576, Note_on_c, 12, 55, 0
12, 101586, Note_on_c, 12, 55, 117
12, 101586, Note_on_c, 12, 52, 117
12, 101636, Note_on_c, 12, 52, 0
12, 101636, Note_on_c, 12, 55, 0
12, 101646, Note_on_c, 12, 57, 117
12, 101646, Note_on_c, 12, 53, 117
12, 101696, Note_on_c, 12, 53, 0
12, 101696, Note_on_c, 12, 57, 0
12, 101706, Note_on_c, 12, 53, 117
12, 101706, Note_on_c, 12, 57, 117
12, 101756, Note_on_c, 12, 57, 0
12, 101756, Note_on_c, 12, 53, 0
12, 101766, Note_on_c, 12, 55, 117
12, 101766, Note_on_c, 12, 52, 117
12, 101816, Note_on_c, 12, 52, 0
12, 101816, Note_on_c, 12, 55, 0
12, 101826, Note_on_c, 12, 52, 117
12, 101826, Note_on_c, 12, 55, 117
12, 101876, Note_on_c, 12, 55, 0
12, 101876, Note_on_c, 12, 52, 0
12, 101886, Note_on_c, 12, 64, 117
12, 101886, Note_on_c, 12, 67, 117
12, 101936, Note_on_c, 12, 67, 0
12, 101936, Note_on_c, 12, 64, 0
12, 101946, Note_on_c, 12, 64, 117
12, 101946, Note_on_c, 12, 67, 117
12, 101996, Note_on_c, 12, 67, 0
12, 101996, Note_on_c, 12, 64, 0
12, 102006, Note_on_c, 12, 60, 117
12, 102006, Note_on_c, 12, 64, 117
12, 102056, Note_on_c, 12, 64, 0
12, 102056, Note_on_c, 12, 60, 0
12, 102066, Note_on_c, 12, 64, 117
12, 102066, Note_on_c, 12, 60, 117
12, 102116, Note_on_c, 12, 60, 0
12, 102116, Note_on_c, 12, 64, 0
12, 102126, Note_on_c, 12, 55, 117
12, 102126, Note_on_c, 12, 60, 117
12, 102176, Note_on_c, 12, 60, 0
12, 102176, Note_on_c, 12, 55, 0
12, 102186, Note_on_c, 12, 60, 117
12, 102186, Note_on_c, 12, 55, 117
12, 102236, Note_on_c, 12, 55, 0
12, 102236, Note_on_c, 12, 60, 0
12, 102246, Note_on_c, 12, 60, 117
12, 102246, Note_on_c, 12, 72, 117
12, 102296, Note_on_c, 12, 72, 0
12, 102296, Note_on_c, 12, 60, 0
12, 102306, Note_on_c, 12, 72, 117
12, 102306, Note_on_c, 12, 60, 117
12, 102356, Note_on_c, 12, 60, 0
12, 102356, Note_on_c, 12, 72, 0
12, 102366, Note_on_c, 12, 55, 117
12, 102366, Note_on_c, 12, 67, 117
12, 102416, Note_on_c, 12, 67, 0
12, 102416, Note_on_c, 12, 55, 0
12, 102426, Note_on_c, 12, 55, 117
12, 102426, Note_on_c, 12, 67, 117
12, 102476, Note_on_c, 12, 67, 0
12, 102476, Note_on_c, 12, 55, 0
12, 102486, Note_on_c, 12, 64, 117
12, 102486, Note_on_c, 12, 52, 117
12, 102536, Note_on_c, 12, 52, 0
12, 102536, Note_on_c, 12, 64, 0
12, 102546, Note_on_c, 12, 52, 117
12, 102546, Note_on_c, 12, 64, 117
12, 102596, Note_on_c, 12, 64, 0
12, 102596, Note_on_c, 12, 52, 0
12, 102606, Note_on_c, 12, 60, 117
12, 102606, Note_on_c, 12, 48, 117
12, 102656, Note_on_c, 12, 48, 0
12, 102656, Note_on_c, 12, 60, 0
12, 102666, Note_on_c, 12, 60, 117
12, 102666, Note_on_c, 12, 48, 117
12, 102716, Note_on_c, 12, 48, 0
12, 102716, Note_on_c, 12, 60, 0
12, 102726, Note_on_c, 12, 69, 117
12, 102776, Note_on_c, 12, 69, 0
12, 102786, Note_on_c, 12, 69, 117
12, 102836, Note_on_c, 12, 69, 0
12, 102846, Note_on_c, 12, 65, 117
12, 102896, Note_on_c, 12, 65, 0
12, 102906, Note_on_c, 12, 65, 117
12, 102956, Note_on_c, 12, 65, 0
12, 102966, Note_on_c, 12, 62, 117
12, 103016, Note_on_c, 12, 62, 0
12, 103026, Note_on_c, 12, 62, 117
12, 103076, Note_on_c, 12, 62, 0
12, 103086, Note_on_c, 12, 57, 117
12, 103136, Note_on_c, 12, 57, 0
12, 103146, Note_on_c, 12, 57, 117
12, 103196, Note_on_c, 12, 57, 0
12, 103206, Note_on_c, 12, 65, 117
12, 103256, Note_on_c, 12, 65, 0
12, 103266, Note_on_c, 12, 65, 117
12, 103316, Note_on_c, 12, 65, 0
12, 103326, Note_on_c, 12, 74, 117
12, 103326, Note_on_c, 12, 62, 117
12, 103376, Note_on_c, 12, 62, 0
12, 103376, Note_on_c, 12, 74, 0
12, 103386, Note_on_c, 12, 62, 117
12, 103386, Note_on_c, 12, 74, 117
12, 103436, Note_on_c, 12, 74, 0
12, 103436, Note_on_c, 12, 62, 0
12, 103446, Note_on_c, 12, 71, 117
12, 103446, Note_on_c, 12, 59, 117
12, 103496, Note_on_c, 12, 59, 0
12, 103496, Note_on_c, 12, 71, 0
12, 103506, Note_on_c, 12, 71, 117
12, 103506, Note_on_c, 12, 59, 117
12, 103556, Note_on_c, 12, 59, 0
12, 103556, Note_on_c, 12, 71, 0
12, 103566, Note_on_c, 12, 65, 117
12, 103566, Note_on_c, 12, 53, 117
12, 103616, Note_on_c, 12, 53, 0
12, 103616, Note_on_c, 12, 65, 0
12, 103626, Note_on_c, 12, 65, 117
12, 103626, Note_on_c, 12, 53, 117
12, 103676, Note_on_c, 12, 53, 0
12, 103676, Note_on_c, 12, 65, 0
12, 103686, Note_on_c, 12, 72, 117
12, 103686, Note_on_c, 12, 60, 117
12, 103736, Note_on_c, 12, 60, 0
12, 103736, Note_on_c, 12, 72, 0
12, 103746, Note_on_c, 12, 72, 117
12, 103746, Note_on_c, 12, 60, 117
12, 103796, Note_on_c, 12, 60, 0
12, 103796, Note_on_c, 12, 72, 0
12, 103806, Note_on_c, 12, 69, 117
12, 103806, Note_on_c, 12, 57, 117
12, 103856, Note_on_c, 12, 57, 0
12, 103856, Note_on_c, 12, 69, 0
12, 103866, Note_on_c, 12, 69, 117
12, 103866, Note_on_c, 12, 57, 117
12, 103916, Note_on_c, 12, 57, 0
12, 103916, Note_on_c, 12, 69, 0
12, 103926, Note_on_c, 12, 52, 117
12, 103926, Note_on_c, 12, 64, 117
12, 103976, Note_on_c, 12, 64, 0
12, 103976, Note_on_c, 12, 52, 0
12, 103986, Note_on_c, 12, 64, 117
12, 103986, Note_on_c, 12, 52, 117
12, 104036, Note_on_c, 12, 52, 0
12, 104036, Note_on_c, 12, 64, 0
12, 104046, Note_on_c, 12, 48, 117
12, 104046, Note_on_c, 12, 60, 117
12, 104096, Note_on_c, 12, 60, 0
12, 104096, Note_on_c, 12, 48, 0
12, 104106, Note_on_c, 12, 60, 117
12, 104106, Note_on_c, 12, 48, 117
12, 104156, Note_on_c, 12, 48, 0
12, 104156, Note_on_c, 12, 60, 0
12, 104166, Note_on_c, 12, 60, 117
12, 104166, Note_on_c, 12, 72, 117
12, 104216, Note_on_c, 12, 72, 0
12, 104216, Note_on_c, 12, 60, 0
12, 104226, Note_on_c, 12, 60, 117
12, 104226, Note_on_c, 12, 72, 117
12, 104276, Note_on_c, 12, 72, 0
12, 104276, Note_on_c, 12, 60, 0
12, 104286, Note_on_c, 12, 55, 117
12, 104286, Note_on_c, 12, 67, 117
12, 104336, Note_on_c, 12, 67, 0
12, 104336, Note_on_c, 12, 55, 0
12, 104346, Note_on_c, 12, 67, 117
12, 104346, Note_on_c, 12, 55, 117
12, 104396, Note_on_c, 12, 55, 0
12, 104396, Note_on_c, 12, 67, 0
12, 104406, Note_on_c, 12, 64, 117
12, 104406, Note_on_c, 12, 52, 117
12, 104456, Note_on_c, 12, 52, 0
12, 104456, Note_on_c, 12, 64, 0
12, 104466, Note_on_c, 12, 52, 117
12, 104466, Note_on_c, 12, 64, 117
12, 104516, Note_on_c, 12, 64, 0
12, 104516, Note_on_c, 12, 52, 0
12, 104526, Note_on_c, 12, 48, 117
12, 104526, Note_on_c, 12, 60, 117
12, 104576, Note_on_c, 12, 60, 0
12, 104576, Note_on_c, 12, 48, 0
12, 104586, Note_on_c, 12, 60, 117
12, 104586, Note_on_c, 12, 48, 117
12, 104636, Note_on_c, 12, 48, 0
12, 104636, Note_on_c, 12, 60, 0
12, 104646, Note_on_c, 12, 69, 117
12, 104696, Note_on_c, 12, 69, 0
12, 104706, Note_on_c, 12, 69, 117
12, 104756, Note_on_c, 12, 69, 0
12, 104766, Note_on_c, 12, 65, 117
12, 104816, Note_on_c, 12, 65, 0
12, 104826, Note_on_c, 12, 65, 117
12, 104876, Note_on_c, 12, 65, 0
12, 104886, Note_on_c, 12, 62, 117
12, 104936, Note_on_c, 12, 62, 0
12, 104946, Note_on_c, 12, 62, 117
12, 104996, Note_on_c, 12, 62, 0
12, 105006, Note_on_c, 12, 57, 117
12, 105056, Note_on_c, 12, 57, 0
12, 105066, Note_on_c, 12, 57, 117
12, 105116, Note_on_c, 12, 57, 0
12, 105126, Note_on_c, 12, 69, 117
12, 105176, Note_on_c, 12, 69, 0
12, 105186, Note_on_c, 12, 69, 117
12, 105236, Note_on_c, 12, 69, 0
12, 105246, Note_on_c, 12, 65, 117
12, 105296, Note_on_c, 12, 65, 0
12, 105306, Note_on_c, 12, 65, 117
12, 105356, Note_on_c, 12, 65, 0
12, 105366, Note_on_c, 12, 62, 117
12, 105416, Note_on_c, 12, 62, 0
12, 105426, Note_on_c, 12, 62, 117
12, 105476, Note_on_c, 12, 62, 0
12, 105486, Note_on_c, 12, 57, 117
12, 105536, Note_on_c, 12, 57, 0
12, 105546, Note_on_c, 12, 57, 117
12, 105596, Note_on_c, 12, 57, 0
12, 105606, Note_on_c, 12, 72, 117
12, 105606, Note_on_c, 12, 60, 117
12, 105656, Note_on_c, 12, 60, 0
12, 105656, Note_on_c, 12, 72, 0
12, 105666, Note_on_c, 12, 60, 117
12, 105666, Note_on_c, 12, 72, 117
12, 105716, Note_on_c, 12, 72, 0
12, 105716, Note_on_c, 12, 60, 0
12, 105726, Note_on_c, 12, 57, 117
12, 105726, Note_on_c, 12, 69, 117
12, 105776, Note_on_c, 12, 69, 0
12, 105776, Note_on_c, 12, 57, 0
12, 105786, Note_on_c, 12, 57, 117
12, 105786, Note_on_c, 12, 69, 117
12, 105836, Note_on_c, 12, 69, 0
12, 105836, Note_on_c, 12, 57, 0
12, 105846, Note_on_c, 12, 66, 117
12, 105846, Note_on_c, 12, 54, 117
12, 105896, Note_on_c, 12, 54, 0
12, 105896, Note_on_c, 12, 66, 0
12, 105906, Note_on_c, 12, 66, 117
12, 105906, Note_on_c, 12, 54, 117
12, 105956, Note_on_c, 12, 54, 0
12, 105956, Note_on_c, 12, 66, 0
12, 105966, Note_on_c, 12, 62, 117
12, 105966, Note_on_c, 12, 50, 117
12, 106016, Note_on_c, 12, 50, 0
12, 106016, Note_on_c, 12, 62, 0
12, 106026, Note_on_c, 12, 50, 117
12, 106026, Note_on_c, 12, 62, 117
12, 106076, Note_on_c, 12, 62, 0
12, 106076, Note_on_c, 12, 50, 0
12, 106086, Note_on_c, 12, 72, 117
12, 106086, Note_on_c, 12, 60, 117
12, 106136, Note_on_c, 12, 60, 0
12, 106136, Note_on_c, 12, 72, 0
12, 106146, Note_on_c, 12, 60, 117
12, 106146, Note_on_c, 12, 72, 117
12, 106196, Note_on_c, 12, 72, 0
12, 106196, Note_on_c, 12, 60, 0
12, 106206, Note_on_c, 12, 57, 117
12, 106206, Note_on_c, 12, 69, 117
12, 106256, Note_on_c, 12, 69, 0
12, 106256, Note_on_c, 12, 57, 0
12, 106266, Note_on_c, 12, 57, 117
12, 106266, Note_on_c, 12, 69, 117
12, 106316, Note_on_c, 12, 69, 0
12, 106316, Note_on_c, 12, 57, 0
12, 106326, Note_on_c, 12, 66, 117
12, 106326, Note_on_c, 12, 54, 117
12, 106376, Note_on_c, 12, 54, 0
12, 106376, Note_on_c, 12, 66, 0
12, 106386, Note_on_c, 12, 54, 117
12, 106386, Note_on_c, 12, 66, 117
12, 106436, Note_on_c, 12, 66, 0
12, 106436, Note_on_c, 12, 54, 0
12, 106446, Note_on_c, 12, 62, 117
12, 106446, Note_on_c, 12, 50, 117
12, 106496, Note_on_c, 12, 50, 0
12, 106496, Note_on_c, 12, 62, 0
12, 106506, Note_on_c, 12, 62, 117
12, 106506, Note_on_c, 12, 50, 117
12, 106556, Note_on_c, 12, 50, 0
12, 106556, Note_on_c, 12, 62, 0
12, 106566, Note_on_c, 12, 55, 85
12, 106566, Note_on_c, 12, 67, 85
12, 106686, Note_on_c, 12, 67, 0
12, 106686, Note_on_c, 12, 55, 0
12, 108486, Control_c, 12, 11, 47
12, 108486, Note_on_c, 12, 62, 100
12, 108546, Note_on_c, 12, 62, 0
12, 108546, Note_on_c, 12, 59, 100
12, 108606, Note_on_c, 12, 59, 0
12, 108606, Note_on_c, 12, 62, 100
12, 108666, Note_on_c, 12, 62, 0
12, 108666, Note_on_c, 12, 59, 100
12, 108726, Note_on_c, 12, 59, 0
12, 108726, Note_on_c, 12, 62, 100
12, 108786, Note_on_c, 12, 62, 0
12, 108786, Note_on_c, 12, 59, 100
12, 108846, Note_on_c, 12, 59, 0
12, 108846, Note_on_c, 12, 62, 100
12, 108906, Note_on_c, 12, 62, 0
12, 108906, Note_on_c, 12, 59, 100
12, 108951, Note_on_c, 12, 59, 0
12, 108966, Note_on_c, 12, 62, 100
12, 109026, Note_on_c, 12, 62, 0
12, 109026, Note_on_c, 12, 59, 100
12, 109086, Note_on_c, 12, 59, 0
12, 109086, Note_on_c, 12, 62, 100
12, 109146, Note_on_c, 12, 62, 0
12, 109146, Note_on_c, 12, 59, 100
12, 109206, Note_on_c, 12, 59, 0
12, 109206, Note_on_c, 12, 62, 100
12, 109266, Note_on_c, 12, 62, 0
12, 109266, Note_on_c, 12, 59, 100
12, 109326, Note_on_c, 12, 59, 0
12, 109326, Note_on_c, 12, 62, 100
12, 109386, Note_on_c, 12, 62, 0
12, 109386, Note_on_c, 12, 59, 100
12, 109431, Note_on_c, 12, 59, 0
12, 109441, Control_c, 12, 11, 47
12, 109442, Control_c, 12, 11, 52
12, 109443, Control_c, 12, 11, 57
12, 109444, Control_c, 12, 11, 62
12, 109445, Control_c, 12, 11, 67
12, 109446, Control_c, 12, 11, 72
12, 109446, Note_on_c, 12, 62, 100
12, 109465, Control_c, 12, 11, 71
12, 109484, Control_c, 12, 11, 70
12, 109503, Control_c, 12, 11, 69
12, 109506, Note_on_c, 12, 62, 0
12, 109506, Note_on_c, 12, 59, 100
12, 109522, Control_c, 12, 11, 68
12, 109542, Control_c, 12, 11, 67
12, 109561, Control_c, 12, 11, 66
12, 109566, Note_on_c, 12, 59, 0
12, 109566, Note_on_c, 12, 62, 100
12, 109580, Control_c, 12, 11, 65
12, 109599, Control_c, 12, 11, 64
12, 109618, Control_c, 12, 11, 63
12, 109626, Note_on_c, 12, 62, 0
12, 109626, Note_on_c, 12, 59, 100
12, 109638, Control_c, 12, 11, 62
12, 109657, Control_c, 12, 11, 61
12, 109676, Control_c, 12, 11, 60
12, 109686, Note_on_c, 12, 59, 0
12, 109686, Note_on_c, 12, 62, 100
12, 109695, Control_c, 12, 11, 59
12, 109714, Control_c, 12, 11, 58
12, 109734, Control_c, 12, 11, 57
12, 109746, Note_on_c, 12, 62, 0
12, 109746, Note_on_c, 12, 59, 100
12, 109753, Control_c, 12, 11, 56
12, 109772, Control_c, 12, 11, 55
12, 109791, Control_c, 12, 11, 54
12, 109806, Note_on_c, 12, 59, 0
12, 109806, Note_on_c, 12, 62, 100
12, 109810, Control_c, 12, 11, 53
12, 109830, Control_c, 12, 11, 52
12, 109849, Control_c, 12, 11, 51
12, 109866, Note_on_c, 12, 62, 0
12, 109866, Note_on_c, 12, 59, 100
12, 109868, Control_c, 12, 11, 50
12, 109887, Control_c, 12, 11, 49
12, 109906, Control_c, 12, 11, 48
12, 109911, Note_on_c, 12, 59, 0
12, 109926, Control_c, 12, 11, 47
12, 109926, Note_on_c, 12, 62, 100
12, 109986, Note_on_c, 12, 62, 0
12, 109986, Note_on_c, 12, 59, 100
12, 110046, Note_on_c, 12, 59, 0
12, 110046, Note_on_c, 12, 62, 100
12, 110106, Note_on_c, 12, 62, 0
12, 110106, Note_on_c, 12, 59, 100
12, 110166, Note_on_c, 12, 59, 0
12, 110166, Note_on_c, 12, 62, 100
12, 110226, Note_on_c, 12, 62, 0
12, 110226, Note_on_c, 12, 59, 100
12, 110286, Note_on_c, 12, 59, 0
12, 110286, Note_on_c, 12, 62, 100
12, 110346, Note_on_c, 12, 62, 0
12, 110346, Note_on_c, 12, 59, 100
12, 110391, Note_on_c, 12, 59, 0
12, 110406, Note_on_c, 12, 62, 107
12, 110406, Note_on_c, 12, 65, 107
12, 110466, Note_on_c, 12, 65, 0
12, 110466, Note_on_c, 12, 62, 0
12, 110466, Note_on_c, 12, 62, 107
12, 110466, Note_on_c, 12, 59, 107
12, 110526, Note_on_c, 12, 59, 0
12, 110526, Note_on_c, 12, 62, 0
12, 110526, Note_on_c, 12, 62, 107
12, 110526, Note_on_c, 12, 65, 107
12, 110586, Note_on_c, 12, 65, 0
12, 110586, Note_on_c, 12, 62, 0
12, 110586, Note_on_c, 12, 62, 107
12, 110586, Note_on_c, 12, 59, 107
12, 110646, Note_on_c, 12, 59, 0
12, 110646, Note_on_c, 12, 62, 0
12, 110646, Note_on_c, 12, 65, 107
12, 110646, Note_on_c, 12, 62, 107
12, 110706, Note_on_c, 12, 62, 0
12, 110706, Note_on_c, 12, 65, 0
12, 110706, Note_on_c, 12, 62, 107
12, 110706, Note_on_c, 12, 59, 107
12, 110766, Note_on_c, 12, 59, 0
12, 110766, Note_on_c, 12, 62, 0
12, 110766, Note_on_c, 12, 65, 107
12, 110766, Note_on_c, 12, 62, 107
12, 110826, Note_on_c, 12, 62, 0
12, 110826, Note_on_c, 12, 65, 0
12, 110826, Note_on_c, 12, 62, 107
12, 110826, Note_on_c, 12, 59, 107
12, 110871, Note_on_c, 12, 59, 0
12, 110871, Note_on_c, 12, 62, 0
12, 110886, Note_on_c, 12, 62, 107
12, 110886, Note_on_c, 12, 65, 107
12, 110946, Note_on_c, 12, 65, 0
12, 110946, Note_on_c, 12, 62, 0
12, 110946, Note_on_c, 12, 62, 107
12, 110946, Note_on_c, 12, 59, 107
12, 111006, Note_on_c, 12, 59, 0
12, 111006, Note_on_c, 12, 62, 0
12, 111006, Note_on_c, 12, 62, 107
12, 111006, Note_on_c, 12, 65, 107
12, 111066, Note_on_c, 12, 65, 0
12, 111066, Note_on_c, 12, 62, 0
12, 111066, Note_on_c, 12, 62, 107
12, 111066, Note_on_c, 12, 59, 107
12, 111126, Note_on_c, 12, 59, 0
12, 111126, Note_on_c, 12, 62, 0
12, 111126, Note_on_c, 12, 62, 107
12, 111126, Note_on_c, 12, 65, 107
12, 111186, Note_on_c, 12, 65, 0
12, 111186, Note_on_c, 12, 62, 0
12, 111186, Note_on_c, 12, 62, 107
12, 111186, Note_on_c, 12, 59, 107
12, 111246, Note_on_c, 12, 59, 0
12, 111246, Note_on_c, 12, 62, 0
12, 111246, Note_on_c, 12, 65, 107
12, 111246, Note_on_c, 12, 62, 107
12, 111306, Note_on_c, 12, 62, 0
12, 111306, Note_on_c, 12, 65, 0
12, 111306, Note_on_c, 12, 59, 107
12, 111306, Note_on_c, 12, 62, 107
12, 111351, Note_on_c, 12, 62, 0
12, 111351, Note_on_c, 12, 59, 0
12, 111361, Control_c, 12, 11, 47
12, 111362, Control_c, 12, 11, 52
12, 111363, Control_c, 12, 11, 57
12, 111364, Control_c, 12, 11, 62
12, 111365, Control_c, 12, 11, 67
12, 111366, Control_c, 12, 11, 72
12, 111366, Note_on_c, 12, 68, 107
12, 111366, Note_on_c, 12, 65, 107
12, 111394, Control_c, 12, 11, 71
12, 111423, Control_c, 12, 11, 70
12, 111426, Note_on_c, 12, 65, 0
12, 111426, Note_on_c, 12, 68, 0
12, 111426, Note_on_c, 12, 65, 107
12, 111426, Note_on_c, 12, 62, 107
12, 111452, Control_c, 12, 11, 69
12, 111481, Control_c, 12, 11, 68
12, 111486, Note_on_c, 12, 62, 0
12, 111486, Note_on_c, 12, 65, 0
12, 111486, Note_on_c, 12, 68, 107
12, 111486, Note_on_c, 12, 65, 107
12, 111510, Control_c, 12, 11, 67
12, 111538, Control_c, 12, 11, 66
12, 111546, Note_on_c, 12, 65, 0
12, 111546, Note_on_c, 12, 68, 0
12, 111546, Note_on_c, 12, 62, 107
12, 111546, Note_on_c, 12, 65, 107
12, 111567, Control_c, 12, 11, 65
12, 111596, Control_c, 12, 11, 64
12, 111606, Note_on_c, 12, 65, 0
12, 111606, Note_on_c, 12, 62, 0
12, 111606, Note_on_c, 12, 65, 107
12, 111606, Note_on_c, 12, 68, 107
12, 111625, Control_c, 12, 11, 63
12, 111654, Control_c, 12, 11, 62
12, 111666, Note_on_c, 12, 68, 0
12, 111666, Note_on_c, 12, 65, 0
12, 111666, Note_on_c, 12, 62, 107
12, 111666, Note_on_c, 12, 65, 107
12, 111682, Control_c, 12, 11, 61
12, 111711, Control_c, 12, 11, 60
12, 111726, Note_on_c, 12, 65, 0
12, 111726, Note_on_c, 12, 62, 0
12, 111726, Note_on_c, 12, 65, 107
12, 111726, Note_on_c, 12, 68, 107
12, 111740, Control_c, 12, 11, 59
12, 111769, Control_c, 12, 11, 58
12, 111786, Note_on_c, 12, 68, 0
12, 111786, Note_on_c, 12, 65, 0
12, 111786, Note_on_c, 12, 62, 107
12, 111786, Note_on_c, 12, 65, 107
12, 111798, Control_c, 12, 11, 57
12, 111826, Control_c, 12, 11, 56
12, 111831, Note_on_c, 12, 65, 0
12, 111831, Note_on_c, 12, 62, 0
12, 111846, Note_on_c, 12, 65, 107
12, 111846, Note_on_c, 12, 68, 107
12, 111855, Control_c, 12, 11, 55
12, 111884, Control_c, 12, 11, 54
12, 111906, Note_on_c, 12, 68, 0
12, 111906, Note_on_c, 12, 65, 0
12, 111906, Note_on_c, 12, 62, 107
12, 111906, Note_on_c, 12, 65, 107
12, 111913, Control_c, 12, 11, 53
12, 111942, Control_c, 12, 11, 52
12, 111966, Note_on_c, 12, 65, 0
12, 111966, Note_on_c, 12, 62, 0
12, 111966, Note_on_c, 12, 68, 107
12, 111966, Note_on_c, 12, 65, 107
12, 111970, Control_c, 12, 11, 51
12, 111999, Control_c, 12, 11, 50
12, 112026, Note_on_c, 12, 65, 0
12, 112026, Note_on_c, 12, 68, 0
12, 112026, Note_on_c, 12, 62, 107
12, 112026, Note_on_c, 12, 65, 107
12, 112028, Control_c, 12, 11, 49
12, 112057, Control_c, 12, 11, 48
12, 112071, Note_on_c, 12, 62, 0
12, 112086, Note_on_c, 12, 65, 0
12, 112086, Control_c, 12, 11, 47
12, 112086, Note_on_c, 12, 62, 107
12, 112086, Note_on_c, 12, 67, 107
12, 112116, Note_on_c, 12, 62, 0
12, 112131, Note_on_c, 12, 67, 0
12, 112146, Note_on_c, 12, 55, 107
12, 112146, Note_on_c, 12, 62, 107
12, 112176, Note_on_c, 12, 62, 0
12, 112176, Note_on_c, 12, 55, 0
12, 112206, Note_on_c, 12, 62, 107
12, 112206, Note_on_c, 12, 55, 107
12, 112236, Note_on_c, 12, 55, 0
12, 112236, Note_on_c, 12, 62, 0
12, 112266, Note_on_c, 12, 55, 107
12, 112266, Note_on_c, 12, 62, 107
12, 112296, Note_on_c, 12, 62, 0
12, 112296, Note_on_c, 12, 55, 0
12, 112326, Note_on_c, 12, 67, 107
12, 112326, Note_on_c, 12, 63, 107
12, 112386, Note_on_c, 12, 63, 0
12, 112386, Note_on_c, 12, 67, 0
12, 112386, Note_on_c, 12, 60, 107
12, 112386, Note_on_c, 12, 63, 107
12, 112446, Note_on_c, 12, 63, 0
12, 112446, Note_on_c, 12, 60, 0
12, 112446, Note_on_c, 12, 63, 107
12, 112446, Note_on_c, 12, 67, 107
12, 112506, Note_on_c, 12, 67, 0
12, 112506, Note_on_c, 12, 63, 0
12, 112506, Note_on_c, 12, 63, 107
12, 112506, Note_on_c, 12, 60, 107
12, 112566, Note_on_c, 12, 60, 0
12, 112566, Note_on_c, 12, 63, 0
12, 112566, Note_on_c, 12, 63, 107
12, 112566, Note_on_c, 12, 67, 107
12, 112611, Note_on_c, 12, 67, 0
12, 112611, Note_on_c, 12, 63, 0
12, 112626, Note_on_c, 12, 67, 107
12, 112626, Note_on_c, 12, 63, 107
12, 112656, Note_on_c, 12, 63, 0
12, 112656, Note_on_c, 12, 67, 0
12, 112686, Note_on_c, 12, 63, 107
12, 112686, Note_on_c, 12, 67, 107
12, 112716, Note_on_c, 12, 67, 0
12, 112716, Note_on_c, 12, 63, 0
12, 112746, Note_on_c, 12, 67, 107
12, 112746, Note_on_c, 12, 63, 107
12, 112776, Note_on_c, 12, 63, 0
12, 112776, Note_on_c, 12, 67, 0
12, 112806, Note_on_c, 12, 65, 107
12, 112806, Note_on_c, 12, 62, 107
12, 112866, Note_on_c, 12, 62, 0
12, 112866, Note_on_c, 12, 65, 0
12, 112866, Note_on_c, 12, 62, 107
12, 112866, Note_on_c, 12, 56, 107
12, 112926, Note_on_c, 12, 56, 0
12, 112926, Note_on_c, 12, 62, 0
12, 112926, Note_on_c, 12, 62, 107
12, 112926, Note_on_c, 12, 65, 107
12, 112986, Note_on_c, 12, 65, 0
12, 112986, Note_on_c, 12, 62, 0
12, 112986, Note_on_c, 12, 56, 107
12, 112986, Note_on_c, 12, 62, 107
12, 113046, Note_on_c, 12, 62, 0
12, 113046, Note_on_c, 12, 56, 0
12, 113046, Note_on_c, 12, 62, 107
12, 113046, Note_on_c, 12, 65, 107
12, 113091, Note_on_c, 12, 65, 0
12, 113091, Note_on_c, 12, 62, 0
12, 113106, Note_on_c, 12, 62, 107
12, 113106, Note_on_c, 12, 65, 107
12, 113136, Note_on_c, 12, 65, 0
12, 113136, Note_on_c, 12, 62, 0
12, 113166, Note_on_c, 12, 62, 107
12, 113166, Note_on_c, 12, 65, 107
12, 113196, Note_on_c, 12, 65, 0
12, 113196, Note_on_c, 12, 62, 0
12, 113226, Note_on_c, 12, 65, 107
12, 113226, Note_on_c, 12, 62, 107
12, 113256, Note_on_c, 12, 62, 0
12, 113256, Note_on_c, 12, 65, 0
12, 113286, Note_on_c, 12, 60, 107
12, 113286, Note_on_c, 12, 63, 107
12, 113346, Note_on_c, 12, 63, 0
12, 113346, Note_on_c, 12, 60, 0
12, 113346, Note_on_c, 12, 60, 107
12, 113346, Note_on_c, 12, 55, 107
12, 113406, Note_on_c, 12, 55, 0
12, 113406, Note_on_c, 12, 60, 0
12, 113406, Note_on_c, 12, 63, 107
12, 113406, Note_on_c, 12, 60, 107
12, 113466, Note_on_c, 12, 60, 0
12, 113466, Note_on_c, 12, 63, 0
12, 113466, Note_on_c, 12, 55, 107
12, 113466, Note_on_c, 12, 60, 107
12, 113526, Note_on_c, 12, 60, 0
12, 113526, Note_on_c, 12, 55, 0
12, 113526, Note_on_c, 12, 63, 107
12, 113526, Note_on_c, 12, 60, 107
12, 113571, Note_on_c, 12, 60, 0
12, 113571, Note_on_c, 12, 63, 0
12, 113586, Note_on_c, 12, 63, 107
12, 113586, Note_on_c, 12, 60, 107
12, 113616, Note_on_c, 12, 60, 0
12, 113616, Note_on_c, 12, 63, 0
12, 113646, Note_on_c, 12, 60, 107
12, 113646, Note_on_c, 12, 63, 107
12, 113676, Note_on_c, 12, 63, 0
12, 113676, Note_on_c, 12, 60, 0
12, 113706, Note_on_c, 12, 60, 107
12, 113706, Note_on_c, 12, 63, 107
12, 113736, Note_on_c, 12, 63, 0
12, 113736, Note_on_c, 12, 60, 0
12, 113766, Note_on_c, 12, 62, 107
12, 113766, Note_on_c, 12, 59, 107
12, 113826, Note_on_c, 12, 59, 0
12, 113826, Note_on_c, 12, 62, 0
12, 113826, Note_on_c, 12, 59, 107
12, 113826, Note_on_c, 12, 55, 107
12, 113886, Note_on_c, 12, 55, 0
12, 113886, Note_on_c, 12, 59, 0
12, 113886, Note_on_c, 12, 62, 107
12, 113886, Note_on_c, 12, 59, 107
12, 113946, Note_on_c, 12, 59, 0
12, 113946, Note_on_c, 12, 62, 0
12, 113946, Note_on_c, 12, 59, 107
12, 113946, Note_on_c, 12, 55, 107
12, 113991, Note_on_c, 12, 55, 0
12, 113991, Note_on_c, 12, 59, 0
12, 114006, Note_on_c, 12, 62, 107
12, 114006, Note_on_c, 12, 65, 107
12, 114066, Note_on_c, 12, 65, 0
12, 114066, Note_on_c, 12, 62, 0
12, 114066, Note_on_c, 12, 59, 107
12, 114066, Note_on_c, 12, 62, 107
12, 114126, Note_on_c, 12, 62, 0
12, 114126, Note_on_c, 12, 59, 0
12, 114126, Note_on_c, 12, 62, 107
12, 114126, Note_on_c, 12, 65, 107
12, 114186, Note_on_c, 12, 65, 0
12, 114186, Note_on_c, 12, 62, 0
12, 114186, Note_on_c, 12, 62, 107
12, 114186, Note_on_c, 12, 59, 107
12, 114231, Note_on_c, 12, 59, 0
12, 114231, Note_on_c, 12, 62, 0
12, 114241, Control_c, 12, 11, 47
12, 114242, Control_c, 12, 11, 52
12, 114243, Control_c, 12, 11, 57
12, 114244, Control_c, 12, 11, 62
12, 114245, Control_c, 12, 11, 67
12, 114246, Control_c, 12, 11, 72
12, 114246, Note_on_c, 12, 65, 107
12, 114246, Note_on_c, 12, 68, 107
12, 114265, Control_c, 12, 11, 71
12, 114284, Control_c, 12, 11, 70
12, 114303, Control_c, 12, 11, 69
12, 114306, Note_on_c, 12, 68, 0
12, 114306, Note_on_c, 12, 65, 0
12, 114306, Note_on_c, 12, 62, 107
12, 114306, Note_on_c, 12, 65, 107
12, 114322, Control_c, 12, 11, 68
12, 114342, Control_c, 12, 11, 67
12, 114361, Control_c, 12, 11, 66
12, 114366, Note_on_c, 12, 65, 0
12, 114366, Note_on_c, 12, 62, 0
12, 114366, Note_on_c, 12, 65, 107
12, 114366, Note_on_c, 12, 68, 107
12, 114380, Control_c, 12, 11, 65
12, 114399, Control_c, 12, 11, 64
12, 114418, Control_c, 12, 11, 63
12, 114426, Note_on_c, 12, 68, 0
12, 114426, Note_on_c, 12, 65, 0
12, 114426, Note_on_c, 12, 62, 107
12, 114426, Note_on_c, 12, 65, 107
12, 114438, Control_c, 12, 11, 62
12, 114457, Control_c, 12, 11, 61
12, 114476, Control_c, 12, 11, 60
12, 114486, Note_on_c, 12, 65, 0
12, 114486, Note_on_c, 12, 62, 0
12, 114486, Note_on_c, 12, 68, 107
12, 114486, Note_on_c, 12, 65, 107
12, 114495, Control_c, 12, 11, 59
12, 114514, Control_c, 12, 11, 58
12, 114534, Control_c, 12, 11, 57
12, 114546, Note_on_c, 12, 65, 0
12, 114546, Note_on_c, 12, 68, 0
12, 114546, Note_on_c, 12, 65, 107
12, 114546, Note_on_c, 12, 62, 107
12, 114553, Control_c, 12, 11, 56
12, 114572, Control_c, 12, 11, 55
12, 114591, Control_c, 12, 11, 54
12, 114606, Note_on_c, 12, 62, 0
12, 114606, Note_on_c, 12, 65, 0
12, 114606, Note_on_c, 12, 65, 107
12, 114606, Note_on_c, 12, 68, 107
12, 114610, Control_c, 12, 11, 53
12, 114630, Control_c, 12, 11, 52
12, 114649, Control_c, 12, 11, 51
12, 114666, Note_on_c, 12, 68, 0
12, 114666, Note_on_c, 12, 65, 0
12, 114666, Note_on_c, 12, 65, 107
12, 114666, Note_on_c, 12, 62, 107
12, 114668, Control_c, 12, 11, 50
12, 114687, Control_c, 12, 11, 49
12, 114706, Control_c, 12, 11, 48
12, 114711, Note_on_c, 12, 62, 0
12, 114711, Note_on_c, 12, 65, 0
12, 114726, Control_c, 12, 11, 47
12, 114726, Note_on_c, 12, 68, 107
12, 114726, Note_on_c, 12, 65, 107
12, 114786, Note_on_c, 12, 65, 0
12, 114786, Note_on_c, 12, 68, 0
12, 114786, Note_on_c, 12, 65, 107
12, 114786, Note_on_c, 12, 62, 107
12, 114846, Note_on_c, 12, 62, 0
12, 114846, Note_on_c, 12, 65, 0
12, 114846, Note_on_c, 12, 68, 107
12, 114846, Note_on_c, 12, 65, 107
12, 114906, Note_on_c, 12, 65, 0
12, 114906, Note_on_c, 12, 68, 0
12, 114906, Note_on_c, 12, 65, 107
12, 114906, Note_on_c, 12, 62, 107
12, 114951, Note_on_c, 12, 62, 0
12, 114966, Note_on_c, 12, 65, 0
12, 114966, Note_on_c, 12, 62, 107
12, 114966, Note_on_c, 12, 67, 107
12, 114996, Note_on_c, 12, 62, 0
12, 115011, Note_on_c, 12, 67, 0
12, 115026, Note_on_c, 12, 62, 107
12, 115026, Note_on_c, 12, 59, 107
12, 115056, Note_on_c, 12, 59, 0
12, 115056, Note_on_c, 12, 62, 0
12, 115086, Note_on_c, 12, 62, 107
12, 115086, Note_on_c, 12, 59, 107
12, 115116, Note_on_c, 12, 59, 0
12, 115116, Note_on_c, 12, 62, 0
12, 115146, Note_on_c, 12, 59, 107
12, 115146, Note_on_c, 12, 62, 107
12, 115176, Note_on_c, 12, 62, 0
12, 115176, Note_on_c, 12, 59, 0
12, 115206, Note_on_c, 12, 67, 107
12, 115206, Note_on_c, 12, 63, 107
12, 115266, Note_on_c, 12, 63, 0
12, 115266, Note_on_c, 12, 67, 0
12, 115266, Note_on_c, 12, 60, 107
12, 115266, Note_on_c, 12, 63, 107
12, 115326, Note_on_c, 12, 63, 0
12, 115326, Note_on_c, 12, 60, 0
12, 115326, Note_on_c, 12, 63, 107
12, 115326, Note_on_c, 12, 67, 107
12, 115386, Note_on_c, 12, 67, 0
12, 115386, Note_on_c, 12, 63, 0
12, 115386, Note_on_c, 12, 63, 107
12, 115386, Note_on_c, 12, 60, 107
12, 115446, Note_on_c, 12, 60, 0
12, 115446, Note_on_c, 12, 63, 0
12, 115446, Note_on_c, 12, 67, 107
12, 115446, Note_on_c, 12, 63, 107
12, 115491, Note_on_c, 12, 63, 0
12, 115491, Note_on_c, 12, 67, 0
12, 115506, Note_on_c, 12, 67, 107
12, 115506, Note_on_c, 12, 63, 107
12, 115536, Note_on_c, 12, 63, 0
12, 115536, Note_on_c, 12, 67, 0
12, 115566, Note_on_c, 12, 67, 107
12, 115566, Note_on_c, 12, 63, 107
12, 115596, Note_on_c, 12, 63, 0
12, 115596, Note_on_c, 12, 67, 0
12, 115626, Note_on_c, 12, 63, 107
12, 115626, Note_on_c, 12, 67, 107
12, 115656, Note_on_c, 12, 67, 0
12, 115656, Note_on_c, 12, 63, 0
12, 115686, Control_c, 12, 11, 47
12, 115686, Note_on_c, 12, 67, 107
12, 115686, Note_on_c, 12, 63, 107
12, 115722, Control_c, 12, 11, 48
12, 115746, Note_on_c, 12, 63, 0
12, 115746, Note_on_c, 12, 67, 0
12, 115746, Note_on_c, 12, 60, 107
12, 115746, Note_on_c, 12, 63, 107
12, 115758, Control_c, 12, 11, 49
12, 115794, Control_c, 12, 11, 50
12, 115806, Note_on_c, 12, 63, 0
12, 115806, Note_on_c, 12, 60, 0
12, 115806, Note_on_c, 12, 67, 107
12, 115806, Note_on_c, 12, 63, 107
12, 115830, Control_c, 12, 11, 51
12, 115866, Note_on_c, 12, 63, 0
12, 115866, Note_on_c, 12, 67, 0
12, 115866, Control_c, 12, 11, 52
12, 115866, Note_on_c, 12, 63, 107
12, 115866, Note_on_c, 12, 60, 107
12, 115902, Control_c, 12, 11, 53
12, 115926, Note_on_c, 12, 60, 0
12, 115926, Note_on_c, 12, 63, 0
12, 115926, Note_on_c, 12, 63, 107
12, 115926, Note_on_c, 12, 69, 107
12, 115938, Control_c, 12, 11, 54
12, 115971, Note_on_c, 12, 69, 0
12, 115971, Note_on_c, 12, 63, 0
12, 115974, Control_c, 12, 11, 55
12, 115986, Note_on_c, 12, 69, 107
12, 115986, Note_on_c, 12, 63, 107
12, 116010, Control_c, 12, 11, 56
12, 116016, Note_on_c, 12, 63, 0
12, 116016, Note_on_c, 12, 69, 0
12, 116046, Control_c, 12, 11, 57
12, 116046, Note_on_c, 12, 69, 107
12, 116046, Note_on_c, 12, 63, 107
12, 116076, Note_on_c, 12, 63, 0
12, 116076, Note_on_c, 12, 69, 0
12, 116082, Control_c, 12, 11, 58
12, 116106, Note_on_c, 12, 63, 107
12, 116106, Note_on_c, 12, 69, 107
12, 116118, Control_c, 12, 11, 59
12, 116136, Note_on_c, 12, 69, 0
12, 116136, Note_on_c, 12, 63, 0
12, 116154, Control_c, 12, 11, 60
12, 116166, Note_on_c, 12, 67, 107
12, 116166, Note_on_c, 12, 70, 107
12, 116190, Control_c, 12, 11, 61
12, 116196, Note_on_c, 12, 70, 0
12, 116196, Note_on_c, 12, 67, 0
12, 116226, Control_c, 12, 11, 62
12, 116226, Note_on_c, 12, 55, 107
12, 116226, Note_on_c, 12, 51, 107
12, 116262, Control_c, 12, 11, 63
12, 116286, Note_on_c, 12, 51, 0
12, 116286, Note_on_c, 12, 55, 0
12, 116286, Note_on_c, 12, 55, 107
12, 116286, Note_on_c, 12, 58, 107
12, 116298, Control_c, 12, 11, 64
12, 116334, Control_c, 12, 11, 65
12, 116346, Note_on_c, 12, 58, 0
12, 116346, Note_on_c, 12, 55, 0
12, 116346, Note_on_c, 12, 51, 107
12, 116346, Note_on_c, 12, 55, 107
12, 116370, Control_c, 12, 11, 66
12, 116406, Note_on_c, 12, 55, 0
12, 116406, Note_on_c, 12, 51, 0
12, 116406, Control_c, 12, 11, 67
12, 116406, Note_on_c, 12, 55, 107
12, 116406, Note_on_c, 12, 58, 107
12, 116442, Control_c, 12, 11, 68
12, 116466, Note_on_c, 12, 58, 0
12, 116466, Note_on_c, 12, 55, 0
12, 116466, Note_on_c, 12, 51, 107
12, 116466, Note_on_c, 12, 55, 107
12, 116478, Control_c, 12, 11, 69
12, 116514, Control_c, 12, 11, 70
12, 116526, Note_on_c, 12, 55, 0
12, 116526, Note_on_c, 12, 51, 0
12, 116526, Note_on_c, 12, 55, 107
12, 116526, Note_on_c, 12, 58, 107
12, 116550, Control_c, 12, 11, 71
12, 116586, Note_on_c, 12, 58, 0
12, 116586, Note_on_c, 12, 55, 0
12, 116586, Control_c, 12, 11, 72
12, 116586, Note_on_c, 12, 51, 107
12, 116586, Note_on_c, 12, 55, 107
12, 116622, Control_c, 12, 11, 73
12, 116631, Note_on_c, 12, 55, 0
12, 116631, Note_on_c, 12, 51, 0
12, 116646, Note_on_c, 12, 58, 107
12, 116646, Note_on_c, 12, 55, 107
12, 116658, Control_c, 12, 11, 74
12, 116694, Control_c, 12, 11, 75
12, 116706, Note_on_c, 12, 55, 0
12, 116706, Note_on_c, 12, 58, 0
12, 116706, Note_on_c, 12, 55, 107
12, 116706, Note_on_c, 12, 51, 107
12, 116730, Control_c, 12, 11, 76
12, 116766, Note_on_c, 12, 51, 0
12, 116766, Note_on_c, 12, 55, 0
12, 116766, Control_c, 12, 11, 77
12, 116766, Note_on_c, 12, 58, 107
12, 116766, Note_on_c, 12, 55, 107
12, 116802, Control_c, 12, 11, 78
12, 116826, Note_on_c, 12, 55, 0
12, 116826, Note_on_c, 12, 58, 0
12, 116826, Note_on_c, 12, 56, 107
12, 116826, Note_on_c, 12, 53, 107
12, 116838, Control_c, 12, 11, 79
12, 116871, Note_on_c, 12, 53, 0
12, 116871, Note_on_c, 12, 56, 0
12, 116874, Control_c, 12, 11, 80
12, 116886, Note_on_c, 12, 53, 107
12, 116886, Note_on_c, 12, 50, 107
12, 116910, Control_c, 12, 11, 81
12, 116931, Note_on_c, 12, 50, 0
12, 116931, Note_on_c, 12, 53, 0
12, 116946, Control_c, 12, 11, 82
12, 116946, Note_on_c, 12, 50, 107
12, 116946, Note_on_c, 12, 53, 107
12, 116982, Control_c, 12, 11, 83
12, 116991, Note_on_c, 12, 53, 0
12, 116991, Note_on_c, 12, 50, 0
12, 117006, Note_on_c, 12, 56, 107
12, 117006, Note_on_c, 12, 50, 107
12, 117018, Control_c, 12, 11, 84
12, 117051, Note_on_c, 12, 50, 0
12, 117051, Note_on_c, 12, 56, 0
12, 117054, Control_c, 12, 11, 85
12, 117066, Note_on_c, 12, 56, 107
12, 117066, Note_on_c, 12, 50, 107
12, 117090, Control_c, 12, 11, 86
12, 117111, Note_on_c, 12, 50, 0
12, 117111, Note_on_c, 12, 56, 0
12, 117126, Control_c, 12, 11, 87
12, 117126, Note_on_c, 12, 51, 107
12, 117126, Note_on_c, 12, 55, 107
12, 117246, Note_on_c, 12, 55, 0
12, 117246, Note_on_c, 12, 51, 0
12, 117726, Control_c, 12, 11, 47
12, 117726, Note_on_c, 12, 51, 100
12, 117786, Note_on_c, 12, 51, 0
12, 117846, Note_on_c, 12, 50, 100
12, 117906, Note_on_c, 12, 50, 0
12, 117966, Note_on_c, 12, 51, 100
12, 118026, Note_on_c, 12, 51, 0
12, 118086, Note_on_c, 12, 53, 100
12, 118206, Note_on_c, 12, 53, 0
12, 118206, Note_on_c, 12, 50, 100
12, 118316, Note_on_c, 12, 50, 0
12, 118325, Program_c, 12, 50
12, 118326, Note_on_c, 12, 58, 100
12, 118386, Note_on_c, 12, 58, 0
12, 118446, Note_on_c, 12, 56, 100
12, 118506, Note_on_c, 12, 56, 0
12, 118566, Note_on_c, 12, 55, 100
12, 118626, Note_on_c, 12, 55, 0
12, 118686, Note_on_c, 12, 58, 100
12, 118746, Note_on_c, 12, 58, 0
12, 118806, Note_on_c, 12, 48, 100
12, 118866, Note_on_c, 12, 48, 0
12, 118926, Control_c, 12, 11, 47
12, 118926, Note_on_c, 12, 52, 100
12, 118935, Control_c, 12, 11, 50
12, 118944, Control_c, 12, 11, 53
12, 118953, Control_c, 12, 11, 56
12, 118962, Control_c, 12, 11, 59
12, 118971, Control_c, 12, 11, 62
12, 118980, Control_c, 12, 11, 65
12, 118986, Note_on_c, 12, 52, 0
12, 118989, Control_c, 12, 11, 68
12, 118998, Control_c, 12, 11, 71
12, 119007, Control_c, 12, 11, 74
12, 119016, Control_c, 12, 11, 77
12, 119025, Control_c, 12, 11, 80
12, 119034, Control_c, 12, 11, 83
12, 119043, Control_c, 12, 11, 86
12, 119046, Note_on_c, 12, 53, 100
12, 119106, Note_on_c, 12, 53, 0
12, 119646, Control_c, 12, 11, 47
12, 119646, Note_on_c, 12, 53, 100
12, 119706, Note_on_c, 12, 53, 0
12, 119766, Note_on_c, 12, 52, 100
12, 119826, Note_on_c, 12, 52, 0
12, 119886, Note_on_c, 12, 53, 100
12, 119946, Note_on_c, 12, 53, 0
12, 120006, Note_on_c, 12, 55, 100
12, 120126, Note_on_c, 12, 55, 0
12, 120126, Note_on_c, 12, 52, 100
12, 120236, Note_on_c, 12, 52, 0
12, 120246, Note_on_c, 12, 48, 100
12, 120306, Note_on_c, 12, 48, 0
12, 120366, Note_on_c, 12, 58, 100
12, 120426, Note_on_c, 12, 58, 0
12, 120486, Note_on_c, 12, 56, 100
12, 120546, Note_on_c, 12, 56, 0
12, 120606, Note_on_c, 12, 60, 100
12, 120666, Note_on_c, 12, 60, 0
12, 120726, Note_on_c, 12, 53, 100
12, 120786, Note_on_c, 12, 53, 0
12, 120846, Note_on_c, 12, 55, 100
12, 120906, Note_on_c, 12, 55, 0
12, 120966, Control_c, 12, 11, 72
12, 120966, Note_on_c, 12, 56, 100
12, 120970, Control_c, 12, 11, 75
12, 120975, Control_c, 12, 11, 78
12, 120979, Control_c, 12, 11, 81
12, 121002, Control_c, 12, 11, 79
12, 121015, Control_c, 12, 11, 76
12, 121029, Control_c, 12, 11, 73
12, 121042, Control_c, 12, 11, 70
12, 121056, Control_c, 12, 11, 67
12, 121069, Control_c, 12, 11, 64
12, 121083, Control_c, 12, 11, 61
12, 121086, Note_on_c, 12, 56, 0
12, 121086, Note_on_c, 12, 53, 100
12, 121096, Control_c, 12, 11, 58
12, 121110, Control_c, 12, 11, 55
12, 121123, Control_c, 12, 11, 52
12, 121137, Control_c, 12, 11, 49
12, 121196, Note_on_c, 12, 53, 0
12, 121206, Note_on_c, 12, 50, 100
12, 121266, Note_on_c, 12, 50, 0
12, 121326, Note_on_c, 12, 60, 100
12, 121386, Note_on_c, 12, 60, 0
12, 121446, Note_on_c, 12, 59, 100
12, 121506, Note_on_c, 12, 59, 0
12, 121566, Note_on_c, 12, 50, 100
12, 121626, Note_on_c, 12, 50, 0
12, 121686, Note_on_c, 12, 53, 100
12, 121746, Note_on_c, 12, 53, 0
12, 121806, Note_on_c, 12, 55, 100
12, 121866, Note_on_c, 12, 55, 0
12, 121926, Control_c, 12, 11, 72
12, 121926, Note_on_c, 12, 56, 100
12, 121930, Control_c, 12, 11, 75
12, 121935, Control_c, 12, 11, 78
12, 121939, Control_c, 12, 11, 81
12, 121962, Control_c, 12, 11, 79
12, 121975, Control_c, 12, 11, 76
12, 121989, Control_c, 12, 11, 73
12, 122002, Control_c, 12, 11, 70
12, 122016, Control_c, 12, 11, 67
12, 122029, Control_c, 12, 11, 64
12, 122043, Control_c, 12, 11, 61
12, 122046, Note_on_c, 12, 56, 0
12, 122046, Note_on_c, 12, 53, 100
12, 122056, Control_c, 12, 11, 58
12, 122070, Control_c, 12, 11, 55
12, 122083, Control_c, 12, 11, 52
12, 122097, Control_c, 12, 11, 49
12, 122156, Note_on_c, 12, 53, 0
12, 122166, Note_on_c, 12, 50, 100
12, 122226, Note_on_c, 12, 50, 0
12, 122286, Note_on_c, 12, 60, 100
12, 122346, Note_on_c, 12, 60, 0
12, 122406, Note_on_c, 12, 59, 100
12, 122466, Note_on_c, 12, 59, 0
12, 125286, Control_c, 12, 11, 47
12, 125286, Note_on_c, 12, 70, 85
12, 125406, Note_on_c, 12, 70, 0
12, 125406, Note_on_c, 12, 68, 92
12, 125526, Note_on_c, 12, 68, 0
12, 125526, Note_on_c, 12, 67, 100
12, 125646, Note_on_c, 12, 67, 0
12, 125646, Note_on_c, 12, 65, 100
12, 125766, Note_on_c, 12, 65, 0
12, 126246, Control_c, 12, 11, 47
12, 126246, Note_on_c, 12, 56, 85
12, 126366, Note_on_c, 12, 56, 0
12, 126366, Note_on_c, 12, 55, 92
12, 126486, Note_on_c, 12, 55, 0
12, 126486, Note_on_c, 12, 53, 100
12, 126606, Note_on_c, 12, 53, 0
12, 126606, Note_on_c, 12, 51, 100
12, 126711, Note_on_c, 12, 51, 0
12, 126725, Program_c, 12, 48
12, 126726, Note_on_c, 12, 50, 100
12, 126846, Note_on_c, 12, 50, 0
12, 126846, Note_on_c, 12, 56, 100
12, 126966, Note_on_c, 12, 56, 0
12, 126966, Note_on_c, 12, 55, 100
12, 127086, Note_on_c, 12, 55, 0
12, 127086, Note_on_c, 12, 54, 100
12, 127191, Note_on_c, 12, 54, 0
12, 127206, Note_on_c, 12, 55, 100
12, 127806, Note_on_c, 12, 55, 0
12, 127806, Note_on_c, 12, 56, 100
12, 127926, Note_on_c, 12, 56, 0
12, 127926, Note_on_c, 12, 55, 100
12, 128046, Note_on_c, 12, 55, 0
12, 128046, Note_on_c, 12, 54, 100
12, 128151, Note_on_c, 12, 54, 0
12, 128166, Note_on_c, 12, 55, 100
12, 128766, Note_on_c, 12, 55, 0
12, 128766, Note_on_c, 12, 56, 100
12, 128886, Note_on_c, 12, 56, 0
12, 128886, Note_on_c, 12, 55, 100
12, 129006, Note_on_c, 12, 55, 0
12, 129006, Note_on_c, 12, 54, 100
12, 129111, Note_on_c, 12, 54, 0
12, 129126, Note_on_c, 12, 55, 100
12, 129246, Note_on_c, 12, 55, 0
12, 129246, Note_on_c, 12, 56, 100
12, 129366, Note_on_c, 12, 56, 0
12, 129366, Note_on_c, 12, 57, 100
12, 129486, Note_on_c, 12, 57, 0
12, 129486, Note_on_c, 12, 56, 100
12, 129606, Note_on_c, 12, 56, 0
12, 129606, Note_on_c, 12, 57, 100
12, 129726, Note_on_c, 12, 57, 0
12, 132486, Note_on_c, 12, 52, 100
12, 132486, Note_on_c, 12, 48, 100
12, 132531, Note_on_c, 12, 48, 0
12, 132531, Note_on_c, 12, 52, 0
12, 132546, Note_on_c, 12, 52, 100
12, 132546, Note_on_c, 12, 48, 100
12, 132591, Note_on_c, 12, 48, 0
12, 132591, Note_on_c, 12, 52, 0
12, 132606, Note_on_c, 12, 48, 100
12, 132606, Note_on_c, 12, 52, 100
12, 132651, Note_on_c, 12, 52, 0
12, 132651, Note_on_c, 12, 48, 0
12, 132666, Note_on_c, 12, 52, 100
12, 132666, Note_on_c, 12, 48, 100
12, 132711, Note_on_c, 12, 48, 0
12, 132711, Note_on_c, 12, 52, 0
12, 132726, Note_on_c, 12, 52, 100
12, 132726, Note_on_c, 12, 48, 100
12, 132771, Note_on_c, 12, 48, 0
12, 132771, Note_on_c, 12, 52, 0
12, 132786, Note_on_c, 12, 48, 100
12, 132786, Note_on_c, 12, 52, 100
12, 132831, Note_on_c, 12, 52, 0
12, 132831, Note_on_c, 12, 48, 0
12, 132846, Note_on_c, 12, 52, 100
12, 132846, Note_on_c, 12, 48, 100
12, 132891, Note_on_c, 12, 48, 0
12, 132891, Note_on_c, 12, 52, 0
12, 132906, Note_on_c, 12, 48, 100
12, 132906, Note_on_c, 12, 52, 100
12, 132951, Note_on_c, 12, 52, 0
12, 132951, Note_on_c, 12, 48, 0
12, 132966, Control_c, 12, 11, 47
12, 132966, Note_on_c, 12, 48, 100
12, 132966, Note_on_c, 12, 52, 100
12, 133011, Note_on_c, 12, 52, 0
12, 133011, Note_on_c, 12, 48, 0
12, 133026, Note_on_c, 12, 48, 100
12, 133026, Note_on_c, 12, 52, 100
12, 133071, Note_on_c, 12, 52, 0
12, 133071, Note_on_c, 12, 48, 0
12, 133086, Note_on_c, 12, 52, 100
12, 133086, Note_on_c, 12, 48, 100
12, 133131, Note_on_c, 12, 48, 0
12, 133131, Note_on_c, 12, 52, 0
12, 133146, Control_c, 12, 11, 48
12, 133146, Note_on_c, 12, 52, 100
12, 133146, Note_on_c, 12, 48, 100
12, 133191, Note_on_c, 12, 48, 0
12, 133191, Note_on_c, 12, 52, 0
12, 133206, Note_on_c, 12, 48, 100
12, 133206, Note_on_c, 12, 52, 100
12, 133251, Note_on_c, 12, 52, 0
12, 133251, Note_on_c, 12, 48, 0
12, 133266, Note_on_c, 12, 48, 100
12, 133266, Note_on_c, 12, 52, 100
12, 133311, Note_on_c, 12, 52, 0
12, 133311, Note_on_c, 12, 48, 0
12, 133326, Control_c, 12, 11, 49
12, 133326, Note_on_c, 12, 48, 100
12, 133326, Note_on_c, 12, 52, 100
12, 133371, Note_on_c, 12, 52, 0
12, 133371, Note_on_c, 12, 48, 0
12, 133386, Note_on_c, 12, 48, 100
12, 133386, Note_on_c, 12, 52, 100
12, 133431, Note_on_c, 12, 52, 0
12, 133431, Note_on_c, 12, 48, 0
12, 133446, Note_on_c, 12, 52, 100
12, 133446, Note_on_c, 12, 48, 100
12, 133491, Note_on_c, 12, 48, 0
12, 133491, Note_on_c, 12, 52, 0
12, 133506, Control_c, 12, 11, 50
12, 133506, Note_on_c, 12, 48, 100
12, 133506, Note_on_c, 12, 52, 100
12, 133551, Note_on_c, 12, 52, 0
12, 133551, Note_on_c, 12, 48, 0
12, 133566, Note_on_c, 12, 48, 100
12, 133566, Note_on_c, 12, 52, 100
12, 133611, Note_on_c, 12, 52, 0
12, 133611, Note_on_c, 12, 48, 0
12, 133626, Note_on_c, 12, 52, 100
12, 133626, Note_on_c, 12, 48, 100
12, 133671, Note_on_c, 12, 48, 0
12, 133671, Note_on_c, 12, 52, 0
12, 133686, Control_c, 12, 11, 51
12, 133686, Note_on_c, 12, 52, 100
12, 133686, Note_on_c, 12, 48, 100
12, 133731, Note_on_c, 12, 48, 0
12, 133731, Note_on_c, 12, 52, 0
12, 133746, Note_on_c, 12, 48, 100
12, 133746, Note_on_c, 12, 52, 100
12, 133791, Note_on_c, 12, 52, 0
12, 133791, Note_on_c, 12, 48, 0
12, 133806, Note_on_c, 12, 52, 100
12, 133806, Note_on_c, 12, 48, 100
12, 133851, Note_on_c, 12, 48, 0
12, 133851, Note_on_c, 12, 52, 0
12, 133866, Control_c, 12, 11, 52
12, 133866, Note_on_c, 12, 52, 100
12, 133866, Note_on_c, 12, 48, 100
12, 133911, Note_on_c, 12, 48, 0
12, 133911, Note_on_c, 12, 52, 0
12, 133926, Note_on_c, 12, 52, 100
12, 133926, Note_on_c, 12, 48, 100
12, 133971, Note_on_c, 12, 48, 0
12, 133971, Note_on_c, 12, 52, 0
12, 133986, Note_on_c, 12, 52, 100
12, 133986, Note_on_c, 12, 48, 100
12, 134031, Note_on_c, 12, 48, 0
12, 134031, Note_on_c, 12, 52, 0
12, 134046, Control_c, 12, 11, 53
12, 134046, Note_on_c, 12, 52, 100
12, 134046, Note_on_c, 12, 48, 100
12, 134091, Note_on_c, 12, 48, 0
12, 134091, Note_on_c, 12, 52, 0
12, 134106, Note_on_c, 12, 48, 100
12, 134106, Note_on_c, 12, 52, 100
12, 134151, Note_on_c, 12, 52, 0
12, 134151, Note_on_c, 12, 48, 0
12, 134166, Note_on_c, 12, 48, 100
12, 134166, Note_on_c, 12, 52, 100
12, 134211, Note_on_c, 12, 52, 0
12, 134211, Note_on_c, 12, 48, 0
12, 134226, Control_c, 12, 11, 54
12, 134226, Note_on_c, 12, 52, 100
12, 134226, Note_on_c, 12, 48, 100
12, 134271, Note_on_c, 12, 48, 0
12, 134271, Note_on_c, 12, 52, 0
12, 134286, Note_on_c, 12, 52, 100
12, 134286, Note_on_c, 12, 48, 100
12, 134331, Note_on_c, 12, 48, 0
12, 134331, Note_on_c, 12, 52, 0
12, 134346, Note_on_c, 12, 52, 100
12, 134346, Note_on_c, 12, 48, 100
12, 134391, Note_on_c, 12, 48, 0
12, 134391, Note_on_c, 12, 52, 0
12, 134406, Control_c, 12, 11, 55
12, 134406, Note_on_c, 12, 53, 100
12, 134406, Note_on_c, 12, 50, 100
12, 134451, Note_on_c, 12, 50, 0
12, 134451, Note_on_c, 12, 53, 0
12, 134466, Note_on_c, 12, 53, 100
12, 134466, Note_on_c, 12, 50, 100
12, 134511, Note_on_c, 12, 50, 0
12, 134511, Note_on_c, 12, 53, 0
12, 134526, Note_on_c, 12, 53, 100
12, 134526, Note_on_c, 12, 50, 100
12, 134571, Note_on_c, 12, 50, 0
12, 134571, Note_on_c, 12, 53, 0
12, 134586, Control_c, 12, 11, 56
12, 134586, Note_on_c, 12, 53, 100
12, 134586, Note_on_c, 12, 50, 100
12, 134631, Note_on_c, 12, 50, 0
12, 134631, Note_on_c, 12, 53, 0
12, 134646, Note_on_c, 12, 53, 100
12, 134646, Note_on_c, 12, 50, 100
12, 134691, Note_on_c, 12, 50, 0
12, 134691, Note_on_c, 12, 53, 0
12, 134706, Note_on_c, 12, 53, 100
12, 134706, Note_on_c, 12, 50, 100
12, 134751, Note_on_c, 12, 50, 0
12, 134751, Note_on_c, 12, 53, 0
12, 134766, Control_c, 12, 11, 57
12, 134766, Note_on_c, 12, 50, 100
12, 134766, Note_on_c, 12, 53, 100
12, 134811, Note_on_c, 12, 53, 0
12, 134811, Note_on_c, 12, 50, 0
12, 134826, Note_on_c, 12, 50, 100
12, 134826, Note_on_c, 12, 53, 100
12, 134871, Note_on_c, 12, 53, 0
12, 134871, Note_on_c, 12, 50, 0
12, 134886, Note_on_c, 12, 53, 100
12, 134886, Note_on_c, 12, 50, 100
12, 134931, Note_on_c, 12, 50, 0
12, 134931, Note_on_c, 12, 53, 0
12, 134946, Control_c, 12, 11, 58
12, 134946, Note_on_c, 12, 53, 100
12, 134946, Note_on_c, 12, 50, 100
12, 134991, Note_on_c, 12, 50, 0
12, 134991, Note_on_c, 12, 53, 0
12, 135006, Note_on_c, 12, 53, 100
12, 135006, Note_on_c, 12, 50, 100
12, 135051, Note_on_c, 12, 50, 0
12, 135051, Note_on_c, 12, 53, 0
12, 135066, Note_on_c, 12, 50, 100
12, 135066, Note_on_c, 12, 53, 100
12, 135111, Note_on_c, 12, 53, 0
12, 135111, Note_on_c, 12, 50, 0
12, 135126, Control_c, 12, 11, 59
12, 135126, Note_on_c, 12, 50, 100
12, 135126, Note_on_c, 12, 53, 100
12, 135171, Note_on_c, 12, 53, 0
12, 135171, Note_on_c, 12, 50, 0
12, 135186, Note_on_c, 12, 50, 100
12, 135186, Note_on_c, 12, 53, 100
12, 135231, Note_on_c, 12, 53, 0
12, 135231, Note_on_c, 12, 50, 0
12, 135246, Note_on_c, 12, 50, 100
12, 135246, Note_on_c, 12, 53, 100
12, 135291, Note_on_c, 12, 53, 0
12, 135291, Note_on_c, 12, 50, 0
12, 135306, Control_c, 12, 11, 60
12, 135306, Note_on_c, 12, 50, 100
12, 135306, Note_on_c, 12, 53, 100
12, 135351, Note_on_c, 12, 53, 0
12, 135351, Note_on_c, 12, 50, 0
12, 135366, Note_on_c, 12, 53, 100
12, 135366, Note_on_c, 12, 50, 100
12, 135411, Note_on_c, 12, 50, 0
12, 135411, Note_on_c, 12, 53, 0
12, 135426, Note_on_c, 12, 50, 100
12, 135426, Note_on_c, 12, 53, 100
12, 135471, Note_on_c, 12, 53, 0
12, 135471, Note_on_c, 12, 50, 0
12, 135486, Control_c, 12, 11, 61
12, 135486, Note_on_c, 12, 53, 100
12, 135486, Note_on_c, 12, 50, 100
12, 135531, Note_on_c, 12, 50, 0
12, 135531, Note_on_c, 12, 53, 0
12, 135546, Note_on_c, 12, 53, 100
12, 135546, Note_on_c, 12, 50, 100
12, 135591, Note_on_c, 12, 50, 0
12, 135591, Note_on_c, 12, 53, 0
12, 135606, Note_on_c, 12, 50, 100
12, 135606, Note_on_c, 12, 53, 100
12, 135651, Note_on_c, 12, 53, 0
12, 135651, Note_on_c, 12, 50, 0
12, 135666, Control_c, 12, 11, 62
12, 135666, Note_on_c, 12, 53, 100
12, 135666, Note_on_c, 12, 50, 100
12, 135711, Note_on_c, 12, 50, 0
12, 135711, Note_on_c, 12, 53, 0
12, 135726, Note_on_c, 12, 50, 100
12, 135726, Note_on_c, 12, 53, 100
12, 135771, Note_on_c, 12, 53, 0
12, 135771, Note_on_c, 12, 50, 0
12, 135786, Note_on_c, 12, 50, 100
12, 135786, Note_on_c, 12, 53, 100
12, 135831, Note_on_c, 12, 53, 0
12, 135831, Note_on_c, 12, 50, 0
12, 135846, Control_c, 12, 11, 63
12, 135846, Note_on_c, 12, 50, 100
12, 135846, Note_on_c, 12, 53, 100
12, 135891, Note_on_c, 12, 53, 0
12, 135891, Note_on_c, 12, 50, 0
12, 135906, Note_on_c, 12, 50, 100
12, 135906, Note_on_c, 12, 53, 100
12, 135951, Note_on_c, 12, 53, 0
12, 135951, Note_on_c, 12, 50, 0
12, 135966, Note_on_c, 12, 50, 100
12, 135966, Note_on_c, 12, 53, 100
12, 136011, Note_on_c, 12, 53, 0
12, 136011, Note_on_c, 12, 50, 0
12, 136026, Control_c, 12, 11, 64
12, 136026, Note_on_c, 12, 53, 100
12, 136026, Note_on_c, 12, 50, 100
12, 136071, Note_on_c, 12, 50, 0
12, 136071, Note_on_c, 12, 53, 0
12, 136086, Note_on_c, 12, 53, 100
12, 136086, Note_on_c, 12, 50, 100
12, 136131, Note_on_c, 12, 50, 0
12, 136131, Note_on_c, 12, 53, 0
12, 136146, Note_on_c, 12, 53, 100
12, 136146, Note_on_c, 12, 50, 100
12, 136191, Note_on_c, 12, 50, 0
12, 136191, Note_on_c, 12, 53, 0
12, 136206, Control_c, 12, 11, 65
12, 136206, Note_on_c, 12, 50, 100
12, 136206, Note_on_c, 12, 53, 100
12, 136251, Note_on_c, 12, 53, 0
12, 136251, Note_on_c, 12, 50, 0
12, 136266, Note_on_c, 12, 50, 100
12, 136266, Note_on_c, 12, 53, 100
12, 136311, Note_on_c, 12, 53, 0
12, 136311, Note_on_c, 12, 50, 0
12, 136326, Note_on_c, 12, 48, 100
12, 136326, Note_on_c, 12, 52, 100
12, 136371, Note_on_c, 12, 52, 0
12, 136371, Note_on_c, 12, 48, 0
12, 136386, Control_c, 12, 11, 66
12, 136386, Note_on_c, 12, 48, 100
12, 136386, Note_on_c, 12, 52, 100
12, 136431, Note_on_c, 12, 52, 0
12, 136431, Note_on_c, 12, 48, 0
12, 136446, Note_on_c, 12, 52, 100
12, 136446, Note_on_c, 12, 48, 100
12, 136491, Note_on_c, 12, 48, 0
12, 136491, Note_on_c, 12, 52, 0
12, 136506, Note_on_c, 12, 48, 100
12, 136506, Note_on_c, 12, 52, 100
12, 136551, Note_on_c, 12, 52, 0
12, 136551, Note_on_c, 12, 48, 0
12, 136566, Control_c, 12, 11, 67
12, 136566, Note_on_c, 12, 48, 100
12, 136566, Note_on_c, 12, 52, 100
12, 136611, Note_on_c, 12, 52, 0
12, 136611, Note_on_c, 12, 48, 0
12, 136626, Note_on_c, 12, 52, 100
12, 136626, Note_on_c, 12, 48, 100
12, 136671, Note_on_c, 12, 48, 0
12, 136671, Note_on_c, 12, 52, 0
12, 136686, Note_on_c, 12, 52, 100
12, 136686, Note_on_c, 12, 48, 100
12, 136731, Note_on_c, 12, 48, 0
12, 136731, Note_on_c, 12, 52, 0
12, 136746, Control_c, 12, 11, 68
12, 136746, Note_on_c, 12, 48, 100
12, 136746, Note_on_c, 12, 52, 100
12, 136791, Note_on_c, 12, 52, 0
12, 136791, Note_on_c, 12, 48, 0
12, 136806, Note_on_c, 12, 48, 100
12, 136806, Note_on_c, 12, 52, 100
12, 136851, Note_on_c, 12, 52, 0
12, 136851, Note_on_c, 12, 48, 0
12, 136866, Note_on_c, 12, 48, 100
12, 136866, Note_on_c, 12, 52, 100
12, 136911, Note_on_c, 12, 52, 0
12, 136911, Note_on_c, 12, 48, 0
12, 136926, Control_c, 12, 11, 69
12, 136926, Note_on_c, 12, 48, 100
12, 136926, Note_on_c, 12, 52, 100
12, 136971, Note_on_c, 12, 52, 0
12, 136971, Note_on_c, 12, 48, 0
12, 136986, Note_on_c, 12, 52, 100
12, 136986, Note_on_c, 12, 48, 100
12, 137031, Note_on_c, 12, 48, 0
12, 137031, Note_on_c, 12, 52, 0
12, 137046, Note_on_c, 12, 52, 100
12, 137046, Note_on_c, 12, 48, 100
12, 137091, Note_on_c, 12, 48, 0
12, 137091, Note_on_c, 12, 52, 0
12, 137106, Control_c, 12, 11, 70
12, 137106, Note_on_c, 12, 52, 100
12, 137106, Note_on_c, 12, 48, 100
12, 137151, Note_on_c, 12, 48, 0
12, 137151, Note_on_c, 12, 52, 0
12, 137166, Note_on_c, 12, 52, 100
12, 137166, Note_on_c, 12, 48, 100
12, 137211, Note_on_c, 12, 48, 0
12, 137211, Note_on_c, 12, 52, 0
12, 137226, Note_on_c, 12, 52, 100
12, 137226, Note_on_c, 12, 48, 100
12, 137271, Note_on_c, 12, 48, 0
12, 137271, Note_on_c, 12, 52, 0
12, 137286, Control_c, 12, 11, 71
12, 137286, Note_on_c, 12, 48, 100
12, 137286, Note_on_c, 12, 52, 100
12, 137331, Note_on_c, 12, 52, 0
12, 137331, Note_on_c, 12, 48, 0
12, 137346, Note_on_c, 12, 48, 100
12, 137346, Note_on_c, 12, 52, 100
12, 137391, Note_on_c, 12, 52, 0
12, 137391, Note_on_c, 12, 48, 0
12, 137406, Note_on_c, 12, 48, 100
12, 137406, Note_on_c, 12, 52, 100
12, 137451, Note_on_c, 12, 52, 0
12, 137451, Note_on_c, 12, 48, 0
12, 137466, Control_c, 12, 11, 72
12, 137466, Note_on_c, 12, 48, 100
12, 137466, Note_on_c, 12, 52, 100
12, 137511, Note_on_c, 12, 52, 0
12, 137511, Note_on_c, 12, 48, 0
12, 137526, Note_on_c, 12, 52, 100
12, 137526, Note_on_c, 12, 48, 100
12, 137571, Note_on_c, 12, 48, 0
12, 137571, Note_on_c, 12, 52, 0
12, 137586, Note_on_c, 12, 48, 100
12, 137586, Note_on_c, 12, 52, 100
12, 137631, Note_on_c, 12, 52, 0
12, 137631, Note_on_c, 12, 48, 0
12, 137646, Control_c, 12, 11, 73
12, 137646, Note_on_c, 12, 48, 100
12, 137646, Note_on_c, 12, 52, 100
12, 137691, Note_on_c, 12, 52, 0
12, 137691, Note_on_c, 12, 48, 0
12, 137706, Note_on_c, 12, 52, 100
12, 137706, Note_on_c, 12, 48, 100
12, 137751, Note_on_c, 12, 48, 0
12, 137751, Note_on_c, 12, 52, 0
12, 137766, Note_on_c, 12, 52, 100
12, 137766, Note_on_c, 12, 48, 100
12, 137811, Note_on_c, 12, 48, 0
12, 137811, Note_on_c, 12, 52, 0
12, 137826, Control_c, 12, 11, 74
12, 137826, Note_on_c, 12, 52, 100
12, 137826, Note_on_c, 12, 48, 100
12, 137871, Note_on_c, 12, 48, 0
12, 137871, Note_on_c, 12, 52, 0
12, 137886, Note_on_c, 12, 48, 100
12, 137886, Note_on_c, 12, 52, 100
12, 137931, Note_on_c, 12, 52, 0
12, 137931, Note_on_c, 12, 48, 0
12, 137946, Note_on_c, 12, 52, 100
12, 137946, Note_on_c, 12, 48, 100
12, 137991, Note_on_c, 12, 48, 0
12, 137991, Note_on_c, 12, 52, 0
12, 138006, Control_c, 12, 11, 75
12, 138006, Note_on_c, 12, 52, 100
12, 138006, Note_on_c, 12, 48, 100
12, 138051, Note_on_c, 12, 48, 0
12, 138051, Note_on_c, 12, 52, 0
12, 138066, Note_on_c, 12, 52, 100
12, 138066, Note_on_c, 12, 48, 100
12, 138111, Note_on_c, 12, 48, 0
12, 138111, Note_on_c, 12, 52, 0
12, 138126, Note_on_c, 12, 52, 100
12, 138126, Note_on_c, 12, 48, 100
12, 138171, Note_on_c, 12, 48, 0
12, 138171, Note_on_c, 12, 52, 0
12, 138186, Control_c, 12, 11, 76
12, 138186, Note_on_c, 12, 48, 100
12, 138186, Note_on_c, 12, 52, 100
12, 138231, Note_on_c, 12, 52, 0
12, 138231, Note_on_c, 12, 48, 0
12, 138246, Note_on_c, 12, 50, 100
12, 138246, Note_on_c, 12, 53, 100
12, 138291, Note_on_c, 12, 53, 0
12, 138291, Note_on_c, 12, 50, 0
12, 138306, Note_on_c, 12, 50, 100
12, 138306, Note_on_c, 12, 53, 100
12, 138351, Note_on_c, 12, 53, 0
12, 138351, Note_on_c, 12, 50, 0
12, 138366, Control_c, 12, 11, 77
12, 138366, Note_on_c, 12, 50, 100
12, 138366, Note_on_c, 12, 53, 100
12, 138411, Note_on_c, 12, 53, 0
12, 138411, Note_on_c, 12, 50, 0
12, 138426, Note_on_c, 12, 50, 100
12, 138426, Note_on_c, 12, 53, 100
12, 138471, Note_on_c, 12, 53, 0
12, 138471, Note_on_c, 12, 50, 0
12, 138486, Note_on_c, 12, 50, 100
12, 138486, Note_on_c, 12, 53, 100
12, 138531, Note_on_c, 12, 53, 0
12, 138531, Note_on_c, 12, 50, 0
12, 138546, Control_c, 12, 11, 78
12, 138546, Note_on_c, 12, 53, 100
12, 138546, Note_on_c, 12, 50, 100
12, 138591, Note_on_c, 12, 50, 0
12, 138591, Note_on_c, 12, 53, 0
12, 138606, Note_on_c, 12, 53, 100
12, 138606, Note_on_c, 12, 50, 100
12, 138651, Note_on_c, 12, 50, 0
12, 138651, Note_on_c, 12, 53, 0
12, 138666, Note_on_c, 12, 53, 100
12, 138666, Note_on_c, 12, 50, 100
12, 138711, Note_on_c, 12, 50, 0
12, 138711, Note_on_c, 12, 53, 0
12, 138726, Control_c, 12, 11, 79
12, 138726, Note_on_c, 12, 53, 100
12, 138726, Note_on_c, 12, 50, 100
12, 138771, Note_on_c, 12, 50, 0
12, 138771, Note_on_c, 12, 53, 0
12, 138786, Note_on_c, 12, 50, 100
12, 138786, Note_on_c, 12, 53, 100
12, 138831, Note_on_c, 12, 53, 0
12, 138831, Note_on_c, 12, 50, 0
12, 138846, Note_on_c, 12, 50, 100
12, 138846, Note_on_c, 12, 53, 100
12, 138891, Note_on_c, 12, 53, 0
12, 138891, Note_on_c, 12, 50, 0
12, 138906, Control_c, 12, 11, 80
12, 138906, Note_on_c, 12, 53, 100
12, 138906, Note_on_c, 12, 50, 100
12, 138951, Note_on_c, 12, 50, 0
12, 138951, Note_on_c, 12, 53, 0
12, 138966, Note_on_c, 12, 53, 100
12, 138966, Note_on_c, 12, 50, 100
12, 139011, Note_on_c, 12, 50, 0
12, 139011, Note_on_c, 12, 53, 0
12, 139026, Note_on_c, 12, 53, 100
12, 139026, Note_on_c, 12, 50, 100
12, 139071, Note_on_c, 12, 50, 0
12, 139071, Note_on_c, 12, 53, 0
12, 139086, Control_c, 12, 11, 81
12, 139086, Note_on_c, 12, 53, 100
12, 139086, Note_on_c, 12, 50, 100
12, 139131, Note_on_c, 12, 50, 0
12, 139131, Note_on_c, 12, 53, 0
12, 139146, Note_on_c, 12, 50, 100
12, 139146, Note_on_c, 12, 53, 100
12, 139191, Note_on_c, 12, 53, 0
12, 139191, Note_on_c, 12, 50, 0
12, 139206, Note_on_c, 12, 50, 100
12, 139206, Note_on_c, 12, 53, 100
12, 139251, Note_on_c, 12, 53, 0
12, 139251, Note_on_c, 12, 50, 0
12, 139266, Control_c, 12, 11, 82
12, 139266, Note_on_c, 12, 53, 100
12, 139266, Note_on_c, 12, 50, 100
12, 139311, Note_on_c, 12, 50, 0
12, 139311, Note_on_c, 12, 53, 0
12, 139326, Note_on_c, 12, 50, 100
12, 139326, Note_on_c, 12, 53, 100
12, 139371, Note_on_c, 12, 53, 0
12, 139371, Note_on_c, 12, 50, 0
12, 139386, Note_on_c, 12, 50, 100
12, 139386, Note_on_c, 12, 53, 100
12, 139431, Note_on_c, 12, 53, 0
12, 139431, Note_on_c, 12, 50, 0
12, 139446, Control_c, 12, 11, 83
12, 139446, Note_on_c, 12, 53, 100
12, 139446, Note_on_c, 12, 50, 100
12, 139491, Note_on_c, 12, 50, 0
12, 139491, Note_on_c, 12, 53, 0
12, 139506, Note_on_c, 12, 50, 100
12, 139506, Note_on_c, 12, 53, 100
12, 139551, Note_on_c, 12, 53, 0
12, 139551, Note_on_c, 12, 50, 0
12, 139566, Note_on_c, 12, 50, 100
12, 139566, Note_on_c, 12, 53, 100
12, 139611, Note_on_c, 12, 53, 0
12, 139611, Note_on_c, 12, 50, 0
12, 139626, Control_c, 12, 11, 84
12, 139626, Note_on_c, 12, 50, 100
12, 139626, Note_on_c, 12, 53, 100
12, 139671, Note_on_c, 12, 53, 0
12, 139671, Note_on_c, 12, 50, 0
12, 139686, Note_on_c, 12, 53, 100
12, 139686, Note_on_c, 12, 50, 100
12, 139731, Note_on_c, 12, 50, 0
12, 139731, Note_on_c, 12, 53, 0
12, 139746, Note_on_c, 12, 53, 100
12, 139746, Note_on_c, 12, 50, 100
12, 139791, Note_on_c, 12, 50, 0
12, 139791, Note_on_c, 12, 53, 0
12, 139806, Control_c, 12, 11, 85
12, 139806, Note_on_c, 12, 53, 100
12, 139806, Note_on_c, 12, 50, 100
12, 139851, Note_on_c, 12, 50, 0
12, 139851, Note_on_c, 12, 53, 0
12, 139866, Note_on_c, 12, 53, 100
12, 139866, Note_on_c, 12, 50, 100
12, 139911, Note_on_c, 12, 50, 0
12, 139911, Note_on_c, 12, 53, 0
12, 139926, Note_on_c, 12, 53, 100
12, 139926, Note_on_c, 12, 50, 100
12, 139971, Note_on_c, 12, 50, 0
12, 139971, Note_on_c, 12, 53, 0
12, 139986, Control_c, 12, 11, 86
12, 139986, Note_on_c, 12, 53, 100
12, 139986, Note_on_c, 12, 50, 100
12, 140031, Note_on_c, 12, 50, 0
12, 140031, Note_on_c, 12, 53, 0
12, 140046, Note_on_c, 12, 50, 100
12, 140046, Note_on_c, 12, 53, 100
12, 140091, Note_on_c, 12, 53, 0
12, 140091, Note_on_c, 12, 50, 0
12, 140106, Note_on_c, 12, 53, 100
12, 140106, Note_on_c, 12, 50, 100
12, 140151, Note_on_c, 12, 50, 0
12, 140151, Note_on_c, 12, 53, 0
12, 140166, Control_c, 12, 11, 87
12, 140166, Note_on_c, 12, 52, 100
12, 140166, Note_on_c, 12, 48, 100
12, 140207, Note_on_c, 12, 48, 0
12, 140207, Note_on_c, 12, 52, 0
12, 140226, Note_on_c, 12, 60, 100
12, 140226, Note_on_c, 12, 64, 100
12, 140267, Note_on_c, 12, 64, 0
12, 140267, Note_on_c, 12, 60, 0
12, 140286, Note_on_c, 12, 60, 107
12, 140286, Note_on_c, 12, 64, 107
12, 140327, Note_on_c, 12, 64, 0
12, 140327, Note_on_c, 12, 60, 0
12, 140346, Note_on_c, 12, 60, 100
12, 140346, Note_on_c, 12, 64, 100
12, 140387, Note_on_c, 12, 64, 0
12, 140387, Note_on_c, 12, 60, 0
12, 140406, Note_on_c, 12, 64, 107
12, 140406, Note_on_c, 12, 60, 107
12, 140447, Note_on_c, 12, 60, 0
12, 140447, Note_on_c, 12, 64, 0
12, 140466, Note_on_c, 12, 60, 100
12, 140466, Note_on_c, 12, 64, 100
12, 140507, Note_on_c, 12, 64, 0
12, 140507, Note_on_c, 12, 60, 0
12, 140526, Note_on_c, 12, 60, 107
12, 140526, Note_on_c, 12, 64, 107
12, 140567, Note_on_c, 12, 64, 0
12, 140567, Note_on_c, 12, 60, 0
12, 140586, Note_on_c, 12, 64, 100
12, 140586, Note_on_c, 12, 60, 100
12, 140627, Note_on_c, 12, 60, 0
12, 140627, Note_on_c, 12, 64, 0
12, 140646, Note_on_c, 12, 60, 100
12, 140646, Note_on_c, 12, 64, 100
12, 140687, Note_on_c, 12, 64, 0
12, 140687, Note_on_c, 12, 60, 0
12, 140706, Note_on_c, 12, 60, 100
12, 140706, Note_on_c, 12, 64, 100
12, 140747, Note_on_c, 12, 64, 0
12, 140747, Note_on_c, 12, 60, 0
12, 140766, Note_on_c, 12, 64, 100
12, 140766, Note_on_c, 12, 60, 100
12, 140807, Note_on_c, 12, 60, 0
12, 140807, Note_on_c, 12, 64, 0
12, 140826, Note_on_c, 12, 64, 100
12, 140826, Note_on_c, 12, 60, 100
12, 140867, Note_on_c, 12, 60, 0
12, 140867, Note_on_c, 12, 64, 0
12, 140886, Note_on_c, 12, 64, 107
12, 140886, Note_on_c, 12, 60, 107
12, 140927, Note_on_c, 12, 60, 0
12, 140927, Note_on_c, 12, 64, 0
12, 140946, Note_on_c, 12, 60, 100
12, 140946, Note_on_c, 12, 64, 100
12, 140987, Note_on_c, 12, 64, 0
12, 140987, Note_on_c, 12, 60, 0
12, 141006, Note_on_c, 12, 64, 107
12, 141006, Note_on_c, 12, 60, 107
12, 141047, Note_on_c, 12, 60, 0
12, 141047, Note_on_c, 12, 64, 0
12, 141066, Note_on_c, 12, 60, 100
12, 141066, Note_on_c, 12, 64, 100
12, 141107, Note_on_c, 12, 64, 0
12, 141107, Note_on_c, 12, 60, 0
12, 141126, Note_on_c, 12, 64, 107
12, 141126, Note_on_c, 12, 60, 107
12, 141167, Note_on_c, 12, 60, 0
12, 141167, Note_on_c, 12, 64, 0
12, 141186, Note_on_c, 12, 60, 100
12, 141186, Note_on_c, 12, 64, 100
12, 141227, Note_on_c, 12, 64, 0
12, 141227, Note_on_c, 12, 60, 0
12, 141246, Note_on_c, 12, 64, 107
12, 141246, Note_on_c, 12, 60, 107
12, 141287, Note_on_c, 12, 60, 0
12, 141287, Note_on_c, 12, 64, 0
12, 141306, Note_on_c, 12, 60, 100
12, 141306, Note_on_c, 12, 64, 100
12, 141347, Note_on_c, 12, 64, 0
12, 141347, Note_on_c, 12, 60, 0
12, 141366, Note_on_c, 12, 60, 107
12, 141366, Note_on_c, 12, 64, 107
12, 141407, Note_on_c, 12, 64, 0
12, 141407, Note_on_c, 12, 60, 0
12, 141426, Note_on_c, 12, 60, 100
12, 141426, Note_on_c, 12, 64, 100
12, 141467, Note_on_c, 12, 64, 0
12, 141467, Note_on_c, 12, 60, 0
12, 141486, Note_on_c, 12, 64, 107
12, 141486, Note_on_c, 12, 60, 107
12, 141527, Note_on_c, 12, 60, 0
12, 141527, Note_on_c, 12, 64, 0
12, 141546, Note_on_c, 12, 60, 100
12, 141546, Note_on_c, 12, 64, 100
12, 141587, Note_on_c, 12, 64, 0
12, 141587, Note_on_c, 12, 60, 0
12, 141606, Note_on_c, 12, 64, 107
12, 141606, Note_on_c, 12, 60, 107
12, 141647, Note_on_c, 12, 60, 0
12, 141647, Note_on_c, 12, 64, 0
12, 141666, Note_on_c, 12, 64, 100
12, 141666, Note_on_c, 12, 60, 100
12, 141707, Note_on_c, 12, 60, 0
12, 141707, Note_on_c, 12, 64, 0
12, 141726, Note_on_c, 12, 64, 107
12, 141726, Note_on_c, 12, 60, 107
12, 141767, Note_on_c, 12, 60, 0
12, 141767, Note_on_c, 12, 64, 0
12, 141786, Note_on_c, 12, 64, 100
12, 141786, Note_on_c, 12, 60, 100
12, 141827, Note_on_c, 12, 60, 0
12, 141827, Note_on_c, 12, 64, 0
12, 141846, Note_on_c, 12, 64, 107
12, 141846, Note_on_c, 12, 60, 107
12, 141887, Note_on_c, 12, 60, 0
12, 141887, Note_on_c, 12, 64, 0
12, 141906, Note_on_c, 12, 60, 100
12, 141906, Note_on_c, 12, 64, 100
12, 141947, Note_on_c, 12, 64, 0
12, 141947, Note_on_c, 12, 60, 0
12, 141966, Note_on_c, 12, 60, 107
12, 141966, Note_on_c, 12, 64, 107
12, 142007, Note_on_c, 12, 64, 0
12, 142007, Note_on_c, 12, 60, 0
12, 142026, Note_on_c, 12, 60, 100
12, 142026, Note_on_c, 12, 64, 100
12, 142067, Note_on_c, 12, 64, 0
12, 142067, Note_on_c, 12, 60, 0
12, 142086, Control_c, 12, 11, 87
12, 142086, Note_on_c, 12, 62, 107
12, 142086, Note_on_c, 12, 65, 107
12, 142127, Note_on_c, 12, 65, 0
12, 142127, Note_on_c, 12, 62, 0
12, 142146, Note_on_c, 12, 65, 100
12, 142146, Note_on_c, 12, 62, 100
12, 142182, Control_c, 12, 11, 88
12, 142187, Note_on_c, 12, 62, 0
12, 142187, Note_on_c, 12, 65, 0
12, 142206, Note_on_c, 12, 62, 107
12, 142206, Note_on_c, 12, 65, 107
12, 142247, Note_on_c, 12, 65, 0
12, 142247, Note_on_c, 12, 62, 0
12, 142266, Note_on_c, 12, 62, 100
12, 142266, Note_on_c, 12, 65, 100
12, 142278, Control_c, 12, 11, 89
12, 142307, Note_on_c, 12, 65, 0
12, 142307, Note_on_c, 12, 62, 0
12, 142326, Note_on_c, 12, 62, 107
12, 142326, Note_on_c, 12, 65, 107
12, 142367, Note_on_c, 12, 65, 0
12, 142367, Note_on_c, 12, 62, 0
12, 142374, Control_c, 12, 11, 90
12, 142386, Note_on_c, 12, 65, 100
12, 142386, Note_on_c, 12, 62, 100
12, 142427, Note_on_c, 12, 62, 0
12, 142427, Note_on_c, 12, 65, 0
12, 142446, Note_on_c, 12, 65, 107
12, 142446, Note_on_c, 12, 62, 107
12, 142470, Control_c, 12, 11, 91
12, 142487, Note_on_c, 12, 62, 0
12, 142487, Note_on_c, 12, 65, 0
12, 142506, Note_on_c, 12, 65, 100
12, 142506, Note_on_c, 12, 62, 100
12, 142547, Note_on_c, 12, 62, 0
12, 142547, Note_on_c, 12, 65, 0
12, 142566, Control_c, 12, 11, 92
12, 142566, Note_on_c, 12, 65, 107
12, 142566, Note_on_c, 12, 62, 107
12, 142607, Note_on_c, 12, 62, 0
12, 142607, Note_on_c, 12, 65, 0
12, 142626, Note_on_c, 12, 62, 100
12, 142626, Note_on_c, 12, 65, 100
12, 142662, Control_c, 12, 11, 93
12, 142667, Note_on_c, 12, 65, 0
12, 142667, Note_on_c, 12, 62, 0
12, 142686, Note_on_c, 12, 62, 107
12, 142686, Note_on_c, 12, 65, 107
12, 142727, Note_on_c, 12, 65, 0
12, 142727, Note_on_c, 12, 62, 0
12, 142746, Note_on_c, 12, 62, 100
12, 142746, Note_on_c, 12, 65, 100
12, 142758, Control_c, 12, 11, 94
12, 142787, Note_on_c, 12, 65, 0
12, 142787, Note_on_c, 12, 62, 0
12, 142806, Note_on_c, 12, 62, 107
12, 142806, Note_on_c, 12, 65, 107
12, 142847, Note_on_c, 12, 65, 0
12, 142847, Note_on_c, 12, 62, 0
12, 142854, Control_c, 12, 11, 95
12, 142866, Note_on_c, 12, 62, 100
12, 142866, Note_on_c, 12, 65, 100
12, 142907, Note_on_c, 12, 65, 0
12, 142907, Note_on_c, 12, 62, 0
12, 142926, Note_on_c, 12, 62, 107
12, 142926, Note_on_c, 12, 65, 107
12, 142950, Control_c, 12, 11, 96
12, 142967, Note_on_c, 12, 65, 0
12, 142967, Note_on_c, 12, 62, 0
12, 142986, Note_on_c, 12, 62, 100
12, 142986, Note_on_c, 12, 65, 100
12, 143027, Note_on_c, 12, 65, 0
12, 143027, Note_on_c, 12, 62, 0
12, 143046, Control_c, 12, 11, 97
12, 143046, Note_on_c, 12, 65, 107
12, 143046, Note_on_c, 12, 62, 107
12, 143087, Note_on_c, 12, 62, 0
12, 143087, Note_on_c, 12, 65, 0
12, 143106, Note_on_c, 12, 62, 100
12, 143106, Note_on_c, 12, 65, 100
12, 143142, Control_c, 12, 11, 98
12, 143147, Note_on_c, 12, 65, 0
12, 143147, Note_on_c, 12, 62, 0
12, 143166, Note_on_c, 12, 62, 107
12, 143166, Note_on_c, 12, 65, 107
12, 143207, Note_on_c, 12, 65, 0
12, 143207, Note_on_c, 12, 62, 0
12, 143226, Note_on_c, 12, 65, 100
12, 143226, Note_on_c, 12, 62, 100
12, 143238, Control_c, 12, 11, 99
12, 143267, Note_on_c, 12, 62, 0
12, 143267, Note_on_c, 12, 65, 0
12, 143286, Note_on_c, 12, 62, 107
12, 143286, Note_on_c, 12, 65, 107
12, 143327, Note_on_c, 12, 65, 0
12, 143327, Note_on_c, 12, 62, 0
12, 143334, Control_c, 12, 11, 100
12, 143346, Note_on_c, 12, 65, 100
12, 143346, Note_on_c, 12, 62, 100
12, 143387, Note_on_c, 12, 62, 0
12, 143387, Note_on_c, 12, 65, 0
12, 143406, Note_on_c, 12, 65, 107
12, 143406, Note_on_c, 12, 62, 107
12, 143430, Control_c, 12, 11, 101
12, 143447, Note_on_c, 12, 62, 0
12, 143447, Note_on_c, 12, 65, 0
12, 143466, Note_on_c, 12, 62, 100
12, 143466, Note_on_c, 12, 65, 100
12, 143507, Note_on_c, 12, 65, 0
12, 143507, Note_on_c, 12, 62, 0
12, 143526, Control_c, 12, 11, 102
12, 143526, Note_on_c, 12, 65, 107
12, 143526, Note_on_c, 12, 62, 107
12, 143567, Note_on_c, 12, 62, 0
12, 143567, Note_on_c, 12, 65, 0
12, 143586, Note_on_c, 12, 65, 100
12, 143586, Note_on_c, 12, 62, 100
12, 143622, Control_c, 12, 11, 103
12, 143627, Note_on_c, 12, 62, 0
12, 143627, Note_on_c, 12, 65, 0
12, 143646, Note_on_c, 12, 62, 107
12, 143646, Note_on_c, 12, 65, 107
12, 143687, Note_on_c, 12, 65, 0
12, 143687, Note_on_c, 12, 62, 0
12, 143706, Note_on_c, 12, 62, 100
12, 143706, Note_on_c, 12, 65, 100
12, 143718, Control_c, 12, 11, 104
12, 143747, Note_on_c, 12, 65, 0
12, 143747, Note_on_c, 12, 62, 0
12, 143766, Note_on_c, 12, 65, 107
12, 143766, Note_on_c, 12, 62, 107
12, 143807, Note_on_c, 12, 62, 0
12, 143807, Note_on_c, 12, 65, 0
12, 143814, Control_c, 12, 11, 105
12, 143826, Note_on_c, 12, 65, 100
12, 143826, Note_on_c, 12, 62, 100
12, 143867, Note_on_c, 12, 62, 0
12, 143867, Note_on_c, 12, 65, 0
12, 143886, Note_on_c, 12, 62, 107
12, 143886, Note_on_c, 12, 65, 107
12, 143910, Control_c, 12, 11, 106
12, 143927, Note_on_c, 12, 65, 0
12, 143927, Note_on_c, 12, 62, 0
12, 143946, Note_on_c, 12, 62, 100
12, 143946, Note_on_c, 12, 65, 100
12, 143987, Note_on_c, 12, 65, 0
12, 143987, Note_on_c, 12, 62, 0
12, 144006, Control_c, 12, 11, 125
12, 144006, Note_on_c, 12, 64, 107
12, 144006, Note_on_c, 12, 60, 107
12, 144029, Control_c, 12, 11, 122
12, 144053, Control_c, 12, 11, 118
12, 144077, Control_c, 12, 11, 115
12, 144101, Control_c, 12, 11, 111
12, 144125, Control_c, 12, 11, 107
12, 144308, Note_on_c, 12, 60, 0
12, 144308, Note_on_c, 12, 64, 0
12, 144366, Note_on_c, 12, 57, 117
12, 144452, Note_on_c, 12, 57, 0
12, 144486, Control_c, 12, 11, 125
12, 144486, Note_on_c, 12, 57, 107
12, 144509, Control_c, 12, 11, 122
12, 144533, Control_c, 12, 11, 118
12, 144557, Control_c, 12, 11, 115
12, 144581, Control_c, 12, 11, 111
12, 144605, Control_c, 12, 11, 107
12, 144788, Note_on_c, 12, 57, 0
12, 144846, Note_on_c, 12, 55, 117
12, 144932, Note_on_c, 12, 55, 0
12, 144966, Control_c, 12, 11, 125
12, 144966, Note_on_c, 12, 55, 107
12, 144989, Control_c, 12, 11, 122
12, 145013, Control_c, 12, 11, 118
12, 145037, Control_c, 12, 11, 115
12, 145061, Control_c, 12, 11, 111
12, 145085, Control_c, 12, 11, 107
12, 145268, Note_on_c, 12, 55, 0
12, 145326, Note_on_c, 12, 53, 117
12, 145412, Note_on_c, 12, 53, 0
12, 145446, Control_c, 12, 11, 125
12, 145446, Note_on_c, 12, 53, 107
12, 145469, Control_c, 12, 11, 122
12, 145493, Control_c, 12, 11, 118
12, 145517, Control_c, 12, 11, 115
12, 145541, Control_c, 12, 11, 111
12, 145565, Control_c, 12, 11, 107
12, 145748, Note_on_c, 12, 53, 0
12, 145806, Note_on_c, 12, 52, 117
12, 145892, Note_on_c, 12, 52, 0
12, 145926, Note_on_c, 12, 52, 114
12, 145986, Note_on_c, 12, 52, 0
12, 146046, Note_on_c, 12, 57, 107
12, 146106, Note_on_c, 12, 57, 0
12, 146166, Note_on_c, 12, 57, 114
12, 146226, Note_on_c, 12, 57, 0
12, 146286, Note_on_c, 12, 55, 107
12, 146346, Note_on_c, 12, 55, 0
12, 146406, Note_on_c, 12, 55, 114
12, 146466, Note_on_c, 12, 55, 0
12, 146526, Note_on_c, 12, 53, 107
12, 146586, Note_on_c, 12, 53, 0
12, 146646, Note_on_c, 12, 53, 114
12, 146706, Note_on_c, 12, 53, 0
12, 146766, Note_on_c, 12, 52, 107
12, 146826, Note_on_c, 12, 52, 0
12, 146886, Note_on_c, 12, 52, 114
12, 146946, Note_on_c, 12, 52, 0
12, 147006, Note_on_c, 12, 53, 107
12, 147066, Note_on_c, 12, 53, 0
12, 147126, Note_on_c, 12, 53, 114
12, 147186, Note_on_c, 12, 53, 0
12, 147246, Note_on_c, 12, 53, 107
12, 147306, Note_on_c, 12, 53, 0
12, 147366, Note_on_c, 12, 53, 114
12, 147426, Note_on_c, 12, 53, 0
12, 147486, Note_on_c, 12, 53, 107
12, 147546, Note_on_c, 12, 53, 0
12, 147606, Note_on_c, 12, 53, 114
12, 147666, Note_on_c, 12, 53, 0
12, 147726, Note_on_c, 12, 53, 107
12, 147786, Note_on_c, 12, 53, 0
12, 147846, Control_c, 12, 11, 122
12, 147846, Note_on_c, 12, 54, 100
12, 147869, Control_c, 12, 11, 120
12, 147893, Control_c, 12, 11, 118
12, 147900, Note_on_c, 12, 54, 0
12, 147906, Note_on_c, 12, 66, 100
12, 147917, Control_c, 12, 11, 116
12, 147941, Control_c, 12, 11, 114
12, 147951, Note_on_c, 12, 66, 0
12, 147965, Control_c, 12, 11, 112
12, 147966, Note_on_c, 12, 66, 100
12, 147989, Control_c, 12, 11, 110
12, 148011, Note_on_c, 12, 66, 0
12, 148013, Control_c, 12, 11, 108
12, 148026, Note_on_c, 12, 66, 100
12, 148037, Control_c, 12, 11, 106
12, 148061, Control_c, 12, 11, 104
12, 148071, Note_on_c, 12, 66, 0
12, 148085, Control_c, 12, 11, 102
12, 148086, Note_on_c, 12, 66, 100
12, 148131, Note_on_c, 12, 66, 0
12, 148146, Note_on_c, 12, 66, 100
12, 148191, Note_on_c, 12, 66, 0
12, 148206, Note_on_c, 12, 66, 100
12, 148251, Note_on_c, 12, 66, 0
12, 148266, Note_on_c, 12, 66, 100
12, 148311, Note_on_c, 12, 66, 0
12, 148326, Note_on_c, 12, 66, 100
12, 148371, Note_on_c, 12, 66, 0
12, 148386, Note_on_c, 12, 66, 100
12, 148431, Note_on_c, 12, 66, 0
12, 148446, Note_on_c, 12, 66, 100
12, 148491, Note_on_c, 12, 66, 0
12, 148506, Note_on_c, 12, 66, 100
12, 148551, Note_on_c, 12, 66, 0
12, 148566, Note_on_c, 12, 66, 100
12, 148611, Note_on_c, 12, 66, 0
12, 148626, Note_on_c, 12, 66, 100
12, 148671, Note_on_c, 12, 66, 0
12, 148686, Note_on_c, 12, 66, 100
12, 148731, Note_on_c, 12, 66, 0
12, 148746, Note_on_c, 12, 66, 100
12, 148791, Note_on_c, 12, 66, 0
12, 148806, Control_c, 12, 11, 122
12, 148806, Note_on_c, 12, 55, 100
12, 148829, Control_c, 12, 11, 120
12, 148853, Control_c, 12, 11, 118
12, 148860, Note_on_c, 12, 55, 0
12, 148866, Note_on_c, 12, 67, 100
12, 148877, Control_c, 12, 11, 116
12, 148901, Control_c, 12, 11, 114
12, 148911, Note_on_c, 12, 67, 0
12, 148925, Control_c, 12, 11, 112
12, 148926, Note_on_c, 12, 67, 100
12, 148949, Control_c, 12, 11, 110
12, 148971, Note_on_c, 12, 67, 0
12, 148973, Control_c, 12, 11, 108
12, 148986, Note_on_c, 12, 67, 100
12, 148997, Control_c, 12, 11, 106
12, 149021, Control_c, 12, 11, 104
12, 149031, Note_on_c, 12, 67, 0
12, 149045, Control_c, 12, 11, 102
12, 149046, Note_on_c, 12, 67, 100
12, 149091, Note_on_c, 12, 67, 0
12, 149106, Note_on_c, 12, 67, 100
12, 149151, Note_on_c, 12, 67, 0
12, 149166, Note_on_c, 12, 67, 100
12, 149211, Note_on_c, 12, 67, 0
12, 149226, Note_on_c, 12, 67, 100
12, 149271, Note_on_c, 12, 67, 0
12, 149286, Note_on_c, 12, 67, 100
12, 149331, Note_on_c, 12, 67, 0
12, 149346, Note_on_c, 12, 67, 100
12, 149391, Note_on_c, 12, 67, 0
12, 149406, Note_on_c, 12, 67, 100
12, 149451, Note_on_c, 12, 67, 0
12, 149466, Note_on_c, 12, 67, 100
12, 149511, Note_on_c, 12, 67, 0
12, 149526, Note_on_c, 12, 67, 100
12, 149571, Note_on_c, 12, 67, 0
12, 149586, Note_on_c, 12, 67, 100
12, 149631, Note_on_c, 12, 67, 0
12, 149646, Note_on_c, 12, 67, 100
12, 149691, Note_on_c, 12, 67, 0
12, 149706, Note_on_c, 12, 67, 100
12, 149751, Note_on_c, 12, 67, 0
12, 149766, Control_c, 12, 11, 122
12, 149766, Note_on_c, 12, 56, 100
12, 149789, Control_c, 12, 11, 120
12, 149813, Control_c, 12, 11, 118
12, 149820, Note_on_c, 12, 56, 0
12, 149826, Note_on_c, 12, 68, 100
12, 149837, Control_c, 12, 11, 116
12, 149861, Control_c, 12, 11, 114
12, 149871, Note_on_c, 12, 68, 0
12, 149885, Control_c, 12, 11, 112
12, 149886, Note_on_c, 12, 68, 100
12, 149909, Control_c, 12, 11, 110
12, 149931, Note_on_c, 12, 68, 0
12, 149933, Control_c, 12, 11, 108
12, 149946, Note_on_c, 12, 68, 100
12, 149957, Control_c, 12, 11, 106
12, 149981, Control_c, 12, 11, 104
12, 149991, Note_on_c, 12, 68, 0
12, 150005, Control_c, 12, 11, 102
12, 150006, Note_on_c, 12, 68, 100
12, 150051, Note_on_c, 12, 68, 0
12, 150066, Note_on_c, 12, 68, 100
12, 150111, Note_on_c, 12, 68, 0
12, 150126, Note_on_c, 12, 68, 100
12, 150171, Note_on_c, 12, 68, 0
12, 150186, Note_on_c, 12, 68, 100
12, 150231, Note_on_c, 12, 68, 0
12, 150246, Note_on_c, 12, 68, 100
12, 150291, Note_on_c, 12, 68, 0
12, 150306, Note_on_c, 12, 68, 100
12, 150351, Note_on_c, 12, 68, 0
12, 150366, Note_on_c, 12, 68, 100
12, 150411, Note_on_c, 12, 68, 0
12, 150426, Note_on_c, 12, 68, 100
12, 150471, Note_on_c, 12, 68, 0
12, 150486, Note_on_c, 12, 68, 100
12, 150531, Note_on_c, 12, 68, 0
12, 150546, Note_on_c, 12, 68, 100
12, 150591, Note_on_c, 12, 68, 0
12, 150606, Note_on_c, 12, 68, 100
12, 150651, Note_on_c, 12, 68, 0
12, 150666, Note_on_c, 12, 68, 100
12, 150711, Note_on_c, 12, 68, 0
12, 150726, Control_c, 12, 11, 122
12, 150726, Note_on_c, 12, 57, 100
12, 150749, Control_c, 12, 11, 120
12, 150773, Control_c, 12, 11, 118
12, 150780, Note_on_c, 12, 57, 0
12, 150786, Note_on_c, 12, 69, 100
12, 150797, Control_c, 12, 11, 116
12, 150821, Control_c, 12, 11, 114
12, 150831, Note_on_c, 12, 69, 0
12, 150845, Control_c, 12, 11, 112
12, 150846, Note_on_c, 12, 69, 100
12, 150869, Control_c, 12, 11, 110
12, 150891, Note_on_c, 12, 69, 0
12, 150893, Control_c, 12, 11, 108
12, 150906, Note_on_c, 12, 69, 100
12, 150917, Control_c, 12, 11, 106
12, 150941, Control_c, 12, 11, 104
12, 150951, Note_on_c, 12, 69, 0
12, 150965, Control_c, 12, 11, 102
12, 150966, Note_on_c, 12, 69, 100
12, 151011, Note_on_c, 12, 69, 0
12, 151026, Note_on_c, 12, 69, 100
12, 151071, Note_on_c, 12, 69, 0
12, 151086, Note_on_c, 12, 69, 100
12, 151131, Note_on_c, 12, 69, 0
12, 151146, Note_on_c, 12, 69, 100
12, 151191, Note_on_c, 12, 69, 0
12, 151206, Control_c, 12, 11, 122
12, 151206, Note_on_c, 12, 59, 100
12, 151229, Control_c, 12, 11, 120
12, 151253, Control_c, 12, 11, 118
12, 151260, Note_on_c, 12, 59, 0
12, 151266, Note_on_c, 12, 71, 100
12, 151277, Control_c, 12, 11, 116
12, 151301, Control_c, 12, 11, 114
12, 151311, Note_on_c, 12, 71, 0
12, 151325, Control_c, 12, 11, 112
12, 151326, Note_on_c, 12, 71, 100
12, 151349, Control_c, 12, 11, 110
12, 151371, Note_on_c, 12, 71, 0
12, 151373, Control_c, 12, 11, 108
12, 151386, Note_on_c, 12, 71, 100
12, 151397, Control_c, 12, 11, 106
12, 151421, Control_c, 12, 11, 104
12, 151431, Note_on_c, 12, 71, 0
12, 151445, Control_c, 12, 11, 102
12, 151446, Note_on_c, 12, 71, 100
12, 151491, Note_on_c, 12, 71, 0
12, 151506, Note_on_c, 12, 71, 100
12, 151551, Note_on_c, 12, 71, 0
12, 151566, Note_on_c, 12, 71, 100
12, 151611, Note_on_c, 12, 71, 0
12, 151626, Note_on_c, 12, 71, 100
12, 151671, Note_on_c, 12, 71, 0
12, 151686, Control_c, 12, 11, 122
12, 151686, Note_on_c, 12, 60, 100
12, 151709, Control_c, 12, 11, 120
12, 151733, Control_c, 12, 11, 118
12, 151740, Note_on_c, 12, 60, 0
12, 151746, Note_on_c, 12, 72, 100
12, 151757, Control_c, 12, 11, 116
12, 151781, Control_c, 12, 11, 114
12, 151791, Note_on_c, 12, 72, 0
12, 151805, Control_c, 12, 11, 112
12, 151806, Note_on_c, 12, 72, 100
12, 151829, Control_c, 12, 11, 110
12, 151851, Note_on_c, 12, 72, 0
12, 151853, Control_c, 12, 11, 108
12, 151866, Note_on_c, 12, 72, 100
12, 151877, Control_c, 12, 11, 106
12, 151901, Control_c, 12, 11, 104
12, 151911, Note_on_c, 12, 72, 0
12, 151925, Control_c, 12, 11, 102
12, 151926, Note_on_c, 12, 72, 100
12, 151971, Note_on_c, 12, 72, 0
12, 151986, Note_on_c, 12, 72, 100
12, 152031, Note_on_c, 12, 72, 0
12, 152046, Note_on_c, 12, 72, 100
12, 152091, Note_on_c, 12, 72, 0
12, 152106, Note_on_c, 12, 72, 100
12, 152151, Note_on_c, 12, 72, 0
12, 152166, Control_c, 12, 11, 122
12, 152166, Note_on_c, 12, 53, 100
12, 152189, Control_c, 12, 11, 120
12, 152213, Control_c, 12, 11, 118
12, 152220, Note_on_c, 12, 53, 0
12, 152226, Note_on_c, 12, 65, 100
12, 152237, Control_c, 12, 11, 116
12, 152261, Control_c, 12, 11, 114
12, 152271, Note_on_c, 12, 65, 0
12, 152285, Control_c, 12, 11, 112
12, 152286, Note_on_c, 12, 65, 100
12, 152309, Control_c, 12, 11, 110
12, 152331, Note_on_c, 12, 65, 0
12, 152333, Control_c, 12, 11, 108
12, 152346, Note_on_c, 12, 65, 100
12, 152357, Control_c, 12, 11, 106
12, 152381, Control_c, 12, 11, 104
12, 152391, Note_on_c, 12, 65, 0
12, 152405, Control_c, 12, 11, 102
12, 152406, Note_on_c, 12, 65, 100
12, 152451, Note_on_c, 12, 65, 0
12, 152466, Note_on_c, 12, 65, 100
12, 152511, Note_on_c, 12, 65, 0
12, 152526, Note_on_c, 12, 65, 100
12, 152571, Note_on_c, 12, 65, 0
12, 152586, Note_on_c, 12, 65, 100
12, 152631, Note_on_c, 12, 65, 0
12, 152646, Control_c, 12, 11, 122
12, 152646, Note_on_c, 12, 55, 100
12, 152669, Control_c, 12, 11, 120
12, 152693, Control_c, 12, 11, 118
12, 152700, Note_on_c, 12, 55, 0
12, 152706, Note_on_c, 12, 67, 100
12, 152717, Control_c, 12, 11, 116
12, 152741, Control_c, 12, 11, 114
12, 152751, Note_on_c, 12, 67, 0
12, 152765, Control_c, 12, 11, 112
12, 152766, Note_on_c, 12, 67, 100
12, 152789, Control_c, 12, 11, 110
12, 152811, Note_on_c, 12, 67, 0
12, 152813, Control_c, 12, 11, 108
12, 152826, Note_on_c, 12, 67, 100
12, 152837, Control_c, 12, 11, 106
12, 152861, Control_c, 12, 11, 104
12, 152871, Note_on_c, 12, 67, 0
12, 152885, Control_c, 12, 11, 102
12, 152886, Note_on_c, 12, 67, 100
12, 152931, Note_on_c, 12, 67, 0
12, 152946, Note_on_c, 12, 67, 100
12, 152991, Note_on_c, 12, 67, 0
12, 153006, Note_on_c, 12, 67, 100
12, 153051, Note_on_c, 12, 67, 0
12, 153066, Note_on_c, 12, 67, 100
12, 153111, Note_on_c, 12, 67, 0
12, 153126, Control_c, 12, 11, 122
12, 153126, Note_on_c, 12, 60, 100
12, 153149, Control_c, 12, 11, 120
12, 153173, Control_c, 12, 11, 118
12, 153180, Note_on_c, 12, 60, 0
12, 153186, Note_on_c, 12, 72, 100
12, 153197, Control_c, 12, 11, 116
12, 153221, Control_c, 12, 11, 114
12, 153231, Note_on_c, 12, 72, 0
12, 153245, Control_c, 12, 11, 112
12, 153246, Note_on_c, 12, 72, 100
12, 153269, Control_c, 12, 11, 110
12, 153291, Note_on_c, 12, 72, 0
12, 153293, Control_c, 12, 11, 108
12, 153306, Note_on_c, 12, 72, 100
12, 153317, Control_c, 12, 11, 106
12, 153341, Control_c, 12, 11, 104
12, 153351, Note_on_c, 12, 72, 0
12, 153365, Control_c, 12, 11, 102
12, 153366, Note_on_c, 12, 72, 100
12, 153411, Note_on_c, 12, 72, 0
12, 153426, Note_on_c, 12, 72, 100
12, 153471, Note_on_c, 12, 72, 0
12, 153486, Note_on_c, 12, 72, 100
12, 153531, Note_on_c, 12, 72, 0
12, 153546, Note_on_c, 12, 72, 100
12, 153591, Note_on_c, 12, 72, 0
12, 153606, Control_c, 12, 11, 122
12, 153606, Note_on_c, 12, 53, 100
12, 153629, Control_c, 12, 11, 120
12, 153653, Control_c, 12, 11, 118
12, 153660, Note_on_c, 12, 53, 0
12, 153666, Note_on_c, 12, 65, 100
12, 153677, Control_c, 12, 11, 116
12, 153701, Control_c, 12, 11, 114
12, 153711, Note_on_c, 12, 65, 0
12, 153725, Control_c, 12, 11, 112
12, 153726, Note_on_c, 12, 65, 100
12, 153749, Control_c, 12, 11, 110
12, 153771, Note_on_c, 12, 65, 0
12, 153773, Control_c, 12, 11, 108
12, 153786, Note_on_c, 12, 65, 100
12, 153797, Control_c, 12, 11, 106
12, 153821, Control_c, 12, 11, 104
12, 153831, Note_on_c, 12, 65, 0
12, 153845, Control_c, 12, 11, 102
12, 153846, Note_on_c, 12, 65, 100
12, 153891, Note_on_c, 12, 65, 0
12, 153906, Note_on_c, 12, 65, 100
12, 153951, Note_on_c, 12, 65, 0
12, 153966, Note_on_c, 12, 65, 100
12, 154011, Note_on_c, 12, 65, 0
12, 154026, Note_on_c, 12, 65, 100
12, 154071, Note_on_c, 12, 65, 0
12, 154086, Control_c, 12, 11, 122
12, 154086, Note_on_c, 12, 55, 100
12, 154109, Control_c, 12, 11, 120
12, 154133, Control_c, 12, 11, 118
12, 154140, Note_on_c, 12, 55, 0
12, 154146, Note_on_c, 12, 67, 100
12, 154157, Control_c, 12, 11, 116
12, 154181, Control_c, 12, 11, 114
12, 154191, Note_on_c, 12, 67, 0
12, 154205, Control_c, 12, 11, 112
12, 154206, Note_on_c, 12, 67, 100
12, 154229, Control_c, 12, 11, 110
12, 154251, Note_on_c, 12, 67, 0
12, 154253, Control_c, 12, 11, 108
12, 154266, Note_on_c, 12, 67, 100
12, 154277, Control_c, 12, 11, 106
12, 154301, Control_c, 12, 11, 104
12, 154311, Note_on_c, 12, 67, 0
12, 154325, Control_c, 12, 11, 102
12, 154326, Note_on_c, 12, 67, 100
12, 154371, Note_on_c, 12, 67, 0
12, 154386, Note_on_c, 12, 67, 100
12, 154431, Note_on_c, 12, 67, 0
12, 154446, Note_on_c, 12, 67, 100
12, 154491, Note_on_c, 12, 67, 0
12, 154506, Note_on_c, 12, 67, 100
12, 154551, Note_on_c, 12, 67, 0
12, 154566, Control_c, 12, 11, 122
12, 154566, Note_on_c, 12, 60, 100
12, 154589, Control_c, 12, 11, 120
12, 154613, Control_c, 12, 11, 118
12, 154620, Note_on_c, 12, 60, 0
12, 154626, Note_on_c, 12, 72, 100
12, 154637, Control_c, 12, 11, 116
12, 154661, Control_c, 12, 11, 114
12, 154671, Note_on_c, 12, 72, 0
12, 154685, Control_c, 12, 11, 112
12, 154686, Note_on_c, 12, 72, 100
12, 154709, Control_c, 12, 11, 110
12, 154731, Note_on_c, 12, 72, 0
12, 154733, Control_c, 12, 11, 108
12, 154746, Note_on_c, 12, 72, 100
12, 154757, Control_c, 12, 11, 106
12, 154781, Control_c, 12, 11, 104
12, 154791, Note_on_c, 12, 72, 0
12, 154805, Control_c, 12, 11, 102
12, 154806, Note_on_c, 12, 72, 100
12, 154851, Note_on_c, 12, 72, 0
12, 154866, Note_on_c, 12, 72, 100
12, 154911, Note_on_c, 12, 72, 0
12, 154926, Note_on_c, 12, 72, 100
12, 154971, Note_on_c, 12, 72, 0
12, 154986, Note_on_c, 12, 72, 100
12, 155031, Note_on_c, 12, 72, 0
12, 155046, Control_c, 12, 11, 122
12, 155046, Note_on_c, 12, 53, 100
12, 155069, Control_c, 12, 11, 120
12, 155093, Control_c, 12, 11, 118
12, 155100, Note_on_c, 12, 53, 0
12, 155106, Note_on_c, 12, 65, 100
12, 155117, Control_c, 12, 11, 116
12, 155141, Control_c, 12, 11, 114
12, 155151, Note_on_c, 12, 65, 0
12, 155165, Control_c, 12, 11, 112
12, 155166, Note_on_c, 12, 65, 100
12, 155189, Control_c, 12, 11, 110
12, 155211, Note_on_c, 12, 65, 0
12, 155213, Control_c, 12, 11, 108
12, 155226, Note_on_c, 12, 65, 100
12, 155237, Control_c, 12, 11, 106
12, 155261, Control_c, 12, 11, 104
12, 155271, Note_on_c, 12, 65, 0
12, 155285, Control_c, 12, 11, 102
12, 155286, Note_on_c, 12, 65, 100
12, 155331, Note_on_c, 12, 65, 0
12, 155346, Note_on_c, 12, 65, 100
12, 155391, Note_on_c, 12, 65, 0
12, 155406, Note_on_c, 12, 65, 100
12, 155451, Note_on_c, 12, 65, 0
12, 155466, Note_on_c, 12, 65, 100
12, 155511, Note_on_c, 12, 65, 0
12, 155526, Control_c, 12, 11, 122
12, 155526, Note_on_c, 12, 55, 100
12, 155549, Control_c, 12, 11, 120
12, 155573, Control_c, 12, 11, 118
12, 155580, Note_on_c, 12, 55, 0
12, 155586, Note_on_c, 12, 67, 100
12, 155597, Control_c, 12, 11, 116
12, 155621, Control_c, 12, 11, 114
12, 155631, Note_on_c, 12, 67, 0
12, 155645, Control_c, 12, 11, 112
12, 155646, Note_on_c, 12, 67, 100
12, 155669, Control_c, 12, 11, 110
12, 155691, Note_on_c, 12, 67, 0
12, 155693, Control_c, 12, 11, 108
12, 155706, Note_on_c, 12, 67, 100
12, 155717, Control_c, 12, 11, 106
12, 155741, Control_c, 12, 11, 104
12, 155751, Note_on_c, 12, 67, 0
12, 155765, Control_c, 12, 11, 102
12, 155766, Note_on_c, 12, 67, 100
12, 155811, Note_on_c, 12, 67, 0
12, 155826, Note_on_c, 12, 67, 100
12, 155871, Note_on_c, 12, 67, 0
12, 155886, Note_on_c, 12, 67, 100
12, 155931, Note_on_c, 12, 67, 0
12, 155946, Note_on_c, 12, 67, 100
12, 155991, Note_on_c, 12, 67, 0
12, 156006, Note_on_c, 12, 67, 100
12, 156051, Note_on_c, 12, 67, 0
12, 156066, Note_on_c, 12, 67, 100
12, 156111, Note_on_c, 12, 67, 0
12, 156126, Note_on_c, 12, 67, 100
12, 156171, Note_on_c, 12, 67, 0
12, 156186, Note_on_c, 12, 67, 100
12, 156231, Note_on_c, 12, 67, 0
12, 156246, Note_on_c, 12, 67, 100
12, 156291, Note_on_c, 12, 67, 0
12, 156306, Note_on_c, 12, 67, 100
12, 156351, Note_on_c, 12, 67, 0
12, 156366, Note_on_c, 12, 67, 100
12, 156411, Note_on_c, 12, 67, 0
12, 156426, Note_on_c, 12, 67, 100
12, 156471, Note_on_c, 12, 67, 0
12, 156486, Note_on_c, 12, 55, 100
12, 156531, Note_on_c, 12, 55, 0
12, 156546, Note_on_c, 12, 55, 100
12, 156591, Note_on_c, 12, 55, 0
12, 156606, Note_on_c, 12, 55, 100
12, 156651, Note_on_c, 12, 55, 0
12, 156666, Note_on_c, 12, 55, 100
12, 156711, Note_on_c, 12, 55, 0
12, 156726, Note_on_c, 12, 55, 100
12, 156771, Note_on_c, 12, 55, 0
12, 156786, Note_on_c, 12, 55, 100
12, 156831, Note_on_c, 12, 55, 0
12, 156846, Note_on_c, 12, 55, 100
12, 156891, Note_on_c, 12, 55, 0
12, 156906, Note_on_c, 12, 55, 100
12, 156951, Note_on_c, 12, 55, 0
12, 156966, Note_on_c, 12, 55, 100
12, 157011, Note_on_c, 12, 55, 0
12, 157026, Note_on_c, 12, 55, 100
12, 157071, Note_on_c, 12, 55, 0
12, 157086, Note_on_c, 12, 55, 100
12, 157131, Note_on_c, 12, 55, 0
12, 157146, Note_on_c, 12, 55, 100
12, 157191, Note_on_c, 12, 55, 0
12, 157206, Note_on_c, 12, 55, 100
12, 157251, Note_on_c, 12, 55, 0
12, 157266, Note_on_c, 12, 55, 100
12, 157311, Note_on_c, 12, 55, 0
12, 157326, Note_on_c, 12, 55, 100
12, 157371, Note_on_c, 12, 55, 0
12, 157386, Note_on_c, 12, 55, 100
12, 157431, Note_on_c, 12, 55, 0
12, 157446, Note_on_c, 12, 48, 100
12, 157551, Note_on_c, 12, 48, 0
12, 157566, Note_on_c, 12, 55, 100
12, 157566, Note_on_c, 12, 52, 100
12, 157611, Note_on_c, 12, 52, 0
12, 157611, Note_on_c, 12, 55, 0
12, 157626, Note_on_c, 12, 52, 100
12, 157626, Note_on_c, 12, 55, 100
12, 157671, Note_on_c, 12, 55, 0
12, 157671, Note_on_c, 12, 52, 0
12, 157686, Note_on_c, 12, 52, 100
12, 157686, Note_on_c, 12, 48, 100
12, 157731, Note_on_c, 12, 48, 0
12, 157731, Note_on_c, 12, 52, 0
12, 157746, Note_on_c, 12, 48, 100
12, 157746, Note_on_c, 12, 52, 100
12, 157791, Note_on_c, 12, 52, 0
12, 157791, Note_on_c, 12, 48, 0
12, 157806, Note_on_c, 12, 55, 100
12, 157806, Note_on_c, 12, 52, 100
12, 157851, Note_on_c, 12, 52, 0
12, 157851, Note_on_c, 12, 55, 0
12, 157866, Note_on_c, 12, 52, 100
12, 157866, Note_on_c, 12, 55, 100
12, 157911, Note_on_c, 12, 55, 0
12, 157911, Note_on_c, 12, 52, 0
12, 157926, Note_on_c, 12, 52, 100
12, 157926, Note_on_c, 12, 48, 100
12, 157971, Note_on_c, 12, 48, 0
12, 157971, Note_on_c, 12, 52, 0
12, 157986, Note_on_c, 12, 48, 100
12, 157986, Note_on_c, 12, 52, 100
12, 158031, Note_on_c, 12, 52, 0
12, 158031, Note_on_c, 12, 48, 0
12, 158046, Note_on_c, 12, 52, 100
12, 158046, Note_on_c, 12, 55, 100
12, 158091, Note_on_c, 12, 55, 0
12, 158091, Note_on_c, 12, 52, 0
12, 158106, Note_on_c, 12, 55, 100
12, 158106, Note_on_c, 12, 52, 100
12, 158151, Note_on_c, 12, 52, 0
12, 158151, Note_on_c, 12, 55, 0
12, 158166, Note_on_c, 12, 48, 100
12, 158166, Note_on_c, 12, 52, 100
12, 158211, Note_on_c, 12, 52, 0
12, 158211, Note_on_c, 12, 48, 0
12, 158226, Note_on_c, 12, 48, 100
12, 158226, Note_on_c, 12, 52, 100
12, 158271, Note_on_c, 12, 52, 0
12, 158271, Note_on_c, 12, 48, 0
12, 158286, Note_on_c, 12, 52, 100
12, 158286, Note_on_c, 12, 55, 100
12, 158331, Note_on_c, 12, 55, 0
12, 158331, Note_on_c, 12, 52, 0
12, 158346, Note_on_c, 12, 55, 100
12, 158346, Note_on_c, 12, 52, 100
12, 158391, Note_on_c, 12, 52, 0
12, 158391, Note_on_c, 12, 55, 0
12, 158406, Note_on_c, 12, 53, 100
12, 158406, Note_on_c, 12, 50, 100
12, 158451, Note_on_c, 12, 50, 0
12, 158451, Note_on_c, 12, 53, 0
12, 158466, Note_on_c, 12, 53, 100
12, 158466, Note_on_c, 12, 50, 100
12, 158511, Note_on_c, 12, 50, 0
12, 158511, Note_on_c, 12, 53, 0
12, 158526, Note_on_c, 12, 55, 100
12, 158526, Note_on_c, 12, 53, 100
12, 158571, Note_on_c, 12, 53, 0
12, 158571, Note_on_c, 12, 55, 0
12, 158586, Note_on_c, 12, 55, 100
12, 158586, Note_on_c, 12, 53, 100
12, 158631, Note_on_c, 12, 53, 0
12, 158631, Note_on_c, 12, 55, 0
12, 158646, Note_on_c, 12, 53, 100
12, 158646, Note_on_c, 12, 50, 100
12, 158691, Note_on_c, 12, 50, 0
12, 158691, Note_on_c, 12, 53, 0
12, 158706, Note_on_c, 12, 50, 100
12, 158706, Note_on_c, 12, 53, 100
12, 158751, Note_on_c, 12, 53, 0
12, 158751, Note_on_c, 12, 50, 0
12, 158766, Note_on_c, 12, 55, 100
12, 158766, Note_on_c, 12, 53, 100
12, 158811, Note_on_c, 12, 53, 0
12, 158811, Note_on_c, 12, 55, 0
12, 158826, Note_on_c, 12, 53, 100
12, 158826, Note_on_c, 12, 55, 100
12, 158871, Note_on_c, 12, 55, 0
12, 158871, Note_on_c, 12, 53, 0
12, 158886, Note_on_c, 12, 50, 100
12, 158886, Note_on_c, 12, 53, 100
12, 158931, Note_on_c, 12, 53, 0
12, 158931, Note_on_c, 12, 50, 0
12, 158946, Note_on_c, 12, 50, 100
12, 158946, Note_on_c, 12, 53, 100
12, 158991, Note_on_c, 12, 53, 0
12, 158991, Note_on_c, 12, 50, 0
12, 159006, Note_on_c, 12, 55, 100
12, 159006, Note_on_c, 12, 53, 100
12, 159051, Note_on_c, 12, 53, 0
12, 159051, Note_on_c, 12, 55, 0
12, 159066, Note_on_c, 12, 55, 100
12, 159066, Note_on_c, 12, 53, 100
12, 159111, Note_on_c, 12, 53, 0
12, 159111, Note_on_c, 12, 55, 0
12, 159126, Note_on_c, 12, 53, 100
12, 159126, Note_on_c, 12, 50, 100
12, 159171, Note_on_c, 12, 50, 0
12, 159171, Note_on_c, 12, 53, 0
12, 159186, Note_on_c, 12, 50, 100
12, 159186, Note_on_c, 12, 53, 100
12, 159231, Note_on_c, 12, 53, 0
12, 159231, Note_on_c, 12, 50, 0
12, 159246, Note_on_c, 12, 53, 100
12, 159246, Note_on_c, 12, 55, 100
12, 159291, Note_on_c, 12, 55, 0
12, 159291, Note_on_c, 12, 53, 0
12, 159306, Note_on_c, 12, 53, 100
12, 159306, Note_on_c, 12, 55, 100
12, 159351, Note_on_c, 12, 55, 0
12, 159351, Note_on_c, 12, 53, 0
12, 159366, Note_on_c, 12, 52, 100
12, 159366, Note_on_c, 12, 60, 100
12, 159411, Note_on_c, 12, 60, 0
12, 159411, Note_on_c, 12, 52, 0
12, 159426, Note_on_c, 12, 52, 100
12, 159426, Note_on_c, 12, 60, 100
12, 159471, Note_on_c, 12, 60, 0
12, 159471, Note_on_c, 12, 52, 0
12, 159486, Note_on_c, 12, 52, 100
12, 159486, Note_on_c, 12, 55, 100
12, 159531, Note_on_c, 12, 55, 0
12, 159531, Note_on_c, 12, 52, 0
12, 159546, Note_on_c, 12, 55, 100
12, 159546, Note_on_c, 12, 52, 100
12, 159591, Note_on_c, 12, 52, 0
12, 159591, Note_on_c, 12, 55, 0
12, 159606, Note_on_c, 12, 48, 100
12, 159606, Note_on_c, 12, 52, 100
12, 159651, Note_on_c, 12, 52, 0
12, 159651, Note_on_c, 12, 48, 0
12, 159666, Note_on_c, 12, 48, 100
12, 159666, Note_on_c, 12, 52, 100
12, 159711, Note_on_c, 12, 52, 0
12, 159711, Note_on_c, 12, 48, 0
12, 159726, Note_on_c, 12, 55, 100
12, 159726, Note_on_c, 12, 52, 100
12, 159771, Note_on_c, 12, 52, 0
12, 159771, Note_on_c, 12, 55, 0
12, 159786, Note_on_c, 12, 55, 100
12, 159786, Note_on_c, 12, 52, 100
12, 159831, Note_on_c, 12, 52, 0
12, 159831, Note_on_c, 12, 55, 0
12, 159846, Note_on_c, 12, 52, 100
12, 159846, Note_on_c, 12, 48, 100
12, 159891, Note_on_c, 12, 48, 0
12, 159891, Note_on_c, 12, 52, 0
12, 159906, Note_on_c, 12, 52, 100
12, 159906, Note_on_c, 12, 48, 100
12, 159951, Note_on_c, 12, 48, 0
12, 159951, Note_on_c, 12, 52, 0
12, 159966, Note_on_c, 12, 52, 100
12, 159966, Note_on_c, 12, 55, 100
12, 160011, Note_on_c, 12, 55, 0
12, 160011, Note_on_c, 12, 52, 0
12, 160026, Note_on_c, 12, 52, 100
12, 160026, Note_on_c, 12, 55, 100
12, 160071, Note_on_c, 12, 55, 0
12, 160071, Note_on_c, 12, 52, 0
12, 160086, Note_on_c, 12, 52, 100
12, 160086, Note_on_c, 12, 48, 100
12, 160131, Note_on_c, 12, 48, 0
12, 160131, Note_on_c, 12, 52, 0
12, 160146, Note_on_c, 12, 52, 100
12, 160146, Note_on_c, 12, 48, 100
12, 160191, Note_on_c, 12, 48, 0
12, 160191, Note_on_c, 12, 52, 0
12, 160206, Note_on_c, 12, 55, 100
12, 160206, Note_on_c, 12, 52, 100
12, 160251, Note_on_c, 12, 52, 0
12, 160251, Note_on_c, 12, 55, 0
12, 160266, Note_on_c, 12, 52, 100
12, 160266, Note_on_c, 12, 55, 100
12, 160311, Note_on_c, 12, 55, 0
12, 160311, Note_on_c, 12, 52, 0
12, 160326, Note_on_c, 12, 53, 100
12, 160326, Note_on_c, 12, 50, 100
12, 160371, Note_on_c, 12, 50, 0
12, 160371, Note_on_c, 12, 53, 0
12, 160386, Note_on_c, 12, 50, 100
12, 160386, Note_on_c, 12, 53, 100
12, 160431, Note_on_c, 12, 53, 0
12, 160431, Note_on_c, 12, 50, 0
12, 160446, Note_on_c, 12, 55, 100
12, 160446, Note_on_c, 12, 53, 100
12, 160491, Note_on_c, 12, 53, 0
12, 160491, Note_on_c, 12, 55, 0
12, 160506, Note_on_c, 12, 53, 100
12, 160506, Note_on_c, 12, 55, 100
12, 160551, Note_on_c, 12, 55, 0
12, 160551, Note_on_c, 12, 53, 0
12, 160566, Note_on_c, 12, 50, 100
12, 160566, Note_on_c, 12, 53, 100
12, 160611, Note_on_c, 12, 53, 0
12, 160611, Note_on_c, 12, 50, 0
12, 160626, Note_on_c, 12, 53, 100
12, 160626, Note_on_c, 12, 50, 100
12, 160671, Note_on_c, 12, 50, 0
12, 160671, Note_on_c, 12, 53, 0
12, 160686, Note_on_c, 12, 55, 100
12, 160686, Note_on_c, 12, 53, 100
12, 160731, Note_on_c, 12, 53, 0
12, 160731, Note_on_c, 12, 55, 0
12, 160746, Note_on_c, 12, 55, 100
12, 160746, Note_on_c, 12, 53, 100
12, 160791, Note_on_c, 12, 53, 0
12, 160791, Note_on_c, 12, 55, 0
12, 160806, Note_on_c, 12, 50, 100
12, 160806, Note_on_c, 12, 53, 100
12, 160851, Note_on_c, 12, 53, 0
12, 160851, Note_on_c, 12, 50, 0
12, 160866, Note_on_c, 12, 53, 100
12, 160866, Note_on_c, 12, 50, 100
12, 160911, Note_on_c, 12, 50, 0
12, 160911, Note_on_c, 12, 53, 0
12, 160926, Note_on_c, 12, 55, 100
12, 160926, Note_on_c, 12, 53, 100
12, 160971, Note_on_c, 12, 53, 0
12, 160971, Note_on_c, 12, 55, 0
12, 160986, Note_on_c, 12, 53, 100
12, 160986, Note_on_c, 12, 55, 100
12, 161031, Note_on_c, 12, 55, 0
12, 161031, Note_on_c, 12, 53, 0
12, 161046, Note_on_c, 12, 53, 100
12, 161046, Note_on_c, 12, 50, 100
12, 161091, Note_on_c, 12, 50, 0
12, 161091, Note_on_c, 12, 53, 0
12, 161106, Note_on_c, 12, 53, 100
12, 161106, Note_on_c, 12, 50, 100
12, 161151, Note_on_c, 12, 50, 0
12, 161151, Note_on_c, 12, 53, 0
12, 161166, Note_on_c, 12, 55, 100
12, 161166, Note_on_c, 12, 53, 100
12, 161211, Note_on_c, 12, 53, 0
12, 161211, Note_on_c, 12, 55, 0
12, 161226, Note_on_c, 12, 55, 100
12, 161226, Note_on_c, 12, 53, 100
12, 161271, Note_on_c, 12, 53, 0
12, 161271, Note_on_c, 12, 55, 0
12, 161286, Note_on_c, 12, 60, 100
12, 161286, Note_on_c, 12, 52, 100
12, 161331, Note_on_c, 12, 52, 0
12, 161331, Note_on_c, 12, 60, 0
12, 161346, Note_on_c, 12, 52, 100
12, 161346, Note_on_c, 12, 60, 100
12, 161391, Note_on_c, 12, 60, 0
12, 161391, Note_on_c, 12, 52, 0
12, 161406, Note_on_c, 12, 55, 100
12, 161406, Note_on_c, 12, 52, 100
12, 161451, Note_on_c, 12, 52, 0
12, 161451, Note_on_c, 12, 55, 0
12, 161466, Note_on_c, 12, 55, 100
12, 161466, Note_on_c, 12, 52, 100
12, 161511, Note_on_c, 12, 52, 0
12, 161511, Note_on_c, 12, 55, 0
12, 161526, Note_on_c, 12, 48, 100
12, 161526, Note_on_c, 12, 52, 100
12, 161571, Note_on_c, 12, 52, 0
12, 161571, Note_on_c, 12, 48, 0
12, 161586, Note_on_c, 12, 52, 100
12, 161586, Note_on_c, 12, 48, 100
12, 161631, Note_on_c, 12, 48, 0
12, 161631, Note_on_c, 12, 52, 0
12, 161646, Note_on_c, 12, 52, 100
12, 161646, Note_on_c, 12, 55, 100
12, 161691, Note_on_c, 12, 55, 0
12, 161691, Note_on_c, 12, 52, 0
12, 161706, Note_on_c, 12, 55, 100
12, 161706, Note_on_c, 12, 52, 100
12, 161751, Note_on_c, 12, 52, 0
12, 161751, Note_on_c, 12, 55, 0
12, 161766, Note_on_c, 12, 48, 100
12, 161766, Note_on_c, 12, 52, 100
12, 161811, Note_on_c, 12, 52, 0
12, 161811, Note_on_c, 12, 48, 0
12, 161826, Note_on_c, 12, 48, 100
12, 161826, Note_on_c, 12, 52, 100
12, 161871, Note_on_c, 12, 52, 0
12, 161871, Note_on_c, 12, 48, 0
12, 161886, Note_on_c, 12, 52, 100
12, 161886, Note_on_c, 12, 55, 100
12, 161931, Note_on_c, 12, 55, 0
12, 161931, Note_on_c, 12, 52, 0
12, 161946, Note_on_c, 12, 52, 100
12, 161946, Note_on_c, 12, 55, 100
12, 161991, Note_on_c, 12, 55, 0
12, 161991, Note_on_c, 12, 52, 0
12, 162006, Note_on_c, 12, 52, 100
12, 162006, Note_on_c, 12, 48, 100
12, 162051, Note_on_c, 12, 48, 0
12, 162051, Note_on_c, 12, 52, 0
12, 162066, Note_on_c, 12, 48, 100
12, 162066, Note_on_c, 12, 52, 100
12, 162111, Note_on_c, 12, 52, 0
12, 162111, Note_on_c, 12, 48, 0
12, 162126, Note_on_c, 12, 52, 100
12, 162126, Note_on_c, 12, 55, 100
12, 162171, Note_on_c, 12, 55, 0
12, 162171, Note_on_c, 12, 52, 0
12, 162186, Note_on_c, 12, 52, 100
12, 162186, Note_on_c, 12, 55, 100
12, 162231, Note_on_c, 12, 55, 0
12, 162231, Note_on_c, 12, 52, 0
12, 162246, Note_on_c, 12, 53, 100
12, 162246, Note_on_c, 12, 50, 100
12, 162291, Note_on_c, 12, 50, 0
12, 162291, Note_on_c, 12, 53, 0
12, 162306, Note_on_c, 12, 53, 100
12, 162306, Note_on_c, 12, 50, 100
12, 162351, Note_on_c, 12, 50, 0
12, 162351, Note_on_c, 12, 53, 0
12, 162366, Note_on_c, 12, 55, 100
12, 162366, Note_on_c, 12, 53, 100
12, 162411, Note_on_c, 12, 53, 0
12, 162411, Note_on_c, 12, 55, 0
12, 162426, Note_on_c, 12, 55, 100
12, 162426, Note_on_c, 12, 53, 100
12, 162471, Note_on_c, 12, 53, 0
12, 162471, Note_on_c, 12, 55, 0
12, 162486, Note_on_c, 12, 53, 100
12, 162486, Note_on_c, 12, 50, 100
12, 162531, Note_on_c, 12, 50, 0
12, 162531, Note_on_c, 12, 53, 0
12, 162546, Note_on_c, 12, 53, 100
12, 162546, Note_on_c, 12, 50, 100
12, 162591, Note_on_c, 12, 50, 0
12, 162591, Note_on_c, 12, 53, 0
12, 162606, Note_on_c, 12, 55, 100
12, 162606, Note_on_c, 12, 53, 100
12, 162651, Note_on_c, 12, 53, 0
12, 162651, Note_on_c, 12, 55, 0
12, 162666, Note_on_c, 12, 53, 100
12, 162666, Note_on_c, 12, 55, 100
12, 162711, Note_on_c, 12, 55, 0
12, 162711, Note_on_c, 12, 53, 0
12, 162726, Note_on_c, 12, 50, 100
12, 162726, Note_on_c, 12, 53, 100
12, 162771, Note_on_c, 12, 53, 0
12, 162771, Note_on_c, 12, 50, 0
12, 162786, Note_on_c, 12, 50, 100
12, 162786, Note_on_c, 12, 53, 100
12, 162831, Note_on_c, 12, 53, 0
12, 162831, Note_on_c, 12, 50, 0
12, 162846, Note_on_c, 12, 53, 100
12, 162846, Note_on_c, 12, 55, 100
12, 162891, Note_on_c, 12, 55, 0
12, 162891, Note_on_c, 12, 53, 0
12, 162906, Note_on_c, 12, 53, 100
12, 162906, Note_on_c, 12, 55, 100
12, 162951, Note_on_c, 12, 55, 0
12, 162951, Note_on_c, 12, 53, 0
12, 162966, Note_on_c, 12, 53, 100
12, 162966, Note_on_c, 12, 50, 100
12, 163011, Note_on_c, 12, 50, 0
12, 163011, Note_on_c, 12, 53, 0
12, 163026, Note_on_c, 12, 53, 100
12, 163026, Note_on_c, 12, 50, 100
12, 163071, Note_on_c, 12, 50, 0
12, 163071, Note_on_c, 12, 53, 0
12, 163086, Note_on_c, 12, 55, 100
12, 163086, Note_on_c, 12, 53, 100
12, 163131, Note_on_c, 12, 53, 0
12, 163131, Note_on_c, 12, 55, 0
12, 163146, Note_on_c, 12, 55, 100
12, 163146, Note_on_c, 12, 53, 100
12, 163191, Note_on_c, 12, 53, 0
12, 163191, Note_on_c, 12, 55, 0
12, 163206, Note_on_c, 12, 52, 100
12, 163206, Note_on_c, 12, 48, 100
12, 163251, Note_on_c, 12, 48, 0
12, 163251, Note_on_c, 12, 52, 0
12, 163266, Note_on_c, 12, 52, 100
12, 163266, Note_on_c, 12, 48, 100
12, 163311, Note_on_c, 12, 48, 0
12, 163311, Note_on_c, 12, 52, 0
12, 163326, Note_on_c, 12, 55, 100
12, 163326, Note_on_c, 12, 52, 100
12, 163371, Note_on_c, 12, 52, 0
12, 163371, Note_on_c, 12, 55, 0
12, 163386, Note_on_c, 12, 52, 100
12, 163386, Note_on_c, 12, 55, 100
12, 163431, Note_on_c, 12, 55, 0
12, 163431, Note_on_c, 12, 52, 0
12, 163446, Note_on_c, 12, 48, 100
12, 163446, Note_on_c, 12, 52, 100
12, 163491, Note_on_c, 12, 52, 0
12, 163491, Note_on_c, 12, 48, 0
12, 163506, Note_on_c, 12, 52, 100
12, 163506, Note_on_c, 12, 48, 100
12, 163551, Note_on_c, 12, 48, 0
12, 163551, Note_on_c, 12, 52, 0
12, 163566, Note_on_c, 12, 55, 100
12, 163566, Note_on_c, 12, 52, 100
12, 163611, Note_on_c, 12, 52, 0
12, 163611, Note_on_c, 12, 55, 0
12, 163626, Note_on_c, 12, 55, 100
12, 163626, Note_on_c, 12, 52, 100
12, 163671, Note_on_c, 12, 52, 0
12, 163671, Note_on_c, 12, 55, 0
12, 163686, Note_on_c, 12, 48, 100
12, 163686, Note_on_c, 12, 52, 100
12, 163731, Note_on_c, 12, 52, 0
12, 163731, Note_on_c, 12, 48, 0
12, 163746, Note_on_c, 12, 48, 100
12, 163746, Note_on_c, 12, 52, 100
12, 163791, Note_on_c, 12, 52, 0
12, 163791, Note_on_c, 12, 48, 0
12, 163806, Note_on_c, 12, 55, 100
12, 163806, Note_on_c, 12, 52, 100
12, 163851, Note_on_c, 12, 52, 0
12, 163851, Note_on_c, 12, 55, 0
12, 163866, Note_on_c, 12, 55, 100
12, 163866, Note_on_c, 12, 52, 100
12, 163911, Note_on_c, 12, 52, 0
12, 163911, Note_on_c, 12, 55, 0
12, 163926, Note_on_c, 12, 48, 100
12, 163926, Note_on_c, 12, 52, 100
12, 163971, Note_on_c, 12, 52, 0
12, 163971, Note_on_c, 12, 48, 0
12, 163986, Note_on_c, 12, 48, 100
12, 163986, Note_on_c, 12, 52, 100
12, 164031, Note_on_c, 12, 52, 0
12, 164031, Note_on_c, 12, 48, 0
12, 164046, Note_on_c, 12, 52, 100
12, 164046, Note_on_c, 12, 55, 100
12, 164091, Note_on_c, 12, 55, 0
12, 164091, Note_on_c, 12, 52, 0
12, 164106, Note_on_c, 12, 55, 100
12, 164106, Note_on_c, 12, 52, 100
12, 164151, Note_on_c, 12, 52, 0
12, 164151, Note_on_c, 12, 55, 0
12, 164166, Control_c, 12, 11, 72
12, 164166, Note_on_c, 12, 53, 100
12, 164166, Note_on_c, 12, 50, 100
12, 164169, Control_c, 12, 11, 75
12, 164172, Control_c, 12, 11, 78
12, 164175, Control_c, 12, 11, 81
12, 164178, Control_c, 12, 11, 84
12, 164181, Control_c, 12, 11, 87
12, 164184, Control_c, 12, 11, 90
12, 164187, Control_c, 12, 11, 93
12, 164190, Control_c, 12, 11, 96
12, 164193, Control_c, 12, 11, 99
12, 164196, Control_c, 12, 11, 102
12, 164511, Control_c, 12, 11, 102
12, 164514, Control_c, 12, 11, 99
12, 164517, Control_c, 12, 11, 96
12, 164520, Control_c, 12, 11, 93
12, 164524, Control_c, 12, 11, 90
12, 164527, Control_c, 12, 11, 87
12, 164530, Control_c, 12, 11, 84
12, 164534, Control_c, 12, 11, 81
12, 164537, Control_c, 12, 11, 78
12, 164540, Control_c, 12, 11, 75
12, 164544, Note_on_c, 12, 50, 0
12, 164544, Note_on_c, 12, 53, 0
12, 164544, Control_c, 12, 11, 72
12, 164586, Control_c, 12, 11, 72
12, 164586, Note_on_c, 12, 65, 100
12, 164586, Note_on_c, 12, 62, 100
12, 164595, Control_c, 12, 11, 75
12, 164604, Control_c, 12, 11, 78
12, 164613, Control_c, 12, 11, 81
12, 164622, Control_c, 12, 11, 84
12, 164631, Control_c, 12, 11, 87
12, 164640, Control_c, 12, 11, 90
12, 164646, Note_on_c, 12, 62, 0
12, 164646, Note_on_c, 12, 65, 0
12, 164646, Note_on_c, 12, 59, 100
12, 164646, Note_on_c, 12, 62, 100
12, 164766, Note_on_c, 12, 62, 0
12, 164766, Note_on_c, 12, 59, 0
12, 165066, Note_on_c, 12, 62, 100
12, 165066, Note_on_c, 12, 65, 100
12, 165126, Note_on_c, 12, 65, 0
12, 165126, Note_on_c, 12, 62, 0
12, 165126, Note_on_c, 12, 59, 100
12, 165126, Note_on_c, 12, 62, 100
12, 165246, Note_on_c, 12, 62, 0
12, 165246, Note_on_c, 12, 59, 0
12, 165546, Note_on_c, 12, 62, 100
12, 165546, Note_on_c, 12, 65, 100
12, 165606, Note_on_c, 12, 65, 0
12, 165606, Note_on_c, 12, 62, 0
12, 165606, Note_on_c, 12, 59, 100
12, 165606, Note_on_c, 12, 62, 100
12, 165726, Note_on_c, 12, 62, 0
12, 165726, Note_on_c, 12, 59, 0
12, 165786, Note_on_c, 12, 65, 100
12, 165786, Note_on_c, 12, 62, 100
12, 165846, Note_on_c, 12, 62, 0
12, 165846, Note_on_c, 12, 65, 0
12, 165846, Note_on_c, 12, 59, 100
12, 165846, Note_on_c, 12, 62, 100
12, 165966, Note_on_c, 12, 62, 0
12, 165966, Note_on_c, 12, 59, 0
12, 166026, Note_on_c, 12, 62, 100
12, 166026, Note_on_c, 12, 65, 100
12, 166086, Note_on_c, 12, 65, 0
12, 166086, Note_on_c, 12, 62, 0
12, 166086, Note_on_c, 12, 62, 100
12, 166086, Note_on_c, 12, 59, 100
12, 166206, Note_on_c, 12, 59, 0
12, 166206, Note_on_c, 12, 62, 0
12, 166266, Note_on_c, 12, 62, 100
12, 166266, Note_on_c, 12, 65, 100
12, 166326, Note_on_c, 12, 65, 0
12, 166326, Note_on_c, 12, 62, 0
12, 166326, Note_on_c, 12, 62, 100
12, 166326, Note_on_c, 12, 59, 100
12, 166446, Note_on_c, 12, 59, 0
12, 166446, Note_on_c, 12, 62, 0
12, 166506, Note_on_c, 12, 60, 100
12, 166566, Note_on_c, 12, 60, 0
12, 166566, Note_on_c, 12, 64, 100
12, 166686, Note_on_c, 12, 64, 0
12, 166746, Note_on_c, 12, 64, 100
12, 166806, Note_on_c, 12, 64, 0
12, 166806, Note_on_c, 12, 67, 100
12, 166926, Note_on_c, 12, 67, 0
12, 166986, Note_on_c, 12, 67, 100
12, 167046, Note_on_c, 12, 67, 0
12, 167046, Control_c, 12, 11, 92
12, 167046, Note_on_c, 12, 64, 100
12, 167062, Control_c, 12, 11, 89
12, 167078, Control_c, 12, 11, 86
12, 167094, Control_c, 12, 11, 83
12, 167110, Control_c, 12, 11, 80
12, 167126, Control_c, 12, 11, 77
12, 167142, Control_c, 12, 11, 74
12, 167158, Control_c, 12, 11, 71
12, 167174, Control_c, 12, 11, 68
12, 167190, Control_c, 12, 11, 65
12, 167206, Control_c, 12, 11, 62
12, 167222, Control_c, 12, 11, 59
12, 167238, Control_c, 12, 11, 56
12, 167254, Control_c, 12, 11, 53
12, 167270, Control_c, 12, 11, 50
12, 167286, Control_c, 12, 11, 47
12, 167871, Note_on_c, 12, 64, 0
12, 167886, Note_on_c, 12, 65, 100
12, 167991, Note_on_c, 12, 65, 0
12, 168006, Control_c, 12, 11, 47
12, 168006, Note_on_c, 12, 64, 100
12, 168118, Control_c, 12, 11, 46
12, 168231, Control_c, 12, 11, 45
12, 168246, Note_on_c, 12, 64, 0
12, 168246, Note_on_c, 12, 65, 100
12, 168344, Control_c, 12, 11, 44
12, 168457, Control_c, 12, 11, 43
12, 168486, Note_on_c, 12, 65, 0
12, 168486, Note_on_c, 12, 64, 100
12, 168570, Control_c, 12, 11, 42
12, 168683, Control_c, 12, 11, 41
12, 168726, Note_on_c, 12, 64, 0
12, 168726, Note_on_c, 12, 65, 100
12, 168796, Control_c, 12, 11, 40
12, 168909, Control_c, 12, 11, 39
12, 168966, Note_on_c, 12, 65, 0
12, 168966, Note_on_c, 12, 64, 100
12, 169022, Control_c, 12, 11, 38
12, 169135, Control_c, 12, 11, 37
12, 169206, Note_on_c, 12, 64, 0
12, 169206, Note_on_c, 12, 65, 100
12, 169248, Control_c, 12, 11, 36
12, 169361, Control_c, 12, 11, 35
12, 169446, Note_on_c, 12, 65, 0
12, 169446, Note_on_c, 12, 64, 100
12, 169474, Control_c, 12, 11, 34
12, 169587, Control_c, 12, 11, 33
12, 169686, Note_on_c, 12, 64, 0
12, 169686, Note_on_c, 12, 65, 100
12, 169700, Control_c, 12, 11, 32
12, 169813, Control_c, 12, 11, 31
12, 169911, Note_on_c, 12, 65, 0
12, 169926, Control_c, 12, 11, 30
12, 169926, Note_on_c, 12, 64, 82
12, 170106, Control_c, 12, 11, 30
12, 170126, Control_c, 12, 11, 29
12, 170146, Control_c, 12, 11, 28
12, 170166, Control_c, 12, 11, 27
12, 170186, Control_c, 12, 11, 26
12, 170206, Control_c, 12, 11, 25
12, 170226, Control_c, 12, 11, 24
12, 170246, Control_c, 12, 11, 23
12, 170266, Control_c, 12, 11, 22
12, 170286, Control_c, 12, 11, 21
12, 170302, Control_c, 12, 11, 18
12, 170318, Control_c, 12, 11, 15
12, 170335, Control_c, 12, 11, 12
12, 170346, Note_on_c, 12, 64, 0
12, 170406, Control_c, 12, 11, 102
12, 170406, Note_on_c, 12, 72, 117
12, 170526, Note_on_c, 12, 72, 0
12, 171366, Note_on_c, 12, 64, 117
12, 171366, Note_on_c, 12, 72, 117
12, 171366, Note_on_c, 12, 60, 117
12, 171486, Note_on_c, 12, 60, 0
12, 171486, Note_on_c, 12, 72, 0
12, 171486, Note_on_c, 12, 64, 0
12, 171846, Note_on_c, 12, 48, 117
12, 171846, Note_on_c, 12, 60, 117
12, 171966, Note_on_c, 12, 60, 0
12, 171966, Note_on_c, 12, 48, 0
12, 172326, Control_c, 12, 11, 112
12, 172326, Note_on_c, 12, 48, 117
12, 172326, Note_on_c, 12, 60, 117
12, 172446, Note_on_c, 12, 60, 0
12, 172446, Note_on_c, 12, 48, 0
12, 172806, Control_c, 12, 121, 0
12, 172806, End_track
13, 0, Start_track
13, 0, MIDI_port, 0
13, 0, Title_t, "Violoncelle"
13, 0, Program_c, 13, 48
13, 0, Control_c, 13, 10, 100
13, 10, Control_c, 13, 121, 0
13, 15, Program_c, 13, 48
13, 20, Pitch_bend_c, 13, 7892
13, 25, Control_c, 13, 11, 102
13, 30, Control_c, 13, 7, 127
13, 35, Control_c, 13, 91, 51
13, 40, Control_c, 13, 93, 0
13, 45, Control_c, 13, 1, 36
13, 490, Control_c, 13, 11, 62
13, 490, Note_on_c, 13, 43, 118
13, 494, Control_c, 13, 11, 66
13, 498, Control_c, 13, 11, 69
13, 502, Control_c, 13, 11, 73
13, 506, Control_c, 13, 11, 76
13, 510, Control_c, 13, 11, 80
13, 514, Control_c, 13, 11, 83
13, 518, Control_c, 13, 11, 87
13, 522, Control_c, 13, 11, 90
13, 526, Control_c, 13, 11, 94
13, 530, Control_c, 13, 11, 97
13, 545, Control_c, 13, 11, 94
13, 561, Control_c, 13, 11, 91
13, 577, Control_c, 13, 11, 88
13, 593, Control_c, 13, 11, 85
13, 609, Control_c, 13, 11, 82
13, 625, Control_c, 13, 11, 79
13, 641, Control_c, 13, 11, 76
13, 657, Control_c, 13, 11, 73
13, 673, Control_c, 13, 11, 70
13, 689, Control_c, 13, 11, 67
13, 705, Control_c, 13, 11, 64
13, 720, Control_c, 13, 11, 61
13, 736, Control_c, 13, 11, 58
13, 752, Control_c, 13, 11, 55
13, 768, Control_c, 13, 11, 52
13, 784, Control_c, 13, 11, 49
13, 796, Control_c, 13, 11, 46
13, 800, Control_c, 13, 11, 43
13, 804, Control_c, 13, 11, 40
13, 808, Control_c, 13, 11, 37
13, 811, Control_c, 13, 11, 34
13, 815, Note_on_c, 13, 43, 0
13, 815, Control_c, 13, 11, 31
13, 819, Control_c, 13, 11, 28
13, 3850, Control_c, 13, 11, 67
13, 3850, Note_on_c, 13, 43, 98
13, 3854, Control_c, 13, 11, 70
13, 3859, Control_c, 13, 11, 73
13, 3863, Control_c, 13, 11, 76
13, 3868, Control_c, 13, 11, 79
13, 3872, Control_c, 13, 11, 82
13, 3877, Control_c, 13, 11, 85
13, 3892, Control_c, 13, 11, 85
13, 3911, Control_c, 13, 11, 82
13, 3929, Control_c, 13, 11, 79
13, 3948, Control_c, 13, 11, 76
13, 3966, Control_c, 13, 11, 73
13, 3985, Control_c, 13, 11, 70
13, 4004, Control_c, 13, 11, 67
13, 4022, Control_c, 13, 11, 64
13, 4041, Control_c, 13, 11, 61
13, 4060, Control_c, 13, 11, 58
13, 4078, Control_c, 13, 11, 55
13, 4097, Control_c, 13, 11, 52
13, 4115, Control_c, 13, 11, 49
13, 4134, Control_c, 13, 11, 46
13, 4153, Control_c, 13, 11, 43
13, 4164, Control_c, 13, 11, 40
13, 4172, Control_c, 13, 11, 37
13, 4179, Control_c, 13, 11, 34
13, 4180, Note_on_c, 13, 43, 0
13, 4210, Control_c, 13, 11, 17
13, 4210, Note_on_c, 13, 53, 78
13, 4216, Control_c, 13, 11, 20
13, 4222, Control_c, 13, 11, 23
13, 4228, Control_c, 13, 11, 26
13, 4234, Control_c, 13, 11, 29
13, 4240, Control_c, 13, 11, 32
13, 4246, Control_c, 13, 11, 35
13, 4266, Control_c, 13, 11, 39
13, 4282, Control_c, 13, 11, 41
13, 4298, Control_c, 13, 11, 43
13, 4314, Control_c, 13, 11, 45
13, 4330, Note_on_c, 13, 53, 0
13, 4330, Note_on_c, 13, 52, 88
13, 4450, Note_on_c, 13, 52, 0
13, 4450, Note_on_c, 13, 50, 98
13, 4570, Note_on_c, 13, 50, 0
13, 4570, Note_on_c, 13, 48, 98
13, 4690, Note_on_c, 13, 48, 0
13, 4690, Note_on_c, 13, 47, 98
13, 4750, Note_on_c, 13, 47, 0
13, 4750, Note_on_c, 13, 48, 98
13, 4810, Note_on_c, 13, 48, 0
13, 4810, Note_on_c, 13, 50, 98
13, 5050, Control_c, 13, 11, 46
13, 5067, Control_c, 13, 11, 43
13, 5085, Control_c, 13, 11, 40
13, 5103, Control_c, 13, 11, 37
13, 5120, Control_c, 13, 11, 34
13, 5138, Control_c, 13, 11, 31
13, 5147, Control_c, 13, 11, 28
13, 5150, Note_on_c, 13, 50, 0
13, 5153, Control_c, 13, 11, 25
13, 5158, Control_c, 13, 11, 22
13, 5800, Control_c, 13, 11, 97
13, 5800, Note_on_c, 13, 49, 98
13, 5800, Note_on_c, 13, 40, 98
13, 5920, Control_c, 13, 11, 87
13, 5930, Control_c, 13, 11, 84
13, 5940, Control_c, 13, 11, 81
13, 5950, Note_on_c, 13, 40, 0
13, 5950, Note_on_c, 13, 49, 0
13, 5950, Control_c, 13, 11, 78
13, 5960, Control_c, 13, 11, 75
13, 5970, Control_c, 13, 11, 72
13, 5980, Control_c, 13, 11, 69
13, 5990, Control_c, 13, 11, 66
13, 6000, Control_c, 13, 11, 63
13, 6010, Control_c, 13, 11, 60
13, 6490, Control_c, 13, 11, 42
13, 6490, Note_on_c, 13, 50, 98
13, 6505, Note_on_c, 13, 50, 0
13, 6520, Note_on_c, 13, 49, 98
13, 6535, Note_on_c, 13, 49, 0
13, 6550, Note_on_c, 13, 46, 98
13, 6565, Note_on_c, 13, 46, 0
13, 6580, Note_on_c, 13, 45, 98
13, 6595, Note_on_c, 13, 45, 0
13, 6610, Note_on_c, 13, 43, 98
13, 6625, Note_on_c, 13, 43, 0
13, 6640, Note_on_c, 13, 41, 98
13, 6655, Note_on_c, 13, 41, 0
13, 6670, Note_on_c, 13, 40, 98
13, 6685, Note_on_c, 13, 40, 0
13, 6700, Note_on_c, 13, 38, 98
13, 6715, Note_on_c, 13, 38, 0
13, 6730, Note_on_c, 13, 37, 98
13, 6745, Note_on_c, 13, 37, 0
13, 6760, Note_on_c, 13, 45, 98
13, 6790, Note_on_c, 13, 45, 0
13, 6790, Note_on_c, 13, 40, 98
13, 6810, Note_on_c, 13, 40, 0
13, 6820, Note_on_c, 13, 49, 98
13, 6850, Note_on_c, 13, 49, 0
13, 6850, Note_on_c, 13, 45, 98
13, 6870, Note_on_c, 13, 45, 0
13, 7720, Control_c, 13, 11, 87
13, 7720, Note_on_c, 13, 42, 98
13, 7840, Control_c, 13, 11, 87
13, 7843, Control_c, 13, 11, 84
13, 7846, Control_c, 13, 11, 81
13, 7850, Control_c, 13, 11, 78
13, 7853, Control_c, 13, 11, 75
13, 7856, Control_c, 13, 11, 72
13, 7860, Control_c, 13, 11, 69
13, 7863, Control_c, 13, 11, 66
13, 7866, Control_c, 13, 11, 63
13, 7870, Note_on_c, 13, 42, 0
13, 7870, Control_c, 13, 11, 60
13, 8410, Control_c, 13, 11, 42
13, 8410, Note_on_c, 13, 54, 98
13, 8425, Note_on_c, 13, 54, 0
13, 8440, Note_on_c, 13, 52, 98
13, 8455, Note_on_c, 13, 52, 0
13, 8470, Note_on_c, 13, 50, 98
13, 8485, Note_on_c, 13, 50, 0
13, 8500, Note_on_c, 13, 48, 98
13, 8515, Note_on_c, 13, 48, 0
13, 8530, Note_on_c, 13, 47, 98
13, 8545, Note_on_c, 13, 47, 0
13, 8560, Note_on_c, 13, 45, 98
13, 8575, Note_on_c, 13, 45, 0
13, 8590, Note_on_c, 13, 43, 98
13, 8605, Note_on_c, 13, 43, 0
13, 8620, Note_on_c, 13, 42, 98
13, 8635, Note_on_c, 13, 42, 0
13, 8650, Note_on_c, 13, 40, 98
13, 8665, Note_on_c, 13, 40, 0
13, 8680, Note_on_c, 13, 38, 98
13, 8710, Note_on_c, 13, 38, 0
13, 8710, Note_on_c, 13, 45, 98
13, 8730, Note_on_c, 13, 45, 0
13, 8740, Note_on_c, 13, 42, 98
13, 8770, Note_on_c, 13, 42, 0
13, 8770, Note_on_c, 13, 48, 98
13, 8790, Note_on_c, 13, 48, 0
13, 8800, Note_on_c, 13, 45, 98
13, 8830, Note_on_c, 13, 45, 0
13, 8830, Note_on_c, 13, 54, 98
13, 8850, Note_on_c, 13, 54, 0
13, 9580, Control_c, 13, 11, 42
13, 9580, Note_on_c, 13, 48, 98
13, 9610, Note_on_c, 13, 48, 0
13, 9640, Control_c, 13, 11, 87
13, 9640, Note_on_c, 13, 47, 98
13, 9760, Control_c, 13, 11, 87
13, 9763, Control_c, 13, 11, 84
13, 9766, Control_c, 13, 11, 81
13, 9770, Control_c, 13, 11, 78
13, 9773, Control_c, 13, 11, 75
13, 9776, Control_c, 13, 11, 72
13, 9780, Control_c, 13, 11, 69
13, 9783, Control_c, 13, 11, 66
13, 9786, Control_c, 13, 11, 63
13, 9790, Note_on_c, 13, 47, 0
13, 9790, Control_c, 13, 11, 60
13, 10330, Control_c, 13, 11, 42
13, 10330, Note_on_c, 13, 59, 98
13, 10345, Note_on_c, 13, 59, 0
13, 10360, Note_on_c, 13, 57, 98
13, 10375, Note_on_c, 13, 57, 0
13, 10390, Note_on_c, 13, 55, 98
13, 10405, Note_on_c, 13, 55, 0
13, 10420, Note_on_c, 13, 53, 98
13, 10435, Note_on_c, 13, 53, 0
13, 10450, Note_on_c, 13, 52, 98
13, 10465, Note_on_c, 13, 52, 0
13, 10480, Note_on_c, 13, 50, 98
13, 10495, Note_on_c, 13, 50, 0
13, 10510, Note_on_c, 13, 48, 98
13, 10525, Note_on_c, 13, 48, 0
13, 10540, Note_on_c, 13, 47, 98
13, 10555, Note_on_c, 13, 47, 0
13, 10570, Note_on_c, 13, 45, 98
13, 10585, Note_on_c, 13, 45, 0
13, 10600, Note_on_c, 13, 43, 98
13, 10615, Note_on_c, 13, 43, 0
13, 10630, Note_on_c, 13, 45, 98
13, 10645, Note_on_c, 13, 45, 0
13, 10660, Note_on_c, 13, 47, 98
13, 10675, Note_on_c, 13, 47, 0
13, 10690, Note_on_c, 13, 48, 98
13, 10705, Note_on_c, 13, 48, 0
13, 10720, Note_on_c, 13, 50, 98
13, 10735, Note_on_c, 13, 50, 0
13, 10750, Note_on_c, 13, 52, 98
13, 10765, Note_on_c, 13, 52, 0
13, 10780, Note_on_c, 13, 53, 98
13, 10795, Note_on_c, 13, 53, 0
13, 10810, Note_on_c, 13, 55, 98
13, 10825, Note_on_c, 13, 55, 0
13, 10840, Note_on_c, 13, 57, 98
13, 10855, Note_on_c, 13, 57, 0
13, 10870, Note_on_c, 13, 59, 98
13, 10885, Note_on_c, 13, 59, 0
13, 10900, Note_on_c, 13, 60, 98
13, 10915, Note_on_c, 13, 60, 0
13, 10930, Note_on_c, 13, 62, 98
13, 10945, Note_on_c, 13, 62, 0
13, 10960, Note_on_c, 13, 64, 98
13, 10975, Note_on_c, 13, 64, 0
13, 10990, Note_on_c, 13, 65, 98
13, 11005, Note_on_c, 13, 65, 0
13, 11020, Note_on_c, 13, 66, 98
13, 11035, Note_on_c, 13, 66, 0
13, 11050, Note_on_c, 13, 67, 98
13, 11080, Note_on_c, 13, 67, 0
13, 11080, Control_c, 13, 11, 42
13, 11080, Note_on_c, 13, 60, 98
13, 11110, Note_on_c, 13, 60, 0
13, 11110, Note_on_c, 13, 59, 98
13, 11140, Note_on_c, 13, 59, 0
13, 11140, Note_on_c, 13, 60, 98
13, 11170, Note_on_c, 13, 60, 0
13, 11170, Note_on_c, 13, 59, 98
13, 11230, Note_on_c, 13, 59, 0
13, 11320, Control_c, 13, 11, 47
13, 11320, Note_on_c, 13, 62, 108
13, 11350, Note_on_c, 13, 62, 0
13, 11350, Note_on_c, 13, 60, 108
13, 11380, Note_on_c, 13, 60, 0
13, 11380, Note_on_c, 13, 62, 108
13, 11410, Note_on_c, 13, 62, 0
13, 11410, Note_on_c, 13, 60, 108
13, 11470, Note_on_c, 13, 60, 0
13, 11560, Control_c, 13, 11, 59
13, 11560, Note_on_c, 13, 63, 108
13, 11590, Note_on_c, 13, 63, 0
13, 11590, Note_on_c, 13, 62, 109
13, 11620, Note_on_c, 13, 62, 0
13, 11680, Control_c, 13, 11, 66
13, 11680, Note_on_c, 13, 65, 113
13, 11710, Note_on_c, 13, 65, 0
13, 11710, Note_on_c, 13, 63, 114
13, 11740, Note_on_c, 13, 63, 0
13, 11800, Control_c, 13, 11, 68
13, 11800, Note_on_c, 13, 67, 118
13, 11830, Note_on_c, 13, 67, 0
13, 11830, Note_on_c, 13, 65, 120
13, 11860, Note_on_c, 13, 65, 0
13, 13010, Control_c, 13, 11, 32
13, 13010, Note_on_c, 13, 36, 98
13, 13030, Note_on_c, 13, 36, 0
13, 13050, Note_on_c, 13, 36, 98
13, 13070, Note_on_c, 13, 36, 0
13, 13090, Note_on_c, 13, 36, 98
13, 13110, Note_on_c, 13, 36, 0
13, 13250, Note_on_c, 13, 38, 98
13, 13270, Note_on_c, 13, 38, 0
13, 13290, Note_on_c, 13, 38, 98
13, 13310, Note_on_c, 13, 38, 0
13, 13330, Note_on_c, 13, 38, 98
13, 13350, Note_on_c, 13, 38, 0
13, 13490, Note_on_c, 13, 39, 98
13, 13510, Note_on_c, 13, 39, 0
13, 13530, Note_on_c, 13, 39, 98
13, 13550, Note_on_c, 13, 39, 0
13, 13570, Note_on_c, 13, 39, 98
13, 13590, Note_on_c, 13, 39, 0
13, 13730, Note_on_c, 13, 47, 98
13, 13750, Note_on_c, 13, 47, 0
13, 13770, Note_on_c, 13, 47, 98
13, 13790, Note_on_c, 13, 47, 0
13, 13810, Note_on_c, 13, 47, 98
13, 13830, Note_on_c, 13, 47, 0
13, 15249, Program_c, 13, 45
13, 15250, Control_c, 13, 11, 100
13, 15250, Note_on_c, 13, 53, 27
13, 15270, Note_on_c, 13, 53, 0
13, 15290, Note_on_c, 13, 51, 27
13, 15310, Note_on_c, 13, 51, 0
13, 15330, Note_on_c, 13, 50, 27
13, 15350, Note_on_c, 13, 50, 0
13, 15370, Note_on_c, 13, 48, 27
13, 15390, Note_on_c, 13, 48, 0
13, 15410, Note_on_c, 13, 58, 27
13, 15430, Note_on_c, 13, 58, 0
13, 15450, Note_on_c, 13, 56, 27
13, 15470, Note_on_c, 13, 56, 0
13, 15490, Note_on_c, 13, 55, 27
13, 15510, Note_on_c, 13, 55, 0
13, 15530, Note_on_c, 13, 53, 27
13, 15550, Note_on_c, 13, 53, 0
13, 15570, Note_on_c, 13, 51, 27
13, 15590, Note_on_c, 13, 51, 0
13, 15610, Note_on_c, 13, 50, 27
13, 15630, Note_on_c, 13, 50, 0
13, 15650, Note_on_c, 13, 48, 27
13, 15670, Note_on_c, 13, 48, 0
13, 15690, Note_on_c, 13, 47, 27
13, 15710, Note_on_c, 13, 47, 0
13, 15730, Note_on_c, 13, 48, 27
13, 15750, Note_on_c, 13, 48, 0
13, 15770, Note_on_c, 13, 51, 27
13, 15790, Note_on_c, 13, 51, 0
13, 15810, Note_on_c, 13, 48, 27
13, 15830, Note_on_c, 13, 48, 0
13, 15850, Note_on_c, 13, 43, 27
13, 15970, Note_on_c, 13, 43, 0
13, 16209, Program_c, 13, 48
13, 16210, Control_c, 13, 11, 52
13, 16210, Note_on_c, 13, 67, 98
13, 16220, Control_c, 13, 11, 55
13, 16230, Control_c, 13, 11, 58
13, 16240, Control_c, 13, 11, 61
13, 16251, Control_c, 13, 11, 64
13, 16261, Control_c, 13, 11, 67
13, 16271, Control_c, 13, 11, 70
13, 16282, Control_c, 13, 11, 73
13, 16292, Control_c, 13, 11, 76
13, 16302, Control_c, 13, 11, 79
13, 16312, Control_c, 13, 11, 82
13, 16323, Control_c, 13, 11, 85
13, 16330, Note_on_c, 13, 67, 0
13, 16330, Note_on_c, 13, 68, 98
13, 16490, Note_on_c, 13, 68, 0
13, 16490, Note_on_c, 13, 63, 98
13, 16510, Note_on_c, 13, 63, 0
13, 16530, Note_on_c, 13, 60, 98
13, 16550, Note_on_c, 13, 60, 0
13, 16570, Control_c, 13, 11, 63
13, 16570, Note_on_c, 13, 56, 98
13, 16580, Control_c, 13, 11, 66
13, 16590, Note_on_c, 13, 56, 0
13, 16591, Control_c, 13, 11, 69
13, 16601, Control_c, 13, 11, 72
13, 16610, Note_on_c, 13, 51, 98
13, 16612, Control_c, 13, 11, 75
13, 16623, Control_c, 13, 11, 78
13, 16630, Note_on_c, 13, 51, 0
13, 16641, Control_c, 13, 11, 75
13, 16650, Note_on_c, 13, 48, 98
13, 16659, Control_c, 13, 11, 72
13, 16660, Note_on_c, 13, 48, 0
13, 16677, Control_c, 13, 11, 69
13, 16690, Note_on_c, 13, 44, 98
13, 16695, Control_c, 13, 11, 66
13, 16713, Control_c, 13, 11, 63
13, 16731, Control_c, 13, 11, 60
13, 16740, Note_on_c, 13, 44, 0
13, 16749, Control_c, 13, 11, 57
13, 16750, Note_on_c, 13, 44, 98
13, 16767, Control_c, 13, 11, 54
13, 16785, Control_c, 13, 11, 51
13, 16800, Note_on_c, 13, 44, 0
13, 16803, Control_c, 13, 11, 48
13, 16810, Control_c, 13, 91, 1
13, 16810, Note_on_c, 13, 43, 98
13, 16823, Control_c, 13, 11, 49
13, 16844, Control_c, 13, 11, 52
13, 16864, Control_c, 13, 11, 55
13, 16870, Note_on_c, 13, 43, 0
13, 16870, Note_on_c, 13, 55, 98
13, 16885, Control_c, 13, 11, 58
13, 16906, Control_c, 13, 11, 61
13, 16920, Note_on_c, 13, 55, 0
13, 16926, Control_c, 13, 11, 64
13, 16930, Note_on_c, 13, 55, 98
13, 16947, Control_c, 13, 11, 67
13, 16960, Note_on_c, 13, 55, 0
13, 16967, Control_c, 13, 11, 70
13, 16970, Note_on_c, 13, 59, 98
13, 16988, Control_c, 13, 11, 73
13, 17008, Control_c, 13, 11, 76
13, 17010, Note_on_c, 13, 59, 0
13, 17010, Note_on_c, 13, 62, 98
13, 17029, Control_c, 13, 11, 79
13, 17050, Note_on_c, 13, 62, 0
13, 17050, Control_c, 13, 11, 82
13, 17050, Note_on_c, 13, 67, 98
13, 17080, Note_on_c, 13, 67, 0
13, 17090, Note_on_c, 13, 67, 98
13, 17120, Note_on_c, 13, 67, 0
13, 17130, Note_on_c, 13, 67, 98
13, 17160, Note_on_c, 13, 67, 0
13, 17170, Note_on_c, 13, 67, 98
13, 17200, Note_on_c, 13, 67, 0
13, 17210, Note_on_c, 13, 67, 98
13, 17240, Note_on_c, 13, 67, 0
13, 17250, Note_on_c, 13, 67, 98
13, 17280, Note_on_c, 13, 67, 0
13, 17290, Note_on_c, 13, 68, 98
13, 17450, Note_on_c, 13, 68, 0
13, 17450, Note_on_c, 13, 63, 98
13, 17490, Note_on_c, 13, 63, 0
13, 17490, Note_on_c, 13, 60, 98
13, 17530, Note_on_c, 13, 60, 0
13, 17530, Control_c, 13, 11, 82
13, 17530, Note_on_c, 13, 56, 98
13, 17550, Control_c, 13, 11, 79
13, 17570, Note_on_c, 13, 56, 0
13, 17570, Note_on_c, 13, 51, 98
13, 17571, Control_c, 13, 11, 76
13, 17591, Control_c, 13, 11, 73
13, 17610, Note_on_c, 13, 51, 0
13, 17610, Note_on_c, 13, 48, 98
13, 17612, Control_c, 13, 11, 70
13, 17632, Control_c, 13, 11, 67
13, 17640, Note_on_c, 13, 48, 0
13, 17650, Note_on_c, 13, 44, 98
13, 17653, Control_c, 13, 11, 64
13, 17674, Control_c, 13, 11, 61
13, 17680, Note_on_c, 13, 44, 0
13, 17690, Note_on_c, 13, 44, 98
13, 17694, Control_c, 13, 11, 58
13, 17715, Control_c, 13, 11, 55
13, 17720, Note_on_c, 13, 44, 0
13, 17730, Note_on_c, 13, 44, 98
13, 17735, Control_c, 13, 11, 52
13, 17756, Control_c, 13, 11, 49
13, 17760, Note_on_c, 13, 44, 0
13, 17770, Note_on_c, 13, 43, 83
13, 17860, Control_c, 13, 11, 47
13, 17864, Control_c, 13, 11, 44
13, 17868, Control_c, 13, 11, 41
13, 17873, Control_c, 13, 11, 38
13, 17877, Control_c, 13, 11, 35
13, 17881, Control_c, 13, 11, 32
13, 17886, Control_c, 13, 11, 29
13, 17890, Note_on_c, 13, 43, 0
13, 18009, Program_c, 13, 45
13, 18010, Control_c, 13, 11, 100
13, 18010, Control_c, 13, 91, 51
13, 18010, Note_on_c, 13, 43, 28
13, 18130, Note_on_c, 13, 43, 0
13, 18130, Note_on_c, 13, 43, 28
13, 18250, Note_on_c, 13, 43, 0
13, 18250, Note_on_c, 13, 43, 28
13, 18370, Note_on_c, 13, 43, 0
13, 18490, Note_on_c, 13, 43, 28
13, 18610, Note_on_c, 13, 43, 0
13, 18610, Note_on_c, 13, 43, 28
13, 18730, Note_on_c, 13, 43, 0
13, 18730, Note_on_c, 13, 43, 28
13, 18850, Note_on_c, 13, 43, 0
13, 18970, Note_on_c, 13, 43, 28
13, 19090, Note_on_c, 13, 43, 0
13, 23409, Program_c, 13, 48
13, 23410, Control_c, 13, 11, 99
13, 23410, Note_on_c, 13, 55, 103
13, 23498, Control_c, 13, 11, 100
13, 23530, Note_on_c, 13, 55, 0
13, 23530, Note_on_c, 13, 57, 103
13, 23650, Note_on_c, 13, 57, 0
13, 23754, Control_c, 13, 11, 101
13, 23770, Note_on_c, 13, 59, 104
13, 23890, Note_on_c, 13, 59, 0
13, 24010, Control_c, 13, 11, 102
13, 24010, Note_on_c, 13, 60, 104
13, 24130, Note_on_c, 13, 60, 0
13, 24250, Note_on_c, 13, 62, 105
13, 24266, Control_c, 13, 11, 103
13, 24370, Note_on_c, 13, 62, 0
13, 24490, Note_on_c, 13, 60, 106
13, 24522, Control_c, 13, 11, 104
13, 24610, Note_on_c, 13, 60, 0
13, 24730, Note_on_c, 13, 59, 106
13, 24778, Control_c, 13, 11, 105
13, 24850, Note_on_c, 13, 59, 0
13, 24970, Note_on_c, 13, 57, 107
13, 25034, Control_c, 13, 11, 106
13, 25090, Note_on_c, 13, 57, 0
13, 25210, Note_on_c, 13, 56, 108
13, 25290, Control_c, 13, 11, 107
13, 25330, Note_on_c, 13, 56, 0
13, 25450, Note_on_c, 13, 55, 108
13, 25546, Control_c, 13, 11, 108
13, 25570, Note_on_c, 13, 55, 0
13, 25690, Note_on_c, 13, 54, 109
13, 25802, Control_c, 13, 11, 109
13, 25810, Note_on_c, 13, 54, 0
13, 25930, Note_on_c, 13, 55, 110
13, 25990, Note_on_c, 13, 55, 0
13, 26050, Note_on_c, 13, 65, 110
13, 26058, Control_c, 13, 11, 110
13, 26110, Note_on_c, 13, 65, 0
13, 26170, Note_on_c, 13, 64, 110
13, 26230, Note_on_c, 13, 64, 0
13, 26290, Note_on_c, 13, 62, 111
13, 26314, Control_c, 13, 11, 111
13, 26350, Note_on_c, 13, 62, 0
13, 26410, Note_on_c, 13, 60, 111
13, 26470, Note_on_c, 13, 60, 0
13, 26530, Note_on_c, 13, 59, 111
13, 26570, Control_c, 13, 11, 112
13, 26590, Note_on_c, 13, 59, 0
13, 26650, Note_on_c, 13, 57, 112
13, 26710, Note_on_c, 13, 57, 0
13, 26770, Note_on_c, 13, 55, 112
13, 26826, Control_c, 13, 11, 113
13, 26830, Note_on_c, 13, 55, 0
13, 26890, Note_on_c, 13, 53, 112
13, 26950, Note_on_c, 13, 53, 0
13, 27010, Note_on_c, 13, 52, 113
13, 27070, Note_on_c, 13, 52, 0
13, 27082, Control_c, 13, 11, 114
13, 27130, Note_on_c, 13, 50, 113
13, 27190, Note_on_c, 13, 50, 0
13, 27250, Note_on_c, 13, 48, 113
13, 27310, Note_on_c, 13, 48, 0
13, 27338, Control_c, 13, 11, 115
13, 27370, Note_on_c, 13, 47, 114
13, 27430, Note_on_c, 13, 47, 0
13, 27490, Note_on_c, 13, 43, 114
13, 27550, Note_on_c, 13, 43, 0
13, 27594, Control_c, 13, 11, 116
13, 27610, Note_on_c, 13, 48, 115
13, 27670, Note_on_c, 13, 48, 0
13, 27730, Note_on_c, 13, 48, 115
13, 27790, Note_on_c, 13, 48, 0
13, 27850, Control_c, 13, 11, 117
13, 27970, Note_on_c, 13, 48, 115
13, 28090, Note_on_c, 13, 48, 0
13, 28210, Note_on_c, 13, 48, 115
13, 28330, Note_on_c, 13, 48, 0
13, 28450, Control_c, 13, 11, 77
13, 28450, Note_on_c, 13, 48, 115
13, 28570, Note_on_c, 13, 48, 0
13, 29410, Control_c, 13, 11, 77
13, 29410, Note_on_c, 13, 48, 115
13, 29530, Note_on_c, 13, 48, 0
13, 30370, Control_c, 13, 11, 77
13, 30370, Note_on_c, 13, 48, 115
13, 30490, Note_on_c, 13, 48, 0
13, 35050, Control_c, 13, 11, 87
13, 35050, Note_on_c, 13, 43, 115
13, 35155, Note_on_c, 13, 43, 0
13, 35170, Control_c, 13, 11, 102
13, 35170, Note_on_c, 13, 55, 98
13, 35350, Control_c, 13, 11, 102
13, 35357, Control_c, 13, 11, 99
13, 35365, Control_c, 13, 11, 96
13, 35373, Control_c, 13, 11, 93
13, 35381, Control_c, 13, 11, 90
13, 35391, Control_c, 13, 11, 87
13, 35395, Note_on_c, 13, 55, 0
13, 35399, Control_c, 13, 11, 84
13, 35407, Control_c, 13, 11, 81
13, 35410, Note_on_c, 13, 52, 98
13, 35415, Control_c, 13, 11, 78
13, 35422, Control_c, 13, 11, 75
13, 35433, Control_c, 13, 11, 72
13, 35441, Control_c, 13, 11, 69
13, 35448, Control_c, 13, 11, 66
13, 35456, Control_c, 13, 11, 63
13, 35467, Control_c, 13, 11, 60
13, 35474, Control_c, 13, 11, 57
13, 35482, Control_c, 13, 11, 54
13, 35490, Control_c, 13, 11, 51
13, 35498, Control_c, 13, 11, 48
13, 35515, Note_on_c, 13, 52, 0
13, 35530, Note_on_c, 13, 53, 98
13, 35590, Note_on_c, 13, 53, 0
13, 35650, Note_on_c, 13, 50, 98
13, 35710, Note_on_c, 13, 50, 0
13, 35770, Note_on_c, 13, 52, 98
13, 35830, Note_on_c, 13, 52, 0
13, 35890, Note_on_c, 13, 48, 98
13, 35950, Note_on_c, 13, 48, 0
13, 36010, Note_on_c, 13, 50, 98
13, 36070, Note_on_c, 13, 50, 0
13, 36130, Note_on_c, 13, 47, 98
13, 36190, Note_on_c, 13, 47, 0
13, 36250, Note_on_c, 13, 48, 98
13, 36310, Note_on_c, 13, 48, 0
13, 36370, Note_on_c, 13, 45, 98
13, 36430, Note_on_c, 13, 45, 0
13, 36490, Note_on_c, 13, 47, 98
13, 36550, Note_on_c, 13, 47, 0
13, 36610, Note_on_c, 13, 43, 98
13, 36670, Note_on_c, 13, 43, 0
13, 36730, Note_on_c, 13, 45, 98
13, 36790, Note_on_c, 13, 45, 0
13, 36850, Note_on_c, 13, 43, 98
13, 36910, Note_on_c, 13, 43, 0
13, 36970, Control_c, 13, 11, 47
13, 36970, Note_on_c, 13, 45, 98
13, 37003, Control_c, 13, 11, 48
13, 37030, Note_on_c, 13, 45, 0
13, 37037, Control_c, 13, 11, 49
13, 37071, Control_c, 13, 11, 50
13, 37090, Note_on_c, 13, 43, 99
13, 37105, Control_c, 13, 11, 51
13, 37139, Control_c, 13, 11, 52
13, 37150, Note_on_c, 13, 43, 0
13, 37172, Control_c, 13, 11, 53
13, 37206, Control_c, 13, 11, 54
13, 37210, Note_on_c, 13, 45, 100
13, 37240, Control_c, 13, 11, 55
13, 37270, Note_on_c, 13, 45, 0
13, 37274, Control_c, 13, 11, 56
13, 37308, Control_c, 13, 11, 57
13, 37330, Note_on_c, 13, 43, 101
13, 37342, Control_c, 13, 11, 58
13, 37375, Control_c, 13, 11, 59
13, 37390, Note_on_c, 13, 43, 0
13, 37409, Control_c, 13, 11, 60
13, 37443, Control_c, 13, 11, 61
13, 37450, Note_on_c, 13, 45, 102
13, 37477, Control_c, 13, 11, 62
13, 37510, Note_on_c, 13, 45, 0
13, 37511, Control_c, 13, 11, 63
13, 37544, Control_c, 13, 11, 64
13, 37570, Note_on_c, 13, 43, 103
13, 37578, Control_c, 13, 11, 65
13, 37612, Control_c, 13, 11, 66
13, 37630, Note_on_c, 13, 43, 0
13, 37646, Control_c, 13, 11, 67
13, 37680, Control_c, 13, 11, 68
13, 37690, Note_on_c, 13, 53, 104
13, 37714, Control_c, 13, 11, 69
13, 37747, Control_c, 13, 11, 70
13, 37750, Note_on_c, 13, 53, 0
13, 37781, Control_c, 13, 11, 71
13, 37810, Note_on_c, 13, 55, 105
13, 37815, Control_c, 13, 11, 72
13, 37849, Control_c, 13, 11, 73
13, 37870, Note_on_c, 13, 55, 0
13, 37883, Control_c, 13, 11, 74
13, 37916, Control_c, 13, 11, 75
13, 37930, Note_on_c, 13, 52, 106
13, 37950, Control_c, 13, 11, 76
13, 37984, Control_c, 13, 11, 77
13, 37990, Note_on_c, 13, 52, 0
13, 38018, Control_c, 13, 11, 78
13, 38050, Note_on_c, 13, 55, 107
13, 38052, Control_c, 13, 11, 79
13, 38086, Control_c, 13, 11, 80
13, 38110, Note_on_c, 13, 55, 0
13, 38119, Control_c, 13, 11, 81
13, 38153, Control_c, 13, 11, 82
13, 38170, Note_on_c, 13, 50, 108
13, 38187, Control_c, 13, 11, 83
13, 38221, Control_c, 13, 11, 84
13, 38230, Note_on_c, 13, 50, 0
13, 38255, Control_c, 13, 11, 85
13, 38288, Control_c, 13, 11, 86
13, 38290, Note_on_c, 13, 55, 109
13, 38322, Control_c, 13, 11, 87
13, 38350, Note_on_c, 13, 55, 0
13, 38356, Control_c, 13, 11, 88
13, 38390, Control_c, 13, 11, 89
13, 38410, Note_on_c, 13, 48, 110
13, 38424, Control_c, 13, 11, 90
13, 38458, Control_c, 13, 11, 91
13, 38470, Note_on_c, 13, 48, 0
13, 38491, Control_c, 13, 11, 92
13, 38525, Control_c, 13, 11, 93
13, 38530, Note_on_c, 13, 55, 111
13, 38559, Control_c, 13, 11, 94
13, 38590, Note_on_c, 13, 55, 0
13, 38593, Control_c, 13, 11, 95
13, 38627, Control_c, 13, 11, 96
13, 38650, Note_on_c, 13, 47, 112
13, 38660, Control_c, 13, 11, 97
13, 38694, Control_c, 13, 11, 98
13, 38710, Note_on_c, 13, 47, 0
13, 38728, Control_c, 13, 11, 99
13, 38762, Control_c, 13, 11, 100
13, 38770, Note_on_c, 13, 48, 113
13, 38796, Control_c, 13, 11, 101
13, 38830, Control_c, 13, 11, 102
13, 38890, Note_on_c, 13, 48, 0
13, 39010, Note_on_c, 13, 48, 115
13, 39130, Note_on_c, 13, 48, 0
13, 39250, Note_on_c, 13, 48, 115
13, 39355, Note_on_c, 13, 48, 0
13, 39370, Note_on_c, 13, 48, 115
13, 39475, Note_on_c, 13, 48, 0
13, 39490, Note_on_c, 13, 48, 115
13, 39595, Note_on_c, 13, 48, 0
13, 39610, Note_on_c, 13, 48, 115
13, 40195, Note_on_c, 13, 48, 0
13, 40210, Note_on_c, 13, 41, 115
13, 40315, Note_on_c, 13, 41, 0
13, 40330, Note_on_c, 13, 48, 115
13, 40435, Note_on_c, 13, 48, 0
13, 40450, Note_on_c, 13, 48, 115
13, 40555, Note_on_c, 13, 48, 0
13, 40570, Note_on_c, 13, 48, 115
13, 41155, Note_on_c, 13, 48, 0
13, 41170, Note_on_c, 13, 41, 115
13, 41275, Note_on_c, 13, 41, 0
13, 41290, Note_on_c, 13, 48, 115
13, 41395, Note_on_c, 13, 48, 0
13, 41410, Note_on_c, 13, 48, 115
13, 41515, Note_on_c, 13, 48, 0
13, 41530, Note_on_c, 13, 48, 115
13, 41875, Note_on_c, 13, 48, 0
13, 41890, Note_on_c, 13, 40, 115
13, 41995, Note_on_c, 13, 40, 0
13, 42010, Note_on_c, 13, 40, 115
13, 42355, Note_on_c, 13, 40, 0
13, 42370, Note_on_c, 13, 41, 115
13, 42475, Note_on_c, 13, 41, 0
13, 42490, Note_on_c, 13, 41, 115
13, 42835, Note_on_c, 13, 41, 0
13, 42850, Note_on_c, 13, 43, 115
13, 42955, Note_on_c, 13, 43, 0
13, 42970, Note_on_c, 13, 43, 115
13, 43315, Note_on_c, 13, 43, 0
13, 43330, Note_on_c, 13, 45, 115
13, 43435, Note_on_c, 13, 45, 0
13, 43450, Note_on_c, 13, 45, 115
13, 43795, Note_on_c, 13, 45, 0
13, 43810, Note_on_c, 13, 40, 115
13, 43915, Note_on_c, 13, 40, 0
13, 43930, Note_on_c, 13, 40, 115
13, 44275, Note_on_c, 13, 40, 0
13, 44290, Note_on_c, 13, 41, 115
13, 44395, Note_on_c, 13, 41, 0
13, 44410, Note_on_c, 13, 41, 115
13, 44755, Note_on_c, 13, 41, 0
13, 44770, Note_on_c, 13, 41, 115
13, 44875, Note_on_c, 13, 41, 0
13, 44890, Note_on_c, 13, 41, 115
13, 45235, Note_on_c, 13, 41, 0
13, 45250, Note_on_c, 13, 42, 115
13, 45355, Note_on_c, 13, 42, 0
13, 45370, Note_on_c, 13, 42, 115
13, 45715, Note_on_c, 13, 42, 0
13, 45730, Note_on_c, 13, 42, 115
13, 45835, Note_on_c, 13, 42, 0
13, 45850, Note_on_c, 13, 42, 115
13, 46075, Note_on_c, 13, 42, 0
13, 46090, Note_on_c, 13, 42, 98
13, 46210, Note_on_c, 13, 42, 0
13, 47170, Control_c, 13, 11, 47
13, 47170, Note_on_c, 13, 38, 106
13, 47280, Note_on_c, 13, 38, 0
13, 47290, Note_on_c, 13, 38, 106
13, 47400, Note_on_c, 13, 38, 0
13, 47410, Note_on_c, 13, 38, 106
13, 47520, Note_on_c, 13, 38, 0
13, 47530, Note_on_c, 13, 38, 106
13, 47640, Note_on_c, 13, 38, 0
13, 47650, Note_on_c, 13, 38, 106
13, 47760, Note_on_c, 13, 38, 0
13, 47770, Note_on_c, 13, 38, 106
13, 47880, Note_on_c, 13, 38, 0
13, 47890, Note_on_c, 13, 38, 106
13, 48000, Note_on_c, 13, 38, 0
13, 48010, Note_on_c, 13, 38, 106
13, 48130, Note_on_c, 13, 38, 0
13, 48970, Control_c, 13, 11, 62
13, 49002, Control_c, 13, 11, 61
13, 49034, Control_c, 13, 11, 60
13, 49066, Control_c, 13, 11, 59
13, 49090, Note_on_c, 13, 38, 118
13, 49098, Control_c, 13, 11, 58
13, 49130, Control_c, 13, 11, 57
13, 49162, Control_c, 13, 11, 56
13, 49194, Control_c, 13, 11, 55
13, 49200, Note_on_c, 13, 38, 0
13, 49210, Note_on_c, 13, 38, 118
13, 49226, Control_c, 13, 11, 54
13, 49258, Control_c, 13, 11, 53
13, 49290, Control_c, 13, 11, 52
13, 49320, Note_on_c, 13, 38, 0
13, 49322, Control_c, 13, 11, 51
13, 49330, Note_on_c, 13, 38, 118
13, 49354, Control_c, 13, 11, 50
13, 49386, Control_c, 13, 11, 49
13, 49418, Control_c, 13, 11, 48
13, 49440, Note_on_c, 13, 38, 0
13, 49450, Control_c, 13, 11, 47
13, 49450, Note_on_c, 13, 38, 118
13, 49560, Note_on_c, 13, 38, 0
13, 49570, Note_on_c, 13, 38, 118
13, 49680, Note_on_c, 13, 38, 0
13, 49690, Note_on_c, 13, 38, 118
13, 49800, Note_on_c, 13, 38, 0
13, 49810, Note_on_c, 13, 38, 118
13, 49920, Note_on_c, 13, 38, 0
13, 49930, Note_on_c, 13, 38, 118
13, 50050, Note_on_c, 13, 38, 0
13, 50890, Control_c, 13, 11, 62
13, 50922, Control_c, 13, 11, 61
13, 50954, Control_c, 13, 11, 60
13, 50986, Control_c, 13, 11, 59
13, 51010, Note_on_c, 13, 54, 98
13, 51018, Control_c, 13, 11, 58
13, 51050, Control_c, 13, 11, 57
13, 51082, Control_c, 13, 11, 56
13, 51114, Control_c, 13, 11, 55
13, 51120, Note_on_c, 13, 54, 0
13, 51130, Note_on_c, 13, 54, 98
13, 51146, Control_c, 13, 11, 54
13, 51178, Control_c, 13, 11, 53
13, 51210, Control_c, 13, 11, 52
13, 51240, Note_on_c, 13, 54, 0
13, 51242, Control_c, 13, 11, 51
13, 51250, Note_on_c, 13, 54, 98
13, 51274, Control_c, 13, 11, 50
13, 51306, Control_c, 13, 11, 49
13, 51338, Control_c, 13, 11, 48
13, 51360, Note_on_c, 13, 54, 0
13, 51370, Control_c, 13, 11, 47
13, 51370, Note_on_c, 13, 54, 98
13, 51480, Note_on_c, 13, 54, 0
13, 51490, Note_on_c, 13, 54, 98
13, 51600, Note_on_c, 13, 54, 0
13, 51610, Note_on_c, 13, 54, 98
13, 51720, Note_on_c, 13, 54, 0
13, 51730, Note_on_c, 13, 54, 98
13, 51840, Note_on_c, 13, 54, 0
13, 51970, Note_on_c, 13, 55, 98
13, 52080, Note_on_c, 13, 55, 0
13, 52090, Note_on_c, 13, 55, 98
13, 52200, Note_on_c, 13, 55, 0
13, 52210, Note_on_c, 13, 55, 98
13, 52320, Note_on_c, 13, 55, 0
13, 52450, Note_on_c, 13, 48, 98
13, 52560, Note_on_c, 13, 48, 0
13, 52570, Note_on_c, 13, 48, 98
13, 52680, Note_on_c, 13, 48, 0
13, 52690, Note_on_c, 13, 48, 98
13, 52800, Note_on_c, 13, 48, 0
13, 52930, Note_on_c, 13, 50, 98
13, 53040, Note_on_c, 13, 50, 0
13, 53050, Note_on_c, 13, 50, 98
13, 53160, Note_on_c, 13, 50, 0
13, 53170, Note_on_c, 13, 50, 98
13, 53280, Note_on_c, 13, 50, 0
13, 53410, Note_on_c, 13, 50, 98
13, 53520, Note_on_c, 13, 50, 0
13, 53530, Note_on_c, 13, 50, 98
13, 53640, Note_on_c, 13, 50, 0
13, 53650, Note_on_c, 13, 50, 98
13, 53760, Note_on_c, 13, 50, 0
13, 53770, Control_c, 13, 11, 62
13, 53802, Control_c, 13, 11, 61
13, 53834, Control_c, 13, 11, 60
13, 53866, Control_c, 13, 11, 59
13, 53890, Note_on_c, 13, 54, 98
13, 53898, Control_c, 13, 11, 58
13, 53930, Control_c, 13, 11, 57
13, 53962, Control_c, 13, 11, 56
13, 53994, Control_c, 13, 11, 55
13, 54000, Note_on_c, 13, 54, 0
13, 54010, Note_on_c, 13, 54, 98
13, 54026, Control_c, 13, 11, 54
13, 54058, Control_c, 13, 11, 53
13, 54090, Control_c, 13, 11, 52
13, 54120, Note_on_c, 13, 54, 0
13, 54122, Control_c, 13, 11, 51
13, 54130, Note_on_c, 13, 54, 98
13, 54154, Control_c, 13, 11, 50
13, 54186, Control_c, 13, 11, 49
13, 54218, Control_c, 13, 11, 48
13, 54240, Note_on_c, 13, 54, 0
13, 54250, Control_c, 13, 11, 47
13, 54250, Note_on_c, 13, 54, 98
13, 54360, Note_on_c, 13, 54, 0
13, 54370, Note_on_c, 13, 54, 98
13, 54480, Note_on_c, 13, 54, 0
13, 54490, Note_on_c, 13, 54, 98
13, 54600, Note_on_c, 13, 54, 0
13, 54610, Note_on_c, 13, 54, 98
13, 54720, Note_on_c, 13, 54, 0
13, 54730, Control_c, 13, 11, 47
13, 54778, Control_c, 13, 11, 48
13, 54826, Control_c, 13, 11, 49
13, 54850, Note_on_c, 13, 55, 98
13, 54874, Control_c, 13, 11, 50
13, 54922, Control_c, 13, 11, 51
13, 54960, Note_on_c, 13, 55, 0
13, 54970, Control_c, 13, 11, 52
13, 54970, Note_on_c, 13, 55, 98
13, 55018, Control_c, 13, 11, 53
13, 55066, Control_c, 13, 11, 54
13, 55080, Note_on_c, 13, 55, 0
13, 55090, Note_on_c, 13, 55, 98
13, 55114, Control_c, 13, 11, 55
13, 55162, Control_c, 13, 11, 56
13, 55200, Note_on_c, 13, 55, 0
13, 55210, Control_c, 13, 11, 57
13, 55258, Control_c, 13, 11, 58
13, 55306, Control_c, 13, 11, 59
13, 55330, Note_on_c, 13, 55, 98
13, 55354, Control_c, 13, 11, 60
13, 55402, Control_c, 13, 11, 61
13, 55440, Note_on_c, 13, 55, 0
13, 55450, Control_c, 13, 11, 62
13, 55450, Note_on_c, 13, 55, 98
13, 55498, Control_c, 13, 11, 63
13, 55546, Control_c, 13, 11, 64
13, 55560, Note_on_c, 13, 55, 0
13, 55570, Note_on_c, 13, 55, 98
13, 55594, Control_c, 13, 11, 65
13, 55642, Control_c, 13, 11, 66
13, 55680, Note_on_c, 13, 55, 0
13, 55690, Control_c, 13, 11, 67
13, 55738, Control_c, 13, 11, 68
13, 55786, Control_c, 13, 11, 69
13, 55810, Note_on_c, 13, 53, 98
13, 55834, Control_c, 13, 11, 70
13, 55882, Control_c, 13, 11, 71
13, 55920, Note_on_c, 13, 53, 0
13, 55930, Control_c, 13, 11, 72
13, 55930, Note_on_c, 13, 53, 98
13, 55978, Control_c, 13, 11, 73
13, 56026, Control_c, 13, 11, 74
13, 56040, Note_on_c, 13, 53, 0
13, 56050, Note_on_c, 13, 53, 98
13, 56074, Control_c, 13, 11, 75
13, 56122, Control_c, 13, 11, 76
13, 56160, Note_on_c, 13, 53, 0
13, 56170, Control_c, 13, 11, 77
13, 56218, Control_c, 13, 11, 78
13, 56266, Control_c, 13, 11, 79
13, 56290, Note_on_c, 13, 53, 98
13, 56314, Control_c, 13, 11, 80
13, 56362, Control_c, 13, 11, 81
13, 56400, Note_on_c, 13, 53, 0
13, 56410, Control_c, 13, 11, 82
13, 56410, Note_on_c, 13, 41, 98
13, 56458, Control_c, 13, 11, 83
13, 56506, Control_c, 13, 11, 84
13, 56520, Note_on_c, 13, 41, 0
13, 56530, Note_on_c, 13, 41, 98
13, 56554, Control_c, 13, 11, 85
13, 56602, Control_c, 13, 11, 86
13, 56640, Note_on_c, 13, 41, 0
13, 56650, Control_c, 13, 11, 87
13, 56650, Note_on_c, 13, 46, 98
13, 56760, Note_on_c, 13, 46, 0
13, 57250, Control_c, 13, 11, 47
13, 57250, Note_on_c, 13, 58, 98
13, 57310, Note_on_c, 13, 58, 0
13, 57370, Note_on_c, 13, 57, 98
13, 57430, Note_on_c, 13, 57, 0
13, 57490, Note_on_c, 13, 58, 98
13, 57550, Note_on_c, 13, 58, 0
13, 57610, Note_on_c, 13, 60, 98
13, 57730, Note_on_c, 13, 60, 0
13, 57730, Note_on_c, 13, 57, 98
13, 57840, Note_on_c, 13, 57, 0
13, 57850, Note_on_c, 13, 53, 98
13, 57910, Note_on_c, 13, 53, 0
13, 57970, Note_on_c, 13, 51, 98
13, 58030, Note_on_c, 13, 51, 0
13, 58090, Note_on_c, 13, 50, 98
13, 58150, Note_on_c, 13, 50, 0
13, 58210, Note_on_c, 13, 53, 98
13, 58270, Note_on_c, 13, 53, 0
13, 58330, Note_on_c, 13, 57, 98
13, 58390, Note_on_c, 13, 57, 0
13, 58450, Control_c, 13, 11, 47
13, 58450, Note_on_c, 13, 59, 98
13, 58459, Control_c, 13, 11, 50
13, 58468, Control_c, 13, 11, 53
13, 58477, Control_c, 13, 11, 56
13, 58486, Control_c, 13, 11, 59
13, 58495, Control_c, 13, 11, 62
13, 58504, Control_c, 13, 11, 65
13, 58510, Note_on_c, 13, 59, 0
13, 58513, Control_c, 13, 11, 68
13, 58522, Control_c, 13, 11, 71
13, 58531, Control_c, 13, 11, 74
13, 58540, Control_c, 13, 11, 77
13, 58549, Control_c, 13, 11, 80
13, 58558, Control_c, 13, 11, 83
13, 58567, Control_c, 13, 11, 86
13, 58570, Note_on_c, 13, 60, 98
13, 58630, Note_on_c, 13, 60, 0
13, 59170, Control_c, 13, 11, 47
13, 59170, Note_on_c, 13, 48, 98
13, 59230, Note_on_c, 13, 48, 0
13, 59290, Note_on_c, 13, 47, 98
13, 59350, Note_on_c, 13, 47, 0
13, 59410, Note_on_c, 13, 48, 98
13, 59470, Note_on_c, 13, 48, 0
13, 59530, Note_on_c, 13, 50, 98
13, 59650, Note_on_c, 13, 50, 0
13, 59650, Note_on_c, 13, 47, 98
13, 59760, Note_on_c, 13, 47, 0
13, 59770, Note_on_c, 13, 43, 98
13, 59830, Note_on_c, 13, 43, 0
13, 59890, Note_on_c, 13, 41, 98
13, 59950, Note_on_c, 13, 41, 0
13, 60010, Note_on_c, 13, 39, 98
13, 60070, Note_on_c, 13, 39, 0
13, 60130, Note_on_c, 13, 43, 98
13, 60190, Note_on_c, 13, 43, 0
13, 60250, Note_on_c, 13, 48, 98
13, 60310, Note_on_c, 13, 48, 0
13, 60370, Note_on_c, 13, 50, 98
13, 60430, Note_on_c, 13, 50, 0
13, 60490, Control_c, 13, 11, 72
13, 60490, Note_on_c, 13, 51, 98
13, 60493, Control_c, 13, 11, 75
13, 60496, Control_c, 13, 11, 78
13, 60499, Control_c, 13, 11, 81
13, 60515, Control_c, 13, 11, 79
13, 60532, Control_c, 13, 11, 77
13, 60548, Control_c, 13, 11, 75
13, 60565, Control_c, 13, 11, 73
13, 60581, Control_c, 13, 11, 71
13, 60598, Control_c, 13, 11, 69
13, 60610, Note_on_c, 13, 51, 0
13, 60610, Note_on_c, 13, 48, 98
13, 60614, Control_c, 13, 11, 67
13, 60631, Control_c, 13, 11, 65
13, 60647, Control_c, 13, 11, 63
13, 60720, Note_on_c, 13, 48, 0
13, 60730, Control_c, 13, 11, 49
13, 60730, Note_on_c, 13, 45, 98
13, 60790, Note_on_c, 13, 45, 0
13, 60850, Note_on_c, 13, 43, 98
13, 60910, Note_on_c, 13, 43, 0
13, 60970, Note_on_c, 13, 42, 98
13, 61030, Note_on_c, 13, 42, 0
13, 61090, Note_on_c, 13, 45, 98
13, 61150, Note_on_c, 13, 45, 0
13, 61210, Note_on_c, 13, 48, 98
13, 61270, Note_on_c, 13, 48, 0
13, 61330, Note_on_c, 13, 50, 98
13, 61390, Note_on_c, 13, 50, 0
13, 61450, Control_c, 13, 11, 72
13, 61450, Note_on_c, 13, 51, 98
13, 61453, Control_c, 13, 11, 75
13, 61456, Control_c, 13, 11, 78
13, 61459, Control_c, 13, 11, 81
13, 61475, Control_c, 13, 11, 79
13, 61492, Control_c, 13, 11, 77
13, 61508, Control_c, 13, 11, 75
13, 61510, Note_on_c, 13, 51, 0
13, 61525, Control_c, 13, 11, 73
13, 61541, Control_c, 13, 11, 71
13, 61558, Control_c, 13, 11, 69
13, 61570, Note_on_c, 13, 47, 98
13, 61574, Control_c, 13, 11, 67
13, 61591, Control_c, 13, 11, 65
13, 61607, Control_c, 13, 11, 63
13, 61690, Note_on_c, 13, 47, 0
13, 61690, Control_c, 13, 11, 49
13, 61690, Note_on_c, 13, 48, 98
13, 61810, Note_on_c, 13, 48, 0
13, 61810, Note_on_c, 13, 42, 98
13, 61920, Note_on_c, 13, 42, 0
13, 61930, Control_c, 13, 11, 72
13, 61930, Note_on_c, 13, 51, 98
13, 61933, Control_c, 13, 11, 75
13, 61936, Control_c, 13, 11, 78
13, 61939, Control_c, 13, 11, 81
13, 61955, Control_c, 13, 11, 79
13, 61972, Control_c, 13, 11, 77
13, 61988, Control_c, 13, 11, 75
13, 61990, Note_on_c, 13, 51, 0
13, 62005, Control_c, 13, 11, 73
13, 62021, Control_c, 13, 11, 71
13, 62038, Control_c, 13, 11, 69
13, 62050, Note_on_c, 13, 47, 98
13, 62054, Control_c, 13, 11, 67
13, 62071, Control_c, 13, 11, 65
13, 62087, Control_c, 13, 11, 63
13, 62170, Note_on_c, 13, 47, 0
13, 62170, Control_c, 13, 11, 49
13, 62170, Note_on_c, 13, 48, 98
13, 62290, Note_on_c, 13, 48, 0
13, 62290, Note_on_c, 13, 43, 98
13, 62400, Note_on_c, 13, 43, 0
13, 62410, Control_c, 13, 11, 72
13, 62410, Note_on_c, 13, 51, 98
13, 62413, Control_c, 13, 11, 75
13, 62416, Control_c, 13, 11, 78
13, 62419, Control_c, 13, 11, 81
13, 62435, Control_c, 13, 11, 79
13, 62452, Control_c, 13, 11, 77
13, 62468, Control_c, 13, 11, 75
13, 62470, Note_on_c, 13, 51, 0
13, 62485, Control_c, 13, 11, 73
13, 62501, Control_c, 13, 11, 71
13, 62518, Control_c, 13, 11, 69
13, 62530, Note_on_c, 13, 47, 98
13, 62534, Control_c, 13, 11, 67
13, 62551, Control_c, 13, 11, 65
13, 62567, Control_c, 13, 11, 63
13, 62650, Note_on_c, 13, 47, 0
13, 62650, Control_c, 13, 11, 49
13, 62650, Note_on_c, 13, 48, 98
13, 62770, Note_on_c, 13, 48, 0
13, 62770, Note_on_c, 13, 44, 98
13, 62880, Note_on_c, 13, 44, 0
13, 62890, Control_c, 13, 11, 72
13, 62890, Note_on_c, 13, 51, 98
13, 62893, Control_c, 13, 11, 75
13, 62896, Control_c, 13, 11, 78
13, 62899, Control_c, 13, 11, 81
13, 62915, Control_c, 13, 11, 79
13, 62932, Control_c, 13, 11, 77
13, 62948, Control_c, 13, 11, 75
13, 62950, Note_on_c, 13, 51, 0
13, 62965, Control_c, 13, 11, 73
13, 62981, Control_c, 13, 11, 71
13, 62998, Control_c, 13, 11, 69
13, 63010, Note_on_c, 13, 47, 98
13, 63014, Control_c, 13, 11, 67
13, 63031, Control_c, 13, 11, 65
13, 63047, Control_c, 13, 11, 63
13, 63130, Note_on_c, 13, 47, 0
13, 63130, Control_c, 13, 11, 49
13, 63130, Note_on_c, 13, 48, 98
13, 63250, Note_on_c, 13, 48, 0
13, 63250, Control_c, 13, 11, 47
13, 63250, Note_on_c, 13, 45, 98
13, 63261, Control_c, 13, 11, 50
13, 63273, Control_c, 13, 11, 53
13, 63285, Control_c, 13, 11, 56
13, 63297, Control_c, 13, 11, 59
13, 63309, Control_c, 13, 11, 62
13, 63321, Control_c, 13, 11, 65
13, 63333, Control_c, 13, 11, 68
13, 63345, Control_c, 13, 11, 71
13, 63357, Control_c, 13, 11, 74
13, 63360, Note_on_c, 13, 45, 0
13, 63369, Control_c, 13, 11, 77
13, 63370, Control_c, 13, 11, 87
13, 63370, Note_on_c, 13, 45, 115
13, 63475, Note_on_c, 13, 45, 0
13, 63490, Note_on_c, 13, 57, 115
13, 63595, Note_on_c, 13, 57, 0
13, 63610, Note_on_c, 13, 57, 115
13, 63715, Note_on_c, 13, 57, 0
13, 63730, Note_on_c, 13, 57, 115
13, 63835, Note_on_c, 13, 57, 0
13, 63850, Note_on_c, 13, 57, 115
13, 63955, Note_on_c, 13, 57, 0
13, 64210, Note_on_c, 13, 45, 115
13, 64315, Note_on_c, 13, 45, 0
13, 64330, Note_on_c, 13, 47, 115
13, 64435, Note_on_c, 13, 47, 0
13, 64450, Note_on_c, 13, 59, 115
13, 64555, Note_on_c, 13, 59, 0
13, 64570, Control_c, 13, 11, 87
13, 64570, Note_on_c, 13, 59, 115
13, 64659, Control_c, 13, 11, 88
13, 64675, Note_on_c, 13, 59, 0
13, 64690, Note_on_c, 13, 59, 115
13, 64749, Control_c, 13, 11, 89
13, 64795, Note_on_c, 13, 59, 0
13, 64810, Note_on_c, 13, 59, 115
13, 64839, Control_c, 13, 11, 90
13, 64915, Note_on_c, 13, 59, 0
13, 64929, Control_c, 13, 11, 91
13, 65019, Control_c, 13, 11, 92
13, 65109, Control_c, 13, 11, 93
13, 65170, Note_on_c, 13, 47, 115
13, 65199, Control_c, 13, 11, 94
13, 65275, Note_on_c, 13, 47, 0
13, 65289, Control_c, 13, 11, 95
13, 65290, Note_on_c, 13, 48, 115
13, 65395, Note_on_c, 13, 48, 0
13, 65410, Note_on_c, 13, 60, 115
13, 65515, Note_on_c, 13, 60, 0
13, 65530, Note_on_c, 13, 60, 115
13, 65635, Note_on_c, 13, 60, 0
13, 65650, Note_on_c, 13, 60, 115
13, 65755, Note_on_c, 13, 60, 0
13, 65770, Note_on_c, 13, 50, 115
13, 65875, Note_on_c, 13, 50, 0
13, 65890, Note_on_c, 13, 62, 115
13, 65995, Note_on_c, 13, 62, 0
13, 66010, Note_on_c, 13, 62, 115
13, 66115, Note_on_c, 13, 62, 0
13, 66130, Note_on_c, 13, 62, 115
13, 66235, Note_on_c, 13, 62, 0
13, 66250, Note_on_c, 13, 52, 115
13, 66355, Note_on_c, 13, 52, 0
13, 66370, Note_on_c, 13, 64, 115
13, 66475, Note_on_c, 13, 64, 0
13, 66490, Note_on_c, 13, 64, 115
13, 66595, Note_on_c, 13, 64, 0
13, 66610, Note_on_c, 13, 64, 115
13, 66715, Note_on_c, 13, 64, 0
13, 66730, Note_on_c, 13, 47, 115
13, 66835, Note_on_c, 13, 47, 0
13, 66850, Note_on_c, 13, 59, 115
13, 66955, Note_on_c, 13, 59, 0
13, 66970, Note_on_c, 13, 59, 115
13, 67075, Note_on_c, 13, 59, 0
13, 67090, Note_on_c, 13, 59, 115
13, 67195, Note_on_c, 13, 59, 0
13, 67210, Note_on_c, 13, 48, 115
13, 67315, Note_on_c, 13, 48, 0
13, 67330, Note_on_c, 13, 60, 115
13, 67435, Note_on_c, 13, 60, 0
13, 67450, Note_on_c, 13, 60, 115
13, 67555, Note_on_c, 13, 60, 0
13, 67570, Note_on_c, 13, 60, 115
13, 67675, Note_on_c, 13, 60, 0
13, 67690, Note_on_c, 13, 45, 115
13, 67795, Note_on_c, 13, 45, 0
13, 67810, Note_on_c, 13, 57, 115
13, 67915, Note_on_c, 13, 57, 0
13, 67930, Note_on_c, 13, 57, 115
13, 68035, Note_on_c, 13, 57, 0
13, 68050, Note_on_c, 13, 57, 115
13, 68155, Note_on_c, 13, 57, 0
13, 68170, Control_c, 13, 11, 112
13, 68170, Note_on_c, 13, 55, 98
13, 68188, Control_c, 13, 11, 109
13, 68206, Control_c, 13, 11, 106
13, 68224, Control_c, 13, 11, 103
13, 68515, Note_on_c, 13, 55, 0
13, 68530, Note_on_c, 13, 55, 98
13, 68590, Note_on_c, 13, 55, 0
13, 68650, Note_on_c, 13, 54, 98
13, 68770, Note_on_c, 13, 54, 0
13, 68770, Note_on_c, 13, 55, 98
13, 68870, Note_on_c, 13, 55, 0
13, 68890, Note_on_c, 13, 50, 98
13, 68950, Note_on_c, 13, 50, 0
13, 69010, Note_on_c, 13, 52, 98
13, 69070, Note_on_c, 13, 52, 0
13, 69130, Note_on_c, 13, 52, 105
13, 69250, Note_on_c, 13, 52, 0
13, 69250, Note_on_c, 13, 50, 98
13, 69350, Note_on_c, 13, 50, 0
13, 69370, Note_on_c, 13, 55, 98
13, 69430, Note_on_c, 13, 55, 0
13, 69490, Note_on_c, 13, 55, 98
13, 69550, Note_on_c, 13, 55, 0
13, 69610, Note_on_c, 13, 54, 105
13, 69730, Note_on_c, 13, 54, 0
13, 69730, Note_on_c, 13, 55, 98
13, 69830, Note_on_c, 13, 55, 0
13, 69850, Note_on_c, 13, 50, 98
13, 69910, Note_on_c, 13, 50, 0
13, 69970, Note_on_c, 13, 52, 98
13, 70030, Note_on_c, 13, 52, 0
13, 70330, Note_on_c, 13, 52, 98
13, 70390, Note_on_c, 13, 52, 0
13, 70450, Note_on_c, 13, 50, 98
13, 70800, Note_on_c, 13, 50, 0
13, 70810, Note_on_c, 13, 48, 98
13, 70870, Note_on_c, 13, 48, 0
13, 70930, Note_on_c, 13, 47, 98
13, 71160, Note_on_c, 13, 47, 0
13, 71170, Note_on_c, 13, 45, 98
13, 71230, Note_on_c, 13, 45, 0
13, 71290, Note_on_c, 13, 43, 98
13, 71350, Note_on_c, 13, 43, 0
13, 71410, Note_on_c, 13, 54, 98
13, 71530, Note_on_c, 13, 54, 0
13, 71530, Note_on_c, 13, 52, 98
13, 71650, Note_on_c, 13, 52, 0
13, 71650, Note_on_c, 13, 50, 98
13, 71770, Note_on_c, 13, 50, 0
13, 71770, Note_on_c, 13, 48, 98
13, 71890, Note_on_c, 13, 48, 0
13, 71890, Note_on_c, 13, 47, 98
13, 72010, Note_on_c, 13, 47, 0
13, 72010, Note_on_c, 13, 48, 98
13, 72130, Note_on_c, 13, 48, 0
13, 72250, Note_on_c, 13, 48, 98
13, 72370, Note_on_c, 13, 48, 0
13, 72490, Note_on_c, 13, 48, 98
13, 72610, Note_on_c, 13, 48, 0
13, 72730, Note_on_c, 13, 48, 98
13, 72850, Note_on_c, 13, 48, 0
13, 72970, Note_on_c, 13, 48, 98
13, 73080, Note_on_c, 13, 48, 0
13, 73090, Note_on_c, 13, 48, 98
13, 73200, Note_on_c, 13, 48, 0
13, 73210, Note_on_c, 13, 48, 98
13, 73330, Note_on_c, 13, 48, 0
13, 73930, Control_c, 13, 11, 47
13, 73930, Note_on_c, 13, 50, 98
13, 74026, Note_on_c, 13, 50, 0
13, 74170, Note_on_c, 13, 52, 98
13, 74266, Note_on_c, 13, 52, 0
13, 74410, Note_on_c, 13, 49, 98
13, 74506, Note_on_c, 13, 49, 0
13, 74650, Note_on_c, 13, 50, 98
13, 74746, Note_on_c, 13, 50, 0
13, 74890, Control_c, 13, 11, 87
13, 74890, Note_on_c, 13, 48, 98
13, 75010, Note_on_c, 13, 48, 0
13, 75130, Note_on_c, 13, 48, 98
13, 75250, Note_on_c, 13, 48, 0
13, 75370, Note_on_c, 13, 48, 98
13, 75490, Note_on_c, 13, 48, 0
13, 75610, Note_on_c, 13, 48, 98
13, 75730, Note_on_c, 13, 48, 0
13, 75850, Note_on_c, 13, 48, 98
13, 75960, Note_on_c, 13, 48, 0
13, 75970, Note_on_c, 13, 48, 98
13, 76080, Note_on_c, 13, 48, 0
13, 76090, Note_on_c, 13, 48, 98
13, 76210, Note_on_c, 13, 48, 0
13, 76810, Control_c, 13, 11, 107
13, 76810, Note_on_c, 13, 61, 98
13, 76827, Control_c, 13, 11, 104
13, 76845, Control_c, 13, 11, 101
13, 76863, Control_c, 13, 11, 98
13, 76881, Control_c, 13, 11, 95
13, 76899, Control_c, 13, 11, 92
13, 76917, Control_c, 13, 11, 89
13, 77170, Note_on_c, 13, 61, 0
13, 77770, Control_c, 13, 11, 107
13, 77770, Note_on_c, 13, 62, 98
13, 77787, Control_c, 13, 11, 104
13, 77805, Control_c, 13, 11, 101
13, 77823, Control_c, 13, 11, 98
13, 77841, Control_c, 13, 11, 95
13, 77859, Control_c, 13, 11, 92
13, 77877, Control_c, 13, 11, 89
13, 78130, Note_on_c, 13, 62, 0
13, 79090, Control_c, 13, 11, 107
13, 79090, Note_on_c, 13, 54, 98
13, 79107, Control_c, 13, 11, 104
13, 79125, Control_c, 13, 11, 101
13, 79143, Control_c, 13, 11, 98
13, 79161, Control_c, 13, 11, 95
13, 79179, Control_c, 13, 11, 92
13, 79197, Control_c, 13, 11, 89
13, 79210, Note_on_c, 13, 54, 0
13, 79210, Note_on_c, 13, 55, 98
13, 79315, Note_on_c, 13, 55, 0
13, 79330, Note_on_c, 13, 49, 98
13, 79390, Note_on_c, 13, 49, 0
13, 79450, Note_on_c, 13, 50, 98
13, 79510, Note_on_c, 13, 50, 0
13, 79570, Note_on_c, 13, 46, 98
13, 79630, Note_on_c, 13, 46, 0
13, 79690, Note_on_c, 13, 47, 115
13, 79750, Note_on_c, 13, 47, 0
13, 79810, Note_on_c, 13, 46, 115
13, 79870, Note_on_c, 13, 46, 0
13, 79930, Note_on_c, 13, 47, 115
13, 79990, Note_on_c, 13, 47, 0
13, 80050, Note_on_c, 13, 48, 115
13, 80110, Note_on_c, 13, 48, 0
13, 80170, Note_on_c, 13, 49, 115
13, 80230, Note_on_c, 13, 49, 0
13, 80290, Note_on_c, 13, 50, 115
13, 80350, Note_on_c, 13, 50, 0
13, 80410, Note_on_c, 13, 51, 115
13, 80470, Note_on_c, 13, 51, 0
13, 80530, Note_on_c, 13, 52, 115
13, 80590, Note_on_c, 13, 52, 0
13, 80650, Note_on_c, 13, 53, 115
13, 80710, Note_on_c, 13, 53, 0
13, 80770, Note_on_c, 13, 54, 115
13, 80830, Note_on_c, 13, 54, 0
13, 80890, Note_on_c, 13, 55, 115
13, 80950, Note_on_c, 13, 55, 0
13, 81010, Note_on_c, 13, 49, 115
13, 81070, Note_on_c, 13, 49, 0
13, 81130, Note_on_c, 13, 50, 115
13, 81190, Note_on_c, 13, 50, 0
13, 81250, Note_on_c, 13, 49, 115
13, 81310, Note_on_c, 13, 49, 0
13, 81370, Note_on_c, 13, 50, 115
13, 81430, Note_on_c, 13, 50, 0
13, 81490, Note_on_c, 13, 50, 115
13, 81550, Note_on_c, 13, 50, 0
13, 81610, Note_on_c, 13, 43, 98
13, 81730, Note_on_c, 13, 43, 0
13, 83410, Control_c, 13, 11, 47
13, 83410, Note_on_c, 13, 59, 78
13, 83470, Note_on_c, 13, 59, 0
13, 83530, Note_on_c, 13, 57, 98
13, 83546, Control_c, 13, 11, 46
13, 83650, Note_on_c, 13, 57, 0
13, 83650, Note_on_c, 13, 55, 98
13, 83682, Control_c, 13, 11, 45
13, 83770, Note_on_c, 13, 55, 0
13, 83818, Control_c, 13, 11, 44
13, 83890, Note_on_c, 13, 55, 78
13, 83950, Note_on_c, 13, 55, 0
13, 83954, Control_c, 13, 11, 43
13, 84010, Note_on_c, 13, 52, 98
13, 84090, Control_c, 13, 11, 42
13, 84130, Note_on_c, 13, 52, 0
13, 84130, Note_on_c, 13, 50, 98
13, 84226, Control_c, 13, 11, 41
13, 84250, Note_on_c, 13, 50, 0
13, 84362, Control_c, 13, 11, 40
13, 84370, Note_on_c, 13, 50, 78
13, 84430, Note_on_c, 13, 50, 0
13, 84490, Note_on_c, 13, 48, 98
13, 84498, Control_c, 13, 11, 39
13, 84610, Note_on_c, 13, 48, 0
13, 84610, Note_on_c, 13, 47, 98
13, 84634, Control_c, 13, 11, 38
13, 84730, Note_on_c, 13, 47, 0
13, 84770, Control_c, 13, 11, 37
13, 84850, Note_on_c, 13, 47, 78
13, 84906, Control_c, 13, 11, 36
13, 84910, Note_on_c, 13, 47, 0
13, 84970, Note_on_c, 13, 48, 98
13, 85042, Control_c, 13, 11, 35
13, 85090, Note_on_c, 13, 48, 0
13, 85090, Note_on_c, 13, 47, 98
13, 85178, Control_c, 13, 11, 34
13, 85210, Note_on_c, 13, 47, 0
13, 85314, Control_c, 13, 11, 33
13, 85330, Note_on_c, 13, 47, 78
13, 85390, Note_on_c, 13, 47, 0
13, 85450, Control_c, 13, 11, 32
13, 85450, Note_on_c, 13, 45, 98
13, 85570, Note_on_c, 13, 45, 0
13, 85570, Note_on_c, 13, 43, 98
13, 85850, Control_c, 13, 11, 32
13, 85863, Control_c, 13, 11, 29
13, 85877, Control_c, 13, 11, 26
13, 85890, Control_c, 13, 11, 23
13, 85895, Note_on_c, 13, 43, 0
13, 85930, Control_c, 13, 11, 67
13, 85930, Note_on_c, 13, 44, 98
13, 85932, Control_c, 13, 11, 70
13, 85935, Control_c, 13, 11, 73
13, 85937, Control_c, 13, 11, 76
13, 85940, Control_c, 13, 11, 79
13, 85943, Control_c, 13, 11, 83
13, 85946, Control_c, 13, 11, 86
13, 85949, Control_c, 13, 11, 90
13, 85952, Control_c, 13, 11, 93
13, 85955, Control_c, 13, 11, 97
13, 85958, Control_c, 13, 11, 100
13, 86320, Control_c, 13, 11, 102
13, 86323, Control_c, 13, 11, 99
13, 86326, Control_c, 13, 11, 96
13, 86330, Control_c, 13, 11, 93
13, 86333, Control_c, 13, 11, 90
13, 86337, Control_c, 13, 11, 87
13, 86340, Control_c, 13, 11, 84
13, 86344, Control_c, 13, 11, 81
13, 86347, Control_c, 13, 11, 78
13, 86350, Control_c, 13, 11, 75
13, 86354, Control_c, 13, 11, 72
13, 86357, Control_c, 13, 11, 69
13, 86360, Note_on_c, 13, 44, 0
13, 86410, Control_c, 13, 11, 67
13, 86410, Note_on_c, 13, 46, 98
13, 86412, Control_c, 13, 11, 70
13, 86415, Control_c, 13, 11, 73
13, 86417, Control_c, 13, 11, 76
13, 86420, Control_c, 13, 11, 79
13, 86423, Control_c, 13, 11, 83
13, 86426, Control_c, 13, 11, 86
13, 86429, Control_c, 13, 11, 90
13, 86432, Control_c, 13, 11, 93
13, 86435, Control_c, 13, 11, 97
13, 86438, Control_c, 13, 11, 100
13, 86800, Control_c, 13, 11, 102
13, 86803, Control_c, 13, 11, 99
13, 86806, Control_c, 13, 11, 96
13, 86810, Control_c, 13, 11, 93
13, 86813, Control_c, 13, 11, 90
13, 86817, Control_c, 13, 11, 87
13, 86820, Control_c, 13, 11, 84
13, 86824, Control_c, 13, 11, 81
13, 86827, Control_c, 13, 11, 78
13, 86830, Control_c, 13, 11, 75
13, 86834, Control_c, 13, 11, 72
13, 86837, Control_c, 13, 11, 69
13, 86840, Note_on_c, 13, 46, 0
13, 86889, Program_c, 13, 45
13, 86892, Note_on_c, 13, 51, 52
13, 87012, Note_on_c, 13, 51, 0
13, 88990, Note_on_c, 13, 46, 41
13, 89050, Note_on_c, 13, 46, 0
13, 89050, Note_on_c, 13, 51, 41
13, 89110, Note_on_c, 13, 51, 0
13, 89290, Note_on_c, 13, 46, 41
13, 89350, Note_on_c, 13, 46, 0
13, 89410, Note_on_c, 13, 51, 41
13, 89530, Note_on_c, 13, 51, 0
13, 89590, Note_on_c, 13, 51, 41
13, 89650, Note_on_c, 13, 51, 0
13, 89650, Note_on_c, 13, 48, 41
13, 89710, Note_on_c, 13, 48, 0
13, 89710, Note_on_c, 13, 46, 41
13, 89770, Note_on_c, 13, 46, 0
13, 89770, Note_on_c, 13, 45, 41
13, 89890, Note_on_c, 13, 45, 0
13, 90010, Note_on_c, 13, 44, 41
13, 90130, Note_on_c, 13, 44, 0
13, 90130, Note_on_c, 13, 43, 41
13, 90190, Note_on_c, 13, 43, 0
13, 90190, Note_on_c, 13, 41, 41
13, 90250, Note_on_c, 13, 41, 0
13, 90250, Note_on_c, 13, 46, 41
13, 90370, Note_on_c, 13, 46, 0
13, 90370, Note_on_c, 13, 46, 41
13, 90490, Note_on_c, 13, 46, 0
13, 90490, Note_on_c, 13, 51, 28
13, 90550, Note_on_c, 13, 51, 0
13, 91119, Program_c, 13, 48
13, 91120, Control_c, 13, 11, 72
13, 91120, Note_on_c, 13, 48, 98
13, 91150, Note_on_c, 13, 48, 0
13, 91180, Note_on_c, 13, 48, 98
13, 91205, Note_on_c, 13, 48, 0
13, 91210, Control_c, 13, 11, 47
13, 91210, Note_on_c, 13, 57, 98
13, 91450, Note_on_c, 13, 57, 0
13, 91450, Note_on_c, 13, 55, 98
13, 91570, Note_on_c, 13, 55, 0
13, 91570, Note_on_c, 13, 53, 78
13, 91605, Control_c, 13, 11, 47
13, 91607, Control_c, 13, 11, 44
13, 91610, Control_c, 13, 11, 41
13, 91613, Control_c, 13, 11, 38
13, 91616, Control_c, 13, 11, 35
13, 91619, Control_c, 13, 11, 32
13, 91622, Control_c, 13, 11, 29
13, 91625, Control_c, 13, 11, 26
13, 91628, Control_c, 13, 11, 23
13, 91630, Note_on_c, 13, 53, 0
13, 92200, Control_c, 13, 11, 67
13, 92200, Note_on_c, 13, 50, 98
13, 92230, Note_on_c, 13, 50, 0
13, 92260, Control_c, 13, 11, 72
13, 92260, Note_on_c, 13, 50, 98
13, 92285, Note_on_c, 13, 50, 0
13, 92305, Control_c, 13, 11, 42
13, 92305, Note_on_c, 13, 55, 78
13, 92320, Note_on_c, 13, 55, 0
13, 92320, Note_on_c, 13, 50, 78
13, 92335, Note_on_c, 13, 50, 0
13, 92335, Note_on_c, 13, 55, 78
13, 92350, Note_on_c, 13, 55, 0
13, 92350, Note_on_c, 13, 59, 78
13, 92365, Note_on_c, 13, 59, 0
13, 92365, Note_on_c, 13, 55, 78
13, 92380, Note_on_c, 13, 55, 0
13, 92380, Note_on_c, 13, 50, 78
13, 92395, Note_on_c, 13, 50, 0
13, 92395, Note_on_c, 13, 55, 78
13, 92405, Note_on_c, 13, 55, 0
13, 92410, Note_on_c, 13, 47, 78
13, 92425, Note_on_c, 13, 47, 0
13, 92425, Note_on_c, 13, 55, 78
13, 92440, Note_on_c, 13, 55, 0
13, 92440, Note_on_c, 13, 50, 78
13, 92455, Note_on_c, 13, 50, 0
13, 92455, Note_on_c, 13, 55, 78
13, 92470, Note_on_c, 13, 55, 0
13, 92470, Note_on_c, 13, 59, 78
13, 92485, Note_on_c, 13, 59, 0
13, 92485, Note_on_c, 13, 55, 78
13, 92500, Note_on_c, 13, 55, 0
13, 92500, Note_on_c, 13, 50, 78
13, 92515, Note_on_c, 13, 50, 0
13, 92515, Note_on_c, 13, 47, 78
13, 92525, Note_on_c, 13, 47, 0
13, 92530, Note_on_c, 13, 48, 78
13, 92545, Note_on_c, 13, 48, 0
13, 92545, Note_on_c, 13, 54, 78
13, 92560, Note_on_c, 13, 54, 0
13, 92560, Note_on_c, 13, 50, 78
13, 92575, Note_on_c, 13, 50, 0
13, 92575, Note_on_c, 13, 54, 78
13, 92590, Note_on_c, 13, 54, 0
13, 92590, Note_on_c, 13, 57, 78
13, 92605, Note_on_c, 13, 57, 0
13, 92605, Note_on_c, 13, 54, 78
13, 92620, Note_on_c, 13, 54, 0
13, 92620, Note_on_c, 13, 50, 78
13, 92635, Note_on_c, 13, 50, 0
13, 92635, Note_on_c, 13, 48, 78
13, 92645, Note_on_c, 13, 48, 0
13, 92650, Control_c, 13, 11, 47
13, 92650, Note_on_c, 13, 47, 78
13, 92665, Note_on_c, 13, 47, 0
13, 92665, Note_on_c, 13, 43, 78
13, 92668, Control_c, 13, 11, 48
13, 92680, Note_on_c, 13, 43, 0
13, 92680, Note_on_c, 13, 47, 78
13, 92686, Control_c, 13, 11, 49
13, 92695, Note_on_c, 13, 47, 0
13, 92695, Note_on_c, 13, 50, 78
13, 92704, Control_c, 13, 11, 50
13, 92710, Note_on_c, 13, 50, 0
13, 92710, Note_on_c, 13, 55, 78
13, 92722, Control_c, 13, 11, 51
13, 92725, Note_on_c, 13, 55, 0
13, 92725, Note_on_c, 13, 50, 78
13, 92740, Note_on_c, 13, 50, 0
13, 92740, Control_c, 13, 11, 52
13, 92740, Note_on_c, 13, 59, 78
13, 92755, Note_on_c, 13, 59, 0
13, 92755, Note_on_c, 13, 55, 78
13, 92758, Control_c, 13, 11, 53
13, 92765, Note_on_c, 13, 55, 0
13, 92770, Note_on_c, 13, 53, 78
13, 92776, Control_c, 13, 11, 54
13, 92785, Note_on_c, 13, 53, 0
13, 92785, Note_on_c, 13, 55, 78
13, 92794, Control_c, 13, 11, 55
13, 92800, Note_on_c, 13, 55, 0
13, 92800, Note_on_c, 13, 59, 78
13, 92812, Control_c, 13, 11, 56
13, 92815, Note_on_c, 13, 59, 0
13, 92815, Note_on_c, 13, 55, 78
13, 92830, Note_on_c, 13, 55, 0
13, 92830, Control_c, 13, 11, 57
13, 92830, Note_on_c, 13, 62, 78
13, 92845, Note_on_c, 13, 62, 0
13, 92845, Note_on_c, 13, 59, 78
13, 92848, Control_c, 13, 11, 58
13, 92860, Note_on_c, 13, 59, 0
13, 92860, Note_on_c, 13, 55, 78
13, 92866, Control_c, 13, 11, 59
13, 92875, Note_on_c, 13, 55, 0
13, 92875, Note_on_c, 13, 53, 78
13, 92884, Control_c, 13, 11, 60
13, 92885, Note_on_c, 13, 53, 0
13, 92890, Note_on_c, 13, 52, 78
13, 92902, Control_c, 13, 11, 61
13, 92905, Note_on_c, 13, 52, 0
13, 92905, Note_on_c, 13, 55, 78
13, 92920, Note_on_c, 13, 55, 0
13, 92920, Control_c, 13, 11, 62
13, 92920, Note_on_c, 13, 57, 78
13, 92935, Note_on_c, 13, 57, 0
13, 92935, Note_on_c, 13, 59, 78
13, 92938, Control_c, 13, 11, 63
13, 92950, Note_on_c, 13, 59, 0
13, 92950, Note_on_c, 13, 60, 78
13, 92956, Control_c, 13, 11, 64
13, 92965, Note_on_c, 13, 60, 0
13, 92965, Note_on_c, 13, 55, 78
13, 92974, Control_c, 13, 11, 65
13, 92980, Note_on_c, 13, 55, 0
13, 92980, Note_on_c, 13, 53, 78
13, 92992, Control_c, 13, 11, 66
13, 92995, Note_on_c, 13, 53, 0
13, 92995, Note_on_c, 13, 52, 78
13, 93005, Note_on_c, 13, 52, 0
13, 93010, Control_c, 13, 11, 67
13, 93010, Note_on_c, 13, 50, 78
13, 93025, Note_on_c, 13, 50, 0
13, 93025, Note_on_c, 13, 47, 78
13, 93028, Control_c, 13, 11, 68
13, 93040, Note_on_c, 13, 47, 0
13, 93040, Note_on_c, 13, 50, 78
13, 93046, Control_c, 13, 11, 69
13, 93055, Note_on_c, 13, 50, 0
13, 93055, Note_on_c, 13, 55, 78
13, 93064, Control_c, 13, 11, 70
13, 93070, Note_on_c, 13, 55, 0
13, 93070, Note_on_c, 13, 59, 78
13, 93082, Control_c, 13, 11, 71
13, 93085, Note_on_c, 13, 59, 0
13, 93085, Note_on_c, 13, 55, 78
13, 93100, Note_on_c, 13, 55, 0
13, 93100, Control_c, 13, 11, 72
13, 93100, Note_on_c, 13, 62, 78
13, 93115, Note_on_c, 13, 62, 0
13, 93115, Note_on_c, 13, 59, 78
13, 93118, Control_c, 13, 11, 73
13, 93125, Note_on_c, 13, 59, 0
13, 93130, Note_on_c, 13, 65, 78
13, 93136, Control_c, 13, 11, 74
13, 93145, Note_on_c, 13, 65, 0
13, 93145, Note_on_c, 13, 62, 78
13, 93154, Control_c, 13, 11, 75
13, 93160, Note_on_c, 13, 62, 0
13, 93160, Note_on_c, 13, 65, 78
13, 93172, Control_c, 13, 11, 76
13, 93175, Note_on_c, 13, 65, 0
13, 93175, Note_on_c, 13, 62, 78
13, 93190, Note_on_c, 13, 62, 0
13, 93190, Control_c, 13, 11, 77
13, 93190, Note_on_c, 13, 65, 78
13, 93205, Note_on_c, 13, 65, 0
13, 93205, Note_on_c, 13, 62, 78
13, 93208, Control_c, 13, 11, 78
13, 93220, Note_on_c, 13, 62, 0
13, 93220, Note_on_c, 13, 67, 78
13, 93226, Control_c, 13, 11, 79
13, 93235, Note_on_c, 13, 67, 0
13, 93235, Note_on_c, 13, 65, 78
13, 93244, Control_c, 13, 11, 80
13, 93245, Note_on_c, 13, 65, 0
13, 93250, Note_on_c, 13, 64, 78
13, 93262, Control_c, 13, 11, 81
13, 93265, Note_on_c, 13, 64, 0
13, 93265, Note_on_c, 13, 60, 78
13, 93280, Note_on_c, 13, 60, 0
13, 93280, Control_c, 13, 11, 82
13, 93280, Note_on_c, 13, 64, 78
13, 93295, Note_on_c, 13, 64, 0
13, 93295, Note_on_c, 13, 60, 78
13, 93298, Control_c, 13, 11, 83
13, 93310, Note_on_c, 13, 60, 0
13, 93310, Note_on_c, 13, 64, 78
13, 93316, Control_c, 13, 11, 84
13, 93325, Note_on_c, 13, 64, 0
13, 93325, Note_on_c, 13, 60, 78
13, 93334, Control_c, 13, 11, 85
13, 93340, Note_on_c, 13, 60, 0
13, 93340, Note_on_c, 13, 65, 78
13, 93352, Control_c, 13, 11, 86
13, 93355, Note_on_c, 13, 65, 0
13, 93355, Note_on_c, 13, 64, 78
13, 93365, Note_on_c, 13, 64, 0
13, 93370, Control_c, 13, 11, 87
13, 93370, Note_on_c, 13, 62, 78
13, 93385, Note_on_c, 13, 62, 0
13, 93385, Note_on_c, 13, 59, 80
13, 93386, Control_c, 13, 11, 89
13, 93400, Note_on_c, 13, 59, 0
13, 93400, Note_on_c, 13, 62, 83
13, 93402, Control_c, 13, 11, 91
13, 93415, Note_on_c, 13, 62, 0
13, 93415, Note_on_c, 13, 64, 85
13, 93418, Control_c, 13, 11, 93
13, 93430, Note_on_c, 13, 64, 0
13, 93430, Note_on_c, 13, 65, 88
13, 93434, Control_c, 13, 11, 95
13, 93445, Note_on_c, 13, 65, 0
13, 93445, Note_on_c, 13, 67, 90
13, 93450, Control_c, 13, 11, 97
13, 93460, Note_on_c, 13, 67, 0
13, 93460, Note_on_c, 13, 68, 93
13, 93466, Control_c, 13, 11, 99
13, 93475, Note_on_c, 13, 68, 0
13, 93475, Note_on_c, 13, 69, 95
13, 93482, Control_c, 13, 11, 101
13, 93485, Note_on_c, 13, 69, 0
13, 93490, Note_on_c, 13, 68, 98
13, 93498, Control_c, 13, 11, 100
13, 93505, Note_on_c, 13, 68, 0
13, 93505, Note_on_c, 13, 69, 97
13, 93511, Control_c, 13, 11, 97
13, 93520, Note_on_c, 13, 69, 0
13, 93520, Note_on_c, 13, 68, 96
13, 93524, Control_c, 13, 11, 94
13, 93535, Note_on_c, 13, 68, 0
13, 93535, Note_on_c, 13, 69, 94
13, 93538, Control_c, 13, 11, 91
13, 93550, Note_on_c, 13, 69, 0
13, 93550, Note_on_c, 13, 68, 93
13, 93551, Control_c, 13, 11, 88
13, 93564, Control_c, 13, 11, 85
13, 93565, Note_on_c, 13, 68, 0
13, 93565, Note_on_c, 13, 69, 92
13, 93577, Control_c, 13, 11, 82
13, 93580, Note_on_c, 13, 69, 0
13, 93580, Note_on_c, 13, 68, 90
13, 93590, Control_c, 13, 11, 79
13, 93595, Note_on_c, 13, 68, 0
13, 93595, Note_on_c, 13, 69, 89
13, 93603, Control_c, 13, 11, 76
13, 93605, Note_on_c, 13, 69, 0
13, 93610, Note_on_c, 13, 68, 88
13, 93616, Control_c, 13, 11, 73
13, 93625, Note_on_c, 13, 68, 0
13, 93625, Note_on_c, 13, 69, 86
13, 93629, Control_c, 13, 11, 70
13, 93640, Note_on_c, 13, 69, 0
13, 93640, Note_on_c, 13, 68, 85
13, 93642, Control_c, 13, 11, 67
13, 93655, Note_on_c, 13, 68, 0
13, 93655, Control_c, 13, 11, 64
13, 93655, Note_on_c, 13, 69, 84
13, 93668, Control_c, 13, 11, 61
13, 93670, Note_on_c, 13, 69, 0
13, 93682, Control_c, 13, 11, 58
13, 93685, Note_on_c, 13, 68, 81
13, 93695, Control_c, 13, 11, 55
13, 93700, Note_on_c, 13, 68, 0
13, 93700, Note_on_c, 13, 69, 80
13, 93708, Control_c, 13, 11, 52
13, 93715, Note_on_c, 13, 69, 0
13, 93715, Note_on_c, 13, 68, 78
13, 93721, Control_c, 13, 11, 49
13, 93730, Note_on_c, 13, 68, 0
13, 93745, Note_on_c, 13, 65, 78
13, 93757, Control_c, 13, 11, 46
13, 93760, Note_on_c, 13, 65, 0
13, 93760, Note_on_c, 13, 67, 78
13, 93775, Note_on_c, 13, 67, 0
13, 93775, Note_on_c, 13, 65, 78
13, 93785, Control_c, 13, 11, 45
13, 93790, Note_on_c, 13, 65, 0
13, 93805, Note_on_c, 13, 64, 78
13, 93813, Control_c, 13, 11, 44
13, 93820, Note_on_c, 13, 64, 0
13, 93820, Note_on_c, 13, 65, 78
13, 93835, Note_on_c, 13, 65, 0
13, 93835, Note_on_c, 13, 64, 78
13, 93840, Control_c, 13, 11, 43
13, 93850, Note_on_c, 13, 64, 0
13, 93865, Note_on_c, 13, 62, 78
13, 93868, Control_c, 13, 11, 42
13, 93880, Note_on_c, 13, 62, 0
13, 93880, Note_on_c, 13, 64, 78
13, 93895, Note_on_c, 13, 64, 0
13, 93895, Note_on_c, 13, 62, 78
13, 93896, Control_c, 13, 11, 41
13, 93910, Note_on_c, 13, 62, 0
13, 93923, Control_c, 13, 11, 40
13, 93925, Note_on_c, 13, 60, 78
13, 93940, Note_on_c, 13, 60, 0
13, 93940, Note_on_c, 13, 62, 78
13, 93951, Control_c, 13, 11, 39
13, 93955, Note_on_c, 13, 62, 0
13, 93955, Note_on_c, 13, 60, 78
13, 93970, Note_on_c, 13, 60, 0
13, 93979, Control_c, 13, 11, 38
13, 93985, Note_on_c, 13, 59, 78
13, 94000, Note_on_c, 13, 59, 0
13, 94000, Note_on_c, 13, 60, 78
13, 94006, Control_c, 13, 11, 37
13, 94015, Note_on_c, 13, 60, 0
13, 94015, Note_on_c, 13, 59, 78
13, 94030, Note_on_c, 13, 59, 0
13, 94034, Control_c, 13, 11, 36
13, 94045, Note_on_c, 13, 57, 78
13, 94060, Note_on_c, 13, 57, 0
13, 94060, Note_on_c, 13, 59, 78
13, 94062, Control_c, 13, 11, 35
13, 94075, Note_on_c, 13, 59, 0
13, 94075, Note_on_c, 13, 57, 78
13, 94090, Note_on_c, 13, 57, 0
13, 94090, Control_c, 13, 11, 34
13, 94105, Control_c, 13, 11, 37
13, 94105, Note_on_c, 13, 55, 78
13, 94120, Note_on_c, 13, 55, 0
13, 94120, Note_on_c, 13, 57, 78
13, 94135, Note_on_c, 13, 57, 0
13, 94135, Note_on_c, 13, 55, 78
13, 94150, Note_on_c, 13, 55, 0
13, 94165, Note_on_c, 13, 53, 78
13, 94171, Control_c, 13, 11, 36
13, 94180, Note_on_c, 13, 53, 0
13, 94180, Note_on_c, 13, 55, 78
13, 94195, Note_on_c, 13, 55, 0
13, 94195, Note_on_c, 13, 53, 78
13, 94210, Note_on_c, 13, 53, 0
13, 94225, Note_on_c, 13, 52, 78
13, 94237, Control_c, 13, 11, 35
13, 94240, Note_on_c, 13, 52, 0
13, 94240, Note_on_c, 13, 53, 78
13, 94255, Note_on_c, 13, 53, 0
13, 94255, Note_on_c, 13, 52, 78
13, 94270, Note_on_c, 13, 52, 0
13, 94285, Note_on_c, 13, 53, 78
13, 94300, Note_on_c, 13, 53, 0
13, 94300, Note_on_c, 13, 55, 78
13, 94303, Control_c, 13, 11, 34
13, 94315, Note_on_c, 13, 55, 0
13, 94315, Note_on_c, 13, 53, 78
13, 94330, Note_on_c, 13, 53, 0
13, 94345, Note_on_c, 13, 50, 78
13, 94360, Note_on_c, 13, 50, 0
13, 94360, Note_on_c, 13, 52, 78
13, 94369, Control_c, 13, 11, 33
13, 94375, Note_on_c, 13, 52, 0
13, 94375, Note_on_c, 13, 50, 78
13, 94390, Note_on_c, 13, 50, 0
13, 94405, Note_on_c, 13, 48, 78
13, 94420, Note_on_c, 13, 48, 0
13, 94420, Note_on_c, 13, 50, 78
13, 94435, Note_on_c, 13, 50, 0
13, 94435, Control_c, 13, 11, 32
13, 94435, Note_on_c, 13, 48, 86
13, 94450, Note_on_c, 13, 48, 0
13, 94450, Note_on_c, 13, 47, 108
13, 94570, Note_on_c, 13, 47, 0
13, 94675, Note_on_c, 13, 43, 108
13, 94690, Note_on_c, 13, 43, 0
13, 94690, Note_on_c, 13, 47, 108
13, 94750, Note_on_c, 13, 47, 0
13, 94795, Note_on_c, 13, 43, 108
13, 94810, Note_on_c, 13, 43, 0
13, 94810, Note_on_c, 13, 47, 108
13, 94870, Note_on_c, 13, 47, 0
13, 95035, Note_on_c, 13, 43, 108
13, 95050, Note_on_c, 13, 43, 0
13, 95050, Note_on_c, 13, 47, 108
13, 95110, Note_on_c, 13, 47, 0
13, 95155, Note_on_c, 13, 43, 108
13, 95170, Note_on_c, 13, 43, 0
13, 95170, Note_on_c, 13, 47, 108
13, 95230, Note_on_c, 13, 47, 0
13, 95395, Note_on_c, 13, 43, 108
13, 95410, Note_on_c, 13, 43, 0
13, 95410, Note_on_c, 13, 47, 108
13, 95470, Note_on_c, 13, 47, 0
13, 95515, Note_on_c, 13, 43, 108
13, 95530, Note_on_c, 13, 43, 0
13, 95530, Note_on_c, 13, 47, 108
13, 95650, Note_on_c, 13, 47, 0
13, 95890, Note_on_c, 13, 43, 98
13, 96010, Note_on_c, 13, 43, 0
13, 96010, Control_c, 13, 11, 37
13, 96010, Note_on_c, 13, 47, 98
13, 96038, Control_c, 13, 11, 38
13, 96067, Control_c, 13, 11, 39
13, 96096, Control_c, 13, 11, 40
13, 96125, Control_c, 13, 11, 41
13, 96130, Note_on_c, 13, 47, 0
13, 96154, Control_c, 13, 11, 42
13, 96182, Control_c, 13, 11, 43
13, 96211, Control_c, 13, 11, 44
13, 96240, Control_c, 13, 11, 45
13, 96269, Control_c, 13, 11, 46
13, 96298, Control_c, 13, 11, 47
13, 96326, Control_c, 13, 11, 48
13, 96355, Control_c, 13, 11, 49
13, 96370, Note_on_c, 13, 43, 98
13, 96384, Control_c, 13, 11, 50
13, 96413, Control_c, 13, 11, 51
13, 96442, Control_c, 13, 11, 52
13, 96470, Control_c, 13, 11, 53
13, 96475, Note_on_c, 13, 43, 0
13, 96490, Note_on_c, 13, 47, 98
13, 96499, Control_c, 13, 11, 54
13, 96528, Control_c, 13, 11, 55
13, 96557, Control_c, 13, 11, 56
13, 96586, Control_c, 13, 11, 57
13, 96595, Note_on_c, 13, 47, 0
13, 96610, Note_on_c, 13, 43, 98
13, 96614, Control_c, 13, 11, 58
13, 96643, Control_c, 13, 11, 59
13, 96672, Control_c, 13, 11, 60
13, 96701, Control_c, 13, 11, 61
13, 96715, Note_on_c, 13, 43, 0
13, 96730, Control_c, 13, 11, 62
13, 96730, Note_on_c, 13, 47, 98
13, 96758, Control_c, 13, 11, 63
13, 96787, Control_c, 13, 11, 64
13, 96816, Control_c, 13, 11, 65
13, 96835, Note_on_c, 13, 47, 0
13, 96845, Control_c, 13, 11, 66
13, 96850, Note_on_c, 13, 43, 98
13, 96874, Control_c, 13, 11, 67
13, 96902, Control_c, 13, 11, 68
13, 96931, Control_c, 13, 11, 69
13, 96955, Note_on_c, 13, 43, 0
13, 96960, Control_c, 13, 11, 70
13, 96970, Note_on_c, 13, 47, 98
13, 96989, Control_c, 13, 11, 71
13, 97018, Control_c, 13, 11, 72
13, 97046, Control_c, 13, 11, 73
13, 97075, Note_on_c, 13, 47, 0
13, 97075, Control_c, 13, 11, 74
13, 97090, Note_on_c, 13, 43, 98
13, 97104, Control_c, 13, 11, 75
13, 97133, Control_c, 13, 11, 76
13, 97162, Control_c, 13, 11, 77
13, 97190, Control_c, 13, 11, 78
13, 97195, Note_on_c, 13, 43, 0
13, 97210, Note_on_c, 13, 47, 98
13, 97219, Control_c, 13, 11, 79
13, 97248, Control_c, 13, 11, 80
13, 97277, Control_c, 13, 11, 81
13, 97306, Control_c, 13, 11, 82
13, 97315, Note_on_c, 13, 47, 0
13, 97330, Note_on_c, 13, 43, 98
13, 97334, Control_c, 13, 11, 83
13, 97363, Control_c, 13, 11, 84
13, 97392, Control_c, 13, 11, 85
13, 97421, Control_c, 13, 11, 86
13, 97435, Note_on_c, 13, 43, 0
13, 97450, Control_c, 13, 11, 87
13, 97450, Note_on_c, 13, 47, 98
13, 97555, Note_on_c, 13, 47, 0
13, 97570, Note_on_c, 13, 43, 99
13, 97675, Note_on_c, 13, 43, 0
13, 97690, Note_on_c, 13, 50, 100
13, 97795, Note_on_c, 13, 50, 0
13, 97810, Note_on_c, 13, 47, 101
13, 97915, Note_on_c, 13, 47, 0
13, 97930, Control_c, 13, 11, 87
13, 97930, Note_on_c, 13, 53, 102
13, 98022, Control_c, 13, 11, 88
13, 98035, Note_on_c, 13, 53, 0
13, 98050, Note_on_c, 13, 50, 104
13, 98114, Control_c, 13, 11, 89
13, 98155, Note_on_c, 13, 50, 0
13, 98170, Note_on_c, 13, 59, 105
13, 98206, Control_c, 13, 11, 90
13, 98275, Note_on_c, 13, 59, 0
13, 98290, Note_on_c, 13, 53, 106
13, 98298, Control_c, 13, 11, 91
13, 98390, Control_c, 13, 11, 92
13, 98395, Note_on_c, 13, 53, 0
13, 98410, Note_on_c, 13, 62, 107
13, 98482, Control_c, 13, 11, 93
13, 98515, Note_on_c, 13, 62, 0
13, 98530, Note_on_c, 13, 59, 108
13, 98574, Control_c, 13, 11, 94
13, 98635, Note_on_c, 13, 59, 0
13, 98650, Note_on_c, 13, 65, 110
13, 98666, Control_c, 13, 11, 95
13, 98755, Note_on_c, 13, 65, 0
13, 98758, Control_c, 13, 11, 96
13, 98770, Note_on_c, 13, 62, 111
13, 98850, Control_c, 13, 11, 97
13, 98875, Note_on_c, 13, 62, 0
13, 98890, Note_on_c, 13, 59, 112
13, 98942, Control_c, 13, 11, 98
13, 98995, Note_on_c, 13, 59, 0
13, 99010, Note_on_c, 13, 55, 113
13, 99034, Control_c, 13, 11, 99
13, 99115, Note_on_c, 13, 55, 0
13, 99126, Control_c, 13, 11, 100
13, 99130, Note_on_c, 13, 60, 115
13, 99218, Control_c, 13, 11, 101
13, 99235, Note_on_c, 13, 60, 0
13, 99250, Note_on_c, 13, 48, 115
13, 99310, Control_c, 13, 11, 102
13, 99370, Note_on_c, 13, 48, 0
13, 99490, Note_on_c, 13, 48, 115
13, 99610, Note_on_c, 13, 48, 0
13, 99730, Note_on_c, 13, 48, 115
13, 99850, Note_on_c, 13, 48, 0
13, 99850, Note_on_c, 13, 48, 115
13, 99955, Note_on_c, 13, 48, 0
13, 99970, Note_on_c, 13, 48, 115
13, 100075, Note_on_c, 13, 48, 0
13, 100090, Note_on_c, 13, 48, 115
13, 100675, Note_on_c, 13, 48, 0
13, 100690, Note_on_c, 13, 41, 115
13, 100795, Note_on_c, 13, 41, 0
13, 100810, Note_on_c, 13, 48, 115
13, 100915, Note_on_c, 13, 48, 0
13, 100930, Note_on_c, 13, 48, 115
13, 101035, Note_on_c, 13, 48, 0
13, 101050, Note_on_c, 13, 48, 115
13, 101635, Note_on_c, 13, 48, 0
13, 101650, Note_on_c, 13, 41, 115
13, 101755, Note_on_c, 13, 41, 0
13, 101770, Note_on_c, 13, 48, 115
13, 101875, Note_on_c, 13, 48, 0
13, 101890, Note_on_c, 13, 48, 115
13, 101995, Note_on_c, 13, 48, 0
13, 102010, Note_on_c, 13, 48, 115
13, 102355, Note_on_c, 13, 48, 0
13, 102370, Note_on_c, 13, 40, 115
13, 102475, Note_on_c, 13, 40, 0
13, 102490, Note_on_c, 13, 40, 115
13, 102835, Note_on_c, 13, 40, 0
13, 102850, Note_on_c, 13, 41, 115
13, 102955, Note_on_c, 13, 41, 0
13, 102970, Note_on_c, 13, 41, 115
13, 103315, Note_on_c, 13, 41, 0
13, 103330, Note_on_c, 13, 43, 115
13, 103435, Note_on_c, 13, 43, 0
13, 103450, Note_on_c, 13, 43, 115
13, 103795, Note_on_c, 13, 43, 0
13, 103810, Note_on_c, 13, 45, 115
13, 103915, Note_on_c, 13, 45, 0
13, 103930, Note_on_c, 13, 45, 115
13, 104275, Note_on_c, 13, 45, 0
13, 104290, Note_on_c, 13, 40, 115
13, 104395, Note_on_c, 13, 40, 0
13, 104410, Note_on_c, 13, 40, 115
13, 104755, Note_on_c, 13, 40, 0
13, 104770, Note_on_c, 13, 41, 115
13, 104875, Note_on_c, 13, 41, 0
13, 104890, Note_on_c, 13, 41, 115
13, 105235, Note_on_c, 13, 41, 0
13, 105250, Note_on_c, 13, 41, 115
13, 105355, Note_on_c, 13, 41, 0
13, 105370, Note_on_c, 13, 41, 115
13, 105715, Note_on_c, 13, 41, 0
13, 105730, Note_on_c, 13, 42, 115
13, 105835, Note_on_c, 13, 42, 0
13, 105850, Note_on_c, 13, 42, 115
13, 106195, Note_on_c, 13, 42, 0
13, 106210, Note_on_c, 13, 42, 115
13, 106315, Note_on_c, 13, 42, 0
13, 106330, Note_on_c, 13, 42, 115
13, 106555, Note_on_c, 13, 42, 0
13, 106570, Note_on_c, 13, 43, 83
13, 106690, Note_on_c, 13, 43, 0
13, 107650, Control_c, 13, 11, 37
13, 107650, Note_on_c, 13, 43, 98
13, 107755, Note_on_c, 13, 43, 0
13, 107770, Note_on_c, 13, 43, 98
13, 107875, Note_on_c, 13, 43, 0
13, 107890, Note_on_c, 13, 43, 98
13, 107995, Note_on_c, 13, 43, 0
13, 108010, Note_on_c, 13, 43, 98
13, 108115, Note_on_c, 13, 43, 0
13, 108130, Note_on_c, 13, 43, 98
13, 108235, Note_on_c, 13, 43, 0
13, 108250, Note_on_c, 13, 43, 98
13, 108355, Note_on_c, 13, 43, 0
13, 108370, Note_on_c, 13, 43, 98
13, 108475, Note_on_c, 13, 43, 0
13, 108490, Note_on_c, 13, 43, 98
13, 108610, Note_on_c, 13, 43, 0
13, 109450, Control_c, 13, 11, 72
13, 109469, Control_c, 13, 11, 71
13, 109488, Control_c, 13, 11, 70
13, 109507, Control_c, 13, 11, 69
13, 109526, Control_c, 13, 11, 68
13, 109546, Control_c, 13, 11, 67
13, 109565, Control_c, 13, 11, 66
13, 109570, Note_on_c, 13, 43, 98
13, 109584, Control_c, 13, 11, 65
13, 109603, Control_c, 13, 11, 64
13, 109622, Control_c, 13, 11, 63
13, 109642, Control_c, 13, 11, 62
13, 109661, Control_c, 13, 11, 61
13, 109675, Note_on_c, 13, 43, 0
13, 109680, Control_c, 13, 11, 60
13, 109690, Note_on_c, 13, 43, 98
13, 109699, Control_c, 13, 11, 59
13, 109718, Control_c, 13, 11, 58
13, 109738, Control_c, 13, 11, 57
13, 109757, Control_c, 13, 11, 56
13, 109776, Control_c, 13, 11, 55
13, 109795, Note_on_c, 13, 43, 0
13, 109795, Control_c, 13, 11, 54
13, 109810, Note_on_c, 13, 43, 98
13, 109814, Control_c, 13, 11, 53
13, 109834, Control_c, 13, 11, 52
13, 109853, Control_c, 13, 11, 51
13, 109872, Control_c, 13, 11, 50
13, 109891, Control_c, 13, 11, 49
13, 109910, Control_c, 13, 11, 48
13, 109915, Note_on_c, 13, 43, 0
13, 109930, Control_c, 13, 11, 47
13, 109930, Note_on_c, 13, 43, 98
13, 110035, Note_on_c, 13, 43, 0
13, 110050, Note_on_c, 13, 43, 98
13, 110155, Note_on_c, 13, 43, 0
13, 110170, Note_on_c, 13, 43, 98
13, 110275, Note_on_c, 13, 43, 0
13, 110290, Note_on_c, 13, 43, 98
13, 110395, Note_on_c, 13, 43, 0
13, 110410, Note_on_c, 13, 43, 98
13, 110530, Note_on_c, 13, 43, 0
13, 111370, Control_c, 13, 11, 72
13, 111398, Control_c, 13, 11, 71
13, 111427, Control_c, 13, 11, 70
13, 111456, Control_c, 13, 11, 69
13, 111485, Control_c, 13, 11, 68
13, 111490, Note_on_c, 13, 59, 98
13, 111514, Control_c, 13, 11, 67
13, 111542, Control_c, 13, 11, 66
13, 111571, Control_c, 13, 11, 65
13, 111595, Note_on_c, 13, 59, 0
13, 111600, Control_c, 13, 11, 64
13, 111610, Note_on_c, 13, 59, 98
13, 111629, Control_c, 13, 11, 63
13, 111658, Control_c, 13, 11, 62
13, 111686, Control_c, 13, 11, 61
13, 111715, Note_on_c, 13, 59, 0
13, 111715, Control_c, 13, 11, 60
13, 111730, Note_on_c, 13, 59, 98
13, 111744, Control_c, 13, 11, 59
13, 111773, Control_c, 13, 11, 58
13, 111802, Control_c, 13, 11, 57
13, 111830, Control_c, 13, 11, 56
13, 111835, Note_on_c, 13, 59, 0
13, 111850, Note_on_c, 13, 59, 98
13, 111859, Control_c, 13, 11, 55
13, 111888, Control_c, 13, 11, 54
13, 111917, Control_c, 13, 11, 53
13, 111946, Control_c, 13, 11, 52
13, 111955, Note_on_c, 13, 59, 0
13, 111970, Note_on_c, 13, 59, 98
13, 111974, Control_c, 13, 11, 51
13, 112003, Control_c, 13, 11, 50
13, 112032, Control_c, 13, 11, 49
13, 112061, Control_c, 13, 11, 48
13, 112075, Note_on_c, 13, 59, 0
13, 112090, Control_c, 13, 11, 47
13, 112090, Note_on_c, 13, 59, 98
13, 112195, Note_on_c, 13, 59, 0
13, 112210, Note_on_c, 13, 59, 98
13, 112330, Note_on_c, 13, 59, 0
13, 112450, Note_on_c, 13, 60, 98
13, 112555, Note_on_c, 13, 60, 0
13, 112570, Note_on_c, 13, 60, 98
13, 112675, Note_on_c, 13, 60, 0
13, 112690, Note_on_c, 13, 60, 98
13, 112810, Note_on_c, 13, 60, 0
13, 112930, Note_on_c, 13, 53, 98
13, 113035, Note_on_c, 13, 53, 0
13, 113050, Note_on_c, 13, 53, 98
13, 113155, Note_on_c, 13, 53, 0
13, 113170, Note_on_c, 13, 53, 98
13, 113290, Note_on_c, 13, 53, 0
13, 113410, Note_on_c, 13, 55, 98
13, 113515, Note_on_c, 13, 55, 0
13, 113530, Note_on_c, 13, 55, 98
13, 113635, Note_on_c, 13, 55, 0
13, 113650, Note_on_c, 13, 55, 98
13, 113770, Note_on_c, 13, 55, 0
13, 113890, Note_on_c, 13, 55, 98
13, 113995, Note_on_c, 13, 55, 0
13, 114010, Note_on_c, 13, 55, 98
13, 114115, Note_on_c, 13, 55, 0
13, 114130, Note_on_c, 13, 55, 98
13, 114245, Control_c, 13, 11, 47
13, 114246, Control_c, 13, 11, 52
13, 114247, Control_c, 13, 11, 57
13, 114248, Control_c, 13, 11, 62
13, 114249, Control_c, 13, 11, 67
13, 114250, Note_on_c, 13, 55, 0
13, 114250, Control_c, 13, 11, 72
13, 114269, Control_c, 13, 11, 71
13, 114288, Control_c, 13, 11, 70
13, 114307, Control_c, 13, 11, 69
13, 114326, Control_c, 13, 11, 68
13, 114346, Control_c, 13, 11, 67
13, 114365, Control_c, 13, 11, 66
13, 114370, Note_on_c, 13, 59, 98
13, 114384, Control_c, 13, 11, 65
13, 114403, Control_c, 13, 11, 64
13, 114422, Control_c, 13, 11, 63
13, 114442, Control_c, 13, 11, 62
13, 114461, Control_c, 13, 11, 61
13, 114475, Note_on_c, 13, 59, 0
13, 114480, Control_c, 13, 11, 60
13, 114490, Note_on_c, 13, 59, 98
13, 114499, Control_c, 13, 11, 59
13, 114518, Control_c, 13, 11, 58
13, 114538, Control_c, 13, 11, 57
13, 114557, Control_c, 13, 11, 56
13, 114576, Control_c, 13, 11, 55
13, 114595, Note_on_c, 13, 59, 0
13, 114595, Control_c, 13, 11, 54
13, 114610, Note_on_c, 13, 59, 98
13, 114614, Control_c, 13, 11, 53
13, 114634, Control_c, 13, 11, 52
13, 114653, Control_c, 13, 11, 51
13, 114672, Control_c, 13, 11, 50
13, 114691, Control_c, 13, 11, 49
13, 114710, Control_c, 13, 11, 48
13, 114715, Note_on_c, 13, 59, 0
13, 114730, Control_c, 13, 11, 47
13, 114730, Note_on_c, 13, 59, 98
13, 114835, Note_on_c, 13, 59, 0
13, 114850, Note_on_c, 13, 59, 98
13, 114955, Note_on_c, 13, 59, 0
13, 114970, Note_on_c, 13, 59, 98
13, 115075, Note_on_c, 13, 59, 0
13, 115090, Note_on_c, 13, 59, 98
13, 115210, Note_on_c, 13, 59, 0
13, 115330, Note_on_c, 13, 60, 98
13, 115435, Note_on_c, 13, 60, 0
13, 115450, Note_on_c, 13, 60, 98
13, 115555, Note_on_c, 13, 60, 0
13, 115570, Note_on_c, 13, 60, 98
13, 115690, Note_on_c, 13, 60, 0
13, 115690, Control_c, 13, 11, 47
13, 115726, Control_c, 13, 11, 48
13, 115762, Control_c, 13, 11, 49
13, 115798, Control_c, 13, 11, 50
13, 115810, Note_on_c, 13, 60, 98
13, 115834, Control_c, 13, 11, 51
13, 115870, Control_c, 13, 11, 52
13, 115906, Control_c, 13, 11, 53
13, 115915, Note_on_c, 13, 60, 0
13, 115930, Note_on_c, 13, 60, 98
13, 115942, Control_c, 13, 11, 54
13, 115978, Control_c, 13, 11, 55
13, 116014, Control_c, 13, 11, 56
13, 116035, Note_on_c, 13, 60, 0
13, 116050, Control_c, 13, 11, 57
13, 116050, Note_on_c, 13, 60, 98
13, 116086, Control_c, 13, 11, 58
13, 116122, Control_c, 13, 11, 59
13, 116158, Control_c, 13, 11, 60
13, 116170, Note_on_c, 13, 60, 0
13, 116194, Control_c, 13, 11, 61
13, 116230, Control_c, 13, 11, 62
13, 116266, Control_c, 13, 11, 63
13, 116290, Note_on_c, 13, 58, 98
13, 116302, Control_c, 13, 11, 64
13, 116338, Control_c, 13, 11, 65
13, 116374, Control_c, 13, 11, 66
13, 116395, Note_on_c, 13, 58, 0
13, 116410, Control_c, 13, 11, 67
13, 116410, Note_on_c, 13, 58, 98
13, 116446, Control_c, 13, 11, 68
13, 116482, Control_c, 13, 11, 69
13, 116515, Note_on_c, 13, 58, 0
13, 116518, Control_c, 13, 11, 70
13, 116530, Note_on_c, 13, 58, 98
13, 116554, Control_c, 13, 11, 71
13, 116590, Control_c, 13, 11, 72
13, 116626, Control_c, 13, 11, 73
13, 116650, Note_on_c, 13, 58, 0
13, 116662, Control_c, 13, 11, 74
13, 116698, Control_c, 13, 11, 75
13, 116734, Control_c, 13, 11, 76
13, 116770, Control_c, 13, 11, 77
13, 116770, Note_on_c, 13, 58, 98
13, 116806, Control_c, 13, 11, 78
13, 116842, Control_c, 13, 11, 79
13, 116875, Note_on_c, 13, 58, 0
13, 116878, Control_c, 13, 11, 80
13, 116890, Note_on_c, 13, 46, 98
13, 116914, Control_c, 13, 11, 81
13, 116950, Control_c, 13, 11, 82
13, 116986, Control_c, 13, 11, 83
13, 116995, Note_on_c, 13, 46, 0
13, 117010, Note_on_c, 13, 46, 98
13, 117022, Control_c, 13, 11, 84
13, 117058, Control_c, 13, 11, 85
13, 117094, Control_c, 13, 11, 86
13, 117115, Note_on_c, 13, 46, 0
13, 117130, Control_c, 13, 11, 87
13, 117130, Note_on_c, 13, 51, 98
13, 117250, Note_on_c, 13, 51, 0
13, 117730, Control_c, 13, 11, 47
13, 117730, Note_on_c, 13, 51, 98
13, 117790, Note_on_c, 13, 51, 0
13, 117850, Note_on_c, 13, 50, 98
13, 117910, Note_on_c, 13, 50, 0
13, 117970, Note_on_c, 13, 51, 98
13, 118030, Note_on_c, 13, 51, 0
13, 118090, Note_on_c, 13, 53, 98
13, 118210, Note_on_c, 13, 53, 0
13, 118210, Note_on_c, 13, 50, 98
13, 118320, Note_on_c, 13, 50, 0
13, 118330, Note_on_c, 13, 46, 98
13, 118390, Note_on_c, 13, 46, 0
13, 118450, Note_on_c, 13, 44, 98
13, 118510, Note_on_c, 13, 44, 0
13, 118570, Note_on_c, 13, 43, 98
13, 118630, Note_on_c, 13, 43, 0
13, 118690, Note_on_c, 13, 46, 98
13, 118750, Note_on_c, 13, 46, 0
13, 118810, Note_on_c, 13, 48, 98
13, 118870, Note_on_c, 13, 48, 0
13, 118930, Control_c, 13, 11, 47
13, 118930, Note_on_c, 13, 52, 98
13, 118939, Control_c, 13, 11, 50
13, 118948, Control_c, 13, 11, 53
13, 118957, Control_c, 13, 11, 56
13, 118966, Control_c, 13, 11, 59
13, 118975, Control_c, 13, 11, 62
13, 118984, Control_c, 13, 11, 65
13, 118990, Note_on_c, 13, 52, 0
13, 118993, Control_c, 13, 11, 68
13, 119002, Control_c, 13, 11, 71
13, 119011, Control_c, 13, 11, 74
13, 119020, Control_c, 13, 11, 77
13, 119029, Control_c, 13, 11, 80
13, 119038, Control_c, 13, 11, 83
13, 119047, Control_c, 13, 11, 86
13, 119050, Note_on_c, 13, 53, 98
13, 119110, Note_on_c, 13, 53, 0
13, 119650, Control_c, 13, 11, 47
13, 119650, Note_on_c, 13, 53, 98
13, 119710, Note_on_c, 13, 53, 0
13, 119770, Note_on_c, 13, 52, 98
13, 119830, Note_on_c, 13, 52, 0
13, 119890, Note_on_c, 13, 53, 98
13, 119950, Note_on_c, 13, 53, 0
13, 120010, Note_on_c, 13, 55, 98
13, 120130, Note_on_c, 13, 55, 0
13, 120130, Note_on_c, 13, 52, 98
13, 120240, Note_on_c, 13, 52, 0
13, 120250, Note_on_c, 13, 48, 98
13, 120310, Note_on_c, 13, 48, 0
13, 120370, Note_on_c, 13, 46, 98
13, 120430, Note_on_c, 13, 46, 0
13, 120490, Note_on_c, 13, 44, 98
13, 120550, Note_on_c, 13, 44, 0
13, 120610, Note_on_c, 13, 48, 98
13, 120670, Note_on_c, 13, 48, 0
13, 120730, Note_on_c, 13, 53, 98
13, 120790, Note_on_c, 13, 53, 0
13, 120850, Note_on_c, 13, 55, 98
13, 120910, Note_on_c, 13, 55, 0
13, 120970, Control_c, 13, 11, 72
13, 120970, Note_on_c, 13, 56, 98
13, 120974, Control_c, 13, 11, 75
13, 120979, Control_c, 13, 11, 78
13, 120983, Control_c, 13, 11, 81
13, 121006, Control_c, 13, 11, 79
13, 121019, Control_c, 13, 11, 76
13, 121033, Control_c, 13, 11, 73
13, 121046, Control_c, 13, 11, 70
13, 121060, Control_c, 13, 11, 67
13, 121073, Control_c, 13, 11, 64
13, 121087, Control_c, 13, 11, 61
13, 121090, Note_on_c, 13, 56, 0
13, 121090, Note_on_c, 13, 53, 98
13, 121100, Control_c, 13, 11, 58
13, 121114, Control_c, 13, 11, 55
13, 121127, Control_c, 13, 11, 52
13, 121141, Control_c, 13, 11, 49
13, 121200, Note_on_c, 13, 53, 0
13, 121210, Note_on_c, 13, 50, 98
13, 121270, Note_on_c, 13, 50, 0
13, 121330, Note_on_c, 13, 48, 98
13, 121390, Note_on_c, 13, 48, 0
13, 121450, Note_on_c, 13, 47, 98
13, 121510, Note_on_c, 13, 47, 0
13, 121570, Note_on_c, 13, 50, 98
13, 121630, Note_on_c, 13, 50, 0
13, 121690, Note_on_c, 13, 53, 98
13, 121750, Note_on_c, 13, 53, 0
13, 121810, Note_on_c, 13, 55, 98
13, 121870, Note_on_c, 13, 55, 0
13, 121930, Control_c, 13, 11, 72
13, 121930, Note_on_c, 13, 56, 98
13, 121934, Control_c, 13, 11, 75
13, 121939, Control_c, 13, 11, 78
13, 121943, Control_c, 13, 11, 81
13, 121966, Control_c, 13, 11, 79
13, 121979, Control_c, 13, 11, 76
13, 121993, Control_c, 13, 11, 73
13, 122006, Control_c, 13, 11, 70
13, 122020, Control_c, 13, 11, 67
13, 122033, Control_c, 13, 11, 64
13, 122047, Control_c, 13, 11, 61
13, 122050, Note_on_c, 13, 56, 0
13, 122050, Note_on_c, 13, 53, 98
13, 122060, Control_c, 13, 11, 58
13, 122074, Control_c, 13, 11, 55
13, 122087, Control_c, 13, 11, 52
13, 122101, Control_c, 13, 11, 49
13, 122160, Note_on_c, 13, 53, 0
13, 122170, Note_on_c, 13, 50, 98
13, 122230, Note_on_c, 13, 50, 0
13, 122290, Note_on_c, 13, 48, 98
13, 122350, Note_on_c, 13, 48, 0
13, 122410, Note_on_c, 13, 47, 98
13, 122470, Note_on_c, 13, 47, 0
13, 126250, Control_c, 13, 11, 47
13, 126250, Note_on_c, 13, 56, 83
13, 126370, Note_on_c, 13, 56, 0
13, 126370, Note_on_c, 13, 55, 90
13, 126490, Note_on_c, 13, 55, 0
13, 126490, Note_on_c, 13, 53, 98
13, 126610, Note_on_c, 13, 53, 0
13, 126610, Note_on_c, 13, 51, 98
13, 126715, Note_on_c, 13, 51, 0
13, 126730, Note_on_c, 13, 50, 98
13, 127330, Note_on_c, 13, 50, 0
13, 127330, Note_on_c, 13, 51, 98
13, 127450, Note_on_c, 13, 51, 0
13, 127450, Note_on_c, 13, 47, 98
13, 127570, Note_on_c, 13, 47, 0
13, 127570, Note_on_c, 13, 48, 98
13, 127675, Note_on_c, 13, 48, 0
13, 127690, Note_on_c, 13, 50, 98
13, 128290, Note_on_c, 13, 50, 0
13, 128290, Note_on_c, 13, 51, 98
13, 128410, Note_on_c, 13, 51, 0
13, 128410, Note_on_c, 13, 47, 98
13, 128530, Note_on_c, 13, 47, 0
13, 128530, Note_on_c, 13, 48, 98
13, 128635, Note_on_c, 13, 48, 0
13, 128650, Note_on_c, 13, 50, 98
13, 128770, Note_on_c, 13, 50, 0
13, 131890, Note_on_c, 13, 49, 79
13, 132010, Note_on_c, 13, 49, 0
13, 132010, Note_on_c, 13, 50, 88
13, 132130, Note_on_c, 13, 50, 0
13, 132130, Note_on_c, 13, 53, 98
13, 132250, Note_on_c, 13, 53, 0
13, 132250, Note_on_c, 13, 45, 98
13, 132370, Note_on_c, 13, 45, 0
13, 132370, Note_on_c, 13, 47, 98
13, 132490, Note_on_c, 13, 47, 0
13, 132490, Note_on_c, 13, 48, 83
13, 132610, Note_on_c, 13, 48, 0
13, 132970, Control_c, 13, 11, 47
13, 133150, Control_c, 13, 11, 48
13, 133330, Control_c, 13, 11, 49
13, 133330, Note_on_c, 13, 48, 98
13, 133435, Note_on_c, 13, 48, 0
13, 133450, Note_on_c, 13, 48, 98
13, 133510, Control_c, 13, 11, 50
13, 133555, Note_on_c, 13, 48, 0
13, 133690, Control_c, 13, 11, 51
13, 133870, Control_c, 13, 11, 52
13, 134050, Control_c, 13, 11, 53
13, 134230, Control_c, 13, 11, 54
13, 134290, Note_on_c, 13, 48, 98
13, 134395, Note_on_c, 13, 48, 0
13, 134410, Control_c, 13, 11, 55
13, 134410, Note_on_c, 13, 47, 98
13, 134515, Note_on_c, 13, 47, 0
13, 134590, Control_c, 13, 11, 56
13, 134770, Control_c, 13, 11, 57
13, 134950, Control_c, 13, 11, 58
13, 135130, Control_c, 13, 11, 59
13, 135250, Note_on_c, 13, 47, 98
13, 135310, Control_c, 13, 11, 60
13, 135355, Note_on_c, 13, 47, 0
13, 135370, Note_on_c, 13, 47, 98
13, 135475, Note_on_c, 13, 47, 0
13, 135490, Control_c, 13, 11, 61
13, 135670, Control_c, 13, 11, 62
13, 135850, Control_c, 13, 11, 63
13, 136030, Control_c, 13, 11, 64
13, 136210, Control_c, 13, 11, 65
13, 136210, Note_on_c, 13, 47, 98
13, 136315, Note_on_c, 13, 47, 0
13, 136330, Note_on_c, 13, 48, 98
13, 136390, Control_c, 13, 11, 66
13, 136435, Note_on_c, 13, 48, 0
13, 136570, Control_c, 13, 11, 67
13, 136690, Note_on_c, 13, 48, 98
13, 136750, Control_c, 13, 11, 68
13, 136795, Note_on_c, 13, 48, 0
13, 136810, Note_on_c, 13, 48, 98
13, 136915, Note_on_c, 13, 48, 0
13, 136930, Control_c, 13, 11, 69
13, 137110, Control_c, 13, 11, 70
13, 137170, Note_on_c, 13, 48, 98
13, 137275, Note_on_c, 13, 48, 0
13, 137290, Control_c, 13, 11, 71
13, 137290, Note_on_c, 13, 48, 98
13, 137395, Note_on_c, 13, 48, 0
13, 137470, Control_c, 13, 11, 72
13, 137650, Control_c, 13, 11, 73
13, 137650, Note_on_c, 13, 48, 98
13, 137755, Note_on_c, 13, 48, 0
13, 137770, Note_on_c, 13, 48, 98
13, 137830, Control_c, 13, 11, 74
13, 137875, Note_on_c, 13, 48, 0
13, 138010, Control_c, 13, 11, 75
13, 138130, Note_on_c, 13, 48, 98
13, 138190, Control_c, 13, 11, 76
13, 138235, Note_on_c, 13, 48, 0
13, 138250, Note_on_c, 13, 47, 98
13, 138355, Note_on_c, 13, 47, 0
13, 138370, Control_c, 13, 11, 77
13, 138550, Control_c, 13, 11, 78
13, 138610, Note_on_c, 13, 47, 98
13, 138715, Note_on_c, 13, 47, 0
13, 138730, Control_c, 13, 11, 79
13, 138730, Note_on_c, 13, 47, 98
13, 138835, Note_on_c, 13, 47, 0
13, 138910, Control_c, 13, 11, 80
13, 139090, Control_c, 13, 11, 81
13, 139090, Note_on_c, 13, 47, 98
13, 139195, Note_on_c, 13, 47, 0
13, 139210, Note_on_c, 13, 47, 98
13, 139270, Control_c, 13, 11, 82
13, 139315, Note_on_c, 13, 47, 0
13, 139450, Control_c, 13, 11, 83
13, 139570, Note_on_c, 13, 47, 98
13, 139630, Control_c, 13, 11, 84
13, 139675, Note_on_c, 13, 47, 0
13, 139690, Note_on_c, 13, 47, 98
13, 139795, Note_on_c, 13, 47, 0
13, 139810, Control_c, 13, 11, 85
13, 139990, Control_c, 13, 11, 86
13, 140050, Note_on_c, 13, 47, 98
13, 140155, Note_on_c, 13, 47, 0
13, 140170, Control_c, 13, 11, 87
13, 140170, Note_on_c, 13, 48, 98
13, 140275, Note_on_c, 13, 48, 0
13, 140290, Note_on_c, 13, 67, 98
13, 140395, Note_on_c, 13, 67, 0
13, 140410, Note_on_c, 13, 64, 98
13, 140515, Note_on_c, 13, 64, 0
13, 140530, Note_on_c, 13, 60, 98
13, 140635, Note_on_c, 13, 60, 0
13, 140650, Note_on_c, 13, 55, 98
13, 140755, Note_on_c, 13, 55, 0
13, 140770, Note_on_c, 13, 52, 98
13, 140875, Note_on_c, 13, 52, 0
13, 140890, Note_on_c, 13, 48, 98
13, 140995, Note_on_c, 13, 48, 0
13, 141010, Note_on_c, 13, 48, 98
13, 141115, Note_on_c, 13, 48, 0
13, 141130, Note_on_c, 13, 48, 98
13, 141235, Note_on_c, 13, 48, 0
13, 141250, Note_on_c, 13, 67, 98
13, 141355, Note_on_c, 13, 67, 0
13, 141370, Note_on_c, 13, 64, 98
13, 141475, Note_on_c, 13, 64, 0
13, 141490, Note_on_c, 13, 60, 98
13, 141595, Note_on_c, 13, 60, 0
13, 141610, Note_on_c, 13, 55, 98
13, 141715, Note_on_c, 13, 55, 0
13, 141730, Note_on_c, 13, 52, 98
13, 141835, Note_on_c, 13, 52, 0
13, 141850, Note_on_c, 13, 48, 98
13, 141955, Note_on_c, 13, 48, 0
13, 141970, Note_on_c, 13, 48, 98
13, 142075, Note_on_c, 13, 48, 0
13, 142090, Control_c, 13, 11, 87
13, 142090, Note_on_c, 13, 43, 98
13, 142186, Control_c, 13, 11, 88
13, 142195, Note_on_c, 13, 43, 0
13, 142210, Note_on_c, 13, 65, 98
13, 142282, Control_c, 13, 11, 89
13, 142315, Note_on_c, 13, 65, 0
13, 142330, Note_on_c, 13, 62, 98
13, 142378, Control_c, 13, 11, 90
13, 142435, Note_on_c, 13, 62, 0
13, 142450, Note_on_c, 13, 55, 98
13, 142474, Control_c, 13, 11, 91
13, 142555, Note_on_c, 13, 55, 0
13, 142570, Control_c, 13, 11, 92
13, 142570, Note_on_c, 13, 53, 98
13, 142666, Control_c, 13, 11, 93
13, 142675, Note_on_c, 13, 53, 0
13, 142690, Note_on_c, 13, 50, 98
13, 142762, Control_c, 13, 11, 94
13, 142795, Note_on_c, 13, 50, 0
13, 142810, Note_on_c, 13, 43, 98
13, 142858, Control_c, 13, 11, 95
13, 142915, Note_on_c, 13, 43, 0
13, 142930, Note_on_c, 13, 55, 98
13, 142954, Control_c, 13, 11, 96
13, 143035, Note_on_c, 13, 55, 0
13, 143050, Control_c, 13, 11, 97
13, 143050, Note_on_c, 13, 55, 98
13, 143146, Control_c, 13, 11, 98
13, 143155, Note_on_c, 13, 55, 0
13, 143170, Note_on_c, 13, 65, 98
13, 143242, Control_c, 13, 11, 99
13, 143275, Note_on_c, 13, 65, 0
13, 143290, Note_on_c, 13, 62, 98
13, 143338, Control_c, 13, 11, 100
13, 143395, Note_on_c, 13, 62, 0
13, 143410, Note_on_c, 13, 55, 98
13, 143434, Control_c, 13, 11, 101
13, 143515, Note_on_c, 13, 55, 0
13, 143530, Control_c, 13, 11, 102
13, 143530, Note_on_c, 13, 53, 98
13, 143626, Control_c, 13, 11, 103
13, 143635, Note_on_c, 13, 53, 0
13, 143650, Note_on_c, 13, 50, 98
13, 143722, Control_c, 13, 11, 104
13, 143755, Note_on_c, 13, 50, 0
13, 143770, Note_on_c, 13, 43, 98
13, 143818, Control_c, 13, 11, 105
13, 143875, Note_on_c, 13, 43, 0
13, 143890, Note_on_c, 13, 55, 98
13, 143914, Control_c, 13, 11, 106
13, 143995, Note_on_c, 13, 55, 0
13, 144010, Control_c, 13, 11, 125
13, 144010, Note_on_c, 13, 48, 105
13, 144033, Control_c, 13, 11, 122
13, 144057, Control_c, 13, 11, 118
13, 144081, Control_c, 13, 11, 115
13, 144105, Control_c, 13, 11, 111
13, 144129, Control_c, 13, 11, 107
13, 144312, Note_on_c, 13, 48, 0
13, 144370, Note_on_c, 13, 45, 115
13, 144456, Note_on_c, 13, 45, 0
13, 144490, Control_c, 13, 11, 125
13, 144490, Note_on_c, 13, 45, 105
13, 144513, Control_c, 13, 11, 122
13, 144537, Control_c, 13, 11, 118
13, 144561, Control_c, 13, 11, 115
13, 144585, Control_c, 13, 11, 111
13, 144609, Control_c, 13, 11, 107
13, 144792, Note_on_c, 13, 45, 0
13, 144850, Note_on_c, 13, 43, 115
13, 144936, Note_on_c, 13, 43, 0
13, 144970, Control_c, 13, 11, 125
13, 144970, Note_on_c, 13, 43, 105
13, 144993, Control_c, 13, 11, 122
13, 145017, Control_c, 13, 11, 118
13, 145041, Control_c, 13, 11, 115
13, 145065, Control_c, 13, 11, 111
13, 145089, Control_c, 13, 11, 107
13, 145272, Note_on_c, 13, 43, 0
13, 145330, Note_on_c, 13, 41, 115
13, 145416, Note_on_c, 13, 41, 0
13, 145450, Control_c, 13, 11, 125
13, 145450, Note_on_c, 13, 41, 105
13, 145473, Control_c, 13, 11, 122
13, 145497, Control_c, 13, 11, 118
13, 145521, Control_c, 13, 11, 115
13, 145545, Control_c, 13, 11, 111
13, 145569, Control_c, 13, 11, 107
13, 145752, Note_on_c, 13, 41, 0
13, 145810, Note_on_c, 13, 40, 115
13, 145896, Note_on_c, 13, 40, 0
13, 145930, Note_on_c, 13, 40, 112
13, 145990, Note_on_c, 13, 40, 0
13, 146050, Note_on_c, 13, 45, 105
13, 146110, Note_on_c, 13, 45, 0
13, 146170, Note_on_c, 13, 45, 112
13, 146230, Note_on_c, 13, 45, 0
13, 146290, Note_on_c, 13, 43, 105
13, 146350, Note_on_c, 13, 43, 0
13, 146410, Note_on_c, 13, 43, 112
13, 146470, Note_on_c, 13, 43, 0
13, 146530, Note_on_c, 13, 41, 105
13, 146590, Note_on_c, 13, 41, 0
13, 146650, Note_on_c, 13, 41, 112
13, 146710, Note_on_c, 13, 41, 0
13, 146770, Note_on_c, 13, 40, 105
13, 146830, Note_on_c, 13, 40, 0
13, 146890, Note_on_c, 13, 40, 112
13, 146950, Note_on_c, 13, 40, 0
13, 147010, Note_on_c, 13, 41, 105
13, 147070, Note_on_c, 13, 41, 0
13, 147130, Note_on_c, 13, 41, 112
13, 147190, Note_on_c, 13, 41, 0
13, 147250, Note_on_c, 13, 41, 105
13, 147310, Note_on_c, 13, 41, 0
13, 147370, Note_on_c, 13, 41, 112
13, 147430, Note_on_c, 13, 41, 0
13, 147490, Note_on_c, 13, 41, 105
13, 147550, Note_on_c, 13, 41, 0
13, 147610, Note_on_c, 13, 41, 112
13, 147670, Note_on_c, 13, 41, 0
13, 147730, Note_on_c, 13, 41, 105
13, 147790, Note_on_c, 13, 41, 0
13, 147850, Control_c, 13, 11, 122
13, 147850, Note_on_c, 13, 42, 98
13, 147873, Control_c, 13, 11, 120
13, 147897, Control_c, 13, 11, 118
13, 147904, Note_on_c, 13, 42, 0
13, 147910, Note_on_c, 13, 54, 98
13, 147921, Control_c, 13, 11, 116
13, 147945, Control_c, 13, 11, 114
13, 147955, Note_on_c, 13, 54, 0
13, 147969, Control_c, 13, 11, 112
13, 147970, Note_on_c, 13, 54, 98
13, 147993, Control_c, 13, 11, 110
13, 148015, Note_on_c, 13, 54, 0
13, 148017, Control_c, 13, 11, 108
13, 148030, Note_on_c, 13, 54, 98
13, 148041, Control_c, 13, 11, 106
13, 148065, Control_c, 13, 11, 104
13, 148075, Note_on_c, 13, 54, 0
13, 148089, Control_c, 13, 11, 102
13, 148090, Note_on_c, 13, 54, 98
13, 148135, Note_on_c, 13, 54, 0
13, 148150, Note_on_c, 13, 54, 98
13, 148195, Note_on_c, 13, 54, 0
13, 148210, Note_on_c, 13, 54, 98
13, 148255, Note_on_c, 13, 54, 0
13, 148270, Note_on_c, 13, 54, 98
13, 148315, Note_on_c, 13, 54, 0
13, 148330, Note_on_c, 13, 54, 98
13, 148375, Note_on_c, 13, 54, 0
13, 148390, Note_on_c, 13, 54, 98
13, 148435, Note_on_c, 13, 54, 0
13, 148450, Note_on_c, 13, 54, 98
13, 148495, Note_on_c, 13, 54, 0
13, 148510, Note_on_c, 13, 54, 98
13, 148555, Note_on_c, 13, 54, 0
13, 148570, Note_on_c, 13, 54, 98
13, 148615, Note_on_c, 13, 54, 0
13, 148630, Note_on_c, 13, 54, 98
13, 148675, Note_on_c, 13, 54, 0
13, 148690, Note_on_c, 13, 54, 98
13, 148735, Note_on_c, 13, 54, 0
13, 148750, Note_on_c, 13, 54, 98
13, 148795, Note_on_c, 13, 54, 0
13, 148810, Control_c, 13, 11, 122
13, 148810, Note_on_c, 13, 43, 98
13, 148833, Control_c, 13, 11, 120
13, 148857, Control_c, 13, 11, 118
13, 148864, Note_on_c, 13, 43, 0
13, 148870, Note_on_c, 13, 55, 98
13, 148881, Control_c, 13, 11, 116
13, 148905, Control_c, 13, 11, 114
13, 148915, Note_on_c, 13, 55, 0
13, 148929, Control_c, 13, 11, 112
13, 148930, Note_on_c, 13, 55, 98
13, 148953, Control_c, 13, 11, 110
13, 148975, Note_on_c, 13, 55, 0
13, 148977, Control_c, 13, 11, 108
13, 148990, Note_on_c, 13, 55, 98
13, 149001, Control_c, 13, 11, 106
13, 149025, Control_c, 13, 11, 104
13, 149035, Note_on_c, 13, 55, 0
13, 149049, Control_c, 13, 11, 102
13, 149050, Note_on_c, 13, 55, 98
13, 149095, Note_on_c, 13, 55, 0
13, 149110, Note_on_c, 13, 55, 98
13, 149155, Note_on_c, 13, 55, 0
13, 149170, Note_on_c, 13, 55, 98
13, 149215, Note_on_c, 13, 55, 0
13, 149230, Note_on_c, 13, 55, 98
13, 149275, Note_on_c, 13, 55, 0
13, 149290, Note_on_c, 13, 55, 98
13, 149335, Note_on_c, 13, 55, 0
13, 149350, Note_on_c, 13, 55, 98
13, 149395, Note_on_c, 13, 55, 0
13, 149410, Note_on_c, 13, 55, 98
13, 149455, Note_on_c, 13, 55, 0
13, 149470, Note_on_c, 13, 55, 98
13, 149515, Note_on_c, 13, 55, 0
13, 149530, Note_on_c, 13, 55, 98
13, 149575, Note_on_c, 13, 55, 0
13, 149590, Note_on_c, 13, 55, 98
13, 149635, Note_on_c, 13, 55, 0
13, 149650, Note_on_c, 13, 55, 98
13, 149695, Note_on_c, 13, 55, 0
13, 149710, Note_on_c, 13, 55, 98
13, 149755, Note_on_c, 13, 55, 0
13, 149770, Control_c, 13, 11, 122
13, 149770, Note_on_c, 13, 44, 98
13, 149793, Control_c, 13, 11, 120
13, 149817, Control_c, 13, 11, 118
13, 149824, Note_on_c, 13, 44, 0
13, 149830, Note_on_c, 13, 56, 98
13, 149841, Control_c, 13, 11, 116
13, 149865, Control_c, 13, 11, 114
13, 149875, Note_on_c, 13, 56, 0
13, 149889, Control_c, 13, 11, 112
13, 149890, Note_on_c, 13, 56, 98
13, 149913, Control_c, 13, 11, 110
13, 149935, Note_on_c, 13, 56, 0
13, 149937, Control_c, 13, 11, 108
13, 149950, Note_on_c, 13, 56, 98
13, 149961, Control_c, 13, 11, 106
13, 149985, Control_c, 13, 11, 104
13, 149995, Note_on_c, 13, 56, 0
13, 150009, Control_c, 13, 11, 102
13, 150010, Note_on_c, 13, 56, 98
13, 150055, Note_on_c, 13, 56, 0
13, 150070, Note_on_c, 13, 56, 98
13, 150115, Note_on_c, 13, 56, 0
13, 150130, Note_on_c, 13, 56, 98
13, 150175, Note_on_c, 13, 56, 0
13, 150190, Note_on_c, 13, 56, 98
13, 150235, Note_on_c, 13, 56, 0
13, 150250, Note_on_c, 13, 56, 98
13, 150295, Note_on_c, 13, 56, 0
13, 150310, Note_on_c, 13, 56, 98
13, 150355, Note_on_c, 13, 56, 0
13, 150370, Note_on_c, 13, 56, 98
13, 150415, Note_on_c, 13, 56, 0
13, 150430, Note_on_c, 13, 56, 98
13, 150475, Note_on_c, 13, 56, 0
13, 150490, Note_on_c, 13, 56, 98
13, 150535, Note_on_c, 13, 56, 0
13, 150550, Note_on_c, 13, 56, 98
13, 150595, Note_on_c, 13, 56, 0
13, 150610, Note_on_c, 13, 56, 98
13, 150655, Note_on_c, 13, 56, 0
13, 150670, Note_on_c, 13, 56, 98
13, 150715, Note_on_c, 13, 56, 0
13, 150730, Control_c, 13, 11, 122
13, 150730, Note_on_c, 13, 45, 98
13, 150753, Control_c, 13, 11, 120
13, 150777, Control_c, 13, 11, 118
13, 150784, Note_on_c, 13, 45, 0
13, 150790, Note_on_c, 13, 57, 98
13, 150801, Control_c, 13, 11, 116
13, 150825, Control_c, 13, 11, 114
13, 150835, Note_on_c, 13, 57, 0
13, 150849, Control_c, 13, 11, 112
13, 150850, Note_on_c, 13, 57, 98
13, 150873, Control_c, 13, 11, 110
13, 150895, Note_on_c, 13, 57, 0
13, 150897, Control_c, 13, 11, 108
13, 150910, Note_on_c, 13, 57, 98
13, 150921, Control_c, 13, 11, 106
13, 150945, Control_c, 13, 11, 104
13, 150955, Note_on_c, 13, 57, 0
13, 150969, Control_c, 13, 11, 102
13, 150970, Note_on_c, 13, 57, 98
13, 151015, Note_on_c, 13, 57, 0
13, 151030, Note_on_c, 13, 57, 98
13, 151075, Note_on_c, 13, 57, 0
13, 151090, Note_on_c, 13, 57, 98
13, 151135, Note_on_c, 13, 57, 0
13, 151150, Note_on_c, 13, 57, 98
13, 151195, Note_on_c, 13, 57, 0
13, 151210, Control_c, 13, 11, 122
13, 151210, Note_on_c, 13, 47, 98
13, 151233, Control_c, 13, 11, 120
13, 151257, Control_c, 13, 11, 118
13, 151264, Note_on_c, 13, 47, 0
13, 151270, Note_on_c, 13, 59, 98
13, 151281, Control_c, 13, 11, 116
13, 151305, Control_c, 13, 11, 114
13, 151315, Note_on_c, 13, 59, 0
13, 151329, Control_c, 13, 11, 112
13, 151330, Note_on_c, 13, 59, 98
13, 151353, Control_c, 13, 11, 110
13, 151375, Note_on_c, 13, 59, 0
13, 151377, Control_c, 13, 11, 108
13, 151390, Note_on_c, 13, 59, 98
13, 151401, Control_c, 13, 11, 106
13, 151425, Control_c, 13, 11, 104
13, 151435, Note_on_c, 13, 59, 0
13, 151449, Control_c, 13, 11, 102
13, 151450, Note_on_c, 13, 59, 98
13, 151495, Note_on_c, 13, 59, 0
13, 151510, Note_on_c, 13, 59, 98
13, 151555, Note_on_c, 13, 59, 0
13, 151570, Note_on_c, 13, 59, 98
13, 151615, Note_on_c, 13, 59, 0
13, 151630, Note_on_c, 13, 59, 98
13, 151675, Note_on_c, 13, 59, 0
13, 151690, Control_c, 13, 11, 122
13, 151690, Note_on_c, 13, 48, 98
13, 151713, Control_c, 13, 11, 120
13, 151737, Control_c, 13, 11, 118
13, 151744, Note_on_c, 13, 48, 0
13, 151750, Note_on_c, 13, 60, 98
13, 151761, Control_c, 13, 11, 116
13, 151785, Control_c, 13, 11, 114
13, 151795, Note_on_c, 13, 60, 0
13, 151809, Control_c, 13, 11, 112
13, 151810, Note_on_c, 13, 60, 98
13, 151833, Control_c, 13, 11, 110
13, 151855, Note_on_c, 13, 60, 0
13, 151857, Control_c, 13, 11, 108
13, 151870, Note_on_c, 13, 60, 98
13, 151881, Control_c, 13, 11, 106
13, 151905, Control_c, 13, 11, 104
13, 151915, Note_on_c, 13, 60, 0
13, 151929, Control_c, 13, 11, 102
13, 151930, Note_on_c, 13, 60, 98
13, 151975, Note_on_c, 13, 60, 0
13, 151990, Note_on_c, 13, 60, 98
13, 152035, Note_on_c, 13, 60, 0
13, 152050, Note_on_c, 13, 60, 98
13, 152095, Note_on_c, 13, 60, 0
13, 152110, Note_on_c, 13, 60, 98
13, 152155, Note_on_c, 13, 60, 0
13, 152170, Control_c, 13, 11, 122
13, 152170, Note_on_c, 13, 41, 98
13, 152193, Control_c, 13, 11, 120
13, 152217, Control_c, 13, 11, 118
13, 152224, Note_on_c, 13, 41, 0
13, 152230, Note_on_c, 13, 53, 98
13, 152241, Control_c, 13, 11, 116
13, 152265, Control_c, 13, 11, 114
13, 152275, Note_on_c, 13, 53, 0
13, 152289, Control_c, 13, 11, 112
13, 152290, Note_on_c, 13, 53, 98
13, 152313, Control_c, 13, 11, 110
13, 152335, Note_on_c, 13, 53, 0
13, 152337, Control_c, 13, 11, 108
13, 152350, Note_on_c, 13, 53, 98
13, 152361, Control_c, 13, 11, 106
13, 152385, Control_c, 13, 11, 104
13, 152395, Note_on_c, 13, 53, 0
13, 152409, Control_c, 13, 11, 102
13, 152410, Note_on_c, 13, 53, 98
13, 152455, Note_on_c, 13, 53, 0
13, 152470, Note_on_c, 13, 53, 98
13, 152515, Note_on_c, 13, 53, 0
13, 152530, Note_on_c, 13, 53, 98
13, 152575, Note_on_c, 13, 53, 0
13, 152590, Note_on_c, 13, 53, 98
13, 152635, Note_on_c, 13, 53, 0
13, 152650, Control_c, 13, 11, 122
13, 152650, Note_on_c, 13, 43, 98
13, 152673, Control_c, 13, 11, 120
13, 152697, Control_c, 13, 11, 118
13, 152704, Note_on_c, 13, 43, 0
13, 152710, Note_on_c, 13, 55, 98
13, 152721, Control_c, 13, 11, 116
13, 152745, Control_c, 13, 11, 114
13, 152755, Note_on_c, 13, 55, 0
13, 152769, Control_c, 13, 11, 112
13, 152770, Note_on_c, 13, 55, 98
13, 152793, Control_c, 13, 11, 110
13, 152815, Note_on_c, 13, 55, 0
13, 152817, Control_c, 13, 11, 108
13, 152830, Note_on_c, 13, 55, 98
13, 152841, Control_c, 13, 11, 106
13, 152865, Control_c, 13, 11, 104
13, 152875, Note_on_c, 13, 55, 0
13, 152889, Control_c, 13, 11, 102
13, 152890, Note_on_c, 13, 55, 98
13, 152935, Note_on_c, 13, 55, 0
13, 152950, Note_on_c, 13, 55, 98
13, 152995, Note_on_c, 13, 55, 0
13, 153010, Note_on_c, 13, 55, 98
13, 153055, Note_on_c, 13, 55, 0
13, 153070, Note_on_c, 13, 55, 98
13, 153115, Note_on_c, 13, 55, 0
13, 153130, Control_c, 13, 11, 122
13, 153130, Note_on_c, 13, 48, 98
13, 153153, Control_c, 13, 11, 120
13, 153177, Control_c, 13, 11, 118
13, 153184, Note_on_c, 13, 48, 0
13, 153190, Note_on_c, 13, 60, 98
13, 153201, Control_c, 13, 11, 116
13, 153225, Control_c, 13, 11, 114
13, 153235, Note_on_c, 13, 60, 0
13, 153249, Control_c, 13, 11, 112
13, 153250, Note_on_c, 13, 60, 98
13, 153273, Control_c, 13, 11, 110
13, 153295, Note_on_c, 13, 60, 0
13, 153297, Control_c, 13, 11, 108
13, 153310, Note_on_c, 13, 60, 98
13, 153321, Control_c, 13, 11, 106
13, 153345, Control_c, 13, 11, 104
13, 153355, Note_on_c, 13, 60, 0
13, 153369, Control_c, 13, 11, 102
13, 153370, Note_on_c, 13, 60, 98
13, 153415, Note_on_c, 13, 60, 0
13, 153430, Note_on_c, 13, 60, 98
13, 153475, Note_on_c, 13, 60, 0
13, 153490, Note_on_c, 13, 60, 98
13, 153535, Note_on_c, 13, 60, 0
13, 153550, Note_on_c, 13, 60, 98
13, 153595, Note_on_c, 13, 60, 0
13, 153610, Control_c, 13, 11, 122
13, 153610, Note_on_c, 13, 41, 98
13, 153633, Control_c, 13, 11, 120
13, 153657, Control_c, 13, 11, 118
13, 153664, Note_on_c, 13, 41, 0
13, 153670, Note_on_c, 13, 53, 98
13, 153681, Control_c, 13, 11, 116
13, 153705, Control_c, 13, 11, 114
13, 153715, Note_on_c, 13, 53, 0
13, 153729, Control_c, 13, 11, 112
13, 153730, Note_on_c, 13, 53, 98
13, 153753, Control_c, 13, 11, 110
13, 153775, Note_on_c, 13, 53, 0
13, 153777, Control_c, 13, 11, 108
13, 153790, Note_on_c, 13, 53, 98
13, 153801, Control_c, 13, 11, 106
13, 153825, Control_c, 13, 11, 104
13, 153835, Note_on_c, 13, 53, 0
13, 153849, Control_c, 13, 11, 102
13, 153850, Note_on_c, 13, 53, 98
13, 153895, Note_on_c, 13, 53, 0
13, 153910, Note_on_c, 13, 53, 98
13, 153955, Note_on_c, 13, 53, 0
13, 153970, Note_on_c, 13, 53, 98
13, 154015, Note_on_c, 13, 53, 0
13, 154030, Note_on_c, 13, 53, 98
13, 154075, Note_on_c, 13, 53, 0
13, 154090, Control_c, 13, 11, 122
13, 154090, Note_on_c, 13, 43, 98
13, 154113, Control_c, 13, 11, 120
13, 154137, Control_c, 13, 11, 118
13, 154144, Note_on_c, 13, 43, 0
13, 154150, Note_on_c, 13, 55, 98
13, 154161, Control_c, 13, 11, 116
13, 154185, Control_c, 13, 11, 114
13, 154195, Note_on_c, 13, 55, 0
13, 154209, Control_c, 13, 11, 112
13, 154210, Note_on_c, 13, 55, 98
13, 154233, Control_c, 13, 11, 110
13, 154255, Note_on_c, 13, 55, 0
13, 154257, Control_c, 13, 11, 108
13, 154270, Note_on_c, 13, 55, 98
13, 154281, Control_c, 13, 11, 106
13, 154305, Control_c, 13, 11, 104
13, 154315, Note_on_c, 13, 55, 0
13, 154329, Control_c, 13, 11, 102
13, 154330, Note_on_c, 13, 55, 98
13, 154375, Note_on_c, 13, 55, 0
13, 154390, Note_on_c, 13, 55, 98
13, 154435, Note_on_c, 13, 55, 0
13, 154450, Note_on_c, 13, 55, 98
13, 154495, Note_on_c, 13, 55, 0
13, 154510, Note_on_c, 13, 55, 98
13, 154555, Note_on_c, 13, 55, 0
13, 154570, Control_c, 13, 11, 122
13, 154570, Note_on_c, 13, 48, 98
13, 154593, Control_c, 13, 11, 120
13, 154617, Control_c, 13, 11, 118
13, 154624, Note_on_c, 13, 48, 0
13, 154630, Note_on_c, 13, 60, 98
13, 154641, Control_c, 13, 11, 116
13, 154665, Control_c, 13, 11, 114
13, 154675, Note_on_c, 13, 60, 0
13, 154689, Control_c, 13, 11, 112
13, 154690, Note_on_c, 13, 60, 98
13, 154713, Control_c, 13, 11, 110
13, 154735, Note_on_c, 13, 60, 0
13, 154737, Control_c, 13, 11, 108
13, 154750, Note_on_c, 13, 60, 98
13, 154761, Control_c, 13, 11, 106
13, 154785, Control_c, 13, 11, 104
13, 154795, Note_on_c, 13, 60, 0
13, 154809, Control_c, 13, 11, 102
13, 154810, Note_on_c, 13, 60, 98
13, 154855, Note_on_c, 13, 60, 0
13, 154870, Note_on_c, 13, 60, 98
13, 154915, Note_on_c, 13, 60, 0
13, 154930, Note_on_c, 13, 60, 98
13, 154975, Note_on_c, 13, 60, 0
13, 154990, Note_on_c, 13, 60, 98
13, 155035, Note_on_c, 13, 60, 0
13, 155050, Control_c, 13, 11, 122
13, 155050, Note_on_c, 13, 41, 98
13, 155073, Control_c, 13, 11, 120
13, 155097, Control_c, 13, 11, 118
13, 155104, Note_on_c, 13, 41, 0
13, 155110, Note_on_c, 13, 53, 98
13, 155121, Control_c, 13, 11, 116
13, 155145, Control_c, 13, 11, 114
13, 155155, Note_on_c, 13, 53, 0
13, 155169, Control_c, 13, 11, 112
13, 155170, Note_on_c, 13, 53, 98
13, 155193, Control_c, 13, 11, 110
13, 155215, Note_on_c, 13, 53, 0
13, 155217, Control_c, 13, 11, 108
13, 155230, Note_on_c, 13, 53, 98
13, 155241, Control_c, 13, 11, 106
13, 155265, Control_c, 13, 11, 104
13, 155275, Note_on_c, 13, 53, 0
13, 155289, Control_c, 13, 11, 102
13, 155290, Note_on_c, 13, 53, 98
13, 155335, Note_on_c, 13, 53, 0
13, 155350, Note_on_c, 13, 53, 98
13, 155395, Note_on_c, 13, 53, 0
13, 155410, Note_on_c, 13, 53, 98
13, 155455, Note_on_c, 13, 53, 0
13, 155470, Note_on_c, 13, 53, 98
13, 155515, Note_on_c, 13, 53, 0
13, 155530, Control_c, 13, 11, 122
13, 155530, Note_on_c, 13, 43, 98
13, 155553, Control_c, 13, 11, 120
13, 155577, Control_c, 13, 11, 118
13, 155584, Note_on_c, 13, 43, 0
13, 155590, Note_on_c, 13, 55, 98
13, 155601, Control_c, 13, 11, 116
13, 155625, Control_c, 13, 11, 114
13, 155635, Note_on_c, 13, 55, 0
13, 155649, Control_c, 13, 11, 112
13, 155650, Note_on_c, 13, 55, 98
13, 155673, Control_c, 13, 11, 110
13, 155695, Note_on_c, 13, 55, 0
13, 155697, Control_c, 13, 11, 108
13, 155710, Note_on_c, 13, 55, 98
13, 155721, Control_c, 13, 11, 106
13, 155745, Control_c, 13, 11, 104
13, 155755, Note_on_c, 13, 55, 0
13, 155769, Control_c, 13, 11, 102
13, 155770, Note_on_c, 13, 55, 98
13, 155815, Note_on_c, 13, 55, 0
13, 155830, Note_on_c, 13, 55, 98
13, 155875, Note_on_c, 13, 55, 0
13, 155890, Note_on_c, 13, 55, 98
13, 155935, Note_on_c, 13, 55, 0
13, 155950, Note_on_c, 13, 55, 98
13, 155995, Note_on_c, 13, 55, 0
13, 156010, Note_on_c, 13, 55, 98
13, 156055, Note_on_c, 13, 55, 0
13, 156070, Note_on_c, 13, 55, 98
13, 156115, Note_on_c, 13, 55, 0
13, 156130, Note_on_c, 13, 55, 98
13, 156175, Note_on_c, 13, 55, 0
13, 156190, Note_on_c, 13, 55, 98
13, 156235, Note_on_c, 13, 55, 0
13, 156250, Note_on_c, 13, 55, 98
13, 156295, Note_on_c, 13, 55, 0
13, 156310, Note_on_c, 13, 55, 98
13, 156355, Note_on_c, 13, 55, 0
13, 156370, Note_on_c, 13, 55, 98
13, 156415, Note_on_c, 13, 55, 0
13, 156430, Note_on_c, 13, 55, 98
13, 156475, Note_on_c, 13, 55, 0
13, 156490, Note_on_c, 13, 43, 98
13, 156535, Note_on_c, 13, 43, 0
13, 156550, Note_on_c, 13, 43, 98
13, 156595, Note_on_c, 13, 43, 0
13, 156610, Note_on_c, 13, 43, 98
13, 156655, Note_on_c, 13, 43, 0
13, 156670, Note_on_c, 13, 43, 98
13, 156715, Note_on_c, 13, 43, 0
13, 156730, Note_on_c, 13, 43, 98
13, 156775, Note_on_c, 13, 43, 0
13, 156790, Note_on_c, 13, 43, 98
13, 156835, Note_on_c, 13, 43, 0
13, 156850, Note_on_c, 13, 43, 98
13, 156895, Note_on_c, 13, 43, 0
13, 156910, Note_on_c, 13, 43, 98
13, 156955, Note_on_c, 13, 43, 0
13, 156970, Note_on_c, 13, 43, 98
13, 157015, Note_on_c, 13, 43, 0
13, 157030, Note_on_c, 13, 43, 98
13, 157075, Note_on_c, 13, 43, 0
13, 157090, Note_on_c, 13, 43, 98
13, 157135, Note_on_c, 13, 43, 0
13, 157150, Note_on_c, 13, 43, 98
13, 157195, Note_on_c, 13, 43, 0
13, 157210, Note_on_c, 13, 43, 98
13, 157255, Note_on_c, 13, 43, 0
13, 157270, Note_on_c, 13, 43, 98
13, 157315, Note_on_c, 13, 43, 0
13, 157330, Note_on_c, 13, 43, 98
13, 157375, Note_on_c, 13, 43, 0
13, 157390, Note_on_c, 13, 43, 98
13, 157435, Note_on_c, 13, 43, 0
13, 157450, Note_on_c, 13, 48, 98
13, 157570, Note_on_c, 13, 48, 0
13, 158770, Note_on_c, 13, 43, 98
13, 158875, Note_on_c, 13, 43, 0
13, 158890, Note_on_c, 13, 43, 98
13, 159235, Note_on_c, 13, 43, 0
13, 159250, Note_on_c, 13, 43, 98
13, 159355, Note_on_c, 13, 43, 0
13, 159370, Note_on_c, 13, 48, 98
13, 159490, Note_on_c, 13, 48, 0
13, 160450, Note_on_c, 13, 43, 98
13, 160555, Note_on_c, 13, 43, 0
13, 160570, Note_on_c, 13, 43, 98
13, 160675, Note_on_c, 13, 43, 0
13, 160690, Note_on_c, 13, 43, 98
13, 160795, Note_on_c, 13, 43, 0
13, 160810, Note_on_c, 13, 43, 98
13, 160915, Note_on_c, 13, 43, 0
13, 160930, Note_on_c, 13, 43, 98
13, 161035, Note_on_c, 13, 43, 0
13, 161050, Note_on_c, 13, 43, 98
13, 161155, Note_on_c, 13, 43, 0
13, 161170, Note_on_c, 13, 43, 98
13, 161275, Note_on_c, 13, 43, 0
13, 161290, Note_on_c, 13, 48, 98
13, 161410, Note_on_c, 13, 48, 0
13, 162370, Note_on_c, 13, 43, 98
13, 162595, Note_on_c, 13, 43, 0
13, 162610, Note_on_c, 13, 43, 98
13, 162835, Note_on_c, 13, 43, 0
13, 162850, Note_on_c, 13, 43, 98
13, 163075, Note_on_c, 13, 43, 0
13, 163090, Note_on_c, 13, 43, 98
13, 163195, Note_on_c, 13, 43, 0
13, 163210, Note_on_c, 13, 48, 98
13, 163330, Note_on_c, 13, 48, 0
13, 163810, Note_on_c, 13, 55, 98
13, 163870, Note_on_c, 13, 55, 0
13, 163930, Note_on_c, 13, 52, 98
13, 163990, Note_on_c, 13, 52, 0
13, 164050, Note_on_c, 13, 48, 98
13, 164110, Note_on_c, 13, 48, 0
13, 164170, Control_c, 13, 11, 72
13, 164170, Note_on_c, 13, 43, 98
13, 164173, Control_c, 13, 11, 75
13, 164176, Control_c, 13, 11, 78
13, 164179, Control_c, 13, 11, 81
13, 164182, Control_c, 13, 11, 84
13, 164185, Control_c, 13, 11, 87
13, 164188, Control_c, 13, 11, 90
13, 164191, Control_c, 13, 11, 93
13, 164194, Control_c, 13, 11, 96
13, 164197, Control_c, 13, 11, 99
13, 164200, Control_c, 13, 11, 102
13, 164515, Control_c, 13, 11, 102
13, 164518, Control_c, 13, 11, 99
13, 164521, Control_c, 13, 11, 96
13, 164524, Control_c, 13, 11, 93
13, 164528, Control_c, 13, 11, 90
13, 164531, Control_c, 13, 11, 87
13, 164534, Control_c, 13, 11, 84
13, 164538, Control_c, 13, 11, 81
13, 164541, Control_c, 13, 11, 78
13, 164544, Control_c, 13, 11, 75
13, 164548, Note_on_c, 13, 43, 0
13, 164548, Control_c, 13, 11, 72
13, 164890, Control_c, 13, 11, 87
13, 164890, Note_on_c, 13, 43, 98
13, 165010, Note_on_c, 13, 43, 0
13, 165370, Note_on_c, 13, 43, 98
13, 165490, Note_on_c, 13, 43, 0
13, 165730, Note_on_c, 13, 43, 98
13, 165850, Note_on_c, 13, 43, 0
13, 165970, Note_on_c, 13, 43, 98
13, 166090, Note_on_c, 13, 43, 0
13, 166210, Note_on_c, 13, 43, 98
13, 166330, Note_on_c, 13, 43, 0
13, 166450, Note_on_c, 13, 48, 98
13, 166570, Note_on_c, 13, 48, 0
13, 166690, Note_on_c, 13, 48, 98
13, 166810, Note_on_c, 13, 48, 0
13, 166930, Note_on_c, 13, 48, 98
13, 167050, Note_on_c, 13, 48, 0
13, 167050, Control_c, 13, 11, 92
13, 167050, Note_on_c, 13, 60, 98
13, 167066, Control_c, 13, 11, 89
13, 167082, Control_c, 13, 11, 86
13, 167098, Control_c, 13, 11, 83
13, 167114, Control_c, 13, 11, 80
13, 167130, Control_c, 13, 11, 77
13, 167146, Control_c, 13, 11, 74
13, 167162, Control_c, 13, 11, 71
13, 167178, Control_c, 13, 11, 68
13, 167194, Control_c, 13, 11, 65
13, 167210, Control_c, 13, 11, 62
13, 167226, Control_c, 13, 11, 59
13, 167242, Control_c, 13, 11, 56
13, 167258, Control_c, 13, 11, 53
13, 167274, Control_c, 13, 11, 50
13, 167290, Control_c, 13, 11, 47
13, 168010, Control_c, 13, 11, 47
13, 168122, Control_c, 13, 11, 46
13, 168235, Control_c, 13, 11, 45
13, 168348, Control_c, 13, 11, 44
13, 168461, Control_c, 13, 11, 43
13, 168574, Control_c, 13, 11, 42
13, 168687, Control_c, 13, 11, 41
13, 168800, Control_c, 13, 11, 40
13, 168913, Control_c, 13, 11, 39
13, 169026, Control_c, 13, 11, 38
13, 169139, Control_c, 13, 11, 37
13, 169252, Control_c, 13, 11, 36
13, 169365, Control_c, 13, 11, 35
13, 169478, Control_c, 13, 11, 34
13, 169591, Control_c, 13, 11, 33
13, 169704, Control_c, 13, 11, 32
13, 169817, Control_c, 13, 11, 31
13, 169930, Control_c, 13, 11, 30
13, 170110, Control_c, 13, 11, 30
13, 170130, Control_c, 13, 11, 29
13, 170150, Control_c, 13, 11, 28
13, 170170, Control_c, 13, 11, 27
13, 170190, Control_c, 13, 11, 26
13, 170210, Control_c, 13, 11, 25
13, 170230, Control_c, 13, 11, 24
13, 170250, Control_c, 13, 11, 23
13, 170270, Control_c, 13, 11, 22
13, 170290, Control_c, 13, 11, 21
13, 170306, Control_c, 13, 11, 18
13, 170322, Control_c, 13, 11, 15
13, 170339, Control_c, 13, 11, 12
13, 170350, Note_on_c, 13, 60, 0
13, 170410, Control_c, 13, 11, 102
13, 170410, Note_on_c, 13, 48, 115
13, 170530, Note_on_c, 13, 48, 0
13, 171370, Note_on_c, 13, 48, 115
13, 171490, Note_on_c, 13, 48, 0
13, 171850, Note_on_c, 13, 48, 115
13, 171970, Note_on_c, 13, 48, 0
13, 172330, Control_c, 13, 11, 112
13, 172330, Note_on_c, 13, 48, 115
13, 172450, Note_on_c, 13, 48, 0
13, 172810, Control_c, 13, 121, 0
13, 172810, End_track
14, 0, Start_track
14, 0, MIDI_port, 0
14, 0, Title_t, "Contrabasse"
14, 0, Program_c, 14, 48
14, 0, Control_c, 14, 10, 127
14, 14, Control_c, 14, 121, 0
14, 19, Program_c, 14, 48
14, 24, Pitch_bend_c, 14, 8492
14, 29, Control_c, 14, 11, 102
14, 34, Control_c, 14, 7, 127
14, 39, Control_c, 14, 91, 70
14, 44, Control_c, 14, 93, 0
14, 49, Control_c, 14, 1, 36
14, 494, Control_c, 14, 11, 62
14, 494, Note_on_c, 14, 31, 117
14, 498, Control_c, 14, 11, 66
14, 502, Control_c, 14, 11, 69
14, 506, Control_c, 14, 11, 73
14, 510, Control_c, 14, 11, 76
14, 514, Control_c, 14, 11, 80
14, 518, Control_c, 14, 11, 83
14, 522, Control_c, 14, 11, 87
14, 526, Control_c, 14, 11, 90
14, 530, Control_c, 14, 11, 94
14, 534, Control_c, 14, 11, 97
14, 549, Control_c, 14, 11, 94
14, 565, Control_c, 14, 11, 91
14, 581, Control_c, 14, 11, 88
14, 597, Control_c, 14, 11, 85
14, 613, Control_c, 14, 11, 82
14, 629, Control_c, 14, 11, 79
14, 645, Control_c, 14, 11, 76
14, 661, Control_c, 14, 11, 73
14, 677, Control_c, 14, 11, 70
14, 693, Control_c, 14, 11, 67
14, 709, Control_c, 14, 11, 64
14, 724, Control_c, 14, 11, 61
14, 740, Control_c, 14, 11, 58
14, 756, Control_c, 14, 11, 55
14, 772, Control_c, 14, 11, 52
14, 788, Control_c, 14, 11, 49
14, 800, Control_c, 14, 11, 46
14, 804, Control_c, 14, 11, 43
14, 808, Control_c, 14, 11, 40
14, 812, Control_c, 14, 11, 37
14, 814, Note_on_c, 14, 31, 0
14, 815, Control_c, 14, 11, 34
14, 819, Control_c, 14, 11, 31
14, 823, Control_c, 14, 11, 28
14, 3854, Control_c, 14, 11, 67
14, 3854, Note_on_c, 14, 31, 97
14, 3858, Control_c, 14, 11, 70
14, 3863, Control_c, 14, 11, 73
14, 3867, Control_c, 14, 11, 76
14, 3872, Control_c, 14, 11, 79
14, 3876, Control_c, 14, 11, 82
14, 3881, Control_c, 14, 11, 85
14, 3896, Control_c, 14, 11, 85
14, 3915, Control_c, 14, 11, 82
14, 3933, Control_c, 14, 11, 79
14, 3952, Control_c, 14, 11, 76
14, 3970, Control_c, 14, 11, 73
14, 3989, Control_c, 14, 11, 70
14, 4008, Control_c, 14, 11, 67
14, 4026, Control_c, 14, 11, 64
14, 4045, Control_c, 14, 11, 61
14, 4064, Control_c, 14, 11, 58
14, 4082, Control_c, 14, 11, 55
14, 4101, Control_c, 14, 11, 52
14, 4119, Control_c, 14, 11, 49
14, 4138, Control_c, 14, 11, 46
14, 4157, Control_c, 14, 11, 43
14, 4168, Control_c, 14, 11, 40
14, 4176, Control_c, 14, 11, 37
14, 4183, Control_c, 14, 11, 34
14, 4184, Note_on_c, 14, 31, 0
14, 4214, Control_c, 14, 11, 47
14, 5804, Control_c, 14, 11, 97
14, 5804, Note_on_c, 14, 28, 97
14, 5924, Control_c, 14, 11, 87
14, 5934, Control_c, 14, 11, 84
14, 5944, Control_c, 14, 11, 81
14, 5954, Note_on_c, 14, 28, 0
14, 5954, Control_c, 14, 11, 78
14, 5964, Control_c, 14, 11, 75
14, 5974, Control_c, 14, 11, 72
14, 5984, Control_c, 14, 11, 69
14, 5994, Control_c, 14, 11, 66
14, 6004, Control_c, 14, 11, 63
14, 6014, Control_c, 14, 11, 60
14, 7724, Control_c, 14, 11, 87
14, 7724, Note_on_c, 14, 30, 97
14, 7844, Control_c, 14, 11, 87
14, 7847, Control_c, 14, 11, 84
14, 7850, Control_c, 14, 11, 81
14, 7854, Control_c, 14, 11, 78
14, 7857, Control_c, 14, 11, 75
14, 7860, Control_c, 14, 11, 72
14, 7864, Control_c, 14, 11, 69
14, 7867, Control_c, 14, 11, 66
14, 7870, Control_c, 14, 11, 63
14, 7874, Note_on_c, 14, 30, 0
14, 7874, Control_c, 14, 11, 60
14, 9584, Control_c, 14, 11, 42
14, 9584, Note_on_c, 14, 36, 97
14, 9614, Note_on_c, 14, 36, 0
14, 9644, Control_c, 14, 11, 87
14, 9644, Note_on_c, 14, 35, 97
14, 9764, Control_c, 14, 11, 87
14, 9767, Control_c, 14, 11, 84
14, 9770, Control_c, 14, 11, 81
14, 9774, Control_c, 14, 11, 78
14, 9777, Control_c, 14, 11, 75
14, 9780, Control_c, 14, 11, 72
14, 9784, Control_c, 14, 11, 69
14, 9787, Control_c, 14, 11, 66
14, 9790, Control_c, 14, 11, 63
14, 9794, Note_on_c, 14, 35, 0
14, 9794, Control_c, 14, 11, 60
14, 13014, Control_c, 14, 11, 32
14, 13014, Note_on_c, 14, 36, 97
14, 13034, Note_on_c, 14, 36, 0
14, 13054, Note_on_c, 14, 36, 97
14, 13074, Note_on_c, 14, 36, 0
14, 13094, Note_on_c, 14, 36, 97
14, 13114, Note_on_c, 14, 36, 0
14, 13254, Note_on_c, 14, 38, 97
14, 13274, Note_on_c, 14, 38, 0
14, 13294, Note_on_c, 14, 38, 97
14, 13314, Note_on_c, 14, 38, 0
14, 13334, Note_on_c, 14, 38, 97
14, 13354, Note_on_c, 14, 38, 0
14, 13494, Note_on_c, 14, 39, 97
14, 13514, Note_on_c, 14, 39, 0
14, 13534, Note_on_c, 14, 39, 97
14, 13554, Note_on_c, 14, 39, 0
14, 13574, Note_on_c, 14, 39, 97
14, 13594, Note_on_c, 14, 39, 0
14, 13734, Note_on_c, 14, 35, 97
14, 13754, Note_on_c, 14, 35, 0
14, 13774, Note_on_c, 14, 35, 97
14, 13794, Note_on_c, 14, 35, 0
14, 13814, Note_on_c, 14, 35, 97
14, 13834, Note_on_c, 14, 35, 0
14, 15373, Program_c, 14, 45
14, 15374, Control_c, 14, 11, 100
14, 15374, Note_on_c, 14, 48, 26
14, 15394, Note_on_c, 14, 48, 0
14, 15414, Note_on_c, 14, 46, 26
14, 15434, Note_on_c, 14, 46, 0
14, 15454, Note_on_c, 14, 44, 26
14, 15474, Note_on_c, 14, 44, 0
14, 15494, Note_on_c, 14, 43, 26
14, 15514, Note_on_c, 14, 43, 0
14, 15534, Note_on_c, 14, 41, 26
14, 15554, Note_on_c, 14, 41, 0
14, 15574, Note_on_c, 14, 39, 26
14, 15594, Note_on_c, 14, 39, 0
14, 15614, Note_on_c, 14, 38, 26
14, 15634, Note_on_c, 14, 38, 0
14, 15654, Note_on_c, 14, 36, 26
14, 15674, Note_on_c, 14, 36, 0
14, 15694, Note_on_c, 14, 35, 26
14, 15714, Note_on_c, 14, 35, 0
14, 15734, Note_on_c, 14, 36, 26
14, 15754, Note_on_c, 14, 36, 0
14, 15774, Note_on_c, 14, 39, 26
14, 15794, Note_on_c, 14, 39, 0
14, 15814, Note_on_c, 14, 36, 26
14, 15834, Note_on_c, 14, 36, 0
14, 15854, Note_on_c, 14, 31, 26
14, 15974, Note_on_c, 14, 31, 0
14, 16573, Program_c, 14, 48
14, 16574, Control_c, 14, 11, 62
14, 16574, Note_on_c, 14, 32, 97
14, 16584, Control_c, 14, 11, 68
14, 16595, Control_c, 14, 11, 74
14, 16605, Control_c, 14, 11, 81
14, 16616, Control_c, 14, 11, 87
14, 16627, Control_c, 14, 11, 95
14, 16645, Control_c, 14, 11, 90
14, 16663, Control_c, 14, 11, 85
14, 16681, Control_c, 14, 11, 81
14, 16699, Control_c, 14, 11, 76
14, 16717, Control_c, 14, 11, 71
14, 16735, Control_c, 14, 11, 67
14, 16753, Control_c, 14, 11, 62
14, 16771, Control_c, 14, 11, 57
14, 16789, Control_c, 14, 11, 53
14, 16807, Control_c, 14, 11, 48
14, 16814, Note_on_c, 14, 32, 0
14, 16814, Note_on_c, 14, 31, 97
14, 16934, Note_on_c, 14, 31, 0
14, 17534, Control_c, 14, 11, 47
14, 17534, Note_on_c, 14, 32, 97
14, 17539, Control_c, 14, 11, 53
14, 17544, Control_c, 14, 11, 60
14, 17549, Control_c, 14, 11, 68
14, 17554, Control_c, 14, 11, 74
14, 17559, Control_c, 14, 11, 82
14, 17564, Control_c, 14, 11, 90
14, 17582, Control_c, 14, 11, 90
14, 17602, Control_c, 14, 11, 85
14, 17623, Control_c, 14, 11, 80
14, 17643, Control_c, 14, 11, 76
14, 17664, Control_c, 14, 11, 71
14, 17684, Control_c, 14, 11, 66
14, 17705, Control_c, 14, 11, 62
14, 17726, Control_c, 14, 11, 57
14, 17746, Control_c, 14, 11, 53
14, 17767, Control_c, 14, 11, 48
14, 17774, Note_on_c, 14, 32, 0
14, 17774, Note_on_c, 14, 31, 82
14, 17864, Control_c, 14, 11, 47
14, 17868, Control_c, 14, 11, 44
14, 17872, Control_c, 14, 11, 41
14, 17877, Control_c, 14, 11, 38
14, 17881, Control_c, 14, 11, 35
14, 17885, Control_c, 14, 11, 32
14, 17890, Control_c, 14, 11, 29
14, 17894, Note_on_c, 14, 31, 0
14, 18013, Program_c, 14, 45
14, 18014, Control_c, 14, 11, 100
14, 18014, Note_on_c, 14, 31, 27
14, 18134, Note_on_c, 14, 31, 0
14, 18134, Note_on_c, 14, 31, 27
14, 18254, Note_on_c, 14, 31, 0
14, 18254, Note_on_c, 14, 31, 27
14, 18374, Note_on_c, 14, 31, 0
14, 18494, Note_on_c, 14, 31, 27
14, 18614, Note_on_c, 14, 31, 0
14, 18614, Note_on_c, 14, 31, 27
14, 18734, Note_on_c, 14, 31, 0
14, 18734, Note_on_c, 14, 31, 27
14, 18854, Note_on_c, 14, 31, 0
14, 18974, Note_on_c, 14, 31, 27
14, 19094, Note_on_c, 14, 31, 0
14, 23413, Program_c, 14, 48
14, 23414, Control_c, 14, 11, 99
14, 23414, Note_on_c, 14, 43, 102
14, 23502, Control_c, 14, 11, 100
14, 23534, Note_on_c, 14, 43, 0
14, 23534, Note_on_c, 14, 45, 102
14, 23654, Note_on_c, 14, 45, 0
14, 23758, Control_c, 14, 11, 101
14, 23774, Note_on_c, 14, 47, 103
14, 23894, Note_on_c, 14, 47, 0
14, 24014, Control_c, 14, 11, 102
14, 24014, Note_on_c, 14, 48, 103
14, 24134, Note_on_c, 14, 48, 0
14, 24254, Note_on_c, 14, 50, 104
14, 24270, Control_c, 14, 11, 103
14, 24374, Note_on_c, 14, 50, 0
14, 24494, Note_on_c, 14, 48, 105
14, 24526, Control_c, 14, 11, 104
14, 24614, Note_on_c, 14, 48, 0
14, 24734, Note_on_c, 14, 47, 105
14, 24782, Control_c, 14, 11, 105
14, 24854, Note_on_c, 14, 47, 0
14, 24974, Note_on_c, 14, 45, 106
14, 25038, Control_c, 14, 11, 106
14, 25094, Note_on_c, 14, 45, 0
14, 25214, Note_on_c, 14, 44, 107
14, 25294, Control_c, 14, 11, 107
14, 25334, Note_on_c, 14, 44, 0
14, 25454, Note_on_c, 14, 43, 107
14, 25550, Control_c, 14, 11, 108
14, 25574, Note_on_c, 14, 43, 0
14, 25694, Note_on_c, 14, 42, 108
14, 25806, Control_c, 14, 11, 109
14, 25814, Note_on_c, 14, 42, 0
14, 25934, Note_on_c, 14, 43, 109
14, 25994, Note_on_c, 14, 43, 0
14, 26054, Note_on_c, 14, 53, 109
14, 26062, Control_c, 14, 11, 110
14, 26114, Note_on_c, 14, 53, 0
14, 26174, Note_on_c, 14, 52, 109
14, 26234, Note_on_c, 14, 52, 0
14, 26294, Note_on_c, 14, 50, 110
14, 26318, Control_c, 14, 11, 111
14, 26354, Note_on_c, 14, 50, 0
14, 26414, Note_on_c, 14, 48, 110
14, 26474, Note_on_c, 14, 48, 0
14, 26534, Note_on_c, 14, 47, 110
14, 26574, Control_c, 14, 11, 112
14, 26594, Note_on_c, 14, 47, 0
14, 26654, Note_on_c, 14, 45, 111
14, 26714, Note_on_c, 14, 45, 0
14, 26774, Note_on_c, 14, 43, 111
14, 26830, Control_c, 14, 11, 113
14, 26834, Note_on_c, 14, 43, 0
14, 26894, Note_on_c, 14, 41, 111
14, 26954, Note_on_c, 14, 41, 0
14, 27014, Note_on_c, 14, 40, 112
14, 27074, Note_on_c, 14, 40, 0
14, 27086, Control_c, 14, 11, 114
14, 27134, Note_on_c, 14, 38, 112
14, 27194, Note_on_c, 14, 38, 0
14, 27254, Note_on_c, 14, 36, 112
14, 27314, Note_on_c, 14, 36, 0
14, 27342, Control_c, 14, 11, 115
14, 27374, Note_on_c, 14, 35, 113
14, 27434, Note_on_c, 14, 35, 0
14, 27494, Note_on_c, 14, 31, 113
14, 27554, Note_on_c, 14, 31, 0
14, 27598, Control_c, 14, 11, 116
14, 27614, Note_on_c, 14, 36, 114
14, 27674, Note_on_c, 14, 36, 0
14, 27734, Note_on_c, 14, 36, 114
14, 27794, Note_on_c, 14, 36, 0
14, 27854, Control_c, 14, 11, 117
14, 27974, Note_on_c, 14, 36, 114
14, 28094, Note_on_c, 14, 36, 0
14, 28214, Note_on_c, 14, 36, 114
14, 28334, Note_on_c, 14, 36, 0
14, 28454, Control_c, 14, 11, 77
14, 28454, Note_on_c, 14, 36, 114
14, 28574, Note_on_c, 14, 36, 0
14, 29414, Control_c, 14, 11, 77
14, 29414, Note_on_c, 14, 36, 114
14, 29534, Note_on_c, 14, 36, 0
14, 30374, Control_c, 14, 11, 77
14, 30374, Note_on_c, 14, 36, 114
14, 30494, Note_on_c, 14, 36, 0
14, 35054, Control_c, 14, 11, 87
14, 35054, Note_on_c, 14, 31, 114
14, 35159, Note_on_c, 14, 31, 0
14, 35174, Control_c, 14, 11, 102
14, 35174, Note_on_c, 14, 43, 97
14, 35354, Control_c, 14, 11, 102
14, 35361, Control_c, 14, 11, 99
14, 35369, Control_c, 14, 11, 96
14, 35377, Control_c, 14, 11, 93
14, 35385, Control_c, 14, 11, 90
14, 35395, Control_c, 14, 11, 87
14, 35399, Note_on_c, 14, 43, 0
14, 35403, Control_c, 14, 11, 84
14, 35411, Control_c, 14, 11, 81
14, 35414, Note_on_c, 14, 40, 97
14, 35419, Control_c, 14, 11, 78
14, 35426, Control_c, 14, 11, 75
14, 35437, Control_c, 14, 11, 72
14, 35445, Control_c, 14, 11, 69
14, 35452, Control_c, 14, 11, 66
14, 35460, Control_c, 14, 11, 63
14, 35471, Control_c, 14, 11, 60
14, 35478, Control_c, 14, 11, 57
14, 35486, Control_c, 14, 11, 54
14, 35494, Control_c, 14, 11, 51
14, 35502, Control_c, 14, 11, 48
14, 35519, Note_on_c, 14, 40, 0
14, 35534, Note_on_c, 14, 41, 97
14, 35594, Note_on_c, 14, 41, 0
14, 35654, Note_on_c, 14, 38, 97
14, 35714, Note_on_c, 14, 38, 0
14, 35774, Note_on_c, 14, 40, 97
14, 35834, Note_on_c, 14, 40, 0
14, 35894, Note_on_c, 14, 36, 97
14, 35954, Note_on_c, 14, 36, 0
14, 36014, Note_on_c, 14, 38, 97
14, 36074, Note_on_c, 14, 38, 0
14, 36134, Note_on_c, 14, 35, 97
14, 36194, Note_on_c, 14, 35, 0
14, 36254, Note_on_c, 14, 36, 97
14, 36314, Note_on_c, 14, 36, 0
14, 36374, Note_on_c, 14, 33, 97
14, 36434, Note_on_c, 14, 33, 0
14, 36494, Note_on_c, 14, 35, 97
14, 36554, Note_on_c, 14, 35, 0
14, 36614, Note_on_c, 14, 31, 97
14, 36674, Note_on_c, 14, 31, 0
14, 36734, Note_on_c, 14, 33, 97
14, 36794, Note_on_c, 14, 33, 0
14, 36854, Note_on_c, 14, 31, 97
14, 36914, Note_on_c, 14, 31, 0
14, 36974, Control_c, 14, 11, 47
14, 36974, Note_on_c, 14, 33, 97
14, 37007, Control_c, 14, 11, 48
14, 37034, Note_on_c, 14, 33, 0
14, 37041, Control_c, 14, 11, 49
14, 37075, Control_c, 14, 11, 50
14, 37094, Note_on_c, 14, 31, 98
14, 37109, Control_c, 14, 11, 51
14, 37143, Control_c, 14, 11, 52
14, 37154, Note_on_c, 14, 31, 0
14, 37176, Control_c, 14, 11, 53
14, 37210, Control_c, 14, 11, 54
14, 37214, Note_on_c, 14, 33, 99
14, 37244, Control_c, 14, 11, 55
14, 37274, Note_on_c, 14, 33, 0
14, 37278, Control_c, 14, 11, 56
14, 37312, Control_c, 14, 11, 57
14, 37334, Note_on_c, 14, 31, 100
14, 37346, Control_c, 14, 11, 58
14, 37379, Control_c, 14, 11, 59
14, 37394, Note_on_c, 14, 31, 0
14, 37413, Control_c, 14, 11, 60
14, 37447, Control_c, 14, 11, 61
14, 37454, Note_on_c, 14, 33, 101
14, 37481, Control_c, 14, 11, 62
14, 37514, Note_on_c, 14, 33, 0
14, 37515, Control_c, 14, 11, 63
14, 37548, Control_c, 14, 11, 64
14, 37574, Note_on_c, 14, 31, 102
14, 37582, Control_c, 14, 11, 65
14, 37616, Control_c, 14, 11, 66
14, 37634, Note_on_c, 14, 31, 0
14, 37650, Control_c, 14, 11, 67
14, 37684, Control_c, 14, 11, 68
14, 37694, Note_on_c, 14, 41, 103
14, 37718, Control_c, 14, 11, 69
14, 37751, Control_c, 14, 11, 70
14, 37754, Note_on_c, 14, 41, 0
14, 37785, Control_c, 14, 11, 71
14, 37814, Note_on_c, 14, 43, 104
14, 37819, Control_c, 14, 11, 72
14, 37853, Control_c, 14, 11, 73
14, 37874, Note_on_c, 14, 43, 0
14, 37887, Control_c, 14, 11, 74
14, 37920, Control_c, 14, 11, 75
14, 37934, Note_on_c, 14, 40, 105
14, 37954, Control_c, 14, 11, 76
14, 37988, Control_c, 14, 11, 77
14, 37994, Note_on_c, 14, 40, 0
14, 38022, Control_c, 14, 11, 78
14, 38054, Note_on_c, 14, 43, 106
14, 38056, Control_c, 14, 11, 79
14, 38090, Control_c, 14, 11, 80
14, 38114, Note_on_c, 14, 43, 0
14, 38123, Control_c, 14, 11, 81
14, 38157, Control_c, 14, 11, 82
14, 38174, Note_on_c, 14, 38, 107
14, 38191, Control_c, 14, 11, 83
14, 38225, Control_c, 14, 11, 84
14, 38234, Note_on_c, 14, 38, 0
14, 38259, Control_c, 14, 11, 85
14, 38292, Control_c, 14, 11, 86
14, 38294, Note_on_c, 14, 43, 108
14, 38326, Control_c, 14, 11, 87
14, 38354, Note_on_c, 14, 43, 0
14, 38360, Control_c, 14, 11, 88
14, 38394, Control_c, 14, 11, 89
14, 38414, Note_on_c, 14, 36, 109
14, 38428, Control_c, 14, 11, 90
14, 38462, Control_c, 14, 11, 91
14, 38474, Note_on_c, 14, 36, 0
14, 38495, Control_c, 14, 11, 92
14, 38529, Control_c, 14, 11, 93
14, 38534, Note_on_c, 14, 43, 110
14, 38563, Control_c, 14, 11, 94
14, 38594, Note_on_c, 14, 43, 0
14, 38597, Control_c, 14, 11, 95
14, 38631, Control_c, 14, 11, 96
14, 38654, Note_on_c, 14, 35, 111
14, 38664, Control_c, 14, 11, 97
14, 38698, Control_c, 14, 11, 98
14, 38714, Note_on_c, 14, 35, 0
14, 38732, Control_c, 14, 11, 99
14, 38766, Control_c, 14, 11, 100
14, 38774, Note_on_c, 14, 36, 112
14, 38800, Control_c, 14, 11, 101
14, 38834, Control_c, 14, 11, 102
14, 38894, Note_on_c, 14, 36, 0
14, 39014, Note_on_c, 14, 36, 114
14, 39134, Note_on_c, 14, 36, 0
14, 39254, Note_on_c, 14, 36, 114
14, 39359, Note_on_c, 14, 36, 0
14, 39374, Note_on_c, 14, 36, 114
14, 39479, Note_on_c, 14, 36, 0
14, 39494, Note_on_c, 14, 36, 114
14, 39599, Note_on_c, 14, 36, 0
14, 39614, Note_on_c, 14, 36, 114
14, 40199, Note_on_c, 14, 36, 0
14, 40214, Note_on_c, 14, 29, 114
14, 40319, Note_on_c, 14, 29, 0
14, 40334, Note_on_c, 14, 36, 114
14, 40439, Note_on_c, 14, 36, 0
14, 40454, Note_on_c, 14, 36, 114
14, 40559, Note_on_c, 14, 36, 0
14, 40574, Note_on_c, 14, 36, 114
14, 41159, Note_on_c, 14, 36, 0
14, 41174, Note_on_c, 14, 29, 114
14, 41279, Note_on_c, 14, 29, 0
14, 41294, Note_on_c, 14, 36, 114
14, 41399, Note_on_c, 14, 36, 0
14, 41414, Note_on_c, 14, 36, 114
14, 41519, Note_on_c, 14, 36, 0
14, 41534, Note_on_c, 14, 36, 114
14, 41879, Note_on_c, 14, 36, 0
14, 41894, Note_on_c, 14, 28, 114
14, 41999, Note_on_c, 14, 28, 0
14, 42014, Note_on_c, 14, 28, 114
14, 42359, Note_on_c, 14, 28, 0
14, 42374, Note_on_c, 14, 29, 114
14, 42479, Note_on_c, 14, 29, 0
14, 42494, Note_on_c, 14, 29, 114
14, 42839, Note_on_c, 14, 29, 0
14, 42854, Note_on_c, 14, 31, 114
14, 42959, Note_on_c, 14, 31, 0
14, 42974, Note_on_c, 14, 31, 114
14, 43319, Note_on_c, 14, 31, 0
14, 43334, Note_on_c, 14, 33, 114
14, 43439, Note_on_c, 14, 33, 0
14, 43454, Note_on_c, 14, 33, 114
14, 43799, Note_on_c, 14, 33, 0
14, 43814, Note_on_c, 14, 28, 114
14, 43919, Note_on_c, 14, 28, 0
14, 43934, Note_on_c, 14, 28, 114
14, 44279, Note_on_c, 14, 28, 0
14, 44294, Note_on_c, 14, 29, 114
14, 44399, Note_on_c, 14, 29, 0
14, 44414, Note_on_c, 14, 29, 114
14, 44759, Note_on_c, 14, 29, 0
14, 44774, Note_on_c, 14, 29, 114
14, 44879, Note_on_c, 14, 29, 0
14, 44894, Note_on_c, 14, 29, 114
14, 45239, Note_on_c, 14, 29, 0
14, 45254, Note_on_c, 14, 30, 114
14, 45359, Note_on_c, 14, 30, 0
14, 45374, Note_on_c, 14, 30, 114
14, 45719, Note_on_c, 14, 30, 0
14, 45734, Note_on_c, 14, 30, 114
14, 45839, Note_on_c, 14, 30, 0
14, 45854, Note_on_c, 14, 30, 114
14, 46079, Note_on_c, 14, 30, 0
14, 46094, Note_on_c, 14, 30, 97
14, 46214, Note_on_c, 14, 30, 0
14, 47174, Control_c, 14, 11, 47
14, 47174, Note_on_c, 14, 38, 105
14, 47284, Note_on_c, 14, 38, 0
14, 47294, Note_on_c, 14, 38, 105
14, 47404, Note_on_c, 14, 38, 0
14, 47414, Note_on_c, 14, 38, 105
14, 47524, Note_on_c, 14, 38, 0
14, 47534, Note_on_c, 14, 38, 105
14, 47644, Note_on_c, 14, 38, 0
14, 47654, Note_on_c, 14, 38, 105
14, 47764, Note_on_c, 14, 38, 0
14, 47774, Note_on_c, 14, 38, 105
14, 47884, Note_on_c, 14, 38, 0
14, 47894, Note_on_c, 14, 38, 105
14, 48004, Note_on_c, 14, 38, 0
14, 48014, Note_on_c, 14, 38, 105
14, 48134, Note_on_c, 14, 38, 0
14, 48974, Control_c, 14, 11, 62
14, 49006, Control_c, 14, 11, 61
14, 49038, Control_c, 14, 11, 60
14, 49070, Control_c, 14, 11, 59
14, 49094, Note_on_c, 14, 38, 117
14, 49102, Control_c, 14, 11, 58
14, 49134, Control_c, 14, 11, 57
14, 49166, Control_c, 14, 11, 56
14, 49198, Control_c, 14, 11, 55
14, 49204, Note_on_c, 14, 38, 0
14, 49214, Note_on_c, 14, 38, 117
14, 49230, Control_c, 14, 11, 54
14, 49262, Control_c, 14, 11, 53
14, 49294, Control_c, 14, 11, 52
14, 49324, Note_on_c, 14, 38, 0
14, 49326, Control_c, 14, 11, 51
14, 49334, Note_on_c, 14, 38, 117
14, 49358, Control_c, 14, 11, 50
14, 49390, Control_c, 14, 11, 49
14, 49422, Control_c, 14, 11, 48
14, 49444, Note_on_c, 14, 38, 0
14, 49454, Control_c, 14, 11, 47
14, 49454, Note_on_c, 14, 38, 117
14, 49564, Note_on_c, 14, 38, 0
14, 49574, Note_on_c, 14, 38, 117
14, 49684, Note_on_c, 14, 38, 0
14, 49694, Note_on_c, 14, 38, 117
14, 49804, Note_on_c, 14, 38, 0
14, 49814, Note_on_c, 14, 38, 117
14, 49924, Note_on_c, 14, 38, 0
14, 49934, Note_on_c, 14, 38, 117
14, 50054, Note_on_c, 14, 38, 0
14, 56654, Control_c, 14, 11, 87
14, 56654, Note_on_c, 14, 34, 97
14, 56764, Note_on_c, 14, 34, 0
14, 57254, Control_c, 14, 11, 47
14, 57254, Note_on_c, 14, 46, 97
14, 57314, Note_on_c, 14, 46, 0
14, 57374, Note_on_c, 14, 45, 97
14, 57434, Note_on_c, 14, 45, 0
14, 57494, Note_on_c, 14, 46, 97
14, 57554, Note_on_c, 14, 46, 0
14, 57614, Note_on_c, 14, 48, 97
14, 57734, Note_on_c, 14, 48, 0
14, 57734, Note_on_c, 14, 45, 97
14, 57844, Note_on_c, 14, 45, 0
14, 57854, Note_on_c, 14, 41, 97
14, 57914, Note_on_c, 14, 41, 0
14, 57974, Note_on_c, 14, 39, 97
14, 58034, Note_on_c, 14, 39, 0
14, 58094, Note_on_c, 14, 38, 97
14, 58154, Note_on_c, 14, 38, 0
14, 58214, Note_on_c, 14, 41, 97
14, 58274, Note_on_c, 14, 41, 0
14, 58334, Note_on_c, 14, 45, 97
14, 58394, Note_on_c, 14, 45, 0
14, 58454, Control_c, 14, 11, 47
14, 58454, Note_on_c, 14, 47, 97
14, 58463, Control_c, 14, 11, 50
14, 58472, Control_c, 14, 11, 53
14, 58481, Control_c, 14, 11, 56
14, 58490, Control_c, 14, 11, 59
14, 58499, Control_c, 14, 11, 62
14, 58508, Control_c, 14, 11, 65
14, 58514, Note_on_c, 14, 47, 0
14, 58517, Control_c, 14, 11, 68
14, 58526, Control_c, 14, 11, 71
14, 58535, Control_c, 14, 11, 74
14, 58544, Control_c, 14, 11, 77
14, 58553, Control_c, 14, 11, 80
14, 58562, Control_c, 14, 11, 83
14, 58571, Control_c, 14, 11, 86
14, 58574, Note_on_c, 14, 48, 97
14, 58634, Note_on_c, 14, 48, 0
14, 59174, Control_c, 14, 11, 47
14, 59174, Note_on_c, 14, 36, 97
14, 59234, Note_on_c, 14, 36, 0
14, 59294, Note_on_c, 14, 35, 97
14, 59354, Note_on_c, 14, 35, 0
14, 59414, Note_on_c, 14, 36, 97
14, 59474, Note_on_c, 14, 36, 0
14, 59534, Note_on_c, 14, 38, 97
14, 59654, Note_on_c, 14, 38, 0
14, 59654, Note_on_c, 14, 35, 97
14, 59764, Note_on_c, 14, 35, 0
14, 59774, Note_on_c, 14, 31, 97
14, 59834, Note_on_c, 14, 31, 0
14, 59894, Note_on_c, 14, 29, 97
14, 59954, Note_on_c, 14, 29, 0
14, 60014, Note_on_c, 14, 27, 97
14, 60074, Note_on_c, 14, 27, 0
14, 60134, Note_on_c, 14, 31, 97
14, 60194, Note_on_c, 14, 31, 0
14, 60254, Note_on_c, 14, 36, 97
14, 60314, Note_on_c, 14, 36, 0
14, 60374, Note_on_c, 14, 38, 97
14, 60434, Note_on_c, 14, 38, 0
14, 60494, Control_c, 14, 11, 72
14, 60494, Note_on_c, 14, 39, 97
14, 60497, Control_c, 14, 11, 75
14, 60500, Control_c, 14, 11, 78
14, 60503, Control_c, 14, 11, 81
14, 60519, Control_c, 14, 11, 79
14, 60536, Control_c, 14, 11, 77
14, 60552, Control_c, 14, 11, 75
14, 60569, Control_c, 14, 11, 73
14, 60585, Control_c, 14, 11, 71
14, 60602, Control_c, 14, 11, 69
14, 60614, Note_on_c, 14, 39, 0
14, 60614, Note_on_c, 14, 36, 97
14, 60618, Control_c, 14, 11, 67
14, 60635, Control_c, 14, 11, 65
14, 60651, Control_c, 14, 11, 63
14, 60724, Note_on_c, 14, 36, 0
14, 60734, Control_c, 14, 11, 49
14, 60734, Note_on_c, 14, 33, 97
14, 60794, Note_on_c, 14, 33, 0
14, 60854, Note_on_c, 14, 31, 97
14, 60914, Note_on_c, 14, 31, 0
14, 60974, Note_on_c, 14, 30, 97
14, 61034, Note_on_c, 14, 30, 0
14, 61094, Note_on_c, 14, 33, 97
14, 61154, Note_on_c, 14, 33, 0
14, 61214, Note_on_c, 14, 36, 97
14, 61274, Note_on_c, 14, 36, 0
14, 61334, Note_on_c, 14, 38, 97
14, 61394, Note_on_c, 14, 38, 0
14, 61454, Control_c, 14, 11, 72
14, 61454, Note_on_c, 14, 39, 97
14, 61457, Control_c, 14, 11, 75
14, 61460, Control_c, 14, 11, 78
14, 61463, Control_c, 14, 11, 81
14, 61479, Control_c, 14, 11, 79
14, 61496, Control_c, 14, 11, 77
14, 61512, Control_c, 14, 11, 75
14, 61514, Note_on_c, 14, 39, 0
14, 61529, Control_c, 14, 11, 73
14, 61545, Control_c, 14, 11, 71
14, 61562, Control_c, 14, 11, 69
14, 61574, Note_on_c, 14, 35, 97
14, 61578, Control_c, 14, 11, 67
14, 61595, Control_c, 14, 11, 65
14, 61611, Control_c, 14, 11, 63
14, 61694, Note_on_c, 14, 35, 0
14, 61694, Control_c, 14, 11, 49
14, 61694, Note_on_c, 14, 36, 97
14, 61814, Note_on_c, 14, 36, 0
14, 61814, Note_on_c, 14, 30, 97
14, 61924, Note_on_c, 14, 30, 0
14, 61934, Control_c, 14, 11, 72
14, 61934, Note_on_c, 14, 39, 97
14, 61937, Control_c, 14, 11, 75
14, 61940, Control_c, 14, 11, 78
14, 61943, Control_c, 14, 11, 81
14, 61959, Control_c, 14, 11, 79
14, 61976, Control_c, 14, 11, 77
14, 61992, Control_c, 14, 11, 75
14, 61994, Note_on_c, 14, 39, 0
14, 62009, Control_c, 14, 11, 73
14, 62025, Control_c, 14, 11, 71
14, 62042, Control_c, 14, 11, 69
14, 62054, Note_on_c, 14, 35, 97
14, 62058, Control_c, 14, 11, 67
14, 62075, Control_c, 14, 11, 65
14, 62091, Control_c, 14, 11, 63
14, 62174, Note_on_c, 14, 35, 0
14, 62174, Control_c, 14, 11, 49
14, 62174, Note_on_c, 14, 36, 97
14, 62294, Note_on_c, 14, 36, 0
14, 62294, Note_on_c, 14, 31, 97
14, 62404, Note_on_c, 14, 31, 0
14, 62414, Control_c, 14, 11, 72
14, 62414, Note_on_c, 14, 39, 97
14, 62417, Control_c, 14, 11, 75
14, 62420, Control_c, 14, 11, 78
14, 62423, Control_c, 14, 11, 81
14, 62439, Control_c, 14, 11, 79
14, 62456, Control_c, 14, 11, 77
14, 62472, Control_c, 14, 11, 75
14, 62474, Note_on_c, 14, 39, 0
14, 62489, Control_c, 14, 11, 73
14, 62505, Control_c, 14, 11, 71
14, 62522, Control_c, 14, 11, 69
14, 62534, Note_on_c, 14, 35, 97
14, 62538, Control_c, 14, 11, 67
14, 62555, Control_c, 14, 11, 65
14, 62571, Control_c, 14, 11, 63
14, 62654, Note_on_c, 14, 35, 0
14, 62654, Control_c, 14, 11, 49
14, 62654, Note_on_c, 14, 36, 97
14, 62774, Note_on_c, 14, 36, 0
14, 62774, Note_on_c, 14, 32, 97
14, 62884, Note_on_c, 14, 32, 0
14, 62894, Control_c, 14, 11, 72
14, 62894, Note_on_c, 14, 39, 97
14, 62897, Control_c, 14, 11, 75
14, 62900, Control_c, 14, 11, 78
14, 62903, Control_c, 14, 11, 81
14, 62919, Control_c, 14, 11, 79
14, 62936, Control_c, 14, 11, 77
14, 62952, Control_c, 14, 11, 75
14, 62954, Note_on_c, 14, 39, 0
14, 62969, Control_c, 14, 11, 73
14, 62985, Control_c, 14, 11, 71
14, 63002, Control_c, 14, 11, 69
14, 63014, Note_on_c, 14, 35, 97
14, 63018, Control_c, 14, 11, 67
14, 63035, Control_c, 14, 11, 65
14, 63051, Control_c, 14, 11, 63
14, 63134, Note_on_c, 14, 35, 0
14, 63134, Control_c, 14, 11, 49
14, 63134, Note_on_c, 14, 36, 97
14, 63254, Note_on_c, 14, 36, 0
14, 63254, Control_c, 14, 11, 47
14, 63254, Note_on_c, 14, 33, 97
14, 63265, Control_c, 14, 11, 50
14, 63277, Control_c, 14, 11, 53
14, 63289, Control_c, 14, 11, 56
14, 63301, Control_c, 14, 11, 59
14, 63313, Control_c, 14, 11, 62
14, 63325, Control_c, 14, 11, 65
14, 63337, Control_c, 14, 11, 68
14, 63349, Control_c, 14, 11, 71
14, 63361, Control_c, 14, 11, 74
14, 63364, Note_on_c, 14, 33, 0
14, 63373, Control_c, 14, 11, 77
14, 63374, Control_c, 14, 11, 87
14, 63374, Note_on_c, 14, 33, 114
14, 63479, Note_on_c, 14, 33, 0
14, 63494, Note_on_c, 14, 45, 114
14, 63599, Note_on_c, 14, 45, 0
14, 63614, Note_on_c, 14, 45, 114
14, 63719, Note_on_c, 14, 45, 0
14, 63734, Note_on_c, 14, 45, 114
14, 63839, Note_on_c, 14, 45, 0
14, 63854, Note_on_c, 14, 45, 114
14, 63959, Note_on_c, 14, 45, 0
14, 64214, Note_on_c, 14, 33, 114
14, 64319, Note_on_c, 14, 33, 0
14, 64334, Note_on_c, 14, 35, 114
14, 64439, Note_on_c, 14, 35, 0
14, 64454, Note_on_c, 14, 47, 114
14, 64559, Note_on_c, 14, 47, 0
14, 64574, Control_c, 14, 11, 87
14, 64574, Note_on_c, 14, 47, 114
14, 64663, Control_c, 14, 11, 88
14, 64679, Note_on_c, 14, 47, 0
14, 64694, Note_on_c, 14, 47, 114
14, 64753, Control_c, 14, 11, 89
14, 64799, Note_on_c, 14, 47, 0
14, 64814, Note_on_c, 14, 47, 114
14, 64843, Control_c, 14, 11, 90
14, 64919, Note_on_c, 14, 47, 0
14, 64933, Control_c, 14, 11, 91
14, 65023, Control_c, 14, 11, 92
14, 65113, Control_c, 14, 11, 93
14, 65174, Note_on_c, 14, 35, 114
14, 65203, Control_c, 14, 11, 94
14, 65279, Note_on_c, 14, 35, 0
14, 65293, Control_c, 14, 11, 95
14, 65294, Note_on_c, 14, 36, 114
14, 65399, Note_on_c, 14, 36, 0
14, 65414, Note_on_c, 14, 48, 114
14, 65519, Note_on_c, 14, 48, 0
14, 65534, Note_on_c, 14, 48, 114
14, 65639, Note_on_c, 14, 48, 0
14, 65654, Note_on_c, 14, 48, 114
14, 65759, Note_on_c, 14, 48, 0
14, 65774, Note_on_c, 14, 38, 114
14, 65879, Note_on_c, 14, 38, 0
14, 65894, Note_on_c, 14, 50, 114
14, 65999, Note_on_c, 14, 50, 0
14, 66014, Note_on_c, 14, 50, 114
14, 66119, Note_on_c, 14, 50, 0
14, 66134, Note_on_c, 14, 50, 114
14, 66239, Note_on_c, 14, 50, 0
14, 66254, Note_on_c, 14, 40, 114
14, 66359, Note_on_c, 14, 40, 0
14, 66374, Note_on_c, 14, 52, 114
14, 66479, Note_on_c, 14, 52, 0
14, 66494, Note_on_c, 14, 52, 114
14, 66599, Note_on_c, 14, 52, 0
14, 66614, Note_on_c, 14, 52, 114
14, 66719, Note_on_c, 14, 52, 0
14, 66734, Note_on_c, 14, 35, 114
14, 66839, Note_on_c, 14, 35, 0
14, 66854, Note_on_c, 14, 47, 114
14, 66959, Note_on_c, 14, 47, 0
14, 66974, Note_on_c, 14, 47, 114
14, 67079, Note_on_c, 14, 47, 0
14, 67094, Note_on_c, 14, 47, 114
14, 67199, Note_on_c, 14, 47, 0
14, 67214, Note_on_c, 14, 36, 114
14, 67319, Note_on_c, 14, 36, 0
14, 67334, Note_on_c, 14, 48, 114
14, 67439, Note_on_c, 14, 48, 0
14, 67454, Note_on_c, 14, 48, 114
14, 67559, Note_on_c, 14, 48, 0
14, 67574, Note_on_c, 14, 48, 114
14, 67679, Note_on_c, 14, 48, 0
14, 67694, Note_on_c, 14, 33, 114
14, 67799, Note_on_c, 14, 33, 0
14, 67814, Note_on_c, 14, 45, 114
14, 67919, Note_on_c, 14, 45, 0
14, 67934, Note_on_c, 14, 45, 114
14, 68039, Note_on_c, 14, 45, 0
14, 68054, Note_on_c, 14, 45, 114
14, 68159, Note_on_c, 14, 45, 0
14, 68174, Control_c, 14, 11, 112
14, 68174, Note_on_c, 14, 43, 97
14, 68192, Control_c, 14, 11, 109
14, 68210, Control_c, 14, 11, 106
14, 68228, Control_c, 14, 11, 103
14, 68519, Note_on_c, 14, 43, 0
14, 68534, Note_on_c, 14, 43, 97
14, 68594, Note_on_c, 14, 43, 0
14, 68654, Note_on_c, 14, 42, 97
14, 68774, Note_on_c, 14, 42, 0
14, 68774, Note_on_c, 14, 43, 97
14, 68874, Note_on_c, 14, 43, 0
14, 68894, Note_on_c, 14, 38, 97
14, 68954, Note_on_c, 14, 38, 0
14, 69014, Note_on_c, 14, 40, 97
14, 69074, Note_on_c, 14, 40, 0
14, 69134, Note_on_c, 14, 40, 104
14, 69254, Note_on_c, 14, 40, 0
14, 69254, Note_on_c, 14, 38, 97
14, 69354, Note_on_c, 14, 38, 0
14, 69374, Note_on_c, 14, 43, 97
14, 69434, Note_on_c, 14, 43, 0
14, 69494, Note_on_c, 14, 43, 97
14, 69554, Note_on_c, 14, 43, 0
14, 69614, Note_on_c, 14, 42, 104
14, 69734, Note_on_c, 14, 42, 0
14, 69734, Note_on_c, 14, 43, 97
14, 69834, Note_on_c, 14, 43, 0
14, 69854, Note_on_c, 14, 38, 97
14, 69914, Note_on_c, 14, 38, 0
14, 69974, Note_on_c, 14, 40, 97
14, 70034, Note_on_c, 14, 40, 0
14, 70334, Note_on_c, 14, 40, 97
14, 70394, Note_on_c, 14, 40, 0
14, 70454, Note_on_c, 14, 38, 97
14, 70804, Note_on_c, 14, 38, 0
14, 70814, Note_on_c, 14, 36, 97
14, 70874, Note_on_c, 14, 36, 0
14, 70934, Note_on_c, 14, 35, 97
14, 71164, Note_on_c, 14, 35, 0
14, 71174, Note_on_c, 14, 33, 97
14, 71234, Note_on_c, 14, 33, 0
14, 71294, Note_on_c, 14, 31, 97
14, 71354, Note_on_c, 14, 31, 0
14, 71414, Note_on_c, 14, 42, 97
14, 71534, Note_on_c, 14, 42, 0
14, 71534, Note_on_c, 14, 40, 97
14, 71654, Note_on_c, 14, 40, 0
14, 71654, Note_on_c, 14, 38, 97
14, 71774, Note_on_c, 14, 38, 0
14, 71774, Note_on_c, 14, 36, 97
14, 71894, Note_on_c, 14, 36, 0
14, 71894, Note_on_c, 14, 35, 97
14, 72014, Note_on_c, 14, 35, 0
14, 72014, Note_on_c, 14, 36, 97
14, 72134, Note_on_c, 14, 36, 0
14, 72254, Note_on_c, 14, 36, 97
14, 72374, Note_on_c, 14, 36, 0
14, 72494, Note_on_c, 14, 36, 97
14, 72614, Note_on_c, 14, 36, 0
14, 72734, Note_on_c, 14, 36, 97
14, 72854, Note_on_c, 14, 36, 0
14, 72974, Note_on_c, 14, 36, 97
14, 73084, Note_on_c, 14, 36, 0
14, 73094, Note_on_c, 14, 36, 97
14, 73204, Note_on_c, 14, 36, 0
14, 73214, Note_on_c, 14, 36, 97
14, 73334, Note_on_c, 14, 36, 0
14, 73934, Control_c, 14, 11, 47
14, 73934, Note_on_c, 14, 38, 97
14, 74030, Note_on_c, 14, 38, 0
14, 74174, Note_on_c, 14, 40, 97
14, 74270, Note_on_c, 14, 40, 0
14, 74414, Note_on_c, 14, 37, 97
14, 74510, Note_on_c, 14, 37, 0
14, 74654, Note_on_c, 14, 38, 97
14, 74750, Note_on_c, 14, 38, 0
14, 74894, Control_c, 14, 11, 87
14, 74894, Note_on_c, 14, 36, 97
14, 75014, Note_on_c, 14, 36, 0
14, 75134, Note_on_c, 14, 36, 97
14, 75254, Note_on_c, 14, 36, 0
14, 75374, Note_on_c, 14, 36, 97
14, 75494, Note_on_c, 14, 36, 0
14, 75614, Note_on_c, 14, 36, 97
14, 75734, Note_on_c, 14, 36, 0
14, 75854, Note_on_c, 14, 36, 97
14, 75964, Note_on_c, 14, 36, 0
14, 75974, Note_on_c, 14, 36, 97
14, 76084, Note_on_c, 14, 36, 0
14, 76094, Note_on_c, 14, 36, 97
14, 76214, Note_on_c, 14, 36, 0
14, 76814, Control_c, 14, 11, 107
14, 76814, Note_on_c, 14, 37, 97
14, 76831, Control_c, 14, 11, 104
14, 76849, Control_c, 14, 11, 101
14, 76867, Control_c, 14, 11, 98
14, 76885, Control_c, 14, 11, 95
14, 76903, Control_c, 14, 11, 92
14, 76921, Control_c, 14, 11, 89
14, 76924, Note_on_c, 14, 37, 0
14, 76934, Note_on_c, 14, 37, 97
14, 77044, Note_on_c, 14, 37, 0
14, 77054, Note_on_c, 14, 37, 97
14, 77174, Note_on_c, 14, 37, 0
14, 77774, Control_c, 14, 11, 107
14, 77774, Note_on_c, 14, 38, 97
14, 77791, Control_c, 14, 11, 104
14, 77809, Control_c, 14, 11, 101
14, 77827, Control_c, 14, 11, 98
14, 77845, Control_c, 14, 11, 95
14, 77863, Control_c, 14, 11, 92
14, 77881, Control_c, 14, 11, 89
14, 77884, Note_on_c, 14, 38, 0
14, 77894, Note_on_c, 14, 38, 97
14, 78004, Note_on_c, 14, 38, 0
14, 78014, Note_on_c, 14, 38, 97
14, 78134, Note_on_c, 14, 38, 0
14, 79094, Control_c, 14, 11, 107
14, 79094, Note_on_c, 14, 42, 97
14, 79111, Control_c, 14, 11, 104
14, 79129, Control_c, 14, 11, 101
14, 79147, Control_c, 14, 11, 98
14, 79165, Control_c, 14, 11, 95
14, 79183, Control_c, 14, 11, 92
14, 79201, Control_c, 14, 11, 89
14, 79214, Note_on_c, 14, 42, 0
14, 79214, Note_on_c, 14, 43, 97
14, 79319, Note_on_c, 14, 43, 0
14, 79334, Note_on_c, 14, 37, 97
14, 79394, Note_on_c, 14, 37, 0
14, 79454, Note_on_c, 14, 38, 97
14, 79514, Note_on_c, 14, 38, 0
14, 79574, Note_on_c, 14, 34, 97
14, 79634, Note_on_c, 14, 34, 0
14, 79694, Note_on_c, 14, 35, 114
14, 79754, Note_on_c, 14, 35, 0
14, 79814, Note_on_c, 14, 34, 114
14, 79874, Note_on_c, 14, 34, 0
14, 79934, Note_on_c, 14, 35, 114
14, 79994, Note_on_c, 14, 35, 0
14, 80054, Note_on_c, 14, 36, 114
14, 80114, Note_on_c, 14, 36, 0
14, 80174, Note_on_c, 14, 37, 114
14, 80234, Note_on_c, 14, 37, 0
14, 80294, Note_on_c, 14, 38, 114
14, 80354, Note_on_c, 14, 38, 0
14, 80414, Note_on_c, 14, 39, 114
14, 80474, Note_on_c, 14, 39, 0
14, 80534, Note_on_c, 14, 40, 114
14, 80594, Note_on_c, 14, 40, 0
14, 80654, Note_on_c, 14, 41, 114
14, 80714, Note_on_c, 14, 41, 0
14, 80774, Note_on_c, 14, 42, 114
14, 80834, Note_on_c, 14, 42, 0
14, 80894, Note_on_c, 14, 43, 114
14, 80954, Note_on_c, 14, 43, 0
14, 81014, Note_on_c, 14, 37, 114
14, 81074, Note_on_c, 14, 37, 0
14, 81134, Note_on_c, 14, 38, 114
14, 81194, Note_on_c, 14, 38, 0
14, 81254, Note_on_c, 14, 37, 114
14, 81314, Note_on_c, 14, 37, 0
14, 81374, Note_on_c, 14, 38, 114
14, 81434, Note_on_c, 14, 38, 0
14, 81494, Note_on_c, 14, 38, 114
14, 81554, Note_on_c, 14, 38, 0
14, 81614, Note_on_c, 14, 31, 97
14, 81734, Note_on_c, 14, 31, 0
14, 83414, Control_c, 14, 11, 47
14, 83414, Note_on_c, 14, 47, 77
14, 83474, Note_on_c, 14, 47, 0
14, 83534, Note_on_c, 14, 45, 97
14, 83550, Control_c, 14, 11, 46
14, 83654, Note_on_c, 14, 45, 0
14, 83654, Note_on_c, 14, 43, 97
14, 83686, Control_c, 14, 11, 45
14, 83774, Note_on_c, 14, 43, 0
14, 83822, Control_c, 14, 11, 44
14, 83894, Note_on_c, 14, 43, 77
14, 83954, Note_on_c, 14, 43, 0
14, 83958, Control_c, 14, 11, 43
14, 84014, Note_on_c, 14, 40, 97
14, 84094, Control_c, 14, 11, 42
14, 84134, Note_on_c, 14, 40, 0
14, 84134, Note_on_c, 14, 38, 97
14, 84230, Control_c, 14, 11, 41
14, 84254, Note_on_c, 14, 38, 0
14, 84366, Control_c, 14, 11, 40
14, 84374, Note_on_c, 14, 38, 77
14, 84434, Note_on_c, 14, 38, 0
14, 84494, Note_on_c, 14, 36, 97
14, 84502, Control_c, 14, 11, 39
14, 84614, Note_on_c, 14, 36, 0
14, 84614, Note_on_c, 14, 35, 97
14, 84638, Control_c, 14, 11, 38
14, 84734, Note_on_c, 14, 35, 0
14, 84774, Control_c, 14, 11, 37
14, 84854, Note_on_c, 14, 35, 77
14, 84910, Control_c, 14, 11, 36
14, 84914, Note_on_c, 14, 35, 0
14, 84974, Note_on_c, 14, 36, 97
14, 85046, Control_c, 14, 11, 35
14, 85094, Note_on_c, 14, 36, 0
14, 85094, Note_on_c, 14, 35, 97
14, 85182, Control_c, 14, 11, 34
14, 85214, Note_on_c, 14, 35, 0
14, 85318, Control_c, 14, 11, 33
14, 85334, Note_on_c, 14, 35, 77
14, 85394, Note_on_c, 14, 35, 0
14, 85454, Control_c, 14, 11, 32
14, 85454, Note_on_c, 14, 33, 97
14, 85574, Note_on_c, 14, 33, 0
14, 85574, Note_on_c, 14, 31, 97
14, 85854, Control_c, 14, 11, 32
14, 85867, Control_c, 14, 11, 29
14, 85881, Control_c, 14, 11, 26
14, 85894, Control_c, 14, 11, 23
14, 85899, Note_on_c, 14, 31, 0
14, 85934, Control_c, 14, 11, 67
14, 85934, Note_on_c, 14, 32, 97
14, 85936, Control_c, 14, 11, 70
14, 85939, Control_c, 14, 11, 73
14, 85941, Control_c, 14, 11, 76
14, 85944, Control_c, 14, 11, 79
14, 85947, Control_c, 14, 11, 83
14, 85950, Control_c, 14, 11, 86
14, 85953, Control_c, 14, 11, 90
14, 85956, Control_c, 14, 11, 93
14, 85959, Control_c, 14, 11, 97
14, 85962, Control_c, 14, 11, 100
14, 86324, Control_c, 14, 11, 102
14, 86327, Control_c, 14, 11, 99
14, 86330, Control_c, 14, 11, 96
14, 86334, Control_c, 14, 11, 93
14, 86337, Control_c, 14, 11, 90
14, 86341, Control_c, 14, 11, 87
14, 86344, Control_c, 14, 11, 84
14, 86348, Control_c, 14, 11, 81
14, 86351, Control_c, 14, 11, 78
14, 86354, Control_c, 14, 11, 75
14, 86358, Control_c, 14, 11, 72
14, 86361, Control_c, 14, 11, 69
14, 86364, Note_on_c, 14, 32, 0
14, 86414, Control_c, 14, 11, 67
14, 86414, Note_on_c, 14, 34, 97
14, 86416, Control_c, 14, 11, 70
14, 86419, Control_c, 14, 11, 73
14, 86421, Control_c, 14, 11, 76
14, 86424, Control_c, 14, 11, 79
14, 86427, Control_c, 14, 11, 83
14, 86430, Control_c, 14, 11, 86
14, 86433, Control_c, 14, 11, 90
14, 86436, Control_c, 14, 11, 93
14, 86439, Control_c, 14, 11, 97
14, 86442, Control_c, 14, 11, 100
14, 86804, Control_c, 14, 11, 102
14, 86807, Control_c, 14, 11, 99
14, 86810, Control_c, 14, 11, 96
14, 86814, Control_c, 14, 11, 93
14, 86817, Control_c, 14, 11, 90
14, 86821, Control_c, 14, 11, 87
14, 86824, Control_c, 14, 11, 84
14, 86828, Control_c, 14, 11, 81
14, 86831, Control_c, 14, 11, 78
14, 86834, Control_c, 14, 11, 75
14, 86838, Control_c, 14, 11, 72
14, 86841, Control_c, 14, 11, 69
14, 86844, Note_on_c, 14, 34, 0
14, 86893, Program_c, 14, 45
14, 86896, Note_on_c, 14, 39, 51
14, 87016, Note_on_c, 14, 39, 0
14, 88994, Note_on_c, 14, 34, 40
14, 89054, Note_on_c, 14, 34, 0
14, 89054, Note_on_c, 14, 39, 40
14, 89114, Note_on_c, 14, 39, 0
14, 89294, Note_on_c, 14, 34, 40
14, 89354, Note_on_c, 14, 34, 0
14, 89414, Note_on_c, 14, 39, 40
14, 89534, Note_on_c, 14, 39, 0
14, 89594, Note_on_c, 14, 39, 40
14, 89654, Note_on_c, 14, 39, 0
14, 89654, Note_on_c, 14, 36, 40
14, 89714, Note_on_c, 14, 36, 0
14, 89714, Note_on_c, 14, 34, 40
14, 89774, Note_on_c, 14, 34, 0
14, 89774, Note_on_c, 14, 33, 40
14, 89894, Note_on_c, 14, 33, 0
14, 90014, Note_on_c, 14, 32, 40
14, 90134, Note_on_c, 14, 32, 0
14, 90134, Note_on_c, 14, 31, 40
14, 90194, Note_on_c, 14, 31, 0
14, 90194, Note_on_c, 14, 29, 40
14, 90254, Note_on_c, 14, 29, 0
14, 90254, Note_on_c, 14, 34, 40
14, 90374, Note_on_c, 14, 34, 0
14, 90374, Note_on_c, 14, 34, 40
14, 90494, Note_on_c, 14, 34, 0
14, 90494, Note_on_c, 14, 39, 27
14, 90554, Note_on_c, 14, 39, 0
14, 91183, Program_c, 14, 48
14, 91184, Control_c, 14, 11, 72
14, 91184, Note_on_c, 14, 36, 97
14, 91209, Note_on_c, 14, 36, 0
14, 91214, Note_on_c, 14, 29, 97
14, 91574, Note_on_c, 14, 29, 0
14, 91574, Note_on_c, 14, 29, 77
14, 91609, Control_c, 14, 11, 47
14, 91611, Control_c, 14, 11, 44
14, 91614, Control_c, 14, 11, 41
14, 91617, Control_c, 14, 11, 38
14, 91620, Control_c, 14, 11, 35
14, 91623, Control_c, 14, 11, 32
14, 91626, Control_c, 14, 11, 29
14, 91629, Control_c, 14, 11, 26
14, 91632, Control_c, 14, 11, 23
14, 91634, Note_on_c, 14, 29, 0
14, 92264, Control_c, 14, 11, 72
14, 92264, Note_on_c, 14, 38, 97
14, 92289, Note_on_c, 14, 38, 0
14, 92294, Control_c, 14, 11, 47
14, 92294, Note_on_c, 14, 31, 77
14, 92649, Note_on_c, 14, 31, 0
14, 92654, Control_c, 14, 11, 47
14, 92654, Note_on_c, 14, 31, 77
14, 92672, Control_c, 14, 11, 48
14, 92690, Control_c, 14, 11, 49
14, 92708, Control_c, 14, 11, 50
14, 92726, Control_c, 14, 11, 51
14, 92744, Control_c, 14, 11, 52
14, 92762, Control_c, 14, 11, 53
14, 92780, Control_c, 14, 11, 54
14, 92798, Control_c, 14, 11, 55
14, 92816, Control_c, 14, 11, 56
14, 92834, Control_c, 14, 11, 57
14, 92852, Control_c, 14, 11, 58
14, 92870, Control_c, 14, 11, 59
14, 92888, Control_c, 14, 11, 60
14, 92906, Control_c, 14, 11, 61
14, 92924, Control_c, 14, 11, 62
14, 92942, Control_c, 14, 11, 63
14, 92960, Control_c, 14, 11, 64
14, 92978, Control_c, 14, 11, 65
14, 92996, Control_c, 14, 11, 66
14, 93009, Note_on_c, 14, 31, 0
14, 93014, Control_c, 14, 11, 67
14, 93014, Note_on_c, 14, 31, 77
14, 93032, Control_c, 14, 11, 68
14, 93050, Control_c, 14, 11, 69
14, 93068, Control_c, 14, 11, 70
14, 93086, Control_c, 14, 11, 71
14, 93104, Control_c, 14, 11, 72
14, 93122, Control_c, 14, 11, 73
14, 93134, Note_on_c, 14, 31, 0
14, 93134, Note_on_c, 14, 43, 77
14, 93140, Control_c, 14, 11, 74
14, 93158, Control_c, 14, 11, 75
14, 93176, Control_c, 14, 11, 76
14, 93194, Control_c, 14, 11, 77
14, 93212, Control_c, 14, 11, 78
14, 93230, Control_c, 14, 11, 79
14, 93248, Control_c, 14, 11, 80
14, 93254, Note_on_c, 14, 43, 0
14, 93254, Note_on_c, 14, 48, 77
14, 93266, Control_c, 14, 11, 81
14, 93284, Control_c, 14, 11, 82
14, 93302, Control_c, 14, 11, 83
14, 93320, Control_c, 14, 11, 84
14, 93338, Control_c, 14, 11, 85
14, 93356, Control_c, 14, 11, 86
14, 93369, Note_on_c, 14, 48, 0
14, 93374, Control_c, 14, 11, 87
14, 93374, Note_on_c, 14, 43, 77
14, 93390, Control_c, 14, 11, 89
14, 93406, Control_c, 14, 11, 91
14, 93422, Control_c, 14, 11, 93
14, 93438, Control_c, 14, 11, 95
14, 93454, Control_c, 14, 11, 97
14, 93470, Control_c, 14, 11, 99
14, 93479, Note_on_c, 14, 43, 0
14, 93479, Note_on_c, 14, 53, 77
14, 93486, Control_c, 14, 11, 101
14, 93489, Note_on_c, 14, 53, 0
14, 93494, Note_on_c, 14, 53, 77
14, 93502, Control_c, 14, 11, 100
14, 93515, Control_c, 14, 11, 97
14, 93528, Control_c, 14, 11, 94
14, 93542, Control_c, 14, 11, 91
14, 93555, Control_c, 14, 11, 88
14, 93568, Control_c, 14, 11, 85
14, 93581, Control_c, 14, 11, 82
14, 93594, Control_c, 14, 11, 79
14, 93607, Control_c, 14, 11, 76
14, 93620, Control_c, 14, 11, 73
14, 93633, Control_c, 14, 11, 70
14, 93646, Control_c, 14, 11, 67
14, 93659, Control_c, 14, 11, 64
14, 93672, Control_c, 14, 11, 61
14, 93674, Note_on_c, 14, 53, 0
14, 93674, Note_on_c, 14, 52, 77
14, 93686, Control_c, 14, 11, 58
14, 93699, Control_c, 14, 11, 55
14, 93712, Control_c, 14, 11, 52
14, 93725, Control_c, 14, 11, 49
14, 93729, Note_on_c, 14, 52, 0
14, 93734, Note_on_c, 14, 50, 77
14, 93761, Control_c, 14, 11, 46
14, 93789, Control_c, 14, 11, 45
14, 93794, Note_on_c, 14, 50, 0
14, 93794, Note_on_c, 14, 48, 77
14, 93817, Control_c, 14, 11, 44
14, 93844, Control_c, 14, 11, 43
14, 93854, Note_on_c, 14, 48, 0
14, 93854, Note_on_c, 14, 47, 77
14, 93872, Control_c, 14, 11, 42
14, 93900, Control_c, 14, 11, 41
14, 93914, Note_on_c, 14, 47, 0
14, 93914, Note_on_c, 14, 45, 77
14, 93927, Control_c, 14, 11, 40
14, 93955, Control_c, 14, 11, 39
14, 93974, Note_on_c, 14, 45, 0
14, 93974, Note_on_c, 14, 43, 77
14, 93983, Control_c, 14, 11, 38
14, 94010, Control_c, 14, 11, 37
14, 94034, Note_on_c, 14, 43, 0
14, 94034, Note_on_c, 14, 41, 77
14, 94038, Control_c, 14, 11, 36
14, 94066, Control_c, 14, 11, 35
14, 94089, Note_on_c, 14, 41, 0
14, 94094, Control_c, 14, 11, 34
14, 94094, Note_on_c, 14, 40, 77
14, 94154, Note_on_c, 14, 40, 0
14, 94154, Note_on_c, 14, 38, 77
14, 94214, Note_on_c, 14, 38, 0
14, 94214, Note_on_c, 14, 37, 77
14, 94274, Note_on_c, 14, 37, 0
14, 94274, Note_on_c, 14, 38, 77
14, 94334, Note_on_c, 14, 38, 0
14, 94334, Note_on_c, 14, 35, 77
14, 94394, Note_on_c, 14, 35, 0
14, 94394, Note_on_c, 14, 33, 77
14, 94449, Note_on_c, 14, 33, 0
14, 94454, Note_on_c, 14, 31, 107
14, 94574, Note_on_c, 14, 31, 0
14, 94679, Note_on_c, 14, 31, 107
14, 94694, Note_on_c, 14, 31, 0
14, 94694, Note_on_c, 14, 35, 107
14, 94754, Note_on_c, 14, 35, 0
14, 94799, Note_on_c, 14, 31, 107
14, 94814, Note_on_c, 14, 31, 0
14, 94814, Note_on_c, 14, 35, 107
14, 94874, Note_on_c, 14, 35, 0
14, 95039, Note_on_c, 14, 31, 107
14, 95054, Note_on_c, 14, 31, 0
14, 95054, Note_on_c, 14, 35, 107
14, 95114, Note_on_c, 14, 35, 0
14, 95159, Note_on_c, 14, 31, 107
14, 95174, Note_on_c, 14, 31, 0
14, 95174, Note_on_c, 14, 35, 107
14, 95234, Note_on_c, 14, 35, 0
14, 95399, Note_on_c, 14, 31, 107
14, 95414, Note_on_c, 14, 31, 0
14, 95414, Note_on_c, 14, 35, 107
14, 95474, Note_on_c, 14, 35, 0
14, 95519, Note_on_c, 14, 31, 107
14, 95534, Note_on_c, 14, 31, 0
14, 95534, Note_on_c, 14, 35, 107
14, 95654, Note_on_c, 14, 35, 0
14, 95894, Note_on_c, 14, 31, 97
14, 96014, Note_on_c, 14, 31, 0
14, 96014, Control_c, 14, 11, 37
14, 96014, Note_on_c, 14, 35, 97
14, 96042, Control_c, 14, 11, 38
14, 96071, Control_c, 14, 11, 39
14, 96100, Control_c, 14, 11, 40
14, 96129, Control_c, 14, 11, 41
14, 96134, Note_on_c, 14, 35, 0
14, 96158, Control_c, 14, 11, 42
14, 96186, Control_c, 14, 11, 43
14, 96215, Control_c, 14, 11, 44
14, 96244, Control_c, 14, 11, 45
14, 96273, Control_c, 14, 11, 46
14, 96302, Control_c, 14, 11, 47
14, 96330, Control_c, 14, 11, 48
14, 96359, Control_c, 14, 11, 49
14, 96374, Note_on_c, 14, 31, 97
14, 96388, Control_c, 14, 11, 50
14, 96417, Control_c, 14, 11, 51
14, 96446, Control_c, 14, 11, 52
14, 96474, Control_c, 14, 11, 53
14, 96479, Note_on_c, 14, 31, 0
14, 96494, Note_on_c, 14, 35, 97
14, 96503, Control_c, 14, 11, 54
14, 96532, Control_c, 14, 11, 55
14, 96561, Control_c, 14, 11, 56
14, 96590, Control_c, 14, 11, 57
14, 96599, Note_on_c, 14, 35, 0
14, 96614, Note_on_c, 14, 31, 97
14, 96618, Control_c, 14, 11, 58
14, 96647, Control_c, 14, 11, 59
14, 96676, Control_c, 14, 11, 60
14, 96705, Control_c, 14, 11, 61
14, 96719, Note_on_c, 14, 31, 0
14, 96734, Control_c, 14, 11, 62
14, 96734, Note_on_c, 14, 35, 97
14, 96762, Control_c, 14, 11, 63
14, 96791, Control_c, 14, 11, 64
14, 96820, Control_c, 14, 11, 65
14, 96839, Note_on_c, 14, 35, 0
14, 96849, Control_c, 14, 11, 66
14, 96854, Note_on_c, 14, 31, 97
14, 96878, Control_c, 14, 11, 67
14, 96906, Control_c, 14, 11, 68
14, 96935, Control_c, 14, 11, 69
14, 96959, Note_on_c, 14, 31, 0
14, 96964, Control_c, 14, 11, 70
14, 96974, Note_on_c, 14, 35, 97
14, 96993, Control_c, 14, 11, 71
14, 97022, Control_c, 14, 11, 72
14, 97050, Control_c, 14, 11, 73
14, 97079, Note_on_c, 14, 35, 0
14, 97079, Control_c, 14, 11, 74
14, 97094, Note_on_c, 14, 31, 97
14, 97108, Control_c, 14, 11, 75
14, 97137, Control_c, 14, 11, 76
14, 97166, Control_c, 14, 11, 77
14, 97194, Control_c, 14, 11, 78
14, 97199, Note_on_c, 14, 31, 0
14, 97214, Note_on_c, 14, 35, 97
14, 97223, Control_c, 14, 11, 79
14, 97252, Control_c, 14, 11, 80
14, 97281, Control_c, 14, 11, 81
14, 97310, Control_c, 14, 11, 82
14, 97319, Note_on_c, 14, 35, 0
14, 97334, Note_on_c, 14, 31, 97
14, 97338, Control_c, 14, 11, 83
14, 97367, Control_c, 14, 11, 84
14, 97396, Control_c, 14, 11, 85
14, 97425, Control_c, 14, 11, 86
14, 97439, Note_on_c, 14, 31, 0
14, 97454, Control_c, 14, 11, 87
14, 97454, Note_on_c, 14, 35, 97
14, 97559, Note_on_c, 14, 35, 0
14, 97574, Note_on_c, 14, 31, 98
14, 97679, Note_on_c, 14, 31, 0
14, 97694, Note_on_c, 14, 38, 99
14, 97799, Note_on_c, 14, 38, 0
14, 97814, Note_on_c, 14, 35, 100
14, 97919, Note_on_c, 14, 35, 0
14, 97934, Control_c, 14, 11, 87
14, 97934, Note_on_c, 14, 41, 101
14, 98026, Control_c, 14, 11, 88
14, 98039, Note_on_c, 14, 41, 0
14, 98054, Note_on_c, 14, 38, 103
14, 98118, Control_c, 14, 11, 89
14, 98159, Note_on_c, 14, 38, 0
14, 98174, Note_on_c, 14, 47, 104
14, 98210, Control_c, 14, 11, 90
14, 98279, Note_on_c, 14, 47, 0
14, 98294, Note_on_c, 14, 41, 105
14, 98302, Control_c, 14, 11, 91
14, 98394, Control_c, 14, 11, 92
14, 98399, Note_on_c, 14, 41, 0
14, 98414, Note_on_c, 14, 50, 106
14, 98486, Control_c, 14, 11, 93
14, 98519, Note_on_c, 14, 50, 0
14, 98534, Note_on_c, 14, 47, 107
14, 98578, Control_c, 14, 11, 94
14, 98639, Note_on_c, 14, 47, 0
14, 98654, Note_on_c, 14, 53, 109
14, 98670, Control_c, 14, 11, 95
14, 98759, Note_on_c, 14, 53, 0
14, 98762, Control_c, 14, 11, 96
14, 98774, Note_on_c, 14, 50, 110
14, 98854, Control_c, 14, 11, 97
14, 98879, Note_on_c, 14, 50, 0
14, 98894, Note_on_c, 14, 47, 111
14, 98946, Control_c, 14, 11, 98
14, 98999, Note_on_c, 14, 47, 0
14, 99014, Note_on_c, 14, 43, 112
14, 99038, Control_c, 14, 11, 99
14, 99119, Note_on_c, 14, 43, 0
14, 99130, Control_c, 14, 11, 100
14, 99134, Note_on_c, 14, 48, 114
14, 99222, Control_c, 14, 11, 101
14, 99239, Note_on_c, 14, 48, 0
14, 99254, Note_on_c, 14, 36, 114
14, 99314, Control_c, 14, 11, 102
14, 99374, Note_on_c, 14, 36, 0
14, 99494, Note_on_c, 14, 36, 114
14, 99614, Note_on_c, 14, 36, 0
14, 99734, Note_on_c, 14, 36, 114
14, 99854, Note_on_c, 14, 36, 0
14, 99854, Note_on_c, 14, 36, 114
14, 99959, Note_on_c, 14, 36, 0
14, 99974, Note_on_c, 14, 36, 114
14, 100079, Note_on_c, 14, 36, 0
14, 100094, Note_on_c, 14, 36, 114
14, 100679, Note_on_c, 14, 36, 0
14, 100694, Note_on_c, 14, 29, 114
14, 100799, Note_on_c, 14, 29, 0
14, 100814, Note_on_c, 14, 36, 114
14, 100919, Note_on_c, 14, 36, 0
14, 100934, Note_on_c, 14, 36, 114
14, 101039, Note_on_c, 14, 36, 0
14, 101054, Note_on_c, 14, 36, 114
14, 101639, Note_on_c, 14, 36, 0
14, 101654, Note_on_c, 14, 29, 114
14, 101759, Note_on_c, 14, 29, 0
14, 101774, Note_on_c, 14, 36, 114
14, 101879, Note_on_c, 14, 36, 0
14, 101894, Note_on_c, 14, 36, 114
14, 101999, Note_on_c, 14, 36, 0
14, 102014, Note_on_c, 14, 36, 114
14, 102359, Note_on_c, 14, 36, 0
14, 102374, Note_on_c, 14, 28, 114
14, 102479, Note_on_c, 14, 28, 0
14, 102494, Note_on_c, 14, 28, 114
14, 102839, Note_on_c, 14, 28, 0
14, 102854, Note_on_c, 14, 29, 114
14, 102959, Note_on_c, 14, 29, 0
14, 102974, Note_on_c, 14, 29, 114
14, 103319, Note_on_c, 14, 29, 0
14, 103334, Note_on_c, 14, 31, 114
14, 103439, Note_on_c, 14, 31, 0
14, 103454, Note_on_c, 14, 31, 114
14, 103799, Note_on_c, 14, 31, 0
14, 103814, Note_on_c, 14, 33, 114
14, 103919, Note_on_c, 14, 33, 0
14, 103934, Note_on_c, 14, 33, 114
14, 104279, Note_on_c, 14, 33, 0
14, 104294, Note_on_c, 14, 28, 114
14, 104399, Note_on_c, 14, 28, 0
14, 104414, Note_on_c, 14, 28, 114
14, 104759, Note_on_c, 14, 28, 0
14, 104774, Note_on_c, 14, 29, 114
14, 104879, Note_on_c, 14, 29, 0
14, 104894, Note_on_c, 14, 29, 114
14, 105239, Note_on_c, 14, 29, 0
14, 105254, Note_on_c, 14, 29, 114
14, 105359, Note_on_c, 14, 29, 0
14, 105374, Note_on_c, 14, 29, 114
14, 105719, Note_on_c, 14, 29, 0
14, 105734, Note_on_c, 14, 30, 114
14, 105839, Note_on_c, 14, 30, 0
14, 105854, Note_on_c, 14, 30, 114
14, 106199, Note_on_c, 14, 30, 0
14, 106214, Note_on_c, 14, 30, 114
14, 106319, Note_on_c, 14, 30, 0
14, 106334, Note_on_c, 14, 30, 114
14, 106559, Note_on_c, 14, 30, 0
14, 106574, Note_on_c, 14, 31, 82
14, 106694, Note_on_c, 14, 31, 0
14, 107654, Control_c, 14, 11, 37
14, 107654, Note_on_c, 14, 31, 97
14, 107759, Note_on_c, 14, 31, 0
14, 107774, Note_on_c, 14, 31, 97
14, 107879, Note_on_c, 14, 31, 0
14, 107894, Note_on_c, 14, 31, 97
14, 107999, Note_on_c, 14, 31, 0
14, 108014, Note_on_c, 14, 31, 97
14, 108119, Note_on_c, 14, 31, 0
14, 108134, Note_on_c, 14, 31, 97
14, 108239, Note_on_c, 14, 31, 0
14, 108254, Note_on_c, 14, 31, 97
14, 108359, Note_on_c, 14, 31, 0
14, 108374, Note_on_c, 14, 31, 97
14, 108479, Note_on_c, 14, 31, 0
14, 108494, Note_on_c, 14, 31, 97
14, 108614, Note_on_c, 14, 31, 0
14, 109454, Control_c, 14, 11, 72
14, 109473, Control_c, 14, 11, 71
14, 109492, Control_c, 14, 11, 70
14, 109511, Control_c, 14, 11, 69
14, 109530, Control_c, 14, 11, 68
14, 109550, Control_c, 14, 11, 67
14, 109569, Control_c, 14, 11, 66
14, 109574, Note_on_c, 14, 31, 97
14, 109588, Control_c, 14, 11, 65
14, 109607, Control_c, 14, 11, 64
14, 109626, Control_c, 14, 11, 63
14, 109646, Control_c, 14, 11, 62
14, 109665, Control_c, 14, 11, 61
14, 109679, Note_on_c, 14, 31, 0
14, 109684, Control_c, 14, 11, 60
14, 109694, Note_on_c, 14, 31, 97
14, 109703, Control_c, 14, 11, 59
14, 109722, Control_c, 14, 11, 58
14, 109742, Control_c, 14, 11, 57
14, 109761, Control_c, 14, 11, 56
14, 109780, Control_c, 14, 11, 55
14, 109799, Note_on_c, 14, 31, 0
14, 109799, Control_c, 14, 11, 54
14, 109814, Note_on_c, 14, 31, 97
14, 109818, Control_c, 14, 11, 53
14, 109838, Control_c, 14, 11, 52
14, 109857, Control_c, 14, 11, 51
14, 109876, Control_c, 14, 11, 50
14, 109895, Control_c, 14, 11, 49
14, 109914, Control_c, 14, 11, 48
14, 109919, Note_on_c, 14, 31, 0
14, 109934, Control_c, 14, 11, 47
14, 109934, Note_on_c, 14, 31, 97
14, 110039, Note_on_c, 14, 31, 0
14, 110054, Note_on_c, 14, 31, 97
14, 110159, Note_on_c, 14, 31, 0
14, 110174, Note_on_c, 14, 31, 97
14, 110279, Note_on_c, 14, 31, 0
14, 110294, Note_on_c, 14, 31, 97
14, 110399, Note_on_c, 14, 31, 0
14, 110414, Note_on_c, 14, 31, 97
14, 110534, Note_on_c, 14, 31, 0
14, 117734, Control_c, 14, 11, 47
14, 117734, Note_on_c, 14, 39, 97
14, 117794, Note_on_c, 14, 39, 0
14, 117854, Note_on_c, 14, 38, 97
14, 117914, Note_on_c, 14, 38, 0
14, 117974, Note_on_c, 14, 39, 97
14, 118034, Note_on_c, 14, 39, 0
14, 118094, Note_on_c, 14, 41, 97
14, 118214, Note_on_c, 14, 41, 0
14, 118214, Note_on_c, 14, 38, 97
14, 118324, Note_on_c, 14, 38, 0
14, 118334, Note_on_c, 14, 34, 97
14, 118394, Note_on_c, 14, 34, 0
14, 118454, Note_on_c, 14, 32, 97
14, 118514, Note_on_c, 14, 32, 0
14, 118574, Note_on_c, 14, 31, 97
14, 118634, Note_on_c, 14, 31, 0
14, 118694, Note_on_c, 14, 34, 97
14, 118754, Note_on_c, 14, 34, 0
14, 118814, Note_on_c, 14, 36, 97
14, 118874, Note_on_c, 14, 36, 0
14, 118934, Control_c, 14, 11, 47
14, 118934, Note_on_c, 14, 40, 97
14, 118943, Control_c, 14, 11, 50
14, 118952, Control_c, 14, 11, 53
14, 118961, Control_c, 14, 11, 56
14, 118970, Control_c, 14, 11, 59
14, 118979, Control_c, 14, 11, 62
14, 118988, Control_c, 14, 11, 65
14, 118994, Note_on_c, 14, 40, 0
14, 118997, Control_c, 14, 11, 68
14, 119006, Control_c, 14, 11, 71
14, 119015, Control_c, 14, 11, 74
14, 119024, Control_c, 14, 11, 77
14, 119033, Control_c, 14, 11, 80
14, 119042, Control_c, 14, 11, 83
14, 119051, Control_c, 14, 11, 86
14, 119054, Note_on_c, 14, 41, 97
14, 119114, Note_on_c, 14, 41, 0
14, 119654, Control_c, 14, 11, 47
14, 119654, Note_on_c, 14, 41, 97
14, 119714, Note_on_c, 14, 41, 0
14, 119774, Note_on_c, 14, 40, 97
14, 119834, Note_on_c, 14, 40, 0
14, 119894, Note_on_c, 14, 41, 97
14, 119954, Note_on_c, 14, 41, 0
14, 120014, Note_on_c, 14, 43, 97
14, 120134, Note_on_c, 14, 43, 0
14, 120134, Note_on_c, 14, 40, 97
14, 120244, Note_on_c, 14, 40, 0
14, 120254, Note_on_c, 14, 36, 97
14, 120314, Note_on_c, 14, 36, 0
14, 120374, Note_on_c, 14, 34, 97
14, 120434, Note_on_c, 14, 34, 0
14, 120494, Note_on_c, 14, 32, 97
14, 120554, Note_on_c, 14, 32, 0
14, 120614, Note_on_c, 14, 36, 97
14, 120674, Note_on_c, 14, 36, 0
14, 120734, Note_on_c, 14, 41, 97
14, 120794, Note_on_c, 14, 41, 0
14, 120854, Note_on_c, 14, 43, 97
14, 120914, Note_on_c, 14, 43, 0
14, 120974, Control_c, 14, 11, 72
14, 120974, Note_on_c, 14, 44, 97
14, 120978, Control_c, 14, 11, 75
14, 120983, Control_c, 14, 11, 78
14, 120987, Control_c, 14, 11, 81
14, 121010, Control_c, 14, 11, 79
14, 121023, Control_c, 14, 11, 76
14, 121037, Control_c, 14, 11, 73
14, 121050, Control_c, 14, 11, 70
14, 121064, Control_c, 14, 11, 67
14, 121077, Control_c, 14, 11, 64
14, 121091, Control_c, 14, 11, 61
14, 121094, Note_on_c, 14, 44, 0
14, 121094, Note_on_c, 14, 41, 97
14, 121104, Control_c, 14, 11, 58
14, 121118, Control_c, 14, 11, 55
14, 121131, Control_c, 14, 11, 52
14, 121145, Control_c, 14, 11, 49
14, 121204, Note_on_c, 14, 41, 0
14, 121214, Note_on_c, 14, 38, 97
14, 121274, Note_on_c, 14, 38, 0
14, 121334, Note_on_c, 14, 36, 97
14, 121394, Note_on_c, 14, 36, 0
14, 121454, Note_on_c, 14, 35, 97
14, 121514, Note_on_c, 14, 35, 0
14, 121574, Note_on_c, 14, 38, 97
14, 121634, Note_on_c, 14, 38, 0
14, 121694, Note_on_c, 14, 41, 97
14, 121754, Note_on_c, 14, 41, 0
14, 121814, Note_on_c, 14, 43, 97
14, 121874, Note_on_c, 14, 43, 0
14, 121934, Control_c, 14, 11, 72
14, 121934, Note_on_c, 14, 44, 97
14, 121938, Control_c, 14, 11, 75
14, 121943, Control_c, 14, 11, 78
14, 121947, Control_c, 14, 11, 81
14, 121970, Control_c, 14, 11, 79
14, 121983, Control_c, 14, 11, 76
14, 121997, Control_c, 14, 11, 73
14, 122010, Control_c, 14, 11, 70
14, 122024, Control_c, 14, 11, 67
14, 122037, Control_c, 14, 11, 64
14, 122051, Control_c, 14, 11, 61
14, 122054, Note_on_c, 14, 44, 0
14, 122054, Note_on_c, 14, 41, 97
14, 122064, Control_c, 14, 11, 58
14, 122078, Control_c, 14, 11, 55
14, 122091, Control_c, 14, 11, 52
14, 122105, Control_c, 14, 11, 49
14, 122164, Note_on_c, 14, 41, 0
14, 122174, Note_on_c, 14, 38, 97
14, 122234, Note_on_c, 14, 38, 0
14, 122294, Note_on_c, 14, 36, 97
14, 122354, Note_on_c, 14, 36, 0
14, 122414, Note_on_c, 14, 35, 97
14, 122474, Note_on_c, 14, 35, 0
14, 126254, Control_c, 14, 11, 47
14, 126254, Note_on_c, 14, 44, 82
14, 126374, Note_on_c, 14, 44, 0
14, 126374, Note_on_c, 14, 43, 89
14, 126494, Note_on_c, 14, 43, 0
14, 126494, Note_on_c, 14, 41, 97
14, 126614, Note_on_c, 14, 41, 0
14, 126614, Note_on_c, 14, 39, 97
14, 126719, Note_on_c, 14, 39, 0
14, 126734, Note_on_c, 14, 38, 97
14, 127334, Note_on_c, 14, 38, 0
14, 127334, Note_on_c, 14, 39, 97
14, 127454, Note_on_c, 14, 39, 0
14, 127454, Note_on_c, 14, 35, 97
14, 127574, Note_on_c, 14, 35, 0
14, 127574, Note_on_c, 14, 36, 97
14, 127679, Note_on_c, 14, 36, 0
14, 127694, Note_on_c, 14, 38, 97
14, 128294, Note_on_c, 14, 38, 0
14, 128294, Note_on_c, 14, 39, 97
14, 128414, Note_on_c, 14, 39, 0
14, 128414, Note_on_c, 14, 35, 97
14, 128534, Note_on_c, 14, 35, 0
14, 128534, Note_on_c, 14, 36, 97
14, 128639, Note_on_c, 14, 36, 0
14, 128654, Note_on_c, 14, 38, 97
14, 128774, Note_on_c, 14, 38, 0
14, 131894, Note_on_c, 14, 37, 78
14, 132014, Note_on_c, 14, 37, 0
14, 132014, Note_on_c, 14, 38, 87
14, 132134, Note_on_c, 14, 38, 0
14, 132134, Note_on_c, 14, 41, 97
14, 132254, Note_on_c, 14, 41, 0
14, 132254, Note_on_c, 14, 33, 97
14, 132374, Note_on_c, 14, 33, 0
14, 132374, Note_on_c, 14, 35, 97
14, 132494, Note_on_c, 14, 35, 0
14, 132494, Note_on_c, 14, 36, 82
14, 132614, Note_on_c, 14, 36, 0
14, 132974, Control_c, 14, 11, 47
14, 133154, Control_c, 14, 11, 48
14, 133334, Control_c, 14, 11, 49
14, 133334, Note_on_c, 14, 36, 97
14, 133439, Note_on_c, 14, 36, 0
14, 133454, Note_on_c, 14, 36, 97
14, 133514, Control_c, 14, 11, 50
14, 133559, Note_on_c, 14, 36, 0
14, 133694, Control_c, 14, 11, 51
14, 133874, Control_c, 14, 11, 52
14, 134054, Control_c, 14, 11, 53
14, 134234, Control_c, 14, 11, 54
14, 134294, Note_on_c, 14, 36, 97
14, 134399, Note_on_c, 14, 36, 0
14, 134414, Control_c, 14, 11, 55
14, 134414, Note_on_c, 14, 35, 97
14, 134519, Note_on_c, 14, 35, 0
14, 134594, Control_c, 14, 11, 56
14, 134774, Control_c, 14, 11, 57
14, 134954, Control_c, 14, 11, 58
14, 135134, Control_c, 14, 11, 59
14, 135254, Note_on_c, 14, 35, 97
14, 135314, Control_c, 14, 11, 60
14, 135359, Note_on_c, 14, 35, 0
14, 135374, Note_on_c, 14, 35, 97
14, 135479, Note_on_c, 14, 35, 0
14, 135494, Control_c, 14, 11, 61
14, 135674, Control_c, 14, 11, 62
14, 135854, Control_c, 14, 11, 63
14, 136034, Control_c, 14, 11, 64
14, 136214, Control_c, 14, 11, 65
14, 136214, Note_on_c, 14, 35, 97
14, 136319, Note_on_c, 14, 35, 0
14, 136334, Note_on_c, 14, 36, 97
14, 136394, Control_c, 14, 11, 66
14, 136439, Note_on_c, 14, 36, 0
14, 136574, Control_c, 14, 11, 67
14, 136694, Note_on_c, 14, 36, 97
14, 136754, Control_c, 14, 11, 68
14, 136799, Note_on_c, 14, 36, 0
14, 136814, Note_on_c, 14, 36, 97
14, 136919, Note_on_c, 14, 36, 0
14, 136934, Control_c, 14, 11, 69
14, 137114, Control_c, 14, 11, 70
14, 137174, Note_on_c, 14, 36, 97
14, 137279, Note_on_c, 14, 36, 0
14, 137294, Control_c, 14, 11, 71
14, 137294, Note_on_c, 14, 36, 97
14, 137399, Note_on_c, 14, 36, 0
14, 137474, Control_c, 14, 11, 72
14, 137654, Control_c, 14, 11, 73
14, 137654, Note_on_c, 14, 36, 97
14, 137759, Note_on_c, 14, 36, 0
14, 137774, Note_on_c, 14, 36, 97
14, 137834, Control_c, 14, 11, 74
14, 137879, Note_on_c, 14, 36, 0
14, 138014, Control_c, 14, 11, 75
14, 138134, Note_on_c, 14, 36, 97
14, 138194, Control_c, 14, 11, 76
14, 138239, Note_on_c, 14, 36, 0
14, 138254, Note_on_c, 14, 35, 97
14, 138359, Note_on_c, 14, 35, 0
14, 138374, Control_c, 14, 11, 77
14, 138554, Control_c, 14, 11, 78
14, 138614, Note_on_c, 14, 35, 97
14, 138719, Note_on_c, 14, 35, 0
14, 138734, Control_c, 14, 11, 79
14, 138734, Note_on_c, 14, 35, 97
14, 138839, Note_on_c, 14, 35, 0
14, 138914, Control_c, 14, 11, 80
14, 139094, Control_c, 14, 11, 81
14, 139094, Note_on_c, 14, 35, 97
14, 139199, Note_on_c, 14, 35, 0
14, 139214, Note_on_c, 14, 35, 97
14, 139274, Control_c, 14, 11, 82
14, 139319, Note_on_c, 14, 35, 0
14, 139454, Control_c, 14, 11, 83
14, 139574, Note_on_c, 14, 35, 97
14, 139634, Control_c, 14, 11, 84
14, 139679, Note_on_c, 14, 35, 0
14, 139694, Note_on_c, 14, 35, 97
14, 139799, Note_on_c, 14, 35, 0
14, 139814, Control_c, 14, 11, 85
14, 139994, Control_c, 14, 11, 86
14, 140054, Note_on_c, 14, 35, 97
14, 140159, Note_on_c, 14, 35, 0
14, 140174, Control_c, 14, 11, 87
14, 140174, Note_on_c, 14, 36, 97
14, 140279, Note_on_c, 14, 36, 0
14, 140294, Note_on_c, 14, 55, 97
14, 140399, Note_on_c, 14, 55, 0
14, 140414, Note_on_c, 14, 52, 97
14, 140519, Note_on_c, 14, 52, 0
14, 140534, Note_on_c, 14, 48, 97
14, 140639, Note_on_c, 14, 48, 0
14, 140654, Note_on_c, 14, 43, 97
14, 140759, Note_on_c, 14, 43, 0
14, 140774, Note_on_c, 14, 40, 97
14, 140879, Note_on_c, 14, 40, 0
14, 140894, Note_on_c, 14, 36, 97
14, 140999, Note_on_c, 14, 36, 0
14, 141014, Note_on_c, 14, 36, 97
14, 141119, Note_on_c, 14, 36, 0
14, 141134, Note_on_c, 14, 36, 97
14, 141239, Note_on_c, 14, 36, 0
14, 141254, Note_on_c, 14, 55, 97
14, 141359, Note_on_c, 14, 55, 0
14, 141374, Note_on_c, 14, 52, 97
14, 141479, Note_on_c, 14, 52, 0
14, 141494, Note_on_c, 14, 48, 97
14, 141599, Note_on_c, 14, 48, 0
14, 141614, Note_on_c, 14, 43, 97
14, 141719, Note_on_c, 14, 43, 0
14, 141734, Note_on_c, 14, 40, 97
14, 141839, Note_on_c, 14, 40, 0
14, 141854, Note_on_c, 14, 36, 97
14, 141959, Note_on_c, 14, 36, 0
14, 141974, Note_on_c, 14, 36, 97
14, 142079, Note_on_c, 14, 36, 0
14, 142094, Control_c, 14, 11, 87
14, 142094, Note_on_c, 14, 31, 97
14, 142190, Control_c, 14, 11, 88
14, 142199, Note_on_c, 14, 31, 0
14, 142214, Note_on_c, 14, 53, 97
14, 142286, Control_c, 14, 11, 89
14, 142319, Note_on_c, 14, 53, 0
14, 142334, Note_on_c, 14, 50, 97
14, 142382, Control_c, 14, 11, 90
14, 142439, Note_on_c, 14, 50, 0
14, 142454, Note_on_c, 14, 43, 97
14, 142478, Control_c, 14, 11, 91
14, 142559, Note_on_c, 14, 43, 0
14, 142574, Control_c, 14, 11, 92
14, 142574, Note_on_c, 14, 41, 97
14, 142670, Control_c, 14, 11, 93
14, 142679, Note_on_c, 14, 41, 0
14, 142694, Note_on_c, 14, 38, 97
14, 142766, Control_c, 14, 11, 94
14, 142799, Note_on_c, 14, 38, 0
14, 142814, Note_on_c, 14, 31, 97
14, 142862, Control_c, 14, 11, 95
14, 142919, Note_on_c, 14, 31, 0
14, 142934, Note_on_c, 14, 43, 97
14, 142958, Control_c, 14, 11, 96
14, 143039, Note_on_c, 14, 43, 0
14, 143054, Control_c, 14, 11, 97
14, 143054, Note_on_c, 14, 43, 97
14, 143150, Control_c, 14, 11, 98
14, 143159, Note_on_c, 14, 43, 0
14, 143174, Note_on_c, 14, 53, 97
14, 143246, Control_c, 14, 11, 99
14, 143279, Note_on_c, 14, 53, 0
14, 143294, Note_on_c, 14, 50, 97
14, 143342, Control_c, 14, 11, 100
14, 143399, Note_on_c, 14, 50, 0
14, 143414, Note_on_c, 14, 43, 97
14, 143438, Control_c, 14, 11, 101
14, 143519, Note_on_c, 14, 43, 0
14, 143534, Control_c, 14, 11, 102
14, 143534, Note_on_c, 14, 41, 97
14, 143630, Control_c, 14, 11, 103
14, 143639, Note_on_c, 14, 41, 0
14, 143654, Note_on_c, 14, 38, 97
14, 143726, Control_c, 14, 11, 104
14, 143759, Note_on_c, 14, 38, 0
14, 143774, Note_on_c, 14, 31, 97
14, 143822, Control_c, 14, 11, 105
14, 143879, Note_on_c, 14, 31, 0
14, 143894, Note_on_c, 14, 43, 97
14, 143918, Control_c, 14, 11, 106
14, 143999, Note_on_c, 14, 43, 0
14, 144014, Control_c, 14, 11, 125
14, 144014, Note_on_c, 14, 36, 104
14, 144037, Control_c, 14, 11, 122
14, 144061, Control_c, 14, 11, 118
14, 144085, Control_c, 14, 11, 115
14, 144109, Control_c, 14, 11, 111
14, 144133, Control_c, 14, 11, 107
14, 144316, Note_on_c, 14, 36, 0
14, 144374, Note_on_c, 14, 33, 114
14, 144460, Note_on_c, 14, 33, 0
14, 144494, Control_c, 14, 11, 125
14, 144494, Note_on_c, 14, 33, 104
14, 144517, Control_c, 14, 11, 122
14, 144541, Control_c, 14, 11, 118
14, 144565, Control_c, 14, 11, 115
14, 144589, Control_c, 14, 11, 111
14, 144613, Control_c, 14, 11, 107
14, 144796, Note_on_c, 14, 33, 0
14, 144854, Note_on_c, 14, 31, 114
14, 144940, Note_on_c, 14, 31, 0
14, 144974, Control_c, 14, 11, 125
14, 144974, Note_on_c, 14, 31, 104
14, 144997, Control_c, 14, 11, 122
14, 145021, Control_c, 14, 11, 118
14, 145045, Control_c, 14, 11, 115
14, 145069, Control_c, 14, 11, 111
14, 145093, Control_c, 14, 11, 107
14, 145276, Note_on_c, 14, 31, 0
14, 145334, Note_on_c, 14, 29, 114
14, 145420, Note_on_c, 14, 29, 0
14, 145454, Control_c, 14, 11, 125
14, 145454, Note_on_c, 14, 29, 104
14, 145477, Control_c, 14, 11, 122
14, 145501, Control_c, 14, 11, 118
14, 145525, Control_c, 14, 11, 115
14, 145549, Control_c, 14, 11, 111
14, 145573, Control_c, 14, 11, 107
14, 145756, Note_on_c, 14, 29, 0
14, 145814, Note_on_c, 14, 28, 114
14, 145900, Note_on_c, 14, 28, 0
14, 145934, Note_on_c, 14, 28, 111
14, 145994, Note_on_c, 14, 28, 0
14, 146054, Note_on_c, 14, 33, 104
14, 146114, Note_on_c, 14, 33, 0
14, 146174, Note_on_c, 14, 33, 111
14, 146234, Note_on_c, 14, 33, 0
14, 146294, Note_on_c, 14, 31, 104
14, 146354, Note_on_c, 14, 31, 0
14, 146414, Note_on_c, 14, 31, 111
14, 146474, Note_on_c, 14, 31, 0
14, 146534, Note_on_c, 14, 29, 104
14, 146594, Note_on_c, 14, 29, 0
14, 146654, Note_on_c, 14, 29, 111
14, 146714, Note_on_c, 14, 29, 0
14, 146774, Note_on_c, 14, 28, 104
14, 146834, Note_on_c, 14, 28, 0
14, 146894, Note_on_c, 14, 28, 111
14, 146954, Note_on_c, 14, 28, 0
14, 147014, Note_on_c, 14, 29, 104
14, 147074, Note_on_c, 14, 29, 0
14, 147134, Note_on_c, 14, 29, 111
14, 147194, Note_on_c, 14, 29, 0
14, 147254, Note_on_c, 14, 29, 104
14, 147314, Note_on_c, 14, 29, 0
14, 147374, Note_on_c, 14, 29, 111
14, 147434, Note_on_c, 14, 29, 0
14, 147494, Note_on_c, 14, 29, 104
14, 147554, Note_on_c, 14, 29, 0
14, 147614, Note_on_c, 14, 29, 111
14, 147674, Note_on_c, 14, 29, 0
14, 147734, Note_on_c, 14, 29, 104
14, 147794, Note_on_c, 14, 29, 0
14, 147854, Control_c, 14, 11, 122
14, 147854, Note_on_c, 14, 30, 97
14, 147877, Control_c, 14, 11, 120
14, 147901, Control_c, 14, 11, 118
14, 147925, Control_c, 14, 11, 116
14, 147949, Control_c, 14, 11, 114
14, 147973, Control_c, 14, 11, 112
14, 147997, Control_c, 14, 11, 110
14, 148021, Control_c, 14, 11, 108
14, 148045, Control_c, 14, 11, 106
14, 148069, Control_c, 14, 11, 104
14, 148093, Control_c, 14, 11, 102
14, 148799, Note_on_c, 14, 30, 0
14, 148814, Control_c, 14, 11, 122
14, 148814, Note_on_c, 14, 31, 97
14, 148837, Control_c, 14, 11, 120
14, 148861, Control_c, 14, 11, 118
14, 148885, Control_c, 14, 11, 116
14, 148909, Control_c, 14, 11, 114
14, 148933, Control_c, 14, 11, 112
14, 148957, Control_c, 14, 11, 110
14, 148981, Control_c, 14, 11, 108
14, 149005, Control_c, 14, 11, 106
14, 149029, Control_c, 14, 11, 104
14, 149053, Control_c, 14, 11, 102
14, 149759, Note_on_c, 14, 31, 0
14, 149774, Control_c, 14, 11, 122
14, 149774, Note_on_c, 14, 32, 97
14, 149797, Control_c, 14, 11, 120
14, 149821, Control_c, 14, 11, 118
14, 149845, Control_c, 14, 11, 116
14, 149869, Control_c, 14, 11, 114
14, 149893, Control_c, 14, 11, 112
14, 149917, Control_c, 14, 11, 110
14, 149941, Control_c, 14, 11, 108
14, 149965, Control_c, 14, 11, 106
14, 149989, Control_c, 14, 11, 104
14, 150013, Control_c, 14, 11, 102
14, 150719, Note_on_c, 14, 32, 0
14, 150734, Control_c, 14, 11, 122
14, 150734, Note_on_c, 14, 33, 97
14, 150757, Control_c, 14, 11, 120
14, 150781, Control_c, 14, 11, 118
14, 150805, Control_c, 14, 11, 116
14, 150829, Control_c, 14, 11, 114
14, 150853, Control_c, 14, 11, 112
14, 150877, Control_c, 14, 11, 110
14, 150901, Control_c, 14, 11, 108
14, 150925, Control_c, 14, 11, 106
14, 150949, Control_c, 14, 11, 104
14, 150973, Control_c, 14, 11, 102
14, 151199, Note_on_c, 14, 33, 0
14, 151214, Control_c, 14, 11, 122
14, 151214, Note_on_c, 14, 35, 97
14, 151237, Control_c, 14, 11, 120
14, 151261, Control_c, 14, 11, 118
14, 151285, Control_c, 14, 11, 116
14, 151309, Control_c, 14, 11, 114
14, 151333, Control_c, 14, 11, 112
14, 151357, Control_c, 14, 11, 110
14, 151381, Control_c, 14, 11, 108
14, 151405, Control_c, 14, 11, 106
14, 151429, Control_c, 14, 11, 104
14, 151453, Control_c, 14, 11, 102
14, 151679, Note_on_c, 14, 35, 0
14, 151694, Control_c, 14, 11, 122
14, 151694, Note_on_c, 14, 36, 97
14, 151717, Control_c, 14, 11, 120
14, 151741, Control_c, 14, 11, 118
14, 151765, Control_c, 14, 11, 116
14, 151789, Control_c, 14, 11, 114
14, 151813, Control_c, 14, 11, 112
14, 151837, Control_c, 14, 11, 110
14, 151861, Control_c, 14, 11, 108
14, 151885, Control_c, 14, 11, 106
14, 151909, Control_c, 14, 11, 104
14, 151933, Control_c, 14, 11, 102
14, 152159, Note_on_c, 14, 36, 0
14, 152174, Control_c, 14, 11, 122
14, 152174, Note_on_c, 14, 29, 97
14, 152197, Control_c, 14, 11, 120
14, 152221, Control_c, 14, 11, 118
14, 152245, Control_c, 14, 11, 116
14, 152269, Control_c, 14, 11, 114
14, 152293, Control_c, 14, 11, 112
14, 152317, Control_c, 14, 11, 110
14, 152341, Control_c, 14, 11, 108
14, 152365, Control_c, 14, 11, 106
14, 152389, Control_c, 14, 11, 104
14, 152413, Control_c, 14, 11, 102
14, 152639, Note_on_c, 14, 29, 0
14, 152654, Control_c, 14, 11, 122
14, 152654, Note_on_c, 14, 31, 97
14, 152677, Control_c, 14, 11, 120
14, 152701, Control_c, 14, 11, 118
14, 152725, Control_c, 14, 11, 116
14, 152749, Control_c, 14, 11, 114
14, 152773, Control_c, 14, 11, 112
14, 152797, Control_c, 14, 11, 110
14, 152821, Control_c, 14, 11, 108
14, 152845, Control_c, 14, 11, 106
14, 152869, Control_c, 14, 11, 104
14, 152893, Control_c, 14, 11, 102
14, 153119, Note_on_c, 14, 31, 0
14, 153134, Control_c, 14, 11, 122
14, 153134, Note_on_c, 14, 36, 97
14, 153157, Control_c, 14, 11, 120
14, 153181, Control_c, 14, 11, 118
14, 153205, Control_c, 14, 11, 116
14, 153229, Control_c, 14, 11, 114
14, 153253, Control_c, 14, 11, 112
14, 153277, Control_c, 14, 11, 110
14, 153301, Control_c, 14, 11, 108
14, 153325, Control_c, 14, 11, 106
14, 153349, Control_c, 14, 11, 104
14, 153373, Control_c, 14, 11, 102
14, 153599, Note_on_c, 14, 36, 0
14, 153614, Control_c, 14, 11, 122
14, 153614, Note_on_c, 14, 29, 97
14, 153637, Control_c, 14, 11, 120
14, 153661, Control_c, 14, 11, 118
14, 153685, Control_c, 14, 11, 116
14, 153709, Control_c, 14, 11, 114
14, 153733, Control_c, 14, 11, 112
14, 153757, Control_c, 14, 11, 110
14, 153781, Control_c, 14, 11, 108
14, 153805, Control_c, 14, 11, 106
14, 153829, Control_c, 14, 11, 104
14, 153853, Control_c, 14, 11, 102
14, 154079, Note_on_c, 14, 29, 0
14, 154094, Control_c, 14, 11, 122
14, 154094, Note_on_c, 14, 31, 97
14, 154117, Control_c, 14, 11, 120
14, 154141, Control_c, 14, 11, 118
14, 154165, Control_c, 14, 11, 116
14, 154189, Control_c, 14, 11, 114
14, 154213, Control_c, 14, 11, 112
14, 154237, Control_c, 14, 11, 110
14, 154261, Control_c, 14, 11, 108
14, 154285, Control_c, 14, 11, 106
14, 154309, Control_c, 14, 11, 104
14, 154333, Control_c, 14, 11, 102
14, 154559, Note_on_c, 14, 31, 0
14, 154574, Control_c, 14, 11, 122
14, 154574, Note_on_c, 14, 36, 97
14, 154597, Control_c, 14, 11, 120
14, 154621, Control_c, 14, 11, 118
14, 154645, Control_c, 14, 11, 116
14, 154669, Control_c, 14, 11, 114
14, 154693, Control_c, 14, 11, 112
14, 154717, Control_c, 14, 11, 110
14, 154741, Control_c, 14, 11, 108
14, 154765, Control_c, 14, 11, 106
14, 154789, Control_c, 14, 11, 104
14, 154813, Control_c, 14, 11, 102
14, 155039, Note_on_c, 14, 36, 0
14, 155054, Control_c, 14, 11, 122
14, 155054, Note_on_c, 14, 29, 97
14, 155077, Control_c, 14, 11, 120
14, 155101, Control_c, 14, 11, 118
14, 155125, Control_c, 14, 11, 116
14, 155149, Control_c, 14, 11, 114
14, 155173, Control_c, 14, 11, 112
14, 155197, Control_c, 14, 11, 110
14, 155221, Control_c, 14, 11, 108
14, 155245, Control_c, 14, 11, 106
14, 155269, Control_c, 14, 11, 104
14, 155293, Control_c, 14, 11, 102
14, 155519, Note_on_c, 14, 29, 0
14, 155534, Control_c, 14, 11, 122
14, 155534, Note_on_c, 14, 31, 97
14, 155557, Control_c, 14, 11, 120
14, 155581, Control_c, 14, 11, 118
14, 155605, Control_c, 14, 11, 116
14, 155629, Control_c, 14, 11, 114
14, 155653, Control_c, 14, 11, 112
14, 155677, Control_c, 14, 11, 110
14, 155701, Control_c, 14, 11, 108
14, 155725, Control_c, 14, 11, 106
14, 155749, Control_c, 14, 11, 104
14, 155773, Control_c, 14, 11, 102
14, 156479, Note_on_c, 14, 31, 0
14, 156494, Note_on_c, 14, 31, 97
14, 156599, Note_on_c, 14, 31, 0
14, 156614, Note_on_c, 14, 31, 97
14, 156719, Note_on_c, 14, 31, 0
14, 156734, Note_on_c, 14, 31, 97
14, 156839, Note_on_c, 14, 31, 0
14, 156854, Note_on_c, 14, 31, 97
14, 156959, Note_on_c, 14, 31, 0
14, 156974, Note_on_c, 14, 31, 97
14, 157079, Note_on_c, 14, 31, 0
14, 157094, Note_on_c, 14, 31, 97
14, 157199, Note_on_c, 14, 31, 0
14, 157214, Note_on_c, 14, 31, 97
14, 157319, Note_on_c, 14, 31, 0
14, 157334, Note_on_c, 14, 31, 97
14, 157439, Note_on_c, 14, 31, 0
14, 157454, Note_on_c, 14, 36, 97
14, 157574, Note_on_c, 14, 36, 0
14, 158774, Note_on_c, 14, 31, 97
14, 158879, Note_on_c, 14, 31, 0
14, 158894, Note_on_c, 14, 31, 97
14, 159239, Note_on_c, 14, 31, 0
14, 159254, Note_on_c, 14, 31, 97
14, 159359, Note_on_c, 14, 31, 0
14, 159374, Note_on_c, 14, 36, 97
14, 159494, Note_on_c, 14, 36, 0
14, 160454, Note_on_c, 14, 31, 97
14, 160559, Note_on_c, 14, 31, 0
14, 160574, Note_on_c, 14, 31, 97
14, 160679, Note_on_c, 14, 31, 0
14, 160694, Note_on_c, 14, 31, 97
14, 160799, Note_on_c, 14, 31, 0
14, 160814, Note_on_c, 14, 31, 97
14, 160919, Note_on_c, 14, 31, 0
14, 160934, Note_on_c, 14, 31, 97
14, 161039, Note_on_c, 14, 31, 0
14, 161054, Note_on_c, 14, 31, 97
14, 161159, Note_on_c, 14, 31, 0
14, 161174, Note_on_c, 14, 31, 97
14, 161279, Note_on_c, 14, 31, 0
14, 161294, Note_on_c, 14, 36, 97
14, 161414, Note_on_c, 14, 36, 0
14, 162374, Note_on_c, 14, 31, 97
14, 162599, Note_on_c, 14, 31, 0
14, 162614, Note_on_c, 14, 31, 97
14, 162839, Note_on_c, 14, 31, 0
14, 162854, Note_on_c, 14, 31, 97
14, 163079, Note_on_c, 14, 31, 0
14, 163094, Note_on_c, 14, 31, 97
14, 163199, Note_on_c, 14, 31, 0
14, 163214, Note_on_c, 14, 36, 97
14, 163334, Note_on_c, 14, 36, 0
14, 163814, Note_on_c, 14, 43, 97
14, 163874, Note_on_c, 14, 43, 0
14, 163934, Note_on_c, 14, 40, 97
14, 163994, Note_on_c, 14, 40, 0
14, 164054, Note_on_c, 14, 36, 97
14, 164114, Note_on_c, 14, 36, 0
14, 164174, Control_c, 14, 11, 72
14, 164174, Note_on_c, 14, 31, 97
14, 164177, Control_c, 14, 11, 75
14, 164180, Control_c, 14, 11, 78
14, 164183, Control_c, 14, 11, 81
14, 164186, Control_c, 14, 11, 84
14, 164189, Control_c, 14, 11, 87
14, 164192, Control_c, 14, 11, 90
14, 164195, Control_c, 14, 11, 93
14, 164198, Control_c, 14, 11, 96
14, 164201, Control_c, 14, 11, 99
14, 164204, Control_c, 14, 11, 102
14, 164519, Control_c, 14, 11, 102
14, 164522, Control_c, 14, 11, 99
14, 164525, Control_c, 14, 11, 96
14, 164528, Control_c, 14, 11, 93
14, 164532, Control_c, 14, 11, 90
14, 164535, Control_c, 14, 11, 87
14, 164538, Control_c, 14, 11, 84
14, 164542, Control_c, 14, 11, 81
14, 164545, Control_c, 14, 11, 78
14, 164548, Control_c, 14, 11, 75
14, 164552, Note_on_c, 14, 31, 0
14, 164552, Control_c, 14, 11, 72
14, 164894, Control_c, 14, 11, 87
14, 164894, Note_on_c, 14, 31, 97
14, 165014, Note_on_c, 14, 31, 0
14, 165374, Note_on_c, 14, 31, 97
14, 165494, Note_on_c, 14, 31, 0
14, 165734, Note_on_c, 14, 31, 97
14, 165854, Note_on_c, 14, 31, 0
14, 165974, Note_on_c, 14, 31, 97
14, 166094, Note_on_c, 14, 31, 0
14, 166214, Note_on_c, 14, 31, 97
14, 166334, Note_on_c, 14, 31, 0
14, 166454, Note_on_c, 14, 36, 97
14, 166574, Note_on_c, 14, 36, 0
14, 166694, Note_on_c, 14, 36, 97
14, 166814, Note_on_c, 14, 36, 0
14, 166934, Note_on_c, 14, 36, 97
14, 167054, Note_on_c, 14, 36, 0
14, 167054, Note_on_c, 14, 36, 97
14, 167174, Note_on_c, 14, 36, 0
14, 170414, Note_on_c, 14, 36, 114
14, 170534, Note_on_c, 14, 36, 0
14, 171374, Note_on_c, 14, 36, 114
14, 171494, Note_on_c, 14, 36, 0
14, 171854, Note_on_c, 14, 36, 114
14, 171974, Note_on_c, 14, 36, 0
14, 172334, Control_c, 14, 11, 112
14, 172334, Note_on_c, 14, 36, 114
14, 172454, Note_on_c, 14, 36, 0
14, 172814, Control_c, 14, 121, 0
14, 172814, End_track
15, 0, Start_track
15, 0, MIDI_port, 0
15, 0, Title_t, "Sequ. by J.F.Lucarelli"
15, 0, End_track
16, 0, Start_track
16, 0, MIDI_port, 0
16, 0, Title_t, "j-f.lucarelli@infonie.be  --  http://perso.infonie.fr/espace-midi"
16, 0, End_track
17, 0, Start_track
17, 0, MIDI_port, 0
17, 0, Title_t, "Optimized for AWE 64  + 8 MB memory"
17, 0, End_track
18, 0, Start_track
18, 0, MIDI_port, 0
18, 0, Title_t, "\251 October 2001"
18, 0, End_track
19, 0, Start_track
19, 0, MIDI_port, 0
19, 0, Title_t, "Beethoven -  Ouverture Leonore n\260 1"
19, 0, End_track
0, 0, End_of_file