0, 0, Header, 1, 4, 120
1, 0, Start_track
1, 0, Title_t, "6 Ecossaises WoO 83"
1, 0, Copyright_t, "fiorellaearmando@tiscalinet.it"
1, 0, Text_t, "sechs Ecossaisen (Es-dur ) fur Klavier\012"
1, 0, Text_t, "GA : NR 302 = Serie 25 (suppl.) nr 39\012"
1, 0, Text_t, "Il Thayer, al Nr 136, parla di 12 scozzesi per 2 violini e basso, con  2 fluti e 2 corni ad libitum, annunziate da Jhoann Traeg nella ""Wiener Zeitung"" del\012"
1, 0, Text_t, "21 Marzo 1807, e aggiunge che le stesse dovevano apparire anche per pianoforte, nella cui redazione stanno queste sei.\012"
1, 0, Text_t, "Il Thayer dice che nella stessa epoca furono annunziati anche 12 valzer per 2 violini e basso, non originali, tratti da opere di Beethoven. (WoO 16)\012"
1, 0, Text_t, "Il maestro Arturo Siciliano,dice: Mi pare evidente che su tratti parte dei 12 valzer che il Nottebohm cita nella sua appendice accludendovi anche gli inizi \012"
1, 0, Text_t, "tematici.""\012"
1, 0, Sequencer_specific, 03, 00, 00, 41
1, 0, Time_signature, 2, 2, 24, 8
1, 0, Key_signature, -3, "major"
1, 0, Tempo, 365854
1, 0, Marker_t, "1"
1, 10, Tempo, 372671
1, 430, Tempo, 375000
1, 7330, Tempo, 372671
1, 7340, Tempo, 375000
1, 7350, Tempo, 379747
1, 7360, Tempo, 382166
1, 7370, Tempo, 387097
1, 7380, Tempo, 392157
1, 7390, Tempo, 394737
1, 7400, Tempo, 400000
1, 7410, Tempo, 402685
1, 7420, Tempo, 408163
1, 7430, Tempo, 413793
1, 7440, Tempo, 416667
1, 7450, Tempo, 422535
1, 7460, Tempo, 425532
1, 7470, Tempo, 431655
1, 7480, Tempo, 437956
1, 7490, Tempo, 441176
1, 7500, Tempo, 447761
1, 7510, Tempo, 451128
1, 7520, Tempo, 458015
1, 7530, Tempo, 465116
1, 7540, Tempo, 468750
1, 7550, Tempo, 476190
1, 7560, Tempo, 480000
1, 7570, Tempo, 487805
1, 7580, Tempo, 495868
1, 7590, Tempo, 500000
1, 7600, Tempo, 508475
1, 7610, Tempo, 512821
1, 7620, Tempo, 521739
1, 7630, Tempo, 530973
1, 7640, Tempo, 535714
1, 7650, Tempo, 545455
1, 7660, Tempo, 550459
1, 7670, Tempo, 560748
1, 7680, Tempo, 571429
1, 7690, Tempo, 576923
1, 7700, Tempo, 588235
1, 7710, Tempo, 594059
1, 7720, Tempo, 606061
1, 7730, Tempo, 618557
1, 7740, Tempo, 625000
1, 7750, Tempo, 638298
1, 7760, Tempo, 645161
1, 7770, Tempo, 659341
1, 7780, Tempo, 659341
1, 7790, Tempo, 731707
1, 7800, Tempo, 821918
1, 7810, Tempo, 937500
1, 7820, Tempo, 1090909
1, 7920, Tempo, 363636
1, 7920, Marker_t, "2"
1, 11230, Tempo, 370370
1, 12130, Tempo, 372671
1, 13030, Tempo, 375000
1, 13080, Tempo, 372671
1, 14990, Tempo, 372671
1, 15010, Tempo, 375000
1, 15020, Tempo, 377358
1, 15030, Tempo, 379747
1, 15040, Tempo, 382166
1, 15050, Tempo, 384615
1, 15060, Tempo, 387097
1, 15070, Tempo, 389610
1, 15090, Tempo, 392157
1, 15100, Tempo, 394737
1, 15110, Tempo, 397351
1, 15120, Tempo, 400000
1, 15130, Tempo, 402685
1, 15140, Tempo, 405405
1, 15150, Tempo, 408163
1, 15170, Tempo, 410959
1, 15180, Tempo, 413793
1, 15190, Tempo, 416667
1, 15200, Tempo, 419580
1, 15210, Tempo, 422535
1, 15220, Tempo, 425532
1, 15230, Tempo, 428571
1, 15250, Tempo, 431655
1, 15260, Tempo, 434783
1, 15270, Tempo, 437956
1, 15280, Tempo, 441176
1, 15290, Tempo, 444444
1, 15300, Tempo, 447761
1, 15310, Tempo, 451128
1, 15330, Tempo, 454545
1, 15340, Tempo, 458015
1, 15350, Tempo, 461538
1, 15360, Tempo, 465116
1, 15370, Tempo, 465116
1, 15380, Tempo, 582524
1, 15500, Tempo, 375000
1, 15600, Marker_t, "3"
1, 16150, Tempo, 375000
1, 19200, Tempo, 377358
1, 21140, Tempo, 379747
1, 22670, Tempo, 375000
1, 22680, Tempo, 377358
1, 22690, Tempo, 382166
1, 22700, Tempo, 387097
1, 22710, Tempo, 392157
1, 22720, Tempo, 397351
1, 22730, Tempo, 402685
1, 22740, Tempo, 408163
1, 22750, Tempo, 413793
1, 22760, Tempo, 419580
1, 22770, Tempo, 425532
1, 22780, Tempo, 431655
1, 22790, Tempo, 434783
1, 22800, Tempo, 441176
1, 22810, Tempo, 447761
1, 22820, Tempo, 454545
1, 22830, Tempo, 461538
1, 22840, Tempo, 468750
1, 22850, Tempo, 476190
1, 22860, Tempo, 483871
1, 22870, Tempo, 491803
1, 22880, Tempo, 500000
1, 22890, Tempo, 508475
1, 22900, Tempo, 517241
1, 22910, Tempo, 521739
1, 22920, Tempo, 530973
1, 22930, Tempo, 540541
1, 22940, Tempo, 550459
1, 22950, Tempo, 560748
1, 22960, Tempo, 571429
1, 22970, Tempo, 582524
1, 22980, Tempo, 594059
1, 22990, Tempo, 606061
1, 23000, Tempo, 618557
1, 23010, Tempo, 631579
1, 23020, Tempo, 645161
1, 23030, Tempo, 652174
1, 23040, Tempo, 666667
1, 23050, Tempo, 681818
1, 23060, Tempo, 697674
1, 23070, Tempo, 714286
1, 23080, Tempo, 731707
1, 23090, Tempo, 750000
1, 23100, Tempo, 769231
1, 23110, Tempo, 789474
1, 23120, Tempo, 810811
1, 23130, Tempo, 833333
1, 23140, Tempo, 857143
1, 23150, Tempo, 869565
1, 23160, Tempo, 895522
1, 23170, Tempo, 923077
1, 23180, Tempo, 952381
1, 23190, Tempo, 983607
1, 23200, Tempo, 1016949
1, 23210, Tempo, 1052632
1, 23220, Tempo, 1090909
1, 23230, Tempo, 1132075
1, 23240, Tempo, 1176471
1, 23250, Tempo, 1224490
1, 23260, Tempo, 1276596
1, 23270, Tempo, 355030
1, 23280, Marker_t, "4"
1, 26390, Tempo, 352941
1, 27110, Tempo, 370370
1, 27210, Tempo, 372671
1, 29030, Tempo, 372671
1, 29070, Tempo, 370370
1, 30250, Tempo, 392157
1, 30260, Tempo, 394737
1, 30270, Tempo, 400000
1, 30280, Tempo, 402685
1, 30290, Tempo, 408163
1, 30300, Tempo, 410959
1, 30310, Tempo, 416667
1, 30320, Tempo, 419580
1, 30330, Tempo, 425532
1, 30340, Tempo, 428571
1, 30350, Tempo, 434783
1, 30360, Tempo, 437956
1, 30370, Tempo, 444444
1, 30380, Tempo, 447761
1, 30390, Tempo, 454545
1, 30400, Tempo, 461538
1, 30410, Tempo, 465116
1, 30420, Tempo, 472441
1, 30430, Tempo, 476190
1, 30440, Tempo, 483871
1, 30450, Tempo, 487805
1, 30460, Tempo, 495868
1, 30470, Tempo, 500000
1, 30480, Tempo, 508475
1, 30490, Tempo, 512821
1, 30500, Tempo, 521739
1, 30510, Tempo, 526316
1, 30520, Tempo, 535714
1, 30530, Tempo, 545455
1, 30540, Tempo, 550459
1, 30550, Tempo, 560748
1, 30560, Tempo, 566038
1, 30570, Tempo, 576923
1, 30580, Tempo, 582524
1, 30590, Tempo, 594059
1, 30600, Tempo, 600000
1, 30610, Tempo, 612245
1, 30620, Tempo, 618557
1, 30630, Tempo, 631579
1, 30640, Tempo, 638298
1, 30650, Tempo, 652174
1, 30660, Tempo, 659341
1, 30670, Tempo, 674157
1, 30680, Tempo, 689655
1, 30690, Tempo, 697674
1, 30700, Tempo, 714286
1, 30710, Tempo, 722892
1, 30720, Tempo, 740741
1, 30730, Tempo, 750000
1, 30740, Tempo, 769231
1, 30750, Tempo, 779221
1, 30760, Tempo, 800000
1, 30770, Tempo, 810811
1, 30780, Tempo, 833333
1, 30790, Tempo, 845070
1, 30800, Tempo, 869565
1, 30810, Tempo, 895522
1, 30820, Tempo, 909091
1, 30830, Tempo, 937500
1, 30840, Tempo, 952381
1, 30850, Tempo, 983607
1, 30860, Tempo, 1000000
1, 30870, Tempo, 1034483
1, 30880, Tempo, 1052632
1, 30890, Tempo, 1090909
1, 30900, Tempo, 1111111
1, 30910, Tempo, 1153846
1, 30920, Tempo, 1176471
1, 30930, Tempo, 1224490
1, 30940, Tempo, 1276596
1, 30950, Tempo, 327869
1, 30960, Marker_t, "5"
1, 31010, Tempo, 329670
1, 34520, Tempo, 329670
1, 34600, Tempo, 327869
1, 34620, Tempo, 329670
1, 34640, Tempo, 331492
1, 34660, Tempo, 333333
1, 34680, Tempo, 335196
1, 34700, Tempo, 337079
1, 34720, Tempo, 338983
1, 34730, Tempo, 340909
1, 34750, Tempo, 342857
1, 34770, Tempo, 344828
1, 34790, Tempo, 346821
1, 34810, Tempo, 348837
1, 34830, Tempo, 350877
1, 34840, Tempo, 352941
1, 34850, Tempo, 350877
1, 37120, Tempo, 352941
1, 38150, Tempo, 352941
1, 38160, Tempo, 355030
1, 38170, Tempo, 359281
1, 38180, Tempo, 363636
1, 38190, Tempo, 368098
1, 38200, Tempo, 372671
1, 38210, Tempo, 377358
1, 38220, Tempo, 382166
1, 38230, Tempo, 387097
1, 38240, Tempo, 392157
1, 38250, Tempo, 394737
1, 38260, Tempo, 400000
1, 38270, Tempo, 405405
1, 38280, Tempo, 410959
1, 38290, Tempo, 416667
1, 38300, Tempo, 422535
1, 38310, Tempo, 428571
1, 38320, Tempo, 434783
1, 38330, Tempo, 441176
1, 38340, Tempo, 444444
1, 38350, Tempo, 451128
1, 38360, Tempo, 458015
1, 38370, Tempo, 465116
1, 38380, Tempo, 472441
1, 38390, Tempo, 480000
1, 38400, Tempo, 487805
1, 38410, Tempo, 495868
1, 38420, Tempo, 504202
1, 38430, Tempo, 508475
1, 38440, Tempo, 517241
1, 38450, Tempo, 526316
1, 38460, Tempo, 535714
1, 38470, Tempo, 545455
1, 38480, Tempo, 555556
1, 38490, Tempo, 566038
1, 38500, Tempo, 576923
1, 38510, Tempo, 588235
1, 38520, Tempo, 594059
1, 38530, Tempo, 606061
1, 38540, Tempo, 618557
1, 38550, Tempo, 631579
1, 38560, Tempo, 645161
1, 38570, Tempo, 659341
1, 38580, Tempo, 674157
1, 38590, Tempo, 689655
1, 38600, Tempo, 705882
1, 38610, Tempo, 722892
1, 38640, Tempo, 384615
1, 38640, Marker_t, "6"
1, 42380, Tempo, 379747
1, 44440, Tempo, 382166
1, 45595, Tempo, 377358
1, 45605, Tempo, 379747
1, 45615, Tempo, 382166
1, 45620, Tempo, 384615
1, 45630, Tempo, 387097
1, 45635, Tempo, 389610
1, 45645, Tempo, 392157
1, 45650, Tempo, 394737
1, 45660, Tempo, 397351
1, 45665, Tempo, 400000
1, 45675, Tempo, 402685
1, 45680, Tempo, 405405
1, 45690, Tempo, 408163
1, 45695, Tempo, 410959
1, 45705, Tempo, 413793
1, 45710, Tempo, 416667
1, 45720, Tempo, 419580
1, 45725, Tempo, 422535
1, 45735, Tempo, 425532
1, 45740, Tempo, 428571
1, 45750, Tempo, 431655
1, 45755, Tempo, 434783
1, 45765, Tempo, 437956
1, 45770, Tempo, 441176
1, 45780, Tempo, 444444
1, 45785, Tempo, 447761
1, 45795, Tempo, 451128
1, 45800, Tempo, 454545
1, 45810, Tempo, 458015
1, 45815, Tempo, 461538
1, 45825, Tempo, 465116
1, 45830, Tempo, 468750
1, 45840, Tempo, 472441
1, 45845, Tempo, 476190
1, 45855, Tempo, 480000
1, 45860, Tempo, 483871
1, 45870, Tempo, 487805
1, 45875, Tempo, 491803
1, 45885, Tempo, 495868
1, 45890, Tempo, 500000
1, 45900, Tempo, 504202
1, 45905, Tempo, 508475
1, 45915, Tempo, 512821
1, 45920, Tempo, 517241
1, 45930, Tempo, 521739
1, 45935, Tempo, 526316
1, 45945, Tempo, 530973
1, 45950, Tempo, 535714
1, 45960, Tempo, 540541
1, 45965, Tempo, 545455
1, 45975, Tempo, 550459
1, 45980, Tempo, 555556
1, 45990, Tempo, 560748
1, 45995, Tempo, 566038
1, 46005, Tempo, 571429
1, 46010, Tempo, 576923
1, 46020, Tempo, 582524
1, 46025, Tempo, 588235
1, 46035, Tempo, 594059
1, 46040, Tempo, 600000
1, 46050, Tempo, 606061
1, 46055, Tempo, 612245
1, 46065, Tempo, 618557
1, 46070, Tempo, 625000
1, 46080, Tempo, 631579
1, 46085, Tempo, 638298
1, 46095, Tempo, 645161
1, 46100, Tempo, 652174
1, 46110, Tempo, 659341
1, 46115, Tempo, 666667
1, 46125, Tempo, 674157
1, 46130, Tempo, 681818
1, 46140, Tempo, 689655
1, 46145, Tempo, 697674
1, 46155, Tempo, 705882
1, 46160, Tempo, 714286
1, 46170, Tempo, 722892
1, 46175, Tempo, 731707
1, 46185, Tempo, 740741
1, 46190, Tempo, 750000
1, 46200, Tempo, 759494
1, 46205, Tempo, 769231
1, 46215, Tempo, 779221
1, 46220, Tempo, 789474
1, 46230, Tempo, 800000
1, 46235, Tempo, 810811
1, 46245, Tempo, 821918
1, 46250, Tempo, 833333
1, 46260, Tempo, 845070
1, 46265, Tempo, 857143
1, 46275, Tempo, 869565
1, 46280, Tempo, 882353
1, 46290, Tempo, 895522
1, 46295, Tempo, 909091
1, 46305, Tempo, 923077
1, 46310, Tempo, 937500
1, 46320, Tempo, 952381
1, 46325, Tempo, 967742
1, 46335, Tempo, 983607
1, 46340, Tempo, 1000000
1, 46350, Tempo, 1016949
1, 46355, Tempo, 1034483
1, 46365, Tempo, 1052632
1, 46370, Tempo, 1071429
1, 46380, Tempo, 1090909
1, 46385, Tempo, 1111111
1, 46395, Tempo, 1132075
1, 46400, Tempo, 1153846
1, 46410, Tempo, 1176471
1, 46415, Tempo, 1200000
1, 46425, Tempo, 1224490
1, 46430, Tempo, 1250000
1, 46440, Tempo, 1276596
1, 54000, Tempo, 428571
1, 54240, Tempo, 413793
1, 54480, Tempo, 405405
1, 54720, Tempo, 394737
1, 55197, Tempo, 389610
1, 55200, Tempo, 384615
1, 55201, Tempo, 382166
1, 55680, Tempo, 370370
1, 55681, Tempo, 368098
1, 56157, Tempo, 370370
1, 56160, Tempo, 368098
1, 56161, Tempo, 359281
1, 56637, Tempo, 350877
1, 56875, Tempo, 342857
1, 56877, Tempo, 340909
1, 57121, Tempo, 329670
1, 57360, Tempo, 324324
1, 57361, Tempo, 320856
1, 58080, Tempo, 333333
1, 58320, Tempo, 348837
1, 58561, Tempo, 359281
1, 58797, Tempo, 375000
1, 59010, Tempo, 389610
1, 59010, End_track
2, 0, Start_track
2, 0, Title_t, "Right Hand"
2, 0, Control_c, 0, 0, 0
2, 0, Control_c, 0, 7, 127
2, 0, Control_c, 0, 10, 87
2, 0, Control_c, 0, 93, 32
2, 0, Control_c, 0, 91, 42
2, 0, Control_c, 0, 6, 2
2, 0, Control_c, 0, 11, 127
2, 0, Control_c, 0, 1, 0
2, 0, Pitch_bend_c, 0, 8192
2, 0, Control_c, 0, 32, 0
2, 0, Program_c, 0, 0
2, 240, Note_on_c, 0, 67, 63
2, 299, Note_on_c, 0, 67, 0
2, 300, Note_on_c, 0, 70, 60
2, 359, Note_on_c, 0, 70, 0
2, 360, Note_on_c, 0, 70, 100
2, 360, Note_on_c, 0, 67, 100
2, 480, Note_on_c, 0, 67, 0
2, 480, Note_on_c, 0, 70, 0
2, 480, Note_on_c, 0, 72, 60
2, 480, Note_on_c, 0, 67, 60
2, 539, Note_on_c, 0, 67, 0
2, 539, Note_on_c, 0, 72, 0
2, 540, Note_on_c, 0, 70, 60
2, 599, Note_on_c, 0, 70, 0
2, 600, Note_on_c, 0, 70, 100
2, 600, Note_on_c, 0, 67, 100
2, 720, Note_on_c, 0, 67, 0
2, 720, Note_on_c, 0, 70, 0
2, 720, Note_on_c, 0, 67, 60
2, 720, Note_on_c, 0, 75, 60
2, 779, Note_on_c, 0, 75, 0
2, 779, Note_on_c, 0, 67, 0
2, 780, Note_on_c, 0, 70, 62
2, 839, Note_on_c, 0, 70, 0
2, 840, Note_on_c, 0, 70, 100
2, 840, Note_on_c, 0, 67, 100
2, 960, Note_on_c, 0, 67, 0
2, 960, Note_on_c, 0, 70, 0
2, 960, Note_on_c, 0, 72, 62
2, 960, Note_on_c, 0, 67, 62
2, 1019, Note_on_c, 0, 67, 0
2, 1019, Note_on_c, 0, 72, 0
2, 1020, Note_on_c, 0, 70, 58
2, 1079, Note_on_c, 0, 70, 0
2, 1080, Note_on_c, 0, 70, 100
2, 1080, Note_on_c, 0, 67, 100
2, 1200, Note_on_c, 0, 67, 0
2, 1200, Note_on_c, 0, 70, 0
2, 1200, Note_on_c, 0, 65, 59
2, 1200, Note_on_c, 0, 62, 59
2, 1259, Note_on_c, 0, 62, 0
2, 1259, Note_on_c, 0, 65, 0
2, 1260, Note_on_c, 0, 70, 58
2, 1319, Note_on_c, 0, 70, 0
2, 1320, Note_on_c, 0, 70, 100
2, 1320, Note_on_c, 0, 62, 100
2, 1440, Note_on_c, 0, 62, 0
2, 1440, Note_on_c, 0, 70, 0
2, 1440, Note_on_c, 0, 63, 60
2, 1440, Note_on_c, 0, 67, 60
2, 1499, Note_on_c, 0, 67, 0
2, 1499, Note_on_c, 0, 63, 0
2, 1500, Note_on_c, 0, 70, 60
2, 1559, Note_on_c, 0, 70, 0
2, 1560, Note_on_c, 0, 70, 100
2, 1560, Note_on_c, 0, 63, 100
2, 1680, Note_on_c, 0, 63, 0
2, 1680, Note_on_c, 0, 70, 0
2, 1680, Note_on_c, 0, 68, 58
2, 1680, Note_on_c, 0, 65, 58
2, 1739, Note_on_c, 0, 65, 0
2, 1739, Note_on_c, 0, 68, 0
2, 1740, Note_on_c, 0, 70, 58
2, 1799, Note_on_c, 0, 70, 0
2, 1800, Note_on_c, 0, 70, 100
2, 1800, Note_on_c, 0, 65, 100
2, 1920, Note_on_c, 0, 65, 0
2, 1920, Note_on_c, 0, 70, 0
2, 1920, Note_on_c, 0, 70, 59
2, 1979, Note_on_c, 0, 70, 0
2, 1980, Note_on_c, 0, 77, 58
2, 1980, Note_on_c, 0, 80, 58
2, 2039, Note_on_c, 0, 80, 0
2, 2039, Note_on_c, 0, 77, 0
2, 2040, Note_on_c, 0, 77, 58
2, 2040, Note_on_c, 0, 80, 58
2, 2159, Note_on_c, 0, 80, 0
2, 2159, Note_on_c, 0, 77, 0
2, 2160, Note_on_c, 0, 67, 60
2, 2219, Note_on_c, 0, 67, 0
2, 2220, Note_on_c, 0, 70, 60
2, 2279, Note_on_c, 0, 70, 0
2, 2280, Note_on_c, 0, 70, 100
2, 2280, Note_on_c, 0, 67, 100
2, 2400, Note_on_c, 0, 67, 0
2, 2400, Note_on_c, 0, 70, 0
2, 2400, Note_on_c, 0, 72, 60
2, 2400, Note_on_c, 0, 67, 60
2, 2459, Note_on_c, 0, 67, 0
2, 2459, Note_on_c, 0, 72, 0
2, 2460, Note_on_c, 0, 70, 62
2, 2519, Note_on_c, 0, 70, 0
2, 2520, Note_on_c, 0, 70, 100
2, 2520, Note_on_c, 0, 67, 100
2, 2640, Note_on_c, 0, 67, 0
2, 2640, Note_on_c, 0, 70, 0
2, 2640, Note_on_c, 0, 67, 64
2, 2640, Note_on_c, 0, 75, 64
2, 2699, Note_on_c, 0, 75, 0
2, 2699, Note_on_c, 0, 67, 0
2, 2700, Note_on_c, 0, 70, 64
2, 2759, Note_on_c, 0, 70, 0
2, 2760, Note_on_c, 0, 70, 100
2, 2760, Note_on_c, 0, 67, 100
2, 2880, Note_on_c, 0, 67, 0
2, 2880, Note_on_c, 0, 70, 0
2, 2880, Note_on_c, 0, 72, 60
2, 2880, Note_on_c, 0, 67, 60
2, 2939, Note_on_c, 0, 67, 0
2, 2939, Note_on_c, 0, 72, 0
2, 2940, Note_on_c, 0, 70, 59
2, 2999, Note_on_c, 0, 70, 0
2, 3000, Note_on_c, 0, 70, 100
2, 3000, Note_on_c, 0, 67, 100
2, 3120, Note_on_c, 0, 67, 0
2, 3120, Note_on_c, 0, 70, 0
2, 3120, Note_on_c, 0, 65, 59
2, 3120, Note_on_c, 0, 62, 59
2, 3179, Note_on_c, 0, 62, 0
2, 3179, Note_on_c, 0, 65, 0
2, 3180, Note_on_c, 0, 70, 59
2, 3239, Note_on_c, 0, 70, 0
2, 3240, Note_on_c, 0, 70, 100
2, 3240, Note_on_c, 0, 62, 100
2, 3360, Note_on_c, 0, 62, 0
2, 3360, Note_on_c, 0, 70, 0
2, 3360, Note_on_c, 0, 63, 59
2, 3360, Note_on_c, 0, 67, 59
2, 3419, Note_on_c, 0, 67, 0
2, 3419, Note_on_c, 0, 63, 0
2, 3420, Note_on_c, 0, 70, 59
2, 3479, Note_on_c, 0, 70, 0
2, 3480, Note_on_c, 0, 63, 100
2, 3480, Note_on_c, 0, 70, 100
2, 3600, Note_on_c, 0, 70, 0
2, 3600, Note_on_c, 0, 63, 0
2, 3600, Note_on_c, 0, 68, 59
2, 3600, Note_on_c, 0, 65, 59
2, 3659, Note_on_c, 0, 65, 0
2, 3659, Note_on_c, 0, 68, 0
2, 3660, Note_on_c, 0, 70, 59
2, 3719, Note_on_c, 0, 70, 0
2, 3720, Note_on_c, 0, 70, 100
2, 3720, Note_on_c, 0, 65, 100
2, 3840, Note_on_c, 0, 65, 0
2, 3840, Note_on_c, 0, 70, 0
2, 3840, Note_on_c, 0, 62, 63
2, 3840, Note_on_c, 0, 65, 63
2, 3899, Note_on_c, 0, 65, 0
2, 3899, Note_on_c, 0, 62, 0
2, 3900, Note_on_c, 0, 70, 64
2, 3959, Note_on_c, 0, 70, 0
2, 3960, Note_on_c, 0, 70, 100
2, 3960, Note_on_c, 0, 62, 100
2, 4080, Note_on_c, 0, 62, 0
2, 4080, Note_on_c, 0, 70, 0
2, 4080, Note_on_c, 0, 63, 78
2, 4199, Note_on_c, 0, 63, 0
2, 4200, Note_on_c, 0, 70, 77
2, 4200, Note_on_c, 0, 58, 77
2, 4319, Note_on_c, 0, 58, 0
2, 4319, Note_on_c, 0, 70, 0
2, 4320, Note_on_c, 0, 60, 76
2, 4379, Note_on_c, 0, 60, 0
2, 4380, Note_on_c, 0, 72, 76
2, 4439, Note_on_c, 0, 72, 0
2, 4440, Note_on_c, 0, 63, 100
2, 4440, Note_on_c, 0, 72, 100
2, 4560, Note_on_c, 0, 72, 0
2, 4560, Note_on_c, 0, 63, 0
2, 4560, Note_on_c, 0, 62, 77
2, 4679, Note_on_c, 0, 62, 0
2, 4680, Note_on_c, 0, 74, 78
2, 4680, Note_on_c, 0, 65, 78
2, 4799, Note_on_c, 0, 65, 0
2, 4799, Note_on_c, 0, 74, 0
2, 4800, Note_on_c, 0, 63, 78
2, 4859, Note_on_c, 0, 63, 0
2, 4860, Note_on_c, 0, 75, 79
2, 4919, Note_on_c, 0, 75, 0
2, 4920, Note_on_c, 0, 75, 100
2, 4920, Note_on_c, 0, 67, 100
2, 5040, Note_on_c, 0, 67, 0
2, 5040, Note_on_c, 0, 75, 0
2, 5040, Note_on_c, 0, 65, 80
2, 5159, Note_on_c, 0, 65, 0
2, 5160, Note_on_c, 0, 68, 80
2, 5160, Note_on_c, 0, 77, 80
2, 5279, Note_on_c, 0, 77, 0
2, 5279, Note_on_c, 0, 68, 0
2, 5280, Note_on_c, 0, 67, 79
2, 5339, Note_on_c, 0, 67, 0
2, 5340, Note_on_c, 0, 79, 79
2, 5399, Note_on_c, 0, 79, 0
2, 5400, Note_on_c, 0, 70, 100
2, 5400, Note_on_c, 0, 79, 100
2, 5520, Note_on_c, 0, 79, 0
2, 5520, Note_on_c, 0, 70, 0
2, 5520, Note_on_c, 0, 68, 80
2, 5579, Note_on_c, 0, 68, 0
2, 5580, Note_on_c, 0, 80, 80
2, 5639, Note_on_c, 0, 80, 0
2, 5640, Note_on_c, 0, 77, 80
2, 5699, Note_on_c, 0, 77, 0
2, 5700, Note_on_c, 0, 74, 80
2, 5759, Note_on_c, 0, 74, 0
2, 5760, Note_on_c, 0, 75, 80
2, 5819, Note_on_c, 0, 75, 0
2, 5820, Note_on_c, 0, 79, 79
2, 5879, Note_on_c, 0, 79, 0
2, 5880, Note_on_c, 0, 75, 80
2, 5939, Note_on_c, 0, 75, 0
2, 5940, Note_on_c, 0, 70, 80
2, 5999, Note_on_c, 0, 70, 0
2, 6000, Note_on_c, 0, 67, 80
2, 6120, Note_on_c, 0, 67, 0
2, 6120, Note_on_c, 0, 70, 80
2, 6120, Note_on_c, 0, 58, 80
2, 6240, Note_on_c, 0, 58, 0
2, 6240, Note_on_c, 0, 70, 0
2, 6240, Note_on_c, 0, 60, 85
2, 6299, Note_on_c, 0, 60, 0
2, 6300, Note_on_c, 0, 72, 85
2, 6359, Note_on_c, 0, 72, 0
2, 6360, Note_on_c, 0, 72, 80
2, 6360, Note_on_c, 0, 63, 80
2, 6480, Note_on_c, 0, 63, 0
2, 6480, Note_on_c, 0, 72, 0
2, 6480, Note_on_c, 0, 62, 85
2, 6599, Note_on_c, 0, 62, 0
2, 6600, Note_on_c, 0, 74, 85
2, 6600, Note_on_c, 0, 65, 85
2, 6719, Note_on_c, 0, 65, 0
2, 6719, Note_on_c, 0, 74, 0
2, 6720, Note_on_c, 0, 63, 85
2, 6779, Note_on_c, 0, 63, 0
2, 6780, Note_on_c, 0, 75, 85
2, 6839, Note_on_c, 0, 75, 0
2, 6840, Note_on_c, 0, 67, 80
2, 6840, Note_on_c, 0, 75, 80
2, 6960, Note_on_c, 0, 75, 0
2, 6960, Note_on_c, 0, 67, 0
2, 6960, Note_on_c, 0, 65, 85
2, 7079, Note_on_c, 0, 65, 0
2, 7080, Note_on_c, 0, 77, 85
2, 7080, Note_on_c, 0, 68, 85
2, 7199, Note_on_c, 0, 68, 0
2, 7199, Note_on_c, 0, 77, 0
2, 7200, Note_on_c, 0, 67, 85
2, 7259, Note_on_c, 0, 67, 0
2, 7260, Note_on_c, 0, 79, 85
2, 7319, Note_on_c, 0, 79, 0
2, 7320, Note_on_c, 0, 70, 80
2, 7320, Note_on_c, 0, 79, 80
2, 7440, Note_on_c, 0, 79, 0
2, 7440, Note_on_c, 0, 70, 0
2, 7440, Note_on_c, 0, 68, 80
2, 7500, Note_on_c, 0, 68, 0
2, 7500, Note_on_c, 0, 80, 80
2, 7560, Note_on_c, 0, 80, 0
2, 7560, Note_on_c, 0, 77, 80
2, 7620, Note_on_c, 0, 77, 0
2, 7620, Note_on_c, 0, 74, 80
2, 7680, Note_on_c, 0, 74, 0
2, 7680, Note_on_c, 0, 75, 80
2, 7800, Note_on_c, 0, 75, 0
2, 7920, Note_on_c, 0, 82, 58
2, 7979, Note_on_c, 0, 82, 0
2, 7980, Note_on_c, 0, 79, 58
2, 8039, Note_on_c, 0, 79, 0
2, 8040, Note_on_c, 0, 75, 58
2, 8099, Note_on_c, 0, 75, 0
2, 8100, Note_on_c, 0, 70, 58
2, 8159, Note_on_c, 0, 70, 0
2, 8160, Note_on_c, 0, 67, 80
2, 8280, Note_on_c, 0, 67, 0
2, 8400, Note_on_c, 0, 82, 58
2, 8459, Note_on_c, 0, 82, 0
2, 8460, Note_on_c, 0, 79, 58
2, 8519, Note_on_c, 0, 79, 0
2, 8520, Note_on_c, 0, 75, 58
2, 8579, Note_on_c, 0, 75, 0
2, 8580, Note_on_c, 0, 70, 58
2, 8639, Note_on_c, 0, 70, 0
2, 8640, Note_on_c, 0, 67, 51
2, 8759, Note_on_c, 0, 67, 0
2, 8880, Note_on_c, 0, 82, 51
2, 8954, Note_on_c, 0, 82, 0
2, 8955, Note_on_c, 0, 86, 51
2, 8970, Note_on_c, 0, 86, 0
2, 8970, Note_on_c, 0, 84, 51
2, 8985, Note_on_c, 0, 84, 0
2, 8985, Note_on_c, 0, 82, 51
2, 9000, Note_on_c, 0, 82, 0
2, 9000, Note_on_c, 0, 84, 51
2, 9060, Note_on_c, 0, 84, 0
2, 9060, Note_on_c, 0, 82, 51
2, 9120, Note_on_c, 0, 82, 0
2, 9120, Note_on_c, 0, 80, 59
2, 9179, Note_on_c, 0, 80, 0
2, 9180, Note_on_c, 0, 79, 59
2, 9239, Note_on_c, 0, 79, 0
2, 9240, Note_on_c, 0, 77, 59
2, 9299, Note_on_c, 0, 77, 0
2, 9300, Note_on_c, 0, 75, 59
2, 9359, Note_on_c, 0, 75, 0
2, 9360, Note_on_c, 0, 82, 58
2, 9419, Note_on_c, 0, 82, 0
2, 9420, Note_on_c, 0, 80, 58
2, 9479, Note_on_c, 0, 80, 0
2, 9480, Note_on_c, 0, 77, 58
2, 9539, Note_on_c, 0, 77, 0
2, 9540, Note_on_c, 0, 74, 58
2, 9599, Note_on_c, 0, 74, 0
2, 9600, Note_on_c, 0, 70, 58
2, 9659, Note_on_c, 0, 70, 0
2, 9660, Note_on_c, 0, 68, 58
2, 9719, Note_on_c, 0, 68, 0
2, 9720, Note_on_c, 0, 65, 58
2, 9779, Note_on_c, 0, 65, 0
2, 9780, Note_on_c, 0, 62, 58
2, 9839, Note_on_c, 0, 62, 0
2, 9840, Note_on_c, 0, 82, 58
2, 9899, Note_on_c, 0, 82, 0
2, 9900, Note_on_c, 0, 79, 58
2, 9959, Note_on_c, 0, 79, 0
2, 9960, Note_on_c, 0, 75, 58
2, 10019, Note_on_c, 0, 75, 0
2, 10020, Note_on_c, 0, 70, 58
2, 10079, Note_on_c, 0, 70, 0
2, 10080, Note_on_c, 0, 67, 51
2, 10200, Note_on_c, 0, 67, 0
2, 10320, Note_on_c, 0, 82, 58
2, 10379, Note_on_c, 0, 82, 0
2, 10380, Note_on_c, 0, 79, 58
2, 10439, Note_on_c, 0, 79, 0
2, 10440, Note_on_c, 0, 75, 58
2, 10499, Note_on_c, 0, 75, 0
2, 10500, Note_on_c, 0, 70, 58
2, 10559, Note_on_c, 0, 70, 0
2, 10560, Note_on_c, 0, 67, 51
2, 10680, Note_on_c, 0, 67, 0
2, 10800, Note_on_c, 0, 82, 51
2, 10875, Note_on_c, 0, 82, 0
2, 10875, Note_on_c, 0, 86, 51
2, 10890, Note_on_c, 0, 86, 0
2, 10890, Note_on_c, 0, 84, 51
2, 10905, Note_on_c, 0, 84, 0
2, 10905, Note_on_c, 0, 82, 51
2, 10920, Note_on_c, 0, 82, 0
2, 10920, Note_on_c, 0, 84, 58
2, 10979, Note_on_c, 0, 84, 0
2, 10980, Note_on_c, 0, 82, 58
2, 11039, Note_on_c, 0, 82, 0
2, 11040, Note_on_c, 0, 80, 51
2, 11100, Note_on_c, 0, 80, 0
2, 11100, Note_on_c, 0, 82, 51
2, 11160, Note_on_c, 0, 82, 0
2, 11160, Note_on_c, 0, 77, 51
2, 11220, Note_on_c, 0, 77, 0
2, 11220, Note_on_c, 0, 82, 51
2, 11280, Note_on_c, 0, 82, 0
2, 11280, Note_on_c, 0, 74, 51
2, 11340, Note_on_c, 0, 74, 0
2, 11340, Note_on_c, 0, 82, 51
2, 11400, Note_on_c, 0, 82, 0
2, 11400, Note_on_c, 0, 70, 51
2, 11460, Note_on_c, 0, 70, 0
2, 11460, Note_on_c, 0, 82, 51
2, 11520, Note_on_c, 0, 82, 0
2, 11520, Note_on_c, 0, 68, 51
2, 11580, Note_on_c, 0, 68, 0
2, 11580, Note_on_c, 0, 82, 51
2, 11640, Note_on_c, 0, 82, 0
2, 11640, Note_on_c, 0, 65, 51
2, 11700, Note_on_c, 0, 65, 0
2, 11700, Note_on_c, 0, 82, 51
2, 11760, Note_on_c, 0, 82, 0
2, 11760, Note_on_c, 0, 63, 51
2, 11880, Note_on_c, 0, 63, 0
2, 11880, Note_on_c, 0, 70, 51
2, 11880, Note_on_c, 0, 58, 51
2, 12000, Note_on_c, 0, 58, 0
2, 12000, Note_on_c, 0, 70, 0
2, 12000, Note_on_c, 0, 60, 76
2, 12059, Note_on_c, 0, 60, 0
2, 12060, Note_on_c, 0, 72, 76
2, 12119, Note_on_c, 0, 72, 0
2, 12120, Note_on_c, 0, 63, 100
2, 12120, Note_on_c, 0, 72, 100
2, 12240, Note_on_c, 0, 72, 0
2, 12240, Note_on_c, 0, 63, 0
2, 12240, Note_on_c, 0, 62, 77
2, 12359, Note_on_c, 0, 62, 0
2, 12360, Note_on_c, 0, 74, 78
2, 12360, Note_on_c, 0, 65, 78
2, 12479, Note_on_c, 0, 65, 0
2, 12479, Note_on_c, 0, 74, 0
2, 12480, Note_on_c, 0, 63, 78
2, 12539, Note_on_c, 0, 63, 0
2, 12540, Note_on_c, 0, 75, 79
2, 12599, Note_on_c, 0, 75, 0
2, 12600, Note_on_c, 0, 75, 100
2, 12600, Note_on_c, 0, 67, 100
2, 12720, Note_on_c, 0, 67, 0
2, 12720, Note_on_c, 0, 75, 0
2, 12720, Note_on_c, 0, 65, 80
2, 12839, Note_on_c, 0, 65, 0
2, 12840, Note_on_c, 0, 68, 80
2, 12840, Note_on_c, 0, 77, 80
2, 12959, Note_on_c, 0, 77, 0
2, 12959, Note_on_c, 0, 68, 0
2, 12960, Note_on_c, 0, 67, 79
2, 13019, Note_on_c, 0, 67, 0
2, 13020, Note_on_c, 0, 79, 79
2, 13079, Note_on_c, 0, 79, 0
2, 13080, Note_on_c, 0, 70, 100
2, 13080, Note_on_c, 0, 79, 100
2, 13200, Note_on_c, 0, 79, 0
2, 13200, Note_on_c, 0, 70, 0
2, 13200, Note_on_c, 0, 68, 80
2, 13259, Note_on_c, 0, 68, 0
2, 13260, Note_on_c, 0, 80, 80
2, 13319, Note_on_c, 0, 80, 0
2, 13320, Note_on_c, 0, 77, 80
2, 13379, Note_on_c, 0, 77, 0
2, 13380, Note_on_c, 0, 74, 80
2, 13439, Note_on_c, 0, 74, 0
2, 13440, Note_on_c, 0, 75, 80
2, 13499, Note_on_c, 0, 75, 0
2, 13500, Note_on_c, 0, 79, 79
2, 13559, Note_on_c, 0, 79, 0
2, 13560, Note_on_c, 0, 75, 80
2, 13619, Note_on_c, 0, 75, 0
2, 13620, Note_on_c, 0, 70, 80
2, 13679, Note_on_c, 0, 70, 0
2, 13680, Note_on_c, 0, 67, 80
2, 13800, Note_on_c, 0, 67, 0
2, 13800, Note_on_c, 0, 70, 80
2, 13800, Note_on_c, 0, 58, 80
2, 13920, Note_on_c, 0, 58, 0
2, 13920, Note_on_c, 0, 70, 0
2, 13920, Note_on_c, 0, 60, 85
2, 13979, Note_on_c, 0, 60, 0
2, 13980, Note_on_c, 0, 72, 85
2, 14039, Note_on_c, 0, 72, 0
2, 14040, Note_on_c, 0, 72, 80
2, 14040, Note_on_c, 0, 63, 80
2, 14160, Note_on_c, 0, 63, 0
2, 14160, Note_on_c, 0, 72, 0
2, 14160, Note_on_c, 0, 62, 85
2, 14279, Note_on_c, 0, 62, 0
2, 14280, Note_on_c, 0, 74, 85
2, 14280, Note_on_c, 0, 65, 85
2, 14399, Note_on_c, 0, 65, 0
2, 14399, Note_on_c, 0, 74, 0
2, 14400, Note_on_c, 0, 63, 85
2, 14459, Note_on_c, 0, 63, 0
2, 14460, Note_on_c, 0, 75, 85
2, 14519, Note_on_c, 0, 75, 0
2, 14520, Note_on_c, 0, 67, 80
2, 14520, Note_on_c, 0, 75, 80
2, 14640, Note_on_c, 0, 75, 0
2, 14640, Note_on_c, 0, 67, 0
2, 14640, Note_on_c, 0, 65, 85
2, 14759, Note_on_c, 0, 65, 0
2, 14760, Note_on_c, 0, 77, 85
2, 14760, Note_on_c, 0, 68, 85
2, 14879, Note_on_c, 0, 68, 0
2, 14879, Note_on_c, 0, 77, 0
2, 14880, Note_on_c, 0, 67, 85
2, 14939, Note_on_c, 0, 67, 0
2, 14940, Note_on_c, 0, 79, 85
2, 14999, Note_on_c, 0, 79, 0
2, 15000, Note_on_c, 0, 70, 80
2, 15000, Note_on_c, 0, 79, 80
2, 15120, Note_on_c, 0, 79, 0
2, 15120, Note_on_c, 0, 70, 0
2, 15120, Note_on_c, 0, 68, 80
2, 15180, Note_on_c, 0, 68, 0
2, 15180, Note_on_c, 0, 80, 80
2, 15240, Note_on_c, 0, 80, 0
2, 15240, Note_on_c, 0, 77, 80
2, 15300, Note_on_c, 0, 77, 0
2, 15300, Note_on_c, 0, 74, 80
2, 15360, Note_on_c, 0, 74, 0
2, 15360, Note_on_c, 0, 75, 80
2, 15480, Note_on_c, 0, 75, 0
2, 15600, Note_on_c, 0, 75, 51
2, 15600, Note_on_c, 0, 70, 51
2, 15600, Note_on_c, 0, 67, 51
2, 15600, Note_on_c, 0, 63, 51
2, 15720, Note_on_c, 0, 63, 0
2, 15720, Note_on_c, 0, 75, 0
2, 15720, Note_on_c, 0, 70, 0
2, 15720, Note_on_c, 0, 67, 0
2, 15720, Note_on_c, 0, 70, 51
2, 15720, Note_on_c, 0, 74, 51
2, 15780, Note_on_c, 0, 74, 0
2, 15780, Note_on_c, 0, 70, 0
2, 15780, Note_on_c, 0, 68, 51
2, 15780, Note_on_c, 0, 72, 51
2, 15840, Note_on_c, 0, 72, 0
2, 15840, Note_on_c, 0, 68, 0
2, 15840, Note_on_c, 0, 70, 51
2, 15840, Note_on_c, 0, 67, 51
2, 15960, Note_on_c, 0, 67, 0
2, 15960, Note_on_c, 0, 70, 0
2, 15960, Note_on_c, 0, 70, 51
2, 15960, Note_on_c, 0, 67, 51
2, 16080, Note_on_c, 0, 67, 0
2, 16080, Note_on_c, 0, 70, 0
2, 16080, Note_on_c, 0, 72, 51
2, 16080, Note_on_c, 0, 68, 51
2, 16140, Note_on_c, 0, 68, 0
2, 16140, Note_on_c, 0, 72, 0
2, 16140, Note_on_c, 0, 70, 51
2, 16140, Note_on_c, 0, 67, 51
2, 16200, Note_on_c, 0, 67, 0
2, 16200, Note_on_c, 0, 70, 0
2, 16200, Note_on_c, 0, 72, 51
2, 16200, Note_on_c, 0, 68, 51
2, 16260, Note_on_c, 0, 68, 0
2, 16260, Note_on_c, 0, 72, 0
2, 16260, Note_on_c, 0, 66, 54
2, 16260, Note_on_c, 0, 69, 54
2, 16320, Note_on_c, 0, 69, 0
2, 16320, Note_on_c, 0, 66, 0
2, 16320, Note_on_c, 0, 70, 54
2, 16320, Note_on_c, 0, 67, 54
2, 16440, Note_on_c, 0, 67, 0
2, 16440, Note_on_c, 0, 70, 0
2, 16440, Note_on_c, 0, 70, 54
2, 16440, Note_on_c, 0, 67, 54
2, 16560, Note_on_c, 0, 67, 0
2, 16560, Note_on_c, 0, 70, 0
2, 16560, Note_on_c, 0, 68, 54
2, 16560, Note_on_c, 0, 65, 54
2, 16680, Note_on_c, 0, 65, 0
2, 16680, Note_on_c, 0, 68, 0
2, 16680, Note_on_c, 0, 77, 54
2, 16680, Note_on_c, 0, 80, 54
2, 16740, Note_on_c, 0, 80, 0
2, 16740, Note_on_c, 0, 77, 0
2, 16740, Note_on_c, 0, 75, 55
2, 16740, Note_on_c, 0, 79, 55
2, 16800, Note_on_c, 0, 79, 0
2, 16800, Note_on_c, 0, 75, 0
2, 16800, Note_on_c, 0, 74, 55
2, 16800, Note_on_c, 0, 77, 55
2, 16920, Note_on_c, 0, 77, 0
2, 16920, Note_on_c, 0, 74, 0
2, 16920, Note_on_c, 0, 74, 56
2, 16920, Note_on_c, 0, 77, 56
2, 16980, Note_on_c, 0, 77, 0
2, 16980, Note_on_c, 0, 74, 0
2, 16980, Note_on_c, 0, 75, 57
2, 16980, Note_on_c, 0, 72, 57
2, 17040, Note_on_c, 0, 72, 0
2, 17040, Note_on_c, 0, 75, 0
2, 17040, Note_on_c, 0, 70, 58
2, 17040, Note_on_c, 0, 74, 58
2, 17160, Note_on_c, 0, 74, 0
2, 17160, Note_on_c, 0, 70, 0
2, 17160, Note_on_c, 0, 70, 58
2, 17160, Note_on_c, 0, 74, 58
2, 17220, Note_on_c, 0, 74, 0
2, 17220, Note_on_c, 0, 70, 0
2, 17220, Note_on_c, 0, 68, 58
2, 17220, Note_on_c, 0, 72, 58
2, 17280, Note_on_c, 0, 72, 0
2, 17280, Note_on_c, 0, 68, 0
2, 17280, Note_on_c, 0, 70, 60
2, 17280, Note_on_c, 0, 67, 60
2, 17400, Note_on_c, 0, 67, 0
2, 17400, Note_on_c, 0, 70, 0
2, 17400, Note_on_c, 0, 68, 61
2, 17400, Note_on_c, 0, 65, 61
2, 17520, Note_on_c, 0, 65, 0
2, 17520, Note_on_c, 0, 68, 0
2, 17520, Note_on_c, 0, 63, 61
2, 17520, Note_on_c, 0, 67, 61
2, 17520, Note_on_c, 0, 70, 61
2, 17520, Note_on_c, 0, 75, 61
2, 17640, Note_on_c, 0, 75, 0
2, 17640, Note_on_c, 0, 63, 0
2, 17640, Note_on_c, 0, 67, 0
2, 17640, Note_on_c, 0, 70, 0
2, 17640, Note_on_c, 0, 70, 61
2, 17640, Note_on_c, 0, 74, 61
2, 17700, Note_on_c, 0, 74, 0
2, 17700, Note_on_c, 0, 70, 0
2, 17700, Note_on_c, 0, 68, 61
2, 17700, Note_on_c, 0, 72, 61
2, 17760, Note_on_c, 0, 72, 0
2, 17760, Note_on_c, 0, 68, 0
2, 17760, Note_on_c, 0, 70, 61
2, 17760, Note_on_c, 0, 67, 61
2, 17880, Note_on_c, 0, 67, 0
2, 17880, Note_on_c, 0, 70, 0
2, 17880, Note_on_c, 0, 70, 61
2, 17880, Note_on_c, 0, 67, 61
2, 18000, Note_on_c, 0, 67, 0
2, 18000, Note_on_c, 0, 70, 0
2, 18000, Note_on_c, 0, 72, 61
2, 18000, Note_on_c, 0, 68, 61
2, 18060, Note_on_c, 0, 68, 0
2, 18060, Note_on_c, 0, 72, 0
2, 18060, Note_on_c, 0, 70, 65
2, 18060, Note_on_c, 0, 67, 65
2, 18120, Note_on_c, 0, 67, 0
2, 18120, Note_on_c, 0, 70, 0
2, 18120, Note_on_c, 0, 72, 66
2, 18120, Note_on_c, 0, 68, 66
2, 18180, Note_on_c, 0, 68, 0
2, 18180, Note_on_c, 0, 72, 0
2, 18180, Note_on_c, 0, 66, 68
2, 18180, Note_on_c, 0, 69, 68
2, 18240, Note_on_c, 0, 69, 0
2, 18240, Note_on_c, 0, 66, 0
2, 18240, Note_on_c, 0, 70, 70
2, 18240, Note_on_c, 0, 67, 70
2, 18480, Note_on_c, 0, 67, 0
2, 18480, Note_on_c, 0, 70, 0
2, 18480, Note_on_c, 0, 68, 78
2, 18480, Note_on_c, 0, 65, 78
2, 18600, Note_on_c, 0, 65, 0
2, 18600, Note_on_c, 0, 68, 0
2, 18600, Note_on_c, 0, 84, 84
2, 18600, Note_on_c, 0, 80, 84
2, 18660, Note_on_c, 0, 80, 0
2, 18660, Note_on_c, 0, 84, 0
2, 18660, Note_on_c, 0, 82, 84
2, 18660, Note_on_c, 0, 79, 84
2, 18720, Note_on_c, 0, 79, 0
2, 18720, Note_on_c, 0, 82, 0
2, 18720, Note_on_c, 0, 80, 84
2, 18720, Note_on_c, 0, 77, 84
2, 18780, Note_on_c, 0, 77, 0
2, 18780, Note_on_c, 0, 80, 0
2, 18780, Note_on_c, 0, 79, 86
2, 18780, Note_on_c, 0, 75, 86
2, 18840, Note_on_c, 0, 75, 0
2, 18840, Note_on_c, 0, 79, 0
2, 18840, Note_on_c, 0, 77, 86
2, 18840, Note_on_c, 0, 74, 86
2, 18900, Note_on_c, 0, 74, 0
2, 18900, Note_on_c, 0, 77, 0
2, 18900, Note_on_c, 0, 75, 87
2, 18900, Note_on_c, 0, 72, 87
2, 18960, Note_on_c, 0, 72, 0
2, 18960, Note_on_c, 0, 75, 0
2, 18960, Note_on_c, 0, 74, 88
2, 18960, Note_on_c, 0, 70, 88
2, 19080, Note_on_c, 0, 70, 0
2, 19080, Note_on_c, 0, 74, 0
2, 19080, Note_on_c, 0, 72, 90
2, 19080, Note_on_c, 0, 68, 90
2, 19200, Note_on_c, 0, 68, 0
2, 19200, Note_on_c, 0, 72, 0
2, 19200, Note_on_c, 0, 70, 92
2, 19200, Note_on_c, 0, 67, 92
2, 19320, Note_on_c, 0, 67, 0
2, 19320, Note_on_c, 0, 70, 0
2, 19320, Note_on_c, 0, 68, 96
2, 19320, Note_on_c, 0, 65, 96
2, 19440, Note_on_c, 0, 65, 0
2, 19440, Note_on_c, 0, 68, 0
2, 19440, Note_on_c, 0, 63, 101
2, 19560, Note_on_c, 0, 63, 0
2, 19560, Note_on_c, 0, 70, 110
2, 19560, Note_on_c, 0, 58, 110
2, 19680, Note_on_c, 0, 58, 0
2, 19680, Note_on_c, 0, 70, 0
2, 19680, Note_on_c, 0, 60, 76
2, 19739, Note_on_c, 0, 60, 0
2, 19740, Note_on_c, 0, 72, 76
2, 19799, Note_on_c, 0, 72, 0
2, 19800, Note_on_c, 0, 63, 100
2, 19800, Note_on_c, 0, 72, 100
2, 19920, Note_on_c, 0, 72, 0
2, 19920, Note_on_c, 0, 63, 0
2, 19920, Note_on_c, 0, 62, 77
2, 20039, Note_on_c, 0, 62, 0
2, 20040, Note_on_c, 0, 74, 78
2, 20040, Note_on_c, 0, 65, 78
2, 20159, Note_on_c, 0, 65, 0
2, 20159, Note_on_c, 0, 74, 0
2, 20160, Note_on_c, 0, 63, 78
2, 20219, Note_on_c, 0, 63, 0
2, 20220, Note_on_c, 0, 75, 79
2, 20279, Note_on_c, 0, 75, 0
2, 20280, Note_on_c, 0, 75, 100
2, 20280, Note_on_c, 0, 67, 100
2, 20400, Note_on_c, 0, 67, 0
2, 20400, Note_on_c, 0, 75, 0
2, 20400, Note_on_c, 0, 65, 80
2, 20519, Note_on_c, 0, 65, 0
2, 20520, Note_on_c, 0, 68, 80
2, 20520, Note_on_c, 0, 77, 80
2, 20639, Note_on_c, 0, 77, 0
2, 20639, Note_on_c, 0, 68, 0
2, 20640, Note_on_c, 0, 67, 79
2, 20699, Note_on_c, 0, 67, 0
2, 20700, Note_on_c, 0, 79, 79
2, 20759, Note_on_c, 0, 79, 0
2, 20760, Note_on_c, 0, 70, 100
2, 20760, Note_on_c, 0, 79, 100
2, 20880, Note_on_c, 0, 79, 0
2, 20880, Note_on_c, 0, 70, 0
2, 20880, Note_on_c, 0, 68, 80
2, 20939, Note_on_c, 0, 68, 0
2, 20940, Note_on_c, 0, 80, 80
2, 20999, Note_on_c, 0, 80, 0
2, 21000, Note_on_c, 0, 77, 80
2, 21059, Note_on_c, 0, 77, 0
2, 21060, Note_on_c, 0, 74, 80
2, 21119, Note_on_c, 0, 74, 0
2, 21120, Note_on_c, 0, 75, 80
2, 21179, Note_on_c, 0, 75, 0
2, 21180, Note_on_c, 0, 79, 79
2, 21239, Note_on_c, 0, 79, 0
2, 21240, Note_on_c, 0, 75, 80
2, 21299, Note_on_c, 0, 75, 0
2, 21300, Note_on_c, 0, 70, 80
2, 21359, Note_on_c, 0, 70, 0
2, 21360, Note_on_c, 0, 67, 80
2, 21480, Note_on_c, 0, 67, 0
2, 21480, Note_on_c, 0, 70, 80
2, 21480, Note_on_c, 0, 58, 80
2, 21600, Note_on_c, 0, 58, 0
2, 21600, Note_on_c, 0, 70, 0
2, 21600, Note_on_c, 0, 60, 85
2, 21659, Note_on_c, 0, 60, 0
2, 21660, Note_on_c, 0, 72, 85
2, 21719, Note_on_c, 0, 72, 0
2, 21720, Note_on_c, 0, 72, 80
2, 21720, Note_on_c, 0, 63, 80
2, 21840, Note_on_c, 0, 63, 0
2, 21840, Note_on_c, 0, 72, 0
2, 21840, Note_on_c, 0, 62, 85
2, 21959, Note_on_c, 0, 62, 0
2, 21960, Note_on_c, 0, 74, 85
2, 21960, Note_on_c, 0, 65, 85
2, 22079, Note_on_c, 0, 65, 0
2, 22079, Note_on_c, 0, 74, 0
2, 22080, Note_on_c, 0, 63, 85
2, 22139, Note_on_c, 0, 63, 0
2, 22140, Note_on_c, 0, 75, 85
2, 22199, Note_on_c, 0, 75, 0
2, 22200, Note_on_c, 0, 67, 80
2, 22200, Note_on_c, 0, 75, 80
2, 22320, Note_on_c, 0, 75, 0
2, 22320, Note_on_c, 0, 67, 0
2, 22320, Note_on_c, 0, 65, 85
2, 22439, Note_on_c, 0, 65, 0
2, 22440, Note_on_c, 0, 77, 85
2, 22440, Note_on_c, 0, 68, 85
2, 22559, Note_on_c, 0, 68, 0
2, 22559, Note_on_c, 0, 77, 0
2, 22560, Note_on_c, 0, 67, 85
2, 22619, Note_on_c, 0, 67, 0
2, 22620, Note_on_c, 0, 79, 85
2, 22679, Note_on_c, 0, 79, 0
2, 22680, Note_on_c, 0, 70, 80
2, 22680, Note_on_c, 0, 79, 80
2, 22800, Note_on_c, 0, 79, 0
2, 22800, Note_on_c, 0, 70, 0
2, 22800, Note_on_c, 0, 68, 80
2, 22860, Note_on_c, 0, 68, 0
2, 22860, Note_on_c, 0, 80, 80
2, 22920, Note_on_c, 0, 80, 0
2, 22920, Note_on_c, 0, 77, 80
2, 22980, Note_on_c, 0, 77, 0
2, 22980, Note_on_c, 0, 74, 80
2, 23040, Note_on_c, 0, 74, 0
2, 23040, Note_on_c, 0, 75, 80
2, 23160, Note_on_c, 0, 75, 0
2, 23340, Note_on_c, 0, 58, 100
2, 23400, Note_on_c, 0, 58, 0
2, 23400, Note_on_c, 0, 63, 100
2, 23460, Note_on_c, 0, 63, 0
2, 23460, Note_on_c, 0, 67, 100
2, 23520, Note_on_c, 0, 67, 0
2, 23520, Note_on_c, 0, 70, 100
2, 23640, Note_on_c, 0, 70, 0
2, 23640, Note_on_c, 0, 68, 100
2, 23760, Note_on_c, 0, 68, 0
2, 23820, Note_on_c, 0, 65, 100
2, 23880, Note_on_c, 0, 65, 0
2, 23880, Note_on_c, 0, 68, 100
2, 23940, Note_on_c, 0, 68, 0
2, 23940, Note_on_c, 0, 74, 100
2, 24000, Note_on_c, 0, 74, 0
2, 24000, Note_on_c, 0, 77, 100
2, 24120, Note_on_c, 0, 77, 0
2, 24120, Note_on_c, 0, 75, 100
2, 24240, Note_on_c, 0, 75, 0
2, 24300, Note_on_c, 0, 58, 100
2, 24360, Note_on_c, 0, 58, 0
2, 24360, Note_on_c, 0, 63, 100
2, 24420, Note_on_c, 0, 63, 0
2, 24420, Note_on_c, 0, 67, 100
2, 24480, Note_on_c, 0, 67, 0
2, 24480, Note_on_c, 0, 70, 100
2, 24600, Note_on_c, 0, 70, 0
2, 24600, Note_on_c, 0, 68, 100
2, 24720, Note_on_c, 0, 68, 0
2, 24780, Note_on_c, 0, 80, 100
2, 24840, Note_on_c, 0, 80, 0
2, 24840, Note_on_c, 0, 77, 100
2, 24900, Note_on_c, 0, 77, 0
2, 24900, Note_on_c, 0, 74, 100
2, 24960, Note_on_c, 0, 74, 0
2, 24960, Note_on_c, 0, 75, 100
2, 25020, Note_on_c, 0, 75, 0
2, 25020, Note_on_c, 0, 79, 100
2, 25080, Note_on_c, 0, 79, 0
2, 25080, Note_on_c, 0, 75, 100
2, 25140, Note_on_c, 0, 75, 0
2, 25140, Note_on_c, 0, 70, 100
2, 25200, Note_on_c, 0, 70, 0
2, 25260, Note_on_c, 0, 58, 100
2, 25320, Note_on_c, 0, 58, 0
2, 25320, Note_on_c, 0, 63, 100
2, 25380, Note_on_c, 0, 63, 0
2, 25380, Note_on_c, 0, 67, 100
2, 25440, Note_on_c, 0, 67, 0
2, 25440, Note_on_c, 0, 70, 100
2, 25560, Note_on_c, 0, 70, 0
2, 25560, Note_on_c, 0, 68, 100
2, 25680, Note_on_c, 0, 68, 0
2, 25740, Note_on_c, 0, 65, 100
2, 25800, Note_on_c, 0, 65, 0
2, 25800, Note_on_c, 0, 68, 100
2, 25860, Note_on_c, 0, 68, 0
2, 25860, Note_on_c, 0, 74, 100
2, 25920, Note_on_c, 0, 74, 0
2, 25920, Note_on_c, 0, 77, 100
2, 26040, Note_on_c, 0, 77, 0
2, 26040, Note_on_c, 0, 75, 100
2, 26160, Note_on_c, 0, 75, 0
2, 26220, Note_on_c, 0, 58, 100
2, 26280, Note_on_c, 0, 58, 0
2, 26280, Note_on_c, 0, 63, 100
2, 26340, Note_on_c, 0, 63, 0
2, 26340, Note_on_c, 0, 67, 100
2, 26400, Note_on_c, 0, 67, 0
2, 26400, Note_on_c, 0, 70, 100
2, 26520, Note_on_c, 0, 70, 0
2, 26520, Note_on_c, 0, 68, 100
2, 26640, Note_on_c, 0, 68, 0
2, 26700, Note_on_c, 0, 80, 100
2, 26760, Note_on_c, 0, 80, 0
2, 26760, Note_on_c, 0, 77, 100
2, 26820, Note_on_c, 0, 77, 0
2, 26820, Note_on_c, 0, 74, 100
2, 26880, Note_on_c, 0, 74, 0
2, 26880, Note_on_c, 0, 75, 100
2, 26940, Note_on_c, 0, 75, 0
2, 26940, Note_on_c, 0, 79, 100
2, 27000, Note_on_c, 0, 79, 0
2, 27000, Note_on_c, 0, 75, 100
2, 27060, Note_on_c, 0, 75, 0
2, 27060, Note_on_c, 0, 70, 100
2, 27120, Note_on_c, 0, 70, 0
2, 27120, Note_on_c, 0, 63, 100
2, 27240, Note_on_c, 0, 63, 0
2, 27240, Note_on_c, 0, 70, 100
2, 27240, Note_on_c, 0, 58, 100
2, 27360, Note_on_c, 0, 58, 0
2, 27360, Note_on_c, 0, 70, 0
2, 27360, Note_on_c, 0, 60, 76
2, 27419, Note_on_c, 0, 60, 0
2, 27420, Note_on_c, 0, 72, 76
2, 27479, Note_on_c, 0, 72, 0
2, 27480, Note_on_c, 0, 63, 100
2, 27480, Note_on_c, 0, 72, 100
2, 27600, Note_on_c, 0, 72, 0
2, 27600, Note_on_c, 0, 63, 0
2, 27600, Note_on_c, 0, 62, 77
2, 27719, Note_on_c, 0, 62, 0
2, 27720, Note_on_c, 0, 74, 78
2, 27720, Note_on_c, 0, 65, 78
2, 27839, Note_on_c, 0, 65, 0
2, 27839, Note_on_c, 0, 74, 0
2, 27840, Note_on_c, 0, 63, 78
2, 27899, Note_on_c, 0, 63, 0
2, 27900, Note_on_c, 0, 75, 79
2, 27959, Note_on_c, 0, 75, 0
2, 27960, Note_on_c, 0, 75, 100
2, 27960, Note_on_c, 0, 67, 100
2, 28080, Note_on_c, 0, 67, 0
2, 28080, Note_on_c, 0, 75, 0
2, 28080, Note_on_c, 0, 65, 80
2, 28199, Note_on_c, 0, 65, 0
2, 28200, Note_on_c, 0, 68, 80
2, 28200, Note_on_c, 0, 77, 80
2, 28319, Note_on_c, 0, 77, 0
2, 28319, Note_on_c, 0, 68, 0
2, 28320, Note_on_c, 0, 67, 79
2, 28379, Note_on_c, 0, 67, 0
2, 28380, Note_on_c, 0, 79, 79
2, 28439, Note_on_c, 0, 79, 0
2, 28440, Note_on_c, 0, 70, 100
2, 28440, Note_on_c, 0, 79, 100
2, 28560, Note_on_c, 0, 79, 0
2, 28560, Note_on_c, 0, 70, 0
2, 28560, Note_on_c, 0, 68, 80
2, 28619, Note_on_c, 0, 68, 0
2, 28620, Note_on_c, 0, 80, 80
2, 28679, Note_on_c, 0, 80, 0
2, 28680, Note_on_c, 0, 77, 80
2, 28739, Note_on_c, 0, 77, 0
2, 28740, Note_on_c, 0, 74, 80
2, 28799, Note_on_c, 0, 74, 0
2, 28800, Note_on_c, 0, 75, 80
2, 28859, Note_on_c, 0, 75, 0
2, 28860, Note_on_c, 0, 79, 79
2, 28919, Note_on_c, 0, 79, 0
2, 28920, Note_on_c, 0, 75, 80
2, 28979, Note_on_c, 0, 75, 0
2, 28980, Note_on_c, 0, 70, 80
2, 29039, Note_on_c, 0, 70, 0
2, 29040, Note_on_c, 0, 67, 80
2, 29160, Note_on_c, 0, 67, 0
2, 29160, Note_on_c, 0, 70, 80
2, 29160, Note_on_c, 0, 58, 80
2, 29280, Note_on_c, 0, 58, 0
2, 29280, Note_on_c, 0, 70, 0
2, 29280, Note_on_c, 0, 60, 85
2, 29339, Note_on_c, 0, 60, 0
2, 29340, Note_on_c, 0, 72, 85
2, 29399, Note_on_c, 0, 72, 0
2, 29400, Note_on_c, 0, 72, 80
2, 29400, Note_on_c, 0, 63, 80
2, 29520, Note_on_c, 0, 63, 0
2, 29520, Note_on_c, 0, 72, 0
2, 29520, Note_on_c, 0, 62, 85
2, 29639, Note_on_c, 0, 62, 0
2, 29640, Note_on_c, 0, 74, 85
2, 29640, Note_on_c, 0, 65, 85
2, 29759, Note_on_c, 0, 65, 0
2, 29759, Note_on_c, 0, 74, 0
2, 29760, Note_on_c, 0, 63, 85
2, 29819, Note_on_c, 0, 63, 0
2, 29820, Note_on_c, 0, 75, 85
2, 29879, Note_on_c, 0, 75, 0
2, 29880, Note_on_c, 0, 67, 80
2, 29880, Note_on_c, 0, 75, 80
2, 30000, Note_on_c, 0, 75, 0
2, 30000, Note_on_c, 0, 67, 0
2, 30000, Note_on_c, 0, 65, 85
2, 30119, Note_on_c, 0, 65, 0
2, 30120, Note_on_c, 0, 77, 85
2, 30120, Note_on_c, 0, 68, 85
2, 30239, Note_on_c, 0, 68, 0
2, 30239, Note_on_c, 0, 77, 0
2, 30240, Note_on_c, 0, 67, 85
2, 30299, Note_on_c, 0, 67, 0
2, 30300, Note_on_c, 0, 79, 85
2, 30359, Note_on_c, 0, 79, 0
2, 30360, Note_on_c, 0, 70, 80
2, 30360, Note_on_c, 0, 79, 80
2, 30480, Note_on_c, 0, 79, 0
2, 30480, Note_on_c, 0, 70, 0
2, 30480, Note_on_c, 0, 68, 80
2, 30540, Note_on_c, 0, 68, 0
2, 30540, Note_on_c, 0, 80, 80
2, 30600, Note_on_c, 0, 80, 0
2, 30600, Note_on_c, 0, 77, 80
2, 30660, Note_on_c, 0, 77, 0
2, 30660, Note_on_c, 0, 74, 80
2, 30720, Note_on_c, 0, 74, 0
2, 30720, Note_on_c, 0, 75, 80
2, 30840, Note_on_c, 0, 75, 0
2, 30960, Note_on_c, 0, 70, 100
2, 30960, Note_on_c, 0, 79, 100
2, 31080, Note_on_c, 0, 79, 0
2, 31080, Note_on_c, 0, 70, 0
2, 31080, Note_on_c, 0, 70, 100
2, 31080, Note_on_c, 0, 79, 100
2, 31140, Note_on_c, 0, 79, 0
2, 31140, Note_on_c, 0, 70, 0
2, 31140, Note_on_c, 0, 68, 100
2, 31140, Note_on_c, 0, 77, 100
2, 31200, Note_on_c, 0, 77, 0
2, 31200, Note_on_c, 0, 68, 0
2, 31200, Note_on_c, 0, 67, 100
2, 31200, Note_on_c, 0, 75, 100
2, 31440, Note_on_c, 0, 75, 0
2, 31440, Note_on_c, 0, 67, 0
2, 31440, Note_on_c, 0, 55, 100
2, 31440, Note_on_c, 0, 63, 100
2, 31560, Note_on_c, 0, 63, 0
2, 31560, Note_on_c, 0, 55, 0
2, 31560, Note_on_c, 0, 63, 100
2, 31560, Note_on_c, 0, 55, 100
2, 31620, Note_on_c, 0, 55, 0
2, 31620, Note_on_c, 0, 63, 0
2, 31620, Note_on_c, 0, 65, 100
2, 31620, Note_on_c, 0, 58, 100
2, 31680, Note_on_c, 0, 58, 0
2, 31680, Note_on_c, 0, 65, 0
2, 31680, Note_on_c, 0, 67, 100
2, 31680, Note_on_c, 0, 63, 100
2, 31800, Note_on_c, 0, 63, 0
2, 31800, Note_on_c, 0, 67, 0
2, 32040, Note_on_c, 0, 77, 100
2, 32040, Note_on_c, 0, 80, 100
2, 32100, Note_on_c, 0, 80, 0
2, 32100, Note_on_c, 0, 77, 0
2, 32100, Note_on_c, 0, 79, 100
2, 32100, Note_on_c, 0, 75, 100
2, 32160, Note_on_c, 0, 75, 0
2, 32160, Note_on_c, 0, 79, 0
2, 32160, Note_on_c, 0, 77, 100
2, 32160, Note_on_c, 0, 74, 100
2, 32400, Note_on_c, 0, 74, 0
2, 32400, Note_on_c, 0, 77, 0
2, 32400, Note_on_c, 0, 62, 100
2, 32400, Note_on_c, 0, 65, 100
2, 32460, Note_on_c, 0, 65, 0
2, 32460, Note_on_c, 0, 62, 0
2, 32460, Note_on_c, 0, 67, 100
2, 32460, Note_on_c, 0, 63, 100
2, 32520, Note_on_c, 0, 63, 0
2, 32520, Note_on_c, 0, 67, 0
2, 32520, Note_on_c, 0, 65, 100
2, 32520, Note_on_c, 0, 68, 100
2, 32580, Note_on_c, 0, 68, 0
2, 32580, Note_on_c, 0, 65, 0
2, 32580, Note_on_c, 0, 67, 100
2, 32580, Note_on_c, 0, 70, 100
2, 32640, Note_on_c, 0, 70, 0
2, 32640, Note_on_c, 0, 67, 0
2, 32640, Note_on_c, 0, 68, 100
2, 32640, Note_on_c, 0, 72, 100
2, 32880, Note_on_c, 0, 72, 0
2, 32880, Note_on_c, 0, 68, 0
2, 32880, Note_on_c, 0, 70, 100
2, 32880, Note_on_c, 0, 79, 100
2, 33000, Note_on_c, 0, 79, 0
2, 33000, Note_on_c, 0, 70, 0
2, 33000, Note_on_c, 0, 70, 100
2, 33000, Note_on_c, 0, 79, 100
2, 33060, Note_on_c, 0, 79, 0
2, 33060, Note_on_c, 0, 70, 0
2, 33060, Note_on_c, 0, 68, 100
2, 33060, Note_on_c, 0, 77, 100
2, 33120, Note_on_c, 0, 77, 0
2, 33120, Note_on_c, 0, 68, 0
2, 33120, Note_on_c, 0, 67, 100
2, 33120, Note_on_c, 0, 75, 100
2, 33360, Note_on_c, 0, 75, 0
2, 33360, Note_on_c, 0, 67, 0
2, 33360, Note_on_c, 0, 55, 100
2, 33360, Note_on_c, 0, 63, 100
2, 33480, Note_on_c, 0, 63, 0
2, 33480, Note_on_c, 0, 55, 0
2, 33480, Note_on_c, 0, 63, 100
2, 33480, Note_on_c, 0, 55, 100
2, 33540, Note_on_c, 0, 55, 0
2, 33540, Note_on_c, 0, 63, 0
2, 33540, Note_on_c, 0, 65, 100
2, 33540, Note_on_c, 0, 58, 100
2, 33600, Note_on_c, 0, 58, 0
2, 33600, Note_on_c, 0, 65, 0
2, 33600, Note_on_c, 0, 67, 100
2, 33600, Note_on_c, 0, 63, 100
2, 33840, Note_on_c, 0, 63, 0
2, 33840, Note_on_c, 0, 67, 0
2, 33960, Note_on_c, 0, 77, 100
2, 33960, Note_on_c, 0, 80, 100
2, 34020, Note_on_c, 0, 80, 0
2, 34020, Note_on_c, 0, 77, 0
2, 34020, Note_on_c, 0, 79, 100
2, 34020, Note_on_c, 0, 75, 100
2, 34080, Note_on_c, 0, 75, 0
2, 34080, Note_on_c, 0, 79, 0
2, 34080, Note_on_c, 0, 77, 100
2, 34080, Note_on_c, 0, 74, 100
2, 34320, Note_on_c, 0, 74, 0
2, 34320, Note_on_c, 0, 77, 0
2, 34320, Note_on_c, 0, 62, 100
2, 34320, Note_on_c, 0, 65, 100
2, 34380, Note_on_c, 0, 65, 0
2, 34380, Note_on_c, 0, 62, 0
2, 34380, Note_on_c, 0, 67, 100
2, 34380, Note_on_c, 0, 63, 100
2, 34440, Note_on_c, 0, 63, 0
2, 34440, Note_on_c, 0, 67, 0
2, 34440, Note_on_c, 0, 65, 100
2, 34440, Note_on_c, 0, 68, 100
2, 34500, Note_on_c, 0, 68, 0
2, 34500, Note_on_c, 0, 65, 0
2, 34500, Note_on_c, 0, 67, 100
2, 34500, Note_on_c, 0, 70, 100
2, 34560, Note_on_c, 0, 70, 0
2, 34560, Note_on_c, 0, 67, 0
2, 34560, Note_on_c, 0, 68, 100
2, 34560, Note_on_c, 0, 72, 100
2, 34800, Note_on_c, 0, 72, 0
2, 34800, Note_on_c, 0, 68, 0
2, 34800, Note_on_c, 0, 70, 100
2, 34800, Note_on_c, 0, 67, 100
2, 34920, Note_on_c, 0, 67, 0
2, 34920, Note_on_c, 0, 70, 0
2, 34920, Note_on_c, 0, 58, 100
2, 34920, Note_on_c, 0, 70, 100
2, 35040, Note_on_c, 0, 70, 0
2, 35040, Note_on_c, 0, 58, 0
2, 35040, Note_on_c, 0, 60, 76
2, 35099, Note_on_c, 0, 60, 0
2, 35100, Note_on_c, 0, 72, 76
2, 35159, Note_on_c, 0, 72, 0
2, 35160, Note_on_c, 0, 63, 100
2, 35160, Note_on_c, 0, 72, 100
2, 35280, Note_on_c, 0, 72, 0
2, 35280, Note_on_c, 0, 63, 0
2, 35280, Note_on_c, 0, 62, 77
2, 35399, Note_on_c, 0, 62, 0
2, 35400, Note_on_c, 0, 74, 78
2, 35400, Note_on_c, 0, 65, 78
2, 35519, Note_on_c, 0, 65, 0
2, 35519, Note_on_c, 0, 74, 0
2, 35520, Note_on_c, 0, 63, 78
2, 35579, Note_on_c, 0, 63, 0
2, 35580, Note_on_c, 0, 75, 79
2, 35639, Note_on_c, 0, 75, 0
2, 35640, Note_on_c, 0, 75, 100
2, 35640, Note_on_c, 0, 67, 100
2, 35760, Note_on_c, 0, 67, 0
2, 35760, Note_on_c, 0, 75, 0
2, 35760, Note_on_c, 0, 65, 80
2, 35879, Note_on_c, 0, 65, 0
2, 35880, Note_on_c, 0, 68, 80
2, 35880, Note_on_c, 0, 77, 80
2, 35999, Note_on_c, 0, 77, 0
2, 35999, Note_on_c, 0, 68, 0
2, 36000, Note_on_c, 0, 67, 79
2, 36059, Note_on_c, 0, 67, 0
2, 36060, Note_on_c, 0, 79, 79
2, 36119, Note_on_c, 0, 79, 0
2, 36120, Note_on_c, 0, 70, 100
2, 36120, Note_on_c, 0, 79, 100
2, 36240, Note_on_c, 0, 79, 0
2, 36240, Note_on_c, 0, 70, 0
2, 36240, Note_on_c, 0, 68, 80
2, 36299, Note_on_c, 0, 68, 0
2, 36300, Note_on_c, 0, 80, 80
2, 36359, Note_on_c, 0, 80, 0
2, 36360, Note_on_c, 0, 77, 80
2, 36419, Note_on_c, 0, 77, 0
2, 36420, Note_on_c, 0, 74, 80
2, 36479, Note_on_c, 0, 74, 0
2, 36480, Note_on_c, 0, 75, 80
2, 36539, Note_on_c, 0, 75, 0
2, 36540, Note_on_c, 0, 79, 79
2, 36599, Note_on_c, 0, 79, 0
2, 36600, Note_on_c, 0, 75, 80
2, 36659, Note_on_c, 0, 75, 0
2, 36660, Note_on_c, 0, 70, 80
2, 36719, Note_on_c, 0, 70, 0
2, 36720, Note_on_c, 0, 67, 80
2, 36840, Note_on_c, 0, 67, 0
2, 36840, Note_on_c, 0, 70, 80
2, 36840, Note_on_c, 0, 58, 80
2, 36960, Note_on_c, 0, 58, 0
2, 36960, Note_on_c, 0, 70, 0
2, 36960, Note_on_c, 0, 60, 85
2, 37019, Note_on_c, 0, 60, 0
2, 37020, Note_on_c, 0, 72, 85
2, 37079, Note_on_c, 0, 72, 0
2, 37080, Note_on_c, 0, 72, 80
2, 37080, Note_on_c, 0, 63, 80
2, 37200, Note_on_c, 0, 63, 0
2, 37200, Note_on_c, 0, 72, 0
2, 37200, Note_on_c, 0, 62, 85
2, 37319, Note_on_c, 0, 62, 0
2, 37320, Note_on_c, 0, 74, 85
2, 37320, Note_on_c, 0, 65, 85
2, 37439, Note_on_c, 0, 65, 0
2, 37439, Note_on_c, 0, 74, 0
2, 37440, Note_on_c, 0, 63, 85
2, 37499, Note_on_c, 0, 63, 0
2, 37500, Note_on_c, 0, 75, 85
2, 37559, Note_on_c, 0, 75, 0
2, 37560, Note_on_c, 0, 67, 80
2, 37560, Note_on_c, 0, 75, 80
2, 37680, Note_on_c, 0, 75, 0
2, 37680, Note_on_c, 0, 67, 0
2, 37680, Note_on_c, 0, 65, 85
2, 37799, Note_on_c, 0, 65, 0
2, 37800, Note_on_c, 0, 77, 85
2, 37800, Note_on_c, 0, 68, 85
2, 37919, Note_on_c, 0, 68, 0
2, 37919, Note_on_c, 0, 77, 0
2, 37920, Note_on_c, 0, 67, 85
2, 37979, Note_on_c, 0, 67, 0
2, 37980, Note_on_c, 0, 79, 85
2, 38039, Note_on_c, 0, 79, 0
2, 38040, Note_on_c, 0, 70, 80
2, 38040, Note_on_c, 0, 79, 80
2, 38160, Note_on_c, 0, 79, 0
2, 38160, Note_on_c, 0, 70, 0
2, 38160, Note_on_c, 0, 68, 80
2, 38220, Note_on_c, 0, 68, 0
2, 38220, Note_on_c, 0, 80, 80
2, 38280, Note_on_c, 0, 80, 0
2, 38280, Note_on_c, 0, 77, 80
2, 38340, Note_on_c, 0, 77, 0
2, 38340, Note_on_c, 0, 74, 80
2, 38400, Note_on_c, 0, 74, 0
2, 38400, Note_on_c, 0, 75, 80
2, 38520, Note_on_c, 0, 75, 0
2, 38640, Note_on_c, 0, 70, 100
2, 38640, Note_on_c, 0, 67, 100
2, 38714, Note_on_c, 0, 67, 0
2, 38715, Note_on_c, 0, 72, 100
2, 38716, Note_on_c, 0, 70, 0
2, 38730, Note_on_c, 0, 72, 0
2, 38730, Note_on_c, 0, 70, 100
2, 38745, Note_on_c, 0, 70, 0
2, 38745, Note_on_c, 0, 69, 100
2, 38760, Note_on_c, 0, 69, 0
2, 38760, Note_on_c, 0, 70, 100
2, 38820, Note_on_c, 0, 70, 0
2, 38820, Note_on_c, 0, 75, 100
2, 38880, Note_on_c, 0, 75, 0
2, 38880, Note_on_c, 0, 67, 100
2, 38880, Note_on_c, 0, 63, 100
2, 39120, Note_on_c, 0, 63, 0
2, 39120, Note_on_c, 0, 67, 0
2, 39120, Note_on_c, 0, 75, 100
2, 39194, Note_on_c, 0, 75, 0
2, 39195, Note_on_c, 0, 77, 100
2, 39210, Note_on_c, 0, 77, 0
2, 39210, Note_on_c, 0, 75, 100
2, 39225, Note_on_c, 0, 75, 0
2, 39225, Note_on_c, 0, 74, 100
2, 39240, Note_on_c, 0, 74, 0
2, 39240, Note_on_c, 0, 75, 100
2, 39300, Note_on_c, 0, 75, 0
2, 39300, Note_on_c, 0, 79, 100
2, 39360, Note_on_c, 0, 79, 0
2, 39360, Note_on_c, 0, 70, 100
2, 39360, Note_on_c, 0, 67, 100
2, 39600, Note_on_c, 0, 67, 0
2, 39600, Note_on_c, 0, 70, 0
2, 39600, Note_on_c, 0, 70, 100
2, 39660, Note_on_c, 0, 70, 0
2, 39660, Note_on_c, 0, 67, 100
2, 39720, Note_on_c, 0, 67, 0
2, 39720, Note_on_c, 0, 72, 100
2, 39780, Note_on_c, 0, 72, 0
2, 39780, Note_on_c, 0, 70, 100
2, 39840, Note_on_c, 0, 70, 0
2, 39840, Note_on_c, 0, 68, 100
2, 39900, Note_on_c, 0, 68, 0
2, 39900, Note_on_c, 0, 67, 100
2, 39960, Note_on_c, 0, 67, 0
2, 39960, Note_on_c, 0, 65, 100
2, 40020, Note_on_c, 0, 65, 0
2, 40020, Note_on_c, 0, 63, 100
2, 40080, Note_on_c, 0, 63, 0
2, 40080, Note_on_c, 0, 62, 100
2, 40140, Note_on_c, 0, 62, 0
2, 40140, Note_on_c, 0, 63, 100
2, 40200, Note_on_c, 0, 63, 0
2, 40200, Note_on_c, 0, 65, 100
2, 40260, Note_on_c, 0, 65, 0
2, 40260, Note_on_c, 0, 67, 100
2, 40320, Note_on_c, 0, 67, 0
2, 40320, Note_on_c, 0, 68, 100
2, 40380, Note_on_c, 0, 68, 0
2, 40380, Note_on_c, 0, 70, 100
2, 40440, Note_on_c, 0, 70, 0
2, 40440, Note_on_c, 0, 72, 100
2, 40500, Note_on_c, 0, 72, 0
2, 40500, Note_on_c, 0, 74, 100
2, 40560, Note_on_c, 0, 74, 0
2, 40560, Note_on_c, 0, 75, 100
2, 40635, Note_on_c, 0, 77, 100
2, 40636, Note_on_c, 0, 75, 0
2, 40650, Note_on_c, 0, 77, 0
2, 40650, Note_on_c, 0, 75, 100
2, 40665, Note_on_c, 0, 75, 0
2, 40665, Note_on_c, 0, 74, 100
2, 40680, Note_on_c, 0, 74, 0
2, 40680, Note_on_c, 0, 75, 100
2, 40740, Note_on_c, 0, 75, 0
2, 40740, Note_on_c, 0, 79, 100
2, 40795, Note_on_c, 0, 67, 100
2, 40800, Note_on_c, 0, 79, 0
2, 40800, Note_on_c, 0, 70, 100
2, 41035, Note_on_c, 0, 67, 0
2, 41035, Note_on_c, 0, 70, 100
2, 41040, Note_on_c, 0, 70, 0
2, 41109, Note_on_c, 0, 70, 0
2, 41110, Note_on_c, 0, 72, 100
2, 41125, Note_on_c, 0, 72, 0
2, 41125, Note_on_c, 0, 70, 100
2, 41140, Note_on_c, 0, 70, 0
2, 41145, Note_on_c, 0, 69, 100
2, 41155, Note_on_c, 0, 70, 100
2, 41160, Note_on_c, 0, 69, 0
2, 41215, Note_on_c, 0, 70, 0
2, 41215, Note_on_c, 0, 75, 100
2, 41275, Note_on_c, 0, 75, 0
2, 41275, Note_on_c, 0, 67, 100
2, 41280, Note_on_c, 0, 63, 100
2, 41515, Note_on_c, 0, 67, 0
2, 41515, Note_on_c, 0, 70, 100
2, 41520, Note_on_c, 0, 63, 0
2, 41575, Note_on_c, 0, 70, 0
2, 41575, Note_on_c, 0, 67, 100
2, 41635, Note_on_c, 0, 67, 0
2, 41635, Note_on_c, 0, 72, 100
2, 41695, Note_on_c, 0, 72, 0
2, 41695, Note_on_c, 0, 70, 100
2, 41755, Note_on_c, 0, 70, 0
2, 41755, Note_on_c, 0, 68, 100
2, 41815, Note_on_c, 0, 68, 0
2, 41815, Note_on_c, 0, 67, 100
2, 41875, Note_on_c, 0, 67, 0
2, 41875, Note_on_c, 0, 65, 100
2, 41935, Note_on_c, 0, 65, 0
2, 41935, Note_on_c, 0, 63, 100
2, 41995, Note_on_c, 0, 63, 0
2, 41995, Note_on_c, 0, 62, 100
2, 42055, Note_on_c, 0, 62, 0
2, 42055, Note_on_c, 0, 63, 100
2, 42115, Note_on_c, 0, 63, 0
2, 42115, Note_on_c, 0, 65, 100
2, 42175, Note_on_c, 0, 65, 0
2, 42180, Note_on_c, 0, 63, 100
2, 42240, Note_on_c, 0, 63, 0
2, 42240, Note_on_c, 0, 62, 100
2, 42300, Note_on_c, 0, 62, 0
2, 42300, Note_on_c, 0, 60, 100
2, 42360, Note_on_c, 0, 60, 0
2, 42360, Note_on_c, 0, 58, 100
2, 42420, Note_on_c, 0, 58, 0
2, 42420, Note_on_c, 0, 56, 100
2, 42480, Note_on_c, 0, 56, 0
2, 42480, Note_on_c, 0, 55, 100
2, 42600, Note_on_c, 0, 55, 0
2, 42600, Note_on_c, 0, 70, 100
2, 42600, Note_on_c, 0, 58, 100
2, 42720, Note_on_c, 0, 58, 0
2, 42720, Note_on_c, 0, 70, 0
2, 42720, Note_on_c, 0, 60, 76
2, 42779, Note_on_c, 0, 60, 0
2, 42780, Note_on_c, 0, 72, 76
2, 42839, Note_on_c, 0, 72, 0
2, 42840, Note_on_c, 0, 63, 100
2, 42840, Note_on_c, 0, 72, 100
2, 42960, Note_on_c, 0, 72, 0
2, 42960, Note_on_c, 0, 63, 0
2, 42960, Note_on_c, 0, 62, 77
2, 43079, Note_on_c, 0, 62, 0
2, 43080, Note_on_c, 0, 74, 78
2, 43080, Note_on_c, 0, 65, 78
2, 43199, Note_on_c, 0, 65, 0
2, 43199, Note_on_c, 0, 74, 0
2, 43200, Note_on_c, 0, 63, 78
2, 43259, Note_on_c, 0, 63, 0
2, 43260, Note_on_c, 0, 75, 79
2, 43319, Note_on_c, 0, 75, 0
2, 43320, Note_on_c, 0, 75, 100
2, 43320, Note_on_c, 0, 67, 100
2, 43440, Note_on_c, 0, 67, 0
2, 43440, Note_on_c, 0, 75, 0
2, 43440, Note_on_c, 0, 65, 80
2, 43559, Note_on_c, 0, 65, 0
2, 43560, Note_on_c, 0, 68, 80
2, 43560, Note_on_c, 0, 77, 80
2, 43679, Note_on_c, 0, 77, 0
2, 43679, Note_on_c, 0, 68, 0
2, 43680, Note_on_c, 0, 67, 79
2, 43739, Note_on_c, 0, 67, 0
2, 43740, Note_on_c, 0, 79, 79
2, 43799, Note_on_c, 0, 79, 0
2, 43800, Note_on_c, 0, 70, 100
2, 43800, Note_on_c, 0, 79, 100
2, 43920, Note_on_c, 0, 79, 0
2, 43920, Note_on_c, 0, 70, 0
2, 43920, Note_on_c, 0, 68, 80
2, 43979, Note_on_c, 0, 68, 0
2, 43980, Note_on_c, 0, 80, 80
2, 44039, Note_on_c, 0, 80, 0
2, 44040, Note_on_c, 0, 77, 80
2, 44099, Note_on_c, 0, 77, 0
2, 44100, Note_on_c, 0, 74, 80
2, 44159, Note_on_c, 0, 74, 0
2, 44160, Note_on_c, 0, 75, 80
2, 44219, Note_on_c, 0, 75, 0
2, 44220, Note_on_c, 0, 79, 79
2, 44279, Note_on_c, 0, 79, 0
2, 44280, Note_on_c, 0, 75, 80
2, 44339, Note_on_c, 0, 75, 0
2, 44340, Note_on_c, 0, 70, 80
2, 44399, Note_on_c, 0, 70, 0
2, 44400, Note_on_c, 0, 67, 80
2, 44520, Note_on_c, 0, 67, 0
2, 44520, Note_on_c, 0, 70, 80
2, 44520, Note_on_c, 0, 58, 80
2, 44640, Note_on_c, 0, 58, 0
2, 44640, Note_on_c, 0, 70, 0
2, 44640, Note_on_c, 0, 60, 85
2, 44699, Note_on_c, 0, 60, 0
2, 44700, Note_on_c, 0, 72, 85
2, 44759, Note_on_c, 0, 72, 0
2, 44760, Note_on_c, 0, 72, 80
2, 44760, Note_on_c, 0, 63, 80
2, 44880, Note_on_c, 0, 63, 0
2, 44880, Note_on_c, 0, 72, 0
2, 44880, Note_on_c, 0, 62, 85
2, 44999, Note_on_c, 0, 62, 0
2, 45000, Note_on_c, 0, 74, 85
2, 45000, Note_on_c, 0, 65, 85
2, 45119, Note_on_c, 0, 65, 0
2, 45119, Note_on_c, 0, 74, 0
2, 45120, Note_on_c, 0, 63, 85
2, 45179, Note_on_c, 0, 63, 0
2, 45180, Note_on_c, 0, 75, 85
2, 45239, Note_on_c, 0, 75, 0
2, 45240, Note_on_c, 0, 67, 80
2, 45240, Note_on_c, 0, 75, 80
2, 45360, Note_on_c, 0, 75, 0
2, 45360, Note_on_c, 0, 67, 0
2, 45360, Note_on_c, 0, 65, 85
2, 45479, Note_on_c, 0, 65, 0
2, 45480, Note_on_c, 0, 77, 85
2, 45480, Note_on_c, 0, 68, 85
2, 45599, Note_on_c, 0, 68, 0
2, 45599, Note_on_c, 0, 77, 0
2, 45600, Note_on_c, 0, 67, 85
2, 45659, Note_on_c, 0, 67, 0
2, 45660, Note_on_c, 0, 79, 85
2, 45719, Note_on_c, 0, 79, 0
2, 45720, Note_on_c, 0, 70, 80
2, 45720, Note_on_c, 0, 79, 80
2, 45840, Note_on_c, 0, 79, 0
2, 45840, Note_on_c, 0, 70, 0
2, 45840, Note_on_c, 0, 68, 80
2, 45900, Note_on_c, 0, 68, 0
2, 45900, Note_on_c, 0, 80, 80
2, 45960, Note_on_c, 0, 80, 0
2, 45960, Note_on_c, 0, 77, 80
2, 46020, Note_on_c, 0, 77, 0
2, 46020, Note_on_c, 0, 74, 80
2, 46080, Note_on_c, 0, 74, 0
2, 46080, Note_on_c, 0, 75, 80
2, 46200, Note_on_c, 0, 75, 0
2, 46200, End_track
3, 0, Start_track
3, 0, Title_t, "Left Hand"
3, 0, Control_c, 1, 0, 0
3, 0, Control_c, 1, 7, 127
3, 0, Control_c, 1, 10, 40
3, 0, Control_c, 1, 93, 33
3, 0, Control_c, 1, 91, 37
3, 0, Control_c, 1, 6, 2
3, 0, Control_c, 1, 11, 127
3, 0, Control_c, 1, 1, 0
3, 0, Pitch_bend_c, 1, 8192
3, 0, Control_c, 1, 32, 0
3, 0, Program_c, 1, 0
3, 240, Note_on_c, 1, 51, 78
3, 360, Note_on_c, 1, 51, 0
3, 360, Note_on_c, 1, 58, 78
3, 360, Note_on_c, 1, 55, 78
3, 480, Note_on_c, 1, 55, 0
3, 480, Note_on_c, 1, 58, 0
3, 480, Note_on_c, 1, 51, 78
3, 600, Note_on_c, 1, 51, 0
3, 600, Note_on_c, 1, 58, 78
3, 600, Note_on_c, 1, 55, 78
3, 720, Note_on_c, 1, 55, 0
3, 720, Note_on_c, 1, 58, 0
3, 720, Note_on_c, 1, 51, 78
3, 840, Note_on_c, 1, 51, 0
3, 840, Note_on_c, 1, 58, 78
3, 840, Note_on_c, 1, 55, 78
3, 960, Note_on_c, 1, 55, 0
3, 960, Note_on_c, 1, 58, 0
3, 960, Note_on_c, 1, 51, 78
3, 1080, Note_on_c, 1, 51, 0
3, 1080, Note_on_c, 1, 58, 86
3, 1080, Note_on_c, 1, 55, 86
3, 1200, Note_on_c, 1, 55, 0
3, 1200, Note_on_c, 1, 58, 0
3, 1200, Note_on_c, 1, 46, 86
3, 1320, Note_on_c, 1, 46, 0
3, 1320, Note_on_c, 1, 53, 86
3, 1320, Note_on_c, 1, 58, 86
3, 1440, Note_on_c, 1, 58, 0
3, 1440, Note_on_c, 1, 53, 0
3, 1440, Note_on_c, 1, 46, 86
3, 1560, Note_on_c, 1, 46, 0
3, 1560, Note_on_c, 1, 58, 86
3, 1560, Note_on_c, 1, 55, 86
3, 1680, Note_on_c, 1, 55, 0
3, 1680, Note_on_c, 1, 58, 0
3, 1680, Note_on_c, 1, 46, 86
3, 1800, Note_on_c, 1, 46, 0
3, 1800, Note_on_c, 1, 58, 86
3, 1800, Note_on_c, 1, 56, 86
3, 1920, Note_on_c, 1, 56, 0
3, 1920, Note_on_c, 1, 58, 0
3, 1920, Note_on_c, 1, 46, 86
3, 2040, Note_on_c, 1, 46, 0
3, 2040, Note_on_c, 1, 62, 86
3, 2040, Note_on_c, 1, 58, 86
3, 2160, Note_on_c, 1, 58, 0
3, 2160, Note_on_c, 1, 62, 0
3, 2160, Note_on_c, 1, 51, 86
3, 2280, Note_on_c, 1, 51, 0
3, 2280, Note_on_c, 1, 55, 86
3, 2280, Note_on_c, 1, 58, 86
3, 2400, Note_on_c, 1, 58, 0
3, 2400, Note_on_c, 1, 55, 0
3, 2400, Note_on_c, 1, 51, 86
3, 2520, Note_on_c, 1, 51, 0
3, 2520, Note_on_c, 1, 58, 86
3, 2520, Note_on_c, 1, 55, 86
3, 2640, Note_on_c, 1, 55, 0
3, 2640, Note_on_c, 1, 58, 0
3, 2640, Note_on_c, 1, 51, 86
3, 2760, Note_on_c, 1, 51, 0
3, 2760, Note_on_c, 1, 58, 100
3, 2760, Note_on_c, 1, 55, 100
3, 2880, Note_on_c, 1, 55, 0
3, 2880, Note_on_c, 1, 58, 0
3, 2880, Note_on_c, 1, 51, 93
3, 3000, Note_on_c, 1, 51, 0
3, 3000, Note_on_c, 1, 55, 93
3, 3000, Note_on_c, 1, 58, 93
3, 3120, Note_on_c, 1, 58, 0
3, 3120, Note_on_c, 1, 55, 0
3, 3120, Note_on_c, 1, 46, 92
3, 3240, Note_on_c, 1, 46, 0
3, 3240, Note_on_c, 1, 58, 92
3, 3240, Note_on_c, 1, 53, 92
3, 3360, Note_on_c, 1, 53, 0
3, 3360, Note_on_c, 1, 58, 0
3, 3360, Note_on_c, 1, 46, 92
3, 3480, Note_on_c, 1, 46, 0
3, 3480, Note_on_c, 1, 58, 92
3, 3480, Note_on_c, 1, 55, 92
3, 3600, Note_on_c, 1, 55, 0
3, 3600, Note_on_c, 1, 58, 0
3, 3600, Note_on_c, 1, 46, 92
3, 3720, Note_on_c, 1, 46, 0
3, 3720, Note_on_c, 1, 56, 92
3, 3720, Note_on_c, 1, 58, 92
3, 3840, Note_on_c, 1, 58, 0
3, 3840, Note_on_c, 1, 56, 0
3, 3840, Note_on_c, 1, 46, 92
3, 3960, Note_on_c, 1, 46, 0
3, 3960, Note_on_c, 1, 58, 92
3, 4080, Note_on_c, 1, 58, 0
3, 4080, Note_on_c, 1, 43, 92
3, 4200, Note_on_c, 1, 43, 0
3, 4200, Note_on_c, 1, 31, 92
3, 4320, Note_on_c, 1, 31, 0
3, 4320, Note_on_c, 1, 32, 92
3, 4440, Note_on_c, 1, 32, 0
3, 4440, Note_on_c, 1, 44, 92
3, 4560, Note_on_c, 1, 44, 0
3, 4560, Note_on_c, 1, 46, 92
3, 4680, Note_on_c, 1, 46, 0
3, 4680, Note_on_c, 1, 34, 92
3, 4800, Note_on_c, 1, 34, 0
3, 4800, Note_on_c, 1, 36, 92
3, 4920, Note_on_c, 1, 36, 0
3, 4920, Note_on_c, 1, 48, 92
3, 5040, Note_on_c, 1, 48, 0
3, 5040, Note_on_c, 1, 50, 92
3, 5160, Note_on_c, 1, 50, 0
3, 5160, Note_on_c, 1, 38, 90
3, 5280, Note_on_c, 1, 38, 0
3, 5280, Note_on_c, 1, 39, 88
3, 5400, Note_on_c, 1, 39, 0
3, 5400, Note_on_c, 1, 51, 88
3, 5520, Note_on_c, 1, 51, 0
3, 5520, Note_on_c, 1, 46, 88
3, 5640, Note_on_c, 1, 46, 0
3, 5640, Note_on_c, 1, 34, 87
3, 5760, Note_on_c, 1, 34, 0
3, 5760, Note_on_c, 1, 39, 87
3, 5880, Note_on_c, 1, 39, 0
3, 5880, Note_on_c, 1, 51, 80
3, 6000, Note_on_c, 1, 51, 0
3, 6000, Note_on_c, 1, 39, 80
3, 6000, Note_on_c, 1, 51, 80
3, 6120, Note_on_c, 1, 51, 0
3, 6120, Note_on_c, 1, 39, 0
3, 6120, Note_on_c, 1, 55, 80
3, 6120, Note_on_c, 1, 43, 80
3, 6240, Note_on_c, 1, 43, 0
3, 6240, Note_on_c, 1, 55, 0
3, 6240, Note_on_c, 1, 44, 80
3, 6360, Note_on_c, 1, 44, 0
3, 6360, Note_on_c, 1, 51, 80
3, 6360, Note_on_c, 1, 56, 80
3, 6480, Note_on_c, 1, 56, 0
3, 6480, Note_on_c, 1, 51, 0
3, 6480, Note_on_c, 1, 46, 80
3, 6600, Note_on_c, 1, 46, 0
3, 6600, Note_on_c, 1, 58, 80
3, 6600, Note_on_c, 1, 53, 80
3, 6720, Note_on_c, 1, 53, 0
3, 6720, Note_on_c, 1, 58, 0
3, 6720, Note_on_c, 1, 48, 80
3, 6840, Note_on_c, 1, 48, 0
3, 6840, Note_on_c, 1, 60, 80
3, 6840, Note_on_c, 1, 55, 80
3, 6960, Note_on_c, 1, 55, 0
3, 6960, Note_on_c, 1, 60, 0
3, 6960, Note_on_c, 1, 50, 100
3, 7080, Note_on_c, 1, 50, 0
3, 7080, Note_on_c, 1, 62, 100
3, 7080, Note_on_c, 1, 58, 100
3, 7200, Note_on_c, 1, 58, 0
3, 7200, Note_on_c, 1, 62, 0
3, 7200, Note_on_c, 1, 51, 80
3, 7320, Note_on_c, 1, 51, 0
3, 7320, Note_on_c, 1, 63, 80
3, 7320, Note_on_c, 1, 58, 80
3, 7440, Note_on_c, 1, 58, 0
3, 7440, Note_on_c, 1, 63, 0
3, 7440, Note_on_c, 1, 46, 80
3, 7560, Note_on_c, 1, 46, 0
3, 7560, Note_on_c, 1, 58, 80
3, 7680, Note_on_c, 1, 58, 0
3, 7680, Note_on_c, 1, 51, 80
3, 7800, Note_on_c, 1, 51, 0
3, 7800, Note_on_c, 1, 39, 80
3, 7920, Note_on_c, 1, 39, 0
3, 7920, Note_on_c, 1, 51, 52
3, 8039, Note_on_c, 1, 51, 0
3, 8040, Note_on_c, 1, 58, 56
3, 8040, Note_on_c, 1, 55, 56
3, 8159, Note_on_c, 1, 55, 0
3, 8159, Note_on_c, 1, 58, 0
3, 8160, Note_on_c, 1, 51, 52
3, 8279, Note_on_c, 1, 51, 0
3, 8280, Note_on_c, 1, 58, 51
3, 8280, Note_on_c, 1, 55, 51
3, 8399, Note_on_c, 1, 55, 0
3, 8399, Note_on_c, 1, 58, 0
3, 8400, Note_on_c, 1, 51, 51
3, 8519, Note_on_c, 1, 51, 0
3, 8520, Note_on_c, 1, 55, 52
3, 8520, Note_on_c, 1, 58, 52
3, 8639, Note_on_c, 1, 58, 0
3, 8639, Note_on_c, 1, 55, 0
3, 8640, Note_on_c, 1, 51, 54
3, 8759, Note_on_c, 1, 51, 0
3, 8760, Note_on_c, 1, 58, 52
3, 8760, Note_on_c, 1, 55, 52
3, 8879, Note_on_c, 1, 55, 0
3, 8879, Note_on_c, 1, 58, 0
3, 8880, Note_on_c, 1, 51, 50
3, 8999, Note_on_c, 1, 51, 0
3, 9000, Note_on_c, 1, 55, 50
3, 9000, Note_on_c, 1, 58, 50
3, 9119, Note_on_c, 1, 58, 0
3, 9119, Note_on_c, 1, 55, 0
3, 9120, Note_on_c, 1, 51, 56
3, 9239, Note_on_c, 1, 51, 0
3, 9240, Note_on_c, 1, 58, 53
3, 9240, Note_on_c, 1, 55, 53
3, 9359, Note_on_c, 1, 55, 0
3, 9359, Note_on_c, 1, 58, 0
3, 9360, Note_on_c, 1, 46, 51
3, 9479, Note_on_c, 1, 46, 0
3, 9480, Note_on_c, 1, 53, 52
3, 9480, Note_on_c, 1, 58, 52
3, 9599, Note_on_c, 1, 58, 0
3, 9599, Note_on_c, 1, 53, 0
3, 9600, Note_on_c, 1, 46, 53
3, 9719, Note_on_c, 1, 46, 0
3, 9720, Note_on_c, 1, 53, 52
3, 9720, Note_on_c, 1, 58, 52
3, 9839, Note_on_c, 1, 58, 0
3, 9839, Note_on_c, 1, 53, 0
3, 9840, Note_on_c, 1, 51, 50
3, 9959, Note_on_c, 1, 51, 0
3, 9960, Note_on_c, 1, 58, 49
3, 9960, Note_on_c, 1, 55, 49
3, 10079, Note_on_c, 1, 55, 0
3, 10079, Note_on_c, 1, 58, 0
3, 10080, Note_on_c, 1, 51, 53
3, 10199, Note_on_c, 1, 51, 0
3, 10200, Note_on_c, 1, 58, 54
3, 10200, Note_on_c, 1, 55, 54
3, 10319, Note_on_c, 1, 55, 0
3, 10319, Note_on_c, 1, 58, 0
3, 10320, Note_on_c, 1, 51, 56
3, 10439, Note_on_c, 1, 51, 0
3, 10440, Note_on_c, 1, 55, 57
3, 10440, Note_on_c, 1, 58, 57
3, 10559, Note_on_c, 1, 58, 0
3, 10559, Note_on_c, 1, 55, 0
3, 10560, Note_on_c, 1, 51, 53
3, 10679, Note_on_c, 1, 51, 0
3, 10680, Note_on_c, 1, 55, 53
3, 10680, Note_on_c, 1, 58, 53
3, 10799, Note_on_c, 1, 58, 0
3, 10799, Note_on_c, 1, 55, 0
3, 10800, Note_on_c, 1, 51, 53
3, 10919, Note_on_c, 1, 51, 0
3, 10920, Note_on_c, 1, 58, 53
3, 10920, Note_on_c, 1, 55, 53
3, 11039, Note_on_c, 1, 55, 0
3, 11039, Note_on_c, 1, 58, 0
3, 11040, Note_on_c, 1, 46, 53
3, 11159, Note_on_c, 1, 46, 0
3, 11160, Note_on_c, 1, 58, 51
3, 11160, Note_on_c, 1, 53, 54
3, 11279, Note_on_c, 1, 53, 0
3, 11280, Note_on_c, 1, 58, 0
3, 11280, Note_on_c, 1, 46, 54
3, 11399, Note_on_c, 1, 46, 0
3, 11400, Note_on_c, 1, 53, 52
3, 11400, Note_on_c, 1, 58, 52
3, 11519, Note_on_c, 1, 58, 0
3, 11519, Note_on_c, 1, 53, 0
3, 11520, Note_on_c, 1, 46, 51
3, 11639, Note_on_c, 1, 46, 0
3, 11640, Note_on_c, 1, 53, 51
3, 11640, Note_on_c, 1, 58, 51
3, 11759, Note_on_c, 1, 58, 0
3, 11759, Note_on_c, 1, 53, 0
3, 11760, Note_on_c, 1, 43, 51
3, 11880, Note_on_c, 1, 43, 0
3, 11880, Note_on_c, 1, 31, 51
3, 12000, Note_on_c, 1, 31, 0
3, 12000, Note_on_c, 1, 32, 100
3, 12120, Note_on_c, 1, 32, 0
3, 12120, Note_on_c, 1, 44, 100
3, 12240, Note_on_c, 1, 44, 0
3, 12240, Note_on_c, 1, 46, 100
3, 12360, Note_on_c, 1, 46, 0
3, 12360, Note_on_c, 1, 34, 100
3, 12480, Note_on_c, 1, 34, 0
3, 12480, Note_on_c, 1, 36, 100
3, 12600, Note_on_c, 1, 36, 0
3, 12600, Note_on_c, 1, 48, 100
3, 12720, Note_on_c, 1, 48, 0
3, 12720, Note_on_c, 1, 50, 100
3, 12840, Note_on_c, 1, 50, 0
3, 12840, Note_on_c, 1, 38, 100
3, 12960, Note_on_c, 1, 38, 0
3, 12960, Note_on_c, 1, 39, 100
3, 13080, Note_on_c, 1, 39, 0
3, 13080, Note_on_c, 1, 51, 100
3, 13200, Note_on_c, 1, 51, 0
3, 13200, Note_on_c, 1, 46, 100
3, 13320, Note_on_c, 1, 46, 0
3, 13320, Note_on_c, 1, 34, 100
3, 13440, Note_on_c, 1, 34, 0
3, 13440, Note_on_c, 1, 39, 80
3, 13560, Note_on_c, 1, 39, 0
3, 13560, Note_on_c, 1, 51, 80
3, 13680, Note_on_c, 1, 51, 0
3, 13680, Note_on_c, 1, 39, 80
3, 13680, Note_on_c, 1, 51, 80
3, 13800, Note_on_c, 1, 51, 0
3, 13800, Note_on_c, 1, 39, 0
3, 13800, Note_on_c, 1, 55, 80
3, 13800, Note_on_c, 1, 43, 80
3, 13920, Note_on_c, 1, 43, 0
3, 13920, Note_on_c, 1, 55, 0
3, 13920, Note_on_c, 1, 44, 80
3, 14040, Note_on_c, 1, 44, 0
3, 14040, Note_on_c, 1, 51, 80
3, 14040, Note_on_c, 1, 56, 80
3, 14160, Note_on_c, 1, 56, 0
3, 14160, Note_on_c, 1, 51, 0
3, 14160, Note_on_c, 1, 46, 80
3, 14280, Note_on_c, 1, 46, 0
3, 14280, Note_on_c, 1, 58, 80
3, 14280, Note_on_c, 1, 53, 80
3, 14400, Note_on_c, 1, 53, 0
3, 14400, Note_on_c, 1, 58, 0
3, 14400, Note_on_c, 1, 48, 80
3, 14520, Note_on_c, 1, 48, 0
3, 14520, Note_on_c, 1, 60, 80
3, 14520, Note_on_c, 1, 55, 80
3, 14640, Note_on_c, 1, 55, 0
3, 14640, Note_on_c, 1, 60, 0
3, 14640, Note_on_c, 1, 50, 100
3, 14760, Note_on_c, 1, 50, 0
3, 14760, Note_on_c, 1, 62, 100
3, 14760, Note_on_c, 1, 58, 100
3, 14880, Note_on_c, 1, 58, 0
3, 14880, Note_on_c, 1, 62, 0
3, 14880, Note_on_c, 1, 51, 80
3, 15000, Note_on_c, 1, 51, 0
3, 15000, Note_on_c, 1, 63, 80
3, 15000, Note_on_c, 1, 58, 80
3, 15120, Note_on_c, 1, 58, 0
3, 15120, Note_on_c, 1, 63, 0
3, 15120, Note_on_c, 1, 46, 80
3, 15240, Note_on_c, 1, 46, 0
3, 15240, Note_on_c, 1, 58, 80
3, 15360, Note_on_c, 1, 58, 0
3, 15360, Note_on_c, 1, 51, 79
3, 15480, Note_on_c, 1, 51, 0
3, 15480, Note_on_c, 1, 39, 72
3, 15600, Note_on_c, 1, 39, 0
3, 15600, Note_on_c, 1, 39, 51
3, 15720, Note_on_c, 1, 39, 0
3, 15720, Note_on_c, 1, 55, 51
3, 15720, Note_on_c, 1, 51, 51
3, 15840, Note_on_c, 1, 51, 0
3, 15840, Note_on_c, 1, 55, 0
3, 15840, Note_on_c, 1, 39, 51
3, 15960, Note_on_c, 1, 39, 0
3, 15960, Note_on_c, 1, 55, 51
3, 15960, Note_on_c, 1, 51, 51
3, 16080, Note_on_c, 1, 51, 0
3, 16080, Note_on_c, 1, 55, 0
3, 16080, Note_on_c, 1, 39, 51
3, 16200, Note_on_c, 1, 39, 0
3, 16200, Note_on_c, 1, 56, 51
3, 16200, Note_on_c, 1, 51, 51
3, 16320, Note_on_c, 1, 51, 0
3, 16320, Note_on_c, 1, 56, 0
3, 16320, Note_on_c, 1, 39, 51
3, 16440, Note_on_c, 1, 39, 0
3, 16440, Note_on_c, 1, 55, 51
3, 16440, Note_on_c, 1, 51, 51
3, 16560, Note_on_c, 1, 51, 0
3, 16560, Note_on_c, 1, 55, 0
3, 16560, Note_on_c, 1, 34, 51
3, 16680, Note_on_c, 1, 34, 0
3, 16680, Note_on_c, 1, 50, 51
3, 16680, Note_on_c, 1, 46, 51
3, 16800, Note_on_c, 1, 46, 0
3, 16800, Note_on_c, 1, 50, 0
3, 16800, Note_on_c, 1, 34, 51
3, 16920, Note_on_c, 1, 34, 0
3, 16920, Note_on_c, 1, 50, 51
3, 16920, Note_on_c, 1, 46, 51
3, 17040, Note_on_c, 1, 46, 0
3, 17040, Note_on_c, 1, 50, 0
3, 17040, Note_on_c, 1, 34, 51
3, 17160, Note_on_c, 1, 34, 0
3, 17160, Note_on_c, 1, 50, 51
3, 17160, Note_on_c, 1, 46, 51
3, 17280, Note_on_c, 1, 46, 0
3, 17280, Note_on_c, 1, 50, 0
3, 17280, Note_on_c, 1, 34, 62
3, 17400, Note_on_c, 1, 34, 0
3, 17400, Note_on_c, 1, 50, 63
3, 17400, Note_on_c, 1, 46, 63
3, 17520, Note_on_c, 1, 46, 0
3, 17520, Note_on_c, 1, 50, 0
3, 17520, Note_on_c, 1, 39, 67
3, 17640, Note_on_c, 1, 39, 0
3, 17640, Note_on_c, 1, 51, 68
3, 17640, Note_on_c, 1, 55, 68
3, 17760, Note_on_c, 1, 55, 0
3, 17760, Note_on_c, 1, 51, 0
3, 17760, Note_on_c, 1, 39, 68
3, 17880, Note_on_c, 1, 39, 0
3, 17880, Note_on_c, 1, 51, 69
3, 17880, Note_on_c, 1, 55, 69
3, 18000, Note_on_c, 1, 55, 0
3, 18000, Note_on_c, 1, 51, 0
3, 18000, Note_on_c, 1, 39, 70
3, 18120, Note_on_c, 1, 39, 0
3, 18120, Note_on_c, 1, 56, 71
3, 18120, Note_on_c, 1, 51, 71
3, 18240, Note_on_c, 1, 51, 0
3, 18240, Note_on_c, 1, 56, 0
3, 18240, Note_on_c, 1, 39, 76
3, 18360, Note_on_c, 1, 39, 0
3, 18360, Note_on_c, 1, 55, 76
3, 18360, Note_on_c, 1, 51, 76
3, 18480, Note_on_c, 1, 51, 0
3, 18480, Note_on_c, 1, 55, 0
3, 18480, Note_on_c, 1, 34, 78
3, 18600, Note_on_c, 1, 34, 0
3, 18600, Note_on_c, 1, 50, 80
3, 18600, Note_on_c, 1, 46, 80
3, 18720, Note_on_c, 1, 46, 0
3, 18720, Note_on_c, 1, 50, 0
3, 18720, Note_on_c, 1, 34, 85
3, 18840, Note_on_c, 1, 34, 0
3, 18840, Note_on_c, 1, 50, 86
3, 18840, Note_on_c, 1, 46, 86
3, 18960, Note_on_c, 1, 46, 0
3, 18960, Note_on_c, 1, 50, 0
3, 18960, Note_on_c, 1, 34, 87
3, 19080, Note_on_c, 1, 34, 0
3, 19080, Note_on_c, 1, 46, 91
3, 19200, Note_on_c, 1, 46, 0
3, 19200, Note_on_c, 1, 34, 92
3, 19320, Note_on_c, 1, 34, 0
3, 19320, Note_on_c, 1, 46, 98
3, 19440, Note_on_c, 1, 46, 0
3, 19440, Note_on_c, 1, 43, 102
3, 19560, Note_on_c, 1, 43, 0
3, 19560, Note_on_c, 1, 31, 104
3, 19680, Note_on_c, 1, 31, 0
3, 19680, Note_on_c, 1, 32, 100
3, 19800, Note_on_c, 1, 32, 0
3, 19800, Note_on_c, 1, 44, 100
3, 19920, Note_on_c, 1, 44, 0
3, 19920, Note_on_c, 1, 46, 100
3, 20040, Note_on_c, 1, 46, 0
3, 20040, Note_on_c, 1, 34, 100
3, 20160, Note_on_c, 1, 34, 0
3, 20160, Note_on_c, 1, 36, 100
3, 20280, Note_on_c, 1, 36, 0
3, 20280, Note_on_c, 1, 48, 100
3, 20400, Note_on_c, 1, 48, 0
3, 20400, Note_on_c, 1, 50, 100
3, 20520, Note_on_c, 1, 50, 0
3, 20520, Note_on_c, 1, 38, 100
3, 20640, Note_on_c, 1, 38, 0
3, 20640, Note_on_c, 1, 39, 100
3, 20760, Note_on_c, 1, 39, 0
3, 20760, Note_on_c, 1, 51, 100
3, 20880, Note_on_c, 1, 51, 0
3, 20880, Note_on_c, 1, 46, 100
3, 21000, Note_on_c, 1, 46, 0
3, 21000, Note_on_c, 1, 34, 100
3, 21120, Note_on_c, 1, 34, 0
3, 21120, Note_on_c, 1, 39, 80
3, 21240, Note_on_c, 1, 39, 0
3, 21240, Note_on_c, 1, 51, 80
3, 21360, Note_on_c, 1, 51, 0
3, 21360, Note_on_c, 1, 39, 80
3, 21360, Note_on_c, 1, 51, 80
3, 21480, Note_on_c, 1, 51, 0
3, 21480, Note_on_c, 1, 39, 0
3, 21480, Note_on_c, 1, 55, 80
3, 21480, Note_on_c, 1, 43, 80
3, 21600, Note_on_c, 1, 43, 0
3, 21600, Note_on_c, 1, 55, 0
3, 21600, Note_on_c, 1, 44, 80
3, 21720, Note_on_c, 1, 44, 0
3, 21720, Note_on_c, 1, 51, 80
3, 21720, Note_on_c, 1, 56, 80
3, 21840, Note_on_c, 1, 56, 0
3, 21840, Note_on_c, 1, 51, 0
3, 21840, Note_on_c, 1, 46, 80
3, 21960, Note_on_c, 1, 46, 0
3, 21960, Note_on_c, 1, 58, 80
3, 21960, Note_on_c, 1, 53, 80
3, 22080, Note_on_c, 1, 53, 0
3, 22080, Note_on_c, 1, 58, 0
3, 22080, Note_on_c, 1, 48, 80
3, 22200, Note_on_c, 1, 48, 0
3, 22200, Note_on_c, 1, 60, 80
3, 22200, Note_on_c, 1, 55, 80
3, 22320, Note_on_c, 1, 55, 0
3, 22320, Note_on_c, 1, 60, 0
3, 22320, Note_on_c, 1, 50, 80
3, 22440, Note_on_c, 1, 50, 0
3, 22440, Note_on_c, 1, 62, 80
3, 22440, Note_on_c, 1, 58, 80
3, 22560, Note_on_c, 1, 58, 0
3, 22560, Note_on_c, 1, 62, 0
3, 22560, Note_on_c, 1, 51, 80
3, 22680, Note_on_c, 1, 51, 0
3, 22680, Note_on_c, 1, 63, 80
3, 22680, Note_on_c, 1, 58, 80
3, 22800, Note_on_c, 1, 58, 0
3, 22800, Note_on_c, 1, 63, 0
3, 22800, Note_on_c, 1, 46, 80
3, 22920, Note_on_c, 1, 46, 0
3, 22920, Note_on_c, 1, 58, 80
3, 23040, Note_on_c, 1, 58, 0
3, 23040, Note_on_c, 1, 51, 79
3, 23160, Note_on_c, 1, 51, 0
3, 23160, Note_on_c, 1, 39, 72
3, 23280, Note_on_c, 1, 39, 0
3, 23280, Note_on_c, 1, 43, 100
3, 23400, Note_on_c, 1, 43, 0
3, 23400, Note_on_c, 1, 55, 100
3, 23520, Note_on_c, 1, 55, 0
3, 23520, Note_on_c, 1, 41, 100
3, 23640, Note_on_c, 1, 41, 0
3, 23640, Note_on_c, 1, 53, 100
3, 23760, Note_on_c, 1, 53, 0
3, 23760, Note_on_c, 1, 34, 100
3, 23880, Note_on_c, 1, 34, 0
3, 23880, Note_on_c, 1, 46, 100
3, 24000, Note_on_c, 1, 46, 0
3, 24000, Note_on_c, 1, 39, 100
3, 24120, Note_on_c, 1, 39, 0
3, 24120, Note_on_c, 1, 51, 100
3, 24240, Note_on_c, 1, 51, 0
3, 24240, Note_on_c, 1, 43, 100
3, 24360, Note_on_c, 1, 43, 0
3, 24360, Note_on_c, 1, 55, 100
3, 24480, Note_on_c, 1, 55, 0
3, 24480, Note_on_c, 1, 41, 100
3, 24600, Note_on_c, 1, 41, 0
3, 24600, Note_on_c, 1, 53, 100
3, 24720, Note_on_c, 1, 53, 0
3, 24720, Note_on_c, 1, 34, 100
3, 24840, Note_on_c, 1, 34, 0
3, 24840, Note_on_c, 1, 46, 100
3, 24960, Note_on_c, 1, 46, 0
3, 24960, Note_on_c, 1, 39, 100
3, 25080, Note_on_c, 1, 39, 0
3, 25080, Note_on_c, 1, 51, 100
3, 25200, Note_on_c, 1, 51, 0
3, 25200, Note_on_c, 1, 43, 100
3, 25320, Note_on_c, 1, 43, 0
3, 25320, Note_on_c, 1, 55, 100
3, 25440, Note_on_c, 1, 55, 0
3, 25440, Note_on_c, 1, 41, 100
3, 25560, Note_on_c, 1, 41, 0
3, 25560, Note_on_c, 1, 53, 100
3, 25680, Note_on_c, 1, 53, 0
3, 25680, Note_on_c, 1, 34, 100
3, 25800, Note_on_c, 1, 34, 0
3, 25800, Note_on_c, 1, 46, 100
3, 25920, Note_on_c, 1, 46, 0
3, 25920, Note_on_c, 1, 39, 100
3, 26040, Note_on_c, 1, 39, 0
3, 26040, Note_on_c, 1, 51, 100
3, 26160, Note_on_c, 1, 51, 0
3, 26160, Note_on_c, 1, 43, 100
3, 26280, Note_on_c, 1, 43, 0
3, 26280, Note_on_c, 1, 55, 100
3, 26400, Note_on_c, 1, 55, 0
3, 26400, Note_on_c, 1, 41, 100
3, 26520, Note_on_c, 1, 41, 0
3, 26520, Note_on_c, 1, 53, 100
3, 26640, Note_on_c, 1, 53, 0
3, 26640, Note_on_c, 1, 34, 100
3, 26760, Note_on_c, 1, 34, 0
3, 26760, Note_on_c, 1, 46, 100
3, 26880, Note_on_c, 1, 46, 0
3, 26880, Note_on_c, 1, 39, 100
3, 27000, Note_on_c, 1, 39, 0
3, 27000, Note_on_c, 1, 51, 100
3, 27120, Note_on_c, 1, 51, 0
3, 27120, Note_on_c, 1, 43, 100
3, 27240, Note_on_c, 1, 43, 0
3, 27240, Note_on_c, 1, 31, 100
3, 27360, Note_on_c, 1, 31, 0
3, 27360, Note_on_c, 1, 32, 92
3, 27480, Note_on_c, 1, 32, 0
3, 27480, Note_on_c, 1, 44, 92
3, 27600, Note_on_c, 1, 44, 0
3, 27600, Note_on_c, 1, 46, 92
3, 27720, Note_on_c, 1, 46, 0
3, 27720, Note_on_c, 1, 34, 92
3, 27840, Note_on_c, 1, 34, 0
3, 27840, Note_on_c, 1, 36, 92
3, 27960, Note_on_c, 1, 36, 0
3, 27960, Note_on_c, 1, 48, 92
3, 28080, Note_on_c, 1, 48, 0
3, 28080, Note_on_c, 1, 50, 92
3, 28200, Note_on_c, 1, 50, 0
3, 28200, Note_on_c, 1, 38, 90
3, 28320, Note_on_c, 1, 38, 0
3, 28320, Note_on_c, 1, 39, 88
3, 28440, Note_on_c, 1, 39, 0
3, 28440, Note_on_c, 1, 51, 88
3, 28560, Note_on_c, 1, 51, 0
3, 28560, Note_on_c, 1, 46, 88
3, 28680, Note_on_c, 1, 46, 0
3, 28680, Note_on_c, 1, 34, 87
3, 28800, Note_on_c, 1, 34, 0
3, 28800, Note_on_c, 1, 39, 87
3, 28920, Note_on_c, 1, 39, 0
3, 28920, Note_on_c, 1, 51, 80
3, 29040, Note_on_c, 1, 51, 0
3, 29040, Note_on_c, 1, 39, 80
3, 29040, Note_on_c, 1, 51, 80
3, 29160, Note_on_c, 1, 51, 0
3, 29160, Note_on_c, 1, 39, 0
3, 29160, Note_on_c, 1, 55, 80
3, 29160, Note_on_c, 1, 43, 80
3, 29280, Note_on_c, 1, 43, 0
3, 29280, Note_on_c, 1, 55, 0
3, 29280, Note_on_c, 1, 44, 80
3, 29400, Note_on_c, 1, 44, 0
3, 29400, Note_on_c, 1, 51, 80
3, 29400, Note_on_c, 1, 56, 80
3, 29520, Note_on_c, 1, 56, 0
3, 29520, Note_on_c, 1, 51, 0
3, 29520, Note_on_c, 1, 46, 80
3, 29640, Note_on_c, 1, 46, 0
3, 29640, Note_on_c, 1, 58, 80
3, 29640, Note_on_c, 1, 53, 80
3, 29760, Note_on_c, 1, 53, 0
3, 29760, Note_on_c, 1, 58, 0
3, 29760, Note_on_c, 1, 48, 80
3, 29880, Note_on_c, 1, 48, 0
3, 29880, Note_on_c, 1, 60, 80
3, 29880, Note_on_c, 1, 55, 80
3, 30000, Note_on_c, 1, 55, 0
3, 30000, Note_on_c, 1, 60, 0
3, 30000, Note_on_c, 1, 50, 80
3, 30120, Note_on_c, 1, 50, 0
3, 30120, Note_on_c, 1, 62, 80
3, 30120, Note_on_c, 1, 58, 80
3, 30240, Note_on_c, 1, 58, 0
3, 30240, Note_on_c, 1, 62, 0
3, 30240, Note_on_c, 1, 51, 80
3, 30360, Note_on_c, 1, 51, 0
3, 30360, Note_on_c, 1, 63, 80
3, 30360, Note_on_c, 1, 58, 80
3, 30480, Note_on_c, 1, 58, 0
3, 30480, Note_on_c, 1, 63, 0
3, 30480, Note_on_c, 1, 46, 80
3, 30600, Note_on_c, 1, 46, 0
3, 30600, Note_on_c, 1, 58, 80
3, 30720, Note_on_c, 1, 58, 0
3, 30720, Note_on_c, 1, 51, 80
3, 30840, Note_on_c, 1, 51, 0
3, 30840, Note_on_c, 1, 39, 80
3, 30960, Note_on_c, 1, 39, 0
3, 30960, Note_on_c, 1, 51, 100
3, 31080, Note_on_c, 1, 51, 0
3, 31080, Note_on_c, 1, 58, 100
3, 31080, Note_on_c, 1, 55, 100
3, 31200, Note_on_c, 1, 55, 0
3, 31200, Note_on_c, 1, 58, 0
3, 31200, Note_on_c, 1, 51, 100
3, 31320, Note_on_c, 1, 51, 0
3, 31320, Note_on_c, 1, 58, 100
3, 31320, Note_on_c, 1, 55, 100
3, 31440, Note_on_c, 1, 55, 0
3, 31440, Note_on_c, 1, 58, 0
3, 31440, Note_on_c, 1, 39, 100
3, 31560, Note_on_c, 1, 39, 0
3, 31560, Note_on_c, 1, 55, 100
3, 31560, Note_on_c, 1, 51, 100
3, 31680, Note_on_c, 1, 51, 0
3, 31680, Note_on_c, 1, 55, 0
3, 31680, Note_on_c, 1, 39, 100
3, 31800, Note_on_c, 1, 39, 0
3, 31800, Note_on_c, 1, 55, 100
3, 31800, Note_on_c, 1, 51, 100
3, 31920, Note_on_c, 1, 51, 0
3, 31920, Note_on_c, 1, 55, 0
3, 31920, Note_on_c, 1, 34, 100
3, 32040, Note_on_c, 1, 34, 0
3, 32040, Note_on_c, 1, 50, 100
3, 32040, Note_on_c, 1, 46, 100
3, 32160, Note_on_c, 1, 46, 0
3, 32160, Note_on_c, 1, 50, 0
3, 32160, Note_on_c, 1, 34, 100
3, 32280, Note_on_c, 1, 34, 0
3, 32280, Note_on_c, 1, 50, 100
3, 32280, Note_on_c, 1, 46, 100
3, 32400, Note_on_c, 1, 46, 0
3, 32400, Note_on_c, 1, 50, 0
3, 32400, Note_on_c, 1, 34, 100
3, 32520, Note_on_c, 1, 34, 0
3, 32520, Note_on_c, 1, 50, 100
3, 32520, Note_on_c, 1, 46, 100
3, 32640, Note_on_c, 1, 46, 0
3, 32640, Note_on_c, 1, 50, 0
3, 32640, Note_on_c, 1, 34, 100
3, 32760, Note_on_c, 1, 34, 0
3, 32760, Note_on_c, 1, 50, 100
3, 32760, Note_on_c, 1, 46, 100
3, 32880, Note_on_c, 1, 46, 0
3, 32880, Note_on_c, 1, 50, 0
3, 32880, Note_on_c, 1, 51, 100
3, 33000, Note_on_c, 1, 51, 0
3, 33000, Note_on_c, 1, 58, 100
3, 33000, Note_on_c, 1, 55, 100
3, 33120, Note_on_c, 1, 55, 0
3, 33120, Note_on_c, 1, 58, 0
3, 33120, Note_on_c, 1, 51, 100
3, 33240, Note_on_c, 1, 51, 0
3, 33240, Note_on_c, 1, 58, 100
3, 33240, Note_on_c, 1, 55, 100
3, 33360, Note_on_c, 1, 55, 0
3, 33360, Note_on_c, 1, 58, 0
3, 33360, Note_on_c, 1, 39, 100
3, 33480, Note_on_c, 1, 39, 0
3, 33480, Note_on_c, 1, 55, 100
3, 33480, Note_on_c, 1, 51, 100
3, 33600, Note_on_c, 1, 51, 0
3, 33600, Note_on_c, 1, 55, 0
3, 33600, Note_on_c, 1, 39, 100
3, 33720, Note_on_c, 1, 39, 0
3, 33720, Note_on_c, 1, 55, 100
3, 33720, Note_on_c, 1, 51, 100
3, 33840, Note_on_c, 1, 51, 0
3, 33840, Note_on_c, 1, 55, 0
3, 33840, Note_on_c, 1, 34, 100
3, 33960, Note_on_c, 1, 34, 0
3, 33960, Note_on_c, 1, 50, 100
3, 33960, Note_on_c, 1, 46, 100
3, 34080, Note_on_c, 1, 46, 0
3, 34080, Note_on_c, 1, 50, 0
3, 34080, Note_on_c, 1, 34, 100
3, 34200, Note_on_c, 1, 34, 0
3, 34200, Note_on_c, 1, 50, 100
3, 34200, Note_on_c, 1, 46, 100
3, 34320, Note_on_c, 1, 46, 0
3, 34320, Note_on_c, 1, 50, 0
3, 34320, Note_on_c, 1, 34, 100
3, 34440, Note_on_c, 1, 34, 0
3, 34440, Note_on_c, 1, 50, 100
3, 34440, Note_on_c, 1, 46, 100
3, 34560, Note_on_c, 1, 46, 0
3, 34560, Note_on_c, 1, 50, 0
3, 34560, Note_on_c, 1, 34, 100
3, 34680, Note_on_c, 1, 34, 0
3, 34680, Note_on_c, 1, 50, 100
3, 34680, Note_on_c, 1, 46, 100
3, 34800, Note_on_c, 1, 46, 0
3, 34800, Note_on_c, 1, 50, 0
3, 34800, Note_on_c, 1, 43, 100
3, 34920, Note_on_c, 1, 43, 0
3, 34920, Note_on_c, 1, 31, 100
3, 35040, Note_on_c, 1, 31, 0
3, 35040, Note_on_c, 1, 32, 92
3, 35160, Note_on_c, 1, 32, 0
3, 35160, Note_on_c, 1, 44, 92
3, 35280, Note_on_c, 1, 44, 0
3, 35280, Note_on_c, 1, 46, 92
3, 35400, Note_on_c, 1, 46, 0
3, 35400, Note_on_c, 1, 34, 92
3, 35520, Note_on_c, 1, 34, 0
3, 35520, Note_on_c, 1, 36, 92
3, 35640, Note_on_c, 1, 36, 0
3, 35640, Note_on_c, 1, 48, 92
3, 35760, Note_on_c, 1, 48, 0
3, 35760, Note_on_c, 1, 50, 92
3, 35880, Note_on_c, 1, 50, 0
3, 35880, Note_on_c, 1, 38, 90
3, 36000, Note_on_c, 1, 38, 0
3, 36000, Note_on_c, 1, 39, 88
3, 36120, Note_on_c, 1, 39, 0
3, 36120, Note_on_c, 1, 51, 88
3, 36240, Note_on_c, 1, 51, 0
3, 36240, Note_on_c, 1, 46, 88
3, 36360, Note_on_c, 1, 46, 0
3, 36360, Note_on_c, 1, 34, 87
3, 36480, Note_on_c, 1, 34, 0
3, 36480, Note_on_c, 1, 39, 87
3, 36600, Note_on_c, 1, 39, 0
3, 36600, Note_on_c, 1, 51, 80
3, 36720, Note_on_c, 1, 51, 0
3, 36720, Note_on_c, 1, 39, 80
3, 36720, Note_on_c, 1, 51, 80
3, 36840, Note_on_c, 1, 51, 0
3, 36840, Note_on_c, 1, 39, 0
3, 36840, Note_on_c, 1, 55, 80
3, 36840, Note_on_c, 1, 43, 80
3, 36960, Note_on_c, 1, 43, 0
3, 36960, Note_on_c, 1, 55, 0
3, 36960, Note_on_c, 1, 44, 80
3, 37080, Note_on_c, 1, 44, 0
3, 37080, Note_on_c, 1, 51, 80
3, 37080, Note_on_c, 1, 56, 80
3, 37200, Note_on_c, 1, 56, 0
3, 37200, Note_on_c, 1, 51, 0
3, 37200, Note_on_c, 1, 46, 80
3, 37320, Note_on_c, 1, 46, 0
3, 37320, Note_on_c, 1, 58, 80
3, 37320, Note_on_c, 1, 53, 80
3, 37440, Note_on_c, 1, 53, 0
3, 37440, Note_on_c, 1, 58, 0
3, 37440, Note_on_c, 1, 48, 80
3, 37560, Note_on_c, 1, 48, 0
3, 37560, Note_on_c, 1, 60, 80
3, 37560, Note_on_c, 1, 55, 80
3, 37680, Note_on_c, 1, 55, 0
3, 37680, Note_on_c, 1, 60, 0
3, 37680, Note_on_c, 1, 50, 80
3, 37800, Note_on_c, 1, 50, 0
3, 37800, Note_on_c, 1, 62, 80
3, 37800, Note_on_c, 1, 58, 80
3, 37920, Note_on_c, 1, 58, 0
3, 37920, Note_on_c, 1, 62, 0
3, 37920, Note_on_c, 1, 51, 80
3, 38040, Note_on_c, 1, 51, 0
3, 38040, Note_on_c, 1, 63, 80
3, 38040, Note_on_c, 1, 58, 80
3, 38160, Note_on_c, 1, 58, 0
3, 38160, Note_on_c, 1, 63, 0
3, 38160, Note_on_c, 1, 46, 80
3, 38280, Note_on_c, 1, 46, 0
3, 38280, Note_on_c, 1, 58, 80
3, 38400, Note_on_c, 1, 58, 0
3, 38400, Note_on_c, 1, 51, 80
3, 38520, Note_on_c, 1, 51, 0
3, 38520, Note_on_c, 1, 39, 80
3, 38640, Note_on_c, 1, 39, 0
3, 38640, Note_on_c, 1, 39, 100
3, 38760, Note_on_c, 1, 39, 0
3, 38760, Note_on_c, 1, 55, 100
3, 38760, Note_on_c, 1, 51, 100
3, 38880, Note_on_c, 1, 51, 0
3, 38880, Note_on_c, 1, 55, 0
3, 38880, Note_on_c, 1, 39, 100
3, 39000, Note_on_c, 1, 39, 0
3, 39000, Note_on_c, 1, 55, 100
3, 39000, Note_on_c, 1, 51, 100
3, 39120, Note_on_c, 1, 51, 0
3, 39120, Note_on_c, 1, 55, 0
3, 39120, Note_on_c, 1, 39, 100
3, 39240, Note_on_c, 1, 39, 0
3, 39240, Note_on_c, 1, 55, 100
3, 39240, Note_on_c, 1, 51, 100
3, 39360, Note_on_c, 1, 51, 0
3, 39360, Note_on_c, 1, 55, 0
3, 39360, Note_on_c, 1, 39, 100
3, 39480, Note_on_c, 1, 39, 0
3, 39480, Note_on_c, 1, 55, 100
3, 39480, Note_on_c, 1, 51, 100
3, 39600, Note_on_c, 1, 51, 0
3, 39600, Note_on_c, 1, 55, 0
3, 39600, Note_on_c, 1, 55, 100
3, 39660, Note_on_c, 1, 55, 0
3, 39660, Note_on_c, 1, 51, 100
3, 39720, Note_on_c, 1, 51, 0
3, 39720, Note_on_c, 1, 56, 100
3, 39780, Note_on_c, 1, 56, 0
3, 39780, Note_on_c, 1, 55, 100
3, 39840, Note_on_c, 1, 55, 0
3, 39840, Note_on_c, 1, 60, 100
3, 39900, Note_on_c, 1, 60, 0
3, 39900, Note_on_c, 1, 58, 100
3, 39960, Note_on_c, 1, 58, 0
3, 39960, Note_on_c, 1, 56, 100
3, 40020, Note_on_c, 1, 56, 0
3, 40020, Note_on_c, 1, 55, 100
3, 40080, Note_on_c, 1, 55, 0
3, 40080, Note_on_c, 1, 53, 100
3, 40140, Note_on_c, 1, 53, 0
3, 40140, Note_on_c, 1, 55, 100
3, 40200, Note_on_c, 1, 55, 0
3, 40200, Note_on_c, 1, 56, 100
3, 40260, Note_on_c, 1, 56, 0
3, 40260, Note_on_c, 1, 58, 100
3, 40320, Note_on_c, 1, 58, 0
3, 40320, Note_on_c, 1, 60, 100
3, 40380, Note_on_c, 1, 60, 0
3, 40380, Note_on_c, 1, 55, 100
3, 40440, Note_on_c, 1, 55, 0
3, 40440, Note_on_c, 1, 56, 100
3, 40500, Note_on_c, 1, 56, 0
3, 40500, Note_on_c, 1, 53, 100
3, 40555, Note_on_c, 1, 39, 100
3, 40560, Note_on_c, 1, 53, 0
3, 40675, Note_on_c, 1, 39, 0
3, 40675, Note_on_c, 1, 55, 100
3, 40675, Note_on_c, 1, 51, 100
3, 40795, Note_on_c, 1, 51, 0
3, 40795, Note_on_c, 1, 55, 0
3, 40795, Note_on_c, 1, 39, 100
3, 40915, Note_on_c, 1, 39, 0
3, 40915, Note_on_c, 1, 55, 100
3, 40915, Note_on_c, 1, 51, 100
3, 41035, Note_on_c, 1, 51, 0
3, 41035, Note_on_c, 1, 55, 0
3, 41035, Note_on_c, 1, 39, 100
3, 41155, Note_on_c, 1, 39, 0
3, 41155, Note_on_c, 1, 55, 100
3, 41155, Note_on_c, 1, 51, 100
3, 41275, Note_on_c, 1, 51, 0
3, 41275, Note_on_c, 1, 55, 0
3, 41275, Note_on_c, 1, 39, 100
3, 41395, Note_on_c, 1, 39, 0
3, 41395, Note_on_c, 1, 55, 100
3, 41395, Note_on_c, 1, 51, 100
3, 41515, Note_on_c, 1, 51, 0
3, 41515, Note_on_c, 1, 55, 0
3, 41515, Note_on_c, 1, 55, 100
3, 41575, Note_on_c, 1, 55, 0
3, 41575, Note_on_c, 1, 51, 100
3, 41635, Note_on_c, 1, 51, 0
3, 41635, Note_on_c, 1, 56, 100
3, 41695, Note_on_c, 1, 56, 0
3, 41695, Note_on_c, 1, 55, 100
3, 41755, Note_on_c, 1, 55, 0
3, 41755, Note_on_c, 1, 53, 100
3, 41815, Note_on_c, 1, 53, 0
3, 41815, Note_on_c, 1, 51, 100
3, 41875, Note_on_c, 1, 51, 0
3, 41875, Note_on_c, 1, 50, 100
3, 41935, Note_on_c, 1, 50, 0
3, 41935, Note_on_c, 1, 48, 100
3, 41995, Note_on_c, 1, 48, 0
3, 41995, Note_on_c, 1, 46, 100
3, 42055, Note_on_c, 1, 46, 0
3, 42055, Note_on_c, 1, 48, 100
3, 42115, Note_on_c, 1, 48, 0
3, 42115, Note_on_c, 1, 50, 100
3, 42175, Note_on_c, 1, 50, 0
3, 42180, Note_on_c, 1, 48, 100
3, 42240, Note_on_c, 1, 48, 0
3, 42240, Note_on_c, 1, 46, 100
3, 42300, Note_on_c, 1, 46, 0
3, 42300, Note_on_c, 1, 44, 100
3, 42360, Note_on_c, 1, 44, 0
3, 42360, Note_on_c, 1, 43, 100
3, 42420, Note_on_c, 1, 43, 0
3, 42420, Note_on_c, 1, 41, 100
3, 42480, Note_on_c, 1, 41, 0
3, 42480, Note_on_c, 1, 39, 100
3, 42600, Note_on_c, 1, 39, 0
3, 42600, Note_on_c, 1, 31, 100
3, 42720, Note_on_c, 1, 31, 0
3, 42720, Note_on_c, 1, 32, 92
3, 42840, Note_on_c, 1, 32, 0
3, 42840, Note_on_c, 1, 44, 92
3, 42960, Note_on_c, 1, 44, 0
3, 42960, Note_on_c, 1, 46, 92
3, 43080, Note_on_c, 1, 46, 0
3, 43080, Note_on_c, 1, 34, 92
3, 43200, Note_on_c, 1, 34, 0
3, 43200, Note_on_c, 1, 36, 92
3, 43320, Note_on_c, 1, 36, 0
3, 43320, Note_on_c, 1, 48, 92
3, 43440, Note_on_c, 1, 48, 0
3, 43440, Note_on_c, 1, 50, 92
3, 43560, Note_on_c, 1, 50, 0
3, 43560, Note_on_c, 1, 38, 90
3, 43680, Note_on_c, 1, 38, 0
3, 43680, Note_on_c, 1, 39, 88
3, 43800, Note_on_c, 1, 39, 0
3, 43800, Note_on_c, 1, 51, 88
3, 43920, Note_on_c, 1, 51, 0
3, 43920, Note_on_c, 1, 46, 88
3, 44040, Note_on_c, 1, 46, 0
3, 44040, Note_on_c, 1, 34, 87
3, 44160, Note_on_c, 1, 34, 0
3, 44160, Note_on_c, 1, 39, 87
3, 44280, Note_on_c, 1, 39, 0
3, 44280, Note_on_c, 1, 51, 80
3, 44400, Note_on_c, 1, 51, 0
3, 44400, Note_on_c, 1, 39, 80
3, 44400, Note_on_c, 1, 51, 80
3, 44520, Note_on_c, 1, 51, 0
3, 44520, Note_on_c, 1, 39, 0
3, 44520, Note_on_c, 1, 55, 80
3, 44520, Note_on_c, 1, 43, 80
3, 44640, Note_on_c, 1, 43, 0
3, 44640, Note_on_c, 1, 55, 0
3, 44640, Note_on_c, 1, 44, 80
3, 44760, Note_on_c, 1, 44, 0
3, 44760, Note_on_c, 1, 51, 80
3, 44760, Note_on_c, 1, 56, 80
3, 44880, Note_on_c, 1, 56, 0
3, 44880, Note_on_c, 1, 51, 0
3, 44880, Note_on_c, 1, 46, 80
3, 45000, Note_on_c, 1, 46, 0
3, 45000, Note_on_c, 1, 58, 80
3, 45000, Note_on_c, 1, 53, 80
3, 45120, Note_on_c, 1, 53, 0
3, 45120, Note_on_c, 1, 58, 0
3, 45120, Note_on_c, 1, 48, 80
3, 45240, Note_on_c, 1, 48, 0
3, 45240, Note_on_c, 1, 60, 80
3, 45240, Note_on_c, 1, 55, 80
3, 45360, Note_on_c, 1, 55, 0
3, 45360, Note_on_c, 1, 60, 0
3, 45360, Note_on_c, 1, 50, 80
3, 45480, Note_on_c, 1, 50, 0
3, 45480, Note_on_c, 1, 62, 80
3, 45480, Note_on_c, 1, 58, 80
3, 45600, Note_on_c, 1, 58, 0
3, 45600, Note_on_c, 1, 62, 0
3, 45600, Note_on_c, 1, 51, 80
3, 45720, Note_on_c, 1, 51, 0
3, 45720, Note_on_c, 1, 63, 80
3, 45720, Note_on_c, 1, 58, 80
3, 45840, Note_on_c, 1, 58, 0
3, 45840, Note_on_c, 1, 63, 0
3, 45840, Note_on_c, 1, 46, 80
3, 45960, Note_on_c, 1, 46, 0
3, 45960, Note_on_c, 1, 58, 80
3, 46080, Note_on_c, 1, 58, 0
3, 46080, Note_on_c, 1, 51, 80
3, 46200, Note_on_c, 1, 51, 0
3, 46200, Note_on_c, 1, 39, 80
3, 46320, Note_on_c, 1, 39, 0
3, 46320, End_track
4, 0, Start_track
4, 0, End_track
0, 0, End_of_file