0, 0, Header, 1, 3, 120
1, 0, Start_track
1, 0, Title_t, "Sonatine Anhang 5"
1, 0, Title_t, "Nr 1"
1, 0, Copyright_t, "armandoefiorella@panet.it"
1, 0, Sequencer_specific, 03, 00, 00, 41
1, 0, Time_signature, 4, 2, 24, 8
1, 0, Key_signature, 1, "major"
1, 0, Tempo, 476190
1, 10970, Tempo, 476190
1, 11035, Tempo, 468750
1, 11040, Tempo, 472441
1, 11045, Tempo, 476190
1, 11050, Tempo, 480000
1, 11055, Tempo, 483871
1, 11060, Tempo, 487805
1, 11065, Tempo, 491803
1, 11070, Tempo, 495868
1, 11075, Tempo, 504202
1, 11080, Tempo, 508475
1, 11085, Tempo, 512821
1, 11090, Tempo, 517241
1, 11095, Tempo, 521739
1, 11100, Tempo, 526316
1, 11105, Tempo, 530973
1, 11110, Tempo, 540541
1, 11115, Tempo, 545455
1, 11120, Tempo, 550459
1, 11125, Tempo, 555556
1, 11130, Tempo, 560748
1, 11135, Tempo, 566038
1, 11140, Tempo, 571429
1, 11145, Tempo, 582524
1, 11150, Tempo, 588235
1, 11155, Tempo, 594059
1, 11160, Tempo, 600000
1, 11165, Tempo, 606061
1, 11170, Tempo, 612245
1, 11175, Tempo, 618557
1, 11180, Tempo, 631579
1, 11185, Tempo, 638298
1, 11190, Tempo, 645161
1, 11195, Tempo, 652174
1, 11200, Tempo, 659341
1, 11205, Tempo, 666667
1, 11210, Tempo, 674157
1, 11215, Tempo, 689655
1, 11220, Tempo, 697674
1, 11225, Tempo, 705882
1, 11230, Tempo, 714286
1, 11235, Tempo, 722892
1, 11240, Tempo, 731707
1, 11245, Tempo, 740741
1, 11250, Tempo, 759494
1, 11255, Tempo, 769231
1, 11260, Tempo, 779221
1, 11265, Tempo, 789474
1, 11270, Tempo, 800000
1, 11275, Tempo, 810811
1, 11280, Tempo, 821918
1, 11285, Tempo, 845070
1, 11290, Tempo, 857143
1, 11295, Tempo, 869565
1, 11300, Tempo, 882353
1, 11305, Tempo, 895522
1, 11310, Tempo, 909091
1, 11315, Tempo, 923077
1, 11320, Tempo, 480000
1, 11475, Tempo, 476190
1, 24480, Time_signature, 6, 3, 12, 8
1, 24480, Tempo, 526316
1, 24810, Tempo, 521739
1, 34135, Tempo, 521739
1, 41690, Tempo, 521739
1, 42825, Tempo, 521739
1, 48715, Tempo, 521739
1, 48735, Tempo, 526316
1, 48755, Tempo, 530973
1, 48775, Tempo, 535714
1, 48795, Tempo, 540541
1, 48815, Tempo, 545455
1, 48835, Tempo, 550459
1, 48855, Tempo, 555556
1, 48875, Tempo, 560748
1, 48895, Tempo, 566038
1, 48915, Tempo, 571429
1, 48930, Tempo, 576923
1, 48950, Tempo, 582524
1, 48970, Tempo, 588235
1, 48990, Tempo, 594059
1, 49010, Tempo, 600000
1, 49030, Tempo, 606061
1, 49050, Tempo, 612245
1, 49070, Tempo, 618557
1, 49090, Tempo, 625000
1, 49110, Tempo, 631579
1, 49125, Tempo, 638298
1, 49145, Tempo, 645161
1, 49165, Tempo, 652174
1, 49185, Tempo, 659341
1, 49205, Tempo, 666667
1, 49225, Tempo, 674157
1, 49245, Tempo, 681818
1, 49265, Tempo, 689655
1, 49285, Tempo, 697674
1, 49305, Tempo, 705882
1, 49320, Tempo, 714286
1, 49340, Tempo, 722892
1, 49360, Tempo, 731707
1, 49380, Tempo, 740741
1, 49400, Tempo, 750000
1, 49420, Tempo, 759494
1, 49440, Tempo, 769231
1, 49460, Tempo, 779221
1, 49480, Tempo, 789474
1, 49500, Tempo, 800000
1, 49520, Tempo, 810811
1, 49535, Tempo, 821918
1, 49555, Tempo, 833333
1, 49575, Tempo, 845070
1, 49595, Tempo, 857143
1, 49615, Tempo, 869565
1, 49635, Tempo, 882353
1, 49655, Tempo, 895522
1, 49675, Tempo, 909091
1, 49695, Tempo, 923077
1, 49715, Tempo, 937500
1, 49730, Tempo, 952381
1, 49750, Tempo, 967742
1, 49770, Tempo, 983607
1, 49790, Tempo, 1000000
1, 49810, Tempo, 1016949
1, 49830, Tempo, 1034483
1, 49850, Tempo, 1052632
1, 49870, Tempo, 1071429
1, 49890, Tempo, 1090909
1, 49910, Tempo, 1111111
1, 49925, Tempo, 1132075
1, 49945, Tempo, 1153846
1, 49965, Tempo, 1176471
1, 49985, Tempo, 1200000
1, 50005, Tempo, 1224490
1, 50025, Tempo, 1250000
1, 50045, Tempo, 1276596
1, 50065, Tempo, 1304348
1, 50085, Tempo, 1333333
1, 50105, Tempo, 1363636
1, 50120, Tempo, 1395349
1, 50120, End_track
2, 0, Start_track
2, 0, MIDI_port, 0
2, 0, Control_c, 0, 7, 115
2, 0, Control_c, 0, 10, 38
2, 0, Control_c, 0, 93, 18
2, 0, Control_c, 0, 91, 17
2, 0, Control_c, 0, 0, 0
2, 0, Control_c, 0, 32, 0
2, 0, Program_c, 0, 0
2, 0, Note_on_c, 0, 67, 55
2, 225, Note_on_c, 0, 71, 54
2, 239, Note_on_c, 0, 71, 0
2, 239, Note_on_c, 0, 67, 0
2, 240, Note_on_c, 0, 69, 54
2, 299, Note_on_c, 0, 69, 0
2, 300, Note_on_c, 0, 67, 54
2, 359, Note_on_c, 0, 67, 0
2, 360, Note_on_c, 0, 69, 54
2, 419, Note_on_c, 0, 69, 0
2, 420, Note_on_c, 0, 71, 53
2, 479, Note_on_c, 0, 71, 0
2, 480, Note_on_c, 0, 67, 53
2, 595, Note_on_c, 0, 67, 0
2, 600, Note_on_c, 0, 79, 86
2, 659, Note_on_c, 0, 79, 0
2, 660, Note_on_c, 0, 74, 76
2, 720, Note_on_c, 0, 74, 0
2, 720, Note_on_c, 0, 74, 70
2, 779, Note_on_c, 0, 74, 0
2, 780, Note_on_c, 0, 71, 64
2, 840, Note_on_c, 0, 71, 0
2, 840, Note_on_c, 0, 71, 58
2, 899, Note_on_c, 0, 71, 0
2, 900, Note_on_c, 0, 67, 52
2, 960, Note_on_c, 0, 67, 0
2, 960, Note_on_c, 0, 72, 46
2, 1185, Note_on_c, 0, 72, 50
2, 1199, Note_on_c, 0, 72, 0
2, 1199, Note_on_c, 0, 72, 0
2, 1200, Note_on_c, 0, 71, 50
2, 1259, Note_on_c, 0, 71, 0
2, 1260, Note_on_c, 0, 69, 50
2, 1319, Note_on_c, 0, 69, 0
2, 1320, Note_on_c, 0, 71, 50
2, 1379, Note_on_c, 0, 71, 0
2, 1380, Note_on_c, 0, 72, 50
2, 1439, Note_on_c, 0, 72, 0
2, 1440, Note_on_c, 0, 69, 50
2, 1555, Note_on_c, 0, 69, 0
2, 1560, Note_on_c, 0, 74, 50
2, 1619, Note_on_c, 0, 74, 0
2, 1620, Note_on_c, 0, 76, 50
2, 1679, Note_on_c, 0, 76, 0
2, 1680, Note_on_c, 0, 74, 50
2, 1739, Note_on_c, 0, 74, 0
2, 1740, Note_on_c, 0, 71, 49
2, 1799, Note_on_c, 0, 71, 0
2, 1800, Note_on_c, 0, 72, 49
2, 1859, Note_on_c, 0, 72, 0
2, 1860, Note_on_c, 0, 69, 49
2, 1919, Note_on_c, 0, 69, 0
2, 1920, Note_on_c, 0, 67, 48
2, 2145, Note_on_c, 0, 71, 60
2, 2159, Note_on_c, 0, 71, 0
2, 2159, Note_on_c, 0, 67, 0
2, 2160, Note_on_c, 0, 69, 60
2, 2219, Note_on_c, 0, 69, 0
2, 2220, Note_on_c, 0, 67, 58
2, 2279, Note_on_c, 0, 67, 0
2, 2280, Note_on_c, 0, 69, 57
2, 2339, Note_on_c, 0, 69, 0
2, 2340, Note_on_c, 0, 71, 57
2, 2399, Note_on_c, 0, 71, 0
2, 2400, Note_on_c, 0, 72, 57
2, 2460, Note_on_c, 0, 64, 57
2, 2519, Note_on_c, 0, 64, 0
2, 2520, Note_on_c, 0, 60, 57
2, 2579, Note_on_c, 0, 60, 0
2, 2580, Note_on_c, 0, 64, 57
2, 2625, Note_on_c, 0, 78, 57
2, 2639, Note_on_c, 0, 78, 0
2, 2639, Note_on_c, 0, 64, 0
2, 2639, Note_on_c, 0, 72, 0
2, 2640, Note_on_c, 0, 76, 57
2, 2640, Note_on_c, 0, 55, 57
2, 2699, Note_on_c, 0, 55, 0
2, 2700, Note_on_c, 0, 76, 0
2, 2700, Note_on_c, 0, 74, 57
2, 2700, Note_on_c, 0, 60, 57
2, 2759, Note_on_c, 0, 60, 0
2, 2759, Note_on_c, 0, 74, 0
2, 2760, Note_on_c, 0, 76, 57
2, 2760, Note_on_c, 0, 57, 57
2, 2819, Note_on_c, 0, 57, 0
2, 2819, Note_on_c, 0, 76, 0
2, 2820, Note_on_c, 0, 78, 57
2, 2820, Note_on_c, 0, 60, 57
2, 2879, Note_on_c, 0, 60, 0
2, 2879, Note_on_c, 0, 78, 0
2, 2880, Note_on_c, 0, 79, 56
2, 2939, Note_on_c, 0, 79, 0
2, 2940, Note_on_c, 0, 74, 55
2, 3000, Note_on_c, 0, 74, 0
2, 3000, Note_on_c, 0, 76, 55
2, 3059, Note_on_c, 0, 76, 0
2, 3060, Note_on_c, 0, 72, 54
2, 3120, Note_on_c, 0, 72, 0
2, 3120, Note_on_c, 0, 71, 53
2, 3179, Note_on_c, 0, 71, 0
2, 3180, Note_on_c, 0, 74, 52
2, 3240, Note_on_c, 0, 74, 0
2, 3240, Note_on_c, 0, 72, 50
2, 3299, Note_on_c, 0, 72, 0
2, 3300, Note_on_c, 0, 69, 48
2, 3360, Note_on_c, 0, 69, 0
2, 3360, Note_on_c, 0, 69, 45
2, 3599, Note_on_c, 0, 69, 0
2, 3600, Note_on_c, 0, 67, 53
2, 3719, Note_on_c, 0, 67, 0
2, 3840, Note_on_c, 0, 69, 60
2, 4079, Note_on_c, 0, 69, 0
2, 4080, Note_on_c, 0, 72, 55
2, 4139, Note_on_c, 0, 72, 0
2, 4140, Note_on_c, 0, 71, 55
2, 4199, Note_on_c, 0, 71, 0
2, 4200, Note_on_c, 0, 69, 55
2, 4259, Note_on_c, 0, 69, 0
2, 4260, Note_on_c, 0, 71, 55
2, 4319, Note_on_c, 0, 71, 0
2, 4320, Note_on_c, 0, 74, 54
2, 4379, Note_on_c, 0, 74, 0
2, 4380, Note_on_c, 0, 72, 54
2, 4439, Note_on_c, 0, 72, 0
2, 4440, Note_on_c, 0, 81, 53
2, 4499, Note_on_c, 0, 81, 0
2, 4500, Note_on_c, 0, 79, 52
2, 4559, Note_on_c, 0, 79, 0
2, 4560, Note_on_c, 0, 78, 51
2, 4619, Note_on_c, 0, 78, 0
2, 4620, Note_on_c, 0, 76, 50
2, 4679, Note_on_c, 0, 76, 0
2, 4680, Note_on_c, 0, 74, 50
2, 4739, Note_on_c, 0, 74, 0
2, 4740, Note_on_c, 0, 72, 49
2, 4799, Note_on_c, 0, 72, 0
2, 4800, Note_on_c, 0, 71, 49
2, 5039, Note_on_c, 0, 71, 0
2, 5040, Note_on_c, 0, 74, 54
2, 5099, Note_on_c, 0, 74, 0
2, 5100, Note_on_c, 0, 72, 53
2, 5159, Note_on_c, 0, 72, 0
2, 5160, Note_on_c, 0, 71, 53
2, 5219, Note_on_c, 0, 71, 0
2, 5220, Note_on_c, 0, 72, 53
2, 5279, Note_on_c, 0, 72, 0
2, 5280, Note_on_c, 0, 76, 53
2, 5339, Note_on_c, 0, 76, 0
2, 5340, Note_on_c, 0, 74, 52
2, 5399, Note_on_c, 0, 74, 0
2, 5400, Note_on_c, 0, 83, 52
2, 5459, Note_on_c, 0, 83, 0
2, 5460, Note_on_c, 0, 81, 52
2, 5519, Note_on_c, 0, 81, 0
2, 5520, Note_on_c, 0, 79, 52
2, 5579, Note_on_c, 0, 79, 0
2, 5580, Note_on_c, 0, 78, 51
2, 5639, Note_on_c, 0, 78, 0
2, 5640, Note_on_c, 0, 76, 50
2, 5699, Note_on_c, 0, 76, 0
2, 5700, Note_on_c, 0, 74, 48
2, 5759, Note_on_c, 0, 74, 0
2, 5760, Note_on_c, 0, 72, 46
2, 5760, Note_on_c, 0, 57, 46
2, 5760, Note_on_c, 0, 50, 46
2, 5880, Note_on_c, 0, 50, 0
2, 5880, Note_on_c, 0, 57, 0
2, 5880, Note_on_c, 0, 81, 48
2, 5885, Note_on_c, 0, 72, 0
2, 5939, Note_on_c, 0, 81, 0
2, 5940, Note_on_c, 0, 79, 48
2, 5999, Note_on_c, 0, 79, 0
2, 6000, Note_on_c, 0, 78, 48
2, 6059, Note_on_c, 0, 78, 0
2, 6060, Note_on_c, 0, 76, 48
2, 6119, Note_on_c, 0, 76, 0
2, 6120, Note_on_c, 0, 74, 48
2, 6179, Note_on_c, 0, 74, 0
2, 6180, Note_on_c, 0, 72, 48
2, 6239, Note_on_c, 0, 72, 0
2, 6240, Note_on_c, 0, 71, 48
2, 6360, Note_on_c, 0, 79, 48
2, 6366, Note_on_c, 0, 71, 0
2, 6419, Note_on_c, 0, 79, 0
2, 6420, Note_on_c, 0, 78, 48
2, 6479, Note_on_c, 0, 78, 0
2, 6480, Note_on_c, 0, 76, 48
2, 6539, Note_on_c, 0, 76, 0
2, 6540, Note_on_c, 0, 74, 48
2, 6599, Note_on_c, 0, 74, 0
2, 6600, Note_on_c, 0, 72, 48
2, 6659, Note_on_c, 0, 72, 0
2, 6660, Note_on_c, 0, 71, 48
2, 6719, Note_on_c, 0, 71, 0
2, 6720, Note_on_c, 0, 69, 48
2, 6840, Note_on_c, 0, 69, 0
2, 6840, Note_on_c, 0, 62, 48
2, 6899, Note_on_c, 0, 62, 0
2, 6900, Note_on_c, 0, 64, 48
2, 6959, Note_on_c, 0, 64, 0
2, 6960, Note_on_c, 0, 66, 48
2, 7019, Note_on_c, 0, 66, 0
2, 7020, Note_on_c, 0, 67, 48
2, 7079, Note_on_c, 0, 67, 0
2, 7080, Note_on_c, 0, 69, 48
2, 7139, Note_on_c, 0, 69, 0
2, 7140, Note_on_c, 0, 71, 48
2, 7199, Note_on_c, 0, 71, 0
2, 7200, Note_on_c, 0, 72, 48
2, 7320, Note_on_c, 0, 71, 48
2, 7322, Note_on_c, 0, 72, 0
2, 7379, Note_on_c, 0, 71, 0
2, 7380, Note_on_c, 0, 72, 48
2, 7439, Note_on_c, 0, 72, 0
2, 7440, Note_on_c, 0, 74, 48
2, 7499, Note_on_c, 0, 74, 0
2, 7500, Note_on_c, 0, 72, 48
2, 7559, Note_on_c, 0, 72, 0
2, 7560, Note_on_c, 0, 69, 48
2, 7619, Note_on_c, 0, 69, 0
2, 7620, Note_on_c, 0, 71, 48
2, 7679, Note_on_c, 0, 71, 0
2, 7680, Note_on_c, 0, 67, 48
2, 7905, Note_on_c, 0, 71, 48
2, 7919, Note_on_c, 0, 71, 0
2, 7919, Note_on_c, 0, 67, 0
2, 7920, Note_on_c, 0, 69, 48
2, 7979, Note_on_c, 0, 69, 0
2, 7980, Note_on_c, 0, 67, 48
2, 8039, Note_on_c, 0, 67, 0
2, 8040, Note_on_c, 0, 69, 48
2, 8099, Note_on_c, 0, 69, 0
2, 8100, Note_on_c, 0, 71, 48
2, 8159, Note_on_c, 0, 71, 0
2, 8160, Note_on_c, 0, 67, 48
2, 8160, Note_on_c, 0, 55, 48
2, 8160, Note_on_c, 0, 59, 48
2, 8274, Note_on_c, 0, 59, 0
2, 8274, Note_on_c, 0, 55, 0
2, 8274, Note_on_c, 0, 67, 0
2, 8280, Note_on_c, 0, 79, 91
2, 8339, Note_on_c, 0, 79, 0
2, 8340, Note_on_c, 0, 74, 81
2, 8400, Note_on_c, 0, 74, 0
2, 8400, Note_on_c, 0, 74, 73
2, 8459, Note_on_c, 0, 74, 0
2, 8460, Note_on_c, 0, 71, 67
2, 8520, Note_on_c, 0, 71, 0
2, 8520, Note_on_c, 0, 71, 61
2, 8579, Note_on_c, 0, 71, 0
2, 8580, Note_on_c, 0, 67, 56
2, 8640, Note_on_c, 0, 67, 0
2, 8640, Note_on_c, 0, 72, 50
2, 8865, Note_on_c, 0, 72, 54
2, 8879, Note_on_c, 0, 72, 0
2, 8879, Note_on_c, 0, 72, 0
2, 8880, Note_on_c, 0, 71, 54
2, 8939, Note_on_c, 0, 71, 0
2, 8940, Note_on_c, 0, 69, 54
2, 8999, Note_on_c, 0, 69, 0
2, 9000, Note_on_c, 0, 71, 54
2, 9059, Note_on_c, 0, 71, 0
2, 9060, Note_on_c, 0, 72, 54
2, 9119, Note_on_c, 0, 72, 0
2, 9120, Note_on_c, 0, 69, 54
2, 9120, Note_on_c, 0, 50, 54
2, 9120, Note_on_c, 0, 54, 54
2, 9240, Note_on_c, 0, 54, 0
2, 9240, Note_on_c, 0, 50, 0
2, 9240, Note_on_c, 0, 69, 0
2, 9240, Note_on_c, 0, 74, 54
2, 9299, Note_on_c, 0, 74, 0
2, 9300, Note_on_c, 0, 76, 54
2, 9359, Note_on_c, 0, 76, 0
2, 9360, Note_on_c, 0, 74, 54
2, 9419, Note_on_c, 0, 74, 0
2, 9420, Note_on_c, 0, 71, 54
2, 9479, Note_on_c, 0, 71, 0
2, 9480, Note_on_c, 0, 72, 54
2, 9539, Note_on_c, 0, 72, 0
2, 9540, Note_on_c, 0, 69, 54
2, 9599, Note_on_c, 0, 69, 0
2, 9600, Note_on_c, 0, 67, 54
2, 9825, Note_on_c, 0, 71, 54
2, 9839, Note_on_c, 0, 71, 0
2, 9839, Note_on_c, 0, 67, 0
2, 9840, Note_on_c, 0, 69, 54
2, 9899, Note_on_c, 0, 69, 0
2, 9900, Note_on_c, 0, 67, 54
2, 9959, Note_on_c, 0, 67, 0
2, 9960, Note_on_c, 0, 69, 54
2, 10019, Note_on_c, 0, 69, 0
2, 10020, Note_on_c, 0, 71, 54
2, 10079, Note_on_c, 0, 71, 0
2, 10080, Note_on_c, 0, 72, 54
2, 10305, Note_on_c, 0, 78, 54
2, 10319, Note_on_c, 0, 78, 0
2, 10319, Note_on_c, 0, 72, 0
2, 10320, Note_on_c, 0, 76, 54
2, 10379, Note_on_c, 0, 76, 0
2, 10380, Note_on_c, 0, 74, 54
2, 10439, Note_on_c, 0, 74, 0
2, 10440, Note_on_c, 0, 76, 54
2, 10499, Note_on_c, 0, 76, 0
2, 10500, Note_on_c, 0, 78, 53
2, 10559, Note_on_c, 0, 78, 0
2, 10560, Note_on_c, 0, 79, 53
2, 10619, Note_on_c, 0, 79, 0
2, 10620, Note_on_c, 0, 74, 52
2, 10680, Note_on_c, 0, 74, 0
2, 10680, Note_on_c, 0, 76, 51
2, 10739, Note_on_c, 0, 76, 0
2, 10740, Note_on_c, 0, 72, 50
2, 10800, Note_on_c, 0, 72, 0
2, 10800, Note_on_c, 0, 71, 49
2, 10859, Note_on_c, 0, 71, 0
2, 10860, Note_on_c, 0, 74, 47
2, 10920, Note_on_c, 0, 74, 0
2, 10920, Note_on_c, 0, 72, 43
2, 10979, Note_on_c, 0, 72, 0
2, 10980, Note_on_c, 0, 69, 39
2, 11040, Note_on_c, 0, 69, 0
2, 11040, Note_on_c, 0, 69, 57
2, 11279, Note_on_c, 0, 69, 0
2, 11280, Note_on_c, 0, 67, 53
2, 11399, Note_on_c, 0, 67, 0
2, 11520, Note_on_c, 0, 69, 60
2, 11759, Note_on_c, 0, 69, 0
2, 11760, Note_on_c, 0, 72, 55
2, 11819, Note_on_c, 0, 72, 0
2, 11820, Note_on_c, 0, 71, 55
2, 11879, Note_on_c, 0, 71, 0
2, 11880, Note_on_c, 0, 69, 55
2, 11939, Note_on_c, 0, 69, 0
2, 11940, Note_on_c, 0, 71, 55
2, 11999, Note_on_c, 0, 71, 0
2, 12000, Note_on_c, 0, 74, 54
2, 12059, Note_on_c, 0, 74, 0
2, 12060, Note_on_c, 0, 72, 54
2, 12119, Note_on_c, 0, 72, 0
2, 12120, Note_on_c, 0, 81, 53
2, 12179, Note_on_c, 0, 81, 0
2, 12180, Note_on_c, 0, 79, 52
2, 12239, Note_on_c, 0, 79, 0
2, 12240, Note_on_c, 0, 78, 51
2, 12299, Note_on_c, 0, 78, 0
2, 12300, Note_on_c, 0, 76, 50
2, 12359, Note_on_c, 0, 76, 0
2, 12360, Note_on_c, 0, 74, 50
2, 12419, Note_on_c, 0, 74, 0
2, 12420, Note_on_c, 0, 72, 49
2, 12479, Note_on_c, 0, 72, 0
2, 12480, Note_on_c, 0, 71, 49
2, 12719, Note_on_c, 0, 71, 0
2, 12720, Note_on_c, 0, 74, 54
2, 12779, Note_on_c, 0, 74, 0
2, 12780, Note_on_c, 0, 72, 53
2, 12839, Note_on_c, 0, 72, 0
2, 12840, Note_on_c, 0, 71, 53
2, 12899, Note_on_c, 0, 71, 0
2, 12900, Note_on_c, 0, 72, 53
2, 12959, Note_on_c, 0, 72, 0
2, 12960, Note_on_c, 0, 76, 53
2, 13019, Note_on_c, 0, 76, 0
2, 13020, Note_on_c, 0, 74, 52
2, 13079, Note_on_c, 0, 74, 0
2, 13080, Note_on_c, 0, 83, 52
2, 13139, Note_on_c, 0, 83, 0
2, 13140, Note_on_c, 0, 81, 52
2, 13199, Note_on_c, 0, 81, 0
2, 13200, Note_on_c, 0, 79, 52
2, 13259, Note_on_c, 0, 79, 0
2, 13260, Note_on_c, 0, 78, 51
2, 13319, Note_on_c, 0, 78, 0
2, 13320, Note_on_c, 0, 76, 50
2, 13379, Note_on_c, 0, 76, 0
2, 13380, Note_on_c, 0, 74, 48
2, 13439, Note_on_c, 0, 74, 0
2, 13440, Note_on_c, 0, 72, 46
2, 13440, Note_on_c, 0, 57, 46
2, 13440, Note_on_c, 0, 50, 46
2, 13560, Note_on_c, 0, 50, 0
2, 13560, Note_on_c, 0, 57, 0
2, 13560, Note_on_c, 0, 81, 48
2, 13565, Note_on_c, 0, 72, 0
2, 13619, Note_on_c, 0, 81, 0
2, 13620, Note_on_c, 0, 79, 48
2, 13679, Note_on_c, 0, 79, 0
2, 13680, Note_on_c, 0, 78, 48
2, 13739, Note_on_c, 0, 78, 0
2, 13740, Note_on_c, 0, 76, 48
2, 13799, Note_on_c, 0, 76, 0
2, 13800, Note_on_c, 0, 74, 48
2, 13859, Note_on_c, 0, 74, 0
2, 13860, Note_on_c, 0, 72, 48
2, 13919, Note_on_c, 0, 72, 0
2, 13920, Note_on_c, 0, 71, 48
2, 14040, Note_on_c, 0, 79, 48
2, 14046, Note_on_c, 0, 71, 0
2, 14099, Note_on_c, 0, 79, 0
2, 14100, Note_on_c, 0, 78, 48
2, 14159, Note_on_c, 0, 78, 0
2, 14160, Note_on_c, 0, 76, 48
2, 14219, Note_on_c, 0, 76, 0
2, 14220, Note_on_c, 0, 74, 48
2, 14279, Note_on_c, 0, 74, 0
2, 14280, Note_on_c, 0, 72, 48
2, 14339, Note_on_c, 0, 72, 0
2, 14340, Note_on_c, 0, 71, 48
2, 14399, Note_on_c, 0, 71, 0
2, 14400, Note_on_c, 0, 69, 48
2, 14520, Note_on_c, 0, 69, 0
2, 14520, Note_on_c, 0, 62, 48
2, 14579, Note_on_c, 0, 62, 0
2, 14580, Note_on_c, 0, 64, 48
2, 14639, Note_on_c, 0, 64, 0
2, 14640, Note_on_c, 0, 66, 48
2, 14699, Note_on_c, 0, 66, 0
2, 14700, Note_on_c, 0, 67, 48
2, 14759, Note_on_c, 0, 67, 0
2, 14760, Note_on_c, 0, 69, 48
2, 14819, Note_on_c, 0, 69, 0
2, 14820, Note_on_c, 0, 71, 48
2, 14879, Note_on_c, 0, 71, 0
2, 14880, Note_on_c, 0, 72, 48
2, 15000, Note_on_c, 0, 71, 48
2, 15002, Note_on_c, 0, 72, 0
2, 15059, Note_on_c, 0, 71, 0
2, 15060, Note_on_c, 0, 72, 48
2, 15119, Note_on_c, 0, 72, 0
2, 15120, Note_on_c, 0, 74, 48
2, 15179, Note_on_c, 0, 74, 0
2, 15180, Note_on_c, 0, 72, 48
2, 15239, Note_on_c, 0, 72, 0
2, 15240, Note_on_c, 0, 69, 48
2, 15299, Note_on_c, 0, 69, 0
2, 15300, Note_on_c, 0, 71, 48
2, 15359, Note_on_c, 0, 71, 0
2, 15360, Note_on_c, 0, 67, 48
2, 15585, Note_on_c, 0, 71, 48
2, 15599, Note_on_c, 0, 71, 0
2, 15599, Note_on_c, 0, 67, 0
2, 15600, Note_on_c, 0, 69, 48
2, 15659, Note_on_c, 0, 69, 0
2, 15660, Note_on_c, 0, 67, 48
2, 15719, Note_on_c, 0, 67, 0
2, 15720, Note_on_c, 0, 69, 48
2, 15779, Note_on_c, 0, 69, 0
2, 15780, Note_on_c, 0, 71, 48
2, 15839, Note_on_c, 0, 71, 0
2, 15840, Note_on_c, 0, 55, 48
2, 15840, Note_on_c, 0, 59, 48
2, 15840, Note_on_c, 0, 67, 48
2, 15954, Note_on_c, 0, 67, 0
2, 15954, Note_on_c, 0, 59, 0
2, 15954, Note_on_c, 0, 55, 0
2, 15960, Note_on_c, 0, 79, 91
2, 16019, Note_on_c, 0, 79, 0
2, 16020, Note_on_c, 0, 74, 81
2, 16080, Note_on_c, 0, 74, 0
2, 16080, Note_on_c, 0, 74, 73
2, 16139, Note_on_c, 0, 74, 0
2, 16140, Note_on_c, 0, 71, 67
2, 16200, Note_on_c, 0, 71, 0
2, 16200, Note_on_c, 0, 71, 61
2, 16259, Note_on_c, 0, 71, 0
2, 16260, Note_on_c, 0, 67, 56
2, 16320, Note_on_c, 0, 67, 0
2, 16320, Note_on_c, 0, 72, 50
2, 16545, Note_on_c, 0, 72, 54
2, 16559, Note_on_c, 0, 72, 0
2, 16559, Note_on_c, 0, 72, 0
2, 16560, Note_on_c, 0, 71, 54
2, 16619, Note_on_c, 0, 71, 0
2, 16620, Note_on_c, 0, 69, 54
2, 16679, Note_on_c, 0, 69, 0
2, 16680, Note_on_c, 0, 71, 54
2, 16739, Note_on_c, 0, 71, 0
2, 16740, Note_on_c, 0, 72, 54
2, 16799, Note_on_c, 0, 72, 0
2, 16800, Note_on_c, 0, 69, 54
2, 16800, Note_on_c, 0, 54, 54
2, 16800, Note_on_c, 0, 50, 54
2, 16920, Note_on_c, 0, 50, 0
2, 16920, Note_on_c, 0, 54, 0
2, 16920, Note_on_c, 0, 69, 0
2, 16920, Note_on_c, 0, 74, 54
2, 16979, Note_on_c, 0, 74, 0
2, 16980, Note_on_c, 0, 76, 54
2, 17039, Note_on_c, 0, 76, 0
2, 17040, Note_on_c, 0, 74, 54
2, 17099, Note_on_c, 0, 74, 0
2, 17100, Note_on_c, 0, 71, 54
2, 17159, Note_on_c, 0, 71, 0
2, 17160, Note_on_c, 0, 72, 54
2, 17219, Note_on_c, 0, 72, 0
2, 17220, Note_on_c, 0, 69, 54
2, 17279, Note_on_c, 0, 69, 0
2, 17280, Note_on_c, 0, 67, 54
2, 17505, Note_on_c, 0, 71, 54
2, 17519, Note_on_c, 0, 71, 0
2, 17519, Note_on_c, 0, 67, 0
2, 17520, Note_on_c, 0, 69, 54
2, 17579, Note_on_c, 0, 69, 0
2, 17580, Note_on_c, 0, 67, 54
2, 17639, Note_on_c, 0, 67, 0
2, 17640, Note_on_c, 0, 69, 54
2, 17699, Note_on_c, 0, 69, 0
2, 17700, Note_on_c, 0, 71, 54
2, 17759, Note_on_c, 0, 71, 0
2, 17760, Note_on_c, 0, 72, 54
2, 17985, Note_on_c, 0, 78, 54
2, 17999, Note_on_c, 0, 78, 0
2, 17999, Note_on_c, 0, 72, 0
2, 18000, Note_on_c, 0, 76, 54
2, 18059, Note_on_c, 0, 76, 0
2, 18060, Note_on_c, 0, 74, 54
2, 18119, Note_on_c, 0, 74, 0
2, 18120, Note_on_c, 0, 76, 54
2, 18179, Note_on_c, 0, 76, 0
2, 18180, Note_on_c, 0, 78, 53
2, 18239, Note_on_c, 0, 78, 0
2, 18240, Note_on_c, 0, 79, 53
2, 18299, Note_on_c, 0, 79, 0
2, 18300, Note_on_c, 0, 74, 52
2, 18360, Note_on_c, 0, 74, 0
2, 18360, Note_on_c, 0, 76, 51
2, 18419, Note_on_c, 0, 76, 0
2, 18420, Note_on_c, 0, 72, 50
2, 18480, Note_on_c, 0, 72, 0
2, 18480, Note_on_c, 0, 71, 49
2, 18539, Note_on_c, 0, 71, 0
2, 18540, Note_on_c, 0, 74, 47
2, 18600, Note_on_c, 0, 74, 0
2, 18600, Note_on_c, 0, 72, 43
2, 18659, Note_on_c, 0, 72, 0
2, 18660, Note_on_c, 0, 69, 39
2, 18720, Note_on_c, 0, 69, 0
2, 18720, Note_on_c, 0, 69, 41
2, 18959, Note_on_c, 0, 69, 0
2, 18960, Note_on_c, 0, 67, 53
2, 19079, Note_on_c, 0, 67, 0
2, 19200, Note_on_c, 0, 74, 53
2, 19439, Note_on_c, 0, 74, 0
2, 19440, Note_on_c, 0, 74, 57
2, 19560, Note_on_c, 0, 74, 0
2, 19560, Note_on_c, 0, 74, 58
2, 19680, Note_on_c, 0, 74, 0
2, 19680, Note_on_c, 0, 74, 58
2, 19919, Note_on_c, 0, 74, 0
2, 19920, Note_on_c, 0, 79, 58
2, 20039, Note_on_c, 0, 79, 0
2, 20040, Note_on_c, 0, 83, 58
2, 20159, Note_on_c, 0, 83, 0
2, 20160, Note_on_c, 0, 86, 58
2, 20399, Note_on_c, 0, 86, 0
2, 20400, Note_on_c, 0, 86, 58
2, 20520, Note_on_c, 0, 86, 0
2, 20520, Note_on_c, 0, 86, 58
2, 20640, Note_on_c, 0, 86, 0
2, 20640, Note_on_c, 0, 83, 58
2, 20879, Note_on_c, 0, 83, 0
2, 21120, Note_on_c, 0, 74, 58
2, 21359, Note_on_c, 0, 74, 0
2, 21360, Note_on_c, 0, 74, 58
2, 21480, Note_on_c, 0, 74, 0
2, 21480, Note_on_c, 0, 74, 58
2, 21600, Note_on_c, 0, 74, 0
2, 21600, Note_on_c, 0, 74, 58
2, 21839, Note_on_c, 0, 74, 0
2, 21840, Note_on_c, 0, 79, 58
2, 21959, Note_on_c, 0, 79, 0
2, 21960, Note_on_c, 0, 83, 57
2, 22079, Note_on_c, 0, 83, 0
2, 22080, Note_on_c, 0, 86, 56
2, 22199, Note_on_c, 0, 86, 0
2, 22320, Note_on_c, 0, 78, 56
2, 22440, Note_on_c, 0, 78, 0
2, 22560, Note_on_c, 0, 79, 56
2, 22680, Note_on_c, 0, 79, 0
2, 22800, Note_on_c, 0, 67, 56
2, 22916, Note_on_c, 0, 67, 0
2, 22920, Note_on_c, 0, 67, 55
2, 23036, Note_on_c, 0, 67, 0
2, 23040, Note_on_c, 0, 59, 54
2, 23040, Note_on_c, 0, 67, 54
2, 23279, Note_on_c, 0, 67, 0
2, 23279, Note_on_c, 0, 59, 0
2, 23280, Note_on_c, 0, 59, 52
2, 23280, Note_on_c, 0, 67, 52
2, 23519, Note_on_c, 0, 67, 0
2, 23519, Note_on_c, 0, 59, 0
2, 23520, Note_on_c, 0, 67, 50
2, 23999, Note_on_c, 0, 67, 0
2, 24660, Note_on_c, 0, 71, 49
2, 24719, Note_on_c, 0, 71, 0
2, 24720, Note_on_c, 0, 72, 50
2, 24779, Note_on_c, 0, 72, 0
2, 24780, Note_on_c, 0, 74, 51
2, 24839, Note_on_c, 0, 74, 0
2, 24840, Note_on_c, 0, 67, 53
2, 24960, Note_on_c, 0, 67, 0
2, 24960, Note_on_c, 0, 67, 53
2, 25012, Note_on_c, 0, 71, 53
2, 25020, Note_on_c, 0, 67, 0
2, 25020, Note_on_c, 0, 69, 53
2, 25026, Note_on_c, 0, 71, 0
2, 25079, Note_on_c, 0, 69, 0
2, 25080, Note_on_c, 0, 67, 54
2, 25139, Note_on_c, 0, 67, 0
2, 25140, Note_on_c, 0, 69, 54
2, 25199, Note_on_c, 0, 69, 0
2, 25200, Note_on_c, 0, 71, 55
2, 25319, Note_on_c, 0, 71, 0
2, 25320, Note_on_c, 0, 67, 57
2, 25380, Note_on_c, 0, 67, 0
2, 25380, Note_on_c, 0, 71, 56
2, 25439, Note_on_c, 0, 71, 0
2, 25440, Note_on_c, 0, 72, 56
2, 25499, Note_on_c, 0, 72, 0
2, 25500, Note_on_c, 0, 74, 56
2, 25559, Note_on_c, 0, 74, 0
2, 25560, Note_on_c, 0, 67, 56
2, 25679, Note_on_c, 0, 67, 0
2, 25680, Note_on_c, 0, 67, 57
2, 25732, Note_on_c, 0, 69, 56
2, 25738, Note_on_c, 0, 69, 0
2, 25740, Note_on_c, 0, 67, 0
2, 25740, Note_on_c, 0, 67, 56
2, 25799, Note_on_c, 0, 67, 0
2, 25800, Note_on_c, 0, 66, 56
2, 25859, Note_on_c, 0, 66, 0
2, 25860, Note_on_c, 0, 67, 56
2, 25919, Note_on_c, 0, 67, 0
2, 25920, Note_on_c, 0, 69, 56
2, 26039, Note_on_c, 0, 69, 0
2, 26100, Note_on_c, 0, 71, 56
2, 26159, Note_on_c, 0, 71, 0
2, 26160, Note_on_c, 0, 72, 56
2, 26219, Note_on_c, 0, 72, 0
2, 26220, Note_on_c, 0, 74, 56
2, 26279, Note_on_c, 0, 74, 0
2, 26280, Note_on_c, 0, 67, 56
2, 26399, Note_on_c, 0, 67, 0
2, 26400, Note_on_c, 0, 67, 57
2, 26459, Note_on_c, 0, 67, 0
2, 26460, Note_on_c, 0, 67, 56
2, 26519, Note_on_c, 0, 67, 0
2, 26520, Note_on_c, 0, 69, 57
2, 26579, Note_on_c, 0, 69, 0
2, 26580, Note_on_c, 0, 71, 57
2, 26639, Note_on_c, 0, 71, 0
2, 26640, Note_on_c, 0, 72, 57
2, 26759, Note_on_c, 0, 72, 0
2, 26760, Note_on_c, 0, 76, 57
2, 26819, Note_on_c, 0, 76, 0
2, 26820, Note_on_c, 0, 79, 57
2, 26879, Note_on_c, 0, 79, 0
2, 26880, Note_on_c, 0, 76, 58
2, 26939, Note_on_c, 0, 76, 0
2, 26940, Note_on_c, 0, 72, 58
2, 26999, Note_on_c, 0, 72, 0
2, 27000, Note_on_c, 0, 71, 59
2, 27119, Note_on_c, 0, 71, 0
2, 27120, Note_on_c, 0, 59, 59
2, 27120, Note_on_c, 0, 74, 59
2, 27179, Note_on_c, 0, 74, 0
2, 27179, Note_on_c, 0, 59, 0
2, 27180, Note_on_c, 0, 72, 59
2, 27239, Note_on_c, 0, 72, 0
2, 27240, Note_on_c, 0, 69, 59
2, 27299, Note_on_c, 0, 69, 0
2, 27300, Note_on_c, 0, 74, 59
2, 27300, Note_on_c, 0, 60, 59
2, 27359, Note_on_c, 0, 60, 0
2, 27359, Note_on_c, 0, 74, 0
2, 27360, Note_on_c, 0, 67, 59
2, 27479, Note_on_c, 0, 67, 0
2, 27540, Note_on_c, 0, 71, 49
2, 27599, Note_on_c, 0, 71, 0
2, 27600, Note_on_c, 0, 72, 50
2, 27659, Note_on_c, 0, 72, 0
2, 27660, Note_on_c, 0, 74, 51
2, 27719, Note_on_c, 0, 74, 0
2, 27720, Note_on_c, 0, 67, 53
2, 27840, Note_on_c, 0, 67, 0
2, 27840, Note_on_c, 0, 67, 53
2, 27892, Note_on_c, 0, 71, 53
2, 27900, Note_on_c, 0, 67, 0
2, 27900, Note_on_c, 0, 69, 53
2, 27906, Note_on_c, 0, 71, 0
2, 27959, Note_on_c, 0, 69, 0
2, 27960, Note_on_c, 0, 67, 54
2, 28019, Note_on_c, 0, 67, 0
2, 28020, Note_on_c, 0, 69, 54
2, 28079, Note_on_c, 0, 69, 0
2, 28080, Note_on_c, 0, 71, 55
2, 28199, Note_on_c, 0, 71, 0
2, 28200, Note_on_c, 0, 67, 57
2, 28260, Note_on_c, 0, 67, 0
2, 28260, Note_on_c, 0, 71, 56
2, 28319, Note_on_c, 0, 71, 0
2, 28320, Note_on_c, 0, 72, 56
2, 28379, Note_on_c, 0, 72, 0
2, 28380, Note_on_c, 0, 74, 56
2, 28439, Note_on_c, 0, 74, 0
2, 28440, Note_on_c, 0, 67, 56
2, 28559, Note_on_c, 0, 67, 0
2, 28560, Note_on_c, 0, 67, 57
2, 28612, Note_on_c, 0, 69, 56
2, 28618, Note_on_c, 0, 69, 0
2, 28620, Note_on_c, 0, 67, 0
2, 28620, Note_on_c, 0, 67, 56
2, 28679, Note_on_c, 0, 67, 0
2, 28680, Note_on_c, 0, 66, 56
2, 28739, Note_on_c, 0, 66, 0
2, 28740, Note_on_c, 0, 67, 56
2, 28799, Note_on_c, 0, 67, 0
2, 28800, Note_on_c, 0, 69, 56
2, 28919, Note_on_c, 0, 69, 0
2, 28980, Note_on_c, 0, 71, 56
2, 29039, Note_on_c, 0, 71, 0
2, 29040, Note_on_c, 0, 72, 56
2, 29099, Note_on_c, 0, 72, 0
2, 29100, Note_on_c, 0, 74, 56
2, 29159, Note_on_c, 0, 74, 0
2, 29160, Note_on_c, 0, 67, 56
2, 29279, Note_on_c, 0, 67, 0
2, 29280, Note_on_c, 0, 67, 57
2, 29339, Note_on_c, 0, 67, 0
2, 29340, Note_on_c, 0, 67, 56
2, 29399, Note_on_c, 0, 67, 0
2, 29400, Note_on_c, 0, 69, 57
2, 29459, Note_on_c, 0, 69, 0
2, 29460, Note_on_c, 0, 71, 57
2, 29519, Note_on_c, 0, 71, 0
2, 29520, Note_on_c, 0, 72, 57
2, 29639, Note_on_c, 0, 72, 0
2, 29640, Note_on_c, 0, 76, 57
2, 29699, Note_on_c, 0, 76, 0
2, 29700, Note_on_c, 0, 79, 57
2, 29759, Note_on_c, 0, 79, 0
2, 29760, Note_on_c, 0, 76, 58
2, 29819, Note_on_c, 0, 76, 0
2, 29820, Note_on_c, 0, 72, 58
2, 29879, Note_on_c, 0, 72, 0
2, 29880, Note_on_c, 0, 71, 59
2, 29999, Note_on_c, 0, 71, 0
2, 30000, Note_on_c, 0, 59, 59
2, 30000, Note_on_c, 0, 74, 59
2, 30059, Note_on_c, 0, 74, 0
2, 30059, Note_on_c, 0, 59, 0
2, 30060, Note_on_c, 0, 72, 59
2, 30119, Note_on_c, 0, 72, 0
2, 30120, Note_on_c, 0, 69, 59
2, 30179, Note_on_c, 0, 69, 0
2, 30180, Note_on_c, 0, 74, 59
2, 30180, Note_on_c, 0, 60, 59
2, 30239, Note_on_c, 0, 60, 0
2, 30239, Note_on_c, 0, 74, 0
2, 30240, Note_on_c, 0, 67, 59
2, 30359, Note_on_c, 0, 67, 0
2, 30412, Note_on_c, 0, 69, 56
2, 30418, Note_on_c, 0, 69, 0
2, 30420, Note_on_c, 0, 67, 56
2, 30479, Note_on_c, 0, 67, 0
2, 30480, Note_on_c, 0, 66, 56
2, 30539, Note_on_c, 0, 66, 0
2, 30540, Note_on_c, 0, 67, 56
2, 30599, Note_on_c, 0, 67, 0
2, 30600, Note_on_c, 0, 69, 60
2, 30658, Note_on_c, 0, 69, 0
2, 30660, Note_on_c, 0, 71, 63
2, 30718, Note_on_c, 0, 71, 0
2, 30720, Note_on_c, 0, 73, 71
2, 30778, Note_on_c, 0, 73, 0
2, 30780, Note_on_c, 0, 74, 81
2, 30838, Note_on_c, 0, 74, 0
2, 30840, Note_on_c, 0, 76, 88
2, 30898, Note_on_c, 0, 76, 0
2, 30900, Note_on_c, 0, 78, 97
2, 30958, Note_on_c, 0, 78, 0
2, 30960, Note_on_c, 0, 81, 56
2, 31079, Note_on_c, 0, 81, 0
2, 31080, Note_on_c, 0, 79, 57
2, 31140, Note_on_c, 0, 79, 0
2, 31140, Note_on_c, 0, 78, 57
2, 31199, Note_on_c, 0, 78, 0
2, 31200, Note_on_c, 0, 76, 57
2, 31259, Note_on_c, 0, 76, 0
2, 31260, Note_on_c, 0, 74, 57
2, 31319, Note_on_c, 0, 74, 0
2, 31320, Note_on_c, 0, 73, 57
2, 31379, Note_on_c, 0, 73, 0
2, 31380, Note_on_c, 0, 71, 57
2, 31439, Note_on_c, 0, 71, 0
2, 31440, Note_on_c, 0, 69, 57
2, 31499, Note_on_c, 0, 69, 0
2, 31500, Note_on_c, 0, 76, 57
2, 31559, Note_on_c, 0, 76, 0
2, 31560, Note_on_c, 0, 73, 57
2, 31619, Note_on_c, 0, 73, 0
2, 31620, Note_on_c, 0, 67, 57
2, 31679, Note_on_c, 0, 67, 0
2, 31680, Note_on_c, 0, 66, 57
2, 31799, Note_on_c, 0, 66, 0
2, 31800, Note_on_c, 0, 69, 57
2, 31859, Note_on_c, 0, 69, 0
2, 31860, Note_on_c, 0, 74, 57
2, 31920, Note_on_c, 0, 74, 0
2, 31920, Note_on_c, 0, 74, 57
2, 31980, Note_on_c, 0, 74, 0
2, 31980, Note_on_c, 0, 74, 57
2, 32040, Note_on_c, 0, 74, 0
2, 32040, Note_on_c, 0, 71, 57
2, 32159, Note_on_c, 0, 71, 0
2, 32160, Note_on_c, 0, 67, 57
2, 32219, Note_on_c, 0, 67, 0
2, 32220, Note_on_c, 0, 74, 57
2, 32279, Note_on_c, 0, 74, 0
2, 32280, Note_on_c, 0, 74, 57
2, 32339, Note_on_c, 0, 74, 0
2, 32340, Note_on_c, 0, 74, 57
2, 32399, Note_on_c, 0, 74, 0
2, 32400, Note_on_c, 0, 71, 57
2, 32519, Note_on_c, 0, 71, 0
2, 32520, Note_on_c, 0, 67, 57
2, 32579, Note_on_c, 0, 67, 0
2, 32580, Note_on_c, 0, 74, 57
2, 32639, Note_on_c, 0, 74, 0
2, 32640, Note_on_c, 0, 74, 57
2, 32699, Note_on_c, 0, 74, 0
2, 32700, Note_on_c, 0, 74, 57
2, 32759, Note_on_c, 0, 74, 0
2, 32760, Note_on_c, 0, 71, 57
2, 32819, Note_on_c, 0, 71, 0
2, 32820, Note_on_c, 0, 67, 57
2, 32879, Note_on_c, 0, 67, 0
2, 32880, Note_on_c, 0, 64, 57
2, 32939, Note_on_c, 0, 64, 0
2, 32940, Note_on_c, 0, 66, 57
2, 32999, Note_on_c, 0, 66, 0
2, 33000, Note_on_c, 0, 67, 57
2, 33059, Note_on_c, 0, 67, 0
2, 33060, Note_on_c, 0, 64, 57
2, 33119, Note_on_c, 0, 64, 0
2, 33120, Note_on_c, 0, 62, 57
2, 33239, Note_on_c, 0, 62, 0
2, 33300, Note_on_c, 0, 66, 57
2, 33359, Note_on_c, 0, 66, 0
2, 33360, Note_on_c, 0, 64, 57
2, 33419, Note_on_c, 0, 64, 0
2, 33420, Note_on_c, 0, 62, 57
2, 33479, Note_on_c, 0, 62, 0
2, 33480, Note_on_c, 0, 69, 57
2, 33599, Note_on_c, 0, 69, 0
2, 33660, Note_on_c, 0, 69, 57
2, 33719, Note_on_c, 0, 69, 0
2, 33720, Note_on_c, 0, 67, 57
2, 33779, Note_on_c, 0, 67, 0
2, 33780, Note_on_c, 0, 66, 57
2, 33839, Note_on_c, 0, 66, 0
2, 33840, Note_on_c, 0, 72, 57
2, 33959, Note_on_c, 0, 72, 0
2, 34020, Note_on_c, 0, 72, 57
2, 34079, Note_on_c, 0, 72, 0
2, 34080, Note_on_c, 0, 71, 57
2, 34139, Note_on_c, 0, 71, 0
2, 34140, Note_on_c, 0, 69, 57
2, 34199, Note_on_c, 0, 69, 0
2, 34200, Note_on_c, 0, 76, 102
2, 34319, Note_on_c, 0, 76, 0
2, 34320, Note_on_c, 0, 74, 57
2, 34379, Note_on_c, 0, 74, 0
2, 34380, Note_on_c, 0, 72, 57
2, 34439, Note_on_c, 0, 72, 0
2, 34440, Note_on_c, 0, 71, 57
2, 34499, Note_on_c, 0, 71, 0
2, 34500, Note_on_c, 0, 69, 57
2, 34559, Note_on_c, 0, 69, 0
2, 34560, Note_on_c, 0, 67, 56
2, 34619, Note_on_c, 0, 67, 0
2, 34620, Note_on_c, 0, 66, 56
2, 34679, Note_on_c, 0, 66, 0
2, 34680, Note_on_c, 0, 64, 55
2, 34739, Note_on_c, 0, 64, 0
2, 34740, Note_on_c, 0, 62, 55
2, 34799, Note_on_c, 0, 62, 0
2, 34800, Note_on_c, 0, 64, 55
2, 34859, Note_on_c, 0, 64, 0
2, 34860, Note_on_c, 0, 66, 55
2, 34919, Note_on_c, 0, 66, 0
2, 34920, Note_on_c, 0, 67, 55
2, 34979, Note_on_c, 0, 67, 0
2, 34980, Note_on_c, 0, 69, 55
2, 35039, Note_on_c, 0, 69, 0
2, 35040, Note_on_c, 0, 70, 55
2, 35099, Note_on_c, 0, 70, 0
2, 35100, Note_on_c, 0, 71, 55
2, 35159, Note_on_c, 0, 71, 0
2, 35160, Note_on_c, 0, 72, 55
2, 35219, Note_on_c, 0, 72, 0
2, 35220, Note_on_c, 0, 74, 55
2, 35279, Note_on_c, 0, 74, 0
2, 35280, Note_on_c, 0, 67, 57
2, 35400, Note_on_c, 0, 67, 0
2, 35400, Note_on_c, 0, 67, 60
2, 35452, Note_on_c, 0, 71, 55
2, 35460, Note_on_c, 0, 67, 0
2, 35460, Note_on_c, 0, 69, 55
2, 35466, Note_on_c, 0, 71, 0
2, 35519, Note_on_c, 0, 69, 0
2, 35520, Note_on_c, 0, 67, 55
2, 35579, Note_on_c, 0, 67, 0
2, 35580, Note_on_c, 0, 69, 55
2, 35639, Note_on_c, 0, 69, 0
2, 35640, Note_on_c, 0, 71, 55
2, 35759, Note_on_c, 0, 71, 0
2, 35760, Note_on_c, 0, 67, 60
2, 35820, Note_on_c, 0, 67, 0
2, 35820, Note_on_c, 0, 71, 57
2, 35879, Note_on_c, 0, 71, 0
2, 35880, Note_on_c, 0, 72, 57
2, 35939, Note_on_c, 0, 72, 0
2, 35940, Note_on_c, 0, 74, 57
2, 35999, Note_on_c, 0, 74, 0
2, 36000, Note_on_c, 0, 67, 57
2, 36119, Note_on_c, 0, 67, 0
2, 36120, Note_on_c, 0, 67, 60
2, 36172, Note_on_c, 0, 69, 59
2, 36178, Note_on_c, 0, 69, 0
2, 36180, Note_on_c, 0, 67, 0
2, 36180, Note_on_c, 0, 67, 59
2, 36239, Note_on_c, 0, 67, 0
2, 36240, Note_on_c, 0, 66, 60
2, 36299, Note_on_c, 0, 66, 0
2, 36300, Note_on_c, 0, 67, 60
2, 36359, Note_on_c, 0, 67, 0
2, 36360, Note_on_c, 0, 69, 60
2, 36479, Note_on_c, 0, 69, 0
2, 36540, Note_on_c, 0, 71, 62
2, 36599, Note_on_c, 0, 71, 0
2, 36600, Note_on_c, 0, 72, 62
2, 36659, Note_on_c, 0, 72, 0
2, 36660, Note_on_c, 0, 74, 62
2, 36719, Note_on_c, 0, 74, 0
2, 36720, Note_on_c, 0, 67, 62
2, 36839, Note_on_c, 0, 67, 0
2, 36840, Note_on_c, 0, 67, 65
2, 36899, Note_on_c, 0, 67, 0
2, 36900, Note_on_c, 0, 67, 63
2, 36959, Note_on_c, 0, 67, 0
2, 36960, Note_on_c, 0, 69, 64
2, 37019, Note_on_c, 0, 69, 0
2, 37020, Note_on_c, 0, 71, 65
2, 37079, Note_on_c, 0, 71, 0
2, 37080, Note_on_c, 0, 72, 66
2, 37199, Note_on_c, 0, 72, 0
2, 37200, Note_on_c, 0, 76, 67
2, 37259, Note_on_c, 0, 76, 0
2, 37260, Note_on_c, 0, 79, 68
2, 37319, Note_on_c, 0, 79, 0
2, 37320, Note_on_c, 0, 76, 69
2, 37379, Note_on_c, 0, 76, 0
2, 37380, Note_on_c, 0, 72, 69
2, 37439, Note_on_c, 0, 72, 0
2, 37440, Note_on_c, 0, 71, 70
2, 37559, Note_on_c, 0, 71, 0
2, 37560, Note_on_c, 0, 74, 72
2, 37619, Note_on_c, 0, 74, 0
2, 37620, Note_on_c, 0, 72, 73
2, 37679, Note_on_c, 0, 72, 0
2, 37680, Note_on_c, 0, 69, 73
2, 37739, Note_on_c, 0, 69, 0
2, 37740, Note_on_c, 0, 74, 74
2, 37799, Note_on_c, 0, 74, 0
2, 37800, Note_on_c, 0, 67, 75
2, 37919, Note_on_c, 0, 67, 0
2, 37972, Note_on_c, 0, 69, 56
2, 37978, Note_on_c, 0, 69, 0
2, 37980, Note_on_c, 0, 67, 56
2, 38039, Note_on_c, 0, 67, 0
2, 38040, Note_on_c, 0, 66, 56
2, 38099, Note_on_c, 0, 66, 0
2, 38100, Note_on_c, 0, 67, 56
2, 38159, Note_on_c, 0, 67, 0
2, 38160, Note_on_c, 0, 69, 60
2, 38218, Note_on_c, 0, 69, 0
2, 38220, Note_on_c, 0, 71, 63
2, 38278, Note_on_c, 0, 71, 0
2, 38280, Note_on_c, 0, 73, 71
2, 38338, Note_on_c, 0, 73, 0
2, 38340, Note_on_c, 0, 74, 81
2, 38398, Note_on_c, 0, 74, 0
2, 38400, Note_on_c, 0, 76, 88
2, 38458, Note_on_c, 0, 76, 0
2, 38460, Note_on_c, 0, 78, 97
2, 38518, Note_on_c, 0, 78, 0
2, 38520, Note_on_c, 0, 81, 56
2, 38639, Note_on_c, 0, 81, 0
2, 38640, Note_on_c, 0, 79, 57
2, 38700, Note_on_c, 0, 79, 0
2, 38700, Note_on_c, 0, 78, 57
2, 38759, Note_on_c, 0, 78, 0
2, 38760, Note_on_c, 0, 76, 57
2, 38819, Note_on_c, 0, 76, 0
2, 38820, Note_on_c, 0, 74, 57
2, 38879, Note_on_c, 0, 74, 0
2, 38880, Note_on_c, 0, 73, 57
2, 38939, Note_on_c, 0, 73, 0
2, 38940, Note_on_c, 0, 71, 57
2, 38999, Note_on_c, 0, 71, 0
2, 39000, Note_on_c, 0, 69, 57
2, 39059, Note_on_c, 0, 69, 0
2, 39060, Note_on_c, 0, 76, 57
2, 39119, Note_on_c, 0, 76, 0
2, 39120, Note_on_c, 0, 73, 57
2, 39179, Note_on_c, 0, 73, 0
2, 39180, Note_on_c, 0, 67, 57
2, 39239, Note_on_c, 0, 67, 0
2, 39240, Note_on_c, 0, 66, 57
2, 39359, Note_on_c, 0, 66, 0
2, 39360, Note_on_c, 0, 69, 57
2, 39419, Note_on_c, 0, 69, 0
2, 39420, Note_on_c, 0, 74, 57
2, 39480, Note_on_c, 0, 74, 0
2, 39480, Note_on_c, 0, 74, 57
2, 39540, Note_on_c, 0, 74, 0
2, 39540, Note_on_c, 0, 74, 57
2, 39600, Note_on_c, 0, 74, 0
2, 39600, Note_on_c, 0, 71, 57
2, 39719, Note_on_c, 0, 71, 0
2, 39720, Note_on_c, 0, 67, 57
2, 39779, Note_on_c, 0, 67, 0
2, 39780, Note_on_c, 0, 74, 57
2, 39839, Note_on_c, 0, 74, 0
2, 39840, Note_on_c, 0, 74, 57
2, 39899, Note_on_c, 0, 74, 0
2, 39900, Note_on_c, 0, 74, 57
2, 39959, Note_on_c, 0, 74, 0
2, 39960, Note_on_c, 0, 71, 57
2, 40079, Note_on_c, 0, 71, 0
2, 40080, Note_on_c, 0, 67, 57
2, 40139, Note_on_c, 0, 67, 0
2, 40140, Note_on_c, 0, 74, 57
2, 40199, Note_on_c, 0, 74, 0
2, 40200, Note_on_c, 0, 74, 57
2, 40259, Note_on_c, 0, 74, 0
2, 40260, Note_on_c, 0, 74, 57
2, 40319, Note_on_c, 0, 74, 0
2, 40320, Note_on_c, 0, 71, 57
2, 40379, Note_on_c, 0, 71, 0
2, 40380, Note_on_c, 0, 67, 57
2, 40439, Note_on_c, 0, 67, 0
2, 40440, Note_on_c, 0, 64, 57
2, 40499, Note_on_c, 0, 64, 0
2, 40500, Note_on_c, 0, 66, 57
2, 40559, Note_on_c, 0, 66, 0
2, 40560, Note_on_c, 0, 67, 57
2, 40619, Note_on_c, 0, 67, 0
2, 40620, Note_on_c, 0, 64, 57
2, 40679, Note_on_c, 0, 64, 0
2, 40680, Note_on_c, 0, 62, 57
2, 40799, Note_on_c, 0, 62, 0
2, 40860, Note_on_c, 0, 66, 57
2, 40919, Note_on_c, 0, 66, 0
2, 40920, Note_on_c, 0, 64, 57
2, 40979, Note_on_c, 0, 64, 0
2, 40980, Note_on_c, 0, 62, 57
2, 41039, Note_on_c, 0, 62, 0
2, 41040, Note_on_c, 0, 69, 57
2, 41159, Note_on_c, 0, 69, 0
2, 41220, Note_on_c, 0, 69, 57
2, 41279, Note_on_c, 0, 69, 0
2, 41280, Note_on_c, 0, 67, 57
2, 41339, Note_on_c, 0, 67, 0
2, 41340, Note_on_c, 0, 66, 57
2, 41399, Note_on_c, 0, 66, 0
2, 41400, Note_on_c, 0, 72, 57
2, 41519, Note_on_c, 0, 72, 0
2, 41580, Note_on_c, 0, 72, 57
2, 41639, Note_on_c, 0, 72, 0
2, 41640, Note_on_c, 0, 71, 57
2, 41699, Note_on_c, 0, 71, 0
2, 41700, Note_on_c, 0, 69, 57
2, 41759, Note_on_c, 0, 69, 0
2, 41760, Note_on_c, 0, 76, 102
2, 41879, Note_on_c, 0, 76, 0
2, 41880, Note_on_c, 0, 74, 57
2, 41939, Note_on_c, 0, 74, 0
2, 41940, Note_on_c, 0, 72, 57
2, 41999, Note_on_c, 0, 72, 0
2, 42000, Note_on_c, 0, 71, 57
2, 42059, Note_on_c, 0, 71, 0
2, 42060, Note_on_c, 0, 69, 57
2, 42119, Note_on_c, 0, 69, 0
2, 42120, Note_on_c, 0, 67, 56
2, 42179, Note_on_c, 0, 67, 0
2, 42180, Note_on_c, 0, 66, 56
2, 42239, Note_on_c, 0, 66, 0
2, 42240, Note_on_c, 0, 64, 55
2, 42299, Note_on_c, 0, 64, 0
2, 42300, Note_on_c, 0, 62, 55
2, 42359, Note_on_c, 0, 62, 0
2, 42360, Note_on_c, 0, 64, 55
2, 42419, Note_on_c, 0, 64, 0
2, 42420, Note_on_c, 0, 66, 55
2, 42479, Note_on_c, 0, 66, 0
2, 42480, Note_on_c, 0, 67, 55
2, 42539, Note_on_c, 0, 67, 0
2, 42540, Note_on_c, 0, 69, 55
2, 42599, Note_on_c, 0, 69, 0
2, 42600, Note_on_c, 0, 70, 55
2, 42659, Note_on_c, 0, 70, 0
2, 42660, Note_on_c, 0, 71, 55
2, 42719, Note_on_c, 0, 71, 0
2, 42720, Note_on_c, 0, 72, 55
2, 42779, Note_on_c, 0, 72, 0
2, 42780, Note_on_c, 0, 74, 55
2, 42839, Note_on_c, 0, 74, 0
2, 42840, Note_on_c, 0, 67, 57
2, 42960, Note_on_c, 0, 67, 0
2, 42960, Note_on_c, 0, 67, 60
2, 43012, Note_on_c, 0, 71, 55
2, 43020, Note_on_c, 0, 67, 0
2, 43020, Note_on_c, 0, 69, 55
2, 43026, Note_on_c, 0, 71, 0
2, 43079, Note_on_c, 0, 69, 0
2, 43080, Note_on_c, 0, 67, 55
2, 43139, Note_on_c, 0, 67, 0
2, 43140, Note_on_c, 0, 69, 55
2, 43199, Note_on_c, 0, 69, 0
2, 43200, Note_on_c, 0, 71, 55
2, 43319, Note_on_c, 0, 71, 0
2, 43320, Note_on_c, 0, 67, 60
2, 43380, Note_on_c, 0, 67, 0
2, 43380, Note_on_c, 0, 71, 57
2, 43439, Note_on_c, 0, 71, 0
2, 43440, Note_on_c, 0, 72, 57
2, 43499, Note_on_c, 0, 72, 0
2, 43500, Note_on_c, 0, 74, 57
2, 43559, Note_on_c, 0, 74, 0
2, 43560, Note_on_c, 0, 67, 57
2, 43679, Note_on_c, 0, 67, 0
2, 43680, Note_on_c, 0, 67, 60
2, 43732, Note_on_c, 0, 69, 59
2, 43738, Note_on_c, 0, 69, 0
2, 43740, Note_on_c, 0, 67, 0
2, 43740, Note_on_c, 0, 67, 59
2, 43799, Note_on_c, 0, 67, 0
2, 43800, Note_on_c, 0, 66, 60
2, 43859, Note_on_c, 0, 66, 0
2, 43860, Note_on_c, 0, 67, 60
2, 43919, Note_on_c, 0, 67, 0
2, 43920, Note_on_c, 0, 69, 60
2, 44039, Note_on_c, 0, 69, 0
2, 44100, Note_on_c, 0, 71, 62
2, 44159, Note_on_c, 0, 71, 0
2, 44160, Note_on_c, 0, 72, 62
2, 44219, Note_on_c, 0, 72, 0
2, 44220, Note_on_c, 0, 74, 62
2, 44279, Note_on_c, 0, 74, 0
2, 44280, Note_on_c, 0, 67, 62
2, 44399, Note_on_c, 0, 67, 0
2, 44400, Note_on_c, 0, 67, 65
2, 44459, Note_on_c, 0, 67, 0
2, 44460, Note_on_c, 0, 67, 63
2, 44519, Note_on_c, 0, 67, 0
2, 44520, Note_on_c, 0, 69, 64
2, 44579, Note_on_c, 0, 69, 0
2, 44580, Note_on_c, 0, 71, 65
2, 44639, Note_on_c, 0, 71, 0
2, 44640, Note_on_c, 0, 72, 66
2, 44759, Note_on_c, 0, 72, 0
2, 44760, Note_on_c, 0, 76, 67
2, 44819, Note_on_c, 0, 76, 0
2, 44820, Note_on_c, 0, 79, 68
2, 44879, Note_on_c, 0, 79, 0
2, 44880, Note_on_c, 0, 76, 69
2, 44939, Note_on_c, 0, 76, 0
2, 44940, Note_on_c, 0, 72, 69
2, 44999, Note_on_c, 0, 72, 0
2, 45000, Note_on_c, 0, 71, 70
2, 45119, Note_on_c, 0, 71, 0
2, 45120, Note_on_c, 0, 74, 72
2, 45179, Note_on_c, 0, 74, 0
2, 45180, Note_on_c, 0, 72, 73
2, 45239, Note_on_c, 0, 72, 0
2, 45240, Note_on_c, 0, 69, 73
2, 45299, Note_on_c, 0, 69, 0
2, 45300, Note_on_c, 0, 74, 74
2, 45359, Note_on_c, 0, 74, 0
2, 45360, Note_on_c, 0, 67, 75
2, 45479, Note_on_c, 0, 67, 0
2, 45540, Note_on_c, 0, 71, 60
2, 45599, Note_on_c, 0, 71, 0
2, 45600, Note_on_c, 0, 72, 60
2, 45659, Note_on_c, 0, 72, 0
2, 45660, Note_on_c, 0, 74, 60
2, 45719, Note_on_c, 0, 74, 0
2, 45720, Note_on_c, 0, 69, 60
2, 45839, Note_on_c, 0, 69, 0
2, 45840, Note_on_c, 0, 69, 60
2, 45870, Note_on_c, 0, 69, 60
2, 45885, Note_on_c, 0, 69, 0
2, 45885, Note_on_c, 0, 71, 60
2, 45900, Note_on_c, 0, 71, 0
2, 45900, Note_on_c, 0, 69, 0
2, 45900, Note_on_c, 0, 72, 61
2, 45989, Note_on_c, 0, 72, 0
2, 45990, Note_on_c, 0, 71, 62
2, 46019, Note_on_c, 0, 71, 0
2, 46020, Note_on_c, 0, 69, 62
2, 46079, Note_on_c, 0, 69, 0
2, 46080, Note_on_c, 0, 67, 62
2, 46199, Note_on_c, 0, 67, 0
2, 46200, Note_on_c, 0, 67, 62
2, 46252, Note_on_c, 0, 69, 62
2, 46258, Note_on_c, 0, 69, 0
2, 46260, Note_on_c, 0, 67, 0
2, 46260, Note_on_c, 0, 67, 62
2, 46319, Note_on_c, 0, 67, 0
2, 46320, Note_on_c, 0, 66, 62
2, 46379, Note_on_c, 0, 66, 0
2, 46380, Note_on_c, 0, 67, 62
2, 46439, Note_on_c, 0, 67, 0
2, 46440, Note_on_c, 0, 64, 62
2, 46499, Note_on_c, 0, 64, 0
2, 46500, Note_on_c, 0, 66, 63
2, 46559, Note_on_c, 0, 66, 0
2, 46560, Note_on_c, 0, 67, 63
2, 46619, Note_on_c, 0, 67, 0
2, 46620, Note_on_c, 0, 69, 64
2, 46679, Note_on_c, 0, 69, 0
2, 46680, Note_on_c, 0, 71, 65
2, 46739, Note_on_c, 0, 71, 0
2, 46740, Note_on_c, 0, 69, 65
2, 46799, Note_on_c, 0, 69, 0
2, 46800, Note_on_c, 0, 69, 65
2, 46919, Note_on_c, 0, 69, 0
2, 46920, Note_on_c, 0, 62, 65
2, 46979, Note_on_c, 0, 62, 0
2, 46980, Note_on_c, 0, 71, 65
2, 47039, Note_on_c, 0, 71, 0
2, 47040, Note_on_c, 0, 72, 65
2, 47099, Note_on_c, 0, 72, 0
2, 47100, Note_on_c, 0, 74, 65
2, 47159, Note_on_c, 0, 74, 0
2, 47160, Note_on_c, 0, 69, 65
2, 47279, Note_on_c, 0, 69, 0
2, 47280, Note_on_c, 0, 69, 62
2, 47310, Note_on_c, 0, 69, 62
2, 47325, Note_on_c, 0, 69, 0
2, 47325, Note_on_c, 0, 71, 62
2, 47340, Note_on_c, 0, 71, 0
2, 47340, Note_on_c, 0, 69, 0
2, 47340, Note_on_c, 0, 72, 62
2, 47400, Note_on_c, 0, 72, 0
2, 47400, Note_on_c, 0, 71, 64
2, 47459, Note_on_c, 0, 71, 0
2, 47460, Note_on_c, 0, 69, 63
2, 47519, Note_on_c, 0, 69, 0
2, 47520, Note_on_c, 0, 67, 63
2, 47699, Note_on_c, 0, 67, 0
2, 47700, Note_on_c, 0, 79, 63
2, 47819, Note_on_c, 0, 79, 0
2, 47820, Note_on_c, 0, 76, 63
2, 47879, Note_on_c, 0, 76, 0
2, 47880, Note_on_c, 0, 74, 63
2, 47999, Note_on_c, 0, 74, 0
2, 48000, Note_on_c, 0, 71, 63
2, 48059, Note_on_c, 0, 71, 0
2, 48060, Note_on_c, 0, 69, 63
2, 48179, Note_on_c, 0, 69, 0
2, 48180, Note_on_c, 0, 74, 63
2, 48239, Note_on_c, 0, 74, 0
2, 48240, Note_on_c, 0, 71, 63
2, 48419, Note_on_c, 0, 71, 0
2, 48420, Note_on_c, 0, 79, 63
2, 48539, Note_on_c, 0, 79, 0
2, 48540, Note_on_c, 0, 76, 64
2, 48599, Note_on_c, 0, 76, 0
2, 48600, Note_on_c, 0, 74, 64
2, 48719, Note_on_c, 0, 74, 0
2, 48720, Note_on_c, 0, 71, 63
2, 48779, Note_on_c, 0, 71, 0
2, 48780, Note_on_c, 0, 72, 61
2, 48839, Note_on_c, 0, 72, 0
2, 48840, Note_on_c, 0, 69, 60
2, 48899, Note_on_c, 0, 69, 0
2, 48900, Note_on_c, 0, 74, 57
2, 48959, Note_on_c, 0, 74, 0
2, 48960, Note_on_c, 0, 67, 54
2, 49081, Note_on_c, 0, 67, 0
2, 49140, Note_on_c, 0, 71, 45
2, 49140, Note_on_c, 0, 79, 45
2, 49261, Note_on_c, 0, 79, 0
2, 49261, Note_on_c, 0, 71, 0
2, 49320, Note_on_c, 0, 59, 35
2, 49320, Note_on_c, 0, 67, 35
2, 49441, Note_on_c, 0, 67, 0
2, 49441, Note_on_c, 0, 59, 0
2, 49441, End_track
3, 0, Start_track
3, 0, MIDI_port, 0
3, 0, Control_c, 0, 7, 100
3, 0, Control_c, 0, 10, 89
3, 0, Control_c, 0, 93, 22
3, 0, Control_c, 0, 91, 21
3, 0, Control_c, 0, 0, 0
3, 0, Control_c, 0, 32, 0
3, 0, Program_c, 0, 0
3, 0, Note_on_c, 0, 55, 57
3, 0, Note_on_c, 0, 59, 57
3, 239, Note_on_c, 0, 59, 0
3, 239, Note_on_c, 0, 55, 0
3, 240, Note_on_c, 0, 60, 57
3, 240, Note_on_c, 0, 54, 57
3, 479, Note_on_c, 0, 54, 0
3, 479, Note_on_c, 0, 60, 0
3, 480, Note_on_c, 0, 52, 53
3, 480, Note_on_c, 0, 55, 53
3, 595, Note_on_c, 0, 55, 0
3, 595, Note_on_c, 0, 52, 0
3, 960, Note_on_c, 0, 57, 49
3, 960, Note_on_c, 0, 50, 49
3, 1199, Note_on_c, 0, 50, 0
3, 1199, Note_on_c, 0, 57, 0
3, 1200, Note_on_c, 0, 50, 50
3, 1200, Note_on_c, 0, 55, 50
3, 1439, Note_on_c, 0, 55, 0
3, 1439, Note_on_c, 0, 50, 0
3, 1440, Note_on_c, 0, 50, 50
3, 1440, Note_on_c, 0, 54, 50
3, 1555, Note_on_c, 0, 54, 0
3, 1555, Note_on_c, 0, 50, 0
3, 1920, Note_on_c, 0, 55, 50
3, 1979, Note_on_c, 0, 55, 0
3, 1980, Note_on_c, 0, 55, 50
3, 2039, Note_on_c, 0, 55, 0
3, 2040, Note_on_c, 0, 52, 50
3, 2099, Note_on_c, 0, 52, 0
3, 2100, Note_on_c, 0, 55, 50
3, 2159, Note_on_c, 0, 55, 0
3, 2160, Note_on_c, 0, 55, 50
3, 2219, Note_on_c, 0, 55, 0
3, 2220, Note_on_c, 0, 65, 58
3, 2279, Note_on_c, 0, 65, 0
3, 2280, Note_on_c, 0, 55, 57
3, 2339, Note_on_c, 0, 55, 0
3, 2340, Note_on_c, 0, 65, 57
3, 2399, Note_on_c, 0, 65, 0
3, 2400, Note_on_c, 0, 55, 50
3, 2459, Note_on_c, 0, 55, 0
3, 2880, Note_on_c, 0, 59, 56
3, 2999, Note_on_c, 0, 59, 0
3, 3000, Note_on_c, 0, 60, 55
3, 3119, Note_on_c, 0, 60, 0
3, 3120, Note_on_c, 0, 62, 53
3, 3239, Note_on_c, 0, 62, 0
3, 3240, Note_on_c, 0, 50, 47
3, 3359, Note_on_c, 0, 50, 0
3, 3360, Note_on_c, 0, 55, 47
3, 3479, Note_on_c, 0, 55, 0
3, 3480, Note_on_c, 0, 50, 47
3, 3599, Note_on_c, 0, 50, 0
3, 3600, Note_on_c, 0, 43, 48
3, 3719, Note_on_c, 0, 43, 0
3, 3840, Note_on_c, 0, 54, 47
3, 3899, Note_on_c, 0, 54, 0
3, 3900, Note_on_c, 0, 50, 48
3, 3959, Note_on_c, 0, 50, 0
3, 3960, Note_on_c, 0, 54, 48
3, 4019, Note_on_c, 0, 54, 0
3, 4020, Note_on_c, 0, 50, 48
3, 4079, Note_on_c, 0, 50, 0
3, 4080, Note_on_c, 0, 55, 48
3, 4139, Note_on_c, 0, 55, 0
3, 4140, Note_on_c, 0, 50, 48
3, 4199, Note_on_c, 0, 50, 0
3, 4200, Note_on_c, 0, 55, 48
3, 4259, Note_on_c, 0, 55, 0
3, 4260, Note_on_c, 0, 50, 47
3, 4319, Note_on_c, 0, 50, 0
3, 4320, Note_on_c, 0, 57, 45
3, 4439, Note_on_c, 0, 57, 0
3, 4800, Note_on_c, 0, 55, 44
3, 4859, Note_on_c, 0, 55, 0
3, 4860, Note_on_c, 0, 50, 44
3, 4919, Note_on_c, 0, 50, 0
3, 4920, Note_on_c, 0, 55, 44
3, 4979, Note_on_c, 0, 55, 0
3, 4980, Note_on_c, 0, 50, 44
3, 5039, Note_on_c, 0, 50, 0
3, 5040, Note_on_c, 0, 57, 44
3, 5099, Note_on_c, 0, 57, 0
3, 5100, Note_on_c, 0, 50, 44
3, 5159, Note_on_c, 0, 50, 0
3, 5160, Note_on_c, 0, 57, 45
3, 5219, Note_on_c, 0, 57, 0
3, 5220, Note_on_c, 0, 50, 45
3, 5279, Note_on_c, 0, 50, 0
3, 5280, Note_on_c, 0, 55, 45
3, 5399, Note_on_c, 0, 55, 0
3, 6120, Note_on_c, 0, 50, 45
3, 6120, Note_on_c, 0, 54, 45
3, 6239, Note_on_c, 0, 54, 0
3, 6239, Note_on_c, 0, 50, 0
3, 6240, Note_on_c, 0, 55, 45
3, 6240, Note_on_c, 0, 50, 45
3, 6359, Note_on_c, 0, 50, 0
3, 6359, Note_on_c, 0, 55, 0
3, 6600, Note_on_c, 0, 52, 50
3, 6600, Note_on_c, 0, 50, 50
3, 6719, Note_on_c, 0, 50, 0
3, 6719, Note_on_c, 0, 52, 0
3, 6720, Note_on_c, 0, 50, 51
3, 6720, Note_on_c, 0, 54, 51
3, 6839, Note_on_c, 0, 54, 0
3, 6839, Note_on_c, 0, 50, 0
3, 7680, Note_on_c, 0, 55, 38
3, 7680, Note_on_c, 0, 52, 53
3, 7919, Note_on_c, 0, 52, 0
3, 7919, Note_on_c, 0, 55, 0
3, 7920, Note_on_c, 0, 57, 44
3, 7920, Note_on_c, 0, 50, 49
3, 8159, Note_on_c, 0, 50, 0
3, 8159, Note_on_c, 0, 57, 0
3, 8640, Note_on_c, 0, 57, 51
3, 8640, Note_on_c, 0, 50, 51
3, 8879, Note_on_c, 0, 50, 0
3, 8879, Note_on_c, 0, 57, 0
3, 8880, Note_on_c, 0, 50, 51
3, 8880, Note_on_c, 0, 55, 51
3, 9119, Note_on_c, 0, 55, 0
3, 9119, Note_on_c, 0, 50, 0
3, 9600, Note_on_c, 0, 55, 51
3, 9659, Note_on_c, 0, 55, 0
3, 9660, Note_on_c, 0, 55, 54
3, 9719, Note_on_c, 0, 55, 0
3, 9720, Note_on_c, 0, 52, 54
3, 9779, Note_on_c, 0, 52, 0
3, 9780, Note_on_c, 0, 55, 54
3, 9839, Note_on_c, 0, 55, 0
3, 9840, Note_on_c, 0, 55, 51
3, 9899, Note_on_c, 0, 55, 0
3, 9900, Note_on_c, 0, 65, 54
3, 9959, Note_on_c, 0, 65, 0
3, 9960, Note_on_c, 0, 62, 54
3, 10019, Note_on_c, 0, 62, 0
3, 10020, Note_on_c, 0, 65, 54
3, 10079, Note_on_c, 0, 65, 0
3, 10080, Note_on_c, 0, 55, 51
3, 10139, Note_on_c, 0, 55, 0
3, 10140, Note_on_c, 0, 64, 54
3, 10199, Note_on_c, 0, 64, 0
3, 10200, Note_on_c, 0, 60, 54
3, 10259, Note_on_c, 0, 60, 0
3, 10260, Note_on_c, 0, 64, 54
3, 10319, Note_on_c, 0, 64, 0
3, 10320, Note_on_c, 0, 55, 54
3, 10379, Note_on_c, 0, 55, 0
3, 10380, Note_on_c, 0, 60, 54
3, 10439, Note_on_c, 0, 60, 0
3, 10440, Note_on_c, 0, 57, 54
3, 10499, Note_on_c, 0, 57, 0
3, 10500, Note_on_c, 0, 60, 53
3, 10559, Note_on_c, 0, 60, 0
3, 10560, Note_on_c, 0, 52, 53
3, 10679, Note_on_c, 0, 52, 0
3, 10680, Note_on_c, 0, 54, 51
3, 10799, Note_on_c, 0, 54, 0
3, 10800, Note_on_c, 0, 55, 49
3, 10919, Note_on_c, 0, 55, 0
3, 10920, Note_on_c, 0, 50, 54
3, 11039, Note_on_c, 0, 50, 0
3, 11040, Note_on_c, 0, 55, 54
3, 11159, Note_on_c, 0, 55, 0
3, 11160, Note_on_c, 0, 50, 55
3, 11279, Note_on_c, 0, 50, 0
3, 11280, Note_on_c, 0, 43, 57
3, 11399, Note_on_c, 0, 43, 0
3, 11520, Note_on_c, 0, 54, 47
3, 11579, Note_on_c, 0, 54, 0
3, 11580, Note_on_c, 0, 50, 48
3, 11639, Note_on_c, 0, 50, 0
3, 11640, Note_on_c, 0, 54, 48
3, 11699, Note_on_c, 0, 54, 0
3, 11700, Note_on_c, 0, 50, 48
3, 11759, Note_on_c, 0, 50, 0
3, 11760, Note_on_c, 0, 55, 48
3, 11819, Note_on_c, 0, 55, 0
3, 11820, Note_on_c, 0, 50, 48
3, 11879, Note_on_c, 0, 50, 0
3, 11880, Note_on_c, 0, 55, 48
3, 11939, Note_on_c, 0, 55, 0
3, 11940, Note_on_c, 0, 50, 47
3, 11999, Note_on_c, 0, 50, 0
3, 12000, Note_on_c, 0, 57, 45
3, 12119, Note_on_c, 0, 57, 0
3, 12480, Note_on_c, 0, 55, 44
3, 12539, Note_on_c, 0, 55, 0
3, 12540, Note_on_c, 0, 50, 44
3, 12599, Note_on_c, 0, 50, 0
3, 12600, Note_on_c, 0, 55, 44
3, 12659, Note_on_c, 0, 55, 0
3, 12660, Note_on_c, 0, 50, 44
3, 12719, Note_on_c, 0, 50, 0
3, 12720, Note_on_c, 0, 57, 44
3, 12779, Note_on_c, 0, 57, 0
3, 12780, Note_on_c, 0, 50, 44
3, 12839, Note_on_c, 0, 50, 0
3, 12840, Note_on_c, 0, 57, 45
3, 12899, Note_on_c, 0, 57, 0
3, 12900, Note_on_c, 0, 50, 45
3, 12959, Note_on_c, 0, 50, 0
3, 12960, Note_on_c, 0, 55, 45
3, 13079, Note_on_c, 0, 55, 0
3, 13800, Note_on_c, 0, 54, 45
3, 13800, Note_on_c, 0, 50, 45
3, 13919, Note_on_c, 0, 50, 0
3, 13919, Note_on_c, 0, 54, 0
3, 13920, Note_on_c, 0, 50, 45
3, 13920, Note_on_c, 0, 55, 45
3, 14039, Note_on_c, 0, 55, 0
3, 14039, Note_on_c, 0, 50, 0
3, 14280, Note_on_c, 0, 50, 50
3, 14280, Note_on_c, 0, 52, 50
3, 14399, Note_on_c, 0, 52, 0
3, 14399, Note_on_c, 0, 50, 0
3, 14400, Note_on_c, 0, 54, 51
3, 14400, Note_on_c, 0, 50, 51
3, 14519, Note_on_c, 0, 50, 0
3, 14519, Note_on_c, 0, 54, 0
3, 15360, Note_on_c, 0, 55, 38
3, 15360, Note_on_c, 0, 52, 53
3, 15599, Note_on_c, 0, 52, 0
3, 15599, Note_on_c, 0, 55, 0
3, 15600, Note_on_c, 0, 57, 44
3, 15600, Note_on_c, 0, 50, 49
3, 15839, Note_on_c, 0, 50, 0
3, 15839, Note_on_c, 0, 57, 0
3, 16320, Note_on_c, 0, 57, 51
3, 16320, Note_on_c, 0, 50, 51
3, 16559, Note_on_c, 0, 50, 0
3, 16559, Note_on_c, 0, 57, 0
3, 16560, Note_on_c, 0, 50, 51
3, 16560, Note_on_c, 0, 55, 51
3, 16799, Note_on_c, 0, 55, 0
3, 16799, Note_on_c, 0, 50, 0
3, 17280, Note_on_c, 0, 55, 53
3, 17339, Note_on_c, 0, 55, 0
3, 17340, Note_on_c, 0, 55, 53
3, 17399, Note_on_c, 0, 55, 0
3, 17400, Note_on_c, 0, 52, 53
3, 17459, Note_on_c, 0, 52, 0
3, 17460, Note_on_c, 0, 55, 53
3, 17519, Note_on_c, 0, 55, 0
3, 17520, Note_on_c, 0, 55, 53
3, 17579, Note_on_c, 0, 55, 0
3, 17580, Note_on_c, 0, 65, 52
3, 17639, Note_on_c, 0, 65, 0
3, 17640, Note_on_c, 0, 62, 52
3, 17699, Note_on_c, 0, 62, 0
3, 17700, Note_on_c, 0, 65, 52
3, 17759, Note_on_c, 0, 65, 0
3, 17760, Note_on_c, 0, 55, 52
3, 17819, Note_on_c, 0, 55, 0
3, 17820, Note_on_c, 0, 64, 52
3, 17879, Note_on_c, 0, 64, 0
3, 17880, Note_on_c, 0, 60, 52
3, 17939, Note_on_c, 0, 60, 0
3, 17940, Note_on_c, 0, 64, 52
3, 17999, Note_on_c, 0, 64, 0
3, 18000, Note_on_c, 0, 55, 52
3, 18059, Note_on_c, 0, 55, 0
3, 18060, Note_on_c, 0, 60, 52
3, 18119, Note_on_c, 0, 60, 0
3, 18120, Note_on_c, 0, 57, 52
3, 18179, Note_on_c, 0, 57, 0
3, 18180, Note_on_c, 0, 60, 52
3, 18239, Note_on_c, 0, 60, 0
3, 18240, Note_on_c, 0, 52, 52
3, 18359, Note_on_c, 0, 52, 0
3, 18360, Note_on_c, 0, 54, 51
3, 18479, Note_on_c, 0, 54, 0
3, 18480, Note_on_c, 0, 55, 51
3, 18599, Note_on_c, 0, 55, 0
3, 18600, Note_on_c, 0, 50, 51
3, 18719, Note_on_c, 0, 50, 0
3, 18720, Note_on_c, 0, 55, 50
3, 18839, Note_on_c, 0, 55, 0
3, 18840, Note_on_c, 0, 50, 50
3, 18959, Note_on_c, 0, 50, 0
3, 18960, Note_on_c, 0, 43, 50
3, 19079, Note_on_c, 0, 43, 0
3, 19200, Note_on_c, 0, 50, 52
3, 19259, Note_on_c, 0, 50, 0
3, 19260, Note_on_c, 0, 57, 52
3, 19319, Note_on_c, 0, 57, 0
3, 19320, Note_on_c, 0, 60, 51
3, 19379, Note_on_c, 0, 60, 0
3, 19380, Note_on_c, 0, 57, 51
3, 19439, Note_on_c, 0, 57, 0
3, 19440, Note_on_c, 0, 50, 51
3, 19499, Note_on_c, 0, 50, 0
3, 19500, Note_on_c, 0, 57, 51
3, 19559, Note_on_c, 0, 57, 0
3, 19560, Note_on_c, 0, 60, 51
3, 19619, Note_on_c, 0, 60, 0
3, 19620, Note_on_c, 0, 57, 51
3, 19679, Note_on_c, 0, 57, 0
3, 19680, Note_on_c, 0, 50, 51
3, 19739, Note_on_c, 0, 50, 0
3, 19740, Note_on_c, 0, 55, 51
3, 19799, Note_on_c, 0, 55, 0
3, 19800, Note_on_c, 0, 59, 51
3, 19859, Note_on_c, 0, 59, 0
3, 19860, Note_on_c, 0, 55, 52
3, 19919, Note_on_c, 0, 55, 0
3, 19920, Note_on_c, 0, 50, 52
3, 19979, Note_on_c, 0, 50, 0
3, 19980, Note_on_c, 0, 55, 52
3, 20039, Note_on_c, 0, 55, 0
3, 20040, Note_on_c, 0, 59, 53
3, 20099, Note_on_c, 0, 59, 0
3, 20100, Note_on_c, 0, 55, 53
3, 20159, Note_on_c, 0, 55, 0
3, 20160, Note_on_c, 0, 50, 53
3, 20219, Note_on_c, 0, 50, 0
3, 20220, Note_on_c, 0, 54, 54
3, 20279, Note_on_c, 0, 54, 0
3, 20280, Note_on_c, 0, 57, 54
3, 20339, Note_on_c, 0, 57, 0
3, 20340, Note_on_c, 0, 54, 55
3, 20399, Note_on_c, 0, 54, 0
3, 20400, Note_on_c, 0, 50, 55
3, 20459, Note_on_c, 0, 50, 0
3, 20460, Note_on_c, 0, 54, 56
3, 20519, Note_on_c, 0, 54, 0
3, 20520, Note_on_c, 0, 57, 56
3, 20579, Note_on_c, 0, 57, 0
3, 20580, Note_on_c, 0, 54, 56
3, 20639, Note_on_c, 0, 54, 0
3, 20640, Note_on_c, 0, 50, 57
3, 20699, Note_on_c, 0, 50, 0
3, 20700, Note_on_c, 0, 55, 57
3, 20759, Note_on_c, 0, 55, 0
3, 20760, Note_on_c, 0, 59, 57
3, 20819, Note_on_c, 0, 59, 0
3, 20820, Note_on_c, 0, 55, 57
3, 20879, Note_on_c, 0, 55, 0
3, 20880, Note_on_c, 0, 50, 57
3, 20939, Note_on_c, 0, 50, 0
3, 20940, Note_on_c, 0, 55, 57
3, 20999, Note_on_c, 0, 55, 0
3, 21000, Note_on_c, 0, 59, 57
3, 21059, Note_on_c, 0, 59, 0
3, 21060, Note_on_c, 0, 55, 57
3, 21119, Note_on_c, 0, 55, 0
3, 21120, Note_on_c, 0, 50, 57
3, 21179, Note_on_c, 0, 50, 0
3, 21180, Note_on_c, 0, 57, 57
3, 21239, Note_on_c, 0, 57, 0
3, 21240, Note_on_c, 0, 60, 57
3, 21299, Note_on_c, 0, 60, 0
3, 21300, Note_on_c, 0, 57, 57
3, 21359, Note_on_c, 0, 57, 0
3, 21360, Note_on_c, 0, 50, 58
3, 21419, Note_on_c, 0, 50, 0
3, 21420, Note_on_c, 0, 57, 58
3, 21479, Note_on_c, 0, 57, 0
3, 21480, Note_on_c, 0, 60, 59
3, 21539, Note_on_c, 0, 60, 0
3, 21540, Note_on_c, 0, 57, 60
3, 21599, Note_on_c, 0, 57, 0
3, 21600, Note_on_c, 0, 50, 60
3, 21659, Note_on_c, 0, 50, 0
3, 21660, Note_on_c, 0, 55, 60
3, 21719, Note_on_c, 0, 55, 0
3, 21720, Note_on_c, 0, 59, 60
3, 21779, Note_on_c, 0, 59, 0
3, 21780, Note_on_c, 0, 55, 61
3, 21839, Note_on_c, 0, 55, 0
3, 21840, Note_on_c, 0, 50, 61
3, 21899, Note_on_c, 0, 50, 0
3, 21900, Note_on_c, 0, 55, 61
3, 21959, Note_on_c, 0, 55, 0
3, 21960, Note_on_c, 0, 59, 61
3, 22019, Note_on_c, 0, 59, 0
3, 22020, Note_on_c, 0, 55, 61
3, 22079, Note_on_c, 0, 55, 0
3, 22080, Note_on_c, 0, 50, 61
3, 22139, Note_on_c, 0, 50, 0
3, 22140, Note_on_c, 0, 54, 61
3, 22199, Note_on_c, 0, 54, 0
3, 22200, Note_on_c, 0, 57, 61
3, 22259, Note_on_c, 0, 57, 0
3, 22260, Note_on_c, 0, 54, 60
3, 22319, Note_on_c, 0, 54, 0
3, 22320, Note_on_c, 0, 50, 59
3, 22379, Note_on_c, 0, 50, 0
3, 22380, Note_on_c, 0, 57, 58
3, 22439, Note_on_c, 0, 57, 0
3, 22440, Note_on_c, 0, 60, 56
3, 22499, Note_on_c, 0, 60, 0
3, 22500, Note_on_c, 0, 57, 56
3, 22559, Note_on_c, 0, 57, 0
3, 22560, Note_on_c, 0, 55, 55
3, 22560, Note_on_c, 0, 59, 55
3, 22680, Note_on_c, 0, 59, 0
3, 22680, Note_on_c, 0, 55, 0
3, 22800, Note_on_c, 0, 43, 51
3, 22800, Note_on_c, 0, 59, 51
3, 22916, Note_on_c, 0, 59, 0
3, 22916, Note_on_c, 0, 43, 0
3, 22920, Note_on_c, 0, 43, 49
3, 22920, Note_on_c, 0, 59, 49
3, 23036, Note_on_c, 0, 59, 0
3, 23036, Note_on_c, 0, 43, 0
3, 23040, Note_on_c, 0, 43, 47
3, 23156, Note_on_c, 0, 43, 0
3, 23160, Note_on_c, 0, 55, 45
3, 23279, Note_on_c, 0, 55, 0
3, 23280, Note_on_c, 0, 50, 44
3, 23399, Note_on_c, 0, 50, 0
3, 23400, Note_on_c, 0, 47, 42
3, 23519, Note_on_c, 0, 47, 0
3, 23520, Note_on_c, 0, 59, 37
3, 23520, Note_on_c, 0, 43, 37
3, 23999, Note_on_c, 0, 43, 0
3, 23999, Note_on_c, 0, 59, 0
3, 24840, Note_on_c, 0, 55, 56
3, 24899, Note_on_c, 0, 55, 0
3, 24900, Note_on_c, 0, 62, 57
3, 24900, Note_on_c, 0, 59, 57
3, 24959, Note_on_c, 0, 59, 0
3, 24959, Note_on_c, 0, 62, 0
3, 24960, Note_on_c, 0, 62, 57
3, 24960, Note_on_c, 0, 59, 57
3, 25019, Note_on_c, 0, 59, 0
3, 25019, Note_on_c, 0, 62, 0
3, 25020, Note_on_c, 0, 54, 57
3, 25079, Note_on_c, 0, 54, 0
3, 25080, Note_on_c, 0, 60, 57
3, 25080, Note_on_c, 0, 62, 57
3, 25139, Note_on_c, 0, 62, 0
3, 25139, Note_on_c, 0, 60, 0
3, 25140, Note_on_c, 0, 60, 57
3, 25140, Note_on_c, 0, 62, 57
3, 25199, Note_on_c, 0, 62, 0
3, 25199, Note_on_c, 0, 60, 0
3, 25200, Note_on_c, 0, 55, 59
3, 25259, Note_on_c, 0, 55, 0
3, 25260, Note_on_c, 0, 62, 57
3, 25260, Note_on_c, 0, 59, 57
3, 25320, Note_on_c, 0, 59, 0
3, 25320, Note_on_c, 0, 62, 0
3, 25320, Note_on_c, 0, 62, 57
3, 25320, Note_on_c, 0, 59, 57
3, 25380, Note_on_c, 0, 59, 0
3, 25380, Note_on_c, 0, 62, 0
3, 25560, Note_on_c, 0, 52, 61
3, 25620, Note_on_c, 0, 59, 57
3, 25620, Note_on_c, 0, 55, 57
3, 25680, Note_on_c, 0, 55, 0
3, 25680, Note_on_c, 0, 59, 0
3, 25680, Note_on_c, 0, 59, 57
3, 25680, Note_on_c, 0, 55, 57
3, 25739, Note_on_c, 0, 52, 0
3, 25740, Note_on_c, 0, 55, 0
3, 25740, Note_on_c, 0, 59, 0
3, 25740, Note_on_c, 0, 52, 61
3, 25800, Note_on_c, 0, 61, 57
3, 25800, Note_on_c, 0, 55, 57
3, 25860, Note_on_c, 0, 55, 0
3, 25860, Note_on_c, 0, 61, 0
3, 25860, Note_on_c, 0, 61, 57
3, 25860, Note_on_c, 0, 55, 57
3, 25919, Note_on_c, 0, 52, 0
3, 25920, Note_on_c, 0, 55, 0
3, 25920, Note_on_c, 0, 61, 0
3, 25920, Note_on_c, 0, 50, 61
3, 25980, Note_on_c, 0, 62, 57
3, 25980, Note_on_c, 0, 54, 57
3, 26040, Note_on_c, 0, 54, 0
3, 26040, Note_on_c, 0, 62, 0
3, 26040, Note_on_c, 0, 62, 57
3, 26040, Note_on_c, 0, 54, 57
3, 26099, Note_on_c, 0, 50, 0
3, 26100, Note_on_c, 0, 54, 0
3, 26100, Note_on_c, 0, 62, 0
3, 26280, Note_on_c, 0, 55, 61
3, 26339, Note_on_c, 0, 55, 0
3, 26340, Note_on_c, 0, 59, 57
3, 26399, Note_on_c, 0, 59, 0
3, 26400, Note_on_c, 0, 62, 57
3, 26459, Note_on_c, 0, 62, 0
3, 26460, Note_on_c, 0, 55, 61
3, 26519, Note_on_c, 0, 55, 0
3, 26520, Note_on_c, 0, 62, 57
3, 26579, Note_on_c, 0, 62, 0
3, 26580, Note_on_c, 0, 65, 57
3, 26639, Note_on_c, 0, 65, 0
3, 26640, Note_on_c, 0, 64, 57
3, 26640, Note_on_c, 0, 60, 57
3, 26759, Note_on_c, 0, 60, 0
3, 26759, Note_on_c, 0, 64, 0
3, 27000, Note_on_c, 0, 50, 56
3, 27059, Note_on_c, 0, 50, 0
3, 27060, Note_on_c, 0, 55, 56
3, 27119, Note_on_c, 0, 55, 0
3, 27180, Note_on_c, 0, 50, 56
3, 27239, Note_on_c, 0, 50, 0
3, 27240, Note_on_c, 0, 54, 56
3, 27299, Note_on_c, 0, 54, 0
3, 27360, Note_on_c, 0, 59, 59
3, 27360, Note_on_c, 0, 55, 59
3, 27479, Note_on_c, 0, 55, 0
3, 27479, Note_on_c, 0, 59, 0
3, 27720, Note_on_c, 0, 55, 56
3, 27779, Note_on_c, 0, 55, 0
3, 27780, Note_on_c, 0, 59, 57
3, 27780, Note_on_c, 0, 62, 57
3, 27839, Note_on_c, 0, 62, 0
3, 27839, Note_on_c, 0, 59, 0
3, 27840, Note_on_c, 0, 62, 57
3, 27840, Note_on_c, 0, 59, 57
3, 27899, Note_on_c, 0, 59, 0
3, 27899, Note_on_c, 0, 62, 0
3, 27900, Note_on_c, 0, 54, 57
3, 27959, Note_on_c, 0, 54, 0
3, 27960, Note_on_c, 0, 60, 57
3, 27960, Note_on_c, 0, 62, 57
3, 28019, Note_on_c, 0, 62, 0
3, 28019, Note_on_c, 0, 60, 0
3, 28020, Note_on_c, 0, 60, 57
3, 28020, Note_on_c, 0, 62, 57
3, 28079, Note_on_c, 0, 62, 0
3, 28079, Note_on_c, 0, 60, 0
3, 28080, Note_on_c, 0, 55, 59
3, 28139, Note_on_c, 0, 55, 0
3, 28140, Note_on_c, 0, 62, 57
3, 28140, Note_on_c, 0, 59, 57
3, 28200, Note_on_c, 0, 59, 0
3, 28200, Note_on_c, 0, 62, 0
3, 28200, Note_on_c, 0, 59, 57
3, 28200, Note_on_c, 0, 62, 57
3, 28260, Note_on_c, 0, 62, 0
3, 28260, Note_on_c, 0, 59, 0
3, 28440, Note_on_c, 0, 52, 61
3, 28500, Note_on_c, 0, 55, 57
3, 28500, Note_on_c, 0, 59, 57
3, 28560, Note_on_c, 0, 59, 0
3, 28560, Note_on_c, 0, 55, 0
3, 28560, Note_on_c, 0, 59, 57
3, 28560, Note_on_c, 0, 55, 57
3, 28619, Note_on_c, 0, 52, 0
3, 28620, Note_on_c, 0, 55, 0
3, 28620, Note_on_c, 0, 59, 0
3, 28620, Note_on_c, 0, 52, 61
3, 28680, Note_on_c, 0, 61, 57
3, 28680, Note_on_c, 0, 55, 57
3, 28740, Note_on_c, 0, 55, 0
3, 28740, Note_on_c, 0, 61, 0
3, 28740, Note_on_c, 0, 61, 57
3, 28740, Note_on_c, 0, 55, 57
3, 28799, Note_on_c, 0, 52, 0
3, 28800, Note_on_c, 0, 55, 0
3, 28800, Note_on_c, 0, 61, 0
3, 28800, Note_on_c, 0, 50, 61
3, 28860, Note_on_c, 0, 62, 57
3, 28860, Note_on_c, 0, 54, 57
3, 28920, Note_on_c, 0, 54, 0
3, 28920, Note_on_c, 0, 62, 0
3, 28920, Note_on_c, 0, 54, 57
3, 28920, Note_on_c, 0, 62, 57
3, 28979, Note_on_c, 0, 50, 0
3, 28980, Note_on_c, 0, 62, 0
3, 28980, Note_on_c, 0, 54, 0
3, 29160, Note_on_c, 0, 55, 61
3, 29219, Note_on_c, 0, 55, 0
3, 29220, Note_on_c, 0, 59, 57
3, 29279, Note_on_c, 0, 59, 0
3, 29280, Note_on_c, 0, 62, 57
3, 29339, Note_on_c, 0, 62, 0
3, 29340, Note_on_c, 0, 55, 61
3, 29399, Note_on_c, 0, 55, 0
3, 29400, Note_on_c, 0, 62, 57
3, 29459, Note_on_c, 0, 62, 0
3, 29460, Note_on_c, 0, 65, 57
3, 29519, Note_on_c, 0, 65, 0
3, 29520, Note_on_c, 0, 64, 57
3, 29520, Note_on_c, 0, 60, 57
3, 29639, Note_on_c, 0, 60, 0
3, 29639, Note_on_c, 0, 64, 0
3, 29880, Note_on_c, 0, 50, 56
3, 29939, Note_on_c, 0, 50, 0
3, 29940, Note_on_c, 0, 55, 56
3, 29999, Note_on_c, 0, 55, 0
3, 30060, Note_on_c, 0, 50, 56
3, 30119, Note_on_c, 0, 50, 0
3, 30120, Note_on_c, 0, 54, 56
3, 30179, Note_on_c, 0, 54, 0
3, 30240, Note_on_c, 0, 59, 59
3, 30240, Note_on_c, 0, 55, 59
3, 30359, Note_on_c, 0, 55, 0
3, 30359, Note_on_c, 0, 59, 0
3, 30600, Note_on_c, 0, 54, 65
3, 30600, Note_on_c, 0, 57, 66
3, 30959, Note_on_c, 0, 57, 0
3, 30959, Note_on_c, 0, 54, 0
3, 30960, Note_on_c, 0, 59, 56
3, 30960, Note_on_c, 0, 52, 56
3, 31319, Note_on_c, 0, 52, 0
3, 31319, Note_on_c, 0, 59, 0
3, 31320, Note_on_c, 0, 57, 57
3, 31320, Note_on_c, 0, 61, 57
3, 31679, Note_on_c, 0, 61, 0
3, 31679, Note_on_c, 0, 57, 0
3, 31680, Note_on_c, 0, 62, 57
3, 31680, Note_on_c, 0, 50, 57
3, 31799, Note_on_c, 0, 50, 0
3, 31799, Note_on_c, 0, 62, 0
3, 31860, Note_on_c, 0, 50, 60
3, 31919, Note_on_c, 0, 50, 0
3, 31920, Note_on_c, 0, 52, 60
3, 31979, Note_on_c, 0, 52, 0
3, 31980, Note_on_c, 0, 54, 60
3, 32039, Note_on_c, 0, 54, 0
3, 32040, Note_on_c, 0, 55, 60
3, 32099, Note_on_c, 0, 55, 0
3, 32100, Note_on_c, 0, 57, 57
3, 32159, Note_on_c, 0, 57, 0
3, 32160, Note_on_c, 0, 59, 57
3, 32219, Note_on_c, 0, 59, 0
3, 32220, Note_on_c, 0, 50, 60
3, 32279, Note_on_c, 0, 50, 0
3, 32280, Note_on_c, 0, 52, 60
3, 32339, Note_on_c, 0, 52, 0
3, 32340, Note_on_c, 0, 54, 60
3, 32399, Note_on_c, 0, 54, 0
3, 32400, Note_on_c, 0, 55, 60
3, 32459, Note_on_c, 0, 55, 0
3, 32460, Note_on_c, 0, 57, 57
3, 32519, Note_on_c, 0, 57, 0
3, 32520, Note_on_c, 0, 59, 57
3, 32579, Note_on_c, 0, 59, 0
3, 32580, Note_on_c, 0, 50, 60
3, 32639, Note_on_c, 0, 50, 0
3, 32640, Note_on_c, 0, 52, 60
3, 32699, Note_on_c, 0, 52, 0
3, 32700, Note_on_c, 0, 54, 60
3, 32759, Note_on_c, 0, 54, 0
3, 32760, Note_on_c, 0, 55, 60
3, 32879, Note_on_c, 0, 55, 0
3, 32940, Note_on_c, 0, 57, 57
3, 33059, Note_on_c, 0, 57, 0
3, 33120, Note_on_c, 0, 50, 60
3, 33239, Note_on_c, 0, 50, 0
3, 33480, Note_on_c, 0, 50, 57
3, 33480, Note_on_c, 0, 54, 57
3, 33480, Note_on_c, 0, 57, 57
3, 33480, Note_on_c, 0, 60, 57
3, 33599, Note_on_c, 0, 60, 0
3, 33599, Note_on_c, 0, 50, 0
3, 33599, Note_on_c, 0, 54, 0
3, 33599, Note_on_c, 0, 57, 0
3, 33840, Note_on_c, 0, 50, 57
3, 33840, Note_on_c, 0, 54, 57
3, 33840, Note_on_c, 0, 57, 57
3, 33840, Note_on_c, 0, 60, 57
3, 33959, Note_on_c, 0, 60, 0
3, 33959, Note_on_c, 0, 50, 0
3, 33959, Note_on_c, 0, 54, 0
3, 33959, Note_on_c, 0, 57, 0
3, 34200, Note_on_c, 0, 50, 57
3, 34200, Note_on_c, 0, 54, 57
3, 34200, Note_on_c, 0, 57, 57
3, 34200, Note_on_c, 0, 60, 57
3, 34319, Note_on_c, 0, 60, 0
3, 34319, Note_on_c, 0, 50, 0
3, 34319, Note_on_c, 0, 54, 0
3, 34319, Note_on_c, 0, 57, 0
3, 35280, Note_on_c, 0, 55, 60
3, 35339, Note_on_c, 0, 55, 0
3, 35340, Note_on_c, 0, 62, 60
3, 35340, Note_on_c, 0, 59, 60
3, 35399, Note_on_c, 0, 59, 0
3, 35399, Note_on_c, 0, 62, 0
3, 35400, Note_on_c, 0, 62, 60
3, 35400, Note_on_c, 0, 59, 60
3, 35459, Note_on_c, 0, 59, 0
3, 35459, Note_on_c, 0, 62, 0
3, 35460, Note_on_c, 0, 54, 58
3, 35519, Note_on_c, 0, 54, 0
3, 35520, Note_on_c, 0, 62, 60
3, 35520, Note_on_c, 0, 60, 60
3, 35579, Note_on_c, 0, 60, 0
3, 35579, Note_on_c, 0, 62, 0
3, 35580, Note_on_c, 0, 62, 60
3, 35580, Note_on_c, 0, 60, 60
3, 35639, Note_on_c, 0, 60, 0
3, 35639, Note_on_c, 0, 62, 0
3, 35640, Note_on_c, 0, 55, 58
3, 35699, Note_on_c, 0, 55, 0
3, 35700, Note_on_c, 0, 62, 60
3, 35700, Note_on_c, 0, 59, 60
3, 35760, Note_on_c, 0, 59, 0
3, 35760, Note_on_c, 0, 62, 0
3, 35760, Note_on_c, 0, 62, 60
3, 35760, Note_on_c, 0, 59, 60
3, 35820, Note_on_c, 0, 59, 0
3, 35820, Note_on_c, 0, 62, 0
3, 36000, Note_on_c, 0, 52, 58
3, 36060, Note_on_c, 0, 59, 60
3, 36060, Note_on_c, 0, 55, 60
3, 36120, Note_on_c, 0, 55, 0
3, 36120, Note_on_c, 0, 59, 0
3, 36120, Note_on_c, 0, 59, 60
3, 36120, Note_on_c, 0, 55, 60
3, 36179, Note_on_c, 0, 52, 0
3, 36180, Note_on_c, 0, 55, 0
3, 36180, Note_on_c, 0, 59, 0
3, 36180, Note_on_c, 0, 52, 58
3, 36240, Note_on_c, 0, 61, 60
3, 36240, Note_on_c, 0, 55, 60
3, 36300, Note_on_c, 0, 55, 0
3, 36300, Note_on_c, 0, 61, 0
3, 36300, Note_on_c, 0, 61, 60
3, 36300, Note_on_c, 0, 55, 60
3, 36359, Note_on_c, 0, 52, 0
3, 36360, Note_on_c, 0, 55, 0
3, 36360, Note_on_c, 0, 61, 0
3, 36360, Note_on_c, 0, 50, 58
3, 36420, Note_on_c, 0, 54, 60
3, 36420, Note_on_c, 0, 62, 60
3, 36480, Note_on_c, 0, 62, 0
3, 36480, Note_on_c, 0, 54, 0
3, 36480, Note_on_c, 0, 54, 60
3, 36480, Note_on_c, 0, 62, 60
3, 36539, Note_on_c, 0, 50, 0
3, 36540, Note_on_c, 0, 62, 0
3, 36540, Note_on_c, 0, 54, 0
3, 36720, Note_on_c, 0, 55, 58
3, 36779, Note_on_c, 0, 55, 0
3, 36780, Note_on_c, 0, 59, 63
3, 36839, Note_on_c, 0, 59, 0
3, 36840, Note_on_c, 0, 62, 63
3, 36899, Note_on_c, 0, 62, 0
3, 36900, Note_on_c, 0, 55, 58
3, 36959, Note_on_c, 0, 55, 0
3, 36960, Note_on_c, 0, 62, 64
3, 37019, Note_on_c, 0, 62, 0
3, 37020, Note_on_c, 0, 65, 65
3, 37079, Note_on_c, 0, 65, 0
3, 37080, Note_on_c, 0, 64, 66
3, 37080, Note_on_c, 0, 60, 66
3, 37199, Note_on_c, 0, 60, 0
3, 37199, Note_on_c, 0, 64, 0
3, 37440, Note_on_c, 0, 50, 63
3, 37499, Note_on_c, 0, 50, 0
3, 37500, Note_on_c, 0, 55, 63
3, 37559, Note_on_c, 0, 55, 0
3, 37560, Note_on_c, 0, 59, 72
3, 37619, Note_on_c, 0, 59, 0
3, 37620, Note_on_c, 0, 50, 63
3, 37679, Note_on_c, 0, 50, 0
3, 37680, Note_on_c, 0, 54, 63
3, 37739, Note_on_c, 0, 54, 0
3, 37740, Note_on_c, 0, 60, 74
3, 37799, Note_on_c, 0, 60, 0
3, 37800, Note_on_c, 0, 55, 75
3, 37800, Note_on_c, 0, 59, 75
3, 37919, Note_on_c, 0, 59, 0
3, 37919, Note_on_c, 0, 55, 0
3, 38160, Note_on_c, 0, 54, 65
3, 38160, Note_on_c, 0, 57, 66
3, 38519, Note_on_c, 0, 57, 0
3, 38519, Note_on_c, 0, 54, 0
3, 38520, Note_on_c, 0, 59, 56
3, 38520, Note_on_c, 0, 52, 56
3, 38879, Note_on_c, 0, 52, 0
3, 38879, Note_on_c, 0, 59, 0
3, 38880, Note_on_c, 0, 57, 57
3, 38880, Note_on_c, 0, 61, 57
3, 39239, Note_on_c, 0, 61, 0
3, 39239, Note_on_c, 0, 57, 0
3, 39240, Note_on_c, 0, 62, 57
3, 39240, Note_on_c, 0, 50, 57
3, 39359, Note_on_c, 0, 50, 0
3, 39359, Note_on_c, 0, 62, 0
3, 39420, Note_on_c, 0, 50, 60
3, 39479, Note_on_c, 0, 50, 0
3, 39480, Note_on_c, 0, 52, 60
3, 39539, Note_on_c, 0, 52, 0
3, 39540, Note_on_c, 0, 54, 60
3, 39599, Note_on_c, 0, 54, 0
3, 39600, Note_on_c, 0, 55, 60
3, 39659, Note_on_c, 0, 55, 0
3, 39660, Note_on_c, 0, 57, 57
3, 39719, Note_on_c, 0, 57, 0
3, 39720, Note_on_c, 0, 59, 57
3, 39779, Note_on_c, 0, 59, 0
3, 39780, Note_on_c, 0, 50, 60
3, 39839, Note_on_c, 0, 50, 0
3, 39840, Note_on_c, 0, 52, 60
3, 39899, Note_on_c, 0, 52, 0
3, 39900, Note_on_c, 0, 54, 60
3, 39959, Note_on_c, 0, 54, 0
3, 39960, Note_on_c, 0, 55, 60
3, 40019, Note_on_c, 0, 55, 0
3, 40020, Note_on_c, 0, 57, 57
3, 40079, Note_on_c, 0, 57, 0
3, 40080, Note_on_c, 0, 59, 57
3, 40139, Note_on_c, 0, 59, 0
3, 40140, Note_on_c, 0, 50, 60
3, 40199, Note_on_c, 0, 50, 0
3, 40200, Note_on_c, 0, 52, 60
3, 40259, Note_on_c, 0, 52, 0
3, 40260, Note_on_c, 0, 54, 60
3, 40319, Note_on_c, 0, 54, 0
3, 40320, Note_on_c, 0, 55, 60
3, 40439, Note_on_c, 0, 55, 0
3, 40500, Note_on_c, 0, 57, 57
3, 40619, Note_on_c, 0, 57, 0
3, 40680, Note_on_c, 0, 50, 60
3, 40799, Note_on_c, 0, 50, 0
3, 41040, Note_on_c, 0, 50, 57
3, 41040, Note_on_c, 0, 54, 57
3, 41040, Note_on_c, 0, 57, 57
3, 41040, Note_on_c, 0, 60, 57
3, 41159, Note_on_c, 0, 60, 0
3, 41159, Note_on_c, 0, 50, 0
3, 41159, Note_on_c, 0, 54, 0
3, 41159, Note_on_c, 0, 57, 0
3, 41400, Note_on_c, 0, 50, 57
3, 41400, Note_on_c, 0, 54, 57
3, 41400, Note_on_c, 0, 57, 57
3, 41400, Note_on_c, 0, 60, 57
3, 41519, Note_on_c, 0, 60, 0
3, 41519, Note_on_c, 0, 50, 0
3, 41519, Note_on_c, 0, 54, 0
3, 41519, Note_on_c, 0, 57, 0
3, 41760, Note_on_c, 0, 50, 57
3, 41760, Note_on_c, 0, 54, 57
3, 41760, Note_on_c, 0, 57, 57
3, 41760, Note_on_c, 0, 60, 57
3, 41879, Note_on_c, 0, 60, 0
3, 41879, Note_on_c, 0, 50, 0
3, 41879, Note_on_c, 0, 54, 0
3, 41879, Note_on_c, 0, 57, 0
3, 42840, Note_on_c, 0, 55, 60
3, 42899, Note_on_c, 0, 55, 0
3, 42900, Note_on_c, 0, 62, 60
3, 42900, Note_on_c, 0, 59, 60
3, 42959, Note_on_c, 0, 59, 0
3, 42959, Note_on_c, 0, 62, 0
3, 42960, Note_on_c, 0, 62, 60
3, 42960, Note_on_c, 0, 59, 60
3, 43019, Note_on_c, 0, 59, 0
3, 43019, Note_on_c, 0, 62, 0
3, 43020, Note_on_c, 0, 54, 58
3, 43079, Note_on_c, 0, 54, 0
3, 43080, Note_on_c, 0, 62, 60
3, 43080, Note_on_c, 0, 60, 60
3, 43139, Note_on_c, 0, 60, 0
3, 43139, Note_on_c, 0, 62, 0
3, 43140, Note_on_c, 0, 62, 60
3, 43140, Note_on_c, 0, 60, 60
3, 43199, Note_on_c, 0, 60, 0
3, 43199, Note_on_c, 0, 62, 0
3, 43200, Note_on_c, 0, 55, 58
3, 43259, Note_on_c, 0, 55, 0
3, 43260, Note_on_c, 0, 62, 60
3, 43260, Note_on_c, 0, 59, 60
3, 43320, Note_on_c, 0, 59, 0
3, 43320, Note_on_c, 0, 62, 0
3, 43320, Note_on_c, 0, 62, 60
3, 43320, Note_on_c, 0, 59, 60
3, 43380, Note_on_c, 0, 59, 0
3, 43380, Note_on_c, 0, 62, 0
3, 43560, Note_on_c, 0, 52, 58
3, 43620, Note_on_c, 0, 59, 60
3, 43620, Note_on_c, 0, 55, 60
3, 43680, Note_on_c, 0, 55, 0
3, 43680, Note_on_c, 0, 59, 0
3, 43680, Note_on_c, 0, 59, 60
3, 43680, Note_on_c, 0, 55, 60
3, 43739, Note_on_c, 0, 52, 0
3, 43740, Note_on_c, 0, 55, 0
3, 43740, Note_on_c, 0, 59, 0
3, 43740, Note_on_c, 0, 52, 58
3, 43800, Note_on_c, 0, 61, 60
3, 43800, Note_on_c, 0, 55, 60
3, 43860, Note_on_c, 0, 55, 0
3, 43860, Note_on_c, 0, 61, 0
3, 43860, Note_on_c, 0, 61, 60
3, 43860, Note_on_c, 0, 55, 60
3, 43919, Note_on_c, 0, 52, 0
3, 43920, Note_on_c, 0, 55, 0
3, 43920, Note_on_c, 0, 61, 0
3, 43920, Note_on_c, 0, 50, 58
3, 43980, Note_on_c, 0, 54, 60
3, 43980, Note_on_c, 0, 62, 60
3, 44040, Note_on_c, 0, 62, 0
3, 44040, Note_on_c, 0, 54, 0
3, 44040, Note_on_c, 0, 54, 60
3, 44040, Note_on_c, 0, 62, 60
3, 44099, Note_on_c, 0, 50, 0
3, 44100, Note_on_c, 0, 62, 0
3, 44100, Note_on_c, 0, 54, 0
3, 44280, Note_on_c, 0, 55, 58
3, 44339, Note_on_c, 0, 55, 0
3, 44340, Note_on_c, 0, 59, 63
3, 44399, Note_on_c, 0, 59, 0
3, 44400, Note_on_c, 0, 62, 63
3, 44459, Note_on_c, 0, 62, 0
3, 44460, Note_on_c, 0, 55, 58
3, 44519, Note_on_c, 0, 55, 0
3, 44520, Note_on_c, 0, 62, 64
3, 44579, Note_on_c, 0, 62, 0
3, 44580, Note_on_c, 0, 65, 65
3, 44639, Note_on_c, 0, 65, 0
3, 44640, Note_on_c, 0, 64, 66
3, 44640, Note_on_c, 0, 60, 66
3, 44759, Note_on_c, 0, 60, 0
3, 44759, Note_on_c, 0, 64, 0
3, 45000, Note_on_c, 0, 50, 63
3, 45059, Note_on_c, 0, 50, 0
3, 45060, Note_on_c, 0, 55, 63
3, 45119, Note_on_c, 0, 55, 0
3, 45120, Note_on_c, 0, 59, 72
3, 45179, Note_on_c, 0, 59, 0
3, 45180, Note_on_c, 0, 50, 63
3, 45239, Note_on_c, 0, 50, 0
3, 45240, Note_on_c, 0, 54, 63
3, 45299, Note_on_c, 0, 54, 0
3, 45300, Note_on_c, 0, 60, 74
3, 45359, Note_on_c, 0, 60, 0
3, 45360, Note_on_c, 0, 55, 75
3, 45360, Note_on_c, 0, 59, 75
3, 45479, Note_on_c, 0, 59, 0
3, 45479, Note_on_c, 0, 55, 0
3, 45720, Note_on_c, 0, 50, 73
3, 45720, Note_on_c, 0, 54, 73
3, 45720, Note_on_c, 0, 60, 73
3, 46080, Note_on_c, 0, 55, 62
3, 46080, Note_on_c, 0, 59, 62
3, 46080, Note_on_c, 0, 52, 62
3, 46083, Note_on_c, 0, 60, 0
3, 46083, Note_on_c, 0, 50, 0
3, 46083, Note_on_c, 0, 54, 0
3, 46199, Note_on_c, 0, 55, 0
3, 46199, Note_on_c, 0, 59, 0
3, 46199, Note_on_c, 0, 52, 0
3, 46440, Note_on_c, 0, 48, 73
3, 46619, Note_on_c, 0, 48, 0
3, 46620, Note_on_c, 0, 49, 73
3, 46620, Note_on_c, 0, 55, 73
3, 46799, Note_on_c, 0, 55, 0
3, 46799, Note_on_c, 0, 49, 0
3, 46800, Note_on_c, 0, 50, 73
3, 46800, Note_on_c, 0, 54, 73
3, 46919, Note_on_c, 0, 54, 0
3, 46919, Note_on_c, 0, 50, 0
3, 47160, Note_on_c, 0, 50, 73
3, 47219, Note_on_c, 0, 50, 0
3, 47220, Note_on_c, 0, 54, 73
3, 47279, Note_on_c, 0, 54, 0
3, 47280, Note_on_c, 0, 60, 62
3, 47340, Note_on_c, 0, 60, 0
3, 47340, Note_on_c, 0, 50, 73
3, 47399, Note_on_c, 0, 50, 0
3, 47400, Note_on_c, 0, 54, 73
3, 47459, Note_on_c, 0, 54, 0
3, 47460, Note_on_c, 0, 60, 63
3, 47519, Note_on_c, 0, 60, 0
3, 47520, Note_on_c, 0, 52, 73
3, 47579, Note_on_c, 0, 52, 0
3, 47580, Note_on_c, 0, 55, 73
3, 47639, Note_on_c, 0, 55, 0
3, 47640, Note_on_c, 0, 59, 63
3, 47699, Note_on_c, 0, 59, 0
3, 47700, Note_on_c, 0, 48, 73
3, 47759, Note_on_c, 0, 48, 0
3, 47760, Note_on_c, 0, 52, 73
3, 47819, Note_on_c, 0, 52, 0
3, 47820, Note_on_c, 0, 55, 73
3, 47879, Note_on_c, 0, 55, 0
3, 47880, Note_on_c, 0, 50, 73
3, 47939, Note_on_c, 0, 50, 0
3, 47940, Note_on_c, 0, 55, 71
3, 47999, Note_on_c, 0, 55, 0
3, 48000, Note_on_c, 0, 59, 63
3, 48059, Note_on_c, 0, 59, 0
3, 48060, Note_on_c, 0, 50, 70
3, 48119, Note_on_c, 0, 50, 0
3, 48120, Note_on_c, 0, 54, 69
3, 48179, Note_on_c, 0, 54, 0
3, 48180, Note_on_c, 0, 60, 63
3, 48239, Note_on_c, 0, 60, 0
3, 48240, Note_on_c, 0, 55, 68
3, 48299, Note_on_c, 0, 55, 0
3, 48300, Note_on_c, 0, 59, 63
3, 48359, Note_on_c, 0, 59, 0
3, 48360, Note_on_c, 0, 62, 63
3, 48419, Note_on_c, 0, 62, 0
3, 48420, Note_on_c, 0, 48, 67
3, 48479, Note_on_c, 0, 48, 0
3, 48480, Note_on_c, 0, 52, 67
3, 48539, Note_on_c, 0, 52, 0
3, 48540, Note_on_c, 0, 55, 64
3, 48599, Note_on_c, 0, 55, 0
3, 48600, Note_on_c, 0, 50, 63
3, 48659, Note_on_c, 0, 50, 0
3, 48660, Note_on_c, 0, 55, 61
3, 48719, Note_on_c, 0, 55, 0
3, 48720, Note_on_c, 0, 59, 60
3, 48779, Note_on_c, 0, 59, 0
3, 48780, Note_on_c, 0, 50, 59
3, 48839, Note_on_c, 0, 50, 0
3, 48840, Note_on_c, 0, 54, 57
3, 48899, Note_on_c, 0, 54, 0
3, 48900, Note_on_c, 0, 60, 57
3, 48959, Note_on_c, 0, 60, 0
3, 48960, Note_on_c, 0, 59, 57
3, 48960, Note_on_c, 0, 55, 57
3, 49081, Note_on_c, 0, 55, 0
3, 49081, Note_on_c, 0, 59, 0
3, 49140, Note_on_c, 0, 62, 54
3, 49140, Note_on_c, 0, 55, 54
3, 49261, Note_on_c, 0, 55, 0
3, 49261, Note_on_c, 0, 62, 0
3, 49320, Note_on_c, 0, 43, 44
3, 49320, Note_on_c, 0, 50, 44
3, 49441, Note_on_c, 0, 50, 0
3, 49441, Note_on_c, 0, 43, 0
3, 49441, End_track
0, 0, End_of_file