0, 0, Header, 1, 4, 480
1, 0, Start_track
1, 0, Title_t, "Untitled"
1, 0, Time_signature, 3, 1, 24, 8
1, 0, Key_signature, 0, "major"
1, 0, Tempo, 600000
1, 0, Marker_t, "Beethoven"
1, 2880, Tempo, 895522
1, 2880, Marker_t, "Prelude"
1, 3130, Tempo, 821917
1, 4580, Tempo, 845070
1, 4800, Tempo, 821917
1, 5520, Tempo, 857142
1, 5760, Marker_t, "Bunji Hisamori"
1, 5880, Tempo, 821917
1, 7450, Tempo, 845070
1, 7680, Tempo, 821917
1, 8400, Tempo, 857142
1, 8640, Marker_t, "Nov. 1998"
1, 8760, Tempo, 821917
1, 9960, Tempo, 845070
1, 10080, Tempo, 821917
1, 10440, Tempo, 845070
1, 10560, Tempo, 821917
1, 11280, Tempo, 857142
1, 11520, Marker_t, "July 1999, Rev.1"
1, 11640, Tempo, 821917
1, 12360, Tempo, 845070
1, 12480, Tempo, 821917
1, 13330, Tempo, 845070
1, 14100, Tempo, 869565
1, 14265, Tempo, 895522
1, 14400, Tempo, 895522
1, 14640, Tempo, 821917
1, 15120, Tempo, 845070
1, 15360, Tempo, 821917
1, 16680, Tempo, 845070
1, 16800, Tempo, 821917
1, 17040, Tempo, 857142
1, 17400, Tempo, 821917
1, 18030, Tempo, 845070
1, 18240, Tempo, 821917
1, 19560, Tempo, 845070
1, 19680, Tempo, 821917
1, 19920, Tempo, 857142
1, 20280, Tempo, 821917
1, 21960, Tempo, 845070
1, 22080, Tempo, 821917
1, 22800, Tempo, 857142
1, 23160, Tempo, 821917
1, 24840, Tempo, 845070
1, 24960, Tempo, 821917
1, 25680, Tempo, 857142
1, 26040, Tempo, 821917
1, 26760, Tempo, 845070
1, 26880, Tempo, 821917
1, 27720, Tempo, 845070
1, 27840, Tempo, 821917
1, 28560, Tempo, 857142
1, 28920, Tempo, 821917
1, 29550, Tempo, 845070
1, 29760, Tempo, 821917
1, 31080, Tempo, 845070
1, 31200, Tempo, 821917
1, 31440, Tempo, 857142
1, 31800, Tempo, 821917
1, 33480, Tempo, 845070
1, 34230, Tempo, 869565
1, 34425, Tempo, 895522
1, 34560, Tempo, 895522
1, 34800, Tempo, 821917
1, 36250, Tempo, 845070
1, 36480, Tempo, 821917
1, 37200, Tempo, 857142
1, 37560, Tempo, 821917
1, 38160, Tempo, 845070
1, 38400, Tempo, 821917
1, 39720, Tempo, 845070
1, 39840, Tempo, 821917
1, 40080, Tempo, 857142
1, 40440, Tempo, 821917
1, 41160, Tempo, 845070
1, 41280, Tempo, 821917
1, 42600, Tempo, 845070
1, 42720, Tempo, 821917
1, 42960, Tempo, 857142
1, 43320, Tempo, 821917
1, 43930, Tempo, 845070
1, 44160, Tempo, 821917
1, 45480, Tempo, 845070
1, 45600, Tempo, 821917
1, 45840, Tempo, 857142
1, 46200, Tempo, 821917
1, 46920, Tempo, 845070
1, 47040, Tempo, 821917
1, 47880, Tempo, 845070
1, 48000, Tempo, 821917
1, 48720, Tempo, 857142
1, 49080, Tempo, 821917
1, 49800, Tempo, 845070
1, 49920, Tempo, 821917
1, 50760, Tempo, 845070
1, 50880, Tempo, 821917
1, 51600, Tempo, 857142
1, 51960, Tempo, 821917
1, 53640, Tempo, 845070
1, 53760, Tempo, 821917
1, 54480, Tempo, 857142
1, 54840, Tempo, 821917
1, 56520, Tempo, 845070
1, 56640, Tempo, 821917
1, 57360, Tempo, 857142
1, 57720, Tempo, 821917
1, 59880, Tempo, 845070
1, 60000, Tempo, 821917
1, 60840, Tempo, 845070
1, 60960, Tempo, 821917
1, 61320, Tempo, 845070
1, 61440, Tempo, 821917
1, 61800, Tempo, 845070
1, 61920, Tempo, 821917
1, 62160, Tempo, 845070
1, 62400, Tempo, 821917
1, 63120, Tempo, 857142
1, 63480, Tempo, 821917
1, 64200, Tempo, 845070
1, 64320, Tempo, 821917
1, 65160, Tempo, 845070
1, 65760, Tempo, 857142
1, 66060, Tempo, 895522
1, 66240, Tempo, 895522
1, 66480, Tempo, 821917
1, 67080, Tempo, 845070
1, 67200, Tempo, 821917
1, 67920, Tempo, 845070
1, 68160, Tempo, 821917
1, 68880, Tempo, 857142
1, 69240, Tempo, 821917
1, 70920, Tempo, 845070
1, 71040, Tempo, 821917
1, 71760, Tempo, 857142
1, 72120, Tempo, 821917
1, 72840, Tempo, 845070
1, 72960, Tempo, 821917
1, 73690, Tempo, 845070
1, 73920, Tempo, 821917
1, 74640, Tempo, 857142
1, 75000, Tempo, 821917
1, 76680, Tempo, 845070
1, 76800, Tempo, 821917
1, 77520, Tempo, 857142
1, 77880, Tempo, 821917
1, 78600, Tempo, 845070
1, 78720, Tempo, 821917
1, 79560, Tempo, 845070
1, 79680, Tempo, 821917
1, 80400, Tempo, 895522
1, 80760, Tempo, 821917
1, 81360, Tempo, 845070
1, 81600, Tempo, 821917
1, 82920, Tempo, 845070
1, 83040, Tempo, 821917
1, 83280, Tempo, 857142
1, 83640, Tempo, 821917
1, 84360, Tempo, 845070
1, 84480, Tempo, 821917
1, 85320, Tempo, 845070
1, 85440, Tempo, 821917
1, 86160, Tempo, 869565
1, 86520, Tempo, 821917
1, 87240, Tempo, 845070
1, 87360, Tempo, 821917
1, 88200, Tempo, 845070
1, 88320, Tempo, 821917
1, 89040, Tempo, 857142
1, 89400, Tempo, 821917
1, 90120, Tempo, 845070
1, 90240, Tempo, 821917
1, 90960, Tempo, 845070
1, 91200, Tempo, 821917
1, 91920, Tempo, 857142
1, 92280, Tempo, 821917
1, 93000, Tempo, 845070
1, 93120, Tempo, 821917
1, 93960, Tempo, 845070
1, 94080, Tempo, 821917
1, 94800, Tempo, 857142
1, 95160, Tempo, 821917
1, 95880, Tempo, 845070
1, 96000, Tempo, 821917
1, 96840, Tempo, 845070
1, 97560, Tempo, 857142
1, 97680, Tempo, 952380
1, 97920, Tempo, 923076
1, 98160, Tempo, 821917
1, 99630, Tempo, 845070
1, 99840, Tempo, 821917
1, 100560, Tempo, 857142
1, 100920, Tempo, 821917
1, 102490, Tempo, 845070
1, 102720, Tempo, 821917
1, 103440, Tempo, 857142
1, 103800, Tempo, 821917
1, 105000, Tempo, 845070
1, 105120, Tempo, 821917
1, 105480, Tempo, 845070
1, 105600, Tempo, 821917
1, 106320, Tempo, 857142
1, 106680, Tempo, 821917
1, 107400, Tempo, 845070
1, 107520, Tempo, 821917
1, 108360, Tempo, 845070
1, 108480, Tempo, 821917
1, 109200, Tempo, 857142
1, 109560, Tempo, 821917
1, 110280, Tempo, 845070
1, 110400, Tempo, 821917
1, 111240, Tempo, 845070
1, 111360, Tempo, 821917
1, 112080, Tempo, 857142
1, 112440, Tempo, 821917
1, 113160, Tempo, 845070
1, 113280, Tempo, 821917
1, 114120, Tempo, 845070
1, 114240, Tempo, 821917
1, 114960, Tempo, 857142
1, 115320, Tempo, 821917
1, 116040, Tempo, 845070
1, 116160, Tempo, 821917
1, 117000, Tempo, 845070
1, 117120, Tempo, 821917
1, 117840, Tempo, 857142
1, 118200, Tempo, 821917
1, 118920, Tempo, 845070
1, 119040, Tempo, 821917
1, 119880, Tempo, 845070
1, 120000, Tempo, 821917
1, 120720, Tempo, 857142
1, 121080, Tempo, 821917
1, 122760, Tempo, 845070
1, 122880, Tempo, 821917
1, 123600, Tempo, 857142
1, 123960, Tempo, 821917
1, 124680, Tempo, 845070
1, 124800, Tempo, 821917
1, 125640, Tempo, 845070
1, 126270, Tempo, 895522
1, 126480, Tempo, 1071428
1, 126720, Tempo, 923076
1, 126945, Tempo, 821917
1, 128390, Tempo, 845070
1, 128640, Tempo, 821917
1, 129360, Tempo, 857142
1, 129720, Tempo, 821917
1, 130320, Tempo, 845070
1, 130440, Tempo, 821917
1, 131400, Tempo, 845070
1, 131520, Tempo, 821917
1, 132240, Tempo, 857142
1, 132600, Tempo, 821917
1, 133320, Tempo, 845070
1, 133440, Tempo, 821917
1, 134280, Tempo, 845070
1, 134400, Tempo, 821917
1, 135120, Tempo, 857142
1, 135480, Tempo, 821917
1, 136200, Tempo, 845070
1, 136320, Tempo, 821917
1, 137160, Tempo, 845070
1, 137280, Tempo, 845070
1, 137880, Tempo, 869565
1, 138000, Tempo, 952380
1, 138240, Tempo, 923076
1, 138720, Tempo, 952380
1, 139560, Tempo, 1132075
1, 139665, Tempo, 1111111
1, 139920, Tempo, 1818181
1, 140160, Tempo, 2727272
1, 140160, End_track
2, 0, Start_track
2, 0, Title_t, "Unnamed Track"
2, 0, Control_c, 1, 0, 0
2, 0, Control_c, 1, 32, 0
2, 0, Program_c, 1, 0
2, 0, Control_c, 1, 7, 127
2, 0, Pitch_bend_c, 1, 8192
2, 0, Control_c, 1, 1, 0
2, 0, Control_c, 1, 64, 0
2, 0, Control_c, 1, 93, 28
2, 0, Control_c, 1, 91, 100
2, 0, Control_c, 1, 10, 73
2, 3120, Note_on_c, 1, 60, 40
2, 3360, Note_off_c, 1, 60, 0
2, 3360, Note_on_c, 1, 65, 40
2, 3600, Note_off_c, 1, 65, 0
2, 3600, Note_on_c, 1, 67, 40
2, 3840, Note_off_c, 1, 67, 0
2, 3840, Note_on_c, 1, 68, 41
2, 4080, Note_off_c, 1, 68, 0
2, 4080, Note_on_c, 1, 64, 41
2, 4320, Note_off_c, 1, 64, 0
2, 4320, Note_on_c, 1, 65, 41
2, 4560, Note_off_c, 1, 65, 0
2, 4560, Note_on_c, 1, 62, 41
2, 4800, Note_off_c, 1, 62, 0
2, 4800, Note_on_c, 1, 60, 41
2, 5040, Note_off_c, 1, 60, 0
2, 5040, Note_on_c, 1, 59, 41
2, 5280, Note_off_c, 1, 59, 0
2, 5280, Note_on_c, 1, 62, 41
2, 5520, Note_off_c, 1, 62, 0
2, 5520, Note_on_c, 1, 68, 42
2, 5760, Note_off_c, 1, 68, 0
2, 6000, Note_on_c, 1, 70, 42
2, 6240, Note_off_c, 1, 70, 0
2, 6240, Note_on_c, 1, 68, 42
2, 6480, Note_off_c, 1, 68, 0
2, 6480, Note_on_c, 1, 67, 42
2, 6720, Note_off_c, 1, 67, 0
2, 6720, Note_on_c, 1, 65, 42
2, 6960, Note_off_c, 1, 65, 0
2, 6960, Note_on_c, 1, 64, 43
2, 7200, Note_off_c, 1, 64, 0
2, 7200, Note_on_c, 1, 61, 43
2, 7440, Note_off_c, 1, 61, 0
2, 7440, Note_on_c, 1, 60, 43
2, 7680, Note_off_c, 1, 60, 0
2, 7680, Note_on_c, 1, 58, 43
2, 7920, Note_off_c, 1, 58, 0
2, 7920, Note_on_c, 1, 57, 43
2, 8160, Note_off_c, 1, 57, 0
2, 8160, Note_on_c, 1, 60, 43
2, 8400, Note_off_c, 1, 60, 0
2, 8400, Note_on_c, 1, 65, 44
2, 8640, Note_off_c, 1, 65, 0
2, 8640, Note_on_c, 1, 58, 44
2, 8880, Note_off_c, 1, 58, 0
2, 8880, Note_on_c, 1, 61, 44
2, 9120, Note_off_c, 1, 61, 0
2, 9120, Note_on_c, 1, 65, 44
2, 10800, Note_off_c, 1, 65, 0
2, 10800, Note_on_c, 1, 68, 45
2, 11040, Note_off_c, 1, 68, 0
2, 11040, Note_on_c, 1, 67, 45
2, 11280, Note_off_c, 1, 67, 0
2, 11280, Note_on_c, 1, 65, 46
2, 11520, Note_off_c, 1, 65, 0
2, 11520, Note_on_c, 1, 64, 46
2, 12000, Note_off_c, 1, 64, 0
2, 12480, Note_on_c, 1, 72, 46
2, 12720, Note_off_c, 1, 72, 0
2, 12720, Note_on_c, 1, 73, 47
2, 12960, Note_off_c, 1, 73, 0
2, 12960, Note_on_c, 1, 72, 47
2, 13200, Note_off_c, 1, 72, 0
2, 13200, Note_on_c, 1, 70, 47
2, 13440, Note_off_c, 1, 70, 0
2, 13440, Note_on_c, 1, 68, 47
2, 13680, Note_off_c, 1, 68, 0
2, 13680, Note_on_c, 1, 70, 47
2, 13920, Note_off_c, 1, 70, 0
2, 13920, Note_on_c, 1, 68, 47
2, 14160, Note_off_c, 1, 68, 0
2, 14160, Note_on_c, 1, 67, 47
2, 14400, Note_off_c, 1, 67, 0
2, 14400, Note_on_c, 1, 65, 48
2, 14640, Note_off_c, 1, 65, 0
2, 14640, Note_on_c, 1, 60, 48
2, 14880, Note_off_c, 1, 60, 0
2, 14880, Note_on_c, 1, 65, 48
2, 15120, Note_off_c, 1, 65, 0
2, 15120, Note_on_c, 1, 67, 48
2, 15360, Note_off_c, 1, 67, 0
2, 15360, Note_on_c, 1, 68, 48
2, 15600, Note_off_c, 1, 68, 0
2, 15600, Note_on_c, 1, 64, 48
2, 15840, Note_off_c, 1, 64, 0
2, 15840, Note_on_c, 1, 65, 49
2, 16080, Note_off_c, 1, 65, 0
2, 16080, Note_on_c, 1, 62, 49
2, 16320, Note_off_c, 1, 62, 0
2, 16320, Note_on_c, 1, 60, 49
2, 16560, Note_off_c, 1, 60, 0
2, 16560, Note_on_c, 1, 58, 49
2, 16800, Note_on_c, 1, 62, 49
2, 17040, Note_off_c, 1, 62, 0
2, 17040, Note_on_c, 1, 68, 49
2, 17280, Note_off_c, 1, 68, 0
2, 17280, Note_off_c, 1, 58, 0
2, 17280, Note_on_c, 1, 67, 50
2, 17760, Note_off_c, 1, 67, 0
2, 18240, Note_on_c, 1, 75, 50
2, 19680, Note_off_c, 1, 75, 0
2, 19680, Note_on_c, 1, 75, 51
2, 20160, Note_off_c, 1, 75, 0
2, 20160, Note_on_c, 1, 73, 52
2, 20400, Note_off_c, 1, 73, 0
2, 20400, Note_on_c, 1, 75, 52
2, 20640, Note_off_c, 1, 75, 0
2, 20640, Note_on_c, 1, 73, 52
2, 20880, Note_off_c, 1, 73, 0
2, 20880, Note_on_c, 1, 72, 52
2, 21120, Note_off_c, 1, 72, 0
2, 21120, Note_on_c, 1, 70, 52
2, 21360, Note_off_c, 1, 70, 0
2, 21360, Note_on_c, 1, 65, 52
2, 21600, Note_off_c, 1, 65, 0
2, 21600, Note_on_c, 1, 70, 53
2, 21840, Note_off_c, 1, 70, 0
2, 21840, Note_on_c, 1, 72, 53
2, 22080, Note_off_c, 1, 72, 0
2, 22080, Note_on_c, 1, 73, 53
2, 23040, Note_off_c, 1, 73, 0
2, 24960, Note_on_c, 1, 75, 51
2, 25200, Note_off_c, 1, 75, 0
2, 25200, Note_on_c, 1, 77, 51
2, 25440, Note_off_c, 1, 77, 0
2, 25440, Note_on_c, 1, 75, 51
2, 25680, Note_off_c, 1, 75, 0
2, 25680, Note_on_c, 1, 73, 50
2, 25920, Note_off_c, 1, 73, 0
2, 25920, Note_on_c, 1, 72, 50
2, 26880, Note_off_c, 1, 72, 0
2, 26880, Note_on_c, 1, 77, 50
2, 28080, Note_off_c, 1, 77, 0
2, 28080, Note_on_c, 1, 71, 49
2, 28320, Note_off_c, 1, 71, 0
2, 28320, Note_on_c, 1, 70, 49
2, 28560, Note_off_c, 1, 70, 0
2, 28560, Note_on_c, 1, 68, 49
2, 28800, Note_off_c, 1, 68, 0
2, 28800, Note_on_c, 1, 67, 49
2, 29760, Note_off_c, 1, 67, 0
2, 29760, Note_on_c, 1, 68, 48
2, 31200, Note_off_c, 1, 68, 0
2, 31200, Note_on_c, 1, 65, 47
2, 31920, Note_off_c, 1, 65, 0
2, 31920, Note_on_c, 1, 63, 47
2, 32400, Note_off_c, 1, 63, 0
2, 32400, Note_on_c, 1, 62, 47
2, 32880, Note_off_c, 1, 62, 0
2, 32880, Note_on_c, 1, 60, 47
2, 33360, Note_off_c, 1, 60, 0
2, 33360, Note_on_c, 1, 59, 46
2, 33600, Note_off_c, 1, 59, 0
2, 33600, Note_on_c, 1, 58, 46
2, 33840, Note_off_c, 1, 58, 0
2, 33840, Note_on_c, 1, 62, 46
2, 34080, Note_off_c, 1, 62, 0
2, 34080, Note_on_c, 1, 63, 46
2, 34320, Note_off_c, 1, 63, 0
2, 34320, Note_on_c, 1, 58, 46
2, 34560, Note_off_c, 1, 58, 0
2, 34560, Note_on_c, 1, 60, 44
2, 35040, Note_off_c, 1, 60, 0
2, 36720, Note_on_c, 1, 75, 46
2, 36960, Note_on_c, 1, 80, 47
2, 37200, Note_off_c, 1, 80, 0
2, 37200, Note_on_c, 1, 82, 47
2, 37440, Note_off_c, 1, 82, 0
2, 37440, Note_on_c, 1, 84, 47
2, 37680, Note_off_c, 1, 84, 0
2, 37680, Note_on_c, 1, 81, 47
2, 37920, Note_off_c, 1, 81, 0
2, 37920, Note_on_c, 1, 78, 47
2, 37927, Note_off_c, 1, 75, 0
2, 38160, Note_off_c, 1, 78, 0
2, 38160, Note_on_c, 1, 77, 47
2, 38400, Note_off_c, 1, 77, 0
2, 38400, Note_on_c, 1, 75, 47
2, 38640, Note_off_c, 1, 75, 0
2, 38640, Note_on_c, 1, 73, 47
2, 38880, Note_off_c, 1, 73, 0
2, 38880, Note_on_c, 1, 72, 47
2, 39120, Note_off_c, 1, 72, 0
2, 39120, Note_on_c, 1, 70, 48
2, 39360, Note_off_c, 1, 70, 0
2, 39360, Note_on_c, 1, 69, 48
2, 39600, Note_off_c, 1, 69, 0
2, 39600, Note_on_c, 1, 66, 48
2, 39840, Note_off_c, 1, 66, 0
2, 39840, Note_on_c, 1, 65, 48
2, 40080, Note_off_c, 1, 65, 0
2, 40080, Note_on_c, 1, 63, 48
2, 40320, Note_off_c, 1, 63, 0
2, 40320, Note_on_c, 1, 61, 48
2, 40560, Note_off_c, 1, 61, 0
2, 40560, Note_on_c, 1, 60, 48
2, 40800, Note_off_c, 1, 60, 0
2, 40800, Note_on_c, 1, 58, 48
2, 41040, Note_off_c, 1, 58, 0
2, 41040, Note_on_c, 1, 57, 48
2, 41280, Note_off_c, 1, 57, 0
2, 41280, Note_on_c, 1, 63, 49
2, 41640, Note_off_c, 1, 63, 0
2, 41760, Note_on_c, 1, 72, 49
2, 42480, Note_off_c, 1, 72, 0
2, 42480, Note_on_c, 1, 75, 49
2, 42720, Note_off_c, 1, 75, 0
2, 42720, Note_on_c, 1, 77, 49
2, 42960, Note_off_c, 1, 77, 0
2, 42960, Note_on_c, 1, 78, 49
2, 43200, Note_off_c, 1, 78, 0
2, 43200, Note_on_c, 1, 77, 49
2, 43440, Note_off_c, 1, 77, 0
2, 43440, Note_on_c, 1, 73, 49
2, 43680, Note_off_c, 1, 73, 0
2, 43680, Note_on_c, 1, 72, 50
2, 43920, Note_off_c, 1, 72, 0
2, 43920, Note_on_c, 1, 70, 50
2, 44160, Note_off_c, 1, 70, 0
2, 44160, Note_on_c, 1, 68, 50
2, 44400, Note_off_c, 1, 68, 0
2, 44400, Note_on_c, 1, 67, 50
2, 44640, Note_off_c, 1, 67, 0
2, 44640, Note_on_c, 1, 65, 50
2, 44880, Note_off_c, 1, 65, 0
2, 44880, Note_on_c, 1, 63, 50
2, 45120, Note_off_c, 1, 63, 0
2, 45120, Note_on_c, 1, 62, 50
2, 45360, Note_off_c, 1, 62, 0
2, 45360, Note_on_c, 1, 60, 50
2, 45600, Note_off_c, 1, 60, 0
2, 45600, Note_on_c, 1, 59, 50
2, 45840, Note_off_c, 1, 59, 0
2, 45840, Note_on_c, 1, 56, 51
2, 46080, Note_off_c, 1, 56, 0
2, 46080, Note_on_c, 1, 55, 51
2, 46320, Note_off_c, 1, 55, 0
2, 46320, Note_on_c, 1, 53, 51
2, 46560, Note_off_c, 1, 53, 0
2, 46560, Note_on_c, 1, 51, 51
2, 46800, Note_off_c, 1, 51, 0
2, 46800, Note_on_c, 1, 50, 51
2, 47040, Note_off_c, 1, 50, 0
2, 47040, Note_on_c, 1, 55, 51
2, 47400, Note_off_c, 1, 55, 0
2, 47520, Note_on_c, 1, 60, 51
2, 48240, Note_off_c, 1, 60, 0
2, 48240, Note_on_c, 1, 60, 52
2, 48480, Note_off_c, 1, 60, 0
2, 48480, Note_on_c, 1, 62, 52
2, 48720, Note_off_c, 1, 62, 0
2, 48720, Note_on_c, 1, 63, 52
2, 48960, Note_off_c, 1, 63, 0
2, 48960, Note_on_c, 1, 62, 52
2, 49200, Note_off_c, 1, 62, 0
2, 49200, Note_on_c, 1, 67, 52
2, 49440, Note_off_c, 1, 67, 0
2, 49440, Note_on_c, 1, 66, 52
2, 49680, Note_off_c, 1, 66, 0
2, 49680, Note_on_c, 1, 69, 52
2, 49920, Note_off_c, 1, 69, 0
2, 49920, Note_on_c, 1, 62, 52
2, 50280, Note_off_c, 1, 62, 0
2, 50400, Note_on_c, 1, 74, 53
2, 51120, Note_off_c, 1, 74, 0
2, 51120, Note_on_c, 1, 75, 53
2, 51360, Note_off_c, 1, 75, 0
2, 51360, Note_on_c, 1, 74, 53
2, 51600, Note_off_c, 1, 74, 0
2, 51600, Note_on_c, 1, 72, 53
2, 51840, Note_off_c, 1, 72, 0
2, 51840, Note_on_c, 1, 70, 53
2, 52080, Note_off_c, 1, 70, 0
2, 52080, Note_on_c, 1, 72, 53
2, 52320, Note_off_c, 1, 72, 0
2, 52320, Note_on_c, 1, 70, 53
2, 52560, Note_off_c, 1, 70, 0
2, 52560, Note_on_c, 1, 68, 53
2, 52800, Note_off_c, 1, 68, 0
2, 52800, Note_on_c, 1, 67, 54
2, 53040, Note_off_c, 1, 67, 0
2, 53040, Note_on_c, 1, 68, 54
2, 53280, Note_off_c, 1, 68, 0
2, 53280, Note_on_c, 1, 67, 54
2, 53520, Note_off_c, 1, 67, 0
2, 53520, Note_on_c, 1, 65, 54
2, 53760, Note_off_c, 1, 65, 0
2, 53760, Note_on_c, 1, 63, 54
2, 54000, Note_off_c, 1, 63, 0
2, 54000, Note_on_c, 1, 65, 54
2, 54240, Note_off_c, 1, 65, 0
2, 54240, Note_on_c, 1, 63, 54
2, 54480, Note_off_c, 1, 63, 0
2, 54480, Note_on_c, 1, 61, 54
2, 54720, Note_off_c, 1, 61, 0
2, 54720, Note_on_c, 1, 60, 54
2, 55200, Note_off_c, 1, 60, 0
2, 56160, Note_on_c, 1, 72, 55
2, 56640, Note_off_c, 1, 72, 0
2, 56640, Note_on_c, 1, 74, 55
2, 57120, Note_off_c, 1, 74, 0
2, 57120, Note_on_c, 1, 75, 56
2, 57600, Note_off_c, 1, 75, 0
2, 57600, Note_on_c, 1, 77, 56
2, 57840, Note_off_c, 1, 77, 0
2, 57840, Note_on_c, 1, 74, 56
2, 58080, Note_off_c, 1, 74, 0
2, 58080, Note_on_c, 1, 68, 56
2, 58320, Note_off_c, 1, 68, 0
2, 58320, Note_on_c, 1, 67, 56
2, 58560, Note_off_c, 1, 67, 0
2, 58560, Note_on_c, 1, 65, 56
2, 58800, Note_off_c, 1, 65, 0
2, 58800, Note_on_c, 1, 68, 56
2, 59040, Note_off_c, 1, 68, 0
2, 59040, Note_on_c, 1, 62, 56
2, 59280, Note_off_c, 1, 62, 0
2, 59280, Note_on_c, 1, 65, 56
2, 59520, Note_off_c, 1, 65, 0
2, 59520, Note_on_c, 1, 59, 57
2, 59760, Note_off_c, 1, 59, 0
2, 59760, Note_on_c, 1, 62, 57
2, 60000, Note_off_c, 1, 62, 0
2, 60000, Note_on_c, 1, 55, 57
2, 60240, Note_off_c, 1, 55, 0
2, 60240, Note_on_c, 1, 65, 57
2, 60480, Note_off_c, 1, 65, 0
2, 60480, Note_on_c, 1, 64, 57
2, 60720, Note_off_c, 1, 64, 0
2, 60720, Note_on_c, 1, 67, 57
2, 60960, Note_off_c, 1, 67, 0
2, 60960, Note_on_c, 1, 60, 57
2, 61200, Note_off_c, 1, 60, 0
2, 61200, Note_on_c, 1, 72, 57
2, 61440, Note_off_c, 1, 72, 0
2, 61440, Note_on_c, 1, 66, 57
2, 61680, Note_on_c, 1, 75, 58
2, 61920, Note_off_c, 1, 75, 0
2, 61920, Note_on_c, 1, 74, 58
2, 62160, Note_off_c, 1, 74, 0
2, 62160, Note_on_c, 1, 72, 58
2, 62400, Note_off_c, 1, 72, 0
2, 62400, Note_off_c, 1, 66, 0
2, 62400, Note_on_c, 1, 71, 58
2, 63360, Note_off_c, 1, 71, 0
2, 63360, Note_on_c, 1, 72, 58
2, 64320, Note_off_c, 1, 72, 0
2, 64320, Note_on_c, 1, 68, 59
2, 65280, Note_off_c, 1, 68, 0
2, 65280, Note_on_c, 1, 67, 59
2, 65520, Note_off_c, 1, 67, 0
2, 65520, Note_on_c, 1, 65, 59
2, 65760, Note_off_c, 1, 65, 0
2, 65760, Note_on_c, 1, 63, 59
2, 66000, Note_off_c, 1, 63, 0
2, 66000, Note_on_c, 1, 62, 59
2, 66240, Note_off_c, 1, 62, 0
2, 66240, Note_on_c, 1, 63, 57
2, 66720, Note_off_c, 1, 63, 0
2, 67200, Note_on_c, 1, 75, 60
2, 68160, Note_off_c, 1, 75, 0
2, 68160, Note_on_c, 1, 75, 60
2, 69120, Note_off_c, 1, 75, 0
2, 69120, Note_on_c, 1, 74, 61
2, 69360, Note_off_c, 1, 74, 0
2, 69360, Note_on_c, 1, 77, 61
2, 69600, Note_off_c, 1, 77, 0
2, 69600, Note_on_c, 1, 75, 61
2, 69840, Note_off_c, 1, 75, 0
2, 69840, Note_on_c, 1, 74, 61
2, 70080, Note_off_c, 1, 74, 0
2, 70080, Note_on_c, 1, 72, 61
2, 70320, Note_off_c, 1, 72, 0
2, 70320, Note_on_c, 1, 71, 61
2, 70560, Note_off_c, 1, 71, 0
2, 70560, Note_on_c, 1, 68, 61
2, 70800, Note_off_c, 1, 68, 0
2, 70800, Note_on_c, 1, 67, 62
2, 71040, Note_off_c, 1, 67, 0
2, 71040, Note_on_c, 1, 65, 62
2, 71280, Note_off_c, 1, 65, 0
2, 71280, Note_on_c, 1, 68, 62
2, 71520, Note_off_c, 1, 68, 0
2, 71520, Note_on_c, 1, 67, 62
2, 71760, Note_off_c, 1, 67, 0
2, 71760, Note_on_c, 1, 65, 62
2, 72000, Note_off_c, 1, 65, 0
2, 72000, Note_on_c, 1, 63, 60
2, 72480, Note_off_c, 1, 63, 0
2, 72960, Note_on_c, 1, 75, 63
2, 73920, Note_off_c, 1, 75, 0
2, 73920, Note_on_c, 1, 75, 63
2, 74880, Note_off_c, 1, 75, 0
2, 74880, Note_on_c, 1, 74, 61
2, 75120, Note_off_c, 1, 74, 0
2, 75120, Note_on_c, 1, 80, 61
2, 75360, Note_off_c, 1, 80, 0
2, 75360, Note_on_c, 1, 79, 61
2, 75600, Note_off_c, 1, 79, 0
2, 75600, Note_on_c, 1, 77, 61
2, 75840, Note_off_c, 1, 77, 0
2, 75840, Note_on_c, 1, 75, 61
2, 76080, Note_off_c, 1, 75, 0
2, 76080, Note_on_c, 1, 74, 61
2, 76320, Note_off_c, 1, 74, 0
2, 76320, Note_on_c, 1, 72, 61
2, 76560, Note_off_c, 1, 72, 0
2, 76560, Note_on_c, 1, 70, 61
2, 76800, Note_off_c, 1, 70, 0
2, 76800, Note_on_c, 1, 68, 61
2, 77040, Note_off_c, 1, 68, 0
2, 77040, Note_on_c, 1, 72, 61
2, 77280, Note_off_c, 1, 72, 0
2, 77280, Note_on_c, 1, 70, 61
2, 77520, Note_off_c, 1, 70, 0
2, 77520, Note_on_c, 1, 68, 61
2, 77760, Note_off_c, 1, 68, 0
2, 77760, Note_on_c, 1, 67, 61
2, 78720, Note_off_c, 1, 67, 0
2, 78720, Note_on_c, 1, 68, 60
2, 78960, Note_off_c, 1, 68, 0
2, 78960, Note_on_c, 1, 67, 60
2, 79200, Note_off_c, 1, 67, 0
2, 79200, Note_on_c, 1, 65, 60
2, 79440, Note_off_c, 1, 65, 0
2, 79440, Note_on_c, 1, 63, 60
2, 79680, Note_off_c, 1, 63, 0
2, 79680, Note_on_c, 1, 62, 60
2, 80640, Note_off_c, 1, 62, 0
2, 80640, Note_on_c, 1, 63, 60
2, 81000, Note_off_c, 1, 63, 0
2, 84480, Note_on_c, 1, 68, 59
2, 85680, Note_off_c, 1, 68, 0
2, 85680, Note_on_c, 1, 72, 59
2, 85920, Note_off_c, 1, 72, 0
2, 85920, Note_on_c, 1, 70, 59
2, 86160, Note_off_c, 1, 70, 0
2, 86160, Note_on_c, 1, 68, 59
2, 86400, Note_off_c, 1, 68, 0
2, 86400, Note_on_c, 1, 67, 59
2, 86640, Note_off_c, 1, 67, 0
2, 90240, Note_on_c, 1, 66, 58
2, 91440, Note_off_c, 1, 66, 0
2, 91440, Note_on_c, 1, 70, 57
2, 91680, Note_off_c, 1, 70, 0
2, 91680, Note_on_c, 1, 68, 57
2, 91920, Note_off_c, 1, 68, 0
2, 91920, Note_on_c, 1, 66, 57
2, 92160, Note_off_c, 1, 66, 0
2, 92160, Note_on_c, 1, 65, 57
2, 92400, Note_off_c, 1, 65, 0
2, 92400, Note_on_c, 1, 66, 57
2, 92640, Note_off_c, 1, 66, 0
2, 92640, Note_on_c, 1, 65, 57
2, 92880, Note_off_c, 1, 65, 0
2, 92880, Note_on_c, 1, 63, 57
2, 93120, Note_off_c, 1, 63, 0
2, 93120, Note_on_c, 1, 61, 57
2, 93600, Note_off_c, 1, 61, 0
2, 94080, Note_on_c, 1, 70, 57
2, 94320, Note_off_c, 1, 70, 0
2, 94320, Note_on_c, 1, 72, 57
2, 94560, Note_off_c, 1, 72, 0
2, 94560, Note_on_c, 1, 70, 56
2, 94800, Note_off_c, 1, 70, 0
2, 94800, Note_on_c, 1, 68, 56
2, 95040, Note_off_c, 1, 68, 0
2, 95040, Note_on_c, 1, 67, 56
2, 95280, Note_off_c, 1, 67, 0
2, 95280, Note_on_c, 1, 68, 56
2, 95520, Note_off_c, 1, 68, 0
2, 95520, Note_on_c, 1, 67, 56
2, 95760, Note_off_c, 1, 67, 0
2, 95760, Note_on_c, 1, 65, 56
2, 96000, Note_off_c, 1, 65, 0
2, 96000, Note_on_c, 1, 64, 56
2, 96480, Note_off_c, 1, 64, 0
2, 98160, Note_on_c, 1, 60, 58
2, 98400, Note_off_c, 1, 60, 0
2, 98400, Note_on_c, 1, 65, 58
2, 98640, Note_off_c, 1, 65, 0
2, 98640, Note_on_c, 1, 67, 58
2, 98880, Note_off_c, 1, 67, 0
2, 98880, Note_on_c, 1, 68, 58
2, 99120, Note_off_c, 1, 68, 0
2, 99120, Note_on_c, 1, 64, 59
2, 99360, Note_off_c, 1, 64, 0
2, 99360, Note_on_c, 1, 65, 59
2, 99600, Note_off_c, 1, 65, 0
2, 99600, Note_on_c, 1, 62, 59
2, 99840, Note_off_c, 1, 62, 0
2, 99840, Note_on_c, 1, 60, 59
2, 100080, Note_off_c, 1, 60, 0
2, 100080, Note_on_c, 1, 59, 59
2, 100320, Note_off_c, 1, 59, 0
2, 100320, Note_on_c, 1, 62, 60
2, 100560, Note_off_c, 1, 62, 0
2, 100560, Note_on_c, 1, 68, 60
2, 100800, Note_off_c, 1, 68, 0
2, 101040, Note_on_c, 1, 70, 60
2, 101280, Note_off_c, 1, 70, 0
2, 101280, Note_on_c, 1, 68, 61
2, 101520, Note_off_c, 1, 68, 0
2, 101520, Note_on_c, 1, 67, 61
2, 101760, Note_off_c, 1, 67, 0
2, 101760, Note_on_c, 1, 65, 61
2, 102000, Note_off_c, 1, 65, 0
2, 102000, Note_on_c, 1, 64, 61
2, 102240, Note_off_c, 1, 64, 0
2, 102240, Note_on_c, 1, 61, 61
2, 102480, Note_off_c, 1, 61, 0
2, 102480, Note_on_c, 1, 60, 62
2, 102720, Note_off_c, 1, 60, 0
2, 102720, Note_on_c, 1, 58, 62
2, 102960, Note_off_c, 1, 58, 0
2, 102960, Note_on_c, 1, 56, 62
2, 103200, Note_off_c, 1, 56, 0
2, 103200, Note_on_c, 1, 60, 62
2, 103440, Note_off_c, 1, 60, 0
2, 103440, Note_on_c, 1, 65, 63
2, 103680, Note_off_c, 1, 65, 0
2, 103680, Note_on_c, 1, 58, 63
2, 103920, Note_off_c, 1, 58, 0
2, 103920, Note_on_c, 1, 61, 63
2, 104160, Note_off_c, 1, 61, 0
2, 104160, Note_on_c, 1, 65, 63
2, 105840, Note_off_c, 1, 65, 0
2, 105840, Note_on_c, 1, 68, 65
2, 106080, Note_off_c, 1, 68, 0
2, 106080, Note_on_c, 1, 67, 65
2, 106320, Note_off_c, 1, 67, 0
2, 106320, Note_on_c, 1, 65, 65
2, 106560, Note_off_c, 1, 65, 0
2, 106560, Note_on_c, 1, 64, 65
2, 107040, Note_off_c, 1, 64, 0
2, 107520, Note_on_c, 1, 72, 66
2, 107760, Note_off_c, 1, 72, 0
2, 107760, Note_on_c, 1, 73, 67
2, 108000, Note_off_c, 1, 73, 0
2, 108000, Note_on_c, 1, 72, 67
2, 108240, Note_off_c, 1, 72, 0
2, 108240, Note_on_c, 1, 70, 67
2, 108480, Note_off_c, 1, 70, 0
2, 108480, Note_on_c, 1, 69, 67
2, 109440, Note_off_c, 1, 69, 0
2, 109440, Note_on_c, 1, 70, 68
2, 110160, Note_off_c, 1, 70, 0
2, 110160, Note_on_c, 1, 72, 69
2, 110400, Note_off_c, 1, 72, 0
2, 110400, Note_on_c, 1, 74, 69
2, 111360, Note_off_c, 1, 74, 0
2, 111360, Note_on_c, 1, 75, 70
2, 112320, Note_off_c, 1, 75, 0
2, 112320, Note_on_c, 1, 72, 71
2, 113040, Note_off_c, 1, 72, 0
2, 113040, Note_on_c, 1, 73, 72
2, 113280, Note_off_c, 1, 73, 0
2, 113280, Note_on_c, 1, 75, 72
2, 114240, Note_off_c, 1, 75, 0
2, 114240, Note_on_c, 1, 77, 73
2, 114480, Note_off_c, 1, 77, 0
2, 114480, Note_on_c, 1, 78, 73
2, 114720, Note_off_c, 1, 78, 0
2, 114720, Note_on_c, 1, 77, 73
2, 114960, Note_off_c, 1, 77, 0
2, 114960, Note_on_c, 1, 75, 73
2, 115200, Note_off_c, 1, 75, 0
2, 115200, Note_on_c, 1, 73, 73
2, 115440, Note_off_c, 1, 73, 0
2, 115440, Note_on_c, 1, 75, 73
2, 115680, Note_off_c, 1, 75, 0
2, 115680, Note_on_c, 1, 73, 73
2, 115920, Note_off_c, 1, 73, 0
2, 115920, Note_on_c, 1, 72, 72
2, 116160, Note_off_c, 1, 72, 0
2, 116160, Note_on_c, 1, 70, 72
2, 117120, Note_off_c, 1, 70, 0
2, 117120, Note_on_c, 1, 71, 71
2, 118080, Note_off_c, 1, 71, 0
2, 118080, Note_on_c, 1, 75, 70
2, 118320, Note_off_c, 1, 75, 0
2, 118320, Note_on_c, 1, 77, 70
2, 118560, Note_off_c, 1, 77, 0
2, 118560, Note_on_c, 1, 75, 70
2, 118800, Note_off_c, 1, 75, 0
2, 118800, Note_on_c, 1, 73, 69
2, 119040, Note_off_c, 1, 73, 0
2, 119040, Note_on_c, 1, 72, 69
2, 120000, Note_off_c, 1, 72, 0
2, 120000, Note_on_c, 1, 73, 68
2, 121200, Note_off_c, 1, 73, 0
2, 121200, Note_on_c, 1, 75, 67
2, 121440, Note_off_c, 1, 75, 0
2, 121440, Note_on_c, 1, 73, 67
2, 121680, Note_off_c, 1, 73, 0
2, 121680, Note_on_c, 1, 72, 66
2, 121920, Note_off_c, 1, 72, 0
2, 121920, Note_on_c, 1, 70, 66
2, 122160, Note_off_c, 1, 70, 0
2, 122160, Note_on_c, 1, 72, 66
2, 122400, Note_off_c, 1, 72, 0
2, 122400, Note_on_c, 1, 70, 65
2, 122640, Note_off_c, 1, 70, 0
2, 122640, Note_on_c, 1, 68, 65
2, 122880, Note_off_c, 1, 68, 0
2, 122880, Note_on_c, 1, 67, 65
2, 123120, Note_off_c, 1, 67, 0
2, 123120, Note_on_c, 1, 68, 65
2, 123360, Note_off_c, 1, 68, 0
2, 123360, Note_on_c, 1, 67, 64
2, 123600, Note_off_c, 1, 67, 0
2, 123600, Note_on_c, 1, 65, 64
2, 123840, Note_off_c, 1, 65, 0
2, 123840, Note_on_c, 1, 64, 64
2, 124800, Note_off_c, 1, 64, 0
2, 124800, Note_on_c, 1, 65, 63
2, 126000, Note_off_c, 1, 65, 0
2, 126000, Note_on_c, 1, 64, 62
2, 126240, Note_off_c, 1, 64, 0
2, 126240, Note_on_c, 1, 67, 61
2, 126480, Note_off_c, 1, 67, 0
2, 126480, Note_on_c, 1, 64, 61
2, 126720, Note_off_c, 1, 64, 0
2, 126720, Note_on_c, 1, 65, 61
2, 126960, Note_off_c, 1, 65, 0
2, 126960, Note_on_c, 1, 60, 61
2, 127200, Note_off_c, 1, 60, 0
2, 127200, Note_on_c, 1, 65, 60
2, 127440, Note_off_c, 1, 65, 0
2, 127440, Note_on_c, 1, 67, 60
2, 127680, Note_off_c, 1, 67, 0
2, 127680, Note_on_c, 1, 68, 60
2, 127920, Note_off_c, 1, 68, 0
2, 127920, Note_on_c, 1, 64, 60
2, 128160, Note_off_c, 1, 64, 0
2, 128160, Note_on_c, 1, 65, 59
2, 128400, Note_off_c, 1, 65, 0
2, 128400, Note_on_c, 1, 62, 59
2, 128640, Note_off_c, 1, 62, 0
2, 128640, Note_on_c, 1, 60, 59
2, 128880, Note_off_c, 1, 60, 0
2, 128880, Note_on_c, 1, 59, 59
2, 129120, Note_off_c, 1, 59, 0
2, 129120, Note_on_c, 1, 62, 58
2, 129360, Note_off_c, 1, 62, 0
2, 129360, Note_on_c, 1, 68, 58
2, 129600, Note_off_c, 1, 68, 0
2, 129600, Note_on_c, 1, 61, 58
2, 129840, Note_off_c, 1, 61, 0
2, 129840, Note_on_c, 1, 60, 58
2, 130080, Note_off_c, 1, 60, 0
2, 130080, Note_on_c, 1, 64, 57
2, 130320, Note_off_c, 1, 64, 0
2, 130320, Note_on_c, 1, 67, 57
2, 130560, Note_off_c, 1, 67, 0
2, 130560, Note_on_c, 1, 58, 57
2, 130800, Note_off_c, 1, 58, 0
2, 130800, Note_on_c, 1, 57, 57
2, 131040, Note_off_c, 1, 57, 0
2, 131040, Note_on_c, 1, 60, 56
2, 131280, Note_off_c, 1, 60, 0
2, 131280, Note_on_c, 1, 66, 56
2, 131520, Note_off_c, 1, 66, 0
2, 131520, Note_on_c, 1, 60, 56
2, 131760, Note_off_c, 1, 60, 0
2, 131760, Note_on_c, 1, 58, 56
2, 132000, Note_off_c, 1, 58, 0
2, 132000, Note_on_c, 1, 62, 55
2, 132240, Note_off_c, 1, 62, 0
2, 132240, Note_on_c, 1, 65, 55
2, 132480, Note_off_c, 1, 65, 0
2, 132480, Note_on_c, 1, 59, 55
2, 132720, Note_off_c, 1, 59, 0
2, 132720, Note_on_c, 1, 68, 55
2, 132960, Note_off_c, 1, 68, 0
2, 132960, Note_on_c, 1, 67, 54
2, 133200, Note_off_c, 1, 67, 0
2, 133200, Note_on_c, 1, 65, 54
2, 133440, Note_off_c, 1, 65, 0
2, 133440, Note_on_c, 1, 64, 54
2, 134400, Note_off_c, 1, 64, 0
2, 134400, Note_on_c, 1, 73, 53
2, 135360, Note_off_c, 1, 73, 0
2, 135360, Note_on_c, 1, 72, 52
2, 136080, Note_off_c, 1, 72, 0
2, 136080, Note_on_c, 1, 68, 51
2, 136320, Note_off_c, 1, 68, 0
2, 136320, Note_on_c, 1, 67, 51
2, 136560, Note_off_c, 1, 67, 0
2, 136560, Note_on_c, 1, 65, 50
2, 136800, Note_off_c, 1, 65, 0
2, 136800, Note_on_c, 1, 64, 50
2, 137040, Note_off_c, 1, 64, 0
2, 137040, Note_on_c, 1, 61, 50
2, 137280, Note_off_c, 1, 61, 0
2, 137280, Note_on_c, 1, 60, 50
2, 137520, Note_off_c, 1, 60, 0
2, 137520, Note_on_c, 1, 58, 49
2, 137760, Note_off_c, 1, 58, 0
2, 137760, Note_on_c, 1, 56, 49
2, 138000, Note_off_c, 1, 56, 0
2, 138000, Note_on_c, 1, 55, 49
2, 138240, Note_off_c, 1, 55, 0
2, 138240, Note_on_c, 1, 56, 49
2, 138480, Note_on_c, 1, 60, 48
2, 138720, Note_on_c, 1, 65, 47
2, 141120, Note_off_c, 1, 60, 0
2, 141127, Note_off_c, 1, 65, 0
2, 141127, Note_off_c, 1, 56, 0
2, 141127, End_track
3, 0, Start_track
3, 0, Title_t, "Unnamed Track"
3, 0, Control_c, 4, 0, 0
3, 0, Control_c, 4, 32, 0
3, 0, Program_c, 4, 0
3, 0, Control_c, 4, 7, 120
3, 0, Pitch_bend_c, 4, 8192
3, 0, Control_c, 4, 1, 0
3, 0, Control_c, 4, 64, 0
3, 0, Control_c, 4, 93, 28
3, 0, Control_c, 4, 91, 100
3, 0, Control_c, 4, 10, 64
3, 2880, Note_on_c, 4, 44, 40
3, 2880, Note_on_c, 4, 53, 40
3, 2880, Note_on_c, 4, 48, 40
3, 4800, Note_off_c, 4, 48, 0
3, 4800, Note_off_c, 4, 53, 0
3, 4800, Note_off_c, 4, 44, 0
3, 4800, Note_on_c, 4, 56, 41
3, 5760, Note_off_c, 4, 56, 0
3, 5760, Note_on_c, 4, 55, 42
3, 7680, Note_off_c, 4, 55, 0
3, 7680, Note_on_c, 4, 53, 43
3, 8640, Note_off_c, 4, 53, 0
3, 8640, Note_on_c, 4, 53, 44
3, 9360, Note_on_c, 4, 63, 44
3, 9600, Note_off_c, 4, 63, 0
3, 9600, Note_on_c, 4, 61, 44
3, 9840, Note_off_c, 4, 61, 0
3, 9840, Note_on_c, 4, 60, 45
3, 10080, Note_off_c, 4, 60, 0
3, 10080, Note_off_c, 4, 53, 0
3, 10080, Note_on_c, 4, 53, 45
3, 10080, Note_on_c, 4, 58, 45
3, 10320, Note_off_c, 4, 58, 0
3, 10320, Note_on_c, 4, 57, 45
3, 10560, Note_off_c, 4, 57, 0
3, 10560, Note_off_c, 4, 53, 0
3, 10560, Note_on_c, 4, 53, 45
3, 10560, Note_on_c, 4, 58, 45
3, 11520, Note_off_c, 4, 58, 0
3, 11520, Note_off_c, 4, 53, 0
3, 11520, Note_on_c, 4, 55, 46
3, 11520, Note_on_c, 4, 60, 46
3, 11760, Note_off_c, 4, 60, 0
3, 11760, Note_on_c, 4, 61, 46
3, 12000, Note_off_c, 4, 61, 0
3, 12000, Note_on_c, 4, 60, 46
3, 12240, Note_off_c, 4, 60, 0
3, 12240, Note_on_c, 4, 58, 46
3, 12480, Note_off_c, 4, 58, 0
3, 12480, Note_off_c, 4, 55, 0
3, 12480, Note_on_c, 4, 56, 46
3, 13200, Note_off_c, 4, 56, 0
3, 13200, Note_on_c, 4, 58, 47
3, 13440, Note_off_c, 4, 58, 0
3, 13440, Note_on_c, 4, 60, 47
3, 14160, Note_off_c, 4, 60, 0
3, 14160, Note_on_c, 4, 64, 47
3, 14400, Note_off_c, 4, 64, 0
3, 15360, Note_on_c, 4, 56, 48
3, 16800, Note_off_c, 4, 56, 0
3, 17280, Note_on_c, 4, 63, 50
3, 17280, Note_on_c, 4, 60, 50
3, 17760, Note_off_c, 4, 60, 0
3, 17760, Note_off_c, 4, 63, 0
3, 18240, Note_on_c, 4, 72, 50
3, 18240, Note_on_c, 4, 67, 50
3, 19680, Note_off_c, 4, 67, 0
3, 19680, Note_off_c, 4, 72, 0
3, 19680, Note_on_c, 4, 65, 51
3, 19680, Note_on_c, 4, 72, 51
3, 20160, Note_off_c, 4, 72, 0
3, 20160, Note_off_c, 4, 65, 0
3, 22320, Note_on_c, 4, 65, 53
3, 22560, Note_off_c, 4, 65, 0
3, 22560, Note_on_c, 4, 70, 53
3, 22800, Note_off_c, 4, 70, 0
3, 22800, Note_on_c, 4, 68, 53
3, 23040, Note_off_c, 4, 68, 0
3, 23040, Note_on_c, 4, 67, 52
3, 23280, Note_off_c, 4, 67, 0
3, 23280, Note_on_c, 4, 68, 52
3, 23520, Note_off_c, 4, 68, 0
3, 23520, Note_on_c, 4, 67, 52
3, 23760, Note_off_c, 4, 67, 0
3, 23760, Note_on_c, 4, 65, 52
3, 24000, Note_off_c, 4, 65, 0
3, 24000, Note_on_c, 4, 63, 51
3, 24240, Note_off_c, 4, 63, 0
3, 24240, Note_on_c, 4, 58, 51
3, 24480, Note_off_c, 4, 58, 0
3, 24480, Note_on_c, 4, 63, 51
3, 24720, Note_off_c, 4, 63, 0
3, 24720, Note_on_c, 4, 65, 51
3, 24960, Note_off_c, 4, 65, 0
3, 24960, Note_on_c, 4, 67, 51
3, 25920, Note_off_c, 4, 67, 0
3, 25920, Note_on_c, 4, 60, 50
3, 26160, Note_off_c, 4, 60, 0
3, 26160, Note_on_c, 4, 61, 50
3, 26400, Note_off_c, 4, 61, 0
3, 26400, Note_on_c, 4, 60, 50
3, 26640, Note_off_c, 4, 60, 0
3, 26640, Note_on_c, 4, 58, 50
3, 26880, Note_off_c, 4, 58, 0
3, 26880, Note_on_c, 4, 56, 50
3, 27840, Note_off_c, 4, 56, 0
3, 27840, Note_on_c, 4, 65, 49
3, 28800, Note_off_c, 4, 65, 0
3, 28800, Note_on_c, 4, 63, 49
3, 29040, Note_off_c, 4, 63, 0
3, 29040, Note_on_c, 4, 65, 49
3, 29280, Note_off_c, 4, 65, 0
3, 29280, Note_on_c, 4, 63, 49
3, 29520, Note_off_c, 4, 63, 0
3, 29520, Note_on_c, 4, 61, 48
3, 29760, Note_off_c, 4, 61, 0
3, 29760, Note_on_c, 4, 60, 48
3, 30000, Note_off_c, 4, 60, 0
3, 30000, Note_on_c, 4, 61, 48
3, 30240, Note_off_c, 4, 61, 0
3, 30240, Note_on_c, 4, 60, 48
3, 30480, Note_off_c, 4, 60, 0
3, 30480, Note_on_c, 4, 58, 48
3, 30720, Note_off_c, 4, 58, 0
3, 30720, Note_on_c, 4, 56, 48
3, 30960, Note_off_c, 4, 56, 0
3, 30960, Note_on_c, 4, 59, 48
3, 31200, Note_off_c, 4, 59, 0
3, 31200, Note_on_c, 4, 58, 47
3, 31440, Note_off_c, 4, 58, 0
3, 31440, Note_on_c, 4, 56, 47
3, 31680, Note_off_c, 4, 56, 0
3, 31680, Note_on_c, 4, 55, 47
3, 32160, Note_off_c, 4, 55, 0
3, 32160, Note_on_c, 4, 58, 47
3, 32640, Note_off_c, 4, 58, 0
3, 32640, Note_on_c, 4, 51, 47
3, 33120, Note_off_c, 4, 51, 0
3, 33120, Note_on_c, 4, 56, 46
3, 34080, Note_off_c, 4, 56, 0
3, 34080, Note_on_c, 4, 55, 46
3, 34560, Note_off_c, 4, 55, 0
3, 34560, Note_on_c, 4, 56, 44
3, 35040, Note_off_c, 4, 56, 0
3, 35760, Note_on_c, 4, 63, 46
3, 36000, Note_off_c, 4, 63, 0
3, 36000, Note_on_c, 4, 68, 46
3, 36240, Note_off_c, 4, 68, 0
3, 36240, Note_on_c, 4, 70, 46
3, 36480, Note_off_c, 4, 70, 0
3, 36480, Note_on_c, 4, 72, 46
3, 37927, Note_off_c, 4, 72, 0
3, 42720, Note_on_c, 4, 69, 49
3, 43200, Note_off_c, 4, 69, 0
3, 43200, Note_on_c, 4, 70, 49
3, 43680, Note_off_c, 4, 70, 0
3, 48000, Note_on_c, 4, 51, 51
3, 48960, Note_off_c, 4, 51, 0
3, 48960, Note_on_c, 4, 57, 52
3, 49440, Note_off_c, 4, 57, 0
3, 50160, Note_on_c, 4, 63, 52
3, 50400, Note_off_c, 4, 63, 0
3, 50400, Note_on_c, 4, 62, 53
3, 50640, Note_off_c, 4, 62, 0
3, 50640, Note_on_c, 4, 60, 53
3, 50880, Note_off_c, 4, 60, 0
3, 50880, Note_on_c, 4, 58, 53
3, 51360, Note_off_c, 4, 58, 0
3, 51360, Note_on_c, 4, 63, 53
3, 51840, Note_off_c, 4, 63, 0
3, 51840, Note_on_c, 4, 62, 53
3, 52320, Note_off_c, 4, 62, 0
3, 52320, Note_on_c, 4, 65, 53
3, 52800, Note_off_c, 4, 65, 0
3, 52800, Note_on_c, 4, 63, 54
3, 53280, Note_off_c, 4, 63, 0
3, 53280, Note_on_c, 4, 56, 54
3, 53760, Note_off_c, 4, 56, 0
3, 53760, Note_on_c, 4, 58, 54
3, 54240, Note_off_c, 4, 58, 0
3, 54240, Note_on_c, 4, 51, 54
3, 54720, Note_off_c, 4, 51, 0
3, 54720, Note_on_c, 4, 56, 54
3, 54960, Note_off_c, 4, 56, 0
3, 55200, Note_on_c, 4, 65, 55
3, 55680, Note_on_c, 4, 68, 55
3, 57607, Note_off_c, 4, 68, 0
3, 57607, Note_off_c, 4, 65, 0
3, 62400, Note_on_c, 4, 67, 58
3, 62640, Note_off_c, 4, 67, 0
3, 62640, Note_on_c, 4, 68, 58
3, 62880, Note_off_c, 4, 68, 0
3, 62880, Note_on_c, 4, 67, 58
3, 63120, Note_off_c, 4, 67, 0
3, 63120, Note_on_c, 4, 65, 58
3, 63360, Note_off_c, 4, 65, 0
3, 63360, Note_on_c, 4, 63, 58
3, 63600, Note_off_c, 4, 63, 0
3, 63600, Note_on_c, 4, 62, 58
3, 63840, Note_off_c, 4, 62, 0
3, 63840, Note_on_c, 4, 63, 58
3, 64080, Note_off_c, 4, 63, 0
3, 64080, Note_on_c, 4, 60, 59
3, 64320, Note_off_c, 4, 60, 0
3, 64320, Note_on_c, 4, 65, 59
3, 64560, Note_off_c, 4, 65, 0
3, 64560, Note_on_c, 4, 63, 59
3, 64800, Note_off_c, 4, 63, 0
3, 64800, Note_on_c, 4, 62, 59
3, 65040, Note_off_c, 4, 62, 0
3, 65040, Note_on_c, 4, 60, 59
3, 65280, Note_off_c, 4, 60, 0
3, 65280, Note_on_c, 4, 59, 59
3, 66240, Note_off_c, 4, 59, 0
3, 66240, Note_on_c, 4, 60, 57
3, 66720, Note_off_c, 4, 60, 0
3, 67200, Note_on_c, 4, 67, 60
3, 68160, Note_off_c, 4, 67, 0
3, 68160, Note_on_c, 4, 66, 60
3, 69120, Note_off_c, 4, 66, 0
3, 69120, Note_on_c, 4, 67, 61
3, 69600, Note_off_c, 4, 67, 0
3, 70320, Note_on_c, 4, 55, 61
3, 70560, Note_off_c, 4, 55, 0
3, 70560, Note_on_c, 4, 59, 61
3, 70800, Note_off_c, 4, 59, 0
3, 70800, Note_on_c, 4, 60, 62
3, 71040, Note_off_c, 4, 60, 0
3, 71040, Note_on_c, 4, 62, 62
3, 71280, Note_off_c, 4, 62, 0
3, 71280, Note_on_c, 4, 59, 62
3, 71520, Note_off_c, 4, 59, 0
3, 71520, Note_on_c, 4, 63, 62
3, 71760, Note_off_c, 4, 63, 0
3, 71760, Note_on_c, 4, 62, 62
3, 72000, Note_off_c, 4, 62, 0
3, 72000, Note_on_c, 4, 60, 60
3, 72480, Note_off_c, 4, 60, 0
3, 72960, Note_on_c, 4, 67, 63
3, 73920, Note_off_c, 4, 67, 0
3, 73920, Note_on_c, 4, 72, 63
3, 74880, Note_off_c, 4, 72, 0
3, 74880, Note_on_c, 4, 65, 61
3, 75360, Note_off_c, 4, 65, 0
3, 76080, Note_on_c, 4, 58, 61
3, 76320, Note_off_c, 4, 58, 0
3, 76320, Note_on_c, 4, 60, 61
3, 76560, Note_off_c, 4, 60, 0
3, 76560, Note_on_c, 4, 62, 61
3, 76800, Note_off_c, 4, 62, 0
3, 76800, Note_on_c, 4, 63, 61
3, 77040, Note_off_c, 4, 63, 0
3, 77040, Note_on_c, 4, 62, 61
3, 77280, Note_off_c, 4, 62, 0
3, 77280, Note_on_c, 4, 60, 61
3, 77520, Note_off_c, 4, 60, 0
3, 77520, Note_on_c, 4, 65, 61
3, 77760, Note_off_c, 4, 65, 0
3, 77760, Note_on_c, 4, 63, 61
3, 78000, Note_off_c, 4, 63, 0
3, 78000, Note_on_c, 4, 62, 61
3, 78240, Note_off_c, 4, 62, 0
3, 78240, Note_on_c, 4, 60, 61
3, 78480, Note_off_c, 4, 60, 0
3, 78480, Note_on_c, 4, 58, 61
3, 78720, Note_off_c, 4, 58, 0
3, 78720, Note_on_c, 4, 56, 60
3, 79680, Note_off_c, 4, 56, 0
3, 79680, Note_on_c, 4, 53, 60
3, 79920, Note_off_c, 4, 53, 0
3, 79920, Note_on_c, 4, 58, 60
3, 80400, Note_off_c, 4, 58, 0
3, 80400, Note_on_c, 4, 56, 60
3, 80640, Note_off_c, 4, 56, 0
3, 80640, Note_on_c, 4, 55, 60
3, 80880, Note_on_c, 4, 58, 60
3, 81120, Note_off_c, 4, 58, 0
3, 81120, Note_on_c, 4, 63, 60
3, 81360, Note_off_c, 4, 63, 0
3, 81360, Note_on_c, 4, 65, 60
3, 81600, Note_off_c, 4, 65, 0
3, 81600, Note_off_c, 4, 55, 0
3, 81600, Note_on_c, 4, 67, 60
3, 81840, Note_off_c, 4, 67, 0
3, 81840, Note_on_c, 4, 62, 60
3, 82080, Note_off_c, 4, 62, 0
3, 82080, Note_on_c, 4, 63, 60
3, 82320, Note_off_c, 4, 63, 0
3, 82320, Note_on_c, 4, 58, 60
3, 82560, Note_off_c, 4, 58, 0
3, 82560, Note_on_c, 4, 56, 60
3, 82800, Note_off_c, 4, 56, 0
3, 82800, Note_on_c, 4, 55, 59
3, 83040, Note_off_c, 4, 55, 0
3, 83040, Note_on_c, 4, 58, 59
3, 83280, Note_off_c, 4, 58, 0
3, 83280, Note_on_c, 4, 63, 59
3, 83520, Note_off_c, 4, 63, 0
3, 83520, Note_on_c, 4, 58, 59
3, 83760, Note_off_c, 4, 58, 0
3, 83760, Note_on_c, 4, 56, 59
3, 84000, Note_off_c, 4, 56, 0
3, 84000, Note_on_c, 4, 60, 59
3, 84240, Note_off_c, 4, 60, 0
3, 84240, Note_on_c, 4, 65, 59
3, 84720, Note_off_c, 4, 65, 0
3, 84720, Note_on_c, 4, 67, 59
3, 84960, Note_off_c, 4, 67, 0
3, 84960, Note_on_c, 4, 65, 59
3, 85200, Note_off_c, 4, 65, 0
3, 85200, Note_on_c, 4, 63, 59
3, 85440, Note_off_c, 4, 63, 0
3, 85440, Note_on_c, 4, 62, 59
3, 86400, Note_off_c, 4, 62, 0
3, 86400, Note_on_c, 4, 63, 59
3, 86640, Note_off_c, 4, 63, 0
3, 86640, Note_on_c, 4, 58, 58
3, 86880, Note_off_c, 4, 58, 0
3, 86880, Note_on_c, 4, 63, 58
3, 87120, Note_off_c, 4, 63, 0
3, 87120, Note_on_c, 4, 65, 58
3, 87360, Note_off_c, 4, 65, 0
3, 87360, Note_on_c, 4, 67, 58
3, 87600, Note_off_c, 4, 67, 0
3, 87600, Note_on_c, 4, 62, 58
3, 87840, Note_off_c, 4, 62, 0
3, 87840, Note_on_c, 4, 63, 58
3, 88080, Note_off_c, 4, 63, 0
3, 88080, Note_on_c, 4, 58, 58
3, 88320, Note_off_c, 4, 58, 0
3, 88320, Note_on_c, 4, 56, 58
3, 88560, Note_off_c, 4, 56, 0
3, 88560, Note_on_c, 4, 55, 58
3, 88800, Note_off_c, 4, 55, 0
3, 88800, Note_on_c, 4, 58, 58
3, 89040, Note_off_c, 4, 58, 0
3, 89040, Note_on_c, 4, 63, 58
3, 89280, Note_off_c, 4, 63, 0
3, 89280, Note_on_c, 4, 58, 58
3, 89520, Note_off_c, 4, 58, 0
3, 89520, Note_on_c, 4, 56, 58
3, 89760, Note_off_c, 4, 56, 0
3, 89760, Note_on_c, 4, 60, 58
3, 90000, Note_off_c, 4, 60, 0
3, 90000, Note_on_c, 4, 63, 58
3, 90480, Note_off_c, 4, 63, 0
3, 90480, Note_on_c, 4, 65, 57
3, 90720, Note_off_c, 4, 65, 0
3, 90720, Note_on_c, 4, 63, 57
3, 90960, Note_off_c, 4, 63, 0
3, 90960, Note_on_c, 4, 61, 57
3, 91200, Note_off_c, 4, 61, 0
3, 91200, Note_on_c, 4, 60, 57
3, 93120, Note_off_c, 4, 60, 0
3, 93120, Note_on_c, 4, 58, 57
3, 93360, Note_off_c, 4, 58, 0
3, 93360, Note_on_c, 4, 60, 57
3, 93600, Note_off_c, 4, 60, 0
3, 93600, Note_on_c, 4, 58, 57
3, 93840, Note_off_c, 4, 58, 0
3, 93840, Note_on_c, 4, 56, 57
3, 94080, Note_off_c, 4, 56, 0
3, 94080, Note_on_c, 4, 55, 57
3, 94320, Note_off_c, 4, 55, 0
3, 94320, Note_on_c, 4, 56, 57
3, 94560, Note_off_c, 4, 56, 0
3, 94560, Note_on_c, 4, 55, 56
3, 94800, Note_off_c, 4, 55, 0
3, 94800, Note_on_c, 4, 53, 56
3, 95040, Note_off_c, 4, 53, 0
3, 95040, Note_on_c, 4, 52, 56
3, 95760, Note_off_c, 4, 52, 0
3, 95760, Note_on_c, 4, 53, 56
3, 96000, Note_off_c, 4, 53, 0
3, 96000, Note_on_c, 4, 55, 56
3, 96720, Note_off_c, 4, 55, 0
3, 96720, Note_on_c, 4, 55, 56
3, 96960, Note_off_c, 4, 55, 0
3, 96960, Note_on_c, 4, 53, 56
3, 97680, Note_off_c, 4, 53, 0
3, 97680, Note_on_c, 4, 58, 56
3, 97920, Note_off_c, 4, 58, 0
3, 97920, Note_on_c, 4, 53, 56
3, 97920, Note_on_c, 4, 48, 56
3, 97920, Note_on_c, 4, 56, 56
3, 98880, Note_off_c, 4, 56, 0
3, 98880, Note_off_c, 4, 48, 0
3, 98880, Note_off_c, 4, 53, 0
3, 99840, Note_on_c, 4, 56, 59
3, 100800, Note_off_c, 4, 56, 0
3, 100800, Note_on_c, 4, 55, 60
3, 102720, Note_off_c, 4, 55, 0
3, 102720, Note_on_c, 4, 53, 62
3, 103680, Note_off_c, 4, 53, 0
3, 103680, Note_on_c, 4, 53, 63
3, 104400, Note_on_c, 4, 63, 63
3, 104640, Note_off_c, 4, 63, 0
3, 104640, Note_on_c, 4, 61, 64
3, 104880, Note_off_c, 4, 61, 0
3, 104880, Note_on_c, 4, 60, 64
3, 105120, Note_off_c, 4, 60, 0
3, 105120, Note_off_c, 4, 53, 0
3, 105120, Note_on_c, 4, 53, 64
3, 105120, Note_on_c, 4, 58, 64
3, 105360, Note_off_c, 4, 58, 0
3, 105360, Note_on_c, 4, 57, 64
3, 105600, Note_off_c, 4, 57, 0
3, 105600, Note_off_c, 4, 53, 0
3, 105600, Note_on_c, 4, 53, 65
3, 105600, Note_on_c, 4, 59, 65
3, 106560, Note_off_c, 4, 59, 0
3, 106560, Note_off_c, 4, 53, 0
3, 106560, Note_on_c, 4, 55, 65
3, 106560, Note_on_c, 4, 60, 65
3, 106800, Note_off_c, 4, 60, 0
3, 106800, Note_on_c, 4, 61, 66
3, 107040, Note_off_c, 4, 61, 0
3, 107040, Note_off_c, 4, 55, 0
3, 107040, Note_on_c, 4, 60, 66
3, 107280, Note_off_c, 4, 60, 0
3, 107280, Note_on_c, 4, 58, 66
3, 107520, Note_off_c, 4, 58, 0
3, 107520, Note_on_c, 4, 56, 66
3, 108240, Note_off_c, 4, 56, 0
3, 108240, Note_on_c, 4, 58, 67
3, 108480, Note_off_c, 4, 58, 0
3, 108480, Note_on_c, 4, 60, 67
3, 108720, Note_off_c, 4, 60, 0
3, 108720, Note_on_c, 4, 63, 67
3, 108960, Note_off_c, 4, 63, 0
3, 108960, Note_on_c, 4, 65, 68
3, 109200, Note_off_c, 4, 65, 0
3, 109200, Note_on_c, 4, 66, 68
3, 109440, Note_off_c, 4, 66, 0
3, 109440, Note_on_c, 4, 65, 68
3, 110400, Note_off_c, 4, 65, 0
3, 110400, Note_on_c, 4, 70, 69
3, 110640, Note_off_c, 4, 70, 0
3, 110640, Note_on_c, 4, 71, 69
3, 110880, Note_off_c, 4, 71, 0
3, 110880, Note_on_c, 4, 70, 70
3, 111120, Note_off_c, 4, 70, 0
3, 111120, Note_on_c, 4, 68, 70
3, 111360, Note_off_c, 4, 68, 0
3, 111360, Note_on_c, 4, 66, 70
3, 111600, Note_off_c, 4, 66, 0
3, 111600, Note_on_c, 4, 68, 70
3, 111840, Note_off_c, 4, 68, 0
3, 111840, Note_on_c, 4, 66, 70
3, 112080, Note_off_c, 4, 66, 0
3, 112080, Note_on_c, 4, 65, 71
3, 112320, Note_off_c, 4, 65, 0
3, 112320, Note_on_c, 4, 63, 71
3, 113280, Note_off_c, 4, 63, 0
3, 113280, Note_on_c, 4, 68, 72
3, 113520, Note_off_c, 4, 68, 0
3, 113520, Note_on_c, 4, 70, 72
3, 113760, Note_off_c, 4, 70, 0
3, 113760, Note_on_c, 4, 68, 72
3, 114000, Note_off_c, 4, 68, 0
3, 114000, Note_on_c, 4, 66, 72
3, 114240, Note_off_c, 4, 66, 0
3, 114240, Note_on_c, 4, 65, 73
3, 115200, Note_off_c, 4, 65, 0
3, 115200, Note_on_c, 4, 53, 73
3, 116160, Note_off_c, 4, 53, 0
3, 116160, Note_on_c, 4, 58, 72
3, 116400, Note_off_c, 4, 58, 0
3, 116400, Note_on_c, 4, 60, 72
3, 116640, Note_off_c, 4, 60, 0
3, 116640, Note_on_c, 4, 58, 72
3, 116880, Note_off_c, 4, 58, 0
3, 116880, Note_on_c, 4, 56, 71
3, 117120, Note_off_c, 4, 56, 0
3, 117120, Note_on_c, 4, 54, 71
3, 117360, Note_off_c, 4, 54, 0
3, 117360, Note_on_c, 4, 56, 71
3, 117600, Note_off_c, 4, 56, 0
3, 117600, Note_on_c, 4, 54, 71
3, 117840, Note_off_c, 4, 54, 0
3, 117840, Note_on_c, 4, 53, 70
3, 118080, Note_off_c, 4, 53, 0
3, 118080, Note_on_c, 4, 51, 70
3, 119040, Note_off_c, 4, 51, 0
3, 119040, Note_on_c, 4, 68, 69
3, 119280, Note_off_c, 4, 68, 0
3, 119280, Note_on_c, 4, 70, 69
3, 119520, Note_off_c, 4, 70, 0
3, 119520, Note_on_c, 4, 68, 69
3, 119760, Note_off_c, 4, 68, 0
3, 119760, Note_on_c, 4, 66, 68
3, 120000, Note_off_c, 4, 66, 0
3, 120000, Note_on_c, 4, 65, 68
3, 120240, Note_off_c, 4, 65, 0
3, 120240, Note_on_c, 4, 66, 68
3, 120480, Note_off_c, 4, 66, 0
3, 120480, Note_on_c, 4, 65, 68
3, 120720, Note_off_c, 4, 65, 0
3, 120720, Note_on_c, 4, 63, 67
3, 120960, Note_off_c, 4, 63, 0
3, 120960, Note_on_c, 4, 61, 67
3, 121920, Note_off_c, 4, 61, 0
3, 122880, Note_on_c, 4, 58, 65
3, 124080, Note_off_c, 4, 58, 0
3, 124080, Note_on_c, 4, 60, 64
3, 124320, Note_off_c, 4, 60, 0
3, 124320, Note_on_c, 4, 58, 63
3, 124560, Note_off_c, 4, 58, 0
3, 124560, Note_on_c, 4, 56, 63
3, 124800, Note_off_c, 4, 56, 0
3, 124800, Note_on_c, 4, 55, 63
3, 125040, Note_off_c, 4, 55, 0
3, 125040, Note_on_c, 4, 56, 63
3, 125280, Note_off_c, 4, 56, 0
3, 125280, Note_on_c, 4, 55, 62
3, 125520, Note_off_c, 4, 55, 0
3, 125520, Note_on_c, 4, 53, 62
3, 125760, Note_off_c, 4, 53, 0
3, 125760, Note_on_c, 4, 60, 62
3, 126240, Note_off_c, 4, 60, 0
3, 126240, Note_on_c, 4, 58, 61
3, 126720, Note_off_c, 4, 58, 0
3, 126720, Note_on_c, 4, 53, 61
3, 126720, Note_on_c, 4, 44, 61
3, 126720, Note_on_c, 4, 48, 61
3, 126720, Note_on_c, 4, 56, 61
3, 127200, Note_off_c, 4, 56, 0
3, 128640, Note_off_c, 4, 48, 0
3, 128640, Note_off_c, 4, 44, 0
3, 128640, Note_off_c, 4, 53, 0
3, 128640, Note_on_c, 4, 56, 59
3, 129600, Note_off_c, 4, 56, 0
3, 129600, Note_on_c, 4, 55, 58
3, 130560, Note_off_c, 4, 55, 0
3, 130560, Note_on_c, 4, 54, 57
3, 131520, Note_off_c, 4, 54, 0
3, 131520, Note_on_c, 4, 53, 56
3, 132480, Note_off_c, 4, 53, 0
3, 132480, Note_on_c, 4, 53, 55
3, 133440, Note_off_c, 4, 53, 0
3, 133440, Note_on_c, 4, 55, 54
3, 134160, Note_off_c, 4, 55, 0
3, 134400, Note_on_c, 4, 64, 53
3, 135360, Note_off_c, 4, 64, 0
3, 135360, Note_on_c, 4, 65, 52
3, 136320, Note_off_c, 4, 65, 0
3, 138960, Note_on_c, 4, 52, 46
3, 139200, Note_off_c, 4, 52, 0
3, 139200, Note_on_c, 4, 53, 44
3, 139440, Note_off_c, 4, 53, 0
3, 139440, Note_on_c, 4, 47, 45
3, 139680, Note_off_c, 4, 47, 0
3, 139680, Note_on_c, 4, 48, 42
3, 139920, Note_off_c, 4, 48, 0
3, 139920, Note_on_c, 4, 44, 39
3, 140160, Note_off_c, 4, 44, 0
3, 140160, Note_on_c, 4, 41, 35
3, 141120, Note_off_c, 4, 41, 0
3, 141120, End_track
4, 0, Start_track
4, 0, Title_t, "Unnamed Track"
4, 0, Control_c, 5, 0, 0
4, 0, Control_c, 5, 32, 0
4, 0, Program_c, 5, 0
4, 0, Control_c, 5, 10, 55
4, 0, Control_c, 5, 91, 100
4, 0, Control_c, 5, 93, 28
4, 0, Control_c, 5, 64, 0
4, 0, Control_c, 5, 1, 0
4, 0, Pitch_bend_c, 5, 8192
4, 0, Control_c, 5, 7, 125
4, 2880, Note_on_c, 5, 41, 40
4, 4800, Note_off_c, 5, 41, 0
4, 4800, Note_on_c, 5, 53, 41
4, 5760, Note_off_c, 5, 53, 0
4, 5760, Note_on_c, 5, 52, 42
4, 7680, Note_off_c, 5, 52, 0
4, 7680, Note_on_c, 5, 51, 43
4, 8640, Note_off_c, 5, 51, 0
4, 8640, Note_on_c, 5, 49, 44
4, 10080, Note_off_c, 5, 49, 0
4, 10080, Note_on_c, 5, 49, 45
4, 10560, Note_off_c, 5, 49, 0
4, 10560, Note_on_c, 5, 50, 45
4, 11520, Note_off_c, 5, 50, 0
4, 11520, Note_on_c, 5, 48, 46
4, 12480, Note_off_c, 5, 48, 0
4, 13440, Note_on_c, 5, 48, 47
4, 13680, Note_off_c, 5, 48, 0
4, 13680, Note_on_c, 5, 49, 47
4, 13920, Note_off_c, 5, 49, 0
4, 13920, Note_on_c, 5, 48, 47
4, 14160, Note_off_c, 5, 48, 0
4, 14160, Note_on_c, 5, 46, 47
4, 14400, Note_off_c, 5, 46, 0
4, 14400, Note_on_c, 5, 44, 48
4, 14880, Note_off_c, 5, 44, 0
4, 15360, Note_on_c, 5, 53, 48
4, 16800, Note_off_c, 5, 53, 0
4, 16800, Note_on_c, 5, 53, 49
4, 17280, Note_off_c, 5, 53, 0
4, 17280, Note_on_c, 5, 51, 50
4, 17520, Note_off_c, 5, 51, 0
4, 17520, Note_on_c, 5, 50, 50
4, 17760, Note_off_c, 5, 50, 0
4, 17760, Note_on_c, 5, 51, 50
4, 18000, Note_off_c, 5, 51, 0
4, 18000, Note_on_c, 5, 53, 50
4, 18240, Note_off_c, 5, 53, 0
4, 18240, Note_on_c, 5, 55, 50
4, 18480, Note_off_c, 5, 55, 0
4, 18480, Note_on_c, 5, 50, 50
4, 18720, Note_off_c, 5, 50, 0
4, 18720, Note_on_c, 5, 51, 51
4, 18960, Note_off_c, 5, 51, 0
4, 18960, Note_on_c, 5, 48, 51
4, 19200, Note_off_c, 5, 48, 0
4, 19200, Note_on_c, 5, 46, 51
4, 19440, Note_off_c, 5, 46, 0
4, 19440, Note_on_c, 5, 45, 51
4, 19680, Note_off_c, 5, 45, 0
4, 19680, Note_on_c, 5, 48, 51
4, 19920, Note_off_c, 5, 48, 0
4, 19920, Note_on_c, 5, 53, 51
4, 20160, Note_off_c, 5, 53, 0
4, 20160, Note_on_c, 5, 46, 52
4, 20400, Note_off_c, 5, 46, 0
4, 20400, Note_on_c, 5, 53, 52
4, 20640, Note_off_c, 5, 53, 0
4, 20640, Note_on_c, 5, 58, 52
4, 20880, Note_off_c, 5, 58, 0
4, 20880, Note_on_c, 5, 60, 52
4, 21120, Note_off_c, 5, 60, 0
4, 21120, Note_on_c, 5, 61, 52
4, 21360, Note_off_c, 5, 61, 0
4, 21360, Note_on_c, 5, 63, 52
4, 21600, Note_off_c, 5, 63, 0
4, 21600, Note_on_c, 5, 61, 53
4, 21840, Note_off_c, 5, 61, 0
4, 21840, Note_on_c, 5, 60, 53
4, 22080, Note_off_c, 5, 60, 0
4, 22080, Note_on_c, 5, 58, 53
4, 22320, Note_off_c, 5, 58, 0
4, 22320, Note_on_c, 5, 56, 53
4, 22560, Note_off_c, 5, 56, 0
4, 22560, Note_on_c, 5, 55, 53
4, 22800, Note_off_c, 5, 55, 0
4, 22800, Note_on_c, 5, 53, 53
4, 23040, Note_off_c, 5, 53, 0
4, 23040, Note_on_c, 5, 51, 52
4, 23280, Note_off_c, 5, 51, 0
4, 23280, Note_on_c, 5, 58, 52
4, 23520, Note_off_c, 5, 58, 0
4, 23520, Note_on_c, 5, 60, 52
4, 23760, Note_off_c, 5, 60, 0
4, 23760, Note_on_c, 5, 62, 52
4, 24000, Note_off_c, 5, 62, 0
4, 24000, Note_on_c, 5, 55, 51
4, 24240, Note_off_c, 5, 55, 0
4, 24240, Note_on_c, 5, 56, 51
4, 24480, Note_off_c, 5, 56, 0
4, 24480, Note_on_c, 5, 55, 51
4, 24720, Note_off_c, 5, 55, 0
4, 24720, Note_on_c, 5, 53, 51
4, 24960, Note_off_c, 5, 53, 0
4, 24960, Note_on_c, 5, 51, 51
4, 25920, Note_off_c, 5, 51, 0
4, 25920, Note_on_c, 5, 52, 50
4, 26880, Note_off_c, 5, 52, 0
4, 26880, Note_on_c, 5, 53, 50
4, 27120, Note_off_c, 5, 53, 0
4, 27120, Note_on_c, 5, 55, 50
4, 27360, Note_off_c, 5, 55, 0
4, 27360, Note_on_c, 5, 53, 50
4, 27600, Note_off_c, 5, 53, 0
4, 27600, Note_on_c, 5, 51, 49
4, 27840, Note_off_c, 5, 51, 0
4, 27840, Note_on_c, 5, 50, 49
4, 28800, Note_off_c, 5, 50, 0
4, 28800, Note_on_c, 5, 51, 49
4, 29760, Note_off_c, 5, 51, 0
4, 29760, Note_on_c, 5, 53, 48
4, 31200, Note_off_c, 5, 53, 0
4, 31200, Note_on_c, 5, 50, 47
4, 31680, Note_off_c, 5, 50, 0
4, 31680, Note_on_c, 5, 51, 47
4, 31920, Note_off_c, 5, 51, 0
4, 31920, Note_on_c, 5, 39, 47
4, 32160, Note_off_c, 5, 39, 0
4, 32160, Note_on_c, 5, 41, 47
4, 32400, Note_off_c, 5, 41, 0
4, 32400, Note_on_c, 5, 43, 47
4, 32640, Note_off_c, 5, 43, 0
4, 32640, Note_on_c, 5, 44, 47
4, 32880, Note_off_c, 5, 44, 0
4, 32880, Note_on_c, 5, 46, 47
4, 33120, Note_off_c, 5, 46, 0
4, 33120, Note_on_c, 5, 48, 46
4, 33360, Note_off_c, 5, 48, 0
4, 33360, Note_on_c, 5, 50, 46
4, 33600, Note_off_c, 5, 50, 0
4, 33600, Note_on_c, 5, 51, 46
4, 34080, Note_off_c, 5, 51, 0
4, 34080, Note_on_c, 5, 39, 46
4, 34560, Note_off_c, 5, 39, 0
4, 34560, Note_on_c, 5, 44, 46
4, 34800, Note_off_c, 5, 44, 0
4, 34800, Note_on_c, 5, 51, 46
4, 35040, Note_off_c, 5, 51, 0
4, 35040, Note_on_c, 5, 56, 46
4, 35280, Note_off_c, 5, 56, 0
4, 35280, Note_on_c, 5, 58, 46
4, 35520, Note_off_c, 5, 58, 0
4, 35520, Note_on_c, 5, 60, 46
4, 35760, Note_off_c, 5, 60, 0
4, 35760, Note_on_c, 5, 61, 46
4, 36000, Note_off_c, 5, 61, 0
4, 36000, Note_on_c, 5, 60, 46
4, 36240, Note_off_c, 5, 60, 0
4, 36240, Note_on_c, 5, 58, 46
4, 36480, Note_off_c, 5, 58, 0
4, 36480, Note_on_c, 5, 56, 46
4, 37200, Note_off_c, 5, 56, 0
4, 37200, Note_on_c, 5, 54, 47
4, 37440, Note_off_c, 5, 54, 0
4, 37440, Note_on_c, 5, 53, 47
4, 37920, Note_off_c, 5, 53, 0
4, 38400, Note_on_c, 5, 41, 47
4, 39840, Note_off_c, 5, 41, 0
4, 39840, Note_on_c, 5, 48, 48
4, 40320, Note_off_c, 5, 48, 0
4, 40320, Note_on_c, 5, 45, 48
4, 40560, Note_off_c, 5, 45, 0
4, 40560, Note_on_c, 5, 57, 48
4, 40800, Note_off_c, 5, 57, 0
4, 40800, Note_on_c, 5, 54, 48
4, 41040, Note_off_c, 5, 54, 0
4, 41040, Note_on_c, 5, 53, 48
4, 41280, Note_off_c, 5, 53, 0
4, 41280, Note_on_c, 5, 51, 49
4, 41520, Note_off_c, 5, 51, 0
4, 41520, Note_on_c, 5, 49, 49
4, 41760, Note_off_c, 5, 49, 0
4, 41760, Note_on_c, 5, 48, 49
4, 42000, Note_off_c, 5, 48, 0
4, 42000, Note_on_c, 5, 46, 49
4, 42240, Note_off_c, 5, 46, 0
4, 42240, Note_on_c, 5, 45, 49
4, 42480, Note_off_c, 5, 45, 0
4, 42480, Note_on_c, 5, 42, 49
4, 42720, Note_off_c, 5, 42, 0
4, 42720, Note_on_c, 5, 41, 49
4, 42960, Note_off_c, 5, 41, 0
4, 42960, Note_on_c, 5, 39, 49
4, 43200, Note_off_c, 5, 39, 0
4, 43200, Note_on_c, 5, 37, 49
4, 43680, Note_off_c, 5, 37, 0
4, 44160, Note_on_c, 5, 38, 50
4, 45600, Note_off_c, 5, 38, 0
4, 45600, Note_on_c, 5, 41, 50
4, 46080, Note_off_c, 5, 41, 0
4, 46080, Note_on_c, 5, 39, 51
4, 46560, Note_off_c, 5, 39, 0
4, 47040, Note_on_c, 5, 51, 51
4, 47280, Note_off_c, 5, 51, 0
4, 47280, Note_on_c, 5, 53, 51
4, 47520, Note_off_c, 5, 53, 0
4, 47520, Note_on_c, 5, 51, 51
4, 47760, Note_off_c, 5, 51, 0
4, 47760, Note_on_c, 5, 50, 51
4, 48000, Note_off_c, 5, 50, 0
4, 48000, Note_on_c, 5, 48, 51
4, 48240, Note_off_c, 5, 48, 0
4, 48240, Note_on_c, 5, 46, 52
4, 48480, Note_off_c, 5, 46, 0
4, 48480, Note_on_c, 5, 45, 52
4, 48720, Note_off_c, 5, 45, 0
4, 48720, Note_on_c, 5, 43, 52
4, 48960, Note_off_c, 5, 43, 0
4, 48960, Note_on_c, 5, 42, 52
4, 49200, Note_off_c, 5, 42, 0
4, 49200, Note_on_c, 5, 39, 52
4, 49440, Note_off_c, 5, 39, 0
4, 49440, Note_on_c, 5, 38, 52
4, 49680, Note_off_c, 5, 38, 0
4, 49680, Note_on_c, 5, 36, 52
4, 49920, Note_off_c, 5, 36, 0
4, 49920, Note_on_c, 5, 42, 52
4, 50400, Note_off_c, 5, 42, 0
4, 50400, Note_on_c, 5, 54, 53
4, 50880, Note_off_c, 5, 54, 0
4, 50880, Note_on_c, 5, 55, 53
4, 51360, Note_off_c, 5, 55, 0
4, 51360, Note_on_c, 5, 57, 53
4, 51840, Note_off_c, 5, 57, 0
4, 51840, Note_on_c, 5, 58, 53
4, 52320, Note_off_c, 5, 58, 0
4, 52320, Note_on_c, 5, 50, 53
4, 52800, Note_off_c, 5, 50, 0
4, 52800, Note_on_c, 5, 51, 54
4, 53280, Note_off_c, 5, 51, 0
4, 53280, Note_on_c, 5, 53, 54
4, 53760, Note_off_c, 5, 53, 0
4, 53760, Note_on_c, 5, 55, 54
4, 54240, Note_off_c, 5, 55, 0
4, 54240, Note_on_c, 5, 43, 54
4, 54720, Note_off_c, 5, 43, 0
4, 54720, Note_on_c, 5, 44, 54
4, 54960, Note_off_c, 5, 44, 0
4, 54960, Note_on_c, 5, 58, 55
4, 55200, Note_off_c, 5, 58, 0
4, 55200, Note_on_c, 5, 56, 55
4, 55440, Note_off_c, 5, 56, 0
4, 55440, Note_on_c, 5, 55, 55
4, 55680, Note_off_c, 5, 55, 0
4, 55680, Note_on_c, 5, 53, 55
4, 55920, Note_off_c, 5, 53, 0
4, 55920, Note_on_c, 5, 55, 55
4, 56160, Note_off_c, 5, 55, 0
4, 56160, Note_on_c, 5, 53, 55
4, 56400, Note_off_c, 5, 53, 0
4, 56400, Note_on_c, 5, 51, 55
4, 56640, Note_off_c, 5, 51, 0
4, 56640, Note_on_c, 5, 50, 55
4, 56880, Note_off_c, 5, 50, 0
4, 56880, Note_on_c, 5, 51, 55
4, 57120, Note_off_c, 5, 51, 0
4, 57120, Note_on_c, 5, 50, 56
4, 57360, Note_off_c, 5, 50, 0
4, 57360, Note_on_c, 5, 48, 56
4, 57600, Note_off_c, 5, 48, 0
4, 57600, Note_on_c, 5, 47, 56
4, 60000, Note_off_c, 5, 47, 0
4, 60000, Note_on_c, 5, 46, 57
4, 60960, Note_off_c, 5, 46, 0
4, 60960, Note_on_c, 5, 45, 57
4, 61920, Note_off_c, 5, 45, 0
4, 61920, Note_on_c, 5, 50, 58
4, 62400, Note_off_c, 5, 50, 0
4, 62400, Note_on_c, 5, 43, 58
4, 62880, Note_off_c, 5, 43, 0
4, 62880, Note_on_c, 5, 55, 58
4, 63360, Note_off_c, 5, 55, 0
4, 63360, Note_on_c, 5, 48, 58
4, 64320, Note_off_c, 5, 48, 0
4, 64320, Note_on_c, 5, 41, 59
4, 65280, Note_off_c, 5, 41, 0
4, 65280, Note_on_c, 5, 43, 59
4, 66240, Note_off_c, 5, 43, 0
4, 66480, Note_on_c, 5, 48, 60
4, 66720, Note_off_c, 5, 48, 0
4, 66720, Note_on_c, 5, 51, 60
4, 66960, Note_off_c, 5, 51, 0
4, 66960, Note_on_c, 5, 53, 60
4, 67200, Note_off_c, 5, 53, 0
4, 67200, Note_on_c, 5, 55, 60
4, 67440, Note_off_c, 5, 55, 0
4, 67440, Note_on_c, 5, 50, 60
4, 67680, Note_off_c, 5, 50, 0
4, 67680, Note_on_c, 5, 51, 60
4, 67920, Note_off_c, 5, 51, 0
4, 67920, Note_on_c, 5, 48, 60
4, 68160, Note_off_c, 5, 48, 0
4, 68160, Note_on_c, 5, 36, 60
4, 68400, Note_off_c, 5, 36, 0
4, 68400, Note_on_c, 5, 48, 61
4, 68640, Note_off_c, 5, 48, 0
4, 68640, Note_on_c, 5, 51, 61
4, 68880, Note_off_c, 5, 51, 0
4, 68880, Note_on_c, 5, 57, 61
4, 69120, Note_off_c, 5, 57, 0
4, 69120, Note_on_c, 5, 47, 61
4, 69600, Note_off_c, 5, 47, 0
4, 72240, Note_on_c, 5, 48, 62
4, 72480, Note_off_c, 5, 48, 0
4, 72480, Note_on_c, 5, 51, 62
4, 72720, Note_off_c, 5, 51, 0
4, 72720, Note_on_c, 5, 53, 62
4, 72960, Note_off_c, 5, 53, 0
4, 72960, Note_on_c, 5, 55, 63
4, 73200, Note_off_c, 5, 55, 0
4, 73200, Note_on_c, 5, 50, 63
4, 73440, Note_off_c, 5, 50, 0
4, 73440, Note_on_c, 5, 51, 63
4, 73680, Note_off_c, 5, 51, 0
4, 73680, Note_on_c, 5, 48, 63
4, 73920, Note_off_c, 5, 48, 0
4, 73920, Note_on_c, 5, 46, 63
4, 74160, Note_off_c, 5, 46, 0
4, 74160, Note_on_c, 5, 45, 63
4, 74400, Note_off_c, 5, 45, 0
4, 74400, Note_on_c, 5, 48, 63
4, 74640, Note_off_c, 5, 48, 0
4, 74640, Note_on_c, 5, 53, 63
4, 74880, Note_off_c, 5, 53, 0
4, 74880, Note_on_c, 5, 46, 61
4, 75360, Note_off_c, 5, 46, 0
4, 78720, Note_on_c, 5, 41, 60
4, 79680, Note_off_c, 5, 41, 0
4, 79680, Note_on_c, 5, 46, 60
4, 79920, Note_off_c, 5, 46, 0
4, 79920, Note_on_c, 5, 44, 60
4, 80160, Note_off_c, 5, 44, 0
4, 80160, Note_on_c, 5, 43, 60
4, 80400, Note_off_c, 5, 43, 0
4, 80400, Note_on_c, 5, 41, 60
4, 80640, Note_off_c, 5, 41, 0
4, 80640, Note_on_c, 5, 39, 60
4, 81600, Note_off_c, 5, 39, 0
4, 81600, Note_on_c, 5, 51, 60
4, 83040, Note_off_c, 5, 51, 0
4, 83040, Note_on_c, 5, 51, 59
4, 84480, Note_off_c, 5, 51, 0
4, 84480, Note_on_c, 5, 50, 59
4, 85440, Note_off_c, 5, 50, 0
4, 85440, Note_on_c, 5, 46, 59
4, 86400, Note_off_c, 5, 46, 0
4, 86400, Note_on_c, 5, 51, 59
4, 87360, Note_off_c, 5, 51, 0
4, 87360, Note_on_c, 5, 51, 58
4, 88320, Note_off_c, 5, 51, 0
4, 88320, Note_on_c, 5, 49, 58
4, 89280, Note_off_c, 5, 49, 0
4, 89280, Note_on_c, 5, 48, 58
4, 91200, Note_off_c, 5, 48, 0
4, 91200, Note_on_c, 5, 44, 57
4, 92160, Note_off_c, 5, 44, 0
4, 92160, Note_on_c, 5, 45, 57
4, 93120, Note_off_c, 5, 45, 0
4, 93120, Note_on_c, 5, 46, 57
4, 93600, Note_off_c, 5, 46, 0
4, 94080, Note_on_c, 5, 46, 57
4, 94800, Note_off_c, 5, 46, 0
4, 94800, Note_on_c, 5, 47, 56
4, 95040, Note_off_c, 5, 47, 0
4, 95040, Note_on_c, 5, 48, 56
4, 96240, Note_off_c, 5, 48, 0
4, 96240, Note_on_c, 5, 49, 56
4, 96480, Note_off_c, 5, 49, 0
4, 96480, Note_on_c, 5, 48, 56
4, 96720, Note_off_c, 5, 48, 0
4, 96720, Note_on_c, 5, 46, 56
4, 96960, Note_off_c, 5, 46, 0
4, 96960, Note_on_c, 5, 44, 56
4, 97200, Note_off_c, 5, 44, 0
4, 97200, Note_on_c, 5, 46, 56
4, 97440, Note_off_c, 5, 46, 0
4, 97440, Note_on_c, 5, 44, 56
4, 97680, Note_off_c, 5, 44, 0
4, 97680, Note_on_c, 5, 43, 56
4, 97920, Note_off_c, 5, 43, 0
4, 97920, Note_on_c, 5, 41, 56
4, 98880, Note_off_c, 5, 41, 0
4, 99840, Note_on_c, 5, 53, 59
4, 100800, Note_off_c, 5, 53, 0
4, 100800, Note_on_c, 5, 52, 60
4, 102720, Note_off_c, 5, 52, 0
4, 102720, Note_on_c, 5, 51, 62
4, 103680, Note_off_c, 5, 51, 0
4, 103680, Note_on_c, 5, 49, 63
4, 105120, Note_off_c, 5, 49, 0
4, 105120, Note_on_c, 5, 49, 64
4, 105600, Note_off_c, 5, 49, 0
4, 105600, Note_on_c, 5, 50, 65
4, 106560, Note_off_c, 5, 50, 0
4, 106560, Note_on_c, 5, 48, 65
4, 107040, Note_off_c, 5, 48, 0
4, 108480, Note_on_c, 5, 53, 67
4, 108720, Note_off_c, 5, 53, 0
4, 108720, Note_on_c, 5, 54, 67
4, 108960, Note_off_c, 5, 54, 0
4, 108960, Note_on_c, 5, 53, 68
4, 109200, Note_off_c, 5, 53, 0
4, 109200, Note_on_c, 5, 51, 68
4, 109440, Note_off_c, 5, 51, 0
4, 109440, Note_on_c, 5, 49, 68
4, 109680, Note_off_c, 5, 49, 0
4, 109680, Note_on_c, 5, 51, 68
4, 109920, Note_off_c, 5, 51, 0
4, 109920, Note_on_c, 5, 49, 69
4, 110160, Note_off_c, 5, 49, 0
4, 110160, Note_on_c, 5, 48, 69
4, 110400, Note_off_c, 5, 48, 0
4, 110400, Note_on_c, 5, 46, 69
4, 111360, Note_off_c, 5, 46, 0
4, 111360, Note_on_c, 5, 47, 70
4, 112320, Note_off_c, 5, 47, 0
4, 112320, Note_on_c, 5, 51, 71
4, 112560, Note_off_c, 5, 51, 0
4, 112560, Note_on_c, 5, 53, 71
4, 112800, Note_off_c, 5, 53, 0
4, 112800, Note_on_c, 5, 51, 71
4, 113040, Note_off_c, 5, 51, 0
4, 113040, Note_on_c, 5, 49, 72
4, 113280, Note_off_c, 5, 49, 0
4, 113280, Note_on_c, 5, 48, 72
4, 114240, Note_off_c, 5, 48, 0
4, 114240, Note_on_c, 5, 49, 73
4, 115200, Note_off_c, 5, 49, 0
4, 115200, Note_on_c, 5, 46, 73
4, 115920, Note_off_c, 5, 46, 0
4, 115920, Note_on_c, 5, 48, 72
4, 116160, Note_off_c, 5, 48, 0
4, 116160, Note_on_c, 5, 50, 72
4, 117120, Note_off_c, 5, 50, 0
4, 117120, Note_on_c, 5, 51, 71
4, 118080, Note_off_c, 5, 51, 0
4, 118080, Note_on_c, 5, 48, 70
4, 118800, Note_off_c, 5, 48, 0
4, 118800, Note_on_c, 5, 49, 69
4, 119040, Note_off_c, 5, 49, 0
4, 119040, Note_on_c, 5, 51, 69
4, 120000, Note_off_c, 5, 51, 0
4, 120000, Note_on_c, 5, 53, 68
4, 120960, Note_off_c, 5, 53, 0
4, 120960, Note_on_c, 5, 53, 67
4, 121920, Note_off_c, 5, 53, 0
4, 121920, Note_on_c, 5, 55, 66
4, 122160, Note_off_c, 5, 55, 0
4, 122160, Note_on_c, 5, 56, 66
4, 122400, Note_off_c, 5, 56, 0
4, 122400, Note_on_c, 5, 55, 65
4, 122640, Note_off_c, 5, 55, 0
4, 122640, Note_on_c, 5, 53, 65
4, 122880, Note_off_c, 5, 53, 0
4, 122880, Note_on_c, 5, 52, 65
4, 123120, Note_off_c, 5, 52, 0
4, 123120, Note_on_c, 5, 53, 65
4, 123360, Note_off_c, 5, 53, 0
4, 123360, Note_on_c, 5, 52, 64
4, 123600, Note_off_c, 5, 52, 0
4, 123600, Note_on_c, 5, 50, 64
4, 123840, Note_off_c, 5, 50, 0
4, 123840, Note_on_c, 5, 48, 64
4, 124800, Note_off_c, 5, 48, 0
4, 124800, Note_on_c, 5, 47, 63
4, 125760, Note_off_c, 5, 47, 0
4, 125760, Note_on_c, 5, 48, 62
4, 126720, Note_off_c, 5, 48, 0
4, 126720, Note_on_c, 5, 41, 61
4, 128640, Note_off_c, 5, 41, 0
4, 128640, Note_on_c, 5, 53, 59
4, 129600, Note_off_c, 5, 53, 0
4, 129600, Note_on_c, 5, 52, 58
4, 130560, Note_off_c, 5, 52, 0
4, 130560, Note_on_c, 5, 51, 57
4, 131520, Note_off_c, 5, 51, 0
4, 131520, Note_on_c, 5, 50, 56
4, 132480, Note_off_c, 5, 50, 0
4, 132480, Note_on_c, 5, 49, 55
4, 133680, Note_off_c, 5, 49, 0
4, 133680, Note_on_c, 5, 48, 54
4, 133920, Note_off_c, 5, 48, 0
4, 133920, Note_on_c, 5, 52, 53
4, 134160, Note_off_c, 5, 52, 0
4, 134160, Note_on_c, 5, 55, 53
4, 134400, Note_off_c, 5, 55, 0
4, 134400, Note_on_c, 5, 48, 53
4, 134640, Note_off_c, 5, 48, 0
4, 134640, Note_on_c, 5, 46, 53
4, 134880, Note_off_c, 5, 46, 0
4, 134880, Note_on_c, 5, 52, 52
4, 135120, Note_off_c, 5, 52, 0
4, 135120, Note_on_c, 5, 55, 52
4, 135360, Note_off_c, 5, 55, 0
4, 135360, Note_on_c, 5, 46, 52
4, 135600, Note_off_c, 5, 46, 0
4, 135600, Note_on_c, 5, 44, 51
4, 135840, Note_off_c, 5, 44, 0
4, 135840, Note_on_c, 5, 48, 51
4, 136080, Note_off_c, 5, 48, 0
4, 136080, Note_on_c, 5, 53, 51
4, 136320, Note_off_c, 5, 53, 0
4, 136320, Note_on_c, 5, 46, 51
4, 137280, Note_off_c, 5, 46, 0
4, 137280, Note_on_c, 5, 48, 50
4, 138240, Note_off_c, 5, 48, 0
4, 138240, Note_on_c, 5, 41, 49
4, 141120, Note_off_c, 5, 41, 0
4, 141120, End_track
0, 0, End_of_file