0, 0, Header, 1, 4, 192
1, 0, Start_track
1, 0, Title_t, "Bagatellen No.3 in F Major"
1, 0, Copyright_t, "Copyright \251April 2001 by Reginald Steven Ritchie Reginald Steven Ritchie"
1, 0, Text_t, "By Ludwig Van Beethoven\012"
1, 0, Text_t, "Generated by NoteWorthy Composer\012"
1, 0, Time_signature, 6, 3, 12, 8
1, 0, Key_signature, -1, "major"
1, 0, Tempo, 363636
1, 4608, Tempo, 363636
1, 4608, End_track
2, 0, Start_track
2, 0, Title_t, "Copyright 2001 Reg"
2, 0, Program_c, 0, 0
2, 0, Control_c, 0, 7, 127
2, 0, Control_c, 0, 10, 83
2, 0, Program_c, 0, 0
2, 0, Control_c, 0, 7, 127
2, 0, Control_c, 0, 10, 111
2, 0, Control_c, 0, 91, 84
2, 0, Control_c, 0, 93, 84
2, 0, Note_on_c, 0, 72, 60
2, 160, Note_on_c, 0, 72, 0
2, 192, Note_on_c, 0, 72, 60
2, 288, Note_on_c, 0, 72, 0
2, 288, Note_on_c, 0, 77, 92
2, 544, Note_on_c, 0, 77, 0
2, 576, Note_on_c, 0, 72, 60
2, 736, Note_on_c, 0, 72, 0
2, 768, Note_on_c, 0, 72, 60
2, 864, Note_on_c, 0, 72, 0
2, 864, Note_on_c, 0, 69, 92
2, 1120, Note_on_c, 0, 69, 0
2, 1152, Note_on_c, 0, 65, 60
2, 1344, Note_on_c, 0, 65, 0
2, 1344, Note_on_c, 0, 65, 60
2, 1412, Note_on_c, 0, 65, 0
2, 1440, Note_on_c, 0, 69, 60
2, 1464, Note_on_c, 0, 69, 0
2, 1464, Note_on_c, 0, 67, 60
2, 1536, Note_on_c, 0, 67, 0
2, 1536, Note_on_c, 0, 65, 60
2, 1632, Note_on_c, 0, 65, 0
2, 1632, Note_on_c, 0, 67, 60
2, 1728, Note_on_c, 0, 67, 0
2, 1728, Note_on_c, 0, 69, 60
2, 2016, Note_on_c, 0, 69, 0
2, 2016, Note_on_c, 0, 65, 60
2, 2176, Note_on_c, 0, 65, 0
2, 2304, Note_on_c, 0, 74, 45
2, 2464, Note_on_c, 0, 74, 0
2, 2496, Note_on_c, 0, 74, 45
2, 2592, Note_on_c, 0, 74, 0
2, 2592, Note_on_c, 0, 81, 45
2, 2848, Note_on_c, 0, 81, 0
2, 2880, Note_on_c, 0, 74, 45
2, 3040, Note_on_c, 0, 74, 0
2, 3072, Note_on_c, 0, 74, 45
2, 3168, Note_on_c, 0, 74, 0
2, 3168, Note_on_c, 0, 69, 45
2, 3424, Note_on_c, 0, 69, 0
2, 3456, Note_on_c, 0, 74, 45
2, 3616, Note_on_c, 0, 74, 0
2, 3648, Note_on_c, 0, 74, 45
2, 3680, Note_on_c, 0, 74, 0
2, 3744, Note_on_c, 0, 78, 45
2, 3766, Note_on_c, 0, 78, 0
2, 3768, Note_on_c, 0, 76, 45
2, 3838, Note_on_c, 0, 76, 0
2, 3840, Note_on_c, 0, 74, 45
2, 3934, Note_on_c, 0, 74, 0
2, 3936, Note_on_c, 0, 76, 45
2, 4030, Note_on_c, 0, 76, 0
2, 4032, Note_on_c, 0, 74, 45
2, 4288, Note_on_c, 0, 74, 0
2, 4320, Note_on_c, 0, 74, 45
2, 4414, Note_on_c, 0, 74, 0
2, 4416, Note_on_c, 0, 72, 45
2, 4510, Note_on_c, 0, 72, 0
2, 4512, Note_on_c, 0, 72, 45
2, 4544, Note_on_c, 0, 72, 0
2, 4608, Control_c, 0, 91, 84
2, 4608, Control_c, 0, 93, 84
2, 4608, Note_on_c, 0, 72, 60
2, 4768, Note_on_c, 0, 72, 0
2, 4800, Note_on_c, 0, 72, 60
2, 4896, Note_on_c, 0, 72, 0
2, 4896, Note_on_c, 0, 77, 92
2, 5152, Note_on_c, 0, 77, 0
2, 5184, Note_on_c, 0, 72, 60
2, 5344, Note_on_c, 0, 72, 0
2, 5376, Note_on_c, 0, 72, 60
2, 5472, Note_on_c, 0, 72, 0
2, 5472, Note_on_c, 0, 69, 92
2, 5728, Note_on_c, 0, 69, 0
2, 5760, Note_on_c, 0, 65, 60
2, 5952, Note_on_c, 0, 65, 0
2, 5952, Note_on_c, 0, 65, 60
2, 6020, Note_on_c, 0, 65, 0
2, 6048, Note_on_c, 0, 69, 60
2, 6072, Note_on_c, 0, 69, 0
2, 6072, Note_on_c, 0, 67, 60
2, 6144, Note_on_c, 0, 67, 0
2, 6144, Note_on_c, 0, 65, 60
2, 6240, Note_on_c, 0, 65, 0
2, 6240, Note_on_c, 0, 67, 60
2, 6336, Note_on_c, 0, 67, 0
2, 6336, Note_on_c, 0, 69, 60
2, 6624, Note_on_c, 0, 69, 0
2, 6624, Note_on_c, 0, 65, 60
2, 6784, Note_on_c, 0, 65, 0
2, 6912, Note_on_c, 0, 74, 45
2, 7072, Note_on_c, 0, 74, 0
2, 7104, Note_on_c, 0, 74, 45
2, 7200, Note_on_c, 0, 74, 0
2, 7200, Note_on_c, 0, 81, 45
2, 7456, Note_on_c, 0, 81, 0
2, 7488, Note_on_c, 0, 74, 45
2, 7648, Note_on_c, 0, 74, 0
2, 7680, Note_on_c, 0, 74, 45
2, 7776, Note_on_c, 0, 74, 0
2, 7776, Note_on_c, 0, 69, 45
2, 8032, Note_on_c, 0, 69, 0
2, 8064, Note_on_c, 0, 74, 45
2, 8224, Note_on_c, 0, 74, 0
2, 8256, Note_on_c, 0, 74, 45
2, 8288, Note_on_c, 0, 74, 0
2, 8352, Note_on_c, 0, 78, 45
2, 8374, Note_on_c, 0, 78, 0
2, 8376, Note_on_c, 0, 76, 45
2, 8446, Note_on_c, 0, 76, 0
2, 8448, Note_on_c, 0, 74, 45
2, 8542, Note_on_c, 0, 74, 0
2, 8544, Note_on_c, 0, 76, 45
2, 8638, Note_on_c, 0, 76, 0
2, 8640, Note_on_c, 0, 74, 45
2, 8896, Note_on_c, 0, 74, 0
2, 8928, Note_on_c, 0, 74, 45
2, 9022, Note_on_c, 0, 74, 0
2, 9024, Note_on_c, 0, 72, 45
2, 9118, Note_on_c, 0, 72, 0
2, 9120, Note_on_c, 0, 72, 45
2, 9152, Note_on_c, 0, 72, 0
2, 9216, Note_on_c, 0, 74, 45
2, 9472, Note_on_c, 0, 74, 0
2, 9504, Note_on_c, 0, 74, 52
2, 9598, Note_on_c, 0, 74, 0
2, 9600, Note_on_c, 0, 74, 54
2, 9632, Note_on_c, 0, 74, 0
2, 9696, Note_on_c, 0, 74, 57
2, 9790, Note_on_c, 0, 74, 0
2, 9792, Note_on_c, 0, 72, 60
2, 9952, Note_on_c, 0, 72, 0
2, 9984, Note_on_c, 0, 72, 60
2, 10080, Note_on_c, 0, 72, 0
2, 10080, Note_on_c, 0, 84, 92
2, 10336, Note_on_c, 0, 84, 0
2, 10368, Note_on_c, 0, 84, 60
2, 10528, Note_on_c, 0, 84, 0
2, 10560, Note_on_c, 0, 84, 60
2, 10656, Note_on_c, 0, 84, 0
2, 10656, Note_on_c, 0, 72, 60
2, 10912, Note_on_c, 0, 72, 0
2, 10944, Note_on_c, 0, 72, 60
2, 11104, Note_on_c, 0, 72, 0
2, 11136, Note_on_c, 0, 72, 60
2, 11232, Note_on_c, 0, 72, 0
2, 11232, Note_on_c, 0, 84, 92
2, 11488, Note_on_c, 0, 84, 0
2, 11520, Note_on_c, 0, 84, 60
2, 11680, Note_on_c, 0, 84, 0
2, 11712, Note_on_c, 0, 84, 70
2, 11808, Note_on_c, 0, 84, 0
2, 11808, Note_on_c, 0, 72, 75
2, 11968, Note_on_c, 0, 72, 0
2, 12000, Note_on_c, 0, 84, 86
2, 12096, Note_on_c, 0, 84, 0
2, 12096, Note_on_c, 0, 72, 92
2, 12256, Note_on_c, 0, 72, 0
2, 12288, Note_on_c, 0, 72, 92
2, 12384, Note_on_c, 0, 72, 0
2, 12384, Note_on_c, 0, 77, 127
2, 12640, Note_on_c, 0, 77, 0
2, 12672, Note_on_c, 0, 72, 60
2, 12832, Note_on_c, 0, 72, 0
2, 12864, Note_on_c, 0, 72, 60
2, 12960, Note_on_c, 0, 72, 0
2, 12960, Note_on_c, 0, 69, 92
2, 13216, Note_on_c, 0, 69, 0
2, 13248, Note_on_c, 0, 65, 60
2, 13408, Note_on_c, 0, 65, 0
2, 13440, Note_on_c, 0, 65, 60
2, 13472, Note_on_c, 0, 65, 0
2, 13536, Note_on_c, 0, 69, 60
2, 13558, Note_on_c, 0, 69, 0
2, 13560, Note_on_c, 0, 67, 60
2, 13630, Note_on_c, 0, 67, 0
2, 13632, Note_on_c, 0, 65, 60
2, 13726, Note_on_c, 0, 65, 0
2, 13728, Note_on_c, 0, 67, 60
2, 13822, Note_on_c, 0, 67, 0
2, 13824, Note_on_c, 0, 65, 60
2, 13984, Note_on_c, 0, 65, 0
2, 14400, Note_on_c, 0, 72, 60
2, 14560, Note_on_c, 0, 72, 0
2, 14592, Note_on_c, 0, 72, 60
2, 14688, Note_on_c, 0, 72, 0
2, 14688, Note_on_c, 0, 84, 92
2, 14944, Note_on_c, 0, 84, 0
2, 14976, Note_on_c, 0, 84, 60
2, 15136, Note_on_c, 0, 84, 0
2, 15168, Note_on_c, 0, 84, 60
2, 15264, Note_on_c, 0, 84, 0
2, 15264, Note_on_c, 0, 72, 60
2, 15520, Note_on_c, 0, 72, 0
2, 15552, Note_on_c, 0, 72, 60
2, 15712, Note_on_c, 0, 72, 0
2, 15744, Note_on_c, 0, 72, 60
2, 15840, Note_on_c, 0, 72, 0
2, 15840, Note_on_c, 0, 84, 92
2, 16096, Note_on_c, 0, 84, 0
2, 16128, Note_on_c, 0, 84, 60
2, 16288, Note_on_c, 0, 84, 0
2, 16320, Note_on_c, 0, 84, 70
2, 16416, Note_on_c, 0, 84, 0
2, 16416, Note_on_c, 0, 72, 75
2, 16576, Note_on_c, 0, 72, 0
2, 16608, Note_on_c, 0, 84, 86
2, 16704, Note_on_c, 0, 84, 0
2, 16704, Note_on_c, 0, 72, 92
2, 16864, Note_on_c, 0, 72, 0
2, 16896, Note_on_c, 0, 72, 92
2, 16992, Note_on_c, 0, 72, 0
2, 16992, Note_on_c, 0, 77, 127
2, 17248, Note_on_c, 0, 77, 0
2, 17280, Note_on_c, 0, 72, 60
2, 17440, Note_on_c, 0, 72, 0
2, 17472, Note_on_c, 0, 72, 60
2, 17568, Note_on_c, 0, 72, 0
2, 17568, Note_on_c, 0, 69, 92
2, 17824, Note_on_c, 0, 69, 0
2, 17856, Note_on_c, 0, 65, 60
2, 18016, Note_on_c, 0, 65, 0
2, 18048, Note_on_c, 0, 65, 60
2, 18080, Note_on_c, 0, 65, 0
2, 18144, Note_on_c, 0, 69, 60
2, 18166, Note_on_c, 0, 69, 0
2, 18168, Note_on_c, 0, 67, 60
2, 18238, Note_on_c, 0, 67, 0
2, 18240, Note_on_c, 0, 65, 60
2, 18334, Note_on_c, 0, 65, 0
2, 18336, Note_on_c, 0, 67, 60
2, 18430, Note_on_c, 0, 67, 0
2, 18432, Note_on_c, 0, 65, 60
2, 18592, Note_on_c, 0, 65, 0
2, 19008, Note_on_c, 0, 65, 60
2, 19168, Note_on_c, 0, 65, 0
2, 19296, Note_on_c, 0, 62, 60
2, 19296, Note_on_c, 0, 70, 60
2, 19584, Note_on_c, 0, 70, 0
2, 19584, Note_on_c, 0, 62, 0
2, 19584, Note_on_c, 0, 60, 60
2, 19584, Note_on_c, 0, 69, 60
2, 19840, Note_on_c, 0, 69, 0
2, 19840, Note_on_c, 0, 60, 0
2, 19872, Note_on_c, 0, 58, 60
2, 19872, Note_on_c, 0, 67, 60
2, 20128, Note_on_c, 0, 67, 0
2, 20128, Note_on_c, 0, 58, 0
2, 20160, Note_on_c, 0, 57, 60
2, 20160, Note_on_c, 0, 65, 60
2, 20254, Note_on_c, 0, 65, 0
2, 20254, Note_on_c, 0, 57, 0
2, 20256, Note_on_c, 0, 65, 60
2, 20288, Note_on_c, 0, 65, 0
2, 20352, Note_on_c, 0, 65, 60
2, 20384, Note_on_c, 0, 65, 0
2, 20448, Note_on_c, 0, 67, 60
2, 20472, Note_on_c, 0, 67, 0
2, 20472, Note_on_c, 0, 65, 60
2, 20542, Note_on_c, 0, 65, 0
2, 20544, Note_on_c, 0, 64, 60
2, 20638, Note_on_c, 0, 64, 0
2, 20640, Note_on_c, 0, 65, 60
2, 20734, Note_on_c, 0, 65, 0
2, 20736, Note_on_c, 0, 67, 60
2, 20768, Note_on_c, 0, 67, 0
2, 20832, Note_on_c, 0, 67, 60
2, 20864, Note_on_c, 0, 67, 0
2, 20928, Note_on_c, 0, 67, 60
2, 20960, Note_on_c, 0, 67, 0
2, 21024, Note_on_c, 0, 67, 60
2, 21118, Note_on_c, 0, 67, 0
2, 21120, Note_on_c, 0, 69, 60
2, 21214, Note_on_c, 0, 69, 0
2, 21216, Note_on_c, 0, 67, 60
2, 21310, Note_on_c, 0, 67, 0
2, 21312, Note_on_c, 0, 65, 60
2, 21472, Note_on_c, 0, 65, 0
2, 21600, Note_on_c, 0, 72, 60
2, 21696, Note_on_c, 0, 72, 0
2, 21696, Note_on_c, 0, 70, 60
2, 21790, Note_on_c, 0, 70, 0
2, 21792, Note_on_c, 0, 70, 60
2, 21824, Note_on_c, 0, 70, 0
2, 21888, Note_on_c, 0, 70, 60
2, 21982, Note_on_c, 0, 70, 0
2, 21984, Note_on_c, 0, 69, 60
2, 22078, Note_on_c, 0, 69, 0
2, 22080, Note_on_c, 0, 69, 60
2, 22112, Note_on_c, 0, 69, 0
2, 22176, Note_on_c, 0, 69, 60
2, 22270, Note_on_c, 0, 69, 0
2, 22272, Note_on_c, 0, 67, 60
2, 22366, Note_on_c, 0, 67, 0
2, 22368, Note_on_c, 0, 67, 60
2, 22400, Note_on_c, 0, 67, 0
2, 22464, Note_on_c, 0, 65, 60
2, 22496, Note_on_c, 0, 65, 0
2, 22560, Note_on_c, 0, 65, 61
2, 22592, Note_on_c, 0, 65, 0
2, 22656, Note_on_c, 0, 65, 62
2, 22688, Note_on_c, 0, 65, 0
2, 22752, Note_on_c, 0, 67, 63
2, 22776, Note_on_c, 0, 67, 0
2, 22776, Note_on_c, 0, 65, 63
2, 22846, Note_on_c, 0, 65, 0
2, 22848, Note_on_c, 0, 64, 64
2, 22942, Note_on_c, 0, 64, 0
2, 22944, Note_on_c, 0, 65, 65
2, 23038, Note_on_c, 0, 65, 0
2, 23040, Note_on_c, 0, 67, 66
2, 23134, Note_on_c, 0, 67, 0
2, 23136, Note_on_c, 0, 67, 67
2, 23168, Note_on_c, 0, 67, 0
2, 23232, Note_on_c, 0, 67, 68
2, 23264, Note_on_c, 0, 67, 0
2, 23328, Note_on_c, 0, 69, 69
2, 23352, Note_on_c, 0, 69, 0
2, 23352, Note_on_c, 0, 67, 69
2, 23422, Note_on_c, 0, 67, 0
2, 23424, Note_on_c, 0, 65, 70
2, 23518, Note_on_c, 0, 65, 0
2, 23520, Note_on_c, 0, 67, 71
2, 23614, Note_on_c, 0, 67, 0
2, 23616, Note_on_c, 0, 69, 72
2, 23710, Note_on_c, 0, 69, 0
2, 23712, Note_on_c, 0, 69, 73
2, 23744, Note_on_c, 0, 69, 0
2, 23808, Note_on_c, 0, 69, 74
2, 23840, Note_on_c, 0, 69, 0
2, 23904, Note_on_c, 0, 70, 75
2, 23928, Note_on_c, 0, 70, 0
2, 23928, Note_on_c, 0, 69, 75
2, 23998, Note_on_c, 0, 69, 0
2, 24000, Note_on_c, 0, 67, 76
2, 24094, Note_on_c, 0, 67, 0
2, 24096, Note_on_c, 0, 69, 78
2, 24190, Note_on_c, 0, 69, 0
2, 24192, Note_on_c, 0, 71, 80
2, 24286, Note_on_c, 0, 71, 0
2, 24288, Note_on_c, 0, 71, 82
2, 24320, Note_on_c, 0, 71, 0
2, 24384, Note_on_c, 0, 71, 84
2, 24416, Note_on_c, 0, 71, 0
2, 24480, Note_on_c, 0, 72, 86
2, 24504, Note_on_c, 0, 72, 0
2, 24504, Note_on_c, 0, 71, 86
2, 24574, Note_on_c, 0, 71, 0
2, 24576, Note_on_c, 0, 69, 88
2, 24670, Note_on_c, 0, 69, 0
2, 24672, Note_on_c, 0, 71, 90
2, 24766, Note_on_c, 0, 71, 0
2, 24768, Note_on_c, 0, 72, 92
2, 24862, Note_on_c, 0, 72, 0
2, 24864, Note_on_c, 0, 72, 92
2, 24896, Note_on_c, 0, 72, 0
2, 24960, Note_on_c, 0, 72, 92
2, 24992, Note_on_c, 0, 72, 0
2, 25056, Note_on_c, 0, 74, 92
2, 25080, Note_on_c, 0, 74, 0
2, 25080, Note_on_c, 0, 72, 92
2, 25150, Note_on_c, 0, 72, 0
2, 25152, Note_on_c, 0, 71, 92
2, 25248, Note_on_c, 0, 71, 0
2, 25248, Note_on_c, 0, 72, 92
2, 25344, Note_on_c, 0, 72, 0
2, 25344, Note_on_c, 0, 74, 92
2, 25412, Note_on_c, 0, 74, 0
2, 25440, Note_on_c, 0, 74, 92
2, 25508, Note_on_c, 0, 74, 0
2, 25536, Note_on_c, 0, 74, 92
2, 25568, Note_on_c, 0, 74, 0
2, 25632, Note_on_c, 0, 74, 92
2, 25726, Note_on_c, 0, 74, 0
2, 25728, Note_on_c, 0, 76, 92
2, 25822, Note_on_c, 0, 76, 0
2, 25824, Note_on_c, 0, 74, 92
2, 25918, Note_on_c, 0, 74, 0
2, 25920, Note_on_c, 0, 72, 108
2, 25952, Note_on_c, 0, 72, 0
2, 26016, Note_on_c, 0, 84, 108
2, 26048, Note_on_c, 0, 84, 0
2, 26112, Note_on_c, 0, 84, 108
2, 26144, Note_on_c, 0, 84, 0
2, 26208, Note_on_c, 0, 86, 108
2, 26232, Note_on_c, 0, 86, 0
2, 26232, Note_on_c, 0, 84, 108
2, 26302, Note_on_c, 0, 84, 0
2, 26304, Note_on_c, 0, 83, 108
2, 26400, Note_on_c, 0, 83, 0
2, 26400, Note_on_c, 0, 84, 108
2, 26496, Note_on_c, 0, 84, 0
2, 26496, Note_on_c, 0, 86, 108
2, 26564, Note_on_c, 0, 86, 0
2, 26592, Note_on_c, 0, 86, 108
2, 26660, Note_on_c, 0, 86, 0
2, 26688, Note_on_c, 0, 86, 108
2, 26720, Note_on_c, 0, 86, 0
2, 26784, Note_on_c, 0, 86, 108
2, 26878, Note_on_c, 0, 86, 0
2, 26880, Note_on_c, 0, 88, 108
2, 26974, Note_on_c, 0, 88, 0
2, 26976, Note_on_c, 0, 86, 108
2, 27070, Note_on_c, 0, 86, 0
2, 27072, Note_on_c, 0, 84, 108
2, 27104, Note_on_c, 0, 84, 0
2, 27168, Note_on_c, 0, 72, 104
2, 27200, Note_on_c, 0, 72, 0
2, 27264, Note_on_c, 0, 72, 100
2, 27296, Note_on_c, 0, 72, 0
2, 27360, Note_on_c, 0, 71, 96
2, 27454, Note_on_c, 0, 71, 0
2, 27456, Note_on_c, 0, 72, 92
2, 27488, Note_on_c, 0, 72, 0
2, 27552, Note_on_c, 0, 72, 88
2, 27584, Note_on_c, 0, 72, 0
2, 27648, Note_on_c, 0, 71, 84
2, 27742, Note_on_c, 0, 71, 0
2, 27744, Note_on_c, 0, 72, 80
2, 27776, Note_on_c, 0, 72, 0
2, 27840, Note_on_c, 0, 72, 76
2, 27872, Note_on_c, 0, 72, 0
2, 27936, Note_on_c, 0, 71, 72
2, 27968, Note_on_c, 0, 71, 0
2, 28032, Note_on_c, 0, 72, 68
2, 28064, Note_on_c, 0, 72, 0
2, 28128, Note_on_c, 0, 72, 64
2, 28160, Note_on_c, 0, 72, 0
2, 28224, Note_on_c, 0, 71, 60
2, 28246, Note_on_c, 0, 71, 0
2, 28248, Note_on_c, 0, 72, 60
2, 28416, Note_on_c, 0, 72, 0
2, 28416, Note_on_c, 0, 72, 60
2, 28512, Note_on_c, 0, 72, 0
2, 28512, Note_on_c, 0, 77, 92
2, 28768, Note_on_c, 0, 77, 0
2, 28800, Note_on_c, 0, 71, 60
2, 28824, Note_on_c, 0, 71, 0
2, 28824, Note_on_c, 0, 72, 60
2, 28990, Note_on_c, 0, 72, 0
2, 28992, Note_on_c, 0, 72, 60
2, 29088, Note_on_c, 0, 72, 0
2, 29088, Note_on_c, 0, 69, 92
2, 29344, Note_on_c, 0, 69, 0
2, 29376, Note_on_c, 0, 64, 60
2, 29400, Note_on_c, 0, 64, 0
2, 29400, Note_on_c, 0, 65, 60
2, 29566, Note_on_c, 0, 65, 0
2, 29568, Note_on_c, 0, 65, 60
2, 29664, Note_on_c, 0, 65, 0
2, 29664, Note_on_c, 0, 69, 60
2, 29686, Note_on_c, 0, 69, 0
2, 29688, Note_on_c, 0, 67, 60
2, 29758, Note_on_c, 0, 67, 0
2, 29760, Note_on_c, 0, 65, 60
2, 29854, Note_on_c, 0, 65, 0
2, 29856, Note_on_c, 0, 67, 60
2, 29950, Note_on_c, 0, 67, 0
2, 29952, Note_on_c, 0, 69, 60
2, 30208, Note_on_c, 0, 69, 0
2, 30240, Note_on_c, 0, 65, 60
2, 30400, Note_on_c, 0, 65, 0
2, 30528, Note_on_c, 0, 73, 45
2, 30552, Note_on_c, 0, 73, 0
2, 30552, Note_on_c, 0, 74, 45
2, 30718, Note_on_c, 0, 74, 0
2, 30720, Note_on_c, 0, 74, 45
2, 30816, Note_on_c, 0, 74, 0
2, 30816, Note_on_c, 0, 81, 45
2, 31072, Note_on_c, 0, 81, 0
2, 31104, Note_on_c, 0, 73, 45
2, 31128, Note_on_c, 0, 73, 0
2, 31128, Note_on_c, 0, 74, 45
2, 31294, Note_on_c, 0, 74, 0
2, 31296, Note_on_c, 0, 74, 45
2, 31392, Note_on_c, 0, 74, 0
2, 31392, Note_on_c, 0, 69, 45
2, 31648, Note_on_c, 0, 69, 0
2, 31680, Note_on_c, 0, 73, 45
2, 31704, Note_on_c, 0, 73, 0
2, 31704, Note_on_c, 0, 74, 45
2, 31870, Note_on_c, 0, 74, 0
2, 31872, Note_on_c, 0, 74, 45
2, 31966, Note_on_c, 0, 74, 0
2, 31968, Note_on_c, 0, 78, 45
2, 31992, Note_on_c, 0, 78, 0
2, 31992, Note_on_c, 0, 76, 45
2, 32062, Note_on_c, 0, 76, 0
2, 32064, Note_on_c, 0, 74, 45
2, 32158, Note_on_c, 0, 74, 0
2, 32160, Note_on_c, 0, 76, 45
2, 32254, Note_on_c, 0, 76, 0
2, 32256, Note_on_c, 0, 74, 45
2, 32512, Note_on_c, 0, 74, 0
2, 32544, Note_on_c, 0, 74, 52
2, 32638, Note_on_c, 0, 74, 0
2, 32640, Note_on_c, 0, 72, 54
2, 32672, Note_on_c, 0, 72, 0
2, 32736, Note_on_c, 0, 72, 57
2, 32768, Note_on_c, 0, 72, 0
2, 32832, Note_on_c, 0, 71, 60
2, 32926, Note_on_c, 0, 71, 0
2, 32928, Note_on_c, 0, 72, 60
2, 32960, Note_on_c, 0, 72, 0
2, 33024, Note_on_c, 0, 72, 60
2, 33056, Note_on_c, 0, 72, 0
2, 33120, Note_on_c, 0, 77, 92
2, 33376, Note_on_c, 0, 77, 0
2, 33408, Note_on_c, 0, 71, 60
2, 33502, Note_on_c, 0, 71, 0
2, 33504, Note_on_c, 0, 72, 60
2, 33536, Note_on_c, 0, 72, 0
2, 33600, Note_on_c, 0, 72, 60
2, 33632, Note_on_c, 0, 72, 0
2, 33696, Note_on_c, 0, 69, 92
2, 33952, Note_on_c, 0, 69, 0
2, 33984, Note_on_c, 0, 64, 60
2, 34080, Note_on_c, 0, 64, 0
2, 34080, Note_on_c, 0, 65, 60
2, 34112, Note_on_c, 0, 65, 0
2, 34176, Note_on_c, 0, 65, 60
2, 34208, Note_on_c, 0, 65, 0
2, 34272, Note_on_c, 0, 66, 60
2, 34366, Note_on_c, 0, 66, 0
2, 34368, Note_on_c, 0, 67, 60
2, 34400, Note_on_c, 0, 67, 0
2, 34464, Note_on_c, 0, 67, 60
2, 34496, Note_on_c, 0, 67, 0
2, 34560, Note_on_c, 0, 68, 60
2, 34654, Note_on_c, 0, 68, 0
2, 34656, Note_on_c, 0, 69, 60
2, 34688, Note_on_c, 0, 69, 0
2, 34752, Note_on_c, 0, 69, 60
2, 34784, Note_on_c, 0, 69, 0
2, 34848, Note_on_c, 0, 65, 60
2, 35104, Note_on_c, 0, 65, 0
2, 35136, Note_on_c, 0, 73, 45
2, 35230, Note_on_c, 0, 73, 0
2, 35232, Note_on_c, 0, 74, 45
2, 35264, Note_on_c, 0, 74, 0
2, 35328, Note_on_c, 0, 74, 45
2, 35360, Note_on_c, 0, 74, 0
2, 35424, Note_on_c, 0, 81, 45
2, 35680, Note_on_c, 0, 81, 0
2, 35712, Note_on_c, 0, 73, 45
2, 35806, Note_on_c, 0, 73, 0
2, 35808, Note_on_c, 0, 74, 45
2, 35840, Note_on_c, 0, 74, 0
2, 35904, Note_on_c, 0, 74, 45
2, 35936, Note_on_c, 0, 74, 0
2, 36000, Note_on_c, 0, 69, 45
2, 36256, Note_on_c, 0, 69, 0
2, 36288, Note_on_c, 0, 73, 45
2, 36382, Note_on_c, 0, 73, 0
2, 36384, Note_on_c, 0, 74, 45
2, 36416, Note_on_c, 0, 74, 0
2, 36480, Note_on_c, 0, 74, 45
2, 36512, Note_on_c, 0, 74, 0
2, 36576, Note_on_c, 0, 78, 45
2, 36600, Note_on_c, 0, 78, 0
2, 36600, Note_on_c, 0, 76, 45
2, 36670, Note_on_c, 0, 76, 0
2, 36672, Note_on_c, 0, 74, 45
2, 36766, Note_on_c, 0, 74, 0
2, 36768, Note_on_c, 0, 76, 45
2, 36862, Note_on_c, 0, 76, 0
2, 36864, Note_on_c, 0, 74, 45
2, 37120, Note_on_c, 0, 74, 0
2, 37152, Note_on_c, 0, 74, 52
2, 37246, Note_on_c, 0, 74, 0
2, 37248, Note_on_c, 0, 74, 54
2, 37280, Note_on_c, 0, 74, 0
2, 37344, Note_on_c, 0, 74, 57
2, 37376, Note_on_c, 0, 74, 0
2, 37440, Note_on_c, 0, 72, 60
2, 37600, Note_on_c, 0, 72, 0
2, 37632, Note_on_c, 0, 72, 60
2, 37728, Note_on_c, 0, 72, 0
2, 37728, Note_on_c, 0, 84, 60
2, 37984, Note_on_c, 0, 84, 0
2, 38016, Note_on_c, 0, 84, 60
2, 38176, Note_on_c, 0, 84, 0
2, 38208, Note_on_c, 0, 84, 60
2, 38304, Note_on_c, 0, 84, 0
2, 38304, Note_on_c, 0, 72, 60
2, 38560, Note_on_c, 0, 72, 0
2, 38592, Note_on_c, 0, 72, 60
2, 38752, Note_on_c, 0, 72, 0
2, 38784, Note_on_c, 0, 72, 60
2, 38878, Note_on_c, 0, 72, 0
2, 38880, Note_on_c, 0, 84, 92
2, 39136, Note_on_c, 0, 84, 0
2, 39168, Note_on_c, 0, 84, 45
2, 39328, Note_on_c, 0, 84, 0
2, 39360, Note_on_c, 0, 84, 60
2, 39456, Note_on_c, 0, 84, 0
2, 39456, Note_on_c, 0, 72, 68
2, 39616, Note_on_c, 0, 72, 0
2, 39648, Note_on_c, 0, 84, 84
2, 39744, Note_on_c, 0, 84, 0
2, 39744, Note_on_c, 0, 71, 92
2, 39768, Note_on_c, 0, 71, 0
2, 39768, Note_on_c, 0, 72, 92
2, 39934, Note_on_c, 0, 72, 0
2, 39936, Note_on_c, 0, 72, 92
2, 40032, Note_on_c, 0, 72, 0
2, 40032, Note_on_c, 0, 77, 92
2, 40288, Note_on_c, 0, 77, 0
2, 40320, Note_on_c, 0, 71, 60
2, 40344, Note_on_c, 0, 71, 0
2, 40344, Note_on_c, 0, 72, 60
2, 40510, Note_on_c, 0, 72, 0
2, 40512, Note_on_c, 0, 72, 60
2, 40608, Note_on_c, 0, 72, 0
2, 40608, Note_on_c, 0, 69, 92
2, 40864, Note_on_c, 0, 69, 0
2, 40896, Note_on_c, 0, 65, 60
2, 41056, Note_on_c, 0, 65, 0
2, 41088, Note_on_c, 0, 65, 60
2, 41120, Note_on_c, 0, 65, 0
2, 41184, Note_on_c, 0, 69, 60
2, 41208, Note_on_c, 0, 69, 0
2, 41208, Note_on_c, 0, 67, 60
2, 41278, Note_on_c, 0, 67, 0
2, 41280, Note_on_c, 0, 65, 60
2, 41374, Note_on_c, 0, 65, 0
2, 41376, Note_on_c, 0, 67, 60
2, 41470, Note_on_c, 0, 67, 0
2, 41472, Note_on_c, 0, 65, 60
2, 41632, Note_on_c, 0, 65, 0
2, 42048, Note_on_c, 0, 71, 60
2, 42142, Note_on_c, 0, 71, 0
2, 42144, Note_on_c, 0, 72, 60
2, 42176, Note_on_c, 0, 72, 0
2, 42240, Note_on_c, 0, 72, 60
2, 42272, Note_on_c, 0, 72, 0
2, 42336, Note_on_c, 0, 84, 92
2, 42592, Note_on_c, 0, 84, 0
2, 42624, Note_on_c, 0, 83, 60
2, 42718, Note_on_c, 0, 83, 0
2, 42720, Note_on_c, 0, 84, 60
2, 42752, Note_on_c, 0, 84, 0
2, 42816, Note_on_c, 0, 84, 60
2, 42848, Note_on_c, 0, 84, 0
2, 42912, Note_on_c, 0, 72, 92
2, 43168, Note_on_c, 0, 72, 0
2, 43200, Note_on_c, 0, 71, 60
2, 43294, Note_on_c, 0, 71, 0
2, 43296, Note_on_c, 0, 72, 62
2, 43328, Note_on_c, 0, 72, 0
2, 43392, Note_on_c, 0, 72, 64
2, 43424, Note_on_c, 0, 72, 0
2, 43488, Note_on_c, 0, 83, 66
2, 43582, Note_on_c, 0, 83, 0
2, 43584, Note_on_c, 0, 84, 68
2, 43616, Note_on_c, 0, 84, 0
2, 43680, Note_on_c, 0, 84, 71
2, 43712, Note_on_c, 0, 84, 0
2, 43776, Note_on_c, 0, 83, 74
2, 43870, Note_on_c, 0, 83, 0
2, 43872, Note_on_c, 0, 84, 77
2, 43904, Note_on_c, 0, 84, 0
2, 43968, Note_on_c, 0, 84, 80
2, 44000, Note_on_c, 0, 84, 0
2, 44064, Note_on_c, 0, 71, 83
2, 44158, Note_on_c, 0, 71, 0
2, 44160, Note_on_c, 0, 72, 86
2, 44192, Note_on_c, 0, 72, 0
2, 44256, Note_on_c, 0, 72, 89
2, 44288, Note_on_c, 0, 72, 0
2, 44352, Note_on_c, 0, 71, 92
2, 44446, Note_on_c, 0, 71, 0
2, 44448, Note_on_c, 0, 72, 92
2, 44480, Note_on_c, 0, 72, 0
2, 44544, Note_on_c, 0, 72, 92
2, 44576, Note_on_c, 0, 72, 0
2, 44640, Note_on_c, 0, 77, 127
2, 44896, Note_on_c, 0, 77, 0
2, 44928, Note_on_c, 0, 71, 92
2, 45022, Note_on_c, 0, 71, 0
2, 45024, Note_on_c, 0, 72, 92
2, 45056, Note_on_c, 0, 72, 0
2, 45120, Note_on_c, 0, 72, 92
2, 45152, Note_on_c, 0, 72, 0
2, 45216, Note_on_c, 0, 69, 127
2, 45472, Note_on_c, 0, 69, 0
2, 45504, Note_on_c, 0, 64, 92
2, 45598, Note_on_c, 0, 64, 0
2, 45600, Note_on_c, 0, 65, 92
2, 45632, Note_on_c, 0, 65, 0
2, 45696, Note_on_c, 0, 65, 92
2, 45728, Note_on_c, 0, 65, 0
2, 45792, Note_on_c, 0, 69, 92
2, 45816, Note_on_c, 0, 69, 0
2, 45816, Note_on_c, 0, 67, 92
2, 45886, Note_on_c, 0, 67, 0
2, 45888, Note_on_c, 0, 65, 92
2, 45982, Note_on_c, 0, 65, 0
2, 45984, Note_on_c, 0, 67, 92
2, 46078, Note_on_c, 0, 67, 0
2, 46080, Note_on_c, 0, 65, 92
2, 46240, Note_on_c, 0, 65, 0
2, 46368, Note_on_c, 0, 62, 45
2, 46368, Note_on_c, 0, 70, 45
2, 46624, Note_on_c, 0, 70, 0
2, 46624, Note_on_c, 0, 62, 0
2, 46656, Note_on_c, 0, 60, 45
2, 46656, Note_on_c, 0, 69, 45
2, 46912, Note_on_c, 0, 69, 0
2, 46912, Note_on_c, 0, 60, 0
2, 46944, Note_on_c, 0, 58, 45
2, 46944, Note_on_c, 0, 67, 45
2, 47200, Note_on_c, 0, 67, 0
2, 47200, Note_on_c, 0, 58, 0
2, 47232, Note_on_c, 0, 57, 45
2, 47232, Note_on_c, 0, 65, 45
2, 47326, Note_on_c, 0, 65, 0
2, 47326, Note_on_c, 0, 57, 0
2, 47328, Note_on_c, 0, 65, 45
2, 47360, Note_on_c, 0, 65, 0
2, 47424, Note_on_c, 0, 65, 45
2, 47456, Note_on_c, 0, 65, 0
2, 47520, Note_on_c, 0, 67, 45
2, 47544, Note_on_c, 0, 67, 0
2, 47544, Note_on_c, 0, 65, 45
2, 47614, Note_on_c, 0, 65, 0
2, 47616, Note_on_c, 0, 64, 45
2, 47710, Note_on_c, 0, 64, 0
2, 47712, Note_on_c, 0, 65, 45
2, 47806, Note_on_c, 0, 65, 0
2, 47808, Note_on_c, 0, 67, 45
2, 47902, Note_on_c, 0, 67, 0
2, 47904, Note_on_c, 0, 67, 45
2, 47998, Note_on_c, 0, 67, 0
2, 48000, Note_on_c, 0, 67, 45
2, 48094, Note_on_c, 0, 67, 0
2, 48096, Note_on_c, 0, 67, 45
2, 48190, Note_on_c, 0, 67, 0
2, 48192, Note_on_c, 0, 69, 45
2, 48286, Note_on_c, 0, 69, 0
2, 48288, Note_on_c, 0, 67, 45
2, 48382, Note_on_c, 0, 67, 0
2, 48384, Note_on_c, 0, 65, 45
2, 48544, Note_on_c, 0, 65, 0
2, 48672, Note_on_c, 0, 72, 45
2, 48766, Note_on_c, 0, 72, 0
2, 48768, Note_on_c, 0, 70, 45
2, 48800, Note_on_c, 0, 70, 0
2, 48864, Note_on_c, 0, 70, 45
2, 48896, Note_on_c, 0, 70, 0
2, 48960, Note_on_c, 0, 70, 45
2, 49054, Note_on_c, 0, 70, 0
2, 49056, Note_on_c, 0, 69, 45
2, 49088, Note_on_c, 0, 69, 0
2, 49152, Note_on_c, 0, 69, 45
2, 49184, Note_on_c, 0, 69, 0
2, 49248, Note_on_c, 0, 69, 45
2, 49342, Note_on_c, 0, 69, 0
2, 49344, Note_on_c, 0, 67, 45
2, 49376, Note_on_c, 0, 67, 0
2, 49440, Note_on_c, 0, 67, 45
2, 49472, Note_on_c, 0, 67, 0
2, 49536, Note_on_c, 0, 65, 45
2, 49630, Note_on_c, 0, 65, 0
2, 49632, Note_on_c, 0, 77, 48
2, 49726, Note_on_c, 0, 77, 0
2, 49728, Note_on_c, 0, 77, 52
2, 49760, Note_on_c, 0, 77, 0
2, 49824, Note_on_c, 0, 79, 56
2, 49848, Note_on_c, 0, 79, 0
2, 49848, Note_on_c, 0, 77, 56
2, 49918, Note_on_c, 0, 77, 0
2, 49920, Note_on_c, 0, 76, 60
2, 50014, Note_on_c, 0, 76, 0
2, 50016, Note_on_c, 0, 77, 64
2, 50110, Note_on_c, 0, 77, 0
2, 50112, Note_on_c, 0, 79, 68
2, 50206, Note_on_c, 0, 79, 0
2, 50208, Note_on_c, 0, 79, 72
2, 50240, Note_on_c, 0, 79, 0
2, 50304, Note_on_c, 0, 79, 76
2, 50336, Note_on_c, 0, 79, 0
2, 50400, Note_on_c, 0, 79, 80
2, 50432, Note_on_c, 0, 79, 0
2, 50496, Note_on_c, 0, 81, 84
2, 50590, Note_on_c, 0, 81, 0
2, 50592, Note_on_c, 0, 79, 88
2, 50686, Note_on_c, 0, 79, 0
2, 50688, Note_on_c, 0, 77, 92
2, 50782, Note_on_c, 0, 77, 0
2, 50784, Note_on_c, 0, 89, 92
2, 50816, Note_on_c, 0, 89, 0
2, 50880, Note_on_c, 0, 89, 92
2, 50912, Note_on_c, 0, 89, 0
2, 50976, Note_on_c, 0, 81, 92
2, 51072, Note_on_c, 0, 81, 0
2, 51072, Note_on_c, 0, 89, 92
2, 51104, Note_on_c, 0, 89, 0
2, 51168, Note_on_c, 0, 89, 92
2, 51200, Note_on_c, 0, 89, 0
2, 51264, Note_on_c, 0, 79, 92
2, 51360, Note_on_c, 0, 79, 0
2, 51360, Note_on_c, 0, 89, 92
2, 51392, Note_on_c, 0, 89, 0
2, 51456, Note_on_c, 0, 89, 92
2, 51488, Note_on_c, 0, 89, 0
2, 51552, Note_on_c, 0, 79, 92
2, 51648, Note_on_c, 0, 79, 0
2, 51648, Note_on_c, 0, 88, 92
2, 51680, Note_on_c, 0, 88, 0
2, 51744, Note_on_c, 0, 88, 92
2, 51776, Note_on_c, 0, 88, 0
2, 51840, Note_on_c, 0, 89, 108
2, 51888, Note_on_c, 0, 89, 0
2, 52128, Note_on_c, 0, 57, 108
2, 52128, Note_on_c, 0, 60, 108
2, 52128, Note_on_c, 0, 65, 108
2, 52288, Note_on_c, 0, 65, 0
2, 52288, Note_on_c, 0, 60, 0
2, 52288, Note_on_c, 0, 57, 0
2, 52416, Note_on_c, 0, 53, 108
2, 52576, Note_on_c, 0, 53, 0
2, 52576, End_track
3, 0, Start_track
3, 0, Title_t, "Reginald Steven Ritchie"
3, 0, Program_c, 1, 0
3, 0, Control_c, 1, 7, 127
3, 0, Control_c, 1, 10, 44
3, 0, Program_c, 1, 0
3, 0, Control_c, 1, 7, 127
3, 0, Control_c, 1, 10, 9
3, 0, Control_c, 1, 91, 84
3, 0, Control_c, 1, 93, 84
3, 0, Note_on_c, 1, 53, 45
3, 0, Note_on_c, 1, 57, 45
3, 94, Note_on_c, 1, 57, 0
3, 96, Note_on_c, 1, 60, 45
3, 190, Note_on_c, 1, 60, 0
3, 192, Note_on_c, 1, 65, 45
3, 286, Note_on_c, 1, 65, 0
3, 288, Note_on_c, 1, 57, 92
3, 336, Note_on_c, 1, 53, 0
3, 382, Note_on_c, 1, 57, 0
3, 384, Note_on_c, 1, 60, 92
3, 478, Note_on_c, 1, 60, 0
3, 480, Note_on_c, 1, 65, 45
3, 574, Note_on_c, 1, 65, 0
3, 576, Note_on_c, 1, 53, 45
3, 576, Note_on_c, 1, 57, 45
3, 670, Note_on_c, 1, 57, 0
3, 672, Note_on_c, 1, 60, 45
3, 766, Note_on_c, 1, 60, 0
3, 768, Note_on_c, 1, 65, 45
3, 862, Note_on_c, 1, 65, 0
3, 864, Note_on_c, 1, 57, 92
3, 912, Note_on_c, 1, 53, 0
3, 958, Note_on_c, 1, 57, 0
3, 960, Note_on_c, 1, 60, 92
3, 1054, Note_on_c, 1, 60, 0
3, 1056, Note_on_c, 1, 65, 45
3, 1150, Note_on_c, 1, 65, 0
3, 1152, Note_on_c, 1, 53, 45
3, 1248, Note_on_c, 1, 53, 0
3, 1248, Note_on_c, 1, 60, 45
3, 1344, Note_on_c, 1, 60, 0
3, 1344, Note_on_c, 1, 57, 45
3, 1440, Note_on_c, 1, 57, 0
3, 1440, Note_on_c, 1, 48, 45
3, 1536, Note_on_c, 1, 48, 0
3, 1536, Note_on_c, 1, 60, 45
3, 1632, Note_on_c, 1, 60, 0
3, 1632, Note_on_c, 1, 58, 45
3, 1728, Note_on_c, 1, 58, 0
3, 1728, Note_on_c, 1, 53, 45
3, 1824, Note_on_c, 1, 53, 0
3, 1824, Note_on_c, 1, 57, 45
3, 1920, Note_on_c, 1, 57, 0
3, 1920, Note_on_c, 1, 60, 45
3, 2016, Note_on_c, 1, 60, 0
3, 2016, Note_on_c, 1, 53, 45
3, 2112, Note_on_c, 1, 53, 0
3, 2112, Note_on_c, 1, 57, 45
3, 2208, Note_on_c, 1, 57, 0
3, 2208, Note_on_c, 1, 60, 45
3, 2302, Note_on_c, 1, 60, 0
3, 2304, Note_on_c, 1, 50, 30
3, 2304, Note_on_c, 1, 54, 30
3, 2398, Note_on_c, 1, 54, 0
3, 2400, Note_on_c, 1, 57, 30
3, 2494, Note_on_c, 1, 57, 0
3, 2496, Note_on_c, 1, 62, 30
3, 2590, Note_on_c, 1, 62, 0
3, 2592, Note_on_c, 1, 54, 30
3, 2686, Note_on_c, 1, 54, 0
3, 2688, Note_on_c, 1, 57, 30
3, 2782, Note_on_c, 1, 57, 0
3, 2784, Note_on_c, 1, 62, 30
3, 2832, Note_on_c, 1, 50, 0
3, 2878, Note_on_c, 1, 62, 0
3, 2880, Note_on_c, 1, 50, 30
3, 2880, Note_on_c, 1, 54, 30
3, 2974, Note_on_c, 1, 54, 0
3, 2976, Note_on_c, 1, 57, 30
3, 3070, Note_on_c, 1, 57, 0
3, 3072, Note_on_c, 1, 62, 30
3, 3166, Note_on_c, 1, 62, 0
3, 3168, Note_on_c, 1, 54, 30
3, 3262, Note_on_c, 1, 54, 0
3, 3264, Note_on_c, 1, 57, 30
3, 3358, Note_on_c, 1, 57, 0
3, 3360, Note_on_c, 1, 62, 30
3, 3408, Note_on_c, 1, 50, 0
3, 3454, Note_on_c, 1, 62, 0
3, 3456, Note_on_c, 1, 50, 30
3, 3456, Note_on_c, 1, 54, 30
3, 3550, Note_on_c, 1, 54, 0
3, 3552, Note_on_c, 1, 57, 30
3, 3646, Note_on_c, 1, 57, 0
3, 3648, Note_on_c, 1, 62, 30
3, 3712, Note_on_c, 1, 50, 0
3, 3742, Note_on_c, 1, 62, 0
3, 3744, Note_on_c, 1, 50, 30
3, 3744, Note_on_c, 1, 55, 30
3, 3838, Note_on_c, 1, 55, 0
3, 3840, Note_on_c, 1, 57, 30
3, 3934, Note_on_c, 1, 57, 0
3, 3936, Note_on_c, 1, 61, 30
3, 4000, Note_on_c, 1, 50, 0
3, 4030, Note_on_c, 1, 61, 0
3, 4032, Note_on_c, 1, 50, 30
3, 4032, Note_on_c, 1, 54, 30
3, 4126, Note_on_c, 1, 54, 0
3, 4128, Note_on_c, 1, 57, 30
3, 4222, Note_on_c, 1, 57, 0
3, 4224, Note_on_c, 1, 53, 30
3, 4288, Note_on_c, 1, 50, 0
3, 4318, Note_on_c, 1, 53, 0
3, 4320, Note_on_c, 1, 52, 30
3, 4320, Note_on_c, 1, 55, 30
3, 4414, Note_on_c, 1, 55, 0
3, 4414, Note_on_c, 1, 52, 0
3, 4416, Note_on_c, 1, 53, 30
3, 4416, Note_on_c, 1, 57, 30
3, 4510, Note_on_c, 1, 57, 0
3, 4510, Note_on_c, 1, 53, 0
3, 4512, Note_on_c, 1, 55, 30
3, 4512, Note_on_c, 1, 58, 30
3, 4606, Note_on_c, 1, 58, 0
3, 4606, Note_on_c, 1, 55, 0
3, 4608, Control_c, 1, 91, 84
3, 4608, Control_c, 1, 93, 84
3, 4608, Note_on_c, 1, 53, 45
3, 4608, Note_on_c, 1, 57, 45
3, 4702, Note_on_c, 1, 57, 0
3, 4704, Note_on_c, 1, 60, 45
3, 4798, Note_on_c, 1, 60, 0
3, 4800, Note_on_c, 1, 65, 45
3, 4894, Note_on_c, 1, 65, 0
3, 4896, Note_on_c, 1, 57, 92
3, 4944, Note_on_c, 1, 53, 0
3, 4990, Note_on_c, 1, 57, 0
3, 4992, Note_on_c, 1, 60, 92
3, 5086, Note_on_c, 1, 60, 0
3, 5088, Note_on_c, 1, 65, 45
3, 5182, Note_on_c, 1, 65, 0
3, 5184, Note_on_c, 1, 53, 45
3, 5184, Note_on_c, 1, 57, 45
3, 5278, Note_on_c, 1, 57, 0
3, 5280, Note_on_c, 1, 60, 45
3, 5374, Note_on_c, 1, 60, 0
3, 5376, Note_on_c, 1, 65, 45
3, 5470, Note_on_c, 1, 65, 0
3, 5472, Note_on_c, 1, 57, 92
3, 5520, Note_on_c, 1, 53, 0
3, 5566, Note_on_c, 1, 57, 0
3, 5568, Note_on_c, 1, 60, 92
3, 5662, Note_on_c, 1, 60, 0
3, 5664, Note_on_c, 1, 65, 45
3, 5758, Note_on_c, 1, 65, 0
3, 5760, Note_on_c, 1, 53, 45
3, 5856, Note_on_c, 1, 53, 0
3, 5856, Note_on_c, 1, 60, 45
3, 5952, Note_on_c, 1, 60, 0
3, 5952, Note_on_c, 1, 57, 45
3, 6048, Note_on_c, 1, 57, 0
3, 6048, Note_on_c, 1, 48, 45
3, 6144, Note_on_c, 1, 48, 0
3, 6144, Note_on_c, 1, 60, 45
3, 6240, Note_on_c, 1, 60, 0
3, 6240, Note_on_c, 1, 58, 45
3, 6336, Note_on_c, 1, 58, 0
3, 6336, Note_on_c, 1, 53, 45
3, 6432, Note_on_c, 1, 53, 0
3, 6432, Note_on_c, 1, 57, 45
3, 6528, Note_on_c, 1, 57, 0
3, 6528, Note_on_c, 1, 60, 45
3, 6624, Note_on_c, 1, 60, 0
3, 6624, Note_on_c, 1, 53, 45
3, 6720, Note_on_c, 1, 53, 0
3, 6720, Note_on_c, 1, 57, 45
3, 6816, Note_on_c, 1, 57, 0
3, 6816, Note_on_c, 1, 60, 45
3, 6910, Note_on_c, 1, 60, 0
3, 6912, Note_on_c, 1, 50, 30
3, 6912, Note_on_c, 1, 54, 30
3, 7006, Note_on_c, 1, 54, 0
3, 7008, Note_on_c, 1, 57, 30
3, 7102, Note_on_c, 1, 57, 0
3, 7104, Note_on_c, 1, 62, 30
3, 7198, Note_on_c, 1, 62, 0
3, 7200, Note_on_c, 1, 54, 30
3, 7294, Note_on_c, 1, 54, 0
3, 7296, Note_on_c, 1, 57, 30
3, 7390, Note_on_c, 1, 57, 0
3, 7392, Note_on_c, 1, 62, 30
3, 7440, Note_on_c, 1, 50, 0
3, 7486, Note_on_c, 1, 62, 0
3, 7488, Note_on_c, 1, 50, 30
3, 7488, Note_on_c, 1, 54, 30
3, 7582, Note_on_c, 1, 54, 0
3, 7584, Note_on_c, 1, 57, 30
3, 7678, Note_on_c, 1, 57, 0
3, 7680, Note_on_c, 1, 62, 30
3, 7774, Note_on_c, 1, 62, 0
3, 7776, Note_on_c, 1, 54, 30
3, 7870, Note_on_c, 1, 54, 0
3, 7872, Note_on_c, 1, 57, 30
3, 7966, Note_on_c, 1, 57, 0
3, 7968, Note_on_c, 1, 62, 30
3, 8016, Note_on_c, 1, 50, 0
3, 8062, Note_on_c, 1, 62, 0
3, 8064, Note_on_c, 1, 50, 30
3, 8064, Note_on_c, 1, 54, 30
3, 8158, Note_on_c, 1, 54, 0
3, 8160, Note_on_c, 1, 57, 30
3, 8254, Note_on_c, 1, 57, 0
3, 8256, Note_on_c, 1, 62, 30
3, 8320, Note_on_c, 1, 50, 0
3, 8350, Note_on_c, 1, 62, 0
3, 8352, Note_on_c, 1, 50, 30
3, 8352, Note_on_c, 1, 55, 30
3, 8446, Note_on_c, 1, 55, 0
3, 8448, Note_on_c, 1, 57, 30
3, 8542, Note_on_c, 1, 57, 0
3, 8544, Note_on_c, 1, 61, 30
3, 8608, Note_on_c, 1, 50, 0
3, 8638, Note_on_c, 1, 61, 0
3, 8640, Note_on_c, 1, 50, 30
3, 8640, Note_on_c, 1, 54, 30
3, 8734, Note_on_c, 1, 54, 0
3, 8736, Note_on_c, 1, 57, 30
3, 8830, Note_on_c, 1, 57, 0
3, 8832, Note_on_c, 1, 53, 30
3, 8896, Note_on_c, 1, 50, 0
3, 8926, Note_on_c, 1, 53, 0
3, 8928, Note_on_c, 1, 52, 30
3, 8928, Note_on_c, 1, 55, 30
3, 9022, Note_on_c, 1, 55, 0
3, 9022, Note_on_c, 1, 52, 0
3, 9024, Note_on_c, 1, 53, 30
3, 9024, Note_on_c, 1, 57, 30
3, 9118, Note_on_c, 1, 57, 0
3, 9118, Note_on_c, 1, 53, 0
3, 9120, Note_on_c, 1, 55, 30
3, 9120, Note_on_c, 1, 58, 30
3, 9214, Note_on_c, 1, 58, 0
3, 9214, Note_on_c, 1, 55, 0
3, 9216, Note_on_c, 1, 50, 30
3, 9216, Note_on_c, 1, 54, 30
3, 9310, Note_on_c, 1, 54, 0
3, 9312, Note_on_c, 1, 57, 32
3, 9406, Note_on_c, 1, 57, 0
3, 9408, Note_on_c, 1, 55, 34
3, 9472, Note_on_c, 1, 50, 0
3, 9502, Note_on_c, 1, 55, 0
3, 9504, Note_on_c, 1, 50, 36
3, 9504, Note_on_c, 1, 53, 36
3, 9598, Note_on_c, 1, 53, 0
3, 9598, Note_on_c, 1, 50, 0
3, 9600, Note_on_c, 1, 52, 39
3, 9600, Note_on_c, 1, 55, 39
3, 9694, Note_on_c, 1, 55, 0
3, 9694, Note_on_c, 1, 52, 0
3, 9696, Note_on_c, 1, 53, 42
3, 9696, Note_on_c, 1, 57, 42
3, 9790, Note_on_c, 1, 57, 0
3, 9790, Note_on_c, 1, 53, 0
3, 9792, Note_on_c, 1, 52, 45
3, 9792, Note_on_c, 1, 55, 45
3, 9886, Note_on_c, 1, 55, 0
3, 9888, Note_on_c, 1, 58, 45
3, 9982, Note_on_c, 1, 58, 0
3, 9984, Note_on_c, 1, 60, 45
3, 10078, Note_on_c, 1, 60, 0
3, 10080, Note_on_c, 1, 55, 75
3, 10174, Note_on_c, 1, 55, 0
3, 10176, Note_on_c, 1, 58, 75
3, 10270, Note_on_c, 1, 58, 0
3, 10272, Note_on_c, 1, 60, 45
3, 10320, Note_on_c, 1, 52, 0
3, 10366, Note_on_c, 1, 60, 0
3, 10368, Note_on_c, 1, 53, 45
3, 10368, Note_on_c, 1, 57, 45
3, 10462, Note_on_c, 1, 57, 0
3, 10462, Note_on_c, 1, 53, 0
3, 10464, Note_on_c, 1, 60, 45
3, 10558, Note_on_c, 1, 60, 0
3, 10560, Note_on_c, 1, 58, 45
3, 10654, Note_on_c, 1, 58, 0
3, 10656, Note_on_c, 1, 57, 75
3, 10750, Note_on_c, 1, 57, 0
3, 10752, Note_on_c, 1, 55, 75
3, 10846, Note_on_c, 1, 55, 0
3, 10848, Note_on_c, 1, 53, 45
3, 10942, Note_on_c, 1, 53, 0
3, 10944, Note_on_c, 1, 52, 45
3, 10944, Note_on_c, 1, 55, 45
3, 11038, Note_on_c, 1, 55, 0
3, 11040, Note_on_c, 1, 58, 45
3, 11134, Note_on_c, 1, 58, 0
3, 11136, Note_on_c, 1, 60, 45
3, 11230, Note_on_c, 1, 60, 0
3, 11232, Note_on_c, 1, 55, 75
3, 11326, Note_on_c, 1, 55, 0
3, 11328, Note_on_c, 1, 58, 75
3, 11422, Note_on_c, 1, 58, 0
3, 11424, Note_on_c, 1, 60, 45
3, 11472, Note_on_c, 1, 52, 0
3, 11518, Note_on_c, 1, 60, 0
3, 11520, Note_on_c, 1, 53, 45
3, 11520, Note_on_c, 1, 57, 45
3, 11614, Note_on_c, 1, 57, 0
3, 11614, Note_on_c, 1, 53, 0
3, 11616, Note_on_c, 1, 60, 52
3, 11710, Note_on_c, 1, 60, 0
3, 11712, Note_on_c, 1, 57, 60
3, 11806, Note_on_c, 1, 57, 0
3, 11808, Note_on_c, 1, 53, 68
3, 11902, Note_on_c, 1, 53, 0
3, 11904, Note_on_c, 1, 48, 76
3, 11998, Note_on_c, 1, 48, 0
3, 12000, Note_on_c, 1, 45, 84
3, 12094, Note_on_c, 1, 45, 0
3, 12096, Note_on_c, 1, 41, 92
3, 12190, Note_on_c, 1, 41, 0
3, 12192, Note_on_c, 1, 57, 92
3, 12286, Note_on_c, 1, 57, 0
3, 12288, Note_on_c, 1, 60, 92
3, 12382, Note_on_c, 1, 60, 0
3, 12384, Note_on_c, 1, 53, 92
3, 12384, Note_on_c, 1, 57, 127
3, 12478, Note_on_c, 1, 57, 0
3, 12480, Note_on_c, 1, 60, 92
3, 12574, Note_on_c, 1, 60, 0
3, 12576, Note_on_c, 1, 65, 92
3, 12640, Note_on_c, 1, 53, 0
3, 12670, Note_on_c, 1, 65, 0
3, 12672, Note_on_c, 1, 53, 45
3, 12672, Note_on_c, 1, 57, 45
3, 12766, Note_on_c, 1, 57, 0
3, 12768, Note_on_c, 1, 60, 45
3, 12862, Note_on_c, 1, 60, 0
3, 12864, Note_on_c, 1, 65, 45
3, 12958, Note_on_c, 1, 65, 0
3, 12960, Note_on_c, 1, 57, 75
3, 13054, Note_on_c, 1, 57, 0
3, 13056, Note_on_c, 1, 60, 75
3, 13150, Note_on_c, 1, 60, 0
3, 13152, Note_on_c, 1, 65, 45
3, 13200, Note_on_c, 1, 53, 0
3, 13246, Note_on_c, 1, 65, 0
3, 13248, Note_on_c, 1, 48, 45
3, 13344, Note_on_c, 1, 48, 0
3, 13344, Note_on_c, 1, 60, 45
3, 13440, Note_on_c, 1, 60, 0
3, 13440, Note_on_c, 1, 57, 45
3, 13536, Note_on_c, 1, 57, 0
3, 13536, Note_on_c, 1, 48, 45
3, 13632, Note_on_c, 1, 48, 0
3, 13632, Note_on_c, 1, 60, 45
3, 13728, Note_on_c, 1, 60, 0
3, 13728, Note_on_c, 1, 58, 45
3, 13824, Note_on_c, 1, 58, 0
3, 13824, Note_on_c, 1, 53, 45
3, 13824, Note_on_c, 1, 57, 45
3, 13920, Note_on_c, 1, 57, 0
3, 13920, Note_on_c, 1, 53, 0
3, 13920, Note_on_c, 1, 60, 45
3, 14016, Note_on_c, 1, 60, 0
3, 14016, Note_on_c, 1, 58, 45
3, 14112, Note_on_c, 1, 58, 0
3, 14112, Note_on_c, 1, 57, 45
3, 14208, Note_on_c, 1, 57, 0
3, 14208, Note_on_c, 1, 55, 45
3, 14304, Note_on_c, 1, 55, 0
3, 14304, Note_on_c, 1, 53, 45
3, 14398, Note_on_c, 1, 53, 0
3, 14400, Note_on_c, 1, 52, 45
3, 14400, Note_on_c, 1, 55, 45
3, 14494, Note_on_c, 1, 55, 0
3, 14496, Note_on_c, 1, 58, 45
3, 14590, Note_on_c, 1, 58, 0
3, 14592, Note_on_c, 1, 60, 45
3, 14686, Note_on_c, 1, 60, 0
3, 14688, Note_on_c, 1, 55, 75
3, 14782, Note_on_c, 1, 55, 0
3, 14784, Note_on_c, 1, 58, 75
3, 14878, Note_on_c, 1, 58, 0
3, 14880, Note_on_c, 1, 60, 45
3, 14928, Note_on_c, 1, 52, 0
3, 14974, Note_on_c, 1, 60, 0
3, 14976, Note_on_c, 1, 53, 45
3, 14976, Note_on_c, 1, 57, 45
3, 15070, Note_on_c, 1, 57, 0
3, 15070, Note_on_c, 1, 53, 0
3, 15072, Note_on_c, 1, 60, 45
3, 15166, Note_on_c, 1, 60, 0
3, 15168, Note_on_c, 1, 58, 45
3, 15262, Note_on_c, 1, 58, 0
3, 15264, Note_on_c, 1, 57, 75
3, 15358, Note_on_c, 1, 57, 0
3, 15360, Note_on_c, 1, 55, 75
3, 15454, Note_on_c, 1, 55, 0
3, 15456, Note_on_c, 1, 53, 45
3, 15550, Note_on_c, 1, 53, 0
3, 15552, Note_on_c, 1, 52, 45
3, 15552, Note_on_c, 1, 55, 45
3, 15646, Note_on_c, 1, 55, 0
3, 15648, Note_on_c, 1, 58, 45
3, 15742, Note_on_c, 1, 58, 0
3, 15744, Note_on_c, 1, 60, 45
3, 15838, Note_on_c, 1, 60, 0
3, 15840, Note_on_c, 1, 55, 75
3, 15934, Note_on_c, 1, 55, 0
3, 15936, Note_on_c, 1, 58, 75
3, 16030, Note_on_c, 1, 58, 0
3, 16032, Note_on_c, 1, 60, 45
3, 16080, Note_on_c, 1, 52, 0
3, 16126, Note_on_c, 1, 60, 0
3, 16128, Note_on_c, 1, 53, 45
3, 16128, Note_on_c, 1, 57, 45
3, 16222, Note_on_c, 1, 57, 0
3, 16222, Note_on_c, 1, 53, 0
3, 16224, Note_on_c, 1, 60, 52
3, 16318, Note_on_c, 1, 60, 0
3, 16320, Note_on_c, 1, 57, 60
3, 16414, Note_on_c, 1, 57, 0
3, 16416, Note_on_c, 1, 53, 68
3, 16510, Note_on_c, 1, 53, 0
3, 16512, Note_on_c, 1, 48, 76
3, 16606, Note_on_c, 1, 48, 0
3, 16608, Note_on_c, 1, 45, 84
3, 16702, Note_on_c, 1, 45, 0
3, 16704, Note_on_c, 1, 41, 92
3, 16798, Note_on_c, 1, 41, 0
3, 16800, Note_on_c, 1, 57, 92
3, 16894, Note_on_c, 1, 57, 0
3, 16896, Note_on_c, 1, 60, 92
3, 16990, Note_on_c, 1, 60, 0
3, 16992, Note_on_c, 1, 53, 92
3, 16992, Note_on_c, 1, 57, 127
3, 17086, Note_on_c, 1, 57, 0
3, 17088, Note_on_c, 1, 60, 92
3, 17182, Note_on_c, 1, 60, 0
3, 17184, Note_on_c, 1, 65, 92
3, 17248, Note_on_c, 1, 53, 0
3, 17278, Note_on_c, 1, 65, 0
3, 17280, Note_on_c, 1, 53, 45
3, 17280, Note_on_c, 1, 57, 45
3, 17374, Note_on_c, 1, 57, 0
3, 17376, Note_on_c, 1, 60, 45
3, 17470, Note_on_c, 1, 60, 0
3, 17472, Note_on_c, 1, 65, 45
3, 17566, Note_on_c, 1, 65, 0
3, 17568, Note_on_c, 1, 57, 75
3, 17662, Note_on_c, 1, 57, 0
3, 17664, Note_on_c, 1, 60, 75
3, 17758, Note_on_c, 1, 60, 0
3, 17760, Note_on_c, 1, 65, 45
3, 17808, Note_on_c, 1, 53, 0
3, 17854, Note_on_c, 1, 65, 0
3, 17856, Note_on_c, 1, 48, 45
3, 17952, Note_on_c, 1, 48, 0
3, 17952, Note_on_c, 1, 60, 45
3, 18048, Note_on_c, 1, 60, 0
3, 18048, Note_on_c, 1, 57, 45
3, 18144, Note_on_c, 1, 57, 0
3, 18144, Note_on_c, 1, 48, 45
3, 18240, Note_on_c, 1, 48, 0
3, 18240, Note_on_c, 1, 60, 45
3, 18336, Note_on_c, 1, 60, 0
3, 18336, Note_on_c, 1, 58, 45
3, 18432, Note_on_c, 1, 58, 0
3, 18432, Note_on_c, 1, 53, 45
3, 18432, Note_on_c, 1, 57, 45
3, 18528, Note_on_c, 1, 57, 0
3, 18528, Note_on_c, 1, 53, 0
3, 18528, Note_on_c, 1, 60, 45
3, 18624, Note_on_c, 1, 60, 0
3, 18624, Note_on_c, 1, 58, 45
3, 18720, Note_on_c, 1, 58, 0
3, 18720, Note_on_c, 1, 57, 45
3, 18816, Note_on_c, 1, 57, 0
3, 18816, Note_on_c, 1, 55, 45
3, 18912, Note_on_c, 1, 55, 0
3, 18912, Note_on_c, 1, 53, 45
3, 19006, Note_on_c, 1, 53, 0
3, 19008, Note_on_c, 1, 53, 45
3, 19008, Note_on_c, 1, 57, 45
3, 19102, Note_on_c, 1, 57, 0
3, 19102, Note_on_c, 1, 53, 0
3, 19104, Note_on_c, 1, 53, 45
3, 19136, Note_on_c, 1, 53, 0
3, 19200, Note_on_c, 1, 53, 45
3, 19232, Note_on_c, 1, 53, 0
3, 19296, Note_on_c, 1, 41, 45
3, 19392, Note_on_c, 1, 41, 0
3, 19392, Note_on_c, 1, 53, 45
3, 19424, Note_on_c, 1, 53, 0
3, 19488, Note_on_c, 1, 53, 45
3, 19520, Note_on_c, 1, 53, 0
3, 19584, Note_on_c, 1, 41, 45
3, 19680, Note_on_c, 1, 41, 0
3, 19680, Note_on_c, 1, 53, 45
3, 19712, Note_on_c, 1, 53, 0
3, 19776, Note_on_c, 1, 53, 45
3, 19808, Note_on_c, 1, 53, 0
3, 19872, Note_on_c, 1, 41, 45
3, 19968, Note_on_c, 1, 41, 0
3, 19968, Note_on_c, 1, 53, 45
3, 20000, Note_on_c, 1, 53, 0
3, 20064, Note_on_c, 1, 53, 45
3, 20096, Note_on_c, 1, 53, 0
3, 20160, Note_on_c, 1, 41, 45
3, 20228, Note_on_c, 1, 41, 0
3, 20256, Note_on_c, 1, 57, 45
3, 20352, Note_on_c, 1, 57, 0
3, 20352, Note_on_c, 1, 53, 45
3, 20448, Note_on_c, 1, 53, 0
3, 20448, Note_on_c, 1, 50, 45
3, 20544, Note_on_c, 1, 50, 0
3, 20544, Note_on_c, 1, 53, 45
3, 20640, Note_on_c, 1, 53, 0
3, 20640, Note_on_c, 1, 50, 45
3, 20736, Note_on_c, 1, 50, 0
3, 20736, Note_on_c, 1, 46, 45
3, 20832, Note_on_c, 1, 46, 0
3, 20832, Note_on_c, 1, 50, 45
3, 20928, Note_on_c, 1, 50, 0
3, 20928, Note_on_c, 1, 46, 45
3, 21024, Note_on_c, 1, 46, 0
3, 21024, Note_on_c, 1, 48, 45
3, 21120, Note_on_c, 1, 48, 0
3, 21120, Note_on_c, 1, 52, 45
3, 21216, Note_on_c, 1, 52, 0
3, 21216, Note_on_c, 1, 48, 45
3, 21312, Note_on_c, 1, 48, 0
3, 21312, Note_on_c, 1, 41, 45
3, 21406, Note_on_c, 1, 41, 0
3, 21408, Note_on_c, 1, 53, 45
3, 21502, Note_on_c, 1, 53, 0
3, 21504, Note_on_c, 1, 53, 45
3, 21536, Note_on_c, 1, 53, 0
3, 21600, Note_on_c, 1, 62, 45
3, 21696, Note_on_c, 1, 62, 0
3, 21696, Note_on_c, 1, 53, 45
3, 21728, Note_on_c, 1, 53, 0
3, 21792, Note_on_c, 1, 53, 45
3, 21824, Note_on_c, 1, 53, 0
3, 21888, Note_on_c, 1, 60, 45
3, 21984, Note_on_c, 1, 60, 0
3, 21984, Note_on_c, 1, 53, 45
3, 22016, Note_on_c, 1, 53, 0
3, 22080, Note_on_c, 1, 53, 45
3, 22112, Note_on_c, 1, 53, 0
3, 22176, Note_on_c, 1, 58, 45
3, 22272, Note_on_c, 1, 58, 0
3, 22272, Note_on_c, 1, 53, 45
3, 22304, Note_on_c, 1, 53, 0
3, 22368, Note_on_c, 1, 53, 45
3, 22400, Note_on_c, 1, 53, 0
3, 22464, Note_on_c, 1, 57, 45
3, 22560, Note_on_c, 1, 57, 0
3, 22560, Note_on_c, 1, 53, 46
3, 22592, Note_on_c, 1, 53, 0
3, 22656, Note_on_c, 1, 53, 47
3, 22688, Note_on_c, 1, 53, 0
3, 22752, Note_on_c, 1, 50, 48
3, 22846, Note_on_c, 1, 50, 0
3, 22848, Note_on_c, 1, 53, 49
3, 22942, Note_on_c, 1, 53, 0
3, 22944, Note_on_c, 1, 50, 50
3, 22976, Note_on_c, 1, 50, 0
3, 23040, Note_on_c, 1, 46, 51
3, 23136, Note_on_c, 1, 46, 0
3, 23136, Note_on_c, 1, 50, 52
3, 23168, Note_on_c, 1, 50, 0
3, 23232, Note_on_c, 1, 46, 53
3, 23264, Note_on_c, 1, 46, 0
3, 23328, Note_on_c, 1, 48, 54
3, 23422, Note_on_c, 1, 48, 0
3, 23424, Note_on_c, 1, 52, 55
3, 23456, Note_on_c, 1, 52, 0
3, 23520, Note_on_c, 1, 48, 56
3, 23552, Note_on_c, 1, 48, 0
3, 23616, Note_on_c, 1, 41, 57
3, 23712, Note_on_c, 1, 41, 0
3, 23712, Note_on_c, 1, 53, 58
3, 23744, Note_on_c, 1, 53, 0
3, 23808, Note_on_c, 1, 52, 59
3, 23902, Note_on_c, 1, 52, 0
3, 23904, Note_on_c, 1, 53, 60
3, 23998, Note_on_c, 1, 53, 0
3, 24000, Note_on_c, 1, 52, 61
3, 24094, Note_on_c, 1, 52, 0
3, 24096, Note_on_c, 1, 53, 62
3, 24192, Note_on_c, 1, 53, 0
3, 24192, Note_on_c, 1, 50, 63
3, 24288, Note_on_c, 1, 50, 0
3, 24288, Note_on_c, 1, 52, 65
3, 24384, Note_on_c, 1, 52, 0
3, 24384, Note_on_c, 1, 53, 67
3, 24480, Note_on_c, 1, 53, 0
3, 24480, Note_on_c, 1, 55, 69
3, 24576, Note_on_c, 1, 55, 0
3, 24576, Note_on_c, 1, 53, 71
3, 24672, Note_on_c, 1, 53, 0
3, 24672, Note_on_c, 1, 55, 73
3, 24768, Note_on_c, 1, 55, 0
3, 24768, Note_on_c, 1, 52, 75
3, 24862, Note_on_c, 1, 52, 0
3, 24864, Note_on_c, 1, 64, 75
3, 24958, Note_on_c, 1, 64, 0
3, 24960, Note_on_c, 1, 60, 75
3, 25054, Note_on_c, 1, 60, 0
3, 25056, Note_on_c, 1, 57, 75
3, 25150, Note_on_c, 1, 57, 0
3, 25152, Note_on_c, 1, 60, 75
3, 25246, Note_on_c, 1, 60, 0
3, 25248, Note_on_c, 1, 57, 75
3, 25342, Note_on_c, 1, 57, 0
3, 25344, Note_on_c, 1, 53, 75
3, 25438, Note_on_c, 1, 53, 0
3, 25440, Note_on_c, 1, 57, 75
3, 25534, Note_on_c, 1, 57, 0
3, 25536, Note_on_c, 1, 53, 75
3, 25630, Note_on_c, 1, 53, 0
3, 25632, Note_on_c, 1, 55, 75
3, 25726, Note_on_c, 1, 55, 0
3, 25728, Note_on_c, 1, 59, 75
3, 25822, Note_on_c, 1, 59, 0
3, 25824, Note_on_c, 1, 55, 75
3, 25918, Note_on_c, 1, 55, 0
3, 25920, Note_on_c, 1, 48, 92
3, 26014, Note_on_c, 1, 48, 0
3, 26016, Note_on_c, 1, 52, 92
3, 26110, Note_on_c, 1, 52, 0
3, 26112, Note_on_c, 1, 48, 92
3, 26206, Note_on_c, 1, 48, 0
3, 26208, Note_on_c, 1, 45, 92
3, 26302, Note_on_c, 1, 45, 0
3, 26304, Note_on_c, 1, 48, 92
3, 26398, Note_on_c, 1, 48, 0
3, 26400, Note_on_c, 1, 45, 92
3, 26494, Note_on_c, 1, 45, 0
3, 26496, Note_on_c, 1, 41, 92
3, 26590, Note_on_c, 1, 41, 0
3, 26592, Note_on_c, 1, 45, 92
3, 26686, Note_on_c, 1, 45, 0
3, 26688, Note_on_c, 1, 41, 92
3, 26782, Note_on_c, 1, 41, 0
3, 26784, Note_on_c, 1, 43, 92
3, 26878, Note_on_c, 1, 43, 0
3, 26880, Note_on_c, 1, 47, 92
3, 26974, Note_on_c, 1, 47, 0
3, 26976, Note_on_c, 1, 43, 92
3, 27070, Note_on_c, 1, 43, 0
3, 27072, Note_on_c, 1, 48, 92
3, 27232, Note_on_c, 1, 48, 0
3, 28224, Note_on_c, 1, 53, 45
3, 28224, Note_on_c, 1, 57, 45
3, 28320, Note_on_c, 1, 57, 0
3, 28320, Note_on_c, 1, 60, 45
3, 28416, Note_on_c, 1, 60, 0
3, 28416, Note_on_c, 1, 65, 45
3, 28512, Note_on_c, 1, 65, 0
3, 28512, Note_on_c, 1, 57, 75
3, 28608, Note_on_c, 1, 57, 0
3, 28608, Note_on_c, 1, 60, 75
3, 28704, Note_on_c, 1, 60, 0
3, 28704, Note_on_c, 1, 65, 45
3, 28752, Note_on_c, 1, 53, 0
3, 28800, Note_on_c, 1, 65, 0
3, 28800, Note_on_c, 1, 53, 45
3, 28800, Note_on_c, 1, 57, 45
3, 28896, Note_on_c, 1, 57, 0
3, 28896, Note_on_c, 1, 60, 45
3, 28992, Note_on_c, 1, 60, 0
3, 28992, Note_on_c, 1, 65, 45
3, 29088, Note_on_c, 1, 65, 0
3, 29088, Note_on_c, 1, 57, 75
3, 29184, Note_on_c, 1, 57, 0
3, 29184, Note_on_c, 1, 60, 75
3, 29280, Note_on_c, 1, 60, 0
3, 29280, Note_on_c, 1, 65, 45
3, 29328, Note_on_c, 1, 53, 0
3, 29374, Note_on_c, 1, 65, 0
3, 29376, Note_on_c, 1, 53, 45
3, 29472, Note_on_c, 1, 53, 0
3, 29472, Note_on_c, 1, 60, 45
3, 29568, Note_on_c, 1, 60, 0
3, 29568, Note_on_c, 1, 57, 45
3, 29664, Note_on_c, 1, 57, 0
3, 29664, Note_on_c, 1, 48, 45
3, 29760, Note_on_c, 1, 48, 0
3, 29760, Note_on_c, 1, 60, 45
3, 29856, Note_on_c, 1, 60, 0
3, 29856, Note_on_c, 1, 58, 45
3, 29952, Note_on_c, 1, 58, 0
3, 29952, Note_on_c, 1, 53, 45
3, 30048, Note_on_c, 1, 53, 0
3, 30048, Note_on_c, 1, 57, 45
3, 30144, Note_on_c, 1, 57, 0
3, 30144, Note_on_c, 1, 60, 45
3, 30238, Note_on_c, 1, 60, 0
3, 30240, Note_on_c, 1, 53, 45
3, 30334, Note_on_c, 1, 53, 0
3, 30336, Note_on_c, 1, 57, 45
3, 30430, Note_on_c, 1, 57, 0
3, 30432, Note_on_c, 1, 60, 45
3, 30526, Note_on_c, 1, 60, 0
3, 30528, Note_on_c, 1, 50, 30
3, 30528, Note_on_c, 1, 54, 30
3, 30624, Note_on_c, 1, 54, 0
3, 30624, Note_on_c, 1, 57, 30
3, 30720, Note_on_c, 1, 57, 0
3, 30720, Note_on_c, 1, 62, 30
3, 30816, Note_on_c, 1, 62, 0
3, 30816, Note_on_c, 1, 54, 30
3, 30912, Note_on_c, 1, 54, 0
3, 30912, Note_on_c, 1, 57, 30
3, 31008, Note_on_c, 1, 57, 0
3, 31008, Note_on_c, 1, 62, 30
3, 31056, Note_on_c, 1, 50, 0
3, 31104, Note_on_c, 1, 62, 0
3, 31104, Note_on_c, 1, 50, 30
3, 31104, Note_on_c, 1, 54, 30
3, 31200, Note_on_c, 1, 54, 0
3, 31200, Note_on_c, 1, 57, 30
3, 31296, Note_on_c, 1, 57, 0
3, 31296, Note_on_c, 1, 62, 30
3, 31392, Note_on_c, 1, 62, 0
3, 31392, Note_on_c, 1, 54, 30
3, 31488, Note_on_c, 1, 54, 0
3, 31488, Note_on_c, 1, 57, 30
3, 31584, Note_on_c, 1, 57, 0
3, 31584, Note_on_c, 1, 62, 30
3, 31632, Note_on_c, 1, 50, 0
3, 31678, Note_on_c, 1, 62, 0
3, 31680, Note_on_c, 1, 50, 30
3, 31680, Note_on_c, 1, 54, 30
3, 31774, Note_on_c, 1, 54, 0
3, 31776, Note_on_c, 1, 57, 30
3, 31870, Note_on_c, 1, 57, 0
3, 31872, Note_on_c, 1, 62, 30
3, 31936, Note_on_c, 1, 50, 0
3, 31966, Note_on_c, 1, 62, 0
3, 31968, Note_on_c, 1, 50, 30
3, 31968, Note_on_c, 1, 55, 30
3, 32062, Note_on_c, 1, 55, 0
3, 32064, Note_on_c, 1, 57, 30
3, 32158, Note_on_c, 1, 57, 0
3, 32160, Note_on_c, 1, 61, 30
3, 32224, Note_on_c, 1, 50, 0
3, 32254, Note_on_c, 1, 61, 0
3, 32256, Note_on_c, 1, 50, 30
3, 32256, Note_on_c, 1, 54, 30
3, 32350, Note_on_c, 1, 54, 0
3, 32352, Note_on_c, 1, 57, 32
3, 32446, Note_on_c, 1, 57, 0
3, 32448, Note_on_c, 1, 53, 34
3, 32512, Note_on_c, 1, 50, 0
3, 32542, Note_on_c, 1, 53, 0
3, 32544, Note_on_c, 1, 52, 36
3, 32544, Note_on_c, 1, 55, 36
3, 32638, Note_on_c, 1, 55, 0
3, 32638, Note_on_c, 1, 52, 0
3, 32640, Note_on_c, 1, 53, 39
3, 32640, Note_on_c, 1, 57, 39
3, 32734, Note_on_c, 1, 57, 0
3, 32734, Note_on_c, 1, 53, 0
3, 32736, Note_on_c, 1, 55, 42
3, 32736, Note_on_c, 1, 58, 42
3, 32830, Note_on_c, 1, 58, 0
3, 32830, Note_on_c, 1, 55, 0
3, 32832, Note_on_c, 1, 53, 45
3, 32832, Note_on_c, 1, 57, 45
3, 32926, Note_on_c, 1, 57, 0
3, 32928, Note_on_c, 1, 60, 45
3, 33022, Note_on_c, 1, 60, 0
3, 33024, Note_on_c, 1, 65, 45
3, 33118, Note_on_c, 1, 65, 0
3, 33120, Note_on_c, 1, 57, 75
3, 33214, Note_on_c, 1, 57, 0
3, 33216, Note_on_c, 1, 60, 75
3, 33310, Note_on_c, 1, 60, 0
3, 33312, Note_on_c, 1, 65, 45
3, 33360, Note_on_c, 1, 53, 0
3, 33406, Note_on_c, 1, 65, 0
3, 33408, Note_on_c, 1, 53, 45
3, 33408, Note_on_c, 1, 57, 45
3, 33502, Note_on_c, 1, 57, 0
3, 33504, Note_on_c, 1, 60, 45
3, 33598, Note_on_c, 1, 60, 0
3, 33600, Note_on_c, 1, 65, 45
3, 33694, Note_on_c, 1, 65, 0
3, 33696, Note_on_c, 1, 57, 75
3, 33790, Note_on_c, 1, 57, 0
3, 33792, Note_on_c, 1, 60, 75
3, 33886, Note_on_c, 1, 60, 0
3, 33888, Note_on_c, 1, 62, 45
3, 33936, Note_on_c, 1, 53, 0
3, 33982, Note_on_c, 1, 62, 0
3, 33984, Note_on_c, 1, 53, 45
3, 34080, Note_on_c, 1, 53, 0
3, 34080, Note_on_c, 1, 60, 45
3, 34176, Note_on_c, 1, 60, 0
3, 34176, Note_on_c, 1, 57, 45
3, 34272, Note_on_c, 1, 57, 0
3, 34272, Note_on_c, 1, 48, 45
3, 34368, Note_on_c, 1, 48, 0
3, 34368, Note_on_c, 1, 60, 45
3, 34464, Note_on_c, 1, 60, 0
3, 34464, Note_on_c, 1, 58, 45
3, 34560, Note_on_c, 1, 58, 0
3, 34560, Note_on_c, 1, 53, 45
3, 34656, Note_on_c, 1, 53, 0
3, 34656, Note_on_c, 1, 57, 45
3, 34752, Note_on_c, 1, 57, 0
3, 34752, Note_on_c, 1, 60, 45
3, 34848, Note_on_c, 1, 60, 0
3, 34848, Note_on_c, 1, 53, 45
3, 34944, Note_on_c, 1, 53, 0
3, 34944, Note_on_c, 1, 57, 45
3, 35040, Note_on_c, 1, 57, 0
3, 35040, Note_on_c, 1, 60, 45
3, 35134, Note_on_c, 1, 60, 0
3, 35136, Note_on_c, 1, 50, 30
3, 35136, Note_on_c, 1, 54, 30
3, 35230, Note_on_c, 1, 54, 0
3, 35232, Note_on_c, 1, 57, 30
3, 35326, Note_on_c, 1, 57, 0
3, 35328, Note_on_c, 1, 62, 30
3, 35422, Note_on_c, 1, 62, 0
3, 35424, Note_on_c, 1, 54, 30
3, 35518, Note_on_c, 1, 54, 0
3, 35520, Note_on_c, 1, 57, 30
3, 35614, Note_on_c, 1, 57, 0
3, 35616, Note_on_c, 1, 62, 30
3, 35664, Note_on_c, 1, 50, 0
3, 35710, Note_on_c, 1, 62, 0
3, 35712, Note_on_c, 1, 50, 30
3, 35712, Note_on_c, 1, 54, 30
3, 35806, Note_on_c, 1, 54, 0
3, 35808, Note_on_c, 1, 57, 30
3, 35902, Note_on_c, 1, 57, 0
3, 35904, Note_on_c, 1, 62, 30
3, 35998, Note_on_c, 1, 62, 0
3, 36000, Note_on_c, 1, 54, 30
3, 36094, Note_on_c, 1, 54, 0
3, 36096, Note_on_c, 1, 57, 30
3, 36190, Note_on_c, 1, 57, 0
3, 36192, Note_on_c, 1, 62, 30
3, 36240, Note_on_c, 1, 50, 0
3, 36286, Note_on_c, 1, 62, 0
3, 36288, Note_on_c, 1, 50, 30
3, 36288, Note_on_c, 1, 54, 30
3, 36382, Note_on_c, 1, 54, 0
3, 36384, Note_on_c, 1, 57, 30
3, 36478, Note_on_c, 1, 57, 0
3, 36480, Note_on_c, 1, 62, 30
3, 36544, Note_on_c, 1, 50, 0
3, 36574, Note_on_c, 1, 62, 0
3, 36576, Note_on_c, 1, 50, 30
3, 36576, Note_on_c, 1, 55, 30
3, 36670, Note_on_c, 1, 55, 0
3, 36672, Note_on_c, 1, 57, 30
3, 36766, Note_on_c, 1, 57, 0
3, 36768, Note_on_c, 1, 61, 30
3, 36832, Note_on_c, 1, 50, 0
3, 36862, Note_on_c, 1, 61, 0
3, 36864, Note_on_c, 1, 50, 30
3, 36864, Note_on_c, 1, 54, 30
3, 36958, Note_on_c, 1, 54, 0
3, 36960, Note_on_c, 1, 57, 32
3, 37054, Note_on_c, 1, 57, 0
3, 37056, Note_on_c, 1, 55, 34
3, 37120, Note_on_c, 1, 50, 0
3, 37150, Note_on_c, 1, 55, 0
3, 37152, Note_on_c, 1, 50, 36
3, 37152, Note_on_c, 1, 53, 36
3, 37246, Note_on_c, 1, 53, 0
3, 37246, Note_on_c, 1, 50, 0
3, 37248, Note_on_c, 1, 52, 39
3, 37248, Note_on_c, 1, 55, 39
3, 37342, Note_on_c, 1, 55, 0
3, 37342, Note_on_c, 1, 52, 0
3, 37344, Note_on_c, 1, 53, 42
3, 37344, Note_on_c, 1, 57, 42
3, 37438, Note_on_c, 1, 57, 0
3, 37438, Note_on_c, 1, 53, 0
3, 37440, Note_on_c, 1, 52, 45
3, 37440, Note_on_c, 1, 55, 45
3, 37536, Note_on_c, 1, 55, 0
3, 37536, Note_on_c, 1, 58, 45
3, 37632, Note_on_c, 1, 58, 0
3, 37632, Note_on_c, 1, 60, 45
3, 37728, Note_on_c, 1, 60, 0
3, 37728, Note_on_c, 1, 55, 45
3, 37824, Note_on_c, 1, 55, 0
3, 37824, Note_on_c, 1, 58, 45
3, 37920, Note_on_c, 1, 58, 0
3, 37920, Note_on_c, 1, 60, 45
3, 37968, Note_on_c, 1, 52, 0
3, 38016, Note_on_c, 1, 60, 0
3, 38016, Note_on_c, 1, 53, 45
3, 38016, Note_on_c, 1, 57, 45
3, 38112, Note_on_c, 1, 57, 0
3, 38112, Note_on_c, 1, 53, 0
3, 38112, Note_on_c, 1, 60, 45
3, 38208, Note_on_c, 1, 60, 0
3, 38208, Note_on_c, 1, 58, 45
3, 38304, Note_on_c, 1, 58, 0
3, 38304, Note_on_c, 1, 57, 45
3, 38400, Note_on_c, 1, 57, 0
3, 38400, Note_on_c, 1, 55, 45
3, 38496, Note_on_c, 1, 55, 0
3, 38496, Note_on_c, 1, 53, 45
3, 38590, Note_on_c, 1, 53, 0
3, 38592, Note_on_c, 1, 52, 45
3, 38592, Note_on_c, 1, 55, 45
3, 38688, Note_on_c, 1, 55, 0
3, 38688, Note_on_c, 1, 58, 45
3, 38784, Note_on_c, 1, 58, 0
3, 38784, Note_on_c, 1, 60, 45
3, 38880, Note_on_c, 1, 60, 0
3, 38880, Note_on_c, 1, 55, 63
3, 38976, Note_on_c, 1, 55, 0
3, 38976, Note_on_c, 1, 58, 63
3, 39072, Note_on_c, 1, 58, 0
3, 39072, Note_on_c, 1, 60, 45
3, 39120, Note_on_c, 1, 52, 0
3, 39168, Note_on_c, 1, 60, 0
3, 39168, Note_on_c, 1, 53, 45
3, 39168, Note_on_c, 1, 57, 45
3, 39264, Note_on_c, 1, 57, 0
3, 39264, Note_on_c, 1, 53, 0
3, 39264, Note_on_c, 1, 60, 50
3, 39360, Note_on_c, 1, 60, 0
3, 39360, Note_on_c, 1, 57, 55
3, 39456, Note_on_c, 1, 57, 0
3, 39456, Note_on_c, 1, 53, 60
3, 39552, Note_on_c, 1, 53, 0
3, 39552, Note_on_c, 1, 48, 65
3, 39648, Note_on_c, 1, 48, 0
3, 39648, Note_on_c, 1, 45, 70
3, 39744, Note_on_c, 1, 45, 0
3, 39744, Note_on_c, 1, 41, 75
3, 39838, Note_on_c, 1, 41, 0
3, 39840, Note_on_c, 1, 57, 75
3, 39934, Note_on_c, 1, 57, 0
3, 39936, Note_on_c, 1, 60, 75
3, 40030, Note_on_c, 1, 60, 0
3, 40032, Note_on_c, 1, 53, 75
3, 40032, Note_on_c, 1, 57, 105
3, 40126, Note_on_c, 1, 57, 0
3, 40128, Note_on_c, 1, 60, 105
3, 40222, Note_on_c, 1, 60, 0
3, 40224, Note_on_c, 1, 65, 45
3, 40288, Note_on_c, 1, 53, 0
3, 40318, Note_on_c, 1, 65, 0
3, 40320, Note_on_c, 1, 53, 45
3, 40320, Note_on_c, 1, 57, 45
3, 40414, Note_on_c, 1, 57, 0
3, 40416, Note_on_c, 1, 60, 45
3, 40510, Note_on_c, 1, 60, 0
3, 40512, Note_on_c, 1, 65, 45
3, 40606, Note_on_c, 1, 65, 0
3, 40608, Note_on_c, 1, 57, 75
3, 40702, Note_on_c, 1, 57, 0
3, 40704, Note_on_c, 1, 60, 75
3, 40798, Note_on_c, 1, 60, 0
3, 40800, Note_on_c, 1, 65, 45
3, 40848, Note_on_c, 1, 53, 0
3, 40894, Note_on_c, 1, 65, 0
3, 40896, Note_on_c, 1, 48, 45
3, 40992, Note_on_c, 1, 48, 0
3, 40992, Note_on_c, 1, 60, 45
3, 41088, Note_on_c, 1, 60, 0
3, 41088, Note_on_c, 1, 57, 45
3, 41184, Note_on_c, 1, 57, 0
3, 41184, Note_on_c, 1, 48, 45
3, 41280, Note_on_c, 1, 48, 0
3, 41280, Note_on_c, 1, 60, 45
3, 41376, Note_on_c, 1, 60, 0
3, 41376, Note_on_c, 1, 58, 45
3, 41472, Note_on_c, 1, 58, 0
3, 41472, Note_on_c, 1, 53, 45
3, 41472, Note_on_c, 1, 57, 45
3, 41568, Note_on_c, 1, 57, 0
3, 41568, Note_on_c, 1, 53, 0
3, 41568, Note_on_c, 1, 60, 45
3, 41664, Note_on_c, 1, 60, 0
3, 41664, Note_on_c, 1, 58, 45
3, 41760, Note_on_c, 1, 58, 0
3, 41760, Note_on_c, 1, 57, 45
3, 41856, Note_on_c, 1, 57, 0
3, 41856, Note_on_c, 1, 55, 45
3, 41952, Note_on_c, 1, 55, 0
3, 41952, Note_on_c, 1, 53, 45
3, 42046, Note_on_c, 1, 53, 0
3, 42048, Note_on_c, 1, 52, 45
3, 42048, Note_on_c, 1, 55, 45
3, 42144, Note_on_c, 1, 55, 0
3, 42144, Note_on_c, 1, 58, 45
3, 42240, Note_on_c, 1, 58, 0
3, 42240, Note_on_c, 1, 60, 45
3, 42336, Note_on_c, 1, 60, 0
3, 42336, Note_on_c, 1, 55, 75
3, 42432, Note_on_c, 1, 55, 0
3, 42432, Note_on_c, 1, 58, 75
3, 42528, Note_on_c, 1, 58, 0
3, 42528, Note_on_c, 1, 60, 45
3, 42576, Note_on_c, 1, 52, 0
3, 42624, Note_on_c, 1, 60, 0
3, 42624, Note_on_c, 1, 53, 45
3, 42624, Note_on_c, 1, 57, 45
3, 42720, Note_on_c, 1, 57, 0
3, 42720, Note_on_c, 1, 53, 0
3, 42720, Note_on_c, 1, 60, 45
3, 42816, Note_on_c, 1, 60, 0
3, 42816, Note_on_c, 1, 58, 45
3, 42912, Note_on_c, 1, 58, 0
3, 42912, Note_on_c, 1, 57, 75
3, 43008, Note_on_c, 1, 57, 0
3, 43008, Note_on_c, 1, 55, 75
3, 43104, Note_on_c, 1, 55, 0
3, 43104, Note_on_c, 1, 53, 45
3, 43198, Note_on_c, 1, 53, 0
3, 43200, Note_on_c, 1, 52, 45
3, 43200, Note_on_c, 1, 55, 45
3, 43296, Note_on_c, 1, 55, 0
3, 43296, Note_on_c, 1, 58, 47
3, 43392, Note_on_c, 1, 58, 0
3, 43392, Note_on_c, 1, 60, 49
3, 43488, Note_on_c, 1, 60, 0
3, 43488, Note_on_c, 1, 55, 51
3, 43584, Note_on_c, 1, 55, 0
3, 43584, Note_on_c, 1, 58, 53
3, 43680, Note_on_c, 1, 58, 0
3, 43680, Note_on_c, 1, 60, 55
3, 43728, Note_on_c, 1, 52, 0
3, 43776, Note_on_c, 1, 60, 0
3, 43776, Note_on_c, 1, 53, 57
3, 43776, Note_on_c, 1, 57, 57
3, 43872, Note_on_c, 1, 57, 0
3, 43872, Note_on_c, 1, 53, 0
3, 43872, Note_on_c, 1, 60, 60
3, 43968, Note_on_c, 1, 60, 0
3, 43968, Note_on_c, 1, 57, 63
3, 44064, Note_on_c, 1, 57, 0
3, 44064, Note_on_c, 1, 53, 66
3, 44160, Note_on_c, 1, 53, 0
3, 44160, Note_on_c, 1, 48, 69
3, 44256, Note_on_c, 1, 48, 0
3, 44256, Note_on_c, 1, 45, 72
3, 44350, Note_on_c, 1, 45, 0
3, 44352, Note_on_c, 1, 41, 75
3, 44448, Note_on_c, 1, 41, 0
3, 44448, Note_on_c, 1, 57, 75
3, 44544, Note_on_c, 1, 57, 0
3, 44544, Note_on_c, 1, 60, 75
3, 44640, Note_on_c, 1, 60, 0
3, 44640, Note_on_c, 1, 53, 92
3, 44640, Note_on_c, 1, 57, 92
3, 44736, Note_on_c, 1, 57, 0
3, 44736, Note_on_c, 1, 60, 92
3, 44832, Note_on_c, 1, 60, 0
3, 44832, Note_on_c, 1, 65, 75
3, 44896, Note_on_c, 1, 53, 0
3, 44928, Note_on_c, 1, 65, 0
3, 44928, Note_on_c, 1, 53, 75
3, 44928, Note_on_c, 1, 57, 75
3, 45024, Note_on_c, 1, 57, 0
3, 45024, Note_on_c, 1, 60, 75
3, 45120, Note_on_c, 1, 60, 0
3, 45120, Note_on_c, 1, 65, 75
3, 45216, Note_on_c, 1, 65, 0
3, 45216, Note_on_c, 1, 57, 92
3, 45312, Note_on_c, 1, 57, 0
3, 45312, Note_on_c, 1, 60, 92
3, 45408, Note_on_c, 1, 60, 0
3, 45408, Note_on_c, 1, 65, 75
3, 45456, Note_on_c, 1, 53, 0
3, 45502, Note_on_c, 1, 65, 0
3, 45504, Note_on_c, 1, 48, 75
3, 45600, Note_on_c, 1, 48, 0
3, 45600, Note_on_c, 1, 60, 75
3, 45696, Note_on_c, 1, 60, 0
3, 45696, Note_on_c, 1, 57, 75
3, 45792, Note_on_c, 1, 57, 0
3, 45792, Note_on_c, 1, 48, 75
3, 45888, Note_on_c, 1, 48, 0
3, 45888, Note_on_c, 1, 60, 75
3, 45984, Note_on_c, 1, 60, 0
3, 45984, Note_on_c, 1, 58, 75
3, 46080, Note_on_c, 1, 58, 0
3, 46080, Note_on_c, 1, 53, 30
3, 46080, Note_on_c, 1, 57, 30
3, 46112, Note_on_c, 1, 57, 0
3, 46112, Note_on_c, 1, 53, 0
3, 46176, Note_on_c, 1, 53, 30
3, 46208, Note_on_c, 1, 53, 0
3, 46272, Note_on_c, 1, 53, 30
3, 46304, Note_on_c, 1, 53, 0
3, 46368, Note_on_c, 1, 41, 30
3, 46464, Note_on_c, 1, 41, 0
3, 46464, Note_on_c, 1, 53, 30
3, 46496, Note_on_c, 1, 53, 0
3, 46560, Note_on_c, 1, 53, 30
3, 46592, Note_on_c, 1, 53, 0
3, 46656, Note_on_c, 1, 41, 30
3, 46752, Note_on_c, 1, 41, 0
3, 46752, Note_on_c, 1, 53, 30
3, 46784, Note_on_c, 1, 53, 0
3, 46848, Note_on_c, 1, 53, 30
3, 46880, Note_on_c, 1, 53, 0
3, 46944, Note_on_c, 1, 41, 30
3, 47040, Note_on_c, 1, 41, 0
3, 47040, Note_on_c, 1, 53, 30
3, 47072, Note_on_c, 1, 53, 0
3, 47136, Note_on_c, 1, 53, 30
3, 47168, Note_on_c, 1, 53, 0
3, 47232, Note_on_c, 1, 41, 30
3, 47264, Note_on_c, 1, 41, 0
3, 47328, Note_on_c, 1, 57, 30
3, 47422, Note_on_c, 1, 57, 0
3, 47424, Note_on_c, 1, 53, 30
3, 47518, Note_on_c, 1, 53, 0
3, 47520, Note_on_c, 1, 50, 30
3, 47614, Note_on_c, 1, 50, 0
3, 47616, Note_on_c, 1, 53, 30
3, 47710, Note_on_c, 1, 53, 0
3, 47712, Note_on_c, 1, 50, 30
3, 47806, Note_on_c, 1, 50, 0
3, 47808, Note_on_c, 1, 46, 30
3, 47902, Note_on_c, 1, 46, 0
3, 47904, Note_on_c, 1, 50, 30
3, 47998, Note_on_c, 1, 50, 0
3, 48000, Note_on_c, 1, 46, 30
3, 48094, Note_on_c, 1, 46, 0
3, 48096, Note_on_c, 1, 48, 30
3, 48190, Note_on_c, 1, 48, 0
3, 48192, Note_on_c, 1, 52, 30
3, 48286, Note_on_c, 1, 52, 0
3, 48288, Note_on_c, 1, 48, 30
3, 48382, Note_on_c, 1, 48, 0
3, 48384, Note_on_c, 1, 41, 30
3, 48480, Note_on_c, 1, 41, 0
3, 48480, Note_on_c, 1, 53, 30
3, 48512, Note_on_c, 1, 53, 0
3, 48576, Note_on_c, 1, 53, 30
3, 48608, Note_on_c, 1, 53, 0
3, 48672, Note_on_c, 1, 62, 30
3, 48768, Note_on_c, 1, 62, 0
3, 48768, Note_on_c, 1, 53, 30
3, 48800, Note_on_c, 1, 53, 0
3, 48864, Note_on_c, 1, 53, 30
3, 48896, Note_on_c, 1, 53, 0
3, 48960, Note_on_c, 1, 60, 30
3, 49056, Note_on_c, 1, 60, 0
3, 49056, Note_on_c, 1, 53, 30
3, 49088, Note_on_c, 1, 53, 0
3, 49152, Note_on_c, 1, 53, 30
3, 49184, Note_on_c, 1, 53, 0
3, 49248, Note_on_c, 1, 58, 30
3, 49344, Note_on_c, 1, 58, 0
3, 49344, Note_on_c, 1, 53, 30
3, 49376, Note_on_c, 1, 53, 0
3, 49440, Note_on_c, 1, 53, 30
3, 49472, Note_on_c, 1, 53, 0
3, 49536, Note_on_c, 1, 57, 30
3, 49632, Note_on_c, 1, 57, 0
3, 49632, Note_on_c, 1, 53, 33
3, 49664, Note_on_c, 1, 53, 0
3, 49728, Note_on_c, 1, 53, 36
3, 49760, Note_on_c, 1, 53, 0
3, 49824, Note_on_c, 1, 50, 39
3, 49920, Note_on_c, 1, 50, 0
3, 49920, Note_on_c, 1, 53, 43
3, 50016, Note_on_c, 1, 53, 0
3, 50016, Note_on_c, 1, 50, 47
3, 50112, Note_on_c, 1, 50, 0
3, 50112, Note_on_c, 1, 46, 51
3, 50208, Note_on_c, 1, 46, 0
3, 50208, Note_on_c, 1, 50, 55
3, 50304, Note_on_c, 1, 50, 0
3, 50304, Note_on_c, 1, 46, 59
3, 50400, Note_on_c, 1, 46, 0
3, 50400, Note_on_c, 1, 48, 63
3, 50496, Note_on_c, 1, 48, 0
3, 50496, Note_on_c, 1, 52, 67
3, 50592, Note_on_c, 1, 52, 0
3, 50592, Note_on_c, 1, 48, 71
3, 50688, Note_on_c, 1, 48, 0
3, 50688, Note_on_c, 1, 41, 75
3, 50782, Note_on_c, 1, 41, 0
3, 50784, Note_on_c, 1, 45, 75
3, 50880, Note_on_c, 1, 45, 0
3, 50880, Note_on_c, 1, 41, 75
3, 50976, Note_on_c, 1, 41, 0
3, 50976, Note_on_c, 1, 38, 75
3, 51072, Note_on_c, 1, 38, 0
3, 51072, Note_on_c, 1, 41, 75
3, 51168, Note_on_c, 1, 41, 0
3, 51168, Note_on_c, 1, 38, 75
3, 51264, Note_on_c, 1, 38, 0
3, 51264, Note_on_c, 1, 34, 75
3, 51360, Note_on_c, 1, 34, 0
3, 51360, Note_on_c, 1, 38, 75
3, 51456, Note_on_c, 1, 38, 0
3, 51456, Note_on_c, 1, 34, 75
3, 51552, Note_on_c, 1, 34, 0
3, 51552, Note_on_c, 1, 36, 75
3, 51648, Note_on_c, 1, 36, 0
3, 51648, Note_on_c, 1, 35, 75
3, 51744, Note_on_c, 1, 35, 0
3, 51744, Note_on_c, 1, 36, 75
3, 51840, Note_on_c, 1, 36, 0
3, 51840, Note_on_c, 1, 29, 75
3, 51934, Note_on_c, 1, 29, 0
3, 51936, Note_on_c, 1, 33, 75
3, 52030, Note_on_c, 1, 33, 0
3, 52032, Note_on_c, 1, 36, 75
3, 52126, Note_on_c, 1, 36, 0
3, 52128, Note_on_c, 1, 29, 75
3, 52222, Note_on_c, 1, 29, 0
3, 52224, Note_on_c, 1, 33, 75
3, 52318, Note_on_c, 1, 33, 0
3, 52320, Note_on_c, 1, 36, 75
3, 52414, Note_on_c, 1, 36, 0
3, 52416, Note_on_c, 1, 29, 75
3, 52576, Note_on_c, 1, 29, 0
3, 52576, End_track
4, 0, Start_track
4, 0, End_track
0, 0, End_of_file