0, 0, Header, 1, 5, 192
1, 0, Start_track
1, 0, Title_t, "String Quartet No.16 - III"
1, 0, Text_t, "By Ludwig van Beethoven"
1, 0, Copyright_t, "Copyright \251 2001 by S.E.Edwards"
1, 0, Copyright_t, "All Rights Reserved"
1, 0, Text_t, "Generated by NoteWorthy Composer"
1, 0, Tempo, 2068965
1, 0, Key_signature, -5, "major"
1, 0, Time_signature, 6, 3, 24, 8
1, 12672, Tempo, 2727272
1, 12672, Key_signature, 4, "major"
1, 17938, Tempo, 2608695
1, 18020, Tempo, 2500000
1, 18102, Tempo, 2400000
1, 18144, Key_signature, -5, "major"
1, 18185, Tempo, 2307692
1, 18267, Tempo, 2222222
1, 18349, Tempo, 2142857
1, 18432, Tempo, 2068965
1, 30613, Tempo, 2142857
1, 30698, Tempo, 2222222
1, 30784, Tempo, 2307692
1, 30869, Tempo, 2400000
1, 30954, Tempo, 2500000
1, 31040, Tempo, 2608695
1, 31125, Tempo, 2727272
1, 31210, Tempo, 2857142
1, 31296, Tempo, 3000000
1, 31296, End_track
2, 0, Start_track
2, 0, MIDI_port, 0
2, 0, Title_t, "Violino I."
2, 0, Program_c, 1, 0
2, 0, Control_c, 1, 7, 127
2, 0, Control_c, 1, 10, 64
2, 576, Note_on_c, 1, 61, 45
2, 864, Note_on_c, 1, 61, 0
2, 864, Note_on_c, 1, 61, 60
2, 864, Note_on_c, 1, 65, 60
2, 1120, Note_on_c, 1, 61, 0
2, 1120, Note_on_c, 1, 65, 0
2, 1152, Note_on_c, 1, 61, 45
2, 1248, Note_on_c, 1, 61, 0
2, 1248, Note_on_c, 1, 60, 45
2, 1344, Note_on_c, 1, 60, 0
2, 1344, Note_on_c, 1, 58, 45
2, 1440, Note_on_c, 1, 58, 0
2, 1440, Note_on_c, 1, 56, 45
2, 1536, Note_on_c, 1, 56, 0
2, 1536, Note_on_c, 1, 58, 45
2, 1632, Note_on_c, 1, 58, 0
2, 1632, Note_on_c, 1, 60, 45
2, 1726, Note_on_c, 1, 60, 0
2, 1728, Note_on_c, 1, 61, 45
2, 1824, Note_on_c, 1, 61, 0
2, 1824, Note_on_c, 1, 63, 45
2, 1920, Note_on_c, 1, 63, 0
2, 1920, Note_on_c, 1, 65, 45
2, 2014, Note_on_c, 1, 65, 0
2, 2016, Note_on_c, 1, 63, 45
2, 2272, Note_on_c, 1, 63, 0
2, 2304, Note_on_c, 1, 61, 45
2, 2400, Note_on_c, 1, 61, 0
2, 2400, Note_on_c, 1, 60, 45
2, 2496, Note_on_c, 1, 60, 0
2, 2496, Note_on_c, 1, 58, 45
2, 2592, Note_on_c, 1, 58, 0
2, 2592, Note_on_c, 1, 56, 45
2, 2688, Note_on_c, 1, 56, 0
2, 2688, Note_on_c, 1, 58, 45
2, 2784, Note_on_c, 1, 58, 0
2, 2784, Note_on_c, 1, 60, 45
2, 2878, Note_on_c, 1, 60, 0
2, 2880, Note_on_c, 1, 61, 45
2, 2976, Note_on_c, 1, 61, 0
2, 2976, Note_on_c, 1, 63, 45
2, 3072, Note_on_c, 1, 63, 0
2, 3072, Note_on_c, 1, 65, 45
2, 3166, Note_on_c, 1, 65, 0
2, 3168, Note_on_c, 1, 65, 45
2, 3264, Note_on_c, 1, 65, 0
2, 3264, Note_on_c, 1, 63, 45
2, 3424, Note_on_c, 1, 63, 0
2, 3456, Note_on_c, 1, 65, 45
2, 3616, Note_on_c, 1, 65, 0
2, 3648, Note_on_c, 1, 65, 65
2, 3742, Note_on_c, 1, 65, 0
2, 3744, Note_on_c, 1, 65, 45
2, 3840, Note_on_c, 1, 65, 0
2, 3840, Note_on_c, 1, 61, 45
2, 3936, Note_on_c, 1, 61, 0
2, 3936, Note_on_c, 1, 58, 45
2, 4030, Note_on_c, 1, 58, 0
2, 4032, Note_on_c, 1, 70, 45
2, 4192, Note_on_c, 1, 70, 0
2, 4224, Note_on_c, 1, 70, 65
2, 4318, Note_on_c, 1, 70, 0
2, 4320, Note_on_c, 1, 70, 45
2, 4416, Note_on_c, 1, 70, 0
2, 4416, Note_on_c, 1, 66, 45
2, 4512, Note_on_c, 1, 66, 0
2, 4512, Note_on_c, 1, 63, 45
2, 4606, Note_on_c, 1, 63, 0
2, 4608, Note_on_c, 1, 68, 45
2, 4768, Note_on_c, 1, 68, 0
2, 4800, Note_on_c, 1, 68, 55
2, 4894, Note_on_c, 1, 68, 0
2, 4896, Note_on_c, 1, 68, 60
2, 4992, Note_on_c, 1, 68, 0
2, 4992, Note_on_c, 1, 65, 65
2, 5088, Note_on_c, 1, 65, 0
2, 5088, Note_on_c, 1, 61, 70
2, 5182, Note_on_c, 1, 61, 0
2, 5184, Note_on_c, 1, 56, 45
2, 5280, Note_on_c, 1, 56, 0
2, 5280, Note_on_c, 1, 65, 45
2, 5376, Note_on_c, 1, 65, 0
2, 5376, Note_on_c, 1, 63, 45
2, 5470, Note_on_c, 1, 63, 0
2, 5472, Note_on_c, 1, 61, 45
2, 5728, Note_on_c, 1, 61, 0
2, 5760, Note_on_c, 1, 61, 75
2, 5952, Note_on_c, 1, 61, 0
2, 5952, Note_on_c, 1, 60, 55
2, 6046, Note_on_c, 1, 60, 0
2, 6048, Note_on_c, 1, 61, 45
2, 6144, Note_on_c, 1, 61, 0
2, 6144, Note_on_c, 1, 65, 55
2, 6240, Note_on_c, 1, 65, 0
2, 6240, Note_on_c, 1, 66, 65
2, 6336, Note_on_c, 1, 66, 0
2, 6336, Note_on_c, 1, 68, 75
2, 6432, Note_on_c, 1, 68, 0
2, 6432, Note_on_c, 1, 77, 65
2, 6528, Note_on_c, 1, 77, 0
2, 6528, Note_on_c, 1, 75, 55
2, 6622, Note_on_c, 1, 75, 0
2, 6624, Note_on_c, 1, 73, 45
2, 6720, Note_on_c, 1, 73, 0
2, 6720, Note_on_c, 1, 70, 44
2, 6816, Note_on_c, 1, 70, 0
2, 6816, Note_on_c, 1, 66, 43
2, 6910, Note_on_c, 1, 66, 0
2, 6912, Note_on_c, 1, 65, 42
2, 7008, Note_on_c, 1, 65, 0
2, 7008, Note_on_c, 1, 68, 41
2, 7104, Note_on_c, 1, 68, 0
2, 7104, Note_on_c, 1, 73, 40
2, 7198, Note_on_c, 1, 73, 0
2, 7200, Note_on_c, 1, 73, 39
2, 7392, Note_on_c, 1, 73, 0
2, 7392, Note_on_c, 1, 72, 37
2, 7486, Note_on_c, 1, 72, 0
2, 7488, Note_on_c, 1, 73, 36
2, 7584, Note_on_c, 1, 73, 0
2, 7584, Note_on_c, 1, 75, 35
2, 7680, Note_on_c, 1, 75, 0
2, 7680, Note_on_c, 1, 77, 34
2, 7774, Note_on_c, 1, 77, 0
2, 7776, Note_on_c, 1, 77, 33
2, 7968, Note_on_c, 1, 77, 0
2, 7968, Note_on_c, 1, 75, 31
2, 8062, Note_on_c, 1, 75, 0
2, 8064, Note_on_c, 1, 75, 30
2, 8256, Note_on_c, 1, 75, 0
2, 8256, Note_on_c, 1, 73, 32
2, 8350, Note_on_c, 1, 73, 0
2, 8352, Note_on_c, 1, 73, 33
2, 8544, Note_on_c, 1, 73, 0
2, 8544, Note_on_c, 1, 72, 35
2, 8638, Note_on_c, 1, 72, 0
2, 8640, Note_on_c, 1, 72, 36
2, 8832, Note_on_c, 1, 72, 0
2, 8832, Note_on_c, 1, 73, 38
2, 8926, Note_on_c, 1, 73, 0
2, 8928, Note_on_c, 1, 74, 39
2, 9120, Note_on_c, 1, 74, 0
2, 9120, Note_on_c, 1, 75, 41
2, 9214, Note_on_c, 1, 75, 0
2, 9216, Note_on_c, 1, 76, 58
2, 9408, Note_on_c, 1, 76, 0
2, 9408, Note_on_c, 1, 77, 44
2, 9502, Note_on_c, 1, 77, 0
2, 9504, Note_on_c, 1, 77, 45
2, 9696, Note_on_c, 1, 77, 0
2, 9696, Note_on_c, 1, 74, 45
2, 9790, Note_on_c, 1, 74, 0
2, 9792, Note_on_c, 1, 81, 63
2, 9984, Note_on_c, 1, 81, 0
2, 9984, Note_on_c, 1, 82, 45
2, 10078, Note_on_c, 1, 82, 0
2, 10080, Note_on_c, 1, 82, 45
2, 10272, Note_on_c, 1, 82, 0
2, 10272, Note_on_c, 1, 78, 45
2, 10366, Note_on_c, 1, 78, 0
2, 10368, Note_on_c, 1, 79, 63
2, 10560, Note_on_c, 1, 79, 0
2, 10560, Note_on_c, 1, 80, 45
2, 10654, Note_on_c, 1, 80, 0
2, 10656, Note_on_c, 1, 80, 45
2, 10944, Note_on_c, 1, 80, 0
2, 10944, Note_on_c, 1, 80, 45
2, 11232, Note_on_c, 1, 80, 0
2, 11232, Note_on_c, 1, 80, 75
2, 11424, Note_on_c, 1, 80, 0
2, 11424, Note_on_c, 1, 85, 55
2, 11518, Note_on_c, 1, 85, 0
2, 11616, Note_on_c, 1, 77, 55
2, 11712, Note_on_c, 1, 77, 0
2, 11712, Note_on_c, 1, 75, 65
2, 11806, Note_on_c, 1, 75, 0
2, 11808, Note_on_c, 1, 75, 75
2, 11904, Note_on_c, 1, 75, 0
2, 11904, Note_on_c, 1, 73, 65
2, 12064, Note_on_c, 1, 73, 0
2, 12096, Note_on_c, 1, 68, 45
2, 12384, Note_on_c, 1, 68, 0
2, 12384, Note_on_c, 1, 68, 75
2, 12576, Note_on_c, 1, 68, 0
2, 12576, Note_on_c, 1, 73, 45
2, 12670, Note_on_c, 1, 73, 0
2, 12672, Note_on_c, 1, 61, 30
2, 12832, Note_on_c, 1, 61, 0
2, 12912, Note_on_c, 1, 61, 30
2, 12958, Note_on_c, 1, 61, 0
2, 12960, Note_on_c, 1, 60, 30
2, 13120, Note_on_c, 1, 60, 0
2, 13200, Note_on_c, 1, 60, 30
2, 13246, Note_on_c, 1, 60, 0
2, 13248, Note_on_c, 1, 61, 30
2, 13408, Note_on_c, 1, 61, 0
2, 13488, Note_on_c, 1, 61, 30
2, 13534, Note_on_c, 1, 61, 0
2, 13536, Note_on_c, 1, 63, 30
2, 13630, Note_on_c, 1, 63, 0
2, 13680, Note_on_c, 1, 69, 30
2, 13714, Note_on_c, 1, 69, 0
2, 13728, Note_on_c, 1, 68, 40
2, 13762, Note_on_c, 1, 68, 0
2, 13776, Note_on_c, 1, 63, 50
2, 13808, Note_on_c, 1, 63, 0
2, 13824, Note_on_c, 1, 64, 30
2, 13984, Note_on_c, 1, 64, 0
2, 14064, Note_on_c, 1, 64, 30
2, 14110, Note_on_c, 1, 64, 0
2, 14112, Note_on_c, 1, 63, 30
2, 14272, Note_on_c, 1, 63, 0
2, 14352, Note_on_c, 1, 63, 30
2, 14398, Note_on_c, 1, 63, 0
2, 14400, Note_on_c, 1, 68, 30
2, 14560, Note_on_c, 1, 68, 0
2, 14640, Note_on_c, 1, 68, 30
2, 14686, Note_on_c, 1, 68, 0
2, 14688, Note_on_c, 1, 71, 30
2, 14782, Note_on_c, 1, 71, 0
2, 14832, Note_on_c, 1, 71, 30
2, 14866, Note_on_c, 1, 71, 0
2, 14880, Note_on_c, 1, 71, 40
2, 14914, Note_on_c, 1, 71, 0
2, 14928, Note_on_c, 1, 71, 50
2, 14960, Note_on_c, 1, 71, 0
2, 14976, Note_on_c, 1, 71, 30
2, 15136, Note_on_c, 1, 71, 0
2, 15216, Note_on_c, 1, 74, 55
2, 15262, Note_on_c, 1, 74, 0
2, 15264, Note_on_c, 1, 73, 60
2, 15424, Note_on_c, 1, 73, 0
2, 15504, Note_on_c, 1, 73, 35
2, 15550, Note_on_c, 1, 73, 0
2, 15552, Note_on_c, 1, 73, 30
2, 15712, Note_on_c, 1, 73, 0
2, 15792, Note_on_c, 1, 79, 55
2, 15838, Note_on_c, 1, 79, 0
2, 15840, Note_on_c, 1, 79, 60
2, 16000, Note_on_c, 1, 79, 0
2, 16080, Note_on_c, 1, 78, 35
2, 16126, Note_on_c, 1, 78, 0
2, 16128, Note_on_c, 1, 78, 30
2, 16288, Note_on_c, 1, 78, 0
2, 16368, Note_on_c, 1, 87, 50
2, 16414, Note_on_c, 1, 87, 0
2, 16416, Note_on_c, 1, 87, 37
2, 16576, Note_on_c, 1, 87, 0
2, 16656, Note_on_c, 1, 88, 45
2, 16702, Note_on_c, 1, 88, 0
2, 16704, Note_on_c, 1, 88, 45
2, 16864, Note_on_c, 1, 88, 0
2, 16944, Note_on_c, 1, 84, 75
2, 16990, Note_on_c, 1, 84, 0
2, 16992, Note_on_c, 1, 85, 68
2, 17086, Note_on_c, 1, 85, 0
2, 17136, Note_on_c, 1, 85, 45
2, 17170, Note_on_c, 1, 85, 0
2, 17184, Note_on_c, 1, 83, 55
2, 17218, Note_on_c, 1, 83, 0
2, 17232, Note_on_c, 1, 81, 65
2, 17264, Note_on_c, 1, 81, 0
2, 17280, Note_on_c, 1, 80, 45
2, 17440, Note_on_c, 1, 80, 0
2, 17520, Note_on_c, 1, 68, 75
2, 17566, Note_on_c, 1, 68, 0
2, 17568, Note_on_c, 1, 68, 68
2, 17662, Note_on_c, 1, 68, 0
2, 17712, Note_on_c, 1, 61, 45
2, 17746, Note_on_c, 1, 61, 0
2, 17760, Note_on_c, 1, 65, 55
2, 17794, Note_on_c, 1, 65, 0
2, 17808, Note_on_c, 1, 66, 65
2, 17840, Note_on_c, 1, 66, 0
2, 17856, Note_on_c, 1, 68, 45
2, 18016, Note_on_c, 1, 68, 0
2, 18096, Note_on_c, 1, 68, 30
2, 18142, Note_on_c, 1, 68, 0
2, 18240, Note_on_c, 1, 68, 30
2, 18432, Note_on_c, 1, 68, 0
2, 18432, Note_on_c, 1, 68, 45
2, 18526, Note_on_c, 1, 68, 0
2, 18528, Note_on_c, 1, 77, 45
2, 18720, Note_on_c, 1, 77, 0
2, 18720, Note_on_c, 1, 78, 45
2, 18816, Note_on_c, 1, 78, 0
2, 18816, Note_on_c, 1, 77, 45
2, 18912, Note_on_c, 1, 77, 0
2, 18912, Note_on_c, 1, 75, 45
2, 19006, Note_on_c, 1, 75, 0
2, 19008, Note_on_c, 1, 73, 45
2, 19104, Note_on_c, 1, 73, 0
2, 19104, Note_on_c, 1, 72, 45
2, 19200, Note_on_c, 1, 72, 0
2, 19200, Note_on_c, 1, 70, 45
2, 19296, Note_on_c, 1, 70, 0
2, 19296, Note_on_c, 1, 68, 45
2, 19392, Note_on_c, 1, 68, 0
2, 19392, Note_on_c, 1, 70, 45
2, 19488, Note_on_c, 1, 70, 0
2, 19488, Note_on_c, 1, 72, 45
2, 19582, Note_on_c, 1, 72, 0
2, 19584, Note_on_c, 1, 73, 45
2, 19680, Note_on_c, 1, 73, 0
2, 19680, Note_on_c, 1, 75, 45
2, 19776, Note_on_c, 1, 75, 0
2, 19776, Note_on_c, 1, 77, 45
2, 19870, Note_on_c, 1, 77, 0
2, 19872, Note_on_c, 1, 77, 45
2, 19968, Note_on_c, 1, 77, 0
2, 19968, Note_on_c, 1, 75, 45
2, 20128, Note_on_c, 1, 75, 0
2, 20160, Note_on_c, 1, 73, 45
2, 20256, Note_on_c, 1, 73, 0
2, 20256, Note_on_c, 1, 72, 45
2, 20352, Note_on_c, 1, 72, 0
2, 20352, Note_on_c, 1, 70, 45
2, 20448, Note_on_c, 1, 70, 0
2, 20448, Note_on_c, 1, 68, 45
2, 20544, Note_on_c, 1, 68, 0
2, 20544, Note_on_c, 1, 70, 45
2, 20640, Note_on_c, 1, 70, 0
2, 20640, Note_on_c, 1, 72, 45
2, 20734, Note_on_c, 1, 72, 0
2, 20736, Note_on_c, 1, 72, 45
2, 20832, Note_on_c, 1, 72, 0
2, 20832, Note_on_c, 1, 68, 45
2, 20976, Note_on_c, 1, 68, 0
2, 20976, Note_on_c, 1, 69, 45
2, 21022, Note_on_c, 1, 69, 0
2, 21024, Note_on_c, 1, 77, 45
2, 21184, Note_on_c, 1, 77, 0
2, 21216, Note_on_c, 1, 77, 45
2, 21310, Note_on_c, 1, 77, 0
2, 21312, Note_on_c, 1, 77, 45
2, 21408, Note_on_c, 1, 77, 0
2, 21408, Note_on_c, 1, 74, 45
2, 21504, Note_on_c, 1, 74, 0
2, 21504, Note_on_c, 1, 70, 45
2, 21598, Note_on_c, 1, 70, 0
2, 21600, Note_on_c, 1, 82, 45
2, 21760, Note_on_c, 1, 82, 0
2, 21792, Note_on_c, 1, 82, 45
2, 21886, Note_on_c, 1, 82, 0
2, 21888, Note_on_c, 1, 82, 45
2, 21984, Note_on_c, 1, 82, 0
2, 21984, Note_on_c, 1, 78, 45
2, 22080, Note_on_c, 1, 78, 0
2, 22080, Note_on_c, 1, 75, 45
2, 22174, Note_on_c, 1, 75, 0
2, 22176, Note_on_c, 1, 80, 45
2, 22336, Note_on_c, 1, 80, 0
2, 22368, Note_on_c, 1, 80, 45
2, 22462, Note_on_c, 1, 80, 0
2, 22464, Note_on_c, 1, 80, 45
2, 22656, Note_on_c, 1, 80, 0
2, 22656, Note_on_c, 1, 84, 45
2, 22752, Note_on_c, 1, 84, 0
2, 22752, Note_on_c, 1, 85, 45
2, 22912, Note_on_c, 1, 85, 0
2, 22944, Note_on_c, 1, 80, 45
2, 23040, Note_on_c, 1, 80, 0
2, 23040, Note_on_c, 1, 80, 45
2, 23136, Note_on_c, 1, 80, 0
2, 23136, Note_on_c, 1, 89, 55
2, 23232, Note_on_c, 1, 89, 0
2, 23232, Note_on_c, 1, 87, 65
2, 23328, Note_on_c, 1, 87, 0
2, 23328, Note_on_c, 1, 85, 75
2, 23488, Note_on_c, 1, 85, 0
2, 23520, Note_on_c, 1, 80, 55
2, 23616, Note_on_c, 1, 80, 0
2, 23616, Note_on_c, 1, 80, 45
2, 23808, Note_on_c, 1, 80, 0
2, 23808, Note_on_c, 1, 84, 65
2, 23904, Note_on_c, 1, 84, 0
2, 23904, Note_on_c, 1, 85, 75
2, 24000, Note_on_c, 1, 85, 0
2, 24000, Note_on_c, 1, 82, 65
2, 24096, Note_on_c, 1, 82, 0
2, 24096, Note_on_c, 1, 78, 55
2, 24190, Note_on_c, 1, 78, 0
2, 24192, Note_on_c, 1, 77, 45
2, 24238, Note_on_c, 1, 77, 0
2, 24240, Note_on_c, 1, 75, 45
2, 24288, Note_on_c, 1, 75, 0
2, 24288, Note_on_c, 1, 73, 45
2, 24334, Note_on_c, 1, 73, 0
2, 24360, Note_on_c, 1, 70, 45
2, 24382, Note_on_c, 1, 70, 0
2, 24384, Note_on_c, 1, 68, 45
2, 24478, Note_on_c, 1, 68, 0
2, 24528, Note_on_c, 1, 73, 45
2, 24576, Note_on_c, 1, 73, 0
2, 24576, Note_on_c, 1, 72, 45
2, 24622, Note_on_c, 1, 72, 0
2, 24648, Note_on_c, 1, 82, 45
2, 24670, Note_on_c, 1, 82, 0
2, 24672, Note_on_c, 1, 80, 45
2, 24766, Note_on_c, 1, 80, 0
2, 24816, Note_on_c, 1, 87, 45
2, 24864, Note_on_c, 1, 87, 0
2, 24864, Note_on_c, 1, 85, 45
2, 24910, Note_on_c, 1, 85, 0
2, 24936, Note_on_c, 1, 82, 45
2, 24958, Note_on_c, 1, 82, 0
2, 24960, Note_on_c, 1, 80, 45
2, 25054, Note_on_c, 1, 80, 0
2, 25104, Note_on_c, 1, 77, 45
2, 25152, Note_on_c, 1, 77, 0
2, 25152, Note_on_c, 1, 75, 45
2, 25198, Note_on_c, 1, 75, 0
2, 25224, Note_on_c, 1, 82, 45
2, 25246, Note_on_c, 1, 82, 0
2, 25248, Note_on_c, 1, 80, 45
2, 25342, Note_on_c, 1, 80, 0
2, 25392, Note_on_c, 1, 75, 45
2, 25440, Note_on_c, 1, 75, 0
2, 25440, Note_on_c, 1, 73, 45
2, 25486, Note_on_c, 1, 73, 0
2, 25488, Note_on_c, 1, 73, 45
2, 25512, Note_on_c, 1, 73, 0
2, 25512, Note_on_c, 1, 70, 45
2, 25534, Note_on_c, 1, 70, 0
2, 25536, Note_on_c, 1, 68, 45
2, 25630, Note_on_c, 1, 68, 0
2, 25680, Note_on_c, 1, 73, 45
2, 25728, Note_on_c, 1, 73, 0
2, 25728, Note_on_c, 1, 72, 45
2, 25774, Note_on_c, 1, 72, 0
2, 25776, Note_on_c, 1, 72, 45
2, 25800, Note_on_c, 1, 72, 0
2, 25800, Note_on_c, 1, 82, 45
2, 25822, Note_on_c, 1, 82, 0
2, 25824, Note_on_c, 1, 80, 45
2, 25918, Note_on_c, 1, 80, 0
2, 25968, Note_on_c, 1, 87, 45
2, 26016, Note_on_c, 1, 87, 0
2, 26016, Note_on_c, 1, 85, 45
2, 26062, Note_on_c, 1, 85, 0
2, 26064, Note_on_c, 1, 85, 45
2, 26088, Note_on_c, 1, 85, 0
2, 26088, Note_on_c, 1, 82, 45
2, 26110, Note_on_c, 1, 82, 0
2, 26112, Note_on_c, 1, 80, 45
2, 26206, Note_on_c, 1, 80, 0
2, 26256, Note_on_c, 1, 77, 45
2, 26304, Note_on_c, 1, 77, 0
2, 26304, Note_on_c, 1, 75, 45
2, 26350, Note_on_c, 1, 75, 0
2, 26352, Note_on_c, 1, 75, 45
2, 26376, Note_on_c, 1, 75, 0
2, 26376, Note_on_c, 1, 82, 45
2, 26398, Note_on_c, 1, 82, 0
2, 26400, Note_on_c, 1, 80, 45
2, 26446, Note_on_c, 1, 80, 0
2, 26448, Note_on_c, 1, 75, 45
2, 26472, Note_on_c, 1, 75, 0
2, 26472, Note_on_c, 1, 78, 45
2, 26494, Note_on_c, 1, 78, 0
2, 26496, Note_on_c, 1, 77, 45
2, 26542, Note_on_c, 1, 77, 0
2, 26544, Note_on_c, 1, 85, 45
2, 26592, Note_on_c, 1, 85, 0
2, 26592, Note_on_c, 1, 84, 45
2, 26638, Note_on_c, 1, 84, 0
2, 26640, Note_on_c, 1, 84, 45
2, 26664, Note_on_c, 1, 84, 0
2, 26664, Note_on_c, 1, 78, 45
2, 26686, Note_on_c, 1, 78, 0
2, 26688, Note_on_c, 1, 77, 45
2, 26782, Note_on_c, 1, 77, 0
2, 26832, Note_on_c, 1, 78, 45
2, 26880, Note_on_c, 1, 78, 0
2, 26880, Note_on_c, 1, 77, 45
2, 26926, Note_on_c, 1, 77, 0
2, 26928, Note_on_c, 1, 77, 45
2, 26952, Note_on_c, 1, 77, 0
2, 26952, Note_on_c, 1, 83, 45
2, 26974, Note_on_c, 1, 83, 0
2, 26976, Note_on_c, 1, 82, 45
2, 27070, Note_on_c, 1, 82, 0
2, 27120, Note_on_c, 1, 83, 45
2, 27168, Note_on_c, 1, 83, 0
2, 27168, Note_on_c, 1, 82, 45
2, 27214, Note_on_c, 1, 82, 0
2, 27216, Note_on_c, 1, 82, 45
2, 27240, Note_on_c, 1, 82, 0
2, 27240, Note_on_c, 1, 76, 45
2, 27262, Note_on_c, 1, 76, 0
2, 27264, Note_on_c, 1, 75, 45
2, 27358, Note_on_c, 1, 75, 0
2, 27408, Note_on_c, 1, 77, 49
2, 27456, Note_on_c, 1, 77, 0
2, 27456, Note_on_c, 1, 75, 50
2, 27502, Note_on_c, 1, 75, 0
2, 27504, Note_on_c, 1, 75, 51
2, 27528, Note_on_c, 1, 75, 0
2, 27528, Note_on_c, 1, 82, 51
2, 27550, Note_on_c, 1, 82, 0
2, 27552, Note_on_c, 1, 80, 51
2, 27646, Note_on_c, 1, 80, 0
2, 27696, Note_on_c, 1, 82, 57
2, 27744, Note_on_c, 1, 82, 0
2, 27744, Note_on_c, 1, 80, 59
2, 27790, Note_on_c, 1, 80, 0
2, 27792, Note_on_c, 1, 80, 61
2, 27816, Note_on_c, 1, 80, 0
2, 27816, Note_on_c, 1, 77, 62
2, 27838, Note_on_c, 1, 77, 0
2, 27840, Note_on_c, 1, 75, 63
2, 27934, Note_on_c, 1, 75, 0
2, 27984, Note_on_c, 1, 82, 69
2, 28032, Note_on_c, 1, 82, 0
2, 28032, Note_on_c, 1, 80, 71
2, 28078, Note_on_c, 1, 80, 0
2, 28080, Note_on_c, 1, 80, 73
2, 28104, Note_on_c, 1, 80, 0
2, 28104, Note_on_c, 1, 87, 74
2, 28126, Note_on_c, 1, 87, 0
2, 28128, Note_on_c, 1, 85, 75
2, 28222, Note_on_c, 1, 85, 0
2, 28272, Note_on_c, 1, 82, 45
2, 28320, Note_on_c, 1, 82, 0
2, 28320, Note_on_c, 1, 80, 45
2, 28366, Note_on_c, 1, 80, 0
2, 28368, Note_on_c, 1, 80, 45
2, 28392, Note_on_c, 1, 80, 0
2, 28392, Note_on_c, 1, 85, 45
2, 28414, Note_on_c, 1, 85, 0
2, 28416, Note_on_c, 1, 84, 45
2, 28510, Note_on_c, 1, 84, 0
2, 28560, Note_on_c, 1, 82, 45
2, 28608, Note_on_c, 1, 82, 0
2, 28608, Note_on_c, 1, 80, 45
2, 28654, Note_on_c, 1, 80, 0
2, 28656, Note_on_c, 1, 80, 45
2, 28680, Note_on_c, 1, 80, 0
2, 28680, Note_on_c, 1, 87, 45
2, 28702, Note_on_c, 1, 87, 0
2, 28704, Note_on_c, 1, 85, 45
2, 28798, Note_on_c, 1, 85, 0
2, 28848, Note_on_c, 1, 82, 45
2, 28896, Note_on_c, 1, 82, 0
2, 28896, Note_on_c, 1, 80, 47
2, 28942, Note_on_c, 1, 80, 0
2, 28944, Note_on_c, 1, 80, 49
2, 28968, Note_on_c, 1, 80, 0
2, 28968, Note_on_c, 1, 87, 50
2, 28990, Note_on_c, 1, 87, 0
2, 28992, Note_on_c, 1, 86, 51
2, 29088, Note_on_c, 1, 86, 0
2, 29088, Note_on_c, 1, 86, 79
2, 29136, Note_on_c, 1, 86, 0
2, 29136, Note_on_c, 1, 87, 60
2, 29184, Note_on_c, 1, 87, 0
2, 29184, Note_on_c, 1, 89, 63
2, 29232, Note_on_c, 1, 89, 0
2, 29232, Note_on_c, 1, 90, 66
2, 29280, Note_on_c, 1, 90, 0
2, 29280, Note_on_c, 1, 92, 69
2, 29328, Note_on_c, 1, 92, 0
2, 29328, Note_on_c, 1, 94, 72
2, 29374, Note_on_c, 1, 94, 0
2, 29376, Note_on_c, 1, 94, 63
2, 29422, Note_on_c, 1, 94, 0
2, 29424, Note_on_c, 1, 58, 45
2, 29472, Note_on_c, 1, 58, 0
2, 29472, Note_on_c, 1, 56, 45
2, 29518, Note_on_c, 1, 56, 0
2, 29544, Note_on_c, 1, 61, 45
2, 29566, Note_on_c, 1, 61, 0
2, 29568, Note_on_c, 1, 60, 45
2, 29662, Note_on_c, 1, 60, 0
2, 29712, Note_on_c, 1, 63, 45
2, 29760, Note_on_c, 1, 63, 0
2, 29760, Note_on_c, 1, 61, 44
2, 29806, Note_on_c, 1, 61, 0
2, 29808, Note_on_c, 1, 61, 43
2, 29832, Note_on_c, 1, 61, 0
2, 29832, Note_on_c, 1, 63, 43
2, 29854, Note_on_c, 1, 63, 0
2, 29856, Note_on_c, 1, 61, 43
2, 29950, Note_on_c, 1, 61, 0
2, 30000, Note_on_c, 1, 75, 40
2, 30048, Note_on_c, 1, 75, 0
2, 30048, Note_on_c, 1, 73, 39
2, 30094, Note_on_c, 1, 73, 0
2, 30096, Note_on_c, 1, 73, 38
2, 30120, Note_on_c, 1, 73, 0
2, 30120, Note_on_c, 1, 75, 37
2, 30142, Note_on_c, 1, 75, 0
2, 30144, Note_on_c, 1, 73, 36
2, 30238, Note_on_c, 1, 73, 0
2, 30288, Note_on_c, 1, 87, 30
2, 30336, Note_on_c, 1, 87, 0
2, 30336, Note_on_c, 1, 85, 30
2, 30382, Note_on_c, 1, 85, 0
2, 30384, Note_on_c, 1, 85, 30
2, 30408, Note_on_c, 1, 85, 0
2, 30408, Note_on_c, 1, 87, 30
2, 30430, Note_on_c, 1, 87, 0
2, 30432, Note_on_c, 1, 85, 30
2, 30528, Note_on_c, 1, 85, 0
2, 30528, Note_on_c, 1, 85, 30
2, 30670, Note_on_c, 1, 85, 0
2, 30672, Note_on_c, 1, 85, 30
2, 30696, Note_on_c, 1, 85, 0
2, 30696, Note_on_c, 1, 87, 30
2, 30718, Note_on_c, 1, 87, 0
2, 30720, Note_on_c, 1, 85, 30
2, 30766, Note_on_c, 1, 85, 0
2, 30768, Note_on_c, 1, 80, 30
2, 30792, Note_on_c, 1, 80, 0
2, 30792, Note_on_c, 1, 82, 30
2, 30814, Note_on_c, 1, 82, 0
2, 30816, Note_on_c, 1, 80, 30
2, 30862, Note_on_c, 1, 80, 0
2, 30864, Note_on_c, 1, 77, 30
2, 30888, Note_on_c, 1, 77, 0
2, 30888, Note_on_c, 1, 78, 30
2, 30910, Note_on_c, 1, 78, 0
2, 30912, Note_on_c, 1, 77, 30
2, 31264, Note_on_c, 1, 77, 0
2, 31296, Control_c, 1, 7, 0
2, 31296, Note_on_c, 1, 70, 60
2, 32016, Note_on_c, 1, 70, 0
2, 32016, End_track
3, 0, Start_track
3, 0, MIDI_port, 0
3, 0, Title_t, "Violino II."
3, 0, Program_c, 2, 0
3, 0, Control_c, 2, 7, 127
3, 0, Control_c, 2, 10, 64
3, 288, Note_on_c, 2, 56, 45
3, 576, Note_on_c, 2, 56, 0
3, 576, Note_on_c, 2, 56, 45
3, 864, Note_on_c, 2, 56, 0
3, 864, Note_on_c, 2, 56, 60
3, 1120, Note_on_c, 2, 56, 0
3, 1152, Note_on_c, 2, 56, 45
3, 1728, Note_on_c, 2, 56, 0
3, 1728, Note_on_c, 2, 56, 45
3, 2256, Note_on_c, 2, 56, 0
3, 2304, Note_on_c, 2, 56, 45
3, 2880, Note_on_c, 2, 56, 0
3, 2880, Note_on_c, 2, 56, 45
3, 3136, Note_on_c, 2, 56, 0
3, 3168, Note_on_c, 2, 56, 45
3, 3264, Note_on_c, 2, 56, 0
3, 3264, Note_on_c, 2, 60, 45
3, 3360, Note_on_c, 2, 60, 0
3, 3360, Note_on_c, 2, 58, 45
3, 3454, Note_on_c, 2, 58, 0
3, 3456, Note_on_c, 2, 57, 45
3, 3744, Note_on_c, 2, 57, 0
3, 3744, Note_on_c, 2, 58, 45
3, 4000, Note_on_c, 2, 58, 0
3, 4032, Note_on_c, 2, 65, 45
3, 4224, Note_on_c, 2, 65, 0
3, 4224, Note_on_c, 2, 58, 65
3, 4320, Note_on_c, 2, 58, 0
3, 4320, Note_on_c, 2, 58, 45
3, 4576, Note_on_c, 2, 58, 0
3, 4608, Note_on_c, 2, 63, 45
3, 4800, Note_on_c, 2, 63, 0
3, 4800, Note_on_c, 2, 56, 55
3, 4800, Note_on_c, 2, 63, 55
3, 4896, Note_on_c, 2, 56, 0
3, 4896, Note_on_c, 2, 63, 0
3, 4896, Note_on_c, 2, 56, 60
3, 5152, Note_on_c, 2, 56, 0
3, 5184, Note_on_c, 2, 61, 45
3, 5376, Note_on_c, 2, 61, 0
3, 5376, Note_on_c, 2, 60, 45
3, 5470, Note_on_c, 2, 60, 0
3, 5472, Note_on_c, 2, 56, 45
3, 5760, Note_on_c, 2, 56, 0
3, 5760, Note_on_c, 2, 56, 75
3, 6016, Note_on_c, 2, 56, 0
3, 6048, Note_on_c, 2, 56, 45
3, 6144, Note_on_c, 2, 56, 0
3, 6144, Note_on_c, 2, 61, 55
3, 6304, Note_on_c, 2, 61, 0
3, 6336, Note_on_c, 2, 65, 75
3, 6432, Note_on_c, 2, 65, 0
3, 6432, Note_on_c, 2, 68, 65
3, 6528, Note_on_c, 2, 68, 0
3, 6528, Note_on_c, 2, 66, 55
3, 6622, Note_on_c, 2, 66, 0
3, 6624, Note_on_c, 2, 65, 45
3, 6720, Note_on_c, 2, 65, 0
3, 6720, Note_on_c, 2, 61, 44
3, 6814, Note_on_c, 2, 61, 0
3, 6816, Note_on_c, 2, 61, 43
3, 6910, Note_on_c, 2, 61, 0
3, 6912, Note_on_c, 2, 61, 42
3, 7104, Note_on_c, 2, 61, 0
3, 7104, Note_on_c, 2, 68, 40
3, 7198, Note_on_c, 2, 68, 0
3, 7200, Note_on_c, 2, 68, 39
3, 7456, Note_on_c, 2, 68, 0
3, 7488, Note_on_c, 2, 68, 36
3, 7744, Note_on_c, 2, 68, 0
3, 7776, Note_on_c, 2, 68, 33
3, 8032, Note_on_c, 2, 68, 0
3, 8064, Note_on_c, 2, 69, 30
3, 8256, Note_on_c, 2, 69, 0
3, 8256, Note_on_c, 2, 68, 32
3, 8350, Note_on_c, 2, 68, 0
3, 8352, Note_on_c, 2, 68, 33
3, 8608, Note_on_c, 2, 68, 0
3, 8640, Note_on_c, 2, 68, 36
3, 8896, Note_on_c, 2, 68, 0
3, 8928, Note_on_c, 2, 68, 39
3, 9184, Note_on_c, 2, 68, 0
3, 9216, Note_on_c, 2, 67, 58
3, 9312, Note_on_c, 2, 67, 0
3, 9312, Note_on_c, 2, 73, 43
3, 9408, Note_on_c, 2, 73, 0
3, 9408, Note_on_c, 2, 72, 44
3, 9502, Note_on_c, 2, 72, 0
3, 9504, Note_on_c, 2, 72, 45
3, 9696, Note_on_c, 2, 72, 0
3, 9696, Note_on_c, 2, 70, 45
3, 9790, Note_on_c, 2, 70, 0
3, 9792, Note_on_c, 2, 75, 63
3, 9984, Note_on_c, 2, 75, 0
3, 9984, Note_on_c, 2, 74, 45
3, 10078, Note_on_c, 2, 74, 0
3, 10176, Note_on_c, 2, 77, 45
3, 10272, Note_on_c, 2, 77, 0
3, 10272, Note_on_c, 2, 70, 45
3, 10366, Note_on_c, 2, 70, 0
3, 10368, Note_on_c, 2, 70, 63
3, 10560, Note_on_c, 2, 70, 0
3, 10560, Note_on_c, 2, 68, 45
3, 10654, Note_on_c, 2, 68, 0
3, 10656, Note_on_c, 2, 78, 45
3, 10848, Note_on_c, 2, 78, 0
3, 10848, Note_on_c, 2, 77, 45
3, 10942, Note_on_c, 2, 77, 0
3, 11040, Note_on_c, 2, 77, 55
3, 11136, Note_on_c, 2, 77, 0
3, 11136, Note_on_c, 2, 75, 65
3, 11230, Note_on_c, 2, 75, 0
3, 11232, Note_on_c, 2, 75, 75
3, 11328, Note_on_c, 2, 75, 0
3, 11328, Note_on_c, 2, 73, 65
3, 11488, Note_on_c, 2, 73, 0
3, 11616, Note_on_c, 2, 61, 55
3, 11712, Note_on_c, 2, 61, 0
3, 11712, Note_on_c, 2, 60, 65
3, 11806, Note_on_c, 2, 60, 0
3, 11808, Note_on_c, 2, 60, 75
3, 11904, Note_on_c, 2, 60, 0
3, 11904, Note_on_c, 2, 56, 65
3, 12000, Note_on_c, 2, 56, 0
3, 12000, Note_on_c, 2, 68, 55
3, 12094, Note_on_c, 2, 68, 0
3, 12096, Note_on_c, 2, 56, 45
3, 12384, Note_on_c, 2, 56, 0
3, 12384, Note_on_c, 2, 56, 75
3, 12576, Note_on_c, 2, 56, 0
3, 12576, Note_on_c, 2, 61, 45
3, 12670, Note_on_c, 2, 61, 0
3, 12672, Note_on_c, 2, 56, 30
3, 12832, Note_on_c, 2, 56, 0
3, 12912, Note_on_c, 2, 56, 30
3, 12958, Note_on_c, 2, 56, 0
3, 12960, Note_on_c, 2, 56, 30
3, 13120, Note_on_c, 2, 56, 0
3, 13200, Note_on_c, 2, 56, 30
3, 13246, Note_on_c, 2, 56, 0
3, 13248, Note_on_c, 2, 56, 30
3, 13408, Note_on_c, 2, 56, 0
3, 13488, Note_on_c, 2, 56, 30
3, 13534, Note_on_c, 2, 56, 0
3, 13536, Note_on_c, 2, 60, 30
3, 13630, Note_on_c, 2, 60, 0
3, 13680, Note_on_c, 2, 60, 30
3, 13714, Note_on_c, 2, 60, 0
3, 13728, Note_on_c, 2, 60, 40
3, 13762, Note_on_c, 2, 60, 0
3, 13776, Note_on_c, 2, 59, 50
3, 13808, Note_on_c, 2, 59, 0
3, 13824, Note_on_c, 2, 59, 30
3, 13984, Note_on_c, 2, 59, 0
3, 14064, Note_on_c, 2, 56, 30
3, 14110, Note_on_c, 2, 56, 0
3, 14112, Note_on_c, 2, 57, 30
3, 14272, Note_on_c, 2, 57, 0
3, 14352, Note_on_c, 2, 57, 30
3, 14398, Note_on_c, 2, 57, 0
3, 14400, Note_on_c, 2, 56, 30
3, 14560, Note_on_c, 2, 56, 0
3, 14640, Note_on_c, 2, 64, 30
3, 14686, Note_on_c, 2, 64, 0
3, 14688, Note_on_c, 2, 63, 30
3, 14782, Note_on_c, 2, 63, 0
3, 14832, Note_on_c, 2, 63, 30
3, 14866, Note_on_c, 2, 63, 0
3, 14880, Note_on_c, 2, 64, 40
3, 14914, Note_on_c, 2, 64, 0
3, 14928, Note_on_c, 2, 63, 50
3, 14960, Note_on_c, 2, 63, 0
3, 14976, Note_on_c, 2, 62, 30
3, 15136, Note_on_c, 2, 62, 0
3, 15216, Note_on_c, 2, 71, 55
3, 15262, Note_on_c, 2, 71, 0
3, 15264, Note_on_c, 2, 71, 60
3, 15424, Note_on_c, 2, 71, 0
3, 15504, Note_on_c, 2, 71, 35
3, 15550, Note_on_c, 2, 71, 0
3, 15552, Note_on_c, 2, 64, 30
3, 15712, Note_on_c, 2, 64, 0
3, 15792, Note_on_c, 2, 76, 55
3, 15838, Note_on_c, 2, 76, 0
3, 15840, Note_on_c, 2, 76, 60
3, 16000, Note_on_c, 2, 76, 0
3, 16080, Note_on_c, 2, 64, 35
3, 16126, Note_on_c, 2, 64, 0
3, 16128, Note_on_c, 2, 63, 30
3, 16288, Note_on_c, 2, 63, 0
3, 16368, Note_on_c, 2, 78, 50
3, 16414, Note_on_c, 2, 78, 0
3, 16416, Note_on_c, 2, 78, 37
3, 16576, Note_on_c, 2, 78, 0
3, 16656, Note_on_c, 2, 64, 45
3, 16656, Note_on_c, 2, 73, 45
3, 16702, Note_on_c, 2, 64, 0
3, 16702, Note_on_c, 2, 73, 0
3, 16704, Note_on_c, 2, 64, 45
3, 16704, Note_on_c, 2, 73, 45
3, 16864, Note_on_c, 2, 64, 0
3, 16864, Note_on_c, 2, 73, 0
3, 16944, Note_on_c, 2, 66, 75
3, 16990, Note_on_c, 2, 66, 0
3, 16992, Note_on_c, 2, 64, 68
3, 17086, Note_on_c, 2, 64, 0
3, 17136, Note_on_c, 2, 61, 45
3, 17170, Note_on_c, 2, 61, 0
3, 17184, Note_on_c, 2, 65, 55
3, 17218, Note_on_c, 2, 65, 0
3, 17232, Note_on_c, 2, 66, 65
3, 17264, Note_on_c, 2, 66, 0
3, 17280, Note_on_c, 2, 64, 45
3, 17440, Note_on_c, 2, 64, 0
3, 17520, Note_on_c, 2, 60, 75
3, 17566, Note_on_c, 2, 60, 0
3, 17568, Note_on_c, 2, 61, 68
3, 17568, Note_on_c, 2, 64, 68
3, 17662, Note_on_c, 2, 61, 0
3, 17662, Note_on_c, 2, 64, 0
3, 17760, Note_on_c, 2, 61, 55
3, 17794, Note_on_c, 2, 61, 0
3, 17808, Note_on_c, 2, 61, 65
3, 17840, Note_on_c, 2, 61, 0
3, 17856, Note_on_c, 2, 61, 45
3, 18016, Note_on_c, 2, 61, 0
3, 18096, Note_on_c, 2, 60, 30
3, 18142, Note_on_c, 2, 60, 0
3, 18240, Note_on_c, 2, 61, 30
3, 18336, Note_on_c, 2, 61, 0
3, 18336, Note_on_c, 2, 66, 37
3, 18384, Note_on_c, 2, 66, 0
3, 18384, Note_on_c, 2, 63, 41
3, 18430, Note_on_c, 2, 63, 0
3, 18432, Note_on_c, 2, 61, 45
3, 18528, Note_on_c, 2, 61, 0
3, 18528, Note_on_c, 2, 56, 45
3, 18720, Note_on_c, 2, 56, 0
3, 18720, Note_on_c, 2, 56, 45
3, 18960, Note_on_c, 2, 56, 0
3, 18960, Note_on_c, 2, 66, 45
3, 19006, Note_on_c, 2, 66, 0
3, 19008, Note_on_c, 2, 65, 45
3, 19104, Note_on_c, 2, 65, 0
3, 19104, Note_on_c, 2, 60, 45
3, 19200, Note_on_c, 2, 60, 0
3, 19200, Note_on_c, 2, 61, 45
3, 19294, Note_on_c, 2, 61, 0
3, 19296, Note_on_c, 2, 61, 45
3, 19392, Note_on_c, 2, 61, 0
3, 19392, Note_on_c, 2, 60, 45
3, 19488, Note_on_c, 2, 60, 0
3, 19488, Note_on_c, 2, 56, 45
3, 19584, Note_on_c, 2, 56, 0
3, 19584, Note_on_c, 2, 56, 45
3, 19678, Note_on_c, 2, 56, 0
3, 19680, Note_on_c, 2, 56, 45
3, 19824, Note_on_c, 2, 56, 0
3, 19824, Note_on_c, 2, 65, 45
3, 19870, Note_on_c, 2, 65, 0
3, 19872, Note_on_c, 2, 66, 45
3, 20032, Note_on_c, 2, 66, 0
3, 20064, Note_on_c, 2, 68, 45
3, 20160, Note_on_c, 2, 68, 0
3, 20160, Note_on_c, 2, 68, 45
3, 20304, Note_on_c, 2, 68, 0
3, 20304, Note_on_c, 2, 60, 45
3, 20352, Note_on_c, 2, 60, 0
3, 20352, Note_on_c, 2, 61, 45
3, 20446, Note_on_c, 2, 61, 0
3, 20448, Note_on_c, 2, 61, 45
3, 20544, Note_on_c, 2, 61, 0
3, 20544, Note_on_c, 2, 60, 45
3, 20736, Note_on_c, 2, 60, 0
3, 20736, Note_on_c, 2, 60, 45
3, 20832, Note_on_c, 2, 60, 0
3, 20832, Note_on_c, 2, 65, 45
3, 20976, Note_on_c, 2, 65, 0
3, 20976, Note_on_c, 2, 60, 45
3, 21072, Note_on_c, 2, 60, 0
3, 21072, Note_on_c, 2, 61, 45
3, 21168, Note_on_c, 2, 61, 0
3, 21168, Note_on_c, 2, 63, 45
3, 21214, Note_on_c, 2, 63, 0
3, 21216, Note_on_c, 2, 63, 45
3, 21264, Note_on_c, 2, 63, 0
3, 21264, Note_on_c, 2, 65, 45
3, 21310, Note_on_c, 2, 65, 0
3, 21312, Note_on_c, 2, 65, 45
3, 21408, Note_on_c, 2, 65, 0
3, 21408, Note_on_c, 2, 70, 45
3, 21552, Note_on_c, 2, 70, 0
3, 21552, Note_on_c, 2, 65, 45
3, 21648, Note_on_c, 2, 65, 0
3, 21648, Note_on_c, 2, 66, 45
3, 21744, Note_on_c, 2, 66, 0
3, 21744, Note_on_c, 2, 68, 45
3, 21790, Note_on_c, 2, 68, 0
3, 21792, Note_on_c, 2, 68, 45
3, 21840, Note_on_c, 2, 68, 0
3, 21840, Note_on_c, 2, 70, 45
3, 21886, Note_on_c, 2, 70, 0
3, 21888, Note_on_c, 2, 70, 45
3, 21936, Note_on_c, 2, 70, 0
3, 21936, Note_on_c, 2, 63, 45
3, 22126, Note_on_c, 2, 63, 0
3, 22128, Note_on_c, 2, 60, 45
3, 22224, Note_on_c, 2, 60, 0
3, 22224, Note_on_c, 2, 61, 45
3, 22320, Note_on_c, 2, 61, 0
3, 22320, Note_on_c, 2, 63, 45
3, 22366, Note_on_c, 2, 63, 0
3, 22368, Note_on_c, 2, 63, 45
3, 22416, Note_on_c, 2, 63, 0
3, 22416, Note_on_c, 2, 65, 45
3, 22462, Note_on_c, 2, 65, 0
3, 22464, Note_on_c, 2, 65, 45
3, 22608, Note_on_c, 2, 65, 0
3, 22608, Note_on_c, 2, 73, 45
3, 22656, Note_on_c, 2, 73, 0
3, 22656, Note_on_c, 2, 72, 45
3, 22750, Note_on_c, 2, 72, 0
3, 22752, Note_on_c, 2, 73, 45
3, 22800, Note_on_c, 2, 73, 0
3, 22800, Note_on_c, 2, 68, 45
3, 22896, Note_on_c, 2, 68, 0
3, 22896, Note_on_c, 2, 77, 45
3, 22942, Note_on_c, 2, 77, 0
3, 22944, Note_on_c, 2, 75, 45
3, 23038, Note_on_c, 2, 75, 0
3, 23040, Note_on_c, 2, 73, 45
3, 23088, Note_on_c, 2, 73, 0
3, 23088, Note_on_c, 2, 65, 50
3, 23184, Note_on_c, 2, 65, 0
3, 23184, Note_on_c, 2, 73, 60
3, 23230, Note_on_c, 2, 73, 0
3, 23232, Note_on_c, 2, 72, 65
3, 23326, Note_on_c, 2, 72, 0
3, 23328, Note_on_c, 2, 73, 75
3, 23376, Note_on_c, 2, 73, 0
3, 23376, Note_on_c, 2, 61, 70
3, 23472, Note_on_c, 2, 61, 0
3, 23472, Note_on_c, 2, 65, 60
3, 23518, Note_on_c, 2, 65, 0
3, 23520, Note_on_c, 2, 63, 55
3, 23616, Note_on_c, 2, 63, 0
3, 23616, Note_on_c, 2, 63, 45
3, 23664, Note_on_c, 2, 63, 0
3, 23664, Note_on_c, 2, 61, 50
3, 23760, Note_on_c, 2, 61, 0
3, 23760, Note_on_c, 2, 68, 60
3, 23806, Note_on_c, 2, 68, 0
3, 23808, Note_on_c, 2, 66, 65
3, 23952, Note_on_c, 2, 66, 0
3, 23952, Note_on_c, 2, 65, 70
3, 24048, Note_on_c, 2, 65, 0
3, 24048, Note_on_c, 2, 66, 60
3, 24094, Note_on_c, 2, 66, 0
3, 24096, Note_on_c, 2, 66, 55
3, 24144, Note_on_c, 2, 66, 0
3, 24144, Note_on_c, 2, 63, 50
3, 24190, Note_on_c, 2, 63, 0
3, 24192, Note_on_c, 2, 61, 45
3, 24238, Note_on_c, 2, 61, 0
3, 24288, Note_on_c, 2, 56, 45
3, 24336, Note_on_c, 2, 56, 0
3, 24336, Note_on_c, 2, 61, 45
3, 24384, Note_on_c, 2, 61, 0
3, 24384, Note_on_c, 2, 64, 45
3, 24432, Note_on_c, 2, 64, 0
3, 24432, Note_on_c, 2, 65, 45
3, 24478, Note_on_c, 2, 65, 0
3, 24576, Note_on_c, 2, 56, 45
3, 24624, Note_on_c, 2, 56, 0
3, 24624, Note_on_c, 2, 60, 45
3, 24672, Note_on_c, 2, 60, 0
3, 24672, Note_on_c, 2, 65, 45
3, 24720, Note_on_c, 2, 65, 0
3, 24720, Note_on_c, 2, 66, 45
3, 24766, Note_on_c, 2, 66, 0
3, 24864, Note_on_c, 2, 56, 45
3, 24912, Note_on_c, 2, 56, 0
3, 24912, Note_on_c, 2, 61, 45
3, 24960, Note_on_c, 2, 61, 0
3, 24960, Note_on_c, 2, 64, 45
3, 25008, Note_on_c, 2, 64, 0
3, 25008, Note_on_c, 2, 65, 45
3, 25054, Note_on_c, 2, 65, 0
3, 25152, Note_on_c, 2, 56, 45
3, 25200, Note_on_c, 2, 56, 0
3, 25200, Note_on_c, 2, 63, 45
3, 25248, Note_on_c, 2, 63, 0
3, 25248, Note_on_c, 2, 65, 45
3, 25296, Note_on_c, 2, 65, 0
3, 25296, Note_on_c, 2, 66, 45
3, 25342, Note_on_c, 2, 66, 0
3, 25440, Note_on_c, 2, 56, 45
3, 25488, Note_on_c, 2, 56, 0
3, 25488, Note_on_c, 2, 61, 45
3, 25536, Note_on_c, 2, 61, 0
3, 25536, Note_on_c, 2, 65, 45
3, 25582, Note_on_c, 2, 65, 0
3, 25584, Note_on_c, 2, 65, 45
3, 25630, Note_on_c, 2, 65, 0
3, 25728, Note_on_c, 2, 56, 45
3, 25776, Note_on_c, 2, 56, 0
3, 25776, Note_on_c, 2, 60, 45
3, 25824, Note_on_c, 2, 60, 0
3, 25824, Note_on_c, 2, 65, 45
3, 25872, Note_on_c, 2, 65, 0
3, 25872, Note_on_c, 2, 66, 45
3, 25918, Note_on_c, 2, 66, 0
3, 26016, Note_on_c, 2, 56, 45
3, 26064, Note_on_c, 2, 56, 0
3, 26064, Note_on_c, 2, 61, 45
3, 26112, Note_on_c, 2, 61, 0
3, 26112, Note_on_c, 2, 64, 45
3, 26160, Note_on_c, 2, 64, 0
3, 26160, Note_on_c, 2, 65, 45
3, 26206, Note_on_c, 2, 65, 0
3, 26304, Note_on_c, 2, 56, 45
3, 26352, Note_on_c, 2, 56, 0
3, 26352, Note_on_c, 2, 60, 45
3, 26400, Note_on_c, 2, 60, 0
3, 26400, Note_on_c, 2, 63, 45
3, 26448, Note_on_c, 2, 63, 0
3, 26448, Note_on_c, 2, 66, 45
3, 26494, Note_on_c, 2, 66, 0
3, 26592, Note_on_c, 2, 63, 45
3, 26640, Note_on_c, 2, 63, 0
3, 26640, Note_on_c, 2, 65, 45
3, 26688, Note_on_c, 2, 65, 0
3, 26688, Note_on_c, 2, 69, 45
3, 26736, Note_on_c, 2, 69, 0
3, 26736, Note_on_c, 2, 72, 45
3, 26782, Note_on_c, 2, 72, 0
3, 26880, Note_on_c, 2, 62, 45
3, 26928, Note_on_c, 2, 62, 0
3, 26928, Note_on_c, 2, 65, 45
3, 26976, Note_on_c, 2, 65, 0
3, 26976, Note_on_c, 2, 68, 45
3, 27024, Note_on_c, 2, 68, 0
3, 27024, Note_on_c, 2, 70, 45
3, 27070, Note_on_c, 2, 70, 0
3, 27168, Note_on_c, 2, 61, 45
3, 27216, Note_on_c, 2, 61, 0
3, 27216, Note_on_c, 2, 63, 45
3, 27264, Note_on_c, 2, 63, 0
3, 27264, Note_on_c, 2, 67, 45
3, 27312, Note_on_c, 2, 67, 0
3, 27312, Note_on_c, 2, 70, 46
3, 27358, Note_on_c, 2, 70, 0
3, 27456, Note_on_c, 2, 60, 50
3, 27504, Note_on_c, 2, 60, 0
3, 27504, Note_on_c, 2, 63, 51
3, 27552, Note_on_c, 2, 63, 0
3, 27552, Note_on_c, 2, 66, 52
3, 27600, Note_on_c, 2, 66, 0
3, 27600, Note_on_c, 2, 68, 53
3, 27646, Note_on_c, 2, 68, 0
3, 27744, Note_on_c, 2, 60, 59
3, 27792, Note_on_c, 2, 60, 0
3, 27792, Note_on_c, 2, 63, 61
3, 27840, Note_on_c, 2, 63, 0
3, 27840, Note_on_c, 2, 66, 63
3, 27888, Note_on_c, 2, 66, 0
3, 27888, Note_on_c, 2, 68, 65
3, 27934, Note_on_c, 2, 68, 0
3, 28032, Note_on_c, 2, 61, 71
3, 28080, Note_on_c, 2, 61, 0
3, 28080, Note_on_c, 2, 65, 73
3, 28128, Note_on_c, 2, 65, 0
3, 28128, Note_on_c, 2, 68, 75
3, 28176, Note_on_c, 2, 68, 0
3, 28176, Note_on_c, 2, 73, 68
3, 28222, Note_on_c, 2, 73, 0
3, 28320, Note_on_c, 2, 61, 45
3, 28368, Note_on_c, 2, 61, 0
3, 28368, Note_on_c, 2, 65, 45
3, 28416, Note_on_c, 2, 65, 0
3, 28416, Note_on_c, 2, 63, 45
3, 28464, Note_on_c, 2, 63, 0
3, 28464, Note_on_c, 2, 68, 45
3, 28510, Note_on_c, 2, 68, 0
3, 28608, Note_on_c, 2, 61, 45
3, 28656, Note_on_c, 2, 61, 0
3, 28656, Note_on_c, 2, 65, 45
3, 28704, Note_on_c, 2, 65, 0
3, 28704, Note_on_c, 2, 68, 45
3, 28752, Note_on_c, 2, 68, 0
3, 28752, Note_on_c, 2, 73, 45
3, 28798, Note_on_c, 2, 73, 0
3, 28896, Note_on_c, 2, 62, 45
3, 28944, Note_on_c, 2, 62, 0
3, 28944, Note_on_c, 2, 65, 47
3, 28992, Note_on_c, 2, 65, 0
3, 28992, Note_on_c, 2, 68, 49
3, 29040, Note_on_c, 2, 68, 0
3, 29040, Note_on_c, 2, 71, 51
3, 29086, Note_on_c, 2, 71, 0
3, 29184, Note_on_c, 2, 63, 81
3, 29232, Note_on_c, 2, 63, 0
3, 29232, Note_on_c, 2, 66, 60
3, 29280, Note_on_c, 2, 66, 0
3, 29280, Note_on_c, 2, 70, 63
3, 29326, Note_on_c, 2, 70, 0
3, 29328, Note_on_c, 2, 70, 66
3, 29374, Note_on_c, 2, 70, 0
3, 29472, Note_on_c, 2, 68, 45
3, 29520, Note_on_c, 2, 68, 0
3, 29520, Note_on_c, 2, 73, 45
3, 29568, Note_on_c, 2, 73, 0
3, 29568, Note_on_c, 2, 77, 45
3, 29616, Note_on_c, 2, 77, 0
3, 29616, Note_on_c, 2, 75, 45
3, 29662, Note_on_c, 2, 75, 0
3, 29760, Note_on_c, 2, 68, 45
3, 29808, Note_on_c, 2, 68, 0
3, 29808, Note_on_c, 2, 73, 44
3, 29950, Note_on_c, 2, 73, 0
3, 30048, Note_on_c, 2, 56, 39
3, 30096, Note_on_c, 2, 56, 0
3, 30096, Note_on_c, 2, 61, 38
3, 30238, Note_on_c, 2, 61, 0
3, 30336, Note_on_c, 2, 56, 30
3, 30384, Note_on_c, 2, 56, 0
3, 30384, Note_on_c, 2, 61, 30
3, 30526, Note_on_c, 2, 61, 0
3, 30624, Note_on_c, 2, 56, 30
3, 30672, Note_on_c, 2, 56, 0
3, 30672, Note_on_c, 2, 61, 30
3, 30720, Note_on_c, 2, 61, 0
3, 30720, Note_on_c, 2, 65, 30
3, 30768, Note_on_c, 2, 65, 0
3, 30768, Note_on_c, 2, 68, 30
3, 30814, Note_on_c, 2, 68, 0
3, 30816, Note_on_c, 2, 65, 30
3, 30816, Note_on_c, 2, 73, 30
3, 31264, Note_on_c, 2, 65, 0
3, 31264, Note_on_c, 2, 73, 0
3, 31264, End_track
4, 0, Start_track
4, 0, MIDI_port, 0
4, 0, Title_t, "Viola."
4, 0, Program_c, 3, 0
4, 0, Control_c, 3, 7, 127
4, 0, Control_c, 3, 10, 64
4, 0, Note_on_c, 3, 53, 45
4, 576, Note_on_c, 3, 53, 0
4, 576, Note_on_c, 3, 53, 45
4, 864, Note_on_c, 3, 53, 0
4, 864, Note_on_c, 3, 53, 60
4, 1120, Note_on_c, 3, 53, 0
4, 1152, Note_on_c, 3, 53, 45
4, 1440, Note_on_c, 3, 53, 0
4, 1440, Note_on_c, 3, 54, 45
4, 1728, Note_on_c, 3, 54, 0
4, 1728, Note_on_c, 3, 53, 45
4, 2016, Note_on_c, 3, 53, 0
4, 2016, Note_on_c, 3, 54, 45
4, 2272, Note_on_c, 3, 54, 0
4, 2304, Note_on_c, 3, 53, 45
4, 2592, Note_on_c, 3, 53, 0
4, 2592, Note_on_c, 3, 54, 45
4, 2848, Note_on_c, 3, 54, 0
4, 2880, Note_on_c, 3, 53, 45
4, 3072, Note_on_c, 3, 53, 0
4, 3072, Note_on_c, 3, 49, 45
4, 3168, Note_on_c, 3, 49, 0
4, 3168, Note_on_c, 3, 48, 45
4, 3360, Note_on_c, 3, 48, 0
4, 3360, Note_on_c, 3, 51, 45
4, 3648, Note_on_c, 3, 51, 0
4, 3648, Note_on_c, 3, 48, 65
4, 3744, Note_on_c, 3, 48, 0
4, 3744, Note_on_c, 3, 49, 45
4, 4000, Note_on_c, 3, 49, 0
4, 4032, Note_on_c, 3, 50, 45
4, 4224, Note_on_c, 3, 50, 0
4, 4224, Note_on_c, 3, 53, 65
4, 4320, Note_on_c, 3, 53, 0
4, 4320, Note_on_c, 3, 54, 45
4, 4576, Note_on_c, 3, 54, 0
4, 4608, Note_on_c, 3, 54, 45
4, 4800, Note_on_c, 3, 54, 0
4, 4800, Note_on_c, 3, 51, 55
4, 4896, Note_on_c, 3, 51, 0
4, 4896, Note_on_c, 3, 53, 60
4, 5152, Note_on_c, 3, 53, 0
4, 5184, Note_on_c, 3, 53, 45
4, 5376, Note_on_c, 3, 53, 0
4, 5376, Note_on_c, 3, 54, 45
4, 5472, Note_on_c, 3, 54, 0
4, 5472, Note_on_c, 3, 53, 45
4, 5728, Note_on_c, 3, 53, 0
4, 5760, Note_on_c, 3, 53, 75
4, 5952, Note_on_c, 3, 53, 0
4, 5952, Note_on_c, 3, 54, 55
4, 6048, Note_on_c, 3, 54, 0
4, 6048, Note_on_c, 3, 53, 45
4, 6240, Note_on_c, 3, 53, 0
4, 6240, Note_on_c, 3, 49, 65
4, 6334, Note_on_c, 3, 49, 0
4, 6336, Note_on_c, 3, 49, 75
4, 6528, Note_on_c, 3, 49, 0
4, 6528, Note_on_c, 3, 48, 55
4, 6622, Note_on_c, 3, 48, 0
4, 6624, Note_on_c, 3, 53, 45
4, 6720, Note_on_c, 3, 53, 0
4, 6720, Note_on_c, 3, 54, 44
4, 6816, Note_on_c, 3, 54, 0
4, 6816, Note_on_c, 3, 51, 43
4, 6910, Note_on_c, 3, 51, 0
4, 7008, Note_on_c, 3, 65, 41
4, 7168, Note_on_c, 3, 65, 0
4, 7200, Note_on_c, 3, 66, 39
4, 7456, Note_on_c, 3, 66, 0
4, 7488, Note_on_c, 3, 65, 36
4, 7776, Note_on_c, 3, 65, 0
4, 7776, Note_on_c, 3, 63, 33
4, 7872, Note_on_c, 3, 63, 0
4, 7872, Note_on_c, 3, 65, 32
4, 7968, Note_on_c, 3, 65, 0
4, 7968, Note_on_c, 3, 66, 31
4, 8062, Note_on_c, 3, 66, 0
4, 8064, Note_on_c, 3, 66, 30
4, 8256, Note_on_c, 3, 66, 0
4, 8256, Note_on_c, 3, 65, 32
4, 8350, Note_on_c, 3, 65, 0
4, 8352, Note_on_c, 3, 65, 33
4, 8544, Note_on_c, 3, 65, 0
4, 8544, Note_on_c, 3, 66, 35
4, 8638, Note_on_c, 3, 66, 0
4, 8640, Note_on_c, 3, 66, 36
4, 8832, Note_on_c, 3, 66, 0
4, 8832, Note_on_c, 3, 65, 38
4, 8926, Note_on_c, 3, 65, 0
4, 8928, Note_on_c, 3, 65, 39
4, 9120, Note_on_c, 3, 65, 0
4, 9120, Note_on_c, 3, 63, 41
4, 9214, Note_on_c, 3, 63, 0
4, 9216, Note_on_c, 3, 61, 58
4, 9312, Note_on_c, 3, 61, 0
4, 9312, Note_on_c, 3, 67, 43
4, 9408, Note_on_c, 3, 67, 0
4, 9408, Note_on_c, 3, 69, 44
4, 9502, Note_on_c, 3, 69, 0
4, 9600, Note_on_c, 3, 69, 45
4, 9696, Note_on_c, 3, 69, 0
4, 9696, Note_on_c, 3, 65, 45
4, 9790, Note_on_c, 3, 65, 0
4, 9792, Note_on_c, 3, 63, 63
4, 9984, Note_on_c, 3, 63, 0
4, 9984, Note_on_c, 3, 65, 45
4, 10078, Note_on_c, 3, 65, 0
4, 10176, Note_on_c, 3, 65, 45
4, 10272, Note_on_c, 3, 65, 0
4, 10272, Note_on_c, 3, 66, 45
4, 10366, Note_on_c, 3, 66, 0
4, 10368, Note_on_c, 3, 64, 63
4, 10560, Note_on_c, 3, 64, 0
4, 10560, Note_on_c, 3, 63, 45
4, 10654, Note_on_c, 3, 63, 0
4, 10656, Note_on_c, 3, 75, 45
4, 10848, Note_on_c, 3, 75, 0
4, 10848, Note_on_c, 3, 73, 45
4, 10942, Note_on_c, 3, 73, 0
4, 11040, Note_on_c, 3, 73, 55
4, 11136, Note_on_c, 3, 73, 0
4, 11136, Note_on_c, 3, 72, 65
4, 11230, Note_on_c, 3, 72, 0
4, 11232, Note_on_c, 3, 72, 75
4, 11328, Note_on_c, 3, 72, 0
4, 11328, Note_on_c, 3, 68, 65
4, 11488, Note_on_c, 3, 68, 0
4, 11520, Note_on_c, 3, 56, 45
4, 11808, Note_on_c, 3, 56, 0
4, 11808, Note_on_c, 3, 56, 75
4, 12000, Note_on_c, 3, 56, 0
4, 12000, Note_on_c, 3, 61, 55
4, 12094, Note_on_c, 3, 61, 0
4, 12192, Note_on_c, 3, 49, 55
4, 12288, Note_on_c, 3, 49, 0
4, 12288, Note_on_c, 3, 54, 65
4, 12382, Note_on_c, 3, 54, 0
4, 12384, Note_on_c, 3, 54, 75
4, 12480, Note_on_c, 3, 54, 0
4, 12480, Note_on_c, 3, 53, 60
4, 12576, Note_on_c, 3, 53, 0
4, 12576, Note_on_c, 3, 52, 45
4, 12670, Note_on_c, 3, 52, 0
4, 12672, Note_on_c, 3, 52, 30
4, 12832, Note_on_c, 3, 52, 0
4, 12912, Note_on_c, 3, 52, 30
4, 12958, Note_on_c, 3, 52, 0
4, 12960, Note_on_c, 3, 54, 30
4, 13120, Note_on_c, 3, 54, 0
4, 13200, Note_on_c, 3, 54, 30
4, 13246, Note_on_c, 3, 54, 0
4, 13248, Note_on_c, 3, 52, 30
4, 13408, Note_on_c, 3, 52, 0
4, 13488, Note_on_c, 3, 52, 30
4, 13534, Note_on_c, 3, 52, 0
4, 13536, Note_on_c, 3, 51, 30
4, 13630, Note_on_c, 3, 51, 0
4, 13680, Note_on_c, 3, 51, 30
4, 13714, Note_on_c, 3, 51, 0
4, 13728, Note_on_c, 3, 51, 40
4, 13762, Note_on_c, 3, 51, 0
4, 13776, Note_on_c, 3, 56, 50
4, 13808, Note_on_c, 3, 56, 0
4, 13824, Note_on_c, 3, 56, 30
4, 13984, Note_on_c, 3, 56, 0
4, 14064, Note_on_c, 3, 59, 30
4, 14110, Note_on_c, 3, 59, 0
4, 14112, Note_on_c, 3, 59, 30
4, 14272, Note_on_c, 3, 59, 0
4, 14352, Note_on_c, 3, 59, 30
4, 14398, Note_on_c, 3, 59, 0
4, 14400, Note_on_c, 3, 59, 30
4, 14560, Note_on_c, 3, 59, 0
4, 14640, Note_on_c, 3, 56, 30
4, 14686, Note_on_c, 3, 56, 0
4, 14688, Note_on_c, 3, 54, 30
4, 14782, Note_on_c, 3, 54, 0
4, 14832, Note_on_c, 3, 54, 30
4, 14866, Note_on_c, 3, 54, 0
4, 14880, Note_on_c, 3, 52, 40
4, 14914, Note_on_c, 3, 52, 0
4, 14928, Note_on_c, 3, 57, 50
4, 14960, Note_on_c, 3, 57, 0
4, 14976, Note_on_c, 3, 56, 30
4, 15136, Note_on_c, 3, 56, 0
4, 15216, Note_on_c, 3, 68, 55
4, 15262, Note_on_c, 3, 68, 0
4, 15264, Note_on_c, 3, 68, 60
4, 15424, Note_on_c, 3, 68, 0
4, 15504, Note_on_c, 3, 68, 35
4, 15550, Note_on_c, 3, 68, 0
4, 15552, Note_on_c, 3, 55, 30
4, 15552, Note_on_c, 3, 67, 30
4, 15712, Note_on_c, 3, 55, 0
4, 15712, Note_on_c, 3, 67, 0
4, 15792, Note_on_c, 3, 61, 55
4, 15838, Note_on_c, 3, 61, 0
4, 15840, Note_on_c, 3, 61, 60
4, 16000, Note_on_c, 3, 61, 0
4, 16080, Note_on_c, 3, 61, 35
4, 16126, Note_on_c, 3, 61, 0
4, 16128, Note_on_c, 3, 57, 30
4, 16288, Note_on_c, 3, 57, 0
4, 16368, Note_on_c, 3, 72, 50
4, 16414, Note_on_c, 3, 72, 0
4, 16416, Note_on_c, 3, 72, 37
4, 16576, Note_on_c, 3, 72, 0
4, 16656, Note_on_c, 3, 58, 45
4, 16702, Note_on_c, 3, 58, 0
4, 16704, Note_on_c, 3, 56, 45
4, 16864, Note_on_c, 3, 56, 0
4, 16944, Note_on_c, 3, 56, 75
4, 16990, Note_on_c, 3, 56, 0
4, 16992, Note_on_c, 3, 56, 68
4, 17086, Note_on_c, 3, 56, 0
4, 17136, Note_on_c, 3, 57, 45
4, 17170, Note_on_c, 3, 57, 0
4, 17184, Note_on_c, 3, 56, 55
4, 17218, Note_on_c, 3, 56, 0
4, 17232, Note_on_c, 3, 57, 65
4, 17264, Note_on_c, 3, 57, 0
4, 17280, Note_on_c, 3, 61, 45
4, 17440, Note_on_c, 3, 61, 0
4, 17520, Note_on_c, 3, 54, 75
4, 17566, Note_on_c, 3, 54, 0
4, 17568, Note_on_c, 3, 52, 68
4, 17662, Note_on_c, 3, 52, 0
4, 17712, Note_on_c, 3, 53, 45
4, 17746, Note_on_c, 3, 53, 0
4, 17760, Note_on_c, 3, 53, 55
4, 17794, Note_on_c, 3, 53, 0
4, 17808, Note_on_c, 3, 54, 65
4, 17840, Note_on_c, 3, 54, 0
4, 17856, Note_on_c, 3, 52, 45
4, 18016, Note_on_c, 3, 52, 0
4, 18096, Note_on_c, 3, 51, 30
4, 18142, Note_on_c, 3, 51, 0
4, 18240, Note_on_c, 3, 53, 30
4, 18336, Note_on_c, 3, 53, 0
4, 18336, Note_on_c, 3, 58, 37
4, 18384, Note_on_c, 3, 58, 0
4, 18384, Note_on_c, 3, 54, 41
4, 18430, Note_on_c, 3, 54, 0
4, 18432, Note_on_c, 3, 53, 45
4, 18528, Note_on_c, 3, 53, 0
4, 18528, Note_on_c, 3, 51, 45
4, 18624, Note_on_c, 3, 51, 0
4, 18624, Note_on_c, 3, 49, 45
4, 18720, Note_on_c, 3, 49, 0
4, 18720, Note_on_c, 3, 48, 45
4, 18816, Note_on_c, 3, 48, 0
4, 18816, Note_on_c, 3, 49, 45
4, 18912, Note_on_c, 3, 49, 0
4, 18912, Note_on_c, 3, 51, 45
4, 19008, Note_on_c, 3, 51, 0
4, 19008, Note_on_c, 3, 53, 45
4, 19104, Note_on_c, 3, 53, 0
4, 19104, Note_on_c, 3, 54, 45
4, 19200, Note_on_c, 3, 54, 0
4, 19200, Note_on_c, 3, 56, 45
4, 19294, Note_on_c, 3, 56, 0
4, 19296, Note_on_c, 3, 56, 45
4, 19392, Note_on_c, 3, 56, 0
4, 19392, Note_on_c, 3, 54, 45
4, 19552, Note_on_c, 3, 54, 0
4, 19584, Note_on_c, 3, 53, 45
4, 19680, Note_on_c, 3, 53, 0
4, 19680, Note_on_c, 3, 51, 45
4, 19776, Note_on_c, 3, 51, 0
4, 19776, Note_on_c, 3, 49, 45
4, 19872, Note_on_c, 3, 49, 0
4, 19872, Note_on_c, 3, 48, 45
4, 19968, Note_on_c, 3, 48, 0
4, 19968, Note_on_c, 3, 56, 45
4, 20112, Note_on_c, 3, 56, 0
4, 20112, Note_on_c, 3, 54, 45
4, 20158, Note_on_c, 3, 54, 0
4, 20160, Note_on_c, 3, 53, 45
4, 20256, Note_on_c, 3, 53, 0
4, 20256, Note_on_c, 3, 54, 45
4, 20352, Note_on_c, 3, 54, 0
4, 20352, Note_on_c, 3, 56, 45
4, 20446, Note_on_c, 3, 56, 0
4, 20448, Note_on_c, 3, 56, 45
4, 20688, Note_on_c, 3, 56, 0
4, 20688, Note_on_c, 3, 55, 45
4, 20734, Note_on_c, 3, 55, 0
4, 20736, Note_on_c, 3, 56, 45
4, 20832, Note_on_c, 3, 56, 0
4, 20832, Note_on_c, 3, 60, 45
4, 20976, Note_on_c, 3, 60, 0
4, 20976, Note_on_c, 3, 57, 45
4, 21072, Note_on_c, 3, 57, 0
4, 21072, Note_on_c, 3, 58, 45
4, 21168, Note_on_c, 3, 58, 0
4, 21168, Note_on_c, 3, 60, 45
4, 21214, Note_on_c, 3, 60, 0
4, 21216, Note_on_c, 3, 60, 45
4, 21264, Note_on_c, 3, 60, 0
4, 21264, Note_on_c, 3, 61, 45
4, 21310, Note_on_c, 3, 61, 0
4, 21312, Note_on_c, 3, 61, 45
4, 21408, Note_on_c, 3, 61, 0
4, 21408, Note_on_c, 3, 62, 45
4, 21648, Note_on_c, 3, 62, 0
4, 21648, Note_on_c, 3, 63, 45
4, 21744, Note_on_c, 3, 63, 0
4, 21744, Note_on_c, 3, 65, 45
4, 21790, Note_on_c, 3, 65, 0
4, 21792, Note_on_c, 3, 65, 45
4, 21840, Note_on_c, 3, 65, 0
4, 21840, Note_on_c, 3, 66, 45
4, 21886, Note_on_c, 3, 66, 0
4, 21888, Note_on_c, 3, 66, 45
4, 21936, Note_on_c, 3, 66, 0
4, 21936, Note_on_c, 3, 54, 45
4, 22126, Note_on_c, 3, 54, 0
4, 22128, Note_on_c, 3, 54, 45
4, 22224, Note_on_c, 3, 54, 0
4, 22224, Note_on_c, 3, 53, 45
4, 22320, Note_on_c, 3, 53, 0
4, 22320, Note_on_c, 3, 54, 45
4, 22366, Note_on_c, 3, 54, 0
4, 22368, Note_on_c, 3, 54, 45
4, 22416, Note_on_c, 3, 54, 0
4, 22416, Note_on_c, 3, 56, 45
4, 22462, Note_on_c, 3, 56, 0
4, 22464, Note_on_c, 3, 61, 45
4, 22560, Note_on_c, 3, 61, 0
4, 22560, Note_on_c, 3, 56, 45
4, 22704, Note_on_c, 3, 56, 0
4, 22704, Note_on_c, 3, 54, 45
4, 22750, Note_on_c, 3, 54, 0
4, 22752, Note_on_c, 3, 53, 45
4, 22800, Note_on_c, 3, 53, 0
4, 22800, Note_on_c, 3, 65, 45
4, 22896, Note_on_c, 3, 65, 0
4, 22896, Note_on_c, 3, 56, 45
4, 22942, Note_on_c, 3, 56, 0
4, 22944, Note_on_c, 3, 54, 45
4, 23038, Note_on_c, 3, 54, 0
4, 23040, Note_on_c, 3, 53, 45
4, 23088, Note_on_c, 3, 53, 0
4, 23088, Note_on_c, 3, 49, 50
4, 23184, Note_on_c, 3, 49, 0
4, 23184, Note_on_c, 3, 53, 60
4, 23230, Note_on_c, 3, 53, 0
4, 23232, Note_on_c, 3, 54, 65
4, 23326, Note_on_c, 3, 54, 0
4, 23328, Note_on_c, 3, 53, 75
4, 23472, Note_on_c, 3, 53, 0
4, 23472, Note_on_c, 3, 61, 60
4, 23518, Note_on_c, 3, 61, 0
4, 23520, Note_on_c, 3, 60, 55
4, 23616, Note_on_c, 3, 60, 0
4, 23616, Note_on_c, 3, 60, 45
4, 23664, Note_on_c, 3, 60, 0
4, 23664, Note_on_c, 3, 53, 50
4, 23760, Note_on_c, 3, 53, 0
4, 23760, Note_on_c, 3, 56, 60
4, 23950, Note_on_c, 3, 56, 0
4, 23952, Note_on_c, 3, 56, 70
4, 24048, Note_on_c, 3, 56, 0
4, 24048, Note_on_c, 3, 58, 60
4, 24094, Note_on_c, 3, 58, 0
4, 24096, Note_on_c, 3, 58, 55
4, 24144, Note_on_c, 3, 58, 0
4, 24144, Note_on_c, 3, 60, 50
4, 24190, Note_on_c, 3, 60, 0
4, 24240, Note_on_c, 3, 53, 45
4, 24288, Note_on_c, 3, 53, 0
4, 24288, Note_on_c, 3, 53, 45
4, 24448, Note_on_c, 3, 53, 0
4, 24528, Note_on_c, 3, 54, 45
4, 24576, Note_on_c, 3, 54, 0
4, 24576, Note_on_c, 3, 54, 45
4, 24736, Note_on_c, 3, 54, 0
4, 24816, Note_on_c, 3, 53, 45
4, 24864, Note_on_c, 3, 53, 0
4, 24864, Note_on_c, 3, 53, 45
4, 25024, Note_on_c, 3, 53, 0
4, 25104, Note_on_c, 3, 54, 45
4, 25152, Note_on_c, 3, 54, 0
4, 25152, Note_on_c, 3, 54, 45
4, 25312, Note_on_c, 3, 54, 0
4, 25392, Note_on_c, 3, 53, 45
4, 25440, Note_on_c, 3, 53, 0
4, 25440, Note_on_c, 3, 53, 45
4, 25600, Note_on_c, 3, 53, 0
4, 25680, Note_on_c, 3, 54, 45
4, 25728, Note_on_c, 3, 54, 0
4, 25728, Note_on_c, 3, 54, 45
4, 25888, Note_on_c, 3, 54, 0
4, 25968, Note_on_c, 3, 53, 45
4, 26016, Note_on_c, 3, 53, 0
4, 26016, Note_on_c, 3, 53, 45
4, 26176, Note_on_c, 3, 53, 0
4, 26256, Note_on_c, 3, 51, 45
4, 26448, Note_on_c, 3, 51, 0
4, 26448, Note_on_c, 3, 49, 45
4, 26494, Note_on_c, 3, 49, 0
4, 26544, Note_on_c, 3, 60, 45
4, 26592, Note_on_c, 3, 60, 0
4, 26592, Note_on_c, 3, 60, 45
4, 26752, Note_on_c, 3, 60, 0
4, 26832, Note_on_c, 3, 58, 45
4, 26880, Note_on_c, 3, 58, 0
4, 26880, Note_on_c, 3, 58, 45
4, 27040, Note_on_c, 3, 58, 0
4, 27120, Note_on_c, 3, 58, 45
4, 27168, Note_on_c, 3, 58, 0
4, 27168, Note_on_c, 3, 58, 45
4, 27328, Note_on_c, 3, 58, 0
4, 27408, Note_on_c, 3, 56, 46
4, 27456, Note_on_c, 3, 56, 0
4, 27456, Note_on_c, 3, 56, 47
4, 27616, Note_on_c, 3, 56, 0
4, 27696, Note_on_c, 3, 56, 55
4, 27744, Note_on_c, 3, 56, 0
4, 27744, Note_on_c, 3, 56, 56
4, 27904, Note_on_c, 3, 56, 0
4, 27984, Note_on_c, 3, 56, 65
4, 28032, Note_on_c, 3, 56, 0
4, 28032, Note_on_c, 3, 56, 67
4, 28192, Note_on_c, 3, 56, 0
4, 28272, Note_on_c, 3, 56, 45
4, 28320, Note_on_c, 3, 56, 0
4, 28320, Note_on_c, 3, 56, 45
4, 28480, Note_on_c, 3, 56, 0
4, 28560, Note_on_c, 3, 56, 45
4, 28608, Note_on_c, 3, 56, 0
4, 28608, Note_on_c, 3, 56, 45
4, 28768, Note_on_c, 3, 56, 0
4, 28848, Note_on_c, 3, 56, 45
4, 28896, Note_on_c, 3, 56, 0
4, 28896, Note_on_c, 3, 56, 47
4, 29056, Note_on_c, 3, 56, 0
4, 29136, Note_on_c, 3, 58, 82
4, 29184, Note_on_c, 3, 58, 0
4, 29184, Note_on_c, 3, 58, 61
4, 29344, Note_on_c, 3, 58, 0
4, 29424, Note_on_c, 3, 65, 45
4, 29520, Note_on_c, 3, 65, 0
4, 29520, Note_on_c, 3, 56, 45
4, 29662, Note_on_c, 3, 56, 0
4, 29712, Note_on_c, 3, 65, 45
4, 29856, Note_on_c, 3, 65, 0
4, 29856, Note_on_c, 3, 70, 42
4, 29904, Note_on_c, 3, 70, 0
4, 29904, Note_on_c, 3, 66, 41
4, 29950, Note_on_c, 3, 66, 0
4, 30000, Note_on_c, 3, 53, 39
4, 30144, Note_on_c, 3, 53, 0
4, 30144, Note_on_c, 3, 58, 35
4, 30192, Note_on_c, 3, 58, 0
4, 30192, Note_on_c, 3, 54, 34
4, 30238, Note_on_c, 3, 54, 0
4, 30288, Note_on_c, 3, 53, 30
4, 30432, Note_on_c, 3, 53, 0
4, 30432, Note_on_c, 3, 58, 30
4, 30480, Note_on_c, 3, 58, 0
4, 30480, Note_on_c, 3, 54, 30
4, 30526, Note_on_c, 3, 54, 0
4, 30576, Note_on_c, 3, 53, 30
4, 30720, Note_on_c, 3, 53, 0
4, 30720, Note_on_c, 3, 53, 30
4, 30816, Note_on_c, 3, 53, 0
4, 30816, Note_on_c, 3, 53, 30
4, 31264, Note_on_c, 3, 53, 0
4, 31264, End_track
5, 0, Start_track
5, 0, MIDI_port, 0
5, 0, Title_t, "Violoncello."
5, 0, Program_c, 4, 0
5, 0, Control_c, 4, 7, 127
5, 0, Control_c, 4, 10, 64
5, 864, Note_on_c, 4, 37, 60
5, 864, Note_on_c, 4, 49, 60
5, 1120, Note_on_c, 4, 37, 0
5, 1120, Note_on_c, 4, 49, 0
5, 1152, Note_on_c, 4, 37, 45
5, 1152, Note_on_c, 4, 44, 45
5, 1440, Note_on_c, 4, 37, 0
5, 1440, Note_on_c, 4, 39, 45
5, 1680, Note_on_c, 4, 44, 0
5, 1696, Note_on_c, 4, 39, 0
5, 1728, Note_on_c, 4, 37, 45
5, 1728, Note_on_c, 4, 44, 45
5, 2016, Note_on_c, 4, 37, 0
5, 2016, Note_on_c, 4, 36, 45
5, 2256, Note_on_c, 4, 44, 0
5, 2272, Note_on_c, 4, 36, 0
5, 2304, Note_on_c, 4, 37, 45
5, 2304, Note_on_c, 4, 44, 45
5, 2592, Note_on_c, 4, 37, 0
5, 2592, Note_on_c, 4, 39, 45
5, 2832, Note_on_c, 4, 44, 0
5, 2848, Note_on_c, 4, 39, 0
5, 2880, Note_on_c, 4, 37, 45
5, 2880, Note_on_c, 4, 44, 45
5, 3136, Note_on_c, 4, 37, 0
5, 3136, Note_on_c, 4, 44, 0
5, 3168, Note_on_c, 4, 44, 45
5, 3360, Note_on_c, 4, 44, 0
5, 3360, Note_on_c, 4, 42, 45
5, 3454, Note_on_c, 4, 42, 0
5, 3456, Note_on_c, 4, 41, 45
5, 3712, Note_on_c, 4, 41, 0
5, 3744, Note_on_c, 4, 46, 45
5, 4000, Note_on_c, 4, 46, 0
5, 4032, Note_on_c, 4, 38, 45
5, 4288, Note_on_c, 4, 38, 0
5, 4320, Note_on_c, 4, 39, 45
5, 4576, Note_on_c, 4, 39, 0
5, 4608, Note_on_c, 4, 36, 45
5, 4896, Note_on_c, 4, 36, 0
5, 4896, Note_on_c, 4, 37, 60
5, 5088, Note_on_c, 4, 37, 0
5, 5088, Note_on_c, 4, 41, 70
5, 5182, Note_on_c, 4, 41, 0
5, 5184, Note_on_c, 4, 44, 45
5, 5440, Note_on_c, 4, 44, 0
5, 5472, Note_on_c, 4, 49, 45
5, 5568, Note_on_c, 4, 49, 0
5, 5568, Note_on_c, 4, 41, 55
5, 5664, Note_on_c, 4, 41, 0
5, 5664, Note_on_c, 4, 42, 65
5, 5760, Note_on_c, 4, 42, 0
5, 5760, Note_on_c, 4, 44, 75
5, 5856, Note_on_c, 4, 44, 0
5, 5856, Note_on_c, 4, 53, 65
5, 5952, Note_on_c, 4, 53, 0
5, 5952, Note_on_c, 4, 51, 55
5, 6046, Note_on_c, 4, 51, 0
5, 6048, Note_on_c, 4, 49, 45
5, 6240, Note_on_c, 4, 49, 0
5, 6240, Note_on_c, 4, 46, 65
5, 6334, Note_on_c, 4, 46, 0
5, 6336, Note_on_c, 4, 44, 75
5, 6592, Note_on_c, 4, 44, 0
5, 6624, Note_on_c, 4, 49, 45
5, 6718, Note_on_c, 4, 49, 0
5, 6720, Note_on_c, 4, 49, 44
5, 6814, Note_on_c, 4, 49, 0
5, 6816, Note_on_c, 4, 49, 43
5, 6910, Note_on_c, 4, 49, 0
5, 6912, Note_on_c, 4, 49, 42
5, 7008, Note_on_c, 4, 49, 0
5, 7008, Note_on_c, 4, 61, 41
5, 7168, Note_on_c, 4, 61, 0
5, 7200, Note_on_c, 4, 63, 39
5, 7488, Note_on_c, 4, 63, 0
5, 7488, Note_on_c, 4, 61, 36
5, 7776, Note_on_c, 4, 61, 0
5, 7776, Note_on_c, 4, 60, 33
5, 8158, Note_on_c, 4, 60, 0
5, 8160, Note_on_c, 4, 60, 31
5, 8256, Note_on_c, 4, 60, 0
5, 8256, Note_on_c, 4, 61, 32
5, 8350, Note_on_c, 4, 61, 0
5, 8352, Note_on_c, 4, 61, 33
5, 8544, Note_on_c, 4, 61, 0
5, 8544, Note_on_c, 4, 63, 35
5, 8638, Note_on_c, 4, 63, 0
5, 8640, Note_on_c, 4, 63, 36
5, 8832, Note_on_c, 4, 63, 0
5, 8832, Note_on_c, 4, 61, 38
5, 8926, Note_on_c, 4, 61, 0
5, 8928, Note_on_c, 4, 59, 39
5, 9120, Note_on_c, 4, 59, 0
5, 9120, Note_on_c, 4, 60, 41
5, 9214, Note_on_c, 4, 60, 0
5, 9216, Note_on_c, 4, 58, 58
5, 9408, Note_on_c, 4, 58, 0
5, 9408, Note_on_c, 4, 57, 44
5, 9502, Note_on_c, 4, 57, 0
5, 9600, Note_on_c, 4, 53, 45
5, 9696, Note_on_c, 4, 53, 0
5, 9696, Note_on_c, 4, 58, 45
5, 9790, Note_on_c, 4, 58, 0
5, 9792, Note_on_c, 4, 59, 63
5, 9984, Note_on_c, 4, 59, 0
5, 9984, Note_on_c, 4, 58, 45
5, 10078, Note_on_c, 4, 58, 0
5, 10176, Note_on_c, 4, 62, 45
5, 10272, Note_on_c, 4, 62, 0
5, 10272, Note_on_c, 4, 63, 45
5, 10366, Note_on_c, 4, 63, 0
5, 10368, Note_on_c, 4, 61, 63
5, 10560, Note_on_c, 4, 61, 0
5, 10560, Note_on_c, 4, 60, 45
5, 10654, Note_on_c, 4, 60, 0
5, 10656, Note_on_c, 4, 60, 45
5, 10848, Note_on_c, 4, 60, 0
5, 10848, Note_on_c, 4, 61, 45
5, 10942, Note_on_c, 4, 61, 0
5, 11040, Note_on_c, 4, 68, 55
5, 11136, Note_on_c, 4, 68, 0
5, 11136, Note_on_c, 4, 66, 65
5, 11230, Note_on_c, 4, 66, 0
5, 11232, Note_on_c, 4, 66, 75
5, 11328, Note_on_c, 4, 66, 0
5, 11328, Note_on_c, 4, 65, 65
5, 11488, Note_on_c, 4, 65, 0
5, 11616, Note_on_c, 4, 68, 55
5, 11712, Note_on_c, 4, 68, 0
5, 11712, Note_on_c, 4, 66, 65
5, 11806, Note_on_c, 4, 66, 0
5, 11808, Note_on_c, 4, 66, 75
5, 11904, Note_on_c, 4, 66, 0
5, 11904, Note_on_c, 4, 65, 65
5, 12064, Note_on_c, 4, 65, 0
5, 12192, Note_on_c, 4, 41, 55
5, 12288, Note_on_c, 4, 41, 0
5, 12288, Note_on_c, 4, 39, 65
5, 12382, Note_on_c, 4, 39, 0
5, 12384, Note_on_c, 4, 39, 75
5, 12480, Note_on_c, 4, 39, 0
5, 12480, Note_on_c, 4, 37, 60
5, 12640, Note_on_c, 4, 37, 0
5, 12672, Note_on_c, 4, 37, 30
5, 12832, Note_on_c, 4, 37, 0
5, 12912, Note_on_c, 4, 37, 30
5, 12958, Note_on_c, 4, 37, 0
5, 12960, Note_on_c, 4, 39, 30
5, 13120, Note_on_c, 4, 39, 0
5, 13200, Note_on_c, 4, 39, 30
5, 13246, Note_on_c, 4, 39, 0
5, 13248, Note_on_c, 4, 37, 30
5, 13408, Note_on_c, 4, 37, 0
5, 13488, Note_on_c, 4, 44, 30
5, 13534, Note_on_c, 4, 44, 0
5, 13536, Note_on_c, 4, 44, 30
5, 13630, Note_on_c, 4, 44, 0
5, 13680, Note_on_c, 4, 44, 30
5, 13714, Note_on_c, 4, 44, 0
5, 13728, Note_on_c, 4, 44, 40
5, 13762, Note_on_c, 4, 44, 0
5, 13776, Note_on_c, 4, 44, 50
5, 13808, Note_on_c, 4, 44, 0
5, 13824, Note_on_c, 4, 40, 30
5, 13984, Note_on_c, 4, 40, 0
5, 14064, Note_on_c, 4, 52, 30
5, 14110, Note_on_c, 4, 52, 0
5, 14112, Note_on_c, 4, 54, 30
5, 14272, Note_on_c, 4, 54, 0
5, 14352, Note_on_c, 4, 54, 30
5, 14398, Note_on_c, 4, 54, 0
5, 14400, Note_on_c, 4, 52, 30
5, 14560, Note_on_c, 4, 52, 0
5, 14640, Note_on_c, 4, 52, 30
5, 14686, Note_on_c, 4, 52, 0
5, 14688, Note_on_c, 4, 47, 30
5, 14782, Note_on_c, 4, 47, 0
5, 14832, Note_on_c, 4, 45, 30
5, 14866, Note_on_c, 4, 45, 0
5, 14880, Note_on_c, 4, 44, 40
5, 14914, Note_on_c, 4, 44, 0
5, 14928, Note_on_c, 4, 42, 50
5, 14960, Note_on_c, 4, 42, 0
5, 14976, Note_on_c, 4, 41, 30
5, 15136, Note_on_c, 4, 41, 0
5, 15216, Note_on_c, 4, 41, 55
5, 15262, Note_on_c, 4, 41, 0
5, 15264, Note_on_c, 4, 41, 60
5, 15424, Note_on_c, 4, 41, 0
5, 15504, Note_on_c, 4, 41, 35
5, 15550, Note_on_c, 4, 41, 0
5, 15552, Note_on_c, 4, 46, 30
5, 15712, Note_on_c, 4, 46, 0
5, 15792, Note_on_c, 4, 46, 55
5, 15838, Note_on_c, 4, 46, 0
5, 15840, Note_on_c, 4, 46, 60
5, 16000, Note_on_c, 4, 46, 0
5, 16080, Note_on_c, 4, 46, 35
5, 16126, Note_on_c, 4, 46, 0
5, 16128, Note_on_c, 4, 48, 30
5, 16288, Note_on_c, 4, 48, 0
5, 16368, Note_on_c, 4, 45, 50
5, 16414, Note_on_c, 4, 45, 0
5, 16416, Note_on_c, 4, 45, 37
5, 16576, Note_on_c, 4, 45, 0
5, 16656, Note_on_c, 4, 43, 45
5, 16702, Note_on_c, 4, 43, 0
5, 16704, Note_on_c, 4, 44, 45
5, 16864, Note_on_c, 4, 44, 0
5, 16944, Note_on_c, 4, 51, 75
5, 16990, Note_on_c, 4, 51, 0
5, 16992, Note_on_c, 4, 49, 68
5, 17086, Note_on_c, 4, 49, 0
5, 17136, Note_on_c, 4, 42, 45
5, 17170, Note_on_c, 4, 42, 0
5, 17184, Note_on_c, 4, 42, 55
5, 17218, Note_on_c, 4, 42, 0
5, 17232, Note_on_c, 4, 42, 65
5, 17264, Note_on_c, 4, 42, 0
5, 17280, Note_on_c, 4, 44, 45
5, 17440, Note_on_c, 4, 44, 0
5, 17520, Note_on_c, 4, 51, 75
5, 17566, Note_on_c, 4, 51, 0
5, 17568, Note_on_c, 4, 49, 68
5, 17662, Note_on_c, 4, 49, 0
5, 17712, Note_on_c, 4, 49, 45
5, 17746, Note_on_c, 4, 49, 0
5, 17760, Note_on_c, 4, 47, 55
5, 17794, Note_on_c, 4, 47, 0
5, 17808, Note_on_c, 4, 45, 65
5, 17840, Note_on_c, 4, 45, 0
5, 17856, Note_on_c, 4, 44, 45
5, 18016, Note_on_c, 4, 44, 0
5, 18096, Note_on_c, 4, 44, 30
5, 18142, Note_on_c, 4, 44, 0
5, 18336, Note_on_c, 4, 37, 37
5, 18336, Note_on_c, 4, 49, 37
5, 18432, Note_on_c, 4, 37, 0
5, 18432, Note_on_c, 4, 49, 0
5, 18432, Note_on_c, 4, 37, 45
5, 18432, Note_on_c, 4, 49, 45
5, 18528, Note_on_c, 4, 37, 0
5, 18528, Note_on_c, 4, 49, 0
5, 18528, Note_on_c, 4, 48, 45
5, 18624, Note_on_c, 4, 48, 0
5, 18624, Note_on_c, 4, 46, 45
5, 18720, Note_on_c, 4, 46, 0
5, 18720, Note_on_c, 4, 44, 45
5, 18816, Note_on_c, 4, 44, 0
5, 18816, Note_on_c, 4, 46, 45
5, 18912, Note_on_c, 4, 46, 0
5, 18912, Note_on_c, 4, 48, 45
5, 19006, Note_on_c, 4, 48, 0
5, 19008, Note_on_c, 4, 49, 45
5, 19104, Note_on_c, 4, 49, 0
5, 19104, Note_on_c, 4, 51, 45
5, 19200, Note_on_c, 4, 51, 0
5, 19200, Note_on_c, 4, 53, 45
5, 19294, Note_on_c, 4, 53, 0
5, 19296, Note_on_c, 4, 53, 45
5, 19392, Note_on_c, 4, 53, 0
5, 19392, Note_on_c, 4, 51, 45
5, 19552, Note_on_c, 4, 51, 0
5, 19584, Note_on_c, 4, 49, 45
5, 19680, Note_on_c, 4, 49, 0
5, 19680, Note_on_c, 4, 48, 45
5, 19776, Note_on_c, 4, 48, 0
5, 19776, Note_on_c, 4, 46, 45
5, 19872, Note_on_c, 4, 46, 0
5, 19872, Note_on_c, 4, 44, 45
5, 19968, Note_on_c, 4, 44, 0
5, 19968, Note_on_c, 4, 46, 45
5, 20064, Note_on_c, 4, 46, 0
5, 20064, Note_on_c, 4, 48, 45
5, 20158, Note_on_c, 4, 48, 0
5, 20160, Note_on_c, 4, 49, 45
5, 20256, Note_on_c, 4, 49, 0
5, 20256, Note_on_c, 4, 51, 45
5, 20352, Note_on_c, 4, 51, 0
5, 20352, Note_on_c, 4, 53, 45
5, 20446, Note_on_c, 4, 53, 0
5, 20448, Note_on_c, 4, 53, 45
5, 20544, Note_on_c, 4, 53, 0
5, 20544, Note_on_c, 4, 51, 45
5, 20688, Note_on_c, 4, 51, 0
5, 20688, Note_on_c, 4, 52, 45
5, 20734, Note_on_c, 4, 52, 0
5, 20736, Note_on_c, 4, 53, 45
5, 20896, Note_on_c, 4, 53, 0
5, 20928, Note_on_c, 4, 53, 45
5, 21022, Note_on_c, 4, 53, 0
5, 21024, Note_on_c, 4, 53, 45
5, 21120, Note_on_c, 4, 53, 0
5, 21120, Note_on_c, 4, 49, 45
5, 21216, Note_on_c, 4, 49, 0
5, 21216, Note_on_c, 4, 46, 45
5, 21310, Note_on_c, 4, 46, 0
5, 21312, Note_on_c, 4, 58, 45
5, 21472, Note_on_c, 4, 58, 0
5, 21504, Note_on_c, 4, 58, 45
5, 21598, Note_on_c, 4, 58, 0
5, 21600, Note_on_c, 4, 58, 45
5, 21696, Note_on_c, 4, 58, 0
5, 21696, Note_on_c, 4, 54, 45
5, 21792, Note_on_c, 4, 54, 0
5, 21792, Note_on_c, 4, 51, 45
5, 21886, Note_on_c, 4, 51, 0
5, 21888, Note_on_c, 4, 56, 45
5, 22048, Note_on_c, 4, 56, 0
5, 22080, Note_on_c, 4, 56, 45
5, 22174, Note_on_c, 4, 56, 0
5, 22176, Note_on_c, 4, 56, 45
5, 22272, Note_on_c, 4, 56, 0
5, 22272, Note_on_c, 4, 53, 45
5, 22368, Note_on_c, 4, 53, 0
5, 22368, Note_on_c, 4, 49, 45
5, 22462, Note_on_c, 4, 49, 0
5, 22464, Note_on_c, 4, 44, 45
5, 22560, Note_on_c, 4, 44, 0
5, 22560, Note_on_c, 4, 53, 45
5, 22656, Note_on_c, 4, 53, 0
5, 22656, Note_on_c, 4, 51, 45
5, 22752, Note_on_c, 4, 51, 0
5, 22752, Note_on_c, 4, 49, 45
5, 22848, Note_on_c, 4, 49, 0
5, 22848, Note_on_c, 4, 41, 45
5, 22944, Note_on_c, 4, 41, 0
5, 22944, Note_on_c, 4, 42, 45
5, 23038, Note_on_c, 4, 42, 0
5, 23040, Note_on_c, 4, 44, 45
5, 23328, Note_on_c, 4, 44, 0
5, 23328, Note_on_c, 4, 44, 75
5, 23424, Note_on_c, 4, 44, 0
5, 23424, Note_on_c, 4, 41, 65
5, 23520, Note_on_c, 4, 41, 0
5, 23520, Note_on_c, 4, 42, 55
5, 23616, Note_on_c, 4, 42, 0
5, 23616, Note_on_c, 4, 44, 45
5, 23712, Note_on_c, 4, 44, 0
5, 23712, Note_on_c, 4, 53, 55
5, 23808, Note_on_c, 4, 53, 0
5, 23808, Note_on_c, 4, 51, 65
5, 23902, Note_on_c, 4, 51, 0
5, 23904, Note_on_c, 4, 49, 75
5, 23998, Note_on_c, 4, 49, 0
5, 24000, Note_on_c, 4, 49, 65
5, 24094, Note_on_c, 4, 49, 0
5, 24096, Note_on_c, 4, 49, 55
5, 24190, Note_on_c, 4, 49, 0
5, 24192, Note_on_c, 4, 49, 45
5, 24480, Note_on_c, 4, 49, 0
5, 24480, Note_on_c, 4, 51, 45
5, 24768, Note_on_c, 4, 51, 0
5, 24768, Note_on_c, 4, 49, 45
5, 25056, Note_on_c, 4, 49, 0
5, 25056, Note_on_c, 4, 48, 45
5, 25312, Note_on_c, 4, 48, 0
5, 25344, Note_on_c, 4, 49, 45
5, 25632, Note_on_c, 4, 49, 0
5, 25632, Note_on_c, 4, 51, 45
5, 25888, Note_on_c, 4, 51, 0
5, 25920, Note_on_c, 4, 49, 45
5, 26208, Note_on_c, 4, 49, 0
5, 26208, Note_on_c, 4, 48, 45
5, 26448, Note_on_c, 4, 48, 0
5, 26448, Note_on_c, 4, 46, 45
5, 26494, Note_on_c, 4, 46, 0
5, 26496, Note_on_c, 4, 45, 45
5, 26544, Note_on_c, 4, 45, 0
5, 26544, Note_on_c, 4, 57, 45
5, 26592, Note_on_c, 4, 57, 0
5, 26592, Note_on_c, 4, 57, 45
5, 26752, Note_on_c, 4, 57, 0
5, 26784, Note_on_c, 4, 44, 45
5, 26832, Note_on_c, 4, 44, 0
5, 26832, Note_on_c, 4, 56, 45
5, 26880, Note_on_c, 4, 56, 0
5, 26880, Note_on_c, 4, 56, 45
5, 27040, Note_on_c, 4, 56, 0
5, 27072, Note_on_c, 4, 43, 45
5, 27120, Note_on_c, 4, 43, 0
5, 27120, Note_on_c, 4, 55, 45
5, 27168, Note_on_c, 4, 55, 0
5, 27168, Note_on_c, 4, 55, 45
5, 27328, Note_on_c, 4, 55, 0
5, 27360, Note_on_c, 4, 42, 45
5, 27408, Note_on_c, 4, 42, 0
5, 27408, Note_on_c, 4, 54, 46
5, 27456, Note_on_c, 4, 54, 0
5, 27456, Note_on_c, 4, 54, 47
5, 27616, Note_on_c, 4, 54, 0
5, 27648, Note_on_c, 4, 42, 54
5, 27696, Note_on_c, 4, 42, 0
5, 27696, Note_on_c, 4, 54, 55
5, 27744, Note_on_c, 4, 54, 0
5, 27744, Note_on_c, 4, 54, 56
5, 27904, Note_on_c, 4, 54, 0
5, 27936, Note_on_c, 4, 41, 63
5, 27984, Note_on_c, 4, 41, 0
5, 27984, Note_on_c, 4, 53, 65
5, 28032, Note_on_c, 4, 53, 0
5, 28032, Note_on_c, 4, 53, 67
5, 28192, Note_on_c, 4, 53, 0
5, 28224, Note_on_c, 4, 44, 45
5, 28272, Note_on_c, 4, 53, 45
5, 28320, Note_on_c, 4, 53, 0
5, 28320, Note_on_c, 4, 53, 45
5, 28384, Note_on_c, 4, 44, 0
5, 28414, Note_on_c, 4, 53, 0
5, 28416, Note_on_c, 4, 44, 45
5, 28416, Note_on_c, 4, 54, 45
5, 28510, Note_on_c, 4, 44, 0
5, 28510, Note_on_c, 4, 54, 0
5, 28512, Note_on_c, 4, 41, 45
5, 28560, Note_on_c, 4, 41, 0
5, 28560, Note_on_c, 4, 53, 45
5, 28608, Note_on_c, 4, 53, 0
5, 28608, Note_on_c, 4, 53, 45
5, 28768, Note_on_c, 4, 53, 0
5, 28800, Note_on_c, 4, 41, 45
5, 28848, Note_on_c, 4, 41, 0
5, 28848, Note_on_c, 4, 53, 47
5, 28896, Note_on_c, 4, 53, 0
5, 28896, Note_on_c, 4, 53, 49
5, 29056, Note_on_c, 4, 53, 0
5, 29088, Note_on_c, 4, 42, 82
5, 29136, Note_on_c, 4, 54, 61
5, 29184, Note_on_c, 4, 54, 0
5, 29184, Note_on_c, 4, 54, 63
5, 29280, Note_on_c, 4, 42, 0
5, 29280, Note_on_c, 4, 54, 0
5, 29280, Note_on_c, 4, 42, 69
5, 29280, Note_on_c, 4, 54, 69
5, 29328, Note_on_c, 4, 42, 0
5, 29328, Note_on_c, 4, 54, 0
5, 29328, Note_on_c, 4, 43, 72
5, 29328, Note_on_c, 4, 55, 72
5, 29374, Note_on_c, 4, 43, 0
5, 29374, Note_on_c, 4, 55, 0
5, 29376, Note_on_c, 4, 44, 45
5, 29424, Note_on_c, 4, 53, 45
5, 29472, Note_on_c, 4, 53, 0
5, 29472, Note_on_c, 4, 53, 45
5, 29536, Note_on_c, 4, 44, 0
5, 29566, Note_on_c, 4, 53, 0
5, 29568, Note_on_c, 4, 44, 45
5, 29568, Note_on_c, 4, 54, 45
5, 29662, Note_on_c, 4, 44, 0
5, 29662, Note_on_c, 4, 54, 0
5, 29664, Note_on_c, 4, 37, 45
5, 29712, Note_on_c, 4, 49, 44
5, 29760, Note_on_c, 4, 49, 0
5, 29760, Note_on_c, 4, 49, 43
5, 29824, Note_on_c, 4, 37, 0
5, 29854, Note_on_c, 4, 49, 0
5, 29856, Note_on_c, 4, 42, 41
5, 29904, Note_on_c, 4, 42, 0
5, 29904, Note_on_c, 4, 39, 40
5, 29950, Note_on_c, 4, 39, 0
5, 29952, Note_on_c, 4, 37, 39
5, 30000, Note_on_c, 4, 49, 38
5, 30048, Note_on_c, 4, 49, 0
5, 30048, Note_on_c, 4, 49, 37
5, 30112, Note_on_c, 4, 37, 0
5, 30142, Note_on_c, 4, 49, 0
5, 30144, Note_on_c, 4, 42, 34
5, 30192, Note_on_c, 4, 42, 0
5, 30192, Note_on_c, 4, 39, 32
5, 30238, Note_on_c, 4, 39, 0
5, 30240, Note_on_c, 4, 37, 30
5, 30288, Note_on_c, 4, 49, 30
5, 30336, Note_on_c, 4, 49, 0
5, 30336, Note_on_c, 4, 49, 30
5, 30400, Note_on_c, 4, 37, 0
5, 30430, Note_on_c, 4, 49, 0
5, 30432, Note_on_c, 4, 42, 30
5, 30480, Note_on_c, 4, 42, 0
5, 30480, Note_on_c, 4, 39, 30
5, 30526, Note_on_c, 4, 39, 0
5, 30528, Note_on_c, 4, 37, 30
5, 30576, Note_on_c, 4, 49, 30
5, 30624, Note_on_c, 4, 49, 0
5, 30624, Note_on_c, 4, 49, 30
5, 30688, Note_on_c, 4, 37, 0
5, 30816, Note_on_c, 4, 49, 0
5, 30816, Note_on_c, 4, 37, 30
5, 30816, Note_on_c, 4, 49, 30
5, 31264, Note_on_c, 4, 37, 0
5, 31264, Note_on_c, 4, 49, 0
5, 31264, End_track
0, 0, End_of_file