0, 0, Header, 1, 21, 120
1, 0, Start_track
1, 0, Title_t, "Fidelio - Ouverture"
1, 0, Title_t, "Ouverture for opera Fidelio"
1, 0, Copyright_t, "Copyright \251 2001 by J.F. Lucarelli - j-f.lucarelli@infonie.be  --  http://perso.infonie.fr/espace-midi"
1, 0, Text_t, "L. Van Beethoven (1770-1827)"
1, 0, Text_t, "\012"
1, 0, Text_t, "Tempo sup\351rieur \340 250 : adapter le tempo avant publication MIDI\012"
1, 0, Text_t, "Partition compl\350te - dur\351e : 00:06:04\012"
1, 0, Text_t, "D\351but du travail :  22 novembre 2000\012"
1, 0, Text_t, "Fin de la version 0 : 7 janvier 2001\012"
1, 0, Text_t, "Version 1.0 : 29 janvier 2001\012"
1, 0, Text_t, "Version 1.01 : 4 ao\373t 2001 : r\351vision avant publication\012"
1, 0, Text_t, "Version 2.0 : 16 octobre 2001 : r\351vision g\351n\351rale\012"
1, 0, Text_t, "Dur\351e d'\351dition et d'audition : 16 h\012"
1, 0, Text_t, "-----\012"
1, 0, Text_t, "Full score - length : 00:06:04\012"
1, 0, Text_t, "Beginning of writing : 22th November 2000\012"
1, 0, Text_t, "End of version 0 : 7th January 2001\012"
1, 0, Text_t, "Version 1.0 : 29th January 2001\012"
1, 0, Text_t, "Version 1.01 : 4th August 2001 : revision before publication\012"
1, 0, Text_t, "Version 2.0 : 16th October 2001 : general revision\012"
1, 0, Text_t, "Editing and audition time : 16 h\012"
1, 0, Time_signature, 2, 1, 48, 8
1, 0, Key_signature, 4, "major"
1, 0, Tempo, 176470
1, 0, Marker_t, "L. Van Beethoven : Ouverture Fidelio"
1, 480, Tempo, 214285
1, 480, Marker_t, "Allegro"
1, 1920, Tempo, 333333
1, 2040, Tempo, 750000
1, 2400, Tempo, 500000
1, 2400, Marker_t, "Adagio"
1, 4300, Tempo, 1500000
1, 4320, Tempo, 500000
1, 5220, Tempo, 1000000
1, 5280, Tempo, 500000
1, 6225, Tempo, 1500000
1, 6240, Tempo, 214285
1, 6240, Marker_t, "Allegro"
1, 7680, Tempo, 333333
1, 7800, Tempo, 750000
1, 8160, Tempo, 500000
1, 8160, Marker_t, "Adagio"
1, 9060, Tempo, 1000000
1, 9120, Tempo, 500000
1, 10020, Tempo, 1000000
1, 10080, Tempo, 582524
1, 10560, Tempo, 588235
1, 10980, Tempo, 1000000
1, 11040, Tempo, 697674
1, 11520, Tempo, 689655
1, 12000, Tempo, 681818
1, 12480, Tempo, 674157
1, 12960, Tempo, 666666
1, 13440, Tempo, 659340
1, 13920, Tempo, 652173
1, 14400, Tempo, 645161
1, 14880, Tempo, 638297
1, 15360, Tempo, 631578
1, 15840, Tempo, 625000
1, 16320, Tempo, 618556
1, 16800, Tempo, 612244
1, 17280, Tempo, 606060
1, 17760, Tempo, 600000
1, 18680, Tempo, 750000
1, 18720, Tempo, 600000
1, 19560, Tempo, 645161
1, 19640, Tempo, 750000
1, 19680, Tempo, 600000
1, 20520, Tempo, 631578
1, 20600, Tempo, 750000
1, 20640, Tempo, 600000
1, 21480, Tempo, 659340
1, 21560, Tempo, 750000
1, 21600, Tempo, 606060
1, 22080, Tempo, 576923
1, 22560, Tempo, 333333
1, 22560, Marker_t, "Allegro"
1, 22800, Tempo, 322580
1, 23040, Tempo, 310880
1, 23280, Tempo, 303030
1, 23520, Tempo, 250000
1, 23760, Tempo, 230769
1, 24000, Tempo, 250000
1, 24240, Tempo, 230769
1, 24480, Tempo, 250000
1, 24720, Tempo, 230769
1, 24960, Tempo, 250000
1, 25200, Tempo, 230769
1, 25440, Tempo, 250000
1, 25680, Tempo, 230769
1, 25920, Tempo, 250000
1, 26160, Tempo, 230769
1, 26400, Tempo, 250000
1, 26640, Tempo, 230769
1, 26880, Tempo, 250000
1, 27120, Tempo, 230769
1, 27360, Tempo, 250000
1, 27600, Tempo, 230769
1, 27840, Tempo, 250000
1, 28080, Tempo, 230769
1, 28320, Tempo, 250000
1, 28560, Tempo, 230769
1, 28800, Tempo, 250000
1, 29040, Tempo, 230769
1, 29280, Tempo, 250000
1, 29520, Tempo, 230769
1, 29760, Tempo, 250000
1, 30000, Tempo, 230769
1, 30240, Tempo, 250000
1, 30480, Tempo, 230769
1, 30660, Tempo, 277777
1, 30720, Tempo, 250000
1, 30960, Tempo, 230769
1, 31200, Tempo, 250000
1, 31440, Tempo, 230769
1, 31680, Tempo, 250000
1, 31920, Tempo, 230769
1, 32160, Tempo, 250000
1, 32400, Tempo, 230769
1, 32640, Tempo, 250000
1, 32880, Tempo, 230769
1, 33120, Tempo, 250000
1, 33360, Tempo, 230769
1, 33600, Tempo, 250000
1, 33840, Tempo, 230769
1, 34080, Tempo, 250000
1, 34320, Tempo, 230769
1, 34560, Tempo, 240000
1, 34800, Tempo, 230769
1, 35040, Tempo, 240000
1, 35280, Tempo, 230769
1, 35520, Tempo, 250000
1, 35760, Tempo, 230769
1, 36000, Tempo, 250000
1, 36240, Tempo, 230769
1, 36480, Tempo, 240000
1, 36720, Tempo, 230769
1, 36960, Tempo, 240000
1, 37200, Tempo, 230769
1, 37440, Tempo, 250000
1, 37680, Tempo, 230769
1, 37920, Tempo, 250000
1, 38160, Tempo, 230769
1, 38400, Tempo, 250000
1, 38640, Tempo, 230769
1, 38880, Tempo, 250000
1, 39120, Tempo, 230769
1, 39300, Tempo, 281690
1, 39360, Tempo, 254237
1, 39600, Tempo, 238095
1, 39840, Tempo, 254237
1, 40080, Tempo, 238095
1, 40320, Tempo, 254237
1, 40560, Tempo, 238095
1, 40800, Tempo, 254237
1, 41040, Tempo, 238095
1, 41280, Tempo, 285714
1, 41400, Tempo, 253164
1, 41520, Tempo, 238095
1, 41760, Tempo, 254237
1, 42000, Tempo, 238095
1, 42240, Tempo, 254237
1, 42480, Tempo, 238095
1, 42720, Tempo, 254237
1, 42960, Tempo, 238095
1, 43200, Tempo, 287081
1, 43320, Tempo, 252100
1, 43440, Tempo, 238095
1, 43680, Tempo, 250000
1, 43920, Tempo, 234375
1, 44160, Tempo, 248962
1, 44400, Tempo, 233463
1, 44640, Tempo, 250000
1, 44880, Tempo, 230769
1, 45120, Tempo, 250000
1, 45360, Tempo, 230769
1, 45600, Tempo, 250000
1, 45840, Tempo, 230769
1, 46080, Tempo, 250000
1, 46200, Tempo, 225563
1, 46320, Tempo, 230769
1, 46440, Tempo, 225563
1, 46560, Tempo, 250000
1, 46680, Tempo, 225563
1, 46800, Tempo, 230769
1, 46920, Tempo, 225563
1, 47040, Tempo, 242914
1, 47280, Tempo, 223880
1, 47520, Tempo, 242914
1, 47760, Tempo, 223880
1, 48000, Tempo, 242914
1, 48240, Tempo, 223880
1, 48480, Tempo, 242914
1, 48720, Tempo, 223880
1, 48960, Tempo, 242914
1, 49200, Tempo, 223880
1, 49440, Tempo, 242914
1, 49680, Tempo, 223880
1, 49920, Tempo, 242914
1, 50160, Tempo, 223880
1, 50400, Tempo, 242914
1, 50640, Tempo, 223880
1, 50880, Tempo, 242914
1, 51120, Tempo, 223880
1, 51360, Tempo, 242914
1, 51600, Tempo, 223880
1, 51840, Tempo, 242914
1, 52080, Tempo, 223880
1, 52320, Tempo, 242914
1, 52560, Tempo, 223880
1, 52800, Tempo, 250000
1, 53040, Tempo, 230769
1, 53280, Tempo, 250000
1, 53520, Tempo, 230769
1, 53760, Tempo, 250000
1, 54000, Tempo, 230769
1, 54240, Tempo, 250000
1, 54480, Tempo, 230769
1, 54720, Tempo, 250000
1, 54840, Tempo, 229007
1, 54960, Tempo, 230769
1, 55200, Tempo, 250000
1, 55320, Tempo, 229007
1, 55440, Tempo, 230769
1, 55680, Tempo, 250000
1, 55800, Tempo, 229007
1, 55920, Tempo, 230769
1, 56160, Tempo, 250000
1, 56280, Tempo, 229007
1, 56400, Tempo, 230769
1, 56640, Tempo, 250000
1, 58560, Tempo, 255319
1, 58800, Tempo, 241935
1, 59040, Tempo, 255319
1, 59280, Tempo, 241935
1, 59520, Tempo, 255319
1, 59760, Tempo, 241935
1, 60000, Tempo, 255319
1, 60240, Tempo, 241935
1, 60480, Tempo, 255319
1, 60720, Tempo, 241935
1, 60960, Tempo, 255319
1, 61200, Tempo, 241935
1, 61440, Tempo, 255319
1, 61680, Tempo, 241935
1, 61920, Tempo, 255319
1, 62160, Tempo, 241935
1, 62400, Tempo, 255319
1, 62640, Tempo, 241935
1, 62850, Tempo, 300000
1, 62880, Tempo, 255319
1, 63120, Tempo, 241935
1, 63360, Tempo, 255319
1, 63600, Tempo, 241935
1, 63840, Tempo, 255319
1, 64080, Tempo, 241935
1, 64320, Tempo, 255319
1, 64560, Tempo, 241935
1, 64770, Tempo, 300000
1, 64800, Tempo, 255319
1, 65040, Tempo, 241935
1, 65280, Tempo, 255319
1, 65520, Tempo, 241935
1, 65760, Tempo, 255319
1, 66000, Tempo, 241935
1, 66240, Tempo, 255319
1, 66480, Tempo, 241935
1, 66720, Tempo, 255319
1, 66960, Tempo, 241935
1, 67200, Tempo, 255319
1, 67440, Tempo, 241935
1, 67680, Tempo, 255319
1, 67920, Tempo, 241935
1, 68160, Tempo, 250000
1, 68400, Tempo, 240963
1, 68640, Tempo, 248962
1, 68880, Tempo, 240000
1, 69120, Tempo, 247933
1, 69360, Tempo, 237154
1, 69600, Tempo, 247933
1, 69840, Tempo, 236220
1, 70080, Tempo, 245901
1, 70320, Tempo, 233463
1, 70500, Tempo, 314136
1, 70560, Tempo, 250000
1, 70800, Tempo, 230769
1, 71040, Tempo, 250000
1, 71280, Tempo, 230769
1, 71520, Tempo, 250000
1, 71760, Tempo, 230769
1, 72000, Tempo, 250000
1, 72240, Tempo, 230769
1, 72420, Tempo, 310880
1, 72480, Tempo, 250000
1, 72720, Tempo, 230769
1, 72960, Tempo, 250000
1, 73200, Tempo, 230769
1, 73440, Tempo, 250000
1, 73680, Tempo, 230769
1, 73920, Tempo, 250000
1, 74160, Tempo, 230769
1, 74400, Tempo, 250000
1, 74640, Tempo, 230769
1, 74880, Tempo, 250000
1, 75120, Tempo, 230769
1, 75360, Tempo, 250000
1, 75600, Tempo, 230769
1, 75840, Tempo, 250000
1, 76080, Tempo, 230769
1, 76320, Tempo, 250000
1, 76560, Tempo, 230769
1, 76740, Tempo, 285714
1, 76800, Tempo, 250000
1, 77040, Tempo, 230769
1, 77280, Tempo, 250000
1, 77520, Tempo, 230769
1, 77760, Tempo, 250000
1, 78000, Tempo, 230769
1, 78240, Tempo, 250000
1, 78480, Tempo, 230769
1, 78720, Tempo, 250000
1, 78960, Tempo, 230769
1, 79200, Tempo, 250000
1, 79440, Tempo, 230769
1, 79680, Tempo, 250000
1, 79920, Tempo, 230769
1, 80160, Tempo, 250000
1, 80400, Tempo, 230769
1, 80640, Tempo, 240000
1, 80880, Tempo, 230769
1, 81120, Tempo, 240000
1, 81360, Tempo, 230769
1, 81600, Tempo, 250000
1, 81840, Tempo, 230769
1, 82080, Tempo, 250000
1, 82320, Tempo, 230769
1, 82560, Tempo, 240000
1, 82800, Tempo, 230769
1, 83040, Tempo, 240000
1, 83280, Tempo, 230769
1, 83520, Tempo, 250000
1, 83760, Tempo, 230769
1, 84000, Tempo, 250000
1, 84240, Tempo, 230769
1, 84480, Tempo, 250000
1, 84720, Tempo, 230769
1, 84960, Tempo, 250000
1, 85200, Tempo, 230769
1, 85380, Tempo, 291262
1, 85440, Tempo, 250000
1, 85680, Tempo, 230769
1, 85920, Tempo, 250000
1, 86160, Tempo, 230769
1, 86340, Tempo, 281690
1, 86400, Tempo, 254237
1, 86640, Tempo, 238095
1, 86880, Tempo, 254237
1, 87120, Tempo, 238095
1, 87360, Tempo, 254237
1, 87600, Tempo, 238095
1, 87840, Tempo, 254237
1, 88080, Tempo, 238095
1, 88320, Tempo, 285714
1, 88440, Tempo, 253164
1, 88560, Tempo, 238095
1, 88800, Tempo, 254237
1, 89040, Tempo, 238095
1, 89280, Tempo, 254237
1, 89520, Tempo, 238095
1, 89760, Tempo, 254237
1, 90000, Tempo, 238095
1, 90240, Tempo, 287081
1, 90360, Tempo, 252100
1, 90480, Tempo, 238095
1, 90720, Tempo, 254237
1, 90960, Tempo, 238095
1, 91200, Tempo, 287081
1, 91320, Tempo, 252100
1, 91440, Tempo, 238095
1, 91680, Tempo, 254237
1, 91920, Tempo, 238095
1, 92160, Tempo, 254237
1, 92400, Tempo, 238095
1, 92640, Tempo, 254237
1, 92880, Tempo, 238095
1, 93120, Tempo, 287081
1, 93240, Tempo, 252100
1, 93360, Tempo, 238095
1, 93600, Tempo, 250000
1, 93840, Tempo, 230769
1, 94080, Tempo, 250000
1, 94320, Tempo, 230769
1, 94560, Tempo, 250000
1, 94800, Tempo, 230769
1, 95040, Tempo, 250000
1, 95160, Tempo, 227272
1, 95280, Tempo, 230769
1, 95400, Tempo, 225563
1, 95520, Tempo, 250000
1, 95640, Tempo, 227272
1, 95760, Tempo, 230769
1, 95880, Tempo, 225563
1, 96000, Tempo, 242914
1, 96240, Tempo, 223880
1, 96480, Tempo, 242914
1, 96720, Tempo, 223880
1, 96960, Key_signature, 0, "major"
1, 96960, Tempo, 242914
1, 97200, Tempo, 223880
1, 97440, Tempo, 242914
1, 97680, Tempo, 223880
1, 97920, Tempo, 242914
1, 98160, Tempo, 223880
1, 98400, Tempo, 242914
1, 98640, Tempo, 223880
1, 98880, Tempo, 242914
1, 99120, Tempo, 223880
1, 99360, Tempo, 242914
1, 99600, Tempo, 223880
1, 99840, Tempo, 242914
1, 100080, Tempo, 223880
1, 100320, Tempo, 242914
1, 100560, Tempo, 223880
1, 100800, Tempo, 242914
1, 101040, Tempo, 223880
1, 101280, Tempo, 242914
1, 101520, Tempo, 223880
1, 101760, Tempo, 250000
1, 102000, Tempo, 230769
1, 102240, Tempo, 250000
1, 102480, Tempo, 230769
1, 102720, Tempo, 250000
1, 102960, Tempo, 230769
1, 103200, Tempo, 250000
1, 103440, Tempo, 230769
1, 103680, Tempo, 250000
1, 103800, Tempo, 227272
1, 103920, Tempo, 230769
1, 104160, Tempo, 250000
1, 104280, Tempo, 227272
1, 104400, Tempo, 230769
1, 104640, Tempo, 242914
1, 104760, Tempo, 227272
1, 104880, Tempo, 223880
1, 105120, Tempo, 242914
1, 105240, Tempo, 227272
1, 105360, Tempo, 223880
1, 105600, Tempo, 242914
1, 105720, Tempo, 227272
1, 105840, Tempo, 223880
1, 106080, Tempo, 242914
1, 106200, Tempo, 227272
1, 106320, Tempo, 223880
1, 106560, Tempo, 239043
1, 106800, Tempo, 221402
1, 107040, Tempo, 239043
1, 107280, Tempo, 221402
1, 107520, Tempo, 239043
1, 107760, Tempo, 221402
1, 108000, Tempo, 239043
1, 108240, Tempo, 221402
1, 108480, Tempo, 232558
1, 108600, Tempo, 218978
1, 108720, Tempo, 215827
1, 108960, Tempo, 236220
1, 109080, Tempo, 218978
1, 109200, Tempo, 215827
1, 109440, Tempo, 236220
1, 109560, Tempo, 218978
1, 109680, Tempo, 215827
1, 109920, Tempo, 236220
1, 110040, Tempo, 218978
1, 110160, Tempo, 215827
1, 110400, Key_signature, 4, "major"
1, 110400, Tempo, 221402
1, 111720, Tempo, 241935
1, 111840, Tempo, 428571
1, 111960, Tempo, 750000
1, 112320, Tempo, 555555
1, 112320, Marker_t, "Adagio"
1, 112800, Tempo, 600000
1, 113250, Tempo, 740740
1, 113280, Tempo, 600000
1, 114000, Tempo, 645161
1, 114120, Tempo, 714285
1, 114210, Tempo, 1224489
1, 114240, Tempo, 571428
1, 114720, Tempo, 612244
1, 115200, Tempo, 582524
1, 115920, Tempo, 625000
1, 116040, Tempo, 689655
1, 116080, Tempo, 689655
1, 116100, Tempo, 750000
1, 116130, Tempo, 1016949
1, 116160, Tempo, 594059
1, 116610, Tempo, 1016949
1, 116640, Tempo, 625000
1, 117090, Tempo, 1016949
1, 117120, Tempo, 638297
1, 117570, Tempo, 1016949
1, 117600, Tempo, 659340
1, 118050, Tempo, 1034482
1, 118080, Tempo, 674157
1, 118530, Tempo, 1034482
1, 118560, Tempo, 689655
1, 118680, Tempo, 722891
1, 118800, Tempo, 789473
1, 118880, Tempo, 882352
1, 118920, Tempo, 952380
1, 118960, Tempo, 1935483
1, 119010, Tempo, 3750000
1, 119040, Tempo, 191082
1, 119040, Marker_t, "Presto"
1, 119280, Tempo, 173410
1, 119520, Tempo, 183486
1, 119760, Tempo, 170940
1, 120000, Tempo, 183486
1, 120240, Tempo, 170940
1, 120480, Tempo, 183486
1, 120720, Tempo, 170940
1, 120960, Tempo, 183486
1, 121200, Tempo, 170940
1, 121440, Tempo, 183486
1, 121680, Tempo, 170940
1, 121920, Tempo, 183486
1, 122160, Tempo, 170940
1, 122400, Tempo, 183486
1, 122640, Tempo, 170940
1, 122880, Tempo, 183486
1, 123120, Tempo, 170940
1, 123360, Tempo, 183486
1, 123600, Tempo, 170940
1, 123810, Tempo, 214285
1, 123840, Tempo, 183486
1, 124080, Tempo, 170940
1, 124320, Tempo, 183486
1, 124560, Tempo, 170940
1, 124800, Tempo, 183486
1, 125040, Tempo, 170940
1, 125280, Tempo, 183486
1, 125520, Tempo, 170940
1, 125730, Tempo, 214285
1, 125760, Tempo, 183486
1, 126000, Tempo, 170940
1, 126240, Tempo, 183486
1, 126480, Tempo, 170940
1, 126720, Tempo, 183486
1, 126960, Tempo, 170940
1, 127200, Tempo, 183486
1, 127440, Tempo, 170940
1, 127650, Tempo, 213523
1, 127680, Tempo, 183486
1, 127920, Tempo, 170940
1, 128160, Tempo, 183486
1, 128400, Tempo, 170940
1, 128640, Tempo, 183486
1, 128880, Tempo, 170940
1, 129120, Tempo, 183486
1, 129360, Tempo, 170940
1, 129600, Tempo, 183486
1, 129840, Tempo, 170940
1, 130080, Tempo, 183486
1, 130320, Tempo, 170940
1, 130560, Tempo, 183486
1, 130800, Tempo, 170940
1, 131040, Tempo, 183486
1, 131280, Tempo, 170940
1, 131520, Tempo, 183486
1, 131760, Tempo, 170940
1, 132000, Tempo, 183486
1, 132240, Tempo, 170940
1, 132480, Tempo, 183486
1, 132720, Tempo, 170940
1, 132960, Tempo, 183486
1, 133200, Tempo, 170940
1, 133440, Tempo, 183486
1, 133680, Tempo, 170940
1, 133920, Tempo, 183486
1, 134160, Tempo, 170940
1, 134400, Tempo, 183486
1, 134640, Tempo, 170940
1, 134880, Tempo, 183486
1, 135120, Tempo, 170940
1, 135330, Tempo, 222222
1, 135360, Tempo, 183486
1, 135600, Tempo, 170940
1, 135840, Tempo, 183486
1, 136080, Tempo, 170940
1, 136320, Tempo, 183486
1, 136560, Tempo, 170940
1, 136800, Tempo, 183486
1, 137040, Tempo, 170940
1, 137280, Tempo, 183486
1, 137520, Tempo, 170940
1, 137760, Tempo, 183486
1, 138000, Tempo, 170940
1, 138240, Tempo, 183486
1, 138480, Tempo, 170940
1, 138720, Tempo, 183486
1, 138960, Tempo, 170940
1, 139200, Tempo, 183486
1, 139440, Tempo, 170940
1, 139680, Tempo, 183486
1, 139920, Tempo, 170940
1, 140160, Tempo, 183486
1, 140400, Tempo, 170940
1, 140640, Tempo, 183486
1, 140880, Tempo, 170940
1, 141090, Tempo, 212014
1, 141120, Tempo, 178041
1, 141360, Tempo, 170940
1, 141600, Tempo, 183486
1, 141840, Tempo, 170940
1, 142080, Tempo, 176470
1, 142320, Tempo, 170940
1, 142560, Tempo, 183486
1, 142800, Tempo, 170940
1, 143040, Tempo, 176470
1, 143280, Tempo, 170940
1, 143520, Tempo, 183486
1, 143760, Tempo, 170940
1, 144000, Tempo, 176470
1, 144240, Tempo, 170940
1, 144480, Tempo, 183486
1, 144720, Tempo, 165745
1, 144960, Tempo, 185758
1, 145200, Tempo, 165745
1, 145440, Tempo, 185758
1, 145680, Tempo, 165745
1, 145920, Tempo, 185185
1, 146160, Tempo, 165745
1, 146400, Tempo, 184615
1, 146640, Tempo, 170940
1, 146880, Tempo, 190476
1, 147360, Tempo, 197368
1, 147840, Tempo, 288461
1, 148080, Tempo, 600000
1, 148080, End_track
2, 0, Start_track
2, 0, MIDI_port, 0
2, 0, Title_t, "2 Flauti"
2, 0, Program_c, 0, 73
2, 0, Control_c, 0, 10, 52
2, 2, Control_c, 0, 121, 0
2, 7, Program_c, 0, 73
2, 12, Pitch_bend_c, 0, 8192
2, 17, Control_c, 0, 11, 76
2, 22, Control_c, 0, 7, 127
2, 27, Control_c, 0, 91, 54
2, 32, Control_c, 0, 93, 0
2, 482, Control_c, 0, 11, 77
2, 482, Note_on_c, 0, 76, 94
2, 632, Note_on_c, 0, 76, 0
2, 662, Note_on_c, 0, 71, 94
2, 712, Note_on_c, 0, 71, 0
2, 722, Note_on_c, 0, 71, 94
2, 782, Note_on_c, 0, 71, 0
2, 962, Control_c, 0, 11, 89
2, 962, Note_on_c, 0, 80, 94
2, 980, Control_c, 0, 11, 87
2, 998, Control_c, 0, 11, 86
2, 1016, Control_c, 0, 11, 84
2, 1034, Control_c, 0, 11, 82
2, 1052, Control_c, 0, 11, 80
2, 1070, Control_c, 0, 11, 78
2, 1112, Note_on_c, 0, 80, 0
2, 1142, Note_on_c, 0, 76, 94
2, 1192, Note_on_c, 0, 76, 0
2, 1202, Note_on_c, 0, 76, 94
2, 1262, Note_on_c, 0, 76, 0
2, 1442, Control_c, 0, 11, 89
2, 1442, Note_on_c, 0, 83, 94
2, 1460, Control_c, 0, 11, 87
2, 1478, Control_c, 0, 11, 86
2, 1496, Control_c, 0, 11, 84
2, 1514, Control_c, 0, 11, 82
2, 1532, Control_c, 0, 11, 80
2, 1550, Control_c, 0, 11, 78
2, 1592, Note_on_c, 0, 83, 0
2, 1622, Note_on_c, 0, 80, 94
2, 1672, Note_on_c, 0, 80, 0
2, 1682, Note_on_c, 0, 80, 94
2, 1742, Note_on_c, 0, 80, 0
2, 1802, Note_on_c, 0, 88, 94
2, 1802, Note_on_c, 0, 83, 94
2, 1862, Note_on_c, 0, 83, 0
2, 1862, Note_on_c, 0, 88, 0
2, 1922, Note_on_c, 0, 87, 94
2, 1922, Note_on_c, 0, 83, 94
2, 1982, Note_on_c, 0, 83, 0
2, 1982, Note_on_c, 0, 87, 0
2, 6242, Control_c, 0, 11, 77
2, 6242, Note_on_c, 0, 81, 94
2, 6392, Note_on_c, 0, 81, 0
2, 6422, Note_on_c, 0, 76, 94
2, 6472, Note_on_c, 0, 76, 0
2, 6482, Note_on_c, 0, 76, 94
2, 6542, Note_on_c, 0, 76, 0
2, 6722, Control_c, 0, 11, 89
2, 6722, Note_on_c, 0, 85, 94
2, 6740, Control_c, 0, 11, 87
2, 6758, Control_c, 0, 11, 86
2, 6776, Control_c, 0, 11, 84
2, 6794, Control_c, 0, 11, 82
2, 6812, Control_c, 0, 11, 80
2, 6830, Control_c, 0, 11, 78
2, 6872, Note_on_c, 0, 85, 0
2, 6902, Note_on_c, 0, 81, 94
2, 6952, Note_on_c, 0, 81, 0
2, 6962, Note_on_c, 0, 81, 94
2, 7022, Note_on_c, 0, 81, 0
2, 7202, Control_c, 0, 11, 89
2, 7202, Note_on_c, 0, 88, 94
2, 7220, Control_c, 0, 11, 87
2, 7238, Control_c, 0, 11, 86
2, 7256, Control_c, 0, 11, 84
2, 7274, Control_c, 0, 11, 82
2, 7292, Control_c, 0, 11, 80
2, 7310, Control_c, 0, 11, 78
2, 7352, Note_on_c, 0, 88, 0
2, 7382, Note_on_c, 0, 85, 94
2, 7432, Note_on_c, 0, 85, 0
2, 7442, Note_on_c, 0, 85, 94
2, 7502, Note_on_c, 0, 85, 0
2, 7562, Note_on_c, 0, 93, 94
2, 7562, Note_on_c, 0, 88, 94
2, 7622, Note_on_c, 0, 88, 0
2, 7622, Note_on_c, 0, 93, 0
2, 7682, Note_on_c, 0, 92, 94
2, 7682, Note_on_c, 0, 88, 94
2, 7742, Note_on_c, 0, 88, 0
2, 7742, Note_on_c, 0, 92, 0
2, 15842, Control_c, 0, 11, 70
2, 15842, Note_on_c, 0, 87, 94
2, 15915, Control_c, 0, 11, 71
2, 15989, Control_c, 0, 11, 71
2, 16063, Control_c, 0, 11, 72
2, 16137, Control_c, 0, 11, 73
2, 16211, Control_c, 0, 11, 73
2, 16285, Control_c, 0, 11, 74
2, 16322, Note_on_c, 0, 90, 94
2, 16358, Control_c, 0, 11, 74
2, 16432, Control_c, 0, 11, 75
2, 16506, Control_c, 0, 11, 76
2, 16580, Control_c, 0, 11, 76
2, 16654, Control_c, 0, 11, 77
2, 16728, Control_c, 0, 11, 78
2, 16802, Note_on_c, 0, 90, 0
2, 16802, Note_on_c, 0, 87, 0
2, 16802, Control_c, 0, 11, 78
2, 16802, Note_on_c, 0, 88, 94
2, 16802, Note_on_c, 0, 91, 94
2, 16875, Control_c, 0, 11, 79
2, 16949, Control_c, 0, 11, 79
2, 17023, Control_c, 0, 11, 80
2, 17097, Control_c, 0, 11, 81
2, 17171, Control_c, 0, 11, 81
2, 17245, Control_c, 0, 11, 82
2, 17318, Control_c, 0, 11, 82
2, 17392, Control_c, 0, 11, 83
2, 17466, Control_c, 0, 11, 84
2, 17540, Control_c, 0, 11, 84
2, 17614, Control_c, 0, 11, 85
2, 17688, Control_c, 0, 11, 86
2, 17762, Note_on_c, 0, 91, 0
2, 17762, Note_on_c, 0, 88, 0
2, 17762, Control_c, 0, 11, 86
2, 17762, Note_on_c, 0, 87, 94
2, 17762, Note_on_c, 0, 90, 94
2, 17822, Note_on_c, 0, 90, 0
2, 17822, Note_on_c, 0, 87, 0
2, 17882, Note_on_c, 0, 83, 94
2, 17942, Note_on_c, 0, 83, 0
2, 18002, Note_on_c, 0, 83, 94
2, 18062, Note_on_c, 0, 83, 0
2, 18122, Note_on_c, 0, 83, 94
2, 18182, Note_on_c, 0, 83, 0
2, 18242, Note_on_c, 0, 83, 94
2, 18302, Note_on_c, 0, 83, 0
2, 18362, Note_on_c, 0, 83, 94
2, 18422, Note_on_c, 0, 83, 0
2, 18482, Note_on_c, 0, 83, 94
2, 18542, Note_on_c, 0, 83, 0
2, 18602, Note_on_c, 0, 83, 94
2, 18662, Note_on_c, 0, 83, 0
2, 18722, Control_c, 0, 11, 47
2, 18722, Note_on_c, 0, 83, 74
2, 18782, Note_on_c, 0, 83, 0
2, 19682, Control_c, 0, 11, 32
2, 19682, Note_on_c, 0, 88, 94
2, 19682, Note_on_c, 0, 85, 94
2, 19688, Control_c, 0, 11, 35
2, 19694, Control_c, 0, 11, 38
2, 19700, Control_c, 0, 11, 41
2, 19706, Control_c, 0, 11, 44
2, 19712, Control_c, 0, 11, 47
2, 20162, Note_on_c, 0, 85, 0
2, 20162, Note_on_c, 0, 88, 0
2, 20162, Note_on_c, 0, 85, 94
2, 20162, Note_on_c, 0, 82, 94
2, 20642, Note_on_c, 0, 82, 0
2, 20642, Note_on_c, 0, 85, 0
2, 20642, Note_on_c, 0, 83, 79
2, 20642, Note_on_c, 0, 87, 79
2, 20762, Note_on_c, 0, 87, 0
2, 20762, Note_on_c, 0, 83, 0
2, 21482, Control_c, 0, 11, 32
2, 21482, Note_on_c, 0, 83, 94
2, 21488, Control_c, 0, 11, 35
2, 21494, Control_c, 0, 11, 38
2, 21500, Control_c, 0, 11, 41
2, 21506, Control_c, 0, 11, 44
2, 21512, Control_c, 0, 11, 47
2, 21602, Note_on_c, 0, 83, 0
2, 21602, Note_on_c, 0, 81, 94
2, 21602, Note_on_c, 0, 78, 94
2, 22082, Note_on_c, 0, 78, 0
2, 22082, Note_on_c, 0, 81, 0
2, 22082, Note_on_c, 0, 75, 94
2, 22082, Note_on_c, 0, 78, 94
2, 22562, Note_on_c, 0, 78, 0
2, 22562, Note_on_c, 0, 75, 0
2, 22562, Control_c, 0, 11, 47
2, 22562, Note_on_c, 0, 75, 94
2, 22562, Note_on_c, 0, 83, 94
2, 22589, Control_c, 0, 11, 48
2, 22617, Control_c, 0, 11, 49
2, 22645, Control_c, 0, 11, 50
2, 22673, Control_c, 0, 11, 51
2, 22701, Control_c, 0, 11, 52
2, 22729, Control_c, 0, 11, 53
2, 22757, Control_c, 0, 11, 54
2, 22785, Control_c, 0, 11, 55
2, 22813, Control_c, 0, 11, 56
2, 22841, Control_c, 0, 11, 57
2, 22869, Control_c, 0, 11, 58
2, 22897, Control_c, 0, 11, 59
2, 22925, Control_c, 0, 11, 60
2, 22953, Control_c, 0, 11, 61
2, 22981, Control_c, 0, 11, 62
2, 23009, Control_c, 0, 11, 62
2, 23037, Control_c, 0, 11, 63
2, 23065, Control_c, 0, 11, 63
2, 23093, Control_c, 0, 11, 64
2, 23121, Control_c, 0, 11, 65
2, 23149, Control_c, 0, 11, 65
2, 23177, Control_c, 0, 11, 66
2, 23205, Control_c, 0, 11, 66
2, 23233, Control_c, 0, 11, 67
2, 23261, Control_c, 0, 11, 68
2, 23289, Control_c, 0, 11, 68
2, 23317, Control_c, 0, 11, 69
2, 23345, Control_c, 0, 11, 70
2, 23373, Control_c, 0, 11, 70
2, 23401, Control_c, 0, 11, 71
2, 23462, Control_c, 0, 11, 71
2, 23469, Control_c, 0, 11, 68
2, 23479, Control_c, 0, 11, 65
2, 23489, Control_c, 0, 11, 62
2, 23497, Control_c, 0, 11, 59
2, 23503, Control_c, 0, 11, 56
2, 23509, Control_c, 0, 11, 53
2, 23515, Control_c, 0, 11, 50
2, 23521, Control_c, 0, 11, 47
2, 23522, Note_on_c, 0, 75, 0
2, 23522, Note_on_c, 0, 76, 94
2, 23642, Note_on_c, 0, 76, 0
2, 23642, Note_on_c, 0, 83, 0
2, 30362, Control_c, 0, 11, 65
2, 30362, Note_on_c, 0, 93, 94
2, 30380, Control_c, 0, 11, 65
2, 30398, Control_c, 0, 11, 66
2, 30416, Control_c, 0, 11, 66
2, 30434, Control_c, 0, 11, 67
2, 30452, Control_c, 0, 11, 68
2, 30470, Control_c, 0, 11, 68
2, 30482, Note_on_c, 0, 93, 0
2, 30482, Note_on_c, 0, 92, 94
2, 30488, Control_c, 0, 11, 69
2, 30506, Control_c, 0, 11, 70
2, 30524, Control_c, 0, 11, 70
2, 30542, Control_c, 0, 11, 71
2, 30560, Control_c, 0, 11, 71
2, 30578, Control_c, 0, 11, 72
2, 30596, Control_c, 0, 11, 73
2, 30602, Note_on_c, 0, 92, 0
2, 30602, Note_on_c, 0, 90, 94
2, 30614, Control_c, 0, 11, 73
2, 30632, Control_c, 0, 11, 74
2, 30650, Control_c, 0, 11, 74
2, 30668, Control_c, 0, 11, 75
2, 30686, Control_c, 0, 11, 76
2, 30704, Control_c, 0, 11, 76
2, 30712, Note_on_c, 0, 90, 0
2, 30722, Control_c, 0, 11, 77
2, 30722, Note_on_c, 0, 88, 94
2, 30842, Note_on_c, 0, 88, 0
2, 31202, Note_on_c, 0, 81, 94
2, 31202, Note_on_c, 0, 85, 94
2, 31322, Note_on_c, 0, 85, 0
2, 31322, Note_on_c, 0, 81, 0
2, 31682, Note_on_c, 0, 78, 94
2, 31682, Note_on_c, 0, 81, 94
2, 31802, Note_on_c, 0, 81, 0
2, 31802, Note_on_c, 0, 78, 0
2, 32042, Note_on_c, 0, 93, 94
2, 32042, Note_on_c, 0, 90, 94
2, 32162, Note_on_c, 0, 90, 0
2, 32162, Note_on_c, 0, 93, 0
2, 32162, Note_on_c, 0, 90, 94
2, 32162, Note_on_c, 0, 87, 94
2, 32282, Note_on_c, 0, 87, 0
2, 32282, Note_on_c, 0, 90, 0
2, 32282, Note_on_c, 0, 78, 94
2, 32282, Note_on_c, 0, 81, 94
2, 32402, Note_on_c, 0, 81, 0
2, 32402, Note_on_c, 0, 78, 0
2, 32402, Note_on_c, 0, 90, 94
2, 32402, Note_on_c, 0, 81, 94
2, 32522, Note_on_c, 0, 81, 0
2, 32522, Note_on_c, 0, 90, 0
2, 32522, Note_on_c, 0, 81, 94
2, 32522, Note_on_c, 0, 78, 94
2, 32642, Note_on_c, 0, 78, 0
2, 32642, Note_on_c, 0, 81, 0
2, 32642, Note_on_c, 0, 76, 94
2, 32642, Note_on_c, 0, 80, 94
2, 32762, Note_on_c, 0, 80, 0
2, 32762, Note_on_c, 0, 76, 0
2, 32762, Note_on_c, 0, 88, 94
2, 32762, Note_on_c, 0, 80, 94
2, 32882, Note_on_c, 0, 80, 0
2, 32882, Note_on_c, 0, 88, 0
2, 33122, Note_on_c, 0, 81, 94
2, 33122, Note_on_c, 0, 85, 94
2, 33242, Note_on_c, 0, 85, 0
2, 33242, Note_on_c, 0, 81, 0
2, 33242, Note_on_c, 0, 85, 94
2, 33242, Note_on_c, 0, 81, 94
2, 33362, Note_on_c, 0, 81, 0
2, 33362, Note_on_c, 0, 85, 0
2, 33602, Note_on_c, 0, 78, 94
2, 33602, Note_on_c, 0, 81, 94
2, 33722, Note_on_c, 0, 81, 0
2, 33722, Note_on_c, 0, 78, 0
2, 33722, Note_on_c, 0, 78, 94
2, 33722, Note_on_c, 0, 81, 94
2, 33842, Note_on_c, 0, 81, 0
2, 33842, Note_on_c, 0, 78, 0
2, 33962, Note_on_c, 0, 76, 94
2, 33962, Note_on_c, 0, 80, 94
2, 34082, Note_on_c, 0, 80, 0
2, 34082, Note_on_c, 0, 76, 0
2, 34082, Note_on_c, 0, 78, 94
2, 34082, Note_on_c, 0, 81, 94
2, 34202, Note_on_c, 0, 81, 0
2, 34202, Note_on_c, 0, 78, 0
2, 34202, Note_on_c, 0, 78, 94
2, 34202, Note_on_c, 0, 81, 94
2, 34322, Note_on_c, 0, 81, 0
2, 34322, Note_on_c, 0, 78, 0
2, 34322, Note_on_c, 0, 90, 94
2, 34322, Note_on_c, 0, 81, 94
2, 34442, Note_on_c, 0, 81, 0
2, 34442, Note_on_c, 0, 90, 0
2, 34442, Note_on_c, 0, 78, 94
2, 34442, Note_on_c, 0, 81, 94
2, 34562, Note_on_c, 0, 81, 0
2, 34562, Note_on_c, 0, 78, 0
2, 34562, Note_on_c, 0, 76, 94
2, 34562, Note_on_c, 0, 80, 94
2, 34682, Note_on_c, 0, 80, 0
2, 34682, Note_on_c, 0, 76, 0
2, 34802, Note_on_c, 0, 92, 94
2, 34802, Note_on_c, 0, 88, 94
2, 34922, Note_on_c, 0, 88, 0
2, 34922, Note_on_c, 0, 92, 0
2, 35042, Note_on_c, 0, 88, 94
2, 35042, Note_on_c, 0, 92, 94
2, 35162, Note_on_c, 0, 92, 0
2, 35162, Note_on_c, 0, 88, 0
2, 35282, Note_on_c, 0, 88, 94
2, 35282, Note_on_c, 0, 92, 94
2, 35402, Note_on_c, 0, 92, 0
2, 35402, Note_on_c, 0, 88, 0
2, 35522, Control_c, 0, 11, 89
2, 35522, Note_on_c, 0, 93, 94
2, 35522, Note_on_c, 0, 90, 94
2, 35539, Control_c, 0, 11, 87
2, 35557, Control_c, 0, 11, 86
2, 35575, Control_c, 0, 11, 84
2, 35593, Control_c, 0, 11, 82
2, 35611, Control_c, 0, 11, 80
2, 35629, Control_c, 0, 11, 78
2, 36482, Note_on_c, 0, 90, 0
2, 36482, Note_on_c, 0, 93, 0
2, 36482, Note_on_c, 0, 92, 94
2, 36482, Note_on_c, 0, 88, 94
2, 36602, Note_on_c, 0, 88, 0
2, 36602, Note_on_c, 0, 92, 0
2, 36722, Note_on_c, 0, 92, 94
2, 36722, Note_on_c, 0, 88, 94
2, 36842, Note_on_c, 0, 88, 0
2, 36842, Note_on_c, 0, 92, 0
2, 36962, Note_on_c, 0, 92, 94
2, 36962, Note_on_c, 0, 88, 94
2, 37082, Note_on_c, 0, 88, 0
2, 37082, Note_on_c, 0, 92, 0
2, 37202, Note_on_c, 0, 92, 94
2, 37202, Note_on_c, 0, 88, 94
2, 37322, Note_on_c, 0, 88, 0
2, 37322, Note_on_c, 0, 92, 0
2, 37442, Control_c, 0, 11, 89
2, 37442, Note_on_c, 0, 90, 94
2, 37442, Note_on_c, 0, 93, 94
2, 37459, Control_c, 0, 11, 87
2, 37477, Control_c, 0, 11, 86
2, 37495, Control_c, 0, 11, 84
2, 37513, Control_c, 0, 11, 82
2, 37531, Control_c, 0, 11, 80
2, 37549, Control_c, 0, 11, 78
2, 38402, Note_on_c, 0, 93, 0
2, 38402, Note_on_c, 0, 90, 0
2, 38402, Note_on_c, 0, 88, 94
2, 38402, Note_on_c, 0, 92, 94
2, 39122, Note_on_c, 0, 92, 0
2, 39122, Note_on_c, 0, 88, 0
2, 39122, Note_on_c, 0, 92, 94
2, 39152, Note_on_c, 0, 92, 0
2, 39182, Note_on_c, 0, 88, 94
2, 39212, Note_on_c, 0, 88, 0
2, 39242, Note_on_c, 0, 85, 94
2, 39272, Note_on_c, 0, 85, 0
2, 39302, Note_on_c, 0, 83, 94
2, 39332, Note_on_c, 0, 83, 0
2, 39362, Note_on_c, 0, 82, 84
2, 39482, Note_on_c, 0, 82, 0
2, 40442, Control_c, 0, 11, 47
2, 40442, Note_on_c, 0, 78, 94
2, 40562, Note_on_c, 0, 78, 0
2, 40682, Note_on_c, 0, 78, 94
2, 40802, Note_on_c, 0, 78, 0
2, 40922, Note_on_c, 0, 90, 94
2, 41042, Note_on_c, 0, 90, 0
2, 41162, Note_on_c, 0, 90, 94
2, 41282, Note_on_c, 0, 90, 0
2, 41402, Note_on_c, 0, 90, 79
2, 41522, Note_on_c, 0, 90, 0
2, 42362, Note_on_c, 0, 78, 94
2, 42482, Note_on_c, 0, 78, 0
2, 42602, Note_on_c, 0, 78, 94
2, 42722, Note_on_c, 0, 78, 0
2, 42842, Note_on_c, 0, 90, 94
2, 42962, Note_on_c, 0, 90, 0
2, 43082, Note_on_c, 0, 90, 94
2, 43202, Note_on_c, 0, 90, 0
2, 43802, Note_on_c, 0, 92, 94
2, 43922, Note_on_c, 0, 92, 0
2, 44042, Note_on_c, 0, 92, 94
2, 44162, Note_on_c, 0, 92, 0
2, 44162, Note_on_c, 0, 88, 94
2, 44282, Note_on_c, 0, 88, 0
2, 44762, Note_on_c, 0, 90, 94
2, 44762, Note_on_c, 0, 87, 94
2, 44882, Note_on_c, 0, 87, 0
2, 44882, Note_on_c, 0, 90, 0
2, 45002, Note_on_c, 0, 87, 94
2, 45002, Note_on_c, 0, 90, 94
2, 45122, Note_on_c, 0, 90, 0
2, 45122, Note_on_c, 0, 87, 0
2, 45122, Control_c, 0, 11, 47
2, 45122, Note_on_c, 0, 92, 94
2, 45122, Note_on_c, 0, 88, 94
2, 45145, Control_c, 0, 11, 48
2, 45169, Control_c, 0, 11, 49
2, 45193, Control_c, 0, 11, 50
2, 45217, Control_c, 0, 11, 51
2, 45241, Control_c, 0, 11, 52
2, 45242, Note_on_c, 0, 88, 0
2, 45242, Note_on_c, 0, 92, 0
2, 45242, Note_on_c, 0, 90, 94
2, 45242, Note_on_c, 0, 87, 94
2, 45265, Control_c, 0, 11, 53
2, 45289, Control_c, 0, 11, 54
2, 45313, Control_c, 0, 11, 55
2, 45337, Control_c, 0, 11, 56
2, 45361, Control_c, 0, 11, 57
2, 45362, Note_on_c, 0, 87, 0
2, 45362, Note_on_c, 0, 90, 0
2, 45385, Control_c, 0, 11, 58
2, 45409, Control_c, 0, 11, 59
2, 45433, Control_c, 0, 11, 60
2, 45457, Control_c, 0, 11, 61
2, 45481, Control_c, 0, 11, 62
2, 45482, Note_on_c, 0, 87, 94
2, 45482, Note_on_c, 0, 90, 94
2, 45505, Control_c, 0, 11, 62
2, 45529, Control_c, 0, 11, 63
2, 45553, Control_c, 0, 11, 63
2, 45577, Control_c, 0, 11, 64
2, 45601, Control_c, 0, 11, 65
2, 45602, Note_on_c, 0, 90, 0
2, 45602, Note_on_c, 0, 87, 0
2, 45602, Note_on_c, 0, 88, 94
2, 45602, Note_on_c, 0, 92, 94
2, 45625, Control_c, 0, 11, 65
2, 45649, Control_c, 0, 11, 66
2, 45673, Control_c, 0, 11, 66
2, 45697, Control_c, 0, 11, 67
2, 45721, Control_c, 0, 11, 68
2, 45722, Note_on_c, 0, 92, 0
2, 45722, Note_on_c, 0, 88, 0
2, 45722, Note_on_c, 0, 90, 94
2, 45722, Note_on_c, 0, 87, 94
2, 45745, Control_c, 0, 11, 68
2, 45769, Control_c, 0, 11, 69
2, 45793, Control_c, 0, 11, 70
2, 45817, Control_c, 0, 11, 70
2, 45841, Control_c, 0, 11, 71
2, 45842, Note_on_c, 0, 87, 0
2, 45842, Note_on_c, 0, 90, 0
2, 45865, Control_c, 0, 11, 71
2, 45889, Control_c, 0, 11, 72
2, 45913, Control_c, 0, 11, 73
2, 45937, Control_c, 0, 11, 73
2, 45961, Control_c, 0, 11, 74
2, 45962, Note_on_c, 0, 90, 94
2, 45962, Note_on_c, 0, 87, 94
2, 45985, Control_c, 0, 11, 74
2, 46009, Control_c, 0, 11, 75
2, 46033, Control_c, 0, 11, 76
2, 46057, Control_c, 0, 11, 76
2, 46081, Control_c, 0, 11, 77
2, 46082, Note_on_c, 0, 87, 0
2, 46082, Note_on_c, 0, 90, 0
2, 46082, Note_on_c, 0, 88, 94
2, 46082, Note_on_c, 0, 92, 94
2, 46202, Note_on_c, 0, 92, 0
2, 46202, Note_on_c, 0, 88, 0
2, 46202, Note_on_c, 0, 90, 94
2, 46202, Note_on_c, 0, 87, 94
2, 46257, Note_on_c, 0, 87, 0
2, 46257, Note_on_c, 0, 90, 0
2, 46262, Note_on_c, 0, 90, 94
2, 46262, Note_on_c, 0, 87, 94
2, 46317, Note_on_c, 0, 87, 0
2, 46317, Note_on_c, 0, 90, 0
2, 46322, Note_on_c, 0, 92, 94
2, 46322, Note_on_c, 0, 88, 94
2, 46437, Note_on_c, 0, 88, 0
2, 46437, Note_on_c, 0, 92, 0
2, 46442, Note_on_c, 0, 90, 94
2, 46442, Note_on_c, 0, 87, 94
2, 46497, Note_on_c, 0, 87, 0
2, 46497, Note_on_c, 0, 90, 0
2, 46502, Note_on_c, 0, 90, 94
2, 46502, Note_on_c, 0, 87, 94
2, 46557, Note_on_c, 0, 87, 0
2, 46557, Note_on_c, 0, 90, 0
2, 46562, Note_on_c, 0, 88, 94
2, 46562, Note_on_c, 0, 92, 94
2, 46677, Note_on_c, 0, 92, 0
2, 46677, Note_on_c, 0, 88, 0
2, 46682, Note_on_c, 0, 87, 94
2, 46682, Note_on_c, 0, 90, 94
2, 46737, Note_on_c, 0, 90, 0
2, 46737, Note_on_c, 0, 87, 0
2, 46742, Note_on_c, 0, 90, 94
2, 46742, Note_on_c, 0, 87, 94
2, 46797, Note_on_c, 0, 87, 0
2, 46797, Note_on_c, 0, 90, 0
2, 46802, Note_on_c, 0, 88, 94
2, 46802, Note_on_c, 0, 92, 94
2, 46917, Note_on_c, 0, 92, 0
2, 46917, Note_on_c, 0, 88, 0
2, 46922, Note_on_c, 0, 90, 94
2, 46922, Note_on_c, 0, 87, 94
2, 46977, Note_on_c, 0, 87, 0
2, 46977, Note_on_c, 0, 90, 0
2, 46982, Note_on_c, 0, 87, 94
2, 46982, Note_on_c, 0, 90, 94
2, 47037, Note_on_c, 0, 90, 0
2, 47037, Note_on_c, 0, 87, 0
2, 47042, Note_on_c, 0, 88, 94
2, 47042, Note_on_c, 0, 92, 94
2, 47157, Note_on_c, 0, 92, 0
2, 47157, Note_on_c, 0, 88, 0
2, 47162, Control_c, 0, 11, 86
2, 47162, Note_on_c, 0, 88, 94
2, 47517, Note_on_c, 0, 88, 0
2, 47522, Note_on_c, 0, 88, 94
2, 47577, Note_on_c, 0, 88, 0
2, 47582, Note_on_c, 0, 87, 94
2, 47637, Note_on_c, 0, 87, 0
2, 47642, Note_on_c, 0, 85, 94
2, 47697, Note_on_c, 0, 85, 0
2, 47702, Note_on_c, 0, 83, 94
2, 47757, Note_on_c, 0, 83, 0
2, 47762, Note_on_c, 0, 81, 94
2, 47817, Note_on_c, 0, 81, 0
2, 47822, Note_on_c, 0, 80, 94
2, 47877, Note_on_c, 0, 80, 0
2, 47882, Note_on_c, 0, 78, 94
2, 47937, Note_on_c, 0, 78, 0
2, 47942, Note_on_c, 0, 76, 94
2, 47997, Note_on_c, 0, 76, 0
2, 48002, Note_on_c, 0, 85, 94
2, 48122, Note_on_c, 0, 85, 0
2, 48122, Note_on_c, 0, 85, 94
2, 48482, Note_on_c, 0, 85, 0
2, 48482, Note_on_c, 0, 85, 94
2, 48537, Note_on_c, 0, 85, 0
2, 48542, Note_on_c, 0, 83, 94
2, 48597, Note_on_c, 0, 83, 0
2, 48602, Note_on_c, 0, 81, 94
2, 48657, Note_on_c, 0, 81, 0
2, 48662, Note_on_c, 0, 80, 94
2, 48717, Note_on_c, 0, 80, 0
2, 48722, Note_on_c, 0, 78, 94
2, 48777, Note_on_c, 0, 78, 0
2, 48782, Note_on_c, 0, 76, 94
2, 48837, Note_on_c, 0, 76, 0
2, 48842, Note_on_c, 0, 75, 94
2, 48897, Note_on_c, 0, 75, 0
2, 48902, Note_on_c, 0, 73, 94
2, 48957, Note_on_c, 0, 73, 0
2, 48962, Note_on_c, 0, 85, 94
2, 48962, Note_on_c, 0, 90, 94
2, 49922, Note_on_c, 0, 90, 0
2, 49922, Note_on_c, 0, 85, 0
2, 49922, Note_on_c, 0, 90, 94
2, 50282, Note_on_c, 0, 90, 0
2, 50282, Control_c, 0, 11, 98
2, 50282, Note_on_c, 0, 89, 94
2, 50282, Note_on_c, 0, 92, 94
2, 50299, Control_c, 0, 11, 97
2, 50317, Control_c, 0, 11, 95
2, 50335, Control_c, 0, 11, 93
2, 50353, Control_c, 0, 11, 91
2, 50371, Control_c, 0, 11, 89
2, 50389, Control_c, 0, 11, 87
2, 50402, Note_on_c, 0, 92, 0
2, 50402, Note_on_c, 0, 89, 0
2, 50402, Note_on_c, 0, 90, 94
2, 50762, Note_on_c, 0, 90, 0
2, 50762, Control_c, 0, 11, 98
2, 50762, Note_on_c, 0, 89, 94
2, 50762, Note_on_c, 0, 92, 94
2, 50779, Control_c, 0, 11, 97
2, 50797, Control_c, 0, 11, 95
2, 50815, Control_c, 0, 11, 93
2, 50833, Control_c, 0, 11, 91
2, 50851, Control_c, 0, 11, 89
2, 50869, Control_c, 0, 11, 87
2, 50882, Note_on_c, 0, 92, 0
2, 50882, Note_on_c, 0, 89, 0
2, 50882, Note_on_c, 0, 90, 94
2, 51002, Note_on_c, 0, 90, 0
2, 51002, Control_c, 0, 11, 98
2, 51002, Note_on_c, 0, 89, 94
2, 51002, Note_on_c, 0, 92, 94
2, 51019, Control_c, 0, 11, 97
2, 51037, Control_c, 0, 11, 95
2, 51055, Control_c, 0, 11, 93
2, 51073, Control_c, 0, 11, 91
2, 51091, Control_c, 0, 11, 89
2, 51109, Control_c, 0, 11, 87
2, 51122, Note_on_c, 0, 92, 0
2, 51122, Note_on_c, 0, 89, 0
2, 51122, Note_on_c, 0, 90, 94
2, 51242, Note_on_c, 0, 90, 0
2, 51242, Control_c, 0, 11, 98
2, 51242, Note_on_c, 0, 89, 94
2, 51242, Note_on_c, 0, 92, 94
2, 51259, Control_c, 0, 11, 97
2, 51277, Control_c, 0, 11, 95
2, 51295, Control_c, 0, 11, 93
2, 51313, Control_c, 0, 11, 91
2, 51331, Control_c, 0, 11, 89
2, 51349, Control_c, 0, 11, 87
2, 51362, Note_on_c, 0, 92, 0
2, 51362, Note_on_c, 0, 89, 0
2, 51362, Note_on_c, 0, 90, 94
2, 51482, Note_on_c, 0, 90, 0
2, 51482, Control_c, 0, 11, 98
2, 51482, Note_on_c, 0, 89, 94
2, 51482, Note_on_c, 0, 92, 94
2, 51499, Control_c, 0, 11, 97
2, 51517, Control_c, 0, 11, 95
2, 51535, Control_c, 0, 11, 93
2, 51553, Control_c, 0, 11, 91
2, 51571, Control_c, 0, 11, 89
2, 51589, Control_c, 0, 11, 87
2, 51602, Note_on_c, 0, 92, 0
2, 51602, Note_on_c, 0, 89, 0
2, 51602, Note_on_c, 0, 90, 94
2, 51722, Note_on_c, 0, 90, 0
2, 51722, Control_c, 0, 11, 98
2, 51722, Note_on_c, 0, 88, 94
2, 51722, Note_on_c, 0, 85, 94
2, 51739, Control_c, 0, 11, 97
2, 51757, Control_c, 0, 11, 95
2, 51775, Control_c, 0, 11, 93
2, 51793, Control_c, 0, 11, 91
2, 51811, Control_c, 0, 11, 89
2, 51829, Control_c, 0, 11, 87
2, 51842, Note_on_c, 0, 85, 0
2, 51842, Note_on_c, 0, 88, 0
2, 51842, Note_on_c, 0, 83, 94
2, 51842, Note_on_c, 0, 87, 94
2, 51962, Note_on_c, 0, 87, 0
2, 51962, Note_on_c, 0, 83, 0
2, 51962, Control_c, 0, 11, 98
2, 51962, Note_on_c, 0, 90, 94
2, 51962, Note_on_c, 0, 83, 94
2, 51979, Control_c, 0, 11, 97
2, 51997, Control_c, 0, 11, 95
2, 52015, Control_c, 0, 11, 93
2, 52033, Control_c, 0, 11, 91
2, 52051, Control_c, 0, 11, 89
2, 52069, Control_c, 0, 11, 87
2, 52082, Note_on_c, 0, 83, 0
2, 52082, Note_on_c, 0, 90, 0
2, 52082, Note_on_c, 0, 85, 94
2, 52082, Note_on_c, 0, 80, 94
2, 52202, Note_on_c, 0, 80, 0
2, 52202, Note_on_c, 0, 85, 0
2, 52202, Control_c, 0, 11, 98
2, 52202, Note_on_c, 0, 88, 94
2, 52202, Note_on_c, 0, 80, 94
2, 52219, Control_c, 0, 11, 97
2, 52237, Control_c, 0, 11, 95
2, 52255, Control_c, 0, 11, 93
2, 52273, Control_c, 0, 11, 91
2, 52291, Control_c, 0, 11, 89
2, 52309, Control_c, 0, 11, 87
2, 52322, Note_on_c, 0, 80, 0
2, 52322, Note_on_c, 0, 88, 0
2, 52322, Note_on_c, 0, 75, 94
2, 52322, Note_on_c, 0, 83, 94
2, 52442, Note_on_c, 0, 83, 0
2, 52442, Note_on_c, 0, 75, 0
2, 52442, Control_c, 0, 11, 98
2, 52442, Note_on_c, 0, 87, 94
2, 52442, Note_on_c, 0, 78, 94
2, 52459, Control_c, 0, 11, 97
2, 52477, Control_c, 0, 11, 95
2, 52495, Control_c, 0, 11, 93
2, 52513, Control_c, 0, 11, 91
2, 52531, Control_c, 0, 11, 89
2, 52549, Control_c, 0, 11, 87
2, 52562, Note_on_c, 0, 78, 0
2, 52562, Note_on_c, 0, 87, 0
2, 52562, Note_on_c, 0, 82, 94
2, 52562, Note_on_c, 0, 78, 94
2, 52682, Note_on_c, 0, 78, 0
2, 52682, Note_on_c, 0, 82, 0
2, 52682, Control_c, 0, 11, 98
2, 52682, Note_on_c, 0, 85, 94
2, 52682, Note_on_c, 0, 78, 94
2, 52699, Control_c, 0, 11, 97
2, 52717, Control_c, 0, 11, 95
2, 52735, Control_c, 0, 11, 93
2, 52753, Control_c, 0, 11, 91
2, 52771, Control_c, 0, 11, 89
2, 52789, Control_c, 0, 11, 87
2, 52802, Note_on_c, 0, 78, 0
2, 52802, Note_on_c, 0, 85, 0
2, 52802, Note_on_c, 0, 83, 84
2, 52802, Note_on_c, 0, 78, 84
2, 52922, Note_on_c, 0, 78, 0
2, 52922, Note_on_c, 0, 83, 0
2, 53162, Note_on_c, 0, 85, 94
2, 53162, Note_on_c, 0, 88, 94
2, 53282, Note_on_c, 0, 88, 0
2, 53282, Note_on_c, 0, 85, 0
2, 53282, Note_on_c, 0, 83, 94
2, 53282, Note_on_c, 0, 87, 94
2, 53402, Note_on_c, 0, 87, 0
2, 53402, Note_on_c, 0, 83, 0
2, 53642, Note_on_c, 0, 85, 94
2, 53642, Note_on_c, 0, 88, 94
2, 53762, Note_on_c, 0, 88, 0
2, 53762, Note_on_c, 0, 85, 0
2, 53762, Note_on_c, 0, 87, 94
2, 53762, Note_on_c, 0, 83, 94
2, 53882, Note_on_c, 0, 83, 0
2, 53882, Note_on_c, 0, 87, 0
2, 54122, Note_on_c, 0, 88, 94
2, 54122, Note_on_c, 0, 85, 94
2, 54242, Note_on_c, 0, 85, 0
2, 54242, Note_on_c, 0, 88, 0
2, 54242, Note_on_c, 0, 83, 94
2, 54242, Note_on_c, 0, 87, 94
2, 54362, Note_on_c, 0, 87, 0
2, 54362, Note_on_c, 0, 83, 0
2, 54602, Note_on_c, 0, 85, 94
2, 54602, Note_on_c, 0, 88, 94
2, 54722, Note_on_c, 0, 88, 0
2, 54722, Note_on_c, 0, 85, 0
2, 54722, Note_on_c, 0, 83, 94
2, 54722, Note_on_c, 0, 87, 94
2, 54837, Note_on_c, 0, 87, 0
2, 54837, Note_on_c, 0, 83, 0
2, 54842, Note_on_c, 0, 83, 94
2, 54842, Note_on_c, 0, 87, 94
2, 54897, Note_on_c, 0, 87, 0
2, 54897, Note_on_c, 0, 83, 0
2, 54902, Note_on_c, 0, 83, 94
2, 54902, Note_on_c, 0, 87, 94
2, 54957, Note_on_c, 0, 87, 0
2, 54957, Note_on_c, 0, 83, 0
2, 54962, Note_on_c, 0, 87, 94
2, 54962, Note_on_c, 0, 83, 94
2, 55082, Note_on_c, 0, 83, 0
2, 55082, Note_on_c, 0, 87, 0
2, 55202, Note_on_c, 0, 87, 94
2, 55202, Note_on_c, 0, 90, 94
2, 55317, Note_on_c, 0, 90, 0
2, 55317, Note_on_c, 0, 87, 0
2, 55322, Note_on_c, 0, 87, 94
2, 55322, Note_on_c, 0, 90, 94
2, 55377, Note_on_c, 0, 90, 0
2, 55377, Note_on_c, 0, 87, 0
2, 55382, Note_on_c, 0, 87, 94
2, 55382, Note_on_c, 0, 90, 94
2, 55437, Note_on_c, 0, 90, 0
2, 55437, Note_on_c, 0, 87, 0
2, 55442, Note_on_c, 0, 90, 94
2, 55442, Note_on_c, 0, 87, 94
2, 55562, Note_on_c, 0, 87, 0
2, 55562, Note_on_c, 0, 90, 0
2, 55682, Note_on_c, 0, 83, 94
2, 55797, Note_on_c, 0, 83, 0
2, 55802, Note_on_c, 0, 83, 94
2, 55857, Note_on_c, 0, 83, 0
2, 55862, Note_on_c, 0, 83, 94
2, 55917, Note_on_c, 0, 83, 0
2, 55922, Note_on_c, 0, 83, 94
2, 56037, Note_on_c, 0, 83, 0
2, 56042, Note_on_c, 0, 83, 94
2, 56097, Note_on_c, 0, 83, 0
2, 56102, Note_on_c, 0, 83, 94
2, 56157, Note_on_c, 0, 83, 0
2, 56162, Note_on_c, 0, 83, 94
2, 56277, Note_on_c, 0, 83, 0
2, 56282, Note_on_c, 0, 83, 94
2, 56337, Note_on_c, 0, 83, 0
2, 56342, Note_on_c, 0, 83, 94
2, 56397, Note_on_c, 0, 83, 0
2, 56402, Note_on_c, 0, 83, 94
2, 56517, Note_on_c, 0, 83, 0
2, 56522, Note_on_c, 0, 83, 94
2, 56577, Note_on_c, 0, 83, 0
2, 56582, Note_on_c, 0, 83, 94
2, 56637, Note_on_c, 0, 83, 0
2, 56642, Note_on_c, 0, 83, 89
2, 56762, Note_on_c, 0, 83, 0
2, 61082, Control_c, 0, 11, 47
2, 61082, Note_on_c, 0, 83, 109
2, 61202, Note_on_c, 0, 83, 0
2, 61202, Note_on_c, 0, 81, 104
2, 61322, Note_on_c, 0, 81, 0
2, 61322, Note_on_c, 0, 79, 99
2, 61442, Note_on_c, 0, 79, 0
2, 61442, Note_on_c, 0, 77, 94
2, 61502, Note_on_c, 0, 77, 0
2, 63482, Note_on_c, 0, 89, 109
2, 63482, Note_on_c, 0, 86, 109
2, 63602, Note_on_c, 0, 86, 0
2, 63602, Note_on_c, 0, 89, 0
2, 63602, Note_on_c, 0, 84, 104
2, 63602, Note_on_c, 0, 88, 104
2, 63722, Note_on_c, 0, 88, 0
2, 63722, Note_on_c, 0, 84, 0
2, 63722, Note_on_c, 0, 83, 99
2, 63722, Note_on_c, 0, 86, 99
2, 63842, Note_on_c, 0, 86, 0
2, 63842, Note_on_c, 0, 83, 0
2, 63842, Note_on_c, 0, 81, 94
2, 63842, Note_on_c, 0, 84, 94
2, 63902, Note_on_c, 0, 84, 0
2, 63902, Note_on_c, 0, 81, 0
2, 64442, Note_on_c, 0, 86, 109
2, 64562, Note_on_c, 0, 86, 0
2, 64562, Note_on_c, 0, 84, 104
2, 64682, Note_on_c, 0, 84, 0
2, 64682, Note_on_c, 0, 83, 99
2, 64802, Note_on_c, 0, 83, 0
2, 64802, Note_on_c, 0, 84, 94
2, 64862, Note_on_c, 0, 84, 0
2, 65402, Note_on_c, 0, 84, 109
2, 65522, Note_on_c, 0, 84, 0
2, 65522, Note_on_c, 0, 83, 102
2, 65642, Note_on_c, 0, 83, 0
2, 65642, Note_on_c, 0, 81, 94
2, 65762, Note_on_c, 0, 81, 0
2, 67322, Note_on_c, 0, 84, 109
2, 67442, Note_on_c, 0, 84, 0
2, 67442, Note_on_c, 0, 83, 102
2, 67562, Note_on_c, 0, 83, 0
2, 67562, Note_on_c, 0, 81, 94
2, 67682, Note_on_c, 0, 81, 0
2, 69722, Control_c, 0, 11, 47
2, 69758, Control_c, 0, 11, 48
2, 69794, Control_c, 0, 11, 49
2, 69830, Control_c, 0, 11, 50
2, 69866, Control_c, 0, 11, 51
2, 69902, Control_c, 0, 11, 52
2, 69938, Control_c, 0, 11, 53
2, 69974, Control_c, 0, 11, 54
2, 70010, Control_c, 0, 11, 55
2, 70046, Control_c, 0, 11, 56
2, 70082, Control_c, 0, 11, 57
2, 70118, Control_c, 0, 11, 58
2, 70154, Control_c, 0, 11, 59
2, 70190, Control_c, 0, 11, 60
2, 70202, Note_on_c, 0, 90, 116
2, 70226, Control_c, 0, 11, 61
2, 70262, Control_c, 0, 11, 62
2, 70298, Control_c, 0, 11, 62
2, 70322, Note_on_c, 0, 90, 0
2, 70322, Note_on_c, 0, 88, 109
2, 70334, Control_c, 0, 11, 63
2, 70370, Control_c, 0, 11, 63
2, 70406, Control_c, 0, 11, 64
2, 70442, Note_on_c, 0, 88, 0
2, 70442, Control_c, 0, 11, 65
2, 70442, Note_on_c, 0, 87, 102
2, 70562, Note_on_c, 0, 87, 0
2, 70562, Control_c, 0, 11, 47
2, 70562, Note_on_c, 0, 88, 94
2, 70682, Note_on_c, 0, 88, 0
2, 76442, Control_c, 0, 11, 62
2, 76442, Note_on_c, 0, 93, 94
2, 76470, Control_c, 0, 11, 63
2, 76485, Control_c, 0, 11, 63
2, 76514, Control_c, 0, 11, 65
2, 76542, Control_c, 0, 11, 66
2, 76557, Control_c, 0, 11, 66
2, 76562, Note_on_c, 0, 93, 0
2, 76562, Note_on_c, 0, 92, 94
2, 76586, Control_c, 0, 11, 68
2, 76614, Control_c, 0, 11, 69
2, 76629, Control_c, 0, 11, 70
2, 76658, Control_c, 0, 11, 71
2, 76682, Note_on_c, 0, 92, 0
2, 76682, Note_on_c, 0, 90, 94
2, 76686, Control_c, 0, 11, 72
2, 76701, Control_c, 0, 11, 73
2, 76730, Control_c, 0, 11, 74
2, 76758, Control_c, 0, 11, 75
2, 76773, Control_c, 0, 11, 76
2, 76802, Note_on_c, 0, 90, 0
2, 76802, Control_c, 0, 11, 77
2, 76802, Note_on_c, 0, 88, 94
2, 76922, Note_on_c, 0, 88, 0
2, 77282, Note_on_c, 0, 85, 94
2, 77282, Note_on_c, 0, 81, 94
2, 77402, Note_on_c, 0, 81, 0
2, 77402, Note_on_c, 0, 85, 0
2, 77762, Note_on_c, 0, 78, 94
2, 77762, Note_on_c, 0, 81, 94
2, 77882, Note_on_c, 0, 81, 0
2, 77882, Note_on_c, 0, 78, 0
2, 78122, Note_on_c, 0, 90, 94
2, 78122, Note_on_c, 0, 93, 94
2, 78242, Note_on_c, 0, 93, 0
2, 78242, Note_on_c, 0, 90, 0
2, 78242, Note_on_c, 0, 87, 94
2, 78242, Note_on_c, 0, 90, 94
2, 78362, Note_on_c, 0, 90, 0
2, 78362, Note_on_c, 0, 87, 0
2, 78362, Note_on_c, 0, 81, 94
2, 78362, Note_on_c, 0, 78, 94
2, 78482, Note_on_c, 0, 78, 0
2, 78482, Note_on_c, 0, 81, 0
2, 78482, Note_on_c, 0, 81, 94
2, 78482, Note_on_c, 0, 90, 94
2, 78602, Note_on_c, 0, 90, 0
2, 78602, Note_on_c, 0, 81, 0
2, 78602, Note_on_c, 0, 81, 94
2, 78602, Note_on_c, 0, 78, 94
2, 78722, Note_on_c, 0, 78, 0
2, 78722, Note_on_c, 0, 81, 0
2, 78722, Note_on_c, 0, 76, 94
2, 78722, Note_on_c, 0, 80, 94
2, 78842, Note_on_c, 0, 80, 0
2, 78842, Note_on_c, 0, 76, 0
2, 78842, Note_on_c, 0, 80, 94
2, 78842, Note_on_c, 0, 88, 94
2, 78962, Note_on_c, 0, 88, 0
2, 78962, Note_on_c, 0, 80, 0
2, 79202, Note_on_c, 0, 85, 94
2, 79202, Note_on_c, 0, 81, 94
2, 79322, Note_on_c, 0, 81, 0
2, 79322, Note_on_c, 0, 85, 0
2, 79322, Note_on_c, 0, 85, 94
2, 79322, Note_on_c, 0, 81, 94
2, 79442, Note_on_c, 0, 81, 0
2, 79442, Note_on_c, 0, 85, 0
2, 79682, Note_on_c, 0, 78, 94
2, 79682, Note_on_c, 0, 81, 94
2, 79802, Note_on_c, 0, 81, 0
2, 79802, Note_on_c, 0, 78, 0
2, 79802, Note_on_c, 0, 78, 94
2, 79802, Note_on_c, 0, 81, 94
2, 79922, Note_on_c, 0, 81, 0
2, 79922, Note_on_c, 0, 78, 0
2, 80042, Note_on_c, 0, 80, 94
2, 80042, Note_on_c, 0, 76, 94
2, 80162, Note_on_c, 0, 76, 0
2, 80162, Note_on_c, 0, 80, 0
2, 80162, Note_on_c, 0, 78, 94
2, 80162, Note_on_c, 0, 81, 94
2, 80282, Note_on_c, 0, 81, 0
2, 80282, Note_on_c, 0, 78, 0
2, 80282, Note_on_c, 0, 78, 94
2, 80282, Note_on_c, 0, 81, 94
2, 80402, Note_on_c, 0, 81, 0
2, 80402, Note_on_c, 0, 78, 0
2, 80402, Note_on_c, 0, 81, 94
2, 80402, Note_on_c, 0, 90, 94
2, 80522, Note_on_c, 0, 90, 0
2, 80522, Note_on_c, 0, 81, 0
2, 80522, Note_on_c, 0, 81, 94
2, 80522, Note_on_c, 0, 78, 94
2, 80642, Note_on_c, 0, 78, 0
2, 80642, Note_on_c, 0, 81, 0
2, 80642, Note_on_c, 0, 80, 94
2, 80642, Note_on_c, 0, 76, 94
2, 80762, Note_on_c, 0, 76, 0
2, 80762, Note_on_c, 0, 80, 0
2, 80882, Note_on_c, 0, 88, 94
2, 80882, Note_on_c, 0, 92, 94
2, 81002, Note_on_c, 0, 92, 0
2, 81002, Note_on_c, 0, 88, 0
2, 81122, Note_on_c, 0, 88, 94
2, 81122, Note_on_c, 0, 92, 94
2, 81242, Note_on_c, 0, 92, 0
2, 81242, Note_on_c, 0, 88, 0
2, 81362, Note_on_c, 0, 92, 94
2, 81362, Note_on_c, 0, 88, 94
2, 81482, Note_on_c, 0, 88, 0
2, 81482, Note_on_c, 0, 92, 0
2, 81602, Control_c, 0, 11, 89
2, 81602, Note_on_c, 0, 93, 94
2, 81602, Note_on_c, 0, 90, 94
2, 81619, Control_c, 0, 11, 87
2, 81637, Control_c, 0, 11, 86
2, 81655, Control_c, 0, 11, 84
2, 81673, Control_c, 0, 11, 82
2, 81691, Control_c, 0, 11, 80
2, 81709, Control_c, 0, 11, 78
2, 82562, Note_on_c, 0, 90, 0
2, 82562, Note_on_c, 0, 93, 0
2, 82562, Note_on_c, 0, 88, 94
2, 82562, Note_on_c, 0, 92, 94
2, 82682, Note_on_c, 0, 92, 0
2, 82682, Note_on_c, 0, 88, 0
2, 82802, Note_on_c, 0, 88, 94
2, 82802, Note_on_c, 0, 92, 94
2, 82922, Note_on_c, 0, 92, 0
2, 82922, Note_on_c, 0, 88, 0
2, 83042, Note_on_c, 0, 88, 94
2, 83042, Note_on_c, 0, 92, 94
2, 83162, Note_on_c, 0, 92, 0
2, 83162, Note_on_c, 0, 88, 0
2, 83282, Note_on_c, 0, 92, 94
2, 83282, Note_on_c, 0, 88, 94
2, 83402, Note_on_c, 0, 88, 0
2, 83402, Note_on_c, 0, 92, 0
2, 83522, Control_c, 0, 11, 89
2, 83522, Note_on_c, 0, 93, 94
2, 83522, Note_on_c, 0, 90, 94
2, 83539, Control_c, 0, 11, 87
2, 83557, Control_c, 0, 11, 86
2, 83575, Control_c, 0, 11, 84
2, 83593, Control_c, 0, 11, 82
2, 83611, Control_c, 0, 11, 80
2, 83629, Control_c, 0, 11, 78
2, 84482, Note_on_c, 0, 90, 0
2, 84482, Note_on_c, 0, 93, 0
2, 84482, Note_on_c, 0, 92, 94
2, 84482, Note_on_c, 0, 88, 94
2, 85442, Note_on_c, 0, 88, 0
2, 85442, Note_on_c, 0, 92, 0
2, 85442, Note_on_c, 0, 86, 94
2, 85442, Note_on_c, 0, 88, 94
2, 86162, Note_on_c, 0, 88, 0
2, 86162, Note_on_c, 0, 86, 0
2, 86162, Note_on_c, 0, 88, 94
2, 86192, Note_on_c, 0, 88, 0
2, 86222, Note_on_c, 0, 86, 94
2, 86252, Note_on_c, 0, 86, 0
2, 86282, Note_on_c, 0, 83, 94
2, 86312, Note_on_c, 0, 83, 0
2, 86342, Note_on_c, 0, 81, 94
2, 86372, Note_on_c, 0, 81, 0
2, 86402, Note_on_c, 0, 80, 75
2, 86522, Note_on_c, 0, 80, 0
2, 87002, Control_c, 0, 11, 52
2, 87002, Note_on_c, 0, 76, 84
2, 87122, Note_on_c, 0, 76, 0
2, 87242, Note_on_c, 0, 76, 84
2, 87362, Note_on_c, 0, 76, 0
2, 87482, Note_on_c, 0, 88, 84
2, 87602, Note_on_c, 0, 88, 0
2, 87722, Note_on_c, 0, 76, 84
2, 87842, Note_on_c, 0, 76, 0
2, 87962, Note_on_c, 0, 76, 84
2, 88082, Note_on_c, 0, 76, 0
2, 88202, Note_on_c, 0, 88, 84
2, 88322, Note_on_c, 0, 88, 0
2, 88322, Note_on_c, 0, 88, 84
2, 88442, Note_on_c, 0, 88, 0
2, 88922, Note_on_c, 0, 76, 94
2, 89042, Note_on_c, 0, 76, 0
2, 89162, Note_on_c, 0, 76, 94
2, 89282, Note_on_c, 0, 76, 0
2, 89402, Note_on_c, 0, 88, 94
2, 89522, Note_on_c, 0, 88, 0
2, 89642, Note_on_c, 0, 76, 94
2, 89762, Note_on_c, 0, 76, 0
2, 89882, Note_on_c, 0, 76, 94
2, 90002, Note_on_c, 0, 76, 0
2, 90122, Note_on_c, 0, 88, 94
2, 90242, Note_on_c, 0, 88, 0
2, 90242, Note_on_c, 0, 88, 94
2, 90362, Note_on_c, 0, 88, 0
2, 90842, Note_on_c, 0, 78, 94
2, 90962, Note_on_c, 0, 78, 0
2, 91082, Note_on_c, 0, 90, 94
2, 91202, Note_on_c, 0, 90, 0
2, 91202, Note_on_c, 0, 90, 94
2, 91322, Note_on_c, 0, 90, 0
2, 91802, Note_on_c, 0, 79, 94
2, 91922, Note_on_c, 0, 79, 0
2, 92042, Note_on_c, 0, 79, 94
2, 92162, Note_on_c, 0, 79, 0
2, 92282, Note_on_c, 0, 91, 94
2, 92402, Note_on_c, 0, 91, 0
2, 92522, Note_on_c, 0, 79, 94
2, 92642, Note_on_c, 0, 79, 0
2, 92762, Note_on_c, 0, 79, 94
2, 92882, Note_on_c, 0, 79, 0
2, 93002, Note_on_c, 0, 91, 94
2, 93122, Note_on_c, 0, 91, 0
2, 93242, Control_c, 0, 11, 47
2, 93242, Note_on_c, 0, 79, 94
2, 93242, Note_on_c, 0, 91, 94
2, 93287, Control_c, 0, 11, 48
2, 93332, Control_c, 0, 11, 49
2, 93377, Control_c, 0, 11, 50
2, 93422, Control_c, 0, 11, 51
2, 93467, Control_c, 0, 11, 52
2, 93482, Note_on_c, 0, 91, 0
2, 93482, Note_on_c, 0, 79, 0
2, 93482, Note_on_c, 0, 93, 94
2, 93482, Note_on_c, 0, 81, 94
2, 93512, Control_c, 0, 11, 53
2, 93557, Control_c, 0, 11, 54
2, 93602, Note_on_c, 0, 81, 0
2, 93602, Note_on_c, 0, 93, 0
2, 93602, Control_c, 0, 11, 55
2, 93602, Note_on_c, 0, 79, 94
2, 93602, Note_on_c, 0, 91, 94
2, 93647, Control_c, 0, 11, 56
2, 93692, Control_c, 0, 11, 57
2, 93722, Note_on_c, 0, 91, 0
2, 93722, Note_on_c, 0, 79, 0
2, 93722, Note_on_c, 0, 83, 94
2, 93722, Note_on_c, 0, 86, 94
2, 93737, Control_c, 0, 11, 58
2, 93782, Control_c, 0, 11, 59
2, 93827, Control_c, 0, 11, 60
2, 93872, Control_c, 0, 11, 61
2, 93917, Control_c, 0, 11, 62
2, 93962, Note_on_c, 0, 86, 0
2, 93962, Note_on_c, 0, 83, 0
2, 93962, Control_c, 0, 11, 62
2, 93962, Note_on_c, 0, 86, 94
2, 93962, Note_on_c, 0, 83, 94
2, 94007, Control_c, 0, 11, 63
2, 94052, Control_c, 0, 11, 63
2, 94082, Note_on_c, 0, 83, 0
2, 94082, Note_on_c, 0, 86, 0
2, 94082, Note_on_c, 0, 84, 94
2, 94082, Note_on_c, 0, 88, 94
2, 94097, Control_c, 0, 11, 64
2, 94142, Control_c, 0, 11, 65
2, 94187, Control_c, 0, 11, 65
2, 94202, Note_on_c, 0, 88, 0
2, 94202, Note_on_c, 0, 84, 0
2, 94202, Note_on_c, 0, 86, 94
2, 94202, Note_on_c, 0, 83, 94
2, 94232, Control_c, 0, 11, 66
2, 94277, Control_c, 0, 11, 66
2, 94322, Note_on_c, 0, 83, 0
2, 94322, Note_on_c, 0, 86, 0
2, 94322, Control_c, 0, 11, 67
2, 94367, Control_c, 0, 11, 68
2, 94412, Control_c, 0, 11, 68
2, 94442, Note_on_c, 0, 86, 94
2, 94442, Note_on_c, 0, 83, 94
2, 94457, Control_c, 0, 11, 69
2, 94502, Control_c, 0, 11, 70
2, 94547, Control_c, 0, 11, 70
2, 94562, Note_on_c, 0, 83, 0
2, 94562, Note_on_c, 0, 86, 0
2, 94562, Note_on_c, 0, 88, 94
2, 94562, Note_on_c, 0, 84, 94
2, 94592, Control_c, 0, 11, 71
2, 94637, Control_c, 0, 11, 71
2, 94682, Note_on_c, 0, 84, 0
2, 94682, Note_on_c, 0, 88, 0
2, 94682, Control_c, 0, 11, 72
2, 94682, Note_on_c, 0, 86, 94
2, 94682, Note_on_c, 0, 83, 94
2, 94727, Control_c, 0, 11, 73
2, 94772, Control_c, 0, 11, 73
2, 94802, Note_on_c, 0, 83, 0
2, 94802, Note_on_c, 0, 86, 0
2, 94817, Control_c, 0, 11, 74
2, 94862, Control_c, 0, 11, 74
2, 94907, Control_c, 0, 11, 75
2, 94922, Note_on_c, 0, 83, 94
2, 94922, Note_on_c, 0, 86, 94
2, 94952, Control_c, 0, 11, 76
2, 94997, Control_c, 0, 11, 76
2, 95042, Note_on_c, 0, 86, 0
2, 95042, Note_on_c, 0, 83, 0
2, 95042, Control_c, 0, 11, 77
2, 95042, Note_on_c, 0, 88, 94
2, 95042, Note_on_c, 0, 84, 94
2, 95162, Note_on_c, 0, 84, 0
2, 95162, Note_on_c, 0, 88, 0
2, 95162, Note_on_c, 0, 83, 94
2, 95162, Note_on_c, 0, 86, 94
2, 95222, Note_on_c, 0, 86, 0
2, 95222, Note_on_c, 0, 83, 0
2, 95222, Note_on_c, 0, 83, 94
2, 95222, Note_on_c, 0, 86, 94
2, 95282, Note_on_c, 0, 86, 0
2, 95282, Note_on_c, 0, 83, 0
2, 95282, Note_on_c, 0, 84, 94
2, 95282, Note_on_c, 0, 88, 94
2, 95402, Note_on_c, 0, 88, 0
2, 95402, Note_on_c, 0, 84, 0
2, 95402, Note_on_c, 0, 86, 94
2, 95402, Note_on_c, 0, 83, 94
2, 95462, Note_on_c, 0, 83, 0
2, 95462, Note_on_c, 0, 86, 0
2, 95462, Note_on_c, 0, 83, 94
2, 95462, Note_on_c, 0, 86, 94
2, 95522, Note_on_c, 0, 86, 0
2, 95522, Note_on_c, 0, 83, 0
2, 95522, Note_on_c, 0, 84, 94
2, 95522, Note_on_c, 0, 88, 94
2, 95642, Note_on_c, 0, 88, 0
2, 95642, Note_on_c, 0, 84, 0
2, 95642, Note_on_c, 0, 86, 94
2, 95642, Note_on_c, 0, 83, 94
2, 95702, Note_on_c, 0, 83, 0
2, 95702, Note_on_c, 0, 86, 0
2, 95702, Note_on_c, 0, 83, 94
2, 95702, Note_on_c, 0, 86, 94
2, 95762, Note_on_c, 0, 86, 0
2, 95762, Note_on_c, 0, 83, 0
2, 95762, Note_on_c, 0, 88, 94
2, 95762, Note_on_c, 0, 84, 94
2, 95882, Note_on_c, 0, 84, 0
2, 95882, Note_on_c, 0, 88, 0
2, 95882, Note_on_c, 0, 86, 94
2, 95882, Note_on_c, 0, 83, 94
2, 95942, Note_on_c, 0, 83, 0
2, 95942, Note_on_c, 0, 86, 0
2, 95942, Note_on_c, 0, 83, 94
2, 95942, Note_on_c, 0, 86, 94
2, 96002, Note_on_c, 0, 86, 0
2, 96002, Note_on_c, 0, 83, 0
2, 96002, Control_c, 0, 11, 86
2, 96002, Note_on_c, 0, 88, 94
2, 96002, Note_on_c, 0, 84, 94
2, 96482, Note_on_c, 0, 84, 0
2, 96482, Note_on_c, 0, 88, 0
2, 96482, Note_on_c, 0, 84, 94
2, 96542, Note_on_c, 0, 84, 0
2, 96542, Note_on_c, 0, 83, 94
2, 96602, Note_on_c, 0, 83, 0
2, 96602, Note_on_c, 0, 81, 94
2, 96662, Note_on_c, 0, 81, 0
2, 96662, Note_on_c, 0, 79, 94
2, 96722, Note_on_c, 0, 79, 0
2, 96722, Note_on_c, 0, 77, 94
2, 96782, Note_on_c, 0, 77, 0
2, 96782, Note_on_c, 0, 76, 94
2, 96842, Note_on_c, 0, 76, 0
2, 96842, Note_on_c, 0, 74, 94
2, 96902, Note_on_c, 0, 74, 0
2, 96902, Note_on_c, 0, 72, 94
2, 96962, Note_on_c, 0, 72, 0
2, 96962, Note_on_c, 0, 93, 94
2, 97442, Note_on_c, 0, 93, 0
2, 97442, Note_on_c, 0, 93, 94
2, 97502, Note_on_c, 0, 93, 0
2, 97502, Note_on_c, 0, 91, 94
2, 97562, Note_on_c, 0, 91, 0
2, 97562, Note_on_c, 0, 89, 94
2, 97622, Note_on_c, 0, 89, 0
2, 97622, Note_on_c, 0, 88, 94
2, 97682, Note_on_c, 0, 88, 0
2, 97682, Note_on_c, 0, 86, 94
2, 97742, Note_on_c, 0, 86, 0
2, 97742, Note_on_c, 0, 84, 94
2, 97802, Note_on_c, 0, 84, 0
2, 97802, Note_on_c, 0, 83, 94
2, 97862, Note_on_c, 0, 83, 0
2, 97862, Note_on_c, 0, 81, 94
2, 97922, Note_on_c, 0, 81, 0
2, 97922, Note_on_c, 0, 89, 94
2, 97922, Note_on_c, 0, 84, 94
2, 98882, Note_on_c, 0, 84, 0
2, 98882, Note_on_c, 0, 89, 0
2, 98882, Note_on_c, 0, 89, 94
2, 99242, Note_on_c, 0, 89, 0
2, 99242, Control_c, 0, 11, 98
2, 99242, Note_on_c, 0, 88, 94
2, 99242, Note_on_c, 0, 91, 94
2, 99259, Control_c, 0, 11, 97
2, 99277, Control_c, 0, 11, 95
2, 99295, Control_c, 0, 11, 93
2, 99313, Control_c, 0, 11, 91
2, 99331, Control_c, 0, 11, 89
2, 99349, Control_c, 0, 11, 87
2, 99362, Note_on_c, 0, 91, 0
2, 99362, Note_on_c, 0, 88, 0
2, 99362, Note_on_c, 0, 89, 94
2, 99722, Note_on_c, 0, 89, 0
2, 99722, Control_c, 0, 11, 98
2, 99722, Note_on_c, 0, 88, 94
2, 99722, Note_on_c, 0, 91, 94
2, 99739, Control_c, 0, 11, 97
2, 99757, Control_c, 0, 11, 95
2, 99775, Control_c, 0, 11, 93
2, 99793, Control_c, 0, 11, 91
2, 99811, Control_c, 0, 11, 89
2, 99829, Control_c, 0, 11, 87
2, 99842, Note_on_c, 0, 91, 0
2, 99842, Note_on_c, 0, 88, 0
2, 99842, Note_on_c, 0, 89, 94
2, 99962, Note_on_c, 0, 89, 0
2, 99962, Control_c, 0, 11, 98
2, 99962, Note_on_c, 0, 91, 94
2, 99962, Note_on_c, 0, 88, 94
2, 99979, Control_c, 0, 11, 97
2, 99997, Control_c, 0, 11, 95
2, 100015, Control_c, 0, 11, 93
2, 100033, Control_c, 0, 11, 91
2, 100051, Control_c, 0, 11, 89
2, 100069, Control_c, 0, 11, 87
2, 100082, Note_on_c, 0, 88, 0
2, 100082, Note_on_c, 0, 91, 0
2, 100082, Note_on_c, 0, 89, 94
2, 100202, Note_on_c, 0, 89, 0
2, 100202, Control_c, 0, 11, 98
2, 100202, Note_on_c, 0, 88, 94
2, 100202, Note_on_c, 0, 91, 94
2, 100219, Control_c, 0, 11, 97
2, 100237, Control_c, 0, 11, 95
2, 100255, Control_c, 0, 11, 93
2, 100273, Control_c, 0, 11, 91
2, 100291, Control_c, 0, 11, 89
2, 100309, Control_c, 0, 11, 87
2, 100322, Note_on_c, 0, 91, 0
2, 100322, Note_on_c, 0, 88, 0
2, 100322, Note_on_c, 0, 89, 94
2, 100442, Note_on_c, 0, 89, 0
2, 100442, Control_c, 0, 11, 98
2, 100442, Note_on_c, 0, 88, 94
2, 100442, Note_on_c, 0, 91, 94
2, 100459, Control_c, 0, 11, 97
2, 100477, Control_c, 0, 11, 95
2, 100495, Control_c, 0, 11, 93
2, 100513, Control_c, 0, 11, 91
2, 100531, Control_c, 0, 11, 89
2, 100549, Control_c, 0, 11, 87
2, 100562, Note_on_c, 0, 91, 0
2, 100562, Note_on_c, 0, 88, 0
2, 100562, Note_on_c, 0, 89, 94
2, 100682, Note_on_c, 0, 89, 0
2, 100682, Control_c, 0, 11, 98
2, 100682, Note_on_c, 0, 84, 94
2, 100682, Note_on_c, 0, 93, 94
2, 100699, Control_c, 0, 11, 97
2, 100717, Control_c, 0, 11, 95
2, 100735, Control_c, 0, 11, 93
2, 100753, Control_c, 0, 11, 91
2, 100771, Control_c, 0, 11, 89
2, 100789, Control_c, 0, 11, 87
2, 100802, Note_on_c, 0, 93, 0
2, 100802, Note_on_c, 0, 84, 0
2, 100802, Note_on_c, 0, 83, 94
2, 100802, Note_on_c, 0, 86, 94
2, 100922, Note_on_c, 0, 86, 0
2, 100922, Note_on_c, 0, 83, 0
2, 100922, Control_c, 0, 11, 98
2, 100922, Note_on_c, 0, 91, 94
2, 100922, Note_on_c, 0, 84, 94
2, 100939, Control_c, 0, 11, 97
2, 100957, Control_c, 0, 11, 95
2, 100975, Control_c, 0, 11, 93
2, 100993, Control_c, 0, 11, 91
2, 101011, Control_c, 0, 11, 89
2, 101029, Control_c, 0, 11, 87
2, 101042, Note_on_c, 0, 84, 0
2, 101042, Note_on_c, 0, 91, 0
2, 101042, Note_on_c, 0, 81, 94
2, 101042, Note_on_c, 0, 84, 94
2, 101162, Note_on_c, 0, 84, 0
2, 101162, Note_on_c, 0, 81, 0
2, 101162, Control_c, 0, 11, 98
2, 101162, Note_on_c, 0, 84, 94
2, 101162, Note_on_c, 0, 89, 94
2, 101179, Control_c, 0, 11, 97
2, 101197, Control_c, 0, 11, 95
2, 101215, Control_c, 0, 11, 93
2, 101233, Control_c, 0, 11, 91
2, 101251, Control_c, 0, 11, 89
2, 101269, Control_c, 0, 11, 87
2, 101282, Note_on_c, 0, 89, 0
2, 101282, Note_on_c, 0, 84, 0
2, 101282, Note_on_c, 0, 84, 94
2, 101402, Note_on_c, 0, 84, 0
2, 101402, Control_c, 0, 11, 98
2, 101402, Note_on_c, 0, 88, 94
2, 101419, Control_c, 0, 11, 97
2, 101437, Control_c, 0, 11, 95
2, 101455, Control_c, 0, 11, 93
2, 101473, Control_c, 0, 11, 91
2, 101491, Control_c, 0, 11, 89
2, 101509, Control_c, 0, 11, 87
2, 101522, Note_on_c, 0, 88, 0
2, 101522, Note_on_c, 0, 83, 94
2, 101642, Note_on_c, 0, 83, 0
2, 101642, Control_c, 0, 11, 98
2, 101642, Note_on_c, 0, 86, 94
2, 101659, Control_c, 0, 11, 97
2, 101677, Control_c, 0, 11, 95
2, 101695, Control_c, 0, 11, 93
2, 101713, Control_c, 0, 11, 91
2, 101731, Control_c, 0, 11, 89
2, 101749, Control_c, 0, 11, 87
2, 101762, Note_on_c, 0, 86, 0
2, 101762, Note_on_c, 0, 84, 94
2, 101882, Note_on_c, 0, 84, 0
2, 102122, Control_c, 0, 11, 77
2, 102122, Note_on_c, 0, 86, 94
2, 102122, Note_on_c, 0, 89, 94
2, 102242, Note_on_c, 0, 89, 0
2, 102242, Note_on_c, 0, 86, 0
2, 102242, Note_on_c, 0, 84, 94
2, 102242, Note_on_c, 0, 88, 94
2, 102362, Note_on_c, 0, 88, 0
2, 102362, Note_on_c, 0, 84, 0
2, 102602, Control_c, 0, 11, 77
2, 102602, Note_on_c, 0, 89, 94
2, 102602, Note_on_c, 0, 86, 94
2, 102722, Note_on_c, 0, 86, 0
2, 102722, Note_on_c, 0, 89, 0
2, 102722, Note_on_c, 0, 88, 94
2, 102722, Note_on_c, 0, 84, 94
2, 102842, Note_on_c, 0, 84, 0
2, 102842, Note_on_c, 0, 88, 0
2, 103082, Control_c, 0, 11, 77
2, 103082, Note_on_c, 0, 89, 94
2, 103082, Note_on_c, 0, 86, 94
2, 103202, Note_on_c, 0, 86, 0
2, 103202, Note_on_c, 0, 89, 0
2, 103202, Note_on_c, 0, 88, 94
2, 103202, Note_on_c, 0, 84, 94
2, 103322, Note_on_c, 0, 84, 0
2, 103322, Note_on_c, 0, 88, 0
2, 103562, Control_c, 0, 11, 77
2, 103562, Note_on_c, 0, 89, 94
2, 103562, Note_on_c, 0, 86, 94
2, 103682, Note_on_c, 0, 86, 0
2, 103682, Note_on_c, 0, 89, 0
2, 103682, Note_on_c, 0, 88, 94
2, 103682, Note_on_c, 0, 84, 94
2, 103802, Note_on_c, 0, 84, 0
2, 103802, Note_on_c, 0, 88, 0
2, 103802, Control_c, 0, 11, 77
2, 103802, Note_on_c, 0, 88, 94
2, 103802, Note_on_c, 0, 84, 94
2, 103852, Note_on_c, 0, 84, 0
2, 103852, Note_on_c, 0, 88, 0
2, 103862, Note_on_c, 0, 84, 94
2, 103862, Note_on_c, 0, 88, 94
2, 103912, Note_on_c, 0, 88, 0
2, 103912, Note_on_c, 0, 84, 0
2, 103922, Note_on_c, 0, 84, 94
2, 103922, Note_on_c, 0, 88, 94
2, 104042, Note_on_c, 0, 88, 0
2, 104042, Note_on_c, 0, 84, 0
2, 104162, Note_on_c, 0, 84, 94
2, 104162, Note_on_c, 0, 88, 94
2, 104282, Note_on_c, 0, 88, 0
2, 104282, Note_on_c, 0, 84, 0
2, 104282, Note_on_c, 0, 84, 94
2, 104282, Note_on_c, 0, 88, 94
2, 104332, Note_on_c, 0, 88, 0
2, 104332, Note_on_c, 0, 84, 0
2, 104342, Note_on_c, 0, 88, 94
2, 104342, Note_on_c, 0, 84, 94
2, 104392, Note_on_c, 0, 84, 0
2, 104392, Note_on_c, 0, 88, 0
2, 104402, Note_on_c, 0, 88, 94
2, 104402, Note_on_c, 0, 84, 94
2, 104522, Note_on_c, 0, 84, 0
2, 104522, Note_on_c, 0, 88, 0
2, 104642, Note_on_c, 0, 84, 94
2, 104762, Note_on_c, 0, 84, 0
2, 104762, Note_on_c, 0, 84, 94
2, 104812, Note_on_c, 0, 84, 0
2, 104822, Note_on_c, 0, 84, 94
2, 104872, Note_on_c, 0, 84, 0
2, 104882, Note_on_c, 0, 84, 94
2, 105002, Note_on_c, 0, 84, 0
2, 105002, Note_on_c, 0, 84, 94
2, 105052, Note_on_c, 0, 84, 0
2, 105062, Note_on_c, 0, 84, 94
2, 105112, Note_on_c, 0, 84, 0
2, 105122, Note_on_c, 0, 84, 94
2, 105242, Note_on_c, 0, 84, 0
2, 105242, Note_on_c, 0, 84, 94
2, 105292, Note_on_c, 0, 84, 0
2, 105302, Note_on_c, 0, 84, 94
2, 105352, Note_on_c, 0, 84, 0
2, 105362, Note_on_c, 0, 84, 94
2, 105482, Note_on_c, 0, 84, 0
2, 105482, Note_on_c, 0, 84, 94
2, 105532, Note_on_c, 0, 84, 0
2, 105542, Note_on_c, 0, 84, 94
2, 105592, Note_on_c, 0, 84, 0
2, 105602, Note_on_c, 0, 88, 94
2, 105722, Note_on_c, 0, 88, 0
2, 105722, Note_on_c, 0, 88, 94
2, 105772, Note_on_c, 0, 88, 0
2, 105782, Note_on_c, 0, 88, 94
2, 105832, Note_on_c, 0, 88, 0
2, 105842, Note_on_c, 0, 88, 94
2, 105962, Note_on_c, 0, 88, 0
2, 105962, Note_on_c, 0, 88, 94
2, 106012, Note_on_c, 0, 88, 0
2, 106022, Note_on_c, 0, 88, 94
2, 106072, Note_on_c, 0, 88, 0
2, 106082, Note_on_c, 0, 88, 94
2, 106202, Note_on_c, 0, 88, 0
2, 106202, Note_on_c, 0, 88, 94
2, 106252, Note_on_c, 0, 88, 0
2, 106262, Note_on_c, 0, 88, 94
2, 106312, Note_on_c, 0, 88, 0
2, 106322, Note_on_c, 0, 88, 94
2, 106442, Note_on_c, 0, 88, 0
2, 106442, Note_on_c, 0, 88, 94
2, 106492, Note_on_c, 0, 88, 0
2, 106502, Note_on_c, 0, 88, 94
2, 106552, Note_on_c, 0, 88, 0
2, 106562, Note_on_c, 0, 87, 94
2, 106682, Note_on_c, 0, 87, 0
2, 106922, Note_on_c, 0, 85, 94
2, 106922, Note_on_c, 0, 88, 94
2, 107042, Note_on_c, 0, 88, 0
2, 107042, Note_on_c, 0, 85, 0
2, 107042, Note_on_c, 0, 83, 94
2, 107042, Note_on_c, 0, 87, 94
2, 107162, Note_on_c, 0, 87, 0
2, 107162, Note_on_c, 0, 83, 0
2, 107402, Note_on_c, 0, 85, 94
2, 107402, Note_on_c, 0, 88, 94
2, 107522, Note_on_c, 0, 88, 0
2, 107522, Note_on_c, 0, 85, 0
2, 107522, Note_on_c, 0, 87, 94
2, 107522, Note_on_c, 0, 83, 94
2, 107642, Note_on_c, 0, 83, 0
2, 107642, Note_on_c, 0, 87, 0
2, 107882, Note_on_c, 0, 85, 94
2, 107882, Note_on_c, 0, 88, 94
2, 108002, Note_on_c, 0, 88, 0
2, 108002, Note_on_c, 0, 85, 0
2, 108002, Note_on_c, 0, 83, 94
2, 108002, Note_on_c, 0, 87, 94
2, 108122, Note_on_c, 0, 87, 0
2, 108122, Note_on_c, 0, 83, 0
2, 108362, Control_c, 0, 11, 77
2, 108362, Note_on_c, 0, 85, 94
2, 108362, Note_on_c, 0, 88, 94
2, 108482, Note_on_c, 0, 88, 0
2, 108482, Note_on_c, 0, 85, 0
2, 108482, Note_on_c, 0, 83, 94
2, 108482, Note_on_c, 0, 87, 94
2, 108602, Note_on_c, 0, 87, 0
2, 108602, Note_on_c, 0, 83, 0
2, 108602, Note_on_c, 0, 83, 94
2, 108652, Note_on_c, 0, 83, 0
2, 108662, Note_on_c, 0, 83, 94
2, 108712, Note_on_c, 0, 83, 0
2, 108722, Note_on_c, 0, 83, 94
2, 108832, Note_on_c, 0, 83, 0
2, 108842, Note_on_c, 0, 83, 94
2, 108892, Note_on_c, 0, 83, 0
2, 108902, Note_on_c, 0, 83, 94
2, 108952, Note_on_c, 0, 83, 0
2, 108962, Note_on_c, 0, 83, 94
2, 109072, Note_on_c, 0, 83, 0
2, 109082, Note_on_c, 0, 83, 94
2, 109132, Note_on_c, 0, 83, 0
2, 109142, Note_on_c, 0, 83, 94
2, 109192, Note_on_c, 0, 83, 0
2, 109202, Note_on_c, 0, 83, 94
2, 109312, Note_on_c, 0, 83, 0
2, 109322, Note_on_c, 0, 83, 94
2, 109372, Note_on_c, 0, 83, 0
2, 109382, Note_on_c, 0, 83, 94
2, 109432, Note_on_c, 0, 83, 0
2, 109442, Note_on_c, 0, 83, 94
2, 109552, Note_on_c, 0, 83, 0
2, 109562, Note_on_c, 0, 83, 94
2, 109612, Note_on_c, 0, 83, 0
2, 109622, Note_on_c, 0, 83, 94
2, 109672, Note_on_c, 0, 83, 0
2, 109682, Note_on_c, 0, 83, 94
2, 109792, Note_on_c, 0, 83, 0
2, 109802, Note_on_c, 0, 83, 94
2, 109852, Note_on_c, 0, 83, 0
2, 109862, Note_on_c, 0, 83, 94
2, 109912, Note_on_c, 0, 83, 0
2, 109922, Note_on_c, 0, 83, 94
2, 110032, Note_on_c, 0, 83, 0
2, 110042, Note_on_c, 0, 83, 94
2, 110092, Note_on_c, 0, 83, 0
2, 110102, Note_on_c, 0, 83, 94
2, 110152, Note_on_c, 0, 83, 0
2, 110162, Note_on_c, 0, 83, 94
2, 110272, Note_on_c, 0, 83, 0
2, 110282, Note_on_c, 0, 83, 94
2, 110332, Note_on_c, 0, 83, 0
2, 110342, Note_on_c, 0, 83, 94
2, 110392, Note_on_c, 0, 83, 0
2, 110402, Note_on_c, 0, 88, 94
2, 110572, Note_on_c, 0, 88, 0
2, 110582, Note_on_c, 0, 83, 94
2, 110632, Note_on_c, 0, 83, 0
2, 110642, Note_on_c, 0, 83, 94
2, 110692, Note_on_c, 0, 83, 0
2, 110882, Note_on_c, 0, 92, 94
2, 111052, Note_on_c, 0, 92, 0
2, 111062, Note_on_c, 0, 88, 94
2, 111112, Note_on_c, 0, 88, 0
2, 111122, Note_on_c, 0, 88, 94
2, 111172, Note_on_c, 0, 88, 0
2, 111362, Note_on_c, 0, 83, 94
2, 111532, Note_on_c, 0, 83, 0
2, 111542, Note_on_c, 0, 80, 94
2, 111592, Note_on_c, 0, 80, 0
2, 111602, Note_on_c, 0, 80, 94
2, 111652, Note_on_c, 0, 80, 0
2, 111722, Note_on_c, 0, 92, 94
2, 111722, Note_on_c, 0, 88, 94
2, 111782, Note_on_c, 0, 88, 0
2, 111782, Note_on_c, 0, 92, 0
2, 111842, Note_on_c, 0, 87, 94
2, 111842, Note_on_c, 0, 90, 94
2, 111902, Note_on_c, 0, 90, 0
2, 111902, Note_on_c, 0, 87, 0
2, 113282, Control_c, 0, 11, 27
2, 113282, Note_on_c, 0, 76, 93
2, 113294, Control_c, 0, 11, 30
2, 113306, Control_c, 0, 11, 33
2, 113318, Control_c, 0, 11, 36
2, 113330, Control_c, 0, 11, 39
2, 113342, Control_c, 0, 11, 42
2, 113354, Control_c, 0, 11, 45
2, 113362, Note_on_c, 0, 76, 0
2, 113362, Note_on_c, 0, 80, 93
2, 113442, Note_on_c, 0, 80, 0
2, 113442, Note_on_c, 0, 83, 93
2, 113522, Note_on_c, 0, 83, 0
2, 113522, Note_on_c, 0, 88, 93
2, 113602, Note_on_c, 0, 88, 0
2, 113602, Note_on_c, 0, 87, 93
2, 113682, Note_on_c, 0, 87, 0
2, 113682, Note_on_c, 0, 85, 93
2, 113762, Note_on_c, 0, 85, 0
2, 113762, Note_on_c, 0, 83, 93
2, 113842, Note_on_c, 0, 83, 0
2, 113842, Note_on_c, 0, 81, 93
2, 113922, Note_on_c, 0, 81, 0
2, 113922, Note_on_c, 0, 80, 93
2, 114002, Note_on_c, 0, 80, 0
2, 114002, Note_on_c, 0, 78, 93
2, 114082, Note_on_c, 0, 78, 0
2, 114082, Note_on_c, 0, 80, 93
2, 114162, Note_on_c, 0, 80, 0
2, 114162, Note_on_c, 0, 76, 76
2, 114242, Note_on_c, 0, 76, 0
2, 117602, Note_on_c, 0, 92, 76
2, 117602, Note_on_c, 0, 88, 76
2, 117842, Note_on_c, 0, 88, 0
2, 117842, Note_on_c, 0, 92, 0
2, 117842, Note_on_c, 0, 88, 76
2, 117842, Note_on_c, 0, 83, 76
2, 118082, Note_on_c, 0, 83, 0
2, 118082, Note_on_c, 0, 88, 0
2, 118082, Note_on_c, 0, 83, 76
2, 118082, Note_on_c, 0, 88, 76
2, 118562, Note_on_c, 0, 88, 0
2, 118562, Note_on_c, 0, 87, 76
2, 118992, Control_c, 0, 11, 47
2, 118995, Control_c, 0, 11, 44
2, 118998, Control_c, 0, 11, 41
2, 119001, Control_c, 0, 11, 38
2, 119004, Control_c, 0, 11, 35
2, 119007, Control_c, 0, 11, 32
2, 119010, Control_c, 0, 11, 29
2, 119012, Note_on_c, 0, 87, 0
2, 119012, Note_on_c, 0, 83, 0
2, 119042, Control_c, 0, 11, 77
2, 119042, Note_on_c, 0, 72, 94
2, 119192, Note_on_c, 0, 72, 0
2, 119222, Note_on_c, 0, 71, 94
2, 119267, Note_on_c, 0, 71, 0
2, 119282, Note_on_c, 0, 71, 94
2, 119402, Note_on_c, 0, 71, 0
2, 119522, Note_on_c, 0, 72, 94
2, 119672, Note_on_c, 0, 72, 0
2, 119702, Note_on_c, 0, 71, 94
2, 119747, Note_on_c, 0, 71, 0
2, 119762, Note_on_c, 0, 71, 94
2, 119882, Note_on_c, 0, 71, 0
2, 120002, Note_on_c, 0, 72, 94
2, 120062, Note_on_c, 0, 72, 0
2, 120122, Note_on_c, 0, 71, 94
2, 120182, Note_on_c, 0, 71, 0
2, 120242, Note_on_c, 0, 72, 94
2, 120302, Note_on_c, 0, 72, 0
2, 120362, Note_on_c, 0, 71, 94
2, 120422, Note_on_c, 0, 71, 0
2, 120482, Note_on_c, 0, 72, 94
2, 120542, Note_on_c, 0, 72, 0
2, 120602, Note_on_c, 0, 71, 94
2, 120662, Note_on_c, 0, 71, 0
2, 120722, Note_on_c, 0, 72, 94
2, 120782, Note_on_c, 0, 72, 0
2, 120842, Note_on_c, 0, 71, 94
2, 120902, Note_on_c, 0, 71, 0
2, 120962, Note_on_c, 0, 76, 94
2, 121022, Note_on_c, 0, 76, 0
2, 121082, Note_on_c, 0, 75, 94
2, 121142, Note_on_c, 0, 75, 0
2, 121202, Note_on_c, 0, 76, 94
2, 121262, Note_on_c, 0, 76, 0
2, 121322, Note_on_c, 0, 75, 94
2, 121382, Note_on_c, 0, 75, 0
2, 121442, Note_on_c, 0, 76, 94
2, 121502, Note_on_c, 0, 76, 0
2, 121562, Note_on_c, 0, 75, 94
2, 121622, Note_on_c, 0, 75, 0
2, 121682, Note_on_c, 0, 76, 94
2, 121742, Note_on_c, 0, 76, 0
2, 121802, Note_on_c, 0, 75, 94
2, 121862, Note_on_c, 0, 75, 0
2, 121922, Note_on_c, 0, 84, 94
2, 121982, Note_on_c, 0, 84, 0
2, 122042, Note_on_c, 0, 83, 94
2, 122102, Note_on_c, 0, 83, 0
2, 122162, Note_on_c, 0, 88, 94
2, 122222, Note_on_c, 0, 88, 0
2, 122282, Note_on_c, 0, 87, 94
2, 122342, Note_on_c, 0, 87, 0
2, 122402, Note_on_c, 0, 84, 94
2, 122462, Note_on_c, 0, 84, 0
2, 122522, Note_on_c, 0, 83, 94
2, 122582, Note_on_c, 0, 83, 0
2, 122642, Note_on_c, 0, 85, 94
2, 122702, Note_on_c, 0, 85, 0
2, 122762, Note_on_c, 0, 83, 94
2, 122822, Note_on_c, 0, 83, 0
2, 122882, Note_on_c, 0, 85, 94
2, 122942, Note_on_c, 0, 85, 0
2, 123002, Note_on_c, 0, 83, 94
2, 123062, Note_on_c, 0, 83, 0
2, 123122, Note_on_c, 0, 85, 94
2, 123182, Note_on_c, 0, 85, 0
2, 123242, Note_on_c, 0, 83, 94
2, 123302, Note_on_c, 0, 83, 0
2, 123362, Note_on_c, 0, 85, 94
2, 123422, Note_on_c, 0, 85, 0
2, 123482, Note_on_c, 0, 83, 94
2, 123542, Note_on_c, 0, 83, 0
2, 123602, Note_on_c, 0, 85, 94
2, 123662, Note_on_c, 0, 85, 0
2, 123722, Note_on_c, 0, 83, 94
2, 123782, Note_on_c, 0, 83, 0
2, 124082, Note_on_c, 0, 83, 94
2, 124162, Note_on_c, 0, 83, 0
2, 124162, Note_on_c, 0, 88, 94
2, 124237, Note_on_c, 0, 88, 0
2, 124242, Note_on_c, 0, 88, 94
2, 124282, Note_on_c, 0, 88, 0
2, 124562, Note_on_c, 0, 83, 94
2, 124642, Note_on_c, 0, 83, 0
2, 124642, Note_on_c, 0, 88, 94
2, 124717, Note_on_c, 0, 88, 0
2, 124722, Note_on_c, 0, 88, 94
2, 124762, Note_on_c, 0, 88, 0
2, 125042, Note_on_c, 0, 83, 94
2, 125122, Note_on_c, 0, 83, 0
2, 125122, Note_on_c, 0, 87, 94
2, 125197, Note_on_c, 0, 87, 0
2, 125202, Note_on_c, 0, 87, 94
2, 125242, Note_on_c, 0, 87, 0
2, 125522, Note_on_c, 0, 83, 94
2, 125602, Note_on_c, 0, 83, 0
2, 125602, Note_on_c, 0, 87, 94
2, 125677, Note_on_c, 0, 87, 0
2, 125682, Note_on_c, 0, 87, 94
2, 125722, Note_on_c, 0, 87, 0
2, 125762, Control_c, 0, 11, 52
2, 126002, Control_c, 0, 11, 52
2, 126002, Note_on_c, 0, 83, 94
2, 126082, Note_on_c, 0, 83, 0
2, 126082, Note_on_c, 0, 88, 94
2, 126157, Note_on_c, 0, 88, 0
2, 126162, Note_on_c, 0, 88, 94
2, 126202, Note_on_c, 0, 88, 0
2, 126482, Note_on_c, 0, 83, 94
2, 126562, Note_on_c, 0, 83, 0
2, 126562, Note_on_c, 0, 88, 94
2, 126637, Note_on_c, 0, 88, 0
2, 126642, Note_on_c, 0, 88, 94
2, 126682, Note_on_c, 0, 88, 0
2, 126962, Note_on_c, 0, 83, 94
2, 127042, Note_on_c, 0, 83, 0
2, 127042, Note_on_c, 0, 87, 94
2, 127117, Note_on_c, 0, 87, 0
2, 127122, Note_on_c, 0, 87, 94
2, 127162, Note_on_c, 0, 87, 0
2, 127442, Note_on_c, 0, 83, 94
2, 127522, Note_on_c, 0, 83, 0
2, 127522, Note_on_c, 0, 87, 94
2, 127597, Note_on_c, 0, 87, 0
2, 127602, Note_on_c, 0, 87, 94
2, 127642, Note_on_c, 0, 87, 0
2, 127682, Control_c, 0, 11, 52
2, 127791, Control_c, 0, 11, 53
2, 127901, Control_c, 0, 11, 54
2, 127922, Note_on_c, 0, 83, 94
2, 128002, Note_on_c, 0, 83, 0
2, 128002, Note_on_c, 0, 86, 94
2, 128011, Control_c, 0, 11, 55
2, 128077, Note_on_c, 0, 86, 0
2, 128082, Note_on_c, 0, 86, 94
2, 128120, Control_c, 0, 11, 56
2, 128122, Note_on_c, 0, 86, 0
2, 128230, Control_c, 0, 11, 57
2, 128340, Control_c, 0, 11, 58
2, 128402, Note_on_c, 0, 83, 94
2, 128450, Control_c, 0, 11, 59
2, 128482, Note_on_c, 0, 83, 0
2, 128482, Note_on_c, 0, 86, 94
2, 128557, Note_on_c, 0, 86, 0
2, 128559, Control_c, 0, 11, 60
2, 128562, Note_on_c, 0, 86, 94
2, 128602, Note_on_c, 0, 86, 0
2, 128669, Control_c, 0, 11, 61
2, 128779, Control_c, 0, 11, 62
2, 128882, Note_on_c, 0, 83, 94
2, 128888, Control_c, 0, 11, 62
2, 128962, Note_on_c, 0, 83, 0
2, 128962, Note_on_c, 0, 86, 94
2, 128998, Control_c, 0, 11, 63
2, 129037, Note_on_c, 0, 86, 0
2, 129042, Note_on_c, 0, 86, 94
2, 129082, Note_on_c, 0, 86, 0
2, 129108, Control_c, 0, 11, 63
2, 129218, Control_c, 0, 11, 64
2, 129327, Control_c, 0, 11, 65
2, 129362, Note_on_c, 0, 83, 94
2, 129437, Control_c, 0, 11, 65
2, 129442, Note_on_c, 0, 83, 0
2, 129442, Note_on_c, 0, 86, 94
2, 129517, Note_on_c, 0, 86, 0
2, 129547, Control_c, 0, 11, 66
2, 129656, Control_c, 0, 11, 66
2, 129766, Control_c, 0, 11, 67
2, 129842, Note_on_c, 0, 90, 94
2, 129876, Control_c, 0, 11, 68
2, 129922, Note_on_c, 0, 90, 0
2, 129922, Note_on_c, 0, 93, 94
2, 129986, Control_c, 0, 11, 68
2, 129997, Note_on_c, 0, 93, 0
2, 130002, Note_on_c, 0, 93, 94
2, 130042, Note_on_c, 0, 93, 0
2, 130095, Control_c, 0, 11, 69
2, 130205, Control_c, 0, 11, 70
2, 130315, Control_c, 0, 11, 70
2, 130322, Note_on_c, 0, 90, 94
2, 130402, Note_on_c, 0, 90, 0
2, 130402, Note_on_c, 0, 93, 94
2, 130424, Control_c, 0, 11, 71
2, 130477, Note_on_c, 0, 93, 0
2, 130482, Note_on_c, 0, 93, 94
2, 130522, Note_on_c, 0, 93, 0
2, 130534, Control_c, 0, 11, 71
2, 130644, Control_c, 0, 11, 72
2, 130754, Control_c, 0, 11, 73
2, 130802, Note_on_c, 0, 90, 94
2, 130863, Control_c, 0, 11, 73
2, 130882, Note_on_c, 0, 90, 0
2, 130882, Note_on_c, 0, 93, 94
2, 130957, Note_on_c, 0, 93, 0
2, 130962, Note_on_c, 0, 93, 94
2, 130973, Control_c, 0, 11, 74
2, 131002, Note_on_c, 0, 93, 0
2, 131083, Control_c, 0, 11, 74
2, 131192, Control_c, 0, 11, 75
2, 131282, Note_on_c, 0, 90, 94
2, 131302, Control_c, 0, 11, 76
2, 131362, Note_on_c, 0, 90, 0
2, 131362, Note_on_c, 0, 93, 94
2, 131412, Control_c, 0, 11, 76
2, 131437, Note_on_c, 0, 93, 0
2, 131442, Note_on_c, 0, 93, 94
2, 131482, Note_on_c, 0, 93, 0
2, 131522, Control_c, 0, 11, 77
2, 131522, Note_on_c, 0, 90, 94
2, 131522, Note_on_c, 0, 93, 94
2, 132482, Control_c, 0, 11, 77
2, 132546, Control_c, 0, 11, 78
2, 132610, Control_c, 0, 11, 78
2, 132674, Control_c, 0, 11, 79
2, 132738, Control_c, 0, 11, 79
2, 132802, Control_c, 0, 11, 80
2, 132866, Control_c, 0, 11, 81
2, 132930, Control_c, 0, 11, 81
2, 132994, Control_c, 0, 11, 82
2, 133058, Control_c, 0, 11, 82
2, 133122, Control_c, 0, 11, 83
2, 133186, Control_c, 0, 11, 84
2, 133250, Control_c, 0, 11, 84
2, 133314, Control_c, 0, 11, 85
2, 133378, Control_c, 0, 11, 86
2, 133442, Note_on_c, 0, 93, 0
2, 133442, Note_on_c, 0, 90, 0
2, 133442, Control_c, 0, 11, 86
2, 133442, Note_on_c, 0, 90, 94
2, 133442, Note_on_c, 0, 93, 94
2, 135362, Note_on_c, 0, 93, 0
2, 135362, Note_on_c, 0, 90, 0
2, 135362, Note_on_c, 0, 92, 114
2, 135362, Note_on_c, 0, 88, 114
2, 135482, Note_on_c, 0, 88, 0
2, 135482, Note_on_c, 0, 92, 0
2, 135482, Note_on_c, 0, 90, 94
2, 135482, Note_on_c, 0, 88, 94
2, 135602, Note_on_c, 0, 88, 0
2, 135602, Note_on_c, 0, 90, 0
2, 135602, Note_on_c, 0, 88, 114
2, 135602, Note_on_c, 0, 93, 114
2, 135722, Note_on_c, 0, 93, 0
2, 135722, Note_on_c, 0, 88, 0
2, 135722, Note_on_c, 0, 88, 94
2, 135722, Note_on_c, 0, 92, 94
2, 135842, Note_on_c, 0, 92, 0
2, 135842, Note_on_c, 0, 88, 0
2, 135842, Note_on_c, 0, 90, 114
2, 135842, Note_on_c, 0, 88, 114
2, 135962, Note_on_c, 0, 88, 0
2, 135962, Note_on_c, 0, 90, 0
2, 135962, Note_on_c, 0, 88, 94
2, 136082, Note_on_c, 0, 88, 0
2, 136082, Note_on_c, 0, 88, 114
2, 136082, Note_on_c, 0, 87, 114
2, 136202, Note_on_c, 0, 87, 0
2, 136202, Note_on_c, 0, 88, 0
2, 136202, Note_on_c, 0, 88, 94
2, 136322, Note_on_c, 0, 88, 0
2, 136322, Note_on_c, 0, 88, 114
2, 136442, Note_on_c, 0, 88, 0
2, 136442, Note_on_c, 0, 88, 94
2, 136562, Note_on_c, 0, 88, 0
2, 136562, Note_on_c, 0, 88, 114
2, 136682, Note_on_c, 0, 88, 0
2, 136682, Note_on_c, 0, 88, 94
2, 136802, Note_on_c, 0, 88, 0
2, 136802, Note_on_c, 0, 88, 114
2, 136922, Note_on_c, 0, 88, 0
2, 136922, Note_on_c, 0, 88, 94
2, 137042, Note_on_c, 0, 88, 0
2, 137042, Note_on_c, 0, 87, 114
2, 137162, Note_on_c, 0, 87, 0
2, 137162, Note_on_c, 0, 88, 94
2, 137282, Note_on_c, 0, 88, 0
2, 137282, Note_on_c, 0, 90, 114
2, 137402, Note_on_c, 0, 90, 0
2, 137402, Note_on_c, 0, 92, 94
2, 137522, Note_on_c, 0, 92, 0
2, 137522, Note_on_c, 0, 93, 114
2, 137642, Note_on_c, 0, 93, 0
2, 137642, Note_on_c, 0, 82, 94
2, 137762, Note_on_c, 0, 82, 0
2, 137762, Note_on_c, 0, 83, 114
2, 137882, Note_on_c, 0, 83, 0
2, 137882, Note_on_c, 0, 83, 94
2, 138002, Note_on_c, 0, 83, 0
2, 138002, Note_on_c, 0, 83, 114
2, 138122, Note_on_c, 0, 83, 0
2, 138122, Note_on_c, 0, 83, 94
2, 138242, Note_on_c, 0, 83, 0
2, 138242, Note_on_c, 0, 92, 114
2, 138362, Note_on_c, 0, 92, 0
2, 138362, Note_on_c, 0, 90, 94
2, 138482, Note_on_c, 0, 90, 0
2, 138482, Note_on_c, 0, 93, 114
2, 138602, Note_on_c, 0, 93, 0
2, 138602, Note_on_c, 0, 92, 94
2, 138722, Note_on_c, 0, 92, 0
2, 138722, Note_on_c, 0, 90, 114
2, 138842, Note_on_c, 0, 90, 0
2, 138842, Note_on_c, 0, 88, 94
2, 138962, Note_on_c, 0, 88, 0
2, 138962, Note_on_c, 0, 88, 114
2, 139082, Note_on_c, 0, 88, 0
2, 139082, Note_on_c, 0, 88, 94
2, 139202, Note_on_c, 0, 88, 0
2, 139202, Note_on_c, 0, 88, 114
2, 139322, Note_on_c, 0, 88, 0
2, 139322, Note_on_c, 0, 88, 94
2, 139442, Note_on_c, 0, 88, 0
2, 139442, Note_on_c, 0, 88, 114
2, 139562, Note_on_c, 0, 88, 0
2, 139562, Note_on_c, 0, 88, 94
2, 139682, Note_on_c, 0, 88, 0
2, 139682, Note_on_c, 0, 88, 114
2, 139802, Note_on_c, 0, 88, 0
2, 139802, Note_on_c, 0, 88, 94
2, 139922, Note_on_c, 0, 88, 0
2, 139922, Note_on_c, 0, 87, 114
2, 140042, Note_on_c, 0, 87, 0
2, 140042, Note_on_c, 0, 88, 94
2, 140162, Note_on_c, 0, 88, 0
2, 140162, Note_on_c, 0, 90, 114
2, 140282, Note_on_c, 0, 90, 0
2, 140282, Note_on_c, 0, 92, 94
2, 140402, Note_on_c, 0, 92, 0
2, 140402, Note_on_c, 0, 93, 114
2, 140522, Note_on_c, 0, 93, 0
2, 140522, Note_on_c, 0, 82, 94
2, 140642, Note_on_c, 0, 82, 0
2, 140642, Note_on_c, 0, 83, 114
2, 140762, Note_on_c, 0, 83, 0
2, 140762, Note_on_c, 0, 83, 94
2, 140882, Note_on_c, 0, 83, 0
2, 140882, Note_on_c, 0, 83, 114
2, 141002, Note_on_c, 0, 83, 0
2, 141002, Note_on_c, 0, 83, 94
2, 141122, Note_on_c, 0, 83, 0
2, 141122, Note_on_c, 0, 88, 94
2, 141242, Note_on_c, 0, 88, 0
2, 141602, Control_c, 0, 11, 98
2, 141602, Note_on_c, 0, 88, 94
2, 141620, Control_c, 0, 11, 97
2, 141638, Control_c, 0, 11, 96
2, 141656, Control_c, 0, 11, 95
2, 141674, Control_c, 0, 11, 94
2, 141692, Control_c, 0, 11, 92
2, 141710, Control_c, 0, 11, 91
2, 141728, Control_c, 0, 11, 90
2, 141746, Control_c, 0, 11, 89
2, 141764, Control_c, 0, 11, 87
2, 141782, Note_on_c, 0, 88, 0
2, 141782, Control_c, 0, 11, 86
2, 141782, Note_on_c, 0, 83, 94
2, 141842, Note_on_c, 0, 83, 0
2, 141842, Note_on_c, 0, 83, 94
2, 141962, Note_on_c, 0, 83, 0
2, 142082, Note_on_c, 0, 80, 94
2, 142202, Note_on_c, 0, 80, 0
2, 142562, Control_c, 0, 11, 98
2, 142562, Note_on_c, 0, 92, 94
2, 142580, Control_c, 0, 11, 97
2, 142598, Control_c, 0, 11, 96
2, 142616, Control_c, 0, 11, 95
2, 142634, Control_c, 0, 11, 94
2, 142652, Control_c, 0, 11, 92
2, 142670, Control_c, 0, 11, 91
2, 142688, Control_c, 0, 11, 90
2, 142706, Control_c, 0, 11, 89
2, 142724, Control_c, 0, 11, 87
2, 142742, Note_on_c, 0, 92, 0
2, 142742, Control_c, 0, 11, 86
2, 142742, Note_on_c, 0, 88, 94
2, 142802, Note_on_c, 0, 88, 0
2, 142802, Note_on_c, 0, 88, 94
2, 142922, Note_on_c, 0, 88, 0
2, 143042, Note_on_c, 0, 83, 94
2, 143162, Note_on_c, 0, 83, 0
2, 143522, Control_c, 0, 11, 98
2, 143522, Note_on_c, 0, 95, 94
2, 143540, Control_c, 0, 11, 97
2, 143558, Control_c, 0, 11, 96
2, 143576, Control_c, 0, 11, 95
2, 143594, Control_c, 0, 11, 94
2, 143612, Control_c, 0, 11, 92
2, 143630, Control_c, 0, 11, 91
2, 143648, Control_c, 0, 11, 90
2, 143666, Control_c, 0, 11, 89
2, 143684, Control_c, 0, 11, 87
2, 143702, Note_on_c, 0, 95, 0
2, 143702, Control_c, 0, 11, 86
2, 143702, Note_on_c, 0, 92, 94
2, 143762, Note_on_c, 0, 92, 0
2, 143762, Note_on_c, 0, 92, 94
2, 143882, Note_on_c, 0, 92, 0
2, 144002, Note_on_c, 0, 88, 94
2, 144122, Note_on_c, 0, 88, 0
2, 144482, Control_c, 0, 11, 98
2, 144482, Note_on_c, 0, 88, 94
2, 144500, Control_c, 0, 11, 97
2, 144518, Control_c, 0, 11, 96
2, 144536, Control_c, 0, 11, 95
2, 144554, Control_c, 0, 11, 94
2, 144572, Control_c, 0, 11, 92
2, 144590, Control_c, 0, 11, 91
2, 144608, Control_c, 0, 11, 90
2, 144626, Control_c, 0, 11, 89
2, 144644, Control_c, 0, 11, 87
2, 144662, Note_on_c, 0, 88, 0
2, 144662, Control_c, 0, 11, 86
2, 144662, Note_on_c, 0, 83, 94
2, 144722, Note_on_c, 0, 83, 0
2, 144722, Note_on_c, 0, 83, 94
2, 144842, Note_on_c, 0, 83, 0
2, 144962, Note_on_c, 0, 88, 94
2, 145082, Note_on_c, 0, 88, 0
2, 145082, Note_on_c, 0, 83, 94
2, 145202, Note_on_c, 0, 83, 0
2, 145202, Note_on_c, 0, 88, 94
2, 145322, Note_on_c, 0, 88, 0
2, 145322, Note_on_c, 0, 83, 94
2, 145442, Note_on_c, 0, 83, 0
2, 145442, Note_on_c, 0, 88, 94
2, 145562, Note_on_c, 0, 88, 0
2, 145562, Note_on_c, 0, 83, 94
2, 145682, Note_on_c, 0, 83, 0
2, 145682, Note_on_c, 0, 88, 94
2, 145802, Note_on_c, 0, 88, 0
2, 145802, Note_on_c, 0, 83, 94
2, 145922, Note_on_c, 0, 83, 0
2, 145922, Note_on_c, 0, 88, 94
2, 146042, Note_on_c, 0, 88, 0
2, 146042, Note_on_c, 0, 83, 94
2, 146162, Note_on_c, 0, 83, 0
2, 146162, Note_on_c, 0, 88, 94
2, 146282, Note_on_c, 0, 88, 0
2, 146282, Note_on_c, 0, 83, 94
2, 146402, Note_on_c, 0, 83, 0
2, 146402, Note_on_c, 0, 88, 94
2, 146522, Note_on_c, 0, 88, 0
2, 146522, Note_on_c, 0, 83, 94
2, 146642, Note_on_c, 0, 83, 0
2, 146642, Note_on_c, 0, 88, 94
2, 146762, Note_on_c, 0, 88, 0
2, 146762, Note_on_c, 0, 83, 94
2, 146882, Note_on_c, 0, 83, 0
2, 146882, Note_on_c, 0, 88, 94
2, 147002, Note_on_c, 0, 88, 0
2, 147362, Note_on_c, 0, 88, 94
2, 147482, Note_on_c, 0, 88, 0
2, 147842, Note_on_c, 0, 88, 94
2, 147962, Note_on_c, 0, 88, 0
2, 148322, Control_c, 0, 121, 0
2, 148322, End_track
3, 0, Start_track
3, 0, MIDI_port, 0
3, 0, Title_t, "2 Oboi"
3, 0, Program_c, 1, 68
3, 0, Control_c, 1, 10, 72
3, 3, Control_c, 1, 121, 0
3, 8, Program_c, 1, 68
3, 13, Pitch_bend_c, 1, 8192
3, 18, Control_c, 1, 11, 76
3, 23, Control_c, 1, 7, 127
3, 28, Control_c, 1, 91, 54
3, 33, Control_c, 1, 93, 0
3, 483, Control_c, 1, 11, 77
3, 483, Note_on_c, 1, 76, 93
3, 633, Note_on_c, 1, 76, 0
3, 663, Note_on_c, 1, 71, 93
3, 713, Note_on_c, 1, 71, 0
3, 723, Note_on_c, 1, 71, 93
3, 783, Note_on_c, 1, 71, 0
3, 963, Control_c, 1, 11, 89
3, 963, Note_on_c, 1, 80, 93
3, 981, Control_c, 1, 11, 87
3, 999, Control_c, 1, 11, 86
3, 1017, Control_c, 1, 11, 84
3, 1035, Control_c, 1, 11, 82
3, 1053, Control_c, 1, 11, 80
3, 1071, Control_c, 1, 11, 78
3, 1113, Note_on_c, 1, 80, 0
3, 1143, Note_on_c, 1, 76, 93
3, 1193, Note_on_c, 1, 76, 0
3, 1203, Note_on_c, 1, 76, 93
3, 1263, Note_on_c, 1, 76, 0
3, 1443, Control_c, 1, 11, 89
3, 1443, Note_on_c, 1, 83, 93
3, 1461, Control_c, 1, 11, 87
3, 1479, Control_c, 1, 11, 86
3, 1497, Control_c, 1, 11, 84
3, 1515, Control_c, 1, 11, 82
3, 1533, Control_c, 1, 11, 80
3, 1551, Control_c, 1, 11, 78
3, 1593, Note_on_c, 1, 83, 0
3, 1623, Note_on_c, 1, 80, 93
3, 1673, Note_on_c, 1, 80, 0
3, 1683, Note_on_c, 1, 80, 93
3, 1743, Note_on_c, 1, 80, 0
3, 1803, Note_on_c, 1, 80, 93
3, 1803, Note_on_c, 1, 76, 93
3, 1863, Note_on_c, 1, 76, 0
3, 1863, Note_on_c, 1, 80, 0
3, 1923, Note_on_c, 1, 78, 93
3, 1923, Note_on_c, 1, 75, 93
3, 1983, Note_on_c, 1, 75, 0
3, 1983, Note_on_c, 1, 78, 0
3, 6243, Control_c, 1, 11, 77
3, 6243, Note_on_c, 1, 81, 93
3, 6393, Note_on_c, 1, 81, 0
3, 6423, Note_on_c, 1, 76, 93
3, 6473, Note_on_c, 1, 76, 0
3, 6483, Note_on_c, 1, 76, 93
3, 6543, Note_on_c, 1, 76, 0
3, 6723, Control_c, 1, 11, 89
3, 6723, Note_on_c, 1, 85, 93
3, 6741, Control_c, 1, 11, 87
3, 6759, Control_c, 1, 11, 86
3, 6777, Control_c, 1, 11, 84
3, 6795, Control_c, 1, 11, 82
3, 6813, Control_c, 1, 11, 80
3, 6831, Control_c, 1, 11, 78
3, 6873, Note_on_c, 1, 85, 0
3, 6903, Note_on_c, 1, 81, 93
3, 6953, Note_on_c, 1, 81, 0
3, 6963, Note_on_c, 1, 81, 93
3, 7023, Note_on_c, 1, 81, 0
3, 7203, Control_c, 1, 11, 89
3, 7203, Note_on_c, 1, 76, 93
3, 7221, Control_c, 1, 11, 87
3, 7239, Control_c, 1, 11, 86
3, 7257, Control_c, 1, 11, 84
3, 7275, Control_c, 1, 11, 82
3, 7293, Control_c, 1, 11, 80
3, 7311, Control_c, 1, 11, 78
3, 7353, Note_on_c, 1, 76, 0
3, 7383, Note_on_c, 1, 73, 93
3, 7433, Note_on_c, 1, 73, 0
3, 7443, Note_on_c, 1, 73, 93
3, 7503, Note_on_c, 1, 73, 0
3, 7563, Note_on_c, 1, 85, 93
3, 7563, Note_on_c, 1, 81, 93
3, 7623, Note_on_c, 1, 81, 0
3, 7623, Note_on_c, 1, 85, 0
3, 7683, Note_on_c, 1, 80, 93
3, 7683, Note_on_c, 1, 83, 93
3, 7743, Note_on_c, 1, 83, 0
3, 7743, Note_on_c, 1, 80, 0
3, 10083, Control_c, 1, 11, 37
3, 10083, Note_on_c, 1, 77, 93
3, 10107, Control_c, 1, 11, 38
3, 10131, Control_c, 1, 11, 39
3, 10155, Control_c, 1, 11, 40
3, 10179, Control_c, 1, 11, 41
3, 10203, Control_c, 1, 11, 42
3, 10227, Control_c, 1, 11, 43
3, 10251, Control_c, 1, 11, 44
3, 10275, Control_c, 1, 11, 45
3, 10299, Control_c, 1, 11, 46
3, 10323, Control_c, 1, 11, 47
3, 10347, Control_c, 1, 11, 48
3, 10371, Control_c, 1, 11, 49
3, 10395, Control_c, 1, 11, 50
3, 10419, Control_c, 1, 11, 51
3, 10443, Control_c, 1, 11, 52
3, 10467, Control_c, 1, 11, 53
3, 10491, Control_c, 1, 11, 54
3, 10515, Control_c, 1, 11, 55
3, 10539, Control_c, 1, 11, 56
3, 10563, Note_on_c, 1, 77, 0
3, 10563, Control_c, 1, 11, 57
3, 10563, Note_on_c, 1, 74, 93
3, 10582, Control_c, 1, 11, 56
3, 10601, Control_c, 1, 11, 55
3, 10620, Control_c, 1, 11, 54
3, 10639, Control_c, 1, 11, 53
3, 10659, Control_c, 1, 11, 52
3, 10678, Control_c, 1, 11, 51
3, 10697, Control_c, 1, 11, 50
3, 10716, Control_c, 1, 11, 49
3, 10735, Control_c, 1, 11, 48
3, 10755, Control_c, 1, 11, 47
3, 10774, Control_c, 1, 11, 46
3, 10793, Control_c, 1, 11, 45
3, 10812, Control_c, 1, 11, 44
3, 10831, Control_c, 1, 11, 43
3, 10851, Control_c, 1, 11, 42
3, 10870, Control_c, 1, 11, 41
3, 10889, Control_c, 1, 11, 40
3, 10908, Control_c, 1, 11, 39
3, 10927, Control_c, 1, 11, 38
3, 10947, Control_c, 1, 11, 37
3, 10966, Control_c, 1, 11, 36
3, 10985, Control_c, 1, 11, 35
3, 11004, Control_c, 1, 11, 34
3, 11023, Control_c, 1, 11, 33
3, 11043, Note_on_c, 1, 74, 0
3, 11043, Control_c, 1, 11, 37
3, 11043, Note_on_c, 1, 72, 93
3, 11043, Note_on_c, 1, 76, 93
3, 12003, Note_on_c, 1, 76, 0
3, 12003, Note_on_c, 1, 72, 0
3, 12003, Note_on_c, 1, 79, 93
3, 12003, Note_on_c, 1, 76, 93
3, 12963, Note_on_c, 1, 76, 0
3, 12963, Note_on_c, 1, 79, 0
3, 12963, Control_c, 1, 11, 37
3, 12963, Note_on_c, 1, 81, 93
3, 12963, Note_on_c, 1, 77, 93
3, 13036, Control_c, 1, 11, 38
3, 13110, Control_c, 1, 11, 39
3, 13184, Control_c, 1, 11, 40
3, 13258, Control_c, 1, 11, 41
3, 13332, Control_c, 1, 11, 42
3, 13406, Control_c, 1, 11, 43
3, 13479, Control_c, 1, 11, 44
3, 13553, Control_c, 1, 11, 45
3, 13627, Control_c, 1, 11, 46
3, 13701, Control_c, 1, 11, 47
3, 13775, Control_c, 1, 11, 48
3, 13849, Control_c, 1, 11, 49
3, 13923, Note_on_c, 1, 77, 0
3, 13923, Control_c, 1, 11, 50
3, 13923, Note_on_c, 1, 78, 93
3, 13996, Control_c, 1, 11, 51
3, 14070, Control_c, 1, 11, 52
3, 14144, Control_c, 1, 11, 53
3, 14218, Control_c, 1, 11, 54
3, 14292, Control_c, 1, 11, 55
3, 14366, Control_c, 1, 11, 56
3, 14439, Control_c, 1, 11, 57
3, 14513, Control_c, 1, 11, 58
3, 14587, Control_c, 1, 11, 59
3, 14661, Control_c, 1, 11, 60
3, 14735, Control_c, 1, 11, 61
3, 14809, Control_c, 1, 11, 62
3, 14883, Control_c, 1, 11, 62
3, 14956, Control_c, 1, 11, 63
3, 15030, Control_c, 1, 11, 63
3, 15104, Control_c, 1, 11, 64
3, 15178, Control_c, 1, 11, 65
3, 15252, Control_c, 1, 11, 65
3, 15326, Control_c, 1, 11, 66
3, 15399, Control_c, 1, 11, 66
3, 15473, Control_c, 1, 11, 67
3, 15547, Control_c, 1, 11, 68
3, 15621, Control_c, 1, 11, 68
3, 15695, Control_c, 1, 11, 69
3, 15769, Control_c, 1, 11, 70
3, 15843, Control_c, 1, 11, 70
3, 15916, Control_c, 1, 11, 71
3, 15990, Control_c, 1, 11, 71
3, 16064, Control_c, 1, 11, 72
3, 16138, Control_c, 1, 11, 73
3, 16212, Control_c, 1, 11, 73
3, 16286, Control_c, 1, 11, 74
3, 16359, Control_c, 1, 11, 74
3, 16433, Control_c, 1, 11, 75
3, 16507, Control_c, 1, 11, 76
3, 16581, Control_c, 1, 11, 76
3, 16655, Control_c, 1, 11, 77
3, 16729, Control_c, 1, 11, 78
3, 16803, Note_on_c, 1, 78, 0
3, 16803, Note_on_c, 1, 81, 0
3, 16803, Control_c, 1, 11, 78
3, 16803, Note_on_c, 1, 82, 93
3, 16803, Note_on_c, 1, 73, 93
3, 16876, Control_c, 1, 11, 79
3, 16950, Control_c, 1, 11, 79
3, 17024, Control_c, 1, 11, 80
3, 17098, Control_c, 1, 11, 81
3, 17172, Control_c, 1, 11, 81
3, 17246, Control_c, 1, 11, 82
3, 17319, Control_c, 1, 11, 82
3, 17393, Control_c, 1, 11, 83
3, 17467, Control_c, 1, 11, 84
3, 17541, Control_c, 1, 11, 84
3, 17615, Control_c, 1, 11, 85
3, 17689, Control_c, 1, 11, 86
3, 17763, Note_on_c, 1, 73, 0
3, 17763, Note_on_c, 1, 82, 0
3, 17763, Control_c, 1, 11, 86
3, 17763, Note_on_c, 1, 83, 93
3, 17763, Note_on_c, 1, 75, 93
3, 17823, Note_on_c, 1, 75, 0
3, 17823, Note_on_c, 1, 83, 0
3, 17883, Note_on_c, 1, 83, 93
3, 17883, Note_on_c, 1, 71, 93
3, 17943, Note_on_c, 1, 71, 0
3, 17943, Note_on_c, 1, 83, 0
3, 18003, Note_on_c, 1, 71, 93
3, 18003, Note_on_c, 1, 83, 93
3, 18063, Note_on_c, 1, 83, 0
3, 18063, Note_on_c, 1, 71, 0
3, 18123, Note_on_c, 1, 71, 93
3, 18123, Note_on_c, 1, 83, 93
3, 18183, Note_on_c, 1, 83, 0
3, 18183, Note_on_c, 1, 71, 0
3, 18243, Note_on_c, 1, 71, 93
3, 18243, Note_on_c, 1, 83, 93
3, 18303, Note_on_c, 1, 83, 0
3, 18303, Note_on_c, 1, 71, 0
3, 18363, Note_on_c, 1, 83, 93
3, 18363, Note_on_c, 1, 71, 93
3, 18423, Note_on_c, 1, 71, 0
3, 18423, Note_on_c, 1, 83, 0
3, 18483, Note_on_c, 1, 83, 93
3, 18483, Note_on_c, 1, 71, 93
3, 18543, Note_on_c, 1, 71, 0
3, 18543, Note_on_c, 1, 83, 0
3, 18603, Note_on_c, 1, 71, 93
3, 18603, Note_on_c, 1, 83, 93
3, 18663, Note_on_c, 1, 83, 0
3, 18663, Note_on_c, 1, 71, 0
3, 18723, Control_c, 1, 11, 47
3, 18723, Note_on_c, 1, 71, 73
3, 18723, Note_on_c, 1, 83, 73
3, 18783, Note_on_c, 1, 83, 0
3, 18783, Note_on_c, 1, 71, 0
3, 30363, Control_c, 1, 11, 65
3, 30363, Note_on_c, 1, 81, 93
3, 30381, Control_c, 1, 11, 65
3, 30399, Control_c, 1, 11, 66
3, 30417, Control_c, 1, 11, 66
3, 30435, Control_c, 1, 11, 67
3, 30453, Control_c, 1, 11, 68
3, 30471, Control_c, 1, 11, 68
3, 30483, Note_on_c, 1, 81, 0
3, 30483, Note_on_c, 1, 80, 93
3, 30489, Control_c, 1, 11, 69
3, 30507, Control_c, 1, 11, 70
3, 30525, Control_c, 1, 11, 70
3, 30543, Control_c, 1, 11, 71
3, 30561, Control_c, 1, 11, 71
3, 30579, Control_c, 1, 11, 72
3, 30597, Control_c, 1, 11, 73
3, 30603, Note_on_c, 1, 80, 0
3, 30603, Note_on_c, 1, 78, 93
3, 30615, Control_c, 1, 11, 73
3, 30633, Control_c, 1, 11, 74
3, 30651, Control_c, 1, 11, 74
3, 30669, Control_c, 1, 11, 75
3, 30687, Control_c, 1, 11, 76
3, 30705, Control_c, 1, 11, 76
3, 30713, Note_on_c, 1, 78, 0
3, 30723, Control_c, 1, 11, 77
3, 30723, Note_on_c, 1, 76, 93
3, 30843, Note_on_c, 1, 76, 0
3, 31203, Note_on_c, 1, 81, 93
3, 31203, Note_on_c, 1, 85, 93
3, 31323, Note_on_c, 1, 85, 0
3, 31323, Note_on_c, 1, 81, 0
3, 31683, Note_on_c, 1, 78, 93
3, 31683, Note_on_c, 1, 81, 93
3, 31803, Note_on_c, 1, 81, 0
3, 31803, Note_on_c, 1, 78, 0
3, 32043, Note_on_c, 1, 78, 93
3, 32043, Note_on_c, 1, 81, 93
3, 32163, Note_on_c, 1, 81, 0
3, 32163, Note_on_c, 1, 78, 0
3, 32163, Note_on_c, 1, 75, 93
3, 32163, Note_on_c, 1, 78, 93
3, 32283, Note_on_c, 1, 78, 0
3, 32283, Note_on_c, 1, 75, 0
3, 32283, Note_on_c, 1, 81, 93
3, 32283, Note_on_c, 1, 78, 93
3, 32403, Note_on_c, 1, 78, 0
3, 32403, Note_on_c, 1, 81, 0
3, 32403, Note_on_c, 1, 81, 93
3, 32403, Note_on_c, 1, 78, 93
3, 32523, Note_on_c, 1, 78, 0
3, 32523, Note_on_c, 1, 81, 0
3, 32523, Note_on_c, 1, 78, 93
3, 32523, Note_on_c, 1, 81, 93
3, 32643, Note_on_c, 1, 81, 0
3, 32643, Note_on_c, 1, 78, 0
3, 32643, Note_on_c, 1, 80, 93
3, 32643, Note_on_c, 1, 76, 93
3, 32763, Note_on_c, 1, 76, 0
3, 32763, Note_on_c, 1, 80, 0
3, 32763, Note_on_c, 1, 76, 93
3, 32763, Note_on_c, 1, 80, 93
3, 32883, Note_on_c, 1, 80, 0
3, 32883, Note_on_c, 1, 76, 0
3, 33123, Note_on_c, 1, 85, 93
3, 33123, Note_on_c, 1, 81, 93
3, 33243, Note_on_c, 1, 81, 0
3, 33243, Note_on_c, 1, 85, 0
3, 33243, Note_on_c, 1, 81, 93
3, 33243, Note_on_c, 1, 85, 93
3, 33363, Note_on_c, 1, 85, 0
3, 33363, Note_on_c, 1, 81, 0
3, 33603, Note_on_c, 1, 78, 93
3, 33603, Note_on_c, 1, 81, 93
3, 33723, Note_on_c, 1, 81, 0
3, 33723, Note_on_c, 1, 78, 0
3, 33723, Note_on_c, 1, 81, 93
3, 33723, Note_on_c, 1, 78, 93
3, 33843, Note_on_c, 1, 78, 0
3, 33843, Note_on_c, 1, 81, 0
3, 33963, Note_on_c, 1, 76, 93
3, 33963, Note_on_c, 1, 80, 93
3, 34083, Note_on_c, 1, 80, 0
3, 34083, Note_on_c, 1, 76, 0
3, 34083, Note_on_c, 1, 81, 93
3, 34083, Note_on_c, 1, 78, 93
3, 34203, Note_on_c, 1, 78, 0
3, 34203, Note_on_c, 1, 81, 0
3, 34203, Note_on_c, 1, 81, 93
3, 34203, Note_on_c, 1, 78, 93
3, 34323, Note_on_c, 1, 78, 0
3, 34323, Note_on_c, 1, 81, 0
3, 34323, Note_on_c, 1, 81, 93
3, 34323, Note_on_c, 1, 78, 93
3, 34443, Note_on_c, 1, 78, 0
3, 34443, Note_on_c, 1, 81, 0
3, 34443, Note_on_c, 1, 78, 93
3, 34443, Note_on_c, 1, 81, 93
3, 34563, Note_on_c, 1, 81, 0
3, 34563, Note_on_c, 1, 78, 0
3, 34563, Note_on_c, 1, 80, 93
3, 34563, Note_on_c, 1, 76, 93
3, 34683, Note_on_c, 1, 76, 0
3, 34683, Note_on_c, 1, 80, 0
3, 34803, Note_on_c, 1, 80, 93
3, 34803, Note_on_c, 1, 76, 93
3, 34923, Note_on_c, 1, 76, 0
3, 34923, Note_on_c, 1, 80, 0
3, 35043, Note_on_c, 1, 80, 93
3, 35043, Note_on_c, 1, 76, 93
3, 35163, Note_on_c, 1, 76, 0
3, 35163, Note_on_c, 1, 80, 0
3, 35283, Note_on_c, 1, 76, 93
3, 35283, Note_on_c, 1, 80, 93
3, 35403, Note_on_c, 1, 80, 0
3, 35403, Note_on_c, 1, 76, 0
3, 35523, Control_c, 1, 11, 89
3, 35523, Note_on_c, 1, 78, 93
3, 35523, Note_on_c, 1, 81, 93
3, 35540, Control_c, 1, 11, 87
3, 35558, Control_c, 1, 11, 86
3, 35576, Control_c, 1, 11, 84
3, 35594, Control_c, 1, 11, 82
3, 35612, Control_c, 1, 11, 80
3, 35630, Control_c, 1, 11, 78
3, 36483, Note_on_c, 1, 81, 0
3, 36483, Note_on_c, 1, 78, 0
3, 36483, Note_on_c, 1, 80, 93
3, 36483, Note_on_c, 1, 76, 93
3, 36603, Note_on_c, 1, 76, 0
3, 36603, Note_on_c, 1, 80, 0
3, 36723, Note_on_c, 1, 80, 93
3, 36723, Note_on_c, 1, 76, 93
3, 36843, Note_on_c, 1, 76, 0
3, 36843, Note_on_c, 1, 80, 0
3, 36963, Note_on_c, 1, 76, 93
3, 36963, Note_on_c, 1, 80, 93
3, 37083, Note_on_c, 1, 80, 0
3, 37083, Note_on_c, 1, 76, 0
3, 37203, Note_on_c, 1, 76, 93
3, 37203, Note_on_c, 1, 80, 93
3, 37323, Note_on_c, 1, 80, 0
3, 37323, Note_on_c, 1, 76, 0
3, 37443, Control_c, 1, 11, 89
3, 37443, Note_on_c, 1, 81, 93
3, 37443, Note_on_c, 1, 78, 93
3, 37460, Control_c, 1, 11, 87
3, 37478, Control_c, 1, 11, 86
3, 37496, Control_c, 1, 11, 84
3, 37514, Control_c, 1, 11, 82
3, 37532, Control_c, 1, 11, 80
3, 37550, Control_c, 1, 11, 78
3, 38403, Note_on_c, 1, 78, 0
3, 38403, Note_on_c, 1, 81, 0
3, 38403, Note_on_c, 1, 76, 93
3, 38403, Note_on_c, 1, 80, 93
3, 39123, Note_on_c, 1, 80, 0
3, 39123, Note_on_c, 1, 76, 0
3, 39123, Note_on_c, 1, 80, 93
3, 39153, Note_on_c, 1, 80, 0
3, 39183, Note_on_c, 1, 76, 93
3, 39213, Note_on_c, 1, 76, 0
3, 39243, Note_on_c, 1, 73, 93
3, 39273, Note_on_c, 1, 73, 0
3, 39303, Note_on_c, 1, 71, 93
3, 39333, Note_on_c, 1, 71, 0
3, 39363, Note_on_c, 1, 70, 83
3, 39483, Note_on_c, 1, 70, 0
3, 43323, Control_c, 1, 11, 47
3, 43323, Note_on_c, 1, 80, 93
3, 43563, Note_on_c, 1, 80, 0
3, 43563, Note_on_c, 1, 81, 93
3, 43683, Note_on_c, 1, 81, 0
3, 43683, Note_on_c, 1, 80, 93
3, 44163, Note_on_c, 1, 80, 0
3, 44163, Note_on_c, 1, 76, 93
3, 44283, Note_on_c, 1, 76, 0
3, 44763, Note_on_c, 1, 78, 93
3, 44763, Note_on_c, 1, 75, 93
3, 44883, Note_on_c, 1, 75, 0
3, 44883, Note_on_c, 1, 78, 0
3, 45003, Note_on_c, 1, 75, 93
3, 45003, Note_on_c, 1, 78, 93
3, 45123, Note_on_c, 1, 78, 0
3, 45123, Note_on_c, 1, 75, 0
3, 45123, Control_c, 1, 11, 47
3, 45123, Note_on_c, 1, 76, 93
3, 45123, Note_on_c, 1, 80, 93
3, 45146, Control_c, 1, 11, 48
3, 45170, Control_c, 1, 11, 49
3, 45194, Control_c, 1, 11, 50
3, 45218, Control_c, 1, 11, 51
3, 45242, Control_c, 1, 11, 52
3, 45243, Note_on_c, 1, 80, 0
3, 45243, Note_on_c, 1, 76, 0
3, 45243, Note_on_c, 1, 75, 93
3, 45243, Note_on_c, 1, 78, 93
3, 45266, Control_c, 1, 11, 53
3, 45290, Control_c, 1, 11, 54
3, 45314, Control_c, 1, 11, 55
3, 45338, Control_c, 1, 11, 56
3, 45362, Control_c, 1, 11, 57
3, 45363, Note_on_c, 1, 78, 0
3, 45363, Note_on_c, 1, 75, 0
3, 45386, Control_c, 1, 11, 58
3, 45410, Control_c, 1, 11, 59
3, 45434, Control_c, 1, 11, 60
3, 45458, Control_c, 1, 11, 61
3, 45482, Control_c, 1, 11, 62
3, 45483, Note_on_c, 1, 78, 93
3, 45483, Note_on_c, 1, 75, 93
3, 45506, Control_c, 1, 11, 62
3, 45530, Control_c, 1, 11, 63
3, 45554, Control_c, 1, 11, 63
3, 45578, Control_c, 1, 11, 64
3, 45602, Control_c, 1, 11, 65
3, 45603, Note_on_c, 1, 75, 0
3, 45603, Note_on_c, 1, 78, 0
3, 45603, Note_on_c, 1, 76, 93
3, 45603, Note_on_c, 1, 80, 93
3, 45626, Control_c, 1, 11, 65
3, 45650, Control_c, 1, 11, 66
3, 45674, Control_c, 1, 11, 66
3, 45698, Control_c, 1, 11, 67
3, 45722, Control_c, 1, 11, 68
3, 45723, Note_on_c, 1, 80, 0
3, 45723, Note_on_c, 1, 76, 0
3, 45723, Note_on_c, 1, 75, 93
3, 45723, Note_on_c, 1, 78, 93
3, 45746, Control_c, 1, 11, 68
3, 45770, Control_c, 1, 11, 69
3, 45794, Control_c, 1, 11, 70
3, 45818, Control_c, 1, 11, 70
3, 45842, Control_c, 1, 11, 71
3, 45843, Note_on_c, 1, 78, 0
3, 45843, Note_on_c, 1, 75, 0
3, 45866, Control_c, 1, 11, 71
3, 45890, Control_c, 1, 11, 72
3, 45914, Control_c, 1, 11, 73
3, 45938, Control_c, 1, 11, 73
3, 45962, Control_c, 1, 11, 74
3, 45963, Note_on_c, 1, 78, 93
3, 45963, Note_on_c, 1, 75, 93
3, 45986, Control_c, 1, 11, 74
3, 46010, Control_c, 1, 11, 75
3, 46034, Control_c, 1, 11, 76
3, 46058, Control_c, 1, 11, 76
3, 46082, Control_c, 1, 11, 77
3, 46083, Note_on_c, 1, 75, 0
3, 46083, Note_on_c, 1, 78, 0
3, 46083, Note_on_c, 1, 76, 93
3, 46083, Note_on_c, 1, 80, 93
3, 46203, Note_on_c, 1, 80, 0
3, 46203, Note_on_c, 1, 76, 0
3, 46203, Note_on_c, 1, 78, 93
3, 46203, Note_on_c, 1, 75, 93
3, 46258, Note_on_c, 1, 75, 0
3, 46258, Note_on_c, 1, 78, 0
3, 46263, Note_on_c, 1, 78, 93
3, 46263, Note_on_c, 1, 75, 93
3, 46318, Note_on_c, 1, 75, 0
3, 46318, Note_on_c, 1, 78, 0
3, 46323, Note_on_c, 1, 80, 93
3, 46323, Note_on_c, 1, 76, 93
3, 46438, Note_on_c, 1, 76, 0
3, 46438, Note_on_c, 1, 80, 0
3, 46443, Note_on_c, 1, 75, 93
3, 46443, Note_on_c, 1, 78, 93
3, 46498, Note_on_c, 1, 78, 0
3, 46498, Note_on_c, 1, 75, 0
3, 46503, Note_on_c, 1, 75, 93
3, 46503, Note_on_c, 1, 78, 93
3, 46558, Note_on_c, 1, 78, 0
3, 46558, Note_on_c, 1, 75, 0
3, 46563, Note_on_c, 1, 80, 93
3, 46563, Note_on_c, 1, 76, 93
3, 46678, Note_on_c, 1, 76, 0
3, 46678, Note_on_c, 1, 80, 0
3, 46683, Note_on_c, 1, 78, 93
3, 46683, Note_on_c, 1, 75, 93
3, 46738, Note_on_c, 1, 75, 0
3, 46738, Note_on_c, 1, 78, 0
3, 46743, Note_on_c, 1, 78, 93
3, 46743, Note_on_c, 1, 75, 93
3, 46798, Note_on_c, 1, 75, 0
3, 46798, Note_on_c, 1, 78, 0
3, 46803, Note_on_c, 1, 80, 93
3, 46803, Note_on_c, 1, 76, 93
3, 46918, Note_on_c, 1, 76, 0
3, 46918, Note_on_c, 1, 80, 0
3, 46923, Note_on_c, 1, 75, 93
3, 46923, Note_on_c, 1, 78, 93
3, 46978, Note_on_c, 1, 78, 0
3, 46978, Note_on_c, 1, 75, 0
3, 46983, Note_on_c, 1, 75, 93
3, 46983, Note_on_c, 1, 78, 93
3, 47038, Note_on_c, 1, 78, 0
3, 47038, Note_on_c, 1, 75, 0
3, 47043, Note_on_c, 1, 80, 93
3, 47043, Note_on_c, 1, 76, 93
3, 47158, Note_on_c, 1, 76, 0
3, 47158, Note_on_c, 1, 80, 0
3, 47163, Control_c, 1, 11, 86
3, 47163, Note_on_c, 1, 76, 93
3, 47518, Note_on_c, 1, 76, 0
3, 47523, Note_on_c, 1, 76, 93
3, 47578, Note_on_c, 1, 76, 0
3, 47583, Note_on_c, 1, 75, 93
3, 47638, Note_on_c, 1, 75, 0
3, 47643, Note_on_c, 1, 73, 93
3, 47698, Note_on_c, 1, 73, 0
3, 47703, Note_on_c, 1, 71, 93
3, 47758, Note_on_c, 1, 71, 0
3, 47763, Note_on_c, 1, 69, 93
3, 47818, Note_on_c, 1, 69, 0
3, 47823, Note_on_c, 1, 68, 93
3, 47878, Note_on_c, 1, 68, 0
3, 47883, Note_on_c, 1, 66, 93
3, 47938, Note_on_c, 1, 66, 0
3, 47943, Note_on_c, 1, 64, 93
3, 47998, Note_on_c, 1, 64, 0
3, 48003, Note_on_c, 1, 73, 93
3, 48123, Note_on_c, 1, 73, 0
3, 48123, Note_on_c, 1, 73, 93
3, 48483, Note_on_c, 1, 73, 0
3, 48483, Note_on_c, 1, 73, 93
3, 48538, Note_on_c, 1, 73, 0
3, 48543, Note_on_c, 1, 71, 93
3, 48598, Note_on_c, 1, 71, 0
3, 48603, Note_on_c, 1, 69, 93
3, 48658, Note_on_c, 1, 69, 0
3, 48663, Note_on_c, 1, 68, 93
3, 48718, Note_on_c, 1, 68, 0
3, 48723, Note_on_c, 1, 66, 93
3, 48778, Note_on_c, 1, 66, 0
3, 48783, Note_on_c, 1, 64, 93
3, 48838, Note_on_c, 1, 64, 0
3, 48843, Note_on_c, 1, 63, 93
3, 48898, Note_on_c, 1, 63, 0
3, 48903, Note_on_c, 1, 61, 93
3, 48958, Note_on_c, 1, 61, 0
3, 48963, Note_on_c, 1, 78, 93
3, 48963, Note_on_c, 1, 73, 93
3, 49923, Note_on_c, 1, 73, 0
3, 49923, Note_on_c, 1, 78, 0
3, 49923, Note_on_c, 1, 78, 93
3, 49923, Note_on_c, 1, 73, 93
3, 50283, Note_on_c, 1, 73, 0
3, 50283, Note_on_c, 1, 78, 0
3, 50283, Control_c, 1, 11, 98
3, 50283, Note_on_c, 1, 73, 93
3, 50283, Note_on_c, 1, 77, 93
3, 50300, Control_c, 1, 11, 97
3, 50318, Control_c, 1, 11, 95
3, 50336, Control_c, 1, 11, 93
3, 50354, Control_c, 1, 11, 91
3, 50372, Control_c, 1, 11, 89
3, 50390, Control_c, 1, 11, 87
3, 50403, Note_on_c, 1, 77, 0
3, 50403, Note_on_c, 1, 73, 0
3, 50403, Note_on_c, 1, 78, 93
3, 50403, Note_on_c, 1, 73, 93
3, 50763, Note_on_c, 1, 73, 0
3, 50763, Note_on_c, 1, 78, 0
3, 50763, Control_c, 1, 11, 98
3, 50763, Note_on_c, 1, 73, 93
3, 50763, Note_on_c, 1, 77, 93
3, 50780, Control_c, 1, 11, 97
3, 50798, Control_c, 1, 11, 95
3, 50816, Control_c, 1, 11, 93
3, 50834, Control_c, 1, 11, 91
3, 50852, Control_c, 1, 11, 89
3, 50870, Control_c, 1, 11, 87
3, 50883, Note_on_c, 1, 77, 0
3, 50883, Note_on_c, 1, 73, 0
3, 50883, Note_on_c, 1, 78, 93
3, 50883, Note_on_c, 1, 73, 93
3, 51003, Note_on_c, 1, 73, 0
3, 51003, Note_on_c, 1, 78, 0
3, 51003, Control_c, 1, 11, 98
3, 51003, Note_on_c, 1, 73, 93
3, 51003, Note_on_c, 1, 77, 93
3, 51020, Control_c, 1, 11, 97
3, 51038, Control_c, 1, 11, 95
3, 51056, Control_c, 1, 11, 93
3, 51074, Control_c, 1, 11, 91
3, 51092, Control_c, 1, 11, 89
3, 51110, Control_c, 1, 11, 87
3, 51123, Note_on_c, 1, 77, 0
3, 51123, Note_on_c, 1, 73, 0
3, 51123, Note_on_c, 1, 73, 93
3, 51123, Note_on_c, 1, 78, 93
3, 51243, Note_on_c, 1, 78, 0
3, 51243, Note_on_c, 1, 73, 0
3, 51243, Control_c, 1, 11, 98
3, 51243, Note_on_c, 1, 77, 93
3, 51243, Note_on_c, 1, 73, 93
3, 51260, Control_c, 1, 11, 97
3, 51278, Control_c, 1, 11, 95
3, 51296, Control_c, 1, 11, 93
3, 51314, Control_c, 1, 11, 91
3, 51332, Control_c, 1, 11, 89
3, 51350, Control_c, 1, 11, 87
3, 51363, Note_on_c, 1, 73, 0
3, 51363, Note_on_c, 1, 77, 0
3, 51363, Note_on_c, 1, 78, 93
3, 51363, Note_on_c, 1, 73, 93
3, 51483, Note_on_c, 1, 73, 0
3, 51483, Note_on_c, 1, 78, 0
3, 51483, Control_c, 1, 11, 98
3, 51483, Note_on_c, 1, 73, 93
3, 51483, Note_on_c, 1, 77, 93
3, 51500, Control_c, 1, 11, 97
3, 51518, Control_c, 1, 11, 95
3, 51536, Control_c, 1, 11, 93
3, 51554, Control_c, 1, 11, 91
3, 51572, Control_c, 1, 11, 89
3, 51590, Control_c, 1, 11, 87
3, 51603, Note_on_c, 1, 77, 0
3, 51603, Note_on_c, 1, 73, 0
3, 51603, Note_on_c, 1, 78, 93
3, 51603, Note_on_c, 1, 73, 93
3, 51723, Note_on_c, 1, 73, 0
3, 51723, Note_on_c, 1, 78, 0
3, 51723, Control_c, 1, 11, 98
3, 51723, Note_on_c, 1, 73, 93
3, 51723, Note_on_c, 1, 76, 93
3, 51740, Control_c, 1, 11, 97
3, 51758, Control_c, 1, 11, 95
3, 51776, Control_c, 1, 11, 93
3, 51794, Control_c, 1, 11, 91
3, 51812, Control_c, 1, 11, 89
3, 51830, Control_c, 1, 11, 87
3, 51843, Note_on_c, 1, 76, 0
3, 51843, Note_on_c, 1, 73, 0
3, 51843, Note_on_c, 1, 75, 93
3, 51843, Note_on_c, 1, 71, 93
3, 51963, Note_on_c, 1, 71, 0
3, 51963, Note_on_c, 1, 75, 0
3, 51963, Control_c, 1, 11, 98
3, 51963, Note_on_c, 1, 71, 93
3, 51963, Note_on_c, 1, 83, 93
3, 51980, Control_c, 1, 11, 97
3, 51998, Control_c, 1, 11, 95
3, 52016, Control_c, 1, 11, 93
3, 52034, Control_c, 1, 11, 91
3, 52052, Control_c, 1, 11, 89
3, 52070, Control_c, 1, 11, 87
3, 52083, Note_on_c, 1, 83, 0
3, 52083, Note_on_c, 1, 71, 0
3, 52083, Note_on_c, 1, 73, 93
3, 52083, Note_on_c, 1, 80, 93
3, 52203, Note_on_c, 1, 80, 0
3, 52203, Note_on_c, 1, 73, 0
3, 52203, Control_c, 1, 11, 98
3, 52203, Note_on_c, 1, 80, 93
3, 52203, Note_on_c, 1, 76, 93
3, 52220, Control_c, 1, 11, 97
3, 52238, Control_c, 1, 11, 95
3, 52256, Control_c, 1, 11, 93
3, 52274, Control_c, 1, 11, 91
3, 52292, Control_c, 1, 11, 89
3, 52310, Control_c, 1, 11, 87
3, 52323, Note_on_c, 1, 76, 0
3, 52323, Note_on_c, 1, 80, 0
3, 52323, Note_on_c, 1, 75, 93
3, 52323, Note_on_c, 1, 71, 93
3, 52443, Note_on_c, 1, 71, 0
3, 52443, Note_on_c, 1, 75, 0
3, 52443, Control_c, 1, 11, 98
3, 52443, Note_on_c, 1, 75, 93
3, 52443, Note_on_c, 1, 78, 93
3, 52460, Control_c, 1, 11, 97
3, 52478, Control_c, 1, 11, 95
3, 52496, Control_c, 1, 11, 93
3, 52514, Control_c, 1, 11, 91
3, 52532, Control_c, 1, 11, 89
3, 52550, Control_c, 1, 11, 87
3, 52563, Note_on_c, 1, 78, 0
3, 52563, Note_on_c, 1, 75, 0
3, 52563, Note_on_c, 1, 70, 93
3, 52563, Note_on_c, 1, 73, 93
3, 52683, Note_on_c, 1, 73, 0
3, 52683, Note_on_c, 1, 70, 0
3, 52683, Control_c, 1, 11, 98
3, 52683, Note_on_c, 1, 73, 93
3, 52683, Note_on_c, 1, 76, 93
3, 52700, Control_c, 1, 11, 97
3, 52718, Control_c, 1, 11, 95
3, 52736, Control_c, 1, 11, 93
3, 52754, Control_c, 1, 11, 91
3, 52772, Control_c, 1, 11, 89
3, 52790, Control_c, 1, 11, 87
3, 52803, Note_on_c, 1, 76, 0
3, 52803, Note_on_c, 1, 73, 0
3, 52803, Note_on_c, 1, 71, 83
3, 52803, Note_on_c, 1, 75, 83
3, 52923, Note_on_c, 1, 75, 0
3, 52923, Note_on_c, 1, 71, 0
3, 52923, Note_on_c, 1, 81, 38
3, 52923, Note_on_c, 1, 78, 38
3, 53043, Note_on_c, 1, 78, 0
3, 53043, Note_on_c, 1, 81, 0
3, 53043, Note_on_c, 1, 76, 38
3, 53043, Note_on_c, 1, 80, 38
3, 53163, Note_on_c, 1, 80, 0
3, 53163, Note_on_c, 1, 76, 0
3, 53403, Note_on_c, 1, 81, 38
3, 53403, Note_on_c, 1, 78, 38
3, 53523, Note_on_c, 1, 78, 0
3, 53523, Note_on_c, 1, 81, 0
3, 53523, Note_on_c, 1, 80, 38
3, 53523, Note_on_c, 1, 76, 38
3, 53643, Note_on_c, 1, 76, 0
3, 53643, Note_on_c, 1, 80, 0
3, 53883, Note_on_c, 1, 78, 38
3, 53883, Note_on_c, 1, 81, 38
3, 54003, Note_on_c, 1, 81, 0
3, 54003, Note_on_c, 1, 78, 0
3, 54003, Note_on_c, 1, 76, 38
3, 54003, Note_on_c, 1, 80, 38
3, 54123, Note_on_c, 1, 80, 0
3, 54123, Note_on_c, 1, 76, 0
3, 54363, Note_on_c, 1, 78, 38
3, 54363, Note_on_c, 1, 81, 38
3, 54483, Note_on_c, 1, 81, 0
3, 54483, Note_on_c, 1, 78, 0
3, 54483, Note_on_c, 1, 80, 38
3, 54483, Note_on_c, 1, 76, 38
3, 54603, Note_on_c, 1, 76, 0
3, 54603, Note_on_c, 1, 80, 0
3, 54603, Note_on_c, 1, 73, 93
3, 54603, Note_on_c, 1, 76, 93
3, 54723, Note_on_c, 1, 76, 0
3, 54723, Note_on_c, 1, 73, 0
3, 54723, Note_on_c, 1, 75, 93
3, 54723, Note_on_c, 1, 71, 93
3, 54838, Note_on_c, 1, 71, 0
3, 54838, Note_on_c, 1, 75, 0
3, 54843, Note_on_c, 1, 75, 93
3, 54843, Note_on_c, 1, 83, 93
3, 54898, Note_on_c, 1, 83, 0
3, 54898, Note_on_c, 1, 75, 0
3, 54903, Note_on_c, 1, 83, 93
3, 54903, Note_on_c, 1, 75, 93
3, 54958, Note_on_c, 1, 75, 0
3, 54958, Note_on_c, 1, 83, 0
3, 54963, Note_on_c, 1, 83, 93
3, 54963, Note_on_c, 1, 75, 93
3, 55083, Note_on_c, 1, 75, 0
3, 55083, Note_on_c, 1, 83, 0
3, 55203, Note_on_c, 1, 83, 93
3, 55203, Note_on_c, 1, 75, 93
3, 55318, Note_on_c, 1, 75, 0
3, 55318, Note_on_c, 1, 83, 0
3, 55323, Note_on_c, 1, 75, 93
3, 55323, Note_on_c, 1, 83, 93
3, 55378, Note_on_c, 1, 83, 0
3, 55378, Note_on_c, 1, 75, 0
3, 55383, Note_on_c, 1, 75, 93
3, 55383, Note_on_c, 1, 83, 93
3, 55438, Note_on_c, 1, 83, 0
3, 55438, Note_on_c, 1, 75, 0
3, 55443, Note_on_c, 1, 83, 93
3, 55443, Note_on_c, 1, 75, 93
3, 55563, Note_on_c, 1, 75, 0
3, 55563, Note_on_c, 1, 83, 0
3, 55683, Note_on_c, 1, 83, 93
3, 55683, Note_on_c, 1, 71, 93
3, 55798, Note_on_c, 1, 71, 0
3, 55798, Note_on_c, 1, 83, 0
3, 55803, Note_on_c, 1, 71, 93
3, 55803, Note_on_c, 1, 83, 93
3, 55858, Note_on_c, 1, 83, 0
3, 55858, Note_on_c, 1, 71, 0
3, 55863, Note_on_c, 1, 71, 93
3, 55863, Note_on_c, 1, 83, 93
3, 55918, Note_on_c, 1, 83, 0
3, 55918, Note_on_c, 1, 71, 0
3, 55923, Note_on_c, 1, 71, 93
3, 55923, Note_on_c, 1, 83, 93
3, 56038, Note_on_c, 1, 83, 0
3, 56038, Note_on_c, 1, 71, 0
3, 56043, Note_on_c, 1, 71, 93
3, 56043, Note_on_c, 1, 83, 93
3, 56098, Note_on_c, 1, 83, 0
3, 56098, Note_on_c, 1, 71, 0
3, 56103, Note_on_c, 1, 71, 93
3, 56103, Note_on_c, 1, 83, 93
3, 56158, Note_on_c, 1, 83, 0
3, 56158, Note_on_c, 1, 71, 0
3, 56163, Note_on_c, 1, 83, 93
3, 56163, Note_on_c, 1, 71, 93
3, 56278, Note_on_c, 1, 71, 0
3, 56278, Note_on_c, 1, 83, 0
3, 56283, Note_on_c, 1, 71, 93
3, 56283, Note_on_c, 1, 83, 93
3, 56338, Note_on_c, 1, 83, 0
3, 56338, Note_on_c, 1, 71, 0
3, 56343, Note_on_c, 1, 83, 93
3, 56343, Note_on_c, 1, 71, 93
3, 56398, Note_on_c, 1, 71, 0
3, 56398, Note_on_c, 1, 83, 0
3, 56403, Note_on_c, 1, 71, 93
3, 56403, Note_on_c, 1, 83, 93
3, 56518, Note_on_c, 1, 83, 0
3, 56518, Note_on_c, 1, 71, 0
3, 56523, Note_on_c, 1, 83, 93
3, 56523, Note_on_c, 1, 71, 93
3, 56578, Note_on_c, 1, 71, 0
3, 56578, Note_on_c, 1, 83, 0
3, 56583, Note_on_c, 1, 83, 93
3, 56583, Note_on_c, 1, 71, 93
3, 56638, Note_on_c, 1, 71, 0
3, 56638, Note_on_c, 1, 83, 0
3, 56643, Note_on_c, 1, 71, 88
3, 56643, Note_on_c, 1, 83, 88
3, 56763, Note_on_c, 1, 83, 0
3, 56763, Note_on_c, 1, 71, 0
3, 58563, Control_c, 1, 1, 30
3, 58563, Control_c, 1, 11, 40
3, 58563, Note_on_c, 1, 79, 103
3, 58582, Control_c, 1, 11, 41
3, 58601, Control_c, 1, 11, 42
3, 58620, Control_c, 1, 11, 43
3, 58639, Control_c, 1, 11, 44
3, 58659, Control_c, 1, 11, 46
3, 58678, Control_c, 1, 11, 47
3, 58697, Control_c, 1, 11, 48
3, 58716, Control_c, 1, 11, 49
3, 58733, Note_on_c, 1, 79, 0
3, 58735, Control_c, 1, 11, 50
3, 58743, Note_on_c, 1, 74, 103
3, 58755, Control_c, 1, 11, 52
3, 58793, Note_on_c, 1, 74, 0
3, 58803, Note_on_c, 1, 74, 103
3, 58923, Note_on_c, 1, 74, 0
3, 59043, Note_on_c, 1, 79, 103
3, 59213, Note_on_c, 1, 79, 0
3, 59223, Note_on_c, 1, 74, 103
3, 59273, Note_on_c, 1, 74, 0
3, 59283, Note_on_c, 1, 74, 103
3, 59403, Note_on_c, 1, 74, 0
3, 59523, Note_on_c, 1, 81, 103
3, 59643, Note_on_c, 1, 81, 0
3, 59643, Note_on_c, 1, 84, 108
3, 59763, Note_on_c, 1, 84, 0
3, 59763, Note_on_c, 1, 83, 114
3, 59883, Note_on_c, 1, 83, 0
3, 59883, Note_on_c, 1, 81, 108
3, 60003, Note_on_c, 1, 81, 0
3, 60003, Note_on_c, 1, 79, 103
3, 60123, Note_on_c, 1, 79, 0
3, 60123, Note_on_c, 1, 83, 98
3, 60243, Note_on_c, 1, 83, 0
3, 60243, Note_on_c, 1, 86, 93
3, 60483, Note_on_c, 1, 86, 0
3, 60483, Note_on_c, 1, 81, 93
3, 60603, Note_on_c, 1, 81, 0
3, 60603, Note_on_c, 1, 84, 98
3, 60723, Note_on_c, 1, 84, 0
3, 60723, Note_on_c, 1, 83, 103
3, 60843, Note_on_c, 1, 83, 0
3, 60843, Note_on_c, 1, 81, 108
3, 60963, Note_on_c, 1, 81, 0
3, 60963, Note_on_c, 1, 79, 103
3, 61083, Note_on_c, 1, 79, 0
3, 61563, Note_on_c, 1, 81, 108
3, 61563, Note_on_c, 1, 77, 108
3, 61683, Note_on_c, 1, 77, 0
3, 61683, Note_on_c, 1, 81, 0
3, 61683, Note_on_c, 1, 76, 103
3, 61683, Note_on_c, 1, 79, 103
3, 61803, Note_on_c, 1, 79, 0
3, 61803, Note_on_c, 1, 76, 0
3, 61803, Note_on_c, 1, 74, 98
3, 61803, Note_on_c, 1, 77, 98
3, 61923, Note_on_c, 1, 77, 0
3, 61923, Note_on_c, 1, 74, 0
3, 61923, Note_on_c, 1, 76, 93
3, 61923, Note_on_c, 1, 72, 93
3, 61983, Note_on_c, 1, 72, 0
3, 61983, Note_on_c, 1, 76, 0
3, 62523, Note_on_c, 1, 79, 108
3, 62643, Note_on_c, 1, 79, 0
3, 62643, Note_on_c, 1, 81, 103
3, 62763, Note_on_c, 1, 81, 0
3, 62763, Note_on_c, 1, 83, 98
3, 62883, Note_on_c, 1, 83, 0
3, 62883, Note_on_c, 1, 84, 93
3, 62943, Note_on_c, 1, 84, 0
3, 64443, Note_on_c, 1, 83, 108
3, 64563, Note_on_c, 1, 83, 0
3, 64563, Note_on_c, 1, 81, 103
3, 64683, Note_on_c, 1, 81, 0
3, 64683, Note_on_c, 1, 80, 98
3, 64803, Note_on_c, 1, 80, 0
3, 64803, Note_on_c, 1, 81, 93
3, 64863, Note_on_c, 1, 81, 0
3, 65403, Note_on_c, 1, 81, 108
3, 65523, Note_on_c, 1, 81, 0
3, 65523, Note_on_c, 1, 79, 101
3, 65643, Note_on_c, 1, 79, 0
3, 65643, Note_on_c, 1, 78, 93
3, 65763, Note_on_c, 1, 78, 0
3, 66843, Note_on_c, 1, 78, 108
3, 66843, Note_on_c, 1, 81, 108
3, 66903, Note_on_c, 1, 81, 0
3, 66903, Note_on_c, 1, 78, 0
3, 66963, Note_on_c, 1, 81, 103
3, 66963, Note_on_c, 1, 78, 103
3, 67083, Note_on_c, 1, 78, 0
3, 67083, Note_on_c, 1, 81, 0
3, 67083, Note_on_c, 1, 76, 98
3, 67083, Note_on_c, 1, 79, 98
3, 67203, Note_on_c, 1, 79, 0
3, 67203, Note_on_c, 1, 76, 0
3, 67203, Note_on_c, 1, 75, 93
3, 67203, Note_on_c, 1, 78, 93
3, 67313, Note_on_c, 1, 78, 0
3, 67313, Note_on_c, 1, 75, 0
3, 67323, Note_on_c, 1, 81, 108
3, 67443, Note_on_c, 1, 81, 0
3, 67443, Note_on_c, 1, 79, 101
3, 67563, Note_on_c, 1, 79, 0
3, 67563, Note_on_c, 1, 78, 93
3, 67683, Note_on_c, 1, 78, 0
3, 68763, Note_on_c, 1, 79, 108
3, 68883, Note_on_c, 1, 79, 0
3, 68883, Note_on_c, 1, 78, 101
3, 69003, Note_on_c, 1, 78, 0
3, 69003, Note_on_c, 1, 76, 93
3, 69123, Note_on_c, 1, 76, 0
3, 69243, Note_on_c, 1, 80, 115
3, 69363, Note_on_c, 1, 80, 0
3, 69363, Note_on_c, 1, 78, 104
3, 69483, Note_on_c, 1, 78, 0
3, 69483, Note_on_c, 1, 76, 93
3, 69603, Note_on_c, 1, 76, 0
3, 69723, Control_c, 1, 11, 47
3, 69723, Note_on_c, 1, 81, 115
3, 69759, Control_c, 1, 11, 48
3, 69795, Control_c, 1, 11, 49
3, 69831, Control_c, 1, 11, 50
3, 69843, Note_on_c, 1, 81, 0
3, 69843, Note_on_c, 1, 80, 104
3, 69867, Control_c, 1, 11, 51
3, 69903, Control_c, 1, 11, 52
3, 69939, Control_c, 1, 11, 53
3, 69963, Note_on_c, 1, 80, 0
3, 69963, Note_on_c, 1, 78, 93
3, 69975, Control_c, 1, 11, 54
3, 70011, Control_c, 1, 11, 55
3, 70047, Control_c, 1, 11, 56
3, 70083, Note_on_c, 1, 78, 0
3, 70083, Control_c, 1, 11, 57
3, 70119, Control_c, 1, 11, 58
3, 70155, Control_c, 1, 11, 59
3, 70191, Control_c, 1, 11, 60
3, 70203, Note_on_c, 1, 81, 115
3, 70227, Control_c, 1, 11, 61
3, 70263, Control_c, 1, 11, 62
3, 70299, Control_c, 1, 11, 62
3, 70323, Note_on_c, 1, 81, 0
3, 70323, Note_on_c, 1, 80, 108
3, 70335, Control_c, 1, 11, 63
3, 70371, Control_c, 1, 11, 63
3, 70407, Control_c, 1, 11, 64
3, 70443, Note_on_c, 1, 80, 0
3, 70443, Control_c, 1, 11, 65
3, 70443, Note_on_c, 1, 78, 101
3, 70563, Note_on_c, 1, 78, 0
3, 70563, Control_c, 1, 11, 47
3, 70563, Note_on_c, 1, 80, 78
3, 70683, Note_on_c, 1, 80, 0
3, 76803, Control_c, 1, 1, 0
3, 76803, Control_c, 1, 11, 77
3, 76803, Note_on_c, 1, 76, 93
3, 76923, Note_on_c, 1, 76, 0
3, 77283, Note_on_c, 1, 85, 93
3, 77283, Note_on_c, 1, 81, 93
3, 77403, Note_on_c, 1, 81, 0
3, 77403, Note_on_c, 1, 85, 0
3, 77763, Note_on_c, 1, 78, 93
3, 77763, Note_on_c, 1, 81, 93
3, 77883, Note_on_c, 1, 81, 0
3, 77883, Note_on_c, 1, 78, 0
3, 78123, Note_on_c, 1, 81, 93
3, 78123, Note_on_c, 1, 78, 93
3, 78243, Note_on_c, 1, 78, 0
3, 78243, Note_on_c, 1, 81, 0
3, 78243, Note_on_c, 1, 78, 93
3, 78243, Note_on_c, 1, 75, 93
3, 78363, Note_on_c, 1, 75, 0
3, 78363, Note_on_c, 1, 78, 0
3, 78363, Note_on_c, 1, 78, 93
3, 78363, Note_on_c, 1, 81, 93
3, 78483, Note_on_c, 1, 81, 0
3, 78483, Note_on_c, 1, 78, 0
3, 78483, Note_on_c, 1, 78, 93
3, 78483, Note_on_c, 1, 81, 93
3, 78603, Note_on_c, 1, 81, 0
3, 78603, Note_on_c, 1, 78, 0
3, 78603, Note_on_c, 1, 81, 93
3, 78603, Note_on_c, 1, 78, 93
3, 78723, Note_on_c, 1, 78, 0
3, 78723, Note_on_c, 1, 81, 0
3, 78723, Note_on_c, 1, 76, 93
3, 78723, Note_on_c, 1, 80, 93
3, 78843, Note_on_c, 1, 80, 0
3, 78843, Note_on_c, 1, 76, 0
3, 78843, Note_on_c, 1, 76, 93
3, 78843, Note_on_c, 1, 80, 93
3, 78963, Note_on_c, 1, 80, 0
3, 78963, Note_on_c, 1, 76, 0
3, 79203, Note_on_c, 1, 81, 93
3, 79203, Note_on_c, 1, 85, 93
3, 79323, Note_on_c, 1, 85, 0
3, 79323, Note_on_c, 1, 81, 0
3, 79323, Note_on_c, 1, 81, 93
3, 79323, Note_on_c, 1, 85, 93
3, 79443, Note_on_c, 1, 85, 0
3, 79443, Note_on_c, 1, 81, 0
3, 79683, Note_on_c, 1, 81, 93
3, 79683, Note_on_c, 1, 78, 93
3, 79803, Note_on_c, 1, 78, 0
3, 79803, Note_on_c, 1, 81, 0
3, 79803, Note_on_c, 1, 81, 93
3, 79803, Note_on_c, 1, 78, 93
3, 79923, Note_on_c, 1, 78, 0
3, 79923, Note_on_c, 1, 81, 0
3, 80043, Note_on_c, 1, 80, 93
3, 80043, Note_on_c, 1, 76, 93
3, 80163, Note_on_c, 1, 76, 0
3, 80163, Note_on_c, 1, 80, 0
3, 80163, Note_on_c, 1, 81, 93
3, 80163, Note_on_c, 1, 78, 93
3, 80283, Note_on_c, 1, 78, 0
3, 80283, Note_on_c, 1, 81, 0
3, 80283, Note_on_c, 1, 78, 93
3, 80283, Note_on_c, 1, 81, 93
3, 80403, Note_on_c, 1, 81, 0
3, 80403, Note_on_c, 1, 78, 0
3, 80403, Note_on_c, 1, 78, 93
3, 80403, Note_on_c, 1, 81, 93
3, 80523, Note_on_c, 1, 81, 0
3, 80523, Note_on_c, 1, 78, 0
3, 80523, Note_on_c, 1, 81, 93
3, 80523, Note_on_c, 1, 78, 93
3, 80643, Note_on_c, 1, 78, 0
3, 80643, Note_on_c, 1, 81, 0
3, 80643, Note_on_c, 1, 76, 93
3, 80643, Note_on_c, 1, 80, 93
3, 80763, Note_on_c, 1, 80, 0
3, 80763, Note_on_c, 1, 76, 0
3, 80883, Note_on_c, 1, 80, 93
3, 80883, Note_on_c, 1, 76, 93
3, 81003, Note_on_c, 1, 76, 0
3, 81003, Note_on_c, 1, 80, 0
3, 81123, Note_on_c, 1, 76, 93
3, 81123, Note_on_c, 1, 80, 93
3, 81243, Note_on_c, 1, 80, 0
3, 81243, Note_on_c, 1, 76, 0
3, 81363, Note_on_c, 1, 76, 93
3, 81363, Note_on_c, 1, 80, 93
3, 81483, Note_on_c, 1, 80, 0
3, 81483, Note_on_c, 1, 76, 0
3, 81603, Control_c, 1, 11, 89
3, 81603, Note_on_c, 1, 78, 93
3, 81603, Note_on_c, 1, 81, 93
3, 81620, Control_c, 1, 11, 87
3, 81638, Control_c, 1, 11, 86
3, 81656, Control_c, 1, 11, 84
3, 81674, Control_c, 1, 11, 82
3, 81692, Control_c, 1, 11, 80
3, 81710, Control_c, 1, 11, 78
3, 82563, Note_on_c, 1, 81, 0
3, 82563, Note_on_c, 1, 78, 0
3, 82563, Note_on_c, 1, 76, 93
3, 82563, Note_on_c, 1, 80, 93
3, 82683, Note_on_c, 1, 80, 0
3, 82683, Note_on_c, 1, 76, 0
3, 82803, Note_on_c, 1, 76, 93
3, 82803, Note_on_c, 1, 80, 93
3, 82923, Note_on_c, 1, 80, 0
3, 82923, Note_on_c, 1, 76, 0
3, 83043, Note_on_c, 1, 80, 93
3, 83043, Note_on_c, 1, 76, 93
3, 83163, Note_on_c, 1, 76, 0
3, 83163, Note_on_c, 1, 80, 0
3, 83283, Note_on_c, 1, 80, 93
3, 83283, Note_on_c, 1, 76, 93
3, 83403, Note_on_c, 1, 76, 0
3, 83403, Note_on_c, 1, 80, 0
3, 83523, Control_c, 1, 11, 89
3, 83523, Note_on_c, 1, 81, 93
3, 83523, Note_on_c, 1, 78, 93
3, 83540, Control_c, 1, 11, 87
3, 83558, Control_c, 1, 11, 86
3, 83576, Control_c, 1, 11, 84
3, 83594, Control_c, 1, 11, 82
3, 83612, Control_c, 1, 11, 80
3, 83630, Control_c, 1, 11, 78
3, 84483, Note_on_c, 1, 78, 0
3, 84483, Note_on_c, 1, 81, 0
3, 84483, Note_on_c, 1, 80, 93
3, 84483, Note_on_c, 1, 76, 93
3, 85443, Note_on_c, 1, 76, 0
3, 85443, Note_on_c, 1, 80, 0
3, 85443, Note_on_c, 1, 83, 93
3, 85443, Note_on_c, 1, 74, 93
3, 86163, Note_on_c, 1, 74, 0
3, 86163, Note_on_c, 1, 83, 0
3, 86163, Note_on_c, 1, 76, 93
3, 86193, Note_on_c, 1, 76, 0
3, 86223, Note_on_c, 1, 74, 93
3, 86253, Note_on_c, 1, 74, 0
3, 86283, Note_on_c, 1, 71, 93
3, 86313, Note_on_c, 1, 71, 0
3, 86343, Note_on_c, 1, 69, 93
3, 86373, Note_on_c, 1, 69, 0
3, 86403, Note_on_c, 1, 68, 74
3, 86523, Note_on_c, 1, 68, 0
3, 91323, Control_c, 1, 11, 42
3, 91323, Note_on_c, 1, 79, 93
3, 91347, Control_c, 1, 11, 43
3, 91371, Control_c, 1, 11, 44
3, 91395, Control_c, 1, 11, 45
3, 91419, Control_c, 1, 11, 46
3, 91443, Control_c, 1, 11, 47
3, 91467, Control_c, 1, 11, 48
3, 91491, Control_c, 1, 11, 49
3, 91515, Control_c, 1, 11, 50
3, 91539, Control_c, 1, 11, 51
3, 91563, Note_on_c, 1, 79, 0
3, 91563, Control_c, 1, 11, 52
3, 91563, Note_on_c, 1, 81, 93
3, 91683, Note_on_c, 1, 81, 0
3, 91683, Note_on_c, 1, 79, 93
3, 93243, Note_on_c, 1, 79, 0
3, 93243, Control_c, 1, 11, 47
3, 93243, Note_on_c, 1, 79, 93
3, 93243, Note_on_c, 1, 67, 93
3, 93288, Control_c, 1, 11, 48
3, 93333, Control_c, 1, 11, 49
3, 93378, Control_c, 1, 11, 50
3, 93423, Control_c, 1, 11, 51
3, 93468, Control_c, 1, 11, 52
3, 93483, Note_on_c, 1, 67, 0
3, 93483, Note_on_c, 1, 79, 0
3, 93483, Note_on_c, 1, 81, 93
3, 93483, Note_on_c, 1, 69, 93
3, 93513, Control_c, 1, 11, 53
3, 93558, Control_c, 1, 11, 54
3, 93603, Note_on_c, 1, 69, 0
3, 93603, Note_on_c, 1, 81, 0
3, 93603, Control_c, 1, 11, 55
3, 93603, Note_on_c, 1, 79, 93
3, 93603, Note_on_c, 1, 67, 93
3, 93648, Control_c, 1, 11, 56
3, 93693, Control_c, 1, 11, 57
3, 93723, Note_on_c, 1, 67, 0
3, 93723, Note_on_c, 1, 79, 0
3, 93723, Note_on_c, 1, 71, 93
3, 93723, Note_on_c, 1, 74, 93
3, 93738, Control_c, 1, 11, 58
3, 93783, Control_c, 1, 11, 59
3, 93828, Control_c, 1, 11, 60
3, 93873, Control_c, 1, 11, 61
3, 93918, Control_c, 1, 11, 62
3, 93963, Note_on_c, 1, 74, 0
3, 93963, Note_on_c, 1, 71, 0
3, 93963, Control_c, 1, 11, 62
3, 93963, Note_on_c, 1, 74, 93
3, 93963, Note_on_c, 1, 71, 93
3, 94008, Control_c, 1, 11, 63
3, 94053, Control_c, 1, 11, 63
3, 94083, Note_on_c, 1, 71, 0
3, 94083, Note_on_c, 1, 74, 0
3, 94083, Note_on_c, 1, 72, 93
3, 94083, Note_on_c, 1, 76, 93
3, 94098, Control_c, 1, 11, 64
3, 94143, Control_c, 1, 11, 65
3, 94188, Control_c, 1, 11, 65
3, 94203, Note_on_c, 1, 76, 0
3, 94203, Note_on_c, 1, 72, 0
3, 94203, Note_on_c, 1, 71, 93
3, 94203, Note_on_c, 1, 74, 93
3, 94233, Control_c, 1, 11, 66
3, 94278, Control_c, 1, 11, 66
3, 94323, Note_on_c, 1, 74, 0
3, 94323, Note_on_c, 1, 71, 0
3, 94323, Control_c, 1, 11, 67
3, 94368, Control_c, 1, 11, 68
3, 94413, Control_c, 1, 11, 68
3, 94443, Note_on_c, 1, 71, 93
3, 94443, Note_on_c, 1, 74, 93
3, 94458, Control_c, 1, 11, 69
3, 94503, Control_c, 1, 11, 70
3, 94548, Control_c, 1, 11, 70
3, 94563, Note_on_c, 1, 74, 0
3, 94563, Note_on_c, 1, 71, 0
3, 94563, Note_on_c, 1, 76, 93
3, 94563, Note_on_c, 1, 72, 93
3, 94593, Control_c, 1, 11, 71
3, 94638, Control_c, 1, 11, 71
3, 94683, Note_on_c, 1, 72, 0
3, 94683, Note_on_c, 1, 76, 0
3, 94683, Control_c, 1, 11, 72
3, 94683, Note_on_c, 1, 71, 93
3, 94683, Note_on_c, 1, 74, 93
3, 94728, Control_c, 1, 11, 73
3, 94773, Control_c, 1, 11, 73
3, 94803, Note_on_c, 1, 74, 0
3, 94803, Note_on_c, 1, 71, 0
3, 94818, Control_c, 1, 11, 74
3, 94863, Control_c, 1, 11, 74
3, 94908, Control_c, 1, 11, 75
3, 94923, Note_on_c, 1, 74, 93
3, 94923, Note_on_c, 1, 71, 93
3, 94953, Control_c, 1, 11, 76
3, 94998, Control_c, 1, 11, 76
3, 95043, Note_on_c, 1, 71, 0
3, 95043, Note_on_c, 1, 74, 0
3, 95043, Control_c, 1, 11, 77
3, 95043, Note_on_c, 1, 72, 93
3, 95043, Note_on_c, 1, 76, 93
3, 95163, Note_on_c, 1, 76, 0
3, 95163, Note_on_c, 1, 72, 0
3, 95163, Note_on_c, 1, 74, 93
3, 95163, Note_on_c, 1, 71, 93
3, 95223, Note_on_c, 1, 71, 0
3, 95223, Note_on_c, 1, 74, 0
3, 95223, Note_on_c, 1, 74, 93
3, 95223, Note_on_c, 1, 71, 93
3, 95283, Note_on_c, 1, 71, 0
3, 95283, Note_on_c, 1, 74, 0
3, 95283, Note_on_c, 1, 72, 93
3, 95283, Note_on_c, 1, 76, 93
3, 95403, Note_on_c, 1, 76, 0
3, 95403, Note_on_c, 1, 72, 0
3, 95403, Note_on_c, 1, 74, 93
3, 95403, Note_on_c, 1, 71, 93
3, 95463, Note_on_c, 1, 71, 0
3, 95463, Note_on_c, 1, 74, 0
3, 95463, Note_on_c, 1, 74, 93
3, 95463, Note_on_c, 1, 71, 93
3, 95523, Note_on_c, 1, 71, 0
3, 95523, Note_on_c, 1, 74, 0
3, 95523, Note_on_c, 1, 72, 93
3, 95523, Note_on_c, 1, 76, 93
3, 95643, Note_on_c, 1, 76, 0
3, 95643, Note_on_c, 1, 72, 0
3, 95643, Note_on_c, 1, 74, 93
3, 95643, Note_on_c, 1, 71, 93
3, 95703, Note_on_c, 1, 71, 0
3, 95703, Note_on_c, 1, 74, 0
3, 95703, Note_on_c, 1, 71, 93
3, 95703, Note_on_c, 1, 74, 93
3, 95763, Note_on_c, 1, 74, 0
3, 95763, Note_on_c, 1, 71, 0
3, 95763, Note_on_c, 1, 76, 93
3, 95763, Note_on_c, 1, 72, 93
3, 95883, Note_on_c, 1, 72, 0
3, 95883, Note_on_c, 1, 76, 0
3, 95883, Note_on_c, 1, 74, 93
3, 95883, Note_on_c, 1, 71, 93
3, 95943, Note_on_c, 1, 71, 0
3, 95943, Note_on_c, 1, 74, 0
3, 95943, Note_on_c, 1, 74, 93
3, 95943, Note_on_c, 1, 71, 93
3, 96003, Note_on_c, 1, 71, 0
3, 96003, Note_on_c, 1, 74, 0
3, 96003, Control_c, 1, 11, 86
3, 96003, Note_on_c, 1, 76, 93
3, 96003, Note_on_c, 1, 72, 93
3, 96483, Note_on_c, 1, 72, 0
3, 96483, Note_on_c, 1, 76, 0
3, 96483, Note_on_c, 1, 84, 93
3, 96543, Note_on_c, 1, 84, 0
3, 96543, Note_on_c, 1, 83, 93
3, 96603, Note_on_c, 1, 83, 0
3, 96603, Note_on_c, 1, 81, 93
3, 96663, Note_on_c, 1, 81, 0
3, 96663, Note_on_c, 1, 79, 93
3, 96723, Note_on_c, 1, 79, 0
3, 96723, Note_on_c, 1, 77, 93
3, 96783, Note_on_c, 1, 77, 0
3, 96783, Note_on_c, 1, 76, 93
3, 96843, Note_on_c, 1, 76, 0
3, 96843, Note_on_c, 1, 74, 93
3, 96903, Note_on_c, 1, 74, 0
3, 96903, Note_on_c, 1, 72, 93
3, 96963, Note_on_c, 1, 72, 0
3, 96963, Note_on_c, 1, 81, 93
3, 97443, Note_on_c, 1, 81, 0
3, 97443, Note_on_c, 1, 81, 93
3, 97503, Note_on_c, 1, 81, 0
3, 97503, Note_on_c, 1, 79, 93
3, 97563, Note_on_c, 1, 79, 0
3, 97563, Note_on_c, 1, 77, 93
3, 97623, Note_on_c, 1, 77, 0
3, 97623, Note_on_c, 1, 76, 93
3, 97683, Note_on_c, 1, 76, 0
3, 97683, Note_on_c, 1, 74, 93
3, 97743, Note_on_c, 1, 74, 0
3, 97743, Note_on_c, 1, 72, 93
3, 97803, Note_on_c, 1, 72, 0
3, 97803, Note_on_c, 1, 71, 93
3, 97863, Note_on_c, 1, 71, 0
3, 97863, Note_on_c, 1, 69, 93
3, 97923, Note_on_c, 1, 69, 0
3, 97923, Note_on_c, 1, 72, 93
3, 97923, Note_on_c, 1, 77, 93
3, 98883, Note_on_c, 1, 77, 0
3, 98883, Note_on_c, 1, 72, 0
3, 98883, Note_on_c, 1, 77, 93
3, 98883, Note_on_c, 1, 72, 93
3, 99243, Note_on_c, 1, 72, 0
3, 99243, Note_on_c, 1, 77, 0
3, 99243, Control_c, 1, 11, 98
3, 99243, Note_on_c, 1, 73, 93
3, 99243, Note_on_c, 1, 76, 93
3, 99260, Control_c, 1, 11, 97
3, 99278, Control_c, 1, 11, 95
3, 99296, Control_c, 1, 11, 93
3, 99314, Control_c, 1, 11, 91
3, 99332, Control_c, 1, 11, 89
3, 99350, Control_c, 1, 11, 87
3, 99363, Note_on_c, 1, 76, 0
3, 99363, Note_on_c, 1, 73, 0
3, 99363, Note_on_c, 1, 77, 93
3, 99363, Note_on_c, 1, 72, 93
3, 99723, Note_on_c, 1, 72, 0
3, 99723, Note_on_c, 1, 77, 0
3, 99723, Control_c, 1, 11, 98
3, 99723, Note_on_c, 1, 76, 93
3, 99723, Note_on_c, 1, 73, 93
3, 99740, Control_c, 1, 11, 97
3, 99758, Control_c, 1, 11, 95
3, 99776, Control_c, 1, 11, 93
3, 99794, Control_c, 1, 11, 91
3, 99812, Control_c, 1, 11, 89
3, 99830, Control_c, 1, 11, 87
3, 99843, Note_on_c, 1, 73, 0
3, 99843, Note_on_c, 1, 76, 0
3, 99843, Note_on_c, 1, 77, 93
3, 99963, Note_on_c, 1, 77, 0
3, 99963, Control_c, 1, 11, 98
3, 99963, Note_on_c, 1, 79, 93
3, 99963, Note_on_c, 1, 76, 93
3, 99980, Control_c, 1, 11, 97
3, 99998, Control_c, 1, 11, 95
3, 100016, Control_c, 1, 11, 93
3, 100034, Control_c, 1, 11, 91
3, 100052, Control_c, 1, 11, 89
3, 100070, Control_c, 1, 11, 87
3, 100083, Note_on_c, 1, 76, 0
3, 100083, Note_on_c, 1, 79, 0
3, 100083, Note_on_c, 1, 77, 93
3, 100203, Note_on_c, 1, 77, 0
3, 100203, Control_c, 1, 11, 98
3, 100203, Note_on_c, 1, 76, 93
3, 100203, Note_on_c, 1, 79, 93
3, 100220, Control_c, 1, 11, 97
3, 100238, Control_c, 1, 11, 95
3, 100256, Control_c, 1, 11, 93
3, 100274, Control_c, 1, 11, 91
3, 100292, Control_c, 1, 11, 89
3, 100310, Control_c, 1, 11, 87
3, 100323, Note_on_c, 1, 79, 0
3, 100323, Note_on_c, 1, 76, 0
3, 100323, Note_on_c, 1, 77, 93
3, 100443, Note_on_c, 1, 77, 0
3, 100443, Control_c, 1, 11, 98
3, 100443, Note_on_c, 1, 76, 93
3, 100443, Note_on_c, 1, 79, 93
3, 100460, Control_c, 1, 11, 97
3, 100478, Control_c, 1, 11, 95
3, 100496, Control_c, 1, 11, 93
3, 100514, Control_c, 1, 11, 91
3, 100532, Control_c, 1, 11, 89
3, 100550, Control_c, 1, 11, 87
3, 100563, Note_on_c, 1, 79, 0
3, 100563, Note_on_c, 1, 76, 0
3, 100563, Note_on_c, 1, 77, 93
3, 100683, Note_on_c, 1, 77, 0
3, 100683, Control_c, 1, 11, 98
3, 100683, Note_on_c, 1, 81, 93
3, 100683, Note_on_c, 1, 72, 93
3, 100700, Control_c, 1, 11, 97
3, 100718, Control_c, 1, 11, 95
3, 100736, Control_c, 1, 11, 93
3, 100754, Control_c, 1, 11, 91
3, 100772, Control_c, 1, 11, 89
3, 100790, Control_c, 1, 11, 87
3, 100803, Note_on_c, 1, 72, 0
3, 100803, Note_on_c, 1, 81, 0
3, 100803, Note_on_c, 1, 71, 93
3, 100803, Note_on_c, 1, 74, 93
3, 100923, Note_on_c, 1, 74, 0
3, 100923, Note_on_c, 1, 71, 0
3, 100923, Control_c, 1, 11, 98
3, 100923, Note_on_c, 1, 72, 93
3, 100923, Note_on_c, 1, 79, 93
3, 100940, Control_c, 1, 11, 97
3, 100958, Control_c, 1, 11, 95
3, 100976, Control_c, 1, 11, 93
3, 100994, Control_c, 1, 11, 91
3, 101012, Control_c, 1, 11, 89
3, 101030, Control_c, 1, 11, 87
3, 101043, Note_on_c, 1, 79, 0
3, 101043, Note_on_c, 1, 72, 0
3, 101043, Note_on_c, 1, 72, 93
3, 101043, Note_on_c, 1, 69, 93
3, 101163, Note_on_c, 1, 69, 0
3, 101163, Note_on_c, 1, 72, 0
3, 101163, Control_c, 1, 11, 98
3, 101163, Note_on_c, 1, 72, 93
3, 101163, Note_on_c, 1, 81, 93
3, 101180, Control_c, 1, 11, 97
3, 101198, Control_c, 1, 11, 95
3, 101216, Control_c, 1, 11, 93
3, 101234, Control_c, 1, 11, 91
3, 101252, Control_c, 1, 11, 89
3, 101270, Control_c, 1, 11, 87
3, 101283, Note_on_c, 1, 81, 0
3, 101283, Note_on_c, 1, 72, 0
3, 101283, Note_on_c, 1, 72, 93
3, 101283, Note_on_c, 1, 76, 93
3, 101403, Note_on_c, 1, 76, 0
3, 101403, Note_on_c, 1, 72, 0
3, 101403, Control_c, 1, 11, 98
3, 101403, Note_on_c, 1, 76, 93
3, 101403, Note_on_c, 1, 79, 93
3, 101420, Control_c, 1, 11, 97
3, 101438, Control_c, 1, 11, 95
3, 101456, Control_c, 1, 11, 93
3, 101474, Control_c, 1, 11, 91
3, 101492, Control_c, 1, 11, 89
3, 101510, Control_c, 1, 11, 87
3, 101523, Note_on_c, 1, 79, 0
3, 101523, Note_on_c, 1, 76, 0
3, 101523, Note_on_c, 1, 71, 93
3, 101523, Note_on_c, 1, 74, 93
3, 101643, Note_on_c, 1, 74, 0
3, 101643, Note_on_c, 1, 71, 0
3, 101643, Control_c, 1, 11, 98
3, 101643, Note_on_c, 1, 74, 93
3, 101643, Note_on_c, 1, 77, 93
3, 101660, Control_c, 1, 11, 97
3, 101678, Control_c, 1, 11, 95
3, 101696, Control_c, 1, 11, 93
3, 101714, Control_c, 1, 11, 91
3, 101732, Control_c, 1, 11, 89
3, 101750, Control_c, 1, 11, 87
3, 101763, Note_on_c, 1, 77, 0
3, 101763, Note_on_c, 1, 74, 0
3, 101763, Control_c, 1, 11, 77
3, 101763, Note_on_c, 1, 72, 93
3, 101763, Note_on_c, 1, 76, 93
3, 101781, Control_c, 1, 11, 75
3, 101799, Control_c, 1, 11, 73
3, 101817, Control_c, 1, 11, 71
3, 101835, Control_c, 1, 11, 70
3, 101853, Control_c, 1, 11, 68
3, 101871, Control_c, 1, 11, 66
3, 101883, Note_on_c, 1, 76, 0
3, 101883, Note_on_c, 1, 72, 0
3, 101883, Note_on_c, 1, 81, 93
3, 101883, Note_on_c, 1, 77, 93
3, 102003, Note_on_c, 1, 77, 0
3, 102003, Note_on_c, 1, 81, 0
3, 102003, Note_on_c, 1, 76, 93
3, 102003, Note_on_c, 1, 79, 93
3, 102123, Note_on_c, 1, 79, 0
3, 102123, Note_on_c, 1, 76, 0
3, 102363, Control_c, 1, 11, 57
3, 102363, Note_on_c, 1, 81, 93
3, 102363, Note_on_c, 1, 77, 93
3, 102483, Note_on_c, 1, 77, 0
3, 102483, Note_on_c, 1, 81, 0
3, 102483, Note_on_c, 1, 76, 93
3, 102483, Note_on_c, 1, 79, 93
3, 102603, Note_on_c, 1, 79, 0
3, 102603, Note_on_c, 1, 76, 0
3, 102843, Control_c, 1, 11, 57
3, 102843, Note_on_c, 1, 81, 93
3, 102843, Note_on_c, 1, 77, 93
3, 102963, Note_on_c, 1, 77, 0
3, 102963, Note_on_c, 1, 81, 0
3, 102963, Note_on_c, 1, 79, 93
3, 102963, Note_on_c, 1, 76, 93
3, 103083, Note_on_c, 1, 76, 0
3, 103083, Note_on_c, 1, 79, 0
3, 103323, Control_c, 1, 11, 57
3, 103323, Note_on_c, 1, 81, 93
3, 103323, Note_on_c, 1, 77, 93
3, 103443, Note_on_c, 1, 77, 0
3, 103443, Note_on_c, 1, 81, 0
3, 103443, Note_on_c, 1, 79, 93
3, 103443, Note_on_c, 1, 76, 93
3, 103563, Note_on_c, 1, 76, 0
3, 103563, Note_on_c, 1, 79, 0
3, 103563, Control_c, 1, 11, 77
3, 103563, Note_on_c, 1, 83, 93
3, 103563, Note_on_c, 1, 74, 93
3, 103683, Note_on_c, 1, 74, 0
3, 103683, Note_on_c, 1, 83, 0
3, 103683, Note_on_c, 1, 84, 93
3, 103683, Note_on_c, 1, 76, 93
3, 103803, Note_on_c, 1, 76, 0
3, 103803, Note_on_c, 1, 84, 0
3, 103803, Control_c, 1, 11, 77
3, 103803, Note_on_c, 1, 76, 93
3, 103803, Note_on_c, 1, 72, 93
3, 103853, Note_on_c, 1, 72, 0
3, 103853, Note_on_c, 1, 76, 0
3, 103863, Note_on_c, 1, 72, 93
3, 103863, Note_on_c, 1, 76, 93
3, 103913, Note_on_c, 1, 76, 0
3, 103913, Note_on_c, 1, 72, 0
3, 103923, Note_on_c, 1, 76, 93
3, 103923, Note_on_c, 1, 72, 93
3, 104043, Note_on_c, 1, 72, 0
3, 104043, Note_on_c, 1, 76, 0
3, 104163, Note_on_c, 1, 79, 93
3, 104163, Note_on_c, 1, 76, 93
3, 104283, Note_on_c, 1, 76, 0
3, 104283, Note_on_c, 1, 79, 0
3, 104283, Note_on_c, 1, 76, 93
3, 104283, Note_on_c, 1, 79, 93
3, 104333, Note_on_c, 1, 79, 0
3, 104333, Note_on_c, 1, 76, 0
3, 104343, Note_on_c, 1, 79, 93
3, 104343, Note_on_c, 1, 76, 93
3, 104393, Note_on_c, 1, 76, 0
3, 104393, Note_on_c, 1, 79, 0
3, 104403, Note_on_c, 1, 79, 93
3, 104403, Note_on_c, 1, 76, 93
3, 104523, Note_on_c, 1, 76, 0
3, 104523, Note_on_c, 1, 79, 0
3, 104643, Note_on_c, 1, 76, 93
3, 104643, Note_on_c, 1, 84, 93
3, 104763, Note_on_c, 1, 84, 0
3, 104763, Note_on_c, 1, 76, 0
3, 104763, Note_on_c, 1, 76, 93
3, 104763, Note_on_c, 1, 84, 93
3, 104813, Note_on_c, 1, 84, 0
3, 104813, Note_on_c, 1, 76, 0
3, 104823, Note_on_c, 1, 76, 93
3, 104823, Note_on_c, 1, 84, 93
3, 104873, Note_on_c, 1, 84, 0
3, 104873, Note_on_c, 1, 76, 0
3, 104883, Note_on_c, 1, 84, 93
3, 104883, Note_on_c, 1, 76, 93
3, 105003, Note_on_c, 1, 76, 0
3, 105003, Note_on_c, 1, 84, 0
3, 105003, Note_on_c, 1, 84, 93
3, 105003, Note_on_c, 1, 76, 93
3, 105053, Note_on_c, 1, 76, 0
3, 105053, Note_on_c, 1, 84, 0
3, 105063, Note_on_c, 1, 76, 93
3, 105063, Note_on_c, 1, 84, 93
3, 105113, Note_on_c, 1, 84, 0
3, 105113, Note_on_c, 1, 76, 0
3, 105123, Note_on_c, 1, 76, 93
3, 105123, Note_on_c, 1, 84, 93
3, 105243, Note_on_c, 1, 84, 0
3, 105243, Note_on_c, 1, 76, 0
3, 105243, Note_on_c, 1, 84, 93
3, 105243, Note_on_c, 1, 76, 93
3, 105293, Note_on_c, 1, 76, 0
3, 105293, Note_on_c, 1, 84, 0
3, 105303, Note_on_c, 1, 76, 93
3, 105303, Note_on_c, 1, 84, 93
3, 105353, Note_on_c, 1, 84, 0
3, 105353, Note_on_c, 1, 76, 0
3, 105363, Note_on_c, 1, 76, 93
3, 105363, Note_on_c, 1, 84, 93
3, 105483, Note_on_c, 1, 84, 0
3, 105483, Note_on_c, 1, 76, 0
3, 105483, Note_on_c, 1, 76, 93
3, 105483, Note_on_c, 1, 84, 93
3, 105533, Note_on_c, 1, 84, 0
3, 105533, Note_on_c, 1, 76, 0
3, 105543, Note_on_c, 1, 84, 93
3, 105543, Note_on_c, 1, 76, 93
3, 105593, Note_on_c, 1, 76, 0
3, 105593, Note_on_c, 1, 84, 0
3, 105603, Note_on_c, 1, 82, 93
3, 105603, Note_on_c, 1, 76, 93
3, 105723, Note_on_c, 1, 76, 0
3, 105723, Note_on_c, 1, 82, 0
3, 105723, Note_on_c, 1, 76, 93
3, 105723, Note_on_c, 1, 82, 93
3, 105773, Note_on_c, 1, 82, 0
3, 105773, Note_on_c, 1, 76, 0
3, 105783, Note_on_c, 1, 82, 93
3, 105783, Note_on_c, 1, 76, 93
3, 105833, Note_on_c, 1, 76, 0
3, 105833, Note_on_c, 1, 82, 0
3, 105843, Note_on_c, 1, 82, 93
3, 105843, Note_on_c, 1, 76, 93
3, 105963, Note_on_c, 1, 76, 0
3, 105963, Note_on_c, 1, 82, 0
3, 105963, Note_on_c, 1, 82, 93
3, 105963, Note_on_c, 1, 76, 93
3, 106013, Note_on_c, 1, 76, 0
3, 106013, Note_on_c, 1, 82, 0
3, 106023, Note_on_c, 1, 82, 93
3, 106023, Note_on_c, 1, 76, 93
3, 106073, Note_on_c, 1, 76, 0
3, 106073, Note_on_c, 1, 82, 0
3, 106083, Note_on_c, 1, 76, 93
3, 106083, Note_on_c, 1, 82, 93
3, 106203, Note_on_c, 1, 82, 0
3, 106203, Note_on_c, 1, 76, 0
3, 106203, Note_on_c, 1, 76, 93
3, 106203, Note_on_c, 1, 82, 93
3, 106253, Note_on_c, 1, 82, 0
3, 106253, Note_on_c, 1, 76, 0
3, 106263, Note_on_c, 1, 82, 93
3, 106263, Note_on_c, 1, 76, 93
3, 106313, Note_on_c, 1, 76, 0
3, 106313, Note_on_c, 1, 82, 0
3, 106323, Note_on_c, 1, 76, 93
3, 106323, Note_on_c, 1, 82, 93
3, 106443, Note_on_c, 1, 82, 0
3, 106443, Note_on_c, 1, 76, 0
3, 106443, Note_on_c, 1, 82, 93
3, 106443, Note_on_c, 1, 76, 93
3, 106493, Note_on_c, 1, 76, 0
3, 106493, Note_on_c, 1, 82, 0
3, 106503, Note_on_c, 1, 82, 93
3, 106503, Note_on_c, 1, 76, 93
3, 106553, Note_on_c, 1, 76, 0
3, 106553, Note_on_c, 1, 82, 0
3, 106563, Note_on_c, 1, 83, 93
3, 106563, Note_on_c, 1, 75, 93
3, 106683, Note_on_c, 1, 75, 0
3, 106683, Note_on_c, 1, 83, 0
3, 106683, Control_c, 1, 11, 62
3, 106683, Note_on_c, 1, 71, 93
3, 106803, Note_on_c, 1, 71, 0
3, 106803, Note_on_c, 1, 73, 93
3, 106923, Note_on_c, 1, 73, 0
3, 107163, Note_on_c, 1, 71, 93
3, 107283, Note_on_c, 1, 71, 0
3, 107283, Note_on_c, 1, 73, 93
3, 107403, Note_on_c, 1, 73, 0
3, 107643, Note_on_c, 1, 71, 93
3, 107763, Note_on_c, 1, 71, 0
3, 107763, Note_on_c, 1, 73, 93
3, 107883, Note_on_c, 1, 73, 0
3, 108123, Note_on_c, 1, 71, 93
3, 108243, Note_on_c, 1, 71, 0
3, 108243, Note_on_c, 1, 73, 93
3, 108353, Note_on_c, 1, 73, 0
3, 108363, Control_c, 1, 11, 77
3, 108363, Note_on_c, 1, 73, 93
3, 108363, Note_on_c, 1, 76, 93
3, 108483, Note_on_c, 1, 76, 0
3, 108483, Note_on_c, 1, 73, 0
3, 108483, Note_on_c, 1, 71, 93
3, 108483, Note_on_c, 1, 75, 93
3, 108603, Note_on_c, 1, 75, 0
3, 108603, Note_on_c, 1, 71, 0
3, 108603, Note_on_c, 1, 71, 93
3, 108603, Note_on_c, 1, 83, 93
3, 108653, Note_on_c, 1, 83, 0
3, 108653, Note_on_c, 1, 71, 0
3, 108663, Note_on_c, 1, 71, 93
3, 108663, Note_on_c, 1, 83, 93
3, 108713, Note_on_c, 1, 83, 0
3, 108713, Note_on_c, 1, 71, 0
3, 108723, Note_on_c, 1, 83, 93
3, 108723, Note_on_c, 1, 71, 93
3, 108833, Note_on_c, 1, 71, 0
3, 108833, Note_on_c, 1, 83, 0
3, 108843, Note_on_c, 1, 83, 93
3, 108843, Note_on_c, 1, 71, 93
3, 108893, Note_on_c, 1, 71, 0
3, 108893, Note_on_c, 1, 83, 0
3, 108903, Note_on_c, 1, 83, 93
3, 108903, Note_on_c, 1, 71, 93
3, 108953, Note_on_c, 1, 71, 0
3, 108953, Note_on_c, 1, 83, 0
3, 108963, Note_on_c, 1, 83, 93
3, 108963, Note_on_c, 1, 71, 93
3, 109073, Note_on_c, 1, 71, 0
3, 109073, Note_on_c, 1, 83, 0
3, 109083, Note_on_c, 1, 71, 93
3, 109083, Note_on_c, 1, 83, 93
3, 109133, Note_on_c, 1, 83, 0
3, 109133, Note_on_c, 1, 71, 0
3, 109143, Note_on_c, 1, 71, 93
3, 109143, Note_on_c, 1, 83, 93
3, 109193, Note_on_c, 1, 83, 0
3, 109193, Note_on_c, 1, 71, 0
3, 109203, Note_on_c, 1, 71, 93
3, 109203, Note_on_c, 1, 83, 93
3, 109313, Note_on_c, 1, 83, 0
3, 109313, Note_on_c, 1, 71, 0
3, 109323, Note_on_c, 1, 83, 93
3, 109323, Note_on_c, 1, 71, 93
3, 109373, Note_on_c, 1, 71, 0
3, 109373, Note_on_c, 1, 83, 0
3, 109383, Note_on_c, 1, 71, 93
3, 109383, Note_on_c, 1, 83, 93
3, 109433, Note_on_c, 1, 83, 0
3, 109433, Note_on_c, 1, 71, 0
3, 109443, Note_on_c, 1, 71, 93
3, 109443, Note_on_c, 1, 83, 93
3, 109553, Note_on_c, 1, 83, 0
3, 109553, Note_on_c, 1, 71, 0
3, 109563, Note_on_c, 1, 83, 93
3, 109563, Note_on_c, 1, 71, 93
3, 109613, Note_on_c, 1, 71, 0
3, 109613, Note_on_c, 1, 83, 0
3, 109623, Note_on_c, 1, 71, 93
3, 109623, Note_on_c, 1, 83, 93
3, 109673, Note_on_c, 1, 83, 0
3, 109673, Note_on_c, 1, 71, 0
3, 109683, Note_on_c, 1, 71, 93
3, 109683, Note_on_c, 1, 83, 93
3, 109793, Note_on_c, 1, 83, 0
3, 109793, Note_on_c, 1, 71, 0
3, 109803, Note_on_c, 1, 83, 93
3, 109803, Note_on_c, 1, 71, 93
3, 109853, Note_on_c, 1, 71, 0
3, 109853, Note_on_c, 1, 83, 0
3, 109863, Note_on_c, 1, 71, 93
3, 109863, Note_on_c, 1, 83, 93
3, 109913, Note_on_c, 1, 83, 0
3, 109913, Note_on_c, 1, 71, 0
3, 109923, Note_on_c, 1, 83, 93
3, 109923, Note_on_c, 1, 71, 93
3, 110033, Note_on_c, 1, 71, 0
3, 110033, Note_on_c, 1, 83, 0
3, 110043, Note_on_c, 1, 71, 93
3, 110043, Note_on_c, 1, 83, 93
3, 110093, Note_on_c, 1, 83, 0
3, 110093, Note_on_c, 1, 71, 0
3, 110103, Note_on_c, 1, 71, 93
3, 110103, Note_on_c, 1, 83, 93
3, 110153, Note_on_c, 1, 83, 0
3, 110153, Note_on_c, 1, 71, 0
3, 110163, Note_on_c, 1, 71, 93
3, 110163, Note_on_c, 1, 83, 93
3, 110273, Note_on_c, 1, 83, 0
3, 110273, Note_on_c, 1, 71, 0
3, 110283, Note_on_c, 1, 83, 93
3, 110283, Note_on_c, 1, 71, 93
3, 110333, Note_on_c, 1, 71, 0
3, 110333, Note_on_c, 1, 83, 0
3, 110343, Note_on_c, 1, 71, 93
3, 110343, Note_on_c, 1, 83, 93
3, 110393, Note_on_c, 1, 83, 0
3, 110393, Note_on_c, 1, 71, 0
3, 110403, Note_on_c, 1, 83, 93
3, 110403, Note_on_c, 1, 71, 93
3, 110513, Note_on_c, 1, 71, 0
3, 110513, Note_on_c, 1, 83, 0
3, 110523, Note_on_c, 1, 83, 93
3, 110523, Note_on_c, 1, 71, 93
3, 110573, Note_on_c, 1, 71, 0
3, 110573, Note_on_c, 1, 83, 0
3, 110583, Note_on_c, 1, 83, 93
3, 110583, Note_on_c, 1, 71, 93
3, 110633, Note_on_c, 1, 71, 0
3, 110633, Note_on_c, 1, 83, 0
3, 110643, Note_on_c, 1, 71, 93
3, 110643, Note_on_c, 1, 83, 93
3, 110753, Note_on_c, 1, 83, 0
3, 110753, Note_on_c, 1, 71, 0
3, 110763, Note_on_c, 1, 83, 93
3, 110763, Note_on_c, 1, 71, 93
3, 110813, Note_on_c, 1, 71, 0
3, 110813, Note_on_c, 1, 83, 0
3, 110823, Note_on_c, 1, 71, 93
3, 110823, Note_on_c, 1, 83, 93
3, 110873, Note_on_c, 1, 83, 0
3, 110873, Note_on_c, 1, 71, 0
3, 110883, Note_on_c, 1, 83, 93
3, 110883, Note_on_c, 1, 71, 93
3, 110993, Note_on_c, 1, 71, 0
3, 110993, Note_on_c, 1, 83, 0
3, 111003, Note_on_c, 1, 83, 93
3, 111003, Note_on_c, 1, 71, 93
3, 111053, Note_on_c, 1, 71, 0
3, 111053, Note_on_c, 1, 83, 0
3, 111063, Note_on_c, 1, 83, 93
3, 111063, Note_on_c, 1, 71, 93
3, 111113, Note_on_c, 1, 71, 0
3, 111113, Note_on_c, 1, 83, 0
3, 111123, Note_on_c, 1, 71, 93
3, 111123, Note_on_c, 1, 83, 93
3, 111233, Note_on_c, 1, 83, 0
3, 111233, Note_on_c, 1, 71, 0
3, 111243, Note_on_c, 1, 83, 93
3, 111243, Note_on_c, 1, 71, 93
3, 111293, Note_on_c, 1, 71, 0
3, 111293, Note_on_c, 1, 83, 0
3, 111303, Note_on_c, 1, 83, 93
3, 111303, Note_on_c, 1, 71, 93
3, 111353, Note_on_c, 1, 71, 0
3, 111353, Note_on_c, 1, 83, 0
3, 111363, Note_on_c, 1, 71, 93
3, 111363, Note_on_c, 1, 83, 93
3, 111473, Note_on_c, 1, 83, 0
3, 111473, Note_on_c, 1, 71, 0
3, 111483, Note_on_c, 1, 83, 93
3, 111483, Note_on_c, 1, 71, 93
3, 111533, Note_on_c, 1, 71, 0
3, 111533, Note_on_c, 1, 83, 0
3, 111543, Note_on_c, 1, 83, 93
3, 111543, Note_on_c, 1, 71, 93
3, 111593, Note_on_c, 1, 71, 0
3, 111593, Note_on_c, 1, 83, 0
3, 111603, Note_on_c, 1, 71, 93
3, 111603, Note_on_c, 1, 83, 93
3, 111653, Note_on_c, 1, 83, 0
3, 111653, Note_on_c, 1, 71, 0
3, 111723, Note_on_c, 1, 80, 93
3, 111723, Note_on_c, 1, 76, 93
3, 111783, Note_on_c, 1, 76, 0
3, 111783, Note_on_c, 1, 80, 0
3, 111843, Note_on_c, 1, 75, 93
3, 111843, Note_on_c, 1, 78, 93
3, 111903, Note_on_c, 1, 78, 0
3, 111903, Note_on_c, 1, 75, 0
3, 117123, Control_c, 1, 11, 27
3, 117123, Note_on_c, 1, 83, 75
3, 117123, Note_on_c, 1, 80, 75
3, 117127, Control_c, 1, 11, 30
3, 117132, Control_c, 1, 11, 33
3, 117136, Control_c, 1, 11, 36
3, 117141, Control_c, 1, 11, 39
3, 117145, Control_c, 1, 11, 42
3, 117150, Control_c, 1, 11, 45
3, 117603, Note_on_c, 1, 80, 0
3, 117603, Note_on_c, 1, 83, 0
3, 117603, Note_on_c, 1, 76, 75
3, 117603, Note_on_c, 1, 80, 75
3, 118083, Note_on_c, 1, 80, 0
3, 118083, Note_on_c, 1, 76, 0
3, 118083, Note_on_c, 1, 81, 75
3, 118083, Note_on_c, 1, 78, 75
3, 118993, Control_c, 1, 11, 47
3, 118996, Control_c, 1, 11, 44
3, 118999, Control_c, 1, 11, 41
3, 119002, Control_c, 1, 11, 38
3, 119005, Control_c, 1, 11, 35
3, 119008, Control_c, 1, 11, 32
3, 119011, Control_c, 1, 11, 29
3, 119013, Note_on_c, 1, 78, 0
3, 119013, Note_on_c, 1, 81, 0
3, 119043, Control_c, 1, 11, 77
3, 119043, Note_on_c, 1, 72, 93
3, 119193, Note_on_c, 1, 72, 0
3, 119223, Note_on_c, 1, 71, 93
3, 119268, Note_on_c, 1, 71, 0
3, 119283, Note_on_c, 1, 71, 93
3, 119403, Note_on_c, 1, 71, 0
3, 119523, Note_on_c, 1, 72, 93
3, 119673, Note_on_c, 1, 72, 0
3, 119703, Note_on_c, 1, 71, 93
3, 119748, Note_on_c, 1, 71, 0
3, 119763, Note_on_c, 1, 71, 93
3, 119883, Note_on_c, 1, 71, 0
3, 120003, Note_on_c, 1, 72, 93
3, 120063, Note_on_c, 1, 72, 0
3, 120123, Note_on_c, 1, 71, 93
3, 120183, Note_on_c, 1, 71, 0
3, 120243, Note_on_c, 1, 72, 93
3, 120303, Note_on_c, 1, 72, 0
3, 120363, Note_on_c, 1, 71, 93
3, 120423, Note_on_c, 1, 71, 0
3, 120483, Note_on_c, 1, 72, 93
3, 120543, Note_on_c, 1, 72, 0
3, 120603, Note_on_c, 1, 71, 93
3, 120663, Note_on_c, 1, 71, 0
3, 120723, Note_on_c, 1, 72, 93
3, 120783, Note_on_c, 1, 72, 0
3, 120843, Note_on_c, 1, 71, 93
3, 120903, Note_on_c, 1, 71, 0
3, 120963, Note_on_c, 1, 76, 93
3, 121023, Note_on_c, 1, 76, 0
3, 121083, Note_on_c, 1, 75, 93
3, 121143, Note_on_c, 1, 75, 0
3, 121203, Note_on_c, 1, 76, 93
3, 121263, Note_on_c, 1, 76, 0
3, 121323, Note_on_c, 1, 75, 93
3, 121383, Note_on_c, 1, 75, 0
3, 121443, Note_on_c, 1, 76, 93
3, 121503, Note_on_c, 1, 76, 0
3, 121563, Note_on_c, 1, 75, 93
3, 121623, Note_on_c, 1, 75, 0
3, 121683, Note_on_c, 1, 76, 93
3, 121743, Note_on_c, 1, 76, 0
3, 121803, Note_on_c, 1, 75, 93
3, 121863, Note_on_c, 1, 75, 0
3, 121923, Note_on_c, 1, 84, 93
3, 121983, Note_on_c, 1, 84, 0
3, 122043, Note_on_c, 1, 83, 93
3, 122103, Note_on_c, 1, 83, 0
3, 122163, Note_on_c, 1, 88, 93
3, 122223, Note_on_c, 1, 88, 0
3, 122283, Note_on_c, 1, 87, 93
3, 122343, Note_on_c, 1, 87, 0
3, 122403, Note_on_c, 1, 84, 93
3, 122463, Note_on_c, 1, 84, 0
3, 122523, Note_on_c, 1, 83, 93
3, 122583, Note_on_c, 1, 83, 0
3, 122643, Note_on_c, 1, 85, 93
3, 122703, Note_on_c, 1, 85, 0
3, 122763, Note_on_c, 1, 83, 93
3, 122823, Note_on_c, 1, 83, 0
3, 122883, Note_on_c, 1, 85, 93
3, 122943, Note_on_c, 1, 85, 0
3, 123003, Note_on_c, 1, 83, 93
3, 123063, Note_on_c, 1, 83, 0
3, 123123, Note_on_c, 1, 85, 93
3, 123183, Note_on_c, 1, 85, 0
3, 123243, Note_on_c, 1, 83, 93
3, 123303, Note_on_c, 1, 83, 0
3, 123363, Note_on_c, 1, 85, 93
3, 123423, Note_on_c, 1, 85, 0
3, 123483, Note_on_c, 1, 83, 93
3, 123543, Note_on_c, 1, 83, 0
3, 123603, Note_on_c, 1, 85, 93
3, 123663, Note_on_c, 1, 85, 0
3, 123723, Note_on_c, 1, 83, 93
3, 123783, Note_on_c, 1, 83, 0
3, 123843, Note_on_c, 1, 80, 93
3, 123843, Note_on_c, 1, 83, 93
3, 124803, Note_on_c, 1, 83, 0
3, 124803, Note_on_c, 1, 80, 0
3, 124803, Note_on_c, 1, 81, 93
3, 124803, Note_on_c, 1, 83, 93
3, 125763, Note_on_c, 1, 83, 0
3, 125763, Note_on_c, 1, 81, 0
3, 125763, Control_c, 1, 11, 52
3, 125763, Note_on_c, 1, 83, 93
3, 125763, Note_on_c, 1, 80, 93
3, 126723, Note_on_c, 1, 80, 0
3, 126723, Note_on_c, 1, 83, 0
3, 126723, Note_on_c, 1, 83, 93
3, 126723, Note_on_c, 1, 81, 93
3, 127683, Note_on_c, 1, 81, 0
3, 127683, Note_on_c, 1, 83, 0
3, 127683, Control_c, 1, 11, 52
3, 127683, Note_on_c, 1, 80, 93
3, 127683, Note_on_c, 1, 83, 93
3, 127792, Control_c, 1, 11, 53
3, 127902, Control_c, 1, 11, 54
3, 128012, Control_c, 1, 11, 55
3, 128121, Control_c, 1, 11, 56
3, 128231, Control_c, 1, 11, 57
3, 128341, Control_c, 1, 11, 58
3, 128451, Control_c, 1, 11, 59
3, 128560, Control_c, 1, 11, 60
3, 128643, Note_on_c, 1, 83, 0
3, 128643, Note_on_c, 1, 80, 0
3, 128643, Note_on_c, 1, 84, 93
3, 128643, Note_on_c, 1, 81, 93
3, 128670, Control_c, 1, 11, 61
3, 128780, Control_c, 1, 11, 62
3, 128889, Control_c, 1, 11, 62
3, 128999, Control_c, 1, 11, 63
3, 129109, Control_c, 1, 11, 63
3, 129219, Control_c, 1, 11, 64
3, 129328, Control_c, 1, 11, 65
3, 129438, Control_c, 1, 11, 65
3, 129548, Control_c, 1, 11, 66
3, 129603, Note_on_c, 1, 81, 0
3, 129603, Note_on_c, 1, 84, 0
3, 129603, Note_on_c, 1, 84, 93
3, 129603, Note_on_c, 1, 81, 93
3, 129657, Control_c, 1, 11, 66
3, 129767, Control_c, 1, 11, 67
3, 129877, Control_c, 1, 11, 68
3, 129987, Control_c, 1, 11, 68
3, 130096, Control_c, 1, 11, 69
3, 130206, Control_c, 1, 11, 70
3, 130316, Control_c, 1, 11, 70
3, 130425, Control_c, 1, 11, 71
3, 130535, Control_c, 1, 11, 71
3, 130645, Control_c, 1, 11, 72
3, 130755, Control_c, 1, 11, 73
3, 130864, Control_c, 1, 11, 73
3, 130974, Control_c, 1, 11, 74
3, 131084, Control_c, 1, 11, 74
3, 131193, Control_c, 1, 11, 75
3, 131303, Control_c, 1, 11, 76
3, 131413, Control_c, 1, 11, 76
3, 131523, Note_on_c, 1, 81, 0
3, 131523, Note_on_c, 1, 84, 0
3, 131523, Control_c, 1, 11, 77
3, 131523, Note_on_c, 1, 83, 93
3, 131523, Note_on_c, 1, 81, 93
3, 132483, Control_c, 1, 11, 77
3, 132547, Control_c, 1, 11, 78
3, 132611, Control_c, 1, 11, 78
3, 132675, Control_c, 1, 11, 79
3, 132739, Control_c, 1, 11, 79
3, 132803, Control_c, 1, 11, 80
3, 132867, Control_c, 1, 11, 81
3, 132931, Control_c, 1, 11, 81
3, 132995, Control_c, 1, 11, 82
3, 133059, Control_c, 1, 11, 82
3, 133123, Control_c, 1, 11, 83
3, 133187, Control_c, 1, 11, 84
3, 133251, Control_c, 1, 11, 84
3, 133315, Control_c, 1, 11, 85
3, 133379, Control_c, 1, 11, 86
3, 133443, Note_on_c, 1, 81, 0
3, 133443, Note_on_c, 1, 83, 0
3, 133443, Control_c, 1, 11, 86
3, 133443, Note_on_c, 1, 81, 93
3, 133443, Note_on_c, 1, 83, 93
3, 135363, Note_on_c, 1, 83, 0
3, 135363, Note_on_c, 1, 81, 0
3, 135363, Note_on_c, 1, 80, 113
3, 135483, Note_on_c, 1, 80, 0
3, 135483, Note_on_c, 1, 78, 93
3, 135603, Note_on_c, 1, 78, 0
3, 135603, Note_on_c, 1, 81, 113
3, 135723, Note_on_c, 1, 81, 0
3, 135723, Note_on_c, 1, 80, 93
3, 135843, Note_on_c, 1, 80, 0
3, 135843, Note_on_c, 1, 78, 113
3, 135963, Note_on_c, 1, 78, 0
3, 135963, Note_on_c, 1, 76, 93
3, 136083, Note_on_c, 1, 76, 0
3, 136083, Note_on_c, 1, 75, 113
3, 136203, Note_on_c, 1, 75, 0
3, 136203, Note_on_c, 1, 76, 93
3, 136323, Note_on_c, 1, 76, 0
3, 136323, Note_on_c, 1, 76, 113
3, 136443, Note_on_c, 1, 76, 0
3, 136443, Note_on_c, 1, 76, 93
3, 136563, Note_on_c, 1, 76, 0
3, 136563, Note_on_c, 1, 76, 113
3, 136683, Note_on_c, 1, 76, 0
3, 136683, Note_on_c, 1, 76, 93
3, 136803, Note_on_c, 1, 76, 0
3, 136803, Note_on_c, 1, 76, 113
3, 136923, Note_on_c, 1, 76, 0
3, 136923, Note_on_c, 1, 76, 93
3, 137043, Note_on_c, 1, 76, 0
3, 137043, Note_on_c, 1, 75, 113
3, 137163, Note_on_c, 1, 75, 0
3, 137163, Note_on_c, 1, 76, 93
3, 137283, Note_on_c, 1, 76, 0
3, 137283, Note_on_c, 1, 78, 113
3, 137403, Note_on_c, 1, 78, 0
3, 137403, Note_on_c, 1, 80, 93
3, 137523, Note_on_c, 1, 80, 0
3, 137523, Note_on_c, 1, 81, 113
3, 137643, Note_on_c, 1, 81, 0
3, 137643, Note_on_c, 1, 82, 93
3, 137763, Note_on_c, 1, 82, 0
3, 137763, Note_on_c, 1, 83, 113
3, 137883, Note_on_c, 1, 83, 0
3, 137883, Note_on_c, 1, 83, 93
3, 138003, Note_on_c, 1, 83, 0
3, 138003, Note_on_c, 1, 83, 113
3, 138123, Note_on_c, 1, 83, 0
3, 138123, Note_on_c, 1, 83, 93
3, 138243, Note_on_c, 1, 83, 0
3, 138243, Note_on_c, 1, 80, 113
3, 138363, Note_on_c, 1, 80, 0
3, 138363, Note_on_c, 1, 78, 93
3, 138483, Note_on_c, 1, 78, 0
3, 138483, Note_on_c, 1, 81, 113
3, 138603, Note_on_c, 1, 81, 0
3, 138603, Note_on_c, 1, 80, 93
3, 138723, Note_on_c, 1, 80, 0
3, 138723, Note_on_c, 1, 78, 113
3, 138843, Note_on_c, 1, 78, 0
3, 138843, Note_on_c, 1, 76, 93
3, 138963, Note_on_c, 1, 76, 0
3, 138963, Note_on_c, 1, 75, 113
3, 139083, Note_on_c, 1, 75, 0
3, 139083, Note_on_c, 1, 76, 93
3, 139203, Note_on_c, 1, 76, 0
3, 139203, Note_on_c, 1, 76, 113
3, 139323, Note_on_c, 1, 76, 0
3, 139323, Note_on_c, 1, 76, 93
3, 139443, Note_on_c, 1, 76, 0
3, 139443, Note_on_c, 1, 76, 113
3, 139563, Note_on_c, 1, 76, 0
3, 139563, Note_on_c, 1, 76, 93
3, 139683, Note_on_c, 1, 76, 0
3, 139683, Note_on_c, 1, 76, 113
3, 139803, Note_on_c, 1, 76, 0
3, 139803, Note_on_c, 1, 76, 93
3, 139923, Note_on_c, 1, 76, 0
3, 139923, Note_on_c, 1, 75, 113
3, 140043, Note_on_c, 1, 75, 0
3, 140043, Note_on_c, 1, 76, 93
3, 140163, Note_on_c, 1, 76, 0
3, 140163, Note_on_c, 1, 78, 113
3, 140283, Note_on_c, 1, 78, 0
3, 140283, Note_on_c, 1, 80, 93
3, 140403, Note_on_c, 1, 80, 0
3, 140403, Note_on_c, 1, 81, 113
3, 140523, Note_on_c, 1, 81, 0
3, 140523, Note_on_c, 1, 82, 93
3, 140643, Note_on_c, 1, 82, 0
3, 140643, Note_on_c, 1, 83, 113
3, 140763, Note_on_c, 1, 83, 0
3, 140763, Note_on_c, 1, 83, 93
3, 140883, Note_on_c, 1, 83, 0
3, 140883, Note_on_c, 1, 83, 113
3, 141003, Note_on_c, 1, 83, 0
3, 141003, Note_on_c, 1, 83, 93
3, 141123, Note_on_c, 1, 83, 0
3, 141123, Note_on_c, 1, 76, 93
3, 141243, Note_on_c, 1, 76, 0
3, 141603, Control_c, 1, 11, 98
3, 141603, Note_on_c, 1, 76, 93
3, 141621, Control_c, 1, 11, 97
3, 141639, Control_c, 1, 11, 96
3, 141657, Control_c, 1, 11, 95
3, 141675, Control_c, 1, 11, 94
3, 141693, Control_c, 1, 11, 92
3, 141711, Control_c, 1, 11, 91
3, 141729, Control_c, 1, 11, 90
3, 141747, Control_c, 1, 11, 89
3, 141765, Control_c, 1, 11, 87
3, 141783, Note_on_c, 1, 76, 0
3, 141783, Control_c, 1, 11, 86
3, 141783, Note_on_c, 1, 71, 93
3, 141843, Note_on_c, 1, 71, 0
3, 141843, Note_on_c, 1, 71, 93
3, 141963, Note_on_c, 1, 71, 0
3, 142083, Note_on_c, 1, 68, 93
3, 142203, Note_on_c, 1, 68, 0
3, 142563, Control_c, 1, 11, 98
3, 142563, Note_on_c, 1, 80, 93
3, 142581, Control_c, 1, 11, 97
3, 142599, Control_c, 1, 11, 96
3, 142617, Control_c, 1, 11, 95
3, 142635, Control_c, 1, 11, 94
3, 142653, Control_c, 1, 11, 92
3, 142671, Control_c, 1, 11, 91
3, 142689, Control_c, 1, 11, 90
3, 142707, Control_c, 1, 11, 89
3, 142725, Control_c, 1, 11, 87
3, 142743, Note_on_c, 1, 80, 0
3, 142743, Control_c, 1, 11, 86
3, 142743, Note_on_c, 1, 76, 93
3, 142803, Note_on_c, 1, 76, 0
3, 142803, Note_on_c, 1, 76, 93
3, 142923, Note_on_c, 1, 76, 0
3, 143043, Note_on_c, 1, 71, 93
3, 143163, Note_on_c, 1, 71, 0
3, 143523, Control_c, 1, 11, 98
3, 143523, Note_on_c, 1, 83, 93
3, 143541, Control_c, 1, 11, 97
3, 143559, Control_c, 1, 11, 96
3, 143577, Control_c, 1, 11, 95
3, 143595, Control_c, 1, 11, 94
3, 143613, Control_c, 1, 11, 92
3, 143631, Control_c, 1, 11, 91
3, 143649, Control_c, 1, 11, 90
3, 143667, Control_c, 1, 11, 89
3, 143685, Control_c, 1, 11, 87
3, 143703, Note_on_c, 1, 83, 0
3, 143703, Control_c, 1, 11, 86
3, 143703, Note_on_c, 1, 80, 93
3, 143763, Note_on_c, 1, 80, 0
3, 143763, Note_on_c, 1, 80, 93
3, 143883, Note_on_c, 1, 80, 0
3, 144003, Note_on_c, 1, 76, 93
3, 144123, Note_on_c, 1, 76, 0
3, 144483, Control_c, 1, 11, 98
3, 144483, Note_on_c, 1, 76, 93
3, 144501, Control_c, 1, 11, 97
3, 144519, Control_c, 1, 11, 96
3, 144537, Control_c, 1, 11, 95
3, 144555, Control_c, 1, 11, 94
3, 144573, Control_c, 1, 11, 92
3, 144591, Control_c, 1, 11, 91
3, 144609, Control_c, 1, 11, 90
3, 144627, Control_c, 1, 11, 89
3, 144645, Control_c, 1, 11, 87
3, 144663, Note_on_c, 1, 76, 0
3, 144663, Control_c, 1, 11, 86
3, 144663, Note_on_c, 1, 71, 93
3, 144723, Note_on_c, 1, 71, 0
3, 144723, Note_on_c, 1, 71, 93
3, 144843, Note_on_c, 1, 71, 0
3, 144963, Note_on_c, 1, 76, 93
3, 145083, Note_on_c, 1, 76, 0
3, 145083, Note_on_c, 1, 71, 93
3, 145203, Note_on_c, 1, 71, 0
3, 145203, Note_on_c, 1, 76, 93
3, 145323, Note_on_c, 1, 76, 0
3, 145323, Note_on_c, 1, 71, 93
3, 145443, Note_on_c, 1, 71, 0
3, 145443, Note_on_c, 1, 76, 93
3, 145563, Note_on_c, 1, 76, 0
3, 145563, Note_on_c, 1, 71, 93
3, 145683, Note_on_c, 1, 71, 0
3, 145683, Note_on_c, 1, 76, 93
3, 145803, Note_on_c, 1, 76, 0
3, 145803, Note_on_c, 1, 71, 93
3, 145923, Note_on_c, 1, 71, 0
3, 145923, Note_on_c, 1, 76, 93
3, 146043, Note_on_c, 1, 76, 0
3, 146043, Note_on_c, 1, 71, 93
3, 146163, Note_on_c, 1, 71, 0
3, 146163, Note_on_c, 1, 76, 93
3, 146283, Note_on_c, 1, 76, 0
3, 146283, Note_on_c, 1, 71, 93
3, 146403, Note_on_c, 1, 71, 0
3, 146403, Note_on_c, 1, 76, 93
3, 146523, Note_on_c, 1, 76, 0
3, 146523, Note_on_c, 1, 71, 93
3, 146643, Note_on_c, 1, 71, 0
3, 146643, Note_on_c, 1, 76, 93
3, 146763, Note_on_c, 1, 76, 0
3, 146763, Note_on_c, 1, 71, 93
3, 146883, Note_on_c, 1, 71, 0
3, 146883, Note_on_c, 1, 76, 93
3, 147003, Note_on_c, 1, 76, 0
3, 147363, Note_on_c, 1, 76, 93
3, 147483, Note_on_c, 1, 76, 0
3, 147843, Note_on_c, 1, 76, 93
3, 147963, Note_on_c, 1, 76, 0
3, 148323, Control_c, 1, 121, 0
3, 148323, End_track
4, 0, Start_track
4, 0, MIDI_port, 0
4, 0, Title_t, "2 Clarinetti in A"
4, 0, Program_c, 2, 71
4, 0, Control_c, 2, 10, 65
4, 5, Control_c, 2, 121, 0
4, 10, Program_c, 2, 71
4, 15, Pitch_bend_c, 2, 8192
4, 20, Control_c, 2, 11, 76
4, 25, Control_c, 2, 7, 127
4, 30, Control_c, 2, 91, 54
4, 35, Control_c, 2, 93, 0
4, 485, Control_c, 2, 11, 77
4, 485, Note_on_c, 2, 76, 94
4, 635, Note_on_c, 2, 76, 0
4, 665, Note_on_c, 2, 71, 94
4, 715, Note_on_c, 2, 71, 0
4, 725, Note_on_c, 2, 71, 94
4, 785, Note_on_c, 2, 71, 0
4, 965, Control_c, 2, 11, 89
4, 965, Note_on_c, 2, 68, 94
4, 965, Note_on_c, 2, 80, 94
4, 983, Control_c, 2, 11, 87
4, 1001, Control_c, 2, 11, 86
4, 1019, Control_c, 2, 11, 84
4, 1037, Control_c, 2, 11, 82
4, 1055, Control_c, 2, 11, 80
4, 1073, Control_c, 2, 11, 78
4, 1115, Note_on_c, 2, 80, 0
4, 1115, Note_on_c, 2, 68, 0
4, 1145, Note_on_c, 2, 64, 94
4, 1145, Note_on_c, 2, 76, 94
4, 1195, Note_on_c, 2, 76, 0
4, 1195, Note_on_c, 2, 64, 0
4, 1205, Note_on_c, 2, 64, 94
4, 1205, Note_on_c, 2, 76, 94
4, 1265, Note_on_c, 2, 76, 0
4, 1265, Note_on_c, 2, 64, 0
4, 1445, Control_c, 2, 11, 89
4, 1445, Note_on_c, 2, 71, 94
4, 1445, Note_on_c, 2, 83, 94
4, 1463, Control_c, 2, 11, 87
4, 1481, Control_c, 2, 11, 86
4, 1499, Control_c, 2, 11, 84
4, 1517, Control_c, 2, 11, 82
4, 1535, Control_c, 2, 11, 80
4, 1553, Control_c, 2, 11, 78
4, 1595, Note_on_c, 2, 83, 0
4, 1595, Note_on_c, 2, 71, 0
4, 1625, Note_on_c, 2, 68, 94
4, 1625, Note_on_c, 2, 80, 94
4, 1675, Note_on_c, 2, 80, 0
4, 1675, Note_on_c, 2, 68, 0
4, 1685, Note_on_c, 2, 68, 94
4, 1685, Note_on_c, 2, 80, 94
4, 1745, Note_on_c, 2, 80, 0
4, 1745, Note_on_c, 2, 68, 0
4, 1805, Note_on_c, 2, 76, 94
4, 1865, Note_on_c, 2, 76, 0
4, 1925, Note_on_c, 2, 75, 94
4, 1925, Note_on_c, 2, 66, 94
4, 1985, Note_on_c, 2, 66, 0
4, 1985, Note_on_c, 2, 75, 0
4, 4325, Control_c, 2, 11, 37
4, 4325, Note_on_c, 2, 74, 94
4, 4325, Note_on_c, 2, 71, 94
4, 4341, Control_c, 2, 11, 39
4, 4357, Control_c, 2, 11, 41
4, 4373, Control_c, 2, 11, 43
4, 4389, Control_c, 2, 11, 45
4, 4405, Control_c, 2, 11, 47
4, 4421, Control_c, 2, 11, 49
4, 4437, Control_c, 2, 11, 51
4, 4805, Note_on_c, 2, 71, 0
4, 4805, Note_on_c, 2, 74, 0
4, 4805, Note_on_c, 2, 71, 94
4, 4805, Note_on_c, 2, 64, 94
4, 5285, Note_on_c, 2, 64, 0
4, 5285, Note_on_c, 2, 71, 0
4, 5285, Note_on_c, 2, 76, 94
4, 5285, Note_on_c, 2, 73, 94
4, 5765, Note_on_c, 2, 73, 0
4, 5765, Note_on_c, 2, 76, 0
4, 5765, Note_on_c, 2, 69, 94
4, 5765, Note_on_c, 2, 73, 94
4, 6235, Note_on_c, 2, 73, 0
4, 6235, Note_on_c, 2, 69, 0
4, 6245, Control_c, 2, 11, 77
4, 6245, Note_on_c, 2, 69, 94
4, 6395, Note_on_c, 2, 69, 0
4, 6425, Note_on_c, 2, 64, 94
4, 6475, Note_on_c, 2, 64, 0
4, 6485, Note_on_c, 2, 64, 94
4, 6545, Note_on_c, 2, 64, 0
4, 6725, Control_c, 2, 11, 89
4, 6725, Note_on_c, 2, 73, 94
4, 6743, Control_c, 2, 11, 87
4, 6761, Control_c, 2, 11, 86
4, 6779, Control_c, 2, 11, 84
4, 6797, Control_c, 2, 11, 82
4, 6815, Control_c, 2, 11, 80
4, 6833, Control_c, 2, 11, 78
4, 6875, Note_on_c, 2, 73, 0
4, 6905, Note_on_c, 2, 69, 94
4, 6955, Note_on_c, 2, 69, 0
4, 6965, Note_on_c, 2, 69, 94
4, 7025, Note_on_c, 2, 69, 0
4, 7205, Control_c, 2, 11, 89
4, 7205, Note_on_c, 2, 76, 94
4, 7223, Control_c, 2, 11, 87
4, 7241, Control_c, 2, 11, 86
4, 7259, Control_c, 2, 11, 84
4, 7277, Control_c, 2, 11, 82
4, 7295, Control_c, 2, 11, 80
4, 7313, Control_c, 2, 11, 78
4, 7355, Note_on_c, 2, 76, 0
4, 7385, Note_on_c, 2, 73, 94
4, 7435, Note_on_c, 2, 73, 0
4, 7445, Note_on_c, 2, 73, 94
4, 7505, Note_on_c, 2, 73, 0
4, 7565, Note_on_c, 2, 73, 94
4, 7565, Note_on_c, 2, 81, 94
4, 7625, Note_on_c, 2, 81, 0
4, 7625, Note_on_c, 2, 73, 0
4, 7685, Note_on_c, 2, 80, 94
4, 7685, Note_on_c, 2, 71, 94
4, 7745, Note_on_c, 2, 71, 0
4, 7745, Note_on_c, 2, 80, 0
4, 9125, Control_c, 2, 11, 32
4, 9125, Note_on_c, 2, 76, 94
4, 9125, Note_on_c, 2, 72, 94
4, 9131, Control_c, 2, 11, 35
4, 9137, Control_c, 2, 11, 38
4, 9143, Control_c, 2, 11, 41
4, 9149, Control_c, 2, 11, 44
4, 9155, Control_c, 2, 11, 47
4, 9605, Note_on_c, 2, 72, 0
4, 9605, Note_on_c, 2, 76, 0
4, 9605, Note_on_c, 2, 72, 94
4, 9605, Note_on_c, 2, 69, 94
4, 10085, Note_on_c, 2, 69, 0
4, 10085, Note_on_c, 2, 72, 0
4, 10085, Control_c, 2, 11, 37
4, 10085, Note_on_c, 2, 69, 94
4, 10109, Control_c, 2, 11, 38
4, 10133, Control_c, 2, 11, 39
4, 10157, Control_c, 2, 11, 40
4, 10181, Control_c, 2, 11, 41
4, 10205, Control_c, 2, 11, 42
4, 10229, Control_c, 2, 11, 43
4, 10253, Control_c, 2, 11, 44
4, 10277, Control_c, 2, 11, 45
4, 10301, Control_c, 2, 11, 46
4, 10325, Control_c, 2, 11, 47
4, 10325, Note_on_c, 2, 65, 94
4, 10349, Control_c, 2, 11, 48
4, 10373, Control_c, 2, 11, 49
4, 10397, Control_c, 2, 11, 50
4, 10421, Control_c, 2, 11, 51
4, 10445, Control_c, 2, 11, 52
4, 10469, Control_c, 2, 11, 53
4, 10493, Control_c, 2, 11, 54
4, 10517, Control_c, 2, 11, 55
4, 10541, Control_c, 2, 11, 56
4, 10565, Note_on_c, 2, 65, 0
4, 10565, Note_on_c, 2, 69, 0
4, 10565, Control_c, 2, 11, 57
4, 10565, Note_on_c, 2, 67, 94
4, 10565, Note_on_c, 2, 65, 94
4, 10584, Control_c, 2, 11, 56
4, 10603, Control_c, 2, 11, 55
4, 10622, Control_c, 2, 11, 54
4, 10641, Control_c, 2, 11, 53
4, 10661, Control_c, 2, 11, 52
4, 10680, Control_c, 2, 11, 51
4, 10699, Control_c, 2, 11, 50
4, 10718, Control_c, 2, 11, 49
4, 10737, Control_c, 2, 11, 48
4, 10757, Control_c, 2, 11, 47
4, 10776, Control_c, 2, 11, 46
4, 10795, Control_c, 2, 11, 45
4, 10814, Control_c, 2, 11, 44
4, 10833, Control_c, 2, 11, 43
4, 10853, Control_c, 2, 11, 42
4, 10872, Control_c, 2, 11, 41
4, 10891, Control_c, 2, 11, 40
4, 10910, Control_c, 2, 11, 39
4, 10929, Control_c, 2, 11, 38
4, 10949, Control_c, 2, 11, 37
4, 10968, Control_c, 2, 11, 36
4, 10987, Control_c, 2, 11, 35
4, 11006, Control_c, 2, 11, 34
4, 11025, Control_c, 2, 11, 33
4, 11045, Note_on_c, 2, 65, 0
4, 11045, Note_on_c, 2, 67, 0
4, 11045, Control_c, 2, 11, 32
4, 11045, Note_on_c, 2, 67, 94
4, 11045, Note_on_c, 2, 64, 94
4, 11165, Note_on_c, 2, 64, 0
4, 11165, Note_on_c, 2, 67, 0
4, 13925, Control_c, 2, 11, 50
4, 13925, Note_on_c, 2, 75, 94
4, 13925, Note_on_c, 2, 69, 94
4, 13998, Control_c, 2, 11, 51
4, 14072, Control_c, 2, 11, 52
4, 14146, Control_c, 2, 11, 53
4, 14220, Control_c, 2, 11, 54
4, 14294, Control_c, 2, 11, 55
4, 14368, Control_c, 2, 11, 56
4, 14441, Control_c, 2, 11, 57
4, 14515, Control_c, 2, 11, 58
4, 14589, Control_c, 2, 11, 59
4, 14663, Control_c, 2, 11, 60
4, 14737, Control_c, 2, 11, 61
4, 14811, Control_c, 2, 11, 62
4, 14885, Control_c, 2, 11, 62
4, 14958, Control_c, 2, 11, 63
4, 15032, Control_c, 2, 11, 63
4, 15106, Control_c, 2, 11, 64
4, 15180, Control_c, 2, 11, 65
4, 15254, Control_c, 2, 11, 65
4, 15328, Control_c, 2, 11, 66
4, 15401, Control_c, 2, 11, 66
4, 15475, Control_c, 2, 11, 67
4, 15549, Control_c, 2, 11, 68
4, 15623, Control_c, 2, 11, 68
4, 15697, Control_c, 2, 11, 69
4, 15771, Control_c, 2, 11, 70
4, 15845, Control_c, 2, 11, 70
4, 15918, Control_c, 2, 11, 71
4, 15992, Control_c, 2, 11, 71
4, 16066, Control_c, 2, 11, 72
4, 16140, Control_c, 2, 11, 73
4, 16214, Control_c, 2, 11, 73
4, 16288, Control_c, 2, 11, 74
4, 16361, Control_c, 2, 11, 74
4, 16435, Control_c, 2, 11, 75
4, 16509, Control_c, 2, 11, 76
4, 16583, Control_c, 2, 11, 76
4, 16657, Control_c, 2, 11, 77
4, 16731, Control_c, 2, 11, 78
4, 16805, Note_on_c, 2, 69, 0
4, 16805, Note_on_c, 2, 75, 0
4, 16805, Control_c, 2, 11, 78
4, 16805, Note_on_c, 2, 67, 94
4, 16805, Note_on_c, 2, 76, 94
4, 16878, Control_c, 2, 11, 79
4, 16952, Control_c, 2, 11, 79
4, 17026, Control_c, 2, 11, 80
4, 17100, Control_c, 2, 11, 81
4, 17174, Control_c, 2, 11, 81
4, 17248, Control_c, 2, 11, 82
4, 17285, Note_on_c, 2, 76, 0
4, 17285, Note_on_c, 2, 67, 0
4, 17285, Note_on_c, 2, 76, 94
4, 17285, Note_on_c, 2, 79, 94
4, 17321, Control_c, 2, 11, 82
4, 17395, Control_c, 2, 11, 83
4, 17469, Control_c, 2, 11, 84
4, 17543, Control_c, 2, 11, 84
4, 17617, Control_c, 2, 11, 85
4, 17691, Control_c, 2, 11, 86
4, 17765, Note_on_c, 2, 79, 0
4, 17765, Note_on_c, 2, 76, 0
4, 17765, Control_c, 2, 11, 86
4, 17765, Note_on_c, 2, 75, 94
4, 17765, Note_on_c, 2, 78, 94
4, 17825, Note_on_c, 2, 78, 0
4, 17825, Note_on_c, 2, 75, 0
4, 17885, Note_on_c, 2, 83, 94
4, 17885, Note_on_c, 2, 71, 94
4, 17945, Note_on_c, 2, 71, 0
4, 17945, Note_on_c, 2, 83, 0
4, 18005, Note_on_c, 2, 71, 94
4, 18005, Note_on_c, 2, 83, 94
4, 18065, Note_on_c, 2, 83, 0
4, 18065, Note_on_c, 2, 71, 0
4, 18125, Note_on_c, 2, 83, 94
4, 18125, Note_on_c, 2, 71, 94
4, 18185, Note_on_c, 2, 71, 0
4, 18185, Note_on_c, 2, 83, 0
4, 18245, Note_on_c, 2, 71, 94
4, 18245, Note_on_c, 2, 83, 94
4, 18305, Note_on_c, 2, 83, 0
4, 18305, Note_on_c, 2, 71, 0
4, 18365, Note_on_c, 2, 83, 94
4, 18365, Note_on_c, 2, 71, 94
4, 18425, Note_on_c, 2, 71, 0
4, 18425, Note_on_c, 2, 83, 0
4, 18485, Note_on_c, 2, 83, 94
4, 18485, Note_on_c, 2, 71, 94
4, 18545, Note_on_c, 2, 71, 0
4, 18545, Note_on_c, 2, 83, 0
4, 18605, Note_on_c, 2, 71, 94
4, 18605, Note_on_c, 2, 83, 94
4, 18665, Note_on_c, 2, 83, 0
4, 18665, Note_on_c, 2, 71, 0
4, 18725, Control_c, 2, 11, 47
4, 18725, Note_on_c, 2, 71, 74
4, 18725, Note_on_c, 2, 83, 74
4, 18785, Note_on_c, 2, 83, 0
4, 18785, Note_on_c, 2, 71, 0
4, 19685, Control_c, 2, 11, 32
4, 19685, Note_on_c, 2, 73, 94
4, 19685, Note_on_c, 2, 76, 94
4, 19691, Control_c, 2, 11, 35
4, 19697, Control_c, 2, 11, 38
4, 19703, Control_c, 2, 11, 41
4, 19709, Control_c, 2, 11, 44
4, 19715, Control_c, 2, 11, 47
4, 20165, Note_on_c, 2, 76, 0
4, 20165, Note_on_c, 2, 73, 0
4, 20165, Note_on_c, 2, 70, 94
4, 20165, Note_on_c, 2, 73, 94
4, 20645, Note_on_c, 2, 73, 0
4, 20645, Note_on_c, 2, 70, 0
4, 20645, Note_on_c, 2, 75, 79
4, 20645, Note_on_c, 2, 71, 79
4, 20765, Note_on_c, 2, 71, 0
4, 20765, Note_on_c, 2, 75, 0
4, 21485, Control_c, 2, 11, 32
4, 21485, Note_on_c, 2, 71, 94
4, 21491, Control_c, 2, 11, 35
4, 21497, Control_c, 2, 11, 38
4, 21503, Control_c, 2, 11, 41
4, 21509, Control_c, 2, 11, 44
4, 21515, Control_c, 2, 11, 47
4, 21605, Note_on_c, 2, 71, 0
4, 21605, Note_on_c, 2, 69, 94
4, 21605, Note_on_c, 2, 66, 94
4, 22085, Note_on_c, 2, 66, 0
4, 22085, Note_on_c, 2, 69, 0
4, 22085, Note_on_c, 2, 63, 94
4, 22085, Note_on_c, 2, 66, 94
4, 22565, Note_on_c, 2, 66, 0
4, 22565, Note_on_c, 2, 63, 0
4, 22565, Control_c, 2, 11, 47
4, 22565, Note_on_c, 2, 63, 94
4, 22565, Note_on_c, 2, 71, 94
4, 22592, Control_c, 2, 11, 48
4, 22620, Control_c, 2, 11, 49
4, 22648, Control_c, 2, 11, 50
4, 22676, Control_c, 2, 11, 51
4, 22704, Control_c, 2, 11, 52
4, 22732, Control_c, 2, 11, 53
4, 22760, Control_c, 2, 11, 54
4, 22788, Control_c, 2, 11, 55
4, 22816, Control_c, 2, 11, 56
4, 22844, Control_c, 2, 11, 57
4, 22872, Control_c, 2, 11, 58
4, 22900, Control_c, 2, 11, 59
4, 22928, Control_c, 2, 11, 60
4, 22956, Control_c, 2, 11, 61
4, 22984, Control_c, 2, 11, 62
4, 23012, Control_c, 2, 11, 62
4, 23040, Control_c, 2, 11, 63
4, 23068, Control_c, 2, 11, 63
4, 23096, Control_c, 2, 11, 64
4, 23124, Control_c, 2, 11, 65
4, 23152, Control_c, 2, 11, 65
4, 23180, Control_c, 2, 11, 66
4, 23208, Control_c, 2, 11, 66
4, 23236, Control_c, 2, 11, 67
4, 23264, Control_c, 2, 11, 68
4, 23292, Control_c, 2, 11, 68
4, 23320, Control_c, 2, 11, 69
4, 23348, Control_c, 2, 11, 70
4, 23376, Control_c, 2, 11, 70
4, 23404, Control_c, 2, 11, 71
4, 23465, Control_c, 2, 11, 71
4, 23472, Control_c, 2, 11, 68
4, 23482, Control_c, 2, 11, 65
4, 23492, Control_c, 2, 11, 62
4, 23500, Control_c, 2, 11, 59
4, 23506, Control_c, 2, 11, 56
4, 23512, Control_c, 2, 11, 53
4, 23518, Control_c, 2, 11, 50
4, 23524, Control_c, 2, 11, 47
4, 23525, Note_on_c, 2, 63, 0
4, 23525, Note_on_c, 2, 64, 94
4, 23645, Note_on_c, 2, 64, 0
4, 23645, Note_on_c, 2, 71, 0
4, 26405, Control_c, 2, 1, 25
4, 26405, Control_c, 2, 11, 57
4, 26405, Note_on_c, 2, 76, 94
4, 26575, Note_on_c, 2, 76, 0
4, 26585, Note_on_c, 2, 71, 94
4, 26635, Note_on_c, 2, 71, 0
4, 26645, Note_on_c, 2, 71, 84
4, 26765, Note_on_c, 2, 71, 0
4, 26885, Note_on_c, 2, 76, 94
4, 27055, Note_on_c, 2, 76, 0
4, 27065, Note_on_c, 2, 71, 94
4, 27115, Note_on_c, 2, 71, 0
4, 27125, Note_on_c, 2, 71, 84
4, 27245, Note_on_c, 2, 71, 0
4, 27365, Note_on_c, 2, 78, 94
4, 27485, Note_on_c, 2, 78, 0
4, 27485, Note_on_c, 2, 81, 94
4, 27605, Note_on_c, 2, 81, 0
4, 27605, Note_on_c, 2, 80, 94
4, 27725, Note_on_c, 2, 80, 0
4, 27725, Note_on_c, 2, 78, 94
4, 27845, Note_on_c, 2, 78, 0
4, 27845, Note_on_c, 2, 76, 94
4, 27965, Note_on_c, 2, 76, 0
4, 27965, Note_on_c, 2, 80, 94
4, 28085, Note_on_c, 2, 80, 0
4, 28085, Note_on_c, 2, 83, 94
4, 29285, Control_c, 2, 11, 47
4, 29320, Control_c, 2, 11, 48
4, 29356, Control_c, 2, 11, 49
4, 29392, Control_c, 2, 11, 50
4, 29428, Control_c, 2, 11, 51
4, 29464, Control_c, 2, 11, 52
4, 29500, Control_c, 2, 11, 53
4, 29536, Control_c, 2, 11, 54
4, 29572, Control_c, 2, 11, 55
4, 29608, Control_c, 2, 11, 56
4, 29644, Control_c, 2, 11, 57
4, 29680, Control_c, 2, 11, 58
4, 29716, Control_c, 2, 11, 59
4, 29752, Control_c, 2, 11, 60
4, 29788, Control_c, 2, 11, 61
4, 29824, Control_c, 2, 11, 62
4, 29860, Control_c, 2, 11, 62
4, 29896, Control_c, 2, 11, 63
4, 29932, Control_c, 2, 11, 63
4, 29968, Control_c, 2, 11, 64
4, 30004, Control_c, 2, 11, 65
4, 30040, Control_c, 2, 11, 65
4, 30076, Control_c, 2, 11, 66
4, 30112, Control_c, 2, 11, 66
4, 30148, Control_c, 2, 11, 67
4, 30184, Control_c, 2, 11, 68
4, 30220, Control_c, 2, 11, 68
4, 30256, Control_c, 2, 11, 69
4, 30292, Control_c, 2, 11, 70
4, 30328, Control_c, 2, 11, 70
4, 30364, Control_c, 2, 11, 71
4, 30400, Control_c, 2, 11, 71
4, 30436, Control_c, 2, 11, 72
4, 30472, Control_c, 2, 11, 73
4, 30508, Control_c, 2, 11, 73
4, 30544, Control_c, 2, 11, 74
4, 30580, Control_c, 2, 11, 74
4, 30616, Control_c, 2, 11, 75
4, 30652, Control_c, 2, 11, 76
4, 30688, Control_c, 2, 11, 76
4, 30715, Note_on_c, 2, 83, 0
4, 30724, Control_c, 2, 11, 77
4, 30725, Control_c, 2, 1, 0
4, 30725, Note_on_c, 2, 64, 94
4, 30725, Note_on_c, 2, 76, 94
4, 30845, Note_on_c, 2, 76, 0
4, 30845, Note_on_c, 2, 64, 0
4, 31205, Note_on_c, 2, 69, 94
4, 31205, Note_on_c, 2, 73, 94
4, 31325, Note_on_c, 2, 73, 0
4, 31325, Note_on_c, 2, 69, 0
4, 31685, Note_on_c, 2, 69, 94
4, 31685, Note_on_c, 2, 66, 94
4, 31805, Note_on_c, 2, 66, 0
4, 31805, Note_on_c, 2, 69, 0
4, 32045, Note_on_c, 2, 69, 94
4, 32045, Note_on_c, 2, 66, 94
4, 32165, Note_on_c, 2, 66, 0
4, 32165, Note_on_c, 2, 69, 0
4, 32165, Note_on_c, 2, 75, 94
4, 32165, Note_on_c, 2, 78, 94
4, 32285, Note_on_c, 2, 78, 0
4, 32285, Note_on_c, 2, 75, 0
4, 32285, Note_on_c, 2, 69, 94
4, 32285, Note_on_c, 2, 66, 94
4, 32405, Note_on_c, 2, 66, 0
4, 32405, Note_on_c, 2, 69, 0
4, 32405, Note_on_c, 2, 78, 94
4, 32405, Note_on_c, 2, 69, 94
4, 32525, Note_on_c, 2, 69, 0
4, 32525, Note_on_c, 2, 78, 0
4, 32525, Note_on_c, 2, 69, 94
4, 32525, Note_on_c, 2, 66, 94
4, 32645, Note_on_c, 2, 66, 0
4, 32645, Note_on_c, 2, 69, 0
4, 32645, Note_on_c, 2, 68, 94
4, 32645, Note_on_c, 2, 64, 94
4, 32765, Note_on_c, 2, 64, 0
4, 32765, Note_on_c, 2, 68, 0
4, 32765, Note_on_c, 2, 68, 94
4, 32765, Note_on_c, 2, 76, 94
4, 32885, Note_on_c, 2, 76, 0
4, 32885, Note_on_c, 2, 68, 0
4, 33125, Note_on_c, 2, 69, 94
4, 33125, Note_on_c, 2, 73, 94
4, 33245, Note_on_c, 2, 73, 0
4, 33245, Note_on_c, 2, 69, 0
4, 33245, Note_on_c, 2, 69, 94
4, 33245, Note_on_c, 2, 73, 94
4, 33365, Note_on_c, 2, 73, 0
4, 33365, Note_on_c, 2, 69, 0
4, 33605, Note_on_c, 2, 69, 94
4, 33605, Note_on_c, 2, 66, 94
4, 33725, Note_on_c, 2, 66, 0
4, 33725, Note_on_c, 2, 69, 0
4, 33725, Note_on_c, 2, 69, 94
4, 33725, Note_on_c, 2, 66, 94
4, 33845, Note_on_c, 2, 66, 0
4, 33845, Note_on_c, 2, 69, 0
4, 33965, Note_on_c, 2, 64, 94
4, 33965, Note_on_c, 2, 68, 94
4, 34085, Note_on_c, 2, 68, 0
4, 34085, Note_on_c, 2, 64, 0
4, 34085, Note_on_c, 2, 69, 94
4, 34085, Note_on_c, 2, 66, 94
4, 34205, Note_on_c, 2, 66, 0
4, 34205, Note_on_c, 2, 69, 0
4, 34205, Note_on_c, 2, 69, 94
4, 34205, Note_on_c, 2, 66, 94
4, 34325, Note_on_c, 2, 66, 0
4, 34325, Note_on_c, 2, 69, 0
4, 34325, Note_on_c, 2, 69, 94
4, 34325, Note_on_c, 2, 78, 94
4, 34445, Note_on_c, 2, 78, 0
4, 34445, Note_on_c, 2, 69, 0
4, 34445, Note_on_c, 2, 66, 94
4, 34445, Note_on_c, 2, 69, 94
4, 34565, Note_on_c, 2, 69, 0
4, 34565, Note_on_c, 2, 66, 0
4, 34565, Note_on_c, 2, 64, 94
4, 34565, Note_on_c, 2, 68, 94
4, 34685, Note_on_c, 2, 68, 0
4, 34685, Note_on_c, 2, 64, 0
4, 34805, Note_on_c, 2, 71, 94
4, 34805, Note_on_c, 2, 83, 94
4, 34925, Note_on_c, 2, 83, 0
4, 34925, Note_on_c, 2, 71, 0
4, 35045, Note_on_c, 2, 83, 94
4, 35045, Note_on_c, 2, 71, 94
4, 35165, Note_on_c, 2, 71, 0
4, 35165, Note_on_c, 2, 83, 0
4, 35285, Note_on_c, 2, 71, 94
4, 35285, Note_on_c, 2, 83, 94
4, 35405, Note_on_c, 2, 83, 0
4, 35405, Note_on_c, 2, 71, 0
4, 35525, Control_c, 2, 11, 89
4, 35525, Note_on_c, 2, 71, 94
4, 35525, Note_on_c, 2, 83, 94
4, 35542, Control_c, 2, 11, 87
4, 35560, Control_c, 2, 11, 86
4, 35578, Control_c, 2, 11, 84
4, 35596, Control_c, 2, 11, 82
4, 35614, Control_c, 2, 11, 80
4, 35632, Control_c, 2, 11, 78
4, 36485, Note_on_c, 2, 83, 0
4, 36485, Note_on_c, 2, 71, 0
4, 36485, Note_on_c, 2, 83, 94
4, 36485, Note_on_c, 2, 71, 94
4, 36605, Note_on_c, 2, 71, 0
4, 36605, Note_on_c, 2, 83, 0
4, 36725, Note_on_c, 2, 71, 94
4, 36725, Note_on_c, 2, 83, 94
4, 36845, Note_on_c, 2, 83, 0
4, 36845, Note_on_c, 2, 71, 0
4, 36965, Note_on_c, 2, 83, 94
4, 36965, Note_on_c, 2, 71, 94
4, 37085, Note_on_c, 2, 71, 0
4, 37085, Note_on_c, 2, 83, 0
4, 37205, Note_on_c, 2, 71, 94
4, 37205, Note_on_c, 2, 83, 94
4, 37325, Note_on_c, 2, 83, 0
4, 37325, Note_on_c, 2, 71, 0
4, 37445, Control_c, 2, 11, 89
4, 37445, Note_on_c, 2, 83, 94
4, 37445, Note_on_c, 2, 71, 94
4, 37462, Control_c, 2, 11, 87
4, 37480, Control_c, 2, 11, 86
4, 37498, Control_c, 2, 11, 84
4, 37516, Control_c, 2, 11, 82
4, 37534, Control_c, 2, 11, 80
4, 37552, Control_c, 2, 11, 78
4, 39125, Note_on_c, 2, 71, 0
4, 39125, Note_on_c, 2, 83, 0
4, 39125, Note_on_c, 2, 80, 94
4, 39155, Note_on_c, 2, 80, 0
4, 39185, Note_on_c, 2, 76, 94
4, 39215, Note_on_c, 2, 76, 0
4, 39245, Note_on_c, 2, 73, 94
4, 39275, Note_on_c, 2, 73, 0
4, 39305, Note_on_c, 2, 71, 94
4, 39335, Note_on_c, 2, 71, 0
4, 39365, Note_on_c, 2, 70, 84
4, 39485, Note_on_c, 2, 70, 0
4, 40445, Control_c, 2, 11, 47
4, 40445, Note_on_c, 2, 66, 94
4, 40565, Note_on_c, 2, 66, 0
4, 40685, Note_on_c, 2, 66, 94
4, 40805, Note_on_c, 2, 66, 0
4, 40925, Note_on_c, 2, 78, 94
4, 41045, Note_on_c, 2, 78, 0
4, 41165, Note_on_c, 2, 78, 94
4, 41285, Note_on_c, 2, 78, 0
4, 41405, Note_on_c, 2, 78, 79
4, 41525, Note_on_c, 2, 78, 0
4, 42365, Note_on_c, 2, 66, 94
4, 42485, Note_on_c, 2, 66, 0
4, 42605, Note_on_c, 2, 66, 94
4, 42725, Note_on_c, 2, 66, 0
4, 42845, Note_on_c, 2, 78, 94
4, 42965, Note_on_c, 2, 78, 0
4, 43085, Note_on_c, 2, 78, 94
4, 43205, Note_on_c, 2, 78, 0
4, 43325, Note_on_c, 2, 68, 94
4, 43565, Note_on_c, 2, 68, 0
4, 43565, Note_on_c, 2, 69, 94
4, 43685, Note_on_c, 2, 69, 0
4, 43685, Note_on_c, 2, 68, 94
4, 44285, Note_on_c, 2, 68, 0
4, 44285, Note_on_c, 2, 71, 94
4, 44285, Note_on_c, 2, 83, 94
4, 44525, Note_on_c, 2, 83, 0
4, 44525, Note_on_c, 2, 71, 0
4, 44525, Note_on_c, 2, 85, 94
4, 44525, Note_on_c, 2, 73, 94
4, 44645, Note_on_c, 2, 73, 0
4, 44645, Note_on_c, 2, 85, 0
4, 44645, Note_on_c, 2, 83, 94
4, 44645, Note_on_c, 2, 71, 94
4, 45125, Control_c, 2, 11, 47
4, 45148, Control_c, 2, 11, 48
4, 45172, Control_c, 2, 11, 49
4, 45196, Control_c, 2, 11, 50
4, 45220, Control_c, 2, 11, 51
4, 45244, Control_c, 2, 11, 52
4, 45268, Control_c, 2, 11, 53
4, 45292, Control_c, 2, 11, 54
4, 45316, Control_c, 2, 11, 55
4, 45340, Control_c, 2, 11, 56
4, 45364, Control_c, 2, 11, 57
4, 45388, Control_c, 2, 11, 58
4, 45412, Control_c, 2, 11, 59
4, 45436, Control_c, 2, 11, 60
4, 45460, Control_c, 2, 11, 61
4, 45484, Control_c, 2, 11, 62
4, 45508, Control_c, 2, 11, 62
4, 45532, Control_c, 2, 11, 63
4, 45556, Control_c, 2, 11, 63
4, 45580, Control_c, 2, 11, 64
4, 45604, Control_c, 2, 11, 65
4, 45628, Control_c, 2, 11, 65
4, 45652, Control_c, 2, 11, 66
4, 45676, Control_c, 2, 11, 66
4, 45700, Control_c, 2, 11, 67
4, 45724, Control_c, 2, 11, 68
4, 45748, Control_c, 2, 11, 68
4, 45772, Control_c, 2, 11, 69
4, 45796, Control_c, 2, 11, 70
4, 45820, Control_c, 2, 11, 70
4, 45844, Control_c, 2, 11, 71
4, 45868, Control_c, 2, 11, 71
4, 45892, Control_c, 2, 11, 72
4, 45916, Control_c, 2, 11, 73
4, 45940, Control_c, 2, 11, 73
4, 45964, Control_c, 2, 11, 74
4, 45988, Control_c, 2, 11, 74
4, 46012, Control_c, 2, 11, 75
4, 46036, Control_c, 2, 11, 76
4, 46060, Control_c, 2, 11, 76
4, 46084, Control_c, 2, 11, 77
4, 46205, Note_on_c, 2, 71, 0
4, 46205, Note_on_c, 2, 83, 0
4, 46205, Note_on_c, 2, 71, 94
4, 46205, Note_on_c, 2, 83, 94
4, 46260, Note_on_c, 2, 83, 0
4, 46260, Note_on_c, 2, 71, 0
4, 46265, Note_on_c, 2, 71, 94
4, 46265, Note_on_c, 2, 83, 94
4, 46320, Note_on_c, 2, 83, 0
4, 46320, Note_on_c, 2, 71, 0
4, 46325, Note_on_c, 2, 71, 94
4, 46325, Note_on_c, 2, 83, 94
4, 46440, Note_on_c, 2, 83, 0
4, 46440, Note_on_c, 2, 71, 0
4, 46445, Note_on_c, 2, 71, 94
4, 46445, Note_on_c, 2, 83, 94
4, 46500, Note_on_c, 2, 83, 0
4, 46500, Note_on_c, 2, 71, 0
4, 46505, Note_on_c, 2, 83, 94
4, 46505, Note_on_c, 2, 71, 94
4, 46560, Note_on_c, 2, 71, 0
4, 46560, Note_on_c, 2, 83, 0
4, 46565, Note_on_c, 2, 83, 94
4, 46565, Note_on_c, 2, 71, 94
4, 46680, Note_on_c, 2, 71, 0
4, 46680, Note_on_c, 2, 83, 0
4, 46685, Note_on_c, 2, 71, 94
4, 46685, Note_on_c, 2, 83, 94
4, 46740, Note_on_c, 2, 83, 0
4, 46740, Note_on_c, 2, 71, 0
4, 46745, Note_on_c, 2, 83, 94
4, 46745, Note_on_c, 2, 71, 94
4, 46800, Note_on_c, 2, 71, 0
4, 46800, Note_on_c, 2, 83, 0
4, 46805, Note_on_c, 2, 71, 94
4, 46805, Note_on_c, 2, 83, 94
4, 46920, Note_on_c, 2, 83, 0
4, 46920, Note_on_c, 2, 71, 0
4, 46925, Note_on_c, 2, 83, 94
4, 46925, Note_on_c, 2, 71, 94
4, 46980, Note_on_c, 2, 71, 0
4, 46980, Note_on_c, 2, 83, 0
4, 46985, Note_on_c, 2, 71, 94
4, 46985, Note_on_c, 2, 83, 94
4, 47040, Note_on_c, 2, 83, 0
4, 47040, Note_on_c, 2, 71, 0
4, 47045, Note_on_c, 2, 83, 94
4, 47045, Note_on_c, 2, 71, 94
4, 47160, Note_on_c, 2, 71, 0
4, 47160, Note_on_c, 2, 83, 0
4, 47165, Control_c, 2, 11, 86
4, 47165, Note_on_c, 2, 76, 94
4, 47520, Note_on_c, 2, 76, 0
4, 47525, Note_on_c, 2, 76, 94
4, 47580, Note_on_c, 2, 76, 0
4, 47585, Note_on_c, 2, 75, 94
4, 47640, Note_on_c, 2, 75, 0
4, 47645, Note_on_c, 2, 73, 94
4, 47700, Note_on_c, 2, 73, 0
4, 47705, Note_on_c, 2, 71, 94
4, 47760, Note_on_c, 2, 71, 0
4, 47765, Note_on_c, 2, 69, 94
4, 47820, Note_on_c, 2, 69, 0
4, 47825, Note_on_c, 2, 68, 94
4, 47880, Note_on_c, 2, 68, 0
4, 47885, Note_on_c, 2, 66, 94
4, 47940, Note_on_c, 2, 66, 0
4, 47945, Note_on_c, 2, 64, 94
4, 48000, Note_on_c, 2, 64, 0
4, 48005, Note_on_c, 2, 73, 94
4, 48125, Note_on_c, 2, 73, 0
4, 48125, Note_on_c, 2, 73, 94
4, 48485, Note_on_c, 2, 73, 0
4, 48485, Note_on_c, 2, 73, 94
4, 48540, Note_on_c, 2, 73, 0
4, 48545, Note_on_c, 2, 71, 94
4, 48600, Note_on_c, 2, 71, 0
4, 48605, Note_on_c, 2, 69, 94
4, 48660, Note_on_c, 2, 69, 0
4, 48665, Note_on_c, 2, 68, 94
4, 48720, Note_on_c, 2, 68, 0
4, 48725, Note_on_c, 2, 66, 94
4, 48780, Note_on_c, 2, 66, 0
4, 48785, Note_on_c, 2, 64, 94
4, 48840, Note_on_c, 2, 64, 0
4, 48845, Note_on_c, 2, 63, 94
4, 48900, Note_on_c, 2, 63, 0
4, 48905, Note_on_c, 2, 61, 94
4, 48960, Note_on_c, 2, 61, 0
4, 48965, Note_on_c, 2, 66, 94
4, 48965, Note_on_c, 2, 73, 94
4, 49925, Note_on_c, 2, 73, 0
4, 49925, Note_on_c, 2, 66, 0
4, 49925, Note_on_c, 2, 66, 94
4, 49925, Note_on_c, 2, 78, 94
4, 50045, Note_on_c, 2, 78, 0
4, 50045, Note_on_c, 2, 66, 0
4, 50405, Note_on_c, 2, 78, 94
4, 50405, Note_on_c, 2, 66, 94
4, 50525, Note_on_c, 2, 66, 0
4, 50525, Note_on_c, 2, 78, 0
4, 50885, Note_on_c, 2, 78, 94
4, 50885, Note_on_c, 2, 66, 94
4, 51005, Note_on_c, 2, 66, 0
4, 51005, Note_on_c, 2, 78, 0
4, 51125, Note_on_c, 2, 66, 94
4, 51125, Note_on_c, 2, 78, 94
4, 51245, Note_on_c, 2, 78, 0
4, 51245, Note_on_c, 2, 66, 0
4, 51365, Note_on_c, 2, 78, 94
4, 51365, Note_on_c, 2, 66, 94
4, 51485, Note_on_c, 2, 66, 0
4, 51485, Note_on_c, 2, 78, 0
4, 51605, Note_on_c, 2, 66, 94
4, 51605, Note_on_c, 2, 78, 94
4, 51725, Note_on_c, 2, 78, 0
4, 51725, Note_on_c, 2, 66, 0
4, 51845, Note_on_c, 2, 78, 94
4, 51845, Note_on_c, 2, 66, 94
4, 51965, Note_on_c, 2, 66, 0
4, 51965, Note_on_c, 2, 78, 0
4, 52085, Note_on_c, 2, 80, 94
4, 52085, Note_on_c, 2, 68, 94
4, 52205, Note_on_c, 2, 68, 0
4, 52205, Note_on_c, 2, 80, 0
4, 52325, Note_on_c, 2, 66, 94
4, 52325, Note_on_c, 2, 78, 94
4, 52445, Note_on_c, 2, 78, 0
4, 52445, Note_on_c, 2, 66, 0
4, 52445, Control_c, 2, 11, 98
4, 52445, Note_on_c, 2, 78, 94
4, 52445, Note_on_c, 2, 66, 94
4, 52462, Control_c, 2, 11, 97
4, 52480, Control_c, 2, 11, 95
4, 52498, Control_c, 2, 11, 93
4, 52516, Control_c, 2, 11, 91
4, 52534, Control_c, 2, 11, 89
4, 52552, Control_c, 2, 11, 87
4, 52565, Note_on_c, 2, 66, 0
4, 52565, Note_on_c, 2, 78, 0
4, 52565, Note_on_c, 2, 78, 94
4, 52565, Note_on_c, 2, 66, 94
4, 52685, Note_on_c, 2, 66, 0
4, 52685, Note_on_c, 2, 78, 0
4, 52685, Control_c, 2, 11, 98
4, 52685, Note_on_c, 2, 78, 94
4, 52685, Note_on_c, 2, 66, 94
4, 52702, Control_c, 2, 11, 97
4, 52720, Control_c, 2, 11, 95
4, 52738, Control_c, 2, 11, 93
4, 52756, Control_c, 2, 11, 91
4, 52774, Control_c, 2, 11, 89
4, 52792, Control_c, 2, 11, 87
4, 52805, Note_on_c, 2, 66, 0
4, 52805, Note_on_c, 2, 78, 0
4, 52805, Note_on_c, 2, 59, 84
4, 52805, Note_on_c, 2, 71, 84
4, 52925, Note_on_c, 2, 71, 0
4, 52925, Note_on_c, 2, 59, 0
4, 52925, Note_on_c, 2, 69, 39
4, 52925, Note_on_c, 2, 66, 39
4, 53045, Note_on_c, 2, 66, 0
4, 53045, Note_on_c, 2, 69, 0
4, 53045, Note_on_c, 2, 68, 39
4, 53045, Note_on_c, 2, 64, 39
4, 53165, Note_on_c, 2, 64, 0
4, 53165, Note_on_c, 2, 68, 0
4, 53165, Note_on_c, 2, 66, 94
4, 53165, Note_on_c, 2, 78, 94
4, 53405, Note_on_c, 2, 78, 0
4, 53405, Note_on_c, 2, 66, 0
4, 53405, Note_on_c, 2, 69, 39
4, 53405, Note_on_c, 2, 66, 39
4, 53525, Note_on_c, 2, 66, 0
4, 53525, Note_on_c, 2, 69, 0
4, 53525, Note_on_c, 2, 68, 39
4, 53525, Note_on_c, 2, 64, 39
4, 53645, Note_on_c, 2, 64, 0
4, 53645, Note_on_c, 2, 68, 0
4, 53645, Note_on_c, 2, 78, 94
4, 53645, Note_on_c, 2, 66, 94
4, 53885, Note_on_c, 2, 66, 0
4, 53885, Note_on_c, 2, 78, 0
4, 53885, Note_on_c, 2, 69, 39
4, 53885, Note_on_c, 2, 66, 39
4, 54005, Note_on_c, 2, 66, 0
4, 54005, Note_on_c, 2, 69, 0
4, 54005, Note_on_c, 2, 68, 39
4, 54005, Note_on_c, 2, 64, 39
4, 54125, Note_on_c, 2, 64, 0
4, 54125, Note_on_c, 2, 68, 0
4, 54125, Note_on_c, 2, 66, 94
4, 54125, Note_on_c, 2, 78, 94
4, 54365, Note_on_c, 2, 78, 0
4, 54365, Note_on_c, 2, 66, 0
4, 54365, Note_on_c, 2, 69, 39
4, 54365, Note_on_c, 2, 66, 39
4, 54485, Note_on_c, 2, 66, 0
4, 54485, Note_on_c, 2, 69, 0
4, 54485, Note_on_c, 2, 68, 39
4, 54485, Note_on_c, 2, 64, 39
4, 54605, Note_on_c, 2, 64, 0
4, 54605, Note_on_c, 2, 68, 0
4, 54605, Note_on_c, 2, 78, 94
4, 54605, Note_on_c, 2, 66, 94
4, 54840, Note_on_c, 2, 66, 0
4, 54840, Note_on_c, 2, 78, 0
4, 54845, Note_on_c, 2, 78, 94
4, 54845, Note_on_c, 2, 66, 94
4, 54900, Note_on_c, 2, 66, 0
4, 54900, Note_on_c, 2, 78, 0
4, 54905, Note_on_c, 2, 66, 94
4, 54905, Note_on_c, 2, 78, 94
4, 54960, Note_on_c, 2, 78, 0
4, 54960, Note_on_c, 2, 66, 0
4, 54965, Note_on_c, 2, 78, 94
4, 54965, Note_on_c, 2, 66, 94
4, 55085, Note_on_c, 2, 66, 0
4, 55085, Note_on_c, 2, 78, 0
4, 55205, Note_on_c, 2, 66, 94
4, 55205, Note_on_c, 2, 75, 94
4, 55320, Note_on_c, 2, 75, 0
4, 55320, Note_on_c, 2, 66, 0
4, 55325, Note_on_c, 2, 75, 94
4, 55325, Note_on_c, 2, 66, 94
4, 55380, Note_on_c, 2, 66, 0
4, 55380, Note_on_c, 2, 75, 0
4, 55385, Note_on_c, 2, 66, 94
4, 55385, Note_on_c, 2, 75, 94
4, 55440, Note_on_c, 2, 75, 0
4, 55440, Note_on_c, 2, 66, 0
4, 55445, Note_on_c, 2, 66, 94
4, 55445, Note_on_c, 2, 75, 94
4, 55565, Note_on_c, 2, 75, 0
4, 55565, Note_on_c, 2, 66, 0
4, 55685, Note_on_c, 2, 71, 94
4, 55685, Note_on_c, 2, 59, 94
4, 55800, Note_on_c, 2, 59, 0
4, 55800, Note_on_c, 2, 71, 0
4, 55805, Note_on_c, 2, 71, 94
4, 55805, Note_on_c, 2, 59, 94
4, 55860, Note_on_c, 2, 59, 0
4, 55860, Note_on_c, 2, 71, 0
4, 55865, Note_on_c, 2, 71, 94
4, 55865, Note_on_c, 2, 59, 94
4, 55920, Note_on_c, 2, 59, 0
4, 55920, Note_on_c, 2, 71, 0
4, 55925, Note_on_c, 2, 71, 94
4, 55925, Note_on_c, 2, 59, 94
4, 56040, Note_on_c, 2, 59, 0
4, 56040, Note_on_c, 2, 71, 0
4, 56045, Note_on_c, 2, 71, 94
4, 56045, Note_on_c, 2, 59, 94
4, 56100, Note_on_c, 2, 59, 0
4, 56100, Note_on_c, 2, 71, 0
4, 56105, Note_on_c, 2, 59, 94
4, 56105, Note_on_c, 2, 71, 94
4, 56160, Note_on_c, 2, 71, 0
4, 56160, Note_on_c, 2, 59, 0
4, 56165, Note_on_c, 2, 59, 94
4, 56165, Note_on_c, 2, 71, 94
4, 56280, Note_on_c, 2, 71, 0
4, 56280, Note_on_c, 2, 59, 0
4, 56285, Note_on_c, 2, 71, 94
4, 56285, Note_on_c, 2, 59, 94
4, 56340, Note_on_c, 2, 59, 0
4, 56340, Note_on_c, 2, 71, 0
4, 56345, Note_on_c, 2, 59, 94
4, 56345, Note_on_c, 2, 71, 94
4, 56400, Note_on_c, 2, 71, 0
4, 56400, Note_on_c, 2, 59, 0
4, 56405, Note_on_c, 2, 71, 94
4, 56405, Note_on_c, 2, 59, 94
4, 56520, Note_on_c, 2, 59, 0
4, 56520, Note_on_c, 2, 71, 0
4, 56525, Note_on_c, 2, 59, 94
4, 56525, Note_on_c, 2, 71, 94
4, 56580, Note_on_c, 2, 71, 0
4, 56580, Note_on_c, 2, 59, 0
4, 56585, Note_on_c, 2, 59, 94
4, 56585, Note_on_c, 2, 71, 94
4, 56640, Note_on_c, 2, 71, 0
4, 56640, Note_on_c, 2, 59, 0
4, 56645, Note_on_c, 2, 59, 89
4, 56645, Note_on_c, 2, 71, 89
4, 56765, Note_on_c, 2, 71, 0
4, 56765, Note_on_c, 2, 59, 0
4, 58565, Control_c, 2, 11, 32
4, 58565, Note_on_c, 2, 71, 94
4, 58589, Control_c, 2, 11, 33
4, 58613, Control_c, 2, 11, 35
4, 58637, Control_c, 2, 11, 36
4, 58661, Control_c, 2, 11, 38
4, 58685, Control_c, 2, 11, 39
4, 58709, Control_c, 2, 11, 41
4, 58733, Control_c, 2, 11, 42
4, 58757, Control_c, 2, 11, 44
4, 58781, Control_c, 2, 11, 45
4, 58805, Control_c, 2, 11, 47
4, 59525, Note_on_c, 2, 71, 0
4, 59525, Note_on_c, 2, 72, 94
4, 60005, Note_on_c, 2, 72, 0
4, 60005, Note_on_c, 2, 71, 94
4, 60485, Note_on_c, 2, 71, 0
4, 60485, Note_on_c, 2, 72, 94
4, 60965, Note_on_c, 2, 72, 0
4, 60965, Note_on_c, 2, 71, 94
4, 61085, Note_on_c, 2, 71, 0
4, 62525, Note_on_c, 2, 67, 109
4, 62645, Note_on_c, 2, 67, 0
4, 62645, Note_on_c, 2, 69, 104
4, 62765, Note_on_c, 2, 69, 0
4, 62765, Note_on_c, 2, 71, 99
4, 62885, Note_on_c, 2, 71, 0
4, 62885, Note_on_c, 2, 72, 94
4, 62945, Note_on_c, 2, 72, 0
4, 63005, Note_on_c, 2, 72, 109
4, 63005, Note_on_c, 2, 76, 109
4, 63125, Note_on_c, 2, 76, 0
4, 63125, Note_on_c, 2, 72, 0
4, 63125, Note_on_c, 2, 71, 104
4, 63125, Note_on_c, 2, 74, 104
4, 63245, Note_on_c, 2, 74, 0
4, 63245, Note_on_c, 2, 71, 0
4, 63245, Note_on_c, 2, 69, 99
4, 63245, Note_on_c, 2, 72, 99
4, 63365, Note_on_c, 2, 72, 0
4, 63365, Note_on_c, 2, 69, 0
4, 63365, Note_on_c, 2, 68, 94
4, 63365, Note_on_c, 2, 71, 94
4, 63425, Note_on_c, 2, 71, 0
4, 63425, Note_on_c, 2, 68, 0
4, 63485, Note_on_c, 2, 71, 109
4, 63485, Note_on_c, 2, 68, 109
4, 63605, Note_on_c, 2, 68, 0
4, 63605, Note_on_c, 2, 71, 0
4, 63605, Note_on_c, 2, 72, 104
4, 63605, Note_on_c, 2, 69, 104
4, 63725, Note_on_c, 2, 69, 0
4, 63725, Note_on_c, 2, 72, 0
4, 63725, Note_on_c, 2, 71, 99
4, 63725, Note_on_c, 2, 74, 99
4, 63845, Note_on_c, 2, 74, 0
4, 63845, Note_on_c, 2, 71, 0
4, 63845, Note_on_c, 2, 76, 94
4, 63845, Note_on_c, 2, 72, 94
4, 63905, Note_on_c, 2, 72, 0
4, 63905, Note_on_c, 2, 76, 0
4, 64925, Note_on_c, 2, 69, 109
4, 64925, Note_on_c, 2, 72, 109
4, 65045, Note_on_c, 2, 72, 0
4, 65045, Note_on_c, 2, 69, 0
4, 65045, Note_on_c, 2, 66, 104
4, 65045, Note_on_c, 2, 69, 104
4, 65165, Note_on_c, 2, 69, 0
4, 65165, Note_on_c, 2, 66, 0
4, 65165, Note_on_c, 2, 64, 99
4, 65165, Note_on_c, 2, 67, 99
4, 65285, Note_on_c, 2, 67, 0
4, 65285, Note_on_c, 2, 64, 0
4, 65285, Note_on_c, 2, 63, 94
4, 65285, Note_on_c, 2, 66, 94
4, 65345, Note_on_c, 2, 66, 0
4, 65345, Note_on_c, 2, 63, 0
4, 65885, Note_on_c, 2, 67, 109
4, 65885, Note_on_c, 2, 71, 109
4, 66005, Note_on_c, 2, 71, 0
4, 66005, Note_on_c, 2, 67, 0
4, 66005, Note_on_c, 2, 66, 102
4, 66005, Note_on_c, 2, 69, 102
4, 66125, Note_on_c, 2, 69, 0
4, 66125, Note_on_c, 2, 66, 0
4, 66125, Note_on_c, 2, 64, 94
4, 66125, Note_on_c, 2, 67, 94
4, 66245, Note_on_c, 2, 67, 0
4, 66245, Note_on_c, 2, 64, 0
4, 67805, Note_on_c, 2, 67, 109
4, 67805, Note_on_c, 2, 71, 109
4, 67925, Note_on_c, 2, 71, 0
4, 67925, Note_on_c, 2, 67, 0
4, 67925, Note_on_c, 2, 69, 102
4, 67925, Note_on_c, 2, 66, 102
4, 68045, Note_on_c, 2, 66, 0
4, 68045, Note_on_c, 2, 69, 0
4, 68045, Note_on_c, 2, 64, 94
4, 68045, Note_on_c, 2, 67, 94
4, 68165, Note_on_c, 2, 67, 0
4, 68165, Note_on_c, 2, 64, 0
4, 69245, Note_on_c, 2, 68, 116
4, 69365, Note_on_c, 2, 68, 0
4, 69365, Note_on_c, 2, 66, 105
4, 69485, Note_on_c, 2, 66, 0
4, 69485, Note_on_c, 2, 64, 94
4, 69605, Note_on_c, 2, 64, 0
4, 69725, Control_c, 2, 11, 47
4, 69725, Note_on_c, 2, 69, 116
4, 69725, Note_on_c, 2, 66, 116
4, 69761, Control_c, 2, 11, 48
4, 69797, Control_c, 2, 11, 49
4, 69833, Control_c, 2, 11, 50
4, 69845, Note_on_c, 2, 66, 0
4, 69845, Note_on_c, 2, 69, 0
4, 69845, Note_on_c, 2, 68, 105
4, 69845, Note_on_c, 2, 64, 105
4, 69869, Control_c, 2, 11, 51
4, 69905, Control_c, 2, 11, 52
4, 69941, Control_c, 2, 11, 53
4, 69965, Note_on_c, 2, 64, 0
4, 69965, Note_on_c, 2, 68, 0
4, 69965, Note_on_c, 2, 63, 94
4, 69965, Note_on_c, 2, 66, 94
4, 69977, Control_c, 2, 11, 54
4, 70013, Control_c, 2, 11, 55
4, 70049, Control_c, 2, 11, 56
4, 70085, Note_on_c, 2, 66, 0
4, 70085, Note_on_c, 2, 63, 0
4, 70085, Control_c, 2, 11, 57
4, 70121, Control_c, 2, 11, 58
4, 70157, Control_c, 2, 11, 59
4, 70193, Control_c, 2, 11, 60
4, 70205, Note_on_c, 2, 69, 116
4, 70205, Note_on_c, 2, 78, 116
4, 70229, Control_c, 2, 11, 61
4, 70265, Control_c, 2, 11, 62
4, 70301, Control_c, 2, 11, 62
4, 70325, Note_on_c, 2, 78, 0
4, 70325, Note_on_c, 2, 69, 0
4, 70325, Note_on_c, 2, 68, 109
4, 70325, Note_on_c, 2, 76, 109
4, 70337, Control_c, 2, 11, 63
4, 70373, Control_c, 2, 11, 63
4, 70409, Control_c, 2, 11, 64
4, 70445, Note_on_c, 2, 76, 0
4, 70445, Note_on_c, 2, 68, 0
4, 70445, Control_c, 2, 11, 65
4, 70445, Note_on_c, 2, 75, 102
4, 70445, Note_on_c, 2, 66, 102
4, 70565, Note_on_c, 2, 66, 0
4, 70565, Note_on_c, 2, 75, 0
4, 70565, Control_c, 2, 11, 47
4, 70565, Note_on_c, 2, 68, 79
4, 70565, Note_on_c, 2, 76, 79
4, 70685, Note_on_c, 2, 76, 0
4, 70685, Note_on_c, 2, 68, 0
4, 72485, Control_c, 2, 11, 62
4, 72485, Note_on_c, 2, 76, 109
4, 72665, Note_on_c, 2, 76, 0
4, 72665, Note_on_c, 2, 71, 109
4, 72725, Note_on_c, 2, 71, 0
4, 72725, Note_on_c, 2, 71, 109
4, 72845, Note_on_c, 2, 71, 0
4, 72965, Note_on_c, 2, 76, 109
4, 73145, Note_on_c, 2, 76, 0
4, 73145, Note_on_c, 2, 71, 109
4, 73205, Note_on_c, 2, 71, 0
4, 73205, Note_on_c, 2, 71, 109
4, 73325, Note_on_c, 2, 71, 0
4, 73445, Note_on_c, 2, 78, 109
4, 73565, Note_on_c, 2, 78, 0
4, 73565, Note_on_c, 2, 81, 109
4, 73685, Note_on_c, 2, 81, 0
4, 73685, Note_on_c, 2, 80, 109
4, 73805, Note_on_c, 2, 80, 0
4, 73805, Note_on_c, 2, 78, 109
4, 73925, Note_on_c, 2, 78, 0
4, 73925, Note_on_c, 2, 76, 109
4, 74045, Note_on_c, 2, 76, 0
4, 74045, Note_on_c, 2, 80, 109
4, 74165, Note_on_c, 2, 80, 0
4, 74165, Note_on_c, 2, 83, 109
4, 75365, Note_on_c, 2, 83, 0
4, 75365, Control_c, 2, 11, 62
4, 75365, Note_on_c, 2, 83, 94
4, 75365, Note_on_c, 2, 71, 94
4, 75422, Control_c, 2, 11, 62
4, 75480, Control_c, 2, 11, 63
4, 75537, Control_c, 2, 11, 63
4, 75595, Control_c, 2, 11, 64
4, 75653, Control_c, 2, 11, 65
4, 75710, Control_c, 2, 11, 65
4, 75768, Control_c, 2, 11, 66
4, 75825, Control_c, 2, 11, 66
4, 75883, Control_c, 2, 11, 67
4, 75941, Control_c, 2, 11, 68
4, 75998, Control_c, 2, 11, 68
4, 76056, Control_c, 2, 11, 69
4, 76113, Control_c, 2, 11, 70
4, 76171, Control_c, 2, 11, 70
4, 76229, Control_c, 2, 11, 71
4, 76286, Control_c, 2, 11, 71
4, 76344, Control_c, 2, 11, 72
4, 76401, Control_c, 2, 11, 73
4, 76459, Control_c, 2, 11, 73
4, 76517, Control_c, 2, 11, 74
4, 76574, Control_c, 2, 11, 74
4, 76632, Control_c, 2, 11, 75
4, 76689, Control_c, 2, 11, 76
4, 76747, Control_c, 2, 11, 76
4, 76805, Note_on_c, 2, 71, 0
4, 76805, Note_on_c, 2, 83, 0
4, 76805, Control_c, 2, 11, 77
4, 76805, Note_on_c, 2, 64, 94
4, 76805, Note_on_c, 2, 76, 94
4, 76925, Note_on_c, 2, 76, 0
4, 76925, Note_on_c, 2, 64, 0
4, 77285, Note_on_c, 2, 73, 94
4, 77285, Note_on_c, 2, 69, 94
4, 77405, Note_on_c, 2, 69, 0
4, 77405, Note_on_c, 2, 73, 0
4, 77765, Note_on_c, 2, 69, 94
4, 77765, Note_on_c, 2, 66, 94
4, 77885, Note_on_c, 2, 66, 0
4, 77885, Note_on_c, 2, 69, 0
4, 78125, Note_on_c, 2, 66, 94
4, 78125, Note_on_c, 2, 69, 94
4, 78245, Note_on_c, 2, 69, 0
4, 78245, Note_on_c, 2, 66, 0
4, 78245, Note_on_c, 2, 78, 94
4, 78245, Note_on_c, 2, 75, 94
4, 78365, Note_on_c, 2, 75, 0
4, 78365, Note_on_c, 2, 78, 0
4, 78365, Note_on_c, 2, 66, 94
4, 78365, Note_on_c, 2, 69, 94
4, 78485, Note_on_c, 2, 69, 0
4, 78485, Note_on_c, 2, 66, 0
4, 78485, Note_on_c, 2, 78, 94
4, 78485, Note_on_c, 2, 69, 94
4, 78605, Note_on_c, 2, 69, 0
4, 78605, Note_on_c, 2, 78, 0
4, 78605, Note_on_c, 2, 69, 94
4, 78605, Note_on_c, 2, 66, 94
4, 78725, Note_on_c, 2, 66, 0
4, 78725, Note_on_c, 2, 69, 0
4, 78725, Note_on_c, 2, 68, 94
4, 78725, Note_on_c, 2, 64, 94
4, 78845, Note_on_c, 2, 64, 0
4, 78845, Note_on_c, 2, 68, 0
4, 78845, Note_on_c, 2, 76, 94
4, 78845, Note_on_c, 2, 68, 94
4, 78965, Note_on_c, 2, 68, 0
4, 78965, Note_on_c, 2, 76, 0
4, 79205, Note_on_c, 2, 69, 94
4, 79205, Note_on_c, 2, 73, 94
4, 79325, Note_on_c, 2, 73, 0
4, 79325, Note_on_c, 2, 69, 0
4, 79325, Note_on_c, 2, 69, 94
4, 79325, Note_on_c, 2, 73, 94
4, 79445, Note_on_c, 2, 73, 0
4, 79445, Note_on_c, 2, 69, 0
4, 79685, Note_on_c, 2, 66, 94
4, 79685, Note_on_c, 2, 69, 94
4, 79805, Note_on_c, 2, 69, 0
4, 79805, Note_on_c, 2, 66, 0
4, 79805, Note_on_c, 2, 66, 94
4, 79805, Note_on_c, 2, 69, 94
4, 79925, Note_on_c, 2, 69, 0
4, 79925, Note_on_c, 2, 66, 0
4, 80045, Note_on_c, 2, 68, 94
4, 80045, Note_on_c, 2, 64, 94
4, 80165, Note_on_c, 2, 64, 0
4, 80165, Note_on_c, 2, 68, 0
4, 80165, Note_on_c, 2, 69, 94
4, 80165, Note_on_c, 2, 66, 94
4, 80285, Note_on_c, 2, 66, 0
4, 80285, Note_on_c, 2, 69, 0
4, 80285, Note_on_c, 2, 66, 94
4, 80285, Note_on_c, 2, 69, 94
4, 80405, Note_on_c, 2, 69, 0
4, 80405, Note_on_c, 2, 66, 0
4, 80405, Note_on_c, 2, 78, 94
4, 80405, Note_on_c, 2, 69, 94
4, 80525, Note_on_c, 2, 69, 0
4, 80525, Note_on_c, 2, 78, 0
4, 80525, Note_on_c, 2, 66, 94
4, 80525, Note_on_c, 2, 69, 94
4, 80645, Note_on_c, 2, 69, 0
4, 80645, Note_on_c, 2, 66, 0
4, 80645, Note_on_c, 2, 68, 94
4, 80645, Note_on_c, 2, 64, 94
4, 80765, Note_on_c, 2, 64, 0
4, 80765, Note_on_c, 2, 68, 0
4, 80885, Note_on_c, 2, 71, 94
4, 80885, Note_on_c, 2, 83, 94
4, 81005, Note_on_c, 2, 83, 0
4, 81005, Note_on_c, 2, 71, 0
4, 81125, Note_on_c, 2, 83, 94
4, 81125, Note_on_c, 2, 71, 94
4, 81245, Note_on_c, 2, 71, 0
4, 81245, Note_on_c, 2, 83, 0
4, 81365, Note_on_c, 2, 83, 94
4, 81365, Note_on_c, 2, 71, 94
4, 81485, Note_on_c, 2, 71, 0
4, 81485, Note_on_c, 2, 83, 0
4, 81605, Control_c, 2, 11, 89
4, 81605, Note_on_c, 2, 83, 94
4, 81605, Note_on_c, 2, 71, 94
4, 81622, Control_c, 2, 11, 87
4, 81640, Control_c, 2, 11, 86
4, 81658, Control_c, 2, 11, 84
4, 81676, Control_c, 2, 11, 82
4, 81694, Control_c, 2, 11, 80
4, 81712, Control_c, 2, 11, 78
4, 82565, Note_on_c, 2, 71, 0
4, 82565, Note_on_c, 2, 83, 0
4, 82565, Note_on_c, 2, 83, 94
4, 82565, Note_on_c, 2, 71, 94
4, 82685, Note_on_c, 2, 71, 0
4, 82685, Note_on_c, 2, 83, 0
4, 82805, Note_on_c, 2, 83, 94
4, 82805, Note_on_c, 2, 71, 94
4, 82925, Note_on_c, 2, 71, 0
4, 82925, Note_on_c, 2, 83, 0
4, 83045, Note_on_c, 2, 71, 94
4, 83045, Note_on_c, 2, 83, 94
4, 83165, Note_on_c, 2, 83, 0
4, 83165, Note_on_c, 2, 71, 0
4, 83285, Note_on_c, 2, 71, 94
4, 83285, Note_on_c, 2, 83, 94
4, 83405, Note_on_c, 2, 83, 0
4, 83405, Note_on_c, 2, 71, 0
4, 83525, Control_c, 2, 11, 89
4, 83525, Note_on_c, 2, 71, 94
4, 83525, Note_on_c, 2, 83, 94
4, 83542, Control_c, 2, 11, 87
4, 83560, Control_c, 2, 11, 86
4, 83578, Control_c, 2, 11, 84
4, 83596, Control_c, 2, 11, 82
4, 83614, Control_c, 2, 11, 80
4, 83632, Control_c, 2, 11, 78
4, 85445, Note_on_c, 2, 83, 0
4, 85445, Note_on_c, 2, 71, 0
4, 85445, Note_on_c, 2, 80, 94
4, 85445, Note_on_c, 2, 71, 94
4, 86165, Note_on_c, 2, 71, 0
4, 86165, Note_on_c, 2, 80, 0
4, 86165, Note_on_c, 2, 76, 94
4, 86195, Note_on_c, 2, 76, 0
4, 86225, Note_on_c, 2, 74, 94
4, 86255, Note_on_c, 2, 74, 0
4, 86285, Note_on_c, 2, 71, 94
4, 86315, Note_on_c, 2, 71, 0
4, 86345, Note_on_c, 2, 69, 94
4, 86375, Note_on_c, 2, 69, 0
4, 86405, Note_on_c, 2, 68, 75
4, 86525, Note_on_c, 2, 68, 0
4, 87005, Control_c, 2, 11, 52
4, 87005, Note_on_c, 2, 64, 84
4, 87125, Note_on_c, 2, 64, 0
4, 87245, Note_on_c, 2, 64, 84
4, 87365, Note_on_c, 2, 64, 0
4, 87485, Note_on_c, 2, 76, 84
4, 87605, Note_on_c, 2, 76, 0
4, 87725, Note_on_c, 2, 64, 84
4, 87845, Note_on_c, 2, 64, 0
4, 87965, Note_on_c, 2, 64, 84
4, 88085, Note_on_c, 2, 64, 0
4, 88205, Note_on_c, 2, 76, 84
4, 88325, Note_on_c, 2, 76, 0
4, 88325, Note_on_c, 2, 76, 84
4, 88445, Note_on_c, 2, 76, 0
4, 88925, Note_on_c, 2, 64, 94
4, 89045, Note_on_c, 2, 64, 0
4, 89165, Note_on_c, 2, 64, 94
4, 89285, Note_on_c, 2, 64, 0
4, 89405, Note_on_c, 2, 76, 94
4, 89525, Note_on_c, 2, 76, 0
4, 89645, Note_on_c, 2, 64, 94
4, 89765, Note_on_c, 2, 64, 0
4, 89885, Note_on_c, 2, 64, 94
4, 90005, Note_on_c, 2, 64, 0
4, 90125, Note_on_c, 2, 76, 94
4, 90245, Note_on_c, 2, 76, 0
4, 90245, Note_on_c, 2, 76, 94
4, 90365, Note_on_c, 2, 76, 0
4, 90845, Note_on_c, 2, 66, 94
4, 90965, Note_on_c, 2, 66, 0
4, 91085, Note_on_c, 2, 78, 94
4, 91205, Note_on_c, 2, 78, 0
4, 91205, Note_on_c, 2, 78, 94
4, 91325, Note_on_c, 2, 78, 0
4, 91325, Control_c, 2, 11, 42
4, 91325, Note_on_c, 2, 67, 94
4, 91349, Control_c, 2, 11, 43
4, 91373, Control_c, 2, 11, 44
4, 91397, Control_c, 2, 11, 45
4, 91421, Control_c, 2, 11, 46
4, 91445, Control_c, 2, 11, 47
4, 91469, Control_c, 2, 11, 48
4, 91493, Control_c, 2, 11, 49
4, 91517, Control_c, 2, 11, 50
4, 91541, Control_c, 2, 11, 51
4, 91565, Note_on_c, 2, 67, 0
4, 91565, Control_c, 2, 11, 52
4, 91565, Note_on_c, 2, 69, 94
4, 91685, Note_on_c, 2, 69, 0
4, 91685, Note_on_c, 2, 67, 94
4, 93245, Note_on_c, 2, 67, 0
4, 96005, Control_c, 2, 11, 86
4, 96005, Note_on_c, 2, 76, 94
4, 96005, Note_on_c, 2, 72, 94
4, 96485, Note_on_c, 2, 72, 0
4, 96485, Note_on_c, 2, 76, 0
4, 96965, Note_on_c, 2, 81, 94
4, 96965, Note_on_c, 2, 69, 94
4, 97445, Note_on_c, 2, 69, 0
4, 97445, Note_on_c, 2, 81, 0
4, 97925, Note_on_c, 2, 65, 94
4, 97925, Note_on_c, 2, 72, 94
4, 98885, Note_on_c, 2, 72, 0
4, 98885, Note_on_c, 2, 65, 0
4, 98885, Note_on_c, 2, 69, 94
4, 99245, Note_on_c, 2, 69, 0
4, 99245, Control_c, 2, 11, 98
4, 99245, Note_on_c, 2, 67, 94
4, 99262, Control_c, 2, 11, 97
4, 99280, Control_c, 2, 11, 95
4, 99298, Control_c, 2, 11, 93
4, 99316, Control_c, 2, 11, 91
4, 99334, Control_c, 2, 11, 89
4, 99352, Control_c, 2, 11, 87
4, 99365, Note_on_c, 2, 67, 0
4, 99365, Note_on_c, 2, 69, 94
4, 99725, Note_on_c, 2, 69, 0
4, 99725, Control_c, 2, 11, 98
4, 99725, Note_on_c, 2, 67, 94
4, 99742, Control_c, 2, 11, 97
4, 99760, Control_c, 2, 11, 95
4, 99778, Control_c, 2, 11, 93
4, 99796, Control_c, 2, 11, 91
4, 99814, Control_c, 2, 11, 89
4, 99832, Control_c, 2, 11, 87
4, 99845, Note_on_c, 2, 67, 0
4, 99845, Note_on_c, 2, 69, 94
4, 99965, Note_on_c, 2, 69, 0
4, 99965, Control_c, 2, 11, 98
4, 99965, Note_on_c, 2, 67, 94
4, 99982, Control_c, 2, 11, 97
4, 100000, Control_c, 2, 11, 95
4, 100018, Control_c, 2, 11, 93
4, 100036, Control_c, 2, 11, 91
4, 100054, Control_c, 2, 11, 89
4, 100072, Control_c, 2, 11, 87
4, 100085, Note_on_c, 2, 67, 0
4, 100085, Note_on_c, 2, 69, 94
4, 100205, Note_on_c, 2, 69, 0
4, 100205, Control_c, 2, 11, 98
4, 100205, Note_on_c, 2, 67, 94
4, 100222, Control_c, 2, 11, 97
4, 100240, Control_c, 2, 11, 95
4, 100258, Control_c, 2, 11, 93
4, 100276, Control_c, 2, 11, 91
4, 100294, Control_c, 2, 11, 89
4, 100312, Control_c, 2, 11, 87
4, 100325, Note_on_c, 2, 67, 0
4, 100325, Note_on_c, 2, 69, 94
4, 100445, Note_on_c, 2, 69, 0
4, 100445, Control_c, 2, 11, 98
4, 100445, Note_on_c, 2, 67, 94
4, 100462, Control_c, 2, 11, 97
4, 100480, Control_c, 2, 11, 95
4, 100498, Control_c, 2, 11, 93
4, 100516, Control_c, 2, 11, 91
4, 100534, Control_c, 2, 11, 89
4, 100552, Control_c, 2, 11, 87
4, 100565, Note_on_c, 2, 67, 0
4, 100565, Note_on_c, 2, 69, 94
4, 100685, Note_on_c, 2, 69, 0
4, 100685, Control_c, 2, 11, 98
4, 100685, Note_on_c, 2, 69, 94
4, 100702, Control_c, 2, 11, 97
4, 100720, Control_c, 2, 11, 95
4, 100738, Control_c, 2, 11, 93
4, 100756, Control_c, 2, 11, 91
4, 100774, Control_c, 2, 11, 89
4, 100792, Control_c, 2, 11, 87
4, 100805, Note_on_c, 2, 69, 0
4, 101165, Control_c, 2, 11, 98
4, 101165, Note_on_c, 2, 72, 94
4, 101182, Control_c, 2, 11, 97
4, 101200, Control_c, 2, 11, 95
4, 101218, Control_c, 2, 11, 93
4, 101236, Control_c, 2, 11, 91
4, 101254, Control_c, 2, 11, 89
4, 101272, Control_c, 2, 11, 87
4, 101285, Note_on_c, 2, 72, 0
4, 101285, Note_on_c, 2, 72, 94
4, 101285, Note_on_c, 2, 76, 94
4, 101405, Note_on_c, 2, 76, 0
4, 101405, Note_on_c, 2, 72, 0
4, 101405, Control_c, 2, 11, 98
4, 101405, Note_on_c, 2, 72, 94
4, 101405, Note_on_c, 2, 76, 94
4, 101422, Control_c, 2, 11, 97
4, 101440, Control_c, 2, 11, 95
4, 101458, Control_c, 2, 11, 93
4, 101476, Control_c, 2, 11, 91
4, 101494, Control_c, 2, 11, 89
4, 101512, Control_c, 2, 11, 87
4, 101525, Note_on_c, 2, 76, 0
4, 101525, Note_on_c, 2, 72, 0
4, 101525, Note_on_c, 2, 71, 94
4, 101525, Note_on_c, 2, 74, 94
4, 101645, Note_on_c, 2, 74, 0
4, 101645, Note_on_c, 2, 71, 0
4, 101645, Control_c, 2, 11, 98
4, 101645, Note_on_c, 2, 71, 94
4, 101645, Note_on_c, 2, 74, 94
4, 101662, Control_c, 2, 11, 97
4, 101680, Control_c, 2, 11, 95
4, 101698, Control_c, 2, 11, 93
4, 101716, Control_c, 2, 11, 91
4, 101734, Control_c, 2, 11, 89
4, 101752, Control_c, 2, 11, 87
4, 101765, Note_on_c, 2, 74, 0
4, 101765, Note_on_c, 2, 71, 0
4, 101765, Control_c, 2, 11, 77
4, 101765, Note_on_c, 2, 72, 94
4, 101765, Note_on_c, 2, 64, 94
4, 101783, Control_c, 2, 11, 75
4, 101801, Control_c, 2, 11, 73
4, 101819, Control_c, 2, 11, 71
4, 101837, Control_c, 2, 11, 70
4, 101855, Control_c, 2, 11, 68
4, 101873, Control_c, 2, 11, 66
4, 101885, Note_on_c, 2, 64, 0
4, 101885, Note_on_c, 2, 72, 0
4, 101885, Note_on_c, 2, 69, 94
4, 101885, Note_on_c, 2, 65, 94
4, 102005, Note_on_c, 2, 65, 0
4, 102005, Note_on_c, 2, 69, 0
4, 102005, Note_on_c, 2, 67, 94
4, 102005, Note_on_c, 2, 64, 94
4, 102125, Note_on_c, 2, 64, 0
4, 102125, Note_on_c, 2, 67, 0
4, 102365, Control_c, 2, 11, 57
4, 102365, Note_on_c, 2, 65, 94
4, 102365, Note_on_c, 2, 69, 94
4, 102485, Note_on_c, 2, 69, 0
4, 102485, Note_on_c, 2, 65, 0
4, 102485, Note_on_c, 2, 64, 94
4, 102485, Note_on_c, 2, 67, 94
4, 102605, Note_on_c, 2, 67, 0
4, 102605, Note_on_c, 2, 64, 0
4, 102845, Control_c, 2, 11, 57
4, 102845, Note_on_c, 2, 65, 94
4, 102845, Note_on_c, 2, 69, 94
4, 102965, Note_on_c, 2, 69, 0
4, 102965, Note_on_c, 2, 65, 0
4, 102965, Note_on_c, 2, 67, 94
4, 102965, Note_on_c, 2, 64, 94
4, 103085, Note_on_c, 2, 64, 0
4, 103085, Note_on_c, 2, 67, 0
4, 103325, Control_c, 2, 11, 57
4, 103325, Note_on_c, 2, 69, 94
4, 103325, Note_on_c, 2, 65, 94
4, 103445, Note_on_c, 2, 65, 0
4, 103445, Note_on_c, 2, 69, 0
4, 103445, Note_on_c, 2, 67, 94
4, 103445, Note_on_c, 2, 64, 94
4, 103565, Note_on_c, 2, 64, 0
4, 103565, Note_on_c, 2, 67, 0
4, 103565, Control_c, 2, 11, 77
4, 103565, Note_on_c, 2, 74, 94
4, 103565, Note_on_c, 2, 71, 94
4, 103685, Note_on_c, 2, 71, 0
4, 103685, Note_on_c, 2, 74, 0
4, 103685, Note_on_c, 2, 72, 94
4, 103685, Note_on_c, 2, 76, 94
4, 103805, Note_on_c, 2, 76, 0
4, 103805, Note_on_c, 2, 72, 0
4, 105605, Note_on_c, 2, 76, 94
4, 105605, Note_on_c, 2, 70, 94
4, 105725, Note_on_c, 2, 70, 0
4, 105725, Note_on_c, 2, 76, 0
4, 105725, Note_on_c, 2, 76, 94
4, 105725, Note_on_c, 2, 70, 94
4, 105775, Note_on_c, 2, 70, 0
4, 105775, Note_on_c, 2, 76, 0
4, 105785, Note_on_c, 2, 76, 94
4, 105785, Note_on_c, 2, 70, 94
4, 105835, Note_on_c, 2, 70, 0
4, 105835, Note_on_c, 2, 76, 0
4, 105845, Note_on_c, 2, 70, 94
4, 105845, Note_on_c, 2, 76, 94
4, 105965, Note_on_c, 2, 76, 0
4, 105965, Note_on_c, 2, 70, 0
4, 105965, Note_on_c, 2, 76, 94
4, 105965, Note_on_c, 2, 70, 94
4, 106015, Note_on_c, 2, 70, 0
4, 106015, Note_on_c, 2, 76, 0
4, 106025, Note_on_c, 2, 70, 94
4, 106025, Note_on_c, 2, 76, 94
4, 106075, Note_on_c, 2, 76, 0
4, 106075, Note_on_c, 2, 70, 0
4, 106085, Note_on_c, 2, 76, 94
4, 106085, Note_on_c, 2, 70, 94
4, 106205, Note_on_c, 2, 70, 0
4, 106205, Note_on_c, 2, 76, 0
4, 106205, Note_on_c, 2, 70, 94
4, 106205, Note_on_c, 2, 76, 94
4, 106255, Note_on_c, 2, 76, 0
4, 106255, Note_on_c, 2, 70, 0
4, 106265, Note_on_c, 2, 76, 94
4, 106265, Note_on_c, 2, 70, 94
4, 106315, Note_on_c, 2, 70, 0
4, 106315, Note_on_c, 2, 76, 0
4, 106325, Note_on_c, 2, 70, 94
4, 106325, Note_on_c, 2, 76, 94
4, 106445, Note_on_c, 2, 76, 0
4, 106445, Note_on_c, 2, 70, 0
4, 106445, Note_on_c, 2, 76, 94
4, 106445, Note_on_c, 2, 70, 94
4, 106495, Note_on_c, 2, 70, 0
4, 106495, Note_on_c, 2, 76, 0
4, 106505, Note_on_c, 2, 76, 94
4, 106505, Note_on_c, 2, 70, 94
4, 106555, Note_on_c, 2, 70, 0
4, 106555, Note_on_c, 2, 76, 0
4, 106565, Note_on_c, 2, 75, 94
4, 106565, Note_on_c, 2, 71, 94
4, 106685, Note_on_c, 2, 71, 0
4, 106685, Note_on_c, 2, 75, 0
4, 106685, Control_c, 2, 11, 62
4, 106685, Note_on_c, 2, 83, 94
4, 106685, Note_on_c, 2, 75, 94
4, 106805, Note_on_c, 2, 75, 0
4, 106805, Note_on_c, 2, 83, 0
4, 106805, Note_on_c, 2, 76, 94
4, 106805, Note_on_c, 2, 82, 94
4, 106925, Note_on_c, 2, 82, 0
4, 106925, Note_on_c, 2, 76, 0
4, 107165, Note_on_c, 2, 75, 94
4, 107165, Note_on_c, 2, 83, 94
4, 107285, Note_on_c, 2, 83, 0
4, 107285, Note_on_c, 2, 75, 0
4, 107285, Note_on_c, 2, 82, 94
4, 107285, Note_on_c, 2, 76, 94
4, 107405, Note_on_c, 2, 76, 0
4, 107405, Note_on_c, 2, 82, 0
4, 107645, Note_on_c, 2, 83, 94
4, 107645, Note_on_c, 2, 75, 94
4, 107765, Note_on_c, 2, 75, 0
4, 107765, Note_on_c, 2, 83, 0
4, 107765, Note_on_c, 2, 76, 94
4, 107765, Note_on_c, 2, 82, 94
4, 107885, Note_on_c, 2, 82, 0
4, 107885, Note_on_c, 2, 76, 0
4, 108125, Note_on_c, 2, 83, 94
4, 108125, Note_on_c, 2, 75, 94
4, 108245, Note_on_c, 2, 75, 0
4, 108245, Note_on_c, 2, 83, 0
4, 108245, Note_on_c, 2, 76, 94
4, 108245, Note_on_c, 2, 82, 94
4, 108355, Note_on_c, 2, 82, 0
4, 108355, Note_on_c, 2, 76, 0
4, 108365, Control_c, 2, 11, 77
4, 108365, Note_on_c, 2, 73, 94
4, 108365, Note_on_c, 2, 82, 94
4, 108485, Note_on_c, 2, 82, 0
4, 108485, Note_on_c, 2, 73, 0
4, 108485, Note_on_c, 2, 83, 94
4, 108485, Note_on_c, 2, 75, 94
4, 108605, Note_on_c, 2, 75, 0
4, 108605, Note_on_c, 2, 83, 0
4, 108605, Note_on_c, 2, 71, 94
4, 108605, Note_on_c, 2, 83, 94
4, 108655, Note_on_c, 2, 83, 0
4, 108655, Note_on_c, 2, 71, 0
4, 108665, Note_on_c, 2, 83, 94
4, 108665, Note_on_c, 2, 71, 94
4, 108715, Note_on_c, 2, 71, 0
4, 108715, Note_on_c, 2, 83, 0
4, 108725, Note_on_c, 2, 71, 94
4, 108725, Note_on_c, 2, 83, 94
4, 108835, Note_on_c, 2, 83, 0
4, 108835, Note_on_c, 2, 71, 0
4, 108845, Note_on_c, 2, 71, 94
4, 108845, Note_on_c, 2, 83, 94
4, 108895, Note_on_c, 2, 83, 0
4, 108895, Note_on_c, 2, 71, 0
4, 108905, Note_on_c, 2, 83, 94
4, 108905, Note_on_c, 2, 71, 94
4, 108955, Note_on_c, 2, 71, 0
4, 108955, Note_on_c, 2, 83, 0
4, 108965, Note_on_c, 2, 83, 94
4, 108965, Note_on_c, 2, 71, 94
4, 109075, Note_on_c, 2, 71, 0
4, 109075, Note_on_c, 2, 83, 0
4, 109085, Note_on_c, 2, 83, 94
4, 109085, Note_on_c, 2, 71, 94
4, 109135, Note_on_c, 2, 71, 0
4, 109135, Note_on_c, 2, 83, 0
4, 109145, Note_on_c, 2, 83, 94
4, 109145, Note_on_c, 2, 71, 94
4, 109195, Note_on_c, 2, 71, 0
4, 109195, Note_on_c, 2, 83, 0
4, 109205, Note_on_c, 2, 83, 94
4, 109205, Note_on_c, 2, 71, 94
4, 109315, Note_on_c, 2, 71, 0
4, 109315, Note_on_c, 2, 83, 0
4, 109325, Note_on_c, 2, 83, 94
4, 109325, Note_on_c, 2, 71, 94
4, 109375, Note_on_c, 2, 71, 0
4, 109375, Note_on_c, 2, 83, 0
4, 109385, Note_on_c, 2, 83, 94
4, 109385, Note_on_c, 2, 71, 94
4, 109435, Note_on_c, 2, 71, 0
4, 109435, Note_on_c, 2, 83, 0
4, 109445, Note_on_c, 2, 83, 94
4, 109445, Note_on_c, 2, 71, 94
4, 109555, Note_on_c, 2, 71, 0
4, 109555, Note_on_c, 2, 83, 0
4, 109565, Note_on_c, 2, 83, 94
4, 109565, Note_on_c, 2, 71, 94
4, 109615, Note_on_c, 2, 71, 0
4, 109615, Note_on_c, 2, 83, 0
4, 109625, Note_on_c, 2, 83, 94
4, 109625, Note_on_c, 2, 71, 94
4, 109675, Note_on_c, 2, 71, 0
4, 109675, Note_on_c, 2, 83, 0
4, 109685, Note_on_c, 2, 83, 94
4, 109685, Note_on_c, 2, 71, 94
4, 109795, Note_on_c, 2, 71, 0
4, 109795, Note_on_c, 2, 83, 0
4, 109805, Note_on_c, 2, 83, 94
4, 109805, Note_on_c, 2, 71, 94
4, 109855, Note_on_c, 2, 71, 0
4, 109855, Note_on_c, 2, 83, 0
4, 109865, Note_on_c, 2, 83, 94
4, 109865, Note_on_c, 2, 71, 94
4, 109915, Note_on_c, 2, 71, 0
4, 109915, Note_on_c, 2, 83, 0
4, 109925, Note_on_c, 2, 71, 94
4, 109925, Note_on_c, 2, 83, 94
4, 110035, Note_on_c, 2, 83, 0
4, 110035, Note_on_c, 2, 71, 0
4, 110045, Note_on_c, 2, 71, 94
4, 110045, Note_on_c, 2, 83, 94
4, 110095, Note_on_c, 2, 83, 0
4, 110095, Note_on_c, 2, 71, 0
4, 110105, Note_on_c, 2, 83, 94
4, 110105, Note_on_c, 2, 71, 94
4, 110155, Note_on_c, 2, 71, 0
4, 110155, Note_on_c, 2, 83, 0
4, 110165, Note_on_c, 2, 83, 94
4, 110165, Note_on_c, 2, 71, 94
4, 110275, Note_on_c, 2, 71, 0
4, 110275, Note_on_c, 2, 83, 0
4, 110285, Note_on_c, 2, 71, 94
4, 110285, Note_on_c, 2, 83, 94
4, 110335, Note_on_c, 2, 83, 0
4, 110335, Note_on_c, 2, 71, 0
4, 110345, Note_on_c, 2, 83, 94
4, 110345, Note_on_c, 2, 71, 94
4, 110395, Note_on_c, 2, 71, 0
4, 110395, Note_on_c, 2, 83, 0
4, 110405, Note_on_c, 2, 71, 94
4, 110405, Note_on_c, 2, 83, 94
4, 110515, Note_on_c, 2, 83, 0
4, 110515, Note_on_c, 2, 71, 0
4, 110525, Note_on_c, 2, 83, 94
4, 110525, Note_on_c, 2, 71, 94
4, 110575, Note_on_c, 2, 71, 0
4, 110575, Note_on_c, 2, 83, 0
4, 110585, Note_on_c, 2, 71, 94
4, 110585, Note_on_c, 2, 83, 94
4, 110635, Note_on_c, 2, 83, 0
4, 110635, Note_on_c, 2, 71, 0
4, 110645, Note_on_c, 2, 71, 94
4, 110645, Note_on_c, 2, 83, 94
4, 110755, Note_on_c, 2, 83, 0
4, 110755, Note_on_c, 2, 71, 0
4, 110765, Note_on_c, 2, 83, 94
4, 110765, Note_on_c, 2, 71, 94
4, 110815, Note_on_c, 2, 71, 0
4, 110815, Note_on_c, 2, 83, 0
4, 110825, Note_on_c, 2, 83, 94
4, 110825, Note_on_c, 2, 71, 94
4, 110875, Note_on_c, 2, 71, 0
4, 110875, Note_on_c, 2, 83, 0
4, 110885, Note_on_c, 2, 83, 94
4, 110885, Note_on_c, 2, 71, 94
4, 110995, Note_on_c, 2, 71, 0
4, 110995, Note_on_c, 2, 83, 0
4, 111005, Note_on_c, 2, 83, 94
4, 111005, Note_on_c, 2, 71, 94
4, 111055, Note_on_c, 2, 71, 0
4, 111055, Note_on_c, 2, 83, 0
4, 111065, Note_on_c, 2, 83, 94
4, 111065, Note_on_c, 2, 71, 94
4, 111115, Note_on_c, 2, 71, 0
4, 111115, Note_on_c, 2, 83, 0
4, 111125, Note_on_c, 2, 71, 94
4, 111125, Note_on_c, 2, 83, 94
4, 111235, Note_on_c, 2, 83, 0
4, 111235, Note_on_c, 2, 71, 0
4, 111245, Note_on_c, 2, 83, 94
4, 111245, Note_on_c, 2, 71, 94
4, 111295, Note_on_c, 2, 71, 0
4, 111295, Note_on_c, 2, 83, 0
4, 111305, Note_on_c, 2, 71, 94
4, 111305, Note_on_c, 2, 83, 94
4, 111355, Note_on_c, 2, 83, 0
4, 111355, Note_on_c, 2, 71, 0
4, 111365, Note_on_c, 2, 71, 94
4, 111365, Note_on_c, 2, 83, 94
4, 111475, Note_on_c, 2, 83, 0
4, 111475, Note_on_c, 2, 71, 0
4, 111485, Note_on_c, 2, 71, 94
4, 111485, Note_on_c, 2, 83, 94
4, 111535, Note_on_c, 2, 83, 0
4, 111535, Note_on_c, 2, 71, 0
4, 111545, Note_on_c, 2, 71, 94
4, 111545, Note_on_c, 2, 83, 94
4, 111595, Note_on_c, 2, 83, 0
4, 111595, Note_on_c, 2, 71, 0
4, 111605, Note_on_c, 2, 83, 94
4, 111605, Note_on_c, 2, 71, 94
4, 111665, Note_on_c, 2, 71, 0
4, 111665, Note_on_c, 2, 83, 0
4, 111725, Note_on_c, 2, 76, 94
4, 111725, Note_on_c, 2, 80, 94
4, 111797, Note_on_c, 2, 80, 0
4, 111797, Note_on_c, 2, 76, 0
4, 111845, Note_on_c, 2, 75, 94
4, 111845, Note_on_c, 2, 78, 94
4, 111917, Note_on_c, 2, 78, 0
4, 111917, Note_on_c, 2, 75, 0
4, 112805, Control_c, 2, 11, 27
4, 112805, Note_on_c, 2, 71, 93
4, 112817, Control_c, 2, 11, 30
4, 112829, Control_c, 2, 11, 33
4, 112841, Control_c, 2, 11, 36
4, 112853, Control_c, 2, 11, 39
4, 112865, Control_c, 2, 11, 42
4, 112877, Control_c, 2, 11, 45
4, 112885, Note_on_c, 2, 71, 0
4, 112885, Note_on_c, 2, 75, 93
4, 112965, Note_on_c, 2, 75, 0
4, 112965, Note_on_c, 2, 78, 93
4, 113045, Note_on_c, 2, 78, 0
4, 113045, Note_on_c, 2, 81, 93
4, 113125, Note_on_c, 2, 81, 0
4, 113125, Note_on_c, 2, 80, 93
4, 113205, Note_on_c, 2, 80, 0
4, 113205, Note_on_c, 2, 78, 93
4, 113285, Note_on_c, 2, 78, 0
4, 113285, Note_on_c, 2, 76, 93
4, 113405, Note_on_c, 2, 76, 0
4, 114245, Note_on_c, 2, 71, 76
4, 114245, Note_on_c, 2, 74, 76
4, 114725, Note_on_c, 2, 74, 0
4, 114725, Note_on_c, 2, 71, 0
4, 114725, Note_on_c, 2, 64, 76
4, 114725, Note_on_c, 2, 71, 76
4, 115205, Note_on_c, 2, 71, 0
4, 115205, Note_on_c, 2, 64, 0
4, 115205, Note_on_c, 2, 76, 76
4, 115205, Note_on_c, 2, 73, 76
4, 115685, Note_on_c, 2, 73, 0
4, 115685, Note_on_c, 2, 76, 0
4, 115685, Note_on_c, 2, 69, 76
4, 115685, Note_on_c, 2, 73, 76
4, 116150, Note_on_c, 2, 73, 0
4, 116150, Note_on_c, 2, 69, 0
4, 116165, Control_c, 2, 11, 27
4, 116165, Note_on_c, 2, 78, 76
4, 116165, Note_on_c, 2, 81, 76
4, 116171, Control_c, 2, 11, 30
4, 116177, Control_c, 2, 11, 33
4, 116183, Control_c, 2, 11, 36
4, 116189, Control_c, 2, 11, 39
4, 116195, Control_c, 2, 11, 42
4, 116201, Control_c, 2, 11, 45
4, 116645, Note_on_c, 2, 81, 0
4, 116645, Note_on_c, 2, 78, 0
4, 116645, Note_on_c, 2, 78, 76
4, 116645, Note_on_c, 2, 75, 76
4, 116885, Note_on_c, 2, 75, 0
4, 116885, Note_on_c, 2, 71, 76
4, 117125, Note_on_c, 2, 71, 0
4, 117125, Note_on_c, 2, 78, 0
4, 117125, Note_on_c, 2, 80, 76
4, 117125, Note_on_c, 2, 71, 76
4, 117605, Note_on_c, 2, 71, 0
4, 117605, Note_on_c, 2, 80, 0
4, 117605, Note_on_c, 2, 68, 76
4, 117605, Note_on_c, 2, 76, 76
4, 118085, Note_on_c, 2, 76, 0
4, 118085, Note_on_c, 2, 68, 0
4, 118085, Note_on_c, 2, 76, 76
4, 118085, Note_on_c, 2, 69, 76
4, 118565, Note_on_c, 2, 76, 0
4, 118565, Note_on_c, 2, 75, 76
4, 118995, Control_c, 2, 11, 47
4, 118998, Control_c, 2, 11, 44
4, 119001, Control_c, 2, 11, 41
4, 119004, Control_c, 2, 11, 38
4, 119007, Control_c, 2, 11, 35
4, 119010, Control_c, 2, 11, 32
4, 119013, Control_c, 2, 11, 29
4, 119015, Note_on_c, 2, 75, 0
4, 119015, Note_on_c, 2, 69, 0
4, 119045, Control_c, 2, 11, 77
4, 119045, Note_on_c, 2, 72, 94
4, 119195, Note_on_c, 2, 72, 0
4, 119225, Note_on_c, 2, 71, 94
4, 119270, Note_on_c, 2, 71, 0
4, 119285, Note_on_c, 2, 71, 94
4, 119405, Note_on_c, 2, 71, 0
4, 119525, Note_on_c, 2, 72, 94
4, 119675, Note_on_c, 2, 72, 0
4, 119705, Note_on_c, 2, 71, 94
4, 119750, Note_on_c, 2, 71, 0
4, 119765, Note_on_c, 2, 71, 94
4, 119885, Note_on_c, 2, 71, 0
4, 123845, Note_on_c, 2, 71, 94
4, 123845, Note_on_c, 2, 68, 94
4, 124805, Note_on_c, 2, 68, 0
4, 124805, Note_on_c, 2, 71, 0
4, 124805, Note_on_c, 2, 69, 94
4, 124805, Note_on_c, 2, 71, 94
4, 125765, Note_on_c, 2, 71, 0
4, 125765, Note_on_c, 2, 69, 0
4, 125765, Control_c, 2, 11, 52
4, 125765, Note_on_c, 2, 71, 94
4, 125765, Note_on_c, 2, 68, 94
4, 126725, Note_on_c, 2, 68, 0
4, 126725, Note_on_c, 2, 71, 0
4, 126725, Note_on_c, 2, 69, 94
4, 126725, Note_on_c, 2, 71, 94
4, 127685, Note_on_c, 2, 71, 0
4, 127685, Note_on_c, 2, 69, 0
4, 127685, Control_c, 2, 11, 52
4, 127685, Note_on_c, 2, 68, 94
4, 127685, Note_on_c, 2, 71, 94
4, 127794, Control_c, 2, 11, 53
4, 127904, Control_c, 2, 11, 54
4, 128014, Control_c, 2, 11, 55
4, 128123, Control_c, 2, 11, 56
4, 128233, Control_c, 2, 11, 57
4, 128343, Control_c, 2, 11, 58
4, 128453, Control_c, 2, 11, 59
4, 128562, Control_c, 2, 11, 60
4, 128645, Note_on_c, 2, 71, 0
4, 128645, Note_on_c, 2, 68, 0
4, 128645, Note_on_c, 2, 69, 94
4, 128645, Note_on_c, 2, 72, 94
4, 128672, Control_c, 2, 11, 61
4, 128782, Control_c, 2, 11, 62
4, 128891, Control_c, 2, 11, 62
4, 129001, Control_c, 2, 11, 63
4, 129111, Control_c, 2, 11, 63
4, 129221, Control_c, 2, 11, 64
4, 129330, Control_c, 2, 11, 65
4, 129440, Control_c, 2, 11, 65
4, 129550, Control_c, 2, 11, 66
4, 129605, Note_on_c, 2, 72, 0
4, 129605, Note_on_c, 2, 69, 0
4, 129605, Note_on_c, 2, 72, 94
4, 129605, Note_on_c, 2, 69, 94
4, 129659, Control_c, 2, 11, 66
4, 129769, Control_c, 2, 11, 67
4, 129879, Control_c, 2, 11, 68
4, 129989, Control_c, 2, 11, 68
4, 130098, Control_c, 2, 11, 69
4, 130208, Control_c, 2, 11, 70
4, 130318, Control_c, 2, 11, 70
4, 130427, Control_c, 2, 11, 71
4, 130537, Control_c, 2, 11, 71
4, 130647, Control_c, 2, 11, 72
4, 130757, Control_c, 2, 11, 73
4, 130866, Control_c, 2, 11, 73
4, 130976, Control_c, 2, 11, 74
4, 131086, Control_c, 2, 11, 74
4, 131195, Control_c, 2, 11, 75
4, 131305, Control_c, 2, 11, 76
4, 131415, Control_c, 2, 11, 76
4, 131525, Note_on_c, 2, 69, 0
4, 131525, Note_on_c, 2, 72, 0
4, 131525, Control_c, 2, 11, 77
4, 131525, Note_on_c, 2, 71, 94
4, 131525, Note_on_c, 2, 81, 94
4, 132485, Control_c, 2, 11, 77
4, 132549, Control_c, 2, 11, 78
4, 132613, Control_c, 2, 11, 78
4, 132677, Control_c, 2, 11, 79
4, 132741, Control_c, 2, 11, 79
4, 132805, Control_c, 2, 11, 80
4, 132869, Control_c, 2, 11, 81
4, 132933, Control_c, 2, 11, 81
4, 132997, Control_c, 2, 11, 82
4, 133061, Control_c, 2, 11, 82
4, 133125, Control_c, 2, 11, 83
4, 133189, Control_c, 2, 11, 84
4, 133253, Control_c, 2, 11, 84
4, 133317, Control_c, 2, 11, 85
4, 133381, Control_c, 2, 11, 86
4, 133445, Note_on_c, 2, 81, 0
4, 133445, Note_on_c, 2, 71, 0
4, 133445, Control_c, 2, 11, 86
4, 133445, Note_on_c, 2, 81, 94
4, 133445, Note_on_c, 2, 71, 94
4, 135365, Note_on_c, 2, 71, 0
4, 135365, Note_on_c, 2, 81, 0
4, 135365, Note_on_c, 2, 68, 114
4, 135485, Note_on_c, 2, 68, 0
4, 135485, Note_on_c, 2, 66, 94
4, 135605, Note_on_c, 2, 66, 0
4, 135605, Note_on_c, 2, 69, 114
4, 135725, Note_on_c, 2, 69, 0
4, 135725, Note_on_c, 2, 68, 94
4, 135845, Note_on_c, 2, 68, 0
4, 135845, Note_on_c, 2, 66, 114
4, 135965, Note_on_c, 2, 66, 0
4, 135965, Note_on_c, 2, 64, 94
4, 136085, Note_on_c, 2, 64, 0
4, 136085, Note_on_c, 2, 63, 114
4, 136205, Note_on_c, 2, 63, 0
4, 136205, Note_on_c, 2, 64, 94
4, 136325, Note_on_c, 2, 64, 0
4, 136325, Note_on_c, 2, 66, 114
4, 136445, Note_on_c, 2, 66, 0
4, 136445, Note_on_c, 2, 68, 94
4, 136565, Note_on_c, 2, 68, 0
4, 136565, Note_on_c, 2, 69, 114
4, 136685, Note_on_c, 2, 69, 0
4, 136685, Note_on_c, 2, 70, 94
4, 136805, Note_on_c, 2, 70, 0
4, 136805, Note_on_c, 2, 71, 114
4, 136925, Note_on_c, 2, 71, 0
4, 136925, Note_on_c, 2, 73, 94
4, 137045, Note_on_c, 2, 73, 0
4, 137045, Note_on_c, 2, 75, 114
4, 137165, Note_on_c, 2, 75, 0
4, 137165, Note_on_c, 2, 76, 94
4, 137285, Note_on_c, 2, 76, 0
4, 137285, Note_on_c, 2, 78, 114
4, 137405, Note_on_c, 2, 78, 0
4, 137405, Note_on_c, 2, 80, 94
4, 137525, Note_on_c, 2, 80, 0
4, 137525, Note_on_c, 2, 81, 114
4, 137645, Note_on_c, 2, 81, 0
4, 137645, Note_on_c, 2, 82, 94
4, 137765, Note_on_c, 2, 82, 0
4, 137765, Note_on_c, 2, 83, 114
4, 137885, Note_on_c, 2, 83, 0
4, 137885, Note_on_c, 2, 83, 94
4, 138005, Note_on_c, 2, 83, 0
4, 138005, Note_on_c, 2, 83, 114
4, 138125, Note_on_c, 2, 83, 0
4, 138125, Note_on_c, 2, 83, 94
4, 138245, Note_on_c, 2, 83, 0
4, 138245, Note_on_c, 2, 68, 114
4, 138365, Note_on_c, 2, 68, 0
4, 138365, Note_on_c, 2, 66, 94
4, 138485, Note_on_c, 2, 66, 0
4, 138485, Note_on_c, 2, 69, 114
4, 138605, Note_on_c, 2, 69, 0
4, 138605, Note_on_c, 2, 68, 94
4, 138725, Note_on_c, 2, 68, 0
4, 138725, Note_on_c, 2, 66, 114
4, 138845, Note_on_c, 2, 66, 0
4, 138845, Note_on_c, 2, 64, 94
4, 138965, Note_on_c, 2, 64, 0
4, 138965, Note_on_c, 2, 63, 114
4, 139085, Note_on_c, 2, 63, 0
4, 139085, Note_on_c, 2, 64, 94
4, 139205, Note_on_c, 2, 64, 0
4, 139205, Note_on_c, 2, 66, 114
4, 139325, Note_on_c, 2, 66, 0
4, 139325, Note_on_c, 2, 68, 94
4, 139445, Note_on_c, 2, 68, 0
4, 139445, Note_on_c, 2, 69, 114
4, 139565, Note_on_c, 2, 69, 0
4, 139565, Note_on_c, 2, 70, 94
4, 139685, Note_on_c, 2, 70, 0
4, 139685, Note_on_c, 2, 71, 114
4, 139805, Note_on_c, 2, 71, 0
4, 139805, Note_on_c, 2, 73, 94
4, 139925, Note_on_c, 2, 73, 0
4, 139925, Note_on_c, 2, 75, 114
4, 140045, Note_on_c, 2, 75, 0
4, 140045, Note_on_c, 2, 76, 94
4, 140165, Note_on_c, 2, 76, 0
4, 140165, Note_on_c, 2, 66, 114
4, 140165, Note_on_c, 2, 78, 114
4, 140285, Note_on_c, 2, 78, 0
4, 140285, Note_on_c, 2, 66, 0
4, 140285, Note_on_c, 2, 80, 94
4, 140285, Note_on_c, 2, 68, 94
4, 140405, Note_on_c, 2, 68, 0
4, 140405, Note_on_c, 2, 80, 0
4, 140405, Note_on_c, 2, 81, 114
4, 140405, Note_on_c, 2, 69, 114
4, 140525, Note_on_c, 2, 69, 0
4, 140525, Note_on_c, 2, 81, 0
4, 140525, Note_on_c, 2, 82, 94
4, 140525, Note_on_c, 2, 70, 94
4, 140645, Note_on_c, 2, 70, 0
4, 140645, Note_on_c, 2, 82, 0
4, 140645, Note_on_c, 2, 83, 114
4, 140645, Note_on_c, 2, 71, 114
4, 140765, Note_on_c, 2, 71, 0
4, 140765, Note_on_c, 2, 83, 0
4, 140765, Note_on_c, 2, 83, 94
4, 140765, Note_on_c, 2, 71, 94
4, 140885, Note_on_c, 2, 71, 0
4, 140885, Note_on_c, 2, 83, 0
4, 140885, Note_on_c, 2, 71, 114
4, 140885, Note_on_c, 2, 83, 114
4, 141005, Note_on_c, 2, 83, 0
4, 141005, Note_on_c, 2, 71, 0
4, 141005, Note_on_c, 2, 83, 94
4, 141005, Note_on_c, 2, 71, 94
4, 141125, Note_on_c, 2, 71, 0
4, 141125, Note_on_c, 2, 83, 0
4, 141125, Note_on_c, 2, 76, 94
4, 141125, Note_on_c, 2, 64, 94
4, 141245, Note_on_c, 2, 64, 0
4, 141245, Note_on_c, 2, 76, 0
4, 141605, Control_c, 2, 11, 98
4, 141605, Note_on_c, 2, 76, 94
4, 141623, Control_c, 2, 11, 97
4, 141641, Control_c, 2, 11, 96
4, 141659, Control_c, 2, 11, 95
4, 141677, Control_c, 2, 11, 94
4, 141695, Control_c, 2, 11, 92
4, 141713, Control_c, 2, 11, 91
4, 141731, Control_c, 2, 11, 90
4, 141749, Control_c, 2, 11, 89
4, 141767, Control_c, 2, 11, 87
4, 141785, Note_on_c, 2, 76, 0
4, 141785, Control_c, 2, 11, 86
4, 141785, Note_on_c, 2, 71, 94
4, 141845, Note_on_c, 2, 71, 0
4, 141845, Note_on_c, 2, 71, 94
4, 141965, Note_on_c, 2, 71, 0
4, 142085, Note_on_c, 2, 68, 94
4, 142085, Note_on_c, 2, 80, 94
4, 142205, Note_on_c, 2, 80, 0
4, 142205, Note_on_c, 2, 68, 0
4, 142565, Control_c, 2, 11, 98
4, 142565, Note_on_c, 2, 68, 94
4, 142565, Note_on_c, 2, 80, 94
4, 142583, Control_c, 2, 11, 97
4, 142601, Control_c, 2, 11, 96
4, 142619, Control_c, 2, 11, 95
4, 142637, Control_c, 2, 11, 94
4, 142655, Control_c, 2, 11, 92
4, 142673, Control_c, 2, 11, 91
4, 142691, Control_c, 2, 11, 90
4, 142709, Control_c, 2, 11, 89
4, 142727, Control_c, 2, 11, 87
4, 142745, Note_on_c, 2, 80, 0
4, 142745, Note_on_c, 2, 68, 0
4, 142745, Control_c, 2, 11, 86
4, 142745, Note_on_c, 2, 64, 94
4, 142745, Note_on_c, 2, 76, 94
4, 142805, Note_on_c, 2, 76, 0
4, 142805, Note_on_c, 2, 64, 0
4, 142805, Note_on_c, 2, 76, 94
4, 142805, Note_on_c, 2, 64, 94
4, 142925, Note_on_c, 2, 64, 0
4, 142925, Note_on_c, 2, 76, 0
4, 143045, Note_on_c, 2, 71, 94
4, 143045, Note_on_c, 2, 59, 94
4, 143165, Note_on_c, 2, 59, 0
4, 143165, Note_on_c, 2, 71, 0
4, 143525, Control_c, 2, 11, 98
4, 143525, Note_on_c, 2, 83, 94
4, 143525, Note_on_c, 2, 71, 94
4, 143543, Control_c, 2, 11, 97
4, 143561, Control_c, 2, 11, 96
4, 143579, Control_c, 2, 11, 95
4, 143597, Control_c, 2, 11, 94
4, 143615, Control_c, 2, 11, 92
4, 143633, Control_c, 2, 11, 91
4, 143651, Control_c, 2, 11, 90
4, 143669, Control_c, 2, 11, 89
4, 143687, Control_c, 2, 11, 87
4, 143705, Note_on_c, 2, 71, 0
4, 143705, Note_on_c, 2, 83, 0
4, 143705, Control_c, 2, 11, 86
4, 143705, Note_on_c, 2, 80, 94
4, 143705, Note_on_c, 2, 68, 94
4, 143765, Note_on_c, 2, 68, 0
4, 143765, Note_on_c, 2, 80, 0
4, 143765, Note_on_c, 2, 80, 94
4, 143765, Note_on_c, 2, 68, 94
4, 143885, Note_on_c, 2, 68, 0
4, 143885, Note_on_c, 2, 80, 0
4, 144005, Note_on_c, 2, 76, 94
4, 144125, Note_on_c, 2, 76, 0
4, 144485, Control_c, 2, 11, 98
4, 144485, Note_on_c, 2, 76, 94
4, 144503, Control_c, 2, 11, 97
4, 144521, Control_c, 2, 11, 96
4, 144539, Control_c, 2, 11, 95
4, 144557, Control_c, 2, 11, 94
4, 144575, Control_c, 2, 11, 92
4, 144593, Control_c, 2, 11, 91
4, 144611, Control_c, 2, 11, 90
4, 144629, Control_c, 2, 11, 89
4, 144647, Control_c, 2, 11, 87
4, 144665, Note_on_c, 2, 76, 0
4, 144665, Control_c, 2, 11, 86
4, 144665, Note_on_c, 2, 71, 94
4, 144725, Note_on_c, 2, 71, 0
4, 144725, Note_on_c, 2, 71, 94
4, 144845, Note_on_c, 2, 71, 0
4, 144965, Note_on_c, 2, 76, 94
4, 145085, Note_on_c, 2, 76, 0
4, 145085, Note_on_c, 2, 71, 94
4, 145205, Note_on_c, 2, 71, 0
4, 145205, Note_on_c, 2, 76, 94
4, 145325, Note_on_c, 2, 76, 0
4, 145325, Note_on_c, 2, 71, 94
4, 145445, Note_on_c, 2, 71, 0
4, 145445, Note_on_c, 2, 76, 94
4, 145565, Note_on_c, 2, 76, 0
4, 145565, Note_on_c, 2, 71, 94
4, 145685, Note_on_c, 2, 71, 0
4, 145685, Note_on_c, 2, 76, 94
4, 145805, Note_on_c, 2, 76, 0
4, 145805, Note_on_c, 2, 71, 94
4, 145925, Note_on_c, 2, 71, 0
4, 145925, Note_on_c, 2, 76, 94
4, 146045, Note_on_c, 2, 76, 0
4, 146045, Note_on_c, 2, 71, 94
4, 146165, Note_on_c, 2, 71, 0
4, 146165, Note_on_c, 2, 76, 94
4, 146285, Note_on_c, 2, 76, 0
4, 146285, Note_on_c, 2, 71, 94
4, 146405, Note_on_c, 2, 71, 0
4, 146405, Note_on_c, 2, 76, 94
4, 146525, Note_on_c, 2, 76, 0
4, 146525, Note_on_c, 2, 71, 94
4, 146645, Note_on_c, 2, 71, 0
4, 146645, Note_on_c, 2, 76, 94
4, 146765, Note_on_c, 2, 76, 0
4, 146765, Note_on_c, 2, 71, 94
4, 146885, Note_on_c, 2, 71, 0
4, 146885, Note_on_c, 2, 76, 94
4, 147005, Note_on_c, 2, 76, 0
4, 147365, Note_on_c, 2, 76, 94
4, 147485, Note_on_c, 2, 76, 0
4, 147845, Note_on_c, 2, 64, 94
4, 147965, Note_on_c, 2, 64, 0
4, 148325, Control_c, 2, 121, 0
4, 148325, End_track
5, 0, Start_track
5, 0, MIDI_port, 0
5, 0, Title_t, "2 Fagotti"
5, 0, Program_c, 3, 70
5, 0, Control_c, 3, 10, 80
5, 13, Control_c, 3, 121, 0
5, 18, Program_c, 3, 70
5, 23, Pitch_bend_c, 3, 8192
5, 28, Control_c, 3, 11, 102
5, 33, Control_c, 3, 7, 127
5, 38, Control_c, 3, 91, 67
5, 43, Control_c, 3, 93, 0
5, 493, Control_c, 3, 11, 87
5, 493, Note_on_c, 3, 52, 93
5, 643, Note_on_c, 3, 52, 0
5, 673, Note_on_c, 3, 47, 93
5, 723, Note_on_c, 3, 47, 0
5, 733, Note_on_c, 3, 47, 93
5, 793, Note_on_c, 3, 47, 0
5, 973, Control_c, 3, 11, 107
5, 973, Note_on_c, 3, 56, 93
5, 991, Control_c, 3, 11, 104
5, 1009, Control_c, 3, 11, 101
5, 1027, Control_c, 3, 11, 98
5, 1045, Control_c, 3, 11, 95
5, 1063, Control_c, 3, 11, 92
5, 1081, Control_c, 3, 11, 89
5, 1123, Note_on_c, 3, 56, 0
5, 1153, Note_on_c, 3, 52, 93
5, 1203, Note_on_c, 3, 52, 0
5, 1213, Note_on_c, 3, 52, 93
5, 1273, Note_on_c, 3, 52, 0
5, 1453, Control_c, 3, 11, 107
5, 1453, Note_on_c, 3, 59, 93
5, 1471, Control_c, 3, 11, 104
5, 1489, Control_c, 3, 11, 101
5, 1507, Control_c, 3, 11, 98
5, 1525, Control_c, 3, 11, 95
5, 1543, Control_c, 3, 11, 92
5, 1561, Control_c, 3, 11, 89
5, 1603, Note_on_c, 3, 59, 0
5, 1633, Note_on_c, 3, 56, 93
5, 1683, Note_on_c, 3, 56, 0
5, 1693, Note_on_c, 3, 56, 93
5, 1753, Note_on_c, 3, 56, 0
5, 1813, Note_on_c, 3, 52, 93
5, 1873, Note_on_c, 3, 52, 0
5, 1933, Note_on_c, 3, 47, 93
5, 1993, Note_on_c, 3, 47, 0
5, 6253, Control_c, 3, 11, 87
5, 6253, Note_on_c, 3, 57, 93
5, 6403, Note_on_c, 3, 57, 0
5, 6433, Note_on_c, 3, 52, 93
5, 6483, Note_on_c, 3, 52, 0
5, 6493, Note_on_c, 3, 52, 93
5, 6553, Note_on_c, 3, 52, 0
5, 6733, Control_c, 3, 11, 107
5, 6733, Note_on_c, 3, 61, 93
5, 6751, Control_c, 3, 11, 104
5, 6769, Control_c, 3, 11, 101
5, 6787, Control_c, 3, 11, 98
5, 6805, Control_c, 3, 11, 95
5, 6823, Control_c, 3, 11, 92
5, 6841, Control_c, 3, 11, 89
5, 6883, Note_on_c, 3, 61, 0
5, 6913, Note_on_c, 3, 57, 93
5, 6963, Note_on_c, 3, 57, 0
5, 6973, Note_on_c, 3, 57, 93
5, 7033, Note_on_c, 3, 57, 0
5, 7213, Control_c, 3, 11, 107
5, 7213, Note_on_c, 3, 64, 93
5, 7231, Control_c, 3, 11, 104
5, 7249, Control_c, 3, 11, 101
5, 7267, Control_c, 3, 11, 98
5, 7285, Control_c, 3, 11, 95
5, 7303, Control_c, 3, 11, 92
5, 7321, Control_c, 3, 11, 89
5, 7363, Note_on_c, 3, 64, 0
5, 7393, Note_on_c, 3, 61, 93
5, 7443, Note_on_c, 3, 61, 0
5, 7453, Note_on_c, 3, 61, 93
5, 7513, Note_on_c, 3, 61, 0
5, 7573, Note_on_c, 3, 57, 93
5, 7633, Note_on_c, 3, 57, 0
5, 7693, Note_on_c, 3, 52, 93
5, 7753, Note_on_c, 3, 52, 0
5, 8173, Control_c, 3, 11, 32
5, 8173, Note_on_c, 3, 62, 93
5, 8173, Note_on_c, 3, 59, 93
5, 8179, Control_c, 3, 11, 35
5, 8200, Control_c, 3, 11, 38
5, 8217, Control_c, 3, 11, 39
5, 8234, Control_c, 3, 11, 40
5, 8251, Control_c, 3, 11, 41
5, 8268, Control_c, 3, 11, 42
5, 8285, Control_c, 3, 11, 43
5, 8302, Control_c, 3, 11, 44
5, 8319, Control_c, 3, 11, 45
5, 8336, Control_c, 3, 11, 46
5, 8353, Control_c, 3, 11, 47
5, 8653, Note_on_c, 3, 59, 0
5, 8653, Note_on_c, 3, 62, 0
5, 8653, Note_on_c, 3, 52, 93
5, 8653, Note_on_c, 3, 59, 93
5, 9133, Note_on_c, 3, 59, 0
5, 9133, Note_on_c, 3, 52, 0
5, 9133, Note_on_c, 3, 60, 93
5, 9133, Note_on_c, 3, 45, 93
5, 9613, Note_on_c, 3, 45, 0
5, 9613, Note_on_c, 3, 60, 0
5, 9613, Note_on_c, 3, 60, 93
5, 9613, Note_on_c, 3, 45, 93
5, 10033, Note_on_c, 3, 45, 0
5, 10033, Note_on_c, 3, 60, 0
5, 10033, Note_on_c, 3, 45, 93
5, 10033, Note_on_c, 3, 60, 93
5, 10093, Note_on_c, 3, 60, 0
5, 10093, Note_on_c, 3, 45, 0
5, 10093, Control_c, 3, 11, 37
5, 10093, Note_on_c, 3, 45, 93
5, 10093, Note_on_c, 3, 60, 93
5, 10117, Control_c, 3, 11, 38
5, 10141, Control_c, 3, 11, 39
5, 10165, Control_c, 3, 11, 40
5, 10189, Control_c, 3, 11, 41
5, 10213, Control_c, 3, 11, 42
5, 10237, Control_c, 3, 11, 43
5, 10261, Control_c, 3, 11, 44
5, 10285, Control_c, 3, 11, 45
5, 10309, Control_c, 3, 11, 46
5, 10333, Note_on_c, 3, 45, 0
5, 10333, Control_c, 3, 11, 47
5, 10333, Note_on_c, 3, 53, 93
5, 10357, Control_c, 3, 11, 48
5, 10381, Control_c, 3, 11, 49
5, 10405, Control_c, 3, 11, 50
5, 10429, Control_c, 3, 11, 51
5, 10453, Control_c, 3, 11, 52
5, 10477, Control_c, 3, 11, 53
5, 10501, Control_c, 3, 11, 54
5, 10525, Control_c, 3, 11, 55
5, 10549, Control_c, 3, 11, 56
5, 10573, Note_on_c, 3, 53, 0
5, 10573, Note_on_c, 3, 60, 0
5, 10573, Control_c, 3, 11, 57
5, 10573, Note_on_c, 3, 55, 93
5, 10573, Note_on_c, 3, 59, 93
5, 10592, Control_c, 3, 11, 56
5, 10611, Control_c, 3, 11, 55
5, 10630, Control_c, 3, 11, 54
5, 10649, Control_c, 3, 11, 53
5, 10669, Control_c, 3, 11, 52
5, 10688, Control_c, 3, 11, 51
5, 10707, Control_c, 3, 11, 50
5, 10726, Control_c, 3, 11, 49
5, 10745, Control_c, 3, 11, 48
5, 10765, Control_c, 3, 11, 47
5, 10784, Control_c, 3, 11, 46
5, 10803, Control_c, 3, 11, 45
5, 10822, Control_c, 3, 11, 44
5, 10841, Control_c, 3, 11, 43
5, 10861, Control_c, 3, 11, 42
5, 10880, Control_c, 3, 11, 41
5, 10899, Control_c, 3, 11, 40
5, 10918, Control_c, 3, 11, 39
5, 10937, Control_c, 3, 11, 38
5, 10957, Control_c, 3, 11, 37
5, 10976, Control_c, 3, 11, 36
5, 10995, Control_c, 3, 11, 35
5, 11014, Control_c, 3, 11, 34
5, 11033, Control_c, 3, 11, 33
5, 11053, Note_on_c, 3, 59, 0
5, 11053, Note_on_c, 3, 55, 0
5, 11053, Control_c, 3, 11, 37
5, 11053, Note_on_c, 3, 48, 93
5, 11053, Note_on_c, 3, 60, 93
5, 12013, Note_on_c, 3, 60, 0
5, 12013, Note_on_c, 3, 48, 0
5, 12013, Note_on_c, 3, 58, 93
5, 12013, Note_on_c, 3, 55, 93
5, 12973, Note_on_c, 3, 55, 0
5, 12973, Note_on_c, 3, 58, 0
5, 12973, Control_c, 3, 11, 37
5, 12973, Note_on_c, 3, 57, 93
5, 12973, Note_on_c, 3, 53, 93
5, 13046, Control_c, 3, 11, 38
5, 13120, Control_c, 3, 11, 39
5, 13194, Control_c, 3, 11, 40
5, 13268, Control_c, 3, 11, 41
5, 13342, Control_c, 3, 11, 42
5, 13416, Control_c, 3, 11, 43
5, 13489, Control_c, 3, 11, 44
5, 13563, Control_c, 3, 11, 45
5, 13637, Control_c, 3, 11, 46
5, 13711, Control_c, 3, 11, 47
5, 13785, Control_c, 3, 11, 48
5, 13859, Control_c, 3, 11, 49
5, 13933, Note_on_c, 3, 53, 0
5, 13933, Control_c, 3, 11, 50
5, 13933, Note_on_c, 3, 54, 93
5, 14006, Control_c, 3, 11, 51
5, 14080, Control_c, 3, 11, 52
5, 14154, Control_c, 3, 11, 53
5, 14228, Control_c, 3, 11, 54
5, 14302, Control_c, 3, 11, 55
5, 14376, Control_c, 3, 11, 56
5, 14449, Control_c, 3, 11, 57
5, 14523, Control_c, 3, 11, 58
5, 14597, Control_c, 3, 11, 59
5, 14671, Control_c, 3, 11, 60
5, 14745, Control_c, 3, 11, 61
5, 14819, Control_c, 3, 11, 62
5, 14893, Control_c, 3, 11, 63
5, 14966, Control_c, 3, 11, 64
5, 15040, Control_c, 3, 11, 65
5, 15114, Control_c, 3, 11, 66
5, 15188, Control_c, 3, 11, 67
5, 15262, Control_c, 3, 11, 68
5, 15336, Control_c, 3, 11, 69
5, 15409, Control_c, 3, 11, 70
5, 15483, Control_c, 3, 11, 71
5, 15557, Control_c, 3, 11, 72
5, 15631, Control_c, 3, 11, 73
5, 15705, Control_c, 3, 11, 74
5, 15779, Control_c, 3, 11, 75
5, 15853, Control_c, 3, 11, 76
5, 15926, Control_c, 3, 11, 77
5, 16000, Control_c, 3, 11, 78
5, 16074, Control_c, 3, 11, 79
5, 16148, Control_c, 3, 11, 80
5, 16222, Control_c, 3, 11, 81
5, 16296, Control_c, 3, 11, 82
5, 16369, Control_c, 3, 11, 83
5, 16443, Control_c, 3, 11, 84
5, 16517, Control_c, 3, 11, 85
5, 16591, Control_c, 3, 11, 86
5, 16665, Control_c, 3, 11, 87
5, 16739, Control_c, 3, 11, 88
5, 16813, Note_on_c, 3, 54, 0
5, 16813, Note_on_c, 3, 57, 0
5, 16813, Control_c, 3, 11, 89
5, 16813, Note_on_c, 3, 55, 93
5, 16813, Note_on_c, 3, 52, 93
5, 16886, Control_c, 3, 11, 90
5, 16960, Control_c, 3, 11, 91
5, 17034, Control_c, 3, 11, 92
5, 17108, Control_c, 3, 11, 93
5, 17182, Control_c, 3, 11, 94
5, 17256, Control_c, 3, 11, 95
5, 17329, Control_c, 3, 11, 96
5, 17403, Control_c, 3, 11, 97
5, 17477, Control_c, 3, 11, 98
5, 17551, Control_c, 3, 11, 99
5, 17625, Control_c, 3, 11, 100
5, 17699, Control_c, 3, 11, 101
5, 17773, Note_on_c, 3, 52, 0
5, 17773, Note_on_c, 3, 55, 0
5, 17773, Control_c, 3, 11, 102
5, 17773, Note_on_c, 3, 51, 93
5, 17773, Note_on_c, 3, 54, 93
5, 17833, Note_on_c, 3, 54, 0
5, 17833, Note_on_c, 3, 51, 0
5, 17893, Note_on_c, 3, 59, 93
5, 17893, Note_on_c, 3, 47, 93
5, 17953, Note_on_c, 3, 47, 0
5, 17953, Note_on_c, 3, 59, 0
5, 18013, Note_on_c, 3, 59, 93
5, 18013, Note_on_c, 3, 47, 93
5, 18073, Note_on_c, 3, 47, 0
5, 18073, Note_on_c, 3, 59, 0
5, 18133, Note_on_c, 3, 59, 93
5, 18133, Note_on_c, 3, 47, 93
5, 18193, Note_on_c, 3, 47, 0
5, 18193, Note_on_c, 3, 59, 0
5, 18253, Note_on_c, 3, 59, 93
5, 18253, Note_on_c, 3, 47, 93
5, 18313, Note_on_c, 3, 47, 0
5, 18313, Note_on_c, 3, 59, 0
5, 18373, Note_on_c, 3, 59, 93
5, 18373, Note_on_c, 3, 47, 93
5, 18433, Note_on_c, 3, 47, 0
5, 18433, Note_on_c, 3, 59, 0
5, 18493, Note_on_c, 3, 59, 93
5, 18493, Note_on_c, 3, 47, 93
5, 18553, Note_on_c, 3, 47, 0
5, 18553, Note_on_c, 3, 59, 0
5, 18613, Note_on_c, 3, 59, 93
5, 18613, Note_on_c, 3, 47, 93
5, 18673, Note_on_c, 3, 47, 0
5, 18673, Note_on_c, 3, 59, 0
5, 18733, Control_c, 3, 11, 47
5, 18733, Note_on_c, 3, 66, 93
5, 18733, Note_on_c, 3, 63, 93
5, 19213, Note_on_c, 3, 63, 0
5, 19213, Note_on_c, 3, 66, 0
5, 19213, Note_on_c, 3, 59, 93
5, 19213, Note_on_c, 3, 63, 93
5, 19693, Note_on_c, 3, 63, 0
5, 19693, Note_on_c, 3, 59, 0
5, 19693, Note_on_c, 3, 54, 93
5, 19693, Note_on_c, 3, 61, 93
5, 19813, Note_on_c, 3, 61, 0
5, 19813, Note_on_c, 3, 54, 0
5, 20173, Note_on_c, 3, 66, 93
5, 20173, Note_on_c, 3, 54, 93
5, 20593, Note_on_c, 3, 54, 0
5, 20593, Note_on_c, 3, 66, 0
5, 20593, Note_on_c, 3, 54, 93
5, 20593, Note_on_c, 3, 66, 93
5, 20653, Note_on_c, 3, 66, 0
5, 20653, Note_on_c, 3, 54, 0
5, 20653, Note_on_c, 3, 66, 93
5, 20653, Note_on_c, 3, 63, 93
5, 21133, Note_on_c, 3, 63, 0
5, 21133, Note_on_c, 3, 66, 0
5, 21133, Note_on_c, 3, 59, 93
5, 21133, Note_on_c, 3, 63, 93
5, 21733, Note_on_c, 3, 63, 0
5, 21733, Note_on_c, 3, 59, 0
5, 22093, Note_on_c, 3, 59, 93
5, 22093, Note_on_c, 3, 47, 93
5, 22513, Note_on_c, 3, 47, 0
5, 22513, Note_on_c, 3, 59, 0
5, 22513, Note_on_c, 3, 59, 93
5, 22513, Note_on_c, 3, 47, 93
5, 22573, Note_on_c, 3, 47, 0
5, 22573, Note_on_c, 3, 59, 0
5, 22573, Control_c, 3, 11, 47
5, 22573, Note_on_c, 3, 51, 93
5, 22573, Note_on_c, 3, 59, 93
5, 22600, Control_c, 3, 11, 48
5, 22628, Control_c, 3, 11, 49
5, 22656, Control_c, 3, 11, 50
5, 22684, Control_c, 3, 11, 51
5, 22712, Control_c, 3, 11, 52
5, 22740, Control_c, 3, 11, 53
5, 22768, Control_c, 3, 11, 54
5, 22796, Control_c, 3, 11, 55
5, 22824, Control_c, 3, 11, 56
5, 22852, Control_c, 3, 11, 57
5, 22880, Control_c, 3, 11, 58
5, 22908, Control_c, 3, 11, 59
5, 22936, Control_c, 3, 11, 60
5, 22964, Control_c, 3, 11, 61
5, 22992, Control_c, 3, 11, 62
5, 23020, Control_c, 3, 11, 63
5, 23048, Control_c, 3, 11, 64
5, 23076, Control_c, 3, 11, 65
5, 23104, Control_c, 3, 11, 66
5, 23132, Control_c, 3, 11, 67
5, 23160, Control_c, 3, 11, 68
5, 23188, Control_c, 3, 11, 69
5, 23216, Control_c, 3, 11, 70
5, 23244, Control_c, 3, 11, 71
5, 23272, Control_c, 3, 11, 72
5, 23300, Control_c, 3, 11, 73
5, 23328, Control_c, 3, 11, 74
5, 23356, Control_c, 3, 11, 75
5, 23384, Control_c, 3, 11, 76
5, 23412, Control_c, 3, 11, 77
5, 23473, Control_c, 3, 11, 77
5, 23478, Control_c, 3, 11, 74
5, 23484, Control_c, 3, 11, 71
5, 23490, Control_c, 3, 11, 68
5, 23496, Control_c, 3, 11, 65
5, 23502, Control_c, 3, 11, 62
5, 23508, Control_c, 3, 11, 59
5, 23514, Control_c, 3, 11, 56
5, 23520, Control_c, 3, 11, 53
5, 23526, Control_c, 3, 11, 50
5, 23532, Control_c, 3, 11, 47
5, 23533, Note_on_c, 3, 51, 0
5, 23533, Note_on_c, 3, 52, 93
5, 23653, Note_on_c, 3, 52, 0
5, 23653, Note_on_c, 3, 59, 0
5, 30733, Control_c, 3, 11, 87
5, 30733, Note_on_c, 3, 52, 93
5, 30853, Note_on_c, 3, 52, 0
5, 31213, Note_on_c, 3, 61, 93
5, 31213, Note_on_c, 3, 57, 93
5, 31333, Note_on_c, 3, 57, 0
5, 31333, Note_on_c, 3, 61, 0
5, 31693, Note_on_c, 3, 54, 93
5, 31693, Note_on_c, 3, 57, 93
5, 31813, Note_on_c, 3, 57, 0
5, 31813, Note_on_c, 3, 54, 0
5, 32053, Note_on_c, 3, 57, 93
5, 32053, Note_on_c, 3, 54, 93
5, 32173, Note_on_c, 3, 54, 0
5, 32173, Note_on_c, 3, 57, 0
5, 32173, Note_on_c, 3, 66, 93
5, 32173, Note_on_c, 3, 63, 93
5, 32293, Note_on_c, 3, 63, 0
5, 32293, Note_on_c, 3, 66, 0
5, 32293, Note_on_c, 3, 57, 93
5, 32293, Note_on_c, 3, 54, 93
5, 32413, Note_on_c, 3, 54, 0
5, 32413, Note_on_c, 3, 57, 0
5, 32413, Note_on_c, 3, 57, 93
5, 32413, Note_on_c, 3, 66, 93
5, 32533, Note_on_c, 3, 66, 0
5, 32533, Note_on_c, 3, 57, 0
5, 32533, Note_on_c, 3, 57, 93
5, 32533, Note_on_c, 3, 54, 93
5, 32653, Note_on_c, 3, 54, 0
5, 32653, Note_on_c, 3, 57, 0
5, 32653, Note_on_c, 3, 52, 93
5, 32653, Note_on_c, 3, 56, 93
5, 32773, Note_on_c, 3, 56, 0
5, 32773, Note_on_c, 3, 52, 0
5, 32773, Note_on_c, 3, 56, 93
5, 32773, Note_on_c, 3, 52, 93
5, 32893, Note_on_c, 3, 52, 0
5, 32893, Note_on_c, 3, 56, 0
5, 33133, Note_on_c, 3, 61, 93
5, 33133, Note_on_c, 3, 57, 93
5, 33253, Note_on_c, 3, 57, 0
5, 33253, Note_on_c, 3, 61, 0
5, 33253, Note_on_c, 3, 57, 93
5, 33253, Note_on_c, 3, 61, 93
5, 33373, Note_on_c, 3, 61, 0
5, 33373, Note_on_c, 3, 57, 0
5, 33613, Note_on_c, 3, 54, 93
5, 33613, Note_on_c, 3, 57, 93
5, 33733, Note_on_c, 3, 57, 0
5, 33733, Note_on_c, 3, 54, 0
5, 33733, Note_on_c, 3, 57, 93
5, 33733, Note_on_c, 3, 54, 93
5, 33853, Note_on_c, 3, 54, 0
5, 33853, Note_on_c, 3, 57, 0
5, 33973, Note_on_c, 3, 52, 93
5, 33973, Note_on_c, 3, 56, 93
5, 34093, Note_on_c, 3, 56, 0
5, 34093, Note_on_c, 3, 52, 0
5, 34093, Note_on_c, 3, 57, 93
5, 34093, Note_on_c, 3, 54, 93
5, 34213, Note_on_c, 3, 54, 0
5, 34213, Note_on_c, 3, 57, 0
5, 34213, Note_on_c, 3, 57, 93
5, 34213, Note_on_c, 3, 54, 93
5, 34333, Note_on_c, 3, 54, 0
5, 34333, Note_on_c, 3, 57, 0
5, 34333, Note_on_c, 3, 57, 93
5, 34333, Note_on_c, 3, 54, 93
5, 34453, Note_on_c, 3, 54, 0
5, 34453, Note_on_c, 3, 57, 0
5, 34453, Note_on_c, 3, 57, 93
5, 34453, Note_on_c, 3, 54, 93
5, 34573, Note_on_c, 3, 54, 0
5, 34573, Note_on_c, 3, 57, 0
5, 34573, Note_on_c, 3, 52, 93
5, 34573, Note_on_c, 3, 56, 93
5, 34693, Note_on_c, 3, 56, 0
5, 34693, Note_on_c, 3, 52, 0
5, 34813, Note_on_c, 3, 56, 93
5, 34813, Note_on_c, 3, 52, 93
5, 34933, Note_on_c, 3, 52, 0
5, 34933, Note_on_c, 3, 56, 0
5, 35053, Note_on_c, 3, 52, 93
5, 35053, Note_on_c, 3, 56, 93
5, 35173, Note_on_c, 3, 56, 0
5, 35173, Note_on_c, 3, 52, 0
5, 35293, Note_on_c, 3, 52, 93
5, 35293, Note_on_c, 3, 56, 93
5, 35413, Note_on_c, 3, 56, 0
5, 35413, Note_on_c, 3, 52, 0
5, 35533, Control_c, 3, 11, 107
5, 35533, Note_on_c, 3, 57, 93
5, 35533, Note_on_c, 3, 54, 93
5, 35550, Control_c, 3, 11, 104
5, 35568, Control_c, 3, 11, 101
5, 35586, Control_c, 3, 11, 98
5, 35604, Control_c, 3, 11, 95
5, 35622, Control_c, 3, 11, 92
5, 35640, Control_c, 3, 11, 89
5, 36493, Note_on_c, 3, 54, 0
5, 36493, Note_on_c, 3, 57, 0
5, 36493, Note_on_c, 3, 56, 93
5, 36493, Note_on_c, 3, 52, 93
5, 36613, Note_on_c, 3, 52, 0
5, 36613, Note_on_c, 3, 56, 0
5, 36733, Note_on_c, 3, 56, 93
5, 36733, Note_on_c, 3, 52, 93
5, 36853, Note_on_c, 3, 52, 0
5, 36853, Note_on_c, 3, 56, 0
5, 36973, Note_on_c, 3, 52, 93
5, 36973, Note_on_c, 3, 56, 93
5, 37093, Note_on_c, 3, 56, 0
5, 37093, Note_on_c, 3, 52, 0
5, 37213, Note_on_c, 3, 52, 93
5, 37213, Note_on_c, 3, 56, 93
5, 37333, Note_on_c, 3, 56, 0
5, 37333, Note_on_c, 3, 52, 0
5, 37453, Control_c, 3, 11, 107
5, 37453, Note_on_c, 3, 54, 93
5, 37453, Note_on_c, 3, 57, 93
5, 37470, Control_c, 3, 11, 104
5, 37488, Control_c, 3, 11, 101
5, 37506, Control_c, 3, 11, 98
5, 37524, Control_c, 3, 11, 95
5, 37542, Control_c, 3, 11, 92
5, 37560, Control_c, 3, 11, 89
5, 38413, Note_on_c, 3, 57, 0
5, 38413, Note_on_c, 3, 54, 0
5, 38413, Note_on_c, 3, 56, 93
5, 38413, Note_on_c, 3, 52, 93
5, 39133, Note_on_c, 3, 52, 0
5, 39133, Note_on_c, 3, 56, 0
5, 39133, Note_on_c, 3, 56, 93
5, 39163, Note_on_c, 3, 56, 0
5, 39193, Note_on_c, 3, 52, 93
5, 39223, Note_on_c, 3, 52, 0
5, 39253, Note_on_c, 3, 49, 93
5, 39283, Note_on_c, 3, 49, 0
5, 39313, Note_on_c, 3, 47, 93
5, 39343, Note_on_c, 3, 47, 0
5, 39373, Note_on_c, 3, 46, 83
5, 39493, Note_on_c, 3, 46, 0
5, 40453, Control_c, 3, 11, 47
5, 40453, Note_on_c, 3, 54, 93
5, 40573, Note_on_c, 3, 54, 0
5, 40693, Note_on_c, 3, 54, 93
5, 40813, Note_on_c, 3, 54, 0
5, 40933, Note_on_c, 3, 66, 93
5, 41053, Note_on_c, 3, 66, 0
5, 41173, Note_on_c, 3, 66, 93
5, 41293, Note_on_c, 3, 66, 0
5, 41413, Note_on_c, 3, 66, 78
5, 41533, Note_on_c, 3, 66, 0
5, 42373, Note_on_c, 3, 54, 93
5, 42493, Note_on_c, 3, 54, 0
5, 42613, Note_on_c, 3, 54, 93
5, 42733, Note_on_c, 3, 54, 0
5, 42853, Note_on_c, 3, 66, 93
5, 42973, Note_on_c, 3, 66, 0
5, 43093, Note_on_c, 3, 66, 93
5, 43213, Note_on_c, 3, 66, 0
5, 43813, Note_on_c, 3, 68, 93
5, 43933, Note_on_c, 3, 68, 0
5, 44053, Note_on_c, 3, 68, 93
5, 44173, Note_on_c, 3, 68, 0
5, 44173, Note_on_c, 3, 64, 93
5, 44293, Note_on_c, 3, 64, 0
5, 44293, Note_on_c, 3, 59, 93
5, 44533, Note_on_c, 3, 59, 0
5, 44533, Note_on_c, 3, 61, 93
5, 44653, Note_on_c, 3, 61, 0
5, 44653, Note_on_c, 3, 59, 93
5, 45133, Control_c, 3, 11, 47
5, 45156, Control_c, 3, 11, 48
5, 45180, Control_c, 3, 11, 49
5, 45204, Control_c, 3, 11, 50
5, 45228, Control_c, 3, 11, 51
5, 45252, Control_c, 3, 11, 52
5, 45276, Control_c, 3, 11, 53
5, 45300, Control_c, 3, 11, 54
5, 45324, Control_c, 3, 11, 55
5, 45348, Control_c, 3, 11, 56
5, 45372, Control_c, 3, 11, 57
5, 45396, Control_c, 3, 11, 58
5, 45420, Control_c, 3, 11, 59
5, 45444, Control_c, 3, 11, 60
5, 45468, Control_c, 3, 11, 61
5, 45492, Control_c, 3, 11, 62
5, 45516, Control_c, 3, 11, 63
5, 45540, Control_c, 3, 11, 64
5, 45564, Control_c, 3, 11, 65
5, 45588, Control_c, 3, 11, 66
5, 45612, Control_c, 3, 11, 67
5, 45636, Control_c, 3, 11, 68
5, 45660, Control_c, 3, 11, 69
5, 45684, Control_c, 3, 11, 70
5, 45708, Control_c, 3, 11, 71
5, 45732, Control_c, 3, 11, 72
5, 45756, Control_c, 3, 11, 73
5, 45780, Control_c, 3, 11, 74
5, 45804, Control_c, 3, 11, 75
5, 45828, Control_c, 3, 11, 76
5, 45852, Control_c, 3, 11, 77
5, 45876, Control_c, 3, 11, 78
5, 45900, Control_c, 3, 11, 79
5, 45924, Control_c, 3, 11, 80
5, 45948, Control_c, 3, 11, 81
5, 45972, Control_c, 3, 11, 82
5, 45996, Control_c, 3, 11, 83
5, 46020, Control_c, 3, 11, 84
5, 46044, Control_c, 3, 11, 85
5, 46068, Control_c, 3, 11, 86
5, 46092, Control_c, 3, 11, 87
5, 46213, Note_on_c, 3, 59, 0
5, 46213, Note_on_c, 3, 57, 93
5, 46213, Note_on_c, 3, 54, 93
5, 46268, Note_on_c, 3, 54, 0
5, 46268, Note_on_c, 3, 57, 0
5, 46273, Note_on_c, 3, 54, 93
5, 46273, Note_on_c, 3, 57, 93
5, 46328, Note_on_c, 3, 57, 0
5, 46328, Note_on_c, 3, 54, 0
5, 46333, Note_on_c, 3, 52, 93
5, 46333, Note_on_c, 3, 56, 93
5, 46448, Note_on_c, 3, 56, 0
5, 46448, Note_on_c, 3, 52, 0
5, 46453, Note_on_c, 3, 57, 93
5, 46453, Note_on_c, 3, 54, 93
5, 46508, Note_on_c, 3, 54, 0
5, 46508, Note_on_c, 3, 57, 0
5, 46513, Note_on_c, 3, 54, 93
5, 46513, Note_on_c, 3, 57, 93
5, 46568, Note_on_c, 3, 57, 0
5, 46568, Note_on_c, 3, 54, 0
5, 46573, Note_on_c, 3, 52, 93
5, 46573, Note_on_c, 3, 56, 93
5, 46688, Note_on_c, 3, 56, 0
5, 46688, Note_on_c, 3, 52, 0
5, 46693, Note_on_c, 3, 57, 93
5, 46693, Note_on_c, 3, 54, 93
5, 46748, Note_on_c, 3, 54, 0
5, 46748, Note_on_c, 3, 57, 0
5, 46753, Note_on_c, 3, 54, 93
5, 46753, Note_on_c, 3, 57, 93
5, 46808, Note_on_c, 3, 57, 0
5, 46808, Note_on_c, 3, 54, 0
5, 46813, Note_on_c, 3, 52, 93
5, 46813, Note_on_c, 3, 56, 93
5, 46928, Note_on_c, 3, 56, 0
5, 46928, Note_on_c, 3, 52, 0
5, 46933, Note_on_c, 3, 57, 93
5, 46933, Note_on_c, 3, 54, 93
5, 46988, Note_on_c, 3, 54, 0
5, 46988, Note_on_c, 3, 57, 0
5, 46993, Note_on_c, 3, 54, 93
5, 46993, Note_on_c, 3, 57, 93
5, 47048, Note_on_c, 3, 57, 0
5, 47048, Note_on_c, 3, 54, 0
5, 47053, Note_on_c, 3, 52, 93
5, 47053, Note_on_c, 3, 56, 93
5, 47168, Note_on_c, 3, 56, 0
5, 47168, Note_on_c, 3, 52, 0
5, 47173, Control_c, 3, 11, 102
5, 47173, Note_on_c, 3, 64, 93
5, 47173, Note_on_c, 3, 52, 93
5, 47528, Note_on_c, 3, 52, 0
5, 47528, Note_on_c, 3, 64, 0
5, 47533, Note_on_c, 3, 64, 93
5, 47588, Note_on_c, 3, 64, 0
5, 47593, Note_on_c, 3, 63, 93
5, 47648, Note_on_c, 3, 63, 0
5, 47653, Note_on_c, 3, 61, 93
5, 47708, Note_on_c, 3, 61, 0
5, 47713, Note_on_c, 3, 59, 93
5, 47768, Note_on_c, 3, 59, 0
5, 47773, Note_on_c, 3, 57, 93
5, 47828, Note_on_c, 3, 57, 0
5, 47833, Note_on_c, 3, 56, 93
5, 47888, Note_on_c, 3, 56, 0
5, 47893, Note_on_c, 3, 54, 93
5, 47948, Note_on_c, 3, 54, 0
5, 47953, Note_on_c, 3, 52, 93
5, 48008, Note_on_c, 3, 52, 0
5, 48013, Note_on_c, 3, 61, 93
5, 48133, Note_on_c, 3, 61, 0
5, 48133, Note_on_c, 3, 61, 93
5, 48493, Note_on_c, 3, 61, 0
5, 48493, Note_on_c, 3, 61, 93
5, 48548, Note_on_c, 3, 61, 0
5, 48553, Note_on_c, 3, 59, 93
5, 48608, Note_on_c, 3, 59, 0
5, 48613, Note_on_c, 3, 57, 93
5, 48668, Note_on_c, 3, 57, 0
5, 48673, Note_on_c, 3, 56, 93
5, 48728, Note_on_c, 3, 56, 0
5, 48733, Note_on_c, 3, 54, 93
5, 48788, Note_on_c, 3, 54, 0
5, 48793, Note_on_c, 3, 52, 93
5, 48848, Note_on_c, 3, 52, 0
5, 48853, Note_on_c, 3, 51, 93
5, 48908, Note_on_c, 3, 51, 0
5, 48913, Note_on_c, 3, 49, 93
5, 48968, Note_on_c, 3, 49, 0
5, 48973, Note_on_c, 3, 61, 93
5, 48973, Note_on_c, 3, 58, 93
5, 49933, Note_on_c, 3, 58, 0
5, 49933, Note_on_c, 3, 61, 0
5, 49933, Note_on_c, 3, 61, 93
5, 49933, Note_on_c, 3, 58, 93
5, 50293, Note_on_c, 3, 58, 0
5, 50293, Note_on_c, 3, 61, 0
5, 50293, Control_c, 3, 11, 122
5, 50293, Note_on_c, 3, 61, 93
5, 50293, Note_on_c, 3, 59, 93
5, 50310, Control_c, 3, 11, 119
5, 50328, Control_c, 3, 11, 116
5, 50346, Control_c, 3, 11, 113
5, 50364, Control_c, 3, 11, 110
5, 50382, Control_c, 3, 11, 107
5, 50400, Control_c, 3, 11, 104
5, 50413, Note_on_c, 3, 59, 0
5, 50413, Note_on_c, 3, 61, 0
5, 50413, Note_on_c, 3, 61, 93
5, 50413, Note_on_c, 3, 58, 93
5, 50773, Note_on_c, 3, 58, 0
5, 50773, Note_on_c, 3, 61, 0
5, 50773, Control_c, 3, 11, 122
5, 50773, Note_on_c, 3, 59, 93
5, 50773, Note_on_c, 3, 61, 93
5, 50790, Control_c, 3, 11, 119
5, 50808, Control_c, 3, 11, 116
5, 50826, Control_c, 3, 11, 113
5, 50844, Control_c, 3, 11, 110
5, 50862, Control_c, 3, 11, 107
5, 50880, Control_c, 3, 11, 104
5, 50893, Note_on_c, 3, 61, 0
5, 50893, Note_on_c, 3, 59, 0
5, 50893, Note_on_c, 3, 61, 93
5, 50893, Note_on_c, 3, 58, 93
5, 51013, Note_on_c, 3, 58, 0
5, 51013, Note_on_c, 3, 61, 0
5, 51013, Control_c, 3, 11, 122
5, 51013, Note_on_c, 3, 59, 93
5, 51013, Note_on_c, 3, 61, 93
5, 51030, Control_c, 3, 11, 119
5, 51048, Control_c, 3, 11, 116
5, 51066, Control_c, 3, 11, 113
5, 51084, Control_c, 3, 11, 110
5, 51102, Control_c, 3, 11, 107
5, 51120, Control_c, 3, 11, 104
5, 51133, Note_on_c, 3, 61, 0
5, 51133, Note_on_c, 3, 59, 0
5, 51133, Note_on_c, 3, 61, 93
5, 51133, Note_on_c, 3, 58, 93
5, 51253, Note_on_c, 3, 58, 0
5, 51253, Note_on_c, 3, 61, 0
5, 51253, Control_c, 3, 11, 122
5, 51253, Note_on_c, 3, 59, 93
5, 51253, Note_on_c, 3, 61, 93
5, 51270, Control_c, 3, 11, 119
5, 51288, Control_c, 3, 11, 116
5, 51306, Control_c, 3, 11, 113
5, 51324, Control_c, 3, 11, 110
5, 51342, Control_c, 3, 11, 107
5, 51360, Control_c, 3, 11, 104
5, 51373, Note_on_c, 3, 61, 0
5, 51373, Note_on_c, 3, 59, 0
5, 51373, Note_on_c, 3, 61, 93
5, 51373, Note_on_c, 3, 58, 93
5, 51493, Note_on_c, 3, 58, 0
5, 51493, Note_on_c, 3, 61, 0
5, 51493, Control_c, 3, 11, 122
5, 51493, Note_on_c, 3, 61, 93
5, 51493, Note_on_c, 3, 59, 93
5, 51510, Control_c, 3, 11, 119
5, 51528, Control_c, 3, 11, 116
5, 51546, Control_c, 3, 11, 113
5, 51564, Control_c, 3, 11, 110
5, 51582, Control_c, 3, 11, 107
5, 51600, Control_c, 3, 11, 104
5, 51613, Note_on_c, 3, 59, 0
5, 51613, Note_on_c, 3, 61, 0
5, 51613, Note_on_c, 3, 61, 93
5, 51613, Note_on_c, 3, 58, 93
5, 51733, Note_on_c, 3, 58, 0
5, 51733, Note_on_c, 3, 61, 0
5, 51733, Control_c, 3, 11, 122
5, 51733, Note_on_c, 3, 58, 93
5, 51733, Note_on_c, 3, 54, 93
5, 51750, Control_c, 3, 11, 119
5, 51768, Control_c, 3, 11, 116
5, 51786, Control_c, 3, 11, 113
5, 51804, Control_c, 3, 11, 110
5, 51822, Control_c, 3, 11, 107
5, 51840, Control_c, 3, 11, 104
5, 51853, Note_on_c, 3, 54, 0
5, 51853, Note_on_c, 3, 58, 0
5, 51853, Note_on_c, 3, 47, 93
5, 51853, Note_on_c, 3, 59, 93
5, 51973, Note_on_c, 3, 59, 0
5, 51973, Note_on_c, 3, 47, 0
5, 51973, Control_c, 3, 11, 122
5, 51973, Note_on_c, 3, 51, 93
5, 51990, Control_c, 3, 11, 119
5, 52008, Control_c, 3, 11, 116
5, 52026, Control_c, 3, 11, 113
5, 52044, Control_c, 3, 11, 110
5, 52062, Control_c, 3, 11, 107
5, 52080, Control_c, 3, 11, 104
5, 52093, Note_on_c, 3, 51, 0
5, 52093, Note_on_c, 3, 52, 93
5, 52213, Note_on_c, 3, 52, 0
5, 52213, Control_c, 3, 11, 122
5, 52213, Note_on_c, 3, 49, 93
5, 52230, Control_c, 3, 11, 119
5, 52248, Control_c, 3, 11, 116
5, 52266, Control_c, 3, 11, 113
5, 52284, Control_c, 3, 11, 110
5, 52302, Control_c, 3, 11, 107
5, 52320, Control_c, 3, 11, 104
5, 52333, Note_on_c, 3, 49, 0
5, 52333, Note_on_c, 3, 54, 93
5, 52453, Note_on_c, 3, 54, 0
5, 52453, Control_c, 3, 11, 122
5, 52453, Note_on_c, 3, 42, 93
5, 52470, Control_c, 3, 11, 119
5, 52488, Control_c, 3, 11, 116
5, 52506, Control_c, 3, 11, 113
5, 52524, Control_c, 3, 11, 110
5, 52542, Control_c, 3, 11, 107
5, 52560, Control_c, 3, 11, 104
5, 52573, Note_on_c, 3, 42, 0
5, 52573, Note_on_c, 3, 54, 93
5, 52693, Note_on_c, 3, 54, 0
5, 52693, Control_c, 3, 11, 122
5, 52693, Note_on_c, 3, 42, 93
5, 52710, Control_c, 3, 11, 119
5, 52728, Control_c, 3, 11, 116
5, 52746, Control_c, 3, 11, 113
5, 52764, Control_c, 3, 11, 110
5, 52782, Control_c, 3, 11, 107
5, 52800, Control_c, 3, 11, 104
5, 52813, Note_on_c, 3, 42, 0
5, 52813, Note_on_c, 3, 59, 83
5, 52813, Note_on_c, 3, 47, 83
5, 52933, Note_on_c, 3, 47, 0
5, 52933, Note_on_c, 3, 59, 0
5, 52933, Note_on_c, 3, 54, 38
5, 52933, Note_on_c, 3, 57, 38
5, 53053, Note_on_c, 3, 57, 0
5, 53053, Note_on_c, 3, 54, 0
5, 53053, Note_on_c, 3, 52, 38
5, 53053, Note_on_c, 3, 56, 38
5, 53173, Note_on_c, 3, 56, 0
5, 53173, Note_on_c, 3, 52, 0
5, 53413, Note_on_c, 3, 54, 38
5, 53413, Note_on_c, 3, 57, 38
5, 53533, Note_on_c, 3, 57, 0
5, 53533, Note_on_c, 3, 54, 0
5, 53533, Note_on_c, 3, 52, 38
5, 53533, Note_on_c, 3, 56, 38
5, 53653, Note_on_c, 3, 56, 0
5, 53653, Note_on_c, 3, 52, 0
5, 53893, Note_on_c, 3, 54, 38
5, 53893, Note_on_c, 3, 57, 38
5, 54013, Note_on_c, 3, 57, 0
5, 54013, Note_on_c, 3, 54, 0
5, 54013, Note_on_c, 3, 52, 38
5, 54013, Note_on_c, 3, 56, 38
5, 54133, Note_on_c, 3, 56, 0
5, 54133, Note_on_c, 3, 52, 0
5, 54373, Note_on_c, 3, 54, 38
5, 54373, Note_on_c, 3, 57, 38
5, 54493, Note_on_c, 3, 57, 0
5, 54493, Note_on_c, 3, 54, 0
5, 54493, Note_on_c, 3, 52, 38
5, 54493, Note_on_c, 3, 56, 38
5, 54613, Note_on_c, 3, 56, 0
5, 54613, Note_on_c, 3, 52, 0
5, 54613, Note_on_c, 3, 64, 93
5, 54613, Note_on_c, 3, 61, 93
5, 54733, Note_on_c, 3, 61, 0
5, 54733, Note_on_c, 3, 64, 0
5, 54733, Note_on_c, 3, 59, 93
5, 54733, Note_on_c, 3, 63, 93
5, 54848, Note_on_c, 3, 63, 0
5, 54848, Note_on_c, 3, 59, 0
5, 54853, Note_on_c, 3, 59, 93
5, 54853, Note_on_c, 3, 63, 93
5, 54908, Note_on_c, 3, 63, 0
5, 54908, Note_on_c, 3, 59, 0
5, 54913, Note_on_c, 3, 63, 93
5, 54913, Note_on_c, 3, 59, 93
5, 54968, Note_on_c, 3, 59, 0
5, 54968, Note_on_c, 3, 63, 0
5, 54973, Note_on_c, 3, 63, 93
5, 54973, Note_on_c, 3, 59, 93
5, 55093, Note_on_c, 3, 59, 0
5, 55093, Note_on_c, 3, 63, 0
5, 55213, Note_on_c, 3, 59, 93
5, 55213, Note_on_c, 3, 63, 93
5, 55328, Note_on_c, 3, 63, 0
5, 55328, Note_on_c, 3, 59, 0
5, 55333, Note_on_c, 3, 63, 93
5, 55333, Note_on_c, 3, 59, 93
5, 55388, Note_on_c, 3, 59, 0
5, 55388, Note_on_c, 3, 63, 0
5, 55393, Note_on_c, 3, 59, 93
5, 55393, Note_on_c, 3, 63, 93
5, 55448, Note_on_c, 3, 63, 0
5, 55448, Note_on_c, 3, 59, 0
5, 55453, Note_on_c, 3, 63, 93
5, 55453, Note_on_c, 3, 59, 93
5, 55573, Note_on_c, 3, 59, 0
5, 55573, Note_on_c, 3, 63, 0
5, 55693, Note_on_c, 3, 47, 93
5, 55808, Note_on_c, 3, 47, 0
5, 55813, Note_on_c, 3, 47, 93
5, 55868, Note_on_c, 3, 47, 0
5, 55873, Note_on_c, 3, 47, 93
5, 55928, Note_on_c, 3, 47, 0
5, 55933, Note_on_c, 3, 47, 93
5, 56048, Note_on_c, 3, 47, 0
5, 56053, Note_on_c, 3, 47, 93
5, 56108, Note_on_c, 3, 47, 0
5, 56113, Note_on_c, 3, 47, 93
5, 56168, Note_on_c, 3, 47, 0
5, 56173, Note_on_c, 3, 47, 93
5, 56288, Note_on_c, 3, 47, 0
5, 56293, Note_on_c, 3, 47, 93
5, 56348, Note_on_c, 3, 47, 0
5, 56353, Note_on_c, 3, 47, 93
5, 56408, Note_on_c, 3, 47, 0
5, 56413, Note_on_c, 3, 47, 93
5, 56528, Note_on_c, 3, 47, 0
5, 56533, Note_on_c, 3, 47, 93
5, 56588, Note_on_c, 3, 47, 0
5, 56593, Note_on_c, 3, 47, 93
5, 56648, Note_on_c, 3, 47, 0
5, 56653, Note_on_c, 3, 47, 88
5, 56773, Note_on_c, 3, 47, 0
5, 58573, Control_c, 3, 11, 32
5, 58573, Note_on_c, 3, 67, 93
5, 58597, Control_c, 3, 11, 33
5, 58621, Control_c, 3, 11, 35
5, 58645, Control_c, 3, 11, 36
5, 58669, Control_c, 3, 11, 38
5, 58693, Control_c, 3, 11, 39
5, 58717, Control_c, 3, 11, 41
5, 58741, Control_c, 3, 11, 42
5, 58765, Control_c, 3, 11, 44
5, 58789, Control_c, 3, 11, 45
5, 58813, Control_c, 3, 11, 47
5, 59533, Note_on_c, 3, 67, 0
5, 59533, Note_on_c, 3, 66, 93
5, 59653, Note_on_c, 3, 66, 0
5, 59653, Note_on_c, 3, 62, 93
5, 59893, Note_on_c, 3, 62, 0
5, 59893, Note_on_c, 3, 64, 93
5, 59953, Note_on_c, 3, 64, 0
5, 59953, Note_on_c, 3, 66, 93
5, 60013, Note_on_c, 3, 66, 0
5, 60013, Note_on_c, 3, 67, 93
5, 60133, Note_on_c, 3, 67, 0
5, 60133, Note_on_c, 3, 62, 93
5, 60373, Note_on_c, 3, 62, 0
5, 60373, Note_on_c, 3, 67, 93
5, 60493, Note_on_c, 3, 67, 0
5, 60493, Note_on_c, 3, 66, 93
5, 60613, Note_on_c, 3, 66, 0
5, 60613, Note_on_c, 3, 62, 93
5, 60853, Note_on_c, 3, 62, 0
5, 60853, Note_on_c, 3, 64, 93
5, 60913, Note_on_c, 3, 64, 0
5, 60913, Note_on_c, 3, 66, 93
5, 60973, Note_on_c, 3, 66, 0
5, 60973, Note_on_c, 3, 67, 93
5, 61573, Note_on_c, 3, 67, 0
5, 61573, Note_on_c, 3, 55, 108
5, 61693, Note_on_c, 3, 55, 0
5, 61693, Note_on_c, 3, 57, 103
5, 61813, Note_on_c, 3, 57, 0
5, 61813, Note_on_c, 3, 59, 98
5, 61933, Note_on_c, 3, 59, 0
5, 61933, Note_on_c, 3, 60, 93
5, 61993, Note_on_c, 3, 60, 0
5, 62053, Note_on_c, 3, 67, 108
5, 62053, Note_on_c, 3, 64, 108
5, 62173, Note_on_c, 3, 64, 0
5, 62173, Note_on_c, 3, 67, 0
5, 62173, Note_on_c, 3, 62, 103
5, 62173, Note_on_c, 3, 65, 103
5, 62293, Note_on_c, 3, 65, 0
5, 62293, Note_on_c, 3, 62, 0
5, 62293, Note_on_c, 3, 60, 98
5, 62293, Note_on_c, 3, 64, 98
5, 62413, Note_on_c, 3, 64, 0
5, 62413, Note_on_c, 3, 60, 0
5, 62413, Note_on_c, 3, 59, 93
5, 62413, Note_on_c, 3, 62, 93
5, 62473, Note_on_c, 3, 62, 0
5, 62473, Note_on_c, 3, 59, 0
5, 62533, Note_on_c, 3, 65, 108
5, 62533, Note_on_c, 3, 57, 108
5, 62653, Note_on_c, 3, 57, 0
5, 62653, Note_on_c, 3, 65, 0
5, 62653, Note_on_c, 3, 64, 103
5, 62653, Note_on_c, 3, 55, 103
5, 62773, Note_on_c, 3, 55, 0
5, 62773, Note_on_c, 3, 64, 0
5, 62773, Note_on_c, 3, 62, 98
5, 62773, Note_on_c, 3, 53, 98
5, 62893, Note_on_c, 3, 53, 0
5, 62893, Note_on_c, 3, 62, 0
5, 62893, Note_on_c, 3, 60, 93
5, 62893, Note_on_c, 3, 52, 93
5, 62953, Note_on_c, 3, 52, 0
5, 62953, Note_on_c, 3, 60, 0
5, 63973, Note_on_c, 3, 64, 108
5, 63973, Note_on_c, 3, 60, 108
5, 64093, Note_on_c, 3, 60, 0
5, 64093, Note_on_c, 3, 64, 0
5, 64093, Note_on_c, 3, 59, 103
5, 64093, Note_on_c, 3, 62, 103
5, 64213, Note_on_c, 3, 62, 0
5, 64213, Note_on_c, 3, 59, 0
5, 64213, Note_on_c, 3, 57, 98
5, 64213, Note_on_c, 3, 60, 98
5, 64333, Note_on_c, 3, 60, 0
5, 64333, Note_on_c, 3, 57, 0
5, 64333, Note_on_c, 3, 56, 93
5, 64333, Note_on_c, 3, 59, 93
5, 64393, Note_on_c, 3, 59, 0
5, 64393, Note_on_c, 3, 56, 0
5, 64453, Note_on_c, 3, 59, 108
5, 64453, Note_on_c, 3, 56, 108
5, 64573, Note_on_c, 3, 56, 0
5, 64573, Note_on_c, 3, 59, 0
5, 64573, Note_on_c, 3, 60, 103
5, 64573, Note_on_c, 3, 57, 103
5, 64693, Note_on_c, 3, 57, 0
5, 64693, Note_on_c, 3, 60, 0
5, 64693, Note_on_c, 3, 62, 98
5, 64693, Note_on_c, 3, 59, 98
5, 64813, Note_on_c, 3, 59, 0
5, 64813, Note_on_c, 3, 62, 0
5, 64813, Note_on_c, 3, 60, 93
5, 64813, Note_on_c, 3, 57, 93
5, 64873, Note_on_c, 3, 57, 0
5, 64873, Note_on_c, 3, 60, 0
5, 64933, Note_on_c, 3, 60, 108
5, 64933, Note_on_c, 3, 57, 108
5, 65053, Note_on_c, 3, 57, 0
5, 65053, Note_on_c, 3, 60, 0
5, 65053, Note_on_c, 3, 54, 103
5, 65053, Note_on_c, 3, 57, 103
5, 65173, Note_on_c, 3, 57, 0
5, 65173, Note_on_c, 3, 54, 0
5, 65173, Note_on_c, 3, 52, 98
5, 65173, Note_on_c, 3, 55, 98
5, 65293, Note_on_c, 3, 55, 0
5, 65293, Note_on_c, 3, 52, 0
5, 65293, Note_on_c, 3, 51, 93
5, 65293, Note_on_c, 3, 54, 93
5, 65353, Note_on_c, 3, 54, 0
5, 65353, Note_on_c, 3, 51, 0
5, 66373, Note_on_c, 3, 59, 108
5, 66373, Note_on_c, 3, 55, 108
5, 66493, Note_on_c, 3, 55, 0
5, 66493, Note_on_c, 3, 59, 0
5, 66493, Note_on_c, 3, 54, 101
5, 66493, Note_on_c, 3, 57, 101
5, 66613, Note_on_c, 3, 57, 0
5, 66613, Note_on_c, 3, 54, 0
5, 66613, Note_on_c, 3, 52, 93
5, 66613, Note_on_c, 3, 55, 93
5, 66733, Note_on_c, 3, 55, 0
5, 66733, Note_on_c, 3, 52, 0
5, 68293, Note_on_c, 3, 55, 108
5, 68293, Note_on_c, 3, 59, 108
5, 68413, Note_on_c, 3, 59, 0
5, 68413, Note_on_c, 3, 55, 0
5, 68413, Note_on_c, 3, 54, 101
5, 68413, Note_on_c, 3, 57, 101
5, 68533, Note_on_c, 3, 57, 0
5, 68533, Note_on_c, 3, 54, 0
5, 68533, Note_on_c, 3, 55, 93
5, 68533, Note_on_c, 3, 52, 93
5, 68653, Note_on_c, 3, 52, 0
5, 68653, Note_on_c, 3, 55, 0
5, 69733, Control_c, 3, 11, 47
5, 69769, Control_c, 3, 11, 48
5, 69805, Control_c, 3, 11, 49
5, 69841, Control_c, 3, 11, 50
5, 69877, Control_c, 3, 11, 51
5, 69913, Control_c, 3, 11, 52
5, 69949, Control_c, 3, 11, 53
5, 69985, Control_c, 3, 11, 54
5, 70021, Control_c, 3, 11, 55
5, 70057, Control_c, 3, 11, 56
5, 70093, Control_c, 3, 11, 57
5, 70129, Control_c, 3, 11, 58
5, 70165, Control_c, 3, 11, 59
5, 70201, Control_c, 3, 11, 60
5, 70213, Note_on_c, 3, 54, 115
5, 70213, Note_on_c, 3, 57, 115
5, 70237, Control_c, 3, 11, 61
5, 70273, Control_c, 3, 11, 62
5, 70309, Control_c, 3, 11, 63
5, 70333, Note_on_c, 3, 57, 0
5, 70333, Note_on_c, 3, 54, 0
5, 70333, Note_on_c, 3, 52, 108
5, 70333, Note_on_c, 3, 56, 108
5, 70345, Control_c, 3, 11, 64
5, 70381, Control_c, 3, 11, 65
5, 70417, Control_c, 3, 11, 66
5, 70453, Note_on_c, 3, 56, 0
5, 70453, Note_on_c, 3, 52, 0
5, 70453, Control_c, 3, 11, 67
5, 70453, Note_on_c, 3, 51, 101
5, 70453, Note_on_c, 3, 54, 101
5, 70573, Note_on_c, 3, 54, 0
5, 70573, Note_on_c, 3, 51, 0
5, 70573, Control_c, 3, 11, 47
5, 70573, Note_on_c, 3, 56, 78
5, 70573, Note_on_c, 3, 52, 78
5, 70693, Note_on_c, 3, 52, 0
5, 70693, Note_on_c, 3, 56, 0
5, 72493, Control_c, 3, 11, 47
5, 72493, Note_on_c, 3, 52, 93
5, 72493, Note_on_c, 3, 56, 93
5, 73453, Note_on_c, 3, 56, 0
5, 73453, Note_on_c, 3, 52, 0
5, 73453, Note_on_c, 3, 54, 93
5, 73453, Note_on_c, 3, 57, 93
5, 73573, Note_on_c, 3, 57, 0
5, 73573, Note_on_c, 3, 54, 0
5, 73573, Note_on_c, 3, 51, 93
5, 73573, Note_on_c, 3, 54, 93
5, 73693, Note_on_c, 3, 54, 0
5, 73693, Note_on_c, 3, 51, 0
5, 73693, Note_on_c, 3, 56, 93
5, 73693, Note_on_c, 3, 52, 93
5, 73813, Note_on_c, 3, 52, 0
5, 73813, Note_on_c, 3, 56, 0
5, 73813, Note_on_c, 3, 57, 93
5, 73813, Note_on_c, 3, 54, 93
5, 73933, Note_on_c, 3, 54, 0
5, 73933, Note_on_c, 3, 57, 0
5, 73933, Note_on_c, 3, 52, 108
5, 73933, Note_on_c, 3, 56, 108
5, 74413, Note_on_c, 3, 56, 0
5, 74413, Note_on_c, 3, 52, 0
5, 74413, Note_on_c, 3, 54, 93
5, 74413, Note_on_c, 3, 51, 93
5, 74533, Note_on_c, 3, 51, 0
5, 74533, Note_on_c, 3, 54, 0
5, 74533, Note_on_c, 3, 51, 93
5, 74533, Note_on_c, 3, 47, 93
5, 74773, Note_on_c, 3, 47, 0
5, 74773, Note_on_c, 3, 51, 0
5, 74773, Note_on_c, 3, 52, 93
5, 74773, Note_on_c, 3, 49, 93
5, 74833, Note_on_c, 3, 49, 0
5, 74833, Note_on_c, 3, 52, 0
5, 74833, Note_on_c, 3, 54, 93
5, 74833, Note_on_c, 3, 51, 93
5, 74893, Note_on_c, 3, 51, 0
5, 74893, Note_on_c, 3, 54, 0
5, 74893, Control_c, 3, 11, 47
5, 74893, Note_on_c, 3, 56, 93
5, 74893, Note_on_c, 3, 52, 93
5, 74941, Control_c, 3, 11, 48
5, 74989, Control_c, 3, 11, 49
5, 75037, Control_c, 3, 11, 50
5, 75085, Control_c, 3, 11, 51
5, 75133, Control_c, 3, 11, 52
5, 75181, Control_c, 3, 11, 53
5, 75229, Control_c, 3, 11, 54
5, 75277, Control_c, 3, 11, 55
5, 75325, Control_c, 3, 11, 56
5, 75373, Note_on_c, 3, 52, 0
5, 75373, Note_on_c, 3, 56, 0
5, 75373, Control_c, 3, 11, 57
5, 75373, Note_on_c, 3, 51, 93
5, 75373, Note_on_c, 3, 54, 93
5, 75421, Control_c, 3, 11, 58
5, 75469, Control_c, 3, 11, 59
5, 75493, Note_on_c, 3, 54, 0
5, 75493, Note_on_c, 3, 51, 0
5, 75493, Note_on_c, 3, 51, 93
5, 75493, Note_on_c, 3, 47, 93
5, 75517, Control_c, 3, 11, 60
5, 75565, Control_c, 3, 11, 61
5, 75613, Control_c, 3, 11, 62
5, 75661, Control_c, 3, 11, 63
5, 75709, Control_c, 3, 11, 64
5, 75733, Note_on_c, 3, 47, 0
5, 75733, Note_on_c, 3, 51, 0
5, 75733, Note_on_c, 3, 52, 93
5, 75733, Note_on_c, 3, 49, 93
5, 75757, Control_c, 3, 11, 65
5, 75793, Note_on_c, 3, 49, 0
5, 75793, Note_on_c, 3, 52, 0
5, 75793, Note_on_c, 3, 54, 93
5, 75793, Note_on_c, 3, 51, 93
5, 75805, Control_c, 3, 11, 66
5, 75853, Note_on_c, 3, 51, 0
5, 75853, Note_on_c, 3, 54, 0
5, 75853, Control_c, 3, 11, 67
5, 75853, Note_on_c, 3, 56, 93
5, 75853, Note_on_c, 3, 52, 93
5, 75901, Control_c, 3, 11, 68
5, 75949, Control_c, 3, 11, 69
5, 75997, Control_c, 3, 11, 70
5, 76045, Control_c, 3, 11, 71
5, 76093, Control_c, 3, 11, 72
5, 76141, Control_c, 3, 11, 73
5, 76189, Control_c, 3, 11, 74
5, 76237, Control_c, 3, 11, 75
5, 76285, Control_c, 3, 11, 76
5, 76333, Note_on_c, 3, 52, 0
5, 76333, Note_on_c, 3, 56, 0
5, 76333, Control_c, 3, 11, 77
5, 76333, Note_on_c, 3, 51, 93
5, 76333, Note_on_c, 3, 54, 93
5, 76381, Control_c, 3, 11, 78
5, 76429, Control_c, 3, 11, 79
5, 76453, Note_on_c, 3, 54, 0
5, 76453, Note_on_c, 3, 51, 0
5, 76453, Note_on_c, 3, 59, 93
5, 76453, Note_on_c, 3, 47, 93
5, 76477, Control_c, 3, 11, 80
5, 76525, Control_c, 3, 11, 81
5, 76573, Control_c, 3, 11, 82
5, 76621, Control_c, 3, 11, 83
5, 76669, Control_c, 3, 11, 84
5, 76693, Note_on_c, 3, 47, 0
5, 76693, Note_on_c, 3, 59, 0
5, 76693, Note_on_c, 3, 61, 93
5, 76693, Note_on_c, 3, 49, 93
5, 76717, Control_c, 3, 11, 85
5, 76753, Note_on_c, 3, 49, 0
5, 76753, Note_on_c, 3, 61, 0
5, 76753, Note_on_c, 3, 63, 93
5, 76753, Note_on_c, 3, 51, 93
5, 76765, Control_c, 3, 11, 86
5, 76813, Note_on_c, 3, 51, 0
5, 76813, Note_on_c, 3, 63, 0
5, 76813, Control_c, 3, 11, 87
5, 76813, Note_on_c, 3, 64, 93
5, 76813, Note_on_c, 3, 52, 93
5, 76933, Note_on_c, 3, 52, 0
5, 76933, Note_on_c, 3, 64, 0
5, 77293, Note_on_c, 3, 61, 93
5, 77293, Note_on_c, 3, 57, 93
5, 77413, Note_on_c, 3, 57, 0
5, 77413, Note_on_c, 3, 61, 0
5, 77773, Note_on_c, 3, 54, 93
5, 77773, Note_on_c, 3, 57, 93
5, 77893, Note_on_c, 3, 57, 0
5, 77893, Note_on_c, 3, 54, 0
5, 78133, Note_on_c, 3, 57, 93
5, 78133, Note_on_c, 3, 54, 93
5, 78253, Note_on_c, 3, 54, 0
5, 78253, Note_on_c, 3, 57, 0
5, 78253, Note_on_c, 3, 66, 93
5, 78253, Note_on_c, 3, 63, 93
5, 78373, Note_on_c, 3, 63, 0
5, 78373, Note_on_c, 3, 66, 0
5, 78373, Note_on_c, 3, 54, 93
5, 78373, Note_on_c, 3, 57, 93
5, 78493, Note_on_c, 3, 57, 0
5, 78493, Note_on_c, 3, 54, 0
5, 78493, Note_on_c, 3, 66, 93
5, 78493, Note_on_c, 3, 57, 93
5, 78613, Note_on_c, 3, 57, 0
5, 78613, Note_on_c, 3, 66, 0
5, 78613, Note_on_c, 3, 54, 93
5, 78613, Note_on_c, 3, 57, 93
5, 78733, Note_on_c, 3, 57, 0
5, 78733, Note_on_c, 3, 54, 0
5, 78733, Note_on_c, 3, 52, 93
5, 78733, Note_on_c, 3, 56, 93
5, 78853, Note_on_c, 3, 56, 0
5, 78853, Note_on_c, 3, 52, 0
5, 78853, Note_on_c, 3, 52, 93
5, 78853, Note_on_c, 3, 56, 93
5, 78973, Note_on_c, 3, 56, 0
5, 78973, Note_on_c, 3, 52, 0
5, 79213, Note_on_c, 3, 61, 93
5, 79213, Note_on_c, 3, 57, 93
5, 79333, Note_on_c, 3, 57, 0
5, 79333, Note_on_c, 3, 61, 0
5, 79333, Note_on_c, 3, 61, 93
5, 79333, Note_on_c, 3, 57, 93
5, 79453, Note_on_c, 3, 57, 0
5, 79453, Note_on_c, 3, 61, 0
5, 79693, Note_on_c, 3, 54, 93
5, 79693, Note_on_c, 3, 57, 93
5, 79813, Note_on_c, 3, 57, 0
5, 79813, Note_on_c, 3, 54, 0
5, 79813, Note_on_c, 3, 54, 93
5, 79813, Note_on_c, 3, 57, 93
5, 79933, Note_on_c, 3, 57, 0
5, 79933, Note_on_c, 3, 54, 0
5, 80053, Note_on_c, 3, 52, 93
5, 80053, Note_on_c, 3, 56, 93
5, 80173, Note_on_c, 3, 56, 0
5, 80173, Note_on_c, 3, 52, 0
5, 80173, Note_on_c, 3, 57, 93
5, 80173, Note_on_c, 3, 54, 93
5, 80293, Note_on_c, 3, 54, 0
5, 80293, Note_on_c, 3, 57, 0
5, 80293, Note_on_c, 3, 54, 93
5, 80293, Note_on_c, 3, 57, 93
5, 80413, Note_on_c, 3, 57, 0
5, 80413, Note_on_c, 3, 54, 0
5, 80413, Note_on_c, 3, 54, 93
5, 80413, Note_on_c, 3, 57, 93
5, 80533, Note_on_c, 3, 57, 0
5, 80533, Note_on_c, 3, 54, 0
5, 80533, Note_on_c, 3, 57, 93
5, 80533, Note_on_c, 3, 54, 93
5, 80653, Note_on_c, 3, 54, 0
5, 80653, Note_on_c, 3, 57, 0
5, 80653, Note_on_c, 3, 52, 93
5, 80653, Note_on_c, 3, 56, 93
5, 80773, Note_on_c, 3, 56, 0
5, 80773, Note_on_c, 3, 52, 0
5, 80893, Note_on_c, 3, 56, 93
5, 80893, Note_on_c, 3, 52, 93
5, 81013, Note_on_c, 3, 52, 0
5, 81013, Note_on_c, 3, 56, 0
5, 81133, Note_on_c, 3, 52, 93
5, 81133, Note_on_c, 3, 56, 93
5, 81253, Note_on_c, 3, 56, 0
5, 81253, Note_on_c, 3, 52, 0
5, 81373, Note_on_c, 3, 56, 93
5, 81373, Note_on_c, 3, 52, 93
5, 81493, Note_on_c, 3, 52, 0
5, 81493, Note_on_c, 3, 56, 0
5, 81613, Control_c, 3, 11, 107
5, 81613, Note_on_c, 3, 57, 93
5, 81613, Note_on_c, 3, 54, 93
5, 81630, Control_c, 3, 11, 104
5, 81648, Control_c, 3, 11, 101
5, 81666, Control_c, 3, 11, 98
5, 81684, Control_c, 3, 11, 95
5, 81702, Control_c, 3, 11, 92
5, 81720, Control_c, 3, 11, 89
5, 82573, Note_on_c, 3, 54, 0
5, 82573, Note_on_c, 3, 57, 0
5, 82573, Note_on_c, 3, 52, 93
5, 82573, Note_on_c, 3, 56, 93
5, 82693, Note_on_c, 3, 56, 0
5, 82693, Note_on_c, 3, 52, 0
5, 82813, Note_on_c, 3, 52, 93
5, 82813, Note_on_c, 3, 56, 93
5, 82933, Note_on_c, 3, 56, 0
5, 82933, Note_on_c, 3, 52, 0
5, 83053, Note_on_c, 3, 52, 93
5, 83053, Note_on_c, 3, 56, 93
5, 83173, Note_on_c, 3, 56, 0
5, 83173, Note_on_c, 3, 52, 0
5, 83293, Note_on_c, 3, 52, 93
5, 83293, Note_on_c, 3, 56, 93
5, 83413, Note_on_c, 3, 56, 0
5, 83413, Note_on_c, 3, 52, 0
5, 83533, Control_c, 3, 11, 107
5, 83533, Note_on_c, 3, 57, 93
5, 83533, Note_on_c, 3, 54, 93
5, 83550, Control_c, 3, 11, 104
5, 83568, Control_c, 3, 11, 101
5, 83586, Control_c, 3, 11, 98
5, 83604, Control_c, 3, 11, 95
5, 83622, Control_c, 3, 11, 92
5, 83640, Control_c, 3, 11, 89
5, 84493, Note_on_c, 3, 54, 0
5, 84493, Note_on_c, 3, 57, 0
5, 84493, Note_on_c, 3, 52, 93
5, 84493, Note_on_c, 3, 56, 93
5, 85453, Note_on_c, 3, 56, 0
5, 85453, Note_on_c, 3, 52, 0
5, 85453, Note_on_c, 3, 62, 93
5, 85453, Note_on_c, 3, 59, 93
5, 86173, Note_on_c, 3, 59, 0
5, 86173, Note_on_c, 3, 62, 0
5, 86173, Note_on_c, 3, 52, 93
5, 86203, Note_on_c, 3, 52, 0
5, 86233, Note_on_c, 3, 50, 93
5, 86263, Note_on_c, 3, 50, 0
5, 86293, Note_on_c, 3, 47, 93
5, 86323, Note_on_c, 3, 47, 0
5, 86353, Note_on_c, 3, 45, 93
5, 86383, Note_on_c, 3, 45, 0
5, 86413, Note_on_c, 3, 44, 74
5, 86533, Note_on_c, 3, 44, 0
5, 87013, Control_c, 3, 11, 52
5, 87013, Note_on_c, 3, 52, 83
5, 87133, Note_on_c, 3, 52, 0
5, 87253, Note_on_c, 3, 52, 83
5, 87373, Note_on_c, 3, 52, 0
5, 87493, Note_on_c, 3, 64, 83
5, 87613, Note_on_c, 3, 64, 0
5, 87733, Note_on_c, 3, 52, 83
5, 87853, Note_on_c, 3, 52, 0
5, 87973, Note_on_c, 3, 52, 83
5, 88093, Note_on_c, 3, 52, 0
5, 88213, Note_on_c, 3, 64, 83
5, 88333, Note_on_c, 3, 64, 0
5, 88333, Note_on_c, 3, 64, 83
5, 88453, Note_on_c, 3, 64, 0
5, 88933, Note_on_c, 3, 52, 93
5, 89053, Note_on_c, 3, 52, 0
5, 89173, Note_on_c, 3, 52, 93
5, 89293, Note_on_c, 3, 52, 0
5, 89413, Note_on_c, 3, 64, 93
5, 89533, Note_on_c, 3, 64, 0
5, 89653, Note_on_c, 3, 52, 93
5, 89773, Note_on_c, 3, 52, 0
5, 89893, Note_on_c, 3, 52, 93
5, 90013, Note_on_c, 3, 52, 0
5, 90133, Note_on_c, 3, 64, 93
5, 90253, Note_on_c, 3, 64, 0
5, 90253, Note_on_c, 3, 64, 93
5, 90373, Note_on_c, 3, 64, 0
5, 90853, Note_on_c, 3, 54, 93
5, 90973, Note_on_c, 3, 54, 0
5, 91093, Note_on_c, 3, 66, 93
5, 91213, Note_on_c, 3, 66, 0
5, 91213, Note_on_c, 3, 66, 93
5, 91333, Note_on_c, 3, 66, 0
5, 91813, Note_on_c, 3, 55, 93
5, 91933, Note_on_c, 3, 55, 0
5, 92053, Note_on_c, 3, 55, 93
5, 92173, Note_on_c, 3, 55, 0
5, 92293, Note_on_c, 3, 67, 93
5, 92413, Note_on_c, 3, 67, 0
5, 92533, Note_on_c, 3, 55, 93
5, 92653, Note_on_c, 3, 55, 0
5, 92773, Note_on_c, 3, 55, 93
5, 92893, Note_on_c, 3, 55, 0
5, 93013, Note_on_c, 3, 67, 93
5, 93133, Note_on_c, 3, 67, 0
5, 93133, Note_on_c, 3, 67, 93
5, 93253, Note_on_c, 3, 67, 0
5, 93253, Control_c, 3, 11, 47
5, 93253, Note_on_c, 3, 67, 93
5, 93253, Note_on_c, 3, 55, 93
5, 93298, Control_c, 3, 11, 48
5, 93343, Control_c, 3, 11, 49
5, 93388, Control_c, 3, 11, 50
5, 93433, Control_c, 3, 11, 51
5, 93478, Control_c, 3, 11, 52
5, 93493, Note_on_c, 3, 55, 0
5, 93493, Note_on_c, 3, 67, 0
5, 93493, Note_on_c, 3, 57, 93
5, 93493, Note_on_c, 3, 69, 93
5, 93523, Control_c, 3, 11, 53
5, 93568, Control_c, 3, 11, 54
5, 93613, Note_on_c, 3, 69, 0
5, 93613, Note_on_c, 3, 57, 0
5, 93613, Control_c, 3, 11, 55
5, 93613, Note_on_c, 3, 67, 93
5, 93613, Note_on_c, 3, 55, 93
5, 93658, Control_c, 3, 11, 56
5, 93703, Control_c, 3, 11, 57
5, 93733, Note_on_c, 3, 55, 0
5, 93733, Note_on_c, 3, 67, 0
5, 93733, Note_on_c, 3, 62, 93
5, 93733, Note_on_c, 3, 59, 93
5, 93748, Control_c, 3, 11, 58
5, 93793, Control_c, 3, 11, 59
5, 93838, Control_c, 3, 11, 60
5, 93883, Control_c, 3, 11, 61
5, 93928, Control_c, 3, 11, 62
5, 93973, Note_on_c, 3, 59, 0
5, 93973, Note_on_c, 3, 62, 0
5, 93973, Control_c, 3, 11, 63
5, 93973, Note_on_c, 3, 59, 93
5, 93973, Note_on_c, 3, 62, 93
5, 94018, Control_c, 3, 11, 64
5, 94063, Control_c, 3, 11, 65
5, 94093, Note_on_c, 3, 62, 0
5, 94093, Note_on_c, 3, 59, 0
5, 94093, Note_on_c, 3, 64, 93
5, 94093, Note_on_c, 3, 60, 93
5, 94108, Control_c, 3, 11, 66
5, 94153, Control_c, 3, 11, 67
5, 94198, Control_c, 3, 11, 68
5, 94213, Note_on_c, 3, 60, 0
5, 94213, Note_on_c, 3, 64, 0
5, 94213, Note_on_c, 3, 62, 93
5, 94213, Note_on_c, 3, 59, 93
5, 94243, Control_c, 3, 11, 69
5, 94288, Control_c, 3, 11, 70
5, 94333, Note_on_c, 3, 59, 0
5, 94333, Note_on_c, 3, 62, 0
5, 94333, Control_c, 3, 11, 71
5, 94378, Control_c, 3, 11, 72
5, 94423, Control_c, 3, 11, 73
5, 94453, Note_on_c, 3, 62, 93
5, 94453, Note_on_c, 3, 59, 93
5, 94468, Control_c, 3, 11, 74
5, 94513, Control_c, 3, 11, 75
5, 94558, Control_c, 3, 11, 76
5, 94573, Note_on_c, 3, 59, 0
5, 94573, Note_on_c, 3, 62, 0
5, 94573, Note_on_c, 3, 64, 93
5, 94573, Note_on_c, 3, 60, 93
5, 94603, Control_c, 3, 11, 77
5, 94648, Control_c, 3, 11, 78
5, 94693, Note_on_c, 3, 60, 0
5, 94693, Note_on_c, 3, 64, 0
5, 94693, Control_c, 3, 11, 79
5, 94693, Note_on_c, 3, 62, 93
5, 94693, Note_on_c, 3, 59, 93
5, 94738, Control_c, 3, 11, 80
5, 94783, Control_c, 3, 11, 81
5, 94813, Note_on_c, 3, 59, 0
5, 94813, Note_on_c, 3, 62, 0
5, 94828, Control_c, 3, 11, 82
5, 94873, Control_c, 3, 11, 83
5, 94918, Control_c, 3, 11, 84
5, 94933, Note_on_c, 3, 62, 93
5, 94933, Note_on_c, 3, 59, 93
5, 94963, Control_c, 3, 11, 85
5, 95008, Control_c, 3, 11, 86
5, 95053, Note_on_c, 3, 59, 0
5, 95053, Note_on_c, 3, 62, 0
5, 95053, Control_c, 3, 11, 87
5, 95053, Note_on_c, 3, 64, 93
5, 95053, Note_on_c, 3, 60, 93
5, 95173, Note_on_c, 3, 60, 0
5, 95173, Note_on_c, 3, 64, 0
5, 95173, Note_on_c, 3, 62, 93
5, 95173, Note_on_c, 3, 59, 93
5, 95233, Note_on_c, 3, 59, 0
5, 95233, Note_on_c, 3, 62, 0
5, 95233, Note_on_c, 3, 62, 93
5, 95233, Note_on_c, 3, 59, 93
5, 95293, Note_on_c, 3, 59, 0
5, 95293, Note_on_c, 3, 62, 0
5, 95293, Note_on_c, 3, 64, 93
5, 95293, Note_on_c, 3, 60, 93
5, 95413, Note_on_c, 3, 60, 0
5, 95413, Note_on_c, 3, 64, 0
5, 95413, Note_on_c, 3, 62, 93
5, 95413, Note_on_c, 3, 59, 93
5, 95473, Note_on_c, 3, 59, 0
5, 95473, Note_on_c, 3, 62, 0
5, 95473, Note_on_c, 3, 62, 93
5, 95473, Note_on_c, 3, 59, 93
5, 95533, Note_on_c, 3, 59, 0
5, 95533, Note_on_c, 3, 62, 0
5, 95533, Note_on_c, 3, 60, 93
5, 95533, Note_on_c, 3, 64, 93
5, 95653, Note_on_c, 3, 64, 0
5, 95653, Note_on_c, 3, 60, 0
5, 95653, Note_on_c, 3, 62, 93
5, 95653, Note_on_c, 3, 59, 93
5, 95713, Note_on_c, 3, 59, 0
5, 95713, Note_on_c, 3, 62, 0
5, 95713, Note_on_c, 3, 62, 93
5, 95713, Note_on_c, 3, 59, 93
5, 95773, Note_on_c, 3, 59, 0
5, 95773, Note_on_c, 3, 62, 0
5, 95773, Note_on_c, 3, 60, 93
5, 95773, Note_on_c, 3, 64, 93
5, 95893, Note_on_c, 3, 64, 0
5, 95893, Note_on_c, 3, 60, 0
5, 95893, Note_on_c, 3, 62, 93
5, 95893, Note_on_c, 3, 59, 93
5, 95953, Note_on_c, 3, 59, 0
5, 95953, Note_on_c, 3, 62, 0
5, 95953, Note_on_c, 3, 62, 93
5, 95953, Note_on_c, 3, 59, 93
5, 96013, Note_on_c, 3, 59, 0
5, 96013, Note_on_c, 3, 62, 0
5, 96013, Control_c, 3, 11, 102
5, 96013, Note_on_c, 3, 64, 93
5, 96013, Note_on_c, 3, 60, 93
5, 96493, Note_on_c, 3, 60, 0
5, 96493, Note_on_c, 3, 64, 0
5, 96493, Note_on_c, 3, 60, 93
5, 96553, Note_on_c, 3, 60, 0
5, 96553, Note_on_c, 3, 59, 93
5, 96613, Note_on_c, 3, 59, 0
5, 96613, Note_on_c, 3, 57, 93
5, 96673, Note_on_c, 3, 57, 0
5, 96673, Note_on_c, 3, 55, 93
5, 96733, Note_on_c, 3, 55, 0
5, 96733, Note_on_c, 3, 53, 93
5, 96793, Note_on_c, 3, 53, 0
5, 96793, Note_on_c, 3, 52, 93
5, 96853, Note_on_c, 3, 52, 0
5, 96853, Note_on_c, 3, 50, 93
5, 96913, Note_on_c, 3, 50, 0
5, 96913, Note_on_c, 3, 48, 93
5, 96973, Note_on_c, 3, 48, 0
5, 96973, Note_on_c, 3, 57, 93
5, 96973, Note_on_c, 3, 45, 93
5, 97453, Note_on_c, 3, 45, 0
5, 97453, Note_on_c, 3, 57, 0
5, 97453, Note_on_c, 3, 57, 93
5, 97513, Note_on_c, 3, 57, 0
5, 97513, Note_on_c, 3, 55, 93
5, 97573, Note_on_c, 3, 55, 0
5, 97573, Note_on_c, 3, 53, 93
5, 97633, Note_on_c, 3, 53, 0
5, 97633, Note_on_c, 3, 52, 93
5, 97693, Note_on_c, 3, 52, 0
5, 97693, Note_on_c, 3, 50, 93
5, 97753, Note_on_c, 3, 50, 0
5, 97753, Note_on_c, 3, 48, 93
5, 97813, Note_on_c, 3, 48, 0
5, 97813, Note_on_c, 3, 47, 93
5, 97873, Note_on_c, 3, 47, 0
5, 97873, Note_on_c, 3, 45, 93
5, 97933, Note_on_c, 3, 45, 0
5, 97933, Note_on_c, 3, 60, 93
5, 97933, Note_on_c, 3, 57, 93
5, 98893, Note_on_c, 3, 57, 0
5, 98893, Note_on_c, 3, 60, 0
5, 98893, Note_on_c, 3, 60, 93
5, 98893, Note_on_c, 3, 57, 93
5, 99253, Note_on_c, 3, 57, 0
5, 99253, Note_on_c, 3, 60, 0
5, 99253, Control_c, 3, 11, 122
5, 99253, Note_on_c, 3, 61, 93
5, 99253, Note_on_c, 3, 58, 93
5, 99270, Control_c, 3, 11, 119
5, 99288, Control_c, 3, 11, 116
5, 99306, Control_c, 3, 11, 113
5, 99324, Control_c, 3, 11, 110
5, 99342, Control_c, 3, 11, 107
5, 99360, Control_c, 3, 11, 104
5, 99373, Note_on_c, 3, 58, 0
5, 99373, Note_on_c, 3, 61, 0
5, 99373, Note_on_c, 3, 60, 93
5, 99373, Note_on_c, 3, 57, 93
5, 99733, Note_on_c, 3, 57, 0
5, 99733, Note_on_c, 3, 60, 0
5, 99733, Control_c, 3, 11, 122
5, 99733, Note_on_c, 3, 61, 93
5, 99733, Note_on_c, 3, 58, 93
5, 99750, Control_c, 3, 11, 119
5, 99768, Control_c, 3, 11, 116
5, 99786, Control_c, 3, 11, 113
5, 99804, Control_c, 3, 11, 110
5, 99822, Control_c, 3, 11, 107
5, 99840, Control_c, 3, 11, 104
5, 99853, Note_on_c, 3, 58, 0
5, 99853, Note_on_c, 3, 61, 0
5, 99853, Note_on_c, 3, 60, 93
5, 99853, Note_on_c, 3, 57, 93
5, 99973, Note_on_c, 3, 57, 0
5, 99973, Note_on_c, 3, 60, 0
5, 99973, Control_c, 3, 11, 122
5, 99973, Note_on_c, 3, 58, 93
5, 99973, Note_on_c, 3, 61, 93
5, 99990, Control_c, 3, 11, 119
5, 100008, Control_c, 3, 11, 116
5, 100026, Control_c, 3, 11, 113
5, 100044, Control_c, 3, 11, 110
5, 100062, Control_c, 3, 11, 107
5, 100080, Control_c, 3, 11, 104
5, 100093, Note_on_c, 3, 61, 0
5, 100093, Note_on_c, 3, 58, 0
5, 100093, Note_on_c, 3, 57, 93
5, 100093, Note_on_c, 3, 60, 93
5, 100213, Note_on_c, 3, 60, 0
5, 100213, Note_on_c, 3, 57, 0
5, 100213, Control_c, 3, 11, 122
5, 100213, Note_on_c, 3, 61, 93
5, 100213, Note_on_c, 3, 58, 93
5, 100230, Control_c, 3, 11, 119
5, 100248, Control_c, 3, 11, 116
5, 100266, Control_c, 3, 11, 113
5, 100284, Control_c, 3, 11, 110
5, 100302, Control_c, 3, 11, 107
5, 100320, Control_c, 3, 11, 104
5, 100333, Note_on_c, 3, 58, 0
5, 100333, Note_on_c, 3, 61, 0
5, 100333, Note_on_c, 3, 60, 93
5, 100333, Note_on_c, 3, 57, 93
5, 100453, Note_on_c, 3, 57, 0
5, 100453, Note_on_c, 3, 60, 0
5, 100453, Control_c, 3, 11, 122
5, 100453, Note_on_c, 3, 58, 93
5, 100453, Note_on_c, 3, 61, 93
5, 100470, Control_c, 3, 11, 119
5, 100488, Control_c, 3, 11, 116
5, 100506, Control_c, 3, 11, 113
5, 100524, Control_c, 3, 11, 110
5, 100542, Control_c, 3, 11, 107
5, 100560, Control_c, 3, 11, 104
5, 100573, Note_on_c, 3, 61, 0
5, 100573, Note_on_c, 3, 58, 0
5, 100573, Note_on_c, 3, 57, 93
5, 100573, Note_on_c, 3, 60, 93
5, 100693, Note_on_c, 3, 60, 0
5, 100693, Note_on_c, 3, 57, 0
5, 100693, Control_c, 3, 11, 122
5, 100693, Note_on_c, 3, 60, 93
5, 100693, Note_on_c, 3, 48, 93
5, 100710, Control_c, 3, 11, 119
5, 100728, Control_c, 3, 11, 116
5, 100746, Control_c, 3, 11, 113
5, 100764, Control_c, 3, 11, 110
5, 100782, Control_c, 3, 11, 107
5, 100800, Control_c, 3, 11, 104
5, 100813, Note_on_c, 3, 48, 0
5, 100813, Note_on_c, 3, 60, 0
5, 100813, Note_on_c, 3, 55, 93
5, 100813, Note_on_c, 3, 59, 93
5, 100933, Note_on_c, 3, 59, 0
5, 100933, Note_on_c, 3, 55, 0
5, 100933, Control_c, 3, 11, 122
5, 100933, Note_on_c, 3, 48, 93
5, 100933, Note_on_c, 3, 60, 93
5, 100950, Control_c, 3, 11, 119
5, 100968, Control_c, 3, 11, 116
5, 100986, Control_c, 3, 11, 113
5, 101004, Control_c, 3, 11, 110
5, 101022, Control_c, 3, 11, 107
5, 101040, Control_c, 3, 11, 104
5, 101053, Note_on_c, 3, 60, 0
5, 101053, Note_on_c, 3, 48, 0
5, 101053, Note_on_c, 3, 60, 93
5, 101053, Note_on_c, 3, 48, 93
5, 101173, Note_on_c, 3, 48, 0
5, 101173, Note_on_c, 3, 60, 0
5, 101173, Control_c, 3, 11, 122
5, 101173, Note_on_c, 3, 60, 93
5, 101173, Note_on_c, 3, 48, 93
5, 101190, Control_c, 3, 11, 119
5, 101208, Control_c, 3, 11, 116
5, 101226, Control_c, 3, 11, 113
5, 101244, Control_c, 3, 11, 110
5, 101262, Control_c, 3, 11, 107
5, 101280, Control_c, 3, 11, 104
5, 101293, Note_on_c, 3, 48, 0
5, 101293, Note_on_c, 3, 60, 0
5, 101293, Note_on_c, 3, 48, 93
5, 101293, Note_on_c, 3, 60, 93
5, 101413, Note_on_c, 3, 60, 0
5, 101413, Note_on_c, 3, 48, 0
5, 101413, Control_c, 3, 11, 122
5, 101413, Note_on_c, 3, 64, 93
5, 101413, Note_on_c, 3, 60, 93
5, 101430, Control_c, 3, 11, 119
5, 101448, Control_c, 3, 11, 116
5, 101466, Control_c, 3, 11, 113
5, 101484, Control_c, 3, 11, 110
5, 101502, Control_c, 3, 11, 107
5, 101520, Control_c, 3, 11, 104
5, 101533, Note_on_c, 3, 60, 0
5, 101533, Note_on_c, 3, 64, 0
5, 101533, Note_on_c, 3, 55, 93
5, 101533, Note_on_c, 3, 62, 93
5, 101653, Note_on_c, 3, 62, 0
5, 101653, Note_on_c, 3, 55, 0
5, 101653, Control_c, 3, 11, 122
5, 101653, Note_on_c, 3, 55, 93
5, 101653, Note_on_c, 3, 62, 93
5, 101670, Control_c, 3, 11, 119
5, 101688, Control_c, 3, 11, 116
5, 101706, Control_c, 3, 11, 113
5, 101724, Control_c, 3, 11, 110
5, 101742, Control_c, 3, 11, 107
5, 101760, Control_c, 3, 11, 104
5, 101773, Note_on_c, 3, 62, 0
5, 101773, Note_on_c, 3, 55, 0
5, 101773, Note_on_c, 3, 60, 93
5, 101773, Note_on_c, 3, 52, 93
5, 101893, Note_on_c, 3, 52, 0
5, 101893, Note_on_c, 3, 60, 0
5, 101893, Control_c, 3, 11, 57
5, 101893, Note_on_c, 3, 60, 93
5, 101893, Note_on_c, 3, 48, 93
5, 102133, Note_on_c, 3, 48, 0
5, 102133, Note_on_c, 3, 60, 0
5, 102133, Control_c, 3, 11, 87
5, 102133, Note_on_c, 3, 53, 93
5, 102133, Note_on_c, 3, 56, 93
5, 102253, Note_on_c, 3, 56, 0
5, 102253, Note_on_c, 3, 53, 0
5, 102253, Note_on_c, 3, 52, 93
5, 102253, Note_on_c, 3, 55, 93
5, 102373, Note_on_c, 3, 55, 0
5, 102373, Note_on_c, 3, 52, 0
5, 102373, Control_c, 3, 11, 57
5, 102373, Note_on_c, 3, 60, 93
5, 102373, Note_on_c, 3, 48, 93
5, 102613, Note_on_c, 3, 48, 0
5, 102613, Note_on_c, 3, 60, 0
5, 102613, Control_c, 3, 11, 87
5, 102613, Note_on_c, 3, 56, 93
5, 102613, Note_on_c, 3, 53, 93
5, 102733, Note_on_c, 3, 53, 0
5, 102733, Note_on_c, 3, 56, 0
5, 102733, Note_on_c, 3, 52, 93
5, 102733, Note_on_c, 3, 55, 93
5, 102853, Note_on_c, 3, 55, 0
5, 102853, Note_on_c, 3, 52, 0
5, 102853, Control_c, 3, 11, 57
5, 102853, Note_on_c, 3, 60, 93
5, 102853, Note_on_c, 3, 48, 93
5, 103093, Note_on_c, 3, 48, 0
5, 103093, Note_on_c, 3, 60, 0
5, 103093, Control_c, 3, 11, 87
5, 103093, Note_on_c, 3, 53, 93
5, 103093, Note_on_c, 3, 56, 93
5, 103213, Note_on_c, 3, 56, 0
5, 103213, Note_on_c, 3, 53, 0
5, 103213, Note_on_c, 3, 55, 93
5, 103213, Note_on_c, 3, 52, 93
5, 103333, Note_on_c, 3, 52, 0
5, 103333, Note_on_c, 3, 55, 0
5, 103333, Control_c, 3, 11, 57
5, 103333, Note_on_c, 3, 60, 93
5, 103333, Note_on_c, 3, 48, 93
5, 103573, Note_on_c, 3, 48, 0
5, 103573, Note_on_c, 3, 60, 0
5, 103573, Control_c, 3, 11, 87
5, 103573, Note_on_c, 3, 53, 93
5, 103573, Note_on_c, 3, 56, 93
5, 103693, Note_on_c, 3, 56, 0
5, 103693, Note_on_c, 3, 53, 0
5, 103693, Note_on_c, 3, 55, 93
5, 103693, Note_on_c, 3, 52, 93
5, 103813, Note_on_c, 3, 52, 0
5, 103813, Note_on_c, 3, 55, 0
5, 103813, Control_c, 3, 11, 87
5, 103813, Note_on_c, 3, 48, 93
5, 103813, Note_on_c, 3, 52, 93
5, 103863, Note_on_c, 3, 52, 0
5, 103863, Note_on_c, 3, 48, 0
5, 103873, Note_on_c, 3, 52, 93
5, 103873, Note_on_c, 3, 48, 93
5, 103923, Note_on_c, 3, 48, 0
5, 103923, Note_on_c, 3, 52, 0
5, 103933, Note_on_c, 3, 48, 93
5, 103933, Note_on_c, 3, 52, 93
5, 104053, Note_on_c, 3, 52, 0
5, 104053, Note_on_c, 3, 48, 0
5, 104173, Note_on_c, 3, 52, 93
5, 104173, Note_on_c, 3, 55, 93
5, 104293, Note_on_c, 3, 55, 0
5, 104293, Note_on_c, 3, 52, 0
5, 104293, Note_on_c, 3, 55, 93
5, 104293, Note_on_c, 3, 52, 93
5, 104343, Note_on_c, 3, 52, 0
5, 104343, Note_on_c, 3, 55, 0
5, 104353, Note_on_c, 3, 55, 93
5, 104353, Note_on_c, 3, 52, 93
5, 104403, Note_on_c, 3, 52, 0
5, 104403, Note_on_c, 3, 55, 0
5, 104413, Note_on_c, 3, 52, 93
5, 104413, Note_on_c, 3, 55, 93
5, 104533, Note_on_c, 3, 55, 0
5, 104533, Note_on_c, 3, 52, 0
5, 104653, Note_on_c, 3, 48, 93
5, 104773, Note_on_c, 3, 48, 0
5, 104773, Note_on_c, 3, 48, 93
5, 104823, Note_on_c, 3, 48, 0
5, 104833, Note_on_c, 3, 48, 93
5, 104883, Note_on_c, 3, 48, 0
5, 104893, Note_on_c, 3, 48, 93
5, 105013, Note_on_c, 3, 48, 0
5, 105013, Note_on_c, 3, 48, 93
5, 105063, Note_on_c, 3, 48, 0
5, 105073, Note_on_c, 3, 48, 93
5, 105123, Note_on_c, 3, 48, 0
5, 105133, Note_on_c, 3, 48, 93
5, 105253, Note_on_c, 3, 48, 0
5, 105253, Note_on_c, 3, 48, 93
5, 105303, Note_on_c, 3, 48, 0
5, 105313, Note_on_c, 3, 48, 93
5, 105363, Note_on_c, 3, 48, 0
5, 105373, Note_on_c, 3, 48, 93
5, 105493, Note_on_c, 3, 48, 0
5, 105493, Note_on_c, 3, 48, 93
5, 105543, Note_on_c, 3, 48, 0
5, 105553, Note_on_c, 3, 48, 93
5, 105603, Note_on_c, 3, 48, 0
5, 105613, Note_on_c, 3, 48, 93
5, 105733, Note_on_c, 3, 48, 0
5, 105733, Note_on_c, 3, 48, 93
5, 105783, Note_on_c, 3, 48, 0
5, 105793, Note_on_c, 3, 48, 93
5, 105843, Note_on_c, 3, 48, 0
5, 105853, Note_on_c, 3, 48, 93
5, 105973, Note_on_c, 3, 48, 0
5, 105973, Note_on_c, 3, 48, 93
5, 106023, Note_on_c, 3, 48, 0
5, 106033, Note_on_c, 3, 48, 93
5, 106083, Note_on_c, 3, 48, 0
5, 106093, Note_on_c, 3, 48, 93
5, 106213, Note_on_c, 3, 48, 0
5, 106213, Note_on_c, 3, 48, 93
5, 106263, Note_on_c, 3, 48, 0
5, 106273, Note_on_c, 3, 48, 93
5, 106323, Note_on_c, 3, 48, 0
5, 106333, Note_on_c, 3, 48, 93
5, 106453, Note_on_c, 3, 48, 0
5, 106453, Note_on_c, 3, 48, 93
5, 106503, Note_on_c, 3, 48, 0
5, 106513, Note_on_c, 3, 48, 93
5, 106563, Note_on_c, 3, 48, 0
5, 106573, Note_on_c, 3, 47, 93
5, 106693, Note_on_c, 3, 47, 0
5, 106693, Control_c, 3, 11, 62
5, 106693, Note_on_c, 3, 63, 93
5, 106693, Note_on_c, 3, 59, 93
5, 106813, Note_on_c, 3, 59, 0
5, 106813, Note_on_c, 3, 63, 0
5, 106813, Note_on_c, 3, 64, 93
5, 106813, Note_on_c, 3, 61, 93
5, 106933, Note_on_c, 3, 61, 0
5, 106933, Note_on_c, 3, 64, 0
5, 107173, Note_on_c, 3, 63, 93
5, 107173, Note_on_c, 3, 59, 93
5, 107293, Note_on_c, 3, 59, 0
5, 107293, Note_on_c, 3, 63, 0
5, 107293, Note_on_c, 3, 64, 93
5, 107293, Note_on_c, 3, 61, 93
5, 107413, Note_on_c, 3, 61, 0
5, 107413, Note_on_c, 3, 64, 0
5, 107653, Note_on_c, 3, 63, 93
5, 107653, Note_on_c, 3, 59, 93
5, 107773, Note_on_c, 3, 59, 0
5, 107773, Note_on_c, 3, 63, 0
5, 107773, Note_on_c, 3, 64, 93
5, 107773, Note_on_c, 3, 61, 93
5, 107893, Note_on_c, 3, 61, 0
5, 107893, Note_on_c, 3, 64, 0
5, 108133, Note_on_c, 3, 63, 93
5, 108133, Note_on_c, 3, 59, 93
5, 108253, Note_on_c, 3, 59, 0
5, 108253, Note_on_c, 3, 63, 0
5, 108253, Note_on_c, 3, 64, 93
5, 108253, Note_on_c, 3, 61, 93
5, 108363, Note_on_c, 3, 61, 0
5, 108363, Note_on_c, 3, 64, 0
5, 108373, Control_c, 3, 11, 87
5, 108373, Note_on_c, 3, 64, 93
5, 108373, Note_on_c, 3, 61, 93
5, 108493, Note_on_c, 3, 61, 0
5, 108493, Note_on_c, 3, 64, 0
5, 108493, Note_on_c, 3, 63, 93
5, 108493, Note_on_c, 3, 59, 93
5, 108613, Note_on_c, 3, 59, 0
5, 108613, Note_on_c, 3, 63, 0
5, 108613, Note_on_c, 3, 47, 93
5, 108613, Note_on_c, 3, 59, 93
5, 108663, Note_on_c, 3, 59, 0
5, 108663, Note_on_c, 3, 47, 0
5, 108673, Note_on_c, 3, 59, 93
5, 108673, Note_on_c, 3, 47, 93
5, 108723, Note_on_c, 3, 47, 0
5, 108723, Note_on_c, 3, 59, 0
5, 108733, Note_on_c, 3, 59, 93
5, 108733, Note_on_c, 3, 47, 93
5, 108843, Note_on_c, 3, 47, 0
5, 108843, Note_on_c, 3, 59, 0
5, 108853, Note_on_c, 3, 47, 93
5, 108853, Note_on_c, 3, 59, 93
5, 108903, Note_on_c, 3, 59, 0
5, 108903, Note_on_c, 3, 47, 0
5, 108913, Note_on_c, 3, 59, 93
5, 108913, Note_on_c, 3, 47, 93
5, 108963, Note_on_c, 3, 47, 0
5, 108963, Note_on_c, 3, 59, 0
5, 108973, Note_on_c, 3, 59, 93
5, 108973, Note_on_c, 3, 47, 93
5, 109083, Note_on_c, 3, 47, 0
5, 109083, Note_on_c, 3, 59, 0
5, 109093, Note_on_c, 3, 59, 93
5, 109093, Note_on_c, 3, 47, 93
5, 109143, Note_on_c, 3, 47, 0
5, 109143, Note_on_c, 3, 59, 0
5, 109153, Note_on_c, 3, 47, 93
5, 109153, Note_on_c, 3, 59, 93
5, 109203, Note_on_c, 3, 59, 0
5, 109203, Note_on_c, 3, 47, 0
5, 109213, Note_on_c, 3, 59, 93
5, 109213, Note_on_c, 3, 47, 93
5, 109323, Note_on_c, 3, 47, 0
5, 109323, Note_on_c, 3, 59, 0
5, 109333, Note_on_c, 3, 47, 93
5, 109333, Note_on_c, 3, 59, 93
5, 109383, Note_on_c, 3, 59, 0
5, 109383, Note_on_c, 3, 47, 0
5, 109393, Note_on_c, 3, 59, 93
5, 109393, Note_on_c, 3, 47, 93
5, 109443, Note_on_c, 3, 47, 0
5, 109443, Note_on_c, 3, 59, 0
5, 109453, Note_on_c, 3, 59, 93
5, 109453, Note_on_c, 3, 47, 93
5, 109563, Note_on_c, 3, 47, 0
5, 109563, Note_on_c, 3, 59, 0
5, 109573, Note_on_c, 3, 59, 93
5, 109573, Note_on_c, 3, 47, 93
5, 109623, Note_on_c, 3, 47, 0
5, 109623, Note_on_c, 3, 59, 0
5, 109633, Note_on_c, 3, 47, 93
5, 109633, Note_on_c, 3, 59, 93
5, 109683, Note_on_c, 3, 59, 0
5, 109683, Note_on_c, 3, 47, 0
5, 109693, Note_on_c, 3, 59, 93
5, 109693, Note_on_c, 3, 47, 93
5, 109803, Note_on_c, 3, 47, 0
5, 109803, Note_on_c, 3, 59, 0
5, 109813, Note_on_c, 3, 59, 93
5, 109813, Note_on_c, 3, 47, 93
5, 109863, Note_on_c, 3, 47, 0
5, 109863, Note_on_c, 3, 59, 0
5, 109873, Note_on_c, 3, 47, 93
5, 109873, Note_on_c, 3, 59, 93
5, 109923, Note_on_c, 3, 59, 0
5, 109923, Note_on_c, 3, 47, 0
5, 109933, Note_on_c, 3, 59, 93
5, 109933, Note_on_c, 3, 47, 93
5, 110043, Note_on_c, 3, 47, 0
5, 110043, Note_on_c, 3, 59, 0
5, 110053, Note_on_c, 3, 59, 93
5, 110053, Note_on_c, 3, 47, 93
5, 110103, Note_on_c, 3, 47, 0
5, 110103, Note_on_c, 3, 59, 0
5, 110113, Note_on_c, 3, 47, 93
5, 110113, Note_on_c, 3, 59, 93
5, 110163, Note_on_c, 3, 59, 0
5, 110163, Note_on_c, 3, 47, 0
5, 110173, Note_on_c, 3, 59, 93
5, 110173, Note_on_c, 3, 47, 93
5, 110283, Note_on_c, 3, 47, 0
5, 110283, Note_on_c, 3, 59, 0
5, 110293, Note_on_c, 3, 59, 93
5, 110293, Note_on_c, 3, 47, 93
5, 110343, Note_on_c, 3, 47, 0
5, 110343, Note_on_c, 3, 59, 0
5, 110353, Note_on_c, 3, 47, 93
5, 110353, Note_on_c, 3, 59, 93
5, 110403, Note_on_c, 3, 59, 0
5, 110403, Note_on_c, 3, 47, 0
5, 110413, Note_on_c, 3, 52, 93
5, 110583, Note_on_c, 3, 52, 0
5, 110593, Note_on_c, 3, 47, 93
5, 110643, Note_on_c, 3, 47, 0
5, 110653, Note_on_c, 3, 47, 93
5, 110703, Note_on_c, 3, 47, 0
5, 110893, Note_on_c, 3, 56, 93
5, 111063, Note_on_c, 3, 56, 0
5, 111073, Note_on_c, 3, 52, 93
5, 111123, Note_on_c, 3, 52, 0
5, 111133, Note_on_c, 3, 52, 93
5, 111183, Note_on_c, 3, 52, 0
5, 111373, Note_on_c, 3, 59, 93
5, 111543, Note_on_c, 3, 59, 0
5, 111553, Note_on_c, 3, 56, 93
5, 111603, Note_on_c, 3, 56, 0
5, 111613, Note_on_c, 3, 56, 93
5, 111663, Note_on_c, 3, 56, 0
5, 111733, Note_on_c, 3, 52, 93
5, 111793, Note_on_c, 3, 52, 0
5, 111853, Note_on_c, 3, 47, 93
5, 111913, Note_on_c, 3, 47, 0
5, 114733, Control_c, 3, 11, 27
5, 114733, Note_on_c, 3, 52, 75
5, 114745, Control_c, 3, 11, 30
5, 114757, Control_c, 3, 11, 33
5, 114769, Control_c, 3, 11, 36
5, 114781, Control_c, 3, 11, 39
5, 114793, Control_c, 3, 11, 42
5, 114805, Control_c, 3, 11, 45
5, 114813, Note_on_c, 3, 52, 0
5, 114813, Note_on_c, 3, 56, 75
5, 114893, Note_on_c, 3, 56, 0
5, 114893, Note_on_c, 3, 59, 75
5, 114973, Note_on_c, 3, 59, 0
5, 114973, Note_on_c, 3, 62, 75
5, 115053, Note_on_c, 3, 62, 0
5, 115053, Note_on_c, 3, 61, 75
5, 115133, Note_on_c, 3, 61, 0
5, 115133, Note_on_c, 3, 59, 75
5, 115213, Note_on_c, 3, 59, 0
5, 115213, Note_on_c, 3, 57, 75
5, 115333, Note_on_c, 3, 57, 0
5, 117613, Note_on_c, 3, 59, 75
5, 117613, Note_on_c, 3, 56, 75
5, 117853, Note_on_c, 3, 56, 0
5, 117853, Note_on_c, 3, 59, 0
5, 117853, Note_on_c, 3, 52, 75
5, 117853, Note_on_c, 3, 56, 75
5, 118093, Note_on_c, 3, 56, 0
5, 118093, Note_on_c, 3, 52, 0
5, 118093, Note_on_c, 3, 57, 75
5, 118093, Note_on_c, 3, 54, 75
5, 119003, Control_c, 3, 11, 47
5, 119006, Control_c, 3, 11, 44
5, 119009, Control_c, 3, 11, 41
5, 119012, Control_c, 3, 11, 38
5, 119015, Control_c, 3, 11, 35
5, 119018, Control_c, 3, 11, 32
5, 119021, Control_c, 3, 11, 29
5, 119023, Note_on_c, 3, 54, 0
5, 119023, Note_on_c, 3, 57, 0
5, 119053, Control_c, 3, 11, 87
5, 119053, Note_on_c, 3, 48, 93
5, 119053, Note_on_c, 3, 60, 93
5, 119203, Note_on_c, 3, 60, 0
5, 119203, Note_on_c, 3, 48, 0
5, 119233, Note_on_c, 3, 47, 93
5, 119233, Note_on_c, 3, 59, 93
5, 119278, Note_on_c, 3, 59, 0
5, 119278, Note_on_c, 3, 47, 0
5, 119293, Note_on_c, 3, 47, 93
5, 119293, Note_on_c, 3, 59, 93
5, 119413, Note_on_c, 3, 59, 0
5, 119413, Note_on_c, 3, 47, 0
5, 119533, Note_on_c, 3, 60, 93
5, 119533, Note_on_c, 3, 48, 93
5, 119683, Note_on_c, 3, 48, 0
5, 119683, Note_on_c, 3, 60, 0
5, 119713, Note_on_c, 3, 47, 93
5, 119713, Note_on_c, 3, 59, 93
5, 119758, Note_on_c, 3, 59, 0
5, 119758, Note_on_c, 3, 47, 0
5, 119773, Note_on_c, 3, 47, 93
5, 119773, Note_on_c, 3, 59, 93
5, 119893, Note_on_c, 3, 59, 0
5, 119893, Note_on_c, 3, 47, 0
5, 120013, Note_on_c, 3, 48, 93
5, 120073, Note_on_c, 3, 48, 0
5, 120133, Note_on_c, 3, 47, 93
5, 120193, Note_on_c, 3, 47, 0
5, 120253, Note_on_c, 3, 48, 93
5, 120313, Note_on_c, 3, 48, 0
5, 120373, Note_on_c, 3, 47, 93
5, 120433, Note_on_c, 3, 47, 0
5, 120493, Note_on_c, 3, 48, 93
5, 120553, Note_on_c, 3, 48, 0
5, 120613, Note_on_c, 3, 47, 93
5, 120673, Note_on_c, 3, 47, 0
5, 120733, Note_on_c, 3, 48, 93
5, 120793, Note_on_c, 3, 48, 0
5, 120853, Note_on_c, 3, 47, 93
5, 120913, Note_on_c, 3, 47, 0
5, 120973, Note_on_c, 3, 52, 93
5, 121033, Note_on_c, 3, 52, 0
5, 121093, Note_on_c, 3, 51, 93
5, 121153, Note_on_c, 3, 51, 0
5, 121213, Note_on_c, 3, 52, 93
5, 121273, Note_on_c, 3, 52, 0
5, 121333, Note_on_c, 3, 51, 93
5, 121393, Note_on_c, 3, 51, 0
5, 121453, Note_on_c, 3, 52, 93
5, 121513, Note_on_c, 3, 52, 0
5, 121573, Note_on_c, 3, 51, 93
5, 121633, Note_on_c, 3, 51, 0
5, 121693, Note_on_c, 3, 52, 93
5, 121753, Note_on_c, 3, 52, 0
5, 121813, Note_on_c, 3, 51, 93
5, 121873, Note_on_c, 3, 51, 0
5, 121933, Note_on_c, 3, 60, 93
5, 121993, Note_on_c, 3, 60, 0
5, 122053, Note_on_c, 3, 59, 93
5, 122113, Note_on_c, 3, 59, 0
5, 122173, Note_on_c, 3, 64, 93
5, 122233, Note_on_c, 3, 64, 0
5, 122293, Note_on_c, 3, 63, 93
5, 122353, Note_on_c, 3, 63, 0
5, 122413, Note_on_c, 3, 60, 93
5, 122473, Note_on_c, 3, 60, 0
5, 122533, Note_on_c, 3, 59, 93
5, 122593, Note_on_c, 3, 59, 0
5, 122653, Note_on_c, 3, 61, 93
5, 122713, Note_on_c, 3, 61, 0
5, 122773, Note_on_c, 3, 59, 93
5, 122833, Note_on_c, 3, 59, 0
5, 122893, Note_on_c, 3, 61, 93
5, 122953, Note_on_c, 3, 61, 0
5, 123013, Note_on_c, 3, 59, 93
5, 123073, Note_on_c, 3, 59, 0
5, 123133, Note_on_c, 3, 61, 93
5, 123193, Note_on_c, 3, 61, 0
5, 123253, Note_on_c, 3, 59, 93
5, 123313, Note_on_c, 3, 59, 0
5, 123373, Note_on_c, 3, 61, 93
5, 123433, Note_on_c, 3, 61, 0
5, 123493, Note_on_c, 3, 59, 93
5, 123553, Note_on_c, 3, 59, 0
5, 123613, Note_on_c, 3, 61, 93
5, 123673, Note_on_c, 3, 61, 0
5, 123733, Note_on_c, 3, 59, 93
5, 123793, Note_on_c, 3, 59, 0
5, 123853, Note_on_c, 3, 64, 93
5, 123853, Note_on_c, 3, 59, 93
5, 124813, Note_on_c, 3, 59, 0
5, 124813, Note_on_c, 3, 64, 0
5, 124813, Note_on_c, 3, 63, 93
5, 124813, Note_on_c, 3, 59, 93
5, 125293, Note_on_c, 3, 63, 0
5, 125293, Note_on_c, 3, 66, 93
5, 125773, Note_on_c, 3, 66, 0
5, 125773, Note_on_c, 3, 59, 0
5, 125773, Control_c, 3, 11, 52
5, 125773, Note_on_c, 3, 64, 93
5, 125773, Note_on_c, 3, 59, 93
5, 126733, Note_on_c, 3, 59, 0
5, 126733, Note_on_c, 3, 64, 0
5, 126733, Note_on_c, 3, 63, 93
5, 126733, Note_on_c, 3, 59, 93
5, 127213, Note_on_c, 3, 63, 0
5, 127213, Note_on_c, 3, 66, 93
5, 127693, Note_on_c, 3, 66, 0
5, 127693, Note_on_c, 3, 59, 0
5, 127693, Control_c, 3, 11, 52
5, 127693, Note_on_c, 3, 62, 93
5, 127693, Note_on_c, 3, 59, 93
5, 127802, Control_c, 3, 11, 53
5, 127912, Control_c, 3, 11, 54
5, 128022, Control_c, 3, 11, 55
5, 128131, Control_c, 3, 11, 56
5, 128241, Control_c, 3, 11, 57
5, 128351, Control_c, 3, 11, 58
5, 128461, Control_c, 3, 11, 59
5, 128570, Control_c, 3, 11, 60
5, 128653, Note_on_c, 3, 59, 0
5, 128653, Note_on_c, 3, 62, 0
5, 128653, Note_on_c, 3, 57, 93
5, 128653, Note_on_c, 3, 60, 93
5, 128680, Control_c, 3, 11, 61
5, 128790, Control_c, 3, 11, 62
5, 128899, Control_c, 3, 11, 63
5, 129009, Control_c, 3, 11, 64
5, 129119, Control_c, 3, 11, 65
5, 129229, Control_c, 3, 11, 66
5, 129338, Control_c, 3, 11, 67
5, 129448, Control_c, 3, 11, 68
5, 129558, Control_c, 3, 11, 69
5, 129613, Note_on_c, 3, 60, 0
5, 129613, Note_on_c, 3, 57, 0
5, 129613, Note_on_c, 3, 66, 93
5, 129613, Note_on_c, 3, 63, 93
5, 129667, Control_c, 3, 11, 70
5, 129777, Control_c, 3, 11, 71
5, 129887, Control_c, 3, 11, 72
5, 129997, Control_c, 3, 11, 73
5, 130106, Control_c, 3, 11, 74
5, 130216, Control_c, 3, 11, 75
5, 130326, Control_c, 3, 11, 76
5, 130435, Control_c, 3, 11, 77
5, 130545, Control_c, 3, 11, 78
5, 130655, Control_c, 3, 11, 79
5, 130765, Control_c, 3, 11, 80
5, 130874, Control_c, 3, 11, 81
5, 130984, Control_c, 3, 11, 82
5, 131094, Control_c, 3, 11, 83
5, 131203, Control_c, 3, 11, 84
5, 131313, Control_c, 3, 11, 85
5, 131423, Control_c, 3, 11, 86
5, 131533, Note_on_c, 3, 63, 0
5, 131533, Note_on_c, 3, 66, 0
5, 131533, Control_c, 3, 11, 87
5, 131533, Note_on_c, 3, 66, 93
5, 131533, Note_on_c, 3, 63, 93
5, 132493, Control_c, 3, 11, 87
5, 132557, Control_c, 3, 11, 88
5, 132621, Control_c, 3, 11, 89
5, 132685, Control_c, 3, 11, 90
5, 132749, Control_c, 3, 11, 91
5, 132813, Control_c, 3, 11, 92
5, 132877, Control_c, 3, 11, 93
5, 132941, Control_c, 3, 11, 94
5, 133005, Control_c, 3, 11, 95
5, 133069, Control_c, 3, 11, 96
5, 133133, Control_c, 3, 11, 97
5, 133197, Control_c, 3, 11, 98
5, 133261, Control_c, 3, 11, 99
5, 133325, Control_c, 3, 11, 100
5, 133389, Control_c, 3, 11, 101
5, 133453, Note_on_c, 3, 63, 0
5, 133453, Note_on_c, 3, 66, 0
5, 133453, Control_c, 3, 11, 102
5, 133453, Note_on_c, 3, 66, 93
5, 133453, Note_on_c, 3, 63, 93
5, 135373, Note_on_c, 3, 63, 0
5, 135373, Note_on_c, 3, 66, 0
5, 135373, Note_on_c, 3, 64, 113
5, 135493, Note_on_c, 3, 64, 0
5, 135493, Note_on_c, 3, 63, 93
5, 135613, Note_on_c, 3, 63, 0
5, 135613, Note_on_c, 3, 61, 113
5, 135733, Note_on_c, 3, 61, 0
5, 135733, Note_on_c, 3, 59, 93
5, 135853, Note_on_c, 3, 59, 0
5, 135853, Note_on_c, 3, 57, 113
5, 135973, Note_on_c, 3, 57, 0
5, 135973, Note_on_c, 3, 56, 93
5, 136093, Note_on_c, 3, 56, 0
5, 136093, Note_on_c, 3, 54, 113
5, 136213, Note_on_c, 3, 54, 0
5, 136213, Note_on_c, 3, 52, 93
5, 136333, Note_on_c, 3, 52, 0
5, 136333, Note_on_c, 3, 51, 113
5, 136453, Note_on_c, 3, 51, 0
5, 136453, Note_on_c, 3, 50, 93
5, 136573, Note_on_c, 3, 50, 0
5, 136573, Note_on_c, 3, 49, 113
5, 136693, Note_on_c, 3, 49, 0
5, 136693, Note_on_c, 3, 48, 93
5, 136813, Note_on_c, 3, 48, 0
5, 136813, Note_on_c, 3, 47, 113
5, 136933, Note_on_c, 3, 47, 0
5, 136933, Note_on_c, 3, 58, 93
5, 137053, Note_on_c, 3, 58, 0
5, 137053, Note_on_c, 3, 57, 113
5, 137173, Note_on_c, 3, 57, 0
5, 137173, Note_on_c, 3, 56, 93
5, 137293, Note_on_c, 3, 56, 0
5, 137293, Note_on_c, 3, 54, 113
5, 137413, Note_on_c, 3, 54, 0
5, 137413, Note_on_c, 3, 52, 93
5, 137533, Note_on_c, 3, 52, 0
5, 137533, Note_on_c, 3, 51, 113
5, 137653, Note_on_c, 3, 51, 0
5, 137653, Note_on_c, 3, 49, 93
5, 137773, Note_on_c, 3, 49, 0
5, 137773, Note_on_c, 3, 47, 113
5, 137893, Note_on_c, 3, 47, 0
5, 137893, Note_on_c, 3, 47, 93
5, 138013, Note_on_c, 3, 47, 0
5, 138013, Note_on_c, 3, 47, 113
5, 138133, Note_on_c, 3, 47, 0
5, 138133, Note_on_c, 3, 47, 93
5, 138253, Note_on_c, 3, 47, 0
5, 138253, Note_on_c, 3, 64, 113
5, 138373, Note_on_c, 3, 64, 0
5, 138373, Note_on_c, 3, 63, 93
5, 138493, Note_on_c, 3, 63, 0
5, 138493, Note_on_c, 3, 61, 113
5, 138613, Note_on_c, 3, 61, 0
5, 138613, Note_on_c, 3, 59, 93
5, 138733, Note_on_c, 3, 59, 0
5, 138733, Note_on_c, 3, 57, 113
5, 138853, Note_on_c, 3, 57, 0
5, 138853, Note_on_c, 3, 56, 93
5, 138973, Note_on_c, 3, 56, 0
5, 138973, Note_on_c, 3, 54, 113
5, 139093, Note_on_c, 3, 54, 0
5, 139093, Note_on_c, 3, 52, 93
5, 139213, Note_on_c, 3, 52, 0
5, 139213, Note_on_c, 3, 51, 113
5, 139333, Note_on_c, 3, 51, 0
5, 139333, Note_on_c, 3, 50, 93
5, 139453, Note_on_c, 3, 50, 0
5, 139453, Note_on_c, 3, 49, 113
5, 139573, Note_on_c, 3, 49, 0
5, 139573, Note_on_c, 3, 48, 93
5, 139693, Note_on_c, 3, 48, 0
5, 139693, Note_on_c, 3, 47, 113
5, 139813, Note_on_c, 3, 47, 0
5, 139813, Note_on_c, 3, 58, 93
5, 139933, Note_on_c, 3, 58, 0
5, 139933, Note_on_c, 3, 57, 113
5, 140053, Note_on_c, 3, 57, 0
5, 140053, Note_on_c, 3, 56, 93
5, 140173, Note_on_c, 3, 56, 0
5, 140173, Note_on_c, 3, 54, 113
5, 140293, Note_on_c, 3, 54, 0
5, 140293, Note_on_c, 3, 52, 93
5, 140413, Note_on_c, 3, 52, 0
5, 140413, Note_on_c, 3, 51, 113
5, 140533, Note_on_c, 3, 51, 0
5, 140533, Note_on_c, 3, 49, 93
5, 140653, Note_on_c, 3, 49, 0
5, 140653, Note_on_c, 3, 47, 113
5, 140773, Note_on_c, 3, 47, 0
5, 140773, Note_on_c, 3, 47, 93
5, 140893, Note_on_c, 3, 47, 0
5, 140893, Note_on_c, 3, 47, 113
5, 141013, Note_on_c, 3, 47, 0
5, 141013, Note_on_c, 3, 47, 93
5, 141133, Note_on_c, 3, 47, 0
5, 141133, Note_on_c, 3, 52, 93
5, 141253, Note_on_c, 3, 52, 0
5, 141613, Control_c, 3, 11, 122
5, 141613, Note_on_c, 3, 52, 93
5, 141631, Control_c, 3, 11, 120
5, 141649, Control_c, 3, 11, 118
5, 141667, Control_c, 3, 11, 116
5, 141685, Control_c, 3, 11, 114
5, 141703, Control_c, 3, 11, 112
5, 141721, Control_c, 3, 11, 110
5, 141739, Control_c, 3, 11, 108
5, 141757, Control_c, 3, 11, 106
5, 141775, Control_c, 3, 11, 104
5, 141793, Note_on_c, 3, 52, 0
5, 141793, Control_c, 3, 11, 102
5, 141793, Note_on_c, 3, 47, 93
5, 141853, Note_on_c, 3, 47, 0
5, 141853, Note_on_c, 3, 47, 93
5, 141973, Note_on_c, 3, 47, 0
5, 142093, Note_on_c, 3, 56, 93
5, 142093, Note_on_c, 3, 44, 93
5, 142213, Note_on_c, 3, 44, 0
5, 142213, Note_on_c, 3, 56, 0
5, 142573, Control_c, 3, 11, 122
5, 142573, Note_on_c, 3, 56, 93
5, 142573, Note_on_c, 3, 44, 93
5, 142591, Control_c, 3, 11, 120
5, 142609, Control_c, 3, 11, 118
5, 142627, Control_c, 3, 11, 116
5, 142645, Control_c, 3, 11, 114
5, 142663, Control_c, 3, 11, 112
5, 142681, Control_c, 3, 11, 110
5, 142699, Control_c, 3, 11, 108
5, 142717, Control_c, 3, 11, 106
5, 142735, Control_c, 3, 11, 104
5, 142753, Note_on_c, 3, 44, 0
5, 142753, Note_on_c, 3, 56, 0
5, 142753, Control_c, 3, 11, 102
5, 142753, Note_on_c, 3, 40, 93
5, 142753, Note_on_c, 3, 52, 93
5, 142813, Note_on_c, 3, 52, 0
5, 142813, Note_on_c, 3, 40, 0
5, 142813, Note_on_c, 3, 40, 93
5, 142813, Note_on_c, 3, 52, 93
5, 142933, Note_on_c, 3, 52, 0
5, 142933, Note_on_c, 3, 40, 0
5, 143053, Note_on_c, 3, 47, 93
5, 143053, Note_on_c, 3, 59, 93
5, 143173, Note_on_c, 3, 59, 0
5, 143173, Note_on_c, 3, 47, 0
5, 143533, Control_c, 3, 11, 122
5, 143533, Note_on_c, 3, 47, 93
5, 143533, Note_on_c, 3, 59, 93
5, 143551, Control_c, 3, 11, 120
5, 143569, Control_c, 3, 11, 118
5, 143587, Control_c, 3, 11, 116
5, 143605, Control_c, 3, 11, 114
5, 143623, Control_c, 3, 11, 112
5, 143641, Control_c, 3, 11, 110
5, 143659, Control_c, 3, 11, 108
5, 143677, Control_c, 3, 11, 106
5, 143695, Control_c, 3, 11, 104
5, 143713, Note_on_c, 3, 59, 0
5, 143713, Note_on_c, 3, 47, 0
5, 143713, Control_c, 3, 11, 102
5, 143713, Note_on_c, 3, 44, 93
5, 143713, Note_on_c, 3, 56, 93
5, 143773, Note_on_c, 3, 56, 0
5, 143773, Note_on_c, 3, 44, 0
5, 143773, Note_on_c, 3, 56, 93
5, 143773, Note_on_c, 3, 44, 93
5, 143893, Note_on_c, 3, 44, 0
5, 143893, Note_on_c, 3, 56, 0
5, 144013, Note_on_c, 3, 64, 93
5, 144013, Note_on_c, 3, 52, 93
5, 144133, Note_on_c, 3, 52, 0
5, 144133, Note_on_c, 3, 64, 0
5, 144493, Control_c, 3, 11, 122
5, 144493, Note_on_c, 3, 52, 93
5, 144493, Note_on_c, 3, 64, 93
5, 144511, Control_c, 3, 11, 120
5, 144529, Control_c, 3, 11, 118
5, 144547, Control_c, 3, 11, 116
5, 144565, Control_c, 3, 11, 114
5, 144583, Control_c, 3, 11, 112
5, 144601, Control_c, 3, 11, 110
5, 144619, Control_c, 3, 11, 108
5, 144637, Control_c, 3, 11, 106
5, 144655, Control_c, 3, 11, 104
5, 144673, Note_on_c, 3, 64, 0
5, 144673, Note_on_c, 3, 52, 0
5, 144673, Control_c, 3, 11, 102
5, 144673, Note_on_c, 3, 47, 93
5, 144673, Note_on_c, 3, 59, 93
5, 144733, Note_on_c, 3, 59, 0
5, 144733, Note_on_c, 3, 47, 0
5, 144733, Note_on_c, 3, 47, 93
5, 144733, Note_on_c, 3, 59, 93
5, 144853, Note_on_c, 3, 59, 0
5, 144853, Note_on_c, 3, 47, 0
5, 144973, Note_on_c, 3, 64, 93
5, 144973, Note_on_c, 3, 52, 93
5, 145093, Note_on_c, 3, 52, 0
5, 145093, Note_on_c, 3, 64, 0
5, 145093, Note_on_c, 3, 59, 93
5, 145093, Note_on_c, 3, 47, 93
5, 145213, Note_on_c, 3, 47, 0
5, 145213, Note_on_c, 3, 59, 0
5, 145213, Note_on_c, 3, 64, 93
5, 145213, Note_on_c, 3, 52, 93
5, 145333, Note_on_c, 3, 52, 0
5, 145333, Note_on_c, 3, 64, 0
5, 145333, Note_on_c, 3, 59, 93
5, 145333, Note_on_c, 3, 47, 93
5, 145453, Note_on_c, 3, 47, 0
5, 145453, Note_on_c, 3, 59, 0
5, 145453, Note_on_c, 3, 64, 93
5, 145453, Note_on_c, 3, 52, 93
5, 145573, Note_on_c, 3, 52, 0
5, 145573, Note_on_c, 3, 64, 0
5, 145573, Note_on_c, 3, 59, 93
5, 145573, Note_on_c, 3, 47, 93
5, 145693, Note_on_c, 3, 47, 0
5, 145693, Note_on_c, 3, 59, 0
5, 145693, Note_on_c, 3, 64, 93
5, 145693, Note_on_c, 3, 52, 93
5, 145813, Note_on_c, 3, 52, 0
5, 145813, Note_on_c, 3, 64, 0
5, 145813, Note_on_c, 3, 59, 93
5, 145813, Note_on_c, 3, 47, 93
5, 145933, Note_on_c, 3, 47, 0
5, 145933, Note_on_c, 3, 59, 0
5, 145933, Note_on_c, 3, 64, 93
5, 145933, Note_on_c, 3, 52, 93
5, 146053, Note_on_c, 3, 52, 0
5, 146053, Note_on_c, 3, 64, 0
5, 146053, Note_on_c, 3, 59, 93
5, 146053, Note_on_c, 3, 47, 93
5, 146173, Note_on_c, 3, 47, 0
5, 146173, Note_on_c, 3, 59, 0
5, 146173, Note_on_c, 3, 64, 93
5, 146173, Note_on_c, 3, 52, 93
5, 146293, Note_on_c, 3, 52, 0
5, 146293, Note_on_c, 3, 64, 0
5, 146293, Note_on_c, 3, 59, 93
5, 146293, Note_on_c, 3, 47, 93
5, 146413, Note_on_c, 3, 47, 0
5, 146413, Note_on_c, 3, 59, 0
5, 146413, Note_on_c, 3, 64, 93
5, 146413, Note_on_c, 3, 52, 93
5, 146533, Note_on_c, 3, 52, 0
5, 146533, Note_on_c, 3, 64, 0
5, 146533, Note_on_c, 3, 59, 93
5, 146533, Note_on_c, 3, 47, 93
5, 146653, Note_on_c, 3, 47, 0
5, 146653, Note_on_c, 3, 59, 0
5, 146653, Note_on_c, 3, 64, 93
5, 146653, Note_on_c, 3, 52, 93
5, 146773, Note_on_c, 3, 52, 0
5, 146773, Note_on_c, 3, 64, 0
5, 146773, Note_on_c, 3, 59, 93
5, 146773, Note_on_c, 3, 47, 93
5, 146893, Note_on_c, 3, 47, 0
5, 146893, Note_on_c, 3, 59, 0
5, 146893, Note_on_c, 3, 64, 93
5, 146893, Note_on_c, 3, 52, 93
5, 147013, Note_on_c, 3, 52, 0
5, 147013, Note_on_c, 3, 64, 0
5, 147373, Note_on_c, 3, 52, 93
5, 147373, Note_on_c, 3, 40, 93
5, 147493, Note_on_c, 3, 40, 0
5, 147493, Note_on_c, 3, 52, 0
5, 147853, Note_on_c, 3, 40, 93
5, 147853, Note_on_c, 3, 52, 93
5, 147973, Note_on_c, 3, 52, 0
5, 147973, Note_on_c, 3, 40, 0
5, 148333, Control_c, 3, 121, 0
5, 148333, End_track
6, 0, Start_track
6, 0, MIDI_port, 0
6, 0, Title_t, "Corni I II in E"
6, 0, Program_c, 4, 60
6, 0, Control_c, 4, 10, 24
6, 2, Control_c, 4, 121, 0
6, 7, Program_c, 4, 60
6, 12, Pitch_bend_c, 4, 8292
6, 17, Control_c, 4, 11, 102
6, 22, Control_c, 4, 7, 127
6, 27, Control_c, 4, 91, 80
6, 32, Control_c, 4, 93, 0
6, 482, Control_c, 4, 11, 87
6, 482, Note_on_c, 4, 52, 93
6, 482, Note_on_c, 4, 64, 93
6, 632, Note_on_c, 4, 64, 0
6, 632, Note_on_c, 4, 52, 0
6, 662, Note_on_c, 4, 47, 93
6, 662, Note_on_c, 4, 59, 93
6, 712, Note_on_c, 4, 59, 0
6, 712, Note_on_c, 4, 47, 0
6, 722, Note_on_c, 4, 47, 93
6, 722, Note_on_c, 4, 59, 93
6, 782, Note_on_c, 4, 59, 0
6, 782, Note_on_c, 4, 47, 0
6, 962, Control_c, 4, 11, 107
6, 962, Note_on_c, 4, 56, 93
6, 962, Note_on_c, 4, 68, 93
6, 980, Control_c, 4, 11, 104
6, 998, Control_c, 4, 11, 101
6, 1016, Control_c, 4, 11, 98
6, 1034, Control_c, 4, 11, 95
6, 1052, Control_c, 4, 11, 92
6, 1070, Control_c, 4, 11, 89
6, 1112, Note_on_c, 4, 68, 0
6, 1112, Note_on_c, 4, 56, 0
6, 1142, Note_on_c, 4, 64, 93
6, 1142, Note_on_c, 4, 52, 93
6, 1192, Note_on_c, 4, 52, 0
6, 1192, Note_on_c, 4, 64, 0
6, 1202, Note_on_c, 4, 52, 93
6, 1202, Note_on_c, 4, 64, 93
6, 1262, Note_on_c, 4, 64, 0
6, 1262, Note_on_c, 4, 52, 0
6, 1442, Control_c, 4, 11, 107
6, 1442, Note_on_c, 4, 71, 93
6, 1442, Note_on_c, 4, 59, 93
6, 1460, Control_c, 4, 11, 104
6, 1478, Control_c, 4, 11, 101
6, 1496, Control_c, 4, 11, 98
6, 1514, Control_c, 4, 11, 95
6, 1532, Control_c, 4, 11, 92
6, 1550, Control_c, 4, 11, 89
6, 1592, Note_on_c, 4, 59, 0
6, 1592, Note_on_c, 4, 71, 0
6, 1622, Note_on_c, 4, 68, 93
6, 1622, Note_on_c, 4, 56, 93
6, 1672, Note_on_c, 4, 56, 0
6, 1672, Note_on_c, 4, 68, 0
6, 1682, Note_on_c, 4, 68, 93
6, 1682, Note_on_c, 4, 56, 93
6, 1742, Note_on_c, 4, 56, 0
6, 1742, Note_on_c, 4, 68, 0
6, 1802, Note_on_c, 4, 68, 93
6, 1802, Note_on_c, 4, 64, 93
6, 1862, Note_on_c, 4, 64, 0
6, 1862, Note_on_c, 4, 68, 0
6, 1922, Note_on_c, 4, 59, 93
6, 1922, Note_on_c, 4, 66, 93
6, 1982, Note_on_c, 4, 66, 0
6, 1982, Note_on_c, 4, 59, 0
6, 2402, Control_c, 4, 11, 22
6, 2402, Note_on_c, 4, 69, 92
6, 2402, Note_on_c, 4, 66, 92
6, 2407, Control_c, 4, 11, 25
6, 2413, Control_c, 4, 11, 28
6, 2418, Control_c, 4, 11, 31
6, 2424, Control_c, 4, 11, 34
6, 2442, Control_c, 4, 11, 37
6, 2459, Control_c, 4, 11, 39
6, 2475, Control_c, 4, 11, 41
6, 2491, Control_c, 4, 11, 43
6, 2508, Control_c, 4, 11, 45
6, 2882, Note_on_c, 4, 66, 0
6, 2882, Note_on_c, 4, 69, 0
6, 2882, Control_c, 4, 11, 35
6, 2882, Note_on_c, 4, 59, 93
6, 2882, Note_on_c, 4, 66, 93
6, 2893, Control_c, 4, 11, 38
6, 2904, Control_c, 4, 11, 41
6, 2915, Control_c, 4, 11, 44
6, 2927, Control_c, 4, 11, 47
6, 3362, Note_on_c, 4, 66, 0
6, 3362, Note_on_c, 4, 59, 0
6, 3362, Note_on_c, 4, 71, 93
6, 3362, Note_on_c, 4, 68, 93
6, 3842, Note_on_c, 4, 68, 0
6, 3842, Note_on_c, 4, 71, 0
6, 3842, Note_on_c, 4, 68, 93
6, 3842, Note_on_c, 4, 64, 93
6, 4272, Control_c, 4, 11, 47
6, 4276, Control_c, 4, 11, 44
6, 4281, Control_c, 4, 11, 41
6, 4285, Control_c, 4, 11, 38
6, 4290, Control_c, 4, 11, 35
6, 4294, Control_c, 4, 11, 32
6, 4299, Control_c, 4, 11, 29
6, 4302, Note_on_c, 4, 64, 0
6, 4302, Note_on_c, 4, 68, 0
6, 4802, Control_c, 4, 11, 47
6, 4802, Note_on_c, 4, 52, 78
6, 4802, Note_on_c, 4, 64, 78
6, 5222, Note_on_c, 4, 64, 0
6, 5222, Note_on_c, 4, 52, 0
6, 5222, Note_on_c, 4, 64, 78
6, 5222, Note_on_c, 4, 52, 78
6, 5282, Note_on_c, 4, 52, 0
6, 5282, Note_on_c, 4, 64, 0
6, 5282, Note_on_c, 4, 52, 69
6, 5282, Note_on_c, 4, 64, 69
6, 5402, Note_on_c, 4, 64, 0
6, 5402, Note_on_c, 4, 52, 0
6, 5762, Note_on_c, 4, 64, 78
6, 5762, Note_on_c, 4, 52, 78
6, 6182, Note_on_c, 4, 52, 0
6, 6182, Note_on_c, 4, 64, 0
6, 6182, Note_on_c, 4, 52, 78
6, 6182, Note_on_c, 4, 64, 78
6, 6232, Note_on_c, 4, 64, 0
6, 6232, Note_on_c, 4, 52, 0
6, 6242, Control_c, 4, 11, 87
6, 6242, Note_on_c, 4, 69, 93
6, 6392, Note_on_c, 4, 69, 0
6, 6422, Note_on_c, 4, 64, 93
6, 6472, Note_on_c, 4, 64, 0
6, 6482, Note_on_c, 4, 64, 93
6, 6542, Note_on_c, 4, 64, 0
6, 6722, Control_c, 4, 11, 107
6, 6722, Note_on_c, 4, 69, 93
6, 6740, Control_c, 4, 11, 104
6, 6758, Control_c, 4, 11, 101
6, 6776, Control_c, 4, 11, 98
6, 6794, Control_c, 4, 11, 95
6, 6812, Control_c, 4, 11, 92
6, 6830, Control_c, 4, 11, 89
6, 6872, Note_on_c, 4, 69, 0
6, 6902, Note_on_c, 4, 69, 93
6, 6952, Note_on_c, 4, 69, 0
6, 6962, Note_on_c, 4, 69, 93
6, 7022, Note_on_c, 4, 69, 0
6, 7202, Control_c, 4, 11, 107
6, 7202, Note_on_c, 4, 64, 73
6, 7220, Control_c, 4, 11, 104
6, 7238, Control_c, 4, 11, 101
6, 7256, Control_c, 4, 11, 98
6, 7274, Control_c, 4, 11, 95
6, 7292, Control_c, 4, 11, 92
6, 7310, Control_c, 4, 11, 89
6, 7352, Note_on_c, 4, 64, 0
6, 7382, Note_on_c, 4, 64, 73
6, 7432, Note_on_c, 4, 64, 0
6, 7442, Note_on_c, 4, 64, 73
6, 7502, Note_on_c, 4, 64, 0
6, 7562, Note_on_c, 4, 64, 73
6, 7622, Note_on_c, 4, 64, 0
6, 7682, Note_on_c, 4, 64, 73
6, 7742, Note_on_c, 4, 64, 0
6, 8642, Control_c, 4, 11, 32
6, 8642, Note_on_c, 4, 64, 93
6, 8642, Note_on_c, 4, 52, 93
6, 8651, Control_c, 4, 11, 35
6, 8660, Control_c, 4, 11, 38
6, 8669, Control_c, 4, 11, 41
6, 8678, Control_c, 4, 11, 44
6, 8687, Control_c, 4, 11, 47
6, 9062, Note_on_c, 4, 52, 0
6, 9062, Note_on_c, 4, 64, 0
6, 9062, Note_on_c, 4, 64, 93
6, 9062, Note_on_c, 4, 52, 93
6, 9122, Note_on_c, 4, 52, 0
6, 9122, Note_on_c, 4, 64, 0
6, 9122, Note_on_c, 4, 64, 78
6, 9122, Note_on_c, 4, 52, 78
6, 9242, Note_on_c, 4, 52, 0
6, 9242, Note_on_c, 4, 64, 0
6, 15362, Control_c, 4, 11, 69
6, 15362, Note_on_c, 4, 66, 93
6, 15362, Note_on_c, 4, 59, 93
6, 15398, Control_c, 4, 11, 70
6, 15472, Control_c, 4, 11, 71
6, 15546, Control_c, 4, 11, 72
6, 15620, Control_c, 4, 11, 73
6, 15694, Control_c, 4, 11, 74
6, 15768, Control_c, 4, 11, 75
6, 15842, Control_c, 4, 11, 76
6, 15915, Control_c, 4, 11, 77
6, 15989, Control_c, 4, 11, 78
6, 16063, Control_c, 4, 11, 79
6, 16137, Control_c, 4, 11, 80
6, 16211, Control_c, 4, 11, 81
6, 16285, Control_c, 4, 11, 82
6, 16358, Control_c, 4, 11, 83
6, 16432, Control_c, 4, 11, 84
6, 16506, Control_c, 4, 11, 85
6, 16580, Control_c, 4, 11, 86
6, 16654, Control_c, 4, 11, 87
6, 16728, Control_c, 4, 11, 88
6, 16802, Note_on_c, 4, 59, 0
6, 16802, Note_on_c, 4, 66, 0
6, 16802, Control_c, 4, 11, 89
6, 16802, Note_on_c, 4, 52, 93
6, 16802, Note_on_c, 4, 67, 93
6, 16875, Control_c, 4, 11, 90
6, 16949, Control_c, 4, 11, 91
6, 17023, Control_c, 4, 11, 92
6, 17097, Control_c, 4, 11, 93
6, 17171, Control_c, 4, 11, 94
6, 17245, Control_c, 4, 11, 95
6, 17318, Control_c, 4, 11, 96
6, 17392, Control_c, 4, 11, 97
6, 17466, Control_c, 4, 11, 98
6, 17540, Control_c, 4, 11, 99
6, 17614, Control_c, 4, 11, 100
6, 17688, Control_c, 4, 11, 101
6, 17762, Note_on_c, 4, 67, 0
6, 17762, Note_on_c, 4, 52, 0
6, 17762, Control_c, 4, 11, 102
6, 17762, Note_on_c, 4, 47, 93
6, 17762, Note_on_c, 4, 66, 93
6, 17822, Note_on_c, 4, 66, 0
6, 17822, Note_on_c, 4, 47, 0
6, 17882, Note_on_c, 4, 59, 93
6, 17882, Note_on_c, 4, 71, 93
6, 17942, Note_on_c, 4, 71, 0
6, 17942, Note_on_c, 4, 59, 0
6, 18002, Note_on_c, 4, 71, 93
6, 18002, Note_on_c, 4, 59, 93
6, 18062, Note_on_c, 4, 59, 0
6, 18062, Note_on_c, 4, 71, 0
6, 18122, Note_on_c, 4, 71, 93
6, 18122, Note_on_c, 4, 59, 93
6, 18182, Note_on_c, 4, 59, 0
6, 18182, Note_on_c, 4, 71, 0
6, 18242, Note_on_c, 4, 59, 93
6, 18242, Note_on_c, 4, 71, 93
6, 18302, Note_on_c, 4, 71, 0
6, 18302, Note_on_c, 4, 59, 0
6, 18362, Note_on_c, 4, 59, 93
6, 18362, Note_on_c, 4, 71, 93
6, 18422, Note_on_c, 4, 71, 0
6, 18422, Note_on_c, 4, 59, 0
6, 18482, Note_on_c, 4, 71, 93
6, 18482, Note_on_c, 4, 59, 93
6, 18542, Note_on_c, 4, 59, 0
6, 18542, Note_on_c, 4, 71, 0
6, 18602, Note_on_c, 4, 71, 93
6, 18602, Note_on_c, 4, 59, 93
6, 18662, Note_on_c, 4, 59, 0
6, 18662, Note_on_c, 4, 71, 0
6, 18722, Control_c, 4, 11, 47
6, 18722, Note_on_c, 4, 59, 73
6, 18782, Note_on_c, 4, 59, 0
6, 21602, Note_on_c, 4, 66, 93
6, 21602, Note_on_c, 4, 69, 93
6, 22082, Note_on_c, 4, 69, 0
6, 22082, Note_on_c, 4, 66, 0
6, 22082, Note_on_c, 4, 66, 93
6, 22082, Note_on_c, 4, 59, 93
6, 22562, Note_on_c, 4, 59, 0
6, 22562, Note_on_c, 4, 66, 0
6, 22562, Control_c, 4, 11, 47
6, 22562, Note_on_c, 4, 66, 93
6, 22562, Note_on_c, 4, 59, 93
6, 22589, Control_c, 4, 11, 48
6, 22617, Control_c, 4, 11, 49
6, 22645, Control_c, 4, 11, 50
6, 22673, Control_c, 4, 11, 51
6, 22701, Control_c, 4, 11, 52
6, 22729, Control_c, 4, 11, 53
6, 22757, Control_c, 4, 11, 54
6, 22785, Control_c, 4, 11, 55
6, 22813, Control_c, 4, 11, 56
6, 22841, Control_c, 4, 11, 57
6, 22869, Control_c, 4, 11, 58
6, 22897, Control_c, 4, 11, 59
6, 22925, Control_c, 4, 11, 60
6, 22953, Control_c, 4, 11, 61
6, 22981, Control_c, 4, 11, 62
6, 23009, Control_c, 4, 11, 63
6, 23037, Control_c, 4, 11, 64
6, 23065, Control_c, 4, 11, 65
6, 23093, Control_c, 4, 11, 66
6, 23121, Control_c, 4, 11, 67
6, 23149, Control_c, 4, 11, 68
6, 23177, Control_c, 4, 11, 69
6, 23205, Control_c, 4, 11, 70
6, 23233, Control_c, 4, 11, 71
6, 23261, Control_c, 4, 11, 72
6, 23289, Control_c, 4, 11, 73
6, 23317, Control_c, 4, 11, 74
6, 23345, Control_c, 4, 11, 75
6, 23373, Control_c, 4, 11, 76
6, 23401, Control_c, 4, 11, 77
6, 23462, Control_c, 4, 11, 77
6, 23467, Control_c, 4, 11, 74
6, 23473, Control_c, 4, 11, 71
6, 23479, Control_c, 4, 11, 68
6, 23485, Control_c, 4, 11, 65
6, 23491, Control_c, 4, 11, 62
6, 23497, Control_c, 4, 11, 59
6, 23503, Control_c, 4, 11, 56
6, 23509, Control_c, 4, 11, 53
6, 23515, Control_c, 4, 11, 50
6, 23521, Control_c, 4, 11, 47
6, 23522, Note_on_c, 4, 59, 0
6, 23522, Note_on_c, 4, 66, 0
6, 23522, Note_on_c, 4, 64, 103
6, 23702, Note_on_c, 4, 64, 0
6, 23702, Note_on_c, 4, 59, 103
6, 23762, Note_on_c, 4, 59, 0
6, 23762, Note_on_c, 4, 59, 103
6, 23882, Note_on_c, 4, 59, 0
6, 24002, Note_on_c, 4, 64, 103
6, 24182, Note_on_c, 4, 64, 0
6, 24182, Note_on_c, 4, 59, 103
6, 24242, Note_on_c, 4, 59, 0
6, 24242, Note_on_c, 4, 59, 103
6, 24362, Note_on_c, 4, 59, 0
6, 24482, Note_on_c, 4, 66, 103
6, 24602, Note_on_c, 4, 66, 0
6, 24602, Note_on_c, 4, 69, 103
6, 24722, Note_on_c, 4, 69, 0
6, 24722, Note_on_c, 4, 68, 103
6, 24842, Note_on_c, 4, 68, 0
6, 24842, Note_on_c, 4, 66, 103
6, 24962, Note_on_c, 4, 66, 0
6, 24962, Note_on_c, 4, 64, 103
6, 25082, Note_on_c, 4, 64, 0
6, 25082, Note_on_c, 4, 68, 103
6, 25202, Note_on_c, 4, 68, 0
6, 25202, Note_on_c, 4, 71, 103
6, 25442, Note_on_c, 4, 71, 0
6, 25442, Note_on_c, 4, 66, 103
6, 25562, Note_on_c, 4, 66, 0
6, 25562, Note_on_c, 4, 69, 103
6, 25682, Note_on_c, 4, 69, 0
6, 25682, Note_on_c, 4, 68, 103
6, 25802, Note_on_c, 4, 68, 0
6, 25802, Note_on_c, 4, 66, 103
6, 25922, Note_on_c, 4, 66, 0
6, 25922, Note_on_c, 4, 64, 103
6, 26042, Note_on_c, 4, 64, 0
6, 26042, Note_on_c, 4, 59, 103
6, 26162, Note_on_c, 4, 59, 0
6, 26162, Note_on_c, 4, 52, 103
6, 26282, Note_on_c, 4, 52, 0
6, 26282, Note_on_c, 4, 47, 103
6, 26402, Note_on_c, 4, 47, 0
6, 26402, Note_on_c, 4, 40, 103
6, 26522, Note_on_c, 4, 40, 0
6, 28322, Note_on_c, 4, 66, 93
6, 28442, Note_on_c, 4, 66, 0
6, 28442, Note_on_c, 4, 69, 93
6, 28562, Note_on_c, 4, 69, 0
6, 28562, Note_on_c, 4, 68, 93
6, 28682, Note_on_c, 4, 68, 0
6, 28682, Note_on_c, 4, 66, 93
6, 28802, Note_on_c, 4, 66, 0
6, 28802, Note_on_c, 4, 64, 93
6, 28922, Note_on_c, 4, 64, 0
6, 28922, Note_on_c, 4, 68, 93
6, 29042, Note_on_c, 4, 68, 0
6, 29042, Note_on_c, 4, 59, 93
6, 29042, Note_on_c, 4, 71, 93
6, 29282, Control_c, 4, 11, 47
6, 29317, Control_c, 4, 11, 48
6, 29353, Control_c, 4, 11, 49
6, 29389, Control_c, 4, 11, 50
6, 29425, Control_c, 4, 11, 51
6, 29461, Control_c, 4, 11, 52
6, 29497, Control_c, 4, 11, 53
6, 29533, Control_c, 4, 11, 54
6, 29569, Control_c, 4, 11, 55
6, 29605, Control_c, 4, 11, 56
6, 29641, Control_c, 4, 11, 57
6, 29677, Control_c, 4, 11, 58
6, 29713, Control_c, 4, 11, 59
6, 29749, Control_c, 4, 11, 60
6, 29785, Control_c, 4, 11, 61
6, 29821, Control_c, 4, 11, 62
6, 29857, Control_c, 4, 11, 63
6, 29893, Control_c, 4, 11, 64
6, 29929, Control_c, 4, 11, 65
6, 29965, Control_c, 4, 11, 66
6, 30001, Control_c, 4, 11, 67
6, 30037, Control_c, 4, 11, 68
6, 30073, Control_c, 4, 11, 69
6, 30109, Control_c, 4, 11, 70
6, 30145, Control_c, 4, 11, 71
6, 30181, Control_c, 4, 11, 72
6, 30217, Control_c, 4, 11, 73
6, 30253, Control_c, 4, 11, 74
6, 30289, Control_c, 4, 11, 75
6, 30325, Control_c, 4, 11, 76
6, 30361, Control_c, 4, 11, 77
6, 30397, Control_c, 4, 11, 78
6, 30433, Control_c, 4, 11, 79
6, 30469, Control_c, 4, 11, 80
6, 30505, Control_c, 4, 11, 81
6, 30541, Control_c, 4, 11, 82
6, 30577, Control_c, 4, 11, 83
6, 30613, Control_c, 4, 11, 84
6, 30649, Control_c, 4, 11, 85
6, 30685, Control_c, 4, 11, 86
6, 30712, Note_on_c, 4, 71, 0
6, 30712, Note_on_c, 4, 59, 0
6, 30721, Control_c, 4, 11, 87
6, 30722, Note_on_c, 4, 52, 93
6, 30722, Note_on_c, 4, 64, 93
6, 30842, Note_on_c, 4, 64, 0
6, 30842, Note_on_c, 4, 52, 0
6, 31202, Note_on_c, 4, 52, 93
6, 31202, Note_on_c, 4, 64, 93
6, 31322, Note_on_c, 4, 64, 0
6, 31322, Note_on_c, 4, 52, 0
6, 31682, Note_on_c, 4, 66, 93
6, 31682, Note_on_c, 4, 69, 93
6, 31802, Note_on_c, 4, 69, 0
6, 31802, Note_on_c, 4, 66, 0
6, 32042, Note_on_c, 4, 66, 93
6, 32042, Note_on_c, 4, 69, 93
6, 32162, Note_on_c, 4, 69, 0
6, 32162, Note_on_c, 4, 66, 0
6, 32162, Note_on_c, 4, 66, 93
6, 32162, Note_on_c, 4, 59, 93
6, 32282, Note_on_c, 4, 59, 0
6, 32282, Note_on_c, 4, 66, 0
6, 32402, Note_on_c, 4, 59, 93
6, 32402, Note_on_c, 4, 66, 93
6, 32522, Note_on_c, 4, 66, 0
6, 32522, Note_on_c, 4, 59, 0
6, 32642, Note_on_c, 4, 52, 93
6, 32642, Note_on_c, 4, 64, 93
6, 32762, Note_on_c, 4, 64, 0
6, 32762, Note_on_c, 4, 52, 0
6, 32762, Note_on_c, 4, 64, 93
6, 32762, Note_on_c, 4, 52, 93
6, 32882, Note_on_c, 4, 52, 0
6, 32882, Note_on_c, 4, 64, 0
6, 33122, Note_on_c, 4, 64, 93
6, 33122, Note_on_c, 4, 52, 93
6, 33242, Note_on_c, 4, 52, 0
6, 33242, Note_on_c, 4, 64, 0
6, 33242, Note_on_c, 4, 64, 93
6, 33242, Note_on_c, 4, 52, 93
6, 33362, Note_on_c, 4, 52, 0
6, 33362, Note_on_c, 4, 64, 0
6, 33602, Note_on_c, 4, 66, 93
6, 33602, Note_on_c, 4, 69, 93
6, 33722, Note_on_c, 4, 69, 0
6, 33722, Note_on_c, 4, 66, 0
6, 33722, Note_on_c, 4, 66, 93
6, 33722, Note_on_c, 4, 69, 93
6, 33842, Note_on_c, 4, 69, 0
6, 33842, Note_on_c, 4, 66, 0
6, 33962, Note_on_c, 4, 64, 93
6, 33962, Note_on_c, 4, 68, 93
6, 34082, Note_on_c, 4, 68, 0
6, 34082, Note_on_c, 4, 64, 0
6, 34082, Note_on_c, 4, 66, 93
6, 34082, Note_on_c, 4, 69, 93
6, 34202, Note_on_c, 4, 69, 0
6, 34202, Note_on_c, 4, 66, 0
6, 34202, Note_on_c, 4, 66, 93
6, 34202, Note_on_c, 4, 59, 93
6, 34322, Note_on_c, 4, 59, 0
6, 34322, Note_on_c, 4, 66, 0
6, 34322, Note_on_c, 4, 66, 93
6, 34322, Note_on_c, 4, 59, 93
6, 34442, Note_on_c, 4, 59, 0
6, 34442, Note_on_c, 4, 66, 0
6, 34442, Note_on_c, 4, 59, 93
6, 34442, Note_on_c, 4, 66, 93
6, 34562, Note_on_c, 4, 66, 0
6, 34562, Note_on_c, 4, 59, 0
6, 34562, Note_on_c, 4, 56, 93
6, 34562, Note_on_c, 4, 64, 93
6, 34682, Note_on_c, 4, 64, 0
6, 34682, Note_on_c, 4, 56, 0
6, 34802, Note_on_c, 4, 64, 93
6, 34802, Note_on_c, 4, 68, 93
6, 34922, Note_on_c, 4, 68, 0
6, 34922, Note_on_c, 4, 64, 0
6, 35042, Note_on_c, 4, 64, 93
6, 35042, Note_on_c, 4, 68, 93
6, 35162, Note_on_c, 4, 68, 0
6, 35162, Note_on_c, 4, 64, 0
6, 35282, Note_on_c, 4, 68, 93
6, 35282, Note_on_c, 4, 64, 93
6, 35402, Note_on_c, 4, 64, 0
6, 35402, Note_on_c, 4, 68, 0
6, 35522, Control_c, 4, 11, 107
6, 35522, Note_on_c, 4, 66, 93
6, 35522, Note_on_c, 4, 69, 93
6, 35540, Control_c, 4, 11, 104
6, 35558, Control_c, 4, 11, 101
6, 35576, Control_c, 4, 11, 98
6, 35594, Control_c, 4, 11, 95
6, 35612, Control_c, 4, 11, 92
6, 35630, Control_c, 4, 11, 89
6, 36482, Note_on_c, 4, 69, 0
6, 36482, Note_on_c, 4, 66, 0
6, 36482, Note_on_c, 4, 68, 93
6, 36482, Note_on_c, 4, 64, 93
6, 36602, Note_on_c, 4, 64, 0
6, 36602, Note_on_c, 4, 68, 0
6, 36722, Note_on_c, 4, 64, 93
6, 36722, Note_on_c, 4, 68, 93
6, 36842, Note_on_c, 4, 68, 0
6, 36842, Note_on_c, 4, 64, 0
6, 36962, Note_on_c, 4, 68, 93
6, 36962, Note_on_c, 4, 64, 93
6, 37082, Note_on_c, 4, 64, 0
6, 37082, Note_on_c, 4, 68, 0
6, 37202, Note_on_c, 4, 64, 93
6, 37202, Note_on_c, 4, 68, 93
6, 37322, Note_on_c, 4, 68, 0
6, 37322, Note_on_c, 4, 64, 0
6, 37442, Control_c, 4, 11, 107
6, 37442, Note_on_c, 4, 69, 93
6, 37442, Note_on_c, 4, 66, 93
6, 37460, Control_c, 4, 11, 104
6, 37478, Control_c, 4, 11, 101
6, 37496, Control_c, 4, 11, 98
6, 37514, Control_c, 4, 11, 95
6, 37532, Control_c, 4, 11, 92
6, 37550, Control_c, 4, 11, 89
6, 38402, Note_on_c, 4, 66, 0
6, 38402, Note_on_c, 4, 69, 0
6, 38402, Note_on_c, 4, 64, 93
6, 38402, Note_on_c, 4, 68, 93
6, 39122, Note_on_c, 4, 68, 0
6, 39122, Note_on_c, 4, 64, 0
6, 39122, Note_on_c, 4, 52, 93
6, 39122, Note_on_c, 4, 64, 93
6, 39242, Note_on_c, 4, 64, 0
6, 39242, Note_on_c, 4, 52, 0
6, 39242, Note_on_c, 4, 64, 93
6, 39242, Note_on_c, 4, 52, 93
6, 39362, Note_on_c, 4, 52, 0
6, 39362, Note_on_c, 4, 64, 0
6, 39362, Control_c, 4, 11, 87
6, 39362, Note_on_c, 4, 64, 93
6, 39362, Note_on_c, 4, 66, 93
6, 39376, Control_c, 4, 11, 84
6, 39390, Control_c, 4, 11, 81
6, 39405, Control_c, 4, 11, 78
6, 39419, Control_c, 4, 11, 75
6, 39434, Control_c, 4, 11, 72
6, 39448, Control_c, 4, 11, 69
6, 39462, Control_c, 4, 11, 66
6, 39467, Note_on_c, 4, 66, 0
6, 39467, Note_on_c, 4, 64, 0
6, 39477, Control_c, 4, 11, 63
6, 39482, Note_on_c, 4, 66, 108
6, 39498, Control_c, 4, 11, 61
6, 39514, Control_c, 4, 11, 60
6, 39530, Control_c, 4, 11, 59
6, 39546, Control_c, 4, 11, 58
6, 39562, Control_c, 4, 11, 57
6, 39578, Control_c, 4, 11, 56
6, 39594, Control_c, 4, 11, 55
6, 39610, Control_c, 4, 11, 54
6, 39626, Control_c, 4, 11, 53
6, 39642, Control_c, 4, 11, 52
6, 39658, Control_c, 4, 11, 51
6, 39674, Control_c, 4, 11, 50
6, 39690, Control_c, 4, 11, 49
6, 39706, Control_c, 4, 11, 48
6, 39722, Note_on_c, 4, 66, 0
6, 39722, Control_c, 4, 11, 47
6, 39722, Note_on_c, 4, 68, 108
6, 39842, Note_on_c, 4, 68, 0
6, 39842, Note_on_c, 4, 66, 108
6, 41402, Note_on_c, 4, 66, 0
6, 41402, Note_on_c, 4, 66, 93
6, 41642, Note_on_c, 4, 66, 0
6, 41642, Note_on_c, 4, 68, 93
6, 41762, Note_on_c, 4, 68, 0
6, 41762, Note_on_c, 4, 66, 93
6, 43322, Note_on_c, 4, 66, 0
6, 44762, Note_on_c, 4, 66, 93
6, 44762, Note_on_c, 4, 59, 93
6, 44882, Note_on_c, 4, 59, 0
6, 44882, Note_on_c, 4, 66, 0
6, 45002, Note_on_c, 4, 66, 93
6, 45002, Note_on_c, 4, 59, 93
6, 45122, Note_on_c, 4, 59, 0
6, 45122, Note_on_c, 4, 66, 0
6, 45122, Control_c, 4, 11, 47
6, 45122, Note_on_c, 4, 64, 93
6, 45122, Note_on_c, 4, 68, 93
6, 45146, Control_c, 4, 11, 48
6, 45170, Control_c, 4, 11, 49
6, 45194, Control_c, 4, 11, 50
6, 45218, Control_c, 4, 11, 51
6, 45242, Note_on_c, 4, 68, 0
6, 45242, Note_on_c, 4, 64, 0
6, 45242, Control_c, 4, 11, 52
6, 45242, Note_on_c, 4, 59, 93
6, 45242, Note_on_c, 4, 66, 93
6, 45266, Control_c, 4, 11, 53
6, 45290, Control_c, 4, 11, 54
6, 45314, Control_c, 4, 11, 55
6, 45338, Control_c, 4, 11, 56
6, 45362, Note_on_c, 4, 66, 0
6, 45362, Note_on_c, 4, 59, 0
6, 45362, Control_c, 4, 11, 57
6, 45386, Control_c, 4, 11, 58
6, 45410, Control_c, 4, 11, 59
6, 45434, Control_c, 4, 11, 60
6, 45458, Control_c, 4, 11, 61
6, 45482, Control_c, 4, 11, 62
6, 45482, Note_on_c, 4, 59, 93
6, 45482, Note_on_c, 4, 66, 93
6, 45506, Control_c, 4, 11, 63
6, 45530, Control_c, 4, 11, 64
6, 45554, Control_c, 4, 11, 65
6, 45578, Control_c, 4, 11, 66
6, 45602, Note_on_c, 4, 66, 0
6, 45602, Note_on_c, 4, 59, 0
6, 45602, Control_c, 4, 11, 67
6, 45602, Note_on_c, 4, 68, 93
6, 45602, Note_on_c, 4, 64, 93
6, 45626, Control_c, 4, 11, 68
6, 45650, Control_c, 4, 11, 69
6, 45674, Control_c, 4, 11, 70
6, 45698, Control_c, 4, 11, 71
6, 45722, Note_on_c, 4, 64, 0
6, 45722, Note_on_c, 4, 68, 0
6, 45722, Control_c, 4, 11, 72
6, 45722, Note_on_c, 4, 59, 93
6, 45722, Note_on_c, 4, 66, 93
6, 45746, Control_c, 4, 11, 73
6, 45770, Control_c, 4, 11, 74
6, 45794, Control_c, 4, 11, 75
6, 45818, Control_c, 4, 11, 76
6, 45842, Note_on_c, 4, 66, 0
6, 45842, Note_on_c, 4, 59, 0
6, 45842, Control_c, 4, 11, 77
6, 45866, Control_c, 4, 11, 78
6, 45890, Control_c, 4, 11, 79
6, 45914, Control_c, 4, 11, 80
6, 45938, Control_c, 4, 11, 81
6, 45962, Control_c, 4, 11, 82
6, 45962, Note_on_c, 4, 66, 93
6, 45962, Note_on_c, 4, 59, 93
6, 45986, Control_c, 4, 11, 83
6, 46010, Control_c, 4, 11, 84
6, 46034, Control_c, 4, 11, 85
6, 46058, Control_c, 4, 11, 86
6, 46082, Note_on_c, 4, 59, 0
6, 46082, Note_on_c, 4, 66, 0
6, 46082, Control_c, 4, 11, 87
6, 46082, Note_on_c, 4, 68, 93
6, 46082, Note_on_c, 4, 64, 93
6, 46202, Note_on_c, 4, 64, 0
6, 46202, Note_on_c, 4, 68, 0
6, 46202, Note_on_c, 4, 66, 93
6, 46202, Note_on_c, 4, 59, 93
6, 46262, Note_on_c, 4, 59, 0
6, 46262, Note_on_c, 4, 66, 0
6, 46262, Note_on_c, 4, 59, 93
6, 46262, Note_on_c, 4, 66, 93
6, 46322, Note_on_c, 4, 66, 0
6, 46322, Note_on_c, 4, 59, 0
6, 46322, Note_on_c, 4, 68, 93
6, 46322, Note_on_c, 4, 64, 93
6, 46442, Note_on_c, 4, 64, 0
6, 46442, Note_on_c, 4, 68, 0
6, 46442, Note_on_c, 4, 59, 93
6, 46442, Note_on_c, 4, 66, 93
6, 46502, Note_on_c, 4, 66, 0
6, 46502, Note_on_c, 4, 59, 0
6, 46502, Note_on_c, 4, 66, 93
6, 46502, Note_on_c, 4, 59, 93
6, 46562, Note_on_c, 4, 59, 0
6, 46562, Note_on_c, 4, 66, 0
6, 46562, Note_on_c, 4, 64, 93
6, 46562, Note_on_c, 4, 68, 93
6, 46682, Note_on_c, 4, 68, 0
6, 46682, Note_on_c, 4, 64, 0
6, 46682, Note_on_c, 4, 66, 93
6, 46682, Note_on_c, 4, 59, 93
6, 46742, Note_on_c, 4, 59, 0
6, 46742, Note_on_c, 4, 66, 0
6, 46742, Note_on_c, 4, 66, 93
6, 46742, Note_on_c, 4, 59, 93
6, 46802, Note_on_c, 4, 59, 0
6, 46802, Note_on_c, 4, 66, 0
6, 46802, Note_on_c, 4, 64, 93
6, 46802, Note_on_c, 4, 68, 93
6, 46922, Note_on_c, 4, 68, 0
6, 46922, Note_on_c, 4, 64, 0
6, 46922, Note_on_c, 4, 59, 93
6, 46922, Note_on_c, 4, 66, 93
6, 46982, Note_on_c, 4, 66, 0
6, 46982, Note_on_c, 4, 59, 0
6, 46982, Note_on_c, 4, 66, 93
6, 46982, Note_on_c, 4, 59, 93
6, 47042, Note_on_c, 4, 59, 0
6, 47042, Note_on_c, 4, 66, 0
6, 47042, Control_c, 4, 11, 102
6, 47042, Note_on_c, 4, 64, 93
6, 47522, Note_on_c, 4, 64, 0
6, 48002, Control_c, 4, 11, 122
6, 48002, Note_on_c, 4, 64, 93
6, 48002, Note_on_c, 4, 52, 93
6, 48020, Control_c, 4, 11, 119
6, 48038, Control_c, 4, 11, 116
6, 48056, Control_c, 4, 11, 113
6, 48074, Control_c, 4, 11, 110
6, 48092, Control_c, 4, 11, 107
6, 48110, Control_c, 4, 11, 104
6, 48482, Note_on_c, 4, 52, 0
6, 48482, Note_on_c, 4, 64, 0
6, 48962, Note_on_c, 4, 64, 93
6, 48962, Note_on_c, 4, 66, 93
6, 49922, Note_on_c, 4, 66, 0
6, 49922, Note_on_c, 4, 64, 0
6, 49922, Note_on_c, 4, 66, 93
6, 49922, Note_on_c, 4, 64, 93
6, 50042, Note_on_c, 4, 64, 0
6, 50042, Note_on_c, 4, 66, 0
6, 50402, Note_on_c, 4, 66, 93
6, 50402, Note_on_c, 4, 64, 93
6, 50522, Note_on_c, 4, 64, 0
6, 50522, Note_on_c, 4, 66, 0
6, 50882, Note_on_c, 4, 66, 93
6, 51002, Note_on_c, 4, 66, 0
6, 51122, Note_on_c, 4, 66, 93
6, 51242, Note_on_c, 4, 66, 0
6, 51362, Note_on_c, 4, 66, 93
6, 51482, Note_on_c, 4, 66, 0
6, 51602, Note_on_c, 4, 66, 93
6, 51722, Note_on_c, 4, 66, 0
6, 51842, Note_on_c, 4, 66, 93
6, 51962, Note_on_c, 4, 66, 0
6, 52082, Note_on_c, 4, 64, 93
6, 52082, Note_on_c, 4, 68, 93
6, 52202, Note_on_c, 4, 68, 0
6, 52202, Note_on_c, 4, 64, 0
6, 52322, Note_on_c, 4, 66, 93
6, 52442, Note_on_c, 4, 66, 0
6, 52442, Control_c, 4, 11, 122
6, 52442, Note_on_c, 4, 66, 93
6, 52460, Control_c, 4, 11, 119
6, 52478, Control_c, 4, 11, 116
6, 52496, Control_c, 4, 11, 113
6, 52514, Control_c, 4, 11, 110
6, 52532, Control_c, 4, 11, 107
6, 52550, Control_c, 4, 11, 104
6, 52562, Note_on_c, 4, 66, 0
6, 52562, Note_on_c, 4, 66, 93
6, 52682, Note_on_c, 4, 66, 0
6, 52682, Control_c, 4, 11, 122
6, 52682, Note_on_c, 4, 66, 93
6, 52700, Control_c, 4, 11, 119
6, 52718, Control_c, 4, 11, 116
6, 52736, Control_c, 4, 11, 113
6, 52754, Control_c, 4, 11, 110
6, 52772, Control_c, 4, 11, 107
6, 52790, Control_c, 4, 11, 104
6, 52802, Note_on_c, 4, 66, 0
6, 52802, Note_on_c, 4, 66, 83
6, 52802, Note_on_c, 4, 59, 83
6, 52922, Note_on_c, 4, 59, 0
6, 52922, Note_on_c, 4, 66, 0
6, 53162, Control_c, 4, 11, 87
6, 53162, Note_on_c, 4, 66, 93
6, 53402, Note_on_c, 4, 66, 0
6, 53642, Note_on_c, 4, 66, 93
6, 53882, Note_on_c, 4, 66, 0
6, 54122, Note_on_c, 4, 66, 93
6, 54362, Note_on_c, 4, 66, 0
6, 54602, Note_on_c, 4, 66, 93
6, 54842, Note_on_c, 4, 66, 0
6, 54842, Note_on_c, 4, 66, 93
6, 54842, Note_on_c, 4, 59, 93
6, 54902, Note_on_c, 4, 59, 0
6, 54902, Note_on_c, 4, 66, 0
6, 54902, Note_on_c, 4, 59, 93
6, 54902, Note_on_c, 4, 66, 93
6, 54962, Note_on_c, 4, 66, 0
6, 54962, Note_on_c, 4, 59, 0
6, 54962, Note_on_c, 4, 59, 93
6, 54962, Note_on_c, 4, 66, 93
6, 55082, Note_on_c, 4, 66, 0
6, 55082, Note_on_c, 4, 59, 0
6, 55202, Note_on_c, 4, 59, 93
6, 55202, Note_on_c, 4, 66, 93
6, 55322, Note_on_c, 4, 66, 0
6, 55322, Note_on_c, 4, 59, 0
6, 55322, Note_on_c, 4, 66, 93
6, 55322, Note_on_c, 4, 59, 93
6, 55382, Note_on_c, 4, 59, 0
6, 55382, Note_on_c, 4, 66, 0
6, 55382, Note_on_c, 4, 66, 93
6, 55382, Note_on_c, 4, 59, 93
6, 55442, Note_on_c, 4, 59, 0
6, 55442, Note_on_c, 4, 66, 0
6, 55442, Note_on_c, 4, 66, 93
6, 55442, Note_on_c, 4, 59, 93
6, 55562, Note_on_c, 4, 59, 0
6, 55562, Note_on_c, 4, 66, 0
6, 55682, Note_on_c, 4, 71, 93
6, 55682, Note_on_c, 4, 59, 93
6, 55802, Note_on_c, 4, 59, 0
6, 55802, Note_on_c, 4, 71, 0
6, 55802, Note_on_c, 4, 71, 93
6, 55802, Note_on_c, 4, 59, 93
6, 55862, Note_on_c, 4, 59, 0
6, 55862, Note_on_c, 4, 71, 0
6, 55862, Note_on_c, 4, 71, 93
6, 55862, Note_on_c, 4, 59, 93
6, 55922, Note_on_c, 4, 59, 0
6, 55922, Note_on_c, 4, 71, 0
6, 55922, Note_on_c, 4, 71, 93
6, 55922, Note_on_c, 4, 59, 93
6, 56042, Note_on_c, 4, 59, 0
6, 56042, Note_on_c, 4, 71, 0
6, 56042, Note_on_c, 4, 71, 93
6, 56042, Note_on_c, 4, 59, 93
6, 56102, Note_on_c, 4, 59, 0
6, 56102, Note_on_c, 4, 71, 0
6, 56102, Note_on_c, 4, 71, 93
6, 56102, Note_on_c, 4, 59, 93
6, 56162, Note_on_c, 4, 59, 0
6, 56162, Note_on_c, 4, 71, 0
6, 56162, Note_on_c, 4, 59, 93
6, 56162, Note_on_c, 4, 71, 93
6, 56282, Note_on_c, 4, 71, 0
6, 56282, Note_on_c, 4, 59, 0
6, 56282, Note_on_c, 4, 59, 93
6, 56282, Note_on_c, 4, 71, 93
6, 56342, Note_on_c, 4, 71, 0
6, 56342, Note_on_c, 4, 59, 0
6, 56342, Note_on_c, 4, 59, 93
6, 56342, Note_on_c, 4, 71, 93
6, 56402, Note_on_c, 4, 71, 0
6, 56402, Note_on_c, 4, 59, 0
6, 56402, Note_on_c, 4, 59, 93
6, 56402, Note_on_c, 4, 71, 93
6, 56522, Note_on_c, 4, 71, 0
6, 56522, Note_on_c, 4, 59, 0
6, 56522, Note_on_c, 4, 59, 93
6, 56522, Note_on_c, 4, 71, 93
6, 56582, Note_on_c, 4, 71, 0
6, 56582, Note_on_c, 4, 59, 0
6, 56582, Note_on_c, 4, 71, 93
6, 56582, Note_on_c, 4, 59, 93
6, 56642, Note_on_c, 4, 59, 0
6, 56642, Note_on_c, 4, 71, 0
6, 56642, Note_on_c, 4, 59, 88
6, 56642, Note_on_c, 4, 71, 88
6, 56762, Note_on_c, 4, 71, 0
6, 56762, Note_on_c, 4, 59, 0
6, 65282, Control_c, 4, 11, 47
6, 65282, Note_on_c, 4, 59, 103
6, 65402, Note_on_c, 4, 59, 0
6, 65462, Note_on_c, 4, 47, 103
6, 65522, Note_on_c, 4, 47, 0
6, 65522, Note_on_c, 4, 47, 103
6, 65642, Note_on_c, 4, 47, 0
6, 65762, Note_on_c, 4, 59, 103
6, 65882, Note_on_c, 4, 59, 0
6, 65942, Note_on_c, 4, 47, 103
6, 66002, Note_on_c, 4, 47, 0
6, 66002, Note_on_c, 4, 47, 103
6, 66122, Note_on_c, 4, 47, 0
6, 66242, Note_on_c, 4, 59, 103
6, 66362, Note_on_c, 4, 59, 0
6, 66422, Note_on_c, 4, 47, 103
6, 66482, Note_on_c, 4, 47, 0
6, 66482, Note_on_c, 4, 47, 103
6, 66602, Note_on_c, 4, 47, 0
6, 66722, Note_on_c, 4, 59, 103
6, 66842, Note_on_c, 4, 59, 0
6, 66902, Note_on_c, 4, 47, 103
6, 66962, Note_on_c, 4, 47, 0
6, 66962, Note_on_c, 4, 47, 103
6, 67082, Note_on_c, 4, 47, 0
6, 67202, Note_on_c, 4, 59, 103
6, 67322, Note_on_c, 4, 59, 0
6, 67382, Note_on_c, 4, 47, 103
6, 67442, Note_on_c, 4, 47, 0
6, 67442, Note_on_c, 4, 47, 103
6, 67562, Note_on_c, 4, 47, 0
6, 67682, Note_on_c, 4, 59, 103
6, 67802, Note_on_c, 4, 59, 0
6, 67862, Note_on_c, 4, 47, 103
6, 67922, Note_on_c, 4, 47, 0
6, 67922, Note_on_c, 4, 47, 103
6, 68042, Note_on_c, 4, 47, 0
6, 68162, Note_on_c, 4, 59, 103
6, 68282, Note_on_c, 4, 59, 0
6, 68342, Note_on_c, 4, 47, 103
6, 68402, Note_on_c, 4, 47, 0
6, 68402, Note_on_c, 4, 47, 103
6, 68522, Note_on_c, 4, 47, 0
6, 68882, Note_on_c, 4, 59, 93
6, 68882, Note_on_c, 4, 47, 93
6, 69002, Note_on_c, 4, 47, 0
6, 69002, Note_on_c, 4, 59, 0
6, 69062, Note_on_c, 4, 59, 93
6, 69062, Note_on_c, 4, 47, 93
6, 69122, Note_on_c, 4, 47, 0
6, 69122, Note_on_c, 4, 59, 0
6, 69122, Note_on_c, 4, 59, 93
6, 69122, Note_on_c, 4, 47, 93
6, 69242, Note_on_c, 4, 47, 0
6, 69242, Note_on_c, 4, 59, 0
6, 69362, Note_on_c, 4, 47, 93
6, 69362, Note_on_c, 4, 59, 93
6, 69482, Note_on_c, 4, 59, 0
6, 69482, Note_on_c, 4, 47, 0
6, 69542, Note_on_c, 4, 59, 93
6, 69542, Note_on_c, 4, 47, 93
6, 69602, Note_on_c, 4, 47, 0
6, 69602, Note_on_c, 4, 59, 0
6, 69602, Note_on_c, 4, 47, 93
6, 69602, Note_on_c, 4, 59, 93
6, 69722, Note_on_c, 4, 59, 0
6, 69722, Note_on_c, 4, 47, 0
6, 69842, Control_c, 4, 11, 47
6, 69842, Note_on_c, 4, 59, 93
6, 69842, Note_on_c, 4, 47, 93
6, 69872, Control_c, 4, 11, 48
6, 69902, Control_c, 4, 11, 49
6, 69932, Control_c, 4, 11, 50
6, 69962, Note_on_c, 4, 47, 0
6, 69962, Note_on_c, 4, 59, 0
6, 69962, Control_c, 4, 11, 51
6, 69992, Control_c, 4, 11, 52
6, 70022, Control_c, 4, 11, 53
6, 70022, Note_on_c, 4, 47, 93
6, 70022, Note_on_c, 4, 59, 93
6, 70052, Control_c, 4, 11, 54
6, 70082, Note_on_c, 4, 59, 0
6, 70082, Note_on_c, 4, 47, 0
6, 70082, Control_c, 4, 11, 55
6, 70082, Note_on_c, 4, 47, 93
6, 70082, Note_on_c, 4, 59, 93
6, 70112, Control_c, 4, 11, 56
6, 70142, Control_c, 4, 11, 57
6, 70172, Control_c, 4, 11, 58
6, 70202, Note_on_c, 4, 59, 0
6, 70202, Note_on_c, 4, 47, 0
6, 70202, Control_c, 4, 11, 59
6, 70202, Note_on_c, 4, 69, 120
6, 70202, Note_on_c, 4, 66, 120
6, 70232, Control_c, 4, 11, 60
6, 70262, Control_c, 4, 11, 61
6, 70292, Control_c, 4, 11, 62
6, 70322, Note_on_c, 4, 66, 0
6, 70322, Note_on_c, 4, 69, 0
6, 70322, Control_c, 4, 11, 63
6, 70322, Note_on_c, 4, 68, 116
6, 70322, Note_on_c, 4, 64, 116
6, 70352, Control_c, 4, 11, 64
6, 70382, Control_c, 4, 11, 65
6, 70412, Control_c, 4, 11, 66
6, 70442, Note_on_c, 4, 64, 0
6, 70442, Note_on_c, 4, 68, 0
6, 70442, Control_c, 4, 11, 67
6, 70442, Note_on_c, 4, 59, 108
6, 70442, Note_on_c, 4, 66, 108
6, 70562, Note_on_c, 4, 66, 0
6, 70562, Note_on_c, 4, 59, 0
6, 70562, Control_c, 4, 11, 62
6, 70562, Note_on_c, 4, 64, 90
6, 70742, Note_on_c, 4, 64, 0
6, 70742, Note_on_c, 4, 59, 90
6, 70802, Note_on_c, 4, 59, 0
6, 70802, Note_on_c, 4, 59, 90
6, 70922, Note_on_c, 4, 59, 0
6, 71042, Note_on_c, 4, 64, 90
6, 71222, Note_on_c, 4, 64, 0
6, 71222, Note_on_c, 4, 59, 90
6, 71282, Note_on_c, 4, 59, 0
6, 71282, Note_on_c, 4, 59, 90
6, 71402, Note_on_c, 4, 59, 0
6, 71522, Note_on_c, 4, 66, 90
6, 71642, Note_on_c, 4, 66, 0
6, 71642, Note_on_c, 4, 69, 90
6, 71762, Note_on_c, 4, 69, 0
6, 71762, Note_on_c, 4, 68, 90
6, 71882, Note_on_c, 4, 68, 0
6, 71882, Note_on_c, 4, 66, 90
6, 72002, Note_on_c, 4, 66, 0
6, 72002, Note_on_c, 4, 64, 90
6, 72122, Note_on_c, 4, 64, 0
6, 72122, Note_on_c, 4, 59, 90
6, 72242, Note_on_c, 4, 59, 0
6, 72242, Note_on_c, 4, 52, 90
6, 72362, Note_on_c, 4, 52, 0
6, 72362, Note_on_c, 4, 47, 90
6, 72482, Note_on_c, 4, 47, 0
6, 72482, Note_on_c, 4, 40, 90
6, 72602, Note_on_c, 4, 40, 0
6, 72722, Control_c, 4, 11, 47
6, 72722, Note_on_c, 4, 71, 78
6, 72722, Note_on_c, 4, 59, 78
6, 74402, Control_c, 4, 11, 47
6, 74461, Control_c, 4, 11, 48
6, 74521, Control_c, 4, 11, 49
6, 74581, Control_c, 4, 11, 50
6, 74641, Control_c, 4, 11, 51
6, 74701, Control_c, 4, 11, 52
6, 74761, Control_c, 4, 11, 53
6, 74821, Control_c, 4, 11, 54
6, 74881, Control_c, 4, 11, 55
6, 74941, Control_c, 4, 11, 56
6, 75001, Control_c, 4, 11, 57
6, 75061, Control_c, 4, 11, 58
6, 75121, Control_c, 4, 11, 59
6, 75181, Control_c, 4, 11, 60
6, 75241, Control_c, 4, 11, 61
6, 75301, Control_c, 4, 11, 62
6, 75361, Control_c, 4, 11, 63
6, 75421, Control_c, 4, 11, 64
6, 75481, Control_c, 4, 11, 65
6, 75541, Control_c, 4, 11, 66
6, 75601, Control_c, 4, 11, 67
6, 75661, Control_c, 4, 11, 68
6, 75721, Control_c, 4, 11, 69
6, 75781, Control_c, 4, 11, 70
6, 75841, Control_c, 4, 11, 71
6, 75901, Control_c, 4, 11, 72
6, 75961, Control_c, 4, 11, 73
6, 76021, Control_c, 4, 11, 74
6, 76081, Control_c, 4, 11, 75
6, 76141, Control_c, 4, 11, 76
6, 76201, Control_c, 4, 11, 77
6, 76261, Control_c, 4, 11, 78
6, 76321, Control_c, 4, 11, 79
6, 76381, Control_c, 4, 11, 80
6, 76441, Control_c, 4, 11, 81
6, 76442, Note_on_c, 4, 59, 0
6, 76442, Note_on_c, 4, 71, 0
6, 76442, Note_on_c, 4, 69, 93
6, 76442, Note_on_c, 4, 66, 93
6, 76501, Control_c, 4, 11, 82
6, 76561, Control_c, 4, 11, 83
6, 76562, Note_on_c, 4, 66, 0
6, 76562, Note_on_c, 4, 69, 0
6, 76562, Note_on_c, 4, 64, 93
6, 76562, Note_on_c, 4, 68, 93
6, 76621, Control_c, 4, 11, 84
6, 76681, Control_c, 4, 11, 85
6, 76682, Note_on_c, 4, 68, 0
6, 76682, Note_on_c, 4, 64, 0
6, 76682, Note_on_c, 4, 66, 93
6, 76682, Note_on_c, 4, 59, 93
6, 76741, Control_c, 4, 11, 86
6, 76801, Control_c, 4, 11, 87
6, 76802, Note_on_c, 4, 59, 0
6, 76802, Note_on_c, 4, 66, 0
6, 76802, Note_on_c, 4, 56, 93
6, 76802, Note_on_c, 4, 64, 93
6, 76922, Note_on_c, 4, 64, 0
6, 76922, Note_on_c, 4, 56, 0
6, 77282, Note_on_c, 4, 52, 93
6, 77282, Note_on_c, 4, 64, 93
6, 77402, Note_on_c, 4, 64, 0
6, 77402, Note_on_c, 4, 52, 0
6, 77762, Note_on_c, 4, 66, 93
6, 77762, Note_on_c, 4, 69, 93
6, 77882, Note_on_c, 4, 69, 0
6, 77882, Note_on_c, 4, 66, 0
6, 78122, Note_on_c, 4, 66, 93
6, 78122, Note_on_c, 4, 69, 93
6, 78242, Note_on_c, 4, 69, 0
6, 78242, Note_on_c, 4, 66, 0
6, 78242, Note_on_c, 4, 59, 93
6, 78242, Note_on_c, 4, 66, 93
6, 78362, Note_on_c, 4, 66, 0
6, 78362, Note_on_c, 4, 59, 0
6, 78482, Note_on_c, 4, 59, 93
6, 78482, Note_on_c, 4, 66, 93
6, 78602, Note_on_c, 4, 66, 0
6, 78602, Note_on_c, 4, 59, 0
6, 78722, Note_on_c, 4, 52, 93
6, 78722, Note_on_c, 4, 64, 93
6, 78842, Note_on_c, 4, 64, 0
6, 78842, Note_on_c, 4, 52, 0
6, 78842, Note_on_c, 4, 52, 93
6, 78842, Note_on_c, 4, 64, 93
6, 78962, Note_on_c, 4, 64, 0
6, 78962, Note_on_c, 4, 52, 0
6, 79202, Note_on_c, 4, 64, 93
6, 79202, Note_on_c, 4, 52, 93
6, 79322, Note_on_c, 4, 52, 0
6, 79322, Note_on_c, 4, 64, 0
6, 79322, Note_on_c, 4, 64, 93
6, 79322, Note_on_c, 4, 52, 93
6, 79442, Note_on_c, 4, 52, 0
6, 79442, Note_on_c, 4, 64, 0
6, 79682, Note_on_c, 4, 69, 93
6, 79682, Note_on_c, 4, 66, 93
6, 79802, Note_on_c, 4, 66, 0
6, 79802, Note_on_c, 4, 69, 0
6, 79802, Note_on_c, 4, 69, 93
6, 79802, Note_on_c, 4, 66, 93
6, 79922, Note_on_c, 4, 66, 0
6, 79922, Note_on_c, 4, 69, 0
6, 80042, Note_on_c, 4, 68, 93
6, 80042, Note_on_c, 4, 64, 93
6, 80162, Note_on_c, 4, 64, 0
6, 80162, Note_on_c, 4, 68, 0
6, 80162, Note_on_c, 4, 69, 93
6, 80162, Note_on_c, 4, 66, 93
6, 80282, Note_on_c, 4, 66, 0
6, 80282, Note_on_c, 4, 69, 0
6, 80282, Note_on_c, 4, 66, 93
6, 80282, Note_on_c, 4, 69, 93
6, 80402, Note_on_c, 4, 69, 0
6, 80402, Note_on_c, 4, 66, 0
6, 80402, Note_on_c, 4, 69, 93
6, 80402, Note_on_c, 4, 66, 93
6, 80522, Note_on_c, 4, 66, 0
6, 80522, Note_on_c, 4, 69, 0
6, 80522, Note_on_c, 4, 69, 93
6, 80522, Note_on_c, 4, 66, 93
6, 80642, Note_on_c, 4, 66, 0
6, 80642, Note_on_c, 4, 69, 0
6, 80642, Note_on_c, 4, 68, 93
6, 80642, Note_on_c, 4, 64, 93
6, 80762, Note_on_c, 4, 64, 0
6, 80762, Note_on_c, 4, 68, 0
6, 80882, Note_on_c, 4, 68, 93
6, 80882, Note_on_c, 4, 64, 93
6, 81002, Note_on_c, 4, 64, 0
6, 81002, Note_on_c, 4, 68, 0
6, 81122, Note_on_c, 4, 64, 93
6, 81122, Note_on_c, 4, 68, 93
6, 81242, Note_on_c, 4, 68, 0
6, 81242, Note_on_c, 4, 64, 0
6, 81362, Note_on_c, 4, 64, 93
6, 81362, Note_on_c, 4, 68, 93
6, 81482, Note_on_c, 4, 68, 0
6, 81482, Note_on_c, 4, 64, 0
6, 81602, Control_c, 4, 11, 107
6, 81602, Note_on_c, 4, 69, 93
6, 81602, Note_on_c, 4, 66, 93
6, 81620, Control_c, 4, 11, 104
6, 81638, Control_c, 4, 11, 101
6, 81656, Control_c, 4, 11, 98
6, 81674, Control_c, 4, 11, 95
6, 81692, Control_c, 4, 11, 92
6, 81710, Control_c, 4, 11, 89
6, 82562, Note_on_c, 4, 66, 0
6, 82562, Note_on_c, 4, 69, 0
6, 82562, Note_on_c, 4, 64, 93
6, 82562, Note_on_c, 4, 68, 93
6, 82682, Note_on_c, 4, 68, 0
6, 82682, Note_on_c, 4, 64, 0
6, 82802, Note_on_c, 4, 68, 93
6, 82802, Note_on_c, 4, 64, 93
6, 82922, Note_on_c, 4, 64, 0
6, 82922, Note_on_c, 4, 68, 0
6, 83042, Note_on_c, 4, 68, 93
6, 83042, Note_on_c, 4, 64, 93
6, 83162, Note_on_c, 4, 64, 0
6, 83162, Note_on_c, 4, 68, 0
6, 83282, Note_on_c, 4, 64, 93
6, 83282, Note_on_c, 4, 68, 93
6, 83402, Note_on_c, 4, 68, 0
6, 83402, Note_on_c, 4, 64, 0
6, 83522, Control_c, 4, 11, 107
6, 83522, Note_on_c, 4, 69, 93
6, 83522, Note_on_c, 4, 66, 93
6, 83540, Control_c, 4, 11, 104
6, 83558, Control_c, 4, 11, 101
6, 83576, Control_c, 4, 11, 98
6, 83594, Control_c, 4, 11, 95
6, 83612, Control_c, 4, 11, 92
6, 83630, Control_c, 4, 11, 89
6, 84482, Note_on_c, 4, 66, 0
6, 84482, Note_on_c, 4, 69, 0
6, 84482, Note_on_c, 4, 64, 93
6, 84482, Note_on_c, 4, 68, 93
6, 85442, Note_on_c, 4, 68, 0
6, 85442, Note_on_c, 4, 64, 0
6, 85442, Note_on_c, 4, 71, 93
6, 85442, Note_on_c, 4, 64, 93
6, 86162, Note_on_c, 4, 64, 0
6, 86162, Note_on_c, 4, 71, 0
6, 86162, Note_on_c, 4, 64, 93
6, 86162, Note_on_c, 4, 52, 93
6, 86222, Note_on_c, 4, 52, 0
6, 86222, Note_on_c, 4, 64, 0
6, 86222, Note_on_c, 4, 64, 93
6, 86222, Note_on_c, 4, 52, 93
6, 86282, Note_on_c, 4, 52, 0
6, 86282, Note_on_c, 4, 64, 0
6, 86282, Note_on_c, 4, 64, 93
6, 86282, Note_on_c, 4, 52, 93
6, 86342, Note_on_c, 4, 52, 0
6, 86342, Note_on_c, 4, 64, 0
6, 86342, Note_on_c, 4, 64, 93
6, 86342, Note_on_c, 4, 52, 93
6, 86402, Note_on_c, 4, 52, 0
6, 86402, Note_on_c, 4, 64, 0
6, 86402, Note_on_c, 4, 52, 74
6, 86402, Note_on_c, 4, 64, 74
6, 86522, Note_on_c, 4, 64, 0
6, 86522, Note_on_c, 4, 52, 0
6, 86522, Control_c, 4, 11, 67
6, 86522, Note_on_c, 4, 64, 93
6, 86540, Control_c, 4, 11, 64
6, 86558, Control_c, 4, 11, 61
6, 86576, Control_c, 4, 11, 58
6, 86594, Control_c, 4, 11, 55
6, 86612, Control_c, 4, 11, 52
6, 86630, Control_c, 4, 11, 49
6, 86762, Note_on_c, 4, 64, 0
6, 86762, Note_on_c, 4, 66, 93
6, 86882, Note_on_c, 4, 66, 0
6, 86882, Note_on_c, 4, 64, 93
6, 88442, Note_on_c, 4, 64, 0
6, 88442, Note_on_c, 4, 64, 93
6, 88682, Note_on_c, 4, 64, 0
6, 88682, Note_on_c, 4, 66, 93
6, 88802, Note_on_c, 4, 66, 0
6, 88802, Note_on_c, 4, 64, 93
6, 90362, Note_on_c, 4, 64, 0
6, 90362, Note_on_c, 4, 66, 93
6, 90602, Note_on_c, 4, 66, 0
6, 90602, Note_on_c, 4, 67, 93
6, 90722, Note_on_c, 4, 67, 0
6, 90722, Note_on_c, 4, 66, 93
6, 91322, Note_on_c, 4, 66, 0
6, 93242, Control_c, 4, 11, 47
6, 93242, Note_on_c, 4, 67, 93
6, 93287, Control_c, 4, 11, 48
6, 93332, Control_c, 4, 11, 49
6, 93377, Control_c, 4, 11, 50
6, 93422, Control_c, 4, 11, 51
6, 93467, Control_c, 4, 11, 52
6, 93482, Note_on_c, 4, 67, 0
6, 93482, Note_on_c, 4, 69, 93
6, 93512, Control_c, 4, 11, 53
6, 93557, Control_c, 4, 11, 54
6, 93602, Note_on_c, 4, 69, 0
6, 93602, Control_c, 4, 11, 55
6, 93602, Note_on_c, 4, 67, 93
6, 93647, Control_c, 4, 11, 56
6, 93692, Control_c, 4, 11, 57
6, 93722, Note_on_c, 4, 67, 0
6, 93722, Note_on_c, 4, 67, 93
6, 93737, Control_c, 4, 11, 58
6, 93782, Control_c, 4, 11, 59
6, 93827, Control_c, 4, 11, 60
6, 93872, Control_c, 4, 11, 61
6, 93917, Control_c, 4, 11, 62
6, 93962, Note_on_c, 4, 67, 0
6, 93962, Control_c, 4, 11, 63
6, 93962, Note_on_c, 4, 67, 93
6, 94007, Control_c, 4, 11, 64
6, 94052, Control_c, 4, 11, 65
6, 94082, Note_on_c, 4, 67, 0
6, 94082, Note_on_c, 4, 67, 93
6, 94097, Control_c, 4, 11, 66
6, 94142, Control_c, 4, 11, 67
6, 94187, Control_c, 4, 11, 68
6, 94202, Note_on_c, 4, 67, 0
6, 94202, Note_on_c, 4, 67, 93
6, 94232, Control_c, 4, 11, 69
6, 94277, Control_c, 4, 11, 70
6, 94322, Note_on_c, 4, 67, 0
6, 94322, Control_c, 4, 11, 71
6, 94367, Control_c, 4, 11, 72
6, 94412, Control_c, 4, 11, 73
6, 94442, Note_on_c, 4, 67, 93
6, 94457, Control_c, 4, 11, 74
6, 94502, Control_c, 4, 11, 75
6, 94547, Control_c, 4, 11, 76
6, 94562, Note_on_c, 4, 67, 0
6, 94562, Note_on_c, 4, 67, 93
6, 94592, Control_c, 4, 11, 77
6, 94637, Control_c, 4, 11, 78
6, 94682, Note_on_c, 4, 67, 0
6, 94682, Control_c, 4, 11, 79
6, 94682, Note_on_c, 4, 67, 93
6, 94727, Control_c, 4, 11, 80
6, 94772, Control_c, 4, 11, 81
6, 94802, Note_on_c, 4, 67, 0
6, 94817, Control_c, 4, 11, 82
6, 94862, Control_c, 4, 11, 83
6, 94907, Control_c, 4, 11, 84
6, 94922, Note_on_c, 4, 67, 93
6, 94952, Control_c, 4, 11, 85
6, 94997, Control_c, 4, 11, 86
6, 95042, Note_on_c, 4, 67, 0
6, 95042, Control_c, 4, 11, 87
6, 95042, Note_on_c, 4, 67, 93
6, 95162, Note_on_c, 4, 67, 0
6, 95162, Note_on_c, 4, 67, 93
6, 95222, Note_on_c, 4, 67, 0
6, 95222, Note_on_c, 4, 67, 93
6, 95282, Note_on_c, 4, 67, 0
6, 95282, Note_on_c, 4, 67, 93
6, 95402, Note_on_c, 4, 67, 0
6, 95402, Note_on_c, 4, 67, 93
6, 95462, Note_on_c, 4, 67, 0
6, 95462, Note_on_c, 4, 67, 93
6, 95522, Note_on_c, 4, 67, 0
6, 95522, Note_on_c, 4, 67, 93
6, 95642, Note_on_c, 4, 67, 0
6, 95642, Note_on_c, 4, 67, 93
6, 95702, Note_on_c, 4, 67, 0
6, 95702, Note_on_c, 4, 67, 93
6, 95762, Note_on_c, 4, 67, 0
6, 95762, Note_on_c, 4, 67, 93
6, 95882, Note_on_c, 4, 67, 0
6, 95882, Note_on_c, 4, 67, 93
6, 95942, Note_on_c, 4, 67, 0
6, 95942, Note_on_c, 4, 67, 93
6, 96002, Note_on_c, 4, 67, 0
6, 96002, Control_c, 4, 11, 102
6, 96002, Note_on_c, 4, 64, 93
6, 96482, Note_on_c, 4, 64, 0
6, 96962, Note_on_c, 4, 69, 93
6, 97442, Note_on_c, 4, 69, 0
6, 97442, Note_on_c, 4, 69, 93
6, 97922, Note_on_c, 4, 69, 0
6, 97922, Note_on_c, 4, 69, 93
6, 98882, Note_on_c, 4, 69, 0
6, 98882, Note_on_c, 4, 69, 93
6, 99002, Note_on_c, 4, 69, 0
6, 99242, Control_c, 4, 11, 122
6, 99242, Note_on_c, 4, 64, 93
6, 99260, Control_c, 4, 11, 119
6, 99278, Control_c, 4, 11, 116
6, 99296, Control_c, 4, 11, 113
6, 99314, Control_c, 4, 11, 110
6, 99332, Control_c, 4, 11, 107
6, 99350, Control_c, 4, 11, 104
6, 99362, Note_on_c, 4, 64, 0
6, 99362, Note_on_c, 4, 69, 93
6, 99482, Note_on_c, 4, 69, 0
6, 99722, Control_c, 4, 11, 122
6, 99722, Note_on_c, 4, 64, 93
6, 99740, Control_c, 4, 11, 119
6, 99758, Control_c, 4, 11, 116
6, 99776, Control_c, 4, 11, 113
6, 99794, Control_c, 4, 11, 110
6, 99812, Control_c, 4, 11, 107
6, 99830, Control_c, 4, 11, 104
6, 99842, Note_on_c, 4, 64, 0
6, 99842, Note_on_c, 4, 69, 93
6, 99962, Note_on_c, 4, 69, 0
6, 99962, Control_c, 4, 11, 122
6, 99962, Note_on_c, 4, 64, 93
6, 99980, Control_c, 4, 11, 119
6, 99998, Control_c, 4, 11, 116
6, 100016, Control_c, 4, 11, 113
6, 100034, Control_c, 4, 11, 110
6, 100052, Control_c, 4, 11, 107
6, 100070, Control_c, 4, 11, 104
6, 100082, Note_on_c, 4, 64, 0
6, 100082, Note_on_c, 4, 69, 93
6, 100202, Note_on_c, 4, 69, 0
6, 100202, Control_c, 4, 11, 122
6, 100202, Note_on_c, 4, 64, 93
6, 100220, Control_c, 4, 11, 119
6, 100238, Control_c, 4, 11, 116
6, 100256, Control_c, 4, 11, 113
6, 100274, Control_c, 4, 11, 110
6, 100292, Control_c, 4, 11, 107
6, 100310, Control_c, 4, 11, 104
6, 100322, Note_on_c, 4, 64, 0
6, 100322, Note_on_c, 4, 69, 93
6, 100442, Note_on_c, 4, 69, 0
6, 100442, Control_c, 4, 11, 122
6, 100442, Note_on_c, 4, 64, 93
6, 100460, Control_c, 4, 11, 119
6, 100478, Control_c, 4, 11, 116
6, 100496, Control_c, 4, 11, 113
6, 100514, Control_c, 4, 11, 110
6, 100532, Control_c, 4, 11, 107
6, 100550, Control_c, 4, 11, 104
6, 100562, Note_on_c, 4, 64, 0
6, 100562, Note_on_c, 4, 69, 93
6, 100682, Note_on_c, 4, 69, 0
6, 100682, Control_c, 4, 11, 122
6, 100682, Note_on_c, 4, 64, 93
6, 100700, Control_c, 4, 11, 119
6, 100718, Control_c, 4, 11, 116
6, 100736, Control_c, 4, 11, 113
6, 100754, Control_c, 4, 11, 110
6, 100772, Control_c, 4, 11, 107
6, 100790, Control_c, 4, 11, 104
6, 100802, Note_on_c, 4, 64, 0
6, 100802, Note_on_c, 4, 67, 93
6, 100922, Note_on_c, 4, 67, 0
6, 100922, Control_c, 4, 11, 122
6, 100922, Note_on_c, 4, 67, 93
6, 100940, Control_c, 4, 11, 119
6, 100958, Control_c, 4, 11, 116
6, 100976, Control_c, 4, 11, 113
6, 100994, Control_c, 4, 11, 110
6, 101012, Control_c, 4, 11, 107
6, 101030, Control_c, 4, 11, 104
6, 101042, Note_on_c, 4, 67, 0
6, 101042, Note_on_c, 4, 69, 93
6, 101162, Note_on_c, 4, 69, 0
6, 101162, Control_c, 4, 11, 122
6, 101162, Note_on_c, 4, 69, 93
6, 101180, Control_c, 4, 11, 119
6, 101198, Control_c, 4, 11, 116
6, 101216, Control_c, 4, 11, 113
6, 101234, Control_c, 4, 11, 110
6, 101252, Control_c, 4, 11, 107
6, 101270, Control_c, 4, 11, 104
6, 101282, Note_on_c, 4, 69, 0
6, 101282, Note_on_c, 4, 67, 93
6, 101402, Note_on_c, 4, 67, 0
6, 101402, Control_c, 4, 11, 122
6, 101402, Note_on_c, 4, 67, 93
6, 101420, Control_c, 4, 11, 119
6, 101438, Control_c, 4, 11, 116
6, 101456, Control_c, 4, 11, 113
6, 101474, Control_c, 4, 11, 110
6, 101492, Control_c, 4, 11, 107
6, 101510, Control_c, 4, 11, 104
6, 101522, Note_on_c, 4, 67, 0
6, 101522, Note_on_c, 4, 67, 93
6, 101642, Note_on_c, 4, 67, 0
6, 101642, Control_c, 4, 11, 122
6, 101642, Note_on_c, 4, 67, 93
6, 101660, Control_c, 4, 11, 119
6, 101678, Control_c, 4, 11, 116
6, 101696, Control_c, 4, 11, 113
6, 101714, Control_c, 4, 11, 110
6, 101732, Control_c, 4, 11, 107
6, 101750, Control_c, 4, 11, 104
6, 101762, Note_on_c, 4, 67, 0
6, 101762, Note_on_c, 4, 67, 93
6, 101882, Note_on_c, 4, 67, 0
6, 102242, Control_c, 4, 11, 87
6, 102242, Note_on_c, 4, 67, 93
6, 102362, Note_on_c, 4, 67, 0
6, 102722, Note_on_c, 4, 67, 93
6, 102842, Note_on_c, 4, 67, 0
6, 103202, Note_on_c, 4, 67, 93
6, 103322, Note_on_c, 4, 67, 0
6, 103682, Note_on_c, 4, 67, 93
6, 103802, Note_on_c, 4, 67, 0
6, 103802, Note_on_c, 4, 67, 93
6, 103862, Note_on_c, 4, 67, 0
6, 103862, Note_on_c, 4, 67, 93
6, 103922, Note_on_c, 4, 67, 0
6, 103922, Note_on_c, 4, 67, 93
6, 104042, Note_on_c, 4, 67, 0
6, 104162, Note_on_c, 4, 67, 93
6, 104282, Note_on_c, 4, 67, 0
6, 104282, Note_on_c, 4, 67, 93
6, 104342, Note_on_c, 4, 67, 0
6, 104342, Note_on_c, 4, 67, 93
6, 104402, Note_on_c, 4, 67, 0
6, 104402, Note_on_c, 4, 67, 93
6, 104522, Note_on_c, 4, 67, 0
6, 104642, Note_on_c, 4, 67, 93
6, 104762, Note_on_c, 4, 67, 0
6, 104762, Note_on_c, 4, 67, 93
6, 104822, Note_on_c, 4, 67, 0
6, 104822, Note_on_c, 4, 67, 93
6, 104882, Note_on_c, 4, 67, 0
6, 104882, Note_on_c, 4, 67, 93
6, 105002, Note_on_c, 4, 67, 0
6, 105122, Note_on_c, 4, 67, 93
6, 105242, Note_on_c, 4, 67, 0
6, 105242, Note_on_c, 4, 67, 93
6, 105302, Note_on_c, 4, 67, 0
6, 105302, Note_on_c, 4, 67, 93
6, 105362, Note_on_c, 4, 67, 0
6, 105362, Note_on_c, 4, 67, 93
6, 105482, Note_on_c, 4, 67, 0
6, 105602, Note_on_c, 4, 64, 93
6, 105602, Note_on_c, 4, 52, 93
6, 105722, Note_on_c, 4, 52, 0
6, 105722, Note_on_c, 4, 64, 0
6, 105722, Note_on_c, 4, 64, 93
6, 105722, Note_on_c, 4, 52, 93
6, 105782, Note_on_c, 4, 52, 0
6, 105782, Note_on_c, 4, 64, 0
6, 105782, Note_on_c, 4, 64, 93
6, 105782, Note_on_c, 4, 52, 93
6, 105842, Note_on_c, 4, 52, 0
6, 105842, Note_on_c, 4, 64, 0
6, 105842, Note_on_c, 4, 64, 93
6, 105842, Note_on_c, 4, 52, 93
6, 105962, Note_on_c, 4, 52, 0
6, 105962, Note_on_c, 4, 64, 0
6, 105962, Note_on_c, 4, 64, 93
6, 105962, Note_on_c, 4, 52, 93
6, 106022, Note_on_c, 4, 52, 0
6, 106022, Note_on_c, 4, 64, 0
6, 106022, Note_on_c, 4, 64, 93
6, 106022, Note_on_c, 4, 52, 93
6, 106082, Note_on_c, 4, 52, 0
6, 106082, Note_on_c, 4, 64, 0
6, 106082, Note_on_c, 4, 64, 93
6, 106082, Note_on_c, 4, 52, 93
6, 106202, Note_on_c, 4, 52, 0
6, 106202, Note_on_c, 4, 64, 0
6, 106202, Note_on_c, 4, 64, 93
6, 106202, Note_on_c, 4, 52, 93
6, 106262, Note_on_c, 4, 52, 0
6, 106262, Note_on_c, 4, 64, 0
6, 106262, Note_on_c, 4, 64, 93
6, 106262, Note_on_c, 4, 52, 93
6, 106322, Note_on_c, 4, 52, 0
6, 106322, Note_on_c, 4, 64, 0
6, 106322, Note_on_c, 4, 64, 93
6, 106322, Note_on_c, 4, 52, 93
6, 106442, Note_on_c, 4, 52, 0
6, 106442, Note_on_c, 4, 64, 0
6, 106442, Note_on_c, 4, 52, 93
6, 106442, Note_on_c, 4, 64, 93
6, 106502, Note_on_c, 4, 64, 0
6, 106502, Note_on_c, 4, 52, 0
6, 106502, Note_on_c, 4, 64, 93
6, 106502, Note_on_c, 4, 52, 93
6, 106562, Note_on_c, 4, 52, 0
6, 106562, Note_on_c, 4, 64, 0
6, 106562, Note_on_c, 4, 59, 75
6, 106562, Note_on_c, 4, 66, 75
6, 106682, Note_on_c, 4, 66, 0
6, 106682, Note_on_c, 4, 59, 0
6, 106682, Control_c, 4, 11, 47
6, 106682, Note_on_c, 4, 59, 75
6, 106682, Note_on_c, 4, 66, 75
6, 106922, Note_on_c, 4, 66, 0
6, 106922, Note_on_c, 4, 59, 0
6, 107162, Note_on_c, 4, 59, 75
6, 107162, Note_on_c, 4, 66, 75
6, 107402, Note_on_c, 4, 66, 0
6, 107402, Note_on_c, 4, 59, 0
6, 107642, Note_on_c, 4, 59, 75
6, 107642, Note_on_c, 4, 66, 75
6, 107882, Note_on_c, 4, 66, 0
6, 107882, Note_on_c, 4, 59, 0
6, 108122, Note_on_c, 4, 59, 75
6, 108122, Note_on_c, 4, 66, 75
6, 108362, Note_on_c, 4, 66, 0
6, 108362, Note_on_c, 4, 59, 0
6, 108362, Control_c, 4, 11, 87
6, 108362, Note_on_c, 4, 66, 75
6, 108602, Note_on_c, 4, 66, 0
6, 108602, Note_on_c, 4, 71, 75
6, 108602, Note_on_c, 4, 59, 75
6, 108662, Note_on_c, 4, 59, 0
6, 108662, Note_on_c, 4, 71, 0
6, 108662, Note_on_c, 4, 71, 75
6, 108662, Note_on_c, 4, 59, 75
6, 108722, Note_on_c, 4, 59, 0
6, 108722, Note_on_c, 4, 71, 0
6, 108722, Note_on_c, 4, 59, 75
6, 108722, Note_on_c, 4, 71, 75
6, 108842, Note_on_c, 4, 71, 0
6, 108842, Note_on_c, 4, 59, 0
6, 108842, Note_on_c, 4, 59, 75
6, 108842, Note_on_c, 4, 71, 75
6, 108902, Note_on_c, 4, 71, 0
6, 108902, Note_on_c, 4, 59, 0
6, 108902, Note_on_c, 4, 71, 75
6, 108902, Note_on_c, 4, 59, 75
6, 108962, Note_on_c, 4, 59, 0
6, 108962, Note_on_c, 4, 71, 0
6, 108962, Note_on_c, 4, 59, 75
6, 108962, Note_on_c, 4, 71, 75
6, 109082, Note_on_c, 4, 71, 0
6, 109082, Note_on_c, 4, 59, 0
6, 109082, Note_on_c, 4, 71, 75
6, 109082, Note_on_c, 4, 59, 75
6, 109142, Note_on_c, 4, 59, 0
6, 109142, Note_on_c, 4, 71, 0
6, 109142, Note_on_c, 4, 59, 75
6, 109142, Note_on_c, 4, 71, 75
6, 109202, Note_on_c, 4, 71, 0
6, 109202, Note_on_c, 4, 59, 0
6, 109202, Note_on_c, 4, 71, 75
6, 109202, Note_on_c, 4, 59, 75
6, 109322, Note_on_c, 4, 59, 0
6, 109322, Note_on_c, 4, 71, 0
6, 109322, Note_on_c, 4, 59, 75
6, 109322, Note_on_c, 4, 71, 75
6, 109382, Note_on_c, 4, 71, 0
6, 109382, Note_on_c, 4, 59, 0
6, 109382, Note_on_c, 4, 71, 75
6, 109382, Note_on_c, 4, 59, 75
6, 109442, Note_on_c, 4, 59, 0
6, 109442, Note_on_c, 4, 71, 0
6, 109442, Note_on_c, 4, 71, 75
6, 109442, Note_on_c, 4, 59, 75
6, 109562, Note_on_c, 4, 59, 0
6, 109562, Note_on_c, 4, 71, 0
6, 109562, Note_on_c, 4, 59, 75
6, 109562, Note_on_c, 4, 71, 75
6, 109622, Note_on_c, 4, 71, 0
6, 109622, Note_on_c, 4, 59, 0
6, 109622, Note_on_c, 4, 59, 75
6, 109622, Note_on_c, 4, 71, 75
6, 109682, Note_on_c, 4, 71, 0
6, 109682, Note_on_c, 4, 59, 0
6, 109682, Note_on_c, 4, 59, 75
6, 109682, Note_on_c, 4, 71, 75
6, 109802, Note_on_c, 4, 71, 0
6, 109802, Note_on_c, 4, 59, 0
6, 109802, Note_on_c, 4, 59, 75
6, 109802, Note_on_c, 4, 71, 75
6, 109862, Note_on_c, 4, 71, 0
6, 109862, Note_on_c, 4, 59, 0
6, 109862, Note_on_c, 4, 59, 75
6, 109862, Note_on_c, 4, 71, 75
6, 109922, Note_on_c, 4, 71, 0
6, 109922, Note_on_c, 4, 59, 0
6, 109922, Note_on_c, 4, 59, 75
6, 109922, Note_on_c, 4, 71, 75
6, 110042, Note_on_c, 4, 71, 0
6, 110042, Note_on_c, 4, 59, 0
6, 110042, Note_on_c, 4, 59, 75
6, 110042, Note_on_c, 4, 71, 75
6, 110102, Note_on_c, 4, 71, 0
6, 110102, Note_on_c, 4, 59, 0
6, 110102, Note_on_c, 4, 59, 75
6, 110102, Note_on_c, 4, 71, 75
6, 110162, Note_on_c, 4, 71, 0
6, 110162, Note_on_c, 4, 59, 0
6, 110162, Note_on_c, 4, 59, 75
6, 110162, Note_on_c, 4, 71, 75
6, 110282, Note_on_c, 4, 71, 0
6, 110282, Note_on_c, 4, 59, 0
6, 110282, Note_on_c, 4, 71, 75
6, 110282, Note_on_c, 4, 59, 75
6, 110342, Note_on_c, 4, 59, 0
6, 110342, Note_on_c, 4, 71, 0
6, 110342, Note_on_c, 4, 71, 75
6, 110342, Note_on_c, 4, 59, 75
6, 110402, Note_on_c, 4, 59, 0
6, 110402, Note_on_c, 4, 71, 0
6, 110402, Control_c, 4, 11, 102
6, 110402, Note_on_c, 4, 59, 75
6, 110402, Note_on_c, 4, 71, 75
6, 110522, Note_on_c, 4, 71, 0
6, 110522, Note_on_c, 4, 59, 0
6, 110522, Note_on_c, 4, 71, 75
6, 110522, Note_on_c, 4, 59, 75
6, 110582, Note_on_c, 4, 59, 0
6, 110582, Note_on_c, 4, 71, 0
6, 110582, Note_on_c, 4, 59, 75
6, 110582, Note_on_c, 4, 71, 75
6, 110642, Note_on_c, 4, 71, 0
6, 110642, Note_on_c, 4, 59, 0
6, 110642, Note_on_c, 4, 71, 75
6, 110642, Note_on_c, 4, 59, 75
6, 110762, Note_on_c, 4, 59, 0
6, 110762, Note_on_c, 4, 71, 0
6, 110762, Note_on_c, 4, 71, 75
6, 110762, Note_on_c, 4, 59, 75
6, 110822, Note_on_c, 4, 59, 0
6, 110822, Note_on_c, 4, 71, 0
6, 110822, Note_on_c, 4, 59, 75
6, 110822, Note_on_c, 4, 71, 75
6, 110882, Note_on_c, 4, 71, 0
6, 110882, Note_on_c, 4, 59, 0
6, 110882, Note_on_c, 4, 71, 75
6, 110882, Note_on_c, 4, 59, 75
6, 111002, Note_on_c, 4, 59, 0
6, 111002, Note_on_c, 4, 71, 0
6, 111002, Note_on_c, 4, 59, 75
6, 111002, Note_on_c, 4, 71, 75
6, 111062, Note_on_c, 4, 71, 0
6, 111062, Note_on_c, 4, 59, 0
6, 111062, Note_on_c, 4, 59, 75
6, 111062, Note_on_c, 4, 71, 75
6, 111122, Note_on_c, 4, 71, 0
6, 111122, Note_on_c, 4, 59, 0
6, 111122, Note_on_c, 4, 71, 75
6, 111122, Note_on_c, 4, 59, 75
6, 111242, Note_on_c, 4, 59, 0
6, 111242, Note_on_c, 4, 71, 0
6, 111242, Note_on_c, 4, 59, 75
6, 111242, Note_on_c, 4, 71, 75
6, 111302, Note_on_c, 4, 71, 0
6, 111302, Note_on_c, 4, 59, 0
6, 111302, Note_on_c, 4, 71, 75
6, 111302, Note_on_c, 4, 59, 75
6, 111362, Note_on_c, 4, 59, 0
6, 111362, Note_on_c, 4, 71, 0
6, 111362, Note_on_c, 4, 71, 75
6, 111362, Note_on_c, 4, 59, 75
6, 111482, Note_on_c, 4, 59, 0
6, 111482, Note_on_c, 4, 71, 0
6, 111482, Note_on_c, 4, 59, 75
6, 111482, Note_on_c, 4, 71, 75
6, 111542, Note_on_c, 4, 71, 0
6, 111542, Note_on_c, 4, 59, 0
6, 111542, Note_on_c, 4, 71, 75
6, 111542, Note_on_c, 4, 59, 75
6, 111602, Note_on_c, 4, 59, 0
6, 111602, Note_on_c, 4, 71, 0
6, 111602, Note_on_c, 4, 71, 75
6, 111602, Note_on_c, 4, 59, 75
6, 111662, Note_on_c, 4, 59, 0
6, 111662, Note_on_c, 4, 71, 0
6, 111722, Note_on_c, 4, 68, 75
6, 111722, Note_on_c, 4, 64, 75
6, 111782, Note_on_c, 4, 64, 0
6, 111782, Note_on_c, 4, 68, 0
6, 111842, Note_on_c, 4, 59, 75
6, 111842, Note_on_c, 4, 66, 75
6, 111902, Note_on_c, 4, 66, 0
6, 111902, Note_on_c, 4, 59, 0
6, 112322, Control_c, 4, 11, 27
6, 112322, Note_on_c, 4, 69, 77
6, 112322, Note_on_c, 4, 66, 77
6, 112325, Control_c, 4, 11, 30
6, 112328, Control_c, 4, 11, 33
6, 112331, Control_c, 4, 11, 36
6, 112341, Control_c, 4, 11, 39
6, 112355, Control_c, 4, 11, 42
6, 112369, Control_c, 4, 11, 45
6, 112383, Control_c, 4, 11, 48
6, 112397, Control_c, 4, 11, 52
6, 112802, Note_on_c, 4, 66, 0
6, 112802, Note_on_c, 4, 69, 0
6, 112802, Note_on_c, 4, 59, 80
6, 112802, Note_on_c, 4, 66, 80
6, 113282, Note_on_c, 4, 66, 0
6, 113282, Note_on_c, 4, 59, 0
6, 113282, Note_on_c, 4, 68, 75
6, 113282, Note_on_c, 4, 71, 75
6, 113762, Note_on_c, 4, 71, 0
6, 113762, Note_on_c, 4, 68, 0
6, 113762, Note_on_c, 4, 68, 75
6, 113762, Note_on_c, 4, 64, 75
6, 114237, Note_on_c, 4, 64, 0
6, 114237, Note_on_c, 4, 68, 0
6, 116162, Control_c, 4, 11, 32
6, 116162, Note_on_c, 4, 66, 87
6, 116162, Note_on_c, 4, 69, 87
6, 116168, Control_c, 4, 11, 35
6, 116174, Control_c, 4, 11, 38
6, 116180, Control_c, 4, 11, 41
6, 116186, Control_c, 4, 11, 44
6, 116192, Control_c, 4, 11, 47
6, 116198, Control_c, 4, 11, 50
6, 116642, Note_on_c, 4, 69, 0
6, 116642, Note_on_c, 4, 66, 0
6, 116642, Note_on_c, 4, 66, 75
6, 116642, Note_on_c, 4, 59, 75
6, 117122, Note_on_c, 4, 59, 0
6, 117122, Note_on_c, 4, 66, 0
6, 117122, Note_on_c, 4, 64, 75
6, 117122, Note_on_c, 4, 68, 75
6, 117602, Note_on_c, 4, 64, 0
6, 117602, Note_on_c, 4, 40, 75
6, 117842, Note_on_c, 4, 68, 0
6, 117842, Note_on_c, 4, 59, 75
6, 118082, Note_on_c, 4, 40, 0
6, 118082, Note_on_c, 4, 47, 75
6, 118992, Control_c, 4, 11, 47
6, 118995, Control_c, 4, 11, 44
6, 118998, Control_c, 4, 11, 41
6, 119001, Control_c, 4, 11, 38
6, 119004, Control_c, 4, 11, 35
6, 119007, Control_c, 4, 11, 32
6, 119010, Control_c, 4, 11, 29
6, 119012, Note_on_c, 4, 47, 0
6, 119012, Note_on_c, 4, 59, 0
6, 123842, Control_c, 4, 11, 87
6, 123842, Note_on_c, 4, 64, 93
6, 123842, Note_on_c, 4, 52, 93
6, 124022, Note_on_c, 4, 52, 0
6, 124022, Note_on_c, 4, 64, 0
6, 124022, Note_on_c, 4, 47, 93
6, 124022, Note_on_c, 4, 59, 93
6, 124082, Note_on_c, 4, 59, 0
6, 124082, Note_on_c, 4, 47, 0
6, 124082, Note_on_c, 4, 47, 93
6, 124082, Note_on_c, 4, 59, 93
6, 124202, Note_on_c, 4, 59, 0
6, 124202, Note_on_c, 4, 47, 0
6, 124322, Control_c, 4, 11, 107
6, 124322, Note_on_c, 4, 52, 93
6, 124322, Note_on_c, 4, 64, 93
6, 124340, Control_c, 4, 11, 105
6, 124358, Control_c, 4, 11, 103
6, 124376, Control_c, 4, 11, 101
6, 124394, Control_c, 4, 11, 99
6, 124412, Control_c, 4, 11, 97
6, 124430, Control_c, 4, 11, 95
6, 124448, Control_c, 4, 11, 93
6, 124466, Control_c, 4, 11, 91
6, 124484, Control_c, 4, 11, 89
6, 124502, Note_on_c, 4, 64, 0
6, 124502, Note_on_c, 4, 52, 0
6, 124502, Control_c, 4, 11, 87
6, 124502, Note_on_c, 4, 59, 93
6, 124502, Note_on_c, 4, 47, 93
6, 124562, Note_on_c, 4, 47, 0
6, 124562, Note_on_c, 4, 59, 0
6, 124562, Note_on_c, 4, 47, 93
6, 124562, Note_on_c, 4, 59, 93
6, 124682, Note_on_c, 4, 59, 0
6, 124682, Note_on_c, 4, 47, 0
6, 124802, Control_c, 4, 11, 107
6, 124802, Note_on_c, 4, 66, 93
6, 124820, Control_c, 4, 11, 105
6, 124838, Control_c, 4, 11, 103
6, 124856, Control_c, 4, 11, 101
6, 124874, Control_c, 4, 11, 99
6, 124892, Control_c, 4, 11, 97
6, 124910, Control_c, 4, 11, 95
6, 124928, Control_c, 4, 11, 93
6, 124946, Control_c, 4, 11, 91
6, 124964, Control_c, 4, 11, 89
6, 124982, Note_on_c, 4, 66, 0
6, 124982, Control_c, 4, 11, 87
6, 124982, Note_on_c, 4, 59, 93
6, 124982, Note_on_c, 4, 47, 93
6, 125042, Note_on_c, 4, 47, 0
6, 125042, Note_on_c, 4, 59, 0
6, 125042, Note_on_c, 4, 47, 93
6, 125042, Note_on_c, 4, 59, 93
6, 125162, Note_on_c, 4, 59, 0
6, 125162, Note_on_c, 4, 47, 0
6, 125282, Control_c, 4, 11, 47
6, 125282, Note_on_c, 4, 71, 93
6, 125438, Control_c, 4, 11, 48
6, 125462, Note_on_c, 4, 71, 0
6, 125462, Note_on_c, 4, 47, 93
6, 125462, Note_on_c, 4, 59, 93
6, 125522, Note_on_c, 4, 59, 0
6, 125522, Note_on_c, 4, 47, 0
6, 125522, Note_on_c, 4, 47, 93
6, 125522, Note_on_c, 4, 59, 93
6, 125594, Control_c, 4, 11, 49
6, 125642, Note_on_c, 4, 59, 0
6, 125642, Note_on_c, 4, 47, 0
6, 125750, Control_c, 4, 11, 50
6, 125762, Note_on_c, 4, 64, 93
6, 125906, Control_c, 4, 11, 51
6, 125942, Note_on_c, 4, 64, 0
6, 125942, Note_on_c, 4, 59, 93
6, 126002, Note_on_c, 4, 59, 0
6, 126002, Note_on_c, 4, 59, 93
6, 126062, Control_c, 4, 11, 52
6, 126122, Note_on_c, 4, 59, 0
6, 126218, Control_c, 4, 11, 53
6, 126242, Note_on_c, 4, 64, 93
6, 126374, Control_c, 4, 11, 54
6, 126422, Note_on_c, 4, 64, 0
6, 126422, Note_on_c, 4, 59, 93
6, 126482, Note_on_c, 4, 59, 0
6, 126482, Note_on_c, 4, 59, 93
6, 126530, Control_c, 4, 11, 55
6, 126602, Note_on_c, 4, 59, 0
6, 126686, Control_c, 4, 11, 56
6, 126722, Note_on_c, 4, 66, 93
6, 126842, Control_c, 4, 11, 57
6, 126902, Note_on_c, 4, 66, 0
6, 126902, Note_on_c, 4, 59, 93
6, 126962, Note_on_c, 4, 59, 0
6, 126962, Note_on_c, 4, 59, 93
6, 126998, Control_c, 4, 11, 58
6, 127082, Note_on_c, 4, 59, 0
6, 127154, Control_c, 4, 11, 59
6, 127202, Note_on_c, 4, 71, 108
6, 127310, Control_c, 4, 11, 60
6, 127382, Note_on_c, 4, 71, 0
6, 127382, Note_on_c, 4, 59, 93
6, 127442, Note_on_c, 4, 59, 0
6, 127442, Note_on_c, 4, 59, 93
6, 127466, Control_c, 4, 11, 61
6, 127562, Note_on_c, 4, 59, 0
6, 127622, Control_c, 4, 11, 62
6, 127682, Note_on_c, 4, 64, 93
6, 127778, Control_c, 4, 11, 63
6, 127862, Note_on_c, 4, 64, 0
6, 127862, Note_on_c, 4, 64, 93
6, 127922, Note_on_c, 4, 64, 0
6, 127922, Note_on_c, 4, 64, 93
6, 127934, Control_c, 4, 11, 64
6, 128042, Note_on_c, 4, 64, 0
6, 128090, Control_c, 4, 11, 65
6, 128162, Note_on_c, 4, 64, 93
6, 128246, Control_c, 4, 11, 66
6, 128342, Note_on_c, 4, 64, 0
6, 128342, Note_on_c, 4, 64, 93
6, 128402, Note_on_c, 4, 64, 0
6, 128402, Control_c, 4, 11, 67
6, 128402, Note_on_c, 4, 64, 93
6, 128522, Note_on_c, 4, 64, 0
6, 128558, Control_c, 4, 11, 68
6, 128642, Note_on_c, 4, 64, 93
6, 128714, Control_c, 4, 11, 69
6, 128822, Note_on_c, 4, 64, 0
6, 128822, Note_on_c, 4, 64, 93
6, 128870, Control_c, 4, 11, 70
6, 128882, Note_on_c, 4, 64, 0
6, 128882, Note_on_c, 4, 64, 93
6, 129002, Note_on_c, 4, 64, 0
6, 129026, Control_c, 4, 11, 71
6, 129122, Note_on_c, 4, 64, 93
6, 129182, Control_c, 4, 11, 72
6, 129302, Note_on_c, 4, 64, 0
6, 129302, Note_on_c, 4, 64, 93
6, 129338, Control_c, 4, 11, 73
6, 129362, Note_on_c, 4, 64, 0
6, 129362, Note_on_c, 4, 64, 93
6, 129482, Note_on_c, 4, 64, 0
6, 129494, Control_c, 4, 11, 74
6, 129602, Note_on_c, 4, 66, 120
6, 129602, Note_on_c, 4, 69, 120
6, 129650, Control_c, 4, 11, 75
6, 129806, Control_c, 4, 11, 76
6, 129962, Control_c, 4, 11, 77
6, 130118, Control_c, 4, 11, 78
6, 130274, Control_c, 4, 11, 79
6, 130430, Control_c, 4, 11, 80
6, 130586, Control_c, 4, 11, 81
6, 130742, Control_c, 4, 11, 82
6, 130898, Control_c, 4, 11, 83
6, 131054, Control_c, 4, 11, 84
6, 131210, Control_c, 4, 11, 85
6, 131366, Control_c, 4, 11, 86
6, 131522, Note_on_c, 4, 69, 0
6, 131522, Note_on_c, 4, 66, 0
6, 131522, Control_c, 4, 11, 87
6, 131522, Note_on_c, 4, 59, 120
6, 131522, Note_on_c, 4, 71, 120
6, 132482, Control_c, 4, 11, 97
6, 132674, Control_c, 4, 11, 98
6, 132866, Control_c, 4, 11, 99
6, 133058, Control_c, 4, 11, 100
6, 133250, Control_c, 4, 11, 101
6, 133442, Note_on_c, 4, 71, 0
6, 133442, Note_on_c, 4, 59, 0
6, 133442, Control_c, 4, 11, 102
6, 133442, Note_on_c, 4, 59, 120
6, 133442, Note_on_c, 4, 71, 120
6, 135362, Note_on_c, 4, 71, 0
6, 135362, Note_on_c, 4, 59, 0
6, 135362, Note_on_c, 4, 64, 93
6, 135362, Note_on_c, 4, 52, 93
6, 135482, Note_on_c, 4, 52, 0
6, 135482, Note_on_c, 4, 64, 0
6, 135482, Note_on_c, 4, 52, 93
6, 135482, Note_on_c, 4, 64, 93
6, 135602, Note_on_c, 4, 64, 0
6, 135602, Note_on_c, 4, 52, 0
6, 135602, Note_on_c, 4, 52, 93
6, 135602, Note_on_c, 4, 64, 93
6, 135722, Note_on_c, 4, 64, 0
6, 135722, Note_on_c, 4, 52, 0
6, 135722, Note_on_c, 4, 64, 93
6, 135722, Note_on_c, 4, 52, 93
6, 135842, Note_on_c, 4, 52, 0
6, 135842, Note_on_c, 4, 64, 0
6, 135842, Note_on_c, 4, 64, 93
6, 135842, Note_on_c, 4, 52, 93
6, 135962, Note_on_c, 4, 52, 0
6, 135962, Note_on_c, 4, 64, 0
6, 135962, Note_on_c, 4, 52, 93
6, 135962, Note_on_c, 4, 64, 93
6, 136082, Note_on_c, 4, 64, 0
6, 136082, Note_on_c, 4, 52, 0
6, 136082, Note_on_c, 4, 52, 93
6, 136082, Note_on_c, 4, 64, 93
6, 136202, Note_on_c, 4, 64, 0
6, 136202, Note_on_c, 4, 52, 0
6, 136202, Note_on_c, 4, 64, 93
6, 136202, Note_on_c, 4, 52, 93
6, 136322, Note_on_c, 4, 52, 0
6, 136322, Note_on_c, 4, 64, 0
6, 136322, Note_on_c, 4, 64, 93
6, 136322, Note_on_c, 4, 52, 93
6, 136442, Note_on_c, 4, 52, 0
6, 136442, Note_on_c, 4, 64, 0
6, 136442, Note_on_c, 4, 52, 93
6, 136442, Note_on_c, 4, 64, 93
6, 136562, Note_on_c, 4, 64, 0
6, 136562, Note_on_c, 4, 52, 0
6, 136562, Note_on_c, 4, 64, 93
6, 136562, Note_on_c, 4, 52, 93
6, 136682, Note_on_c, 4, 52, 0
6, 136682, Note_on_c, 4, 64, 0
6, 136682, Note_on_c, 4, 64, 93
6, 136682, Note_on_c, 4, 52, 93
6, 136802, Note_on_c, 4, 52, 0
6, 136802, Note_on_c, 4, 64, 0
6, 136802, Note_on_c, 4, 52, 93
6, 136802, Note_on_c, 4, 64, 93
6, 136922, Note_on_c, 4, 64, 0
6, 136922, Note_on_c, 4, 52, 0
6, 136922, Note_on_c, 4, 64, 93
6, 136922, Note_on_c, 4, 52, 93
6, 137042, Note_on_c, 4, 52, 0
6, 137042, Note_on_c, 4, 64, 0
6, 137042, Note_on_c, 4, 59, 93
6, 137042, Note_on_c, 4, 71, 93
6, 137162, Note_on_c, 4, 71, 0
6, 137162, Note_on_c, 4, 59, 0
6, 137162, Note_on_c, 4, 71, 93
6, 137162, Note_on_c, 4, 59, 93
6, 137282, Note_on_c, 4, 59, 0
6, 137282, Note_on_c, 4, 71, 0
6, 137282, Note_on_c, 4, 59, 93
6, 137282, Note_on_c, 4, 71, 93
6, 137402, Note_on_c, 4, 71, 0
6, 137402, Note_on_c, 4, 59, 0
6, 137402, Note_on_c, 4, 71, 93
6, 137402, Note_on_c, 4, 59, 93
6, 137522, Note_on_c, 4, 59, 0
6, 137522, Note_on_c, 4, 71, 0
6, 137522, Note_on_c, 4, 71, 93
6, 137522, Note_on_c, 4, 59, 93
6, 137642, Note_on_c, 4, 59, 0
6, 137642, Note_on_c, 4, 71, 0
6, 137642, Note_on_c, 4, 59, 93
6, 137642, Note_on_c, 4, 71, 93
6, 137762, Note_on_c, 4, 71, 0
6, 137762, Note_on_c, 4, 59, 0
6, 137762, Note_on_c, 4, 59, 93
6, 137762, Note_on_c, 4, 71, 93
6, 137882, Note_on_c, 4, 71, 0
6, 137882, Note_on_c, 4, 59, 0
6, 137882, Note_on_c, 4, 71, 93
6, 137882, Note_on_c, 4, 59, 93
6, 138002, Note_on_c, 4, 59, 0
6, 138002, Note_on_c, 4, 71, 0
6, 138002, Note_on_c, 4, 71, 93
6, 138002, Note_on_c, 4, 59, 93
6, 138122, Note_on_c, 4, 59, 0
6, 138122, Note_on_c, 4, 71, 0
6, 138122, Note_on_c, 4, 59, 93
6, 138122, Note_on_c, 4, 71, 93
6, 138242, Note_on_c, 4, 71, 0
6, 138242, Note_on_c, 4, 59, 0
6, 138242, Note_on_c, 4, 64, 93
6, 138242, Note_on_c, 4, 52, 93
6, 138362, Note_on_c, 4, 52, 0
6, 138362, Note_on_c, 4, 64, 0
6, 138362, Note_on_c, 4, 52, 93
6, 138362, Note_on_c, 4, 64, 93
6, 138482, Note_on_c, 4, 64, 0
6, 138482, Note_on_c, 4, 52, 0
6, 138482, Note_on_c, 4, 64, 93
6, 138482, Note_on_c, 4, 52, 93
6, 138602, Note_on_c, 4, 52, 0
6, 138602, Note_on_c, 4, 64, 0
6, 138602, Note_on_c, 4, 52, 93
6, 138602, Note_on_c, 4, 64, 93
6, 138722, Note_on_c, 4, 64, 0
6, 138722, Note_on_c, 4, 52, 0
6, 138722, Note_on_c, 4, 64, 93
6, 138722, Note_on_c, 4, 52, 93
6, 138842, Note_on_c, 4, 52, 0
6, 138842, Note_on_c, 4, 64, 0
6, 138842, Note_on_c, 4, 64, 93
6, 138842, Note_on_c, 4, 52, 93
6, 138962, Note_on_c, 4, 52, 0
6, 138962, Note_on_c, 4, 64, 0
6, 138962, Note_on_c, 4, 64, 93
6, 138962, Note_on_c, 4, 52, 93
6, 139082, Note_on_c, 4, 52, 0
6, 139082, Note_on_c, 4, 64, 0
6, 139082, Note_on_c, 4, 64, 93
6, 139082, Note_on_c, 4, 52, 93
6, 139202, Note_on_c, 4, 52, 0
6, 139202, Note_on_c, 4, 64, 0
6, 139202, Note_on_c, 4, 52, 93
6, 139202, Note_on_c, 4, 64, 93
6, 139322, Note_on_c, 4, 64, 0
6, 139322, Note_on_c, 4, 52, 0
6, 139322, Note_on_c, 4, 52, 93
6, 139322, Note_on_c, 4, 64, 93
6, 139442, Note_on_c, 4, 64, 0
6, 139442, Note_on_c, 4, 52, 0
6, 139442, Note_on_c, 4, 64, 93
6, 139442, Note_on_c, 4, 52, 93
6, 139562, Note_on_c, 4, 52, 0
6, 139562, Note_on_c, 4, 64, 0
6, 139562, Note_on_c, 4, 64, 93
6, 139562, Note_on_c, 4, 52, 93
6, 139682, Note_on_c, 4, 52, 0
6, 139682, Note_on_c, 4, 64, 0
6, 139682, Note_on_c, 4, 52, 93
6, 139682, Note_on_c, 4, 64, 93
6, 139802, Note_on_c, 4, 64, 0
6, 139802, Note_on_c, 4, 52, 0
6, 139802, Note_on_c, 4, 52, 93
6, 139802, Note_on_c, 4, 64, 93
6, 139922, Note_on_c, 4, 64, 0
6, 139922, Note_on_c, 4, 52, 0
6, 139922, Note_on_c, 4, 71, 93
6, 139922, Note_on_c, 4, 59, 93
6, 140042, Note_on_c, 4, 59, 0
6, 140042, Note_on_c, 4, 71, 0
6, 140042, Note_on_c, 4, 71, 93
6, 140042, Note_on_c, 4, 59, 93
6, 140162, Note_on_c, 4, 59, 0
6, 140162, Note_on_c, 4, 71, 0
6, 140162, Note_on_c, 4, 59, 93
6, 140162, Note_on_c, 4, 71, 93
6, 140282, Note_on_c, 4, 71, 0
6, 140282, Note_on_c, 4, 59, 0
6, 140282, Note_on_c, 4, 71, 93
6, 140282, Note_on_c, 4, 59, 93
6, 140402, Note_on_c, 4, 59, 0
6, 140402, Note_on_c, 4, 71, 0
6, 140402, Note_on_c, 4, 59, 93
6, 140402, Note_on_c, 4, 71, 93
6, 140522, Note_on_c, 4, 71, 0
6, 140522, Note_on_c, 4, 59, 0
6, 140522, Note_on_c, 4, 71, 93
6, 140522, Note_on_c, 4, 59, 93
6, 140642, Note_on_c, 4, 59, 0
6, 140642, Note_on_c, 4, 71, 0
6, 140642, Note_on_c, 4, 59, 93
6, 140642, Note_on_c, 4, 71, 93
6, 140762, Note_on_c, 4, 71, 0
6, 140762, Note_on_c, 4, 59, 0
6, 140762, Note_on_c, 4, 71, 93
6, 140762, Note_on_c, 4, 59, 93
6, 140882, Note_on_c, 4, 59, 0
6, 140882, Note_on_c, 4, 71, 0
6, 140882, Note_on_c, 4, 71, 93
6, 140882, Note_on_c, 4, 59, 93
6, 141002, Note_on_c, 4, 59, 0
6, 141002, Note_on_c, 4, 71, 0
6, 141002, Note_on_c, 4, 59, 93
6, 141002, Note_on_c, 4, 71, 93
6, 141122, Note_on_c, 4, 71, 0
6, 141122, Note_on_c, 4, 59, 0
6, 141122, Note_on_c, 4, 52, 93
6, 141122, Note_on_c, 4, 64, 93
6, 141242, Note_on_c, 4, 64, 0
6, 141242, Note_on_c, 4, 52, 0
6, 141602, Control_c, 4, 11, 122
6, 141602, Note_on_c, 4, 52, 93
6, 141602, Note_on_c, 4, 64, 93
6, 141620, Control_c, 4, 11, 120
6, 141638, Control_c, 4, 11, 118
6, 141656, Control_c, 4, 11, 116
6, 141674, Control_c, 4, 11, 114
6, 141692, Control_c, 4, 11, 112
6, 141710, Control_c, 4, 11, 110
6, 141728, Control_c, 4, 11, 108
6, 141746, Control_c, 4, 11, 106
6, 141764, Control_c, 4, 11, 104
6, 141782, Note_on_c, 4, 64, 0
6, 141782, Note_on_c, 4, 52, 0
6, 141782, Control_c, 4, 11, 102
6, 141782, Note_on_c, 4, 47, 93
6, 141782, Note_on_c, 4, 59, 93
6, 141842, Note_on_c, 4, 59, 0
6, 141842, Note_on_c, 4, 47, 0
6, 141842, Note_on_c, 4, 59, 93
6, 141842, Note_on_c, 4, 47, 93
6, 141962, Note_on_c, 4, 47, 0
6, 141962, Note_on_c, 4, 59, 0
6, 142082, Note_on_c, 4, 68, 93
6, 142082, Note_on_c, 4, 56, 93
6, 142202, Note_on_c, 4, 56, 0
6, 142202, Note_on_c, 4, 68, 0
6, 142562, Control_c, 4, 11, 122
6, 142562, Note_on_c, 4, 56, 93
6, 142562, Note_on_c, 4, 68, 93
6, 142580, Control_c, 4, 11, 120
6, 142598, Control_c, 4, 11, 118
6, 142616, Control_c, 4, 11, 116
6, 142634, Control_c, 4, 11, 114
6, 142652, Control_c, 4, 11, 112
6, 142670, Control_c, 4, 11, 110
6, 142688, Control_c, 4, 11, 108
6, 142706, Control_c, 4, 11, 106
6, 142724, Control_c, 4, 11, 104
6, 142742, Note_on_c, 4, 68, 0
6, 142742, Note_on_c, 4, 56, 0
6, 142742, Control_c, 4, 11, 102
6, 142742, Note_on_c, 4, 52, 93
6, 142742, Note_on_c, 4, 64, 93
6, 142802, Note_on_c, 4, 64, 0
6, 142802, Note_on_c, 4, 52, 0
6, 142802, Note_on_c, 4, 52, 93
6, 142802, Note_on_c, 4, 64, 93
6, 142922, Note_on_c, 4, 64, 0
6, 142922, Note_on_c, 4, 52, 0
6, 143042, Note_on_c, 4, 59, 93
6, 143042, Note_on_c, 4, 71, 93
6, 143162, Note_on_c, 4, 71, 0
6, 143162, Note_on_c, 4, 59, 0
6, 143522, Control_c, 4, 11, 122
6, 143522, Note_on_c, 4, 59, 93
6, 143522, Note_on_c, 4, 71, 93
6, 143540, Control_c, 4, 11, 120
6, 143558, Control_c, 4, 11, 118
6, 143576, Control_c, 4, 11, 116
6, 143594, Control_c, 4, 11, 114
6, 143612, Control_c, 4, 11, 112
6, 143630, Control_c, 4, 11, 110
6, 143648, Control_c, 4, 11, 108
6, 143666, Control_c, 4, 11, 106
6, 143684, Control_c, 4, 11, 104
6, 143702, Note_on_c, 4, 71, 0
6, 143702, Note_on_c, 4, 59, 0
6, 143702, Control_c, 4, 11, 102
6, 143702, Note_on_c, 4, 56, 93
6, 143702, Note_on_c, 4, 68, 93
6, 143762, Note_on_c, 4, 68, 0
6, 143762, Note_on_c, 4, 56, 0
6, 143762, Note_on_c, 4, 56, 93
6, 143762, Note_on_c, 4, 68, 93
6, 143882, Note_on_c, 4, 68, 0
6, 143882, Note_on_c, 4, 56, 0
6, 144002, Note_on_c, 4, 64, 120
6, 144122, Note_on_c, 4, 64, 0
6, 144482, Control_c, 4, 11, 122
6, 144482, Note_on_c, 4, 64, 120
6, 144500, Control_c, 4, 11, 120
6, 144518, Control_c, 4, 11, 118
6, 144536, Control_c, 4, 11, 116
6, 144554, Control_c, 4, 11, 114
6, 144572, Control_c, 4, 11, 112
6, 144590, Control_c, 4, 11, 110
6, 144608, Control_c, 4, 11, 108
6, 144626, Control_c, 4, 11, 106
6, 144644, Control_c, 4, 11, 104
6, 144662, Note_on_c, 4, 64, 0
6, 144662, Control_c, 4, 11, 102
6, 144662, Note_on_c, 4, 59, 120
6, 144662, Note_on_c, 4, 71, 120
6, 144722, Note_on_c, 4, 71, 0
6, 144722, Note_on_c, 4, 59, 0
6, 144722, Note_on_c, 4, 71, 120
6, 144722, Note_on_c, 4, 59, 120
6, 144842, Note_on_c, 4, 59, 0
6, 144842, Note_on_c, 4, 71, 0
6, 144962, Note_on_c, 4, 64, 120
6, 145082, Note_on_c, 4, 64, 0
6, 145082, Note_on_c, 4, 71, 120
6, 145082, Note_on_c, 4, 59, 120
6, 145202, Note_on_c, 4, 59, 0
6, 145202, Note_on_c, 4, 71, 0
6, 145202, Note_on_c, 4, 64, 120
6, 145322, Note_on_c, 4, 64, 0
6, 145322, Note_on_c, 4, 71, 120
6, 145322, Note_on_c, 4, 59, 120
6, 145442, Note_on_c, 4, 59, 0
6, 145442, Note_on_c, 4, 71, 0
6, 145442, Note_on_c, 4, 64, 120
6, 145562, Note_on_c, 4, 64, 0
6, 145562, Note_on_c, 4, 59, 120
6, 145562, Note_on_c, 4, 71, 120
6, 145682, Note_on_c, 4, 71, 0
6, 145682, Note_on_c, 4, 59, 0
6, 145682, Note_on_c, 4, 64, 120
6, 145802, Note_on_c, 4, 64, 0
6, 145802, Note_on_c, 4, 59, 120
6, 145802, Note_on_c, 4, 71, 120
6, 145922, Note_on_c, 4, 71, 0
6, 145922, Note_on_c, 4, 59, 0
6, 145922, Note_on_c, 4, 64, 120
6, 146042, Note_on_c, 4, 64, 0
6, 146042, Note_on_c, 4, 59, 120
6, 146042, Note_on_c, 4, 71, 120
6, 146162, Note_on_c, 4, 71, 0
6, 146162, Note_on_c, 4, 59, 0
6, 146162, Note_on_c, 4, 64, 120
6, 146282, Note_on_c, 4, 64, 0
6, 146282, Note_on_c, 4, 71, 120
6, 146282, Note_on_c, 4, 59, 120
6, 146402, Note_on_c, 4, 59, 0
6, 146402, Note_on_c, 4, 71, 0
6, 146402, Note_on_c, 4, 64, 120
6, 146522, Note_on_c, 4, 64, 0
6, 146522, Note_on_c, 4, 59, 120
6, 146522, Note_on_c, 4, 71, 120
6, 146642, Note_on_c, 4, 71, 0
6, 146642, Note_on_c, 4, 59, 0
6, 146642, Note_on_c, 4, 64, 120
6, 146762, Note_on_c, 4, 64, 0
6, 146762, Note_on_c, 4, 59, 120
6, 146762, Note_on_c, 4, 71, 120
6, 146882, Note_on_c, 4, 71, 0
6, 146882, Note_on_c, 4, 59, 0
6, 146882, Note_on_c, 4, 64, 120
6, 147002, Note_on_c, 4, 64, 0
6, 147362, Note_on_c, 4, 52, 120
6, 147362, Note_on_c, 4, 64, 120
6, 147482, Note_on_c, 4, 64, 0
6, 147482, Note_on_c, 4, 52, 0
6, 147842, Note_on_c, 4, 52, 120
6, 147842, Note_on_c, 4, 64, 120
6, 147962, Note_on_c, 4, 64, 0
6, 147962, Note_on_c, 4, 52, 0
6, 148322, Control_c, 4, 121, 0
6, 148322, End_track
7, 0, Start_track
7, 0, MIDI_port, 0
7, 0, Title_t, "Corni III IV in E"
7, 0, Program_c, 5, 60
7, 0, Control_c, 5, 10, 28
7, 5, Control_c, 5, 121, 0
7, 10, Program_c, 5, 60
7, 15, Pitch_bend_c, 5, 8092
7, 20, Control_c, 5, 11, 102
7, 25, Control_c, 5, 7, 127
7, 30, Control_c, 5, 91, 80
7, 35, Control_c, 5, 93, 0
7, 485, Control_c, 5, 11, 87
7, 485, Note_on_c, 5, 64, 93
7, 485, Note_on_c, 5, 52, 93
7, 635, Note_on_c, 5, 52, 0
7, 635, Note_on_c, 5, 64, 0
7, 665, Note_on_c, 5, 59, 93
7, 665, Note_on_c, 5, 47, 93
7, 715, Note_on_c, 5, 47, 0
7, 715, Note_on_c, 5, 59, 0
7, 725, Note_on_c, 5, 47, 93
7, 725, Note_on_c, 5, 59, 93
7, 785, Note_on_c, 5, 59, 0
7, 785, Note_on_c, 5, 47, 0
7, 965, Control_c, 5, 11, 107
7, 965, Note_on_c, 5, 68, 93
7, 965, Note_on_c, 5, 56, 93
7, 983, Control_c, 5, 11, 104
7, 1001, Control_c, 5, 11, 101
7, 1019, Control_c, 5, 11, 98
7, 1037, Control_c, 5, 11, 95
7, 1055, Control_c, 5, 11, 92
7, 1073, Control_c, 5, 11, 89
7, 1115, Note_on_c, 5, 56, 0
7, 1115, Note_on_c, 5, 68, 0
7, 1145, Note_on_c, 5, 64, 93
7, 1145, Note_on_c, 5, 52, 93
7, 1195, Note_on_c, 5, 52, 0
7, 1195, Note_on_c, 5, 64, 0
7, 1205, Note_on_c, 5, 52, 93
7, 1205, Note_on_c, 5, 64, 93
7, 1265, Note_on_c, 5, 64, 0
7, 1265, Note_on_c, 5, 52, 0
7, 1445, Control_c, 5, 11, 107
7, 1445, Note_on_c, 5, 71, 93
7, 1445, Note_on_c, 5, 59, 93
7, 1463, Control_c, 5, 11, 104
7, 1481, Control_c, 5, 11, 101
7, 1499, Control_c, 5, 11, 98
7, 1517, Control_c, 5, 11, 95
7, 1535, Control_c, 5, 11, 92
7, 1553, Control_c, 5, 11, 89
7, 1595, Note_on_c, 5, 59, 0
7, 1595, Note_on_c, 5, 71, 0
7, 1625, Note_on_c, 5, 68, 93
7, 1625, Note_on_c, 5, 56, 93
7, 1675, Note_on_c, 5, 56, 0
7, 1675, Note_on_c, 5, 68, 0
7, 1685, Note_on_c, 5, 56, 93
7, 1685, Note_on_c, 5, 68, 93
7, 1745, Note_on_c, 5, 68, 0
7, 1745, Note_on_c, 5, 56, 0
7, 1805, Note_on_c, 5, 64, 93
7, 1805, Note_on_c, 5, 52, 93
7, 1865, Note_on_c, 5, 52, 0
7, 1865, Note_on_c, 5, 64, 0
7, 1925, Note_on_c, 5, 59, 93
7, 1925, Note_on_c, 5, 47, 93
7, 1985, Note_on_c, 5, 47, 0
7, 1985, Note_on_c, 5, 59, 0
7, 6245, Control_c, 5, 11, 87
7, 6245, Note_on_c, 5, 64, 73
7, 6245, Note_on_c, 5, 52, 73
7, 6395, Note_on_c, 5, 52, 0
7, 6395, Note_on_c, 5, 64, 0
7, 6425, Note_on_c, 5, 64, 73
7, 6425, Note_on_c, 5, 52, 73
7, 6475, Note_on_c, 5, 52, 0
7, 6475, Note_on_c, 5, 64, 0
7, 6485, Note_on_c, 5, 64, 73
7, 6485, Note_on_c, 5, 52, 73
7, 6545, Note_on_c, 5, 52, 0
7, 6545, Note_on_c, 5, 64, 0
7, 6725, Control_c, 5, 11, 107
7, 6725, Note_on_c, 5, 64, 73
7, 6725, Note_on_c, 5, 52, 73
7, 6743, Control_c, 5, 11, 104
7, 6761, Control_c, 5, 11, 101
7, 6779, Control_c, 5, 11, 98
7, 6797, Control_c, 5, 11, 95
7, 6815, Control_c, 5, 11, 92
7, 6833, Control_c, 5, 11, 89
7, 6875, Note_on_c, 5, 52, 0
7, 6875, Note_on_c, 5, 64, 0
7, 6905, Note_on_c, 5, 64, 73
7, 6905, Note_on_c, 5, 52, 73
7, 6955, Note_on_c, 5, 52, 0
7, 6955, Note_on_c, 5, 64, 0
7, 6965, Note_on_c, 5, 52, 73
7, 6965, Note_on_c, 5, 64, 73
7, 7025, Note_on_c, 5, 64, 0
7, 7025, Note_on_c, 5, 52, 0
7, 7205, Control_c, 5, 11, 107
7, 7205, Note_on_c, 5, 52, 73
7, 7205, Note_on_c, 5, 64, 73
7, 7223, Control_c, 5, 11, 104
7, 7241, Control_c, 5, 11, 101
7, 7259, Control_c, 5, 11, 98
7, 7277, Control_c, 5, 11, 95
7, 7295, Control_c, 5, 11, 92
7, 7313, Control_c, 5, 11, 89
7, 7355, Note_on_c, 5, 64, 0
7, 7355, Note_on_c, 5, 52, 0
7, 7385, Note_on_c, 5, 52, 73
7, 7385, Note_on_c, 5, 64, 73
7, 7435, Note_on_c, 5, 64, 0
7, 7435, Note_on_c, 5, 52, 0
7, 7445, Note_on_c, 5, 52, 73
7, 7445, Note_on_c, 5, 64, 73
7, 7505, Note_on_c, 5, 64, 0
7, 7505, Note_on_c, 5, 52, 0
7, 7565, Note_on_c, 5, 64, 73
7, 7565, Note_on_c, 5, 52, 73
7, 7625, Note_on_c, 5, 52, 0
7, 7625, Note_on_c, 5, 64, 0
7, 7685, Note_on_c, 5, 52, 73
7, 7685, Note_on_c, 5, 64, 73
7, 7745, Note_on_c, 5, 64, 0
7, 7745, Note_on_c, 5, 52, 0
7, 14885, Control_c, 5, 11, 63
7, 14885, Note_on_c, 5, 59, 93
7, 14885, Note_on_c, 5, 47, 93
7, 14958, Control_c, 5, 11, 64
7, 15032, Control_c, 5, 11, 65
7, 15106, Control_c, 5, 11, 66
7, 15180, Control_c, 5, 11, 67
7, 15254, Control_c, 5, 11, 68
7, 15328, Control_c, 5, 11, 69
7, 15401, Control_c, 5, 11, 70
7, 15475, Control_c, 5, 11, 71
7, 15549, Control_c, 5, 11, 72
7, 15623, Control_c, 5, 11, 73
7, 15697, Control_c, 5, 11, 74
7, 15771, Control_c, 5, 11, 75
7, 15845, Control_c, 5, 11, 76
7, 15918, Control_c, 5, 11, 77
7, 15992, Control_c, 5, 11, 78
7, 16066, Control_c, 5, 11, 79
7, 16140, Control_c, 5, 11, 80
7, 16214, Control_c, 5, 11, 81
7, 16288, Control_c, 5, 11, 82
7, 16361, Control_c, 5, 11, 83
7, 16435, Control_c, 5, 11, 84
7, 16509, Control_c, 5, 11, 85
7, 16583, Control_c, 5, 11, 86
7, 16657, Control_c, 5, 11, 87
7, 16731, Control_c, 5, 11, 88
7, 16805, Note_on_c, 5, 59, 0
7, 16805, Control_c, 5, 11, 89
7, 16805, Note_on_c, 5, 64, 93
7, 16878, Control_c, 5, 11, 90
7, 16952, Control_c, 5, 11, 91
7, 17026, Control_c, 5, 11, 92
7, 17100, Control_c, 5, 11, 93
7, 17174, Control_c, 5, 11, 94
7, 17248, Control_c, 5, 11, 95
7, 17321, Control_c, 5, 11, 96
7, 17395, Control_c, 5, 11, 97
7, 17469, Control_c, 5, 11, 98
7, 17543, Control_c, 5, 11, 99
7, 17617, Control_c, 5, 11, 100
7, 17691, Control_c, 5, 11, 101
7, 17765, Note_on_c, 5, 64, 0
7, 17765, Note_on_c, 5, 47, 0
7, 17765, Control_c, 5, 11, 102
7, 17765, Note_on_c, 5, 59, 93
7, 17765, Note_on_c, 5, 47, 93
7, 17825, Note_on_c, 5, 47, 0
7, 17825, Note_on_c, 5, 59, 0
7, 17885, Note_on_c, 5, 59, 93
7, 17885, Note_on_c, 5, 47, 93
7, 17945, Note_on_c, 5, 47, 0
7, 17945, Note_on_c, 5, 59, 0
7, 18005, Note_on_c, 5, 47, 93
7, 18005, Note_on_c, 5, 59, 93
7, 18065, Note_on_c, 5, 59, 0
7, 18065, Note_on_c, 5, 47, 0
7, 18125, Note_on_c, 5, 47, 93
7, 18125, Note_on_c, 5, 59, 93
7, 18185, Note_on_c, 5, 59, 0
7, 18185, Note_on_c, 5, 47, 0
7, 18245, Note_on_c, 5, 47, 93
7, 18245, Note_on_c, 5, 59, 93
7, 18305, Note_on_c, 5, 59, 0
7, 18305, Note_on_c, 5, 47, 0
7, 18365, Note_on_c, 5, 47, 93
7, 18365, Note_on_c, 5, 59, 93
7, 18425, Note_on_c, 5, 59, 0
7, 18425, Note_on_c, 5, 47, 0
7, 18485, Note_on_c, 5, 47, 93
7, 18485, Note_on_c, 5, 59, 93
7, 18545, Note_on_c, 5, 59, 0
7, 18545, Note_on_c, 5, 47, 0
7, 18605, Note_on_c, 5, 47, 93
7, 18605, Note_on_c, 5, 59, 93
7, 18665, Note_on_c, 5, 59, 0
7, 18665, Note_on_c, 5, 47, 0
7, 18725, Control_c, 5, 11, 47
7, 18725, Note_on_c, 5, 47, 73
7, 18725, Note_on_c, 5, 59, 73
7, 18785, Note_on_c, 5, 59, 0
7, 18785, Note_on_c, 5, 47, 0
7, 29045, Control_c, 5, 11, 47
7, 29045, Note_on_c, 5, 47, 93
7, 29045, Note_on_c, 5, 59, 93
7, 29285, Control_c, 5, 11, 47
7, 29320, Control_c, 5, 11, 48
7, 29356, Control_c, 5, 11, 49
7, 29392, Control_c, 5, 11, 50
7, 29428, Control_c, 5, 11, 51
7, 29464, Control_c, 5, 11, 52
7, 29500, Control_c, 5, 11, 53
7, 29536, Control_c, 5, 11, 54
7, 29572, Control_c, 5, 11, 55
7, 29608, Control_c, 5, 11, 56
7, 29644, Control_c, 5, 11, 57
7, 29680, Control_c, 5, 11, 58
7, 29716, Control_c, 5, 11, 59
7, 29752, Control_c, 5, 11, 60
7, 29788, Control_c, 5, 11, 61
7, 29824, Control_c, 5, 11, 62
7, 29860, Control_c, 5, 11, 63
7, 29896, Control_c, 5, 11, 64
7, 29932, Control_c, 5, 11, 65
7, 29968, Control_c, 5, 11, 66
7, 30004, Control_c, 5, 11, 67
7, 30040, Control_c, 5, 11, 68
7, 30076, Control_c, 5, 11, 69
7, 30112, Control_c, 5, 11, 70
7, 30148, Control_c, 5, 11, 71
7, 30184, Control_c, 5, 11, 72
7, 30220, Control_c, 5, 11, 73
7, 30256, Control_c, 5, 11, 74
7, 30292, Control_c, 5, 11, 75
7, 30328, Control_c, 5, 11, 76
7, 30355, Note_on_c, 5, 59, 0
7, 30355, Note_on_c, 5, 47, 0
7, 30364, Control_c, 5, 11, 77
7, 30365, Note_on_c, 5, 69, 93
7, 30365, Note_on_c, 5, 66, 93
7, 30400, Control_c, 5, 11, 78
7, 30436, Control_c, 5, 11, 79
7, 30472, Control_c, 5, 11, 80
7, 30485, Note_on_c, 5, 66, 0
7, 30485, Note_on_c, 5, 69, 0
7, 30485, Note_on_c, 5, 68, 93
7, 30485, Note_on_c, 5, 64, 93
7, 30508, Control_c, 5, 11, 81
7, 30544, Control_c, 5, 11, 82
7, 30580, Control_c, 5, 11, 83
7, 30605, Note_on_c, 5, 64, 0
7, 30605, Note_on_c, 5, 68, 0
7, 30605, Note_on_c, 5, 59, 93
7, 30605, Note_on_c, 5, 66, 93
7, 30616, Control_c, 5, 11, 84
7, 30652, Control_c, 5, 11, 85
7, 30688, Control_c, 5, 11, 86
7, 30715, Note_on_c, 5, 66, 0
7, 30715, Note_on_c, 5, 59, 0
7, 30724, Control_c, 5, 11, 87
7, 30725, Note_on_c, 5, 52, 93
7, 30725, Note_on_c, 5, 64, 93
7, 30845, Note_on_c, 5, 64, 0
7, 30845, Note_on_c, 5, 52, 0
7, 31205, Note_on_c, 5, 52, 93
7, 31205, Note_on_c, 5, 64, 93
7, 31325, Note_on_c, 5, 64, 0
7, 31325, Note_on_c, 5, 52, 0
7, 31685, Note_on_c, 5, 66, 93
7, 31685, Note_on_c, 5, 69, 93
7, 31805, Note_on_c, 5, 69, 0
7, 31805, Note_on_c, 5, 66, 0
7, 32045, Note_on_c, 5, 69, 93
7, 32045, Note_on_c, 5, 66, 93
7, 32165, Note_on_c, 5, 66, 0
7, 32165, Note_on_c, 5, 69, 0
7, 32165, Note_on_c, 5, 59, 93
7, 32165, Note_on_c, 5, 66, 93
7, 32285, Note_on_c, 5, 66, 0
7, 32285, Note_on_c, 5, 59, 0
7, 32405, Note_on_c, 5, 59, 93
7, 32405, Note_on_c, 5, 66, 93
7, 32525, Note_on_c, 5, 66, 0
7, 32525, Note_on_c, 5, 59, 0
7, 32645, Note_on_c, 5, 64, 93
7, 32645, Note_on_c, 5, 52, 93
7, 32765, Note_on_c, 5, 52, 0
7, 32765, Note_on_c, 5, 64, 0
7, 32765, Note_on_c, 5, 64, 93
7, 32765, Note_on_c, 5, 52, 93
7, 32885, Note_on_c, 5, 52, 0
7, 32885, Note_on_c, 5, 64, 0
7, 33125, Note_on_c, 5, 52, 93
7, 33125, Note_on_c, 5, 64, 93
7, 33245, Note_on_c, 5, 64, 0
7, 33245, Note_on_c, 5, 52, 0
7, 33245, Note_on_c, 5, 64, 93
7, 33245, Note_on_c, 5, 52, 93
7, 33365, Note_on_c, 5, 52, 0
7, 33365, Note_on_c, 5, 64, 0
7, 33605, Note_on_c, 5, 66, 93
7, 33605, Note_on_c, 5, 69, 93
7, 33725, Note_on_c, 5, 69, 0
7, 33725, Note_on_c, 5, 66, 0
7, 33725, Note_on_c, 5, 66, 93
7, 33725, Note_on_c, 5, 69, 93
7, 33845, Note_on_c, 5, 69, 0
7, 33845, Note_on_c, 5, 66, 0
7, 33965, Note_on_c, 5, 64, 93
7, 33965, Note_on_c, 5, 68, 93
7, 34085, Note_on_c, 5, 68, 0
7, 34085, Note_on_c, 5, 64, 0
7, 34085, Note_on_c, 5, 66, 93
7, 34085, Note_on_c, 5, 69, 93
7, 34205, Note_on_c, 5, 69, 0
7, 34205, Note_on_c, 5, 66, 0
7, 34205, Note_on_c, 5, 59, 93
7, 34205, Note_on_c, 5, 66, 93
7, 34325, Note_on_c, 5, 66, 0
7, 34325, Note_on_c, 5, 59, 0
7, 34325, Note_on_c, 5, 59, 93
7, 34325, Note_on_c, 5, 66, 93
7, 34445, Note_on_c, 5, 66, 0
7, 34445, Note_on_c, 5, 59, 0
7, 34445, Note_on_c, 5, 59, 93
7, 34445, Note_on_c, 5, 66, 93
7, 34565, Note_on_c, 5, 66, 0
7, 34565, Note_on_c, 5, 59, 0
7, 34565, Note_on_c, 5, 56, 93
7, 34565, Note_on_c, 5, 64, 93
7, 34685, Note_on_c, 5, 64, 0
7, 34685, Note_on_c, 5, 56, 0
7, 34805, Note_on_c, 5, 71, 93
7, 34805, Note_on_c, 5, 59, 93
7, 34925, Note_on_c, 5, 59, 0
7, 34925, Note_on_c, 5, 71, 0
7, 35045, Note_on_c, 5, 59, 93
7, 35045, Note_on_c, 5, 71, 93
7, 35165, Note_on_c, 5, 71, 0
7, 35165, Note_on_c, 5, 59, 0
7, 35285, Note_on_c, 5, 59, 93
7, 35285, Note_on_c, 5, 71, 93
7, 35405, Note_on_c, 5, 71, 0
7, 35405, Note_on_c, 5, 59, 0
7, 35525, Control_c, 5, 11, 107
7, 35525, Note_on_c, 5, 59, 93
7, 35525, Note_on_c, 5, 71, 93
7, 35543, Control_c, 5, 11, 104
7, 35561, Control_c, 5, 11, 101
7, 35579, Control_c, 5, 11, 98
7, 35597, Control_c, 5, 11, 95
7, 35615, Control_c, 5, 11, 92
7, 35633, Control_c, 5, 11, 89
7, 36485, Note_on_c, 5, 71, 0
7, 36485, Note_on_c, 5, 59, 0
7, 36485, Note_on_c, 5, 71, 93
7, 36485, Note_on_c, 5, 59, 93
7, 36605, Note_on_c, 5, 59, 0
7, 36605, Note_on_c, 5, 71, 0
7, 36725, Note_on_c, 5, 71, 93
7, 36725, Note_on_c, 5, 59, 93
7, 36845, Note_on_c, 5, 59, 0
7, 36845, Note_on_c, 5, 71, 0
7, 36965, Note_on_c, 5, 71, 93
7, 36965, Note_on_c, 5, 59, 93
7, 37085, Note_on_c, 5, 59, 0
7, 37085, Note_on_c, 5, 71, 0
7, 37205, Note_on_c, 5, 71, 93
7, 37205, Note_on_c, 5, 59, 93
7, 37325, Note_on_c, 5, 59, 0
7, 37325, Note_on_c, 5, 71, 0
7, 37445, Control_c, 5, 11, 107
7, 37445, Note_on_c, 5, 71, 93
7, 37445, Note_on_c, 5, 59, 93
7, 37463, Control_c, 5, 11, 104
7, 37481, Control_c, 5, 11, 101
7, 37499, Control_c, 5, 11, 98
7, 37517, Control_c, 5, 11, 95
7, 37535, Control_c, 5, 11, 92
7, 37553, Control_c, 5, 11, 89
7, 39005, Note_on_c, 5, 59, 0
7, 39005, Note_on_c, 5, 71, 0
7, 39005, Note_on_c, 5, 52, 93
7, 39005, Note_on_c, 5, 64, 93
7, 39125, Note_on_c, 5, 64, 0
7, 39125, Note_on_c, 5, 52, 0
7, 39125, Note_on_c, 5, 68, 93
7, 39125, Note_on_c, 5, 64, 93
7, 39245, Note_on_c, 5, 64, 0
7, 39245, Note_on_c, 5, 68, 0
7, 39245, Note_on_c, 5, 64, 93
7, 39245, Note_on_c, 5, 68, 93
7, 39365, Note_on_c, 5, 68, 0
7, 39365, Note_on_c, 5, 64, 0
7, 39365, Note_on_c, 5, 64, 83
7, 39365, Note_on_c, 5, 66, 83
7, 39485, Note_on_c, 5, 66, 0
7, 39485, Note_on_c, 5, 64, 0
7, 44765, Control_c, 5, 11, 47
7, 44765, Note_on_c, 5, 71, 93
7, 44765, Note_on_c, 5, 59, 93
7, 44885, Note_on_c, 5, 59, 0
7, 44885, Note_on_c, 5, 71, 0
7, 45005, Note_on_c, 5, 71, 93
7, 45005, Note_on_c, 5, 59, 93
7, 45125, Note_on_c, 5, 59, 0
7, 45125, Note_on_c, 5, 71, 0
7, 45125, Control_c, 5, 11, 47
7, 45125, Note_on_c, 5, 71, 93
7, 45125, Note_on_c, 5, 59, 93
7, 45149, Control_c, 5, 11, 48
7, 45173, Control_c, 5, 11, 49
7, 45197, Control_c, 5, 11, 50
7, 45221, Control_c, 5, 11, 51
7, 45245, Note_on_c, 5, 59, 0
7, 45245, Note_on_c, 5, 71, 0
7, 45245, Control_c, 5, 11, 52
7, 45245, Note_on_c, 5, 59, 93
7, 45245, Note_on_c, 5, 71, 93
7, 45269, Control_c, 5, 11, 53
7, 45293, Control_c, 5, 11, 54
7, 45317, Control_c, 5, 11, 55
7, 45341, Control_c, 5, 11, 56
7, 45365, Note_on_c, 5, 71, 0
7, 45365, Note_on_c, 5, 59, 0
7, 45365, Control_c, 5, 11, 57
7, 45389, Control_c, 5, 11, 58
7, 45413, Control_c, 5, 11, 59
7, 45437, Control_c, 5, 11, 60
7, 45461, Control_c, 5, 11, 61
7, 45485, Control_c, 5, 11, 62
7, 45485, Note_on_c, 5, 59, 93
7, 45485, Note_on_c, 5, 71, 93
7, 45509, Control_c, 5, 11, 63
7, 45533, Control_c, 5, 11, 64
7, 45557, Control_c, 5, 11, 65
7, 45581, Control_c, 5, 11, 66
7, 45605, Note_on_c, 5, 71, 0
7, 45605, Note_on_c, 5, 59, 0
7, 45605, Control_c, 5, 11, 67
7, 45605, Note_on_c, 5, 59, 93
7, 45605, Note_on_c, 5, 71, 93
7, 45629, Control_c, 5, 11, 68
7, 45653, Control_c, 5, 11, 69
7, 45677, Control_c, 5, 11, 70
7, 45701, Control_c, 5, 11, 71
7, 45725, Note_on_c, 5, 71, 0
7, 45725, Note_on_c, 5, 59, 0
7, 45725, Control_c, 5, 11, 72
7, 45725, Note_on_c, 5, 59, 93
7, 45725, Note_on_c, 5, 71, 93
7, 45749, Control_c, 5, 11, 73
7, 45773, Control_c, 5, 11, 74
7, 45797, Control_c, 5, 11, 75
7, 45821, Control_c, 5, 11, 76
7, 45845, Note_on_c, 5, 71, 0
7, 45845, Note_on_c, 5, 59, 0
7, 45845, Control_c, 5, 11, 77
7, 45869, Control_c, 5, 11, 78
7, 45893, Control_c, 5, 11, 79
7, 45917, Control_c, 5, 11, 80
7, 45941, Control_c, 5, 11, 81
7, 45965, Control_c, 5, 11, 82
7, 45965, Note_on_c, 5, 71, 93
7, 45965, Note_on_c, 5, 59, 93
7, 45989, Control_c, 5, 11, 83
7, 46013, Control_c, 5, 11, 84
7, 46037, Control_c, 5, 11, 85
7, 46061, Control_c, 5, 11, 86
7, 46085, Note_on_c, 5, 59, 0
7, 46085, Note_on_c, 5, 71, 0
7, 46085, Control_c, 5, 11, 87
7, 46085, Note_on_c, 5, 71, 93
7, 46085, Note_on_c, 5, 59, 93
7, 46205, Note_on_c, 5, 59, 0
7, 46205, Note_on_c, 5, 71, 0
7, 46205, Note_on_c, 5, 59, 93
7, 46205, Note_on_c, 5, 71, 93
7, 46265, Note_on_c, 5, 71, 0
7, 46265, Note_on_c, 5, 59, 0
7, 46265, Note_on_c, 5, 59, 93
7, 46265, Note_on_c, 5, 71, 93
7, 46325, Note_on_c, 5, 71, 0
7, 46325, Note_on_c, 5, 59, 0
7, 46325, Note_on_c, 5, 59, 93
7, 46325, Note_on_c, 5, 71, 93
7, 46445, Note_on_c, 5, 71, 0
7, 46445, Note_on_c, 5, 59, 0
7, 46445, Note_on_c, 5, 59, 93
7, 46445, Note_on_c, 5, 71, 93
7, 46505, Note_on_c, 5, 71, 0
7, 46505, Note_on_c, 5, 59, 0
7, 46505, Note_on_c, 5, 71, 93
7, 46505, Note_on_c, 5, 59, 93
7, 46565, Note_on_c, 5, 59, 0
7, 46565, Note_on_c, 5, 71, 0
7, 46565, Note_on_c, 5, 71, 93
7, 46565, Note_on_c, 5, 59, 93
7, 46685, Note_on_c, 5, 59, 0
7, 46685, Note_on_c, 5, 71, 0
7, 46685, Note_on_c, 5, 71, 93
7, 46685, Note_on_c, 5, 59, 93
7, 46745, Note_on_c, 5, 59, 0
7, 46745, Note_on_c, 5, 71, 0
7, 46745, Note_on_c, 5, 59, 93
7, 46745, Note_on_c, 5, 71, 93
7, 46805, Note_on_c, 5, 71, 0
7, 46805, Note_on_c, 5, 59, 0
7, 46805, Note_on_c, 5, 59, 93
7, 46805, Note_on_c, 5, 71, 93
7, 46925, Note_on_c, 5, 71, 0
7, 46925, Note_on_c, 5, 59, 0
7, 46925, Note_on_c, 5, 59, 93
7, 46925, Note_on_c, 5, 71, 93
7, 46985, Note_on_c, 5, 71, 0
7, 46985, Note_on_c, 5, 59, 0
7, 46985, Note_on_c, 5, 59, 93
7, 46985, Note_on_c, 5, 71, 93
7, 47045, Note_on_c, 5, 71, 0
7, 47045, Note_on_c, 5, 59, 0
7, 47045, Control_c, 5, 11, 102
7, 47045, Note_on_c, 5, 64, 93
7, 47045, Note_on_c, 5, 52, 93
7, 47525, Note_on_c, 5, 52, 0
7, 47525, Note_on_c, 5, 64, 0
7, 48005, Control_c, 5, 11, 122
7, 48005, Note_on_c, 5, 52, 93
7, 48005, Note_on_c, 5, 64, 93
7, 48023, Control_c, 5, 11, 119
7, 48041, Control_c, 5, 11, 116
7, 48059, Control_c, 5, 11, 113
7, 48077, Control_c, 5, 11, 110
7, 48095, Control_c, 5, 11, 107
7, 48113, Control_c, 5, 11, 104
7, 48485, Note_on_c, 5, 64, 0
7, 48485, Note_on_c, 5, 52, 0
7, 48965, Note_on_c, 5, 64, 93
7, 48965, Note_on_c, 5, 66, 93
7, 49925, Note_on_c, 5, 66, 0
7, 49925, Note_on_c, 5, 64, 0
7, 49925, Note_on_c, 5, 66, 93
7, 49925, Note_on_c, 5, 64, 93
7, 50045, Note_on_c, 5, 64, 0
7, 50045, Note_on_c, 5, 66, 0
7, 50405, Note_on_c, 5, 66, 93
7, 50405, Note_on_c, 5, 64, 93
7, 50525, Note_on_c, 5, 64, 0
7, 50525, Note_on_c, 5, 66, 0
7, 50885, Note_on_c, 5, 66, 93
7, 51005, Note_on_c, 5, 66, 0
7, 51125, Note_on_c, 5, 66, 93
7, 51245, Note_on_c, 5, 66, 0
7, 51365, Note_on_c, 5, 66, 93
7, 51485, Note_on_c, 5, 66, 0
7, 51605, Note_on_c, 5, 66, 93
7, 51725, Note_on_c, 5, 66, 0
7, 51845, Note_on_c, 5, 66, 93
7, 51965, Note_on_c, 5, 66, 0
7, 52085, Note_on_c, 5, 68, 93
7, 52085, Note_on_c, 5, 64, 93
7, 52205, Note_on_c, 5, 64, 0
7, 52205, Note_on_c, 5, 68, 0
7, 52325, Note_on_c, 5, 66, 93
7, 52445, Note_on_c, 5, 66, 0
7, 52445, Control_c, 5, 11, 122
7, 52445, Note_on_c, 5, 66, 93
7, 52463, Control_c, 5, 11, 119
7, 52481, Control_c, 5, 11, 116
7, 52499, Control_c, 5, 11, 113
7, 52517, Control_c, 5, 11, 110
7, 52535, Control_c, 5, 11, 107
7, 52553, Control_c, 5, 11, 104
7, 52565, Note_on_c, 5, 66, 0
7, 52565, Note_on_c, 5, 66, 93
7, 52685, Note_on_c, 5, 66, 0
7, 52685, Control_c, 5, 11, 122
7, 52685, Note_on_c, 5, 66, 93
7, 52694, Control_c, 5, 11, 119
7, 52703, Control_c, 5, 11, 116
7, 52712, Control_c, 5, 11, 113
7, 52721, Control_c, 5, 11, 110
7, 52730, Control_c, 5, 11, 107
7, 52739, Control_c, 5, 11, 104
7, 52748, Control_c, 5, 11, 101
7, 52757, Control_c, 5, 11, 98
7, 52766, Control_c, 5, 11, 95
7, 52775, Control_c, 5, 11, 92
7, 52784, Control_c, 5, 11, 89
7, 52793, Control_c, 5, 11, 86
7, 52802, Control_c, 5, 11, 83
7, 52805, Note_on_c, 5, 66, 0
7, 52805, Note_on_c, 5, 59, 83
7, 52805, Note_on_c, 5, 66, 83
7, 52817, Control_c, 5, 11, 80
7, 52835, Control_c, 5, 11, 77
7, 52853, Control_c, 5, 11, 74
7, 52871, Control_c, 5, 11, 71
7, 52889, Control_c, 5, 11, 68
7, 52907, Control_c, 5, 11, 65
7, 52925, Note_on_c, 5, 66, 0
7, 52925, Note_on_c, 5, 59, 0
7, 52925, Control_c, 5, 11, 62
7, 52925, Note_on_c, 5, 47, 93
7, 52925, Note_on_c, 5, 59, 93
7, 53165, Note_on_c, 5, 59, 0
7, 53165, Note_on_c, 5, 47, 0
7, 53405, Control_c, 5, 11, 47
7, 53405, Note_on_c, 5, 59, 93
7, 53405, Note_on_c, 5, 47, 93
7, 53645, Note_on_c, 5, 47, 0
7, 53645, Note_on_c, 5, 59, 0
7, 53885, Note_on_c, 5, 47, 93
7, 53885, Note_on_c, 5, 59, 93
7, 54125, Note_on_c, 5, 59, 0
7, 54125, Note_on_c, 5, 47, 0
7, 54365, Note_on_c, 5, 47, 93
7, 54365, Note_on_c, 5, 59, 93
7, 54605, Note_on_c, 5, 59, 0
7, 54605, Note_on_c, 5, 47, 0
7, 54605, Control_c, 5, 11, 87
7, 54605, Note_on_c, 5, 66, 93
7, 54845, Note_on_c, 5, 66, 0
7, 54845, Note_on_c, 5, 59, 93
7, 54845, Note_on_c, 5, 66, 93
7, 54905, Note_on_c, 5, 66, 0
7, 54905, Note_on_c, 5, 59, 0
7, 54905, Note_on_c, 5, 59, 93
7, 54905, Note_on_c, 5, 66, 93
7, 54965, Note_on_c, 5, 66, 0
7, 54965, Note_on_c, 5, 59, 0
7, 54965, Note_on_c, 5, 59, 93
7, 54965, Note_on_c, 5, 66, 93
7, 55085, Note_on_c, 5, 66, 0
7, 55085, Note_on_c, 5, 59, 0
7, 55205, Note_on_c, 5, 66, 93
7, 55205, Note_on_c, 5, 59, 93
7, 55325, Note_on_c, 5, 59, 0
7, 55325, Note_on_c, 5, 66, 0
7, 55325, Note_on_c, 5, 59, 93
7, 55325, Note_on_c, 5, 66, 93
7, 55385, Note_on_c, 5, 66, 0
7, 55385, Note_on_c, 5, 59, 0
7, 55385, Note_on_c, 5, 66, 93
7, 55385, Note_on_c, 5, 59, 93
7, 55445, Note_on_c, 5, 59, 0
7, 55445, Note_on_c, 5, 66, 0
7, 55445, Note_on_c, 5, 59, 93
7, 55445, Note_on_c, 5, 66, 93
7, 55565, Note_on_c, 5, 66, 0
7, 55565, Note_on_c, 5, 59, 0
7, 55685, Note_on_c, 5, 59, 93
7, 55685, Note_on_c, 5, 71, 93
7, 55805, Note_on_c, 5, 71, 0
7, 55805, Note_on_c, 5, 59, 0
7, 55805, Note_on_c, 5, 59, 93
7, 55805, Note_on_c, 5, 71, 93
7, 55865, Note_on_c, 5, 71, 0
7, 55865, Note_on_c, 5, 59, 0
7, 55865, Note_on_c, 5, 71, 93
7, 55865, Note_on_c, 5, 59, 93
7, 55925, Note_on_c, 5, 59, 0
7, 55925, Note_on_c, 5, 71, 0
7, 55925, Note_on_c, 5, 71, 93
7, 55925, Note_on_c, 5, 59, 93
7, 56045, Note_on_c, 5, 59, 0
7, 56045, Note_on_c, 5, 71, 0
7, 56045, Note_on_c, 5, 59, 93
7, 56045, Note_on_c, 5, 71, 93
7, 56105, Note_on_c, 5, 71, 0
7, 56105, Note_on_c, 5, 59, 0
7, 56105, Note_on_c, 5, 71, 93
7, 56105, Note_on_c, 5, 59, 93
7, 56165, Note_on_c, 5, 59, 0
7, 56165, Note_on_c, 5, 71, 0
7, 56165, Note_on_c, 5, 71, 93
7, 56165, Note_on_c, 5, 59, 93
7, 56285, Note_on_c, 5, 59, 0
7, 56285, Note_on_c, 5, 71, 0
7, 56285, Note_on_c, 5, 71, 93
7, 56285, Note_on_c, 5, 59, 93
7, 56345, Note_on_c, 5, 59, 0
7, 56345, Note_on_c, 5, 71, 0
7, 56345, Note_on_c, 5, 71, 93
7, 56345, Note_on_c, 5, 59, 93
7, 56405, Note_on_c, 5, 59, 0
7, 56405, Note_on_c, 5, 71, 0
7, 56405, Note_on_c, 5, 71, 93
7, 56405, Note_on_c, 5, 59, 93
7, 56525, Note_on_c, 5, 59, 0
7, 56525, Note_on_c, 5, 71, 0
7, 56525, Note_on_c, 5, 59, 93
7, 56525, Note_on_c, 5, 71, 93
7, 56585, Note_on_c, 5, 71, 0
7, 56585, Note_on_c, 5, 59, 0
7, 56585, Note_on_c, 5, 59, 93
7, 56585, Note_on_c, 5, 71, 93
7, 56645, Note_on_c, 5, 71, 0
7, 56645, Note_on_c, 5, 59, 0
7, 56645, Note_on_c, 5, 59, 88
7, 56645, Note_on_c, 5, 71, 88
7, 56765, Note_on_c, 5, 71, 0
7, 56765, Note_on_c, 5, 59, 0
7, 72485, Control_c, 5, 11, 47
7, 72485, Note_on_c, 5, 52, 78
7, 72485, Note_on_c, 5, 59, 78
7, 73445, Note_on_c, 5, 52, 0
7, 73445, Note_on_c, 5, 47, 78
7, 73925, Note_on_c, 5, 47, 0
7, 73925, Note_on_c, 5, 52, 78
7, 74165, Note_on_c, 5, 52, 0
7, 74165, Note_on_c, 5, 59, 0
7, 74165, Note_on_c, 5, 47, 78
7, 74165, Note_on_c, 5, 59, 78
7, 74405, Control_c, 5, 11, 47
7, 74464, Control_c, 5, 11, 48
7, 74524, Control_c, 5, 11, 49
7, 74584, Control_c, 5, 11, 50
7, 74644, Control_c, 5, 11, 51
7, 74704, Control_c, 5, 11, 52
7, 74764, Control_c, 5, 11, 53
7, 74824, Control_c, 5, 11, 54
7, 74884, Control_c, 5, 11, 55
7, 74944, Control_c, 5, 11, 56
7, 75004, Control_c, 5, 11, 57
7, 75064, Control_c, 5, 11, 58
7, 75124, Control_c, 5, 11, 59
7, 75184, Control_c, 5, 11, 60
7, 75244, Control_c, 5, 11, 61
7, 75304, Control_c, 5, 11, 62
7, 75364, Control_c, 5, 11, 63
7, 75424, Control_c, 5, 11, 64
7, 75484, Control_c, 5, 11, 65
7, 75544, Control_c, 5, 11, 66
7, 75604, Control_c, 5, 11, 67
7, 75664, Control_c, 5, 11, 68
7, 75724, Control_c, 5, 11, 69
7, 75784, Control_c, 5, 11, 70
7, 75844, Control_c, 5, 11, 71
7, 75904, Control_c, 5, 11, 72
7, 75964, Control_c, 5, 11, 73
7, 76024, Control_c, 5, 11, 74
7, 76084, Control_c, 5, 11, 75
7, 76144, Control_c, 5, 11, 76
7, 76204, Control_c, 5, 11, 77
7, 76264, Control_c, 5, 11, 78
7, 76324, Control_c, 5, 11, 79
7, 76384, Control_c, 5, 11, 80
7, 76444, Control_c, 5, 11, 81
7, 76504, Control_c, 5, 11, 82
7, 76564, Control_c, 5, 11, 83
7, 76624, Control_c, 5, 11, 84
7, 76684, Control_c, 5, 11, 85
7, 76744, Control_c, 5, 11, 86
7, 76804, Control_c, 5, 11, 87
7, 76805, Note_on_c, 5, 59, 0
7, 76805, Note_on_c, 5, 47, 0
7, 76805, Note_on_c, 5, 56, 93
7, 76805, Note_on_c, 5, 52, 93
7, 76925, Note_on_c, 5, 52, 0
7, 76925, Note_on_c, 5, 56, 0
7, 77285, Note_on_c, 5, 64, 93
7, 77285, Note_on_c, 5, 52, 93
7, 77405, Note_on_c, 5, 52, 0
7, 77405, Note_on_c, 5, 64, 0
7, 77765, Note_on_c, 5, 69, 93
7, 77765, Note_on_c, 5, 66, 93
7, 77885, Note_on_c, 5, 66, 0
7, 77885, Note_on_c, 5, 69, 0
7, 78125, Note_on_c, 5, 66, 93
7, 78125, Note_on_c, 5, 69, 93
7, 78245, Note_on_c, 5, 69, 0
7, 78245, Note_on_c, 5, 66, 0
7, 78245, Note_on_c, 5, 59, 93
7, 78245, Note_on_c, 5, 66, 93
7, 78365, Note_on_c, 5, 66, 0
7, 78365, Note_on_c, 5, 59, 0
7, 78485, Note_on_c, 5, 66, 93
7, 78485, Note_on_c, 5, 59, 93
7, 78605, Note_on_c, 5, 59, 0
7, 78605, Note_on_c, 5, 66, 0
7, 78725, Note_on_c, 5, 64, 93
7, 78725, Note_on_c, 5, 52, 93
7, 78845, Note_on_c, 5, 52, 0
7, 78845, Note_on_c, 5, 64, 0
7, 78845, Note_on_c, 5, 52, 93
7, 78845, Note_on_c, 5, 64, 93
7, 78965, Note_on_c, 5, 64, 0
7, 78965, Note_on_c, 5, 52, 0
7, 79205, Note_on_c, 5, 52, 93
7, 79205, Note_on_c, 5, 64, 93
7, 79325, Note_on_c, 5, 64, 0
7, 79325, Note_on_c, 5, 52, 0
7, 79325, Note_on_c, 5, 52, 93
7, 79325, Note_on_c, 5, 64, 93
7, 79445, Note_on_c, 5, 64, 0
7, 79445, Note_on_c, 5, 52, 0
7, 79685, Note_on_c, 5, 69, 93
7, 79685, Note_on_c, 5, 66, 93
7, 79805, Note_on_c, 5, 66, 0
7, 79805, Note_on_c, 5, 69, 0
7, 79805, Note_on_c, 5, 66, 93
7, 79805, Note_on_c, 5, 69, 93
7, 79925, Note_on_c, 5, 69, 0
7, 79925, Note_on_c, 5, 66, 0
7, 80045, Note_on_c, 5, 68, 93
7, 80045, Note_on_c, 5, 64, 93
7, 80165, Note_on_c, 5, 64, 0
7, 80165, Note_on_c, 5, 68, 0
7, 80165, Note_on_c, 5, 69, 93
7, 80165, Note_on_c, 5, 66, 93
7, 80285, Note_on_c, 5, 66, 0
7, 80285, Note_on_c, 5, 69, 0
7, 80285, Note_on_c, 5, 59, 93
7, 80285, Note_on_c, 5, 66, 93
7, 80405, Note_on_c, 5, 66, 0
7, 80405, Note_on_c, 5, 59, 0
7, 80405, Note_on_c, 5, 66, 93
7, 80405, Note_on_c, 5, 59, 93
7, 80525, Note_on_c, 5, 59, 0
7, 80525, Note_on_c, 5, 66, 0
7, 80525, Note_on_c, 5, 59, 93
7, 80525, Note_on_c, 5, 66, 93
7, 80645, Note_on_c, 5, 66, 0
7, 80645, Note_on_c, 5, 59, 0
7, 80645, Note_on_c, 5, 64, 93
7, 80645, Note_on_c, 5, 56, 93
7, 80765, Note_on_c, 5, 56, 0
7, 80765, Note_on_c, 5, 64, 0
7, 80885, Note_on_c, 5, 71, 93
7, 80885, Note_on_c, 5, 59, 93
7, 81005, Note_on_c, 5, 59, 0
7, 81005, Note_on_c, 5, 71, 0
7, 81125, Note_on_c, 5, 59, 93
7, 81125, Note_on_c, 5, 71, 93
7, 81245, Note_on_c, 5, 71, 0
7, 81245, Note_on_c, 5, 59, 0
7, 81365, Note_on_c, 5, 59, 93
7, 81365, Note_on_c, 5, 71, 93
7, 81485, Note_on_c, 5, 71, 0
7, 81485, Note_on_c, 5, 59, 0
7, 81605, Control_c, 5, 11, 107
7, 81605, Note_on_c, 5, 59, 93
7, 81605, Note_on_c, 5, 71, 93
7, 81623, Control_c, 5, 11, 104
7, 81641, Control_c, 5, 11, 101
7, 81659, Control_c, 5, 11, 98
7, 81677, Control_c, 5, 11, 95
7, 81695, Control_c, 5, 11, 92
7, 81713, Control_c, 5, 11, 89
7, 82565, Note_on_c, 5, 71, 0
7, 82565, Note_on_c, 5, 59, 0
7, 82565, Note_on_c, 5, 64, 93
7, 82565, Note_on_c, 5, 56, 93
7, 82685, Note_on_c, 5, 56, 0
7, 82685, Note_on_c, 5, 64, 0
7, 82805, Note_on_c, 5, 71, 93
7, 82805, Note_on_c, 5, 59, 93
7, 82925, Note_on_c, 5, 59, 0
7, 82925, Note_on_c, 5, 71, 0
7, 83045, Note_on_c, 5, 59, 93
7, 83045, Note_on_c, 5, 71, 93
7, 83165, Note_on_c, 5, 71, 0
7, 83165, Note_on_c, 5, 59, 0
7, 83285, Note_on_c, 5, 59, 93
7, 83285, Note_on_c, 5, 71, 93
7, 83405, Note_on_c, 5, 71, 0
7, 83405, Note_on_c, 5, 59, 0
7, 83525, Control_c, 5, 11, 107
7, 83525, Note_on_c, 5, 71, 93
7, 83525, Note_on_c, 5, 59, 93
7, 83543, Control_c, 5, 11, 104
7, 83561, Control_c, 5, 11, 101
7, 83579, Control_c, 5, 11, 98
7, 83597, Control_c, 5, 11, 95
7, 83615, Control_c, 5, 11, 92
7, 83633, Control_c, 5, 11, 89
7, 85445, Note_on_c, 5, 59, 0
7, 85445, Note_on_c, 5, 71, 0
7, 85445, Note_on_c, 5, 64, 93
7, 85445, Note_on_c, 5, 71, 93
7, 86165, Note_on_c, 5, 71, 0
7, 86165, Note_on_c, 5, 64, 0
7, 86165, Note_on_c, 5, 52, 93
7, 86165, Note_on_c, 5, 64, 93
7, 86225, Note_on_c, 5, 64, 0
7, 86225, Note_on_c, 5, 52, 0
7, 86225, Note_on_c, 5, 52, 93
7, 86225, Note_on_c, 5, 64, 93
7, 86285, Note_on_c, 5, 64, 0
7, 86285, Note_on_c, 5, 52, 0
7, 86285, Note_on_c, 5, 52, 93
7, 86285, Note_on_c, 5, 64, 93
7, 86345, Note_on_c, 5, 64, 0
7, 86345, Note_on_c, 5, 52, 0
7, 86345, Note_on_c, 5, 52, 93
7, 86345, Note_on_c, 5, 64, 93
7, 86405, Note_on_c, 5, 64, 0
7, 86405, Note_on_c, 5, 52, 0
7, 86405, Note_on_c, 5, 64, 74
7, 86405, Note_on_c, 5, 52, 74
7, 86525, Note_on_c, 5, 52, 0
7, 86525, Note_on_c, 5, 64, 0
7, 95045, Control_c, 5, 11, 87
7, 95045, Note_on_c, 5, 67, 93
7, 95165, Note_on_c, 5, 67, 0
7, 95165, Note_on_c, 5, 67, 93
7, 95225, Note_on_c, 5, 67, 0
7, 95225, Note_on_c, 5, 67, 93
7, 95285, Note_on_c, 5, 67, 0
7, 95285, Note_on_c, 5, 67, 93
7, 95405, Note_on_c, 5, 67, 0
7, 95405, Note_on_c, 5, 67, 93
7, 95465, Note_on_c, 5, 67, 0
7, 95465, Note_on_c, 5, 67, 93
7, 95525, Note_on_c, 5, 67, 0
7, 95525, Note_on_c, 5, 67, 93
7, 95645, Note_on_c, 5, 67, 0
7, 95645, Note_on_c, 5, 67, 93
7, 95705, Note_on_c, 5, 67, 0
7, 95705, Note_on_c, 5, 67, 93
7, 95765, Note_on_c, 5, 67, 0
7, 95765, Note_on_c, 5, 67, 93
7, 95885, Note_on_c, 5, 67, 0
7, 95885, Note_on_c, 5, 67, 93
7, 95945, Note_on_c, 5, 67, 0
7, 95945, Note_on_c, 5, 67, 93
7, 96005, Note_on_c, 5, 67, 0
7, 96005, Control_c, 5, 11, 102
7, 96005, Note_on_c, 5, 52, 93
7, 96005, Note_on_c, 5, 64, 93
7, 96485, Note_on_c, 5, 64, 0
7, 96485, Note_on_c, 5, 52, 0
7, 96965, Note_on_c, 5, 69, 93
7, 97445, Note_on_c, 5, 69, 0
7, 97445, Note_on_c, 5, 69, 93
7, 97925, Note_on_c, 5, 69, 0
7, 97925, Note_on_c, 5, 69, 93
7, 98885, Note_on_c, 5, 69, 0
7, 98885, Note_on_c, 5, 69, 93
7, 99005, Note_on_c, 5, 69, 0
7, 99245, Control_c, 5, 11, 122
7, 99245, Note_on_c, 5, 64, 93
7, 99263, Control_c, 5, 11, 119
7, 99281, Control_c, 5, 11, 116
7, 99299, Control_c, 5, 11, 113
7, 99317, Control_c, 5, 11, 110
7, 99335, Control_c, 5, 11, 107
7, 99353, Control_c, 5, 11, 104
7, 99365, Note_on_c, 5, 64, 0
7, 99365, Note_on_c, 5, 69, 93
7, 99485, Note_on_c, 5, 69, 0
7, 99725, Control_c, 5, 11, 122
7, 99725, Note_on_c, 5, 64, 93
7, 99743, Control_c, 5, 11, 119
7, 99761, Control_c, 5, 11, 116
7, 99779, Control_c, 5, 11, 113
7, 99797, Control_c, 5, 11, 110
7, 99815, Control_c, 5, 11, 107
7, 99833, Control_c, 5, 11, 104
7, 99845, Note_on_c, 5, 64, 0
7, 99845, Note_on_c, 5, 69, 93
7, 99965, Note_on_c, 5, 69, 0
7, 99965, Control_c, 5, 11, 122
7, 99965, Note_on_c, 5, 64, 93
7, 99983, Control_c, 5, 11, 119
7, 100001, Control_c, 5, 11, 116
7, 100019, Control_c, 5, 11, 113
7, 100037, Control_c, 5, 11, 110
7, 100055, Control_c, 5, 11, 107
7, 100073, Control_c, 5, 11, 104
7, 100085, Note_on_c, 5, 64, 0
7, 100085, Note_on_c, 5, 69, 93
7, 100205, Note_on_c, 5, 69, 0
7, 100205, Control_c, 5, 11, 122
7, 100205, Note_on_c, 5, 64, 93
7, 100223, Control_c, 5, 11, 119
7, 100241, Control_c, 5, 11, 116
7, 100259, Control_c, 5, 11, 113
7, 100277, Control_c, 5, 11, 110
7, 100295, Control_c, 5, 11, 107
7, 100313, Control_c, 5, 11, 104
7, 100325, Note_on_c, 5, 64, 0
7, 100325, Note_on_c, 5, 69, 93
7, 100445, Note_on_c, 5, 69, 0
7, 100445, Control_c, 5, 11, 122
7, 100445, Note_on_c, 5, 64, 93
7, 100463, Control_c, 5, 11, 119
7, 100481, Control_c, 5, 11, 116
7, 100499, Control_c, 5, 11, 113
7, 100517, Control_c, 5, 11, 110
7, 100535, Control_c, 5, 11, 107
7, 100553, Control_c, 5, 11, 104
7, 100565, Note_on_c, 5, 64, 0
7, 100565, Note_on_c, 5, 69, 93
7, 100685, Note_on_c, 5, 69, 0
7, 100685, Control_c, 5, 11, 122
7, 100685, Note_on_c, 5, 64, 93
7, 100703, Control_c, 5, 11, 119
7, 100721, Control_c, 5, 11, 116
7, 100739, Control_c, 5, 11, 113
7, 100757, Control_c, 5, 11, 110
7, 100775, Control_c, 5, 11, 107
7, 100793, Control_c, 5, 11, 104
7, 100805, Note_on_c, 5, 64, 0
7, 100805, Note_on_c, 5, 64, 93
7, 100805, Note_on_c, 5, 52, 93
7, 100925, Note_on_c, 5, 52, 0
7, 100925, Note_on_c, 5, 64, 0
7, 101285, Note_on_c, 5, 67, 93
7, 101405, Note_on_c, 5, 67, 0
7, 101405, Control_c, 5, 11, 122
7, 101405, Note_on_c, 5, 67, 93
7, 101423, Control_c, 5, 11, 119
7, 101441, Control_c, 5, 11, 116
7, 101459, Control_c, 5, 11, 113
7, 101477, Control_c, 5, 11, 110
7, 101495, Control_c, 5, 11, 107
7, 101513, Control_c, 5, 11, 104
7, 101525, Note_on_c, 5, 67, 0
7, 101525, Note_on_c, 5, 67, 93
7, 101645, Note_on_c, 5, 67, 0
7, 101645, Control_c, 5, 11, 122
7, 101645, Note_on_c, 5, 67, 93
7, 101663, Control_c, 5, 11, 119
7, 101681, Control_c, 5, 11, 116
7, 101699, Control_c, 5, 11, 113
7, 101717, Control_c, 5, 11, 110
7, 101735, Control_c, 5, 11, 107
7, 101753, Control_c, 5, 11, 104
7, 101765, Note_on_c, 5, 67, 0
7, 101765, Note_on_c, 5, 52, 93
7, 101765, Note_on_c, 5, 64, 93
7, 101885, Note_on_c, 5, 64, 0
7, 101885, Note_on_c, 5, 52, 0
7, 102245, Control_c, 5, 11, 87
7, 102245, Note_on_c, 5, 64, 93
7, 102245, Note_on_c, 5, 52, 93
7, 102365, Note_on_c, 5, 52, 0
7, 102365, Note_on_c, 5, 64, 0
7, 102725, Note_on_c, 5, 52, 93
7, 102725, Note_on_c, 5, 64, 93
7, 102845, Note_on_c, 5, 64, 0
7, 102845, Note_on_c, 5, 52, 0
7, 103205, Note_on_c, 5, 52, 93
7, 103205, Note_on_c, 5, 64, 93
7, 103325, Note_on_c, 5, 64, 0
7, 103325, Note_on_c, 5, 52, 0
7, 103685, Note_on_c, 5, 67, 93
7, 103805, Note_on_c, 5, 67, 0
7, 103805, Note_on_c, 5, 67, 93
7, 103865, Note_on_c, 5, 67, 0
7, 103865, Note_on_c, 5, 67, 93
7, 103925, Note_on_c, 5, 67, 0
7, 103925, Note_on_c, 5, 67, 93
7, 104045, Note_on_c, 5, 67, 0
7, 104165, Note_on_c, 5, 67, 93
7, 104285, Note_on_c, 5, 67, 0
7, 104285, Note_on_c, 5, 67, 93
7, 104345, Note_on_c, 5, 67, 0
7, 104345, Note_on_c, 5, 67, 93
7, 104405, Note_on_c, 5, 67, 0
7, 104405, Note_on_c, 5, 67, 93
7, 104525, Note_on_c, 5, 67, 0
7, 104645, Note_on_c, 5, 67, 93
7, 104765, Note_on_c, 5, 67, 0
7, 104765, Note_on_c, 5, 67, 93
7, 104825, Note_on_c, 5, 67, 0
7, 104825, Note_on_c, 5, 67, 93
7, 104885, Note_on_c, 5, 67, 0
7, 104885, Note_on_c, 5, 67, 93
7, 105005, Note_on_c, 5, 67, 0
7, 105125, Note_on_c, 5, 67, 93
7, 105245, Note_on_c, 5, 67, 0
7, 105245, Note_on_c, 5, 67, 93
7, 105305, Note_on_c, 5, 67, 0
7, 105305, Note_on_c, 5, 67, 93
7, 105365, Note_on_c, 5, 67, 0
7, 105365, Note_on_c, 5, 67, 93
7, 105485, Note_on_c, 5, 67, 0
7, 105605, Note_on_c, 5, 64, 93
7, 105605, Note_on_c, 5, 52, 93
7, 105725, Note_on_c, 5, 52, 0
7, 105725, Note_on_c, 5, 64, 0
7, 105725, Note_on_c, 5, 52, 93
7, 105725, Note_on_c, 5, 64, 93
7, 105785, Note_on_c, 5, 64, 0
7, 105785, Note_on_c, 5, 52, 0
7, 105785, Note_on_c, 5, 64, 93
7, 105785, Note_on_c, 5, 52, 93
7, 105845, Note_on_c, 5, 52, 0
7, 105845, Note_on_c, 5, 64, 0
7, 105845, Note_on_c, 5, 52, 93
7, 105845, Note_on_c, 5, 64, 93
7, 105965, Note_on_c, 5, 64, 0
7, 105965, Note_on_c, 5, 52, 0
7, 105965, Note_on_c, 5, 52, 93
7, 105965, Note_on_c, 5, 64, 93
7, 106025, Note_on_c, 5, 64, 0
7, 106025, Note_on_c, 5, 52, 0
7, 106025, Note_on_c, 5, 64, 93
7, 106025, Note_on_c, 5, 52, 93
7, 106085, Note_on_c, 5, 52, 0
7, 106085, Note_on_c, 5, 64, 0
7, 106085, Note_on_c, 5, 64, 93
7, 106085, Note_on_c, 5, 52, 93
7, 106205, Note_on_c, 5, 52, 0
7, 106205, Note_on_c, 5, 64, 0
7, 106205, Note_on_c, 5, 52, 93
7, 106205, Note_on_c, 5, 64, 93
7, 106265, Note_on_c, 5, 64, 0
7, 106265, Note_on_c, 5, 52, 0
7, 106265, Note_on_c, 5, 52, 93
7, 106265, Note_on_c, 5, 64, 93
7, 106325, Note_on_c, 5, 64, 0
7, 106325, Note_on_c, 5, 52, 0
7, 106325, Note_on_c, 5, 64, 93
7, 106325, Note_on_c, 5, 52, 93
7, 106445, Note_on_c, 5, 52, 0
7, 106445, Note_on_c, 5, 64, 0
7, 106445, Note_on_c, 5, 52, 93
7, 106445, Note_on_c, 5, 64, 93
7, 106505, Note_on_c, 5, 64, 0
7, 106505, Note_on_c, 5, 52, 0
7, 106505, Note_on_c, 5, 64, 93
7, 106505, Note_on_c, 5, 52, 93
7, 106565, Note_on_c, 5, 52, 0
7, 106565, Note_on_c, 5, 64, 0
7, 106565, Note_on_c, 5, 47, 75
7, 106565, Note_on_c, 5, 59, 75
7, 106685, Note_on_c, 5, 59, 0
7, 106685, Note_on_c, 5, 47, 0
7, 106925, Note_on_c, 5, 66, 75
7, 107165, Note_on_c, 5, 66, 0
7, 107405, Note_on_c, 5, 66, 75
7, 107645, Note_on_c, 5, 66, 0
7, 107885, Note_on_c, 5, 66, 75
7, 108125, Note_on_c, 5, 66, 0
7, 108365, Note_on_c, 5, 66, 75
7, 108605, Note_on_c, 5, 66, 0
7, 108605, Note_on_c, 5, 59, 75
7, 108605, Note_on_c, 5, 47, 75
7, 108665, Note_on_c, 5, 47, 0
7, 108665, Note_on_c, 5, 59, 0
7, 108665, Note_on_c, 5, 59, 75
7, 108665, Note_on_c, 5, 47, 75
7, 108725, Note_on_c, 5, 47, 0
7, 108725, Note_on_c, 5, 59, 0
7, 108725, Note_on_c, 5, 59, 75
7, 108725, Note_on_c, 5, 47, 75
7, 108845, Note_on_c, 5, 47, 0
7, 108845, Note_on_c, 5, 59, 0
7, 108845, Note_on_c, 5, 59, 75
7, 108845, Note_on_c, 5, 47, 75
7, 108905, Note_on_c, 5, 47, 0
7, 108905, Note_on_c, 5, 59, 0
7, 108905, Note_on_c, 5, 59, 75
7, 108905, Note_on_c, 5, 47, 75
7, 108965, Note_on_c, 5, 47, 0
7, 108965, Note_on_c, 5, 59, 0
7, 108965, Note_on_c, 5, 47, 75
7, 108965, Note_on_c, 5, 59, 75
7, 109085, Note_on_c, 5, 59, 0
7, 109085, Note_on_c, 5, 47, 0
7, 109085, Note_on_c, 5, 59, 75
7, 109085, Note_on_c, 5, 47, 75
7, 109145, Note_on_c, 5, 47, 0
7, 109145, Note_on_c, 5, 59, 0
7, 109145, Note_on_c, 5, 59, 75
7, 109145, Note_on_c, 5, 47, 75
7, 109205, Note_on_c, 5, 47, 0
7, 109205, Note_on_c, 5, 59, 0
7, 109205, Note_on_c, 5, 59, 75
7, 109205, Note_on_c, 5, 47, 75
7, 109325, Note_on_c, 5, 47, 0
7, 109325, Note_on_c, 5, 59, 0
7, 109325, Note_on_c, 5, 47, 75
7, 109325, Note_on_c, 5, 59, 75
7, 109385, Note_on_c, 5, 59, 0
7, 109385, Note_on_c, 5, 47, 0
7, 109385, Note_on_c, 5, 59, 75
7, 109385, Note_on_c, 5, 47, 75
7, 109445, Note_on_c, 5, 47, 0
7, 109445, Note_on_c, 5, 59, 0
7, 109445, Note_on_c, 5, 47, 75
7, 109445, Note_on_c, 5, 59, 75
7, 109565, Note_on_c, 5, 59, 0
7, 109565, Note_on_c, 5, 47, 0
7, 109565, Note_on_c, 5, 47, 75
7, 109565, Note_on_c, 5, 59, 75
7, 109625, Note_on_c, 5, 59, 0
7, 109625, Note_on_c, 5, 47, 0
7, 109625, Note_on_c, 5, 59, 75
7, 109625, Note_on_c, 5, 47, 75
7, 109685, Note_on_c, 5, 47, 0
7, 109685, Note_on_c, 5, 59, 0
7, 109685, Note_on_c, 5, 59, 75
7, 109685, Note_on_c, 5, 47, 75
7, 109805, Note_on_c, 5, 47, 0
7, 109805, Note_on_c, 5, 59, 0
7, 109805, Note_on_c, 5, 47, 75
7, 109805, Note_on_c, 5, 59, 75
7, 109865, Note_on_c, 5, 59, 0
7, 109865, Note_on_c, 5, 47, 0
7, 109865, Note_on_c, 5, 47, 75
7, 109865, Note_on_c, 5, 59, 75
7, 109925, Note_on_c, 5, 59, 0
7, 109925, Note_on_c, 5, 47, 0
7, 109925, Note_on_c, 5, 59, 75
7, 109925, Note_on_c, 5, 47, 75
7, 110045, Note_on_c, 5, 47, 0
7, 110045, Note_on_c, 5, 59, 0
7, 110045, Note_on_c, 5, 47, 75
7, 110045, Note_on_c, 5, 59, 75
7, 110105, Note_on_c, 5, 59, 0
7, 110105, Note_on_c, 5, 47, 0
7, 110105, Note_on_c, 5, 59, 75
7, 110105, Note_on_c, 5, 47, 75
7, 110165, Note_on_c, 5, 47, 0
7, 110165, Note_on_c, 5, 59, 0
7, 110165, Note_on_c, 5, 59, 75
7, 110165, Note_on_c, 5, 47, 75
7, 110285, Note_on_c, 5, 47, 0
7, 110285, Note_on_c, 5, 59, 0
7, 110285, Note_on_c, 5, 59, 75
7, 110285, Note_on_c, 5, 47, 75
7, 110345, Note_on_c, 5, 47, 0
7, 110345, Note_on_c, 5, 59, 0
7, 110345, Note_on_c, 5, 59, 75
7, 110345, Note_on_c, 5, 47, 75
7, 110405, Note_on_c, 5, 47, 0
7, 110405, Note_on_c, 5, 59, 0
7, 110405, Control_c, 5, 11, 102
7, 110405, Note_on_c, 5, 59, 75
7, 110405, Note_on_c, 5, 47, 75
7, 110525, Note_on_c, 5, 47, 0
7, 110525, Note_on_c, 5, 59, 0
7, 110525, Note_on_c, 5, 59, 75
7, 110525, Note_on_c, 5, 47, 75
7, 110585, Note_on_c, 5, 47, 0
7, 110585, Note_on_c, 5, 59, 0
7, 110585, Note_on_c, 5, 47, 75
7, 110585, Note_on_c, 5, 59, 75
7, 110645, Note_on_c, 5, 59, 0
7, 110645, Note_on_c, 5, 47, 0
7, 110645, Note_on_c, 5, 59, 75
7, 110645, Note_on_c, 5, 47, 75
7, 110765, Note_on_c, 5, 47, 0
7, 110765, Note_on_c, 5, 59, 0
7, 110765, Note_on_c, 5, 59, 75
7, 110765, Note_on_c, 5, 47, 75
7, 110825, Note_on_c, 5, 47, 0
7, 110825, Note_on_c, 5, 59, 0
7, 110825, Note_on_c, 5, 59, 75
7, 110825, Note_on_c, 5, 47, 75
7, 110885, Note_on_c, 5, 47, 0
7, 110885, Note_on_c, 5, 59, 0
7, 110885, Note_on_c, 5, 47, 75
7, 110885, Note_on_c, 5, 59, 75
7, 111005, Note_on_c, 5, 59, 0
7, 111005, Note_on_c, 5, 47, 0
7, 111005, Note_on_c, 5, 47, 75
7, 111005, Note_on_c, 5, 59, 75
7, 111065, Note_on_c, 5, 59, 0
7, 111065, Note_on_c, 5, 47, 0
7, 111065, Note_on_c, 5, 59, 75
7, 111065, Note_on_c, 5, 47, 75
7, 111125, Note_on_c, 5, 47, 0
7, 111125, Note_on_c, 5, 59, 0
7, 111125, Note_on_c, 5, 59, 75
7, 111125, Note_on_c, 5, 47, 75
7, 111245, Note_on_c, 5, 47, 0
7, 111245, Note_on_c, 5, 59, 0
7, 111245, Note_on_c, 5, 47, 75
7, 111245, Note_on_c, 5, 59, 75
7, 111305, Note_on_c, 5, 59, 0
7, 111305, Note_on_c, 5, 47, 0
7, 111305, Note_on_c, 5, 47, 75
7, 111305, Note_on_c, 5, 59, 75
7, 111365, Note_on_c, 5, 59, 0
7, 111365, Note_on_c, 5, 47, 0
7, 111365, Note_on_c, 5, 59, 75
7, 111485, Note_on_c, 5, 59, 0
7, 111485, Note_on_c, 5, 59, 75
7, 111545, Note_on_c, 5, 59, 0
7, 111545, Note_on_c, 5, 59, 75
7, 111605, Note_on_c, 5, 59, 0
7, 111605, Note_on_c, 5, 59, 75
7, 111665, Note_on_c, 5, 59, 0
7, 111725, Note_on_c, 5, 64, 75
7, 111725, Note_on_c, 5, 68, 75
7, 111785, Note_on_c, 5, 68, 0
7, 111785, Note_on_c, 5, 64, 0
7, 111845, Note_on_c, 5, 59, 75
7, 111845, Note_on_c, 5, 66, 75
7, 111905, Note_on_c, 5, 66, 0
7, 111905, Note_on_c, 5, 59, 0
7, 118085, Control_c, 5, 11, 27
7, 118085, Note_on_c, 5, 66, 75
7, 118085, Note_on_c, 5, 69, 75
7, 118091, Control_c, 5, 11, 30
7, 118097, Control_c, 5, 11, 33
7, 118103, Control_c, 5, 11, 36
7, 118109, Control_c, 5, 11, 39
7, 118115, Control_c, 5, 11, 42
7, 118121, Control_c, 5, 11, 45
7, 118565, Note_on_c, 5, 69, 0
7, 118565, Note_on_c, 5, 66, 0
7, 118565, Note_on_c, 5, 59, 75
7, 118565, Note_on_c, 5, 66, 75
7, 118995, Control_c, 5, 11, 47
7, 118998, Control_c, 5, 11, 44
7, 119001, Control_c, 5, 11, 41
7, 119004, Control_c, 5, 11, 38
7, 119007, Control_c, 5, 11, 35
7, 119010, Control_c, 5, 11, 32
7, 119013, Control_c, 5, 11, 29
7, 119015, Note_on_c, 5, 66, 0
7, 119015, Note_on_c, 5, 59, 0
7, 123845, Control_c, 5, 11, 87
7, 123845, Note_on_c, 5, 52, 93
7, 123845, Note_on_c, 5, 64, 93
7, 124025, Note_on_c, 5, 64, 0
7, 124025, Note_on_c, 5, 52, 0
7, 124025, Note_on_c, 5, 47, 93
7, 124025, Note_on_c, 5, 59, 93
7, 124085, Note_on_c, 5, 59, 0
7, 124085, Note_on_c, 5, 47, 0
7, 124085, Note_on_c, 5, 59, 93
7, 124085, Note_on_c, 5, 47, 93
7, 124205, Note_on_c, 5, 47, 0
7, 124205, Note_on_c, 5, 59, 0
7, 124325, Control_c, 5, 11, 107
7, 124325, Note_on_c, 5, 64, 93
7, 124325, Note_on_c, 5, 52, 93
7, 124343, Control_c, 5, 11, 105
7, 124361, Control_c, 5, 11, 103
7, 124379, Control_c, 5, 11, 101
7, 124397, Control_c, 5, 11, 99
7, 124415, Control_c, 5, 11, 97
7, 124433, Control_c, 5, 11, 95
7, 124451, Control_c, 5, 11, 93
7, 124469, Control_c, 5, 11, 91
7, 124487, Control_c, 5, 11, 89
7, 124505, Note_on_c, 5, 52, 0
7, 124505, Note_on_c, 5, 64, 0
7, 124505, Control_c, 5, 11, 87
7, 124505, Note_on_c, 5, 47, 93
7, 124505, Note_on_c, 5, 59, 93
7, 124565, Note_on_c, 5, 59, 0
7, 124565, Note_on_c, 5, 47, 0
7, 124565, Note_on_c, 5, 47, 93
7, 124565, Note_on_c, 5, 59, 93
7, 124685, Note_on_c, 5, 59, 0
7, 124685, Note_on_c, 5, 47, 0
7, 124805, Control_c, 5, 11, 107
7, 124805, Note_on_c, 5, 66, 93
7, 124823, Control_c, 5, 11, 105
7, 124841, Control_c, 5, 11, 103
7, 124859, Control_c, 5, 11, 101
7, 124877, Control_c, 5, 11, 99
7, 124895, Control_c, 5, 11, 97
7, 124913, Control_c, 5, 11, 95
7, 124931, Control_c, 5, 11, 93
7, 124949, Control_c, 5, 11, 91
7, 124967, Control_c, 5, 11, 89
7, 124985, Note_on_c, 5, 66, 0
7, 124985, Control_c, 5, 11, 87
7, 124985, Note_on_c, 5, 47, 93
7, 124985, Note_on_c, 5, 59, 93
7, 125045, Note_on_c, 5, 59, 0
7, 125045, Note_on_c, 5, 47, 0
7, 125045, Note_on_c, 5, 47, 93
7, 125045, Note_on_c, 5, 59, 93
7, 125165, Note_on_c, 5, 59, 0
7, 125165, Note_on_c, 5, 47, 0
7, 125285, Control_c, 5, 11, 47
7, 125285, Note_on_c, 5, 71, 93
7, 125441, Control_c, 5, 11, 48
7, 125465, Note_on_c, 5, 71, 0
7, 125465, Note_on_c, 5, 59, 93
7, 125465, Note_on_c, 5, 47, 93
7, 125525, Note_on_c, 5, 47, 0
7, 125525, Note_on_c, 5, 59, 0
7, 125525, Note_on_c, 5, 59, 93
7, 125525, Note_on_c, 5, 47, 93
7, 125597, Control_c, 5, 11, 49
7, 125645, Note_on_c, 5, 47, 0
7, 125645, Note_on_c, 5, 59, 0
7, 125753, Control_c, 5, 11, 50
7, 125765, Note_on_c, 5, 64, 93
7, 125909, Control_c, 5, 11, 51
7, 125945, Note_on_c, 5, 64, 0
7, 125945, Note_on_c, 5, 59, 93
7, 126005, Note_on_c, 5, 59, 0
7, 126005, Note_on_c, 5, 59, 93
7, 126065, Control_c, 5, 11, 52
7, 126125, Note_on_c, 5, 59, 0
7, 126221, Control_c, 5, 11, 53
7, 126245, Note_on_c, 5, 64, 93
7, 126377, Control_c, 5, 11, 54
7, 126425, Note_on_c, 5, 64, 0
7, 126425, Note_on_c, 5, 59, 93
7, 126485, Note_on_c, 5, 59, 0
7, 126485, Note_on_c, 5, 59, 93
7, 126533, Control_c, 5, 11, 55
7, 126605, Note_on_c, 5, 59, 0
7, 126689, Control_c, 5, 11, 56
7, 126725, Note_on_c, 5, 66, 93
7, 126845, Control_c, 5, 11, 57
7, 126905, Note_on_c, 5, 66, 0
7, 126905, Note_on_c, 5, 59, 93
7, 126965, Note_on_c, 5, 59, 0
7, 126965, Note_on_c, 5, 59, 93
7, 127001, Control_c, 5, 11, 58
7, 127085, Note_on_c, 5, 59, 0
7, 127157, Control_c, 5, 11, 59
7, 127205, Note_on_c, 5, 71, 108
7, 127313, Control_c, 5, 11, 60
7, 127385, Note_on_c, 5, 71, 0
7, 127385, Note_on_c, 5, 59, 93
7, 127445, Note_on_c, 5, 59, 0
7, 127445, Note_on_c, 5, 59, 93
7, 127469, Control_c, 5, 11, 61
7, 127565, Note_on_c, 5, 59, 0
7, 127625, Control_c, 5, 11, 62
7, 127685, Note_on_c, 5, 64, 93
7, 127781, Control_c, 5, 11, 63
7, 127865, Note_on_c, 5, 64, 0
7, 127865, Note_on_c, 5, 64, 93
7, 127925, Note_on_c, 5, 64, 0
7, 127925, Note_on_c, 5, 64, 93
7, 127937, Control_c, 5, 11, 64
7, 128045, Note_on_c, 5, 64, 0
7, 128093, Control_c, 5, 11, 65
7, 128165, Note_on_c, 5, 64, 93
7, 128249, Control_c, 5, 11, 66
7, 128345, Note_on_c, 5, 64, 0
7, 128345, Note_on_c, 5, 64, 93
7, 128405, Note_on_c, 5, 64, 0
7, 128405, Control_c, 5, 11, 67
7, 128405, Note_on_c, 5, 64, 93
7, 128525, Note_on_c, 5, 64, 0
7, 128561, Control_c, 5, 11, 68
7, 128645, Note_on_c, 5, 64, 93
7, 128717, Control_c, 5, 11, 69
7, 128825, Note_on_c, 5, 64, 0
7, 128825, Note_on_c, 5, 64, 93
7, 128873, Control_c, 5, 11, 70
7, 128885, Note_on_c, 5, 64, 0
7, 128885, Note_on_c, 5, 64, 93
7, 129005, Note_on_c, 5, 64, 0
7, 129029, Control_c, 5, 11, 71
7, 129125, Note_on_c, 5, 64, 93
7, 129185, Control_c, 5, 11, 72
7, 129305, Note_on_c, 5, 64, 0
7, 129305, Note_on_c, 5, 64, 93
7, 129341, Control_c, 5, 11, 73
7, 129365, Note_on_c, 5, 64, 0
7, 129365, Note_on_c, 5, 64, 93
7, 129485, Note_on_c, 5, 64, 0
7, 129497, Control_c, 5, 11, 74
7, 129605, Note_on_c, 5, 66, 120
7, 129605, Note_on_c, 5, 69, 120
7, 129653, Control_c, 5, 11, 75
7, 129809, Control_c, 5, 11, 76
7, 129965, Control_c, 5, 11, 77
7, 130121, Control_c, 5, 11, 78
7, 130277, Control_c, 5, 11, 79
7, 130433, Control_c, 5, 11, 80
7, 130589, Control_c, 5, 11, 81
7, 130745, Control_c, 5, 11, 82
7, 130901, Control_c, 5, 11, 83
7, 131057, Control_c, 5, 11, 84
7, 131213, Control_c, 5, 11, 85
7, 131369, Control_c, 5, 11, 86
7, 131525, Note_on_c, 5, 69, 0
7, 131525, Note_on_c, 5, 66, 0
7, 131525, Control_c, 5, 11, 87
7, 131525, Note_on_c, 5, 66, 120
7, 131525, Note_on_c, 5, 69, 120
7, 132485, Control_c, 5, 11, 97
7, 132677, Control_c, 5, 11, 98
7, 132869, Control_c, 5, 11, 99
7, 133061, Control_c, 5, 11, 100
7, 133253, Control_c, 5, 11, 101
7, 133445, Note_on_c, 5, 69, 0
7, 133445, Note_on_c, 5, 66, 0
7, 133445, Control_c, 5, 11, 102
7, 133445, Note_on_c, 5, 69, 120
7, 133445, Note_on_c, 5, 66, 120
7, 135365, Note_on_c, 5, 66, 0
7, 135365, Note_on_c, 5, 69, 0
7, 135365, Note_on_c, 5, 52, 93
7, 135365, Note_on_c, 5, 64, 93
7, 135485, Note_on_c, 5, 64, 0
7, 135485, Note_on_c, 5, 52, 0
7, 135485, Note_on_c, 5, 52, 93
7, 135485, Note_on_c, 5, 64, 93
7, 135605, Note_on_c, 5, 64, 0
7, 135605, Note_on_c, 5, 52, 0
7, 135605, Note_on_c, 5, 52, 93
7, 135605, Note_on_c, 5, 64, 93
7, 135725, Note_on_c, 5, 64, 0
7, 135725, Note_on_c, 5, 52, 0
7, 135725, Note_on_c, 5, 52, 93
7, 135725, Note_on_c, 5, 64, 93
7, 135845, Note_on_c, 5, 64, 0
7, 135845, Note_on_c, 5, 52, 0
7, 135845, Note_on_c, 5, 52, 93
7, 135845, Note_on_c, 5, 64, 93
7, 135965, Note_on_c, 5, 64, 0
7, 135965, Note_on_c, 5, 52, 0
7, 135965, Note_on_c, 5, 52, 93
7, 135965, Note_on_c, 5, 64, 93
7, 136085, Note_on_c, 5, 64, 0
7, 136085, Note_on_c, 5, 52, 0
7, 136085, Note_on_c, 5, 52, 93
7, 136085, Note_on_c, 5, 64, 93
7, 136205, Note_on_c, 5, 64, 0
7, 136205, Note_on_c, 5, 52, 0
7, 136205, Note_on_c, 5, 52, 93
7, 136205, Note_on_c, 5, 64, 93
7, 136325, Note_on_c, 5, 64, 0
7, 136325, Note_on_c, 5, 52, 0
7, 136325, Note_on_c, 5, 52, 93
7, 136325, Note_on_c, 5, 64, 93
7, 136445, Note_on_c, 5, 64, 0
7, 136445, Note_on_c, 5, 52, 0
7, 136445, Note_on_c, 5, 52, 93
7, 136445, Note_on_c, 5, 64, 93
7, 136565, Note_on_c, 5, 64, 0
7, 136565, Note_on_c, 5, 52, 0
7, 136565, Note_on_c, 5, 52, 93
7, 136565, Note_on_c, 5, 64, 93
7, 136685, Note_on_c, 5, 64, 0
7, 136685, Note_on_c, 5, 52, 0
7, 136685, Note_on_c, 5, 52, 93
7, 136685, Note_on_c, 5, 64, 93
7, 136805, Note_on_c, 5, 64, 0
7, 136805, Note_on_c, 5, 52, 0
7, 136805, Note_on_c, 5, 52, 93
7, 136805, Note_on_c, 5, 64, 93
7, 136925, Note_on_c, 5, 64, 0
7, 136925, Note_on_c, 5, 52, 0
7, 136925, Note_on_c, 5, 64, 93
7, 136925, Note_on_c, 5, 52, 93
7, 137045, Note_on_c, 5, 52, 0
7, 137045, Note_on_c, 5, 64, 0
7, 137045, Note_on_c, 5, 71, 93
7, 137045, Note_on_c, 5, 59, 93
7, 137165, Note_on_c, 5, 59, 0
7, 137165, Note_on_c, 5, 71, 0
7, 137165, Note_on_c, 5, 71, 93
7, 137165, Note_on_c, 5, 59, 93
7, 137285, Note_on_c, 5, 59, 0
7, 137285, Note_on_c, 5, 71, 0
7, 137285, Note_on_c, 5, 59, 93
7, 137285, Note_on_c, 5, 71, 93
7, 137405, Note_on_c, 5, 71, 0
7, 137405, Note_on_c, 5, 59, 0
7, 137405, Note_on_c, 5, 59, 93
7, 137405, Note_on_c, 5, 71, 93
7, 137525, Note_on_c, 5, 71, 0
7, 137525, Note_on_c, 5, 59, 0
7, 137525, Note_on_c, 5, 59, 93
7, 137525, Note_on_c, 5, 71, 93
7, 137645, Note_on_c, 5, 71, 0
7, 137645, Note_on_c, 5, 59, 0
7, 137645, Note_on_c, 5, 59, 93
7, 137645, Note_on_c, 5, 71, 93
7, 137765, Note_on_c, 5, 71, 0
7, 137765, Note_on_c, 5, 59, 0
7, 137765, Note_on_c, 5, 59, 93
7, 137765, Note_on_c, 5, 71, 93
7, 137885, Note_on_c, 5, 71, 0
7, 137885, Note_on_c, 5, 59, 0
7, 137885, Note_on_c, 5, 71, 93
7, 137885, Note_on_c, 5, 59, 93
7, 138005, Note_on_c, 5, 59, 0
7, 138005, Note_on_c, 5, 71, 0
7, 138005, Note_on_c, 5, 71, 93
7, 138005, Note_on_c, 5, 59, 93
7, 138125, Note_on_c, 5, 59, 0
7, 138125, Note_on_c, 5, 71, 0
7, 138125, Note_on_c, 5, 59, 93
7, 138125, Note_on_c, 5, 71, 93
7, 138245, Note_on_c, 5, 71, 0
7, 138245, Note_on_c, 5, 59, 0
7, 138245, Note_on_c, 5, 64, 93
7, 138245, Note_on_c, 5, 52, 93
7, 138365, Note_on_c, 5, 52, 0
7, 138365, Note_on_c, 5, 64, 0
7, 138365, Note_on_c, 5, 64, 93
7, 138365, Note_on_c, 5, 52, 93
7, 138485, Note_on_c, 5, 52, 0
7, 138485, Note_on_c, 5, 64, 0
7, 138485, Note_on_c, 5, 52, 93
7, 138485, Note_on_c, 5, 64, 93
7, 138605, Note_on_c, 5, 64, 0
7, 138605, Note_on_c, 5, 52, 0
7, 138605, Note_on_c, 5, 52, 93
7, 138605, Note_on_c, 5, 64, 93
7, 138725, Note_on_c, 5, 64, 0
7, 138725, Note_on_c, 5, 52, 0
7, 138725, Note_on_c, 5, 52, 93
7, 138725, Note_on_c, 5, 64, 93
7, 138845, Note_on_c, 5, 64, 0
7, 138845, Note_on_c, 5, 52, 0
7, 138845, Note_on_c, 5, 52, 93
7, 138845, Note_on_c, 5, 64, 93
7, 138965, Note_on_c, 5, 64, 0
7, 138965, Note_on_c, 5, 52, 0
7, 138965, Note_on_c, 5, 52, 93
7, 138965, Note_on_c, 5, 64, 93
7, 139085, Note_on_c, 5, 64, 0
7, 139085, Note_on_c, 5, 52, 0
7, 139085, Note_on_c, 5, 64, 93
7, 139085, Note_on_c, 5, 52, 93
7, 139205, Note_on_c, 5, 52, 0
7, 139205, Note_on_c, 5, 64, 0
7, 139205, Note_on_c, 5, 64, 93
7, 139205, Note_on_c, 5, 52, 93
7, 139325, Note_on_c, 5, 52, 0
7, 139325, Note_on_c, 5, 64, 0
7, 139325, Note_on_c, 5, 64, 93
7, 139325, Note_on_c, 5, 52, 93
7, 139445, Note_on_c, 5, 52, 0
7, 139445, Note_on_c, 5, 64, 0
7, 139445, Note_on_c, 5, 52, 93
7, 139445, Note_on_c, 5, 64, 93
7, 139565, Note_on_c, 5, 64, 0
7, 139565, Note_on_c, 5, 52, 0
7, 139565, Note_on_c, 5, 52, 93
7, 139565, Note_on_c, 5, 64, 93
7, 139685, Note_on_c, 5, 64, 0
7, 139685, Note_on_c, 5, 52, 0
7, 139685, Note_on_c, 5, 52, 93
7, 139685, Note_on_c, 5, 64, 93
7, 139805, Note_on_c, 5, 64, 0
7, 139805, Note_on_c, 5, 52, 0
7, 139805, Note_on_c, 5, 52, 93
7, 139805, Note_on_c, 5, 64, 93
7, 139925, Note_on_c, 5, 64, 0
7, 139925, Note_on_c, 5, 52, 0
7, 139925, Note_on_c, 5, 59, 93
7, 139925, Note_on_c, 5, 71, 93
7, 140045, Note_on_c, 5, 71, 0
7, 140045, Note_on_c, 5, 59, 0
7, 140045, Note_on_c, 5, 59, 93
7, 140045, Note_on_c, 5, 71, 93
7, 140165, Note_on_c, 5, 71, 0
7, 140165, Note_on_c, 5, 59, 0
7, 140165, Note_on_c, 5, 59, 93
7, 140165, Note_on_c, 5, 71, 93
7, 140285, Note_on_c, 5, 71, 0
7, 140285, Note_on_c, 5, 59, 0
7, 140285, Note_on_c, 5, 59, 93
7, 140285, Note_on_c, 5, 71, 93
7, 140405, Note_on_c, 5, 71, 0
7, 140405, Note_on_c, 5, 59, 0
7, 140405, Note_on_c, 5, 59, 93
7, 140405, Note_on_c, 5, 71, 93
7, 140525, Note_on_c, 5, 71, 0
7, 140525, Note_on_c, 5, 59, 0
7, 140525, Note_on_c, 5, 59, 93
7, 140525, Note_on_c, 5, 71, 93
7, 140645, Note_on_c, 5, 71, 0
7, 140645, Note_on_c, 5, 59, 0
7, 140645, Note_on_c, 5, 59, 93
7, 140645, Note_on_c, 5, 71, 93
7, 140765, Note_on_c, 5, 71, 0
7, 140765, Note_on_c, 5, 59, 0
7, 140765, Note_on_c, 5, 59, 93
7, 140765, Note_on_c, 5, 71, 93
7, 140885, Note_on_c, 5, 71, 0
7, 140885, Note_on_c, 5, 59, 0
7, 140885, Note_on_c, 5, 59, 93
7, 140885, Note_on_c, 5, 71, 93
7, 141005, Note_on_c, 5, 71, 0
7, 141005, Note_on_c, 5, 59, 0
7, 141005, Note_on_c, 5, 59, 93
7, 141005, Note_on_c, 5, 71, 93
7, 141125, Note_on_c, 5, 71, 0
7, 141125, Note_on_c, 5, 59, 0
7, 141125, Note_on_c, 5, 52, 93
7, 141125, Note_on_c, 5, 64, 93
7, 141245, Note_on_c, 5, 64, 0
7, 141245, Note_on_c, 5, 52, 0
7, 141605, Control_c, 5, 11, 122
7, 141605, Note_on_c, 5, 52, 93
7, 141605, Note_on_c, 5, 64, 93
7, 141623, Control_c, 5, 11, 120
7, 141641, Control_c, 5, 11, 118
7, 141659, Control_c, 5, 11, 116
7, 141677, Control_c, 5, 11, 114
7, 141695, Control_c, 5, 11, 112
7, 141713, Control_c, 5, 11, 110
7, 141731, Control_c, 5, 11, 108
7, 141749, Control_c, 5, 11, 106
7, 141767, Control_c, 5, 11, 104
7, 141785, Note_on_c, 5, 64, 0
7, 141785, Note_on_c, 5, 52, 0
7, 141785, Control_c, 5, 11, 102
7, 141785, Note_on_c, 5, 59, 93
7, 141785, Note_on_c, 5, 47, 93
7, 141845, Note_on_c, 5, 47, 0
7, 141845, Note_on_c, 5, 59, 0
7, 141845, Note_on_c, 5, 47, 93
7, 141845, Note_on_c, 5, 59, 93
7, 141965, Note_on_c, 5, 59, 0
7, 141965, Note_on_c, 5, 47, 0
7, 142085, Note_on_c, 5, 68, 93
7, 142085, Note_on_c, 5, 56, 93
7, 142205, Note_on_c, 5, 56, 0
7, 142205, Note_on_c, 5, 68, 0
7, 142565, Control_c, 5, 11, 122
7, 142565, Note_on_c, 5, 68, 93
7, 142565, Note_on_c, 5, 56, 93
7, 142583, Control_c, 5, 11, 120
7, 142601, Control_c, 5, 11, 118
7, 142619, Control_c, 5, 11, 116
7, 142637, Control_c, 5, 11, 114
7, 142655, Control_c, 5, 11, 112
7, 142673, Control_c, 5, 11, 110
7, 142691, Control_c, 5, 11, 108
7, 142709, Control_c, 5, 11, 106
7, 142727, Control_c, 5, 11, 104
7, 142745, Note_on_c, 5, 56, 0
7, 142745, Note_on_c, 5, 68, 0
7, 142745, Control_c, 5, 11, 102
7, 142745, Note_on_c, 5, 52, 93
7, 142745, Note_on_c, 5, 64, 93
7, 142805, Note_on_c, 5, 64, 0
7, 142805, Note_on_c, 5, 52, 0
7, 142805, Note_on_c, 5, 64, 93
7, 142805, Note_on_c, 5, 52, 93
7, 142925, Note_on_c, 5, 52, 0
7, 142925, Note_on_c, 5, 64, 0
7, 143045, Note_on_c, 5, 71, 93
7, 143045, Note_on_c, 5, 59, 93
7, 143165, Note_on_c, 5, 59, 0
7, 143165, Note_on_c, 5, 71, 0
7, 143525, Control_c, 5, 11, 122
7, 143525, Note_on_c, 5, 71, 93
7, 143525, Note_on_c, 5, 59, 93
7, 143543, Control_c, 5, 11, 120
7, 143561, Control_c, 5, 11, 118
7, 143579, Control_c, 5, 11, 116
7, 143597, Control_c, 5, 11, 114
7, 143615, Control_c, 5, 11, 112
7, 143633, Control_c, 5, 11, 110
7, 143651, Control_c, 5, 11, 108
7, 143669, Control_c, 5, 11, 106
7, 143687, Control_c, 5, 11, 104
7, 143705, Note_on_c, 5, 59, 0
7, 143705, Note_on_c, 5, 71, 0
7, 143705, Control_c, 5, 11, 102
7, 143705, Note_on_c, 5, 56, 93
7, 143705, Note_on_c, 5, 68, 93
7, 143765, Note_on_c, 5, 68, 0
7, 143765, Note_on_c, 5, 56, 0
7, 143765, Note_on_c, 5, 56, 93
7, 143765, Note_on_c, 5, 68, 93
7, 143885, Note_on_c, 5, 68, 0
7, 143885, Note_on_c, 5, 56, 0
7, 144005, Note_on_c, 5, 64, 120
7, 144125, Note_on_c, 5, 64, 0
7, 144485, Control_c, 5, 11, 122
7, 144485, Note_on_c, 5, 64, 120
7, 144503, Control_c, 5, 11, 120
7, 144521, Control_c, 5, 11, 118
7, 144539, Control_c, 5, 11, 116
7, 144557, Control_c, 5, 11, 114
7, 144575, Control_c, 5, 11, 112
7, 144593, Control_c, 5, 11, 110
7, 144611, Control_c, 5, 11, 108
7, 144629, Control_c, 5, 11, 106
7, 144647, Control_c, 5, 11, 104
7, 144665, Note_on_c, 5, 64, 0
7, 144665, Control_c, 5, 11, 102
7, 144665, Note_on_c, 5, 59, 120
7, 144725, Note_on_c, 5, 59, 0
7, 144725, Note_on_c, 5, 59, 120
7, 144845, Note_on_c, 5, 59, 0
7, 144965, Note_on_c, 5, 64, 120
7, 145085, Note_on_c, 5, 64, 0
7, 145085, Note_on_c, 5, 59, 120
7, 145205, Note_on_c, 5, 59, 0
7, 145205, Note_on_c, 5, 64, 120
7, 145325, Note_on_c, 5, 64, 0
7, 145325, Note_on_c, 5, 59, 120
7, 145445, Note_on_c, 5, 59, 0
7, 145445, Note_on_c, 5, 64, 120
7, 145565, Note_on_c, 5, 64, 0
7, 145565, Note_on_c, 5, 59, 120
7, 145685, Note_on_c, 5, 59, 0
7, 145685, Note_on_c, 5, 64, 120
7, 145805, Note_on_c, 5, 64, 0
7, 145805, Note_on_c, 5, 59, 120
7, 145925, Note_on_c, 5, 59, 0
7, 145925, Note_on_c, 5, 64, 120
7, 146045, Note_on_c, 5, 64, 0
7, 146045, Note_on_c, 5, 59, 120
7, 146165, Note_on_c, 5, 59, 0
7, 146165, Note_on_c, 5, 64, 120
7, 146285, Note_on_c, 5, 64, 0
7, 146285, Note_on_c, 5, 59, 120
7, 146405, Note_on_c, 5, 59, 0
7, 146405, Note_on_c, 5, 64, 120
7, 146525, Note_on_c, 5, 64, 0
7, 146525, Note_on_c, 5, 59, 120
7, 146645, Note_on_c, 5, 59, 0
7, 146645, Note_on_c, 5, 64, 120
7, 146765, Note_on_c, 5, 64, 0
7, 146765, Note_on_c, 5, 59, 120
7, 146885, Note_on_c, 5, 59, 0
7, 146885, Note_on_c, 5, 64, 120
7, 147005, Note_on_c, 5, 64, 0
7, 147365, Note_on_c, 5, 64, 120
7, 147365, Note_on_c, 5, 52, 120
7, 147485, Note_on_c, 5, 52, 0
7, 147485, Note_on_c, 5, 64, 0
7, 147845, Note_on_c, 5, 52, 120
7, 147845, Note_on_c, 5, 64, 120
7, 147965, Note_on_c, 5, 64, 0
7, 147965, Note_on_c, 5, 52, 0
7, 148325, Control_c, 5, 121, 0
7, 148325, End_track
8, 0, Start_track
8, 0, MIDI_port, 0
8, 0, Title_t, "2 Trombe in C"
8, 0, Program_c, 6, 56
8, 0, Control_c, 6, 10, 77
8, 5, Control_c, 6, 121, 0
8, 10, Program_c, 6, 56
8, 15, Pitch_bend_c, 6, 8192
8, 20, Control_c, 6, 11, 102
8, 25, Control_c, 6, 7, 127
8, 30, Control_c, 6, 91, 80
8, 35, Control_c, 6, 93, 0
8, 485, Control_c, 6, 11, 87
8, 485, Note_on_c, 6, 64, 102
8, 485, Note_on_c, 6, 76, 102
8, 595, Note_on_c, 6, 76, 0
8, 595, Note_on_c, 6, 64, 0
8, 965, Note_on_c, 6, 76, 102
8, 965, Note_on_c, 6, 64, 102
8, 1075, Note_on_c, 6, 64, 0
8, 1075, Note_on_c, 6, 76, 0
8, 1445, Note_on_c, 6, 76, 102
8, 1445, Note_on_c, 6, 64, 102
8, 1555, Note_on_c, 6, 64, 0
8, 1555, Note_on_c, 6, 76, 0
8, 1625, Note_on_c, 6, 76, 102
8, 1625, Note_on_c, 6, 64, 102
8, 1675, Note_on_c, 6, 64, 0
8, 1675, Note_on_c, 6, 76, 0
8, 1685, Note_on_c, 6, 76, 102
8, 1685, Note_on_c, 6, 64, 102
8, 1745, Note_on_c, 6, 64, 0
8, 1745, Note_on_c, 6, 76, 0
8, 6245, Control_c, 6, 11, 87
8, 6245, Note_on_c, 6, 76, 82
8, 6245, Note_on_c, 6, 64, 82
8, 6395, Note_on_c, 6, 64, 0
8, 6395, Note_on_c, 6, 76, 0
8, 6425, Note_on_c, 6, 64, 82
8, 6425, Note_on_c, 6, 76, 82
8, 6475, Note_on_c, 6, 76, 0
8, 6475, Note_on_c, 6, 64, 0
8, 6485, Note_on_c, 6, 76, 82
8, 6485, Note_on_c, 6, 64, 82
8, 6545, Note_on_c, 6, 64, 0
8, 6545, Note_on_c, 6, 76, 0
8, 6725, Note_on_c, 6, 64, 82
8, 6725, Note_on_c, 6, 76, 82
8, 6875, Note_on_c, 6, 76, 0
8, 6875, Note_on_c, 6, 64, 0
8, 6905, Note_on_c, 6, 64, 82
8, 6905, Note_on_c, 6, 76, 82
8, 6955, Note_on_c, 6, 76, 0
8, 6955, Note_on_c, 6, 64, 0
8, 6965, Note_on_c, 6, 76, 82
8, 6965, Note_on_c, 6, 64, 82
8, 7025, Note_on_c, 6, 64, 0
8, 7025, Note_on_c, 6, 76, 0
8, 7205, Note_on_c, 6, 64, 82
8, 7205, Note_on_c, 6, 76, 82
8, 7355, Note_on_c, 6, 76, 0
8, 7355, Note_on_c, 6, 64, 0
8, 7385, Note_on_c, 6, 76, 82
8, 7385, Note_on_c, 6, 64, 82
8, 7435, Note_on_c, 6, 64, 0
8, 7435, Note_on_c, 6, 76, 0
8, 7445, Note_on_c, 6, 64, 82
8, 7445, Note_on_c, 6, 76, 82
8, 7505, Note_on_c, 6, 76, 0
8, 7505, Note_on_c, 6, 64, 0
8, 7565, Note_on_c, 6, 64, 82
8, 7565, Note_on_c, 6, 76, 82
8, 7625, Note_on_c, 6, 76, 0
8, 7625, Note_on_c, 6, 64, 0
8, 7685, Note_on_c, 6, 76, 82
8, 7685, Note_on_c, 6, 64, 82
8, 7745, Note_on_c, 6, 64, 0
8, 7745, Note_on_c, 6, 76, 0
8, 30725, Control_c, 6, 11, 87
8, 30725, Note_on_c, 6, 64, 97
8, 30725, Note_on_c, 6, 76, 82
8, 30845, Note_on_c, 6, 76, 0
8, 30845, Note_on_c, 6, 64, 0
8, 31205, Note_on_c, 6, 76, 82
8, 31205, Note_on_c, 6, 64, 97
8, 31325, Note_on_c, 6, 64, 0
8, 31325, Note_on_c, 6, 76, 0
8, 31685, Note_on_c, 6, 64, 97
8, 31685, Note_on_c, 6, 76, 82
8, 31805, Note_on_c, 6, 76, 0
8, 31805, Note_on_c, 6, 64, 0
8, 32165, Note_on_c, 6, 76, 82
8, 32165, Note_on_c, 6, 64, 97
8, 32285, Note_on_c, 6, 64, 0
8, 32285, Note_on_c, 6, 76, 0
8, 32405, Note_on_c, 6, 76, 82
8, 32405, Note_on_c, 6, 64, 97
8, 32525, Note_on_c, 6, 64, 0
8, 32525, Note_on_c, 6, 76, 0
8, 32645, Note_on_c, 6, 76, 82
8, 32645, Note_on_c, 6, 64, 97
8, 32765, Note_on_c, 6, 64, 0
8, 32765, Note_on_c, 6, 76, 0
8, 32765, Note_on_c, 6, 64, 97
8, 32765, Note_on_c, 6, 76, 82
8, 32885, Note_on_c, 6, 76, 0
8, 32885, Note_on_c, 6, 64, 0
8, 33125, Note_on_c, 6, 64, 97
8, 33125, Note_on_c, 6, 76, 82
8, 33245, Note_on_c, 6, 76, 0
8, 33245, Note_on_c, 6, 64, 0
8, 33245, Note_on_c, 6, 64, 97
8, 33245, Note_on_c, 6, 76, 82
8, 33365, Note_on_c, 6, 76, 0
8, 33365, Note_on_c, 6, 64, 0
8, 33605, Note_on_c, 6, 64, 97
8, 33605, Note_on_c, 6, 76, 82
8, 33725, Note_on_c, 6, 76, 0
8, 33725, Note_on_c, 6, 64, 0
8, 33725, Note_on_c, 6, 64, 97
8, 33725, Note_on_c, 6, 76, 82
8, 33845, Note_on_c, 6, 76, 0
8, 33845, Note_on_c, 6, 64, 0
8, 33965, Note_on_c, 6, 76, 82
8, 33965, Note_on_c, 6, 64, 97
8, 34085, Note_on_c, 6, 64, 0
8, 34085, Note_on_c, 6, 76, 0
8, 34085, Note_on_c, 6, 76, 82
8, 34085, Note_on_c, 6, 64, 97
8, 34205, Note_on_c, 6, 64, 0
8, 34205, Note_on_c, 6, 76, 0
8, 34205, Note_on_c, 6, 76, 82
8, 34205, Note_on_c, 6, 64, 97
8, 34325, Note_on_c, 6, 64, 0
8, 34325, Note_on_c, 6, 76, 0
8, 34325, Note_on_c, 6, 76, 82
8, 34325, Note_on_c, 6, 64, 97
8, 34445, Note_on_c, 6, 64, 0
8, 34445, Note_on_c, 6, 76, 0
8, 34445, Note_on_c, 6, 76, 82
8, 34445, Note_on_c, 6, 64, 97
8, 34565, Note_on_c, 6, 64, 0
8, 34565, Note_on_c, 6, 76, 0
8, 34565, Note_on_c, 6, 64, 97
8, 34565, Note_on_c, 6, 76, 82
8, 34685, Note_on_c, 6, 76, 0
8, 34685, Note_on_c, 6, 64, 0
8, 34805, Note_on_c, 6, 64, 97
8, 34805, Note_on_c, 6, 76, 82
8, 34925, Note_on_c, 6, 76, 0
8, 34925, Note_on_c, 6, 64, 0
8, 35045, Note_on_c, 6, 64, 97
8, 35045, Note_on_c, 6, 76, 82
8, 35165, Note_on_c, 6, 76, 0
8, 35165, Note_on_c, 6, 64, 0
8, 35285, Note_on_c, 6, 64, 97
8, 35285, Note_on_c, 6, 76, 82
8, 35405, Note_on_c, 6, 76, 0
8, 35405, Note_on_c, 6, 64, 0
8, 36485, Note_on_c, 6, 64, 92
8, 36485, Note_on_c, 6, 76, 78
8, 36605, Note_on_c, 6, 76, 0
8, 36605, Note_on_c, 6, 64, 0
8, 36725, Note_on_c, 6, 76, 78
8, 36725, Note_on_c, 6, 64, 92
8, 36845, Note_on_c, 6, 64, 0
8, 36845, Note_on_c, 6, 76, 0
8, 36965, Note_on_c, 6, 76, 78
8, 36965, Note_on_c, 6, 64, 92
8, 37085, Note_on_c, 6, 64, 0
8, 37085, Note_on_c, 6, 76, 0
8, 37205, Note_on_c, 6, 76, 78
8, 37205, Note_on_c, 6, 64, 92
8, 37325, Note_on_c, 6, 64, 0
8, 37325, Note_on_c, 6, 76, 0
8, 38405, Note_on_c, 6, 76, 117
8, 38405, Note_on_c, 6, 64, 117
8, 39125, Note_on_c, 6, 64, 0
8, 39125, Note_on_c, 6, 76, 0
8, 39125, Note_on_c, 6, 76, 78
8, 39125, Note_on_c, 6, 64, 92
8, 39245, Note_on_c, 6, 64, 0
8, 39245, Note_on_c, 6, 76, 0
8, 39245, Note_on_c, 6, 76, 78
8, 39245, Note_on_c, 6, 64, 92
8, 39365, Note_on_c, 6, 64, 0
8, 39365, Note_on_c, 6, 76, 0
8, 39365, Note_on_c, 6, 76, 70
8, 39365, Note_on_c, 6, 64, 83
8, 39485, Note_on_c, 6, 64, 0
8, 39485, Note_on_c, 6, 76, 0
8, 46085, Control_c, 6, 11, 87
8, 46085, Note_on_c, 6, 76, 102
8, 46085, Note_on_c, 6, 64, 102
8, 46205, Note_on_c, 6, 64, 0
8, 46205, Note_on_c, 6, 76, 0
8, 46325, Note_on_c, 6, 76, 102
8, 46325, Note_on_c, 6, 64, 102
8, 46445, Note_on_c, 6, 64, 0
8, 46445, Note_on_c, 6, 76, 0
8, 46565, Note_on_c, 6, 76, 102
8, 46565, Note_on_c, 6, 64, 102
8, 46685, Note_on_c, 6, 64, 0
8, 46685, Note_on_c, 6, 76, 0
8, 46805, Note_on_c, 6, 64, 102
8, 46805, Note_on_c, 6, 76, 102
8, 46925, Note_on_c, 6, 76, 0
8, 46925, Note_on_c, 6, 64, 0
8, 47045, Control_c, 6, 11, 102
8, 47045, Note_on_c, 6, 76, 102
8, 47045, Note_on_c, 6, 64, 102
8, 47165, Note_on_c, 6, 64, 0
8, 47165, Note_on_c, 6, 76, 0
8, 47525, Control_c, 6, 11, 122
8, 47525, Note_on_c, 6, 64, 102
8, 47525, Note_on_c, 6, 76, 102
8, 47543, Control_c, 6, 11, 119
8, 47561, Control_c, 6, 11, 116
8, 47579, Control_c, 6, 11, 113
8, 47597, Control_c, 6, 11, 110
8, 47615, Control_c, 6, 11, 107
8, 47633, Control_c, 6, 11, 104
8, 48005, Note_on_c, 6, 76, 0
8, 48005, Note_on_c, 6, 64, 0
8, 48485, Control_c, 6, 11, 122
8, 48485, Note_on_c, 6, 64, 102
8, 48485, Note_on_c, 6, 76, 87
8, 48503, Control_c, 6, 11, 119
8, 48521, Control_c, 6, 11, 116
8, 48539, Control_c, 6, 11, 113
8, 48557, Control_c, 6, 11, 110
8, 48575, Control_c, 6, 11, 107
8, 48593, Control_c, 6, 11, 104
8, 48965, Note_on_c, 6, 76, 0
8, 48965, Note_on_c, 6, 64, 0
8, 48965, Note_on_c, 6, 76, 87
8, 48965, Note_on_c, 6, 64, 102
8, 49085, Note_on_c, 6, 64, 0
8, 49085, Note_on_c, 6, 76, 0
8, 49085, Note_on_c, 6, 76, 87
8, 49085, Note_on_c, 6, 64, 102
8, 49205, Note_on_c, 6, 64, 0
8, 49205, Note_on_c, 6, 76, 0
8, 49205, Note_on_c, 6, 76, 87
8, 49205, Note_on_c, 6, 64, 102
8, 49325, Note_on_c, 6, 64, 0
8, 49325, Note_on_c, 6, 76, 0
8, 49325, Note_on_c, 6, 76, 87
8, 49325, Note_on_c, 6, 64, 102
8, 49445, Note_on_c, 6, 64, 0
8, 49445, Note_on_c, 6, 76, 0
8, 49445, Note_on_c, 6, 64, 102
8, 49445, Note_on_c, 6, 76, 87
8, 49565, Note_on_c, 6, 76, 0
8, 49565, Note_on_c, 6, 64, 0
8, 49565, Note_on_c, 6, 76, 87
8, 49565, Note_on_c, 6, 64, 102
8, 49685, Note_on_c, 6, 64, 0
8, 49685, Note_on_c, 6, 76, 0
8, 49685, Note_on_c, 6, 76, 87
8, 49685, Note_on_c, 6, 64, 102
8, 49805, Note_on_c, 6, 64, 0
8, 49805, Note_on_c, 6, 76, 0
8, 49805, Note_on_c, 6, 76, 87
8, 49805, Note_on_c, 6, 64, 102
8, 49925, Note_on_c, 6, 64, 0
8, 49925, Note_on_c, 6, 76, 0
8, 49925, Note_on_c, 6, 76, 87
8, 49925, Note_on_c, 6, 64, 102
8, 50045, Note_on_c, 6, 64, 0
8, 50045, Note_on_c, 6, 76, 0
8, 50405, Note_on_c, 6, 64, 102
8, 50405, Note_on_c, 6, 76, 87
8, 50525, Note_on_c, 6, 76, 0
8, 50525, Note_on_c, 6, 64, 0
8, 50885, Note_on_c, 6, 76, 87
8, 50885, Note_on_c, 6, 64, 102
8, 51005, Note_on_c, 6, 64, 0
8, 51005, Note_on_c, 6, 76, 0
8, 51125, Note_on_c, 6, 76, 87
8, 51125, Note_on_c, 6, 64, 102
8, 51245, Note_on_c, 6, 64, 0
8, 51245, Note_on_c, 6, 76, 0
8, 51365, Note_on_c, 6, 76, 87
8, 51365, Note_on_c, 6, 64, 102
8, 51485, Note_on_c, 6, 64, 0
8, 51485, Note_on_c, 6, 76, 0
8, 51605, Note_on_c, 6, 76, 87
8, 51605, Note_on_c, 6, 64, 102
8, 51725, Note_on_c, 6, 64, 0
8, 51725, Note_on_c, 6, 76, 0
8, 52085, Note_on_c, 6, 64, 102
8, 52085, Note_on_c, 6, 76, 87
8, 52205, Note_on_c, 6, 76, 0
8, 52205, Note_on_c, 6, 64, 0
8, 76805, Control_c, 6, 11, 87
8, 76805, Note_on_c, 6, 64, 102
8, 76805, Note_on_c, 6, 76, 87
8, 76925, Note_on_c, 6, 76, 0
8, 76925, Note_on_c, 6, 64, 0
8, 77285, Note_on_c, 6, 64, 102
8, 77285, Note_on_c, 6, 76, 87
8, 77405, Note_on_c, 6, 76, 0
8, 77405, Note_on_c, 6, 64, 0
8, 77765, Note_on_c, 6, 76, 87
8, 77765, Note_on_c, 6, 64, 102
8, 77885, Note_on_c, 6, 64, 0
8, 77885, Note_on_c, 6, 76, 0
8, 78245, Note_on_c, 6, 76, 87
8, 78245, Note_on_c, 6, 64, 102
8, 78365, Note_on_c, 6, 64, 0
8, 78365, Note_on_c, 6, 76, 0
8, 78485, Note_on_c, 6, 76, 87
8, 78485, Note_on_c, 6, 64, 102
8, 78605, Note_on_c, 6, 64, 0
8, 78605, Note_on_c, 6, 76, 0
8, 78725, Note_on_c, 6, 76, 87
8, 78725, Note_on_c, 6, 64, 102
8, 78845, Note_on_c, 6, 64, 0
8, 78845, Note_on_c, 6, 76, 0
8, 78845, Note_on_c, 6, 76, 87
8, 78845, Note_on_c, 6, 64, 102
8, 78965, Note_on_c, 6, 64, 0
8, 78965, Note_on_c, 6, 76, 0
8, 79205, Note_on_c, 6, 76, 87
8, 79205, Note_on_c, 6, 64, 102
8, 79325, Note_on_c, 6, 64, 0
8, 79325, Note_on_c, 6, 76, 0
8, 79325, Note_on_c, 6, 64, 102
8, 79325, Note_on_c, 6, 76, 87
8, 79445, Note_on_c, 6, 76, 0
8, 79445, Note_on_c, 6, 64, 0
8, 79685, Note_on_c, 6, 76, 87
8, 79685, Note_on_c, 6, 64, 102
8, 79805, Note_on_c, 6, 64, 0
8, 79805, Note_on_c, 6, 76, 0
8, 79805, Note_on_c, 6, 76, 87
8, 79805, Note_on_c, 6, 64, 102
8, 79925, Note_on_c, 6, 64, 0
8, 79925, Note_on_c, 6, 76, 0
8, 80045, Note_on_c, 6, 76, 87
8, 80045, Note_on_c, 6, 64, 102
8, 80165, Note_on_c, 6, 64, 0
8, 80165, Note_on_c, 6, 76, 0
8, 80165, Note_on_c, 6, 64, 102
8, 80165, Note_on_c, 6, 76, 87
8, 80285, Note_on_c, 6, 76, 0
8, 80285, Note_on_c, 6, 64, 0
8, 80285, Note_on_c, 6, 76, 87
8, 80285, Note_on_c, 6, 64, 102
8, 80405, Note_on_c, 6, 64, 0
8, 80405, Note_on_c, 6, 76, 0
8, 80405, Note_on_c, 6, 76, 87
8, 80405, Note_on_c, 6, 64, 102
8, 80525, Note_on_c, 6, 64, 0
8, 80525, Note_on_c, 6, 76, 0
8, 80525, Note_on_c, 6, 76, 87
8, 80525, Note_on_c, 6, 64, 102
8, 80645, Note_on_c, 6, 64, 0
8, 80645, Note_on_c, 6, 76, 0
8, 80645, Note_on_c, 6, 76, 87
8, 80645, Note_on_c, 6, 64, 102
8, 80765, Note_on_c, 6, 64, 0
8, 80765, Note_on_c, 6, 76, 0
8, 80885, Note_on_c, 6, 64, 102
8, 80885, Note_on_c, 6, 76, 87
8, 81005, Note_on_c, 6, 76, 0
8, 81005, Note_on_c, 6, 64, 0
8, 81125, Note_on_c, 6, 76, 87
8, 81125, Note_on_c, 6, 64, 102
8, 81245, Note_on_c, 6, 64, 0
8, 81245, Note_on_c, 6, 76, 0
8, 81365, Note_on_c, 6, 76, 87
8, 81365, Note_on_c, 6, 64, 102
8, 81485, Note_on_c, 6, 64, 0
8, 81485, Note_on_c, 6, 76, 0
8, 82565, Note_on_c, 6, 76, 87
8, 82565, Note_on_c, 6, 64, 102
8, 82685, Note_on_c, 6, 64, 0
8, 82685, Note_on_c, 6, 76, 0
8, 82805, Note_on_c, 6, 76, 87
8, 82805, Note_on_c, 6, 64, 102
8, 82925, Note_on_c, 6, 64, 0
8, 82925, Note_on_c, 6, 76, 0
8, 83045, Note_on_c, 6, 64, 102
8, 83045, Note_on_c, 6, 76, 87
8, 83165, Note_on_c, 6, 76, 0
8, 83165, Note_on_c, 6, 64, 0
8, 83285, Note_on_c, 6, 64, 102
8, 83285, Note_on_c, 6, 76, 87
8, 83405, Note_on_c, 6, 76, 0
8, 83405, Note_on_c, 6, 64, 0
8, 84485, Control_c, 6, 11, 107
8, 84485, Note_on_c, 6, 76, 87
8, 84485, Note_on_c, 6, 64, 102
8, 84503, Control_c, 6, 11, 104
8, 84521, Control_c, 6, 11, 101
8, 84539, Control_c, 6, 11, 98
8, 84557, Control_c, 6, 11, 95
8, 84575, Control_c, 6, 11, 92
8, 84593, Control_c, 6, 11, 89
8, 85445, Note_on_c, 6, 64, 0
8, 85445, Note_on_c, 6, 76, 0
8, 85445, Note_on_c, 6, 76, 87
8, 85445, Note_on_c, 6, 64, 102
8, 85565, Note_on_c, 6, 64, 0
8, 85565, Note_on_c, 6, 76, 0
8, 85565, Note_on_c, 6, 76, 87
8, 85565, Note_on_c, 6, 64, 102
8, 85685, Note_on_c, 6, 64, 0
8, 85685, Note_on_c, 6, 76, 0
8, 85685, Note_on_c, 6, 76, 87
8, 85685, Note_on_c, 6, 64, 102
8, 85805, Note_on_c, 6, 64, 0
8, 85805, Note_on_c, 6, 76, 0
8, 85805, Note_on_c, 6, 76, 87
8, 85805, Note_on_c, 6, 64, 102
8, 85925, Note_on_c, 6, 64, 0
8, 85925, Note_on_c, 6, 76, 0
8, 85925, Note_on_c, 6, 64, 102
8, 85925, Note_on_c, 6, 76, 87
8, 86045, Note_on_c, 6, 76, 0
8, 86045, Note_on_c, 6, 64, 0
8, 86045, Note_on_c, 6, 76, 87
8, 86045, Note_on_c, 6, 64, 102
8, 86165, Note_on_c, 6, 64, 0
8, 86165, Note_on_c, 6, 76, 0
8, 86165, Note_on_c, 6, 76, 87
8, 86165, Note_on_c, 6, 64, 102
8, 86285, Note_on_c, 6, 64, 0
8, 86285, Note_on_c, 6, 76, 0
8, 86285, Note_on_c, 6, 76, 87
8, 86285, Note_on_c, 6, 64, 102
8, 86405, Note_on_c, 6, 64, 0
8, 86405, Note_on_c, 6, 76, 0
8, 86405, Note_on_c, 6, 76, 70
8, 86405, Note_on_c, 6, 64, 83
8, 86525, Note_on_c, 6, 64, 0
8, 86525, Note_on_c, 6, 76, 0
8, 93605, Control_c, 6, 11, 47
8, 93605, Note_on_c, 6, 79, 102
8, 93605, Note_on_c, 6, 67, 102
8, 93641, Control_c, 6, 11, 48
8, 93677, Control_c, 6, 11, 49
8, 93713, Control_c, 6, 11, 50
8, 93749, Control_c, 6, 11, 51
8, 93785, Control_c, 6, 11, 52
8, 93821, Control_c, 6, 11, 53
8, 93857, Control_c, 6, 11, 54
8, 93893, Control_c, 6, 11, 55
8, 93929, Control_c, 6, 11, 56
8, 93965, Control_c, 6, 11, 57
8, 94001, Control_c, 6, 11, 58
8, 94037, Control_c, 6, 11, 59
8, 94073, Control_c, 6, 11, 60
8, 94109, Control_c, 6, 11, 61
8, 94145, Control_c, 6, 11, 62
8, 94181, Control_c, 6, 11, 63
8, 94217, Control_c, 6, 11, 64
8, 94253, Control_c, 6, 11, 65
8, 94289, Control_c, 6, 11, 66
8, 94325, Control_c, 6, 11, 67
8, 94361, Control_c, 6, 11, 68
8, 94397, Control_c, 6, 11, 69
8, 94433, Control_c, 6, 11, 70
8, 94469, Control_c, 6, 11, 71
8, 94505, Control_c, 6, 11, 72
8, 94541, Control_c, 6, 11, 73
8, 94577, Control_c, 6, 11, 74
8, 94613, Control_c, 6, 11, 75
8, 94649, Control_c, 6, 11, 76
8, 94685, Control_c, 6, 11, 77
8, 94721, Control_c, 6, 11, 78
8, 94757, Control_c, 6, 11, 79
8, 94793, Control_c, 6, 11, 80
8, 94829, Control_c, 6, 11, 81
8, 94865, Control_c, 6, 11, 82
8, 94901, Control_c, 6, 11, 83
8, 94937, Control_c, 6, 11, 84
8, 94973, Control_c, 6, 11, 85
8, 95009, Control_c, 6, 11, 86
8, 95045, Note_on_c, 6, 67, 0
8, 95045, Note_on_c, 6, 79, 0
8, 95045, Control_c, 6, 11, 87
8, 95045, Note_on_c, 6, 60, 102
8, 95045, Note_on_c, 6, 72, 102
8, 95165, Note_on_c, 6, 72, 0
8, 95165, Note_on_c, 6, 60, 0
8, 95165, Note_on_c, 6, 55, 102
8, 95165, Note_on_c, 6, 67, 102
8, 95285, Note_on_c, 6, 67, 0
8, 95285, Note_on_c, 6, 55, 0
8, 95285, Note_on_c, 6, 60, 102
8, 95285, Note_on_c, 6, 72, 102
8, 95405, Note_on_c, 6, 72, 0
8, 95405, Note_on_c, 6, 60, 0
8, 95405, Note_on_c, 6, 55, 102
8, 95405, Note_on_c, 6, 67, 102
8, 95525, Note_on_c, 6, 67, 0
8, 95525, Note_on_c, 6, 55, 0
8, 95525, Note_on_c, 6, 72, 102
8, 95525, Note_on_c, 6, 60, 102
8, 95645, Note_on_c, 6, 60, 0
8, 95645, Note_on_c, 6, 72, 0
8, 95645, Note_on_c, 6, 67, 102
8, 95645, Note_on_c, 6, 55, 102
8, 95765, Note_on_c, 6, 55, 0
8, 95765, Note_on_c, 6, 67, 0
8, 95765, Note_on_c, 6, 72, 102
8, 95765, Note_on_c, 6, 60, 102
8, 95885, Note_on_c, 6, 60, 0
8, 95885, Note_on_c, 6, 72, 0
8, 95885, Note_on_c, 6, 67, 102
8, 95885, Note_on_c, 6, 55, 102
8, 96005, Note_on_c, 6, 55, 0
8, 96005, Note_on_c, 6, 67, 0
8, 96005, Control_c, 6, 11, 102
8, 96005, Note_on_c, 6, 72, 102
8, 96005, Note_on_c, 6, 60, 102
8, 96125, Note_on_c, 6, 60, 0
8, 96125, Note_on_c, 6, 72, 0
8, 96485, Note_on_c, 6, 60, 102
8, 96485, Note_on_c, 6, 72, 102
8, 96965, Note_on_c, 6, 72, 0
8, 96965, Note_on_c, 6, 60, 0
8, 97445, Note_on_c, 6, 72, 102
8, 97445, Note_on_c, 6, 60, 102
8, 97925, Note_on_c, 6, 60, 0
8, 97925, Note_on_c, 6, 72, 0
8, 97925, Control_c, 6, 11, 117
8, 97925, Control_c, 6, 91, 120
8, 97925, Note_on_c, 6, 60, 117
8, 97925, Note_on_c, 6, 72, 117
8, 98025, Note_on_c, 6, 72, 0
8, 98025, Note_on_c, 6, 60, 0
8, 98045, Note_on_c, 6, 72, 117
8, 98045, Note_on_c, 6, 60, 117
8, 98115, Note_on_c, 6, 60, 0
8, 98115, Note_on_c, 6, 72, 0
8, 98135, Note_on_c, 6, 60, 117
8, 98135, Note_on_c, 6, 72, 117
8, 98145, Note_on_c, 6, 72, 0
8, 98145, Note_on_c, 6, 60, 0
8, 98165, Note_on_c, 6, 72, 117
8, 98165, Note_on_c, 6, 60, 117
8, 98265, Note_on_c, 6, 60, 0
8, 98265, Note_on_c, 6, 72, 0
8, 98285, Note_on_c, 6, 72, 117
8, 98285, Note_on_c, 6, 60, 117
8, 98355, Note_on_c, 6, 60, 0
8, 98355, Note_on_c, 6, 72, 0
8, 98375, Note_on_c, 6, 72, 117
8, 98375, Note_on_c, 6, 60, 117
8, 98385, Note_on_c, 6, 60, 0
8, 98385, Note_on_c, 6, 72, 0
8, 98405, Note_on_c, 6, 72, 117
8, 98405, Note_on_c, 6, 60, 117
8, 98505, Note_on_c, 6, 60, 0
8, 98505, Note_on_c, 6, 72, 0
8, 98525, Note_on_c, 6, 60, 117
8, 98525, Note_on_c, 6, 72, 117
8, 98595, Note_on_c, 6, 72, 0
8, 98595, Note_on_c, 6, 60, 0
8, 98615, Note_on_c, 6, 72, 117
8, 98615, Note_on_c, 6, 60, 117
8, 98625, Note_on_c, 6, 60, 0
8, 98625, Note_on_c, 6, 72, 0
8, 98645, Note_on_c, 6, 72, 117
8, 98645, Note_on_c, 6, 60, 117
8, 98745, Note_on_c, 6, 60, 0
8, 98745, Note_on_c, 6, 72, 0
8, 98765, Note_on_c, 6, 72, 117
8, 98765, Note_on_c, 6, 60, 117
8, 98835, Note_on_c, 6, 60, 0
8, 98835, Note_on_c, 6, 72, 0
8, 98855, Note_on_c, 6, 72, 117
8, 98855, Note_on_c, 6, 60, 117
8, 98865, Note_on_c, 6, 60, 0
8, 98865, Note_on_c, 6, 72, 0
8, 98885, Note_on_c, 6, 60, 117
8, 98885, Note_on_c, 6, 72, 117
8, 98995, Note_on_c, 6, 72, 0
8, 98995, Note_on_c, 6, 60, 0
8, 99005, Note_on_c, 6, 60, 102
8, 99005, Note_on_c, 6, 72, 102
8, 99115, Note_on_c, 6, 72, 0
8, 99115, Note_on_c, 6, 60, 0
8, 99365, Note_on_c, 6, 72, 102
8, 99365, Note_on_c, 6, 60, 102
8, 99485, Note_on_c, 6, 60, 0
8, 99485, Note_on_c, 6, 72, 0
8, 99485, Note_on_c, 6, 72, 102
8, 99485, Note_on_c, 6, 60, 102
8, 99605, Note_on_c, 6, 60, 0
8, 99605, Note_on_c, 6, 72, 0
8, 99725, Note_on_c, 6, 72, 102
8, 99725, Note_on_c, 6, 60, 102
8, 99845, Note_on_c, 6, 60, 0
8, 99845, Note_on_c, 6, 72, 0
8, 99965, Note_on_c, 6, 72, 102
8, 99965, Note_on_c, 6, 60, 102
8, 100085, Note_on_c, 6, 60, 0
8, 100085, Note_on_c, 6, 72, 0
8, 100205, Note_on_c, 6, 60, 102
8, 100205, Note_on_c, 6, 72, 102
8, 100325, Note_on_c, 6, 72, 0
8, 100325, Note_on_c, 6, 60, 0
8, 100445, Note_on_c, 6, 72, 102
8, 100445, Note_on_c, 6, 60, 102
8, 100565, Note_on_c, 6, 60, 0
8, 100565, Note_on_c, 6, 72, 0
8, 100685, Note_on_c, 6, 72, 102
8, 100685, Note_on_c, 6, 60, 102
8, 100805, Note_on_c, 6, 60, 0
8, 100805, Note_on_c, 6, 72, 0
8, 100925, Note_on_c, 6, 72, 102
8, 100925, Note_on_c, 6, 60, 102
8, 101045, Note_on_c, 6, 60, 0
8, 101045, Note_on_c, 6, 72, 0
8, 101165, Note_on_c, 6, 72, 102
8, 101165, Note_on_c, 6, 60, 102
8, 101285, Note_on_c, 6, 60, 0
8, 101285, Note_on_c, 6, 72, 0
8, 101405, Note_on_c, 6, 79, 87
8, 101405, Note_on_c, 6, 67, 102
8, 101525, Note_on_c, 6, 67, 0
8, 101525, Note_on_c, 6, 79, 0
8, 101645, Note_on_c, 6, 67, 102
8, 101645, Note_on_c, 6, 55, 102
8, 101765, Note_on_c, 6, 55, 0
8, 101765, Note_on_c, 6, 67, 0
8, 101765, Note_on_c, 6, 60, 102
8, 101765, Note_on_c, 6, 72, 102
8, 101885, Note_on_c, 6, 72, 0
8, 101885, Note_on_c, 6, 60, 0
8, 102125, Control_c, 6, 11, 87
8, 102125, Note_on_c, 6, 72, 102
8, 102125, Note_on_c, 6, 60, 102
8, 102365, Note_on_c, 6, 60, 0
8, 102365, Note_on_c, 6, 72, 0
8, 102605, Note_on_c, 6, 72, 102
8, 102605, Note_on_c, 6, 60, 102
8, 102845, Note_on_c, 6, 60, 0
8, 102845, Note_on_c, 6, 72, 0
8, 103085, Note_on_c, 6, 72, 102
8, 103085, Note_on_c, 6, 60, 102
8, 103325, Note_on_c, 6, 60, 0
8, 103325, Note_on_c, 6, 72, 0
8, 103565, Note_on_c, 6, 72, 102
8, 103565, Note_on_c, 6, 60, 102
8, 103805, Note_on_c, 6, 60, 0
8, 103805, Note_on_c, 6, 72, 0
8, 103805, Note_on_c, 6, 72, 102
8, 103805, Note_on_c, 6, 60, 102
8, 103865, Note_on_c, 6, 60, 0
8, 103865, Note_on_c, 6, 72, 0
8, 103865, Note_on_c, 6, 72, 102
8, 103865, Note_on_c, 6, 60, 102
8, 103925, Note_on_c, 6, 60, 0
8, 103925, Note_on_c, 6, 72, 0
8, 103925, Note_on_c, 6, 72, 102
8, 103925, Note_on_c, 6, 60, 102
8, 104045, Note_on_c, 6, 60, 0
8, 104045, Note_on_c, 6, 72, 0
8, 104165, Note_on_c, 6, 60, 102
8, 104165, Note_on_c, 6, 72, 102
8, 104285, Note_on_c, 6, 72, 0
8, 104285, Note_on_c, 6, 60, 0
8, 104285, Note_on_c, 6, 60, 102
8, 104285, Note_on_c, 6, 72, 102
8, 104345, Note_on_c, 6, 72, 0
8, 104345, Note_on_c, 6, 60, 0
8, 104345, Note_on_c, 6, 72, 102
8, 104345, Note_on_c, 6, 60, 102
8, 104405, Note_on_c, 6, 60, 0
8, 104405, Note_on_c, 6, 72, 0
8, 104405, Note_on_c, 6, 60, 102
8, 104405, Note_on_c, 6, 72, 102
8, 104525, Note_on_c, 6, 72, 0
8, 104525, Note_on_c, 6, 60, 0
8, 104645, Note_on_c, 6, 72, 102
8, 104645, Note_on_c, 6, 60, 102
8, 104765, Note_on_c, 6, 60, 0
8, 104765, Note_on_c, 6, 72, 0
8, 104765, Note_on_c, 6, 60, 102
8, 104765, Note_on_c, 6, 72, 102
8, 104825, Note_on_c, 6, 72, 0
8, 104825, Note_on_c, 6, 60, 0
8, 104825, Note_on_c, 6, 72, 102
8, 104825, Note_on_c, 6, 60, 102
8, 104885, Note_on_c, 6, 60, 0
8, 104885, Note_on_c, 6, 72, 0
8, 104885, Note_on_c, 6, 72, 102
8, 104885, Note_on_c, 6, 60, 102
8, 105005, Note_on_c, 6, 60, 0
8, 105005, Note_on_c, 6, 72, 0
8, 105005, Note_on_c, 6, 72, 102
8, 105005, Note_on_c, 6, 60, 102
8, 105065, Note_on_c, 6, 60, 0
8, 105065, Note_on_c, 6, 72, 0
8, 105065, Note_on_c, 6, 72, 102
8, 105065, Note_on_c, 6, 60, 102
8, 105125, Note_on_c, 6, 60, 0
8, 105125, Note_on_c, 6, 72, 0
8, 105125, Note_on_c, 6, 60, 102
8, 105125, Note_on_c, 6, 72, 102
8, 105245, Note_on_c, 6, 72, 0
8, 105245, Note_on_c, 6, 60, 0
8, 105245, Note_on_c, 6, 72, 102
8, 105245, Note_on_c, 6, 60, 102
8, 105305, Note_on_c, 6, 60, 0
8, 105305, Note_on_c, 6, 72, 0
8, 105305, Note_on_c, 6, 72, 102
8, 105305, Note_on_c, 6, 60, 102
8, 105365, Note_on_c, 6, 60, 0
8, 105365, Note_on_c, 6, 72, 0
8, 105365, Note_on_c, 6, 72, 102
8, 105365, Note_on_c, 6, 60, 102
8, 105485, Note_on_c, 6, 60, 0
8, 105485, Note_on_c, 6, 72, 0
8, 105485, Note_on_c, 6, 72, 102
8, 105485, Note_on_c, 6, 60, 102
8, 105545, Note_on_c, 6, 60, 0
8, 105545, Note_on_c, 6, 72, 0
8, 105545, Note_on_c, 6, 60, 102
8, 105545, Note_on_c, 6, 72, 102
8, 105605, Note_on_c, 6, 72, 0
8, 105605, Note_on_c, 6, 60, 0
8, 105605, Note_on_c, 6, 76, 87
8, 105605, Note_on_c, 6, 64, 102
8, 105725, Note_on_c, 6, 64, 0
8, 105725, Note_on_c, 6, 76, 0
8, 105725, Note_on_c, 6, 76, 87
8, 105725, Note_on_c, 6, 64, 102
8, 105785, Note_on_c, 6, 64, 0
8, 105785, Note_on_c, 6, 76, 0
8, 105785, Note_on_c, 6, 76, 87
8, 105785, Note_on_c, 6, 64, 102
8, 105845, Note_on_c, 6, 64, 0
8, 105845, Note_on_c, 6, 76, 0
8, 105845, Note_on_c, 6, 76, 87
8, 105845, Note_on_c, 6, 64, 102
8, 105965, Note_on_c, 6, 64, 0
8, 105965, Note_on_c, 6, 76, 0
8, 105965, Note_on_c, 6, 64, 102
8, 105965, Note_on_c, 6, 76, 87
8, 106025, Note_on_c, 6, 76, 0
8, 106025, Note_on_c, 6, 64, 0
8, 106025, Note_on_c, 6, 64, 102
8, 106025, Note_on_c, 6, 76, 87
8, 106085, Note_on_c, 6, 76, 0
8, 106085, Note_on_c, 6, 64, 0
8, 106085, Note_on_c, 6, 64, 102
8, 106085, Note_on_c, 6, 76, 87
8, 106205, Note_on_c, 6, 76, 0
8, 106205, Note_on_c, 6, 64, 0
8, 106205, Note_on_c, 6, 64, 102
8, 106205, Note_on_c, 6, 76, 87
8, 106265, Note_on_c, 6, 76, 0
8, 106265, Note_on_c, 6, 64, 0
8, 106265, Note_on_c, 6, 76, 87
8, 106265, Note_on_c, 6, 64, 102
8, 106325, Note_on_c, 6, 64, 0
8, 106325, Note_on_c, 6, 76, 0
8, 106325, Note_on_c, 6, 76, 87
8, 106325, Note_on_c, 6, 64, 102
8, 106445, Note_on_c, 6, 64, 0
8, 106445, Note_on_c, 6, 76, 0
8, 106445, Note_on_c, 6, 76, 87
8, 106445, Note_on_c, 6, 64, 102
8, 106505, Note_on_c, 6, 64, 0
8, 106505, Note_on_c, 6, 76, 0
8, 106505, Note_on_c, 6, 76, 87
8, 106505, Note_on_c, 6, 64, 102
8, 106565, Note_on_c, 6, 64, 0
8, 106565, Note_on_c, 6, 76, 0
8, 110405, Control_c, 6, 11, 102
8, 110405, Note_on_c, 6, 76, 84
8, 110405, Note_on_c, 6, 64, 84
8, 110525, Note_on_c, 6, 64, 0
8, 110525, Note_on_c, 6, 76, 0
8, 123845, Control_c, 6, 11, 87
8, 123845, Note_on_c, 6, 76, 102
8, 123845, Note_on_c, 6, 64, 102
8, 123965, Note_on_c, 6, 64, 0
8, 123965, Note_on_c, 6, 76, 0
8, 124325, Note_on_c, 6, 76, 102
8, 124325, Note_on_c, 6, 64, 102
8, 124445, Note_on_c, 6, 64, 0
8, 124445, Note_on_c, 6, 76, 0
8, 125285, Control_c, 6, 11, 47
8, 125441, Control_c, 6, 11, 48
8, 125597, Control_c, 6, 11, 49
8, 125753, Control_c, 6, 11, 50
8, 125765, Note_on_c, 6, 76, 102
8, 125765, Note_on_c, 6, 64, 102
8, 125885, Note_on_c, 6, 64, 0
8, 125885, Note_on_c, 6, 76, 0
8, 125909, Control_c, 6, 11, 51
8, 126065, Control_c, 6, 11, 52
8, 126221, Control_c, 6, 11, 53
8, 126245, Note_on_c, 6, 76, 102
8, 126245, Note_on_c, 6, 64, 102
8, 126365, Note_on_c, 6, 64, 0
8, 126365, Note_on_c, 6, 76, 0
8, 126377, Control_c, 6, 11, 54
8, 126533, Control_c, 6, 11, 55
8, 126689, Control_c, 6, 11, 56
8, 126845, Control_c, 6, 11, 57
8, 127001, Control_c, 6, 11, 58
8, 127157, Control_c, 6, 11, 59
8, 127313, Control_c, 6, 11, 60
8, 127469, Control_c, 6, 11, 61
8, 127625, Control_c, 6, 11, 62
8, 127781, Control_c, 6, 11, 63
8, 127925, Note_on_c, 6, 64, 127
8, 127925, Note_on_c, 6, 76, 109
8, 127937, Control_c, 6, 11, 64
8, 128093, Control_c, 6, 11, 65
8, 128165, Note_on_c, 6, 76, 0
8, 128165, Note_on_c, 6, 64, 0
8, 128249, Control_c, 6, 11, 66
8, 128405, Control_c, 6, 11, 67
8, 128405, Note_on_c, 6, 76, 109
8, 128405, Note_on_c, 6, 64, 127
8, 128561, Control_c, 6, 11, 68
8, 128645, Note_on_c, 6, 64, 0
8, 128645, Note_on_c, 6, 76, 0
8, 128717, Control_c, 6, 11, 69
8, 128873, Control_c, 6, 11, 70
8, 128885, Note_on_c, 6, 76, 109
8, 128885, Note_on_c, 6, 64, 127
8, 129029, Control_c, 6, 11, 71
8, 129125, Note_on_c, 6, 64, 0
8, 129125, Note_on_c, 6, 76, 0
8, 129185, Control_c, 6, 11, 72
8, 129341, Control_c, 6, 11, 73
8, 129365, Note_on_c, 6, 76, 109
8, 129365, Note_on_c, 6, 64, 127
8, 129497, Control_c, 6, 11, 74
8, 129605, Note_on_c, 6, 64, 0
8, 129605, Note_on_c, 6, 76, 0
8, 129653, Control_c, 6, 11, 75
8, 129809, Control_c, 6, 11, 76
8, 129845, Note_on_c, 6, 72, 127
8, 129845, Note_on_c, 6, 60, 127
8, 129965, Control_c, 6, 11, 77
8, 130085, Note_on_c, 6, 60, 0
8, 130085, Note_on_c, 6, 72, 0
8, 130121, Control_c, 6, 11, 78
8, 130277, Control_c, 6, 11, 79
8, 130325, Note_on_c, 6, 72, 127
8, 130325, Note_on_c, 6, 60, 127
8, 130433, Control_c, 6, 11, 80
8, 130565, Note_on_c, 6, 60, 0
8, 130565, Note_on_c, 6, 72, 0
8, 130589, Control_c, 6, 11, 81
8, 130745, Control_c, 6, 11, 82
8, 130805, Note_on_c, 6, 72, 127
8, 130805, Note_on_c, 6, 60, 127
8, 130901, Control_c, 6, 11, 83
8, 131045, Note_on_c, 6, 60, 0
8, 131045, Note_on_c, 6, 72, 0
8, 131057, Control_c, 6, 11, 84
8, 131213, Control_c, 6, 11, 85
8, 131285, Note_on_c, 6, 72, 127
8, 131285, Note_on_c, 6, 60, 127
8, 131369, Control_c, 6, 11, 86
8, 131525, Note_on_c, 6, 60, 0
8, 131525, Note_on_c, 6, 72, 0
8, 131525, Control_c, 6, 11, 87
8, 133444, Program_c, 6, 61
8, 133445, Control_c, 6, 11, 102
8, 133445, Control_c, 6, 91, 70
8, 133445, Note_on_c, 6, 76, 127
8, 133445, Note_on_c, 6, 64, 127
8, 133464, Control_c, 6, 11, 103
8, 133483, Control_c, 6, 11, 104
8, 133502, Control_c, 6, 11, 105
8, 133521, Control_c, 6, 11, 106
8, 133541, Control_c, 6, 11, 107
8, 133560, Control_c, 6, 11, 108
8, 133579, Control_c, 6, 11, 109
8, 133598, Control_c, 6, 11, 110
8, 133617, Control_c, 6, 11, 111
8, 133637, Control_c, 6, 11, 112
8, 133656, Control_c, 6, 11, 113
8, 133675, Control_c, 6, 11, 114
8, 133694, Control_c, 6, 11, 115
8, 133713, Control_c, 6, 11, 116
8, 133733, Control_c, 6, 11, 117
8, 133752, Control_c, 6, 11, 118
8, 133771, Control_c, 6, 11, 119
8, 133790, Control_c, 6, 11, 120
8, 133809, Control_c, 6, 11, 121
8, 133829, Control_c, 6, 11, 122
8, 133848, Control_c, 6, 11, 123
8, 133867, Control_c, 6, 11, 124
8, 133886, Control_c, 6, 11, 125
8, 133905, Control_c, 6, 11, 126
8, 133925, Control_c, 6, 11, 127
8, 135364, Program_c, 6, 56
8, 135365, Note_on_c, 6, 64, 0
8, 135365, Note_on_c, 6, 76, 0
8, 135365, Note_on_c, 6, 76, 95
8, 135365, Note_on_c, 6, 64, 116
8, 135485, Note_on_c, 6, 64, 0
8, 135485, Note_on_c, 6, 76, 0
8, 135485, Note_on_c, 6, 76, 95
8, 135485, Note_on_c, 6, 64, 116
8, 135605, Note_on_c, 6, 64, 0
8, 135605, Note_on_c, 6, 76, 0
8, 135605, Note_on_c, 6, 76, 95
8, 135605, Note_on_c, 6, 64, 116
8, 135725, Note_on_c, 6, 64, 0
8, 135725, Note_on_c, 6, 76, 0
8, 135725, Note_on_c, 6, 76, 95
8, 135725, Note_on_c, 6, 64, 116
8, 135845, Note_on_c, 6, 64, 0
8, 135845, Note_on_c, 6, 76, 0
8, 135845, Note_on_c, 6, 64, 116
8, 135845, Note_on_c, 6, 76, 95
8, 135965, Note_on_c, 6, 76, 0
8, 135965, Note_on_c, 6, 64, 0
8, 135965, Note_on_c, 6, 64, 116
8, 135965, Note_on_c, 6, 76, 95
8, 136085, Note_on_c, 6, 76, 0
8, 136085, Note_on_c, 6, 64, 0
8, 136085, Note_on_c, 6, 64, 116
8, 136085, Note_on_c, 6, 76, 95
8, 136205, Note_on_c, 6, 76, 0
8, 136205, Note_on_c, 6, 64, 0
8, 136205, Note_on_c, 6, 64, 116
8, 136205, Note_on_c, 6, 76, 95
8, 136325, Note_on_c, 6, 76, 0
8, 136325, Note_on_c, 6, 64, 0
8, 136325, Note_on_c, 6, 76, 95
8, 136325, Note_on_c, 6, 64, 116
8, 136445, Note_on_c, 6, 64, 0
8, 136445, Note_on_c, 6, 76, 0
8, 136445, Note_on_c, 6, 76, 95
8, 136445, Note_on_c, 6, 64, 116
8, 136565, Note_on_c, 6, 64, 0
8, 136565, Note_on_c, 6, 76, 0
8, 136565, Note_on_c, 6, 76, 95
8, 136565, Note_on_c, 6, 64, 116
8, 136685, Note_on_c, 6, 64, 0
8, 136685, Note_on_c, 6, 76, 0
8, 136685, Note_on_c, 6, 76, 95
8, 136685, Note_on_c, 6, 64, 116
8, 136805, Note_on_c, 6, 64, 0
8, 136805, Note_on_c, 6, 76, 0
8, 136805, Note_on_c, 6, 64, 116
8, 136805, Note_on_c, 6, 76, 95
8, 136925, Note_on_c, 6, 76, 0
8, 136925, Note_on_c, 6, 64, 0
8, 138245, Note_on_c, 6, 76, 95
8, 138245, Note_on_c, 6, 64, 116
8, 138365, Note_on_c, 6, 64, 0
8, 138365, Note_on_c, 6, 76, 0
8, 138365, Note_on_c, 6, 76, 95
8, 138365, Note_on_c, 6, 64, 116
8, 138485, Note_on_c, 6, 64, 0
8, 138485, Note_on_c, 6, 76, 0
8, 138485, Note_on_c, 6, 76, 95
8, 138485, Note_on_c, 6, 64, 116
8, 138605, Note_on_c, 6, 64, 0
8, 138605, Note_on_c, 6, 76, 0
8, 138605, Note_on_c, 6, 76, 95
8, 138605, Note_on_c, 6, 64, 116
8, 138725, Note_on_c, 6, 64, 0
8, 138725, Note_on_c, 6, 76, 0
8, 138725, Note_on_c, 6, 64, 116
8, 138725, Note_on_c, 6, 76, 95
8, 138845, Note_on_c, 6, 76, 0
8, 138845, Note_on_c, 6, 64, 0
8, 138845, Note_on_c, 6, 76, 95
8, 138845, Note_on_c, 6, 64, 116
8, 138965, Note_on_c, 6, 64, 0
8, 138965, Note_on_c, 6, 76, 0
8, 138965, Note_on_c, 6, 76, 95
8, 138965, Note_on_c, 6, 64, 116
8, 139085, Note_on_c, 6, 64, 0
8, 139085, Note_on_c, 6, 76, 0
8, 139085, Note_on_c, 6, 76, 95
8, 139085, Note_on_c, 6, 64, 116
8, 139205, Note_on_c, 6, 64, 0
8, 139205, Note_on_c, 6, 76, 0
8, 139205, Note_on_c, 6, 76, 95
8, 139205, Note_on_c, 6, 64, 116
8, 139325, Note_on_c, 6, 64, 0
8, 139325, Note_on_c, 6, 76, 0
8, 139325, Note_on_c, 6, 64, 116
8, 139325, Note_on_c, 6, 76, 95
8, 139445, Note_on_c, 6, 76, 0
8, 139445, Note_on_c, 6, 64, 0
8, 139445, Note_on_c, 6, 76, 95
8, 139445, Note_on_c, 6, 64, 116
8, 139565, Note_on_c, 6, 64, 0
8, 139565, Note_on_c, 6, 76, 0
8, 139565, Note_on_c, 6, 76, 95
8, 139565, Note_on_c, 6, 64, 116
8, 139685, Note_on_c, 6, 64, 0
8, 139685, Note_on_c, 6, 76, 0
8, 139685, Note_on_c, 6, 76, 95
8, 139685, Note_on_c, 6, 64, 116
8, 139805, Note_on_c, 6, 64, 0
8, 139805, Note_on_c, 6, 76, 0
8, 141125, Control_c, 6, 11, 122
8, 141125, Note_on_c, 6, 64, 116
8, 141125, Note_on_c, 6, 76, 95
8, 141143, Control_c, 6, 11, 119
8, 141161, Control_c, 6, 11, 116
8, 141179, Control_c, 6, 11, 113
8, 141197, Control_c, 6, 11, 110
8, 141215, Control_c, 6, 11, 107
8, 141233, Control_c, 6, 11, 104
8, 141605, Note_on_c, 6, 76, 0
8, 141605, Note_on_c, 6, 64, 0
8, 141605, Note_on_c, 6, 76, 95
8, 141605, Note_on_c, 6, 64, 116
8, 141785, Note_on_c, 6, 64, 0
8, 141785, Note_on_c, 6, 76, 0
8, 141785, Note_on_c, 6, 64, 116
8, 141785, Note_on_c, 6, 76, 95
8, 141845, Note_on_c, 6, 76, 0
8, 141845, Note_on_c, 6, 64, 0
8, 141845, Note_on_c, 6, 64, 116
8, 141845, Note_on_c, 6, 76, 95
8, 141965, Note_on_c, 6, 76, 0
8, 141965, Note_on_c, 6, 64, 0
8, 142085, Control_c, 6, 11, 122
8, 142085, Note_on_c, 6, 76, 95
8, 142085, Note_on_c, 6, 64, 116
8, 142103, Control_c, 6, 11, 119
8, 142121, Control_c, 6, 11, 116
8, 142139, Control_c, 6, 11, 113
8, 142157, Control_c, 6, 11, 110
8, 142175, Control_c, 6, 11, 107
8, 142193, Control_c, 6, 11, 104
8, 142565, Note_on_c, 6, 64, 0
8, 142565, Note_on_c, 6, 76, 0
8, 142565, Note_on_c, 6, 76, 95
8, 142565, Note_on_c, 6, 64, 116
8, 142745, Note_on_c, 6, 64, 0
8, 142745, Note_on_c, 6, 76, 0
8, 142745, Note_on_c, 6, 64, 116
8, 142745, Note_on_c, 6, 76, 95
8, 142805, Note_on_c, 6, 76, 0
8, 142805, Note_on_c, 6, 64, 0
8, 142805, Note_on_c, 6, 64, 116
8, 142805, Note_on_c, 6, 76, 95
8, 142925, Note_on_c, 6, 76, 0
8, 142925, Note_on_c, 6, 64, 0
8, 143045, Control_c, 6, 11, 122
8, 143045, Note_on_c, 6, 76, 95
8, 143045, Note_on_c, 6, 64, 116
8, 143063, Control_c, 6, 11, 119
8, 143081, Control_c, 6, 11, 116
8, 143099, Control_c, 6, 11, 113
8, 143117, Control_c, 6, 11, 110
8, 143135, Control_c, 6, 11, 107
8, 143153, Control_c, 6, 11, 104
8, 143525, Note_on_c, 6, 64, 0
8, 143525, Note_on_c, 6, 76, 0
8, 143525, Note_on_c, 6, 76, 95
8, 143525, Note_on_c, 6, 64, 116
8, 143705, Note_on_c, 6, 64, 0
8, 143705, Note_on_c, 6, 76, 0
8, 143705, Note_on_c, 6, 76, 95
8, 143705, Note_on_c, 6, 64, 116
8, 143765, Note_on_c, 6, 64, 0
8, 143765, Note_on_c, 6, 76, 0
8, 143765, Note_on_c, 6, 76, 95
8, 143765, Note_on_c, 6, 64, 116
8, 143885, Note_on_c, 6, 64, 0
8, 143885, Note_on_c, 6, 76, 0
8, 144005, Control_c, 6, 11, 122
8, 144005, Note_on_c, 6, 76, 95
8, 144005, Note_on_c, 6, 64, 116
8, 144023, Control_c, 6, 11, 119
8, 144041, Control_c, 6, 11, 116
8, 144059, Control_c, 6, 11, 113
8, 144077, Control_c, 6, 11, 110
8, 144095, Control_c, 6, 11, 107
8, 144113, Control_c, 6, 11, 104
8, 144485, Note_on_c, 6, 64, 0
8, 144485, Note_on_c, 6, 76, 0
8, 144485, Note_on_c, 6, 64, 116
8, 144485, Note_on_c, 6, 76, 95
8, 144665, Note_on_c, 6, 76, 0
8, 144665, Note_on_c, 6, 64, 0
8, 144665, Note_on_c, 6, 64, 116
8, 144665, Note_on_c, 6, 76, 95
8, 144725, Note_on_c, 6, 76, 0
8, 144725, Note_on_c, 6, 64, 0
8, 144725, Note_on_c, 6, 76, 95
8, 144725, Note_on_c, 6, 64, 116
8, 144845, Note_on_c, 6, 64, 0
8, 144845, Note_on_c, 6, 76, 0
8, 144965, Note_on_c, 6, 64, 116
8, 144965, Note_on_c, 6, 76, 95
8, 145085, Note_on_c, 6, 76, 0
8, 145085, Note_on_c, 6, 64, 0
8, 145205, Note_on_c, 6, 64, 116
8, 145205, Note_on_c, 6, 76, 95
8, 145325, Note_on_c, 6, 76, 0
8, 145325, Note_on_c, 6, 64, 0
8, 145445, Note_on_c, 6, 64, 116
8, 145445, Note_on_c, 6, 76, 95
8, 145565, Note_on_c, 6, 76, 0
8, 145565, Note_on_c, 6, 64, 0
8, 145685, Note_on_c, 6, 64, 116
8, 145685, Note_on_c, 6, 76, 95
8, 145805, Note_on_c, 6, 76, 0
8, 145805, Note_on_c, 6, 64, 0
8, 145925, Note_on_c, 6, 76, 95
8, 145925, Note_on_c, 6, 64, 116
8, 146045, Note_on_c, 6, 64, 0
8, 146045, Note_on_c, 6, 76, 0
8, 146165, Note_on_c, 6, 64, 116
8, 146165, Note_on_c, 6, 76, 95
8, 146285, Note_on_c, 6, 76, 0
8, 146285, Note_on_c, 6, 64, 0
8, 146405, Note_on_c, 6, 76, 95
8, 146405, Note_on_c, 6, 64, 116
8, 146525, Note_on_c, 6, 64, 0
8, 146525, Note_on_c, 6, 76, 0
8, 146645, Note_on_c, 6, 76, 95
8, 146645, Note_on_c, 6, 64, 116
8, 146765, Note_on_c, 6, 64, 0
8, 146765, Note_on_c, 6, 76, 0
8, 146885, Note_on_c, 6, 76, 95
8, 146885, Note_on_c, 6, 64, 116
8, 147005, Note_on_c, 6, 64, 0
8, 147005, Note_on_c, 6, 76, 0
8, 147365, Note_on_c, 6, 64, 116
8, 147365, Note_on_c, 6, 76, 95
8, 147485, Note_on_c, 6, 76, 0
8, 147485, Note_on_c, 6, 64, 0
8, 147845, Note_on_c, 6, 64, 116
8, 147845, Note_on_c, 6, 76, 95
8, 147965, Note_on_c, 6, 76, 0
8, 147965, Note_on_c, 6, 64, 0
8, 148325, Control_c, 6, 121, 0
8, 148325, End_track
9, 0, Start_track
9, 0, MIDI_port, 0
9, 0, Title_t, "Timpani"
9, 0, Program_c, 15, 47
9, 0, Control_c, 15, 10, 97
9, 16, Control_c, 15, 121, 0
9, 21, Program_c, 15, 47
9, 26, Pitch_bend_c, 15, 8192
9, 31, Control_c, 15, 11, 127
9, 36, Control_c, 15, 7, 127
9, 41, Control_c, 15, 91, 100
9, 46, Control_c, 15, 93, 90
9, 496, Note_on_c, 15, 52, 70
9, 646, Note_on_c, 15, 52, 0
9, 676, Note_on_c, 15, 47, 70
9, 726, Note_on_c, 15, 47, 0
9, 736, Note_on_c, 15, 47, 70
9, 796, Note_on_c, 15, 47, 0
9, 976, Note_on_c, 15, 52, 70
9, 1126, Note_on_c, 15, 52, 0
9, 1156, Note_on_c, 15, 52, 70
9, 1206, Note_on_c, 15, 52, 0
9, 1216, Note_on_c, 15, 52, 70
9, 1276, Note_on_c, 15, 52, 0
9, 1456, Note_on_c, 15, 52, 70
9, 1606, Note_on_c, 15, 52, 0
9, 1636, Note_on_c, 15, 52, 70
9, 1686, Note_on_c, 15, 52, 0
9, 1696, Note_on_c, 15, 52, 70
9, 1756, Note_on_c, 15, 52, 0
9, 1816, Note_on_c, 15, 52, 70
9, 1876, Note_on_c, 15, 52, 0
9, 1936, Note_on_c, 15, 47, 70
9, 1996, Note_on_c, 15, 47, 0
9, 6256, Note_on_c, 15, 52, 70
9, 6406, Note_on_c, 15, 52, 0
9, 6436, Note_on_c, 15, 52, 70
9, 6486, Note_on_c, 15, 52, 0
9, 6496, Note_on_c, 15, 52, 70
9, 6556, Note_on_c, 15, 52, 0
9, 6736, Note_on_c, 15, 52, 70
9, 6886, Note_on_c, 15, 52, 0
9, 6916, Note_on_c, 15, 52, 70
9, 6966, Note_on_c, 15, 52, 0
9, 6976, Note_on_c, 15, 52, 70
9, 7036, Note_on_c, 15, 52, 0
9, 7216, Note_on_c, 15, 52, 70
9, 7366, Note_on_c, 15, 52, 0
9, 7396, Note_on_c, 15, 52, 70
9, 7446, Note_on_c, 15, 52, 0
9, 7456, Note_on_c, 15, 52, 70
9, 7516, Note_on_c, 15, 52, 0
9, 7576, Note_on_c, 15, 52, 70
9, 7636, Note_on_c, 15, 52, 0
9, 7696, Note_on_c, 15, 52, 70
9, 7756, Note_on_c, 15, 52, 0
9, 14896, Note_on_c, 15, 47, 53
9, 15016, Note_on_c, 15, 47, 0
9, 15136, Note_on_c, 15, 47, 54
9, 15256, Note_on_c, 15, 47, 0
9, 15376, Note_on_c, 15, 47, 57
9, 15496, Note_on_c, 15, 47, 0
9, 15616, Note_on_c, 15, 47, 61
9, 15736, Note_on_c, 15, 47, 0
9, 15856, Note_on_c, 15, 47, 63
9, 15976, Note_on_c, 15, 47, 0
9, 16096, Note_on_c, 15, 47, 65
9, 16216, Note_on_c, 15, 47, 0
9, 16336, Note_on_c, 15, 47, 69
9, 16456, Note_on_c, 15, 47, 0
9, 16576, Note_on_c, 15, 47, 71
9, 16696, Note_on_c, 15, 47, 0
9, 16816, Note_on_c, 15, 47, 74
9, 16936, Note_on_c, 15, 47, 0
9, 17056, Note_on_c, 15, 47, 77
9, 17176, Note_on_c, 15, 47, 0
9, 17296, Note_on_c, 15, 47, 79
9, 17416, Note_on_c, 15, 47, 0
9, 17536, Note_on_c, 15, 47, 82
9, 17656, Note_on_c, 15, 47, 0
9, 17776, Note_on_c, 15, 47, 76
9, 17836, Note_on_c, 15, 47, 0
9, 17896, Note_on_c, 15, 47, 76
9, 17956, Note_on_c, 15, 47, 0
9, 18016, Note_on_c, 15, 47, 76
9, 18076, Note_on_c, 15, 47, 0
9, 18136, Note_on_c, 15, 47, 76
9, 18196, Note_on_c, 15, 47, 0
9, 18256, Note_on_c, 15, 47, 76
9, 18316, Note_on_c, 15, 47, 0
9, 18376, Note_on_c, 15, 47, 76
9, 18436, Note_on_c, 15, 47, 0
9, 18496, Note_on_c, 15, 47, 76
9, 18556, Note_on_c, 15, 47, 0
9, 18616, Note_on_c, 15, 47, 76
9, 18676, Note_on_c, 15, 47, 0
9, 18736, Note_on_c, 15, 47, 22
9, 18796, Note_on_c, 15, 47, 0
9, 30736, Note_on_c, 15, 52, 67
9, 30856, Note_on_c, 15, 52, 0
9, 31216, Note_on_c, 15, 52, 67
9, 31336, Note_on_c, 15, 52, 0
9, 31696, Note_on_c, 15, 52, 67
9, 31816, Note_on_c, 15, 52, 0
9, 32176, Note_on_c, 15, 52, 67
9, 32296, Note_on_c, 15, 52, 0
9, 32416, Note_on_c, 15, 52, 67
9, 32536, Note_on_c, 15, 52, 0
9, 32656, Note_on_c, 15, 52, 67
9, 32776, Note_on_c, 15, 52, 0
9, 32776, Note_on_c, 15, 52, 67
9, 32896, Note_on_c, 15, 52, 0
9, 33136, Note_on_c, 15, 52, 67
9, 33256, Note_on_c, 15, 52, 0
9, 33256, Note_on_c, 15, 52, 67
9, 33376, Note_on_c, 15, 52, 0
9, 33616, Note_on_c, 15, 52, 67
9, 33736, Note_on_c, 15, 52, 0
9, 33736, Note_on_c, 15, 52, 67
9, 33856, Note_on_c, 15, 52, 0
9, 33976, Note_on_c, 15, 52, 67
9, 34096, Note_on_c, 15, 52, 0
9, 34096, Note_on_c, 15, 52, 67
9, 34216, Note_on_c, 15, 52, 0
9, 34216, Note_on_c, 15, 52, 67
9, 34336, Note_on_c, 15, 52, 0
9, 34336, Note_on_c, 15, 52, 67
9, 34456, Note_on_c, 15, 52, 0
9, 34456, Note_on_c, 15, 52, 67
9, 34576, Note_on_c, 15, 52, 0
9, 34576, Note_on_c, 15, 52, 67
9, 34696, Note_on_c, 15, 52, 0
9, 34816, Note_on_c, 15, 52, 67
9, 34936, Note_on_c, 15, 52, 0
9, 35056, Note_on_c, 15, 52, 67
9, 35176, Note_on_c, 15, 52, 0
9, 35296, Note_on_c, 15, 52, 67
9, 35416, Note_on_c, 15, 52, 0
9, 35536, Note_on_c, 15, 47, 76
9, 35596, Note_on_c, 15, 47, 0
9, 35596, Note_on_c, 15, 47, 68
9, 35656, Note_on_c, 15, 47, 0
9, 35656, Note_on_c, 15, 47, 60
9, 35716, Note_on_c, 15, 47, 0
9, 35716, Note_on_c, 15, 47, 60
9, 35776, Note_on_c, 15, 47, 0
9, 35776, Note_on_c, 15, 47, 60
9, 35836, Note_on_c, 15, 47, 0
9, 35836, Note_on_c, 15, 47, 60
9, 35896, Note_on_c, 15, 47, 0
9, 35896, Note_on_c, 15, 47, 60
9, 35956, Note_on_c, 15, 47, 0
9, 35956, Note_on_c, 15, 47, 60
9, 36016, Note_on_c, 15, 47, 0
9, 36016, Note_on_c, 15, 47, 60
9, 36076, Note_on_c, 15, 47, 0
9, 36076, Note_on_c, 15, 47, 60
9, 36136, Note_on_c, 15, 47, 0
9, 36136, Note_on_c, 15, 47, 60
9, 36196, Note_on_c, 15, 47, 0
9, 36196, Note_on_c, 15, 47, 60
9, 36256, Note_on_c, 15, 47, 0
9, 36256, Note_on_c, 15, 47, 60
9, 36316, Note_on_c, 15, 47, 0
9, 36316, Note_on_c, 15, 47, 60
9, 36376, Note_on_c, 15, 47, 0
9, 36376, Note_on_c, 15, 47, 60
9, 36436, Note_on_c, 15, 47, 0
9, 36436, Note_on_c, 15, 47, 60
9, 36496, Note_on_c, 15, 47, 0
9, 36496, Note_on_c, 15, 52, 77
9, 36616, Note_on_c, 15, 52, 0
9, 36736, Note_on_c, 15, 52, 67
9, 36856, Note_on_c, 15, 52, 0
9, 36976, Note_on_c, 15, 52, 67
9, 37096, Note_on_c, 15, 52, 0
9, 37216, Note_on_c, 15, 52, 67
9, 37336, Note_on_c, 15, 52, 0
9, 37456, Note_on_c, 15, 47, 76
9, 37516, Note_on_c, 15, 47, 0
9, 37516, Note_on_c, 15, 47, 68
9, 37576, Note_on_c, 15, 47, 0
9, 37576, Note_on_c, 15, 47, 60
9, 37636, Note_on_c, 15, 47, 0
9, 37636, Note_on_c, 15, 47, 60
9, 37696, Note_on_c, 15, 47, 0
9, 37696, Note_on_c, 15, 47, 60
9, 37756, Note_on_c, 15, 47, 0
9, 37756, Note_on_c, 15, 47, 60
9, 37816, Note_on_c, 15, 47, 0
9, 37816, Note_on_c, 15, 47, 60
9, 37876, Note_on_c, 15, 47, 0
9, 37876, Note_on_c, 15, 47, 60
9, 37936, Note_on_c, 15, 47, 0
9, 37936, Note_on_c, 15, 47, 60
9, 37996, Note_on_c, 15, 47, 0
9, 37996, Note_on_c, 15, 47, 60
9, 38056, Note_on_c, 15, 47, 0
9, 38056, Note_on_c, 15, 47, 60
9, 38116, Note_on_c, 15, 47, 0
9, 38116, Note_on_c, 15, 47, 60
9, 38176, Note_on_c, 15, 47, 0
9, 38176, Note_on_c, 15, 47, 60
9, 38236, Note_on_c, 15, 47, 0
9, 38236, Note_on_c, 15, 47, 60
9, 38296, Note_on_c, 15, 47, 0
9, 38296, Note_on_c, 15, 47, 60
9, 38356, Note_on_c, 15, 47, 0
9, 38356, Note_on_c, 15, 47, 60
9, 38416, Note_on_c, 15, 47, 0
9, 38416, Note_on_c, 15, 52, 70
9, 38476, Note_on_c, 15, 52, 0
9, 38476, Note_on_c, 15, 52, 60
9, 38536, Note_on_c, 15, 52, 0
9, 38536, Note_on_c, 15, 52, 60
9, 38596, Note_on_c, 15, 52, 0
9, 38596, Note_on_c, 15, 52, 60
9, 38656, Note_on_c, 15, 52, 0
9, 38656, Note_on_c, 15, 52, 60
9, 38716, Note_on_c, 15, 52, 0
9, 38716, Note_on_c, 15, 52, 60
9, 38776, Note_on_c, 15, 52, 0
9, 38776, Note_on_c, 15, 52, 60
9, 38836, Note_on_c, 15, 52, 0
9, 38836, Note_on_c, 15, 52, 60
9, 38896, Note_on_c, 15, 52, 0
9, 38896, Note_on_c, 15, 52, 60
9, 38956, Note_on_c, 15, 52, 0
9, 38956, Note_on_c, 15, 52, 60
9, 39016, Note_on_c, 15, 52, 0
9, 39016, Note_on_c, 15, 52, 60
9, 39076, Note_on_c, 15, 52, 0
9, 39076, Note_on_c, 15, 52, 60
9, 39136, Note_on_c, 15, 52, 0
9, 39136, Note_on_c, 15, 52, 67
9, 39256, Note_on_c, 15, 52, 0
9, 39256, Note_on_c, 15, 52, 67
9, 39376, Note_on_c, 15, 52, 0
9, 39376, Note_on_c, 15, 52, 60
9, 39496, Note_on_c, 15, 52, 0
9, 45016, Note_on_c, 15, 47, 21
9, 45136, Note_on_c, 15, 47, 0
9, 45136, Note_on_c, 15, 52, 25
9, 45256, Note_on_c, 15, 52, 0
9, 45256, Note_on_c, 15, 47, 30
9, 45376, Note_on_c, 15, 47, 0
9, 45496, Note_on_c, 15, 47, 39
9, 45616, Note_on_c, 15, 47, 0
9, 45616, Note_on_c, 15, 52, 44
9, 45736, Note_on_c, 15, 52, 0
9, 45736, Note_on_c, 15, 47, 49
9, 45856, Note_on_c, 15, 47, 0
9, 45976, Note_on_c, 15, 47, 58
9, 46096, Note_on_c, 15, 47, 0
9, 46096, Note_on_c, 15, 52, 63
9, 46216, Note_on_c, 15, 52, 0
9, 46216, Note_on_c, 15, 47, 63
9, 46276, Note_on_c, 15, 47, 0
9, 46276, Note_on_c, 15, 47, 63
9, 46336, Note_on_c, 15, 47, 0
9, 46336, Note_on_c, 15, 52, 63
9, 46456, Note_on_c, 15, 52, 0
9, 46456, Note_on_c, 15, 47, 63
9, 46516, Note_on_c, 15, 47, 0
9, 46516, Note_on_c, 15, 47, 63
9, 46576, Note_on_c, 15, 47, 0
9, 46576, Note_on_c, 15, 52, 63
9, 46696, Note_on_c, 15, 52, 0
9, 46696, Note_on_c, 15, 47, 63
9, 46756, Note_on_c, 15, 47, 0
9, 46756, Note_on_c, 15, 47, 63
9, 46816, Note_on_c, 15, 47, 0
9, 46816, Note_on_c, 15, 52, 63
9, 46936, Note_on_c, 15, 52, 0
9, 46936, Note_on_c, 15, 47, 63
9, 46996, Note_on_c, 15, 47, 0
9, 46996, Note_on_c, 15, 47, 63
9, 47056, Note_on_c, 15, 47, 0
9, 47056, Note_on_c, 15, 52, 72
9, 47176, Note_on_c, 15, 52, 0
9, 48016, Note_on_c, 15, 52, 85
9, 48136, Note_on_c, 15, 52, 0
9, 48976, Note_on_c, 15, 52, 72
9, 49036, Note_on_c, 15, 52, 0
9, 49036, Note_on_c, 15, 52, 72
9, 49096, Note_on_c, 15, 52, 0
9, 49096, Note_on_c, 15, 52, 72
9, 49156, Note_on_c, 15, 52, 0
9, 49156, Note_on_c, 15, 52, 72
9, 49216, Note_on_c, 15, 52, 0
9, 49216, Note_on_c, 15, 52, 72
9, 49276, Note_on_c, 15, 52, 0
9, 49276, Note_on_c, 15, 52, 72
9, 49336, Note_on_c, 15, 52, 0
9, 49336, Note_on_c, 15, 52, 72
9, 49396, Note_on_c, 15, 52, 0
9, 49396, Note_on_c, 15, 52, 72
9, 49456, Note_on_c, 15, 52, 0
9, 49456, Note_on_c, 15, 52, 72
9, 49516, Note_on_c, 15, 52, 0
9, 49516, Note_on_c, 15, 52, 72
9, 49576, Note_on_c, 15, 52, 0
9, 49576, Note_on_c, 15, 52, 72
9, 49636, Note_on_c, 15, 52, 0
9, 49636, Note_on_c, 15, 52, 72
9, 49696, Note_on_c, 15, 52, 0
9, 49696, Note_on_c, 15, 52, 72
9, 49756, Note_on_c, 15, 52, 0
9, 49756, Note_on_c, 15, 52, 72
9, 49816, Note_on_c, 15, 52, 0
9, 49816, Note_on_c, 15, 52, 72
9, 49876, Note_on_c, 15, 52, 0
9, 49876, Note_on_c, 15, 52, 72
9, 49936, Note_on_c, 15, 52, 0
9, 49936, Note_on_c, 15, 52, 85
9, 50056, Note_on_c, 15, 52, 0
9, 50416, Note_on_c, 15, 52, 85
9, 50536, Note_on_c, 15, 52, 0
9, 50896, Note_on_c, 15, 52, 85
9, 51016, Note_on_c, 15, 52, 0
9, 51136, Note_on_c, 15, 52, 85
9, 51256, Note_on_c, 15, 52, 0
9, 51376, Note_on_c, 15, 52, 85
9, 51496, Note_on_c, 15, 52, 0
9, 51616, Note_on_c, 15, 52, 85
9, 51736, Note_on_c, 15, 52, 0
9, 51856, Note_on_c, 15, 47, 85
9, 51976, Note_on_c, 15, 47, 0
9, 52096, Note_on_c, 15, 52, 85
9, 52216, Note_on_c, 15, 52, 0
9, 52816, Note_on_c, 15, 47, 64
9, 52936, Note_on_c, 15, 47, 0
9, 53176, Note_on_c, 15, 47, 67
9, 53296, Note_on_c, 15, 47, 0
9, 53296, Note_on_c, 15, 47, 67
9, 53416, Note_on_c, 15, 47, 0
9, 53656, Note_on_c, 15, 47, 67
9, 53776, Note_on_c, 15, 47, 0
9, 53776, Note_on_c, 15, 47, 67
9, 53896, Note_on_c, 15, 47, 0
9, 54136, Note_on_c, 15, 47, 67
9, 54256, Note_on_c, 15, 47, 0
9, 54256, Note_on_c, 15, 47, 67
9, 54376, Note_on_c, 15, 47, 0
9, 54616, Note_on_c, 15, 47, 67
9, 54736, Note_on_c, 15, 47, 0
9, 54736, Note_on_c, 15, 47, 56
9, 54856, Note_on_c, 15, 47, 0
9, 54856, Note_on_c, 15, 47, 63
9, 54916, Note_on_c, 15, 47, 0
9, 54916, Note_on_c, 15, 47, 63
9, 54976, Note_on_c, 15, 47, 0
9, 54976, Note_on_c, 15, 47, 63
9, 55096, Note_on_c, 15, 47, 0
9, 55216, Note_on_c, 15, 47, 63
9, 55336, Note_on_c, 15, 47, 0
9, 55336, Note_on_c, 15, 47, 63
9, 55396, Note_on_c, 15, 47, 0
9, 55396, Note_on_c, 15, 47, 63
9, 55456, Note_on_c, 15, 47, 0
9, 55456, Note_on_c, 15, 47, 63
9, 55576, Note_on_c, 15, 47, 0
9, 55696, Note_on_c, 15, 47, 63
9, 55816, Note_on_c, 15, 47, 0
9, 55816, Note_on_c, 15, 47, 63
9, 55876, Note_on_c, 15, 47, 0
9, 55876, Note_on_c, 15, 47, 63
9, 55936, Note_on_c, 15, 47, 0
9, 55936, Note_on_c, 15, 47, 63
9, 56056, Note_on_c, 15, 47, 0
9, 56056, Note_on_c, 15, 47, 63
9, 56116, Note_on_c, 15, 47, 0
9, 56116, Note_on_c, 15, 47, 63
9, 56176, Note_on_c, 15, 47, 0
9, 56176, Note_on_c, 15, 47, 63
9, 56296, Note_on_c, 15, 47, 0
9, 56296, Note_on_c, 15, 47, 63
9, 56356, Note_on_c, 15, 47, 0
9, 56356, Note_on_c, 15, 47, 63
9, 56416, Note_on_c, 15, 47, 0
9, 56416, Note_on_c, 15, 47, 63
9, 56536, Note_on_c, 15, 47, 0
9, 56536, Note_on_c, 15, 47, 63
9, 56596, Note_on_c, 15, 47, 0
9, 56596, Note_on_c, 15, 47, 63
9, 56656, Note_on_c, 15, 47, 0
9, 56656, Note_on_c, 15, 47, 59
9, 56776, Note_on_c, 15, 47, 0
9, 68656, Note_on_c, 15, 52, 30
9, 68776, Note_on_c, 15, 52, 0
9, 68836, Note_on_c, 15, 47, 30
9, 68896, Note_on_c, 15, 47, 0
9, 68896, Note_on_c, 15, 47, 30
9, 69016, Note_on_c, 15, 47, 0
9, 69136, Note_on_c, 15, 52, 30
9, 69256, Note_on_c, 15, 52, 0
9, 69316, Note_on_c, 15, 47, 30
9, 69376, Note_on_c, 15, 47, 0
9, 69376, Note_on_c, 15, 47, 30
9, 69496, Note_on_c, 15, 47, 0
9, 69616, Note_on_c, 15, 52, 22
9, 69676, Note_on_c, 15, 52, 0
9, 69676, Note_on_c, 15, 47, 23
9, 69736, Note_on_c, 15, 47, 0
9, 69736, Note_on_c, 15, 52, 25
9, 69796, Note_on_c, 15, 52, 0
9, 69796, Note_on_c, 15, 47, 27
9, 69856, Note_on_c, 15, 47, 0
9, 69856, Note_on_c, 15, 52, 29
9, 69916, Note_on_c, 15, 52, 0
9, 69916, Note_on_c, 15, 47, 31
9, 69976, Note_on_c, 15, 47, 0
9, 69976, Note_on_c, 15, 52, 34
9, 70036, Note_on_c, 15, 52, 0
9, 70036, Note_on_c, 15, 47, 35
9, 70096, Note_on_c, 15, 47, 0
9, 70096, Note_on_c, 15, 52, 38
9, 70156, Note_on_c, 15, 52, 0
9, 70156, Note_on_c, 15, 47, 41
9, 70216, Note_on_c, 15, 47, 0
9, 70216, Note_on_c, 15, 52, 43
9, 70276, Note_on_c, 15, 52, 0
9, 70276, Note_on_c, 15, 47, 46
9, 70336, Note_on_c, 15, 47, 0
9, 70336, Note_on_c, 15, 52, 48
9, 70396, Note_on_c, 15, 52, 0
9, 70396, Note_on_c, 15, 47, 51
9, 70456, Note_on_c, 15, 47, 0
9, 70456, Note_on_c, 15, 52, 53
9, 70516, Note_on_c, 15, 52, 0
9, 70516, Note_on_c, 15, 47, 56
9, 70576, Note_on_c, 15, 47, 0
9, 70576, Note_on_c, 15, 52, 32
9, 70696, Note_on_c, 15, 52, 0
9, 76816, Note_on_c, 15, 52, 72
9, 76936, Note_on_c, 15, 52, 0
9, 77296, Note_on_c, 15, 52, 72
9, 77416, Note_on_c, 15, 52, 0
9, 77776, Note_on_c, 15, 52, 72
9, 77896, Note_on_c, 15, 52, 0
9, 78256, Note_on_c, 15, 52, 64
9, 78376, Note_on_c, 15, 52, 0
9, 78496, Note_on_c, 15, 52, 64
9, 78616, Note_on_c, 15, 52, 0
9, 78736, Note_on_c, 15, 52, 64
9, 78856, Note_on_c, 15, 52, 0
9, 78856, Note_on_c, 15, 52, 64
9, 78976, Note_on_c, 15, 52, 0
9, 79216, Note_on_c, 15, 52, 64
9, 79336, Note_on_c, 15, 52, 0
9, 79336, Note_on_c, 15, 52, 64
9, 79456, Note_on_c, 15, 52, 0
9, 79696, Note_on_c, 15, 52, 64
9, 79816, Note_on_c, 15, 52, 0
9, 79816, Note_on_c, 15, 52, 64
9, 79936, Note_on_c, 15, 52, 0
9, 80056, Note_on_c, 15, 52, 64
9, 80176, Note_on_c, 15, 52, 0
9, 80176, Note_on_c, 15, 52, 64
9, 80296, Note_on_c, 15, 52, 0
9, 80296, Note_on_c, 15, 52, 64
9, 80416, Note_on_c, 15, 52, 0
9, 80416, Note_on_c, 15, 52, 64
9, 80536, Note_on_c, 15, 52, 0
9, 80536, Note_on_c, 15, 52, 64
9, 80656, Note_on_c, 15, 52, 0
9, 80656, Note_on_c, 15, 52, 64
9, 80776, Note_on_c, 15, 52, 0
9, 80896, Note_on_c, 15, 52, 64
9, 81016, Note_on_c, 15, 52, 0
9, 81136, Note_on_c, 15, 52, 64
9, 81256, Note_on_c, 15, 52, 0
9, 81376, Note_on_c, 15, 52, 64
9, 81496, Note_on_c, 15, 52, 0
9, 81616, Note_on_c, 15, 47, 64
9, 81676, Note_on_c, 15, 47, 0
9, 81676, Note_on_c, 15, 47, 60
9, 81736, Note_on_c, 15, 47, 0
9, 81736, Note_on_c, 15, 47, 55
9, 81796, Note_on_c, 15, 47, 0
9, 81796, Note_on_c, 15, 47, 55
9, 81856, Note_on_c, 15, 47, 0
9, 81856, Note_on_c, 15, 47, 55
9, 81916, Note_on_c, 15, 47, 0
9, 81916, Note_on_c, 15, 47, 55
9, 81976, Note_on_c, 15, 47, 0
9, 81976, Note_on_c, 15, 47, 55
9, 82036, Note_on_c, 15, 47, 0
9, 82036, Note_on_c, 15, 47, 55
9, 82096, Note_on_c, 15, 47, 0
9, 82096, Note_on_c, 15, 47, 55
9, 82156, Note_on_c, 15, 47, 0
9, 82156, Note_on_c, 15, 47, 55
9, 82216, Note_on_c, 15, 47, 0
9, 82216, Note_on_c, 15, 47, 55
9, 82276, Note_on_c, 15, 47, 0
9, 82276, Note_on_c, 15, 47, 55
9, 82336, Note_on_c, 15, 47, 0
9, 82336, Note_on_c, 15, 47, 55
9, 82396, Note_on_c, 15, 47, 0
9, 82396, Note_on_c, 15, 47, 55
9, 82456, Note_on_c, 15, 47, 0
9, 82456, Note_on_c, 15, 47, 55
9, 82516, Note_on_c, 15, 47, 0
9, 82516, Note_on_c, 15, 47, 55
9, 82576, Note_on_c, 15, 47, 0
9, 82576, Note_on_c, 15, 52, 64
9, 82696, Note_on_c, 15, 52, 0
9, 82816, Note_on_c, 15, 52, 64
9, 82936, Note_on_c, 15, 52, 0
9, 83056, Note_on_c, 15, 52, 64
9, 83176, Note_on_c, 15, 52, 0
9, 83296, Note_on_c, 15, 52, 64
9, 83416, Note_on_c, 15, 52, 0
9, 83536, Note_on_c, 15, 47, 64
9, 83596, Note_on_c, 15, 47, 0
9, 83596, Note_on_c, 15, 47, 60
9, 83656, Note_on_c, 15, 47, 0
9, 83656, Note_on_c, 15, 47, 55
9, 83716, Note_on_c, 15, 47, 0
9, 83716, Note_on_c, 15, 47, 55
9, 83776, Note_on_c, 15, 47, 0
9, 83776, Note_on_c, 15, 47, 55
9, 83836, Note_on_c, 15, 47, 0
9, 83836, Note_on_c, 15, 47, 55
9, 83896, Note_on_c, 15, 47, 0
9, 83896, Note_on_c, 15, 47, 55
9, 83956, Note_on_c, 15, 47, 0
9, 83956, Note_on_c, 15, 47, 55
9, 84016, Note_on_c, 15, 47, 0
9, 84016, Note_on_c, 15, 47, 55
9, 84076, Note_on_c, 15, 47, 0
9, 84076, Note_on_c, 15, 47, 55
9, 84136, Note_on_c, 15, 47, 0
9, 84136, Note_on_c, 15, 47, 55
9, 84196, Note_on_c, 15, 47, 0
9, 84196, Note_on_c, 15, 47, 55
9, 84256, Note_on_c, 15, 47, 0
9, 84256, Note_on_c, 15, 47, 55
9, 84316, Note_on_c, 15, 47, 0
9, 84316, Note_on_c, 15, 47, 55
9, 84376, Note_on_c, 15, 47, 0
9, 84376, Note_on_c, 15, 47, 55
9, 84436, Note_on_c, 15, 47, 0
9, 84436, Note_on_c, 15, 47, 55
9, 84496, Note_on_c, 15, 47, 0
9, 84496, Note_on_c, 15, 52, 61
9, 84556, Note_on_c, 15, 52, 0
9, 84556, Note_on_c, 15, 52, 51
9, 84616, Note_on_c, 15, 52, 0
9, 84616, Note_on_c, 15, 52, 51
9, 84676, Note_on_c, 15, 52, 0
9, 84676, Note_on_c, 15, 52, 51
9, 84736, Note_on_c, 15, 52, 0
9, 84736, Note_on_c, 15, 52, 51
9, 84796, Note_on_c, 15, 52, 0
9, 84796, Note_on_c, 15, 52, 51
9, 84856, Note_on_c, 15, 52, 0
9, 84856, Note_on_c, 15, 52, 51
9, 84916, Note_on_c, 15, 52, 0
9, 84916, Note_on_c, 15, 52, 51
9, 84976, Note_on_c, 15, 52, 0
9, 84976, Note_on_c, 15, 52, 51
9, 85036, Note_on_c, 15, 52, 0
9, 85036, Note_on_c, 15, 52, 51
9, 85096, Note_on_c, 15, 52, 0
9, 85096, Note_on_c, 15, 52, 51
9, 85156, Note_on_c, 15, 52, 0
9, 85156, Note_on_c, 15, 52, 51
9, 85216, Note_on_c, 15, 52, 0
9, 85216, Note_on_c, 15, 52, 51
9, 85276, Note_on_c, 15, 52, 0
9, 85276, Note_on_c, 15, 52, 51
9, 85336, Note_on_c, 15, 52, 0
9, 85336, Note_on_c, 15, 52, 51
9, 85396, Note_on_c, 15, 52, 0
9, 85396, Note_on_c, 15, 52, 51
9, 85456, Note_on_c, 15, 52, 0
9, 85456, Note_on_c, 15, 52, 51
9, 85516, Note_on_c, 15, 52, 0
9, 85516, Note_on_c, 15, 52, 51
9, 85576, Note_on_c, 15, 52, 0
9, 85576, Note_on_c, 15, 52, 51
9, 85636, Note_on_c, 15, 52, 0
9, 85636, Note_on_c, 15, 52, 51
9, 85696, Note_on_c, 15, 52, 0
9, 85696, Note_on_c, 15, 52, 51
9, 85756, Note_on_c, 15, 52, 0
9, 85756, Note_on_c, 15, 52, 51
9, 85816, Note_on_c, 15, 52, 0
9, 85816, Note_on_c, 15, 52, 51
9, 85876, Note_on_c, 15, 52, 0
9, 85876, Note_on_c, 15, 52, 51
9, 85936, Note_on_c, 15, 52, 0
9, 85936, Note_on_c, 15, 52, 51
9, 85996, Note_on_c, 15, 52, 0
9, 85996, Note_on_c, 15, 52, 51
9, 86056, Note_on_c, 15, 52, 0
9, 86056, Note_on_c, 15, 52, 51
9, 86116, Note_on_c, 15, 52, 0
9, 86116, Note_on_c, 15, 52, 51
9, 86176, Note_on_c, 15, 52, 0
9, 86176, Note_on_c, 15, 52, 51
9, 86236, Note_on_c, 15, 52, 0
9, 86236, Note_on_c, 15, 52, 51
9, 86296, Note_on_c, 15, 52, 0
9, 86296, Note_on_c, 15, 52, 51
9, 86356, Note_on_c, 15, 52, 0
9, 86356, Note_on_c, 15, 52, 51
9, 86416, Note_on_c, 15, 52, 0
9, 86416, Note_on_c, 15, 52, 51
9, 86536, Note_on_c, 15, 52, 0
9, 95056, Note_on_c, 15, 52, 72
9, 95176, Note_on_c, 15, 52, 0
9, 95296, Note_on_c, 15, 52, 72
9, 95416, Note_on_c, 15, 52, 0
9, 95536, Note_on_c, 15, 52, 72
9, 95656, Note_on_c, 15, 52, 0
9, 95776, Note_on_c, 15, 52, 72
9, 95896, Note_on_c, 15, 52, 0
9, 96016, Note_on_c, 15, 52, 85
9, 96136, Note_on_c, 15, 52, 0
9, 96976, Note_on_c, 15, 52, 85
9, 97096, Note_on_c, 15, 52, 0
9, 100816, Note_on_c, 15, 52, 84
9, 100936, Note_on_c, 15, 52, 0
9, 101296, Note_on_c, 15, 52, 84
9, 101416, Note_on_c, 15, 52, 0
9, 101776, Note_on_c, 15, 52, 84
9, 101896, Note_on_c, 15, 52, 0
9, 102256, Note_on_c, 15, 52, 72
9, 102376, Note_on_c, 15, 52, 0
9, 102736, Note_on_c, 15, 52, 72
9, 102856, Note_on_c, 15, 52, 0
9, 103216, Note_on_c, 15, 52, 72
9, 103336, Note_on_c, 15, 52, 0
9, 103696, Note_on_c, 15, 52, 54
9, 103816, Note_on_c, 15, 52, 0
9, 103816, Note_on_c, 15, 52, 54
9, 103876, Note_on_c, 15, 52, 0
9, 103876, Note_on_c, 15, 52, 54
9, 103936, Note_on_c, 15, 52, 0
9, 103936, Note_on_c, 15, 52, 54
9, 104056, Note_on_c, 15, 52, 0
9, 104176, Note_on_c, 15, 52, 54
9, 104296, Note_on_c, 15, 52, 0
9, 104296, Note_on_c, 15, 52, 54
9, 104356, Note_on_c, 15, 52, 0
9, 104356, Note_on_c, 15, 52, 54
9, 104416, Note_on_c, 15, 52, 0
9, 104416, Note_on_c, 15, 52, 54
9, 104536, Note_on_c, 15, 52, 0
9, 104656, Note_on_c, 15, 52, 54
9, 104776, Note_on_c, 15, 52, 0
9, 104776, Note_on_c, 15, 52, 54
9, 104836, Note_on_c, 15, 52, 0
9, 104836, Note_on_c, 15, 52, 54
9, 104896, Note_on_c, 15, 52, 0
9, 104896, Note_on_c, 15, 52, 54
9, 105016, Note_on_c, 15, 52, 0
9, 105016, Note_on_c, 15, 52, 54
9, 105076, Note_on_c, 15, 52, 0
9, 105076, Note_on_c, 15, 52, 54
9, 105136, Note_on_c, 15, 52, 0
9, 105136, Note_on_c, 15, 52, 54
9, 105256, Note_on_c, 15, 52, 0
9, 105256, Note_on_c, 15, 52, 54
9, 105316, Note_on_c, 15, 52, 0
9, 105316, Note_on_c, 15, 52, 54
9, 105376, Note_on_c, 15, 52, 0
9, 105376, Note_on_c, 15, 52, 54
9, 105496, Note_on_c, 15, 52, 0
9, 105496, Note_on_c, 15, 52, 54
9, 105556, Note_on_c, 15, 52, 0
9, 105556, Note_on_c, 15, 52, 54
9, 105616, Note_on_c, 15, 52, 0
9, 105616, Note_on_c, 15, 52, 54
9, 105736, Note_on_c, 15, 52, 0
9, 105736, Note_on_c, 15, 52, 54
9, 105796, Note_on_c, 15, 52, 0
9, 105796, Note_on_c, 15, 52, 54
9, 105856, Note_on_c, 15, 52, 0
9, 105856, Note_on_c, 15, 52, 54
9, 105976, Note_on_c, 15, 52, 0
9, 105976, Note_on_c, 15, 52, 54
9, 106036, Note_on_c, 15, 52, 0
9, 106036, Note_on_c, 15, 52, 54
9, 106096, Note_on_c, 15, 52, 0
9, 106096, Note_on_c, 15, 52, 54
9, 106216, Note_on_c, 15, 52, 0
9, 106216, Note_on_c, 15, 52, 54
9, 106276, Note_on_c, 15, 52, 0
9, 106276, Note_on_c, 15, 52, 54
9, 106336, Note_on_c, 15, 52, 0
9, 106336, Note_on_c, 15, 52, 54
9, 106456, Note_on_c, 15, 52, 0
9, 106456, Note_on_c, 15, 52, 54
9, 106516, Note_on_c, 15, 52, 0
9, 106516, Note_on_c, 15, 52, 54
9, 106576, Note_on_c, 15, 52, 0
9, 106576, Note_on_c, 15, 47, 72
9, 106696, Note_on_c, 15, 47, 0
9, 106936, Note_on_c, 15, 47, 61
9, 107056, Note_on_c, 15, 47, 0
9, 107056, Note_on_c, 15, 47, 61
9, 107176, Note_on_c, 15, 47, 0
9, 107416, Note_on_c, 15, 47, 61
9, 107536, Note_on_c, 15, 47, 0
9, 107536, Note_on_c, 15, 47, 61
9, 107656, Note_on_c, 15, 47, 0
9, 107896, Note_on_c, 15, 47, 61
9, 108016, Note_on_c, 15, 47, 0
9, 108016, Note_on_c, 15, 47, 61
9, 108136, Note_on_c, 15, 47, 0
9, 108376, Note_on_c, 15, 47, 61
9, 108496, Note_on_c, 15, 47, 0
9, 108496, Note_on_c, 15, 47, 61
9, 108616, Note_on_c, 15, 47, 0
9, 108616, Note_on_c, 15, 47, 61
9, 108676, Note_on_c, 15, 47, 0
9, 108676, Note_on_c, 15, 47, 61
9, 108736, Note_on_c, 15, 47, 0
9, 108736, Note_on_c, 15, 47, 61
9, 108856, Note_on_c, 15, 47, 0
9, 108856, Note_on_c, 15, 47, 61
9, 108916, Note_on_c, 15, 47, 0
9, 108916, Note_on_c, 15, 47, 61
9, 108976, Note_on_c, 15, 47, 0
9, 108976, Note_on_c, 15, 47, 61
9, 109096, Note_on_c, 15, 47, 0
9, 109096, Note_on_c, 15, 47, 61
9, 109156, Note_on_c, 15, 47, 0
9, 109156, Note_on_c, 15, 47, 61
9, 109216, Note_on_c, 15, 47, 0
9, 109216, Note_on_c, 15, 47, 61
9, 109336, Note_on_c, 15, 47, 0
9, 109336, Note_on_c, 15, 47, 61
9, 109396, Note_on_c, 15, 47, 0
9, 109396, Note_on_c, 15, 47, 61
9, 109456, Note_on_c, 15, 47, 0
9, 109456, Note_on_c, 15, 47, 61
9, 109576, Note_on_c, 15, 47, 0
9, 109576, Note_on_c, 15, 47, 61
9, 109636, Note_on_c, 15, 47, 0
9, 109636, Note_on_c, 15, 47, 61
9, 109696, Note_on_c, 15, 47, 0
9, 109696, Note_on_c, 15, 47, 61
9, 109816, Note_on_c, 15, 47, 0
9, 109816, Note_on_c, 15, 47, 61
9, 109876, Note_on_c, 15, 47, 0
9, 109876, Note_on_c, 15, 47, 61
9, 109936, Note_on_c, 15, 47, 0
9, 109936, Note_on_c, 15, 47, 61
9, 110056, Note_on_c, 15, 47, 0
9, 110056, Note_on_c, 15, 47, 61
9, 110116, Note_on_c, 15, 47, 0
9, 110116, Note_on_c, 15, 47, 61
9, 110176, Note_on_c, 15, 47, 0
9, 110176, Note_on_c, 15, 47, 61
9, 110296, Note_on_c, 15, 47, 0
9, 110296, Note_on_c, 15, 47, 61
9, 110356, Note_on_c, 15, 47, 0
9, 110356, Note_on_c, 15, 47, 61
9, 110416, Note_on_c, 15, 47, 0
9, 110416, Note_on_c, 15, 47, 71
9, 110536, Note_on_c, 15, 47, 0
9, 110536, Note_on_c, 15, 47, 71
9, 110596, Note_on_c, 15, 47, 0
9, 110596, Note_on_c, 15, 47, 71
9, 110656, Note_on_c, 15, 47, 0
9, 110656, Note_on_c, 15, 47, 71
9, 110776, Note_on_c, 15, 47, 0
9, 110776, Note_on_c, 15, 47, 71
9, 110836, Note_on_c, 15, 47, 0
9, 110836, Note_on_c, 15, 47, 71
9, 110896, Note_on_c, 15, 47, 0
9, 110896, Note_on_c, 15, 47, 71
9, 111016, Note_on_c, 15, 47, 0
9, 111016, Note_on_c, 15, 47, 71
9, 111076, Note_on_c, 15, 47, 0
9, 111076, Note_on_c, 15, 47, 71
9, 111136, Note_on_c, 15, 47, 0
9, 111136, Note_on_c, 15, 47, 71
9, 111256, Note_on_c, 15, 47, 0
9, 111256, Note_on_c, 15, 47, 71
9, 111316, Note_on_c, 15, 47, 0
9, 111316, Note_on_c, 15, 47, 71
9, 111376, Note_on_c, 15, 47, 0
9, 111376, Note_on_c, 15, 47, 71
9, 111496, Note_on_c, 15, 47, 0
9, 111496, Note_on_c, 15, 47, 71
9, 111556, Note_on_c, 15, 47, 0
9, 111556, Note_on_c, 15, 47, 71
9, 111616, Note_on_c, 15, 47, 0
9, 111616, Note_on_c, 15, 47, 71
9, 111676, Note_on_c, 15, 47, 0
9, 111736, Note_on_c, 15, 52, 71
9, 111796, Note_on_c, 15, 52, 0
9, 111856, Note_on_c, 15, 47, 84
9, 111916, Note_on_c, 15, 47, 0
9, 123856, Note_on_c, 15, 52, 63
9, 123976, Note_on_c, 15, 52, 0
9, 124336, Note_on_c, 15, 52, 63
9, 124456, Note_on_c, 15, 52, 0
9, 124816, Note_on_c, 15, 47, 63
9, 124936, Note_on_c, 15, 47, 0
9, 125296, Note_on_c, 15, 47, 63
9, 125416, Note_on_c, 15, 47, 0
9, 125776, Note_on_c, 15, 52, 30
9, 125896, Note_on_c, 15, 52, 0
9, 126256, Note_on_c, 15, 52, 30
9, 126376, Note_on_c, 15, 52, 0
9, 126736, Note_on_c, 15, 47, 30
9, 126856, Note_on_c, 15, 47, 0
9, 127216, Note_on_c, 15, 47, 30
9, 127336, Note_on_c, 15, 47, 0
9, 127696, Note_on_c, 15, 52, 30
9, 127816, Note_on_c, 15, 52, 0
9, 127936, Note_on_c, 15, 52, 33
9, 128056, Note_on_c, 15, 52, 0
9, 128416, Note_on_c, 15, 52, 39
9, 128536, Note_on_c, 15, 52, 0
9, 128896, Note_on_c, 15, 52, 45
9, 129016, Note_on_c, 15, 52, 0
9, 129376, Note_on_c, 15, 52, 51
9, 129496, Note_on_c, 15, 52, 0
9, 129856, Note_on_c, 15, 52, 58
9, 129976, Note_on_c, 15, 52, 0
9, 130336, Note_on_c, 15, 52, 64
9, 130456, Note_on_c, 15, 52, 0
9, 130576, Note_on_c, 15, 52, 67
9, 130696, Note_on_c, 15, 52, 0
9, 131056, Note_on_c, 15, 52, 73
9, 131176, Note_on_c, 15, 52, 0
9, 131536, Note_on_c, 15, 52, 68
9, 131596, Note_on_c, 15, 52, 0
9, 131596, Note_on_c, 15, 52, 68
9, 131656, Note_on_c, 15, 52, 0
9, 131656, Note_on_c, 15, 52, 68
9, 131716, Note_on_c, 15, 52, 0
9, 131716, Note_on_c, 15, 52, 68
9, 131776, Note_on_c, 15, 52, 0
9, 131776, Note_on_c, 15, 52, 68
9, 131836, Note_on_c, 15, 52, 0
9, 131836, Note_on_c, 15, 52, 68
9, 131896, Note_on_c, 15, 52, 0
9, 131896, Note_on_c, 15, 52, 68
9, 131956, Note_on_c, 15, 52, 0
9, 131956, Note_on_c, 15, 52, 68
9, 132016, Note_on_c, 15, 52, 0
9, 132016, Note_on_c, 15, 52, 68
9, 132076, Note_on_c, 15, 52, 0
9, 132076, Note_on_c, 15, 52, 68
9, 132136, Note_on_c, 15, 52, 0
9, 132136, Note_on_c, 15, 52, 68
9, 132196, Note_on_c, 15, 52, 0
9, 132196, Note_on_c, 15, 52, 68
9, 132256, Note_on_c, 15, 52, 0
9, 132256, Note_on_c, 15, 52, 68
9, 132316, Note_on_c, 15, 52, 0
9, 132316, Note_on_c, 15, 52, 68
9, 132376, Note_on_c, 15, 52, 0
9, 132376, Note_on_c, 15, 52, 68
9, 132436, Note_on_c, 15, 52, 0
9, 132436, Note_on_c, 15, 52, 68
9, 132496, Note_on_c, 15, 52, 0
9, 132496, Note_on_c, 15, 52, 68
9, 132556, Note_on_c, 15, 52, 0
9, 132556, Note_on_c, 15, 52, 68
9, 132616, Note_on_c, 15, 52, 0
9, 132616, Note_on_c, 15, 52, 70
9, 132676, Note_on_c, 15, 52, 0
9, 132676, Note_on_c, 15, 52, 71
9, 132736, Note_on_c, 15, 52, 0
9, 132736, Note_on_c, 15, 52, 73
9, 132796, Note_on_c, 15, 52, 0
9, 132796, Note_on_c, 15, 52, 73
9, 132856, Note_on_c, 15, 52, 0
9, 132856, Note_on_c, 15, 52, 75
9, 132916, Note_on_c, 15, 52, 0
9, 132916, Note_on_c, 15, 52, 76
9, 132976, Note_on_c, 15, 52, 0
9, 132976, Note_on_c, 15, 52, 78
9, 133036, Note_on_c, 15, 52, 0
9, 133036, Note_on_c, 15, 52, 79
9, 133096, Note_on_c, 15, 52, 0
9, 133096, Note_on_c, 15, 52, 80
9, 133156, Note_on_c, 15, 52, 0
9, 133156, Note_on_c, 15, 52, 82
9, 133216, Note_on_c, 15, 52, 0
9, 133216, Note_on_c, 15, 52, 83
9, 133276, Note_on_c, 15, 52, 0
9, 133276, Note_on_c, 15, 52, 85
9, 133336, Note_on_c, 15, 52, 0
9, 133336, Note_on_c, 15, 52, 85
9, 133396, Note_on_c, 15, 52, 0
9, 133396, Note_on_c, 15, 52, 87
9, 133456, Note_on_c, 15, 52, 0
9, 133456, Note_on_c, 15, 52, 89
9, 133516, Note_on_c, 15, 52, 0
9, 133516, Note_on_c, 15, 52, 89
9, 133576, Note_on_c, 15, 52, 0
9, 133576, Note_on_c, 15, 52, 89
9, 133636, Note_on_c, 15, 52, 0
9, 133636, Note_on_c, 15, 52, 89
9, 133696, Note_on_c, 15, 52, 0
9, 133696, Note_on_c, 15, 52, 89
9, 133756, Note_on_c, 15, 52, 0
9, 133756, Note_on_c, 15, 52, 89
9, 133816, Note_on_c, 15, 52, 0
9, 133816, Note_on_c, 15, 52, 89
9, 133876, Note_on_c, 15, 52, 0
9, 133876, Note_on_c, 15, 52, 89
9, 133936, Note_on_c, 15, 52, 0
9, 133936, Note_on_c, 15, 52, 89
9, 133996, Note_on_c, 15, 52, 0
9, 133996, Note_on_c, 15, 52, 89
9, 134056, Note_on_c, 15, 52, 0
9, 134056, Note_on_c, 15, 52, 89
9, 134116, Note_on_c, 15, 52, 0
9, 134116, Note_on_c, 15, 52, 89
9, 134176, Note_on_c, 15, 52, 0
9, 134176, Note_on_c, 15, 52, 89
9, 134236, Note_on_c, 15, 52, 0
9, 134236, Note_on_c, 15, 52, 89
9, 134296, Note_on_c, 15, 52, 0
9, 134296, Note_on_c, 15, 52, 89
9, 134356, Note_on_c, 15, 52, 0
9, 134356, Note_on_c, 15, 52, 89
9, 134416, Note_on_c, 15, 52, 0
9, 134416, Note_on_c, 15, 52, 89
9, 134476, Note_on_c, 15, 52, 0
9, 134476, Note_on_c, 15, 52, 89
9, 134536, Note_on_c, 15, 52, 0
9, 134536, Note_on_c, 15, 52, 89
9, 134596, Note_on_c, 15, 52, 0
9, 134596, Note_on_c, 15, 52, 89
9, 134656, Note_on_c, 15, 52, 0
9, 134656, Note_on_c, 15, 52, 89
9, 134716, Note_on_c, 15, 52, 0
9, 134716, Note_on_c, 15, 52, 89
9, 134776, Note_on_c, 15, 52, 0
9, 134776, Note_on_c, 15, 52, 89
9, 134836, Note_on_c, 15, 52, 0
9, 134836, Note_on_c, 15, 52, 89
9, 134896, Note_on_c, 15, 52, 0
9, 134896, Note_on_c, 15, 52, 89
9, 134956, Note_on_c, 15, 52, 0
9, 134956, Note_on_c, 15, 52, 89
9, 135016, Note_on_c, 15, 52, 0
9, 135016, Note_on_c, 15, 52, 89
9, 135076, Note_on_c, 15, 52, 0
9, 135076, Note_on_c, 15, 52, 89
9, 135136, Note_on_c, 15, 52, 0
9, 135136, Note_on_c, 15, 52, 89
9, 135196, Note_on_c, 15, 52, 0
9, 135196, Note_on_c, 15, 52, 89
9, 135256, Note_on_c, 15, 52, 0
9, 135256, Note_on_c, 15, 52, 89
9, 135316, Note_on_c, 15, 52, 0
9, 135316, Note_on_c, 15, 52, 89
9, 135376, Note_on_c, 15, 52, 0
9, 135376, Note_on_c, 15, 52, 97
9, 135496, Note_on_c, 15, 52, 0
9, 135496, Note_on_c, 15, 52, 85
9, 135616, Note_on_c, 15, 52, 0
9, 135616, Note_on_c, 15, 52, 97
9, 135736, Note_on_c, 15, 52, 0
9, 135736, Note_on_c, 15, 52, 85
9, 135856, Note_on_c, 15, 52, 0
9, 135856, Note_on_c, 15, 52, 97
9, 135976, Note_on_c, 15, 52, 0
9, 135976, Note_on_c, 15, 52, 85
9, 136096, Note_on_c, 15, 52, 0
9, 136096, Note_on_c, 15, 52, 97
9, 136216, Note_on_c, 15, 52, 0
9, 136216, Note_on_c, 15, 52, 85
9, 136336, Note_on_c, 15, 52, 0
9, 136336, Note_on_c, 15, 52, 97
9, 136456, Note_on_c, 15, 52, 0
9, 136456, Note_on_c, 15, 52, 85
9, 136576, Note_on_c, 15, 52, 0
9, 136576, Note_on_c, 15, 52, 97
9, 136696, Note_on_c, 15, 52, 0
9, 136696, Note_on_c, 15, 52, 85
9, 136816, Note_on_c, 15, 52, 0
9, 136816, Note_on_c, 15, 52, 97
9, 136936, Note_on_c, 15, 52, 0
9, 136936, Note_on_c, 15, 52, 85
9, 137056, Note_on_c, 15, 52, 0
9, 137056, Note_on_c, 15, 47, 97
9, 137176, Note_on_c, 15, 47, 0
9, 137176, Note_on_c, 15, 47, 85
9, 137296, Note_on_c, 15, 47, 0
9, 137296, Note_on_c, 15, 47, 97
9, 137416, Note_on_c, 15, 47, 0
9, 137416, Note_on_c, 15, 47, 85
9, 137536, Note_on_c, 15, 47, 0
9, 137536, Note_on_c, 15, 47, 97
9, 137656, Note_on_c, 15, 47, 0
9, 137656, Note_on_c, 15, 47, 85
9, 137776, Note_on_c, 15, 47, 0
9, 137776, Note_on_c, 15, 47, 97
9, 137896, Note_on_c, 15, 47, 0
9, 137896, Note_on_c, 15, 47, 85
9, 138016, Note_on_c, 15, 47, 0
9, 138016, Note_on_c, 15, 47, 97
9, 138136, Note_on_c, 15, 47, 0
9, 138136, Note_on_c, 15, 47, 85
9, 138256, Note_on_c, 15, 47, 0
9, 138256, Note_on_c, 15, 52, 97
9, 138376, Note_on_c, 15, 52, 0
9, 138376, Note_on_c, 15, 52, 85
9, 138496, Note_on_c, 15, 52, 0
9, 138496, Note_on_c, 15, 52, 97
9, 138616, Note_on_c, 15, 52, 0
9, 138616, Note_on_c, 15, 52, 85
9, 138736, Note_on_c, 15, 52, 0
9, 138736, Note_on_c, 15, 52, 97
9, 138856, Note_on_c, 15, 52, 0
9, 138856, Note_on_c, 15, 52, 85
9, 138976, Note_on_c, 15, 52, 0
9, 138976, Note_on_c, 15, 52, 97
9, 139096, Note_on_c, 15, 52, 0
9, 139096, Note_on_c, 15, 52, 85
9, 139216, Note_on_c, 15, 52, 0
9, 139216, Note_on_c, 15, 52, 97
9, 139336, Note_on_c, 15, 52, 0
9, 139336, Note_on_c, 15, 52, 85
9, 139456, Note_on_c, 15, 52, 0
9, 139456, Note_on_c, 15, 52, 97
9, 139576, Note_on_c, 15, 52, 0
9, 139576, Note_on_c, 15, 52, 85
9, 139696, Note_on_c, 15, 52, 0
9, 139696, Note_on_c, 15, 52, 97
9, 139816, Note_on_c, 15, 52, 0
9, 139816, Note_on_c, 15, 52, 85
9, 139936, Note_on_c, 15, 52, 0
9, 139936, Note_on_c, 15, 47, 97
9, 140056, Note_on_c, 15, 47, 0
9, 140056, Note_on_c, 15, 47, 85
9, 140176, Note_on_c, 15, 47, 0
9, 140176, Note_on_c, 15, 47, 97
9, 140296, Note_on_c, 15, 47, 0
9, 140296, Note_on_c, 15, 47, 85
9, 140416, Note_on_c, 15, 47, 0
9, 140416, Note_on_c, 15, 47, 97
9, 140536, Note_on_c, 15, 47, 0
9, 140536, Note_on_c, 15, 47, 85
9, 140656, Note_on_c, 15, 47, 0
9, 140656, Note_on_c, 15, 47, 97
9, 140776, Note_on_c, 15, 47, 0
9, 140776, Note_on_c, 15, 47, 85
9, 140896, Note_on_c, 15, 47, 0
9, 140896, Note_on_c, 15, 47, 97
9, 141016, Note_on_c, 15, 47, 0
9, 141016, Note_on_c, 15, 47, 85
9, 141136, Note_on_c, 15, 47, 0
9, 141136, Note_on_c, 15, 52, 80
9, 141256, Note_on_c, 15, 52, 0
9, 141616, Note_on_c, 15, 52, 85
9, 141736, Note_on_c, 15, 52, 0
9, 141796, Note_on_c, 15, 47, 85
9, 141856, Note_on_c, 15, 47, 0
9, 141856, Note_on_c, 15, 47, 85
9, 141976, Note_on_c, 15, 47, 0
9, 142096, Note_on_c, 15, 52, 85
9, 142216, Note_on_c, 15, 52, 0
9, 142576, Note_on_c, 15, 52, 85
9, 142696, Note_on_c, 15, 52, 0
9, 142756, Note_on_c, 15, 47, 85
9, 142816, Note_on_c, 15, 47, 0
9, 142816, Note_on_c, 15, 47, 85
9, 142936, Note_on_c, 15, 47, 0
9, 143056, Note_on_c, 15, 52, 85
9, 143176, Note_on_c, 15, 52, 0
9, 143536, Note_on_c, 15, 52, 85
9, 143656, Note_on_c, 15, 52, 0
9, 143716, Note_on_c, 15, 52, 85
9, 143776, Note_on_c, 15, 52, 0
9, 143776, Note_on_c, 15, 52, 85
9, 143896, Note_on_c, 15, 52, 0
9, 144016, Note_on_c, 15, 52, 85
9, 144136, Note_on_c, 15, 52, 0
9, 144496, Note_on_c, 15, 52, 85
9, 144616, Note_on_c, 15, 52, 0
9, 144676, Note_on_c, 15, 52, 85
9, 144736, Note_on_c, 15, 52, 0
9, 144736, Note_on_c, 15, 52, 85
9, 144856, Note_on_c, 15, 52, 0
9, 144976, Note_on_c, 15, 52, 85
9, 145096, Note_on_c, 15, 52, 0
9, 145096, Note_on_c, 15, 47, 85
9, 145216, Note_on_c, 15, 47, 0
9, 145216, Note_on_c, 15, 52, 85
9, 145336, Note_on_c, 15, 52, 0
9, 145336, Note_on_c, 15, 47, 85
9, 145456, Note_on_c, 15, 47, 0
9, 145456, Note_on_c, 15, 52, 85
9, 145576, Note_on_c, 15, 52, 0
9, 145576, Note_on_c, 15, 47, 85
9, 145696, Note_on_c, 15, 47, 0
9, 145696, Note_on_c, 15, 52, 85
9, 145816, Note_on_c, 15, 52, 0
9, 145816, Note_on_c, 15, 47, 85
9, 145936, Note_on_c, 15, 47, 0
9, 145936, Note_on_c, 15, 52, 85
9, 146056, Note_on_c, 15, 52, 0
9, 146056, Note_on_c, 15, 47, 85
9, 146176, Note_on_c, 15, 47, 0
9, 146176, Note_on_c, 15, 52, 85
9, 146296, Note_on_c, 15, 52, 0
9, 146296, Note_on_c, 15, 47, 85
9, 146416, Note_on_c, 15, 47, 0
9, 146416, Note_on_c, 15, 52, 85
9, 146536, Note_on_c, 15, 52, 0
9, 146536, Note_on_c, 15, 47, 85
9, 146656, Note_on_c, 15, 47, 0
9, 146656, Note_on_c, 15, 52, 85
9, 146776, Note_on_c, 15, 52, 0
9, 146776, Note_on_c, 15, 47, 85
9, 146896, Note_on_c, 15, 47, 0
9, 146896, Note_on_c, 15, 52, 85
9, 147016, Note_on_c, 15, 52, 0
9, 147376, Note_on_c, 15, 52, 85
9, 147496, Note_on_c, 15, 52, 0
9, 147856, Note_on_c, 15, 52, 85
9, 147976, Note_on_c, 15, 52, 0
9, 148336, Control_c, 15, 121, 0
9, 148336, End_track
10, 0, Start_track
10, 0, MIDI_port, 0
10, 0, Title_t, "Trombone tenor"
10, 0, Program_c, 7, 57
10, 0, Control_c, 7, 10, 80
10, 5, Control_c, 7, 121, 0
10, 10, Program_c, 7, 57
10, 15, Pitch_bend_c, 7, 8392
10, 20, Control_c, 7, 11, 102
10, 25, Control_c, 7, 7, 127
10, 30, Control_c, 7, 91, 48
10, 35, Control_c, 7, 93, 0
10, 110405, Control_c, 7, 11, 102
10, 110405, Note_on_c, 7, 64, 103
10, 110555, Note_on_c, 7, 64, 0
10, 110585, Note_on_c, 7, 59, 103
10, 110630, Note_on_c, 7, 59, 0
10, 110645, Note_on_c, 7, 59, 103
10, 110705, Note_on_c, 7, 59, 0
10, 110885, Note_on_c, 7, 68, 103
10, 111035, Note_on_c, 7, 68, 0
10, 111065, Note_on_c, 7, 64, 103
10, 111110, Note_on_c, 7, 64, 0
10, 111125, Note_on_c, 7, 64, 103
10, 111185, Note_on_c, 7, 64, 0
10, 111365, Note_on_c, 7, 71, 103
10, 111515, Note_on_c, 7, 71, 0
10, 111545, Note_on_c, 7, 68, 103
10, 111590, Note_on_c, 7, 68, 0
10, 111605, Note_on_c, 7, 68, 103
10, 111665, Note_on_c, 7, 68, 0
10, 111725, Note_on_c, 7, 64, 103
10, 111785, Note_on_c, 7, 64, 0
10, 111845, Note_on_c, 7, 59, 103
10, 111905, Note_on_c, 7, 59, 0
10, 127925, Control_c, 7, 11, 47
10, 127925, Note_on_c, 7, 59, 127
10, 128021, Control_c, 7, 11, 48
10, 128117, Control_c, 7, 11, 49
10, 128165, Note_on_c, 7, 59, 0
10, 128213, Control_c, 7, 11, 50
10, 128309, Control_c, 7, 11, 51
10, 128405, Control_c, 7, 11, 52
10, 128405, Note_on_c, 7, 59, 127
10, 128501, Control_c, 7, 11, 53
10, 128597, Control_c, 7, 11, 54
10, 128645, Note_on_c, 7, 59, 0
10, 128693, Control_c, 7, 11, 55
10, 128789, Control_c, 7, 11, 56
10, 128885, Control_c, 7, 11, 57
10, 128885, Note_on_c, 7, 60, 127
10, 128981, Control_c, 7, 11, 58
10, 129077, Control_c, 7, 11, 59
10, 129125, Note_on_c, 7, 60, 0
10, 129173, Control_c, 7, 11, 60
10, 129269, Control_c, 7, 11, 61
10, 129365, Control_c, 7, 11, 62
10, 129365, Note_on_c, 7, 60, 127
10, 129461, Control_c, 7, 11, 63
10, 129557, Control_c, 7, 11, 64
10, 129605, Note_on_c, 7, 60, 0
10, 129653, Control_c, 7, 11, 65
10, 129749, Control_c, 7, 11, 66
10, 129845, Control_c, 7, 11, 67
10, 129845, Note_on_c, 7, 69, 127
10, 129941, Control_c, 7, 11, 68
10, 130037, Control_c, 7, 11, 69
10, 130085, Note_on_c, 7, 69, 0
10, 130133, Control_c, 7, 11, 70
10, 130229, Control_c, 7, 11, 71
10, 130325, Control_c, 7, 11, 72
10, 130325, Note_on_c, 7, 69, 127
10, 130421, Control_c, 7, 11, 73
10, 130517, Control_c, 7, 11, 74
10, 130565, Note_on_c, 7, 69, 0
10, 130613, Control_c, 7, 11, 75
10, 130709, Control_c, 7, 11, 76
10, 130805, Control_c, 7, 11, 77
10, 130805, Note_on_c, 7, 69, 127
10, 130901, Control_c, 7, 11, 78
10, 130997, Control_c, 7, 11, 79
10, 131045, Note_on_c, 7, 69, 0
10, 131093, Control_c, 7, 11, 80
10, 131189, Control_c, 7, 11, 81
10, 131285, Control_c, 7, 11, 82
10, 131285, Note_on_c, 7, 69, 127
10, 131381, Control_c, 7, 11, 83
10, 131477, Control_c, 7, 11, 84
10, 131525, Note_on_c, 7, 69, 0
10, 131573, Control_c, 7, 11, 85
10, 131669, Control_c, 7, 11, 86
10, 131765, Control_c, 7, 11, 87
10, 131765, Note_on_c, 7, 69, 127
10, 132005, Note_on_c, 7, 69, 0
10, 132245, Control_c, 7, 11, 87
10, 132245, Note_on_c, 7, 69, 127
10, 132285, Control_c, 7, 11, 88
10, 132325, Control_c, 7, 11, 89
10, 132365, Control_c, 7, 11, 90
10, 132405, Control_c, 7, 11, 91
10, 132445, Control_c, 7, 11, 92
10, 132485, Note_on_c, 7, 69, 0
10, 132485, Control_c, 7, 11, 93
10, 132525, Control_c, 7, 11, 94
10, 132565, Control_c, 7, 11, 95
10, 132605, Control_c, 7, 11, 96
10, 132645, Control_c, 7, 11, 97
10, 132685, Control_c, 7, 11, 98
10, 132725, Control_c, 7, 11, 99
10, 132725, Note_on_c, 7, 69, 127
10, 132765, Control_c, 7, 11, 100
10, 132805, Control_c, 7, 11, 101
10, 132845, Control_c, 7, 11, 102
10, 132885, Control_c, 7, 11, 103
10, 132925, Control_c, 7, 11, 104
10, 132965, Note_on_c, 7, 69, 0
10, 132965, Control_c, 7, 11, 105
10, 133005, Control_c, 7, 11, 106
10, 133045, Control_c, 7, 11, 107
10, 133085, Control_c, 7, 11, 108
10, 133125, Control_c, 7, 11, 109
10, 133165, Control_c, 7, 11, 110
10, 133205, Control_c, 7, 11, 111
10, 133205, Note_on_c, 7, 69, 127
10, 133245, Control_c, 7, 11, 112
10, 133285, Control_c, 7, 11, 113
10, 133325, Control_c, 7, 11, 114
10, 133365, Control_c, 7, 11, 115
10, 133405, Control_c, 7, 11, 116
10, 133445, Note_on_c, 7, 69, 0
10, 133445, Control_c, 7, 11, 117
10, 133445, Note_on_c, 7, 69, 127
10, 135365, Note_on_c, 7, 69, 0
10, 135365, Note_on_c, 7, 68, 127
10, 135485, Note_on_c, 7, 68, 0
10, 135605, Note_on_c, 7, 64, 127
10, 135725, Note_on_c, 7, 64, 0
10, 135845, Note_on_c, 7, 64, 127
10, 135965, Note_on_c, 7, 64, 0
10, 136085, Note_on_c, 7, 64, 127
10, 136205, Note_on_c, 7, 64, 0
10, 136325, Note_on_c, 7, 64, 127
10, 136445, Note_on_c, 7, 64, 0
10, 136565, Note_on_c, 7, 64, 127
10, 136685, Note_on_c, 7, 64, 0
10, 136805, Note_on_c, 7, 64, 127
10, 136925, Note_on_c, 7, 64, 0
10, 137045, Note_on_c, 7, 71, 127
10, 137165, Note_on_c, 7, 71, 0
10, 137285, Note_on_c, 7, 71, 127
10, 137405, Note_on_c, 7, 71, 0
10, 137525, Note_on_c, 7, 71, 127
10, 137645, Note_on_c, 7, 71, 0
10, 137765, Note_on_c, 7, 68, 127
10, 137885, Note_on_c, 7, 68, 0
10, 138005, Note_on_c, 7, 69, 127
10, 138125, Note_on_c, 7, 69, 0
10, 138245, Note_on_c, 7, 68, 127
10, 138365, Note_on_c, 7, 68, 0
10, 138485, Note_on_c, 7, 64, 127
10, 138605, Note_on_c, 7, 64, 0
10, 138725, Note_on_c, 7, 64, 127
10, 138845, Note_on_c, 7, 64, 0
10, 138965, Note_on_c, 7, 64, 127
10, 139085, Note_on_c, 7, 64, 0
10, 139205, Note_on_c, 7, 64, 127
10, 139325, Note_on_c, 7, 64, 0
10, 139445, Note_on_c, 7, 64, 127
10, 139565, Note_on_c, 7, 64, 0
10, 139685, Note_on_c, 7, 64, 127
10, 139805, Note_on_c, 7, 64, 0
10, 139925, Note_on_c, 7, 71, 127
10, 140045, Note_on_c, 7, 71, 0
10, 140165, Note_on_c, 7, 71, 127
10, 140285, Note_on_c, 7, 71, 0
10, 140405, Note_on_c, 7, 71, 127
10, 140525, Note_on_c, 7, 71, 0
10, 140645, Note_on_c, 7, 68, 127
10, 140765, Note_on_c, 7, 68, 0
10, 140885, Note_on_c, 7, 69, 127
10, 141005, Note_on_c, 7, 69, 0
10, 141125, Control_c, 7, 11, 127
10, 141125, Note_on_c, 7, 64, 127
10, 141149, Control_c, 7, 11, 126
10, 141173, Control_c, 7, 11, 125
10, 141197, Control_c, 7, 11, 124
10, 141221, Control_c, 7, 11, 123
10, 141245, Control_c, 7, 11, 122
10, 141269, Control_c, 7, 11, 121
10, 141293, Control_c, 7, 11, 120
10, 141317, Control_c, 7, 11, 119
10, 141341, Control_c, 7, 11, 118
10, 141365, Control_c, 7, 11, 117
10, 142085, Note_on_c, 7, 64, 0
10, 142085, Control_c, 7, 11, 127
10, 142085, Note_on_c, 7, 68, 127
10, 142109, Control_c, 7, 11, 126
10, 142133, Control_c, 7, 11, 125
10, 142157, Control_c, 7, 11, 124
10, 142181, Control_c, 7, 11, 123
10, 142205, Control_c, 7, 11, 122
10, 142229, Control_c, 7, 11, 121
10, 142253, Control_c, 7, 11, 120
10, 142277, Control_c, 7, 11, 119
10, 142301, Control_c, 7, 11, 118
10, 142325, Control_c, 7, 11, 117
10, 143045, Note_on_c, 7, 68, 0
10, 143045, Control_c, 7, 11, 127
10, 143045, Note_on_c, 7, 71, 127
10, 143069, Control_c, 7, 11, 126
10, 143093, Control_c, 7, 11, 125
10, 143117, Control_c, 7, 11, 124
10, 143141, Control_c, 7, 11, 123
10, 143165, Control_c, 7, 11, 122
10, 143189, Control_c, 7, 11, 121
10, 143213, Control_c, 7, 11, 120
10, 143237, Control_c, 7, 11, 119
10, 143261, Control_c, 7, 11, 118
10, 143285, Control_c, 7, 11, 117
10, 144005, Note_on_c, 7, 71, 0
10, 144005, Control_c, 7, 11, 127
10, 144005, Note_on_c, 7, 64, 127
10, 144029, Control_c, 7, 11, 126
10, 144053, Control_c, 7, 11, 125
10, 144077, Control_c, 7, 11, 124
10, 144101, Control_c, 7, 11, 123
10, 144125, Control_c, 7, 11, 122
10, 144149, Control_c, 7, 11, 121
10, 144173, Control_c, 7, 11, 120
10, 144197, Control_c, 7, 11, 119
10, 144221, Control_c, 7, 11, 118
10, 144245, Control_c, 7, 11, 117
10, 145085, Note_on_c, 7, 64, 0
10, 145205, Note_on_c, 7, 64, 127
10, 145325, Note_on_c, 7, 64, 0
10, 145445, Note_on_c, 7, 64, 127
10, 145565, Note_on_c, 7, 64, 0
10, 145685, Note_on_c, 7, 64, 127
10, 145805, Note_on_c, 7, 64, 0
10, 145925, Note_on_c, 7, 64, 127
10, 146045, Note_on_c, 7, 64, 0
10, 146165, Note_on_c, 7, 64, 127
10, 146285, Note_on_c, 7, 64, 0
10, 146405, Note_on_c, 7, 64, 127
10, 146525, Note_on_c, 7, 64, 0
10, 146645, Note_on_c, 7, 64, 127
10, 146765, Note_on_c, 7, 64, 0
10, 146885, Note_on_c, 7, 64, 127
10, 147005, Note_on_c, 7, 64, 0
10, 147365, Note_on_c, 7, 64, 127
10, 147485, Note_on_c, 7, 64, 0
10, 147845, Note_on_c, 7, 64, 127
10, 147965, Note_on_c, 7, 64, 0
10, 148325, Control_c, 7, 121, 0
10, 148325, End_track
11, 0, Start_track
11, 0, MIDI_port, 0
11, 0, Title_t, "Trombone basso"
11, 0, Program_c, 8, 57
11, 0, Control_c, 8, 10, 90
11, 8, Control_c, 8, 121, 0
11, 13, Program_c, 8, 57
11, 18, Pitch_bend_c, 8, 7992
11, 23, Control_c, 8, 11, 102
11, 28, Control_c, 8, 7, 127
11, 33, Control_c, 8, 91, 48
11, 38, Control_c, 8, 93, 0
11, 110408, Control_c, 8, 11, 102
11, 110408, Note_on_c, 8, 52, 103
11, 110558, Note_on_c, 8, 52, 0
11, 110588, Note_on_c, 8, 47, 103
11, 110633, Note_on_c, 8, 47, 0
11, 110648, Note_on_c, 8, 47, 103
11, 110708, Note_on_c, 8, 47, 0
11, 110888, Note_on_c, 8, 56, 103
11, 111038, Note_on_c, 8, 56, 0
11, 111068, Note_on_c, 8, 52, 103
11, 111113, Note_on_c, 8, 52, 0
11, 111128, Note_on_c, 8, 52, 103
11, 111188, Note_on_c, 8, 52, 0
11, 111368, Note_on_c, 8, 59, 103
11, 111518, Note_on_c, 8, 59, 0
11, 111548, Note_on_c, 8, 56, 103
11, 111593, Note_on_c, 8, 56, 0
11, 111608, Note_on_c, 8, 56, 103
11, 111668, Note_on_c, 8, 56, 0
11, 111728, Note_on_c, 8, 52, 103
11, 111788, Note_on_c, 8, 52, 0
11, 111848, Note_on_c, 8, 47, 103
11, 111908, Note_on_c, 8, 47, 0
11, 127928, Control_c, 8, 11, 47
11, 127928, Note_on_c, 8, 56, 127
11, 128024, Control_c, 8, 11, 48
11, 128120, Control_c, 8, 11, 49
11, 128168, Note_on_c, 8, 56, 0
11, 128216, Control_c, 8, 11, 50
11, 128312, Control_c, 8, 11, 51
11, 128408, Control_c, 8, 11, 52
11, 128408, Note_on_c, 8, 56, 127
11, 128504, Control_c, 8, 11, 53
11, 128600, Control_c, 8, 11, 54
11, 128648, Note_on_c, 8, 56, 0
11, 128696, Control_c, 8, 11, 55
11, 128792, Control_c, 8, 11, 56
11, 128888, Control_c, 8, 11, 57
11, 128888, Note_on_c, 8, 57, 127
11, 128984, Control_c, 8, 11, 58
11, 129080, Control_c, 8, 11, 59
11, 129128, Note_on_c, 8, 57, 0
11, 129176, Control_c, 8, 11, 60
11, 129272, Control_c, 8, 11, 61
11, 129368, Control_c, 8, 11, 62
11, 129368, Note_on_c, 8, 57, 127
11, 129464, Control_c, 8, 11, 63
11, 129560, Control_c, 8, 11, 64
11, 129608, Note_on_c, 8, 57, 0
11, 129656, Control_c, 8, 11, 65
11, 129752, Control_c, 8, 11, 66
11, 129848, Control_c, 8, 11, 67
11, 129848, Note_on_c, 8, 54, 127
11, 129944, Control_c, 8, 11, 68
11, 130040, Control_c, 8, 11, 69
11, 130088, Note_on_c, 8, 54, 0
11, 130136, Control_c, 8, 11, 70
11, 130232, Control_c, 8, 11, 71
11, 130328, Control_c, 8, 11, 72
11, 130328, Note_on_c, 8, 54, 127
11, 130424, Control_c, 8, 11, 73
11, 130520, Control_c, 8, 11, 74
11, 130568, Note_on_c, 8, 54, 0
11, 130616, Control_c, 8, 11, 75
11, 130712, Control_c, 8, 11, 76
11, 130808, Control_c, 8, 11, 77
11, 130808, Note_on_c, 8, 54, 127
11, 130904, Control_c, 8, 11, 78
11, 131000, Control_c, 8, 11, 79
11, 131048, Note_on_c, 8, 54, 0
11, 131096, Control_c, 8, 11, 80
11, 131192, Control_c, 8, 11, 81
11, 131288, Control_c, 8, 11, 82
11, 131288, Note_on_c, 8, 54, 127
11, 131384, Control_c, 8, 11, 83
11, 131480, Control_c, 8, 11, 84
11, 131528, Note_on_c, 8, 54, 0
11, 131576, Control_c, 8, 11, 85
11, 131672, Control_c, 8, 11, 86
11, 131768, Control_c, 8, 11, 87
11, 131768, Note_on_c, 8, 54, 127
11, 132008, Note_on_c, 8, 54, 0
11, 132248, Control_c, 8, 11, 87
11, 132248, Note_on_c, 8, 54, 127
11, 132288, Control_c, 8, 11, 88
11, 132328, Control_c, 8, 11, 89
11, 132368, Control_c, 8, 11, 90
11, 132408, Control_c, 8, 11, 91
11, 132448, Control_c, 8, 11, 92
11, 132488, Note_on_c, 8, 54, 0
11, 132488, Control_c, 8, 11, 93
11, 132528, Control_c, 8, 11, 94
11, 132568, Control_c, 8, 11, 95
11, 132608, Control_c, 8, 11, 96
11, 132648, Control_c, 8, 11, 97
11, 132688, Control_c, 8, 11, 98
11, 132728, Control_c, 8, 11, 99
11, 132728, Note_on_c, 8, 54, 127
11, 132768, Control_c, 8, 11, 100
11, 132808, Control_c, 8, 11, 101
11, 132848, Control_c, 8, 11, 102
11, 132888, Control_c, 8, 11, 103
11, 132928, Control_c, 8, 11, 104
11, 132968, Note_on_c, 8, 54, 0
11, 132968, Control_c, 8, 11, 105
11, 133008, Control_c, 8, 11, 106
11, 133048, Control_c, 8, 11, 107
11, 133088, Control_c, 8, 11, 108
11, 133128, Control_c, 8, 11, 109
11, 133168, Control_c, 8, 11, 110
11, 133208, Control_c, 8, 11, 111
11, 133208, Note_on_c, 8, 54, 127
11, 133248, Control_c, 8, 11, 112
11, 133288, Control_c, 8, 11, 113
11, 133328, Control_c, 8, 11, 114
11, 133368, Control_c, 8, 11, 115
11, 133408, Control_c, 8, 11, 116
11, 133448, Note_on_c, 8, 54, 0
11, 133448, Control_c, 8, 11, 117
11, 133448, Note_on_c, 8, 54, 127
11, 135368, Note_on_c, 8, 54, 0
11, 135368, Note_on_c, 8, 52, 127
11, 135488, Note_on_c, 8, 52, 0
11, 135608, Note_on_c, 8, 52, 127
11, 135728, Note_on_c, 8, 52, 0
11, 135848, Note_on_c, 8, 52, 127
11, 135968, Note_on_c, 8, 52, 0
11, 136088, Note_on_c, 8, 52, 127
11, 136208, Note_on_c, 8, 52, 0
11, 136328, Note_on_c, 8, 52, 127
11, 136448, Note_on_c, 8, 52, 0
11, 136568, Note_on_c, 8, 52, 127
11, 136688, Note_on_c, 8, 52, 0
11, 136808, Note_on_c, 8, 52, 127
11, 136928, Note_on_c, 8, 52, 0
11, 137048, Note_on_c, 8, 59, 127
11, 137168, Note_on_c, 8, 59, 0
11, 137288, Note_on_c, 8, 59, 127
11, 137408, Note_on_c, 8, 59, 0
11, 137528, Note_on_c, 8, 59, 127
11, 137648, Note_on_c, 8, 59, 0
11, 137768, Note_on_c, 8, 52, 127
11, 137888, Note_on_c, 8, 52, 0
11, 138008, Note_on_c, 8, 54, 127
11, 138128, Note_on_c, 8, 54, 0
11, 138248, Note_on_c, 8, 52, 127
11, 138368, Note_on_c, 8, 52, 0
11, 138488, Note_on_c, 8, 52, 127
11, 138608, Note_on_c, 8, 52, 0
11, 138728, Note_on_c, 8, 52, 127
11, 138848, Note_on_c, 8, 52, 0
11, 138968, Note_on_c, 8, 52, 127
11, 139088, Note_on_c, 8, 52, 0
11, 139208, Note_on_c, 8, 52, 127
11, 139328, Note_on_c, 8, 52, 0
11, 139448, Note_on_c, 8, 52, 127
11, 139568, Note_on_c, 8, 52, 0
11, 139688, Note_on_c, 8, 52, 127
11, 139808, Note_on_c, 8, 52, 0
11, 139928, Note_on_c, 8, 59, 127
11, 140048, Note_on_c, 8, 59, 0
11, 140168, Note_on_c, 8, 59, 127
11, 140288, Note_on_c, 8, 59, 0
11, 140408, Note_on_c, 8, 59, 127
11, 140528, Note_on_c, 8, 59, 0
11, 140648, Note_on_c, 8, 52, 127
11, 140768, Note_on_c, 8, 52, 0
11, 140888, Note_on_c, 8, 54, 127
11, 141008, Note_on_c, 8, 54, 0
11, 141128, Control_c, 8, 11, 127
11, 141128, Note_on_c, 8, 52, 127
11, 141152, Control_c, 8, 11, 126
11, 141176, Control_c, 8, 11, 125
11, 141200, Control_c, 8, 11, 124
11, 141224, Control_c, 8, 11, 123
11, 141248, Control_c, 8, 11, 122
11, 141272, Control_c, 8, 11, 121
11, 141296, Control_c, 8, 11, 120
11, 141320, Control_c, 8, 11, 119
11, 141344, Control_c, 8, 11, 118
11, 141368, Control_c, 8, 11, 117
11, 142088, Note_on_c, 8, 52, 0
11, 142088, Control_c, 8, 11, 127
11, 142088, Note_on_c, 8, 56, 127
11, 142112, Control_c, 8, 11, 126
11, 142136, Control_c, 8, 11, 125
11, 142160, Control_c, 8, 11, 124
11, 142184, Control_c, 8, 11, 123
11, 142208, Control_c, 8, 11, 122
11, 142232, Control_c, 8, 11, 121
11, 142256, Control_c, 8, 11, 120
11, 142280, Control_c, 8, 11, 119
11, 142304, Control_c, 8, 11, 118
11, 142328, Control_c, 8, 11, 117
11, 143048, Note_on_c, 8, 56, 0
11, 143048, Control_c, 8, 11, 127
11, 143048, Note_on_c, 8, 59, 127
11, 143072, Control_c, 8, 11, 126
11, 143096, Control_c, 8, 11, 125
11, 143120, Control_c, 8, 11, 124
11, 143144, Control_c, 8, 11, 123
11, 143168, Control_c, 8, 11, 122
11, 143192, Control_c, 8, 11, 121
11, 143216, Control_c, 8, 11, 120
11, 143240, Control_c, 8, 11, 119
11, 143264, Control_c, 8, 11, 118
11, 143288, Control_c, 8, 11, 117
11, 144008, Note_on_c, 8, 59, 0
11, 144008, Control_c, 8, 11, 127
11, 144008, Note_on_c, 8, 52, 127
11, 144032, Control_c, 8, 11, 126
11, 144056, Control_c, 8, 11, 125
11, 144080, Control_c, 8, 11, 124
11, 144104, Control_c, 8, 11, 123
11, 144128, Control_c, 8, 11, 122
11, 144152, Control_c, 8, 11, 121
11, 144176, Control_c, 8, 11, 120
11, 144200, Control_c, 8, 11, 119
11, 144224, Control_c, 8, 11, 118
11, 144248, Control_c, 8, 11, 117
11, 145088, Note_on_c, 8, 52, 0
11, 145208, Note_on_c, 8, 52, 127
11, 145328, Note_on_c, 8, 52, 0
11, 145448, Note_on_c, 8, 52, 127
11, 145568, Note_on_c, 8, 52, 0
11, 145688, Note_on_c, 8, 52, 127
11, 145808, Note_on_c, 8, 52, 0
11, 145928, Note_on_c, 8, 52, 127
11, 146048, Note_on_c, 8, 52, 0
11, 146168, Note_on_c, 8, 52, 127
11, 146288, Note_on_c, 8, 52, 0
11, 146408, Note_on_c, 8, 52, 127
11, 146528, Note_on_c, 8, 52, 0
11, 146648, Note_on_c, 8, 52, 127
11, 146768, Note_on_c, 8, 52, 0
11, 146888, Note_on_c, 8, 52, 127
11, 147008, Note_on_c, 8, 52, 0
11, 147368, Note_on_c, 8, 52, 127
11, 147488, Note_on_c, 8, 52, 0
11, 147848, Note_on_c, 8, 52, 127
11, 147968, Note_on_c, 8, 52, 0
11, 148328, Control_c, 8, 121, 0
11, 148328, End_track
12, 0, Start_track
12, 0, MIDI_port, 0
12, 0, Title_t, "Violine I"
12, 0, Program_c, 10, 48
12, 0, Control_c, 10, 10, 12
12, 0, Control_c, 10, 121, 0
12, 5, Program_c, 10, 48
12, 10, Pitch_bend_c, 10, 8442
12, 15, Control_c, 10, 11, 102
12, 20, Control_c, 10, 7, 127
12, 25, Control_c, 10, 91, 48
12, 30, Control_c, 10, 93, 0
12, 35, Control_c, 10, 1, 36
12, 480, Control_c, 10, 11, 87
12, 480, Note_on_c, 10, 76, 100
12, 630, Note_on_c, 10, 76, 0
12, 660, Note_on_c, 10, 71, 100
12, 710, Note_on_c, 10, 71, 0
12, 720, Note_on_c, 10, 71, 100
12, 780, Note_on_c, 10, 71, 0
12, 960, Control_c, 10, 11, 107
12, 960, Note_on_c, 10, 80, 100
12, 978, Control_c, 10, 11, 104
12, 996, Control_c, 10, 11, 101
12, 1014, Control_c, 10, 11, 98
12, 1032, Control_c, 10, 11, 95
12, 1050, Control_c, 10, 11, 92
12, 1068, Control_c, 10, 11, 89
12, 1110, Note_on_c, 10, 80, 0
12, 1140, Note_on_c, 10, 76, 100
12, 1190, Note_on_c, 10, 76, 0
12, 1200, Note_on_c, 10, 76, 100
12, 1260, Note_on_c, 10, 76, 0
12, 1440, Control_c, 10, 11, 107
12, 1440, Note_on_c, 10, 83, 100
12, 1458, Control_c, 10, 11, 104
12, 1476, Control_c, 10, 11, 101
12, 1494, Control_c, 10, 11, 98
12, 1512, Control_c, 10, 11, 95
12, 1530, Control_c, 10, 11, 92
12, 1548, Control_c, 10, 11, 89
12, 1590, Note_on_c, 10, 83, 0
12, 1620, Note_on_c, 10, 80, 100
12, 1670, Note_on_c, 10, 80, 0
12, 1680, Note_on_c, 10, 80, 100
12, 1740, Note_on_c, 10, 80, 0
12, 1800, Note_on_c, 10, 80, 100
12, 1800, Note_on_c, 10, 71, 100
12, 1800, Note_on_c, 10, 88, 100
12, 1860, Note_on_c, 10, 88, 0
12, 1860, Note_on_c, 10, 71, 0
12, 1860, Note_on_c, 10, 80, 0
12, 1920, Note_on_c, 10, 78, 100
12, 1920, Note_on_c, 10, 87, 100
12, 1920, Note_on_c, 10, 71, 100
12, 1980, Note_on_c, 10, 71, 0
12, 1980, Note_on_c, 10, 87, 0
12, 1980, Note_on_c, 10, 78, 0
12, 6240, Control_c, 10, 11, 87
12, 6240, Note_on_c, 10, 81, 100
12, 6390, Note_on_c, 10, 81, 0
12, 6420, Note_on_c, 10, 76, 100
12, 6470, Note_on_c, 10, 76, 0
12, 6480, Note_on_c, 10, 76, 100
12, 6540, Note_on_c, 10, 76, 0
12, 6720, Control_c, 10, 11, 107
12, 6720, Note_on_c, 10, 85, 100
12, 6738, Control_c, 10, 11, 104
12, 6756, Control_c, 10, 11, 101
12, 6774, Control_c, 10, 11, 98
12, 6792, Control_c, 10, 11, 95
12, 6810, Control_c, 10, 11, 92
12, 6828, Control_c, 10, 11, 89
12, 6870, Note_on_c, 10, 85, 0
12, 6900, Note_on_c, 10, 69, 100
12, 6900, Note_on_c, 10, 81, 100
12, 6950, Note_on_c, 10, 81, 0
12, 6950, Note_on_c, 10, 69, 0
12, 6960, Note_on_c, 10, 81, 100
12, 6960, Note_on_c, 10, 69, 100
12, 7020, Note_on_c, 10, 69, 0
12, 7020, Note_on_c, 10, 81, 0
12, 7200, Control_c, 10, 11, 107
12, 7200, Note_on_c, 10, 76, 100
12, 7218, Control_c, 10, 11, 104
12, 7236, Control_c, 10, 11, 101
12, 7254, Control_c, 10, 11, 98
12, 7272, Control_c, 10, 11, 95
12, 7290, Control_c, 10, 11, 92
12, 7308, Control_c, 10, 11, 89
12, 7350, Note_on_c, 10, 76, 0
12, 7380, Note_on_c, 10, 73, 100
12, 7430, Note_on_c, 10, 73, 0
12, 7440, Note_on_c, 10, 73, 100
12, 7500, Note_on_c, 10, 73, 0
12, 7560, Note_on_c, 10, 64, 100
12, 7560, Note_on_c, 10, 81, 100
12, 7560, Note_on_c, 10, 73, 100
12, 7620, Note_on_c, 10, 73, 0
12, 7620, Note_on_c, 10, 81, 0
12, 7620, Note_on_c, 10, 64, 0
12, 7680, Note_on_c, 10, 80, 100
12, 7680, Note_on_c, 10, 64, 100
12, 7680, Note_on_c, 10, 71, 100
12, 7740, Note_on_c, 10, 71, 0
12, 7740, Note_on_c, 10, 64, 0
12, 7740, Note_on_c, 10, 80, 0
12, 10080, Control_c, 10, 11, 22
12, 10080, Note_on_c, 10, 69, 100
12, 10096, Control_c, 10, 11, 25
12, 10112, Control_c, 10, 11, 28
12, 10128, Control_c, 10, 11, 31
12, 10144, Control_c, 10, 11, 34
12, 10162, Control_c, 10, 11, 35
12, 10180, Control_c, 10, 11, 36
12, 10198, Control_c, 10, 11, 37
12, 10216, Control_c, 10, 11, 38
12, 10234, Control_c, 10, 11, 39
12, 10252, Control_c, 10, 11, 40
12, 10270, Control_c, 10, 11, 41
12, 10288, Control_c, 10, 11, 42
12, 10306, Control_c, 10, 11, 43
12, 10324, Control_c, 10, 11, 44
12, 10342, Control_c, 10, 11, 45
12, 10360, Control_c, 10, 11, 46
12, 10378, Control_c, 10, 11, 47
12, 10396, Control_c, 10, 11, 48
12, 10414, Control_c, 10, 11, 49
12, 10432, Control_c, 10, 11, 50
12, 10450, Control_c, 10, 11, 51
12, 10468, Control_c, 10, 11, 52
12, 10486, Control_c, 10, 11, 53
12, 10504, Control_c, 10, 11, 54
12, 10522, Control_c, 10, 11, 55
12, 10540, Control_c, 10, 11, 56
12, 10555, Note_on_c, 10, 69, 0
12, 10559, Control_c, 10, 11, 57
12, 10560, Note_on_c, 10, 65, 100
12, 10578, Control_c, 10, 11, 56
12, 10597, Control_c, 10, 11, 55
12, 10616, Control_c, 10, 11, 54
12, 10635, Control_c, 10, 11, 53
12, 10655, Control_c, 10, 11, 52
12, 10674, Control_c, 10, 11, 51
12, 10693, Control_c, 10, 11, 50
12, 10712, Control_c, 10, 11, 49
12, 10731, Control_c, 10, 11, 48
12, 10751, Control_c, 10, 11, 47
12, 10770, Control_c, 10, 11, 46
12, 10789, Control_c, 10, 11, 45
12, 10808, Control_c, 10, 11, 44
12, 10827, Control_c, 10, 11, 43
12, 10847, Control_c, 10, 11, 42
12, 10866, Control_c, 10, 11, 41
12, 10885, Control_c, 10, 11, 40
12, 10904, Control_c, 10, 11, 39
12, 10923, Control_c, 10, 11, 38
12, 10943, Control_c, 10, 11, 37
12, 10962, Control_c, 10, 11, 36
12, 10981, Control_c, 10, 11, 35
12, 11000, Control_c, 10, 11, 34
12, 11019, Control_c, 10, 11, 33
12, 11035, Note_on_c, 10, 65, 0
12, 11039, Control_c, 10, 11, 32
12, 11040, Note_on_c, 10, 64, 72
12, 11080, Note_on_c, 10, 64, 0
12, 11080, Note_on_c, 10, 60, 72
12, 11120, Note_on_c, 10, 60, 0
12, 11120, Note_on_c, 10, 64, 72
12, 11160, Note_on_c, 10, 64, 0
12, 11160, Note_on_c, 10, 60, 72
12, 11200, Note_on_c, 10, 60, 0
12, 11200, Note_on_c, 10, 64, 72
12, 11240, Note_on_c, 10, 64, 0
12, 11240, Note_on_c, 10, 60, 72
12, 11280, Note_on_c, 10, 60, 0
12, 11280, Note_on_c, 10, 64, 72
12, 11320, Note_on_c, 10, 64, 0
12, 11320, Note_on_c, 10, 60, 72
12, 11360, Note_on_c, 10, 60, 0
12, 11360, Note_on_c, 10, 64, 73
12, 11400, Note_on_c, 10, 64, 0
12, 11400, Note_on_c, 10, 60, 73
12, 11440, Note_on_c, 10, 60, 0
12, 11440, Note_on_c, 10, 64, 73
12, 11480, Note_on_c, 10, 64, 0
12, 11480, Note_on_c, 10, 60, 73
12, 11510, Note_on_c, 10, 60, 0
12, 11520, Note_on_c, 10, 64, 73
12, 11560, Note_on_c, 10, 64, 0
12, 11560, Note_on_c, 10, 60, 73
12, 11600, Note_on_c, 10, 60, 0
12, 11600, Note_on_c, 10, 64, 73
12, 11640, Note_on_c, 10, 64, 0
12, 11640, Note_on_c, 10, 60, 73
12, 11680, Note_on_c, 10, 60, 0
12, 11680, Note_on_c, 10, 64, 73
12, 11720, Note_on_c, 10, 64, 0
12, 11720, Note_on_c, 10, 60, 73
12, 11760, Note_on_c, 10, 60, 0
12, 11760, Note_on_c, 10, 64, 73
12, 11800, Note_on_c, 10, 64, 0
12, 11800, Note_on_c, 10, 60, 73
12, 11840, Note_on_c, 10, 60, 0
12, 11840, Note_on_c, 10, 64, 73
12, 11880, Note_on_c, 10, 64, 0
12, 11880, Note_on_c, 10, 60, 73
12, 11920, Note_on_c, 10, 60, 0
12, 11920, Note_on_c, 10, 64, 73
12, 11960, Note_on_c, 10, 64, 0
12, 11960, Note_on_c, 10, 60, 73
12, 11990, Note_on_c, 10, 60, 0
12, 12000, Note_on_c, 10, 64, 74
12, 12040, Note_on_c, 10, 64, 0
12, 12040, Note_on_c, 10, 60, 74
12, 12080, Note_on_c, 10, 60, 0
12, 12080, Note_on_c, 10, 64, 74
12, 12120, Note_on_c, 10, 64, 0
12, 12120, Note_on_c, 10, 60, 74
12, 12160, Note_on_c, 10, 60, 0
12, 12160, Note_on_c, 10, 64, 74
12, 12200, Note_on_c, 10, 64, 0
12, 12200, Note_on_c, 10, 60, 74
12, 12240, Note_on_c, 10, 60, 0
12, 12240, Note_on_c, 10, 64, 74
12, 12280, Note_on_c, 10, 64, 0
12, 12280, Note_on_c, 10, 60, 74
12, 12320, Note_on_c, 10, 60, 0
12, 12320, Note_on_c, 10, 64, 75
12, 12360, Note_on_c, 10, 64, 0
12, 12360, Note_on_c, 10, 60, 75
12, 12400, Note_on_c, 10, 60, 0
12, 12400, Note_on_c, 10, 64, 75
12, 12440, Note_on_c, 10, 64, 0
12, 12440, Note_on_c, 10, 60, 75
12, 12470, Note_on_c, 10, 60, 0
12, 12480, Note_on_c, 10, 64, 75
12, 12520, Note_on_c, 10, 64, 0
12, 12520, Note_on_c, 10, 60, 75
12, 12560, Note_on_c, 10, 60, 0
12, 12560, Note_on_c, 10, 64, 75
12, 12600, Note_on_c, 10, 64, 0
12, 12600, Note_on_c, 10, 60, 75
12, 12640, Note_on_c, 10, 60, 0
12, 12640, Note_on_c, 10, 64, 76
12, 12680, Note_on_c, 10, 64, 0
12, 12680, Note_on_c, 10, 60, 76
12, 12720, Note_on_c, 10, 60, 0
12, 12720, Note_on_c, 10, 64, 76
12, 12760, Note_on_c, 10, 64, 0
12, 12760, Note_on_c, 10, 60, 76
12, 12800, Note_on_c, 10, 60, 0
12, 12800, Note_on_c, 10, 64, 76
12, 12840, Note_on_c, 10, 64, 0
12, 12840, Note_on_c, 10, 60, 76
12, 12880, Note_on_c, 10, 60, 0
12, 12880, Note_on_c, 10, 64, 76
12, 12920, Note_on_c, 10, 64, 0
12, 12920, Note_on_c, 10, 60, 76
12, 12950, Note_on_c, 10, 60, 0
12, 12960, Control_c, 10, 11, 32
12, 12960, Note_on_c, 10, 69, 77
12, 13000, Note_on_c, 10, 69, 0
12, 13000, Note_on_c, 10, 65, 77
12, 13003, Control_c, 10, 11, 33
12, 13040, Note_on_c, 10, 65, 0
12, 13040, Note_on_c, 10, 69, 77
12, 13047, Control_c, 10, 11, 34
12, 13080, Note_on_c, 10, 69, 0
12, 13080, Note_on_c, 10, 65, 77
12, 13090, Control_c, 10, 11, 35
12, 13120, Note_on_c, 10, 65, 0
12, 13120, Note_on_c, 10, 69, 77
12, 13134, Control_c, 10, 11, 36
12, 13160, Note_on_c, 10, 69, 0
12, 13160, Note_on_c, 10, 65, 77
12, 13178, Control_c, 10, 11, 37
12, 13200, Note_on_c, 10, 65, 0
12, 13200, Note_on_c, 10, 69, 77
12, 13221, Control_c, 10, 11, 38
12, 13240, Note_on_c, 10, 69, 0
12, 13240, Note_on_c, 10, 65, 77
12, 13265, Control_c, 10, 11, 39
12, 13280, Note_on_c, 10, 65, 0
12, 13280, Note_on_c, 10, 69, 78
12, 13309, Control_c, 10, 11, 40
12, 13320, Note_on_c, 10, 69, 0
12, 13320, Note_on_c, 10, 65, 78
12, 13352, Control_c, 10, 11, 41
12, 13360, Note_on_c, 10, 65, 0
12, 13360, Note_on_c, 10, 69, 78
12, 13396, Control_c, 10, 11, 42
12, 13400, Note_on_c, 10, 69, 0
12, 13400, Note_on_c, 10, 65, 78
12, 13430, Note_on_c, 10, 65, 0
12, 13440, Control_c, 10, 11, 43
12, 13440, Note_on_c, 10, 69, 78
12, 13476, Control_c, 10, 11, 44
12, 13480, Note_on_c, 10, 69, 0
12, 13480, Note_on_c, 10, 65, 78
12, 13520, Note_on_c, 10, 65, 0
12, 13520, Note_on_c, 10, 69, 78
12, 13550, Control_c, 10, 11, 45
12, 13560, Note_on_c, 10, 69, 0
12, 13560, Note_on_c, 10, 65, 78
12, 13600, Note_on_c, 10, 65, 0
12, 13600, Note_on_c, 10, 69, 79
12, 13624, Control_c, 10, 11, 46
12, 13640, Note_on_c, 10, 69, 0
12, 13640, Note_on_c, 10, 65, 79
12, 13680, Note_on_c, 10, 65, 0
12, 13680, Note_on_c, 10, 69, 79
12, 13698, Control_c, 10, 11, 47
12, 13720, Note_on_c, 10, 69, 0
12, 13720, Note_on_c, 10, 65, 79
12, 13760, Note_on_c, 10, 65, 0
12, 13760, Note_on_c, 10, 69, 79
12, 13772, Control_c, 10, 11, 48
12, 13800, Note_on_c, 10, 69, 0
12, 13800, Note_on_c, 10, 65, 79
12, 13840, Note_on_c, 10, 65, 0
12, 13840, Note_on_c, 10, 69, 79
12, 13846, Control_c, 10, 11, 49
12, 13880, Note_on_c, 10, 69, 0
12, 13880, Note_on_c, 10, 65, 79
12, 13910, Note_on_c, 10, 65, 0
12, 13920, Control_c, 10, 11, 50
12, 13920, Note_on_c, 10, 69, 79
12, 13960, Note_on_c, 10, 69, 0
12, 13960, Note_on_c, 10, 66, 79
12, 13993, Control_c, 10, 11, 51
12, 14000, Note_on_c, 10, 66, 0
12, 14000, Note_on_c, 10, 69, 79
12, 14040, Note_on_c, 10, 69, 0
12, 14040, Note_on_c, 10, 66, 79
12, 14067, Control_c, 10, 11, 52
12, 14080, Note_on_c, 10, 66, 0
12, 14080, Note_on_c, 10, 69, 79
12, 14120, Note_on_c, 10, 69, 0
12, 14120, Note_on_c, 10, 66, 79
12, 14141, Control_c, 10, 11, 53
12, 14160, Note_on_c, 10, 66, 0
12, 14160, Note_on_c, 10, 69, 79
12, 14200, Note_on_c, 10, 69, 0
12, 14200, Note_on_c, 10, 66, 79
12, 14215, Control_c, 10, 11, 54
12, 14240, Note_on_c, 10, 66, 0
12, 14240, Note_on_c, 10, 69, 80
12, 14280, Note_on_c, 10, 69, 0
12, 14280, Note_on_c, 10, 66, 80
12, 14289, Control_c, 10, 11, 55
12, 14320, Note_on_c, 10, 66, 0
12, 14320, Note_on_c, 10, 69, 80
12, 14360, Note_on_c, 10, 69, 0
12, 14360, Note_on_c, 10, 66, 80
12, 14363, Control_c, 10, 11, 56
12, 14390, Note_on_c, 10, 66, 0
12, 14400, Note_on_c, 10, 69, 80
12, 14436, Control_c, 10, 11, 57
12, 14440, Note_on_c, 10, 69, 0
12, 14440, Note_on_c, 10, 66, 80
12, 14480, Note_on_c, 10, 66, 0
12, 14480, Note_on_c, 10, 69, 80
12, 14510, Control_c, 10, 11, 58
12, 14520, Note_on_c, 10, 69, 0
12, 14520, Note_on_c, 10, 66, 80
12, 14560, Note_on_c, 10, 66, 0
12, 14560, Note_on_c, 10, 69, 81
12, 14584, Control_c, 10, 11, 59
12, 14600, Note_on_c, 10, 69, 0
12, 14600, Note_on_c, 10, 66, 81
12, 14640, Note_on_c, 10, 66, 0
12, 14640, Note_on_c, 10, 69, 81
12, 14658, Control_c, 10, 11, 60
12, 14680, Note_on_c, 10, 69, 0
12, 14680, Note_on_c, 10, 66, 81
12, 14720, Note_on_c, 10, 66, 0
12, 14720, Note_on_c, 10, 69, 81
12, 14732, Control_c, 10, 11, 61
12, 14760, Note_on_c, 10, 69, 0
12, 14760, Note_on_c, 10, 66, 81
12, 14800, Note_on_c, 10, 66, 0
12, 14800, Note_on_c, 10, 69, 81
12, 14806, Control_c, 10, 11, 62
12, 14840, Note_on_c, 10, 69, 0
12, 14840, Note_on_c, 10, 66, 81
12, 14870, Note_on_c, 10, 66, 0
12, 14880, Control_c, 10, 11, 63
12, 14880, Note_on_c, 10, 75, 82
12, 14920, Note_on_c, 10, 75, 0
12, 14920, Note_on_c, 10, 69, 82
12, 14953, Control_c, 10, 11, 64
12, 14960, Note_on_c, 10, 69, 0
12, 14960, Note_on_c, 10, 75, 82
12, 15000, Note_on_c, 10, 75, 0
12, 15000, Note_on_c, 10, 69, 82
12, 15027, Control_c, 10, 11, 65
12, 15040, Note_on_c, 10, 69, 0
12, 15040, Note_on_c, 10, 75, 82
12, 15080, Note_on_c, 10, 75, 0
12, 15080, Note_on_c, 10, 69, 82
12, 15101, Control_c, 10, 11, 66
12, 15120, Note_on_c, 10, 69, 0
12, 15120, Note_on_c, 10, 75, 82
12, 15160, Note_on_c, 10, 75, 0
12, 15160, Note_on_c, 10, 69, 82
12, 15175, Control_c, 10, 11, 67
12, 15200, Note_on_c, 10, 69, 0
12, 15200, Note_on_c, 10, 75, 83
12, 15240, Note_on_c, 10, 75, 0
12, 15240, Note_on_c, 10, 69, 83
12, 15249, Control_c, 10, 11, 68
12, 15280, Note_on_c, 10, 69, 0
12, 15280, Note_on_c, 10, 75, 83
12, 15320, Note_on_c, 10, 75, 0
12, 15320, Note_on_c, 10, 69, 83
12, 15323, Control_c, 10, 11, 69
12, 15350, Note_on_c, 10, 69, 0
12, 15360, Note_on_c, 10, 75, 83
12, 15396, Control_c, 10, 11, 70
12, 15400, Note_on_c, 10, 75, 0
12, 15400, Note_on_c, 10, 69, 83
12, 15440, Note_on_c, 10, 69, 0
12, 15440, Note_on_c, 10, 75, 83
12, 15470, Control_c, 10, 11, 71
12, 15480, Note_on_c, 10, 75, 0
12, 15480, Note_on_c, 10, 69, 83
12, 15520, Note_on_c, 10, 69, 0
12, 15520, Note_on_c, 10, 75, 84
12, 15544, Control_c, 10, 11, 72
12, 15560, Note_on_c, 10, 75, 0
12, 15560, Note_on_c, 10, 69, 84
12, 15600, Note_on_c, 10, 69, 0
12, 15600, Note_on_c, 10, 75, 84
12, 15618, Control_c, 10, 11, 73
12, 15640, Note_on_c, 10, 75, 0
12, 15640, Note_on_c, 10, 69, 84
12, 15680, Note_on_c, 10, 69, 0
12, 15680, Note_on_c, 10, 75, 84
12, 15692, Control_c, 10, 11, 74
12, 15720, Note_on_c, 10, 75, 0
12, 15720, Note_on_c, 10, 69, 84
12, 15760, Note_on_c, 10, 69, 0
12, 15760, Note_on_c, 10, 75, 84
12, 15766, Control_c, 10, 11, 75
12, 15800, Note_on_c, 10, 75, 0
12, 15800, Note_on_c, 10, 69, 84
12, 15830, Note_on_c, 10, 69, 0
12, 15840, Control_c, 10, 11, 76
12, 15840, Note_on_c, 10, 78, 85
12, 15880, Note_on_c, 10, 78, 0
12, 15880, Note_on_c, 10, 75, 85
12, 15913, Control_c, 10, 11, 77
12, 15920, Note_on_c, 10, 75, 0
12, 15920, Note_on_c, 10, 78, 85
12, 15960, Note_on_c, 10, 78, 0
12, 15960, Note_on_c, 10, 75, 85
12, 15987, Control_c, 10, 11, 78
12, 16000, Note_on_c, 10, 75, 0
12, 16000, Note_on_c, 10, 78, 85
12, 16040, Note_on_c, 10, 78, 0
12, 16040, Note_on_c, 10, 75, 85
12, 16061, Control_c, 10, 11, 79
12, 16080, Note_on_c, 10, 75, 0
12, 16080, Note_on_c, 10, 78, 85
12, 16120, Note_on_c, 10, 78, 0
12, 16120, Note_on_c, 10, 75, 85
12, 16135, Control_c, 10, 11, 80
12, 16160, Note_on_c, 10, 75, 0
12, 16160, Note_on_c, 10, 78, 85
12, 16200, Note_on_c, 10, 78, 0
12, 16200, Note_on_c, 10, 75, 85
12, 16209, Control_c, 10, 11, 81
12, 16240, Note_on_c, 10, 75, 0
12, 16240, Note_on_c, 10, 78, 85
12, 16280, Note_on_c, 10, 78, 0
12, 16280, Note_on_c, 10, 75, 85
12, 16283, Control_c, 10, 11, 82
12, 16310, Note_on_c, 10, 75, 0
12, 16320, Note_on_c, 10, 81, 85
12, 16356, Control_c, 10, 11, 83
12, 16360, Note_on_c, 10, 81, 0
12, 16360, Note_on_c, 10, 78, 85
12, 16400, Note_on_c, 10, 78, 0
12, 16400, Note_on_c, 10, 81, 85
12, 16430, Control_c, 10, 11, 84
12, 16440, Note_on_c, 10, 81, 0
12, 16440, Note_on_c, 10, 78, 85
12, 16480, Note_on_c, 10, 78, 0
12, 16480, Note_on_c, 10, 81, 85
12, 16504, Control_c, 10, 11, 85
12, 16520, Note_on_c, 10, 81, 0
12, 16520, Note_on_c, 10, 78, 85
12, 16560, Note_on_c, 10, 78, 0
12, 16560, Note_on_c, 10, 81, 85
12, 16578, Control_c, 10, 11, 86
12, 16600, Note_on_c, 10, 81, 0
12, 16600, Note_on_c, 10, 78, 85
12, 16640, Note_on_c, 10, 78, 0
12, 16640, Note_on_c, 10, 81, 85
12, 16652, Control_c, 10, 11, 87
12, 16680, Note_on_c, 10, 81, 0
12, 16680, Note_on_c, 10, 78, 85
12, 16720, Note_on_c, 10, 78, 0
12, 16720, Note_on_c, 10, 81, 85
12, 16726, Control_c, 10, 11, 88
12, 16760, Note_on_c, 10, 81, 0
12, 16760, Note_on_c, 10, 78, 85
12, 16790, Note_on_c, 10, 78, 0
12, 16800, Control_c, 10, 11, 89
12, 16800, Note_on_c, 10, 82, 85
12, 16840, Note_on_c, 10, 82, 0
12, 16840, Note_on_c, 10, 73, 85
12, 16873, Control_c, 10, 11, 90
12, 16880, Note_on_c, 10, 73, 0
12, 16880, Note_on_c, 10, 82, 86
12, 16920, Note_on_c, 10, 82, 0
12, 16920, Note_on_c, 10, 73, 86
12, 16947, Control_c, 10, 11, 91
12, 16960, Note_on_c, 10, 73, 0
12, 16960, Note_on_c, 10, 82, 87
12, 17000, Note_on_c, 10, 82, 0
12, 17000, Note_on_c, 10, 73, 88
12, 17021, Control_c, 10, 11, 92
12, 17040, Note_on_c, 10, 73, 0
12, 17040, Note_on_c, 10, 82, 88
12, 17080, Note_on_c, 10, 82, 0
12, 17080, Note_on_c, 10, 73, 89
12, 17095, Control_c, 10, 11, 93
12, 17120, Note_on_c, 10, 73, 0
12, 17120, Note_on_c, 10, 82, 90
12, 17160, Note_on_c, 10, 82, 0
12, 17160, Note_on_c, 10, 73, 90
12, 17169, Control_c, 10, 11, 94
12, 17200, Note_on_c, 10, 73, 0
12, 17200, Note_on_c, 10, 82, 91
12, 17240, Note_on_c, 10, 82, 0
12, 17240, Note_on_c, 10, 73, 91
12, 17243, Control_c, 10, 11, 95
12, 17270, Note_on_c, 10, 73, 0
12, 17280, Note_on_c, 10, 82, 92
12, 17316, Control_c, 10, 11, 96
12, 17320, Note_on_c, 10, 82, 0
12, 17320, Note_on_c, 10, 73, 93
12, 17360, Note_on_c, 10, 73, 0
12, 17360, Note_on_c, 10, 82, 93
12, 17390, Control_c, 10, 11, 97
12, 17400, Note_on_c, 10, 82, 0
12, 17400, Note_on_c, 10, 73, 94
12, 17440, Note_on_c, 10, 73, 0
12, 17440, Note_on_c, 10, 82, 95
12, 17464, Control_c, 10, 11, 98
12, 17480, Note_on_c, 10, 82, 0
12, 17480, Note_on_c, 10, 73, 95
12, 17520, Note_on_c, 10, 73, 0
12, 17520, Note_on_c, 10, 82, 96
12, 17538, Control_c, 10, 11, 99
12, 17560, Note_on_c, 10, 82, 0
12, 17560, Note_on_c, 10, 73, 96
12, 17600, Note_on_c, 10, 73, 0
12, 17600, Note_on_c, 10, 82, 97
12, 17612, Control_c, 10, 11, 100
12, 17640, Note_on_c, 10, 82, 0
12, 17640, Note_on_c, 10, 73, 98
12, 17680, Note_on_c, 10, 73, 0
12, 17680, Note_on_c, 10, 82, 98
12, 17686, Control_c, 10, 11, 101
12, 17720, Note_on_c, 10, 82, 0
12, 17720, Note_on_c, 10, 73, 99
12, 17750, Note_on_c, 10, 73, 0
12, 17760, Control_c, 10, 11, 102
12, 17760, Note_on_c, 10, 83, 100
12, 17790, Note_on_c, 10, 83, 0
12, 17800, Note_on_c, 10, 71, 100
12, 17830, Note_on_c, 10, 71, 0
12, 17840, Note_on_c, 10, 83, 100
12, 17840, Note_on_c, 10, 71, 100
12, 17910, Note_on_c, 10, 71, 0
12, 17910, Note_on_c, 10, 83, 0
12, 17920, Note_on_c, 10, 71, 100
12, 17950, Note_on_c, 10, 71, 0
12, 17960, Note_on_c, 10, 83, 100
12, 17960, Note_on_c, 10, 71, 100
12, 18030, Note_on_c, 10, 71, 0
12, 18030, Note_on_c, 10, 83, 0
12, 18040, Note_on_c, 10, 71, 100
12, 18070, Note_on_c, 10, 71, 0
12, 18080, Note_on_c, 10, 83, 100
12, 18080, Note_on_c, 10, 71, 100
12, 18150, Note_on_c, 10, 71, 0
12, 18150, Note_on_c, 10, 83, 0
12, 18160, Note_on_c, 10, 71, 100
12, 18190, Note_on_c, 10, 71, 0
12, 18200, Note_on_c, 10, 71, 100
12, 18200, Note_on_c, 10, 83, 100
12, 18270, Note_on_c, 10, 83, 0
12, 18270, Note_on_c, 10, 71, 0
12, 18280, Note_on_c, 10, 71, 100
12, 18310, Note_on_c, 10, 71, 0
12, 18320, Note_on_c, 10, 71, 100
12, 18320, Note_on_c, 10, 83, 100
12, 18390, Note_on_c, 10, 83, 0
12, 18390, Note_on_c, 10, 71, 0
12, 18400, Note_on_c, 10, 71, 100
12, 18430, Note_on_c, 10, 71, 0
12, 18440, Note_on_c, 10, 71, 100
12, 18440, Note_on_c, 10, 83, 100
12, 18510, Note_on_c, 10, 83, 0
12, 18510, Note_on_c, 10, 71, 0
12, 18520, Note_on_c, 10, 71, 100
12, 18550, Note_on_c, 10, 71, 0
12, 18560, Note_on_c, 10, 71, 100
12, 18560, Note_on_c, 10, 83, 100
12, 18630, Note_on_c, 10, 83, 0
12, 18630, Note_on_c, 10, 71, 0
12, 18640, Note_on_c, 10, 71, 100
12, 18670, Note_on_c, 10, 71, 0
12, 18680, Control_c, 10, 11, 102
12, 18680, Note_on_c, 10, 71, 100
12, 18680, Note_on_c, 10, 83, 100
12, 18684, Control_c, 10, 11, 99
12, 18688, Control_c, 10, 11, 96
12, 18692, Control_c, 10, 11, 93
12, 18698, Control_c, 10, 11, 89
12, 18702, Control_c, 10, 11, 86
12, 18708, Control_c, 10, 11, 82
12, 18710, Note_on_c, 10, 83, 0
12, 18710, Note_on_c, 10, 71, 0
12, 18714, Control_c, 10, 11, 78
12, 18718, Control_c, 10, 11, 75
12, 18724, Control_c, 10, 11, 71
12, 18730, Control_c, 10, 11, 67
12, 18734, Control_c, 10, 11, 64
12, 18740, Control_c, 10, 11, 60
12, 18746, Control_c, 10, 11, 56
12, 18750, Control_c, 10, 11, 53
12, 18756, Control_c, 10, 11, 49
12, 18760, Note_on_c, 10, 73, 78
12, 18760, Note_on_c, 10, 71, 70
12, 18800, Note_on_c, 10, 71, 0
12, 18800, Note_on_c, 10, 73, 0
12, 18800, Note_on_c, 10, 71, 73
12, 18840, Note_on_c, 10, 71, 0
12, 18840, Note_on_c, 10, 70, 70
12, 18880, Note_on_c, 10, 70, 0
12, 18880, Note_on_c, 10, 71, 72
12, 18920, Note_on_c, 10, 71, 0
12, 18920, Note_on_c, 10, 70, 73
12, 18960, Note_on_c, 10, 70, 0
12, 18960, Note_on_c, 10, 71, 75
12, 19000, Note_on_c, 10, 71, 0
12, 19000, Note_on_c, 10, 73, 76
12, 19040, Note_on_c, 10, 73, 0
12, 19040, Note_on_c, 10, 71, 78
12, 19080, Note_on_c, 10, 71, 0
12, 19080, Note_on_c, 10, 73, 79
12, 19120, Note_on_c, 10, 73, 0
12, 19120, Note_on_c, 10, 75, 81
12, 19160, Note_on_c, 10, 75, 0
12, 19160, Note_on_c, 10, 73, 83
12, 19200, Note_on_c, 10, 73, 0
12, 19200, Note_on_c, 10, 75, 85
12, 19240, Note_on_c, 10, 75, 0
12, 19240, Note_on_c, 10, 76, 85
12, 19280, Note_on_c, 10, 76, 0
12, 19280, Note_on_c, 10, 75, 85
12, 19320, Note_on_c, 10, 75, 0
12, 19320, Note_on_c, 10, 76, 85
12, 19360, Note_on_c, 10, 76, 0
12, 19360, Note_on_c, 10, 78, 85
12, 19400, Note_on_c, 10, 78, 0
12, 19400, Note_on_c, 10, 76, 85
12, 19440, Note_on_c, 10, 76, 0
12, 19440, Note_on_c, 10, 78, 85
12, 19480, Note_on_c, 10, 78, 0
12, 19480, Note_on_c, 10, 80, 85
12, 19520, Note_on_c, 10, 80, 0
12, 19520, Note_on_c, 10, 78, 85
12, 19560, Note_on_c, 10, 78, 0
12, 19560, Note_on_c, 10, 71, 85
12, 19600, Note_on_c, 10, 71, 0
12, 19600, Note_on_c, 10, 73, 85
12, 19640, Note_on_c, 10, 73, 0
12, 19640, Note_on_c, 10, 71, 85
12, 19680, Note_on_c, 10, 71, 0
12, 19680, Note_on_c, 10, 70, 85
12, 19760, Control_c, 10, 11, 47
12, 19765, Control_c, 10, 11, 44
12, 19771, Control_c, 10, 11, 41
12, 19777, Control_c, 10, 11, 38
12, 19783, Control_c, 10, 11, 35
12, 19789, Control_c, 10, 11, 32
12, 19795, Control_c, 10, 11, 29
12, 19800, Note_on_c, 10, 70, 0
12, 20640, Control_c, 10, 11, 47
12, 20640, Note_on_c, 10, 71, 61
12, 20680, Note_on_c, 10, 71, 0
12, 20680, Note_on_c, 10, 73, 73
12, 20720, Note_on_c, 10, 73, 0
12, 20720, Note_on_c, 10, 71, 79
12, 20760, Note_on_c, 10, 71, 0
12, 20760, Note_on_c, 10, 70, 85
12, 20800, Note_on_c, 10, 70, 0
12, 20800, Note_on_c, 10, 71, 85
12, 20840, Note_on_c, 10, 71, 0
12, 20840, Note_on_c, 10, 70, 85
12, 20880, Note_on_c, 10, 70, 0
12, 20880, Note_on_c, 10, 71, 85
12, 20920, Note_on_c, 10, 71, 0
12, 20920, Note_on_c, 10, 73, 85
12, 20960, Note_on_c, 10, 73, 0
12, 20960, Note_on_c, 10, 71, 85
12, 21000, Note_on_c, 10, 71, 0
12, 21000, Note_on_c, 10, 73, 85
12, 21040, Note_on_c, 10, 73, 0
12, 21040, Note_on_c, 10, 75, 85
12, 21080, Note_on_c, 10, 75, 0
12, 21080, Note_on_c, 10, 73, 85
12, 21120, Note_on_c, 10, 73, 0
12, 21120, Note_on_c, 10, 75, 85
12, 21160, Note_on_c, 10, 75, 0
12, 21160, Note_on_c, 10, 76, 85
12, 21200, Note_on_c, 10, 76, 0
12, 21200, Note_on_c, 10, 75, 85
12, 21240, Note_on_c, 10, 75, 0
12, 21240, Note_on_c, 10, 76, 85
12, 21280, Note_on_c, 10, 76, 0
12, 21280, Note_on_c, 10, 78, 85
12, 21320, Note_on_c, 10, 78, 0
12, 21320, Note_on_c, 10, 76, 85
12, 21360, Note_on_c, 10, 76, 0
12, 21360, Note_on_c, 10, 78, 85
12, 21400, Note_on_c, 10, 78, 0
12, 21400, Note_on_c, 10, 80, 85
12, 21440, Note_on_c, 10, 80, 0
12, 21440, Note_on_c, 10, 78, 85
12, 21480, Note_on_c, 10, 78, 0
12, 21480, Note_on_c, 10, 71, 85
12, 21520, Note_on_c, 10, 71, 0
12, 21520, Note_on_c, 10, 73, 85
12, 21560, Note_on_c, 10, 73, 0
12, 21560, Note_on_c, 10, 71, 85
12, 21600, Note_on_c, 10, 71, 0
12, 21600, Note_on_c, 10, 69, 85
12, 21720, Note_on_c, 10, 69, 0
12, 22560, Control_c, 10, 11, 47
12, 22560, Note_on_c, 10, 71, 68
12, 22587, Control_c, 10, 11, 48
12, 22605, Note_on_c, 10, 71, 0
12, 22615, Control_c, 10, 11, 49
12, 22620, Note_on_c, 10, 71, 71
12, 22643, Control_c, 10, 11, 50
12, 22671, Control_c, 10, 11, 51
12, 22699, Control_c, 10, 11, 52
12, 22725, Note_on_c, 10, 71, 0
12, 22727, Control_c, 10, 11, 53
12, 22740, Note_on_c, 10, 71, 78
12, 22755, Control_c, 10, 11, 54
12, 22783, Control_c, 10, 11, 55
12, 22811, Control_c, 10, 11, 56
12, 22839, Control_c, 10, 11, 57
12, 22845, Note_on_c, 10, 71, 0
12, 22860, Note_on_c, 10, 71, 85
12, 22867, Control_c, 10, 11, 58
12, 22895, Control_c, 10, 11, 59
12, 22923, Control_c, 10, 11, 60
12, 22951, Control_c, 10, 11, 61
12, 22965, Note_on_c, 10, 71, 0
12, 22979, Control_c, 10, 11, 62
12, 22980, Note_on_c, 10, 71, 85
12, 23007, Control_c, 10, 11, 63
12, 23035, Control_c, 10, 11, 64
12, 23063, Control_c, 10, 11, 65
12, 23085, Note_on_c, 10, 71, 0
12, 23091, Control_c, 10, 11, 66
12, 23100, Note_on_c, 10, 71, 85
12, 23119, Control_c, 10, 11, 67
12, 23147, Control_c, 10, 11, 68
12, 23175, Control_c, 10, 11, 69
12, 23203, Control_c, 10, 11, 70
12, 23205, Note_on_c, 10, 71, 0
12, 23220, Note_on_c, 10, 71, 85
12, 23231, Control_c, 10, 11, 71
12, 23259, Control_c, 10, 11, 72
12, 23287, Control_c, 10, 11, 73
12, 23315, Control_c, 10, 11, 74
12, 23325, Note_on_c, 10, 71, 0
12, 23340, Note_on_c, 10, 71, 85
12, 23343, Control_c, 10, 11, 75
12, 23371, Control_c, 10, 11, 76
12, 23399, Control_c, 10, 11, 77
12, 23445, Note_on_c, 10, 71, 0
12, 23460, Note_on_c, 10, 71, 76
12, 23490, Control_c, 10, 11, 77
12, 23492, Control_c, 10, 11, 74
12, 23494, Control_c, 10, 11, 71
12, 23497, Control_c, 10, 11, 67
12, 23500, Control_c, 10, 11, 63
12, 23503, Control_c, 10, 11, 59
12, 23506, Control_c, 10, 11, 55
12, 23509, Control_c, 10, 11, 51
12, 23512, Control_c, 10, 11, 47
12, 23515, Control_c, 10, 11, 43
12, 23518, Control_c, 10, 11, 39
12, 23565, Note_on_c, 10, 71, 0
12, 23580, Note_on_c, 10, 71, 100
12, 23685, Note_on_c, 10, 71, 0
12, 23700, Note_on_c, 10, 71, 100
12, 23805, Note_on_c, 10, 71, 0
12, 23820, Note_on_c, 10, 71, 100
12, 23925, Note_on_c, 10, 71, 0
12, 23940, Note_on_c, 10, 71, 100
12, 24045, Note_on_c, 10, 71, 0
12, 24060, Note_on_c, 10, 71, 100
12, 24165, Note_on_c, 10, 71, 0
12, 24180, Note_on_c, 10, 71, 100
12, 24285, Note_on_c, 10, 71, 0
12, 24300, Note_on_c, 10, 71, 100
12, 24405, Note_on_c, 10, 71, 0
12, 24420, Note_on_c, 10, 71, 100
12, 24525, Note_on_c, 10, 71, 0
12, 24540, Note_on_c, 10, 71, 100
12, 24645, Note_on_c, 10, 71, 0
12, 24660, Note_on_c, 10, 71, 100
12, 24765, Note_on_c, 10, 71, 0
12, 24780, Note_on_c, 10, 71, 100
12, 24885, Note_on_c, 10, 71, 0
12, 24900, Note_on_c, 10, 71, 100
12, 25005, Note_on_c, 10, 71, 0
12, 25020, Note_on_c, 10, 71, 100
12, 25125, Note_on_c, 10, 71, 0
12, 25140, Note_on_c, 10, 71, 100
12, 25245, Note_on_c, 10, 71, 0
12, 25260, Note_on_c, 10, 71, 100
12, 25365, Note_on_c, 10, 71, 0
12, 25380, Note_on_c, 10, 71, 100
12, 25485, Note_on_c, 10, 71, 0
12, 25500, Note_on_c, 10, 71, 100
12, 25605, Note_on_c, 10, 71, 0
12, 25620, Note_on_c, 10, 71, 100
12, 25725, Note_on_c, 10, 71, 0
12, 25740, Note_on_c, 10, 71, 100
12, 25845, Note_on_c, 10, 71, 0
12, 25860, Note_on_c, 10, 71, 100
12, 25965, Note_on_c, 10, 71, 0
12, 25980, Note_on_c, 10, 71, 100
12, 26085, Note_on_c, 10, 71, 0
12, 26100, Note_on_c, 10, 71, 100
12, 26205, Note_on_c, 10, 71, 0
12, 26220, Note_on_c, 10, 71, 100
12, 26325, Note_on_c, 10, 71, 0
12, 26340, Note_on_c, 10, 71, 100
12, 26385, Note_on_c, 10, 71, 0
12, 26400, Note_on_c, 10, 83, 80
12, 26445, Note_on_c, 10, 83, 0
12, 26460, Note_on_c, 10, 83, 82
12, 26565, Note_on_c, 10, 83, 0
12, 26580, Note_on_c, 10, 83, 88
12, 26685, Note_on_c, 10, 83, 0
12, 26700, Note_on_c, 10, 83, 94
12, 26805, Note_on_c, 10, 83, 0
12, 26820, Note_on_c, 10, 83, 100
12, 26925, Note_on_c, 10, 83, 0
12, 26940, Note_on_c, 10, 83, 100
12, 27045, Note_on_c, 10, 83, 0
12, 27060, Note_on_c, 10, 83, 100
12, 27165, Note_on_c, 10, 83, 0
12, 27180, Note_on_c, 10, 83, 100
12, 27285, Note_on_c, 10, 83, 0
12, 27300, Note_on_c, 10, 83, 100
12, 27405, Note_on_c, 10, 83, 0
12, 27420, Note_on_c, 10, 83, 100
12, 27525, Note_on_c, 10, 83, 0
12, 27540, Note_on_c, 10, 83, 100
12, 27645, Note_on_c, 10, 83, 0
12, 27660, Note_on_c, 10, 83, 100
12, 27765, Note_on_c, 10, 83, 0
12, 27780, Note_on_c, 10, 83, 100
12, 27885, Note_on_c, 10, 83, 0
12, 27900, Note_on_c, 10, 83, 100
12, 28005, Note_on_c, 10, 83, 0
12, 28020, Note_on_c, 10, 83, 100
12, 28125, Note_on_c, 10, 83, 0
12, 28140, Note_on_c, 10, 83, 100
12, 28245, Note_on_c, 10, 83, 0
12, 28260, Note_on_c, 10, 83, 100
12, 28305, Note_on_c, 10, 83, 0
12, 28320, Note_on_c, 10, 78, 100
12, 28440, Note_on_c, 10, 78, 0
12, 28440, Note_on_c, 10, 81, 100
12, 28560, Note_on_c, 10, 81, 0
12, 28560, Note_on_c, 10, 80, 100
12, 28680, Note_on_c, 10, 80, 0
12, 28680, Note_on_c, 10, 78, 100
12, 28800, Note_on_c, 10, 78, 0
12, 28800, Note_on_c, 10, 76, 100
12, 28920, Note_on_c, 10, 76, 0
12, 28920, Note_on_c, 10, 80, 100
12, 29040, Note_on_c, 10, 80, 0
12, 29040, Note_on_c, 10, 83, 100
12, 29265, Note_on_c, 10, 83, 0
12, 29280, Control_c, 10, 11, 47
12, 29280, Note_on_c, 10, 78, 100
12, 29316, Control_c, 10, 11, 48
12, 29325, Note_on_c, 10, 78, 0
12, 29340, Note_on_c, 10, 78, 100
12, 29352, Control_c, 10, 11, 49
12, 29388, Control_c, 10, 11, 50
12, 29400, Note_on_c, 10, 78, 0
12, 29400, Note_on_c, 10, 81, 100
12, 29424, Control_c, 10, 11, 51
12, 29445, Note_on_c, 10, 81, 0
12, 29460, Control_c, 10, 11, 52
12, 29460, Note_on_c, 10, 81, 100
12, 29496, Control_c, 10, 11, 53
12, 29520, Note_on_c, 10, 81, 0
12, 29520, Note_on_c, 10, 80, 100
12, 29532, Control_c, 10, 11, 54
12, 29565, Note_on_c, 10, 80, 0
12, 29568, Control_c, 10, 11, 55
12, 29580, Note_on_c, 10, 80, 100
12, 29604, Control_c, 10, 11, 56
12, 29640, Note_on_c, 10, 80, 0
12, 29640, Control_c, 10, 11, 57
12, 29640, Note_on_c, 10, 78, 100
12, 29676, Control_c, 10, 11, 58
12, 29685, Note_on_c, 10, 78, 0
12, 29700, Note_on_c, 10, 78, 100
12, 29712, Control_c, 10, 11, 59
12, 29748, Control_c, 10, 11, 60
12, 29760, Note_on_c, 10, 78, 0
12, 29760, Note_on_c, 10, 76, 100
12, 29784, Control_c, 10, 11, 61
12, 29805, Note_on_c, 10, 76, 0
12, 29820, Control_c, 10, 11, 62
12, 29820, Note_on_c, 10, 76, 100
12, 29856, Control_c, 10, 11, 63
12, 29880, Note_on_c, 10, 76, 0
12, 29880, Note_on_c, 10, 80, 100
12, 29892, Control_c, 10, 11, 64
12, 29925, Note_on_c, 10, 80, 0
12, 29928, Control_c, 10, 11, 65
12, 29940, Note_on_c, 10, 80, 100
12, 29964, Control_c, 10, 11, 66
12, 30000, Note_on_c, 10, 80, 0
12, 30000, Control_c, 10, 11, 67
12, 30000, Note_on_c, 10, 83, 100
12, 30036, Control_c, 10, 11, 68
12, 30060, Note_on_c, 10, 83, 0
12, 30060, Note_on_c, 10, 83, 100
12, 30072, Control_c, 10, 11, 69
12, 30105, Note_on_c, 10, 83, 0
12, 30108, Control_c, 10, 11, 70
12, 30120, Note_on_c, 10, 80, 100
12, 30144, Control_c, 10, 11, 71
12, 30180, Note_on_c, 10, 80, 0
12, 30180, Control_c, 10, 11, 72
12, 30180, Note_on_c, 10, 80, 100
12, 30216, Control_c, 10, 11, 73
12, 30225, Note_on_c, 10, 80, 0
12, 30240, Note_on_c, 10, 78, 100
12, 30252, Control_c, 10, 11, 74
12, 30288, Control_c, 10, 11, 75
12, 30300, Note_on_c, 10, 78, 0
12, 30300, Note_on_c, 10, 78, 100
12, 30324, Control_c, 10, 11, 76
12, 30345, Note_on_c, 10, 78, 0
12, 30360, Control_c, 10, 11, 77
12, 30360, Note_on_c, 10, 81, 100
12, 30396, Control_c, 10, 11, 78
12, 30420, Note_on_c, 10, 81, 0
12, 30420, Note_on_c, 10, 81, 100
12, 30432, Control_c, 10, 11, 79
12, 30465, Note_on_c, 10, 81, 0
12, 30468, Control_c, 10, 11, 80
12, 30480, Note_on_c, 10, 80, 100
12, 30504, Control_c, 10, 11, 81
12, 30540, Note_on_c, 10, 80, 0
12, 30540, Control_c, 10, 11, 82
12, 30540, Note_on_c, 10, 80, 100
12, 30576, Control_c, 10, 11, 83
12, 30585, Note_on_c, 10, 80, 0
12, 30600, Note_on_c, 10, 78, 100
12, 30612, Control_c, 10, 11, 84
12, 30648, Control_c, 10, 11, 85
12, 30660, Note_on_c, 10, 78, 0
12, 30660, Note_on_c, 10, 78, 100
12, 30684, Control_c, 10, 11, 86
12, 30705, Note_on_c, 10, 78, 0
12, 30720, Control_c, 10, 11, 87
12, 30720, Note_on_c, 10, 76, 115
12, 30820, Note_on_c, 10, 76, 0
12, 30840, Note_on_c, 10, 88, 115
12, 31045, Note_on_c, 10, 88, 0
12, 31080, Note_on_c, 10, 88, 115
12, 31110, Note_on_c, 10, 88, 0
12, 31140, Note_on_c, 10, 87, 115
12, 31170, Note_on_c, 10, 87, 0
12, 31200, Note_on_c, 10, 87, 115
12, 31230, Note_on_c, 10, 87, 0
12, 31260, Note_on_c, 10, 85, 115
12, 31290, Note_on_c, 10, 85, 0
12, 31320, Note_on_c, 10, 85, 115
12, 31525, Note_on_c, 10, 85, 0
12, 31560, Note_on_c, 10, 85, 115
12, 31590, Note_on_c, 10, 85, 0
12, 31620, Note_on_c, 10, 83, 115
12, 31650, Note_on_c, 10, 83, 0
12, 31680, Note_on_c, 10, 83, 115
12, 31710, Note_on_c, 10, 83, 0
12, 31740, Note_on_c, 10, 81, 115
12, 31770, Note_on_c, 10, 81, 0
12, 31800, Note_on_c, 10, 81, 115
12, 32005, Note_on_c, 10, 81, 0
12, 32040, Note_on_c, 10, 81, 115
12, 32070, Note_on_c, 10, 81, 0
12, 32100, Note_on_c, 10, 80, 115
12, 32130, Note_on_c, 10, 80, 0
12, 32160, Note_on_c, 10, 80, 115
12, 32205, Note_on_c, 10, 80, 0
12, 32220, Note_on_c, 10, 78, 115
12, 32265, Note_on_c, 10, 78, 0
12, 32280, Note_on_c, 10, 76, 115
12, 32325, Note_on_c, 10, 76, 0
12, 32340, Note_on_c, 10, 75, 115
12, 32385, Note_on_c, 10, 75, 0
12, 32400, Note_on_c, 10, 75, 115
12, 32445, Note_on_c, 10, 75, 0
12, 32460, Note_on_c, 10, 73, 115
12, 32505, Note_on_c, 10, 73, 0
12, 32520, Note_on_c, 10, 71, 115
12, 32565, Note_on_c, 10, 71, 0
12, 32580, Note_on_c, 10, 69, 115
12, 32625, Note_on_c, 10, 69, 0
12, 32640, Note_on_c, 10, 68, 115
12, 32685, Note_on_c, 10, 68, 0
12, 32700, Note_on_c, 10, 88, 115
12, 32745, Note_on_c, 10, 88, 0
12, 32760, Note_on_c, 10, 88, 115
12, 32805, Note_on_c, 10, 88, 0
12, 32820, Note_on_c, 10, 88, 115
12, 32865, Note_on_c, 10, 88, 0
12, 32880, Note_on_c, 10, 88, 115
12, 32925, Note_on_c, 10, 88, 0
12, 32940, Note_on_c, 10, 88, 115
12, 32985, Note_on_c, 10, 88, 0
12, 33000, Note_on_c, 10, 88, 115
12, 33045, Note_on_c, 10, 88, 0
12, 33060, Note_on_c, 10, 87, 115
12, 33105, Note_on_c, 10, 87, 0
12, 33120, Note_on_c, 10, 87, 115
12, 33165, Note_on_c, 10, 87, 0
12, 33180, Note_on_c, 10, 85, 115
12, 33225, Note_on_c, 10, 85, 0
12, 33240, Note_on_c, 10, 85, 115
12, 33285, Note_on_c, 10, 85, 0
12, 33300, Note_on_c, 10, 85, 115
12, 33345, Note_on_c, 10, 85, 0
12, 33360, Note_on_c, 10, 85, 115
12, 33405, Note_on_c, 10, 85, 0
12, 33420, Note_on_c, 10, 85, 115
12, 33465, Note_on_c, 10, 85, 0
12, 33480, Note_on_c, 10, 85, 115
12, 33525, Note_on_c, 10, 85, 0
12, 33540, Note_on_c, 10, 83, 115
12, 33585, Note_on_c, 10, 83, 0
12, 33600, Note_on_c, 10, 83, 115
12, 33645, Note_on_c, 10, 83, 0
12, 33660, Note_on_c, 10, 81, 115
12, 33705, Note_on_c, 10, 81, 0
12, 33720, Note_on_c, 10, 81, 115
12, 33765, Note_on_c, 10, 81, 0
12, 33780, Note_on_c, 10, 81, 115
12, 33825, Note_on_c, 10, 81, 0
12, 33840, Note_on_c, 10, 81, 115
12, 33885, Note_on_c, 10, 81, 0
12, 33900, Note_on_c, 10, 81, 115
12, 33945, Note_on_c, 10, 81, 0
12, 33960, Note_on_c, 10, 81, 115
12, 34005, Note_on_c, 10, 81, 0
12, 34020, Note_on_c, 10, 80, 115
12, 34065, Note_on_c, 10, 80, 0
12, 34080, Note_on_c, 10, 80, 115
12, 34125, Note_on_c, 10, 80, 0
12, 34140, Note_on_c, 10, 78, 115
12, 34185, Note_on_c, 10, 78, 0
12, 34200, Note_on_c, 10, 76, 115
12, 34245, Note_on_c, 10, 76, 0
12, 34260, Note_on_c, 10, 75, 115
12, 34305, Note_on_c, 10, 75, 0
12, 34320, Note_on_c, 10, 75, 115
12, 34365, Note_on_c, 10, 75, 0
12, 34380, Note_on_c, 10, 73, 115
12, 34425, Note_on_c, 10, 73, 0
12, 34440, Note_on_c, 10, 71, 115
12, 34485, Note_on_c, 10, 71, 0
12, 34500, Note_on_c, 10, 69, 115
12, 34545, Note_on_c, 10, 69, 0
12, 34560, Note_on_c, 10, 68, 115
12, 34605, Note_on_c, 10, 68, 0
12, 34620, Note_on_c, 10, 59, 115
12, 34665, Note_on_c, 10, 59, 0
12, 34680, Note_on_c, 10, 68, 115
12, 34725, Note_on_c, 10, 68, 0
12, 34740, Note_on_c, 10, 68, 115
12, 34785, Note_on_c, 10, 68, 0
12, 34800, Note_on_c, 10, 68, 115
12, 34845, Note_on_c, 10, 68, 0
12, 34860, Note_on_c, 10, 64, 115
12, 34905, Note_on_c, 10, 64, 0
12, 34920, Note_on_c, 10, 71, 115
12, 34965, Note_on_c, 10, 71, 0
12, 34980, Note_on_c, 10, 71, 115
12, 35025, Note_on_c, 10, 71, 0
12, 35040, Note_on_c, 10, 71, 115
12, 35085, Note_on_c, 10, 71, 0
12, 35100, Note_on_c, 10, 68, 115
12, 35145, Note_on_c, 10, 68, 0
12, 35160, Note_on_c, 10, 76, 115
12, 35205, Note_on_c, 10, 76, 0
12, 35220, Note_on_c, 10, 76, 115
12, 35265, Note_on_c, 10, 76, 0
12, 35280, Note_on_c, 10, 76, 115
12, 35325, Note_on_c, 10, 76, 0
12, 35340, Note_on_c, 10, 71, 115
12, 35385, Note_on_c, 10, 71, 0
12, 35400, Note_on_c, 10, 80, 115
12, 35445, Note_on_c, 10, 80, 0
12, 35460, Note_on_c, 10, 80, 115
12, 35505, Note_on_c, 10, 80, 0
12, 35520, Control_c, 10, 11, 107
12, 35520, Note_on_c, 10, 83, 115
12, 35537, Control_c, 10, 11, 104
12, 35555, Control_c, 10, 11, 101
12, 35573, Control_c, 10, 11, 98
12, 35580, Note_on_c, 10, 83, 0
12, 35580, Note_on_c, 10, 81, 115
12, 35591, Control_c, 10, 11, 95
12, 35609, Control_c, 10, 11, 92
12, 35625, Note_on_c, 10, 81, 0
12, 35627, Control_c, 10, 11, 89
12, 35640, Note_on_c, 10, 78, 115
12, 35670, Note_on_c, 10, 78, 0
12, 35700, Note_on_c, 10, 75, 115
12, 35730, Note_on_c, 10, 75, 0
12, 35760, Note_on_c, 10, 83, 115
12, 35820, Note_on_c, 10, 83, 0
12, 35820, Note_on_c, 10, 81, 115
12, 35865, Note_on_c, 10, 81, 0
12, 35880, Note_on_c, 10, 78, 115
12, 35910, Note_on_c, 10, 78, 0
12, 35940, Note_on_c, 10, 75, 115
12, 35970, Note_on_c, 10, 75, 0
12, 36000, Note_on_c, 10, 83, 115
12, 36060, Note_on_c, 10, 83, 0
12, 36060, Note_on_c, 10, 81, 115
12, 36105, Note_on_c, 10, 81, 0
12, 36120, Note_on_c, 10, 78, 115
12, 36150, Note_on_c, 10, 78, 0
12, 36180, Note_on_c, 10, 75, 115
12, 36210, Note_on_c, 10, 75, 0
12, 36240, Note_on_c, 10, 83, 115
12, 36300, Note_on_c, 10, 83, 0
12, 36300, Note_on_c, 10, 81, 115
12, 36345, Note_on_c, 10, 81, 0
12, 36360, Note_on_c, 10, 78, 115
12, 36390, Note_on_c, 10, 78, 0
12, 36420, Note_on_c, 10, 75, 115
12, 36450, Note_on_c, 10, 75, 0
12, 36480, Note_on_c, 10, 64, 115
12, 36525, Note_on_c, 10, 64, 0
12, 36540, Note_on_c, 10, 59, 115
12, 36585, Note_on_c, 10, 59, 0
12, 36600, Note_on_c, 10, 68, 115
12, 36645, Note_on_c, 10, 68, 0
12, 36660, Note_on_c, 10, 68, 115
12, 36705, Note_on_c, 10, 68, 0
12, 36720, Note_on_c, 10, 68, 115
12, 36765, Note_on_c, 10, 68, 0
12, 36780, Note_on_c, 10, 64, 115
12, 36825, Note_on_c, 10, 64, 0
12, 36840, Note_on_c, 10, 71, 115
12, 36885, Note_on_c, 10, 71, 0
12, 36900, Note_on_c, 10, 71, 115
12, 36945, Note_on_c, 10, 71, 0
12, 36960, Note_on_c, 10, 71, 115
12, 37005, Note_on_c, 10, 71, 0
12, 37020, Note_on_c, 10, 68, 115
12, 37065, Note_on_c, 10, 68, 0
12, 37080, Note_on_c, 10, 76, 115
12, 37125, Note_on_c, 10, 76, 0
12, 37140, Note_on_c, 10, 76, 115
12, 37185, Note_on_c, 10, 76, 0
12, 37200, Note_on_c, 10, 76, 115
12, 37245, Note_on_c, 10, 76, 0
12, 37260, Note_on_c, 10, 71, 115
12, 37305, Note_on_c, 10, 71, 0
12, 37320, Note_on_c, 10, 80, 115
12, 37365, Note_on_c, 10, 80, 0
12, 37380, Note_on_c, 10, 80, 115
12, 37425, Note_on_c, 10, 80, 0
12, 37440, Control_c, 10, 11, 107
12, 37440, Note_on_c, 10, 83, 115
12, 37457, Control_c, 10, 11, 104
12, 37475, Control_c, 10, 11, 101
12, 37493, Control_c, 10, 11, 98
12, 37500, Note_on_c, 10, 83, 0
12, 37500, Note_on_c, 10, 81, 115
12, 37511, Control_c, 10, 11, 95
12, 37529, Control_c, 10, 11, 92
12, 37545, Note_on_c, 10, 81, 0
12, 37547, Control_c, 10, 11, 89
12, 37560, Note_on_c, 10, 78, 115
12, 37590, Note_on_c, 10, 78, 0
12, 37620, Note_on_c, 10, 75, 115
12, 37650, Note_on_c, 10, 75, 0
12, 37680, Note_on_c, 10, 83, 115
12, 37740, Note_on_c, 10, 83, 0
12, 37740, Note_on_c, 10, 81, 115
12, 37785, Note_on_c, 10, 81, 0
12, 37800, Note_on_c, 10, 78, 115
12, 37830, Note_on_c, 10, 78, 0
12, 37860, Note_on_c, 10, 75, 115
12, 37890, Note_on_c, 10, 75, 0
12, 37920, Note_on_c, 10, 83, 115
12, 37980, Note_on_c, 10, 83, 0
12, 37980, Note_on_c, 10, 81, 115
12, 38025, Note_on_c, 10, 81, 0
12, 38040, Note_on_c, 10, 78, 115
12, 38070, Note_on_c, 10, 78, 0
12, 38100, Note_on_c, 10, 75, 115
12, 38130, Note_on_c, 10, 75, 0
12, 38160, Note_on_c, 10, 83, 115
12, 38220, Note_on_c, 10, 83, 0
12, 38220, Note_on_c, 10, 81, 115
12, 38265, Note_on_c, 10, 81, 0
12, 38280, Note_on_c, 10, 78, 115
12, 38310, Note_on_c, 10, 78, 0
12, 38340, Note_on_c, 10, 75, 115
12, 38370, Note_on_c, 10, 75, 0
12, 38400, Note_on_c, 10, 85, 115
12, 38460, Note_on_c, 10, 85, 0
12, 38460, Note_on_c, 10, 83, 115
12, 38505, Note_on_c, 10, 83, 0
12, 38520, Note_on_c, 10, 80, 115
12, 38550, Note_on_c, 10, 80, 0
12, 38580, Note_on_c, 10, 76, 115
12, 38610, Note_on_c, 10, 76, 0
12, 38640, Note_on_c, 10, 85, 115
12, 38700, Note_on_c, 10, 85, 0
12, 38700, Note_on_c, 10, 83, 115
12, 38745, Note_on_c, 10, 83, 0
12, 38760, Note_on_c, 10, 80, 115
12, 38790, Note_on_c, 10, 80, 0
12, 38820, Note_on_c, 10, 76, 115
12, 38850, Note_on_c, 10, 76, 0
12, 38880, Control_c, 10, 11, 107
12, 38880, Note_on_c, 10, 85, 115
12, 38897, Control_c, 10, 11, 104
12, 38915, Control_c, 10, 11, 101
12, 38933, Control_c, 10, 11, 98
12, 38940, Note_on_c, 10, 85, 0
12, 38940, Note_on_c, 10, 83, 115
12, 38951, Control_c, 10, 11, 95
12, 38969, Control_c, 10, 11, 92
12, 38985, Note_on_c, 10, 83, 0
12, 38987, Control_c, 10, 11, 89
12, 39000, Note_on_c, 10, 80, 115
12, 39030, Note_on_c, 10, 80, 0
12, 39060, Note_on_c, 10, 76, 115
12, 39090, Note_on_c, 10, 76, 0
12, 39120, Note_on_c, 10, 68, 115
12, 39150, Note_on_c, 10, 68, 0
12, 39180, Note_on_c, 10, 64, 115
12, 39210, Note_on_c, 10, 64, 0
12, 39240, Note_on_c, 10, 61, 115
12, 39270, Note_on_c, 10, 61, 0
12, 39300, Note_on_c, 10, 59, 115
12, 39330, Note_on_c, 10, 59, 0
12, 39360, Note_on_c, 10, 58, 103
12, 39480, Note_on_c, 10, 58, 0
12, 40440, Control_c, 10, 11, 47
12, 40440, Note_on_c, 10, 73, 100
12, 40500, Note_on_c, 10, 73, 0
12, 40500, Note_on_c, 10, 75, 100
12, 40560, Note_on_c, 10, 75, 0
12, 40560, Note_on_c, 10, 76, 100
12, 40620, Note_on_c, 10, 76, 0
12, 40680, Note_on_c, 10, 76, 100
12, 40740, Note_on_c, 10, 76, 0
12, 40740, Note_on_c, 10, 78, 100
12, 40800, Note_on_c, 10, 78, 0
12, 40800, Note_on_c, 10, 75, 100
12, 40860, Note_on_c, 10, 75, 0
12, 40920, Note_on_c, 10, 75, 100
12, 40980, Note_on_c, 10, 75, 0
12, 40980, Note_on_c, 10, 76, 100
12, 41040, Note_on_c, 10, 76, 0
12, 41040, Note_on_c, 10, 78, 100
12, 41100, Note_on_c, 10, 78, 0
12, 41160, Note_on_c, 10, 78, 100
12, 41220, Note_on_c, 10, 78, 0
12, 41220, Note_on_c, 10, 83, 100
12, 41280, Note_on_c, 10, 83, 0
12, 41280, Note_on_c, 10, 82, 90
12, 41340, Note_on_c, 10, 82, 0
12, 42360, Note_on_c, 10, 73, 100
12, 42420, Note_on_c, 10, 73, 0
12, 42420, Note_on_c, 10, 75, 100
12, 42480, Note_on_c, 10, 75, 0
12, 42480, Note_on_c, 10, 76, 100
12, 42540, Note_on_c, 10, 76, 0
12, 42600, Note_on_c, 10, 76, 100
12, 42660, Note_on_c, 10, 76, 0
12, 42660, Note_on_c, 10, 78, 100
12, 42720, Note_on_c, 10, 78, 0
12, 42720, Note_on_c, 10, 75, 100
12, 42780, Note_on_c, 10, 75, 0
12, 42840, Note_on_c, 10, 75, 100
12, 42900, Note_on_c, 10, 75, 0
12, 42900, Note_on_c, 10, 76, 100
12, 42960, Note_on_c, 10, 76, 0
12, 42960, Note_on_c, 10, 78, 100
12, 43020, Note_on_c, 10, 78, 0
12, 43080, Note_on_c, 10, 78, 100
12, 43140, Note_on_c, 10, 78, 0
12, 43140, Note_on_c, 10, 83, 100
12, 43200, Note_on_c, 10, 83, 0
12, 43200, Note_on_c, 10, 82, 90
12, 43260, Note_on_c, 10, 82, 0
12, 43800, Control_c, 10, 11, 47
12, 43800, Note_on_c, 10, 75, 100
12, 43860, Note_on_c, 10, 75, 0
12, 43860, Note_on_c, 10, 76, 100
12, 43920, Note_on_c, 10, 76, 0
12, 43920, Note_on_c, 10, 78, 100
12, 43980, Note_on_c, 10, 78, 0
12, 44040, Note_on_c, 10, 78, 100
12, 44100, Note_on_c, 10, 78, 0
12, 44100, Note_on_c, 10, 80, 100
12, 44160, Note_on_c, 10, 80, 0
12, 44160, Note_on_c, 10, 76, 100
12, 44220, Note_on_c, 10, 76, 0
12, 44760, Note_on_c, 10, 78, 100
12, 44820, Note_on_c, 10, 78, 0
12, 44820, Note_on_c, 10, 80, 100
12, 44880, Note_on_c, 10, 80, 0
12, 44880, Note_on_c, 10, 81, 100
12, 44940, Note_on_c, 10, 81, 0
12, 45000, Note_on_c, 10, 81, 100
12, 45060, Note_on_c, 10, 81, 0
12, 45060, Note_on_c, 10, 83, 100
12, 45120, Note_on_c, 10, 83, 0
12, 45120, Control_c, 10, 11, 47
12, 45120, Note_on_c, 10, 80, 100
12, 45144, Control_c, 10, 11, 48
12, 45168, Control_c, 10, 11, 49
12, 45180, Note_on_c, 10, 80, 0
12, 45192, Control_c, 10, 11, 50
12, 45216, Control_c, 10, 11, 51
12, 45240, Control_c, 10, 11, 52
12, 45240, Note_on_c, 10, 78, 100
12, 45264, Control_c, 10, 11, 53
12, 45288, Control_c, 10, 11, 54
12, 45300, Note_on_c, 10, 78, 0
12, 45300, Note_on_c, 10, 80, 100
12, 45312, Control_c, 10, 11, 55
12, 45336, Control_c, 10, 11, 56
12, 45360, Note_on_c, 10, 80, 0
12, 45360, Control_c, 10, 11, 57
12, 45360, Note_on_c, 10, 81, 100
12, 45384, Control_c, 10, 11, 58
12, 45408, Control_c, 10, 11, 59
12, 45420, Note_on_c, 10, 81, 0
12, 45432, Control_c, 10, 11, 60
12, 45456, Control_c, 10, 11, 61
12, 45480, Control_c, 10, 11, 62
12, 45480, Note_on_c, 10, 81, 100
12, 45504, Control_c, 10, 11, 63
12, 45528, Control_c, 10, 11, 64
12, 45540, Note_on_c, 10, 81, 0
12, 45540, Note_on_c, 10, 83, 100
12, 45552, Control_c, 10, 11, 65
12, 45576, Control_c, 10, 11, 66
12, 45600, Note_on_c, 10, 83, 0
12, 45600, Control_c, 10, 11, 67
12, 45600, Note_on_c, 10, 80, 100
12, 45624, Control_c, 10, 11, 68
12, 45648, Control_c, 10, 11, 69
12, 45660, Note_on_c, 10, 80, 0
12, 45672, Control_c, 10, 11, 70
12, 45696, Control_c, 10, 11, 71
12, 45720, Control_c, 10, 11, 72
12, 45720, Note_on_c, 10, 78, 100
12, 45744, Control_c, 10, 11, 73
12, 45768, Control_c, 10, 11, 74
12, 45780, Note_on_c, 10, 78, 0
12, 45780, Note_on_c, 10, 80, 100
12, 45792, Control_c, 10, 11, 75
12, 45816, Control_c, 10, 11, 76
12, 45840, Note_on_c, 10, 80, 0
12, 45840, Control_c, 10, 11, 77
12, 45840, Note_on_c, 10, 81, 100
12, 45864, Control_c, 10, 11, 78
12, 45888, Control_c, 10, 11, 79
12, 45900, Note_on_c, 10, 81, 0
12, 45912, Control_c, 10, 11, 80
12, 45936, Control_c, 10, 11, 81
12, 45960, Control_c, 10, 11, 82
12, 45960, Note_on_c, 10, 81, 100
12, 45984, Control_c, 10, 11, 83
12, 46008, Control_c, 10, 11, 84
12, 46020, Note_on_c, 10, 81, 0
12, 46020, Note_on_c, 10, 83, 100
12, 46032, Control_c, 10, 11, 85
12, 46056, Control_c, 10, 11, 86
12, 46080, Note_on_c, 10, 83, 0
12, 46080, Control_c, 10, 11, 87
12, 46080, Note_on_c, 10, 80, 100
12, 46140, Note_on_c, 10, 80, 0
12, 46200, Note_on_c, 10, 83, 100
12, 46222, Note_on_c, 10, 83, 0
12, 46260, Note_on_c, 10, 87, 100
12, 46282, Note_on_c, 10, 87, 0
12, 46320, Note_on_c, 10, 88, 100
12, 46420, Note_on_c, 10, 88, 0
12, 46440, Note_on_c, 10, 83, 100
12, 46462, Note_on_c, 10, 83, 0
12, 46500, Note_on_c, 10, 87, 100
12, 46522, Note_on_c, 10, 87, 0
12, 46560, Note_on_c, 10, 88, 100
12, 46660, Note_on_c, 10, 88, 0
12, 46680, Note_on_c, 10, 83, 100
12, 46702, Note_on_c, 10, 83, 0
12, 46740, Note_on_c, 10, 87, 100
12, 46762, Note_on_c, 10, 87, 0
12, 46800, Note_on_c, 10, 88, 100
12, 46900, Note_on_c, 10, 88, 0
12, 46920, Note_on_c, 10, 83, 100
12, 46942, Note_on_c, 10, 83, 0
12, 46980, Note_on_c, 10, 87, 100
12, 47002, Note_on_c, 10, 87, 0
12, 47040, Control_c, 10, 11, 102
12, 47040, Note_on_c, 10, 88, 100
12, 47085, Note_on_c, 10, 88, 0
12, 47100, Note_on_c, 10, 88, 100
12, 47145, Note_on_c, 10, 88, 0
12, 47160, Note_on_c, 10, 87, 100
12, 47205, Note_on_c, 10, 87, 0
12, 47220, Note_on_c, 10, 85, 100
12, 47265, Note_on_c, 10, 85, 0
12, 47280, Note_on_c, 10, 83, 100
12, 47325, Note_on_c, 10, 83, 0
12, 47340, Note_on_c, 10, 81, 100
12, 47385, Note_on_c, 10, 81, 0
12, 47400, Note_on_c, 10, 80, 100
12, 47445, Note_on_c, 10, 80, 0
12, 47460, Note_on_c, 10, 78, 100
12, 47505, Note_on_c, 10, 78, 0
12, 47520, Note_on_c, 10, 76, 100
12, 47565, Note_on_c, 10, 76, 0
12, 47580, Note_on_c, 10, 75, 100
12, 47625, Note_on_c, 10, 75, 0
12, 47640, Note_on_c, 10, 73, 100
12, 47685, Note_on_c, 10, 73, 0
12, 47700, Note_on_c, 10, 71, 100
12, 47745, Note_on_c, 10, 71, 0
12, 47760, Note_on_c, 10, 69, 100
12, 47805, Note_on_c, 10, 69, 0
12, 47820, Note_on_c, 10, 68, 100
12, 47865, Note_on_c, 10, 68, 0
12, 47880, Note_on_c, 10, 66, 100
12, 47925, Note_on_c, 10, 66, 0
12, 47940, Note_on_c, 10, 64, 100
12, 47985, Note_on_c, 10, 64, 0
12, 48000, Note_on_c, 10, 61, 100
12, 48045, Note_on_c, 10, 61, 0
12, 48060, Note_on_c, 10, 85, 100
12, 48105, Note_on_c, 10, 85, 0
12, 48120, Note_on_c, 10, 83, 100
12, 48165, Note_on_c, 10, 83, 0
12, 48180, Note_on_c, 10, 81, 100
12, 48225, Note_on_c, 10, 81, 0
12, 48240, Note_on_c, 10, 80, 100
12, 48285, Note_on_c, 10, 80, 0
12, 48300, Note_on_c, 10, 78, 100
12, 48345, Note_on_c, 10, 78, 0
12, 48360, Note_on_c, 10, 76, 100
12, 48405, Note_on_c, 10, 76, 0
12, 48420, Note_on_c, 10, 75, 100
12, 48465, Note_on_c, 10, 75, 0
12, 48480, Note_on_c, 10, 73, 100
12, 48525, Note_on_c, 10, 73, 0
12, 48540, Note_on_c, 10, 71, 100
12, 48585, Note_on_c, 10, 71, 0
12, 48600, Note_on_c, 10, 69, 100
12, 48645, Note_on_c, 10, 69, 0
12, 48660, Note_on_c, 10, 68, 100
12, 48705, Note_on_c, 10, 68, 0
12, 48720, Note_on_c, 10, 66, 100
12, 48765, Note_on_c, 10, 66, 0
12, 48780, Note_on_c, 10, 64, 100
12, 48825, Note_on_c, 10, 64, 0
12, 48840, Note_on_c, 10, 63, 100
12, 48885, Note_on_c, 10, 63, 0
12, 48900, Note_on_c, 10, 61, 100
12, 48945, Note_on_c, 10, 61, 0
12, 48960, Note_on_c, 10, 58, 100
12, 49005, Note_on_c, 10, 58, 0
12, 49020, Note_on_c, 10, 78, 100
12, 49065, Note_on_c, 10, 78, 0
12, 49080, Note_on_c, 10, 78, 100
12, 49125, Note_on_c, 10, 78, 0
12, 49140, Note_on_c, 10, 78, 100
12, 49185, Note_on_c, 10, 78, 0
12, 49200, Note_on_c, 10, 78, 100
12, 49245, Note_on_c, 10, 78, 0
12, 49260, Note_on_c, 10, 82, 100
12, 49305, Note_on_c, 10, 82, 0
12, 49320, Note_on_c, 10, 82, 100
12, 49365, Note_on_c, 10, 82, 0
12, 49380, Note_on_c, 10, 82, 100
12, 49425, Note_on_c, 10, 82, 0
12, 49440, Note_on_c, 10, 82, 100
12, 49485, Note_on_c, 10, 82, 0
12, 49500, Note_on_c, 10, 85, 100
12, 49545, Note_on_c, 10, 85, 0
12, 49560, Note_on_c, 10, 85, 100
12, 49605, Note_on_c, 10, 85, 0
12, 49620, Note_on_c, 10, 85, 100
12, 49665, Note_on_c, 10, 85, 0
12, 49680, Note_on_c, 10, 85, 100
12, 49725, Note_on_c, 10, 85, 0
12, 49740, Note_on_c, 10, 90, 100
12, 49785, Note_on_c, 10, 90, 0
12, 49800, Note_on_c, 10, 90, 100
12, 49845, Note_on_c, 10, 90, 0
12, 49860, Note_on_c, 10, 90, 100
12, 49905, Note_on_c, 10, 90, 0
12, 49920, Note_on_c, 10, 90, 100
12, 49965, Note_on_c, 10, 90, 0
12, 49980, Note_on_c, 10, 90, 100
12, 50025, Note_on_c, 10, 90, 0
12, 50040, Note_on_c, 10, 90, 100
12, 50085, Note_on_c, 10, 90, 0
12, 50100, Note_on_c, 10, 90, 100
12, 50145, Note_on_c, 10, 90, 0
12, 50160, Note_on_c, 10, 90, 100
12, 50205, Note_on_c, 10, 90, 0
12, 50220, Note_on_c, 10, 90, 100
12, 50265, Note_on_c, 10, 90, 0
12, 50280, Control_c, 10, 11, 122
12, 50280, Note_on_c, 10, 92, 100
12, 50297, Control_c, 10, 11, 119
12, 50315, Control_c, 10, 11, 116
12, 50325, Note_on_c, 10, 92, 0
12, 50333, Control_c, 10, 11, 113
12, 50340, Note_on_c, 10, 92, 100
12, 50351, Control_c, 10, 11, 110
12, 50369, Control_c, 10, 11, 107
12, 50385, Note_on_c, 10, 92, 0
12, 50387, Control_c, 10, 11, 104
12, 50400, Note_on_c, 10, 90, 100
12, 50445, Note_on_c, 10, 90, 0
12, 50460, Note_on_c, 10, 90, 100
12, 50505, Note_on_c, 10, 90, 0
12, 50520, Note_on_c, 10, 90, 100
12, 50565, Note_on_c, 10, 90, 0
12, 50580, Note_on_c, 10, 90, 100
12, 50625, Note_on_c, 10, 90, 0
12, 50640, Note_on_c, 10, 90, 100
12, 50685, Note_on_c, 10, 90, 0
12, 50700, Note_on_c, 10, 90, 100
12, 50745, Note_on_c, 10, 90, 0
12, 50760, Control_c, 10, 11, 122
12, 50760, Note_on_c, 10, 92, 100
12, 50777, Control_c, 10, 11, 119
12, 50795, Control_c, 10, 11, 116
12, 50805, Note_on_c, 10, 92, 0
12, 50813, Control_c, 10, 11, 113
12, 50820, Note_on_c, 10, 92, 100
12, 50831, Control_c, 10, 11, 110
12, 50849, Control_c, 10, 11, 107
12, 50865, Note_on_c, 10, 92, 0
12, 50867, Control_c, 10, 11, 104
12, 50880, Note_on_c, 10, 90, 100
12, 50925, Note_on_c, 10, 90, 0
12, 50940, Note_on_c, 10, 90, 100
12, 50985, Note_on_c, 10, 90, 0
12, 51000, Control_c, 10, 11, 122
12, 51000, Note_on_c, 10, 92, 100
12, 51017, Control_c, 10, 11, 119
12, 51035, Control_c, 10, 11, 116
12, 51045, Note_on_c, 10, 92, 0
12, 51053, Control_c, 10, 11, 113
12, 51060, Note_on_c, 10, 92, 100
12, 51071, Control_c, 10, 11, 110
12, 51089, Control_c, 10, 11, 107
12, 51105, Note_on_c, 10, 92, 0
12, 51107, Control_c, 10, 11, 104
12, 51120, Note_on_c, 10, 90, 100
12, 51165, Note_on_c, 10, 90, 0
12, 51180, Note_on_c, 10, 90, 100
12, 51225, Note_on_c, 10, 90, 0
12, 51240, Control_c, 10, 11, 122
12, 51240, Note_on_c, 10, 92, 100
12, 51257, Control_c, 10, 11, 119
12, 51275, Control_c, 10, 11, 116
12, 51285, Note_on_c, 10, 92, 0
12, 51293, Control_c, 10, 11, 113
12, 51300, Note_on_c, 10, 92, 100
12, 51311, Control_c, 10, 11, 110
12, 51329, Control_c, 10, 11, 107
12, 51345, Note_on_c, 10, 92, 0
12, 51347, Control_c, 10, 11, 104
12, 51360, Note_on_c, 10, 90, 100
12, 51405, Note_on_c, 10, 90, 0
12, 51420, Note_on_c, 10, 90, 100
12, 51465, Note_on_c, 10, 90, 0
12, 51480, Control_c, 10, 11, 122
12, 51480, Note_on_c, 10, 92, 100
12, 51497, Control_c, 10, 11, 119
12, 51515, Control_c, 10, 11, 116
12, 51525, Note_on_c, 10, 92, 0
12, 51533, Control_c, 10, 11, 113
12, 51540, Note_on_c, 10, 92, 100
12, 51551, Control_c, 10, 11, 110
12, 51569, Control_c, 10, 11, 107
12, 51585, Note_on_c, 10, 92, 0
12, 51587, Control_c, 10, 11, 104
12, 51600, Note_on_c, 10, 90, 100
12, 51645, Note_on_c, 10, 90, 0
12, 51660, Note_on_c, 10, 90, 100
12, 51705, Note_on_c, 10, 90, 0
12, 51720, Control_c, 10, 11, 122
12, 51720, Note_on_c, 10, 88, 100
12, 51737, Control_c, 10, 11, 119
12, 51755, Control_c, 10, 11, 116
12, 51765, Note_on_c, 10, 88, 0
12, 51773, Control_c, 10, 11, 113
12, 51780, Note_on_c, 10, 88, 100
12, 51791, Control_c, 10, 11, 110
12, 51809, Control_c, 10, 11, 107
12, 51825, Note_on_c, 10, 88, 0
12, 51827, Control_c, 10, 11, 104
12, 51840, Note_on_c, 10, 87, 100
12, 51885, Note_on_c, 10, 87, 0
12, 51900, Note_on_c, 10, 87, 100
12, 51945, Note_on_c, 10, 87, 0
12, 51960, Control_c, 10, 11, 122
12, 51960, Note_on_c, 10, 90, 100
12, 51977, Control_c, 10, 11, 119
12, 51995, Control_c, 10, 11, 116
12, 52005, Note_on_c, 10, 90, 0
12, 52013, Control_c, 10, 11, 113
12, 52020, Note_on_c, 10, 90, 100
12, 52031, Control_c, 10, 11, 110
12, 52049, Control_c, 10, 11, 107
12, 52065, Note_on_c, 10, 90, 0
12, 52067, Control_c, 10, 11, 104
12, 52080, Note_on_c, 10, 85, 100
12, 52125, Note_on_c, 10, 85, 0
12, 52140, Note_on_c, 10, 85, 100
12, 52185, Note_on_c, 10, 85, 0
12, 52200, Control_c, 10, 11, 122
12, 52200, Note_on_c, 10, 88, 100
12, 52217, Control_c, 10, 11, 119
12, 52235, Control_c, 10, 11, 116
12, 52245, Note_on_c, 10, 88, 0
12, 52253, Control_c, 10, 11, 113
12, 52260, Note_on_c, 10, 88, 100
12, 52271, Control_c, 10, 11, 110
12, 52289, Control_c, 10, 11, 107
12, 52305, Note_on_c, 10, 88, 0
12, 52307, Control_c, 10, 11, 104
12, 52320, Note_on_c, 10, 83, 100
12, 52365, Note_on_c, 10, 83, 0
12, 52380, Note_on_c, 10, 83, 100
12, 52425, Note_on_c, 10, 83, 0
12, 52440, Control_c, 10, 11, 122
12, 52440, Note_on_c, 10, 87, 100
12, 52457, Control_c, 10, 11, 119
12, 52475, Control_c, 10, 11, 116
12, 52485, Note_on_c, 10, 87, 0
12, 52493, Control_c, 10, 11, 113
12, 52500, Note_on_c, 10, 87, 100
12, 52511, Control_c, 10, 11, 110
12, 52529, Control_c, 10, 11, 107
12, 52545, Note_on_c, 10, 87, 0
12, 52547, Control_c, 10, 11, 104
12, 52560, Note_on_c, 10, 82, 100
12, 52605, Note_on_c, 10, 82, 0
12, 52620, Note_on_c, 10, 82, 100
12, 52665, Note_on_c, 10, 82, 0
12, 52680, Control_c, 10, 11, 122
12, 52680, Note_on_c, 10, 85, 100
12, 52697, Control_c, 10, 11, 119
12, 52715, Control_c, 10, 11, 116
12, 52725, Note_on_c, 10, 85, 0
12, 52733, Control_c, 10, 11, 113
12, 52740, Note_on_c, 10, 85, 100
12, 52751, Control_c, 10, 11, 110
12, 52769, Control_c, 10, 11, 107
12, 52785, Note_on_c, 10, 85, 0
12, 52787, Control_c, 10, 11, 104
12, 52800, Note_on_c, 10, 83, 90
12, 52800, Note_on_c, 10, 71, 90
12, 52920, Note_on_c, 10, 71, 0
12, 52920, Note_on_c, 10, 83, 0
12, 53160, Control_c, 10, 11, 87
12, 53160, Note_on_c, 10, 88, 100
12, 53280, Note_on_c, 10, 88, 0
12, 53280, Note_on_c, 10, 87, 100
12, 53400, Note_on_c, 10, 87, 0
12, 53640, Note_on_c, 10, 88, 100
12, 53760, Note_on_c, 10, 88, 0
12, 53760, Note_on_c, 10, 87, 100
12, 53880, Note_on_c, 10, 87, 0
12, 54120, Note_on_c, 10, 88, 100
12, 54240, Note_on_c, 10, 88, 0
12, 54240, Note_on_c, 10, 87, 100
12, 54360, Note_on_c, 10, 87, 0
12, 54600, Note_on_c, 10, 88, 100
12, 54720, Note_on_c, 10, 88, 0
12, 54720, Note_on_c, 10, 87, 100
12, 54825, Note_on_c, 10, 87, 0
12, 54840, Note_on_c, 10, 87, 100
12, 54885, Note_on_c, 10, 87, 0
12, 54900, Note_on_c, 10, 87, 100
12, 54945, Note_on_c, 10, 87, 0
12, 54960, Note_on_c, 10, 87, 100
12, 55080, Note_on_c, 10, 87, 0
12, 55200, Note_on_c, 10, 90, 100
12, 55305, Note_on_c, 10, 90, 0
12, 55320, Note_on_c, 10, 90, 100
12, 55365, Note_on_c, 10, 90, 0
12, 55380, Note_on_c, 10, 90, 100
12, 55425, Note_on_c, 10, 90, 0
12, 55440, Note_on_c, 10, 90, 100
12, 55560, Note_on_c, 10, 90, 0
12, 55680, Note_on_c, 10, 83, 100
12, 55680, Note_on_c, 10, 71, 100
12, 55785, Note_on_c, 10, 71, 0
12, 55785, Note_on_c, 10, 83, 0
12, 55800, Note_on_c, 10, 83, 100
12, 55800, Note_on_c, 10, 71, 100
12, 55845, Note_on_c, 10, 71, 0
12, 55845, Note_on_c, 10, 83, 0
12, 55860, Note_on_c, 10, 83, 100
12, 55860, Note_on_c, 10, 71, 100
12, 55905, Note_on_c, 10, 71, 0
12, 55905, Note_on_c, 10, 83, 0
12, 55920, Note_on_c, 10, 83, 100
12, 55920, Note_on_c, 10, 71, 100
12, 56025, Note_on_c, 10, 71, 0
12, 56025, Note_on_c, 10, 83, 0
12, 56040, Note_on_c, 10, 71, 100
12, 56040, Note_on_c, 10, 83, 100
12, 56085, Note_on_c, 10, 83, 0
12, 56085, Note_on_c, 10, 71, 0
12, 56100, Note_on_c, 10, 83, 100
12, 56100, Note_on_c, 10, 71, 100
12, 56145, Note_on_c, 10, 71, 0
12, 56145, Note_on_c, 10, 83, 0
12, 56160, Note_on_c, 10, 71, 100
12, 56160, Note_on_c, 10, 83, 100
12, 56265, Note_on_c, 10, 83, 0
12, 56265, Note_on_c, 10, 71, 0
12, 56280, Note_on_c, 10, 71, 100
12, 56280, Note_on_c, 10, 83, 100
12, 56325, Note_on_c, 10, 83, 0
12, 56325, Note_on_c, 10, 71, 0
12, 56340, Note_on_c, 10, 71, 100
12, 56340, Note_on_c, 10, 83, 100
12, 56385, Note_on_c, 10, 83, 0
12, 56385, Note_on_c, 10, 71, 0
12, 56400, Note_on_c, 10, 83, 100
12, 56400, Note_on_c, 10, 71, 100
12, 56505, Note_on_c, 10, 71, 0
12, 56505, Note_on_c, 10, 83, 0
12, 56520, Note_on_c, 10, 71, 100
12, 56520, Note_on_c, 10, 83, 100
12, 56565, Note_on_c, 10, 83, 0
12, 56565, Note_on_c, 10, 71, 0
12, 56580, Note_on_c, 10, 83, 100
12, 56580, Note_on_c, 10, 71, 100
12, 56625, Note_on_c, 10, 71, 0
12, 56625, Note_on_c, 10, 83, 0
12, 56640, Control_c, 10, 11, 87
12, 56640, Note_on_c, 10, 71, 100
12, 56640, Note_on_c, 10, 83, 100
12, 56644, Control_c, 10, 11, 84
12, 56649, Control_c, 10, 11, 81
12, 56653, Control_c, 10, 11, 78
12, 56658, Control_c, 10, 11, 75
12, 56662, Control_c, 10, 11, 72
12, 56667, Control_c, 10, 11, 69
12, 56671, Control_c, 10, 11, 66
12, 56676, Control_c, 10, 11, 63
12, 56680, Control_c, 10, 11, 60
12, 56685, Control_c, 10, 11, 57
12, 56689, Control_c, 10, 11, 54
12, 56690, Note_on_c, 10, 83, 0
12, 56690, Note_on_c, 10, 71, 0
12, 56694, Control_c, 10, 11, 51
12, 56698, Control_c, 10, 11, 48
12, 56700, Note_on_c, 10, 71, 76
12, 56810, Note_on_c, 10, 71, 0
12, 56820, Note_on_c, 10, 71, 76
12, 56930, Note_on_c, 10, 71, 0
12, 56940, Note_on_c, 10, 71, 76
12, 57050, Note_on_c, 10, 71, 0
12, 57060, Note_on_c, 10, 71, 76
12, 57170, Note_on_c, 10, 71, 0
12, 57180, Note_on_c, 10, 71, 76
12, 57290, Note_on_c, 10, 71, 0
12, 57300, Note_on_c, 10, 71, 76
12, 57410, Note_on_c, 10, 71, 0
12, 57420, Note_on_c, 10, 71, 76
12, 57530, Note_on_c, 10, 71, 0
12, 57540, Note_on_c, 10, 71, 76
12, 57650, Note_on_c, 10, 71, 0
12, 57660, Note_on_c, 10, 71, 76
12, 57770, Note_on_c, 10, 71, 0
12, 57780, Note_on_c, 10, 71, 76
12, 57890, Note_on_c, 10, 71, 0
12, 57900, Note_on_c, 10, 71, 76
12, 58010, Note_on_c, 10, 71, 0
12, 58020, Note_on_c, 10, 71, 76
12, 58130, Note_on_c, 10, 71, 0
12, 58140, Note_on_c, 10, 71, 76
12, 58250, Note_on_c, 10, 71, 0
12, 58260, Note_on_c, 10, 71, 76
12, 58370, Note_on_c, 10, 71, 0
12, 58380, Note_on_c, 10, 71, 76
12, 58490, Note_on_c, 10, 71, 0
12, 58500, Note_on_c, 10, 71, 76
12, 58610, Note_on_c, 10, 71, 0
12, 58620, Note_on_c, 10, 74, 76
12, 58730, Note_on_c, 10, 74, 0
12, 58740, Note_on_c, 10, 74, 76
12, 58850, Note_on_c, 10, 74, 0
12, 58860, Note_on_c, 10, 74, 76
12, 58970, Note_on_c, 10, 74, 0
12, 58980, Note_on_c, 10, 74, 76
12, 59090, Note_on_c, 10, 74, 0
12, 59100, Note_on_c, 10, 74, 76
12, 59210, Note_on_c, 10, 74, 0
12, 59220, Note_on_c, 10, 74, 76
12, 59330, Note_on_c, 10, 74, 0
12, 59340, Note_on_c, 10, 74, 76
12, 59450, Note_on_c, 10, 74, 0
12, 59460, Note_on_c, 10, 74, 76
12, 59570, Note_on_c, 10, 74, 0
12, 59580, Note_on_c, 10, 74, 76
12, 59690, Note_on_c, 10, 74, 0
12, 59700, Note_on_c, 10, 74, 76
12, 59810, Note_on_c, 10, 74, 0
12, 59820, Note_on_c, 10, 74, 76
12, 59930, Note_on_c, 10, 74, 0
12, 59940, Note_on_c, 10, 74, 76
12, 60050, Note_on_c, 10, 74, 0
12, 60060, Note_on_c, 10, 74, 76
12, 60170, Note_on_c, 10, 74, 0
12, 60180, Note_on_c, 10, 74, 76
12, 60290, Note_on_c, 10, 74, 0
12, 60300, Note_on_c, 10, 74, 76
12, 60410, Note_on_c, 10, 74, 0
12, 60420, Note_on_c, 10, 74, 76
12, 60530, Note_on_c, 10, 74, 0
12, 60540, Note_on_c, 10, 74, 76
12, 60650, Note_on_c, 10, 74, 0
12, 60660, Note_on_c, 10, 74, 76
12, 60770, Note_on_c, 10, 74, 0
12, 60780, Note_on_c, 10, 74, 76
12, 60890, Note_on_c, 10, 74, 0
12, 60900, Note_on_c, 10, 74, 76
12, 61010, Note_on_c, 10, 74, 0
12, 61020, Note_on_c, 10, 67, 76
12, 61130, Note_on_c, 10, 67, 0
12, 61140, Note_on_c, 10, 67, 76
12, 61250, Note_on_c, 10, 67, 0
12, 61260, Note_on_c, 10, 67, 76
12, 61370, Note_on_c, 10, 67, 0
12, 61380, Note_on_c, 10, 67, 76
12, 61490, Note_on_c, 10, 67, 0
12, 61500, Note_on_c, 10, 67, 76
12, 61610, Note_on_c, 10, 67, 0
12, 61620, Note_on_c, 10, 67, 76
12, 61730, Note_on_c, 10, 67, 0
12, 61740, Note_on_c, 10, 67, 76
12, 61850, Note_on_c, 10, 67, 0
12, 61860, Note_on_c, 10, 67, 76
12, 61970, Note_on_c, 10, 67, 0
12, 61980, Note_on_c, 10, 67, 76
12, 62090, Note_on_c, 10, 67, 0
12, 62100, Note_on_c, 10, 67, 76
12, 62210, Note_on_c, 10, 67, 0
12, 62220, Note_on_c, 10, 67, 76
12, 62330, Note_on_c, 10, 67, 0
12, 62340, Note_on_c, 10, 67, 76
12, 62450, Note_on_c, 10, 67, 0
12, 62460, Note_on_c, 10, 67, 76
12, 62570, Note_on_c, 10, 67, 0
12, 62580, Note_on_c, 10, 67, 76
12, 62690, Note_on_c, 10, 67, 0
12, 62700, Note_on_c, 10, 67, 76
12, 62810, Note_on_c, 10, 67, 0
12, 62820, Note_on_c, 10, 67, 76
12, 62870, Note_on_c, 10, 67, 0
12, 62880, Note_on_c, 10, 64, 76
12, 62930, Note_on_c, 10, 64, 0
12, 62940, Note_on_c, 10, 76, 76
12, 63050, Note_on_c, 10, 76, 0
12, 63060, Note_on_c, 10, 76, 76
12, 63170, Note_on_c, 10, 76, 0
12, 63180, Note_on_c, 10, 76, 76
12, 63290, Note_on_c, 10, 76, 0
12, 63300, Note_on_c, 10, 76, 76
12, 63410, Note_on_c, 10, 76, 0
12, 63420, Note_on_c, 10, 76, 76
12, 63530, Note_on_c, 10, 76, 0
12, 63540, Note_on_c, 10, 76, 76
12, 63650, Note_on_c, 10, 76, 0
12, 63660, Note_on_c, 10, 76, 76
12, 63770, Note_on_c, 10, 76, 0
12, 63780, Note_on_c, 10, 76, 76
12, 63890, Note_on_c, 10, 76, 0
12, 63900, Note_on_c, 10, 76, 76
12, 64010, Note_on_c, 10, 76, 0
12, 64020, Note_on_c, 10, 76, 76
12, 64130, Note_on_c, 10, 76, 0
12, 64140, Note_on_c, 10, 76, 76
12, 64250, Note_on_c, 10, 76, 0
12, 64260, Note_on_c, 10, 76, 76
12, 64370, Note_on_c, 10, 76, 0
12, 64380, Note_on_c, 10, 76, 76
12, 64490, Note_on_c, 10, 76, 0
12, 64500, Note_on_c, 10, 76, 76
12, 64610, Note_on_c, 10, 76, 0
12, 64620, Note_on_c, 10, 76, 76
12, 64730, Note_on_c, 10, 76, 0
12, 64740, Note_on_c, 10, 76, 76
12, 64850, Note_on_c, 10, 76, 0
12, 64860, Note_on_c, 10, 69, 76
12, 64970, Note_on_c, 10, 69, 0
12, 64980, Note_on_c, 10, 69, 76
12, 65090, Note_on_c, 10, 69, 0
12, 65100, Note_on_c, 10, 69, 76
12, 65210, Note_on_c, 10, 69, 0
12, 65220, Note_on_c, 10, 69, 76
12, 65270, Note_on_c, 10, 69, 0
12, 65280, Note_on_c, 10, 59, 76
12, 65330, Note_on_c, 10, 59, 0
12, 65340, Note_on_c, 10, 71, 76
12, 65450, Note_on_c, 10, 71, 0
12, 65460, Note_on_c, 10, 71, 76
12, 65570, Note_on_c, 10, 71, 0
12, 65580, Note_on_c, 10, 71, 76
12, 65690, Note_on_c, 10, 71, 0
12, 65700, Note_on_c, 10, 71, 76
12, 65810, Note_on_c, 10, 71, 0
12, 65820, Note_on_c, 10, 71, 76
12, 65930, Note_on_c, 10, 71, 0
12, 65940, Note_on_c, 10, 71, 76
12, 66050, Note_on_c, 10, 71, 0
12, 66060, Note_on_c, 10, 71, 76
12, 66170, Note_on_c, 10, 71, 0
12, 66180, Note_on_c, 10, 71, 76
12, 66290, Note_on_c, 10, 71, 0
12, 66300, Note_on_c, 10, 71, 76
12, 66410, Note_on_c, 10, 71, 0
12, 66420, Note_on_c, 10, 71, 76
12, 66530, Note_on_c, 10, 71, 0
12, 66540, Note_on_c, 10, 71, 76
12, 66650, Note_on_c, 10, 71, 0
12, 66660, Note_on_c, 10, 71, 76
12, 66770, Note_on_c, 10, 71, 0
12, 66780, Note_on_c, 10, 71, 76
12, 66890, Note_on_c, 10, 71, 0
12, 66900, Note_on_c, 10, 71, 76
12, 67010, Note_on_c, 10, 71, 0
12, 67020, Note_on_c, 10, 71, 76
12, 67130, Note_on_c, 10, 71, 0
12, 67140, Note_on_c, 10, 71, 76
12, 67250, Note_on_c, 10, 71, 0
12, 67260, Note_on_c, 10, 71, 76
12, 67370, Note_on_c, 10, 71, 0
12, 67380, Note_on_c, 10, 71, 76
12, 67490, Note_on_c, 10, 71, 0
12, 67500, Note_on_c, 10, 71, 76
12, 67610, Note_on_c, 10, 71, 0
12, 67620, Note_on_c, 10, 71, 76
12, 67730, Note_on_c, 10, 71, 0
12, 67740, Note_on_c, 10, 71, 76
12, 67850, Note_on_c, 10, 71, 0
12, 67860, Note_on_c, 10, 71, 76
12, 67970, Note_on_c, 10, 71, 0
12, 67980, Note_on_c, 10, 71, 76
12, 68090, Note_on_c, 10, 71, 0
12, 68100, Note_on_c, 10, 71, 76
12, 68210, Note_on_c, 10, 71, 0
12, 68220, Note_on_c, 10, 71, 76
12, 68330, Note_on_c, 10, 71, 0
12, 68340, Note_on_c, 10, 71, 76
12, 68450, Note_on_c, 10, 71, 0
12, 68460, Note_on_c, 10, 71, 76
12, 68570, Note_on_c, 10, 71, 0
12, 68580, Note_on_c, 10, 71, 76
12, 68690, Note_on_c, 10, 71, 0
12, 68700, Note_on_c, 10, 71, 76
12, 68810, Note_on_c, 10, 71, 0
12, 68820, Note_on_c, 10, 71, 76
12, 68930, Note_on_c, 10, 71, 0
12, 68940, Note_on_c, 10, 71, 76
12, 69050, Note_on_c, 10, 71, 0
12, 69060, Note_on_c, 10, 71, 76
12, 69170, Note_on_c, 10, 71, 0
12, 69180, Note_on_c, 10, 71, 76
12, 69290, Note_on_c, 10, 71, 0
12, 69300, Note_on_c, 10, 71, 76
12, 69410, Note_on_c, 10, 71, 0
12, 69420, Note_on_c, 10, 71, 76
12, 69530, Note_on_c, 10, 71, 0
12, 69540, Note_on_c, 10, 71, 76
12, 69650, Note_on_c, 10, 71, 0
12, 69660, Control_c, 10, 11, 47
12, 69660, Note_on_c, 10, 71, 76
12, 69702, Control_c, 10, 11, 48
12, 69744, Control_c, 10, 11, 49
12, 69770, Note_on_c, 10, 71, 0
12, 69780, Note_on_c, 10, 71, 76
12, 69786, Control_c, 10, 11, 50
12, 69828, Control_c, 10, 11, 51
12, 69870, Control_c, 10, 11, 52
12, 69890, Note_on_c, 10, 71, 0
12, 69900, Note_on_c, 10, 71, 76
12, 69912, Control_c, 10, 11, 53
12, 69954, Control_c, 10, 11, 54
12, 69996, Control_c, 10, 11, 55
12, 70010, Note_on_c, 10, 71, 0
12, 70020, Note_on_c, 10, 71, 76
12, 70038, Control_c, 10, 11, 56
12, 70080, Control_c, 10, 11, 57
12, 70122, Control_c, 10, 11, 58
12, 70130, Note_on_c, 10, 71, 0
12, 70140, Note_on_c, 10, 71, 76
12, 70164, Control_c, 10, 11, 59
12, 70206, Control_c, 10, 11, 60
12, 70248, Control_c, 10, 11, 61
12, 70250, Note_on_c, 10, 71, 0
12, 70260, Note_on_c, 10, 71, 76
12, 70290, Control_c, 10, 11, 62
12, 70332, Control_c, 10, 11, 63
12, 70370, Note_on_c, 10, 71, 0
12, 70374, Control_c, 10, 11, 64
12, 70380, Note_on_c, 10, 71, 76
12, 70416, Control_c, 10, 11, 65
12, 70458, Control_c, 10, 11, 66
12, 70490, Note_on_c, 10, 71, 0
12, 70500, Control_c, 10, 11, 67
12, 70500, Note_on_c, 10, 71, 76
12, 70550, Note_on_c, 10, 71, 0
12, 70560, Control_c, 10, 11, 47
12, 70560, Note_on_c, 10, 71, 100
12, 70620, Note_on_c, 10, 71, 0
12, 70620, Note_on_c, 10, 73, 100
12, 70680, Note_on_c, 10, 73, 0
12, 70680, Note_on_c, 10, 75, 100
12, 70740, Note_on_c, 10, 75, 0
12, 70740, Note_on_c, 10, 76, 100
12, 70800, Note_on_c, 10, 76, 0
12, 70800, Note_on_c, 10, 75, 100
12, 70860, Note_on_c, 10, 75, 0
12, 70860, Note_on_c, 10, 76, 100
12, 70920, Note_on_c, 10, 76, 0
12, 70920, Note_on_c, 10, 78, 100
12, 70980, Note_on_c, 10, 78, 0
12, 70980, Note_on_c, 10, 80, 100
12, 71030, Note_on_c, 10, 80, 0
12, 71040, Note_on_c, 10, 71, 100
12, 71100, Note_on_c, 10, 71, 0
12, 71100, Note_on_c, 10, 73, 100
12, 71160, Note_on_c, 10, 73, 0
12, 71160, Note_on_c, 10, 75, 100
12, 71220, Note_on_c, 10, 75, 0
12, 71220, Note_on_c, 10, 76, 100
12, 71280, Note_on_c, 10, 76, 0
12, 71280, Note_on_c, 10, 75, 100
12, 71340, Note_on_c, 10, 75, 0
12, 71340, Note_on_c, 10, 76, 100
12, 71400, Note_on_c, 10, 76, 0
12, 71400, Note_on_c, 10, 78, 100
12, 71460, Note_on_c, 10, 78, 0
12, 71460, Note_on_c, 10, 80, 100
12, 71520, Note_on_c, 10, 80, 0
12, 71520, Note_on_c, 10, 81, 100
12, 71580, Note_on_c, 10, 81, 0
12, 71580, Note_on_c, 10, 80, 100
12, 71640, Note_on_c, 10, 80, 0
12, 71640, Note_on_c, 10, 78, 100
12, 71700, Note_on_c, 10, 78, 0
12, 71700, Note_on_c, 10, 85, 100
12, 71760, Note_on_c, 10, 85, 0
12, 71760, Note_on_c, 10, 83, 100
12, 71820, Note_on_c, 10, 83, 0
12, 71820, Note_on_c, 10, 76, 100
12, 71880, Note_on_c, 10, 76, 0
12, 71880, Note_on_c, 10, 81, 100
12, 71940, Note_on_c, 10, 81, 0
12, 71940, Note_on_c, 10, 75, 100
12, 72000, Note_on_c, 10, 75, 0
12, 72000, Note_on_c, 10, 80, 100
12, 72060, Note_on_c, 10, 80, 0
12, 72060, Note_on_c, 10, 76, 100
12, 72120, Note_on_c, 10, 76, 0
12, 72120, Note_on_c, 10, 75, 100
12, 72180, Note_on_c, 10, 75, 0
12, 72180, Note_on_c, 10, 76, 100
12, 72240, Note_on_c, 10, 76, 0
12, 72240, Note_on_c, 10, 75, 100
12, 72300, Note_on_c, 10, 75, 0
12, 72300, Note_on_c, 10, 76, 100
12, 72360, Note_on_c, 10, 76, 0
12, 72360, Note_on_c, 10, 71, 100
12, 72420, Note_on_c, 10, 71, 0
12, 72420, Note_on_c, 10, 68, 100
12, 72470, Note_on_c, 10, 68, 0
12, 72480, Note_on_c, 10, 64, 100
12, 72600, Note_on_c, 10, 64, 0
12, 74400, Control_c, 10, 11, 32
12, 74400, Note_on_c, 10, 78, 80
12, 74416, Control_c, 10, 11, 34
12, 74432, Control_c, 10, 11, 36
12, 74448, Control_c, 10, 11, 38
12, 74464, Control_c, 10, 11, 40
12, 74480, Control_c, 10, 11, 42
12, 74496, Control_c, 10, 11, 44
12, 74512, Control_c, 10, 11, 46
12, 74520, Note_on_c, 10, 78, 0
12, 74520, Note_on_c, 10, 81, 90
12, 74640, Note_on_c, 10, 81, 0
12, 74640, Note_on_c, 10, 80, 100
12, 74760, Note_on_c, 10, 80, 0
12, 74760, Note_on_c, 10, 78, 100
12, 74880, Note_on_c, 10, 78, 0
12, 74880, Note_on_c, 10, 76, 100
12, 75000, Note_on_c, 10, 76, 0
12, 75000, Note_on_c, 10, 80, 100
12, 75120, Note_on_c, 10, 80, 0
12, 75120, Note_on_c, 10, 83, 100
12, 75240, Note_on_c, 10, 83, 0
12, 75240, Note_on_c, 10, 80, 100
12, 75345, Note_on_c, 10, 80, 0
12, 75360, Control_c, 10, 11, 47
12, 75360, Note_on_c, 10, 78, 100
12, 75396, Control_c, 10, 11, 48
12, 75405, Note_on_c, 10, 78, 0
12, 75420, Note_on_c, 10, 78, 100
12, 75432, Control_c, 10, 11, 49
12, 75468, Control_c, 10, 11, 50
12, 75480, Note_on_c, 10, 78, 0
12, 75480, Note_on_c, 10, 81, 100
12, 75504, Control_c, 10, 11, 51
12, 75525, Note_on_c, 10, 81, 0
12, 75540, Control_c, 10, 11, 52
12, 75540, Note_on_c, 10, 81, 100
12, 75576, Control_c, 10, 11, 53
12, 75600, Note_on_c, 10, 81, 0
12, 75600, Note_on_c, 10, 80, 100
12, 75612, Control_c, 10, 11, 54
12, 75645, Note_on_c, 10, 80, 0
12, 75648, Control_c, 10, 11, 55
12, 75660, Note_on_c, 10, 80, 100
12, 75684, Control_c, 10, 11, 56
12, 75720, Note_on_c, 10, 80, 0
12, 75720, Control_c, 10, 11, 57
12, 75720, Note_on_c, 10, 78, 100
12, 75756, Control_c, 10, 11, 58
12, 75765, Note_on_c, 10, 78, 0
12, 75780, Note_on_c, 10, 78, 100
12, 75792, Control_c, 10, 11, 59
12, 75828, Control_c, 10, 11, 60
12, 75840, Note_on_c, 10, 78, 0
12, 75840, Note_on_c, 10, 76, 100
12, 75864, Control_c, 10, 11, 61
12, 75885, Note_on_c, 10, 76, 0
12, 75900, Control_c, 10, 11, 62
12, 75900, Note_on_c, 10, 76, 100
12, 75936, Control_c, 10, 11, 63
12, 75960, Note_on_c, 10, 76, 0
12, 75960, Note_on_c, 10, 80, 100
12, 75972, Control_c, 10, 11, 64
12, 76005, Note_on_c, 10, 80, 0
12, 76008, Control_c, 10, 11, 65
12, 76020, Note_on_c, 10, 80, 100
12, 76044, Control_c, 10, 11, 66
12, 76080, Note_on_c, 10, 80, 0
12, 76080, Control_c, 10, 11, 67
12, 76080, Note_on_c, 10, 83, 100
12, 76116, Control_c, 10, 11, 68
12, 76125, Note_on_c, 10, 83, 0
12, 76140, Note_on_c, 10, 83, 100
12, 76152, Control_c, 10, 11, 69
12, 76188, Control_c, 10, 11, 70
12, 76200, Note_on_c, 10, 83, 0
12, 76200, Note_on_c, 10, 80, 100
12, 76224, Control_c, 10, 11, 71
12, 76245, Note_on_c, 10, 80, 0
12, 76260, Control_c, 10, 11, 72
12, 76260, Note_on_c, 10, 80, 100
12, 76296, Control_c, 10, 11, 73
12, 76320, Note_on_c, 10, 80, 0
12, 76320, Note_on_c, 10, 78, 100
12, 76332, Control_c, 10, 11, 74
12, 76365, Note_on_c, 10, 78, 0
12, 76368, Control_c, 10, 11, 75
12, 76380, Note_on_c, 10, 78, 100
12, 76404, Control_c, 10, 11, 76
12, 76440, Note_on_c, 10, 78, 0
12, 76440, Control_c, 10, 11, 77
12, 76440, Note_on_c, 10, 81, 100
12, 76476, Control_c, 10, 11, 78
12, 76485, Note_on_c, 10, 81, 0
12, 76500, Note_on_c, 10, 81, 100
12, 76512, Control_c, 10, 11, 79
12, 76548, Control_c, 10, 11, 80
12, 76560, Note_on_c, 10, 81, 0
12, 76560, Note_on_c, 10, 80, 100
12, 76584, Control_c, 10, 11, 81
12, 76605, Note_on_c, 10, 80, 0
12, 76620, Control_c, 10, 11, 82
12, 76620, Note_on_c, 10, 80, 100
12, 76656, Control_c, 10, 11, 83
12, 76680, Note_on_c, 10, 80, 0
12, 76680, Note_on_c, 10, 78, 100
12, 76692, Control_c, 10, 11, 84
12, 76725, Note_on_c, 10, 78, 0
12, 76728, Control_c, 10, 11, 85
12, 76740, Note_on_c, 10, 78, 100
12, 76764, Control_c, 10, 11, 86
12, 76785, Note_on_c, 10, 78, 0
12, 76800, Control_c, 10, 11, 87
12, 76800, Note_on_c, 10, 76, 100
12, 76905, Note_on_c, 10, 76, 0
12, 76920, Note_on_c, 10, 88, 100
12, 77125, Note_on_c, 10, 88, 0
12, 77160, Note_on_c, 10, 88, 100
12, 77190, Note_on_c, 10, 88, 0
12, 77220, Note_on_c, 10, 87, 100
12, 77250, Note_on_c, 10, 87, 0
12, 77280, Note_on_c, 10, 87, 100
12, 77310, Note_on_c, 10, 87, 0
12, 77340, Note_on_c, 10, 85, 100
12, 77370, Note_on_c, 10, 85, 0
12, 77400, Note_on_c, 10, 85, 100
12, 77605, Note_on_c, 10, 85, 0
12, 77640, Note_on_c, 10, 85, 100
12, 77670, Note_on_c, 10, 85, 0
12, 77700, Note_on_c, 10, 83, 100
12, 77730, Note_on_c, 10, 83, 0
12, 77760, Note_on_c, 10, 83, 100
12, 77790, Note_on_c, 10, 83, 0
12, 77820, Note_on_c, 10, 81, 100
12, 77850, Note_on_c, 10, 81, 0
12, 77880, Note_on_c, 10, 81, 100
12, 78085, Note_on_c, 10, 81, 0
12, 78120, Note_on_c, 10, 81, 100
12, 78150, Note_on_c, 10, 81, 0
12, 78180, Note_on_c, 10, 80, 100
12, 78210, Note_on_c, 10, 80, 0
12, 78240, Note_on_c, 10, 80, 100
12, 78285, Note_on_c, 10, 80, 0
12, 78300, Note_on_c, 10, 78, 100
12, 78345, Note_on_c, 10, 78, 0
12, 78360, Note_on_c, 10, 76, 100
12, 78405, Note_on_c, 10, 76, 0
12, 78420, Note_on_c, 10, 75, 100
12, 78465, Note_on_c, 10, 75, 0
12, 78480, Note_on_c, 10, 75, 100
12, 78525, Note_on_c, 10, 75, 0
12, 78540, Note_on_c, 10, 73, 100
12, 78585, Note_on_c, 10, 73, 0
12, 78600, Note_on_c, 10, 71, 100
12, 78645, Note_on_c, 10, 71, 0
12, 78660, Note_on_c, 10, 69, 100
12, 78705, Note_on_c, 10, 69, 0
12, 78720, Note_on_c, 10, 68, 100
12, 78765, Note_on_c, 10, 68, 0
12, 78780, Note_on_c, 10, 88, 100
12, 78825, Note_on_c, 10, 88, 0
12, 78840, Note_on_c, 10, 88, 100
12, 78885, Note_on_c, 10, 88, 0
12, 78900, Note_on_c, 10, 88, 100
12, 78945, Note_on_c, 10, 88, 0
12, 78960, Note_on_c, 10, 88, 100
12, 79005, Note_on_c, 10, 88, 0
12, 79020, Note_on_c, 10, 88, 100
12, 79065, Note_on_c, 10, 88, 0
12, 79080, Note_on_c, 10, 88, 100
12, 79125, Note_on_c, 10, 88, 0
12, 79140, Note_on_c, 10, 87, 100
12, 79185, Note_on_c, 10, 87, 0
12, 79200, Note_on_c, 10, 87, 100
12, 79245, Note_on_c, 10, 87, 0
12, 79260, Note_on_c, 10, 85, 100
12, 79305, Note_on_c, 10, 85, 0
12, 79320, Note_on_c, 10, 85, 100
12, 79365, Note_on_c, 10, 85, 0
12, 79380, Note_on_c, 10, 85, 100
12, 79425, Note_on_c, 10, 85, 0
12, 79440, Note_on_c, 10, 85, 100
12, 79485, Note_on_c, 10, 85, 0
12, 79500, Note_on_c, 10, 85, 100
12, 79545, Note_on_c, 10, 85, 0
12, 79560, Note_on_c, 10, 85, 100
12, 79605, Note_on_c, 10, 85, 0
12, 79620, Note_on_c, 10, 83, 100
12, 79665, Note_on_c, 10, 83, 0
12, 79680, Note_on_c, 10, 83, 100
12, 79725, Note_on_c, 10, 83, 0
12, 79740, Note_on_c, 10, 81, 100
12, 79785, Note_on_c, 10, 81, 0
12, 79800, Note_on_c, 10, 81, 100
12, 79845, Note_on_c, 10, 81, 0
12, 79860, Note_on_c, 10, 81, 100
12, 79905, Note_on_c, 10, 81, 0
12, 79920, Note_on_c, 10, 81, 100
12, 79965, Note_on_c, 10, 81, 0
12, 79980, Note_on_c, 10, 81, 100
12, 80025, Note_on_c, 10, 81, 0
12, 80040, Note_on_c, 10, 81, 100
12, 80085, Note_on_c, 10, 81, 0
12, 80100, Note_on_c, 10, 80, 100
12, 80145, Note_on_c, 10, 80, 0
12, 80160, Note_on_c, 10, 80, 100
12, 80205, Note_on_c, 10, 80, 0
12, 80220, Note_on_c, 10, 78, 100
12, 80265, Note_on_c, 10, 78, 0
12, 80280, Note_on_c, 10, 76, 100
12, 80325, Note_on_c, 10, 76, 0
12, 80340, Note_on_c, 10, 75, 100
12, 80385, Note_on_c, 10, 75, 0
12, 80400, Note_on_c, 10, 75, 100
12, 80445, Note_on_c, 10, 75, 0
12, 80460, Note_on_c, 10, 73, 100
12, 80505, Note_on_c, 10, 73, 0
12, 80520, Note_on_c, 10, 71, 100
12, 80565, Note_on_c, 10, 71, 0
12, 80580, Note_on_c, 10, 69, 100
12, 80625, Note_on_c, 10, 69, 0
12, 80640, Note_on_c, 10, 68, 100
12, 80685, Note_on_c, 10, 68, 0
12, 80700, Note_on_c, 10, 59, 100
12, 80745, Note_on_c, 10, 59, 0
12, 80760, Note_on_c, 10, 68, 100
12, 80805, Note_on_c, 10, 68, 0
12, 80820, Note_on_c, 10, 68, 100
12, 80865, Note_on_c, 10, 68, 0
12, 80880, Note_on_c, 10, 68, 100
12, 80925, Note_on_c, 10, 68, 0
12, 80940, Note_on_c, 10, 64, 100
12, 80985, Note_on_c, 10, 64, 0
12, 81000, Note_on_c, 10, 71, 100
12, 81045, Note_on_c, 10, 71, 0
12, 81060, Note_on_c, 10, 71, 100
12, 81105, Note_on_c, 10, 71, 0
12, 81120, Note_on_c, 10, 71, 100
12, 81165, Note_on_c, 10, 71, 0
12, 81180, Note_on_c, 10, 68, 100
12, 81225, Note_on_c, 10, 68, 0
12, 81240, Note_on_c, 10, 76, 100
12, 81285, Note_on_c, 10, 76, 0
12, 81300, Note_on_c, 10, 76, 100
12, 81345, Note_on_c, 10, 76, 0
12, 81360, Note_on_c, 10, 76, 100
12, 81405, Note_on_c, 10, 76, 0
12, 81420, Note_on_c, 10, 71, 100
12, 81465, Note_on_c, 10, 71, 0
12, 81480, Note_on_c, 10, 80, 100
12, 81525, Note_on_c, 10, 80, 0
12, 81540, Note_on_c, 10, 80, 100
12, 81585, Note_on_c, 10, 80, 0
12, 81600, Control_c, 10, 11, 107
12, 81600, Note_on_c, 10, 83, 100
12, 81617, Control_c, 10, 11, 104
12, 81635, Control_c, 10, 11, 101
12, 81653, Control_c, 10, 11, 98
12, 81660, Note_on_c, 10, 83, 0
12, 81660, Note_on_c, 10, 81, 100
12, 81671, Control_c, 10, 11, 95
12, 81689, Control_c, 10, 11, 92
12, 81705, Note_on_c, 10, 81, 0
12, 81707, Control_c, 10, 11, 89
12, 81720, Note_on_c, 10, 78, 100
12, 81750, Note_on_c, 10, 78, 0
12, 81780, Note_on_c, 10, 75, 100
12, 81810, Note_on_c, 10, 75, 0
12, 81840, Note_on_c, 10, 83, 100
12, 81900, Note_on_c, 10, 83, 0
12, 81900, Note_on_c, 10, 81, 100
12, 81945, Note_on_c, 10, 81, 0
12, 81960, Note_on_c, 10, 78, 100
12, 81990, Note_on_c, 10, 78, 0
12, 82020, Note_on_c, 10, 75, 100
12, 82050, Note_on_c, 10, 75, 0
12, 82080, Note_on_c, 10, 83, 100
12, 82140, Note_on_c, 10, 83, 0
12, 82140, Note_on_c, 10, 81, 100
12, 82185, Note_on_c, 10, 81, 0
12, 82200, Note_on_c, 10, 78, 100
12, 82230, Note_on_c, 10, 78, 0
12, 82260, Note_on_c, 10, 75, 100
12, 82290, Note_on_c, 10, 75, 0
12, 82320, Note_on_c, 10, 83, 100
12, 82380, Note_on_c, 10, 83, 0
12, 82380, Note_on_c, 10, 81, 100
12, 82425, Note_on_c, 10, 81, 0
12, 82440, Note_on_c, 10, 78, 100
12, 82470, Note_on_c, 10, 78, 0
12, 82500, Note_on_c, 10, 75, 100
12, 82530, Note_on_c, 10, 75, 0
12, 82560, Note_on_c, 10, 64, 100
12, 82605, Note_on_c, 10, 64, 0
12, 82620, Note_on_c, 10, 59, 100
12, 82665, Note_on_c, 10, 59, 0
12, 82680, Note_on_c, 10, 68, 100
12, 82725, Note_on_c, 10, 68, 0
12, 82740, Note_on_c, 10, 68, 100
12, 82785, Note_on_c, 10, 68, 0
12, 82800, Note_on_c, 10, 68, 100
12, 82845, Note_on_c, 10, 68, 0
12, 82860, Note_on_c, 10, 64, 100
12, 82905, Note_on_c, 10, 64, 0
12, 82920, Note_on_c, 10, 71, 100
12, 82965, Note_on_c, 10, 71, 0
12, 82980, Note_on_c, 10, 71, 100
12, 83025, Note_on_c, 10, 71, 0
12, 83040, Note_on_c, 10, 71, 100
12, 83085, Note_on_c, 10, 71, 0
12, 83100, Note_on_c, 10, 68, 100
12, 83145, Note_on_c, 10, 68, 0
12, 83160, Note_on_c, 10, 76, 100
12, 83205, Note_on_c, 10, 76, 0
12, 83220, Note_on_c, 10, 76, 100
12, 83265, Note_on_c, 10, 76, 0
12, 83280, Note_on_c, 10, 76, 100
12, 83325, Note_on_c, 10, 76, 0
12, 83340, Note_on_c, 10, 71, 100
12, 83385, Note_on_c, 10, 71, 0
12, 83400, Note_on_c, 10, 80, 100
12, 83445, Note_on_c, 10, 80, 0
12, 83460, Note_on_c, 10, 80, 100
12, 83505, Note_on_c, 10, 80, 0
12, 83520, Control_c, 10, 11, 107
12, 83520, Note_on_c, 10, 83, 100
12, 83537, Control_c, 10, 11, 104
12, 83555, Control_c, 10, 11, 101
12, 83573, Control_c, 10, 11, 98
12, 83580, Note_on_c, 10, 83, 0
12, 83580, Note_on_c, 10, 81, 100
12, 83591, Control_c, 10, 11, 95
12, 83609, Control_c, 10, 11, 92
12, 83625, Note_on_c, 10, 81, 0
12, 83627, Control_c, 10, 11, 89
12, 83640, Note_on_c, 10, 78, 100
12, 83670, Note_on_c, 10, 78, 0
12, 83700, Note_on_c, 10, 75, 100
12, 83730, Note_on_c, 10, 75, 0
12, 83760, Note_on_c, 10, 83, 100
12, 83820, Note_on_c, 10, 83, 0
12, 83820, Note_on_c, 10, 81, 100
12, 83865, Note_on_c, 10, 81, 0
12, 83880, Note_on_c, 10, 78, 100
12, 83910, Note_on_c, 10, 78, 0
12, 83940, Note_on_c, 10, 75, 100
12, 83970, Note_on_c, 10, 75, 0
12, 84000, Note_on_c, 10, 83, 100
12, 84060, Note_on_c, 10, 83, 0
12, 84060, Note_on_c, 10, 81, 100
12, 84105, Note_on_c, 10, 81, 0
12, 84120, Note_on_c, 10, 78, 100
12, 84150, Note_on_c, 10, 78, 0
12, 84180, Note_on_c, 10, 75, 100
12, 84210, Note_on_c, 10, 75, 0
12, 84240, Note_on_c, 10, 83, 100
12, 84300, Note_on_c, 10, 83, 0
12, 84300, Note_on_c, 10, 81, 100
12, 84345, Note_on_c, 10, 81, 0
12, 84360, Note_on_c, 10, 78, 100
12, 84390, Note_on_c, 10, 78, 0
12, 84420, Note_on_c, 10, 75, 100
12, 84450, Note_on_c, 10, 75, 0
12, 84480, Note_on_c, 10, 85, 100
12, 84540, Note_on_c, 10, 85, 0
12, 84540, Note_on_c, 10, 83, 100
12, 84585, Note_on_c, 10, 83, 0
12, 84600, Note_on_c, 10, 80, 100
12, 84630, Note_on_c, 10, 80, 0
12, 84660, Note_on_c, 10, 76, 100
12, 84690, Note_on_c, 10, 76, 0
12, 84720, Note_on_c, 10, 85, 100
12, 84780, Note_on_c, 10, 85, 0
12, 84780, Note_on_c, 10, 83, 100
12, 84825, Note_on_c, 10, 83, 0
12, 84840, Note_on_c, 10, 80, 100
12, 84870, Note_on_c, 10, 80, 0
12, 84900, Note_on_c, 10, 76, 100
12, 84930, Note_on_c, 10, 76, 0
12, 84960, Note_on_c, 10, 85, 100
12, 85020, Note_on_c, 10, 85, 0
12, 85020, Note_on_c, 10, 83, 100
12, 85065, Note_on_c, 10, 83, 0
12, 85080, Note_on_c, 10, 80, 100
12, 85110, Note_on_c, 10, 80, 0
12, 85140, Note_on_c, 10, 76, 100
12, 85170, Note_on_c, 10, 76, 0
12, 85200, Note_on_c, 10, 85, 100
12, 85260, Note_on_c, 10, 85, 0
12, 85260, Note_on_c, 10, 83, 100
12, 85305, Note_on_c, 10, 83, 0
12, 85320, Note_on_c, 10, 80, 100
12, 85350, Note_on_c, 10, 80, 0
12, 85380, Note_on_c, 10, 76, 100
12, 85410, Note_on_c, 10, 76, 0
12, 85440, Note_on_c, 10, 88, 100
12, 85500, Note_on_c, 10, 88, 0
12, 85500, Note_on_c, 10, 86, 100
12, 85545, Note_on_c, 10, 86, 0
12, 85560, Note_on_c, 10, 83, 100
12, 85590, Note_on_c, 10, 83, 0
12, 85620, Note_on_c, 10, 80, 100
12, 85650, Note_on_c, 10, 80, 0
12, 85680, Note_on_c, 10, 88, 100
12, 85740, Note_on_c, 10, 88, 0
12, 85740, Note_on_c, 10, 86, 100
12, 85785, Note_on_c, 10, 86, 0
12, 85800, Note_on_c, 10, 83, 100
12, 85830, Note_on_c, 10, 83, 0
12, 85860, Note_on_c, 10, 80, 100
12, 85890, Note_on_c, 10, 80, 0
12, 85920, Control_c, 10, 11, 107
12, 85920, Note_on_c, 10, 88, 100
12, 85937, Control_c, 10, 11, 104
12, 85955, Control_c, 10, 11, 101
12, 85973, Control_c, 10, 11, 98
12, 85980, Note_on_c, 10, 88, 0
12, 85980, Note_on_c, 10, 86, 100
12, 85991, Control_c, 10, 11, 95
12, 86009, Control_c, 10, 11, 92
12, 86025, Note_on_c, 10, 86, 0
12, 86027, Control_c, 10, 11, 89
12, 86040, Note_on_c, 10, 83, 100
12, 86070, Note_on_c, 10, 83, 0
12, 86100, Note_on_c, 10, 80, 100
12, 86130, Note_on_c, 10, 80, 0
12, 86160, Note_on_c, 10, 76, 100
12, 86190, Note_on_c, 10, 76, 0
12, 86220, Note_on_c, 10, 74, 100
12, 86250, Note_on_c, 10, 74, 0
12, 86280, Note_on_c, 10, 71, 100
12, 86310, Note_on_c, 10, 71, 0
12, 86340, Note_on_c, 10, 69, 100
12, 86370, Note_on_c, 10, 69, 0
12, 86400, Note_on_c, 10, 68, 76
12, 86520, Note_on_c, 10, 68, 0
12, 87480, Control_c, 10, 11, 47
12, 87480, Note_on_c, 10, 71, 100
12, 87540, Note_on_c, 10, 71, 0
12, 87540, Note_on_c, 10, 73, 100
12, 87600, Note_on_c, 10, 73, 0
12, 87600, Note_on_c, 10, 74, 100
12, 87660, Note_on_c, 10, 74, 0
12, 87720, Note_on_c, 10, 74, 100
12, 87780, Note_on_c, 10, 74, 0
12, 87780, Note_on_c, 10, 76, 100
12, 87840, Note_on_c, 10, 76, 0
12, 87840, Note_on_c, 10, 73, 100
12, 87900, Note_on_c, 10, 73, 0
12, 87960, Note_on_c, 10, 73, 100
12, 88020, Note_on_c, 10, 73, 0
12, 88020, Note_on_c, 10, 74, 100
12, 88080, Note_on_c, 10, 74, 0
12, 88080, Note_on_c, 10, 76, 100
12, 88140, Note_on_c, 10, 76, 0
12, 88200, Note_on_c, 10, 76, 100
12, 88260, Note_on_c, 10, 76, 0
12, 88260, Note_on_c, 10, 81, 100
12, 88320, Note_on_c, 10, 81, 0
12, 88320, Note_on_c, 10, 80, 100
12, 88380, Note_on_c, 10, 80, 0
12, 89400, Note_on_c, 10, 71, 100
12, 89460, Note_on_c, 10, 71, 0
12, 89460, Note_on_c, 10, 73, 100
12, 89520, Note_on_c, 10, 73, 0
12, 89520, Note_on_c, 10, 74, 100
12, 89580, Note_on_c, 10, 74, 0
12, 89640, Note_on_c, 10, 74, 100
12, 89700, Note_on_c, 10, 74, 0
12, 89700, Note_on_c, 10, 76, 100
12, 89760, Note_on_c, 10, 76, 0
12, 89760, Note_on_c, 10, 73, 100
12, 89820, Note_on_c, 10, 73, 0
12, 89880, Note_on_c, 10, 73, 100
12, 89940, Note_on_c, 10, 73, 0
12, 89940, Note_on_c, 10, 74, 100
12, 90000, Note_on_c, 10, 74, 0
12, 90000, Note_on_c, 10, 76, 100
12, 90060, Note_on_c, 10, 76, 0
12, 90120, Note_on_c, 10, 76, 100
12, 90180, Note_on_c, 10, 76, 0
12, 90180, Note_on_c, 10, 81, 100
12, 90240, Note_on_c, 10, 81, 0
12, 90240, Note_on_c, 10, 80, 100
12, 90300, Note_on_c, 10, 80, 0
12, 90840, Note_on_c, 10, 74, 100
12, 90900, Note_on_c, 10, 74, 0
12, 90900, Note_on_c, 10, 76, 100
12, 90960, Note_on_c, 10, 76, 0
12, 90960, Note_on_c, 10, 78, 100
12, 91020, Note_on_c, 10, 78, 0
12, 91080, Note_on_c, 10, 78, 100
12, 91140, Note_on_c, 10, 78, 0
12, 91140, Note_on_c, 10, 79, 100
12, 91200, Note_on_c, 10, 79, 0
12, 91200, Note_on_c, 10, 76, 100
12, 91260, Note_on_c, 10, 76, 0
12, 91800, Note_on_c, 10, 76, 100
12, 91860, Note_on_c, 10, 76, 0
12, 91860, Note_on_c, 10, 77, 100
12, 91920, Note_on_c, 10, 77, 0
12, 91920, Note_on_c, 10, 79, 100
12, 91980, Note_on_c, 10, 79, 0
12, 92040, Note_on_c, 10, 79, 100
12, 92100, Note_on_c, 10, 79, 0
12, 92100, Note_on_c, 10, 81, 100
12, 92160, Note_on_c, 10, 81, 0
12, 92160, Note_on_c, 10, 77, 100
12, 92220, Note_on_c, 10, 77, 0
12, 92280, Note_on_c, 10, 74, 100
12, 92340, Note_on_c, 10, 74, 0
12, 92340, Note_on_c, 10, 76, 100
12, 92400, Note_on_c, 10, 76, 0
12, 92400, Note_on_c, 10, 77, 100
12, 92460, Note_on_c, 10, 77, 0
12, 92520, Note_on_c, 10, 77, 100
12, 92580, Note_on_c, 10, 77, 0
12, 92580, Note_on_c, 10, 79, 100
12, 92640, Note_on_c, 10, 79, 0
12, 92640, Note_on_c, 10, 76, 100
12, 92700, Note_on_c, 10, 76, 0
12, 92760, Note_on_c, 10, 76, 100
12, 92820, Note_on_c, 10, 76, 0
12, 92820, Note_on_c, 10, 77, 100
12, 92880, Note_on_c, 10, 77, 0
12, 92880, Note_on_c, 10, 79, 100
12, 92940, Note_on_c, 10, 79, 0
12, 93000, Note_on_c, 10, 79, 100
12, 93060, Note_on_c, 10, 79, 0
12, 93060, Note_on_c, 10, 84, 100
12, 93120, Note_on_c, 10, 84, 0
12, 93120, Note_on_c, 10, 83, 100
12, 93180, Note_on_c, 10, 83, 0
12, 93720, Control_c, 10, 11, 47
12, 93720, Note_on_c, 10, 74, 100
12, 93753, Control_c, 10, 11, 48
12, 93780, Note_on_c, 10, 74, 0
12, 93780, Note_on_c, 10, 76, 100
12, 93786, Control_c, 10, 11, 49
12, 93819, Control_c, 10, 11, 50
12, 93840, Note_on_c, 10, 76, 0
12, 93840, Note_on_c, 10, 77, 100
12, 93852, Control_c, 10, 11, 51
12, 93885, Control_c, 10, 11, 52
12, 93900, Note_on_c, 10, 77, 0
12, 93918, Control_c, 10, 11, 53
12, 93951, Control_c, 10, 11, 54
12, 93960, Note_on_c, 10, 77, 100
12, 93984, Control_c, 10, 11, 55
12, 94017, Control_c, 10, 11, 56
12, 94020, Note_on_c, 10, 77, 0
12, 94020, Note_on_c, 10, 79, 100
12, 94050, Control_c, 10, 11, 57
12, 94080, Note_on_c, 10, 79, 0
12, 94080, Note_on_c, 10, 76, 100
12, 94083, Control_c, 10, 11, 58
12, 94116, Control_c, 10, 11, 59
12, 94140, Note_on_c, 10, 76, 0
12, 94149, Control_c, 10, 11, 60
12, 94182, Control_c, 10, 11, 61
12, 94200, Note_on_c, 10, 74, 100
12, 94215, Control_c, 10, 11, 62
12, 94248, Control_c, 10, 11, 63
12, 94260, Note_on_c, 10, 74, 0
12, 94260, Note_on_c, 10, 76, 100
12, 94281, Control_c, 10, 11, 64
12, 94314, Control_c, 10, 11, 65
12, 94320, Note_on_c, 10, 76, 0
12, 94320, Note_on_c, 10, 77, 100
12, 94347, Control_c, 10, 11, 66
12, 94380, Note_on_c, 10, 77, 0
12, 94380, Control_c, 10, 11, 67
12, 94413, Control_c, 10, 11, 68
12, 94440, Note_on_c, 10, 77, 100
12, 94446, Control_c, 10, 11, 69
12, 94479, Control_c, 10, 11, 70
12, 94500, Note_on_c, 10, 77, 0
12, 94500, Note_on_c, 10, 79, 100
12, 94512, Control_c, 10, 11, 71
12, 94545, Control_c, 10, 11, 72
12, 94560, Note_on_c, 10, 79, 0
12, 94560, Note_on_c, 10, 76, 100
12, 94578, Control_c, 10, 11, 73
12, 94611, Control_c, 10, 11, 74
12, 94620, Note_on_c, 10, 76, 0
12, 94644, Control_c, 10, 11, 75
12, 94677, Control_c, 10, 11, 76
12, 94680, Note_on_c, 10, 74, 100
12, 94710, Control_c, 10, 11, 77
12, 94740, Note_on_c, 10, 74, 0
12, 94740, Note_on_c, 10, 76, 100
12, 94743, Control_c, 10, 11, 78
12, 94776, Control_c, 10, 11, 79
12, 94800, Note_on_c, 10, 76, 0
12, 94800, Note_on_c, 10, 77, 100
12, 94809, Control_c, 10, 11, 80
12, 94842, Control_c, 10, 11, 81
12, 94860, Note_on_c, 10, 77, 0
12, 94875, Control_c, 10, 11, 82
12, 94908, Control_c, 10, 11, 83
12, 94920, Note_on_c, 10, 77, 100
12, 94941, Control_c, 10, 11, 84
12, 94974, Control_c, 10, 11, 85
12, 94980, Note_on_c, 10, 77, 0
12, 94980, Note_on_c, 10, 79, 100
12, 95007, Control_c, 10, 11, 86
12, 95040, Note_on_c, 10, 79, 0
12, 95040, Control_c, 10, 11, 87
12, 95040, Note_on_c, 10, 76, 100
12, 95100, Note_on_c, 10, 76, 0
12, 95160, Note_on_c, 10, 79, 100
12, 95190, Note_on_c, 10, 79, 0
12, 95220, Note_on_c, 10, 83, 100
12, 95250, Note_on_c, 10, 83, 0
12, 95280, Note_on_c, 10, 84, 100
12, 95340, Note_on_c, 10, 84, 0
12, 95400, Note_on_c, 10, 79, 100
12, 95430, Note_on_c, 10, 79, 0
12, 95460, Note_on_c, 10, 83, 100
12, 95490, Note_on_c, 10, 83, 0
12, 95520, Note_on_c, 10, 84, 100
12, 95580, Note_on_c, 10, 84, 0
12, 95640, Note_on_c, 10, 79, 100
12, 95670, Note_on_c, 10, 79, 0
12, 95700, Note_on_c, 10, 83, 100
12, 95730, Note_on_c, 10, 83, 0
12, 95760, Note_on_c, 10, 84, 100
12, 95820, Note_on_c, 10, 84, 0
12, 95880, Note_on_c, 10, 79, 100
12, 95910, Note_on_c, 10, 79, 0
12, 95940, Note_on_c, 10, 83, 100
12, 95970, Note_on_c, 10, 83, 0
12, 96000, Control_c, 10, 11, 102
12, 96000, Note_on_c, 10, 84, 100
12, 96045, Note_on_c, 10, 84, 0
12, 96060, Note_on_c, 10, 84, 100
12, 96105, Note_on_c, 10, 84, 0
12, 96120, Note_on_c, 10, 83, 100
12, 96165, Note_on_c, 10, 83, 0
12, 96180, Note_on_c, 10, 81, 100
12, 96225, Note_on_c, 10, 81, 0
12, 96240, Note_on_c, 10, 79, 100
12, 96285, Note_on_c, 10, 79, 0
12, 96300, Note_on_c, 10, 77, 100
12, 96345, Note_on_c, 10, 77, 0
12, 96360, Note_on_c, 10, 76, 100
12, 96405, Note_on_c, 10, 76, 0
12, 96420, Note_on_c, 10, 74, 100
12, 96465, Note_on_c, 10, 74, 0
12, 96480, Note_on_c, 10, 72, 100
12, 96525, Note_on_c, 10, 72, 0
12, 96540, Note_on_c, 10, 71, 100
12, 96585, Note_on_c, 10, 71, 0
12, 96600, Note_on_c, 10, 69, 100
12, 96645, Note_on_c, 10, 69, 0
12, 96660, Note_on_c, 10, 67, 100
12, 96705, Note_on_c, 10, 67, 0
12, 96720, Note_on_c, 10, 65, 100
12, 96765, Note_on_c, 10, 65, 0
12, 96780, Note_on_c, 10, 64, 100
12, 96825, Note_on_c, 10, 64, 0
12, 96840, Note_on_c, 10, 62, 100
12, 96885, Note_on_c, 10, 62, 0
12, 96900, Note_on_c, 10, 60, 100
12, 96945, Note_on_c, 10, 60, 0
12, 96960, Note_on_c, 10, 81, 100
12, 97005, Note_on_c, 10, 81, 0
12, 97020, Note_on_c, 10, 81, 100
12, 97065, Note_on_c, 10, 81, 0
12, 97080, Note_on_c, 10, 79, 100
12, 97125, Note_on_c, 10, 79, 0
12, 97140, Note_on_c, 10, 77, 100
12, 97185, Note_on_c, 10, 77, 0
12, 97200, Note_on_c, 10, 76, 100
12, 97245, Note_on_c, 10, 76, 0
12, 97260, Note_on_c, 10, 74, 100
12, 97305, Note_on_c, 10, 74, 0
12, 97320, Note_on_c, 10, 72, 100
12, 97365, Note_on_c, 10, 72, 0
12, 97380, Note_on_c, 10, 71, 100
12, 97425, Note_on_c, 10, 71, 0
12, 97440, Note_on_c, 10, 69, 100
12, 97485, Note_on_c, 10, 69, 0
12, 97500, Note_on_c, 10, 67, 100
12, 97545, Note_on_c, 10, 67, 0
12, 97560, Note_on_c, 10, 65, 100
12, 97605, Note_on_c, 10, 65, 0
12, 97620, Note_on_c, 10, 64, 100
12, 97665, Note_on_c, 10, 64, 0
12, 97680, Note_on_c, 10, 62, 100
12, 97725, Note_on_c, 10, 62, 0
12, 97740, Note_on_c, 10, 60, 100
12, 97785, Note_on_c, 10, 60, 0
12, 97800, Note_on_c, 10, 59, 100
12, 97845, Note_on_c, 10, 59, 0
12, 97860, Note_on_c, 10, 57, 100
12, 97905, Note_on_c, 10, 57, 0
12, 97920, Note_on_c, 10, 57, 100
12, 97965, Note_on_c, 10, 57, 0
12, 97980, Note_on_c, 10, 65, 100
12, 98025, Note_on_c, 10, 65, 0
12, 98040, Note_on_c, 10, 65, 100
12, 98085, Note_on_c, 10, 65, 0
12, 98100, Note_on_c, 10, 65, 100
12, 98145, Note_on_c, 10, 65, 0
12, 98160, Note_on_c, 10, 65, 100
12, 98205, Note_on_c, 10, 65, 0
12, 98220, Note_on_c, 10, 69, 100
12, 98265, Note_on_c, 10, 69, 0
12, 98280, Note_on_c, 10, 69, 100
12, 98325, Note_on_c, 10, 69, 0
12, 98340, Note_on_c, 10, 69, 100
12, 98385, Note_on_c, 10, 69, 0
12, 98400, Note_on_c, 10, 69, 100
12, 98445, Note_on_c, 10, 69, 0
12, 98460, Note_on_c, 10, 72, 100
12, 98505, Note_on_c, 10, 72, 0
12, 98520, Note_on_c, 10, 72, 100
12, 98565, Note_on_c, 10, 72, 0
12, 98580, Note_on_c, 10, 72, 100
12, 98625, Note_on_c, 10, 72, 0
12, 98640, Note_on_c, 10, 72, 100
12, 98685, Note_on_c, 10, 72, 0
12, 98700, Note_on_c, 10, 77, 100
12, 98745, Note_on_c, 10, 77, 0
12, 98760, Note_on_c, 10, 77, 100
12, 98805, Note_on_c, 10, 77, 0
12, 98820, Note_on_c, 10, 77, 100
12, 98865, Note_on_c, 10, 77, 0
12, 98880, Note_on_c, 10, 77, 100
12, 98925, Note_on_c, 10, 77, 0
12, 98940, Note_on_c, 10, 77, 100
12, 98985, Note_on_c, 10, 77, 0
12, 99000, Note_on_c, 10, 77, 100
12, 99045, Note_on_c, 10, 77, 0
12, 99060, Note_on_c, 10, 77, 100
12, 99105, Note_on_c, 10, 77, 0
12, 99120, Note_on_c, 10, 77, 100
12, 99165, Note_on_c, 10, 77, 0
12, 99180, Note_on_c, 10, 77, 100
12, 99225, Note_on_c, 10, 77, 0
12, 99240, Control_c, 10, 11, 122
12, 99240, Note_on_c, 10, 79, 100
12, 99257, Control_c, 10, 11, 119
12, 99275, Control_c, 10, 11, 116
12, 99285, Note_on_c, 10, 79, 0
12, 99293, Control_c, 10, 11, 113
12, 99300, Note_on_c, 10, 79, 100
12, 99311, Control_c, 10, 11, 110
12, 99329, Control_c, 10, 11, 107
12, 99345, Note_on_c, 10, 79, 0
12, 99347, Control_c, 10, 11, 104
12, 99360, Note_on_c, 10, 77, 100
12, 99405, Note_on_c, 10, 77, 0
12, 99420, Note_on_c, 10, 77, 100
12, 99465, Note_on_c, 10, 77, 0
12, 99480, Note_on_c, 10, 77, 100
12, 99525, Note_on_c, 10, 77, 0
12, 99540, Note_on_c, 10, 77, 100
12, 99585, Note_on_c, 10, 77, 0
12, 99600, Note_on_c, 10, 77, 100
12, 99645, Note_on_c, 10, 77, 0
12, 99660, Note_on_c, 10, 77, 100
12, 99705, Note_on_c, 10, 77, 0
12, 99720, Control_c, 10, 11, 122
12, 99720, Note_on_c, 10, 79, 100
12, 99737, Control_c, 10, 11, 119
12, 99755, Control_c, 10, 11, 116
12, 99765, Note_on_c, 10, 79, 0
12, 99773, Control_c, 10, 11, 113
12, 99780, Note_on_c, 10, 79, 100
12, 99791, Control_c, 10, 11, 110
12, 99809, Control_c, 10, 11, 107
12, 99825, Note_on_c, 10, 79, 0
12, 99827, Control_c, 10, 11, 104
12, 99840, Note_on_c, 10, 77, 100
12, 99885, Note_on_c, 10, 77, 0
12, 99900, Note_on_c, 10, 77, 100
12, 99945, Note_on_c, 10, 77, 0
12, 99960, Control_c, 10, 11, 122
12, 99960, Note_on_c, 10, 79, 100
12, 99977, Control_c, 10, 11, 119
12, 99995, Control_c, 10, 11, 116
12, 100005, Note_on_c, 10, 79, 0
12, 100013, Control_c, 10, 11, 113
12, 100020, Note_on_c, 10, 79, 100
12, 100031, Control_c, 10, 11, 110
12, 100049, Control_c, 10, 11, 107
12, 100065, Note_on_c, 10, 79, 0
12, 100067, Control_c, 10, 11, 104
12, 100080, Note_on_c, 10, 77, 100
12, 100125, Note_on_c, 10, 77, 0
12, 100140, Note_on_c, 10, 77, 100
12, 100185, Note_on_c, 10, 77, 0
12, 100200, Control_c, 10, 11, 122
12, 100200, Note_on_c, 10, 79, 100
12, 100217, Control_c, 10, 11, 119
12, 100235, Control_c, 10, 11, 116
12, 100245, Note_on_c, 10, 79, 0
12, 100253, Control_c, 10, 11, 113
12, 100260, Note_on_c, 10, 79, 100
12, 100271, Control_c, 10, 11, 110
12, 100289, Control_c, 10, 11, 107
12, 100305, Note_on_c, 10, 79, 0
12, 100307, Control_c, 10, 11, 104
12, 100320, Note_on_c, 10, 77, 100
12, 100365, Note_on_c, 10, 77, 0
12, 100380, Note_on_c, 10, 77, 100
12, 100425, Note_on_c, 10, 77, 0
12, 100440, Control_c, 10, 11, 122
12, 100440, Note_on_c, 10, 79, 100
12, 100457, Control_c, 10, 11, 119
12, 100475, Control_c, 10, 11, 116
12, 100485, Note_on_c, 10, 79, 0
12, 100493, Control_c, 10, 11, 113
12, 100500, Note_on_c, 10, 79, 100
12, 100511, Control_c, 10, 11, 110
12, 100529, Control_c, 10, 11, 107
12, 100545, Note_on_c, 10, 79, 0
12, 100547, Control_c, 10, 11, 104
12, 100560, Note_on_c, 10, 77, 100
12, 100605, Note_on_c, 10, 77, 0
12, 100620, Note_on_c, 10, 77, 100
12, 100665, Note_on_c, 10, 77, 0
12, 100680, Control_c, 10, 11, 122
12, 100680, Note_on_c, 10, 81, 100
12, 100697, Control_c, 10, 11, 119
12, 100715, Control_c, 10, 11, 116
12, 100725, Note_on_c, 10, 81, 0
12, 100733, Control_c, 10, 11, 113
12, 100740, Note_on_c, 10, 81, 100
12, 100751, Control_c, 10, 11, 110
12, 100769, Control_c, 10, 11, 107
12, 100785, Note_on_c, 10, 81, 0
12, 100787, Control_c, 10, 11, 104
12, 100800, Note_on_c, 10, 74, 100
12, 100845, Note_on_c, 10, 74, 0
12, 100860, Note_on_c, 10, 74, 100
12, 100905, Note_on_c, 10, 74, 0
12, 100920, Control_c, 10, 11, 122
12, 100920, Note_on_c, 10, 79, 100
12, 100937, Control_c, 10, 11, 119
12, 100955, Control_c, 10, 11, 116
12, 100965, Note_on_c, 10, 79, 0
12, 100973, Control_c, 10, 11, 113
12, 100980, Note_on_c, 10, 79, 100
12, 100991, Control_c, 10, 11, 110
12, 101009, Control_c, 10, 11, 107
12, 101025, Note_on_c, 10, 79, 0
12, 101027, Control_c, 10, 11, 104
12, 101040, Note_on_c, 10, 72, 100
12, 101085, Note_on_c, 10, 72, 0
12, 101100, Note_on_c, 10, 72, 100
12, 101145, Note_on_c, 10, 72, 0
12, 101160, Control_c, 10, 11, 122
12, 101160, Note_on_c, 10, 77, 100
12, 101177, Control_c, 10, 11, 119
12, 101195, Control_c, 10, 11, 116
12, 101205, Note_on_c, 10, 77, 0
12, 101213, Control_c, 10, 11, 113
12, 101220, Note_on_c, 10, 77, 100
12, 101231, Control_c, 10, 11, 110
12, 101249, Control_c, 10, 11, 107
12, 101265, Note_on_c, 10, 77, 0
12, 101267, Control_c, 10, 11, 104
12, 101280, Note_on_c, 10, 72, 100
12, 101325, Note_on_c, 10, 72, 0
12, 101340, Note_on_c, 10, 72, 100
12, 101385, Note_on_c, 10, 72, 0
12, 101400, Control_c, 10, 11, 122
12, 101400, Note_on_c, 10, 76, 100
12, 101417, Control_c, 10, 11, 119
12, 101435, Control_c, 10, 11, 116
12, 101445, Note_on_c, 10, 76, 0
12, 101453, Control_c, 10, 11, 113
12, 101460, Note_on_c, 10, 76, 100
12, 101471, Control_c, 10, 11, 110
12, 101489, Control_c, 10, 11, 107
12, 101505, Note_on_c, 10, 76, 0
12, 101507, Control_c, 10, 11, 104
12, 101520, Note_on_c, 10, 71, 100
12, 101565, Note_on_c, 10, 71, 0
12, 101580, Note_on_c, 10, 71, 100
12, 101625, Note_on_c, 10, 71, 0
12, 101640, Control_c, 10, 11, 122
12, 101640, Note_on_c, 10, 74, 100
12, 101657, Control_c, 10, 11, 119
12, 101675, Control_c, 10, 11, 116
12, 101685, Note_on_c, 10, 74, 0
12, 101693, Control_c, 10, 11, 113
12, 101700, Note_on_c, 10, 74, 100
12, 101711, Control_c, 10, 11, 110
12, 101729, Control_c, 10, 11, 107
12, 101745, Note_on_c, 10, 74, 0
12, 101747, Control_c, 10, 11, 104
12, 101760, Note_on_c, 10, 72, 100
12, 101880, Note_on_c, 10, 72, 0
12, 102120, Control_c, 10, 11, 87
12, 102120, Note_on_c, 10, 77, 100
12, 102240, Note_on_c, 10, 77, 0
12, 102240, Note_on_c, 10, 76, 100
12, 102360, Note_on_c, 10, 76, 0
12, 102600, Note_on_c, 10, 77, 100
12, 102720, Note_on_c, 10, 77, 0
12, 102720, Note_on_c, 10, 76, 100
12, 102840, Note_on_c, 10, 76, 0
12, 103080, Note_on_c, 10, 77, 100
12, 103200, Note_on_c, 10, 77, 0
12, 103200, Note_on_c, 10, 76, 100
12, 103320, Note_on_c, 10, 76, 0
12, 103560, Note_on_c, 10, 77, 100
12, 103680, Note_on_c, 10, 77, 0
12, 103680, Note_on_c, 10, 76, 100
12, 103785, Note_on_c, 10, 76, 0
12, 103800, Note_on_c, 10, 76, 100
12, 103845, Note_on_c, 10, 76, 0
12, 103860, Note_on_c, 10, 76, 100
12, 103905, Note_on_c, 10, 76, 0
12, 103920, Note_on_c, 10, 76, 100
12, 104040, Note_on_c, 10, 76, 0
12, 104160, Note_on_c, 10, 79, 100
12, 104265, Note_on_c, 10, 79, 0
12, 104280, Note_on_c, 10, 79, 100
12, 104325, Note_on_c, 10, 79, 0
12, 104340, Note_on_c, 10, 79, 100
12, 104385, Note_on_c, 10, 79, 0
12, 104400, Note_on_c, 10, 79, 100
12, 104520, Note_on_c, 10, 79, 0
12, 104640, Note_on_c, 10, 84, 100
12, 104745, Note_on_c, 10, 84, 0
12, 104760, Note_on_c, 10, 84, 100
12, 104805, Note_on_c, 10, 84, 0
12, 104820, Note_on_c, 10, 84, 100
12, 104865, Note_on_c, 10, 84, 0
12, 104880, Note_on_c, 10, 84, 100
12, 104985, Note_on_c, 10, 84, 0
12, 105000, Note_on_c, 10, 84, 100
12, 105045, Note_on_c, 10, 84, 0
12, 105060, Note_on_c, 10, 84, 100
12, 105105, Note_on_c, 10, 84, 0
12, 105120, Note_on_c, 10, 84, 100
12, 105225, Note_on_c, 10, 84, 0
12, 105240, Note_on_c, 10, 84, 100
12, 105285, Note_on_c, 10, 84, 0
12, 105300, Note_on_c, 10, 84, 100
12, 105345, Note_on_c, 10, 84, 0
12, 105360, Note_on_c, 10, 84, 100
12, 105465, Note_on_c, 10, 84, 0
12, 105480, Note_on_c, 10, 84, 100
12, 105525, Note_on_c, 10, 84, 0
12, 105540, Note_on_c, 10, 84, 100
12, 105585, Note_on_c, 10, 84, 0
12, 105600, Note_on_c, 10, 88, 100
12, 105705, Note_on_c, 10, 88, 0
12, 105720, Note_on_c, 10, 88, 100
12, 105765, Note_on_c, 10, 88, 0
12, 105780, Note_on_c, 10, 88, 100
12, 105825, Note_on_c, 10, 88, 0
12, 105840, Note_on_c, 10, 88, 100
12, 105945, Note_on_c, 10, 88, 0
12, 105960, Note_on_c, 10, 88, 100
12, 106005, Note_on_c, 10, 88, 0
12, 106020, Note_on_c, 10, 88, 100
12, 106065, Note_on_c, 10, 88, 0
12, 106080, Note_on_c, 10, 88, 100
12, 106185, Note_on_c, 10, 88, 0
12, 106200, Note_on_c, 10, 88, 100
12, 106245, Note_on_c, 10, 88, 0
12, 106260, Note_on_c, 10, 88, 100
12, 106305, Note_on_c, 10, 88, 0
12, 106320, Note_on_c, 10, 88, 100
12, 106425, Note_on_c, 10, 88, 0
12, 106440, Note_on_c, 10, 88, 100
12, 106485, Note_on_c, 10, 88, 0
12, 106500, Note_on_c, 10, 88, 100
12, 106545, Note_on_c, 10, 88, 0
12, 106560, Note_on_c, 10, 87, 100
12, 106680, Note_on_c, 10, 87, 0
12, 106920, Note_on_c, 10, 88, 100
12, 107040, Note_on_c, 10, 88, 0
12, 107040, Note_on_c, 10, 87, 100
12, 107160, Note_on_c, 10, 87, 0
12, 107400, Note_on_c, 10, 88, 100
12, 107520, Note_on_c, 10, 88, 0
12, 107520, Note_on_c, 10, 87, 100
12, 107640, Note_on_c, 10, 87, 0
12, 107880, Note_on_c, 10, 88, 100
12, 108000, Note_on_c, 10, 88, 0
12, 108000, Note_on_c, 10, 87, 100
12, 108120, Note_on_c, 10, 87, 0
12, 108360, Note_on_c, 10, 88, 100
12, 108480, Note_on_c, 10, 88, 0
12, 108480, Note_on_c, 10, 87, 100
12, 108585, Note_on_c, 10, 87, 0
12, 108600, Note_on_c, 10, 83, 100
12, 108600, Note_on_c, 10, 71, 100
12, 108645, Note_on_c, 10, 71, 0
12, 108645, Note_on_c, 10, 83, 0
12, 108660, Note_on_c, 10, 71, 100
12, 108660, Note_on_c, 10, 83, 100
12, 108705, Note_on_c, 10, 83, 0
12, 108705, Note_on_c, 10, 71, 0
12, 108720, Note_on_c, 10, 83, 100
12, 108720, Note_on_c, 10, 71, 100
12, 108825, Note_on_c, 10, 71, 0
12, 108825, Note_on_c, 10, 83, 0
12, 108840, Note_on_c, 10, 83, 100
12, 108840, Note_on_c, 10, 71, 100
12, 108885, Note_on_c, 10, 71, 0
12, 108885, Note_on_c, 10, 83, 0
12, 108900, Note_on_c, 10, 83, 100
12, 108900, Note_on_c, 10, 71, 100
12, 108945, Note_on_c, 10, 71, 0
12, 108945, Note_on_c, 10, 83, 0
12, 108960, Note_on_c, 10, 83, 100
12, 108960, Note_on_c, 10, 71, 100
12, 109065, Note_on_c, 10, 71, 0
12, 109065, Note_on_c, 10, 83, 0
12, 109080, Note_on_c, 10, 83, 100
12, 109080, Note_on_c, 10, 71, 100
12, 109125, Note_on_c, 10, 71, 0
12, 109125, Note_on_c, 10, 83, 0
12, 109140, Note_on_c, 10, 83, 100
12, 109140, Note_on_c, 10, 71, 100
12, 109185, Note_on_c, 10, 71, 0
12, 109185, Note_on_c, 10, 83, 0
12, 109200, Note_on_c, 10, 71, 100
12, 109200, Note_on_c, 10, 83, 100
12, 109305, Note_on_c, 10, 83, 0
12, 109305, Note_on_c, 10, 71, 0
12, 109320, Note_on_c, 10, 83, 100
12, 109320, Note_on_c, 10, 71, 100
12, 109365, Note_on_c, 10, 71, 0
12, 109365, Note_on_c, 10, 83, 0
12, 109380, Note_on_c, 10, 83, 100
12, 109380, Note_on_c, 10, 71, 100
12, 109425, Note_on_c, 10, 71, 0
12, 109425, Note_on_c, 10, 83, 0
12, 109440, Note_on_c, 10, 83, 100
12, 109440, Note_on_c, 10, 71, 100
12, 109560, Note_on_c, 10, 71, 0
12, 109560, Note_on_c, 10, 83, 0
12, 110400, Control_c, 10, 11, 102
12, 110400, Note_on_c, 10, 76, 100
12, 110550, Note_on_c, 10, 76, 0
12, 110580, Note_on_c, 10, 71, 100
12, 110625, Note_on_c, 10, 71, 0
12, 110640, Note_on_c, 10, 71, 100
12, 110700, Note_on_c, 10, 71, 0
12, 110880, Control_c, 10, 11, 122
12, 110880, Note_on_c, 10, 80, 100
12, 110897, Control_c, 10, 11, 119
12, 110915, Control_c, 10, 11, 116
12, 110933, Control_c, 10, 11, 113
12, 110951, Control_c, 10, 11, 110
12, 110969, Control_c, 10, 11, 107
12, 110987, Control_c, 10, 11, 104
12, 111030, Note_on_c, 10, 80, 0
12, 111060, Note_on_c, 10, 76, 100
12, 111105, Note_on_c, 10, 76, 0
12, 111120, Note_on_c, 10, 76, 100
12, 111180, Note_on_c, 10, 76, 0
12, 111360, Control_c, 10, 11, 122
12, 111360, Note_on_c, 10, 83, 100
12, 111377, Control_c, 10, 11, 119
12, 111395, Control_c, 10, 11, 116
12, 111413, Control_c, 10, 11, 113
12, 111431, Control_c, 10, 11, 110
12, 111449, Control_c, 10, 11, 107
12, 111467, Control_c, 10, 11, 104
12, 111510, Note_on_c, 10, 83, 0
12, 111540, Note_on_c, 10, 80, 100
12, 111585, Note_on_c, 10, 80, 0
12, 111600, Note_on_c, 10, 80, 100
12, 111660, Note_on_c, 10, 80, 0
12, 111720, Note_on_c, 10, 88, 100
12, 111720, Note_on_c, 10, 71, 100
12, 111720, Note_on_c, 10, 80, 100
12, 111780, Note_on_c, 10, 80, 0
12, 111780, Note_on_c, 10, 71, 0
12, 111780, Note_on_c, 10, 88, 0
12, 111840, Note_on_c, 10, 78, 100
12, 111840, Note_on_c, 10, 87, 100
12, 111840, Note_on_c, 10, 71, 100
12, 111900, Note_on_c, 10, 71, 0
12, 111900, Note_on_c, 10, 87, 0
12, 111900, Note_on_c, 10, 78, 0
12, 116640, Control_c, 10, 11, 27
12, 116640, Note_on_c, 10, 59, 61
12, 116652, Control_c, 10, 11, 30
12, 116664, Control_c, 10, 11, 33
12, 116676, Control_c, 10, 11, 36
12, 116688, Control_c, 10, 11, 39
12, 116700, Control_c, 10, 11, 42
12, 116712, Control_c, 10, 11, 45
12, 116720, Note_on_c, 10, 59, 0
12, 116720, Note_on_c, 10, 63, 68
12, 116800, Note_on_c, 10, 63, 0
12, 116800, Note_on_c, 10, 66, 71
12, 116880, Note_on_c, 10, 66, 0
12, 116880, Note_on_c, 10, 69, 70
12, 116960, Note_on_c, 10, 69, 0
12, 116960, Note_on_c, 10, 68, 70
12, 117040, Note_on_c, 10, 68, 0
12, 117040, Note_on_c, 10, 66, 69
12, 117120, Note_on_c, 10, 66, 0
12, 117120, Note_on_c, 10, 59, 68
12, 117200, Note_on_c, 10, 59, 0
12, 117200, Note_on_c, 10, 64, 68
12, 117280, Note_on_c, 10, 64, 0
12, 117280, Note_on_c, 10, 68, 68
12, 117360, Note_on_c, 10, 68, 0
12, 117360, Note_on_c, 10, 71, 67
12, 117440, Note_on_c, 10, 71, 0
12, 117440, Note_on_c, 10, 69, 67
12, 117520, Note_on_c, 10, 69, 0
12, 117520, Note_on_c, 10, 68, 66
12, 117600, Note_on_c, 10, 68, 0
12, 117600, Note_on_c, 10, 59, 65
12, 117680, Note_on_c, 10, 59, 0
12, 117680, Note_on_c, 10, 64, 65
12, 117760, Note_on_c, 10, 64, 0
12, 117760, Note_on_c, 10, 68, 64
12, 117840, Note_on_c, 10, 68, 0
12, 117840, Note_on_c, 10, 71, 64
12, 117920, Note_on_c, 10, 71, 0
12, 117920, Note_on_c, 10, 69, 63
12, 118000, Note_on_c, 10, 69, 0
12, 118000, Note_on_c, 10, 68, 63
12, 118080, Note_on_c, 10, 68, 0
12, 118080, Note_on_c, 10, 59, 62
12, 118160, Note_on_c, 10, 59, 0
12, 118160, Note_on_c, 10, 66, 61
12, 118240, Note_on_c, 10, 66, 0
12, 118240, Note_on_c, 10, 69, 61
12, 118320, Note_on_c, 10, 69, 0
12, 118320, Note_on_c, 10, 71, 60
12, 118400, Note_on_c, 10, 71, 0
12, 118400, Note_on_c, 10, 69, 60
12, 118480, Note_on_c, 10, 69, 0
12, 118480, Note_on_c, 10, 66, 60
12, 118560, Note_on_c, 10, 66, 0
12, 118560, Note_on_c, 10, 71, 59
12, 118640, Note_on_c, 10, 71, 0
12, 118640, Note_on_c, 10, 69, 58
12, 118720, Note_on_c, 10, 69, 0
12, 118720, Note_on_c, 10, 66, 58
12, 118800, Note_on_c, 10, 66, 0
12, 118800, Note_on_c, 10, 71, 57
12, 118880, Note_on_c, 10, 71, 0
12, 118880, Note_on_c, 10, 69, 56
12, 118960, Note_on_c, 10, 69, 0
12, 118960, Note_on_c, 10, 66, 56
12, 118985, Control_c, 10, 11, 47
12, 118988, Control_c, 10, 11, 44
12, 118992, Control_c, 10, 11, 41
12, 118996, Control_c, 10, 11, 38
12, 119000, Control_c, 10, 11, 35
12, 119003, Control_c, 10, 11, 32
12, 119007, Control_c, 10, 11, 29
12, 119010, Note_on_c, 10, 66, 0
12, 119040, Control_c, 10, 11, 87
12, 119040, Note_on_c, 10, 60, 100
12, 119190, Note_on_c, 10, 60, 0
12, 119220, Note_on_c, 10, 59, 100
12, 119265, Note_on_c, 10, 59, 0
12, 119280, Note_on_c, 10, 59, 100
12, 119400, Note_on_c, 10, 59, 0
12, 119520, Note_on_c, 10, 60, 100
12, 119670, Note_on_c, 10, 60, 0
12, 119700, Note_on_c, 10, 59, 100
12, 119745, Note_on_c, 10, 59, 0
12, 119760, Note_on_c, 10, 59, 100
12, 119880, Note_on_c, 10, 59, 0
12, 120000, Note_on_c, 10, 60, 100
12, 120060, Note_on_c, 10, 60, 0
12, 120120, Note_on_c, 10, 59, 100
12, 120180, Note_on_c, 10, 59, 0
12, 120240, Note_on_c, 10, 60, 100
12, 120300, Note_on_c, 10, 60, 0
12, 120360, Note_on_c, 10, 59, 100
12, 120420, Note_on_c, 10, 59, 0
12, 120480, Note_on_c, 10, 60, 100
12, 120540, Note_on_c, 10, 60, 0
12, 120600, Note_on_c, 10, 59, 100
12, 120660, Note_on_c, 10, 59, 0
12, 120720, Note_on_c, 10, 60, 100
12, 120780, Note_on_c, 10, 60, 0
12, 120840, Note_on_c, 10, 59, 100
12, 120900, Note_on_c, 10, 59, 0
12, 120960, Note_on_c, 10, 64, 100
12, 121020, Note_on_c, 10, 64, 0
12, 121080, Note_on_c, 10, 63, 100
12, 121140, Note_on_c, 10, 63, 0
12, 121200, Note_on_c, 10, 64, 100
12, 121260, Note_on_c, 10, 64, 0
12, 121320, Note_on_c, 10, 63, 100
12, 121380, Note_on_c, 10, 63, 0
12, 121440, Note_on_c, 10, 64, 100
12, 121500, Note_on_c, 10, 64, 0
12, 121560, Note_on_c, 10, 63, 100
12, 121620, Note_on_c, 10, 63, 0
12, 121680, Note_on_c, 10, 64, 100
12, 121740, Note_on_c, 10, 64, 0
12, 121800, Note_on_c, 10, 63, 100
12, 121860, Note_on_c, 10, 63, 0
12, 121920, Note_on_c, 10, 72, 100
12, 121980, Note_on_c, 10, 72, 0
12, 122040, Note_on_c, 10, 71, 100
12, 122100, Note_on_c, 10, 71, 0
12, 122160, Note_on_c, 10, 76, 100
12, 122220, Note_on_c, 10, 76, 0
12, 122280, Note_on_c, 10, 75, 100
12, 122340, Note_on_c, 10, 75, 0
12, 122400, Note_on_c, 10, 84, 100
12, 122460, Note_on_c, 10, 84, 0
12, 122520, Note_on_c, 10, 83, 100
12, 122580, Note_on_c, 10, 83, 0
12, 122640, Note_on_c, 10, 85, 100
12, 122700, Note_on_c, 10, 85, 0
12, 122760, Note_on_c, 10, 83, 100
12, 122820, Note_on_c, 10, 83, 0
12, 122880, Note_on_c, 10, 85, 100
12, 122940, Note_on_c, 10, 85, 0
12, 123000, Note_on_c, 10, 83, 100
12, 123060, Note_on_c, 10, 83, 0
12, 123120, Note_on_c, 10, 85, 100
12, 123180, Note_on_c, 10, 85, 0
12, 123240, Note_on_c, 10, 83, 100
12, 123300, Note_on_c, 10, 83, 0
12, 123360, Note_on_c, 10, 85, 100
12, 123420, Note_on_c, 10, 85, 0
12, 123480, Note_on_c, 10, 83, 100
12, 123540, Note_on_c, 10, 83, 0
12, 123600, Note_on_c, 10, 85, 100
12, 123660, Note_on_c, 10, 85, 0
12, 123720, Note_on_c, 10, 83, 100
12, 123780, Note_on_c, 10, 83, 0
12, 123840, Note_on_c, 10, 83, 100
12, 123920, Note_on_c, 10, 83, 0
12, 123920, Note_on_c, 10, 80, 100
12, 123985, Note_on_c, 10, 80, 0
12, 124000, Note_on_c, 10, 76, 100
12, 124040, Note_on_c, 10, 76, 0
12, 124080, Note_on_c, 10, 71, 100
12, 124160, Note_on_c, 10, 71, 0
12, 124160, Note_on_c, 10, 80, 100
12, 124225, Note_on_c, 10, 80, 0
12, 124240, Note_on_c, 10, 76, 100
12, 124280, Note_on_c, 10, 76, 0
12, 124320, Note_on_c, 10, 83, 100
12, 124400, Note_on_c, 10, 83, 0
12, 124400, Note_on_c, 10, 80, 100
12, 124465, Note_on_c, 10, 80, 0
12, 124480, Note_on_c, 10, 76, 100
12, 124520, Note_on_c, 10, 76, 0
12, 124560, Note_on_c, 10, 71, 100
12, 124640, Note_on_c, 10, 71, 0
12, 124640, Note_on_c, 10, 80, 100
12, 124705, Note_on_c, 10, 80, 0
12, 124720, Note_on_c, 10, 76, 100
12, 124760, Note_on_c, 10, 76, 0
12, 124800, Note_on_c, 10, 83, 100
12, 124880, Note_on_c, 10, 83, 0
12, 124880, Note_on_c, 10, 81, 100
12, 124945, Note_on_c, 10, 81, 0
12, 124960, Note_on_c, 10, 78, 100
12, 125000, Note_on_c, 10, 78, 0
12, 125040, Note_on_c, 10, 81, 100
12, 125120, Note_on_c, 10, 81, 0
12, 125120, Note_on_c, 10, 78, 100
12, 125185, Note_on_c, 10, 78, 0
12, 125200, Note_on_c, 10, 75, 100
12, 125240, Note_on_c, 10, 75, 0
12, 125280, Note_on_c, 10, 78, 100
12, 125360, Note_on_c, 10, 78, 0
12, 125360, Note_on_c, 10, 75, 100
12, 125425, Note_on_c, 10, 75, 0
12, 125440, Note_on_c, 10, 71, 100
12, 125480, Note_on_c, 10, 71, 0
12, 125520, Note_on_c, 10, 78, 100
12, 125600, Note_on_c, 10, 78, 0
12, 125600, Note_on_c, 10, 75, 100
12, 125665, Note_on_c, 10, 75, 0
12, 125680, Note_on_c, 10, 71, 100
12, 125720, Note_on_c, 10, 71, 0
12, 125760, Control_c, 10, 11, 47
12, 125760, Note_on_c, 10, 83, 100
12, 125840, Note_on_c, 10, 83, 0
12, 125840, Note_on_c, 10, 80, 100
12, 125905, Note_on_c, 10, 80, 0
12, 125920, Note_on_c, 10, 76, 100
12, 125960, Note_on_c, 10, 76, 0
12, 126000, Note_on_c, 10, 71, 100
12, 126080, Note_on_c, 10, 71, 0
12, 126080, Note_on_c, 10, 80, 100
12, 126145, Note_on_c, 10, 80, 0
12, 126160, Note_on_c, 10, 76, 100
12, 126200, Note_on_c, 10, 76, 0
12, 126240, Note_on_c, 10, 83, 100
12, 126320, Note_on_c, 10, 83, 0
12, 126320, Note_on_c, 10, 80, 100
12, 126385, Note_on_c, 10, 80, 0
12, 126400, Note_on_c, 10, 76, 100
12, 126440, Note_on_c, 10, 76, 0
12, 126480, Note_on_c, 10, 71, 100
12, 126560, Note_on_c, 10, 71, 0
12, 126560, Note_on_c, 10, 80, 100
12, 126625, Note_on_c, 10, 80, 0
12, 126640, Note_on_c, 10, 76, 100
12, 126680, Note_on_c, 10, 76, 0
12, 126720, Note_on_c, 10, 83, 100
12, 126800, Note_on_c, 10, 83, 0
12, 126800, Note_on_c, 10, 81, 100
12, 126865, Note_on_c, 10, 81, 0
12, 126880, Note_on_c, 10, 78, 100
12, 126920, Note_on_c, 10, 78, 0
12, 126960, Note_on_c, 10, 81, 100
12, 127040, Note_on_c, 10, 81, 0
12, 127040, Note_on_c, 10, 78, 100
12, 127105, Note_on_c, 10, 78, 0
12, 127120, Note_on_c, 10, 75, 100
12, 127160, Note_on_c, 10, 75, 0
12, 127200, Note_on_c, 10, 71, 100
12, 127280, Note_on_c, 10, 71, 0
12, 127280, Note_on_c, 10, 78, 100
12, 127345, Note_on_c, 10, 78, 0
12, 127360, Note_on_c, 10, 75, 100
12, 127400, Note_on_c, 10, 75, 0
12, 127440, Note_on_c, 10, 81, 100
12, 127520, Note_on_c, 10, 81, 0
12, 127520, Note_on_c, 10, 78, 100
12, 127585, Note_on_c, 10, 78, 0
12, 127600, Note_on_c, 10, 75, 100
12, 127640, Note_on_c, 10, 75, 0
12, 127680, Control_c, 10, 11, 47
12, 127680, Note_on_c, 10, 83, 100
12, 127760, Note_on_c, 10, 83, 0
12, 127760, Note_on_c, 10, 80, 100
12, 127776, Control_c, 10, 11, 48
12, 127825, Note_on_c, 10, 80, 0
12, 127840, Note_on_c, 10, 76, 100
12, 127872, Control_c, 10, 11, 49
12, 127880, Note_on_c, 10, 76, 0
12, 127920, Note_on_c, 10, 80, 100
12, 127968, Control_c, 10, 11, 50
12, 128000, Note_on_c, 10, 80, 0
12, 128000, Note_on_c, 10, 76, 100
12, 128064, Control_c, 10, 11, 51
12, 128065, Note_on_c, 10, 76, 0
12, 128080, Note_on_c, 10, 74, 100
12, 128120, Note_on_c, 10, 74, 0
12, 128160, Control_c, 10, 11, 52
12, 128160, Note_on_c, 10, 83, 100
12, 128240, Note_on_c, 10, 83, 0
12, 128240, Note_on_c, 10, 80, 100
12, 128256, Control_c, 10, 11, 53
12, 128305, Note_on_c, 10, 80, 0
12, 128320, Note_on_c, 10, 76, 100
12, 128352, Control_c, 10, 11, 54
12, 128360, Note_on_c, 10, 76, 0
12, 128400, Note_on_c, 10, 80, 100
12, 128448, Control_c, 10, 11, 55
12, 128480, Note_on_c, 10, 80, 0
12, 128480, Note_on_c, 10, 76, 100
12, 128544, Control_c, 10, 11, 56
12, 128545, Note_on_c, 10, 76, 0
12, 128560, Note_on_c, 10, 74, 100
12, 128600, Note_on_c, 10, 74, 0
12, 128640, Control_c, 10, 11, 57
12, 128640, Note_on_c, 10, 84, 100
12, 128720, Note_on_c, 10, 84, 0
12, 128720, Note_on_c, 10, 81, 100
12, 128736, Control_c, 10, 11, 58
12, 128785, Note_on_c, 10, 81, 0
12, 128800, Note_on_c, 10, 76, 100
12, 128832, Control_c, 10, 11, 59
12, 128840, Note_on_c, 10, 76, 0
12, 128880, Note_on_c, 10, 81, 100
12, 128928, Control_c, 10, 11, 60
12, 128960, Note_on_c, 10, 81, 0
12, 128960, Note_on_c, 10, 76, 100
12, 129024, Control_c, 10, 11, 61
12, 129025, Note_on_c, 10, 76, 0
12, 129040, Note_on_c, 10, 72, 100
12, 129080, Note_on_c, 10, 72, 0
12, 129120, Control_c, 10, 11, 62
12, 129120, Note_on_c, 10, 84, 100
12, 129200, Note_on_c, 10, 84, 0
12, 129200, Note_on_c, 10, 81, 100
12, 129216, Control_c, 10, 11, 63
12, 129265, Note_on_c, 10, 81, 0
12, 129280, Note_on_c, 10, 76, 100
12, 129312, Control_c, 10, 11, 64
12, 129320, Note_on_c, 10, 76, 0
12, 129360, Note_on_c, 10, 81, 100
12, 129408, Control_c, 10, 11, 65
12, 129440, Note_on_c, 10, 81, 0
12, 129440, Note_on_c, 10, 76, 100
12, 129504, Control_c, 10, 11, 66
12, 129505, Note_on_c, 10, 76, 0
12, 129520, Note_on_c, 10, 72, 100
12, 129560, Note_on_c, 10, 72, 0
12, 129600, Control_c, 10, 11, 67
12, 129600, Note_on_c, 10, 84, 100
12, 129680, Note_on_c, 10, 84, 0
12, 129680, Note_on_c, 10, 81, 100
12, 129696, Control_c, 10, 11, 68
12, 129745, Note_on_c, 10, 81, 0
12, 129760, Note_on_c, 10, 78, 100
12, 129792, Control_c, 10, 11, 69
12, 129800, Note_on_c, 10, 78, 0
12, 129840, Note_on_c, 10, 81, 100
12, 129888, Control_c, 10, 11, 70
12, 129920, Note_on_c, 10, 81, 0
12, 129920, Note_on_c, 10, 78, 100
12, 129984, Control_c, 10, 11, 71
12, 129985, Note_on_c, 10, 78, 0
12, 130000, Note_on_c, 10, 75, 100
12, 130040, Note_on_c, 10, 75, 0
12, 130080, Control_c, 10, 11, 72
12, 130080, Note_on_c, 10, 84, 100
12, 130160, Note_on_c, 10, 84, 0
12, 130160, Note_on_c, 10, 81, 100
12, 130176, Control_c, 10, 11, 73
12, 130225, Note_on_c, 10, 81, 0
12, 130240, Note_on_c, 10, 78, 100
12, 130272, Control_c, 10, 11, 74
12, 130280, Note_on_c, 10, 78, 0
12, 130320, Note_on_c, 10, 81, 100
12, 130368, Control_c, 10, 11, 75
12, 130400, Note_on_c, 10, 81, 0
12, 130400, Note_on_c, 10, 78, 100
12, 130464, Control_c, 10, 11, 76
12, 130465, Note_on_c, 10, 78, 0
12, 130480, Note_on_c, 10, 75, 100
12, 130520, Note_on_c, 10, 75, 0
12, 130560, Control_c, 10, 11, 77
12, 130560, Note_on_c, 10, 84, 100
12, 130640, Note_on_c, 10, 84, 0
12, 130640, Note_on_c, 10, 81, 100
12, 130656, Control_c, 10, 11, 78
12, 130705, Note_on_c, 10, 81, 0
12, 130720, Note_on_c, 10, 78, 100
12, 130752, Control_c, 10, 11, 79
12, 130760, Note_on_c, 10, 78, 0
12, 130800, Note_on_c, 10, 81, 100
12, 130848, Control_c, 10, 11, 80
12, 130880, Note_on_c, 10, 81, 0
12, 130880, Note_on_c, 10, 78, 100
12, 130944, Control_c, 10, 11, 81
12, 130945, Note_on_c, 10, 78, 0
12, 130960, Note_on_c, 10, 75, 100
12, 131000, Note_on_c, 10, 75, 0
12, 131040, Control_c, 10, 11, 82
12, 131040, Note_on_c, 10, 84, 100
12, 131120, Note_on_c, 10, 84, 0
12, 131120, Note_on_c, 10, 81, 100
12, 131136, Control_c, 10, 11, 83
12, 131185, Note_on_c, 10, 81, 0
12, 131200, Note_on_c, 10, 78, 100
12, 131232, Control_c, 10, 11, 84
12, 131240, Note_on_c, 10, 78, 0
12, 131280, Note_on_c, 10, 81, 100
12, 131328, Control_c, 10, 11, 85
12, 131360, Note_on_c, 10, 81, 0
12, 131360, Note_on_c, 10, 78, 100
12, 131424, Control_c, 10, 11, 86
12, 131425, Note_on_c, 10, 78, 0
12, 131440, Note_on_c, 10, 75, 100
12, 131480, Note_on_c, 10, 75, 0
12, 131520, Control_c, 10, 11, 87
12, 131520, Note_on_c, 10, 83, 100
12, 131600, Note_on_c, 10, 83, 0
12, 131600, Note_on_c, 10, 81, 100
12, 131665, Note_on_c, 10, 81, 0
12, 131680, Note_on_c, 10, 78, 100
12, 131720, Note_on_c, 10, 78, 0
12, 131760, Note_on_c, 10, 81, 100
12, 131840, Note_on_c, 10, 81, 0
12, 131840, Note_on_c, 10, 78, 100
12, 131905, Note_on_c, 10, 78, 0
12, 131920, Note_on_c, 10, 75, 100
12, 131960, Note_on_c, 10, 75, 0
12, 132000, Note_on_c, 10, 83, 100
12, 132080, Note_on_c, 10, 83, 0
12, 132080, Note_on_c, 10, 81, 100
12, 132145, Note_on_c, 10, 81, 0
12, 132160, Note_on_c, 10, 78, 100
12, 132200, Note_on_c, 10, 78, 0
12, 132240, Note_on_c, 10, 81, 100
12, 132320, Note_on_c, 10, 81, 0
12, 132320, Note_on_c, 10, 78, 100
12, 132385, Note_on_c, 10, 78, 0
12, 132400, Note_on_c, 10, 75, 100
12, 132440, Note_on_c, 10, 75, 0
12, 132480, Control_c, 10, 11, 87
12, 132480, Note_on_c, 10, 83, 100
12, 132528, Control_c, 10, 11, 88
12, 132560, Note_on_c, 10, 83, 0
12, 132560, Note_on_c, 10, 81, 100
12, 132576, Control_c, 10, 11, 89
12, 132624, Control_c, 10, 11, 90
12, 132625, Note_on_c, 10, 81, 0
12, 132640, Note_on_c, 10, 78, 100
12, 132672, Control_c, 10, 11, 91
12, 132680, Note_on_c, 10, 78, 0
12, 132720, Control_c, 10, 11, 92
12, 132720, Note_on_c, 10, 81, 100
12, 132768, Control_c, 10, 11, 93
12, 132800, Note_on_c, 10, 81, 0
12, 132800, Note_on_c, 10, 78, 100
12, 132816, Control_c, 10, 11, 94
12, 132864, Control_c, 10, 11, 95
12, 132865, Note_on_c, 10, 78, 0
12, 132880, Note_on_c, 10, 75, 100
12, 132912, Control_c, 10, 11, 96
12, 132920, Note_on_c, 10, 75, 0
12, 132960, Control_c, 10, 11, 97
12, 132960, Note_on_c, 10, 83, 100
12, 133008, Control_c, 10, 11, 98
12, 133040, Note_on_c, 10, 83, 0
12, 133040, Note_on_c, 10, 81, 100
12, 133056, Control_c, 10, 11, 99
12, 133104, Control_c, 10, 11, 100
12, 133105, Note_on_c, 10, 81, 0
12, 133120, Note_on_c, 10, 78, 100
12, 133152, Control_c, 10, 11, 101
12, 133160, Note_on_c, 10, 78, 0
12, 133200, Control_c, 10, 11, 102
12, 133200, Note_on_c, 10, 81, 100
12, 133248, Control_c, 10, 11, 103
12, 133280, Note_on_c, 10, 81, 0
12, 133280, Note_on_c, 10, 78, 100
12, 133296, Control_c, 10, 11, 104
12, 133344, Control_c, 10, 11, 105
12, 133345, Note_on_c, 10, 78, 0
12, 133360, Note_on_c, 10, 75, 100
12, 133392, Control_c, 10, 11, 106
12, 133400, Note_on_c, 10, 75, 0
12, 133440, Control_c, 10, 11, 107
12, 133440, Note_on_c, 10, 83, 100
12, 133520, Note_on_c, 10, 83, 0
12, 133520, Note_on_c, 10, 81, 100
12, 133585, Note_on_c, 10, 81, 0
12, 133600, Note_on_c, 10, 78, 100
12, 133640, Note_on_c, 10, 78, 0
12, 133680, Note_on_c, 10, 81, 100
12, 133760, Note_on_c, 10, 81, 0
12, 133760, Note_on_c, 10, 78, 100
12, 133825, Note_on_c, 10, 78, 0
12, 133840, Note_on_c, 10, 75, 100
12, 133880, Note_on_c, 10, 75, 0
12, 133920, Note_on_c, 10, 83, 100
12, 134000, Note_on_c, 10, 83, 0
12, 134000, Note_on_c, 10, 81, 100
12, 134065, Note_on_c, 10, 81, 0
12, 134080, Note_on_c, 10, 78, 100
12, 134120, Note_on_c, 10, 78, 0
12, 134160, Note_on_c, 10, 81, 100
12, 134240, Note_on_c, 10, 81, 0
12, 134240, Note_on_c, 10, 78, 100
12, 134305, Note_on_c, 10, 78, 0
12, 134320, Note_on_c, 10, 75, 100
12, 134360, Note_on_c, 10, 75, 0
12, 134400, Note_on_c, 10, 83, 100
12, 134480, Note_on_c, 10, 83, 0
12, 134480, Note_on_c, 10, 81, 100
12, 134545, Note_on_c, 10, 81, 0
12, 134560, Note_on_c, 10, 78, 100
12, 134600, Note_on_c, 10, 78, 0
12, 134640, Note_on_c, 10, 81, 100
12, 134720, Note_on_c, 10, 81, 0
12, 134720, Note_on_c, 10, 78, 100
12, 134785, Note_on_c, 10, 78, 0
12, 134800, Note_on_c, 10, 75, 100
12, 134840, Note_on_c, 10, 75, 0
12, 134880, Note_on_c, 10, 83, 100
12, 134960, Note_on_c, 10, 83, 0
12, 134960, Note_on_c, 10, 81, 100
12, 135025, Note_on_c, 10, 81, 0
12, 135040, Note_on_c, 10, 78, 100
12, 135080, Note_on_c, 10, 78, 0
12, 135120, Note_on_c, 10, 81, 100
12, 135200, Note_on_c, 10, 81, 0
12, 135200, Note_on_c, 10, 78, 100
12, 135265, Note_on_c, 10, 78, 0
12, 135280, Note_on_c, 10, 75, 100
12, 135320, Note_on_c, 10, 75, 0
12, 135360, Control_c, 10, 11, 127
12, 135360, Note_on_c, 10, 80, 100
12, 135377, Control_c, 10, 11, 125
12, 135395, Control_c, 10, 11, 123
12, 135405, Note_on_c, 10, 80, 0
12, 135413, Control_c, 10, 11, 121
12, 135420, Note_on_c, 10, 80, 100
12, 135431, Control_c, 10, 11, 119
12, 135449, Control_c, 10, 11, 117
12, 135465, Note_on_c, 10, 80, 0
12, 135467, Control_c, 10, 11, 115
12, 135480, Note_on_c, 10, 78, 100
12, 135485, Control_c, 10, 11, 113
12, 135503, Control_c, 10, 11, 111
12, 135521, Control_c, 10, 11, 109
12, 135525, Note_on_c, 10, 78, 0
12, 135539, Control_c, 10, 11, 107
12, 135540, Note_on_c, 10, 78, 100
12, 135585, Note_on_c, 10, 78, 0
12, 135600, Control_c, 10, 11, 127
12, 135600, Note_on_c, 10, 81, 100
12, 135617, Control_c, 10, 11, 125
12, 135635, Control_c, 10, 11, 123
12, 135645, Note_on_c, 10, 81, 0
12, 135653, Control_c, 10, 11, 121
12, 135660, Note_on_c, 10, 81, 100
12, 135671, Control_c, 10, 11, 119
12, 135689, Control_c, 10, 11, 117
12, 135705, Note_on_c, 10, 81, 0
12, 135707, Control_c, 10, 11, 115
12, 135720, Note_on_c, 10, 80, 100
12, 135725, Control_c, 10, 11, 113
12, 135743, Control_c, 10, 11, 111
12, 135761, Control_c, 10, 11, 109
12, 135765, Note_on_c, 10, 80, 0
12, 135779, Control_c, 10, 11, 107
12, 135780, Note_on_c, 10, 80, 100
12, 135825, Note_on_c, 10, 80, 0
12, 135840, Control_c, 10, 11, 127
12, 135840, Note_on_c, 10, 78, 100
12, 135857, Control_c, 10, 11, 125
12, 135875, Control_c, 10, 11, 123
12, 135885, Note_on_c, 10, 78, 0
12, 135893, Control_c, 10, 11, 121
12, 135900, Note_on_c, 10, 78, 100
12, 135911, Control_c, 10, 11, 119
12, 135929, Control_c, 10, 11, 117
12, 135945, Note_on_c, 10, 78, 0
12, 135947, Control_c, 10, 11, 115
12, 135960, Note_on_c, 10, 76, 100
12, 135965, Control_c, 10, 11, 113
12, 135983, Control_c, 10, 11, 111
12, 136001, Control_c, 10, 11, 109
12, 136005, Note_on_c, 10, 76, 0
12, 136019, Control_c, 10, 11, 107
12, 136020, Note_on_c, 10, 76, 100
12, 136065, Note_on_c, 10, 76, 0
12, 136080, Control_c, 10, 11, 127
12, 136080, Note_on_c, 10, 75, 100
12, 136097, Control_c, 10, 11, 125
12, 136115, Control_c, 10, 11, 123
12, 136125, Note_on_c, 10, 75, 0
12, 136133, Control_c, 10, 11, 121
12, 136140, Note_on_c, 10, 75, 100
12, 136151, Control_c, 10, 11, 119
12, 136169, Control_c, 10, 11, 117
12, 136185, Note_on_c, 10, 75, 0
12, 136187, Control_c, 10, 11, 115
12, 136200, Note_on_c, 10, 76, 100
12, 136205, Control_c, 10, 11, 113
12, 136223, Control_c, 10, 11, 111
12, 136241, Control_c, 10, 11, 109
12, 136245, Note_on_c, 10, 76, 0
12, 136259, Control_c, 10, 11, 107
12, 136260, Note_on_c, 10, 76, 100
12, 136305, Note_on_c, 10, 76, 0
12, 136320, Control_c, 10, 11, 127
12, 136320, Note_on_c, 10, 78, 100
12, 136337, Control_c, 10, 11, 125
12, 136355, Control_c, 10, 11, 123
12, 136365, Note_on_c, 10, 78, 0
12, 136373, Control_c, 10, 11, 121
12, 136380, Note_on_c, 10, 78, 100
12, 136391, Control_c, 10, 11, 119
12, 136409, Control_c, 10, 11, 117
12, 136425, Note_on_c, 10, 78, 0
12, 136427, Control_c, 10, 11, 115
12, 136440, Note_on_c, 10, 80, 100
12, 136445, Control_c, 10, 11, 113
12, 136463, Control_c, 10, 11, 111
12, 136481, Control_c, 10, 11, 109
12, 136485, Note_on_c, 10, 80, 0
12, 136499, Control_c, 10, 11, 107
12, 136500, Note_on_c, 10, 80, 100
12, 136545, Note_on_c, 10, 80, 0
12, 136560, Control_c, 10, 11, 127
12, 136560, Note_on_c, 10, 81, 100
12, 136577, Control_c, 10, 11, 125
12, 136595, Control_c, 10, 11, 123
12, 136605, Note_on_c, 10, 81, 0
12, 136613, Control_c, 10, 11, 121
12, 136620, Note_on_c, 10, 81, 100
12, 136631, Control_c, 10, 11, 119
12, 136649, Control_c, 10, 11, 117
12, 136665, Note_on_c, 10, 81, 0
12, 136667, Control_c, 10, 11, 115
12, 136680, Note_on_c, 10, 82, 100
12, 136685, Control_c, 10, 11, 113
12, 136703, Control_c, 10, 11, 111
12, 136721, Control_c, 10, 11, 109
12, 136725, Note_on_c, 10, 82, 0
12, 136739, Control_c, 10, 11, 107
12, 136740, Note_on_c, 10, 82, 100
12, 136785, Note_on_c, 10, 82, 0
12, 136800, Control_c, 10, 11, 127
12, 136800, Note_on_c, 10, 83, 100
12, 136817, Control_c, 10, 11, 125
12, 136835, Control_c, 10, 11, 123
12, 136845, Note_on_c, 10, 83, 0
12, 136853, Control_c, 10, 11, 121
12, 136860, Note_on_c, 10, 83, 100
12, 136871, Control_c, 10, 11, 119
12, 136889, Control_c, 10, 11, 117
12, 136905, Note_on_c, 10, 83, 0
12, 136907, Control_c, 10, 11, 115
12, 136920, Note_on_c, 10, 85, 100
12, 136925, Control_c, 10, 11, 113
12, 136943, Control_c, 10, 11, 111
12, 136961, Control_c, 10, 11, 109
12, 136965, Note_on_c, 10, 85, 0
12, 136979, Control_c, 10, 11, 107
12, 136980, Note_on_c, 10, 85, 100
12, 137025, Note_on_c, 10, 85, 0
12, 137040, Control_c, 10, 11, 127
12, 137040, Note_on_c, 10, 87, 100
12, 137057, Control_c, 10, 11, 125
12, 137075, Control_c, 10, 11, 123
12, 137085, Note_on_c, 10, 87, 0
12, 137093, Control_c, 10, 11, 121
12, 137100, Note_on_c, 10, 87, 100
12, 137111, Control_c, 10, 11, 119
12, 137129, Control_c, 10, 11, 117
12, 137145, Note_on_c, 10, 87, 0
12, 137147, Control_c, 10, 11, 115
12, 137160, Note_on_c, 10, 88, 100
12, 137165, Control_c, 10, 11, 113
12, 137183, Control_c, 10, 11, 111
12, 137201, Control_c, 10, 11, 109
12, 137205, Note_on_c, 10, 88, 0
12, 137219, Control_c, 10, 11, 107
12, 137220, Note_on_c, 10, 88, 100
12, 137265, Note_on_c, 10, 88, 0
12, 137280, Control_c, 10, 11, 127
12, 137280, Note_on_c, 10, 90, 100
12, 137297, Control_c, 10, 11, 125
12, 137315, Control_c, 10, 11, 123
12, 137325, Note_on_c, 10, 90, 0
12, 137333, Control_c, 10, 11, 121
12, 137340, Note_on_c, 10, 90, 100
12, 137351, Control_c, 10, 11, 119
12, 137369, Control_c, 10, 11, 117
12, 137385, Note_on_c, 10, 90, 0
12, 137387, Control_c, 10, 11, 115
12, 137400, Note_on_c, 10, 92, 100
12, 137405, Control_c, 10, 11, 113
12, 137423, Control_c, 10, 11, 111
12, 137441, Control_c, 10, 11, 109
12, 137445, Note_on_c, 10, 92, 0
12, 137459, Control_c, 10, 11, 107
12, 137460, Note_on_c, 10, 92, 100
12, 137505, Note_on_c, 10, 92, 0
12, 137520, Control_c, 10, 11, 127
12, 137520, Note_on_c, 10, 93, 100
12, 137537, Control_c, 10, 11, 125
12, 137555, Control_c, 10, 11, 123
12, 137565, Note_on_c, 10, 93, 0
12, 137573, Control_c, 10, 11, 121
12, 137580, Note_on_c, 10, 93, 100
12, 137591, Control_c, 10, 11, 119
12, 137609, Control_c, 10, 11, 117
12, 137625, Note_on_c, 10, 93, 0
12, 137627, Control_c, 10, 11, 115
12, 137640, Note_on_c, 10, 94, 100
12, 137645, Control_c, 10, 11, 113
12, 137663, Control_c, 10, 11, 111
12, 137681, Control_c, 10, 11, 109
12, 137685, Note_on_c, 10, 94, 0
12, 137699, Control_c, 10, 11, 107
12, 137700, Note_on_c, 10, 94, 100
12, 137745, Note_on_c, 10, 94, 0
12, 137760, Control_c, 10, 11, 127
12, 137760, Note_on_c, 10, 95, 100
12, 137777, Control_c, 10, 11, 125
12, 137795, Control_c, 10, 11, 123
12, 137805, Note_on_c, 10, 95, 0
12, 137813, Control_c, 10, 11, 121
12, 137820, Note_on_c, 10, 95, 100
12, 137831, Control_c, 10, 11, 119
12, 137849, Control_c, 10, 11, 117
12, 137865, Note_on_c, 10, 95, 0
12, 137867, Control_c, 10, 11, 115
12, 137880, Note_on_c, 10, 95, 100
12, 137885, Control_c, 10, 11, 113
12, 137903, Control_c, 10, 11, 111
12, 137921, Control_c, 10, 11, 109
12, 137925, Note_on_c, 10, 95, 0
12, 137939, Control_c, 10, 11, 107
12, 137940, Note_on_c, 10, 95, 100
12, 137985, Note_on_c, 10, 95, 0
12, 138000, Control_c, 10, 11, 127
12, 138000, Note_on_c, 10, 95, 100
12, 138017, Control_c, 10, 11, 125
12, 138035, Control_c, 10, 11, 123
12, 138045, Note_on_c, 10, 95, 0
12, 138053, Control_c, 10, 11, 121
12, 138060, Note_on_c, 10, 95, 100
12, 138071, Control_c, 10, 11, 119
12, 138089, Control_c, 10, 11, 117
12, 138105, Note_on_c, 10, 95, 0
12, 138107, Control_c, 10, 11, 115
12, 138120, Note_on_c, 10, 95, 100
12, 138125, Control_c, 10, 11, 113
12, 138143, Control_c, 10, 11, 111
12, 138161, Control_c, 10, 11, 109
12, 138165, Note_on_c, 10, 95, 0
12, 138179, Control_c, 10, 11, 107
12, 138180, Note_on_c, 10, 95, 100
12, 138225, Note_on_c, 10, 95, 0
12, 138240, Control_c, 10, 11, 127
12, 138240, Note_on_c, 10, 80, 100
12, 138257, Control_c, 10, 11, 125
12, 138275, Control_c, 10, 11, 123
12, 138285, Note_on_c, 10, 80, 0
12, 138293, Control_c, 10, 11, 121
12, 138300, Note_on_c, 10, 80, 100
12, 138311, Control_c, 10, 11, 119
12, 138329, Control_c, 10, 11, 117
12, 138345, Note_on_c, 10, 80, 0
12, 138347, Control_c, 10, 11, 115
12, 138360, Note_on_c, 10, 78, 100
12, 138365, Control_c, 10, 11, 113
12, 138383, Control_c, 10, 11, 111
12, 138401, Control_c, 10, 11, 109
12, 138405, Note_on_c, 10, 78, 0
12, 138419, Control_c, 10, 11, 107
12, 138420, Note_on_c, 10, 78, 100
12, 138465, Note_on_c, 10, 78, 0
12, 138480, Control_c, 10, 11, 127
12, 138480, Note_on_c, 10, 81, 100
12, 138497, Control_c, 10, 11, 125
12, 138515, Control_c, 10, 11, 123
12, 138525, Note_on_c, 10, 81, 0
12, 138533, Control_c, 10, 11, 121
12, 138540, Note_on_c, 10, 81, 100
12, 138551, Control_c, 10, 11, 119
12, 138569, Control_c, 10, 11, 117
12, 138585, Note_on_c, 10, 81, 0
12, 138587, Control_c, 10, 11, 115
12, 138600, Note_on_c, 10, 80, 100
12, 138605, Control_c, 10, 11, 113
12, 138623, Control_c, 10, 11, 111
12, 138641, Control_c, 10, 11, 109
12, 138645, Note_on_c, 10, 80, 0
12, 138659, Control_c, 10, 11, 107
12, 138660, Note_on_c, 10, 80, 100
12, 138705, Note_on_c, 10, 80, 0
12, 138720, Control_c, 10, 11, 127
12, 138720, Note_on_c, 10, 78, 100
12, 138737, Control_c, 10, 11, 125
12, 138755, Control_c, 10, 11, 123
12, 138765, Note_on_c, 10, 78, 0
12, 138773, Control_c, 10, 11, 121
12, 138780, Note_on_c, 10, 78, 100
12, 138791, Control_c, 10, 11, 119
12, 138809, Control_c, 10, 11, 117
12, 138825, Note_on_c, 10, 78, 0
12, 138827, Control_c, 10, 11, 115
12, 138840, Note_on_c, 10, 76, 100
12, 138845, Control_c, 10, 11, 113
12, 138863, Control_c, 10, 11, 111
12, 138881, Control_c, 10, 11, 109
12, 138885, Note_on_c, 10, 76, 0
12, 138899, Control_c, 10, 11, 107
12, 138900, Note_on_c, 10, 76, 100
12, 138945, Note_on_c, 10, 76, 0
12, 138960, Control_c, 10, 11, 127
12, 138960, Note_on_c, 10, 75, 100
12, 138977, Control_c, 10, 11, 125
12, 138995, Control_c, 10, 11, 123
12, 139005, Note_on_c, 10, 75, 0
12, 139013, Control_c, 10, 11, 121
12, 139020, Note_on_c, 10, 75, 100
12, 139031, Control_c, 10, 11, 119
12, 139049, Control_c, 10, 11, 117
12, 139065, Note_on_c, 10, 75, 0
12, 139067, Control_c, 10, 11, 115
12, 139080, Note_on_c, 10, 76, 100
12, 139085, Control_c, 10, 11, 113
12, 139103, Control_c, 10, 11, 111
12, 139121, Control_c, 10, 11, 109
12, 139125, Note_on_c, 10, 76, 0
12, 139139, Control_c, 10, 11, 107
12, 139140, Note_on_c, 10, 76, 100
12, 139185, Note_on_c, 10, 76, 0
12, 139200, Control_c, 10, 11, 127
12, 139200, Note_on_c, 10, 78, 100
12, 139217, Control_c, 10, 11, 125
12, 139235, Control_c, 10, 11, 123
12, 139245, Note_on_c, 10, 78, 0
12, 139253, Control_c, 10, 11, 121
12, 139260, Note_on_c, 10, 78, 100
12, 139271, Control_c, 10, 11, 119
12, 139289, Control_c, 10, 11, 117
12, 139305, Note_on_c, 10, 78, 0
12, 139307, Control_c, 10, 11, 115
12, 139320, Note_on_c, 10, 80, 100
12, 139325, Control_c, 10, 11, 113
12, 139343, Control_c, 10, 11, 111
12, 139361, Control_c, 10, 11, 109
12, 139365, Note_on_c, 10, 80, 0
12, 139379, Control_c, 10, 11, 107
12, 139380, Note_on_c, 10, 80, 100
12, 139425, Note_on_c, 10, 80, 0
12, 139440, Control_c, 10, 11, 127
12, 139440, Note_on_c, 10, 81, 100
12, 139457, Control_c, 10, 11, 125
12, 139475, Control_c, 10, 11, 123
12, 139485, Note_on_c, 10, 81, 0
12, 139493, Control_c, 10, 11, 121
12, 139500, Note_on_c, 10, 81, 100
12, 139511, Control_c, 10, 11, 119
12, 139529, Control_c, 10, 11, 117
12, 139545, Note_on_c, 10, 81, 0
12, 139547, Control_c, 10, 11, 115
12, 139560, Note_on_c, 10, 82, 100
12, 139565, Control_c, 10, 11, 113
12, 139583, Control_c, 10, 11, 111
12, 139601, Control_c, 10, 11, 109
12, 139605, Note_on_c, 10, 82, 0
12, 139619, Control_c, 10, 11, 107
12, 139620, Note_on_c, 10, 82, 100
12, 139665, Note_on_c, 10, 82, 0
12, 139680, Control_c, 10, 11, 127
12, 139680, Note_on_c, 10, 83, 100
12, 139697, Control_c, 10, 11, 125
12, 139715, Control_c, 10, 11, 123
12, 139725, Note_on_c, 10, 83, 0
12, 139733, Control_c, 10, 11, 121
12, 139740, Note_on_c, 10, 83, 100
12, 139751, Control_c, 10, 11, 119
12, 139769, Control_c, 10, 11, 117
12, 139785, Note_on_c, 10, 83, 0
12, 139787, Control_c, 10, 11, 115
12, 139800, Note_on_c, 10, 85, 100
12, 139805, Control_c, 10, 11, 113
12, 139823, Control_c, 10, 11, 111
12, 139841, Control_c, 10, 11, 109
12, 139845, Note_on_c, 10, 85, 0
12, 139859, Control_c, 10, 11, 107
12, 139860, Note_on_c, 10, 85, 100
12, 139905, Note_on_c, 10, 85, 0
12, 139920, Control_c, 10, 11, 127
12, 139920, Note_on_c, 10, 87, 100
12, 139937, Control_c, 10, 11, 125
12, 139955, Control_c, 10, 11, 123
12, 139965, Note_on_c, 10, 87, 0
12, 139973, Control_c, 10, 11, 121
12, 139980, Note_on_c, 10, 87, 100
12, 139991, Control_c, 10, 11, 119
12, 140009, Control_c, 10, 11, 117
12, 140025, Note_on_c, 10, 87, 0
12, 140027, Control_c, 10, 11, 115
12, 140040, Note_on_c, 10, 88, 100
12, 140045, Control_c, 10, 11, 113
12, 140063, Control_c, 10, 11, 111
12, 140081, Control_c, 10, 11, 109
12, 140085, Note_on_c, 10, 88, 0
12, 140099, Control_c, 10, 11, 107
12, 140100, Note_on_c, 10, 88, 100
12, 140145, Note_on_c, 10, 88, 0
12, 140160, Control_c, 10, 11, 127
12, 140160, Note_on_c, 10, 90, 100
12, 140177, Control_c, 10, 11, 125
12, 140195, Control_c, 10, 11, 123
12, 140205, Note_on_c, 10, 90, 0
12, 140213, Control_c, 10, 11, 121
12, 140220, Note_on_c, 10, 90, 100
12, 140231, Control_c, 10, 11, 119
12, 140249, Control_c, 10, 11, 117
12, 140265, Note_on_c, 10, 90, 0
12, 140267, Control_c, 10, 11, 115
12, 140280, Note_on_c, 10, 92, 100
12, 140285, Control_c, 10, 11, 113
12, 140303, Control_c, 10, 11, 111
12, 140321, Control_c, 10, 11, 109
12, 140325, Note_on_c, 10, 92, 0
12, 140339, Control_c, 10, 11, 107
12, 140340, Note_on_c, 10, 92, 100
12, 140385, Note_on_c, 10, 92, 0
12, 140400, Control_c, 10, 11, 127
12, 140400, Note_on_c, 10, 93, 100
12, 140417, Control_c, 10, 11, 125
12, 140435, Control_c, 10, 11, 123
12, 140445, Note_on_c, 10, 93, 0
12, 140453, Control_c, 10, 11, 121
12, 140460, Note_on_c, 10, 93, 100
12, 140471, Control_c, 10, 11, 119
12, 140489, Control_c, 10, 11, 117
12, 140505, Note_on_c, 10, 93, 0
12, 140507, Control_c, 10, 11, 115
12, 140520, Note_on_c, 10, 94, 100
12, 140525, Control_c, 10, 11, 113
12, 140543, Control_c, 10, 11, 111
12, 140561, Control_c, 10, 11, 109
12, 140565, Note_on_c, 10, 94, 0
12, 140579, Control_c, 10, 11, 107
12, 140580, Note_on_c, 10, 94, 100
12, 140625, Note_on_c, 10, 94, 0
12, 140640, Control_c, 10, 11, 127
12, 140640, Note_on_c, 10, 95, 100
12, 140657, Control_c, 10, 11, 125
12, 140675, Control_c, 10, 11, 123
12, 140685, Note_on_c, 10, 95, 0
12, 140693, Control_c, 10, 11, 121
12, 140700, Note_on_c, 10, 95, 100
12, 140711, Control_c, 10, 11, 119
12, 140729, Control_c, 10, 11, 117
12, 140745, Note_on_c, 10, 95, 0
12, 140747, Control_c, 10, 11, 115
12, 140760, Note_on_c, 10, 95, 100
12, 140765, Control_c, 10, 11, 113
12, 140783, Control_c, 10, 11, 111
12, 140801, Control_c, 10, 11, 109
12, 140805, Note_on_c, 10, 95, 0
12, 140819, Control_c, 10, 11, 107
12, 140820, Note_on_c, 10, 95, 100
12, 140865, Note_on_c, 10, 95, 0
12, 140880, Control_c, 10, 11, 127
12, 140880, Note_on_c, 10, 95, 100
12, 140897, Control_c, 10, 11, 125
12, 140915, Control_c, 10, 11, 123
12, 140925, Note_on_c, 10, 95, 0
12, 140933, Control_c, 10, 11, 121
12, 140940, Note_on_c, 10, 95, 100
12, 140951, Control_c, 10, 11, 119
12, 140969, Control_c, 10, 11, 117
12, 140985, Note_on_c, 10, 95, 0
12, 140987, Control_c, 10, 11, 115
12, 141000, Note_on_c, 10, 95, 100
12, 141005, Control_c, 10, 11, 113
12, 141023, Control_c, 10, 11, 111
12, 141041, Control_c, 10, 11, 109
12, 141045, Note_on_c, 10, 95, 0
12, 141059, Control_c, 10, 11, 107
12, 141060, Note_on_c, 10, 95, 100
12, 141105, Note_on_c, 10, 95, 0
12, 141120, Note_on_c, 10, 76, 100
12, 141270, Note_on_c, 10, 76, 0
12, 141300, Note_on_c, 10, 71, 100
12, 141345, Note_on_c, 10, 71, 0
12, 141360, Note_on_c, 10, 71, 100
12, 141480, Note_on_c, 10, 71, 0
12, 142080, Note_on_c, 10, 80, 100
12, 142230, Note_on_c, 10, 80, 0
12, 142260, Note_on_c, 10, 76, 100
12, 142305, Note_on_c, 10, 76, 0
12, 142320, Note_on_c, 10, 76, 100
12, 142440, Note_on_c, 10, 76, 0
12, 143040, Note_on_c, 10, 83, 100
12, 143190, Note_on_c, 10, 83, 0
12, 143220, Note_on_c, 10, 80, 100
12, 143265, Note_on_c, 10, 80, 0
12, 143280, Note_on_c, 10, 80, 100
12, 143400, Note_on_c, 10, 80, 0
12, 144000, Note_on_c, 10, 88, 100
12, 144150, Note_on_c, 10, 88, 0
12, 144180, Note_on_c, 10, 83, 100
12, 144225, Note_on_c, 10, 83, 0
12, 144240, Note_on_c, 10, 83, 100
12, 144360, Note_on_c, 10, 83, 0
12, 144960, Note_on_c, 10, 88, 100
12, 145005, Note_on_c, 10, 88, 0
12, 145020, Note_on_c, 10, 88, 100
12, 145065, Note_on_c, 10, 88, 0
12, 145080, Note_on_c, 10, 83, 100
12, 145125, Note_on_c, 10, 83, 0
12, 145140, Note_on_c, 10, 83, 100
12, 145185, Note_on_c, 10, 83, 0
12, 145200, Note_on_c, 10, 88, 100
12, 145245, Note_on_c, 10, 88, 0
12, 145260, Note_on_c, 10, 88, 100
12, 145305, Note_on_c, 10, 88, 0
12, 145320, Note_on_c, 10, 83, 100
12, 145365, Note_on_c, 10, 83, 0
12, 145380, Note_on_c, 10, 83, 100
12, 145425, Note_on_c, 10, 83, 0
12, 145440, Note_on_c, 10, 88, 100
12, 145485, Note_on_c, 10, 88, 0
12, 145500, Note_on_c, 10, 88, 100
12, 145545, Note_on_c, 10, 88, 0
12, 145560, Note_on_c, 10, 83, 100
12, 145605, Note_on_c, 10, 83, 0
12, 145620, Note_on_c, 10, 83, 100
12, 145665, Note_on_c, 10, 83, 0
12, 145680, Note_on_c, 10, 88, 100
12, 145725, Note_on_c, 10, 88, 0
12, 145740, Note_on_c, 10, 88, 100
12, 145785, Note_on_c, 10, 88, 0
12, 145800, Note_on_c, 10, 83, 100
12, 145845, Note_on_c, 10, 83, 0
12, 145860, Note_on_c, 10, 83, 100
12, 145905, Note_on_c, 10, 83, 0
12, 145920, Note_on_c, 10, 88, 100
12, 145965, Note_on_c, 10, 88, 0
12, 145980, Note_on_c, 10, 88, 100
12, 146025, Note_on_c, 10, 88, 0
12, 146040, Note_on_c, 10, 83, 100
12, 146085, Note_on_c, 10, 83, 0
12, 146100, Note_on_c, 10, 83, 100
12, 146145, Note_on_c, 10, 83, 0
12, 146160, Note_on_c, 10, 88, 100
12, 146205, Note_on_c, 10, 88, 0
12, 146220, Note_on_c, 10, 88, 100
12, 146265, Note_on_c, 10, 88, 0
12, 146280, Note_on_c, 10, 83, 100
12, 146325, Note_on_c, 10, 83, 0
12, 146340, Note_on_c, 10, 83, 100
12, 146385, Note_on_c, 10, 83, 0
12, 146400, Note_on_c, 10, 88, 100
12, 146445, Note_on_c, 10, 88, 0
12, 146460, Note_on_c, 10, 88, 100
12, 146505, Note_on_c, 10, 88, 0
12, 146520, Note_on_c, 10, 83, 100
12, 146565, Note_on_c, 10, 83, 0
12, 146580, Note_on_c, 10, 83, 100
12, 146625, Note_on_c, 10, 83, 0
12, 146640, Note_on_c, 10, 88, 100
12, 146685, Note_on_c, 10, 88, 0
12, 146700, Note_on_c, 10, 88, 100
12, 146745, Note_on_c, 10, 88, 0
12, 146760, Note_on_c, 10, 83, 100
12, 146805, Note_on_c, 10, 83, 0
12, 146820, Note_on_c, 10, 83, 100
12, 146865, Note_on_c, 10, 83, 0
12, 146880, Note_on_c, 10, 88, 100
12, 147000, Note_on_c, 10, 88, 0
12, 147360, Note_on_c, 10, 71, 100
12, 147360, Note_on_c, 10, 64, 100
12, 147360, Note_on_c, 10, 76, 100
12, 147480, Note_on_c, 10, 76, 0
12, 147480, Note_on_c, 10, 64, 0
12, 147480, Note_on_c, 10, 71, 0
12, 147840, Note_on_c, 10, 64, 100
12, 147960, Note_on_c, 10, 64, 0
12, 148320, Control_c, 10, 121, 0
12, 148320, End_track
13, 0, Start_track
13, 0, MIDI_port, 0
13, 0, Title_t, "Violine II"
13, 0, Program_c, 11, 48
13, 0, Control_c, 11, 10, 90
13, 3, Control_c, 11, 121, 0
13, 8, Program_c, 11, 48
13, 13, Pitch_bend_c, 11, 7942
13, 18, Control_c, 11, 11, 102
13, 23, Control_c, 11, 7, 127
13, 28, Control_c, 11, 91, 48
13, 33, Control_c, 11, 93, 0
13, 38, Control_c, 11, 1, 36
13, 483, Control_c, 11, 11, 87
13, 483, Note_on_c, 11, 76, 100
13, 633, Note_on_c, 11, 76, 0
13, 663, Note_on_c, 11, 71, 100
13, 713, Note_on_c, 11, 71, 0
13, 723, Note_on_c, 11, 71, 100
13, 783, Note_on_c, 11, 71, 0
13, 963, Control_c, 11, 11, 107
13, 963, Note_on_c, 11, 80, 100
13, 981, Control_c, 11, 11, 104
13, 999, Control_c, 11, 11, 101
13, 1017, Control_c, 11, 11, 98
13, 1035, Control_c, 11, 11, 95
13, 1053, Control_c, 11, 11, 92
13, 1071, Control_c, 11, 11, 89
13, 1113, Note_on_c, 11, 80, 0
13, 1143, Note_on_c, 11, 76, 100
13, 1193, Note_on_c, 11, 76, 0
13, 1203, Note_on_c, 11, 76, 100
13, 1263, Note_on_c, 11, 76, 0
13, 1443, Control_c, 11, 11, 107
13, 1443, Note_on_c, 11, 83, 100
13, 1461, Control_c, 11, 11, 104
13, 1479, Control_c, 11, 11, 101
13, 1497, Control_c, 11, 11, 98
13, 1515, Control_c, 11, 11, 95
13, 1533, Control_c, 11, 11, 92
13, 1551, Control_c, 11, 11, 89
13, 1593, Note_on_c, 11, 83, 0
13, 1623, Note_on_c, 11, 80, 100
13, 1673, Note_on_c, 11, 80, 0
13, 1683, Note_on_c, 11, 80, 100
13, 1743, Note_on_c, 11, 80, 0
13, 1803, Note_on_c, 11, 88, 100
13, 1803, Note_on_c, 11, 80, 100
13, 1803, Note_on_c, 11, 71, 100
13, 1863, Note_on_c, 11, 71, 0
13, 1863, Note_on_c, 11, 80, 0
13, 1863, Note_on_c, 11, 88, 0
13, 1923, Note_on_c, 11, 78, 100
13, 1923, Note_on_c, 11, 87, 100
13, 1923, Note_on_c, 11, 71, 100
13, 1983, Note_on_c, 11, 71, 0
13, 1983, Note_on_c, 11, 87, 0
13, 1983, Note_on_c, 11, 78, 0
13, 6243, Control_c, 11, 11, 87
13, 6243, Note_on_c, 11, 81, 100
13, 6393, Note_on_c, 11, 81, 0
13, 6423, Note_on_c, 11, 76, 100
13, 6473, Note_on_c, 11, 76, 0
13, 6483, Note_on_c, 11, 76, 100
13, 6543, Note_on_c, 11, 76, 0
13, 6723, Control_c, 11, 11, 107
13, 6723, Note_on_c, 11, 85, 100
13, 6741, Control_c, 11, 11, 104
13, 6759, Control_c, 11, 11, 101
13, 6777, Control_c, 11, 11, 98
13, 6795, Control_c, 11, 11, 95
13, 6813, Control_c, 11, 11, 92
13, 6831, Control_c, 11, 11, 89
13, 6873, Note_on_c, 11, 85, 0
13, 6903, Note_on_c, 11, 81, 100
13, 6903, Note_on_c, 11, 69, 100
13, 6953, Note_on_c, 11, 69, 0
13, 6953, Note_on_c, 11, 81, 0
13, 6963, Note_on_c, 11, 69, 100
13, 6963, Note_on_c, 11, 81, 100
13, 7023, Note_on_c, 11, 81, 0
13, 7023, Note_on_c, 11, 69, 0
13, 7203, Control_c, 11, 11, 107
13, 7203, Note_on_c, 11, 76, 100
13, 7221, Control_c, 11, 11, 104
13, 7239, Control_c, 11, 11, 101
13, 7257, Control_c, 11, 11, 98
13, 7275, Control_c, 11, 11, 95
13, 7293, Control_c, 11, 11, 92
13, 7311, Control_c, 11, 11, 89
13, 7353, Note_on_c, 11, 76, 0
13, 7383, Note_on_c, 11, 73, 100
13, 7433, Note_on_c, 11, 73, 0
13, 7443, Note_on_c, 11, 73, 100
13, 7503, Note_on_c, 11, 73, 0
13, 7563, Note_on_c, 11, 81, 100
13, 7563, Note_on_c, 11, 73, 100
13, 7563, Note_on_c, 11, 64, 100
13, 7623, Note_on_c, 11, 64, 0
13, 7623, Note_on_c, 11, 73, 0
13, 7623, Note_on_c, 11, 81, 0
13, 7683, Note_on_c, 11, 80, 100
13, 7683, Note_on_c, 11, 64, 100
13, 7683, Note_on_c, 11, 71, 100
13, 7743, Note_on_c, 11, 71, 0
13, 7743, Note_on_c, 11, 64, 0
13, 7743, Note_on_c, 11, 80, 0
13, 10563, Control_c, 11, 11, 32
13, 10563, Note_on_c, 11, 62, 100
13, 10579, Control_c, 11, 11, 33
13, 10595, Control_c, 11, 11, 34
13, 10611, Control_c, 11, 11, 35
13, 10627, Control_c, 11, 11, 36
13, 10643, Control_c, 11, 11, 37
13, 10659, Control_c, 11, 11, 38
13, 10675, Control_c, 11, 11, 39
13, 10691, Control_c, 11, 11, 40
13, 10707, Control_c, 11, 11, 41
13, 10723, Control_c, 11, 11, 42
13, 10739, Control_c, 11, 11, 43
13, 10755, Control_c, 11, 11, 44
13, 10771, Control_c, 11, 11, 45
13, 10787, Control_c, 11, 11, 46
13, 10803, Control_c, 11, 11, 47
13, 10819, Control_c, 11, 11, 46
13, 10835, Control_c, 11, 11, 45
13, 10851, Control_c, 11, 11, 44
13, 10867, Control_c, 11, 11, 43
13, 10883, Control_c, 11, 11, 42
13, 10899, Control_c, 11, 11, 41
13, 10915, Control_c, 11, 11, 40
13, 10931, Control_c, 11, 11, 39
13, 10947, Control_c, 11, 11, 38
13, 10963, Control_c, 11, 11, 37
13, 10979, Control_c, 11, 11, 36
13, 10995, Control_c, 11, 11, 35
13, 11011, Control_c, 11, 11, 34
13, 11027, Control_c, 11, 11, 33
13, 11038, Note_on_c, 11, 62, 0
13, 11043, Control_c, 11, 11, 32
13, 11043, Note_on_c, 11, 60, 72
13, 11083, Note_on_c, 11, 60, 0
13, 11083, Note_on_c, 11, 55, 72
13, 11123, Note_on_c, 11, 55, 0
13, 11123, Note_on_c, 11, 60, 72
13, 11163, Note_on_c, 11, 60, 0
13, 11163, Note_on_c, 11, 55, 72
13, 11203, Note_on_c, 11, 55, 0
13, 11203, Note_on_c, 11, 60, 72
13, 11243, Note_on_c, 11, 60, 0
13, 11243, Note_on_c, 11, 55, 72
13, 11283, Note_on_c, 11, 55, 0
13, 11283, Note_on_c, 11, 60, 72
13, 11323, Note_on_c, 11, 60, 0
13, 11323, Note_on_c, 11, 55, 72
13, 11363, Note_on_c, 11, 55, 0
13, 11363, Note_on_c, 11, 60, 73
13, 11403, Note_on_c, 11, 60, 0
13, 11403, Note_on_c, 11, 55, 73
13, 11443, Note_on_c, 11, 55, 0
13, 11443, Note_on_c, 11, 60, 73
13, 11483, Note_on_c, 11, 60, 0
13, 11483, Note_on_c, 11, 55, 73
13, 11513, Note_on_c, 11, 55, 0
13, 11523, Note_on_c, 11, 60, 73
13, 11563, Note_on_c, 11, 60, 0
13, 11563, Note_on_c, 11, 55, 73
13, 11603, Note_on_c, 11, 55, 0
13, 11603, Note_on_c, 11, 60, 73
13, 11643, Note_on_c, 11, 60, 0
13, 11643, Note_on_c, 11, 55, 73
13, 11683, Note_on_c, 11, 55, 0
13, 11683, Note_on_c, 11, 60, 73
13, 11723, Note_on_c, 11, 60, 0
13, 11723, Note_on_c, 11, 55, 73
13, 11763, Note_on_c, 11, 55, 0
13, 11763, Note_on_c, 11, 60, 73
13, 11803, Note_on_c, 11, 60, 0
13, 11803, Note_on_c, 11, 55, 73
13, 11843, Note_on_c, 11, 55, 0
13, 11843, Note_on_c, 11, 60, 73
13, 11883, Note_on_c, 11, 60, 0
13, 11883, Note_on_c, 11, 55, 73
13, 11923, Note_on_c, 11, 55, 0
13, 11923, Note_on_c, 11, 60, 73
13, 11963, Note_on_c, 11, 60, 0
13, 11963, Note_on_c, 11, 55, 73
13, 11993, Note_on_c, 11, 55, 0
13, 12003, Note_on_c, 11, 60, 74
13, 12043, Note_on_c, 11, 60, 0
13, 12043, Note_on_c, 11, 55, 74
13, 12083, Note_on_c, 11, 55, 0
13, 12083, Note_on_c, 11, 60, 74
13, 12123, Note_on_c, 11, 60, 0
13, 12123, Note_on_c, 11, 55, 74
13, 12163, Note_on_c, 11, 55, 0
13, 12163, Note_on_c, 11, 60, 74
13, 12203, Note_on_c, 11, 60, 0
13, 12203, Note_on_c, 11, 55, 74
13, 12243, Note_on_c, 11, 55, 0
13, 12243, Note_on_c, 11, 60, 74
13, 12283, Note_on_c, 11, 60, 0
13, 12283, Note_on_c, 11, 55, 74
13, 12323, Note_on_c, 11, 55, 0
13, 12323, Note_on_c, 11, 60, 75
13, 12363, Note_on_c, 11, 60, 0
13, 12363, Note_on_c, 11, 55, 75
13, 12403, Note_on_c, 11, 55, 0
13, 12403, Note_on_c, 11, 60, 75
13, 12443, Note_on_c, 11, 60, 0
13, 12443, Note_on_c, 11, 55, 75
13, 12473, Note_on_c, 11, 55, 0
13, 12483, Note_on_c, 11, 60, 75
13, 12523, Note_on_c, 11, 60, 0
13, 12523, Note_on_c, 11, 55, 75
13, 12563, Note_on_c, 11, 55, 0
13, 12563, Note_on_c, 11, 60, 75
13, 12603, Note_on_c, 11, 60, 0
13, 12603, Note_on_c, 11, 55, 75
13, 12643, Note_on_c, 11, 55, 0
13, 12643, Note_on_c, 11, 60, 76
13, 12683, Note_on_c, 11, 60, 0
13, 12683, Note_on_c, 11, 55, 76
13, 12723, Note_on_c, 11, 55, 0
13, 12723, Note_on_c, 11, 60, 76
13, 12763, Note_on_c, 11, 60, 0
13, 12763, Note_on_c, 11, 55, 76
13, 12803, Note_on_c, 11, 55, 0
13, 12803, Note_on_c, 11, 60, 76
13, 12843, Note_on_c, 11, 60, 0
13, 12843, Note_on_c, 11, 55, 76
13, 12883, Note_on_c, 11, 55, 0
13, 12883, Note_on_c, 11, 60, 76
13, 12923, Note_on_c, 11, 60, 0
13, 12923, Note_on_c, 11, 55, 76
13, 12953, Note_on_c, 11, 55, 0
13, 12963, Control_c, 11, 11, 32
13, 12963, Note_on_c, 11, 65, 77
13, 13003, Note_on_c, 11, 65, 0
13, 13003, Note_on_c, 11, 60, 77
13, 13006, Control_c, 11, 11, 33
13, 13043, Note_on_c, 11, 60, 0
13, 13043, Note_on_c, 11, 65, 77
13, 13050, Control_c, 11, 11, 34
13, 13083, Note_on_c, 11, 65, 0
13, 13083, Note_on_c, 11, 60, 77
13, 13093, Control_c, 11, 11, 35
13, 13123, Note_on_c, 11, 60, 0
13, 13123, Note_on_c, 11, 65, 77
13, 13137, Control_c, 11, 11, 36
13, 13163, Note_on_c, 11, 65, 0
13, 13163, Note_on_c, 11, 60, 77
13, 13181, Control_c, 11, 11, 37
13, 13203, Note_on_c, 11, 60, 0
13, 13203, Note_on_c, 11, 65, 77
13, 13224, Control_c, 11, 11, 38
13, 13243, Note_on_c, 11, 65, 0
13, 13243, Note_on_c, 11, 60, 77
13, 13268, Control_c, 11, 11, 39
13, 13283, Note_on_c, 11, 60, 0
13, 13283, Note_on_c, 11, 65, 78
13, 13312, Control_c, 11, 11, 40
13, 13323, Note_on_c, 11, 65, 0
13, 13323, Note_on_c, 11, 60, 78
13, 13355, Control_c, 11, 11, 41
13, 13363, Note_on_c, 11, 60, 0
13, 13363, Note_on_c, 11, 65, 78
13, 13399, Control_c, 11, 11, 42
13, 13403, Note_on_c, 11, 65, 0
13, 13403, Note_on_c, 11, 60, 78
13, 13433, Note_on_c, 11, 60, 0
13, 13443, Control_c, 11, 11, 43
13, 13443, Note_on_c, 11, 65, 78
13, 13479, Control_c, 11, 11, 44
13, 13483, Note_on_c, 11, 65, 0
13, 13483, Note_on_c, 11, 60, 78
13, 13523, Note_on_c, 11, 60, 0
13, 13523, Note_on_c, 11, 65, 78
13, 13553, Control_c, 11, 11, 45
13, 13563, Note_on_c, 11, 65, 0
13, 13563, Note_on_c, 11, 60, 78
13, 13603, Note_on_c, 11, 60, 0
13, 13603, Note_on_c, 11, 65, 79
13, 13627, Control_c, 11, 11, 46
13, 13643, Note_on_c, 11, 65, 0
13, 13643, Note_on_c, 11, 60, 79
13, 13683, Note_on_c, 11, 60, 0
13, 13683, Note_on_c, 11, 65, 79
13, 13701, Control_c, 11, 11, 47
13, 13723, Note_on_c, 11, 65, 0
13, 13723, Note_on_c, 11, 60, 79
13, 13763, Note_on_c, 11, 60, 0
13, 13763, Note_on_c, 11, 65, 79
13, 13775, Control_c, 11, 11, 48
13, 13803, Note_on_c, 11, 65, 0
13, 13803, Note_on_c, 11, 60, 79
13, 13843, Note_on_c, 11, 60, 0
13, 13843, Note_on_c, 11, 65, 79
13, 13849, Control_c, 11, 11, 49
13, 13883, Note_on_c, 11, 65, 0
13, 13883, Note_on_c, 11, 60, 79
13, 13913, Note_on_c, 11, 60, 0
13, 13923, Control_c, 11, 11, 50
13, 13923, Note_on_c, 11, 66, 79
13, 13963, Note_on_c, 11, 66, 0
13, 13963, Note_on_c, 11, 63, 79
13, 13996, Control_c, 11, 11, 51
13, 14003, Note_on_c, 11, 63, 0
13, 14003, Note_on_c, 11, 66, 79
13, 14043, Note_on_c, 11, 66, 0
13, 14043, Note_on_c, 11, 63, 79
13, 14070, Control_c, 11, 11, 52
13, 14083, Note_on_c, 11, 63, 0
13, 14083, Note_on_c, 11, 66, 79
13, 14123, Note_on_c, 11, 66, 0
13, 14123, Note_on_c, 11, 63, 79
13, 14144, Control_c, 11, 11, 53
13, 14163, Note_on_c, 11, 63, 0
13, 14163, Note_on_c, 11, 66, 79
13, 14203, Note_on_c, 11, 66, 0
13, 14203, Note_on_c, 11, 63, 79
13, 14218, Control_c, 11, 11, 54
13, 14243, Note_on_c, 11, 63, 0
13, 14243, Note_on_c, 11, 66, 80
13, 14283, Note_on_c, 11, 66, 0
13, 14283, Note_on_c, 11, 63, 80
13, 14292, Control_c, 11, 11, 55
13, 14323, Note_on_c, 11, 63, 0
13, 14323, Note_on_c, 11, 66, 80
13, 14363, Note_on_c, 11, 66, 0
13, 14363, Note_on_c, 11, 63, 80
13, 14366, Control_c, 11, 11, 56
13, 14393, Note_on_c, 11, 63, 0
13, 14403, Note_on_c, 11, 66, 80
13, 14439, Control_c, 11, 11, 57
13, 14443, Note_on_c, 11, 66, 0
13, 14443, Note_on_c, 11, 63, 80
13, 14483, Note_on_c, 11, 63, 0
13, 14483, Note_on_c, 11, 66, 80
13, 14513, Control_c, 11, 11, 58
13, 14523, Note_on_c, 11, 66, 0
13, 14523, Note_on_c, 11, 63, 80
13, 14563, Note_on_c, 11, 63, 0
13, 14563, Note_on_c, 11, 66, 81
13, 14587, Control_c, 11, 11, 59
13, 14603, Note_on_c, 11, 66, 0
13, 14603, Note_on_c, 11, 63, 81
13, 14643, Note_on_c, 11, 63, 0
13, 14643, Note_on_c, 11, 66, 81
13, 14661, Control_c, 11, 11, 60
13, 14683, Note_on_c, 11, 66, 0
13, 14683, Note_on_c, 11, 63, 81
13, 14723, Note_on_c, 11, 63, 0
13, 14723, Note_on_c, 11, 66, 81
13, 14735, Control_c, 11, 11, 61
13, 14763, Note_on_c, 11, 66, 0
13, 14763, Note_on_c, 11, 63, 81
13, 14803, Note_on_c, 11, 63, 0
13, 14803, Note_on_c, 11, 66, 81
13, 14809, Control_c, 11, 11, 62
13, 14843, Note_on_c, 11, 66, 0
13, 14843, Note_on_c, 11, 63, 81
13, 14873, Note_on_c, 11, 63, 0
13, 14883, Control_c, 11, 11, 63
13, 14883, Note_on_c, 11, 69, 82
13, 14923, Note_on_c, 11, 69, 0
13, 14923, Note_on_c, 11, 66, 82
13, 14956, Control_c, 11, 11, 64
13, 14963, Note_on_c, 11, 66, 0
13, 14963, Note_on_c, 11, 69, 82
13, 15003, Note_on_c, 11, 69, 0
13, 15003, Note_on_c, 11, 66, 82
13, 15030, Control_c, 11, 11, 65
13, 15043, Note_on_c, 11, 66, 0
13, 15043, Note_on_c, 11, 69, 82
13, 15083, Note_on_c, 11, 69, 0
13, 15083, Note_on_c, 11, 66, 82
13, 15104, Control_c, 11, 11, 66
13, 15123, Note_on_c, 11, 66, 0
13, 15123, Note_on_c, 11, 69, 82
13, 15163, Note_on_c, 11, 69, 0
13, 15163, Note_on_c, 11, 66, 82
13, 15178, Control_c, 11, 11, 67
13, 15203, Note_on_c, 11, 66, 0
13, 15203, Note_on_c, 11, 69, 83
13, 15243, Note_on_c, 11, 69, 0
13, 15243, Note_on_c, 11, 66, 83
13, 15252, Control_c, 11, 11, 68
13, 15283, Note_on_c, 11, 66, 0
13, 15283, Note_on_c, 11, 69, 83
13, 15323, Note_on_c, 11, 69, 0
13, 15323, Note_on_c, 11, 66, 83
13, 15326, Control_c, 11, 11, 69
13, 15353, Note_on_c, 11, 66, 0
13, 15363, Note_on_c, 11, 69, 83
13, 15399, Control_c, 11, 11, 70
13, 15403, Note_on_c, 11, 69, 0
13, 15403, Note_on_c, 11, 66, 83
13, 15443, Note_on_c, 11, 66, 0
13, 15443, Note_on_c, 11, 69, 83
13, 15473, Control_c, 11, 11, 71
13, 15483, Note_on_c, 11, 69, 0
13, 15483, Note_on_c, 11, 66, 83
13, 15523, Note_on_c, 11, 66, 0
13, 15523, Note_on_c, 11, 69, 84
13, 15547, Control_c, 11, 11, 72
13, 15563, Note_on_c, 11, 69, 0
13, 15563, Note_on_c, 11, 66, 84
13, 15603, Note_on_c, 11, 66, 0
13, 15603, Note_on_c, 11, 69, 84
13, 15621, Control_c, 11, 11, 73
13, 15643, Note_on_c, 11, 69, 0
13, 15643, Note_on_c, 11, 66, 84
13, 15683, Note_on_c, 11, 66, 0
13, 15683, Note_on_c, 11, 69, 84
13, 15695, Control_c, 11, 11, 74
13, 15723, Note_on_c, 11, 69, 0
13, 15723, Note_on_c, 11, 66, 84
13, 15763, Note_on_c, 11, 66, 0
13, 15763, Note_on_c, 11, 69, 84
13, 15769, Control_c, 11, 11, 75
13, 15803, Note_on_c, 11, 69, 0
13, 15803, Note_on_c, 11, 66, 84
13, 15833, Note_on_c, 11, 66, 0
13, 15843, Control_c, 11, 11, 76
13, 15843, Note_on_c, 11, 75, 85
13, 15883, Note_on_c, 11, 75, 0
13, 15883, Note_on_c, 11, 69, 85
13, 15916, Control_c, 11, 11, 77
13, 15923, Note_on_c, 11, 69, 0
13, 15923, Note_on_c, 11, 75, 85
13, 15963, Note_on_c, 11, 75, 0
13, 15963, Note_on_c, 11, 69, 85
13, 15990, Control_c, 11, 11, 78
13, 16003, Note_on_c, 11, 69, 0
13, 16003, Note_on_c, 11, 75, 85
13, 16043, Note_on_c, 11, 75, 0
13, 16043, Note_on_c, 11, 69, 85
13, 16064, Control_c, 11, 11, 79
13, 16083, Note_on_c, 11, 69, 0
13, 16083, Note_on_c, 11, 75, 85
13, 16123, Note_on_c, 11, 75, 0
13, 16123, Note_on_c, 11, 69, 85
13, 16138, Control_c, 11, 11, 80
13, 16163, Note_on_c, 11, 69, 0
13, 16163, Note_on_c, 11, 75, 85
13, 16203, Note_on_c, 11, 75, 0
13, 16203, Note_on_c, 11, 69, 85
13, 16212, Control_c, 11, 11, 81
13, 16243, Note_on_c, 11, 69, 0
13, 16243, Note_on_c, 11, 75, 85
13, 16283, Note_on_c, 11, 75, 0
13, 16283, Note_on_c, 11, 69, 85
13, 16286, Control_c, 11, 11, 82
13, 16313, Note_on_c, 11, 69, 0
13, 16323, Note_on_c, 11, 78, 85
13, 16359, Control_c, 11, 11, 83
13, 16363, Note_on_c, 11, 78, 0
13, 16363, Note_on_c, 11, 75, 85
13, 16403, Note_on_c, 11, 75, 0
13, 16403, Note_on_c, 11, 78, 85
13, 16433, Control_c, 11, 11, 84
13, 16443, Note_on_c, 11, 78, 0
13, 16443, Note_on_c, 11, 75, 85
13, 16483, Note_on_c, 11, 75, 0
13, 16483, Note_on_c, 11, 78, 85
13, 16507, Control_c, 11, 11, 85
13, 16523, Note_on_c, 11, 78, 0
13, 16523, Note_on_c, 11, 75, 85
13, 16563, Note_on_c, 11, 75, 0
13, 16563, Note_on_c, 11, 78, 85
13, 16581, Control_c, 11, 11, 86
13, 16603, Note_on_c, 11, 78, 0
13, 16603, Note_on_c, 11, 75, 85
13, 16643, Note_on_c, 11, 75, 0
13, 16643, Note_on_c, 11, 78, 85
13, 16655, Control_c, 11, 11, 87
13, 16683, Note_on_c, 11, 78, 0
13, 16683, Note_on_c, 11, 75, 85
13, 16723, Note_on_c, 11, 75, 0
13, 16723, Note_on_c, 11, 78, 85
13, 16729, Control_c, 11, 11, 88
13, 16763, Note_on_c, 11, 78, 0
13, 16763, Note_on_c, 11, 75, 85
13, 16793, Note_on_c, 11, 75, 0
13, 16803, Control_c, 11, 11, 89
13, 16803, Note_on_c, 11, 73, 85
13, 16843, Note_on_c, 11, 73, 0
13, 16843, Note_on_c, 11, 76, 85
13, 16876, Control_c, 11, 11, 90
13, 16883, Note_on_c, 11, 76, 0
13, 16883, Note_on_c, 11, 73, 86
13, 16923, Note_on_c, 11, 73, 0
13, 16923, Note_on_c, 11, 76, 86
13, 16950, Control_c, 11, 11, 91
13, 16963, Note_on_c, 11, 76, 0
13, 16963, Note_on_c, 11, 73, 87
13, 17003, Note_on_c, 11, 73, 0
13, 17003, Note_on_c, 11, 76, 88
13, 17024, Control_c, 11, 11, 92
13, 17043, Note_on_c, 11, 76, 0
13, 17043, Note_on_c, 11, 73, 88
13, 17083, Note_on_c, 11, 73, 0
13, 17083, Note_on_c, 11, 76, 89
13, 17098, Control_c, 11, 11, 93
13, 17123, Note_on_c, 11, 76, 0
13, 17123, Note_on_c, 11, 73, 90
13, 17163, Note_on_c, 11, 73, 0
13, 17163, Note_on_c, 11, 76, 90
13, 17172, Control_c, 11, 11, 94
13, 17203, Note_on_c, 11, 76, 0
13, 17203, Note_on_c, 11, 73, 91
13, 17243, Note_on_c, 11, 73, 0
13, 17243, Note_on_c, 11, 76, 91
13, 17246, Control_c, 11, 11, 95
13, 17273, Note_on_c, 11, 76, 0
13, 17283, Note_on_c, 11, 73, 92
13, 17319, Control_c, 11, 11, 96
13, 17323, Note_on_c, 11, 73, 0
13, 17323, Note_on_c, 11, 76, 93
13, 17363, Note_on_c, 11, 76, 0
13, 17363, Note_on_c, 11, 73, 93
13, 17393, Control_c, 11, 11, 97
13, 17403, Note_on_c, 11, 73, 0
13, 17403, Note_on_c, 11, 76, 94
13, 17443, Note_on_c, 11, 76, 0
13, 17443, Note_on_c, 11, 73, 95
13, 17467, Control_c, 11, 11, 98
13, 17483, Note_on_c, 11, 73, 0
13, 17483, Note_on_c, 11, 76, 95
13, 17523, Note_on_c, 11, 76, 0
13, 17523, Note_on_c, 11, 73, 96
13, 17541, Control_c, 11, 11, 99
13, 17563, Note_on_c, 11, 73, 0
13, 17563, Note_on_c, 11, 76, 96
13, 17603, Note_on_c, 11, 76, 0
13, 17603, Note_on_c, 11, 73, 97
13, 17615, Control_c, 11, 11, 100
13, 17643, Note_on_c, 11, 73, 0
13, 17643, Note_on_c, 11, 76, 98
13, 17683, Note_on_c, 11, 76, 0
13, 17683, Note_on_c, 11, 73, 98
13, 17689, Control_c, 11, 11, 101
13, 17723, Note_on_c, 11, 73, 0
13, 17723, Note_on_c, 11, 76, 99
13, 17753, Note_on_c, 11, 76, 0
13, 17763, Control_c, 11, 11, 102
13, 17763, Note_on_c, 11, 75, 100
13, 17793, Note_on_c, 11, 75, 0
13, 17803, Note_on_c, 11, 71, 100
13, 17833, Note_on_c, 11, 71, 0
13, 17843, Note_on_c, 11, 83, 100
13, 17843, Note_on_c, 11, 71, 100
13, 17913, Note_on_c, 11, 71, 0
13, 17913, Note_on_c, 11, 83, 0
13, 17923, Note_on_c, 11, 71, 100
13, 17953, Note_on_c, 11, 71, 0
13, 17963, Note_on_c, 11, 71, 100
13, 17963, Note_on_c, 11, 83, 100
13, 18033, Note_on_c, 11, 83, 0
13, 18033, Note_on_c, 11, 71, 0
13, 18043, Note_on_c, 11, 71, 100
13, 18073, Note_on_c, 11, 71, 0
13, 18083, Note_on_c, 11, 71, 100
13, 18083, Note_on_c, 11, 83, 100
13, 18153, Note_on_c, 11, 83, 0
13, 18153, Note_on_c, 11, 71, 0
13, 18163, Note_on_c, 11, 71, 100
13, 18193, Note_on_c, 11, 71, 0
13, 18203, Note_on_c, 11, 83, 100
13, 18203, Note_on_c, 11, 71, 100
13, 18273, Note_on_c, 11, 71, 0
13, 18273, Note_on_c, 11, 83, 0
13, 18283, Note_on_c, 11, 71, 100
13, 18313, Note_on_c, 11, 71, 0
13, 18323, Note_on_c, 11, 83, 100
13, 18323, Note_on_c, 11, 71, 100
13, 18393, Note_on_c, 11, 71, 0
13, 18393, Note_on_c, 11, 83, 0
13, 18403, Note_on_c, 11, 71, 100
13, 18433, Note_on_c, 11, 71, 0
13, 18443, Note_on_c, 11, 71, 100
13, 18443, Note_on_c, 11, 83, 100
13, 18513, Note_on_c, 11, 83, 0
13, 18513, Note_on_c, 11, 71, 0
13, 18523, Note_on_c, 11, 71, 100
13, 18553, Note_on_c, 11, 71, 0
13, 18563, Note_on_c, 11, 83, 100
13, 18563, Note_on_c, 11, 71, 100
13, 18633, Note_on_c, 11, 71, 0
13, 18633, Note_on_c, 11, 83, 0
13, 18643, Note_on_c, 11, 71, 100
13, 18673, Note_on_c, 11, 71, 0
13, 18683, Control_c, 11, 11, 102
13, 18683, Note_on_c, 11, 83, 100
13, 18683, Note_on_c, 11, 71, 100
13, 18687, Control_c, 11, 11, 99
13, 18691, Control_c, 11, 11, 96
13, 18695, Control_c, 11, 11, 93
13, 18701, Control_c, 11, 11, 89
13, 18705, Control_c, 11, 11, 86
13, 18711, Control_c, 11, 11, 82
13, 18717, Control_c, 11, 11, 78
13, 18721, Control_c, 11, 11, 75
13, 18727, Control_c, 11, 11, 71
13, 18733, Control_c, 11, 11, 67
13, 18737, Control_c, 11, 11, 64
13, 18743, Control_c, 11, 11, 60
13, 18749, Control_c, 11, 11, 56
13, 18753, Control_c, 11, 11, 53
13, 18759, Control_c, 11, 11, 49
13, 18773, Note_on_c, 11, 71, 0
13, 18773, Note_on_c, 11, 83, 0
13, 19563, Note_on_c, 11, 66, 85
13, 19723, Note_on_c, 11, 66, 0
13, 19723, Note_on_c, 11, 68, 85
13, 19763, Note_on_c, 11, 68, 0
13, 19763, Note_on_c, 11, 66, 85
13, 19803, Note_on_c, 11, 66, 0
13, 19803, Note_on_c, 11, 65, 85
13, 19843, Note_on_c, 11, 65, 0
13, 19843, Note_on_c, 11, 66, 85
13, 19883, Note_on_c, 11, 66, 0
13, 19883, Note_on_c, 11, 65, 85
13, 19923, Note_on_c, 11, 65, 0
13, 19923, Note_on_c, 11, 66, 85
13, 19963, Note_on_c, 11, 66, 0
13, 19963, Note_on_c, 11, 68, 85
13, 20003, Note_on_c, 11, 68, 0
13, 20003, Note_on_c, 11, 66, 85
13, 20043, Note_on_c, 11, 66, 0
13, 20043, Note_on_c, 11, 65, 85
13, 20083, Note_on_c, 11, 65, 0
13, 20083, Note_on_c, 11, 66, 85
13, 20123, Note_on_c, 11, 66, 0
13, 20123, Note_on_c, 11, 65, 85
13, 20163, Note_on_c, 11, 65, 0
13, 20163, Note_on_c, 11, 66, 85
13, 20283, Note_on_c, 11, 66, 0
13, 22083, Note_on_c, 11, 69, 61
13, 22123, Note_on_c, 11, 69, 0
13, 22123, Note_on_c, 11, 71, 70
13, 22163, Note_on_c, 11, 71, 0
13, 22163, Note_on_c, 11, 69, 73
13, 22203, Note_on_c, 11, 69, 0
13, 22203, Note_on_c, 11, 68, 76
13, 22243, Note_on_c, 11, 68, 0
13, 22243, Note_on_c, 11, 69, 79
13, 22283, Note_on_c, 11, 69, 0
13, 22283, Note_on_c, 11, 68, 81
13, 22323, Note_on_c, 11, 68, 0
13, 22323, Note_on_c, 11, 69, 85
13, 22363, Note_on_c, 11, 69, 0
13, 22363, Note_on_c, 11, 71, 85
13, 22403, Note_on_c, 11, 71, 0
13, 22403, Note_on_c, 11, 69, 85
13, 22443, Note_on_c, 11, 69, 0
13, 22443, Note_on_c, 11, 68, 85
13, 22483, Note_on_c, 11, 68, 0
13, 22483, Note_on_c, 11, 69, 85
13, 22523, Note_on_c, 11, 69, 0
13, 22523, Note_on_c, 11, 68, 85
13, 22563, Note_on_c, 11, 68, 0
13, 22563, Control_c, 11, 11, 47
13, 22563, Note_on_c, 11, 69, 85
13, 22590, Control_c, 11, 11, 48
13, 22608, Note_on_c, 11, 69, 0
13, 22618, Control_c, 11, 11, 49
13, 22623, Note_on_c, 11, 69, 85
13, 22646, Control_c, 11, 11, 50
13, 22674, Control_c, 11, 11, 51
13, 22702, Control_c, 11, 11, 52
13, 22728, Note_on_c, 11, 69, 0
13, 22730, Control_c, 11, 11, 53
13, 22743, Note_on_c, 11, 69, 85
13, 22758, Control_c, 11, 11, 54
13, 22786, Control_c, 11, 11, 55
13, 22814, Control_c, 11, 11, 56
13, 22842, Control_c, 11, 11, 57
13, 22848, Note_on_c, 11, 69, 0
13, 22863, Note_on_c, 11, 69, 85
13, 22870, Control_c, 11, 11, 58
13, 22898, Control_c, 11, 11, 59
13, 22926, Control_c, 11, 11, 60
13, 22954, Control_c, 11, 11, 61
13, 22968, Note_on_c, 11, 69, 0
13, 22982, Control_c, 11, 11, 62
13, 22983, Note_on_c, 11, 69, 85
13, 23010, Control_c, 11, 11, 63
13, 23038, Control_c, 11, 11, 64
13, 23066, Control_c, 11, 11, 65
13, 23088, Note_on_c, 11, 69, 0
13, 23094, Control_c, 11, 11, 66
13, 23103, Note_on_c, 11, 69, 85
13, 23122, Control_c, 11, 11, 67
13, 23150, Control_c, 11, 11, 68
13, 23178, Control_c, 11, 11, 69
13, 23206, Control_c, 11, 11, 70
13, 23208, Note_on_c, 11, 69, 0
13, 23223, Note_on_c, 11, 69, 85
13, 23234, Control_c, 11, 11, 71
13, 23262, Control_c, 11, 11, 72
13, 23290, Control_c, 11, 11, 73
13, 23318, Control_c, 11, 11, 74
13, 23328, Note_on_c, 11, 69, 0
13, 23343, Note_on_c, 11, 69, 85
13, 23346, Control_c, 11, 11, 75
13, 23374, Control_c, 11, 11, 76
13, 23402, Control_c, 11, 11, 77
13, 23448, Note_on_c, 11, 69, 0
13, 23463, Note_on_c, 11, 69, 76
13, 23493, Control_c, 11, 11, 77
13, 23495, Control_c, 11, 11, 74
13, 23497, Control_c, 11, 11, 71
13, 23500, Control_c, 11, 11, 67
13, 23503, Control_c, 11, 11, 63
13, 23506, Control_c, 11, 11, 59
13, 23508, Note_on_c, 11, 69, 0
13, 23509, Control_c, 11, 11, 55
13, 23512, Control_c, 11, 11, 51
13, 23515, Control_c, 11, 11, 47
13, 23518, Control_c, 11, 11, 43
13, 23521, Control_c, 11, 11, 39
13, 23523, Note_on_c, 11, 68, 100
13, 24468, Note_on_c, 11, 68, 0
13, 24483, Control_c, 11, 11, 42
13, 24483, Note_on_c, 11, 69, 100
13, 24603, Note_on_c, 11, 69, 0
13, 24603, Note_on_c, 11, 63, 100
13, 24843, Note_on_c, 11, 63, 0
13, 24843, Note_on_c, 11, 64, 100
13, 24903, Note_on_c, 11, 64, 0
13, 24903, Note_on_c, 11, 66, 100
13, 24963, Note_on_c, 11, 66, 0
13, 24963, Note_on_c, 11, 68, 100
13, 25428, Note_on_c, 11, 68, 0
13, 25443, Note_on_c, 11, 69, 100
13, 25563, Note_on_c, 11, 69, 0
13, 25563, Note_on_c, 11, 63, 100
13, 25803, Note_on_c, 11, 63, 0
13, 25803, Note_on_c, 11, 64, 100
13, 25863, Note_on_c, 11, 64, 0
13, 25863, Note_on_c, 11, 66, 100
13, 25923, Note_on_c, 11, 66, 0
13, 25923, Note_on_c, 11, 68, 100
13, 25968, Note_on_c, 11, 68, 0
13, 25983, Note_on_c, 11, 68, 100
13, 26088, Note_on_c, 11, 68, 0
13, 26103, Note_on_c, 11, 68, 100
13, 26208, Note_on_c, 11, 68, 0
13, 26223, Note_on_c, 11, 68, 100
13, 26328, Note_on_c, 11, 68, 0
13, 26343, Note_on_c, 11, 68, 100
13, 26388, Note_on_c, 11, 68, 0
13, 26403, Control_c, 11, 11, 37
13, 26403, Note_on_c, 11, 71, 100
13, 26448, Note_on_c, 11, 71, 0
13, 26463, Note_on_c, 11, 71, 100
13, 26568, Note_on_c, 11, 71, 0
13, 26583, Note_on_c, 11, 71, 100
13, 26688, Note_on_c, 11, 71, 0
13, 26703, Note_on_c, 11, 71, 100
13, 26808, Note_on_c, 11, 71, 0
13, 26823, Note_on_c, 11, 71, 100
13, 26928, Note_on_c, 11, 71, 0
13, 26943, Note_on_c, 11, 71, 100
13, 27048, Note_on_c, 11, 71, 0
13, 27063, Note_on_c, 11, 71, 100
13, 27168, Note_on_c, 11, 71, 0
13, 27183, Note_on_c, 11, 71, 100
13, 27288, Note_on_c, 11, 71, 0
13, 27303, Note_on_c, 11, 71, 100
13, 27408, Note_on_c, 11, 71, 0
13, 27423, Note_on_c, 11, 71, 100
13, 27528, Note_on_c, 11, 71, 0
13, 27543, Note_on_c, 11, 71, 100
13, 27648, Note_on_c, 11, 71, 0
13, 27663, Note_on_c, 11, 71, 100
13, 27768, Note_on_c, 11, 71, 0
13, 27783, Note_on_c, 11, 71, 100
13, 27888, Note_on_c, 11, 71, 0
13, 27903, Note_on_c, 11, 71, 100
13, 28008, Note_on_c, 11, 71, 0
13, 28023, Note_on_c, 11, 71, 100
13, 28128, Note_on_c, 11, 71, 0
13, 28143, Note_on_c, 11, 71, 100
13, 28248, Note_on_c, 11, 71, 0
13, 28263, Note_on_c, 11, 71, 100
13, 28308, Note_on_c, 11, 71, 0
13, 28323, Note_on_c, 11, 66, 100
13, 28443, Note_on_c, 11, 66, 0
13, 28443, Note_on_c, 11, 69, 100
13, 28563, Note_on_c, 11, 69, 0
13, 28563, Note_on_c, 11, 68, 100
13, 28683, Note_on_c, 11, 68, 0
13, 28683, Note_on_c, 11, 66, 100
13, 28803, Note_on_c, 11, 66, 0
13, 28803, Note_on_c, 11, 64, 100
13, 28923, Note_on_c, 11, 64, 0
13, 28923, Note_on_c, 11, 68, 100
13, 29043, Note_on_c, 11, 68, 0
13, 29043, Note_on_c, 11, 71, 100
13, 29268, Note_on_c, 11, 71, 0
13, 29283, Control_c, 11, 11, 47
13, 29283, Note_on_c, 11, 66, 100
13, 29319, Control_c, 11, 11, 48
13, 29328, Note_on_c, 11, 66, 0
13, 29343, Note_on_c, 11, 66, 100
13, 29355, Control_c, 11, 11, 49
13, 29391, Control_c, 11, 11, 50
13, 29403, Note_on_c, 11, 66, 0
13, 29403, Note_on_c, 11, 69, 100
13, 29427, Control_c, 11, 11, 51
13, 29448, Note_on_c, 11, 69, 0
13, 29463, Control_c, 11, 11, 52
13, 29463, Note_on_c, 11, 69, 100
13, 29499, Control_c, 11, 11, 53
13, 29523, Note_on_c, 11, 69, 0
13, 29523, Note_on_c, 11, 68, 100
13, 29535, Control_c, 11, 11, 54
13, 29568, Note_on_c, 11, 68, 0
13, 29571, Control_c, 11, 11, 55
13, 29583, Note_on_c, 11, 68, 100
13, 29607, Control_c, 11, 11, 56
13, 29643, Note_on_c, 11, 68, 0
13, 29643, Control_c, 11, 11, 57
13, 29643, Note_on_c, 11, 66, 100
13, 29679, Control_c, 11, 11, 58
13, 29688, Note_on_c, 11, 66, 0
13, 29703, Note_on_c, 11, 66, 100
13, 29715, Control_c, 11, 11, 59
13, 29751, Control_c, 11, 11, 60
13, 29763, Note_on_c, 11, 66, 0
13, 29763, Note_on_c, 11, 64, 100
13, 29787, Control_c, 11, 11, 61
13, 29808, Note_on_c, 11, 64, 0
13, 29823, Control_c, 11, 11, 62
13, 29823, Note_on_c, 11, 64, 100
13, 29859, Control_c, 11, 11, 63
13, 29883, Note_on_c, 11, 64, 0
13, 29883, Note_on_c, 11, 68, 100
13, 29895, Control_c, 11, 11, 64
13, 29928, Note_on_c, 11, 68, 0
13, 29931, Control_c, 11, 11, 65
13, 29943, Note_on_c, 11, 68, 100
13, 29967, Control_c, 11, 11, 66
13, 30003, Note_on_c, 11, 68, 0
13, 30003, Control_c, 11, 11, 67
13, 30003, Note_on_c, 11, 71, 100
13, 30039, Control_c, 11, 11, 68
13, 30063, Note_on_c, 11, 71, 0
13, 30063, Note_on_c, 11, 71, 100
13, 30075, Control_c, 11, 11, 69
13, 30108, Note_on_c, 11, 71, 0
13, 30111, Control_c, 11, 11, 70
13, 30123, Note_on_c, 11, 68, 100
13, 30147, Control_c, 11, 11, 71
13, 30183, Note_on_c, 11, 68, 0
13, 30183, Control_c, 11, 11, 72
13, 30183, Note_on_c, 11, 68, 100
13, 30219, Control_c, 11, 11, 73
13, 30228, Note_on_c, 11, 68, 0
13, 30243, Note_on_c, 11, 66, 100
13, 30255, Control_c, 11, 11, 74
13, 30291, Control_c, 11, 11, 75
13, 30303, Note_on_c, 11, 66, 0
13, 30303, Note_on_c, 11, 66, 100
13, 30327, Control_c, 11, 11, 76
13, 30348, Note_on_c, 11, 66, 0
13, 30363, Control_c, 11, 11, 77
13, 30363, Note_on_c, 11, 69, 100
13, 30399, Control_c, 11, 11, 78
13, 30423, Note_on_c, 11, 69, 0
13, 30423, Note_on_c, 11, 69, 100
13, 30435, Control_c, 11, 11, 79
13, 30468, Note_on_c, 11, 69, 0
13, 30471, Control_c, 11, 11, 80
13, 30483, Note_on_c, 11, 68, 100
13, 30507, Control_c, 11, 11, 81
13, 30543, Note_on_c, 11, 68, 0
13, 30543, Control_c, 11, 11, 82
13, 30543, Note_on_c, 11, 68, 100
13, 30579, Control_c, 11, 11, 83
13, 30588, Note_on_c, 11, 68, 0
13, 30603, Note_on_c, 11, 66, 100
13, 30615, Control_c, 11, 11, 84
13, 30651, Control_c, 11, 11, 85
13, 30663, Note_on_c, 11, 66, 0
13, 30663, Note_on_c, 11, 66, 100
13, 30687, Control_c, 11, 11, 86
13, 30708, Note_on_c, 11, 66, 0
13, 30723, Control_c, 11, 11, 87
13, 30723, Note_on_c, 11, 64, 115
13, 30823, Note_on_c, 11, 64, 0
13, 30843, Note_on_c, 11, 76, 115
13, 31048, Note_on_c, 11, 76, 0
13, 31083, Note_on_c, 11, 76, 115
13, 31113, Note_on_c, 11, 76, 0
13, 31143, Note_on_c, 11, 75, 115
13, 31173, Note_on_c, 11, 75, 0
13, 31203, Note_on_c, 11, 75, 115
13, 31233, Note_on_c, 11, 75, 0
13, 31263, Note_on_c, 11, 73, 115
13, 31293, Note_on_c, 11, 73, 0
13, 31323, Note_on_c, 11, 73, 115
13, 31528, Note_on_c, 11, 73, 0
13, 31563, Note_on_c, 11, 73, 115
13, 31593, Note_on_c, 11, 73, 0
13, 31623, Note_on_c, 11, 71, 115
13, 31653, Note_on_c, 11, 71, 0
13, 31683, Note_on_c, 11, 71, 115
13, 31713, Note_on_c, 11, 71, 0
13, 31743, Note_on_c, 11, 69, 115
13, 31773, Note_on_c, 11, 69, 0
13, 31803, Note_on_c, 11, 69, 115
13, 32008, Note_on_c, 11, 69, 0
13, 32043, Note_on_c, 11, 69, 115
13, 32073, Note_on_c, 11, 69, 0
13, 32103, Note_on_c, 11, 68, 115
13, 32133, Note_on_c, 11, 68, 0
13, 32163, Note_on_c, 11, 68, 115
13, 32208, Note_on_c, 11, 68, 0
13, 32223, Note_on_c, 11, 66, 115
13, 32268, Note_on_c, 11, 66, 0
13, 32283, Note_on_c, 11, 64, 115
13, 32328, Note_on_c, 11, 64, 0
13, 32343, Note_on_c, 11, 63, 115
13, 32388, Note_on_c, 11, 63, 0
13, 32403, Note_on_c, 11, 63, 115
13, 32448, Note_on_c, 11, 63, 0
13, 32463, Note_on_c, 11, 61, 115
13, 32508, Note_on_c, 11, 61, 0
13, 32523, Note_on_c, 11, 59, 115
13, 32568, Note_on_c, 11, 59, 0
13, 32583, Note_on_c, 11, 57, 115
13, 32628, Note_on_c, 11, 57, 0
13, 32643, Note_on_c, 11, 56, 115
13, 32688, Note_on_c, 11, 56, 0
13, 32703, Note_on_c, 11, 68, 115
13, 32748, Note_on_c, 11, 68, 0
13, 32763, Note_on_c, 11, 68, 115
13, 32808, Note_on_c, 11, 68, 0
13, 32823, Note_on_c, 11, 68, 115
13, 32868, Note_on_c, 11, 68, 0
13, 32883, Note_on_c, 11, 68, 115
13, 32928, Note_on_c, 11, 68, 0
13, 32943, Note_on_c, 11, 68, 115
13, 32988, Note_on_c, 11, 68, 0
13, 33003, Note_on_c, 11, 68, 115
13, 33048, Note_on_c, 11, 68, 0
13, 33063, Note_on_c, 11, 68, 115
13, 33108, Note_on_c, 11, 68, 0
13, 33123, Note_on_c, 11, 69, 115
13, 33168, Note_on_c, 11, 69, 0
13, 33183, Note_on_c, 11, 69, 115
13, 33228, Note_on_c, 11, 69, 0
13, 33243, Note_on_c, 11, 69, 115
13, 33288, Note_on_c, 11, 69, 0
13, 33303, Note_on_c, 11, 69, 115
13, 33348, Note_on_c, 11, 69, 0
13, 33363, Note_on_c, 11, 69, 115
13, 33408, Note_on_c, 11, 69, 0
13, 33423, Note_on_c, 11, 69, 115
13, 33468, Note_on_c, 11, 69, 0
13, 33483, Note_on_c, 11, 69, 115
13, 33528, Note_on_c, 11, 69, 0
13, 33543, Note_on_c, 11, 71, 115
13, 33588, Note_on_c, 11, 71, 0
13, 33603, Note_on_c, 11, 73, 115
13, 33648, Note_on_c, 11, 73, 0
13, 33663, Note_on_c, 11, 73, 115
13, 33708, Note_on_c, 11, 73, 0
13, 33723, Note_on_c, 11, 73, 115
13, 33768, Note_on_c, 11, 73, 0
13, 33783, Note_on_c, 11, 73, 115
13, 33828, Note_on_c, 11, 73, 0
13, 33843, Note_on_c, 11, 75, 115
13, 33888, Note_on_c, 11, 75, 0
13, 33903, Note_on_c, 11, 75, 115
13, 33948, Note_on_c, 11, 75, 0
13, 33963, Note_on_c, 11, 75, 115
13, 34008, Note_on_c, 11, 75, 0
13, 34023, Note_on_c, 11, 76, 115
13, 34068, Note_on_c, 11, 76, 0
13, 34083, Note_on_c, 11, 68, 115
13, 34128, Note_on_c, 11, 68, 0
13, 34143, Note_on_c, 11, 66, 115
13, 34188, Note_on_c, 11, 66, 0
13, 34203, Note_on_c, 11, 64, 115
13, 34248, Note_on_c, 11, 64, 0
13, 34263, Note_on_c, 11, 63, 115
13, 34308, Note_on_c, 11, 63, 0
13, 34323, Note_on_c, 11, 63, 115
13, 34368, Note_on_c, 11, 63, 0
13, 34383, Note_on_c, 11, 61, 115
13, 34428, Note_on_c, 11, 61, 0
13, 34443, Note_on_c, 11, 59, 115
13, 34488, Note_on_c, 11, 59, 0
13, 34503, Note_on_c, 11, 57, 115
13, 34548, Note_on_c, 11, 57, 0
13, 34563, Note_on_c, 11, 56, 115
13, 34683, Note_on_c, 11, 56, 0
13, 34803, Note_on_c, 11, 80, 115
13, 34803, Note_on_c, 11, 71, 115
13, 34803, Note_on_c, 11, 64, 115
13, 34923, Note_on_c, 11, 64, 0
13, 34923, Note_on_c, 11, 71, 0
13, 34923, Note_on_c, 11, 80, 0
13, 35043, Note_on_c, 11, 80, 115
13, 35043, Note_on_c, 11, 71, 115
13, 35043, Note_on_c, 11, 64, 115
13, 35163, Note_on_c, 11, 64, 0
13, 35163, Note_on_c, 11, 71, 0
13, 35163, Note_on_c, 11, 80, 0
13, 35283, Note_on_c, 11, 80, 115
13, 35283, Note_on_c, 11, 71, 115
13, 35283, Note_on_c, 11, 64, 115
13, 35403, Note_on_c, 11, 64, 0
13, 35403, Note_on_c, 11, 71, 0
13, 35403, Note_on_c, 11, 80, 0
13, 35523, Control_c, 11, 11, 107
13, 35523, Note_on_c, 11, 69, 115
13, 35523, Note_on_c, 11, 66, 115
13, 35540, Control_c, 11, 11, 104
13, 35558, Control_c, 11, 11, 101
13, 35573, Note_on_c, 11, 66, 0
13, 35573, Note_on_c, 11, 69, 0
13, 35576, Control_c, 11, 11, 98
13, 35583, Note_on_c, 11, 69, 115
13, 35583, Note_on_c, 11, 66, 115
13, 35594, Control_c, 11, 11, 95
13, 35612, Control_c, 11, 11, 92
13, 35630, Control_c, 11, 11, 89
13, 35633, Note_on_c, 11, 66, 0
13, 35633, Note_on_c, 11, 69, 0
13, 35643, Note_on_c, 11, 66, 115
13, 35643, Note_on_c, 11, 69, 115
13, 35693, Note_on_c, 11, 69, 0
13, 35693, Note_on_c, 11, 66, 0
13, 35703, Note_on_c, 11, 69, 115
13, 35703, Note_on_c, 11, 66, 115
13, 35753, Note_on_c, 11, 66, 0
13, 35753, Note_on_c, 11, 69, 0
13, 35763, Note_on_c, 11, 66, 115
13, 35763, Note_on_c, 11, 69, 115
13, 35813, Note_on_c, 11, 69, 0
13, 35813, Note_on_c, 11, 66, 0
13, 35823, Note_on_c, 11, 69, 115
13, 35823, Note_on_c, 11, 66, 115
13, 35873, Note_on_c, 11, 66, 0
13, 35873, Note_on_c, 11, 69, 0
13, 35883, Note_on_c, 11, 69, 115
13, 35883, Note_on_c, 11, 66, 115
13, 35933, Note_on_c, 11, 66, 0
13, 35933, Note_on_c, 11, 69, 0
13, 35943, Note_on_c, 11, 66, 115
13, 35943, Note_on_c, 11, 69, 115
13, 35993, Note_on_c, 11, 69, 0
13, 35993, Note_on_c, 11, 66, 0
13, 36003, Note_on_c, 11, 66, 115
13, 36003, Note_on_c, 11, 69, 115
13, 36053, Note_on_c, 11, 69, 0
13, 36053, Note_on_c, 11, 66, 0
13, 36063, Note_on_c, 11, 66, 115
13, 36063, Note_on_c, 11, 69, 115
13, 36113, Note_on_c, 11, 69, 0
13, 36113, Note_on_c, 11, 66, 0
13, 36123, Note_on_c, 11, 66, 115
13, 36123, Note_on_c, 11, 69, 115
13, 36173, Note_on_c, 11, 69, 0
13, 36173, Note_on_c, 11, 66, 0
13, 36183, Note_on_c, 11, 69, 115
13, 36183, Note_on_c, 11, 66, 115
13, 36233, Note_on_c, 11, 66, 0
13, 36233, Note_on_c, 11, 69, 0
13, 36243, Note_on_c, 11, 66, 115
13, 36243, Note_on_c, 11, 69, 115
13, 36293, Note_on_c, 11, 69, 0
13, 36293, Note_on_c, 11, 66, 0
13, 36303, Note_on_c, 11, 66, 115
13, 36303, Note_on_c, 11, 69, 115
13, 36353, Note_on_c, 11, 69, 0
13, 36353, Note_on_c, 11, 66, 0
13, 36363, Note_on_c, 11, 69, 115
13, 36363, Note_on_c, 11, 66, 115
13, 36413, Note_on_c, 11, 66, 0
13, 36413, Note_on_c, 11, 69, 0
13, 36423, Note_on_c, 11, 66, 115
13, 36423, Note_on_c, 11, 69, 115
13, 36473, Note_on_c, 11, 69, 0
13, 36473, Note_on_c, 11, 66, 0
13, 36483, Note_on_c, 11, 68, 115
13, 36603, Note_on_c, 11, 68, 0
13, 36723, Note_on_c, 11, 68, 115
13, 36723, Note_on_c, 11, 76, 115
13, 36843, Note_on_c, 11, 76, 0
13, 36843, Note_on_c, 11, 68, 0
13, 36963, Note_on_c, 11, 80, 115
13, 36963, Note_on_c, 11, 64, 115
13, 36963, Note_on_c, 11, 71, 115
13, 37083, Note_on_c, 11, 71, 0
13, 37083, Note_on_c, 11, 64, 0
13, 37083, Note_on_c, 11, 80, 0
13, 37203, Note_on_c, 11, 80, 115
13, 37203, Note_on_c, 11, 71, 115
13, 37203, Note_on_c, 11, 64, 115
13, 37323, Note_on_c, 11, 64, 0
13, 37323, Note_on_c, 11, 71, 0
13, 37323, Note_on_c, 11, 80, 0
13, 37443, Control_c, 11, 11, 107
13, 37443, Note_on_c, 11, 69, 115
13, 37443, Note_on_c, 11, 66, 115
13, 37460, Control_c, 11, 11, 104
13, 37478, Control_c, 11, 11, 101
13, 37493, Note_on_c, 11, 66, 0
13, 37493, Note_on_c, 11, 69, 0
13, 37496, Control_c, 11, 11, 98
13, 37503, Note_on_c, 11, 66, 115
13, 37503, Note_on_c, 11, 69, 115
13, 37514, Control_c, 11, 11, 95
13, 37532, Control_c, 11, 11, 92
13, 37550, Control_c, 11, 11, 89
13, 37553, Note_on_c, 11, 69, 0
13, 37553, Note_on_c, 11, 66, 0
13, 37563, Note_on_c, 11, 66, 115
13, 37563, Note_on_c, 11, 69, 115
13, 37613, Note_on_c, 11, 69, 0
13, 37613, Note_on_c, 11, 66, 0
13, 37623, Note_on_c, 11, 69, 115
13, 37623, Note_on_c, 11, 66, 115
13, 37673, Note_on_c, 11, 66, 0
13, 37673, Note_on_c, 11, 69, 0
13, 37683, Note_on_c, 11, 69, 115
13, 37683, Note_on_c, 11, 66, 115
13, 37733, Note_on_c, 11, 66, 0
13, 37733, Note_on_c, 11, 69, 0
13, 37743, Note_on_c, 11, 66, 115
13, 37743, Note_on_c, 11, 69, 115
13, 37793, Note_on_c, 11, 69, 0
13, 37793, Note_on_c, 11, 66, 0
13, 37803, Note_on_c, 11, 69, 115
13, 37803, Note_on_c, 11, 66, 115
13, 37853, Note_on_c, 11, 66, 0
13, 37853, Note_on_c, 11, 69, 0
13, 37863, Note_on_c, 11, 69, 115
13, 37863, Note_on_c, 11, 66, 115
13, 37913, Note_on_c, 11, 66, 0
13, 37913, Note_on_c, 11, 69, 0
13, 37923, Note_on_c, 11, 66, 115
13, 37923, Note_on_c, 11, 69, 115
13, 37973, Note_on_c, 11, 69, 0
13, 37973, Note_on_c, 11, 66, 0
13, 37983, Note_on_c, 11, 69, 115
13, 37983, Note_on_c, 11, 66, 115
13, 38033, Note_on_c, 11, 66, 0
13, 38033, Note_on_c, 11, 69, 0
13, 38043, Note_on_c, 11, 66, 115
13, 38043, Note_on_c, 11, 69, 115
13, 38093, Note_on_c, 11, 69, 0
13, 38093, Note_on_c, 11, 66, 0
13, 38103, Note_on_c, 11, 66, 115
13, 38103, Note_on_c, 11, 69, 115
13, 38153, Note_on_c, 11, 69, 0
13, 38153, Note_on_c, 11, 66, 0
13, 38163, Note_on_c, 11, 69, 115
13, 38163, Note_on_c, 11, 66, 115
13, 38213, Note_on_c, 11, 66, 0
13, 38213, Note_on_c, 11, 69, 0
13, 38223, Note_on_c, 11, 66, 115
13, 38223, Note_on_c, 11, 69, 115
13, 38273, Note_on_c, 11, 69, 0
13, 38273, Note_on_c, 11, 66, 0
13, 38283, Note_on_c, 11, 69, 115
13, 38283, Note_on_c, 11, 66, 115
13, 38333, Note_on_c, 11, 66, 0
13, 38333, Note_on_c, 11, 69, 0
13, 38343, Note_on_c, 11, 69, 115
13, 38343, Note_on_c, 11, 66, 115
13, 38393, Note_on_c, 11, 66, 0
13, 38393, Note_on_c, 11, 69, 0
13, 38403, Note_on_c, 11, 68, 115
13, 38453, Note_on_c, 11, 68, 0
13, 38463, Note_on_c, 11, 68, 115
13, 38513, Note_on_c, 11, 68, 0
13, 38523, Note_on_c, 11, 68, 115
13, 38573, Note_on_c, 11, 68, 0
13, 38583, Note_on_c, 11, 68, 115
13, 38633, Note_on_c, 11, 68, 0
13, 38643, Note_on_c, 11, 68, 115
13, 38693, Note_on_c, 11, 68, 0
13, 38703, Note_on_c, 11, 68, 115
13, 38753, Note_on_c, 11, 68, 0
13, 38763, Note_on_c, 11, 68, 115
13, 38813, Note_on_c, 11, 68, 0
13, 38823, Note_on_c, 11, 68, 115
13, 38873, Note_on_c, 11, 68, 0
13, 38883, Control_c, 11, 11, 107
13, 38883, Note_on_c, 11, 68, 115
13, 38900, Control_c, 11, 11, 104
13, 38918, Control_c, 11, 11, 101
13, 38933, Note_on_c, 11, 68, 0
13, 38936, Control_c, 11, 11, 98
13, 38943, Note_on_c, 11, 68, 115
13, 38954, Control_c, 11, 11, 95
13, 38972, Control_c, 11, 11, 92
13, 38990, Control_c, 11, 11, 89
13, 38993, Note_on_c, 11, 68, 0
13, 39003, Note_on_c, 11, 68, 115
13, 39053, Note_on_c, 11, 68, 0
13, 39063, Note_on_c, 11, 68, 115
13, 39113, Note_on_c, 11, 68, 0
13, 39123, Note_on_c, 11, 68, 115
13, 39153, Note_on_c, 11, 68, 0
13, 39183, Note_on_c, 11, 64, 115
13, 39213, Note_on_c, 11, 64, 0
13, 39243, Note_on_c, 11, 61, 115
13, 39273, Note_on_c, 11, 61, 0
13, 39303, Note_on_c, 11, 59, 115
13, 39333, Note_on_c, 11, 59, 0
13, 39363, Note_on_c, 11, 58, 103
13, 39483, Note_on_c, 11, 58, 0
13, 39963, Control_c, 11, 11, 47
13, 39963, Note_on_c, 11, 63, 100
13, 40023, Note_on_c, 11, 63, 0
13, 40023, Note_on_c, 11, 64, 100
13, 40083, Note_on_c, 11, 64, 0
13, 40083, Note_on_c, 11, 66, 100
13, 40143, Note_on_c, 11, 66, 0
13, 40203, Note_on_c, 11, 66, 100
13, 40263, Note_on_c, 11, 66, 0
13, 40263, Note_on_c, 11, 68, 100
13, 40323, Note_on_c, 11, 68, 0
13, 40323, Note_on_c, 11, 64, 100
13, 40383, Note_on_c, 11, 64, 0
13, 40443, Note_on_c, 11, 70, 100
13, 40503, Note_on_c, 11, 70, 0
13, 40503, Note_on_c, 11, 71, 100
13, 40563, Note_on_c, 11, 71, 0
13, 40563, Note_on_c, 11, 73, 100
13, 40623, Note_on_c, 11, 73, 0
13, 40683, Note_on_c, 11, 73, 100
13, 40743, Note_on_c, 11, 73, 0
13, 40743, Note_on_c, 11, 75, 100
13, 40803, Note_on_c, 11, 75, 0
13, 40803, Note_on_c, 11, 71, 100
13, 40863, Note_on_c, 11, 71, 0
13, 40923, Note_on_c, 11, 71, 100
13, 40983, Note_on_c, 11, 71, 0
13, 40983, Note_on_c, 11, 73, 100
13, 41043, Note_on_c, 11, 73, 0
13, 41043, Note_on_c, 11, 75, 100
13, 41103, Note_on_c, 11, 75, 0
13, 41163, Note_on_c, 11, 75, 100
13, 41223, Note_on_c, 11, 75, 0
13, 41223, Note_on_c, 11, 75, 100
13, 41283, Note_on_c, 11, 75, 0
13, 41283, Note_on_c, 11, 73, 90
13, 41343, Note_on_c, 11, 73, 0
13, 41883, Note_on_c, 11, 63, 100
13, 41943, Note_on_c, 11, 63, 0
13, 41943, Note_on_c, 11, 64, 100
13, 42003, Note_on_c, 11, 64, 0
13, 42003, Note_on_c, 11, 66, 100
13, 42063, Note_on_c, 11, 66, 0
13, 42123, Note_on_c, 11, 66, 100
13, 42183, Note_on_c, 11, 66, 0
13, 42183, Note_on_c, 11, 68, 100
13, 42243, Note_on_c, 11, 68, 0
13, 42243, Note_on_c, 11, 64, 100
13, 42303, Note_on_c, 11, 64, 0
13, 42363, Note_on_c, 11, 70, 100
13, 42423, Note_on_c, 11, 70, 0
13, 42423, Note_on_c, 11, 71, 100
13, 42483, Note_on_c, 11, 71, 0
13, 42483, Note_on_c, 11, 73, 100
13, 42543, Note_on_c, 11, 73, 0
13, 42603, Note_on_c, 11, 73, 100
13, 42663, Note_on_c, 11, 73, 0
13, 42663, Note_on_c, 11, 75, 100
13, 42723, Note_on_c, 11, 75, 0
13, 42723, Note_on_c, 11, 71, 100
13, 42783, Note_on_c, 11, 71, 0
13, 42843, Note_on_c, 11, 71, 100
13, 42903, Note_on_c, 11, 71, 0
13, 42903, Note_on_c, 11, 73, 100
13, 42963, Note_on_c, 11, 73, 0
13, 42963, Note_on_c, 11, 75, 100
13, 43023, Note_on_c, 11, 75, 0
13, 43083, Note_on_c, 11, 75, 100
13, 43143, Note_on_c, 11, 75, 0
13, 43143, Note_on_c, 11, 75, 100
13, 43203, Note_on_c, 11, 75, 0
13, 43203, Note_on_c, 11, 73, 90
13, 43263, Note_on_c, 11, 73, 0
13, 43803, Control_c, 11, 11, 47
13, 43803, Note_on_c, 11, 60, 100
13, 43863, Note_on_c, 11, 60, 0
13, 43863, Note_on_c, 11, 61, 100
13, 43923, Note_on_c, 11, 61, 0
13, 43923, Note_on_c, 11, 63, 100
13, 43983, Note_on_c, 11, 63, 0
13, 44043, Note_on_c, 11, 63, 100
13, 44103, Note_on_c, 11, 63, 0
13, 44103, Note_on_c, 11, 64, 100
13, 44163, Note_on_c, 11, 64, 0
13, 44163, Note_on_c, 11, 61, 100
13, 44223, Note_on_c, 11, 61, 0
13, 44763, Note_on_c, 11, 63, 100
13, 44823, Note_on_c, 11, 63, 0
13, 44823, Note_on_c, 11, 64, 100
13, 44883, Note_on_c, 11, 64, 0
13, 44883, Note_on_c, 11, 66, 100
13, 44943, Note_on_c, 11, 66, 0
13, 45003, Note_on_c, 11, 66, 100
13, 45063, Note_on_c, 11, 66, 0
13, 45063, Note_on_c, 11, 68, 100
13, 45123, Note_on_c, 11, 68, 0
13, 45123, Control_c, 11, 11, 47
13, 45123, Note_on_c, 11, 64, 100
13, 45147, Control_c, 11, 11, 48
13, 45171, Control_c, 11, 11, 49
13, 45183, Note_on_c, 11, 64, 0
13, 45195, Control_c, 11, 11, 50
13, 45219, Control_c, 11, 11, 51
13, 45243, Control_c, 11, 11, 52
13, 45243, Note_on_c, 11, 63, 100
13, 45267, Control_c, 11, 11, 53
13, 45291, Control_c, 11, 11, 54
13, 45303, Note_on_c, 11, 63, 0
13, 45303, Note_on_c, 11, 64, 100
13, 45315, Control_c, 11, 11, 55
13, 45339, Control_c, 11, 11, 56
13, 45363, Note_on_c, 11, 64, 0
13, 45363, Control_c, 11, 11, 57
13, 45363, Note_on_c, 11, 66, 100
13, 45387, Control_c, 11, 11, 58
13, 45411, Control_c, 11, 11, 59
13, 45423, Note_on_c, 11, 66, 0
13, 45435, Control_c, 11, 11, 60
13, 45459, Control_c, 11, 11, 61
13, 45483, Control_c, 11, 11, 62
13, 45483, Note_on_c, 11, 66, 100
13, 45507, Control_c, 11, 11, 63
13, 45531, Control_c, 11, 11, 64
13, 45543, Note_on_c, 11, 66, 0
13, 45543, Note_on_c, 11, 68, 100
13, 45555, Control_c, 11, 11, 65
13, 45579, Control_c, 11, 11, 66
13, 45603, Note_on_c, 11, 68, 0
13, 45603, Control_c, 11, 11, 67
13, 45603, Note_on_c, 11, 64, 100
13, 45627, Control_c, 11, 11, 68
13, 45651, Control_c, 11, 11, 69
13, 45663, Note_on_c, 11, 64, 0
13, 45675, Control_c, 11, 11, 70
13, 45699, Control_c, 11, 11, 71
13, 45723, Control_c, 11, 11, 72
13, 45723, Note_on_c, 11, 63, 100
13, 45747, Control_c, 11, 11, 73
13, 45771, Control_c, 11, 11, 74
13, 45783, Note_on_c, 11, 63, 0
13, 45783, Note_on_c, 11, 64, 100
13, 45795, Control_c, 11, 11, 75
13, 45819, Control_c, 11, 11, 76
13, 45843, Note_on_c, 11, 64, 0
13, 45843, Control_c, 11, 11, 77
13, 45843, Note_on_c, 11, 66, 100
13, 45867, Control_c, 11, 11, 78
13, 45891, Control_c, 11, 11, 79
13, 45903, Note_on_c, 11, 66, 0
13, 45915, Control_c, 11, 11, 80
13, 45939, Control_c, 11, 11, 81
13, 45963, Control_c, 11, 11, 82
13, 45963, Note_on_c, 11, 66, 100
13, 45987, Control_c, 11, 11, 83
13, 46011, Control_c, 11, 11, 84
13, 46023, Note_on_c, 11, 66, 0
13, 46023, Note_on_c, 11, 68, 100
13, 46035, Control_c, 11, 11, 85
13, 46059, Control_c, 11, 11, 86
13, 46083, Note_on_c, 11, 68, 0
13, 46083, Control_c, 11, 11, 87
13, 46083, Note_on_c, 11, 64, 100
13, 46143, Note_on_c, 11, 64, 0
13, 46203, Note_on_c, 11, 81, 100
13, 46203, Note_on_c, 11, 71, 100
13, 46243, Note_on_c, 11, 71, 0
13, 46243, Note_on_c, 11, 81, 0
13, 46263, Note_on_c, 11, 81, 100
13, 46263, Note_on_c, 11, 71, 100
13, 46303, Note_on_c, 11, 71, 0
13, 46303, Note_on_c, 11, 81, 0
13, 46323, Note_on_c, 11, 80, 100
13, 46323, Note_on_c, 11, 71, 100
13, 46423, Note_on_c, 11, 71, 0
13, 46423, Note_on_c, 11, 80, 0
13, 46443, Note_on_c, 11, 71, 100
13, 46443, Note_on_c, 11, 81, 100
13, 46483, Note_on_c, 11, 81, 0
13, 46483, Note_on_c, 11, 71, 0
13, 46503, Note_on_c, 11, 71, 100
13, 46503, Note_on_c, 11, 81, 100
13, 46543, Note_on_c, 11, 81, 0
13, 46543, Note_on_c, 11, 71, 0
13, 46563, Note_on_c, 11, 71, 100
13, 46563, Note_on_c, 11, 80, 100
13, 46663, Note_on_c, 11, 80, 0
13, 46663, Note_on_c, 11, 71, 0
13, 46683, Note_on_c, 11, 81, 100
13, 46683, Note_on_c, 11, 71, 100
13, 46723, Note_on_c, 11, 71, 0
13, 46723, Note_on_c, 11, 81, 0
13, 46743, Note_on_c, 11, 71, 100
13, 46743, Note_on_c, 11, 81, 100
13, 46783, Note_on_c, 11, 81, 0
13, 46783, Note_on_c, 11, 71, 0
13, 46803, Note_on_c, 11, 80, 100
13, 46803, Note_on_c, 11, 71, 100
13, 46903, Note_on_c, 11, 71, 0
13, 46903, Note_on_c, 11, 80, 0
13, 46923, Note_on_c, 11, 71, 100
13, 46923, Note_on_c, 11, 81, 100
13, 46963, Note_on_c, 11, 81, 0
13, 46963, Note_on_c, 11, 71, 0
13, 46983, Note_on_c, 11, 81, 100
13, 46983, Note_on_c, 11, 71, 100
13, 47023, Note_on_c, 11, 71, 0
13, 47023, Note_on_c, 11, 81, 0
13, 47043, Control_c, 11, 11, 102
13, 47043, Note_on_c, 11, 76, 100
13, 47508, Note_on_c, 11, 76, 0
13, 47523, Note_on_c, 11, 76, 100
13, 47568, Note_on_c, 11, 76, 0
13, 47583, Note_on_c, 11, 75, 100
13, 47628, Note_on_c, 11, 75, 0
13, 47643, Note_on_c, 11, 73, 100
13, 47688, Note_on_c, 11, 73, 0
13, 47703, Note_on_c, 11, 71, 100
13, 47748, Note_on_c, 11, 71, 0
13, 47763, Note_on_c, 11, 69, 100
13, 47808, Note_on_c, 11, 69, 0
13, 47823, Note_on_c, 11, 68, 100
13, 47868, Note_on_c, 11, 68, 0
13, 47883, Note_on_c, 11, 66, 100
13, 47928, Note_on_c, 11, 66, 0
13, 47943, Note_on_c, 11, 64, 100
13, 47988, Note_on_c, 11, 64, 0
13, 48003, Note_on_c, 11, 61, 100
13, 48468, Note_on_c, 11, 61, 0
13, 48483, Note_on_c, 11, 73, 100
13, 48528, Note_on_c, 11, 73, 0
13, 48543, Note_on_c, 11, 71, 100
13, 48588, Note_on_c, 11, 71, 0
13, 48603, Note_on_c, 11, 69, 100
13, 48648, Note_on_c, 11, 69, 0
13, 48663, Note_on_c, 11, 68, 100
13, 48708, Note_on_c, 11, 68, 0
13, 48723, Note_on_c, 11, 66, 100
13, 48768, Note_on_c, 11, 66, 0
13, 48783, Note_on_c, 11, 64, 100
13, 48828, Note_on_c, 11, 64, 0
13, 48843, Note_on_c, 11, 63, 100
13, 48888, Note_on_c, 11, 63, 0
13, 48903, Note_on_c, 11, 61, 100
13, 48948, Note_on_c, 11, 61, 0
13, 48963, Note_on_c, 11, 58, 100
13, 49008, Note_on_c, 11, 58, 0
13, 49023, Note_on_c, 11, 66, 100
13, 49068, Note_on_c, 11, 66, 0
13, 49083, Note_on_c, 11, 66, 100
13, 49128, Note_on_c, 11, 66, 0
13, 49143, Note_on_c, 11, 66, 100
13, 49188, Note_on_c, 11, 66, 0
13, 49203, Note_on_c, 11, 66, 100
13, 49248, Note_on_c, 11, 66, 0
13, 49263, Note_on_c, 11, 70, 100
13, 49308, Note_on_c, 11, 70, 0
13, 49323, Note_on_c, 11, 70, 100
13, 49368, Note_on_c, 11, 70, 0
13, 49383, Note_on_c, 11, 70, 100
13, 49428, Note_on_c, 11, 70, 0
13, 49443, Note_on_c, 11, 70, 100
13, 49488, Note_on_c, 11, 70, 0
13, 49503, Note_on_c, 11, 73, 100
13, 49548, Note_on_c, 11, 73, 0
13, 49563, Note_on_c, 11, 73, 100
13, 49608, Note_on_c, 11, 73, 0
13, 49623, Note_on_c, 11, 73, 100
13, 49668, Note_on_c, 11, 73, 0
13, 49683, Note_on_c, 11, 73, 100
13, 49728, Note_on_c, 11, 73, 0
13, 49743, Note_on_c, 11, 78, 100
13, 49788, Note_on_c, 11, 78, 0
13, 49803, Note_on_c, 11, 78, 100
13, 49848, Note_on_c, 11, 78, 0
13, 49863, Note_on_c, 11, 78, 100
13, 49908, Note_on_c, 11, 78, 0
13, 49923, Note_on_c, 11, 78, 100
13, 49968, Note_on_c, 11, 78, 0
13, 49983, Note_on_c, 11, 78, 100
13, 50028, Note_on_c, 11, 78, 0
13, 50043, Note_on_c, 11, 78, 100
13, 50088, Note_on_c, 11, 78, 0
13, 50103, Note_on_c, 11, 78, 100
13, 50148, Note_on_c, 11, 78, 0
13, 50163, Note_on_c, 11, 78, 100
13, 50208, Note_on_c, 11, 78, 0
13, 50223, Note_on_c, 11, 78, 100
13, 50268, Note_on_c, 11, 78, 0
13, 50283, Control_c, 11, 11, 122
13, 50283, Note_on_c, 11, 80, 100
13, 50300, Control_c, 11, 11, 119
13, 50318, Control_c, 11, 11, 116
13, 50328, Note_on_c, 11, 80, 0
13, 50336, Control_c, 11, 11, 113
13, 50343, Note_on_c, 11, 80, 100
13, 50354, Control_c, 11, 11, 110
13, 50372, Control_c, 11, 11, 107
13, 50388, Note_on_c, 11, 80, 0
13, 50390, Control_c, 11, 11, 104
13, 50403, Note_on_c, 11, 78, 100
13, 50448, Note_on_c, 11, 78, 0
13, 50463, Note_on_c, 11, 78, 100
13, 50508, Note_on_c, 11, 78, 0
13, 50523, Note_on_c, 11, 78, 100
13, 50568, Note_on_c, 11, 78, 0
13, 50583, Note_on_c, 11, 78, 100
13, 50628, Note_on_c, 11, 78, 0
13, 50643, Note_on_c, 11, 78, 100
13, 50688, Note_on_c, 11, 78, 0
13, 50703, Note_on_c, 11, 78, 100
13, 50748, Note_on_c, 11, 78, 0
13, 50763, Control_c, 11, 11, 122
13, 50763, Note_on_c, 11, 80, 100
13, 50780, Control_c, 11, 11, 119
13, 50798, Control_c, 11, 11, 116
13, 50808, Note_on_c, 11, 80, 0
13, 50816, Control_c, 11, 11, 113
13, 50823, Note_on_c, 11, 80, 100
13, 50834, Control_c, 11, 11, 110
13, 50852, Control_c, 11, 11, 107
13, 50868, Note_on_c, 11, 80, 0
13, 50870, Control_c, 11, 11, 104
13, 50883, Note_on_c, 11, 78, 100
13, 50928, Note_on_c, 11, 78, 0
13, 50943, Note_on_c, 11, 78, 100
13, 50988, Note_on_c, 11, 78, 0
13, 51003, Control_c, 11, 11, 122
13, 51003, Note_on_c, 11, 80, 100
13, 51020, Control_c, 11, 11, 119
13, 51038, Control_c, 11, 11, 116
13, 51048, Note_on_c, 11, 80, 0
13, 51056, Control_c, 11, 11, 113
13, 51063, Note_on_c, 11, 80, 100
13, 51074, Control_c, 11, 11, 110
13, 51092, Control_c, 11, 11, 107
13, 51108, Note_on_c, 11, 80, 0
13, 51110, Control_c, 11, 11, 104
13, 51123, Note_on_c, 11, 78, 100
13, 51168, Note_on_c, 11, 78, 0
13, 51183, Note_on_c, 11, 78, 100
13, 51228, Note_on_c, 11, 78, 0
13, 51243, Control_c, 11, 11, 122
13, 51243, Note_on_c, 11, 80, 100
13, 51260, Control_c, 11, 11, 119
13, 51278, Control_c, 11, 11, 116
13, 51288, Note_on_c, 11, 80, 0
13, 51296, Control_c, 11, 11, 113
13, 51303, Note_on_c, 11, 80, 100
13, 51314, Control_c, 11, 11, 110
13, 51332, Control_c, 11, 11, 107
13, 51348, Note_on_c, 11, 80, 0
13, 51350, Control_c, 11, 11, 104
13, 51363, Note_on_c, 11, 78, 100
13, 51408, Note_on_c, 11, 78, 0
13, 51423, Note_on_c, 11, 78, 100
13, 51468, Note_on_c, 11, 78, 0
13, 51483, Control_c, 11, 11, 122
13, 51483, Note_on_c, 11, 80, 100
13, 51500, Control_c, 11, 11, 119
13, 51518, Control_c, 11, 11, 116
13, 51528, Note_on_c, 11, 80, 0
13, 51536, Control_c, 11, 11, 113
13, 51543, Note_on_c, 11, 80, 100
13, 51554, Control_c, 11, 11, 110
13, 51572, Control_c, 11, 11, 107
13, 51588, Note_on_c, 11, 80, 0
13, 51590, Control_c, 11, 11, 104
13, 51603, Note_on_c, 11, 78, 100
13, 51648, Note_on_c, 11, 78, 0
13, 51663, Note_on_c, 11, 78, 100
13, 51708, Note_on_c, 11, 78, 0
13, 51723, Control_c, 11, 11, 122
13, 51723, Note_on_c, 11, 76, 100
13, 51740, Control_c, 11, 11, 119
13, 51758, Control_c, 11, 11, 116
13, 51768, Note_on_c, 11, 76, 0
13, 51776, Control_c, 11, 11, 113
13, 51783, Note_on_c, 11, 76, 100
13, 51794, Control_c, 11, 11, 110
13, 51812, Control_c, 11, 11, 107
13, 51828, Note_on_c, 11, 76, 0
13, 51830, Control_c, 11, 11, 104
13, 51843, Note_on_c, 11, 75, 100
13, 51888, Note_on_c, 11, 75, 0
13, 51903, Note_on_c, 11, 75, 100
13, 51948, Note_on_c, 11, 75, 0
13, 51963, Control_c, 11, 11, 122
13, 51963, Note_on_c, 11, 78, 100
13, 51980, Control_c, 11, 11, 119
13, 51998, Control_c, 11, 11, 116
13, 52008, Note_on_c, 11, 78, 0
13, 52016, Control_c, 11, 11, 113
13, 52023, Note_on_c, 11, 78, 100
13, 52034, Control_c, 11, 11, 110
13, 52052, Control_c, 11, 11, 107
13, 52068, Note_on_c, 11, 78, 0
13, 52070, Control_c, 11, 11, 104
13, 52083, Note_on_c, 11, 73, 100
13, 52128, Note_on_c, 11, 73, 0
13, 52143, Note_on_c, 11, 73, 100
13, 52188, Note_on_c, 11, 73, 0
13, 52203, Control_c, 11, 11, 122
13, 52203, Note_on_c, 11, 76, 100
13, 52220, Control_c, 11, 11, 119
13, 52238, Control_c, 11, 11, 116
13, 52248, Note_on_c, 11, 76, 0
13, 52256, Control_c, 11, 11, 113
13, 52263, Note_on_c, 11, 76, 100
13, 52274, Control_c, 11, 11, 110
13, 52292, Control_c, 11, 11, 107
13, 52308, Note_on_c, 11, 76, 0
13, 52310, Control_c, 11, 11, 104
13, 52323, Note_on_c, 11, 63, 100
13, 52368, Note_on_c, 11, 63, 0
13, 52383, Note_on_c, 11, 63, 100
13, 52428, Note_on_c, 11, 63, 0
13, 52443, Control_c, 11, 11, 122
13, 52443, Note_on_c, 11, 66, 100
13, 52460, Control_c, 11, 11, 119
13, 52478, Control_c, 11, 11, 116
13, 52488, Note_on_c, 11, 66, 0
13, 52496, Control_c, 11, 11, 113
13, 52503, Note_on_c, 11, 66, 100
13, 52514, Control_c, 11, 11, 110
13, 52532, Control_c, 11, 11, 107
13, 52548, Note_on_c, 11, 66, 0
13, 52550, Control_c, 11, 11, 104
13, 52563, Note_on_c, 11, 61, 100
13, 52608, Note_on_c, 11, 61, 0
13, 52623, Note_on_c, 11, 61, 100
13, 52668, Note_on_c, 11, 61, 0
13, 52683, Control_c, 11, 11, 122
13, 52683, Note_on_c, 11, 64, 100
13, 52700, Control_c, 11, 11, 119
13, 52718, Control_c, 11, 11, 116
13, 52728, Note_on_c, 11, 64, 0
13, 52736, Control_c, 11, 11, 113
13, 52743, Note_on_c, 11, 64, 100
13, 52754, Control_c, 11, 11, 110
13, 52772, Control_c, 11, 11, 107
13, 52788, Note_on_c, 11, 64, 0
13, 52790, Control_c, 11, 11, 104
13, 52803, Note_on_c, 11, 63, 90
13, 52923, Note_on_c, 11, 63, 0
13, 53163, Control_c, 11, 11, 87
13, 53163, Note_on_c, 11, 73, 100
13, 53163, Note_on_c, 11, 82, 100
13, 53283, Note_on_c, 11, 82, 0
13, 53283, Note_on_c, 11, 73, 0
13, 53283, Note_on_c, 11, 83, 100
13, 53283, Note_on_c, 11, 75, 100
13, 53403, Note_on_c, 11, 75, 0
13, 53403, Note_on_c, 11, 83, 0
13, 53643, Note_on_c, 11, 73, 100
13, 53643, Note_on_c, 11, 82, 100
13, 53763, Note_on_c, 11, 82, 0
13, 53763, Note_on_c, 11, 73, 0
13, 53763, Note_on_c, 11, 75, 100
13, 53763, Note_on_c, 11, 83, 100
13, 53883, Note_on_c, 11, 83, 0
13, 53883, Note_on_c, 11, 75, 0
13, 54123, Note_on_c, 11, 73, 100
13, 54123, Note_on_c, 11, 82, 100
13, 54243, Note_on_c, 11, 82, 0
13, 54243, Note_on_c, 11, 73, 0
13, 54243, Note_on_c, 11, 83, 100
13, 54243, Note_on_c, 11, 75, 100
13, 54363, Note_on_c, 11, 75, 0
13, 54363, Note_on_c, 11, 83, 0
13, 54603, Note_on_c, 11, 82, 100
13, 54603, Note_on_c, 11, 73, 100
13, 54723, Note_on_c, 11, 73, 0
13, 54723, Note_on_c, 11, 82, 0
13, 54723, Note_on_c, 11, 83, 100
13, 54723, Note_on_c, 11, 75, 100
13, 54828, Note_on_c, 11, 75, 0
13, 54828, Note_on_c, 11, 83, 0
13, 54843, Note_on_c, 11, 75, 100
13, 54843, Note_on_c, 11, 83, 100
13, 54888, Note_on_c, 11, 83, 0
13, 54888, Note_on_c, 11, 75, 0
13, 54903, Note_on_c, 11, 75, 100
13, 54903, Note_on_c, 11, 83, 100
13, 54948, Note_on_c, 11, 83, 0
13, 54948, Note_on_c, 11, 75, 0
13, 54963, Note_on_c, 11, 75, 100
13, 54963, Note_on_c, 11, 83, 100
13, 55083, Note_on_c, 11, 83, 0
13, 55083, Note_on_c, 11, 75, 0
13, 55203, Note_on_c, 11, 83, 100
13, 55203, Note_on_c, 11, 75, 100
13, 55308, Note_on_c, 11, 75, 0
13, 55308, Note_on_c, 11, 83, 0
13, 55323, Note_on_c, 11, 83, 100
13, 55323, Note_on_c, 11, 75, 100
13, 55368, Note_on_c, 11, 75, 0
13, 55368, Note_on_c, 11, 83, 0
13, 55383, Note_on_c, 11, 75, 100
13, 55383, Note_on_c, 11, 83, 100
13, 55428, Note_on_c, 11, 83, 0
13, 55428, Note_on_c, 11, 75, 0
13, 55443, Note_on_c, 11, 83, 100
13, 55443, Note_on_c, 11, 75, 100
13, 55563, Note_on_c, 11, 75, 0
13, 55563, Note_on_c, 11, 83, 0
13, 55683, Note_on_c, 11, 83, 100
13, 55683, Note_on_c, 11, 71, 100
13, 55788, Note_on_c, 11, 71, 0
13, 55788, Note_on_c, 11, 83, 0
13, 55803, Note_on_c, 11, 83, 100
13, 55803, Note_on_c, 11, 71, 100
13, 55848, Note_on_c, 11, 71, 0
13, 55848, Note_on_c, 11, 83, 0
13, 55863, Note_on_c, 11, 71, 100
13, 55863, Note_on_c, 11, 83, 100
13, 55908, Note_on_c, 11, 83, 0
13, 55908, Note_on_c, 11, 71, 0
13, 55923, Note_on_c, 11, 83, 100
13, 55923, Note_on_c, 11, 71, 100
13, 56028, Note_on_c, 11, 71, 0
13, 56028, Note_on_c, 11, 83, 0
13, 56043, Note_on_c, 11, 71, 100
13, 56043, Note_on_c, 11, 83, 100
13, 56088, Note_on_c, 11, 83, 0
13, 56088, Note_on_c, 11, 71, 0
13, 56103, Note_on_c, 11, 71, 100
13, 56103, Note_on_c, 11, 83, 100
13, 56148, Note_on_c, 11, 83, 0
13, 56148, Note_on_c, 11, 71, 0
13, 56163, Note_on_c, 11, 83, 100
13, 56163, Note_on_c, 11, 71, 100
13, 56268, Note_on_c, 11, 71, 0
13, 56268, Note_on_c, 11, 83, 0
13, 56283, Note_on_c, 11, 71, 100
13, 56283, Note_on_c, 11, 83, 100
13, 56328, Note_on_c, 11, 83, 0
13, 56328, Note_on_c, 11, 71, 0
13, 56343, Note_on_c, 11, 71, 100
13, 56343, Note_on_c, 11, 83, 100
13, 56388, Note_on_c, 11, 83, 0
13, 56388, Note_on_c, 11, 71, 0
13, 56403, Note_on_c, 11, 71, 100
13, 56403, Note_on_c, 11, 83, 100
13, 56508, Note_on_c, 11, 83, 0
13, 56508, Note_on_c, 11, 71, 0
13, 56523, Note_on_c, 11, 71, 100
13, 56523, Note_on_c, 11, 83, 100
13, 56568, Note_on_c, 11, 83, 0
13, 56568, Note_on_c, 11, 71, 0
13, 56583, Note_on_c, 11, 71, 100
13, 56583, Note_on_c, 11, 83, 100
13, 56628, Note_on_c, 11, 83, 0
13, 56628, Note_on_c, 11, 71, 0
13, 56643, Note_on_c, 11, 83, 95
13, 56643, Note_on_c, 11, 71, 95
13, 56763, Note_on_c, 11, 71, 0
13, 56763, Note_on_c, 11, 83, 0
13, 57603, Control_c, 11, 11, 47
13, 57603, Note_on_c, 11, 74, 60
13, 57653, Note_on_c, 11, 74, 0
13, 57663, Note_on_c, 11, 74, 76
13, 57773, Note_on_c, 11, 74, 0
13, 57783, Note_on_c, 11, 74, 76
13, 57893, Note_on_c, 11, 74, 0
13, 57903, Note_on_c, 11, 74, 76
13, 58013, Note_on_c, 11, 74, 0
13, 58023, Note_on_c, 11, 74, 76
13, 58133, Note_on_c, 11, 74, 0
13, 58143, Note_on_c, 11, 74, 76
13, 58253, Note_on_c, 11, 74, 0
13, 58263, Note_on_c, 11, 74, 76
13, 58373, Note_on_c, 11, 74, 0
13, 58383, Note_on_c, 11, 74, 76
13, 58493, Note_on_c, 11, 74, 0
13, 58503, Note_on_c, 11, 74, 76
13, 58613, Note_on_c, 11, 74, 0
13, 58623, Note_on_c, 11, 71, 76
13, 58733, Note_on_c, 11, 71, 0
13, 58743, Note_on_c, 11, 71, 76
13, 58853, Note_on_c, 11, 71, 0
13, 58863, Note_on_c, 11, 71, 76
13, 58973, Note_on_c, 11, 71, 0
13, 58983, Note_on_c, 11, 71, 76
13, 59093, Note_on_c, 11, 71, 0
13, 59103, Note_on_c, 11, 71, 76
13, 59213, Note_on_c, 11, 71, 0
13, 59223, Note_on_c, 11, 71, 76
13, 59333, Note_on_c, 11, 71, 0
13, 59343, Note_on_c, 11, 71, 76
13, 59453, Note_on_c, 11, 71, 0
13, 59463, Note_on_c, 11, 71, 76
13, 59513, Note_on_c, 11, 71, 0
13, 59523, Note_on_c, 11, 72, 100
13, 59643, Note_on_c, 11, 72, 0
13, 59643, Note_on_c, 11, 66, 100
13, 59883, Note_on_c, 11, 66, 0
13, 59883, Note_on_c, 11, 67, 100
13, 59943, Note_on_c, 11, 67, 0
13, 59943, Note_on_c, 11, 69, 100
13, 60003, Note_on_c, 11, 69, 0
13, 60003, Note_on_c, 11, 71, 100
13, 60123, Note_on_c, 11, 71, 0
13, 60363, Note_on_c, 11, 71, 100
13, 60483, Note_on_c, 11, 71, 0
13, 60483, Note_on_c, 11, 72, 100
13, 60603, Note_on_c, 11, 72, 0
13, 60603, Note_on_c, 11, 66, 100
13, 60843, Note_on_c, 11, 66, 0
13, 60843, Note_on_c, 11, 67, 100
13, 60903, Note_on_c, 11, 67, 0
13, 60903, Note_on_c, 11, 69, 100
13, 60963, Note_on_c, 11, 69, 0
13, 60963, Note_on_c, 11, 71, 76
13, 61013, Note_on_c, 11, 71, 0
13, 61023, Note_on_c, 11, 55, 76
13, 61133, Note_on_c, 11, 55, 0
13, 61143, Note_on_c, 11, 55, 76
13, 61253, Note_on_c, 11, 55, 0
13, 61263, Note_on_c, 11, 55, 76
13, 61373, Note_on_c, 11, 55, 0
13, 61383, Note_on_c, 11, 55, 76
13, 61493, Note_on_c, 11, 55, 0
13, 61503, Note_on_c, 11, 55, 76
13, 61613, Note_on_c, 11, 55, 0
13, 61623, Note_on_c, 11, 55, 76
13, 61733, Note_on_c, 11, 55, 0
13, 61743, Note_on_c, 11, 55, 76
13, 61853, Note_on_c, 11, 55, 0
13, 61863, Note_on_c, 11, 55, 76
13, 61973, Note_on_c, 11, 55, 0
13, 61983, Note_on_c, 11, 55, 76
13, 62093, Note_on_c, 11, 55, 0
13, 62103, Note_on_c, 11, 55, 76
13, 62213, Note_on_c, 11, 55, 0
13, 62223, Note_on_c, 11, 55, 76
13, 62333, Note_on_c, 11, 55, 0
13, 62343, Note_on_c, 11, 55, 76
13, 62453, Note_on_c, 11, 55, 0
13, 62463, Note_on_c, 11, 55, 76
13, 62573, Note_on_c, 11, 55, 0
13, 62583, Note_on_c, 11, 55, 76
13, 62693, Note_on_c, 11, 55, 0
13, 62703, Note_on_c, 11, 55, 76
13, 62813, Note_on_c, 11, 55, 0
13, 62823, Note_on_c, 11, 55, 76
13, 62873, Note_on_c, 11, 55, 0
13, 62883, Note_on_c, 11, 64, 76
13, 62933, Note_on_c, 11, 64, 0
13, 62943, Note_on_c, 11, 64, 76
13, 63053, Note_on_c, 11, 64, 0
13, 63063, Note_on_c, 11, 64, 76
13, 63173, Note_on_c, 11, 64, 0
13, 63183, Note_on_c, 11, 64, 76
13, 63293, Note_on_c, 11, 64, 0
13, 63303, Note_on_c, 11, 64, 76
13, 63413, Note_on_c, 11, 64, 0
13, 63423, Note_on_c, 11, 64, 76
13, 63533, Note_on_c, 11, 64, 0
13, 63543, Note_on_c, 11, 64, 76
13, 63653, Note_on_c, 11, 64, 0
13, 63663, Note_on_c, 11, 64, 76
13, 63773, Note_on_c, 11, 64, 0
13, 63783, Note_on_c, 11, 64, 76
13, 63893, Note_on_c, 11, 64, 0
13, 63903, Note_on_c, 11, 64, 76
13, 64013, Note_on_c, 11, 64, 0
13, 64023, Note_on_c, 11, 64, 76
13, 64133, Note_on_c, 11, 64, 0
13, 64143, Note_on_c, 11, 64, 76
13, 64253, Note_on_c, 11, 64, 0
13, 64263, Note_on_c, 11, 64, 76
13, 64373, Note_on_c, 11, 64, 0
13, 64383, Note_on_c, 11, 64, 76
13, 64493, Note_on_c, 11, 64, 0
13, 64503, Note_on_c, 11, 64, 76
13, 64613, Note_on_c, 11, 64, 0
13, 64623, Note_on_c, 11, 64, 76
13, 64733, Note_on_c, 11, 64, 0
13, 64743, Note_on_c, 11, 64, 76
13, 64853, Note_on_c, 11, 64, 0
13, 64863, Note_on_c, 11, 57, 76
13, 64973, Note_on_c, 11, 57, 0
13, 64983, Note_on_c, 11, 57, 76
13, 65093, Note_on_c, 11, 57, 0
13, 65103, Note_on_c, 11, 57, 76
13, 65213, Note_on_c, 11, 57, 0
13, 65223, Note_on_c, 11, 57, 76
13, 65273, Note_on_c, 11, 57, 0
13, 65283, Note_on_c, 11, 59, 76
13, 65333, Note_on_c, 11, 59, 0
13, 65343, Note_on_c, 11, 59, 76
13, 65453, Note_on_c, 11, 59, 0
13, 65463, Note_on_c, 11, 59, 76
13, 65573, Note_on_c, 11, 59, 0
13, 65583, Note_on_c, 11, 59, 76
13, 65693, Note_on_c, 11, 59, 0
13, 65703, Note_on_c, 11, 59, 76
13, 65813, Note_on_c, 11, 59, 0
13, 65823, Note_on_c, 11, 59, 76
13, 65933, Note_on_c, 11, 59, 0
13, 65943, Note_on_c, 11, 59, 76
13, 66053, Note_on_c, 11, 59, 0
13, 66063, Note_on_c, 11, 59, 76
13, 66173, Note_on_c, 11, 59, 0
13, 66183, Note_on_c, 11, 59, 76
13, 66293, Note_on_c, 11, 59, 0
13, 66303, Note_on_c, 11, 59, 76
13, 66413, Note_on_c, 11, 59, 0
13, 66423, Note_on_c, 11, 59, 76
13, 66533, Note_on_c, 11, 59, 0
13, 66543, Note_on_c, 11, 59, 76
13, 66653, Note_on_c, 11, 59, 0
13, 66663, Note_on_c, 11, 59, 76
13, 66773, Note_on_c, 11, 59, 0
13, 66783, Note_on_c, 11, 59, 76
13, 66893, Note_on_c, 11, 59, 0
13, 66903, Note_on_c, 11, 59, 76
13, 67013, Note_on_c, 11, 59, 0
13, 67023, Note_on_c, 11, 59, 76
13, 67133, Note_on_c, 11, 59, 0
13, 67143, Note_on_c, 11, 59, 76
13, 67253, Note_on_c, 11, 59, 0
13, 67263, Note_on_c, 11, 59, 76
13, 67373, Note_on_c, 11, 59, 0
13, 67383, Note_on_c, 11, 59, 76
13, 67493, Note_on_c, 11, 59, 0
13, 67503, Note_on_c, 11, 59, 76
13, 67613, Note_on_c, 11, 59, 0
13, 67623, Note_on_c, 11, 59, 76
13, 67733, Note_on_c, 11, 59, 0
13, 67743, Note_on_c, 11, 59, 76
13, 67853, Note_on_c, 11, 59, 0
13, 67863, Note_on_c, 11, 59, 76
13, 67973, Note_on_c, 11, 59, 0
13, 67983, Note_on_c, 11, 59, 76
13, 68093, Note_on_c, 11, 59, 0
13, 68103, Note_on_c, 11, 59, 76
13, 68213, Note_on_c, 11, 59, 0
13, 68223, Note_on_c, 11, 59, 76
13, 68333, Note_on_c, 11, 59, 0
13, 68343, Note_on_c, 11, 59, 76
13, 68453, Note_on_c, 11, 59, 0
13, 68463, Note_on_c, 11, 59, 76
13, 68573, Note_on_c, 11, 59, 0
13, 68583, Note_on_c, 11, 59, 76
13, 68693, Note_on_c, 11, 59, 0
13, 68703, Note_on_c, 11, 59, 76
13, 68813, Note_on_c, 11, 59, 0
13, 68823, Note_on_c, 11, 59, 76
13, 68933, Note_on_c, 11, 59, 0
13, 68943, Note_on_c, 11, 59, 76
13, 69053, Note_on_c, 11, 59, 0
13, 69063, Note_on_c, 11, 59, 76
13, 69173, Note_on_c, 11, 59, 0
13, 69183, Note_on_c, 11, 59, 76
13, 69293, Note_on_c, 11, 59, 0
13, 69303, Note_on_c, 11, 59, 76
13, 69413, Note_on_c, 11, 59, 0
13, 69423, Note_on_c, 11, 59, 76
13, 69533, Note_on_c, 11, 59, 0
13, 69543, Note_on_c, 11, 59, 76
13, 69653, Note_on_c, 11, 59, 0
13, 69663, Control_c, 11, 11, 47
13, 69663, Note_on_c, 11, 59, 76
13, 69705, Control_c, 11, 11, 48
13, 69747, Control_c, 11, 11, 49
13, 69773, Note_on_c, 11, 59, 0
13, 69783, Note_on_c, 11, 59, 76
13, 69789, Control_c, 11, 11, 50
13, 69831, Control_c, 11, 11, 51
13, 69873, Control_c, 11, 11, 52
13, 69893, Note_on_c, 11, 59, 0
13, 69903, Note_on_c, 11, 59, 76
13, 69915, Control_c, 11, 11, 53
13, 69957, Control_c, 11, 11, 54
13, 69999, Control_c, 11, 11, 55
13, 70013, Note_on_c, 11, 59, 0
13, 70023, Note_on_c, 11, 59, 76
13, 70041, Control_c, 11, 11, 56
13, 70083, Control_c, 11, 11, 57
13, 70125, Control_c, 11, 11, 58
13, 70133, Note_on_c, 11, 59, 0
13, 70143, Note_on_c, 11, 59, 76
13, 70167, Control_c, 11, 11, 59
13, 70209, Control_c, 11, 11, 60
13, 70251, Control_c, 11, 11, 61
13, 70253, Note_on_c, 11, 59, 0
13, 70263, Note_on_c, 11, 59, 76
13, 70293, Control_c, 11, 11, 62
13, 70335, Control_c, 11, 11, 63
13, 70373, Note_on_c, 11, 59, 0
13, 70377, Control_c, 11, 11, 64
13, 70383, Note_on_c, 11, 59, 76
13, 70419, Control_c, 11, 11, 65
13, 70461, Control_c, 11, 11, 66
13, 70493, Note_on_c, 11, 59, 0
13, 70503, Control_c, 11, 11, 67
13, 70503, Note_on_c, 11, 59, 76
13, 70613, Note_on_c, 11, 59, 0
13, 70623, Control_c, 11, 11, 47
13, 70623, Note_on_c, 11, 71, 100
13, 70733, Note_on_c, 11, 71, 0
13, 70743, Note_on_c, 11, 71, 100
13, 70853, Note_on_c, 11, 71, 0
13, 70863, Note_on_c, 11, 71, 100
13, 70973, Note_on_c, 11, 71, 0
13, 70983, Note_on_c, 11, 71, 100
13, 71093, Note_on_c, 11, 71, 0
13, 71103, Note_on_c, 11, 71, 100
13, 71213, Note_on_c, 11, 71, 0
13, 71223, Note_on_c, 11, 71, 100
13, 71333, Note_on_c, 11, 71, 0
13, 71343, Note_on_c, 11, 71, 100
13, 71453, Note_on_c, 11, 71, 0
13, 71463, Note_on_c, 11, 71, 100
13, 71573, Note_on_c, 11, 71, 0
13, 71583, Note_on_c, 11, 71, 100
13, 71693, Note_on_c, 11, 71, 0
13, 71703, Note_on_c, 11, 71, 100
13, 71813, Note_on_c, 11, 71, 0
13, 71823, Note_on_c, 11, 71, 100
13, 71933, Note_on_c, 11, 71, 0
13, 71943, Note_on_c, 11, 71, 100
13, 72113, Note_on_c, 11, 71, 0
13, 72483, Note_on_c, 11, 59, 100
13, 72543, Note_on_c, 11, 59, 0
13, 72543, Note_on_c, 11, 61, 100
13, 72603, Note_on_c, 11, 61, 0
13, 72603, Note_on_c, 11, 63, 100
13, 72663, Note_on_c, 11, 63, 0
13, 72663, Note_on_c, 11, 64, 100
13, 72723, Note_on_c, 11, 64, 0
13, 72723, Note_on_c, 11, 63, 100
13, 72783, Note_on_c, 11, 63, 0
13, 72783, Note_on_c, 11, 64, 100
13, 72843, Note_on_c, 11, 64, 0
13, 72843, Note_on_c, 11, 66, 100
13, 72903, Note_on_c, 11, 66, 0
13, 72903, Note_on_c, 11, 68, 100
13, 72963, Note_on_c, 11, 68, 0
13, 72963, Note_on_c, 11, 59, 100
13, 73023, Note_on_c, 11, 59, 0
13, 73023, Note_on_c, 11, 61, 100
13, 73083, Note_on_c, 11, 61, 0
13, 73083, Note_on_c, 11, 63, 100
13, 73143, Note_on_c, 11, 63, 0
13, 73143, Note_on_c, 11, 64, 100
13, 73203, Note_on_c, 11, 64, 0
13, 73203, Note_on_c, 11, 63, 100
13, 73263, Note_on_c, 11, 63, 0
13, 73263, Note_on_c, 11, 64, 100
13, 73323, Note_on_c, 11, 64, 0
13, 73323, Note_on_c, 11, 66, 100
13, 73383, Note_on_c, 11, 66, 0
13, 73383, Note_on_c, 11, 68, 100
13, 73443, Note_on_c, 11, 68, 0
13, 73443, Note_on_c, 11, 69, 100
13, 73503, Note_on_c, 11, 69, 0
13, 73503, Note_on_c, 11, 68, 100
13, 73563, Note_on_c, 11, 68, 0
13, 73563, Note_on_c, 11, 66, 100
13, 73623, Note_on_c, 11, 66, 0
13, 73623, Note_on_c, 11, 71, 100
13, 73673, Note_on_c, 11, 71, 0
13, 73683, Note_on_c, 11, 71, 100
13, 73743, Note_on_c, 11, 71, 0
13, 73743, Note_on_c, 11, 68, 100
13, 73803, Note_on_c, 11, 68, 0
13, 73803, Note_on_c, 11, 69, 100
13, 73863, Note_on_c, 11, 69, 0
13, 73863, Note_on_c, 11, 71, 100
13, 73923, Note_on_c, 11, 71, 0
13, 73923, Note_on_c, 11, 68, 100
13, 73983, Note_on_c, 11, 68, 0
13, 73983, Note_on_c, 11, 71, 100
13, 74043, Note_on_c, 11, 71, 0
13, 74043, Note_on_c, 11, 68, 100
13, 74103, Note_on_c, 11, 68, 0
13, 74103, Note_on_c, 11, 64, 100
13, 74163, Note_on_c, 11, 64, 0
13, 74163, Note_on_c, 11, 59, 100
13, 74223, Note_on_c, 11, 59, 0
13, 74223, Note_on_c, 11, 64, 100
13, 74283, Note_on_c, 11, 64, 0
13, 74283, Note_on_c, 11, 59, 100
13, 74343, Note_on_c, 11, 59, 0
13, 74343, Note_on_c, 11, 56, 100
13, 74393, Note_on_c, 11, 56, 0
13, 74403, Note_on_c, 11, 57, 100
13, 74463, Note_on_c, 11, 57, 0
13, 74463, Note_on_c, 11, 59, 100
13, 74523, Note_on_c, 11, 59, 0
13, 74523, Note_on_c, 11, 57, 100
13, 74583, Note_on_c, 11, 57, 0
13, 74583, Note_on_c, 11, 59, 100
13, 74628, Note_on_c, 11, 59, 0
13, 74643, Note_on_c, 11, 57, 100
13, 74703, Note_on_c, 11, 57, 0
13, 74703, Note_on_c, 11, 59, 100
13, 74763, Note_on_c, 11, 59, 0
13, 74763, Note_on_c, 11, 57, 100
13, 74823, Note_on_c, 11, 57, 0
13, 74823, Note_on_c, 11, 59, 100
13, 74868, Note_on_c, 11, 59, 0
13, 74883, Note_on_c, 11, 56, 100
13, 74943, Note_on_c, 11, 56, 0
13, 74943, Note_on_c, 11, 59, 100
13, 75003, Note_on_c, 11, 59, 0
13, 75003, Note_on_c, 11, 56, 100
13, 75063, Note_on_c, 11, 56, 0
13, 75063, Note_on_c, 11, 59, 100
13, 75108, Note_on_c, 11, 59, 0
13, 75123, Note_on_c, 11, 56, 100
13, 75183, Note_on_c, 11, 56, 0
13, 75183, Note_on_c, 11, 59, 100
13, 75243, Note_on_c, 11, 59, 0
13, 75243, Note_on_c, 11, 56, 100
13, 75303, Note_on_c, 11, 56, 0
13, 75303, Note_on_c, 11, 59, 100
13, 75348, Note_on_c, 11, 59, 0
13, 75363, Control_c, 11, 11, 47
13, 75363, Note_on_c, 11, 66, 100
13, 75399, Control_c, 11, 11, 48
13, 75408, Note_on_c, 11, 66, 0
13, 75423, Note_on_c, 11, 66, 100
13, 75435, Control_c, 11, 11, 49
13, 75471, Control_c, 11, 11, 50
13, 75483, Note_on_c, 11, 66, 0
13, 75483, Note_on_c, 11, 69, 100
13, 75507, Control_c, 11, 11, 51
13, 75528, Note_on_c, 11, 69, 0
13, 75543, Control_c, 11, 11, 52
13, 75543, Note_on_c, 11, 69, 100
13, 75579, Control_c, 11, 11, 53
13, 75603, Note_on_c, 11, 69, 0
13, 75603, Note_on_c, 11, 68, 100
13, 75615, Control_c, 11, 11, 54
13, 75648, Note_on_c, 11, 68, 0
13, 75651, Control_c, 11, 11, 55
13, 75663, Note_on_c, 11, 68, 100
13, 75687, Control_c, 11, 11, 56
13, 75723, Note_on_c, 11, 68, 0
13, 75723, Control_c, 11, 11, 57
13, 75723, Note_on_c, 11, 66, 100
13, 75759, Control_c, 11, 11, 58
13, 75768, Note_on_c, 11, 66, 0
13, 75783, Note_on_c, 11, 66, 100
13, 75795, Control_c, 11, 11, 59
13, 75831, Control_c, 11, 11, 60
13, 75843, Note_on_c, 11, 66, 0
13, 75843, Note_on_c, 11, 64, 100
13, 75867, Control_c, 11, 11, 61
13, 75888, Note_on_c, 11, 64, 0
13, 75903, Control_c, 11, 11, 62
13, 75903, Note_on_c, 11, 64, 100
13, 75939, Control_c, 11, 11, 63
13, 75963, Note_on_c, 11, 64, 0
13, 75963, Note_on_c, 11, 68, 100
13, 75975, Control_c, 11, 11, 64
13, 76008, Note_on_c, 11, 68, 0
13, 76011, Control_c, 11, 11, 65
13, 76023, Note_on_c, 11, 68, 100
13, 76047, Control_c, 11, 11, 66
13, 76083, Note_on_c, 11, 68, 0
13, 76083, Control_c, 11, 11, 67
13, 76083, Note_on_c, 11, 71, 100
13, 76119, Control_c, 11, 11, 68
13, 76128, Note_on_c, 11, 71, 0
13, 76143, Note_on_c, 11, 71, 100
13, 76155, Control_c, 11, 11, 69
13, 76191, Control_c, 11, 11, 70
13, 76203, Note_on_c, 11, 71, 0
13, 76203, Note_on_c, 11, 68, 100
13, 76227, Control_c, 11, 11, 71
13, 76248, Note_on_c, 11, 68, 0
13, 76263, Control_c, 11, 11, 72
13, 76263, Note_on_c, 11, 68, 100
13, 76299, Control_c, 11, 11, 73
13, 76323, Note_on_c, 11, 68, 0
13, 76323, Note_on_c, 11, 66, 100
13, 76335, Control_c, 11, 11, 74
13, 76368, Note_on_c, 11, 66, 0
13, 76371, Control_c, 11, 11, 75
13, 76383, Note_on_c, 11, 66, 100
13, 76407, Control_c, 11, 11, 76
13, 76443, Note_on_c, 11, 66, 0
13, 76443, Control_c, 11, 11, 77
13, 76443, Note_on_c, 11, 69, 100
13, 76479, Control_c, 11, 11, 78
13, 76488, Note_on_c, 11, 69, 0
13, 76503, Note_on_c, 11, 69, 100
13, 76515, Control_c, 11, 11, 79
13, 76551, Control_c, 11, 11, 80
13, 76563, Note_on_c, 11, 69, 0
13, 76563, Note_on_c, 11, 68, 100
13, 76587, Control_c, 11, 11, 81
13, 76608, Note_on_c, 11, 68, 0
13, 76623, Control_c, 11, 11, 82
13, 76623, Note_on_c, 11, 68, 100
13, 76659, Control_c, 11, 11, 83
13, 76683, Note_on_c, 11, 68, 0
13, 76683, Note_on_c, 11, 66, 100
13, 76695, Control_c, 11, 11, 84
13, 76728, Note_on_c, 11, 66, 0
13, 76731, Control_c, 11, 11, 85
13, 76743, Note_on_c, 11, 66, 100
13, 76767, Control_c, 11, 11, 86
13, 76788, Note_on_c, 11, 66, 0
13, 76803, Control_c, 11, 11, 87
13, 76803, Note_on_c, 11, 64, 100
13, 76908, Note_on_c, 11, 64, 0
13, 76923, Note_on_c, 11, 76, 100
13, 77128, Note_on_c, 11, 76, 0
13, 77163, Note_on_c, 11, 76, 100
13, 77193, Note_on_c, 11, 76, 0
13, 77223, Note_on_c, 11, 75, 100
13, 77253, Note_on_c, 11, 75, 0
13, 77283, Note_on_c, 11, 75, 100
13, 77313, Note_on_c, 11, 75, 0
13, 77343, Note_on_c, 11, 73, 100
13, 77373, Note_on_c, 11, 73, 0
13, 77403, Note_on_c, 11, 73, 100
13, 77608, Note_on_c, 11, 73, 0
13, 77643, Note_on_c, 11, 73, 100
13, 77673, Note_on_c, 11, 73, 0
13, 77703, Note_on_c, 11, 71, 100
13, 77733, Note_on_c, 11, 71, 0
13, 77763, Note_on_c, 11, 71, 100
13, 77793, Note_on_c, 11, 71, 0
13, 77823, Note_on_c, 11, 69, 100
13, 77853, Note_on_c, 11, 69, 0
13, 77883, Note_on_c, 11, 69, 100
13, 78088, Note_on_c, 11, 69, 0
13, 78123, Note_on_c, 11, 69, 100
13, 78153, Note_on_c, 11, 69, 0
13, 78183, Note_on_c, 11, 68, 100
13, 78213, Note_on_c, 11, 68, 0
13, 78243, Note_on_c, 11, 68, 100
13, 78288, Note_on_c, 11, 68, 0
13, 78303, Note_on_c, 11, 66, 100
13, 78348, Note_on_c, 11, 66, 0
13, 78363, Note_on_c, 11, 64, 100
13, 78408, Note_on_c, 11, 64, 0
13, 78423, Note_on_c, 11, 63, 100
13, 78468, Note_on_c, 11, 63, 0
13, 78483, Note_on_c, 11, 63, 100
13, 78528, Note_on_c, 11, 63, 0
13, 78543, Note_on_c, 11, 61, 100
13, 78588, Note_on_c, 11, 61, 0
13, 78603, Note_on_c, 11, 59, 100
13, 78648, Note_on_c, 11, 59, 0
13, 78663, Note_on_c, 11, 57, 100
13, 78708, Note_on_c, 11, 57, 0
13, 78723, Note_on_c, 11, 56, 100
13, 78768, Note_on_c, 11, 56, 0
13, 78783, Note_on_c, 11, 68, 100
13, 78828, Note_on_c, 11, 68, 0
13, 78843, Note_on_c, 11, 68, 100
13, 78888, Note_on_c, 11, 68, 0
13, 78903, Note_on_c, 11, 68, 100
13, 78948, Note_on_c, 11, 68, 0
13, 78963, Note_on_c, 11, 68, 100
13, 79008, Note_on_c, 11, 68, 0
13, 79023, Note_on_c, 11, 68, 100
13, 79068, Note_on_c, 11, 68, 0
13, 79083, Note_on_c, 11, 68, 100
13, 79128, Note_on_c, 11, 68, 0
13, 79143, Note_on_c, 11, 68, 100
13, 79188, Note_on_c, 11, 68, 0
13, 79203, Note_on_c, 11, 69, 100
13, 79248, Note_on_c, 11, 69, 0
13, 79263, Note_on_c, 11, 69, 100
13, 79308, Note_on_c, 11, 69, 0
13, 79323, Note_on_c, 11, 69, 100
13, 79368, Note_on_c, 11, 69, 0
13, 79383, Note_on_c, 11, 69, 100
13, 79428, Note_on_c, 11, 69, 0
13, 79443, Note_on_c, 11, 69, 100
13, 79488, Note_on_c, 11, 69, 0
13, 79503, Note_on_c, 11, 69, 100
13, 79548, Note_on_c, 11, 69, 0
13, 79563, Note_on_c, 11, 69, 100
13, 79608, Note_on_c, 11, 69, 0
13, 79623, Note_on_c, 11, 71, 100
13, 79668, Note_on_c, 11, 71, 0
13, 79683, Note_on_c, 11, 73, 100
13, 79728, Note_on_c, 11, 73, 0
13, 79743, Note_on_c, 11, 73, 100
13, 79788, Note_on_c, 11, 73, 0
13, 79803, Note_on_c, 11, 73, 100
13, 79848, Note_on_c, 11, 73, 0
13, 79863, Note_on_c, 11, 73, 100
13, 79908, Note_on_c, 11, 73, 0
13, 79923, Note_on_c, 11, 75, 100
13, 79968, Note_on_c, 11, 75, 0
13, 79983, Note_on_c, 11, 75, 100
13, 80028, Note_on_c, 11, 75, 0
13, 80043, Note_on_c, 11, 75, 100
13, 80088, Note_on_c, 11, 75, 0
13, 80103, Note_on_c, 11, 76, 100
13, 80148, Note_on_c, 11, 76, 0
13, 80163, Note_on_c, 11, 68, 100
13, 80208, Note_on_c, 11, 68, 0
13, 80223, Note_on_c, 11, 66, 100
13, 80268, Note_on_c, 11, 66, 0
13, 80283, Note_on_c, 11, 64, 100
13, 80328, Note_on_c, 11, 64, 0
13, 80343, Note_on_c, 11, 63, 100
13, 80388, Note_on_c, 11, 63, 0
13, 80403, Note_on_c, 11, 63, 100
13, 80448, Note_on_c, 11, 63, 0
13, 80463, Note_on_c, 11, 61, 100
13, 80508, Note_on_c, 11, 61, 0
13, 80523, Note_on_c, 11, 59, 100
13, 80568, Note_on_c, 11, 59, 0
13, 80583, Note_on_c, 11, 57, 100
13, 80628, Note_on_c, 11, 57, 0
13, 80643, Note_on_c, 11, 56, 100
13, 80763, Note_on_c, 11, 56, 0
13, 80883, Note_on_c, 11, 80, 100
13, 80883, Note_on_c, 11, 71, 100
13, 80883, Note_on_c, 11, 64, 100
13, 81003, Note_on_c, 11, 64, 0
13, 81003, Note_on_c, 11, 71, 0
13, 81003, Note_on_c, 11, 80, 0
13, 81123, Note_on_c, 11, 64, 100
13, 81123, Note_on_c, 11, 71, 100
13, 81123, Note_on_c, 11, 80, 100
13, 81243, Note_on_c, 11, 80, 0
13, 81243, Note_on_c, 11, 71, 0
13, 81243, Note_on_c, 11, 64, 0
13, 81363, Note_on_c, 11, 71, 100
13, 81363, Note_on_c, 11, 64, 100
13, 81363, Note_on_c, 11, 80, 100
13, 81483, Note_on_c, 11, 80, 0
13, 81483, Note_on_c, 11, 64, 0
13, 81483, Note_on_c, 11, 71, 0
13, 81603, Control_c, 11, 11, 107
13, 81603, Note_on_c, 11, 66, 100
13, 81603, Note_on_c, 11, 69, 100
13, 81620, Control_c, 11, 11, 104
13, 81638, Control_c, 11, 11, 101
13, 81648, Note_on_c, 11, 69, 0
13, 81648, Note_on_c, 11, 66, 0
13, 81656, Control_c, 11, 11, 98
13, 81663, Note_on_c, 11, 66, 100
13, 81663, Note_on_c, 11, 69, 100
13, 81674, Control_c, 11, 11, 95
13, 81692, Control_c, 11, 11, 92
13, 81708, Note_on_c, 11, 69, 0
13, 81708, Note_on_c, 11, 66, 0
13, 81710, Control_c, 11, 11, 89
13, 81723, Note_on_c, 11, 66, 100
13, 81723, Note_on_c, 11, 69, 100
13, 81768, Note_on_c, 11, 69, 0
13, 81768, Note_on_c, 11, 66, 0
13, 81783, Note_on_c, 11, 66, 100
13, 81783, Note_on_c, 11, 69, 100
13, 81828, Note_on_c, 11, 69, 0
13, 81828, Note_on_c, 11, 66, 0
13, 81843, Note_on_c, 11, 66, 100
13, 81843, Note_on_c, 11, 69, 100
13, 81888, Note_on_c, 11, 69, 0
13, 81888, Note_on_c, 11, 66, 0
13, 81903, Note_on_c, 11, 69, 100
13, 81903, Note_on_c, 11, 66, 100
13, 81948, Note_on_c, 11, 66, 0
13, 81948, Note_on_c, 11, 69, 0
13, 81963, Note_on_c, 11, 69, 100
13, 81963, Note_on_c, 11, 66, 100
13, 82008, Note_on_c, 11, 66, 0
13, 82008, Note_on_c, 11, 69, 0
13, 82023, Note_on_c, 11, 69, 100
13, 82023, Note_on_c, 11, 66, 100
13, 82068, Note_on_c, 11, 66, 0
13, 82068, Note_on_c, 11, 69, 0
13, 82083, Note_on_c, 11, 69, 100
13, 82083, Note_on_c, 11, 66, 100
13, 82128, Note_on_c, 11, 66, 0
13, 82128, Note_on_c, 11, 69, 0
13, 82143, Note_on_c, 11, 66, 100
13, 82143, Note_on_c, 11, 69, 100
13, 82188, Note_on_c, 11, 69, 0
13, 82188, Note_on_c, 11, 66, 0
13, 82203, Note_on_c, 11, 66, 100
13, 82203, Note_on_c, 11, 69, 100
13, 82248, Note_on_c, 11, 69, 0
13, 82248, Note_on_c, 11, 66, 0
13, 82263, Note_on_c, 11, 66, 100
13, 82263, Note_on_c, 11, 69, 100
13, 82308, Note_on_c, 11, 69, 0
13, 82308, Note_on_c, 11, 66, 0
13, 82323, Note_on_c, 11, 66, 100
13, 82323, Note_on_c, 11, 69, 100
13, 82368, Note_on_c, 11, 69, 0
13, 82368, Note_on_c, 11, 66, 0
13, 82383, Note_on_c, 11, 66, 100
13, 82383, Note_on_c, 11, 69, 100
13, 82428, Note_on_c, 11, 69, 0
13, 82428, Note_on_c, 11, 66, 0
13, 82443, Note_on_c, 11, 66, 100
13, 82443, Note_on_c, 11, 69, 100
13, 82488, Note_on_c, 11, 69, 0
13, 82488, Note_on_c, 11, 66, 0
13, 82503, Note_on_c, 11, 66, 100
13, 82503, Note_on_c, 11, 69, 100
13, 82548, Note_on_c, 11, 69, 0
13, 82548, Note_on_c, 11, 66, 0
13, 82563, Note_on_c, 11, 68, 100
13, 82683, Note_on_c, 11, 68, 0
13, 82803, Note_on_c, 11, 76, 100
13, 82803, Note_on_c, 11, 68, 100
13, 82923, Note_on_c, 11, 68, 0
13, 82923, Note_on_c, 11, 76, 0
13, 83043, Note_on_c, 11, 80, 100
13, 83043, Note_on_c, 11, 64, 100
13, 83043, Note_on_c, 11, 71, 100
13, 83163, Note_on_c, 11, 71, 0
13, 83163, Note_on_c, 11, 64, 0
13, 83163, Note_on_c, 11, 80, 0
13, 83283, Note_on_c, 11, 64, 100
13, 83283, Note_on_c, 11, 80, 100
13, 83283, Note_on_c, 11, 71, 100
13, 83403, Note_on_c, 11, 71, 0
13, 83403, Note_on_c, 11, 80, 0
13, 83403, Note_on_c, 11, 64, 0
13, 83523, Control_c, 11, 11, 107
13, 83523, Note_on_c, 11, 69, 100
13, 83523, Note_on_c, 11, 66, 100
13, 83540, Control_c, 11, 11, 104
13, 83558, Control_c, 11, 11, 101
13, 83568, Note_on_c, 11, 66, 0
13, 83568, Note_on_c, 11, 69, 0
13, 83576, Control_c, 11, 11, 98
13, 83583, Note_on_c, 11, 69, 100
13, 83583, Note_on_c, 11, 66, 100
13, 83594, Control_c, 11, 11, 95
13, 83612, Control_c, 11, 11, 92
13, 83628, Note_on_c, 11, 66, 0
13, 83628, Note_on_c, 11, 69, 0
13, 83630, Control_c, 11, 11, 89
13, 83643, Note_on_c, 11, 69, 100
13, 83643, Note_on_c, 11, 66, 100
13, 83688, Note_on_c, 11, 66, 0
13, 83688, Note_on_c, 11, 69, 0
13, 83703, Note_on_c, 11, 66, 100
13, 83703, Note_on_c, 11, 69, 100
13, 83748, Note_on_c, 11, 69, 0
13, 83748, Note_on_c, 11, 66, 0
13, 83763, Note_on_c, 11, 69, 100
13, 83763, Note_on_c, 11, 66, 100
13, 83808, Note_on_c, 11, 66, 0
13, 83808, Note_on_c, 11, 69, 0
13, 83823, Note_on_c, 11, 66, 100
13, 83823, Note_on_c, 11, 69, 100
13, 83868, Note_on_c, 11, 69, 0
13, 83868, Note_on_c, 11, 66, 0
13, 83883, Note_on_c, 11, 69, 100
13, 83883, Note_on_c, 11, 66, 100
13, 83928, Note_on_c, 11, 66, 0
13, 83928, Note_on_c, 11, 69, 0
13, 83943, Note_on_c, 11, 66, 100
13, 83943, Note_on_c, 11, 69, 100
13, 83988, Note_on_c, 11, 69, 0
13, 83988, Note_on_c, 11, 66, 0
13, 84003, Note_on_c, 11, 66, 100
13, 84003, Note_on_c, 11, 69, 100
13, 84048, Note_on_c, 11, 69, 0
13, 84048, Note_on_c, 11, 66, 0
13, 84063, Note_on_c, 11, 66, 100
13, 84063, Note_on_c, 11, 69, 100
13, 84108, Note_on_c, 11, 69, 0
13, 84108, Note_on_c, 11, 66, 0
13, 84123, Note_on_c, 11, 69, 100
13, 84123, Note_on_c, 11, 66, 100
13, 84168, Note_on_c, 11, 66, 0
13, 84168, Note_on_c, 11, 69, 0
13, 84183, Note_on_c, 11, 69, 100
13, 84183, Note_on_c, 11, 66, 100
13, 84228, Note_on_c, 11, 66, 0
13, 84228, Note_on_c, 11, 69, 0
13, 84243, Note_on_c, 11, 69, 100
13, 84243, Note_on_c, 11, 66, 100
13, 84288, Note_on_c, 11, 66, 0
13, 84288, Note_on_c, 11, 69, 0
13, 84303, Note_on_c, 11, 69, 100
13, 84303, Note_on_c, 11, 66, 100
13, 84348, Note_on_c, 11, 66, 0
13, 84348, Note_on_c, 11, 69, 0
13, 84363, Note_on_c, 11, 66, 100
13, 84363, Note_on_c, 11, 69, 100
13, 84408, Note_on_c, 11, 69, 0
13, 84408, Note_on_c, 11, 66, 0
13, 84423, Note_on_c, 11, 66, 100
13, 84423, Note_on_c, 11, 69, 100
13, 84468, Note_on_c, 11, 69, 0
13, 84468, Note_on_c, 11, 66, 0
13, 84483, Note_on_c, 11, 68, 100
13, 84528, Note_on_c, 11, 68, 0
13, 84543, Note_on_c, 11, 68, 100
13, 84588, Note_on_c, 11, 68, 0
13, 84603, Note_on_c, 11, 68, 100
13, 84648, Note_on_c, 11, 68, 0
13, 84663, Note_on_c, 11, 68, 100
13, 84708, Note_on_c, 11, 68, 0
13, 84723, Note_on_c, 11, 68, 100
13, 84768, Note_on_c, 11, 68, 0
13, 84783, Note_on_c, 11, 68, 100
13, 84828, Note_on_c, 11, 68, 0
13, 84843, Note_on_c, 11, 68, 100
13, 84888, Note_on_c, 11, 68, 0
13, 84903, Note_on_c, 11, 68, 100
13, 84948, Note_on_c, 11, 68, 0
13, 84963, Note_on_c, 11, 68, 100
13, 85008, Note_on_c, 11, 68, 0
13, 85023, Note_on_c, 11, 68, 100
13, 85068, Note_on_c, 11, 68, 0
13, 85083, Note_on_c, 11, 68, 100
13, 85128, Note_on_c, 11, 68, 0
13, 85143, Note_on_c, 11, 68, 100
13, 85188, Note_on_c, 11, 68, 0
13, 85203, Note_on_c, 11, 68, 100
13, 85248, Note_on_c, 11, 68, 0
13, 85263, Note_on_c, 11, 68, 100
13, 85308, Note_on_c, 11, 68, 0
13, 85323, Note_on_c, 11, 68, 100
13, 85368, Note_on_c, 11, 68, 0
13, 85383, Note_on_c, 11, 68, 100
13, 85428, Note_on_c, 11, 68, 0
13, 85443, Note_on_c, 11, 68, 100
13, 85488, Note_on_c, 11, 68, 0
13, 85503, Note_on_c, 11, 68, 100
13, 85548, Note_on_c, 11, 68, 0
13, 85563, Note_on_c, 11, 68, 100
13, 85608, Note_on_c, 11, 68, 0
13, 85623, Note_on_c, 11, 68, 100
13, 85668, Note_on_c, 11, 68, 0
13, 85683, Note_on_c, 11, 68, 100
13, 85728, Note_on_c, 11, 68, 0
13, 85743, Note_on_c, 11, 68, 100
13, 85788, Note_on_c, 11, 68, 0
13, 85803, Note_on_c, 11, 68, 100
13, 85848, Note_on_c, 11, 68, 0
13, 85863, Note_on_c, 11, 68, 100
13, 85908, Note_on_c, 11, 68, 0
13, 85923, Control_c, 11, 11, 107
13, 85923, Note_on_c, 11, 68, 100
13, 85940, Control_c, 11, 11, 104
13, 85958, Control_c, 11, 11, 101
13, 85968, Note_on_c, 11, 68, 0
13, 85976, Control_c, 11, 11, 98
13, 85983, Note_on_c, 11, 68, 100
13, 85994, Control_c, 11, 11, 95
13, 86012, Control_c, 11, 11, 92
13, 86028, Note_on_c, 11, 68, 0
13, 86030, Control_c, 11, 11, 89
13, 86043, Note_on_c, 11, 68, 100
13, 86088, Note_on_c, 11, 68, 0
13, 86103, Note_on_c, 11, 68, 100
13, 86148, Note_on_c, 11, 68, 0
13, 86163, Note_on_c, 11, 76, 100
13, 86193, Note_on_c, 11, 76, 0
13, 86223, Note_on_c, 11, 74, 100
13, 86253, Note_on_c, 11, 74, 0
13, 86283, Note_on_c, 11, 71, 100
13, 86313, Note_on_c, 11, 71, 0
13, 86343, Note_on_c, 11, 69, 100
13, 86373, Note_on_c, 11, 69, 0
13, 86403, Note_on_c, 11, 68, 76
13, 86523, Note_on_c, 11, 68, 0
13, 87003, Control_c, 11, 11, 47
13, 87003, Note_on_c, 11, 61, 100
13, 87063, Note_on_c, 11, 61, 0
13, 87063, Note_on_c, 11, 62, 100
13, 87123, Note_on_c, 11, 62, 0
13, 87123, Note_on_c, 11, 64, 100
13, 87183, Note_on_c, 11, 64, 0
13, 87243, Note_on_c, 11, 64, 100
13, 87303, Note_on_c, 11, 64, 0
13, 87303, Note_on_c, 11, 66, 100
13, 87363, Note_on_c, 11, 66, 0
13, 87363, Note_on_c, 11, 62, 100
13, 87423, Note_on_c, 11, 62, 0
13, 87483, Note_on_c, 11, 68, 100
13, 87543, Note_on_c, 11, 68, 0
13, 87543, Note_on_c, 11, 69, 100
13, 87603, Note_on_c, 11, 69, 0
13, 87603, Note_on_c, 11, 71, 100
13, 87663, Note_on_c, 11, 71, 0
13, 87723, Note_on_c, 11, 71, 100
13, 87783, Note_on_c, 11, 71, 0
13, 87783, Note_on_c, 11, 73, 100
13, 87843, Note_on_c, 11, 73, 0
13, 87843, Note_on_c, 11, 69, 100
13, 87903, Note_on_c, 11, 69, 0
13, 87963, Note_on_c, 11, 69, 100
13, 88023, Note_on_c, 11, 69, 0
13, 88023, Note_on_c, 11, 71, 100
13, 88083, Note_on_c, 11, 71, 0
13, 88083, Note_on_c, 11, 73, 100
13, 88143, Note_on_c, 11, 73, 0
13, 88203, Note_on_c, 11, 73, 100
13, 88263, Note_on_c, 11, 73, 0
13, 88263, Note_on_c, 11, 73, 100
13, 88323, Note_on_c, 11, 73, 0
13, 88323, Note_on_c, 11, 71, 100
13, 88383, Note_on_c, 11, 71, 0
13, 88923, Note_on_c, 11, 61, 100
13, 88983, Note_on_c, 11, 61, 0
13, 88983, Note_on_c, 11, 62, 100
13, 89043, Note_on_c, 11, 62, 0
13, 89043, Note_on_c, 11, 64, 100
13, 89103, Note_on_c, 11, 64, 0
13, 89163, Note_on_c, 11, 64, 100
13, 89223, Note_on_c, 11, 64, 0
13, 89223, Note_on_c, 11, 66, 100
13, 89283, Note_on_c, 11, 66, 0
13, 89283, Note_on_c, 11, 62, 100
13, 89343, Note_on_c, 11, 62, 0
13, 89403, Note_on_c, 11, 68, 100
13, 89463, Note_on_c, 11, 68, 0
13, 89463, Note_on_c, 11, 69, 100
13, 89523, Note_on_c, 11, 69, 0
13, 89523, Note_on_c, 11, 71, 100
13, 89583, Note_on_c, 11, 71, 0
13, 89643, Note_on_c, 11, 71, 100
13, 89703, Note_on_c, 11, 71, 0
13, 89703, Note_on_c, 11, 73, 100
13, 89763, Note_on_c, 11, 73, 0
13, 89763, Note_on_c, 11, 69, 100
13, 89823, Note_on_c, 11, 69, 0
13, 89883, Note_on_c, 11, 69, 100
13, 89943, Note_on_c, 11, 69, 0
13, 89943, Note_on_c, 11, 71, 100
13, 90003, Note_on_c, 11, 71, 0
13, 90003, Note_on_c, 11, 73, 100
13, 90063, Note_on_c, 11, 73, 0
13, 90123, Note_on_c, 11, 73, 100
13, 90183, Note_on_c, 11, 73, 0
13, 90183, Note_on_c, 11, 73, 100
13, 90243, Note_on_c, 11, 73, 0
13, 90243, Note_on_c, 11, 71, 100
13, 90303, Note_on_c, 11, 71, 0
13, 91803, Note_on_c, 11, 60, 100
13, 91863, Note_on_c, 11, 60, 0
13, 91863, Note_on_c, 11, 62, 100
13, 91923, Note_on_c, 11, 62, 0
13, 91923, Note_on_c, 11, 64, 100
13, 91983, Note_on_c, 11, 64, 0
13, 92043, Note_on_c, 11, 64, 100
13, 92103, Note_on_c, 11, 64, 0
13, 92103, Note_on_c, 11, 65, 100
13, 92163, Note_on_c, 11, 65, 0
13, 92163, Note_on_c, 11, 62, 100
13, 92193, Note_on_c, 11, 62, 0
13, 92283, Note_on_c, 11, 71, 100
13, 92343, Note_on_c, 11, 71, 0
13, 92343, Note_on_c, 11, 72, 100
13, 92403, Note_on_c, 11, 72, 0
13, 92403, Note_on_c, 11, 74, 100
13, 92433, Note_on_c, 11, 74, 0
13, 92523, Note_on_c, 11, 74, 100
13, 92583, Note_on_c, 11, 74, 0
13, 92583, Note_on_c, 11, 76, 100
13, 92643, Note_on_c, 11, 76, 0
13, 92643, Note_on_c, 11, 72, 100
13, 92703, Note_on_c, 11, 72, 0
13, 92763, Note_on_c, 11, 72, 100
13, 92823, Note_on_c, 11, 72, 0
13, 92823, Note_on_c, 11, 74, 100
13, 92883, Note_on_c, 11, 74, 0
13, 92883, Note_on_c, 11, 76, 100
13, 92943, Note_on_c, 11, 76, 0
13, 93003, Note_on_c, 11, 76, 100
13, 93063, Note_on_c, 11, 76, 0
13, 93063, Note_on_c, 11, 76, 100
13, 93123, Note_on_c, 11, 76, 0
13, 93123, Note_on_c, 11, 74, 100
13, 93183, Note_on_c, 11, 74, 0
13, 93723, Control_c, 11, 11, 47
13, 93723, Note_on_c, 11, 71, 100
13, 93756, Control_c, 11, 11, 48
13, 93783, Note_on_c, 11, 71, 0
13, 93783, Note_on_c, 11, 72, 100
13, 93789, Control_c, 11, 11, 49
13, 93822, Control_c, 11, 11, 50
13, 93843, Note_on_c, 11, 72, 0
13, 93843, Note_on_c, 11, 74, 100
13, 93855, Control_c, 11, 11, 51
13, 93888, Control_c, 11, 11, 52
13, 93903, Note_on_c, 11, 74, 0
13, 93921, Control_c, 11, 11, 53
13, 93954, Control_c, 11, 11, 54
13, 93963, Note_on_c, 11, 74, 100
13, 93987, Control_c, 11, 11, 55
13, 94020, Control_c, 11, 11, 56
13, 94023, Note_on_c, 11, 74, 0
13, 94023, Note_on_c, 11, 76, 100
13, 94053, Control_c, 11, 11, 57
13, 94083, Note_on_c, 11, 76, 0
13, 94083, Note_on_c, 11, 72, 100
13, 94086, Control_c, 11, 11, 58
13, 94119, Control_c, 11, 11, 59
13, 94143, Note_on_c, 11, 72, 0
13, 94152, Control_c, 11, 11, 60
13, 94185, Control_c, 11, 11, 61
13, 94203, Note_on_c, 11, 71, 100
13, 94218, Control_c, 11, 11, 62
13, 94251, Control_c, 11, 11, 63
13, 94263, Note_on_c, 11, 71, 0
13, 94263, Note_on_c, 11, 72, 100
13, 94284, Control_c, 11, 11, 64
13, 94317, Control_c, 11, 11, 65
13, 94323, Note_on_c, 11, 72, 0
13, 94323, Note_on_c, 11, 74, 100
13, 94350, Control_c, 11, 11, 66
13, 94383, Note_on_c, 11, 74, 0
13, 94383, Control_c, 11, 11, 67
13, 94416, Control_c, 11, 11, 68
13, 94443, Note_on_c, 11, 74, 100
13, 94449, Control_c, 11, 11, 69
13, 94482, Control_c, 11, 11, 70
13, 94503, Note_on_c, 11, 74, 0
13, 94503, Note_on_c, 11, 76, 100
13, 94515, Control_c, 11, 11, 71
13, 94548, Control_c, 11, 11, 72
13, 94563, Note_on_c, 11, 76, 0
13, 94563, Note_on_c, 11, 72, 100
13, 94581, Control_c, 11, 11, 73
13, 94614, Control_c, 11, 11, 74
13, 94623, Note_on_c, 11, 72, 0
13, 94647, Control_c, 11, 11, 75
13, 94680, Control_c, 11, 11, 76
13, 94683, Note_on_c, 11, 71, 100
13, 94713, Control_c, 11, 11, 77
13, 94743, Note_on_c, 11, 71, 0
13, 94743, Note_on_c, 11, 72, 100
13, 94746, Control_c, 11, 11, 78
13, 94779, Control_c, 11, 11, 79
13, 94803, Note_on_c, 11, 72, 0
13, 94803, Note_on_c, 11, 74, 100
13, 94812, Control_c, 11, 11, 80
13, 94845, Control_c, 11, 11, 81
13, 94863, Note_on_c, 11, 74, 0
13, 94878, Control_c, 11, 11, 82
13, 94911, Control_c, 11, 11, 83
13, 94923, Note_on_c, 11, 74, 100
13, 94944, Control_c, 11, 11, 84
13, 94977, Control_c, 11, 11, 85
13, 94983, Note_on_c, 11, 74, 0
13, 94983, Note_on_c, 11, 76, 100
13, 95010, Control_c, 11, 11, 86
13, 95043, Note_on_c, 11, 76, 0
13, 95043, Control_c, 11, 11, 87
13, 95043, Note_on_c, 11, 72, 100
13, 95103, Note_on_c, 11, 72, 0
13, 95163, Note_on_c, 11, 77, 100
13, 95193, Note_on_c, 11, 77, 0
13, 95223, Note_on_c, 11, 77, 100
13, 95253, Note_on_c, 11, 77, 0
13, 95283, Note_on_c, 11, 76, 100
13, 95343, Note_on_c, 11, 76, 0
13, 95403, Note_on_c, 11, 77, 100
13, 95433, Note_on_c, 11, 77, 0
13, 95463, Note_on_c, 11, 77, 100
13, 95493, Note_on_c, 11, 77, 0
13, 95523, Note_on_c, 11, 76, 100
13, 95583, Note_on_c, 11, 76, 0
13, 95643, Note_on_c, 11, 77, 100
13, 95673, Note_on_c, 11, 77, 0
13, 95703, Note_on_c, 11, 77, 100
13, 95733, Note_on_c, 11, 77, 0
13, 95763, Note_on_c, 11, 76, 100
13, 95823, Note_on_c, 11, 76, 0
13, 95883, Note_on_c, 11, 77, 100
13, 95913, Note_on_c, 11, 77, 0
13, 95943, Note_on_c, 11, 77, 100
13, 95973, Note_on_c, 11, 77, 0
13, 96003, Control_c, 11, 11, 102
13, 96003, Note_on_c, 11, 76, 100
13, 96048, Note_on_c, 11, 76, 0
13, 96063, Note_on_c, 11, 84, 100
13, 96108, Note_on_c, 11, 84, 0
13, 96123, Note_on_c, 11, 83, 100
13, 96168, Note_on_c, 11, 83, 0
13, 96183, Note_on_c, 11, 81, 100
13, 96228, Note_on_c, 11, 81, 0
13, 96243, Note_on_c, 11, 79, 100
13, 96288, Note_on_c, 11, 79, 0
13, 96303, Note_on_c, 11, 77, 100
13, 96348, Note_on_c, 11, 77, 0
13, 96363, Note_on_c, 11, 76, 100
13, 96408, Note_on_c, 11, 76, 0
13, 96423, Note_on_c, 11, 74, 100
13, 96468, Note_on_c, 11, 74, 0
13, 96483, Note_on_c, 11, 72, 100
13, 96528, Note_on_c, 11, 72, 0
13, 96543, Note_on_c, 11, 71, 100
13, 96588, Note_on_c, 11, 71, 0
13, 96603, Note_on_c, 11, 69, 100
13, 96648, Note_on_c, 11, 69, 0
13, 96663, Note_on_c, 11, 67, 100
13, 96708, Note_on_c, 11, 67, 0
13, 96723, Note_on_c, 11, 65, 100
13, 96768, Note_on_c, 11, 65, 0
13, 96783, Note_on_c, 11, 64, 100
13, 96828, Note_on_c, 11, 64, 0
13, 96843, Note_on_c, 11, 62, 100
13, 96888, Note_on_c, 11, 62, 0
13, 96903, Note_on_c, 11, 60, 100
13, 96948, Note_on_c, 11, 60, 0
13, 96963, Note_on_c, 11, 81, 100
13, 97008, Note_on_c, 11, 81, 0
13, 97023, Note_on_c, 11, 81, 100
13, 97068, Note_on_c, 11, 81, 0
13, 97083, Note_on_c, 11, 79, 100
13, 97128, Note_on_c, 11, 79, 0
13, 97143, Note_on_c, 11, 77, 100
13, 97188, Note_on_c, 11, 77, 0
13, 97203, Note_on_c, 11, 76, 100
13, 97248, Note_on_c, 11, 76, 0
13, 97263, Note_on_c, 11, 74, 100
13, 97308, Note_on_c, 11, 74, 0
13, 97323, Note_on_c, 11, 72, 100
13, 97368, Note_on_c, 11, 72, 0
13, 97383, Note_on_c, 11, 71, 100
13, 97428, Note_on_c, 11, 71, 0
13, 97443, Note_on_c, 11, 69, 100
13, 97488, Note_on_c, 11, 69, 0
13, 97503, Note_on_c, 11, 67, 100
13, 97548, Note_on_c, 11, 67, 0
13, 97563, Note_on_c, 11, 65, 100
13, 97608, Note_on_c, 11, 65, 0
13, 97623, Note_on_c, 11, 64, 100
13, 97668, Note_on_c, 11, 64, 0
13, 97683, Note_on_c, 11, 62, 100
13, 97728, Note_on_c, 11, 62, 0
13, 97743, Note_on_c, 11, 60, 100
13, 97788, Note_on_c, 11, 60, 0
13, 97803, Note_on_c, 11, 59, 100
13, 97848, Note_on_c, 11, 59, 0
13, 97863, Note_on_c, 11, 57, 100
13, 97908, Note_on_c, 11, 57, 0
13, 97923, Note_on_c, 11, 57, 100
13, 97968, Note_on_c, 11, 57, 0
13, 97983, Note_on_c, 11, 65, 100
13, 98028, Note_on_c, 11, 65, 0
13, 98043, Note_on_c, 11, 65, 100
13, 98088, Note_on_c, 11, 65, 0
13, 98103, Note_on_c, 11, 65, 100
13, 98148, Note_on_c, 11, 65, 0
13, 98163, Note_on_c, 11, 65, 100
13, 98208, Note_on_c, 11, 65, 0
13, 98223, Note_on_c, 11, 69, 100
13, 98268, Note_on_c, 11, 69, 0
13, 98283, Note_on_c, 11, 69, 100
13, 98328, Note_on_c, 11, 69, 0
13, 98343, Note_on_c, 11, 69, 100
13, 98388, Note_on_c, 11, 69, 0
13, 98403, Note_on_c, 11, 69, 100
13, 98448, Note_on_c, 11, 69, 0
13, 98463, Note_on_c, 11, 72, 100
13, 98508, Note_on_c, 11, 72, 0
13, 98523, Note_on_c, 11, 72, 100
13, 98568, Note_on_c, 11, 72, 0
13, 98583, Note_on_c, 11, 72, 100
13, 98628, Note_on_c, 11, 72, 0
13, 98643, Note_on_c, 11, 72, 100
13, 98688, Note_on_c, 11, 72, 0
13, 98703, Note_on_c, 11, 77, 100
13, 98748, Note_on_c, 11, 77, 0
13, 98763, Note_on_c, 11, 77, 100
13, 98808, Note_on_c, 11, 77, 0
13, 98823, Note_on_c, 11, 77, 100
13, 98868, Note_on_c, 11, 77, 0
13, 98883, Note_on_c, 11, 77, 100
13, 98928, Note_on_c, 11, 77, 0
13, 98943, Note_on_c, 11, 65, 100
13, 98988, Note_on_c, 11, 65, 0
13, 99003, Note_on_c, 11, 65, 100
13, 99048, Note_on_c, 11, 65, 0
13, 99063, Note_on_c, 11, 65, 100
13, 99108, Note_on_c, 11, 65, 0
13, 99123, Note_on_c, 11, 65, 100
13, 99168, Note_on_c, 11, 65, 0
13, 99183, Note_on_c, 11, 65, 100
13, 99228, Note_on_c, 11, 65, 0
13, 99243, Control_c, 11, 11, 122
13, 99243, Note_on_c, 11, 64, 100
13, 99260, Control_c, 11, 11, 119
13, 99278, Control_c, 11, 11, 116
13, 99288, Note_on_c, 11, 64, 0
13, 99296, Control_c, 11, 11, 113
13, 99303, Note_on_c, 11, 64, 100
13, 99314, Control_c, 11, 11, 110
13, 99332, Control_c, 11, 11, 107
13, 99348, Note_on_c, 11, 64, 0
13, 99350, Control_c, 11, 11, 104
13, 99363, Note_on_c, 11, 65, 100
13, 99408, Note_on_c, 11, 65, 0
13, 99423, Note_on_c, 11, 65, 100
13, 99468, Note_on_c, 11, 65, 0
13, 99483, Note_on_c, 11, 65, 100
13, 99528, Note_on_c, 11, 65, 0
13, 99543, Note_on_c, 11, 65, 100
13, 99588, Note_on_c, 11, 65, 0
13, 99603, Note_on_c, 11, 65, 100
13, 99648, Note_on_c, 11, 65, 0
13, 99663, Note_on_c, 11, 65, 100
13, 99708, Note_on_c, 11, 65, 0
13, 99723, Control_c, 11, 11, 122
13, 99723, Note_on_c, 11, 64, 100
13, 99740, Control_c, 11, 11, 119
13, 99758, Control_c, 11, 11, 116
13, 99768, Note_on_c, 11, 64, 0
13, 99776, Control_c, 11, 11, 113
13, 99783, Note_on_c, 11, 64, 100
13, 99794, Control_c, 11, 11, 110
13, 99812, Control_c, 11, 11, 107
13, 99828, Note_on_c, 11, 64, 0
13, 99830, Control_c, 11, 11, 104
13, 99843, Note_on_c, 11, 65, 100
13, 99888, Note_on_c, 11, 65, 0
13, 99903, Note_on_c, 11, 65, 100
13, 99948, Note_on_c, 11, 65, 0
13, 99963, Control_c, 11, 11, 122
13, 99963, Note_on_c, 11, 64, 100
13, 99980, Control_c, 11, 11, 119
13, 99998, Control_c, 11, 11, 116
13, 100008, Note_on_c, 11, 64, 0
13, 100016, Control_c, 11, 11, 113
13, 100023, Note_on_c, 11, 64, 100
13, 100034, Control_c, 11, 11, 110
13, 100052, Control_c, 11, 11, 107
13, 100068, Note_on_c, 11, 64, 0
13, 100070, Control_c, 11, 11, 104
13, 100083, Note_on_c, 11, 65, 100
13, 100128, Note_on_c, 11, 65, 0
13, 100143, Note_on_c, 11, 65, 100
13, 100188, Note_on_c, 11, 65, 0
13, 100203, Control_c, 11, 11, 122
13, 100203, Note_on_c, 11, 64, 100
13, 100220, Control_c, 11, 11, 119
13, 100238, Control_c, 11, 11, 116
13, 100248, Note_on_c, 11, 64, 0
13, 100256, Control_c, 11, 11, 113
13, 100263, Note_on_c, 11, 64, 100
13, 100274, Control_c, 11, 11, 110
13, 100292, Control_c, 11, 11, 107
13, 100308, Note_on_c, 11, 64, 0
13, 100310, Control_c, 11, 11, 104
13, 100323, Note_on_c, 11, 65, 100
13, 100368, Note_on_c, 11, 65, 0
13, 100383, Note_on_c, 11, 65, 100
13, 100428, Note_on_c, 11, 65, 0
13, 100443, Control_c, 11, 11, 122
13, 100443, Note_on_c, 11, 64, 100
13, 100460, Control_c, 11, 11, 119
13, 100478, Control_c, 11, 11, 116
13, 100488, Note_on_c, 11, 64, 0
13, 100496, Control_c, 11, 11, 113
13, 100503, Note_on_c, 11, 64, 100
13, 100514, Control_c, 11, 11, 110
13, 100532, Control_c, 11, 11, 107
13, 100548, Note_on_c, 11, 64, 0
13, 100550, Control_c, 11, 11, 104
13, 100563, Note_on_c, 11, 65, 100
13, 100608, Note_on_c, 11, 65, 0
13, 100623, Note_on_c, 11, 65, 100
13, 100668, Note_on_c, 11, 65, 0
13, 100683, Control_c, 11, 11, 122
13, 100683, Note_on_c, 11, 72, 100
13, 100700, Control_c, 11, 11, 119
13, 100718, Control_c, 11, 11, 116
13, 100728, Note_on_c, 11, 72, 0
13, 100736, Control_c, 11, 11, 113
13, 100743, Note_on_c, 11, 72, 100
13, 100754, Control_c, 11, 11, 110
13, 100772, Control_c, 11, 11, 107
13, 100788, Note_on_c, 11, 72, 0
13, 100790, Control_c, 11, 11, 104
13, 100803, Note_on_c, 11, 71, 100
13, 100848, Note_on_c, 11, 71, 0
13, 100863, Note_on_c, 11, 71, 100
13, 100908, Note_on_c, 11, 71, 0
13, 100923, Control_c, 11, 11, 122
13, 100923, Note_on_c, 11, 70, 100
13, 100940, Control_c, 11, 11, 119
13, 100958, Control_c, 11, 11, 116
13, 100968, Note_on_c, 11, 70, 0
13, 100976, Control_c, 11, 11, 113
13, 100983, Note_on_c, 11, 70, 100
13, 100994, Control_c, 11, 11, 110
13, 101012, Control_c, 11, 11, 107
13, 101028, Note_on_c, 11, 70, 0
13, 101030, Control_c, 11, 11, 104
13, 101043, Note_on_c, 11, 69, 100
13, 101088, Note_on_c, 11, 69, 0
13, 101103, Note_on_c, 11, 69, 100
13, 101148, Note_on_c, 11, 69, 0
13, 101163, Control_c, 11, 11, 122
13, 101163, Note_on_c, 11, 65, 100
13, 101180, Control_c, 11, 11, 119
13, 101198, Control_c, 11, 11, 116
13, 101208, Note_on_c, 11, 65, 0
13, 101216, Control_c, 11, 11, 113
13, 101223, Note_on_c, 11, 65, 100
13, 101234, Control_c, 11, 11, 110
13, 101252, Control_c, 11, 11, 107
13, 101268, Note_on_c, 11, 65, 0
13, 101270, Control_c, 11, 11, 104
13, 101283, Note_on_c, 11, 64, 100
13, 101328, Note_on_c, 11, 64, 0
13, 101343, Note_on_c, 11, 64, 100
13, 101388, Note_on_c, 11, 64, 0
13, 101403, Control_c, 11, 11, 122
13, 101403, Note_on_c, 11, 67, 100
13, 101420, Control_c, 11, 11, 119
13, 101438, Control_c, 11, 11, 116
13, 101448, Note_on_c, 11, 67, 0
13, 101456, Control_c, 11, 11, 113
13, 101463, Note_on_c, 11, 67, 100
13, 101474, Control_c, 11, 11, 110
13, 101492, Control_c, 11, 11, 107
13, 101508, Note_on_c, 11, 67, 0
13, 101510, Control_c, 11, 11, 104
13, 101523, Note_on_c, 11, 62, 100
13, 101568, Note_on_c, 11, 62, 0
13, 101583, Note_on_c, 11, 62, 100
13, 101628, Note_on_c, 11, 62, 0
13, 101643, Control_c, 11, 11, 122
13, 101643, Note_on_c, 11, 65, 100
13, 101660, Control_c, 11, 11, 119
13, 101678, Control_c, 11, 11, 116
13, 101688, Note_on_c, 11, 65, 0
13, 101696, Control_c, 11, 11, 113
13, 101703, Note_on_c, 11, 65, 100
13, 101714, Control_c, 11, 11, 110
13, 101732, Control_c, 11, 11, 107
13, 101748, Note_on_c, 11, 65, 0
13, 101750, Control_c, 11, 11, 104
13, 101763, Note_on_c, 11, 64, 100
13, 101883, Note_on_c, 11, 64, 0
13, 102123, Control_c, 11, 11, 87
13, 102123, Note_on_c, 11, 80, 100
13, 102123, Note_on_c, 11, 71, 100
13, 102243, Note_on_c, 11, 71, 0
13, 102243, Note_on_c, 11, 80, 0
13, 102243, Note_on_c, 11, 72, 100
13, 102243, Note_on_c, 11, 79, 100
13, 102363, Note_on_c, 11, 79, 0
13, 102363, Note_on_c, 11, 72, 0
13, 102603, Note_on_c, 11, 80, 100
13, 102603, Note_on_c, 11, 71, 100
13, 102723, Note_on_c, 11, 71, 0
13, 102723, Note_on_c, 11, 80, 0
13, 102723, Note_on_c, 11, 79, 100
13, 102723, Note_on_c, 11, 72, 100
13, 102843, Note_on_c, 11, 72, 0
13, 102843, Note_on_c, 11, 79, 0
13, 103083, Note_on_c, 11, 71, 100
13, 103083, Note_on_c, 11, 80, 100
13, 103203, Note_on_c, 11, 80, 0
13, 103203, Note_on_c, 11, 71, 0
13, 103203, Note_on_c, 11, 79, 100
13, 103203, Note_on_c, 11, 72, 100
13, 103323, Note_on_c, 11, 72, 0
13, 103323, Note_on_c, 11, 79, 0
13, 103563, Note_on_c, 11, 80, 100
13, 103563, Note_on_c, 11, 71, 100
13, 103683, Note_on_c, 11, 71, 0
13, 103683, Note_on_c, 11, 80, 0
13, 103683, Note_on_c, 11, 79, 100
13, 103683, Note_on_c, 11, 72, 100
13, 103788, Note_on_c, 11, 72, 0
13, 103788, Note_on_c, 11, 79, 0
13, 103803, Note_on_c, 11, 72, 100
13, 103803, Note_on_c, 11, 76, 100
13, 103848, Note_on_c, 11, 76, 0
13, 103848, Note_on_c, 11, 72, 0
13, 103863, Note_on_c, 11, 76, 100
13, 103863, Note_on_c, 11, 72, 100
13, 103908, Note_on_c, 11, 72, 0
13, 103908, Note_on_c, 11, 76, 0
13, 103923, Note_on_c, 11, 76, 100
13, 103923, Note_on_c, 11, 72, 100
13, 104043, Note_on_c, 11, 72, 0
13, 104043, Note_on_c, 11, 76, 0
13, 104163, Note_on_c, 11, 72, 100
13, 104163, Note_on_c, 11, 76, 100
13, 104268, Note_on_c, 11, 76, 0
13, 104268, Note_on_c, 11, 72, 0
13, 104283, Note_on_c, 11, 72, 100
13, 104283, Note_on_c, 11, 76, 100
13, 104328, Note_on_c, 11, 76, 0
13, 104328, Note_on_c, 11, 72, 0
13, 104343, Note_on_c, 11, 76, 100
13, 104343, Note_on_c, 11, 72, 100
13, 104388, Note_on_c, 11, 72, 0
13, 104388, Note_on_c, 11, 76, 0
13, 104403, Note_on_c, 11, 76, 100
13, 104403, Note_on_c, 11, 72, 100
13, 104523, Note_on_c, 11, 72, 0
13, 104523, Note_on_c, 11, 76, 0
13, 104643, Note_on_c, 11, 76, 100
13, 104643, Note_on_c, 11, 72, 100
13, 104748, Note_on_c, 11, 72, 0
13, 104748, Note_on_c, 11, 76, 0
13, 104763, Note_on_c, 11, 76, 100
13, 104763, Note_on_c, 11, 72, 100
13, 104808, Note_on_c, 11, 72, 0
13, 104808, Note_on_c, 11, 76, 0
13, 104823, Note_on_c, 11, 76, 100
13, 104823, Note_on_c, 11, 72, 100
13, 104868, Note_on_c, 11, 72, 0
13, 104868, Note_on_c, 11, 76, 0
13, 104883, Note_on_c, 11, 76, 100
13, 104883, Note_on_c, 11, 72, 100
13, 104988, Note_on_c, 11, 72, 0
13, 104988, Note_on_c, 11, 76, 0
13, 105003, Note_on_c, 11, 76, 100
13, 105003, Note_on_c, 11, 72, 100
13, 105048, Note_on_c, 11, 72, 0
13, 105048, Note_on_c, 11, 76, 0
13, 105063, Note_on_c, 11, 72, 100
13, 105063, Note_on_c, 11, 76, 100
13, 105108, Note_on_c, 11, 76, 0
13, 105108, Note_on_c, 11, 72, 0
13, 105123, Note_on_c, 11, 72, 100
13, 105123, Note_on_c, 11, 76, 100
13, 105228, Note_on_c, 11, 76, 0
13, 105228, Note_on_c, 11, 72, 0
13, 105243, Note_on_c, 11, 76, 100
13, 105243, Note_on_c, 11, 72, 100
13, 105288, Note_on_c, 11, 72, 0
13, 105288, Note_on_c, 11, 76, 0
13, 105303, Note_on_c, 11, 76, 100
13, 105303, Note_on_c, 11, 72, 100
13, 105348, Note_on_c, 11, 72, 0
13, 105348, Note_on_c, 11, 76, 0
13, 105363, Note_on_c, 11, 72, 100
13, 105363, Note_on_c, 11, 76, 100
13, 105468, Note_on_c, 11, 76, 0
13, 105468, Note_on_c, 11, 72, 0
13, 105483, Note_on_c, 11, 72, 100
13, 105483, Note_on_c, 11, 76, 100
13, 105528, Note_on_c, 11, 76, 0
13, 105528, Note_on_c, 11, 72, 0
13, 105543, Note_on_c, 11, 72, 100
13, 105543, Note_on_c, 11, 76, 100
13, 105588, Note_on_c, 11, 76, 0
13, 105588, Note_on_c, 11, 72, 0
13, 105603, Note_on_c, 11, 82, 100
13, 105708, Note_on_c, 11, 82, 0
13, 105723, Note_on_c, 11, 82, 100
13, 105768, Note_on_c, 11, 82, 0
13, 105783, Note_on_c, 11, 82, 100
13, 105828, Note_on_c, 11, 82, 0
13, 105843, Note_on_c, 11, 82, 100
13, 105948, Note_on_c, 11, 82, 0
13, 105963, Note_on_c, 11, 82, 100
13, 106008, Note_on_c, 11, 82, 0
13, 106023, Note_on_c, 11, 82, 100
13, 106068, Note_on_c, 11, 82, 0
13, 106083, Note_on_c, 11, 82, 100
13, 106188, Note_on_c, 11, 82, 0
13, 106203, Note_on_c, 11, 82, 100
13, 106248, Note_on_c, 11, 82, 0
13, 106263, Note_on_c, 11, 82, 100
13, 106308, Note_on_c, 11, 82, 0
13, 106323, Note_on_c, 11, 82, 100
13, 106428, Note_on_c, 11, 82, 0
13, 106443, Note_on_c, 11, 82, 100
13, 106488, Note_on_c, 11, 82, 0
13, 106503, Note_on_c, 11, 82, 100
13, 106548, Note_on_c, 11, 82, 0
13, 106563, Note_on_c, 11, 83, 100
13, 106683, Note_on_c, 11, 83, 0
13, 106923, Note_on_c, 11, 73, 100
13, 106923, Note_on_c, 11, 82, 100
13, 107043, Note_on_c, 11, 82, 0
13, 107043, Note_on_c, 11, 73, 0
13, 107043, Note_on_c, 11, 83, 100
13, 107043, Note_on_c, 11, 75, 100
13, 107163, Note_on_c, 11, 75, 0
13, 107163, Note_on_c, 11, 83, 0
13, 107403, Note_on_c, 11, 82, 100
13, 107403, Note_on_c, 11, 73, 100
13, 107523, Note_on_c, 11, 73, 0
13, 107523, Note_on_c, 11, 82, 0
13, 107523, Note_on_c, 11, 83, 100
13, 107523, Note_on_c, 11, 75, 100
13, 107643, Note_on_c, 11, 75, 0
13, 107643, Note_on_c, 11, 83, 0
13, 107883, Note_on_c, 11, 73, 100
13, 107883, Note_on_c, 11, 82, 100
13, 108003, Note_on_c, 11, 82, 0
13, 108003, Note_on_c, 11, 73, 0
13, 108003, Note_on_c, 11, 83, 100
13, 108003, Note_on_c, 11, 75, 100
13, 108123, Note_on_c, 11, 75, 0
13, 108123, Note_on_c, 11, 83, 0
13, 108363, Note_on_c, 11, 82, 100
13, 108363, Note_on_c, 11, 73, 100
13, 108483, Note_on_c, 11, 73, 0
13, 108483, Note_on_c, 11, 82, 0
13, 108483, Note_on_c, 11, 83, 100
13, 108483, Note_on_c, 11, 75, 100
13, 108588, Note_on_c, 11, 75, 0
13, 108588, Note_on_c, 11, 83, 0
13, 108603, Note_on_c, 11, 71, 100
13, 108603, Note_on_c, 11, 83, 100
13, 108648, Note_on_c, 11, 83, 0
13, 108648, Note_on_c, 11, 71, 0
13, 108663, Note_on_c, 11, 71, 100
13, 108663, Note_on_c, 11, 83, 100
13, 108708, Note_on_c, 11, 83, 0
13, 108708, Note_on_c, 11, 71, 0
13, 108723, Note_on_c, 11, 83, 100
13, 108723, Note_on_c, 11, 71, 100
13, 108828, Note_on_c, 11, 71, 0
13, 108828, Note_on_c, 11, 83, 0
13, 108843, Note_on_c, 11, 71, 100
13, 108843, Note_on_c, 11, 83, 100
13, 108888, Note_on_c, 11, 83, 0
13, 108888, Note_on_c, 11, 71, 0
13, 108903, Note_on_c, 11, 83, 100
13, 108903, Note_on_c, 11, 71, 100
13, 108948, Note_on_c, 11, 71, 0
13, 108948, Note_on_c, 11, 83, 0
13, 108963, Note_on_c, 11, 71, 100
13, 108963, Note_on_c, 11, 83, 100
13, 109068, Note_on_c, 11, 83, 0
13, 109068, Note_on_c, 11, 71, 0
13, 109083, Note_on_c, 11, 71, 100
13, 109083, Note_on_c, 11, 83, 100
13, 109128, Note_on_c, 11, 83, 0
13, 109128, Note_on_c, 11, 71, 0
13, 109143, Note_on_c, 11, 71, 100
13, 109143, Note_on_c, 11, 83, 100
13, 109188, Note_on_c, 11, 83, 0
13, 109188, Note_on_c, 11, 71, 0
13, 109203, Note_on_c, 11, 83, 100
13, 109203, Note_on_c, 11, 71, 100
13, 109308, Note_on_c, 11, 71, 0
13, 109308, Note_on_c, 11, 83, 0
13, 109323, Note_on_c, 11, 71, 100
13, 109323, Note_on_c, 11, 83, 100
13, 109368, Note_on_c, 11, 83, 0
13, 109368, Note_on_c, 11, 71, 0
13, 109383, Note_on_c, 11, 83, 100
13, 109383, Note_on_c, 11, 71, 100
13, 109428, Note_on_c, 11, 71, 0
13, 109428, Note_on_c, 11, 83, 0
13, 109443, Note_on_c, 11, 71, 100
13, 109443, Note_on_c, 11, 83, 100
13, 109563, Note_on_c, 11, 83, 0
13, 109563, Note_on_c, 11, 71, 0
13, 110403, Control_c, 11, 11, 102
13, 110403, Note_on_c, 11, 76, 100
13, 110553, Note_on_c, 11, 76, 0
13, 110583, Note_on_c, 11, 71, 100
13, 110628, Note_on_c, 11, 71, 0
13, 110643, Note_on_c, 11, 71, 100
13, 110703, Note_on_c, 11, 71, 0
13, 110883, Control_c, 11, 11, 122
13, 110883, Note_on_c, 11, 80, 100
13, 110900, Control_c, 11, 11, 119
13, 110918, Control_c, 11, 11, 116
13, 110936, Control_c, 11, 11, 113
13, 110954, Control_c, 11, 11, 110
13, 110972, Control_c, 11, 11, 107
13, 110990, Control_c, 11, 11, 104
13, 111033, Note_on_c, 11, 80, 0
13, 111063, Note_on_c, 11, 76, 100
13, 111108, Note_on_c, 11, 76, 0
13, 111123, Note_on_c, 11, 76, 100
13, 111183, Note_on_c, 11, 76, 0
13, 111363, Control_c, 11, 11, 122
13, 111363, Note_on_c, 11, 83, 100
13, 111380, Control_c, 11, 11, 119
13, 111398, Control_c, 11, 11, 116
13, 111416, Control_c, 11, 11, 113
13, 111434, Control_c, 11, 11, 110
13, 111452, Control_c, 11, 11, 107
13, 111470, Control_c, 11, 11, 104
13, 111513, Note_on_c, 11, 83, 0
13, 111543, Note_on_c, 11, 80, 100
13, 111588, Note_on_c, 11, 80, 0
13, 111603, Note_on_c, 11, 80, 100
13, 111663, Note_on_c, 11, 80, 0
13, 111723, Note_on_c, 11, 71, 100
13, 111723, Note_on_c, 11, 80, 100
13, 111783, Note_on_c, 11, 80, 0
13, 111783, Note_on_c, 11, 71, 0
13, 111843, Note_on_c, 11, 71, 100
13, 111843, Note_on_c, 11, 78, 100
13, 111903, Note_on_c, 11, 78, 0
13, 111903, Note_on_c, 11, 71, 0
13, 119043, Control_c, 11, 11, 87
13, 119043, Note_on_c, 11, 60, 100
13, 119193, Note_on_c, 11, 60, 0
13, 119223, Note_on_c, 11, 59, 100
13, 119268, Note_on_c, 11, 59, 0
13, 119283, Note_on_c, 11, 59, 100
13, 119403, Note_on_c, 11, 59, 0
13, 119523, Note_on_c, 11, 60, 100
13, 119673, Note_on_c, 11, 60, 0
13, 119703, Note_on_c, 11, 59, 100
13, 119748, Note_on_c, 11, 59, 0
13, 119763, Note_on_c, 11, 59, 100
13, 119883, Note_on_c, 11, 59, 0
13, 120003, Note_on_c, 11, 60, 100
13, 120063, Note_on_c, 11, 60, 0
13, 120123, Note_on_c, 11, 59, 100
13, 120183, Note_on_c, 11, 59, 0
13, 120243, Note_on_c, 11, 60, 100
13, 120303, Note_on_c, 11, 60, 0
13, 120363, Note_on_c, 11, 59, 100
13, 120423, Note_on_c, 11, 59, 0
13, 120483, Note_on_c, 11, 60, 100
13, 120543, Note_on_c, 11, 60, 0
13, 120603, Note_on_c, 11, 59, 100
13, 120663, Note_on_c, 11, 59, 0
13, 120723, Note_on_c, 11, 60, 100
13, 120783, Note_on_c, 11, 60, 0
13, 120843, Note_on_c, 11, 59, 100
13, 120903, Note_on_c, 11, 59, 0
13, 120963, Note_on_c, 11, 64, 100
13, 121023, Note_on_c, 11, 64, 0
13, 121083, Note_on_c, 11, 63, 100
13, 121143, Note_on_c, 11, 63, 0
13, 121203, Note_on_c, 11, 64, 100
13, 121263, Note_on_c, 11, 64, 0
13, 121323, Note_on_c, 11, 63, 100
13, 121383, Note_on_c, 11, 63, 0
13, 121443, Note_on_c, 11, 64, 100
13, 121503, Note_on_c, 11, 64, 0
13, 121563, Note_on_c, 11, 63, 100
13, 121623, Note_on_c, 11, 63, 0
13, 121683, Note_on_c, 11, 64, 100
13, 121743, Note_on_c, 11, 64, 0
13, 121803, Note_on_c, 11, 63, 100
13, 121863, Note_on_c, 11, 63, 0
13, 121923, Note_on_c, 11, 72, 100
13, 121983, Note_on_c, 11, 72, 0
13, 122043, Note_on_c, 11, 71, 100
13, 122103, Note_on_c, 11, 71, 0
13, 122163, Note_on_c, 11, 76, 100
13, 122223, Note_on_c, 11, 76, 0
13, 122283, Note_on_c, 11, 75, 100
13, 122343, Note_on_c, 11, 75, 0
13, 122403, Note_on_c, 11, 72, 100
13, 122463, Note_on_c, 11, 72, 0
13, 122523, Note_on_c, 11, 71, 100
13, 122583, Note_on_c, 11, 71, 0
13, 122643, Note_on_c, 11, 73, 100
13, 122703, Note_on_c, 11, 73, 0
13, 122763, Note_on_c, 11, 71, 100
13, 122823, Note_on_c, 11, 71, 0
13, 122883, Note_on_c, 11, 73, 100
13, 122943, Note_on_c, 11, 73, 0
13, 123003, Note_on_c, 11, 71, 100
13, 123063, Note_on_c, 11, 71, 0
13, 123123, Note_on_c, 11, 73, 100
13, 123183, Note_on_c, 11, 73, 0
13, 123243, Note_on_c, 11, 71, 100
13, 123303, Note_on_c, 11, 71, 0
13, 123363, Note_on_c, 11, 73, 100
13, 123423, Note_on_c, 11, 73, 0
13, 123483, Note_on_c, 11, 71, 100
13, 123543, Note_on_c, 11, 71, 0
13, 123603, Note_on_c, 11, 73, 100
13, 123663, Note_on_c, 11, 73, 0
13, 123723, Note_on_c, 11, 71, 100
13, 123783, Note_on_c, 11, 71, 0
13, 123843, Note_on_c, 11, 59, 100
13, 123843, Note_on_c, 11, 68, 100
13, 123888, Note_on_c, 11, 68, 0
13, 123888, Note_on_c, 11, 59, 0
13, 123903, Note_on_c, 11, 59, 100
13, 123903, Note_on_c, 11, 68, 100
13, 123948, Note_on_c, 11, 68, 0
13, 123948, Note_on_c, 11, 59, 0
13, 123963, Note_on_c, 11, 59, 100
13, 123963, Note_on_c, 11, 68, 100
13, 124008, Note_on_c, 11, 68, 0
13, 124008, Note_on_c, 11, 59, 0
13, 124023, Note_on_c, 11, 68, 100
13, 124023, Note_on_c, 11, 59, 100
13, 124068, Note_on_c, 11, 59, 0
13, 124068, Note_on_c, 11, 68, 0
13, 124083, Note_on_c, 11, 68, 100
13, 124083, Note_on_c, 11, 59, 100
13, 124128, Note_on_c, 11, 59, 0
13, 124128, Note_on_c, 11, 68, 0
13, 124143, Note_on_c, 11, 68, 100
13, 124143, Note_on_c, 11, 59, 100
13, 124188, Note_on_c, 11, 59, 0
13, 124188, Note_on_c, 11, 68, 0
13, 124203, Note_on_c, 11, 59, 100
13, 124203, Note_on_c, 11, 68, 100
13, 124248, Note_on_c, 11, 68, 0
13, 124248, Note_on_c, 11, 59, 0
13, 124263, Note_on_c, 11, 68, 100
13, 124263, Note_on_c, 11, 59, 100
13, 124308, Note_on_c, 11, 59, 0
13, 124308, Note_on_c, 11, 68, 0
13, 124323, Note_on_c, 11, 68, 100
13, 124323, Note_on_c, 11, 59, 100
13, 124368, Note_on_c, 11, 59, 0
13, 124368, Note_on_c, 11, 68, 0
13, 124383, Note_on_c, 11, 68, 100
13, 124383, Note_on_c, 11, 59, 100
13, 124428, Note_on_c, 11, 59, 0
13, 124428, Note_on_c, 11, 68, 0
13, 124443, Note_on_c, 11, 59, 100
13, 124443, Note_on_c, 11, 68, 100
13, 124488, Note_on_c, 11, 68, 0
13, 124488, Note_on_c, 11, 59, 0
13, 124503, Note_on_c, 11, 59, 100
13, 124503, Note_on_c, 11, 68, 100
13, 124548, Note_on_c, 11, 68, 0
13, 124548, Note_on_c, 11, 59, 0
13, 124563, Note_on_c, 11, 59, 100
13, 124563, Note_on_c, 11, 68, 100
13, 124608, Note_on_c, 11, 68, 0
13, 124608, Note_on_c, 11, 59, 0
13, 124623, Note_on_c, 11, 59, 100
13, 124623, Note_on_c, 11, 68, 100
13, 124668, Note_on_c, 11, 68, 0
13, 124668, Note_on_c, 11, 59, 0
13, 124683, Note_on_c, 11, 68, 100
13, 124683, Note_on_c, 11, 59, 100
13, 124728, Note_on_c, 11, 59, 0
13, 124728, Note_on_c, 11, 68, 0
13, 124743, Note_on_c, 11, 68, 100
13, 124743, Note_on_c, 11, 59, 100
13, 124788, Note_on_c, 11, 59, 0
13, 124788, Note_on_c, 11, 68, 0
13, 124803, Note_on_c, 11, 59, 100
13, 124803, Note_on_c, 11, 69, 100
13, 124848, Note_on_c, 11, 69, 0
13, 124848, Note_on_c, 11, 59, 0
13, 124863, Note_on_c, 11, 59, 100
13, 124863, Note_on_c, 11, 69, 100
13, 124908, Note_on_c, 11, 69, 0
13, 124908, Note_on_c, 11, 59, 0
13, 124923, Note_on_c, 11, 59, 100
13, 124923, Note_on_c, 11, 69, 100
13, 124968, Note_on_c, 11, 69, 0
13, 124968, Note_on_c, 11, 59, 0
13, 124983, Note_on_c, 11, 69, 100
13, 124983, Note_on_c, 11, 59, 100
13, 125028, Note_on_c, 11, 59, 0
13, 125028, Note_on_c, 11, 69, 0
13, 125043, Note_on_c, 11, 59, 100
13, 125043, Note_on_c, 11, 69, 100
13, 125088, Note_on_c, 11, 69, 0
13, 125088, Note_on_c, 11, 59, 0
13, 125103, Note_on_c, 11, 59, 100
13, 125103, Note_on_c, 11, 69, 100
13, 125148, Note_on_c, 11, 69, 0
13, 125148, Note_on_c, 11, 59, 0
13, 125163, Note_on_c, 11, 69, 100
13, 125163, Note_on_c, 11, 59, 100
13, 125208, Note_on_c, 11, 59, 0
13, 125208, Note_on_c, 11, 69, 0
13, 125223, Note_on_c, 11, 59, 100
13, 125223, Note_on_c, 11, 69, 100
13, 125268, Note_on_c, 11, 69, 0
13, 125268, Note_on_c, 11, 59, 0
13, 125283, Note_on_c, 11, 59, 100
13, 125283, Note_on_c, 11, 69, 100
13, 125328, Note_on_c, 11, 69, 0
13, 125328, Note_on_c, 11, 59, 0
13, 125343, Note_on_c, 11, 59, 100
13, 125343, Note_on_c, 11, 69, 100
13, 125388, Note_on_c, 11, 69, 0
13, 125388, Note_on_c, 11, 59, 0
13, 125403, Note_on_c, 11, 69, 100
13, 125403, Note_on_c, 11, 59, 100
13, 125448, Note_on_c, 11, 59, 0
13, 125448, Note_on_c, 11, 69, 0
13, 125463, Note_on_c, 11, 59, 100
13, 125463, Note_on_c, 11, 69, 100
13, 125508, Note_on_c, 11, 69, 0
13, 125508, Note_on_c, 11, 59, 0
13, 125523, Note_on_c, 11, 59, 100
13, 125523, Note_on_c, 11, 69, 100
13, 125568, Note_on_c, 11, 69, 0
13, 125568, Note_on_c, 11, 59, 0
13, 125583, Note_on_c, 11, 59, 100
13, 125583, Note_on_c, 11, 69, 100
13, 125628, Note_on_c, 11, 69, 0
13, 125628, Note_on_c, 11, 59, 0
13, 125643, Note_on_c, 11, 59, 100
13, 125643, Note_on_c, 11, 69, 100
13, 125688, Note_on_c, 11, 69, 0
13, 125688, Note_on_c, 11, 59, 0
13, 125703, Note_on_c, 11, 69, 100
13, 125703, Note_on_c, 11, 59, 100
13, 125733, Control_c, 11, 11, 87
13, 125735, Control_c, 11, 11, 84
13, 125737, Control_c, 11, 11, 81
13, 125740, Control_c, 11, 11, 77
13, 125743, Control_c, 11, 11, 73
13, 125746, Control_c, 11, 11, 69
13, 125748, Note_on_c, 11, 59, 0
13, 125748, Note_on_c, 11, 69, 0
13, 125749, Control_c, 11, 11, 65
13, 125752, Control_c, 11, 11, 61
13, 125755, Control_c, 11, 11, 57
13, 125758, Control_c, 11, 11, 53
13, 125761, Control_c, 11, 11, 49
13, 125763, Note_on_c, 11, 68, 100
13, 125763, Note_on_c, 11, 59, 100
13, 125808, Note_on_c, 11, 59, 0
13, 125808, Note_on_c, 11, 68, 0
13, 125823, Note_on_c, 11, 68, 100
13, 125823, Note_on_c, 11, 59, 100
13, 125868, Note_on_c, 11, 59, 0
13, 125868, Note_on_c, 11, 68, 0
13, 125883, Note_on_c, 11, 59, 100
13, 125883, Note_on_c, 11, 68, 100
13, 125928, Note_on_c, 11, 68, 0
13, 125928, Note_on_c, 11, 59, 0
13, 125943, Note_on_c, 11, 68, 100
13, 125943, Note_on_c, 11, 59, 100
13, 125988, Note_on_c, 11, 59, 0
13, 125988, Note_on_c, 11, 68, 0
13, 126003, Note_on_c, 11, 68, 100
13, 126003, Note_on_c, 11, 59, 100
13, 126048, Note_on_c, 11, 59, 0
13, 126048, Note_on_c, 11, 68, 0
13, 126063, Note_on_c, 11, 68, 100
13, 126063, Note_on_c, 11, 59, 100
13, 126108, Note_on_c, 11, 59, 0
13, 126108, Note_on_c, 11, 68, 0
13, 126123, Note_on_c, 11, 59, 100
13, 126123, Note_on_c, 11, 68, 100
13, 126168, Note_on_c, 11, 68, 0
13, 126168, Note_on_c, 11, 59, 0
13, 126183, Note_on_c, 11, 59, 100
13, 126183, Note_on_c, 11, 68, 100
13, 126228, Note_on_c, 11, 68, 0
13, 126228, Note_on_c, 11, 59, 0
13, 126243, Note_on_c, 11, 59, 100
13, 126243, Note_on_c, 11, 68, 100
13, 126288, Note_on_c, 11, 68, 0
13, 126288, Note_on_c, 11, 59, 0
13, 126303, Note_on_c, 11, 59, 100
13, 126303, Note_on_c, 11, 68, 100
13, 126348, Note_on_c, 11, 68, 0
13, 126348, Note_on_c, 11, 59, 0
13, 126363, Note_on_c, 11, 68, 100
13, 126363, Note_on_c, 11, 59, 100
13, 126408, Note_on_c, 11, 59, 0
13, 126408, Note_on_c, 11, 68, 0
13, 126423, Note_on_c, 11, 68, 100
13, 126423, Note_on_c, 11, 59, 100
13, 126468, Note_on_c, 11, 59, 0
13, 126468, Note_on_c, 11, 68, 0
13, 126483, Note_on_c, 11, 68, 100
13, 126483, Note_on_c, 11, 59, 100
13, 126528, Note_on_c, 11, 59, 0
13, 126528, Note_on_c, 11, 68, 0
13, 126543, Note_on_c, 11, 59, 100
13, 126543, Note_on_c, 11, 68, 100
13, 126588, Note_on_c, 11, 68, 0
13, 126588, Note_on_c, 11, 59, 0
13, 126603, Note_on_c, 11, 68, 100
13, 126603, Note_on_c, 11, 59, 100
13, 126648, Note_on_c, 11, 59, 0
13, 126648, Note_on_c, 11, 68, 0
13, 126663, Note_on_c, 11, 68, 100
13, 126663, Note_on_c, 11, 59, 100
13, 126708, Note_on_c, 11, 59, 0
13, 126708, Note_on_c, 11, 68, 0
13, 126723, Note_on_c, 11, 59, 100
13, 126723, Note_on_c, 11, 69, 100
13, 126768, Note_on_c, 11, 69, 0
13, 126768, Note_on_c, 11, 59, 0
13, 126783, Note_on_c, 11, 59, 100
13, 126783, Note_on_c, 11, 69, 100
13, 126828, Note_on_c, 11, 69, 0
13, 126828, Note_on_c, 11, 59, 0
13, 126843, Note_on_c, 11, 69, 100
13, 126843, Note_on_c, 11, 59, 100
13, 126888, Note_on_c, 11, 59, 0
13, 126888, Note_on_c, 11, 69, 0
13, 126903, Note_on_c, 11, 59, 100
13, 126903, Note_on_c, 11, 69, 100
13, 126948, Note_on_c, 11, 69, 0
13, 126948, Note_on_c, 11, 59, 0
13, 126963, Note_on_c, 11, 69, 100
13, 126963, Note_on_c, 11, 59, 100
13, 127008, Note_on_c, 11, 59, 0
13, 127008, Note_on_c, 11, 69, 0
13, 127023, Note_on_c, 11, 69, 100
13, 127023, Note_on_c, 11, 59, 100
13, 127068, Note_on_c, 11, 59, 0
13, 127068, Note_on_c, 11, 69, 0
13, 127083, Note_on_c, 11, 59, 100
13, 127083, Note_on_c, 11, 69, 100
13, 127128, Note_on_c, 11, 69, 0
13, 127128, Note_on_c, 11, 59, 0
13, 127143, Note_on_c, 11, 69, 100
13, 127143, Note_on_c, 11, 59, 100
13, 127188, Note_on_c, 11, 59, 0
13, 127188, Note_on_c, 11, 69, 0
13, 127203, Note_on_c, 11, 59, 100
13, 127203, Note_on_c, 11, 69, 100
13, 127248, Note_on_c, 11, 69, 0
13, 127248, Note_on_c, 11, 59, 0
13, 127263, Note_on_c, 11, 59, 100
13, 127263, Note_on_c, 11, 69, 100
13, 127308, Note_on_c, 11, 69, 0
13, 127308, Note_on_c, 11, 59, 0
13, 127323, Note_on_c, 11, 69, 100
13, 127323, Note_on_c, 11, 59, 100
13, 127368, Note_on_c, 11, 59, 0
13, 127368, Note_on_c, 11, 69, 0
13, 127383, Note_on_c, 11, 59, 100
13, 127383, Note_on_c, 11, 69, 100
13, 127428, Note_on_c, 11, 69, 0
13, 127428, Note_on_c, 11, 59, 0
13, 127443, Note_on_c, 11, 59, 100
13, 127443, Note_on_c, 11, 69, 100
13, 127488, Note_on_c, 11, 69, 0
13, 127488, Note_on_c, 11, 59, 0
13, 127503, Note_on_c, 11, 69, 100
13, 127503, Note_on_c, 11, 59, 100
13, 127548, Note_on_c, 11, 59, 0
13, 127548, Note_on_c, 11, 69, 0
13, 127563, Note_on_c, 11, 59, 100
13, 127563, Note_on_c, 11, 69, 100
13, 127608, Note_on_c, 11, 69, 0
13, 127608, Note_on_c, 11, 59, 0
13, 127623, Note_on_c, 11, 69, 100
13, 127623, Note_on_c, 11, 59, 100
13, 127668, Note_on_c, 11, 59, 0
13, 127668, Note_on_c, 11, 69, 0
13, 127683, Control_c, 11, 11, 47
13, 127683, Note_on_c, 11, 59, 100
13, 127683, Note_on_c, 11, 68, 100
13, 127728, Note_on_c, 11, 68, 0
13, 127728, Note_on_c, 11, 59, 0
13, 127743, Note_on_c, 11, 68, 100
13, 127743, Note_on_c, 11, 59, 100
13, 127779, Control_c, 11, 11, 48
13, 127788, Note_on_c, 11, 59, 0
13, 127788, Note_on_c, 11, 68, 0
13, 127803, Note_on_c, 11, 68, 100
13, 127803, Note_on_c, 11, 59, 100
13, 127848, Note_on_c, 11, 59, 0
13, 127848, Note_on_c, 11, 68, 0
13, 127863, Note_on_c, 11, 68, 100
13, 127863, Note_on_c, 11, 59, 100
13, 127875, Control_c, 11, 11, 49
13, 127908, Note_on_c, 11, 59, 0
13, 127908, Note_on_c, 11, 68, 0
13, 127923, Note_on_c, 11, 59, 100
13, 127923, Note_on_c, 11, 68, 100
13, 127968, Note_on_c, 11, 68, 0
13, 127968, Note_on_c, 11, 59, 0
13, 127971, Control_c, 11, 11, 50
13, 127983, Note_on_c, 11, 68, 100
13, 127983, Note_on_c, 11, 59, 100
13, 128028, Note_on_c, 11, 59, 0
13, 128028, Note_on_c, 11, 68, 0
13, 128043, Note_on_c, 11, 68, 100
13, 128043, Note_on_c, 11, 59, 100
13, 128067, Control_c, 11, 11, 51
13, 128088, Note_on_c, 11, 59, 0
13, 128088, Note_on_c, 11, 68, 0
13, 128103, Note_on_c, 11, 68, 100
13, 128103, Note_on_c, 11, 59, 100
13, 128148, Note_on_c, 11, 59, 0
13, 128148, Note_on_c, 11, 68, 0
13, 128163, Control_c, 11, 11, 52
13, 128163, Note_on_c, 11, 68, 100
13, 128163, Note_on_c, 11, 59, 100
13, 128208, Note_on_c, 11, 59, 0
13, 128208, Note_on_c, 11, 68, 0
13, 128223, Note_on_c, 11, 68, 100
13, 128223, Note_on_c, 11, 59, 100
13, 128259, Control_c, 11, 11, 53
13, 128268, Note_on_c, 11, 59, 0
13, 128268, Note_on_c, 11, 68, 0
13, 128283, Note_on_c, 11, 68, 100
13, 128283, Note_on_c, 11, 59, 100
13, 128328, Note_on_c, 11, 59, 0
13, 128328, Note_on_c, 11, 68, 0
13, 128343, Note_on_c, 11, 68, 100
13, 128343, Note_on_c, 11, 59, 100
13, 128355, Control_c, 11, 11, 54
13, 128388, Note_on_c, 11, 59, 0
13, 128388, Note_on_c, 11, 68, 0
13, 128403, Note_on_c, 11, 59, 100
13, 128403, Note_on_c, 11, 68, 100
13, 128448, Note_on_c, 11, 68, 0
13, 128448, Note_on_c, 11, 59, 0
13, 128451, Control_c, 11, 11, 55
13, 128463, Note_on_c, 11, 59, 100
13, 128463, Note_on_c, 11, 68, 100
13, 128508, Note_on_c, 11, 68, 0
13, 128508, Note_on_c, 11, 59, 0
13, 128523, Note_on_c, 11, 68, 100
13, 128523, Note_on_c, 11, 59, 100
13, 128547, Control_c, 11, 11, 56
13, 128568, Note_on_c, 11, 59, 0
13, 128568, Note_on_c, 11, 68, 0
13, 128583, Note_on_c, 11, 59, 100
13, 128583, Note_on_c, 11, 68, 100
13, 128628, Note_on_c, 11, 68, 0
13, 128628, Note_on_c, 11, 59, 0
13, 128643, Control_c, 11, 11, 57
13, 128643, Note_on_c, 11, 69, 100
13, 128643, Note_on_c, 11, 60, 100
13, 128688, Note_on_c, 11, 60, 0
13, 128688, Note_on_c, 11, 69, 0
13, 128703, Note_on_c, 11, 69, 100
13, 128703, Note_on_c, 11, 60, 100
13, 128739, Control_c, 11, 11, 58
13, 128748, Note_on_c, 11, 60, 0
13, 128748, Note_on_c, 11, 69, 0
13, 128763, Note_on_c, 11, 69, 100
13, 128763, Note_on_c, 11, 60, 100
13, 128808, Note_on_c, 11, 60, 0
13, 128808, Note_on_c, 11, 69, 0
13, 128823, Note_on_c, 11, 69, 100
13, 128823, Note_on_c, 11, 60, 100
13, 128835, Control_c, 11, 11, 59
13, 128868, Note_on_c, 11, 60, 0
13, 128868, Note_on_c, 11, 69, 0
13, 128883, Note_on_c, 11, 60, 100
13, 128883, Note_on_c, 11, 69, 100
13, 128928, Note_on_c, 11, 69, 0
13, 128928, Note_on_c, 11, 60, 0
13, 128931, Control_c, 11, 11, 60
13, 128943, Note_on_c, 11, 69, 100
13, 128943, Note_on_c, 11, 60, 100
13, 128988, Note_on_c, 11, 60, 0
13, 128988, Note_on_c, 11, 69, 0
13, 129003, Note_on_c, 11, 60, 100
13, 129003, Note_on_c, 11, 69, 100
13, 129027, Control_c, 11, 11, 61
13, 129048, Note_on_c, 11, 69, 0
13, 129048, Note_on_c, 11, 60, 0
13, 129063, Note_on_c, 11, 69, 100
13, 129063, Note_on_c, 11, 60, 100
13, 129108, Note_on_c, 11, 60, 0
13, 129108, Note_on_c, 11, 69, 0
13, 129123, Control_c, 11, 11, 62
13, 129123, Note_on_c, 11, 69, 100
13, 129123, Note_on_c, 11, 60, 100
13, 129168, Note_on_c, 11, 60, 0
13, 129168, Note_on_c, 11, 69, 0
13, 129183, Note_on_c, 11, 60, 100
13, 129183, Note_on_c, 11, 69, 100
13, 129219, Control_c, 11, 11, 63
13, 129228, Note_on_c, 11, 69, 0
13, 129228, Note_on_c, 11, 60, 0
13, 129243, Note_on_c, 11, 69, 100
13, 129243, Note_on_c, 11, 60, 100
13, 129288, Note_on_c, 11, 60, 0
13, 129288, Note_on_c, 11, 69, 0
13, 129303, Note_on_c, 11, 69, 100
13, 129303, Note_on_c, 11, 60, 100
13, 129315, Control_c, 11, 11, 64
13, 129348, Note_on_c, 11, 60, 0
13, 129348, Note_on_c, 11, 69, 0
13, 129363, Note_on_c, 11, 60, 100
13, 129363, Note_on_c, 11, 69, 100
13, 129408, Note_on_c, 11, 69, 0
13, 129408, Note_on_c, 11, 60, 0
13, 129411, Control_c, 11, 11, 65
13, 129423, Note_on_c, 11, 60, 100
13, 129423, Note_on_c, 11, 69, 100
13, 129468, Note_on_c, 11, 69, 0
13, 129468, Note_on_c, 11, 60, 0
13, 129483, Note_on_c, 11, 69, 100
13, 129483, Note_on_c, 11, 60, 100
13, 129507, Control_c, 11, 11, 66
13, 129528, Note_on_c, 11, 60, 0
13, 129528, Note_on_c, 11, 69, 0
13, 129543, Note_on_c, 11, 69, 100
13, 129543, Note_on_c, 11, 60, 100
13, 129588, Note_on_c, 11, 60, 0
13, 129588, Note_on_c, 11, 69, 0
13, 129603, Control_c, 11, 11, 67
13, 129603, Note_on_c, 11, 72, 100
13, 129603, Note_on_c, 11, 69, 100
13, 129648, Note_on_c, 11, 69, 0
13, 129648, Note_on_c, 11, 72, 0
13, 129663, Note_on_c, 11, 69, 100
13, 129663, Note_on_c, 11, 72, 100
13, 129699, Control_c, 11, 11, 68
13, 129708, Note_on_c, 11, 72, 0
13, 129708, Note_on_c, 11, 69, 0
13, 129723, Note_on_c, 11, 69, 100
13, 129723, Note_on_c, 11, 72, 100
13, 129768, Note_on_c, 11, 72, 0
13, 129768, Note_on_c, 11, 69, 0
13, 129783, Note_on_c, 11, 69, 100
13, 129783, Note_on_c, 11, 72, 100
13, 129795, Control_c, 11, 11, 69
13, 129828, Note_on_c, 11, 72, 0
13, 129828, Note_on_c, 11, 69, 0
13, 129843, Note_on_c, 11, 69, 100
13, 129843, Note_on_c, 11, 72, 100
13, 129888, Note_on_c, 11, 72, 0
13, 129888, Note_on_c, 11, 69, 0
13, 129891, Control_c, 11, 11, 70
13, 129903, Note_on_c, 11, 69, 100
13, 129903, Note_on_c, 11, 72, 100
13, 129948, Note_on_c, 11, 72, 0
13, 129948, Note_on_c, 11, 69, 0
13, 129963, Note_on_c, 11, 69, 100
13, 129963, Note_on_c, 11, 72, 100
13, 129987, Control_c, 11, 11, 71
13, 130008, Note_on_c, 11, 72, 0
13, 130008, Note_on_c, 11, 69, 0
13, 130023, Note_on_c, 11, 69, 100
13, 130023, Note_on_c, 11, 72, 100
13, 130068, Note_on_c, 11, 72, 0
13, 130068, Note_on_c, 11, 69, 0
13, 130083, Control_c, 11, 11, 72
13, 130083, Note_on_c, 11, 69, 100
13, 130083, Note_on_c, 11, 72, 100
13, 130128, Note_on_c, 11, 72, 0
13, 130128, Note_on_c, 11, 69, 0
13, 130143, Note_on_c, 11, 69, 100
13, 130143, Note_on_c, 11, 72, 100
13, 130179, Control_c, 11, 11, 73
13, 130188, Note_on_c, 11, 72, 0
13, 130188, Note_on_c, 11, 69, 0
13, 130203, Note_on_c, 11, 69, 100
13, 130203, Note_on_c, 11, 72, 100
13, 130248, Note_on_c, 11, 72, 0
13, 130248, Note_on_c, 11, 69, 0
13, 130263, Note_on_c, 11, 69, 100
13, 130263, Note_on_c, 11, 72, 100
13, 130275, Control_c, 11, 11, 74
13, 130308, Note_on_c, 11, 72, 0
13, 130308, Note_on_c, 11, 69, 0
13, 130323, Note_on_c, 11, 72, 100
13, 130323, Note_on_c, 11, 69, 100
13, 130368, Note_on_c, 11, 69, 0
13, 130368, Note_on_c, 11, 72, 0
13, 130371, Control_c, 11, 11, 75
13, 130383, Note_on_c, 11, 69, 100
13, 130383, Note_on_c, 11, 72, 100
13, 130428, Note_on_c, 11, 72, 0
13, 130428, Note_on_c, 11, 69, 0
13, 130443, Note_on_c, 11, 72, 100
13, 130443, Note_on_c, 11, 69, 100
13, 130467, Control_c, 11, 11, 76
13, 130488, Note_on_c, 11, 69, 0
13, 130488, Note_on_c, 11, 72, 0
13, 130503, Note_on_c, 11, 72, 100
13, 130503, Note_on_c, 11, 69, 100
13, 130548, Note_on_c, 11, 69, 0
13, 130548, Note_on_c, 11, 72, 0
13, 130563, Control_c, 11, 11, 77
13, 130563, Note_on_c, 11, 72, 100
13, 130563, Note_on_c, 11, 69, 100
13, 130608, Note_on_c, 11, 69, 0
13, 130608, Note_on_c, 11, 72, 0
13, 130623, Note_on_c, 11, 69, 100
13, 130623, Note_on_c, 11, 72, 100
13, 130659, Control_c, 11, 11, 78
13, 130668, Note_on_c, 11, 72, 0
13, 130668, Note_on_c, 11, 69, 0
13, 130683, Note_on_c, 11, 69, 100
13, 130683, Note_on_c, 11, 72, 100
13, 130728, Note_on_c, 11, 72, 0
13, 130728, Note_on_c, 11, 69, 0
13, 130743, Note_on_c, 11, 69, 100
13, 130743, Note_on_c, 11, 72, 100
13, 130755, Control_c, 11, 11, 79
13, 130788, Note_on_c, 11, 72, 0
13, 130788, Note_on_c, 11, 69, 0
13, 130803, Note_on_c, 11, 69, 100
13, 130803, Note_on_c, 11, 72, 100
13, 130848, Note_on_c, 11, 72, 0
13, 130848, Note_on_c, 11, 69, 0
13, 130851, Control_c, 11, 11, 80
13, 130863, Note_on_c, 11, 72, 100
13, 130863, Note_on_c, 11, 69, 100
13, 130908, Note_on_c, 11, 69, 0
13, 130908, Note_on_c, 11, 72, 0
13, 130923, Note_on_c, 11, 69, 100
13, 130923, Note_on_c, 11, 72, 100
13, 130947, Control_c, 11, 11, 81
13, 130968, Note_on_c, 11, 72, 0
13, 130968, Note_on_c, 11, 69, 0
13, 130983, Note_on_c, 11, 69, 100
13, 130983, Note_on_c, 11, 72, 100
13, 131028, Note_on_c, 11, 72, 0
13, 131028, Note_on_c, 11, 69, 0
13, 131043, Control_c, 11, 11, 82
13, 131043, Note_on_c, 11, 72, 100
13, 131043, Note_on_c, 11, 69, 100
13, 131088, Note_on_c, 11, 69, 0
13, 131088, Note_on_c, 11, 72, 0
13, 131103, Note_on_c, 11, 69, 100
13, 131103, Note_on_c, 11, 72, 100
13, 131139, Control_c, 11, 11, 83
13, 131148, Note_on_c, 11, 72, 0
13, 131148, Note_on_c, 11, 69, 0
13, 131163, Note_on_c, 11, 69, 100
13, 131163, Note_on_c, 11, 72, 100
13, 131208, Note_on_c, 11, 72, 0
13, 131208, Note_on_c, 11, 69, 0
13, 131223, Note_on_c, 11, 72, 100
13, 131223, Note_on_c, 11, 69, 100
13, 131235, Control_c, 11, 11, 84
13, 131268, Note_on_c, 11, 69, 0
13, 131268, Note_on_c, 11, 72, 0
13, 131283, Note_on_c, 11, 72, 100
13, 131283, Note_on_c, 11, 69, 100
13, 131328, Note_on_c, 11, 69, 0
13, 131328, Note_on_c, 11, 72, 0
13, 131331, Control_c, 11, 11, 85
13, 131343, Note_on_c, 11, 72, 100
13, 131343, Note_on_c, 11, 69, 100
13, 131388, Note_on_c, 11, 69, 0
13, 131388, Note_on_c, 11, 72, 0
13, 131403, Note_on_c, 11, 69, 100
13, 131403, Note_on_c, 11, 72, 100
13, 131427, Control_c, 11, 11, 86
13, 131448, Note_on_c, 11, 72, 0
13, 131448, Note_on_c, 11, 69, 0
13, 131463, Note_on_c, 11, 72, 100
13, 131463, Note_on_c, 11, 69, 100
13, 131508, Note_on_c, 11, 69, 0
13, 131508, Note_on_c, 11, 72, 0
13, 131523, Control_c, 11, 11, 87
13, 131523, Note_on_c, 11, 66, 100
13, 131523, Note_on_c, 11, 75, 100
13, 131568, Note_on_c, 11, 75, 0
13, 131568, Note_on_c, 11, 66, 0
13, 131583, Note_on_c, 11, 66, 100
13, 131583, Note_on_c, 11, 75, 100
13, 131628, Note_on_c, 11, 75, 0
13, 131628, Note_on_c, 11, 66, 0
13, 131643, Note_on_c, 11, 66, 100
13, 131643, Note_on_c, 11, 75, 100
13, 131688, Note_on_c, 11, 75, 0
13, 131688, Note_on_c, 11, 66, 0
13, 131703, Note_on_c, 11, 75, 100
13, 131703, Note_on_c, 11, 66, 100
13, 131748, Note_on_c, 11, 66, 0
13, 131748, Note_on_c, 11, 75, 0
13, 131763, Note_on_c, 11, 75, 100
13, 131763, Note_on_c, 11, 66, 100
13, 131808, Note_on_c, 11, 66, 0
13, 131808, Note_on_c, 11, 75, 0
13, 131823, Note_on_c, 11, 75, 100
13, 131823, Note_on_c, 11, 66, 100
13, 131868, Note_on_c, 11, 66, 0
13, 131868, Note_on_c, 11, 75, 0
13, 131883, Note_on_c, 11, 66, 100
13, 131883, Note_on_c, 11, 75, 100
13, 131928, Note_on_c, 11, 75, 0
13, 131928, Note_on_c, 11, 66, 0
13, 131943, Note_on_c, 11, 66, 100
13, 131943, Note_on_c, 11, 75, 100
13, 131988, Note_on_c, 11, 75, 0
13, 131988, Note_on_c, 11, 66, 0
13, 132003, Note_on_c, 11, 66, 100
13, 132003, Note_on_c, 11, 75, 100
13, 132048, Note_on_c, 11, 75, 0
13, 132048, Note_on_c, 11, 66, 0
13, 132063, Note_on_c, 11, 66, 100
13, 132063, Note_on_c, 11, 75, 100
13, 132108, Note_on_c, 11, 75, 0
13, 132108, Note_on_c, 11, 66, 0
13, 132123, Note_on_c, 11, 66, 100
13, 132123, Note_on_c, 11, 75, 100
13, 132168, Note_on_c, 11, 75, 0
13, 132168, Note_on_c, 11, 66, 0
13, 132183, Note_on_c, 11, 75, 100
13, 132183, Note_on_c, 11, 66, 100
13, 132228, Note_on_c, 11, 66, 0
13, 132228, Note_on_c, 11, 75, 0
13, 132243, Note_on_c, 11, 75, 100
13, 132243, Note_on_c, 11, 66, 100
13, 132288, Note_on_c, 11, 66, 0
13, 132288, Note_on_c, 11, 75, 0
13, 132303, Note_on_c, 11, 75, 100
13, 132303, Note_on_c, 11, 66, 100
13, 132348, Note_on_c, 11, 66, 0
13, 132348, Note_on_c, 11, 75, 0
13, 132363, Note_on_c, 11, 75, 100
13, 132363, Note_on_c, 11, 66, 100
13, 132408, Note_on_c, 11, 66, 0
13, 132408, Note_on_c, 11, 75, 0
13, 132423, Note_on_c, 11, 66, 100
13, 132423, Note_on_c, 11, 75, 100
13, 132468, Note_on_c, 11, 75, 0
13, 132468, Note_on_c, 11, 66, 0
13, 132483, Control_c, 11, 11, 87
13, 132483, Note_on_c, 11, 66, 100
13, 132483, Note_on_c, 11, 75, 100
13, 132528, Note_on_c, 11, 75, 0
13, 132528, Note_on_c, 11, 66, 0
13, 132531, Control_c, 11, 11, 88
13, 132543, Note_on_c, 11, 75, 100
13, 132543, Note_on_c, 11, 66, 100
13, 132579, Control_c, 11, 11, 89
13, 132588, Note_on_c, 11, 66, 0
13, 132588, Note_on_c, 11, 75, 0
13, 132603, Note_on_c, 11, 75, 100
13, 132603, Note_on_c, 11, 66, 100
13, 132627, Control_c, 11, 11, 90
13, 132648, Note_on_c, 11, 66, 0
13, 132648, Note_on_c, 11, 75, 0
13, 132663, Note_on_c, 11, 75, 100
13, 132663, Note_on_c, 11, 66, 100
13, 132675, Control_c, 11, 11, 91
13, 132708, Note_on_c, 11, 66, 0
13, 132708, Note_on_c, 11, 75, 0
13, 132723, Control_c, 11, 11, 92
13, 132723, Note_on_c, 11, 66, 100
13, 132723, Note_on_c, 11, 75, 100
13, 132768, Note_on_c, 11, 75, 0
13, 132768, Note_on_c, 11, 66, 0
13, 132771, Control_c, 11, 11, 93
13, 132783, Note_on_c, 11, 75, 100
13, 132783, Note_on_c, 11, 66, 100
13, 132819, Control_c, 11, 11, 94
13, 132828, Note_on_c, 11, 66, 0
13, 132828, Note_on_c, 11, 75, 0
13, 132843, Note_on_c, 11, 66, 100
13, 132843, Note_on_c, 11, 75, 100
13, 132867, Control_c, 11, 11, 95
13, 132888, Note_on_c, 11, 75, 0
13, 132888, Note_on_c, 11, 66, 0
13, 132903, Note_on_c, 11, 66, 100
13, 132903, Note_on_c, 11, 75, 100
13, 132915, Control_c, 11, 11, 96
13, 132948, Note_on_c, 11, 75, 0
13, 132948, Note_on_c, 11, 66, 0
13, 132963, Control_c, 11, 11, 97
13, 132963, Note_on_c, 11, 75, 100
13, 132963, Note_on_c, 11, 66, 100
13, 133008, Note_on_c, 11, 66, 0
13, 133008, Note_on_c, 11, 75, 0
13, 133011, Control_c, 11, 11, 98
13, 133023, Note_on_c, 11, 75, 100
13, 133023, Note_on_c, 11, 66, 100
13, 133059, Control_c, 11, 11, 99
13, 133068, Note_on_c, 11, 66, 0
13, 133068, Note_on_c, 11, 75, 0
13, 133083, Note_on_c, 11, 75, 100
13, 133083, Note_on_c, 11, 66, 100
13, 133107, Control_c, 11, 11, 100
13, 133128, Note_on_c, 11, 66, 0
13, 133128, Note_on_c, 11, 75, 0
13, 133143, Note_on_c, 11, 66, 100
13, 133143, Note_on_c, 11, 75, 100
13, 133155, Control_c, 11, 11, 101
13, 133188, Note_on_c, 11, 75, 0
13, 133188, Note_on_c, 11, 66, 0
13, 133203, Control_c, 11, 11, 102
13, 133203, Note_on_c, 11, 75, 100
13, 133203, Note_on_c, 11, 66, 100
13, 133248, Note_on_c, 11, 66, 0
13, 133248, Note_on_c, 11, 75, 0
13, 133251, Control_c, 11, 11, 103
13, 133263, Note_on_c, 11, 75, 100
13, 133263, Note_on_c, 11, 66, 100
13, 133299, Control_c, 11, 11, 104
13, 133308, Note_on_c, 11, 66, 0
13, 133308, Note_on_c, 11, 75, 0
13, 133323, Note_on_c, 11, 75, 100
13, 133323, Note_on_c, 11, 66, 100
13, 133347, Control_c, 11, 11, 105
13, 133368, Note_on_c, 11, 66, 0
13, 133368, Note_on_c, 11, 75, 0
13, 133383, Note_on_c, 11, 66, 100
13, 133383, Note_on_c, 11, 75, 100
13, 133395, Control_c, 11, 11, 106
13, 133428, Note_on_c, 11, 75, 0
13, 133428, Note_on_c, 11, 66, 0
13, 133443, Control_c, 11, 11, 107
13, 133443, Note_on_c, 11, 66, 100
13, 133443, Note_on_c, 11, 75, 100
13, 133488, Note_on_c, 11, 75, 0
13, 133488, Note_on_c, 11, 66, 0
13, 133503, Note_on_c, 11, 75, 100
13, 133503, Note_on_c, 11, 66, 100
13, 133548, Note_on_c, 11, 66, 0
13, 133548, Note_on_c, 11, 75, 0
13, 133563, Note_on_c, 11, 75, 100
13, 133563, Note_on_c, 11, 66, 100
13, 133608, Note_on_c, 11, 66, 0
13, 133608, Note_on_c, 11, 75, 0
13, 133623, Note_on_c, 11, 75, 100
13, 133623, Note_on_c, 11, 66, 100
13, 133668, Note_on_c, 11, 66, 0
13, 133668, Note_on_c, 11, 75, 0
13, 133683, Note_on_c, 11, 75, 100
13, 133683, Note_on_c, 11, 66, 100
13, 133728, Note_on_c, 11, 66, 0
13, 133728, Note_on_c, 11, 75, 0
13, 133743, Note_on_c, 11, 66, 100
13, 133743, Note_on_c, 11, 75, 100
13, 133788, Note_on_c, 11, 75, 0
13, 133788, Note_on_c, 11, 66, 0
13, 133803, Note_on_c, 11, 75, 100
13, 133803, Note_on_c, 11, 66, 100
13, 133848, Note_on_c, 11, 66, 0
13, 133848, Note_on_c, 11, 75, 0
13, 133863, Note_on_c, 11, 66, 100
13, 133863, Note_on_c, 11, 75, 100
13, 133908, Note_on_c, 11, 75, 0
13, 133908, Note_on_c, 11, 66, 0
13, 133923, Note_on_c, 11, 75, 100
13, 133923, Note_on_c, 11, 66, 100
13, 133968, Note_on_c, 11, 66, 0
13, 133968, Note_on_c, 11, 75, 0
13, 133983, Note_on_c, 11, 66, 100
13, 133983, Note_on_c, 11, 75, 100
13, 134028, Note_on_c, 11, 75, 0
13, 134028, Note_on_c, 11, 66, 0
13, 134043, Note_on_c, 11, 66, 100
13, 134043, Note_on_c, 11, 75, 100
13, 134088, Note_on_c, 11, 75, 0
13, 134088, Note_on_c, 11, 66, 0
13, 134103, Note_on_c, 11, 66, 100
13, 134103, Note_on_c, 11, 75, 100
13, 134148, Note_on_c, 11, 75, 0
13, 134148, Note_on_c, 11, 66, 0
13, 134163, Note_on_c, 11, 75, 100
13, 134163, Note_on_c, 11, 66, 100
13, 134208, Note_on_c, 11, 66, 0
13, 134208, Note_on_c, 11, 75, 0
13, 134223, Note_on_c, 11, 66, 100
13, 134223, Note_on_c, 11, 75, 100
13, 134268, Note_on_c, 11, 75, 0
13, 134268, Note_on_c, 11, 66, 0
13, 134283, Note_on_c, 11, 75, 100
13, 134283, Note_on_c, 11, 66, 100
13, 134328, Note_on_c, 11, 66, 0
13, 134328, Note_on_c, 11, 75, 0
13, 134343, Note_on_c, 11, 66, 100
13, 134343, Note_on_c, 11, 75, 100
13, 134388, Note_on_c, 11, 75, 0
13, 134388, Note_on_c, 11, 66, 0
13, 134403, Note_on_c, 11, 75, 100
13, 134403, Note_on_c, 11, 66, 100
13, 134448, Note_on_c, 11, 66, 0
13, 134448, Note_on_c, 11, 75, 0
13, 134463, Note_on_c, 11, 66, 100
13, 134463, Note_on_c, 11, 75, 100
13, 134508, Note_on_c, 11, 75, 0
13, 134508, Note_on_c, 11, 66, 0
13, 134523, Note_on_c, 11, 66, 100
13, 134523, Note_on_c, 11, 75, 100
13, 134568, Note_on_c, 11, 75, 0
13, 134568, Note_on_c, 11, 66, 0
13, 134583, Note_on_c, 11, 66, 100
13, 134583, Note_on_c, 11, 75, 100
13, 134628, Note_on_c, 11, 75, 0
13, 134628, Note_on_c, 11, 66, 0
13, 134643, Note_on_c, 11, 75, 100
13, 134643, Note_on_c, 11, 66, 100
13, 134688, Note_on_c, 11, 66, 0
13, 134688, Note_on_c, 11, 75, 0
13, 134703, Note_on_c, 11, 75, 100
13, 134703, Note_on_c, 11, 66, 100
13, 134748, Note_on_c, 11, 66, 0
13, 134748, Note_on_c, 11, 75, 0
13, 134763, Note_on_c, 11, 75, 100
13, 134763, Note_on_c, 11, 66, 100
13, 134808, Note_on_c, 11, 66, 0
13, 134808, Note_on_c, 11, 75, 0
13, 134823, Note_on_c, 11, 75, 100
13, 134823, Note_on_c, 11, 66, 100
13, 134868, Note_on_c, 11, 66, 0
13, 134868, Note_on_c, 11, 75, 0
13, 134883, Note_on_c, 11, 75, 100
13, 134883, Note_on_c, 11, 66, 100
13, 134928, Note_on_c, 11, 66, 0
13, 134928, Note_on_c, 11, 75, 0
13, 134943, Note_on_c, 11, 66, 100
13, 134943, Note_on_c, 11, 75, 100
13, 134988, Note_on_c, 11, 75, 0
13, 134988, Note_on_c, 11, 66, 0
13, 135003, Note_on_c, 11, 75, 100
13, 135003, Note_on_c, 11, 66, 100
13, 135048, Note_on_c, 11, 66, 0
13, 135048, Note_on_c, 11, 75, 0
13, 135063, Note_on_c, 11, 75, 100
13, 135063, Note_on_c, 11, 66, 100
13, 135108, Note_on_c, 11, 66, 0
13, 135108, Note_on_c, 11, 75, 0
13, 135123, Note_on_c, 11, 66, 100
13, 135123, Note_on_c, 11, 75, 100
13, 135168, Note_on_c, 11, 75, 0
13, 135168, Note_on_c, 11, 66, 0
13, 135183, Note_on_c, 11, 66, 100
13, 135183, Note_on_c, 11, 75, 100
13, 135228, Note_on_c, 11, 75, 0
13, 135228, Note_on_c, 11, 66, 0
13, 135243, Note_on_c, 11, 75, 100
13, 135243, Note_on_c, 11, 66, 100
13, 135288, Note_on_c, 11, 66, 0
13, 135288, Note_on_c, 11, 75, 0
13, 135303, Note_on_c, 11, 75, 100
13, 135303, Note_on_c, 11, 66, 100
13, 135348, Note_on_c, 11, 66, 0
13, 135348, Note_on_c, 11, 75, 0
13, 135363, Control_c, 11, 11, 127
13, 135363, Note_on_c, 11, 80, 100
13, 135380, Control_c, 11, 11, 125
13, 135398, Control_c, 11, 11, 123
13, 135408, Note_on_c, 11, 80, 0
13, 135416, Control_c, 11, 11, 121
13, 135423, Note_on_c, 11, 80, 100
13, 135434, Control_c, 11, 11, 119
13, 135452, Control_c, 11, 11, 117
13, 135468, Note_on_c, 11, 80, 0
13, 135470, Control_c, 11, 11, 115
13, 135483, Note_on_c, 11, 78, 100
13, 135488, Control_c, 11, 11, 113
13, 135506, Control_c, 11, 11, 111
13, 135524, Control_c, 11, 11, 109
13, 135528, Note_on_c, 11, 78, 0
13, 135542, Control_c, 11, 11, 107
13, 135543, Note_on_c, 11, 78, 100
13, 135588, Note_on_c, 11, 78, 0
13, 135603, Control_c, 11, 11, 127
13, 135603, Note_on_c, 11, 81, 100
13, 135620, Control_c, 11, 11, 125
13, 135638, Control_c, 11, 11, 123
13, 135648, Note_on_c, 11, 81, 0
13, 135656, Control_c, 11, 11, 121
13, 135663, Note_on_c, 11, 81, 100
13, 135674, Control_c, 11, 11, 119
13, 135692, Control_c, 11, 11, 117
13, 135708, Note_on_c, 11, 81, 0
13, 135710, Control_c, 11, 11, 115
13, 135723, Note_on_c, 11, 80, 100
13, 135728, Control_c, 11, 11, 113
13, 135746, Control_c, 11, 11, 111
13, 135764, Control_c, 11, 11, 109
13, 135768, Note_on_c, 11, 80, 0
13, 135782, Control_c, 11, 11, 107
13, 135783, Note_on_c, 11, 80, 100
13, 135828, Note_on_c, 11, 80, 0
13, 135843, Control_c, 11, 11, 127
13, 135843, Note_on_c, 11, 78, 100
13, 135860, Control_c, 11, 11, 125
13, 135878, Control_c, 11, 11, 123
13, 135888, Note_on_c, 11, 78, 0
13, 135896, Control_c, 11, 11, 121
13, 135903, Note_on_c, 11, 78, 100
13, 135914, Control_c, 11, 11, 119
13, 135932, Control_c, 11, 11, 117
13, 135948, Note_on_c, 11, 78, 0
13, 135950, Control_c, 11, 11, 115
13, 135963, Note_on_c, 11, 76, 100
13, 135968, Control_c, 11, 11, 113
13, 135986, Control_c, 11, 11, 111
13, 136004, Control_c, 11, 11, 109
13, 136008, Note_on_c, 11, 76, 0
13, 136022, Control_c, 11, 11, 107
13, 136023, Note_on_c, 11, 76, 100
13, 136068, Note_on_c, 11, 76, 0
13, 136083, Control_c, 11, 11, 127
13, 136083, Note_on_c, 11, 75, 100
13, 136100, Control_c, 11, 11, 125
13, 136118, Control_c, 11, 11, 123
13, 136128, Note_on_c, 11, 75, 0
13, 136136, Control_c, 11, 11, 121
13, 136143, Note_on_c, 11, 75, 100
13, 136154, Control_c, 11, 11, 119
13, 136172, Control_c, 11, 11, 117
13, 136188, Note_on_c, 11, 75, 0
13, 136190, Control_c, 11, 11, 115
13, 136203, Note_on_c, 11, 76, 100
13, 136208, Control_c, 11, 11, 113
13, 136226, Control_c, 11, 11, 111
13, 136244, Control_c, 11, 11, 109
13, 136248, Note_on_c, 11, 76, 0
13, 136262, Control_c, 11, 11, 107
13, 136263, Note_on_c, 11, 76, 100
13, 136308, Note_on_c, 11, 76, 0
13, 136323, Control_c, 11, 11, 127
13, 136323, Note_on_c, 11, 78, 100
13, 136340, Control_c, 11, 11, 125
13, 136358, Control_c, 11, 11, 123
13, 136368, Note_on_c, 11, 78, 0
13, 136376, Control_c, 11, 11, 121
13, 136383, Note_on_c, 11, 78, 100
13, 136394, Control_c, 11, 11, 119
13, 136412, Control_c, 11, 11, 117
13, 136428, Note_on_c, 11, 78, 0
13, 136430, Control_c, 11, 11, 115
13, 136443, Note_on_c, 11, 80, 100
13, 136448, Control_c, 11, 11, 113
13, 136466, Control_c, 11, 11, 111
13, 136484, Control_c, 11, 11, 109
13, 136488, Note_on_c, 11, 80, 0
13, 136502, Control_c, 11, 11, 107
13, 136503, Note_on_c, 11, 80, 100
13, 136548, Note_on_c, 11, 80, 0
13, 136563, Control_c, 11, 11, 127
13, 136563, Note_on_c, 11, 81, 100
13, 136580, Control_c, 11, 11, 125
13, 136598, Control_c, 11, 11, 123
13, 136608, Note_on_c, 11, 81, 0
13, 136616, Control_c, 11, 11, 121
13, 136623, Note_on_c, 11, 81, 100
13, 136634, Control_c, 11, 11, 119
13, 136652, Control_c, 11, 11, 117
13, 136668, Note_on_c, 11, 81, 0
13, 136670, Control_c, 11, 11, 115
13, 136683, Note_on_c, 11, 82, 100
13, 136688, Control_c, 11, 11, 113
13, 136706, Control_c, 11, 11, 111
13, 136724, Control_c, 11, 11, 109
13, 136728, Note_on_c, 11, 82, 0
13, 136742, Control_c, 11, 11, 107
13, 136743, Note_on_c, 11, 82, 100
13, 136788, Note_on_c, 11, 82, 0
13, 136803, Control_c, 11, 11, 127
13, 136803, Note_on_c, 11, 71, 100
13, 136820, Control_c, 11, 11, 125
13, 136838, Control_c, 11, 11, 123
13, 136848, Note_on_c, 11, 71, 0
13, 136856, Control_c, 11, 11, 121
13, 136863, Note_on_c, 11, 71, 100
13, 136874, Control_c, 11, 11, 119
13, 136892, Control_c, 11, 11, 117
13, 136908, Note_on_c, 11, 71, 0
13, 136910, Control_c, 11, 11, 115
13, 136923, Note_on_c, 11, 73, 100
13, 136928, Control_c, 11, 11, 113
13, 136946, Control_c, 11, 11, 111
13, 136964, Control_c, 11, 11, 109
13, 136968, Note_on_c, 11, 73, 0
13, 136982, Control_c, 11, 11, 107
13, 136983, Note_on_c, 11, 73, 100
13, 137028, Note_on_c, 11, 73, 0
13, 137043, Control_c, 11, 11, 127
13, 137043, Note_on_c, 11, 75, 100
13, 137060, Control_c, 11, 11, 125
13, 137078, Control_c, 11, 11, 123
13, 137088, Note_on_c, 11, 75, 0
13, 137096, Control_c, 11, 11, 121
13, 137103, Note_on_c, 11, 75, 100
13, 137114, Control_c, 11, 11, 119
13, 137132, Control_c, 11, 11, 117
13, 137148, Note_on_c, 11, 75, 0
13, 137150, Control_c, 11, 11, 115
13, 137163, Note_on_c, 11, 76, 100
13, 137168, Control_c, 11, 11, 113
13, 137186, Control_c, 11, 11, 111
13, 137204, Control_c, 11, 11, 109
13, 137208, Note_on_c, 11, 76, 0
13, 137222, Control_c, 11, 11, 107
13, 137223, Note_on_c, 11, 76, 100
13, 137268, Note_on_c, 11, 76, 0
13, 137283, Control_c, 11, 11, 127
13, 137283, Note_on_c, 11, 78, 100
13, 137300, Control_c, 11, 11, 125
13, 137318, Control_c, 11, 11, 123
13, 137328, Note_on_c, 11, 78, 0
13, 137336, Control_c, 11, 11, 121
13, 137343, Note_on_c, 11, 78, 100
13, 137354, Control_c, 11, 11, 119
13, 137372, Control_c, 11, 11, 117
13, 137388, Note_on_c, 11, 78, 0
13, 137390, Control_c, 11, 11, 115
13, 137403, Note_on_c, 11, 80, 100
13, 137408, Control_c, 11, 11, 113
13, 137426, Control_c, 11, 11, 111
13, 137444, Control_c, 11, 11, 109
13, 137448, Note_on_c, 11, 80, 0
13, 137462, Control_c, 11, 11, 107
13, 137463, Note_on_c, 11, 80, 100
13, 137508, Note_on_c, 11, 80, 0
13, 137523, Control_c, 11, 11, 127
13, 137523, Note_on_c, 11, 81, 100
13, 137540, Control_c, 11, 11, 125
13, 137558, Control_c, 11, 11, 123
13, 137568, Note_on_c, 11, 81, 0
13, 137576, Control_c, 11, 11, 121
13, 137583, Note_on_c, 11, 81, 100
13, 137594, Control_c, 11, 11, 119
13, 137612, Control_c, 11, 11, 117
13, 137628, Note_on_c, 11, 81, 0
13, 137630, Control_c, 11, 11, 115
13, 137643, Note_on_c, 11, 82, 100
13, 137648, Control_c, 11, 11, 113
13, 137666, Control_c, 11, 11, 111
13, 137684, Control_c, 11, 11, 109
13, 137688, Note_on_c, 11, 82, 0
13, 137702, Control_c, 11, 11, 107
13, 137703, Note_on_c, 11, 82, 100
13, 137748, Note_on_c, 11, 82, 0
13, 137763, Control_c, 11, 11, 127
13, 137763, Note_on_c, 11, 83, 100
13, 137780, Control_c, 11, 11, 125
13, 137798, Control_c, 11, 11, 123
13, 137808, Note_on_c, 11, 83, 0
13, 137816, Control_c, 11, 11, 121
13, 137823, Note_on_c, 11, 83, 100
13, 137834, Control_c, 11, 11, 119
13, 137852, Control_c, 11, 11, 117
13, 137868, Note_on_c, 11, 83, 0
13, 137870, Control_c, 11, 11, 115
13, 137883, Note_on_c, 11, 83, 100
13, 137888, Control_c, 11, 11, 113
13, 137906, Control_c, 11, 11, 111
13, 137924, Control_c, 11, 11, 109
13, 137928, Note_on_c, 11, 83, 0
13, 137942, Control_c, 11, 11, 107
13, 137943, Note_on_c, 11, 83, 100
13, 137988, Note_on_c, 11, 83, 0
13, 138003, Control_c, 11, 11, 127
13, 138003, Note_on_c, 11, 83, 100
13, 138020, Control_c, 11, 11, 125
13, 138038, Control_c, 11, 11, 123
13, 138048, Note_on_c, 11, 83, 0
13, 138056, Control_c, 11, 11, 121
13, 138063, Note_on_c, 11, 83, 100
13, 138074, Control_c, 11, 11, 119
13, 138092, Control_c, 11, 11, 117
13, 138108, Note_on_c, 11, 83, 0
13, 138110, Control_c, 11, 11, 115
13, 138123, Note_on_c, 11, 83, 100
13, 138128, Control_c, 11, 11, 113
13, 138146, Control_c, 11, 11, 111
13, 138164, Control_c, 11, 11, 109
13, 138168, Note_on_c, 11, 83, 0
13, 138182, Control_c, 11, 11, 107
13, 138183, Note_on_c, 11, 83, 100
13, 138228, Note_on_c, 11, 83, 0
13, 138243, Control_c, 11, 11, 127
13, 138243, Note_on_c, 11, 80, 100
13, 138260, Control_c, 11, 11, 125
13, 138278, Control_c, 11, 11, 123
13, 138288, Note_on_c, 11, 80, 0
13, 138296, Control_c, 11, 11, 121
13, 138303, Note_on_c, 11, 80, 100
13, 138314, Control_c, 11, 11, 119
13, 138332, Control_c, 11, 11, 117
13, 138348, Note_on_c, 11, 80, 0
13, 138350, Control_c, 11, 11, 115
13, 138363, Note_on_c, 11, 78, 100
13, 138368, Control_c, 11, 11, 113
13, 138386, Control_c, 11, 11, 111
13, 138404, Control_c, 11, 11, 109
13, 138408, Note_on_c, 11, 78, 0
13, 138422, Control_c, 11, 11, 107
13, 138423, Note_on_c, 11, 78, 100
13, 138468, Note_on_c, 11, 78, 0
13, 138483, Control_c, 11, 11, 127
13, 138483, Note_on_c, 11, 81, 100
13, 138500, Control_c, 11, 11, 125
13, 138518, Control_c, 11, 11, 123
13, 138528, Note_on_c, 11, 81, 0
13, 138536, Control_c, 11, 11, 121
13, 138543, Note_on_c, 11, 81, 100
13, 138554, Control_c, 11, 11, 119
13, 138572, Control_c, 11, 11, 117
13, 138588, Note_on_c, 11, 81, 0
13, 138590, Control_c, 11, 11, 115
13, 138603, Note_on_c, 11, 80, 100
13, 138608, Control_c, 11, 11, 113
13, 138626, Control_c, 11, 11, 111
13, 138644, Control_c, 11, 11, 109
13, 138648, Note_on_c, 11, 80, 0
13, 138662, Control_c, 11, 11, 107
13, 138663, Note_on_c, 11, 80, 100
13, 138708, Note_on_c, 11, 80, 0
13, 138723, Control_c, 11, 11, 127
13, 138723, Note_on_c, 11, 78, 100
13, 138740, Control_c, 11, 11, 125
13, 138758, Control_c, 11, 11, 123
13, 138768, Note_on_c, 11, 78, 0
13, 138776, Control_c, 11, 11, 121
13, 138783, Note_on_c, 11, 78, 100
13, 138794, Control_c, 11, 11, 119
13, 138812, Control_c, 11, 11, 117
13, 138828, Note_on_c, 11, 78, 0
13, 138830, Control_c, 11, 11, 115
13, 138843, Note_on_c, 11, 76, 100
13, 138848, Control_c, 11, 11, 113
13, 138866, Control_c, 11, 11, 111
13, 138884, Control_c, 11, 11, 109
13, 138888, Note_on_c, 11, 76, 0
13, 138902, Control_c, 11, 11, 107
13, 138903, Note_on_c, 11, 76, 100
13, 138948, Note_on_c, 11, 76, 0
13, 138963, Control_c, 11, 11, 127
13, 138963, Note_on_c, 11, 75, 100
13, 138980, Control_c, 11, 11, 125
13, 138998, Control_c, 11, 11, 123
13, 139008, Note_on_c, 11, 75, 0
13, 139016, Control_c, 11, 11, 121
13, 139023, Note_on_c, 11, 75, 100
13, 139034, Control_c, 11, 11, 119
13, 139052, Control_c, 11, 11, 117
13, 139068, Note_on_c, 11, 75, 0
13, 139070, Control_c, 11, 11, 115
13, 139083, Note_on_c, 11, 76, 100
13, 139088, Control_c, 11, 11, 113
13, 139106, Control_c, 11, 11, 111
13, 139124, Control_c, 11, 11, 109
13, 139128, Note_on_c, 11, 76, 0
13, 139142, Control_c, 11, 11, 107
13, 139143, Note_on_c, 11, 76, 100
13, 139188, Note_on_c, 11, 76, 0
13, 139203, Control_c, 11, 11, 127
13, 139203, Note_on_c, 11, 78, 100
13, 139220, Control_c, 11, 11, 125
13, 139238, Control_c, 11, 11, 123
13, 139248, Note_on_c, 11, 78, 0
13, 139256, Control_c, 11, 11, 121
13, 139263, Note_on_c, 11, 78, 100
13, 139274, Control_c, 11, 11, 119
13, 139292, Control_c, 11, 11, 117
13, 139308, Note_on_c, 11, 78, 0
13, 139310, Control_c, 11, 11, 115
13, 139323, Note_on_c, 11, 80, 100
13, 139328, Control_c, 11, 11, 113
13, 139346, Control_c, 11, 11, 111
13, 139364, Control_c, 11, 11, 109
13, 139368, Note_on_c, 11, 80, 0
13, 139382, Control_c, 11, 11, 107
13, 139383, Note_on_c, 11, 80, 100
13, 139428, Note_on_c, 11, 80, 0
13, 139443, Control_c, 11, 11, 127
13, 139443, Note_on_c, 11, 81, 100
13, 139460, Control_c, 11, 11, 125
13, 139478, Control_c, 11, 11, 123
13, 139488, Note_on_c, 11, 81, 0
13, 139496, Control_c, 11, 11, 121
13, 139503, Note_on_c, 11, 81, 100
13, 139514, Control_c, 11, 11, 119
13, 139532, Control_c, 11, 11, 117
13, 139548, Note_on_c, 11, 81, 0
13, 139550, Control_c, 11, 11, 115
13, 139563, Note_on_c, 11, 82, 100
13, 139568, Control_c, 11, 11, 113
13, 139586, Control_c, 11, 11, 111
13, 139604, Control_c, 11, 11, 109
13, 139608, Note_on_c, 11, 82, 0
13, 139622, Control_c, 11, 11, 107
13, 139623, Note_on_c, 11, 82, 100
13, 139668, Note_on_c, 11, 82, 0
13, 139683, Control_c, 11, 11, 127
13, 139683, Note_on_c, 11, 71, 100
13, 139700, Control_c, 11, 11, 125
13, 139718, Control_c, 11, 11, 123
13, 139728, Note_on_c, 11, 71, 0
13, 139736, Control_c, 11, 11, 121
13, 139743, Note_on_c, 11, 71, 100
13, 139754, Control_c, 11, 11, 119
13, 139772, Control_c, 11, 11, 117
13, 139788, Note_on_c, 11, 71, 0
13, 139790, Control_c, 11, 11, 115
13, 139803, Note_on_c, 11, 73, 100
13, 139808, Control_c, 11, 11, 113
13, 139826, Control_c, 11, 11, 111
13, 139844, Control_c, 11, 11, 109
13, 139848, Note_on_c, 11, 73, 0
13, 139862, Control_c, 11, 11, 107
13, 139863, Note_on_c, 11, 73, 100
13, 139908, Note_on_c, 11, 73, 0
13, 139923, Control_c, 11, 11, 127
13, 139923, Note_on_c, 11, 75, 100
13, 139940, Control_c, 11, 11, 125
13, 139958, Control_c, 11, 11, 123
13, 139968, Note_on_c, 11, 75, 0
13, 139976, Control_c, 11, 11, 121
13, 139983, Note_on_c, 11, 75, 100
13, 139994, Control_c, 11, 11, 119
13, 140012, Control_c, 11, 11, 117
13, 140028, Note_on_c, 11, 75, 0
13, 140030, Control_c, 11, 11, 115
13, 140043, Note_on_c, 11, 76, 100
13, 140048, Control_c, 11, 11, 113
13, 140066, Control_c, 11, 11, 111
13, 140084, Control_c, 11, 11, 109
13, 140088, Note_on_c, 11, 76, 0
13, 140102, Control_c, 11, 11, 107
13, 140103, Note_on_c, 11, 76, 100
13, 140148, Note_on_c, 11, 76, 0
13, 140163, Control_c, 11, 11, 127
13, 140163, Note_on_c, 11, 78, 100
13, 140180, Control_c, 11, 11, 125
13, 140198, Control_c, 11, 11, 123
13, 140208, Note_on_c, 11, 78, 0
13, 140216, Control_c, 11, 11, 121
13, 140223, Note_on_c, 11, 78, 100
13, 140234, Control_c, 11, 11, 119
13, 140252, Control_c, 11, 11, 117
13, 140268, Note_on_c, 11, 78, 0
13, 140270, Control_c, 11, 11, 115
13, 140283, Note_on_c, 11, 80, 100
13, 140288, Control_c, 11, 11, 113
13, 140306, Control_c, 11, 11, 111
13, 140324, Control_c, 11, 11, 109
13, 140328, Note_on_c, 11, 80, 0
13, 140342, Control_c, 11, 11, 107
13, 140343, Note_on_c, 11, 80, 100
13, 140388, Note_on_c, 11, 80, 0
13, 140403, Control_c, 11, 11, 127
13, 140403, Note_on_c, 11, 81, 100
13, 140420, Control_c, 11, 11, 125
13, 140438, Control_c, 11, 11, 123
13, 140448, Note_on_c, 11, 81, 0
13, 140456, Control_c, 11, 11, 121
13, 140463, Note_on_c, 11, 81, 100
13, 140474, Control_c, 11, 11, 119
13, 140492, Control_c, 11, 11, 117
13, 140508, Note_on_c, 11, 81, 0
13, 140510, Control_c, 11, 11, 115
13, 140523, Note_on_c, 11, 82, 100
13, 140528, Control_c, 11, 11, 113
13, 140546, Control_c, 11, 11, 111
13, 140564, Control_c, 11, 11, 109
13, 140568, Note_on_c, 11, 82, 0
13, 140582, Control_c, 11, 11, 107
13, 140583, Note_on_c, 11, 82, 100
13, 140628, Note_on_c, 11, 82, 0
13, 140643, Control_c, 11, 11, 127
13, 140643, Note_on_c, 11, 83, 100
13, 140660, Control_c, 11, 11, 125
13, 140678, Control_c, 11, 11, 123
13, 140688, Note_on_c, 11, 83, 0
13, 140696, Control_c, 11, 11, 121
13, 140703, Note_on_c, 11, 83, 100
13, 140714, Control_c, 11, 11, 119
13, 140732, Control_c, 11, 11, 117
13, 140748, Note_on_c, 11, 83, 0
13, 140750, Control_c, 11, 11, 115
13, 140763, Note_on_c, 11, 83, 100
13, 140768, Control_c, 11, 11, 113
13, 140786, Control_c, 11, 11, 111
13, 140804, Control_c, 11, 11, 109
13, 140808, Note_on_c, 11, 83, 0
13, 140822, Control_c, 11, 11, 107
13, 140823, Note_on_c, 11, 83, 100
13, 140868, Note_on_c, 11, 83, 0
13, 140883, Control_c, 11, 11, 127
13, 140883, Note_on_c, 11, 83, 100
13, 140900, Control_c, 11, 11, 125
13, 140918, Control_c, 11, 11, 123
13, 140928, Note_on_c, 11, 83, 0
13, 140936, Control_c, 11, 11, 121
13, 140943, Note_on_c, 11, 83, 100
13, 140954, Control_c, 11, 11, 119
13, 140972, Control_c, 11, 11, 117
13, 140988, Note_on_c, 11, 83, 0
13, 140990, Control_c, 11, 11, 115
13, 141003, Note_on_c, 11, 83, 100
13, 141008, Control_c, 11, 11, 113
13, 141026, Control_c, 11, 11, 111
13, 141044, Control_c, 11, 11, 109
13, 141048, Note_on_c, 11, 83, 0
13, 141062, Control_c, 11, 11, 107
13, 141063, Note_on_c, 11, 83, 100
13, 141108, Note_on_c, 11, 83, 0
13, 141123, Note_on_c, 11, 76, 100
13, 141273, Note_on_c, 11, 76, 0
13, 141303, Note_on_c, 11, 71, 100
13, 141348, Note_on_c, 11, 71, 0
13, 141363, Note_on_c, 11, 71, 100
13, 141483, Note_on_c, 11, 71, 0
13, 142083, Note_on_c, 11, 80, 100
13, 142233, Note_on_c, 11, 80, 0
13, 142263, Note_on_c, 11, 76, 100
13, 142308, Note_on_c, 11, 76, 0
13, 142323, Note_on_c, 11, 76, 100
13, 142443, Note_on_c, 11, 76, 0
13, 143043, Note_on_c, 11, 83, 100
13, 143193, Note_on_c, 11, 83, 0
13, 143223, Note_on_c, 11, 80, 100
13, 143268, Note_on_c, 11, 80, 0
13, 143283, Note_on_c, 11, 80, 100
13, 143403, Note_on_c, 11, 80, 0
13, 144003, Note_on_c, 11, 88, 100
13, 144153, Note_on_c, 11, 88, 0
13, 144183, Note_on_c, 11, 83, 100
13, 144228, Note_on_c, 11, 83, 0
13, 144243, Note_on_c, 11, 83, 100
13, 144363, Note_on_c, 11, 83, 0
13, 144963, Note_on_c, 11, 88, 100
13, 145008, Note_on_c, 11, 88, 0
13, 145023, Note_on_c, 11, 88, 100
13, 145068, Note_on_c, 11, 88, 0
13, 145083, Note_on_c, 11, 83, 100
13, 145128, Note_on_c, 11, 83, 0
13, 145143, Note_on_c, 11, 83, 100
13, 145188, Note_on_c, 11, 83, 0
13, 145203, Note_on_c, 11, 88, 100
13, 145248, Note_on_c, 11, 88, 0
13, 145263, Note_on_c, 11, 88, 100
13, 145308, Note_on_c, 11, 88, 0
13, 145323, Note_on_c, 11, 83, 100
13, 145368, Note_on_c, 11, 83, 0
13, 145383, Note_on_c, 11, 83, 100
13, 145428, Note_on_c, 11, 83, 0
13, 145443, Note_on_c, 11, 88, 100
13, 145488, Note_on_c, 11, 88, 0
13, 145503, Note_on_c, 11, 88, 100
13, 145548, Note_on_c, 11, 88, 0
13, 145563, Note_on_c, 11, 83, 100
13, 145608, Note_on_c, 11, 83, 0
13, 145623, Note_on_c, 11, 83, 100
13, 145668, Note_on_c, 11, 83, 0
13, 145683, Note_on_c, 11, 88, 100
13, 145728, Note_on_c, 11, 88, 0
13, 145743, Note_on_c, 11, 88, 100
13, 145788, Note_on_c, 11, 88, 0
13, 145803, Note_on_c, 11, 83, 100
13, 145848, Note_on_c, 11, 83, 0
13, 145863, Note_on_c, 11, 83, 100
13, 145908, Note_on_c, 11, 83, 0
13, 145923, Note_on_c, 11, 88, 100
13, 145968, Note_on_c, 11, 88, 0
13, 145983, Note_on_c, 11, 88, 100
13, 146028, Note_on_c, 11, 88, 0
13, 146043, Note_on_c, 11, 83, 100
13, 146088, Note_on_c, 11, 83, 0
13, 146103, Note_on_c, 11, 83, 100
13, 146148, Note_on_c, 11, 83, 0
13, 146163, Note_on_c, 11, 88, 100
13, 146208, Note_on_c, 11, 88, 0
13, 146223, Note_on_c, 11, 88, 100
13, 146268, Note_on_c, 11, 88, 0
13, 146283, Note_on_c, 11, 83, 100
13, 146328, Note_on_c, 11, 83, 0
13, 146343, Note_on_c, 11, 83, 100
13, 146388, Note_on_c, 11, 83, 0
13, 146403, Note_on_c, 11, 88, 100
13, 146448, Note_on_c, 11, 88, 0
13, 146463, Note_on_c, 11, 88, 100
13, 146508, Note_on_c, 11, 88, 0
13, 146523, Note_on_c, 11, 83, 100
13, 146568, Note_on_c, 11, 83, 0
13, 146583, Note_on_c, 11, 83, 100
13, 146628, Note_on_c, 11, 83, 0
13, 146643, Note_on_c, 11, 88, 100
13, 146688, Note_on_c, 11, 88, 0
13, 146703, Note_on_c, 11, 88, 100
13, 146748, Note_on_c, 11, 88, 0
13, 146763, Note_on_c, 11, 83, 100
13, 146808, Note_on_c, 11, 83, 0
13, 146823, Note_on_c, 11, 83, 100
13, 146868, Note_on_c, 11, 83, 0
13, 146883, Note_on_c, 11, 88, 100
13, 147003, Note_on_c, 11, 88, 0
13, 147363, Note_on_c, 11, 76, 100
13, 147363, Note_on_c, 11, 71, 100
13, 147363, Note_on_c, 11, 64, 100
13, 147483, Note_on_c, 11, 64, 0
13, 147483, Note_on_c, 11, 71, 0
13, 147483, Note_on_c, 11, 76, 0
13, 147843, Note_on_c, 11, 64, 100
13, 147963, Note_on_c, 11, 64, 0
13, 148323, Control_c, 11, 121, 0
13, 148323, End_track
14, 0, Start_track
14, 0, MIDI_port, 0
14, 0, Title_t, "Viola"
14, 0, Program_c, 12, 48
14, 0, Control_c, 12, 10, 40
14, 7, Control_c, 12, 121, 0
14, 12, Program_c, 12, 48
14, 17, Pitch_bend_c, 12, 8492
14, 22, Control_c, 12, 11, 102
14, 27, Control_c, 12, 7, 127
14, 32, Control_c, 12, 91, 31
14, 37, Control_c, 12, 93, 0
14, 42, Control_c, 12, 1, 36
14, 487, Control_c, 12, 11, 87
14, 487, Note_on_c, 12, 64, 100
14, 637, Note_on_c, 12, 64, 0
14, 667, Note_on_c, 12, 59, 100
14, 717, Note_on_c, 12, 59, 0
14, 727, Note_on_c, 12, 59, 100
14, 787, Note_on_c, 12, 59, 0
14, 967, Control_c, 12, 11, 107
14, 967, Note_on_c, 12, 68, 100
14, 985, Control_c, 12, 11, 104
14, 1003, Control_c, 12, 11, 101
14, 1021, Control_c, 12, 11, 98
14, 1039, Control_c, 12, 11, 95
14, 1057, Control_c, 12, 11, 92
14, 1075, Control_c, 12, 11, 89
14, 1117, Note_on_c, 12, 68, 0
14, 1147, Note_on_c, 12, 64, 100
14, 1197, Note_on_c, 12, 64, 0
14, 1207, Note_on_c, 12, 64, 100
14, 1267, Note_on_c, 12, 64, 0
14, 1447, Control_c, 12, 11, 107
14, 1447, Note_on_c, 12, 71, 100
14, 1465, Control_c, 12, 11, 104
14, 1483, Control_c, 12, 11, 101
14, 1501, Control_c, 12, 11, 98
14, 1519, Control_c, 12, 11, 95
14, 1537, Control_c, 12, 11, 92
14, 1555, Control_c, 12, 11, 89
14, 1597, Note_on_c, 12, 71, 0
14, 1627, Note_on_c, 12, 68, 100
14, 1677, Note_on_c, 12, 68, 0
14, 1687, Note_on_c, 12, 68, 100
14, 1747, Note_on_c, 12, 68, 0
14, 1807, Note_on_c, 12, 59, 100
14, 1807, Note_on_c, 12, 68, 100
14, 1867, Note_on_c, 12, 68, 0
14, 1867, Note_on_c, 12, 59, 0
14, 1927, Note_on_c, 12, 59, 100
14, 1927, Note_on_c, 12, 66, 100
14, 1987, Note_on_c, 12, 66, 0
14, 1987, Note_on_c, 12, 59, 0
14, 6247, Control_c, 12, 11, 87
14, 6247, Note_on_c, 12, 57, 100
14, 6397, Note_on_c, 12, 57, 0
14, 6427, Note_on_c, 12, 52, 100
14, 6477, Note_on_c, 12, 52, 0
14, 6487, Note_on_c, 12, 52, 100
14, 6547, Note_on_c, 12, 52, 0
14, 6727, Control_c, 12, 11, 107
14, 6727, Note_on_c, 12, 61, 100
14, 6745, Control_c, 12, 11, 104
14, 6763, Control_c, 12, 11, 101
14, 6781, Control_c, 12, 11, 98
14, 6799, Control_c, 12, 11, 95
14, 6817, Control_c, 12, 11, 92
14, 6835, Control_c, 12, 11, 89
14, 6877, Note_on_c, 12, 61, 0
14, 6907, Note_on_c, 12, 57, 100
14, 6957, Note_on_c, 12, 57, 0
14, 6967, Note_on_c, 12, 57, 100
14, 7027, Note_on_c, 12, 57, 0
14, 7207, Control_c, 12, 11, 107
14, 7207, Note_on_c, 12, 64, 100
14, 7225, Control_c, 12, 11, 104
14, 7243, Control_c, 12, 11, 101
14, 7261, Control_c, 12, 11, 98
14, 7279, Control_c, 12, 11, 95
14, 7297, Control_c, 12, 11, 92
14, 7315, Control_c, 12, 11, 89
14, 7357, Note_on_c, 12, 64, 0
14, 7387, Note_on_c, 12, 61, 100
14, 7437, Note_on_c, 12, 61, 0
14, 7447, Note_on_c, 12, 61, 100
14, 7507, Note_on_c, 12, 61, 0
14, 7567, Note_on_c, 12, 69, 100
14, 7627, Note_on_c, 12, 69, 0
14, 7687, Note_on_c, 12, 64, 100
14, 7747, Note_on_c, 12, 64, 0
14, 10087, Control_c, 12, 11, 22
14, 10087, Note_on_c, 12, 57, 100
14, 10103, Control_c, 12, 11, 25
14, 10119, Control_c, 12, 11, 28
14, 10135, Control_c, 12, 11, 31
14, 10151, Control_c, 12, 11, 34
14, 10169, Control_c, 12, 11, 35
14, 10187, Control_c, 12, 11, 36
14, 10205, Control_c, 12, 11, 37
14, 10223, Control_c, 12, 11, 38
14, 10241, Control_c, 12, 11, 39
14, 10259, Control_c, 12, 11, 40
14, 10277, Control_c, 12, 11, 41
14, 10295, Control_c, 12, 11, 42
14, 10313, Control_c, 12, 11, 43
14, 10331, Control_c, 12, 11, 44
14, 10349, Control_c, 12, 11, 45
14, 10367, Control_c, 12, 11, 46
14, 10385, Control_c, 12, 11, 47
14, 10403, Control_c, 12, 11, 48
14, 10421, Control_c, 12, 11, 49
14, 10439, Control_c, 12, 11, 50
14, 10457, Control_c, 12, 11, 51
14, 10475, Control_c, 12, 11, 52
14, 10493, Control_c, 12, 11, 53
14, 10511, Control_c, 12, 11, 54
14, 10529, Control_c, 12, 11, 55
14, 10547, Control_c, 12, 11, 56
14, 10562, Note_on_c, 12, 57, 0
14, 10566, Control_c, 12, 11, 57
14, 10567, Note_on_c, 12, 55, 100
14, 10585, Control_c, 12, 11, 56
14, 10604, Control_c, 12, 11, 55
14, 10623, Control_c, 12, 11, 54
14, 10642, Control_c, 12, 11, 53
14, 10662, Control_c, 12, 11, 52
14, 10681, Control_c, 12, 11, 51
14, 10700, Control_c, 12, 11, 50
14, 10719, Control_c, 12, 11, 49
14, 10738, Control_c, 12, 11, 48
14, 10758, Control_c, 12, 11, 47
14, 10777, Control_c, 12, 11, 46
14, 10796, Control_c, 12, 11, 45
14, 10815, Control_c, 12, 11, 44
14, 10834, Control_c, 12, 11, 43
14, 10854, Control_c, 12, 11, 42
14, 10873, Control_c, 12, 11, 41
14, 10892, Control_c, 12, 11, 40
14, 10911, Control_c, 12, 11, 39
14, 10930, Control_c, 12, 11, 38
14, 10950, Control_c, 12, 11, 37
14, 10969, Control_c, 12, 11, 36
14, 10988, Control_c, 12, 11, 35
14, 11007, Control_c, 12, 11, 34
14, 11026, Control_c, 12, 11, 33
14, 11042, Note_on_c, 12, 55, 0
14, 11046, Control_c, 12, 11, 32
14, 11047, Note_on_c, 12, 48, 72
14, 11087, Note_on_c, 12, 48, 0
14, 11087, Note_on_c, 12, 55, 72
14, 11127, Note_on_c, 12, 55, 0
14, 11127, Note_on_c, 12, 48, 72
14, 11167, Note_on_c, 12, 48, 0
14, 11167, Note_on_c, 12, 55, 72
14, 11207, Note_on_c, 12, 55, 0
14, 11207, Note_on_c, 12, 48, 72
14, 11247, Note_on_c, 12, 48, 0
14, 11247, Note_on_c, 12, 55, 72
14, 11287, Note_on_c, 12, 55, 0
14, 11287, Note_on_c, 12, 48, 72
14, 11327, Note_on_c, 12, 48, 0
14, 11327, Note_on_c, 12, 55, 72
14, 11367, Note_on_c, 12, 55, 0
14, 11367, Note_on_c, 12, 48, 73
14, 11407, Note_on_c, 12, 48, 0
14, 11407, Note_on_c, 12, 55, 73
14, 11447, Note_on_c, 12, 55, 0
14, 11447, Note_on_c, 12, 48, 73
14, 11487, Note_on_c, 12, 48, 0
14, 11487, Note_on_c, 12, 55, 73
14, 11517, Note_on_c, 12, 55, 0
14, 11527, Note_on_c, 12, 48, 73
14, 11567, Note_on_c, 12, 48, 0
14, 11567, Note_on_c, 12, 55, 73
14, 11607, Note_on_c, 12, 55, 0
14, 11607, Note_on_c, 12, 48, 73
14, 11647, Note_on_c, 12, 48, 0
14, 11647, Note_on_c, 12, 55, 73
14, 11687, Note_on_c, 12, 55, 0
14, 11687, Note_on_c, 12, 48, 73
14, 11727, Note_on_c, 12, 48, 0
14, 11727, Note_on_c, 12, 55, 73
14, 11767, Note_on_c, 12, 55, 0
14, 11767, Note_on_c, 12, 48, 73
14, 11807, Note_on_c, 12, 48, 0
14, 11807, Note_on_c, 12, 55, 73
14, 11847, Note_on_c, 12, 55, 0
14, 11847, Note_on_c, 12, 48, 73
14, 11887, Note_on_c, 12, 48, 0
14, 11887, Note_on_c, 12, 55, 73
14, 11927, Note_on_c, 12, 55, 0
14, 11927, Note_on_c, 12, 48, 73
14, 11967, Note_on_c, 12, 48, 0
14, 11967, Note_on_c, 12, 55, 73
14, 11997, Note_on_c, 12, 55, 0
14, 12007, Note_on_c, 12, 48, 74
14, 12047, Note_on_c, 12, 48, 0
14, 12047, Note_on_c, 12, 55, 74
14, 12087, Note_on_c, 12, 55, 0
14, 12087, Note_on_c, 12, 48, 74
14, 12127, Note_on_c, 12, 48, 0
14, 12127, Note_on_c, 12, 55, 74
14, 12167, Note_on_c, 12, 55, 0
14, 12167, Note_on_c, 12, 48, 74
14, 12207, Note_on_c, 12, 48, 0
14, 12207, Note_on_c, 12, 55, 74
14, 12247, Note_on_c, 12, 55, 0
14, 12247, Note_on_c, 12, 48, 74
14, 12287, Note_on_c, 12, 48, 0
14, 12287, Note_on_c, 12, 55, 74
14, 12327, Note_on_c, 12, 55, 0
14, 12327, Note_on_c, 12, 48, 75
14, 12367, Note_on_c, 12, 48, 0
14, 12367, Note_on_c, 12, 55, 75
14, 12407, Note_on_c, 12, 55, 0
14, 12407, Note_on_c, 12, 48, 75
14, 12447, Note_on_c, 12, 48, 0
14, 12447, Note_on_c, 12, 55, 75
14, 12477, Note_on_c, 12, 55, 0
14, 12487, Note_on_c, 12, 48, 75
14, 12527, Note_on_c, 12, 48, 0
14, 12527, Note_on_c, 12, 55, 75
14, 12567, Note_on_c, 12, 55, 0
14, 12567, Note_on_c, 12, 48, 75
14, 12607, Note_on_c, 12, 48, 0
14, 12607, Note_on_c, 12, 55, 75
14, 12647, Note_on_c, 12, 55, 0
14, 12647, Note_on_c, 12, 48, 76
14, 12687, Note_on_c, 12, 48, 0
14, 12687, Note_on_c, 12, 55, 76
14, 12727, Note_on_c, 12, 55, 0
14, 12727, Note_on_c, 12, 48, 76
14, 12767, Note_on_c, 12, 48, 0
14, 12767, Note_on_c, 12, 55, 76
14, 12807, Note_on_c, 12, 55, 0
14, 12807, Note_on_c, 12, 48, 76
14, 12847, Note_on_c, 12, 48, 0
14, 12847, Note_on_c, 12, 55, 76
14, 12887, Note_on_c, 12, 55, 0
14, 12887, Note_on_c, 12, 48, 76
14, 12927, Note_on_c, 12, 48, 0
14, 12927, Note_on_c, 12, 55, 76
14, 12957, Note_on_c, 12, 55, 0
14, 12967, Control_c, 12, 11, 32
14, 12967, Note_on_c, 12, 48, 77
14, 13007, Note_on_c, 12, 48, 0
14, 13007, Note_on_c, 12, 57, 77
14, 13010, Control_c, 12, 11, 33
14, 13047, Note_on_c, 12, 57, 0
14, 13047, Note_on_c, 12, 48, 77
14, 13054, Control_c, 12, 11, 34
14, 13087, Note_on_c, 12, 48, 0
14, 13087, Note_on_c, 12, 57, 77
14, 13097, Control_c, 12, 11, 35
14, 13127, Note_on_c, 12, 57, 0
14, 13127, Note_on_c, 12, 48, 77
14, 13141, Control_c, 12, 11, 36
14, 13167, Note_on_c, 12, 48, 0
14, 13167, Note_on_c, 12, 57, 77
14, 13185, Control_c, 12, 11, 37
14, 13207, Note_on_c, 12, 57, 0
14, 13207, Note_on_c, 12, 48, 77
14, 13228, Control_c, 12, 11, 38
14, 13247, Note_on_c, 12, 48, 0
14, 13247, Note_on_c, 12, 57, 77
14, 13272, Control_c, 12, 11, 39
14, 13287, Note_on_c, 12, 57, 0
14, 13287, Note_on_c, 12, 48, 78
14, 13316, Control_c, 12, 11, 40
14, 13327, Note_on_c, 12, 48, 0
14, 13327, Note_on_c, 12, 57, 78
14, 13359, Control_c, 12, 11, 41
14, 13367, Note_on_c, 12, 57, 0
14, 13367, Note_on_c, 12, 48, 78
14, 13403, Control_c, 12, 11, 42
14, 13407, Note_on_c, 12, 48, 0
14, 13407, Note_on_c, 12, 57, 78
14, 13437, Note_on_c, 12, 57, 0
14, 13447, Control_c, 12, 11, 43
14, 13447, Note_on_c, 12, 48, 78
14, 13483, Control_c, 12, 11, 44
14, 13487, Note_on_c, 12, 48, 0
14, 13487, Note_on_c, 12, 57, 78
14, 13527, Note_on_c, 12, 57, 0
14, 13527, Note_on_c, 12, 48, 78
14, 13557, Control_c, 12, 11, 45
14, 13567, Note_on_c, 12, 48, 0
14, 13567, Note_on_c, 12, 57, 78
14, 13607, Note_on_c, 12, 57, 0
14, 13607, Note_on_c, 12, 48, 79
14, 13631, Control_c, 12, 11, 46
14, 13647, Note_on_c, 12, 48, 0
14, 13647, Note_on_c, 12, 57, 79
14, 13687, Note_on_c, 12, 57, 0
14, 13687, Note_on_c, 12, 48, 79
14, 13705, Control_c, 12, 11, 47
14, 13727, Note_on_c, 12, 48, 0
14, 13727, Note_on_c, 12, 57, 79
14, 13767, Note_on_c, 12, 57, 0
14, 13767, Note_on_c, 12, 48, 79
14, 13779, Control_c, 12, 11, 48
14, 13807, Note_on_c, 12, 48, 0
14, 13807, Note_on_c, 12, 57, 79
14, 13847, Note_on_c, 12, 57, 0
14, 13847, Note_on_c, 12, 48, 79
14, 13853, Control_c, 12, 11, 49
14, 13887, Note_on_c, 12, 48, 0
14, 13887, Note_on_c, 12, 57, 79
14, 13917, Note_on_c, 12, 57, 0
14, 13927, Control_c, 12, 11, 50
14, 13927, Note_on_c, 12, 57, 79
14, 13967, Note_on_c, 12, 57, 0
14, 13967, Note_on_c, 12, 54, 79
14, 14000, Control_c, 12, 11, 51
14, 14007, Note_on_c, 12, 54, 0
14, 14007, Note_on_c, 12, 57, 79
14, 14047, Note_on_c, 12, 57, 0
14, 14047, Note_on_c, 12, 54, 79
14, 14074, Control_c, 12, 11, 52
14, 14087, Note_on_c, 12, 54, 0
14, 14087, Note_on_c, 12, 57, 79
14, 14127, Note_on_c, 12, 57, 0
14, 14127, Note_on_c, 12, 54, 79
14, 14148, Control_c, 12, 11, 53
14, 14167, Note_on_c, 12, 54, 0
14, 14167, Note_on_c, 12, 57, 79
14, 14207, Note_on_c, 12, 57, 0
14, 14207, Note_on_c, 12, 54, 79
14, 14222, Control_c, 12, 11, 54
14, 14247, Note_on_c, 12, 54, 0
14, 14247, Note_on_c, 12, 57, 80
14, 14287, Note_on_c, 12, 57, 0
14, 14287, Note_on_c, 12, 54, 80
14, 14296, Control_c, 12, 11, 55
14, 14327, Note_on_c, 12, 54, 0
14, 14327, Note_on_c, 12, 57, 80
14, 14367, Note_on_c, 12, 57, 0
14, 14367, Note_on_c, 12, 54, 80
14, 14370, Control_c, 12, 11, 56
14, 14397, Note_on_c, 12, 54, 0
14, 14407, Note_on_c, 12, 57, 80
14, 14443, Control_c, 12, 11, 57
14, 14447, Note_on_c, 12, 57, 0
14, 14447, Note_on_c, 12, 54, 80
14, 14487, Note_on_c, 12, 54, 0
14, 14487, Note_on_c, 12, 57, 80
14, 14517, Control_c, 12, 11, 58
14, 14527, Note_on_c, 12, 57, 0
14, 14527, Note_on_c, 12, 54, 80
14, 14567, Note_on_c, 12, 54, 0
14, 14567, Note_on_c, 12, 57, 81
14, 14591, Control_c, 12, 11, 59
14, 14607, Note_on_c, 12, 57, 0
14, 14607, Note_on_c, 12, 54, 81
14, 14647, Note_on_c, 12, 54, 0
14, 14647, Note_on_c, 12, 57, 81
14, 14665, Control_c, 12, 11, 60
14, 14687, Note_on_c, 12, 57, 0
14, 14687, Note_on_c, 12, 54, 81
14, 14727, Note_on_c, 12, 54, 0
14, 14727, Note_on_c, 12, 57, 81
14, 14739, Control_c, 12, 11, 61
14, 14767, Note_on_c, 12, 57, 0
14, 14767, Note_on_c, 12, 54, 81
14, 14807, Note_on_c, 12, 54, 0
14, 14807, Note_on_c, 12, 57, 81
14, 14813, Control_c, 12, 11, 62
14, 14847, Note_on_c, 12, 57, 0
14, 14847, Note_on_c, 12, 54, 81
14, 14877, Note_on_c, 12, 54, 0
14, 14887, Control_c, 12, 11, 63
14, 14887, Note_on_c, 12, 57, 82
14, 14927, Note_on_c, 12, 57, 0
14, 14927, Note_on_c, 12, 54, 82
14, 14960, Control_c, 12, 11, 64
14, 14967, Note_on_c, 12, 54, 0
14, 14967, Note_on_c, 12, 57, 82
14, 15007, Note_on_c, 12, 57, 0
14, 15007, Note_on_c, 12, 54, 82
14, 15034, Control_c, 12, 11, 65
14, 15047, Note_on_c, 12, 54, 0
14, 15047, Note_on_c, 12, 57, 82
14, 15087, Note_on_c, 12, 57, 0
14, 15087, Note_on_c, 12, 54, 82
14, 15108, Control_c, 12, 11, 66
14, 15127, Note_on_c, 12, 54, 0
14, 15127, Note_on_c, 12, 57, 82
14, 15167, Note_on_c, 12, 57, 0
14, 15167, Note_on_c, 12, 54, 82
14, 15182, Control_c, 12, 11, 67
14, 15207, Note_on_c, 12, 54, 0
14, 15207, Note_on_c, 12, 57, 83
14, 15247, Note_on_c, 12, 57, 0
14, 15247, Note_on_c, 12, 54, 83
14, 15256, Control_c, 12, 11, 68
14, 15287, Note_on_c, 12, 54, 0
14, 15287, Note_on_c, 12, 57, 83
14, 15327, Note_on_c, 12, 57, 0
14, 15327, Note_on_c, 12, 54, 83
14, 15330, Control_c, 12, 11, 69
14, 15357, Note_on_c, 12, 54, 0
14, 15367, Note_on_c, 12, 57, 83
14, 15403, Control_c, 12, 11, 70
14, 15407, Note_on_c, 12, 57, 0
14, 15407, Note_on_c, 12, 54, 83
14, 15447, Note_on_c, 12, 54, 0
14, 15447, Note_on_c, 12, 57, 83
14, 15477, Control_c, 12, 11, 71
14, 15487, Note_on_c, 12, 57, 0
14, 15487, Note_on_c, 12, 54, 83
14, 15527, Note_on_c, 12, 54, 0
14, 15527, Note_on_c, 12, 57, 84
14, 15551, Control_c, 12, 11, 72
14, 15567, Note_on_c, 12, 57, 0
14, 15567, Note_on_c, 12, 54, 84
14, 15607, Note_on_c, 12, 54, 0
14, 15607, Note_on_c, 12, 57, 84
14, 15625, Control_c, 12, 11, 73
14, 15647, Note_on_c, 12, 57, 0
14, 15647, Note_on_c, 12, 54, 84
14, 15687, Note_on_c, 12, 54, 0
14, 15687, Note_on_c, 12, 57, 84
14, 15699, Control_c, 12, 11, 74
14, 15727, Note_on_c, 12, 57, 0
14, 15727, Note_on_c, 12, 54, 84
14, 15767, Note_on_c, 12, 54, 0
14, 15767, Note_on_c, 12, 57, 84
14, 15773, Control_c, 12, 11, 75
14, 15807, Note_on_c, 12, 57, 0
14, 15807, Note_on_c, 12, 54, 84
14, 15837, Note_on_c, 12, 54, 0
14, 15847, Control_c, 12, 11, 76
14, 15847, Note_on_c, 12, 57, 85
14, 15887, Note_on_c, 12, 57, 0
14, 15887, Note_on_c, 12, 54, 85
14, 15920, Control_c, 12, 11, 77
14, 15927, Note_on_c, 12, 54, 0
14, 15927, Note_on_c, 12, 57, 85
14, 15967, Note_on_c, 12, 57, 0
14, 15967, Note_on_c, 12, 54, 85
14, 15994, Control_c, 12, 11, 78
14, 16007, Note_on_c, 12, 54, 0
14, 16007, Note_on_c, 12, 57, 85
14, 16047, Note_on_c, 12, 57, 0
14, 16047, Note_on_c, 12, 54, 85
14, 16068, Control_c, 12, 11, 79
14, 16087, Note_on_c, 12, 54, 0
14, 16087, Note_on_c, 12, 57, 85
14, 16127, Note_on_c, 12, 57, 0
14, 16127, Note_on_c, 12, 54, 85
14, 16142, Control_c, 12, 11, 80
14, 16167, Note_on_c, 12, 54, 0
14, 16167, Note_on_c, 12, 57, 85
14, 16207, Note_on_c, 12, 57, 0
14, 16207, Note_on_c, 12, 54, 85
14, 16216, Control_c, 12, 11, 81
14, 16247, Note_on_c, 12, 54, 0
14, 16247, Note_on_c, 12, 57, 85
14, 16287, Note_on_c, 12, 57, 0
14, 16287, Note_on_c, 12, 54, 85
14, 16290, Control_c, 12, 11, 82
14, 16317, Note_on_c, 12, 54, 0
14, 16327, Note_on_c, 12, 57, 85
14, 16363, Control_c, 12, 11, 83
14, 16367, Note_on_c, 12, 57, 0
14, 16367, Note_on_c, 12, 54, 85
14, 16407, Note_on_c, 12, 54, 0
14, 16407, Note_on_c, 12, 57, 85
14, 16437, Control_c, 12, 11, 84
14, 16447, Note_on_c, 12, 57, 0
14, 16447, Note_on_c, 12, 54, 85
14, 16487, Note_on_c, 12, 54, 0
14, 16487, Note_on_c, 12, 57, 85
14, 16511, Control_c, 12, 11, 85
14, 16527, Note_on_c, 12, 57, 0
14, 16527, Note_on_c, 12, 54, 85
14, 16567, Note_on_c, 12, 54, 0
14, 16567, Note_on_c, 12, 57, 85
14, 16585, Control_c, 12, 11, 86
14, 16607, Note_on_c, 12, 57, 0
14, 16607, Note_on_c, 12, 54, 85
14, 16647, Note_on_c, 12, 54, 0
14, 16647, Note_on_c, 12, 57, 85
14, 16659, Control_c, 12, 11, 87
14, 16687, Note_on_c, 12, 57, 0
14, 16687, Note_on_c, 12, 54, 85
14, 16727, Note_on_c, 12, 54, 0
14, 16727, Note_on_c, 12, 57, 85
14, 16733, Control_c, 12, 11, 88
14, 16767, Note_on_c, 12, 57, 0
14, 16767, Note_on_c, 12, 54, 85
14, 16797, Note_on_c, 12, 54, 0
14, 16807, Control_c, 12, 11, 89
14, 16807, Note_on_c, 12, 55, 85
14, 16847, Note_on_c, 12, 55, 0
14, 16847, Note_on_c, 12, 52, 85
14, 16880, Control_c, 12, 11, 90
14, 16887, Note_on_c, 12, 52, 0
14, 16887, Note_on_c, 12, 55, 86
14, 16927, Note_on_c, 12, 55, 0
14, 16927, Note_on_c, 12, 52, 86
14, 16954, Control_c, 12, 11, 91
14, 16967, Note_on_c, 12, 52, 0
14, 16967, Note_on_c, 12, 55, 87
14, 17007, Note_on_c, 12, 55, 0
14, 17007, Note_on_c, 12, 52, 88
14, 17028, Control_c, 12, 11, 92
14, 17047, Note_on_c, 12, 52, 0
14, 17047, Note_on_c, 12, 55, 88
14, 17087, Note_on_c, 12, 55, 0
14, 17087, Note_on_c, 12, 52, 89
14, 17102, Control_c, 12, 11, 93
14, 17127, Note_on_c, 12, 52, 0
14, 17127, Note_on_c, 12, 55, 90
14, 17167, Note_on_c, 12, 55, 0
14, 17167, Note_on_c, 12, 52, 90
14, 17176, Control_c, 12, 11, 94
14, 17207, Note_on_c, 12, 52, 0
14, 17207, Note_on_c, 12, 55, 91
14, 17247, Note_on_c, 12, 55, 0
14, 17247, Note_on_c, 12, 52, 91
14, 17250, Control_c, 12, 11, 95
14, 17277, Note_on_c, 12, 52, 0
14, 17287, Note_on_c, 12, 55, 92
14, 17323, Control_c, 12, 11, 96
14, 17327, Note_on_c, 12, 55, 0
14, 17327, Note_on_c, 12, 52, 93
14, 17367, Note_on_c, 12, 52, 0
14, 17367, Note_on_c, 12, 55, 93
14, 17397, Control_c, 12, 11, 97
14, 17407, Note_on_c, 12, 55, 0
14, 17407, Note_on_c, 12, 52, 94
14, 17447, Note_on_c, 12, 52, 0
14, 17447, Note_on_c, 12, 55, 95
14, 17471, Control_c, 12, 11, 98
14, 17487, Note_on_c, 12, 55, 0
14, 17487, Note_on_c, 12, 52, 95
14, 17527, Note_on_c, 12, 52, 0
14, 17527, Note_on_c, 12, 55, 96
14, 17545, Control_c, 12, 11, 99
14, 17567, Note_on_c, 12, 55, 0
14, 17567, Note_on_c, 12, 52, 96
14, 17607, Note_on_c, 12, 52, 0
14, 17607, Note_on_c, 12, 55, 97
14, 17619, Control_c, 12, 11, 100
14, 17647, Note_on_c, 12, 55, 0
14, 17647, Note_on_c, 12, 52, 98
14, 17687, Note_on_c, 12, 52, 0
14, 17687, Note_on_c, 12, 55, 98
14, 17693, Control_c, 12, 11, 101
14, 17727, Note_on_c, 12, 55, 0
14, 17727, Note_on_c, 12, 52, 99
14, 17757, Note_on_c, 12, 52, 0
14, 17767, Control_c, 12, 11, 102
14, 17767, Note_on_c, 12, 59, 100
14, 17827, Note_on_c, 12, 59, 0
14, 17887, Note_on_c, 12, 59, 100
14, 17947, Note_on_c, 12, 59, 0
14, 18007, Note_on_c, 12, 59, 100
14, 18067, Note_on_c, 12, 59, 0
14, 18127, Note_on_c, 12, 59, 100
14, 18187, Note_on_c, 12, 59, 0
14, 18247, Note_on_c, 12, 59, 100
14, 18307, Note_on_c, 12, 59, 0
14, 18367, Note_on_c, 12, 59, 100
14, 18427, Note_on_c, 12, 59, 0
14, 18487, Note_on_c, 12, 59, 100
14, 18547, Note_on_c, 12, 59, 0
14, 18607, Note_on_c, 12, 59, 100
14, 18667, Note_on_c, 12, 59, 0
14, 18727, Control_c, 12, 11, 47
14, 18727, Note_on_c, 12, 59, 100
14, 18787, Note_on_c, 12, 59, 0
14, 20047, Note_on_c, 12, 54, 85
14, 20207, Note_on_c, 12, 54, 0
14, 20207, Note_on_c, 12, 56, 85
14, 20247, Note_on_c, 12, 56, 0
14, 20247, Note_on_c, 12, 54, 85
14, 20287, Note_on_c, 12, 54, 0
14, 20287, Note_on_c, 12, 53, 85
14, 20327, Note_on_c, 12, 53, 0
14, 20327, Note_on_c, 12, 54, 85
14, 20367, Note_on_c, 12, 54, 0
14, 20367, Note_on_c, 12, 53, 85
14, 20407, Note_on_c, 12, 53, 0
14, 20407, Note_on_c, 12, 54, 85
14, 20447, Note_on_c, 12, 54, 0
14, 20447, Note_on_c, 12, 56, 85
14, 20487, Note_on_c, 12, 56, 0
14, 20487, Note_on_c, 12, 54, 85
14, 20527, Note_on_c, 12, 54, 0
14, 20527, Note_on_c, 12, 52, 85
14, 20567, Note_on_c, 12, 52, 0
14, 20567, Note_on_c, 12, 54, 85
14, 20607, Note_on_c, 12, 54, 0
14, 20607, Note_on_c, 12, 52, 85
14, 20647, Note_on_c, 12, 52, 0
14, 20647, Note_on_c, 12, 51, 85
14, 20767, Note_on_c, 12, 51, 0
14, 21487, Note_on_c, 12, 59, 85
14, 21647, Note_on_c, 12, 59, 0
14, 21647, Note_on_c, 12, 61, 85
14, 21687, Note_on_c, 12, 61, 0
14, 21687, Note_on_c, 12, 59, 85
14, 21727, Note_on_c, 12, 59, 0
14, 21727, Note_on_c, 12, 58, 85
14, 21767, Note_on_c, 12, 58, 0
14, 21767, Note_on_c, 12, 59, 85
14, 21807, Note_on_c, 12, 59, 0
14, 21807, Note_on_c, 12, 58, 85
14, 21847, Note_on_c, 12, 58, 0
14, 21847, Note_on_c, 12, 59, 85
14, 21887, Note_on_c, 12, 59, 0
14, 21887, Note_on_c, 12, 61, 85
14, 21927, Note_on_c, 12, 61, 0
14, 21927, Note_on_c, 12, 59, 85
14, 21967, Note_on_c, 12, 59, 0
14, 21967, Note_on_c, 12, 58, 85
14, 22007, Note_on_c, 12, 58, 0
14, 22007, Note_on_c, 12, 59, 85
14, 22047, Note_on_c, 12, 59, 0
14, 22047, Note_on_c, 12, 58, 85
14, 22087, Note_on_c, 12, 58, 0
14, 22087, Note_on_c, 12, 59, 76
14, 22207, Note_on_c, 12, 59, 0
14, 26407, Control_c, 12, 11, 37
14, 26407, Note_on_c, 12, 56, 100
14, 26423, Control_c, 12, 11, 39
14, 26439, Control_c, 12, 11, 41
14, 26455, Control_c, 12, 11, 43
14, 26471, Control_c, 12, 11, 45
14, 26487, Control_c, 12, 11, 47
14, 26503, Control_c, 12, 11, 49
14, 26519, Control_c, 12, 11, 51
14, 27352, Note_on_c, 12, 56, 0
14, 27367, Note_on_c, 12, 57, 100
14, 27487, Note_on_c, 12, 57, 0
14, 27487, Note_on_c, 12, 51, 100
14, 27727, Note_on_c, 12, 51, 0
14, 27727, Note_on_c, 12, 52, 100
14, 27787, Note_on_c, 12, 52, 0
14, 27787, Note_on_c, 12, 54, 100
14, 27847, Note_on_c, 12, 54, 0
14, 27847, Note_on_c, 12, 56, 100
14, 28312, Note_on_c, 12, 56, 0
14, 28327, Note_on_c, 12, 57, 100
14, 28447, Note_on_c, 12, 57, 0
14, 28447, Note_on_c, 12, 51, 100
14, 28687, Note_on_c, 12, 51, 0
14, 28687, Note_on_c, 12, 52, 100
14, 28747, Note_on_c, 12, 52, 0
14, 28747, Note_on_c, 12, 54, 100
14, 28807, Note_on_c, 12, 54, 0
14, 28807, Note_on_c, 12, 56, 100
14, 29272, Note_on_c, 12, 56, 0
14, 29287, Control_c, 12, 11, 47
14, 29287, Note_on_c, 12, 57, 100
14, 29323, Control_c, 12, 11, 48
14, 29359, Control_c, 12, 11, 49
14, 29395, Control_c, 12, 11, 50
14, 29407, Note_on_c, 12, 57, 0
14, 29407, Note_on_c, 12, 51, 100
14, 29431, Control_c, 12, 11, 51
14, 29467, Control_c, 12, 11, 52
14, 29503, Control_c, 12, 11, 53
14, 29539, Control_c, 12, 11, 54
14, 29575, Control_c, 12, 11, 55
14, 29611, Control_c, 12, 11, 56
14, 29647, Note_on_c, 12, 51, 0
14, 29647, Control_c, 12, 11, 57
14, 29647, Note_on_c, 12, 52, 100
14, 29683, Control_c, 12, 11, 58
14, 29707, Note_on_c, 12, 52, 0
14, 29707, Note_on_c, 12, 54, 100
14, 29719, Control_c, 12, 11, 59
14, 29752, Note_on_c, 12, 54, 0
14, 29755, Control_c, 12, 11, 60
14, 29767, Note_on_c, 12, 56, 100
14, 29791, Control_c, 12, 11, 61
14, 29827, Control_c, 12, 11, 62
14, 29863, Control_c, 12, 11, 63
14, 29899, Control_c, 12, 11, 64
14, 29935, Control_c, 12, 11, 65
14, 29971, Control_c, 12, 11, 66
14, 30007, Control_c, 12, 11, 67
14, 30043, Control_c, 12, 11, 68
14, 30079, Control_c, 12, 11, 69
14, 30115, Control_c, 12, 11, 70
14, 30151, Control_c, 12, 11, 71
14, 30187, Control_c, 12, 11, 72
14, 30223, Control_c, 12, 11, 73
14, 30232, Note_on_c, 12, 56, 0
14, 30247, Note_on_c, 12, 57, 100
14, 30259, Control_c, 12, 11, 74
14, 30295, Control_c, 12, 11, 75
14, 30331, Control_c, 12, 11, 76
14, 30367, Note_on_c, 12, 57, 0
14, 30367, Control_c, 12, 11, 77
14, 30367, Note_on_c, 12, 51, 100
14, 30403, Control_c, 12, 11, 78
14, 30439, Control_c, 12, 11, 79
14, 30475, Control_c, 12, 11, 80
14, 30511, Control_c, 12, 11, 81
14, 30547, Control_c, 12, 11, 82
14, 30583, Control_c, 12, 11, 83
14, 30607, Note_on_c, 12, 51, 0
14, 30607, Note_on_c, 12, 52, 100
14, 30619, Control_c, 12, 11, 84
14, 30655, Control_c, 12, 11, 85
14, 30667, Note_on_c, 12, 52, 0
14, 30667, Note_on_c, 12, 54, 100
14, 30691, Control_c, 12, 11, 86
14, 30712, Note_on_c, 12, 54, 0
14, 30727, Control_c, 12, 11, 87
14, 30727, Note_on_c, 12, 56, 100
14, 30827, Note_on_c, 12, 56, 0
14, 30847, Note_on_c, 12, 56, 100
14, 31052, Note_on_c, 12, 56, 0
14, 31087, Note_on_c, 12, 56, 100
14, 31117, Note_on_c, 12, 56, 0
14, 31147, Note_on_c, 12, 56, 100
14, 31177, Note_on_c, 12, 56, 0
14, 31207, Note_on_c, 12, 57, 100
14, 31237, Note_on_c, 12, 57, 0
14, 31267, Note_on_c, 12, 57, 100
14, 31297, Note_on_c, 12, 57, 0
14, 31327, Note_on_c, 12, 57, 100
14, 31532, Note_on_c, 12, 57, 0
14, 31567, Note_on_c, 12, 61, 100
14, 31567, Note_on_c, 12, 57, 100
14, 31597, Note_on_c, 12, 57, 0
14, 31597, Note_on_c, 12, 61, 0
14, 31627, Note_on_c, 12, 59, 100
14, 31627, Note_on_c, 12, 56, 100
14, 31657, Note_on_c, 12, 56, 0
14, 31657, Note_on_c, 12, 59, 0
14, 31687, Note_on_c, 12, 56, 100
14, 31687, Note_on_c, 12, 59, 100
14, 31717, Note_on_c, 12, 59, 0
14, 31717, Note_on_c, 12, 56, 0
14, 31747, Note_on_c, 12, 54, 100
14, 31747, Note_on_c, 12, 57, 100
14, 31777, Note_on_c, 12, 57, 0
14, 31777, Note_on_c, 12, 54, 0
14, 31807, Note_on_c, 12, 66, 100
14, 32012, Note_on_c, 12, 66, 0
14, 32047, Note_on_c, 12, 66, 100
14, 32077, Note_on_c, 12, 66, 0
14, 32107, Note_on_c, 12, 64, 100
14, 32137, Note_on_c, 12, 64, 0
14, 32167, Note_on_c, 12, 64, 100
14, 32212, Note_on_c, 12, 64, 0
14, 32227, Note_on_c, 12, 63, 100
14, 32272, Note_on_c, 12, 63, 0
14, 32287, Note_on_c, 12, 61, 100
14, 32332, Note_on_c, 12, 61, 0
14, 32347, Note_on_c, 12, 59, 100
14, 32392, Note_on_c, 12, 59, 0
14, 32407, Note_on_c, 12, 59, 100
14, 32452, Note_on_c, 12, 59, 0
14, 32467, Note_on_c, 12, 57, 100
14, 32512, Note_on_c, 12, 57, 0
14, 32527, Note_on_c, 12, 56, 100
14, 32572, Note_on_c, 12, 56, 0
14, 32587, Note_on_c, 12, 54, 100
14, 32632, Note_on_c, 12, 54, 0
14, 32647, Note_on_c, 12, 56, 100
14, 32692, Note_on_c, 12, 56, 0
14, 32707, Note_on_c, 12, 56, 100
14, 32752, Note_on_c, 12, 56, 0
14, 32767, Note_on_c, 12, 56, 100
14, 32812, Note_on_c, 12, 56, 0
14, 32827, Note_on_c, 12, 56, 100
14, 32872, Note_on_c, 12, 56, 0
14, 32887, Note_on_c, 12, 56, 100
14, 32932, Note_on_c, 12, 56, 0
14, 32947, Note_on_c, 12, 56, 100
14, 32992, Note_on_c, 12, 56, 0
14, 33007, Note_on_c, 12, 56, 100
14, 33052, Note_on_c, 12, 56, 0
14, 33067, Note_on_c, 12, 56, 100
14, 33112, Note_on_c, 12, 56, 0
14, 33127, Note_on_c, 12, 57, 100
14, 33172, Note_on_c, 12, 57, 0
14, 33187, Note_on_c, 12, 57, 100
14, 33232, Note_on_c, 12, 57, 0
14, 33247, Note_on_c, 12, 57, 100
14, 33292, Note_on_c, 12, 57, 0
14, 33307, Note_on_c, 12, 57, 100
14, 33352, Note_on_c, 12, 57, 0
14, 33367, Note_on_c, 12, 57, 100
14, 33412, Note_on_c, 12, 57, 0
14, 33427, Note_on_c, 12, 57, 100
14, 33472, Note_on_c, 12, 57, 0
14, 33487, Note_on_c, 12, 57, 100
14, 33532, Note_on_c, 12, 57, 0
14, 33547, Note_on_c, 12, 59, 100
14, 33592, Note_on_c, 12, 59, 0
14, 33607, Note_on_c, 12, 61, 100
14, 33652, Note_on_c, 12, 61, 0
14, 33667, Note_on_c, 12, 61, 100
14, 33712, Note_on_c, 12, 61, 0
14, 33727, Note_on_c, 12, 61, 100
14, 33772, Note_on_c, 12, 61, 0
14, 33787, Note_on_c, 12, 61, 100
14, 33832, Note_on_c, 12, 61, 0
14, 33847, Note_on_c, 12, 63, 100
14, 33892, Note_on_c, 12, 63, 0
14, 33907, Note_on_c, 12, 63, 100
14, 33952, Note_on_c, 12, 63, 0
14, 33967, Note_on_c, 12, 63, 100
14, 34012, Note_on_c, 12, 63, 0
14, 34027, Note_on_c, 12, 64, 100
14, 34072, Note_on_c, 12, 64, 0
14, 34087, Note_on_c, 12, 64, 100
14, 34132, Note_on_c, 12, 64, 0
14, 34147, Note_on_c, 12, 63, 100
14, 34192, Note_on_c, 12, 63, 0
14, 34207, Note_on_c, 12, 61, 100
14, 34252, Note_on_c, 12, 61, 0
14, 34267, Note_on_c, 12, 59, 100
14, 34312, Note_on_c, 12, 59, 0
14, 34327, Note_on_c, 12, 59, 100
14, 34372, Note_on_c, 12, 59, 0
14, 34387, Note_on_c, 12, 57, 100
14, 34432, Note_on_c, 12, 57, 0
14, 34447, Note_on_c, 12, 56, 100
14, 34492, Note_on_c, 12, 56, 0
14, 34507, Note_on_c, 12, 54, 100
14, 34552, Note_on_c, 12, 54, 0
14, 34567, Note_on_c, 12, 52, 100
14, 34687, Note_on_c, 12, 52, 0
14, 34807, Note_on_c, 12, 64, 100
14, 34927, Note_on_c, 12, 64, 0
14, 35047, Note_on_c, 12, 64, 100
14, 35167, Note_on_c, 12, 64, 0
14, 35287, Note_on_c, 12, 64, 100
14, 35407, Note_on_c, 12, 64, 0
14, 35527, Control_c, 12, 11, 107
14, 35527, Note_on_c, 12, 57, 100
14, 35527, Note_on_c, 12, 54, 100
14, 35544, Control_c, 12, 11, 104
14, 35562, Control_c, 12, 11, 101
14, 35577, Note_on_c, 12, 54, 0
14, 35577, Note_on_c, 12, 57, 0
14, 35580, Control_c, 12, 11, 98
14, 35587, Note_on_c, 12, 54, 100
14, 35587, Note_on_c, 12, 57, 100
14, 35598, Control_c, 12, 11, 95
14, 35616, Control_c, 12, 11, 92
14, 35634, Control_c, 12, 11, 89
14, 35637, Note_on_c, 12, 57, 0
14, 35637, Note_on_c, 12, 54, 0
14, 35647, Note_on_c, 12, 57, 100
14, 35647, Note_on_c, 12, 54, 100
14, 35697, Note_on_c, 12, 54, 0
14, 35697, Note_on_c, 12, 57, 0
14, 35707, Note_on_c, 12, 54, 100
14, 35707, Note_on_c, 12, 57, 100
14, 35757, Note_on_c, 12, 57, 0
14, 35757, Note_on_c, 12, 54, 0
14, 35767, Note_on_c, 12, 54, 100
14, 35767, Note_on_c, 12, 57, 100
14, 35817, Note_on_c, 12, 57, 0
14, 35817, Note_on_c, 12, 54, 0
14, 35827, Note_on_c, 12, 57, 100
14, 35827, Note_on_c, 12, 54, 100
14, 35877, Note_on_c, 12, 54, 0
14, 35877, Note_on_c, 12, 57, 0
14, 35887, Note_on_c, 12, 54, 100
14, 35887, Note_on_c, 12, 57, 100
14, 35937, Note_on_c, 12, 57, 0
14, 35937, Note_on_c, 12, 54, 0
14, 35947, Note_on_c, 12, 57, 100
14, 35947, Note_on_c, 12, 54, 100
14, 35997, Note_on_c, 12, 54, 0
14, 35997, Note_on_c, 12, 57, 0
14, 36007, Note_on_c, 12, 57, 100
14, 36007, Note_on_c, 12, 54, 100
14, 36057, Note_on_c, 12, 54, 0
14, 36057, Note_on_c, 12, 57, 0
14, 36067, Note_on_c, 12, 57, 100
14, 36067, Note_on_c, 12, 54, 100
14, 36117, Note_on_c, 12, 54, 0
14, 36117, Note_on_c, 12, 57, 0
14, 36127, Note_on_c, 12, 57, 100
14, 36127, Note_on_c, 12, 54, 100
14, 36177, Note_on_c, 12, 54, 0
14, 36177, Note_on_c, 12, 57, 0
14, 36187, Note_on_c, 12, 54, 100
14, 36187, Note_on_c, 12, 57, 100
14, 36237, Note_on_c, 12, 57, 0
14, 36237, Note_on_c, 12, 54, 0
14, 36247, Note_on_c, 12, 57, 100
14, 36247, Note_on_c, 12, 54, 100
14, 36297, Note_on_c, 12, 54, 0
14, 36297, Note_on_c, 12, 57, 0
14, 36307, Note_on_c, 12, 57, 100
14, 36307, Note_on_c, 12, 54, 100
14, 36357, Note_on_c, 12, 54, 0
14, 36357, Note_on_c, 12, 57, 0
14, 36367, Note_on_c, 12, 57, 100
14, 36367, Note_on_c, 12, 54, 100
14, 36417, Note_on_c, 12, 54, 0
14, 36417, Note_on_c, 12, 57, 0
14, 36427, Note_on_c, 12, 54, 100
14, 36427, Note_on_c, 12, 57, 100
14, 36477, Note_on_c, 12, 57, 0
14, 36477, Note_on_c, 12, 54, 0
14, 36487, Note_on_c, 12, 56, 100
14, 36607, Note_on_c, 12, 56, 0
14, 36727, Note_on_c, 12, 56, 100
14, 36847, Note_on_c, 12, 56, 0
14, 36967, Note_on_c, 12, 56, 100
14, 37087, Note_on_c, 12, 56, 0
14, 37207, Note_on_c, 12, 56, 100
14, 37327, Note_on_c, 12, 56, 0
14, 37447, Control_c, 12, 11, 107
14, 37447, Note_on_c, 12, 54, 100
14, 37447, Note_on_c, 12, 57, 100
14, 37464, Control_c, 12, 11, 104
14, 37482, Control_c, 12, 11, 101
14, 37497, Note_on_c, 12, 57, 0
14, 37497, Note_on_c, 12, 54, 0
14, 37500, Control_c, 12, 11, 98
14, 37507, Note_on_c, 12, 54, 100
14, 37507, Note_on_c, 12, 57, 100
14, 37518, Control_c, 12, 11, 95
14, 37536, Control_c, 12, 11, 92
14, 37554, Control_c, 12, 11, 89
14, 37557, Note_on_c, 12, 57, 0
14, 37557, Note_on_c, 12, 54, 0
14, 37567, Note_on_c, 12, 54, 100
14, 37567, Note_on_c, 12, 57, 100
14, 37617, Note_on_c, 12, 57, 0
14, 37617, Note_on_c, 12, 54, 0
14, 37627, Note_on_c, 12, 57, 100
14, 37627, Note_on_c, 12, 54, 100
14, 37677, Note_on_c, 12, 54, 0
14, 37677, Note_on_c, 12, 57, 0
14, 37687, Note_on_c, 12, 54, 100
14, 37687, Note_on_c, 12, 57, 100
14, 37737, Note_on_c, 12, 57, 0
14, 37737, Note_on_c, 12, 54, 0
14, 37747, Note_on_c, 12, 57, 100
14, 37747, Note_on_c, 12, 54, 100
14, 37797, Note_on_c, 12, 54, 0
14, 37797, Note_on_c, 12, 57, 0
14, 37807, Note_on_c, 12, 54, 100
14, 37807, Note_on_c, 12, 57, 100
14, 37857, Note_on_c, 12, 57, 0
14, 37857, Note_on_c, 12, 54, 0
14, 37867, Note_on_c, 12, 54, 100
14, 37867, Note_on_c, 12, 57, 100
14, 37917, Note_on_c, 12, 57, 0
14, 37917, Note_on_c, 12, 54, 0
14, 37927, Note_on_c, 12, 57, 100
14, 37927, Note_on_c, 12, 54, 100
14, 37977, Note_on_c, 12, 54, 0
14, 37977, Note_on_c, 12, 57, 0
14, 37987, Note_on_c, 12, 54, 100
14, 37987, Note_on_c, 12, 57, 100
14, 38037, Note_on_c, 12, 57, 0
14, 38037, Note_on_c, 12, 54, 0
14, 38047, Note_on_c, 12, 57, 100
14, 38047, Note_on_c, 12, 54, 100
14, 38097, Note_on_c, 12, 54, 0
14, 38097, Note_on_c, 12, 57, 0
14, 38107, Note_on_c, 12, 57, 100
14, 38107, Note_on_c, 12, 54, 100
14, 38157, Note_on_c, 12, 54, 0
14, 38157, Note_on_c, 12, 57, 0
14, 38167, Note_on_c, 12, 57, 100
14, 38167, Note_on_c, 12, 54, 100
14, 38217, Note_on_c, 12, 54, 0
14, 38217, Note_on_c, 12, 57, 0
14, 38227, Note_on_c, 12, 54, 100
14, 38227, Note_on_c, 12, 57, 100
14, 38277, Note_on_c, 12, 57, 0
14, 38277, Note_on_c, 12, 54, 0
14, 38287, Note_on_c, 12, 57, 100
14, 38287, Note_on_c, 12, 54, 100
14, 38337, Note_on_c, 12, 54, 0
14, 38337, Note_on_c, 12, 57, 0
14, 38347, Note_on_c, 12, 54, 100
14, 38347, Note_on_c, 12, 57, 100
14, 38397, Note_on_c, 12, 57, 0
14, 38397, Note_on_c, 12, 54, 0
14, 38407, Note_on_c, 12, 56, 100
14, 38457, Note_on_c, 12, 56, 0
14, 38467, Note_on_c, 12, 56, 100
14, 38517, Note_on_c, 12, 56, 0
14, 38527, Note_on_c, 12, 56, 100
14, 38577, Note_on_c, 12, 56, 0
14, 38587, Note_on_c, 12, 56, 100
14, 38637, Note_on_c, 12, 56, 0
14, 38647, Note_on_c, 12, 56, 100
14, 38697, Note_on_c, 12, 56, 0
14, 38707, Note_on_c, 12, 56, 100
14, 38757, Note_on_c, 12, 56, 0
14, 38767, Note_on_c, 12, 56, 100
14, 38817, Note_on_c, 12, 56, 0
14, 38827, Note_on_c, 12, 56, 100
14, 38877, Note_on_c, 12, 56, 0
14, 38887, Control_c, 12, 11, 107
14, 38887, Note_on_c, 12, 56, 100
14, 38904, Control_c, 12, 11, 104
14, 38922, Control_c, 12, 11, 101
14, 38937, Note_on_c, 12, 56, 0
14, 38940, Control_c, 12, 11, 98
14, 38947, Note_on_c, 12, 56, 100
14, 38958, Control_c, 12, 11, 95
14, 38976, Control_c, 12, 11, 92
14, 38994, Control_c, 12, 11, 89
14, 38997, Note_on_c, 12, 56, 0
14, 39007, Note_on_c, 12, 56, 100
14, 39057, Note_on_c, 12, 56, 0
14, 39067, Note_on_c, 12, 56, 100
14, 39117, Note_on_c, 12, 56, 0
14, 39127, Note_on_c, 12, 56, 100
14, 39157, Note_on_c, 12, 56, 0
14, 39187, Note_on_c, 12, 52, 100
14, 39217, Note_on_c, 12, 52, 0
14, 39247, Note_on_c, 12, 61, 100
14, 39277, Note_on_c, 12, 61, 0
14, 39307, Note_on_c, 12, 59, 100
14, 39337, Note_on_c, 12, 59, 0
14, 39367, Note_on_c, 12, 58, 90
14, 39487, Note_on_c, 12, 58, 0
14, 39967, Control_c, 12, 11, 47
14, 39967, Note_on_c, 12, 59, 100
14, 40027, Note_on_c, 12, 59, 0
14, 40027, Note_on_c, 12, 61, 100
14, 40087, Note_on_c, 12, 61, 0
14, 40087, Note_on_c, 12, 63, 100
14, 40147, Note_on_c, 12, 63, 0
14, 40207, Note_on_c, 12, 63, 100
14, 40267, Note_on_c, 12, 63, 0
14, 40267, Note_on_c, 12, 64, 100
14, 40327, Note_on_c, 12, 64, 0
14, 40327, Note_on_c, 12, 61, 100
14, 40387, Note_on_c, 12, 61, 0
14, 40927, Note_on_c, 12, 66, 100
14, 40987, Note_on_c, 12, 66, 0
14, 40987, Note_on_c, 12, 64, 100
14, 41047, Note_on_c, 12, 64, 0
14, 41047, Note_on_c, 12, 63, 100
14, 41107, Note_on_c, 12, 63, 0
14, 41167, Note_on_c, 12, 63, 100
14, 41227, Note_on_c, 12, 63, 0
14, 41227, Note_on_c, 12, 59, 100
14, 41287, Note_on_c, 12, 59, 0
14, 41287, Note_on_c, 12, 66, 90
14, 41347, Note_on_c, 12, 66, 0
14, 41887, Note_on_c, 12, 59, 100
14, 41947, Note_on_c, 12, 59, 0
14, 41947, Note_on_c, 12, 61, 100
14, 42007, Note_on_c, 12, 61, 0
14, 42007, Note_on_c, 12, 63, 100
14, 42067, Note_on_c, 12, 63, 0
14, 42127, Note_on_c, 12, 63, 100
14, 42187, Note_on_c, 12, 63, 0
14, 42187, Note_on_c, 12, 64, 100
14, 42247, Note_on_c, 12, 64, 0
14, 42247, Note_on_c, 12, 61, 100
14, 42307, Note_on_c, 12, 61, 0
14, 42847, Note_on_c, 12, 66, 100
14, 42907, Note_on_c, 12, 66, 0
14, 42907, Note_on_c, 12, 64, 100
14, 42967, Note_on_c, 12, 64, 0
14, 42967, Note_on_c, 12, 63, 100
14, 43027, Note_on_c, 12, 63, 0
14, 43087, Note_on_c, 12, 63, 100
14, 43147, Note_on_c, 12, 63, 0
14, 43147, Note_on_c, 12, 59, 100
14, 43207, Note_on_c, 12, 59, 0
14, 43207, Note_on_c, 12, 66, 90
14, 43267, Note_on_c, 12, 66, 0
14, 43807, Control_c, 12, 11, 47
14, 43807, Note_on_c, 12, 68, 100
14, 43852, Note_on_c, 12, 68, 0
14, 43867, Note_on_c, 12, 68, 100
14, 43912, Note_on_c, 12, 68, 0
14, 43927, Note_on_c, 12, 68, 100
14, 44032, Note_on_c, 12, 68, 0
14, 44047, Note_on_c, 12, 68, 100
14, 44092, Note_on_c, 12, 68, 0
14, 44107, Note_on_c, 12, 68, 100
14, 44152, Note_on_c, 12, 68, 0
14, 44167, Note_on_c, 12, 68, 100
14, 44287, Note_on_c, 12, 68, 0
14, 44767, Note_on_c, 12, 59, 100
14, 44812, Note_on_c, 12, 59, 0
14, 44827, Note_on_c, 12, 59, 100
14, 44872, Note_on_c, 12, 59, 0
14, 44887, Note_on_c, 12, 59, 100
14, 44992, Note_on_c, 12, 59, 0
14, 45007, Note_on_c, 12, 59, 100
14, 45052, Note_on_c, 12, 59, 0
14, 45067, Note_on_c, 12, 59, 100
14, 45112, Note_on_c, 12, 59, 0
14, 45127, Control_c, 12, 11, 47
14, 45127, Note_on_c, 12, 59, 100
14, 45151, Control_c, 12, 11, 48
14, 45175, Control_c, 12, 11, 49
14, 45199, Control_c, 12, 11, 50
14, 45223, Control_c, 12, 11, 51
14, 45232, Note_on_c, 12, 59, 0
14, 45247, Control_c, 12, 11, 52
14, 45247, Note_on_c, 12, 59, 100
14, 45271, Control_c, 12, 11, 53
14, 45292, Note_on_c, 12, 59, 0
14, 45295, Control_c, 12, 11, 54
14, 45307, Note_on_c, 12, 59, 100
14, 45319, Control_c, 12, 11, 55
14, 45343, Control_c, 12, 11, 56
14, 45352, Note_on_c, 12, 59, 0
14, 45367, Control_c, 12, 11, 57
14, 45367, Note_on_c, 12, 59, 100
14, 45391, Control_c, 12, 11, 58
14, 45415, Control_c, 12, 11, 59
14, 45439, Control_c, 12, 11, 60
14, 45463, Control_c, 12, 11, 61
14, 45472, Note_on_c, 12, 59, 0
14, 45487, Control_c, 12, 11, 62
14, 45487, Note_on_c, 12, 59, 100
14, 45511, Control_c, 12, 11, 63
14, 45532, Note_on_c, 12, 59, 0
14, 45535, Control_c, 12, 11, 64
14, 45547, Note_on_c, 12, 59, 100
14, 45559, Control_c, 12, 11, 65
14, 45583, Control_c, 12, 11, 66
14, 45592, Note_on_c, 12, 59, 0
14, 45607, Control_c, 12, 11, 67
14, 45607, Note_on_c, 12, 59, 100
14, 45631, Control_c, 12, 11, 68
14, 45655, Control_c, 12, 11, 69
14, 45679, Control_c, 12, 11, 70
14, 45703, Control_c, 12, 11, 71
14, 45712, Note_on_c, 12, 59, 0
14, 45727, Control_c, 12, 11, 72
14, 45727, Note_on_c, 12, 59, 100
14, 45751, Control_c, 12, 11, 73
14, 45772, Note_on_c, 12, 59, 0
14, 45775, Control_c, 12, 11, 74
14, 45787, Note_on_c, 12, 59, 100
14, 45799, Control_c, 12, 11, 75
14, 45823, Control_c, 12, 11, 76
14, 45832, Note_on_c, 12, 59, 0
14, 45847, Control_c, 12, 11, 77
14, 45847, Note_on_c, 12, 59, 100
14, 45871, Control_c, 12, 11, 78
14, 45895, Control_c, 12, 11, 79
14, 45919, Control_c, 12, 11, 80
14, 45943, Control_c, 12, 11, 81
14, 45952, Note_on_c, 12, 59, 0
14, 45967, Control_c, 12, 11, 82
14, 45967, Note_on_c, 12, 59, 100
14, 45991, Control_c, 12, 11, 83
14, 46012, Note_on_c, 12, 59, 0
14, 46015, Control_c, 12, 11, 84
14, 46027, Note_on_c, 12, 59, 100
14, 46039, Control_c, 12, 11, 85
14, 46063, Control_c, 12, 11, 86
14, 46072, Note_on_c, 12, 59, 0
14, 46087, Control_c, 12, 11, 87
14, 46087, Note_on_c, 12, 64, 100
14, 46192, Note_on_c, 12, 64, 0
14, 46207, Note_on_c, 12, 59, 100
14, 46247, Note_on_c, 12, 59, 0
14, 46267, Note_on_c, 12, 59, 100
14, 46307, Note_on_c, 12, 59, 0
14, 46327, Note_on_c, 12, 64, 100
14, 46427, Note_on_c, 12, 64, 0
14, 46447, Note_on_c, 12, 59, 100
14, 46487, Note_on_c, 12, 59, 0
14, 46507, Note_on_c, 12, 59, 100
14, 46547, Note_on_c, 12, 59, 0
14, 46567, Note_on_c, 12, 64, 100
14, 46667, Note_on_c, 12, 64, 0
14, 46687, Note_on_c, 12, 59, 100
14, 46727, Note_on_c, 12, 59, 0
14, 46747, Note_on_c, 12, 59, 100
14, 46787, Note_on_c, 12, 59, 0
14, 46807, Note_on_c, 12, 64, 100
14, 46907, Note_on_c, 12, 64, 0
14, 46927, Note_on_c, 12, 59, 100
14, 46967, Note_on_c, 12, 59, 0
14, 46987, Note_on_c, 12, 59, 100
14, 47027, Note_on_c, 12, 59, 0
14, 47047, Control_c, 12, 11, 102
14, 47047, Note_on_c, 12, 64, 100
14, 47512, Note_on_c, 12, 64, 0
14, 47527, Note_on_c, 12, 64, 100
14, 47572, Note_on_c, 12, 64, 0
14, 47587, Note_on_c, 12, 63, 100
14, 47632, Note_on_c, 12, 63, 0
14, 47647, Note_on_c, 12, 61, 100
14, 47692, Note_on_c, 12, 61, 0
14, 47707, Note_on_c, 12, 59, 100
14, 47752, Note_on_c, 12, 59, 0
14, 47767, Note_on_c, 12, 57, 100
14, 47812, Note_on_c, 12, 57, 0
14, 47827, Note_on_c, 12, 56, 100
14, 47872, Note_on_c, 12, 56, 0
14, 47887, Note_on_c, 12, 54, 100
14, 47932, Note_on_c, 12, 54, 0
14, 47947, Note_on_c, 12, 52, 100
14, 47992, Note_on_c, 12, 52, 0
14, 48007, Note_on_c, 12, 61, 100
14, 48472, Note_on_c, 12, 61, 0
14, 48487, Note_on_c, 12, 61, 100
14, 48532, Note_on_c, 12, 61, 0
14, 48547, Note_on_c, 12, 59, 100
14, 48592, Note_on_c, 12, 59, 0
14, 48607, Note_on_c, 12, 57, 100
14, 48652, Note_on_c, 12, 57, 0
14, 48667, Note_on_c, 12, 56, 100
14, 48712, Note_on_c, 12, 56, 0
14, 48727, Note_on_c, 12, 54, 100
14, 48772, Note_on_c, 12, 54, 0
14, 48787, Note_on_c, 12, 52, 100
14, 48832, Note_on_c, 12, 52, 0
14, 48847, Note_on_c, 12, 51, 100
14, 48892, Note_on_c, 12, 51, 0
14, 48907, Note_on_c, 12, 49, 100
14, 48952, Note_on_c, 12, 49, 0
14, 48967, Note_on_c, 12, 58, 100
14, 49012, Note_on_c, 12, 58, 0
14, 49027, Note_on_c, 12, 58, 100
14, 49072, Note_on_c, 12, 58, 0
14, 49087, Note_on_c, 12, 58, 100
14, 49132, Note_on_c, 12, 58, 0
14, 49147, Note_on_c, 12, 58, 100
14, 49192, Note_on_c, 12, 58, 0
14, 49207, Note_on_c, 12, 58, 100
14, 49252, Note_on_c, 12, 58, 0
14, 49267, Note_on_c, 12, 58, 100
14, 49312, Note_on_c, 12, 58, 0
14, 49327, Note_on_c, 12, 58, 100
14, 49372, Note_on_c, 12, 58, 0
14, 49387, Note_on_c, 12, 58, 100
14, 49432, Note_on_c, 12, 58, 0
14, 49447, Note_on_c, 12, 58, 100
14, 49492, Note_on_c, 12, 58, 0
14, 49507, Note_on_c, 12, 58, 100
14, 49552, Note_on_c, 12, 58, 0
14, 49567, Note_on_c, 12, 58, 100
14, 49612, Note_on_c, 12, 58, 0
14, 49627, Note_on_c, 12, 58, 100
14, 49672, Note_on_c, 12, 58, 0
14, 49687, Note_on_c, 12, 58, 100
14, 49732, Note_on_c, 12, 58, 0
14, 49747, Note_on_c, 12, 58, 100
14, 49792, Note_on_c, 12, 58, 0
14, 49807, Note_on_c, 12, 58, 100
14, 49852, Note_on_c, 12, 58, 0
14, 49867, Note_on_c, 12, 58, 100
14, 49912, Note_on_c, 12, 58, 0
14, 49927, Note_on_c, 12, 66, 100
14, 49972, Note_on_c, 12, 66, 0
14, 49987, Note_on_c, 12, 66, 100
14, 50032, Note_on_c, 12, 66, 0
14, 50047, Note_on_c, 12, 66, 100
14, 50092, Note_on_c, 12, 66, 0
14, 50107, Note_on_c, 12, 66, 100
14, 50152, Note_on_c, 12, 66, 0
14, 50167, Note_on_c, 12, 66, 100
14, 50212, Note_on_c, 12, 66, 0
14, 50227, Note_on_c, 12, 66, 100
14, 50272, Note_on_c, 12, 66, 0
14, 50287, Control_c, 12, 11, 122
14, 50287, Note_on_c, 12, 61, 100
14, 50304, Control_c, 12, 11, 119
14, 50322, Control_c, 12, 11, 116
14, 50332, Note_on_c, 12, 61, 0
14, 50340, Control_c, 12, 11, 113
14, 50347, Note_on_c, 12, 61, 100
14, 50358, Control_c, 12, 11, 110
14, 50376, Control_c, 12, 11, 107
14, 50392, Note_on_c, 12, 61, 0
14, 50394, Control_c, 12, 11, 104
14, 50407, Note_on_c, 12, 66, 100
14, 50452, Note_on_c, 12, 66, 0
14, 50467, Note_on_c, 12, 66, 100
14, 50512, Note_on_c, 12, 66, 0
14, 50527, Note_on_c, 12, 66, 100
14, 50572, Note_on_c, 12, 66, 0
14, 50587, Note_on_c, 12, 66, 100
14, 50632, Note_on_c, 12, 66, 0
14, 50647, Note_on_c, 12, 66, 100
14, 50692, Note_on_c, 12, 66, 0
14, 50707, Note_on_c, 12, 66, 100
14, 50752, Note_on_c, 12, 66, 0
14, 50767, Control_c, 12, 11, 122
14, 50767, Note_on_c, 12, 61, 100
14, 50784, Control_c, 12, 11, 119
14, 50802, Control_c, 12, 11, 116
14, 50812, Note_on_c, 12, 61, 0
14, 50820, Control_c, 12, 11, 113
14, 50827, Note_on_c, 12, 61, 100
14, 50838, Control_c, 12, 11, 110
14, 50856, Control_c, 12, 11, 107
14, 50872, Note_on_c, 12, 61, 0
14, 50874, Control_c, 12, 11, 104
14, 50887, Note_on_c, 12, 66, 100
14, 50932, Note_on_c, 12, 66, 0
14, 50947, Note_on_c, 12, 66, 100
14, 50992, Note_on_c, 12, 66, 0
14, 51007, Control_c, 12, 11, 122
14, 51007, Note_on_c, 12, 61, 100
14, 51024, Control_c, 12, 11, 119
14, 51042, Control_c, 12, 11, 116
14, 51052, Note_on_c, 12, 61, 0
14, 51060, Control_c, 12, 11, 113
14, 51067, Note_on_c, 12, 61, 100
14, 51078, Control_c, 12, 11, 110
14, 51096, Control_c, 12, 11, 107
14, 51112, Note_on_c, 12, 61, 0
14, 51114, Control_c, 12, 11, 104
14, 51127, Note_on_c, 12, 66, 100
14, 51172, Note_on_c, 12, 66, 0
14, 51187, Note_on_c, 12, 66, 100
14, 51232, Note_on_c, 12, 66, 0
14, 51247, Control_c, 12, 11, 122
14, 51247, Note_on_c, 12, 61, 100
14, 51264, Control_c, 12, 11, 119
14, 51282, Control_c, 12, 11, 116
14, 51292, Note_on_c, 12, 61, 0
14, 51300, Control_c, 12, 11, 113
14, 51307, Note_on_c, 12, 61, 100
14, 51318, Control_c, 12, 11, 110
14, 51336, Control_c, 12, 11, 107
14, 51352, Note_on_c, 12, 61, 0
14, 51354, Control_c, 12, 11, 104
14, 51367, Note_on_c, 12, 66, 100
14, 51412, Note_on_c, 12, 66, 0
14, 51427, Note_on_c, 12, 66, 100
14, 51472, Note_on_c, 12, 66, 0
14, 51487, Control_c, 12, 11, 122
14, 51487, Note_on_c, 12, 61, 100
14, 51504, Control_c, 12, 11, 119
14, 51522, Control_c, 12, 11, 116
14, 51532, Note_on_c, 12, 61, 0
14, 51540, Control_c, 12, 11, 113
14, 51547, Note_on_c, 12, 61, 100
14, 51558, Control_c, 12, 11, 110
14, 51576, Control_c, 12, 11, 107
14, 51592, Note_on_c, 12, 61, 0
14, 51594, Control_c, 12, 11, 104
14, 51607, Note_on_c, 12, 61, 100
14, 51652, Note_on_c, 12, 61, 0
14, 51667, Note_on_c, 12, 61, 100
14, 51712, Note_on_c, 12, 61, 0
14, 51727, Control_c, 12, 11, 122
14, 51727, Note_on_c, 12, 66, 100
14, 51744, Control_c, 12, 11, 119
14, 51762, Control_c, 12, 11, 116
14, 51772, Note_on_c, 12, 66, 0
14, 51780, Control_c, 12, 11, 113
14, 51787, Note_on_c, 12, 66, 100
14, 51798, Control_c, 12, 11, 110
14, 51816, Control_c, 12, 11, 107
14, 51832, Note_on_c, 12, 66, 0
14, 51834, Control_c, 12, 11, 104
14, 51847, Note_on_c, 12, 66, 100
14, 51892, Note_on_c, 12, 66, 0
14, 51907, Note_on_c, 12, 66, 100
14, 51952, Note_on_c, 12, 66, 0
14, 51967, Control_c, 12, 11, 122
14, 51967, Note_on_c, 12, 59, 100
14, 51984, Control_c, 12, 11, 119
14, 52002, Control_c, 12, 11, 116
14, 52012, Note_on_c, 12, 59, 0
14, 52020, Control_c, 12, 11, 113
14, 52027, Note_on_c, 12, 59, 100
14, 52038, Control_c, 12, 11, 110
14, 52056, Control_c, 12, 11, 107
14, 52072, Note_on_c, 12, 59, 0
14, 52074, Control_c, 12, 11, 104
14, 52087, Note_on_c, 12, 56, 100
14, 52132, Note_on_c, 12, 56, 0
14, 52147, Note_on_c, 12, 56, 100
14, 52192, Note_on_c, 12, 56, 0
14, 52207, Control_c, 12, 11, 122
14, 52207, Note_on_c, 12, 68, 100
14, 52224, Control_c, 12, 11, 119
14, 52242, Control_c, 12, 11, 116
14, 52252, Note_on_c, 12, 68, 0
14, 52260, Control_c, 12, 11, 113
14, 52267, Note_on_c, 12, 68, 100
14, 52278, Control_c, 12, 11, 110
14, 52296, Control_c, 12, 11, 107
14, 52312, Note_on_c, 12, 68, 0
14, 52314, Control_c, 12, 11, 104
14, 52327, Note_on_c, 12, 66, 100
14, 52372, Note_on_c, 12, 66, 0
14, 52387, Note_on_c, 12, 66, 100
14, 52432, Note_on_c, 12, 66, 0
14, 52447, Control_c, 12, 11, 122
14, 52447, Note_on_c, 12, 54, 100
14, 52464, Control_c, 12, 11, 119
14, 52482, Control_c, 12, 11, 116
14, 52492, Note_on_c, 12, 54, 0
14, 52500, Control_c, 12, 11, 113
14, 52507, Note_on_c, 12, 54, 100
14, 52518, Control_c, 12, 11, 110
14, 52536, Control_c, 12, 11, 107
14, 52552, Note_on_c, 12, 54, 0
14, 52554, Control_c, 12, 11, 104
14, 52567, Note_on_c, 12, 66, 100
14, 52612, Note_on_c, 12, 66, 0
14, 52627, Note_on_c, 12, 66, 100
14, 52672, Note_on_c, 12, 66, 0
14, 52687, Control_c, 12, 11, 122
14, 52687, Note_on_c, 12, 54, 100
14, 52704, Control_c, 12, 11, 119
14, 52722, Control_c, 12, 11, 116
14, 52732, Note_on_c, 12, 54, 0
14, 52740, Control_c, 12, 11, 113
14, 52747, Note_on_c, 12, 54, 100
14, 52758, Control_c, 12, 11, 110
14, 52776, Control_c, 12, 11, 107
14, 52792, Note_on_c, 12, 54, 0
14, 52794, Control_c, 12, 11, 104
14, 52807, Note_on_c, 12, 59, 90
14, 52927, Note_on_c, 12, 59, 0
14, 53167, Control_c, 12, 11, 87
14, 53167, Note_on_c, 12, 59, 100
14, 53407, Note_on_c, 12, 59, 0
14, 53647, Note_on_c, 12, 59, 100
14, 53887, Note_on_c, 12, 59, 0
14, 54127, Note_on_c, 12, 59, 100
14, 54367, Note_on_c, 12, 59, 0
14, 54607, Note_on_c, 12, 59, 100
14, 54847, Note_on_c, 12, 59, 0
14, 54847, Note_on_c, 12, 59, 100
14, 54892, Note_on_c, 12, 59, 0
14, 54907, Note_on_c, 12, 59, 100
14, 54952, Note_on_c, 12, 59, 0
14, 54967, Note_on_c, 12, 59, 100
14, 55087, Note_on_c, 12, 59, 0
14, 55207, Note_on_c, 12, 59, 100
14, 55312, Note_on_c, 12, 59, 0
14, 55327, Note_on_c, 12, 59, 100
14, 55372, Note_on_c, 12, 59, 0
14, 55387, Note_on_c, 12, 59, 100
14, 55432, Note_on_c, 12, 59, 0
14, 55447, Note_on_c, 12, 59, 100
14, 55567, Note_on_c, 12, 59, 0
14, 55687, Note_on_c, 12, 59, 100
14, 55792, Note_on_c, 12, 59, 0
14, 55807, Note_on_c, 12, 59, 100
14, 55852, Note_on_c, 12, 59, 0
14, 55867, Note_on_c, 12, 59, 100
14, 55912, Note_on_c, 12, 59, 0
14, 55927, Note_on_c, 12, 59, 100
14, 56032, Note_on_c, 12, 59, 0
14, 56047, Note_on_c, 12, 59, 100
14, 56092, Note_on_c, 12, 59, 0
14, 56107, Note_on_c, 12, 59, 100
14, 56152, Note_on_c, 12, 59, 0
14, 56167, Note_on_c, 12, 59, 100
14, 56272, Note_on_c, 12, 59, 0
14, 56287, Note_on_c, 12, 59, 100
14, 56332, Note_on_c, 12, 59, 0
14, 56347, Note_on_c, 12, 59, 100
14, 56392, Note_on_c, 12, 59, 0
14, 56407, Note_on_c, 12, 59, 100
14, 56512, Note_on_c, 12, 59, 0
14, 56527, Note_on_c, 12, 59, 100
14, 56572, Note_on_c, 12, 59, 0
14, 56587, Note_on_c, 12, 59, 100
14, 56632, Note_on_c, 12, 59, 0
14, 56647, Note_on_c, 12, 59, 95
14, 56767, Note_on_c, 12, 59, 0
14, 62886, Program_c, 12, 45
14, 62887, Control_c, 12, 11, 100
14, 62887, Note_on_c, 12, 64, 47
14, 63007, Note_on_c, 12, 64, 0
14, 63067, Note_on_c, 12, 52, 47
14, 63127, Note_on_c, 12, 52, 0
14, 63127, Note_on_c, 12, 52, 47
14, 63247, Note_on_c, 12, 52, 0
14, 63367, Note_on_c, 12, 64, 47
14, 63487, Note_on_c, 12, 64, 0
14, 63547, Note_on_c, 12, 52, 47
14, 63607, Note_on_c, 12, 52, 0
14, 63607, Note_on_c, 12, 52, 47
14, 63727, Note_on_c, 12, 52, 0
14, 63847, Note_on_c, 12, 64, 47
14, 63967, Note_on_c, 12, 64, 0
14, 64027, Note_on_c, 12, 52, 47
14, 64087, Note_on_c, 12, 52, 0
14, 64087, Note_on_c, 12, 52, 47
14, 64207, Note_on_c, 12, 52, 0
14, 64327, Note_on_c, 12, 64, 47
14, 64447, Note_on_c, 12, 64, 0
14, 64507, Note_on_c, 12, 52, 47
14, 64567, Note_on_c, 12, 52, 0
14, 64567, Note_on_c, 12, 52, 47
14, 64687, Note_on_c, 12, 52, 0
14, 64807, Note_on_c, 12, 57, 47
14, 64927, Note_on_c, 12, 57, 0
14, 64987, Note_on_c, 12, 57, 47
14, 65047, Note_on_c, 12, 57, 0
14, 65047, Note_on_c, 12, 57, 47
14, 65167, Note_on_c, 12, 57, 0
14, 70566, Program_c, 12, 48
14, 70567, Control_c, 12, 11, 47
14, 70567, Note_on_c, 12, 68, 100
14, 71527, Note_on_c, 12, 68, 0
14, 71527, Note_on_c, 12, 69, 100
14, 71647, Note_on_c, 12, 69, 0
14, 71647, Note_on_c, 12, 59, 100
14, 71887, Note_on_c, 12, 59, 0
14, 71887, Note_on_c, 12, 61, 100
14, 71947, Note_on_c, 12, 61, 0
14, 71947, Note_on_c, 12, 63, 100
14, 72007, Note_on_c, 12, 63, 0
14, 72007, Note_on_c, 12, 64, 100
14, 72127, Note_on_c, 12, 64, 0
14, 74407, Note_on_c, 12, 71, 100
14, 74452, Note_on_c, 12, 71, 0
14, 74467, Note_on_c, 12, 71, 100
14, 74572, Note_on_c, 12, 71, 0
14, 74587, Note_on_c, 12, 71, 100
14, 74692, Note_on_c, 12, 71, 0
14, 74707, Note_on_c, 12, 71, 100
14, 74812, Note_on_c, 12, 71, 0
14, 74827, Note_on_c, 12, 71, 100
14, 74932, Note_on_c, 12, 71, 0
14, 74947, Note_on_c, 12, 71, 100
14, 75052, Note_on_c, 12, 71, 0
14, 75067, Note_on_c, 12, 71, 100
14, 75172, Note_on_c, 12, 71, 0
14, 75187, Note_on_c, 12, 71, 100
14, 75292, Note_on_c, 12, 71, 0
14, 75307, Note_on_c, 12, 71, 100
14, 75367, Control_c, 12, 11, 47
14, 75403, Control_c, 12, 11, 48
14, 75412, Note_on_c, 12, 71, 0
14, 75427, Note_on_c, 12, 71, 100
14, 75439, Control_c, 12, 11, 49
14, 75475, Control_c, 12, 11, 50
14, 75511, Control_c, 12, 11, 51
14, 75532, Note_on_c, 12, 71, 0
14, 75547, Control_c, 12, 11, 52
14, 75547, Note_on_c, 12, 71, 100
14, 75583, Control_c, 12, 11, 53
14, 75619, Control_c, 12, 11, 54
14, 75652, Note_on_c, 12, 71, 0
14, 75655, Control_c, 12, 11, 55
14, 75667, Note_on_c, 12, 71, 100
14, 75691, Control_c, 12, 11, 56
14, 75727, Control_c, 12, 11, 57
14, 75763, Control_c, 12, 11, 58
14, 75772, Note_on_c, 12, 71, 0
14, 75787, Note_on_c, 12, 71, 100
14, 75799, Control_c, 12, 11, 59
14, 75835, Control_c, 12, 11, 60
14, 75871, Control_c, 12, 11, 61
14, 75892, Note_on_c, 12, 71, 0
14, 75907, Control_c, 12, 11, 62
14, 75907, Note_on_c, 12, 71, 100
14, 75943, Control_c, 12, 11, 63
14, 75979, Control_c, 12, 11, 64
14, 76012, Note_on_c, 12, 71, 0
14, 76015, Control_c, 12, 11, 65
14, 76027, Note_on_c, 12, 71, 100
14, 76051, Control_c, 12, 11, 66
14, 76087, Control_c, 12, 11, 67
14, 76123, Control_c, 12, 11, 68
14, 76132, Note_on_c, 12, 71, 0
14, 76147, Note_on_c, 12, 71, 100
14, 76159, Control_c, 12, 11, 69
14, 76195, Control_c, 12, 11, 70
14, 76231, Control_c, 12, 11, 71
14, 76252, Note_on_c, 12, 71, 0
14, 76267, Control_c, 12, 11, 72
14, 76267, Note_on_c, 12, 71, 100
14, 76303, Control_c, 12, 11, 73
14, 76339, Control_c, 12, 11, 74
14, 76372, Note_on_c, 12, 71, 0
14, 76375, Control_c, 12, 11, 75
14, 76387, Note_on_c, 12, 71, 100
14, 76411, Control_c, 12, 11, 76
14, 76447, Control_c, 12, 11, 77
14, 76483, Control_c, 12, 11, 78
14, 76492, Note_on_c, 12, 71, 0
14, 76507, Note_on_c, 12, 71, 100
14, 76519, Control_c, 12, 11, 79
14, 76555, Control_c, 12, 11, 80
14, 76591, Control_c, 12, 11, 81
14, 76612, Note_on_c, 12, 71, 0
14, 76627, Control_c, 12, 11, 82
14, 76627, Note_on_c, 12, 71, 100
14, 76663, Control_c, 12, 11, 83
14, 76699, Control_c, 12, 11, 84
14, 76732, Note_on_c, 12, 71, 0
14, 76735, Control_c, 12, 11, 85
14, 76747, Note_on_c, 12, 71, 100
14, 76771, Control_c, 12, 11, 86
14, 76807, Control_c, 12, 11, 87
14, 76912, Note_on_c, 12, 71, 0
14, 76927, Note_on_c, 12, 56, 100
14, 77132, Note_on_c, 12, 56, 0
14, 77167, Note_on_c, 12, 56, 100
14, 77197, Note_on_c, 12, 56, 0
14, 77227, Note_on_c, 12, 56, 100
14, 77257, Note_on_c, 12, 56, 0
14, 77287, Note_on_c, 12, 57, 100
14, 77317, Note_on_c, 12, 57, 0
14, 77347, Note_on_c, 12, 57, 100
14, 77377, Note_on_c, 12, 57, 0
14, 77407, Note_on_c, 12, 57, 100
14, 77612, Note_on_c, 12, 57, 0
14, 77647, Note_on_c, 12, 57, 100
14, 77647, Note_on_c, 12, 61, 100
14, 77677, Note_on_c, 12, 61, 0
14, 77677, Note_on_c, 12, 57, 0
14, 77707, Note_on_c, 12, 56, 100
14, 77707, Note_on_c, 12, 59, 100
14, 77737, Note_on_c, 12, 59, 0
14, 77737, Note_on_c, 12, 56, 0
14, 77767, Note_on_c, 12, 56, 100
14, 77767, Note_on_c, 12, 59, 100
14, 77797, Note_on_c, 12, 59, 0
14, 77797, Note_on_c, 12, 56, 0
14, 77827, Note_on_c, 12, 54, 100
14, 77827, Note_on_c, 12, 57, 100
14, 77857, Note_on_c, 12, 57, 0
14, 77857, Note_on_c, 12, 54, 0
14, 77887, Note_on_c, 12, 66, 100
14, 78092, Note_on_c, 12, 66, 0
14, 78127, Note_on_c, 12, 66, 100
14, 78157, Note_on_c, 12, 66, 0
14, 78187, Note_on_c, 12, 64, 100
14, 78217, Note_on_c, 12, 64, 0
14, 78247, Note_on_c, 12, 64, 100
14, 78292, Note_on_c, 12, 64, 0
14, 78307, Note_on_c, 12, 63, 100
14, 78352, Note_on_c, 12, 63, 0
14, 78367, Note_on_c, 12, 61, 100
14, 78412, Note_on_c, 12, 61, 0
14, 78427, Note_on_c, 12, 59, 100
14, 78472, Note_on_c, 12, 59, 0
14, 78487, Note_on_c, 12, 59, 100
14, 78532, Note_on_c, 12, 59, 0
14, 78547, Note_on_c, 12, 57, 100
14, 78592, Note_on_c, 12, 57, 0
14, 78607, Note_on_c, 12, 56, 100
14, 78652, Note_on_c, 12, 56, 0
14, 78667, Note_on_c, 12, 54, 100
14, 78712, Note_on_c, 12, 54, 0
14, 78727, Note_on_c, 12, 56, 100
14, 78772, Note_on_c, 12, 56, 0
14, 78787, Note_on_c, 12, 56, 100
14, 78832, Note_on_c, 12, 56, 0
14, 78847, Note_on_c, 12, 56, 100
14, 78892, Note_on_c, 12, 56, 0
14, 78907, Note_on_c, 12, 56, 100
14, 78952, Note_on_c, 12, 56, 0
14, 78967, Note_on_c, 12, 56, 100
14, 79012, Note_on_c, 12, 56, 0
14, 79027, Note_on_c, 12, 56, 100
14, 79072, Note_on_c, 12, 56, 0
14, 79087, Note_on_c, 12, 56, 100
14, 79132, Note_on_c, 12, 56, 0
14, 79147, Note_on_c, 12, 56, 100
14, 79192, Note_on_c, 12, 56, 0
14, 79207, Note_on_c, 12, 57, 100
14, 79252, Note_on_c, 12, 57, 0
14, 79267, Note_on_c, 12, 57, 100
14, 79312, Note_on_c, 12, 57, 0
14, 79327, Note_on_c, 12, 57, 100
14, 79372, Note_on_c, 12, 57, 0
14, 79387, Note_on_c, 12, 57, 100
14, 79432, Note_on_c, 12, 57, 0
14, 79447, Note_on_c, 12, 57, 100
14, 79492, Note_on_c, 12, 57, 0
14, 79507, Note_on_c, 12, 57, 100
14, 79552, Note_on_c, 12, 57, 0
14, 79567, Note_on_c, 12, 57, 100
14, 79612, Note_on_c, 12, 57, 0
14, 79627, Note_on_c, 12, 59, 100
14, 79672, Note_on_c, 12, 59, 0
14, 79687, Note_on_c, 12, 61, 100
14, 79732, Note_on_c, 12, 61, 0
14, 79747, Note_on_c, 12, 61, 100
14, 79792, Note_on_c, 12, 61, 0
14, 79807, Note_on_c, 12, 61, 100
14, 79852, Note_on_c, 12, 61, 0
14, 79867, Note_on_c, 12, 61, 100
14, 79912, Note_on_c, 12, 61, 0
14, 79927, Note_on_c, 12, 63, 100
14, 79972, Note_on_c, 12, 63, 0
14, 79987, Note_on_c, 12, 63, 100
14, 80032, Note_on_c, 12, 63, 0
14, 80047, Note_on_c, 12, 63, 100
14, 80092, Note_on_c, 12, 63, 0
14, 80107, Note_on_c, 12, 64, 100
14, 80152, Note_on_c, 12, 64, 0
14, 80167, Note_on_c, 12, 64, 100
14, 80212, Note_on_c, 12, 64, 0
14, 80227, Note_on_c, 12, 63, 100
14, 80272, Note_on_c, 12, 63, 0
14, 80287, Note_on_c, 12, 61, 100
14, 80332, Note_on_c, 12, 61, 0
14, 80347, Note_on_c, 12, 59, 100
14, 80392, Note_on_c, 12, 59, 0
14, 80407, Note_on_c, 12, 59, 100
14, 80452, Note_on_c, 12, 59, 0
14, 80467, Note_on_c, 12, 57, 100
14, 80512, Note_on_c, 12, 57, 0
14, 80527, Note_on_c, 12, 56, 100
14, 80572, Note_on_c, 12, 56, 0
14, 80587, Note_on_c, 12, 54, 100
14, 80632, Note_on_c, 12, 54, 0
14, 80647, Note_on_c, 12, 52, 100
14, 80767, Note_on_c, 12, 52, 0
14, 80887, Note_on_c, 12, 64, 100
14, 81007, Note_on_c, 12, 64, 0
14, 81127, Note_on_c, 12, 64, 100
14, 81247, Note_on_c, 12, 64, 0
14, 81367, Note_on_c, 12, 64, 100
14, 81487, Note_on_c, 12, 64, 0
14, 81607, Control_c, 12, 11, 107
14, 81607, Note_on_c, 12, 57, 100
14, 81607, Note_on_c, 12, 54, 100
14, 81624, Control_c, 12, 11, 104
14, 81642, Control_c, 12, 11, 101
14, 81652, Note_on_c, 12, 54, 0
14, 81652, Note_on_c, 12, 57, 0
14, 81660, Control_c, 12, 11, 98
14, 81667, Note_on_c, 12, 54, 100
14, 81667, Note_on_c, 12, 57, 100
14, 81678, Control_c, 12, 11, 95
14, 81696, Control_c, 12, 11, 92
14, 81712, Note_on_c, 12, 57, 0
14, 81712, Note_on_c, 12, 54, 0
14, 81714, Control_c, 12, 11, 89
14, 81727, Note_on_c, 12, 57, 100
14, 81727, Note_on_c, 12, 54, 100
14, 81772, Note_on_c, 12, 54, 0
14, 81772, Note_on_c, 12, 57, 0
14, 81787, Note_on_c, 12, 54, 100
14, 81787, Note_on_c, 12, 57, 100
14, 81832, Note_on_c, 12, 57, 0
14, 81832, Note_on_c, 12, 54, 0
14, 81847, Note_on_c, 12, 54, 100
14, 81847, Note_on_c, 12, 57, 100
14, 81892, Note_on_c, 12, 57, 0
14, 81892, Note_on_c, 12, 54, 0
14, 81907, Note_on_c, 12, 57, 100
14, 81907, Note_on_c, 12, 54, 100
14, 81952, Note_on_c, 12, 54, 0
14, 81952, Note_on_c, 12, 57, 0
14, 81967, Note_on_c, 12, 54, 100
14, 81967, Note_on_c, 12, 57, 100
14, 82012, Note_on_c, 12, 57, 0
14, 82012, Note_on_c, 12, 54, 0
14, 82027, Note_on_c, 12, 54, 100
14, 82027, Note_on_c, 12, 57, 100
14, 82072, Note_on_c, 12, 57, 0
14, 82072, Note_on_c, 12, 54, 0
14, 82087, Note_on_c, 12, 57, 100
14, 82087, Note_on_c, 12, 54, 100
14, 82132, Note_on_c, 12, 54, 0
14, 82132, Note_on_c, 12, 57, 0
14, 82147, Note_on_c, 12, 57, 100
14, 82147, Note_on_c, 12, 54, 100
14, 82192, Note_on_c, 12, 54, 0
14, 82192, Note_on_c, 12, 57, 0
14, 82207, Note_on_c, 12, 54, 100
14, 82207, Note_on_c, 12, 57, 100
14, 82252, Note_on_c, 12, 57, 0
14, 82252, Note_on_c, 12, 54, 0
14, 82267, Note_on_c, 12, 57, 100
14, 82267, Note_on_c, 12, 54, 100
14, 82312, Note_on_c, 12, 54, 0
14, 82312, Note_on_c, 12, 57, 0
14, 82327, Note_on_c, 12, 54, 100
14, 82327, Note_on_c, 12, 57, 100
14, 82372, Note_on_c, 12, 57, 0
14, 82372, Note_on_c, 12, 54, 0
14, 82387, Note_on_c, 12, 54, 100
14, 82387, Note_on_c, 12, 57, 100
14, 82432, Note_on_c, 12, 57, 0
14, 82432, Note_on_c, 12, 54, 0
14, 82447, Note_on_c, 12, 54, 100
14, 82447, Note_on_c, 12, 57, 100
14, 82492, Note_on_c, 12, 57, 0
14, 82492, Note_on_c, 12, 54, 0
14, 82507, Note_on_c, 12, 57, 100
14, 82507, Note_on_c, 12, 54, 100
14, 82552, Note_on_c, 12, 54, 0
14, 82552, Note_on_c, 12, 57, 0
14, 82567, Note_on_c, 12, 56, 100
14, 82687, Note_on_c, 12, 56, 0
14, 82807, Note_on_c, 12, 56, 100
14, 82927, Note_on_c, 12, 56, 0
14, 83047, Note_on_c, 12, 56, 100
14, 83167, Note_on_c, 12, 56, 0
14, 83287, Note_on_c, 12, 56, 100
14, 83407, Note_on_c, 12, 56, 0
14, 83527, Control_c, 12, 11, 107
14, 83527, Note_on_c, 12, 54, 100
14, 83527, Note_on_c, 12, 57, 100
14, 83544, Control_c, 12, 11, 104
14, 83562, Control_c, 12, 11, 101
14, 83572, Note_on_c, 12, 57, 0
14, 83572, Note_on_c, 12, 54, 0
14, 83580, Control_c, 12, 11, 98
14, 83587, Note_on_c, 12, 57, 100
14, 83587, Note_on_c, 12, 54, 100
14, 83598, Control_c, 12, 11, 95
14, 83616, Control_c, 12, 11, 92
14, 83632, Note_on_c, 12, 54, 0
14, 83632, Note_on_c, 12, 57, 0
14, 83634, Control_c, 12, 11, 89
14, 83647, Note_on_c, 12, 54, 100
14, 83647, Note_on_c, 12, 57, 100
14, 83692, Note_on_c, 12, 57, 0
14, 83692, Note_on_c, 12, 54, 0
14, 83707, Note_on_c, 12, 54, 100
14, 83707, Note_on_c, 12, 57, 100
14, 83752, Note_on_c, 12, 57, 0
14, 83752, Note_on_c, 12, 54, 0
14, 83767, Note_on_c, 12, 54, 100
14, 83767, Note_on_c, 12, 57, 100
14, 83812, Note_on_c, 12, 57, 0
14, 83812, Note_on_c, 12, 54, 0
14, 83827, Note_on_c, 12, 57, 100
14, 83827, Note_on_c, 12, 54, 100
14, 83872, Note_on_c, 12, 54, 0
14, 83872, Note_on_c, 12, 57, 0
14, 83887, Note_on_c, 12, 54, 100
14, 83887, Note_on_c, 12, 57, 100
14, 83932, Note_on_c, 12, 57, 0
14, 83932, Note_on_c, 12, 54, 0
14, 83947, Note_on_c, 12, 57, 100
14, 83947, Note_on_c, 12, 54, 100
14, 83992, Note_on_c, 12, 54, 0
14, 83992, Note_on_c, 12, 57, 0
14, 84007, Note_on_c, 12, 57, 100
14, 84007, Note_on_c, 12, 54, 100
14, 84052, Note_on_c, 12, 54, 0
14, 84052, Note_on_c, 12, 57, 0
14, 84067, Note_on_c, 12, 57, 100
14, 84067, Note_on_c, 12, 54, 100
14, 84112, Note_on_c, 12, 54, 0
14, 84112, Note_on_c, 12, 57, 0
14, 84127, Note_on_c, 12, 54, 100
14, 84127, Note_on_c, 12, 57, 100
14, 84172, Note_on_c, 12, 57, 0
14, 84172, Note_on_c, 12, 54, 0
14, 84187, Note_on_c, 12, 54, 100
14, 84187, Note_on_c, 12, 57, 100
14, 84232, Note_on_c, 12, 57, 0
14, 84232, Note_on_c, 12, 54, 0
14, 84247, Note_on_c, 12, 54, 100
14, 84247, Note_on_c, 12, 57, 100
14, 84292, Note_on_c, 12, 57, 0
14, 84292, Note_on_c, 12, 54, 0
14, 84307, Note_on_c, 12, 54, 100
14, 84307, Note_on_c, 12, 57, 100
14, 84352, Note_on_c, 12, 57, 0
14, 84352, Note_on_c, 12, 54, 0
14, 84367, Note_on_c, 12, 54, 100
14, 84367, Note_on_c, 12, 57, 100
14, 84412, Note_on_c, 12, 57, 0
14, 84412, Note_on_c, 12, 54, 0
14, 84427, Note_on_c, 12, 57, 100
14, 84427, Note_on_c, 12, 54, 100
14, 84472, Note_on_c, 12, 54, 0
14, 84472, Note_on_c, 12, 57, 0
14, 84487, Note_on_c, 12, 56, 100
14, 84532, Note_on_c, 12, 56, 0
14, 84547, Note_on_c, 12, 56, 100
14, 84592, Note_on_c, 12, 56, 0
14, 84607, Note_on_c, 12, 56, 100
14, 84652, Note_on_c, 12, 56, 0
14, 84667, Note_on_c, 12, 56, 100
14, 84712, Note_on_c, 12, 56, 0
14, 84727, Note_on_c, 12, 56, 100
14, 84772, Note_on_c, 12, 56, 0
14, 84787, Note_on_c, 12, 56, 100
14, 84832, Note_on_c, 12, 56, 0
14, 84847, Note_on_c, 12, 56, 100
14, 84892, Note_on_c, 12, 56, 0
14, 84907, Note_on_c, 12, 56, 100
14, 84952, Note_on_c, 12, 56, 0
14, 84967, Note_on_c, 12, 56, 100
14, 85012, Note_on_c, 12, 56, 0
14, 85027, Note_on_c, 12, 56, 100
14, 85072, Note_on_c, 12, 56, 0
14, 85087, Note_on_c, 12, 56, 100
14, 85132, Note_on_c, 12, 56, 0
14, 85147, Note_on_c, 12, 56, 100
14, 85192, Note_on_c, 12, 56, 0
14, 85207, Note_on_c, 12, 56, 100
14, 85252, Note_on_c, 12, 56, 0
14, 85267, Note_on_c, 12, 56, 100
14, 85312, Note_on_c, 12, 56, 0
14, 85327, Note_on_c, 12, 56, 100
14, 85372, Note_on_c, 12, 56, 0
14, 85387, Note_on_c, 12, 56, 100
14, 85432, Note_on_c, 12, 56, 0
14, 85447, Note_on_c, 12, 56, 100
14, 85492, Note_on_c, 12, 56, 0
14, 85507, Note_on_c, 12, 56, 100
14, 85552, Note_on_c, 12, 56, 0
14, 85567, Note_on_c, 12, 56, 100
14, 85612, Note_on_c, 12, 56, 0
14, 85627, Note_on_c, 12, 56, 100
14, 85672, Note_on_c, 12, 56, 0
14, 85687, Note_on_c, 12, 56, 100
14, 85732, Note_on_c, 12, 56, 0
14, 85747, Note_on_c, 12, 56, 100
14, 85792, Note_on_c, 12, 56, 0
14, 85807, Note_on_c, 12, 56, 100
14, 85852, Note_on_c, 12, 56, 0
14, 85867, Note_on_c, 12, 56, 100
14, 85912, Note_on_c, 12, 56, 0
14, 85927, Control_c, 12, 11, 107
14, 85927, Note_on_c, 12, 56, 100
14, 85944, Control_c, 12, 11, 104
14, 85962, Control_c, 12, 11, 101
14, 85972, Note_on_c, 12, 56, 0
14, 85980, Control_c, 12, 11, 98
14, 85987, Note_on_c, 12, 56, 100
14, 85998, Control_c, 12, 11, 95
14, 86016, Control_c, 12, 11, 92
14, 86032, Note_on_c, 12, 56, 0
14, 86034, Control_c, 12, 11, 89
14, 86047, Note_on_c, 12, 56, 100
14, 86092, Note_on_c, 12, 56, 0
14, 86107, Note_on_c, 12, 56, 100
14, 86152, Note_on_c, 12, 56, 0
14, 86167, Note_on_c, 12, 64, 100
14, 86197, Note_on_c, 12, 64, 0
14, 86227, Note_on_c, 12, 62, 100
14, 86257, Note_on_c, 12, 62, 0
14, 86287, Note_on_c, 12, 59, 100
14, 86317, Note_on_c, 12, 59, 0
14, 86347, Note_on_c, 12, 57, 100
14, 86377, Note_on_c, 12, 57, 0
14, 86407, Note_on_c, 12, 56, 76
14, 86527, Note_on_c, 12, 56, 0
14, 87007, Control_c, 12, 11, 47
14, 87007, Note_on_c, 12, 57, 100
14, 87067, Note_on_c, 12, 57, 0
14, 87067, Note_on_c, 12, 59, 100
14, 87127, Note_on_c, 12, 59, 0
14, 87127, Note_on_c, 12, 61, 100
14, 87187, Note_on_c, 12, 61, 0
14, 87247, Note_on_c, 12, 61, 100
14, 87307, Note_on_c, 12, 61, 0
14, 87307, Note_on_c, 12, 62, 100
14, 87367, Note_on_c, 12, 62, 0
14, 87367, Note_on_c, 12, 59, 100
14, 87427, Note_on_c, 12, 59, 0
14, 87967, Note_on_c, 12, 64, 100
14, 88027, Note_on_c, 12, 64, 0
14, 88027, Note_on_c, 12, 62, 100
14, 88087, Note_on_c, 12, 62, 0
14, 88087, Note_on_c, 12, 61, 100
14, 88147, Note_on_c, 12, 61, 0
14, 88207, Note_on_c, 12, 61, 100
14, 88267, Note_on_c, 12, 61, 0
14, 88267, Note_on_c, 12, 57, 100
14, 88327, Note_on_c, 12, 57, 0
14, 88327, Note_on_c, 12, 64, 100
14, 88387, Note_on_c, 12, 64, 0
14, 88927, Note_on_c, 12, 57, 100
14, 88987, Note_on_c, 12, 57, 0
14, 88987, Note_on_c, 12, 59, 100
14, 89047, Note_on_c, 12, 59, 0
14, 89047, Note_on_c, 12, 61, 100
14, 89107, Note_on_c, 12, 61, 0
14, 89167, Note_on_c, 12, 61, 100
14, 89227, Note_on_c, 12, 61, 0
14, 89227, Note_on_c, 12, 62, 100
14, 89287, Note_on_c, 12, 62, 0
14, 89287, Note_on_c, 12, 59, 100
14, 89347, Note_on_c, 12, 59, 0
14, 89887, Note_on_c, 12, 64, 100
14, 89947, Note_on_c, 12, 64, 0
14, 89947, Note_on_c, 12, 62, 100
14, 90007, Note_on_c, 12, 62, 0
14, 90007, Note_on_c, 12, 61, 100
14, 90067, Note_on_c, 12, 61, 0
14, 90127, Note_on_c, 12, 61, 100
14, 90187, Note_on_c, 12, 61, 0
14, 90187, Note_on_c, 12, 57, 100
14, 90247, Note_on_c, 12, 57, 0
14, 90247, Note_on_c, 12, 64, 100
14, 90307, Note_on_c, 12, 64, 0
14, 90847, Note_on_c, 12, 59, 100
14, 90907, Note_on_c, 12, 59, 0
14, 90907, Note_on_c, 12, 61, 100
14, 90967, Note_on_c, 12, 61, 0
14, 90967, Note_on_c, 12, 62, 100
14, 91027, Note_on_c, 12, 62, 0
14, 91087, Note_on_c, 12, 62, 100
14, 91147, Note_on_c, 12, 62, 0
14, 91147, Note_on_c, 12, 64, 100
14, 91207, Note_on_c, 12, 64, 0
14, 91207, Note_on_c, 12, 61, 100
14, 91267, Note_on_c, 12, 61, 0
14, 92287, Note_on_c, 12, 65, 100
14, 92347, Note_on_c, 12, 65, 0
14, 92347, Note_on_c, 12, 64, 100
14, 92407, Note_on_c, 12, 64, 0
14, 92407, Note_on_c, 12, 62, 100
14, 92437, Note_on_c, 12, 62, 0
14, 92527, Note_on_c, 12, 59, 100
14, 92587, Note_on_c, 12, 59, 0
14, 92587, Note_on_c, 12, 59, 100
14, 92647, Note_on_c, 12, 59, 0
14, 92647, Note_on_c, 12, 60, 100
14, 92677, Note_on_c, 12, 60, 0
14, 92767, Note_on_c, 12, 67, 100
14, 92827, Note_on_c, 12, 67, 0
14, 92827, Note_on_c, 12, 65, 100
14, 92887, Note_on_c, 12, 65, 0
14, 92887, Note_on_c, 12, 64, 100
14, 92947, Note_on_c, 12, 64, 0
14, 93007, Note_on_c, 12, 60, 100
14, 93067, Note_on_c, 12, 60, 0
14, 93067, Note_on_c, 12, 60, 100
14, 93127, Note_on_c, 12, 60, 0
14, 93127, Note_on_c, 12, 67, 100
14, 93187, Note_on_c, 12, 67, 0
14, 93727, Control_c, 12, 11, 47
14, 93727, Note_on_c, 12, 67, 100
14, 93760, Control_c, 12, 11, 48
14, 93772, Note_on_c, 12, 67, 0
14, 93787, Note_on_c, 12, 67, 100
14, 93793, Control_c, 12, 11, 49
14, 93826, Control_c, 12, 11, 50
14, 93832, Note_on_c, 12, 67, 0
14, 93847, Note_on_c, 12, 67, 100
14, 93859, Control_c, 12, 11, 51
14, 93892, Control_c, 12, 11, 52
14, 93925, Control_c, 12, 11, 53
14, 93952, Note_on_c, 12, 67, 0
14, 93958, Control_c, 12, 11, 54
14, 93967, Note_on_c, 12, 67, 100
14, 93991, Control_c, 12, 11, 55
14, 94012, Note_on_c, 12, 67, 0
14, 94024, Control_c, 12, 11, 56
14, 94027, Note_on_c, 12, 67, 100
14, 94057, Control_c, 12, 11, 57
14, 94072, Note_on_c, 12, 67, 0
14, 94087, Note_on_c, 12, 67, 100
14, 94090, Control_c, 12, 11, 58
14, 94123, Control_c, 12, 11, 59
14, 94156, Control_c, 12, 11, 60
14, 94189, Control_c, 12, 11, 61
14, 94192, Note_on_c, 12, 67, 0
14, 94207, Note_on_c, 12, 67, 100
14, 94222, Control_c, 12, 11, 62
14, 94252, Note_on_c, 12, 67, 0
14, 94255, Control_c, 12, 11, 63
14, 94267, Note_on_c, 12, 67, 100
14, 94288, Control_c, 12, 11, 64
14, 94312, Note_on_c, 12, 67, 0
14, 94321, Control_c, 12, 11, 65
14, 94327, Note_on_c, 12, 67, 100
14, 94354, Control_c, 12, 11, 66
14, 94387, Control_c, 12, 11, 67
14, 94420, Control_c, 12, 11, 68
14, 94432, Note_on_c, 12, 67, 0
14, 94447, Note_on_c, 12, 67, 100
14, 94453, Control_c, 12, 11, 69
14, 94486, Control_c, 12, 11, 70
14, 94492, Note_on_c, 12, 67, 0
14, 94507, Note_on_c, 12, 67, 100
14, 94519, Control_c, 12, 11, 71
14, 94552, Note_on_c, 12, 67, 0
14, 94552, Control_c, 12, 11, 72
14, 94567, Note_on_c, 12, 67, 100
14, 94585, Control_c, 12, 11, 73
14, 94618, Control_c, 12, 11, 74
14, 94651, Control_c, 12, 11, 75
14, 94672, Note_on_c, 12, 67, 0
14, 94684, Control_c, 12, 11, 76
14, 94687, Note_on_c, 12, 67, 100
14, 94717, Control_c, 12, 11, 77
14, 94732, Note_on_c, 12, 67, 0
14, 94747, Note_on_c, 12, 67, 100
14, 94750, Control_c, 12, 11, 78
14, 94783, Control_c, 12, 11, 79
14, 94792, Note_on_c, 12, 67, 0
14, 94807, Note_on_c, 12, 67, 100
14, 94816, Control_c, 12, 11, 80
14, 94849, Control_c, 12, 11, 81
14, 94882, Control_c, 12, 11, 82
14, 94912, Note_on_c, 12, 67, 0
14, 94915, Control_c, 12, 11, 83
14, 94927, Note_on_c, 12, 67, 100
14, 94948, Control_c, 12, 11, 84
14, 94972, Note_on_c, 12, 67, 0
14, 94981, Control_c, 12, 11, 85
14, 94987, Note_on_c, 12, 67, 100
14, 95014, Control_c, 12, 11, 86
14, 95032, Note_on_c, 12, 67, 0
14, 95047, Control_c, 12, 11, 87
14, 95047, Note_on_c, 12, 67, 100
14, 95152, Note_on_c, 12, 67, 0
14, 95167, Note_on_c, 12, 62, 100
14, 95212, Note_on_c, 12, 62, 0
14, 95227, Note_on_c, 12, 62, 100
14, 95272, Note_on_c, 12, 62, 0
14, 95287, Note_on_c, 12, 60, 100
14, 95392, Note_on_c, 12, 60, 0
14, 95407, Note_on_c, 12, 62, 100
14, 95452, Note_on_c, 12, 62, 0
14, 95467, Note_on_c, 12, 62, 100
14, 95512, Note_on_c, 12, 62, 0
14, 95527, Note_on_c, 12, 60, 100
14, 95632, Note_on_c, 12, 60, 0
14, 95647, Note_on_c, 12, 62, 100
14, 95692, Note_on_c, 12, 62, 0
14, 95707, Note_on_c, 12, 62, 100
14, 95752, Note_on_c, 12, 62, 0
14, 95767, Note_on_c, 12, 60, 100
14, 95872, Note_on_c, 12, 60, 0
14, 95887, Note_on_c, 12, 62, 100
14, 95932, Note_on_c, 12, 62, 0
14, 95947, Note_on_c, 12, 62, 100
14, 95992, Note_on_c, 12, 62, 0
14, 96007, Control_c, 12, 11, 102
14, 96007, Note_on_c, 12, 60, 100
14, 96472, Note_on_c, 12, 60, 0
14, 96487, Note_on_c, 12, 72, 100
14, 96532, Note_on_c, 12, 72, 0
14, 96547, Note_on_c, 12, 71, 100
14, 96592, Note_on_c, 12, 71, 0
14, 96607, Note_on_c, 12, 69, 100
14, 96652, Note_on_c, 12, 69, 0
14, 96667, Note_on_c, 12, 67, 100
14, 96712, Note_on_c, 12, 67, 0
14, 96727, Note_on_c, 12, 65, 100
14, 96772, Note_on_c, 12, 65, 0
14, 96787, Note_on_c, 12, 64, 100
14, 96832, Note_on_c, 12, 64, 0
14, 96847, Note_on_c, 12, 62, 100
14, 96892, Note_on_c, 12, 62, 0
14, 96907, Note_on_c, 12, 60, 100
14, 96952, Note_on_c, 12, 60, 0
14, 96967, Note_on_c, 12, 57, 100
14, 97432, Note_on_c, 12, 57, 0
14, 97447, Note_on_c, 12, 69, 100
14, 97492, Note_on_c, 12, 69, 0
14, 97507, Note_on_c, 12, 67, 100
14, 97552, Note_on_c, 12, 67, 0
14, 97567, Note_on_c, 12, 65, 100
14, 97612, Note_on_c, 12, 65, 0
14, 97627, Note_on_c, 12, 64, 100
14, 97672, Note_on_c, 12, 64, 0
14, 97687, Note_on_c, 12, 62, 100
14, 97732, Note_on_c, 12, 62, 0
14, 97747, Note_on_c, 12, 60, 100
14, 97792, Note_on_c, 12, 60, 0
14, 97807, Note_on_c, 12, 59, 100
14, 97852, Note_on_c, 12, 59, 0
14, 97867, Note_on_c, 12, 57, 100
14, 97912, Note_on_c, 12, 57, 0
14, 97927, Note_on_c, 12, 60, 100
14, 97972, Note_on_c, 12, 60, 0
14, 97987, Note_on_c, 12, 60, 100
14, 98032, Note_on_c, 12, 60, 0
14, 98047, Note_on_c, 12, 60, 100
14, 98092, Note_on_c, 12, 60, 0
14, 98107, Note_on_c, 12, 60, 100
14, 98152, Note_on_c, 12, 60, 0
14, 98167, Note_on_c, 12, 60, 100
14, 98212, Note_on_c, 12, 60, 0
14, 98227, Note_on_c, 12, 60, 100
14, 98272, Note_on_c, 12, 60, 0
14, 98287, Note_on_c, 12, 60, 100
14, 98332, Note_on_c, 12, 60, 0
14, 98347, Note_on_c, 12, 60, 100
14, 98392, Note_on_c, 12, 60, 0
14, 98407, Note_on_c, 12, 60, 100
14, 98452, Note_on_c, 12, 60, 0
14, 98467, Note_on_c, 12, 60, 100
14, 98512, Note_on_c, 12, 60, 0
14, 98527, Note_on_c, 12, 60, 100
14, 98572, Note_on_c, 12, 60, 0
14, 98587, Note_on_c, 12, 60, 100
14, 98632, Note_on_c, 12, 60, 0
14, 98647, Note_on_c, 12, 60, 100
14, 98692, Note_on_c, 12, 60, 0
14, 98707, Note_on_c, 12, 60, 100
14, 98752, Note_on_c, 12, 60, 0
14, 98767, Note_on_c, 12, 60, 100
14, 98812, Note_on_c, 12, 60, 0
14, 98827, Note_on_c, 12, 60, 100
14, 98872, Note_on_c, 12, 60, 0
14, 98887, Note_on_c, 12, 60, 100
14, 99232, Note_on_c, 12, 60, 0
14, 99247, Control_c, 12, 11, 122
14, 99247, Note_on_c, 12, 61, 100
14, 99264, Control_c, 12, 11, 119
14, 99282, Control_c, 12, 11, 116
14, 99300, Control_c, 12, 11, 113
14, 99318, Control_c, 12, 11, 110
14, 99336, Control_c, 12, 11, 107
14, 99352, Note_on_c, 12, 61, 0
14, 99354, Control_c, 12, 11, 104
14, 99367, Note_on_c, 12, 60, 100
14, 99712, Note_on_c, 12, 60, 0
14, 99727, Control_c, 12, 11, 122
14, 99727, Note_on_c, 12, 61, 100
14, 99744, Control_c, 12, 11, 119
14, 99762, Control_c, 12, 11, 116
14, 99780, Control_c, 12, 11, 113
14, 99798, Control_c, 12, 11, 110
14, 99816, Control_c, 12, 11, 107
14, 99832, Note_on_c, 12, 61, 0
14, 99834, Control_c, 12, 11, 104
14, 99847, Note_on_c, 12, 60, 100
14, 99952, Note_on_c, 12, 60, 0
14, 99967, Control_c, 12, 11, 122
14, 99967, Note_on_c, 12, 61, 100
14, 99984, Control_c, 12, 11, 119
14, 100002, Control_c, 12, 11, 116
14, 100020, Control_c, 12, 11, 113
14, 100038, Control_c, 12, 11, 110
14, 100056, Control_c, 12, 11, 107
14, 100072, Note_on_c, 12, 61, 0
14, 100074, Control_c, 12, 11, 104
14, 100087, Note_on_c, 12, 60, 100
14, 100192, Note_on_c, 12, 60, 0
14, 100207, Control_c, 12, 11, 122
14, 100207, Note_on_c, 12, 61, 100
14, 100224, Control_c, 12, 11, 119
14, 100242, Control_c, 12, 11, 116
14, 100260, Control_c, 12, 11, 113
14, 100278, Control_c, 12, 11, 110
14, 100296, Control_c, 12, 11, 107
14, 100312, Note_on_c, 12, 61, 0
14, 100314, Control_c, 12, 11, 104
14, 100327, Note_on_c, 12, 60, 100
14, 100372, Note_on_c, 12, 60, 0
14, 100387, Note_on_c, 12, 60, 100
14, 100432, Note_on_c, 12, 60, 0
14, 100447, Control_c, 12, 11, 122
14, 100447, Note_on_c, 12, 61, 100
14, 100464, Control_c, 12, 11, 119
14, 100482, Control_c, 12, 11, 116
14, 100492, Note_on_c, 12, 61, 0
14, 100500, Control_c, 12, 11, 113
14, 100507, Note_on_c, 12, 61, 100
14, 100518, Control_c, 12, 11, 110
14, 100536, Control_c, 12, 11, 107
14, 100552, Note_on_c, 12, 61, 0
14, 100554, Control_c, 12, 11, 104
14, 100567, Note_on_c, 12, 60, 100
14, 100612, Note_on_c, 12, 60, 0
14, 100627, Note_on_c, 12, 60, 100
14, 100672, Note_on_c, 12, 60, 0
14, 100687, Control_c, 12, 11, 122
14, 100687, Note_on_c, 12, 62, 100
14, 100704, Control_c, 12, 11, 119
14, 100722, Control_c, 12, 11, 116
14, 100732, Note_on_c, 12, 62, 0
14, 100740, Control_c, 12, 11, 113
14, 100747, Note_on_c, 12, 62, 100
14, 100758, Control_c, 12, 11, 110
14, 100776, Control_c, 12, 11, 107
14, 100792, Note_on_c, 12, 62, 0
14, 100794, Control_c, 12, 11, 104
14, 100807, Note_on_c, 12, 62, 100
14, 100852, Note_on_c, 12, 62, 0
14, 100867, Note_on_c, 12, 62, 100
14, 100912, Note_on_c, 12, 62, 0
14, 100927, Control_c, 12, 11, 122
14, 100927, Note_on_c, 12, 60, 100
14, 100944, Control_c, 12, 11, 119
14, 100962, Control_c, 12, 11, 116
14, 100972, Note_on_c, 12, 60, 0
14, 100980, Control_c, 12, 11, 113
14, 100987, Note_on_c, 12, 60, 100
14, 100998, Control_c, 12, 11, 110
14, 101016, Control_c, 12, 11, 107
14, 101032, Note_on_c, 12, 60, 0
14, 101034, Control_c, 12, 11, 104
14, 101047, Note_on_c, 12, 60, 100
14, 101092, Note_on_c, 12, 60, 0
14, 101107, Note_on_c, 12, 60, 100
14, 101152, Note_on_c, 12, 60, 0
14, 101167, Control_c, 12, 11, 122
14, 101167, Note_on_c, 12, 60, 100
14, 101184, Control_c, 12, 11, 119
14, 101202, Control_c, 12, 11, 116
14, 101212, Note_on_c, 12, 60, 0
14, 101220, Control_c, 12, 11, 113
14, 101227, Note_on_c, 12, 60, 100
14, 101238, Control_c, 12, 11, 110
14, 101256, Control_c, 12, 11, 107
14, 101272, Note_on_c, 12, 60, 0
14, 101274, Control_c, 12, 11, 104
14, 101287, Note_on_c, 12, 60, 100
14, 101332, Note_on_c, 12, 60, 0
14, 101347, Note_on_c, 12, 60, 100
14, 101392, Note_on_c, 12, 60, 0
14, 101407, Control_c, 12, 11, 122
14, 101407, Note_on_c, 12, 55, 100
14, 101424, Control_c, 12, 11, 119
14, 101442, Control_c, 12, 11, 116
14, 101452, Note_on_c, 12, 55, 0
14, 101460, Control_c, 12, 11, 113
14, 101467, Note_on_c, 12, 55, 100
14, 101478, Control_c, 12, 11, 110
14, 101496, Control_c, 12, 11, 107
14, 101512, Note_on_c, 12, 55, 0
14, 101514, Control_c, 12, 11, 104
14, 101527, Note_on_c, 12, 55, 100
14, 101572, Note_on_c, 12, 55, 0
14, 101587, Note_on_c, 12, 55, 100
14, 101632, Note_on_c, 12, 55, 0
14, 101647, Control_c, 12, 11, 122
14, 101647, Note_on_c, 12, 55, 100
14, 101664, Control_c, 12, 11, 119
14, 101682, Control_c, 12, 11, 116
14, 101692, Note_on_c, 12, 55, 0
14, 101700, Control_c, 12, 11, 113
14, 101707, Note_on_c, 12, 55, 100
14, 101718, Control_c, 12, 11, 110
14, 101736, Control_c, 12, 11, 107
14, 101752, Note_on_c, 12, 55, 0
14, 101754, Control_c, 12, 11, 104
14, 101767, Note_on_c, 12, 55, 100
14, 101887, Note_on_c, 12, 55, 0
14, 102127, Control_c, 12, 11, 87
14, 102127, Note_on_c, 12, 60, 100
14, 102127, Note_on_c, 12, 48, 100
14, 102367, Note_on_c, 12, 48, 0
14, 102367, Note_on_c, 12, 60, 0
14, 102607, Note_on_c, 12, 60, 100
14, 102607, Note_on_c, 12, 48, 100
14, 102847, Note_on_c, 12, 48, 0
14, 102847, Note_on_c, 12, 60, 0
14, 103087, Note_on_c, 12, 60, 100
14, 103087, Note_on_c, 12, 48, 100
14, 103327, Note_on_c, 12, 48, 0
14, 103327, Note_on_c, 12, 60, 0
14, 103567, Note_on_c, 12, 48, 100
14, 103567, Note_on_c, 12, 60, 100
14, 103792, Note_on_c, 12, 60, 0
14, 103792, Note_on_c, 12, 48, 0
14, 103807, Note_on_c, 12, 60, 100
14, 103807, Note_on_c, 12, 48, 100
14, 103852, Note_on_c, 12, 48, 0
14, 103852, Note_on_c, 12, 60, 0
14, 103867, Note_on_c, 12, 48, 100
14, 103867, Note_on_c, 12, 60, 100
14, 103912, Note_on_c, 12, 60, 0
14, 103912, Note_on_c, 12, 48, 0
14, 103927, Note_on_c, 12, 48, 100
14, 103927, Note_on_c, 12, 60, 100
14, 104047, Note_on_c, 12, 60, 0
14, 104047, Note_on_c, 12, 48, 0
14, 104167, Note_on_c, 12, 48, 100
14, 104167, Note_on_c, 12, 60, 100
14, 104272, Note_on_c, 12, 60, 0
14, 104272, Note_on_c, 12, 48, 0
14, 104287, Note_on_c, 12, 60, 100
14, 104287, Note_on_c, 12, 48, 100
14, 104332, Note_on_c, 12, 48, 0
14, 104332, Note_on_c, 12, 60, 0
14, 104347, Note_on_c, 12, 60, 100
14, 104347, Note_on_c, 12, 48, 100
14, 104392, Note_on_c, 12, 48, 0
14, 104392, Note_on_c, 12, 60, 0
14, 104407, Note_on_c, 12, 48, 100
14, 104407, Note_on_c, 12, 60, 100
14, 104527, Note_on_c, 12, 60, 0
14, 104527, Note_on_c, 12, 48, 0
14, 104647, Note_on_c, 12, 60, 100
14, 104647, Note_on_c, 12, 48, 100
14, 104752, Note_on_c, 12, 48, 0
14, 104752, Note_on_c, 12, 60, 0
14, 104767, Note_on_c, 12, 60, 100
14, 104767, Note_on_c, 12, 48, 100
14, 104812, Note_on_c, 12, 48, 0
14, 104812, Note_on_c, 12, 60, 0
14, 104827, Note_on_c, 12, 48, 100
14, 104827, Note_on_c, 12, 60, 100
14, 104872, Note_on_c, 12, 60, 0
14, 104872, Note_on_c, 12, 48, 0
14, 104887, Note_on_c, 12, 60, 100
14, 104887, Note_on_c, 12, 48, 100
14, 104992, Note_on_c, 12, 48, 0
14, 104992, Note_on_c, 12, 60, 0
14, 105007, Note_on_c, 12, 60, 100
14, 105007, Note_on_c, 12, 48, 100
14, 105052, Note_on_c, 12, 48, 0
14, 105052, Note_on_c, 12, 60, 0
14, 105067, Note_on_c, 12, 48, 100
14, 105067, Note_on_c, 12, 60, 100
14, 105112, Note_on_c, 12, 60, 0
14, 105112, Note_on_c, 12, 48, 0
14, 105127, Note_on_c, 12, 60, 100
14, 105127, Note_on_c, 12, 48, 100
14, 105232, Note_on_c, 12, 48, 0
14, 105232, Note_on_c, 12, 60, 0
14, 105247, Note_on_c, 12, 60, 100
14, 105247, Note_on_c, 12, 48, 100
14, 105292, Note_on_c, 12, 48, 0
14, 105292, Note_on_c, 12, 60, 0
14, 105307, Note_on_c, 12, 48, 100
14, 105307, Note_on_c, 12, 60, 100
14, 105352, Note_on_c, 12, 60, 0
14, 105352, Note_on_c, 12, 48, 0
14, 105367, Note_on_c, 12, 60, 100
14, 105367, Note_on_c, 12, 48, 100
14, 105472, Note_on_c, 12, 48, 0
14, 105472, Note_on_c, 12, 60, 0
14, 105487, Note_on_c, 12, 60, 100
14, 105487, Note_on_c, 12, 48, 100
14, 105532, Note_on_c, 12, 48, 0
14, 105532, Note_on_c, 12, 60, 0
14, 105547, Note_on_c, 12, 48, 100
14, 105547, Note_on_c, 12, 60, 100
14, 105592, Note_on_c, 12, 60, 0
14, 105592, Note_on_c, 12, 48, 0
14, 105607, Note_on_c, 12, 48, 100
14, 105607, Note_on_c, 12, 60, 100
14, 105712, Note_on_c, 12, 60, 0
14, 105712, Note_on_c, 12, 48, 0
14, 105727, Note_on_c, 12, 48, 100
14, 105727, Note_on_c, 12, 60, 100
14, 105772, Note_on_c, 12, 60, 0
14, 105772, Note_on_c, 12, 48, 0
14, 105787, Note_on_c, 12, 60, 100
14, 105787, Note_on_c, 12, 48, 100
14, 105832, Note_on_c, 12, 48, 0
14, 105832, Note_on_c, 12, 60, 0
14, 105847, Note_on_c, 12, 48, 100
14, 105847, Note_on_c, 12, 60, 100
14, 105952, Note_on_c, 12, 60, 0
14, 105952, Note_on_c, 12, 48, 0
14, 105967, Note_on_c, 12, 60, 100
14, 105967, Note_on_c, 12, 48, 100
14, 106012, Note_on_c, 12, 48, 0
14, 106012, Note_on_c, 12, 60, 0
14, 106027, Note_on_c, 12, 48, 100
14, 106027, Note_on_c, 12, 60, 100
14, 106072, Note_on_c, 12, 60, 0
14, 106072, Note_on_c, 12, 48, 0
14, 106087, Note_on_c, 12, 60, 100
14, 106087, Note_on_c, 12, 48, 100
14, 106192, Note_on_c, 12, 48, 0
14, 106192, Note_on_c, 12, 60, 0
14, 106207, Note_on_c, 12, 60, 100
14, 106207, Note_on_c, 12, 48, 100
14, 106252, Note_on_c, 12, 48, 0
14, 106252, Note_on_c, 12, 60, 0
14, 106267, Note_on_c, 12, 48, 100
14, 106267, Note_on_c, 12, 60, 100
14, 106312, Note_on_c, 12, 60, 0
14, 106312, Note_on_c, 12, 48, 0
14, 106327, Note_on_c, 12, 48, 100
14, 106327, Note_on_c, 12, 60, 100
14, 106432, Note_on_c, 12, 60, 0
14, 106432, Note_on_c, 12, 48, 0
14, 106447, Note_on_c, 12, 60, 100
14, 106447, Note_on_c, 12, 48, 100
14, 106492, Note_on_c, 12, 48, 0
14, 106492, Note_on_c, 12, 60, 0
14, 106507, Note_on_c, 12, 48, 100
14, 106507, Note_on_c, 12, 60, 100
14, 106552, Note_on_c, 12, 60, 0
14, 106552, Note_on_c, 12, 48, 0
14, 106567, Note_on_c, 12, 59, 100
14, 106687, Note_on_c, 12, 59, 0
14, 106927, Note_on_c, 12, 67, 100
14, 107047, Note_on_c, 12, 67, 0
14, 107047, Note_on_c, 12, 66, 100
14, 107167, Note_on_c, 12, 66, 0
14, 107407, Note_on_c, 12, 67, 100
14, 107527, Note_on_c, 12, 67, 0
14, 107527, Note_on_c, 12, 66, 100
14, 107647, Note_on_c, 12, 66, 0
14, 107887, Note_on_c, 12, 67, 100
14, 108007, Note_on_c, 12, 67, 0
14, 108007, Note_on_c, 12, 66, 100
14, 108127, Note_on_c, 12, 66, 0
14, 108367, Note_on_c, 12, 67, 100
14, 108487, Note_on_c, 12, 67, 0
14, 108487, Note_on_c, 12, 66, 100
14, 108592, Note_on_c, 12, 66, 0
14, 108607, Note_on_c, 12, 59, 100
14, 108652, Note_on_c, 12, 59, 0
14, 108667, Note_on_c, 12, 59, 100
14, 108712, Note_on_c, 12, 59, 0
14, 108727, Note_on_c, 12, 59, 100
14, 108832, Note_on_c, 12, 59, 0
14, 108847, Note_on_c, 12, 59, 100
14, 108892, Note_on_c, 12, 59, 0
14, 108907, Note_on_c, 12, 59, 100
14, 108952, Note_on_c, 12, 59, 0
14, 108967, Note_on_c, 12, 59, 100
14, 109072, Note_on_c, 12, 59, 0
14, 109087, Note_on_c, 12, 59, 100
14, 109132, Note_on_c, 12, 59, 0
14, 109147, Note_on_c, 12, 59, 100
14, 109192, Note_on_c, 12, 59, 0
14, 109207, Note_on_c, 12, 59, 100
14, 109312, Note_on_c, 12, 59, 0
14, 109327, Note_on_c, 12, 59, 100
14, 109372, Note_on_c, 12, 59, 0
14, 109387, Note_on_c, 12, 59, 100
14, 109432, Note_on_c, 12, 59, 0
14, 109447, Note_on_c, 12, 59, 100
14, 109552, Note_on_c, 12, 59, 0
14, 109567, Note_on_c, 12, 59, 100
14, 109612, Note_on_c, 12, 59, 0
14, 109627, Note_on_c, 12, 59, 100
14, 109672, Note_on_c, 12, 59, 0
14, 109687, Note_on_c, 12, 59, 100
14, 109792, Note_on_c, 12, 59, 0
14, 109807, Note_on_c, 12, 59, 100
14, 109852, Note_on_c, 12, 59, 0
14, 109867, Note_on_c, 12, 59, 100
14, 109912, Note_on_c, 12, 59, 0
14, 109927, Note_on_c, 12, 59, 100
14, 110047, Note_on_c, 12, 59, 0
14, 110407, Control_c, 12, 11, 102
14, 110407, Note_on_c, 12, 64, 100
14, 110557, Note_on_c, 12, 64, 0
14, 110587, Note_on_c, 12, 59, 100
14, 110632, Note_on_c, 12, 59, 0
14, 110647, Note_on_c, 12, 59, 100
14, 110707, Note_on_c, 12, 59, 0
14, 110887, Control_c, 12, 11, 122
14, 110887, Note_on_c, 12, 68, 100
14, 110904, Control_c, 12, 11, 119
14, 110922, Control_c, 12, 11, 116
14, 110940, Control_c, 12, 11, 113
14, 110958, Control_c, 12, 11, 110
14, 110976, Control_c, 12, 11, 107
14, 110994, Control_c, 12, 11, 104
14, 111037, Note_on_c, 12, 68, 0
14, 111067, Note_on_c, 12, 64, 100
14, 111112, Note_on_c, 12, 64, 0
14, 111127, Note_on_c, 12, 64, 100
14, 111187, Note_on_c, 12, 64, 0
14, 111367, Control_c, 12, 11, 122
14, 111367, Note_on_c, 12, 71, 100
14, 111384, Control_c, 12, 11, 119
14, 111402, Control_c, 12, 11, 116
14, 111420, Control_c, 12, 11, 113
14, 111438, Control_c, 12, 11, 110
14, 111456, Control_c, 12, 11, 107
14, 111474, Control_c, 12, 11, 104
14, 111517, Note_on_c, 12, 71, 0
14, 111547, Note_on_c, 12, 68, 100
14, 111592, Note_on_c, 12, 68, 0
14, 111607, Note_on_c, 12, 68, 100
14, 111667, Note_on_c, 12, 68, 0
14, 111727, Note_on_c, 12, 64, 100
14, 111787, Note_on_c, 12, 64, 0
14, 111847, Note_on_c, 12, 59, 100
14, 111907, Note_on_c, 12, 59, 0
14, 119046, Program_c, 12, 50
14, 119047, Control_c, 12, 11, 87
14, 119047, Note_on_c, 12, 60, 100
14, 119197, Note_on_c, 12, 60, 0
14, 119227, Note_on_c, 12, 59, 100
14, 119272, Note_on_c, 12, 59, 0
14, 119287, Note_on_c, 12, 59, 100
14, 119407, Note_on_c, 12, 59, 0
14, 119527, Note_on_c, 12, 60, 100
14, 119677, Note_on_c, 12, 60, 0
14, 119707, Note_on_c, 12, 59, 100
14, 119752, Note_on_c, 12, 59, 0
14, 119767, Note_on_c, 12, 59, 100
14, 119887, Note_on_c, 12, 59, 0
14, 120007, Note_on_c, 12, 60, 100
14, 120067, Note_on_c, 12, 60, 0
14, 120127, Note_on_c, 12, 59, 100
14, 120187, Note_on_c, 12, 59, 0
14, 120247, Note_on_c, 12, 60, 100
14, 120307, Note_on_c, 12, 60, 0
14, 120367, Note_on_c, 12, 59, 100
14, 120427, Note_on_c, 12, 59, 0
14, 120487, Note_on_c, 12, 60, 100
14, 120547, Note_on_c, 12, 60, 0
14, 120607, Note_on_c, 12, 59, 100
14, 120667, Note_on_c, 12, 59, 0
14, 120727, Note_on_c, 12, 60, 100
14, 120787, Note_on_c, 12, 60, 0
14, 120847, Note_on_c, 12, 59, 100
14, 120907, Note_on_c, 12, 59, 0
14, 120967, Note_on_c, 12, 64, 100
14, 121027, Note_on_c, 12, 64, 0
14, 121087, Note_on_c, 12, 63, 100
14, 121147, Note_on_c, 12, 63, 0
14, 121207, Note_on_c, 12, 64, 100
14, 121267, Note_on_c, 12, 64, 0
14, 121327, Note_on_c, 12, 63, 100
14, 121387, Note_on_c, 12, 63, 0
14, 121447, Note_on_c, 12, 64, 100
14, 121507, Note_on_c, 12, 64, 0
14, 121567, Note_on_c, 12, 63, 100
14, 121627, Note_on_c, 12, 63, 0
14, 121687, Note_on_c, 12, 64, 100
14, 121747, Note_on_c, 12, 64, 0
14, 121807, Note_on_c, 12, 63, 100
14, 121867, Note_on_c, 12, 63, 0
14, 121926, Program_c, 12, 48
14, 121927, Note_on_c, 12, 60, 100
14, 121987, Note_on_c, 12, 60, 0
14, 122047, Note_on_c, 12, 59, 100
14, 122107, Note_on_c, 12, 59, 0
14, 122167, Note_on_c, 12, 64, 100
14, 122227, Note_on_c, 12, 64, 0
14, 122287, Note_on_c, 12, 63, 100
14, 122347, Note_on_c, 12, 63, 0
14, 122407, Note_on_c, 12, 60, 100
14, 122467, Note_on_c, 12, 60, 0
14, 122527, Note_on_c, 12, 59, 100
14, 122587, Note_on_c, 12, 59, 0
14, 122647, Note_on_c, 12, 61, 100
14, 122707, Note_on_c, 12, 61, 0
14, 122767, Note_on_c, 12, 59, 100
14, 122827, Note_on_c, 12, 59, 0
14, 122887, Note_on_c, 12, 61, 100
14, 122947, Note_on_c, 12, 61, 0
14, 123007, Note_on_c, 12, 59, 100
14, 123067, Note_on_c, 12, 59, 0
14, 123127, Note_on_c, 12, 61, 100
14, 123187, Note_on_c, 12, 61, 0
14, 123247, Note_on_c, 12, 59, 100
14, 123307, Note_on_c, 12, 59, 0
14, 123367, Note_on_c, 12, 61, 100
14, 123427, Note_on_c, 12, 61, 0
14, 123487, Note_on_c, 12, 59, 100
14, 123547, Note_on_c, 12, 59, 0
14, 123607, Note_on_c, 12, 61, 100
14, 123667, Note_on_c, 12, 61, 0
14, 123727, Note_on_c, 12, 59, 100
14, 123787, Note_on_c, 12, 59, 0
14, 123847, Note_on_c, 12, 56, 100
14, 123847, Note_on_c, 12, 52, 100
14, 123892, Note_on_c, 12, 52, 0
14, 123892, Note_on_c, 12, 56, 0
14, 123907, Note_on_c, 12, 56, 100
14, 123907, Note_on_c, 12, 52, 100
14, 123952, Note_on_c, 12, 52, 0
14, 123952, Note_on_c, 12, 56, 0
14, 123967, Note_on_c, 12, 56, 100
14, 123967, Note_on_c, 12, 52, 100
14, 124012, Note_on_c, 12, 52, 0
14, 124012, Note_on_c, 12, 56, 0
14, 124027, Note_on_c, 12, 56, 100
14, 124027, Note_on_c, 12, 52, 100
14, 124072, Note_on_c, 12, 52, 0
14, 124072, Note_on_c, 12, 56, 0
14, 124087, Note_on_c, 12, 52, 100
14, 124087, Note_on_c, 12, 56, 100
14, 124132, Note_on_c, 12, 56, 0
14, 124132, Note_on_c, 12, 52, 0
14, 124147, Note_on_c, 12, 52, 100
14, 124147, Note_on_c, 12, 56, 100
14, 124192, Note_on_c, 12, 56, 0
14, 124192, Note_on_c, 12, 52, 0
14, 124207, Note_on_c, 12, 52, 100
14, 124207, Note_on_c, 12, 56, 100
14, 124252, Note_on_c, 12, 56, 0
14, 124252, Note_on_c, 12, 52, 0
14, 124267, Note_on_c, 12, 52, 100
14, 124267, Note_on_c, 12, 56, 100
14, 124312, Note_on_c, 12, 56, 0
14, 124312, Note_on_c, 12, 52, 0
14, 124327, Note_on_c, 12, 52, 100
14, 124327, Note_on_c, 12, 56, 100
14, 124372, Note_on_c, 12, 56, 0
14, 124372, Note_on_c, 12, 52, 0
14, 124387, Note_on_c, 12, 52, 100
14, 124387, Note_on_c, 12, 56, 100
14, 124432, Note_on_c, 12, 56, 0
14, 124432, Note_on_c, 12, 52, 0
14, 124447, Note_on_c, 12, 52, 100
14, 124447, Note_on_c, 12, 56, 100
14, 124492, Note_on_c, 12, 56, 0
14, 124492, Note_on_c, 12, 52, 0
14, 124507, Note_on_c, 12, 52, 100
14, 124507, Note_on_c, 12, 56, 100
14, 124552, Note_on_c, 12, 56, 0
14, 124552, Note_on_c, 12, 52, 0
14, 124567, Note_on_c, 12, 52, 100
14, 124567, Note_on_c, 12, 56, 100
14, 124612, Note_on_c, 12, 56, 0
14, 124612, Note_on_c, 12, 52, 0
14, 124627, Note_on_c, 12, 52, 100
14, 124627, Note_on_c, 12, 56, 100
14, 124672, Note_on_c, 12, 56, 0
14, 124672, Note_on_c, 12, 52, 0
14, 124687, Note_on_c, 12, 52, 100
14, 124687, Note_on_c, 12, 56, 100
14, 124732, Note_on_c, 12, 56, 0
14, 124732, Note_on_c, 12, 52, 0
14, 124747, Note_on_c, 12, 52, 100
14, 124747, Note_on_c, 12, 56, 100
14, 124792, Note_on_c, 12, 56, 0
14, 124792, Note_on_c, 12, 52, 0
14, 124807, Note_on_c, 12, 54, 100
14, 124807, Note_on_c, 12, 57, 100
14, 124852, Note_on_c, 12, 57, 0
14, 124852, Note_on_c, 12, 54, 0
14, 124867, Note_on_c, 12, 54, 100
14, 124867, Note_on_c, 12, 57, 100
14, 124912, Note_on_c, 12, 57, 0
14, 124912, Note_on_c, 12, 54, 0
14, 124927, Note_on_c, 12, 54, 100
14, 124927, Note_on_c, 12, 57, 100
14, 124972, Note_on_c, 12, 57, 0
14, 124972, Note_on_c, 12, 54, 0
14, 124987, Note_on_c, 12, 54, 100
14, 124987, Note_on_c, 12, 57, 100
14, 125032, Note_on_c, 12, 57, 0
14, 125032, Note_on_c, 12, 54, 0
14, 125047, Note_on_c, 12, 57, 100
14, 125047, Note_on_c, 12, 54, 100
14, 125092, Note_on_c, 12, 54, 0
14, 125092, Note_on_c, 12, 57, 0
14, 125107, Note_on_c, 12, 57, 100
14, 125107, Note_on_c, 12, 54, 100
14, 125152, Note_on_c, 12, 54, 0
14, 125152, Note_on_c, 12, 57, 0
14, 125167, Note_on_c, 12, 57, 100
14, 125167, Note_on_c, 12, 54, 100
14, 125212, Note_on_c, 12, 54, 0
14, 125212, Note_on_c, 12, 57, 0
14, 125227, Note_on_c, 12, 57, 100
14, 125227, Note_on_c, 12, 54, 100
14, 125272, Note_on_c, 12, 54, 0
14, 125272, Note_on_c, 12, 57, 0
14, 125287, Note_on_c, 12, 54, 100
14, 125287, Note_on_c, 12, 57, 100
14, 125332, Note_on_c, 12, 57, 0
14, 125332, Note_on_c, 12, 54, 0
14, 125347, Note_on_c, 12, 54, 100
14, 125347, Note_on_c, 12, 57, 100
14, 125392, Note_on_c, 12, 57, 0
14, 125392, Note_on_c, 12, 54, 0
14, 125407, Note_on_c, 12, 54, 100
14, 125407, Note_on_c, 12, 57, 100
14, 125452, Note_on_c, 12, 57, 0
14, 125452, Note_on_c, 12, 54, 0
14, 125467, Note_on_c, 12, 54, 100
14, 125467, Note_on_c, 12, 57, 100
14, 125512, Note_on_c, 12, 57, 0
14, 125512, Note_on_c, 12, 54, 0
14, 125527, Note_on_c, 12, 54, 100
14, 125527, Note_on_c, 12, 57, 100
14, 125572, Note_on_c, 12, 57, 0
14, 125572, Note_on_c, 12, 54, 0
14, 125587, Note_on_c, 12, 57, 100
14, 125587, Note_on_c, 12, 54, 100
14, 125632, Note_on_c, 12, 54, 0
14, 125632, Note_on_c, 12, 57, 0
14, 125647, Note_on_c, 12, 54, 100
14, 125647, Note_on_c, 12, 57, 100
14, 125692, Note_on_c, 12, 57, 0
14, 125692, Note_on_c, 12, 54, 0
14, 125707, Note_on_c, 12, 54, 100
14, 125707, Note_on_c, 12, 57, 100
14, 125737, Control_c, 12, 11, 87
14, 125739, Control_c, 12, 11, 84
14, 125741, Control_c, 12, 11, 81
14, 125744, Control_c, 12, 11, 77
14, 125747, Control_c, 12, 11, 73
14, 125750, Control_c, 12, 11, 69
14, 125752, Note_on_c, 12, 57, 0
14, 125752, Note_on_c, 12, 54, 0
14, 125753, Control_c, 12, 11, 65
14, 125756, Control_c, 12, 11, 61
14, 125759, Control_c, 12, 11, 57
14, 125762, Control_c, 12, 11, 53
14, 125765, Control_c, 12, 11, 49
14, 125767, Note_on_c, 12, 52, 100
14, 125767, Note_on_c, 12, 56, 100
14, 125812, Note_on_c, 12, 56, 0
14, 125812, Note_on_c, 12, 52, 0
14, 125827, Note_on_c, 12, 52, 100
14, 125827, Note_on_c, 12, 56, 100
14, 125872, Note_on_c, 12, 56, 0
14, 125872, Note_on_c, 12, 52, 0
14, 125887, Note_on_c, 12, 56, 100
14, 125887, Note_on_c, 12, 52, 100
14, 125932, Note_on_c, 12, 52, 0
14, 125932, Note_on_c, 12, 56, 0
14, 125947, Note_on_c, 12, 56, 100
14, 125947, Note_on_c, 12, 52, 100
14, 125992, Note_on_c, 12, 52, 0
14, 125992, Note_on_c, 12, 56, 0
14, 126007, Note_on_c, 12, 56, 100
14, 126007, Note_on_c, 12, 52, 100
14, 126052, Note_on_c, 12, 52, 0
14, 126052, Note_on_c, 12, 56, 0
14, 126067, Note_on_c, 12, 56, 100
14, 126067, Note_on_c, 12, 52, 100
14, 126112, Note_on_c, 12, 52, 0
14, 126112, Note_on_c, 12, 56, 0
14, 126127, Note_on_c, 12, 52, 100
14, 126127, Note_on_c, 12, 56, 100
14, 126172, Note_on_c, 12, 56, 0
14, 126172, Note_on_c, 12, 52, 0
14, 126187, Note_on_c, 12, 52, 100
14, 126187, Note_on_c, 12, 56, 100
14, 126232, Note_on_c, 12, 56, 0
14, 126232, Note_on_c, 12, 52, 0
14, 126247, Note_on_c, 12, 52, 100
14, 126247, Note_on_c, 12, 56, 100
14, 126292, Note_on_c, 12, 56, 0
14, 126292, Note_on_c, 12, 52, 0
14, 126307, Note_on_c, 12, 52, 100
14, 126307, Note_on_c, 12, 56, 100
14, 126352, Note_on_c, 12, 56, 0
14, 126352, Note_on_c, 12, 52, 0
14, 126367, Note_on_c, 12, 52, 100
14, 126367, Note_on_c, 12, 56, 100
14, 126412, Note_on_c, 12, 56, 0
14, 126412, Note_on_c, 12, 52, 0
14, 126427, Note_on_c, 12, 56, 100
14, 126427, Note_on_c, 12, 52, 100
14, 126472, Note_on_c, 12, 52, 0
14, 126472, Note_on_c, 12, 56, 0
14, 126487, Note_on_c, 12, 52, 100
14, 126487, Note_on_c, 12, 56, 100
14, 126532, Note_on_c, 12, 56, 0
14, 126532, Note_on_c, 12, 52, 0
14, 126547, Note_on_c, 12, 52, 100
14, 126547, Note_on_c, 12, 56, 100
14, 126592, Note_on_c, 12, 56, 0
14, 126592, Note_on_c, 12, 52, 0
14, 126607, Note_on_c, 12, 52, 100
14, 126607, Note_on_c, 12, 56, 100
14, 126652, Note_on_c, 12, 56, 0
14, 126652, Note_on_c, 12, 52, 0
14, 126667, Note_on_c, 12, 56, 100
14, 126667, Note_on_c, 12, 52, 100
14, 126712, Note_on_c, 12, 52, 0
14, 126712, Note_on_c, 12, 56, 0
14, 126727, Note_on_c, 12, 54, 100
14, 126727, Note_on_c, 12, 57, 100
14, 126772, Note_on_c, 12, 57, 0
14, 126772, Note_on_c, 12, 54, 0
14, 126787, Note_on_c, 12, 54, 100
14, 126787, Note_on_c, 12, 57, 100
14, 126832, Note_on_c, 12, 57, 0
14, 126832, Note_on_c, 12, 54, 0
14, 126847, Note_on_c, 12, 54, 100
14, 126847, Note_on_c, 12, 57, 100
14, 126892, Note_on_c, 12, 57, 0
14, 126892, Note_on_c, 12, 54, 0
14, 126907, Note_on_c, 12, 54, 100
14, 126907, Note_on_c, 12, 57, 100
14, 126952, Note_on_c, 12, 57, 0
14, 126952, Note_on_c, 12, 54, 0
14, 126967, Note_on_c, 12, 54, 100
14, 126967, Note_on_c, 12, 57, 100
14, 127012, Note_on_c, 12, 57, 0
14, 127012, Note_on_c, 12, 54, 0
14, 127027, Note_on_c, 12, 57, 100
14, 127027, Note_on_c, 12, 54, 100
14, 127072, Note_on_c, 12, 54, 0
14, 127072, Note_on_c, 12, 57, 0
14, 127087, Note_on_c, 12, 57, 100
14, 127087, Note_on_c, 12, 54, 100
14, 127132, Note_on_c, 12, 54, 0
14, 127132, Note_on_c, 12, 57, 0
14, 127147, Note_on_c, 12, 57, 100
14, 127147, Note_on_c, 12, 54, 100
14, 127192, Note_on_c, 12, 54, 0
14, 127192, Note_on_c, 12, 57, 0
14, 127207, Note_on_c, 12, 57, 100
14, 127207, Note_on_c, 12, 54, 100
14, 127252, Note_on_c, 12, 54, 0
14, 127252, Note_on_c, 12, 57, 0
14, 127267, Note_on_c, 12, 54, 100
14, 127267, Note_on_c, 12, 57, 100
14, 127312, Note_on_c, 12, 57, 0
14, 127312, Note_on_c, 12, 54, 0
14, 127327, Note_on_c, 12, 54, 100
14, 127327, Note_on_c, 12, 57, 100
14, 127372, Note_on_c, 12, 57, 0
14, 127372, Note_on_c, 12, 54, 0
14, 127387, Note_on_c, 12, 54, 100
14, 127387, Note_on_c, 12, 57, 100
14, 127432, Note_on_c, 12, 57, 0
14, 127432, Note_on_c, 12, 54, 0
14, 127447, Note_on_c, 12, 54, 100
14, 127447, Note_on_c, 12, 57, 100
14, 127492, Note_on_c, 12, 57, 0
14, 127492, Note_on_c, 12, 54, 0
14, 127507, Note_on_c, 12, 54, 100
14, 127507, Note_on_c, 12, 57, 100
14, 127552, Note_on_c, 12, 57, 0
14, 127552, Note_on_c, 12, 54, 0
14, 127567, Note_on_c, 12, 54, 100
14, 127567, Note_on_c, 12, 57, 100
14, 127612, Note_on_c, 12, 57, 0
14, 127612, Note_on_c, 12, 54, 0
14, 127627, Note_on_c, 12, 54, 100
14, 127627, Note_on_c, 12, 57, 100
14, 127672, Note_on_c, 12, 57, 0
14, 127672, Note_on_c, 12, 54, 0
14, 127687, Control_c, 12, 11, 47
14, 127687, Note_on_c, 12, 59, 100
14, 127687, Note_on_c, 12, 56, 100
14, 127732, Note_on_c, 12, 56, 0
14, 127732, Note_on_c, 12, 59, 0
14, 127747, Note_on_c, 12, 56, 100
14, 127747, Note_on_c, 12, 59, 100
14, 127783, Control_c, 12, 11, 48
14, 127792, Note_on_c, 12, 59, 0
14, 127792, Note_on_c, 12, 56, 0
14, 127807, Note_on_c, 12, 59, 100
14, 127807, Note_on_c, 12, 56, 100
14, 127852, Note_on_c, 12, 56, 0
14, 127852, Note_on_c, 12, 59, 0
14, 127867, Note_on_c, 12, 59, 100
14, 127867, Note_on_c, 12, 56, 100
14, 127879, Control_c, 12, 11, 49
14, 127912, Note_on_c, 12, 56, 0
14, 127912, Note_on_c, 12, 59, 0
14, 127927, Note_on_c, 12, 56, 100
14, 127927, Note_on_c, 12, 59, 100
14, 127972, Note_on_c, 12, 59, 0
14, 127972, Note_on_c, 12, 56, 0
14, 127975, Control_c, 12, 11, 50
14, 127987, Note_on_c, 12, 56, 100
14, 127987, Note_on_c, 12, 59, 100
14, 128032, Note_on_c, 12, 59, 0
14, 128032, Note_on_c, 12, 56, 0
14, 128047, Note_on_c, 12, 56, 100
14, 128047, Note_on_c, 12, 59, 100
14, 128071, Control_c, 12, 11, 51
14, 128092, Note_on_c, 12, 59, 0
14, 128092, Note_on_c, 12, 56, 0
14, 128107, Note_on_c, 12, 56, 100
14, 128107, Note_on_c, 12, 59, 100
14, 128152, Note_on_c, 12, 59, 0
14, 128152, Note_on_c, 12, 56, 0
14, 128167, Control_c, 12, 11, 52
14, 128167, Note_on_c, 12, 56, 100
14, 128167, Note_on_c, 12, 59, 100
14, 128212, Note_on_c, 12, 59, 0
14, 128212, Note_on_c, 12, 56, 0
14, 128227, Note_on_c, 12, 56, 100
14, 128227, Note_on_c, 12, 59, 100
14, 128263, Control_c, 12, 11, 53
14, 128272, Note_on_c, 12, 59, 0
14, 128272, Note_on_c, 12, 56, 0
14, 128287, Note_on_c, 12, 59, 100
14, 128287, Note_on_c, 12, 56, 100
14, 128332, Note_on_c, 12, 56, 0
14, 128332, Note_on_c, 12, 59, 0
14, 128347, Note_on_c, 12, 56, 100
14, 128347, Note_on_c, 12, 59, 100
14, 128359, Control_c, 12, 11, 54
14, 128392, Note_on_c, 12, 59, 0
14, 128392, Note_on_c, 12, 56, 0
14, 128407, Note_on_c, 12, 59, 100
14, 128407, Note_on_c, 12, 56, 100
14, 128452, Note_on_c, 12, 56, 0
14, 128452, Note_on_c, 12, 59, 0
14, 128455, Control_c, 12, 11, 55
14, 128467, Note_on_c, 12, 59, 100
14, 128467, Note_on_c, 12, 56, 100
14, 128512, Note_on_c, 12, 56, 0
14, 128512, Note_on_c, 12, 59, 0
14, 128527, Note_on_c, 12, 59, 100
14, 128527, Note_on_c, 12, 56, 100
14, 128551, Control_c, 12, 11, 56
14, 128572, Note_on_c, 12, 56, 0
14, 128572, Note_on_c, 12, 59, 0
14, 128587, Note_on_c, 12, 56, 100
14, 128587, Note_on_c, 12, 59, 100
14, 128632, Note_on_c, 12, 59, 0
14, 128632, Note_on_c, 12, 56, 0
14, 128647, Control_c, 12, 11, 57
14, 128647, Note_on_c, 12, 57, 100
14, 128647, Note_on_c, 12, 60, 100
14, 128692, Note_on_c, 12, 60, 0
14, 128692, Note_on_c, 12, 57, 0
14, 128707, Note_on_c, 12, 57, 100
14, 128707, Note_on_c, 12, 60, 100
14, 128743, Control_c, 12, 11, 58
14, 128752, Note_on_c, 12, 60, 0
14, 128752, Note_on_c, 12, 57, 0
14, 128767, Note_on_c, 12, 57, 100
14, 128767, Note_on_c, 12, 60, 100
14, 128812, Note_on_c, 12, 60, 0
14, 128812, Note_on_c, 12, 57, 0
14, 128827, Note_on_c, 12, 57, 100
14, 128827, Note_on_c, 12, 60, 100
14, 128839, Control_c, 12, 11, 59
14, 128872, Note_on_c, 12, 60, 0
14, 128872, Note_on_c, 12, 57, 0
14, 128887, Note_on_c, 12, 60, 100
14, 128887, Note_on_c, 12, 57, 100
14, 128932, Note_on_c, 12, 57, 0
14, 128932, Note_on_c, 12, 60, 0
14, 128935, Control_c, 12, 11, 60
14, 128947, Note_on_c, 12, 60, 100
14, 128947, Note_on_c, 12, 57, 100
14, 128992, Note_on_c, 12, 57, 0
14, 128992, Note_on_c, 12, 60, 0
14, 129007, Note_on_c, 12, 57, 100
14, 129007, Note_on_c, 12, 60, 100
14, 129031, Control_c, 12, 11, 61
14, 129052, Note_on_c, 12, 60, 0
14, 129052, Note_on_c, 12, 57, 0
14, 129067, Note_on_c, 12, 57, 100
14, 129067, Note_on_c, 12, 60, 100
14, 129112, Note_on_c, 12, 60, 0
14, 129112, Note_on_c, 12, 57, 0
14, 129127, Control_c, 12, 11, 62
14, 129127, Note_on_c, 12, 57, 100
14, 129127, Note_on_c, 12, 60, 100
14, 129172, Note_on_c, 12, 60, 0
14, 129172, Note_on_c, 12, 57, 0
14, 129187, Note_on_c, 12, 57, 100
14, 129187, Note_on_c, 12, 60, 100
14, 129223, Control_c, 12, 11, 63
14, 129232, Note_on_c, 12, 60, 0
14, 129232, Note_on_c, 12, 57, 0
14, 129247, Note_on_c, 12, 57, 100
14, 129247, Note_on_c, 12, 60, 100
14, 129292, Note_on_c, 12, 60, 0
14, 129292, Note_on_c, 12, 57, 0
14, 129307, Note_on_c, 12, 57, 100
14, 129307, Note_on_c, 12, 60, 100
14, 129319, Control_c, 12, 11, 64
14, 129352, Note_on_c, 12, 60, 0
14, 129352, Note_on_c, 12, 57, 0
14, 129367, Note_on_c, 12, 57, 100
14, 129367, Note_on_c, 12, 60, 100
14, 129412, Note_on_c, 12, 60, 0
14, 129412, Note_on_c, 12, 57, 0
14, 129415, Control_c, 12, 11, 65
14, 129427, Note_on_c, 12, 57, 100
14, 129427, Note_on_c, 12, 60, 100
14, 129472, Note_on_c, 12, 60, 0
14, 129472, Note_on_c, 12, 57, 0
14, 129487, Note_on_c, 12, 57, 100
14, 129487, Note_on_c, 12, 60, 100
14, 129511, Control_c, 12, 11, 66
14, 129532, Note_on_c, 12, 60, 0
14, 129532, Note_on_c, 12, 57, 0
14, 129547, Note_on_c, 12, 57, 100
14, 129547, Note_on_c, 12, 60, 100
14, 129592, Note_on_c, 12, 60, 0
14, 129592, Note_on_c, 12, 57, 0
14, 129607, Control_c, 12, 11, 67
14, 129607, Note_on_c, 12, 69, 100
14, 129607, Note_on_c, 12, 66, 100
14, 129652, Note_on_c, 12, 66, 0
14, 129652, Note_on_c, 12, 69, 0
14, 129667, Note_on_c, 12, 66, 100
14, 129667, Note_on_c, 12, 69, 100
14, 129703, Control_c, 12, 11, 68
14, 129712, Note_on_c, 12, 69, 0
14, 129712, Note_on_c, 12, 66, 0
14, 129727, Note_on_c, 12, 66, 100
14, 129727, Note_on_c, 12, 69, 100
14, 129772, Note_on_c, 12, 69, 0
14, 129772, Note_on_c, 12, 66, 0
14, 129787, Note_on_c, 12, 69, 100
14, 129787, Note_on_c, 12, 66, 100
14, 129799, Control_c, 12, 11, 69
14, 129832, Note_on_c, 12, 66, 0
14, 129832, Note_on_c, 12, 69, 0
14, 129847, Note_on_c, 12, 69, 100
14, 129847, Note_on_c, 12, 66, 100
14, 129892, Note_on_c, 12, 66, 0
14, 129892, Note_on_c, 12, 69, 0
14, 129895, Control_c, 12, 11, 70
14, 129907, Note_on_c, 12, 69, 100
14, 129907, Note_on_c, 12, 66, 100
14, 129952, Note_on_c, 12, 66, 0
14, 129952, Note_on_c, 12, 69, 0
14, 129967, Note_on_c, 12, 66, 100
14, 129967, Note_on_c, 12, 69, 100
14, 129991, Control_c, 12, 11, 71
14, 130012, Note_on_c, 12, 69, 0
14, 130012, Note_on_c, 12, 66, 0
14, 130027, Note_on_c, 12, 66, 100
14, 130027, Note_on_c, 12, 69, 100
14, 130072, Note_on_c, 12, 69, 0
14, 130072, Note_on_c, 12, 66, 0
14, 130087, Control_c, 12, 11, 72
14, 130087, Note_on_c, 12, 69, 100
14, 130087, Note_on_c, 12, 66, 100
14, 130132, Note_on_c, 12, 66, 0
14, 130132, Note_on_c, 12, 69, 0
14, 130147, Note_on_c, 12, 69, 100
14, 130147, Note_on_c, 12, 66, 100
14, 130183, Control_c, 12, 11, 73
14, 130192, Note_on_c, 12, 66, 0
14, 130192, Note_on_c, 12, 69, 0
14, 130207, Note_on_c, 12, 66, 100
14, 130207, Note_on_c, 12, 69, 100
14, 130252, Note_on_c, 12, 69, 0
14, 130252, Note_on_c, 12, 66, 0
14, 130267, Note_on_c, 12, 69, 100
14, 130267, Note_on_c, 12, 66, 100
14, 130279, Control_c, 12, 11, 74
14, 130312, Note_on_c, 12, 66, 0
14, 130312, Note_on_c, 12, 69, 0
14, 130327, Note_on_c, 12, 66, 100
14, 130327, Note_on_c, 12, 69, 100
14, 130372, Note_on_c, 12, 69, 0
14, 130372, Note_on_c, 12, 66, 0
14, 130375, Control_c, 12, 11, 75
14, 130387, Note_on_c, 12, 66, 100
14, 130387, Note_on_c, 12, 69, 100
14, 130432, Note_on_c, 12, 69, 0
14, 130432, Note_on_c, 12, 66, 0
14, 130447, Note_on_c, 12, 66, 100
14, 130447, Note_on_c, 12, 69, 100
14, 130471, Control_c, 12, 11, 76
14, 130492, Note_on_c, 12, 69, 0
14, 130492, Note_on_c, 12, 66, 0
14, 130507, Note_on_c, 12, 66, 100
14, 130507, Note_on_c, 12, 69, 100
14, 130552, Note_on_c, 12, 69, 0
14, 130552, Note_on_c, 12, 66, 0
14, 130567, Control_c, 12, 11, 77
14, 130567, Note_on_c, 12, 66, 100
14, 130567, Note_on_c, 12, 69, 100
14, 130612, Note_on_c, 12, 69, 0
14, 130612, Note_on_c, 12, 66, 0
14, 130627, Note_on_c, 12, 69, 100
14, 130627, Note_on_c, 12, 66, 100
14, 130663, Control_c, 12, 11, 78
14, 130672, Note_on_c, 12, 66, 0
14, 130672, Note_on_c, 12, 69, 0
14, 130687, Note_on_c, 12, 66, 100
14, 130687, Note_on_c, 12, 69, 100
14, 130732, Note_on_c, 12, 69, 0
14, 130732, Note_on_c, 12, 66, 0
14, 130747, Note_on_c, 12, 66, 100
14, 130747, Note_on_c, 12, 69, 100
14, 130759, Control_c, 12, 11, 79
14, 130792, Note_on_c, 12, 69, 0
14, 130792, Note_on_c, 12, 66, 0
14, 130807, Note_on_c, 12, 66, 100
14, 130807, Note_on_c, 12, 69, 100
14, 130852, Note_on_c, 12, 69, 0
14, 130852, Note_on_c, 12, 66, 0
14, 130855, Control_c, 12, 11, 80
14, 130867, Note_on_c, 12, 66, 100
14, 130867, Note_on_c, 12, 69, 100
14, 130912, Note_on_c, 12, 69, 0
14, 130912, Note_on_c, 12, 66, 0
14, 130927, Note_on_c, 12, 66, 100
14, 130927, Note_on_c, 12, 69, 100
14, 130951, Control_c, 12, 11, 81
14, 130972, Note_on_c, 12, 69, 0
14, 130972, Note_on_c, 12, 66, 0
14, 130987, Note_on_c, 12, 66, 100
14, 130987, Note_on_c, 12, 69, 100
14, 131032, Note_on_c, 12, 69, 0
14, 131032, Note_on_c, 12, 66, 0
14, 131047, Control_c, 12, 11, 82
14, 131047, Note_on_c, 12, 66, 100
14, 131047, Note_on_c, 12, 69, 100
14, 131092, Note_on_c, 12, 69, 0
14, 131092, Note_on_c, 12, 66, 0
14, 131107, Note_on_c, 12, 69, 100
14, 131107, Note_on_c, 12, 66, 100
14, 131143, Control_c, 12, 11, 83
14, 131152, Note_on_c, 12, 66, 0
14, 131152, Note_on_c, 12, 69, 0
14, 131167, Note_on_c, 12, 69, 100
14, 131167, Note_on_c, 12, 66, 100
14, 131212, Note_on_c, 12, 66, 0
14, 131212, Note_on_c, 12, 69, 0
14, 131227, Note_on_c, 12, 66, 100
14, 131227, Note_on_c, 12, 69, 100
14, 131239, Control_c, 12, 11, 84
14, 131272, Note_on_c, 12, 69, 0
14, 131272, Note_on_c, 12, 66, 0
14, 131287, Note_on_c, 12, 66, 100
14, 131287, Note_on_c, 12, 69, 100
14, 131332, Note_on_c, 12, 69, 0
14, 131332, Note_on_c, 12, 66, 0
14, 131335, Control_c, 12, 11, 85
14, 131347, Note_on_c, 12, 66, 100
14, 131347, Note_on_c, 12, 69, 100
14, 131392, Note_on_c, 12, 69, 0
14, 131392, Note_on_c, 12, 66, 0
14, 131407, Note_on_c, 12, 66, 100
14, 131407, Note_on_c, 12, 69, 100
14, 131431, Control_c, 12, 11, 86
14, 131452, Note_on_c, 12, 69, 0
14, 131452, Note_on_c, 12, 66, 0
14, 131467, Note_on_c, 12, 66, 100
14, 131467, Note_on_c, 12, 69, 100
14, 131512, Note_on_c, 12, 69, 0
14, 131512, Note_on_c, 12, 66, 0
14, 131527, Control_c, 12, 11, 87
14, 131527, Note_on_c, 12, 71, 100
14, 131527, Note_on_c, 12, 69, 100
14, 131527, Note_on_c, 12, 66, 100
14, 131572, Note_on_c, 12, 66, 0
14, 131572, Note_on_c, 12, 69, 0
14, 131572, Note_on_c, 12, 71, 0
14, 131587, Note_on_c, 12, 69, 100
14, 131587, Note_on_c, 12, 71, 100
14, 131587, Note_on_c, 12, 66, 100
14, 131632, Note_on_c, 12, 66, 0
14, 131632, Note_on_c, 12, 71, 0
14, 131632, Note_on_c, 12, 69, 0
14, 131647, Note_on_c, 12, 69, 100
14, 131647, Note_on_c, 12, 71, 100
14, 131647, Note_on_c, 12, 66, 100
14, 131692, Note_on_c, 12, 66, 0
14, 131692, Note_on_c, 12, 71, 0
14, 131692, Note_on_c, 12, 69, 0
14, 131707, Note_on_c, 12, 66, 100
14, 131707, Note_on_c, 12, 69, 100
14, 131707, Note_on_c, 12, 71, 100
14, 131752, Note_on_c, 12, 71, 0
14, 131752, Note_on_c, 12, 69, 0
14, 131752, Note_on_c, 12, 66, 0
14, 131767, Note_on_c, 12, 66, 100
14, 131767, Note_on_c, 12, 69, 100
14, 131767, Note_on_c, 12, 71, 100
14, 131812, Note_on_c, 12, 71, 0
14, 131812, Note_on_c, 12, 69, 0
14, 131812, Note_on_c, 12, 66, 0
14, 131827, Note_on_c, 12, 71, 100
14, 131827, Note_on_c, 12, 69, 100
14, 131827, Note_on_c, 12, 66, 100
14, 131872, Note_on_c, 12, 66, 0
14, 131872, Note_on_c, 12, 69, 0
14, 131872, Note_on_c, 12, 71, 0
14, 131887, Note_on_c, 12, 69, 100
14, 131887, Note_on_c, 12, 71, 100
14, 131887, Note_on_c, 12, 66, 100
14, 131932, Note_on_c, 12, 66, 0
14, 131932, Note_on_c, 12, 71, 0
14, 131932, Note_on_c, 12, 69, 0
14, 131947, Note_on_c, 12, 69, 100
14, 131947, Note_on_c, 12, 66, 100
14, 131947, Note_on_c, 12, 71, 100
14, 131992, Note_on_c, 12, 71, 0
14, 131992, Note_on_c, 12, 66, 0
14, 131992, Note_on_c, 12, 69, 0
14, 132007, Note_on_c, 12, 71, 100
14, 132007, Note_on_c, 12, 66, 100
14, 132007, Note_on_c, 12, 69, 100
14, 132052, Note_on_c, 12, 69, 0
14, 132052, Note_on_c, 12, 66, 0
14, 132052, Note_on_c, 12, 71, 0
14, 132067, Note_on_c, 12, 66, 100
14, 132067, Note_on_c, 12, 69, 100
14, 132067, Note_on_c, 12, 71, 100
14, 132112, Note_on_c, 12, 71, 0
14, 132112, Note_on_c, 12, 69, 0
14, 132112, Note_on_c, 12, 66, 0
14, 132127, Note_on_c, 12, 71, 100
14, 132127, Note_on_c, 12, 69, 100
14, 132127, Note_on_c, 12, 66, 100
14, 132172, Note_on_c, 12, 66, 0
14, 132172, Note_on_c, 12, 69, 0
14, 132172, Note_on_c, 12, 71, 0
14, 132187, Note_on_c, 12, 66, 100
14, 132187, Note_on_c, 12, 69, 100
14, 132187, Note_on_c, 12, 71, 100
14, 132232, Note_on_c, 12, 71, 0
14, 132232, Note_on_c, 12, 69, 0
14, 132232, Note_on_c, 12, 66, 0
14, 132247, Note_on_c, 12, 71, 100
14, 132247, Note_on_c, 12, 66, 100
14, 132247, Note_on_c, 12, 69, 100
14, 132292, Note_on_c, 12, 69, 0
14, 132292, Note_on_c, 12, 66, 0
14, 132292, Note_on_c, 12, 71, 0
14, 132307, Note_on_c, 12, 66, 100
14, 132307, Note_on_c, 12, 71, 100
14, 132307, Note_on_c, 12, 69, 100
14, 132352, Note_on_c, 12, 69, 0
14, 132352, Note_on_c, 12, 71, 0
14, 132352, Note_on_c, 12, 66, 0
14, 132367, Note_on_c, 12, 71, 100
14, 132367, Note_on_c, 12, 66, 100
14, 132367, Note_on_c, 12, 69, 100
14, 132412, Note_on_c, 12, 69, 0
14, 132412, Note_on_c, 12, 66, 0
14, 132412, Note_on_c, 12, 71, 0
14, 132427, Note_on_c, 12, 71, 100
14, 132427, Note_on_c, 12, 66, 100
14, 132427, Note_on_c, 12, 69, 100
14, 132472, Note_on_c, 12, 69, 0
14, 132472, Note_on_c, 12, 66, 0
14, 132472, Note_on_c, 12, 71, 0
14, 132487, Control_c, 12, 11, 87
14, 132487, Note_on_c, 12, 71, 100
14, 132487, Note_on_c, 12, 69, 100
14, 132487, Note_on_c, 12, 66, 100
14, 132532, Note_on_c, 12, 66, 0
14, 132532, Note_on_c, 12, 69, 0
14, 132532, Note_on_c, 12, 71, 0
14, 132535, Control_c, 12, 11, 88
14, 132547, Note_on_c, 12, 71, 100
14, 132547, Note_on_c, 12, 66, 100
14, 132547, Note_on_c, 12, 69, 100
14, 132583, Control_c, 12, 11, 89
14, 132592, Note_on_c, 12, 69, 0
14, 132592, Note_on_c, 12, 66, 0
14, 132592, Note_on_c, 12, 71, 0
14, 132607, Note_on_c, 12, 66, 100
14, 132607, Note_on_c, 12, 69, 100
14, 132607, Note_on_c, 12, 71, 100
14, 132631, Control_c, 12, 11, 90
14, 132652, Note_on_c, 12, 71, 0
14, 132652, Note_on_c, 12, 69, 0
14, 132652, Note_on_c, 12, 66, 0
14, 132667, Note_on_c, 12, 66, 100
14, 132667, Note_on_c, 12, 71, 100
14, 132667, Note_on_c, 12, 69, 100
14, 132679, Control_c, 12, 11, 91
14, 132712, Note_on_c, 12, 69, 0
14, 132712, Note_on_c, 12, 71, 0
14, 132712, Note_on_c, 12, 66, 0
14, 132727, Control_c, 12, 11, 92
14, 132727, Note_on_c, 12, 69, 100
14, 132727, Note_on_c, 12, 66, 100
14, 132727, Note_on_c, 12, 71, 100
14, 132772, Note_on_c, 12, 71, 0
14, 132772, Note_on_c, 12, 66, 0
14, 132772, Note_on_c, 12, 69, 0
14, 132775, Control_c, 12, 11, 93
14, 132787, Note_on_c, 12, 71, 100
14, 132787, Note_on_c, 12, 66, 100
14, 132787, Note_on_c, 12, 69, 100
14, 132823, Control_c, 12, 11, 94
14, 132832, Note_on_c, 12, 69, 0
14, 132832, Note_on_c, 12, 66, 0
14, 132832, Note_on_c, 12, 71, 0
14, 132847, Note_on_c, 12, 71, 100
14, 132847, Note_on_c, 12, 66, 100
14, 132847, Note_on_c, 12, 69, 100
14, 132871, Control_c, 12, 11, 95
14, 132892, Note_on_c, 12, 69, 0
14, 132892, Note_on_c, 12, 66, 0
14, 132892, Note_on_c, 12, 71, 0
14, 132907, Note_on_c, 12, 66, 100
14, 132907, Note_on_c, 12, 71, 100
14, 132907, Note_on_c, 12, 69, 100
14, 132919, Control_c, 12, 11, 96
14, 132952, Note_on_c, 12, 69, 0
14, 132952, Note_on_c, 12, 71, 0
14, 132952, Note_on_c, 12, 66, 0
14, 132967, Control_c, 12, 11, 97
14, 132967, Note_on_c, 12, 66, 100
14, 132967, Note_on_c, 12, 71, 100
14, 132967, Note_on_c, 12, 69, 100
14, 133012, Note_on_c, 12, 69, 0
14, 133012, Note_on_c, 12, 71, 0
14, 133012, Note_on_c, 12, 66, 0
14, 133015, Control_c, 12, 11, 98
14, 133027, Note_on_c, 12, 71, 100
14, 133027, Note_on_c, 12, 66, 100
14, 133027, Note_on_c, 12, 69, 100
14, 133063, Control_c, 12, 11, 99
14, 133072, Note_on_c, 12, 69, 0
14, 133072, Note_on_c, 12, 66, 0
14, 133072, Note_on_c, 12, 71, 0
14, 133087, Note_on_c, 12, 66, 100
14, 133087, Note_on_c, 12, 71, 100
14, 133087, Note_on_c, 12, 69, 100
14, 133111, Control_c, 12, 11, 100
14, 133132, Note_on_c, 12, 69, 0
14, 133132, Note_on_c, 12, 71, 0
14, 133132, Note_on_c, 12, 66, 0
14, 133147, Note_on_c, 12, 66, 100
14, 133147, Note_on_c, 12, 71, 100
14, 133147, Note_on_c, 12, 69, 100
14, 133159, Control_c, 12, 11, 101
14, 133192, Note_on_c, 12, 69, 0
14, 133192, Note_on_c, 12, 71, 0
14, 133192, Note_on_c, 12, 66, 0
14, 133207, Control_c, 12, 11, 102
14, 133207, Note_on_c, 12, 69, 100
14, 133207, Note_on_c, 12, 71, 100
14, 133207, Note_on_c, 12, 66, 100
14, 133252, Note_on_c, 12, 66, 0
14, 133252, Note_on_c, 12, 71, 0
14, 133252, Note_on_c, 12, 69, 0
14, 133255, Control_c, 12, 11, 103
14, 133267, Note_on_c, 12, 66, 100
14, 133267, Note_on_c, 12, 71, 100
14, 133267, Note_on_c, 12, 69, 100
14, 133303, Control_c, 12, 11, 104
14, 133312, Note_on_c, 12, 69, 0
14, 133312, Note_on_c, 12, 71, 0
14, 133312, Note_on_c, 12, 66, 0
14, 133327, Note_on_c, 12, 66, 100
14, 133327, Note_on_c, 12, 69, 100
14, 133327, Note_on_c, 12, 71, 100
14, 133351, Control_c, 12, 11, 105
14, 133372, Note_on_c, 12, 71, 0
14, 133372, Note_on_c, 12, 69, 0
14, 133372, Note_on_c, 12, 66, 0
14, 133387, Note_on_c, 12, 69, 100
14, 133387, Note_on_c, 12, 66, 100
14, 133387, Note_on_c, 12, 71, 100
14, 133399, Control_c, 12, 11, 106
14, 133432, Note_on_c, 12, 71, 0
14, 133432, Note_on_c, 12, 66, 0
14, 133432, Note_on_c, 12, 69, 0
14, 133447, Control_c, 12, 11, 107
14, 133447, Note_on_c, 12, 71, 100
14, 133447, Note_on_c, 12, 69, 100
14, 133447, Note_on_c, 12, 66, 100
14, 133492, Note_on_c, 12, 66, 0
14, 133492, Note_on_c, 12, 69, 0
14, 133492, Note_on_c, 12, 71, 0
14, 133507, Note_on_c, 12, 69, 100
14, 133507, Note_on_c, 12, 71, 100
14, 133507, Note_on_c, 12, 66, 100
14, 133552, Note_on_c, 12, 66, 0
14, 133552, Note_on_c, 12, 71, 0
14, 133552, Note_on_c, 12, 69, 0
14, 133567, Note_on_c, 12, 69, 100
14, 133567, Note_on_c, 12, 71, 100
14, 133567, Note_on_c, 12, 66, 100
14, 133612, Note_on_c, 12, 66, 0
14, 133612, Note_on_c, 12, 71, 0
14, 133612, Note_on_c, 12, 69, 0
14, 133627, Note_on_c, 12, 66, 100
14, 133627, Note_on_c, 12, 69, 100
14, 133627, Note_on_c, 12, 71, 100
14, 133672, Note_on_c, 12, 71, 0
14, 133672, Note_on_c, 12, 69, 0
14, 133672, Note_on_c, 12, 66, 0
14, 133687, Note_on_c, 12, 66, 100
14, 133687, Note_on_c, 12, 69, 100
14, 133687, Note_on_c, 12, 71, 100
14, 133732, Note_on_c, 12, 71, 0
14, 133732, Note_on_c, 12, 69, 0
14, 133732, Note_on_c, 12, 66, 0
14, 133747, Note_on_c, 12, 71, 100
14, 133747, Note_on_c, 12, 69, 100
14, 133747, Note_on_c, 12, 66, 100
14, 133792, Note_on_c, 12, 66, 0
14, 133792, Note_on_c, 12, 69, 0
14, 133792, Note_on_c, 12, 71, 0
14, 133807, Note_on_c, 12, 69, 100
14, 133807, Note_on_c, 12, 71, 100
14, 133807, Note_on_c, 12, 66, 100
14, 133852, Note_on_c, 12, 66, 0
14, 133852, Note_on_c, 12, 71, 0
14, 133852, Note_on_c, 12, 69, 0
14, 133867, Note_on_c, 12, 69, 100
14, 133867, Note_on_c, 12, 66, 100
14, 133867, Note_on_c, 12, 71, 100
14, 133912, Note_on_c, 12, 71, 0
14, 133912, Note_on_c, 12, 66, 0
14, 133912, Note_on_c, 12, 69, 0
14, 133927, Note_on_c, 12, 71, 100
14, 133927, Note_on_c, 12, 66, 100
14, 133927, Note_on_c, 12, 69, 100
14, 133972, Note_on_c, 12, 69, 0
14, 133972, Note_on_c, 12, 66, 0
14, 133972, Note_on_c, 12, 71, 0
14, 133987, Note_on_c, 12, 66, 100
14, 133987, Note_on_c, 12, 69, 100
14, 133987, Note_on_c, 12, 71, 100
14, 134032, Note_on_c, 12, 71, 0
14, 134032, Note_on_c, 12, 69, 0
14, 134032, Note_on_c, 12, 66, 0
14, 134047, Note_on_c, 12, 69, 100
14, 134047, Note_on_c, 12, 66, 100
14, 134047, Note_on_c, 12, 71, 100
14, 134092, Note_on_c, 12, 71, 0
14, 134092, Note_on_c, 12, 66, 0
14, 134092, Note_on_c, 12, 69, 0
14, 134107, Note_on_c, 12, 69, 100
14, 134107, Note_on_c, 12, 71, 100
14, 134107, Note_on_c, 12, 66, 100
14, 134152, Note_on_c, 12, 66, 0
14, 134152, Note_on_c, 12, 71, 0
14, 134152, Note_on_c, 12, 69, 0
14, 134167, Note_on_c, 12, 71, 100
14, 134167, Note_on_c, 12, 66, 100
14, 134167, Note_on_c, 12, 69, 100
14, 134212, Note_on_c, 12, 69, 0
14, 134212, Note_on_c, 12, 66, 0
14, 134212, Note_on_c, 12, 71, 0
14, 134227, Note_on_c, 12, 66, 100
14, 134227, Note_on_c, 12, 71, 100
14, 134227, Note_on_c, 12, 69, 100
14, 134272, Note_on_c, 12, 69, 0
14, 134272, Note_on_c, 12, 71, 0
14, 134272, Note_on_c, 12, 66, 0
14, 134287, Note_on_c, 12, 71, 100
14, 134287, Note_on_c, 12, 69, 100
14, 134287, Note_on_c, 12, 66, 100
14, 134332, Note_on_c, 12, 66, 0
14, 134332, Note_on_c, 12, 69, 0
14, 134332, Note_on_c, 12, 71, 0
14, 134347, Note_on_c, 12, 69, 100
14, 134347, Note_on_c, 12, 66, 100
14, 134347, Note_on_c, 12, 71, 100
14, 134392, Note_on_c, 12, 71, 0
14, 134392, Note_on_c, 12, 66, 0
14, 134392, Note_on_c, 12, 69, 0
14, 134407, Note_on_c, 12, 71, 100
14, 134407, Note_on_c, 12, 69, 100
14, 134407, Note_on_c, 12, 66, 100
14, 134452, Note_on_c, 12, 66, 0
14, 134452, Note_on_c, 12, 69, 0
14, 134452, Note_on_c, 12, 71, 0
14, 134467, Note_on_c, 12, 69, 100
14, 134467, Note_on_c, 12, 71, 100
14, 134467, Note_on_c, 12, 66, 100
14, 134512, Note_on_c, 12, 66, 0
14, 134512, Note_on_c, 12, 71, 0
14, 134512, Note_on_c, 12, 69, 0
14, 134527, Note_on_c, 12, 69, 100
14, 134527, Note_on_c, 12, 71, 100
14, 134527, Note_on_c, 12, 66, 100
14, 134572, Note_on_c, 12, 66, 0
14, 134572, Note_on_c, 12, 71, 0
14, 134572, Note_on_c, 12, 69, 0
14, 134587, Note_on_c, 12, 66, 100
14, 134587, Note_on_c, 12, 69, 100
14, 134587, Note_on_c, 12, 71, 100
14, 134632, Note_on_c, 12, 71, 0
14, 134632, Note_on_c, 12, 69, 0
14, 134632, Note_on_c, 12, 66, 0
14, 134647, Note_on_c, 12, 69, 100
14, 134647, Note_on_c, 12, 66, 100
14, 134647, Note_on_c, 12, 71, 100
14, 134692, Note_on_c, 12, 71, 0
14, 134692, Note_on_c, 12, 66, 0
14, 134692, Note_on_c, 12, 69, 0
14, 134707, Note_on_c, 12, 69, 100
14, 134707, Note_on_c, 12, 66, 100
14, 134707, Note_on_c, 12, 71, 100
14, 134752, Note_on_c, 12, 71, 0
14, 134752, Note_on_c, 12, 66, 0
14, 134752, Note_on_c, 12, 69, 0
14, 134767, Note_on_c, 12, 71, 100
14, 134767, Note_on_c, 12, 66, 100
14, 134767, Note_on_c, 12, 69, 100
14, 134812, Note_on_c, 12, 69, 0
14, 134812, Note_on_c, 12, 66, 0
14, 134812, Note_on_c, 12, 71, 0
14, 134827, Note_on_c, 12, 66, 100
14, 134827, Note_on_c, 12, 71, 100
14, 134827, Note_on_c, 12, 69, 100
14, 134872, Note_on_c, 12, 69, 0
14, 134872, Note_on_c, 12, 71, 0
14, 134872, Note_on_c, 12, 66, 0
14, 134887, Note_on_c, 12, 69, 100
14, 134887, Note_on_c, 12, 71, 100
14, 134887, Note_on_c, 12, 66, 100
14, 134932, Note_on_c, 12, 66, 0
14, 134932, Note_on_c, 12, 71, 0
14, 134932, Note_on_c, 12, 69, 0
14, 134947, Note_on_c, 12, 66, 100
14, 134947, Note_on_c, 12, 69, 100
14, 134947, Note_on_c, 12, 71, 100
14, 134992, Note_on_c, 12, 71, 0
14, 134992, Note_on_c, 12, 69, 0
14, 134992, Note_on_c, 12, 66, 0
14, 135007, Note_on_c, 12, 71, 100
14, 135007, Note_on_c, 12, 69, 100
14, 135007, Note_on_c, 12, 66, 100
14, 135052, Note_on_c, 12, 66, 0
14, 135052, Note_on_c, 12, 69, 0
14, 135052, Note_on_c, 12, 71, 0
14, 135067, Note_on_c, 12, 66, 100
14, 135067, Note_on_c, 12, 71, 100
14, 135067, Note_on_c, 12, 69, 100
14, 135112, Note_on_c, 12, 69, 0
14, 135112, Note_on_c, 12, 71, 0
14, 135112, Note_on_c, 12, 66, 0
14, 135127, Note_on_c, 12, 66, 100
14, 135127, Note_on_c, 12, 71, 100
14, 135127, Note_on_c, 12, 69, 100
14, 135172, Note_on_c, 12, 69, 0
14, 135172, Note_on_c, 12, 71, 0
14, 135172, Note_on_c, 12, 66, 0
14, 135187, Note_on_c, 12, 71, 100
14, 135187, Note_on_c, 12, 69, 100
14, 135187, Note_on_c, 12, 66, 100
14, 135232, Note_on_c, 12, 66, 0
14, 135232, Note_on_c, 12, 69, 0
14, 135232, Note_on_c, 12, 71, 0
14, 135247, Note_on_c, 12, 66, 100
14, 135247, Note_on_c, 12, 71, 100
14, 135247, Note_on_c, 12, 69, 100
14, 135292, Note_on_c, 12, 69, 0
14, 135292, Note_on_c, 12, 71, 0
14, 135292, Note_on_c, 12, 66, 0
14, 135307, Note_on_c, 12, 71, 100
14, 135307, Note_on_c, 12, 66, 100
14, 135307, Note_on_c, 12, 69, 100
14, 135352, Note_on_c, 12, 69, 0
14, 135352, Note_on_c, 12, 66, 0
14, 135352, Note_on_c, 12, 71, 0
14, 135367, Control_c, 12, 11, 127
14, 135367, Note_on_c, 12, 76, 100
14, 135384, Control_c, 12, 11, 125
14, 135402, Control_c, 12, 11, 123
14, 135412, Note_on_c, 12, 76, 0
14, 135420, Control_c, 12, 11, 121
14, 135427, Note_on_c, 12, 76, 100
14, 135438, Control_c, 12, 11, 119
14, 135456, Control_c, 12, 11, 117
14, 135472, Note_on_c, 12, 76, 0
14, 135474, Control_c, 12, 11, 115
14, 135487, Note_on_c, 12, 75, 100
14, 135492, Control_c, 12, 11, 113
14, 135510, Control_c, 12, 11, 111
14, 135528, Control_c, 12, 11, 109
14, 135532, Note_on_c, 12, 75, 0
14, 135546, Control_c, 12, 11, 107
14, 135547, Note_on_c, 12, 75, 100
14, 135592, Note_on_c, 12, 75, 0
14, 135607, Control_c, 12, 11, 127
14, 135607, Note_on_c, 12, 73, 100
14, 135624, Control_c, 12, 11, 125
14, 135642, Control_c, 12, 11, 123
14, 135652, Note_on_c, 12, 73, 0
14, 135660, Control_c, 12, 11, 121
14, 135667, Note_on_c, 12, 73, 100
14, 135678, Control_c, 12, 11, 119
14, 135696, Control_c, 12, 11, 117
14, 135712, Note_on_c, 12, 73, 0
14, 135714, Control_c, 12, 11, 115
14, 135727, Note_on_c, 12, 71, 100
14, 135732, Control_c, 12, 11, 113
14, 135750, Control_c, 12, 11, 111
14, 135768, Control_c, 12, 11, 109
14, 135772, Note_on_c, 12, 71, 0
14, 135786, Control_c, 12, 11, 107
14, 135787, Note_on_c, 12, 71, 100
14, 135832, Note_on_c, 12, 71, 0
14, 135847, Control_c, 12, 11, 127
14, 135847, Note_on_c, 12, 69, 100
14, 135864, Control_c, 12, 11, 125
14, 135882, Control_c, 12, 11, 123
14, 135892, Note_on_c, 12, 69, 0
14, 135900, Control_c, 12, 11, 121
14, 135907, Note_on_c, 12, 69, 100
14, 135918, Control_c, 12, 11, 119
14, 135936, Control_c, 12, 11, 117
14, 135952, Note_on_c, 12, 69, 0
14, 135954, Control_c, 12, 11, 115
14, 135967, Note_on_c, 12, 68, 100
14, 135972, Control_c, 12, 11, 113
14, 135990, Control_c, 12, 11, 111
14, 136008, Control_c, 12, 11, 109
14, 136012, Note_on_c, 12, 68, 0
14, 136026, Control_c, 12, 11, 107
14, 136027, Note_on_c, 12, 68, 100
14, 136072, Note_on_c, 12, 68, 0
14, 136087, Control_c, 12, 11, 127
14, 136087, Note_on_c, 12, 66, 100
14, 136104, Control_c, 12, 11, 125
14, 136122, Control_c, 12, 11, 123
14, 136132, Note_on_c, 12, 66, 0
14, 136140, Control_c, 12, 11, 121
14, 136147, Note_on_c, 12, 66, 100
14, 136158, Control_c, 12, 11, 119
14, 136176, Control_c, 12, 11, 117
14, 136192, Note_on_c, 12, 66, 0
14, 136194, Control_c, 12, 11, 115
14, 136207, Note_on_c, 12, 64, 100
14, 136212, Control_c, 12, 11, 113
14, 136230, Control_c, 12, 11, 111
14, 136248, Control_c, 12, 11, 109
14, 136252, Note_on_c, 12, 64, 0
14, 136266, Control_c, 12, 11, 107
14, 136267, Note_on_c, 12, 64, 100
14, 136312, Note_on_c, 12, 64, 0
14, 136327, Control_c, 12, 11, 127
14, 136327, Note_on_c, 12, 63, 100
14, 136344, Control_c, 12, 11, 125
14, 136362, Control_c, 12, 11, 123
14, 136372, Note_on_c, 12, 63, 0
14, 136380, Control_c, 12, 11, 121
14, 136387, Note_on_c, 12, 63, 100
14, 136398, Control_c, 12, 11, 119
14, 136416, Control_c, 12, 11, 117
14, 136432, Note_on_c, 12, 63, 0
14, 136434, Control_c, 12, 11, 115
14, 136447, Note_on_c, 12, 62, 100
14, 136452, Control_c, 12, 11, 113
14, 136470, Control_c, 12, 11, 111
14, 136488, Control_c, 12, 11, 109
14, 136492, Note_on_c, 12, 62, 0
14, 136506, Control_c, 12, 11, 107
14, 136507, Note_on_c, 12, 62, 100
14, 136552, Note_on_c, 12, 62, 0
14, 136567, Control_c, 12, 11, 127
14, 136567, Note_on_c, 12, 61, 100
14, 136584, Control_c, 12, 11, 125
14, 136602, Control_c, 12, 11, 123
14, 136612, Note_on_c, 12, 61, 0
14, 136620, Control_c, 12, 11, 121
14, 136627, Note_on_c, 12, 61, 100
14, 136638, Control_c, 12, 11, 119
14, 136656, Control_c, 12, 11, 117
14, 136672, Note_on_c, 12, 61, 0
14, 136674, Control_c, 12, 11, 115
14, 136687, Note_on_c, 12, 60, 100
14, 136692, Control_c, 12, 11, 113
14, 136710, Control_c, 12, 11, 111
14, 136728, Control_c, 12, 11, 109
14, 136732, Note_on_c, 12, 60, 0
14, 136746, Control_c, 12, 11, 107
14, 136747, Note_on_c, 12, 60, 100
14, 136792, Note_on_c, 12, 60, 0
14, 136807, Control_c, 12, 11, 127
14, 136807, Note_on_c, 12, 59, 100
14, 136824, Control_c, 12, 11, 125
14, 136842, Control_c, 12, 11, 123
14, 136852, Note_on_c, 12, 59, 0
14, 136860, Control_c, 12, 11, 121
14, 136867, Note_on_c, 12, 59, 100
14, 136878, Control_c, 12, 11, 119
14, 136896, Control_c, 12, 11, 117
14, 136912, Note_on_c, 12, 59, 0
14, 136914, Control_c, 12, 11, 115
14, 136927, Note_on_c, 12, 58, 100
14, 136932, Control_c, 12, 11, 113
14, 136950, Control_c, 12, 11, 111
14, 136968, Control_c, 12, 11, 109
14, 136972, Note_on_c, 12, 58, 0
14, 136986, Control_c, 12, 11, 107
14, 136987, Note_on_c, 12, 58, 100
14, 137032, Note_on_c, 12, 58, 0
14, 137047, Control_c, 12, 11, 127
14, 137047, Note_on_c, 12, 57, 100
14, 137064, Control_c, 12, 11, 125
14, 137082, Control_c, 12, 11, 123
14, 137092, Note_on_c, 12, 57, 0
14, 137100, Control_c, 12, 11, 121
14, 137107, Note_on_c, 12, 57, 100
14, 137118, Control_c, 12, 11, 119
14, 137136, Control_c, 12, 11, 117
14, 137152, Note_on_c, 12, 57, 0
14, 137154, Control_c, 12, 11, 115
14, 137167, Note_on_c, 12, 68, 100
14, 137172, Control_c, 12, 11, 113
14, 137190, Control_c, 12, 11, 111
14, 137208, Control_c, 12, 11, 109
14, 137212, Note_on_c, 12, 68, 0
14, 137226, Control_c, 12, 11, 107
14, 137227, Note_on_c, 12, 68, 100
14, 137272, Note_on_c, 12, 68, 0
14, 137287, Control_c, 12, 11, 127
14, 137287, Note_on_c, 12, 66, 100
14, 137304, Control_c, 12, 11, 125
14, 137322, Control_c, 12, 11, 123
14, 137332, Note_on_c, 12, 66, 0
14, 137340, Control_c, 12, 11, 121
14, 137347, Note_on_c, 12, 66, 100
14, 137358, Control_c, 12, 11, 119
14, 137376, Control_c, 12, 11, 117
14, 137392, Note_on_c, 12, 66, 0
14, 137394, Control_c, 12, 11, 115
14, 137407, Note_on_c, 12, 64, 100
14, 137412, Control_c, 12, 11, 113
14, 137430, Control_c, 12, 11, 111
14, 137448, Control_c, 12, 11, 109
14, 137452, Note_on_c, 12, 64, 0
14, 137466, Control_c, 12, 11, 107
14, 137467, Note_on_c, 12, 64, 100
14, 137512, Note_on_c, 12, 64, 0
14, 137527, Control_c, 12, 11, 127
14, 137527, Note_on_c, 12, 63, 100
14, 137544, Control_c, 12, 11, 125
14, 137562, Control_c, 12, 11, 123
14, 137572, Note_on_c, 12, 63, 0
14, 137580, Control_c, 12, 11, 121
14, 137587, Note_on_c, 12, 63, 100
14, 137598, Control_c, 12, 11, 119
14, 137616, Control_c, 12, 11, 117
14, 137632, Note_on_c, 12, 63, 0
14, 137634, Control_c, 12, 11, 115
14, 137647, Note_on_c, 12, 61, 100
14, 137652, Control_c, 12, 11, 113
14, 137670, Control_c, 12, 11, 111
14, 137688, Control_c, 12, 11, 109
14, 137692, Note_on_c, 12, 61, 0
14, 137706, Control_c, 12, 11, 107
14, 137707, Note_on_c, 12, 61, 100
14, 137752, Note_on_c, 12, 61, 0
14, 137767, Control_c, 12, 11, 127
14, 137767, Note_on_c, 12, 59, 100
14, 137784, Control_c, 12, 11, 125
14, 137802, Control_c, 12, 11, 123
14, 137812, Note_on_c, 12, 59, 0
14, 137820, Control_c, 12, 11, 121
14, 137827, Note_on_c, 12, 71, 100
14, 137838, Control_c, 12, 11, 119
14, 137856, Control_c, 12, 11, 117
14, 137872, Note_on_c, 12, 71, 0
14, 137874, Control_c, 12, 11, 115
14, 137887, Note_on_c, 12, 71, 100
14, 137892, Control_c, 12, 11, 113
14, 137910, Control_c, 12, 11, 111
14, 137928, Control_c, 12, 11, 109
14, 137932, Note_on_c, 12, 71, 0
14, 137946, Control_c, 12, 11, 107
14, 137947, Note_on_c, 12, 71, 100
14, 137992, Note_on_c, 12, 71, 0
14, 138007, Control_c, 12, 11, 127
14, 138007, Note_on_c, 12, 71, 100
14, 138024, Control_c, 12, 11, 125
14, 138042, Control_c, 12, 11, 123
14, 138052, Note_on_c, 12, 71, 0
14, 138060, Control_c, 12, 11, 121
14, 138067, Note_on_c, 12, 71, 100
14, 138078, Control_c, 12, 11, 119
14, 138096, Control_c, 12, 11, 117
14, 138112, Note_on_c, 12, 71, 0
14, 138114, Control_c, 12, 11, 115
14, 138127, Note_on_c, 12, 71, 100
14, 138132, Control_c, 12, 11, 113
14, 138150, Control_c, 12, 11, 111
14, 138168, Control_c, 12, 11, 109
14, 138172, Note_on_c, 12, 71, 0
14, 138186, Control_c, 12, 11, 107
14, 138187, Note_on_c, 12, 71, 100
14, 138232, Note_on_c, 12, 71, 0
14, 138247, Control_c, 12, 11, 127
14, 138247, Note_on_c, 12, 76, 100
14, 138264, Control_c, 12, 11, 125
14, 138282, Control_c, 12, 11, 123
14, 138292, Note_on_c, 12, 76, 0
14, 138300, Control_c, 12, 11, 121
14, 138307, Note_on_c, 12, 76, 100
14, 138318, Control_c, 12, 11, 119
14, 138336, Control_c, 12, 11, 117
14, 138352, Note_on_c, 12, 76, 0
14, 138354, Control_c, 12, 11, 115
14, 138367, Note_on_c, 12, 75, 100
14, 138372, Control_c, 12, 11, 113
14, 138390, Control_c, 12, 11, 111
14, 138408, Control_c, 12, 11, 109
14, 138412, Note_on_c, 12, 75, 0
14, 138426, Control_c, 12, 11, 107
14, 138427, Note_on_c, 12, 75, 100
14, 138472, Note_on_c, 12, 75, 0
14, 138487, Control_c, 12, 11, 127
14, 138487, Note_on_c, 12, 73, 100
14, 138504, Control_c, 12, 11, 125
14, 138522, Control_c, 12, 11, 123
14, 138532, Note_on_c, 12, 73, 0
14, 138540, Control_c, 12, 11, 121
14, 138547, Note_on_c, 12, 73, 100
14, 138558, Control_c, 12, 11, 119
14, 138576, Control_c, 12, 11, 117
14, 138592, Note_on_c, 12, 73, 0
14, 138594, Control_c, 12, 11, 115
14, 138607, Note_on_c, 12, 71, 100
14, 138612, Control_c, 12, 11, 113
14, 138630, Control_c, 12, 11, 111
14, 138648, Control_c, 12, 11, 109
14, 138652, Note_on_c, 12, 71, 0
14, 138666, Control_c, 12, 11, 107
14, 138667, Note_on_c, 12, 71, 100
14, 138712, Note_on_c, 12, 71, 0
14, 138727, Control_c, 12, 11, 127
14, 138727, Note_on_c, 12, 69, 100
14, 138744, Control_c, 12, 11, 125
14, 138762, Control_c, 12, 11, 123
14, 138772, Note_on_c, 12, 69, 0
14, 138780, Control_c, 12, 11, 121
14, 138787, Note_on_c, 12, 69, 100
14, 138798, Control_c, 12, 11, 119
14, 138816, Control_c, 12, 11, 117
14, 138832, Note_on_c, 12, 69, 0
14, 138834, Control_c, 12, 11, 115
14, 138847, Note_on_c, 12, 68, 100
14, 138852, Control_c, 12, 11, 113
14, 138870, Control_c, 12, 11, 111
14, 138888, Control_c, 12, 11, 109
14, 138892, Note_on_c, 12, 68, 0
14, 138906, Control_c, 12, 11, 107
14, 138907, Note_on_c, 12, 68, 100
14, 138952, Note_on_c, 12, 68, 0
14, 138967, Control_c, 12, 11, 127
14, 138967, Note_on_c, 12, 66, 100
14, 138984, Control_c, 12, 11, 125
14, 139002, Control_c, 12, 11, 123
14, 139012, Note_on_c, 12, 66, 0
14, 139020, Control_c, 12, 11, 121
14, 139027, Note_on_c, 12, 66, 100
14, 139038, Control_c, 12, 11, 119
14, 139056, Control_c, 12, 11, 117
14, 139072, Note_on_c, 12, 66, 0
14, 139074, Control_c, 12, 11, 115
14, 139087, Note_on_c, 12, 64, 100
14, 139092, Control_c, 12, 11, 113
14, 139110, Control_c, 12, 11, 111
14, 139128, Control_c, 12, 11, 109
14, 139132, Note_on_c, 12, 64, 0
14, 139146, Control_c, 12, 11, 107
14, 139147, Note_on_c, 12, 64, 100
14, 139192, Note_on_c, 12, 64, 0
14, 139207, Control_c, 12, 11, 127
14, 139207, Note_on_c, 12, 63, 100
14, 139224, Control_c, 12, 11, 125
14, 139242, Control_c, 12, 11, 123
14, 139252, Note_on_c, 12, 63, 0
14, 139260, Control_c, 12, 11, 121
14, 139267, Note_on_c, 12, 63, 100
14, 139278, Control_c, 12, 11, 119
14, 139296, Control_c, 12, 11, 117
14, 139312, Note_on_c, 12, 63, 0
14, 139314, Control_c, 12, 11, 115
14, 139327, Note_on_c, 12, 62, 100
14, 139332, Control_c, 12, 11, 113
14, 139350, Control_c, 12, 11, 111
14, 139368, Control_c, 12, 11, 109
14, 139372, Note_on_c, 12, 62, 0
14, 139386, Control_c, 12, 11, 107
14, 139387, Note_on_c, 12, 62, 100
14, 139432, Note_on_c, 12, 62, 0
14, 139447, Control_c, 12, 11, 127
14, 139447, Note_on_c, 12, 61, 100
14, 139464, Control_c, 12, 11, 125
14, 139482, Control_c, 12, 11, 123
14, 139492, Note_on_c, 12, 61, 0
14, 139500, Control_c, 12, 11, 121
14, 139507, Note_on_c, 12, 61, 100
14, 139518, Control_c, 12, 11, 119
14, 139536, Control_c, 12, 11, 117
14, 139552, Note_on_c, 12, 61, 0
14, 139554, Control_c, 12, 11, 115
14, 139567, Note_on_c, 12, 60, 100
14, 139572, Control_c, 12, 11, 113
14, 139590, Control_c, 12, 11, 111
14, 139608, Control_c, 12, 11, 109
14, 139612, Note_on_c, 12, 60, 0
14, 139626, Control_c, 12, 11, 107
14, 139627, Note_on_c, 12, 60, 100
14, 139672, Note_on_c, 12, 60, 0
14, 139687, Control_c, 12, 11, 127
14, 139687, Note_on_c, 12, 59, 100
14, 139704, Control_c, 12, 11, 125
14, 139722, Control_c, 12, 11, 123
14, 139732, Note_on_c, 12, 59, 0
14, 139740, Control_c, 12, 11, 121
14, 139747, Note_on_c, 12, 59, 100
14, 139758, Control_c, 12, 11, 119
14, 139776, Control_c, 12, 11, 117
14, 139792, Note_on_c, 12, 59, 0
14, 139794, Control_c, 12, 11, 115
14, 139807, Note_on_c, 12, 70, 100
14, 139812, Control_c, 12, 11, 113
14, 139830, Control_c, 12, 11, 111
14, 139848, Control_c, 12, 11, 109
14, 139852, Note_on_c, 12, 70, 0
14, 139866, Control_c, 12, 11, 107
14, 139867, Note_on_c, 12, 70, 100
14, 139912, Note_on_c, 12, 70, 0
14, 139927, Control_c, 12, 11, 127
14, 139927, Note_on_c, 12, 69, 100
14, 139944, Control_c, 12, 11, 125
14, 139962, Control_c, 12, 11, 123
14, 139972, Note_on_c, 12, 69, 0
14, 139980, Control_c, 12, 11, 121
14, 139987, Note_on_c, 12, 69, 100
14, 139998, Control_c, 12, 11, 119
14, 140016, Control_c, 12, 11, 117
14, 140032, Note_on_c, 12, 69, 0
14, 140034, Control_c, 12, 11, 115
14, 140047, Note_on_c, 12, 68, 100
14, 140052, Control_c, 12, 11, 113
14, 140070, Control_c, 12, 11, 111
14, 140088, Control_c, 12, 11, 109
14, 140092, Note_on_c, 12, 68, 0
14, 140106, Control_c, 12, 11, 107
14, 140107, Note_on_c, 12, 68, 100
14, 140152, Note_on_c, 12, 68, 0
14, 140167, Control_c, 12, 11, 127
14, 140167, Note_on_c, 12, 66, 100
14, 140184, Control_c, 12, 11, 125
14, 140202, Control_c, 12, 11, 123
14, 140212, Note_on_c, 12, 66, 0
14, 140220, Control_c, 12, 11, 121
14, 140227, Note_on_c, 12, 66, 100
14, 140238, Control_c, 12, 11, 119
14, 140256, Control_c, 12, 11, 117
14, 140272, Note_on_c, 12, 66, 0
14, 140274, Control_c, 12, 11, 115
14, 140287, Note_on_c, 12, 64, 100
14, 140292, Control_c, 12, 11, 113
14, 140310, Control_c, 12, 11, 111
14, 140328, Control_c, 12, 11, 109
14, 140332, Note_on_c, 12, 64, 0
14, 140346, Control_c, 12, 11, 107
14, 140347, Note_on_c, 12, 64, 100
14, 140392, Note_on_c, 12, 64, 0
14, 140407, Control_c, 12, 11, 127
14, 140407, Note_on_c, 12, 63, 100
14, 140424, Control_c, 12, 11, 125
14, 140442, Control_c, 12, 11, 123
14, 140452, Note_on_c, 12, 63, 0
14, 140460, Control_c, 12, 11, 121
14, 140467, Note_on_c, 12, 63, 100
14, 140478, Control_c, 12, 11, 119
14, 140496, Control_c, 12, 11, 117
14, 140512, Note_on_c, 12, 63, 0
14, 140514, Control_c, 12, 11, 115
14, 140527, Note_on_c, 12, 61, 100
14, 140532, Control_c, 12, 11, 113
14, 140550, Control_c, 12, 11, 111
14, 140568, Control_c, 12, 11, 109
14, 140572, Note_on_c, 12, 61, 0
14, 140586, Control_c, 12, 11, 107
14, 140587, Note_on_c, 12, 61, 100
14, 140632, Note_on_c, 12, 61, 0
14, 140647, Control_c, 12, 11, 127
14, 140647, Note_on_c, 12, 59, 100
14, 140664, Control_c, 12, 11, 125
14, 140682, Control_c, 12, 11, 123
14, 140692, Note_on_c, 12, 59, 0
14, 140700, Control_c, 12, 11, 121
14, 140707, Note_on_c, 12, 71, 100
14, 140718, Control_c, 12, 11, 119
14, 140736, Control_c, 12, 11, 117
14, 140752, Note_on_c, 12, 71, 0
14, 140754, Control_c, 12, 11, 115
14, 140767, Note_on_c, 12, 71, 100
14, 140772, Control_c, 12, 11, 113
14, 140790, Control_c, 12, 11, 111
14, 140808, Control_c, 12, 11, 109
14, 140812, Note_on_c, 12, 71, 0
14, 140826, Control_c, 12, 11, 107
14, 140827, Note_on_c, 12, 71, 100
14, 140872, Note_on_c, 12, 71, 0
14, 140887, Control_c, 12, 11, 127
14, 140887, Note_on_c, 12, 71, 100
14, 140904, Control_c, 12, 11, 125
14, 140922, Control_c, 12, 11, 123
14, 140932, Note_on_c, 12, 71, 0
14, 140940, Control_c, 12, 11, 121
14, 140947, Note_on_c, 12, 71, 100
14, 140958, Control_c, 12, 11, 119
14, 140976, Control_c, 12, 11, 117
14, 140992, Note_on_c, 12, 71, 0
14, 140994, Control_c, 12, 11, 115
14, 141007, Note_on_c, 12, 71, 100
14, 141012, Control_c, 12, 11, 113
14, 141030, Control_c, 12, 11, 111
14, 141048, Control_c, 12, 11, 109
14, 141052, Note_on_c, 12, 71, 0
14, 141066, Control_c, 12, 11, 107
14, 141067, Note_on_c, 12, 71, 100
14, 141112, Note_on_c, 12, 71, 0
14, 141127, Note_on_c, 12, 64, 100
14, 141277, Note_on_c, 12, 64, 0
14, 141307, Note_on_c, 12, 59, 100
14, 141352, Note_on_c, 12, 59, 0
14, 141367, Note_on_c, 12, 59, 100
14, 141487, Note_on_c, 12, 59, 0
14, 142087, Note_on_c, 12, 68, 100
14, 142237, Note_on_c, 12, 68, 0
14, 142267, Note_on_c, 12, 64, 100
14, 142312, Note_on_c, 12, 64, 0
14, 142327, Note_on_c, 12, 64, 100
14, 142447, Note_on_c, 12, 64, 0
14, 143047, Note_on_c, 12, 71, 100
14, 143197, Note_on_c, 12, 71, 0
14, 143227, Note_on_c, 12, 68, 100
14, 143272, Note_on_c, 12, 68, 0
14, 143287, Note_on_c, 12, 68, 100
14, 143407, Note_on_c, 12, 68, 0
14, 144007, Note_on_c, 12, 76, 100
14, 144157, Note_on_c, 12, 76, 0
14, 144187, Note_on_c, 12, 71, 100
14, 144232, Note_on_c, 12, 71, 0
14, 144247, Note_on_c, 12, 71, 100
14, 144367, Note_on_c, 12, 71, 0
14, 144967, Note_on_c, 12, 76, 100
14, 145012, Note_on_c, 12, 76, 0
14, 145027, Note_on_c, 12, 76, 100
14, 145072, Note_on_c, 12, 76, 0
14, 145087, Note_on_c, 12, 71, 100
14, 145132, Note_on_c, 12, 71, 0
14, 145147, Note_on_c, 12, 71, 100
14, 145192, Note_on_c, 12, 71, 0
14, 145207, Note_on_c, 12, 76, 100
14, 145252, Note_on_c, 12, 76, 0
14, 145267, Note_on_c, 12, 76, 100
14, 145312, Note_on_c, 12, 76, 0
14, 145327, Note_on_c, 12, 71, 100
14, 145372, Note_on_c, 12, 71, 0
14, 145387, Note_on_c, 12, 71, 100
14, 145432, Note_on_c, 12, 71, 0
14, 145447, Note_on_c, 12, 76, 100
14, 145492, Note_on_c, 12, 76, 0
14, 145507, Note_on_c, 12, 76, 100
14, 145552, Note_on_c, 12, 76, 0
14, 145567, Note_on_c, 12, 71, 100
14, 145612, Note_on_c, 12, 71, 0
14, 145627, Note_on_c, 12, 71, 100
14, 145672, Note_on_c, 12, 71, 0
14, 145687, Note_on_c, 12, 76, 100
14, 145732, Note_on_c, 12, 76, 0
14, 145747, Note_on_c, 12, 76, 100
14, 145792, Note_on_c, 12, 76, 0
14, 145807, Note_on_c, 12, 71, 100
14, 145852, Note_on_c, 12, 71, 0
14, 145867, Note_on_c, 12, 71, 100
14, 145912, Note_on_c, 12, 71, 0
14, 145927, Note_on_c, 12, 76, 100
14, 145972, Note_on_c, 12, 76, 0
14, 145987, Note_on_c, 12, 76, 100
14, 146032, Note_on_c, 12, 76, 0
14, 146047, Note_on_c, 12, 71, 100
14, 146092, Note_on_c, 12, 71, 0
14, 146107, Note_on_c, 12, 71, 100
14, 146152, Note_on_c, 12, 71, 0
14, 146167, Note_on_c, 12, 76, 100
14, 146212, Note_on_c, 12, 76, 0
14, 146227, Note_on_c, 12, 76, 100
14, 146272, Note_on_c, 12, 76, 0
14, 146287, Note_on_c, 12, 71, 100
14, 146332, Note_on_c, 12, 71, 0
14, 146347, Note_on_c, 12, 71, 100
14, 146392, Note_on_c, 12, 71, 0
14, 146407, Note_on_c, 12, 76, 100
14, 146452, Note_on_c, 12, 76, 0
14, 146467, Note_on_c, 12, 76, 100
14, 146512, Note_on_c, 12, 76, 0
14, 146527, Note_on_c, 12, 71, 100
14, 146572, Note_on_c, 12, 71, 0
14, 146587, Note_on_c, 12, 71, 100
14, 146632, Note_on_c, 12, 71, 0
14, 146647, Note_on_c, 12, 76, 100
14, 146692, Note_on_c, 12, 76, 0
14, 146707, Note_on_c, 12, 76, 100
14, 146752, Note_on_c, 12, 76, 0
14, 146767, Note_on_c, 12, 71, 100
14, 146812, Note_on_c, 12, 71, 0
14, 146827, Note_on_c, 12, 71, 100
14, 146872, Note_on_c, 12, 71, 0
14, 146887, Note_on_c, 12, 76, 100
14, 147007, Note_on_c, 12, 76, 0
14, 147367, Note_on_c, 12, 52, 100
14, 147367, Note_on_c, 12, 59, 100
14, 147367, Note_on_c, 12, 64, 100
14, 147487, Note_on_c, 12, 64, 0
14, 147487, Note_on_c, 12, 59, 0
14, 147487, Note_on_c, 12, 52, 0
14, 147847, Note_on_c, 12, 52, 100
14, 147967, Note_on_c, 12, 52, 0
14, 148327, Control_c, 12, 121, 0
14, 148327, End_track
15, 0, Start_track
15, 0, MIDI_port, 0
15, 0, Title_t, "Violoncelle"
15, 0, Program_c, 13, 48
15, 0, Control_c, 13, 10, 100
15, 11, Control_c, 13, 121, 0
15, 16, Program_c, 13, 48
15, 21, Pitch_bend_c, 13, 7892
15, 26, Control_c, 13, 11, 102
15, 31, Control_c, 13, 7, 127
15, 36, Control_c, 13, 91, 51
15, 41, Control_c, 13, 93, 0
15, 46, Control_c, 13, 1, 36
15, 491, Control_c, 13, 11, 87
15, 491, Note_on_c, 13, 52, 99
15, 641, Note_on_c, 13, 52, 0
15, 671, Note_on_c, 13, 47, 99
15, 721, Note_on_c, 13, 47, 0
15, 731, Note_on_c, 13, 47, 99
15, 791, Note_on_c, 13, 47, 0
15, 971, Control_c, 13, 11, 107
15, 971, Note_on_c, 13, 56, 99
15, 989, Control_c, 13, 11, 104
15, 1007, Control_c, 13, 11, 101
15, 1025, Control_c, 13, 11, 98
15, 1043, Control_c, 13, 11, 95
15, 1061, Control_c, 13, 11, 92
15, 1079, Control_c, 13, 11, 89
15, 1121, Note_on_c, 13, 56, 0
15, 1151, Note_on_c, 13, 52, 99
15, 1201, Note_on_c, 13, 52, 0
15, 1211, Note_on_c, 13, 52, 99
15, 1271, Note_on_c, 13, 52, 0
15, 1451, Control_c, 13, 11, 107
15, 1451, Note_on_c, 13, 59, 99
15, 1469, Control_c, 13, 11, 104
15, 1487, Control_c, 13, 11, 101
15, 1505, Control_c, 13, 11, 98
15, 1523, Control_c, 13, 11, 95
15, 1541, Control_c, 13, 11, 92
15, 1559, Control_c, 13, 11, 89
15, 1601, Note_on_c, 13, 59, 0
15, 1631, Note_on_c, 13, 56, 99
15, 1681, Note_on_c, 13, 56, 0
15, 1691, Note_on_c, 13, 56, 99
15, 1751, Note_on_c, 13, 56, 0
15, 1811, Note_on_c, 13, 52, 99
15, 1871, Note_on_c, 13, 52, 0
15, 1931, Note_on_c, 13, 47, 99
15, 1991, Note_on_c, 13, 47, 0
15, 6251, Control_c, 13, 11, 87
15, 6251, Note_on_c, 13, 57, 99
15, 6401, Note_on_c, 13, 57, 0
15, 6431, Note_on_c, 13, 52, 99
15, 6481, Note_on_c, 13, 52, 0
15, 6491, Note_on_c, 13, 52, 99
15, 6551, Note_on_c, 13, 52, 0
15, 6731, Control_c, 13, 11, 107
15, 6731, Note_on_c, 13, 61, 99
15, 6749, Control_c, 13, 11, 104
15, 6767, Control_c, 13, 11, 101
15, 6785, Control_c, 13, 11, 98
15, 6803, Control_c, 13, 11, 95
15, 6821, Control_c, 13, 11, 92
15, 6839, Control_c, 13, 11, 89
15, 6881, Note_on_c, 13, 61, 0
15, 6911, Note_on_c, 13, 57, 99
15, 6961, Note_on_c, 13, 57, 0
15, 6971, Note_on_c, 13, 57, 99
15, 7031, Note_on_c, 13, 57, 0
15, 7211, Control_c, 13, 11, 107
15, 7211, Note_on_c, 13, 64, 99
15, 7229, Control_c, 13, 11, 104
15, 7247, Control_c, 13, 11, 101
15, 7265, Control_c, 13, 11, 98
15, 7283, Control_c, 13, 11, 95
15, 7301, Control_c, 13, 11, 92
15, 7319, Control_c, 13, 11, 89
15, 7361, Note_on_c, 13, 64, 0
15, 7391, Note_on_c, 13, 61, 99
15, 7441, Note_on_c, 13, 61, 0
15, 7451, Note_on_c, 13, 61, 99
15, 7511, Note_on_c, 13, 61, 0
15, 7571, Note_on_c, 13, 57, 99
15, 7631, Note_on_c, 13, 57, 0
15, 7691, Note_on_c, 13, 52, 99
15, 7751, Note_on_c, 13, 52, 0
15, 11051, Control_c, 13, 11, 32
15, 11051, Note_on_c, 13, 36, 71
15, 11091, Note_on_c, 13, 36, 0
15, 11091, Note_on_c, 13, 43, 71
15, 11131, Note_on_c, 13, 43, 0
15, 11131, Note_on_c, 13, 36, 71
15, 11171, Note_on_c, 13, 36, 0
15, 11171, Note_on_c, 13, 43, 71
15, 11211, Note_on_c, 13, 43, 0
15, 11211, Note_on_c, 13, 36, 71
15, 11251, Note_on_c, 13, 36, 0
15, 11251, Note_on_c, 13, 43, 71
15, 11291, Note_on_c, 13, 43, 0
15, 11291, Note_on_c, 13, 36, 71
15, 11331, Note_on_c, 13, 36, 0
15, 11331, Note_on_c, 13, 43, 71
15, 11371, Note_on_c, 13, 43, 0
15, 11371, Note_on_c, 13, 36, 72
15, 11411, Note_on_c, 13, 36, 0
15, 11411, Note_on_c, 13, 43, 72
15, 11451, Note_on_c, 13, 43, 0
15, 11451, Note_on_c, 13, 36, 72
15, 11491, Note_on_c, 13, 36, 0
15, 11491, Note_on_c, 13, 43, 72
15, 11521, Note_on_c, 13, 43, 0
15, 11531, Note_on_c, 13, 36, 72
15, 11571, Note_on_c, 13, 36, 0
15, 11571, Note_on_c, 13, 43, 72
15, 11611, Note_on_c, 13, 43, 0
15, 11611, Note_on_c, 13, 36, 72
15, 11651, Note_on_c, 13, 36, 0
15, 11651, Note_on_c, 13, 43, 72
15, 11691, Note_on_c, 13, 43, 0
15, 11691, Note_on_c, 13, 36, 72
15, 11731, Note_on_c, 13, 36, 0
15, 11731, Note_on_c, 13, 43, 72
15, 11771, Note_on_c, 13, 43, 0
15, 11771, Note_on_c, 13, 36, 72
15, 11811, Note_on_c, 13, 36, 0
15, 11811, Note_on_c, 13, 43, 72
15, 11851, Note_on_c, 13, 43, 0
15, 11851, Note_on_c, 13, 36, 72
15, 11891, Note_on_c, 13, 36, 0
15, 11891, Note_on_c, 13, 43, 72
15, 11931, Note_on_c, 13, 43, 0
15, 11931, Note_on_c, 13, 36, 72
15, 11971, Note_on_c, 13, 36, 0
15, 11971, Note_on_c, 13, 43, 72
15, 12001, Note_on_c, 13, 43, 0
15, 12011, Note_on_c, 13, 36, 73
15, 12051, Note_on_c, 13, 36, 0
15, 12051, Note_on_c, 13, 43, 73
15, 12091, Note_on_c, 13, 43, 0
15, 12091, Note_on_c, 13, 36, 73
15, 12131, Note_on_c, 13, 36, 0
15, 12131, Note_on_c, 13, 43, 73
15, 12171, Note_on_c, 13, 43, 0
15, 12171, Note_on_c, 13, 36, 73
15, 12211, Note_on_c, 13, 36, 0
15, 12211, Note_on_c, 13, 43, 73
15, 12251, Note_on_c, 13, 43, 0
15, 12251, Note_on_c, 13, 36, 73
15, 12291, Note_on_c, 13, 36, 0
15, 12291, Note_on_c, 13, 43, 73
15, 12331, Note_on_c, 13, 43, 0
15, 12331, Note_on_c, 13, 36, 74
15, 12371, Note_on_c, 13, 36, 0
15, 12371, Note_on_c, 13, 43, 74
15, 12411, Note_on_c, 13, 43, 0
15, 12411, Note_on_c, 13, 36, 74
15, 12451, Note_on_c, 13, 36, 0
15, 12451, Note_on_c, 13, 43, 74
15, 12481, Note_on_c, 13, 43, 0
15, 12491, Note_on_c, 13, 36, 74
15, 12531, Note_on_c, 13, 36, 0
15, 12531, Note_on_c, 13, 43, 74
15, 12571, Note_on_c, 13, 43, 0
15, 12571, Note_on_c, 13, 36, 74
15, 12611, Note_on_c, 13, 36, 0
15, 12611, Note_on_c, 13, 43, 74
15, 12651, Note_on_c, 13, 43, 0
15, 12651, Note_on_c, 13, 36, 75
15, 12691, Note_on_c, 13, 36, 0
15, 12691, Note_on_c, 13, 43, 75
15, 12731, Note_on_c, 13, 43, 0
15, 12731, Note_on_c, 13, 36, 75
15, 12771, Note_on_c, 13, 36, 0
15, 12771, Note_on_c, 13, 43, 75
15, 12811, Note_on_c, 13, 43, 0
15, 12811, Note_on_c, 13, 36, 75
15, 12851, Note_on_c, 13, 36, 0
15, 12851, Note_on_c, 13, 43, 75
15, 12891, Note_on_c, 13, 43, 0
15, 12891, Note_on_c, 13, 36, 75
15, 12931, Note_on_c, 13, 36, 0
15, 12931, Note_on_c, 13, 43, 75
15, 12961, Note_on_c, 13, 43, 0
15, 12971, Control_c, 13, 11, 32
15, 12971, Note_on_c, 13, 36, 76
15, 13011, Note_on_c, 13, 36, 0
15, 13011, Note_on_c, 13, 45, 76
15, 13014, Control_c, 13, 11, 33
15, 13051, Note_on_c, 13, 45, 0
15, 13051, Note_on_c, 13, 36, 76
15, 13058, Control_c, 13, 11, 34
15, 13091, Note_on_c, 13, 36, 0
15, 13091, Note_on_c, 13, 45, 76
15, 13101, Control_c, 13, 11, 35
15, 13131, Note_on_c, 13, 45, 0
15, 13131, Note_on_c, 13, 36, 76
15, 13145, Control_c, 13, 11, 36
15, 13171, Note_on_c, 13, 36, 0
15, 13171, Note_on_c, 13, 45, 76
15, 13189, Control_c, 13, 11, 37
15, 13211, Note_on_c, 13, 45, 0
15, 13211, Note_on_c, 13, 36, 76
15, 13232, Control_c, 13, 11, 38
15, 13251, Note_on_c, 13, 36, 0
15, 13251, Note_on_c, 13, 45, 76
15, 13276, Control_c, 13, 11, 39
15, 13291, Note_on_c, 13, 45, 0
15, 13291, Note_on_c, 13, 36, 77
15, 13320, Control_c, 13, 11, 40
15, 13331, Note_on_c, 13, 36, 0
15, 13331, Note_on_c, 13, 45, 77
15, 13363, Control_c, 13, 11, 41
15, 13371, Note_on_c, 13, 45, 0
15, 13371, Note_on_c, 13, 36, 77
15, 13407, Control_c, 13, 11, 42
15, 13411, Note_on_c, 13, 36, 0
15, 13411, Note_on_c, 13, 45, 77
15, 13441, Note_on_c, 13, 45, 0
15, 13451, Control_c, 13, 11, 43
15, 13451, Note_on_c, 13, 36, 77
15, 13487, Control_c, 13, 11, 44
15, 13491, Note_on_c, 13, 36, 0
15, 13491, Note_on_c, 13, 45, 77
15, 13531, Note_on_c, 13, 45, 0
15, 13531, Note_on_c, 13, 36, 77
15, 13561, Control_c, 13, 11, 45
15, 13571, Note_on_c, 13, 36, 0
15, 13571, Note_on_c, 13, 45, 77
15, 13611, Note_on_c, 13, 45, 0
15, 13611, Note_on_c, 13, 36, 78
15, 13635, Control_c, 13, 11, 46
15, 13651, Note_on_c, 13, 36, 0
15, 13651, Note_on_c, 13, 45, 78
15, 13691, Note_on_c, 13, 45, 0
15, 13691, Note_on_c, 13, 36, 78
15, 13709, Control_c, 13, 11, 47
15, 13731, Note_on_c, 13, 36, 0
15, 13731, Note_on_c, 13, 48, 78
15, 13771, Note_on_c, 13, 48, 0
15, 13771, Note_on_c, 13, 36, 78
15, 13783, Control_c, 13, 11, 48
15, 13811, Note_on_c, 13, 36, 0
15, 13811, Note_on_c, 13, 48, 78
15, 13851, Note_on_c, 13, 48, 0
15, 13851, Note_on_c, 13, 36, 78
15, 13857, Control_c, 13, 11, 49
15, 13891, Note_on_c, 13, 36, 0
15, 13891, Note_on_c, 13, 48, 78
15, 13921, Note_on_c, 13, 48, 0
15, 13931, Control_c, 13, 11, 50
15, 13931, Note_on_c, 13, 36, 78
15, 13971, Note_on_c, 13, 36, 0
15, 13971, Note_on_c, 13, 48, 78
15, 14004, Control_c, 13, 11, 51
15, 14011, Note_on_c, 13, 48, 0
15, 14011, Note_on_c, 13, 36, 78
15, 14051, Note_on_c, 13, 36, 0
15, 14051, Note_on_c, 13, 48, 78
15, 14078, Control_c, 13, 11, 52
15, 14091, Note_on_c, 13, 48, 0
15, 14091, Note_on_c, 13, 36, 78
15, 14131, Note_on_c, 13, 36, 0
15, 14131, Note_on_c, 13, 48, 78
15, 14152, Control_c, 13, 11, 53
15, 14171, Note_on_c, 13, 48, 0
15, 14171, Note_on_c, 13, 36, 78
15, 14211, Note_on_c, 13, 36, 0
15, 14211, Note_on_c, 13, 48, 78
15, 14226, Control_c, 13, 11, 54
15, 14251, Note_on_c, 13, 48, 0
15, 14251, Note_on_c, 13, 36, 79
15, 14291, Note_on_c, 13, 36, 0
15, 14291, Note_on_c, 13, 48, 79
15, 14300, Control_c, 13, 11, 55
15, 14331, Note_on_c, 13, 48, 0
15, 14331, Note_on_c, 13, 36, 79
15, 14371, Note_on_c, 13, 36, 0
15, 14371, Note_on_c, 13, 48, 79
15, 14374, Control_c, 13, 11, 56
15, 14401, Note_on_c, 13, 48, 0
15, 14411, Note_on_c, 13, 36, 79
15, 14447, Control_c, 13, 11, 57
15, 14451, Note_on_c, 13, 36, 0
15, 14451, Note_on_c, 13, 48, 79
15, 14491, Note_on_c, 13, 48, 0
15, 14491, Note_on_c, 13, 36, 79
15, 14521, Control_c, 13, 11, 58
15, 14531, Note_on_c, 13, 36, 0
15, 14531, Note_on_c, 13, 48, 79
15, 14571, Note_on_c, 13, 48, 0
15, 14571, Note_on_c, 13, 36, 80
15, 14595, Control_c, 13, 11, 59
15, 14611, Note_on_c, 13, 36, 0
15, 14611, Note_on_c, 13, 48, 80
15, 14651, Note_on_c, 13, 48, 0
15, 14651, Note_on_c, 13, 36, 80
15, 14669, Control_c, 13, 11, 60
15, 14691, Note_on_c, 13, 36, 0
15, 14691, Note_on_c, 13, 48, 80
15, 14731, Note_on_c, 13, 48, 0
15, 14731, Note_on_c, 13, 36, 80
15, 14743, Control_c, 13, 11, 61
15, 14771, Note_on_c, 13, 36, 0
15, 14771, Note_on_c, 13, 48, 80
15, 14811, Note_on_c, 13, 48, 0
15, 14811, Note_on_c, 13, 36, 80
15, 14817, Control_c, 13, 11, 62
15, 14851, Note_on_c, 13, 36, 0
15, 14851, Note_on_c, 13, 48, 80
15, 14881, Note_on_c, 13, 48, 0
15, 14891, Control_c, 13, 11, 63
15, 14891, Note_on_c, 13, 47, 81
15, 14931, Note_on_c, 13, 47, 0
15, 14931, Note_on_c, 13, 54, 81
15, 14964, Control_c, 13, 11, 64
15, 14971, Note_on_c, 13, 54, 0
15, 14971, Note_on_c, 13, 47, 81
15, 15011, Note_on_c, 13, 47, 0
15, 15011, Note_on_c, 13, 54, 81
15, 15038, Control_c, 13, 11, 65
15, 15051, Note_on_c, 13, 54, 0
15, 15051, Note_on_c, 13, 47, 81
15, 15091, Note_on_c, 13, 47, 0
15, 15091, Note_on_c, 13, 54, 81
15, 15112, Control_c, 13, 11, 66
15, 15131, Note_on_c, 13, 54, 0
15, 15131, Note_on_c, 13, 47, 81
15, 15171, Note_on_c, 13, 47, 0
15, 15171, Note_on_c, 13, 54, 81
15, 15186, Control_c, 13, 11, 67
15, 15211, Note_on_c, 13, 54, 0
15, 15211, Note_on_c, 13, 47, 82
15, 15251, Note_on_c, 13, 47, 0
15, 15251, Note_on_c, 13, 54, 82
15, 15260, Control_c, 13, 11, 68
15, 15291, Note_on_c, 13, 54, 0
15, 15291, Note_on_c, 13, 47, 82
15, 15331, Note_on_c, 13, 47, 0
15, 15331, Note_on_c, 13, 54, 82
15, 15334, Control_c, 13, 11, 69
15, 15361, Note_on_c, 13, 54, 0
15, 15371, Note_on_c, 13, 47, 82
15, 15407, Control_c, 13, 11, 70
15, 15411, Note_on_c, 13, 47, 0
15, 15411, Note_on_c, 13, 54, 82
15, 15451, Note_on_c, 13, 54, 0
15, 15451, Note_on_c, 13, 47, 82
15, 15481, Control_c, 13, 11, 71
15, 15491, Note_on_c, 13, 47, 0
15, 15491, Note_on_c, 13, 54, 82
15, 15531, Note_on_c, 13, 54, 0
15, 15531, Note_on_c, 13, 47, 83
15, 15555, Control_c, 13, 11, 72
15, 15571, Note_on_c, 13, 47, 0
15, 15571, Note_on_c, 13, 54, 83
15, 15611, Note_on_c, 13, 54, 0
15, 15611, Note_on_c, 13, 47, 83
15, 15629, Control_c, 13, 11, 73
15, 15651, Note_on_c, 13, 47, 0
15, 15651, Note_on_c, 13, 54, 83
15, 15691, Note_on_c, 13, 54, 0
15, 15691, Note_on_c, 13, 47, 83
15, 15703, Control_c, 13, 11, 74
15, 15731, Note_on_c, 13, 47, 0
15, 15731, Note_on_c, 13, 54, 83
15, 15771, Note_on_c, 13, 54, 0
15, 15771, Note_on_c, 13, 47, 83
15, 15777, Control_c, 13, 11, 75
15, 15811, Note_on_c, 13, 47, 0
15, 15811, Note_on_c, 13, 54, 83
15, 15841, Note_on_c, 13, 54, 0
15, 15851, Control_c, 13, 11, 76
15, 15851, Note_on_c, 13, 47, 84
15, 15891, Note_on_c, 13, 47, 0
15, 15891, Note_on_c, 13, 54, 84
15, 15924, Control_c, 13, 11, 77
15, 15931, Note_on_c, 13, 54, 0
15, 15931, Note_on_c, 13, 47, 84
15, 15971, Note_on_c, 13, 47, 0
15, 15971, Note_on_c, 13, 54, 84
15, 15998, Control_c, 13, 11, 78
15, 16011, Note_on_c, 13, 54, 0
15, 16011, Note_on_c, 13, 47, 84
15, 16051, Note_on_c, 13, 47, 0
15, 16051, Note_on_c, 13, 54, 84
15, 16072, Control_c, 13, 11, 79
15, 16091, Note_on_c, 13, 54, 0
15, 16091, Note_on_c, 13, 47, 84
15, 16131, Note_on_c, 13, 47, 0
15, 16131, Note_on_c, 13, 54, 84
15, 16146, Control_c, 13, 11, 80
15, 16171, Note_on_c, 13, 54, 0
15, 16171, Note_on_c, 13, 47, 84
15, 16211, Note_on_c, 13, 47, 0
15, 16211, Note_on_c, 13, 54, 84
15, 16220, Control_c, 13, 11, 81
15, 16251, Note_on_c, 13, 54, 0
15, 16251, Note_on_c, 13, 47, 84
15, 16291, Note_on_c, 13, 47, 0
15, 16291, Note_on_c, 13, 54, 84
15, 16294, Control_c, 13, 11, 82
15, 16321, Note_on_c, 13, 54, 0
15, 16331, Note_on_c, 13, 47, 84
15, 16367, Control_c, 13, 11, 83
15, 16371, Note_on_c, 13, 47, 0
15, 16371, Note_on_c, 13, 54, 84
15, 16411, Note_on_c, 13, 54, 0
15, 16411, Note_on_c, 13, 47, 84
15, 16441, Control_c, 13, 11, 84
15, 16451, Note_on_c, 13, 47, 0
15, 16451, Note_on_c, 13, 54, 84
15, 16491, Note_on_c, 13, 54, 0
15, 16491, Note_on_c, 13, 47, 84
15, 16515, Control_c, 13, 11, 85
15, 16531, Note_on_c, 13, 47, 0
15, 16531, Note_on_c, 13, 54, 84
15, 16571, Note_on_c, 13, 54, 0
15, 16571, Note_on_c, 13, 47, 84
15, 16589, Control_c, 13, 11, 86
15, 16611, Note_on_c, 13, 47, 0
15, 16611, Note_on_c, 13, 54, 84
15, 16651, Note_on_c, 13, 54, 0
15, 16651, Note_on_c, 13, 47, 84
15, 16663, Control_c, 13, 11, 87
15, 16691, Note_on_c, 13, 47, 0
15, 16691, Note_on_c, 13, 54, 84
15, 16731, Note_on_c, 13, 54, 0
15, 16731, Note_on_c, 13, 47, 84
15, 16737, Control_c, 13, 11, 88
15, 16771, Note_on_c, 13, 47, 0
15, 16771, Note_on_c, 13, 54, 84
15, 16801, Note_on_c, 13, 54, 0
15, 16811, Control_c, 13, 11, 89
15, 16811, Note_on_c, 13, 47, 84
15, 16851, Note_on_c, 13, 47, 0
15, 16851, Note_on_c, 13, 55, 84
15, 16884, Control_c, 13, 11, 90
15, 16891, Note_on_c, 13, 55, 0
15, 16891, Note_on_c, 13, 47, 85
15, 16931, Note_on_c, 13, 47, 0
15, 16931, Note_on_c, 13, 55, 85
15, 16958, Control_c, 13, 11, 91
15, 16971, Note_on_c, 13, 55, 0
15, 16971, Note_on_c, 13, 47, 86
15, 17011, Note_on_c, 13, 47, 0
15, 17011, Note_on_c, 13, 55, 87
15, 17032, Control_c, 13, 11, 92
15, 17051, Note_on_c, 13, 55, 0
15, 17051, Note_on_c, 13, 47, 87
15, 17091, Note_on_c, 13, 47, 0
15, 17091, Note_on_c, 13, 55, 88
15, 17106, Control_c, 13, 11, 93
15, 17131, Note_on_c, 13, 55, 0
15, 17131, Note_on_c, 13, 47, 89
15, 17171, Note_on_c, 13, 47, 0
15, 17171, Note_on_c, 13, 55, 89
15, 17180, Control_c, 13, 11, 94
15, 17211, Note_on_c, 13, 55, 0
15, 17211, Note_on_c, 13, 47, 90
15, 17251, Note_on_c, 13, 47, 0
15, 17251, Note_on_c, 13, 55, 90
15, 17254, Control_c, 13, 11, 95
15, 17281, Note_on_c, 13, 55, 0
15, 17291, Note_on_c, 13, 47, 91
15, 17327, Control_c, 13, 11, 96
15, 17331, Note_on_c, 13, 47, 0
15, 17331, Note_on_c, 13, 55, 92
15, 17371, Note_on_c, 13, 55, 0
15, 17371, Note_on_c, 13, 47, 92
15, 17401, Control_c, 13, 11, 97
15, 17411, Note_on_c, 13, 47, 0
15, 17411, Note_on_c, 13, 55, 93
15, 17451, Note_on_c, 13, 55, 0
15, 17451, Note_on_c, 13, 47, 94
15, 17475, Control_c, 13, 11, 98
15, 17491, Note_on_c, 13, 47, 0
15, 17491, Note_on_c, 13, 55, 94
15, 17531, Note_on_c, 13, 55, 0
15, 17531, Note_on_c, 13, 47, 95
15, 17549, Control_c, 13, 11, 99
15, 17571, Note_on_c, 13, 47, 0
15, 17571, Note_on_c, 13, 55, 95
15, 17611, Note_on_c, 13, 55, 0
15, 17611, Note_on_c, 13, 47, 96
15, 17623, Control_c, 13, 11, 100
15, 17651, Note_on_c, 13, 47, 0
15, 17651, Note_on_c, 13, 55, 97
15, 17691, Note_on_c, 13, 55, 0
15, 17691, Note_on_c, 13, 47, 97
15, 17697, Control_c, 13, 11, 101
15, 17731, Note_on_c, 13, 47, 0
15, 17731, Note_on_c, 13, 55, 98
15, 17761, Note_on_c, 13, 55, 0
15, 17771, Control_c, 13, 11, 102
15, 17771, Note_on_c, 13, 47, 99
15, 17831, Note_on_c, 13, 47, 0
15, 17891, Note_on_c, 13, 47, 99
15, 17951, Note_on_c, 13, 47, 0
15, 18011, Note_on_c, 13, 47, 99
15, 18071, Note_on_c, 13, 47, 0
15, 18131, Note_on_c, 13, 47, 99
15, 18191, Note_on_c, 13, 47, 0
15, 18251, Note_on_c, 13, 47, 99
15, 18311, Note_on_c, 13, 47, 0
15, 18371, Note_on_c, 13, 47, 99
15, 18431, Note_on_c, 13, 47, 0
15, 18491, Note_on_c, 13, 47, 99
15, 18551, Note_on_c, 13, 47, 0
15, 18611, Note_on_c, 13, 47, 99
15, 18671, Note_on_c, 13, 47, 0
15, 18731, Control_c, 13, 11, 47
15, 18731, Note_on_c, 13, 47, 99
15, 18791, Note_on_c, 13, 47, 0
15, 19930, Program_c, 13, 45
15, 19931, Control_c, 13, 11, 100
15, 19931, Note_on_c, 13, 54, 39
15, 20051, Note_on_c, 13, 54, 0
15, 20411, Note_on_c, 13, 54, 39
15, 20531, Note_on_c, 13, 54, 0
15, 20651, Note_on_c, 13, 47, 44
15, 20771, Note_on_c, 13, 47, 0
15, 21851, Note_on_c, 13, 59, 39
15, 21971, Note_on_c, 13, 59, 0
15, 22331, Note_on_c, 13, 59, 39
15, 22451, Note_on_c, 13, 59, 0
15, 23531, Note_on_c, 13, 52, 44
15, 23651, Note_on_c, 13, 52, 0
15, 26410, Program_c, 13, 48
15, 26411, Control_c, 13, 11, 37
15, 26411, Note_on_c, 13, 52, 99
15, 26427, Control_c, 13, 11, 39
15, 26443, Control_c, 13, 11, 41
15, 26459, Control_c, 13, 11, 43
15, 26475, Control_c, 13, 11, 45
15, 26491, Control_c, 13, 11, 47
15, 26507, Control_c, 13, 11, 49
15, 26523, Control_c, 13, 11, 51
15, 27356, Note_on_c, 13, 52, 0
15, 27371, Note_on_c, 13, 54, 99
15, 27491, Note_on_c, 13, 54, 0
15, 27491, Note_on_c, 13, 47, 99
15, 27731, Note_on_c, 13, 47, 0
15, 27731, Note_on_c, 13, 49, 99
15, 27791, Note_on_c, 13, 49, 0
15, 27791, Note_on_c, 13, 51, 99
15, 27851, Note_on_c, 13, 51, 0
15, 27851, Note_on_c, 13, 52, 99
15, 28316, Note_on_c, 13, 52, 0
15, 28331, Note_on_c, 13, 54, 99
15, 28451, Note_on_c, 13, 54, 0
15, 28451, Note_on_c, 13, 47, 99
15, 28691, Note_on_c, 13, 47, 0
15, 28691, Note_on_c, 13, 49, 99
15, 28751, Note_on_c, 13, 49, 0
15, 28751, Note_on_c, 13, 51, 99
15, 28811, Note_on_c, 13, 51, 0
15, 28811, Note_on_c, 13, 52, 99
15, 29276, Note_on_c, 13, 52, 0
15, 29291, Control_c, 13, 11, 47
15, 29291, Note_on_c, 13, 51, 99
15, 29327, Control_c, 13, 11, 48
15, 29363, Control_c, 13, 11, 49
15, 29399, Control_c, 13, 11, 50
15, 29411, Note_on_c, 13, 51, 0
15, 29411, Note_on_c, 13, 47, 99
15, 29435, Control_c, 13, 11, 51
15, 29471, Control_c, 13, 11, 52
15, 29507, Control_c, 13, 11, 53
15, 29543, Control_c, 13, 11, 54
15, 29579, Control_c, 13, 11, 55
15, 29615, Control_c, 13, 11, 56
15, 29651, Note_on_c, 13, 47, 0
15, 29651, Control_c, 13, 11, 57
15, 29651, Note_on_c, 13, 49, 99
15, 29687, Control_c, 13, 11, 58
15, 29711, Note_on_c, 13, 49, 0
15, 29711, Note_on_c, 13, 51, 99
15, 29723, Control_c, 13, 11, 59
15, 29756, Note_on_c, 13, 51, 0
15, 29759, Control_c, 13, 11, 60
15, 29771, Note_on_c, 13, 52, 99
15, 29795, Control_c, 13, 11, 61
15, 29831, Control_c, 13, 11, 62
15, 29867, Control_c, 13, 11, 63
15, 29891, Note_on_c, 13, 52, 0
15, 29891, Note_on_c, 13, 47, 99
15, 29903, Control_c, 13, 11, 64
15, 29939, Control_c, 13, 11, 65
15, 29975, Control_c, 13, 11, 66
15, 30011, Control_c, 13, 11, 67
15, 30047, Control_c, 13, 11, 68
15, 30083, Control_c, 13, 11, 69
15, 30116, Note_on_c, 13, 47, 0
15, 30119, Control_c, 13, 11, 70
15, 30131, Note_on_c, 13, 47, 99
15, 30155, Control_c, 13, 11, 71
15, 30191, Control_c, 13, 11, 72
15, 30227, Control_c, 13, 11, 73
15, 30251, Note_on_c, 13, 47, 0
15, 30251, Note_on_c, 13, 51, 99
15, 30263, Control_c, 13, 11, 74
15, 30299, Control_c, 13, 11, 75
15, 30335, Control_c, 13, 11, 76
15, 30371, Note_on_c, 13, 51, 0
15, 30371, Control_c, 13, 11, 77
15, 30371, Note_on_c, 13, 47, 99
15, 30407, Control_c, 13, 11, 78
15, 30443, Control_c, 13, 11, 79
15, 30479, Control_c, 13, 11, 80
15, 30515, Control_c, 13, 11, 81
15, 30551, Control_c, 13, 11, 82
15, 30587, Control_c, 13, 11, 83
15, 30611, Note_on_c, 13, 47, 0
15, 30611, Note_on_c, 13, 49, 99
15, 30623, Control_c, 13, 11, 84
15, 30659, Control_c, 13, 11, 85
15, 30671, Note_on_c, 13, 49, 0
15, 30671, Note_on_c, 13, 51, 99
15, 30695, Control_c, 13, 11, 86
15, 30716, Note_on_c, 13, 51, 0
15, 30731, Control_c, 13, 11, 87
15, 30731, Note_on_c, 13, 52, 99
15, 30781, Note_on_c, 13, 52, 0
15, 30791, Note_on_c, 13, 52, 99
15, 30841, Note_on_c, 13, 52, 0
15, 30851, Note_on_c, 13, 52, 99
15, 30901, Note_on_c, 13, 52, 0
15, 30911, Note_on_c, 13, 52, 99
15, 30961, Note_on_c, 13, 52, 0
15, 30971, Note_on_c, 13, 52, 99
15, 31021, Note_on_c, 13, 52, 0
15, 31031, Note_on_c, 13, 52, 99
15, 31081, Note_on_c, 13, 52, 0
15, 31091, Note_on_c, 13, 52, 99
15, 31141, Note_on_c, 13, 52, 0
15, 31151, Note_on_c, 13, 52, 99
15, 31201, Note_on_c, 13, 52, 0
15, 31211, Note_on_c, 13, 52, 99
15, 31261, Note_on_c, 13, 52, 0
15, 31271, Note_on_c, 13, 52, 99
15, 31321, Note_on_c, 13, 52, 0
15, 31331, Note_on_c, 13, 52, 99
15, 31381, Note_on_c, 13, 52, 0
15, 31391, Note_on_c, 13, 52, 99
15, 31441, Note_on_c, 13, 52, 0
15, 31451, Note_on_c, 13, 52, 99
15, 31501, Note_on_c, 13, 52, 0
15, 31511, Note_on_c, 13, 52, 99
15, 31561, Note_on_c, 13, 52, 0
15, 31571, Note_on_c, 13, 52, 99
15, 31621, Note_on_c, 13, 52, 0
15, 31631, Note_on_c, 13, 52, 99
15, 31681, Note_on_c, 13, 52, 0
15, 31691, Note_on_c, 13, 52, 99
15, 31741, Note_on_c, 13, 52, 0
15, 31751, Note_on_c, 13, 52, 99
15, 31801, Note_on_c, 13, 52, 0
15, 31811, Note_on_c, 13, 52, 99
15, 31861, Note_on_c, 13, 52, 0
15, 31871, Note_on_c, 13, 52, 99
15, 31921, Note_on_c, 13, 52, 0
15, 31931, Note_on_c, 13, 52, 99
15, 31981, Note_on_c, 13, 52, 0
15, 31991, Note_on_c, 13, 52, 99
15, 32041, Note_on_c, 13, 52, 0
15, 32051, Note_on_c, 13, 52, 99
15, 32101, Note_on_c, 13, 52, 0
15, 32111, Note_on_c, 13, 52, 99
15, 32161, Note_on_c, 13, 52, 0
15, 32171, Note_on_c, 13, 52, 99
15, 32221, Note_on_c, 13, 52, 0
15, 32231, Note_on_c, 13, 52, 99
15, 32281, Note_on_c, 13, 52, 0
15, 32291, Note_on_c, 13, 52, 99
15, 32341, Note_on_c, 13, 52, 0
15, 32351, Note_on_c, 13, 52, 99
15, 32401, Note_on_c, 13, 52, 0
15, 32411, Note_on_c, 13, 52, 99
15, 32461, Note_on_c, 13, 52, 0
15, 32471, Note_on_c, 13, 52, 99
15, 32521, Note_on_c, 13, 52, 0
15, 32531, Note_on_c, 13, 52, 99
15, 32581, Note_on_c, 13, 52, 0
15, 32591, Note_on_c, 13, 52, 99
15, 32641, Note_on_c, 13, 52, 0
15, 32651, Note_on_c, 13, 52, 99
15, 32701, Note_on_c, 13, 52, 0
15, 32711, Note_on_c, 13, 52, 99
15, 32761, Note_on_c, 13, 52, 0
15, 32771, Note_on_c, 13, 52, 99
15, 32821, Note_on_c, 13, 52, 0
15, 32831, Note_on_c, 13, 52, 99
15, 32881, Note_on_c, 13, 52, 0
15, 32891, Note_on_c, 13, 52, 99
15, 32941, Note_on_c, 13, 52, 0
15, 32951, Note_on_c, 13, 52, 99
15, 33001, Note_on_c, 13, 52, 0
15, 33011, Note_on_c, 13, 52, 99
15, 33061, Note_on_c, 13, 52, 0
15, 33071, Note_on_c, 13, 52, 99
15, 33121, Note_on_c, 13, 52, 0
15, 33131, Note_on_c, 13, 52, 99
15, 33181, Note_on_c, 13, 52, 0
15, 33191, Note_on_c, 13, 52, 99
15, 33241, Note_on_c, 13, 52, 0
15, 33251, Note_on_c, 13, 52, 99
15, 33301, Note_on_c, 13, 52, 0
15, 33311, Note_on_c, 13, 52, 99
15, 33361, Note_on_c, 13, 52, 0
15, 33371, Note_on_c, 13, 52, 99
15, 33421, Note_on_c, 13, 52, 0
15, 33431, Note_on_c, 13, 52, 99
15, 33481, Note_on_c, 13, 52, 0
15, 33491, Note_on_c, 13, 52, 99
15, 33541, Note_on_c, 13, 52, 0
15, 33551, Note_on_c, 13, 52, 99
15, 33601, Note_on_c, 13, 52, 0
15, 33611, Note_on_c, 13, 52, 99
15, 33661, Note_on_c, 13, 52, 0
15, 33671, Note_on_c, 13, 52, 99
15, 33721, Note_on_c, 13, 52, 0
15, 33731, Note_on_c, 13, 52, 99
15, 33781, Note_on_c, 13, 52, 0
15, 33791, Note_on_c, 13, 52, 99
15, 33841, Note_on_c, 13, 52, 0
15, 33851, Note_on_c, 13, 52, 99
15, 33901, Note_on_c, 13, 52, 0
15, 33911, Note_on_c, 13, 52, 99
15, 33961, Note_on_c, 13, 52, 0
15, 33971, Note_on_c, 13, 52, 99
15, 34021, Note_on_c, 13, 52, 0
15, 34031, Note_on_c, 13, 52, 99
15, 34081, Note_on_c, 13, 52, 0
15, 34091, Note_on_c, 13, 52, 99
15, 34141, Note_on_c, 13, 52, 0
15, 34151, Note_on_c, 13, 52, 99
15, 34201, Note_on_c, 13, 52, 0
15, 34211, Note_on_c, 13, 52, 99
15, 34261, Note_on_c, 13, 52, 0
15, 34271, Note_on_c, 13, 52, 99
15, 34321, Note_on_c, 13, 52, 0
15, 34331, Note_on_c, 13, 52, 99
15, 34381, Note_on_c, 13, 52, 0
15, 34391, Note_on_c, 13, 52, 99
15, 34441, Note_on_c, 13, 52, 0
15, 34451, Note_on_c, 13, 52, 99
15, 34501, Note_on_c, 13, 52, 0
15, 34511, Note_on_c, 13, 52, 99
15, 34561, Note_on_c, 13, 52, 0
15, 34571, Note_on_c, 13, 52, 99
15, 34691, Note_on_c, 13, 52, 0
15, 34811, Note_on_c, 13, 52, 99
15, 34931, Note_on_c, 13, 52, 0
15, 35051, Note_on_c, 13, 52, 99
15, 35171, Note_on_c, 13, 52, 0
15, 35291, Note_on_c, 13, 52, 99
15, 35411, Note_on_c, 13, 52, 0
15, 35531, Control_c, 13, 11, 107
15, 35531, Note_on_c, 13, 47, 99
15, 35548, Control_c, 13, 11, 104
15, 35566, Control_c, 13, 11, 101
15, 35581, Note_on_c, 13, 47, 0
15, 35584, Control_c, 13, 11, 98
15, 35591, Note_on_c, 13, 47, 99
15, 35602, Control_c, 13, 11, 95
15, 35620, Control_c, 13, 11, 92
15, 35638, Control_c, 13, 11, 89
15, 35641, Note_on_c, 13, 47, 0
15, 35651, Note_on_c, 13, 47, 99
15, 35701, Note_on_c, 13, 47, 0
15, 35711, Note_on_c, 13, 47, 99
15, 35761, Note_on_c, 13, 47, 0
15, 35771, Note_on_c, 13, 47, 99
15, 35821, Note_on_c, 13, 47, 0
15, 35831, Note_on_c, 13, 47, 99
15, 35881, Note_on_c, 13, 47, 0
15, 35891, Note_on_c, 13, 47, 99
15, 35941, Note_on_c, 13, 47, 0
15, 35951, Note_on_c, 13, 47, 99
15, 36001, Note_on_c, 13, 47, 0
15, 36011, Note_on_c, 13, 47, 99
15, 36061, Note_on_c, 13, 47, 0
15, 36071, Note_on_c, 13, 47, 99
15, 36121, Note_on_c, 13, 47, 0
15, 36131, Note_on_c, 13, 47, 99
15, 36181, Note_on_c, 13, 47, 0
15, 36191, Note_on_c, 13, 47, 99
15, 36241, Note_on_c, 13, 47, 0
15, 36251, Note_on_c, 13, 47, 99
15, 36301, Note_on_c, 13, 47, 0
15, 36311, Note_on_c, 13, 47, 99
15, 36361, Note_on_c, 13, 47, 0
15, 36371, Note_on_c, 13, 47, 99
15, 36421, Note_on_c, 13, 47, 0
15, 36431, Note_on_c, 13, 47, 99
15, 36481, Note_on_c, 13, 47, 0
15, 36491, Note_on_c, 13, 52, 99
15, 36611, Note_on_c, 13, 52, 0
15, 36731, Note_on_c, 13, 52, 99
15, 36851, Note_on_c, 13, 52, 0
15, 36971, Note_on_c, 13, 52, 99
15, 37091, Note_on_c, 13, 52, 0
15, 37211, Note_on_c, 13, 52, 99
15, 37331, Note_on_c, 13, 52, 0
15, 37451, Control_c, 13, 11, 107
15, 37451, Note_on_c, 13, 47, 99
15, 37468, Control_c, 13, 11, 104
15, 37486, Control_c, 13, 11, 101
15, 37501, Note_on_c, 13, 47, 0
15, 37504, Control_c, 13, 11, 98
15, 37511, Note_on_c, 13, 47, 99
15, 37522, Control_c, 13, 11, 95
15, 37540, Control_c, 13, 11, 92
15, 37558, Control_c, 13, 11, 89
15, 37561, Note_on_c, 13, 47, 0
15, 37571, Note_on_c, 13, 47, 99
15, 37621, Note_on_c, 13, 47, 0
15, 37631, Note_on_c, 13, 47, 99
15, 37681, Note_on_c, 13, 47, 0
15, 37691, Note_on_c, 13, 47, 99
15, 37741, Note_on_c, 13, 47, 0
15, 37751, Note_on_c, 13, 47, 99
15, 37801, Note_on_c, 13, 47, 0
15, 37811, Note_on_c, 13, 47, 99
15, 37861, Note_on_c, 13, 47, 0
15, 37871, Note_on_c, 13, 47, 99
15, 37921, Note_on_c, 13, 47, 0
15, 37931, Note_on_c, 13, 47, 99
15, 37981, Note_on_c, 13, 47, 0
15, 37991, Note_on_c, 13, 47, 99
15, 38041, Note_on_c, 13, 47, 0
15, 38051, Note_on_c, 13, 47, 99
15, 38101, Note_on_c, 13, 47, 0
15, 38111, Note_on_c, 13, 47, 99
15, 38161, Note_on_c, 13, 47, 0
15, 38171, Note_on_c, 13, 47, 99
15, 38221, Note_on_c, 13, 47, 0
15, 38231, Note_on_c, 13, 47, 99
15, 38281, Note_on_c, 13, 47, 0
15, 38291, Note_on_c, 13, 47, 99
15, 38341, Note_on_c, 13, 47, 0
15, 38351, Note_on_c, 13, 47, 99
15, 38401, Note_on_c, 13, 47, 0
15, 38411, Note_on_c, 13, 52, 99
15, 38461, Note_on_c, 13, 52, 0
15, 38471, Note_on_c, 13, 52, 99
15, 38521, Note_on_c, 13, 52, 0
15, 38531, Note_on_c, 13, 52, 99
15, 38581, Note_on_c, 13, 52, 0
15, 38591, Note_on_c, 13, 52, 99
15, 38641, Note_on_c, 13, 52, 0
15, 38651, Note_on_c, 13, 52, 99
15, 38701, Note_on_c, 13, 52, 0
15, 38711, Note_on_c, 13, 52, 99
15, 38761, Note_on_c, 13, 52, 0
15, 38771, Note_on_c, 13, 52, 99
15, 38821, Note_on_c, 13, 52, 0
15, 38831, Note_on_c, 13, 52, 99
15, 38881, Note_on_c, 13, 52, 0
15, 38891, Control_c, 13, 11, 107
15, 38891, Note_on_c, 13, 52, 99
15, 38908, Control_c, 13, 11, 104
15, 38926, Control_c, 13, 11, 101
15, 38941, Note_on_c, 13, 52, 0
15, 38944, Control_c, 13, 11, 98
15, 38951, Note_on_c, 13, 52, 99
15, 38962, Control_c, 13, 11, 95
15, 38980, Control_c, 13, 11, 92
15, 38998, Control_c, 13, 11, 89
15, 39001, Note_on_c, 13, 52, 0
15, 39011, Note_on_c, 13, 52, 99
15, 39061, Note_on_c, 13, 52, 0
15, 39071, Note_on_c, 13, 52, 99
15, 39121, Note_on_c, 13, 52, 0
15, 39131, Note_on_c, 13, 56, 99
15, 39161, Note_on_c, 13, 56, 0
15, 39191, Note_on_c, 13, 52, 99
15, 39221, Note_on_c, 13, 52, 0
15, 39251, Note_on_c, 13, 49, 99
15, 39281, Note_on_c, 13, 49, 0
15, 39311, Note_on_c, 13, 47, 99
15, 39341, Note_on_c, 13, 47, 0
15, 39371, Note_on_c, 13, 46, 89
15, 39491, Note_on_c, 13, 46, 0
15, 40570, Program_c, 13, 45
15, 40571, Control_c, 13, 11, 100
15, 40571, Note_on_c, 13, 54, 44
15, 40691, Note_on_c, 13, 54, 0
15, 40811, Note_on_c, 13, 59, 44
15, 40931, Note_on_c, 13, 59, 0
15, 41051, Note_on_c, 13, 47, 44
15, 41171, Note_on_c, 13, 47, 0
15, 41291, Note_on_c, 13, 42, 44
15, 41411, Note_on_c, 13, 42, 0
15, 42491, Note_on_c, 13, 54, 44
15, 42611, Note_on_c, 13, 54, 0
15, 42731, Note_on_c, 13, 59, 44
15, 42851, Note_on_c, 13, 59, 0
15, 42971, Note_on_c, 13, 47, 44
15, 43091, Note_on_c, 13, 47, 0
15, 43211, Note_on_c, 13, 42, 44
15, 43331, Note_on_c, 13, 42, 0
15, 43810, Program_c, 13, 48
15, 43811, Control_c, 13, 11, 47
15, 43811, Note_on_c, 13, 56, 99
15, 43856, Note_on_c, 13, 56, 0
15, 43871, Note_on_c, 13, 56, 99
15, 43916, Note_on_c, 13, 56, 0
15, 43931, Note_on_c, 13, 56, 99
15, 44036, Note_on_c, 13, 56, 0
15, 44051, Note_on_c, 13, 56, 99
15, 44096, Note_on_c, 13, 56, 0
15, 44111, Note_on_c, 13, 56, 99
15, 44156, Note_on_c, 13, 56, 0
15, 44171, Note_on_c, 13, 49, 99
15, 44291, Note_on_c, 13, 49, 0
15, 44771, Note_on_c, 13, 47, 99
15, 44816, Note_on_c, 13, 47, 0
15, 44831, Note_on_c, 13, 47, 99
15, 44876, Note_on_c, 13, 47, 0
15, 44891, Note_on_c, 13, 47, 99
15, 44996, Note_on_c, 13, 47, 0
15, 45011, Note_on_c, 13, 47, 99
15, 45056, Note_on_c, 13, 47, 0
15, 45071, Note_on_c, 13, 47, 99
15, 45116, Note_on_c, 13, 47, 0
15, 45131, Control_c, 13, 11, 47
15, 45131, Note_on_c, 13, 52, 99
15, 45155, Control_c, 13, 11, 48
15, 45179, Control_c, 13, 11, 49
15, 45203, Control_c, 13, 11, 50
15, 45227, Control_c, 13, 11, 51
15, 45236, Note_on_c, 13, 52, 0
15, 45251, Control_c, 13, 11, 52
15, 45251, Note_on_c, 13, 47, 99
15, 45275, Control_c, 13, 11, 53
15, 45296, Note_on_c, 13, 47, 0
15, 45299, Control_c, 13, 11, 54
15, 45311, Note_on_c, 13, 47, 99
15, 45323, Control_c, 13, 11, 55
15, 45347, Control_c, 13, 11, 56
15, 45356, Note_on_c, 13, 47, 0
15, 45371, Control_c, 13, 11, 57
15, 45371, Note_on_c, 13, 47, 99
15, 45395, Control_c, 13, 11, 58
15, 45419, Control_c, 13, 11, 59
15, 45443, Control_c, 13, 11, 60
15, 45467, Control_c, 13, 11, 61
15, 45476, Note_on_c, 13, 47, 0
15, 45491, Control_c, 13, 11, 62
15, 45491, Note_on_c, 13, 47, 99
15, 45515, Control_c, 13, 11, 63
15, 45536, Note_on_c, 13, 47, 0
15, 45539, Control_c, 13, 11, 64
15, 45551, Note_on_c, 13, 47, 99
15, 45563, Control_c, 13, 11, 65
15, 45587, Control_c, 13, 11, 66
15, 45596, Note_on_c, 13, 47, 0
15, 45611, Control_c, 13, 11, 67
15, 45611, Note_on_c, 13, 52, 99
15, 45635, Control_c, 13, 11, 68
15, 45659, Control_c, 13, 11, 69
15, 45683, Control_c, 13, 11, 70
15, 45707, Control_c, 13, 11, 71
15, 45716, Note_on_c, 13, 52, 0
15, 45731, Control_c, 13, 11, 72
15, 45731, Note_on_c, 13, 47, 99
15, 45755, Control_c, 13, 11, 73
15, 45776, Note_on_c, 13, 47, 0
15, 45779, Control_c, 13, 11, 74
15, 45791, Note_on_c, 13, 47, 99
15, 45803, Control_c, 13, 11, 75
15, 45827, Control_c, 13, 11, 76
15, 45836, Note_on_c, 13, 47, 0
15, 45851, Control_c, 13, 11, 77
15, 45851, Note_on_c, 13, 47, 99
15, 45875, Control_c, 13, 11, 78
15, 45899, Control_c, 13, 11, 79
15, 45923, Control_c, 13, 11, 80
15, 45947, Control_c, 13, 11, 81
15, 45956, Note_on_c, 13, 47, 0
15, 45971, Control_c, 13, 11, 82
15, 45971, Note_on_c, 13, 47, 99
15, 45995, Control_c, 13, 11, 83
15, 46016, Note_on_c, 13, 47, 0
15, 46019, Control_c, 13, 11, 84
15, 46031, Note_on_c, 13, 47, 99
15, 46043, Control_c, 13, 11, 85
15, 46067, Control_c, 13, 11, 86
15, 46076, Note_on_c, 13, 47, 0
15, 46091, Control_c, 13, 11, 87
15, 46091, Note_on_c, 13, 52, 99
15, 46196, Note_on_c, 13, 52, 0
15, 46211, Note_on_c, 13, 47, 99
15, 46256, Note_on_c, 13, 47, 0
15, 46271, Note_on_c, 13, 47, 99
15, 46316, Note_on_c, 13, 47, 0
15, 46331, Note_on_c, 13, 52, 99
15, 46436, Note_on_c, 13, 52, 0
15, 46451, Note_on_c, 13, 47, 99
15, 46496, Note_on_c, 13, 47, 0
15, 46511, Note_on_c, 13, 47, 99
15, 46556, Note_on_c, 13, 47, 0
15, 46571, Note_on_c, 13, 52, 99
15, 46676, Note_on_c, 13, 52, 0
15, 46691, Note_on_c, 13, 47, 99
15, 46736, Note_on_c, 13, 47, 0
15, 46751, Note_on_c, 13, 47, 99
15, 46796, Note_on_c, 13, 47, 0
15, 46811, Note_on_c, 13, 52, 99
15, 46916, Note_on_c, 13, 52, 0
15, 46931, Note_on_c, 13, 47, 99
15, 46976, Note_on_c, 13, 47, 0
15, 46991, Note_on_c, 13, 47, 99
15, 47036, Note_on_c, 13, 47, 0
15, 47051, Control_c, 13, 11, 102
15, 47051, Note_on_c, 13, 52, 99
15, 47516, Note_on_c, 13, 52, 0
15, 47531, Note_on_c, 13, 64, 99
15, 47576, Note_on_c, 13, 64, 0
15, 47591, Note_on_c, 13, 63, 99
15, 47636, Note_on_c, 13, 63, 0
15, 47651, Note_on_c, 13, 61, 99
15, 47696, Note_on_c, 13, 61, 0
15, 47711, Note_on_c, 13, 59, 99
15, 47756, Note_on_c, 13, 59, 0
15, 47771, Note_on_c, 13, 57, 99
15, 47816, Note_on_c, 13, 57, 0
15, 47831, Note_on_c, 13, 56, 99
15, 47876, Note_on_c, 13, 56, 0
15, 47891, Note_on_c, 13, 54, 99
15, 47936, Note_on_c, 13, 54, 0
15, 47951, Note_on_c, 13, 52, 99
15, 47996, Note_on_c, 13, 52, 0
15, 48011, Note_on_c, 13, 49, 99
15, 48476, Note_on_c, 13, 49, 0
15, 48491, Note_on_c, 13, 61, 99
15, 48536, Note_on_c, 13, 61, 0
15, 48551, Note_on_c, 13, 59, 99
15, 48596, Note_on_c, 13, 59, 0
15, 48611, Note_on_c, 13, 57, 99
15, 48656, Note_on_c, 13, 57, 0
15, 48671, Note_on_c, 13, 56, 99
15, 48716, Note_on_c, 13, 56, 0
15, 48731, Note_on_c, 13, 54, 99
15, 48776, Note_on_c, 13, 54, 0
15, 48791, Note_on_c, 13, 52, 99
15, 48836, Note_on_c, 13, 52, 0
15, 48851, Note_on_c, 13, 51, 99
15, 48896, Note_on_c, 13, 51, 0
15, 48911, Note_on_c, 13, 49, 99
15, 48956, Note_on_c, 13, 49, 0
15, 48971, Note_on_c, 13, 46, 99
15, 49016, Note_on_c, 13, 46, 0
15, 49031, Note_on_c, 13, 46, 99
15, 49076, Note_on_c, 13, 46, 0
15, 49091, Note_on_c, 13, 46, 99
15, 49136, Note_on_c, 13, 46, 0
15, 49151, Note_on_c, 13, 46, 99
15, 49196, Note_on_c, 13, 46, 0
15, 49211, Note_on_c, 13, 46, 99
15, 49256, Note_on_c, 13, 46, 0
15, 49271, Note_on_c, 13, 46, 99
15, 49316, Note_on_c, 13, 46, 0
15, 49331, Note_on_c, 13, 46, 99
15, 49376, Note_on_c, 13, 46, 0
15, 49391, Note_on_c, 13, 46, 99
15, 49436, Note_on_c, 13, 46, 0
15, 49451, Note_on_c, 13, 46, 99
15, 49496, Note_on_c, 13, 46, 0
15, 49511, Note_on_c, 13, 46, 99
15, 49556, Note_on_c, 13, 46, 0
15, 49571, Note_on_c, 13, 46, 99
15, 49616, Note_on_c, 13, 46, 0
15, 49631, Note_on_c, 13, 46, 99
15, 49676, Note_on_c, 13, 46, 0
15, 49691, Note_on_c, 13, 46, 99
15, 49736, Note_on_c, 13, 46, 0
15, 49751, Note_on_c, 13, 46, 99
15, 49796, Note_on_c, 13, 46, 0
15, 49811, Note_on_c, 13, 46, 99
15, 49856, Note_on_c, 13, 46, 0
15, 49871, Note_on_c, 13, 46, 99
15, 49916, Note_on_c, 13, 46, 0
15, 49931, Note_on_c, 13, 58, 99
15, 50276, Note_on_c, 13, 58, 0
15, 50291, Control_c, 13, 11, 122
15, 50291, Note_on_c, 13, 59, 99
15, 50308, Control_c, 13, 11, 119
15, 50326, Control_c, 13, 11, 116
15, 50344, Control_c, 13, 11, 113
15, 50362, Control_c, 13, 11, 110
15, 50380, Control_c, 13, 11, 107
15, 50396, Note_on_c, 13, 59, 0
15, 50398, Control_c, 13, 11, 104
15, 50411, Note_on_c, 13, 58, 99
15, 50756, Note_on_c, 13, 58, 0
15, 50771, Control_c, 13, 11, 122
15, 50771, Note_on_c, 13, 59, 99
15, 50788, Control_c, 13, 11, 119
15, 50806, Control_c, 13, 11, 116
15, 50824, Control_c, 13, 11, 113
15, 50842, Control_c, 13, 11, 110
15, 50860, Control_c, 13, 11, 107
15, 50876, Note_on_c, 13, 59, 0
15, 50878, Control_c, 13, 11, 104
15, 50891, Note_on_c, 13, 58, 99
15, 50996, Note_on_c, 13, 58, 0
15, 51011, Control_c, 13, 11, 122
15, 51011, Note_on_c, 13, 59, 99
15, 51028, Control_c, 13, 11, 119
15, 51046, Control_c, 13, 11, 116
15, 51064, Control_c, 13, 11, 113
15, 51082, Control_c, 13, 11, 110
15, 51100, Control_c, 13, 11, 107
15, 51116, Note_on_c, 13, 59, 0
15, 51118, Control_c, 13, 11, 104
15, 51131, Note_on_c, 13, 58, 99
15, 51236, Note_on_c, 13, 58, 0
15, 51251, Control_c, 13, 11, 122
15, 51251, Note_on_c, 13, 59, 99
15, 51268, Control_c, 13, 11, 119
15, 51286, Control_c, 13, 11, 116
15, 51304, Control_c, 13, 11, 113
15, 51322, Control_c, 13, 11, 110
15, 51340, Control_c, 13, 11, 107
15, 51356, Note_on_c, 13, 59, 0
15, 51358, Control_c, 13, 11, 104
15, 51371, Note_on_c, 13, 58, 99
15, 51476, Note_on_c, 13, 58, 0
15, 51491, Control_c, 13, 11, 122
15, 51491, Note_on_c, 13, 59, 99
15, 51508, Control_c, 13, 11, 119
15, 51526, Control_c, 13, 11, 116
15, 51544, Control_c, 13, 11, 113
15, 51562, Control_c, 13, 11, 110
15, 51580, Control_c, 13, 11, 107
15, 51596, Note_on_c, 13, 59, 0
15, 51598, Control_c, 13, 11, 104
15, 51611, Note_on_c, 13, 58, 99
15, 51716, Note_on_c, 13, 58, 0
15, 51731, Control_c, 13, 11, 122
15, 51731, Note_on_c, 13, 54, 99
15, 51748, Control_c, 13, 11, 119
15, 51766, Control_c, 13, 11, 116
15, 51784, Control_c, 13, 11, 113
15, 51802, Control_c, 13, 11, 110
15, 51820, Control_c, 13, 11, 107
15, 51836, Note_on_c, 13, 54, 0
15, 51838, Control_c, 13, 11, 104
15, 51851, Note_on_c, 13, 59, 99
15, 51956, Note_on_c, 13, 59, 0
15, 51971, Control_c, 13, 11, 122
15, 51971, Note_on_c, 13, 51, 99
15, 51988, Control_c, 13, 11, 119
15, 52006, Control_c, 13, 11, 116
15, 52024, Control_c, 13, 11, 113
15, 52042, Control_c, 13, 11, 110
15, 52060, Control_c, 13, 11, 107
15, 52076, Note_on_c, 13, 51, 0
15, 52078, Control_c, 13, 11, 104
15, 52091, Note_on_c, 13, 52, 99
15, 52196, Note_on_c, 13, 52, 0
15, 52211, Control_c, 13, 11, 122
15, 52211, Note_on_c, 13, 49, 99
15, 52228, Control_c, 13, 11, 119
15, 52246, Control_c, 13, 11, 116
15, 52264, Control_c, 13, 11, 113
15, 52282, Control_c, 13, 11, 110
15, 52300, Control_c, 13, 11, 107
15, 52316, Note_on_c, 13, 49, 0
15, 52318, Control_c, 13, 11, 104
15, 52331, Note_on_c, 13, 54, 99
15, 52436, Note_on_c, 13, 54, 0
15, 52451, Control_c, 13, 11, 122
15, 52451, Note_on_c, 13, 42, 99
15, 52468, Control_c, 13, 11, 119
15, 52486, Control_c, 13, 11, 116
15, 52504, Control_c, 13, 11, 113
15, 52522, Control_c, 13, 11, 110
15, 52540, Control_c, 13, 11, 107
15, 52556, Note_on_c, 13, 42, 0
15, 52558, Control_c, 13, 11, 104
15, 52571, Note_on_c, 13, 54, 99
15, 52676, Note_on_c, 13, 54, 0
15, 52691, Control_c, 13, 11, 122
15, 52691, Note_on_c, 13, 42, 99
15, 52708, Control_c, 13, 11, 119
15, 52726, Control_c, 13, 11, 116
15, 52744, Control_c, 13, 11, 113
15, 52762, Control_c, 13, 11, 110
15, 52780, Control_c, 13, 11, 107
15, 52796, Note_on_c, 13, 42, 0
15, 52798, Control_c, 13, 11, 104
15, 52811, Note_on_c, 13, 47, 89
15, 52931, Note_on_c, 13, 47, 0
15, 53171, Control_c, 13, 11, 87
15, 53171, Note_on_c, 13, 47, 99
15, 53411, Note_on_c, 13, 47, 0
15, 53651, Note_on_c, 13, 47, 99
15, 53891, Note_on_c, 13, 47, 0
15, 54131, Note_on_c, 13, 47, 99
15, 54371, Note_on_c, 13, 47, 0
15, 54611, Note_on_c, 13, 47, 99
15, 54851, Note_on_c, 13, 47, 0
15, 54851, Note_on_c, 13, 47, 99
15, 54896, Note_on_c, 13, 47, 0
15, 54911, Note_on_c, 13, 47, 99
15, 54956, Note_on_c, 13, 47, 0
15, 54971, Note_on_c, 13, 47, 99
15, 55091, Note_on_c, 13, 47, 0
15, 55211, Note_on_c, 13, 47, 99
15, 55316, Note_on_c, 13, 47, 0
15, 55331, Note_on_c, 13, 47, 99
15, 55376, Note_on_c, 13, 47, 0
15, 55391, Note_on_c, 13, 47, 99
15, 55436, Note_on_c, 13, 47, 0
15, 55451, Note_on_c, 13, 47, 99
15, 55571, Note_on_c, 13, 47, 0
15, 55691, Note_on_c, 13, 47, 99
15, 55796, Note_on_c, 13, 47, 0
15, 55811, Note_on_c, 13, 47, 99
15, 55856, Note_on_c, 13, 47, 0
15, 55871, Note_on_c, 13, 47, 99
15, 55916, Note_on_c, 13, 47, 0
15, 55931, Note_on_c, 13, 47, 99
15, 56036, Note_on_c, 13, 47, 0
15, 56051, Note_on_c, 13, 47, 99
15, 56096, Note_on_c, 13, 47, 0
15, 56111, Note_on_c, 13, 47, 99
15, 56156, Note_on_c, 13, 47, 0
15, 56171, Note_on_c, 13, 47, 99
15, 56276, Note_on_c, 13, 47, 0
15, 56291, Note_on_c, 13, 47, 99
15, 56336, Note_on_c, 13, 47, 0
15, 56351, Note_on_c, 13, 47, 99
15, 56396, Note_on_c, 13, 47, 0
15, 56411, Note_on_c, 13, 47, 99
15, 56516, Note_on_c, 13, 47, 0
15, 56531, Note_on_c, 13, 47, 99
15, 56576, Note_on_c, 13, 47, 0
15, 56591, Note_on_c, 13, 47, 99
15, 56636, Note_on_c, 13, 47, 0
15, 56651, Note_on_c, 13, 47, 94
15, 56771, Note_on_c, 13, 47, 0
15, 60730, Program_c, 13, 45
15, 60731, Control_c, 13, 11, 100
15, 60731, Note_on_c, 13, 62, 46
15, 60851, Note_on_c, 13, 62, 0
15, 60971, Note_on_c, 13, 67, 46
15, 61091, Note_on_c, 13, 67, 0
15, 61151, Note_on_c, 13, 55, 46
15, 61211, Note_on_c, 13, 55, 0
15, 61211, Note_on_c, 13, 55, 46
15, 61331, Note_on_c, 13, 55, 0
15, 61451, Note_on_c, 13, 67, 46
15, 61571, Note_on_c, 13, 67, 0
15, 61631, Note_on_c, 13, 55, 46
15, 61691, Note_on_c, 13, 55, 0
15, 61691, Note_on_c, 13, 55, 46
15, 61811, Note_on_c, 13, 55, 0
15, 61931, Note_on_c, 13, 67, 46
15, 62051, Note_on_c, 13, 67, 0
15, 62111, Note_on_c, 13, 55, 46
15, 62171, Note_on_c, 13, 55, 0
15, 62171, Note_on_c, 13, 55, 46
15, 62291, Note_on_c, 13, 55, 0
15, 62411, Note_on_c, 13, 67, 46
15, 62531, Note_on_c, 13, 67, 0
15, 62591, Note_on_c, 13, 55, 46
15, 62651, Note_on_c, 13, 55, 0
15, 62651, Note_on_c, 13, 55, 46
15, 62771, Note_on_c, 13, 55, 0
15, 62891, Note_on_c, 13, 60, 46
15, 63011, Note_on_c, 13, 60, 0
15, 63071, Note_on_c, 13, 52, 46
15, 63131, Note_on_c, 13, 52, 0
15, 63131, Note_on_c, 13, 52, 46
15, 63251, Note_on_c, 13, 52, 0
15, 63371, Note_on_c, 13, 64, 46
15, 63491, Note_on_c, 13, 64, 0
15, 63551, Note_on_c, 13, 52, 46
15, 63611, Note_on_c, 13, 52, 0
15, 63611, Note_on_c, 13, 52, 46
15, 63731, Note_on_c, 13, 52, 0
15, 63851, Note_on_c, 13, 64, 46
15, 63971, Note_on_c, 13, 64, 0
15, 64031, Note_on_c, 13, 52, 46
15, 64091, Note_on_c, 13, 52, 0
15, 64091, Note_on_c, 13, 52, 46
15, 64211, Note_on_c, 13, 52, 0
15, 64331, Note_on_c, 13, 64, 46
15, 64451, Note_on_c, 13, 64, 0
15, 64511, Note_on_c, 13, 52, 46
15, 64571, Note_on_c, 13, 52, 0
15, 64571, Note_on_c, 13, 52, 46
15, 64691, Note_on_c, 13, 52, 0
15, 64811, Note_on_c, 13, 57, 46
15, 64931, Note_on_c, 13, 57, 0
15, 64991, Note_on_c, 13, 45, 46
15, 65051, Note_on_c, 13, 45, 0
15, 65051, Note_on_c, 13, 45, 46
15, 65171, Note_on_c, 13, 45, 0
15, 65291, Note_on_c, 13, 47, 46
15, 65411, Note_on_c, 13, 47, 0
15, 65771, Note_on_c, 13, 47, 46
15, 65891, Note_on_c, 13, 47, 0
15, 66251, Note_on_c, 13, 47, 46
15, 66371, Note_on_c, 13, 47, 0
15, 66731, Note_on_c, 13, 47, 46
15, 66851, Note_on_c, 13, 47, 0
15, 67211, Note_on_c, 13, 47, 46
15, 67331, Note_on_c, 13, 47, 0
15, 67691, Note_on_c, 13, 47, 46
15, 67811, Note_on_c, 13, 47, 0
15, 68171, Note_on_c, 13, 47, 46
15, 68291, Note_on_c, 13, 47, 0
15, 68651, Note_on_c, 13, 47, 46
15, 68771, Note_on_c, 13, 47, 0
15, 69131, Note_on_c, 13, 47, 46
15, 69251, Note_on_c, 13, 47, 0
15, 69611, Note_on_c, 13, 47, 46
15, 69731, Note_on_c, 13, 47, 0
15, 69851, Note_on_c, 13, 47, 52
15, 69971, Note_on_c, 13, 47, 0
15, 70091, Note_on_c, 13, 47, 58
15, 70211, Note_on_c, 13, 47, 0
15, 70331, Note_on_c, 13, 47, 64
15, 70451, Note_on_c, 13, 47, 0
15, 70571, Note_on_c, 13, 52, 46
15, 70691, Note_on_c, 13, 52, 0
15, 72731, Note_on_c, 13, 52, 41
15, 72851, Note_on_c, 13, 52, 0
15, 73211, Note_on_c, 13, 52, 41
15, 73331, Note_on_c, 13, 52, 0
15, 73691, Note_on_c, 13, 47, 46
15, 73811, Note_on_c, 13, 47, 0
15, 74170, Program_c, 13, 48
15, 74171, Control_c, 13, 11, 47
15, 74171, Note_on_c, 13, 47, 99
15, 74276, Note_on_c, 13, 47, 0
15, 74291, Note_on_c, 13, 47, 99
15, 74396, Note_on_c, 13, 47, 0
15, 74411, Note_on_c, 13, 51, 99
15, 74531, Note_on_c, 13, 51, 0
15, 74531, Note_on_c, 13, 47, 99
15, 74771, Note_on_c, 13, 47, 0
15, 74771, Note_on_c, 13, 49, 99
15, 74831, Note_on_c, 13, 49, 0
15, 74831, Note_on_c, 13, 51, 99
15, 74876, Note_on_c, 13, 51, 0
15, 74891, Note_on_c, 13, 52, 99
15, 75011, Note_on_c, 13, 52, 0
15, 75011, Note_on_c, 13, 47, 99
15, 75236, Note_on_c, 13, 47, 0
15, 75251, Note_on_c, 13, 47, 99
15, 75356, Note_on_c, 13, 47, 0
15, 75371, Control_c, 13, 11, 47
15, 75371, Note_on_c, 13, 51, 99
15, 75407, Control_c, 13, 11, 48
15, 75443, Control_c, 13, 11, 49
15, 75479, Control_c, 13, 11, 50
15, 75491, Note_on_c, 13, 51, 0
15, 75491, Note_on_c, 13, 47, 99
15, 75515, Control_c, 13, 11, 51
15, 75551, Control_c, 13, 11, 52
15, 75587, Control_c, 13, 11, 53
15, 75623, Control_c, 13, 11, 54
15, 75659, Control_c, 13, 11, 55
15, 75695, Control_c, 13, 11, 56
15, 75731, Note_on_c, 13, 47, 0
15, 75731, Control_c, 13, 11, 57
15, 75731, Note_on_c, 13, 49, 99
15, 75767, Control_c, 13, 11, 58
15, 75791, Note_on_c, 13, 49, 0
15, 75791, Note_on_c, 13, 51, 99
15, 75803, Control_c, 13, 11, 59
15, 75836, Note_on_c, 13, 51, 0
15, 75839, Control_c, 13, 11, 60
15, 75851, Note_on_c, 13, 52, 99
15, 75875, Control_c, 13, 11, 61
15, 75911, Control_c, 13, 11, 62
15, 75947, Control_c, 13, 11, 63
15, 75971, Note_on_c, 13, 52, 0
15, 75971, Note_on_c, 13, 47, 99
15, 75983, Control_c, 13, 11, 64
15, 76019, Control_c, 13, 11, 65
15, 76055, Control_c, 13, 11, 66
15, 76091, Control_c, 13, 11, 67
15, 76127, Control_c, 13, 11, 68
15, 76163, Control_c, 13, 11, 69
15, 76196, Note_on_c, 13, 47, 0
15, 76199, Control_c, 13, 11, 70
15, 76211, Note_on_c, 13, 47, 99
15, 76235, Control_c, 13, 11, 71
15, 76271, Control_c, 13, 11, 72
15, 76307, Control_c, 13, 11, 73
15, 76316, Note_on_c, 13, 47, 0
15, 76331, Note_on_c, 13, 51, 99
15, 76343, Control_c, 13, 11, 74
15, 76379, Control_c, 13, 11, 75
15, 76415, Control_c, 13, 11, 76
15, 76451, Note_on_c, 13, 51, 0
15, 76451, Control_c, 13, 11, 77
15, 76451, Note_on_c, 13, 59, 99
15, 76487, Control_c, 13, 11, 78
15, 76523, Control_c, 13, 11, 79
15, 76559, Control_c, 13, 11, 80
15, 76595, Control_c, 13, 11, 81
15, 76631, Control_c, 13, 11, 82
15, 76667, Control_c, 13, 11, 83
15, 76691, Note_on_c, 13, 59, 0
15, 76691, Note_on_c, 13, 61, 99
15, 76703, Control_c, 13, 11, 84
15, 76739, Control_c, 13, 11, 85
15, 76751, Note_on_c, 13, 61, 0
15, 76751, Note_on_c, 13, 63, 99
15, 76775, Control_c, 13, 11, 86
15, 76796, Note_on_c, 13, 63, 0
15, 76811, Control_c, 13, 11, 87
15, 76811, Note_on_c, 13, 64, 99
15, 76856, Note_on_c, 13, 64, 0
15, 76871, Note_on_c, 13, 52, 99
15, 76916, Note_on_c, 13, 52, 0
15, 76931, Note_on_c, 13, 52, 99
15, 76976, Note_on_c, 13, 52, 0
15, 76991, Note_on_c, 13, 52, 99
15, 77036, Note_on_c, 13, 52, 0
15, 77051, Note_on_c, 13, 52, 99
15, 77096, Note_on_c, 13, 52, 0
15, 77111, Note_on_c, 13, 52, 99
15, 77156, Note_on_c, 13, 52, 0
15, 77171, Note_on_c, 13, 52, 99
15, 77216, Note_on_c, 13, 52, 0
15, 77231, Note_on_c, 13, 52, 99
15, 77276, Note_on_c, 13, 52, 0
15, 77291, Note_on_c, 13, 52, 99
15, 77336, Note_on_c, 13, 52, 0
15, 77351, Note_on_c, 13, 52, 99
15, 77396, Note_on_c, 13, 52, 0
15, 77411, Note_on_c, 13, 52, 99
15, 77456, Note_on_c, 13, 52, 0
15, 77471, Note_on_c, 13, 52, 99
15, 77516, Note_on_c, 13, 52, 0
15, 77531, Note_on_c, 13, 52, 99
15, 77576, Note_on_c, 13, 52, 0
15, 77591, Note_on_c, 13, 52, 99
15, 77636, Note_on_c, 13, 52, 0
15, 77651, Note_on_c, 13, 52, 99
15, 77696, Note_on_c, 13, 52, 0
15, 77711, Note_on_c, 13, 52, 99
15, 77756, Note_on_c, 13, 52, 0
15, 77771, Note_on_c, 13, 52, 99
15, 77816, Note_on_c, 13, 52, 0
15, 77831, Note_on_c, 13, 52, 99
15, 77876, Note_on_c, 13, 52, 0
15, 77891, Note_on_c, 13, 52, 99
15, 77936, Note_on_c, 13, 52, 0
15, 77951, Note_on_c, 13, 52, 99
15, 77996, Note_on_c, 13, 52, 0
15, 78011, Note_on_c, 13, 52, 99
15, 78056, Note_on_c, 13, 52, 0
15, 78071, Note_on_c, 13, 52, 99
15, 78116, Note_on_c, 13, 52, 0
15, 78131, Note_on_c, 13, 52, 99
15, 78176, Note_on_c, 13, 52, 0
15, 78191, Note_on_c, 13, 52, 99
15, 78236, Note_on_c, 13, 52, 0
15, 78251, Note_on_c, 13, 52, 99
15, 78296, Note_on_c, 13, 52, 0
15, 78311, Note_on_c, 13, 52, 99
15, 78356, Note_on_c, 13, 52, 0
15, 78371, Note_on_c, 13, 52, 99
15, 78416, Note_on_c, 13, 52, 0
15, 78431, Note_on_c, 13, 52, 99
15, 78476, Note_on_c, 13, 52, 0
15, 78491, Note_on_c, 13, 52, 99
15, 78536, Note_on_c, 13, 52, 0
15, 78551, Note_on_c, 13, 52, 99
15, 78596, Note_on_c, 13, 52, 0
15, 78611, Note_on_c, 13, 52, 99
15, 78656, Note_on_c, 13, 52, 0
15, 78671, Note_on_c, 13, 52, 99
15, 78716, Note_on_c, 13, 52, 0
15, 78731, Note_on_c, 13, 52, 99
15, 78776, Note_on_c, 13, 52, 0
15, 78791, Note_on_c, 13, 52, 99
15, 78836, Note_on_c, 13, 52, 0
15, 78851, Note_on_c, 13, 52, 99
15, 78896, Note_on_c, 13, 52, 0
15, 78911, Note_on_c, 13, 52, 99
15, 78956, Note_on_c, 13, 52, 0
15, 78971, Note_on_c, 13, 52, 99
15, 79016, Note_on_c, 13, 52, 0
15, 79031, Note_on_c, 13, 52, 99
15, 79076, Note_on_c, 13, 52, 0
15, 79091, Note_on_c, 13, 52, 99
15, 79136, Note_on_c, 13, 52, 0
15, 79151, Note_on_c, 13, 52, 99
15, 79196, Note_on_c, 13, 52, 0
15, 79211, Note_on_c, 13, 52, 99
15, 79256, Note_on_c, 13, 52, 0
15, 79271, Note_on_c, 13, 52, 99
15, 79316, Note_on_c, 13, 52, 0
15, 79331, Note_on_c, 13, 52, 99
15, 79376, Note_on_c, 13, 52, 0
15, 79391, Note_on_c, 13, 52, 99
15, 79436, Note_on_c, 13, 52, 0
15, 79451, Note_on_c, 13, 52, 99
15, 79496, Note_on_c, 13, 52, 0
15, 79511, Note_on_c, 13, 52, 99
15, 79556, Note_on_c, 13, 52, 0
15, 79571, Note_on_c, 13, 52, 99
15, 79616, Note_on_c, 13, 52, 0
15, 79631, Note_on_c, 13, 52, 99
15, 79676, Note_on_c, 13, 52, 0
15, 79691, Note_on_c, 13, 52, 99
15, 79736, Note_on_c, 13, 52, 0
15, 79751, Note_on_c, 13, 52, 99
15, 79796, Note_on_c, 13, 52, 0
15, 79811, Note_on_c, 13, 52, 99
15, 79856, Note_on_c, 13, 52, 0
15, 79871, Note_on_c, 13, 52, 99
15, 79916, Note_on_c, 13, 52, 0
15, 79931, Note_on_c, 13, 52, 99
15, 79976, Note_on_c, 13, 52, 0
15, 79991, Note_on_c, 13, 52, 99
15, 80036, Note_on_c, 13, 52, 0
15, 80051, Note_on_c, 13, 52, 99
15, 80096, Note_on_c, 13, 52, 0
15, 80111, Note_on_c, 13, 52, 99
15, 80156, Note_on_c, 13, 52, 0
15, 80171, Note_on_c, 13, 52, 99
15, 80216, Note_on_c, 13, 52, 0
15, 80231, Note_on_c, 13, 52, 99
15, 80276, Note_on_c, 13, 52, 0
15, 80291, Note_on_c, 13, 52, 99
15, 80336, Note_on_c, 13, 52, 0
15, 80351, Note_on_c, 13, 52, 99
15, 80396, Note_on_c, 13, 52, 0
15, 80411, Note_on_c, 13, 52, 99
15, 80456, Note_on_c, 13, 52, 0
15, 80471, Note_on_c, 13, 52, 99
15, 80516, Note_on_c, 13, 52, 0
15, 80531, Note_on_c, 13, 52, 99
15, 80576, Note_on_c, 13, 52, 0
15, 80591, Note_on_c, 13, 52, 99
15, 80636, Note_on_c, 13, 52, 0
15, 80651, Note_on_c, 13, 52, 99
15, 80771, Note_on_c, 13, 52, 0
15, 80891, Note_on_c, 13, 52, 99
15, 81011, Note_on_c, 13, 52, 0
15, 81131, Note_on_c, 13, 52, 99
15, 81251, Note_on_c, 13, 52, 0
15, 81371, Note_on_c, 13, 52, 99
15, 81491, Note_on_c, 13, 52, 0
15, 81611, Control_c, 13, 11, 107
15, 81611, Note_on_c, 13, 47, 99
15, 81628, Control_c, 13, 11, 104
15, 81646, Control_c, 13, 11, 101
15, 81656, Note_on_c, 13, 47, 0
15, 81664, Control_c, 13, 11, 98
15, 81671, Note_on_c, 13, 47, 99
15, 81682, Control_c, 13, 11, 95
15, 81700, Control_c, 13, 11, 92
15, 81716, Note_on_c, 13, 47, 0
15, 81718, Control_c, 13, 11, 89
15, 81731, Note_on_c, 13, 47, 99
15, 81776, Note_on_c, 13, 47, 0
15, 81791, Note_on_c, 13, 47, 99
15, 81836, Note_on_c, 13, 47, 0
15, 81851, Note_on_c, 13, 47, 99
15, 81896, Note_on_c, 13, 47, 0
15, 81911, Note_on_c, 13, 47, 99
15, 81956, Note_on_c, 13, 47, 0
15, 81971, Note_on_c, 13, 47, 99
15, 82016, Note_on_c, 13, 47, 0
15, 82031, Note_on_c, 13, 47, 99
15, 82076, Note_on_c, 13, 47, 0
15, 82091, Note_on_c, 13, 47, 99
15, 82136, Note_on_c, 13, 47, 0
15, 82151, Note_on_c, 13, 47, 99
15, 82196, Note_on_c, 13, 47, 0
15, 82211, Note_on_c, 13, 47, 99
15, 82256, Note_on_c, 13, 47, 0
15, 82271, Note_on_c, 13, 47, 99
15, 82316, Note_on_c, 13, 47, 0
15, 82331, Note_on_c, 13, 47, 99
15, 82376, Note_on_c, 13, 47, 0
15, 82391, Note_on_c, 13, 47, 99
15, 82436, Note_on_c, 13, 47, 0
15, 82451, Note_on_c, 13, 47, 99
15, 82496, Note_on_c, 13, 47, 0
15, 82511, Note_on_c, 13, 47, 99
15, 82556, Note_on_c, 13, 47, 0
15, 82571, Note_on_c, 13, 52, 99
15, 82691, Note_on_c, 13, 52, 0
15, 82811, Note_on_c, 13, 52, 99
15, 82931, Note_on_c, 13, 52, 0
15, 83051, Note_on_c, 13, 52, 99
15, 83171, Note_on_c, 13, 52, 0
15, 83291, Note_on_c, 13, 52, 99
15, 83411, Note_on_c, 13, 52, 0
15, 83531, Control_c, 13, 11, 107
15, 83531, Note_on_c, 13, 47, 99
15, 83548, Control_c, 13, 11, 104
15, 83566, Control_c, 13, 11, 101
15, 83576, Note_on_c, 13, 47, 0
15, 83584, Control_c, 13, 11, 98
15, 83591, Note_on_c, 13, 47, 99
15, 83602, Control_c, 13, 11, 95
15, 83620, Control_c, 13, 11, 92
15, 83636, Note_on_c, 13, 47, 0
15, 83638, Control_c, 13, 11, 89
15, 83651, Note_on_c, 13, 47, 99
15, 83696, Note_on_c, 13, 47, 0
15, 83711, Note_on_c, 13, 47, 99
15, 83756, Note_on_c, 13, 47, 0
15, 83771, Note_on_c, 13, 47, 99
15, 83816, Note_on_c, 13, 47, 0
15, 83831, Note_on_c, 13, 47, 99
15, 83876, Note_on_c, 13, 47, 0
15, 83891, Note_on_c, 13, 47, 99
15, 83936, Note_on_c, 13, 47, 0
15, 83951, Note_on_c, 13, 47, 99
15, 83996, Note_on_c, 13, 47, 0
15, 84011, Note_on_c, 13, 47, 99
15, 84056, Note_on_c, 13, 47, 0
15, 84071, Note_on_c, 13, 47, 99
15, 84116, Note_on_c, 13, 47, 0
15, 84131, Note_on_c, 13, 47, 99
15, 84176, Note_on_c, 13, 47, 0
15, 84191, Note_on_c, 13, 47, 99
15, 84236, Note_on_c, 13, 47, 0
15, 84251, Note_on_c, 13, 47, 99
15, 84296, Note_on_c, 13, 47, 0
15, 84311, Note_on_c, 13, 47, 99
15, 84356, Note_on_c, 13, 47, 0
15, 84371, Note_on_c, 13, 47, 99
15, 84416, Note_on_c, 13, 47, 0
15, 84431, Note_on_c, 13, 47, 99
15, 84476, Note_on_c, 13, 47, 0
15, 84491, Note_on_c, 13, 52, 99
15, 84536, Note_on_c, 13, 52, 0
15, 84551, Note_on_c, 13, 52, 99
15, 84596, Note_on_c, 13, 52, 0
15, 84611, Note_on_c, 13, 52, 99
15, 84656, Note_on_c, 13, 52, 0
15, 84671, Note_on_c, 13, 52, 99
15, 84716, Note_on_c, 13, 52, 0
15, 84731, Note_on_c, 13, 52, 99
15, 84776, Note_on_c, 13, 52, 0
15, 84791, Note_on_c, 13, 52, 99
15, 84836, Note_on_c, 13, 52, 0
15, 84851, Note_on_c, 13, 52, 99
15, 84896, Note_on_c, 13, 52, 0
15, 84911, Note_on_c, 13, 52, 99
15, 84956, Note_on_c, 13, 52, 0
15, 84971, Note_on_c, 13, 52, 99
15, 85016, Note_on_c, 13, 52, 0
15, 85031, Note_on_c, 13, 52, 99
15, 85076, Note_on_c, 13, 52, 0
15, 85091, Note_on_c, 13, 52, 99
15, 85136, Note_on_c, 13, 52, 0
15, 85151, Note_on_c, 13, 52, 99
15, 85196, Note_on_c, 13, 52, 0
15, 85211, Note_on_c, 13, 52, 99
15, 85256, Note_on_c, 13, 52, 0
15, 85271, Note_on_c, 13, 52, 99
15, 85316, Note_on_c, 13, 52, 0
15, 85331, Note_on_c, 13, 52, 99
15, 85376, Note_on_c, 13, 52, 0
15, 85391, Note_on_c, 13, 52, 99
15, 85436, Note_on_c, 13, 52, 0
15, 85451, Note_on_c, 13, 52, 99
15, 85496, Note_on_c, 13, 52, 0
15, 85511, Note_on_c, 13, 52, 99
15, 85556, Note_on_c, 13, 52, 0
15, 85571, Note_on_c, 13, 52, 99
15, 85616, Note_on_c, 13, 52, 0
15, 85631, Note_on_c, 13, 52, 99
15, 85676, Note_on_c, 13, 52, 0
15, 85691, Note_on_c, 13, 52, 99
15, 85736, Note_on_c, 13, 52, 0
15, 85751, Note_on_c, 13, 52, 99
15, 85796, Note_on_c, 13, 52, 0
15, 85811, Note_on_c, 13, 52, 99
15, 85856, Note_on_c, 13, 52, 0
15, 85871, Note_on_c, 13, 52, 99
15, 85916, Note_on_c, 13, 52, 0
15, 85931, Control_c, 13, 11, 107
15, 85931, Note_on_c, 13, 52, 99
15, 85948, Control_c, 13, 11, 104
15, 85966, Control_c, 13, 11, 101
15, 85976, Note_on_c, 13, 52, 0
15, 85984, Control_c, 13, 11, 98
15, 85991, Note_on_c, 13, 52, 99
15, 86002, Control_c, 13, 11, 95
15, 86020, Control_c, 13, 11, 92
15, 86036, Note_on_c, 13, 52, 0
15, 86038, Control_c, 13, 11, 89
15, 86051, Note_on_c, 13, 52, 99
15, 86096, Note_on_c, 13, 52, 0
15, 86111, Note_on_c, 13, 52, 99
15, 86156, Note_on_c, 13, 52, 0
15, 86171, Note_on_c, 13, 52, 99
15, 86201, Note_on_c, 13, 52, 0
15, 86231, Note_on_c, 13, 50, 99
15, 86261, Note_on_c, 13, 50, 0
15, 86291, Note_on_c, 13, 47, 99
15, 86321, Note_on_c, 13, 47, 0
15, 86351, Note_on_c, 13, 45, 99
15, 86381, Note_on_c, 13, 45, 0
15, 86411, Note_on_c, 13, 44, 75
15, 86531, Note_on_c, 13, 44, 0
15, 87610, Program_c, 13, 45
15, 87611, Control_c, 13, 11, 100
15, 87611, Note_on_c, 13, 52, 46
15, 87731, Note_on_c, 13, 52, 0
15, 87851, Note_on_c, 13, 57, 46
15, 87971, Note_on_c, 13, 57, 0
15, 88091, Note_on_c, 13, 45, 46
15, 88211, Note_on_c, 13, 45, 0
15, 88331, Note_on_c, 13, 52, 46
15, 88451, Note_on_c, 13, 52, 0
15, 89531, Note_on_c, 13, 52, 46
15, 89651, Note_on_c, 13, 52, 0
15, 89771, Note_on_c, 13, 57, 46
15, 89891, Note_on_c, 13, 57, 0
15, 90011, Note_on_c, 13, 45, 46
15, 90131, Note_on_c, 13, 45, 0
15, 90251, Note_on_c, 13, 52, 46
15, 90371, Note_on_c, 13, 52, 0
15, 90971, Note_on_c, 13, 47, 46
15, 91091, Note_on_c, 13, 47, 0
15, 91211, Note_on_c, 13, 54, 46
15, 91331, Note_on_c, 13, 54, 0
15, 92411, Note_on_c, 13, 55, 46
15, 92531, Note_on_c, 13, 55, 0
15, 92651, Note_on_c, 13, 60, 46
15, 92771, Note_on_c, 13, 60, 0
15, 92891, Note_on_c, 13, 48, 46
15, 93011, Note_on_c, 13, 48, 0
15, 93131, Note_on_c, 13, 43, 46
15, 93251, Note_on_c, 13, 43, 0
15, 93730, Program_c, 13, 48
15, 93731, Control_c, 13, 11, 47
15, 93731, Note_on_c, 13, 55, 99
15, 93764, Control_c, 13, 11, 48
15, 93776, Note_on_c, 13, 55, 0
15, 93791, Note_on_c, 13, 55, 99
15, 93797, Control_c, 13, 11, 49
15, 93830, Control_c, 13, 11, 50
15, 93836, Note_on_c, 13, 55, 0
15, 93851, Note_on_c, 13, 55, 99
15, 93863, Control_c, 13, 11, 51
15, 93896, Control_c, 13, 11, 52
15, 93929, Control_c, 13, 11, 53
15, 93956, Note_on_c, 13, 55, 0
15, 93962, Control_c, 13, 11, 54
15, 93971, Note_on_c, 13, 55, 99
15, 93995, Control_c, 13, 11, 55
15, 94016, Note_on_c, 13, 55, 0
15, 94028, Control_c, 13, 11, 56
15, 94031, Note_on_c, 13, 55, 99
15, 94061, Control_c, 13, 11, 57
15, 94076, Note_on_c, 13, 55, 0
15, 94091, Note_on_c, 13, 60, 99
15, 94094, Control_c, 13, 11, 58
15, 94127, Control_c, 13, 11, 59
15, 94160, Control_c, 13, 11, 60
15, 94193, Control_c, 13, 11, 61
15, 94196, Note_on_c, 13, 60, 0
15, 94211, Note_on_c, 13, 55, 99
15, 94226, Control_c, 13, 11, 62
15, 94256, Note_on_c, 13, 55, 0
15, 94259, Control_c, 13, 11, 63
15, 94271, Note_on_c, 13, 55, 99
15, 94292, Control_c, 13, 11, 64
15, 94316, Note_on_c, 13, 55, 0
15, 94325, Control_c, 13, 11, 65
15, 94331, Note_on_c, 13, 55, 99
15, 94358, Control_c, 13, 11, 66
15, 94391, Control_c, 13, 11, 67
15, 94424, Control_c, 13, 11, 68
15, 94436, Note_on_c, 13, 55, 0
15, 94451, Note_on_c, 13, 55, 99
15, 94457, Control_c, 13, 11, 69
15, 94490, Control_c, 13, 11, 70
15, 94496, Note_on_c, 13, 55, 0
15, 94511, Note_on_c, 13, 55, 99
15, 94523, Control_c, 13, 11, 71
15, 94556, Note_on_c, 13, 55, 0
15, 94556, Control_c, 13, 11, 72
15, 94571, Note_on_c, 13, 60, 99
15, 94589, Control_c, 13, 11, 73
15, 94622, Control_c, 13, 11, 74
15, 94655, Control_c, 13, 11, 75
15, 94676, Note_on_c, 13, 60, 0
15, 94688, Control_c, 13, 11, 76
15, 94691, Note_on_c, 13, 55, 99
15, 94721, Control_c, 13, 11, 77
15, 94736, Note_on_c, 13, 55, 0
15, 94751, Note_on_c, 13, 55, 99
15, 94754, Control_c, 13, 11, 78
15, 94787, Control_c, 13, 11, 79
15, 94796, Note_on_c, 13, 55, 0
15, 94811, Note_on_c, 13, 55, 99
15, 94820, Control_c, 13, 11, 80
15, 94853, Control_c, 13, 11, 81
15, 94886, Control_c, 13, 11, 82
15, 94916, Note_on_c, 13, 55, 0
15, 94919, Control_c, 13, 11, 83
15, 94931, Note_on_c, 13, 55, 99
15, 94952, Control_c, 13, 11, 84
15, 94976, Note_on_c, 13, 55, 0
15, 94985, Control_c, 13, 11, 85
15, 94991, Note_on_c, 13, 55, 99
15, 95018, Control_c, 13, 11, 86
15, 95036, Note_on_c, 13, 55, 0
15, 95051, Control_c, 13, 11, 87
15, 95051, Note_on_c, 13, 60, 99
15, 95156, Note_on_c, 13, 60, 0
15, 95171, Note_on_c, 13, 55, 99
15, 95216, Note_on_c, 13, 55, 0
15, 95231, Note_on_c, 13, 55, 99
15, 95276, Note_on_c, 13, 55, 0
15, 95291, Note_on_c, 13, 60, 99
15, 95396, Note_on_c, 13, 60, 0
15, 95411, Note_on_c, 13, 55, 99
15, 95456, Note_on_c, 13, 55, 0
15, 95471, Note_on_c, 13, 55, 99
15, 95516, Note_on_c, 13, 55, 0
15, 95531, Note_on_c, 13, 60, 99
15, 95636, Note_on_c, 13, 60, 0
15, 95651, Note_on_c, 13, 55, 99
15, 95696, Note_on_c, 13, 55, 0
15, 95711, Note_on_c, 13, 55, 99
15, 95756, Note_on_c, 13, 55, 0
15, 95771, Note_on_c, 13, 60, 99
15, 95876, Note_on_c, 13, 60, 0
15, 95891, Note_on_c, 13, 55, 99
15, 95936, Note_on_c, 13, 55, 0
15, 95951, Note_on_c, 13, 55, 99
15, 95996, Note_on_c, 13, 55, 0
15, 96011, Control_c, 13, 11, 102
15, 96011, Note_on_c, 13, 60, 99
15, 96476, Note_on_c, 13, 60, 0
15, 96491, Note_on_c, 13, 60, 99
15, 96536, Note_on_c, 13, 60, 0
15, 96551, Note_on_c, 13, 59, 99
15, 96596, Note_on_c, 13, 59, 0
15, 96611, Note_on_c, 13, 57, 99
15, 96656, Note_on_c, 13, 57, 0
15, 96671, Note_on_c, 13, 55, 99
15, 96716, Note_on_c, 13, 55, 0
15, 96731, Note_on_c, 13, 53, 99
15, 96776, Note_on_c, 13, 53, 0
15, 96791, Note_on_c, 13, 52, 99
15, 96836, Note_on_c, 13, 52, 0
15, 96851, Note_on_c, 13, 50, 99
15, 96896, Note_on_c, 13, 50, 0
15, 96911, Note_on_c, 13, 48, 99
15, 96956, Note_on_c, 13, 48, 0
15, 96971, Note_on_c, 13, 45, 99
15, 97436, Note_on_c, 13, 45, 0
15, 97451, Note_on_c, 13, 57, 99
15, 97496, Note_on_c, 13, 57, 0
15, 97511, Note_on_c, 13, 55, 99
15, 97556, Note_on_c, 13, 55, 0
15, 97571, Note_on_c, 13, 53, 99
15, 97616, Note_on_c, 13, 53, 0
15, 97631, Note_on_c, 13, 52, 99
15, 97676, Note_on_c, 13, 52, 0
15, 97691, Note_on_c, 13, 50, 99
15, 97736, Note_on_c, 13, 50, 0
15, 97751, Note_on_c, 13, 48, 99
15, 97796, Note_on_c, 13, 48, 0
15, 97811, Note_on_c, 13, 47, 99
15, 97856, Note_on_c, 13, 47, 0
15, 97871, Note_on_c, 13, 45, 99
15, 97916, Note_on_c, 13, 45, 0
15, 97931, Note_on_c, 13, 57, 99
15, 97976, Note_on_c, 13, 57, 0
15, 97991, Note_on_c, 13, 57, 99
15, 98036, Note_on_c, 13, 57, 0
15, 98051, Note_on_c, 13, 57, 99
15, 98096, Note_on_c, 13, 57, 0
15, 98111, Note_on_c, 13, 57, 99
15, 98156, Note_on_c, 13, 57, 0
15, 98171, Note_on_c, 13, 57, 99
15, 98216, Note_on_c, 13, 57, 0
15, 98231, Note_on_c, 13, 57, 99
15, 98276, Note_on_c, 13, 57, 0
15, 98291, Note_on_c, 13, 57, 99
15, 98336, Note_on_c, 13, 57, 0
15, 98351, Note_on_c, 13, 57, 99
15, 98396, Note_on_c, 13, 57, 0
15, 98411, Note_on_c, 13, 57, 99
15, 98456, Note_on_c, 13, 57, 0
15, 98471, Note_on_c, 13, 57, 99
15, 98516, Note_on_c, 13, 57, 0
15, 98531, Note_on_c, 13, 57, 99
15, 98576, Note_on_c, 13, 57, 0
15, 98591, Note_on_c, 13, 57, 99
15, 98636, Note_on_c, 13, 57, 0
15, 98651, Note_on_c, 13, 57, 99
15, 98696, Note_on_c, 13, 57, 0
15, 98711, Note_on_c, 13, 57, 99
15, 98756, Note_on_c, 13, 57, 0
15, 98771, Note_on_c, 13, 57, 99
15, 98816, Note_on_c, 13, 57, 0
15, 98831, Note_on_c, 13, 57, 99
15, 98876, Note_on_c, 13, 57, 0
15, 98891, Note_on_c, 13, 57, 99
15, 99236, Note_on_c, 13, 57, 0
15, 99251, Control_c, 13, 11, 122
15, 99251, Note_on_c, 13, 58, 99
15, 99268, Control_c, 13, 11, 119
15, 99286, Control_c, 13, 11, 116
15, 99304, Control_c, 13, 11, 113
15, 99322, Control_c, 13, 11, 110
15, 99340, Control_c, 13, 11, 107
15, 99356, Note_on_c, 13, 58, 0
15, 99358, Control_c, 13, 11, 104
15, 99371, Note_on_c, 13, 57, 99
15, 99716, Note_on_c, 13, 57, 0
15, 99731, Control_c, 13, 11, 122
15, 99731, Note_on_c, 13, 58, 99
15, 99748, Control_c, 13, 11, 119
15, 99766, Control_c, 13, 11, 116
15, 99784, Control_c, 13, 11, 113
15, 99802, Control_c, 13, 11, 110
15, 99820, Control_c, 13, 11, 107
15, 99836, Note_on_c, 13, 58, 0
15, 99838, Control_c, 13, 11, 104
15, 99851, Note_on_c, 13, 57, 99
15, 99956, Note_on_c, 13, 57, 0
15, 99971, Control_c, 13, 11, 122
15, 99971, Note_on_c, 13, 58, 99
15, 99988, Control_c, 13, 11, 119
15, 100006, Control_c, 13, 11, 116
15, 100024, Control_c, 13, 11, 113
15, 100042, Control_c, 13, 11, 110
15, 100060, Control_c, 13, 11, 107
15, 100076, Note_on_c, 13, 58, 0
15, 100078, Control_c, 13, 11, 104
15, 100091, Note_on_c, 13, 57, 99
15, 100196, Note_on_c, 13, 57, 0
15, 100211, Control_c, 13, 11, 122
15, 100211, Note_on_c, 13, 58, 99
15, 100228, Control_c, 13, 11, 119
15, 100246, Control_c, 13, 11, 116
15, 100264, Control_c, 13, 11, 113
15, 100282, Control_c, 13, 11, 110
15, 100300, Control_c, 13, 11, 107
15, 100316, Note_on_c, 13, 58, 0
15, 100318, Control_c, 13, 11, 104
15, 100331, Note_on_c, 13, 57, 99
15, 100436, Note_on_c, 13, 57, 0
15, 100451, Control_c, 13, 11, 122
15, 100451, Note_on_c, 13, 58, 99
15, 100468, Control_c, 13, 11, 119
15, 100486, Control_c, 13, 11, 116
15, 100504, Control_c, 13, 11, 113
15, 100522, Control_c, 13, 11, 110
15, 100540, Control_c, 13, 11, 107
15, 100556, Note_on_c, 13, 58, 0
15, 100558, Control_c, 13, 11, 104
15, 100571, Note_on_c, 13, 57, 99
15, 100676, Note_on_c, 13, 57, 0
15, 100691, Control_c, 13, 11, 122
15, 100691, Note_on_c, 13, 54, 99
15, 100708, Control_c, 13, 11, 119
15, 100726, Control_c, 13, 11, 116
15, 100744, Control_c, 13, 11, 113
15, 100762, Control_c, 13, 11, 110
15, 100780, Control_c, 13, 11, 107
15, 100796, Note_on_c, 13, 54, 0
15, 100798, Control_c, 13, 11, 104
15, 100811, Note_on_c, 13, 55, 99
15, 100916, Note_on_c, 13, 55, 0
15, 100931, Control_c, 13, 11, 122
15, 100931, Note_on_c, 13, 52, 99
15, 100948, Control_c, 13, 11, 119
15, 100966, Control_c, 13, 11, 116
15, 100984, Control_c, 13, 11, 113
15, 101002, Control_c, 13, 11, 110
15, 101020, Control_c, 13, 11, 107
15, 101036, Note_on_c, 13, 52, 0
15, 101038, Control_c, 13, 11, 104
15, 101051, Note_on_c, 13, 53, 99
15, 101156, Note_on_c, 13, 53, 0
15, 101171, Control_c, 13, 11, 122
15, 101171, Note_on_c, 13, 50, 99
15, 101188, Control_c, 13, 11, 119
15, 101206, Control_c, 13, 11, 116
15, 101224, Control_c, 13, 11, 113
15, 101242, Control_c, 13, 11, 110
15, 101260, Control_c, 13, 11, 107
15, 101276, Note_on_c, 13, 50, 0
15, 101278, Control_c, 13, 11, 104
15, 101291, Note_on_c, 13, 55, 99
15, 101396, Note_on_c, 13, 55, 0
15, 101411, Control_c, 13, 11, 122
15, 101411, Note_on_c, 13, 43, 99
15, 101428, Control_c, 13, 11, 119
15, 101446, Control_c, 13, 11, 116
15, 101464, Control_c, 13, 11, 113
15, 101482, Control_c, 13, 11, 110
15, 101500, Control_c, 13, 11, 107
15, 101516, Note_on_c, 13, 43, 0
15, 101518, Control_c, 13, 11, 104
15, 101531, Note_on_c, 13, 55, 99
15, 101636, Note_on_c, 13, 55, 0
15, 101651, Control_c, 13, 11, 122
15, 101651, Note_on_c, 13, 43, 99
15, 101668, Control_c, 13, 11, 119
15, 101686, Control_c, 13, 11, 116
15, 101704, Control_c, 13, 11, 113
15, 101722, Control_c, 13, 11, 110
15, 101740, Control_c, 13, 11, 107
15, 101756, Note_on_c, 13, 43, 0
15, 101758, Control_c, 13, 11, 104
15, 101771, Note_on_c, 13, 48, 99
15, 101891, Note_on_c, 13, 48, 0
15, 102131, Control_c, 13, 11, 87
15, 102131, Note_on_c, 13, 48, 99
15, 102371, Note_on_c, 13, 48, 0
15, 102611, Note_on_c, 13, 48, 99
15, 102851, Note_on_c, 13, 48, 0
15, 103091, Note_on_c, 13, 48, 99
15, 103331, Note_on_c, 13, 48, 0
15, 103571, Note_on_c, 13, 48, 99
15, 103796, Note_on_c, 13, 48, 0
15, 103811, Note_on_c, 13, 48, 99
15, 103856, Note_on_c, 13, 48, 0
15, 103871, Note_on_c, 13, 48, 99
15, 103916, Note_on_c, 13, 48, 0
15, 103931, Note_on_c, 13, 48, 99
15, 104051, Note_on_c, 13, 48, 0
15, 104171, Note_on_c, 13, 48, 99
15, 104276, Note_on_c, 13, 48, 0
15, 104291, Note_on_c, 13, 48, 99
15, 104336, Note_on_c, 13, 48, 0
15, 104351, Note_on_c, 13, 48, 99
15, 104396, Note_on_c, 13, 48, 0
15, 104411, Note_on_c, 13, 48, 99
15, 104531, Note_on_c, 13, 48, 0
15, 104651, Note_on_c, 13, 48, 99
15, 104756, Note_on_c, 13, 48, 0
15, 104771, Note_on_c, 13, 48, 99
15, 104816, Note_on_c, 13, 48, 0
15, 104831, Note_on_c, 13, 48, 99
15, 104876, Note_on_c, 13, 48, 0
15, 104891, Note_on_c, 13, 48, 99
15, 104996, Note_on_c, 13, 48, 0
15, 105011, Note_on_c, 13, 48, 99
15, 105056, Note_on_c, 13, 48, 0
15, 105071, Note_on_c, 13, 48, 99
15, 105116, Note_on_c, 13, 48, 0
15, 105131, Note_on_c, 13, 48, 99
15, 105236, Note_on_c, 13, 48, 0
15, 105251, Note_on_c, 13, 48, 99
15, 105296, Note_on_c, 13, 48, 0
15, 105311, Note_on_c, 13, 48, 99
15, 105356, Note_on_c, 13, 48, 0
15, 105371, Note_on_c, 13, 48, 99
15, 105476, Note_on_c, 13, 48, 0
15, 105491, Note_on_c, 13, 48, 99
15, 105536, Note_on_c, 13, 48, 0
15, 105551, Note_on_c, 13, 48, 99
15, 105596, Note_on_c, 13, 48, 0
15, 105611, Note_on_c, 13, 48, 99
15, 105716, Note_on_c, 13, 48, 0
15, 105731, Note_on_c, 13, 48, 99
15, 105776, Note_on_c, 13, 48, 0
15, 105791, Note_on_c, 13, 48, 99
15, 105836, Note_on_c, 13, 48, 0
15, 105851, Note_on_c, 13, 48, 99
15, 105956, Note_on_c, 13, 48, 0
15, 105971, Note_on_c, 13, 48, 99
15, 106016, Note_on_c, 13, 48, 0
15, 106031, Note_on_c, 13, 48, 99
15, 106076, Note_on_c, 13, 48, 0
15, 106091, Note_on_c, 13, 48, 99
15, 106196, Note_on_c, 13, 48, 0
15, 106211, Note_on_c, 13, 48, 99
15, 106256, Note_on_c, 13, 48, 0
15, 106271, Note_on_c, 13, 48, 99
15, 106316, Note_on_c, 13, 48, 0
15, 106331, Note_on_c, 13, 48, 99
15, 106436, Note_on_c, 13, 48, 0
15, 106451, Note_on_c, 13, 48, 99
15, 106496, Note_on_c, 13, 48, 0
15, 106511, Note_on_c, 13, 48, 99
15, 106556, Note_on_c, 13, 48, 0
15, 106571, Note_on_c, 13, 47, 99
15, 106691, Note_on_c, 13, 47, 0
15, 106931, Note_on_c, 13, 47, 99
15, 107171, Note_on_c, 13, 47, 0
15, 107411, Note_on_c, 13, 47, 99
15, 107651, Note_on_c, 13, 47, 0
15, 107891, Note_on_c, 13, 47, 99
15, 108131, Note_on_c, 13, 47, 0
15, 108371, Note_on_c, 13, 47, 99
15, 108596, Note_on_c, 13, 47, 0
15, 108611, Note_on_c, 13, 47, 99
15, 108656, Note_on_c, 13, 47, 0
15, 108671, Note_on_c, 13, 47, 99
15, 108716, Note_on_c, 13, 47, 0
15, 108731, Note_on_c, 13, 47, 99
15, 108836, Note_on_c, 13, 47, 0
15, 108851, Note_on_c, 13, 47, 99
15, 108896, Note_on_c, 13, 47, 0
15, 108911, Note_on_c, 13, 47, 99
15, 108956, Note_on_c, 13, 47, 0
15, 108971, Note_on_c, 13, 47, 99
15, 109076, Note_on_c, 13, 47, 0
15, 109091, Note_on_c, 13, 47, 99
15, 109136, Note_on_c, 13, 47, 0
15, 109151, Note_on_c, 13, 47, 99
15, 109196, Note_on_c, 13, 47, 0
15, 109211, Note_on_c, 13, 47, 99
15, 109316, Note_on_c, 13, 47, 0
15, 109331, Note_on_c, 13, 47, 99
15, 109376, Note_on_c, 13, 47, 0
15, 109391, Note_on_c, 13, 47, 99
15, 109436, Note_on_c, 13, 47, 0
15, 109451, Note_on_c, 13, 47, 99
15, 109556, Note_on_c, 13, 47, 0
15, 109571, Note_on_c, 13, 47, 99
15, 109616, Note_on_c, 13, 47, 0
15, 109631, Note_on_c, 13, 47, 99
15, 109676, Note_on_c, 13, 47, 0
15, 109691, Note_on_c, 13, 47, 99
15, 109796, Note_on_c, 13, 47, 0
15, 109811, Note_on_c, 13, 47, 99
15, 109856, Note_on_c, 13, 47, 0
15, 109871, Note_on_c, 13, 47, 99
15, 109916, Note_on_c, 13, 47, 0
15, 109931, Note_on_c, 13, 47, 99
15, 110051, Note_on_c, 13, 47, 0
15, 110411, Control_c, 13, 11, 102
15, 110411, Note_on_c, 13, 52, 99
15, 110561, Note_on_c, 13, 52, 0
15, 110591, Note_on_c, 13, 47, 99
15, 110636, Note_on_c, 13, 47, 0
15, 110651, Note_on_c, 13, 47, 99
15, 110711, Note_on_c, 13, 47, 0
15, 110891, Control_c, 13, 11, 122
15, 110891, Note_on_c, 13, 56, 99
15, 110908, Control_c, 13, 11, 119
15, 110926, Control_c, 13, 11, 116
15, 110944, Control_c, 13, 11, 113
15, 110962, Control_c, 13, 11, 110
15, 110980, Control_c, 13, 11, 107
15, 110998, Control_c, 13, 11, 104
15, 111041, Note_on_c, 13, 56, 0
15, 111071, Note_on_c, 13, 52, 99
15, 111116, Note_on_c, 13, 52, 0
15, 111131, Note_on_c, 13, 52, 99
15, 111191, Note_on_c, 13, 52, 0
15, 111371, Control_c, 13, 11, 122
15, 111371, Note_on_c, 13, 59, 99
15, 111388, Control_c, 13, 11, 119
15, 111406, Control_c, 13, 11, 116
15, 111424, Control_c, 13, 11, 113
15, 111442, Control_c, 13, 11, 110
15, 111460, Control_c, 13, 11, 107
15, 111478, Control_c, 13, 11, 104
15, 111521, Note_on_c, 13, 59, 0
15, 111551, Note_on_c, 13, 56, 99
15, 111596, Note_on_c, 13, 56, 0
15, 111611, Note_on_c, 13, 56, 99
15, 111671, Note_on_c, 13, 56, 0
15, 111731, Note_on_c, 13, 52, 99
15, 111791, Note_on_c, 13, 52, 0
15, 111851, Note_on_c, 13, 47, 99
15, 111911, Note_on_c, 13, 47, 0
15, 115211, Control_c, 13, 11, 27
15, 115211, Note_on_c, 13, 57, 79
15, 115223, Control_c, 13, 11, 30
15, 115235, Control_c, 13, 11, 33
15, 115247, Control_c, 13, 11, 36
15, 115259, Control_c, 13, 11, 39
15, 115271, Control_c, 13, 11, 42
15, 115283, Control_c, 13, 11, 45
15, 115291, Note_on_c, 13, 57, 0
15, 115291, Note_on_c, 13, 61, 79
15, 115371, Note_on_c, 13, 61, 0
15, 115371, Note_on_c, 13, 64, 79
15, 115451, Note_on_c, 13, 64, 0
15, 115451, Note_on_c, 13, 69, 79
15, 115531, Note_on_c, 13, 69, 0
15, 115531, Note_on_c, 13, 68, 79
15, 115611, Note_on_c, 13, 68, 0
15, 115611, Note_on_c, 13, 66, 79
15, 115691, Note_on_c, 13, 66, 0
15, 115691, Note_on_c, 13, 64, 79
15, 115771, Note_on_c, 13, 64, 0
15, 115771, Note_on_c, 13, 62, 79
15, 115851, Note_on_c, 13, 62, 0
15, 115851, Note_on_c, 13, 61, 79
15, 115931, Note_on_c, 13, 61, 0
15, 115931, Note_on_c, 13, 59, 79
15, 116011, Note_on_c, 13, 59, 0
15, 116011, Note_on_c, 13, 61, 79
15, 116091, Note_on_c, 13, 61, 0
15, 116091, Note_on_c, 13, 57, 79
15, 116156, Note_on_c, 13, 57, 0
15, 116651, Note_on_c, 13, 47, 60
15, 116731, Note_on_c, 13, 47, 0
15, 116731, Note_on_c, 13, 51, 67
15, 116811, Note_on_c, 13, 51, 0
15, 116811, Note_on_c, 13, 54, 70
15, 116891, Note_on_c, 13, 54, 0
15, 116891, Note_on_c, 13, 57, 69
15, 116971, Note_on_c, 13, 57, 0
15, 116971, Note_on_c, 13, 56, 69
15, 117051, Note_on_c, 13, 56, 0
15, 117051, Note_on_c, 13, 54, 68
15, 117131, Note_on_c, 13, 54, 0
15, 117131, Note_on_c, 13, 47, 67
15, 117211, Note_on_c, 13, 47, 0
15, 117211, Note_on_c, 13, 52, 67
15, 117291, Note_on_c, 13, 52, 0
15, 117291, Note_on_c, 13, 56, 67
15, 117371, Note_on_c, 13, 56, 0
15, 117371, Note_on_c, 13, 59, 66
15, 117451, Note_on_c, 13, 59, 0
15, 117451, Note_on_c, 13, 57, 66
15, 117531, Note_on_c, 13, 57, 0
15, 117531, Note_on_c, 13, 56, 65
15, 117611, Note_on_c, 13, 56, 0
15, 117611, Note_on_c, 13, 47, 64
15, 117691, Note_on_c, 13, 47, 0
15, 117691, Note_on_c, 13, 52, 64
15, 117771, Note_on_c, 13, 52, 0
15, 117771, Note_on_c, 13, 56, 63
15, 117851, Note_on_c, 13, 56, 0
15, 117851, Note_on_c, 13, 59, 63
15, 117931, Note_on_c, 13, 59, 0
15, 117931, Note_on_c, 13, 57, 62
15, 118011, Note_on_c, 13, 57, 0
15, 118011, Note_on_c, 13, 56, 62
15, 118091, Note_on_c, 13, 56, 0
15, 118091, Note_on_c, 13, 47, 61
15, 118171, Note_on_c, 13, 47, 0
15, 118171, Note_on_c, 13, 54, 60
15, 118251, Note_on_c, 13, 54, 0
15, 118251, Note_on_c, 13, 57, 60
15, 118331, Note_on_c, 13, 57, 0
15, 118331, Note_on_c, 13, 59, 59
15, 118411, Note_on_c, 13, 59, 0
15, 118411, Note_on_c, 13, 57, 59
15, 118491, Note_on_c, 13, 57, 0
15, 118491, Note_on_c, 13, 54, 59
15, 118571, Note_on_c, 13, 54, 0
15, 118571, Note_on_c, 13, 59, 58
15, 118651, Note_on_c, 13, 59, 0
15, 118651, Note_on_c, 13, 57, 57
15, 118731, Note_on_c, 13, 57, 0
15, 118731, Note_on_c, 13, 54, 57
15, 118811, Note_on_c, 13, 54, 0
15, 118811, Note_on_c, 13, 59, 56
15, 118891, Note_on_c, 13, 59, 0
15, 118891, Note_on_c, 13, 57, 55
15, 118971, Note_on_c, 13, 57, 0
15, 118971, Note_on_c, 13, 54, 55
15, 118996, Control_c, 13, 11, 47
15, 118999, Control_c, 13, 11, 44
15, 119003, Control_c, 13, 11, 41
15, 119007, Control_c, 13, 11, 38
15, 119011, Control_c, 13, 11, 35
15, 119014, Control_c, 13, 11, 32
15, 119018, Control_c, 13, 11, 29
15, 119021, Note_on_c, 13, 54, 0
15, 119051, Control_c, 13, 11, 87
15, 119051, Note_on_c, 13, 48, 99
15, 119201, Note_on_c, 13, 48, 0
15, 119231, Note_on_c, 13, 47, 99
15, 119276, Note_on_c, 13, 47, 0
15, 119291, Note_on_c, 13, 47, 99
15, 119411, Note_on_c, 13, 47, 0
15, 119531, Note_on_c, 13, 48, 99
15, 119681, Note_on_c, 13, 48, 0
15, 119711, Note_on_c, 13, 47, 99
15, 119756, Note_on_c, 13, 47, 0
15, 119771, Note_on_c, 13, 47, 99
15, 119891, Note_on_c, 13, 47, 0
15, 120011, Note_on_c, 13, 48, 99
15, 120071, Note_on_c, 13, 48, 0
15, 120131, Note_on_c, 13, 47, 99
15, 120191, Note_on_c, 13, 47, 0
15, 120251, Note_on_c, 13, 48, 99
15, 120311, Note_on_c, 13, 48, 0
15, 120371, Note_on_c, 13, 47, 99
15, 120431, Note_on_c, 13, 47, 0
15, 120491, Note_on_c, 13, 48, 99
15, 120551, Note_on_c, 13, 48, 0
15, 120611, Note_on_c, 13, 47, 99
15, 120671, Note_on_c, 13, 47, 0
15, 120731, Note_on_c, 13, 48, 99
15, 120791, Note_on_c, 13, 48, 0
15, 120851, Note_on_c, 13, 47, 99
15, 120911, Note_on_c, 13, 47, 0
15, 120971, Note_on_c, 13, 52, 99
15, 121031, Note_on_c, 13, 52, 0
15, 121091, Note_on_c, 13, 51, 99
15, 121151, Note_on_c, 13, 51, 0
15, 121211, Note_on_c, 13, 52, 99
15, 121271, Note_on_c, 13, 52, 0
15, 121331, Note_on_c, 13, 51, 99
15, 121391, Note_on_c, 13, 51, 0
15, 121451, Note_on_c, 13, 52, 99
15, 121511, Note_on_c, 13, 52, 0
15, 121571, Note_on_c, 13, 51, 99
15, 121631, Note_on_c, 13, 51, 0
15, 121691, Note_on_c, 13, 52, 99
15, 121751, Note_on_c, 13, 52, 0
15, 121811, Note_on_c, 13, 51, 99
15, 121871, Note_on_c, 13, 51, 0
15, 121931, Note_on_c, 13, 60, 99
15, 121991, Note_on_c, 13, 60, 0
15, 122051, Note_on_c, 13, 59, 99
15, 122111, Note_on_c, 13, 59, 0
15, 122171, Note_on_c, 13, 64, 99
15, 122231, Note_on_c, 13, 64, 0
15, 122291, Note_on_c, 13, 63, 99
15, 122351, Note_on_c, 13, 63, 0
15, 122411, Note_on_c, 13, 60, 99
15, 122471, Note_on_c, 13, 60, 0
15, 122531, Note_on_c, 13, 59, 99
15, 122591, Note_on_c, 13, 59, 0
15, 122651, Note_on_c, 13, 61, 99
15, 122711, Note_on_c, 13, 61, 0
15, 122771, Note_on_c, 13, 59, 99
15, 122831, Note_on_c, 13, 59, 0
15, 122891, Note_on_c, 13, 61, 99
15, 122951, Note_on_c, 13, 61, 0
15, 123011, Note_on_c, 13, 59, 99
15, 123071, Note_on_c, 13, 59, 0
15, 123131, Note_on_c, 13, 61, 99
15, 123191, Note_on_c, 13, 61, 0
15, 123251, Note_on_c, 13, 59, 99
15, 123311, Note_on_c, 13, 59, 0
15, 123371, Note_on_c, 13, 61, 99
15, 123431, Note_on_c, 13, 61, 0
15, 123491, Note_on_c, 13, 59, 99
15, 123551, Note_on_c, 13, 59, 0
15, 123611, Note_on_c, 13, 61, 99
15, 123671, Note_on_c, 13, 61, 0
15, 123731, Note_on_c, 13, 59, 99
15, 123791, Note_on_c, 13, 59, 0
15, 123851, Note_on_c, 13, 52, 99
15, 124016, Note_on_c, 13, 52, 0
15, 124031, Note_on_c, 13, 47, 99
15, 124076, Note_on_c, 13, 47, 0
15, 124091, Note_on_c, 13, 47, 99
15, 124211, Note_on_c, 13, 47, 0
15, 124331, Control_c, 13, 11, 107
15, 124331, Note_on_c, 13, 52, 99
15, 124349, Control_c, 13, 11, 105
15, 124367, Control_c, 13, 11, 103
15, 124385, Control_c, 13, 11, 101
15, 124403, Control_c, 13, 11, 99
15, 124421, Control_c, 13, 11, 97
15, 124439, Control_c, 13, 11, 95
15, 124457, Control_c, 13, 11, 93
15, 124475, Control_c, 13, 11, 91
15, 124493, Control_c, 13, 11, 89
15, 124496, Note_on_c, 13, 52, 0
15, 124511, Control_c, 13, 11, 87
15, 124511, Note_on_c, 13, 47, 99
15, 124556, Note_on_c, 13, 47, 0
15, 124571, Note_on_c, 13, 47, 99
15, 124691, Note_on_c, 13, 47, 0
15, 124811, Control_c, 13, 11, 107
15, 124811, Note_on_c, 13, 54, 99
15, 124829, Control_c, 13, 11, 105
15, 124847, Control_c, 13, 11, 103
15, 124865, Control_c, 13, 11, 101
15, 124883, Control_c, 13, 11, 99
15, 124901, Control_c, 13, 11, 97
15, 124919, Control_c, 13, 11, 95
15, 124937, Control_c, 13, 11, 93
15, 124955, Control_c, 13, 11, 91
15, 124973, Control_c, 13, 11, 89
15, 124976, Note_on_c, 13, 54, 0
15, 124991, Control_c, 13, 11, 87
15, 124991, Note_on_c, 13, 47, 99
15, 125036, Note_on_c, 13, 47, 0
15, 125051, Note_on_c, 13, 47, 99
15, 125171, Note_on_c, 13, 47, 0
15, 125291, Control_c, 13, 11, 107
15, 125291, Note_on_c, 13, 59, 99
15, 125309, Control_c, 13, 11, 105
15, 125327, Control_c, 13, 11, 103
15, 125345, Control_c, 13, 11, 101
15, 125363, Control_c, 13, 11, 99
15, 125381, Control_c, 13, 11, 97
15, 125399, Control_c, 13, 11, 95
15, 125417, Control_c, 13, 11, 93
15, 125435, Control_c, 13, 11, 91
15, 125453, Control_c, 13, 11, 89
15, 125456, Note_on_c, 13, 59, 0
15, 125471, Control_c, 13, 11, 87
15, 125471, Note_on_c, 13, 47, 99
15, 125516, Note_on_c, 13, 47, 0
15, 125531, Note_on_c, 13, 47, 99
15, 125651, Note_on_c, 13, 47, 0
15, 125771, Control_c, 13, 11, 47
15, 125771, Note_on_c, 13, 52, 99
15, 125936, Note_on_c, 13, 52, 0
15, 125951, Note_on_c, 13, 47, 99
15, 125996, Note_on_c, 13, 47, 0
15, 126011, Note_on_c, 13, 47, 99
15, 126131, Note_on_c, 13, 47, 0
15, 126251, Note_on_c, 13, 52, 99
15, 126416, Note_on_c, 13, 52, 0
15, 126431, Note_on_c, 13, 47, 99
15, 126476, Note_on_c, 13, 47, 0
15, 126491, Note_on_c, 13, 47, 99
15, 126611, Note_on_c, 13, 47, 0
15, 126731, Note_on_c, 13, 54, 99
15, 126896, Note_on_c, 13, 54, 0
15, 126911, Note_on_c, 13, 47, 99
15, 126956, Note_on_c, 13, 47, 0
15, 126971, Note_on_c, 13, 47, 99
15, 127091, Note_on_c, 13, 47, 0
15, 127211, Note_on_c, 13, 59, 99
15, 127376, Note_on_c, 13, 59, 0
15, 127391, Note_on_c, 13, 47, 99
15, 127436, Note_on_c, 13, 47, 0
15, 127451, Note_on_c, 13, 47, 99
15, 127571, Note_on_c, 13, 47, 0
15, 127691, Control_c, 13, 11, 47
15, 127691, Note_on_c, 13, 64, 99
15, 127787, Control_c, 13, 11, 48
15, 127856, Note_on_c, 13, 64, 0
15, 127871, Note_on_c, 13, 52, 99
15, 127883, Control_c, 13, 11, 49
15, 127916, Note_on_c, 13, 52, 0
15, 127931, Note_on_c, 13, 52, 99
15, 127979, Control_c, 13, 11, 50
15, 128051, Note_on_c, 13, 52, 0
15, 128075, Control_c, 13, 11, 51
15, 128171, Control_c, 13, 11, 52
15, 128171, Note_on_c, 13, 64, 99
15, 128267, Control_c, 13, 11, 53
15, 128336, Note_on_c, 13, 64, 0
15, 128351, Note_on_c, 13, 52, 99
15, 128363, Control_c, 13, 11, 54
15, 128396, Note_on_c, 13, 52, 0
15, 128411, Note_on_c, 13, 52, 99
15, 128459, Control_c, 13, 11, 55
15, 128531, Note_on_c, 13, 52, 0
15, 128555, Control_c, 13, 11, 56
15, 128651, Control_c, 13, 11, 57
15, 128651, Note_on_c, 13, 64, 99
15, 128747, Control_c, 13, 11, 58
15, 128816, Note_on_c, 13, 64, 0
15, 128831, Note_on_c, 13, 52, 99
15, 128843, Control_c, 13, 11, 59
15, 128876, Note_on_c, 13, 52, 0
15, 128891, Note_on_c, 13, 52, 99
15, 128939, Control_c, 13, 11, 60
15, 129011, Note_on_c, 13, 52, 0
15, 129035, Control_c, 13, 11, 61
15, 129131, Control_c, 13, 11, 62
15, 129131, Note_on_c, 13, 64, 99
15, 129227, Control_c, 13, 11, 63
15, 129296, Note_on_c, 13, 64, 0
15, 129311, Note_on_c, 13, 52, 99
15, 129323, Control_c, 13, 11, 64
15, 129356, Note_on_c, 13, 52, 0
15, 129371, Note_on_c, 13, 52, 99
15, 129419, Control_c, 13, 11, 65
15, 129491, Note_on_c, 13, 52, 0
15, 129515, Control_c, 13, 11, 66
15, 129611, Control_c, 13, 11, 67
15, 129611, Note_on_c, 13, 64, 99
15, 129707, Control_c, 13, 11, 68
15, 129776, Note_on_c, 13, 64, 0
15, 129791, Note_on_c, 13, 52, 99
15, 129803, Control_c, 13, 11, 69
15, 129836, Note_on_c, 13, 52, 0
15, 129851, Note_on_c, 13, 52, 99
15, 129899, Control_c, 13, 11, 70
15, 129971, Note_on_c, 13, 52, 0
15, 129995, Control_c, 13, 11, 71
15, 130091, Control_c, 13, 11, 72
15, 130091, Note_on_c, 13, 64, 99
15, 130187, Control_c, 13, 11, 73
15, 130256, Note_on_c, 13, 64, 0
15, 130271, Note_on_c, 13, 52, 99
15, 130283, Control_c, 13, 11, 74
15, 130316, Note_on_c, 13, 52, 0
15, 130331, Note_on_c, 13, 52, 99
15, 130379, Control_c, 13, 11, 75
15, 130451, Note_on_c, 13, 52, 0
15, 130475, Control_c, 13, 11, 76
15, 130571, Control_c, 13, 11, 77
15, 130571, Note_on_c, 13, 64, 99
15, 130667, Control_c, 13, 11, 78
15, 130736, Note_on_c, 13, 64, 0
15, 130751, Note_on_c, 13, 52, 99
15, 130763, Control_c, 13, 11, 79
15, 130796, Note_on_c, 13, 52, 0
15, 130811, Note_on_c, 13, 52, 99
15, 130859, Control_c, 13, 11, 80
15, 130931, Note_on_c, 13, 52, 0
15, 130955, Control_c, 13, 11, 81
15, 131051, Control_c, 13, 11, 82
15, 131051, Note_on_c, 13, 64, 99
15, 131147, Control_c, 13, 11, 83
15, 131216, Note_on_c, 13, 64, 0
15, 131231, Note_on_c, 13, 52, 99
15, 131243, Control_c, 13, 11, 84
15, 131276, Note_on_c, 13, 52, 0
15, 131291, Note_on_c, 13, 52, 99
15, 131339, Control_c, 13, 11, 85
15, 131411, Note_on_c, 13, 52, 0
15, 131435, Control_c, 13, 11, 86
15, 131531, Control_c, 13, 11, 87
15, 131531, Note_on_c, 13, 64, 99
15, 131696, Note_on_c, 13, 64, 0
15, 131711, Note_on_c, 13, 52, 99
15, 131756, Note_on_c, 13, 52, 0
15, 131771, Note_on_c, 13, 52, 99
15, 131891, Note_on_c, 13, 52, 0
15, 132011, Note_on_c, 13, 64, 99
15, 132176, Note_on_c, 13, 64, 0
15, 132191, Note_on_c, 13, 52, 99
15, 132236, Note_on_c, 13, 52, 0
15, 132251, Note_on_c, 13, 52, 99
15, 132371, Note_on_c, 13, 52, 0
15, 132491, Control_c, 13, 11, 87
15, 132491, Note_on_c, 13, 64, 99
15, 132539, Control_c, 13, 11, 88
15, 132587, Control_c, 13, 11, 89
15, 132635, Control_c, 13, 11, 90
15, 132656, Note_on_c, 13, 64, 0
15, 132671, Note_on_c, 13, 52, 99
15, 132683, Control_c, 13, 11, 91
15, 132716, Note_on_c, 13, 52, 0
15, 132731, Control_c, 13, 11, 92
15, 132731, Note_on_c, 13, 52, 99
15, 132779, Control_c, 13, 11, 93
15, 132827, Control_c, 13, 11, 94
15, 132851, Note_on_c, 13, 52, 0
15, 132875, Control_c, 13, 11, 95
15, 132923, Control_c, 13, 11, 96
15, 132971, Control_c, 13, 11, 97
15, 132971, Note_on_c, 13, 64, 99
15, 133019, Control_c, 13, 11, 98
15, 133067, Control_c, 13, 11, 99
15, 133115, Control_c, 13, 11, 100
15, 133136, Note_on_c, 13, 64, 0
15, 133151, Note_on_c, 13, 52, 99
15, 133163, Control_c, 13, 11, 101
15, 133196, Note_on_c, 13, 52, 0
15, 133211, Control_c, 13, 11, 102
15, 133211, Note_on_c, 13, 52, 99
15, 133259, Control_c, 13, 11, 103
15, 133307, Control_c, 13, 11, 104
15, 133331, Note_on_c, 13, 52, 0
15, 133355, Control_c, 13, 11, 105
15, 133403, Control_c, 13, 11, 106
15, 133451, Control_c, 13, 11, 107
15, 133451, Note_on_c, 13, 52, 99
15, 133496, Note_on_c, 13, 52, 0
15, 133511, Note_on_c, 13, 52, 99
15, 133556, Note_on_c, 13, 52, 0
15, 133571, Note_on_c, 13, 52, 99
15, 133616, Note_on_c, 13, 52, 0
15, 133631, Note_on_c, 13, 52, 99
15, 133676, Note_on_c, 13, 52, 0
15, 133691, Note_on_c, 13, 52, 99
15, 133736, Note_on_c, 13, 52, 0
15, 133751, Note_on_c, 13, 52, 99
15, 133796, Note_on_c, 13, 52, 0
15, 133811, Note_on_c, 13, 52, 99
15, 133856, Note_on_c, 13, 52, 0
15, 133871, Note_on_c, 13, 52, 99
15, 133916, Note_on_c, 13, 52, 0
15, 133931, Note_on_c, 13, 52, 99
15, 133976, Note_on_c, 13, 52, 0
15, 133991, Note_on_c, 13, 52, 99
15, 134036, Note_on_c, 13, 52, 0
15, 134051, Note_on_c, 13, 52, 99
15, 134096, Note_on_c, 13, 52, 0
15, 134111, Note_on_c, 13, 52, 99
15, 134156, Note_on_c, 13, 52, 0
15, 134171, Note_on_c, 13, 52, 99
15, 134216, Note_on_c, 13, 52, 0
15, 134231, Note_on_c, 13, 52, 99
15, 134276, Note_on_c, 13, 52, 0
15, 134291, Note_on_c, 13, 52, 99
15, 134336, Note_on_c, 13, 52, 0
15, 134351, Note_on_c, 13, 52, 99
15, 134396, Note_on_c, 13, 52, 0
15, 134411, Note_on_c, 13, 52, 99
15, 134456, Note_on_c, 13, 52, 0
15, 134471, Note_on_c, 13, 52, 99
15, 134516, Note_on_c, 13, 52, 0
15, 134531, Note_on_c, 13, 52, 99
15, 134576, Note_on_c, 13, 52, 0
15, 134591, Note_on_c, 13, 52, 99
15, 134636, Note_on_c, 13, 52, 0
15, 134651, Note_on_c, 13, 52, 99
15, 134696, Note_on_c, 13, 52, 0
15, 134711, Note_on_c, 13, 52, 99
15, 134756, Note_on_c, 13, 52, 0
15, 134771, Note_on_c, 13, 52, 99
15, 134816, Note_on_c, 13, 52, 0
15, 134831, Note_on_c, 13, 52, 99
15, 134876, Note_on_c, 13, 52, 0
15, 134891, Note_on_c, 13, 52, 99
15, 134936, Note_on_c, 13, 52, 0
15, 134951, Note_on_c, 13, 52, 99
15, 134996, Note_on_c, 13, 52, 0
15, 135011, Note_on_c, 13, 52, 99
15, 135056, Note_on_c, 13, 52, 0
15, 135071, Note_on_c, 13, 52, 99
15, 135116, Note_on_c, 13, 52, 0
15, 135131, Note_on_c, 13, 52, 99
15, 135176, Note_on_c, 13, 52, 0
15, 135191, Note_on_c, 13, 52, 99
15, 135236, Note_on_c, 13, 52, 0
15, 135251, Note_on_c, 13, 52, 99
15, 135296, Note_on_c, 13, 52, 0
15, 135311, Note_on_c, 13, 52, 99
15, 135356, Note_on_c, 13, 52, 0
15, 135371, Control_c, 13, 11, 127
15, 135371, Note_on_c, 13, 64, 99
15, 135388, Control_c, 13, 11, 125
15, 135406, Control_c, 13, 11, 123
15, 135424, Control_c, 13, 11, 121
15, 135442, Control_c, 13, 11, 119
15, 135460, Control_c, 13, 11, 117
15, 135476, Note_on_c, 13, 64, 0
15, 135478, Control_c, 13, 11, 115
15, 135491, Note_on_c, 13, 63, 99
15, 135496, Control_c, 13, 11, 113
15, 135514, Control_c, 13, 11, 111
15, 135532, Control_c, 13, 11, 109
15, 135550, Control_c, 13, 11, 107
15, 135596, Note_on_c, 13, 63, 0
15, 135611, Control_c, 13, 11, 127
15, 135611, Note_on_c, 13, 61, 99
15, 135628, Control_c, 13, 11, 125
15, 135646, Control_c, 13, 11, 123
15, 135664, Control_c, 13, 11, 121
15, 135682, Control_c, 13, 11, 119
15, 135700, Control_c, 13, 11, 117
15, 135716, Note_on_c, 13, 61, 0
15, 135718, Control_c, 13, 11, 115
15, 135731, Note_on_c, 13, 59, 99
15, 135736, Control_c, 13, 11, 113
15, 135754, Control_c, 13, 11, 111
15, 135772, Control_c, 13, 11, 109
15, 135790, Control_c, 13, 11, 107
15, 135836, Note_on_c, 13, 59, 0
15, 135851, Control_c, 13, 11, 127
15, 135851, Note_on_c, 13, 57, 99
15, 135868, Control_c, 13, 11, 125
15, 135886, Control_c, 13, 11, 123
15, 135904, Control_c, 13, 11, 121
15, 135922, Control_c, 13, 11, 119
15, 135940, Control_c, 13, 11, 117
15, 135956, Note_on_c, 13, 57, 0
15, 135958, Control_c, 13, 11, 115
15, 135971, Note_on_c, 13, 56, 99
15, 135976, Control_c, 13, 11, 113
15, 135994, Control_c, 13, 11, 111
15, 136012, Control_c, 13, 11, 109
15, 136030, Control_c, 13, 11, 107
15, 136076, Note_on_c, 13, 56, 0
15, 136091, Control_c, 13, 11, 127
15, 136091, Note_on_c, 13, 54, 99
15, 136108, Control_c, 13, 11, 125
15, 136126, Control_c, 13, 11, 123
15, 136144, Control_c, 13, 11, 121
15, 136162, Control_c, 13, 11, 119
15, 136180, Control_c, 13, 11, 117
15, 136196, Note_on_c, 13, 54, 0
15, 136198, Control_c, 13, 11, 115
15, 136211, Note_on_c, 13, 52, 99
15, 136216, Control_c, 13, 11, 113
15, 136234, Control_c, 13, 11, 111
15, 136252, Control_c, 13, 11, 109
15, 136270, Control_c, 13, 11, 107
15, 136316, Note_on_c, 13, 52, 0
15, 136331, Control_c, 13, 11, 127
15, 136331, Note_on_c, 13, 51, 99
15, 136348, Control_c, 13, 11, 125
15, 136366, Control_c, 13, 11, 123
15, 136384, Control_c, 13, 11, 121
15, 136402, Control_c, 13, 11, 119
15, 136420, Control_c, 13, 11, 117
15, 136436, Note_on_c, 13, 51, 0
15, 136438, Control_c, 13, 11, 115
15, 136451, Note_on_c, 13, 50, 99
15, 136456, Control_c, 13, 11, 113
15, 136474, Control_c, 13, 11, 111
15, 136492, Control_c, 13, 11, 109
15, 136510, Control_c, 13, 11, 107
15, 136556, Note_on_c, 13, 50, 0
15, 136571, Control_c, 13, 11, 127
15, 136571, Note_on_c, 13, 49, 99
15, 136588, Control_c, 13, 11, 125
15, 136606, Control_c, 13, 11, 123
15, 136624, Control_c, 13, 11, 121
15, 136642, Control_c, 13, 11, 119
15, 136660, Control_c, 13, 11, 117
15, 136676, Note_on_c, 13, 49, 0
15, 136678, Control_c, 13, 11, 115
15, 136691, Note_on_c, 13, 48, 99
15, 136696, Control_c, 13, 11, 113
15, 136714, Control_c, 13, 11, 111
15, 136732, Control_c, 13, 11, 109
15, 136750, Control_c, 13, 11, 107
15, 136796, Note_on_c, 13, 48, 0
15, 136811, Control_c, 13, 11, 127
15, 136811, Note_on_c, 13, 47, 99
15, 136828, Control_c, 13, 11, 125
15, 136846, Control_c, 13, 11, 123
15, 136864, Control_c, 13, 11, 121
15, 136882, Control_c, 13, 11, 119
15, 136900, Control_c, 13, 11, 117
15, 136916, Note_on_c, 13, 47, 0
15, 136918, Control_c, 13, 11, 115
15, 136931, Note_on_c, 13, 58, 99
15, 136936, Control_c, 13, 11, 113
15, 136954, Control_c, 13, 11, 111
15, 136972, Control_c, 13, 11, 109
15, 136990, Control_c, 13, 11, 107
15, 137036, Note_on_c, 13, 58, 0
15, 137051, Control_c, 13, 11, 127
15, 137051, Note_on_c, 13, 57, 99
15, 137068, Control_c, 13, 11, 125
15, 137086, Control_c, 13, 11, 123
15, 137104, Control_c, 13, 11, 121
15, 137122, Control_c, 13, 11, 119
15, 137140, Control_c, 13, 11, 117
15, 137156, Note_on_c, 13, 57, 0
15, 137158, Control_c, 13, 11, 115
15, 137171, Note_on_c, 13, 56, 99
15, 137176, Control_c, 13, 11, 113
15, 137194, Control_c, 13, 11, 111
15, 137212, Control_c, 13, 11, 109
15, 137230, Control_c, 13, 11, 107
15, 137276, Note_on_c, 13, 56, 0
15, 137291, Control_c, 13, 11, 127
15, 137291, Note_on_c, 13, 54, 99
15, 137308, Control_c, 13, 11, 125
15, 137326, Control_c, 13, 11, 123
15, 137344, Control_c, 13, 11, 121
15, 137362, Control_c, 13, 11, 119
15, 137380, Control_c, 13, 11, 117
15, 137396, Note_on_c, 13, 54, 0
15, 137398, Control_c, 13, 11, 115
15, 137411, Note_on_c, 13, 52, 99
15, 137416, Control_c, 13, 11, 113
15, 137434, Control_c, 13, 11, 111
15, 137452, Control_c, 13, 11, 109
15, 137470, Control_c, 13, 11, 107
15, 137516, Note_on_c, 13, 52, 0
15, 137531, Control_c, 13, 11, 127
15, 137531, Note_on_c, 13, 51, 99
15, 137548, Control_c, 13, 11, 125
15, 137566, Control_c, 13, 11, 123
15, 137584, Control_c, 13, 11, 121
15, 137602, Control_c, 13, 11, 119
15, 137620, Control_c, 13, 11, 117
15, 137636, Note_on_c, 13, 51, 0
15, 137638, Control_c, 13, 11, 115
15, 137651, Note_on_c, 13, 49, 99
15, 137656, Control_c, 13, 11, 113
15, 137674, Control_c, 13, 11, 111
15, 137692, Control_c, 13, 11, 109
15, 137710, Control_c, 13, 11, 107
15, 137756, Note_on_c, 13, 49, 0
15, 137771, Control_c, 13, 11, 127
15, 137771, Note_on_c, 13, 47, 99
15, 137788, Control_c, 13, 11, 125
15, 137806, Control_c, 13, 11, 123
15, 137824, Control_c, 13, 11, 121
15, 137842, Control_c, 13, 11, 119
15, 137860, Control_c, 13, 11, 117
15, 137876, Note_on_c, 13, 47, 0
15, 137878, Control_c, 13, 11, 115
15, 137891, Note_on_c, 13, 47, 99
15, 137896, Control_c, 13, 11, 113
15, 137914, Control_c, 13, 11, 111
15, 137932, Control_c, 13, 11, 109
15, 137950, Control_c, 13, 11, 107
15, 137996, Note_on_c, 13, 47, 0
15, 138011, Control_c, 13, 11, 127
15, 138011, Note_on_c, 13, 47, 99
15, 138028, Control_c, 13, 11, 125
15, 138046, Control_c, 13, 11, 123
15, 138064, Control_c, 13, 11, 121
15, 138082, Control_c, 13, 11, 119
15, 138100, Control_c, 13, 11, 117
15, 138116, Note_on_c, 13, 47, 0
15, 138118, Control_c, 13, 11, 115
15, 138131, Note_on_c, 13, 47, 99
15, 138136, Control_c, 13, 11, 113
15, 138154, Control_c, 13, 11, 111
15, 138172, Control_c, 13, 11, 109
15, 138190, Control_c, 13, 11, 107
15, 138236, Note_on_c, 13, 47, 0
15, 138251, Control_c, 13, 11, 127
15, 138251, Note_on_c, 13, 64, 99
15, 138268, Control_c, 13, 11, 125
15, 138286, Control_c, 13, 11, 123
15, 138304, Control_c, 13, 11, 121
15, 138322, Control_c, 13, 11, 119
15, 138340, Control_c, 13, 11, 117
15, 138356, Note_on_c, 13, 64, 0
15, 138358, Control_c, 13, 11, 115
15, 138371, Note_on_c, 13, 63, 99
15, 138376, Control_c, 13, 11, 113
15, 138394, Control_c, 13, 11, 111
15, 138412, Control_c, 13, 11, 109
15, 138430, Control_c, 13, 11, 107
15, 138476, Note_on_c, 13, 63, 0
15, 138491, Control_c, 13, 11, 127
15, 138491, Note_on_c, 13, 61, 99
15, 138508, Control_c, 13, 11, 125
15, 138526, Control_c, 13, 11, 123
15, 138544, Control_c, 13, 11, 121
15, 138562, Control_c, 13, 11, 119
15, 138580, Control_c, 13, 11, 117
15, 138596, Note_on_c, 13, 61, 0
15, 138598, Control_c, 13, 11, 115
15, 138611, Note_on_c, 13, 59, 99
15, 138616, Control_c, 13, 11, 113
15, 138634, Control_c, 13, 11, 111
15, 138652, Control_c, 13, 11, 109
15, 138670, Control_c, 13, 11, 107
15, 138716, Note_on_c, 13, 59, 0
15, 138731, Control_c, 13, 11, 127
15, 138731, Note_on_c, 13, 57, 99
15, 138748, Control_c, 13, 11, 125
15, 138766, Control_c, 13, 11, 123
15, 138784, Control_c, 13, 11, 121
15, 138802, Control_c, 13, 11, 119
15, 138820, Control_c, 13, 11, 117
15, 138836, Note_on_c, 13, 57, 0
15, 138838, Control_c, 13, 11, 115
15, 138851, Note_on_c, 13, 56, 99
15, 138856, Control_c, 13, 11, 113
15, 138874, Control_c, 13, 11, 111
15, 138892, Control_c, 13, 11, 109
15, 138910, Control_c, 13, 11, 107
15, 138956, Note_on_c, 13, 56, 0
15, 138971, Control_c, 13, 11, 127
15, 138971, Note_on_c, 13, 54, 99
15, 138988, Control_c, 13, 11, 125
15, 139006, Control_c, 13, 11, 123
15, 139024, Control_c, 13, 11, 121
15, 139042, Control_c, 13, 11, 119
15, 139060, Control_c, 13, 11, 117
15, 139076, Note_on_c, 13, 54, 0
15, 139078, Control_c, 13, 11, 115
15, 139091, Note_on_c, 13, 52, 99
15, 139096, Control_c, 13, 11, 113
15, 139114, Control_c, 13, 11, 111
15, 139132, Control_c, 13, 11, 109
15, 139150, Control_c, 13, 11, 107
15, 139196, Note_on_c, 13, 52, 0
15, 139211, Control_c, 13, 11, 127
15, 139211, Note_on_c, 13, 51, 99
15, 139228, Control_c, 13, 11, 125
15, 139246, Control_c, 13, 11, 123
15, 139264, Control_c, 13, 11, 121
15, 139282, Control_c, 13, 11, 119
15, 139300, Control_c, 13, 11, 117
15, 139316, Note_on_c, 13, 51, 0
15, 139318, Control_c, 13, 11, 115
15, 139331, Note_on_c, 13, 50, 99
15, 139336, Control_c, 13, 11, 113
15, 139354, Control_c, 13, 11, 111
15, 139372, Control_c, 13, 11, 109
15, 139390, Control_c, 13, 11, 107
15, 139436, Note_on_c, 13, 50, 0
15, 139451, Control_c, 13, 11, 127
15, 139451, Note_on_c, 13, 49, 99
15, 139468, Control_c, 13, 11, 125
15, 139486, Control_c, 13, 11, 123
15, 139504, Control_c, 13, 11, 121
15, 139522, Control_c, 13, 11, 119
15, 139540, Control_c, 13, 11, 117
15, 139556, Note_on_c, 13, 49, 0
15, 139558, Control_c, 13, 11, 115
15, 139571, Note_on_c, 13, 48, 99
15, 139576, Control_c, 13, 11, 113
15, 139594, Control_c, 13, 11, 111
15, 139612, Control_c, 13, 11, 109
15, 139630, Control_c, 13, 11, 107
15, 139676, Note_on_c, 13, 48, 0
15, 139691, Control_c, 13, 11, 127
15, 139691, Note_on_c, 13, 47, 99
15, 139708, Control_c, 13, 11, 125
15, 139726, Control_c, 13, 11, 123
15, 139744, Control_c, 13, 11, 121
15, 139762, Control_c, 13, 11, 119
15, 139780, Control_c, 13, 11, 117
15, 139796, Note_on_c, 13, 47, 0
15, 139798, Control_c, 13, 11, 115
15, 139811, Note_on_c, 13, 58, 99
15, 139816, Control_c, 13, 11, 113
15, 139834, Control_c, 13, 11, 111
15, 139852, Control_c, 13, 11, 109
15, 139870, Control_c, 13, 11, 107
15, 139916, Note_on_c, 13, 58, 0
15, 139931, Control_c, 13, 11, 127
15, 139931, Note_on_c, 13, 57, 99
15, 139948, Control_c, 13, 11, 125
15, 139966, Control_c, 13, 11, 123
15, 139984, Control_c, 13, 11, 121
15, 140002, Control_c, 13, 11, 119
15, 140020, Control_c, 13, 11, 117
15, 140036, Note_on_c, 13, 57, 0
15, 140038, Control_c, 13, 11, 115
15, 140051, Note_on_c, 13, 56, 99
15, 140056, Control_c, 13, 11, 113
15, 140074, Control_c, 13, 11, 111
15, 140092, Control_c, 13, 11, 109
15, 140110, Control_c, 13, 11, 107
15, 140156, Note_on_c, 13, 56, 0
15, 140171, Control_c, 13, 11, 127
15, 140171, Note_on_c, 13, 54, 99
15, 140188, Control_c, 13, 11, 125
15, 140206, Control_c, 13, 11, 123
15, 140224, Control_c, 13, 11, 121
15, 140242, Control_c, 13, 11, 119
15, 140260, Control_c, 13, 11, 117
15, 140276, Note_on_c, 13, 54, 0
15, 140278, Control_c, 13, 11, 115
15, 140291, Note_on_c, 13, 52, 99
15, 140296, Control_c, 13, 11, 113
15, 140314, Control_c, 13, 11, 111
15, 140332, Control_c, 13, 11, 109
15, 140350, Control_c, 13, 11, 107
15, 140396, Note_on_c, 13, 52, 0
15, 140411, Control_c, 13, 11, 127
15, 140411, Note_on_c, 13, 51, 99
15, 140428, Control_c, 13, 11, 125
15, 140446, Control_c, 13, 11, 123
15, 140464, Control_c, 13, 11, 121
15, 140482, Control_c, 13, 11, 119
15, 140500, Control_c, 13, 11, 117
15, 140516, Note_on_c, 13, 51, 0
15, 140518, Control_c, 13, 11, 115
15, 140531, Note_on_c, 13, 49, 99
15, 140536, Control_c, 13, 11, 113
15, 140554, Control_c, 13, 11, 111
15, 140572, Control_c, 13, 11, 109
15, 140590, Control_c, 13, 11, 107
15, 140636, Note_on_c, 13, 49, 0
15, 140651, Control_c, 13, 11, 127
15, 140651, Note_on_c, 13, 47, 99
15, 140668, Control_c, 13, 11, 125
15, 140686, Control_c, 13, 11, 123
15, 140704, Control_c, 13, 11, 121
15, 140722, Control_c, 13, 11, 119
15, 140740, Control_c, 13, 11, 117
15, 140756, Note_on_c, 13, 47, 0
15, 140758, Control_c, 13, 11, 115
15, 140771, Note_on_c, 13, 47, 99
15, 140776, Control_c, 13, 11, 113
15, 140794, Control_c, 13, 11, 111
15, 140812, Control_c, 13, 11, 109
15, 140830, Control_c, 13, 11, 107
15, 140876, Note_on_c, 13, 47, 0
15, 140891, Control_c, 13, 11, 127
15, 140891, Note_on_c, 13, 47, 99
15, 140908, Control_c, 13, 11, 125
15, 140926, Control_c, 13, 11, 123
15, 140944, Control_c, 13, 11, 121
15, 140962, Control_c, 13, 11, 119
15, 140980, Control_c, 13, 11, 117
15, 140996, Note_on_c, 13, 47, 0
15, 140998, Control_c, 13, 11, 115
15, 141011, Note_on_c, 13, 47, 99
15, 141016, Control_c, 13, 11, 113
15, 141034, Control_c, 13, 11, 111
15, 141052, Control_c, 13, 11, 109
15, 141070, Control_c, 13, 11, 107
15, 141116, Note_on_c, 13, 47, 0
15, 141131, Note_on_c, 13, 52, 99
15, 141281, Note_on_c, 13, 52, 0
15, 141311, Note_on_c, 13, 47, 99
15, 141356, Note_on_c, 13, 47, 0
15, 141371, Note_on_c, 13, 47, 99
15, 141491, Note_on_c, 13, 47, 0
15, 142091, Note_on_c, 13, 56, 99
15, 142241, Note_on_c, 13, 56, 0
15, 142271, Note_on_c, 13, 52, 99
15, 142316, Note_on_c, 13, 52, 0
15, 142331, Note_on_c, 13, 52, 99
15, 142451, Note_on_c, 13, 52, 0
15, 143051, Note_on_c, 13, 59, 99
15, 143201, Note_on_c, 13, 59, 0
15, 143231, Note_on_c, 13, 56, 99
15, 143276, Note_on_c, 13, 56, 0
15, 143291, Note_on_c, 13, 56, 99
15, 143411, Note_on_c, 13, 56, 0
15, 144011, Note_on_c, 13, 64, 99
15, 144161, Note_on_c, 13, 64, 0
15, 144191, Note_on_c, 13, 59, 99
15, 144236, Note_on_c, 13, 59, 0
15, 144251, Note_on_c, 13, 59, 99
15, 144371, Note_on_c, 13, 59, 0
15, 144971, Note_on_c, 13, 64, 99
15, 145076, Note_on_c, 13, 64, 0
15, 145091, Note_on_c, 13, 59, 99
15, 145196, Note_on_c, 13, 59, 0
15, 145211, Note_on_c, 13, 64, 99
15, 145316, Note_on_c, 13, 64, 0
15, 145331, Note_on_c, 13, 59, 99
15, 145436, Note_on_c, 13, 59, 0
15, 145451, Note_on_c, 13, 64, 99
15, 145556, Note_on_c, 13, 64, 0
15, 145571, Note_on_c, 13, 59, 99
15, 145676, Note_on_c, 13, 59, 0
15, 145691, Note_on_c, 13, 64, 99
15, 145796, Note_on_c, 13, 64, 0
15, 145811, Note_on_c, 13, 59, 99
15, 145916, Note_on_c, 13, 59, 0
15, 145931, Note_on_c, 13, 64, 99
15, 146036, Note_on_c, 13, 64, 0
15, 146051, Note_on_c, 13, 59, 99
15, 146156, Note_on_c, 13, 59, 0
15, 146171, Note_on_c, 13, 64, 99
15, 146276, Note_on_c, 13, 64, 0
15, 146291, Note_on_c, 13, 59, 99
15, 146396, Note_on_c, 13, 59, 0
15, 146411, Note_on_c, 13, 64, 99
15, 146516, Note_on_c, 13, 64, 0
15, 146531, Note_on_c, 13, 59, 99
15, 146636, Note_on_c, 13, 59, 0
15, 146651, Note_on_c, 13, 64, 99
15, 146756, Note_on_c, 13, 64, 0
15, 146771, Note_on_c, 13, 59, 99
15, 146876, Note_on_c, 13, 59, 0
15, 146891, Note_on_c, 13, 64, 99
15, 147011, Note_on_c, 13, 64, 0
15, 147371, Note_on_c, 13, 52, 99
15, 147491, Note_on_c, 13, 52, 0
15, 147851, Note_on_c, 13, 52, 99
15, 147971, Note_on_c, 13, 52, 0
15, 148331, Control_c, 13, 121, 0
15, 148331, End_track
16, 0, Start_track
16, 0, MIDI_port, 0
16, 0, Title_t, "Contrabasse"
16, 0, Program_c, 14, 48
16, 0, Control_c, 14, 10, 127
16, 14, Control_c, 14, 121, 0
16, 19, Program_c, 14, 48
16, 24, Pitch_bend_c, 14, 8492
16, 29, Control_c, 14, 11, 102
16, 34, Control_c, 14, 7, 127
16, 39, Control_c, 14, 91, 70
16, 44, Control_c, 14, 93, 0
16, 49, Control_c, 14, 1, 36
16, 494, Control_c, 14, 11, 87
16, 494, Note_on_c, 14, 40, 97
16, 644, Note_on_c, 14, 40, 0
16, 674, Note_on_c, 14, 35, 97
16, 724, Note_on_c, 14, 35, 0
16, 734, Note_on_c, 14, 35, 97
16, 794, Note_on_c, 14, 35, 0
16, 974, Control_c, 14, 11, 107
16, 974, Note_on_c, 14, 44, 97
16, 992, Control_c, 14, 11, 104
16, 1010, Control_c, 14, 11, 101
16, 1028, Control_c, 14, 11, 98
16, 1046, Control_c, 14, 11, 95
16, 1064, Control_c, 14, 11, 92
16, 1082, Control_c, 14, 11, 89
16, 1124, Note_on_c, 14, 44, 0
16, 1154, Note_on_c, 14, 40, 97
16, 1204, Note_on_c, 14, 40, 0
16, 1214, Note_on_c, 14, 40, 97
16, 1274, Note_on_c, 14, 40, 0
16, 1454, Control_c, 14, 11, 107
16, 1454, Note_on_c, 14, 47, 97
16, 1472, Control_c, 14, 11, 104
16, 1490, Control_c, 14, 11, 101
16, 1508, Control_c, 14, 11, 98
16, 1526, Control_c, 14, 11, 95
16, 1544, Control_c, 14, 11, 92
16, 1562, Control_c, 14, 11, 89
16, 1604, Note_on_c, 14, 47, 0
16, 1634, Note_on_c, 14, 44, 97
16, 1684, Note_on_c, 14, 44, 0
16, 1694, Note_on_c, 14, 44, 97
16, 1754, Note_on_c, 14, 44, 0
16, 1814, Note_on_c, 14, 40, 97
16, 1874, Note_on_c, 14, 40, 0
16, 1934, Note_on_c, 14, 35, 97
16, 1994, Note_on_c, 14, 35, 0
16, 6254, Control_c, 14, 11, 87
16, 6254, Note_on_c, 14, 45, 97
16, 6404, Note_on_c, 14, 45, 0
16, 6434, Note_on_c, 14, 40, 97
16, 6484, Note_on_c, 14, 40, 0
16, 6494, Note_on_c, 14, 40, 97
16, 6554, Note_on_c, 14, 40, 0
16, 6734, Control_c, 14, 11, 107
16, 6734, Note_on_c, 14, 49, 97
16, 6752, Control_c, 14, 11, 104
16, 6770, Control_c, 14, 11, 101
16, 6788, Control_c, 14, 11, 98
16, 6806, Control_c, 14, 11, 95
16, 6824, Control_c, 14, 11, 92
16, 6842, Control_c, 14, 11, 89
16, 6884, Note_on_c, 14, 49, 0
16, 6914, Note_on_c, 14, 45, 97
16, 6964, Note_on_c, 14, 45, 0
16, 6974, Note_on_c, 14, 45, 97
16, 7034, Note_on_c, 14, 45, 0
16, 7214, Control_c, 14, 11, 107
16, 7214, Note_on_c, 14, 52, 97
16, 7232, Control_c, 14, 11, 104
16, 7250, Control_c, 14, 11, 101
16, 7268, Control_c, 14, 11, 98
16, 7286, Control_c, 14, 11, 95
16, 7304, Control_c, 14, 11, 92
16, 7322, Control_c, 14, 11, 89
16, 7364, Note_on_c, 14, 52, 0
16, 7394, Note_on_c, 14, 49, 97
16, 7444, Note_on_c, 14, 49, 0
16, 7454, Note_on_c, 14, 49, 97
16, 7514, Note_on_c, 14, 49, 0
16, 7574, Note_on_c, 14, 45, 97
16, 7634, Note_on_c, 14, 45, 0
16, 7694, Note_on_c, 14, 40, 97
16, 7754, Note_on_c, 14, 40, 0
16, 10094, Control_c, 14, 11, 22
16, 10094, Note_on_c, 14, 29, 97
16, 10110, Control_c, 14, 11, 25
16, 10126, Control_c, 14, 11, 28
16, 10142, Control_c, 14, 11, 31
16, 10158, Control_c, 14, 11, 34
16, 10176, Control_c, 14, 11, 35
16, 10194, Control_c, 14, 11, 36
16, 10212, Control_c, 14, 11, 37
16, 10230, Control_c, 14, 11, 38
16, 10248, Control_c, 14, 11, 39
16, 10266, Control_c, 14, 11, 40
16, 10284, Control_c, 14, 11, 41
16, 10302, Control_c, 14, 11, 42
16, 10320, Control_c, 14, 11, 43
16, 10338, Control_c, 14, 11, 44
16, 10356, Control_c, 14, 11, 45
16, 10374, Control_c, 14, 11, 46
16, 10392, Control_c, 14, 11, 47
16, 10410, Control_c, 14, 11, 48
16, 10428, Control_c, 14, 11, 49
16, 10446, Control_c, 14, 11, 50
16, 10464, Control_c, 14, 11, 51
16, 10482, Control_c, 14, 11, 52
16, 10500, Control_c, 14, 11, 53
16, 10518, Control_c, 14, 11, 54
16, 10536, Control_c, 14, 11, 55
16, 10554, Control_c, 14, 11, 56
16, 10569, Note_on_c, 14, 29, 0
16, 10573, Control_c, 14, 11, 57
16, 10574, Note_on_c, 14, 31, 97
16, 10592, Control_c, 14, 11, 56
16, 10611, Control_c, 14, 11, 55
16, 10630, Control_c, 14, 11, 54
16, 10649, Control_c, 14, 11, 53
16, 10669, Control_c, 14, 11, 52
16, 10688, Control_c, 14, 11, 51
16, 10707, Control_c, 14, 11, 50
16, 10726, Control_c, 14, 11, 49
16, 10745, Control_c, 14, 11, 48
16, 10765, Control_c, 14, 11, 47
16, 10784, Control_c, 14, 11, 46
16, 10803, Control_c, 14, 11, 45
16, 10822, Control_c, 14, 11, 44
16, 10841, Control_c, 14, 11, 43
16, 10861, Control_c, 14, 11, 42
16, 10880, Control_c, 14, 11, 41
16, 10899, Control_c, 14, 11, 40
16, 10918, Control_c, 14, 11, 39
16, 10937, Control_c, 14, 11, 38
16, 10957, Control_c, 14, 11, 37
16, 10976, Control_c, 14, 11, 36
16, 10995, Control_c, 14, 11, 35
16, 11014, Control_c, 14, 11, 34
16, 11033, Control_c, 14, 11, 33
16, 11049, Note_on_c, 14, 31, 0
16, 11053, Control_c, 14, 11, 32
16, 11054, Note_on_c, 14, 36, 97
16, 12974, Control_c, 14, 11, 32
16, 13017, Control_c, 14, 11, 33
16, 13061, Control_c, 14, 11, 34
16, 13104, Control_c, 14, 11, 35
16, 13148, Control_c, 14, 11, 36
16, 13192, Control_c, 14, 11, 37
16, 13235, Control_c, 14, 11, 38
16, 13279, Control_c, 14, 11, 39
16, 13323, Control_c, 14, 11, 40
16, 13366, Control_c, 14, 11, 41
16, 13410, Control_c, 14, 11, 42
16, 13454, Control_c, 14, 11, 43
16, 13490, Control_c, 14, 11, 44
16, 13564, Control_c, 14, 11, 45
16, 13638, Control_c, 14, 11, 46
16, 13712, Control_c, 14, 11, 47
16, 13786, Control_c, 14, 11, 48
16, 13860, Control_c, 14, 11, 49
16, 13934, Control_c, 14, 11, 50
16, 14007, Control_c, 14, 11, 51
16, 14081, Control_c, 14, 11, 52
16, 14155, Control_c, 14, 11, 53
16, 14229, Control_c, 14, 11, 54
16, 14303, Control_c, 14, 11, 55
16, 14377, Control_c, 14, 11, 56
16, 14450, Control_c, 14, 11, 57
16, 14524, Control_c, 14, 11, 58
16, 14598, Control_c, 14, 11, 59
16, 14672, Control_c, 14, 11, 60
16, 14746, Control_c, 14, 11, 61
16, 14820, Control_c, 14, 11, 62
16, 14894, Note_on_c, 14, 36, 0
16, 14894, Control_c, 14, 11, 63
16, 14894, Note_on_c, 14, 35, 97
16, 14967, Control_c, 14, 11, 64
16, 15041, Control_c, 14, 11, 65
16, 15115, Control_c, 14, 11, 66
16, 15189, Control_c, 14, 11, 67
16, 15263, Control_c, 14, 11, 68
16, 15337, Control_c, 14, 11, 69
16, 15410, Control_c, 14, 11, 70
16, 15484, Control_c, 14, 11, 71
16, 15558, Control_c, 14, 11, 72
16, 15632, Control_c, 14, 11, 73
16, 15706, Control_c, 14, 11, 74
16, 15780, Control_c, 14, 11, 75
16, 15854, Control_c, 14, 11, 76
16, 15927, Control_c, 14, 11, 77
16, 16001, Control_c, 14, 11, 78
16, 16075, Control_c, 14, 11, 79
16, 16149, Control_c, 14, 11, 80
16, 16223, Control_c, 14, 11, 81
16, 16297, Control_c, 14, 11, 82
16, 16370, Control_c, 14, 11, 83
16, 16444, Control_c, 14, 11, 84
16, 16518, Control_c, 14, 11, 85
16, 16592, Control_c, 14, 11, 86
16, 16666, Control_c, 14, 11, 87
16, 16740, Control_c, 14, 11, 88
16, 16814, Control_c, 14, 11, 89
16, 16887, Control_c, 14, 11, 90
16, 16961, Control_c, 14, 11, 91
16, 17035, Control_c, 14, 11, 92
16, 17109, Control_c, 14, 11, 93
16, 17183, Control_c, 14, 11, 94
16, 17257, Control_c, 14, 11, 95
16, 17330, Control_c, 14, 11, 96
16, 17404, Control_c, 14, 11, 97
16, 17478, Control_c, 14, 11, 98
16, 17552, Control_c, 14, 11, 99
16, 17626, Control_c, 14, 11, 100
16, 17700, Control_c, 14, 11, 101
16, 17774, Note_on_c, 14, 35, 0
16, 17774, Control_c, 14, 11, 102
16, 17774, Note_on_c, 14, 35, 97
16, 17834, Note_on_c, 14, 35, 0
16, 17894, Note_on_c, 14, 35, 97
16, 17954, Note_on_c, 14, 35, 0
16, 18014, Note_on_c, 14, 35, 97
16, 18074, Note_on_c, 14, 35, 0
16, 18134, Note_on_c, 14, 35, 97
16, 18194, Note_on_c, 14, 35, 0
16, 18254, Note_on_c, 14, 35, 97
16, 18314, Note_on_c, 14, 35, 0
16, 18374, Note_on_c, 14, 35, 97
16, 18434, Note_on_c, 14, 35, 0
16, 18494, Note_on_c, 14, 35, 97
16, 18554, Note_on_c, 14, 35, 0
16, 18614, Note_on_c, 14, 35, 97
16, 18674, Note_on_c, 14, 35, 0
16, 18734, Control_c, 14, 11, 47
16, 18734, Note_on_c, 14, 35, 97
16, 18794, Note_on_c, 14, 35, 0
16, 19933, Program_c, 14, 45
16, 19934, Control_c, 14, 11, 100
16, 19934, Note_on_c, 14, 42, 37
16, 20054, Note_on_c, 14, 42, 0
16, 20414, Note_on_c, 14, 42, 37
16, 20534, Note_on_c, 14, 42, 0
16, 20654, Note_on_c, 14, 35, 42
16, 20774, Note_on_c, 14, 35, 0
16, 21854, Note_on_c, 14, 47, 37
16, 21974, Note_on_c, 14, 47, 0
16, 22334, Note_on_c, 14, 47, 37
16, 22454, Note_on_c, 14, 47, 0
16, 23534, Note_on_c, 14, 40, 42
16, 23654, Note_on_c, 14, 40, 0
16, 26654, Note_on_c, 14, 40, 42
16, 26774, Note_on_c, 14, 40, 0
16, 27134, Note_on_c, 14, 40, 42
16, 27254, Note_on_c, 14, 40, 0
16, 27614, Note_on_c, 14, 35, 42
16, 27734, Note_on_c, 14, 35, 0
16, 28094, Note_on_c, 14, 35, 42
16, 28214, Note_on_c, 14, 35, 0
16, 28574, Note_on_c, 14, 35, 42
16, 28694, Note_on_c, 14, 35, 0
16, 29053, Program_c, 14, 48
16, 29054, Control_c, 14, 11, 47
16, 29054, Note_on_c, 14, 35, 97
16, 29174, Note_on_c, 14, 35, 0
16, 29174, Note_on_c, 14, 35, 97
16, 29279, Note_on_c, 14, 35, 0
16, 29294, Control_c, 14, 11, 47
16, 29294, Note_on_c, 14, 39, 97
16, 29330, Control_c, 14, 11, 48
16, 29366, Control_c, 14, 11, 49
16, 29402, Control_c, 14, 11, 50
16, 29414, Note_on_c, 14, 39, 0
16, 29414, Note_on_c, 14, 35, 97
16, 29438, Control_c, 14, 11, 51
16, 29474, Control_c, 14, 11, 52
16, 29510, Control_c, 14, 11, 53
16, 29546, Control_c, 14, 11, 54
16, 29582, Control_c, 14, 11, 55
16, 29618, Control_c, 14, 11, 56
16, 29654, Note_on_c, 14, 35, 0
16, 29654, Control_c, 14, 11, 57
16, 29654, Note_on_c, 14, 37, 97
16, 29690, Control_c, 14, 11, 58
16, 29714, Note_on_c, 14, 37, 0
16, 29714, Note_on_c, 14, 39, 97
16, 29726, Control_c, 14, 11, 59
16, 29759, Note_on_c, 14, 39, 0
16, 29762, Control_c, 14, 11, 60
16, 29774, Note_on_c, 14, 40, 97
16, 29798, Control_c, 14, 11, 61
16, 29834, Control_c, 14, 11, 62
16, 29870, Control_c, 14, 11, 63
16, 29894, Note_on_c, 14, 40, 0
16, 29894, Note_on_c, 14, 35, 97
16, 29906, Control_c, 14, 11, 64
16, 29942, Control_c, 14, 11, 65
16, 29978, Control_c, 14, 11, 66
16, 30014, Control_c, 14, 11, 67
16, 30050, Control_c, 14, 11, 68
16, 30086, Control_c, 14, 11, 69
16, 30119, Note_on_c, 14, 35, 0
16, 30122, Control_c, 14, 11, 70
16, 30134, Note_on_c, 14, 35, 97
16, 30158, Control_c, 14, 11, 71
16, 30194, Control_c, 14, 11, 72
16, 30230, Control_c, 14, 11, 73
16, 30254, Note_on_c, 14, 35, 0
16, 30254, Note_on_c, 14, 39, 97
16, 30266, Control_c, 14, 11, 74
16, 30302, Control_c, 14, 11, 75
16, 30338, Control_c, 14, 11, 76
16, 30374, Note_on_c, 14, 39, 0
16, 30374, Control_c, 14, 11, 77
16, 30374, Note_on_c, 14, 35, 97
16, 30410, Control_c, 14, 11, 78
16, 30446, Control_c, 14, 11, 79
16, 30482, Control_c, 14, 11, 80
16, 30518, Control_c, 14, 11, 81
16, 30554, Control_c, 14, 11, 82
16, 30590, Control_c, 14, 11, 83
16, 30614, Note_on_c, 14, 35, 0
16, 30614, Note_on_c, 14, 37, 97
16, 30626, Control_c, 14, 11, 84
16, 30662, Control_c, 14, 11, 85
16, 30674, Note_on_c, 14, 37, 0
16, 30674, Note_on_c, 14, 39, 97
16, 30698, Control_c, 14, 11, 86
16, 30719, Note_on_c, 14, 39, 0
16, 30734, Control_c, 14, 11, 87
16, 30734, Note_on_c, 14, 40, 97
16, 30784, Note_on_c, 14, 40, 0
16, 30794, Note_on_c, 14, 40, 97
16, 30844, Note_on_c, 14, 40, 0
16, 30854, Note_on_c, 14, 40, 97
16, 30904, Note_on_c, 14, 40, 0
16, 30914, Note_on_c, 14, 40, 97
16, 30964, Note_on_c, 14, 40, 0
16, 30974, Note_on_c, 14, 40, 97
16, 31024, Note_on_c, 14, 40, 0
16, 31034, Note_on_c, 14, 40, 97
16, 31084, Note_on_c, 14, 40, 0
16, 31094, Note_on_c, 14, 40, 97
16, 31144, Note_on_c, 14, 40, 0
16, 31154, Note_on_c, 14, 40, 97
16, 31204, Note_on_c, 14, 40, 0
16, 31214, Note_on_c, 14, 40, 97
16, 31264, Note_on_c, 14, 40, 0
16, 31274, Note_on_c, 14, 40, 97
16, 31324, Note_on_c, 14, 40, 0
16, 31334, Note_on_c, 14, 40, 97
16, 31384, Note_on_c, 14, 40, 0
16, 31394, Note_on_c, 14, 40, 97
16, 31444, Note_on_c, 14, 40, 0
16, 31454, Note_on_c, 14, 40, 97
16, 31504, Note_on_c, 14, 40, 0
16, 31514, Note_on_c, 14, 40, 97
16, 31564, Note_on_c, 14, 40, 0
16, 31574, Note_on_c, 14, 40, 97
16, 31624, Note_on_c, 14, 40, 0
16, 31634, Note_on_c, 14, 40, 97
16, 31684, Note_on_c, 14, 40, 0
16, 31694, Note_on_c, 14, 40, 97
16, 31744, Note_on_c, 14, 40, 0
16, 31754, Note_on_c, 14, 40, 97
16, 31804, Note_on_c, 14, 40, 0
16, 31814, Note_on_c, 14, 40, 97
16, 31864, Note_on_c, 14, 40, 0
16, 31874, Note_on_c, 14, 40, 97
16, 31924, Note_on_c, 14, 40, 0
16, 31934, Note_on_c, 14, 40, 97
16, 31984, Note_on_c, 14, 40, 0
16, 31994, Note_on_c, 14, 40, 97
16, 32044, Note_on_c, 14, 40, 0
16, 32054, Note_on_c, 14, 40, 97
16, 32104, Note_on_c, 14, 40, 0
16, 32114, Note_on_c, 14, 40, 97
16, 32164, Note_on_c, 14, 40, 0
16, 32174, Note_on_c, 14, 40, 97
16, 32224, Note_on_c, 14, 40, 0
16, 32234, Note_on_c, 14, 40, 97
16, 32284, Note_on_c, 14, 40, 0
16, 32294, Note_on_c, 14, 40, 97
16, 32344, Note_on_c, 14, 40, 0
16, 32354, Note_on_c, 14, 40, 97
16, 32404, Note_on_c, 14, 40, 0
16, 32414, Note_on_c, 14, 40, 97
16, 32464, Note_on_c, 14, 40, 0
16, 32474, Note_on_c, 14, 40, 97
16, 32524, Note_on_c, 14, 40, 0
16, 32534, Note_on_c, 14, 40, 97
16, 32584, Note_on_c, 14, 40, 0
16, 32594, Note_on_c, 14, 40, 97
16, 32644, Note_on_c, 14, 40, 0
16, 32654, Note_on_c, 14, 40, 97
16, 32704, Note_on_c, 14, 40, 0
16, 32714, Note_on_c, 14, 40, 97
16, 32764, Note_on_c, 14, 40, 0
16, 32774, Note_on_c, 14, 40, 97
16, 32824, Note_on_c, 14, 40, 0
16, 32834, Note_on_c, 14, 40, 97
16, 32884, Note_on_c, 14, 40, 0
16, 32894, Note_on_c, 14, 40, 97
16, 32944, Note_on_c, 14, 40, 0
16, 32954, Note_on_c, 14, 40, 97
16, 33004, Note_on_c, 14, 40, 0
16, 33014, Note_on_c, 14, 40, 97
16, 33064, Note_on_c, 14, 40, 0
16, 33074, Note_on_c, 14, 40, 97
16, 33124, Note_on_c, 14, 40, 0
16, 33134, Note_on_c, 14, 40, 97
16, 33184, Note_on_c, 14, 40, 0
16, 33194, Note_on_c, 14, 40, 97
16, 33244, Note_on_c, 14, 40, 0
16, 33254, Note_on_c, 14, 40, 97
16, 33304, Note_on_c, 14, 40, 0
16, 33314, Note_on_c, 14, 40, 97
16, 33364, Note_on_c, 14, 40, 0
16, 33374, Note_on_c, 14, 40, 97
16, 33424, Note_on_c, 14, 40, 0
16, 33434, Note_on_c, 14, 40, 97
16, 33484, Note_on_c, 14, 40, 0
16, 33494, Note_on_c, 14, 40, 97
16, 33544, Note_on_c, 14, 40, 0
16, 33554, Note_on_c, 14, 40, 97
16, 33604, Note_on_c, 14, 40, 0
16, 33614, Note_on_c, 14, 40, 97
16, 33664, Note_on_c, 14, 40, 0
16, 33674, Note_on_c, 14, 40, 97
16, 33724, Note_on_c, 14, 40, 0
16, 33734, Note_on_c, 14, 40, 97
16, 33784, Note_on_c, 14, 40, 0
16, 33794, Note_on_c, 14, 40, 97
16, 33844, Note_on_c, 14, 40, 0
16, 33854, Note_on_c, 14, 40, 97
16, 33904, Note_on_c, 14, 40, 0
16, 33914, Note_on_c, 14, 40, 97
16, 33964, Note_on_c, 14, 40, 0
16, 33974, Note_on_c, 14, 40, 97
16, 34024, Note_on_c, 14, 40, 0
16, 34034, Note_on_c, 14, 40, 97
16, 34084, Note_on_c, 14, 40, 0
16, 34094, Note_on_c, 14, 40, 97
16, 34144, Note_on_c, 14, 40, 0
16, 34154, Note_on_c, 14, 40, 97
16, 34204, Note_on_c, 14, 40, 0
16, 34214, Note_on_c, 14, 40, 97
16, 34264, Note_on_c, 14, 40, 0
16, 34274, Note_on_c, 14, 40, 97
16, 34324, Note_on_c, 14, 40, 0
16, 34334, Note_on_c, 14, 40, 97
16, 34384, Note_on_c, 14, 40, 0
16, 34394, Note_on_c, 14, 40, 97
16, 34444, Note_on_c, 14, 40, 0
16, 34454, Note_on_c, 14, 40, 97
16, 34504, Note_on_c, 14, 40, 0
16, 34514, Note_on_c, 14, 40, 97
16, 34564, Note_on_c, 14, 40, 0
16, 34574, Note_on_c, 14, 40, 97
16, 34694, Note_on_c, 14, 40, 0
16, 34814, Note_on_c, 14, 40, 97
16, 34934, Note_on_c, 14, 40, 0
16, 35054, Note_on_c, 14, 40, 97
16, 35174, Note_on_c, 14, 40, 0
16, 35294, Note_on_c, 14, 40, 97
16, 35414, Note_on_c, 14, 40, 0
16, 35534, Control_c, 14, 11, 107
16, 35534, Note_on_c, 14, 35, 97
16, 35551, Control_c, 14, 11, 104
16, 35569, Control_c, 14, 11, 101
16, 35584, Note_on_c, 14, 35, 0
16, 35587, Control_c, 14, 11, 98
16, 35594, Note_on_c, 14, 35, 97
16, 35605, Control_c, 14, 11, 95
16, 35623, Control_c, 14, 11, 92
16, 35641, Control_c, 14, 11, 89
16, 35644, Note_on_c, 14, 35, 0
16, 35654, Note_on_c, 14, 35, 97
16, 35704, Note_on_c, 14, 35, 0
16, 35714, Note_on_c, 14, 35, 97
16, 35764, Note_on_c, 14, 35, 0
16, 35774, Note_on_c, 14, 35, 97
16, 35824, Note_on_c, 14, 35, 0
16, 35834, Note_on_c, 14, 35, 97
16, 35884, Note_on_c, 14, 35, 0
16, 35894, Note_on_c, 14, 35, 97
16, 35944, Note_on_c, 14, 35, 0
16, 35954, Note_on_c, 14, 35, 97
16, 36004, Note_on_c, 14, 35, 0
16, 36014, Note_on_c, 14, 35, 97
16, 36064, Note_on_c, 14, 35, 0
16, 36074, Note_on_c, 14, 35, 97
16, 36124, Note_on_c, 14, 35, 0
16, 36134, Note_on_c, 14, 35, 97
16, 36184, Note_on_c, 14, 35, 0
16, 36194, Note_on_c, 14, 35, 97
16, 36244, Note_on_c, 14, 35, 0
16, 36254, Note_on_c, 14, 35, 97
16, 36304, Note_on_c, 14, 35, 0
16, 36314, Note_on_c, 14, 35, 97
16, 36364, Note_on_c, 14, 35, 0
16, 36374, Note_on_c, 14, 35, 97
16, 36424, Note_on_c, 14, 35, 0
16, 36434, Note_on_c, 14, 35, 97
16, 36484, Note_on_c, 14, 35, 0
16, 36494, Note_on_c, 14, 40, 97
16, 36614, Note_on_c, 14, 40, 0
16, 36734, Note_on_c, 14, 40, 97
16, 36854, Note_on_c, 14, 40, 0
16, 36974, Note_on_c, 14, 40, 97
16, 37094, Note_on_c, 14, 40, 0
16, 37214, Note_on_c, 14, 40, 97
16, 37334, Note_on_c, 14, 40, 0
16, 37454, Control_c, 14, 11, 107
16, 37454, Note_on_c, 14, 35, 97
16, 37471, Control_c, 14, 11, 104
16, 37489, Control_c, 14, 11, 101
16, 37504, Note_on_c, 14, 35, 0
16, 37507, Control_c, 14, 11, 98
16, 37514, Note_on_c, 14, 35, 97
16, 37525, Control_c, 14, 11, 95
16, 37543, Control_c, 14, 11, 92
16, 37561, Control_c, 14, 11, 89
16, 37564, Note_on_c, 14, 35, 0
16, 37574, Note_on_c, 14, 35, 97
16, 37624, Note_on_c, 14, 35, 0
16, 37634, Note_on_c, 14, 35, 97
16, 37684, Note_on_c, 14, 35, 0
16, 37694, Note_on_c, 14, 35, 97
16, 37744, Note_on_c, 14, 35, 0
16, 37754, Note_on_c, 14, 35, 97
16, 37804, Note_on_c, 14, 35, 0
16, 37814, Note_on_c, 14, 35, 97
16, 37864, Note_on_c, 14, 35, 0
16, 37874, Note_on_c, 14, 35, 97
16, 37924, Note_on_c, 14, 35, 0
16, 37934, Note_on_c, 14, 35, 97
16, 37984, Note_on_c, 14, 35, 0
16, 37994, Note_on_c, 14, 35, 97
16, 38044, Note_on_c, 14, 35, 0
16, 38054, Note_on_c, 14, 35, 97
16, 38104, Note_on_c, 14, 35, 0
16, 38114, Note_on_c, 14, 35, 97
16, 38164, Note_on_c, 14, 35, 0
16, 38174, Note_on_c, 14, 35, 97
16, 38224, Note_on_c, 14, 35, 0
16, 38234, Note_on_c, 14, 35, 97
16, 38284, Note_on_c, 14, 35, 0
16, 38294, Note_on_c, 14, 35, 97
16, 38344, Note_on_c, 14, 35, 0
16, 38354, Note_on_c, 14, 35, 97
16, 38404, Note_on_c, 14, 35, 0
16, 38414, Note_on_c, 14, 40, 97
16, 38464, Note_on_c, 14, 40, 0
16, 38474, Note_on_c, 14, 40, 97
16, 38524, Note_on_c, 14, 40, 0
16, 38534, Note_on_c, 14, 40, 97
16, 38584, Note_on_c, 14, 40, 0
16, 38594, Note_on_c, 14, 40, 97
16, 38644, Note_on_c, 14, 40, 0
16, 38654, Note_on_c, 14, 40, 97
16, 38704, Note_on_c, 14, 40, 0
16, 38714, Note_on_c, 14, 40, 97
16, 38764, Note_on_c, 14, 40, 0
16, 38774, Note_on_c, 14, 40, 97
16, 38824, Note_on_c, 14, 40, 0
16, 38834, Note_on_c, 14, 40, 97
16, 38884, Note_on_c, 14, 40, 0
16, 38894, Control_c, 14, 11, 107
16, 38894, Note_on_c, 14, 40, 97
16, 38911, Control_c, 14, 11, 104
16, 38929, Control_c, 14, 11, 101
16, 38944, Note_on_c, 14, 40, 0
16, 38947, Control_c, 14, 11, 98
16, 38954, Note_on_c, 14, 40, 97
16, 38965, Control_c, 14, 11, 95
16, 38983, Control_c, 14, 11, 92
16, 39001, Control_c, 14, 11, 89
16, 39004, Note_on_c, 14, 40, 0
16, 39014, Note_on_c, 14, 40, 97
16, 39064, Note_on_c, 14, 40, 0
16, 39074, Note_on_c, 14, 40, 97
16, 39124, Note_on_c, 14, 40, 0
16, 39134, Note_on_c, 14, 44, 97
16, 39164, Note_on_c, 14, 44, 0
16, 39194, Note_on_c, 14, 40, 97
16, 39224, Note_on_c, 14, 40, 0
16, 39254, Note_on_c, 14, 37, 97
16, 39284, Note_on_c, 14, 37, 0
16, 39314, Note_on_c, 14, 35, 97
16, 39344, Note_on_c, 14, 35, 0
16, 39374, Note_on_c, 14, 34, 87
16, 39494, Note_on_c, 14, 34, 0
16, 40573, Program_c, 14, 45
16, 40574, Control_c, 14, 11, 100
16, 40574, Note_on_c, 14, 42, 42
16, 40694, Note_on_c, 14, 42, 0
16, 40814, Note_on_c, 14, 47, 42
16, 40934, Note_on_c, 14, 47, 0
16, 41054, Note_on_c, 14, 35, 42
16, 41174, Note_on_c, 14, 35, 0
16, 41294, Note_on_c, 14, 30, 42
16, 41414, Note_on_c, 14, 30, 0
16, 42494, Note_on_c, 14, 42, 42
16, 42614, Note_on_c, 14, 42, 0
16, 42734, Note_on_c, 14, 47, 42
16, 42854, Note_on_c, 14, 47, 0
16, 42974, Note_on_c, 14, 35, 42
16, 43094, Note_on_c, 14, 35, 0
16, 43214, Note_on_c, 14, 30, 42
16, 43334, Note_on_c, 14, 30, 0
16, 43813, Program_c, 14, 48
16, 43814, Control_c, 14, 11, 47
16, 43814, Note_on_c, 14, 44, 97
16, 43859, Note_on_c, 14, 44, 0
16, 43874, Note_on_c, 14, 44, 97
16, 43919, Note_on_c, 14, 44, 0
16, 43934, Note_on_c, 14, 44, 97
16, 44039, Note_on_c, 14, 44, 0
16, 44054, Note_on_c, 14, 44, 97
16, 44099, Note_on_c, 14, 44, 0
16, 44114, Note_on_c, 14, 44, 97
16, 44159, Note_on_c, 14, 44, 0
16, 44174, Note_on_c, 14, 37, 97
16, 44294, Note_on_c, 14, 37, 0
16, 44774, Note_on_c, 14, 35, 97
16, 44819, Note_on_c, 14, 35, 0
16, 44834, Note_on_c, 14, 35, 97
16, 44879, Note_on_c, 14, 35, 0
16, 44894, Note_on_c, 14, 35, 97
16, 44999, Note_on_c, 14, 35, 0
16, 45014, Note_on_c, 14, 35, 97
16, 45059, Note_on_c, 14, 35, 0
16, 45074, Note_on_c, 14, 35, 97
16, 45119, Note_on_c, 14, 35, 0
16, 45134, Control_c, 14, 11, 47
16, 45134, Note_on_c, 14, 40, 97
16, 45158, Control_c, 14, 11, 48
16, 45182, Control_c, 14, 11, 49
16, 45206, Control_c, 14, 11, 50
16, 45230, Control_c, 14, 11, 51
16, 45239, Note_on_c, 14, 40, 0
16, 45254, Control_c, 14, 11, 52
16, 45254, Note_on_c, 14, 35, 97
16, 45278, Control_c, 14, 11, 53
16, 45299, Note_on_c, 14, 35, 0
16, 45302, Control_c, 14, 11, 54
16, 45314, Note_on_c, 14, 35, 97
16, 45326, Control_c, 14, 11, 55
16, 45350, Control_c, 14, 11, 56
16, 45359, Note_on_c, 14, 35, 0
16, 45374, Control_c, 14, 11, 57
16, 45374, Note_on_c, 14, 35, 97
16, 45398, Control_c, 14, 11, 58
16, 45422, Control_c, 14, 11, 59
16, 45446, Control_c, 14, 11, 60
16, 45470, Control_c, 14, 11, 61
16, 45479, Note_on_c, 14, 35, 0
16, 45494, Control_c, 14, 11, 62
16, 45494, Note_on_c, 14, 35, 97
16, 45518, Control_c, 14, 11, 63
16, 45539, Note_on_c, 14, 35, 0
16, 45542, Control_c, 14, 11, 64
16, 45554, Note_on_c, 14, 35, 97
16, 45566, Control_c, 14, 11, 65
16, 45590, Control_c, 14, 11, 66
16, 45599, Note_on_c, 14, 35, 0
16, 45614, Control_c, 14, 11, 67
16, 45614, Note_on_c, 14, 40, 97
16, 45638, Control_c, 14, 11, 68
16, 45662, Control_c, 14, 11, 69
16, 45686, Control_c, 14, 11, 70
16, 45710, Control_c, 14, 11, 71
16, 45719, Note_on_c, 14, 40, 0
16, 45734, Control_c, 14, 11, 72
16, 45734, Note_on_c, 14, 35, 97
16, 45758, Control_c, 14, 11, 73
16, 45779, Note_on_c, 14, 35, 0
16, 45782, Control_c, 14, 11, 74
16, 45794, Note_on_c, 14, 35, 97
16, 45806, Control_c, 14, 11, 75
16, 45830, Control_c, 14, 11, 76
16, 45839, Note_on_c, 14, 35, 0
16, 45854, Control_c, 14, 11, 77
16, 45854, Note_on_c, 14, 35, 97
16, 45878, Control_c, 14, 11, 78
16, 45902, Control_c, 14, 11, 79
16, 45926, Control_c, 14, 11, 80
16, 45950, Control_c, 14, 11, 81
16, 45959, Note_on_c, 14, 35, 0
16, 45974, Control_c, 14, 11, 82
16, 45974, Note_on_c, 14, 35, 97
16, 45998, Control_c, 14, 11, 83
16, 46019, Note_on_c, 14, 35, 0
16, 46022, Control_c, 14, 11, 84
16, 46034, Note_on_c, 14, 35, 97
16, 46046, Control_c, 14, 11, 85
16, 46070, Control_c, 14, 11, 86
16, 46079, Note_on_c, 14, 35, 0
16, 46094, Control_c, 14, 11, 87
16, 46094, Note_on_c, 14, 40, 97
16, 46199, Note_on_c, 14, 40, 0
16, 46214, Note_on_c, 14, 35, 97
16, 46259, Note_on_c, 14, 35, 0
16, 46274, Note_on_c, 14, 35, 97
16, 46319, Note_on_c, 14, 35, 0
16, 46334, Note_on_c, 14, 40, 97
16, 46439, Note_on_c, 14, 40, 0
16, 46454, Note_on_c, 14, 35, 97
16, 46499, Note_on_c, 14, 35, 0
16, 46514, Note_on_c, 14, 35, 97
16, 46559, Note_on_c, 14, 35, 0
16, 46574, Note_on_c, 14, 40, 97
16, 46679, Note_on_c, 14, 40, 0
16, 46694, Note_on_c, 14, 35, 97
16, 46739, Note_on_c, 14, 35, 0
16, 46754, Note_on_c, 14, 35, 97
16, 46799, Note_on_c, 14, 35, 0
16, 46814, Note_on_c, 14, 40, 97
16, 46919, Note_on_c, 14, 40, 0
16, 46934, Note_on_c, 14, 35, 97
16, 46979, Note_on_c, 14, 35, 0
16, 46994, Note_on_c, 14, 35, 97
16, 47039, Note_on_c, 14, 35, 0
16, 47054, Control_c, 14, 11, 102
16, 47054, Note_on_c, 14, 40, 97
16, 47519, Note_on_c, 14, 40, 0
16, 47534, Note_on_c, 14, 52, 97
16, 47579, Note_on_c, 14, 52, 0
16, 47594, Note_on_c, 14, 51, 97
16, 47639, Note_on_c, 14, 51, 0
16, 47654, Note_on_c, 14, 49, 97
16, 47699, Note_on_c, 14, 49, 0
16, 47714, Note_on_c, 14, 47, 97
16, 47759, Note_on_c, 14, 47, 0
16, 47774, Note_on_c, 14, 45, 97
16, 47819, Note_on_c, 14, 45, 0
16, 47834, Note_on_c, 14, 44, 97
16, 47879, Note_on_c, 14, 44, 0
16, 47894, Note_on_c, 14, 42, 97
16, 47939, Note_on_c, 14, 42, 0
16, 47954, Note_on_c, 14, 40, 97
16, 47999, Note_on_c, 14, 40, 0
16, 48014, Note_on_c, 14, 37, 97
16, 48479, Note_on_c, 14, 37, 0
16, 48494, Note_on_c, 14, 49, 97
16, 48539, Note_on_c, 14, 49, 0
16, 48554, Note_on_c, 14, 47, 97
16, 48599, Note_on_c, 14, 47, 0
16, 48614, Note_on_c, 14, 45, 97
16, 48659, Note_on_c, 14, 45, 0
16, 48674, Note_on_c, 14, 44, 97
16, 48719, Note_on_c, 14, 44, 0
16, 48734, Note_on_c, 14, 42, 97
16, 48779, Note_on_c, 14, 42, 0
16, 48794, Note_on_c, 14, 40, 97
16, 48839, Note_on_c, 14, 40, 0
16, 48854, Note_on_c, 14, 39, 97
16, 48899, Note_on_c, 14, 39, 0
16, 48914, Note_on_c, 14, 37, 97
16, 48959, Note_on_c, 14, 37, 0
16, 48974, Note_on_c, 14, 34, 97
16, 49019, Note_on_c, 14, 34, 0
16, 49034, Note_on_c, 14, 34, 97
16, 49079, Note_on_c, 14, 34, 0
16, 49094, Note_on_c, 14, 34, 97
16, 49139, Note_on_c, 14, 34, 0
16, 49154, Note_on_c, 14, 34, 97
16, 49199, Note_on_c, 14, 34, 0
16, 49214, Note_on_c, 14, 34, 97
16, 49259, Note_on_c, 14, 34, 0
16, 49274, Note_on_c, 14, 34, 97
16, 49319, Note_on_c, 14, 34, 0
16, 49334, Note_on_c, 14, 34, 97
16, 49379, Note_on_c, 14, 34, 0
16, 49394, Note_on_c, 14, 34, 97
16, 49439, Note_on_c, 14, 34, 0
16, 49454, Note_on_c, 14, 34, 97
16, 49499, Note_on_c, 14, 34, 0
16, 49514, Note_on_c, 14, 34, 97
16, 49559, Note_on_c, 14, 34, 0
16, 49574, Note_on_c, 14, 34, 97
16, 49619, Note_on_c, 14, 34, 0
16, 49634, Note_on_c, 14, 34, 97
16, 49679, Note_on_c, 14, 34, 0
16, 49694, Note_on_c, 14, 34, 97
16, 49739, Note_on_c, 14, 34, 0
16, 49754, Note_on_c, 14, 34, 97
16, 49799, Note_on_c, 14, 34, 0
16, 49814, Note_on_c, 14, 34, 97
16, 49859, Note_on_c, 14, 34, 0
16, 49874, Note_on_c, 14, 34, 97
16, 49919, Note_on_c, 14, 34, 0
16, 49934, Note_on_c, 14, 46, 97
16, 50279, Note_on_c, 14, 46, 0
16, 50294, Control_c, 14, 11, 122
16, 50294, Note_on_c, 14, 47, 97
16, 50311, Control_c, 14, 11, 119
16, 50329, Control_c, 14, 11, 116
16, 50347, Control_c, 14, 11, 113
16, 50365, Control_c, 14, 11, 110
16, 50383, Control_c, 14, 11, 107
16, 50399, Note_on_c, 14, 47, 0
16, 50401, Control_c, 14, 11, 104
16, 50414, Note_on_c, 14, 46, 97
16, 50759, Note_on_c, 14, 46, 0
16, 50774, Control_c, 14, 11, 122
16, 50774, Note_on_c, 14, 47, 97
16, 50791, Control_c, 14, 11, 119
16, 50809, Control_c, 14, 11, 116
16, 50827, Control_c, 14, 11, 113
16, 50845, Control_c, 14, 11, 110
16, 50863, Control_c, 14, 11, 107
16, 50879, Note_on_c, 14, 47, 0
16, 50881, Control_c, 14, 11, 104
16, 50894, Note_on_c, 14, 46, 97
16, 50999, Note_on_c, 14, 46, 0
16, 51014, Control_c, 14, 11, 122
16, 51014, Note_on_c, 14, 47, 97
16, 51031, Control_c, 14, 11, 119
16, 51049, Control_c, 14, 11, 116
16, 51067, Control_c, 14, 11, 113
16, 51085, Control_c, 14, 11, 110
16, 51103, Control_c, 14, 11, 107
16, 51119, Note_on_c, 14, 47, 0
16, 51121, Control_c, 14, 11, 104
16, 51134, Note_on_c, 14, 46, 97
16, 51239, Note_on_c, 14, 46, 0
16, 51254, Control_c, 14, 11, 122
16, 51254, Note_on_c, 14, 47, 97
16, 51271, Control_c, 14, 11, 119
16, 51289, Control_c, 14, 11, 116
16, 51307, Control_c, 14, 11, 113
16, 51325, Control_c, 14, 11, 110
16, 51343, Control_c, 14, 11, 107
16, 51359, Note_on_c, 14, 47, 0
16, 51361, Control_c, 14, 11, 104
16, 51374, Note_on_c, 14, 46, 97
16, 51479, Note_on_c, 14, 46, 0
16, 51494, Control_c, 14, 11, 122
16, 51494, Note_on_c, 14, 47, 97
16, 51511, Control_c, 14, 11, 119
16, 51529, Control_c, 14, 11, 116
16, 51547, Control_c, 14, 11, 113
16, 51565, Control_c, 14, 11, 110
16, 51583, Control_c, 14, 11, 107
16, 51599, Note_on_c, 14, 47, 0
16, 51601, Control_c, 14, 11, 104
16, 51614, Note_on_c, 14, 46, 97
16, 51719, Note_on_c, 14, 46, 0
16, 51734, Control_c, 14, 11, 122
16, 51734, Note_on_c, 14, 42, 97
16, 51751, Control_c, 14, 11, 119
16, 51769, Control_c, 14, 11, 116
16, 51787, Control_c, 14, 11, 113
16, 51805, Control_c, 14, 11, 110
16, 51823, Control_c, 14, 11, 107
16, 51839, Note_on_c, 14, 42, 0
16, 51841, Control_c, 14, 11, 104
16, 51854, Note_on_c, 14, 47, 97
16, 51959, Note_on_c, 14, 47, 0
16, 51974, Control_c, 14, 11, 122
16, 51974, Note_on_c, 14, 39, 97
16, 51991, Control_c, 14, 11, 119
16, 52009, Control_c, 14, 11, 116
16, 52027, Control_c, 14, 11, 113
16, 52045, Control_c, 14, 11, 110
16, 52063, Control_c, 14, 11, 107
16, 52079, Note_on_c, 14, 39, 0
16, 52081, Control_c, 14, 11, 104
16, 52094, Note_on_c, 14, 40, 97
16, 52199, Note_on_c, 14, 40, 0
16, 52214, Control_c, 14, 11, 122
16, 52214, Note_on_c, 14, 37, 97
16, 52231, Control_c, 14, 11, 119
16, 52249, Control_c, 14, 11, 116
16, 52267, Control_c, 14, 11, 113
16, 52285, Control_c, 14, 11, 110
16, 52303, Control_c, 14, 11, 107
16, 52319, Note_on_c, 14, 37, 0
16, 52321, Control_c, 14, 11, 104
16, 52334, Note_on_c, 14, 42, 97
16, 52439, Note_on_c, 14, 42, 0
16, 52454, Control_c, 14, 11, 122
16, 52454, Note_on_c, 14, 30, 97
16, 52471, Control_c, 14, 11, 119
16, 52489, Control_c, 14, 11, 116
16, 52507, Control_c, 14, 11, 113
16, 52525, Control_c, 14, 11, 110
16, 52543, Control_c, 14, 11, 107
16, 52559, Note_on_c, 14, 30, 0
16, 52561, Control_c, 14, 11, 104
16, 52574, Note_on_c, 14, 42, 97
16, 52679, Note_on_c, 14, 42, 0
16, 52694, Control_c, 14, 11, 122
16, 52694, Note_on_c, 14, 30, 97
16, 52711, Control_c, 14, 11, 119
16, 52729, Control_c, 14, 11, 116
16, 52747, Control_c, 14, 11, 113
16, 52765, Control_c, 14, 11, 110
16, 52783, Control_c, 14, 11, 107
16, 52799, Note_on_c, 14, 30, 0
16, 52801, Control_c, 14, 11, 104
16, 52814, Note_on_c, 14, 35, 87
16, 52934, Note_on_c, 14, 35, 0
16, 53174, Control_c, 14, 11, 87
16, 53174, Note_on_c, 14, 35, 97
16, 53414, Note_on_c, 14, 35, 0
16, 53654, Note_on_c, 14, 35, 97
16, 53894, Note_on_c, 14, 35, 0
16, 54134, Note_on_c, 14, 35, 97
16, 54374, Note_on_c, 14, 35, 0
16, 54614, Note_on_c, 14, 35, 97
16, 54854, Note_on_c, 14, 35, 0
16, 54854, Note_on_c, 14, 35, 97
16, 54899, Note_on_c, 14, 35, 0
16, 54914, Note_on_c, 14, 35, 97
16, 54959, Note_on_c, 14, 35, 0
16, 54974, Note_on_c, 14, 35, 97
16, 55094, Note_on_c, 14, 35, 0
16, 55214, Note_on_c, 14, 35, 97
16, 55319, Note_on_c, 14, 35, 0
16, 55334, Note_on_c, 14, 35, 97
16, 55379, Note_on_c, 14, 35, 0
16, 55394, Note_on_c, 14, 35, 97
16, 55439, Note_on_c, 14, 35, 0
16, 55454, Note_on_c, 14, 35, 97
16, 55574, Note_on_c, 14, 35, 0
16, 55694, Note_on_c, 14, 35, 97
16, 55799, Note_on_c, 14, 35, 0
16, 55814, Note_on_c, 14, 35, 97
16, 55859, Note_on_c, 14, 35, 0
16, 55874, Note_on_c, 14, 35, 97
16, 55919, Note_on_c, 14, 35, 0
16, 55934, Note_on_c, 14, 35, 97
16, 56039, Note_on_c, 14, 35, 0
16, 56054, Note_on_c, 14, 35, 97
16, 56099, Note_on_c, 14, 35, 0
16, 56114, Note_on_c, 14, 35, 97
16, 56159, Note_on_c, 14, 35, 0
16, 56174, Note_on_c, 14, 35, 97
16, 56279, Note_on_c, 14, 35, 0
16, 56294, Note_on_c, 14, 35, 97
16, 56339, Note_on_c, 14, 35, 0
16, 56354, Note_on_c, 14, 35, 97
16, 56399, Note_on_c, 14, 35, 0
16, 56414, Note_on_c, 14, 35, 97
16, 56519, Note_on_c, 14, 35, 0
16, 56534, Note_on_c, 14, 35, 97
16, 56579, Note_on_c, 14, 35, 0
16, 56594, Note_on_c, 14, 35, 97
16, 56639, Note_on_c, 14, 35, 0
16, 56654, Note_on_c, 14, 35, 92
16, 56774, Note_on_c, 14, 35, 0
16, 62893, Program_c, 14, 45
16, 62894, Control_c, 14, 11, 100
16, 62894, Note_on_c, 14, 48, 44
16, 63014, Note_on_c, 14, 48, 0
16, 63074, Note_on_c, 14, 40, 44
16, 63134, Note_on_c, 14, 40, 0
16, 63134, Note_on_c, 14, 40, 44
16, 63254, Note_on_c, 14, 40, 0
16, 63374, Note_on_c, 14, 52, 44
16, 63494, Note_on_c, 14, 52, 0
16, 63554, Note_on_c, 14, 40, 44
16, 63614, Note_on_c, 14, 40, 0
16, 63614, Note_on_c, 14, 40, 44
16, 63734, Note_on_c, 14, 40, 0
16, 63854, Note_on_c, 14, 52, 44
16, 63974, Note_on_c, 14, 52, 0
16, 64034, Note_on_c, 14, 40, 44
16, 64094, Note_on_c, 14, 40, 0
16, 64094, Note_on_c, 14, 40, 44
16, 64214, Note_on_c, 14, 40, 0
16, 64334, Note_on_c, 14, 52, 44
16, 64454, Note_on_c, 14, 52, 0
16, 64514, Note_on_c, 14, 40, 44
16, 64574, Note_on_c, 14, 40, 0
16, 64574, Note_on_c, 14, 40, 44
16, 64694, Note_on_c, 14, 40, 0
16, 64814, Note_on_c, 14, 45, 44
16, 64934, Note_on_c, 14, 45, 0
16, 64994, Note_on_c, 14, 33, 44
16, 65054, Note_on_c, 14, 33, 0
16, 65054, Note_on_c, 14, 33, 44
16, 65174, Note_on_c, 14, 33, 0
16, 65294, Note_on_c, 14, 35, 44
16, 65414, Note_on_c, 14, 35, 0
16, 65774, Note_on_c, 14, 35, 44
16, 65894, Note_on_c, 14, 35, 0
16, 66254, Note_on_c, 14, 35, 44
16, 66374, Note_on_c, 14, 35, 0
16, 66734, Note_on_c, 14, 35, 44
16, 66854, Note_on_c, 14, 35, 0
16, 67214, Note_on_c, 14, 35, 44
16, 67334, Note_on_c, 14, 35, 0
16, 67694, Note_on_c, 14, 35, 44
16, 67814, Note_on_c, 14, 35, 0
16, 68174, Note_on_c, 14, 35, 44
16, 68294, Note_on_c, 14, 35, 0
16, 68654, Note_on_c, 14, 35, 44
16, 68774, Note_on_c, 14, 35, 0
16, 69134, Note_on_c, 14, 35, 44
16, 69254, Note_on_c, 14, 35, 0
16, 69614, Note_on_c, 14, 35, 44
16, 69734, Note_on_c, 14, 35, 0
16, 69854, Note_on_c, 14, 35, 50
16, 69974, Note_on_c, 14, 35, 0
16, 70094, Note_on_c, 14, 35, 56
16, 70214, Note_on_c, 14, 35, 0
16, 70334, Note_on_c, 14, 35, 62
16, 70454, Note_on_c, 14, 35, 0
16, 70574, Note_on_c, 14, 40, 44
16, 70694, Note_on_c, 14, 40, 0
16, 72734, Note_on_c, 14, 40, 39
16, 72854, Note_on_c, 14, 40, 0
16, 73214, Note_on_c, 14, 40, 39
16, 73334, Note_on_c, 14, 40, 0
16, 73694, Note_on_c, 14, 35, 44
16, 73814, Note_on_c, 14, 35, 0
16, 74173, Program_c, 14, 48
16, 74174, Control_c, 14, 11, 47
16, 74174, Note_on_c, 14, 35, 97
16, 74279, Note_on_c, 14, 35, 0
16, 74294, Note_on_c, 14, 35, 97
16, 74399, Note_on_c, 14, 35, 0
16, 74414, Note_on_c, 14, 39, 97
16, 74534, Note_on_c, 14, 39, 0
16, 74534, Note_on_c, 14, 35, 97
16, 74774, Note_on_c, 14, 35, 0
16, 74774, Note_on_c, 14, 37, 97
16, 74834, Note_on_c, 14, 37, 0
16, 74834, Note_on_c, 14, 39, 97
16, 74879, Note_on_c, 14, 39, 0
16, 74894, Note_on_c, 14, 40, 97
16, 75014, Note_on_c, 14, 40, 0
16, 75014, Note_on_c, 14, 35, 97
16, 75239, Note_on_c, 14, 35, 0
16, 75254, Note_on_c, 14, 35, 97
16, 75359, Note_on_c, 14, 35, 0
16, 75374, Control_c, 14, 11, 47
16, 75374, Note_on_c, 14, 39, 97
16, 75410, Control_c, 14, 11, 48
16, 75446, Control_c, 14, 11, 49
16, 75482, Control_c, 14, 11, 50
16, 75494, Note_on_c, 14, 39, 0
16, 75494, Note_on_c, 14, 35, 97
16, 75518, Control_c, 14, 11, 51
16, 75554, Control_c, 14, 11, 52
16, 75590, Control_c, 14, 11, 53
16, 75626, Control_c, 14, 11, 54
16, 75662, Control_c, 14, 11, 55
16, 75698, Control_c, 14, 11, 56
16, 75734, Note_on_c, 14, 35, 0
16, 75734, Control_c, 14, 11, 57
16, 75734, Note_on_c, 14, 37, 97
16, 75770, Control_c, 14, 11, 58
16, 75794, Note_on_c, 14, 37, 0
16, 75794, Note_on_c, 14, 39, 97
16, 75806, Control_c, 14, 11, 59
16, 75839, Note_on_c, 14, 39, 0
16, 75842, Control_c, 14, 11, 60
16, 75854, Note_on_c, 14, 40, 97
16, 75878, Control_c, 14, 11, 61
16, 75914, Control_c, 14, 11, 62
16, 75950, Control_c, 14, 11, 63
16, 75974, Note_on_c, 14, 40, 0
16, 75974, Note_on_c, 14, 35, 97
16, 75986, Control_c, 14, 11, 64
16, 76022, Control_c, 14, 11, 65
16, 76058, Control_c, 14, 11, 66
16, 76094, Control_c, 14, 11, 67
16, 76130, Control_c, 14, 11, 68
16, 76166, Control_c, 14, 11, 69
16, 76199, Note_on_c, 14, 35, 0
16, 76202, Control_c, 14, 11, 70
16, 76214, Note_on_c, 14, 35, 97
16, 76238, Control_c, 14, 11, 71
16, 76274, Control_c, 14, 11, 72
16, 76310, Control_c, 14, 11, 73
16, 76319, Note_on_c, 14, 35, 0
16, 76334, Note_on_c, 14, 39, 97
16, 76346, Control_c, 14, 11, 74
16, 76382, Control_c, 14, 11, 75
16, 76418, Control_c, 14, 11, 76
16, 76454, Note_on_c, 14, 39, 0
16, 76454, Control_c, 14, 11, 77
16, 76454, Note_on_c, 14, 47, 97
16, 76490, Control_c, 14, 11, 78
16, 76526, Control_c, 14, 11, 79
16, 76562, Control_c, 14, 11, 80
16, 76598, Control_c, 14, 11, 81
16, 76634, Control_c, 14, 11, 82
16, 76670, Control_c, 14, 11, 83
16, 76694, Note_on_c, 14, 47, 0
16, 76694, Note_on_c, 14, 49, 97
16, 76706, Control_c, 14, 11, 84
16, 76742, Control_c, 14, 11, 85
16, 76754, Note_on_c, 14, 49, 0
16, 76754, Note_on_c, 14, 51, 97
16, 76778, Control_c, 14, 11, 86
16, 76799, Note_on_c, 14, 51, 0
16, 76814, Control_c, 14, 11, 87
16, 76814, Note_on_c, 14, 52, 97
16, 76859, Note_on_c, 14, 52, 0
16, 76874, Note_on_c, 14, 40, 97
16, 76919, Note_on_c, 14, 40, 0
16, 76934, Note_on_c, 14, 40, 97
16, 76979, Note_on_c, 14, 40, 0
16, 76994, Note_on_c, 14, 40, 97
16, 77039, Note_on_c, 14, 40, 0
16, 77054, Note_on_c, 14, 40, 97
16, 77099, Note_on_c, 14, 40, 0
16, 77114, Note_on_c, 14, 40, 97
16, 77159, Note_on_c, 14, 40, 0
16, 77174, Note_on_c, 14, 40, 97
16, 77219, Note_on_c, 14, 40, 0
16, 77234, Note_on_c, 14, 40, 97
16, 77279, Note_on_c, 14, 40, 0
16, 77294, Note_on_c, 14, 40, 97
16, 77339, Note_on_c, 14, 40, 0
16, 77354, Note_on_c, 14, 40, 97
16, 77399, Note_on_c, 14, 40, 0
16, 77414, Note_on_c, 14, 40, 97
16, 77459, Note_on_c, 14, 40, 0
16, 77474, Note_on_c, 14, 40, 97
16, 77519, Note_on_c, 14, 40, 0
16, 77534, Note_on_c, 14, 40, 97
16, 77579, Note_on_c, 14, 40, 0
16, 77594, Note_on_c, 14, 40, 97
16, 77639, Note_on_c, 14, 40, 0
16, 77654, Note_on_c, 14, 40, 97
16, 77699, Note_on_c, 14, 40, 0
16, 77714, Note_on_c, 14, 40, 97
16, 77759, Note_on_c, 14, 40, 0
16, 77774, Note_on_c, 14, 40, 97
16, 77819, Note_on_c, 14, 40, 0
16, 77834, Note_on_c, 14, 40, 97
16, 77879, Note_on_c, 14, 40, 0
16, 77894, Note_on_c, 14, 40, 97
16, 77939, Note_on_c, 14, 40, 0
16, 77954, Note_on_c, 14, 40, 97
16, 77999, Note_on_c, 14, 40, 0
16, 78014, Note_on_c, 14, 40, 97
16, 78059, Note_on_c, 14, 40, 0
16, 78074, Note_on_c, 14, 40, 97
16, 78119, Note_on_c, 14, 40, 0
16, 78134, Note_on_c, 14, 40, 97
16, 78179, Note_on_c, 14, 40, 0
16, 78194, Note_on_c, 14, 40, 97
16, 78239, Note_on_c, 14, 40, 0
16, 78254, Note_on_c, 14, 40, 97
16, 78299, Note_on_c, 14, 40, 0
16, 78314, Note_on_c, 14, 40, 97
16, 78359, Note_on_c, 14, 40, 0
16, 78374, Note_on_c, 14, 40, 97
16, 78419, Note_on_c, 14, 40, 0
16, 78434, Note_on_c, 14, 40, 97
16, 78479, Note_on_c, 14, 40, 0
16, 78494, Note_on_c, 14, 40, 97
16, 78539, Note_on_c, 14, 40, 0
16, 78554, Note_on_c, 14, 40, 97
16, 78599, Note_on_c, 14, 40, 0
16, 78614, Note_on_c, 14, 40, 97
16, 78659, Note_on_c, 14, 40, 0
16, 78674, Note_on_c, 14, 40, 97
16, 78719, Note_on_c, 14, 40, 0
16, 78734, Note_on_c, 14, 40, 97
16, 78779, Note_on_c, 14, 40, 0
16, 78794, Note_on_c, 14, 40, 97
16, 78839, Note_on_c, 14, 40, 0
16, 78854, Note_on_c, 14, 40, 97
16, 78899, Note_on_c, 14, 40, 0
16, 78914, Note_on_c, 14, 40, 97
16, 78959, Note_on_c, 14, 40, 0
16, 78974, Note_on_c, 14, 40, 97
16, 79019, Note_on_c, 14, 40, 0
16, 79034, Note_on_c, 14, 40, 97
16, 79079, Note_on_c, 14, 40, 0
16, 79094, Note_on_c, 14, 40, 97
16, 79139, Note_on_c, 14, 40, 0
16, 79154, Note_on_c, 14, 40, 97
16, 79199, Note_on_c, 14, 40, 0
16, 79214, Note_on_c, 14, 40, 97
16, 79259, Note_on_c, 14, 40, 0
16, 79274, Note_on_c, 14, 40, 97
16, 79319, Note_on_c, 14, 40, 0
16, 79334, Note_on_c, 14, 40, 97
16, 79379, Note_on_c, 14, 40, 0
16, 79394, Note_on_c, 14, 40, 97
16, 79439, Note_on_c, 14, 40, 0
16, 79454, Note_on_c, 14, 40, 97
16, 79499, Note_on_c, 14, 40, 0
16, 79514, Note_on_c, 14, 40, 97
16, 79559, Note_on_c, 14, 40, 0
16, 79574, Note_on_c, 14, 40, 97
16, 79619, Note_on_c, 14, 40, 0
16, 79634, Note_on_c, 14, 40, 97
16, 79679, Note_on_c, 14, 40, 0
16, 79694, Note_on_c, 14, 40, 97
16, 79739, Note_on_c, 14, 40, 0
16, 79754, Note_on_c, 14, 40, 97
16, 79799, Note_on_c, 14, 40, 0
16, 79814, Note_on_c, 14, 40, 97
16, 79859, Note_on_c, 14, 40, 0
16, 79874, Note_on_c, 14, 40, 97
16, 79919, Note_on_c, 14, 40, 0
16, 79934, Note_on_c, 14, 40, 97
16, 79979, Note_on_c, 14, 40, 0
16, 79994, Note_on_c, 14, 40, 97
16, 80039, Note_on_c, 14, 40, 0
16, 80054, Note_on_c, 14, 40, 97
16, 80099, Note_on_c, 14, 40, 0
16, 80114, Note_on_c, 14, 40, 97
16, 80159, Note_on_c, 14, 40, 0
16, 80174, Note_on_c, 14, 40, 97
16, 80219, Note_on_c, 14, 40, 0
16, 80234, Note_on_c, 14, 40, 97
16, 80279, Note_on_c, 14, 40, 0
16, 80294, Note_on_c, 14, 40, 97
16, 80339, Note_on_c, 14, 40, 0
16, 80354, Note_on_c, 14, 40, 97
16, 80399, Note_on_c, 14, 40, 0
16, 80414, Note_on_c, 14, 40, 97
16, 80459, Note_on_c, 14, 40, 0
16, 80474, Note_on_c, 14, 40, 97
16, 80519, Note_on_c, 14, 40, 0
16, 80534, Note_on_c, 14, 40, 97
16, 80579, Note_on_c, 14, 40, 0
16, 80594, Note_on_c, 14, 40, 97
16, 80639, Note_on_c, 14, 40, 0
16, 80654, Note_on_c, 14, 40, 97
16, 80774, Note_on_c, 14, 40, 0
16, 80894, Note_on_c, 14, 40, 97
16, 81014, Note_on_c, 14, 40, 0
16, 81134, Note_on_c, 14, 40, 97
16, 81254, Note_on_c, 14, 40, 0
16, 81374, Note_on_c, 14, 40, 97
16, 81494, Note_on_c, 14, 40, 0
16, 81614, Control_c, 14, 11, 107
16, 81614, Note_on_c, 14, 35, 97
16, 81631, Control_c, 14, 11, 104
16, 81649, Control_c, 14, 11, 101
16, 81659, Note_on_c, 14, 35, 0
16, 81667, Control_c, 14, 11, 98
16, 81674, Note_on_c, 14, 35, 97
16, 81685, Control_c, 14, 11, 95
16, 81703, Control_c, 14, 11, 92
16, 81719, Note_on_c, 14, 35, 0
16, 81721, Control_c, 14, 11, 89
16, 81734, Note_on_c, 14, 35, 97
16, 81779, Note_on_c, 14, 35, 0
16, 81794, Note_on_c, 14, 35, 97
16, 81839, Note_on_c, 14, 35, 0
16, 81854, Note_on_c, 14, 35, 97
16, 81899, Note_on_c, 14, 35, 0
16, 81914, Note_on_c, 14, 35, 97
16, 81959, Note_on_c, 14, 35, 0
16, 81974, Note_on_c, 14, 35, 97
16, 82019, Note_on_c, 14, 35, 0
16, 82034, Note_on_c, 14, 35, 97
16, 82079, Note_on_c, 14, 35, 0
16, 82094, Note_on_c, 14, 35, 97
16, 82139, Note_on_c, 14, 35, 0
16, 82154, Note_on_c, 14, 35, 97
16, 82199, Note_on_c, 14, 35, 0
16, 82214, Note_on_c, 14, 35, 97
16, 82259, Note_on_c, 14, 35, 0
16, 82274, Note_on_c, 14, 35, 97
16, 82319, Note_on_c, 14, 35, 0
16, 82334, Note_on_c, 14, 35, 97
16, 82379, Note_on_c, 14, 35, 0
16, 82394, Note_on_c, 14, 35, 97
16, 82439, Note_on_c, 14, 35, 0
16, 82454, Note_on_c, 14, 35, 97
16, 82499, Note_on_c, 14, 35, 0
16, 82514, Note_on_c, 14, 35, 97
16, 82559, Note_on_c, 14, 35, 0
16, 82574, Note_on_c, 14, 40, 97
16, 82694, Note_on_c, 14, 40, 0
16, 82814, Note_on_c, 14, 40, 97
16, 82934, Note_on_c, 14, 40, 0
16, 83054, Note_on_c, 14, 40, 97
16, 83174, Note_on_c, 14, 40, 0
16, 83294, Note_on_c, 14, 40, 97
16, 83414, Note_on_c, 14, 40, 0
16, 83534, Control_c, 14, 11, 107
16, 83534, Note_on_c, 14, 35, 97
16, 83551, Control_c, 14, 11, 104
16, 83569, Control_c, 14, 11, 101
16, 83579, Note_on_c, 14, 35, 0
16, 83587, Control_c, 14, 11, 98
16, 83594, Note_on_c, 14, 35, 97
16, 83605, Control_c, 14, 11, 95
16, 83623, Control_c, 14, 11, 92
16, 83639, Note_on_c, 14, 35, 0
16, 83641, Control_c, 14, 11, 89
16, 83654, Note_on_c, 14, 35, 97
16, 83699, Note_on_c, 14, 35, 0
16, 83714, Note_on_c, 14, 35, 97
16, 83759, Note_on_c, 14, 35, 0
16, 83774, Note_on_c, 14, 35, 97
16, 83819, Note_on_c, 14, 35, 0
16, 83834, Note_on_c, 14, 35, 97
16, 83879, Note_on_c, 14, 35, 0
16, 83894, Note_on_c, 14, 35, 97
16, 83939, Note_on_c, 14, 35, 0
16, 83954, Note_on_c, 14, 35, 97
16, 83999, Note_on_c, 14, 35, 0
16, 84014, Note_on_c, 14, 35, 97
16, 84059, Note_on_c, 14, 35, 0
16, 84074, Note_on_c, 14, 35, 97
16, 84119, Note_on_c, 14, 35, 0
16, 84134, Note_on_c, 14, 35, 97
16, 84179, Note_on_c, 14, 35, 0
16, 84194, Note_on_c, 14, 35, 97
16, 84239, Note_on_c, 14, 35, 0
16, 84254, Note_on_c, 14, 35, 97
16, 84299, Note_on_c, 14, 35, 0
16, 84314, Note_on_c, 14, 35, 97
16, 84359, Note_on_c, 14, 35, 0
16, 84374, Note_on_c, 14, 35, 97
16, 84419, Note_on_c, 14, 35, 0
16, 84434, Note_on_c, 14, 35, 97
16, 84479, Note_on_c, 14, 35, 0
16, 84494, Note_on_c, 14, 40, 97
16, 84539, Note_on_c, 14, 40, 0
16, 84554, Note_on_c, 14, 40, 97
16, 84599, Note_on_c, 14, 40, 0
16, 84614, Note_on_c, 14, 40, 97
16, 84659, Note_on_c, 14, 40, 0
16, 84674, Note_on_c, 14, 40, 97
16, 84719, Note_on_c, 14, 40, 0
16, 84734, Note_on_c, 14, 40, 97
16, 84779, Note_on_c, 14, 40, 0
16, 84794, Note_on_c, 14, 40, 97
16, 84839, Note_on_c, 14, 40, 0
16, 84854, Note_on_c, 14, 40, 97
16, 84899, Note_on_c, 14, 40, 0
16, 84914, Note_on_c, 14, 40, 97
16, 84959, Note_on_c, 14, 40, 0
16, 84974, Note_on_c, 14, 40, 97
16, 85019, Note_on_c, 14, 40, 0
16, 85034, Note_on_c, 14, 40, 97
16, 85079, Note_on_c, 14, 40, 0
16, 85094, Note_on_c, 14, 40, 97
16, 85139, Note_on_c, 14, 40, 0
16, 85154, Note_on_c, 14, 40, 97
16, 85199, Note_on_c, 14, 40, 0
16, 85214, Note_on_c, 14, 40, 97
16, 85259, Note_on_c, 14, 40, 0
16, 85274, Note_on_c, 14, 40, 97
16, 85319, Note_on_c, 14, 40, 0
16, 85334, Note_on_c, 14, 40, 97
16, 85379, Note_on_c, 14, 40, 0
16, 85394, Note_on_c, 14, 40, 97
16, 85439, Note_on_c, 14, 40, 0
16, 85454, Note_on_c, 14, 40, 97
16, 85499, Note_on_c, 14, 40, 0
16, 85514, Note_on_c, 14, 40, 97
16, 85559, Note_on_c, 14, 40, 0
16, 85574, Note_on_c, 14, 40, 97
16, 85619, Note_on_c, 14, 40, 0
16, 85634, Note_on_c, 14, 40, 97
16, 85679, Note_on_c, 14, 40, 0
16, 85694, Note_on_c, 14, 40, 97
16, 85739, Note_on_c, 14, 40, 0
16, 85754, Note_on_c, 14, 40, 97
16, 85799, Note_on_c, 14, 40, 0
16, 85814, Note_on_c, 14, 40, 97
16, 85859, Note_on_c, 14, 40, 0
16, 85874, Note_on_c, 14, 40, 97
16, 85919, Note_on_c, 14, 40, 0
16, 85934, Control_c, 14, 11, 107
16, 85934, Note_on_c, 14, 40, 97
16, 85951, Control_c, 14, 11, 104
16, 85969, Control_c, 14, 11, 101
16, 85979, Note_on_c, 14, 40, 0
16, 85987, Control_c, 14, 11, 98
16, 85994, Note_on_c, 14, 40, 97
16, 86005, Control_c, 14, 11, 95
16, 86023, Control_c, 14, 11, 92
16, 86039, Note_on_c, 14, 40, 0
16, 86041, Control_c, 14, 11, 89
16, 86054, Note_on_c, 14, 40, 97
16, 86099, Note_on_c, 14, 40, 0
16, 86114, Note_on_c, 14, 40, 97
16, 86159, Note_on_c, 14, 40, 0
16, 86174, Note_on_c, 14, 40, 97
16, 86204, Note_on_c, 14, 40, 0
16, 86234, Note_on_c, 14, 38, 97
16, 86264, Note_on_c, 14, 38, 0
16, 86294, Note_on_c, 14, 35, 97
16, 86324, Note_on_c, 14, 35, 0
16, 86354, Note_on_c, 14, 33, 97
16, 86384, Note_on_c, 14, 33, 0
16, 86414, Note_on_c, 14, 32, 73
16, 86534, Note_on_c, 14, 32, 0
16, 87613, Program_c, 14, 45
16, 87614, Control_c, 14, 11, 100
16, 87614, Note_on_c, 14, 40, 44
16, 87734, Note_on_c, 14, 40, 0
16, 87854, Note_on_c, 14, 45, 44
16, 87974, Note_on_c, 14, 45, 0
16, 88094, Note_on_c, 14, 33, 44
16, 88214, Note_on_c, 14, 33, 0
16, 88334, Note_on_c, 14, 40, 44
16, 88454, Note_on_c, 14, 40, 0
16, 89534, Note_on_c, 14, 40, 44
16, 89654, Note_on_c, 14, 40, 0
16, 89774, Note_on_c, 14, 45, 44
16, 89894, Note_on_c, 14, 45, 0
16, 90014, Note_on_c, 14, 33, 44
16, 90134, Note_on_c, 14, 33, 0
16, 90254, Note_on_c, 14, 40, 44
16, 90374, Note_on_c, 14, 40, 0
16, 90974, Note_on_c, 14, 35, 44
16, 91094, Note_on_c, 14, 35, 0
16, 91214, Note_on_c, 14, 42, 44
16, 91334, Note_on_c, 14, 42, 0
16, 92414, Note_on_c, 14, 43, 44
16, 92534, Note_on_c, 14, 43, 0
16, 92654, Note_on_c, 14, 48, 44
16, 92774, Note_on_c, 14, 48, 0
16, 92894, Note_on_c, 14, 36, 44
16, 93014, Note_on_c, 14, 36, 0
16, 93134, Note_on_c, 14, 31, 44
16, 93254, Note_on_c, 14, 31, 0
16, 93733, Program_c, 14, 48
16, 93734, Control_c, 14, 11, 47
16, 93734, Note_on_c, 14, 43, 97
16, 93767, Control_c, 14, 11, 48
16, 93779, Note_on_c, 14, 43, 0
16, 93794, Note_on_c, 14, 43, 97
16, 93800, Control_c, 14, 11, 49
16, 93833, Control_c, 14, 11, 50
16, 93839, Note_on_c, 14, 43, 0
16, 93854, Note_on_c, 14, 43, 97
16, 93866, Control_c, 14, 11, 51
16, 93899, Control_c, 14, 11, 52
16, 93932, Control_c, 14, 11, 53
16, 93959, Note_on_c, 14, 43, 0
16, 93965, Control_c, 14, 11, 54
16, 93974, Note_on_c, 14, 43, 97
16, 93998, Control_c, 14, 11, 55
16, 94019, Note_on_c, 14, 43, 0
16, 94031, Control_c, 14, 11, 56
16, 94034, Note_on_c, 14, 43, 97
16, 94064, Control_c, 14, 11, 57
16, 94079, Note_on_c, 14, 43, 0
16, 94094, Note_on_c, 14, 48, 97
16, 94097, Control_c, 14, 11, 58
16, 94130, Control_c, 14, 11, 59
16, 94163, Control_c, 14, 11, 60
16, 94196, Control_c, 14, 11, 61
16, 94199, Note_on_c, 14, 48, 0
16, 94214, Note_on_c, 14, 43, 97
16, 94229, Control_c, 14, 11, 62
16, 94259, Note_on_c, 14, 43, 0
16, 94262, Control_c, 14, 11, 63
16, 94274, Note_on_c, 14, 43, 97
16, 94295, Control_c, 14, 11, 64
16, 94319, Note_on_c, 14, 43, 0
16, 94328, Control_c, 14, 11, 65
16, 94334, Note_on_c, 14, 43, 97
16, 94361, Control_c, 14, 11, 66
16, 94394, Control_c, 14, 11, 67
16, 94427, Control_c, 14, 11, 68
16, 94439, Note_on_c, 14, 43, 0
16, 94454, Note_on_c, 14, 43, 97
16, 94460, Control_c, 14, 11, 69
16, 94493, Control_c, 14, 11, 70
16, 94499, Note_on_c, 14, 43, 0
16, 94514, Note_on_c, 14, 43, 97
16, 94526, Control_c, 14, 11, 71
16, 94559, Note_on_c, 14, 43, 0
16, 94559, Control_c, 14, 11, 72
16, 94574, Note_on_c, 14, 48, 97
16, 94592, Control_c, 14, 11, 73
16, 94625, Control_c, 14, 11, 74
16, 94658, Control_c, 14, 11, 75
16, 94679, Note_on_c, 14, 48, 0
16, 94691, Control_c, 14, 11, 76
16, 94694, Note_on_c, 14, 43, 97
16, 94724, Control_c, 14, 11, 77
16, 94739, Note_on_c, 14, 43, 0
16, 94754, Note_on_c, 14, 43, 97
16, 94757, Control_c, 14, 11, 78
16, 94790, Control_c, 14, 11, 79
16, 94799, Note_on_c, 14, 43, 0
16, 94814, Note_on_c, 14, 43, 97
16, 94823, Control_c, 14, 11, 80
16, 94856, Control_c, 14, 11, 81
16, 94889, Control_c, 14, 11, 82
16, 94919, Note_on_c, 14, 43, 0
16, 94922, Control_c, 14, 11, 83
16, 94934, Note_on_c, 14, 43, 97
16, 94955, Control_c, 14, 11, 84
16, 94979, Note_on_c, 14, 43, 0
16, 94988, Control_c, 14, 11, 85
16, 94994, Note_on_c, 14, 43, 97
16, 95021, Control_c, 14, 11, 86
16, 95039, Note_on_c, 14, 43, 0
16, 95054, Control_c, 14, 11, 87
16, 95054, Note_on_c, 14, 48, 97
16, 95159, Note_on_c, 14, 48, 0
16, 95174, Note_on_c, 14, 43, 97
16, 95219, Note_on_c, 14, 43, 0
16, 95234, Note_on_c, 14, 43, 97
16, 95279, Note_on_c, 14, 43, 0
16, 95294, Note_on_c, 14, 48, 97
16, 95399, Note_on_c, 14, 48, 0
16, 95414, Note_on_c, 14, 43, 97
16, 95459, Note_on_c, 14, 43, 0
16, 95474, Note_on_c, 14, 43, 97
16, 95519, Note_on_c, 14, 43, 0
16, 95534, Note_on_c, 14, 48, 97
16, 95639, Note_on_c, 14, 48, 0
16, 95654, Note_on_c, 14, 43, 97
16, 95699, Note_on_c, 14, 43, 0
16, 95714, Note_on_c, 14, 43, 97
16, 95759, Note_on_c, 14, 43, 0
16, 95774, Note_on_c, 14, 48, 97
16, 95879, Note_on_c, 14, 48, 0
16, 95894, Note_on_c, 14, 43, 97
16, 95939, Note_on_c, 14, 43, 0
16, 95954, Note_on_c, 14, 43, 97
16, 95999, Note_on_c, 14, 43, 0
16, 96014, Control_c, 14, 11, 102
16, 96014, Note_on_c, 14, 48, 97
16, 96479, Note_on_c, 14, 48, 0
16, 96494, Note_on_c, 14, 48, 97
16, 96539, Note_on_c, 14, 48, 0
16, 96554, Note_on_c, 14, 47, 97
16, 96599, Note_on_c, 14, 47, 0
16, 96614, Note_on_c, 14, 45, 97
16, 96659, Note_on_c, 14, 45, 0
16, 96674, Note_on_c, 14, 43, 97
16, 96719, Note_on_c, 14, 43, 0
16, 96734, Note_on_c, 14, 41, 97
16, 96779, Note_on_c, 14, 41, 0
16, 96794, Note_on_c, 14, 40, 97
16, 96839, Note_on_c, 14, 40, 0
16, 96854, Note_on_c, 14, 38, 97
16, 96899, Note_on_c, 14, 38, 0
16, 96914, Note_on_c, 14, 36, 97
16, 96959, Note_on_c, 14, 36, 0
16, 96974, Note_on_c, 14, 33, 97
16, 97439, Note_on_c, 14, 33, 0
16, 97454, Note_on_c, 14, 45, 97
16, 97499, Note_on_c, 14, 45, 0
16, 97514, Note_on_c, 14, 43, 97
16, 97559, Note_on_c, 14, 43, 0
16, 97574, Note_on_c, 14, 41, 97
16, 97619, Note_on_c, 14, 41, 0
16, 97634, Note_on_c, 14, 40, 97
16, 97679, Note_on_c, 14, 40, 0
16, 97694, Note_on_c, 14, 38, 97
16, 97739, Note_on_c, 14, 38, 0
16, 97754, Note_on_c, 14, 36, 97
16, 97799, Note_on_c, 14, 36, 0
16, 97814, Note_on_c, 14, 35, 97
16, 97859, Note_on_c, 14, 35, 0
16, 97874, Note_on_c, 14, 33, 97
16, 97919, Note_on_c, 14, 33, 0
16, 97934, Note_on_c, 14, 45, 97
16, 97979, Note_on_c, 14, 45, 0
16, 97994, Note_on_c, 14, 45, 97
16, 98039, Note_on_c, 14, 45, 0
16, 98054, Note_on_c, 14, 45, 97
16, 98099, Note_on_c, 14, 45, 0
16, 98114, Note_on_c, 14, 45, 97
16, 98159, Note_on_c, 14, 45, 0
16, 98174, Note_on_c, 14, 45, 97
16, 98219, Note_on_c, 14, 45, 0
16, 98234, Note_on_c, 14, 45, 97
16, 98279, Note_on_c, 14, 45, 0
16, 98294, Note_on_c, 14, 45, 97
16, 98339, Note_on_c, 14, 45, 0
16, 98354, Note_on_c, 14, 45, 97
16, 98399, Note_on_c, 14, 45, 0
16, 98414, Note_on_c, 14, 45, 97
16, 98459, Note_on_c, 14, 45, 0
16, 98474, Note_on_c, 14, 45, 97
16, 98519, Note_on_c, 14, 45, 0
16, 98534, Note_on_c, 14, 45, 97
16, 98579, Note_on_c, 14, 45, 0
16, 98594, Note_on_c, 14, 45, 97
16, 98639, Note_on_c, 14, 45, 0
16, 98654, Note_on_c, 14, 45, 97
16, 98699, Note_on_c, 14, 45, 0
16, 98714, Note_on_c, 14, 45, 97
16, 98759, Note_on_c, 14, 45, 0
16, 98774, Note_on_c, 14, 45, 97
16, 98819, Note_on_c, 14, 45, 0
16, 98834, Note_on_c, 14, 45, 97
16, 98879, Note_on_c, 14, 45, 0
16, 98894, Note_on_c, 14, 45, 97
16, 99239, Note_on_c, 14, 45, 0
16, 99254, Control_c, 14, 11, 122
16, 99254, Note_on_c, 14, 46, 97
16, 99271, Control_c, 14, 11, 119
16, 99289, Control_c, 14, 11, 116
16, 99307, Control_c, 14, 11, 113
16, 99325, Control_c, 14, 11, 110
16, 99343, Control_c, 14, 11, 107
16, 99359, Note_on_c, 14, 46, 0
16, 99361, Control_c, 14, 11, 104
16, 99374, Note_on_c, 14, 45, 97
16, 99719, Note_on_c, 14, 45, 0
16, 99734, Control_c, 14, 11, 122
16, 99734, Note_on_c, 14, 46, 97
16, 99751, Control_c, 14, 11, 119
16, 99769, Control_c, 14, 11, 116
16, 99787, Control_c, 14, 11, 113
16, 99805, Control_c, 14, 11, 110
16, 99823, Control_c, 14, 11, 107
16, 99839, Note_on_c, 14, 46, 0
16, 99841, Control_c, 14, 11, 104
16, 99854, Note_on_c, 14, 45, 97
16, 99959, Note_on_c, 14, 45, 0
16, 99974, Control_c, 14, 11, 122
16, 99974, Note_on_c, 14, 46, 97
16, 99991, Control_c, 14, 11, 119
16, 100009, Control_c, 14, 11, 116
16, 100027, Control_c, 14, 11, 113
16, 100045, Control_c, 14, 11, 110
16, 100063, Control_c, 14, 11, 107
16, 100079, Note_on_c, 14, 46, 0
16, 100081, Control_c, 14, 11, 104
16, 100094, Note_on_c, 14, 45, 97
16, 100199, Note_on_c, 14, 45, 0
16, 100214, Control_c, 14, 11, 122
16, 100214, Note_on_c, 14, 46, 97
16, 100231, Control_c, 14, 11, 119
16, 100249, Control_c, 14, 11, 116
16, 100267, Control_c, 14, 11, 113
16, 100285, Control_c, 14, 11, 110
16, 100303, Control_c, 14, 11, 107
16, 100319, Note_on_c, 14, 46, 0
16, 100321, Control_c, 14, 11, 104
16, 100334, Note_on_c, 14, 45, 97
16, 100439, Note_on_c, 14, 45, 0
16, 100454, Control_c, 14, 11, 122
16, 100454, Note_on_c, 14, 46, 97
16, 100471, Control_c, 14, 11, 119
16, 100489, Control_c, 14, 11, 116
16, 100507, Control_c, 14, 11, 113
16, 100525, Control_c, 14, 11, 110
16, 100543, Control_c, 14, 11, 107
16, 100559, Note_on_c, 14, 46, 0
16, 100561, Control_c, 14, 11, 104
16, 100574, Note_on_c, 14, 45, 97
16, 100679, Note_on_c, 14, 45, 0
16, 100694, Control_c, 14, 11, 122
16, 100694, Note_on_c, 14, 42, 97
16, 100711, Control_c, 14, 11, 119
16, 100729, Control_c, 14, 11, 116
16, 100747, Control_c, 14, 11, 113
16, 100765, Control_c, 14, 11, 110
16, 100783, Control_c, 14, 11, 107
16, 100799, Note_on_c, 14, 42, 0
16, 100801, Control_c, 14, 11, 104
16, 100814, Note_on_c, 14, 43, 97
16, 100919, Note_on_c, 14, 43, 0
16, 100934, Control_c, 14, 11, 122
16, 100934, Note_on_c, 14, 40, 97
16, 100951, Control_c, 14, 11, 119
16, 100969, Control_c, 14, 11, 116
16, 100987, Control_c, 14, 11, 113
16, 101005, Control_c, 14, 11, 110
16, 101023, Control_c, 14, 11, 107
16, 101039, Note_on_c, 14, 40, 0
16, 101041, Control_c, 14, 11, 104
16, 101054, Note_on_c, 14, 41, 97
16, 101159, Note_on_c, 14, 41, 0
16, 101174, Control_c, 14, 11, 122
16, 101174, Note_on_c, 14, 38, 97
16, 101191, Control_c, 14, 11, 119
16, 101209, Control_c, 14, 11, 116
16, 101227, Control_c, 14, 11, 113
16, 101245, Control_c, 14, 11, 110
16, 101263, Control_c, 14, 11, 107
16, 101279, Note_on_c, 14, 38, 0
16, 101281, Control_c, 14, 11, 104
16, 101294, Note_on_c, 14, 43, 97
16, 101399, Note_on_c, 14, 43, 0
16, 101414, Control_c, 14, 11, 122
16, 101414, Note_on_c, 14, 31, 97
16, 101431, Control_c, 14, 11, 119
16, 101449, Control_c, 14, 11, 116
16, 101467, Control_c, 14, 11, 113
16, 101485, Control_c, 14, 11, 110
16, 101503, Control_c, 14, 11, 107
16, 101519, Note_on_c, 14, 31, 0
16, 101521, Control_c, 14, 11, 104
16, 101534, Note_on_c, 14, 43, 97
16, 101639, Note_on_c, 14, 43, 0
16, 101654, Control_c, 14, 11, 122
16, 101654, Note_on_c, 14, 31, 97
16, 101671, Control_c, 14, 11, 119
16, 101689, Control_c, 14, 11, 116
16, 101707, Control_c, 14, 11, 113
16, 101725, Control_c, 14, 11, 110
16, 101743, Control_c, 14, 11, 107
16, 101759, Note_on_c, 14, 31, 0
16, 101761, Control_c, 14, 11, 104
16, 101774, Note_on_c, 14, 36, 97
16, 101894, Note_on_c, 14, 36, 0
16, 102134, Control_c, 14, 11, 87
16, 102134, Note_on_c, 14, 36, 97
16, 102374, Note_on_c, 14, 36, 0
16, 102614, Note_on_c, 14, 36, 97
16, 102854, Note_on_c, 14, 36, 0
16, 103094, Note_on_c, 14, 36, 97
16, 103334, Note_on_c, 14, 36, 0
16, 103574, Note_on_c, 14, 36, 97
16, 103799, Note_on_c, 14, 36, 0
16, 103814, Note_on_c, 14, 36, 97
16, 103859, Note_on_c, 14, 36, 0
16, 103874, Note_on_c, 14, 36, 97
16, 103919, Note_on_c, 14, 36, 0
16, 103934, Note_on_c, 14, 36, 97
16, 104054, Note_on_c, 14, 36, 0
16, 104174, Note_on_c, 14, 36, 97
16, 104279, Note_on_c, 14, 36, 0
16, 104294, Note_on_c, 14, 36, 97
16, 104339, Note_on_c, 14, 36, 0
16, 104354, Note_on_c, 14, 36, 97
16, 104399, Note_on_c, 14, 36, 0
16, 104414, Note_on_c, 14, 36, 97
16, 104534, Note_on_c, 14, 36, 0
16, 104654, Note_on_c, 14, 36, 97
16, 104759, Note_on_c, 14, 36, 0
16, 104774, Note_on_c, 14, 36, 97
16, 104819, Note_on_c, 14, 36, 0
16, 104834, Note_on_c, 14, 36, 97
16, 104879, Note_on_c, 14, 36, 0
16, 104894, Note_on_c, 14, 36, 97
16, 104999, Note_on_c, 14, 36, 0
16, 105014, Note_on_c, 14, 36, 97
16, 105059, Note_on_c, 14, 36, 0
16, 105074, Note_on_c, 14, 36, 97
16, 105119, Note_on_c, 14, 36, 0
16, 105134, Note_on_c, 14, 36, 97
16, 105239, Note_on_c, 14, 36, 0
16, 105254, Note_on_c, 14, 36, 97
16, 105299, Note_on_c, 14, 36, 0
16, 105314, Note_on_c, 14, 36, 97
16, 105359, Note_on_c, 14, 36, 0
16, 105374, Note_on_c, 14, 36, 97
16, 105479, Note_on_c, 14, 36, 0
16, 105494, Note_on_c, 14, 36, 97
16, 105539, Note_on_c, 14, 36, 0
16, 105554, Note_on_c, 14, 36, 97
16, 105599, Note_on_c, 14, 36, 0
16, 105614, Note_on_c, 14, 36, 97
16, 105719, Note_on_c, 14, 36, 0
16, 105734, Note_on_c, 14, 36, 97
16, 105779, Note_on_c, 14, 36, 0
16, 105794, Note_on_c, 14, 36, 97
16, 105839, Note_on_c, 14, 36, 0
16, 105854, Note_on_c, 14, 36, 97
16, 105959, Note_on_c, 14, 36, 0
16, 105974, Note_on_c, 14, 36, 97
16, 106019, Note_on_c, 14, 36, 0
16, 106034, Note_on_c, 14, 36, 97
16, 106079, Note_on_c, 14, 36, 0
16, 106094, Note_on_c, 14, 36, 97
16, 106199, Note_on_c, 14, 36, 0
16, 106214, Note_on_c, 14, 36, 97
16, 106259, Note_on_c, 14, 36, 0
16, 106274, Note_on_c, 14, 36, 97
16, 106319, Note_on_c, 14, 36, 0
16, 106334, Note_on_c, 14, 36, 97
16, 106439, Note_on_c, 14, 36, 0
16, 106454, Note_on_c, 14, 36, 97
16, 106499, Note_on_c, 14, 36, 0
16, 106514, Note_on_c, 14, 36, 97
16, 106559, Note_on_c, 14, 36, 0
16, 106574, Note_on_c, 14, 35, 97
16, 106694, Note_on_c, 14, 35, 0
16, 106934, Note_on_c, 14, 35, 97
16, 107174, Note_on_c, 14, 35, 0
16, 107414, Note_on_c, 14, 35, 97
16, 107654, Note_on_c, 14, 35, 0
16, 107894, Note_on_c, 14, 35, 97
16, 108134, Note_on_c, 14, 35, 0
16, 108374, Note_on_c, 14, 35, 97
16, 108599, Note_on_c, 14, 35, 0
16, 108614, Note_on_c, 14, 35, 97
16, 108659, Note_on_c, 14, 35, 0
16, 108674, Note_on_c, 14, 35, 97
16, 108719, Note_on_c, 14, 35, 0
16, 108734, Note_on_c, 14, 35, 97
16, 108839, Note_on_c, 14, 35, 0
16, 108854, Note_on_c, 14, 35, 97
16, 108899, Note_on_c, 14, 35, 0
16, 108914, Note_on_c, 14, 35, 97
16, 108959, Note_on_c, 14, 35, 0
16, 108974, Note_on_c, 14, 35, 97
16, 109079, Note_on_c, 14, 35, 0
16, 109094, Note_on_c, 14, 35, 97
16, 109139, Note_on_c, 14, 35, 0
16, 109154, Note_on_c, 14, 35, 97
16, 109199, Note_on_c, 14, 35, 0
16, 109214, Note_on_c, 14, 35, 97
16, 109319, Note_on_c, 14, 35, 0
16, 109334, Note_on_c, 14, 35, 97
16, 109379, Note_on_c, 14, 35, 0
16, 109394, Note_on_c, 14, 35, 97
16, 109439, Note_on_c, 14, 35, 0
16, 109454, Note_on_c, 14, 35, 97
16, 109559, Note_on_c, 14, 35, 0
16, 109574, Note_on_c, 14, 35, 97
16, 109619, Note_on_c, 14, 35, 0
16, 109634, Note_on_c, 14, 35, 97
16, 109679, Note_on_c, 14, 35, 0
16, 109694, Note_on_c, 14, 35, 97
16, 109799, Note_on_c, 14, 35, 0
16, 109814, Note_on_c, 14, 35, 97
16, 109859, Note_on_c, 14, 35, 0
16, 109874, Note_on_c, 14, 35, 97
16, 109919, Note_on_c, 14, 35, 0
16, 109934, Note_on_c, 14, 35, 97
16, 110054, Note_on_c, 14, 35, 0
16, 110414, Control_c, 14, 11, 102
16, 110414, Note_on_c, 14, 40, 97
16, 110564, Note_on_c, 14, 40, 0
16, 110594, Note_on_c, 14, 35, 97
16, 110639, Note_on_c, 14, 35, 0
16, 110654, Note_on_c, 14, 35, 97
16, 110714, Note_on_c, 14, 35, 0
16, 110894, Control_c, 14, 11, 122
16, 110894, Note_on_c, 14, 44, 97
16, 110911, Control_c, 14, 11, 119
16, 110929, Control_c, 14, 11, 116
16, 110947, Control_c, 14, 11, 113
16, 110965, Control_c, 14, 11, 110
16, 110983, Control_c, 14, 11, 107
16, 111001, Control_c, 14, 11, 104
16, 111044, Note_on_c, 14, 44, 0
16, 111074, Note_on_c, 14, 40, 97
16, 111119, Note_on_c, 14, 40, 0
16, 111134, Note_on_c, 14, 40, 97
16, 111194, Note_on_c, 14, 40, 0
16, 111374, Control_c, 14, 11, 122
16, 111374, Note_on_c, 14, 47, 97
16, 111391, Control_c, 14, 11, 119
16, 111409, Control_c, 14, 11, 116
16, 111427, Control_c, 14, 11, 113
16, 111445, Control_c, 14, 11, 110
16, 111463, Control_c, 14, 11, 107
16, 111481, Control_c, 14, 11, 104
16, 111524, Note_on_c, 14, 47, 0
16, 111554, Note_on_c, 14, 44, 97
16, 111599, Note_on_c, 14, 44, 0
16, 111614, Note_on_c, 14, 44, 97
16, 111674, Note_on_c, 14, 44, 0
16, 111734, Note_on_c, 14, 40, 97
16, 111794, Note_on_c, 14, 40, 0
16, 111854, Note_on_c, 14, 35, 97
16, 111914, Note_on_c, 14, 35, 0
16, 119054, Control_c, 14, 11, 87
16, 119054, Note_on_c, 14, 36, 97
16, 119204, Note_on_c, 14, 36, 0
16, 119234, Note_on_c, 14, 35, 97
16, 119279, Note_on_c, 14, 35, 0
16, 119294, Note_on_c, 14, 35, 97
16, 119414, Note_on_c, 14, 35, 0
16, 119534, Note_on_c, 14, 36, 97
16, 119684, Note_on_c, 14, 36, 0
16, 119714, Note_on_c, 14, 35, 97
16, 119759, Note_on_c, 14, 35, 0
16, 119774, Note_on_c, 14, 35, 97
16, 119894, Note_on_c, 14, 35, 0
16, 120014, Note_on_c, 14, 36, 97
16, 120074, Note_on_c, 14, 36, 0
16, 120134, Note_on_c, 14, 35, 97
16, 120194, Note_on_c, 14, 35, 0
16, 120254, Note_on_c, 14, 36, 97
16, 120314, Note_on_c, 14, 36, 0
16, 120374, Note_on_c, 14, 35, 97
16, 120434, Note_on_c, 14, 35, 0
16, 120494, Note_on_c, 14, 36, 97
16, 120554, Note_on_c, 14, 36, 0
16, 120614, Note_on_c, 14, 35, 97
16, 120674, Note_on_c, 14, 35, 0
16, 120734, Note_on_c, 14, 36, 97
16, 120794, Note_on_c, 14, 36, 0
16, 120854, Note_on_c, 14, 35, 97
16, 120914, Note_on_c, 14, 35, 0
16, 120974, Note_on_c, 14, 40, 97
16, 121034, Note_on_c, 14, 40, 0
16, 121094, Note_on_c, 14, 39, 97
16, 121154, Note_on_c, 14, 39, 0
16, 121214, Note_on_c, 14, 40, 97
16, 121274, Note_on_c, 14, 40, 0
16, 121334, Note_on_c, 14, 39, 97
16, 121394, Note_on_c, 14, 39, 0
16, 121454, Note_on_c, 14, 40, 97
16, 121514, Note_on_c, 14, 40, 0
16, 121574, Note_on_c, 14, 39, 97
16, 121634, Note_on_c, 14, 39, 0
16, 121694, Note_on_c, 14, 40, 97
16, 121754, Note_on_c, 14, 40, 0
16, 121814, Note_on_c, 14, 39, 97
16, 121874, Note_on_c, 14, 39, 0
16, 121934, Note_on_c, 14, 48, 97
16, 121994, Note_on_c, 14, 48, 0
16, 122054, Note_on_c, 14, 47, 97
16, 122114, Note_on_c, 14, 47, 0
16, 122174, Note_on_c, 14, 52, 97
16, 122234, Note_on_c, 14, 52, 0
16, 122294, Note_on_c, 14, 51, 97
16, 122354, Note_on_c, 14, 51, 0
16, 122414, Note_on_c, 14, 48, 97
16, 122474, Note_on_c, 14, 48, 0
16, 122534, Note_on_c, 14, 47, 97
16, 122594, Note_on_c, 14, 47, 0
16, 122654, Note_on_c, 14, 49, 97
16, 122714, Note_on_c, 14, 49, 0
16, 122774, Note_on_c, 14, 47, 97
16, 122834, Note_on_c, 14, 47, 0
16, 122894, Note_on_c, 14, 49, 97
16, 122954, Note_on_c, 14, 49, 0
16, 123014, Note_on_c, 14, 47, 97
16, 123074, Note_on_c, 14, 47, 0
16, 123134, Note_on_c, 14, 49, 97
16, 123194, Note_on_c, 14, 49, 0
16, 123254, Note_on_c, 14, 47, 97
16, 123314, Note_on_c, 14, 47, 0
16, 123374, Note_on_c, 14, 49, 97
16, 123434, Note_on_c, 14, 49, 0
16, 123494, Note_on_c, 14, 47, 97
16, 123554, Note_on_c, 14, 47, 0
16, 123614, Note_on_c, 14, 49, 97
16, 123674, Note_on_c, 14, 49, 0
16, 123734, Note_on_c, 14, 47, 97
16, 123794, Note_on_c, 14, 47, 0
16, 123854, Note_on_c, 14, 40, 97
16, 124019, Note_on_c, 14, 40, 0
16, 124034, Note_on_c, 14, 35, 97
16, 124079, Note_on_c, 14, 35, 0
16, 124094, Note_on_c, 14, 35, 97
16, 124214, Note_on_c, 14, 35, 0
16, 124334, Control_c, 14, 11, 107
16, 124334, Note_on_c, 14, 40, 97
16, 124352, Control_c, 14, 11, 105
16, 124370, Control_c, 14, 11, 103
16, 124388, Control_c, 14, 11, 101
16, 124406, Control_c, 14, 11, 99
16, 124424, Control_c, 14, 11, 97
16, 124442, Control_c, 14, 11, 95
16, 124460, Control_c, 14, 11, 93
16, 124478, Control_c, 14, 11, 91
16, 124496, Control_c, 14, 11, 89
16, 124499, Note_on_c, 14, 40, 0
16, 124514, Control_c, 14, 11, 87
16, 124514, Note_on_c, 14, 35, 97
16, 124559, Note_on_c, 14, 35, 0
16, 124574, Note_on_c, 14, 35, 97
16, 124694, Note_on_c, 14, 35, 0
16, 124814, Control_c, 14, 11, 107
16, 124814, Note_on_c, 14, 42, 97
16, 124832, Control_c, 14, 11, 105
16, 124850, Control_c, 14, 11, 103
16, 124868, Control_c, 14, 11, 101
16, 124886, Control_c, 14, 11, 99
16, 124904, Control_c, 14, 11, 97
16, 124922, Control_c, 14, 11, 95
16, 124940, Control_c, 14, 11, 93
16, 124958, Control_c, 14, 11, 91
16, 124976, Control_c, 14, 11, 89
16, 124979, Note_on_c, 14, 42, 0
16, 124994, Control_c, 14, 11, 87
16, 124994, Note_on_c, 14, 35, 97
16, 125039, Note_on_c, 14, 35, 0
16, 125054, Note_on_c, 14, 35, 97
16, 125174, Note_on_c, 14, 35, 0
16, 125294, Control_c, 14, 11, 107
16, 125294, Note_on_c, 14, 47, 97
16, 125312, Control_c, 14, 11, 105
16, 125330, Control_c, 14, 11, 103
16, 125348, Control_c, 14, 11, 101
16, 125366, Control_c, 14, 11, 99
16, 125384, Control_c, 14, 11, 97
16, 125402, Control_c, 14, 11, 95
16, 125420, Control_c, 14, 11, 93
16, 125438, Control_c, 14, 11, 91
16, 125456, Control_c, 14, 11, 89
16, 125459, Note_on_c, 14, 47, 0
16, 125474, Control_c, 14, 11, 87
16, 125474, Note_on_c, 14, 35, 97
16, 125519, Note_on_c, 14, 35, 0
16, 125534, Note_on_c, 14, 35, 97
16, 125654, Note_on_c, 14, 35, 0
16, 125774, Control_c, 14, 11, 47
16, 125774, Note_on_c, 14, 40, 97
16, 125939, Note_on_c, 14, 40, 0
16, 125954, Note_on_c, 14, 35, 97
16, 125999, Note_on_c, 14, 35, 0
16, 126014, Note_on_c, 14, 35, 97
16, 126134, Note_on_c, 14, 35, 0
16, 126254, Note_on_c, 14, 40, 97
16, 126419, Note_on_c, 14, 40, 0
16, 126434, Note_on_c, 14, 35, 97
16, 126479, Note_on_c, 14, 35, 0
16, 126494, Note_on_c, 14, 35, 97
16, 126614, Note_on_c, 14, 35, 0
16, 126734, Note_on_c, 14, 42, 97
16, 126899, Note_on_c, 14, 42, 0
16, 126914, Note_on_c, 14, 35, 97
16, 126959, Note_on_c, 14, 35, 0
16, 126974, Note_on_c, 14, 35, 97
16, 127094, Note_on_c, 14, 35, 0
16, 127214, Note_on_c, 14, 47, 97
16, 127379, Note_on_c, 14, 47, 0
16, 127394, Note_on_c, 14, 35, 97
16, 127439, Note_on_c, 14, 35, 0
16, 127454, Note_on_c, 14, 35, 97
16, 127574, Note_on_c, 14, 35, 0
16, 127694, Control_c, 14, 11, 47
16, 127694, Note_on_c, 14, 52, 97
16, 127790, Control_c, 14, 11, 48
16, 127859, Note_on_c, 14, 52, 0
16, 127874, Note_on_c, 14, 40, 97
16, 127886, Control_c, 14, 11, 49
16, 127919, Note_on_c, 14, 40, 0
16, 127934, Note_on_c, 14, 40, 97
16, 127982, Control_c, 14, 11, 50
16, 128054, Note_on_c, 14, 40, 0
16, 128078, Control_c, 14, 11, 51
16, 128174, Control_c, 14, 11, 52
16, 128174, Note_on_c, 14, 52, 97
16, 128270, Control_c, 14, 11, 53
16, 128339, Note_on_c, 14, 52, 0
16, 128354, Note_on_c, 14, 40, 97
16, 128366, Control_c, 14, 11, 54
16, 128399, Note_on_c, 14, 40, 0
16, 128414, Note_on_c, 14, 40, 97
16, 128462, Control_c, 14, 11, 55
16, 128534, Note_on_c, 14, 40, 0
16, 128558, Control_c, 14, 11, 56
16, 128654, Control_c, 14, 11, 57
16, 128654, Note_on_c, 14, 52, 97
16, 128750, Control_c, 14, 11, 58
16, 128819, Note_on_c, 14, 52, 0
16, 128834, Note_on_c, 14, 40, 97
16, 128846, Control_c, 14, 11, 59
16, 128879, Note_on_c, 14, 40, 0
16, 128894, Note_on_c, 14, 40, 97
16, 128942, Control_c, 14, 11, 60
16, 129014, Note_on_c, 14, 40, 0
16, 129038, Control_c, 14, 11, 61
16, 129134, Control_c, 14, 11, 62
16, 129134, Note_on_c, 14, 52, 97
16, 129230, Control_c, 14, 11, 63
16, 129299, Note_on_c, 14, 52, 0
16, 129314, Note_on_c, 14, 40, 97
16, 129326, Control_c, 14, 11, 64
16, 129359, Note_on_c, 14, 40, 0
16, 129374, Note_on_c, 14, 40, 97
16, 129422, Control_c, 14, 11, 65
16, 129494, Note_on_c, 14, 40, 0
16, 129518, Control_c, 14, 11, 66
16, 129614, Control_c, 14, 11, 67
16, 129614, Note_on_c, 14, 52, 97
16, 129710, Control_c, 14, 11, 68
16, 129779, Note_on_c, 14, 52, 0
16, 129794, Note_on_c, 14, 40, 97
16, 129806, Control_c, 14, 11, 69
16, 129839, Note_on_c, 14, 40, 0
16, 129854, Note_on_c, 14, 40, 97
16, 129902, Control_c, 14, 11, 70
16, 129974, Note_on_c, 14, 40, 0
16, 129998, Control_c, 14, 11, 71
16, 130094, Control_c, 14, 11, 72
16, 130094, Note_on_c, 14, 52, 97
16, 130190, Control_c, 14, 11, 73
16, 130259, Note_on_c, 14, 52, 0
16, 130274, Note_on_c, 14, 40, 97
16, 130286, Control_c, 14, 11, 74
16, 130319, Note_on_c, 14, 40, 0
16, 130334, Note_on_c, 14, 40, 97
16, 130382, Control_c, 14, 11, 75
16, 130454, Note_on_c, 14, 40, 0
16, 130478, Control_c, 14, 11, 76
16, 130574, Control_c, 14, 11, 77
16, 130574, Note_on_c, 14, 52, 97
16, 130670, Control_c, 14, 11, 78
16, 130739, Note_on_c, 14, 52, 0
16, 130754, Note_on_c, 14, 40, 97
16, 130766, Control_c, 14, 11, 79
16, 130799, Note_on_c, 14, 40, 0
16, 130814, Note_on_c, 14, 40, 97
16, 130862, Control_c, 14, 11, 80
16, 130934, Note_on_c, 14, 40, 0
16, 130958, Control_c, 14, 11, 81
16, 131054, Control_c, 14, 11, 82
16, 131054, Note_on_c, 14, 52, 97
16, 131150, Control_c, 14, 11, 83
16, 131219, Note_on_c, 14, 52, 0
16, 131234, Note_on_c, 14, 40, 97
16, 131246, Control_c, 14, 11, 84
16, 131279, Note_on_c, 14, 40, 0
16, 131294, Note_on_c, 14, 40, 97
16, 131342, Control_c, 14, 11, 85
16, 131414, Note_on_c, 14, 40, 0
16, 131438, Control_c, 14, 11, 86
16, 131534, Control_c, 14, 11, 87
16, 131534, Note_on_c, 14, 52, 97
16, 131699, Note_on_c, 14, 52, 0
16, 131714, Note_on_c, 14, 40, 97
16, 131759, Note_on_c, 14, 40, 0
16, 131774, Note_on_c, 14, 40, 97
16, 131894, Note_on_c, 14, 40, 0
16, 132014, Note_on_c, 14, 52, 97
16, 132179, Note_on_c, 14, 52, 0
16, 132194, Note_on_c, 14, 40, 97
16, 132239, Note_on_c, 14, 40, 0
16, 132254, Note_on_c, 14, 40, 97
16, 132374, Note_on_c, 14, 40, 0
16, 132494, Control_c, 14, 11, 87
16, 132494, Note_on_c, 14, 52, 97
16, 132542, Control_c, 14, 11, 88
16, 132590, Control_c, 14, 11, 89
16, 132638, Control_c, 14, 11, 90
16, 132659, Note_on_c, 14, 52, 0
16, 132674, Note_on_c, 14, 40, 97
16, 132686, Control_c, 14, 11, 91
16, 132719, Note_on_c, 14, 40, 0
16, 132734, Control_c, 14, 11, 92
16, 132734, Note_on_c, 14, 40, 97
16, 132782, Control_c, 14, 11, 93
16, 132830, Control_c, 14, 11, 94
16, 132854, Note_on_c, 14, 40, 0
16, 132878, Control_c, 14, 11, 95
16, 132926, Control_c, 14, 11, 96
16, 132974, Control_c, 14, 11, 97
16, 132974, Note_on_c, 14, 52, 97
16, 133022, Control_c, 14, 11, 98
16, 133070, Control_c, 14, 11, 99
16, 133118, Control_c, 14, 11, 100
16, 133139, Note_on_c, 14, 52, 0
16, 133154, Note_on_c, 14, 40, 97
16, 133166, Control_c, 14, 11, 101
16, 133199, Note_on_c, 14, 40, 0
16, 133214, Control_c, 14, 11, 102
16, 133214, Note_on_c, 14, 40, 97
16, 133262, Control_c, 14, 11, 103
16, 133310, Control_c, 14, 11, 104
16, 133334, Note_on_c, 14, 40, 0
16, 133358, Control_c, 14, 11, 105
16, 133406, Control_c, 14, 11, 106
16, 133454, Control_c, 14, 11, 107
16, 133454, Note_on_c, 14, 40, 97
16, 133499, Note_on_c, 14, 40, 0
16, 133514, Note_on_c, 14, 40, 97
16, 133559, Note_on_c, 14, 40, 0
16, 133574, Note_on_c, 14, 40, 97
16, 133619, Note_on_c, 14, 40, 0
16, 133634, Note_on_c, 14, 40, 97
16, 133679, Note_on_c, 14, 40, 0
16, 133694, Note_on_c, 14, 40, 97
16, 133739, Note_on_c, 14, 40, 0
16, 133754, Note_on_c, 14, 40, 97
16, 133799, Note_on_c, 14, 40, 0
16, 133814, Note_on_c, 14, 40, 97
16, 133859, Note_on_c, 14, 40, 0
16, 133874, Note_on_c, 14, 40, 97
16, 133919, Note_on_c, 14, 40, 0
16, 133934, Note_on_c, 14, 40, 97
16, 133979, Note_on_c, 14, 40, 0
16, 133994, Note_on_c, 14, 40, 97
16, 134039, Note_on_c, 14, 40, 0
16, 134054, Note_on_c, 14, 40, 97
16, 134099, Note_on_c, 14, 40, 0
16, 134114, Note_on_c, 14, 40, 97
16, 134159, Note_on_c, 14, 40, 0
16, 134174, Note_on_c, 14, 40, 97
16, 134219, Note_on_c, 14, 40, 0
16, 134234, Note_on_c, 14, 40, 97
16, 134279, Note_on_c, 14, 40, 0
16, 134294, Note_on_c, 14, 40, 97
16, 134339, Note_on_c, 14, 40, 0
16, 134354, Note_on_c, 14, 40, 97
16, 134399, Note_on_c, 14, 40, 0
16, 134414, Note_on_c, 14, 40, 97
16, 134459, Note_on_c, 14, 40, 0
16, 134474, Note_on_c, 14, 40, 97
16, 134519, Note_on_c, 14, 40, 0
16, 134534, Note_on_c, 14, 40, 97
16, 134579, Note_on_c, 14, 40, 0
16, 134594, Note_on_c, 14, 40, 97
16, 134639, Note_on_c, 14, 40, 0
16, 134654, Note_on_c, 14, 40, 97
16, 134699, Note_on_c, 14, 40, 0
16, 134714, Note_on_c, 14, 40, 97
16, 134759, Note_on_c, 14, 40, 0
16, 134774, Note_on_c, 14, 40, 97
16, 134819, Note_on_c, 14, 40, 0
16, 134834, Note_on_c, 14, 40, 97
16, 134879, Note_on_c, 14, 40, 0
16, 134894, Note_on_c, 14, 40, 97
16, 134939, Note_on_c, 14, 40, 0
16, 134954, Note_on_c, 14, 40, 97
16, 134999, Note_on_c, 14, 40, 0
16, 135014, Note_on_c, 14, 40, 97
16, 135059, Note_on_c, 14, 40, 0
16, 135074, Note_on_c, 14, 40, 97
16, 135119, Note_on_c, 14, 40, 0
16, 135134, Note_on_c, 14, 40, 97
16, 135179, Note_on_c, 14, 40, 0
16, 135194, Note_on_c, 14, 40, 97
16, 135239, Note_on_c, 14, 40, 0
16, 135254, Note_on_c, 14, 40, 97
16, 135299, Note_on_c, 14, 40, 0
16, 135314, Note_on_c, 14, 40, 97
16, 135359, Note_on_c, 14, 40, 0
16, 135374, Control_c, 14, 11, 127
16, 135374, Note_on_c, 14, 52, 97
16, 135391, Control_c, 14, 11, 125
16, 135409, Control_c, 14, 11, 123
16, 135427, Control_c, 14, 11, 121
16, 135445, Control_c, 14, 11, 119
16, 135463, Control_c, 14, 11, 117
16, 135479, Note_on_c, 14, 52, 0
16, 135481, Control_c, 14, 11, 115
16, 135494, Note_on_c, 14, 51, 97
16, 135499, Control_c, 14, 11, 113
16, 135517, Control_c, 14, 11, 111
16, 135535, Control_c, 14, 11, 109
16, 135553, Control_c, 14, 11, 107
16, 135599, Note_on_c, 14, 51, 0
16, 135614, Control_c, 14, 11, 127
16, 135614, Note_on_c, 14, 49, 97
16, 135631, Control_c, 14, 11, 125
16, 135649, Control_c, 14, 11, 123
16, 135667, Control_c, 14, 11, 121
16, 135685, Control_c, 14, 11, 119
16, 135703, Control_c, 14, 11, 117
16, 135719, Note_on_c, 14, 49, 0
16, 135721, Control_c, 14, 11, 115
16, 135734, Note_on_c, 14, 47, 97
16, 135739, Control_c, 14, 11, 113
16, 135757, Control_c, 14, 11, 111
16, 135775, Control_c, 14, 11, 109
16, 135793, Control_c, 14, 11, 107
16, 135839, Note_on_c, 14, 47, 0
16, 135854, Control_c, 14, 11, 127
16, 135854, Note_on_c, 14, 45, 97
16, 135871, Control_c, 14, 11, 125
16, 135889, Control_c, 14, 11, 123
16, 135907, Control_c, 14, 11, 121
16, 135925, Control_c, 14, 11, 119
16, 135943, Control_c, 14, 11, 117
16, 135959, Note_on_c, 14, 45, 0
16, 135961, Control_c, 14, 11, 115
16, 135974, Note_on_c, 14, 44, 97
16, 135979, Control_c, 14, 11, 113
16, 135997, Control_c, 14, 11, 111
16, 136015, Control_c, 14, 11, 109
16, 136033, Control_c, 14, 11, 107
16, 136079, Note_on_c, 14, 44, 0
16, 136094, Control_c, 14, 11, 127
16, 136094, Note_on_c, 14, 42, 97
16, 136111, Control_c, 14, 11, 125
16, 136129, Control_c, 14, 11, 123
16, 136147, Control_c, 14, 11, 121
16, 136165, Control_c, 14, 11, 119
16, 136183, Control_c, 14, 11, 117
16, 136199, Note_on_c, 14, 42, 0
16, 136201, Control_c, 14, 11, 115
16, 136214, Note_on_c, 14, 40, 97
16, 136219, Control_c, 14, 11, 113
16, 136237, Control_c, 14, 11, 111
16, 136255, Control_c, 14, 11, 109
16, 136273, Control_c, 14, 11, 107
16, 136319, Note_on_c, 14, 40, 0
16, 136334, Control_c, 14, 11, 127
16, 136334, Note_on_c, 14, 39, 97
16, 136351, Control_c, 14, 11, 125
16, 136369, Control_c, 14, 11, 123
16, 136387, Control_c, 14, 11, 121
16, 136405, Control_c, 14, 11, 119
16, 136423, Control_c, 14, 11, 117
16, 136439, Note_on_c, 14, 39, 0
16, 136441, Control_c, 14, 11, 115
16, 136454, Note_on_c, 14, 38, 97
16, 136459, Control_c, 14, 11, 113
16, 136477, Control_c, 14, 11, 111
16, 136495, Control_c, 14, 11, 109
16, 136513, Control_c, 14, 11, 107
16, 136559, Note_on_c, 14, 38, 0
16, 136574, Control_c, 14, 11, 127
16, 136574, Note_on_c, 14, 37, 97
16, 136591, Control_c, 14, 11, 125
16, 136609, Control_c, 14, 11, 123
16, 136627, Control_c, 14, 11, 121
16, 136645, Control_c, 14, 11, 119
16, 136663, Control_c, 14, 11, 117
16, 136679, Note_on_c, 14, 37, 0
16, 136681, Control_c, 14, 11, 115
16, 136694, Note_on_c, 14, 36, 97
16, 136699, Control_c, 14, 11, 113
16, 136717, Control_c, 14, 11, 111
16, 136735, Control_c, 14, 11, 109
16, 136753, Control_c, 14, 11, 107
16, 136799, Note_on_c, 14, 36, 0
16, 136814, Control_c, 14, 11, 127
16, 136814, Note_on_c, 14, 35, 97
16, 136831, Control_c, 14, 11, 125
16, 136849, Control_c, 14, 11, 123
16, 136867, Control_c, 14, 11, 121
16, 136885, Control_c, 14, 11, 119
16, 136903, Control_c, 14, 11, 117
16, 136919, Note_on_c, 14, 35, 0
16, 136921, Control_c, 14, 11, 115
16, 136934, Note_on_c, 14, 46, 97
16, 136939, Control_c, 14, 11, 113
16, 136957, Control_c, 14, 11, 111
16, 136975, Control_c, 14, 11, 109
16, 136993, Control_c, 14, 11, 107
16, 137039, Note_on_c, 14, 46, 0
16, 137054, Control_c, 14, 11, 127
16, 137054, Note_on_c, 14, 45, 97
16, 137071, Control_c, 14, 11, 125
16, 137089, Control_c, 14, 11, 123
16, 137107, Control_c, 14, 11, 121
16, 137125, Control_c, 14, 11, 119
16, 137143, Control_c, 14, 11, 117
16, 137159, Note_on_c, 14, 45, 0
16, 137161, Control_c, 14, 11, 115
16, 137174, Note_on_c, 14, 44, 97
16, 137179, Control_c, 14, 11, 113
16, 137197, Control_c, 14, 11, 111
16, 137215, Control_c, 14, 11, 109
16, 137233, Control_c, 14, 11, 107
16, 137279, Note_on_c, 14, 44, 0
16, 137294, Control_c, 14, 11, 127
16, 137294, Note_on_c, 14, 42, 97
16, 137311, Control_c, 14, 11, 125
16, 137329, Control_c, 14, 11, 123
16, 137347, Control_c, 14, 11, 121
16, 137365, Control_c, 14, 11, 119
16, 137383, Control_c, 14, 11, 117
16, 137399, Note_on_c, 14, 42, 0
16, 137401, Control_c, 14, 11, 115
16, 137414, Note_on_c, 14, 40, 97
16, 137419, Control_c, 14, 11, 113
16, 137437, Control_c, 14, 11, 111
16, 137455, Control_c, 14, 11, 109
16, 137473, Control_c, 14, 11, 107
16, 137519, Note_on_c, 14, 40, 0
16, 137534, Control_c, 14, 11, 127
16, 137534, Note_on_c, 14, 39, 97
16, 137551, Control_c, 14, 11, 125
16, 137569, Control_c, 14, 11, 123
16, 137587, Control_c, 14, 11, 121
16, 137605, Control_c, 14, 11, 119
16, 137623, Control_c, 14, 11, 117
16, 137639, Note_on_c, 14, 39, 0
16, 137641, Control_c, 14, 11, 115
16, 137654, Note_on_c, 14, 37, 97
16, 137659, Control_c, 14, 11, 113
16, 137677, Control_c, 14, 11, 111
16, 137695, Control_c, 14, 11, 109
16, 137713, Control_c, 14, 11, 107
16, 137759, Note_on_c, 14, 37, 0
16, 137774, Control_c, 14, 11, 127
16, 137774, Note_on_c, 14, 35, 97
16, 137791, Control_c, 14, 11, 125
16, 137809, Control_c, 14, 11, 123
16, 137827, Control_c, 14, 11, 121
16, 137845, Control_c, 14, 11, 119
16, 137863, Control_c, 14, 11, 117
16, 137879, Note_on_c, 14, 35, 0
16, 137881, Control_c, 14, 11, 115
16, 137894, Note_on_c, 14, 35, 97
16, 137899, Control_c, 14, 11, 113
16, 137917, Control_c, 14, 11, 111
16, 137935, Control_c, 14, 11, 109
16, 137953, Control_c, 14, 11, 107
16, 137999, Note_on_c, 14, 35, 0
16, 138014, Control_c, 14, 11, 127
16, 138014, Note_on_c, 14, 35, 97
16, 138031, Control_c, 14, 11, 125
16, 138049, Control_c, 14, 11, 123
16, 138067, Control_c, 14, 11, 121
16, 138085, Control_c, 14, 11, 119
16, 138103, Control_c, 14, 11, 117
16, 138119, Note_on_c, 14, 35, 0
16, 138121, Control_c, 14, 11, 115
16, 138134, Note_on_c, 14, 35, 97
16, 138139, Control_c, 14, 11, 113
16, 138157, Control_c, 14, 11, 111
16, 138175, Control_c, 14, 11, 109
16, 138193, Control_c, 14, 11, 107
16, 138239, Note_on_c, 14, 35, 0
16, 138254, Control_c, 14, 11, 127
16, 138254, Note_on_c, 14, 52, 97
16, 138271, Control_c, 14, 11, 125
16, 138289, Control_c, 14, 11, 123
16, 138307, Control_c, 14, 11, 121
16, 138325, Control_c, 14, 11, 119
16, 138343, Control_c, 14, 11, 117
16, 138359, Note_on_c, 14, 52, 0
16, 138361, Control_c, 14, 11, 115
16, 138374, Note_on_c, 14, 51, 97
16, 138379, Control_c, 14, 11, 113
16, 138397, Control_c, 14, 11, 111
16, 138415, Control_c, 14, 11, 109
16, 138433, Control_c, 14, 11, 107
16, 138479, Note_on_c, 14, 51, 0
16, 138494, Control_c, 14, 11, 127
16, 138494, Note_on_c, 14, 49, 97
16, 138511, Control_c, 14, 11, 125
16, 138529, Control_c, 14, 11, 123
16, 138547, Control_c, 14, 11, 121
16, 138565, Control_c, 14, 11, 119
16, 138583, Control_c, 14, 11, 117
16, 138599, Note_on_c, 14, 49, 0
16, 138601, Control_c, 14, 11, 115
16, 138614, Note_on_c, 14, 47, 97
16, 138619, Control_c, 14, 11, 113
16, 138637, Control_c, 14, 11, 111
16, 138655, Control_c, 14, 11, 109
16, 138673, Control_c, 14, 11, 107
16, 138719, Note_on_c, 14, 47, 0
16, 138734, Control_c, 14, 11, 127
16, 138734, Note_on_c, 14, 45, 97
16, 138751, Control_c, 14, 11, 125
16, 138769, Control_c, 14, 11, 123
16, 138787, Control_c, 14, 11, 121
16, 138805, Control_c, 14, 11, 119
16, 138823, Control_c, 14, 11, 117
16, 138839, Note_on_c, 14, 45, 0
16, 138841, Control_c, 14, 11, 115
16, 138854, Note_on_c, 14, 44, 97
16, 138859, Control_c, 14, 11, 113
16, 138877, Control_c, 14, 11, 111
16, 138895, Control_c, 14, 11, 109
16, 138913, Control_c, 14, 11, 107
16, 138959, Note_on_c, 14, 44, 0
16, 138974, Control_c, 14, 11, 127
16, 138974, Note_on_c, 14, 42, 97
16, 138991, Control_c, 14, 11, 125
16, 139009, Control_c, 14, 11, 123
16, 139027, Control_c, 14, 11, 121
16, 139045, Control_c, 14, 11, 119
16, 139063, Control_c, 14, 11, 117
16, 139079, Note_on_c, 14, 42, 0
16, 139081, Control_c, 14, 11, 115
16, 139094, Note_on_c, 14, 40, 97
16, 139099, Control_c, 14, 11, 113
16, 139117, Control_c, 14, 11, 111
16, 139135, Control_c, 14, 11, 109
16, 139153, Control_c, 14, 11, 107
16, 139199, Note_on_c, 14, 40, 0
16, 139214, Control_c, 14, 11, 127
16, 139214, Note_on_c, 14, 39, 97
16, 139231, Control_c, 14, 11, 125
16, 139249, Control_c, 14, 11, 123
16, 139267, Control_c, 14, 11, 121
16, 139285, Control_c, 14, 11, 119
16, 139303, Control_c, 14, 11, 117
16, 139319, Note_on_c, 14, 39, 0
16, 139321, Control_c, 14, 11, 115
16, 139334, Note_on_c, 14, 38, 97
16, 139339, Control_c, 14, 11, 113
16, 139357, Control_c, 14, 11, 111
16, 139375, Control_c, 14, 11, 109
16, 139393, Control_c, 14, 11, 107
16, 139439, Note_on_c, 14, 38, 0
16, 139454, Control_c, 14, 11, 127
16, 139454, Note_on_c, 14, 37, 97
16, 139471, Control_c, 14, 11, 125
16, 139489, Control_c, 14, 11, 123
16, 139507, Control_c, 14, 11, 121
16, 139525, Control_c, 14, 11, 119
16, 139543, Control_c, 14, 11, 117
16, 139559, Note_on_c, 14, 37, 0
16, 139561, Control_c, 14, 11, 115
16, 139574, Note_on_c, 14, 36, 97
16, 139579, Control_c, 14, 11, 113
16, 139597, Control_c, 14, 11, 111
16, 139615, Control_c, 14, 11, 109
16, 139633, Control_c, 14, 11, 107
16, 139679, Note_on_c, 14, 36, 0
16, 139694, Control_c, 14, 11, 127
16, 139694, Note_on_c, 14, 35, 97
16, 139711, Control_c, 14, 11, 125
16, 139729, Control_c, 14, 11, 123
16, 139747, Control_c, 14, 11, 121
16, 139765, Control_c, 14, 11, 119
16, 139783, Control_c, 14, 11, 117
16, 139799, Note_on_c, 14, 35, 0
16, 139801, Control_c, 14, 11, 115
16, 139814, Note_on_c, 14, 46, 97
16, 139819, Control_c, 14, 11, 113
16, 139837, Control_c, 14, 11, 111
16, 139855, Control_c, 14, 11, 109
16, 139873, Control_c, 14, 11, 107
16, 139919, Note_on_c, 14, 46, 0
16, 139934, Control_c, 14, 11, 127
16, 139934, Note_on_c, 14, 45, 97
16, 139951, Control_c, 14, 11, 125
16, 139969, Control_c, 14, 11, 123
16, 139987, Control_c, 14, 11, 121
16, 140005, Control_c, 14, 11, 119
16, 140023, Control_c, 14, 11, 117
16, 140039, Note_on_c, 14, 45, 0
16, 140041, Control_c, 14, 11, 115
16, 140054, Note_on_c, 14, 44, 97
16, 140059, Control_c, 14, 11, 113
16, 140077, Control_c, 14, 11, 111
16, 140095, Control_c, 14, 11, 109
16, 140113, Control_c, 14, 11, 107
16, 140159, Note_on_c, 14, 44, 0
16, 140174, Control_c, 14, 11, 127
16, 140174, Note_on_c, 14, 42, 97
16, 140191, Control_c, 14, 11, 125
16, 140209, Control_c, 14, 11, 123
16, 140227, Control_c, 14, 11, 121
16, 140245, Control_c, 14, 11, 119
16, 140263, Control_c, 14, 11, 117
16, 140279, Note_on_c, 14, 42, 0
16, 140281, Control_c, 14, 11, 115
16, 140294, Note_on_c, 14, 40, 97
16, 140299, Control_c, 14, 11, 113
16, 140317, Control_c, 14, 11, 111
16, 140335, Control_c, 14, 11, 109
16, 140353, Control_c, 14, 11, 107
16, 140399, Note_on_c, 14, 40, 0
16, 140414, Control_c, 14, 11, 127
16, 140414, Note_on_c, 14, 39, 97
16, 140431, Control_c, 14, 11, 125
16, 140449, Control_c, 14, 11, 123
16, 140467, Control_c, 14, 11, 121
16, 140485, Control_c, 14, 11, 119
16, 140503, Control_c, 14, 11, 117
16, 140519, Note_on_c, 14, 39, 0
16, 140521, Control_c, 14, 11, 115
16, 140534, Note_on_c, 14, 37, 97
16, 140539, Control_c, 14, 11, 113
16, 140557, Control_c, 14, 11, 111
16, 140575, Control_c, 14, 11, 109
16, 140593, Control_c, 14, 11, 107
16, 140639, Note_on_c, 14, 37, 0
16, 140654, Control_c, 14, 11, 127
16, 140654, Note_on_c, 14, 35, 97
16, 140671, Control_c, 14, 11, 125
16, 140689, Control_c, 14, 11, 123
16, 140707, Control_c, 14, 11, 121
16, 140725, Control_c, 14, 11, 119
16, 140743, Control_c, 14, 11, 117
16, 140759, Note_on_c, 14, 35, 0
16, 140761, Control_c, 14, 11, 115
16, 140774, Note_on_c, 14, 35, 97
16, 140779, Control_c, 14, 11, 113
16, 140797, Control_c, 14, 11, 111
16, 140815, Control_c, 14, 11, 109
16, 140833, Control_c, 14, 11, 107
16, 140879, Note_on_c, 14, 35, 0
16, 140894, Control_c, 14, 11, 127
16, 140894, Note_on_c, 14, 35, 97
16, 140911, Control_c, 14, 11, 125
16, 140929, Control_c, 14, 11, 123
16, 140947, Control_c, 14, 11, 121
16, 140965, Control_c, 14, 11, 119
16, 140983, Control_c, 14, 11, 117
16, 140999, Note_on_c, 14, 35, 0
16, 141001, Control_c, 14, 11, 115
16, 141014, Note_on_c, 14, 35, 97
16, 141019, Control_c, 14, 11, 113
16, 141037, Control_c, 14, 11, 111
16, 141055, Control_c, 14, 11, 109
16, 141073, Control_c, 14, 11, 107
16, 141119, Note_on_c, 14, 35, 0
16, 141134, Note_on_c, 14, 40, 97
16, 141284, Note_on_c, 14, 40, 0
16, 141314, Note_on_c, 14, 35, 97
16, 141359, Note_on_c, 14, 35, 0
16, 141374, Note_on_c, 14, 35, 97
16, 141494, Note_on_c, 14, 35, 0
16, 142094, Note_on_c, 14, 44, 97
16, 142244, Note_on_c, 14, 44, 0
16, 142274, Note_on_c, 14, 40, 97
16, 142319, Note_on_c, 14, 40, 0
16, 142334, Note_on_c, 14, 40, 97
16, 142454, Note_on_c, 14, 40, 0
16, 143054, Note_on_c, 14, 47, 97
16, 143204, Note_on_c, 14, 47, 0
16, 143234, Note_on_c, 14, 44, 97
16, 143279, Note_on_c, 14, 44, 0
16, 143294, Note_on_c, 14, 44, 97
16, 143414, Note_on_c, 14, 44, 0
16, 144014, Note_on_c, 14, 52, 97
16, 144164, Note_on_c, 14, 52, 0
16, 144194, Note_on_c, 14, 47, 97
16, 144239, Note_on_c, 14, 47, 0
16, 144254, Note_on_c, 14, 47, 97
16, 144374, Note_on_c, 14, 47, 0
16, 144974, Note_on_c, 14, 52, 97
16, 145079, Note_on_c, 14, 52, 0
16, 145094, Note_on_c, 14, 47, 97
16, 145199, Note_on_c, 14, 47, 0
16, 145214, Note_on_c, 14, 52, 97
16, 145319, Note_on_c, 14, 52, 0
16, 145334, Note_on_c, 14, 47, 97
16, 145439, Note_on_c, 14, 47, 0
16, 145454, Note_on_c, 14, 52, 97
16, 145559, Note_on_c, 14, 52, 0
16, 145574, Note_on_c, 14, 47, 97
16, 145679, Note_on_c, 14, 47, 0
16, 145694, Note_on_c, 14, 52, 97
16, 145799, Note_on_c, 14, 52, 0
16, 145814, Note_on_c, 14, 47, 97
16, 145919, Note_on_c, 14, 47, 0
16, 145934, Note_on_c, 14, 52, 97
16, 146039, Note_on_c, 14, 52, 0
16, 146054, Note_on_c, 14, 47, 97
16, 146159, Note_on_c, 14, 47, 0
16, 146174, Note_on_c, 14, 52, 97
16, 146279, Note_on_c, 14, 52, 0
16, 146294, Note_on_c, 14, 47, 97
16, 146399, Note_on_c, 14, 47, 0
16, 146414, Note_on_c, 14, 52, 97
16, 146519, Note_on_c, 14, 52, 0
16, 146534, Note_on_c, 14, 47, 97
16, 146639, Note_on_c, 14, 47, 0
16, 146654, Note_on_c, 14, 52, 97
16, 146759, Note_on_c, 14, 52, 0
16, 146774, Note_on_c, 14, 47, 97
16, 146879, Note_on_c, 14, 47, 0
16, 146894, Note_on_c, 14, 52, 97
16, 147014, Note_on_c, 14, 52, 0
16, 147374, Note_on_c, 14, 40, 97
16, 147494, Note_on_c, 14, 40, 0
16, 147854, Note_on_c, 14, 40, 97
16, 147974, Note_on_c, 14, 40, 0
16, 148334, Control_c, 14, 121, 0
16, 148334, End_track
17, 0, Start_track
17, 0, MIDI_port, 0
17, 0, Title_t, "Sequ. by J.F.Lucarelli"
17, 0, End_track
18, 0, Start_track
18, 0, MIDI_port, 0
18, 0, Title_t, "j-f.lucarelli@infonie.be  --  http://perso.infonie.fr/espace-midi"
18, 0, End_track
19, 0, Start_track
19, 0, MIDI_port, 0
19, 0, Title_t, "Optimized for AWE 64  + 8 MB memory"
19, 0, End_track
20, 0, Start_track
20, 0, MIDI_port, 0
20, 0, Title_t, "\251 October 2001"
20, 0, End_track
21, 0, Start_track
21, 0, MIDI_port, 0
21, 0, Title_t, "Beethoven -  Ouverture Fidelio"
21, 0, End_track
0, 0, End_of_file