0, 0, Header, 1, 5, 120
1, 0, Start_track
1, 0, Title_t, "Sechs lieder von Gellert, in musik gesetzt von BeethovenSechs lieder von Gellert, in musik gesetzt von BeethovenSechs lieder von Gellert, in musik gesetzt von BeethovenSechs lieder von Gellert, in musik gesetzt von BeethovenSechs lieder von Gellert, in mu"
1, 0, Title_t, "Opus 48 nr 6 Busslied"
1, 0, Copyright_t, "Copyright \251 2002 di FIORELLAEARMANDO@PANET.IT"
1, 0, Text_t, "FIORELLAEARMANDO@PANET.IT\012"
1, 0, Time_signature, 3, 2, 24, 8
1, 0, Key_signature, 0, "major"
1, 0, Tempo, 909091
1, 16200, Tempo, 1111111
1, 16220, Tempo, 1132075
1, 17160, Tempo, 625000
1, 17280, Key_signature, 3, "major"
1, 40315, Tempo, 618557
1, 40330, Tempo, 625000
1, 40340, Tempo, 631579
1, 40350, Tempo, 638298
1, 40360, Tempo, 645161
1, 40375, Tempo, 652174
1, 40385, Tempo, 659341
1, 40395, Tempo, 666667
1, 40405, Tempo, 674157
1, 40420, Tempo, 681818
1, 40430, Tempo, 689655
1, 40440, Tempo, 697674
1, 40450, Tempo, 705882
1, 40460, Tempo, 714286
1, 40475, Tempo, 722892
1, 40485, Tempo, 731707
1, 40495, Tempo, 740741
1, 40505, Tempo, 750000
1, 40520, Tempo, 759494
1, 40530, Tempo, 769231
1, 40540, Tempo, 779221
1, 40550, Tempo, 789474
1, 40560, Tempo, 800000
1, 40575, Tempo, 810811
1, 40585, Tempo, 821918
1, 40595, Tempo, 833333
1, 40605, Tempo, 845070
1, 40620, Tempo, 857143
1, 40630, Tempo, 869565
1, 40640, Tempo, 882353
1, 40650, Tempo, 895522
1, 40665, Tempo, 909091
1, 40675, Tempo, 923077
1, 40685, Tempo, 937500
1, 40695, Tempo, 952381
1, 40705, Tempo, 967742
1, 40720, Tempo, 983607
1, 40730, Tempo, 1000000
1, 40740, Tempo, 1016949
1, 40750, Tempo, 1034483
1, 40765, Tempo, 1052632
1, 40775, Tempo, 1071429
1, 40785, Tempo, 1090909
1, 40795, Tempo, 1111111
1, 40805, Tempo, 1132075
1, 40820, Tempo, 1153846
1, 40830, Tempo, 1176471
1, 40840, Tempo, 1200000
1, 40850, Tempo, 1224490
1, 40865, Tempo, 1250000
1, 40875, Tempo, 1276596
1, 40885, Tempo, 1304348
1, 40895, Tempo, 1333333
1, 40910, Tempo, 1363636
1, 40920, Tempo, 1395349
1, 40930, Tempo, 1428571
1, 40940, Tempo, 1463415
1, 40950, Tempo, 1500000
1, 40965, Tempo, 1538462
1, 40975, Tempo, 1578947
1, 40985, Tempo, 1621622
1, 40995, Tempo, 1666667
1, 41010, Tempo, 1714286
1, 41020, Tempo, 1764706
1, 41030, Tempo, 1818182
1, 41040, Tempo, 1875000
1, 41050, Tempo, 1935484
1, 41065, Tempo, 2000000
1, 41075, Tempo, 2068966
1, 41085, Tempo, 2142857
1, 41095, Tempo, 2222222
1, 41110, Tempo, 2307692
1, 41120, Tempo, 2400000
1, 41130, Tempo, 2500000
1, 41140, Tempo, 2608696
1, 41150, Tempo, 2727273
1, 41150, End_track
2, 0, Start_track
2, 0, MIDI_port, 0
2, 0, Title_t, "Voice"
2, 0, Program_c, 0, 71
2, 0, Control_c, 0, 7, 120
2, 0, Control_c, 0, 10, 64
2, 0, Control_c, 0, 93, 11
2, 0, Control_c, 0, 91, 16
2, 240, Note_on_c, 0, 64, 60
2, 360, Note_on_c, 0, 64, 0
2, 360, Note_on_c, 0, 69, 60
2, 540, Note_on_c, 0, 69, 0
2, 540, Note_on_c, 0, 71, 60
2, 600, Note_on_c, 0, 71, 0
2, 600, Note_on_c, 0, 72, 60
2, 660, Note_on_c, 0, 72, 0
2, 660, Note_on_c, 0, 73, 60
2, 720, Note_on_c, 0, 73, 0
2, 720, Note_on_c, 0, 74, 61
2, 900, Note_on_c, 0, 74, 0
2, 900, Note_on_c, 0, 76, 88
2, 960, Note_on_c, 0, 76, 0
2, 960, Note_on_c, 0, 79, 93
2, 990, Note_on_c, 0, 79, 0
2, 990, Note_on_c, 0, 77, 95
2, 1020, Note_on_c, 0, 77, 0
2, 1020, Note_on_c, 0, 76, 97
2, 1050, Note_on_c, 0, 76, 0
2, 1050, Note_on_c, 0, 74, 98
2, 1080, Note_on_c, 0, 74, 0
2, 1080, Note_on_c, 0, 72, 60
2, 1200, Note_on_c, 0, 72, 0
2, 1200, Note_on_c, 0, 71, 60
2, 1320, Note_on_c, 0, 71, 0
2, 1380, Note_on_c, 0, 71, 60
2, 1440, Note_on_c, 0, 71, 0
2, 1440, Note_on_c, 0, 71, 60
2, 1530, Note_on_c, 0, 71, 0
2, 1530, Note_on_c, 0, 71, 70
2, 1560, Note_on_c, 0, 71, 0
2, 1560, Note_on_c, 0, 71, 73
2, 1620, Note_on_c, 0, 71, 0
2, 1620, Note_on_c, 0, 71, 80
2, 1680, Note_on_c, 0, 71, 0
2, 1680, Note_on_c, 0, 71, 85
2, 1740, Note_on_c, 0, 71, 0
2, 1740, Note_on_c, 0, 72, 91
2, 1800, Note_on_c, 0, 72, 0
2, 1800, Note_on_c, 0, 72, 97
2, 1920, Note_on_c, 0, 72, 0
2, 1920, Note_on_c, 0, 71, 60
2, 2040, Note_on_c, 0, 71, 0
2, 2100, Note_on_c, 0, 71, 60
2, 2160, Note_on_c, 0, 71, 0
2, 2160, Note_on_c, 0, 76, 60
2, 2340, Note_on_c, 0, 76, 0
2, 2340, Note_on_c, 0, 74, 75
2, 2400, Note_on_c, 0, 74, 0
2, 2400, Note_on_c, 0, 72, 86
2, 2460, Note_on_c, 0, 72, 0
2, 2460, Note_on_c, 0, 71, 95
2, 2520, Note_on_c, 0, 71, 0
2, 2520, Note_on_c, 0, 70, 100
2, 2610, Note_on_c, 0, 70, 0
2, 2610, Note_on_c, 0, 70, 101
2, 2640, Note_on_c, 0, 70, 0
2, 2640, Note_on_c, 0, 79, 102
2, 2820, Note_on_c, 0, 79, 0
2, 2820, Note_on_c, 0, 70, 102
2, 2880, Note_on_c, 0, 70, 0
2, 2880, Note_on_c, 0, 70, 60
2, 3000, Note_on_c, 0, 70, 0
2, 3000, Note_on_c, 0, 71, 60
2, 3120, Note_on_c, 0, 71, 0
2, 3180, Note_on_c, 0, 71, 60
2, 3240, Note_on_c, 0, 71, 0
2, 3240, Note_on_c, 0, 72, 60
2, 3420, Note_on_c, 0, 72, 0
2, 3420, Note_on_c, 0, 71, 60
2, 3480, Note_on_c, 0, 71, 0
2, 3480, Note_on_c, 0, 75, 60
2, 3540, Note_on_c, 0, 75, 0
2, 3540, Note_on_c, 0, 76, 60
2, 3600, Note_on_c, 0, 76, 0
2, 3600, Note_on_c, 0, 76, 60
2, 3720, Note_on_c, 0, 76, 0
2, 3720, Note_on_c, 0, 66, 99
2, 3840, Note_on_c, 0, 66, 0
2, 3840, Note_on_c, 0, 66, 60
2, 3880, Note_on_c, 0, 66, 0
2, 3880, Note_on_c, 0, 69, 60
2, 3920, Note_on_c, 0, 69, 0
2, 3920, Note_on_c, 0, 72, 60
2, 3960, Note_on_c, 0, 72, 0
2, 3960, Note_on_c, 0, 72, 60
2, 4080, Note_on_c, 0, 72, 0
2, 4080, Note_on_c, 0, 71, 60
2, 4260, Note_on_c, 0, 71, 0
2, 4260, Note_on_c, 0, 63, 60
2, 4320, Note_on_c, 0, 63, 0
2, 4320, Note_on_c, 0, 64, 60
2, 4440, Note_on_c, 0, 64, 0
2, 5640, Note_on_c, 0, 71, 60
2, 5760, Note_on_c, 0, 71, 0
2, 5760, Note_on_c, 0, 71, 60
2, 6000, Note_on_c, 0, 71, 0
2, 6000, Note_on_c, 0, 71, 60
2, 6120, Note_on_c, 0, 71, 0
2, 6120, Note_on_c, 0, 72, 60
2, 6240, Note_on_c, 0, 72, 0
2, 6240, Note_on_c, 0, 71, 60
2, 6300, Note_on_c, 0, 71, 0
2, 6420, Note_on_c, 0, 71, 60
2, 6480, Note_on_c, 0, 71, 0
2, 6480, Note_on_c, 0, 71, 60
2, 6660, Note_on_c, 0, 71, 0
2, 6660, Note_on_c, 0, 72, 60
2, 6720, Note_on_c, 0, 72, 0
2, 6720, Note_on_c, 0, 66, 60
2, 6780, Note_on_c, 0, 66, 0
2, 6780, Note_on_c, 0, 71, 60
2, 6840, Note_on_c, 0, 71, 0
2, 6840, Note_on_c, 0, 69, 60
2, 6960, Note_on_c, 0, 69, 0
2, 6960, Note_on_c, 0, 67, 60
2, 7080, Note_on_c, 0, 67, 0
2, 7140, Note_on_c, 0, 67, 60
2, 7200, Note_on_c, 0, 67, 0
2, 7200, Note_on_c, 0, 68, 60
2, 7440, Note_on_c, 0, 68, 0
2, 7440, Note_on_c, 0, 68, 60
2, 7560, Note_on_c, 0, 68, 0
2, 7560, Note_on_c, 0, 69, 60
2, 7800, Note_on_c, 0, 69, 0
2, 7800, Note_on_c, 0, 71, 60
2, 7860, Note_on_c, 0, 71, 0
2, 7860, Note_on_c, 0, 72, 60
2, 7920, Note_on_c, 0, 72, 0
2, 7920, Note_on_c, 0, 74, 97
2, 8160, Note_on_c, 0, 74, 0
2, 8160, Note_on_c, 0, 74, 91
2, 8190, Note_on_c, 0, 74, 0
2, 8190, Note_on_c, 0, 72, 85
2, 8220, Note_on_c, 0, 72, 0
2, 8220, Note_on_c, 0, 71, 78
2, 8250, Note_on_c, 0, 71, 0
2, 8250, Note_on_c, 0, 72, 71
2, 8280, Note_on_c, 0, 72, 0
2, 8280, Note_on_c, 0, 72, 62
2, 8400, Note_on_c, 0, 72, 0
2, 8400, Note_on_c, 0, 71, 60
2, 8460, Note_on_c, 0, 71, 0
2, 8580, Note_on_c, 0, 64, 83
2, 8640, Note_on_c, 0, 64, 0
2, 8640, Note_on_c, 0, 69, 60
2, 8820, Note_on_c, 0, 69, 0
2, 8820, Note_on_c, 0, 71, 60
2, 8880, Note_on_c, 0, 71, 0
2, 8880, Note_on_c, 0, 72, 60
2, 8940, Note_on_c, 0, 72, 0
2, 8940, Note_on_c, 0, 73, 60
2, 9000, Note_on_c, 0, 73, 0
2, 9000, Note_on_c, 0, 74, 60
2, 9180, Note_on_c, 0, 74, 0
2, 9180, Note_on_c, 0, 76, 64
2, 9240, Note_on_c, 0, 76, 0
2, 9240, Note_on_c, 0, 79, 73
2, 9270, Note_on_c, 0, 79, 0
2, 9270, Note_on_c, 0, 77, 78
2, 9300, Note_on_c, 0, 77, 0
2, 9300, Note_on_c, 0, 76, 79
2, 9330, Note_on_c, 0, 76, 0
2, 9330, Note_on_c, 0, 74, 80
2, 9360, Note_on_c, 0, 74, 0
2, 9360, Note_on_c, 0, 72, 60
2, 9480, Note_on_c, 0, 72, 0
2, 9480, Note_on_c, 0, 71, 60
2, 9600, Note_on_c, 0, 71, 0
2, 9660, Note_on_c, 0, 71, 60
2, 9720, Note_on_c, 0, 71, 0
2, 9720, Note_on_c, 0, 71, 60
2, 9810, Note_on_c, 0, 71, 0
2, 9810, Note_on_c, 0, 71, 60
2, 9840, Note_on_c, 0, 71, 0
2, 9840, Note_on_c, 0, 71, 62
2, 9900, Note_on_c, 0, 71, 0
2, 9900, Note_on_c, 0, 71, 68
2, 9960, Note_on_c, 0, 71, 0
2, 9960, Note_on_c, 0, 71, 76
2, 10020, Note_on_c, 0, 71, 0
2, 10020, Note_on_c, 0, 72, 80
2, 10080, Note_on_c, 0, 72, 0
2, 10080, Note_on_c, 0, 72, 91
2, 10200, Note_on_c, 0, 72, 0
2, 10200, Note_on_c, 0, 71, 60
2, 10320, Note_on_c, 0, 71, 0
2, 10380, Note_on_c, 0, 71, 60
2, 10440, Note_on_c, 0, 71, 0
2, 10440, Note_on_c, 0, 74, 64
2, 10620, Note_on_c, 0, 74, 0
2, 10620, Note_on_c, 0, 72, 87
2, 10680, Note_on_c, 0, 72, 0
2, 10680, Note_on_c, 0, 71, 93
2, 10740, Note_on_c, 0, 71, 0
2, 10740, Note_on_c, 0, 69, 96
2, 10800, Note_on_c, 0, 69, 0
2, 10800, Note_on_c, 0, 68, 98
2, 10860, Note_on_c, 0, 68, 0
2, 10860, Note_on_c, 0, 68, 100
2, 10920, Note_on_c, 0, 68, 0
2, 10920, Note_on_c, 0, 77, 98
2, 11100, Note_on_c, 0, 77, 0
2, 11100, Note_on_c, 0, 68, 55
2, 11160, Note_on_c, 0, 68, 0
2, 11160, Note_on_c, 0, 71, 55
2, 11280, Note_on_c, 0, 71, 0
2, 11280, Note_on_c, 0, 69, 58
2, 11400, Note_on_c, 0, 69, 0
2, 11460, Note_on_c, 0, 69, 62
2, 11520, Note_on_c, 0, 69, 0
2, 11520, Note_on_c, 0, 71, 64
2, 11760, Note_on_c, 0, 71, 0
2, 11760, Note_on_c, 0, 71, 69
2, 11860, Note_on_c, 0, 71, 0
2, 11865, Note_on_c, 0, 74, 85
2, 11880, Note_on_c, 0, 74, 0
2, 11880, Note_on_c, 0, 73, 76
2, 12000, Note_on_c, 0, 73, 0
2, 12180, Note_on_c, 0, 73, 87
2, 12240, Note_on_c, 0, 73, 0
2, 12240, Note_on_c, 0, 74, 88
2, 12420, Note_on_c, 0, 74, 0
2, 12420, Note_on_c, 0, 74, 91
2, 12480, Note_on_c, 0, 74, 0
2, 12480, Note_on_c, 0, 76, 91
2, 12540, Note_on_c, 0, 76, 0
2, 12540, Note_on_c, 0, 76, 91
2, 12600, Note_on_c, 0, 76, 0
2, 12600, Note_on_c, 0, 77, 91
2, 12780, Note_on_c, 0, 77, 0
2, 12780, Note_on_c, 0, 79, 85
2, 12810, Note_on_c, 0, 79, 0
2, 12810, Note_on_c, 0, 77, 80
2, 12840, Note_on_c, 0, 77, 0
2, 12840, Note_on_c, 0, 76, 76
2, 12870, Note_on_c, 0, 76, 0
2, 12870, Note_on_c, 0, 74, 70
2, 12900, Note_on_c, 0, 74, 0
2, 12900, Note_on_c, 0, 72, 68
2, 12930, Note_on_c, 0, 72, 0
2, 12930, Note_on_c, 0, 71, 64
2, 12960, Note_on_c, 0, 71, 0
2, 12960, Note_on_c, 0, 69, 61
2, 13200, Note_on_c, 0, 69, 0
2, 13200, Note_on_c, 0, 72, 75
2, 13290, Note_on_c, 0, 72, 0
2, 13290, Note_on_c, 0, 71, 60
2, 13320, Note_on_c, 0, 71, 0
2, 13320, Note_on_c, 0, 69, 60
2, 13440, Note_on_c, 0, 69, 0
2, 13740, Note_on_c, 0, 71, 60
2, 13800, Note_on_c, 0, 71, 0
2, 13800, Note_on_c, 0, 71, 60
2, 13920, Note_on_c, 0, 71, 0
2, 13920, Note_on_c, 0, 74, 60
2, 13980, Note_on_c, 0, 74, 0
2, 13980, Note_on_c, 0, 72, 60
2, 14040, Note_on_c, 0, 72, 0
2, 14040, Note_on_c, 0, 71, 60
2, 14160, Note_on_c, 0, 71, 0
2, 14460, Note_on_c, 0, 71, 60
2, 14520, Note_on_c, 0, 71, 0
2, 14520, Note_on_c, 0, 71, 60
2, 14640, Note_on_c, 0, 71, 0
2, 14640, Note_on_c, 0, 74, 60
2, 14700, Note_on_c, 0, 74, 0
2, 14700, Note_on_c, 0, 72, 60
2, 14760, Note_on_c, 0, 72, 0
2, 14760, Note_on_c, 0, 72, 60
2, 14820, Note_on_c, 0, 72, 0
2, 14820, Note_on_c, 0, 71, 60
2, 14880, Note_on_c, 0, 71, 0
2, 15060, Note_on_c, 0, 72, 60
2, 15120, Note_on_c, 0, 72, 0
2, 15120, Note_on_c, 0, 71, 60
2, 15360, Note_on_c, 0, 71, 0
2, 15360, Note_on_c, 0, 71, 82
2, 15480, Note_on_c, 0, 71, 0
2, 15480, Note_on_c, 0, 72, 79
2, 15660, Note_on_c, 0, 72, 0
2, 15660, Note_on_c, 0, 72, 60
2, 15720, Note_on_c, 0, 72, 0
2, 15720, Note_on_c, 0, 71, 60
2, 15780, Note_on_c, 0, 71, 0
2, 15780, Note_on_c, 0, 69, 60
2, 15840, Note_on_c, 0, 69, 0
2, 15840, Note_on_c, 0, 68, 60
2, 15960, Note_on_c, 0, 68, 0
2, 16080, Note_on_c, 0, 76, 60
2, 16200, Note_on_c, 0, 76, 0
2, 16200, Note_on_c, 0, 75, 79
2, 16380, Note_on_c, 0, 75, 0
2, 16380, Note_on_c, 0, 72, 59
2, 16440, Note_on_c, 0, 72, 0
2, 16440, Note_on_c, 0, 71, 55
2, 16500, Note_on_c, 0, 71, 0
2, 16500, Note_on_c, 0, 69, 50
2, 16560, Note_on_c, 0, 69, 0
2, 16560, Note_on_c, 0, 64, 48
2, 16680, Note_on_c, 0, 64, 0
2, 20040, Note_on_c, 0, 64, 57
2, 20160, Note_on_c, 0, 64, 0
2, 20160, Note_on_c, 0, 69, 58
2, 20400, Note_on_c, 0, 69, 0
2, 20400, Note_on_c, 0, 69, 61
2, 20520, Note_on_c, 0, 69, 0
2, 20520, Note_on_c, 0, 71, 69
2, 20760, Note_on_c, 0, 71, 0
2, 20760, Note_on_c, 0, 71, 62
2, 20880, Note_on_c, 0, 71, 0
2, 20880, Note_on_c, 0, 73, 69
2, 21060, Note_on_c, 0, 73, 0
2, 21060, Note_on_c, 0, 71, 61
2, 21120, Note_on_c, 0, 71, 0
2, 21120, Note_on_c, 0, 73, 64
2, 21180, Note_on_c, 0, 73, 0
2, 21180, Note_on_c, 0, 74, 64
2, 21240, Note_on_c, 0, 74, 0
2, 21240, Note_on_c, 0, 73, 64
2, 21360, Note_on_c, 0, 73, 0
2, 21360, Note_on_c, 0, 71, 60
2, 21480, Note_on_c, 0, 71, 0
2, 21480, Note_on_c, 0, 71, 64
2, 21600, Note_on_c, 0, 71, 0
2, 21600, Note_on_c, 0, 71, 76
2, 21840, Note_on_c, 0, 71, 0
2, 21840, Note_on_c, 0, 73, 49
2, 21900, Note_on_c, 0, 73, 0
2, 21900, Note_on_c, 0, 75, 55
2, 21960, Note_on_c, 0, 75, 0
2, 21960, Note_on_c, 0, 76, 65
2, 22200, Note_on_c, 0, 76, 0
2, 22200, Note_on_c, 0, 73, 67
2, 22260, Note_on_c, 0, 73, 0
2, 22260, Note_on_c, 0, 78, 71
2, 22320, Note_on_c, 0, 78, 0
2, 22320, Note_on_c, 0, 76, 76
2, 22560, Note_on_c, 0, 76, 0
2, 22560, Note_on_c, 0, 75, 58
2, 22680, Note_on_c, 0, 75, 0
2, 22680, Note_on_c, 0, 76, 68
2, 22800, Note_on_c, 0, 76, 0
2, 22980, Note_on_c, 0, 76, 60
2, 23040, Note_on_c, 0, 76, 0
2, 23040, Note_on_c, 0, 76, 63
2, 23280, Note_on_c, 0, 76, 0
2, 23280, Note_on_c, 0, 73, 56
2, 23340, Note_on_c, 0, 73, 0
2, 23340, Note_on_c, 0, 69, 59
2, 23400, Note_on_c, 0, 69, 0
2, 23400, Note_on_c, 0, 76, 61
2, 23520, Note_on_c, 0, 76, 0
2, 23520, Note_on_c, 0, 74, 64
2, 23640, Note_on_c, 0, 74, 0
2, 23640, Note_on_c, 0, 73, 67
2, 23760, Note_on_c, 0, 73, 0
2, 23760, Note_on_c, 0, 71, 69
2, 23820, Note_on_c, 0, 71, 0
2, 23820, Note_on_c, 0, 78, 69
2, 23880, Note_on_c, 0, 78, 0
2, 23880, Note_on_c, 0, 76, 69
2, 23940, Note_on_c, 0, 76, 0
2, 23940, Note_on_c, 0, 74, 69
2, 24000, Note_on_c, 0, 74, 0
2, 24000, Note_on_c, 0, 73, 69
2, 24060, Note_on_c, 0, 73, 0
2, 24060, Note_on_c, 0, 71, 67
2, 24120, Note_on_c, 0, 71, 0
2, 24120, Note_on_c, 0, 69, 64
2, 24240, Note_on_c, 0, 69, 0
2, 24240, Note_on_c, 0, 68, 60
2, 24360, Note_on_c, 0, 68, 0
2, 24420, Note_on_c, 0, 64, 60
2, 24480, Note_on_c, 0, 64, 0
2, 24480, Note_on_c, 0, 69, 60
2, 24720, Note_on_c, 0, 69, 0
2, 24720, Note_on_c, 0, 71, 61
2, 24780, Note_on_c, 0, 71, 0
2, 24780, Note_on_c, 0, 73, 62
2, 24840, Note_on_c, 0, 73, 0
2, 24840, Note_on_c, 0, 74, 62
2, 25080, Note_on_c, 0, 74, 0
2, 25080, Note_on_c, 0, 76, 67
2, 25140, Note_on_c, 0, 76, 0
2, 25140, Note_on_c, 0, 78, 67
2, 25200, Note_on_c, 0, 78, 0
2, 25200, Note_on_c, 0, 76, 69
2, 25380, Note_on_c, 0, 76, 0
2, 25380, Note_on_c, 0, 73, 70
2, 25440, Note_on_c, 0, 73, 0
2, 25440, Note_on_c, 0, 74, 72
2, 25500, Note_on_c, 0, 74, 0
2, 25500, Note_on_c, 0, 71, 73
2, 25560, Note_on_c, 0, 71, 0
2, 25560, Note_on_c, 0, 69, 75
2, 25680, Note_on_c, 0, 69, 0
2, 26220, Note_on_c, 0, 64, 64
2, 26280, Note_on_c, 0, 64, 0
2, 26280, Note_on_c, 0, 69, 67
2, 26520, Note_on_c, 0, 69, 0
2, 26520, Note_on_c, 0, 69, 57
2, 26640, Note_on_c, 0, 69, 0
2, 26640, Note_on_c, 0, 71, 57
2, 26880, Note_on_c, 0, 71, 0
2, 26880, Note_on_c, 0, 71, 57
2, 27000, Note_on_c, 0, 71, 0
2, 27000, Note_on_c, 0, 73, 57
2, 27180, Note_on_c, 0, 73, 0
2, 27180, Note_on_c, 0, 71, 57
2, 27240, Note_on_c, 0, 71, 0
2, 27240, Note_on_c, 0, 73, 57
2, 27300, Note_on_c, 0, 73, 0
2, 27300, Note_on_c, 0, 74, 57
2, 27360, Note_on_c, 0, 74, 0
2, 27360, Note_on_c, 0, 73, 57
2, 27480, Note_on_c, 0, 73, 0
2, 27480, Note_on_c, 0, 71, 57
2, 27600, Note_on_c, 0, 71, 0
2, 27660, Note_on_c, 0, 71, 57
2, 27720, Note_on_c, 0, 71, 0
2, 27720, Note_on_c, 0, 71, 57
2, 27960, Note_on_c, 0, 71, 0
2, 27960, Note_on_c, 0, 73, 64
2, 28020, Note_on_c, 0, 73, 0
2, 28020, Note_on_c, 0, 75, 66
2, 28080, Note_on_c, 0, 75, 0
2, 28080, Note_on_c, 0, 76, 67
2, 28320, Note_on_c, 0, 76, 0
2, 28320, Note_on_c, 0, 73, 74
2, 28380, Note_on_c, 0, 73, 0
2, 28380, Note_on_c, 0, 78, 75
2, 28440, Note_on_c, 0, 78, 0
2, 28440, Note_on_c, 0, 76, 76
2, 28680, Note_on_c, 0, 76, 0
2, 28680, Note_on_c, 0, 75, 79
2, 28800, Note_on_c, 0, 75, 0
2, 28800, Note_on_c, 0, 76, 79
2, 28920, Note_on_c, 0, 76, 0
2, 28980, Note_on_c, 0, 76, 55
2, 29040, Note_on_c, 0, 76, 0
2, 29040, Note_on_c, 0, 76, 55
2, 29100, Note_on_c, 0, 76, 0
2, 29100, Note_on_c, 0, 76, 55
2, 29160, Note_on_c, 0, 76, 0
2, 29160, Note_on_c, 0, 76, 55
2, 29340, Note_on_c, 0, 76, 0
2, 29340, Note_on_c, 0, 76, 58
2, 29400, Note_on_c, 0, 76, 0
2, 29400, Note_on_c, 0, 73, 58
2, 29460, Note_on_c, 0, 73, 0
2, 29460, Note_on_c, 0, 69, 58
2, 29520, Note_on_c, 0, 69, 0
2, 29520, Note_on_c, 0, 76, 57
2, 29640, Note_on_c, 0, 76, 0
2, 29640, Note_on_c, 0, 74, 57
2, 29760, Note_on_c, 0, 74, 0
2, 29760, Note_on_c, 0, 73, 57
2, 29880, Note_on_c, 0, 73, 0
2, 29880, Note_on_c, 0, 71, 57
2, 29940, Note_on_c, 0, 71, 0
2, 29940, Note_on_c, 0, 78, 57
2, 30000, Note_on_c, 0, 78, 0
2, 30000, Note_on_c, 0, 76, 57
2, 30060, Note_on_c, 0, 76, 0
2, 30060, Note_on_c, 0, 74, 57
2, 30120, Note_on_c, 0, 74, 0
2, 30120, Note_on_c, 0, 73, 57
2, 30180, Note_on_c, 0, 73, 0
2, 30180, Note_on_c, 0, 71, 57
2, 30240, Note_on_c, 0, 71, 0
2, 30240, Note_on_c, 0, 69, 57
2, 30360, Note_on_c, 0, 69, 0
2, 30360, Note_on_c, 0, 68, 57
2, 30480, Note_on_c, 0, 68, 0
2, 30540, Note_on_c, 0, 64, 57
2, 30600, Note_on_c, 0, 64, 0
2, 30600, Note_on_c, 0, 69, 57
2, 30840, Note_on_c, 0, 69, 0
2, 30840, Note_on_c, 0, 71, 57
2, 30900, Note_on_c, 0, 71, 0
2, 30900, Note_on_c, 0, 73, 57
2, 30960, Note_on_c, 0, 73, 0
2, 30960, Note_on_c, 0, 74, 57
2, 31200, Note_on_c, 0, 74, 0
2, 31200, Note_on_c, 0, 76, 57
2, 31260, Note_on_c, 0, 76, 0
2, 31260, Note_on_c, 0, 78, 57
2, 31320, Note_on_c, 0, 78, 0
2, 31320, Note_on_c, 0, 76, 57
2, 31500, Note_on_c, 0, 76, 0
2, 31500, Note_on_c, 0, 73, 57
2, 31560, Note_on_c, 0, 73, 0
2, 31560, Note_on_c, 0, 74, 57
2, 31620, Note_on_c, 0, 74, 0
2, 31620, Note_on_c, 0, 71, 57
2, 31680, Note_on_c, 0, 71, 0
2, 31680, Note_on_c, 0, 69, 57
2, 31800, Note_on_c, 0, 69, 0
2, 32280, Note_on_c, 0, 64, 73
2, 32400, Note_on_c, 0, 64, 0
2, 32400, Note_on_c, 0, 69, 76
2, 32640, Note_on_c, 0, 69, 0
2, 32640, Note_on_c, 0, 69, 81
2, 32760, Note_on_c, 0, 69, 0
2, 32760, Note_on_c, 0, 71, 84
2, 33000, Note_on_c, 0, 71, 0
2, 33000, Note_on_c, 0, 71, 85
2, 33120, Note_on_c, 0, 71, 0
2, 33120, Note_on_c, 0, 73, 85
2, 33300, Note_on_c, 0, 73, 0
2, 33300, Note_on_c, 0, 71, 88
2, 33360, Note_on_c, 0, 71, 0
2, 33360, Note_on_c, 0, 73, 88
2, 33420, Note_on_c, 0, 73, 0
2, 33420, Note_on_c, 0, 76, 88
2, 33450, Note_on_c, 0, 76, 0
2, 33450, Note_on_c, 0, 74, 88
2, 33480, Note_on_c, 0, 74, 0
2, 33480, Note_on_c, 0, 73, 88
2, 33600, Note_on_c, 0, 73, 0
2, 33600, Note_on_c, 0, 71, 90
2, 33720, Note_on_c, 0, 71, 0
2, 33780, Note_on_c, 0, 71, 90
2, 33840, Note_on_c, 0, 71, 0
2, 33840, Note_on_c, 0, 71, 90
2, 34080, Note_on_c, 0, 71, 0
2, 34080, Note_on_c, 0, 73, 90
2, 34140, Note_on_c, 0, 73, 0
2, 34140, Note_on_c, 0, 75, 90
2, 34200, Note_on_c, 0, 75, 0
2, 34200, Note_on_c, 0, 76, 90
2, 34440, Note_on_c, 0, 76, 0
2, 34440, Note_on_c, 0, 73, 88
2, 34500, Note_on_c, 0, 73, 0
2, 34500, Note_on_c, 0, 78, 88
2, 34560, Note_on_c, 0, 78, 0
2, 34560, Note_on_c, 0, 76, 58
2, 34800, Note_on_c, 0, 76, 0
2, 34800, Note_on_c, 0, 75, 59
2, 34920, Note_on_c, 0, 75, 0
2, 34920, Note_on_c, 0, 76, 66
2, 35040, Note_on_c, 0, 76, 0
2, 35220, Note_on_c, 0, 76, 64
2, 35280, Note_on_c, 0, 76, 0
2, 35280, Note_on_c, 0, 76, 68
2, 35520, Note_on_c, 0, 76, 0
2, 35520, Note_on_c, 0, 73, 61
2, 35580, Note_on_c, 0, 73, 0
2, 35580, Note_on_c, 0, 69, 64
2, 35640, Note_on_c, 0, 69, 0
2, 35640, Note_on_c, 0, 76, 66
2, 35760, Note_on_c, 0, 76, 0
2, 35760, Note_on_c, 0, 74, 68
2, 35820, Note_on_c, 0, 74, 0
2, 35880, Note_on_c, 0, 73, 68
2, 36000, Note_on_c, 0, 73, 0
2, 36000, Note_on_c, 0, 71, 69
2, 36060, Note_on_c, 0, 71, 0
2, 36060, Note_on_c, 0, 78, 70
2, 36120, Note_on_c, 0, 78, 0
2, 36120, Note_on_c, 0, 76, 71
2, 36180, Note_on_c, 0, 76, 0
2, 36180, Note_on_c, 0, 74, 73
2, 36240, Note_on_c, 0, 74, 0
2, 36240, Note_on_c, 0, 73, 75
2, 36300, Note_on_c, 0, 73, 0
2, 36300, Note_on_c, 0, 71, 76
2, 36360, Note_on_c, 0, 71, 0
2, 36360, Note_on_c, 0, 69, 77
2, 36480, Note_on_c, 0, 69, 0
2, 36480, Note_on_c, 0, 68, 77
2, 36600, Note_on_c, 0, 68, 0
2, 36660, Note_on_c, 0, 64, 77
2, 36720, Note_on_c, 0, 64, 0
2, 36720, Note_on_c, 0, 69, 77
2, 36960, Note_on_c, 0, 69, 0
2, 36960, Note_on_c, 0, 71, 77
2, 37020, Note_on_c, 0, 71, 0
2, 37020, Note_on_c, 0, 73, 77
2, 37080, Note_on_c, 0, 73, 0
2, 37080, Note_on_c, 0, 74, 79
2, 37320, Note_on_c, 0, 74, 0
2, 37320, Note_on_c, 0, 76, 81
2, 37380, Note_on_c, 0, 76, 0
2, 37380, Note_on_c, 0, 78, 81
2, 37440, Note_on_c, 0, 78, 0
2, 37440, Note_on_c, 0, 76, 81
2, 37620, Note_on_c, 0, 76, 0
2, 37620, Note_on_c, 0, 73, 81
2, 37680, Note_on_c, 0, 73, 0
2, 37680, Note_on_c, 0, 74, 81
2, 37740, Note_on_c, 0, 74, 0
2, 37740, Note_on_c, 0, 71, 81
2, 37800, Note_on_c, 0, 71, 0
2, 37800, Note_on_c, 0, 69, 81
2, 37920, Note_on_c, 0, 69, 0
2, 38040, Note_on_c, 0, 69, 79
2, 38160, Note_on_c, 0, 69, 0
2, 38160, Note_on_c, 0, 71, 79
2, 38340, Note_on_c, 0, 71, 0
2, 38340, Note_on_c, 0, 71, 78
2, 38400, Note_on_c, 0, 71, 0
2, 38400, Note_on_c, 0, 71, 78
2, 38460, Note_on_c, 0, 71, 0
2, 38460, Note_on_c, 0, 71, 78
2, 38505, Note_on_c, 0, 71, 0
2, 38505, Note_on_c, 0, 74, 78
2, 38520, Note_on_c, 0, 74, 0
2, 38520, Note_on_c, 0, 73, 78
2, 38640, Note_on_c, 0, 73, 0
2, 38760, Note_on_c, 0, 73, 78
2, 38880, Note_on_c, 0, 73, 0
2, 38880, Note_on_c, 0, 74, 78
2, 39060, Note_on_c, 0, 74, 0
2, 39060, Note_on_c, 0, 74, 78
2, 39120, Note_on_c, 0, 74, 0
2, 39120, Note_on_c, 0, 74, 78
2, 39180, Note_on_c, 0, 74, 0
2, 39180, Note_on_c, 0, 74, 78
2, 39225, Note_on_c, 0, 74, 0
2, 39225, Note_on_c, 0, 78, 78
2, 39240, Note_on_c, 0, 78, 0
2, 39240, Note_on_c, 0, 76, 78
2, 39360, Note_on_c, 0, 76, 0
2, 39480, Note_on_c, 0, 76, 77
2, 39600, Note_on_c, 0, 76, 0
2, 39600, Note_on_c, 0, 78, 77
2, 39840, Note_on_c, 0, 78, 0
2, 39840, Note_on_c, 0, 74, 75
2, 39960, Note_on_c, 0, 74, 0
2, 39960, Note_on_c, 0, 69, 75
2, 40200, Note_on_c, 0, 69, 0
2, 40200, Note_on_c, 0, 69, 68
2, 40320, Note_on_c, 0, 69, 0
2, 40320, Note_on_c, 0, 69, 65
2, 40560, Note_on_c, 0, 69, 0
2, 40560, Note_on_c, 0, 69, 53
2, 40680, Note_on_c, 0, 69, 0
2, 40680, Note_on_c, 0, 69, 48
2, 41040, Note_on_c, 0, 69, 0
2, 41040, End_track
3, 0, Start_track
3, 0, MIDI_port, 0
3, 0, Title_t, "Piano Right"
3, 0, Program_c, 1, 0
3, 0, Control_c, 1, 7, 110
3, 0, Control_c, 1, 10, 32
3, 0, Control_c, 1, 93, 16
3, 0, Control_c, 1, 91, 11
3, 240, Note_on_c, 1, 64, 60
3, 360, Note_on_c, 1, 64, 0
3, 360, Note_on_c, 1, 60, 60
3, 360, Note_on_c, 1, 64, 60
3, 360, Note_on_c, 1, 69, 60
3, 540, Note_on_c, 1, 69, 0
3, 540, Note_on_c, 1, 64, 0
3, 540, Note_on_c, 1, 60, 0
3, 540, Note_on_c, 1, 71, 60
3, 600, Note_on_c, 1, 71, 0
3, 600, Note_on_c, 1, 72, 60
3, 660, Note_on_c, 1, 72, 0
3, 660, Note_on_c, 1, 73, 60
3, 720, Note_on_c, 1, 73, 0
3, 720, Note_on_c, 1, 69, 60
3, 720, Note_on_c, 1, 74, 60
3, 900, Note_on_c, 1, 74, 0
3, 900, Note_on_c, 1, 69, 0
3, 900, Note_on_c, 1, 69, 73
3, 900, Note_on_c, 1, 76, 73
3, 960, Note_on_c, 1, 76, 0
3, 960, Note_on_c, 1, 69, 0
3, 960, Note_on_c, 1, 69, 78
3, 960, Note_on_c, 1, 77, 78
3, 1020, Note_on_c, 1, 77, 0
3, 1020, Note_on_c, 1, 69, 0
3, 1020, Note_on_c, 1, 69, 83
3, 1020, Note_on_c, 1, 74, 83
3, 1080, Note_on_c, 1, 74, 0
3, 1080, Note_on_c, 1, 69, 0
3, 1080, Note_on_c, 1, 69, 60
3, 1080, Note_on_c, 1, 72, 60
3, 1200, Note_on_c, 1, 72, 0
3, 1200, Note_on_c, 1, 69, 0
3, 1200, Note_on_c, 1, 68, 60
3, 1200, Note_on_c, 1, 71, 60
3, 1320, Note_on_c, 1, 71, 0
3, 1320, Note_on_c, 1, 68, 0
3, 1380, Note_on_c, 1, 67, 60
3, 1380, Note_on_c, 1, 71, 60
3, 1440, Note_on_c, 1, 71, 0
3, 1440, Note_on_c, 1, 67, 0
3, 1440, Note_on_c, 1, 71, 61
3, 1440, Note_on_c, 1, 69, 61
3, 1530, Note_on_c, 1, 69, 0
3, 1530, Note_on_c, 1, 71, 0
3, 1530, Note_on_c, 1, 69, 70
3, 1530, Note_on_c, 1, 71, 70
3, 1560, Note_on_c, 1, 71, 0
3, 1560, Note_on_c, 1, 69, 0
3, 1560, Note_on_c, 1, 69, 73
3, 1560, Note_on_c, 1, 71, 73
3, 1620, Note_on_c, 1, 71, 0
3, 1620, Note_on_c, 1, 69, 0
3, 1620, Note_on_c, 1, 69, 78
3, 1620, Note_on_c, 1, 71, 78
3, 1680, Note_on_c, 1, 71, 0
3, 1680, Note_on_c, 1, 69, 0
3, 1680, Note_on_c, 1, 69, 82
3, 1680, Note_on_c, 1, 71, 82
3, 1740, Note_on_c, 1, 71, 0
3, 1740, Note_on_c, 1, 69, 0
3, 1740, Note_on_c, 1, 69, 88
3, 1740, Note_on_c, 1, 72, 88
3, 1800, Note_on_c, 1, 72, 0
3, 1800, Note_on_c, 1, 69, 0
3, 1800, Note_on_c, 1, 69, 94
3, 1800, Note_on_c, 1, 72, 94
3, 1920, Note_on_c, 1, 72, 0
3, 1920, Note_on_c, 1, 69, 0
3, 1920, Note_on_c, 1, 68, 60
3, 1920, Note_on_c, 1, 71, 60
3, 2040, Note_on_c, 1, 71, 0
3, 2040, Note_on_c, 1, 68, 0
3, 2100, Note_on_c, 1, 71, 60
3, 2160, Note_on_c, 1, 71, 0
3, 2160, Note_on_c, 1, 64, 59
3, 2160, Note_on_c, 1, 76, 59
3, 2340, Note_on_c, 1, 76, 0
3, 2340, Note_on_c, 1, 64, 0
3, 2340, Note_on_c, 1, 62, 79
3, 2340, Note_on_c, 1, 74, 79
3, 2400, Note_on_c, 1, 74, 0
3, 2400, Note_on_c, 1, 62, 0
3, 2400, Note_on_c, 1, 60, 88
3, 2400, Note_on_c, 1, 72, 88
3, 2460, Note_on_c, 1, 72, 0
3, 2460, Note_on_c, 1, 60, 0
3, 2460, Note_on_c, 1, 59, 95
3, 2460, Note_on_c, 1, 71, 95
3, 2520, Note_on_c, 1, 71, 0
3, 2520, Note_on_c, 1, 59, 0
3, 2520, Note_on_c, 1, 70, 99
3, 2520, Note_on_c, 1, 61, 99
3, 2610, Note_on_c, 1, 61, 0
3, 2610, Note_on_c, 1, 70, 0
3, 2610, Note_on_c, 1, 70, 100
3, 2610, Note_on_c, 1, 61, 100
3, 2640, Note_on_c, 1, 61, 0
3, 2640, Note_on_c, 1, 70, 0
3, 2640, Note_on_c, 1, 70, 100
3, 2640, Note_on_c, 1, 61, 100
3, 2820, Note_on_c, 1, 61, 0
3, 2820, Note_on_c, 1, 70, 0
3, 2820, Note_on_c, 1, 70, 101
3, 2820, Note_on_c, 1, 61, 101
3, 2880, Note_on_c, 1, 61, 0
3, 2880, Note_on_c, 1, 70, 0
3, 2880, Note_on_c, 1, 61, 60
3, 2880, Note_on_c, 1, 70, 60
3, 3000, Note_on_c, 1, 70, 0
3, 3000, Note_on_c, 1, 61, 0
3, 3000, Note_on_c, 1, 63, 60
3, 3000, Note_on_c, 1, 71, 60
3, 3120, Note_on_c, 1, 71, 0
3, 3120, Note_on_c, 1, 63, 0
3, 3180, Note_on_c, 1, 71, 60
3, 3240, Note_on_c, 1, 71, 0
3, 3240, Note_on_c, 1, 69, 60
3, 3240, Note_on_c, 1, 72, 60
3, 3420, Note_on_c, 1, 72, 0
3, 3420, Note_on_c, 1, 69, 0
3, 3420, Note_on_c, 1, 67, 60
3, 3420, Note_on_c, 1, 71, 60
3, 3480, Note_on_c, 1, 71, 0
3, 3480, Note_on_c, 1, 67, 0
3, 3480, Note_on_c, 1, 69, 60
3, 3480, Note_on_c, 1, 75, 60
3, 3540, Note_on_c, 1, 75, 0
3, 3540, Note_on_c, 1, 69, 0
3, 3540, Note_on_c, 1, 67, 60
3, 3540, Note_on_c, 1, 76, 60
3, 3600, Note_on_c, 1, 76, 0
3, 3600, Note_on_c, 1, 67, 0
3, 3600, Note_on_c, 1, 60, 60
3, 3600, Note_on_c, 1, 64, 60
3, 3600, Note_on_c, 1, 66, 60
3, 3660, Note_on_c, 1, 66, 0
3, 3660, Note_on_c, 1, 64, 0
3, 3660, Note_on_c, 1, 60, 0
3, 3660, Note_on_c, 1, 60, 60
3, 3660, Note_on_c, 1, 64, 60
3, 3660, Note_on_c, 1, 66, 60
3, 3720, Note_on_c, 1, 66, 0
3, 3720, Note_on_c, 1, 64, 0
3, 3720, Note_on_c, 1, 60, 0
3, 3720, Note_on_c, 1, 60, 60
3, 3720, Note_on_c, 1, 64, 60
3, 3720, Note_on_c, 1, 66, 60
3, 3780, Note_on_c, 1, 66, 0
3, 3780, Note_on_c, 1, 64, 0
3, 3780, Note_on_c, 1, 60, 0
3, 3900, Note_on_c, 1, 60, 60
3, 3900, Note_on_c, 1, 64, 60
3, 3900, Note_on_c, 1, 66, 60
3, 3960, Note_on_c, 1, 66, 0
3, 3960, Note_on_c, 1, 64, 0
3, 3960, Note_on_c, 1, 60, 0
3, 4020, Note_on_c, 1, 59, 60
3, 4020, Note_on_c, 1, 64, 60
3, 4020, Note_on_c, 1, 67, 60
3, 4080, Note_on_c, 1, 67, 0
3, 4080, Note_on_c, 1, 64, 0
3, 4080, Note_on_c, 1, 59, 0
3, 4140, Note_on_c, 1, 59, 60
3, 4140, Note_on_c, 1, 64, 60
3, 4140, Note_on_c, 1, 67, 60
3, 4200, Note_on_c, 1, 67, 0
3, 4200, Note_on_c, 1, 64, 0
3, 4200, Note_on_c, 1, 59, 0
3, 4260, Note_on_c, 1, 54, 60
3, 4260, Note_on_c, 1, 58, 60
3, 4260, Note_on_c, 1, 63, 60
3, 4320, Note_on_c, 1, 63, 0
3, 4320, Note_on_c, 1, 58, 0
3, 4320, Note_on_c, 1, 54, 0
3, 4320, Note_on_c, 1, 55, 60
3, 4320, Note_on_c, 1, 64, 60
3, 4380, Note_on_c, 1, 64, 0
3, 4380, Note_on_c, 1, 55, 0
3, 4380, Note_on_c, 1, 71, 64
3, 4500, Note_on_c, 1, 71, 0
3, 4500, Note_on_c, 1, 71, 73
3, 4560, Note_on_c, 1, 71, 0
3, 4560, Note_on_c, 1, 75, 80
3, 4620, Note_on_c, 1, 75, 0
3, 4620, Note_on_c, 1, 76, 86
3, 4680, Note_on_c, 1, 76, 0
3, 4680, Note_on_c, 1, 76, 93
3, 4800, Note_on_c, 1, 76, 0
3, 4800, Note_on_c, 1, 66, 60
3, 4860, Note_on_c, 1, 66, 0
3, 4920, Note_on_c, 1, 66, 60
3, 4960, Note_on_c, 1, 66, 0
3, 4960, Note_on_c, 1, 69, 60
3, 5000, Note_on_c, 1, 69, 0
3, 5000, Note_on_c, 1, 72, 60
3, 5040, Note_on_c, 1, 72, 0
3, 5040, Note_on_c, 1, 72, 60
3, 5160, Note_on_c, 1, 72, 0
3, 5160, Note_on_c, 1, 71, 60
3, 5340, Note_on_c, 1, 71, 0
3, 5340, Note_on_c, 1, 63, 60
3, 5400, Note_on_c, 1, 63, 0
3, 5400, Note_on_c, 1, 57, 60
3, 5400, Note_on_c, 1, 63, 60
3, 5400, Note_on_c, 1, 66, 60
3, 5520, Note_on_c, 1, 66, 0
3, 5520, Note_on_c, 1, 63, 0
3, 5520, Note_on_c, 1, 57, 0
3, 5520, Note_on_c, 1, 64, 60
3, 5520, Note_on_c, 1, 55, 60
3, 5580, Note_on_c, 1, 55, 0
3, 5580, Note_on_c, 1, 64, 0
3, 5820, Note_on_c, 1, 64, 60
3, 5820, Note_on_c, 1, 67, 60
3, 5820, Note_on_c, 1, 59, 60
3, 5880, Note_on_c, 1, 59, 0
3, 5880, Note_on_c, 1, 67, 0
3, 5880, Note_on_c, 1, 64, 0
3, 5880, Note_on_c, 1, 64, 60
3, 5880, Note_on_c, 1, 59, 60
3, 5880, Note_on_c, 1, 67, 60
3, 5940, Note_on_c, 1, 67, 0
3, 5940, Note_on_c, 1, 59, 0
3, 5940, Note_on_c, 1, 64, 0
3, 5940, Note_on_c, 1, 64, 60
3, 5940, Note_on_c, 1, 59, 60
3, 5940, Note_on_c, 1, 67, 60
3, 6000, Note_on_c, 1, 67, 0
3, 6000, Note_on_c, 1, 59, 0
3, 6000, Note_on_c, 1, 64, 0
3, 6000, Note_on_c, 1, 64, 60
3, 6000, Note_on_c, 1, 67, 60
3, 6000, Note_on_c, 1, 59, 60
3, 6060, Note_on_c, 1, 59, 0
3, 6060, Note_on_c, 1, 67, 0
3, 6060, Note_on_c, 1, 64, 0
3, 6060, Note_on_c, 1, 64, 60
3, 6060, Note_on_c, 1, 67, 60
3, 6060, Note_on_c, 1, 59, 60
3, 6120, Note_on_c, 1, 59, 0
3, 6120, Note_on_c, 1, 67, 0
3, 6120, Note_on_c, 1, 64, 0
3, 6180, Note_on_c, 1, 59, 60
3, 6180, Note_on_c, 1, 66, 60
3, 6180, Note_on_c, 1, 69, 60
3, 6240, Note_on_c, 1, 69, 0
3, 6240, Note_on_c, 1, 66, 0
3, 6240, Note_on_c, 1, 59, 0
3, 6240, Note_on_c, 1, 66, 60
3, 6240, Note_on_c, 1, 69, 60
3, 6240, Note_on_c, 1, 59, 60
3, 6300, Note_on_c, 1, 59, 0
3, 6300, Note_on_c, 1, 69, 0
3, 6300, Note_on_c, 1, 66, 0
3, 6300, Note_on_c, 1, 59, 60
3, 6300, Note_on_c, 1, 66, 60
3, 6300, Note_on_c, 1, 69, 60
3, 6360, Note_on_c, 1, 69, 0
3, 6360, Note_on_c, 1, 66, 0
3, 6360, Note_on_c, 1, 59, 0
3, 6360, Note_on_c, 1, 59, 60
3, 6360, Note_on_c, 1, 69, 60
3, 6360, Note_on_c, 1, 66, 60
3, 6420, Note_on_c, 1, 66, 0
3, 6420, Note_on_c, 1, 69, 0
3, 6420, Note_on_c, 1, 59, 0
3, 6420, Note_on_c, 1, 59, 60
3, 6420, Note_on_c, 1, 66, 60
3, 6420, Note_on_c, 1, 69, 60
3, 6480, Note_on_c, 1, 69, 0
3, 6480, Note_on_c, 1, 66, 0
3, 6480, Note_on_c, 1, 59, 0
3, 6540, Note_on_c, 1, 59, 60
3, 6540, Note_on_c, 1, 63, 60
3, 6540, Note_on_c, 1, 69, 60
3, 6600, Note_on_c, 1, 69, 0
3, 6600, Note_on_c, 1, 63, 0
3, 6600, Note_on_c, 1, 59, 0
3, 6600, Note_on_c, 1, 59, 60
3, 6600, Note_on_c, 1, 63, 60
3, 6600, Note_on_c, 1, 69, 60
3, 6660, Note_on_c, 1, 69, 0
3, 6660, Note_on_c, 1, 63, 0
3, 6660, Note_on_c, 1, 59, 0
3, 6660, Note_on_c, 1, 59, 60
3, 6660, Note_on_c, 1, 63, 60
3, 6660, Note_on_c, 1, 69, 60
3, 6720, Note_on_c, 1, 69, 0
3, 6720, Note_on_c, 1, 63, 0
3, 6720, Note_on_c, 1, 59, 0
3, 6720, Note_on_c, 1, 59, 60
3, 6720, Note_on_c, 1, 63, 60
3, 6720, Note_on_c, 1, 69, 60
3, 6780, Note_on_c, 1, 69, 0
3, 6780, Note_on_c, 1, 63, 0
3, 6780, Note_on_c, 1, 59, 0
3, 6780, Note_on_c, 1, 59, 60
3, 6780, Note_on_c, 1, 63, 60
3, 6780, Note_on_c, 1, 69, 60
3, 6840, Note_on_c, 1, 69, 0
3, 6840, Note_on_c, 1, 63, 0
3, 6840, Note_on_c, 1, 59, 0
3, 6900, Note_on_c, 1, 59, 60
3, 6900, Note_on_c, 1, 67, 60
3, 6900, Note_on_c, 1, 64, 60
3, 6960, Note_on_c, 1, 64, 0
3, 6960, Note_on_c, 1, 67, 0
3, 6960, Note_on_c, 1, 59, 0
3, 6960, Note_on_c, 1, 59, 60
3, 6960, Note_on_c, 1, 67, 60
3, 6960, Note_on_c, 1, 64, 60
3, 7020, Note_on_c, 1, 64, 0
3, 7020, Note_on_c, 1, 67, 0
3, 7020, Note_on_c, 1, 59, 0
3, 7020, Note_on_c, 1, 59, 60
3, 7020, Note_on_c, 1, 67, 60
3, 7020, Note_on_c, 1, 64, 60
3, 7080, Note_on_c, 1, 64, 0
3, 7080, Note_on_c, 1, 67, 0
3, 7080, Note_on_c, 1, 59, 0
3, 7080, Note_on_c, 1, 59, 60
3, 7080, Note_on_c, 1, 67, 60
3, 7080, Note_on_c, 1, 64, 60
3, 7140, Note_on_c, 1, 64, 0
3, 7140, Note_on_c, 1, 67, 0
3, 7140, Note_on_c, 1, 59, 0
3, 7140, Note_on_c, 1, 59, 60
3, 7140, Note_on_c, 1, 67, 60
3, 7140, Note_on_c, 1, 64, 60
3, 7200, Note_on_c, 1, 64, 0
3, 7200, Note_on_c, 1, 67, 0
3, 7200, Note_on_c, 1, 59, 0
3, 7260, Note_on_c, 1, 68, 61
3, 7260, Note_on_c, 1, 64, 61
3, 7260, Note_on_c, 1, 59, 61
3, 7320, Note_on_c, 1, 59, 0
3, 7320, Note_on_c, 1, 64, 0
3, 7320, Note_on_c, 1, 68, 0
3, 7320, Note_on_c, 1, 68, 65
3, 7320, Note_on_c, 1, 65, 65
3, 7320, Note_on_c, 1, 59, 65
3, 7380, Note_on_c, 1, 59, 0
3, 7380, Note_on_c, 1, 65, 0
3, 7380, Note_on_c, 1, 68, 0
3, 7380, Note_on_c, 1, 68, 69
3, 7380, Note_on_c, 1, 64, 69
3, 7380, Note_on_c, 1, 59, 69
3, 7440, Note_on_c, 1, 59, 0
3, 7440, Note_on_c, 1, 64, 0
3, 7440, Note_on_c, 1, 68, 0
3, 7440, Note_on_c, 1, 68, 71
3, 7440, Note_on_c, 1, 64, 71
3, 7440, Note_on_c, 1, 59, 71
3, 7500, Note_on_c, 1, 59, 0
3, 7500, Note_on_c, 1, 64, 0
3, 7500, Note_on_c, 1, 68, 0
3, 7500, Note_on_c, 1, 68, 76
3, 7500, Note_on_c, 1, 64, 76
3, 7500, Note_on_c, 1, 59, 76
3, 7560, Note_on_c, 1, 59, 0
3, 7560, Note_on_c, 1, 64, 0
3, 7560, Note_on_c, 1, 68, 0
3, 7620, Note_on_c, 1, 69, 82
3, 7620, Note_on_c, 1, 60, 82
3, 7620, Note_on_c, 1, 64, 82
3, 7680, Note_on_c, 1, 64, 0
3, 7680, Note_on_c, 1, 60, 0
3, 7680, Note_on_c, 1, 69, 0
3, 7680, Note_on_c, 1, 69, 86
3, 7680, Note_on_c, 1, 60, 86
3, 7680, Note_on_c, 1, 65, 86
3, 7740, Note_on_c, 1, 65, 0
3, 7740, Note_on_c, 1, 60, 0
3, 7740, Note_on_c, 1, 69, 0
3, 7740, Note_on_c, 1, 69, 88
3, 7740, Note_on_c, 1, 60, 88
3, 7740, Note_on_c, 1, 64, 88
3, 7800, Note_on_c, 1, 64, 0
3, 7800, Note_on_c, 1, 60, 0
3, 7800, Note_on_c, 1, 69, 0
3, 7800, Note_on_c, 1, 71, 92
3, 7800, Note_on_c, 1, 68, 92
3, 7800, Note_on_c, 1, 62, 92
3, 7860, Note_on_c, 1, 62, 0
3, 7860, Note_on_c, 1, 68, 0
3, 7860, Note_on_c, 1, 71, 0
3, 7860, Note_on_c, 1, 72, 94
3, 7860, Note_on_c, 1, 69, 94
3, 7860, Note_on_c, 1, 64, 94
3, 7920, Note_on_c, 1, 64, 0
3, 7920, Note_on_c, 1, 69, 0
3, 7920, Note_on_c, 1, 72, 0
3, 7980, Note_on_c, 1, 74, 98
3, 7980, Note_on_c, 1, 71, 98
3, 7980, Note_on_c, 1, 64, 98
3, 8040, Note_on_c, 1, 64, 0
3, 8040, Note_on_c, 1, 71, 0
3, 8040, Note_on_c, 1, 74, 0
3, 8040, Note_on_c, 1, 74, 100
3, 8040, Note_on_c, 1, 71, 100
3, 8040, Note_on_c, 1, 65, 100
3, 8100, Note_on_c, 1, 65, 0
3, 8100, Note_on_c, 1, 71, 0
3, 8100, Note_on_c, 1, 74, 0
3, 8100, Note_on_c, 1, 74, 100
3, 8100, Note_on_c, 1, 71, 100
3, 8100, Note_on_c, 1, 64, 100
3, 8160, Note_on_c, 1, 64, 0
3, 8160, Note_on_c, 1, 71, 0
3, 8160, Note_on_c, 1, 74, 0
3, 8160, Note_on_c, 1, 72, 99
3, 8160, Note_on_c, 1, 69, 99
3, 8160, Note_on_c, 1, 64, 99
3, 8220, Note_on_c, 1, 64, 0
3, 8220, Note_on_c, 1, 69, 0
3, 8220, Note_on_c, 1, 72, 0
3, 8220, Note_on_c, 1, 72, 93
3, 8220, Note_on_c, 1, 69, 93
3, 8220, Note_on_c, 1, 64, 93
3, 8280, Note_on_c, 1, 64, 0
3, 8280, Note_on_c, 1, 69, 0
3, 8280, Note_on_c, 1, 72, 0
3, 8340, Note_on_c, 1, 72, 78
3, 8340, Note_on_c, 1, 69, 78
3, 8340, Note_on_c, 1, 63, 78
3, 8400, Note_on_c, 1, 63, 0
3, 8400, Note_on_c, 1, 69, 0
3, 8400, Note_on_c, 1, 72, 0
3, 8400, Note_on_c, 1, 64, 73
3, 8400, Note_on_c, 1, 68, 73
3, 8400, Note_on_c, 1, 71, 73
3, 8460, Note_on_c, 1, 71, 0
3, 8460, Note_on_c, 1, 68, 0
3, 8460, Note_on_c, 1, 64, 0
3, 8460, Note_on_c, 1, 65, 67
3, 8520, Note_on_c, 1, 65, 0
3, 8520, Note_on_c, 1, 64, 63
3, 8580, Note_on_c, 1, 64, 0
3, 8580, Note_on_c, 1, 56, 73
3, 8580, Note_on_c, 1, 62, 73
3, 8640, Note_on_c, 1, 62, 0
3, 8640, Note_on_c, 1, 56, 0
3, 8640, Note_on_c, 1, 57, 56
3, 8640, Note_on_c, 1, 60, 56
3, 8760, Note_on_c, 1, 60, 0
3, 8760, Note_on_c, 1, 57, 0
3, 9000, Note_on_c, 1, 74, 55
3, 9000, Note_on_c, 1, 69, 55
3, 9180, Note_on_c, 1, 69, 0
3, 9180, Note_on_c, 1, 74, 0
3, 9180, Note_on_c, 1, 69, 69
3, 9180, Note_on_c, 1, 76, 69
3, 9240, Note_on_c, 1, 76, 0
3, 9240, Note_on_c, 1, 69, 0
3, 9240, Note_on_c, 1, 69, 75
3, 9240, Note_on_c, 1, 77, 75
3, 9300, Note_on_c, 1, 77, 0
3, 9300, Note_on_c, 1, 69, 0
3, 9300, Note_on_c, 1, 69, 79
3, 9300, Note_on_c, 1, 74, 79
3, 9360, Note_on_c, 1, 74, 0
3, 9360, Note_on_c, 1, 69, 0
3, 9360, Note_on_c, 1, 69, 60
3, 9360, Note_on_c, 1, 72, 60
3, 9480, Note_on_c, 1, 72, 0
3, 9480, Note_on_c, 1, 69, 0
3, 9480, Note_on_c, 1, 68, 60
3, 9480, Note_on_c, 1, 71, 60
3, 9600, Note_on_c, 1, 71, 0
3, 9600, Note_on_c, 1, 68, 0
3, 9660, Note_on_c, 1, 71, 60
3, 9660, Note_on_c, 1, 68, 60
3, 9720, Note_on_c, 1, 68, 0
3, 9720, Note_on_c, 1, 71, 0
3, 9720, Note_on_c, 1, 69, 59
3, 9720, Note_on_c, 1, 71, 59
3, 9810, Note_on_c, 1, 71, 0
3, 9810, Note_on_c, 1, 69, 0
3, 9810, Note_on_c, 1, 69, 63
3, 9810, Note_on_c, 1, 71, 63
3, 9840, Note_on_c, 1, 71, 0
3, 9840, Note_on_c, 1, 69, 0
3, 9840, Note_on_c, 1, 69, 64
3, 9840, Note_on_c, 1, 71, 64
3, 9900, Note_on_c, 1, 71, 0
3, 9900, Note_on_c, 1, 69, 0
3, 9900, Note_on_c, 1, 69, 67
3, 9900, Note_on_c, 1, 71, 67
3, 9960, Note_on_c, 1, 71, 0
3, 9960, Note_on_c, 1, 69, 0
3, 9960, Note_on_c, 1, 69, 70
3, 9960, Note_on_c, 1, 71, 70
3, 10020, Note_on_c, 1, 71, 0
3, 10020, Note_on_c, 1, 69, 0
3, 10020, Note_on_c, 1, 69, 71
3, 10020, Note_on_c, 1, 72, 71
3, 10080, Note_on_c, 1, 72, 0
3, 10080, Note_on_c, 1, 69, 0
3, 10080, Note_on_c, 1, 72, 76
3, 10080, Note_on_c, 1, 69, 76
3, 10200, Note_on_c, 1, 69, 0
3, 10200, Note_on_c, 1, 72, 0
3, 10200, Note_on_c, 1, 71, 80
3, 10200, Note_on_c, 1, 68, 80
3, 10320, Note_on_c, 1, 68, 0
3, 10320, Note_on_c, 1, 71, 0
3, 10380, Note_on_c, 1, 59, 60
3, 10380, Note_on_c, 1, 71, 60
3, 10440, Note_on_c, 1, 71, 0
3, 10440, Note_on_c, 1, 59, 0
3, 10440, Note_on_c, 1, 62, 58
3, 10440, Note_on_c, 1, 74, 58
3, 10620, Note_on_c, 1, 74, 0
3, 10620, Note_on_c, 1, 62, 0
3, 10620, Note_on_c, 1, 72, 73
3, 10620, Note_on_c, 1, 60, 73
3, 10680, Note_on_c, 1, 60, 0
3, 10680, Note_on_c, 1, 72, 0
3, 10680, Note_on_c, 1, 71, 76
3, 10680, Note_on_c, 1, 59, 76
3, 10740, Note_on_c, 1, 59, 0
3, 10740, Note_on_c, 1, 71, 0
3, 10740, Note_on_c, 1, 69, 80
3, 10740, Note_on_c, 1, 57, 80
3, 10800, Note_on_c, 1, 57, 0
3, 10800, Note_on_c, 1, 69, 0
3, 10800, Note_on_c, 1, 68, 82
3, 10800, Note_on_c, 1, 56, 82
3, 10890, Note_on_c, 1, 56, 0
3, 10890, Note_on_c, 1, 68, 0
3, 10890, Note_on_c, 1, 68, 85
3, 10890, Note_on_c, 1, 59, 85
3, 10920, Note_on_c, 1, 59, 0
3, 10920, Note_on_c, 1, 68, 0
3, 10920, Note_on_c, 1, 59, 85
3, 10920, Note_on_c, 1, 68, 85
3, 11100, Note_on_c, 1, 68, 0
3, 11100, Note_on_c, 1, 59, 0
3, 11100, Note_on_c, 1, 68, 87
3, 11100, Note_on_c, 1, 59, 87
3, 11160, Note_on_c, 1, 59, 0
3, 11160, Note_on_c, 1, 68, 0
3, 11160, Note_on_c, 1, 68, 60
3, 11160, Note_on_c, 1, 59, 60
3, 11280, Note_on_c, 1, 59, 0
3, 11280, Note_on_c, 1, 68, 0
3, 11280, Note_on_c, 1, 69, 60
3, 11280, Note_on_c, 1, 60, 60
3, 11400, Note_on_c, 1, 60, 0
3, 11400, Note_on_c, 1, 69, 0
3, 11580, Note_on_c, 1, 71, 56
3, 11580, Note_on_c, 1, 69, 56
3, 11580, Note_on_c, 1, 65, 56
3, 11640, Note_on_c, 1, 65, 0
3, 11640, Note_on_c, 1, 69, 0
3, 11640, Note_on_c, 1, 71, 0
3, 11640, Note_on_c, 1, 71, 59
3, 11640, Note_on_c, 1, 69, 59
3, 11640, Note_on_c, 1, 65, 59
3, 11700, Note_on_c, 1, 65, 0
3, 11700, Note_on_c, 1, 69, 0
3, 11700, Note_on_c, 1, 71, 0
3, 11700, Note_on_c, 1, 71, 59
3, 11700, Note_on_c, 1, 69, 59
3, 11700, Note_on_c, 1, 65, 59
3, 11760, Note_on_c, 1, 65, 0
3, 11760, Note_on_c, 1, 69, 0
3, 11760, Note_on_c, 1, 71, 0
3, 11760, Note_on_c, 1, 71, 61
3, 11760, Note_on_c, 1, 69, 61
3, 11760, Note_on_c, 1, 65, 61
3, 11820, Note_on_c, 1, 65, 0
3, 11820, Note_on_c, 1, 69, 0
3, 11820, Note_on_c, 1, 71, 0
3, 11820, Note_on_c, 1, 71, 61
3, 11820, Note_on_c, 1, 69, 61
3, 11820, Note_on_c, 1, 65, 61
3, 11880, Note_on_c, 1, 65, 0
3, 11880, Note_on_c, 1, 69, 0
3, 11880, Note_on_c, 1, 71, 0
3, 11940, Note_on_c, 1, 67, 66
3, 11940, Note_on_c, 1, 69, 66
3, 11940, Note_on_c, 1, 73, 66
3, 12000, Note_on_c, 1, 73, 0
3, 12000, Note_on_c, 1, 69, 0
3, 12000, Note_on_c, 1, 67, 0
3, 12000, Note_on_c, 1, 67, 68
3, 12000, Note_on_c, 1, 73, 68
3, 12000, Note_on_c, 1, 69, 68
3, 12060, Note_on_c, 1, 69, 0
3, 12060, Note_on_c, 1, 73, 0
3, 12060, Note_on_c, 1, 67, 0
3, 12060, Note_on_c, 1, 69, 68
3, 12060, Note_on_c, 1, 67, 68
3, 12060, Note_on_c, 1, 73, 68
3, 12120, Note_on_c, 1, 73, 0
3, 12120, Note_on_c, 1, 67, 0
3, 12120, Note_on_c, 1, 69, 0
3, 12120, Note_on_c, 1, 69, 71
3, 12120, Note_on_c, 1, 67, 71
3, 12120, Note_on_c, 1, 73, 71
3, 12180, Note_on_c, 1, 73, 0
3, 12180, Note_on_c, 1, 67, 0
3, 12180, Note_on_c, 1, 69, 0
3, 12180, Note_on_c, 1, 73, 73
3, 12180, Note_on_c, 1, 69, 73
3, 12180, Note_on_c, 1, 67, 73
3, 12240, Note_on_c, 1, 67, 0
3, 12240, Note_on_c, 1, 69, 0
3, 12240, Note_on_c, 1, 73, 0
3, 12300, Note_on_c, 1, 69, 79
3, 12300, Note_on_c, 1, 74, 79
3, 12360, Note_on_c, 1, 74, 0
3, 12360, Note_on_c, 1, 69, 0
3, 12360, Note_on_c, 1, 69, 82
3, 12360, Note_on_c, 1, 74, 82
3, 12420, Note_on_c, 1, 74, 0
3, 12420, Note_on_c, 1, 69, 0
3, 12420, Note_on_c, 1, 69, 86
3, 12420, Note_on_c, 1, 74, 86
3, 12480, Note_on_c, 1, 74, 0
3, 12480, Note_on_c, 1, 69, 0
3, 12480, Note_on_c, 1, 69, 88
3, 12480, Note_on_c, 1, 76, 88
3, 12540, Note_on_c, 1, 76, 0
3, 12540, Note_on_c, 1, 69, 0
3, 12540, Note_on_c, 1, 69, 92
3, 12540, Note_on_c, 1, 76, 92
3, 12600, Note_on_c, 1, 76, 0
3, 12600, Note_on_c, 1, 69, 0
3, 12600, Note_on_c, 1, 77, 93
3, 12600, Note_on_c, 1, 69, 93
3, 12660, Note_on_c, 1, 69, 0
3, 12660, Note_on_c, 1, 70, 95
3, 12720, Note_on_c, 1, 70, 0
3, 12720, Note_on_c, 1, 71, 98
3, 12900, Note_on_c, 1, 71, 0
3, 12900, Note_on_c, 1, 77, 0
3, 12900, Note_on_c, 1, 71, 60
3, 12900, Note_on_c, 1, 68, 60
3, 12900, Note_on_c, 1, 65, 60
3, 12960, Note_on_c, 1, 65, 0
3, 12960, Note_on_c, 1, 68, 0
3, 12960, Note_on_c, 1, 71, 0
3, 13020, Note_on_c, 1, 69, 60
3, 13020, Note_on_c, 1, 66, 60
3, 13020, Note_on_c, 1, 60, 60
3, 13080, Note_on_c, 1, 60, 0
3, 13080, Note_on_c, 1, 66, 0
3, 13080, Note_on_c, 1, 69, 0
3, 13140, Note_on_c, 1, 60, 60
3, 13140, Note_on_c, 1, 64, 60
3, 13140, Note_on_c, 1, 69, 60
3, 13200, Note_on_c, 1, 69, 0
3, 13200, Note_on_c, 1, 64, 0
3, 13200, Note_on_c, 1, 60, 0
3, 13260, Note_on_c, 1, 68, 60
3, 13260, Note_on_c, 1, 64, 60
3, 13260, Note_on_c, 1, 62, 60
3, 13320, Note_on_c, 1, 62, 0
3, 13320, Note_on_c, 1, 64, 0
3, 13320, Note_on_c, 1, 68, 0
3, 13320, Note_on_c, 1, 69, 60
3, 13320, Note_on_c, 1, 64, 60
3, 13320, Note_on_c, 1, 60, 60
3, 13380, Note_on_c, 1, 60, 0
3, 13380, Note_on_c, 1, 64, 0
3, 13380, Note_on_c, 1, 69, 0
3, 13380, Note_on_c, 1, 76, 60
3, 13380, Note_on_c, 1, 64, 60
3, 13500, Note_on_c, 1, 64, 0
3, 13500, Note_on_c, 1, 76, 0
3, 13500, Note_on_c, 1, 64, 60
3, 13500, Note_on_c, 1, 76, 60
3, 13560, Note_on_c, 1, 76, 0
3, 13560, Note_on_c, 1, 64, 0
3, 13560, Note_on_c, 1, 74, 60
3, 13560, Note_on_c, 1, 68, 60
3, 13560, Note_on_c, 1, 64, 60
3, 13620, Note_on_c, 1, 64, 0
3, 13620, Note_on_c, 1, 68, 0
3, 13620, Note_on_c, 1, 74, 0
3, 13620, Note_on_c, 1, 72, 60
3, 13620, Note_on_c, 1, 69, 60
3, 13620, Note_on_c, 1, 64, 60
3, 13680, Note_on_c, 1, 64, 0
3, 13680, Note_on_c, 1, 69, 0
3, 13680, Note_on_c, 1, 72, 0
3, 13680, Note_on_c, 1, 64, 60
3, 13680, Note_on_c, 1, 71, 60
3, 13800, Note_on_c, 1, 71, 0
3, 13800, Note_on_c, 1, 64, 0
3, 13800, Note_on_c, 1, 71, 60
3, 13800, Note_on_c, 1, 68, 60
3, 13800, Note_on_c, 1, 64, 60
3, 13920, Note_on_c, 1, 64, 0
3, 13920, Note_on_c, 1, 68, 0
3, 13920, Note_on_c, 1, 71, 0
3, 13920, Note_on_c, 1, 72, 60
3, 13920, Note_on_c, 1, 69, 60
3, 13920, Note_on_c, 1, 64, 60
3, 14040, Note_on_c, 1, 64, 0
3, 14040, Note_on_c, 1, 69, 0
3, 14040, Note_on_c, 1, 72, 0
3, 14040, Note_on_c, 1, 71, 60
3, 14040, Note_on_c, 1, 68, 60
3, 14040, Note_on_c, 1, 64, 60
3, 14100, Note_on_c, 1, 64, 0
3, 14100, Note_on_c, 1, 68, 0
3, 14100, Note_on_c, 1, 71, 0
3, 14100, Note_on_c, 1, 64, 60
3, 14100, Note_on_c, 1, 76, 60
3, 14220, Note_on_c, 1, 76, 0
3, 14220, Note_on_c, 1, 64, 0
3, 14220, Note_on_c, 1, 76, 60
3, 14220, Note_on_c, 1, 64, 60
3, 14280, Note_on_c, 1, 64, 0
3, 14280, Note_on_c, 1, 76, 0
3, 14280, Note_on_c, 1, 74, 60
3, 14280, Note_on_c, 1, 68, 60
3, 14280, Note_on_c, 1, 64, 60
3, 14340, Note_on_c, 1, 64, 0
3, 14340, Note_on_c, 1, 68, 0
3, 14340, Note_on_c, 1, 74, 0
3, 14340, Note_on_c, 1, 72, 60
3, 14340, Note_on_c, 1, 69, 60
3, 14340, Note_on_c, 1, 64, 60
3, 14400, Note_on_c, 1, 64, 0
3, 14400, Note_on_c, 1, 69, 0
3, 14400, Note_on_c, 1, 72, 0
3, 14400, Note_on_c, 1, 71, 60
3, 14400, Note_on_c, 1, 64, 60
3, 14520, Note_on_c, 1, 64, 0
3, 14520, Note_on_c, 1, 71, 0
3, 14520, Note_on_c, 1, 71, 60
3, 14520, Note_on_c, 1, 68, 60
3, 14520, Note_on_c, 1, 64, 60
3, 14640, Note_on_c, 1, 64, 0
3, 14640, Note_on_c, 1, 68, 0
3, 14640, Note_on_c, 1, 71, 0
3, 14640, Note_on_c, 1, 72, 60
3, 14640, Note_on_c, 1, 69, 60
3, 14640, Note_on_c, 1, 64, 60
3, 14760, Note_on_c, 1, 64, 0
3, 14760, Note_on_c, 1, 69, 0
3, 14760, Note_on_c, 1, 72, 0
3, 14760, Note_on_c, 1, 71, 60
3, 14760, Note_on_c, 1, 68, 60
3, 14760, Note_on_c, 1, 64, 60
3, 14820, Note_on_c, 1, 64, 0
3, 14820, Note_on_c, 1, 68, 0
3, 14820, Note_on_c, 1, 71, 0
3, 14820, Note_on_c, 1, 76, 60
3, 14820, Note_on_c, 1, 64, 60
3, 14940, Note_on_c, 1, 64, 0
3, 14940, Note_on_c, 1, 76, 0
3, 14940, Note_on_c, 1, 64, 60
3, 14940, Note_on_c, 1, 76, 60
3, 15000, Note_on_c, 1, 76, 0
3, 15000, Note_on_c, 1, 64, 0
3, 15000, Note_on_c, 1, 74, 60
3, 15000, Note_on_c, 1, 68, 60
3, 15000, Note_on_c, 1, 64, 60
3, 15060, Note_on_c, 1, 64, 0
3, 15060, Note_on_c, 1, 68, 0
3, 15060, Note_on_c, 1, 74, 0
3, 15060, Note_on_c, 1, 72, 60
3, 15060, Note_on_c, 1, 69, 60
3, 15060, Note_on_c, 1, 64, 60
3, 15120, Note_on_c, 1, 64, 0
3, 15120, Note_on_c, 1, 69, 0
3, 15120, Note_on_c, 1, 72, 0
3, 15120, Note_on_c, 1, 65, 95
3, 15120, Note_on_c, 1, 71, 95
3, 15120, Note_on_c, 1, 69, 95
3, 15360, Note_on_c, 1, 69, 0
3, 15360, Note_on_c, 1, 71, 0
3, 15360, Note_on_c, 1, 65, 0
3, 15360, Note_on_c, 1, 69, 94
3, 15360, Note_on_c, 1, 71, 94
3, 15360, Note_on_c, 1, 65, 94
3, 15480, Note_on_c, 1, 65, 0
3, 15480, Note_on_c, 1, 71, 0
3, 15480, Note_on_c, 1, 69, 0
3, 15480, Note_on_c, 1, 69, 92
3, 15480, Note_on_c, 1, 66, 92
3, 15480, Note_on_c, 1, 72, 92
3, 15720, Note_on_c, 1, 72, 0
3, 15720, Note_on_c, 1, 66, 0
3, 15720, Note_on_c, 1, 69, 0
3, 15720, Note_on_c, 1, 60, 66
3, 15720, Note_on_c, 1, 69, 66
3, 15720, Note_on_c, 1, 66, 66
3, 15840, Note_on_c, 1, 66, 0
3, 15840, Note_on_c, 1, 69, 0
3, 15840, Note_on_c, 1, 60, 0
3, 15840, Note_on_c, 1, 59, 66
3, 15840, Note_on_c, 1, 64, 66
3, 15840, Note_on_c, 1, 68, 66
3, 15960, Note_on_c, 1, 68, 0
3, 15960, Note_on_c, 1, 64, 0
3, 15960, Note_on_c, 1, 59, 0
3, 15960, Note_on_c, 1, 76, 65
3, 15960, Note_on_c, 1, 68, 65
3, 16080, Note_on_c, 1, 68, 0
3, 16080, Note_on_c, 1, 76, 0
3, 16080, Note_on_c, 1, 76, 62
3, 16080, Note_on_c, 1, 68, 62
3, 16200, Note_on_c, 1, 68, 0
3, 16200, Note_on_c, 1, 76, 0
3, 16200, Note_on_c, 1, 75, 104
3, 16200, Note_on_c, 1, 69, 104
3, 16560, Note_on_c, 1, 69, 0
3, 16560, Note_on_c, 1, 75, 0
3, 16560, Note_on_c, 1, 76, 55
3, 16560, Note_on_c, 1, 68, 55
3, 16800, Note_on_c, 1, 68, 0
3, 16800, Note_on_c, 1, 76, 0
3, 16800, Note_on_c, 1, 59, 49
3, 16800, Note_on_c, 1, 64, 49
3, 16800, Note_on_c, 1, 56, 49
3, 16920, Note_on_c, 1, 56, 0
3, 16920, Note_on_c, 1, 64, 0
3, 16920, Note_on_c, 1, 59, 0
3, 16920, Note_on_c, 1, 64, 44
3, 16920, Note_on_c, 1, 56, 44
3, 16920, Note_on_c, 1, 59, 44
3, 17160, Note_on_c, 1, 59, 0
3, 17160, Note_on_c, 1, 56, 0
3, 17160, Note_on_c, 1, 64, 0
3, 18720, Note_on_c, 1, 57, 57
3, 18720, Note_on_c, 1, 59, 57
3, 18960, Note_on_c, 1, 59, 0
3, 18960, Note_on_c, 1, 57, 0
3, 18960, Note_on_c, 1, 61, 57
3, 19020, Note_on_c, 1, 61, 0
3, 19020, Note_on_c, 1, 63, 57
3, 19080, Note_on_c, 1, 63, 0
3, 19080, Note_on_c, 1, 64, 57
3, 19320, Note_on_c, 1, 64, 0
3, 19320, Note_on_c, 1, 61, 57
3, 19380, Note_on_c, 1, 61, 0
3, 19380, Note_on_c, 1, 66, 57
3, 19440, Note_on_c, 1, 66, 0
3, 19440, Note_on_c, 1, 64, 57
3, 19680, Note_on_c, 1, 64, 0
3, 19680, Note_on_c, 1, 63, 57
3, 19800, Note_on_c, 1, 63, 0
3, 19800, Note_on_c, 1, 56, 57
3, 19800, Note_on_c, 1, 64, 57
3, 19920, Note_on_c, 1, 64, 0
3, 19920, Note_on_c, 1, 56, 0
3, 20220, Note_on_c, 1, 76, 57
3, 20250, Note_on_c, 1, 76, 0
3, 20250, Note_on_c, 1, 75, 57
3, 20280, Note_on_c, 1, 75, 0
3, 20280, Note_on_c, 1, 76, 57
3, 20340, Note_on_c, 1, 76, 0
3, 20340, Note_on_c, 1, 73, 57
3, 20400, Note_on_c, 1, 73, 0
3, 20400, Note_on_c, 1, 71, 57
3, 20460, Note_on_c, 1, 71, 0
3, 20460, Note_on_c, 1, 69, 57
3, 20520, Note_on_c, 1, 69, 0
3, 20520, Note_on_c, 1, 68, 57
3, 20580, Note_on_c, 1, 68, 0
3, 20580, Note_on_c, 1, 66, 57
3, 20640, Note_on_c, 1, 66, 0
3, 20640, Note_on_c, 1, 64, 57
3, 20700, Note_on_c, 1, 64, 0
3, 20700, Note_on_c, 1, 62, 57
3, 20760, Note_on_c, 1, 62, 0
3, 20760, Note_on_c, 1, 61, 57
3, 20820, Note_on_c, 1, 61, 0
3, 20820, Note_on_c, 1, 59, 57
3, 20880, Note_on_c, 1, 59, 0
3, 20880, Note_on_c, 1, 61, 57
3, 20940, Note_on_c, 1, 61, 0
3, 20940, Note_on_c, 1, 64, 57
3, 20970, Note_on_c, 1, 64, 0
3, 20970, Note_on_c, 1, 69, 57
3, 21000, Note_on_c, 1, 69, 0
3, 21000, Note_on_c, 1, 73, 57
3, 21060, Note_on_c, 1, 73, 0
3, 21060, Note_on_c, 1, 64, 57
3, 21060, Note_on_c, 1, 71, 57
3, 21120, Note_on_c, 1, 71, 0
3, 21120, Note_on_c, 1, 64, 0
3, 21120, Note_on_c, 1, 73, 57
3, 21120, Note_on_c, 1, 69, 57
3, 21120, Note_on_c, 1, 64, 57
3, 21180, Note_on_c, 1, 64, 0
3, 21180, Note_on_c, 1, 69, 0
3, 21180, Note_on_c, 1, 73, 0
3, 21180, Note_on_c, 1, 74, 57
3, 21180, Note_on_c, 1, 71, 57
3, 21180, Note_on_c, 1, 66, 57
3, 21240, Note_on_c, 1, 66, 0
3, 21240, Note_on_c, 1, 71, 0
3, 21240, Note_on_c, 1, 74, 0
3, 21240, Note_on_c, 1, 73, 57
3, 21240, Note_on_c, 1, 69, 57
3, 21300, Note_on_c, 1, 69, 0
3, 21300, Note_on_c, 1, 64, 57
3, 21360, Note_on_c, 1, 64, 0
3, 21360, Note_on_c, 1, 73, 0
3, 21360, Note_on_c, 1, 71, 57
3, 21360, Note_on_c, 1, 68, 57
3, 21420, Note_on_c, 1, 68, 0
3, 21420, Note_on_c, 1, 64, 57
3, 21480, Note_on_c, 1, 64, 0
3, 21480, Note_on_c, 1, 71, 0
3, 21480, Note_on_c, 1, 71, 57
3, 21480, Note_on_c, 1, 68, 57
3, 21540, Note_on_c, 1, 68, 0
3, 21540, Note_on_c, 1, 64, 57
3, 21600, Note_on_c, 1, 64, 0
3, 21600, Note_on_c, 1, 71, 0
3, 21600, Note_on_c, 1, 69, 59
3, 21660, Note_on_c, 1, 69, 0
3, 21660, Note_on_c, 1, 81, 67
3, 21690, Note_on_c, 1, 81, 0
3, 21690, Note_on_c, 1, 80, 69
3, 21720, Note_on_c, 1, 80, 0
3, 21720, Note_on_c, 1, 81, 71
3, 21780, Note_on_c, 1, 81, 0
3, 21780, Note_on_c, 1, 78, 73
3, 21840, Note_on_c, 1, 78, 0
3, 21840, Note_on_c, 1, 75, 76
3, 21900, Note_on_c, 1, 75, 0
3, 21900, Note_on_c, 1, 69, 82
3, 21960, Note_on_c, 1, 69, 0
3, 21960, Note_on_c, 1, 71, 88
3, 22020, Note_on_c, 1, 71, 0
3, 22020, Note_on_c, 1, 76, 91
3, 22050, Note_on_c, 1, 76, 0
3, 22050, Note_on_c, 1, 75, 92
3, 22080, Note_on_c, 1, 75, 0
3, 22080, Note_on_c, 1, 76, 94
3, 22140, Note_on_c, 1, 76, 0
3, 22140, Note_on_c, 1, 68, 96
3, 22200, Note_on_c, 1, 68, 0
3, 22200, Note_on_c, 1, 73, 98
3, 22260, Note_on_c, 1, 73, 0
3, 22260, Note_on_c, 1, 69, 102
3, 22260, Note_on_c, 1, 78, 102
3, 22320, Note_on_c, 1, 78, 0
3, 22320, Note_on_c, 1, 69, 0
3, 22320, Note_on_c, 1, 68, 57
3, 22320, Note_on_c, 1, 76, 57
3, 22380, Note_on_c, 1, 68, 0
3, 22380, Note_on_c, 1, 71, 57
3, 22410, Note_on_c, 1, 71, 0
3, 22410, Note_on_c, 1, 69, 57
3, 22440, Note_on_c, 1, 69, 0
3, 22440, Note_on_c, 1, 68, 57
3, 22500, Note_on_c, 1, 68, 0
3, 22500, Note_on_c, 1, 71, 57
3, 22560, Note_on_c, 1, 71, 0
3, 22560, Note_on_c, 1, 76, 0
3, 22560, Note_on_c, 1, 66, 57
3, 22560, Note_on_c, 1, 75, 57
3, 22620, Note_on_c, 1, 66, 0
3, 22620, Note_on_c, 1, 69, 57
3, 22680, Note_on_c, 1, 69, 0
3, 22680, Note_on_c, 1, 75, 0
3, 22680, Note_on_c, 1, 68, 57
3, 22680, Note_on_c, 1, 76, 57
3, 22740, Note_on_c, 1, 76, 0
3, 22740, Note_on_c, 1, 68, 0
3, 22740, Note_on_c, 1, 64, 61
3, 22800, Note_on_c, 1, 64, 0
3, 22800, Note_on_c, 1, 56, 70
3, 22800, Note_on_c, 1, 59, 70
3, 22860, Note_on_c, 1, 59, 0
3, 22860, Note_on_c, 1, 56, 0
3, 22860, Note_on_c, 1, 64, 78
3, 22920, Note_on_c, 1, 64, 0
3, 22920, Note_on_c, 1, 56, 87
3, 22920, Note_on_c, 1, 59, 87
3, 22980, Note_on_c, 1, 59, 0
3, 22980, Note_on_c, 1, 56, 0
3, 22980, Note_on_c, 1, 64, 92
3, 23040, Note_on_c, 1, 64, 0
3, 23040, Note_on_c, 1, 57, 57
3, 23040, Note_on_c, 1, 61, 57
3, 23040, Note_on_c, 1, 64, 57
3, 23100, Note_on_c, 1, 64, 0
3, 23100, Note_on_c, 1, 61, 0
3, 23100, Note_on_c, 1, 57, 0
3, 23100, Note_on_c, 1, 69, 57
3, 23130, Note_on_c, 1, 69, 0
3, 23130, Note_on_c, 1, 68, 57
3, 23160, Note_on_c, 1, 68, 0
3, 23160, Note_on_c, 1, 69, 57
3, 23220, Note_on_c, 1, 69, 0
3, 23220, Note_on_c, 1, 64, 57
3, 23280, Note_on_c, 1, 64, 0
3, 23280, Note_on_c, 1, 61, 57
3, 23340, Note_on_c, 1, 61, 0
3, 23340, Note_on_c, 1, 57, 57
3, 23400, Note_on_c, 1, 57, 0
3, 23400, Note_on_c, 1, 69, 61
3, 23460, Note_on_c, 1, 69, 0
3, 23460, Note_on_c, 1, 69, 65
3, 23490, Note_on_c, 1, 69, 0
3, 23490, Note_on_c, 1, 68, 68
3, 23520, Note_on_c, 1, 68, 0
3, 23520, Note_on_c, 1, 69, 71
3, 23580, Note_on_c, 1, 69, 0
3, 23580, Note_on_c, 1, 57, 74
3, 23640, Note_on_c, 1, 57, 0
3, 23640, Note_on_c, 1, 70, 81
3, 23700, Note_on_c, 1, 70, 0
3, 23700, Note_on_c, 1, 58, 89
3, 23760, Note_on_c, 1, 58, 0
3, 23760, Note_on_c, 1, 71, 92
3, 23820, Note_on_c, 1, 71, 0
3, 23820, Note_on_c, 1, 78, 95
3, 23820, Note_on_c, 1, 66, 95
3, 23880, Note_on_c, 1, 66, 0
3, 23880, Note_on_c, 1, 78, 0
3, 23880, Note_on_c, 1, 76, 98
3, 23880, Note_on_c, 1, 66, 98
3, 23940, Note_on_c, 1, 66, 0
3, 23940, Note_on_c, 1, 76, 0
3, 23940, Note_on_c, 1, 74, 101
3, 23940, Note_on_c, 1, 66, 101
3, 24000, Note_on_c, 1, 66, 0
3, 24000, Note_on_c, 1, 74, 0
3, 24000, Note_on_c, 1, 73, 105
3, 24000, Note_on_c, 1, 64, 105
3, 24060, Note_on_c, 1, 64, 0
3, 24060, Note_on_c, 1, 73, 0
3, 24060, Note_on_c, 1, 71, 108
3, 24060, Note_on_c, 1, 62, 108
3, 24120, Note_on_c, 1, 62, 0
3, 24120, Note_on_c, 1, 71, 0
3, 24120, Note_on_c, 1, 69, 57
3, 24120, Note_on_c, 1, 61, 57
3, 24180, Note_on_c, 1, 61, 0
3, 24180, Note_on_c, 1, 64, 57
3, 24240, Note_on_c, 1, 64, 0
3, 24240, Note_on_c, 1, 69, 0
3, 24240, Note_on_c, 1, 68, 57
3, 24240, Note_on_c, 1, 59, 57
3, 24300, Note_on_c, 1, 59, 0
3, 24300, Note_on_c, 1, 64, 57
3, 24360, Note_on_c, 1, 64, 0
3, 24360, Note_on_c, 1, 68, 0
3, 24360, Note_on_c, 1, 68, 57
3, 24360, Note_on_c, 1, 59, 57
3, 24420, Note_on_c, 1, 59, 0
3, 24420, Note_on_c, 1, 64, 57
3, 24480, Note_on_c, 1, 64, 0
3, 24480, Note_on_c, 1, 68, 0
3, 24480, Note_on_c, 1, 69, 87
3, 24540, Note_on_c, 1, 69, 0
3, 24540, Note_on_c, 1, 76, 57
3, 24570, Note_on_c, 1, 76, 0
3, 24570, Note_on_c, 1, 75, 57
3, 24600, Note_on_c, 1, 75, 0
3, 24600, Note_on_c, 1, 76, 57
3, 24600, Note_on_c, 1, 76, 57
3, 24660, Note_on_c, 1, 76, 0
3, 24660, Note_on_c, 1, 64, 57
3, 24720, Note_on_c, 1, 76, 0
3, 24720, Note_on_c, 1, 74, 57
3, 24780, Note_on_c, 1, 74, 0
3, 24780, Note_on_c, 1, 73, 57
3, 24840, Note_on_c, 1, 73, 0
3, 24840, Note_on_c, 1, 64, 0
3, 24840, Note_on_c, 1, 74, 87
3, 24900, Note_on_c, 1, 74, 0
3, 24900, Note_on_c, 1, 81, 57
3, 24930, Note_on_c, 1, 81, 0
3, 24930, Note_on_c, 1, 80, 57
3, 24960, Note_on_c, 1, 80, 0
3, 24960, Note_on_c, 1, 81, 57
3, 24960, Note_on_c, 1, 81, 57
3, 25020, Note_on_c, 1, 81, 0
3, 25020, Note_on_c, 1, 69, 57
3, 25080, Note_on_c, 1, 81, 0
3, 25080, Note_on_c, 1, 79, 57
3, 25140, Note_on_c, 1, 79, 0
3, 25140, Note_on_c, 1, 78, 57
3, 25200, Note_on_c, 1, 78, 0
3, 25200, Note_on_c, 1, 69, 0
3, 25200, Note_on_c, 1, 73, 57
3, 25260, Note_on_c, 1, 73, 0
3, 25260, Note_on_c, 1, 76, 57
3, 25320, Note_on_c, 1, 76, 0
3, 25320, Note_on_c, 1, 73, 57
3, 25380, Note_on_c, 1, 73, 0
3, 25380, Note_on_c, 1, 69, 57
3, 25440, Note_on_c, 1, 69, 0
3, 25440, Note_on_c, 1, 68, 57
3, 25500, Note_on_c, 1, 68, 0
3, 25500, Note_on_c, 1, 62, 57
3, 25560, Note_on_c, 1, 62, 0
3, 25560, Note_on_c, 1, 61, 57
3, 25620, Note_on_c, 1, 61, 0
3, 25620, Note_on_c, 1, 69, 57
3, 25680, Note_on_c, 1, 69, 0
3, 25680, Note_on_c, 1, 68, 57
3, 25740, Note_on_c, 1, 68, 0
3, 25740, Note_on_c, 1, 66, 57
3, 25800, Note_on_c, 1, 66, 0
3, 25800, Note_on_c, 1, 64, 57
3, 25860, Note_on_c, 1, 64, 0
3, 25860, Note_on_c, 1, 62, 57
3, 25920, Note_on_c, 1, 62, 0
3, 25980, Note_on_c, 1, 78, 61
3, 26010, Note_on_c, 1, 78, 0
3, 26010, Note_on_c, 1, 80, 65
3, 26040, Note_on_c, 1, 80, 0
3, 26040, Note_on_c, 1, 76, 70
3, 26070, Note_on_c, 1, 76, 0
3, 26070, Note_on_c, 1, 78, 75
3, 26100, Note_on_c, 1, 78, 0
3, 26100, Note_on_c, 1, 74, 79
3, 26130, Note_on_c, 1, 74, 0
3, 26130, Note_on_c, 1, 76, 82
3, 26160, Note_on_c, 1, 76, 0
3, 26160, Note_on_c, 1, 73, 85
3, 26190, Note_on_c, 1, 73, 0
3, 26190, Note_on_c, 1, 74, 88
3, 26220, Note_on_c, 1, 74, 0
3, 26220, Note_on_c, 1, 71, 95
3, 26250, Note_on_c, 1, 71, 0
3, 26250, Note_on_c, 1, 73, 101
3, 26280, Note_on_c, 1, 73, 0
3, 26280, Note_on_c, 1, 69, 57
3, 26310, Note_on_c, 1, 69, 0
3, 26310, Note_on_c, 1, 64, 57
3, 26340, Note_on_c, 1, 64, 0
3, 26340, Note_on_c, 1, 69, 57
3, 26370, Note_on_c, 1, 69, 0
3, 26370, Note_on_c, 1, 73, 57
3, 26400, Note_on_c, 1, 73, 0
3, 26400, Note_on_c, 1, 76, 57
3, 26430, Note_on_c, 1, 76, 0
3, 26430, Note_on_c, 1, 64, 57
3, 26460, Note_on_c, 1, 64, 0
3, 26460, Note_on_c, 1, 69, 57
3, 26490, Note_on_c, 1, 69, 0
3, 26490, Note_on_c, 1, 73, 57
3, 26520, Note_on_c, 1, 73, 0
3, 26520, Note_on_c, 1, 76, 57
3, 26550, Note_on_c, 1, 76, 0
3, 26550, Note_on_c, 1, 73, 57
3, 26580, Note_on_c, 1, 73, 0
3, 26580, Note_on_c, 1, 71, 57
3, 26610, Note_on_c, 1, 71, 0
3, 26610, Note_on_c, 1, 69, 57
3, 26640, Note_on_c, 1, 69, 0
3, 26640, Note_on_c, 1, 71, 57
3, 26670, Note_on_c, 1, 71, 0
3, 26670, Note_on_c, 1, 64, 57
3, 26700, Note_on_c, 1, 64, 0
3, 26700, Note_on_c, 1, 68, 57
3, 26730, Note_on_c, 1, 68, 0
3, 26730, Note_on_c, 1, 71, 57
3, 26760, Note_on_c, 1, 71, 0
3, 26760, Note_on_c, 1, 76, 57
3, 26790, Note_on_c, 1, 76, 0
3, 26790, Note_on_c, 1, 64, 57
3, 26820, Note_on_c, 1, 64, 0
3, 26820, Note_on_c, 1, 68, 57
3, 26850, Note_on_c, 1, 68, 0
3, 26850, Note_on_c, 1, 71, 57
3, 26880, Note_on_c, 1, 71, 0
3, 26880, Note_on_c, 1, 76, 57
3, 26910, Note_on_c, 1, 76, 0
3, 26910, Note_on_c, 1, 74, 57
3, 26940, Note_on_c, 1, 74, 0
3, 26940, Note_on_c, 1, 73, 57
3, 26970, Note_on_c, 1, 73, 0
3, 26970, Note_on_c, 1, 71, 57
3, 27000, Note_on_c, 1, 71, 0
3, 27000, Note_on_c, 1, 73, 57
3, 27030, Note_on_c, 1, 73, 0
3, 27030, Note_on_c, 1, 64, 57
3, 27060, Note_on_c, 1, 64, 0
3, 27060, Note_on_c, 1, 69, 57
3, 27090, Note_on_c, 1, 69, 0
3, 27090, Note_on_c, 1, 73, 57
3, 27120, Note_on_c, 1, 73, 0
3, 27120, Note_on_c, 1, 76, 57
3, 27150, Note_on_c, 1, 76, 0
3, 27150, Note_on_c, 1, 64, 57
3, 27180, Note_on_c, 1, 64, 0
3, 27180, Note_on_c, 1, 76, 57
3, 27210, Note_on_c, 1, 76, 0
3, 27210, Note_on_c, 1, 64, 57
3, 27240, Note_on_c, 1, 64, 0
3, 27240, Note_on_c, 1, 76, 57
3, 27270, Note_on_c, 1, 76, 0
3, 27270, Note_on_c, 1, 64, 57
3, 27300, Note_on_c, 1, 64, 0
3, 27300, Note_on_c, 1, 76, 57
3, 27330, Note_on_c, 1, 76, 0
3, 27330, Note_on_c, 1, 64, 57
3, 27360, Note_on_c, 1, 64, 0
3, 27360, Note_on_c, 1, 76, 57
3, 27390, Note_on_c, 1, 76, 0
3, 27390, Note_on_c, 1, 64, 57
3, 27420, Note_on_c, 1, 64, 0
3, 27420, Note_on_c, 1, 76, 57
3, 27450, Note_on_c, 1, 76, 0
3, 27450, Note_on_c, 1, 64, 57
3, 27480, Note_on_c, 1, 64, 0
3, 27480, Note_on_c, 1, 76, 57
3, 27510, Note_on_c, 1, 76, 0
3, 27510, Note_on_c, 1, 64, 57
3, 27540, Note_on_c, 1, 64, 0
3, 27540, Note_on_c, 1, 76, 57
3, 27570, Note_on_c, 1, 76, 0
3, 27570, Note_on_c, 1, 64, 57
3, 27600, Note_on_c, 1, 64, 0
3, 27600, Note_on_c, 1, 76, 57
3, 27630, Note_on_c, 1, 76, 0
3, 27630, Note_on_c, 1, 80, 57
3, 27660, Note_on_c, 1, 80, 0
3, 27660, Note_on_c, 1, 78, 57
3, 27690, Note_on_c, 1, 78, 0
3, 27690, Note_on_c, 1, 76, 57
3, 27720, Note_on_c, 1, 76, 0
3, 27720, Note_on_c, 1, 75, 62
3, 27750, Note_on_c, 1, 75, 0
3, 27750, Note_on_c, 1, 69, 64
3, 27780, Note_on_c, 1, 69, 0
3, 27780, Note_on_c, 1, 75, 68
3, 27810, Note_on_c, 1, 75, 0
3, 27810, Note_on_c, 1, 78, 73
3, 27840, Note_on_c, 1, 78, 0
3, 27840, Note_on_c, 1, 81, 77
3, 27870, Note_on_c, 1, 81, 0
3, 27870, Note_on_c, 1, 80, 81
3, 27900, Note_on_c, 1, 80, 0
3, 27900, Note_on_c, 1, 78, 84
3, 27930, Note_on_c, 1, 78, 0
3, 27930, Note_on_c, 1, 76, 90
3, 27960, Note_on_c, 1, 76, 0
3, 27960, Note_on_c, 1, 75, 93
3, 27990, Note_on_c, 1, 75, 0
3, 27990, Note_on_c, 1, 73, 96
3, 28020, Note_on_c, 1, 73, 0
3, 28020, Note_on_c, 1, 71, 99
3, 28050, Note_on_c, 1, 71, 0
3, 28050, Note_on_c, 1, 69, 103
3, 28080, Note_on_c, 1, 69, 0
3, 28080, Note_on_c, 1, 68, 102
3, 28110, Note_on_c, 1, 68, 0
3, 28110, Note_on_c, 1, 71, 102
3, 28140, Note_on_c, 1, 71, 0
3, 28140, Note_on_c, 1, 76, 103
3, 28170, Note_on_c, 1, 76, 0
3, 28170, Note_on_c, 1, 80, 103
3, 28200, Note_on_c, 1, 80, 0
3, 28200, Note_on_c, 1, 83, 103
3, 28230, Note_on_c, 1, 83, 0
3, 28230, Note_on_c, 1, 71, 105
3, 28260, Note_on_c, 1, 71, 0
3, 28260, Note_on_c, 1, 83, 105
3, 28290, Note_on_c, 1, 83, 0
3, 28290, Note_on_c, 1, 71, 106
3, 28320, Note_on_c, 1, 71, 0
3, 28320, Note_on_c, 1, 73, 106
3, 28350, Note_on_c, 1, 73, 0
3, 28350, Note_on_c, 1, 81, 106
3, 28380, Note_on_c, 1, 81, 0
3, 28380, Note_on_c, 1, 83, 106
3, 28410, Note_on_c, 1, 83, 0
3, 28410, Note_on_c, 1, 81, 106
3, 28440, Note_on_c, 1, 81, 0
3, 28440, Note_on_c, 1, 71, 106
3, 28470, Note_on_c, 1, 71, 0
3, 28470, Note_on_c, 1, 80, 106
3, 28500, Note_on_c, 1, 80, 0
3, 28500, Note_on_c, 1, 81, 106
3, 28530, Note_on_c, 1, 81, 0
3, 28530, Note_on_c, 1, 80, 106
3, 28560, Note_on_c, 1, 80, 0
3, 28560, Note_on_c, 1, 71, 106
3, 28590, Note_on_c, 1, 71, 0
3, 28590, Note_on_c, 1, 80, 106
3, 28620, Note_on_c, 1, 80, 0
3, 28620, Note_on_c, 1, 81, 105
3, 28650, Note_on_c, 1, 81, 0
3, 28650, Note_on_c, 1, 80, 104
3, 28680, Note_on_c, 1, 80, 0
3, 28680, Note_on_c, 1, 69, 103
3, 28710, Note_on_c, 1, 69, 0
3, 28710, Note_on_c, 1, 78, 103
3, 28740, Note_on_c, 1, 78, 0
3, 28740, Note_on_c, 1, 80, 102
3, 28770, Note_on_c, 1, 80, 0
3, 28770, Note_on_c, 1, 78, 100
3, 28800, Note_on_c, 1, 78, 0
3, 28800, Note_on_c, 1, 76, 57
3, 28800, Note_on_c, 1, 68, 57
3, 28860, Note_on_c, 1, 68, 0
3, 28860, Note_on_c, 1, 76, 0
3, 28860, Note_on_c, 1, 59, 57
3, 28890, Note_on_c, 1, 59, 0
3, 28890, Note_on_c, 1, 57, 57
3, 28920, Note_on_c, 1, 57, 0
3, 28920, Note_on_c, 1, 56, 57
3, 28950, Note_on_c, 1, 56, 0
3, 28950, Note_on_c, 1, 57, 57
3, 28980, Note_on_c, 1, 57, 0
3, 28980, Note_on_c, 1, 59, 57
3, 29010, Note_on_c, 1, 59, 0
3, 29010, Note_on_c, 1, 61, 57
3, 29040, Note_on_c, 1, 61, 0
3, 29040, Note_on_c, 1, 62, 57
3, 29070, Note_on_c, 1, 62, 0
3, 29070, Note_on_c, 1, 64, 57
3, 29100, Note_on_c, 1, 64, 0
3, 29100, Note_on_c, 1, 66, 57
3, 29130, Note_on_c, 1, 66, 0
3, 29130, Note_on_c, 1, 68, 57
3, 29160, Note_on_c, 1, 68, 0
3, 29160, Note_on_c, 1, 69, 58
3, 29190, Note_on_c, 1, 69, 0
3, 29190, Note_on_c, 1, 64, 61
3, 29220, Note_on_c, 1, 64, 0
3, 29220, Note_on_c, 1, 61, 62
3, 29250, Note_on_c, 1, 61, 0
3, 29250, Note_on_c, 1, 57, 62
3, 29280, Note_on_c, 1, 57, 0
3, 29280, Note_on_c, 1, 69, 64
3, 29310, Note_on_c, 1, 69, 0
3, 29310, Note_on_c, 1, 64, 64
3, 29340, Note_on_c, 1, 64, 0
3, 29340, Note_on_c, 1, 61, 67
3, 29370, Note_on_c, 1, 61, 0
3, 29370, Note_on_c, 1, 57, 69
3, 29400, Note_on_c, 1, 57, 0
3, 29400, Note_on_c, 1, 69, 71
3, 29430, Note_on_c, 1, 69, 0
3, 29430, Note_on_c, 1, 64, 73
3, 29460, Note_on_c, 1, 64, 0
3, 29460, Note_on_c, 1, 61, 76
3, 29490, Note_on_c, 1, 61, 0
3, 29490, Note_on_c, 1, 57, 79
3, 29520, Note_on_c, 1, 57, 0
3, 29520, Note_on_c, 1, 69, 81
3, 29550, Note_on_c, 1, 69, 0
3, 29550, Note_on_c, 1, 64, 82
3, 29580, Note_on_c, 1, 64, 0
3, 29580, Note_on_c, 1, 61, 85
3, 29610, Note_on_c, 1, 61, 0
3, 29610, Note_on_c, 1, 57, 85
3, 29640, Note_on_c, 1, 57, 0
3, 29640, Note_on_c, 1, 69, 85
3, 29670, Note_on_c, 1, 69, 0
3, 29670, Note_on_c, 1, 64, 88
3, 29700, Note_on_c, 1, 64, 0
3, 29700, Note_on_c, 1, 61, 89
3, 29730, Note_on_c, 1, 61, 0
3, 29730, Note_on_c, 1, 57, 92
3, 29760, Note_on_c, 1, 57, 0
3, 29760, Note_on_c, 1, 70, 94
3, 29790, Note_on_c, 1, 70, 0
3, 29790, Note_on_c, 1, 58, 97
3, 29820, Note_on_c, 1, 58, 0
3, 29820, Note_on_c, 1, 70, 100
3, 29850, Note_on_c, 1, 70, 0
3, 29850, Note_on_c, 1, 58, 97
3, 29880, Note_on_c, 1, 58, 0
3, 29880, Note_on_c, 1, 71, 98
3, 29940, Note_on_c, 1, 71, 0
3, 29940, Note_on_c, 1, 66, 100
3, 29970, Note_on_c, 1, 66, 0
3, 29970, Note_on_c, 1, 78, 100
3, 30000, Note_on_c, 1, 78, 0
3, 30000, Note_on_c, 1, 66, 100
3, 30030, Note_on_c, 1, 66, 0
3, 30030, Note_on_c, 1, 76, 100
3, 30060, Note_on_c, 1, 76, 0
3, 30060, Note_on_c, 1, 66, 100
3, 30090, Note_on_c, 1, 66, 0
3, 30090, Note_on_c, 1, 74, 100
3, 30120, Note_on_c, 1, 74, 0
3, 30120, Note_on_c, 1, 64, 100
3, 30150, Note_on_c, 1, 64, 0
3, 30150, Note_on_c, 1, 73, 100
3, 30180, Note_on_c, 1, 73, 0
3, 30180, Note_on_c, 1, 62, 100
3, 30210, Note_on_c, 1, 62, 0
3, 30210, Note_on_c, 1, 71, 100
3, 30240, Note_on_c, 1, 71, 0
3, 30240, Note_on_c, 1, 61, 57
3, 30270, Note_on_c, 1, 61, 0
3, 30270, Note_on_c, 1, 64, 57
3, 30300, Note_on_c, 1, 64, 0
3, 30300, Note_on_c, 1, 69, 57
3, 30330, Note_on_c, 1, 69, 0
3, 30330, Note_on_c, 1, 64, 57
3, 30360, Note_on_c, 1, 64, 0
3, 30360, Note_on_c, 1, 59, 57
3, 30390, Note_on_c, 1, 59, 0
3, 30390, Note_on_c, 1, 64, 60
3, 30420, Note_on_c, 1, 64, 0
3, 30420, Note_on_c, 1, 68, 63
3, 30450, Note_on_c, 1, 68, 0
3, 30450, Note_on_c, 1, 64, 65
3, 30480, Note_on_c, 1, 64, 0
3, 30480, Note_on_c, 1, 59, 69
3, 30510, Note_on_c, 1, 59, 0
3, 30510, Note_on_c, 1, 64, 71
3, 30540, Note_on_c, 1, 64, 0
3, 30540, Note_on_c, 1, 68, 73
3, 30570, Note_on_c, 1, 68, 0
3, 30570, Note_on_c, 1, 64, 75
3, 30600, Note_on_c, 1, 64, 0
3, 30600, Note_on_c, 1, 69, 77
3, 30630, Note_on_c, 1, 69, 0
3, 30630, Note_on_c, 1, 57, 79
3, 30660, Note_on_c, 1, 57, 0
3, 30660, Note_on_c, 1, 61, 80
3, 30690, Note_on_c, 1, 61, 0
3, 30690, Note_on_c, 1, 64, 81
3, 30720, Note_on_c, 1, 64, 0
3, 30720, Note_on_c, 1, 69, 82
3, 30750, Note_on_c, 1, 69, 0
3, 30750, Note_on_c, 1, 64, 85
3, 30780, Note_on_c, 1, 64, 0
3, 30780, Note_on_c, 1, 76, 85
3, 30810, Note_on_c, 1, 76, 0
3, 30810, Note_on_c, 1, 64, 88
3, 30840, Note_on_c, 1, 64, 0
3, 30840, Note_on_c, 1, 68, 90
3, 30870, Note_on_c, 1, 68, 0
3, 30870, Note_on_c, 1, 64, 91
3, 30900, Note_on_c, 1, 64, 0
3, 30900, Note_on_c, 1, 73, 93
3, 30900, Note_on_c, 1, 69, 93
3, 30930, Note_on_c, 1, 69, 0
3, 30930, Note_on_c, 1, 73, 0
3, 30930, Note_on_c, 1, 64, 94
3, 30960, Note_on_c, 1, 64, 0
3, 30960, Note_on_c, 1, 74, 95
3, 30990, Note_on_c, 1, 74, 0
3, 30990, Note_on_c, 1, 69, 96
3, 31020, Note_on_c, 1, 69, 0
3, 31020, Note_on_c, 1, 74, 96
3, 31050, Note_on_c, 1, 74, 0
3, 31050, Note_on_c, 1, 78, 97
3, 31080, Note_on_c, 1, 78, 0
3, 31080, Note_on_c, 1, 81, 97
3, 31110, Note_on_c, 1, 81, 0
3, 31110, Note_on_c, 1, 69, 97
3, 31140, Note_on_c, 1, 69, 0
3, 31140, Note_on_c, 1, 81, 97
3, 31170, Note_on_c, 1, 81, 0
3, 31170, Note_on_c, 1, 69, 98
3, 31200, Note_on_c, 1, 69, 0
3, 31200, Note_on_c, 1, 73, 98
3, 31200, Note_on_c, 1, 79, 98
3, 31230, Note_on_c, 1, 79, 0
3, 31230, Note_on_c, 1, 73, 0
3, 31230, Note_on_c, 1, 69, 98
3, 31260, Note_on_c, 1, 69, 0
3, 31260, Note_on_c, 1, 78, 98
3, 31290, Note_on_c, 1, 78, 0
3, 31290, Note_on_c, 1, 69, 98
3, 31320, Note_on_c, 1, 69, 0
3, 31320, Note_on_c, 1, 73, 99
3, 31350, Note_on_c, 1, 73, 0
3, 31350, Note_on_c, 1, 76, 99
3, 31380, Note_on_c, 1, 76, 0
3, 31380, Note_on_c, 1, 73, 100
3, 31410, Note_on_c, 1, 73, 0
3, 31410, Note_on_c, 1, 69, 100
3, 31440, Note_on_c, 1, 69, 0
3, 31440, Note_on_c, 1, 64, 100
3, 31470, Note_on_c, 1, 64, 0
3, 31470, Note_on_c, 1, 73, 101
3, 31500, Note_on_c, 1, 73, 0
3, 31500, Note_on_c, 1, 69, 101
3, 31530, Note_on_c, 1, 69, 0
3, 31530, Note_on_c, 1, 64, 102
3, 31560, Note_on_c, 1, 64, 0
3, 31560, Note_on_c, 1, 62, 103
3, 31590, Note_on_c, 1, 62, 0
3, 31590, Note_on_c, 1, 68, 103
3, 31620, Note_on_c, 1, 68, 0
3, 31620, Note_on_c, 1, 64, 103
3, 31650, Note_on_c, 1, 64, 0
3, 31650, Note_on_c, 1, 62, 103
3, 31680, Note_on_c, 1, 62, 0
3, 31680, Note_on_c, 1, 61, 103
3, 31740, Note_on_c, 1, 61, 0
3, 32100, Note_on_c, 1, 69, 57
3, 32130, Note_on_c, 1, 69, 0
3, 32130, Note_on_c, 1, 71, 57
3, 32160, Note_on_c, 1, 71, 0
3, 32160, Note_on_c, 1, 68, 57
3, 32190, Note_on_c, 1, 68, 0
3, 32190, Note_on_c, 1, 69, 57
3, 32220, Note_on_c, 1, 69, 0
3, 32220, Note_on_c, 1, 66, 57
3, 32250, Note_on_c, 1, 66, 0
3, 32250, Note_on_c, 1, 68, 57
3, 32280, Note_on_c, 1, 68, 0
3, 32280, Note_on_c, 1, 64, 57
3, 32310, Note_on_c, 1, 64, 0
3, 32310, Note_on_c, 1, 66, 57
3, 32340, Note_on_c, 1, 66, 0
3, 32340, Note_on_c, 1, 62, 57
3, 32370, Note_on_c, 1, 62, 0
3, 32370, Note_on_c, 1, 64, 57
3, 32400, Note_on_c, 1, 64, 0
3, 32400, Note_on_c, 1, 61, 100
3, 32460, Note_on_c, 1, 61, 0
3, 32520, Note_on_c, 1, 61, 100
3, 32520, Note_on_c, 1, 64, 100
3, 32520, Note_on_c, 1, 69, 100
3, 32640, Note_on_c, 1, 69, 0
3, 32640, Note_on_c, 1, 64, 0
3, 32640, Note_on_c, 1, 61, 0
3, 32640, Note_on_c, 1, 69, 100
3, 32640, Note_on_c, 1, 64, 100
3, 32640, Note_on_c, 1, 61, 100
3, 32760, Note_on_c, 1, 61, 0
3, 32760, Note_on_c, 1, 64, 0
3, 32760, Note_on_c, 1, 69, 0
3, 32760, Note_on_c, 1, 71, 100
3, 32760, Note_on_c, 1, 68, 100
3, 32760, Note_on_c, 1, 64, 100
3, 33000, Note_on_c, 1, 64, 0
3, 33000, Note_on_c, 1, 68, 0
3, 33000, Note_on_c, 1, 71, 0
3, 33000, Note_on_c, 1, 71, 100
3, 33000, Note_on_c, 1, 68, 100
3, 33000, Note_on_c, 1, 64, 100
3, 33120, Note_on_c, 1, 64, 0
3, 33120, Note_on_c, 1, 68, 0
3, 33120, Note_on_c, 1, 71, 0
3, 33120, Note_on_c, 1, 73, 100
3, 33120, Note_on_c, 1, 69, 100
3, 33120, Note_on_c, 1, 64, 100
3, 33300, Note_on_c, 1, 64, 0
3, 33300, Note_on_c, 1, 69, 0
3, 33300, Note_on_c, 1, 73, 0
3, 33300, Note_on_c, 1, 71, 100
3, 33300, Note_on_c, 1, 64, 100
3, 33360, Note_on_c, 1, 64, 0
3, 33360, Note_on_c, 1, 71, 0
3, 33360, Note_on_c, 1, 69, 100
3, 33360, Note_on_c, 1, 73, 100
3, 33360, Note_on_c, 1, 64, 100
3, 33420, Note_on_c, 1, 64, 0
3, 33420, Note_on_c, 1, 73, 0
3, 33420, Note_on_c, 1, 69, 0
3, 33420, Note_on_c, 1, 74, 100
3, 33420, Note_on_c, 1, 71, 100
3, 33420, Note_on_c, 1, 66, 100
3, 33480, Note_on_c, 1, 66, 0
3, 33480, Note_on_c, 1, 71, 0
3, 33480, Note_on_c, 1, 74, 0
3, 33480, Note_on_c, 1, 73, 100
3, 33480, Note_on_c, 1, 69, 100
3, 33480, Note_on_c, 1, 64, 100
3, 33600, Note_on_c, 1, 69, 0
3, 33600, Note_on_c, 1, 73, 0
3, 33600, Note_on_c, 1, 71, 100
3, 33600, Note_on_c, 1, 68, 100
3, 33720, Note_on_c, 1, 68, 0
3, 33720, Note_on_c, 1, 71, 0
3, 33720, Note_on_c, 1, 64, 0
3, 33780, Note_on_c, 1, 71, 100
3, 33780, Note_on_c, 1, 68, 100
3, 33780, Note_on_c, 1, 64, 100
3, 33840, Note_on_c, 1, 64, 0
3, 33840, Note_on_c, 1, 68, 0
3, 33840, Note_on_c, 1, 71, 0
3, 33840, Note_on_c, 1, 71, 57
3, 33840, Note_on_c, 1, 69, 57
3, 34080, Note_on_c, 1, 69, 0
3, 34080, Note_on_c, 1, 71, 0
3, 34080, Note_on_c, 1, 73, 57
3, 34140, Note_on_c, 1, 73, 0
3, 34140, Note_on_c, 1, 75, 57
3, 34200, Note_on_c, 1, 75, 0
3, 34200, Note_on_c, 1, 76, 57
3, 34200, Note_on_c, 1, 71, 57
3, 34380, Note_on_c, 1, 71, 0
3, 34380, Note_on_c, 1, 68, 57
3, 34440, Note_on_c, 1, 68, 0
3, 34440, Note_on_c, 1, 76, 0
3, 34440, Note_on_c, 1, 73, 57
3, 34440, Note_on_c, 1, 73, 57
3, 34500, Note_on_c, 1, 73, 0
3, 34500, Note_on_c, 1, 73, 0
3, 34500, Note_on_c, 1, 78, 57
3, 34500, Note_on_c, 1, 69, 57
3, 34560, Note_on_c, 1, 69, 0
3, 34560, Note_on_c, 1, 78, 0
3, 34560, Note_on_c, 1, 68, 57
3, 34560, Note_on_c, 1, 71, 57
3, 34560, Note_on_c, 1, 76, 57
3, 34800, Note_on_c, 1, 76, 0
3, 34800, Note_on_c, 1, 71, 0
3, 34800, Note_on_c, 1, 68, 0
3, 34800, Note_on_c, 1, 66, 57
3, 34800, Note_on_c, 1, 71, 57
3, 34800, Note_on_c, 1, 75, 57
3, 34920, Note_on_c, 1, 75, 0
3, 34920, Note_on_c, 1, 71, 0
3, 34920, Note_on_c, 1, 66, 0
3, 34920, Note_on_c, 1, 68, 57
3, 34920, Note_on_c, 1, 71, 57
3, 34920, Note_on_c, 1, 76, 57
3, 35040, Note_on_c, 1, 76, 0
3, 35040, Note_on_c, 1, 71, 0
3, 35040, Note_on_c, 1, 68, 0
3, 35220, Note_on_c, 1, 64, 57
3, 35220, Note_on_c, 1, 76, 57
3, 35280, Note_on_c, 1, 76, 0
3, 35280, Note_on_c, 1, 64, 0
3, 35280, Note_on_c, 1, 64, 66
3, 35280, Note_on_c, 1, 76, 66
3, 35520, Note_on_c, 1, 76, 0
3, 35520, Note_on_c, 1, 64, 0
3, 35520, Note_on_c, 1, 61, 76
3, 35520, Note_on_c, 1, 73, 76
3, 35580, Note_on_c, 1, 73, 0
3, 35580, Note_on_c, 1, 61, 0
3, 35580, Note_on_c, 1, 69, 70
3, 35580, Note_on_c, 1, 57, 70
3, 35640, Note_on_c, 1, 57, 0
3, 35640, Note_on_c, 1, 69, 0
3, 35640, Note_on_c, 1, 64, 73
3, 35640, Note_on_c, 1, 76, 73
3, 35760, Note_on_c, 1, 76, 0
3, 35760, Note_on_c, 1, 64, 0
3, 35760, Note_on_c, 1, 62, 79
3, 35760, Note_on_c, 1, 74, 79
3, 35820, Note_on_c, 1, 74, 0
3, 35820, Note_on_c, 1, 62, 0
3, 35880, Note_on_c, 1, 61, 82
3, 35880, Note_on_c, 1, 73, 82
3, 36000, Note_on_c, 1, 73, 0
3, 36000, Note_on_c, 1, 61, 0
3, 36000, Note_on_c, 1, 71, 88
3, 36060, Note_on_c, 1, 71, 0
3, 36060, Note_on_c, 1, 78, 91
3, 36060, Note_on_c, 1, 66, 91
3, 36120, Note_on_c, 1, 66, 0
3, 36120, Note_on_c, 1, 78, 0
3, 36120, Note_on_c, 1, 64, 93
3, 36120, Note_on_c, 1, 76, 93
3, 36180, Note_on_c, 1, 76, 0
3, 36180, Note_on_c, 1, 64, 0
3, 36180, Note_on_c, 1, 62, 93
3, 36180, Note_on_c, 1, 74, 93
3, 36240, Note_on_c, 1, 74, 0
3, 36240, Note_on_c, 1, 62, 0
3, 36240, Note_on_c, 1, 61, 93
3, 36240, Note_on_c, 1, 73, 93
3, 36300, Note_on_c, 1, 73, 0
3, 36300, Note_on_c, 1, 61, 0
3, 36300, Note_on_c, 1, 59, 93
3, 36300, Note_on_c, 1, 71, 93
3, 36360, Note_on_c, 1, 71, 0
3, 36360, Note_on_c, 1, 59, 0
3, 36360, Note_on_c, 1, 64, 94
3, 36360, Note_on_c, 1, 68, 94
3, 36360, Note_on_c, 1, 73, 94
3, 36480, Note_on_c, 1, 73, 0
3, 36480, Note_on_c, 1, 68, 0
3, 36480, Note_on_c, 1, 64, 0
3, 36480, Note_on_c, 1, 59, 94
3, 36480, Note_on_c, 1, 68, 94
3, 36480, Note_on_c, 1, 64, 94
3, 36600, Note_on_c, 1, 64, 0
3, 36600, Note_on_c, 1, 68, 0
3, 36600, Note_on_c, 1, 59, 0
3, 36660, Note_on_c, 1, 64, 96
3, 36720, Note_on_c, 1, 64, 0
3, 36720, Note_on_c, 1, 69, 97
3, 36900, Note_on_c, 1, 69, 0
3, 36900, Note_on_c, 1, 76, 94
3, 36900, Note_on_c, 1, 64, 94
3, 36960, Note_on_c, 1, 64, 0
3, 36960, Note_on_c, 1, 76, 0
3, 36960, Note_on_c, 1, 74, 99
3, 36960, Note_on_c, 1, 68, 99
3, 36960, Note_on_c, 1, 64, 99
3, 37020, Note_on_c, 1, 64, 0
3, 37020, Note_on_c, 1, 68, 0
3, 37020, Note_on_c, 1, 74, 0
3, 37020, Note_on_c, 1, 69, 97
3, 37020, Note_on_c, 1, 73, 97
3, 37020, Note_on_c, 1, 64, 97
3, 37080, Note_on_c, 1, 64, 0
3, 37080, Note_on_c, 1, 73, 0
3, 37080, Note_on_c, 1, 69, 0
3, 37080, Note_on_c, 1, 74, 97
3, 37260, Note_on_c, 1, 74, 0
3, 37260, Note_on_c, 1, 69, 94
3, 37260, Note_on_c, 1, 81, 94
3, 37320, Note_on_c, 1, 81, 0
3, 37320, Note_on_c, 1, 69, 0
3, 37320, Note_on_c, 1, 79, 97
3, 37320, Note_on_c, 1, 73, 97
3, 37320, Note_on_c, 1, 69, 97
3, 37380, Note_on_c, 1, 69, 0
3, 37380, Note_on_c, 1, 73, 0
3, 37380, Note_on_c, 1, 79, 0
3, 37380, Note_on_c, 1, 69, 100
3, 37380, Note_on_c, 1, 74, 100
3, 37380, Note_on_c, 1, 78, 100
3, 37440, Note_on_c, 1, 78, 0
3, 37440, Note_on_c, 1, 74, 0
3, 37440, Note_on_c, 1, 69, 0
3, 37440, Note_on_c, 1, 69, 97
3, 37440, Note_on_c, 1, 73, 97
3, 37440, Note_on_c, 1, 76, 97
3, 37620, Note_on_c, 1, 76, 0
3, 37620, Note_on_c, 1, 73, 0
3, 37620, Note_on_c, 1, 69, 0
3, 37620, Note_on_c, 1, 73, 94
3, 37620, Note_on_c, 1, 69, 94
3, 37680, Note_on_c, 1, 69, 0
3, 37680, Note_on_c, 1, 73, 0
3, 37680, Note_on_c, 1, 74, 94
3, 37680, Note_on_c, 1, 68, 94
3, 37740, Note_on_c, 1, 68, 0
3, 37740, Note_on_c, 1, 74, 0
3, 37740, Note_on_c, 1, 68, 94
3, 37740, Note_on_c, 1, 62, 94
3, 37800, Note_on_c, 1, 62, 0
3, 37800, Note_on_c, 1, 68, 0
3, 37800, Note_on_c, 1, 61, 94
3, 37800, Note_on_c, 1, 69, 94
3, 37860, Note_on_c, 1, 69, 0
3, 37860, Note_on_c, 1, 61, 0
3, 37860, Note_on_c, 1, 81, 94
3, 37890, Note_on_c, 1, 81, 0
3, 37890, Note_on_c, 1, 80, 94
3, 37920, Note_on_c, 1, 80, 0
3, 37920, Note_on_c, 1, 81, 94
3, 37950, Note_on_c, 1, 81, 0
3, 37950, Note_on_c, 1, 80, 94
3, 37980, Note_on_c, 1, 80, 0
3, 37980, Note_on_c, 1, 78, 94
3, 38010, Note_on_c, 1, 78, 0
3, 38010, Note_on_c, 1, 76, 94
3, 38040, Note_on_c, 1, 76, 0
3, 38040, Note_on_c, 1, 74, 94
3, 38070, Note_on_c, 1, 74, 0
3, 38070, Note_on_c, 1, 73, 94
3, 38100, Note_on_c, 1, 73, 0
3, 38100, Note_on_c, 1, 71, 94
3, 38130, Note_on_c, 1, 71, 0
3, 38130, Note_on_c, 1, 69, 94
3, 38160, Note_on_c, 1, 69, 0
3, 38160, Note_on_c, 1, 71, 94
3, 38220, Note_on_c, 1, 71, 0
3, 38220, Note_on_c, 1, 83, 94
3, 38250, Note_on_c, 1, 83, 0
3, 38250, Note_on_c, 1, 82, 94
3, 38280, Note_on_c, 1, 82, 0
3, 38280, Note_on_c, 1, 83, 94
3, 38310, Note_on_c, 1, 83, 0
3, 38310, Note_on_c, 1, 81, 94
3, 38340, Note_on_c, 1, 81, 0
3, 38340, Note_on_c, 1, 80, 94
3, 38370, Note_on_c, 1, 80, 0
3, 38370, Note_on_c, 1, 78, 94
3, 38400, Note_on_c, 1, 78, 0
3, 38400, Note_on_c, 1, 76, 94
3, 38430, Note_on_c, 1, 76, 0
3, 38430, Note_on_c, 1, 74, 94
3, 38460, Note_on_c, 1, 74, 0
3, 38460, Note_on_c, 1, 73, 94
3, 38490, Note_on_c, 1, 73, 0
3, 38490, Note_on_c, 1, 71, 94
3, 38520, Note_on_c, 1, 71, 0
3, 38520, Note_on_c, 1, 73, 94
3, 38580, Note_on_c, 1, 73, 0
3, 38580, Note_on_c, 1, 85, 94
3, 38610, Note_on_c, 1, 85, 0
3, 38610, Note_on_c, 1, 84, 94
3, 38640, Note_on_c, 1, 84, 0
3, 38640, Note_on_c, 1, 85, 94
3, 38670, Note_on_c, 1, 85, 0
3, 38670, Note_on_c, 1, 83, 94
3, 38700, Note_on_c, 1, 83, 0
3, 38700, Note_on_c, 1, 81, 94
3, 38730, Note_on_c, 1, 81, 0
3, 38730, Note_on_c, 1, 79, 94
3, 38760, Note_on_c, 1, 79, 0
3, 38760, Note_on_c, 1, 78, 94
3, 38790, Note_on_c, 1, 78, 0
3, 38790, Note_on_c, 1, 76, 94
3, 38820, Note_on_c, 1, 76, 0
3, 38820, Note_on_c, 1, 74, 94
3, 38850, Note_on_c, 1, 74, 0
3, 38850, Note_on_c, 1, 73, 94
3, 38880, Note_on_c, 1, 73, 0
3, 38880, Note_on_c, 1, 74, 94
3, 38940, Note_on_c, 1, 74, 0
3, 38940, Note_on_c, 1, 86, 94
3, 38970, Note_on_c, 1, 86, 0
3, 38970, Note_on_c, 1, 85, 94
3, 39000, Note_on_c, 1, 85, 0
3, 39000, Note_on_c, 1, 86, 94
3, 39030, Note_on_c, 1, 86, 0
3, 39030, Note_on_c, 1, 85, 94
3, 39060, Note_on_c, 1, 85, 0
3, 39060, Note_on_c, 1, 83, 94
3, 39090, Note_on_c, 1, 83, 0
3, 39090, Note_on_c, 1, 81, 94
3, 39120, Note_on_c, 1, 81, 0
3, 39120, Note_on_c, 1, 79, 94
3, 39150, Note_on_c, 1, 79, 0
3, 39150, Note_on_c, 1, 78, 94
3, 39180, Note_on_c, 1, 78, 0
3, 39180, Note_on_c, 1, 76, 94
3, 39210, Note_on_c, 1, 76, 0
3, 39210, Note_on_c, 1, 74, 94
3, 39240, Note_on_c, 1, 74, 0
3, 39240, Note_on_c, 1, 73, 94
3, 39300, Note_on_c, 1, 73, 0
3, 39300, Note_on_c, 1, 85, 94
3, 39330, Note_on_c, 1, 85, 0
3, 39330, Note_on_c, 1, 84, 94
3, 39360, Note_on_c, 1, 84, 0
3, 39360, Note_on_c, 1, 85, 94
3, 39390, Note_on_c, 1, 85, 0
3, 39390, Note_on_c, 1, 83, 94
3, 39420, Note_on_c, 1, 83, 0
3, 39420, Note_on_c, 1, 81, 94
3, 39450, Note_on_c, 1, 81, 0
3, 39450, Note_on_c, 1, 79, 94
3, 39480, Note_on_c, 1, 79, 0
3, 39480, Note_on_c, 1, 78, 94
3, 39510, Note_on_c, 1, 78, 0
3, 39510, Note_on_c, 1, 76, 94
3, 39540, Note_on_c, 1, 76, 0
3, 39540, Note_on_c, 1, 74, 94
3, 39570, Note_on_c, 1, 74, 0
3, 39570, Note_on_c, 1, 73, 94
3, 39600, Note_on_c, 1, 73, 0
3, 39600, Note_on_c, 1, 78, 94
3, 39630, Note_on_c, 1, 78, 0
3, 39630, Note_on_c, 1, 81, 94
3, 39660, Note_on_c, 1, 81, 0
3, 39660, Note_on_c, 1, 78, 94
3, 39690, Note_on_c, 1, 78, 0
3, 39690, Note_on_c, 1, 74, 94
3, 39720, Note_on_c, 1, 74, 0
3, 39720, Note_on_c, 1, 69, 94
3, 39750, Note_on_c, 1, 69, 0
3, 39750, Note_on_c, 1, 78, 94
3, 39780, Note_on_c, 1, 78, 0
3, 39780, Note_on_c, 1, 74, 94
3, 39810, Note_on_c, 1, 74, 0
3, 39810, Note_on_c, 1, 69, 94
3, 39840, Note_on_c, 1, 69, 0
3, 39840, Note_on_c, 1, 66, 94
3, 39870, Note_on_c, 1, 66, 0
3, 39870, Note_on_c, 1, 74, 94
3, 39900, Note_on_c, 1, 74, 0
3, 39900, Note_on_c, 1, 69, 94
3, 39930, Note_on_c, 1, 69, 0
3, 39930, Note_on_c, 1, 66, 94
3, 39960, Note_on_c, 1, 66, 0
3, 39960, Note_on_c, 1, 62, 95
3, 39990, Note_on_c, 1, 62, 0
3, 39990, Note_on_c, 1, 69, 94
3, 40020, Note_on_c, 1, 69, 0
3, 40020, Note_on_c, 1, 66, 93
3, 40050, Note_on_c, 1, 66, 0
3, 40050, Note_on_c, 1, 62, 91
3, 40080, Note_on_c, 1, 62, 0
3, 40080, Note_on_c, 1, 57, 90
3, 40110, Note_on_c, 1, 57, 0
3, 40110, Note_on_c, 1, 69, 88
3, 40140, Note_on_c, 1, 69, 0
3, 40140, Note_on_c, 1, 66, 88
3, 40170, Note_on_c, 1, 66, 0
3, 40170, Note_on_c, 1, 62, 87
3, 40200, Note_on_c, 1, 62, 0
3, 40200, Note_on_c, 1, 57, 85
3, 40230, Note_on_c, 1, 57, 0
3, 40230, Note_on_c, 1, 69, 85
3, 40260, Note_on_c, 1, 69, 0
3, 40260, Note_on_c, 1, 67, 82
3, 40290, Note_on_c, 1, 67, 0
3, 40290, Note_on_c, 1, 64, 80
3, 40320, Note_on_c, 1, 64, 0
3, 40320, Note_on_c, 1, 57, 78
3, 40350, Note_on_c, 1, 57, 0
3, 40350, Note_on_c, 1, 69, 76
3, 40380, Note_on_c, 1, 69, 0
3, 40380, Note_on_c, 1, 66, 74
3, 40410, Note_on_c, 1, 66, 0
3, 40410, Note_on_c, 1, 62, 72
3, 40440, Note_on_c, 1, 62, 0
3, 40440, Note_on_c, 1, 57, 69
3, 40470, Note_on_c, 1, 57, 0
3, 40470, Note_on_c, 1, 69, 67
3, 40500, Note_on_c, 1, 69, 0
3, 40500, Note_on_c, 1, 66, 64
3, 40530, Note_on_c, 1, 66, 0
3, 40530, Note_on_c, 1, 62, 63
3, 40560, Note_on_c, 1, 62, 0
3, 40560, Note_on_c, 1, 57, 59
3, 40590, Note_on_c, 1, 57, 0
3, 40590, Note_on_c, 1, 69, 58
3, 40620, Note_on_c, 1, 69, 0
3, 40620, Note_on_c, 1, 66, 55
3, 40650, Note_on_c, 1, 66, 0
3, 40650, Note_on_c, 1, 62, 53
3, 40680, Note_on_c, 1, 62, 0
3, 40680, Note_on_c, 1, 57, 51
3, 40680, Note_on_c, 1, 61, 51
3, 40680, Note_on_c, 1, 64, 51
3, 40680, Note_on_c, 1, 69, 51
3, 41040, Note_on_c, 1, 69, 0
3, 41040, Note_on_c, 1, 57, 0
3, 41040, Note_on_c, 1, 61, 0
3, 41040, Note_on_c, 1, 64, 0
3, 41040, End_track
4, 0, Start_track
4, 0, MIDI_port, 0
4, 0, Title_t, "Piano Left"
4, 0, Program_c, 2, 0
4, 0, Control_c, 2, 7, 104
4, 0, Control_c, 2, 10, 94
4, 0, Control_c, 2, 93, 12
4, 0, Control_c, 2, 91, 14
4, 360, Note_on_c, 2, 52, 60
4, 360, Note_on_c, 2, 48, 60
4, 360, Note_on_c, 2, 45, 60
4, 360, Note_on_c, 2, 57, 60
4, 540, Note_on_c, 2, 57, 0
4, 540, Note_on_c, 2, 52, 0
4, 540, Note_on_c, 2, 48, 0
4, 540, Note_on_c, 2, 45, 0
4, 720, Note_on_c, 2, 65, 60
4, 900, Note_on_c, 2, 65, 0
4, 900, Note_on_c, 2, 61, 57
4, 960, Note_on_c, 2, 61, 0
4, 960, Note_on_c, 2, 62, 64
4, 1020, Note_on_c, 2, 62, 0
4, 1020, Note_on_c, 2, 65, 72
4, 1080, Note_on_c, 2, 65, 0
4, 1080, Note_on_c, 2, 64, 60
4, 1200, Note_on_c, 2, 64, 0
4, 1200, Note_on_c, 2, 52, 60
4, 1320, Note_on_c, 2, 52, 0
4, 1380, Note_on_c, 2, 64, 60
4, 1440, Note_on_c, 2, 64, 0
4, 1440, Note_on_c, 2, 63, 61
4, 1530, Note_on_c, 2, 63, 0
4, 1530, Note_on_c, 2, 63, 66
4, 1560, Note_on_c, 2, 63, 0
4, 1560, Note_on_c, 2, 63, 67
4, 1620, Note_on_c, 2, 63, 0
4, 1620, Note_on_c, 2, 63, 70
4, 1680, Note_on_c, 2, 63, 0
4, 1680, Note_on_c, 2, 63, 74
4, 1740, Note_on_c, 2, 63, 0
4, 1740, Note_on_c, 2, 63, 76
4, 1800, Note_on_c, 2, 63, 0
4, 1800, Note_on_c, 2, 64, 78
4, 1920, Note_on_c, 2, 64, 0
4, 1920, Note_on_c, 2, 52, 57
4, 2040, Note_on_c, 2, 52, 0
4, 2280, Note_on_c, 2, 52, 55
4, 2280, Note_on_c, 2, 55, 55
4, 2400, Note_on_c, 2, 55, 0
4, 2400, Note_on_c, 2, 52, 0
4, 2400, Note_on_c, 2, 52, 61
4, 2400, Note_on_c, 2, 55, 61
4, 2520, Note_on_c, 2, 55, 0
4, 2520, Note_on_c, 2, 52, 0
4, 2520, Note_on_c, 2, 52, 72
4, 2520, Note_on_c, 2, 55, 72
4, 2610, Note_on_c, 2, 55, 0
4, 2610, Note_on_c, 2, 52, 0
4, 2610, Note_on_c, 2, 52, 80
4, 2610, Note_on_c, 2, 55, 80
4, 2640, Note_on_c, 2, 55, 0
4, 2640, Note_on_c, 2, 52, 0
4, 2640, Note_on_c, 2, 52, 81
4, 2640, Note_on_c, 2, 55, 81
4, 2820, Note_on_c, 2, 55, 0
4, 2820, Note_on_c, 2, 52, 0
4, 2820, Note_on_c, 2, 52, 90
4, 2820, Note_on_c, 2, 55, 90
4, 2880, Note_on_c, 2, 55, 0
4, 2880, Note_on_c, 2, 52, 0
4, 2880, Note_on_c, 2, 52, 93
4, 2880, Note_on_c, 2, 55, 93
4, 3000, Note_on_c, 2, 55, 0
4, 3000, Note_on_c, 2, 52, 0
4, 3000, Note_on_c, 2, 51, 99
4, 3000, Note_on_c, 2, 54, 99
4, 3120, Note_on_c, 2, 54, 0
4, 3120, Note_on_c, 2, 51, 0
4, 3240, Note_on_c, 2, 63, 60
4, 3420, Note_on_c, 2, 63, 0
4, 3420, Note_on_c, 2, 64, 60
4, 3480, Note_on_c, 2, 64, 0
4, 3480, Note_on_c, 2, 66, 60
4, 3480, Note_on_c, 2, 59, 60
4, 3540, Note_on_c, 2, 59, 0
4, 3540, Note_on_c, 2, 66, 0
4, 3540, Note_on_c, 2, 64, 60
4, 3540, Note_on_c, 2, 60, 60
4, 3600, Note_on_c, 2, 60, 0
4, 3600, Note_on_c, 2, 64, 0
4, 3600, Note_on_c, 2, 45, 92
4, 3600, Note_on_c, 2, 57, 92
4, 3840, Note_on_c, 2, 57, 0
4, 3840, Note_on_c, 2, 45, 0
4, 3840, Note_on_c, 2, 45, 60
4, 3840, Note_on_c, 2, 57, 60
4, 3960, Note_on_c, 2, 57, 0
4, 3960, Note_on_c, 2, 45, 0
4, 3960, Note_on_c, 2, 47, 60
4, 4080, Note_on_c, 2, 47, 0
4, 4080, Note_on_c, 2, 47, 60
4, 4200, Note_on_c, 2, 47, 0
4, 4200, Note_on_c, 2, 35, 60
4, 4200, Note_on_c, 2, 47, 60
4, 4320, Note_on_c, 2, 47, 0
4, 4320, Note_on_c, 2, 35, 0
4, 4320, Note_on_c, 2, 40, 60
4, 4320, Note_on_c, 2, 52, 60
4, 4440, Note_on_c, 2, 52, 0
4, 4440, Note_on_c, 2, 40, 0
4, 4500, Note_on_c, 2, 55, 60
4, 4500, Note_on_c, 2, 59, 60
4, 4560, Note_on_c, 2, 59, 0
4, 4560, Note_on_c, 2, 55, 0
4, 4560, Note_on_c, 2, 54, 61
4, 4560, Note_on_c, 2, 57, 61
4, 4620, Note_on_c, 2, 57, 0
4, 4620, Note_on_c, 2, 54, 0
4, 4620, Note_on_c, 2, 52, 66
4, 4620, Note_on_c, 2, 55, 66
4, 4680, Note_on_c, 2, 55, 0
4, 4680, Note_on_c, 2, 52, 0
4, 4680, Note_on_c, 2, 60, 72
4, 4680, Note_on_c, 2, 57, 72
4, 4860, Note_on_c, 2, 57, 0
4, 4860, Note_on_c, 2, 60, 0
4, 5160, Note_on_c, 2, 52, 60
4, 5160, Note_on_c, 2, 55, 60
4, 5160, Note_on_c, 2, 47, 60
4, 5280, Note_on_c, 2, 47, 0
4, 5280, Note_on_c, 2, 55, 0
4, 5280, Note_on_c, 2, 52, 0
4, 5280, Note_on_c, 2, 47, 60
4, 5280, Note_on_c, 2, 54, 60
4, 5280, Note_on_c, 2, 57, 60
4, 5400, Note_on_c, 2, 57, 0
4, 5400, Note_on_c, 2, 54, 0
4, 5400, Note_on_c, 2, 47, 0
4, 5400, Note_on_c, 2, 40, 60
4, 5520, Note_on_c, 2, 40, 0
4, 5520, Note_on_c, 2, 52, 60
4, 5580, Note_on_c, 2, 52, 0
4, 5760, Note_on_c, 2, 40, 60
4, 5760, Note_on_c, 2, 52, 60
4, 6120, Note_on_c, 2, 52, 0
4, 6120, Note_on_c, 2, 40, 0
4, 6120, Note_on_c, 2, 51, 60
4, 6120, Note_on_c, 2, 39, 60
4, 6480, Note_on_c, 2, 39, 0
4, 6480, Note_on_c, 2, 51, 0
4, 6480, Note_on_c, 2, 35, 60
4, 6480, Note_on_c, 2, 47, 60
4, 6840, Note_on_c, 2, 47, 0
4, 6840, Note_on_c, 2, 35, 0
4, 6840, Note_on_c, 2, 40, 60
4, 6840, Note_on_c, 2, 52, 60
4, 7200, Note_on_c, 2, 52, 0
4, 7200, Note_on_c, 2, 40, 0
4, 7200, Note_on_c, 2, 38, 60
4, 7200, Note_on_c, 2, 50, 60
4, 7560, Note_on_c, 2, 50, 0
4, 7560, Note_on_c, 2, 38, 0
4, 7560, Note_on_c, 2, 36, 72
4, 7560, Note_on_c, 2, 48, 72
4, 7800, Note_on_c, 2, 48, 0
4, 7800, Note_on_c, 2, 36, 0
4, 7800, Note_on_c, 2, 35, 60
4, 7800, Note_on_c, 2, 47, 60
4, 7860, Note_on_c, 2, 47, 0
4, 7860, Note_on_c, 2, 35, 0
4, 7860, Note_on_c, 2, 33, 62
4, 7860, Note_on_c, 2, 45, 62
4, 7920, Note_on_c, 2, 45, 0
4, 7920, Note_on_c, 2, 33, 0
4, 7920, Note_on_c, 2, 32, 63
4, 7920, Note_on_c, 2, 44, 63
4, 8160, Note_on_c, 2, 44, 0
4, 8160, Note_on_c, 2, 32, 0
4, 8160, Note_on_c, 2, 33, 63
4, 8160, Note_on_c, 2, 45, 63
4, 8280, Note_on_c, 2, 45, 0
4, 8280, Note_on_c, 2, 33, 0
4, 8280, Note_on_c, 2, 40, 63
4, 8280, Note_on_c, 2, 52, 63
4, 8460, Note_on_c, 2, 52, 0
4, 8460, Note_on_c, 2, 40, 0
4, 8460, Note_on_c, 2, 52, 57
4, 8460, Note_on_c, 2, 50, 57
4, 8520, Note_on_c, 2, 50, 0
4, 8520, Note_on_c, 2, 52, 0
4, 8520, Note_on_c, 2, 52, 56
4, 8520, Note_on_c, 2, 48, 56
4, 8580, Note_on_c, 2, 48, 0
4, 8580, Note_on_c, 2, 52, 0
4, 8580, Note_on_c, 2, 52, 54
4, 8580, Note_on_c, 2, 47, 54
4, 8640, Note_on_c, 2, 47, 0
4, 8640, Note_on_c, 2, 52, 0
4, 8640, Note_on_c, 2, 52, 51
4, 8640, Note_on_c, 2, 45, 51
4, 8760, Note_on_c, 2, 45, 0
4, 8760, Note_on_c, 2, 52, 0
4, 9000, Note_on_c, 2, 65, 56
4, 9180, Note_on_c, 2, 65, 0
4, 9180, Note_on_c, 2, 61, 67
4, 9240, Note_on_c, 2, 61, 0
4, 9240, Note_on_c, 2, 62, 71
4, 9300, Note_on_c, 2, 62, 0
4, 9300, Note_on_c, 2, 65, 76
4, 9360, Note_on_c, 2, 65, 0
4, 9360, Note_on_c, 2, 64, 60
4, 9480, Note_on_c, 2, 64, 0
4, 9480, Note_on_c, 2, 52, 60
4, 9600, Note_on_c, 2, 52, 0
4, 9660, Note_on_c, 2, 64, 50
4, 9720, Note_on_c, 2, 64, 0
4, 9720, Note_on_c, 2, 63, 52
4, 9810, Note_on_c, 2, 63, 0
4, 9810, Note_on_c, 2, 63, 55
4, 9840, Note_on_c, 2, 63, 0
4, 9840, Note_on_c, 2, 63, 56
4, 9900, Note_on_c, 2, 63, 0
4, 9900, Note_on_c, 2, 63, 59
4, 9960, Note_on_c, 2, 63, 0
4, 9960, Note_on_c, 2, 63, 63
4, 10020, Note_on_c, 2, 63, 0
4, 10020, Note_on_c, 2, 63, 68
4, 10080, Note_on_c, 2, 63, 0
4, 10080, Note_on_c, 2, 64, 70
4, 10200, Note_on_c, 2, 64, 0
4, 10200, Note_on_c, 2, 52, 78
4, 10320, Note_on_c, 2, 52, 0
4, 10560, Note_on_c, 2, 53, 52
4, 10560, Note_on_c, 2, 57, 52
4, 10620, Note_on_c, 2, 57, 0
4, 10620, Note_on_c, 2, 53, 0
4, 10620, Note_on_c, 2, 52, 57
4, 10620, Note_on_c, 2, 55, 57
4, 10680, Note_on_c, 2, 55, 0
4, 10680, Note_on_c, 2, 52, 0
4, 10680, Note_on_c, 2, 50, 62
4, 10680, Note_on_c, 2, 53, 62
4, 10740, Note_on_c, 2, 53, 0
4, 10740, Note_on_c, 2, 50, 0
4, 10740, Note_on_c, 2, 48, 66
4, 10740, Note_on_c, 2, 52, 66
4, 10800, Note_on_c, 2, 52, 0
4, 10800, Note_on_c, 2, 48, 0
4, 10800, Note_on_c, 2, 50, 71
4, 10800, Note_on_c, 2, 47, 71
4, 10890, Note_on_c, 2, 47, 0
4, 10890, Note_on_c, 2, 50, 0
4, 10890, Note_on_c, 2, 50, 74
4, 10890, Note_on_c, 2, 53, 74
4, 10920, Note_on_c, 2, 53, 0
4, 10920, Note_on_c, 2, 50, 0
4, 10920, Note_on_c, 2, 50, 76
4, 10920, Note_on_c, 2, 53, 76
4, 11100, Note_on_c, 2, 53, 0
4, 11100, Note_on_c, 2, 50, 0
4, 11100, Note_on_c, 2, 50, 83
4, 11100, Note_on_c, 2, 53, 83
4, 11160, Note_on_c, 2, 53, 0
4, 11160, Note_on_c, 2, 50, 0
4, 11160, Note_on_c, 2, 50, 83
4, 11160, Note_on_c, 2, 53, 83
4, 11280, Note_on_c, 2, 53, 0
4, 11280, Note_on_c, 2, 50, 0
4, 11280, Note_on_c, 2, 48, 59
4, 11280, Note_on_c, 2, 52, 59
4, 11400, Note_on_c, 2, 52, 0
4, 11400, Note_on_c, 2, 48, 0
4, 11520, Note_on_c, 2, 38, 60
4, 11520, Note_on_c, 2, 50, 60
4, 11760, Note_on_c, 2, 50, 0
4, 11760, Note_on_c, 2, 38, 0
4, 11760, Note_on_c, 2, 38, 58
4, 11760, Note_on_c, 2, 50, 58
4, 11880, Note_on_c, 2, 50, 0
4, 11880, Note_on_c, 2, 38, 0
4, 11880, Note_on_c, 2, 40, 65
4, 11880, Note_on_c, 2, 52, 65
4, 12120, Note_on_c, 2, 52, 0
4, 12120, Note_on_c, 2, 40, 0
4, 12120, Note_on_c, 2, 40, 73
4, 12120, Note_on_c, 2, 52, 73
4, 12240, Note_on_c, 2, 52, 0
4, 12240, Note_on_c, 2, 40, 0
4, 12240, Note_on_c, 2, 41, 76
4, 12240, Note_on_c, 2, 53, 76
4, 12480, Note_on_c, 2, 53, 0
4, 12480, Note_on_c, 2, 41, 0
4, 12480, Note_on_c, 2, 37, 83
4, 12480, Note_on_c, 2, 49, 83
4, 12600, Note_on_c, 2, 49, 0
4, 12600, Note_on_c, 2, 37, 0
4, 12600, Note_on_c, 2, 38, 86
4, 12600, Note_on_c, 2, 50, 86
4, 12900, Note_on_c, 2, 50, 0
4, 12900, Note_on_c, 2, 38, 0
4, 12900, Note_on_c, 2, 50, 89
4, 12960, Note_on_c, 2, 50, 0
4, 12960, Note_on_c, 2, 51, 60
4, 13020, Note_on_c, 2, 51, 0
4, 13080, Note_on_c, 2, 52, 60
4, 13140, Note_on_c, 2, 52, 0
4, 13200, Note_on_c, 2, 40, 60
4, 13260, Note_on_c, 2, 40, 0
4, 13320, Note_on_c, 2, 45, 60
4, 13440, Note_on_c, 2, 45, 0
4, 13500, Note_on_c, 2, 60, 56
4, 13560, Note_on_c, 2, 60, 0
4, 13560, Note_on_c, 2, 59, 58
4, 13620, Note_on_c, 2, 59, 0
4, 13620, Note_on_c, 2, 57, 59
4, 13680, Note_on_c, 2, 57, 0
4, 13680, Note_on_c, 2, 56, 60
4, 13800, Note_on_c, 2, 56, 0
4, 13800, Note_on_c, 2, 52, 62
4, 13920, Note_on_c, 2, 52, 0
4, 13920, Note_on_c, 2, 57, 62
4, 14040, Note_on_c, 2, 57, 0
4, 14040, Note_on_c, 2, 52, 62
4, 14160, Note_on_c, 2, 52, 0
4, 14220, Note_on_c, 2, 60, 60
4, 14280, Note_on_c, 2, 60, 0
4, 14280, Note_on_c, 2, 59, 59
4, 14340, Note_on_c, 2, 59, 0
4, 14340, Note_on_c, 2, 57, 58
4, 14400, Note_on_c, 2, 57, 0
4, 14400, Note_on_c, 2, 56, 56
4, 14520, Note_on_c, 2, 56, 0
4, 14520, Note_on_c, 2, 52, 53
4, 14640, Note_on_c, 2, 52, 0
4, 14640, Note_on_c, 2, 57, 52
4, 14760, Note_on_c, 2, 57, 0
4, 14760, Note_on_c, 2, 52, 51
4, 14820, Note_on_c, 2, 52, 0
4, 14820, Note_on_c, 2, 56, 51
4, 14865, Note_on_c, 2, 56, 0
4, 14865, Note_on_c, 2, 59, 51
4, 14880, Note_on_c, 2, 59, 0
4, 14880, Note_on_c, 2, 62, 51
4, 14940, Note_on_c, 2, 62, 0
4, 14940, Note_on_c, 2, 60, 52
4, 15000, Note_on_c, 2, 60, 0
4, 15000, Note_on_c, 2, 59, 53
4, 15060, Note_on_c, 2, 59, 0
4, 15060, Note_on_c, 2, 57, 53
4, 15120, Note_on_c, 2, 57, 0
4, 15120, Note_on_c, 2, 62, 60
4, 15360, Note_on_c, 2, 62, 0
4, 15360, Note_on_c, 2, 62, 53
4, 15480, Note_on_c, 2, 62, 0
4, 15480, Note_on_c, 2, 63, 56
4, 15720, Note_on_c, 2, 63, 0
4, 15720, Note_on_c, 2, 51, 57
4, 15840, Note_on_c, 2, 51, 0
4, 15840, Note_on_c, 2, 52, 58
4, 15960, Note_on_c, 2, 52, 0
4, 15960, Note_on_c, 2, 40, 59
4, 15960, Note_on_c, 2, 52, 59
4, 16080, Note_on_c, 2, 52, 0
4, 16080, Note_on_c, 2, 40, 0
4, 16080, Note_on_c, 2, 40, 62
4, 16080, Note_on_c, 2, 52, 62
4, 16200, Note_on_c, 2, 52, 0
4, 16200, Note_on_c, 2, 40, 0
4, 16200, Note_on_c, 2, 41, 94
4, 16200, Note_on_c, 2, 53, 94
4, 16560, Note_on_c, 2, 53, 0
4, 16560, Note_on_c, 2, 41, 0
4, 16560, Note_on_c, 2, 52, 60
4, 16560, Note_on_c, 2, 40, 60
4, 16800, Note_on_c, 2, 40, 0
4, 16800, Note_on_c, 2, 52, 0
4, 16800, Note_on_c, 2, 40, 60
4, 16800, Note_on_c, 2, 52, 60
4, 16920, Note_on_c, 2, 52, 0
4, 16920, Note_on_c, 2, 40, 0
4, 16920, Note_on_c, 2, 40, 60
4, 16920, Note_on_c, 2, 52, 60
4, 17160, Note_on_c, 2, 52, 0
4, 17160, Note_on_c, 2, 40, 0
4, 17160, Note_on_c, 2, 52, 57
4, 17280, Note_on_c, 2, 52, 0
4, 17280, Note_on_c, 2, 57, 51
4, 17340, Note_on_c, 2, 54, 53
4, 17370, Note_on_c, 2, 54, 0
4, 17370, Note_on_c, 2, 52, 53
4, 17400, Note_on_c, 2, 52, 0
4, 17400, Note_on_c, 2, 50, 53
4, 17460, Note_on_c, 2, 50, 0
4, 17460, Note_on_c, 2, 49, 53
4, 17520, Note_on_c, 2, 49, 0
4, 17520, Note_on_c, 2, 57, 0
4, 17520, Note_on_c, 2, 47, 55
4, 17520, Note_on_c, 2, 57, 55
4, 17580, Note_on_c, 2, 47, 0
4, 17580, Note_on_c, 2, 45, 56
4, 17640, Note_on_c, 2, 45, 0
4, 17640, Note_on_c, 2, 57, 0
4, 17640, Note_on_c, 2, 44, 56
4, 17640, Note_on_c, 2, 59, 56
4, 17700, Note_on_c, 2, 44, 0
4, 17700, Note_on_c, 2, 42, 56
4, 17760, Note_on_c, 2, 42, 0
4, 17760, Note_on_c, 2, 40, 56
4, 17820, Note_on_c, 2, 40, 0
4, 17820, Note_on_c, 2, 38, 56
4, 17880, Note_on_c, 2, 38, 0
4, 17880, Note_on_c, 2, 59, 0
4, 17880, Note_on_c, 2, 52, 57
4, 17880, Note_on_c, 2, 56, 57
4, 17880, Note_on_c, 2, 59, 57
4, 17880, Note_on_c, 2, 37, 57
4, 17940, Note_on_c, 2, 37, 0
4, 17940, Note_on_c, 2, 35, 57
4, 18000, Note_on_c, 2, 35, 0
4, 18000, Note_on_c, 2, 59, 0
4, 18000, Note_on_c, 2, 56, 0
4, 18000, Note_on_c, 2, 52, 0
4, 18000, Note_on_c, 2, 52, 58
4, 18000, Note_on_c, 2, 57, 58
4, 18000, Note_on_c, 2, 61, 58
4, 18000, Note_on_c, 2, 33, 58
4, 18060, Note_on_c, 2, 33, 0
4, 18060, Note_on_c, 2, 37, 58
4, 18090, Note_on_c, 2, 37, 0
4, 18090, Note_on_c, 2, 38, 58
4, 18120, Note_on_c, 2, 38, 0
4, 18120, Note_on_c, 2, 45, 58
4, 18180, Note_on_c, 2, 45, 0
4, 18180, Note_on_c, 2, 61, 0
4, 18180, Note_on_c, 2, 57, 0
4, 18180, Note_on_c, 2, 52, 0
4, 18180, Note_on_c, 2, 59, 58
4, 18180, Note_on_c, 2, 52, 58
4, 18180, Note_on_c, 2, 44, 58
4, 18240, Note_on_c, 2, 44, 0
4, 18240, Note_on_c, 2, 52, 0
4, 18240, Note_on_c, 2, 59, 0
4, 18240, Note_on_c, 2, 61, 58
4, 18240, Note_on_c, 2, 52, 58
4, 18240, Note_on_c, 2, 45, 58
4, 18300, Note_on_c, 2, 45, 0
4, 18300, Note_on_c, 2, 52, 0
4, 18300, Note_on_c, 2, 61, 0
4, 18300, Note_on_c, 2, 62, 58
4, 18300, Note_on_c, 2, 59, 58
4, 18300, Note_on_c, 2, 54, 58
4, 18300, Note_on_c, 2, 38, 58
4, 18360, Note_on_c, 2, 38, 0
4, 18360, Note_on_c, 2, 62, 0
4, 18360, Note_on_c, 2, 59, 0
4, 18360, Note_on_c, 2, 54, 0
4, 18360, Note_on_c, 2, 61, 57
4, 18360, Note_on_c, 2, 57, 57
4, 18360, Note_on_c, 2, 40, 57
4, 18420, Note_on_c, 2, 40, 0
4, 18420, Note_on_c, 2, 52, 57
4, 18450, Note_on_c, 2, 52, 0
4, 18450, Note_on_c, 2, 51, 57
4, 18480, Note_on_c, 2, 51, 0
4, 18480, Note_on_c, 2, 57, 0
4, 18480, Note_on_c, 2, 61, 0
4, 18480, Note_on_c, 2, 59, 57
4, 18480, Note_on_c, 2, 56, 57
4, 18480, Note_on_c, 2, 52, 57
4, 18540, Note_on_c, 2, 52, 0
4, 18540, Note_on_c, 2, 47, 56
4, 18600, Note_on_c, 2, 47, 0
4, 18600, Note_on_c, 2, 56, 0
4, 18600, Note_on_c, 2, 59, 0
4, 18600, Note_on_c, 2, 44, 56
4, 18660, Note_on_c, 2, 44, 0
4, 18660, Note_on_c, 2, 40, 55
4, 18720, Note_on_c, 2, 40, 0
4, 18720, Note_on_c, 2, 42, 55
4, 18780, Note_on_c, 2, 42, 0
4, 18780, Note_on_c, 2, 54, 55
4, 18810, Note_on_c, 2, 54, 0
4, 18810, Note_on_c, 2, 53, 55
4, 18840, Note_on_c, 2, 53, 0
4, 18840, Note_on_c, 2, 54, 55
4, 18900, Note_on_c, 2, 54, 0
4, 18900, Note_on_c, 2, 51, 55
4, 18960, Note_on_c, 2, 51, 0
4, 18960, Note_on_c, 2, 45, 56
4, 19020, Note_on_c, 2, 45, 0
4, 19020, Note_on_c, 2, 42, 57
4, 19080, Note_on_c, 2, 42, 0
4, 19080, Note_on_c, 2, 44, 57
4, 19140, Note_on_c, 2, 44, 0
4, 19140, Note_on_c, 2, 56, 57
4, 19170, Note_on_c, 2, 56, 0
4, 19170, Note_on_c, 2, 54, 57
4, 19200, Note_on_c, 2, 54, 0
4, 19200, Note_on_c, 2, 56, 58
4, 19260, Note_on_c, 2, 56, 0
4, 19260, Note_on_c, 2, 52, 58
4, 19320, Note_on_c, 2, 52, 0
4, 19320, Note_on_c, 2, 57, 58
4, 19380, Note_on_c, 2, 57, 0
4, 19380, Note_on_c, 2, 45, 58
4, 19440, Note_on_c, 2, 45, 0
4, 19440, Note_on_c, 2, 47, 57
4, 19440, Note_on_c, 2, 56, 57
4, 19500, Note_on_c, 2, 56, 0
4, 19500, Note_on_c, 2, 59, 56
4, 19530, Note_on_c, 2, 59, 0
4, 19530, Note_on_c, 2, 58, 56
4, 19560, Note_on_c, 2, 58, 0
4, 19560, Note_on_c, 2, 47, 0
4, 19560, Note_on_c, 2, 35, 55
4, 19560, Note_on_c, 2, 59, 55
4, 19620, Note_on_c, 2, 59, 0
4, 19620, Note_on_c, 2, 56, 53
4, 19680, Note_on_c, 2, 56, 0
4, 19680, Note_on_c, 2, 35, 0
4, 19680, Note_on_c, 2, 47, 52
4, 19680, Note_on_c, 2, 54, 52
4, 19740, Note_on_c, 2, 54, 0
4, 19740, Note_on_c, 2, 57, 51
4, 19800, Note_on_c, 2, 57, 0
4, 19800, Note_on_c, 2, 47, 0
4, 19800, Note_on_c, 2, 40, 51
4, 19860, Note_on_c, 2, 40, 0
4, 19860, Note_on_c, 2, 52, 51
4, 19890, Note_on_c, 2, 52, 0
4, 19890, Note_on_c, 2, 51, 51
4, 19920, Note_on_c, 2, 51, 0
4, 19920, Note_on_c, 2, 52, 51
4, 19980, Note_on_c, 2, 52, 0
4, 19980, Note_on_c, 2, 50, 51
4, 20040, Note_on_c, 2, 50, 0
4, 20040, Note_on_c, 2, 49, 51
4, 20100, Note_on_c, 2, 49, 0
4, 20100, Note_on_c, 2, 47, 52
4, 20160, Note_on_c, 2, 47, 0
4, 20160, Note_on_c, 2, 45, 53
4, 20400, Note_on_c, 2, 45, 0
4, 20400, Note_on_c, 2, 49, 57
4, 20520, Note_on_c, 2, 49, 0
4, 20520, Note_on_c, 2, 52, 57
4, 20760, Note_on_c, 2, 52, 0
4, 20760, Note_on_c, 2, 40, 57
4, 20880, Note_on_c, 2, 40, 0
4, 20880, Note_on_c, 2, 45, 57
4, 20940, Note_on_c, 2, 45, 0
4, 20940, Note_on_c, 2, 49, 57
4, 20970, Note_on_c, 2, 49, 0
4, 20970, Note_on_c, 2, 52, 57
4, 21000, Note_on_c, 2, 52, 0
4, 21000, Note_on_c, 2, 57, 57
4, 21060, Note_on_c, 2, 57, 0
4, 21060, Note_on_c, 2, 56, 57
4, 21120, Note_on_c, 2, 56, 0
4, 21120, Note_on_c, 2, 57, 57
4, 21180, Note_on_c, 2, 57, 0
4, 21180, Note_on_c, 2, 50, 57
4, 21240, Note_on_c, 2, 50, 0
4, 21240, Note_on_c, 2, 52, 57
4, 21360, Note_on_c, 2, 52, 0
4, 21360, Note_on_c, 2, 40, 57
4, 21480, Note_on_c, 2, 40, 0
4, 21480, Note_on_c, 2, 52, 57
4, 21600, Note_on_c, 2, 52, 0
4, 21600, Note_on_c, 2, 54, 64
4, 21720, Note_on_c, 2, 54, 0
4, 21720, Note_on_c, 2, 42, 73
4, 21840, Note_on_c, 2, 42, 0
4, 21840, Note_on_c, 2, 54, 78
4, 21960, Note_on_c, 2, 54, 0
4, 21960, Note_on_c, 2, 56, 82
4, 22020, Note_on_c, 2, 56, 0
4, 22020, Note_on_c, 2, 56, 85
4, 22050, Note_on_c, 2, 56, 0
4, 22050, Note_on_c, 2, 54, 85
4, 22080, Note_on_c, 2, 54, 0
4, 22080, Note_on_c, 2, 56, 85
4, 22140, Note_on_c, 2, 56, 0
4, 22140, Note_on_c, 2, 52, 87
4, 22200, Note_on_c, 2, 52, 0
4, 22200, Note_on_c, 2, 57, 88
4, 22260, Note_on_c, 2, 57, 0
4, 22260, Note_on_c, 2, 54, 90
4, 22320, Note_on_c, 2, 54, 0
4, 22320, Note_on_c, 2, 59, 57
4, 22440, Note_on_c, 2, 59, 0
4, 22440, Note_on_c, 2, 47, 57
4, 22560, Note_on_c, 2, 47, 0
4, 22560, Note_on_c, 2, 59, 57
4, 22680, Note_on_c, 2, 59, 0
4, 22680, Note_on_c, 2, 52, 57
4, 22800, Note_on_c, 2, 52, 0
4, 22800, Note_on_c, 2, 40, 76
4, 22800, Note_on_c, 2, 52, 76
4, 22920, Note_on_c, 2, 52, 0
4, 22920, Note_on_c, 2, 40, 0
4, 22920, Note_on_c, 2, 38, 98
4, 22920, Note_on_c, 2, 50, 98
4, 23040, Note_on_c, 2, 50, 0
4, 23040, Note_on_c, 2, 38, 0
4, 23040, Note_on_c, 2, 37, 57
4, 23040, Note_on_c, 2, 49, 57
4, 23280, Note_on_c, 2, 49, 0
4, 23280, Note_on_c, 2, 37, 0
4, 23280, Note_on_c, 2, 55, 57
4, 23280, Note_on_c, 2, 43, 57
4, 23400, Note_on_c, 2, 43, 0
4, 23400, Note_on_c, 2, 55, 0
4, 23400, Note_on_c, 2, 42, 65
4, 23400, Note_on_c, 2, 54, 65
4, 23640, Note_on_c, 2, 54, 0
4, 23640, Note_on_c, 2, 42, 0
4, 23640, Note_on_c, 2, 40, 80
4, 23640, Note_on_c, 2, 52, 80
4, 23760, Note_on_c, 2, 52, 0
4, 23760, Note_on_c, 2, 40, 0
4, 23760, Note_on_c, 2, 38, 93
4, 23760, Note_on_c, 2, 50, 93
4, 23820, Note_on_c, 2, 50, 0
4, 23820, Note_on_c, 2, 38, 0
4, 23820, Note_on_c, 2, 46, 98
4, 23820, Note_on_c, 2, 34, 98
4, 23880, Note_on_c, 2, 34, 0
4, 23880, Note_on_c, 2, 46, 0
4, 23880, Note_on_c, 2, 35, 104
4, 23880, Note_on_c, 2, 47, 104
4, 23940, Note_on_c, 2, 47, 0
4, 23940, Note_on_c, 2, 35, 0
4, 23940, Note_on_c, 2, 35, 107
4, 23940, Note_on_c, 2, 47, 107
4, 24000, Note_on_c, 2, 47, 0
4, 24000, Note_on_c, 2, 35, 0
4, 24000, Note_on_c, 2, 37, 110
4, 24000, Note_on_c, 2, 49, 110
4, 24060, Note_on_c, 2, 49, 0
4, 24060, Note_on_c, 2, 37, 0
4, 24060, Note_on_c, 2, 38, 113
4, 24060, Note_on_c, 2, 50, 113
4, 24120, Note_on_c, 2, 50, 0
4, 24120, Note_on_c, 2, 38, 0
4, 24120, Note_on_c, 2, 52, 57
4, 24240, Note_on_c, 2, 52, 0
4, 24240, Note_on_c, 2, 40, 57
4, 24360, Note_on_c, 2, 40, 0
4, 24360, Note_on_c, 2, 50, 57
4, 24360, Note_on_c, 2, 38, 57
4, 24480, Note_on_c, 2, 38, 0
4, 24480, Note_on_c, 2, 50, 0
4, 24480, Note_on_c, 2, 49, 57
4, 24480, Note_on_c, 2, 37, 57
4, 24720, Note_on_c, 2, 37, 0
4, 24720, Note_on_c, 2, 49, 0
4, 24720, Note_on_c, 2, 47, 57
4, 24720, Note_on_c, 2, 35, 57
4, 24780, Note_on_c, 2, 35, 0
4, 24780, Note_on_c, 2, 47, 0
4, 24780, Note_on_c, 2, 45, 57
4, 24780, Note_on_c, 2, 33, 57
4, 24840, Note_on_c, 2, 33, 0
4, 24840, Note_on_c, 2, 45, 0
4, 24840, Note_on_c, 2, 54, 57
4, 24840, Note_on_c, 2, 42, 57
4, 25080, Note_on_c, 2, 42, 0
4, 25080, Note_on_c, 2, 54, 0
4, 25080, Note_on_c, 2, 52, 57
4, 25080, Note_on_c, 2, 40, 57
4, 25140, Note_on_c, 2, 40, 0
4, 25140, Note_on_c, 2, 52, 0
4, 25140, Note_on_c, 2, 50, 57
4, 25140, Note_on_c, 2, 38, 57
4, 25200, Note_on_c, 2, 38, 0
4, 25200, Note_on_c, 2, 50, 0
4, 25200, Note_on_c, 2, 40, 57
4, 25320, Note_on_c, 2, 40, 0
4, 25320, Note_on_c, 2, 52, 57
4, 25440, Note_on_c, 2, 52, 0
4, 25440, Note_on_c, 2, 40, 57
4, 25560, Note_on_c, 2, 40, 0
4, 25560, Note_on_c, 2, 45, 57
4, 25620, Note_on_c, 2, 45, 0
4, 25920, Note_on_c, 2, 61, 63
4, 25980, Note_on_c, 2, 61, 0
4, 25980, Note_on_c, 2, 62, 71
4, 26040, Note_on_c, 2, 62, 0
4, 26040, Note_on_c, 2, 61, 81
4, 26100, Note_on_c, 2, 61, 0
4, 26100, Note_on_c, 2, 59, 89
4, 26160, Note_on_c, 2, 59, 0
4, 26160, Note_on_c, 2, 57, 99
4, 26220, Note_on_c, 2, 57, 0
4, 26220, Note_on_c, 2, 52, 107
4, 26220, Note_on_c, 2, 56, 107
4, 26280, Note_on_c, 2, 56, 0
4, 26280, Note_on_c, 2, 52, 0
4, 26280, Note_on_c, 2, 49, 57
4, 26280, Note_on_c, 2, 57, 57
4, 26520, Note_on_c, 2, 57, 0
4, 26520, Note_on_c, 2, 49, 0
4, 26520, Note_on_c, 2, 49, 57
4, 26520, Note_on_c, 2, 57, 57
4, 26640, Note_on_c, 2, 57, 0
4, 26640, Note_on_c, 2, 49, 0
4, 26640, Note_on_c, 2, 52, 57
4, 26640, Note_on_c, 2, 59, 57
4, 26880, Note_on_c, 2, 59, 0
4, 26880, Note_on_c, 2, 52, 0
4, 26880, Note_on_c, 2, 52, 57
4, 26880, Note_on_c, 2, 59, 57
4, 27000, Note_on_c, 2, 59, 0
4, 27000, Note_on_c, 2, 52, 0
4, 27000, Note_on_c, 2, 61, 57
4, 27000, Note_on_c, 2, 57, 57
4, 27180, Note_on_c, 2, 57, 0
4, 27180, Note_on_c, 2, 61, 0
4, 27180, Note_on_c, 2, 59, 57
4, 27180, Note_on_c, 2, 56, 57
4, 27240, Note_on_c, 2, 56, 0
4, 27240, Note_on_c, 2, 59, 0
4, 27240, Note_on_c, 2, 61, 57
4, 27240, Note_on_c, 2, 57, 57
4, 27300, Note_on_c, 2, 57, 0
4, 27300, Note_on_c, 2, 61, 0
4, 27300, Note_on_c, 2, 62, 57
4, 27300, Note_on_c, 2, 59, 57
4, 27360, Note_on_c, 2, 59, 0
4, 27360, Note_on_c, 2, 62, 0
4, 27360, Note_on_c, 2, 61, 57
4, 27360, Note_on_c, 2, 57, 57
4, 27480, Note_on_c, 2, 57, 0
4, 27480, Note_on_c, 2, 61, 0
4, 27480, Note_on_c, 2, 59, 57
4, 27480, Note_on_c, 2, 56, 57
4, 27600, Note_on_c, 2, 56, 0
4, 27600, Note_on_c, 2, 59, 0
4, 27660, Note_on_c, 2, 59, 57
4, 27660, Note_on_c, 2, 56, 57
4, 27720, Note_on_c, 2, 56, 0
4, 27720, Note_on_c, 2, 59, 0
4, 27720, Note_on_c, 2, 59, 79
4, 27720, Note_on_c, 2, 54, 79
4, 27960, Note_on_c, 2, 54, 0
4, 27960, Note_on_c, 2, 59, 0
4, 27960, Note_on_c, 2, 61, 92
4, 27960, Note_on_c, 2, 54, 92
4, 28020, Note_on_c, 2, 61, 0
4, 28020, Note_on_c, 2, 63, 92
4, 28080, Note_on_c, 2, 63, 0
4, 28080, Note_on_c, 2, 54, 0
4, 28080, Note_on_c, 2, 64, 94
4, 28080, Note_on_c, 2, 52, 94
4, 28200, Note_on_c, 2, 52, 0
4, 28200, Note_on_c, 2, 64, 0
4, 28200, Note_on_c, 2, 56, 94
4, 28260, Note_on_c, 2, 56, 0
4, 28260, Note_on_c, 2, 56, 97
4, 28320, Note_on_c, 2, 56, 0
4, 28320, Note_on_c, 2, 57, 97
4, 28380, Note_on_c, 2, 57, 0
4, 28380, Note_on_c, 2, 54, 99
4, 28440, Note_on_c, 2, 54, 0
4, 28440, Note_on_c, 2, 59, 100
4, 28500, Note_on_c, 2, 59, 0
4, 28500, Note_on_c, 2, 47, 101
4, 28560, Note_on_c, 2, 47, 0
4, 28560, Note_on_c, 2, 59, 102
4, 28620, Note_on_c, 2, 59, 0
4, 28620, Note_on_c, 2, 47, 103
4, 28680, Note_on_c, 2, 47, 0
4, 28680, Note_on_c, 2, 59, 104
4, 28740, Note_on_c, 2, 59, 0
4, 28740, Note_on_c, 2, 47, 106
4, 28800, Note_on_c, 2, 47, 0
4, 28800, Note_on_c, 2, 52, 57
4, 28860, Note_on_c, 2, 52, 0
4, 28860, Note_on_c, 2, 40, 57
4, 28920, Note_on_c, 2, 40, 0
4, 28920, Note_on_c, 2, 52, 57
4, 29100, Note_on_c, 2, 52, 0
4, 29100, Note_on_c, 2, 50, 57
4, 29160, Note_on_c, 2, 50, 0
4, 29160, Note_on_c, 2, 49, 79
4, 29400, Note_on_c, 2, 49, 0
4, 29400, Note_on_c, 2, 43, 86
4, 29400, Note_on_c, 2, 55, 86
4, 29520, Note_on_c, 2, 55, 0
4, 29520, Note_on_c, 2, 43, 0
4, 29520, Note_on_c, 2, 42, 86
4, 29520, Note_on_c, 2, 54, 86
4, 29760, Note_on_c, 2, 54, 0
4, 29760, Note_on_c, 2, 42, 0
4, 29760, Note_on_c, 2, 52, 92
4, 29760, Note_on_c, 2, 40, 92
4, 29880, Note_on_c, 2, 40, 0
4, 29880, Note_on_c, 2, 52, 0
4, 29880, Note_on_c, 2, 38, 57
4, 29880, Note_on_c, 2, 50, 57
4, 29940, Note_on_c, 2, 50, 0
4, 29940, Note_on_c, 2, 38, 0
4, 29940, Note_on_c, 2, 34, 57
4, 29940, Note_on_c, 2, 46, 57
4, 30000, Note_on_c, 2, 46, 0
4, 30000, Note_on_c, 2, 34, 0
4, 30000, Note_on_c, 2, 35, 57
4, 30000, Note_on_c, 2, 47, 57
4, 30060, Note_on_c, 2, 47, 0
4, 30060, Note_on_c, 2, 35, 0
4, 30060, Note_on_c, 2, 47, 57
4, 30060, Note_on_c, 2, 35, 57
4, 30120, Note_on_c, 2, 35, 0
4, 30120, Note_on_c, 2, 47, 0
4, 30120, Note_on_c, 2, 37, 57
4, 30120, Note_on_c, 2, 49, 57
4, 30180, Note_on_c, 2, 49, 0
4, 30180, Note_on_c, 2, 37, 0
4, 30180, Note_on_c, 2, 50, 57
4, 30180, Note_on_c, 2, 38, 57
4, 30240, Note_on_c, 2, 38, 0
4, 30240, Note_on_c, 2, 50, 0
4, 30240, Note_on_c, 2, 52, 57
4, 30360, Note_on_c, 2, 52, 0
4, 30360, Note_on_c, 2, 40, 73
4, 30480, Note_on_c, 2, 40, 0
4, 30480, Note_on_c, 2, 50, 82
4, 30480, Note_on_c, 2, 38, 82
4, 30600, Note_on_c, 2, 38, 0
4, 30600, Note_on_c, 2, 50, 0
4, 30600, Note_on_c, 2, 37, 86
4, 30600, Note_on_c, 2, 49, 86
4, 30780, Note_on_c, 2, 49, 0
4, 30780, Note_on_c, 2, 37, 0
4, 30780, Note_on_c, 2, 37, 91
4, 30780, Note_on_c, 2, 49, 91
4, 30840, Note_on_c, 2, 49, 0
4, 30840, Note_on_c, 2, 37, 0
4, 30840, Note_on_c, 2, 35, 91
4, 30840, Note_on_c, 2, 47, 91
4, 30900, Note_on_c, 2, 47, 0
4, 30900, Note_on_c, 2, 35, 0
4, 30900, Note_on_c, 2, 33, 94
4, 30900, Note_on_c, 2, 45, 94
4, 30960, Note_on_c, 2, 45, 0
4, 30960, Note_on_c, 2, 33, 0
4, 30960, Note_on_c, 2, 42, 96
4, 30960, Note_on_c, 2, 54, 96
4, 31140, Note_on_c, 2, 54, 0
4, 31140, Note_on_c, 2, 42, 0
4, 31140, Note_on_c, 2, 42, 101
4, 31140, Note_on_c, 2, 54, 101
4, 31200, Note_on_c, 2, 54, 0
4, 31200, Note_on_c, 2, 42, 0
4, 31200, Note_on_c, 2, 40, 103
4, 31200, Note_on_c, 2, 52, 103
4, 31260, Note_on_c, 2, 52, 0
4, 31260, Note_on_c, 2, 40, 0
4, 31260, Note_on_c, 2, 38, 105
4, 31260, Note_on_c, 2, 50, 105
4, 31320, Note_on_c, 2, 50, 0
4, 31320, Note_on_c, 2, 38, 0
4, 31320, Note_on_c, 2, 40, 106
4, 31380, Note_on_c, 2, 40, 0
4, 31380, Note_on_c, 2, 52, 107
4, 31440, Note_on_c, 2, 52, 0
4, 31440, Note_on_c, 2, 40, 107
4, 31500, Note_on_c, 2, 40, 0
4, 31500, Note_on_c, 2, 52, 107
4, 31560, Note_on_c, 2, 52, 0
4, 31560, Note_on_c, 2, 40, 107
4, 31620, Note_on_c, 2, 40, 0
4, 31620, Note_on_c, 2, 52, 107
4, 31680, Note_on_c, 2, 52, 0
4, 31680, Note_on_c, 2, 45, 107
4, 31740, Note_on_c, 2, 45, 0
4, 31740, Note_on_c, 2, 57, 107
4, 31770, Note_on_c, 2, 57, 0
4, 31770, Note_on_c, 2, 59, 107
4, 31800, Note_on_c, 2, 59, 0
4, 31800, Note_on_c, 2, 56, 107
4, 31830, Note_on_c, 2, 56, 0
4, 31830, Note_on_c, 2, 57, 107
4, 31860, Note_on_c, 2, 57, 0
4, 31860, Note_on_c, 2, 54, 107
4, 31890, Note_on_c, 2, 54, 0
4, 31890, Note_on_c, 2, 56, 107
4, 31920, Note_on_c, 2, 56, 0
4, 31920, Note_on_c, 2, 52, 107
4, 31950, Note_on_c, 2, 52, 0
4, 31950, Note_on_c, 2, 54, 107
4, 31980, Note_on_c, 2, 54, 0
4, 31980, Note_on_c, 2, 50, 107
4, 32010, Note_on_c, 2, 50, 0
4, 32010, Note_on_c, 2, 52, 107
4, 32040, Note_on_c, 2, 52, 0
4, 32040, Note_on_c, 2, 49, 107
4, 32100, Note_on_c, 2, 49, 0
4, 32100, Note_on_c, 2, 54, 107
4, 32130, Note_on_c, 2, 54, 0
4, 32130, Note_on_c, 2, 56, 107
4, 32160, Note_on_c, 2, 56, 0
4, 32160, Note_on_c, 2, 52, 107
4, 32190, Note_on_c, 2, 52, 0
4, 32190, Note_on_c, 2, 54, 107
4, 32220, Note_on_c, 2, 54, 0
4, 32220, Note_on_c, 2, 50, 107
4, 32250, Note_on_c, 2, 50, 0
4, 32250, Note_on_c, 2, 52, 107
4, 32280, Note_on_c, 2, 52, 0
4, 32280, Note_on_c, 2, 49, 107
4, 32310, Note_on_c, 2, 49, 0
4, 32310, Note_on_c, 2, 50, 106
4, 32340, Note_on_c, 2, 50, 0
4, 32340, Note_on_c, 2, 47, 106
4, 32370, Note_on_c, 2, 47, 0
4, 32370, Note_on_c, 2, 49, 105
4, 32400, Note_on_c, 2, 49, 0
4, 32400, Note_on_c, 2, 45, 100
4, 32430, Note_on_c, 2, 45, 0
4, 32430, Note_on_c, 2, 52, 100
4, 32460, Note_on_c, 2, 52, 0
4, 32460, Note_on_c, 2, 57, 100
4, 32490, Note_on_c, 2, 57, 0
4, 32490, Note_on_c, 2, 56, 100
4, 32520, Note_on_c, 2, 56, 0
4, 32520, Note_on_c, 2, 57, 100
4, 32550, Note_on_c, 2, 57, 0
4, 32550, Note_on_c, 2, 56, 100
4, 32580, Note_on_c, 2, 56, 0
4, 32580, Note_on_c, 2, 54, 100
4, 32610, Note_on_c, 2, 54, 0
4, 32610, Note_on_c, 2, 52, 100
4, 32640, Note_on_c, 2, 52, 0
4, 32640, Note_on_c, 2, 50, 100
4, 32670, Note_on_c, 2, 50, 0
4, 32670, Note_on_c, 2, 49, 100
4, 32700, Note_on_c, 2, 49, 0
4, 32700, Note_on_c, 2, 47, 100
4, 32730, Note_on_c, 2, 47, 0
4, 32730, Note_on_c, 2, 45, 100
4, 32760, Note_on_c, 2, 45, 0
4, 32760, Note_on_c, 2, 44, 100
4, 32790, Note_on_c, 2, 44, 0
4, 32790, Note_on_c, 2, 42, 100
4, 32820, Note_on_c, 2, 42, 0
4, 32820, Note_on_c, 2, 40, 100
4, 32850, Note_on_c, 2, 40, 0
4, 32850, Note_on_c, 2, 39, 100
4, 32880, Note_on_c, 2, 39, 0
4, 32880, Note_on_c, 2, 40, 100
4, 32910, Note_on_c, 2, 40, 0
4, 32910, Note_on_c, 2, 44, 100
4, 32940, Note_on_c, 2, 44, 0
4, 32940, Note_on_c, 2, 47, 100
4, 32970, Note_on_c, 2, 47, 0
4, 32970, Note_on_c, 2, 51, 100
4, 33000, Note_on_c, 2, 51, 0
4, 33000, Note_on_c, 2, 52, 100
4, 33030, Note_on_c, 2, 52, 0
4, 33030, Note_on_c, 2, 50, 100
4, 33060, Note_on_c, 2, 50, 0
4, 33060, Note_on_c, 2, 49, 100
4, 33090, Note_on_c, 2, 49, 0
4, 33090, Note_on_c, 2, 47, 100
4, 33120, Note_on_c, 2, 47, 0
4, 33120, Note_on_c, 2, 45, 100
4, 33150, Note_on_c, 2, 45, 0
4, 33150, Note_on_c, 2, 49, 100
4, 33180, Note_on_c, 2, 49, 0
4, 33180, Note_on_c, 2, 52, 100
4, 33210, Note_on_c, 2, 52, 0
4, 33210, Note_on_c, 2, 57, 100
4, 33240, Note_on_c, 2, 57, 0
4, 33240, Note_on_c, 2, 45, 100
4, 33270, Note_on_c, 2, 45, 0
4, 33270, Note_on_c, 2, 57, 100
4, 33300, Note_on_c, 2, 57, 0
4, 33300, Note_on_c, 2, 44, 100
4, 33330, Note_on_c, 2, 44, 0
4, 33330, Note_on_c, 2, 56, 100
4, 33360, Note_on_c, 2, 56, 0
4, 33360, Note_on_c, 2, 45, 100
4, 33390, Note_on_c, 2, 45, 0
4, 33390, Note_on_c, 2, 57, 100
4, 33420, Note_on_c, 2, 57, 0
4, 33420, Note_on_c, 2, 38, 100
4, 33450, Note_on_c, 2, 38, 0
4, 33450, Note_on_c, 2, 50, 100
4, 33480, Note_on_c, 2, 50, 0
4, 33480, Note_on_c, 2, 40, 100
4, 33510, Note_on_c, 2, 40, 0
4, 33510, Note_on_c, 2, 45, 100
4, 33540, Note_on_c, 2, 45, 0
4, 33540, Note_on_c, 2, 49, 100
4, 33570, Note_on_c, 2, 49, 0
4, 33570, Note_on_c, 2, 52, 100
4, 33600, Note_on_c, 2, 52, 0
4, 33600, Note_on_c, 2, 40, 100
4, 33630, Note_on_c, 2, 40, 0
4, 33630, Note_on_c, 2, 45, 100
4, 33660, Note_on_c, 2, 45, 0
4, 33660, Note_on_c, 2, 49, 100
4, 33690, Note_on_c, 2, 49, 0
4, 33690, Note_on_c, 2, 52, 100
4, 33720, Note_on_c, 2, 52, 0
4, 33720, Note_on_c, 2, 40, 100
4, 33750, Note_on_c, 2, 40, 0
4, 33750, Note_on_c, 2, 45, 100
4, 33780, Note_on_c, 2, 45, 0
4, 33780, Note_on_c, 2, 49, 100
4, 33810, Note_on_c, 2, 49, 0
4, 33810, Note_on_c, 2, 52, 100
4, 33840, Note_on_c, 2, 52, 0
4, 33840, Note_on_c, 2, 42, 100
4, 33870, Note_on_c, 2, 42, 0
4, 33870, Note_on_c, 2, 54, 100
4, 33900, Note_on_c, 2, 54, 0
4, 33900, Note_on_c, 2, 53, 100
4, 33930, Note_on_c, 2, 53, 0
4, 33930, Note_on_c, 2, 54, 100
4, 33960, Note_on_c, 2, 54, 0
4, 33960, Note_on_c, 2, 51, 100
4, 33990, Note_on_c, 2, 51, 0
4, 33990, Note_on_c, 2, 54, 100
4, 34020, Note_on_c, 2, 54, 0
4, 34020, Note_on_c, 2, 45, 100
4, 34050, Note_on_c, 2, 45, 0
4, 34050, Note_on_c, 2, 51, 100
4, 34080, Note_on_c, 2, 51, 0
4, 34080, Note_on_c, 2, 42, 100
4, 34110, Note_on_c, 2, 42, 0
4, 34110, Note_on_c, 2, 45, 100
4, 34140, Note_on_c, 2, 45, 0
4, 34140, Note_on_c, 2, 51, 100
4, 34170, Note_on_c, 2, 51, 0
4, 34170, Note_on_c, 2, 54, 100
4, 34200, Note_on_c, 2, 54, 0
4, 34200, Note_on_c, 2, 44, 100
4, 34230, Note_on_c, 2, 44, 0
4, 34230, Note_on_c, 2, 56, 100
4, 34260, Note_on_c, 2, 56, 0
4, 34260, Note_on_c, 2, 54, 100
4, 34290, Note_on_c, 2, 54, 0
4, 34290, Note_on_c, 2, 56, 100
4, 34320, Note_on_c, 2, 56, 0
4, 34320, Note_on_c, 2, 44, 100
4, 34350, Note_on_c, 2, 44, 0
4, 34350, Note_on_c, 2, 56, 100
4, 34380, Note_on_c, 2, 56, 0
4, 34380, Note_on_c, 2, 40, 100
4, 34410, Note_on_c, 2, 40, 0
4, 34410, Note_on_c, 2, 52, 100
4, 34440, Note_on_c, 2, 52, 0
4, 34440, Note_on_c, 2, 45, 100
4, 34470, Note_on_c, 2, 45, 0
4, 34470, Note_on_c, 2, 57, 100
4, 34500, Note_on_c, 2, 57, 0
4, 34500, Note_on_c, 2, 42, 100
4, 34530, Note_on_c, 2, 42, 0
4, 34530, Note_on_c, 2, 54, 100
4, 34560, Note_on_c, 2, 54, 0
4, 34560, Note_on_c, 2, 47, 57
4, 34590, Note_on_c, 2, 47, 0
4, 34590, Note_on_c, 2, 52, 57
4, 34620, Note_on_c, 2, 52, 0
4, 34620, Note_on_c, 2, 56, 57
4, 34650, Note_on_c, 2, 56, 0
4, 34650, Note_on_c, 2, 59, 57
4, 34680, Note_on_c, 2, 59, 0
4, 34680, Note_on_c, 2, 47, 57
4, 34710, Note_on_c, 2, 47, 0
4, 34710, Note_on_c, 2, 52, 57
4, 34740, Note_on_c, 2, 52, 0
4, 34740, Note_on_c, 2, 56, 57
4, 34770, Note_on_c, 2, 56, 0
4, 34770, Note_on_c, 2, 59, 57
4, 34800, Note_on_c, 2, 59, 0
4, 34800, Note_on_c, 2, 47, 57
4, 34830, Note_on_c, 2, 47, 0
4, 34830, Note_on_c, 2, 54, 57
4, 34860, Note_on_c, 2, 54, 0
4, 34860, Note_on_c, 2, 57, 57
4, 34890, Note_on_c, 2, 57, 0
4, 34890, Note_on_c, 2, 59, 57
4, 34920, Note_on_c, 2, 59, 0
4, 34920, Note_on_c, 2, 52, 57
4, 34950, Note_on_c, 2, 52, 0
4, 34950, Note_on_c, 2, 56, 57
4, 34980, Note_on_c, 2, 56, 0
4, 34980, Note_on_c, 2, 59, 57
4, 35010, Note_on_c, 2, 59, 0
4, 35010, Note_on_c, 2, 57, 57
4, 35040, Note_on_c, 2, 57, 0
4, 35040, Note_on_c, 2, 56, 57
4, 35070, Note_on_c, 2, 56, 0
4, 35070, Note_on_c, 2, 54, 57
4, 35100, Note_on_c, 2, 54, 0
4, 35100, Note_on_c, 2, 52, 57
4, 35130, Note_on_c, 2, 52, 0
4, 35130, Note_on_c, 2, 51, 57
4, 35160, Note_on_c, 2, 51, 0
4, 35160, Note_on_c, 2, 52, 57
4, 35190, Note_on_c, 2, 52, 0
4, 35190, Note_on_c, 2, 54, 57
4, 35220, Note_on_c, 2, 54, 0
4, 35220, Note_on_c, 2, 50, 57
4, 35250, Note_on_c, 2, 50, 0
4, 35250, Note_on_c, 2, 52, 57
4, 35280, Note_on_c, 2, 52, 0
4, 35280, Note_on_c, 2, 49, 57
4, 35310, Note_on_c, 2, 49, 0
4, 35310, Note_on_c, 2, 52, 59
4, 35340, Note_on_c, 2, 52, 0
4, 35340, Note_on_c, 2, 55, 61
4, 35370, Note_on_c, 2, 55, 0
4, 35370, Note_on_c, 2, 54, 63
4, 35400, Note_on_c, 2, 54, 0
4, 35400, Note_on_c, 2, 52, 64
4, 35430, Note_on_c, 2, 52, 0
4, 35430, Note_on_c, 2, 50, 65
4, 35460, Note_on_c, 2, 50, 0
4, 35460, Note_on_c, 2, 49, 66
4, 35490, Note_on_c, 2, 49, 0
4, 35490, Note_on_c, 2, 47, 67
4, 35520, Note_on_c, 2, 47, 0
4, 35520, Note_on_c, 2, 45, 68
4, 35550, Note_on_c, 2, 45, 0
4, 35550, Note_on_c, 2, 47, 69
4, 35580, Note_on_c, 2, 47, 0
4, 35580, Note_on_c, 2, 43, 70
4, 35610, Note_on_c, 2, 43, 0
4, 35610, Note_on_c, 2, 45, 72
4, 35640, Note_on_c, 2, 45, 0
4, 35640, Note_on_c, 2, 42, 73
4, 35670, Note_on_c, 2, 42, 0
4, 35670, Note_on_c, 2, 45, 76
4, 35700, Note_on_c, 2, 45, 0
4, 35700, Note_on_c, 2, 50, 77
4, 35730, Note_on_c, 2, 50, 0
4, 35730, Note_on_c, 2, 54, 77
4, 35760, Note_on_c, 2, 54, 0
4, 35760, Note_on_c, 2, 42, 79
4, 35790, Note_on_c, 2, 42, 0
4, 35790, Note_on_c, 2, 45, 79
4, 35820, Note_on_c, 2, 45, 0
4, 35820, Note_on_c, 2, 50, 79
4, 35850, Note_on_c, 2, 50, 0
4, 35850, Note_on_c, 2, 54, 80
4, 35880, Note_on_c, 2, 54, 0
4, 35880, Note_on_c, 2, 40, 81
4, 35910, Note_on_c, 2, 40, 0
4, 35910, Note_on_c, 2, 43, 81
4, 35940, Note_on_c, 2, 43, 0
4, 35940, Note_on_c, 2, 46, 82
4, 35970, Note_on_c, 2, 46, 0
4, 35970, Note_on_c, 2, 49, 82
4, 36000, Note_on_c, 2, 49, 0
4, 36000, Note_on_c, 2, 38, 84
4, 36030, Note_on_c, 2, 38, 0
4, 36030, Note_on_c, 2, 50, 85
4, 36060, Note_on_c, 2, 50, 0
4, 36060, Note_on_c, 2, 34, 85
4, 36090, Note_on_c, 2, 34, 0
4, 36090, Note_on_c, 2, 46, 85
4, 36120, Note_on_c, 2, 46, 0
4, 36120, Note_on_c, 2, 35, 85
4, 36150, Note_on_c, 2, 35, 0
4, 36150, Note_on_c, 2, 47, 85
4, 36180, Note_on_c, 2, 47, 0
4, 36180, Note_on_c, 2, 35, 85
4, 36210, Note_on_c, 2, 35, 0
4, 36210, Note_on_c, 2, 47, 85
4, 36240, Note_on_c, 2, 47, 0
4, 36240, Note_on_c, 2, 37, 85
4, 36270, Note_on_c, 2, 37, 0
4, 36270, Note_on_c, 2, 49, 87
4, 36300, Note_on_c, 2, 49, 0
4, 36300, Note_on_c, 2, 38, 87
4, 36330, Note_on_c, 2, 38, 0
4, 36330, Note_on_c, 2, 50, 91
4, 36360, Note_on_c, 2, 50, 0
4, 36360, Note_on_c, 2, 40, 91
4, 36390, Note_on_c, 2, 40, 0
4, 36390, Note_on_c, 2, 45, 91
4, 36420, Note_on_c, 2, 45, 0
4, 36420, Note_on_c, 2, 49, 91
4, 36450, Note_on_c, 2, 49, 0
4, 36450, Note_on_c, 2, 52, 91
4, 36480, Note_on_c, 2, 52, 0
4, 36480, Note_on_c, 2, 40, 94
4, 36510, Note_on_c, 2, 40, 0
4, 36510, Note_on_c, 2, 52, 94
4, 36540, Note_on_c, 2, 52, 0
4, 36540, Note_on_c, 2, 51, 94
4, 36570, Note_on_c, 2, 51, 0
4, 36570, Note_on_c, 2, 52, 94
4, 36600, Note_on_c, 2, 52, 0
4, 36600, Note_on_c, 2, 40, 94
4, 36630, Note_on_c, 2, 40, 0
4, 36630, Note_on_c, 2, 52, 94
4, 36660, Note_on_c, 2, 52, 0
4, 36660, Note_on_c, 2, 38, 95
4, 36690, Note_on_c, 2, 38, 0
4, 36690, Note_on_c, 2, 50, 95
4, 36720, Note_on_c, 2, 50, 0
4, 36720, Note_on_c, 2, 37, 95
4, 36750, Note_on_c, 2, 37, 0
4, 36750, Note_on_c, 2, 40, 95
4, 36780, Note_on_c, 2, 40, 0
4, 36780, Note_on_c, 2, 45, 95
4, 36810, Note_on_c, 2, 45, 0
4, 36810, Note_on_c, 2, 49, 95
4, 36840, Note_on_c, 2, 49, 0
4, 36840, Note_on_c, 2, 37, 95
4, 36870, Note_on_c, 2, 37, 0
4, 36870, Note_on_c, 2, 49, 95
4, 36900, Note_on_c, 2, 49, 0
4, 36900, Note_on_c, 2, 37, 95
4, 36930, Note_on_c, 2, 37, 0
4, 36930, Note_on_c, 2, 49, 95
4, 36960, Note_on_c, 2, 49, 0
4, 36960, Note_on_c, 2, 35, 95
4, 36990, Note_on_c, 2, 35, 0
4, 36990, Note_on_c, 2, 47, 94
4, 37020, Note_on_c, 2, 47, 0
4, 37020, Note_on_c, 2, 33, 94
4, 37050, Note_on_c, 2, 33, 0
4, 37050, Note_on_c, 2, 45, 94
4, 37080, Note_on_c, 2, 45, 0
4, 37080, Note_on_c, 2, 42, 94
4, 37110, Note_on_c, 2, 42, 0
4, 37110, Note_on_c, 2, 45, 93
4, 37140, Note_on_c, 2, 45, 0
4, 37140, Note_on_c, 2, 50, 93
4, 37170, Note_on_c, 2, 50, 0
4, 37170, Note_on_c, 2, 54, 92
4, 37200, Note_on_c, 2, 54, 0
4, 37200, Note_on_c, 2, 42, 92
4, 37230, Note_on_c, 2, 42, 0
4, 37230, Note_on_c, 2, 54, 91
4, 37260, Note_on_c, 2, 54, 0
4, 37260, Note_on_c, 2, 42, 91
4, 37290, Note_on_c, 2, 42, 0
4, 37290, Note_on_c, 2, 54, 91
4, 37320, Note_on_c, 2, 54, 0
4, 37320, Note_on_c, 2, 40, 91
4, 37350, Note_on_c, 2, 40, 0
4, 37350, Note_on_c, 2, 52, 91
4, 37380, Note_on_c, 2, 52, 0
4, 37380, Note_on_c, 2, 38, 91
4, 37410, Note_on_c, 2, 38, 0
4, 37410, Note_on_c, 2, 50, 91
4, 37440, Note_on_c, 2, 50, 0
4, 37440, Note_on_c, 2, 40, 91
4, 37470, Note_on_c, 2, 40, 0
4, 37470, Note_on_c, 2, 45, 91
4, 37500, Note_on_c, 2, 45, 0
4, 37500, Note_on_c, 2, 49, 91
4, 37530, Note_on_c, 2, 49, 0
4, 37530, Note_on_c, 2, 52, 89
4, 37560, Note_on_c, 2, 52, 0
4, 37560, Note_on_c, 2, 40, 89
4, 37590, Note_on_c, 2, 40, 0
4, 37590, Note_on_c, 2, 45, 89
4, 37620, Note_on_c, 2, 45, 0
4, 37620, Note_on_c, 2, 49, 89
4, 37650, Note_on_c, 2, 49, 0
4, 37650, Note_on_c, 2, 52, 89
4, 37680, Note_on_c, 2, 52, 0
4, 37680, Note_on_c, 2, 40, 89
4, 37710, Note_on_c, 2, 40, 0
4, 37710, Note_on_c, 2, 47, 89
4, 37740, Note_on_c, 2, 47, 0
4, 37740, Note_on_c, 2, 50, 89
4, 37770, Note_on_c, 2, 50, 0
4, 37770, Note_on_c, 2, 52, 89
4, 37800, Note_on_c, 2, 52, 0
4, 37800, Note_on_c, 2, 45, 89
4, 37920, Note_on_c, 2, 45, 0
4, 37980, Note_on_c, 2, 61, 91
4, 37980, Note_on_c, 2, 57, 91
4, 38040, Note_on_c, 2, 57, 0
4, 38040, Note_on_c, 2, 61, 0
4, 38040, Note_on_c, 2, 61, 91
4, 38040, Note_on_c, 2, 57, 91
4, 38100, Note_on_c, 2, 57, 0
4, 38100, Note_on_c, 2, 61, 0
4, 38100, Note_on_c, 2, 61, 91
4, 38100, Note_on_c, 2, 57, 91
4, 38160, Note_on_c, 2, 57, 0
4, 38160, Note_on_c, 2, 61, 0
4, 38160, Note_on_c, 2, 62, 91
4, 38160, Note_on_c, 2, 57, 91
4, 38340, Note_on_c, 2, 57, 0
4, 38340, Note_on_c, 2, 62, 0
4, 38340, Note_on_c, 2, 62, 91
4, 38340, Note_on_c, 2, 57, 91
4, 38400, Note_on_c, 2, 57, 0
4, 38400, Note_on_c, 2, 62, 0
4, 38400, Note_on_c, 2, 62, 91
4, 38400, Note_on_c, 2, 57, 91
4, 38460, Note_on_c, 2, 57, 0
4, 38460, Note_on_c, 2, 62, 0
4, 38460, Note_on_c, 2, 62, 91
4, 38460, Note_on_c, 2, 57, 91
4, 38520, Note_on_c, 2, 57, 0
4, 38520, Note_on_c, 2, 62, 0
4, 38520, Note_on_c, 2, 64, 91
4, 38520, Note_on_c, 2, 57, 91
4, 38700, Note_on_c, 2, 57, 0
4, 38700, Note_on_c, 2, 64, 0
4, 38700, Note_on_c, 2, 64, 92
4, 38700, Note_on_c, 2, 57, 92
4, 38760, Note_on_c, 2, 57, 0
4, 38760, Note_on_c, 2, 64, 0
4, 38760, Note_on_c, 2, 64, 92
4, 38760, Note_on_c, 2, 57, 92
4, 38820, Note_on_c, 2, 57, 0
4, 38820, Note_on_c, 2, 64, 0
4, 38820, Note_on_c, 2, 64, 92
4, 38820, Note_on_c, 2, 57, 92
4, 38880, Note_on_c, 2, 57, 0
4, 38880, Note_on_c, 2, 64, 0
4, 38880, Note_on_c, 2, 57, 92
4, 38880, Note_on_c, 2, 66, 92
4, 39060, Note_on_c, 2, 66, 0
4, 39060, Note_on_c, 2, 57, 0
4, 39060, Note_on_c, 2, 66, 92
4, 39060, Note_on_c, 2, 57, 92
4, 39120, Note_on_c, 2, 57, 0
4, 39120, Note_on_c, 2, 66, 0
4, 39120, Note_on_c, 2, 66, 92
4, 39120, Note_on_c, 2, 57, 92
4, 39180, Note_on_c, 2, 57, 0
4, 39180, Note_on_c, 2, 66, 0
4, 39180, Note_on_c, 2, 66, 92
4, 39180, Note_on_c, 2, 57, 92
4, 39240, Note_on_c, 2, 57, 0
4, 39240, Note_on_c, 2, 66, 0
4, 39240, Note_on_c, 2, 67, 92
4, 39240, Note_on_c, 2, 64, 92
4, 39240, Note_on_c, 2, 61, 92
4, 39240, Note_on_c, 2, 57, 92
4, 39480, Note_on_c, 2, 57, 0
4, 39480, Note_on_c, 2, 67, 0
4, 39480, Note_on_c, 2, 64, 0
4, 39480, Note_on_c, 2, 61, 0
4, 39480, Note_on_c, 2, 57, 91
4, 39480, Note_on_c, 2, 61, 91
4, 39480, Note_on_c, 2, 64, 91
4, 39480, Note_on_c, 2, 67, 91
4, 39600, Note_on_c, 2, 67, 0
4, 39600, Note_on_c, 2, 57, 0
4, 39600, Note_on_c, 2, 61, 0
4, 39600, Note_on_c, 2, 64, 0
4, 39600, Note_on_c, 2, 50, 91
4, 39600, Note_on_c, 2, 62, 91
4, 39840, Note_on_c, 2, 62, 0
4, 39840, Note_on_c, 2, 50, 0
4, 39840, Note_on_c, 2, 38, 90
4, 39840, Note_on_c, 2, 50, 90
4, 39960, Note_on_c, 2, 50, 0
4, 39960, Note_on_c, 2, 38, 0
4, 39960, Note_on_c, 2, 38, 88
4, 39960, Note_on_c, 2, 50, 88
4, 40200, Note_on_c, 2, 50, 0
4, 40200, Note_on_c, 2, 38, 0
4, 40200, Note_on_c, 2, 49, 78
4, 40200, Note_on_c, 2, 37, 78
4, 40320, Note_on_c, 2, 37, 0
4, 40320, Note_on_c, 2, 49, 0
4, 40320, Note_on_c, 2, 38, 73
4, 40320, Note_on_c, 2, 50, 73
4, 40440, Note_on_c, 2, 50, 0
4, 40440, Note_on_c, 2, 38, 0
4, 40440, Note_on_c, 2, 54, 68
4, 40440, Note_on_c, 2, 42, 68
4, 40560, Note_on_c, 2, 42, 0
4, 40560, Note_on_c, 2, 54, 0
4, 40560, Note_on_c, 2, 50, 64
4, 40560, Note_on_c, 2, 38, 64
4, 40680, Note_on_c, 2, 38, 0
4, 40680, Note_on_c, 2, 50, 0
4, 40680, Note_on_c, 2, 33, 57
4, 40680, Note_on_c, 2, 45, 57
4, 41040, Note_on_c, 2, 45, 0
4, 41040, Note_on_c, 2, 33, 0
4, 41040, End_track
5, 0, Start_track
5, 0, MIDI_port, 0
5, 0, Title_t, "Chor"
5, 0, Program_c, 3, 61
5, 0, Control_c, 3, 7, 121
5, 0, Control_c, 3, 10, 64
5, 0, Control_c, 3, 93, 18
5, 0, Control_c, 3, 91, 11
5, 0, End_track
0, 0, End_of_file