0, 0, Header, 1, 3, 120
1, 0, Start_track
1, 0, Title_t, "Rond\362 in C WoO 48  (1783)"
1, 0, Title_t, "Allegretto"
1, 0, Copyright_t, "Copyright \251 2001 di fiorellaearmando@panet.it"
1, 0, Text_t, "FIORELLA E ARMANDO ORLANDI\012"
1, 0, Time_signature, 3, 3, 12, 8
1, 0, Key_signature, 0, "major"
1, 0, Tempo, 576923
1, 9900, Tempo, 596540
1, 9904, Tempo, 602531
1, 9908, Tempo, 608643
1, 9910, Tempo, 614880
1, 9914, Tempo, 621247
1, 9916, Tempo, 627746
1, 9920, Tempo, 634384
1, 9922, Tempo, 641163
1, 9926, Tempo, 648088
1, 9930, Tempo, 655165
1, 9932, Tempo, 662398
1, 9936, Tempo, 669792
1, 9938, Tempo, 677354
1, 9942, Tempo, 685088
1, 9944, Tempo, 693001
1, 9948, Tempo, 701098
1, 9952, Tempo, 709388
1, 9954, Tempo, 717875
1, 9958, Tempo, 726568
1, 9960, Tempo, 735474
1, 9964, Tempo, 744602
1, 9966, Tempo, 753958
1, 9970, Tempo, 763553
1, 9972, Tempo, 773395
1, 9976, Tempo, 783494
1, 9980, Tempo, 793861
1, 9982, Tempo, 804505
1, 9986, Tempo, 815439
1, 9988, Tempo, 826674
1, 9992, Tempo, 838223
1, 9994, Tempo, 850099
1, 9998, Tempo, 862317
1, 10002, Tempo, 874891
1, 10004, Tempo, 887837
1, 10008, Tempo, 901172
1, 10010, Tempo, 914913
1, 10014, Tempo, 929080
1, 10016, Tempo, 943693
1, 10020, Tempo, 958773
1, 10022, Tempo, 3000000
1, 10052, Tempo, 3157895
1, 10080, Tempo, 560748
1, 17098, Tempo, 1132075
1, 17100, Key_signature, -3, "major"
1, 17106, Tempo, 560748
1, 25198, Tempo, 1000000
1, 25334, Tempo, 1538462
1, 25380, Key_signature, 0, "major"
1, 25380, Tempo, 560748
1, 25380, End_track
2, 0, Start_track
2, 0, MIDI_port, 0
2, 0, Title_t, "Piano R"
2, 0, Program_c, 0, 0
2, 0, Control_c, 0, 7, 113
2, 0, Control_c, 0, 10, 44
2, 0, Control_c, 0, 93, 10
2, 0, Control_c, 0, 91, 19
2, 180, Note_on_c, 0, 79, 61
2, 240, Note_on_c, 0, 79, 0
2, 240, Note_on_c, 0, 79, 61
2, 300, Note_on_c, 0, 79, 0
2, 300, Note_on_c, 0, 79, 61
2, 360, Note_on_c, 0, 79, 0
2, 360, Note_on_c, 0, 76, 60
2, 480, Note_on_c, 0, 76, 0
2, 480, Note_on_c, 0, 72, 53
2, 540, Note_on_c, 0, 72, 0
2, 540, Note_on_c, 0, 79, 60
2, 600, Note_on_c, 0, 79, 0
2, 600, Note_on_c, 0, 79, 62
2, 660, Note_on_c, 0, 79, 0
2, 660, Note_on_c, 0, 79, 63
2, 720, Note_on_c, 0, 79, 0
2, 720, Note_on_c, 0, 77, 63
2, 840, Note_on_c, 0, 77, 0
2, 840, Note_on_c, 0, 74, 49
2, 900, Note_on_c, 0, 74, 0
2, 900, Note_on_c, 0, 76, 49
2, 930, Note_on_c, 0, 76, 0
2, 930, Note_on_c, 0, 72, 49
2, 960, Note_on_c, 0, 72, 0
2, 960, Note_on_c, 0, 77, 49
2, 990, Note_on_c, 0, 77, 0
2, 990, Note_on_c, 0, 74, 49
2, 1020, Note_on_c, 0, 74, 0
2, 1020, Note_on_c, 0, 79, 49
2, 1050, Note_on_c, 0, 79, 0
2, 1050, Note_on_c, 0, 76, 49
2, 1080, Note_on_c, 0, 76, 0
2, 1080, Note_on_c, 0, 81, 49
2, 1110, Note_on_c, 0, 81, 0
2, 1110, Note_on_c, 0, 79, 49
2, 1140, Note_on_c, 0, 79, 0
2, 1140, Note_on_c, 0, 77, 49
2, 1170, Note_on_c, 0, 77, 0
2, 1170, Note_on_c, 0, 76, 49
2, 1200, Note_on_c, 0, 76, 0
2, 1200, Note_on_c, 0, 74, 49
2, 1230, Note_on_c, 0, 74, 0
2, 1230, Note_on_c, 0, 72, 49
2, 1260, Note_on_c, 0, 72, 0
2, 1260, Note_on_c, 0, 71, 49
2, 1290, Note_on_c, 0, 71, 0
2, 1290, Note_on_c, 0, 72, 49
2, 1320, Note_on_c, 0, 72, 0
2, 1320, Note_on_c, 0, 74, 49
2, 1350, Note_on_c, 0, 74, 0
2, 1350, Note_on_c, 0, 72, 49
2, 1380, Note_on_c, 0, 72, 0
2, 1380, Note_on_c, 0, 71, 49
2, 1410, Note_on_c, 0, 71, 0
2, 1410, Note_on_c, 0, 69, 49
2, 1440, Note_on_c, 0, 69, 0
2, 1440, Note_on_c, 0, 67, 49
2, 1470, Note_on_c, 0, 67, 0
2, 1470, Note_on_c, 0, 66, 49
2, 1500, Note_on_c, 0, 66, 0
2, 1500, Note_on_c, 0, 67, 49
2, 1530, Note_on_c, 0, 67, 0
2, 1530, Note_on_c, 0, 65, 49
2, 1560, Note_on_c, 0, 65, 0
2, 1560, Note_on_c, 0, 64, 49
2, 1590, Note_on_c, 0, 64, 0
2, 1590, Note_on_c, 0, 62, 49
2, 1605, Note_on_c, 0, 78, 72
2, 1620, Note_on_c, 0, 78, 0
2, 1620, Note_on_c, 0, 62, 0
2, 1620, Note_on_c, 0, 79, 72
2, 1680, Note_on_c, 0, 79, 0
2, 1680, Note_on_c, 0, 79, 73
2, 1740, Note_on_c, 0, 79, 0
2, 1740, Note_on_c, 0, 79, 74
2, 1800, Note_on_c, 0, 79, 0
2, 1800, Note_on_c, 0, 76, 74
2, 1920, Note_on_c, 0, 76, 0
2, 1920, Note_on_c, 0, 72, 74
2, 1965, Note_on_c, 0, 78, 74
2, 1980, Note_on_c, 0, 78, 0
2, 1980, Note_on_c, 0, 72, 0
2, 1980, Note_on_c, 0, 79, 74
2, 2040, Note_on_c, 0, 79, 0
2, 2040, Note_on_c, 0, 79, 74
2, 2100, Note_on_c, 0, 79, 0
2, 2100, Note_on_c, 0, 79, 74
2, 2160, Note_on_c, 0, 79, 0
2, 2160, Note_on_c, 0, 77, 74
2, 2280, Note_on_c, 0, 77, 0
2, 2280, Note_on_c, 0, 74, 74
2, 2340, Note_on_c, 0, 74, 0
2, 2340, Note_on_c, 0, 76, 73
2, 2370, Note_on_c, 0, 76, 0
2, 2370, Note_on_c, 0, 72, 73
2, 2400, Note_on_c, 0, 72, 0
2, 2400, Note_on_c, 0, 77, 72
2, 2430, Note_on_c, 0, 77, 0
2, 2430, Note_on_c, 0, 74, 72
2, 2460, Note_on_c, 0, 74, 0
2, 2460, Note_on_c, 0, 79, 72
2, 2490, Note_on_c, 0, 79, 0
2, 2490, Note_on_c, 0, 76, 72
2, 2520, Note_on_c, 0, 76, 0
2, 2520, Note_on_c, 0, 81, 72
2, 2550, Note_on_c, 0, 81, 0
2, 2550, Note_on_c, 0, 79, 72
2, 2580, Note_on_c, 0, 79, 0
2, 2580, Note_on_c, 0, 77, 72
2, 2610, Note_on_c, 0, 77, 0
2, 2610, Note_on_c, 0, 76, 73
2, 2640, Note_on_c, 0, 76, 0
2, 2640, Note_on_c, 0, 74, 74
2, 2670, Note_on_c, 0, 74, 0
2, 2670, Note_on_c, 0, 72, 75
2, 2700, Note_on_c, 0, 72, 0
2, 2700, Note_on_c, 0, 72, 77
2, 2880, Note_on_c, 0, 72, 0
2, 3060, Note_on_c, 0, 72, 51
2, 3060, Note_on_c, 0, 76, 51
2, 3180, Note_on_c, 0, 76, 0
2, 3180, Note_on_c, 0, 72, 0
2, 3180, Note_on_c, 0, 72, 52
2, 3180, Note_on_c, 0, 76, 52
2, 3225, Note_on_c, 0, 74, 52
2, 3225, Note_on_c, 0, 77, 52
2, 3240, Note_on_c, 0, 77, 0
2, 3240, Note_on_c, 0, 72, 0
2, 3240, Note_on_c, 0, 76, 0
2, 3240, Note_on_c, 0, 74, 0
2, 3240, Note_on_c, 0, 72, 52
2, 3240, Note_on_c, 0, 76, 52
2, 3300, Note_on_c, 0, 76, 0
2, 3300, Note_on_c, 0, 72, 0
2, 3300, Note_on_c, 0, 71, 52
2, 3300, Note_on_c, 0, 74, 52
2, 3360, Note_on_c, 0, 74, 0
2, 3360, Note_on_c, 0, 71, 0
2, 3360, Note_on_c, 0, 72, 52
2, 3360, Note_on_c, 0, 76, 52
2, 3420, Note_on_c, 0, 76, 0
2, 3420, Note_on_c, 0, 72, 0
2, 3420, Note_on_c, 0, 73, 52
2, 3420, Note_on_c, 0, 76, 52
2, 3600, Note_on_c, 0, 76, 0
2, 3600, Note_on_c, 0, 73, 0
2, 3600, Note_on_c, 0, 74, 52
2, 3600, Note_on_c, 0, 77, 52
2, 3720, Note_on_c, 0, 77, 0
2, 3720, Note_on_c, 0, 74, 0
2, 3720, Note_on_c, 0, 67, 52
2, 3780, Note_on_c, 0, 67, 0
2, 3780, Note_on_c, 0, 74, 52
2, 3780, Note_on_c, 0, 77, 52
2, 3900, Note_on_c, 0, 77, 0
2, 3900, Note_on_c, 0, 74, 0
2, 3900, Note_on_c, 0, 74, 52
2, 3900, Note_on_c, 0, 77, 52
2, 3945, Note_on_c, 0, 79, 52
2, 3945, Note_on_c, 0, 76, 52
2, 3960, Note_on_c, 0, 76, 0
2, 3960, Note_on_c, 0, 74, 0
2, 3960, Note_on_c, 0, 77, 0
2, 3960, Note_on_c, 0, 79, 0
2, 3960, Note_on_c, 0, 74, 52
2, 3960, Note_on_c, 0, 77, 52
2, 4020, Note_on_c, 0, 77, 0
2, 4020, Note_on_c, 0, 74, 0
2, 4020, Note_on_c, 0, 73, 52
2, 4020, Note_on_c, 0, 76, 52
2, 4080, Note_on_c, 0, 76, 0
2, 4080, Note_on_c, 0, 73, 0
2, 4080, Note_on_c, 0, 74, 52
2, 4080, Note_on_c, 0, 77, 52
2, 4140, Note_on_c, 0, 77, 0
2, 4140, Note_on_c, 0, 74, 0
2, 4140, Note_on_c, 0, 75, 52
2, 4140, Note_on_c, 0, 78, 52
2, 4320, Note_on_c, 0, 78, 0
2, 4320, Note_on_c, 0, 75, 0
2, 4320, Note_on_c, 0, 79, 52
2, 4320, Note_on_c, 0, 76, 52
2, 4500, Note_on_c, 0, 76, 0
2, 4500, Note_on_c, 0, 79, 0
2, 4530, Note_on_c, 0, 79, 85
2, 4560, Note_on_c, 0, 79, 0
2, 4560, Note_on_c, 0, 78, 85
2, 4590, Note_on_c, 0, 78, 0
2, 4590, Note_on_c, 0, 79, 85
2, 4620, Note_on_c, 0, 79, 0
2, 4620, Note_on_c, 0, 81, 85
2, 4650, Note_on_c, 0, 81, 0
2, 4650, Note_on_c, 0, 79, 85
2, 4680, Note_on_c, 0, 79, 0
2, 4680, Note_on_c, 0, 77, 85
2, 4710, Note_on_c, 0, 77, 0
2, 4710, Note_on_c, 0, 76, 85
2, 4740, Note_on_c, 0, 76, 0
2, 4740, Note_on_c, 0, 77, 85
2, 4770, Note_on_c, 0, 77, 0
2, 4770, Note_on_c, 0, 74, 85
2, 4800, Note_on_c, 0, 74, 0
2, 4800, Note_on_c, 0, 72, 85
2, 4830, Note_on_c, 0, 72, 0
2, 4830, Note_on_c, 0, 71, 85
2, 4860, Note_on_c, 0, 71, 0
2, 4890, Note_on_c, 0, 79, 85
2, 4920, Note_on_c, 0, 79, 0
2, 4920, Note_on_c, 0, 78, 85
2, 4950, Note_on_c, 0, 78, 0
2, 4950, Note_on_c, 0, 79, 85
2, 4980, Note_on_c, 0, 79, 0
2, 4980, Note_on_c, 0, 81, 85
2, 5010, Note_on_c, 0, 81, 0
2, 5010, Note_on_c, 0, 79, 85
2, 5040, Note_on_c, 0, 79, 0
2, 5040, Note_on_c, 0, 77, 85
2, 5070, Note_on_c, 0, 77, 0
2, 5070, Note_on_c, 0, 76, 85
2, 5100, Note_on_c, 0, 76, 0
2, 5100, Note_on_c, 0, 77, 85
2, 5130, Note_on_c, 0, 77, 0
2, 5130, Note_on_c, 0, 74, 85
2, 5160, Note_on_c, 0, 74, 0
2, 5160, Note_on_c, 0, 72, 85
2, 5190, Note_on_c, 0, 72, 0
2, 5190, Note_on_c, 0, 71, 85
2, 5220, Note_on_c, 0, 71, 0
2, 5220, Note_on_c, 0, 72, 85
2, 5280, Note_on_c, 0, 72, 0
2, 5280, Note_on_c, 0, 84, 85
2, 5340, Note_on_c, 0, 84, 0
2, 5340, Note_on_c, 0, 83, 85
2, 5400, Note_on_c, 0, 83, 0
2, 5400, Note_on_c, 0, 81, 85
2, 5460, Note_on_c, 0, 81, 0
2, 5460, Note_on_c, 0, 81, 85
2, 5520, Note_on_c, 0, 81, 0
2, 5520, Note_on_c, 0, 79, 85
2, 5580, Note_on_c, 0, 79, 0
2, 5580, Note_on_c, 0, 78, 85
2, 5640, Note_on_c, 0, 78, 0
2, 5640, Note_on_c, 0, 78, 85
2, 5700, Note_on_c, 0, 78, 0
2, 5700, Note_on_c, 0, 78, 85
2, 5740, Note_on_c, 0, 78, 85
2, 5747, Note_on_c, 0, 78, 0
2, 5750, Note_on_c, 0, 76, 85
2, 5757, Note_on_c, 0, 76, 0
2, 5760, Note_on_c, 0, 78, 0
2, 5760, Note_on_c, 0, 78, 85
2, 5820, Note_on_c, 0, 78, 0
2, 5820, Note_on_c, 0, 76, 85
2, 5880, Note_on_c, 0, 76, 0
2, 5880, Note_on_c, 0, 78, 85
2, 5940, Note_on_c, 0, 78, 0
2, 5940, Note_on_c, 0, 79, 85
2, 6000, Note_on_c, 0, 79, 0
2, 6000, Note_on_c, 0, 74, 85
2, 6060, Note_on_c, 0, 74, 0
2, 6060, Note_on_c, 0, 71, 85
2, 6120, Note_on_c, 0, 71, 0
2, 6120, Note_on_c, 0, 74, 85
2, 6180, Note_on_c, 0, 74, 0
2, 6180, Note_on_c, 0, 71, 85
2, 6240, Note_on_c, 0, 71, 0
2, 6240, Note_on_c, 0, 66, 85
2, 6300, Note_on_c, 0, 66, 0
2, 6300, Note_on_c, 0, 67, 85
2, 6480, Note_on_c, 0, 67, 0
2, 6660, Note_on_c, 0, 67, 45
2, 6690, Note_on_c, 0, 67, 0
2, 6690, Note_on_c, 0, 62, 45
2, 6720, Note_on_c, 0, 62, 0
2, 6720, Note_on_c, 0, 59, 45
2, 6750, Note_on_c, 0, 59, 0
2, 6750, Note_on_c, 0, 62, 45
2, 6780, Note_on_c, 0, 62, 0
2, 6780, Note_on_c, 0, 67, 45
2, 6810, Note_on_c, 0, 67, 0
2, 6810, Note_on_c, 0, 62, 45
2, 6840, Note_on_c, 0, 62, 0
2, 6840, Note_on_c, 0, 69, 45
2, 6870, Note_on_c, 0, 69, 0
2, 6870, Note_on_c, 0, 62, 45
2, 6900, Note_on_c, 0, 62, 0
2, 6900, Note_on_c, 0, 57, 45
2, 6930, Note_on_c, 0, 57, 0
2, 6930, Note_on_c, 0, 62, 45
2, 6960, Note_on_c, 0, 62, 0
2, 6960, Note_on_c, 0, 69, 45
2, 6990, Note_on_c, 0, 69, 0
2, 6990, Note_on_c, 0, 62, 45
2, 7020, Note_on_c, 0, 62, 0
2, 7020, Note_on_c, 0, 71, 45
2, 7050, Note_on_c, 0, 71, 0
2, 7050, Note_on_c, 0, 62, 45
2, 7080, Note_on_c, 0, 62, 0
2, 7080, Note_on_c, 0, 59, 45
2, 7110, Note_on_c, 0, 59, 0
2, 7110, Note_on_c, 0, 62, 45
2, 7140, Note_on_c, 0, 62, 0
2, 7140, Note_on_c, 0, 71, 45
2, 7170, Note_on_c, 0, 71, 0
2, 7170, Note_on_c, 0, 62, 45
2, 7200, Note_on_c, 0, 62, 0
2, 7200, Note_on_c, 0, 72, 45
2, 7230, Note_on_c, 0, 72, 0
2, 7230, Note_on_c, 0, 62, 45
2, 7260, Note_on_c, 0, 62, 0
2, 7260, Note_on_c, 0, 60, 45
2, 7290, Note_on_c, 0, 60, 0
2, 7290, Note_on_c, 0, 62, 45
2, 7320, Note_on_c, 0, 62, 0
2, 7320, Note_on_c, 0, 72, 45
2, 7350, Note_on_c, 0, 72, 0
2, 7350, Note_on_c, 0, 62, 45
2, 7380, Note_on_c, 0, 62, 0
2, 7380, Note_on_c, 0, 74, 45
2, 7410, Note_on_c, 0, 74, 0
2, 7410, Note_on_c, 0, 62, 45
2, 7440, Note_on_c, 0, 62, 0
2, 7440, Note_on_c, 0, 72, 45
2, 7470, Note_on_c, 0, 72, 0
2, 7470, Note_on_c, 0, 62, 45
2, 7500, Note_on_c, 0, 62, 0
2, 7500, Note_on_c, 0, 71, 45
2, 7530, Note_on_c, 0, 71, 0
2, 7530, Note_on_c, 0, 62, 45
2, 7560, Note_on_c, 0, 62, 0
2, 7560, Note_on_c, 0, 69, 45
2, 7590, Note_on_c, 0, 69, 0
2, 7590, Note_on_c, 0, 62, 45
2, 7620, Note_on_c, 0, 62, 0
2, 7620, Note_on_c, 0, 67, 45
2, 7650, Note_on_c, 0, 67, 0
2, 7650, Note_on_c, 0, 62, 45
2, 7680, Note_on_c, 0, 62, 0
2, 7680, Note_on_c, 0, 66, 45
2, 7710, Note_on_c, 0, 66, 0
2, 7710, Note_on_c, 0, 62, 45
2, 7740, Note_on_c, 0, 62, 0
2, 7740, Note_on_c, 0, 67, 85
2, 7770, Note_on_c, 0, 67, 0
2, 7770, Note_on_c, 0, 62, 85
2, 7800, Note_on_c, 0, 62, 0
2, 7800, Note_on_c, 0, 59, 85
2, 7830, Note_on_c, 0, 59, 0
2, 7830, Note_on_c, 0, 62, 85
2, 7860, Note_on_c, 0, 62, 0
2, 7860, Note_on_c, 0, 67, 85
2, 7890, Note_on_c, 0, 67, 0
2, 7890, Note_on_c, 0, 62, 85
2, 7920, Note_on_c, 0, 62, 0
2, 7920, Note_on_c, 0, 69, 85
2, 7950, Note_on_c, 0, 69, 0
2, 7950, Note_on_c, 0, 62, 85
2, 7980, Note_on_c, 0, 62, 0
2, 7980, Note_on_c, 0, 57, 85
2, 8010, Note_on_c, 0, 57, 0
2, 8010, Note_on_c, 0, 62, 85
2, 8040, Note_on_c, 0, 62, 0
2, 8040, Note_on_c, 0, 69, 85
2, 8070, Note_on_c, 0, 69, 0
2, 8070, Note_on_c, 0, 62, 85
2, 8100, Note_on_c, 0, 62, 0
2, 8100, Note_on_c, 0, 71, 85
2, 8130, Note_on_c, 0, 71, 0
2, 8130, Note_on_c, 0, 62, 85
2, 8160, Note_on_c, 0, 62, 0
2, 8160, Note_on_c, 0, 59, 85
2, 8190, Note_on_c, 0, 59, 0
2, 8190, Note_on_c, 0, 62, 85
2, 8220, Note_on_c, 0, 62, 0
2, 8220, Note_on_c, 0, 71, 85
2, 8250, Note_on_c, 0, 71, 0
2, 8250, Note_on_c, 0, 62, 85
2, 8280, Note_on_c, 0, 62, 0
2, 8280, Note_on_c, 0, 72, 115
2, 8310, Note_on_c, 0, 72, 0
2, 8310, Note_on_c, 0, 67, 115
2, 8340, Note_on_c, 0, 67, 0
2, 8340, Note_on_c, 0, 61, 115
2, 8370, Note_on_c, 0, 61, 0
2, 8370, Note_on_c, 0, 67, 115
2, 8400, Note_on_c, 0, 67, 0
2, 8400, Note_on_c, 0, 72, 115
2, 8430, Note_on_c, 0, 72, 0
2, 8430, Note_on_c, 0, 67, 115
2, 8460, Note_on_c, 0, 67, 0
2, 8460, Note_on_c, 0, 74, 115
2, 8460, Note_on_c, 0, 66, 115
2, 8640, Note_on_c, 0, 66, 0
2, 8640, Note_on_c, 0, 74, 0
2, 8640, Note_on_c, 0, 78, 45
2, 8700, Note_on_c, 0, 78, 0
2, 8700, Note_on_c, 0, 76, 45
2, 8760, Note_on_c, 0, 76, 0
2, 8760, Note_on_c, 0, 74, 45
2, 8820, Note_on_c, 0, 74, 0
2, 8820, Note_on_c, 0, 67, 45
2, 8820, Note_on_c, 0, 73, 45
2, 8880, Note_on_c, 0, 73, 0
2, 8880, Note_on_c, 0, 73, 45
2, 8940, Note_on_c, 0, 73, 0
2, 8940, Note_on_c, 0, 73, 45
2, 8985, Note_on_c, 0, 74, 45
2, 9000, Note_on_c, 0, 74, 0
2, 9000, Note_on_c, 0, 73, 0
2, 9000, Note_on_c, 0, 67, 0
2, 9000, Note_on_c, 0, 73, 45
2, 9000, Note_on_c, 0, 67, 45
2, 9060, Note_on_c, 0, 73, 0
2, 9060, Note_on_c, 0, 71, 45
2, 9120, Note_on_c, 0, 71, 0
2, 9120, Note_on_c, 0, 73, 45
2, 9180, Note_on_c, 0, 73, 0
2, 9180, Note_on_c, 0, 67, 0
2, 9180, Note_on_c, 0, 74, 45
2, 9180, Note_on_c, 0, 66, 45
2, 9360, Note_on_c, 0, 66, 0
2, 9360, Note_on_c, 0, 74, 0
2, 9360, Note_on_c, 0, 66, 45
2, 9420, Note_on_c, 0, 66, 0
2, 9420, Note_on_c, 0, 64, 45
2, 9480, Note_on_c, 0, 64, 0
2, 9480, Note_on_c, 0, 62, 45
2, 9540, Note_on_c, 0, 62, 0
2, 9540, Note_on_c, 0, 61, 35
2, 9540, Note_on_c, 0, 67, 35
2, 9600, Note_on_c, 0, 67, 0
2, 9600, Note_on_c, 0, 61, 0
2, 9600, Note_on_c, 0, 61, 35
2, 9660, Note_on_c, 0, 61, 0
2, 9660, Note_on_c, 0, 61, 35
2, 9700, Note_on_c, 0, 61, 35
2, 9706, Note_on_c, 0, 61, 0
2, 9710, Note_on_c, 0, 59, 35
2, 9716, Note_on_c, 0, 59, 0
2, 9720, Note_on_c, 0, 61, 0
2, 9720, Note_on_c, 0, 67, 35
2, 9720, Note_on_c, 0, 61, 35
2, 9780, Note_on_c, 0, 61, 0
2, 9780, Note_on_c, 0, 67, 0
2, 9780, Note_on_c, 0, 59, 35
2, 9840, Note_on_c, 0, 59, 0
2, 9840, Note_on_c, 0, 61, 35
2, 9900, Note_on_c, 0, 61, 0
2, 9940, Note_on_c, 0, 57, 30
2, 9950, Note_on_c, 0, 62, 30
2, 9960, Note_on_c, 0, 66, 30
2, 10070, Note_on_c, 0, 62, 0
2, 10075, Note_on_c, 0, 57, 0
2, 10080, Note_on_c, 0, 66, 0
2, 10080, Note_on_c, 0, 74, 45
2, 10140, Note_on_c, 0, 74, 0
2, 10140, Note_on_c, 0, 74, 45
2, 10200, Note_on_c, 0, 74, 0
2, 10200, Note_on_c, 0, 74, 45
2, 10260, Note_on_c, 0, 74, 0
2, 10260, Note_on_c, 0, 70, 45
2, 10380, Note_on_c, 0, 70, 0
2, 10380, Note_on_c, 0, 67, 45
2, 10440, Note_on_c, 0, 67, 0
2, 10440, Note_on_c, 0, 74, 45
2, 10500, Note_on_c, 0, 74, 0
2, 10500, Note_on_c, 0, 74, 45
2, 10560, Note_on_c, 0, 74, 0
2, 10560, Note_on_c, 0, 74, 45
2, 10620, Note_on_c, 0, 74, 0
2, 10620, Note_on_c, 0, 72, 45
2, 10740, Note_on_c, 0, 72, 0
2, 10740, Note_on_c, 0, 69, 45
2, 10800, Note_on_c, 0, 69, 0
2, 10800, Note_on_c, 0, 74, 45
2, 10860, Note_on_c, 0, 74, 0
2, 10860, Note_on_c, 0, 74, 45
2, 10920, Note_on_c, 0, 74, 0
2, 10920, Note_on_c, 0, 74, 45
2, 10980, Note_on_c, 0, 74, 0
2, 10980, Note_on_c, 0, 71, 45
2, 11100, Note_on_c, 0, 71, 0
2, 11100, Note_on_c, 0, 67, 45
2, 11160, Note_on_c, 0, 67, 0
2, 11160, Note_on_c, 0, 69, 45
2, 11280, Note_on_c, 0, 69, 0
2, 11280, Note_on_c, 0, 71, 45
2, 11340, Note_on_c, 0, 71, 0
2, 11340, Note_on_c, 0, 72, 85
2, 11520, Note_on_c, 0, 72, 0
2, 11520, Note_on_c, 0, 67, 85
2, 11520, Note_on_c, 0, 79, 85
2, 11580, Note_on_c, 0, 79, 0
2, 11580, Note_on_c, 0, 67, 0
2, 11580, Note_on_c, 0, 67, 85
2, 11580, Note_on_c, 0, 79, 85
2, 11640, Note_on_c, 0, 79, 0
2, 11640, Note_on_c, 0, 67, 0
2, 11640, Note_on_c, 0, 67, 85
2, 11640, Note_on_c, 0, 79, 85
2, 11700, Note_on_c, 0, 79, 0
2, 11700, Note_on_c, 0, 67, 0
2, 11700, Note_on_c, 0, 63, 71
2, 11700, Note_on_c, 0, 75, 71
2, 11820, Note_on_c, 0, 75, 0
2, 11820, Note_on_c, 0, 63, 0
2, 11820, Note_on_c, 0, 60, 71
2, 11820, Note_on_c, 0, 72, 71
2, 11880, Note_on_c, 0, 72, 0
2, 11880, Note_on_c, 0, 60, 0
2, 11880, Note_on_c, 0, 67, 71
2, 11880, Note_on_c, 0, 79, 71
2, 11940, Note_on_c, 0, 79, 0
2, 11940, Note_on_c, 0, 67, 0
2, 11940, Note_on_c, 0, 67, 71
2, 11940, Note_on_c, 0, 79, 71
2, 12000, Note_on_c, 0, 79, 0
2, 12000, Note_on_c, 0, 67, 0
2, 12000, Note_on_c, 0, 67, 71
2, 12000, Note_on_c, 0, 79, 71
2, 12060, Note_on_c, 0, 79, 0
2, 12060, Note_on_c, 0, 67, 0
2, 12060, Note_on_c, 0, 65, 71
2, 12060, Note_on_c, 0, 77, 71
2, 12180, Note_on_c, 0, 77, 0
2, 12180, Note_on_c, 0, 65, 0
2, 12180, Note_on_c, 0, 62, 71
2, 12180, Note_on_c, 0, 74, 71
2, 12240, Note_on_c, 0, 74, 0
2, 12240, Note_on_c, 0, 62, 0
2, 12240, Note_on_c, 0, 67, 85
2, 12240, Note_on_c, 0, 79, 85
2, 12300, Note_on_c, 0, 79, 0
2, 12300, Note_on_c, 0, 67, 0
2, 12300, Note_on_c, 0, 67, 85
2, 12300, Note_on_c, 0, 79, 85
2, 12360, Note_on_c, 0, 79, 0
2, 12360, Note_on_c, 0, 67, 0
2, 12360, Note_on_c, 0, 67, 85
2, 12360, Note_on_c, 0, 79, 85
2, 12420, Note_on_c, 0, 79, 0
2, 12420, Note_on_c, 0, 67, 0
2, 12420, Note_on_c, 0, 75, 100
2, 12540, Note_on_c, 0, 75, 0
2, 12540, Note_on_c, 0, 72, 100
2, 12600, Note_on_c, 0, 72, 0
2, 12600, Note_on_c, 0, 68, 100
2, 12720, Note_on_c, 0, 68, 0
2, 12720, Note_on_c, 0, 66, 100
2, 12780, Note_on_c, 0, 66, 0
2, 12780, Note_on_c, 0, 67, 100
2, 12960, Note_on_c, 0, 67, 0
2, 12960, Note_on_c, 0, 67, 100
2, 12960, Note_on_c, 0, 79, 100
2, 13020, Note_on_c, 0, 79, 0
2, 13020, Note_on_c, 0, 67, 0
2, 13020, Note_on_c, 0, 66, 100
2, 13020, Note_on_c, 0, 78, 100
2, 13080, Note_on_c, 0, 78, 0
2, 13080, Note_on_c, 0, 66, 0
2, 13080, Note_on_c, 0, 65, 100
2, 13080, Note_on_c, 0, 77, 100
2, 13140, Note_on_c, 0, 77, 0
2, 13140, Note_on_c, 0, 65, 0
2, 13140, Note_on_c, 0, 63, 100
2, 13140, Note_on_c, 0, 75, 100
2, 13200, Note_on_c, 0, 75, 0
2, 13200, Note_on_c, 0, 63, 0
2, 13200, Note_on_c, 0, 62, 100
2, 13200, Note_on_c, 0, 74, 100
2, 13260, Note_on_c, 0, 74, 0
2, 13260, Note_on_c, 0, 62, 0
2, 13260, Note_on_c, 0, 60, 100
2, 13260, Note_on_c, 0, 72, 100
2, 13320, Note_on_c, 0, 72, 0
2, 13320, Note_on_c, 0, 60, 0
2, 13320, Note_on_c, 0, 66, 100
2, 13320, Note_on_c, 0, 72, 100
2, 13380, Note_on_c, 0, 72, 0
2, 13380, Note_on_c, 0, 66, 0
2, 13380, Note_on_c, 0, 71, 100
2, 13440, Note_on_c, 0, 71, 0
2, 13440, Note_on_c, 0, 72, 100
2, 13500, Note_on_c, 0, 72, 0
2, 13500, Note_on_c, 0, 67, 122
2, 13500, Note_on_c, 0, 71, 122
2, 13500, Note_on_c, 0, 74, 122
2, 13680, Note_on_c, 0, 74, 0
2, 13680, Note_on_c, 0, 71, 0
2, 13680, Note_on_c, 0, 67, 0
2, 13680, Note_on_c, 0, 67, 40
2, 13740, Note_on_c, 0, 67, 0
2, 13740, Note_on_c, 0, 66, 40
2, 13800, Note_on_c, 0, 66, 0
2, 13800, Note_on_c, 0, 65, 40
2, 13860, Note_on_c, 0, 65, 0
2, 13860, Note_on_c, 0, 63, 40
2, 13920, Note_on_c, 0, 63, 0
2, 13920, Note_on_c, 0, 62, 40
2, 13980, Note_on_c, 0, 62, 0
2, 13980, Note_on_c, 0, 60, 40
2, 14020, Note_on_c, 0, 60, 35
2, 14027, Note_on_c, 0, 62, 35
2, 14028, Note_on_c, 0, 60, 0
2, 14035, Note_on_c, 0, 62, 0
2, 14040, Note_on_c, 0, 60, 0
2, 14040, Note_on_c, 0, 60, 40
2, 14100, Note_on_c, 0, 60, 0
2, 14100, Note_on_c, 0, 59, 40
2, 14160, Note_on_c, 0, 59, 0
2, 14160, Note_on_c, 0, 60, 40
2, 14220, Note_on_c, 0, 60, 0
2, 14220, Note_on_c, 0, 62, 55
2, 14250, Note_on_c, 0, 62, 0
2, 14250, Note_on_c, 0, 59, 55
2, 14280, Note_on_c, 0, 59, 0
2, 14280, Note_on_c, 0, 60, 55
2, 14310, Note_on_c, 0, 60, 0
2, 14310, Note_on_c, 0, 62, 55
2, 14340, Note_on_c, 0, 62, 0
2, 14340, Note_on_c, 0, 64, 55
2, 14370, Note_on_c, 0, 64, 0
2, 14370, Note_on_c, 0, 66, 55
2, 14400, Note_on_c, 0, 66, 0
2, 14400, Note_on_c, 0, 67, 35
2, 14430, Note_on_c, 0, 67, 0
2, 14430, Note_on_c, 0, 69, 35
2, 14460, Note_on_c, 0, 69, 0
2, 14460, Note_on_c, 0, 71, 35
2, 14490, Note_on_c, 0, 71, 0
2, 14490, Note_on_c, 0, 72, 35
2, 14520, Note_on_c, 0, 72, 0
2, 14520, Note_on_c, 0, 74, 35
2, 14535, Note_on_c, 0, 74, 0
2, 14535, Note_on_c, 0, 76, 35
2, 14550, Note_on_c, 0, 76, 0
2, 14550, Note_on_c, 0, 77, 35
2, 14565, Note_on_c, 0, 77, 0
2, 14565, Note_on_c, 0, 78, 35
2, 14580, Note_on_c, 0, 78, 0
2, 14580, Note_on_c, 0, 79, 61
2, 14640, Note_on_c, 0, 79, 0
2, 14640, Note_on_c, 0, 79, 61
2, 14700, Note_on_c, 0, 79, 0
2, 14700, Note_on_c, 0, 79, 61
2, 14760, Note_on_c, 0, 79, 0
2, 14760, Note_on_c, 0, 76, 60
2, 14880, Note_on_c, 0, 76, 0
2, 14880, Note_on_c, 0, 72, 53
2, 14940, Note_on_c, 0, 72, 0
2, 14940, Note_on_c, 0, 79, 60
2, 15000, Note_on_c, 0, 79, 0
2, 15000, Note_on_c, 0, 79, 62
2, 15060, Note_on_c, 0, 79, 0
2, 15060, Note_on_c, 0, 79, 63
2, 15120, Note_on_c, 0, 79, 0
2, 15120, Note_on_c, 0, 77, 63
2, 15240, Note_on_c, 0, 77, 0
2, 15240, Note_on_c, 0, 74, 49
2, 15300, Note_on_c, 0, 74, 0
2, 15300, Note_on_c, 0, 76, 49
2, 15330, Note_on_c, 0, 76, 0
2, 15330, Note_on_c, 0, 72, 49
2, 15360, Note_on_c, 0, 72, 0
2, 15360, Note_on_c, 0, 77, 49
2, 15390, Note_on_c, 0, 77, 0
2, 15390, Note_on_c, 0, 74, 49
2, 15420, Note_on_c, 0, 74, 0
2, 15420, Note_on_c, 0, 79, 49
2, 15450, Note_on_c, 0, 79, 0
2, 15450, Note_on_c, 0, 76, 49
2, 15480, Note_on_c, 0, 76, 0
2, 15480, Note_on_c, 0, 81, 49
2, 15510, Note_on_c, 0, 81, 0
2, 15510, Note_on_c, 0, 79, 49
2, 15540, Note_on_c, 0, 79, 0
2, 15540, Note_on_c, 0, 77, 49
2, 15570, Note_on_c, 0, 77, 0
2, 15570, Note_on_c, 0, 76, 49
2, 15600, Note_on_c, 0, 76, 0
2, 15600, Note_on_c, 0, 74, 49
2, 15630, Note_on_c, 0, 74, 0
2, 15630, Note_on_c, 0, 72, 49
2, 15660, Note_on_c, 0, 72, 0
2, 15660, Note_on_c, 0, 71, 49
2, 15690, Note_on_c, 0, 71, 0
2, 15690, Note_on_c, 0, 72, 49
2, 15720, Note_on_c, 0, 72, 0
2, 15720, Note_on_c, 0, 74, 49
2, 15750, Note_on_c, 0, 74, 0
2, 15750, Note_on_c, 0, 72, 49
2, 15780, Note_on_c, 0, 72, 0
2, 15780, Note_on_c, 0, 71, 49
2, 15810, Note_on_c, 0, 71, 0
2, 15810, Note_on_c, 0, 69, 49
2, 15840, Note_on_c, 0, 69, 0
2, 15840, Note_on_c, 0, 67, 49
2, 15870, Note_on_c, 0, 67, 0
2, 15870, Note_on_c, 0, 66, 49
2, 15900, Note_on_c, 0, 66, 0
2, 15900, Note_on_c, 0, 67, 49
2, 15930, Note_on_c, 0, 67, 0
2, 15930, Note_on_c, 0, 65, 49
2, 15960, Note_on_c, 0, 65, 0
2, 15960, Note_on_c, 0, 64, 49
2, 15990, Note_on_c, 0, 64, 0
2, 15990, Note_on_c, 0, 62, 49
2, 16020, Note_on_c, 0, 62, 0
2, 16020, Note_on_c, 0, 79, 72
2, 16080, Note_on_c, 0, 79, 0
2, 16080, Note_on_c, 0, 79, 73
2, 16140, Note_on_c, 0, 79, 0
2, 16140, Note_on_c, 0, 79, 74
2, 16200, Note_on_c, 0, 79, 0
2, 16200, Note_on_c, 0, 76, 74
2, 16320, Note_on_c, 0, 76, 0
2, 16320, Note_on_c, 0, 72, 74
2, 16380, Note_on_c, 0, 72, 0
2, 16380, Note_on_c, 0, 79, 74
2, 16440, Note_on_c, 0, 79, 0
2, 16440, Note_on_c, 0, 79, 74
2, 16500, Note_on_c, 0, 79, 0
2, 16500, Note_on_c, 0, 79, 74
2, 16560, Note_on_c, 0, 79, 0
2, 16560, Note_on_c, 0, 77, 74
2, 16680, Note_on_c, 0, 77, 0
2, 16680, Note_on_c, 0, 74, 74
2, 16740, Note_on_c, 0, 74, 0
2, 16740, Note_on_c, 0, 76, 73
2, 16770, Note_on_c, 0, 76, 0
2, 16770, Note_on_c, 0, 72, 73
2, 16800, Note_on_c, 0, 72, 0
2, 16800, Note_on_c, 0, 77, 72
2, 16830, Note_on_c, 0, 77, 0
2, 16830, Note_on_c, 0, 74, 72
2, 16860, Note_on_c, 0, 74, 0
2, 16860, Note_on_c, 0, 79, 72
2, 16890, Note_on_c, 0, 79, 0
2, 16890, Note_on_c, 0, 76, 72
2, 16920, Note_on_c, 0, 76, 0
2, 16920, Note_on_c, 0, 81, 72
2, 16950, Note_on_c, 0, 81, 0
2, 16950, Note_on_c, 0, 77, 72
2, 16980, Note_on_c, 0, 77, 0
2, 16980, Note_on_c, 0, 76, 72
2, 17010, Note_on_c, 0, 76, 0
2, 17010, Note_on_c, 0, 74, 73
2, 17040, Note_on_c, 0, 74, 0
2, 17040, Note_on_c, 0, 72, 74
2, 17070, Note_on_c, 0, 72, 0
2, 17070, Note_on_c, 0, 71, 75
2, 17100, Note_on_c, 0, 71, 0
2, 17100, Note_on_c, 0, 72, 75
2, 17160, Note_on_c, 0, 72, 0
2, 17310, Note_on_c, 0, 72, 74
2, 17340, Note_on_c, 0, 72, 0
2, 17340, Note_on_c, 0, 75, 75
2, 17370, Note_on_c, 0, 75, 0
2, 17370, Note_on_c, 0, 72, 77
2, 17400, Note_on_c, 0, 72, 0
2, 17400, Note_on_c, 0, 79, 78
2, 17430, Note_on_c, 0, 79, 0
2, 17430, Note_on_c, 0, 75, 79
2, 17460, Note_on_c, 0, 75, 0
2, 17460, Note_on_c, 0, 84, 79
2, 17490, Note_on_c, 0, 84, 0
2, 17490, Note_on_c, 0, 82, 80
2, 17520, Note_on_c, 0, 82, 0
2, 17520, Note_on_c, 0, 80, 80
2, 17550, Note_on_c, 0, 80, 0
2, 17550, Note_on_c, 0, 79, 80
2, 17580, Note_on_c, 0, 79, 0
2, 17580, Note_on_c, 0, 77, 80
2, 17610, Note_on_c, 0, 77, 0
2, 17610, Note_on_c, 0, 75, 80
2, 17640, Note_on_c, 0, 75, 0
2, 17670, Note_on_c, 0, 74, 80
2, 17700, Note_on_c, 0, 74, 0
2, 17700, Note_on_c, 0, 79, 80
2, 17730, Note_on_c, 0, 79, 0
2, 17730, Note_on_c, 0, 74, 80
2, 17760, Note_on_c, 0, 74, 0
2, 17760, Note_on_c, 0, 83, 80
2, 17790, Note_on_c, 0, 83, 0
2, 17790, Note_on_c, 0, 79, 80
2, 17820, Note_on_c, 0, 79, 0
2, 17820, Note_on_c, 0, 86, 79
2, 17850, Note_on_c, 0, 86, 0
2, 17850, Note_on_c, 0, 84, 79
2, 17880, Note_on_c, 0, 84, 0
2, 17880, Note_on_c, 0, 83, 79
2, 17910, Note_on_c, 0, 83, 0
2, 17910, Note_on_c, 0, 80, 78
2, 17940, Note_on_c, 0, 80, 0
2, 17940, Note_on_c, 0, 79, 76
2, 17970, Note_on_c, 0, 79, 0
2, 17970, Note_on_c, 0, 77, 75
2, 18000, Note_on_c, 0, 77, 0
2, 18000, Note_on_c, 0, 75, 44
2, 18030, Note_on_c, 0, 75, 0
2, 18030, Note_on_c, 0, 77, 44
2, 18060, Note_on_c, 0, 77, 0
2, 18060, Note_on_c, 0, 79, 44
2, 18090, Note_on_c, 0, 79, 0
2, 18090, Note_on_c, 0, 75, 44
2, 18120, Note_on_c, 0, 75, 0
2, 18120, Note_on_c, 0, 74, 44
2, 18150, Note_on_c, 0, 74, 0
2, 18150, Note_on_c, 0, 72, 44
2, 18180, Note_on_c, 0, 72, 0
2, 18180, Note_on_c, 0, 71, 44
2, 18210, Note_on_c, 0, 71, 0
2, 18210, Note_on_c, 0, 72, 44
2, 18240, Note_on_c, 0, 72, 0
2, 18240, Note_on_c, 0, 74, 44
2, 18270, Note_on_c, 0, 74, 0
2, 18270, Note_on_c, 0, 71, 44
2, 18300, Note_on_c, 0, 71, 0
2, 18300, Note_on_c, 0, 69, 44
2, 18330, Note_on_c, 0, 69, 0
2, 18330, Note_on_c, 0, 67, 44
2, 18360, Note_on_c, 0, 67, 0
2, 18390, Note_on_c, 0, 72, 74
2, 18420, Note_on_c, 0, 72, 0
2, 18420, Note_on_c, 0, 75, 75
2, 18450, Note_on_c, 0, 75, 0
2, 18450, Note_on_c, 0, 72, 77
2, 18480, Note_on_c, 0, 72, 0
2, 18480, Note_on_c, 0, 79, 78
2, 18510, Note_on_c, 0, 79, 0
2, 18510, Note_on_c, 0, 75, 79
2, 18540, Note_on_c, 0, 75, 0
2, 18540, Note_on_c, 0, 84, 79
2, 18570, Note_on_c, 0, 84, 0
2, 18570, Note_on_c, 0, 82, 80
2, 18600, Note_on_c, 0, 82, 0
2, 18600, Note_on_c, 0, 80, 80
2, 18630, Note_on_c, 0, 80, 0
2, 18630, Note_on_c, 0, 79, 80
2, 18660, Note_on_c, 0, 79, 0
2, 18660, Note_on_c, 0, 77, 80
2, 18690, Note_on_c, 0, 77, 0
2, 18690, Note_on_c, 0, 75, 80
2, 18720, Note_on_c, 0, 75, 0
2, 18750, Note_on_c, 0, 74, 80
2, 18780, Note_on_c, 0, 74, 0
2, 18780, Note_on_c, 0, 79, 80
2, 18810, Note_on_c, 0, 79, 0
2, 18810, Note_on_c, 0, 74, 80
2, 18840, Note_on_c, 0, 74, 0
2, 18840, Note_on_c, 0, 83, 80
2, 18870, Note_on_c, 0, 83, 0
2, 18870, Note_on_c, 0, 79, 80
2, 18900, Note_on_c, 0, 79, 0
2, 18900, Note_on_c, 0, 86, 80
2, 18930, Note_on_c, 0, 86, 0
2, 18930, Note_on_c, 0, 84, 80
2, 18960, Note_on_c, 0, 84, 0
2, 18960, Note_on_c, 0, 83, 78
2, 18990, Note_on_c, 0, 83, 0
2, 18990, Note_on_c, 0, 80, 78
2, 19020, Note_on_c, 0, 80, 0
2, 19020, Note_on_c, 0, 79, 77
2, 19050, Note_on_c, 0, 79, 0
2, 19050, Note_on_c, 0, 77, 77
2, 19080, Note_on_c, 0, 77, 0
2, 19080, Note_on_c, 0, 75, 76
2, 19110, Note_on_c, 0, 75, 0
2, 19110, Note_on_c, 0, 77, 75
2, 19140, Note_on_c, 0, 77, 0
2, 19140, Note_on_c, 0, 79, 74
2, 19170, Note_on_c, 0, 79, 0
2, 19170, Note_on_c, 0, 75, 73
2, 19200, Note_on_c, 0, 75, 0
2, 19200, Note_on_c, 0, 74, 72
2, 19230, Note_on_c, 0, 74, 0
2, 19230, Note_on_c, 0, 72, 72
2, 19260, Note_on_c, 0, 72, 0
2, 19260, Note_on_c, 0, 74, 72
2, 19290, Note_on_c, 0, 74, 0
2, 19290, Note_on_c, 0, 75, 72
2, 19320, Note_on_c, 0, 75, 0
2, 19320, Note_on_c, 0, 77, 72
2, 19350, Note_on_c, 0, 77, 0
2, 19350, Note_on_c, 0, 74, 72
2, 19380, Note_on_c, 0, 74, 0
2, 19380, Note_on_c, 0, 72, 72
2, 19410, Note_on_c, 0, 72, 0
2, 19410, Note_on_c, 0, 71, 72
2, 19440, Note_on_c, 0, 71, 0
2, 19680, Note_on_c, 0, 60, 80
2, 19740, Note_on_c, 0, 60, 0
2, 19740, Note_on_c, 0, 62, 80
2, 19800, Note_on_c, 0, 62, 0
2, 19800, Note_on_c, 0, 63, 40
2, 19980, Note_on_c, 0, 63, 0
2, 19980, Note_on_c, 0, 70, 40
2, 20040, Note_on_c, 0, 70, 0
2, 20040, Note_on_c, 0, 67, 40
2, 20100, Note_on_c, 0, 67, 0
2, 20100, Note_on_c, 0, 63, 40
2, 20160, Note_on_c, 0, 63, 0
2, 20160, Note_on_c, 0, 62, 40
2, 20340, Note_on_c, 0, 62, 0
2, 20400, Note_on_c, 0, 62, 40
2, 20460, Note_on_c, 0, 62, 0
2, 20460, Note_on_c, 0, 63, 40
2, 20520, Note_on_c, 0, 63, 0
2, 20520, Note_on_c, 0, 65, 40
2, 20700, Note_on_c, 0, 65, 0
2, 20700, Note_on_c, 0, 70, 40
2, 20760, Note_on_c, 0, 70, 0
2, 20760, Note_on_c, 0, 69, 40
2, 20820, Note_on_c, 0, 69, 0
2, 20820, Note_on_c, 0, 68, 40
2, 20880, Note_on_c, 0, 68, 0
2, 20880, Note_on_c, 0, 67, 110
2, 20940, Note_on_c, 0, 67, 0
2, 20940, Note_on_c, 0, 63, 110
2, 20970, Note_on_c, 0, 63, 0
2, 20970, Note_on_c, 0, 65, 110
2, 21000, Note_on_c, 0, 65, 0
2, 21000, Note_on_c, 0, 67, 110
2, 21030, Note_on_c, 0, 67, 0
2, 21030, Note_on_c, 0, 68, 110
2, 21060, Note_on_c, 0, 68, 0
2, 21060, Note_on_c, 0, 70, 110
2, 21120, Note_on_c, 0, 70, 0
2, 21120, Note_on_c, 0, 67, 110
2, 21150, Note_on_c, 0, 67, 0
2, 21150, Note_on_c, 0, 68, 110
2, 21180, Note_on_c, 0, 68, 0
2, 21180, Note_on_c, 0, 70, 110
2, 21210, Note_on_c, 0, 70, 0
2, 21210, Note_on_c, 0, 72, 110
2, 21240, Note_on_c, 0, 72, 0
2, 21240, Note_on_c, 0, 73, 110
2, 21270, Note_on_c, 0, 73, 0
2, 21270, Note_on_c, 0, 72, 110
2, 21300, Note_on_c, 0, 72, 0
2, 21300, Note_on_c, 0, 70, 110
2, 21330, Note_on_c, 0, 70, 0
2, 21330, Note_on_c, 0, 72, 110
2, 21360, Note_on_c, 0, 72, 0
2, 21360, Note_on_c, 0, 70, 110
2, 21390, Note_on_c, 0, 70, 0
2, 21390, Note_on_c, 0, 68, 110
2, 21420, Note_on_c, 0, 68, 0
2, 21420, Note_on_c, 0, 67, 110
2, 21450, Note_on_c, 0, 67, 0
2, 21450, Note_on_c, 0, 68, 110
2, 21480, Note_on_c, 0, 68, 0
2, 21480, Note_on_c, 0, 67, 110
2, 21510, Note_on_c, 0, 67, 0
2, 21510, Note_on_c, 0, 65, 110
2, 21540, Note_on_c, 0, 65, 0
2, 21540, Note_on_c, 0, 63, 110
2, 21570, Note_on_c, 0, 63, 0
2, 21570, Note_on_c, 0, 61, 110
2, 21600, Note_on_c, 0, 61, 0
2, 21600, Note_on_c, 0, 60, 110
2, 21780, Note_on_c, 0, 60, 0
2, 21780, Note_on_c, 0, 68, 52
2, 21840, Note_on_c, 0, 68, 0
2, 21840, Note_on_c, 0, 65, 52
2, 21900, Note_on_c, 0, 65, 0
2, 21900, Note_on_c, 0, 63, 52
2, 21960, Note_on_c, 0, 63, 0
2, 21960, Note_on_c, 0, 62, 52
2, 22080, Note_on_c, 0, 62, 0
2, 22080, Note_on_c, 0, 62, 53
2, 22120, Note_on_c, 0, 62, 56
2, 22127, Note_on_c, 0, 62, 0
2, 22129, Note_on_c, 0, 63, 56
2, 22136, Note_on_c, 0, 63, 0
2, 22140, Note_on_c, 0, 62, 0
2, 22140, Note_on_c, 0, 62, 54
2, 22200, Note_on_c, 0, 62, 0
2, 22200, Note_on_c, 0, 60, 54
2, 22260, Note_on_c, 0, 60, 0
2, 22260, Note_on_c, 0, 62, 54
2, 22320, Note_on_c, 0, 62, 0
2, 22320, Note_on_c, 0, 63, 54
2, 22500, Note_on_c, 0, 63, 0
2, 22500, Note_on_c, 0, 67, 86
2, 22560, Note_on_c, 0, 67, 0
2, 22560, Note_on_c, 0, 63, 86
2, 22620, Note_on_c, 0, 63, 0
2, 22620, Note_on_c, 0, 60, 86
2, 22680, Note_on_c, 0, 60, 0
2, 22680, Note_on_c, 0, 59, 87
2, 22800, Note_on_c, 0, 59, 0
2, 22800, Note_on_c, 0, 59, 87
2, 22840, Note_on_c, 0, 59, 96
2, 22847, Note_on_c, 0, 59, 0
2, 22849, Note_on_c, 0, 60, 96
2, 22856, Note_on_c, 0, 60, 0
2, 22860, Note_on_c, 0, 59, 0
2, 22860, Note_on_c, 0, 59, 87
2, 22920, Note_on_c, 0, 59, 0
2, 22920, Note_on_c, 0, 57, 87
2, 22980, Note_on_c, 0, 57, 0
2, 22980, Note_on_c, 0, 59, 88
2, 23040, Note_on_c, 0, 59, 0
2, 23040, Note_on_c, 0, 60, 88
2, 23220, Note_on_c, 0, 60, 0
2, 23220, Note_on_c, 0, 65, 46
2, 23220, Note_on_c, 0, 65, 46
2, 23280, Note_on_c, 0, 65, 0
2, 23280, Note_on_c, 0, 65, 0
2, 23280, Note_on_c, 0, 62, 46
2, 23340, Note_on_c, 0, 62, 0
2, 23340, Note_on_c, 0, 60, 46
2, 23400, Note_on_c, 0, 60, 0
2, 23400, Note_on_c, 0, 67, 96
2, 23400, Note_on_c, 0, 59, 96
2, 23580, Note_on_c, 0, 59, 0
2, 23580, Note_on_c, 0, 67, 0
2, 23580, Note_on_c, 0, 65, 46
2, 23580, Note_on_c, 0, 65, 46
2, 23640, Note_on_c, 0, 65, 0
2, 23640, Note_on_c, 0, 65, 0
2, 23640, Note_on_c, 0, 62, 46
2, 23700, Note_on_c, 0, 62, 0
2, 23700, Note_on_c, 0, 60, 46
2, 23760, Note_on_c, 0, 60, 0
2, 23760, Note_on_c, 0, 67, 49
2, 23940, Note_on_c, 0, 67, 0
2, 23940, Note_on_c, 0, 68, 38
2, 23955, Note_on_c, 0, 68, 0
2, 23955, Note_on_c, 0, 67, 38
2, 23970, Note_on_c, 0, 67, 0
2, 23970, Note_on_c, 0, 68, 38
2, 23985, Note_on_c, 0, 68, 0
2, 23985, Note_on_c, 0, 67, 38
2, 24000, Note_on_c, 0, 67, 0
2, 24000, Note_on_c, 0, 68, 38
2, 24015, Note_on_c, 0, 68, 0
2, 24015, Note_on_c, 0, 67, 38
2, 24030, Note_on_c, 0, 67, 0
2, 24030, Note_on_c, 0, 68, 37
2, 24045, Note_on_c, 0, 68, 0
2, 24045, Note_on_c, 0, 67, 37
2, 24060, Note_on_c, 0, 67, 0
2, 24060, Note_on_c, 0, 68, 37
2, 24075, Note_on_c, 0, 68, 0
2, 24075, Note_on_c, 0, 67, 37
2, 24090, Note_on_c, 0, 67, 0
2, 24090, Note_on_c, 0, 68, 37
2, 24105, Note_on_c, 0, 68, 0
2, 24105, Note_on_c, 0, 67, 37
2, 24120, Note_on_c, 0, 67, 0
2, 24120, Note_on_c, 0, 68, 37
2, 24135, Note_on_c, 0, 68, 0
2, 24135, Note_on_c, 0, 67, 37
2, 24150, Note_on_c, 0, 67, 0
2, 24150, Note_on_c, 0, 68, 36
2, 24165, Note_on_c, 0, 68, 0
2, 24165, Note_on_c, 0, 67, 36
2, 24180, Note_on_c, 0, 67, 0
2, 24180, Note_on_c, 0, 68, 36
2, 24195, Note_on_c, 0, 68, 0
2, 24195, Note_on_c, 0, 67, 36
2, 24210, Note_on_c, 0, 67, 0
2, 24210, Note_on_c, 0, 68, 35
2, 24225, Note_on_c, 0, 68, 0
2, 24225, Note_on_c, 0, 67, 35
2, 24240, Note_on_c, 0, 67, 0
2, 24240, Note_on_c, 0, 68, 35
2, 24255, Note_on_c, 0, 68, 0
2, 24255, Note_on_c, 0, 67, 35
2, 24270, Note_on_c, 0, 67, 0
2, 24270, Note_on_c, 0, 68, 35
2, 24285, Note_on_c, 0, 68, 0
2, 24285, Note_on_c, 0, 67, 35
2, 24300, Note_on_c, 0, 67, 0
2, 24300, Note_on_c, 0, 68, 34
2, 24315, Note_on_c, 0, 68, 0
2, 24315, Note_on_c, 0, 67, 34
2, 24330, Note_on_c, 0, 67, 0
2, 24330, Note_on_c, 0, 68, 34
2, 24345, Note_on_c, 0, 68, 0
2, 24345, Note_on_c, 0, 67, 34
2, 24360, Note_on_c, 0, 67, 0
2, 24360, Note_on_c, 0, 68, 34
2, 24375, Note_on_c, 0, 68, 0
2, 24375, Note_on_c, 0, 67, 34
2, 24390, Note_on_c, 0, 67, 0
2, 24390, Note_on_c, 0, 68, 34
2, 24405, Note_on_c, 0, 68, 0
2, 24405, Note_on_c, 0, 67, 34
2, 24420, Note_on_c, 0, 67, 0
2, 24420, Note_on_c, 0, 68, 34
2, 24435, Note_on_c, 0, 68, 0
2, 24435, Note_on_c, 0, 67, 34
2, 24450, Note_on_c, 0, 67, 0
2, 24450, Note_on_c, 0, 68, 34
2, 24465, Note_on_c, 0, 68, 0
2, 24465, Note_on_c, 0, 67, 34
2, 24480, Note_on_c, 0, 67, 0
2, 24480, Note_on_c, 0, 68, 34
2, 24495, Note_on_c, 0, 68, 0
2, 24495, Note_on_c, 0, 67, 34
2, 24510, Note_on_c, 0, 67, 0
2, 24510, Note_on_c, 0, 68, 34
2, 24525, Note_on_c, 0, 68, 0
2, 24525, Note_on_c, 0, 67, 34
2, 24540, Note_on_c, 0, 67, 0
2, 24540, Note_on_c, 0, 68, 33
2, 24555, Note_on_c, 0, 68, 0
2, 24555, Note_on_c, 0, 67, 33
2, 24570, Note_on_c, 0, 67, 0
2, 24570, Note_on_c, 0, 68, 33
2, 24585, Note_on_c, 0, 68, 0
2, 24585, Note_on_c, 0, 67, 33
2, 24600, Note_on_c, 0, 67, 0
2, 24600, Note_on_c, 0, 68, 33
2, 24615, Note_on_c, 0, 68, 0
2, 24615, Note_on_c, 0, 67, 33
2, 24630, Note_on_c, 0, 67, 0
2, 24630, Note_on_c, 0, 68, 33
2, 24645, Note_on_c, 0, 68, 0
2, 24645, Note_on_c, 0, 67, 33
2, 24660, Note_on_c, 0, 67, 0
2, 24660, Note_on_c, 0, 68, 33
2, 24675, Note_on_c, 0, 68, 0
2, 24675, Note_on_c, 0, 67, 33
2, 24690, Note_on_c, 0, 67, 0
2, 24690, Note_on_c, 0, 68, 33
2, 24705, Note_on_c, 0, 68, 0
2, 24705, Note_on_c, 0, 67, 33
2, 24720, Note_on_c, 0, 67, 0
2, 24720, Note_on_c, 0, 68, 33
2, 24735, Note_on_c, 0, 68, 0
2, 24735, Note_on_c, 0, 67, 33
2, 24750, Note_on_c, 0, 67, 0
2, 24750, Note_on_c, 0, 68, 33
2, 24765, Note_on_c, 0, 68, 0
2, 24765, Note_on_c, 0, 67, 33
2, 24780, Note_on_c, 0, 67, 0
2, 24780, Note_on_c, 0, 68, 33
2, 24795, Note_on_c, 0, 68, 0
2, 24795, Note_on_c, 0, 67, 33
2, 24810, Note_on_c, 0, 67, 0
2, 24810, Note_on_c, 0, 68, 33
2, 24825, Note_on_c, 0, 68, 0
2, 24825, Note_on_c, 0, 67, 33
2, 24840, Note_on_c, 0, 67, 0
2, 24840, Note_on_c, 0, 68, 33
2, 24855, Note_on_c, 0, 68, 0
2, 24855, Note_on_c, 0, 67, 33
2, 24870, Note_on_c, 0, 67, 0
2, 24870, Note_on_c, 0, 68, 33
2, 24885, Note_on_c, 0, 68, 0
2, 24885, Note_on_c, 0, 67, 33
2, 24900, Note_on_c, 0, 67, 0
2, 24900, Note_on_c, 0, 68, 33
2, 24915, Note_on_c, 0, 68, 0
2, 24915, Note_on_c, 0, 67, 33
2, 24930, Note_on_c, 0, 67, 0
2, 24930, Note_on_c, 0, 68, 33
2, 24945, Note_on_c, 0, 68, 0
2, 24945, Note_on_c, 0, 67, 33
2, 24960, Note_on_c, 0, 67, 0
2, 24960, Note_on_c, 0, 68, 32
2, 24975, Note_on_c, 0, 68, 0
2, 24975, Note_on_c, 0, 67, 32
2, 24990, Note_on_c, 0, 67, 0
2, 24990, Note_on_c, 0, 68, 32
2, 25005, Note_on_c, 0, 68, 0
2, 25005, Note_on_c, 0, 67, 32
2, 25020, Note_on_c, 0, 67, 0
2, 25020, Note_on_c, 0, 68, 32
2, 25035, Note_on_c, 0, 68, 0
2, 25035, Note_on_c, 0, 67, 31
2, 25050, Note_on_c, 0, 67, 0
2, 25050, Note_on_c, 0, 68, 31
2, 25065, Note_on_c, 0, 68, 0
2, 25065, Note_on_c, 0, 67, 31
2, 25080, Note_on_c, 0, 67, 0
2, 25080, Note_on_c, 0, 68, 31
2, 25095, Note_on_c, 0, 68, 0
2, 25095, Note_on_c, 0, 67, 31
2, 25110, Note_on_c, 0, 67, 0
2, 25110, Note_on_c, 0, 68, 30
2, 25125, Note_on_c, 0, 68, 0
2, 25125, Note_on_c, 0, 67, 30
2, 25140, Note_on_c, 0, 67, 0
2, 25140, Note_on_c, 0, 68, 30
2, 25155, Note_on_c, 0, 68, 0
2, 25155, Note_on_c, 0, 67, 30
2, 25170, Note_on_c, 0, 67, 0
2, 25170, Note_on_c, 0, 68, 30
2, 25185, Note_on_c, 0, 68, 0
2, 25185, Note_on_c, 0, 67, 29
2, 25200, Note_on_c, 0, 67, 0
2, 25200, Note_on_c, 0, 68, 29
2, 25215, Note_on_c, 0, 68, 0
2, 25215, Note_on_c, 0, 67, 29
2, 25230, Note_on_c, 0, 67, 0
2, 25230, Note_on_c, 0, 68, 29
2, 25245, Note_on_c, 0, 68, 0
2, 25245, Note_on_c, 0, 67, 29
2, 25260, Note_on_c, 0, 67, 0
2, 25260, Note_on_c, 0, 66, 29
2, 25290, Note_on_c, 0, 66, 0
2, 25290, Note_on_c, 0, 67, 28
2, 25320, Note_on_c, 0, 67, 0
2, 25320, Note_on_c, 0, 55, 28
2, 25380, Note_on_c, 0, 55, 0
2, 25380, Note_on_c, 0, 79, 61
2, 25440, Note_on_c, 0, 79, 0
2, 25440, Note_on_c, 0, 79, 61
2, 25500, Note_on_c, 0, 79, 0
2, 25500, Note_on_c, 0, 79, 61
2, 25560, Note_on_c, 0, 79, 0
2, 25560, Note_on_c, 0, 76, 60
2, 25680, Note_on_c, 0, 76, 0
2, 25680, Note_on_c, 0, 72, 53
2, 25740, Note_on_c, 0, 72, 0
2, 25740, Note_on_c, 0, 79, 60
2, 25800, Note_on_c, 0, 79, 0
2, 25800, Note_on_c, 0, 79, 62
2, 25860, Note_on_c, 0, 79, 0
2, 25860, Note_on_c, 0, 79, 63
2, 25920, Note_on_c, 0, 79, 0
2, 25920, Note_on_c, 0, 77, 63
2, 26040, Note_on_c, 0, 77, 0
2, 26040, Note_on_c, 0, 74, 49
2, 26100, Note_on_c, 0, 74, 0
2, 26100, Note_on_c, 0, 76, 49
2, 26130, Note_on_c, 0, 76, 0
2, 26130, Note_on_c, 0, 72, 49
2, 26160, Note_on_c, 0, 72, 0
2, 26160, Note_on_c, 0, 77, 49
2, 26190, Note_on_c, 0, 77, 0
2, 26190, Note_on_c, 0, 74, 49
2, 26220, Note_on_c, 0, 74, 0
2, 26220, Note_on_c, 0, 79, 49
2, 26250, Note_on_c, 0, 79, 0
2, 26250, Note_on_c, 0, 76, 49
2, 26280, Note_on_c, 0, 76, 0
2, 26280, Note_on_c, 0, 81, 49
2, 26310, Note_on_c, 0, 81, 0
2, 26310, Note_on_c, 0, 79, 49
2, 26340, Note_on_c, 0, 79, 0
2, 26340, Note_on_c, 0, 77, 49
2, 26370, Note_on_c, 0, 77, 0
2, 26370, Note_on_c, 0, 76, 49
2, 26400, Note_on_c, 0, 76, 0
2, 26400, Note_on_c, 0, 74, 49
2, 26430, Note_on_c, 0, 74, 0
2, 26430, Note_on_c, 0, 72, 49
2, 26460, Note_on_c, 0, 72, 0
2, 26460, Note_on_c, 0, 71, 49
2, 26490, Note_on_c, 0, 71, 0
2, 26490, Note_on_c, 0, 72, 49
2, 26520, Note_on_c, 0, 72, 0
2, 26520, Note_on_c, 0, 74, 49
2, 26550, Note_on_c, 0, 74, 0
2, 26550, Note_on_c, 0, 72, 49
2, 26580, Note_on_c, 0, 72, 0
2, 26580, Note_on_c, 0, 71, 49
2, 26610, Note_on_c, 0, 71, 0
2, 26610, Note_on_c, 0, 69, 49
2, 26640, Note_on_c, 0, 69, 0
2, 26640, Note_on_c, 0, 67, 49
2, 26670, Note_on_c, 0, 67, 0
2, 26670, Note_on_c, 0, 66, 49
2, 26700, Note_on_c, 0, 66, 0
2, 26700, Note_on_c, 0, 67, 49
2, 26730, Note_on_c, 0, 67, 0
2, 26730, Note_on_c, 0, 65, 49
2, 26760, Note_on_c, 0, 65, 0
2, 26760, Note_on_c, 0, 64, 49
2, 26790, Note_on_c, 0, 64, 0
2, 26790, Note_on_c, 0, 62, 49
2, 26820, Note_on_c, 0, 62, 0
2, 26820, Note_on_c, 0, 79, 72
2, 26880, Note_on_c, 0, 79, 0
2, 26880, Note_on_c, 0, 79, 73
2, 26940, Note_on_c, 0, 79, 0
2, 26940, Note_on_c, 0, 79, 74
2, 27000, Note_on_c, 0, 79, 0
2, 27000, Note_on_c, 0, 76, 74
2, 27120, Note_on_c, 0, 76, 0
2, 27120, Note_on_c, 0, 72, 74
2, 27180, Note_on_c, 0, 72, 0
2, 27180, Note_on_c, 0, 79, 74
2, 27240, Note_on_c, 0, 79, 0
2, 27240, Note_on_c, 0, 79, 74
2, 27300, Note_on_c, 0, 79, 0
2, 27300, Note_on_c, 0, 79, 74
2, 27360, Note_on_c, 0, 79, 0
2, 27360, Note_on_c, 0, 77, 74
2, 27480, Note_on_c, 0, 77, 0
2, 27480, Note_on_c, 0, 74, 74
2, 27540, Note_on_c, 0, 74, 0
2, 27540, Note_on_c, 0, 76, 73
2, 27570, Note_on_c, 0, 76, 0
2, 27570, Note_on_c, 0, 72, 73
2, 27600, Note_on_c, 0, 72, 0
2, 27600, Note_on_c, 0, 77, 72
2, 27630, Note_on_c, 0, 77, 0
2, 27630, Note_on_c, 0, 74, 72
2, 27660, Note_on_c, 0, 74, 0
2, 27660, Note_on_c, 0, 79, 72
2, 27690, Note_on_c, 0, 79, 0
2, 27690, Note_on_c, 0, 76, 72
2, 27720, Note_on_c, 0, 76, 0
2, 27720, Note_on_c, 0, 81, 72
2, 27750, Note_on_c, 0, 81, 0
2, 27750, Note_on_c, 0, 79, 72
2, 27780, Note_on_c, 0, 79, 0
2, 27780, Note_on_c, 0, 77, 72
2, 27810, Note_on_c, 0, 77, 0
2, 27810, Note_on_c, 0, 76, 73
2, 27840, Note_on_c, 0, 76, 0
2, 27840, Note_on_c, 0, 74, 74
2, 27870, Note_on_c, 0, 74, 0
2, 27870, Note_on_c, 0, 72, 75
2, 27900, Note_on_c, 0, 72, 0
2, 27900, Note_on_c, 0, 72, 100
2, 27930, Note_on_c, 0, 72, 0
2, 27930, Note_on_c, 0, 67, 100
2, 27960, Note_on_c, 0, 67, 0
2, 27960, Note_on_c, 0, 64, 100
2, 27990, Note_on_c, 0, 64, 0
2, 27990, Note_on_c, 0, 67, 100
2, 28020, Note_on_c, 0, 67, 0
2, 28020, Note_on_c, 0, 72, 100
2, 28050, Note_on_c, 0, 72, 0
2, 28050, Note_on_c, 0, 76, 100
2, 28080, Note_on_c, 0, 76, 0
2, 28080, Note_on_c, 0, 74, 100
2, 28110, Note_on_c, 0, 74, 0
2, 28110, Note_on_c, 0, 67, 100
2, 28140, Note_on_c, 0, 67, 0
2, 28140, Note_on_c, 0, 62, 100
2, 28170, Note_on_c, 0, 62, 0
2, 28170, Note_on_c, 0, 67, 100
2, 28200, Note_on_c, 0, 67, 0
2, 28200, Note_on_c, 0, 74, 100
2, 28230, Note_on_c, 0, 74, 0
2, 28230, Note_on_c, 0, 77, 100
2, 28245, Note_on_c, 0, 76, 100
2, 28245, Note_on_c, 0, 79, 100
2, 28260, Note_on_c, 0, 79, 0
2, 28260, Note_on_c, 0, 76, 0
2, 28260, Note_on_c, 0, 77, 0
2, 28260, Note_on_c, 0, 72, 100
2, 28260, Note_on_c, 0, 76, 100
2, 28320, Note_on_c, 0, 76, 0
2, 28320, Note_on_c, 0, 72, 0
2, 28320, Note_on_c, 0, 76, 100
2, 28320, Note_on_c, 0, 79, 100
2, 28380, Note_on_c, 0, 79, 0
2, 28380, Note_on_c, 0, 76, 0
2, 28380, Note_on_c, 0, 72, 100
2, 28380, Note_on_c, 0, 76, 100
2, 28440, Note_on_c, 0, 76, 0
2, 28440, Note_on_c, 0, 72, 0
2, 28440, Note_on_c, 0, 74, 100
2, 28440, Note_on_c, 0, 77, 100
2, 28500, Note_on_c, 0, 77, 0
2, 28500, Note_on_c, 0, 74, 0
2, 28500, Note_on_c, 0, 72, 100
2, 28500, Note_on_c, 0, 76, 100
2, 28560, Note_on_c, 0, 76, 0
2, 28560, Note_on_c, 0, 72, 0
2, 28560, Note_on_c, 0, 71, 100
2, 28560, Note_on_c, 0, 74, 100
2, 28620, Note_on_c, 0, 74, 0
2, 28620, Note_on_c, 0, 71, 0
2, 28620, Note_on_c, 0, 72, 110
2, 28650, Note_on_c, 0, 72, 0
2, 28650, Note_on_c, 0, 67, 111
2, 28680, Note_on_c, 0, 67, 0
2, 28680, Note_on_c, 0, 64, 113
2, 28710, Note_on_c, 0, 64, 0
2, 28710, Note_on_c, 0, 67, 114
2, 28740, Note_on_c, 0, 67, 0
2, 28740, Note_on_c, 0, 72, 114
2, 28770, Note_on_c, 0, 72, 0
2, 28770, Note_on_c, 0, 76, 114
2, 28800, Note_on_c, 0, 76, 0
2, 28800, Note_on_c, 0, 74, 115
2, 28830, Note_on_c, 0, 74, 0
2, 28830, Note_on_c, 0, 67, 115
2, 28860, Note_on_c, 0, 67, 0
2, 28860, Note_on_c, 0, 62, 115
2, 28890, Note_on_c, 0, 62, 0
2, 28890, Note_on_c, 0, 67, 116
2, 28920, Note_on_c, 0, 67, 0
2, 28920, Note_on_c, 0, 74, 116
2, 28950, Note_on_c, 0, 74, 0
2, 28950, Note_on_c, 0, 77, 116
2, 28965, Note_on_c, 0, 76, 116
2, 28965, Note_on_c, 0, 79, 116
2, 28980, Note_on_c, 0, 79, 0
2, 28980, Note_on_c, 0, 76, 0
2, 28980, Note_on_c, 0, 77, 0
2, 28980, Note_on_c, 0, 72, 117
2, 28980, Note_on_c, 0, 76, 117
2, 29040, Note_on_c, 0, 76, 0
2, 29040, Note_on_c, 0, 72, 0
2, 29040, Note_on_c, 0, 79, 118
2, 29040, Note_on_c, 0, 76, 118
2, 29100, Note_on_c, 0, 76, 0
2, 29100, Note_on_c, 0, 79, 0
2, 29100, Note_on_c, 0, 72, 119
2, 29100, Note_on_c, 0, 76, 119
2, 29160, Note_on_c, 0, 76, 0
2, 29160, Note_on_c, 0, 72, 0
2, 29160, Note_on_c, 0, 74, 121
2, 29160, Note_on_c, 0, 77, 121
2, 29220, Note_on_c, 0, 77, 0
2, 29220, Note_on_c, 0, 74, 0
2, 29220, Note_on_c, 0, 72, 123
2, 29220, Note_on_c, 0, 76, 123
2, 29280, Note_on_c, 0, 76, 0
2, 29280, Note_on_c, 0, 72, 0
2, 29280, Note_on_c, 0, 71, 124
2, 29280, Note_on_c, 0, 74, 124
2, 29340, Note_on_c, 0, 74, 0
2, 29340, Note_on_c, 0, 71, 0
2, 29340, Note_on_c, 0, 72, 127
2, 29340, Note_on_c, 0, 67, 127
2, 29340, Note_on_c, 0, 64, 127
2, 29520, Note_on_c, 0, 64, 0
2, 29520, Note_on_c, 0, 67, 0
2, 29520, Note_on_c, 0, 72, 0
2, 29520, End_track
3, 0, Start_track
3, 0, MIDI_port, 0
3, 0, Title_t, "Piano L"
3, 0, Program_c, 1, 0
3, 0, Control_c, 1, 7, 101
3, 0, Control_c, 1, 10, 88
3, 0, Control_c, 1, 93, 9
3, 0, Control_c, 1, 91, 27
3, 40, Control_c, 1, 121, 0
3, 160, Pitch_bend_c, 1, 8192
3, 180, Note_on_c, 1, 60, 55
3, 210, Note_on_c, 1, 60, 0
3, 210, Note_on_c, 1, 64, 56
3, 240, Note_on_c, 1, 64, 0
3, 240, Note_on_c, 1, 67, 57
3, 270, Note_on_c, 1, 67, 0
3, 270, Note_on_c, 1, 64, 58
3, 300, Note_on_c, 1, 64, 0
3, 300, Note_on_c, 1, 67, 58
3, 330, Note_on_c, 1, 67, 0
3, 330, Note_on_c, 1, 64, 58
3, 360, Note_on_c, 1, 64, 0
3, 360, Note_on_c, 1, 60, 58
3, 390, Note_on_c, 1, 60, 0
3, 390, Note_on_c, 1, 64, 59
3, 420, Note_on_c, 1, 64, 0
3, 420, Note_on_c, 1, 67, 59
3, 450, Note_on_c, 1, 67, 0
3, 450, Note_on_c, 1, 64, 59
3, 480, Note_on_c, 1, 64, 0
3, 480, Note_on_c, 1, 67, 59
3, 510, Note_on_c, 1, 67, 0
3, 510, Note_on_c, 1, 64, 59
3, 540, Note_on_c, 1, 64, 0
3, 540, Note_on_c, 1, 59, 59
3, 570, Note_on_c, 1, 59, 0
3, 570, Note_on_c, 1, 62, 59
3, 600, Note_on_c, 1, 62, 0
3, 600, Note_on_c, 1, 67, 59
3, 630, Note_on_c, 1, 67, 0
3, 630, Note_on_c, 1, 62, 59
3, 660, Note_on_c, 1, 62, 0
3, 660, Note_on_c, 1, 67, 59
3, 690, Note_on_c, 1, 67, 0
3, 690, Note_on_c, 1, 62, 58
3, 720, Note_on_c, 1, 62, 0
3, 720, Note_on_c, 1, 59, 58
3, 750, Note_on_c, 1, 59, 0
3, 750, Note_on_c, 1, 62, 58
3, 780, Note_on_c, 1, 62, 0
3, 780, Note_on_c, 1, 67, 57
3, 810, Note_on_c, 1, 67, 0
3, 810, Note_on_c, 1, 62, 57
3, 840, Note_on_c, 1, 62, 0
3, 840, Note_on_c, 1, 67, 56
3, 870, Note_on_c, 1, 67, 0
3, 870, Note_on_c, 1, 62, 53
3, 900, Note_on_c, 1, 62, 0
3, 900, Note_on_c, 1, 60, 52
3, 1080, Note_on_c, 1, 60, 0
3, 1080, Note_on_c, 1, 53, 48
3, 1200, Note_on_c, 1, 53, 0
3, 1200, Note_on_c, 1, 54, 48
3, 1260, Note_on_c, 1, 54, 0
3, 1260, Note_on_c, 1, 55, 48
3, 1440, Note_on_c, 1, 55, 0
3, 1620, Note_on_c, 1, 60, 66
3, 1650, Note_on_c, 1, 60, 0
3, 1650, Note_on_c, 1, 64, 68
3, 1680, Note_on_c, 1, 64, 0
3, 1680, Note_on_c, 1, 67, 69
3, 1710, Note_on_c, 1, 67, 0
3, 1710, Note_on_c, 1, 64, 70
3, 1740, Note_on_c, 1, 64, 0
3, 1740, Note_on_c, 1, 67, 71
3, 1770, Note_on_c, 1, 67, 0
3, 1770, Note_on_c, 1, 64, 71
3, 1800, Note_on_c, 1, 64, 0
3, 1800, Note_on_c, 1, 60, 72
3, 1830, Note_on_c, 1, 60, 0
3, 1830, Note_on_c, 1, 64, 73
3, 1860, Note_on_c, 1, 64, 0
3, 1860, Note_on_c, 1, 67, 73
3, 1890, Note_on_c, 1, 67, 0
3, 1890, Note_on_c, 1, 64, 73
3, 1920, Note_on_c, 1, 64, 0
3, 1920, Note_on_c, 1, 67, 73
3, 1950, Note_on_c, 1, 67, 0
3, 1950, Note_on_c, 1, 64, 74
3, 1980, Note_on_c, 1, 64, 0
3, 1980, Note_on_c, 1, 59, 74
3, 2010, Note_on_c, 1, 59, 0
3, 2010, Note_on_c, 1, 62, 74
3, 2040, Note_on_c, 1, 62, 0
3, 2040, Note_on_c, 1, 67, 74
3, 2070, Note_on_c, 1, 67, 0
3, 2070, Note_on_c, 1, 62, 74
3, 2100, Note_on_c, 1, 62, 0
3, 2100, Note_on_c, 1, 67, 74
3, 2130, Note_on_c, 1, 67, 0
3, 2130, Note_on_c, 1, 62, 73
3, 2160, Note_on_c, 1, 62, 0
3, 2160, Note_on_c, 1, 59, 72
3, 2190, Note_on_c, 1, 59, 0
3, 2190, Note_on_c, 1, 62, 72
3, 2220, Note_on_c, 1, 62, 0
3, 2220, Note_on_c, 1, 67, 71
3, 2250, Note_on_c, 1, 67, 0
3, 2250, Note_on_c, 1, 62, 69
3, 2280, Note_on_c, 1, 62, 0
3, 2280, Note_on_c, 1, 67, 68
3, 2310, Note_on_c, 1, 67, 0
3, 2310, Note_on_c, 1, 62, 67
3, 2340, Note_on_c, 1, 62, 0
3, 2340, Note_on_c, 1, 60, 64
3, 2520, Note_on_c, 1, 60, 0
3, 2520, Note_on_c, 1, 53, 76
3, 2640, Note_on_c, 1, 53, 0
3, 2640, Note_on_c, 1, 55, 76
3, 2700, Note_on_c, 1, 55, 0
3, 2700, Note_on_c, 1, 48, 76
3, 2730, Note_on_c, 1, 48, 0
3, 2730, Note_on_c, 1, 52, 76
3, 2760, Note_on_c, 1, 52, 0
3, 2760, Note_on_c, 1, 55, 76
3, 2790, Note_on_c, 1, 55, 0
3, 2790, Note_on_c, 1, 60, 76
3, 2820, Note_on_c, 1, 60, 0
3, 2820, Note_on_c, 1, 59, 76
3, 2850, Note_on_c, 1, 59, 0
3, 2850, Note_on_c, 1, 60, 76
3, 2880, Note_on_c, 1, 60, 0
3, 2880, Note_on_c, 1, 48, 76
3, 3060, Note_on_c, 1, 48, 0
3, 3060, Note_on_c, 1, 55, 40
3, 3060, Note_on_c, 1, 67, 40
3, 3120, Note_on_c, 1, 67, 0
3, 3120, Note_on_c, 1, 55, 0
3, 3120, Note_on_c, 1, 67, 41
3, 3173, Note_on_c, 1, 67, 0
3, 3180, Note_on_c, 1, 67, 41
3, 3233, Note_on_c, 1, 67, 0
3, 3240, Note_on_c, 1, 67, 42
3, 3293, Note_on_c, 1, 67, 0
3, 3300, Note_on_c, 1, 67, 42
3, 3353, Note_on_c, 1, 67, 0
3, 3360, Note_on_c, 1, 67, 41
3, 3413, Note_on_c, 1, 67, 0
3, 3420, Note_on_c, 1, 67, 63
3, 3473, Note_on_c, 1, 67, 0
3, 3480, Note_on_c, 1, 67, 63
3, 3533, Note_on_c, 1, 67, 0
3, 3540, Note_on_c, 1, 67, 63
3, 3593, Note_on_c, 1, 67, 0
3, 3600, Note_on_c, 1, 67, 63
3, 3653, Note_on_c, 1, 67, 0
3, 3660, Note_on_c, 1, 67, 63
3, 3713, Note_on_c, 1, 67, 0
3, 3720, Note_on_c, 1, 67, 63
3, 3773, Note_on_c, 1, 67, 0
3, 3780, Note_on_c, 1, 55, 36
3, 3780, Note_on_c, 1, 67, 36
3, 3833, Note_on_c, 1, 67, 0
3, 3833, Note_on_c, 1, 55, 0
3, 3840, Note_on_c, 1, 67, 36
3, 3893, Note_on_c, 1, 67, 0
3, 3900, Note_on_c, 1, 67, 37
3, 3953, Note_on_c, 1, 67, 0
3, 3960, Note_on_c, 1, 67, 37
3, 4013, Note_on_c, 1, 67, 0
3, 4020, Note_on_c, 1, 67, 38
3, 4073, Note_on_c, 1, 67, 0
3, 4080, Note_on_c, 1, 67, 38
3, 4133, Note_on_c, 1, 67, 0
3, 4140, Note_on_c, 1, 67, 72
3, 4193, Note_on_c, 1, 67, 0
3, 4200, Note_on_c, 1, 67, 72
3, 4253, Note_on_c, 1, 67, 0
3, 4260, Note_on_c, 1, 67, 73
3, 4313, Note_on_c, 1, 67, 0
3, 4320, Note_on_c, 1, 67, 73
3, 4373, Note_on_c, 1, 67, 0
3, 4380, Note_on_c, 1, 67, 73
3, 4433, Note_on_c, 1, 67, 0
3, 4440, Note_on_c, 1, 67, 74
3, 4493, Note_on_c, 1, 67, 0
3, 4500, Note_on_c, 1, 60, 75
3, 4500, Note_on_c, 1, 64, 75
3, 4680, Note_on_c, 1, 64, 0
3, 4680, Note_on_c, 1, 60, 0
3, 4680, Note_on_c, 1, 59, 75
3, 4680, Note_on_c, 1, 62, 75
3, 4860, Note_on_c, 1, 62, 0
3, 4860, Note_on_c, 1, 59, 0
3, 4860, Note_on_c, 1, 60, 75
3, 4860, Note_on_c, 1, 64, 75
3, 5040, Note_on_c, 1, 64, 0
3, 5040, Note_on_c, 1, 60, 0
3, 5040, Note_on_c, 1, 59, 75
3, 5040, Note_on_c, 1, 62, 75
3, 5220, Note_on_c, 1, 62, 0
3, 5220, Note_on_c, 1, 59, 0
3, 5220, Note_on_c, 1, 60, 75
3, 5220, Note_on_c, 1, 64, 75
3, 5400, Note_on_c, 1, 64, 0
3, 5400, Note_on_c, 1, 60, 0
3, 5820, Note_on_c, 1, 62, 85
3, 5820, Note_on_c, 1, 60, 85
3, 5880, Note_on_c, 1, 60, 0
3, 5880, Note_on_c, 1, 62, 0
3, 5880, Note_on_c, 1, 62, 85
3, 5880, Note_on_c, 1, 60, 85
3, 5940, Note_on_c, 1, 60, 0
3, 5940, Note_on_c, 1, 62, 0
3, 5940, Note_on_c, 1, 67, 82
3, 6000, Note_on_c, 1, 67, 0
3, 6000, Note_on_c, 1, 62, 82
3, 6060, Note_on_c, 1, 62, 0
3, 6060, Note_on_c, 1, 59, 83
3, 6120, Note_on_c, 1, 59, 0
3, 6120, Note_on_c, 1, 62, 83
3, 6180, Note_on_c, 1, 62, 0
3, 6180, Note_on_c, 1, 59, 83
3, 6240, Note_on_c, 1, 59, 0
3, 6240, Note_on_c, 1, 54, 83
3, 6300, Note_on_c, 1, 54, 0
3, 6300, Note_on_c, 1, 55, 83
3, 6360, Note_on_c, 1, 55, 0
3, 6360, Note_on_c, 1, 54, 83
3, 6420, Note_on_c, 1, 54, 0
3, 6420, Note_on_c, 1, 55, 83
3, 6480, Note_on_c, 1, 55, 0
3, 6480, Note_on_c, 1, 43, 83
3, 6660, Note_on_c, 1, 43, 0
3, 6660, Note_on_c, 1, 55, 50
3, 6840, Note_on_c, 1, 55, 0
3, 6840, Note_on_c, 1, 54, 52
3, 7020, Note_on_c, 1, 54, 0
3, 7020, Note_on_c, 1, 55, 54
3, 7200, Note_on_c, 1, 55, 0
3, 7200, Note_on_c, 1, 57, 55
3, 7380, Note_on_c, 1, 57, 0
3, 7380, Note_on_c, 1, 59, 55
3, 7440, Note_on_c, 1, 59, 0
3, 7440, Note_on_c, 1, 57, 55
3, 7500, Note_on_c, 1, 57, 0
3, 7500, Note_on_c, 1, 55, 54
3, 7553, Note_on_c, 1, 55, 0
3, 7560, Note_on_c, 1, 54, 52
3, 7620, Note_on_c, 1, 54, 0
3, 7620, Note_on_c, 1, 52, 52
3, 7680, Note_on_c, 1, 52, 0
3, 7680, Note_on_c, 1, 50, 51
3, 7740, Note_on_c, 1, 50, 0
3, 7740, Note_on_c, 1, 55, 92
3, 7920, Note_on_c, 1, 55, 0
3, 7920, Note_on_c, 1, 54, 91
3, 8100, Note_on_c, 1, 54, 0
3, 8100, Note_on_c, 1, 55, 90
3, 8280, Note_on_c, 1, 55, 0
3, 8280, Note_on_c, 1, 52, 116
3, 8460, Note_on_c, 1, 52, 0
3, 8460, Note_on_c, 1, 50, 116
3, 8640, Note_on_c, 1, 50, 0
3, 8820, Note_on_c, 1, 52, 49
3, 9180, Note_on_c, 1, 52, 0
3, 9180, Note_on_c, 1, 50, 49
3, 9540, Note_on_c, 1, 50, 0
3, 9540, Note_on_c, 1, 52, 35
3, 9540, Note_on_c, 1, 40, 35
3, 9900, Note_on_c, 1, 40, 0
3, 9900, Note_on_c, 1, 52, 0
3, 9900, Note_on_c, 1, 38, 30
3, 9910, Note_on_c, 1, 42, 30
3, 9920, Note_on_c, 1, 45, 30
3, 9930, Note_on_c, 1, 50, 30
3, 10073, Note_on_c, 1, 42, 0
3, 10080, Note_on_c, 1, 38, 0
3, 10080, Note_on_c, 1, 50, 0
3, 10082, Note_on_c, 1, 45, 0
3, 10260, Note_on_c, 1, 55, 34
3, 10290, Note_on_c, 1, 55, 0
3, 10290, Note_on_c, 1, 58, 34
3, 10320, Note_on_c, 1, 58, 0
3, 10320, Note_on_c, 1, 62, 34
3, 10350, Note_on_c, 1, 62, 0
3, 10350, Note_on_c, 1, 58, 34
3, 10380, Note_on_c, 1, 58, 0
3, 10380, Note_on_c, 1, 62, 34
3, 10410, Note_on_c, 1, 62, 0
3, 10410, Note_on_c, 1, 58, 34
3, 10440, Note_on_c, 1, 58, 0
3, 10440, Note_on_c, 1, 55, 34
3, 10470, Note_on_c, 1, 55, 0
3, 10470, Note_on_c, 1, 58, 34
3, 10500, Note_on_c, 1, 58, 0
3, 10500, Note_on_c, 1, 62, 34
3, 10530, Note_on_c, 1, 62, 0
3, 10530, Note_on_c, 1, 58, 34
3, 10560, Note_on_c, 1, 58, 0
3, 10560, Note_on_c, 1, 62, 34
3, 10590, Note_on_c, 1, 62, 0
3, 10590, Note_on_c, 1, 58, 34
3, 10620, Note_on_c, 1, 58, 0
3, 10620, Note_on_c, 1, 54, 34
3, 10650, Note_on_c, 1, 54, 0
3, 10650, Note_on_c, 1, 57, 34
3, 10680, Note_on_c, 1, 57, 0
3, 10680, Note_on_c, 1, 62, 34
3, 10710, Note_on_c, 1, 62, 0
3, 10710, Note_on_c, 1, 57, 34
3, 10740, Note_on_c, 1, 57, 0
3, 10740, Note_on_c, 1, 62, 34
3, 10770, Note_on_c, 1, 62, 0
3, 10770, Note_on_c, 1, 57, 34
3, 10800, Note_on_c, 1, 57, 0
3, 10800, Note_on_c, 1, 54, 34
3, 10830, Note_on_c, 1, 54, 0
3, 10830, Note_on_c, 1, 57, 34
3, 10860, Note_on_c, 1, 57, 0
3, 10860, Note_on_c, 1, 62, 34
3, 10890, Note_on_c, 1, 62, 0
3, 10890, Note_on_c, 1, 57, 35
3, 10920, Note_on_c, 1, 57, 0
3, 10920, Note_on_c, 1, 62, 35
3, 10950, Note_on_c, 1, 62, 0
3, 10950, Note_on_c, 1, 57, 36
3, 10980, Note_on_c, 1, 57, 0
3, 10980, Note_on_c, 1, 53, 36
3, 11010, Note_on_c, 1, 53, 0
3, 11010, Note_on_c, 1, 59, 36
3, 11040, Note_on_c, 1, 59, 0
3, 11040, Note_on_c, 1, 62, 36
3, 11070, Note_on_c, 1, 62, 0
3, 11070, Note_on_c, 1, 59, 36
3, 11100, Note_on_c, 1, 59, 0
3, 11100, Note_on_c, 1, 62, 36
3, 11130, Note_on_c, 1, 62, 0
3, 11130, Note_on_c, 1, 59, 36
3, 11160, Note_on_c, 1, 59, 0
3, 11160, Note_on_c, 1, 53, 36
3, 11190, Note_on_c, 1, 53, 0
3, 11190, Note_on_c, 1, 59, 36
3, 11220, Note_on_c, 1, 59, 0
3, 11220, Note_on_c, 1, 62, 36
3, 11250, Note_on_c, 1, 62, 0
3, 11250, Note_on_c, 1, 59, 36
3, 11280, Note_on_c, 1, 59, 0
3, 11280, Note_on_c, 1, 62, 36
3, 11310, Note_on_c, 1, 62, 0
3, 11310, Note_on_c, 1, 59, 36
3, 11340, Note_on_c, 1, 59, 0
3, 11340, Note_on_c, 1, 51, 70
3, 11370, Note_on_c, 1, 51, 0
3, 11370, Note_on_c, 1, 55, 70
3, 11400, Note_on_c, 1, 55, 0
3, 11400, Note_on_c, 1, 60, 71
3, 11430, Note_on_c, 1, 60, 0
3, 11430, Note_on_c, 1, 55, 71
3, 11460, Note_on_c, 1, 55, 0
3, 11460, Note_on_c, 1, 60, 71
3, 11490, Note_on_c, 1, 60, 0
3, 11490, Note_on_c, 1, 55, 71
3, 11520, Note_on_c, 1, 55, 0
3, 11520, Note_on_c, 1, 55, 71
3, 11700, Note_on_c, 1, 55, 0
3, 11700, Note_on_c, 1, 51, 71
3, 11730, Note_on_c, 1, 51, 0
3, 11730, Note_on_c, 1, 55, 71
3, 11760, Note_on_c, 1, 55, 0
3, 11760, Note_on_c, 1, 60, 71
3, 11790, Note_on_c, 1, 60, 0
3, 11790, Note_on_c, 1, 55, 71
3, 11820, Note_on_c, 1, 55, 0
3, 11820, Note_on_c, 1, 60, 71
3, 11850, Note_on_c, 1, 60, 0
3, 11850, Note_on_c, 1, 55, 71
3, 11880, Note_on_c, 1, 55, 0
3, 11880, Note_on_c, 1, 51, 71
3, 11910, Note_on_c, 1, 51, 0
3, 11910, Note_on_c, 1, 55, 71
3, 11940, Note_on_c, 1, 55, 0
3, 11940, Note_on_c, 1, 60, 71
3, 11970, Note_on_c, 1, 60, 0
3, 11970, Note_on_c, 1, 55, 71
3, 12000, Note_on_c, 1, 55, 0
3, 12000, Note_on_c, 1, 60, 71
3, 12030, Note_on_c, 1, 60, 0
3, 12030, Note_on_c, 1, 55, 71
3, 12060, Note_on_c, 1, 55, 0
3, 12060, Note_on_c, 1, 50, 71
3, 12090, Note_on_c, 1, 50, 0
3, 12090, Note_on_c, 1, 55, 71
3, 12120, Note_on_c, 1, 55, 0
3, 12120, Note_on_c, 1, 59, 71
3, 12150, Note_on_c, 1, 59, 0
3, 12150, Note_on_c, 1, 55, 71
3, 12180, Note_on_c, 1, 55, 0
3, 12180, Note_on_c, 1, 59, 71
3, 12210, Note_on_c, 1, 59, 0
3, 12210, Note_on_c, 1, 55, 71
3, 12240, Note_on_c, 1, 55, 0
3, 12240, Note_on_c, 1, 50, 71
3, 12270, Note_on_c, 1, 50, 0
3, 12270, Note_on_c, 1, 55, 71
3, 12300, Note_on_c, 1, 55, 0
3, 12300, Note_on_c, 1, 59, 71
3, 12330, Note_on_c, 1, 59, 0
3, 12330, Note_on_c, 1, 55, 71
3, 12360, Note_on_c, 1, 55, 0
3, 12360, Note_on_c, 1, 59, 71
3, 12390, Note_on_c, 1, 59, 0
3, 12390, Note_on_c, 1, 55, 71
3, 12420, Note_on_c, 1, 55, 0
3, 12420, Note_on_c, 1, 60, 100
3, 12540, Note_on_c, 1, 60, 0
3, 12540, Note_on_c, 1, 63, 100
3, 12600, Note_on_c, 1, 63, 0
3, 12600, Note_on_c, 1, 56, 100
3, 12720, Note_on_c, 1, 56, 0
3, 12720, Note_on_c, 1, 54, 100
3, 12780, Note_on_c, 1, 54, 0
3, 12780, Note_on_c, 1, 55, 100
3, 12960, Note_on_c, 1, 55, 0
3, 12960, Note_on_c, 1, 55, 100
3, 13020, Note_on_c, 1, 55, 0
3, 13020, Note_on_c, 1, 57, 100
3, 13080, Note_on_c, 1, 57, 0
3, 13080, Note_on_c, 1, 59, 100
3, 13140, Note_on_c, 1, 59, 0
3, 13140, Note_on_c, 1, 60, 100
3, 13200, Note_on_c, 1, 60, 0
3, 13200, Note_on_c, 1, 62, 100
3, 13260, Note_on_c, 1, 62, 0
3, 13260, Note_on_c, 1, 63, 100
3, 13320, Note_on_c, 1, 63, 0
3, 13320, Note_on_c, 1, 63, 100
3, 13320, Note_on_c, 1, 56, 100
3, 13500, Note_on_c, 1, 56, 0
3, 13500, Note_on_c, 1, 63, 0
3, 13500, Note_on_c, 1, 55, 122
3, 13680, Note_on_c, 1, 55, 0
3, 13680, Note_on_c, 1, 43, 40
3, 13680, Note_on_c, 1, 55, 40
3, 13740, Note_on_c, 1, 55, 0
3, 13740, Note_on_c, 1, 43, 0
3, 13740, Note_on_c, 1, 45, 40
3, 13800, Note_on_c, 1, 45, 0
3, 13800, Note_on_c, 1, 47, 40
3, 13860, Note_on_c, 1, 47, 0
3, 13860, Note_on_c, 1, 48, 40
3, 13860, Note_on_c, 1, 55, 40
3, 13920, Note_on_c, 1, 55, 0
3, 13920, Note_on_c, 1, 48, 0
3, 13920, Note_on_c, 1, 50, 40
3, 13980, Note_on_c, 1, 50, 0
3, 13980, Note_on_c, 1, 51, 40
3, 14040, Note_on_c, 1, 51, 0
3, 14040, Note_on_c, 1, 44, 40
3, 14040, Note_on_c, 1, 54, 40
3, 14220, Note_on_c, 1, 54, 0
3, 14220, Note_on_c, 1, 44, 0
3, 14220, Note_on_c, 1, 43, 55
3, 14400, Note_on_c, 1, 43, 0
3, 14580, Note_on_c, 1, 60, 55
3, 14610, Note_on_c, 1, 60, 0
3, 14610, Note_on_c, 1, 64, 56
3, 14640, Note_on_c, 1, 64, 0
3, 14640, Note_on_c, 1, 67, 57
3, 14670, Note_on_c, 1, 67, 0
3, 14670, Note_on_c, 1, 64, 58
3, 14700, Note_on_c, 1, 64, 0
3, 14700, Note_on_c, 1, 67, 58
3, 14730, Note_on_c, 1, 67, 0
3, 14730, Note_on_c, 1, 64, 58
3, 14760, Note_on_c, 1, 64, 0
3, 14760, Note_on_c, 1, 60, 58
3, 14790, Note_on_c, 1, 60, 0
3, 14790, Note_on_c, 1, 64, 59
3, 14820, Note_on_c, 1, 64, 0
3, 14820, Note_on_c, 1, 67, 59
3, 14850, Note_on_c, 1, 67, 0
3, 14850, Note_on_c, 1, 64, 59
3, 14880, Note_on_c, 1, 64, 0
3, 14880, Note_on_c, 1, 67, 59
3, 14910, Note_on_c, 1, 67, 0
3, 14910, Note_on_c, 1, 64, 59
3, 14940, Note_on_c, 1, 64, 0
3, 14940, Note_on_c, 1, 59, 59
3, 14970, Note_on_c, 1, 59, 0
3, 14970, Note_on_c, 1, 62, 59
3, 15000, Note_on_c, 1, 62, 0
3, 15000, Note_on_c, 1, 67, 59
3, 15030, Note_on_c, 1, 67, 0
3, 15030, Note_on_c, 1, 62, 59
3, 15060, Note_on_c, 1, 62, 0
3, 15060, Note_on_c, 1, 67, 59
3, 15090, Note_on_c, 1, 67, 0
3, 15090, Note_on_c, 1, 62, 58
3, 15120, Note_on_c, 1, 62, 0
3, 15120, Note_on_c, 1, 59, 58
3, 15150, Note_on_c, 1, 59, 0
3, 15150, Note_on_c, 1, 62, 58
3, 15180, Note_on_c, 1, 62, 0
3, 15180, Note_on_c, 1, 67, 57
3, 15210, Note_on_c, 1, 67, 0
3, 15210, Note_on_c, 1, 62, 57
3, 15240, Note_on_c, 1, 62, 0
3, 15240, Note_on_c, 1, 67, 56
3, 15270, Note_on_c, 1, 67, 0
3, 15270, Note_on_c, 1, 62, 53
3, 15300, Note_on_c, 1, 62, 0
3, 15300, Note_on_c, 1, 60, 52
3, 15480, Note_on_c, 1, 60, 0
3, 15480, Note_on_c, 1, 53, 48
3, 15600, Note_on_c, 1, 53, 0
3, 15600, Note_on_c, 1, 54, 48
3, 15660, Note_on_c, 1, 54, 0
3, 15660, Note_on_c, 1, 55, 48
3, 15840, Note_on_c, 1, 55, 0
3, 16020, Note_on_c, 1, 60, 66
3, 16050, Note_on_c, 1, 60, 0
3, 16050, Note_on_c, 1, 64, 68
3, 16080, Note_on_c, 1, 64, 0
3, 16080, Note_on_c, 1, 67, 69
3, 16110, Note_on_c, 1, 67, 0
3, 16110, Note_on_c, 1, 64, 70
3, 16140, Note_on_c, 1, 64, 0
3, 16140, Note_on_c, 1, 67, 71
3, 16170, Note_on_c, 1, 67, 0
3, 16170, Note_on_c, 1, 64, 71
3, 16200, Note_on_c, 1, 64, 0
3, 16200, Note_on_c, 1, 60, 72
3, 16230, Note_on_c, 1, 60, 0
3, 16230, Note_on_c, 1, 64, 73
3, 16260, Note_on_c, 1, 64, 0
3, 16260, Note_on_c, 1, 67, 73
3, 16290, Note_on_c, 1, 67, 0
3, 16290, Note_on_c, 1, 64, 73
3, 16320, Note_on_c, 1, 64, 0
3, 16320, Note_on_c, 1, 67, 73
3, 16350, Note_on_c, 1, 67, 0
3, 16350, Note_on_c, 1, 64, 74
3, 16380, Note_on_c, 1, 64, 0
3, 16380, Note_on_c, 1, 59, 74
3, 16410, Note_on_c, 1, 59, 0
3, 16410, Note_on_c, 1, 62, 74
3, 16440, Note_on_c, 1, 62, 0
3, 16440, Note_on_c, 1, 67, 74
3, 16470, Note_on_c, 1, 67, 0
3, 16470, Note_on_c, 1, 62, 74
3, 16500, Note_on_c, 1, 62, 0
3, 16500, Note_on_c, 1, 67, 74
3, 16530, Note_on_c, 1, 67, 0
3, 16530, Note_on_c, 1, 62, 73
3, 16560, Note_on_c, 1, 62, 0
3, 16560, Note_on_c, 1, 59, 72
3, 16590, Note_on_c, 1, 59, 0
3, 16590, Note_on_c, 1, 62, 72
3, 16620, Note_on_c, 1, 62, 0
3, 16620, Note_on_c, 1, 67, 71
3, 16650, Note_on_c, 1, 67, 0
3, 16650, Note_on_c, 1, 62, 69
3, 16680, Note_on_c, 1, 62, 0
3, 16680, Note_on_c, 1, 67, 68
3, 16710, Note_on_c, 1, 67, 0
3, 16710, Note_on_c, 1, 62, 67
3, 16740, Note_on_c, 1, 62, 0
3, 16740, Note_on_c, 1, 60, 64
3, 16920, Note_on_c, 1, 60, 0
3, 16920, Note_on_c, 1, 53, 76
3, 17040, Note_on_c, 1, 53, 0
3, 17040, Note_on_c, 1, 55, 76
3, 17100, Note_on_c, 1, 55, 0
3, 17100, Note_on_c, 1, 60, 75
3, 17130, Note_on_c, 1, 60, 0
3, 17130, Note_on_c, 1, 63, 75
3, 17160, Note_on_c, 1, 63, 0
3, 17160, Note_on_c, 1, 67, 75
3, 17190, Note_on_c, 1, 67, 0
3, 17190, Note_on_c, 1, 65, 75
3, 17220, Note_on_c, 1, 65, 0
3, 17220, Note_on_c, 1, 63, 75
3, 17250, Note_on_c, 1, 63, 0
3, 17250, Note_on_c, 1, 62, 75
3, 17280, Note_on_c, 1, 62, 0
3, 17280, Note_on_c, 1, 60, 76
3, 17640, Note_on_c, 1, 60, 0
3, 17640, Note_on_c, 1, 59, 76
3, 18000, Note_on_c, 1, 59, 0
3, 18000, Note_on_c, 1, 60, 46
3, 18180, Note_on_c, 1, 60, 0
3, 18180, Note_on_c, 1, 55, 46
3, 18360, Note_on_c, 1, 55, 0
3, 18360, Note_on_c, 1, 60, 76
3, 18720, Note_on_c, 1, 60, 0
3, 18720, Note_on_c, 1, 59, 76
3, 19080, Note_on_c, 1, 59, 0
3, 19080, Note_on_c, 1, 60, 80
3, 19200, Note_on_c, 1, 60, 0
3, 19200, Note_on_c, 1, 51, 80
3, 19260, Note_on_c, 1, 51, 0
3, 19260, Note_on_c, 1, 53, 80
3, 19380, Note_on_c, 1, 53, 0
3, 19380, Note_on_c, 1, 55, 80
3, 19440, Note_on_c, 1, 55, 0
3, 19440, Note_on_c, 1, 48, 80
3, 19500, Note_on_c, 1, 48, 0
3, 19500, Note_on_c, 1, 51, 80
3, 19560, Note_on_c, 1, 51, 0
3, 19560, Note_on_c, 1, 55, 80
3, 19620, Note_on_c, 1, 55, 0
3, 19620, Note_on_c, 1, 60, 80
3, 19680, Note_on_c, 1, 60, 0
3, 19800, Note_on_c, 1, 51, 40
3, 19830, Note_on_c, 1, 51, 0
3, 19830, Note_on_c, 1, 55, 40
3, 19860, Note_on_c, 1, 55, 0
3, 19860, Note_on_c, 1, 58, 40
3, 19890, Note_on_c, 1, 58, 0
3, 19890, Note_on_c, 1, 55, 40
3, 19920, Note_on_c, 1, 55, 0
3, 19920, Note_on_c, 1, 58, 40
3, 19950, Note_on_c, 1, 58, 0
3, 19950, Note_on_c, 1, 55, 40
3, 19980, Note_on_c, 1, 55, 0
3, 19980, Note_on_c, 1, 51, 40
3, 20010, Note_on_c, 1, 51, 0
3, 20010, Note_on_c, 1, 55, 40
3, 20040, Note_on_c, 1, 55, 0
3, 20040, Note_on_c, 1, 58, 40
3, 20070, Note_on_c, 1, 58, 0
3, 20070, Note_on_c, 1, 55, 40
3, 20100, Note_on_c, 1, 55, 0
3, 20100, Note_on_c, 1, 58, 40
3, 20130, Note_on_c, 1, 58, 0
3, 20130, Note_on_c, 1, 55, 40
3, 20160, Note_on_c, 1, 55, 0
3, 20160, Note_on_c, 1, 53, 40
3, 20190, Note_on_c, 1, 53, 0
3, 20190, Note_on_c, 1, 56, 40
3, 20220, Note_on_c, 1, 56, 0
3, 20220, Note_on_c, 1, 58, 40
3, 20250, Note_on_c, 1, 58, 0
3, 20250, Note_on_c, 1, 56, 40
3, 20280, Note_on_c, 1, 56, 0
3, 20280, Note_on_c, 1, 58, 40
3, 20310, Note_on_c, 1, 58, 0
3, 20310, Note_on_c, 1, 56, 40
3, 20340, Note_on_c, 1, 56, 0
3, 20340, Note_on_c, 1, 53, 40
3, 20370, Note_on_c, 1, 53, 0
3, 20370, Note_on_c, 1, 56, 40
3, 20400, Note_on_c, 1, 56, 0
3, 20400, Note_on_c, 1, 58, 40
3, 20430, Note_on_c, 1, 58, 0
3, 20430, Note_on_c, 1, 56, 40
3, 20460, Note_on_c, 1, 56, 0
3, 20460, Note_on_c, 1, 58, 40
3, 20490, Note_on_c, 1, 58, 0
3, 20490, Note_on_c, 1, 56, 40
3, 20520, Note_on_c, 1, 56, 0
3, 20520, Note_on_c, 1, 50, 40
3, 20550, Note_on_c, 1, 50, 0
3, 20550, Note_on_c, 1, 53, 40
3, 20580, Note_on_c, 1, 53, 0
3, 20580, Note_on_c, 1, 58, 40
3, 20610, Note_on_c, 1, 58, 0
3, 20610, Note_on_c, 1, 53, 40
3, 20640, Note_on_c, 1, 53, 0
3, 20640, Note_on_c, 1, 58, 40
3, 20670, Note_on_c, 1, 58, 0
3, 20670, Note_on_c, 1, 53, 40
3, 20700, Note_on_c, 1, 53, 0
3, 20700, Note_on_c, 1, 50, 40
3, 20730, Note_on_c, 1, 50, 0
3, 20730, Note_on_c, 1, 53, 40
3, 20760, Note_on_c, 1, 53, 0
3, 20760, Note_on_c, 1, 58, 40
3, 20790, Note_on_c, 1, 58, 0
3, 20790, Note_on_c, 1, 53, 40
3, 20820, Note_on_c, 1, 53, 0
3, 20820, Note_on_c, 1, 58, 40
3, 20850, Note_on_c, 1, 58, 0
3, 20850, Note_on_c, 1, 53, 40
3, 20880, Note_on_c, 1, 53, 0
3, 21240, Note_on_c, 1, 51, 110
3, 21240, Note_on_c, 1, 55, 110
3, 21600, Note_on_c, 1, 55, 0
3, 21600, Note_on_c, 1, 51, 0
3, 21600, Note_on_c, 1, 44, 110
3, 21600, Note_on_c, 1, 56, 110
3, 21780, Note_on_c, 1, 56, 0
3, 21780, Note_on_c, 1, 44, 0
3, 21960, Note_on_c, 1, 46, 53
3, 21960, Note_on_c, 1, 53, 53
3, 21960, Note_on_c, 1, 56, 53
3, 22080, Note_on_c, 1, 56, 0
3, 22080, Note_on_c, 1, 53, 0
3, 22080, Note_on_c, 1, 46, 0
3, 22080, Note_on_c, 1, 46, 53
3, 22080, Note_on_c, 1, 53, 53
3, 22080, Note_on_c, 1, 56, 53
3, 22140, Note_on_c, 1, 56, 0
3, 22140, Note_on_c, 1, 53, 0
3, 22140, Note_on_c, 1, 46, 0
3, 22140, Note_on_c, 1, 46, 53
3, 22140, Note_on_c, 1, 53, 53
3, 22140, Note_on_c, 1, 56, 53
3, 22320, Note_on_c, 1, 56, 0
3, 22320, Note_on_c, 1, 53, 0
3, 22320, Note_on_c, 1, 46, 0
3, 22320, Note_on_c, 1, 51, 53
3, 22320, Note_on_c, 1, 55, 53
3, 22500, Note_on_c, 1, 55, 0
3, 22500, Note_on_c, 1, 51, 0
3, 22680, Note_on_c, 1, 43, 89
3, 22680, Note_on_c, 1, 50, 89
3, 22680, Note_on_c, 1, 53, 89
3, 22800, Note_on_c, 1, 53, 0
3, 22800, Note_on_c, 1, 50, 0
3, 22800, Note_on_c, 1, 43, 0
3, 22800, Note_on_c, 1, 43, 89
3, 22800, Note_on_c, 1, 50, 89
3, 22800, Note_on_c, 1, 53, 89
3, 22860, Note_on_c, 1, 53, 0
3, 22860, Note_on_c, 1, 50, 0
3, 22860, Note_on_c, 1, 43, 0
3, 22860, Note_on_c, 1, 43, 92
3, 22860, Note_on_c, 1, 50, 92
3, 22860, Note_on_c, 1, 53, 92
3, 23040, Note_on_c, 1, 53, 0
3, 23040, Note_on_c, 1, 50, 0
3, 23040, Note_on_c, 1, 43, 0
3, 23040, Note_on_c, 1, 48, 97
3, 23040, Note_on_c, 1, 51, 97
3, 23220, Note_on_c, 1, 51, 0
3, 23220, Note_on_c, 1, 48, 0
3, 23220, Note_on_c, 1, 44, 46
3, 23400, Note_on_c, 1, 44, 0
3, 23400, Note_on_c, 1, 43, 96
3, 23580, Note_on_c, 1, 43, 0
3, 23580, Note_on_c, 1, 44, 46
3, 23760, Note_on_c, 1, 44, 0
3, 23760, Note_on_c, 1, 55, 46
3, 23880, Note_on_c, 1, 55, 0
3, 23880, Note_on_c, 1, 63, 56
3, 23880, Note_on_c, 1, 60, 56
3, 23940, Note_on_c, 1, 60, 0
3, 23940, Note_on_c, 1, 63, 0
3, 23940, Note_on_c, 1, 63, 56
3, 23940, Note_on_c, 1, 60, 56
3, 24000, Note_on_c, 1, 60, 0
3, 24000, Note_on_c, 1, 63, 0
3, 24000, Note_on_c, 1, 62, 56
3, 24000, Note_on_c, 1, 59, 56
3, 24060, Note_on_c, 1, 59, 0
3, 24060, Note_on_c, 1, 62, 0
3, 24060, Note_on_c, 1, 60, 56
3, 24060, Note_on_c, 1, 57, 56
3, 24120, Note_on_c, 1, 57, 0
3, 24120, Note_on_c, 1, 60, 0
3, 24240, Note_on_c, 1, 63, 61
3, 24240, Note_on_c, 1, 60, 61
3, 24300, Note_on_c, 1, 60, 0
3, 24300, Note_on_c, 1, 63, 0
3, 24300, Note_on_c, 1, 63, 61
3, 24300, Note_on_c, 1, 60, 61
3, 24360, Note_on_c, 1, 60, 0
3, 24360, Note_on_c, 1, 63, 0
3, 24360, Note_on_c, 1, 62, 61
3, 24360, Note_on_c, 1, 59, 61
3, 24420, Note_on_c, 1, 59, 0
3, 24420, Note_on_c, 1, 62, 0
3, 24420, Note_on_c, 1, 60, 62
3, 24420, Note_on_c, 1, 57, 62
3, 24480, Note_on_c, 1, 57, 0
3, 24480, Note_on_c, 1, 60, 0
3, 24480, Note_on_c, 1, 55, 62
3, 24480, Note_on_c, 1, 59, 62
3, 24540, Note_on_c, 1, 59, 0
3, 24540, Note_on_c, 1, 55, 0
3, 24540, Note_on_c, 1, 60, 63
3, 24540, Note_on_c, 1, 57, 63
3, 24600, Note_on_c, 1, 57, 0
3, 24600, Note_on_c, 1, 60, 0
3, 24600, Note_on_c, 1, 62, 64
3, 24600, Note_on_c, 1, 59, 64
3, 24660, Note_on_c, 1, 59, 0
3, 24660, Note_on_c, 1, 62, 0
3, 24660, Note_on_c, 1, 63, 64
3, 24660, Note_on_c, 1, 60, 64
3, 24720, Note_on_c, 1, 60, 0
3, 24720, Note_on_c, 1, 63, 0
3, 24720, Note_on_c, 1, 62, 64
3, 24720, Note_on_c, 1, 59, 64
3, 24780, Note_on_c, 1, 59, 0
3, 24780, Note_on_c, 1, 62, 0
3, 24780, Note_on_c, 1, 60, 64
3, 24780, Note_on_c, 1, 57, 64
3, 24840, Note_on_c, 1, 57, 0
3, 24840, Note_on_c, 1, 60, 0
3, 24840, Note_on_c, 1, 55, 64
3, 24840, Note_on_c, 1, 59, 64
3, 24900, Note_on_c, 1, 59, 0
3, 24900, Note_on_c, 1, 55, 0
3, 24900, Note_on_c, 1, 60, 62
3, 24900, Note_on_c, 1, 57, 62
3, 24960, Note_on_c, 1, 57, 0
3, 24960, Note_on_c, 1, 60, 0
3, 24960, Note_on_c, 1, 62, 60
3, 24960, Note_on_c, 1, 59, 60
3, 25020, Note_on_c, 1, 59, 0
3, 25020, Note_on_c, 1, 62, 0
3, 25020, Note_on_c, 1, 63, 60
3, 25020, Note_on_c, 1, 60, 60
3, 25080, Note_on_c, 1, 60, 0
3, 25080, Note_on_c, 1, 63, 0
3, 25080, Note_on_c, 1, 62, 59
3, 25080, Note_on_c, 1, 59, 59
3, 25140, Note_on_c, 1, 59, 0
3, 25140, Note_on_c, 1, 62, 0
3, 25140, Note_on_c, 1, 60, 58
3, 25140, Note_on_c, 1, 57, 58
3, 25200, Note_on_c, 1, 57, 0
3, 25200, Note_on_c, 1, 60, 0
3, 25200, Note_on_c, 1, 43, 58
3, 25210, Note_on_c, 1, 47, 58
3, 25220, Note_on_c, 1, 50, 58
3, 25230, Note_on_c, 1, 55, 58
3, 25320, Note_on_c, 1, 43, 0
3, 25330, Note_on_c, 1, 47, 0
3, 25340, Note_on_c, 1, 50, 0
3, 25350, Note_on_c, 1, 55, 0
3, 25380, Note_on_c, 1, 60, 55
3, 25410, Note_on_c, 1, 60, 0
3, 25410, Note_on_c, 1, 64, 56
3, 25440, Note_on_c, 1, 64, 0
3, 25440, Note_on_c, 1, 67, 57
3, 25470, Note_on_c, 1, 67, 0
3, 25470, Note_on_c, 1, 64, 58
3, 25500, Note_on_c, 1, 64, 0
3, 25500, Note_on_c, 1, 67, 58
3, 25530, Note_on_c, 1, 67, 0
3, 25530, Note_on_c, 1, 64, 58
3, 25560, Note_on_c, 1, 64, 0
3, 25560, Note_on_c, 1, 60, 58
3, 25590, Note_on_c, 1, 60, 0
3, 25590, Note_on_c, 1, 64, 59
3, 25620, Note_on_c, 1, 64, 0
3, 25620, Note_on_c, 1, 67, 59
3, 25650, Note_on_c, 1, 67, 0
3, 25650, Note_on_c, 1, 64, 59
3, 25680, Note_on_c, 1, 64, 0
3, 25680, Note_on_c, 1, 67, 59
3, 25710, Note_on_c, 1, 67, 0
3, 25710, Note_on_c, 1, 64, 59
3, 25740, Note_on_c, 1, 64, 0
3, 25740, Note_on_c, 1, 59, 59
3, 25770, Note_on_c, 1, 59, 0
3, 25770, Note_on_c, 1, 62, 59
3, 25800, Note_on_c, 1, 62, 0
3, 25800, Note_on_c, 1, 67, 59
3, 25830, Note_on_c, 1, 67, 0
3, 25830, Note_on_c, 1, 62, 59
3, 25860, Note_on_c, 1, 62, 0
3, 25860, Note_on_c, 1, 67, 59
3, 25890, Note_on_c, 1, 67, 0
3, 25890, Note_on_c, 1, 62, 58
3, 25920, Note_on_c, 1, 62, 0
3, 25920, Note_on_c, 1, 59, 58
3, 25950, Note_on_c, 1, 59, 0
3, 25950, Note_on_c, 1, 62, 58
3, 25980, Note_on_c, 1, 62, 0
3, 25980, Note_on_c, 1, 67, 57
3, 26010, Note_on_c, 1, 67, 0
3, 26010, Note_on_c, 1, 62, 57
3, 26040, Note_on_c, 1, 62, 0
3, 26040, Note_on_c, 1, 67, 56
3, 26070, Note_on_c, 1, 67, 0
3, 26070, Note_on_c, 1, 62, 53
3, 26100, Note_on_c, 1, 62, 0
3, 26100, Note_on_c, 1, 60, 52
3, 26280, Note_on_c, 1, 60, 0
3, 26280, Note_on_c, 1, 53, 48
3, 26400, Note_on_c, 1, 53, 0
3, 26400, Note_on_c, 1, 54, 48
3, 26460, Note_on_c, 1, 54, 0
3, 26460, Note_on_c, 1, 55, 48
3, 26640, Note_on_c, 1, 55, 0
3, 26820, Note_on_c, 1, 60, 66
3, 26850, Note_on_c, 1, 60, 0
3, 26850, Note_on_c, 1, 64, 68
3, 26880, Note_on_c, 1, 64, 0
3, 26880, Note_on_c, 1, 67, 69
3, 26910, Note_on_c, 1, 67, 0
3, 26910, Note_on_c, 1, 64, 70
3, 26940, Note_on_c, 1, 64, 0
3, 26940, Note_on_c, 1, 67, 71
3, 26970, Note_on_c, 1, 67, 0
3, 26970, Note_on_c, 1, 64, 71
3, 27000, Note_on_c, 1, 64, 0
3, 27000, Note_on_c, 1, 60, 72
3, 27030, Note_on_c, 1, 60, 0
3, 27030, Note_on_c, 1, 64, 73
3, 27060, Note_on_c, 1, 64, 0
3, 27060, Note_on_c, 1, 67, 73
3, 27090, Note_on_c, 1, 67, 0
3, 27090, Note_on_c, 1, 64, 73
3, 27120, Note_on_c, 1, 64, 0
3, 27120, Note_on_c, 1, 67, 73
3, 27150, Note_on_c, 1, 67, 0
3, 27150, Note_on_c, 1, 64, 74
3, 27180, Note_on_c, 1, 64, 0
3, 27180, Note_on_c, 1, 59, 74
3, 27210, Note_on_c, 1, 59, 0
3, 27210, Note_on_c, 1, 62, 74
3, 27240, Note_on_c, 1, 62, 0
3, 27240, Note_on_c, 1, 67, 74
3, 27270, Note_on_c, 1, 67, 0
3, 27270, Note_on_c, 1, 62, 74
3, 27300, Note_on_c, 1, 62, 0
3, 27300, Note_on_c, 1, 67, 74
3, 27330, Note_on_c, 1, 67, 0
3, 27330, Note_on_c, 1, 62, 73
3, 27360, Note_on_c, 1, 62, 0
3, 27360, Note_on_c, 1, 59, 72
3, 27390, Note_on_c, 1, 59, 0
3, 27390, Note_on_c, 1, 62, 72
3, 27420, Note_on_c, 1, 62, 0
3, 27420, Note_on_c, 1, 67, 71
3, 27450, Note_on_c, 1, 67, 0
3, 27450, Note_on_c, 1, 62, 69
3, 27480, Note_on_c, 1, 62, 0
3, 27480, Note_on_c, 1, 67, 68
3, 27510, Note_on_c, 1, 67, 0
3, 27510, Note_on_c, 1, 62, 67
3, 27540, Note_on_c, 1, 62, 0
3, 27540, Note_on_c, 1, 60, 64
3, 27720, Note_on_c, 1, 60, 0
3, 27720, Note_on_c, 1, 53, 76
3, 27840, Note_on_c, 1, 53, 0
3, 27840, Note_on_c, 1, 55, 76
3, 27900, Note_on_c, 1, 55, 0
3, 27900, Note_on_c, 1, 48, 100
3, 27900, Note_on_c, 1, 60, 100
3, 28080, Note_on_c, 1, 60, 0
3, 28080, Note_on_c, 1, 48, 0
3, 28080, Note_on_c, 1, 47, 100
3, 28080, Note_on_c, 1, 59, 100
3, 28260, Note_on_c, 1, 59, 0
3, 28260, Note_on_c, 1, 47, 0
3, 28260, Note_on_c, 1, 48, 100
3, 28260, Note_on_c, 1, 60, 100
3, 28440, Note_on_c, 1, 60, 0
3, 28440, Note_on_c, 1, 48, 0
3, 28440, Note_on_c, 1, 53, 100
3, 28500, Note_on_c, 1, 53, 0
3, 28500, Note_on_c, 1, 55, 100
3, 28560, Note_on_c, 1, 55, 0
3, 28560, Note_on_c, 1, 43, 101
3, 28620, Note_on_c, 1, 43, 0
3, 28620, Note_on_c, 1, 48, 115
3, 28620, Note_on_c, 1, 60, 115
3, 28800, Note_on_c, 1, 60, 0
3, 28800, Note_on_c, 1, 48, 0
3, 28800, Note_on_c, 1, 47, 117
3, 28800, Note_on_c, 1, 59, 117
3, 28980, Note_on_c, 1, 59, 0
3, 28980, Note_on_c, 1, 47, 0
3, 28980, Note_on_c, 1, 48, 119
3, 28980, Note_on_c, 1, 60, 119
3, 29160, Note_on_c, 1, 60, 0
3, 29160, Note_on_c, 1, 48, 0
3, 29160, Note_on_c, 1, 53, 122
3, 29220, Note_on_c, 1, 53, 0
3, 29220, Note_on_c, 1, 55, 123
3, 29280, Note_on_c, 1, 55, 0
3, 29280, Note_on_c, 1, 43, 126
3, 29340, Note_on_c, 1, 43, 0
3, 29340, Control_c, 1, 64, 127
3, 29340, Note_on_c, 1, 48, 127
3, 29340, Note_on_c, 1, 36, 127
3, 29520, Note_on_c, 1, 36, 0
3, 29520, Note_on_c, 1, 48, 0
3, 29655, Control_c, 1, 64, 0
3, 29655, End_track
0, 0, End_of_file