0, 0, Header, 1, 3, 192
1, 0, Start_track
1, 0, Title_t, "Sieben Bagatellen No.6 in D Major, Opus.33"
1, 0, Text_t, "By Ludwig Van Beethoven"
1, 0, Copyright_t, "Copyright \251May 2001 by Reginald Steven Ritchie"
1, 0, Copyright_t, "Reginald Steven Ritchie"
1, 0, Text_t, "Generated by NoteWorthy Composer"
1, 0, Tempo, 631578
1, 0, Tempo, 631578
1, 0, Time_signature, 2, 2, 24, 8
1, 0, Key_signature, 2, "major"
1, 3072, Tempo, 631578
1, 3072, Tempo, 631578
1, 39312, Tempo, 750000
1, 39312, Tempo, 750000
1, 39696, Tempo, 857142
1, 39696, Tempo, 857142
1, 39696, End_track
2, 0, Start_track
2, 0, MIDI_port, 0
2, 0, Title_t, "Copyright 2001 Reg"
2, 0, Program_c, 0, 0
2, 0, Control_c, 0, 7, 127
2, 0, Control_c, 0, 10, 111
2, 0, Program_c, 0, 0
2, 0, Control_c, 0, 7, 127
2, 0, Control_c, 0, 10, 111
2, 0, Control_c, 0, 91, 84
2, 0, Control_c, 0, 93, 84
2, 0, Note_on_c, 0, 66, 60
2, 94, Note_on_c, 0, 66, 0
2, 96, Note_on_c, 0, 66, 60
2, 288, Note_on_c, 0, 66, 0
2, 288, Note_on_c, 0, 64, 60
2, 382, Note_on_c, 0, 64, 0
2, 384, Note_on_c, 0, 62, 60
2, 478, Note_on_c, 0, 62, 0
2, 480, Note_on_c, 0, 62, 60
2, 504, Note_on_c, 0, 62, 0
2, 504, Note_on_c, 0, 67, 92
2, 736, Note_on_c, 0, 67, 0
2, 768, Note_on_c, 0, 67, 60
2, 800, Note_on_c, 0, 67, 0
2, 864, Note_on_c, 0, 67, 60
2, 888, Note_on_c, 0, 67, 0
2, 888, Note_on_c, 0, 69, 60
2, 912, Note_on_c, 0, 69, 0
2, 912, Note_on_c, 0, 71, 60
2, 936, Note_on_c, 0, 71, 0
2, 936, Note_on_c, 0, 69, 60
2, 960, Note_on_c, 0, 69, 0
2, 960, Note_on_c, 0, 66, 60
2, 960, Note_on_c, 0, 69, 60
2, 984, Note_on_c, 0, 66, 0
2, 984, Note_on_c, 0, 67, 60
2, 1008, Note_on_c, 0, 67, 0
2, 1008, Note_on_c, 0, 69, 0
2, 1008, Note_on_c, 0, 71, 60
2, 1056, Note_on_c, 0, 71, 0
2, 1056, Note_on_c, 0, 69, 60
2, 1104, Note_on_c, 0, 69, 0
2, 1104, Note_on_c, 0, 67, 60
2, 1152, Note_on_c, 0, 67, 0
2, 1152, Note_on_c, 0, 66, 60
2, 1200, Note_on_c, 0, 66, 0
2, 1200, Note_on_c, 0, 64, 60
2, 1246, Note_on_c, 0, 64, 0
2, 1248, Note_on_c, 0, 66, 60
2, 1342, Note_on_c, 0, 66, 0
2, 1344, Note_on_c, 0, 62, 60
2, 1438, Note_on_c, 0, 62, 0
2, 1440, Note_on_c, 0, 62, 60
2, 1472, Note_on_c, 0, 62, 0
2, 1536, Note_on_c, 0, 78, 60
2, 1568, Note_on_c, 0, 78, 0
2, 1632, Note_on_c, 0, 78, 60
2, 1824, Note_on_c, 0, 78, 0
2, 1824, Note_on_c, 0, 76, 60
2, 1920, Note_on_c, 0, 76, 0
2, 1920, Note_on_c, 0, 74, 60
2, 2014, Note_on_c, 0, 74, 0
2, 2016, Note_on_c, 0, 74, 92
2, 2040, Note_on_c, 0, 74, 0
2, 2040, Note_on_c, 0, 79, 92
2, 2272, Note_on_c, 0, 79, 0
2, 2304, Note_on_c, 0, 79, 60
2, 2336, Note_on_c, 0, 79, 0
2, 2400, Note_on_c, 0, 79, 60
2, 2422, Note_on_c, 0, 79, 0
2, 2424, Note_on_c, 0, 81, 60
2, 2446, Note_on_c, 0, 81, 0
2, 2448, Note_on_c, 0, 83, 60
2, 2470, Note_on_c, 0, 83, 0
2, 2472, Note_on_c, 0, 81, 60
2, 2494, Note_on_c, 0, 81, 0
2, 2496, Note_on_c, 0, 78, 60
2, 2496, Note_on_c, 0, 81, 60
2, 2518, Note_on_c, 0, 78, 0
2, 2520, Note_on_c, 0, 79, 60
2, 2542, Note_on_c, 0, 79, 0
2, 2542, Note_on_c, 0, 81, 0
2, 2544, Note_on_c, 0, 83, 60
2, 2590, Note_on_c, 0, 83, 0
2, 2592, Note_on_c, 0, 81, 60
2, 2638, Note_on_c, 0, 81, 0
2, 2640, Note_on_c, 0, 79, 60
2, 2686, Note_on_c, 0, 79, 0
2, 2688, Note_on_c, 0, 78, 60
2, 2734, Note_on_c, 0, 78, 0
2, 2736, Note_on_c, 0, 76, 60
2, 2782, Note_on_c, 0, 76, 0
2, 2784, Note_on_c, 0, 74, 60
2, 2944, Note_on_c, 0, 74, 0
2, 3072, Control_c, 0, 91, 84
2, 3072, Control_c, 0, 93, 84
2, 3072, Note_on_c, 0, 66, 60
2, 3166, Note_on_c, 0, 66, 0
2, 3168, Note_on_c, 0, 66, 60
2, 3360, Note_on_c, 0, 66, 0
2, 3360, Note_on_c, 0, 64, 60
2, 3454, Note_on_c, 0, 64, 0
2, 3456, Note_on_c, 0, 62, 60
2, 3550, Note_on_c, 0, 62, 0
2, 3552, Note_on_c, 0, 62, 60
2, 3576, Note_on_c, 0, 62, 0
2, 3576, Note_on_c, 0, 67, 92
2, 3808, Note_on_c, 0, 67, 0
2, 3840, Note_on_c, 0, 67, 60
2, 3872, Note_on_c, 0, 67, 0
2, 3936, Note_on_c, 0, 67, 60
2, 3960, Note_on_c, 0, 67, 0
2, 3960, Note_on_c, 0, 69, 60
2, 3984, Note_on_c, 0, 69, 0
2, 3984, Note_on_c, 0, 71, 60
2, 4008, Note_on_c, 0, 71, 0
2, 4008, Note_on_c, 0, 69, 60
2, 4032, Note_on_c, 0, 69, 0
2, 4032, Note_on_c, 0, 66, 60
2, 4032, Note_on_c, 0, 69, 60
2, 4056, Note_on_c, 0, 66, 0
2, 4056, Note_on_c, 0, 67, 60
2, 4080, Note_on_c, 0, 67, 0
2, 4080, Note_on_c, 0, 69, 0
2, 4080, Note_on_c, 0, 71, 60
2, 4128, Note_on_c, 0, 71, 0
2, 4128, Note_on_c, 0, 69, 60
2, 4176, Note_on_c, 0, 69, 0
2, 4176, Note_on_c, 0, 67, 60
2, 4224, Note_on_c, 0, 67, 0
2, 4224, Note_on_c, 0, 66, 60
2, 4272, Note_on_c, 0, 66, 0
2, 4272, Note_on_c, 0, 64, 60
2, 4318, Note_on_c, 0, 64, 0
2, 4320, Note_on_c, 0, 66, 60
2, 4414, Note_on_c, 0, 66, 0
2, 4416, Note_on_c, 0, 62, 60
2, 4510, Note_on_c, 0, 62, 0
2, 4512, Note_on_c, 0, 62, 60
2, 4544, Note_on_c, 0, 62, 0
2, 4608, Note_on_c, 0, 78, 60
2, 4640, Note_on_c, 0, 78, 0
2, 4704, Note_on_c, 0, 78, 60
2, 4896, Note_on_c, 0, 78, 0
2, 4896, Note_on_c, 0, 76, 60
2, 4992, Note_on_c, 0, 76, 0
2, 4992, Note_on_c, 0, 74, 60
2, 5086, Note_on_c, 0, 74, 0
2, 5088, Note_on_c, 0, 74, 92
2, 5112, Note_on_c, 0, 74, 0
2, 5112, Note_on_c, 0, 79, 92
2, 5344, Note_on_c, 0, 79, 0
2, 5376, Note_on_c, 0, 79, 60
2, 5408, Note_on_c, 0, 79, 0
2, 5472, Note_on_c, 0, 79, 60
2, 5494, Note_on_c, 0, 79, 0
2, 5496, Note_on_c, 0, 81, 60
2, 5518, Note_on_c, 0, 81, 0
2, 5520, Note_on_c, 0, 83, 60
2, 5542, Note_on_c, 0, 83, 0
2, 5544, Note_on_c, 0, 81, 60
2, 5566, Note_on_c, 0, 81, 0
2, 5568, Note_on_c, 0, 78, 60
2, 5568, Note_on_c, 0, 81, 60
2, 5590, Note_on_c, 0, 78, 0
2, 5592, Note_on_c, 0, 79, 60
2, 5614, Note_on_c, 0, 79, 0
2, 5614, Note_on_c, 0, 81, 0
2, 5616, Note_on_c, 0, 83, 60
2, 5662, Note_on_c, 0, 83, 0
2, 5664, Note_on_c, 0, 81, 60
2, 5710, Note_on_c, 0, 81, 0
2, 5712, Note_on_c, 0, 79, 60
2, 5758, Note_on_c, 0, 79, 0
2, 5760, Note_on_c, 0, 78, 60
2, 5806, Note_on_c, 0, 78, 0
2, 5808, Note_on_c, 0, 76, 60
2, 5854, Note_on_c, 0, 76, 0
2, 5856, Note_on_c, 0, 74, 60
2, 6016, Note_on_c, 0, 74, 0
2, 6144, Note_on_c, 0, 78, 60
2, 6238, Note_on_c, 0, 78, 0
2, 6240, Note_on_c, 0, 76, 60
2, 6334, Note_on_c, 0, 76, 0
2, 6336, Note_on_c, 0, 74, 60
2, 6430, Note_on_c, 0, 74, 0
2, 6432, Note_on_c, 0, 73, 60
2, 6526, Note_on_c, 0, 73, 0
2, 6528, Note_on_c, 0, 62, 60
2, 6528, Note_on_c, 0, 71, 60
2, 6622, Note_on_c, 0, 62, 0
2, 6622, Note_on_c, 0, 71, 0
2, 6624, Note_on_c, 0, 64, 60
2, 6624, Note_on_c, 0, 71, 60
2, 6718, Note_on_c, 0, 71, 0
2, 6720, Note_on_c, 0, 70, 64
2, 6784, Note_on_c, 0, 64, 0
2, 6814, Note_on_c, 0, 70, 0
2, 6816, Note_on_c, 0, 62, 68
2, 6816, Note_on_c, 0, 71, 68
2, 6848, Note_on_c, 0, 62, 0
2, 6848, Note_on_c, 0, 71, 0
2, 6912, Note_on_c, 0, 78, 72
2, 7006, Note_on_c, 0, 78, 0
2, 7008, Note_on_c, 0, 76, 76
2, 7102, Note_on_c, 0, 76, 0
2, 7104, Note_on_c, 0, 74, 80
2, 7198, Note_on_c, 0, 74, 0
2, 7200, Note_on_c, 0, 73, 84
2, 7294, Note_on_c, 0, 73, 0
2, 7296, Note_on_c, 0, 71, 88
2, 7328, Note_on_c, 0, 71, 0
2, 7392, Note_on_c, 0, 69, 92
2, 7648, Note_on_c, 0, 69, 0
2, 7680, Note_on_c, 0, 67, 68
2, 7774, Note_on_c, 0, 67, 0
2, 7776, Note_on_c, 0, 66, 60
2, 7936, Note_on_c, 0, 66, 0
2, 7968, Note_on_c, 0, 64, 60
2, 8062, Note_on_c, 0, 64, 0
2, 8064, Note_on_c, 0, 62, 60
2, 8158, Note_on_c, 0, 62, 0
2, 8160, Note_on_c, 0, 62, 60
2, 8184, Note_on_c, 0, 62, 0
2, 8184, Note_on_c, 0, 67, 92
2, 8416, Note_on_c, 0, 67, 0
2, 8448, Note_on_c, 0, 67, 45
2, 8542, Note_on_c, 0, 67, 0
2, 8544, Note_on_c, 0, 67, 45
2, 8568, Note_on_c, 0, 67, 0
2, 8568, Note_on_c, 0, 69, 45
2, 8592, Note_on_c, 0, 69, 0
2, 8592, Note_on_c, 0, 71, 45
2, 8616, Note_on_c, 0, 71, 0
2, 8616, Note_on_c, 0, 69, 45
2, 8640, Note_on_c, 0, 69, 0
2, 8640, Note_on_c, 0, 66, 45
2, 8640, Note_on_c, 0, 69, 45
2, 8664, Note_on_c, 0, 66, 0
2, 8664, Note_on_c, 0, 67, 45
2, 8688, Note_on_c, 0, 67, 0
2, 8688, Note_on_c, 0, 69, 0
2, 8688, Note_on_c, 0, 71, 45
2, 8736, Note_on_c, 0, 71, 0
2, 8736, Note_on_c, 0, 69, 45
2, 8784, Note_on_c, 0, 69, 0
2, 8784, Note_on_c, 0, 67, 45
2, 8832, Note_on_c, 0, 67, 0
2, 8832, Note_on_c, 0, 66, 45
2, 8880, Note_on_c, 0, 66, 0
2, 8880, Note_on_c, 0, 64, 45
2, 8926, Note_on_c, 0, 64, 0
2, 8928, Note_on_c, 0, 66, 45
2, 9022, Note_on_c, 0, 66, 0
2, 9024, Note_on_c, 0, 62, 45
2, 9118, Note_on_c, 0, 62, 0
2, 9120, Note_on_c, 0, 62, 45
2, 9152, Note_on_c, 0, 62, 0
2, 9216, Note_on_c, 0, 78, 45
2, 9248, Note_on_c, 0, 78, 0
2, 9312, Note_on_c, 0, 78, 45
2, 9472, Note_on_c, 0, 78, 0
2, 9504, Note_on_c, 0, 76, 45
2, 9598, Note_on_c, 0, 76, 0
2, 9600, Note_on_c, 0, 74, 45
2, 9694, Note_on_c, 0, 74, 0
2, 9696, Note_on_c, 0, 74, 45
2, 9720, Note_on_c, 0, 74, 0
2, 9720, Note_on_c, 0, 79, 92
2, 9952, Note_on_c, 0, 79, 0
2, 9984, Note_on_c, 0, 79, 45
2, 10016, Note_on_c, 0, 79, 0
2, 10080, Note_on_c, 0, 79, 45
2, 10102, Note_on_c, 0, 79, 0
2, 10104, Note_on_c, 0, 81, 45
2, 10126, Note_on_c, 0, 81, 0
2, 10128, Note_on_c, 0, 83, 45
2, 10150, Note_on_c, 0, 83, 0
2, 10152, Note_on_c, 0, 81, 45
2, 10174, Note_on_c, 0, 81, 0
2, 10176, Note_on_c, 0, 78, 45
2, 10176, Note_on_c, 0, 81, 45
2, 10198, Note_on_c, 0, 78, 0
2, 10200, Note_on_c, 0, 79, 45
2, 10222, Note_on_c, 0, 79, 0
2, 10222, Note_on_c, 0, 81, 0
2, 10224, Note_on_c, 0, 83, 45
2, 10270, Note_on_c, 0, 83, 0
2, 10272, Note_on_c, 0, 81, 45
2, 10318, Note_on_c, 0, 81, 0
2, 10320, Note_on_c, 0, 79, 45
2, 10366, Note_on_c, 0, 79, 0
2, 10368, Note_on_c, 0, 78, 45
2, 10414, Note_on_c, 0, 78, 0
2, 10416, Note_on_c, 0, 76, 45
2, 10462, Note_on_c, 0, 76, 0
2, 10464, Note_on_c, 0, 74, 45
2, 10624, Note_on_c, 0, 74, 0
2, 10752, Note_on_c, 0, 78, 45
2, 10846, Note_on_c, 0, 78, 0
2, 10848, Note_on_c, 0, 76, 45
2, 10942, Note_on_c, 0, 76, 0
2, 10944, Note_on_c, 0, 74, 45
2, 11038, Note_on_c, 0, 74, 0
2, 11040, Note_on_c, 0, 73, 45
2, 11134, Note_on_c, 0, 73, 0
2, 11136, Note_on_c, 0, 62, 45
2, 11136, Note_on_c, 0, 71, 45
2, 11230, Note_on_c, 0, 62, 0
2, 11230, Note_on_c, 0, 71, 0
2, 11232, Note_on_c, 0, 64, 45
2, 11232, Note_on_c, 0, 71, 45
2, 11326, Note_on_c, 0, 71, 0
2, 11328, Note_on_c, 0, 70, 50
2, 11392, Note_on_c, 0, 64, 0
2, 11422, Note_on_c, 0, 70, 0
2, 11424, Note_on_c, 0, 62, 56
2, 11424, Note_on_c, 0, 71, 56
2, 11456, Note_on_c, 0, 62, 0
2, 11456, Note_on_c, 0, 71, 0
2, 11520, Note_on_c, 0, 78, 62
2, 11614, Note_on_c, 0, 78, 0
2, 11616, Note_on_c, 0, 76, 68
2, 11710, Note_on_c, 0, 76, 0
2, 11712, Note_on_c, 0, 74, 74
2, 11806, Note_on_c, 0, 74, 0
2, 11808, Note_on_c, 0, 73, 80
2, 11902, Note_on_c, 0, 73, 0
2, 11904, Note_on_c, 0, 71, 86
2, 11936, Note_on_c, 0, 71, 0
2, 12000, Note_on_c, 0, 69, 92
2, 12256, Note_on_c, 0, 69, 0
2, 12288, Note_on_c, 0, 67, 68
2, 12382, Note_on_c, 0, 67, 0
2, 12384, Note_on_c, 0, 66, 60
2, 12544, Note_on_c, 0, 66, 0
2, 12576, Note_on_c, 0, 64, 60
2, 12670, Note_on_c, 0, 64, 0
2, 12672, Note_on_c, 0, 62, 60
2, 12766, Note_on_c, 0, 62, 0
2, 12768, Note_on_c, 0, 62, 60
2, 12792, Note_on_c, 0, 62, 0
2, 12792, Note_on_c, 0, 67, 92
2, 13024, Note_on_c, 0, 67, 0
2, 13056, Note_on_c, 0, 67, 45
2, 13150, Note_on_c, 0, 67, 0
2, 13152, Note_on_c, 0, 67, 45
2, 13176, Note_on_c, 0, 67, 0
2, 13176, Note_on_c, 0, 69, 45
2, 13200, Note_on_c, 0, 69, 0
2, 13200, Note_on_c, 0, 71, 45
2, 13224, Note_on_c, 0, 71, 0
2, 13224, Note_on_c, 0, 69, 45
2, 13248, Note_on_c, 0, 69, 0
2, 13248, Note_on_c, 0, 66, 45
2, 13248, Note_on_c, 0, 69, 45
2, 13272, Note_on_c, 0, 66, 0
2, 13272, Note_on_c, 0, 67, 45
2, 13296, Note_on_c, 0, 67, 0
2, 13296, Note_on_c, 0, 69, 0
2, 13296, Note_on_c, 0, 71, 45
2, 13344, Note_on_c, 0, 71, 0
2, 13344, Note_on_c, 0, 69, 45
2, 13392, Note_on_c, 0, 69, 0
2, 13392, Note_on_c, 0, 67, 45
2, 13440, Note_on_c, 0, 67, 0
2, 13440, Note_on_c, 0, 66, 45
2, 13488, Note_on_c, 0, 66, 0
2, 13488, Note_on_c, 0, 64, 45
2, 13534, Note_on_c, 0, 64, 0
2, 13536, Note_on_c, 0, 66, 45
2, 13630, Note_on_c, 0, 66, 0
2, 13632, Note_on_c, 0, 62, 45
2, 13726, Note_on_c, 0, 62, 0
2, 13728, Note_on_c, 0, 62, 45
2, 13760, Note_on_c, 0, 62, 0
2, 13824, Note_on_c, 0, 78, 45
2, 13856, Note_on_c, 0, 78, 0
2, 13920, Note_on_c, 0, 78, 45
2, 14080, Note_on_c, 0, 78, 0
2, 14112, Note_on_c, 0, 76, 45
2, 14206, Note_on_c, 0, 76, 0
2, 14208, Note_on_c, 0, 74, 45
2, 14302, Note_on_c, 0, 74, 0
2, 14304, Note_on_c, 0, 74, 45
2, 14328, Note_on_c, 0, 74, 0
2, 14328, Note_on_c, 0, 79, 92
2, 14560, Note_on_c, 0, 79, 0
2, 14592, Note_on_c, 0, 79, 45
2, 14624, Note_on_c, 0, 79, 0
2, 14688, Note_on_c, 0, 79, 45
2, 14710, Note_on_c, 0, 79, 0
2, 14712, Note_on_c, 0, 81, 45
2, 14734, Note_on_c, 0, 81, 0
2, 14736, Note_on_c, 0, 83, 45
2, 14758, Note_on_c, 0, 83, 0
2, 14760, Note_on_c, 0, 81, 45
2, 14782, Note_on_c, 0, 81, 0
2, 14784, Note_on_c, 0, 78, 45
2, 14784, Note_on_c, 0, 81, 45
2, 14806, Note_on_c, 0, 78, 0
2, 14808, Note_on_c, 0, 79, 45
2, 14830, Note_on_c, 0, 79, 0
2, 14830, Note_on_c, 0, 81, 0
2, 14832, Note_on_c, 0, 83, 45
2, 14878, Note_on_c, 0, 83, 0
2, 14880, Note_on_c, 0, 81, 45
2, 14926, Note_on_c, 0, 81, 0
2, 14928, Note_on_c, 0, 79, 45
2, 14974, Note_on_c, 0, 79, 0
2, 14976, Note_on_c, 0, 78, 45
2, 15022, Note_on_c, 0, 78, 0
2, 15024, Note_on_c, 0, 76, 45
2, 15070, Note_on_c, 0, 76, 0
2, 15072, Note_on_c, 0, 74, 45
2, 15232, Note_on_c, 0, 74, 0
2, 15360, Note_on_c, 0, 74, 45
2, 15454, Note_on_c, 0, 74, 0
2, 15456, Note_on_c, 0, 62, 45
2, 15456, Note_on_c, 0, 74, 45
2, 15616, Note_on_c, 0, 62, 0
2, 15616, Note_on_c, 0, 74, 0
2, 15648, Note_on_c, 0, 61, 45
2, 15648, Note_on_c, 0, 73, 45
2, 15742, Note_on_c, 0, 61, 0
2, 15742, Note_on_c, 0, 73, 0
2, 15744, Note_on_c, 0, 59, 45
2, 15744, Note_on_c, 0, 71, 45
2, 15838, Note_on_c, 0, 59, 0
2, 15838, Note_on_c, 0, 71, 0
2, 15840, Note_on_c, 0, 64, 45
2, 15840, Note_on_c, 0, 76, 45
2, 15888, Note_on_c, 0, 64, 0
2, 15888, Note_on_c, 0, 76, 0
2, 16128, Note_on_c, 0, 64, 45
2, 16128, Note_on_c, 0, 76, 45
2, 16222, Note_on_c, 0, 64, 0
2, 16222, Note_on_c, 0, 76, 0
2, 16224, Note_on_c, 0, 64, 45
2, 16224, Note_on_c, 0, 76, 45
2, 16384, Note_on_c, 0, 64, 0
2, 16384, Note_on_c, 0, 76, 0
2, 16416, Note_on_c, 0, 62, 45
2, 16416, Note_on_c, 0, 74, 45
2, 16510, Note_on_c, 0, 62, 0
2, 16510, Note_on_c, 0, 74, 0
2, 16512, Note_on_c, 0, 61, 45
2, 16512, Note_on_c, 0, 73, 45
2, 16606, Note_on_c, 0, 61, 0
2, 16606, Note_on_c, 0, 73, 0
2, 16608, Note_on_c, 0, 66, 45
2, 16608, Note_on_c, 0, 78, 45
2, 16656, Note_on_c, 0, 66, 0
2, 16656, Note_on_c, 0, 78, 0
2, 16896, Note_on_c, 0, 71, 45
2, 16896, Note_on_c, 0, 83, 45
2, 16990, Note_on_c, 0, 71, 0
2, 16990, Note_on_c, 0, 83, 0
2, 16992, Note_on_c, 0, 71, 45
2, 16992, Note_on_c, 0, 83, 45
2, 17152, Note_on_c, 0, 71, 0
2, 17152, Note_on_c, 0, 83, 0
2, 17184, Note_on_c, 0, 69, 76
2, 17184, Note_on_c, 0, 81, 76
2, 17278, Note_on_c, 0, 69, 0
2, 17278, Note_on_c, 0, 81, 0
2, 17280, Note_on_c, 0, 68, 92
2, 17280, Note_on_c, 0, 80, 92
2, 17374, Note_on_c, 0, 68, 0
2, 17374, Note_on_c, 0, 80, 0
2, 17376, Note_on_c, 0, 73, 108
2, 17376, Note_on_c, 0, 85, 108
2, 17536, Note_on_c, 0, 73, 0
2, 17536, Note_on_c, 0, 85, 0
2, 17664, Note_on_c, 0, 78, 60
2, 17758, Note_on_c, 0, 78, 0
2, 17760, Note_on_c, 0, 78, 60
2, 17920, Note_on_c, 0, 78, 0
2, 17952, Note_on_c, 0, 71, 60
2, 17952, Note_on_c, 0, 78, 60
2, 17998, Note_on_c, 0, 78, 0
2, 18000, Note_on_c, 0, 77, 60
2, 18046, Note_on_c, 0, 77, 0
2, 18048, Note_on_c, 0, 81, 60
2, 18094, Note_on_c, 0, 81, 0
2, 18096, Note_on_c, 0, 80, 60
2, 18112, Note_on_c, 0, 71, 0
2, 18142, Note_on_c, 0, 80, 0
2, 18144, Note_on_c, 0, 69, 60
2, 18144, Note_on_c, 0, 78, 60
2, 18176, Note_on_c, 0, 69, 0
2, 18176, Note_on_c, 0, 78, 0
2, 18384, Note_on_c, 0, 65, 60
2, 18430, Note_on_c, 0, 65, 0
2, 18432, Note_on_c, 0, 69, 60
2, 18478, Note_on_c, 0, 69, 0
2, 18480, Note_on_c, 0, 68, 60
2, 18526, Note_on_c, 0, 68, 0
2, 18528, Note_on_c, 0, 66, 60
2, 18560, Note_on_c, 0, 66, 0
2, 18768, Note_on_c, 0, 65, 57
2, 18814, Note_on_c, 0, 65, 0
2, 18816, Note_on_c, 0, 69, 56
2, 18862, Note_on_c, 0, 69, 0
2, 18864, Note_on_c, 0, 68, 55
2, 18910, Note_on_c, 0, 68, 0
2, 18912, Note_on_c, 0, 66, 54
2, 18958, Note_on_c, 0, 66, 0
2, 18960, Note_on_c, 0, 65, 53
2, 19006, Note_on_c, 0, 65, 0
2, 19008, Note_on_c, 0, 69, 52
2, 19054, Note_on_c, 0, 69, 0
2, 19056, Note_on_c, 0, 68, 51
2, 19102, Note_on_c, 0, 68, 0
2, 19104, Note_on_c, 0, 66, 50
2, 19246, Note_on_c, 0, 66, 0
2, 19248, Note_on_c, 0, 66, 45
2, 19280, Note_on_c, 0, 66, 0
2, 19344, Note_on_c, 0, 66, 45
2, 19504, Note_on_c, 0, 66, 0
2, 19536, Note_on_c, 0, 64, 45
2, 19630, Note_on_c, 0, 64, 0
2, 19632, Note_on_c, 0, 62, 45
2, 19726, Note_on_c, 0, 62, 0
2, 19728, Note_on_c, 0, 62, 45
2, 19752, Note_on_c, 0, 62, 0
2, 19752, Note_on_c, 0, 67, 92
2, 19984, Note_on_c, 0, 67, 0
2, 20016, Note_on_c, 0, 67, 45
2, 20048, Note_on_c, 0, 67, 0
2, 20112, Note_on_c, 0, 67, 45
2, 20134, Note_on_c, 0, 67, 0
2, 20136, Note_on_c, 0, 69, 45
2, 20158, Note_on_c, 0, 69, 0
2, 20160, Note_on_c, 0, 71, 45
2, 20182, Note_on_c, 0, 71, 0
2, 20184, Note_on_c, 0, 69, 45
2, 20206, Note_on_c, 0, 69, 0
2, 20208, Note_on_c, 0, 66, 45
2, 20208, Note_on_c, 0, 69, 45
2, 20230, Note_on_c, 0, 66, 0
2, 20232, Note_on_c, 0, 67, 45
2, 20254, Note_on_c, 0, 67, 0
2, 20254, Note_on_c, 0, 69, 0
2, 20256, Note_on_c, 0, 71, 45
2, 20302, Note_on_c, 0, 71, 0
2, 20304, Note_on_c, 0, 69, 45
2, 20350, Note_on_c, 0, 69, 0
2, 20352, Note_on_c, 0, 67, 45
2, 20398, Note_on_c, 0, 67, 0
2, 20400, Note_on_c, 0, 66, 45
2, 20446, Note_on_c, 0, 66, 0
2, 20448, Note_on_c, 0, 64, 45
2, 20494, Note_on_c, 0, 64, 0
2, 20496, Note_on_c, 0, 66, 45
2, 20590, Note_on_c, 0, 66, 0
2, 20592, Note_on_c, 0, 62, 45
2, 20686, Note_on_c, 0, 62, 0
2, 20688, Note_on_c, 0, 62, 45
2, 20720, Note_on_c, 0, 62, 0
2, 20784, Note_on_c, 0, 78, 45
2, 20816, Note_on_c, 0, 78, 0
2, 20880, Note_on_c, 0, 78, 45
2, 21040, Note_on_c, 0, 78, 0
2, 21072, Note_on_c, 0, 76, 45
2, 21166, Note_on_c, 0, 76, 0
2, 21168, Note_on_c, 0, 74, 45
2, 21262, Note_on_c, 0, 74, 0
2, 21264, Note_on_c, 0, 74, 45
2, 21288, Note_on_c, 0, 74, 0
2, 21288, Note_on_c, 0, 79, 92
2, 21520, Note_on_c, 0, 79, 0
2, 21552, Note_on_c, 0, 79, 45
2, 21584, Note_on_c, 0, 79, 0
2, 21648, Note_on_c, 0, 79, 45
2, 21672, Note_on_c, 0, 79, 0
2, 21672, Note_on_c, 0, 81, 45
2, 21696, Note_on_c, 0, 81, 0
2, 21696, Note_on_c, 0, 83, 45
2, 21720, Note_on_c, 0, 83, 0
2, 21720, Note_on_c, 0, 81, 45
2, 21744, Note_on_c, 0, 81, 0
2, 21744, Note_on_c, 0, 78, 45
2, 21744, Note_on_c, 0, 81, 45
2, 21768, Note_on_c, 0, 78, 0
2, 21768, Note_on_c, 0, 79, 45
2, 21792, Note_on_c, 0, 79, 0
2, 21792, Note_on_c, 0, 81, 0
2, 21792, Note_on_c, 0, 83, 45
2, 21840, Note_on_c, 0, 83, 0
2, 21840, Note_on_c, 0, 81, 45
2, 21888, Note_on_c, 0, 81, 0
2, 21888, Note_on_c, 0, 79, 45
2, 21936, Note_on_c, 0, 79, 0
2, 21936, Note_on_c, 0, 78, 45
2, 21984, Note_on_c, 0, 78, 0
2, 21984, Note_on_c, 0, 76, 45
2, 22032, Note_on_c, 0, 76, 0
2, 22032, Note_on_c, 0, 74, 45
2, 22078, Note_on_c, 0, 74, 0
2, 22080, Note_on_c, 0, 57, 45
2, 22126, Note_on_c, 0, 57, 0
2, 22128, Note_on_c, 0, 59, 45
2, 22174, Note_on_c, 0, 59, 0
2, 22176, Note_on_c, 0, 61, 45
2, 22222, Note_on_c, 0, 61, 0
2, 22224, Note_on_c, 0, 62, 45
2, 22270, Note_on_c, 0, 62, 0
2, 22272, Note_on_c, 0, 64, 45
2, 22318, Note_on_c, 0, 64, 0
2, 22320, Note_on_c, 0, 66, 45
2, 22352, Note_on_c, 0, 66, 0
2, 22368, Note_on_c, 0, 66, 45
2, 22400, Note_on_c, 0, 66, 0
2, 22416, Note_on_c, 0, 65, 60
2, 22464, Note_on_c, 0, 65, 0
2, 22464, Note_on_c, 0, 66, 60
2, 22496, Note_on_c, 0, 66, 0
2, 22512, Note_on_c, 0, 67, 60
2, 22560, Note_on_c, 0, 67, 0
2, 22560, Note_on_c, 0, 66, 60
2, 22592, Note_on_c, 0, 66, 0
2, 22608, Note_on_c, 0, 63, 60
2, 22656, Note_on_c, 0, 63, 0
2, 22656, Note_on_c, 0, 64, 60
2, 22688, Note_on_c, 0, 64, 0
2, 22704, Note_on_c, 0, 61, 60
2, 22752, Note_on_c, 0, 61, 0
2, 22752, Note_on_c, 0, 62, 60
2, 22784, Note_on_c, 0, 62, 0
2, 22800, Note_on_c, 0, 62, 60
2, 22824, Note_on_c, 0, 62, 0
2, 22824, Note_on_c, 0, 64, 60
2, 22848, Note_on_c, 0, 64, 0
2, 22848, Note_on_c, 0, 66, 60
2, 22872, Note_on_c, 0, 66, 0
2, 22872, Note_on_c, 0, 64, 60
2, 22896, Note_on_c, 0, 64, 0
2, 22896, Note_on_c, 0, 61, 60
2, 22896, Note_on_c, 0, 64, 60
2, 22920, Note_on_c, 0, 61, 0
2, 22920, Note_on_c, 0, 62, 60
2, 22944, Note_on_c, 0, 62, 0
2, 22944, Note_on_c, 0, 64, 0
2, 22944, Note_on_c, 0, 66, 60
2, 22992, Note_on_c, 0, 66, 0
2, 22992, Note_on_c, 0, 67, 60
2, 23040, Note_on_c, 0, 67, 0
2, 23040, Note_on_c, 0, 66, 60
2, 23088, Note_on_c, 0, 66, 0
2, 23088, Note_on_c, 0, 67, 60
2, 23136, Note_on_c, 0, 67, 0
2, 23136, Note_on_c, 0, 66, 60
2, 23182, Note_on_c, 0, 66, 0
2, 23184, Note_on_c, 0, 67, 60
2, 23232, Note_on_c, 0, 67, 0
2, 23232, Note_on_c, 0, 69, 60
2, 23280, Note_on_c, 0, 69, 0
2, 23280, Note_on_c, 0, 70, 60
2, 23328, Note_on_c, 0, 70, 0
2, 23328, Note_on_c, 0, 71, 60
2, 23376, Note_on_c, 0, 71, 0
2, 23376, Note_on_c, 0, 69, 60
2, 23424, Note_on_c, 0, 69, 0
2, 23424, Note_on_c, 0, 67, 60
2, 23472, Note_on_c, 0, 67, 0
2, 23472, Note_on_c, 0, 66, 60
2, 23520, Note_on_c, 0, 66, 0
2, 23520, Note_on_c, 0, 64, 60
2, 23566, Note_on_c, 0, 64, 0
2, 23568, Note_on_c, 0, 66, 60
2, 23616, Note_on_c, 0, 66, 0
2, 23616, Note_on_c, 0, 62, 60
2, 23664, Note_on_c, 0, 62, 0
2, 23664, Note_on_c, 0, 69, 60
2, 23712, Note_on_c, 0, 69, 0
2, 23712, Note_on_c, 0, 66, 60
2, 23760, Note_on_c, 0, 66, 0
2, 23760, Note_on_c, 0, 74, 60
2, 23808, Note_on_c, 0, 74, 0
2, 23808, Note_on_c, 0, 69, 60
2, 23856, Note_on_c, 0, 69, 0
2, 23856, Note_on_c, 0, 78, 60
2, 23890, Note_on_c, 0, 78, 0
2, 23904, Note_on_c, 0, 78, 60
2, 23936, Note_on_c, 0, 78, 0
2, 23952, Note_on_c, 0, 77, 60
2, 24000, Note_on_c, 0, 77, 0
2, 24000, Note_on_c, 0, 78, 60
2, 24046, Note_on_c, 0, 78, 0
2, 24048, Note_on_c, 0, 79, 60
2, 24096, Note_on_c, 0, 79, 0
2, 24096, Note_on_c, 0, 78, 60
2, 24142, Note_on_c, 0, 78, 0
2, 24144, Note_on_c, 0, 75, 60
2, 24192, Note_on_c, 0, 75, 0
2, 24192, Note_on_c, 0, 76, 60
2, 24238, Note_on_c, 0, 76, 0
2, 24240, Note_on_c, 0, 73, 60
2, 24288, Note_on_c, 0, 73, 0
2, 24288, Note_on_c, 0, 74, 60
2, 24334, Note_on_c, 0, 74, 0
2, 24336, Note_on_c, 0, 74, 60
2, 24360, Note_on_c, 0, 74, 0
2, 24360, Note_on_c, 0, 76, 60
2, 24384, Note_on_c, 0, 76, 0
2, 24384, Note_on_c, 0, 78, 60
2, 24408, Note_on_c, 0, 78, 0
2, 24408, Note_on_c, 0, 76, 60
2, 24432, Note_on_c, 0, 76, 0
2, 24432, Note_on_c, 0, 73, 60
2, 24432, Note_on_c, 0, 76, 60
2, 24456, Note_on_c, 0, 73, 0
2, 24456, Note_on_c, 0, 74, 60
2, 24480, Note_on_c, 0, 74, 0
2, 24480, Note_on_c, 0, 76, 0
2, 24480, Note_on_c, 0, 78, 60
2, 24528, Note_on_c, 0, 78, 0
2, 24528, Note_on_c, 0, 79, 60
2, 24576, Note_on_c, 0, 79, 0
2, 24576, Note_on_c, 0, 81, 60
2, 24624, Note_on_c, 0, 81, 0
2, 24624, Note_on_c, 0, 82, 60
2, 24672, Note_on_c, 0, 82, 0
2, 24672, Note_on_c, 0, 83, 60
2, 24718, Note_on_c, 0, 83, 0
2, 24720, Note_on_c, 0, 82, 60
2, 24766, Note_on_c, 0, 82, 0
2, 24768, Note_on_c, 0, 83, 60
2, 24816, Note_on_c, 0, 83, 0
2, 24816, Note_on_c, 0, 85, 60
2, 24864, Note_on_c, 0, 85, 0
2, 24864, Note_on_c, 0, 83, 60
2, 24912, Note_on_c, 0, 83, 0
2, 24912, Note_on_c, 0, 81, 60
2, 24960, Note_on_c, 0, 81, 0
2, 24960, Note_on_c, 0, 79, 60
2, 25008, Note_on_c, 0, 79, 0
2, 25008, Note_on_c, 0, 78, 60
2, 25056, Note_on_c, 0, 78, 0
2, 25056, Note_on_c, 0, 76, 60
2, 25104, Note_on_c, 0, 76, 0
2, 25104, Note_on_c, 0, 74, 60
2, 25264, Note_on_c, 0, 74, 0
2, 25392, Note_on_c, 0, 78, 60
2, 25488, Note_on_c, 0, 78, 0
2, 25488, Note_on_c, 0, 76, 60
2, 25584, Note_on_c, 0, 76, 0
2, 25584, Note_on_c, 0, 74, 60
2, 25680, Note_on_c, 0, 74, 0
2, 25680, Note_on_c, 0, 73, 60
2, 25776, Note_on_c, 0, 73, 0
2, 25776, Note_on_c, 0, 62, 60
2, 25776, Note_on_c, 0, 71, 60
2, 25870, Note_on_c, 0, 62, 0
2, 25870, Note_on_c, 0, 71, 0
2, 25872, Note_on_c, 0, 64, 60
2, 25872, Note_on_c, 0, 71, 60
2, 25966, Note_on_c, 0, 71, 0
2, 25968, Note_on_c, 0, 70, 64
2, 26032, Note_on_c, 0, 64, 0
2, 26062, Note_on_c, 0, 70, 0
2, 26064, Note_on_c, 0, 62, 68
2, 26064, Note_on_c, 0, 71, 68
2, 26158, Note_on_c, 0, 62, 0
2, 26158, Note_on_c, 0, 71, 0
2, 26160, Note_on_c, 0, 78, 72
2, 26254, Note_on_c, 0, 78, 0
2, 26256, Note_on_c, 0, 76, 76
2, 26350, Note_on_c, 0, 76, 0
2, 26352, Note_on_c, 0, 74, 80
2, 26446, Note_on_c, 0, 74, 0
2, 26448, Note_on_c, 0, 73, 84
2, 26542, Note_on_c, 0, 73, 0
2, 26544, Note_on_c, 0, 71, 88
2, 26576, Note_on_c, 0, 71, 0
2, 26640, Note_on_c, 0, 69, 92
2, 26896, Note_on_c, 0, 69, 0
2, 26928, Note_on_c, 0, 67, 75
2, 27022, Note_on_c, 0, 67, 0
2, 27024, Note_on_c, 0, 66, 60
2, 27184, Note_on_c, 0, 66, 0
2, 27216, Note_on_c, 0, 64, 60
2, 27310, Note_on_c, 0, 64, 0
2, 27312, Note_on_c, 0, 62, 60
2, 27406, Note_on_c, 0, 62, 0
2, 27408, Note_on_c, 0, 62, 60
2, 27432, Note_on_c, 0, 62, 0
2, 27432, Note_on_c, 0, 67, 92
2, 27664, Note_on_c, 0, 67, 0
2, 27696, Note_on_c, 0, 67, 60
2, 27728, Note_on_c, 0, 67, 0
2, 27792, Note_on_c, 0, 67, 60
2, 27816, Note_on_c, 0, 67, 0
2, 27816, Note_on_c, 0, 69, 60
2, 27840, Note_on_c, 0, 69, 0
2, 27840, Note_on_c, 0, 71, 60
2, 27864, Note_on_c, 0, 71, 0
2, 27864, Note_on_c, 0, 69, 60
2, 27888, Note_on_c, 0, 69, 0
2, 27888, Note_on_c, 0, 66, 60
2, 27888, Note_on_c, 0, 69, 60
2, 27912, Note_on_c, 0, 66, 0
2, 27912, Note_on_c, 0, 67, 60
2, 27936, Note_on_c, 0, 67, 0
2, 27936, Note_on_c, 0, 69, 0
2, 27936, Note_on_c, 0, 71, 60
2, 27984, Note_on_c, 0, 71, 0
2, 27984, Note_on_c, 0, 69, 60
2, 28032, Note_on_c, 0, 69, 0
2, 28032, Note_on_c, 0, 67, 60
2, 28080, Note_on_c, 0, 67, 0
2, 28080, Note_on_c, 0, 66, 60
2, 28128, Note_on_c, 0, 66, 0
2, 28128, Note_on_c, 0, 64, 60
2, 28174, Note_on_c, 0, 64, 0
2, 28176, Note_on_c, 0, 66, 60
2, 28270, Note_on_c, 0, 66, 0
2, 28272, Note_on_c, 0, 62, 60
2, 28366, Note_on_c, 0, 62, 0
2, 28368, Note_on_c, 0, 62, 60
2, 28400, Note_on_c, 0, 62, 0
2, 28464, Note_on_c, 0, 78, 60
2, 28496, Note_on_c, 0, 78, 0
2, 28560, Note_on_c, 0, 78, 60
2, 28720, Note_on_c, 0, 78, 0
2, 28752, Note_on_c, 0, 76, 60
2, 28846, Note_on_c, 0, 76, 0
2, 28848, Note_on_c, 0, 74, 60
2, 28942, Note_on_c, 0, 74, 0
2, 28944, Note_on_c, 0, 74, 60
2, 28968, Note_on_c, 0, 74, 0
2, 28968, Note_on_c, 0, 79, 92
2, 29200, Note_on_c, 0, 79, 0
2, 29232, Note_on_c, 0, 79, 92
2, 29264, Note_on_c, 0, 79, 0
2, 29328, Note_on_c, 0, 79, 92
2, 29352, Note_on_c, 0, 79, 0
2, 29352, Note_on_c, 0, 81, 92
2, 29376, Note_on_c, 0, 81, 0
2, 29376, Note_on_c, 0, 83, 92
2, 29400, Note_on_c, 0, 83, 0
2, 29400, Note_on_c, 0, 81, 92
2, 29424, Note_on_c, 0, 81, 0
2, 29424, Note_on_c, 0, 78, 92
2, 29424, Note_on_c, 0, 81, 92
2, 29448, Note_on_c, 0, 78, 0
2, 29448, Note_on_c, 0, 79, 92
2, 29472, Note_on_c, 0, 79, 0
2, 29472, Note_on_c, 0, 81, 0
2, 29472, Note_on_c, 0, 83, 92
2, 29520, Note_on_c, 0, 83, 0
2, 29520, Note_on_c, 0, 81, 92
2, 29568, Note_on_c, 0, 81, 0
2, 29568, Note_on_c, 0, 79, 92
2, 29616, Note_on_c, 0, 79, 0
2, 29616, Note_on_c, 0, 78, 92
2, 29664, Note_on_c, 0, 78, 0
2, 29664, Note_on_c, 0, 76, 92
2, 29712, Note_on_c, 0, 76, 0
2, 29712, Note_on_c, 0, 74, 92
2, 29872, Note_on_c, 0, 74, 0
2, 30000, Note_on_c, 0, 66, 92
2, 30048, Note_on_c, 0, 66, 0
2, 30048, Note_on_c, 0, 78, 92
2, 30094, Note_on_c, 0, 78, 0
2, 30096, Note_on_c, 0, 77, 92
2, 30144, Note_on_c, 0, 77, 0
2, 30144, Note_on_c, 0, 78, 92
2, 30190, Note_on_c, 0, 78, 0
2, 30192, Note_on_c, 0, 76, 92
2, 30240, Note_on_c, 0, 76, 0
2, 30240, Note_on_c, 0, 74, 92
2, 30286, Note_on_c, 0, 74, 0
2, 30288, Note_on_c, 0, 74, 92
2, 30336, Note_on_c, 0, 74, 0
2, 30336, Note_on_c, 0, 73, 92
2, 30382, Note_on_c, 0, 73, 0
2, 30384, Note_on_c, 0, 73, 92
2, 30432, Note_on_c, 0, 73, 0
2, 30432, Note_on_c, 0, 71, 92
2, 30478, Note_on_c, 0, 71, 0
2, 30480, Note_on_c, 0, 71, 92
2, 30574, Note_on_c, 0, 71, 0
2, 30576, Note_on_c, 0, 70, 92
2, 30670, Note_on_c, 0, 70, 0
2, 30672, Note_on_c, 0, 71, 92
2, 30704, Note_on_c, 0, 71, 0
2, 30768, Note_on_c, 0, 66, 92
2, 30816, Note_on_c, 0, 66, 0
2, 30816, Note_on_c, 0, 78, 92
2, 30862, Note_on_c, 0, 78, 0
2, 30864, Note_on_c, 0, 77, 92
2, 30912, Note_on_c, 0, 77, 0
2, 30912, Note_on_c, 0, 78, 92
2, 30958, Note_on_c, 0, 78, 0
2, 30960, Note_on_c, 0, 76, 92
2, 31008, Note_on_c, 0, 76, 0
2, 31008, Note_on_c, 0, 74, 92
2, 31054, Note_on_c, 0, 74, 0
2, 31056, Note_on_c, 0, 74, 92
2, 31104, Note_on_c, 0, 74, 0
2, 31104, Note_on_c, 0, 73, 92
2, 31150, Note_on_c, 0, 73, 0
2, 31152, Note_on_c, 0, 73, 92
2, 31200, Note_on_c, 0, 73, 0
2, 31200, Note_on_c, 0, 71, 92
2, 31246, Note_on_c, 0, 71, 0
2, 31248, Note_on_c, 0, 71, 127
2, 31296, Note_on_c, 0, 71, 0
2, 31296, Note_on_c, 0, 69, 127
2, 31342, Note_on_c, 0, 69, 0
2, 31344, Note_on_c, 0, 68, 92
2, 31390, Note_on_c, 0, 68, 0
2, 31392, Note_on_c, 0, 69, 87
2, 31438, Note_on_c, 0, 69, 0
2, 31440, Note_on_c, 0, 68, 82
2, 31486, Note_on_c, 0, 68, 0
2, 31488, Note_on_c, 0, 69, 77
2, 31534, Note_on_c, 0, 69, 0
2, 31536, Note_on_c, 0, 66, 72
2, 31582, Note_on_c, 0, 66, 0
2, 31584, Note_on_c, 0, 67, 66
2, 31630, Note_on_c, 0, 67, 0
2, 31632, Note_on_c, 0, 65, 60
2, 31680, Note_on_c, 0, 65, 0
2, 31680, Note_on_c, 0, 66, 60
2, 31726, Note_on_c, 0, 66, 0
2, 31728, Note_on_c, 0, 67, 60
2, 31776, Note_on_c, 0, 67, 0
2, 31776, Note_on_c, 0, 66, 60
2, 31822, Note_on_c, 0, 66, 0
2, 31824, Note_on_c, 0, 63, 60
2, 31872, Note_on_c, 0, 63, 0
2, 31872, Note_on_c, 0, 64, 60
2, 31918, Note_on_c, 0, 64, 0
2, 31920, Note_on_c, 0, 61, 60
2, 31968, Note_on_c, 0, 61, 0
2, 31968, Note_on_c, 0, 62, 60
2, 32014, Note_on_c, 0, 62, 0
2, 32016, Note_on_c, 0, 62, 60
2, 32040, Note_on_c, 0, 62, 0
2, 32040, Note_on_c, 0, 64, 60
2, 32064, Note_on_c, 0, 64, 0
2, 32064, Note_on_c, 0, 66, 60
2, 32088, Note_on_c, 0, 66, 0
2, 32088, Note_on_c, 0, 64, 60
2, 32112, Note_on_c, 0, 64, 0
2, 32112, Note_on_c, 0, 61, 60
2, 32112, Note_on_c, 0, 64, 60
2, 32136, Note_on_c, 0, 61, 0
2, 32136, Note_on_c, 0, 62, 60
2, 32160, Note_on_c, 0, 62, 0
2, 32160, Note_on_c, 0, 64, 0
2, 32160, Note_on_c, 0, 66, 60
2, 32208, Note_on_c, 0, 66, 0
2, 32208, Note_on_c, 0, 67, 60
2, 32256, Note_on_c, 0, 67, 0
2, 32256, Note_on_c, 0, 66, 60
2, 32304, Note_on_c, 0, 66, 0
2, 32304, Note_on_c, 0, 67, 60
2, 32352, Note_on_c, 0, 67, 0
2, 32352, Note_on_c, 0, 66, 60
2, 32398, Note_on_c, 0, 66, 0
2, 32400, Note_on_c, 0, 67, 60
2, 32448, Note_on_c, 0, 67, 0
2, 32448, Note_on_c, 0, 69, 60
2, 32496, Note_on_c, 0, 69, 0
2, 32496, Note_on_c, 0, 70, 60
2, 32544, Note_on_c, 0, 70, 0
2, 32544, Note_on_c, 0, 71, 60
2, 32592, Note_on_c, 0, 71, 0
2, 32592, Note_on_c, 0, 69, 60
2, 32640, Note_on_c, 0, 69, 0
2, 32640, Note_on_c, 0, 67, 60
2, 32688, Note_on_c, 0, 67, 0
2, 32688, Note_on_c, 0, 66, 60
2, 32736, Note_on_c, 0, 66, 0
2, 32736, Note_on_c, 0, 64, 60
2, 32782, Note_on_c, 0, 64, 0
2, 32784, Note_on_c, 0, 66, 60
2, 32832, Note_on_c, 0, 66, 0
2, 32832, Note_on_c, 0, 62, 60
2, 32880, Note_on_c, 0, 62, 0
2, 32880, Note_on_c, 0, 69, 60
2, 32928, Note_on_c, 0, 69, 0
2, 32928, Note_on_c, 0, 66, 60
2, 32976, Note_on_c, 0, 66, 0
2, 32976, Note_on_c, 0, 74, 60
2, 33024, Note_on_c, 0, 74, 0
2, 33024, Note_on_c, 0, 69, 60
2, 33072, Note_on_c, 0, 69, 0
2, 33072, Note_on_c, 0, 78, 60
2, 33106, Note_on_c, 0, 78, 0
2, 33120, Note_on_c, 0, 78, 60
2, 33152, Note_on_c, 0, 78, 0
2, 33168, Note_on_c, 0, 77, 60
2, 33216, Note_on_c, 0, 77, 0
2, 33216, Note_on_c, 0, 78, 60
2, 33262, Note_on_c, 0, 78, 0
2, 33264, Note_on_c, 0, 79, 60
2, 33312, Note_on_c, 0, 79, 0
2, 33312, Note_on_c, 0, 78, 60
2, 33358, Note_on_c, 0, 78, 0
2, 33360, Note_on_c, 0, 75, 60
2, 33408, Note_on_c, 0, 75, 0
2, 33408, Note_on_c, 0, 76, 60
2, 33454, Note_on_c, 0, 76, 0
2, 33456, Note_on_c, 0, 73, 60
2, 33504, Note_on_c, 0, 73, 0
2, 33504, Note_on_c, 0, 74, 60
2, 33550, Note_on_c, 0, 74, 0
2, 33552, Note_on_c, 0, 74, 60
2, 33576, Note_on_c, 0, 74, 0
2, 33576, Note_on_c, 0, 76, 60
2, 33600, Note_on_c, 0, 76, 0
2, 33600, Note_on_c, 0, 78, 60
2, 33624, Note_on_c, 0, 78, 0
2, 33624, Note_on_c, 0, 76, 60
2, 33648, Note_on_c, 0, 76, 0
2, 33648, Note_on_c, 0, 73, 60
2, 33648, Note_on_c, 0, 76, 60
2, 33672, Note_on_c, 0, 73, 0
2, 33672, Note_on_c, 0, 74, 60
2, 33696, Note_on_c, 0, 74, 0
2, 33696, Note_on_c, 0, 76, 0
2, 33696, Note_on_c, 0, 78, 60
2, 33744, Note_on_c, 0, 78, 0
2, 33744, Note_on_c, 0, 79, 60
2, 33792, Note_on_c, 0, 79, 0
2, 33792, Note_on_c, 0, 81, 60
2, 33840, Note_on_c, 0, 81, 0
2, 33840, Note_on_c, 0, 82, 60
2, 33888, Note_on_c, 0, 82, 0
2, 33888, Note_on_c, 0, 83, 60
2, 33934, Note_on_c, 0, 83, 0
2, 33936, Note_on_c, 0, 82, 60
2, 33984, Note_on_c, 0, 82, 0
2, 33984, Note_on_c, 0, 83, 60
2, 34032, Note_on_c, 0, 83, 0
2, 34032, Note_on_c, 0, 85, 60
2, 34080, Note_on_c, 0, 85, 0
2, 34080, Note_on_c, 0, 83, 60
2, 34128, Note_on_c, 0, 83, 0
2, 34128, Note_on_c, 0, 81, 60
2, 34176, Note_on_c, 0, 81, 0
2, 34176, Note_on_c, 0, 79, 60
2, 34224, Note_on_c, 0, 79, 0
2, 34224, Note_on_c, 0, 78, 60
2, 34272, Note_on_c, 0, 78, 0
2, 34272, Note_on_c, 0, 76, 60
2, 34320, Note_on_c, 0, 76, 0
2, 34320, Note_on_c, 0, 74, 60
2, 34352, Note_on_c, 0, 74, 0
2, 34512, Note_on_c, 0, 83, 60
2, 34512, Note_on_c, 0, 86, 60
2, 34672, Note_on_c, 0, 83, 0
2, 34672, Note_on_c, 0, 86, 0
2, 34704, Note_on_c, 0, 81, 60
2, 34704, Note_on_c, 0, 85, 60
2, 34896, Note_on_c, 0, 81, 0
2, 34896, Note_on_c, 0, 85, 0
2, 34896, Note_on_c, 0, 79, 60
2, 34896, Note_on_c, 0, 83, 60
2, 35088, Note_on_c, 0, 79, 0
2, 35088, Note_on_c, 0, 83, 0
2, 35088, Note_on_c, 0, 78, 60
2, 35088, Note_on_c, 0, 81, 60
2, 35280, Note_on_c, 0, 78, 0
2, 35280, Note_on_c, 0, 81, 0
2, 35280, Note_on_c, 0, 71, 60
2, 35280, Note_on_c, 0, 74, 60
2, 35280, Note_on_c, 0, 79, 60
2, 35472, Note_on_c, 0, 71, 0
2, 35472, Note_on_c, 0, 74, 0
2, 35472, Note_on_c, 0, 79, 0
2, 35472, Note_on_c, 0, 69, 60
2, 35472, Note_on_c, 0, 74, 60
2, 35472, Note_on_c, 0, 78, 60
2, 35664, Note_on_c, 0, 69, 0
2, 35664, Note_on_c, 0, 74, 0
2, 35664, Note_on_c, 0, 78, 0
2, 35664, Note_on_c, 0, 67, 60
2, 35664, Note_on_c, 0, 73, 60
2, 35664, Note_on_c, 0, 76, 60
2, 35856, Note_on_c, 0, 67, 0
2, 35856, Note_on_c, 0, 73, 0
2, 35856, Note_on_c, 0, 76, 0
2, 35856, Note_on_c, 0, 66, 60
2, 35856, Note_on_c, 0, 69, 60
2, 35856, Note_on_c, 0, 74, 60
2, 35950, Note_on_c, 0, 66, 0
2, 35950, Note_on_c, 0, 69, 0
2, 35950, Note_on_c, 0, 74, 0
2, 36048, Note_on_c, 0, 71, 60
2, 36048, Note_on_c, 0, 74, 60
2, 36240, Note_on_c, 0, 71, 0
2, 36240, Note_on_c, 0, 74, 0
2, 36240, Note_on_c, 0, 69, 60
2, 36240, Note_on_c, 0, 73, 60
2, 36432, Note_on_c, 0, 69, 0
2, 36432, Note_on_c, 0, 73, 0
2, 36432, Note_on_c, 0, 67, 60
2, 36432, Note_on_c, 0, 71, 60
2, 36624, Note_on_c, 0, 67, 0
2, 36624, Note_on_c, 0, 71, 0
2, 36624, Note_on_c, 0, 66, 60
2, 36624, Note_on_c, 0, 69, 60
2, 36816, Note_on_c, 0, 66, 0
2, 36816, Note_on_c, 0, 69, 0
2, 36816, Note_on_c, 0, 59, 60
2, 36816, Note_on_c, 0, 62, 60
2, 36816, Note_on_c, 0, 67, 60
2, 37008, Note_on_c, 0, 59, 0
2, 37008, Note_on_c, 0, 62, 0
2, 37008, Note_on_c, 0, 67, 0
2, 37008, Note_on_c, 0, 57, 60
2, 37008, Note_on_c, 0, 62, 60
2, 37008, Note_on_c, 0, 66, 60
2, 37200, Note_on_c, 0, 57, 0
2, 37200, Note_on_c, 0, 62, 0
2, 37200, Note_on_c, 0, 66, 0
2, 37200, Note_on_c, 0, 55, 60
2, 37200, Note_on_c, 0, 61, 60
2, 37200, Note_on_c, 0, 64, 60
2, 37392, Note_on_c, 0, 55, 0
2, 37392, Note_on_c, 0, 61, 0
2, 37392, Note_on_c, 0, 64, 0
2, 37392, Note_on_c, 0, 54, 60
2, 37392, Note_on_c, 0, 57, 60
2, 37392, Note_on_c, 0, 62, 60
2, 37552, Note_on_c, 0, 54, 0
2, 37552, Note_on_c, 0, 57, 0
2, 37552, Note_on_c, 0, 62, 0
2, 37584, Note_on_c, 0, 55, 60
2, 37584, Note_on_c, 0, 59, 60
2, 37584, Note_on_c, 0, 62, 60
2, 37776, Note_on_c, 0, 55, 0
2, 37776, Note_on_c, 0, 59, 0
2, 37776, Note_on_c, 0, 62, 0
2, 37776, Note_on_c, 0, 54, 60
2, 37776, Note_on_c, 0, 57, 60
2, 37776, Note_on_c, 0, 62, 60
2, 37968, Note_on_c, 0, 54, 0
2, 37968, Note_on_c, 0, 57, 0
2, 37968, Note_on_c, 0, 62, 0
2, 37968, Note_on_c, 0, 52, 60
2, 37968, Note_on_c, 0, 55, 60
2, 37968, Note_on_c, 0, 61, 60
2, 37968, Note_on_c, 0, 62, 60
2, 38160, Note_on_c, 0, 52, 0
2, 38160, Note_on_c, 0, 55, 0
2, 38160, Note_on_c, 0, 61, 0
2, 38160, Note_on_c, 0, 62, 0
2, 38160, Note_on_c, 0, 50, 60
2, 38160, Note_on_c, 0, 54, 60
2, 38160, Note_on_c, 0, 62, 60
2, 38320, Note_on_c, 0, 50, 0
2, 38320, Note_on_c, 0, 54, 0
2, 38320, Note_on_c, 0, 62, 0
2, 38352, Note_on_c, 0, 55, 60
2, 38352, Note_on_c, 0, 59, 60
2, 38352, Note_on_c, 0, 62, 60
2, 38544, Note_on_c, 0, 55, 0
2, 38544, Note_on_c, 0, 59, 0
2, 38544, Note_on_c, 0, 62, 0
2, 38544, Note_on_c, 0, 54, 60
2, 38544, Note_on_c, 0, 57, 60
2, 38544, Note_on_c, 0, 62, 60
2, 38736, Note_on_c, 0, 54, 0
2, 38736, Note_on_c, 0, 57, 0
2, 38736, Note_on_c, 0, 62, 0
2, 38736, Note_on_c, 0, 52, 60
2, 38736, Note_on_c, 0, 55, 60
2, 38736, Note_on_c, 0, 61, 60
2, 38736, Note_on_c, 0, 62, 60
2, 38928, Note_on_c, 0, 52, 0
2, 38928, Note_on_c, 0, 55, 0
2, 38928, Note_on_c, 0, 61, 0
2, 38928, Note_on_c, 0, 62, 0
2, 38928, Note_on_c, 0, 50, 60
2, 38928, Note_on_c, 0, 54, 60
2, 38928, Note_on_c, 0, 62, 60
2, 39264, Note_on_c, 0, 50, 0
2, 39264, Note_on_c, 0, 54, 0
2, 39264, Note_on_c, 0, 62, 0
2, 39312, Note_on_c, 0, 54, 60
2, 39312, Note_on_c, 0, 57, 60
2, 39312, Note_on_c, 0, 62, 60
2, 39648, Note_on_c, 0, 54, 0
2, 39648, Note_on_c, 0, 57, 0
2, 39648, Note_on_c, 0, 62, 0
2, 39696, Note_on_c, 0, 50, 45
2, 39696, Note_on_c, 0, 54, 45
2, 39696, Note_on_c, 0, 62, 45
2, 40080, Note_on_c, 0, 50, 0
2, 40080, Note_on_c, 0, 54, 0
2, 40080, Note_on_c, 0, 62, 0
2, 40080, Note_on_c, 0, 50, 45
2, 40080, Note_on_c, 0, 54, 45
2, 40080, Note_on_c, 0, 62, 45
2, 40416, Note_on_c, 0, 50, 0
2, 40416, Note_on_c, 0, 54, 0
2, 40416, Note_on_c, 0, 62, 0
2, 40416, End_track
3, 0, Start_track
3, 0, MIDI_port, 0
3, 0, Title_t, "Reginald Steven Ritchie"
3, 0, Program_c, 1, 0
3, 0, Control_c, 1, 7, 127
3, 0, Control_c, 1, 10, 9
3, 0, Program_c, 1, 0
3, 0, Control_c, 1, 7, 127
3, 0, Control_c, 1, 10, 9
3, 0, Control_c, 1, 91, 84
3, 0, Control_c, 1, 93, 84
3, 96, Note_on_c, 1, 50, 60
3, 96, Note_on_c, 1, 57, 60
3, 256, Note_on_c, 1, 50, 0
3, 256, Note_on_c, 1, 57, 0
3, 288, Note_on_c, 1, 55, 60
3, 288, Note_on_c, 1, 59, 60
3, 382, Note_on_c, 1, 55, 0
3, 382, Note_on_c, 1, 59, 0
3, 384, Note_on_c, 1, 54, 60
3, 384, Note_on_c, 1, 57, 60
3, 478, Note_on_c, 1, 54, 0
3, 478, Note_on_c, 1, 57, 0
3, 480, Note_on_c, 1, 52, 75
3, 480, Note_on_c, 1, 59, 75
3, 574, Note_on_c, 1, 52, 0
3, 574, Note_on_c, 1, 59, 0
3, 864, Note_on_c, 1, 45, 45
3, 864, Note_on_c, 1, 49, 45
3, 864, Note_on_c, 1, 52, 45
3, 864, Note_on_c, 1, 55, 45
3, 896, Note_on_c, 1, 45, 0
3, 896, Note_on_c, 1, 49, 0
3, 896, Note_on_c, 1, 52, 0
3, 896, Note_on_c, 1, 55, 0
3, 1056, Note_on_c, 1, 45, 45
3, 1056, Note_on_c, 1, 49, 45
3, 1056, Note_on_c, 1, 52, 45
3, 1056, Note_on_c, 1, 55, 45
3, 1088, Note_on_c, 1, 45, 0
3, 1088, Note_on_c, 1, 49, 0
3, 1088, Note_on_c, 1, 52, 0
3, 1088, Note_on_c, 1, 55, 0
3, 1248, Note_on_c, 1, 50, 45
3, 1248, Note_on_c, 1, 54, 45
3, 1280, Note_on_c, 1, 50, 0
3, 1280, Note_on_c, 1, 54, 0
3, 1728, Note_on_c, 1, 62, 45
3, 1728, Note_on_c, 1, 69, 45
3, 1822, Note_on_c, 1, 62, 0
3, 1822, Note_on_c, 1, 69, 0
3, 1824, Note_on_c, 1, 67, 45
3, 1824, Note_on_c, 1, 71, 45
3, 1918, Note_on_c, 1, 67, 0
3, 1918, Note_on_c, 1, 71, 0
3, 1920, Note_on_c, 1, 66, 45
3, 1920, Note_on_c, 1, 69, 45
3, 2014, Note_on_c, 1, 66, 0
3, 2014, Note_on_c, 1, 69, 0
3, 2016, Note_on_c, 1, 64, 75
3, 2016, Note_on_c, 1, 71, 75
3, 2048, Note_on_c, 1, 64, 0
3, 2048, Note_on_c, 1, 71, 0
3, 2400, Note_on_c, 1, 61, 45
3, 2400, Note_on_c, 1, 64, 45
3, 2400, Note_on_c, 1, 67, 45
3, 2400, Note_on_c, 1, 71, 45
3, 2432, Note_on_c, 1, 61, 0
3, 2432, Note_on_c, 1, 64, 0
3, 2432, Note_on_c, 1, 67, 0
3, 2432, Note_on_c, 1, 71, 0
3, 2592, Note_on_c, 1, 61, 45
3, 2592, Note_on_c, 1, 64, 45
3, 2592, Note_on_c, 1, 67, 45
3, 2592, Note_on_c, 1, 71, 45
3, 2624, Note_on_c, 1, 61, 0
3, 2624, Note_on_c, 1, 64, 0
3, 2624, Note_on_c, 1, 67, 0
3, 2624, Note_on_c, 1, 71, 0
3, 2784, Note_on_c, 1, 62, 45
3, 2784, Note_on_c, 1, 66, 45
3, 2944, Note_on_c, 1, 62, 0
3, 2944, Note_on_c, 1, 66, 0
3, 3072, Control_c, 1, 91, 84
3, 3072, Control_c, 1, 93, 84
3, 3168, Note_on_c, 1, 50, 60
3, 3168, Note_on_c, 1, 57, 60
3, 3328, Note_on_c, 1, 50, 0
3, 3328, Note_on_c, 1, 57, 0
3, 3360, Note_on_c, 1, 55, 60
3, 3360, Note_on_c, 1, 59, 60
3, 3454, Note_on_c, 1, 55, 0
3, 3454, Note_on_c, 1, 59, 0
3, 3456, Note_on_c, 1, 54, 60
3, 3456, Note_on_c, 1, 57, 60
3, 3550, Note_on_c, 1, 54, 0
3, 3550, Note_on_c, 1, 57, 0
3, 3552, Note_on_c, 1, 52, 75
3, 3552, Note_on_c, 1, 59, 75
3, 3646, Note_on_c, 1, 52, 0
3, 3646, Note_on_c, 1, 59, 0
3, 3936, Note_on_c, 1, 45, 45
3, 3936, Note_on_c, 1, 49, 45
3, 3936, Note_on_c, 1, 52, 45
3, 3936, Note_on_c, 1, 55, 45
3, 3968, Note_on_c, 1, 45, 0
3, 3968, Note_on_c, 1, 49, 0
3, 3968, Note_on_c, 1, 52, 0
3, 3968, Note_on_c, 1, 55, 0
3, 4128, Note_on_c, 1, 45, 45
3, 4128, Note_on_c, 1, 49, 45
3, 4128, Note_on_c, 1, 52, 45
3, 4128, Note_on_c, 1, 55, 45
3, 4160, Note_on_c, 1, 45, 0
3, 4160, Note_on_c, 1, 49, 0
3, 4160, Note_on_c, 1, 52, 0
3, 4160, Note_on_c, 1, 55, 0
3, 4320, Note_on_c, 1, 50, 45
3, 4320, Note_on_c, 1, 54, 45
3, 4352, Note_on_c, 1, 50, 0
3, 4352, Note_on_c, 1, 54, 0
3, 4800, Note_on_c, 1, 62, 45
3, 4800, Note_on_c, 1, 69, 45
3, 4894, Note_on_c, 1, 62, 0
3, 4894, Note_on_c, 1, 69, 0
3, 4896, Note_on_c, 1, 67, 45
3, 4896, Note_on_c, 1, 71, 45
3, 4990, Note_on_c, 1, 67, 0
3, 4990, Note_on_c, 1, 71, 0
3, 4992, Note_on_c, 1, 66, 45
3, 4992, Note_on_c, 1, 69, 45
3, 5086, Note_on_c, 1, 66, 0
3, 5086, Note_on_c, 1, 69, 0
3, 5088, Note_on_c, 1, 64, 75
3, 5088, Note_on_c, 1, 71, 75
3, 5120, Note_on_c, 1, 64, 0
3, 5120, Note_on_c, 1, 71, 0
3, 5472, Note_on_c, 1, 61, 45
3, 5472, Note_on_c, 1, 64, 45
3, 5472, Note_on_c, 1, 67, 45
3, 5472, Note_on_c, 1, 71, 45
3, 5504, Note_on_c, 1, 61, 0
3, 5504, Note_on_c, 1, 64, 0
3, 5504, Note_on_c, 1, 67, 0
3, 5504, Note_on_c, 1, 71, 0
3, 5664, Note_on_c, 1, 61, 45
3, 5664, Note_on_c, 1, 64, 45
3, 5664, Note_on_c, 1, 67, 45
3, 5664, Note_on_c, 1, 71, 45
3, 5696, Note_on_c, 1, 61, 0
3, 5696, Note_on_c, 1, 64, 0
3, 5696, Note_on_c, 1, 67, 0
3, 5696, Note_on_c, 1, 71, 0
3, 5856, Note_on_c, 1, 62, 45
3, 5856, Note_on_c, 1, 66, 45
3, 6016, Note_on_c, 1, 62, 0
3, 6016, Note_on_c, 1, 66, 0
3, 6528, Note_on_c, 1, 47, 45
3, 6528, Note_on_c, 1, 54, 45
3, 6622, Note_on_c, 1, 47, 0
3, 6622, Note_on_c, 1, 54, 0
3, 6624, Note_on_c, 1, 49, 45
3, 6624, Note_on_c, 1, 54, 45
3, 6718, Note_on_c, 1, 49, 0
3, 6720, Note_on_c, 1, 42, 48
3, 6814, Note_on_c, 1, 42, 0
3, 6816, Note_on_c, 1, 47, 51
3, 6848, Note_on_c, 1, 47, 0
3, 6880, Note_on_c, 1, 54, 0
3, 7296, Note_on_c, 1, 59, 71
3, 7296, Note_on_c, 1, 62, 71
3, 7328, Note_on_c, 1, 59, 0
3, 7328, Note_on_c, 1, 62, 0
3, 7392, Note_on_c, 1, 61, 75
3, 7392, Note_on_c, 1, 64, 75
3, 7680, Note_on_c, 1, 61, 0
3, 7680, Note_on_c, 1, 64, 0
3, 7680, Note_on_c, 1, 57, 75
3, 7680, Note_on_c, 1, 61, 75
3, 7774, Note_on_c, 1, 57, 0
3, 7774, Note_on_c, 1, 61, 0
3, 7776, Note_on_c, 1, 62, 45
3, 7870, Note_on_c, 1, 62, 0
3, 7872, Note_on_c, 1, 50, 45
3, 7872, Note_on_c, 1, 57, 45
3, 7966, Note_on_c, 1, 50, 0
3, 7966, Note_on_c, 1, 57, 0
3, 7968, Note_on_c, 1, 55, 45
3, 7968, Note_on_c, 1, 59, 45
3, 8062, Note_on_c, 1, 55, 0
3, 8062, Note_on_c, 1, 59, 0
3, 8064, Note_on_c, 1, 54, 45
3, 8064, Note_on_c, 1, 57, 45
3, 8158, Note_on_c, 1, 54, 0
3, 8158, Note_on_c, 1, 57, 0
3, 8160, Note_on_c, 1, 52, 75
3, 8160, Note_on_c, 1, 59, 75
3, 8192, Note_on_c, 1, 52, 0
3, 8192, Note_on_c, 1, 59, 0
3, 8544, Note_on_c, 1, 45, 30
3, 8544, Note_on_c, 1, 49, 30
3, 8544, Note_on_c, 1, 52, 30
3, 8544, Note_on_c, 1, 55, 30
3, 8576, Note_on_c, 1, 45, 0
3, 8576, Note_on_c, 1, 49, 0
3, 8576, Note_on_c, 1, 52, 0
3, 8576, Note_on_c, 1, 55, 0
3, 8736, Note_on_c, 1, 45, 30
3, 8736, Note_on_c, 1, 49, 30
3, 8736, Note_on_c, 1, 52, 30
3, 8736, Note_on_c, 1, 55, 30
3, 8768, Note_on_c, 1, 45, 0
3, 8768, Note_on_c, 1, 49, 0
3, 8768, Note_on_c, 1, 52, 0
3, 8768, Note_on_c, 1, 55, 0
3, 8928, Note_on_c, 1, 50, 30
3, 8928, Note_on_c, 1, 54, 30
3, 8960, Note_on_c, 1, 50, 0
3, 8960, Note_on_c, 1, 54, 0
3, 9408, Note_on_c, 1, 62, 30
3, 9408, Note_on_c, 1, 69, 30
3, 9502, Note_on_c, 1, 62, 0
3, 9502, Note_on_c, 1, 69, 0
3, 9504, Note_on_c, 1, 67, 30
3, 9504, Note_on_c, 1, 71, 30
3, 9598, Note_on_c, 1, 67, 0
3, 9598, Note_on_c, 1, 71, 0
3, 9600, Note_on_c, 1, 66, 30
3, 9600, Note_on_c, 1, 69, 30
3, 9632, Note_on_c, 1, 66, 0
3, 9632, Note_on_c, 1, 69, 0
3, 9696, Note_on_c, 1, 64, 75
3, 9696, Note_on_c, 1, 71, 75
3, 9728, Note_on_c, 1, 64, 0
3, 9728, Note_on_c, 1, 71, 0
3, 10080, Note_on_c, 1, 61, 30
3, 10080, Note_on_c, 1, 64, 30
3, 10080, Note_on_c, 1, 67, 30
3, 10080, Note_on_c, 1, 71, 30
3, 10112, Note_on_c, 1, 61, 0
3, 10112, Note_on_c, 1, 64, 0
3, 10112, Note_on_c, 1, 67, 0
3, 10112, Note_on_c, 1, 71, 0
3, 10272, Note_on_c, 1, 61, 30
3, 10272, Note_on_c, 1, 64, 30
3, 10272, Note_on_c, 1, 67, 30
3, 10272, Note_on_c, 1, 71, 30
3, 10304, Note_on_c, 1, 61, 0
3, 10304, Note_on_c, 1, 64, 0
3, 10304, Note_on_c, 1, 67, 0
3, 10304, Note_on_c, 1, 71, 0
3, 10464, Note_on_c, 1, 62, 30
3, 10464, Note_on_c, 1, 66, 30
3, 10624, Note_on_c, 1, 62, 0
3, 10624, Note_on_c, 1, 66, 0
3, 11136, Note_on_c, 1, 47, 30
3, 11136, Note_on_c, 1, 54, 30
3, 11230, Note_on_c, 1, 47, 0
3, 11230, Note_on_c, 1, 54, 0
3, 11232, Note_on_c, 1, 49, 30
3, 11232, Note_on_c, 1, 54, 30
3, 11326, Note_on_c, 1, 49, 0
3, 11328, Note_on_c, 1, 42, 35
3, 11422, Note_on_c, 1, 42, 0
3, 11424, Note_on_c, 1, 47, 40
3, 11456, Note_on_c, 1, 47, 0
3, 11488, Note_on_c, 1, 54, 0
3, 11904, Note_on_c, 1, 59, 69
3, 11904, Note_on_c, 1, 62, 69
3, 11936, Note_on_c, 1, 59, 0
3, 11936, Note_on_c, 1, 62, 0
3, 12000, Note_on_c, 1, 61, 75
3, 12000, Note_on_c, 1, 64, 75
3, 12288, Note_on_c, 1, 61, 0
3, 12288, Note_on_c, 1, 64, 0
3, 12288, Note_on_c, 1, 57, 75
3, 12288, Note_on_c, 1, 61, 75
3, 12382, Note_on_c, 1, 57, 0
3, 12382, Note_on_c, 1, 61, 0
3, 12384, Note_on_c, 1, 62, 45
3, 12478, Note_on_c, 1, 62, 0
3, 12480, Note_on_c, 1, 50, 45
3, 12480, Note_on_c, 1, 57, 45
3, 12574, Note_on_c, 1, 50, 0
3, 12574, Note_on_c, 1, 57, 0
3, 12576, Note_on_c, 1, 55, 45
3, 12576, Note_on_c, 1, 59, 45
3, 12670, Note_on_c, 1, 55, 0
3, 12670, Note_on_c, 1, 59, 0
3, 12672, Note_on_c, 1, 54, 45
3, 12672, Note_on_c, 1, 57, 45
3, 12766, Note_on_c, 1, 54, 0
3, 12766, Note_on_c, 1, 57, 0
3, 12768, Note_on_c, 1, 52, 75
3, 12768, Note_on_c, 1, 59, 75
3, 12800, Note_on_c, 1, 52, 0
3, 12800, Note_on_c, 1, 59, 0
3, 13152, Note_on_c, 1, 45, 30
3, 13152, Note_on_c, 1, 49, 30
3, 13152, Note_on_c, 1, 52, 30
3, 13152, Note_on_c, 1, 55, 30
3, 13184, Note_on_c, 1, 45, 0
3, 13184, Note_on_c, 1, 49, 0
3, 13184, Note_on_c, 1, 52, 0
3, 13184, Note_on_c, 1, 55, 0
3, 13344, Note_on_c, 1, 45, 30
3, 13344, Note_on_c, 1, 49, 30
3, 13344, Note_on_c, 1, 52, 30
3, 13344, Note_on_c, 1, 55, 30
3, 13376, Note_on_c, 1, 45, 0
3, 13376, Note_on_c, 1, 49, 0
3, 13376, Note_on_c, 1, 52, 0
3, 13376, Note_on_c, 1, 55, 0
3, 13536, Note_on_c, 1, 50, 30
3, 13536, Note_on_c, 1, 54, 30
3, 13568, Note_on_c, 1, 50, 0
3, 13568, Note_on_c, 1, 54, 0
3, 14016, Note_on_c, 1, 62, 30
3, 14016, Note_on_c, 1, 69, 30
3, 14110, Note_on_c, 1, 62, 0
3, 14110, Note_on_c, 1, 69, 0
3, 14112, Note_on_c, 1, 67, 30
3, 14112, Note_on_c, 1, 71, 30
3, 14206, Note_on_c, 1, 67, 0
3, 14206, Note_on_c, 1, 71, 0
3, 14208, Note_on_c, 1, 66, 30
3, 14208, Note_on_c, 1, 69, 30
3, 14240, Note_on_c, 1, 66, 0
3, 14240, Note_on_c, 1, 69, 0
3, 14304, Note_on_c, 1, 64, 75
3, 14304, Note_on_c, 1, 71, 75
3, 14336, Note_on_c, 1, 64, 0
3, 14336, Note_on_c, 1, 71, 0
3, 14688, Note_on_c, 1, 61, 30
3, 14688, Note_on_c, 1, 64, 30
3, 14688, Note_on_c, 1, 67, 30
3, 14688, Note_on_c, 1, 71, 30
3, 14720, Note_on_c, 1, 61, 0
3, 14720, Note_on_c, 1, 64, 0
3, 14720, Note_on_c, 1, 67, 0
3, 14720, Note_on_c, 1, 71, 0
3, 14880, Note_on_c, 1, 61, 30
3, 14880, Note_on_c, 1, 64, 30
3, 14880, Note_on_c, 1, 67, 30
3, 14880, Note_on_c, 1, 71, 30
3, 14912, Note_on_c, 1, 61, 0
3, 14912, Note_on_c, 1, 64, 0
3, 14912, Note_on_c, 1, 67, 0
3, 14912, Note_on_c, 1, 71, 0
3, 15072, Note_on_c, 1, 62, 30
3, 15072, Note_on_c, 1, 66, 30
3, 15232, Note_on_c, 1, 62, 0
3, 15232, Note_on_c, 1, 66, 0
3, 15552, Note_on_c, 1, 54, 30
3, 15552, Note_on_c, 1, 57, 30
3, 15646, Note_on_c, 1, 54, 0
3, 15646, Note_on_c, 1, 57, 0
3, 15648, Note_on_c, 1, 52, 30
3, 15648, Note_on_c, 1, 57, 30
3, 15742, Note_on_c, 1, 52, 0
3, 15742, Note_on_c, 1, 57, 0
3, 15744, Note_on_c, 1, 50, 30
3, 15744, Note_on_c, 1, 53, 30
3, 15744, Note_on_c, 1, 56, 30
3, 15838, Note_on_c, 1, 50, 0
3, 15838, Note_on_c, 1, 53, 0
3, 15838, Note_on_c, 1, 56, 0
3, 15840, Note_on_c, 1, 49, 30
3, 15840, Note_on_c, 1, 52, 30
3, 15840, Note_on_c, 1, 57, 30
3, 15888, Note_on_c, 1, 49, 0
3, 15888, Note_on_c, 1, 52, 0
3, 15888, Note_on_c, 1, 57, 0
3, 16320, Note_on_c, 1, 55, 35
3, 16320, Note_on_c, 1, 59, 35
3, 16414, Note_on_c, 1, 55, 0
3, 16414, Note_on_c, 1, 59, 0
3, 16416, Note_on_c, 1, 54, 40
3, 16416, Note_on_c, 1, 59, 40
3, 16510, Note_on_c, 1, 54, 0
3, 16510, Note_on_c, 1, 59, 0
3, 16512, Note_on_c, 1, 52, 45
3, 16512, Note_on_c, 1, 55, 45
3, 16512, Note_on_c, 1, 58, 45
3, 16606, Note_on_c, 1, 52, 0
3, 16606, Note_on_c, 1, 55, 0
3, 16606, Note_on_c, 1, 58, 0
3, 16608, Note_on_c, 1, 50, 50
3, 16608, Note_on_c, 1, 54, 50
3, 16608, Note_on_c, 1, 59, 50
3, 16640, Note_on_c, 1, 50, 0
3, 16640, Note_on_c, 1, 54, 0
3, 16640, Note_on_c, 1, 59, 0
3, 17088, Note_on_c, 1, 62, 75
3, 17088, Note_on_c, 1, 66, 75
3, 17182, Note_on_c, 1, 62, 0
3, 17182, Note_on_c, 1, 66, 0
3, 17184, Note_on_c, 1, 61, 80
3, 17184, Note_on_c, 1, 66, 80
3, 17278, Note_on_c, 1, 61, 0
3, 17278, Note_on_c, 1, 66, 0
3, 17280, Note_on_c, 1, 59, 86
3, 17280, Note_on_c, 1, 62, 86
3, 17280, Note_on_c, 1, 65, 86
3, 17374, Note_on_c, 1, 59, 0
3, 17374, Note_on_c, 1, 62, 0
3, 17374, Note_on_c, 1, 65, 0
3, 17376, Note_on_c, 1, 57, 92
3, 17376, Note_on_c, 1, 61, 92
3, 17376, Note_on_c, 1, 66, 92
3, 17408, Note_on_c, 1, 57, 0
3, 17408, Note_on_c, 1, 61, 0
3, 17408, Note_on_c, 1, 66, 0
3, 17664, Note_on_c, 1, 60, 92
3, 17664, Note_on_c, 1, 69, 92
3, 17760, Note_on_c, 1, 60, 0
3, 17760, Note_on_c, 1, 69, 0
3, 17760, Note_on_c, 1, 61, 92
3, 17760, Note_on_c, 1, 69, 92
3, 17792, Note_on_c, 1, 61, 0
3, 17792, Note_on_c, 1, 69, 0
3, 17952, Note_on_c, 1, 61, 92
3, 17984, Note_on_c, 1, 61, 0
3, 18144, Note_on_c, 1, 54, 92
3, 18176, Note_on_c, 1, 54, 0
3, 18336, Note_on_c, 1, 49, 92
3, 18368, Note_on_c, 1, 49, 0
3, 18528, Note_on_c, 1, 42, 92
3, 18622, Note_on_c, 1, 42, 0
3, 18720, Note_on_c, 1, 37, 84
3, 18814, Note_on_c, 1, 37, 0
3, 18912, Note_on_c, 1, 30, 68
3, 19216, Note_on_c, 1, 30, 0
3, 19344, Note_on_c, 1, 50, 30
3, 19344, Note_on_c, 1, 57, 30
3, 19504, Note_on_c, 1, 50, 0
3, 19504, Note_on_c, 1, 57, 0
3, 19536, Note_on_c, 1, 55, 30
3, 19536, Note_on_c, 1, 59, 30
3, 19630, Note_on_c, 1, 55, 0
3, 19630, Note_on_c, 1, 59, 0
3, 19632, Note_on_c, 1, 54, 30
3, 19632, Note_on_c, 1, 57, 30
3, 19726, Note_on_c, 1, 54, 0
3, 19726, Note_on_c, 1, 57, 0
3, 19728, Note_on_c, 1, 52, 75
3, 19728, Note_on_c, 1, 59, 75
3, 19760, Note_on_c, 1, 52, 0
3, 19760, Note_on_c, 1, 59, 0
3, 20112, Note_on_c, 1, 45, 30
3, 20112, Note_on_c, 1, 49, 30
3, 20112, Note_on_c, 1, 52, 30
3, 20112, Note_on_c, 1, 55, 30
3, 20144, Note_on_c, 1, 45, 0
3, 20144, Note_on_c, 1, 49, 0
3, 20144, Note_on_c, 1, 52, 0
3, 20144, Note_on_c, 1, 55, 0
3, 20304, Note_on_c, 1, 45, 30
3, 20304, Note_on_c, 1, 49, 30
3, 20304, Note_on_c, 1, 52, 30
3, 20304, Note_on_c, 1, 55, 30
3, 20336, Note_on_c, 1, 45, 0
3, 20336, Note_on_c, 1, 49, 0
3, 20336, Note_on_c, 1, 52, 0
3, 20336, Note_on_c, 1, 55, 0
3, 20496, Note_on_c, 1, 50, 30
3, 20496, Note_on_c, 1, 54, 30
3, 20528, Note_on_c, 1, 50, 0
3, 20528, Note_on_c, 1, 54, 0
3, 20976, Note_on_c, 1, 62, 30
3, 20976, Note_on_c, 1, 69, 30
3, 21070, Note_on_c, 1, 62, 0
3, 21070, Note_on_c, 1, 69, 0
3, 21072, Note_on_c, 1, 67, 30
3, 21072, Note_on_c, 1, 71, 30
3, 21166, Note_on_c, 1, 67, 0
3, 21166, Note_on_c, 1, 71, 0
3, 21168, Note_on_c, 1, 66, 30
3, 21168, Note_on_c, 1, 69, 30
3, 21262, Note_on_c, 1, 66, 0
3, 21262, Note_on_c, 1, 69, 0
3, 21264, Note_on_c, 1, 64, 75
3, 21264, Note_on_c, 1, 71, 75
3, 21296, Note_on_c, 1, 64, 0
3, 21296, Note_on_c, 1, 71, 0
3, 21648, Note_on_c, 1, 57, 75
3, 21648, Note_on_c, 1, 61, 75
3, 21648, Note_on_c, 1, 64, 75
3, 21648, Note_on_c, 1, 67, 75
3, 21680, Note_on_c, 1, 57, 0
3, 21680, Note_on_c, 1, 61, 0
3, 21680, Note_on_c, 1, 64, 0
3, 21680, Note_on_c, 1, 67, 0
3, 21840, Note_on_c, 1, 57, 75
3, 21840, Note_on_c, 1, 61, 75
3, 21840, Note_on_c, 1, 64, 75
3, 21840, Note_on_c, 1, 67, 75
3, 21872, Note_on_c, 1, 57, 0
3, 21872, Note_on_c, 1, 61, 0
3, 21872, Note_on_c, 1, 64, 0
3, 21872, Note_on_c, 1, 67, 0
3, 22032, Note_on_c, 1, 62, 75
3, 22032, Note_on_c, 1, 66, 75
3, 22064, Note_on_c, 1, 62, 0
3, 22064, Note_on_c, 1, 66, 0
3, 22416, Note_on_c, 1, 50, 45
3, 22510, Note_on_c, 1, 50, 0
3, 22512, Note_on_c, 1, 57, 45
3, 22606, Note_on_c, 1, 57, 0
3, 22608, Note_on_c, 1, 55, 45
3, 22608, Note_on_c, 1, 59, 45
3, 22702, Note_on_c, 1, 55, 0
3, 22702, Note_on_c, 1, 59, 0
3, 22704, Note_on_c, 1, 54, 45
3, 22704, Note_on_c, 1, 57, 45
3, 22798, Note_on_c, 1, 54, 0
3, 22798, Note_on_c, 1, 57, 0
3, 22800, Note_on_c, 1, 52, 45
3, 22800, Note_on_c, 1, 59, 45
3, 22832, Note_on_c, 1, 52, 0
3, 22832, Note_on_c, 1, 59, 0
3, 23184, Note_on_c, 1, 45, 45
3, 23184, Note_on_c, 1, 49, 45
3, 23184, Note_on_c, 1, 52, 45
3, 23184, Note_on_c, 1, 55, 45
3, 23216, Note_on_c, 1, 45, 0
3, 23216, Note_on_c, 1, 49, 0
3, 23216, Note_on_c, 1, 52, 0
3, 23216, Note_on_c, 1, 55, 0
3, 23376, Note_on_c, 1, 45, 45
3, 23376, Note_on_c, 1, 49, 45
3, 23376, Note_on_c, 1, 52, 45
3, 23376, Note_on_c, 1, 55, 45
3, 23408, Note_on_c, 1, 45, 0
3, 23408, Note_on_c, 1, 49, 0
3, 23408, Note_on_c, 1, 52, 0
3, 23408, Note_on_c, 1, 55, 0
3, 23568, Note_on_c, 1, 50, 45
3, 23568, Note_on_c, 1, 54, 45
3, 23600, Note_on_c, 1, 50, 0
3, 23600, Note_on_c, 1, 54, 0
3, 24048, Note_on_c, 1, 62, 45
3, 24048, Note_on_c, 1, 69, 45
3, 24142, Note_on_c, 1, 62, 0
3, 24142, Note_on_c, 1, 69, 0
3, 24144, Note_on_c, 1, 67, 45
3, 24144, Note_on_c, 1, 71, 45
3, 24238, Note_on_c, 1, 67, 0
3, 24238, Note_on_c, 1, 71, 0
3, 24240, Note_on_c, 1, 66, 45
3, 24240, Note_on_c, 1, 69, 45
3, 24334, Note_on_c, 1, 66, 0
3, 24334, Note_on_c, 1, 69, 0
3, 24336, Note_on_c, 1, 64, 45
3, 24336, Note_on_c, 1, 71, 45
3, 24368, Note_on_c, 1, 64, 0
3, 24368, Note_on_c, 1, 71, 0
3, 24720, Note_on_c, 1, 57, 45
3, 24720, Note_on_c, 1, 61, 45
3, 24720, Note_on_c, 1, 64, 45
3, 24720, Note_on_c, 1, 67, 45
3, 24752, Note_on_c, 1, 57, 0
3, 24752, Note_on_c, 1, 61, 0
3, 24752, Note_on_c, 1, 64, 0
3, 24752, Note_on_c, 1, 67, 0
3, 24912, Note_on_c, 1, 57, 45
3, 24912, Note_on_c, 1, 61, 45
3, 24912, Note_on_c, 1, 64, 45
3, 24912, Note_on_c, 1, 67, 45
3, 24944, Note_on_c, 1, 57, 0
3, 24944, Note_on_c, 1, 61, 0
3, 24944, Note_on_c, 1, 64, 0
3, 24944, Note_on_c, 1, 67, 0
3, 25104, Note_on_c, 1, 62, 45
3, 25104, Note_on_c, 1, 66, 45
3, 25264, Note_on_c, 1, 62, 0
3, 25264, Note_on_c, 1, 66, 0
3, 25776, Note_on_c, 1, 47, 45
3, 25776, Note_on_c, 1, 54, 45
3, 25870, Note_on_c, 1, 47, 0
3, 25870, Note_on_c, 1, 54, 0
3, 25872, Note_on_c, 1, 49, 45
3, 25872, Note_on_c, 1, 54, 45
3, 25966, Note_on_c, 1, 49, 0
3, 25968, Note_on_c, 1, 42, 48
3, 26062, Note_on_c, 1, 42, 0
3, 26064, Note_on_c, 1, 47, 51
3, 26096, Note_on_c, 1, 47, 0
3, 26128, Note_on_c, 1, 54, 0
3, 26544, Note_on_c, 1, 59, 71
3, 26544, Note_on_c, 1, 62, 71
3, 26576, Note_on_c, 1, 59, 0
3, 26576, Note_on_c, 1, 62, 0
3, 26640, Note_on_c, 1, 61, 75
3, 26640, Note_on_c, 1, 64, 75
3, 26928, Note_on_c, 1, 61, 0
3, 26928, Note_on_c, 1, 64, 0
3, 26928, Note_on_c, 1, 57, 60
3, 26928, Note_on_c, 1, 61, 60
3, 27022, Note_on_c, 1, 57, 0
3, 27022, Note_on_c, 1, 61, 0
3, 27024, Note_on_c, 1, 62, 45
3, 27120, Note_on_c, 1, 62, 0
3, 27120, Note_on_c, 1, 50, 45
3, 27120, Note_on_c, 1, 57, 45
3, 27216, Note_on_c, 1, 50, 0
3, 27216, Note_on_c, 1, 57, 0
3, 27216, Note_on_c, 1, 55, 45
3, 27216, Note_on_c, 1, 59, 45
3, 27312, Note_on_c, 1, 55, 0
3, 27312, Note_on_c, 1, 59, 0
3, 27312, Note_on_c, 1, 54, 45
3, 27312, Note_on_c, 1, 57, 45
3, 27408, Note_on_c, 1, 54, 0
3, 27408, Note_on_c, 1, 57, 0
3, 27408, Note_on_c, 1, 52, 75
3, 27408, Note_on_c, 1, 59, 75
3, 27440, Note_on_c, 1, 52, 0
3, 27440, Note_on_c, 1, 59, 0
3, 27792, Note_on_c, 1, 45, 45
3, 27792, Note_on_c, 1, 49, 45
3, 27792, Note_on_c, 1, 52, 45
3, 27792, Note_on_c, 1, 55, 45
3, 27824, Note_on_c, 1, 45, 0
3, 27824, Note_on_c, 1, 49, 0
3, 27824, Note_on_c, 1, 52, 0
3, 27824, Note_on_c, 1, 55, 0
3, 27984, Note_on_c, 1, 45, 45
3, 27984, Note_on_c, 1, 49, 45
3, 27984, Note_on_c, 1, 52, 45
3, 27984, Note_on_c, 1, 55, 45
3, 28016, Note_on_c, 1, 45, 0
3, 28016, Note_on_c, 1, 49, 0
3, 28016, Note_on_c, 1, 52, 0
3, 28016, Note_on_c, 1, 55, 0
3, 28176, Note_on_c, 1, 50, 45
3, 28176, Note_on_c, 1, 54, 45
3, 28208, Note_on_c, 1, 50, 0
3, 28208, Note_on_c, 1, 54, 0
3, 28656, Note_on_c, 1, 62, 45
3, 28656, Note_on_c, 1, 69, 45
3, 28752, Note_on_c, 1, 62, 0
3, 28752, Note_on_c, 1, 69, 0
3, 28752, Note_on_c, 1, 67, 45
3, 28752, Note_on_c, 1, 71, 45
3, 28848, Note_on_c, 1, 67, 0
3, 28848, Note_on_c, 1, 71, 0
3, 28848, Note_on_c, 1, 66, 45
3, 28848, Note_on_c, 1, 69, 45
3, 28944, Note_on_c, 1, 66, 0
3, 28944, Note_on_c, 1, 69, 0
3, 28944, Note_on_c, 1, 64, 45
3, 28944, Note_on_c, 1, 71, 45
3, 28976, Note_on_c, 1, 64, 0
3, 28976, Note_on_c, 1, 71, 0
3, 29328, Note_on_c, 1, 57, 45
3, 29328, Note_on_c, 1, 61, 45
3, 29328, Note_on_c, 1, 64, 45
3, 29328, Note_on_c, 1, 67, 45
3, 29360, Note_on_c, 1, 57, 0
3, 29360, Note_on_c, 1, 61, 0
3, 29360, Note_on_c, 1, 64, 0
3, 29360, Note_on_c, 1, 67, 0
3, 29520, Note_on_c, 1, 57, 45
3, 29520, Note_on_c, 1, 61, 45
3, 29520, Note_on_c, 1, 64, 45
3, 29520, Note_on_c, 1, 67, 45
3, 29552, Note_on_c, 1, 57, 0
3, 29552, Note_on_c, 1, 61, 0
3, 29552, Note_on_c, 1, 64, 0
3, 29552, Note_on_c, 1, 67, 0
3, 29712, Note_on_c, 1, 62, 45
3, 29712, Note_on_c, 1, 66, 45
3, 29872, Note_on_c, 1, 62, 0
3, 29872, Note_on_c, 1, 66, 0
3, 30384, Note_on_c, 1, 47, 45
3, 30384, Note_on_c, 1, 50, 45
3, 30480, Note_on_c, 1, 47, 0
3, 30480, Note_on_c, 1, 50, 0
3, 30480, Note_on_c, 1, 49, 45
3, 30480, Note_on_c, 1, 52, 45
3, 30576, Note_on_c, 1, 49, 0
3, 30576, Note_on_c, 1, 42, 45
3, 30640, Note_on_c, 1, 52, 0
3, 30672, Note_on_c, 1, 42, 0
3, 30672, Note_on_c, 1, 47, 45
3, 30672, Note_on_c, 1, 50, 45
3, 30704, Note_on_c, 1, 47, 0
3, 30704, Note_on_c, 1, 50, 0
3, 31152, Note_on_c, 1, 59, 45
3, 31152, Note_on_c, 1, 62, 45
3, 31248, Note_on_c, 1, 59, 0
3, 31248, Note_on_c, 1, 62, 0
3, 31248, Note_on_c, 1, 61, 63
3, 31248, Note_on_c, 1, 64, 63
3, 31504, Note_on_c, 1, 61, 0
3, 31504, Note_on_c, 1, 64, 0
3, 31536, Note_on_c, 1, 57, 45
3, 31536, Note_on_c, 1, 61, 45
3, 31568, Note_on_c, 1, 57, 0
3, 31568, Note_on_c, 1, 61, 0
3, 31632, Note_on_c, 1, 62, 45
3, 31728, Note_on_c, 1, 62, 0
3, 31728, Note_on_c, 1, 50, 45
3, 31824, Note_on_c, 1, 50, 0
3, 31824, Note_on_c, 1, 55, 45
3, 31824, Note_on_c, 1, 59, 45
3, 31920, Note_on_c, 1, 55, 0
3, 31920, Note_on_c, 1, 59, 0
3, 31920, Note_on_c, 1, 54, 45
3, 31920, Note_on_c, 1, 57, 45
3, 32016, Note_on_c, 1, 54, 0
3, 32016, Note_on_c, 1, 57, 0
3, 32016, Note_on_c, 1, 52, 45
3, 32016, Note_on_c, 1, 59, 45
3, 32048, Note_on_c, 1, 52, 0
3, 32048, Note_on_c, 1, 59, 0
3, 32400, Note_on_c, 1, 45, 45
3, 32400, Note_on_c, 1, 49, 45
3, 32400, Note_on_c, 1, 52, 45
3, 32400, Note_on_c, 1, 55, 45
3, 32494, Note_on_c, 1, 45, 0
3, 32494, Note_on_c, 1, 49, 0
3, 32494, Note_on_c, 1, 52, 0
3, 32494, Note_on_c, 1, 55, 0
3, 32592, Note_on_c, 1, 45, 45
3, 32592, Note_on_c, 1, 49, 45
3, 32592, Note_on_c, 1, 52, 45
3, 32592, Note_on_c, 1, 55, 45
3, 32686, Note_on_c, 1, 45, 0
3, 32686, Note_on_c, 1, 49, 0
3, 32686, Note_on_c, 1, 52, 0
3, 32686, Note_on_c, 1, 55, 0
3, 32784, Note_on_c, 1, 50, 45
3, 32784, Note_on_c, 1, 54, 45
3, 32878, Note_on_c, 1, 50, 0
3, 32878, Note_on_c, 1, 54, 0
3, 33264, Note_on_c, 1, 62, 45
3, 33264, Note_on_c, 1, 69, 45
3, 33358, Note_on_c, 1, 62, 0
3, 33358, Note_on_c, 1, 69, 0
3, 33360, Note_on_c, 1, 67, 45
3, 33360, Note_on_c, 1, 71, 45
3, 33454, Note_on_c, 1, 67, 0
3, 33454, Note_on_c, 1, 71, 0
3, 33456, Note_on_c, 1, 66, 45
3, 33456, Note_on_c, 1, 69, 45
3, 33550, Note_on_c, 1, 66, 0
3, 33550, Note_on_c, 1, 69, 0
3, 33552, Note_on_c, 1, 64, 45
3, 33552, Note_on_c, 1, 71, 45
3, 33584, Note_on_c, 1, 64, 0
3, 33584, Note_on_c, 1, 71, 0
3, 33936, Note_on_c, 1, 57, 45
3, 33936, Note_on_c, 1, 61, 45
3, 33936, Note_on_c, 1, 64, 45
3, 33936, Note_on_c, 1, 67, 45
3, 33968, Note_on_c, 1, 57, 0
3, 33968, Note_on_c, 1, 61, 0
3, 33968, Note_on_c, 1, 64, 0
3, 33968, Note_on_c, 1, 67, 0
3, 34128, Note_on_c, 1, 57, 45
3, 34128, Note_on_c, 1, 61, 45
3, 34128, Note_on_c, 1, 64, 45
3, 34128, Note_on_c, 1, 67, 45
3, 34160, Note_on_c, 1, 57, 0
3, 34160, Note_on_c, 1, 61, 0
3, 34160, Note_on_c, 1, 64, 0
3, 34160, Note_on_c, 1, 67, 0
3, 34320, Note_on_c, 1, 62, 45
3, 34320, Note_on_c, 1, 66, 45
3, 34352, Note_on_c, 1, 62, 0
3, 34352, Note_on_c, 1, 66, 0
3, 34416, Note_on_c, 1, 62, 45
3, 34576, Note_on_c, 1, 62, 0
3, 34608, Note_on_c, 1, 62, 45
3, 34704, Note_on_c, 1, 62, 0
3, 34704, Note_on_c, 1, 62, 45
3, 34798, Note_on_c, 1, 62, 0
3, 34800, Note_on_c, 1, 62, 45
3, 34960, Note_on_c, 1, 62, 0
3, 34992, Note_on_c, 1, 62, 45
3, 35088, Note_on_c, 1, 62, 0
3, 35088, Note_on_c, 1, 62, 45
3, 35182, Note_on_c, 1, 62, 0
3, 35376, Note_on_c, 1, 62, 45
3, 35472, Note_on_c, 1, 62, 0
3, 35472, Note_on_c, 1, 62, 45
3, 35566, Note_on_c, 1, 62, 0
3, 35568, Note_on_c, 1, 62, 45
3, 35728, Note_on_c, 1, 62, 0
3, 35760, Note_on_c, 1, 62, 45
3, 35856, Note_on_c, 1, 62, 0
3, 35856, Note_on_c, 1, 62, 45
3, 35950, Note_on_c, 1, 62, 0
3, 35952, Note_on_c, 1, 50, 45
3, 36112, Note_on_c, 1, 50, 0
3, 36144, Note_on_c, 1, 50, 45
3, 36240, Note_on_c, 1, 50, 0
3, 36240, Note_on_c, 1, 50, 45
3, 36334, Note_on_c, 1, 50, 0
3, 36336, Note_on_c, 1, 50, 45
3, 36496, Note_on_c, 1, 50, 0
3, 36528, Note_on_c, 1, 50, 45
3, 36624, Note_on_c, 1, 50, 0
3, 36624, Note_on_c, 1, 50, 45
3, 36718, Note_on_c, 1, 50, 0
3, 36720, Note_on_c, 1, 50, 45
3, 36880, Note_on_c, 1, 50, 0
3, 36912, Note_on_c, 1, 50, 45
3, 37008, Note_on_c, 1, 50, 0
3, 37008, Note_on_c, 1, 50, 45
3, 37102, Note_on_c, 1, 50, 0
3, 37104, Note_on_c, 1, 50, 45
3, 37264, Note_on_c, 1, 50, 0
3, 37296, Note_on_c, 1, 50, 45
3, 37392, Note_on_c, 1, 50, 0
3, 37392, Note_on_c, 1, 50, 45
3, 37486, Note_on_c, 1, 50, 0
3, 37488, Note_on_c, 1, 38, 45
3, 37648, Note_on_c, 1, 38, 0
3, 37680, Note_on_c, 1, 38, 45
3, 37776, Note_on_c, 1, 38, 0
3, 37776, Note_on_c, 1, 38, 45
3, 37870, Note_on_c, 1, 38, 0
3, 37872, Note_on_c, 1, 38, 45
3, 38032, Note_on_c, 1, 38, 0
3, 38064, Note_on_c, 1, 38, 45
3, 38160, Note_on_c, 1, 38, 0
3, 38160, Note_on_c, 1, 38, 45
3, 38254, Note_on_c, 1, 38, 0
3, 38256, Note_on_c, 1, 38, 45
3, 38416, Note_on_c, 1, 38, 0
3, 38448, Note_on_c, 1, 38, 45
3, 38544, Note_on_c, 1, 38, 0
3, 38544, Note_on_c, 1, 38, 45
3, 38638, Note_on_c, 1, 38, 0
3, 38640, Note_on_c, 1, 38, 45
3, 38800, Note_on_c, 1, 38, 0
3, 38832, Note_on_c, 1, 38, 45
3, 38928, Note_on_c, 1, 38, 0
3, 38928, Note_on_c, 1, 38, 45
3, 39022, Note_on_c, 1, 38, 0
3, 39024, Note_on_c, 1, 38, 45
3, 39312, Note_on_c, 1, 38, 0
3, 39312, Note_on_c, 1, 38, 45
3, 39406, Note_on_c, 1, 38, 0
3, 39408, Note_on_c, 1, 38, 42
3, 39696, Note_on_c, 1, 38, 0
3, 39696, Note_on_c, 1, 38, 30
3, 39790, Note_on_c, 1, 38, 0
3, 39792, Note_on_c, 1, 38, 30
3, 40080, Note_on_c, 1, 38, 0
3, 40080, Note_on_c, 1, 38, 30
3, 40416, Note_on_c, 1, 38, 0
3, 40416, End_track
0, 0, End_of_file